<?xml version="1.0" encoding="UTF-8" ?>
<!DOCTYPE svg PUBLIC "-//W3C//DTD SVG 1.1//EN" "http://www.w3.org/Graphics/SVG/1.1/DTD/svg11.dtd">
<svg width="640pt" height="260pt" viewBox="0 0 640 260" version="1.1" xmlns="http://www.w3.org/2000/svg">
<g id="#525252ff">
<path fill="#525252" opacity="1.00" d=" M 0.00 0.00 L 638.41 0.00 C 632.43 1.77 626.10 0.80 619.97 0.99 C 585.32 1.15 550.66 0.71 516.01 1.03 C 376.00 0.88 236.00 1.05 96.00 1.02 C 86.99 1.00 77.99 0.90 68.99 0.92 C 46.00 1.22 23.00 0.75 0.00 0.95 L 0.00 0.00 Z" />
</g>
<g id="#010101ff">
<path fill="#010101" opacity="1.00" d=" M 638.41 0.00 L 640.00 0.00 L 640.00 260.00 L 0.00 260.00 L 0.00 0.95 C 23.00 0.75 46.00 1.22 68.99 0.92 C 77.99 0.90 86.99 1.00 96.00 1.02 C 236.00 1.05 376.00 0.88 516.01 1.03 C 550.66 0.71 585.32 1.15 619.97 0.99 C 626.10 0.80 632.43 1.77 638.41 0.00 M 231.65 39.47 C 226.27 40.07 220.94 41.22 215.83 43.02 C 209.41 45.35 203.95 49.54 197.91 52.63 C 194.55 54.44 190.94 56.36 188.91 59.73 C 186.98 62.52 185.06 65.32 182.91 67.95 C 180.43 70.75 177.58 73.33 175.93 76.75 C 171.94 85.01 170.23 94.25 170.12 103.38 C 170.45 103.18 171.11 102.77 171.44 102.57 C 172.93 100.16 174.93 98.05 176.03 95.41 C 176.94 97.41 175.34 100.19 175.70 102.46 C 176.49 102.43 178.09 102.37 178.88 102.34 C 178.01 105.58 176.28 108.53 175.30 111.75 C 175.60 111.70 176.22 111.61 176.53 111.56 C 178.36 109.72 180.25 107.85 181.43 105.49 C 184.53 99.75 187.50 93.80 192.11 89.10 C 194.71 86.45 198.37 85.13 201.98 84.64 C 204.51 84.22 206.17 86.51 207.99 87.81 C 210.27 87.70 212.52 87.28 214.81 87.27 C 215.48 88.39 215.88 89.64 216.23 90.89 C 215.52 92.57 213.14 92.93 212.89 94.90 C 213.80 95.77 215.29 95.96 215.95 97.08 C 216.13 98.39 215.09 99.46 214.57 100.57 C 212.17 104.32 210.31 108.37 208.58 112.46 C 205.62 117.99 200.03 122.91 193.56 123.18 C 194.53 120.91 196.36 119.18 197.78 117.20 C 194.26 117.44 190.86 118.53 187.34 118.72 C 187.66 115.88 189.44 113.50 190.11 110.76 C 188.51 110.36 186.76 111.45 185.67 112.57 C 184.54 114.86 184.10 117.41 183.49 119.87 C 182.93 122.51 181.91 125.20 182.43 127.94 C 183.42 129.75 185.25 130.82 186.89 131.97 C 188.40 137.44 189.06 143.18 191.26 148.45 C 192.26 150.99 194.86 153.87 197.75 152.00 C 198.70 151.87 200.60 151.61 201.55 151.49 C 201.83 158.05 199.53 164.79 201.24 171.23 C 201.25 174.34 202.29 177.39 204.03 179.95 C 207.18 183.90 211.97 185.97 215.47 189.55 C 217.03 190.99 218.24 192.81 219.93 194.10 C 222.38 198.11 226.86 200.51 230.00 204.00 C 235.65 208.90 239.37 215.46 244.39 220.93 C 249.77 226.72 254.98 232.67 259.81 238.93 C 259.80 236.22 258.10 233.74 258.66 231.01 C 260.10 225.63 262.96 220.66 263.89 215.16 C 262.44 214.50 261.09 215.15 259.77 215.72 C 258.44 215.42 257.58 214.23 256.49 213.50 C 254.69 211.94 252.24 211.62 250.15 210.59 C 242.75 207.07 237.19 200.80 230.13 196.74 C 227.70 195.39 225.35 193.91 223.06 192.34 L 222.27 192.50 C 222.07 190.46 218.69 190.48 218.29 188.49 C 220.63 188.64 222.96 189.13 225.21 189.80 C 227.75 191.78 230.33 193.72 232.93 195.64 L 233.64 195.32 L 233.80 196.08 C 239.18 199.77 244.02 204.33 249.95 207.20 C 252.93 208.64 255.81 210.43 258.96 211.42 C 266.41 211.20 274.30 211.92 281.17 208.41 C 285.89 205.90 291.02 203.70 294.58 199.55 C 297.23 196.61 298.00 192.51 300.45 189.43 C 301.45 188.11 302.96 187.30 303.98 186.01 C 303.85 183.88 304.09 181.66 303.49 179.59 C 302.18 179.80 300.88 180.10 299.57 180.27 C 298.79 178.40 299.18 176.33 299.24 174.38 C 298.91 174.47 298.26 174.65 297.93 174.74 C 294.95 181.29 293.05 188.28 289.94 194.77 C 286.94 201.45 280.30 206.36 273.02 207.21 C 267.66 207.42 262.01 207.31 257.11 204.86 C 251.76 201.29 247.66 196.21 242.68 192.20 L 241.97 192.05 C 241.04 189.22 240.81 186.22 240.54 183.27 C 244.14 186.24 246.77 190.81 250.76 193.36 L 251.00 194.01 C 255.33 197.96 261.10 199.94 266.88 200.45 C 271.31 200.84 275.96 201.93 280.26 200.21 C 284.17 198.34 287.38 195.07 289.19 191.14 C 291.60 186.53 292.77 181.44 294.28 176.51 C 295.68 171.86 298.61 167.85 299.92 163.17 C 300.72 160.31 301.33 157.38 301.50 154.41 C 299.11 155.26 296.58 155.96 294.56 157.57 C 291.42 160.80 289.49 165.09 285.98 167.98 C 283.02 169.98 279.51 171.05 275.97 171.33 C 273.18 171.05 270.78 169.18 267.96 169.15 C 265.37 169.47 263.29 171.16 260.92 172.06 C 257.40 167.32 252.22 164.11 247.93 160.11 C 245.56 160.26 247.41 163.41 246.76 164.90 C 245.70 164.55 244.32 164.54 243.59 163.58 C 243.55 163.00 243.45 161.85 243.40 161.27 C 244.72 159.02 244.42 156.10 246.04 153.94 C 249.93 153.13 254.05 154.68 258.03 153.99 C 262.55 153.88 267.20 151.95 271.62 153.50 C 272.81 155.17 273.36 157.19 273.96 159.13 C 277.51 160.25 281.65 159.41 284.84 157.50 C 281.45 156.56 277.91 156.40 274.55 155.40 C 274.20 154.12 274.11 152.77 275.90 152.95 C 282.07 153.20 288.59 153.76 294.45 151.46 C 293.46 148.48 292.48 145.45 291.53 142.45 C 288.17 143.66 284.68 145.99 280.90 144.82 C 277.64 144.45 276.13 141.30 274.14 139.15 C 270.15 139.28 266.17 139.84 262.27 140.69 C 263.92 139.08 265.61 137.38 267.93 136.82 C 272.95 135.99 278.01 137.89 283.03 136.96 C 285.74 136.65 288.35 135.62 291.10 135.60 C 292.27 136.05 293.33 136.84 294.57 137.12 C 294.79 138.44 296.29 138.91 296.97 139.97 C 298.33 141.84 298.55 144.37 300.05 146.13 C 301.26 146.25 302.53 146.27 303.69 145.80 C 306.43 140.94 308.76 135.65 309.14 130.00 C 309.25 122.68 305.12 116.19 304.71 108.95 C 304.47 106.70 304.60 104.36 303.83 102.21 C 302.32 99.94 300.13 98.24 298.22 96.32 C 299.98 96.46 301.78 96.70 303.53 96.25 C 304.79 92.22 302.91 87.78 300.11 84.83 C 300.95 83.29 304.14 84.52 303.86 82.32 C 301.07 80.32 298.01 78.61 295.79 75.93 C 295.58 74.71 294.64 73.82 294.05 72.78 C 291.24 68.41 288.59 63.80 284.58 60.39 C 276.89 53.42 269.86 45.07 260.15 40.92 C 259.79 39.11 257.76 39.32 256.39 39.39 C 248.14 39.74 239.89 39.24 231.65 39.47 M 369.43 79.36 C 369.54 91.80 369.51 104.24 369.44 116.68 C 371.70 117.84 374.60 117.12 377.09 117.10 C 377.35 104.74 377.16 92.33 377.20 79.95 L 376.79 79.29 C 374.34 79.25 371.87 79.19 369.43 79.36 M 382.19 79.28 C 381.12 81.10 382.01 83.51 381.74 85.55 C 385.34 85.86 388.98 85.72 392.59 85.55 C 392.97 86.66 393.15 87.81 393.11 88.99 C 393.12 98.32 393.02 107.65 393.16 116.98 C 395.39 117.62 397.81 117.08 400.11 117.26 C 401.22 116.18 400.45 114.37 400.69 113.00 C 400.78 104.00 400.47 94.92 400.84 85.96 C 404.32 85.17 408.16 86.04 411.78 85.67 C 412.19 83.54 412.11 81.37 411.72 79.25 C 401.87 79.31 392.03 79.26 382.19 79.28 M 416.50 79.39 C 416.71 81.75 416.66 84.11 416.55 86.48 C 417.76 86.46 418.97 86.53 420.18 86.70 C 420.31 88.34 419.47 90.14 418.03 91.00 C 415.97 91.44 415.84 94.14 417.88 94.84 C 421.19 93.88 423.85 90.63 423.81 87.11 C 423.88 84.50 424.09 81.87 423.77 79.28 C 421.34 79.27 418.91 79.19 416.50 79.39 M 437.59 79.82 C 433.05 81.40 430.20 86.45 431.23 91.16 C 431.40 93.89 433.47 95.92 435.45 97.56 C 440.07 100.72 445.98 100.59 450.91 102.99 C 453.23 103.98 453.19 107.01 452.06 108.89 C 448.98 112.01 443.83 112.03 440.17 109.98 C 438.50 108.62 437.53 106.53 437.36 104.40 C 435.08 104.07 432.78 104.56 430.50 104.67 C 430.28 104.95 429.83 105.51 429.61 105.79 C 430.39 108.57 431.15 111.60 433.36 113.64 C 436.00 116.62 440.09 117.83 443.98 117.85 C 448.53 117.97 453.78 117.66 457.14 114.16 C 462.09 109.75 461.63 100.73 456.07 96.97 C 451.21 93.87 445.17 93.77 440.01 91.40 C 437.85 90.29 437.83 87.04 440.04 85.97 C 444.15 83.79 451.01 84.74 451.83 90.19 C 454.24 90.71 456.77 90.19 459.23 90.21 C 459.76 85.97 456.77 81.52 452.77 79.98 C 447.95 78.16 442.44 78.10 437.59 79.82 M 197.47 95.44 C 195.29 96.75 192.78 97.91 191.45 100.20 C 190.36 101.90 190.36 103.99 190.20 105.94 C 190.52 105.82 191.15 105.58 191.46 105.46 C 194.44 102.49 197.08 99.02 198.87 95.22 C 198.52 95.27 197.82 95.39 197.47 95.44 M 174.28 113.51 C 172.28 113.90 171.65 117.76 174.15 117.81 C 176.91 118.64 176.72 112.71 174.28 113.51 M 174.38 120.18 C 173.62 124.10 173.80 128.17 175.37 131.88 C 176.13 133.48 176.14 135.62 177.60 136.79 C 177.61 132.90 178.28 128.93 177.38 125.09 C 176.52 123.38 175.41 121.80 174.38 120.18 M 177.26 138.20 C 176.06 139.17 177.19 141.99 178.76 140.78 C 180.08 139.84 178.80 136.96 177.26 138.20 M 347.83 142.86 C 347.51 155.25 347.83 167.68 347.67 180.09 L 348.19 180.70 C 350.61 180.74 353.05 180.83 355.48 180.59 C 355.33 175.32 355.37 170.05 355.42 164.77 C 360.65 164.22 365.98 164.97 371.23 164.45 C 370.99 162.44 371.94 160.03 370.85 158.26 C 365.75 158.14 360.65 158.27 355.56 158.22 C 355.21 155.44 355.46 152.62 355.33 149.82 L 356.01 149.25 C 361.85 149.25 367.69 149.28 373.54 149.26 C 373.88 147.10 373.81 144.89 373.55 142.74 C 364.98 142.83 356.40 142.62 347.83 142.86 M 380.13 142.95 C 380.18 155.54 380.00 168.13 380.22 180.72 C 382.71 180.74 385.20 180.75 387.69 180.67 C 387.88 175.44 387.47 170.18 387.86 164.97 C 390.58 164.62 393.92 164.90 395.78 167.21 C 399.06 171.56 401.84 176.35 405.09 180.67 C 408.02 180.79 410.97 180.73 413.91 180.73 C 413.26 178.50 411.58 176.80 410.46 174.82 C 408.00 170.74 405.48 166.50 401.28 163.98 C 403.68 163.44 406.22 162.86 408.05 161.07 C 413.14 156.34 411.76 146.85 405.43 143.85 C 399.75 142.24 393.81 142.91 387.99 142.75 C 385.37 142.87 382.71 142.51 380.13 142.95 M 418.40 143.30 C 418.35 155.74 418.37 168.18 418.39 180.61 C 427.85 180.86 437.34 180.68 446.81 180.71 C 447.97 178.97 446.94 176.48 447.28 174.46 C 440.31 174.25 433.31 174.22 426.34 174.48 C 425.75 171.18 426.59 167.76 425.62 164.50 C 431.96 163.50 438.54 164.75 444.86 163.87 C 445.53 161.93 445.04 159.78 445.10 157.76 C 438.84 157.46 432.55 157.69 426.28 157.66 C 425.95 154.88 426.09 152.05 426.20 149.26 C 432.94 149.25 439.67 149.29 446.41 149.25 C 446.59 147.10 446.66 144.93 446.41 142.79 C 437.24 142.69 428.06 142.82 418.89 142.72 L 418.40 143.30 M 453.77 142.83 C 453.53 155.24 453.79 167.67 453.64 180.09 L 454.16 180.71 C 463.64 180.70 473.13 180.82 482.61 180.65 C 482.62 178.55 482.61 176.46 482.59 174.37 C 475.57 174.24 468.55 174.41 461.53 174.32 C 461.57 170.97 460.80 167.28 461.82 164.14 C 467.96 164.12 474.10 164.21 480.24 164.11 C 480.59 161.99 480.48 159.82 480.32 157.69 C 474.01 157.50 467.71 157.73 461.41 157.60 C 461.35 154.84 461.39 152.08 461.38 149.33 C 468.12 149.16 474.87 149.32 481.62 149.26 C 481.97 147.12 481.97 144.89 481.62 142.75 C 472.34 142.81 463.05 142.64 453.77 142.83 M 180.86 150.01 C 180.00 152.24 181.98 154.01 183.83 154.80 C 183.47 153.00 183.23 150.11 180.86 150.01 M 262.88 154.86 C 262.76 156.33 262.73 157.79 262.78 159.26 C 265.78 159.09 268.68 158.08 271.57 157.31 C 271.68 156.43 271.30 155.95 270.45 155.84 C 267.94 155.42 265.43 154.82 262.88 154.86 M 259.65 156.78 C 257.64 157.63 255.17 157.08 253.33 158.28 C 253.36 158.83 253.42 159.92 253.45 160.46 C 255.01 161.08 256.77 161.91 258.47 161.33 C 260.46 160.83 261.39 158.29 260.60 156.49 C 260.36 156.56 259.89 156.71 259.65 156.78 M 175.46 184.55 C 173.93 185.85 172.17 187.53 172.12 189.66 C 173.58 189.43 175.05 189.02 176.30 188.22 C 176.89 187.00 176.52 185.55 176.57 184.24 C 176.29 184.32 175.74 184.47 175.46 184.55 M 164.55 192.84 C 162.55 193.77 159.22 193.72 158.41 196.01 C 160.42 196.34 162.40 196.83 164.33 197.50 C 164.44 196.90 164.65 195.69 164.76 195.08 C 166.87 194.44 170.15 194.24 170.78 191.69 C 168.65 191.72 166.59 192.33 164.55 192.84 M 154.03 197.96 C 149.71 198.42 145.76 200.56 142.31 203.07 L 142.26 203.64 C 146.06 203.82 149.84 203.10 153.54 202.27 C 155.15 201.12 157.43 199.96 157.72 197.82 C 156.80 197.86 154.95 197.93 154.03 197.96 M 289.57 206.84 C 287.00 208.43 285.37 212.22 286.42 215.21 C 287.58 219.42 290.08 223.71 288.71 228.17 C 288.01 232.26 286.32 236.14 285.75 240.23 C 287.94 240.34 290.14 240.24 292.34 240.18 C 292.58 236.75 291.46 233.34 290.61 230.04 C 292.01 229.45 292.57 228.48 292.30 227.13 C 291.22 220.29 291.54 213.29 292.49 206.45 C 291.50 206.53 290.53 206.66 289.57 206.84 Z" />
<path fill="#010101" opacity="1.00" d=" M 285.42 117.64 C 287.42 117.44 289.44 117.46 291.45 117.60 C 291.88 118.52 292.19 119.49 292.48 120.46 C 290.09 119.88 287.85 118.85 285.49 118.20 C 285.47 118.06 285.43 117.78 285.42 117.64 Z" />
<path fill="#010101" opacity="1.00" d=" M 295.29 117.39 C 296.47 117.34 297.65 117.32 298.83 117.34 C 299.71 119.86 296.88 119.95 295.22 120.53 C 295.08 119.47 295.10 118.42 295.29 117.39 Z" />
</g>
<g id="#fefefeff">
<path fill="#fefefe" opacity="1.00" d=" M 231.65 39.47 C 239.89 39.24 248.14 39.74 256.39 39.39 C 257.76 39.32 259.79 39.11 260.15 40.92 C 258.33 44.13 259.73 47.69 261.29 50.67 C 262.01 51.70 263.26 52.08 264.31 52.66 C 267.72 54.07 269.37 57.71 272.39 59.66 C 274.76 59.74 277.64 59.14 279.35 61.31 C 279.42 63.34 278.95 65.81 280.77 67.26 C 282.47 68.20 284.55 67.90 286.31 68.68 C 287.62 71.38 287.22 75.23 290.15 76.94 C 292.05 78.18 294.23 77.20 295.79 75.93 C 298.01 78.61 301.07 80.32 303.86 82.32 C 304.14 84.52 300.95 83.29 300.11 84.83 C 302.91 87.78 304.79 92.22 303.53 96.25 C 301.78 96.70 299.98 96.46 298.22 96.32 C 300.13 98.24 302.32 99.94 303.83 102.21 C 304.60 104.36 304.47 106.70 304.71 108.95 C 305.12 116.19 309.25 122.68 309.14 130.00 C 308.76 135.65 306.43 140.94 303.69 145.80 C 302.53 146.27 301.26 146.25 300.05 146.13 C 298.55 144.37 298.33 141.84 296.97 139.97 C 296.29 138.91 294.79 138.44 294.57 137.12 C 295.30 136.37 296.00 135.58 296.67 134.76 C 296.31 133.24 295.76 131.15 293.85 131.12 C 283.55 131.74 273.30 130.91 262.96 130.95 C 261.70 131.05 260.05 130.71 259.19 131.89 C 256.35 136.66 252.21 140.49 247.66 143.60 C 244.39 145.86 241.01 148.86 240.53 153.05 C 239.94 155.94 240.54 158.88 241.15 161.72 C 241.71 161.61 242.84 161.38 243.40 161.27 C 243.45 161.85 243.55 163.00 243.59 163.58 C 244.32 164.54 245.70 164.55 246.76 164.90 C 247.41 163.41 245.56 160.26 247.93 160.11 C 252.22 164.11 257.40 167.32 260.92 172.06 C 261.56 173.00 261.81 174.65 263.20 174.76 C 265.08 175.42 268.13 174.71 268.84 177.16 C 269.13 179.16 269.02 181.21 269.44 183.20 C 269.61 183.74 269.96 184.83 270.14 185.37 C 268.73 187.50 268.04 189.94 267.30 192.35 C 263.61 193.86 259.70 191.28 255.92 191.03 C 253.78 190.28 251.91 191.69 250.76 193.36 C 246.77 190.81 244.14 186.24 240.54 183.27 C 240.81 186.22 241.04 189.22 241.97 192.05 C 241.59 192.95 241.11 193.78 240.52 194.55 C 239.03 195.57 237.61 193.86 236.08 194.00 C 235.47 194.33 234.25 194.99 233.64 195.32 L 232.93 195.64 C 230.33 193.72 227.75 191.78 225.21 189.80 C 222.96 189.13 220.63 188.64 218.29 188.49 C 218.69 190.48 222.07 190.46 222.27 192.50 C 221.69 192.90 220.52 193.70 219.93 194.10 C 218.24 192.81 217.03 190.99 215.47 189.55 C 211.97 185.97 207.18 183.90 204.03 179.95 C 202.29 177.39 201.25 174.34 201.24 171.23 C 201.52 164.36 201.23 157.45 202.45 150.66 C 200.74 150.17 199.24 151.40 197.75 152.00 C 194.86 153.87 192.26 150.99 191.26 148.45 C 189.06 143.18 188.40 137.44 186.89 131.97 C 185.25 130.82 183.42 129.75 182.43 127.94 C 181.91 125.20 182.93 122.51 183.49 119.87 C 184.10 117.41 184.54 114.86 185.67 112.57 C 186.76 111.45 188.51 110.36 190.11 110.76 C 189.44 113.50 187.66 115.88 187.34 118.72 C 190.86 118.53 194.26 117.44 197.78 117.20 C 196.36 119.18 194.53 120.91 193.56 123.18 C 200.03 122.91 205.62 117.99 208.58 112.46 C 210.31 108.37 212.17 104.32 214.57 100.57 C 215.09 99.46 216.13 98.39 215.95 97.08 C 215.29 95.96 213.80 95.77 212.89 94.90 C 213.14 92.93 215.52 92.57 216.23 90.89 C 215.88 89.64 215.48 88.39 214.81 87.27 C 212.52 87.28 210.27 87.70 207.99 87.81 C 206.17 86.51 204.51 84.22 201.98 84.64 C 198.37 85.13 194.71 86.45 192.11 89.10 C 187.50 93.80 184.53 99.75 181.43 105.49 C 180.25 107.85 178.36 109.72 176.53 111.56 C 176.22 111.61 175.60 111.70 175.30 111.75 C 176.28 108.53 178.01 105.58 178.88 102.34 C 178.09 102.37 176.49 102.43 175.70 102.46 C 175.34 100.19 176.94 97.41 176.03 95.41 C 174.93 98.05 172.93 100.16 171.44 102.57 C 171.11 102.77 170.45 103.18 170.12 103.38 C 170.23 94.25 171.94 85.01 175.93 76.75 C 177.58 73.33 180.43 70.75 182.91 67.95 C 185.06 65.32 186.98 62.52 188.91 59.73 C 190.94 56.36 194.55 54.44 197.91 52.63 C 203.95 49.54 209.41 45.35 215.83 43.02 C 220.94 41.22 226.27 40.07 231.65 39.47 M 293.47 94.81 C 290.18 95.93 286.76 96.62 283.47 97.75 C 280.32 99.20 279.44 102.93 278.68 105.99 C 278.64 108.46 279.74 110.95 281.18 112.89 C 283.65 112.25 284.73 109.32 287.09 108.43 C 289.30 107.81 291.70 107.47 293.97 107.94 C 296.42 109.75 297.68 113.31 300.91 114.07 C 301.45 110.60 301.21 106.18 298.07 103.96 C 296.81 102.70 294.45 102.87 293.73 101.07 C 293.90 98.99 294.52 96.90 294.13 94.82 C 293.97 94.82 293.63 94.81 293.47 94.81 M 250.31 94.80 C 250.44 96.68 254.22 97.07 253.11 98.95 C 248.70 100.69 244.09 102.32 240.46 105.48 C 238.00 107.48 236.68 110.61 236.28 113.69 C 240.98 112.74 244.63 109.33 248.63 106.91 C 248.51 106.82 248.28 106.64 248.16 106.55 C 245.43 107.27 242.82 108.60 239.98 108.77 L 240.70 107.21 C 243.76 105.45 247.00 103.37 250.65 103.47 C 250.61 104.78 250.58 106.09 250.56 107.39 C 253.03 107.79 256.32 107.65 257.70 110.18 C 259.19 112.33 258.09 115.60 259.89 117.42 C 260.55 117.45 261.86 117.51 262.51 117.54 C 263.31 115.39 259.95 114.05 260.95 112.07 C 263.45 111.42 266.00 111.01 268.53 110.47 C 268.43 108.56 268.37 106.65 268.32 104.74 C 263.47 102.62 259.50 99.04 255.53 95.65 C 253.92 94.95 252.05 94.15 250.31 94.80 M 290.46 109.62 C 288.94 110.37 289.63 113.10 289.38 114.64 C 291.11 115.64 293.28 115.38 295.19 115.17 C 296.90 112.05 293.08 109.84 290.46 109.62 M 248.13 110.16 C 247.44 111.45 246.98 112.84 246.61 114.25 C 249.74 114.46 252.92 114.62 256.05 114.29 C 255.28 112.58 255.61 108.95 252.76 109.51 L 251.07 109.71 L 251.55 110.94 C 253.40 111.64 251.33 112.74 250.43 112.70 C 250.50 111.92 250.64 110.37 250.71 109.59 C 250.06 109.73 248.77 110.02 248.13 110.16 M 285.42 117.64 C 285.43 117.78 285.47 118.06 285.49 118.20 C 287.85 118.85 290.09 119.88 292.48 120.46 C 292.19 119.49 291.88 118.52 291.45 117.60 C 289.44 117.46 287.42 117.44 285.42 117.64 M 295.29 117.39 C 295.10 118.42 295.08 119.47 295.22 120.53 C 296.88 119.95 299.71 119.86 298.83 117.34 C 297.65 117.32 296.47 117.34 295.29 117.39 M 185.50 124.34 C 185.59 125.21 185.76 126.94 185.85 127.80 C 186.39 127.51 187.48 126.94 188.02 126.65 C 189.14 127.01 189.96 127.99 191.02 128.50 C 192.44 127.73 193.65 126.57 194.15 125.00 C 191.30 124.50 188.39 124.31 185.50 124.34 Z" />
<path fill="#fefefe" opacity="1.00" d=" M 369.43 79.36 C 371.87 79.19 374.34 79.25 376.79 79.29 L 377.20 79.95 C 377.16 92.33 377.35 104.74 377.09 117.10 C 374.60 117.12 371.70 117.84 369.44 116.68 C 369.51 104.24 369.54 91.80 369.43 79.36 Z" />
<path fill="#fefefe" opacity="1.00" d=" M 382.19 79.28 C 392.03 79.26 401.87 79.31 411.72 79.25 C 412.11 81.37 412.19 83.54 411.78 85.67 C 408.16 86.04 404.32 85.17 400.84 85.96 C 400.47 94.92 400.78 104.00 400.69 113.00 C 400.45 114.37 401.22 116.18 400.11 117.26 C 397.81 117.08 395.39 117.62 393.16 116.98 C 393.02 107.65 393.12 98.32 393.11 88.99 C 393.15 87.81 392.97 86.66 392.59 85.55 C 388.98 85.72 385.34 85.86 381.74 85.55 C 382.01 83.51 381.12 81.10 382.19 79.28 Z" />
<path fill="#fefefe" opacity="1.00" d=" M 347.83 142.86 C 356.40 142.62 364.98 142.83 373.55 142.74 C 373.81 144.89 373.88 147.10 373.54 149.26 C 367.69 149.28 361.85 149.25 356.01 149.25 L 355.33 149.82 C 355.46 152.62 355.21 155.44 355.56 158.22 C 360.65 158.27 365.75 158.14 370.85 158.26 C 371.94 160.03 370.99 162.44 371.23 164.45 C 365.98 164.97 360.65 164.22 355.42 164.77 C 355.37 170.05 355.33 175.32 355.48 180.59 C 353.05 180.83 350.61 180.74 348.19 180.70 L 347.67 180.09 C 347.83 167.68 347.51 155.25 347.83 142.86 Z" />
<path fill="#fefefe" opacity="1.00" d=" M 418.40 143.30 L 418.89 142.72 C 428.06 142.82 437.24 142.69 446.41 142.79 C 446.66 144.93 446.59 147.10 446.41 149.25 C 439.67 149.29 432.94 149.25 426.20 149.26 C 426.09 152.05 425.95 154.88 426.28 157.66 C 432.55 157.69 438.84 157.46 445.10 157.76 C 445.04 159.78 445.53 161.93 444.86 163.87 C 438.54 164.75 431.96 163.50 425.62 164.50 C 426.59 167.76 425.75 171.18 426.34 174.48 C 433.31 174.22 440.31 174.25 447.28 174.46 C 446.94 176.48 447.97 178.97 446.81 180.71 C 437.34 180.68 427.85 180.86 418.39 180.61 C 418.37 168.18 418.35 155.74 418.40 143.30 Z" />
<path fill="#fefefe" opacity="1.00" d=" M 453.77 142.83 C 463.05 142.64 472.34 142.81 481.62 142.75 C 481.97 144.89 481.97 147.12 481.62 149.26 C 474.87 149.32 468.12 149.16 461.38 149.33 C 461.39 152.08 461.35 154.84 461.41 157.60 C 467.71 157.73 474.01 157.50 480.32 157.69 C 480.48 159.82 480.59 161.99 480.24 164.11 C 474.10 164.21 467.96 164.12 461.82 164.14 C 460.80 167.28 461.57 170.97 461.53 174.32 C 468.55 174.41 475.57 174.24 482.59 174.37 C 482.61 176.46 482.62 178.55 482.61 180.65 C 473.13 180.82 463.64 180.70 454.16 180.71 L 453.64 180.09 C 453.79 167.67 453.53 155.24 453.77 142.83 Z" />
<path fill="#fefefe" opacity="1.00" d=" M 262.88 154.86 C 265.43 154.82 267.94 155.42 270.45 155.84 C 271.30 155.95 271.68 156.43 271.57 157.31 C 268.68 158.08 265.78 159.09 262.78 159.26 C 262.73 157.79 262.76 156.33 262.88 154.86 Z" />
</g>
<g id="#f4f4f4ff">
<path fill="#f4f4f4" opacity="1.00" d=" M 260.15 40.92 C 269.86 45.07 276.89 53.42 284.58 60.39 C 288.59 63.80 291.24 68.41 294.05 72.78 C 294.64 73.82 295.58 74.71 295.79 75.93 C 294.23 77.20 292.05 78.18 290.15 76.94 C 287.22 75.23 287.62 71.38 286.31 68.68 C 284.55 67.90 282.47 68.20 280.77 67.26 C 278.95 65.81 279.42 63.34 279.35 61.31 C 277.64 59.14 274.76 59.74 272.39 59.66 C 269.37 57.71 267.72 54.07 264.31 52.66 C 263.26 52.08 262.01 51.70 261.29 50.67 C 259.73 47.69 258.33 44.13 260.15 40.92 Z" />
</g>
<g id="#fcfcfcff">
<path fill="#fcfcfc" opacity="1.00" d=" M 416.50 79.39 C 418.91 79.19 421.34 79.27 423.77 79.28 C 424.09 81.87 423.88 84.50 423.81 87.11 C 423.85 90.63 421.19 93.88 417.88 94.84 C 415.84 94.14 415.97 91.44 418.03 91.00 C 419.47 90.14 420.31 88.34 420.18 86.70 C 418.97 86.53 417.76 86.46 416.55 86.48 C 416.66 84.11 416.71 81.75 416.50 79.39 Z" />
<path fill="#fcfcfc" opacity="1.00" d=" M 437.59 79.82 C 442.44 78.10 447.95 78.16 452.77 79.98 C 456.77 81.52 459.76 85.97 459.23 90.21 C 456.77 90.19 454.24 90.71 451.83 90.19 C 451.01 84.74 444.15 83.79 440.04 85.97 C 437.83 87.04 437.85 90.29 440.01 91.40 C 445.17 93.77 451.21 93.87 456.07 96.97 C 461.63 100.73 462.09 109.75 457.14 114.16 C 453.78 117.66 448.53 117.97 443.98 117.85 C 440.09 117.83 436.00 116.62 433.36 113.64 C 431.15 111.60 430.39 108.57 429.61 105.79 C 429.83 105.51 430.28 104.95 430.50 104.67 C 432.78 104.56 435.08 104.07 437.36 104.40 C 437.53 106.53 438.50 108.62 440.17 109.98 C 443.83 112.03 448.98 112.01 452.06 108.89 C 453.19 107.01 453.23 103.98 450.91 102.99 C 445.98 100.59 440.07 100.72 435.45 97.56 C 433.47 95.92 431.40 93.89 431.23 91.16 C 430.20 86.45 433.05 81.40 437.59 79.82 Z" />
<path fill="#fcfcfc" opacity="1.00" d=" M 197.47 95.44 C 197.82 95.39 198.52 95.27 198.87 95.22 C 197.08 99.02 194.44 102.49 191.46 105.46 C 191.15 105.58 190.52 105.82 190.20 105.94 C 190.36 103.99 190.36 101.90 191.45 100.20 C 192.78 97.91 195.29 96.75 197.47 95.44 Z" />
<path fill="#fcfcfc" opacity="1.00" d=" M 174.38 120.18 C 175.41 121.80 176.52 123.38 177.38 125.09 C 178.28 128.93 177.61 132.90 177.60 136.79 C 176.14 135.62 176.13 133.48 175.37 131.88 C 173.80 128.17 173.62 124.10 174.38 120.18 Z" />
</g>
<g id="#080808ff">
<path fill="#080808" opacity="1.00" d=" M 293.47 94.81 C 293.63 94.81 293.97 94.82 294.13 94.82 C 294.52 96.90 293.90 98.99 293.73 101.07 C 294.45 102.87 296.81 102.70 298.07 103.96 C 301.21 106.18 301.45 110.60 300.91 114.07 C 297.68 113.31 296.42 109.75 293.97 107.94 C 291.70 107.47 289.30 107.81 287.09 108.43 C 284.73 109.32 283.65 112.25 281.18 112.89 C 279.74 110.95 278.64 108.46 278.68 105.99 C 279.44 102.93 280.32 99.20 283.47 97.75 C 286.76 96.62 290.18 95.93 293.47 94.81 Z" />
<path fill="#080808" opacity="1.00" d=" M 185.50 124.34 C 188.39 124.31 191.30 124.50 194.15 125.00 C 193.65 126.57 192.44 127.73 191.02 128.50 C 189.96 127.99 189.14 127.01 188.02 126.65 C 187.48 126.94 186.39 127.51 185.85 127.80 C 185.76 126.94 185.59 125.21 185.50 124.34 Z" />
</g>
<g id="#090909ff">
<path fill="#090909" opacity="1.00" d=" M 250.31 94.80 C 252.05 94.15 253.92 94.95 255.53 95.65 C 259.50 99.04 263.47 102.62 268.32 104.74 C 268.37 106.65 268.43 108.56 268.53 110.47 C 266.00 111.01 263.45 111.42 260.95 112.07 C 259.95 114.05 263.31 115.39 262.51 117.54 C 261.86 117.51 260.55 117.45 259.89 117.42 C 258.09 115.60 259.19 112.33 257.70 110.18 C 256.32 107.65 253.03 107.79 250.56 107.39 C 250.58 106.09 250.61 104.78 250.65 103.47 C 247.00 103.37 243.76 105.45 240.70 107.21 L 239.98 108.77 C 242.82 108.60 245.43 107.27 248.16 106.55 C 248.28 106.64 248.51 106.82 248.63 106.91 C 244.63 109.33 240.98 112.74 236.28 113.69 C 236.68 110.61 238.00 107.48 240.46 105.48 C 244.09 102.32 248.70 100.69 253.11 98.95 C 254.22 97.07 250.44 96.68 250.31 94.80 Z" />
</g>
<g id="#040404ff">
<path fill="#040404" opacity="1.00" d=" M 290.46 109.62 C 293.08 109.84 296.90 112.05 295.19 115.17 C 293.28 115.38 291.11 115.64 289.38 114.64 C 289.63 113.10 288.94 110.37 290.46 109.62 Z" />
<path fill="#040404" opacity="1.00" d=" M 270.34 181.56 C 275.56 180.99 280.53 178.32 285.88 179.39 C 284.98 181.72 282.98 183.44 281.35 185.28 C 277.87 187.29 273.84 185.12 270.14 185.37 C 269.96 184.83 269.61 183.74 269.44 183.20 C 269.67 182.79 270.12 181.97 270.34 181.56 Z" />
</g>
<g id="#111111ff">
<path fill="#111111" opacity="1.00" d=" M 248.13 110.16 C 248.77 110.02 250.06 109.73 250.71 109.59 C 250.64 110.37 250.50 111.92 250.43 112.70 C 251.33 112.74 253.40 111.64 251.55 110.94 L 251.07 109.71 L 252.76 109.51 C 255.61 108.95 255.28 112.58 256.05 114.29 C 252.92 114.62 249.74 114.46 246.61 114.25 C 246.98 112.84 247.44 111.45 248.13 110.16 Z" />
</g>
<g id="#a2a2a2ff">
<path fill="#a2a2a2" opacity="1.00" d=" M 174.28 113.51 C 176.72 112.71 176.91 118.64 174.15 117.81 C 171.65 117.76 172.28 113.90 174.28 113.51 Z" />
</g>
<g id="#f7f7f7ff">
<path fill="#f7f7f7" opacity="1.00" d=" M 259.19 131.89 C 260.05 130.71 261.70 131.05 262.96 130.95 C 273.30 130.91 283.55 131.74 293.85 131.12 C 295.76 131.15 296.31 133.24 296.67 134.76 C 296.00 135.58 295.30 136.37 294.57 137.12 C 293.33 136.84 292.27 136.05 291.10 135.60 C 288.35 135.62 285.74 136.65 283.03 136.96 C 278.01 137.89 272.95 135.99 267.93 136.82 C 265.61 137.38 263.92 139.08 262.27 140.69 C 266.17 139.84 270.15 139.28 274.14 139.15 C 276.13 141.30 277.64 144.45 280.90 144.82 C 284.68 145.99 288.17 143.66 291.53 142.45 C 292.48 145.45 293.46 148.48 294.45 151.46 C 288.59 153.76 282.07 153.20 275.90 152.95 C 274.11 152.77 274.20 154.12 274.55 155.40 C 277.91 156.40 281.45 156.56 284.84 157.50 C 281.65 159.41 277.51 160.25 273.96 159.13 C 273.36 157.19 272.81 155.17 271.62 153.50 C 267.20 151.95 262.55 153.88 258.03 153.99 C 254.05 154.68 249.93 153.13 246.04 153.94 C 244.42 156.10 244.72 159.02 243.40 161.27 C 242.84 161.38 241.71 161.61 241.15 161.72 C 240.54 158.88 239.94 155.94 240.53 153.05 C 244.08 151.79 247.14 149.40 249.81 146.80 C 252.68 143.37 255.31 139.69 258.73 136.78 C 259.65 135.86 260.92 135.19 261.44 133.94 C 260.77 133.16 260.02 132.48 259.19 131.89 Z" />
</g>
<g id="#030303ff">
<path fill="#030303" opacity="1.00" d=" M 247.66 143.60 C 252.21 140.49 256.35 136.66 259.19 131.89 C 260.02 132.48 260.77 133.16 261.44 133.94 C 260.92 135.19 259.65 135.86 258.73 136.78 C 255.31 139.69 252.68 143.37 249.81 146.80 C 247.14 149.40 244.08 151.79 240.53 153.05 C 241.01 148.86 244.39 145.86 247.66 143.60 Z" />
</g>
<g id="#b5b5b5ff">
<path fill="#b5b5b5" opacity="1.00" d=" M 177.26 138.20 C 178.80 136.96 180.08 139.84 178.76 140.78 C 177.19 141.99 176.06 139.17 177.26 138.20 Z" />
</g>
<g id="#fdfdfdff">
<path fill="#fdfdfd" opacity="1.00" d=" M 380.13 142.95 C 382.71 142.51 385.37 142.87 387.99 142.75 C 393.81 142.91 399.75 142.24 405.43 143.85 C 411.76 146.85 413.14 156.34 408.05 161.07 C 406.22 162.86 403.68 163.44 401.28 163.98 C 405.48 166.50 408.00 170.74 410.46 174.82 C 411.58 176.80 413.26 178.50 413.91 180.73 C 410.97 180.73 408.02 180.79 405.09 180.67 C 401.84 176.35 399.06 171.56 395.78 167.21 C 393.92 164.90 390.58 164.62 387.86 164.97 C 387.47 170.18 387.88 175.44 387.69 180.67 C 385.20 180.75 382.71 180.74 380.22 180.72 C 380.00 168.13 380.18 155.54 380.13 142.95 M 387.60 149.40 C 387.79 152.45 387.77 155.52 387.58 158.57 C 391.66 158.99 395.82 158.79 399.91 158.50 C 403.44 157.70 404.43 152.49 401.58 150.33 C 400.37 149.12 398.56 149.34 397.01 149.30 C 393.87 149.34 390.72 149.07 387.60 149.40 Z" />
<path fill="#fdfdfd" opacity="1.00" d=" M 164.55 192.84 C 166.59 192.33 168.65 191.72 170.78 191.69 C 170.15 194.24 166.87 194.44 164.76 195.08 C 164.65 195.69 164.44 196.90 164.33 197.50 C 162.40 196.83 160.42 196.34 158.41 196.01 C 159.22 193.72 162.55 193.77 164.55 192.84 Z" />
</g>
<g id="#020202ff">
<path fill="#020202" opacity="1.00" d=" M 387.60 149.40 C 390.72 149.07 393.87 149.34 397.01 149.30 C 398.56 149.34 400.37 149.12 401.58 150.33 C 404.43 152.49 403.44 157.70 399.91 158.50 C 395.82 158.79 391.66 158.99 387.58 158.57 C 387.77 155.52 387.79 152.45 387.60 149.40 Z" />
</g>
<g id="#303030ff">
<path fill="#303030" opacity="1.00" d=" M 180.86 150.01 C 183.23 150.11 183.47 153.00 183.83 154.80 C 181.98 154.01 180.00 152.24 180.86 150.01 Z" />
</g>
<g id="#8c8c8cff">
<path fill="#8c8c8c" opacity="1.00" d=" M 197.75 152.00 C 199.24 151.40 200.74 150.17 202.45 150.66 C 201.23 157.45 201.52 164.36 201.24 171.23 C 199.53 164.79 201.83 158.05 201.55 151.49 C 200.60 151.61 198.70 151.87 197.75 152.00 Z" />
</g>
<g id="#f5f5f5ff">
<path fill="#f5f5f5" opacity="1.00" d=" M 294.56 157.57 C 296.58 155.96 299.11 155.26 301.50 154.41 C 301.33 157.38 300.72 160.31 299.92 163.17 C 298.61 167.85 295.68 171.86 294.28 176.51 C 292.77 181.44 291.60 186.53 289.19 191.14 C 287.38 195.07 284.17 198.34 280.26 200.21 C 275.96 201.93 271.31 200.84 266.88 200.45 C 261.10 199.94 255.33 197.96 251.00 194.01 L 250.76 193.36 C 251.91 191.69 253.78 190.28 255.92 191.03 C 259.70 191.28 263.61 193.86 267.30 192.35 C 268.04 189.94 268.73 187.50 270.14 185.37 C 273.84 185.12 277.87 187.29 281.35 185.28 C 282.98 183.44 284.98 181.72 285.88 179.39 C 280.53 178.32 275.56 180.99 270.34 181.56 C 270.12 181.97 269.67 182.79 269.44 183.20 C 269.02 181.21 269.13 179.16 268.84 177.16 C 268.13 174.71 265.08 175.42 263.20 174.76 C 261.81 174.65 261.56 173.00 260.92 172.06 C 263.29 171.16 265.37 169.47 267.96 169.15 C 270.78 169.18 273.18 171.05 275.97 171.33 C 279.51 171.05 283.02 169.98 285.98 167.98 C 289.49 165.09 291.42 160.80 294.56 157.57 Z" />
</g>
<g id="#f8f8f8ff">
<path fill="#f8f8f8" opacity="1.00" d=" M 259.65 156.78 C 259.89 156.71 260.36 156.56 260.60 156.49 C 261.39 158.29 260.46 160.83 258.47 161.33 C 256.77 161.91 255.01 161.08 253.45 160.46 C 253.42 159.92 253.36 158.83 253.33 158.28 C 255.17 157.08 257.64 157.63 259.65 156.78 Z" />
</g>
<g id="#f6f6f6ff">
<path fill="#f6f6f6" opacity="1.00" d=" M 297.93 174.74 C 298.26 174.65 298.91 174.47 299.24 174.38 C 299.18 176.33 298.79 178.40 299.57 180.27 C 300.88 180.10 302.18 179.80 303.49 179.59 C 304.09 181.66 303.85 183.88 303.98 186.01 C 302.96 187.30 301.45 188.11 300.45 189.43 C 298.00 192.51 297.23 196.61 294.58 199.55 C 291.02 203.70 285.89 205.90 281.17 208.41 C 274.30 211.92 266.41 211.20 258.96 211.42 C 255.81 210.43 252.93 208.64 249.95 207.20 C 244.02 204.33 239.18 199.77 233.80 196.08 L 233.64 195.32 C 234.25 194.99 235.47 194.33 236.08 194.00 C 237.61 193.86 239.03 195.57 240.52 194.55 C 241.11 193.78 241.59 192.95 241.97 192.05 L 242.68 192.20 C 247.66 196.21 251.76 201.29 257.11 204.86 C 262.01 207.31 267.66 207.42 273.02 207.21 C 280.30 206.36 286.94 201.45 289.94 194.77 C 293.05 188.28 294.95 181.29 297.93 174.74 Z" />
<path fill="#f6f6f6" opacity="1.00" d=" M 219.93 194.10 C 220.52 193.70 221.69 192.90 222.27 192.50 L 223.06 192.34 C 225.35 193.91 227.70 195.39 230.13 196.74 C 237.19 200.80 242.75 207.07 250.15 210.59 C 252.24 211.62 254.69 211.94 256.49 213.50 C 257.58 214.23 258.44 215.42 259.77 215.72 C 261.09 215.15 262.44 214.50 263.89 215.16 C 262.96 220.66 260.10 225.63 258.66 231.01 C 258.10 233.74 259.80 236.22 259.81 238.93 C 254.98 232.67 249.77 226.72 244.39 220.93 C 239.37 215.46 235.65 208.90 230.00 204.00 C 226.86 200.51 222.38 198.11 219.93 194.10 Z" />
</g>
<g id="#848484ff">
<path fill="#848484" opacity="1.00" d=" M 175.46 184.55 C 175.74 184.47 176.29 184.32 176.57 184.24 C 176.52 185.55 176.89 187.00 176.30 188.22 C 175.05 189.02 173.58 189.43 172.12 189.66 C 172.17 187.53 173.93 185.85 175.46 184.55 Z" />
</g>
<g id="#f9f9f9ff">
<path fill="#f9f9f9" opacity="1.00" d=" M 154.03 197.96 C 154.95 197.93 156.80 197.86 157.72 197.82 C 157.43 199.96 155.15 201.12 153.54 202.27 C 149.84 203.10 146.06 203.82 142.26 203.64 L 142.31 203.07 C 145.76 200.56 149.71 198.42 154.03 197.96 Z" />
<path fill="#f9f9f9" opacity="1.00" d=" M 289.57 206.84 C 290.53 206.66 291.50 206.53 292.49 206.45 C 291.54 213.29 291.22 220.29 292.30 227.13 C 292.57 228.48 292.01 229.45 290.61 230.04 C 291.46 233.34 292.58 236.75 292.34 240.18 C 290.14 240.24 287.94 240.34 285.75 240.23 C 286.32 236.14 288.01 232.26 288.71 228.17 C 290.08 223.71 287.58 219.42 286.42 215.21 C 285.37 212.22 287.00 208.43 289.57 206.84 Z" />
</g>
</svg>
