<?xml version="1.0" encoding="utf-8"?>
<!-- Generator: Adobe Illustrator 15.0.2, SVG Export Plug-In . SVG Version: 6.00 Build 0)  -->
<!DOCTYPE svg PUBLIC "-//W3C//DTD SVG 1.1//EN" "http://www.w3.org/Graphics/SVG/1.1/DTD/svg11.dtd">
<svg version="1.1" id="Layer_1" xmlns="http://www.w3.org/2000/svg" xmlns:xlink="http://www.w3.org/1999/xlink" x="0px" y="0px"
	 width="650px" height="240px" viewBox="0 0 650 240" enable-background="new 0 0 650 240" xml:space="preserve">
<path fill="#000200" d="M0,0h426.45c-28.66,5.89-59.03,2.33-86.73,12.76c-9.81,3.29-15.529,11.74-18.979,20.94
	c-7.03,32.37-1.98,65.84-4.221,98.64c2.49,13.85,1.45,30.141,12.631,40.551c12.21,10.819,28.859,11.029,43.96,13.81
	c64.37,2.28,128.55,7,192.87,10.31c16.75,0.561,35.649-0.76,48.76-12.31c7.229-7.37,8.33-18.101,10.17-27.71
	c0.26-41.66-0.05-83.33,0.14-124.99c1.41-11.7-4.91-21.85-9.479-32H650v212.02c-11.92,2.53-21.42,12.28-34.01,11.9
	c-14.05,0.03-28.37,1.48-41.98-2.939c-21.649-5.511-43.83-0.871-64.71,5.41c-14.17-0.671-28.359-0.461-42.54-0.15
	c-5.77-0.811-11.66-0.92-17.359-2.1c-0.04-0.33-0.12-0.99-0.16-1.33c-0.17-1.24-0.311-2.49-0.79-3.65
	c-2.32-8.84-11.61-11.57-19.601-8.301c-5.31,1.23-10.869-2.039-16.18,0.271c-10.97,2.11-21.939,4.97-31.92,10.09
	c-16.99,7.671-35.7,8.9-54.02,9.86c-0.641,0.01-1.91,0.01-2.551,0.01c-5.71,0.12-11.39,0.93-17.09,0.95
	c-9.37-20.979-17.6-42.46-25.73-63.931c5.15-3.64,10.68-6.76,15.68-10.629c5-3.371,8.43-8.381,12.02-13.11
	c9.4-10.11,4.631-25.16-2.079-35.36c-4.01-9.67-6.44-22.42-17.851-26.14c-4.98-0.76-10.15-1.06-14.77-3.28
	c-5.61-10.49-10.96-21.23-14.21-32.73c-2.61-8.24-11.49-10.42-18.92-12.15c-4.15-0.5-8.29-0.99-12.42-1.65
	c-0.9-0.47-1.8-0.94-2.71-1.39c-1.49-1.17-3.45-1.03-5.16-0.54c-5.7-0.17-11.36,0.28-17.01,0.86c-2.4,0.18-4.75,0.7-7.12,1.11
	c-3.89-0.08-7.78-0.11-11.66-0.09c-5.12-0.45-9.99,1.08-14.9,2.18c-6.41-0.65-13.31,1.95-16.53,7.73c-0.96,1.84-1.45,3.88-1.84,5.9
	c-1.27,1.88-2.76,3.59-4.38,5.17c-2.16-1.96-2.7,3.5-4.87,1.41c-5.45-4.72-16.33-6.26-20.62,0.58c-0.88,7.04-5.66,12.39-8.34,18.7
	c-2.36,17.11,0.44,34.64,0.32,51.61c-20.31,2.649-43.53,0.06-60.33,13.96c-3.35,1.92-4.5,6.01-3.43,9.72
	c1.9,7.62,3.88,15.271,4.88,23.08l0.06,0.81C56.85,196.96,68.75,217.51,73.3,240H0V0z"/>
<path fill="#0A0C08" d="M426.45,0h41c-24.86,3.8-50.101,4.19-75.03,7.46c-20.56,2.12-44.689,1.8-60.21,17.75
	c-10.33,10.47-9.95,26.18-10.25,39.79c0.36,25.49-0.55,51.01,0.46,76.48c0.44,10.959,4.59,21.779,12.91,29.16
	c19.37,13.719,44.21,11.68,66.66,13.709c48.5,3.11,96.93,5.09,145.47,8.051c19.63,0.189,47.18,5.569,60.86-12.48
	c0.489-0.061,1.479-0.16,1.979-0.22c6.59,2.409,2.63-6.98,3.86-10.45c6.729-5.84,4.09-16.3,5.649-24.27
	C620,108.46,620.41,71.91,619.59,35.4c-1.359-6.38,0.15-14.89-5.42-19.67c-0.08-2.68-0.229-8.04-0.31-10.73
	c-2.971,0.1-5.73,0.5-8.63,0.83c-1.45-0.17-4.33-0.52-5.771-0.7c-1.41-1.87-3.01-3.58-4.75-5.13h20.86
	c4.569,10.15,10.89,20.3,9.479,32c-0.189,41.66,0.12,83.33-0.14,124.99c-1.84,9.609-2.94,20.34-10.17,27.71
	c-13.11,11.55-32.01,12.87-48.76,12.31c-64.32-3.31-128.5-8.029-192.87-10.31c-15.101-2.78-31.75-2.99-43.96-13.81
	c-11.181-10.41-10.141-26.701-12.631-40.551c2.24-32.8-2.81-66.27,4.221-98.64c3.45-9.2,9.17-17.65,18.979-20.94
	C367.42,2.33,397.79,5.89,426.45,0z"/>
<path fill="#121411" d="M467.45,0h23.99C451.23,5.99,410.34,6.83,370,12.06c-18.7,2.07-39.93,11.95-43.55,32.38
	c-3.66,27.01-2.26,54.39-2.33,81.57c0.62,12.141,0.92,25.35,8.14,35.73c10.76,13.71,28.76,17.9,45.311,18.729
	c57.41,3.62,114.88,6.23,172.29,9.79c18.52,1.53,39.79,2.11,55.319-9.939c0.78-0.101,2.351-0.301,3.141-0.4
	c-13.681,18.05-41.23,12.67-60.86,12.48c-48.54-2.961-96.97-4.94-145.47-8.051c-22.45-2.029-47.29,0.01-66.66-13.709
	c-8.32-7.381-12.47-18.201-12.91-29.16c-1.01-25.471-0.1-50.99-0.46-76.48c0.3-13.61-0.08-29.32,10.25-39.79
	C347.73,9.26,371.86,9.58,392.42,7.46C417.35,4.19,442.59,3.8,467.45,0z"/>
<path fill="#1B1D1A" d="M491.44,0h29.01C476.23,5.57,431.7,8.31,387.31,12.32c-15.479,2.64-35.279,1.66-45.649,15.41l-0.69,0.34
	c-8.63,4.49-10.67,15.93-12.359,24.6c-1.25,28.34-0.551,56.8-0.38,85.18c1.52,8.94,3.229,20.44,11.72,25.34
	c0.24,0.24,0.72,0.721,0.96,0.961c6.229,7.899,16.52,10.41,25.939,12.1c57.011,5.4,114.391,6.96,171.57,10.26
	c18.021,1.58,36.94,3.801,54.24-2.89c2.45-0.79,4.05-2.89,5.67-4.761l0.96-0.079c1.9,0.09,3.8,0.12,5.71,0.14
	c1.77,0.16,3.54,0.42,5.3,0.78c-0.5,0.06-1.49,0.159-1.979,0.22c-0.79,0.1-2.36,0.3-3.141,0.4
	c-15.529,12.05-36.8,11.47-55.319,9.939c-57.41-3.56-114.88-6.17-172.29-9.79c-16.551-0.829-34.551-5.02-45.311-18.729
	c-7.22-10.381-7.52-23.59-8.14-35.73c0.07-27.18-1.33-54.56,2.33-81.57c3.62-20.43,24.85-30.31,43.55-32.38
	C410.34,6.83,451.23,5.99,491.44,0z"/>
<path fill="#242623" d="M520.45,0h22.1c-16.71,3.78-34.359,3.25-51.41,5.25c-41.76,4.74-83.97,5.89-125.52,12.29
	c-7.51,1.96-15.67,3.88-20.83,10.18c-0.78,0-2.35,0-3.13,0.01c10.37-13.75,30.17-12.77,45.649-15.41
	C431.7,8.31,476.23,5.57,520.45,0z"/>
<path fill="#2E302D" d="M542.55,0h52.16c1.74,1.55,3.34,3.26,4.75,5.13c-4,0.68-8.02,0.81-12.04,0.76
	c-7.07-5.33-17.26-3.04-25.43-3.96c-34.34,1.91-68.55,5.68-102.851,8.33c-30.43,3.81-61.319,3.8-91.51,9.33
	c-5.979,1.45-12.55,2.52-16.93,7.25c-1.97,0.32-3.92,0.73-5.91,0.88c5.16-6.3,13.32-8.22,20.83-10.18
	c41.55-6.4,83.76-7.55,125.52-12.29C508.19,3.25,525.84,3.78,542.55,0z"/>
<path fill="#3C3D3B" d="M459.14,10.26C493.44,7.61,527.65,3.84,561.99,1.93c8.17,0.92,18.359-1.37,25.43,3.96l-0.38,0.81
	c-1.69,0.02-5.08,0.05-6.78,0.07c-7.52-3.24-15.95-3.07-23.939-2.44c-45.95,3.92-91.84,8.2-137.79,12.09
	c-20.521,2.79-42.88,0.52-61.75,10.43c-2.021,0.13-4.05,0.04-6.08-0.01c4.38-4.73,10.95-5.8,16.93-7.25
	C397.82,14.06,428.71,14.07,459.14,10.26z"/>
<path fill="#4B4C49" d="M556.32,4.33c7.989-0.63,16.42-0.8,23.939,2.44c-4.92,0.98-9.95,1.38-14.939,1.01
	c-19.46-2.04-38.851,2.76-58.28,3.37c-35.2,3.37-70.53,5.42-105.66,9.47c-11.88,0.64-24.03,1.28-35.34,5.34
	c-3.11,0.33-6.15,0.75-9.26,0.89c18.87-9.91,41.229-7.64,61.75-10.43C464.48,12.53,510.37,8.25,556.32,4.33z"/>
<path fill="#6F716E" d="M599.46,5.13c1.44,0.18,4.32,0.53,5.771,0.7c-0.03,1.72-0.08,5.16-0.101,6.87
	c-0.12,3.74-0.22,7.48-0.09,11.21c-2.89-3.13-4.89-7.31-8.84-9.23c-0.45-1.68,0.609-4.88-2.09-4.63c-2.4-1.03-4.511-2.68-7.07-3.35
	l0.38-0.81C591.44,5.94,595.46,5.81,599.46,5.13z"/>
<path fill="#444643" d="M605.23,5.83C608.13,5.5,610.89,5.1,613.86,5c0.08,2.69,0.229,8.05,0.31,10.73
	c-0.15,4.17-0.27,8.35-0.37,12.52c-2.14-5.43-2.67-13-8.67-15.55C605.15,10.99,605.2,7.55,605.23,5.83z"/>
<path fill="#595B58" d="M507.04,11.15c19.43-0.61,38.82-5.41,58.28-3.37c-0.38,0.24-1.141,0.72-1.521,0.96
	C497.84,14,431.94,20,366.04,25.96c11.31-4.06,23.46-4.7,35.34-5.34C436.51,16.57,471.84,14.52,507.04,11.15z"/>
<path fill="#8A8A87" d="M565.32,7.78c4.989,0.37,10.02-0.03,14.939-1.01c1.7-0.02,5.09-0.05,6.78-0.07
	c2.56,0.67,4.67,2.32,7.07,3.35l-0.12,0.99c-2.42,0.29-4.851,0.26-7.26,0.12c-1.851-0.11-3.7-0.05-5.53,0.06
	c-5.82-0.72-11.57-1.9-17.4-2.479C564.18,8.5,564.94,8.02,565.32,7.78z"/>
<path fill="#9FA09E" d="M366.04,25.96C431.94,20,497.84,14,563.8,8.74c5.83,0.58,11.58,1.76,17.4,2.479
	c-14.22,1.75-28.53,2.561-42.78,3.9c2.17,4.92-3.15,3.85-6.63,4.68c-0.42,0.08-1.24,0.25-1.65,0.33c-3.279,0.08-7.35,1.08-7.71-2.95
	c-14.8,0.29-29.479,2.83-44.25,3.84c-10.939,0.95-21.97,1.61-32.79,3.32c-3.899,1.58,6.42-0.75,6.771,1.49
	c-2.67-1.45-9.24,3.65-9.29-1.65c-4.42,0.38-10.03-0.44-12.15,3.69c-5.52,2.07,8.2-7.24-4.68-1.85c-14.11,1-28.3,1.96-42.3,3.82
	c-5.21,0.02-10.4,0.43-15.561,1.16c-3.72,0.29-7.449,0.68-11.17,0.97C357.93,27.9,364.05,29.44,366.04,25.96z"/>
<path fill="#DCDFDF" d="M594.11,10.05c2.699-0.25,1.64,2.95,2.09,4.63c-0.13,3.67-0.271,7.35-0.061,11.03
	c-0.33,23.82-0.02,47.65-0.189,71.47c-0.62-1.92-1.69-3.45-3.9-3.4c-1.83-19.13,3.11-39.25-1.83-57.92c1.24-2.07,2.37-4.13,1.83-6.8
	c-3.42-0.14-6.76,0.35-10.149,0.09c-0.24-0.56-0.721-1.67-0.95-2.23c2.6-0.03,5.22-0.08,7.859-0.16c2.03-0.36,6.931,2.93,6.23-0.8
	c-0.05-0.72-0.13-2.16-0.17-2.88c-0.93-2.37-2.03-4.66-2.93-7.03c-1.511-1.58-5.011,0.31-7.261-0.18c2.09-1.82,4.94-1.8,7.521-2.55
	c1.359-0.12,1.95-0.88,1.79-2.28L594.11,10.05 M594.06,29.04c0.431,21-1.25,44.59,0.881,63.92
	C594.51,71.96,596.19,48.37,594.06,29.04z"/>
<path fill="#C7CED6" d="M581.2,11.22c1.83-0.11,3.68-0.17,5.53-0.06c0.42,2.62,3.569,1.73,5.47,2.16
	c-2.58,0.75-5.431,0.73-7.521,2.55c-13.529,1.04-27.05,2.23-40.58,3.24c-1.609-0.11-2.319,1.65-2.149,3
	c10.21-4.12,21.29,0.34,31.87-2.39c5.8-1.35,13.47,0.93,18.12-3.67c0.899,2.37,2,4.66,2.93,7.03c-1.69,0-5.061,0.01-6.75,0.01
	c-2.73,0-6.97,1.41-5.5-2.29c-1.58,1.11-3.09,2.3-4.66,3.4l-0.71,0.05c-3.28-0.15-6.56-0.71-9.62,0.61L566.96,25
	c-3.75,0.06-7.479,0.3-11.18,0.71c-1.521,0.17-3.021,0.42-4.521,0.62c-2.51,0.22-7.14-2.91-7.479,0.61
	c-1.261,0.09-2.521,0.16-3.771,0.23c-1.729-0.02-5.189-0.05-6.92-0.07c0.391-4.73-4.76,0.25,0,0l-0.02,0.77
	c-0.46,0.02-1.37,0.08-1.83,0.1c-3.851,0.03-7.67,0.33-11.45,0.91c-0.66,0.1-1.98,0.29-2.65,0.38c-2.68,0.51-1.46-2.05-1.38-3.61
	c4.891-3.52,12.141,0.03,17.23-3.7c1.779-1.83,7.22,3.93,7.029,0.1c1.011-4.45-5.619-1.48-8.229-2.25c3.479-0.83,8.8,0.24,6.63-4.68
	C552.67,13.78,566.98,12.97,581.2,11.22z"/>
<path fill="#C87060" d="M586.73,11.16c2.409,0.14,4.84,0.17,7.26-0.12c0.16,1.4-0.431,2.16-1.79,2.28
	C590.3,12.89,587.15,13.78,586.73,11.16z"/>
<path fill="#565754" d="M605.13,12.7c6,2.55,6.53,10.12,8.67,15.55c0.34,42.5,0.32,85.02,0.021,127.52
	c-2.63,5.371-2.37,13.94-8.721,16.521c-0.069-3.34-0.109-6.66,0.07-9.99c4.57-5.67,3.65-13.53,4.67-20.319
	c0.391-32.661,0.15-65.331-0.07-97.99c-0.359-6.67,0.62-15.04-4.729-20.08C604.91,20.18,605.01,16.44,605.13,12.7z"/>
<path fill="#F3F6F9" d="M584.68,15.87c2.25,0.49,5.75-1.4,7.261,0.18c-4.65,4.6-12.32,2.32-18.12,3.67
	c-10.58,2.73-21.66-1.729-31.87,2.39c-0.17-1.35,0.54-3.11,2.149-3C557.63,18.1,571.15,16.91,584.68,15.87z"/>
<path fill="#8C8E8B" d="M596.2,14.68c3.95,1.92,5.95,6.1,8.84,9.23c-0.22,43.94,0.25,87.89-0.24,131.82
	c-2.649,4.939-3.53,11.319-8.63,14.51c-0.11-3.67-0.22-7.32-0.03-10.99c4.98-4.1,3.641-11.55,4.74-17.27
	c0.14-31.141,0.38-62.291-0.18-93.431c0.08-7.57,0.96-16.75-4.561-22.84C595.93,22.03,596.07,18.35,596.2,14.68z"/>
<path fill="#181917" d="M614.17,15.73c5.57,4.78,4.061,13.29,5.42,19.67c0.82,36.51,0.41,73.06,0.22,109.581
	c-1.56,7.97,1.08,18.43-5.649,24.27c-0.13-4.5-0.271-8.99-0.34-13.48c0.3-42.5,0.319-85.02-0.021-127.52
	C613.9,24.08,614.02,19.9,614.17,15.73z"/>
<path fill="#CCCFCF" d="M478.18,21.02c14.771-1.01,29.45-3.55,44.25-3.84c0.36,4.03,4.431,3.03,7.71,2.95
	c-17.609,2.38-35.409,3.14-53.09,4.89C477.46,23.7,477.82,22.36,478.18,21.02z"/>
<path fill="#EEF1F5" d="M530.14,20.13c0.41-0.08,1.23-0.25,1.65-0.33c2.61,0.77,9.24-2.2,8.229,2.25c0.19,3.83-5.25-1.93-7.029-0.1
	c-5.09,3.73-12.34,0.18-17.23,3.7l-0.67-0.02c-46.88,0.74-93.67,8.82-140.58,9.98c-5.859-4.94-10.51,7.68-14.43,3.38
	c0.85-2.87-2.46-2.15-3.11-3.84c3.29-2.59,9.82,1.1,11.21-4.15c5.16-0.73,10.351-1.14,15.561-1.16c-0.24,3.39,1.529,4.41,5.29,3.06
	c29.35-2.55,58.689-5.06,88.02-7.88C494.73,23.27,512.53,22.51,530.14,20.13z"/>
<path fill="#B8C1CC" d="M445.39,24.34c10.82-1.71,21.851-2.37,32.79-3.32c-0.359,1.34-0.72,2.68-1.13,4
	c-29.33,2.82-58.67,5.33-88.02,7.88c-3.761,1.35-5.53,0.33-5.29-3.06c14-1.86,28.189-2.82,42.3-3.82c12.88-5.39-0.84,3.92,4.68,1.85
	c2.12-4.13,7.73-3.31,12.15-3.69c0.05,5.3,6.62,0.2,9.29,1.65C451.81,23.59,441.49,25.92,445.39,24.34z"/>
<path fill="#9DA2AA" d="M577.96,24.2c1.57-1.1,3.08-2.29,4.66-3.4c-1.47,3.7,2.77,2.29,5.5,2.29c0.79,5.37-4.54-0.14-7.14,1.99
	C579.58,25.79,577.64,26.68,577.96,24.2z"/>
<path fill="#2C3038" d="M588.12,23.09c1.689,0,5.06-0.01,6.75-0.01c0.04,0.72,0.12,2.16,0.17,2.88c-1.56,0.2-4.67,0.6-6.23,0.8
	c-2.64,0.08-5.26,0.13-7.859,0.16c-1.41-0.21-2.8,0.1-4.021,0.78c-3.02,0.11-5.92,0.16-8.89,0.32c-0.55,0.19-1.65,0.58-2.21,0.78
	c-3.34,0.1-6.58,0.2-9.88,0.24c-1.5-0.16-3.15-0.19-4.32,0.89c-2.96,0.04-5.79,0.07-8.7,0.11c-1.41-0.11-2.85-0.01-4.1,0.69
	c-3.04,0.13-5.96,0.28-8.96,0.31l-0.88-0.37c0.29-0.38,0.85-1.13,1.14-1.51c0.28-0.3,0.83-0.89,1.11-1.19
	c0.46-0.02,1.37-0.08,1.83-0.1c2.66,1.13,4.979,0.9,6.939-0.7c1.25-0.07,2.51-0.14,3.771-0.23c2.489-0.09,4.979-0.3,7.479-0.61
	c1.5-0.2,3-0.45,4.521-0.62c2.55-2.07,10.76,3.83,11.18-0.71l0.67-0.14c2.93,1.55,7.41,2.51,9.62-0.61l0.71-0.05
	c-0.32,2.48,1.62,1.59,3.021,0.88C583.58,22.95,588.91,28.46,588.12,23.09z"/>
<path fill="#9599A0" d="M567.63,24.86c3.061-1.32,6.34-0.76,9.62-0.61C575.04,27.37,570.56,26.41,567.63,24.86z"/>
<path fill="#646663" d="M605.04,23.91c5.35,5.04,4.37,13.41,4.729,20.08c0.221,32.66,0.461,65.33,0.07,97.99
	c-1.02,6.789-0.1,14.649-4.67,20.319c-0.12-2.19-0.27-4.38-0.37-6.569C605.29,111.8,604.82,67.85,605.04,23.91z"/>
<path fill="#C6CED9" d="M374.51,35.61c46.91-1.16,93.7-9.24,140.58-9.98c-0.97,3.95-5.14,3.35-8.359,4.13
	c-1.171,0.19-2.341,0.36-3.511,0.51c-2.26,3.62-12.59-5.69-10.319,0.89c-0.41,0.06-1.221,0.17-1.631,0.23
	c-3.159,0.15-7.029-2.23-9.579,0.38c-1.16,0.26-2.32,0.5-3.471,0.71c-3.109-0.82-6.43-3.56-8.569,0.35
	c-1.141,0.22-2.271,0.43-3.4,0.61c-3.33,0.13-6.21-3.52-8.45,0.48c-1.18,0.15-2.35,0.31-3.52,0.48c-8.42,3.76-5.92-4.66-11.24-1.24
	c0.66,0.65,1.34,1.27,2.05,1.88c-0.7,0.09-2.1,0.28-2.81,0.37c-1.82,0.62-17.59-3.41-9.12,0.53c-1.311,0.12-2.61,0.28-3.91,0.47
	c-4.11,2.22-7.9-4.8-9.43,0.54c-1.19,0.15-2.37,0.3-3.551,0.46c-4.17,0.09-10.67-3.6-13.239,0.88c-2.44-0.03-5.45-1.81-7.311,0.52
	c-1.83,0.19-3.649,0.33-5.47,0.5c-3.13-0.42-6.17-0.96-9.27-1.4c3.119,1.32,0.56,3-1.011,4.38c-0.04-0.53-0.12-1.59-0.16-2.12
	c-7.63,0.34-15.229,1.12-22.81,1.92c-1.65-0.01-3.3-0.01-4.94-0.02c0.421-4.24-5.859,3.34-4.399-3.41c0.109-1.2,0.24-2.39,0.37-3.58
	c3.27-0.25,8.67,1.59,8.979-3.11c3.721-0.29,7.45-0.68,11.17-0.97c-1.39,5.25-7.92,1.56-11.21,4.15c0.65,1.69,3.96,0.97,3.11,3.84
	c-5.59-1.53-0.43,5.01,0,0C364,43.29,368.65,30.67,374.51,35.61z"/>
<path fill="#2C2F33" d="M533.09,27.1C533.48,22.37,528.33,27.35,533.09,27.1z"/>
<path fill="#7B8597" d="M543.78,26.94c0.34-3.52,4.97-0.39,7.479-0.61C548.76,26.64,546.27,26.85,543.78,26.94z"/>
<path fill="#8F939B" d="M555.78,25.71c3.7-0.41,7.43-0.65,11.18-0.71C566.54,29.54,558.33,23.64,555.78,25.71z"/>
<path fill="#818380" d="M356.78,26.85c3.109-0.14,6.149-0.56,9.26-0.89c-1.99,3.48-8.11,1.94-9.03,6.01
	c-2.81,0.76-8.76-0.68-8.979,3.11c-0.13,1.19-0.261,2.38-0.37,3.58c-2.49,2.25-4.391,5.03-6.521,7.6c-0.13-1.51-0.25-3.02-0.38-4.53
	c0.11-1.99,0.12-3.99,0.11-5.98c0.05-2-0.01-3.99-0.04-5.99c0.03-0.42,0.1-1.27,0.14-1.69l0.69-0.34c0.78-0.01,2.35-0.01,3.13-0.01
	c1.99-0.15,3.94-0.56,5.91-0.88C352.73,26.89,354.76,26.98,356.78,26.85z"/>
<path fill="#898583" d="M506.73,29.76c3.22-0.78,7.39-0.18,8.359-4.13l0.67,0.02c-0.08,1.56-1.3,4.12,1.38,3.61
	C513.68,29.95,510.22,30.06,506.73,29.76z"/>
<path fill="#828488" d="M588.81,26.76c1.561-0.2,4.671-0.6,6.23-0.8C595.74,29.69,590.84,26.4,588.81,26.76z"/>
<path fill="#9D9F9C" d="M596.14,25.71c5.521,6.09,4.641,15.27,4.561,22.84c0.56,31.14,0.319,62.29,0.18,93.431
	c-1.1,5.72,0.24,13.17-4.74,17.27c-0.189-4.061-0.46-8.1-0.76-12.141c0.94-10.39,0.93-20.859,0.11-31.259
	c0.37-6.22,0.6-12.44,0.46-18.67C596.12,73.36,595.81,49.53,596.14,25.71z"/>
<path fill="#6F7380" d="M533.09,27.1c1.73,0.02,5.19,0.05,6.92,0.07c-1.96,1.6-4.279,1.83-6.939,0.7L533.09,27.1z"/>
<path fill="#83858A" d="M576.93,27.7c1.221-0.68,2.61-0.99,4.021-0.78c0.229,0.56,0.71,1.67,0.95,2.23
	C580.09,29.27,578.47,28.5,576.93,27.7z"/>
<path fill="#272926" d="M328.61,52.67c1.689-8.67,3.729-20.11,12.359-24.6c-0.04,0.42-0.109,1.27-0.14,1.69
	C328.15,47.49,331.3,70.54,331,91c0.21,24.22-3.04,50.2,8.95,72.189c-8.49-4.899-10.2-16.399-11.72-25.34
	C328.06,109.47,327.36,81.01,328.61,52.67z"/>
<path fill="#A28385" d="M492.9,31.16c-2.271-6.58,8.06,2.73,10.319-0.89C499.77,30.75,496.36,31.02,492.9,31.16z"/>
<path fill="#777C86" d="M519.79,28.88c3.78-0.58,7.6-0.88,11.45-0.91c-0.28,0.3-0.83,0.89-1.11,1.19
	C526.64,29.08,523.25,28.9,519.79,28.88z"/>
<path fill="#909195" d="M565.83,28.8c0.56-0.2,1.66-0.59,2.21-0.78C570.27,30.17,566.88,30.68,565.83,28.8z"/>
<path fill="#D0DEED" d="M568.04,28.02c2.97-0.16,5.87-0.21,8.89-0.32c1.54,0.8,3.16,1.57,4.971,1.45
	c3.39,0.26,6.729-0.23,10.149-0.09c0.54,2.67-0.59,4.73-1.83,6.8c-6.54-1.57-12.79,0.59-19.22,1.2c-3.41-1.26-9.57-3.09-9.38,0.85
	c-3.3,1.39-7.43-2.04-10.42,0.06c0.81,2.35,5.09,7.01-2.59,3.8c0.239-5.76-17.91-2.55-8.431-1.51c2.24,1.41-5.92-0.08-4.46,3.73
	c-0.239-6.63-19.95-5.35-10.46-1.96c-5.63-0.29-11.26-1-16.89-1.14c1.59,5.44-23.42-2.55-13.101,3.06
	c-5.609-0.5-11.239-1.05-16.859-1.01c0.77,6.23-14.351-4.04-12.851,3.19c-4.05,1.23-15.369-4.94-14.979,0.94
	c-3.13-0.33-6.22-1.22-9.39-1.03c-7.511,3.43-15.96-0.71-23.12,2.65c-8.811-2.21-17.971,4.3-26.36-1.4
	c-4.16-2.33-1.78,7.31-7.77,2.77c-4.351,2.79-7.9-3.73-11.21,0.49c-3-0.27-8.271-3.36-10.711-0.49l-0.13,0.52
	c-0.54,1.59,0.801,3.02,1.101,4.53c-3.141,0.38-4.2-3.32-7.24-3.4c5.65-3.16-2.62-3.23-5.21-0.2c-0.57,0.17-1.73,0.5-2.3,0.66
	c0.05-1.45-0.03-2.9-0.09-4.35c0.04-0.95,0.04-1.89,0.04-2.84c3.04,0,6.199,0.24,9.17-0.63c7.5-1.02,15.08-1.25,22.609-2.06
	c2.431,1.12,5.34,2.73,7.311-0.03c2.8-0.07,5.67-0.15,8.51-0.11c1.7,1.79,3.979,0.62,5.22-1.04c2.83-0.05,5.75-0.08,8.63-0.13
	c1.44,1.13,5.79,1.77,3.37-1.11c3.16,0.01,6.4,0.12,9.59,0.15c0.891,1.96,4.2,1.38,3.48-1.01c3.2-0.02,6.479-0.02,9.71-0.17
	c1.32,1.7,3.84,1.5,4.25-0.82c1.7,0.03,3.4,0.06,5.11,0.06c-7.511,3.45,17.42,1.34,6.659-0.93c7.71-0.19,15.41-0.74,23.091-1.43
	c1.1,1.07,3.79,1.79,3.17-0.689c3.27-0.04,6.62-0.021,9.91-0.32c2.51,2.36,8.67,1.1,2.81-0.68c2.89-0.07,5.87-0.03,8.8-0.04
	c1.561,1.08,3.92,1.42,4.47-0.92c7.301-0.19,14.58-0.85,21.881-1.38c1.239,1.16,4.72,2.38,3.93-0.65c3-0.03,5.92-0.18,8.96-0.31
	c1.06,3.06,3.05,1.27,4.1-0.69c2.91-0.04,5.74-0.07,8.7-0.11c1.09,3.17,3.311,1,4.32-0.89c3.3-0.04,6.54-0.14,9.88-0.24
	C566.88,30.68,570.27,30.17,568.04,28.02z"/>
<path fill="#3C404C" d="M517.14,29.26c0.67-0.09,1.99-0.28,2.65-0.38c3.46,0.02,6.85,0.2,10.34,0.28c-0.29,0.38-0.85,1.13-1.14,1.51
	c-1.05,0.26-2.07,0.6-3.05,1.02c-7.301,0.53-14.58,1.19-21.881,1.38c-1.56-0.44-3.29-0.28-4.47,0.92c-2.93,0.01-5.91-0.03-8.8,0.04
	c-0.98,0.04-1.92,0.27-2.81,0.68c-3.29,0.3-6.641,0.28-9.91,0.32c-1.15-0.17-2.2,0.06-3.17,0.689
	c-7.681,0.69-15.381,1.24-23.091,1.43c-2.239,0.13-4.439,0.64-6.659,0.93c-1.71,0-3.41-0.03-5.11-0.06
	c-1.48-0.27-3.07-0.18-4.25,0.82c-3.23,0.15-6.51,0.15-9.71,0.17c-1.38-0.34-2.54,0-3.48,1.01c-3.189-0.03-6.43-0.14-9.59-0.15
	c-1.26-0.08-2.39,0.29-3.37,1.11c-2.88,0.05-5.8,0.08-8.63,0.13c-1.83-0.44-3.79-0.27-5.22,1.04c-2.84-0.04-5.71,0.04-8.51,0.11
	c-6.45-0.15-1.53-3.66,2.97-2.95c1.82-0.17,3.64-0.31,5.47-0.5c2.42-0.14,4.86-0.31,7.311-0.52c4.39-0.3,8.859-0.17,13.239-0.88
	c1.181-0.16,2.36-0.31,3.551-0.46c3.12-0.04,6.34,0.15,9.43-0.54c1.3-0.19,2.6-0.35,3.91-0.47c3.02,0,6.14,0.15,9.12-0.53
	c0.71-0.09,2.109-0.28,2.81-0.37c3.03-0.06,6.18,0.04,9.19-0.64c1.17-0.17,2.34-0.33,3.52-0.48c2.78-0.12,5.66,0,8.45-0.48
	c1.13-0.18,2.26-0.39,3.4-0.61c2.81-0.07,5.739,0.18,8.569-0.35c1.15-0.21,2.311-0.45,3.471-0.71c3.159,0.06,6.449,0.4,9.579-0.38
	c0.41-0.06,1.221-0.17,1.631-0.23c3.46-0.14,6.869-0.41,10.319-0.89c1.17-0.15,2.34-0.32,3.511-0.51
	C510.22,30.06,513.68,29.95,517.14,29.26z"/>
<path fill="#96969A" d="M551.63,29.93c1.17-1.08,2.82-1.05,4.32-0.89C554.94,30.93,552.72,33.1,551.63,29.93z"/>
<path fill="#9E9F9C" d="M594.06,29.04c2.131,19.33,0.45,42.92,0.881,63.92C592.81,73.63,594.49,50.04,594.06,29.04z"/>
<path fill="#353634" d="M331,91c0.3-20.46-2.85-43.51,9.83-61.24c0.03,2,0.09,3.99,0.04,5.99c-5.14,9.52-6.84,20.53-6.88,31.23
	c-0.03,20.01,0.069,40.02-0.04,60.02c-0.42,10.141,2.109,20.33,6.89,29.25c0.021,2.63,0.04,5.26,0.07,7.9
	c-0.24-0.24-0.72-0.721-0.96-0.961C327.96,141.2,331.21,115.22,331,91z"/>
<path fill="#97997C" d="M469.65,32.83c2.14-3.91,5.46-1.17,8.569-0.35C475.39,33.01,472.46,32.76,469.65,32.83z"/>
<path fill="#878993" d="M481.69,31.77c2.55-2.61,6.42-0.23,9.579-0.38C488.14,32.17,484.85,31.83,481.69,31.77z"/>
<path fill="#949DA7" d="M538.83,30.73c1.25-0.7,2.689-0.8,4.1-0.69C541.88,32,539.89,33.79,538.83,30.73z"/>
<path fill="#9EA09D" d="M203.93,31.99c5.65-0.58,11.31-1.03,17.01-0.86c1.33,1.52,3.47,1.23,5.16,0.54
	c0.91,0.45,1.81,0.92,2.71,1.39c2.02,4.78,6.68,7.79,8.47,12.7c-9.5-2.6-18.42-7.03-28.06-9.14
	C207.56,34.72,201.58,35.33,203.93,31.99z"/>
<path fill="#474846" d="M220.94,31.13c1.71-0.49,3.67-0.63,5.16,0.54C224.41,32.36,222.27,32.65,220.94,31.13z"/>
<path fill="#978989" d="M457.8,33.92c2.24-4,5.12-0.35,8.45-0.48C463.46,33.92,460.58,33.8,457.8,33.92z"/>
<path fill="#9D9A9C" d="M525.94,31.69c0.979-0.42,2-0.76,3.05-1.02l0.88,0.37C530.66,34.07,527.18,32.85,525.94,31.69z"/>
<path fill="#575956" d="M196.81,33.1c2.37-0.41,4.72-0.93,7.12-1.11c-2.35,3.34,3.63,2.729,5.29,4.63
	c3.99,15.03,20.69,19.3,30.65,29.64c1.31,1.33,2.72,2.56,4.12,3.79c2.69,7.26-5.84,15.59,1.05,21.9c5.17,6.87,14.31,4.85,21.76,4.12
	c6.35,16.01,15.17,32.22,12.85,50.17c-0.2,3.359-0.91,6.85,0.34,10.09c-0.83,1.52-1.59,3.08-2.22,4.7c-1.33-3.25-2.58-6.54-4-9.75
	c3.16-17.24-0.98-37.61-17.57-46.42c-9.22-7.64-23.97-9.27-29.01-21.08C217.16,66.82,209.23,48.46,196.81,33.1z"/>
<path fill="#D79B5C" d="M348.03,35.08c0.22-3.79,6.17-2.35,8.979-3.11C356.7,36.67,351.3,34.83,348.03,35.08z"/>
<path fill="#828E9B" d="M443.04,33.16c5.32-3.42,2.82,5,11.24,1.24c-3.011,0.68-6.16,0.58-9.19,0.64
	C444.38,34.43,443.7,33.81,443.04,33.16z"/>
<path fill="#454744" d="M170.25,35.19c4.91-1.1,9.78-2.63,14.9-2.18c-12,20.021-3.42,43.76,0.71,65.12
	c1.38,2.92,2.19,7.47,5.99,8.08c19.03,2.31,39.75,0.33,57.09,9.86c10.53,7.96,20.43,18.93,22.86,32.2
	c-7.11-8.56-8.72-22.899-20.93-26.189c-16.34,0.67-32.78-1.05-48.26-6.65c-5.8-1.57-9.13-7.47-15-9.07
	c-11.44-0.9-22.93,0.04-34.38-0.5c-2.2-3.36,0.49-7.09,1.04-10.55c3.49-16.72,10.61-32.57,13.74-49.31
	C168.63,41.89,162.85,34.92,170.25,35.19z"/>
<path fill="#4D4F4C" d="M185.15,33.01c3.88-0.02,7.77,0.01,11.66,0.09c12.42,15.36,20.35,33.72,30.38,50.68
	c5.04,11.81,19.79,13.439,29.01,21.08c16.59,8.81,20.73,29.18,17.57,46.42c-0.68-0.99-1.36-1.98-1.97-3.011
	c-2.43-13.27-12.33-24.239-22.86-32.2c-17.34-9.53-38.06-7.55-57.09-9.86c-3.8-0.61-4.61-5.16-5.99-8.08
	C181.73,76.77,173.15,53.03,185.15,33.01z"/>
<path fill="#BBBEBA" d="M228.81,33.06c4.13,0.66,8.27,1.15,12.42,1.65c-8.51-1.2-1.22,8.73,1.46,11.59
	c2.96,5.33,13.51,6.67,11.61,13.86c-1.49,7.13,8.62,6.87,12.85,8.17c-3.5,0.82-5.43,3.14-5.72,6.7c3.89,6.59,14.13,4.09,16.63,11.9
	c1.89,4.69,7.17,6.11,10.11,9.91c-1.38,0.04-2.76,0.08-4.13,0.11c-0.91-0.73-1.82-1.45-2.71-2.19c-5.53-1.83-12.39-3.14-18.56-4.74
	c-0.89-0.65-1.78-1.31-2.68-1.95c-3.57-6.3-8.6-11.5-13.14-17.05c1.16-2.45,2.94-4.54,4.03-7.03c-3.72-5.97-6.97-12.97-12.82-17.19
	c-0.22-0.26-0.66-0.78-0.88-1.04C235.49,40.85,230.83,37.84,228.81,33.06z"/>
<path fill="#939498" d="M499.59,33.99c1.18-1.2,2.91-1.36,4.47-0.92C503.51,35.41,501.15,35.07,499.59,33.99z"/>
<path fill="#937E89" d="M419.82,36.95c1.529-5.34,5.319,1.68,9.43-0.54C426.16,37.1,422.94,36.91,419.82,36.95z"/>
<path fill="#7C899A" d="M433.16,35.94c-8.47-3.94,7.3,0.09,9.12-0.53C439.3,36.09,436.18,35.94,433.16,35.94z"/>
<path fill="#959AA6" d="M487.98,34.71c0.89-0.41,1.829-0.64,2.81-0.68C496.65,35.81,490.49,37.07,487.98,34.71z"/>
<path fill="#3C3E3B" d="M153.72,42.92c3.22-5.78,10.12-8.38,16.53-7.73c-7.4-0.27-1.62,6.7-2.24,10.81
	c-3.13,16.74-10.25,32.59-13.74,49.31c-0.55,3.46-3.24,7.19-1.04,10.55c11.45,0.54,22.94-0.4,34.38,0.5c5.87,1.6,9.2,7.5,15,9.07
	c15.48,5.6,31.92,7.32,48.26,6.65c12.21,3.29,13.82,17.63,20.93,26.189c0.61,1.03,1.29,2.021,1.97,3.011c1.42,3.21,2.67,6.5,4,9.75
	c1.02,2.439,2.21,4.819,3.59,7.079c8.13,21.471,16.36,42.951,25.73,63.931c1.2,2.59,2.21,5.26,3.17,7.96h-22.07
	c3.84-12.21-4.19-22.38-10.14-32.01c-14.14-21.42-25.16-46.08-45.83-62.21c-6.73-3.97-12.98-9.9-21.3-10.091
	c1.75-3.14,3.38-6.39,5.55-9.26c3.25-1.689,8.37,0.141,10.72-3.27c-10.94-2.01-22.07-3.52-32.43-7.83
	c-13.76,0.98-27.66,0.5-41.03-3.07c-5.69-3.44-7.2-11.05-6.6-17.2C145.35,76.98,160.53,60.59,153.72,42.92z"/>
<path fill="#DDDFDC" d="M242.69,46.3c-2.68-2.86-9.97-12.79-1.46-11.59c7.43,1.73,16.31,3.91,18.92,12.15
	c3.25,11.5,8.6,22.24,14.21,32.73c4.62,2.22,9.79,2.52,14.77,3.28c11.41,3.72,13.84,16.47,17.851,26.14
	c6.71,10.2,11.479,25.25,2.079,35.36c-4-0.57-2.63-5.07-3.39-8.07c-4.65-4.409-3.38-11.51-7.57-16.42
	c-3.7-7.5-5.41-15.96-9.93-23.04c-2.94-3.8-8.22-5.22-10.11-9.91c-2.5-7.81-12.74-5.31-16.63-11.9c0.29-3.561,2.22-5.88,5.72-6.7
	c-4.23-1.3-14.34-1.04-12.85-8.17C256.2,52.97,245.65,51.63,242.69,46.3 M294.12,96.33c-1.77,0.95-1.37,3.54-0.36,4.94
	c4.42,6.66,6.4,14.47,9.57,21.72c0.93-0.95,3.2-1.75,2.05-3.34C301.99,112.19,299.13,102.12,294.12,96.33z"/>
<path fill="#8F929B" d="M474.9,35.72c0.97-0.63,2.02-0.86,3.17-0.689C478.69,37.51,476,36.79,474.9,35.72z"/>
<path fill="#F8FAFA" d="M561.62,37.91c-0.19-3.94,5.97-2.11,9.38-0.85c6.43-0.61,12.68-2.77,19.22-1.2
	c4.94,18.67,0,38.79,1.83,57.92c-0.28,23.4,0.24,46.819-0.17,70.22c-59.17-2.18-118.56-6.07-177.51-7.09
	c-7.08-2.35-14.66,2.56-20.21-1.46c-3.99,1.88-8.22,2.11-12.54,0.75c4.62,1,4.899,1.46,0.14,2.6l-0.91,0.261
	c-0.659-0.67-1.31-1.351-1.939-2.041c-0.65-1.66-2.76-1.66-3.86-0.479c-3.18-1.88-6.91,0.59-10.2,1.33
	c-1.699,0.149-3.84,0.819-2.79,3.021c-0.779,0.049-2.35,0.17-3.13,0.219c-0.08-4.89-7.02-8.399-10.93-4.859
	c-0.03-0.47-0.09-1.41-0.11-1.88c-0.02-3.39,0.12-6.75-0.05-10.12c0.061-1.78,0.17-5.33,0.23-7.1c2.649-1.62,4.39-6.51,8.029-5.431
	c0.561,0.12,1.67,0.36,2.221,0.48c-2.9,0.89-5.051,7.11-0.96,6.83c-0.591-2.47,5.229-3.011,0.62-3.05
	c-4.851-0.16,4.05-1.98,5.18-4.03c-0.17-2.431-0.43-4.83-0.79-7.22c4.149-1.431,9.57,0.449,9.58-5.581
	c-10.601,0.45-3.78-0.67-1.5-1.68c1.72-5.05,6.02-8.64,10.04-11.9c1.87-0.52,4.77-0.58,1.689-2.09c2.09-4.21,6.311-1.82,9.71-2.43
	c-0.79-1.69-3.359-1.55-4.88-2.5c6.721-3.5,9.771-15.81,19.01-13.67c0.44-2.06-1.76-1.85-3.1-2.31c7.7-4.45,11.34-13.29,18.98-17.54
	c4.229-8.47,14.199-11.08,19.29-18.99c3.17-0.19,6.26,0.7,9.39,1.03c-0.39-5.88,10.93,0.29,14.979-0.94
	c-1.5-7.23,13.62,3.04,12.851-3.19c5.62-0.04,11.25,0.51,16.859,1.01c-10.319-5.61,14.69,2.38,13.101-3.06
	c5.63,0.14,11.26,0.85,16.89,1.14c-9.49-3.39,10.221-4.67,10.46,1.96c-1.46-3.81,6.7-2.32,4.46-3.73
	c-9.479-1.04,8.67-4.25,8.431,1.51c7.68,3.21,3.399-1.45,2.59-3.8C554.19,35.87,558.32,39.3,561.62,37.91 M559.34,39.33
	c-1.28,0.53-2.75,0.38-3.97,1.01C555.92,42.42,563.48,40.73,559.34,39.33 M560.01,45.04c-1.189,4.5,5.37,0.91,7.79,0.79
	C568.56,43.08,559.88,47.06,560.01,45.04 M548.27,51.36c-1.63,1-4.689,1.13-4.31,3.66C546.72,56.25,552.75,52.63,548.27,51.36
	 M556.34,58.33c-1.28,0.53-2.75,0.38-3.97,1.01C552.92,61.42,560.48,59.73,556.34,58.33 M461.33,62.24
	C463.82,65.54,466.24,59.98,461.33,62.24 M548.27,63.1C544.35,67.6,553.69,64.22,548.27,63.1 M543.97,64.92
	c-0.58,3.21,2.931,3.4,5.19,3.07C547.64,66.68,546.06,65.14,543.97,64.92 M512.1,69.47C513.41,73.78,518.13,68.61,512.1,69.47
	 M572.42,69.59c-9.41,1.16-19.01-0.47-28.33,1.59c-0.22,3.91-0.24,7.82-0.06,11.73c14.06,1.02,27.89-2.82,41.97-0.86
	c9.05,2.97,3.47-8.74,4.96-12.96C584.78,68.79,578.54,68.74,572.42,69.59 M488.19,70.12C484.99,74.88,495.53,69.48,488.19,70.12
	 M414.02,73.04c-0.229,3.43,6.211-0.62,7.83,4.03C422.96,71.85,418.29,72.32,414.02,73.04 M411.33,76.24
	C413.82,79.54,416.25,73.98,411.33,76.24 M451.89,81.28c-0.67,3.32,12.21,2.31,8.45,0.05C457.5,80.87,454.68,81.93,451.89,81.28
	 M434.24,82.34C434.59,87.06,440.79,79.46,434.24,82.34 M557.19,85.33C556.32,90,561.58,85.79,557.19,85.33 M574.3,85.47
	c-2.51,1.021-8.439-1.58-7.28,2.57C569.17,87.29,578.7,88.19,574.3,85.47 M586.33,85.22C587.87,90.46,592.65,82.9,586.33,85.22
	 M553.19,86.27C553.06,91.13,558.51,85.03,553.19,86.27 M562.4,86.22C564.4,90.46,567.77,84.01,562.4,86.22 M565.93,93.3
	c-1.26-1.27-4.42-0.07-3.59,1.84l-0.04,0.78c-1.66,1.9,1.94,4.42,2.8,1.77c1.24,0.35,2.511,0.48,3.83,0.39
	c0.04,0.55,0.141,1.67,0.181,2.22c-1,1.55-3.521,2.55-3.37-0.27c-0.83,2.52-7.811,5.96-1.891,4.89c1.83-2.89,4.811-1.92,6.92,0.29
	c-0.38-1.82-0.739-3.64-1.05-5.46c2.63-1.74,4.24-1.02,2.04-4.83C573.28,90.08,568.23,90,565.93,93.3 M391.01,95.99
	c-1.279,3.2,9.73,3.97,7.971,0.06C396.32,96.48,393.66,96.23,391.01,95.99 M544.01,108.99c0,0.49,0,1.47,0.01,1.96
	c15.311-0.5,33.28,1.32,46.961-0.92C575.32,109.3,559.66,109.63,544.01,108.99 M376.22,112.24
	C370.43,114.54,381.34,114.4,376.22,112.24 M384.3,112.19C378.91,113.62,387.03,115.22,384.3,112.19 M549.37,114.84
	c1.83,3.06,2.26-2.42,4.58-2c-2.521,2.91-1.61,6.4,2.77,5.08c1.23-1.76,2.84-3.38,3.42-5.51c-1.92,0.07-5.239-1.27-3.29,1.79
	C553.47,111.19,549.77,111.83,549.37,114.84 M579.96,112.01c-0.81,3.32,0.68,4.88,4.021,3.95
	C584.06,112.95,580.23,115.53,579.96,112.01 M388.33,113.24C390.82,116.54,393.25,110.98,388.33,113.24 M401.32,113.28
	c0.27,1.39,4.08,1.39,4.359,0C404.39,112.56,402.6,112.56,401.32,113.28 M415.33,113.24C417.82,116.54,420.25,110.98,415.33,113.24
	 M566.14,116.35c0.03,6.169-6.84,0.02-9.42,1.57c1.641,6.12,11.181-0.26,15.471-0.14C571.05,115.07,568.28,117.1,566.14,116.35
	 M380.86,119.03c1.54,2.31,4.83,2.04,7.29,1.95C387.02,117.9,383.37,119.19,380.86,119.03 M392.03,119.07
	c-0.761,3.29,4.05,0.78,5.95,1.88C398.86,117.49,394.02,119.41,392.03,119.07 M409.01,119.02c-1.02,2.919,2.25,1.86,3.98,1.96
	C414,118.05,410.73,119.11,409.01,119.02 M547.79,121.99c2.12,0.9,2.229,2.1,0.07,2.979c3.76,0.54,14.62-0.75,3.14-1.03
	C555.49,122.2,556.07,121.5,547.79,121.99 M368.2,125.22c0.3,2.591-2.021,3.86-4.29,3.101c-0.04,3.63,10.63,2.8,5.09-1.2
	C373.61,127.47,371.17,125.5,368.2,125.22 M379.33,126.24C381.82,129.54,384.25,123.98,379.33,126.24 M390.32,126.28
	c0.27,1.39,4.08,1.39,4.359,0C393.39,125.561,391.6,125.561,390.32,126.28 M554.94,127.891c2.04,4.379,10.01,3.969,12.01,2.239
	C562.68,130.22,558.87,128.99,554.94,127.891 M548.03,133.05c0.859,2.15,5.56,0.521,7.939,0.9
	C555.1,131.8,550.4,133.43,548.03,133.05 M584.04,138.939c0.36,1.181-1.13,4.44,0.97,4.08
	C588.68,144.22,587.05,137.91,584.04,138.939 M379.33,141.24C381.82,144.54,384.25,138.97,379.33,141.24 M401.12,141.33
	C395.61,144.63,410.44,142.37,401.12,141.33 M362.35,143.29c-1.119,0.24-1.939,0.81-2.46,1.7c4.38-0.65,8.79-0.631,13.21-0.28
	C373.27,140.03,364.87,144.46,362.35,143.29 M442.38,143.26C443.38,147.51,448.19,140.79,442.38,143.26 M548.02,143.04
	C546.5,150.17,556.32,140.25,548.02,143.04 M412.32,149.3c0.66,1.36,4.689,1.36,5.359,0C416.05,148.58,413.94,148.58,412.32,149.3
	 M445.07,150.061c-1,2.979,3.89,0.67,5.72,1.879C454.87,148.32,445.98,150.87,445.07,150.061z"/>
<path fill="#434542" d="M333.99,66.98c0.04-10.7,1.74-21.71,6.88-31.23c0.01,1.99,0,3.99-0.11,5.98C334.78,59.2,337.64,77.92,337,96
	c0.85,18.05-2.68,36.91,3.82,54.24c0.06,2,0.05,4.01,0.02,6.01c-4.78-8.92-7.31-19.109-6.89-29.25
	C334.06,107,333.96,86.99,333.99,66.98z"/>
<path fill="#A19E9F" d="M403.03,38.29c2.569-4.48,9.069-0.79,13.239-0.88C411.89,38.12,407.42,37.99,403.03,38.29z"/>
<path fill="#838481" d="M209.22,36.62c9.64,2.11,18.56,6.54,28.06,9.14c0.22,0.26,0.66,0.78,0.88,1.04
	c-0.8,6.61,1.2,12.96,1.71,19.46C229.91,55.92,213.21,51.65,209.22,36.62z"/>
<path fill="#83868F" d="M395.72,38.81c1.86-2.33,4.87-0.55,7.311-0.52C400.58,38.5,398.14,38.67,395.72,38.81z"/>
<path fill="#B6B4B5" d="M445.15,38.08c2.22-0.29,4.42-0.8,6.659-0.93C462.57,39.42,437.64,41.53,445.15,38.08z"/>
<path fill="#898C93" d="M380.98,37.91c3.1,0.44,6.14,0.98,9.27,1.4c-4.5-0.71-9.42,2.8-2.97,2.95c-1.971,2.76-4.88,1.15-7.311,0.03
	C381.54,40.91,384.1,39.23,380.98,37.91z"/>
<path fill="#9D999B" d="M435.79,38.84c1.18-1,2.77-1.09,4.25-0.82C439.63,40.34,437.11,40.54,435.79,38.84z"/>
<path fill="#999A97" d="M341.14,46.26c2.13-2.57,4.03-5.35,6.521-7.6c-1.46,6.75,4.82-0.83,4.399,3.41l0.03,1.05
	c-1.399,0.46-4.649-0.63-3.899,1.86c0,0.95,0,1.89-0.04,2.84c-4.141,3.27-3.431,9.51-4.07,14.19c-0.25,21.67,0.04,43.33-0.13,65
	c-0.28,5.92,0.45,12.24,3.89,17.24c0.17,3.37,0.03,6.73,0.05,10.12c-3.149-1.63-4.51-5.09-6.75-7.63
	c-0.149-5.16,0.08-10.32-0.43-15.46c0.48-23.16,0.42-46.35,0.08-69.521C340.93,56.59,340.94,51.42,341.14,46.26z"/>
<path fill="#75496B" d="M360.08,38.99C354.49,37.46,359.65,44,360.08,38.99z"/>
<path fill="#9A999C" d="M422.6,40.02c0.94-1.01,2.101-1.35,3.48-1.01C426.8,41.4,423.49,41.98,422.6,40.02z"/>
<path fill="#ABAFB4" d="M559.34,39.33c4.141,1.4-3.42,3.09-3.97,1.01C556.59,39.71,558.06,39.86,559.34,39.33z"/>
<path fill="#FBFBFB" d="M357,42.09c7.58-0.8,15.18-1.58,22.81-1.92c0.04,0.53,0.12,1.59,0.16,2.12
	c-7.529,0.81-15.109,1.04-22.609,2.06C357.27,43.78,357.09,42.65,357,42.09z"/>
<path fill="#969498" d="M409.64,40.98c0.98-0.82,2.11-1.19,3.37-1.11C415.43,42.75,411.08,42.11,409.64,40.98z"/>
<path fill="#9F9EA1" d="M395.79,42.15c1.43-1.31,3.39-1.48,5.22-1.04C399.77,42.77,397.49,43.94,395.79,42.15z"/>
<path fill="#525350" d="M337,96c0.64-18.08-2.22-36.8,3.76-54.27c0.13,1.51,0.25,3.02,0.38,4.53c-0.199,5.16-0.21,10.33-0.35,15.5
	c-1.11,23.07-1.55,46.521-0.08,69.521c0.51,5.14,0.28,10.3,0.43,15.46c-0.08,0.869-0.239,2.63-0.319,3.5
	C334.32,132.91,337.85,114.05,337,96z"/>
<path fill="#54514F" d="M352.06,42.07c1.641,0.01,3.29,0.01,4.94,0.02c0.09,0.56,0.27,1.69,0.36,2.26
	c-2.971,0.87-6.13,0.63-9.17,0.63c-0.75-2.49,2.5-1.4,3.899-1.86C355.9,45.8,356.43,42.32,352.06,42.07z"/>
<path fill="#323432" d="M151.88,48.82c0.39-2.02,0.88-4.06,1.84-5.9c6.81,17.67-8.37,34.06-6.59,52.14
	c-0.6,6.15,0.91,13.76,6.6,17.2c13.37,3.57,27.27,4.05,41.03,3.07c10.36,4.31,21.49,5.82,32.43,7.83
	c-2.35,3.41-7.47,1.58-10.72,3.27c-2.17,2.87-3.8,6.12-5.55,9.26c8.32,0.19,14.57,6.121,21.3,10.091
	c20.67,16.13,31.69,40.79,45.83,62.21c5.95,9.63,13.98,19.8,10.14,32.01h-2.07c3.89-13.359-6.73-23.939-12.14-35
	c-12-17.85-21.84-37.46-37.2-52.78c-8.3-6.1-16.5-14.189-27.48-14.55c-4.31-3.25,2.48-6.6,3.7-9.7c6.74-8.04-7.63-5.54-11.91-8.22
	c-18-3.07-36.74-1.39-54.87-4.03c-0.44-8.13-1.59-16.2-2.3-24.31c-6.8,3.17-5.86-10.39-0.31-11.74c0.12,1.59-1.9,5.38,1.13,4.17
	C146.28,71.92,152,60.91,151.88,48.82z"/>
<path fill="#C8B683" d="M352.09,43.12c3.811,2.68,4.34-0.8-0.03-1.05L352.09,43.12z"/>
<path fill="#A1B6D0" d="M560.01,45.04c-0.13,2.02,8.55-1.96,7.79,0.79C565.38,45.95,558.82,49.54,560.01,45.04z"/>
<path fill="#F0F0F5" d="M418.07,48.69c7.16-3.36,15.609,0.78,23.12-2.65c-5.091,7.91-15.061,10.52-19.29,18.99
	c-7.641,4.25-11.28,13.09-18.98,17.54c1.34,0.46,3.54,0.25,3.1,2.31c-9.239-2.14-12.289,10.17-19.01,13.67
	c1.521,0.95,4.09,0.81,4.88,2.5c-3.399,0.61-7.62-1.78-9.71,2.43c3.08,1.51,0.181,1.57-1.689,2.09c-4.021,3.26-8.32,6.85-10.04,11.9
	c-2.28,1.01-9.101,2.13,1.5,1.68c-0.01,6.03-5.431,4.15-9.58,5.581c-6.36-1.45-7.32,2-6.271,6.989
	c-3.64-1.079-5.38,3.811-8.029,5.431c0.05-28.331-0.4-56.66,0.17-84.98c0.569-0.16,1.729-0.49,2.3-0.66
	c1.74,0.05,3.47,0.17,5.21,0.2c3.04,0.08,4.1,3.78,7.24,3.4c-0.3-1.51-1.641-2.94-1.101-4.53c5.301,2.05,5.73-1.97,0.13-0.52
	c2.44-2.87,7.711,0.22,10.711,0.49c3.31-4.22,6.859,2.3,11.21-0.49c5.989,4.54,3.609-5.1,7.77-2.77
	C400.1,52.99,409.26,46.48,418.07,48.69 M379.21,52.1c-3.11,2.75,2.5,2.92,3.93,1.15C389.43,52.7,382.09,50.49,379.21,52.1
	 M359.16,60.48c-2.25,2.79,0.7,5.72,3.82,4.52C366.44,58.43,361.79,60.37,359.16,60.48 M375.2,66.13c-3.66,3.22,4.96,2.26,5.939-0.1
	C379.16,65.93,377.16,65.87,375.2,66.13 M358.03,76.05c0.859,2.15,5.569,0.52,7.939,0.9C365.1,74.8,360.4,76.43,358.03,76.05
	 M374.33,78.24C376.82,81.54,379.25,75.98,374.33,78.24 M384.3,83.19C378.91,84.62,387.03,86.22,384.3,83.19 M361.03,91.05
	c0.859,2.15,5.569,0.52,7.939,0.9C368.1,89.8,363.4,91.43,361.03,91.05 M355.99,101.05c0.87,2.15,8.87,2.57,7.16-2.13
	C364.18,93.15,352.85,94.93,355.99,101.05 M364.32,97.28c0.27,1.39,4.08,1.39,4.359,0C367.39,96.56,365.6,96.56,364.32,97.28
	 M355.95,103.02c0.66,4.01-0.17,11.24,6.91,7.98c-0.49-2.62-0.44-5.21,0.09-7.78C360.65,104.34,358.26,103.7,355.95,103.02
	 M362.08,112.29C359.37,116.01,368.54,112.8,362.08,112.29 M366.33,113.24C368.82,116.54,371.25,110.98,366.33,113.24z"/>
<path fill="#A3A5A2" d="M238.16,46.8c5.85,4.22,9.1,11.22,12.82,17.19c-1.09,2.49-2.87,4.58-4.03,7.03
	c4.54,5.55,9.57,10.75,13.14,17.05c-8.22-2.59-12.9-10.9-16.1-18.02c-1.4-1.23-2.81-2.46-4.12-3.79
	C239.36,59.76,237.36,53.41,238.16,46.8z"/>
<path fill="#A6A8A5" d="M344.08,62.01c0.64-4.68-0.07-10.92,4.07-14.19c0.06,1.45,0.14,2.9,0.09,4.35
	c-0.57,28.32-0.12,56.65-0.17,84.98c-0.061,1.77-0.17,5.319-0.23,7.1c-3.439-5-4.17-11.32-3.89-17.24
	C344.12,105.34,343.83,83.68,344.08,62.01z"/>
<path fill="#2B2C2A" d="M147.5,53.99c1.62-1.58,3.11-3.29,4.38-5.17c0.12,12.09-5.6,23.1-7.14,35.02c-3.03,1.21-1.01-2.58-1.13-4.17
	c-5.55,1.35-6.49,14.91,0.31,11.74c0.71,8.11,1.86,16.18,2.3,24.31c18.13,2.64,36.87,0.96,54.87,4.03
	c4.28,2.68,18.65,0.18,11.91,8.22c-1.22,3.101-8.01,6.45-3.7,9.7c10.98,0.36,19.18,8.45,27.48,14.55
	c15.36,15.32,25.2,34.931,37.2,52.78c5.41,11.061,16.03,21.641,12.14,35h-24.83c-7.29-22.061-15.78-43.75-27.23-64.02
	c-7.93-14.721-14.23-34.4-32.97-38.11c-25.5-5.261-52.1-3.05-77.92-1.58c-22.73,5.3-46.39,8.5-69.51,3.96
	c16.8-13.9,40.02-11.311,60.33-13.96c4.24,0.86,8.59,0.2,12.8-0.46c0.88-8.17,1.19-16.65,4.75-24.22c3.45-8.18,3.11-17.92,8.86-25.1
	C143.08,69.11,144.78,61.38,147.5,53.99z"/>
<path fill="#5B5E66" d="M350.54,51.51c2.59-3.03,10.86-2.96,5.21,0.2C354.01,51.68,352.28,51.56,350.54,51.51z"/>
<path fill="#F9794A" d="M362.02,50.06c5.601-1.45,5.171,2.57-0.13,0.52L362.02,50.06z"/>
<path fill="#090B07" d="M122.01,55.98c4.29-6.84,15.17-5.3,20.62-0.58c2.17,2.09,2.71-3.37,4.87-1.41
	c-2.72,7.39-4.42,15.12-7.1,22.52c-5.75,7.18-5.41,16.92-8.86,25.1c-3.56,7.57-3.87,16.05-4.75,24.22
	c-4.21,0.66-8.56,1.32-12.8,0.46c0.12-16.97-2.68-34.5-0.32-51.61C116.35,68.37,121.13,63.02,122.01,55.98z"/>
<path fill="#899EB6" d="M548.27,51.36c4.48,1.27-1.55,4.89-4.31,3.66C543.58,52.49,546.64,52.36,548.27,51.36z"/>
<path fill="#9998FA" d="M379.21,52.1c2.88-1.61,10.22,0.6,3.93,1.15C381.71,55.02,376.1,54.85,379.21,52.1z"/>
<path fill="#7797BB" d="M556.34,58.33c4.141,1.4-3.42,3.09-3.97,1.01C553.59,58.71,555.06,58.86,556.34,58.33z"/>
<path fill="#909191" d="M359.16,60.48c2.63-0.11,7.28-2.05,3.82,4.52C359.86,66.2,356.91,63.27,359.16,60.48z"/>
<path fill="#6B6C69" d="M340.71,131.28c-1.47-23-1.03-46.45,0.08-69.521C341.13,84.93,341.19,108.12,340.71,131.28z"/>
<path fill="#A496C3" d="M461.33,62.24C466.24,59.98,463.82,65.54,461.33,62.24z"/>
<path fill="#CAB4AA" d="M548.27,63.1C553.69,64.22,544.35,67.6,548.27,63.1z"/>
<path fill="#ADA9A4" d="M543.97,64.92c2.09,0.22,3.67,1.76,5.19,3.07C546.9,68.32,543.39,68.13,543.97,64.92z"/>
<path fill="#B5B1B4" d="M356.96,66.31c8.67-6.3,8.74,12.31,1.04,7.72c-4.03,1.41-2.85-6.54-1.04-7.12
	c-0.99,4.25-0.36,7.32,4.04,6.06C363.15,68.01,360.56,66.68,356.96,66.31z"/>
<path fill="#C0B0D0" d="M375.2,66.13c1.96-0.26,3.96-0.2,5.939-0.1C380.16,68.39,371.54,69.35,375.2,66.13z"/>
<path fill="#444039" d="M356.96,66.31c3.6,0.37,6.19,1.7,4.04,6.66c-4.4,1.26-5.03-1.81-4.04-6.06V66.31z"/>
<path fill="#8C85FE" d="M512.1,69.47C518.13,68.61,513.41,73.78,512.1,69.47z"/>
<path fill="#CDDFF2" d="M572.42,69.59c6.12-0.85,12.36-0.8,18.54-0.5c-1.49,4.22,4.09,15.93-4.96,12.96
	c-14.08-1.96-27.91,1.88-41.97,0.86c-0.181-3.91-0.16-7.82,0.06-11.73C553.41,69.12,563.01,70.75,572.42,69.59 M567.5,71.45
	c-2.62,0.72-6,5.56-1.5,5.58C569.29,79.22,569.28,68.46,567.5,71.45 M572.13,71.05c1.37,13.81-3.55-2.58-3.18,3.94
	C568.72,81.08,578.88,73.47,572.13,71.05 M577.19,71.26c-1.841,1.17-0.04,3.73,0.149,5.37C578.57,75.91,578.75,71.95,577.19,71.26
	 M574.28,72.32c-0.721,1.28-0.721,3.08,0,4.36C575.67,76.41,575.67,72.59,574.28,72.32 M556.85,77.94
	c-0.569-5.44,2.48-3.51,2.811-1.21c0.89,1.74,1.8,1.73,2.72,0C567.99,72.08,549.37,70.15,556.85,77.94z"/>
<path fill="#828481" d="M243.99,70.05c3.2,7.12,7.88,15.43,16.1,18.02c0.9,0.64,1.79,1.3,2.68,1.95c2.58,8.84,12.24,2.24,18.56,4.74
	c0.89,0.74,1.8,1.46,2.71,2.19c6.29,8.75,7.47,19.02,9.61,29.239c0.04,1.65,0.11,4.961,0.15,6.61c-0.22,9.56-7.39,17.32-13.81,23.53
	c-1.25-3.24-0.54-6.73-0.34-10.09c2.32-17.95-6.5-34.16-12.85-50.17c-7.45,0.73-16.59,2.75-21.76-4.12
	C238.15,85.64,246.68,77.31,243.99,70.05z"/>
<path fill="#9395FE" d="M488.19,70.12C495.53,69.48,484.99,74.88,488.19,70.12z"/>
<path fill="#1F1E1E" d="M567.5,71.45c1.78-2.99,1.79,7.77-1.5,5.58C561.5,77.01,564.88,72.17,567.5,71.45 M565.16,74.16
	C564.15,78.8,569.8,73.16,565.16,74.16z"/>
<path fill="#161616" d="M572.13,71.05c6.75,2.42-3.41,10.03-3.18,3.94C568.58,68.47,573.5,84.86,572.13,71.05z"/>
<path fill="#343538" d="M577.19,71.26c1.56,0.69,1.38,4.65,0.149,5.37C577.15,74.99,575.35,72.43,577.19,71.26z"/>
<path fill="#0B0C0A" d="M574.28,72.32c1.39,0.27,1.39,4.09,0,4.36C573.56,75.4,573.56,73.6,574.28,72.32z"/>
<path fill="#BAB7FD" d="M414.02,73.04c4.271-0.72,8.94-1.19,7.83,4.03C420.23,72.42,413.79,76.47,414.02,73.04z"/>
<path fill="#36383C" d="M556.85,77.94c-7.479-7.79,11.141-5.86,5.53-1.21c-0.93-0.96-1.84-0.96-2.72,0
	C559.33,74.43,556.28,72.5,556.85,77.94z"/>
<path fill="#DEECFA" d="M565.16,74.16C569.8,73.16,564.15,78.8,565.16,74.16z"/>
<path fill="#786CFF" d="M358.03,76.05c2.37,0.38,7.069-1.25,7.939,0.9C363.6,76.57,358.89,78.2,358.03,76.05z"/>
<path fill="#A79AFF" d="M411.33,76.24C416.25,73.98,413.82,79.54,411.33,76.24z"/>
<path fill="#838997" d="M559.66,76.73c0.88-0.96,1.79-0.96,2.72,0C561.46,78.46,560.55,78.47,559.66,76.73z"/>
<path fill="#8A86FE" d="M374.33,78.24C379.25,75.98,376.82,81.54,374.33,78.24z"/>
<path fill="#C4C7FD" d="M451.89,81.28c2.79,0.65,5.61-0.41,8.45,0.05C464.1,83.59,451.22,84.6,451.89,81.28z"/>
<path fill="#AFAFFF" d="M434.24,82.34C440.79,79.46,434.59,87.06,434.24,82.34z"/>
<path fill="#8786FF" d="M384.3,83.19C387.03,86.22,378.91,84.62,384.3,83.19z"/>
<path fill="#AFB0AD" d="M557.19,85.33C561.58,85.79,556.32,90,557.19,85.33z"/>
<path fill="#979898" d="M574.3,85.47c4.4,2.72-5.13,1.82-7.28,2.57C565.86,83.89,571.79,86.49,574.3,85.47z"/>
<path fill="#666868" d="M586.33,85.22C592.65,82.9,587.87,90.46,586.33,85.22z"/>
<path fill="#6F716E" d="M553.19,86.27C558.51,85.03,553.06,91.13,553.19,86.27z"/>
<path fill="#B5B6B5" d="M562.4,86.22C567.77,84.01,564.4,90.46,562.4,86.22z"/>
<path fill="#A3A5A2" d="M262.77,90.02c6.17,1.6,13.03,2.91,18.56,4.74C275.01,92.26,265.35,98.86,262.77,90.02z"/>
<path fill="#9C7FB6" d="M361.03,91.05c2.37,0.38,7.069-1.25,7.939,0.9C366.6,91.57,361.89,93.2,361.03,91.05z"/>
<path fill="#BCB1AC" d="M565.93,93.3c2.301-3.3,7.351-3.22,5.83,1.62c-0.92,1.08-1.88,2.12-2.83,3.16
	c-1.319,0.09-2.59-0.04-3.83-0.39c-0.779-0.83-1.649-1.59-2.8-1.77l0.04-0.78C563.66,94.84,564.96,94.29,565.93,93.3z"/>
<path fill="#636562" d="M562.34,95.14c-0.83-1.91,2.33-3.11,3.59-1.84C564.96,94.29,563.66,94.84,562.34,95.14z"/>
<path fill="#EFF0ED" d="M592.05,93.78c2.21-0.05,3.28,1.479,3.9,3.4c0.14,6.23-0.09,12.45-0.46,18.67
	c-0.53,10.39-1.05,20.87-0.11,31.259c0.3,4.041,0.57,8.08,0.76,12.141c-0.189,3.67-0.08,7.32,0.03,10.99
	c1.16,6.22-6.39,3.07-10.21,3.779l0.07-0.85c3.95,0.78,10.6,0.561,8.989-5.05c-8.779,0.25-17.489-0.97-26.239-1.09
	c-1.53-0.08-3.05-0.181-4.561-0.271c-45.729-2.439-91.5-4.65-137.26-6.79c-3.4-0.829-4.61,1.011-4.13,4.24
	c-0.71-0.069-2.12-0.21-2.83-0.28c0.11-1.229-0.26-2.279-1.09-3.119c-1.46-1.371-3.15-2.461-4.54-3.9
	c58.95,1.02,118.34,4.91,177.51,7.09C592.29,140.6,591.77,117.18,592.05,93.78z"/>
<path fill="#3D3F3C" d="M568.93,98.08c0.95-1.04,1.91-2.08,2.83-3.16c2.2,3.81,0.59,3.09-2.04,4.83l-0.609,0.55
	C569.07,99.75,568.97,98.63,568.93,98.08z"/>
<path fill="#BEC1BD" d="M294.12,96.33c5.01,5.79,7.87,15.86,11.26,23.32c1.15,1.59-1.12,2.39-2.05,3.34
	c-3.17-7.25-5.15-15.06-9.57-21.72C292.75,99.87,292.35,97.28,294.12,96.33z"/>
<path fill="#6E6356" d="M355.99,101.05c-3.141-6.12,8.189-7.9,7.16-2.13l-0.82,0.12c-2.36-1.49-4.04-0.84-4.561,1.93
	C357.33,100.99,356.44,101.03,355.99,101.05z"/>
<path fill="#C2C0FD" d="M391.01,95.99c2.65,0.24,5.311,0.49,7.971,0.06C400.74,99.96,389.73,99.19,391.01,95.99z"/>
<path fill="#363837" d="M562.3,95.92c1.15,0.18,2.021,0.94,2.8,1.77C564.24,100.34,560.64,97.82,562.3,95.92z"/>
<path fill="#A4A5A2" d="M284.04,96.95c1.37-0.03,2.75-0.07,4.13-0.11c4.52,7.08,6.23,15.54,9.93,23.04
	c-0.01,2.03,2.01,5.39-0.99,6.05c-1.55-0.66-3.88-3.06-3.46,0.26C291.51,115.97,290.33,105.7,284.04,96.95z"/>
<path fill="#9583FF" d="M364.32,97.28c1.279-0.72,3.069-0.72,4.359,0C368.4,98.67,364.59,98.67,364.32,97.28z"/>
<path fill="#B29981" d="M357.77,100.97c0.521-2.77,2.2-3.42,4.561-1.93C362.18,101.58,359.5,100.77,357.77,100.97z"/>
<path fill="#282A27" d="M362.33,99.04l0.82-0.12c1.71,4.7-6.29,4.28-7.16,2.13c0.45-0.02,1.34-0.06,1.779-0.08
	C359.5,100.77,362.18,101.58,362.33,99.04z"/>
<path fill="#9CA2AB" d="M563.85,104.92c-5.92,1.07,1.061-2.37,1.891-4.89c-0.15,2.82,2.37,1.82,3.37,0.27l0.609-0.55
	c0.311,1.82,0.67,3.64,1.05,5.46C568.66,103,565.68,102.03,563.85,104.92z"/>
<path fill="#646054" d="M355.95,103.02c2.31,0.68,4.7,1.32,7,0.2c-0.53,2.57-0.58,5.16-0.09,7.78
	C355.78,114.26,356.61,107.03,355.95,103.02z"/>
<path fill="#DADBDA" d="M544.01,108.99c15.65,0.64,31.311,0.31,46.971,1.04c-13.681,2.24-31.65,0.42-46.961,0.92
	C544.01,110.46,544.01,109.48,544.01,108.99z"/>
<path fill="#8276FE" d="M362.08,112.29C368.54,112.8,359.37,116.01,362.08,112.29z"/>
<path fill="#8782FF" d="M376.22,112.24C381.34,114.4,370.43,114.54,376.22,112.24z"/>
<path fill="#8F91FF" d="M384.3,112.19C387.03,115.22,378.91,113.62,384.3,112.19z"/>
<path fill="#CED7E1" d="M549.37,114.84c0.399-3.01,4.1-3.65,7.479-0.64c-1.949-3.06,1.37-1.72,3.29-1.79
	c-0.58,2.13-2.189,3.75-3.42,5.51c-4.38,1.32-5.29-2.17-2.77-5.08C551.63,112.42,551.2,117.9,549.37,114.84z"/>
<path fill="#B2BFD6" d="M579.96,112.01c0.271,3.521,4.1,0.94,4.021,3.95C580.64,116.89,579.15,115.33,579.96,112.01z"/>
<path fill="#7168FF" d="M366.33,113.24C371.25,110.98,368.82,116.54,366.33,113.24z"/>
<path fill="#7F7DFF" d="M388.33,113.24C393.25,110.98,390.82,116.54,388.33,113.24z"/>
<path fill="#ACA3FE" d="M401.32,113.28c1.279-0.72,3.069-0.72,4.359,0C405.4,114.67,401.59,114.67,401.32,113.28z"/>
<path fill="#6C66FF" d="M415.33,113.24C420.25,110.98,417.82,116.54,415.33,113.24z"/>
<path fill="#C4CEDB" d="M566.14,116.35c2.141,0.75,4.91-1.28,6.051,1.43c-4.29-0.12-13.83,6.26-15.471,0.14
	C559.3,116.37,566.17,122.52,566.14,116.35z"/>
<path fill="#166AA4" d="M595.49,115.85c0.819,10.4,0.83,20.87-0.11,31.259C594.44,136.72,594.96,126.24,595.49,115.85z"/>
<path fill="#BEBAFE" d="M380.86,119.03c2.51,0.16,6.159-1.13,7.29,1.95C385.69,121.07,382.4,121.34,380.86,119.03z"/>
<path fill="#BEBCFD" d="M392.03,119.07c1.989,0.34,6.83-1.58,5.95,1.88C396.08,119.85,391.27,122.359,392.03,119.07z"/>
<path fill="#ADA9FE" d="M409.01,119.02c1.721,0.09,4.99-0.97,3.98,1.96C411.26,120.88,407.99,121.939,409.01,119.02z"/>
<path fill="#BCBFBB" d="M298.1,119.88c4.19,4.91,2.92,12.011,7.57,16.42c0.76,3-0.61,7.5,3.39,8.07
	c-3.589,4.729-7.02,9.739-12.02,13.11c-1.91-8.121-1.67-16.511-3.24-24.681c-0.04-1.649-0.11-4.96-0.15-6.61
	c-0.42-3.319,1.91-0.92,3.46-0.26C300.11,125.27,298.09,121.91,298.1,119.88z"/>
<path fill="#C7CDD4" d="M547.79,121.99c8.28-0.49,7.7,0.21,3.21,1.949c11.48,0.28,0.62,1.57-3.14,1.03
	C550.02,124.09,549.91,122.891,547.79,121.99z"/>
<path fill="#34793E" d="M356.1,131.72c-1.05-4.989-0.09-8.439,6.271-6.989c0.36,2.39,0.62,4.789,0.79,7.22
	c-1.62,0.069-3.23,0.14-4.84,0.25C357.77,132.08,356.66,131.84,356.1,131.72 M360.29,127.2C353.98,129.4,363.87,131.55,360.29,127.2
	z"/>
<path fill="#D1CCD6" d="M368.2,125.22c2.97,0.28,5.41,2.25,0.8,1.9c5.54,4-5.13,4.83-5.09,1.2
	C366.18,129.08,368.5,127.811,368.2,125.22z"/>
<path fill="#9A7DB7" d="M379.33,126.24C384.25,123.98,381.82,129.54,379.33,126.24z"/>
<path fill="#9B81B9" d="M390.32,126.28c1.279-0.72,3.069-0.72,4.359,0C394.4,127.67,390.59,127.67,390.32,126.28z"/>
<path fill="#AF9B55" d="M360.29,127.2C363.87,131.55,353.98,129.4,360.29,127.2z"/>
<path fill="#C8D2E0" d="M554.94,127.891c3.93,1.1,7.739,2.329,12.01,2.239C564.95,131.859,556.98,132.27,554.94,127.891z"/>
<path fill="#D1CCE7" d="M358.32,132.2c1.609-0.11,3.22-0.181,4.84-0.25c-1.13,2.05-10.03,3.87-5.18,4.03
	c4.609,0.039-1.211,0.58-0.62,3.05C353.27,139.311,355.42,133.09,358.32,132.2z"/>
<path fill="#A0A29F" d="M279.99,156.33c6.42-6.21,13.59-13.971,13.81-23.53c1.57,8.17,1.33,16.56,3.24,24.681
	c-5,3.869-10.53,6.989-15.68,10.629c-1.38-2.26-2.57-4.64-3.59-7.079C278.4,159.41,279.16,157.85,279.99,156.33z"/>
<path fill="#B3C2D4" d="M548.03,133.05c2.37,0.38,7.069-1.25,7.939,0.9C553.59,133.57,548.89,135.2,548.03,133.05z"/>
<path fill="#222321" d="M123.17,136.29c25.82-1.47,52.42-3.681,77.92,1.58c18.74,3.71,25.04,23.39,32.97,38.11
	c11.45,20.27,19.94,41.959,27.23,64.02h-6.99c-4.74-20.79-21.01-35.82-28.57-55.561c-3.37-11.09-6.17-25.619-19.36-28.84
	c-14.22-7.88-30.86-5.5-46.4-7.43c-36.55,1.5-73.32-1.64-109.74,1.8c-1.07-3.71,0.08-7.8,3.43-9.72
	C76.78,144.79,100.44,141.59,123.17,136.29z"/>
<path fill="#C0CCDE" d="M584.04,138.939c3.01-1.029,4.64,5.28,0.97,4.08C582.91,143.38,584.4,140.12,584.04,138.939z"/>
<path fill="#978CFE" d="M379.33,141.24C384.25,138.97,381.82,144.54,379.33,141.24z"/>
<path fill="#A8AAFE" d="M401.12,141.33C410.44,142.37,395.61,144.63,401.12,141.33z"/>
<path fill="#C9CED5" d="M362.35,143.29c2.521,1.17,10.92-3.26,10.75,1.42c-4.42-0.351-8.83-0.37-13.21,0.28
	C360.41,144.1,361.23,143.53,362.35,143.29z"/>
<path fill="#A497FF" d="M442.38,143.26C448.19,140.79,443.38,147.51,442.38,143.26z"/>
<path fill="#B6BFCD" d="M548.02,143.04C556.32,140.25,546.5,150.17,548.02,143.04z"/>
<path fill="#7D807F" d="M341.14,146.74c2.24,2.54,3.601,6,6.75,7.63c0.021,0.47,0.08,1.41,0.11,1.88c-0.13,6.641,0.01,0.46,3.9,0.77
	c0.699,2.16,0.1,3.17-2.141,2.33c0.49,3.931,6.42,0.801,9.17,1.76c1.25,1.41,2.66,2.69,4.24,3.73c-3.189,0.051-6.31,0.2-9.46,0.34
	c-1.67-0.08-3.34-0.109-5-0.149c-2.59-0.41-5.229-0.62-7.8-0.88c-0.03-2.641-0.05-5.271-0.07-7.9c0.03-2,0.04-4.01-0.02-6.01
	C340.9,149.37,341.06,147.609,341.14,146.74z"/>
<path fill="#1B1D1A" d="M50.23,149.97c36.42-3.439,73.19-0.3,109.74-1.8c15.54,1.93,32.18-0.45,46.4,7.43
	c13.19,3.221,15.99,17.75,19.36,28.84c7.56,19.74,23.83,34.771,28.57,55.561h-2.94c-6.27-20.29-25.62-32.58-35.7-50.72
	c-8.06-9.33-19.95-13.79-30.63-19.351c-5.84-2.369-12.53-1.399-18.07-4.81c-10.36-5.22-21.31,1.771-31.97,1.8
	c-17.28,0.07-34.65,0.62-51.85-0.73c-10.09-0.26-18.69,4.58-28.03,6.86C54.11,165.24,52.13,157.59,50.23,149.97z"/>
<path fill="#9F9DFE" d="M412.32,149.3c1.62-0.72,3.729-0.72,5.359,0C417.01,150.66,412.98,150.66,412.32,149.3z"/>
<path fill="#B8B6FF" d="M445.07,150.061c0.91,0.81,9.8-1.74,5.72,1.879C448.96,150.73,444.07,153.04,445.07,150.061z"/>
<path fill="#BFC0B8" d="M348,156.25c3.91-3.54,10.85-0.03,10.93,4.859c-2.75-0.959-8.68,2.171-9.17-1.76
	c2.24,0.84,2.84-0.17,2.141-2.33C348.01,156.71,347.87,162.891,348,156.25z"/>
<path fill="#DEDFE1" d="M364.85,157.87c3.29-0.74,7.021-3.21,10.2-1.33c1.21,0.74,2.49,0.89,3.86,0.479
	c0.63,0.69,1.28,1.371,1.939,2.041c0.561,2.17,3.25,6.09-3.369,3.08c1.869-2.36-2.87-6.431-1.98-2.391
	c0.84,5.41-8.25,1.05-11.61,1.3C364.51,160.08,364.83,159.02,364.85,157.87 M367.94,158.03
	C368.47,164.8,374.57,156.74,367.94,158.03z"/>
<path fill="#D2D5D5" d="M394.16,155.45c5.55,4.02,13.13-0.89,20.21,1.46c1.39,1.439,3.08,2.529,4.54,3.9
	c-1.59,0-1.71,1.629-1.98,2.81c-1.649,0.1-3.3,0.19-4.939-0.04c4.12-4.43-5.01-5.38-2.86-0.3c-2.08,0.159-4.149,0.18-6.2,0.06
	c4.78-1.31-3.68-5.25,0,0c-5.91-0.4-11.83-0.13-17.72-0.47c-0.68-1.79-0.979-4.101-3.45-4.07c4.76-1.14,4.48-1.6-0.14-2.6
	C385.94,157.561,390.17,157.33,394.16,155.45 M390.29,159.2C384.24,161.32,393.08,163.21,390.29,159.2z"/>
<path fill="#8F8C91" d="M375.05,156.54c1.101-1.181,3.21-1.181,3.86,0.479C377.54,157.43,376.26,157.28,375.05,156.54z"/>
<path fill="#767875" d="M596.17,170.24c5.1-3.19,5.98-9.57,8.63-14.51c0.101,2.189,0.25,4.379,0.37,6.569
	c-0.18,3.33-0.14,6.65-0.07,9.99c-0.029,1.66-0.069,4.97-0.1,6.63c-1.91-0.02-3.81-0.05-5.71-0.14
	c-4.99-0.64-10.01-1.04-15.021-0.591c-1.84-0.039-5.52-0.14-7.359-0.189l0.16-0.9c3.35,0.351,6.18-1.38,8.89-3.08
	C589.78,173.311,597.33,176.46,596.17,170.24z"/>
<path fill="#454744" d="M605.1,172.29c6.351-2.58,6.091-11.149,8.721-16.521c0.069,4.49,0.21,8.98,0.34,13.48
	c-1.23,3.47,2.729,12.859-3.86,10.45c-1.76-0.36-3.53-0.62-5.3-0.78C605.03,177.26,605.07,173.95,605.1,172.29z"/>
<path fill="#BD6630" d="M362.06,160.891c-1.05-2.201,1.091-2.871,2.79-3.021c-0.02,1.149-0.34,2.21-0.96,3.18
	C363.43,161.01,362.51,160.93,362.06,160.891z"/>
<path fill="#ACA450" d="M367.94,158.03C374.57,156.74,368.47,164.8,367.94,158.03z"/>
<path fill="#A0A2A0" d="M375.5,159.75c-0.89-4.04,3.85,0.03,1.98,2.391c6.619,3.01,3.93-0.91,3.369-3.08l0.91-0.261
	c2.471-0.03,2.771,2.28,3.45,4.07c5.89,0.34,11.81,0.069,17.72,0.47c2.051,0.12,4.12,0.1,6.2-0.06c0.72,0.079,2.15,0.22,2.86,0.3
	c1.64,0.23,3.29,0.14,4.939,0.04c1.011,0.16,2.04,0.26,3.07,0.31c0.71,0.07,2.12,0.211,2.83,0.28c44.97,3.21,90.11,4.31,135.04,7.94
	c-5.22-5.101,1.61-5.92,6.35-5.391c1.511,0.09,3.03,0.19,4.561,0.271c-0.16,6.189,4.68,1.329,8.279,2.11
	c0.19,5.17-7.43,0.959-9.229,3.909c2.87-1.43,10.6,2.73,10.43-2.819c2.351,1.569,4.83,3.05,7.771,2.939l-0.07,0.85
	c-2.71,1.7-5.54,3.431-8.89,3.08c-69.801-2.819-139.521-7.93-209.29-10.93c-1.53-0.48-3.07-0.939-4.61-1.33
	c-1.58-1.04-2.99-2.32-4.24-3.73c0.78-0.049,2.351-0.17,3.13-0.219c0.45,0.039,1.37,0.119,1.83,0.159
	C367.25,160.8,376.34,165.16,375.5,159.75z"/>
<path fill="#9D7F52" d="M390.29,159.2C393.08,163.21,384.24,161.32,390.29,159.2z"/>
<path fill="#4DB0E9" d="M402.93,163.34C407.71,162.03,399.25,158.09,402.93,163.34z"/>
<path fill="#60625F" d="M409.13,163.28c-2.149-5.08,6.98-4.13,2.86,0.3C411.28,163.5,409.85,163.359,409.13,163.28z"/>
<path fill="#80ABC8" d="M422.83,164.21c-0.48-3.229,0.729-5.069,4.13-4.24l0.05,0.97c-1.92-0.199-2.67,1.73-3.1,3.23L422.83,164.21z
	"/>
<path fill="#DFE1DE" d="M426.96,159.97c45.76,2.14,91.53,4.351,137.26,6.79c-4.739-0.529-11.569,0.29-6.35,5.391
	c-44.93-3.631-90.07-4.73-135.04-7.94l1.08-0.04c2.09,0.561,3.899-1.1,3.1-3.23L426.96,159.97z"/>
<path fill="#443D3B" d="M416.93,163.62c0.271-1.181,0.391-2.81,1.98-2.81c0.83,0.84,1.2,1.89,1.09,3.119
	C418.97,163.88,417.94,163.78,416.93,163.62z"/>
<path fill="#1E508C" d="M423.91,164.17c0.43-1.5,1.18-3.43,3.1-3.23C427.81,163.07,426,164.73,423.91,164.17z"/>
<path fill="#151614" d="M134.99,166.92c10.66-0.029,21.61-7.02,31.97-1.8c5.54,3.41,12.23,2.44,18.07,4.81
	c10.68,5.561,22.57,10.021,30.63,19.351c10.08,18.14,29.43,30.43,35.7,50.72h-15.15c-1.61-10.2-9.49-20.189-19.4-23.74
	c-13.06-3.85-27.7,1.54-40.44-2.58c-2.04-15.91-15.05-28.56-29.39-34.619c-16.69-7.841-35.73-6.5-53.63-5.65
	c-11.95,5.46-29.33,11.16-29.83,26.89c-6.15-7.6-2.71-18.67-8.35-26.44l-0.06-0.81c9.34-2.28,17.94-7.12,28.03-6.86
	C100.34,167.54,117.71,166.99,134.99,166.92z"/>
<path fill="#282927" d="M340.91,164.15c2.57,0.26,5.21,0.47,7.8,0.88c3.99,6.26,12.67,6.25,18.96,8.27
	c53.04,5.53,106.54,6.28,159.74,10.25c18.77-0.26,38.01,4.42,56.439-0.729c4.9-1.131,9.301-4.16,14.48-3.961
	c-1.62,1.871-3.22,3.971-5.67,4.761c-17.3,6.69-36.22,4.47-54.24,2.89c-57.18-3.3-114.56-4.859-171.57-10.26
	C357.43,174.561,347.14,172.05,340.91,164.15z"/>
<path fill="#373937" d="M348.71,165.03c1.66,0.04,3.33,0.069,5,0.149c19.95,9.971,43.62,6.891,65.29,8.94
	c42.32,2.54,84.66,4.989,127.01,7.03c12.65,0.75,26.45,3.01,38.26-2.961c5.011-0.449,10.03-0.049,15.021,0.591l-0.96,0.079
	c-5.18-0.199-9.58,2.83-14.48,3.961c-18.43,5.149-37.67,0.47-56.439,0.729c-53.2-3.97-106.7-4.72-159.74-10.25
	C361.38,171.28,352.7,171.29,348.71,165.03z"/>
<path fill="#494B48" d="M353.71,165.18c3.15-0.14,6.271-0.289,9.46-0.34c1.54,0.391,3.08,0.85,4.61,1.33
	c23.63,6.7,48.93,3.75,73.25,6.561c45.3,1.189,90.6,7.59,135.88,5.27c1.84,0.05,5.52,0.15,7.359,0.189
	c-11.81,5.971-25.609,3.711-38.26,2.961c-42.35-2.041-84.689-4.49-127.01-7.03C397.33,172.07,373.66,175.15,353.71,165.18z"/>
<path fill="#5B5D5A" d="M367.78,166.17c69.77,3,139.489,8.11,209.29,10.93l-0.16,0.9c-45.28,2.32-90.58-4.08-135.88-5.27
	C416.71,169.92,391.41,172.87,367.78,166.17z"/>
<path fill="#B6B8B5" d="M568.78,167.03c8.75,0.12,17.46,1.34,26.239,1.09c1.61,5.61-5.039,5.83-8.989,5.05
	c-2.94,0.11-5.42-1.37-7.771-2.939c0.17,5.55-7.56,1.39-10.43,2.819c1.8-2.95,9.42,1.261,9.229-3.909
	C573.46,168.359,568.62,173.22,568.78,167.03z"/>
<path fill="#10120F" d="M93.35,173.41c17.9-0.85,36.94-2.19,53.63,5.65c14.34,6.06,27.35,18.709,29.39,34.619
	c12.74,4.12,27.38-1.27,40.44,2.58c9.91,3.551,17.79,13.54,19.4,23.74H73.3c-4.55-22.49-16.45-43.04-18.13-66.141
	c5.64,7.771,2.2,18.841,8.35,26.44C64.02,184.57,81.4,178.87,93.35,173.41z"/>
<path fill="#A7A9A6" d="M412.67,211.13c5.311-2.31,10.87,0.96,16.18-0.271c7.99-3.27,17.28-0.539,19.601,8.301
	C438.81,208.73,422.16,220.63,412.67,211.13z"/>
<path fill="#7D7F7C" d="M380.75,221.22c9.98-5.12,20.95-7.979,31.92-10.09c9.49,9.5,26.14-2.399,35.78,8.03
	c0.479,1.16,0.62,2.41,0.79,3.65c-3.431,2.539-8.11,0.069-7.931-4.17C432.83,216,424,219.27,416,215.01
	c-10.14,4.12-21.19,4.721-31.79,7.34C383.04,221.99,381.89,221.609,380.75,221.22z"/>
<path fill="#535552" d="M615.99,223.92c12.59,0.38,22.09-9.37,34.01-11.9v1.761c-13.56,3.819-25.14,14.06-39.99,12.29
	c-14.79,0.14-29.68-0.78-43.88-5.23c-18.35-2.57-37.03,1.37-54.57,6.69c-17.71,0.13-35.779,2.1-53.35-0.8
	c-1.69-1.891-9.56,1.369-8.81-2.59c5.699,1.18,11.59,1.289,17.359,2.1c14.101,1.14,28.46,1.33,42.54,0.15
	c20.88-6.281,43.061-10.921,64.71-5.41C587.62,225.4,601.94,223.95,615.99,223.92z"/>
<path fill="#2E302D" d="M610.01,226.07c14.851,1.77,26.431-8.471,39.99-12.29v1.97c-11.51,2.62-20.53,12.439-32.97,11.25
	c-14.53-0.65-29.48,2.061-43.601-2.52c-21.319-6.86-43.6,0.289-64.52,5.35c-18.57,0.75-37.811,0.17-55.91-0.96
	c-4.71,3.37-10.84,1.84-16.27,1.91c6.97-2.171,14.18-3.62,21.479-4.05c17.57,2.899,35.64,0.93,53.35,0.8
	c17.54-5.32,36.221-9.261,54.57-6.69C580.33,225.29,595.22,226.21,610.01,226.07z"/>
<path fill="#393B38" d="M384.21,222.35c10.6-2.619,21.65-3.22,31.79-7.34c8,4.26,16.83,0.99,25.31,3.631
	c-0.18,4.239,4.5,6.709,7.931,4.17c0.04,0.34,0.12,1,0.16,1.33c-0.75,3.959,7.119,0.699,8.81,2.59
	c-7.3,0.43-14.51,1.879-21.479,4.05c-2.86,0.14-5.641,0.25-8.461,0.5c-8.85,2.03-15.46-3.811-21.51-9.03
	c-14.529,1.76-29.04,4.34-42.04,11.49c-13.85,2.779-28.43,0.74-42.529,1.14c-2.74-1.78,0.029-3.229,1.989-3.79
	c0.641,0,1.91,0,2.551-0.01c6.93,4.279,19.14,1.41,27.93,1.54C364.23,228.15,375.06,227.65,384.21,222.35 M414.97,222.061
	c-0.66,5.92,6.37,3.029,9.32,1.359c4.61,6.12,11.47,3.811,17.67,2.391c0.73-3.431-4.229-1.33-6.25-2.601
	C429.22,220.37,421.79,222.63,414.97,222.061z"/>
<path fill="#010301" d="M617.03,227c12.439,1.189,21.46-8.63,32.97-11.25V240H346.54c10.2-2.17,21.01,0.74,30.86-3.51
	c8.119-2.28,12.54-11.71,21.6-11.44c4.31-1.31,1.17,5.3,2.08,7.81c1.33,2.881,4.189,5.761,7.92,4.121
	c13.21-0.03,26.44,0.34,39.65-0.25c3.26-1.03,3.909-4.92,4.35-7.86c18.1,1.13,37.34,1.71,55.91,0.96
	c20.92-5.061,43.2-12.21,64.52-5.35C587.55,229.061,602.5,226.35,617.03,227z"/>
<path fill="#676966" d="M326.73,231.08c18.319-0.96,37.029-2.189,54.02-9.86c1.14,0.39,2.29,0.771,3.46,1.13
	c-9.15,5.301-19.979,5.801-29.55,10.271C345.87,232.49,333.66,235.359,326.73,231.08z"/>
<path fill="#292B28" d="M364.72,233.74c13-7.15,27.511-9.73,42.04-11.49c6.05,5.22,12.66,11.061,21.51,9.03
	c-8.71,2.319-18.26,3.5-27.189,1.579c-0.91-2.51,2.229-9.119-2.08-7.81c-9.06-0.27-13.48,9.16-21.6,11.44
	c-9.851,4.25-20.66,1.34-30.86,3.51h-36.28c-0.96-2.7-1.97-5.37-3.17-7.96c5.7-0.021,11.38-0.83,17.09-0.95
	c-1.96,0.561-4.729,2.01-1.989,3.79C336.29,234.48,350.87,236.52,364.72,233.74z"/>
<path fill="#282A27" d="M414.97,222.061c6.82,0.569,14.25-1.69,20.74,1.149c2.021,1.271,6.98-0.83,6.25,2.601
	c-6.2,1.42-13.06,3.729-17.67-2.391C421.34,225.09,414.31,227.98,414.97,222.061z"/>
<path fill="#292A28" d="M466.76,226.24c14.181-0.311,28.37-0.521,42.54,0.15C495.22,227.57,480.86,227.38,466.76,226.24z"/>
<path fill="#1E201D" d="M436.73,230.78c5.43-0.07,11.56,1.46,16.27-1.91c-0.44,2.94-1.09,6.83-4.35,7.86
	c-13.21,0.59-26.44,0.22-39.65,0.25c-3.73,1.64-6.59-1.24-7.92-4.121c8.93,1.921,18.479,0.74,27.189-1.579
	C431.09,231.03,433.87,230.92,436.73,230.78z"/>
</svg>
