<?xml version="1.0" encoding="utf-8"?>
<!-- Generator: Adobe Illustrator 15.0.2, SVG Export Plug-In . SVG Version: 6.00 Build 0)  -->
<!DOCTYPE svg PUBLIC "-//W3C//DTD SVG 1.1//EN" "http://www.w3.org/Graphics/SVG/1.1/DTD/svg11.dtd">
<svg version="1.1" id="Layer_1" xmlns="http://www.w3.org/2000/svg" xmlns:xlink="http://www.w3.org/1999/xlink" x="0px" y="0px"
	 width="650px" height="240px" viewBox="0 0 650 240" enable-background="new 0 0 650 240" xml:space="preserve">
<path d="M0,0h650v240h-96.13c0.03-1.9-2.67-1.92-2.601,0h-14.71c-0.06-0.99-0.119-1.98-0.159-2.96c-2.721-0.04-5.03,1.13-6.98,2.96
	H423.28c1.85-0.71,3.689-1.45,5.52-2.22c-2.77-0.36-5.649-0.24-8.29-1.25c-1.689-0.49-3.34-1.46-5.149-1.24
	c-1.95,1.43-3.58,3.229-5.49,4.71h-14.66c4.37-0.03,8.29-1.93,11.98-4.08c-2.591-1.15-5.21-2.22-7.86-3.2
	c0.08,1.3,0.17,2.61,0.26,3.91c-1.33-0.11-2.649-0.229-3.97-0.34c-0.83,1.25-1.65,2.5-2.521,3.71h-3.26
	c1.34-1.311,2.59-2.7,3.86-4.08c-0.71-0.359-2.12-1.07-2.82-1.43c-5.46,2.39-11.14,5.99-17.35,4.6c-0.54-0.54-1.61-1.609-2.15-2.15
	c6.32-0.58,12.62-1.84,18.63-3.899c-6.069-2.19-12.3-3.91-18.56-5.479c-2.67-0.57-3.25-3.681-4.37-5.73
	c6.439,2.43,12.82,6.88,20.02,5.58c-5.899-4.561-13.72-4.73-20.159-8.21c-1.2,0.899-2.4,1.819-3.61,2.69
	c-2.311-1.91-4.86-3.61-7.97-3.701c-0.36,7.341,1.319,14.5,1.279,21.811H0V0 M534.46,10.3c-0.01,0.45-0.02,1.34-0.02,1.79
	C537.44,14.8,537.32,7.48,534.46,10.3 M495.22,16.3c0.011,0.35,0.04,1.05,0.061,1.4c1.16,0,2.319-0.01,3.5-0.01
	c-0.021-0.34-0.04-1.04-0.05-1.39C497.55,16.31,496.38,16.31,495.22,16.3 M500.47,20.56c-2.229-0.33-4.399,0.19-6.52,0.81
	c-5.811,0.17-11.641,0.2-17.45,0.06c-1.8-0.08-3.42,0.82-5.09,1.32c0.02,0.45,0.06,1.36,0.08,1.82c1.479,1.1,2.64,3.09,4.7,3.01
	c4.439-0.04,8.89-0.07,13.34-0.1c2.76-1.47,4.84-3.85,7.06-6c1.351-0.26,2.72-0.32,4.09-0.47c0.03,0.6,0.09,1.81,0.12,2.41
	c-1.17,0.02-2.34,0.05-3.5,0.08c0.09,1.2,0.19,2.41,0.28,3.61c0.47,0.27,1.42,0.8,1.89,1.07c-0.34-0.59-1.02-1.76-1.359-2.34
	c2.729-1.72,5.38-3.58,8.29-4.99c2.819-1.27,5.97-1.2,8.909-2.02C510.06,16.91,505.67,21.49,500.47,20.56 M459.34,20.14
	c0.11,1.08,0.23,2.16,0.36,3.24c2.5-0.57,5.03-0.91,7.55-1.36C464.62,21.34,462.03,20.5,459.34,20.14 M531.13,20.54
	c0.17,1.07,0.34,2.15,0.51,3.22c3.681-0.12,6.99-1.84,10.28-3.32C538.32,20.3,534.73,20.83,531.13,20.54 M527.1,21.44
	c-1.81,1.09,0.53,3.11,1.87,2.06C530.73,22.41,528.42,20.38,527.1,21.44 M562.94,22.37c-2.271,1.99-4.61,3.89-7.091,5.6
	c-0.909-1.25-1.779-2.52-2.63-3.79c-2.569-0.21-4.38,1.58-6.31,2.93c-1.79,0.37-3.641,0.33-5.44,0.57c1.45,1.62,3.5,2.38,5.5,3.11
	c2.65-1.49,5.021-4.34,8.38-3.32c-1.399,1.65-2.89,3.21-4.35,4.79c0.9,0.17,1.84,0.33,2.76,0.5c1.67-2.45,3.75-4.64,6.17-6.35
	c3.141-0.11,6.29,0.09,9.44,0.12c0.1-1.1,0.22-2.2,0.35-3.3c-0.939,0.58-1.89,1.15-2.83,1.71
	C565.55,24.12,564.24,23.25,562.94,22.37 M506.04,28.9c-3.28,1.29-5.98,3.95-9.65,4.08c-0.01-0.91-0.029-2.73-0.04-3.64
	c-2.08,0.86-4.25,1.51-6.369,2.27c-1.891-0.96-3.811-1.86-5.74-2.72c0.069,1.13,0.149,2.27,0.229,3.41
	c5.91,1.97,10.62,6.22,14.71,10.78c-1.729,2.32-3.699,4.46-5.83,6.42c0.67,0.23,2.011,0.68,2.681,0.91c4,1.56,6.14-3.04,8.87-5.04
	c-0.66-1.27-1.29-2.56-1.9-3.86c3.15-0.729,2.92,3.5,5.54,4.19c4.36-0.16,8.3-2.36,12.55-3.13c3.28-0.51,6.391-1.68,9.59-2.48
	c-0.06,0.53-0.17,1.6-0.229,2.13c-3.91,0.35-7.63,1.95-11.62,1.25c-1.07,0.95-2.11,1.93-3.14,2.91c-2.021-0.02-4.03-0.02-6.04-0.11
	c-0.891,0.94-1.75,1.89-2.601,2.87c1.08-1.6-0.24-2.88-1.229-4.07c-2.41,2.46-4.86,4.9-7.73,6.82c-3.04,2.08-5.229,5.13-8.189,7.3
	c-1.5,0.21-3.011,0.25-4.511,0.33c0.15-2,0.261-4.01-0.029-6c-1.7,1.96-3.091,4.18-3.17,6.84c3.449,1.5,7.22,1,10.819,0.42
	c2.61,0.49,4.24,2.61,4.87,5.09c-1.66-0.31-3.25-0.83-4.82-1.43c-3.689,2.13-8.079,1.94-12.1,2.97c-5.85-0.46-9.24,5.12-14.11,7.25
	c-3.279,1.19-5.199,4.36-8.22,5.96c-5.06-0.32-10.16,0.24-15.189-0.28c-4.36-1.71-9.53,0.41-13.301-2.99
	c0.561-1.29,1.17-2.55,1.78-3.82c-1.29,0.04-2.56,0.08-3.83,0.13c0.49-1.75,0.99-3.49,1.42-5.26c4.48-2.07,9.05,0.57,13.65,0.04
	c-1.66-1.99-3.47-3.84-5.351-5.61c-1.939-0.49-3.869-1.01-5.81-1.46c-3.08-0.55-5.15,2.55-8.05,2.9c-2.53,0.18-4.86,1.19-7.29,1.78
	c-0.25,0.64-0.74,1.93-0.99,2.58c3.93,0.04,8.12-2.52,11.59,0.46c-5.01,0.54-9.71,2.73-14.77,2.64c0.39,0.65,1.18,1.95,1.58,2.6
	c3.1,0.31,6.22,0.09,9.33,0.1c-3.681,1.05-7.53,0.76-11.28,1.28c-2.54,0.73-5.07,1.49-7.601,2.24c1.801,1.26,3.95,1.63,6.051,2.12
	c-1.58,0.35-3.21,0.4-4.82,0.42c-1.33,2.07-2.7,4.11-3.78,6.32c-0.7-0.59-1.39-1.18-2.08-1.76C395.69,91,393.4,98.14,393.11,105.4
	c0.72,0.06,2.18,0.19,2.909,0.25c-1.229,2.02-2.92,3.9-3.229,6.32c-0.83,5.13-2,10.21-2.38,15.4c4.29,3.319,9.63,1.7,14.57,2.06
	c1.64,0.04,3.88,0.01,4.46-1.89c1-3.07,2.869-5.72,4.119-8.67c-0.329-0.51-0.979-1.51-1.31-2.02c-1.41,1.4-2.84,2.78-4.28,4.14
	c-2.38,2.15-3.109,5.72-6.04,7.32c1.19-2.061,2.69-3.91,4.09-5.82c-0.47-0.311-1.399-0.92-1.869-1.221
	c-4.351,0.221-4.29,6.931-8.86,6.631c0.62-1.061,0.69-2.84,2.07-3.23c3.17-0.68,3.83-4.21,5.81-6.31c1.08,0.28,1.98,0.96,2.94,1.51
	c1.939-1.56,3.899-3.09,5.79-4.72c-0.44-0.52-1.32-1.55-1.75-2.07c-1.69,1.24-3.341,2.51-4.99,3.79
	c-0.51-0.35-1.521-1.05-2.021-1.39c1.91-2.45,3.841-5.13,6.75-6.45c4.17-2.07,8.28-4.3,12.181-6.86c2.16-1.58,4.91-1.62,7.399-2.34
	c0.09-0.55,0.261-1.65,0.351-2.2c-2.19-0.09-4.37-0.13-6.521-0.47c2.891-1.16,6.07-0.62,9.11-0.85c0.45,0.91,0.899,1.81,1.35,2.71
	c3.391-1.77,6.96-3.17,10.561-4.47c5.85,0.24,11.64-0.56,17.439-1.22c1.51-0.74,2.95-1.62,4.38-2.5c1.63,2.55,3.2,5.13,4.66,7.77
	c1.83-0.09,3.66-0.14,5.49-0.26c-1.04,1.68-0.89,3.68-0.92,5.57c3.33,0.13,4.95-3.37,8.04-3.97c-0.49,7.94,3.57,15.57,1.81,23.47
	c-1.22,3.62-1.96,8.73,1.09,11.54c0.141-2.07,0.181-4.15,0.271-6.22c0.82,1.729,1.62,3.47,2.57,5.149c0.42-2.05-0.37-4.59,1.3-6.21
	c0.46,6.68-0.681,13.55,0.83,20.11c1.739,3.17,1.069,6.77,1.01,10.229c-1,1.87-2.24,3.59-3.4,5.35c0.75,0.061,2.24,0.171,2.99,0.23
	c2.08-3.75,2.88-8,2.46-12.25c1.75,0.02,3.53,0.27,5.29,0.07c1.24-1.03,2.29-2.27,3.45-3.4c0.36,0.73,1.07,2.19,1.42,2.92
	c-1.98,3.54-0.41,7.67-0.89,11.49c-1.12,0.15-2.23,0.3-3.33,0.471c0.09-1.301,0.18-2.591,0.27-3.881
	c-1.27,0.61-2.53,1.24-3.819,1.811c-0.73,3.06-2.591,5.6-4.78,7.789c2.6-0.069,5.189-0.159,7.79-0.279
	c-1.3,1.33-2.561,2.689-3.71,4.15c-1.511-0.041-3.021-0.09-4.521-0.15c0.37,6.21-5.06,10.72-8.62,15.22
	c-1.31-0.069-2.62-0.149-3.909-0.22c0.89,1.75,1.64,3.57,2.1,5.5c-1.38-0.79-2.7-1.66-4.13-2.33c-2.42-0.061-3.47,2.55-5.061,3.92
	c2.95,0.03,5.91,0.18,8.86,0.1c2.7-0.629,4.8-3.109,7.72-3.06c1.891-0.601,3.15,1.149,4.561,2.06c1.77-0.75,3.439-2.09,5.46-1.989
	c3.31,0.14,7.29-1.14,9.47,2.17c3.47-1.28,7.15-1.19,10.8-0.99c1.811-2.45,3.38-5.08,5.061-7.63c-5.141,1.41-10.44,1.71-15.75,1.52
	c0.87-1.25,1.79-2.459,2.689-3.68c-0.46-1-0.99-1.97-1.34-3.01c1.59-3.1,4.08-6.17,2.76-9.87c-1.72-1.66-3.81-2.89-5.63-4.431
	c3.311-0.789,6.38,0.811,9.57,1.391c0.79-2.95,2.52-5.62,2.71-8.72c-2.5,0.14-4.9,0.8-7.271,1.55c-0.02-1.25-0.04-2.5-0.05-3.74
	c2.29,0.641,4.57,1.33,6.92,1.79c0.49-1.7,0.96-3.41,1.271-5.149c2.28-1.051,4.689-2.08,6.45-3.94c0.63-1.38,0.1-2.95,0.14-4.41
	c-1.79,0.021-3.57,0.05-5.36,0.04c0.54-1.48,1.45-2.85,1.7-4.42c-1.37-5.37-3.66-10.6-7.75-14.48c-0.92,2.771-1.34,5.65-1.46,8.57
	c-1.49-0.97-2.97-1.949-4.45-2.92c-2.01,3.75-2.59,8.17-5.239,11.57c-1.671,2.279-2.16,5.15-3.62,7.55
	c-0.92,0.16-2.761,0.49-3.681,0.66c-0.779-6.54,3.29-11.98,4.931-18.06c0.449-3.591-0.431-7.33,0.54-10.851
	c1.819-1.76,4.369-3.18,4.34-6.07c-0.021-3.5,0.63-6.91,2.609-9.85c-1.33,0.64-2.659,1.28-4.02,1.86
	c-0.76,3.87-1.19,7.76-1.83,11.64c-0.64-2.02-0.64-4.13-0.77-6.21c-1.631,1.91-3.2,4.07-5.7,4.87c-0.19-3.28-0.271-6.67,1.069-9.74
	c1.65-4.14,3.341-9.12,0.631-13.2c1.149,0.09,2.3,0.19,3.46,0.29c-0.091-3.67-0.65-7.56,1.109-10.96c1.51-2.87,1.65-6.13,1.78-9.3
	c-0.98,0.03-2.93,0.09-3.91,0.11c-0.63,4.1,1.29,9.32-2.02,12.45c-0.051-5.24-1.49-11.99,3.659-15.36c0.851,0.94,1.7,1.87,2.57,2.8
	c2.44-1.48,4.96-0.25,7.4,0.51c0.06-1.84,0.109-3.68,0.16-5.52c0.56,0,1.68,0,2.239,0c0.181,4.33-2.04,8.72,0.08,12.84
	c-1.08,1.57-2.26,3.12-2.88,4.95c3.33-4.36,7.63-8.04,9.59-13.32c2.9,3.21,2.37,7.7,0.851,11.42c1.85,0.12,3.699,0.28,5.54,0.6
	c-0.86-0.8-1.73-1.6-2.57-2.41c0.31-3.33,0.49-6.7,1.33-9.96c1.939-2.43,4.82-4.1,6.01-7.12c-2.66,0.04-5.229,0.69-7.83,1.05
	c-2.96,0.3-5.55-1.62-7.17-3.94c5.71-0.67,12.04,3.28,17.24-0.47c2.57-5.18,8.58-6.53,12.52-10.28c-2.09-0.09-4.43-0.77-6.27,0.57
	c-2.48,1.5-5.17,2.62-8.12,2.33c-4.47,0.9-9.07,1.09-13.63,0.84c-2.12-0.27-3.82-2.48-6.04-1.94c-4.33,1.97-9.3-0.08-13.65,2.01
	c-0.08-0.61-0.25-1.811-0.34-2.41c4.86-2.48,10.4-0.7,15.38-2.61c2.28-0.58,3.96,1.59,6.101,1.91c1.93,0.29,3.819,0.81,5.71,1.28
	c1.239-1.44,2.52-2.84,3.81-4.25c-3.45-0.08-6.89,0.17-10.32,0.01c0.141-0.51,0.44-1.55,0.591-2.06c3.3-0.15,6.67,0.46,9.92-0.31
	c3.1-1.22,6.479-0.5,9.71-0.44c1.689-2.44,4.13-3.6,7.1-3.3c-1.42-1.53-2.85-3.05-4.22-4.63c3.689-0.479,7.33-1.28,11.04-1.64
	c-2.44-0.36-4.76-1.75-7.25-1.5c-4.03,1.21-7.69,3.42-11.8,4.42c0.22-1.59,0.479-3.18,0.76-4.76c-3.28,0.39-6.58,0.229-9.86,0.24
	c-2.54,0.05-4.64,1.96-7.189,1.96c-3.681-0.4-6.561,2.58-10.23,2.32c-0.06-0.57-0.189-1.72-0.25-2.3c4.92,0.56,9.68-0.75,14.15-2.72
	c3.31-0.53,6.85,0.25,9.939-1.48c0.11-0.68,0.33-2.04,0.44-2.72c-6.54-0.77-13.9,1.75-19.68-2.27c1.89-1.69,5.1-3.05,4.369-6.13
	C513.65,25.55,509.89,27.34,506.04,28.9 M522.26,25.36c0.01,0.32,0.03,0.97,0.04,1.3c1.13-0.01,2.271,0,3.42,0
	c0.011-0.33,0.021-0.98,0.021-1.31C524.57,25.35,523.41,25.36,522.26,25.36 M444.82,32.58c-2.051,0.38-4.08,0.8-6.12,1.2
	c-0.181,1.33-0.36,2.67-0.54,4c3.81-1.54,7.899-2.29,11.89-3.25c4.061-0.82,7.84,0.89,11.78,1.46c-0.09-0.6-0.271-1.81-0.36-2.41
	c-5.43-0.32-10.81-1.27-16.27-0.79c-0.05-0.98-0.141-2.94-0.181-3.92C444.92,30.11,444.86,31.34,444.82,32.58 M532.84,33.44
	c4.83-0.24,10.01,0.95,14.49-1.44c-3.07-2.13-6.83-1.25-10.3-1.39C535.07,30.3,533.62,31.83,532.84,33.44 M567.28,31.37
	c0,0.31,0,0.94,0,1.26c1.12-0.02,2.239-0.03,3.38-0.03c0.01-0.3,0.03-0.9,0.04-1.2C569.55,31.39,568.41,31.38,567.28,31.37
	 M465.83,33.86c-0.521,1.59,0.05,2.16,1.71,1.7C468.01,33.93,467.44,33.36,465.83,33.86 M586.91,39.05
	c4.729,1.6,7.71,5.67,10.47,9.57c2.37-0.11,4.74-0.14,7.11-0.07c0.09-0.58,0.26-1.74,0.35-2.32c-2.58,0.06-5.18,0.43-7.74,0.05
	c-1.899-1.83-3.64-3.82-5.54-5.65c1.9-0.62,3.851-1.11,5.83-1.48c-1.729-1.33-3.43-2.72-5.319-3.82
	C590.29,36.49,588.68,37.89,586.91,39.05 M434.3,38.46c0.04,1.64,0.09,3.28,0.22,4.92c1.69-1.17,2.04-3.16,2.37-5.04
	C436.25,38.37,434.95,38.43,434.3,38.46 M468.51,42.37c-0.04,2.53,0.141,5.06,0.92,7.48c1.021-0.54,2.04-1.1,3.08-1.64
	c0.09-2.5,0.19-5,0.21-7.5c-2.779-1.23-5.51-2.59-8.38-3.58C463.5,40.11,466.58,41,468.51,42.37 M614.47,37.98
	c-1.1,1.35,1.12,3.51,2.16,1.82C617.68,38.42,615.56,36.35,614.47,37.98 M600.57,43.34c1.96,0.12,3.939,0.17,5.91,0.2
	c-0.03-1.47-0.051-2.94-0.07-4.41C604.4,40.44,602.42,41.81,600.57,43.34 M630.1,47.97c2.311-1.479,4.591-3.04,6.61-4.92
	c0.8,0.8,1.59,1.61,2.39,2.42c1.04-0.52,2.08-1.01,3.15-1.49c-0.84,0.26-2.53,0.77-3.37,1.03c-0.21-1.32-0.399-2.64-0.66-3.94
	C635.81,43.72,632.37,45.14,630.1,47.97 M436.07,47.86c2.029-2.08,5.109-3.85,4.79-7.19C438.06,42.07,437.1,45.15,436.07,47.86
	 M473.95,41.89c0.87,2.42,1.939,4.75,3.09,7.05c0.75-1.45,1.42-2.96,1.86-4.54C477.26,43.54,475.62,42.68,473.95,41.89 M438.59,49.5
	c-0.54,1.43-0.05,3.04-0.1,4.53c1.16-0.89,2.29-1.84,3.42-2.78c2.09,0.31,4.1-0.42,6.149-0.66c1.5,0.34,2.99,0.79,4.5,1.12
	c1.07,3.52,2.051,7.12,1.95,10.84c1.69,0.05,3.391,0.17,5.09,0.37c-2.04,0.46-4.13,0.51-6.199,0.74c0,0.76-0.011,2.29-0.011,3.05
	c1.63,0.67,3.271,1.33,4.9,2.02c4.39-4.72,5.68-11.43,6.17-17.65c-2.58,1.59-5.05,3.37-7.8,4.64c1.47-2.8,4.8-3.5,6.66-5.85
	c-1.07-0.47-2.12-0.96-3.141-1.49c1.46,0.11,2.931,0.23,4.41,0.37c-0.53-1.37-1.06-2.74-1.57-4.11c-4.21-1.54-8.76-1-13.039-2.15
	C445.42,43.08,441.93,46.6,438.59,49.5 M431.32,47.68c2.01,1.8,2.41,4.37,2.51,6.95c-1.69,0.01-3.37,0.03-5.04,0.06
	c-0.53,1.34-1.08,2.66-1.62,3.99c1.42-0.06,2.84-0.12,4.26-0.16c1.33-1.96,2.801-3.82,4.061-5.83c0.51-1.68-1.08-2.63-2.15-3.55
	c0.17-1.86,0.3-3.72,0.351-5.59C432.89,44.93,432.12,46.31,431.32,47.68 M483,52.12c0.48,0.38,1.42,1.13,1.9,1.5
	c2.409-1.44,4.56-3.27,6.77-5.01c0.01-0.73,0.05-2.2,0.061-2.93C488.44,47.26,485.28,49.2,483,52.12 M595.23,49.53
	c-1.511,0.97,0.399,2.939,1.67,2.05C598.38,50.66,596.46,48.57,595.23,49.53 M598.97,50.48c0.34,2.95,2.44,5.07,4.561,6.92
	c-0.021,2.47,0.56,4.87,1.04,7.28c3.09-1.32,6.439-0.93,9.699-1.27c0.24-0.44,0.74-1.31,0.98-1.75c-3.86,0.01-7.81-0.08-11.37-1.78
	c1.66-0.29,3.36-0.4,5.061-0.51c1.71-2.73,5.479-4.38,4.8-8.1c-2.49,0.04-4.73,1.08-6.82,2.33
	C604.54,51.95,601.97,50.4,598.97,50.48 M552.4,55.15c-0.32,0.8-0.96,2.4-1.271,3.2c3.39,0.92,7.061,1.69,10.25-0.36
	C558.45,56.86,555.51,55.69,552.4,55.15 M559.62,56c2.47,0.88,4.88,1.97,7.439,2.61c1.61-0.06,2.99-1.02,4.48-1.54
	c-0.1,1.55-0.19,3.11-0.271,4.66c2.03-0.18,4.08-0.37,6.12-0.56c0.011,0.77,0.04,2.3,0.061,3.07c2.399,0.85,4.74,1.87,7.189,2.6
	c-1.85-3.24-4.02-6.29-6.17-9.33C572.63,55.07,565.59,52.77,559.62,56 M612.38,58.15c2.9,2.54,7.12,0.43,7.7-3.1
	C617.24,55.27,614.76,56.73,612.38,58.15 M623.44,57.28c-1.301,1.56-2.66,3.06-4.091,4.49c3.65-1.05,7.721-1.21,10.53-4.12
	C627.73,57.39,625.58,57.33,623.44,57.28 M635.72,58.79c-0.1,0.85-0.2,1.71-0.29,2.57c1.641-0.03,3.28-0.03,4.931-0.01
	c-0.04-0.89-0.08-1.77-0.101-2.66C638.74,58.73,637.23,58.76,635.72,58.79 M470.72,65.96c4.181-0.73,8.34-2.73,9.67-7.08
	C476.79,60.64,472.69,62.17,470.72,65.96 M605.12,68.3c2.189,4.34,4.89,8.66,5.29,13.62c-0.03,2.2-0.141,4.4-0.16,6.61
	c1.63-0.021,3.27-0.021,4.92,0.03c-1.68,2.84-4.07,5.17-5.87,7.93c2.351,0,4.7,0.01,7.061,0.13c0.81-1.37,1.609-2.75,2.37-4.16
	c1.619,0,3.239-0.03,4.88-0.1c-1.051-2.77-4.07-1.8-6.351-1.92c0.03-1.02,0.061-2.05,0.101-3.08c6.989,0.6,14.22-0.86,21.02,1.19
	c-2.24-1.52-4.51-3.31-7.32-3.45c-5.38-1.46-10.699,0.98-16.119,0.18c0.159-0.47,0.489-1.4,0.659-1.87c4.36-2.1,8.131-5.08,12-7.93
	c-4.859,0.03-9.869,0.42-14.069-2.53c1.92-0.78,3.96-1.87,6.12-1.41c1.729,0.8,3.189,2.49,5.29,2.12
	c2.199-0.19,5.34,0.93,6.229-1.89c-2.99-0.93-5.93-2.32-9.12-2.21C616.33,69.88,610.76,65.6,605.12,68.3 M555.31,70.51
	c-3.04-0.95-6.229-1.26-9.359-0.54c-3.75,0.1-5.141,4.23-8.29,5.69c-2.42,2.98-4.88,6.11-6.18,9.77
	c-0.74,3.94,0.42,7.95,1.189,11.81c0.94,0.81,1.99,1.479,3.05,2.15c0.78,2.05,1.83,3.99,3.221,5.69c-0.301-1.83-0.58-3.67-0.95-5.49
	c1.16-0.74,2.319-1.46,3.479-2.21c-0.27-1.61-0.45-3.24-0.899-4.81c-1.521,0.06-3.03,0.15-4.53,0.26c0.07-1.05,0.19-3.17,0.26-4.23
	c2.13-0.87,4.101-2.67,6.57-2.21c4.76,0.33,9.88-0.13,14.09,2.55c2.61,2.19,4.65,4.98,7.22,7.24c1.28,2.98,1.931,6.48,0.931,9.63
	c-2.78,5.53-8.12,9.63-14.24,10.75c4.01,2.64,8.71,3.99,13.27,5.36c1.221-0.83,2.431-1.68,3.65-2.52c1.35,0.51,2.71,0.98,4.1,1.411
	c-2.029,1.159-3.71,2.789-5.189,4.56c2.89,0.2,5.81,0.2,8.72,0.19c-0.82-1.041-1.64-2.051-2.43-3.091c1.52-0.03,3.05-0.06,4.59-0.11
	c-0.08,1.23-0.14,2.461-0.18,3.701c3.21-1.351,8.06-2.32,7.489-6.851c-1.87,0.96-3.68,2-5.51,3.01c-0.01-0.67-0.01-2-0.01-2.67
	c2.7-1.02,5.56-1.15,8.42-1.03c-0.07-0.77-0.22-2.31-0.29-3.08c-1.94-0.67-3.95-0.97-5.98-1.11c0.051-2.36,0.08-4.73,0.171-7.08
	c-2.271,0.13-4.54,0.25-6.82,0.25c0.81-1.6,1.81-3.08,2.93-4.48c2.26,2.29,4.48,4.68,7.16,6.48c1.53,0.06,3.07,0.07,4.61,0.05
	c0.029-2.17,0.05-4.35,0.04-6.53c-2.24,1.1-4.63,1.77-7.13,1.62c-1.9-2.32-3.641-4.78-5.721-6.96c4.19,2.09,8.721,0.2,12.21-2.34
	c-0.779-1.09-1.54-2.19-2.3-3.28c-0.939,0.6-1.85,1.23-2.76,1.86c-0.96-1.05-1.92-2.09-2.86-3.14c1.59-0.62,3.2-1.2,4.82-1.74
	c-1.93-3.55-4.92-6.32-7.72-9.16c-1.351-0.65-2.851-0.91-4.25-1.37c0.689-1.66,1.439-3.3,2.14-4.96c-1.93-0.02-3.86-0.03-5.78-0.1
	c0.021,0.68,0.061,2.06,0.08,2.74c-1.63,0.26-3.26,0.54-4.83,1c-0.34,0.85-1.029,2.56-1.38,3.42c1.88,0.01,3.76-0.04,5.65-0.11
	c-0.23,0.84-0.44,1.68-0.65,2.52c-1.09,0.47-2.149,0.99-3.189,1.55c-0.551-2.92-2.99-4.77-4.91-6.79
	c-1.32,1.49-2.63,2.979-4.061,4.36c0.28-3.56,3.67-5.45,5.9-7.82c-0.16-1.26-0.311-2.52-0.46-3.78c2.399,0,5.09,0.49,6.859-1.58
	c-2.31-0.62-4.71-1.97-7.109-0.97C559.69,68.52,558.11,71.42,555.31,70.51 M406.78,70.51c-0.54,1.79-1.11,3.56-1.59,5.36
	c2.27-0.37,4.319-1.46,6.35-2.51c0.06-1.04,0.14-2.08,0.229-3.12C410.11,70.34,408.44,70.44,406.78,70.51 M581.5,69.53
	c2.75,3.52,7.17,5.189,10.6,7.979C589.43,73.97,586.95,68.16,581.5,69.53 M432.47,75.98c3.09,1.04,6.38,0.51,9.58,0.66
	c1.79-0.1,3.931,0.43,5.34-1.02C442.44,75.48,437.35,74.93,432.47,75.98 M532.45,75.1c-0.01,0.41-0.04,1.23-0.05,1.64
	C535.01,79.13,535.14,72.37,532.45,75.1 M626.55,80.38c1.92,0.05,3.851,0.01,5.78-0.03c-0.04-1.08-0.07-2.16-0.08-3.25
	C630.22,77.96,628.34,79.11,626.55,80.38 M596.01,84.01c2.15,3.25,4.181,6.57,6.13,9.95c-0.569,1.86-0.77,3.8-0.84,5.73
	c4.021,0.98,6.391-2.37,8.83-4.91c-1.68-0.66-3.39-1.24-5.149-1.63c-2.271-5.06-6.511-8.9-9.461-13.57
	C595.5,81.06,594.92,82.75,596.01,84.01 M522.21,88.67c-1.43,1.04-0.09,3.89,1.64,2.96C525.33,90.69,523.8,87.79,522.21,88.67
	 M526.51,90.23c0.431,1.88,0.891,3.75,1.4,5.62C529.47,93.87,530.67,89.09,526.51,90.23 M509.05,91.67
	c-1.46,0.89-0.2,3.85,1.38,2.45C511.68,93.17,510.67,90.35,509.05,91.67 M463.09,93.55c-0.32,3.8,2.12,6.64,5.641,7.77
	c0-2.69-0.07-5.43-1.23-7.91C466.4,93.45,464.19,93.51,463.09,93.55 M620.99,99.1c2.72,1.83,5.96,1.18,9.029,1.21
	c-0.81-1.72-1.609-3.43-2.359-5.16C625.39,96.38,623.16,97.69,620.99,99.1 M509.14,98.39c-1.56,1.06,0.36,3.33,1.771,2.29
	C512.47,99.65,510.53,97.29,509.14,98.39 M580.7,99.96c0.729,1.14,1.439,2.3,2.29,3.37c1.43,0.11,2.87,0.2,4.319,0.27
	c0.521-2.12,3.87-4.92,0.87-6.41C585.58,97.83,583.26,99.23,580.7,99.96 M526.14,99.32c-0.029,4.52,2.94,8.06,5.03,11.8
	c0.95,1.67,2.69,2.64,4.15,3.81c0.08,1.78,0.189,3.56,0.439,5.33c1.181-1.59,2.391-3.51,1.41-5.52c-0.47-2.14-2.88-2.45-4.51-3.35
	C532.31,106.6,529.16,102.79,526.14,99.32 M602.09,104.09c1.15,0.51,2.311,1.03,3.48,1.55c0.989-1.77,2.1-3.48,3.56-4.9
	c0.36,1.43,0.73,2.86,1.11,4.29c2.5-1.7,5.279-3.021,8.399-2.64c-0.06,1.92-0.069,3.89-1.02,5.62c1.8-1.16,3.79-2.01,5.83-2.68
	c0.109-0.46,0.34-1.37,0.45-1.83c-1.641,0-3.28,0.01-4.91,0c-0.29-1.33-0.561-2.65-0.811-3.98c-3.399,0.15-6.81-0.02-10.199,0.23
	C605.78,100.85,603.98,102.56,602.09,104.09 M470.46,104.02c-0.32,2.4,2.94,1.33,4.32,1.67c-0.17-2.11-0.3-4.26-1.561-6.04
	C472.15,100.99,470.1,102,470.46,104.02 M479.39,104.43c0.63,3.21-1.63,6.65,0.21,9.52c0.74-0.46,2.21-1.37,2.94-1.82
	c-1.42-2.43-1.19-5.22-0.86-7.89C481.1,104.29,479.96,104.39,479.39,104.43 M614.47,106.44c-1.38-0.31-2.87,1.35-1.899,2.59
	C614.11,110.57,616.94,107.07,614.47,106.44 M602.73,113.12c1.909-1.79,3.88-3.54,5.81-5.32c-1.88-0.92-3.91-1.26-5.96-1.47
	C601.34,108.53,601.76,110.91,602.73,113.12 M432.57,109.5c-2.07,1.86-4.48,3.27-6.761,4.85c2.061,0.18,4.16,0.34,6.24,0.15
	c2.46-1.42,4.75-3.12,7.21-4.58C437.58,108.19,434.33,107.6,432.57,109.5 M440.57,108.48c-0.12,1.93-0.24,3.87-0.45,5.79
	c2.7,0.55,5.33,1.46,8.12,1.5c-1.41,1.11-3.2,1.82-4.26,3.3c2.76,2.331,5.949,5.47,9.77,5.65c4.14-1.739,5.51-6.86,4.72-10.99
	c-2.84-0.21-5.689-0.34-8.54-0.3c-0.899-1.68-1.83-3.35-2.729-5.03C444.98,108.42,442.77,108.43,440.57,108.48 M450.13,109.27
	c-2.72,1.41,1.26,3.53,2.46,1.51C453.73,109.24,451.11,108.72,450.13,109.27 M582.01,111.81c1.641,0.96,3.29,1.94,4.92,2.97
	c0.74-0.43,2.23-1.29,2.98-1.72C588.8,109.37,584.58,110.05,582.01,111.81 M610.18,112.46c-2.6,1.26,1.141,3.14,2.301,1.48
	C613.48,112.5,611.12,111.9,610.18,112.46 M418.32,114.24c0,1.479,0.01,2.96,0.04,4.44c4.33,2.339,9.489,1.97,14.1,0.69
	c0.08-1.37,0.18-2.73,0.28-4.09c-1.04,0.82-2.11,1.59-3.2,2.33c-2.6,0.45-3.9-2.91-6.37-3.06
	C421.56,114.38,419.93,114.32,418.32,114.24 M479.26,114.4c0.07,0.53,0.221,1.59,0.29,2.12c0.96,0.01,1.94,0.03,2.91,0.05
	c0.08-0.55,0.24-1.67,0.32-2.22C481.6,114.37,480.43,114.38,479.26,114.4 M507.96,122.72c1.95-3.27,1.35-6.95,0.06-10.33
	C507.11,115.71,505.23,119.73,507.96,122.72 M439.63,117.63c-1.28-0.57-2.56-1.12-3.86-1.61c-0.14,1.16-0.27,2.33-0.399,3.49
	c2.62,0.73,5.54,0.82,8-0.43c-0.09-0.79-0.28-2.37-0.37-3.16C441.59,115.59,440.68,116.98,439.63,117.63 M603.38,121.17
	c-2.36,0.46-5.47,0.1-5.43,3.41c2-0.061,4.04,0.061,6.02-0.37c3.53-2.351,6.61-5.31,10.08-7.77c-0.49-0.27-1.45-0.82-1.93-1.1
	C608.73,116.5,606.5,119.54,603.38,121.17 M531.58,126.32c0.38-3.61,0.06-7.271-1.82-10.47
	C528.61,119.51,530.02,123.05,531.58,126.32 M615.06,118.51c0.601,1.19,1.24,2.36,1.841,3.551c1.92-0.841,3.699-1.931,5.439-3.101
	C620.37,116.62,617.46,117.77,615.06,118.51 M460.35,118.34c-1.25,2.52-2.21,5.15-3.159,7.79c5.81,5.82,13.119,9.83,20.239,13.81
	c0.261-0.47,0.801-1.409,1.061-1.879c-2.62-5.36-5.471-10.721-9.351-15.291c-2.37,1.67-4.479,4.131-7.62,4.061
	c-0.539-1.03-1.069-2.05-1.59-3.07c2.2-0.52,4.36-1.21,6.61-1.54c0.04-0.909,0.11-2.729,0.14-3.64
	C464.57,118.54,462.46,118.43,460.35,118.34 M516.65,124.79c1.08,1.79,2.34,3.44,3.54,5.149c2.149-4.439,0.6-9.25-2.33-12.87
	C516.8,119.48,516.09,122.16,516.65,124.79 M511.31,120.49c-1.29,1.229-0.939,3.59-0.67,5.199
	C511.85,125.141,513.39,120.99,511.31,120.49 M625.76,121.77c0.94,1.24,2.3,1.881,3.78,2.28c0.01-0.69,0.05-2.069,0.06-2.76
	C628.31,121.439,627.03,121.6,625.76,121.77 M590.02,127.3c1.271,0.091,2.551,0.17,3.841,0.25c-0.16,0.92-0.311,1.83-0.46,2.75
	c1.55,0.37,3.069,0.851,4.6,1.351c-2.35,1.74-4.43,3.789-6.53,5.789c0.021,1.371,0.021,2.73,0.021,4.101
	c0.88-0.03,1.77-0.06,2.67-0.08c0.34-3.46,2.78-6.13,5.55-7.97c3.63-0.061,7.271-0.051,10.6-1.7
	c-4.069-0.271-8.159-0.479-12.239-0.25c0.52-1.17,1.06-2.34,1.62-3.5c-1.801,0.16-3.591,0.31-5.36,0.521
	c0.06-1.521,0.12-3.041,0.18-4.561C593.04,125.15,591.56,126.26,590.02,127.3 M613.83,125.43c-3.811,0.44-7.45,1.84-11.17,2.73
	c3.99,0.85,8.16,1.82,12.24,0.92c2.84-0.76,5.79-0.46,8.699-0.59c-0.05-1.5-0.1-2.99-0.14-4.49
	C620.5,125.75,617.14,125.7,613.83,125.43 M501.37,140.58c2.17-3.32,4.01-6.91,5.189-10.7c-0.34-0.47-1.029-1.41-1.369-1.88
	C502.89,131.85,500.64,135.91,501.37,140.58 M387,133.79c1.01,2.09,2.19,4.101,3.37,6.101c-1.68-1.08-3.101-3.061-5.34-2.671
	c-3.16-0.34-4.96,2.89-7.7,3.87c-2.23,1.13-5.69,1.03-6.41,3.95c-3.31,9.53-10.05,17.33-13.74,26.68
	c-1.39,3.431-3.859,6.44-4.42,10.181c-0.2,2.88-0.189,5.789,0.29,8.64c0.51,3.101-0.17,6.59,2.11,9.149
	c2.02,2.28,2.55,5.24,3.109,8.131c3.561,0.71,7.221,1.479,10.16,3.779c3.75,3,8.61,4.521,11.63,8.431
	c3.96,2.95,8.82,5.13,13.891,4.439c2.51,1.261,5.03,2.69,8.03,2.32c-3.181,0.89-6.25,2.08-9.311,3.3
	c-0.439-0.83-1.31-2.48-1.74-3.31c0.971-0.45,1.94-0.921,2.891-1.41c-1.13,0.04-2.25,0.11-3.37,0.21c0.16,2.02,0.66,3.99,1.09,5.96
	c4.37-2.12,9.18-5.06,14.21-3.479c6.94,1.129,14.03-0.17,20.99,0.529c2.92,1.051,6.149,1.18,8.899,2.721
	c-5.17,0.899-10.449-0.041-15.63,0.699c-5.06,0.91-9.97-1.08-15.069-0.58c0.159,0.78,0.47,2.34,0.619,3.131
	c3.931,2.09,7.45-1.761,11.44-0.86c5.61,0.64,11.19,1.78,16.86,1.649c1.3-0.09,2.46,0.57,3.6,1.11c2.29-3.229,6.28-1.84,9.3-0.58
	c-1.21-1.69-2.45-3.35-3.729-4.979c2.47-1.471,4.7-3.301,6.54-5.521c-2.54-0.14-4.561,1.47-6.84,2.25
	c-3.44,0.03-6.891,0.09-10.311-0.28c4.57-3.609,10.71-2.22,15.91-3.97c4.36-1.56,9.04-0.28,13.51-0.989
	c3.54-1.711,6.61-4.91,5.98-9.11c-2.21,0.05-4.42,0.34-6.62,0.229c-2.42-1.619-5.15-2.84-8.12-2.859c-2.97-0.311-6.51,0.64-8.76-1.9
	c3.979-0.53,7.96-0.02,11.949-0.01c5.62,0.88,12.36,1.779,17.211-1.84c-4.561-2.24-9.851-1.78-14.11,0.869
	c0.05-1.77,0.1-3.539,0.21-5.3c-2.47-0.659-5.01-1.05-7.39-2.01c-3.131-1.46-6.66-0.649-9.931-1.51c3.271-0.48,6.78-1.021,9.94,0.27
	c7.16,2.32,14.64,4,22.21,3.11c0.05,0.97,0.109,1.95,0.17,2.92c1.79,0.54,3.53,1.22,5.229,2c-2.569,0.35-5.17,0.43-7.729,0.83
	c1.36,0.42,2.74,0.8,4.14,1.14c3.44,1.13,5.79-2.93,9.11-2.84c1.85-0.18,3.5,0.771,5.17,1.4c0.79-1.37,1.47-2.82,2.44-4.091
	c4.71-0.609,9.5-0.199,14.239-0.189c-3.899,0.32-7.81,0.22-11.71,0.07c0.04,1.279,0.061,2.57,0.07,3.85
	c3.68,1.721,7.6-0.22,11.32,0.561c0.05,2.229-2.801,1.33-4.15,1.92c1.88,0.619,3.771,2.14,5.85,1.399
	c2.521-0.739,4.891-1.92,7.48-2.46c5.479-0.31,10.99,0.051,16.46-0.42c-1.92-1.359-4.28-0.93-6.47-0.93
	c0.63-2.94,2.33-5.32,4.72-7.09c-0.07-1.11-0.21-3.33-0.29-4.44c-1.479,0.59-2.93,1.22-4.38,1.84c-1.89-1.44-4.45-3.88-6.24-0.84
	c1.57,0.82,3.16,1.62,4.66,2.57c-3.6-0.16-7.22,0.079-10.78-0.14c-0.54-0.75-0.279-1.721-0.35-2.58
	c-1.16-0.791-2.26-1.65-3.33-2.551c-2.29,1.12-4.72,1.561-7.05,0.311c-4.44,2.06-10.25,2.66-12.83,7.3c-3-2.11-6.4-1.3-9.59-0.3
	c-1.95-1.75-2.721-4.521-4.36-6.561c-1.37,1.141-2.63,2.42-4.13,3.391c-2.07,0.18-4.16,0.13-6.23,0.14
	c1.5-3.03,4.471-4.76,6.53-7.32c3.17-4.5,8.84-6.239,12.17-10.63c2.84-2.32,4.351-5.73,4.12-9.4c-2.97,0.041-5.34,1.881-7.74,3.381
	c0.65-1.19,1.36-2.36,2.051-3.53c-0.921-1.25-1.83-2.5-2.681-3.771c3.681-0.229,8.19,3.011,11.351,0.221
	c-1.881-0.1-3.761,0.01-5.631-0.08c-1.59-0.76-2.84-2.01-4.14-3.15c-2.03,2.46-4.24,5.811-7.89,5.301
	c-3.58,0.629-5.83-3.211-5.99-6.311c1.36-0.061,2.73-0.109,4.11-0.141c0.189,0.5,0.55,1.5,0.729,1.99
	c1.55-0.42,3.141-0.64,4.73-0.869c-0.11-0.601-0.221-1.19-0.32-1.78c-1.48,0.1-2.96,0.18-4.42,0.31c-2.61-2.3-6.2-1.1-9.311-1.24
	c2.19,1.771,4.29,3.67,5.78,6.101c-6.89,0.14-13.89-0.22-20.55-2.11c-2.68-0.55-5.43-0.32-8.13-0.31c-0.05-0.64-0.14-1.91-0.19-2.55
	c2.24-0.24,4.4,0.38,6.521,1.06c0.87-0.45,2.6-1.351,3.47-1.8c-4.82-2.301-10.37-3.52-15.62-2.13c-2.35,1.04-5.01,0.979-7.5,0.67
	c-2.38-1.36-4.66-2.931-7.34-3.63c-3.93-1.141-7.06-4-10.95-5.2c-2.77-0.271-5.56-0.04-8.33-0.32c2.57-1.06,5.011-3.19,7.95-2.78
	c5.01,1.5,9.61,4.121,14.55,5.791c0.65-0.261,1.931-0.791,2.57-1.051c-2.32-1.779-4.34-4.02-6.99-5.32
	c-3.859-0.39-8.029-1.08-10.7-4.22c1.931-0.09,3.881-0.06,5.82-0.11c-2.27-1.459-3.92-3.469-4.61-6.1
	c-3.13-0.1-6.21-0.72-9.329-1.01c0.989-1.359,1.979-2.71,2.859-4.15c-3.39,0.181-6.92,0.51-9.689-1.859
	C391.2,131.82,389.11,132.84,387,133.79 M408.3,131.07c-0.45,1.189-0.859,2.38-1.24,3.58c2.12,0.029,4.261,0.01,6.391-0.16
	C411.95,133.05,410.41,131.5,408.3,131.07 M642.53,131.49c0.04,1.109,0.08,2.21,0.13,3.32c2.37-0.23,4.63-1.33,5.859-3.461
	C646.52,131.311,644.52,131.391,642.53,131.49 M612.42,134.689c-0.03,1.291-0.07,2.58-0.1,3.881c2.399,2.13,5.51,2.859,8.56,3.56
	c-4,0.83-8.02,0.21-11.939-0.55c-3.49,1.01-7.11,0.95-10.69,1.14c-2.44,1.511-5.19,1.89-8.01,1.7c0.02,0.311,0.06,0.939,0.08,1.26
	c2.76,0.131,5.92-1.01,8.12,1.26c-2.54,0.82-4.99,3.53-7.811,2.41c-5.77-2.18-11.939-0.399-17.5,1.5
	c1.311,0.98,2.62,1.99,3.92,3.021c1.07-0.83,2.141-1.65,3.2-2.49c0.19,0.65,0.58,1.97,0.78,2.63c1.42-0.33,2.85-0.75,4.18-1.39
	c3.23,2.04,7.08,1.79,10.73,2.05c3.119,0.141,5.8-1.68,8.51-2.96c0.47,1.021,0.95,2.03,1.439,3.05c1.811-1.6-1.1-2.609-1.97-3.729
	c-2.02-2.091-5.02,0.189-7.25,0.78c0.24-0.82,0.72-2.461,0.96-3.271c1.21-0.44,2.42-0.87,3.65-1.271c0.399-1.3,0.83-2.6,1.27-3.89
	c5.15,0.729,10.58-0.729,15.51,1.229c2.75-2.52,6.25-3.579,9.971-3.129c0.22,2.58-1.9,3.459-3.88,4.289
	c1.409-0.22,2.83-0.369,4.27-0.5c-0.07-1.51-0.15-3.01-0.229-4.52c2.96-0.24,6.279-2.85,8.79-0.07c1.439-1,2.71-2.47,4.55-2.67
	c0.939,2.45-0.65,4.44-2.13,6.18c2.51-2.25,5.31-4.159,7.649-6.59c-3.76,0.301-7.92-0.859-11.29,1.23
	c-1.59-3.311-5.37-1.48-7.89-3.37c-3.04,2.06-6.4,3.83-10.2,3.12c1.521-0.87,3.1-1.6,4.67-2.37c-0.02-1.37-0.03-2.75-0.01-4.12
	C618.95,132.67,615.62,133.49,612.42,134.689 M551.51,134.16c1.82,0.24,3.67,0.4,5.521,0.48c-0.65,1.85-1.37,3.689-2.351,5.39
	c1.75,0.26,3.311,0.899,3.141,2.989c-1.721,2.971-5.57,4.03-6.83,7.17c2.34,0.17,4.689,0.351,7.04,0.28
	c1.56-1.079,2.96-2.37,4.47-3.53c-1.35-0.52-2.7-1.039-4.03-1.56c0.3-2.81-1.279-5.14-2.5-7.5c1.17-0.68,2.37-1.34,3.55-2.021
	c0.011-0.6,0.03-1.799,0.04-2.399C556.87,133.6,554.03,132.97,551.51,134.16 M533.95,135.46c1.22,2.19,2.729,4.32,2.99,6.899
	c-1.53,0.19-3.061,0.36-4.58,0.5c1.02,1.94,1.85,3.98,3.04,5.841c-0.521-1.75-1.261-3.42-1.95-5.091
	c1.72-0.42,3.43-0.909,5.13-1.449c1.49,1.85,2.72,3.87,3.93,5.91c-0.02-1.15-0.04-2.301-0.05-3.45c-3.27-2.17-4.94-5.63-5.6-9.4
	C536.14,135.28,534.68,135.4,533.95,135.46 M602.56,137.54c1.301,1.28,2.601,2.56,3.9,3.851c0.08-1.371,0.16-2.73,0.25-4.091
	C605.32,137.37,603.94,137.45,602.56,137.54 M424.5,140.311c2.53,0.68,5.49,2.069,7.68-0.23c-1.33-1.1-2.71-2.13-4.12-3.09
	C426.87,138.1,425.69,139.2,424.5,140.311 M438.02,140.391c1.681,0.5,3.381,0.949,5.141,1.1c-0.561-1.91-2.021-3.271-3.3-4.7
	C439.4,137.689,438.48,139.49,438.02,140.391 M445.93,140.76c0.971,1.811,2.13,3.51,3.34,5.17c-1.8,1.73-3.479,3.59-5.27,5.34
	c2.31,0.101,4.68,0.09,6.8,1.17c-1-1.6-1.939-3.239-2.819-4.899c1.1-0.07,3.3-0.22,4.399-0.3c1.061,3.779,4.76,5.15,7.88,6.81
	c0.11-1.03,0.34-3.09,0.45-4.12c1.13,1.48,2.18,3.04,3.2,4.61c1.609-0.39,3.21-0.78,4.83-1.16c-3.471-3.56-6.34-7.7-10.25-10.819
	C454.78,140.12,450.16,140.26,445.93,140.76 M415.75,142.35c0.76,1.87,2.91,1.07,4.46,1.181
	C419.22,141.99,417.27,142.5,415.75,142.35 M432.76,143.1c2.13,0.851,5.851,0.301,6.311,3.23c-2.08,0.061-4.17,0.1-6.23,0.34
	c2.95,1.37,5.84,3.05,9.15,3.38c-0.98-1.28-1.98-2.53-2.94-3.81c1.681-0.79,3.4-0.17,5.08,0.26c-0.27-0.891-0.52-1.79-0.76-2.689
	c-2.62-0.211-5-1.341-7.33-2.451C435.22,141.8,433.58,142.67,432.76,143.1 M586.62,142.34c-1.14,1.73,1.92,2.98,2.77,1.35
	C590.5,141.891,587.51,140.75,586.62,142.34 M527.45,142.93c0,1.551-0.01,3.11-0.01,4.66c1.06,0.88,2.1,1.76,3.18,2.62
	c0.04-1.83,0.04-3.649-0.021-5.479C529.53,144.141,528.49,143.53,527.45,142.93 M562.69,148.51c-0.391,0.76-1.181,2.271-1.57,3.021
	c3.47,0.2,6.95,0.149,10.43,0.18c-0.81-2.729,0.47-5.05,2.271-7.03C570.15,146.109,566.85,148.96,562.69,148.51 M617.51,148.52
	c-0.109,1.041-0.21,2.09-0.319,3.141c1.779,0.01,3.569,0.05,5.359,0.1c0.78-0.93,1.601-1.83,2.34-2.8
	C623.8,145.97,619.85,148.53,617.51,148.52 M628,148.47c-0.61,0.78-1.82,2.341-2.43,3.12c3.06-0.21,8.359,1.65,8.37-3.14
	C631.95,148.45,629.97,148.46,628,148.47 M363.16,153.05c0.149,0.9,0.47,2.681,0.62,3.57c1.819-1.92,1.96-4.56,2.279-7.03
	C365.1,150.75,364.14,151.92,363.16,153.05 M534.66,149.57c-0.18,1.71-0.271,3.42-0.351,5.14c0.69-0.101,2.07-0.3,2.761-0.399
	C536.38,152.66,535.61,151.061,534.66,149.57 M526.42,151.34c-1.43-0.24-2.86,1.44-1.99,2.74
	C525.89,155.51,528.78,151.939,526.42,151.34 M429.32,151.45c0.01,0.83,0.02,2.479,0.029,3.31c1.801,1.311,3.86,1.971,6.101,1.75
	C434.05,154.141,431.52,152.92,429.32,151.45 M608.63,152.38c2.66,2.46,6.28,2.75,9.69,1.95
	C615.15,153.42,611.93,152.55,608.63,152.38 M545.31,154.91c1.46,1.699,2.4,3.75,3.561,5.65c1.899-1.99,3.18-4.431,4.189-6.98
	C550.42,153.609,547.41,152.83,545.31,154.91 M558.88,154.46c0.49,0.851,1.48,2.54,1.98,3.39c2.899-1.189,5.81-2.38,8.939-2.85
	C566.22,154.109,562.52,154.45,558.88,154.46 M498.47,155.061c-0.01,0.47-0.02,1.39-0.029,1.85
	C501.27,159.67,501.34,152.15,498.47,155.061 M529,154.37c0.01,2.72,2.94,3.33,4.74,4.69c-0.101-1.181-0.19-2.351-0.271-3.53
	C531.98,155.109,530.5,154.68,529,154.37 M537.22,155.75c-0.3,4.79,6.12,5.4,9.71,4.73c-0.26-0.84-0.79-2.511-1.05-3.34
	c-1.149-1.451-2.36-0.201-3.479,0.539c0.069-0.91,0.22-2.71,0.29-3.609C540.85,154.62,539.04,155.2,537.22,155.75 M569.8,155.28
	c0.351,4.079-3.72,6.04-5.399,9.29c2.649-0.101,5.31-0.01,7.96-0.221c1.55-0.729,2.239-2.33,2.87-3.83
	c-1.86-0.029-3.7-0.02-5.54-0.039c1.569-1.711,3.189-3.391,4.84-5.03C572.94,155.391,571.37,155.34,569.8,155.28 M576.28,155.42
	c-0.42,1.07-0.811,2.15-1.19,3.23c0.811-0.041,2.43-0.131,3.24-0.181c0.62-1.079,1.26-2.14,1.9-3.2
	C578.91,155.32,577.59,155.37,576.28,155.42 M574.99,163.859c0.41,0.73,1.24,2.181,1.649,2.91c4.57-0.879,9.4-0.8,13.761-2.399
	c0.199-1.36,0.22-2.729,0.31-4.101c-3.25,0.891-6.57,1.461-9.94,1.351c1.971-2.16,4.061-4.25,5.641-6.729
	C581.91,156.8,578.79,160.9,574.99,163.859 M551.43,158.58c0.011,1.09,0.021,3.279,0.03,4.38c2.56-1.56,5.47-1.79,8.39-1.63
	c-0.279,1.54-0.52,3.09-0.729,4.65c-0.97-1.131-1.65-2.641-3.11-3.2c-1.859,0.079-2.189,2.13-3.029,3.39
	c-0.601-1.02-1.19-2.02-1.79-3.02c-1.051,0.59-2.101,1.18-3.141,1.76c-2.59-2.12-5.93-2.65-9.18-2.551
	c-1.48,2.57-2.88,5.261-2.41,8.33c-2.65-0.22-5.29-0.289-7.93-0.289c-0.04,1.189-0.08,2.38-0.11,3.569
	c2.28-1.31,4.97-4.05,7.21-1.03c-4.04,3.4-9.29,2.58-14.16,2.44c0.061,1.03,0.13,2.06,0.19,3.101c-2.4-0.07-4.811-0.101-7.2-0.07
	c-0.08,0.689-0.22,2.07-0.29,2.77c3.61,2.16,7.61,2.73,11.76,2.12c0.931-1.52,1.801-3.09,3.011-4.409
	c2.699-1.16,5.649-1.591,8.42-2.591c2.34-1.58,3.87-4.14,6.35-5.56c2.43-0.23,4.72-1.051,6.68-2.54c0.391,1.21,0.78,2.42,1.19,3.63
	c2.24-0.54,4.46-1.221,6.78-1.46c1.56-4.32,5.97-6.75,7.3-11.13c-1.58,0.14-3.141,0.32-4.69,0.57c-1.71-0.78-3.33-1.73-5.06-2.451
	C554.35,157.45,552.9,158.141,551.43,158.58 M610.41,160.3c-0.04,0.62-0.12,1.88-0.16,2.511c0.88,0.609,1.75,1.229,2.64,1.859
	c2.561-0.99,5.23-1.66,7.891-2.359c-0.4-0.711-1.21-2.141-1.62-2.851C616.23,159.49,613.21,159.24,610.41,160.3 M527.87,168.32
	c3.93-1.34,8.82-2.551,9.97-7.19C533.19,161.1,530.84,165.51,527.87,168.32 M591.06,162.53c2.771,3.62,7.341,3.3,11.351,2.78
	C599.59,162.22,594.92,162.29,591.06,162.53 M562.31,167.35c-2.02,0.45-1.93,2.74-2.189,4.36c2.18-0.021,4.37-0.06,6.55-0.19
	c2.24,0.121,3.11-2.5,4.11-4.02C567.96,167.46,565.13,167.24,562.31,167.35 M568.94,172.62c5.939,0.17,11.899-0.729,17.09-3.75
	c-3.36-0.86-6.8-1.479-10.271-1.49C572.64,167.07,569.37,169.49,568.94,172.62 M614.51,168.6c0.021,0.95,0.05,1.9,0.07,2.86
	c2.35,0.03,4.71,0.08,7.07,0.17c-0.03-1.08-0.04-2.16-0.04-3.239C619.24,168.48,616.87,168.57,614.51,168.6 M628.63,168.53
	c-0.1,1.25-0.18,2.5-0.26,3.76c2.97,0.229,5.89-0.24,8.68-1.28C634.23,170.189,631.39,169.47,628.63,168.53 M581.51,173.311
	c-3.109,0.819-6.56,0.729-9.24,2.739c0.641,0.341,1.91,1.03,2.551,1.38c6.819,0.57,13.12-2.82,18.689-6.399
	c-1.85-0.86-3.43-2.591-5.529-2.74C585.67,169.76,584.2,172.391,581.51,173.311 M523.8,170.1c-0.53,1.551,0.07,2.07,1.811,1.561
	C526.07,170.08,525.47,169.561,523.8,170.1 M592.98,173.859c-1.841,0.761-3.221,2.211-4.511,3.671c3.54,0.37,7.11,0.02,10.42-1.33
	C597.03,175.311,595.26,172.49,592.98,173.859 M541.01,177.4c2.24,0.25,5.11,0.83,6.17-1.83
	C544.87,175.189,542.68,175.72,541.01,177.4 M546.17,179.439c2.64,0.091,5.44,0.61,7.99-0.279c0.3-1.01,0.57-2.02,0.83-3.04
	c-1.3,0.56-2.58,1.18-3.86,1.76c-1.14-0.96-2.27-1.93-3.41-2.87C547.17,176.48,546.66,177.95,546.17,179.439 M626.06,176.55
	c0.391,0.82,1.181,2.44,1.57,3.25c1.48-0.14,2.96-0.26,4.45-0.37c0.41-0.689,1.25-2.08,1.66-2.77
	C631.3,175.359,628.46,174.92,626.06,176.55 M537.27,179.82c1.78-0.17,3.561-0.34,5.341-0.61c-1.67-0.75-3.341-1.47-5.011-2.17
	C537.52,177.73,537.35,179.12,537.27,179.82 M585.44,182.65c-0.04,0.459-0.12,1.38-0.16,1.84c2.47,0.21,6.05-0.721,5.79,2.99
	c-3.84-0.041-7.71-0.101-11.521,0.489c3.84,0.72,7.78,0.601,11.67,0.521c0.04-0.74,0.11-2.23,0.141-2.971
	c2.75-0.34,5.47-0.92,8.26-0.91c5.21,0.061,9.95-2.42,14.42-4.84c-5.4-0.56-10.75,0.431-16.1,0.851
	C593.7,180.96,589.73,182.96,585.44,182.65 M619.13,182.359c-3.47,1-5.45,4.15-7.899,6.541c5.14-2.7,10.63-4.641,15.789-7.291
	C624.38,181.47,621.55,181.01,619.13,182.359 M561.93,186.41c1.57,0.13,3.15,0.25,4.74,0.359c-0.12-1.239-0.22-2.47-0.32-3.699
	C564.91,184.23,563.43,185.34,561.93,186.41 M629.45,185.62c-1.71,1.3-2.83,3.2-4.32,4.729c3.95-1.85,8.05-3.569,10.78-7.16
	C633.77,184.03,631.56,184.71,629.45,185.62 M541.44,187.07c2.859,1.26,6.3,0.41,8.85-1.29c-1.75-0.29-3.5-0.54-5.26-0.561
	C543.8,185.33,540.56,184.83,541.44,187.07 M571.2,185.35c0.109,0.51,0.33,1.521,0.439,2.021c0.5,0.08,1.511,0.25,2.021,0.33
	c0.04-0.62,0.13-1.851,0.18-2.47C573.18,185.26,571.86,185.32,571.2,185.35 M529.51,189.18c0,0.45,0,1.351,0,1.811
	C532.46,193.73,532.38,186.34,529.51,189.18 M629.25,198.91c-1.33-1.16-2.32-2.69-2.18-4.51c-1.92,1.8-3.98,3.49-6.46,4.449
	c-0.07,0.53-0.221,1.601-0.29,2.131c1.8-1.09,3.56-2.24,5.39-3.301c0.8,1.03,1.6,2.061,2.4,3.101c3.54-1.54,6.779-3.65,9.989-5.79
	c2.69-1.85,6.431-1.73,8.551-4.46c-0.87-0.021-2.601-0.061-3.46-0.07C637.98,192.23,632.95,194.73,629.25,198.91 M548.01,193.77
	c-0.97-0.33-1.93-0.66-2.89-1.01c-2.08,2.24-4.311,4.5-7.12,5.771c-1.9,0.06-3.78-0.091-5.66-0.19c-0.01,0.641-0.03,1.93-0.05,2.57
	c1.22-0.561,2.42-1.13,3.65-1.68c2.05,1.5,4.239,2.819,6.54,3.899c2.359,0.39,4.779,0.25,7.159,0.59
	c-0.55-1.739,0.92-5.36-1.79-5.36c-3.04-0.569-5.739,4.08-8.22,0.65c3.34-2.43,7.17-4.51,11.42-3.39
	c0.41-1.511,0.851-3.011,1.33-4.49C550.93,192.02,549.47,192.9,548.01,193.77 M569.39,191.24c-0.02,0.55-0.069,1.66-0.09,2.22
	c4.91-0.069,9.811,0.62,14.41,2.41c-0.08-0.56-0.229-1.681-0.31-2.24C578.74,192.76,574.04,192.141,569.39,191.24 M551.61,196.48
	c-0.141,1.14-0.271,2.289-0.4,3.439c0.54-0.13,1.61-0.38,2.15-0.51c0.51-1.07,1.05-2.13,1.58-3.19
	C553.82,196.3,552.71,196.391,551.61,196.48 M559.58,198.52c2.55,4.371,8.33,3.65,12.53,5.291c1.92-1.621,3.949-3.11,5.85-4.771
	c-0.25-0.32-0.75-0.96-1-1.271C571.14,197.22,565.41,198.84,559.58,198.52 M582.55,198.5c-1.569,1.26-2.91,2.76-4.21,4.28
	c3.38-0.341,6.34-2,8.82-4.24C585.62,198.48,584.06,198.16,582.55,198.5 M553.39,199.78c0.44,1.22,0.891,2.439,1.341,3.67
	c1.92,0.04,3.85,0.09,5.779,0.01C558.25,202.01,555.84,200.83,553.39,199.78 M537.24,206.33c-0.01,0.33-0.021,1.01-0.03,1.34
	c1.19,0.02,2.39,0.04,3.59,0.07c0-0.37-0.01-1.11-0.01-1.471C539.6,206.29,538.41,206.311,537.24,206.33 M563.87,212.939
	c3.39-0.92,6.1-3.229,9.02-5.069C569.31,208.25,565.33,209.23,563.87,212.939 M356.89,208.4c-1.14,2.67-1.819,5.52-1.63,8.449
	c1.04-0.24,2.08-0.47,3.13-0.699c0.74,0.83,1.48,1.649,2.24,2.479c1.82-0.03,3.63,0.011,5.45,0
	C362.27,215.92,359.93,211.84,356.89,208.4 M576.41,216.92c4.109-2.23,8-4.87,11.689-7.74
	C583.06,209.18,579.43,213.38,576.41,216.92 M473.66,211.641c3.34,1.379,6.99,1.819,10.359,3.17c3.12,1.569,6.11-1.03,9.221-1.351
	c1.84-0.601,3.2,1.21,4.96,1.271c2.49,0.09,4.979-0.15,7.45-0.471c-2.45-1.93-5.561-1.76-8.5-1.82
	c-3.62-1.319-7.41-1.959-11.181-2.699C482.2,212.1,477.84,211.15,473.66,211.641 M361.65,211.189c1.54,2.44,3.47,4.791,6.25,5.86
	c3.319,1.351,6.51,3.39,10.159,3.62c-2.79-2.2-5.909-3.91-8.76-6C366.99,213.04,364.6,211.25,361.65,211.189 M511.89,213.189
	c-1.18,1.461,1.54,2.98,2.49,1.591C515.49,213.26,512.88,211.79,511.89,213.189 M590.73,215.75c-0.171,0.53-0.5,1.58-0.671,2.1
	c3.98,0.09,7.051-2.5,10.19-4.569C596.93,213.47,593.87,214.811,590.73,215.75 M614.61,218.689c2.79,0.141,5.09-1.539,7.55-2.569
	c0.2-0.979,0.399-1.96,0.609-2.931C619.85,214.71,616.87,216.23,614.61,218.689 M628.79,213.6c-0.88,1.431-1.81,2.83-2.69,4.26
	c1.721-1.029,3.381-2.149,5.131-3.129c1.979-0.53,4.1-0.311,6.109-0.811C634.5,213.48,631.63,213.58,628.79,213.6 M468.02,214.99
	c1.051,1.02,2.131,2.04,3.24,3.01c-0.46,0.85-0.899,1.72-1.33,2.59c3.07,0.23,6.07-0.29,8.75-1.85c0.011-1.11,0.03-2.221,0.061-3.33
	c-2.87,0.51-5.641,0.029-7.73-2.13C470.26,213.71,468.77,214.561,468.02,214.99 M526.32,216.439c0.02,0.541,0.08,1.631,0.1,2.17
	c1.6-0.079,3.21-0.129,4.82-0.159c0.149-0.5,0.47-1.49,0.62-1.99C530.01,216.48,528.16,216.48,526.32,216.439 M505.53,217.311
	c0.029,1.33,0.069,2.67,0.1,4.01c-4.26,0.33-8.16,2.17-11.72,4.41c-3.101-1.761-6.62-1.131-10-1.4c-2.17-0.73-4.101-2.63-6.561-2.03
	c-2.38,0.72-4.569,1.97-6.949,2.69c-1.841,0.699-4,0.42-5.62,1.67c-4.98,4.34-12.141,4.68-16.91,9.4
	c1.78,0.42,3.66,0.779,5.04,2.109c2.149,2.29,5.42,0.9,8.16,1.221c3.75,0.439,6.779-2.351,9.54-4.511
	c-0.761,1.22-1.48,2.46-2.181,3.72c3.42,0.17,6.84,0.11,10.261-0.029c0.989-2.73-1.08-3.641-3.24-4.32
	c-0.01-0.43-0.04-1.3-0.061-1.73c2.561-0.17,5.13-0.239,7.7-0.1c1.641-3.061,4.51-4.96,7.53-6.47c-0.03,0.63-0.09,1.87-0.12,2.5
	c-2.29,1.35-4.38,3.03-6.01,5.14c5,0.25,10.12-2.63,15.02-0.41c2.12,1.03,4-1.029,5.721-2c2.029-2.3,0.989-5.5,1.289-8.25
	c1.86,1.23,3.711,2.5,5.53,3.811c-0.55,3.439-4.77,3.91-6.29,6.85c5.061,0.77,7.141-4.52,10.021-7.56
	c3.59,2.239,7.87,1.46,11.88,1.409c4.16-1.609,8.33-3.629,12.93-3.199c0.03-0.62,0.08-1.87,0.101-2.49
	c-4.971-0.73-9.761,1.17-14.721,0.76c-2.12,0.75-4.569,2.25-6.01-0.54c1.41-0.8,2.84-1.59,4.25-2.42
	C517.84,220.061,511.85,217.32,505.53,217.311 M538.9,217.58c1.67,1.46,3.229,3.27,5.529,3.68c2.29,0.69,4.46-0.68,6.62-1.26
	C547.41,217.73,543.1,217.2,538.9,217.58 M553.46,223.54c4.07-0.91,8.26-1.2,12.25-2.479C561.65,218.26,556.14,219.54,553.46,223.54
	 M446.6,232.71c4.04,0.14,7.32-2.53,11.021-3.729C454.08,225.63,447.6,228.02,446.6,232.71 M567.81,232.68
	c3.73,0.32,6.801-1.649,9.381-4.13c-1.671-0.159-3.33-0.37-5-0.239C569.75,228.141,568.5,230.73,567.81,232.68 M549.36,229.939
	c0.83,0.091,2.489,0.261,3.319,0.351c0.29,2.93-3.14,3.17-5.04,4.34c2.141,0.04,4.29,0.05,6.44,0.11
	c0.61,0.84,1.229,1.689,1.85,2.54c0.32,0.02,0.95,0.04,1.271,0.06c0.109-0.39,0.33-1.17,0.43-1.55c-1.51-0.399-3-0.86-4.47-1.36
	c0.28-1.59,0.63-3.16,1.07-4.699C552.6,229.82,550.98,229.88,549.36,229.939 M536.48,235.439c2.439,0.11,4.8-0.58,7.18-1.01
	c-0.061-1.17-0.12-2.33-0.16-3.49C541.22,232.54,538.78,233.891,536.48,235.439 M514.3,236.28c2.16,0.2,4.34,0.29,6.521,0.42
	c-0.09-0.65-0.261-1.95-0.34-2.61C518.34,234.609,516.29,235.38,514.3,236.28 M480.47,235.609c-0.05,0.781-0.14,2.341-0.18,3.121
	c2.64,0.279,5.17-0.621,5.94-3.4C484.3,235.3,482.37,235.3,480.47,235.609 M488.78,235.47c0.43,0.98,0.91,1.94,1.439,2.89
	c3.19,0.221,6.391,0.291,9.59,0.221c1.87-0.03,3.931-1.13,4.2-3.13C498.94,235.33,493.85,235.29,488.78,235.47 M504.86,238.391
	c1.87,0.159,3.76,0.219,5.64,0.239c0.51-1.18,1.01-2.36,1.48-3.55C509.18,235.07,506.97,236.75,504.86,238.391 M560.28,235.34
	c0.1,0.53,0.3,1.59,0.39,2.12c1.11-0.06,2.21-0.11,3.33-0.16c0.22-0.47,0.66-1.42,0.88-1.89
	C563.34,235.37,561.81,235.35,560.28,235.34 M569.21,235.16c0.03,0.699,0.09,2.1,0.12,2.79c1.37-0.79,2.76-1.56,4.14-2.341
	C572.04,235.45,570.62,235.3,569.21,235.16z"/>
<path fill="#FAFAFA" d="M534.46,10.3c2.86-2.82,2.98,4.5-0.02,1.79C534.44,11.64,534.45,10.75,534.46,10.3z"/>
<path fill="#FAFAFA" d="M495.22,16.3c1.16,0.01,2.33,0.01,3.511,0c0.01,0.35,0.029,1.05,0.05,1.39c-1.181,0-2.34,0.01-3.5,0.01
	C495.26,17.35,495.23,16.65,495.22,16.3z"/>
<path fill="#FAFAFA" d="M500.47,20.56c5.2,0.93,9.59-3.65,14.84-1.73c-2.939,0.82-6.09,0.75-8.909,2.02
	c-2.91,1.41-5.561,3.27-8.29,4.99c0.34,0.58,1.02,1.75,1.359,2.34c-0.47-0.27-1.42-0.8-1.89-1.07c-0.09-1.2-0.19-2.41-0.28-3.61
	c1.16-0.03,2.33-0.06,3.5-0.08c-0.03-0.6-0.09-1.81-0.12-2.41c-1.37,0.15-2.739,0.21-4.09,0.47c-2.22,2.15-4.3,4.53-7.06,6
	c-4.45,0.03-8.9,0.06-13.34,0.1c-2.061,0.08-3.221-1.91-4.7-3.01c-0.021-0.46-0.061-1.37-0.08-1.82c1.67-0.5,3.29-1.4,5.09-1.32
	c5.81,0.14,11.64,0.11,17.45-0.06C496.07,20.75,498.24,20.23,500.47,20.56z"/>
<path fill="#FAFAFA" d="M459.34,20.14c2.69,0.36,5.28,1.2,7.91,1.88c-2.52,0.45-5.05,0.79-7.55,1.36
	C459.57,22.3,459.45,21.22,459.34,20.14z"/>
<path fill="#FAFAFA" d="M531.13,20.54c3.601,0.29,7.19-0.24,10.79-0.1c-3.29,1.48-6.6,3.2-10.28,3.32
	C531.47,22.69,531.3,21.61,531.13,20.54z"/>
<path fill="#FAFAFA" d="M527.1,21.44c1.32-1.06,3.631,0.97,1.87,2.06C527.63,24.55,525.29,22.53,527.1,21.44z"/>
<path fill="#FAFAFA" d="M562.94,22.37c1.3,0.88,2.609,1.75,3.949,2.57c0.94-0.56,1.891-1.13,2.83-1.71c-0.13,1.1-0.25,2.2-0.35,3.3
	c-3.15-0.03-6.3-0.23-9.44-0.12c-2.42,1.71-4.5,3.9-6.17,6.35c-0.92-0.17-1.859-0.33-2.76-0.5c1.46-1.58,2.95-3.14,4.35-4.79
	c-3.359-1.02-5.729,1.83-8.38,3.32c-2-0.73-4.05-1.49-5.5-3.11c1.8-0.24,3.65-0.2,5.44-0.57c1.93-1.35,3.74-3.14,6.31-2.93
	c0.851,1.27,1.721,2.54,2.63,3.79C558.33,26.26,560.67,24.36,562.94,22.37z"/>
<path fill="#FAFAFA" d="M506.04,28.9c3.85-1.56,7.61-3.35,11.52-4.76c0.73,3.08-2.479,4.44-4.369,6.13
	c5.779,4.02,13.14,1.5,19.68,2.27c-0.11,0.68-0.33,2.04-0.44,2.72c-3.09,1.73-6.63,0.95-9.939,1.48
	c-4.471,1.97-9.23,3.28-14.15,2.72c0.061,0.58,0.19,1.73,0.25,2.3c3.67,0.26,6.55-2.72,10.23-2.32c2.55,0,4.649-1.91,7.189-1.96
	c3.28-0.01,6.58,0.15,9.86-0.24c-0.28,1.58-0.54,3.17-0.76,4.76c4.109-1,7.77-3.21,11.8-4.42c2.49-0.25,4.81,1.14,7.25,1.5
	c-3.71,0.36-7.351,1.16-11.04,1.64c1.37,1.58,2.8,3.1,4.22,4.63c-2.97-0.3-5.41,0.86-7.1,3.3c-3.23-0.06-6.61-0.78-9.71,0.44
	c-3.25,0.77-6.62,0.16-9.92,0.31c-0.15,0.51-0.45,1.55-0.591,2.06c3.431,0.16,6.87-0.09,10.32-0.01c-1.29,1.41-2.57,2.81-3.81,4.25
	c-1.891-0.47-3.78-0.99-5.71-1.28c-2.141-0.32-3.82-2.49-6.101-1.91c-4.979,1.91-10.52,0.13-15.38,2.61c0.09,0.6,0.26,1.8,0.34,2.41
	c4.351-2.09,9.32-0.04,13.65-2.01c2.22-0.54,3.92,1.67,6.04,1.94c4.56,0.25,9.16,0.06,13.63-0.84c2.95,0.29,5.64-0.83,8.12-2.33
	c1.84-1.34,4.18-0.66,6.27-0.57c-3.939,3.75-9.949,5.1-12.52,10.28c-5.2,3.75-11.53-0.2-17.24,0.47c1.62,2.32,4.21,4.24,7.17,3.94
	c2.601-0.36,5.17-1.01,7.83-1.05c-1.189,3.02-4.07,4.69-6.01,7.12c-0.84,3.26-1.021,6.63-1.33,9.96c0.84,0.81,1.71,1.61,2.57,2.41
	c-1.841-0.32-3.69-0.48-5.54-0.6c1.52-3.72,2.05-8.21-0.851-11.42c-1.96,5.28-6.26,8.96-9.59,13.32c0.62-1.83,1.8-3.38,2.88-4.95
	c-2.12-4.12,0.101-8.51-0.08-12.84c-0.56,0-1.68,0-2.239,0c-0.051,1.84-0.101,3.68-0.16,5.52c-2.44-0.76-4.96-1.99-7.4-0.51
	c-0.87-0.93-1.72-1.86-2.57-2.8c-5.149,3.37-3.71,10.12-3.659,15.36c3.31-3.13,1.39-8.35,2.02-12.45c0.98-0.02,2.93-0.08,3.91-0.11
	c-0.13,3.17-0.271,6.43-1.78,9.3c-1.76,3.4-1.2,7.29-1.109,10.96c-1.16-0.1-2.311-0.2-3.46-0.29c2.71,4.08,1.02,9.06-0.631,13.2
	c-1.34,3.07-1.26,6.46-1.069,9.74c2.5-0.8,4.069-2.96,5.7-4.87c0.13,2.08,0.13,4.19,0.77,6.21c0.64-3.88,1.07-7.77,1.83-11.64
	c1.36-0.58,2.689-1.22,4.02-1.86c-1.979,2.94-2.63,6.35-2.609,9.85c0.029,2.89-2.521,4.311-4.34,6.07
	c-0.971,3.521-0.091,7.26-0.54,10.851c-1.641,6.079-5.71,11.52-4.931,18.06c0.92-0.17,2.761-0.5,3.681-0.66
	c1.46-2.399,1.949-5.271,3.62-7.55c2.649-3.4,3.229-7.82,5.239-11.57c1.48,0.971,2.96,1.95,4.45,2.92c0.12-2.92,0.54-5.8,1.46-8.57
	c4.09,3.881,6.38,9.11,7.75,14.48c-0.25,1.57-1.16,2.939-1.7,4.42c1.79,0.01,3.57-0.02,5.36-0.04c-0.04,1.46,0.49,3.03-0.14,4.41
	c-1.761,1.86-4.17,2.89-6.45,3.94c-0.311,1.739-0.78,3.449-1.271,5.149c-2.35-0.46-4.63-1.149-6.92-1.79
	c0.01,1.24,0.03,2.49,0.05,3.74c2.37-0.75,4.771-1.41,7.271-1.55c-0.19,3.1-1.92,5.77-2.71,8.72c-3.19-0.58-6.26-2.18-9.57-1.391
	c1.82,1.541,3.91,2.771,5.63,4.431c1.32,3.7-1.17,6.771-2.76,9.87c0.35,1.04,0.88,2.01,1.34,3.01
	c-0.899,1.221-1.819,2.43-2.689,3.68c5.31,0.19,10.609-0.109,15.75-1.52c-1.681,2.55-3.25,5.18-5.061,7.63
	c-3.649-0.2-7.33-0.29-10.8,0.99c-2.18-3.31-6.16-2.03-9.47-2.17c-2.021-0.101-3.69,1.239-5.46,1.989
	c-1.41-0.91-2.67-2.66-4.561-2.06c-2.92-0.05-5.02,2.431-7.72,3.06c-2.95,0.08-5.91-0.069-8.86-0.1
	c1.591-1.37,2.641-3.98,5.061-3.92c1.43,0.67,2.75,1.54,4.13,2.33c-0.46-1.93-1.21-3.75-2.1-5.5c1.289,0.07,2.6,0.15,3.909,0.22
	c3.561-4.5,8.99-9.01,8.62-15.22c1.5,0.061,3.01,0.109,4.521,0.15c1.149-1.461,2.41-2.82,3.71-4.15
	c-2.601,0.12-5.19,0.21-7.79,0.279c2.189-2.189,4.05-4.729,4.78-7.789c1.289-0.57,2.55-1.2,3.819-1.811
	c-0.09,1.29-0.18,2.58-0.27,3.881c1.1-0.171,2.21-0.32,3.33-0.471c0.479-3.82-1.091-7.95,0.89-11.49
	c-0.35-0.729-1.06-2.189-1.42-2.92c-1.16,1.131-2.21,2.37-3.45,3.4c-1.76,0.199-3.54-0.051-5.29-0.07c0.42,4.25-0.38,8.5-2.46,12.25
	c-0.75-0.06-2.24-0.17-2.99-0.23c1.16-1.76,2.4-3.479,3.4-5.35c0.06-3.46,0.729-7.06-1.01-10.229
	c-1.511-6.561-0.37-13.431-0.83-20.11c-1.67,1.62-0.88,4.16-1.3,6.21c-0.95-1.68-1.75-3.42-2.57-5.149
	c-0.09,2.069-0.13,4.149-0.271,6.22c-3.05-2.81-2.31-7.92-1.09-11.54c1.761-7.9-2.3-15.53-1.81-23.47c-3.09,0.6-4.71,4.1-8.04,3.97
	c0.03-1.89-0.12-3.89,0.92-5.57c-1.83,0.12-3.66,0.17-5.49,0.26c-1.46-2.64-3.03-5.22-4.66-7.77c-1.43,0.88-2.87,1.76-4.38,2.5
	c-5.8,0.66-11.59,1.46-17.439,1.22c-3.601,1.3-7.17,2.7-10.561,4.47c-0.45-0.9-0.899-1.8-1.35-2.71c-3.04,0.23-6.22-0.31-9.11,0.85
	c2.15,0.34,4.33,0.38,6.521,0.47c-0.09,0.55-0.261,1.65-0.351,2.2c-2.489,0.72-5.239,0.76-7.399,2.34
	c-3.9,2.56-8.011,4.79-12.181,6.86c-2.909,1.32-4.84,4-6.75,6.45c0.5,0.34,1.511,1.04,2.021,1.39c1.649-1.28,3.3-2.55,4.99-3.79
	c0.43,0.52,1.31,1.55,1.75,2.07c-1.891,1.63-3.851,3.16-5.79,4.72c-0.96-0.55-1.86-1.23-2.94-1.51c-1.979,2.1-2.64,5.63-5.81,6.31
	c-1.38,0.391-1.45,2.17-2.07,3.23c4.57,0.3,4.51-6.41,8.86-6.631c0.47,0.301,1.399,0.91,1.869,1.221
	c-1.399,1.91-2.899,3.76-4.09,5.82c2.931-1.601,3.66-5.17,6.04-7.32c1.44-1.36,2.87-2.74,4.28-4.14c0.33,0.51,0.98,1.51,1.31,2.02
	c-1.25,2.95-3.119,5.6-4.119,8.67c-0.58,1.899-2.82,1.93-4.46,1.89c-4.94-0.359-10.28,1.26-14.57-2.06
	c0.38-5.19,1.55-10.27,2.38-15.4c0.31-2.42,2-4.3,3.229-6.32c-0.729-0.06-2.189-0.19-2.909-0.25c0.29-7.26,2.58-14.4,6.779-20.35
	c0.69,0.58,1.38,1.17,2.08,1.76c1.08-2.21,2.45-4.25,3.78-6.32c1.61-0.021,3.24-0.07,4.82-0.42c-2.101-0.49-4.25-0.86-6.051-2.12
	c2.53-0.75,5.061-1.51,7.601-2.24c3.75-0.52,7.6-0.23,11.28-1.28c-3.11-0.01-6.23,0.21-9.33-0.1c-0.4-0.65-1.19-1.95-1.58-2.6
	c5.06,0.09,9.76-2.1,14.77-2.64c-3.47-2.98-7.66-0.42-11.59-0.46c0.25-0.65,0.74-1.94,0.99-2.58c2.43-0.59,4.76-1.6,7.29-1.78
	c2.899-0.35,4.97-3.45,8.05-2.9c1.94,0.45,3.87,0.97,5.81,1.46c1.881,1.77,3.69,3.62,5.351,5.61c-4.601,0.53-9.17-2.11-13.65-0.04
	c-0.43,1.77-0.93,3.51-1.42,5.26c1.271-0.05,2.54-0.09,3.83-0.13c-0.61,1.27-1.22,2.53-1.78,3.82c3.771,3.4,8.94,1.28,13.301,2.99
	c5.029,0.52,10.13-0.04,15.189,0.28c3.021-1.6,4.94-4.77,8.22-5.96c4.87-2.13,8.261-7.71,14.11-7.25c4.021-1.03,8.41-0.84,12.1-2.97
	c1.57,0.6,3.16,1.12,4.82,1.43c-0.63-2.48-2.26-4.6-4.87-5.09c-3.6,0.58-7.37,1.08-10.819-0.42c0.079-2.66,1.47-4.88,3.17-6.84
	c0.29,1.99,0.18,4,0.029,6c1.5-0.08,3.011-0.12,4.511-0.33c2.96-2.17,5.149-5.22,8.189-7.3c2.87-1.92,5.32-4.36,7.73-6.82
	c0.989,1.19,2.31,2.47,1.229,4.07c0.851-0.98,1.71-1.93,2.601-2.87c2.01,0.09,4.02,0.09,6.04,0.11c1.029-0.98,2.069-1.96,3.14-2.91
	c3.99,0.7,7.71-0.9,11.62-1.25c0.06-0.53,0.17-1.6,0.229-2.13c-3.199,0.8-6.31,1.97-9.59,2.48c-4.25,0.77-8.189,2.97-12.55,3.13
	c-2.62-0.69-2.39-4.92-5.54-4.19c0.61,1.3,1.24,2.59,1.9,3.86c-2.73,2-4.87,6.6-8.87,5.04c-0.67-0.23-2.011-0.68-2.681-0.91
	c2.131-1.96,4.101-4.1,5.83-6.42c-4.09-4.56-8.8-8.81-14.71-10.78c-0.08-1.14-0.16-2.28-0.229-3.41c1.93,0.86,3.85,1.76,5.74,2.72
	c2.119-0.76,4.289-1.41,6.369-2.27c0.011,0.91,0.03,2.73,0.04,3.64C500.06,32.85,502.76,30.19,506.04,28.9 M468.52,85.45
	c1.08,2.98,4.37,1.94,6.36,0.63c0.41-4.19-2.51-6.99-5.11-9.79C468.35,79.09,466.29,82.46,468.52,85.45 M483.69,94.57
	c2.22-0.32,4.42-0.83,6.64-1.24c0.15-2.32,2.43-5.32-0.16-6.96C486.03,86.49,485.44,91.7,483.69,94.57 M477.18,97.11
	c1.79,0.57,3.57,1.17,5.37,1.73c0.03-1.66,0.05-3.33,0.04-4.99C480.79,94.95,478.99,96.03,477.18,97.11 M396.4,110.96
	c-1.12,1.37,1.109,3.45,2.14,1.74C399.68,111.3,397.46,109.31,396.4,110.96 M494.95,132.859c-0.32,3.711-0.79,7.4-1.391,11.07
	c0.421,0.801,1.25,2.4,1.671,3.2C495.96,142.42,495.72,137.55,494.95,132.859 M511.77,149.23c1.301,0.529,2.591,1.09,3.9,1.64
	c0.35-3.09,2.53-5.07,5.44-5.87c-0.83-0.47-2.471-1.41-3.29-1.88C515.83,145.189,513.91,147.32,511.77,149.23 M506.23,151.2
	c0.029,0.87,0.079,2.61,0.109,3.47c0.84-0.01,2.53-0.04,3.37-0.061C509.73,152.32,508.49,151.18,506.23,151.2z"/>
<path fill="#FAFAFA" d="M522.26,25.36c1.15,0,2.311-0.01,3.48-0.01c0,0.33-0.01,0.98-0.021,1.31c-1.149,0-2.29-0.01-3.42,0
	C522.29,26.33,522.27,25.68,522.26,25.36z"/>
<path fill="#FAFAFA" d="M444.82,32.58c0.04-1.24,0.1-2.47,0.199-3.71c0.04,0.98,0.131,2.94,0.181,3.92
	c5.46-0.48,10.84,0.47,16.27,0.79c0.09,0.6,0.271,1.81,0.36,2.41c-3.94-0.57-7.72-2.28-11.78-1.46c-3.99,0.96-8.08,1.71-11.89,3.25
	c0.18-1.33,0.359-2.67,0.54-4C440.74,33.38,442.77,32.96,444.82,32.58z"/>
<path fill="#FAFAFA" d="M532.84,33.44c0.78-1.61,2.23-3.14,4.19-2.83c3.47,0.14,7.229-0.74,10.3,1.39
	C542.85,34.39,537.67,33.2,532.84,33.44z"/>
<path fill="#FAFAFA" d="M567.28,31.37c1.13,0.01,2.27,0.02,3.42,0.03c-0.01,0.3-0.03,0.9-0.04,1.2c-1.141,0-2.26,0.01-3.38,0.03
	C567.28,32.31,567.28,31.68,567.28,31.37z"/>
<path fill="#FAFAFA" d="M465.83,33.86c1.61-0.5,2.18,0.07,1.71,1.7C465.88,36.02,465.31,35.45,465.83,33.86z"/>
<path fill="#FAFAFA" d="M586.91,39.05c1.77-1.16,3.38-2.56,5.16-3.72c1.89,1.1,3.59,2.49,5.319,3.82
	c-1.979,0.37-3.93,0.86-5.83,1.48c1.9,1.83,3.641,3.82,5.54,5.65c2.561,0.38,5.16,0.01,7.74-0.05c-0.09,0.58-0.26,1.74-0.35,2.32
	c-2.37-0.07-4.74-0.04-7.11,0.07C594.62,44.72,591.64,40.65,586.91,39.05z"/>
<path fill="#FAFAFA" d="M434.3,38.46c0.65-0.03,1.95-0.09,2.59-0.12c-0.33,1.88-0.68,3.87-2.37,5.04
	C434.39,41.74,434.34,40.1,434.3,38.46z"/>
<path fill="#FAFAFA" d="M468.51,42.37c-1.93-1.37-5.01-2.26-4.17-5.24c2.87,0.99,5.601,2.35,8.38,3.58c-0.02,2.5-0.12,5-0.21,7.5
	c-1.04,0.54-2.06,1.1-3.08,1.64C468.65,47.43,468.47,44.9,468.51,42.37z"/>
<path fill="#FAFAFA" d="M614.47,37.98c1.09-1.63,3.21,0.44,2.16,1.82C615.59,41.49,613.37,39.33,614.47,37.98z"/>
<path fill="#FAFAFA" d="M600.57,43.34c1.85-1.53,3.83-2.9,5.84-4.21c0.02,1.47,0.04,2.94,0.07,4.41
	C604.51,43.51,602.53,43.46,600.57,43.34z"/>
<path fill="#FAFAFA" d="M630.1,47.97c2.271-2.83,5.71-4.25,8.12-6.9c0.261,1.3,0.45,2.62,0.66,3.94c0.84-0.26,2.53-0.77,3.37-1.03
	c-1.07,0.48-2.11,0.97-3.15,1.49c-0.8-0.81-1.59-1.62-2.39-2.42C634.69,44.93,632.41,46.49,630.1,47.97z"/>
<path fill="#FAFAFA" d="M436.07,47.86c1.029-2.71,1.989-5.79,4.79-7.19C441.18,44.01,438.1,45.78,436.07,47.86z"/>
<path fill="#FAFAFA" d="M473.95,41.89c1.67,0.79,3.31,1.65,4.95,2.51c-0.44,1.58-1.11,3.09-1.86,4.54
	C475.89,46.64,474.82,44.31,473.95,41.89z"/>
<path fill="#FAFAFA" d="M438.59,49.5c3.34-2.9,6.83-6.42,11.391-7.01c4.279,1.15,8.829,0.61,13.039,2.15
	c0.511,1.37,1.04,2.74,1.57,4.11c-1.479-0.14-2.95-0.26-4.41-0.37c1.021,0.53,2.07,1.02,3.141,1.49c-1.86,2.35-5.19,3.05-6.66,5.85
	c2.75-1.27,5.22-3.05,7.8-4.64c-0.49,6.22-1.78,12.93-6.17,17.65c-1.63-0.69-3.271-1.35-4.9-2.02c0-0.76,0.011-2.29,0.011-3.05
	c2.069-0.23,4.159-0.28,6.199-0.74c-1.699-0.2-3.399-0.32-5.09-0.37c0.101-3.72-0.88-7.32-1.95-10.84c-1.51-0.33-3-0.78-4.5-1.12
	c-2.05,0.24-4.06,0.97-6.149,0.66c-1.13,0.94-2.26,1.89-3.42,2.78C438.54,52.54,438.05,50.93,438.59,49.5z"/>
<path fill="#FAFAFA" d="M431.32,47.68c0.8-1.37,1.569-2.75,2.37-4.13c-0.051,1.87-0.181,3.73-0.351,5.59
	c1.07,0.92,2.66,1.87,2.15,3.55c-1.26,2.01-2.73,3.87-4.061,5.83c-1.42,0.04-2.84,0.1-4.26,0.16c0.54-1.33,1.09-2.65,1.62-3.99
	c1.67-0.03,3.35-0.05,5.04-0.06C433.73,52.05,433.33,49.48,431.32,47.68z"/>
<path fill="#FAFAFA" d="M483,52.12c2.28-2.92,5.44-4.86,8.73-6.44c-0.011,0.73-0.051,2.2-0.061,2.93c-2.21,1.74-4.36,3.57-6.77,5.01
	C484.42,53.25,483.48,52.5,483,52.12z"/>
<path fill="#FAFAFA" d="M595.23,49.53c1.229-0.96,3.149,1.13,1.67,2.05C595.63,52.47,593.72,50.5,595.23,49.53z"/>
<path fill="#FAFAFA" d="M598.97,50.48c3-0.08,5.57,1.47,7.95,3.12c2.09-1.25,4.33-2.29,6.82-2.33c0.68,3.72-3.09,5.37-4.8,8.1
	c-1.7,0.11-3.4,0.22-5.061,0.51c3.561,1.7,7.51,1.79,11.37,1.78c-0.24,0.44-0.74,1.31-0.98,1.75c-3.26,0.34-6.609-0.05-9.699,1.27
	c-0.48-2.41-1.061-4.81-1.04-7.28C601.41,55.55,599.31,53.43,598.97,50.48z"/>
<path fill="#FAFAFA" d="M552.4,55.15c3.109,0.54,6.05,1.71,8.979,2.84c-3.189,2.05-6.86,1.28-10.25,0.36
	C551.44,57.55,552.08,55.95,552.4,55.15z"/>
<path fill="#FAFAFA" d="M559.62,56c5.97-3.23,13.01-0.93,18.85,1.51c2.15,3.04,4.32,6.09,6.17,9.33c-2.449-0.73-4.79-1.75-7.189-2.6
	c-0.021-0.771-0.05-2.3-0.061-3.07c-2.04,0.19-4.09,0.38-6.12,0.56c0.08-1.55,0.171-3.11,0.271-4.66c-1.49,0.52-2.87,1.48-4.48,1.54
	C564.5,57.97,562.09,56.88,559.62,56z"/>
<path fill="#FAFAFA" d="M612.38,58.15c2.38-1.42,4.86-2.88,7.7-3.1C619.5,58.58,615.28,60.69,612.38,58.15z"/>
<path fill="#FAFAFA" d="M623.44,57.28c2.14,0.05,4.29,0.11,6.439,0.37c-2.81,2.91-6.88,3.07-10.53,4.12
	C620.78,60.34,622.14,58.84,623.44,57.28z"/>
<path fill="#FAFAFA" d="M635.72,58.79c1.511-0.03,3.021-0.06,4.54-0.1c0.021,0.89,0.061,1.77,0.101,2.66
	c-1.65-0.02-3.29-0.02-4.931,0.01C635.52,60.5,635.62,59.64,635.72,58.79z"/>
<path fill="#FAFAFA" d="M470.72,65.96c1.971-3.79,6.07-5.32,9.67-7.08C479.06,63.23,474.9,65.23,470.72,65.96z"/>
<path fill="#FAFAFA" d="M605.12,68.3c5.64-2.7,11.21,1.58,16.93,1.26c3.19-0.11,6.13,1.28,9.12,2.21c-0.89,2.82-4.03,1.7-6.229,1.89
	c-2.101,0.37-3.561-1.32-5.29-2.12c-2.16-0.46-4.2,0.63-6.12,1.41c4.2,2.95,9.21,2.56,14.069,2.53c-3.869,2.85-7.64,5.83-12,7.93
	c-0.17,0.47-0.5,1.4-0.659,1.87c5.42,0.8,10.739-1.64,16.119-0.18c2.811,0.14,5.08,1.93,7.32,3.45c-6.8-2.05-14.03-0.59-21.02-1.19
	c-0.04,1.03-0.07,2.06-0.101,3.08c2.28,0.12,5.3-0.85,6.351,1.92c-1.641,0.07-3.261,0.1-4.88,0.1c-0.761,1.41-1.561,2.79-2.37,4.16
	c-2.36-0.12-4.71-0.13-7.061-0.13c1.8-2.76,4.19-5.09,5.87-7.93c-1.65-0.05-3.29-0.05-4.92-0.03c0.02-2.21,0.13-4.41,0.16-6.61
	C610.01,76.96,607.31,72.64,605.12,68.3 M608.8,72.02c-0.569,1.65-0.04,2.22,1.58,1.72C610.91,72.05,610.39,71.47,608.8,72.02z"/>
<path fill="#FAFAFA" d="M555.31,70.51c2.801,0.91,4.381-1.99,6.851-2.52c2.399-1,4.8,0.35,7.109,0.97
	c-1.77,2.07-4.46,1.58-6.859,1.58c0.149,1.26,0.3,2.52,0.46,3.78c-2.23,2.37-5.62,4.26-5.9,7.82c1.431-1.38,2.74-2.87,4.061-4.36
	c1.92,2.02,4.359,3.87,4.91,6.79c1.04-0.56,2.1-1.08,3.189-1.55c0.21-0.84,0.42-1.68,0.65-2.52c-1.891,0.07-3.771,0.12-5.65,0.11
	c0.351-0.86,1.04-2.57,1.38-3.42c1.57-0.46,3.2-0.74,4.83-1c-0.02-0.68-0.06-2.06-0.08-2.74c1.92,0.07,3.851,0.08,5.78,0.1
	c-0.7,1.66-1.45,3.3-2.14,4.96c1.399,0.46,2.899,0.72,4.25,1.37c2.8,2.84,5.79,5.61,7.72,9.16c-1.62,0.54-3.23,1.12-4.82,1.74
	c0.94,1.05,1.9,2.09,2.86,3.14c0.91-0.63,1.82-1.26,2.76-1.86c0.76,1.09,1.521,2.19,2.3,3.28c-3.489,2.54-8.02,4.43-12.21,2.34
	c2.08,2.18,3.82,4.64,5.721,6.96c2.5,0.15,4.89-0.52,7.13-1.62c0.01,2.18-0.011,4.36-0.04,6.53c-1.54,0.02-3.08,0.01-4.61-0.05
	c-2.68-1.8-4.9-4.19-7.16-6.48c-1.12,1.4-2.12,2.88-2.93,4.48c2.28,0,4.55-0.12,6.82-0.25c-0.091,2.35-0.12,4.72-0.171,7.08
	c2.03,0.14,4.04,0.44,5.98,1.11c0.07,0.77,0.22,2.31,0.29,3.08c-2.86-0.12-5.72,0.01-8.42,1.03c0,0.67,0,2,0.01,2.67
	c1.83-1.01,3.64-2.05,5.51-3.01c0.57,4.53-4.279,5.5-7.489,6.851c0.04-1.24,0.1-2.471,0.18-3.701c-1.54,0.051-3.07,0.08-4.59,0.11
	c0.79,1.04,1.609,2.05,2.43,3.091c-2.91,0.01-5.83,0.01-8.72-0.19c1.479-1.771,3.16-3.4,5.189-4.56c-1.39-0.431-2.75-0.9-4.1-1.411
	c-1.22,0.84-2.43,1.69-3.65,2.52c-4.56-1.37-9.26-2.72-13.27-5.36c6.12-1.12,11.46-5.22,14.24-10.75c1-3.15,0.35-6.65-0.931-9.63
	c-2.569-2.26-4.609-5.05-7.22-7.24c-4.21-2.68-9.33-2.22-14.09-2.55c-2.47-0.46-4.44,1.34-6.57,2.21
	c-0.069,1.06-0.189,3.18-0.26,4.23c1.5-0.11,3.01-0.2,4.53-0.26c0.449,1.57,0.63,3.2,0.899,4.81c-1.16,0.75-2.319,1.47-3.479,2.21
	c0.37,1.82,0.649,3.66,0.95,5.49c-1.391-1.7-2.44-3.64-3.221-5.69c-1.06-0.67-2.109-1.34-3.05-2.15
	c-0.77-3.86-1.93-7.87-1.189-11.81c1.3-3.66,3.76-6.79,6.18-9.77c3.149-1.46,4.54-5.59,8.29-5.69
	C549.08,69.25,552.27,69.56,555.31,70.51 M554.07,81.25c-1.48,0.17-2.49,2.21-1.67,3.46C554.17,85.77,555.72,81.94,554.07,81.25
	 M534.15,93.27c-0.44,2.42,1.09,4.09,2.54,5.77c1.46-0.18,2.829-0.63,4.1-1.37c0.21-1.33,0.38-2.8-0.71-3.81
	C538.22,92.94,536.13,93.26,534.15,93.27z"/>
<path fill="#FAFAFA" d="M406.78,70.51c1.66-0.07,3.33-0.17,4.989-0.27c-0.09,1.04-0.17,2.08-0.229,3.12
	c-2.03,1.05-4.08,2.14-6.35,2.51C405.67,74.07,406.24,72.3,406.78,70.51z"/>
<path fill="#FAFAFA" d="M581.5,69.53c5.45-1.37,7.93,4.439,10.6,7.979C588.67,74.72,584.25,73.05,581.5,69.53z"/>
<path d="M608.8,72.02c1.59-0.55,2.11,0.03,1.58,1.72C608.76,74.24,608.23,73.67,608.8,72.02z"/>
<path fill="#FAFAFA" d="M432.47,75.98c4.88-1.05,9.971-0.5,14.92-0.36c-1.409,1.45-3.55,0.92-5.34,1.02
	C438.85,76.49,435.56,77.02,432.47,75.98z"/>
<path fill="#FAFAFA" d="M532.45,75.1c2.689-2.73,2.56,4.03-0.05,1.64C532.41,76.33,532.44,75.51,532.45,75.1z"/>
<path d="M468.52,85.45c-2.229-2.99-0.17-6.36,1.25-9.16c2.601,2.8,5.521,5.6,5.11,9.79C472.89,87.39,469.6,88.43,468.52,85.45z"/>
<path fill="#FAFAFA" d="M626.55,80.38c1.79-1.27,3.67-2.42,5.7-3.28c0.01,1.09,0.04,2.17,0.08,3.25
	C630.4,80.39,628.47,80.43,626.55,80.38z"/>
<path fill="#FAFAFA" d="M596.01,84.01c-1.09-1.26-0.51-2.95-0.49-4.43c2.95,4.67,7.19,8.51,9.461,13.57
	c1.76,0.39,3.47,0.97,5.149,1.63c-2.439,2.54-4.81,5.89-8.83,4.91c0.07-1.93,0.271-3.87,0.84-5.73
	C600.19,90.58,598.16,87.26,596.01,84.01z"/>
<path d="M554.07,81.25c1.649,0.69,0.1,4.52-1.67,3.46C551.58,83.46,552.59,81.42,554.07,81.25z"/>
<path d="M483.69,94.57c1.75-2.87,2.34-8.08,6.479-8.2c2.59,1.64,0.311,4.64,0.16,6.96C488.11,93.74,485.91,94.25,483.69,94.57z"/>
<path fill="#FAFAFA" d="M522.21,88.67c1.59-0.88,3.12,2.02,1.64,2.96C522.12,92.56,520.78,89.71,522.21,88.67z"/>
<path fill="#FAFAFA" d="M526.51,90.23c4.16-1.14,2.96,3.64,1.4,5.62C527.4,93.98,526.94,92.11,526.51,90.23z"/>
<path fill="#FAFAFA" d="M509.05,91.67c1.62-1.32,2.63,1.5,1.38,2.45C508.85,95.52,507.59,92.56,509.05,91.67z"/>
<path fill="#FAFAFA" d="M463.09,93.55c1.101-0.04,3.311-0.1,4.41-0.14c1.16,2.48,1.23,5.22,1.23,7.91
	C465.21,100.19,462.77,97.35,463.09,93.55z"/>
<path d="M477.18,97.11c1.811-1.08,3.61-2.16,5.41-3.26c0.01,1.66-0.01,3.33-0.04,4.99C480.75,98.28,478.97,97.68,477.18,97.11z"/>
<path d="M534.15,93.27c1.979-0.01,4.069-0.33,5.93,0.59c1.09,1.01,0.92,2.48,0.71,3.81c-1.271,0.74-2.64,1.19-4.1,1.37
	C535.24,97.36,533.71,95.69,534.15,93.27z"/>
<path fill="#FAFAFA" d="M620.99,99.1c2.17-1.41,4.399-2.72,6.67-3.95c0.75,1.73,1.55,3.44,2.359,5.16
	C626.95,100.28,623.71,100.93,620.99,99.1z"/>
<path fill="#FAFAFA" d="M509.14,98.39c1.391-1.1,3.33,1.26,1.771,2.29C509.5,101.72,507.58,99.45,509.14,98.39z"/>
<path fill="#FAFAFA" d="M580.7,99.96c2.56-0.73,4.88-2.13,7.479-2.77c3,1.49-0.35,4.29-0.87,6.41c-1.449-0.07-2.89-0.16-4.319-0.27
	C582.14,102.26,581.43,101.1,580.7,99.96z"/>
<path fill="#FAFAFA" d="M526.14,99.32c3.021,3.47,6.17,7.28,6.521,12.07c1.63,0.9,4.04,1.21,4.51,3.35
	c0.98,2.01-0.229,3.93-1.41,5.52c-0.25-1.77-0.359-3.55-0.439-5.33c-1.46-1.17-3.2-2.14-4.15-3.81
	C529.08,107.38,526.11,103.84,526.14,99.32z"/>
<path fill="#FAFAFA" d="M602.09,104.09c1.891-1.53,3.69-3.24,5.891-4.34c3.39-0.25,6.8-0.08,10.199-0.23
	c0.25,1.33,0.521,2.65,0.811,3.98c1.63,0.01,3.27,0,4.91,0c-0.11,0.46-0.341,1.37-0.45,1.83c-2.04,0.67-4.03,1.52-5.83,2.68
	c0.95-1.729,0.96-3.7,1.02-5.62c-3.12-0.38-5.899,0.94-8.399,2.64c-0.38-1.43-0.75-2.86-1.11-4.29c-1.46,1.42-2.57,3.13-3.56,4.9
	C604.4,105.12,603.24,104.6,602.09,104.09z"/>
<path fill="#FAFAFA" d="M470.46,104.02c-0.36-2.02,1.69-3.03,2.76-4.37c1.261,1.78,1.391,3.93,1.561,6.04
	C473.4,105.35,470.14,106.42,470.46,104.02z"/>
<path fill="#FAFAFA" d="M479.39,104.43c0.57-0.04,1.71-0.14,2.29-0.19c-0.33,2.67-0.56,5.46,0.86,7.89
	c-0.73,0.45-2.2,1.36-2.94,1.82C477.76,111.08,480.02,107.64,479.39,104.43z"/>
<path fill="#FAFAFA" d="M614.47,106.44c2.471,0.63-0.359,4.13-1.899,2.59C611.6,107.79,613.09,106.13,614.47,106.44z"/>
<path fill="#FAFAFA" d="M602.73,113.12c-0.971-2.21-1.391-4.59-0.15-6.79c2.05,0.21,4.08,0.55,5.96,1.47
	C606.61,109.58,604.64,111.33,602.73,113.12z"/>
<path fill="#FAFAFA" d="M432.57,109.5c1.76-1.9,5.01-1.31,6.689,0.42c-2.46,1.46-4.75,3.16-7.21,4.58
	c-2.08,0.19-4.18,0.03-6.24-0.15C428.09,112.77,430.5,111.36,432.57,109.5z"/>
<path fill="#FAFAFA" d="M440.57,108.48c2.199-0.05,4.41-0.06,6.63-0.08c0.899,1.68,1.83,3.35,2.729,5.03
	c2.851-0.04,5.7,0.09,8.54,0.3c0.79,4.13-0.58,9.25-4.72,10.99c-3.82-0.18-7.01-3.319-9.77-5.65c1.06-1.48,2.85-2.19,4.26-3.3
	c-2.79-0.04-5.42-0.95-8.12-1.5C440.33,112.35,440.45,110.41,440.57,108.48 M453.57,118.48c-0.101,1.22-0.2,2.45-0.29,3.67
	c1-1.271,2.04-2.53,3.08-3.771C455.66,118.4,454.26,118.45,453.57,118.48z"/>
<path fill="#FAFAFA" d="M450.13,109.27c0.98-0.55,3.601-0.03,2.46,1.51C451.39,112.8,447.41,110.68,450.13,109.27z"/>
<path d="M396.4,110.96c1.06-1.65,3.279,0.34,2.14,1.74C397.51,114.41,395.28,112.33,396.4,110.96z"/>
<path fill="#FAFAFA" d="M582.01,111.81c2.57-1.76,6.79-2.44,7.9,1.25c-0.75,0.43-2.24,1.29-2.98,1.72
	C585.3,113.75,583.65,112.77,582.01,111.81z"/>
<path fill="#FAFAFA" d="M610.18,112.46c0.94-0.56,3.301,0.04,2.301,1.48C611.32,115.6,607.58,113.72,610.18,112.46z"/>
<path fill="#FAFAFA" d="M418.32,114.24c1.609,0.08,3.239,0.14,4.85,0.31c2.47,0.15,3.771,3.51,6.37,3.06
	c1.09-0.74,2.16-1.51,3.2-2.33c-0.101,1.36-0.2,2.72-0.28,4.09c-4.61,1.28-9.77,1.649-14.1-0.69
	C418.33,117.2,418.32,115.72,418.32,114.24z"/>
<path fill="#FAFAFA" d="M479.26,114.4c1.17-0.02,2.34-0.03,3.521-0.05c-0.08,0.55-0.24,1.67-0.32,2.22
	c-0.97-0.02-1.95-0.04-2.91-0.05C479.48,115.99,479.33,114.93,479.26,114.4z"/>
<path fill="#FAFAFA" d="M507.96,122.72c-2.729-2.99-0.85-7.01,0.06-10.33C509.31,115.77,509.91,119.45,507.96,122.72z"/>
<path fill="#FAFAFA" d="M439.63,117.63c1.05-0.65,1.96-2.04,3.37-1.71c0.09,0.79,0.28,2.37,0.37,3.16c-2.46,1.25-5.38,1.16-8,0.43
	c0.13-1.16,0.26-2.33,0.399-3.49C437.07,116.51,438.35,117.06,439.63,117.63z"/>
<path fill="#FAFAFA" d="M603.38,121.17c3.12-1.63,5.351-4.67,8.74-5.83c0.479,0.28,1.439,0.83,1.93,1.1
	c-3.47,2.46-6.55,5.419-10.08,7.77c-1.979,0.431-4.02,0.31-6.02,0.37C597.91,121.27,601.02,121.63,603.38,121.17z"/>
<path fill="#FAFAFA" d="M531.58,126.32c-1.561-3.271-2.97-6.811-1.82-10.47C531.64,119.05,531.96,122.71,531.58,126.32z"/>
<path fill="#FAFAFA" d="M615.06,118.51c2.4-0.74,5.311-1.89,7.28,0.45c-1.74,1.17-3.52,2.26-5.439,3.101
	C616.3,120.87,615.66,119.7,615.06,118.51z"/>
<path d="M453.57,118.48c0.689-0.03,2.09-0.08,2.79-0.1c-1.04,1.24-2.08,2.5-3.08,3.771C453.37,120.93,453.47,119.7,453.57,118.48z"
	/>
<path fill="#FAFAFA" d="M460.35,118.34c2.11,0.09,4.221,0.2,6.33,0.24c-0.029,0.91-0.1,2.73-0.14,3.64
	c-2.25,0.33-4.41,1.021-6.61,1.54c0.521,1.021,1.051,2.04,1.59,3.07c3.141,0.07,5.25-2.391,7.62-4.061
	c3.88,4.57,6.73,9.931,9.351,15.291c-0.26,0.47-0.8,1.409-1.061,1.879c-7.12-3.979-14.43-7.989-20.239-13.81
	C458.14,123.49,459.1,120.859,460.35,118.34z"/>
<path fill="#FAFAFA" d="M516.65,124.79c-0.561-2.63,0.149-5.31,1.21-7.72c2.93,3.62,4.479,8.43,2.33,12.87
	C518.99,128.23,517.73,126.58,516.65,124.79z"/>
<path fill="#FAFAFA" d="M511.31,120.49c2.08,0.5,0.54,4.65-0.67,5.199C510.37,124.08,510.02,121.72,511.31,120.49z"/>
<path fill="#FAFAFA" d="M625.76,121.77c1.271-0.17,2.55-0.33,3.84-0.479c-0.01,0.69-0.05,2.069-0.06,2.76
	C628.06,123.65,626.7,123.01,625.76,121.77z"/>
<path fill="#FAFAFA" d="M590.02,127.3c1.54-1.04,3.021-2.149,4.49-3.3c-0.06,1.52-0.12,3.04-0.18,4.561
	c1.77-0.211,3.56-0.36,5.36-0.521c-0.561,1.16-1.101,2.33-1.62,3.5c4.08-0.229,8.17-0.021,12.239,0.25
	c-3.329,1.649-6.97,1.64-10.6,1.7c-2.77,1.84-5.21,4.51-5.55,7.97c-0.9,0.021-1.79,0.05-2.67,0.08c0-1.37,0-2.729-0.021-4.101
	c2.101-2,4.181-4.049,6.53-5.789c-1.53-0.5-3.05-0.98-4.6-1.351c0.149-0.92,0.3-1.83,0.46-2.75
	C592.57,127.47,591.29,127.391,590.02,127.3z"/>
<path fill="#FAFAFA" d="M613.83,125.43c3.31,0.271,6.67,0.32,9.63-1.43c0.04,1.5,0.09,2.99,0.14,4.49
	c-2.909,0.13-5.859-0.17-8.699,0.59c-4.08,0.9-8.25-0.07-12.24-0.92C606.38,127.27,610.02,125.87,613.83,125.43z"/>
<path fill="#FAFAFA" d="M501.37,140.58c-0.73-4.67,1.52-8.73,3.82-12.58c0.34,0.47,1.029,1.41,1.369,1.88
	C505.38,133.67,503.54,137.26,501.37,140.58z"/>
<path fill="#FAFAFA" d="M387,133.79c2.11-0.95,4.2-1.97,6.11-3.3c2.77,2.369,6.3,2.04,9.689,1.859c-0.88,1.44-1.87,2.791-2.859,4.15
	c3.119,0.29,6.199,0.91,9.329,1.01c0.69,2.631,2.341,4.641,4.61,6.1c-1.939,0.051-3.89,0.021-5.82,0.11
	c2.671,3.14,6.841,3.83,10.7,4.22c2.65,1.301,4.67,3.541,6.99,5.32c-0.64,0.26-1.92,0.79-2.57,1.051
	c-4.939-1.67-9.54-4.291-14.55-5.791c-2.939-0.41-5.38,1.721-7.95,2.78c2.771,0.28,5.561,0.05,8.33,0.32
	c3.891,1.2,7.021,4.06,10.95,5.2c2.68,0.699,4.96,2.27,7.34,3.63c2.49,0.31,5.15,0.37,7.5-0.67c5.25-1.39,10.8-0.171,15.62,2.13
	c-0.87,0.449-2.6,1.35-3.47,1.8c-2.12-0.68-4.28-1.3-6.521-1.06c0.051,0.64,0.141,1.91,0.19,2.55c2.7-0.011,5.45-0.24,8.13,0.31
	c6.66,1.891,13.66,2.25,20.55,2.11c-1.49-2.431-3.59-4.33-5.78-6.101c3.11,0.141,6.7-1.06,9.311,1.24
	c1.46-0.13,2.939-0.21,4.42-0.31c0.1,0.59,0.21,1.18,0.32,1.78c-1.59,0.229-3.181,0.449-4.73,0.869c-0.18-0.49-0.54-1.49-0.729-1.99
	c-1.38,0.031-2.75,0.08-4.11,0.141c0.16,3.1,2.41,6.939,5.99,6.311c3.649,0.51,5.859-2.841,7.89-5.301
	c1.3,1.141,2.55,2.391,4.14,3.15c1.87,0.09,3.75-0.02,5.631,0.08c-3.16,2.79-7.67-0.45-11.351-0.221
	c0.851,1.271,1.76,2.521,2.681,3.771c-0.69,1.17-1.4,2.34-2.051,3.53c2.4-1.5,4.771-3.34,7.74-3.381c0.23,3.67-1.28,7.08-4.12,9.4
	c-3.33,4.391-9,6.13-12.17,10.63c-2.06,2.561-5.03,4.29-6.53,7.32c2.07-0.01,4.16,0.04,6.23-0.14c1.5-0.971,2.76-2.25,4.13-3.391
	c1.64,2.04,2.41,4.811,4.36,6.561c3.189-1,6.59-1.811,9.59,0.3c2.58-4.64,8.39-5.24,12.83-7.3c2.33,1.25,4.76,0.81,7.05-0.311
	c1.07,0.9,2.17,1.76,3.33,2.551c0.07,0.859-0.19,1.83,0.35,2.58c3.561,0.219,7.181-0.021,10.78,0.14c-1.5-0.95-3.09-1.75-4.66-2.57
	c1.79-3.04,4.351-0.601,6.24,0.84c1.45-0.62,2.9-1.25,4.38-1.84c0.08,1.11,0.22,3.33,0.29,4.44c-2.39,1.77-4.09,4.149-4.72,7.09
	c2.189,0,4.55-0.43,6.47,0.93c-5.47,0.471-10.98,0.11-16.46,0.42c-2.59,0.54-4.96,1.721-7.48,2.46c-2.079,0.74-3.97-0.78-5.85-1.399
	c1.35-0.59,4.2,0.31,4.15-1.92c-3.721-0.78-7.641,1.16-11.32-0.561c-0.01-1.279-0.03-2.57-0.07-3.85
	c3.9,0.149,7.811,0.25,11.71-0.07c-4.739-0.01-9.529-0.42-14.239,0.189c-0.971,1.271-1.65,2.721-2.44,4.091
	c-1.67-0.63-3.32-1.58-5.17-1.4c-3.32-0.09-5.67,3.97-9.11,2.84c-1.399-0.34-2.779-0.72-4.14-1.14c2.56-0.4,5.16-0.48,7.729-0.83
	c-1.699-0.78-3.439-1.46-5.229-2c-0.061-0.97-0.12-1.95-0.17-2.92c-7.57,0.89-15.05-0.79-22.21-3.11c-3.16-1.29-6.67-0.75-9.94-0.27
	c3.271,0.86,6.8,0.05,9.931,1.51c2.38,0.96,4.92,1.351,7.39,2.01c-0.11,1.761-0.16,3.53-0.21,5.3c4.26-2.649,9.55-3.109,14.11-0.869
	c-4.851,3.619-11.591,2.72-17.211,1.84c-3.989-0.01-7.97-0.521-11.949,0.01c2.25,2.54,5.79,1.59,8.76,1.9
	c2.97,0.02,5.7,1.24,8.12,2.859c2.2,0.11,4.41-0.18,6.62-0.229c0.63,4.2-2.44,7.399-5.98,9.11c-4.47,0.709-9.149-0.57-13.51,0.989
	c-5.2,1.75-11.34,0.36-15.91,3.97c3.42,0.37,6.87,0.311,10.311,0.28c2.279-0.78,4.3-2.39,6.84-2.25c-1.84,2.22-4.07,4.05-6.54,5.521
	c1.279,1.63,2.52,3.289,3.729,4.979c-3.02-1.26-7.01-2.649-9.3,0.58c-1.14-0.54-2.3-1.2-3.6-1.11
	c-5.67,0.131-11.25-1.01-16.86-1.649c-3.99-0.9-7.51,2.95-11.44,0.86c-0.149-0.791-0.46-2.351-0.619-3.131
	c5.1-0.5,10.01,1.49,15.069,0.58c5.181-0.74,10.46,0.2,15.63-0.699c-2.75-1.541-5.979-1.67-8.899-2.721
	c-6.96-0.699-14.05,0.6-20.99-0.529c-5.03-1.58-9.84,1.359-14.21,3.479c-0.43-1.97-0.93-3.94-1.09-5.96
	c1.12-0.1,2.24-0.17,3.37-0.21c-0.95,0.489-1.92,0.96-2.891,1.41c0.431,0.829,1.301,2.479,1.74,3.31c3.061-1.22,6.13-2.41,9.311-3.3
	c-3,0.37-5.521-1.06-8.03-2.32c-5.07,0.69-9.931-1.489-13.891-4.439c-3.02-3.91-7.88-5.431-11.63-8.431
	c-2.939-2.3-6.6-3.069-10.16-3.779c-0.56-2.891-1.09-5.851-3.109-8.131c-2.28-2.56-1.601-6.049-2.11-9.149
	c-0.479-2.851-0.49-5.76-0.29-8.64c0.561-3.74,3.03-6.75,4.42-10.181c3.69-9.35,10.431-17.149,13.74-26.68
	c0.72-2.92,4.18-2.82,6.41-3.95c2.74-0.98,4.54-4.21,7.7-3.87c2.239-0.39,3.66,1.591,5.34,2.671
	C389.19,137.891,388.01,135.88,387,133.79 M394,139.77c2.07-0.539,4.98-0.739,5.04-3.51C397.02,136.95,393.97,136.92,394,139.77
	 M372.91,165.48c-1.43,1.58,1.6,2.68,2.479,1.319C376.73,165.17,373.81,164.05,372.91,165.48 M392.57,165.49
	c-1.021,2.13-1.891,4.34-2.24,6.689c-0.59,3.891-2.58,7.34-3.88,11.01c-0.29,5.121-0.03,10.271-0.07,15.4
	c2.59-0.12,5.19-0.17,7.79-0.22c1.44-4.61,4.23-8.61,5.92-13.12c1.97-5.43,8-9.26,7.67-15.49c-1.97,1.561-2.399,4.16-3.76,6.16
	c-3.03,4.689-6.81,9.08-8.24,14.6c-0.66,3.41-3.76,5.351-6.029,7.66c-3.221-5.529-2.841-12.6,0.06-18.16
	c0.97-5.209,2.5-10.34,5.49-14.789C394.6,165.29,393.25,165.42,392.57,165.49 M381.62,168.34c-0.75,6.13-2.68,12.18-1.93,18.42
	c-2-1.119-4.24-1.91-6.381-0.689c1.49,0.279,3,0.479,4.521,0.6c-0.23,2.28-0.45,4.55-0.73,6.83c0.811,0.02,2.431,0.08,3.25,0.109
	c0.601-4.81-0.08-9.67,0.44-14.479c1.17-3.72,2.65-7.34,4.42-10.81C384.01,168.33,382.81,168.33,381.62,168.34 M369.45,179.24
	c2.08,0.27,4.18,0.32,6.28,0.38c0-0.32-0.011-0.979-0.011-1.31C373.6,178.43,371.41,178.32,369.45,179.24 M416.67,181.62
	c-3.34,4.35-5.89,9.41-10.189,12.91c-3.521,5.01-6.421,10.34-9.211,15.76c0.78,0.16,2.341,0.46,3.131,0.62
	c-0.92,2.21-3.11,3.359-4.82,4.87c3.54-0.44,6.36-2.421,8.63-5.07c-2.02-0.14-4.04-0.3-6.02-0.7c1.109-2.65,2.67-5.07,4.88-6.93
	c2.689-2.27,2.63-6.34,5.43-8.55c4.91-4.171,8.18-9.771,12.46-14.521C419.49,180.43,417.76,180.41,416.67,181.62 M449.69,185.6
	c-0.131,0.53-0.41,1.601-0.551,2.131c6.11-1.48,12.431-1.11,18.66-1.16c0.38-1.11,0.76-2.221,1.13-3.33
	C462.69,185.05,456.12,184.939,449.69,185.6 M366.61,190.51c1.56,0.08,3.13,0.11,4.699,0.12c0.62-0.8,1.25-1.6,1.891-2.399
	C370.82,188.391,368.35,188.7,366.61,190.51 M357.45,191.79c2.78,0.89,6.85,1.87,9.13-0.33
	C363.54,191.391,360.46,191.311,357.45,191.79 M372.49,195.9c-1.09,1.35,1.109,3.52,2.14,1.77
	C375.74,196.27,373.58,194.26,372.49,195.9 M412.33,208.83c-1.94,0.57-3.23,2.16-4.62,3.5c3.37,0.17,6.76,0.109,10.14,0.109
	c-1.46-0.67-3.68-1.06-2.64-3.189c6.15-2.109,12.021-5.09,17.43-8.74c1.46-0.68,0.67-2.41,0.771-3.619
	C427.14,202.07,419.92,205.97,412.33,208.83 M359.79,205.82c3.94-2.57,8.54-2.2,12.97-2.83c-2.5-0.49-5.14-0.48-7.399-1.82
	c1.62-1.01,3.3-1.96,4.85-3.1C365.69,198.84,362.52,202.43,359.79,205.82 M499.5,198.99c4.12,0.6,9.1,1.33,12.92,0.08
	c-0.22-0.41-0.66-1.24-0.88-1.65C507.64,198.859,503.46,198.01,499.5,198.99 M522.12,202.41c-0.49,1.55-0.65,3.17-0.61,4.79
	c1.59-1.45,3.12-2.97,4.641-4.5C524.8,202.59,523.46,202.5,522.12,202.41 M453.5,204.35c-1.05,1.73,1.91,2.961,2.86,1.471
	C457.43,204.109,454.42,202.83,453.5,204.35 M507.18,205.96c0.44,4.57,5.46,1.88,8.44,2.601c0-1.041-0.021-3.11-0.021-4.141
	C512.86,204.99,509.04,203.26,507.18,205.96z"/>
<path fill="#FAFAFA" d="M408.3,131.07c2.11,0.43,3.65,1.979,5.15,3.42c-2.13,0.17-4.271,0.189-6.391,0.16
	C407.44,133.45,407.85,132.26,408.3,131.07z"/>
<path fill="#FAFAFA" d="M642.53,131.49c1.989-0.1,3.989-0.18,5.989-0.141c-1.229,2.131-3.489,3.23-5.859,3.461
	C642.61,133.7,642.57,132.6,642.53,131.49z"/>
<path fill="#FAFAFA" d="M612.42,134.689c3.2-1.199,6.53-2.02,9.91-2.6c-0.021,1.37-0.01,2.75,0.01,4.12
	c-1.57,0.771-3.149,1.5-4.67,2.37c3.8,0.71,7.16-1.061,10.2-3.12c2.52,1.89,6.3,0.06,7.89,3.37c3.37-2.09,7.53-0.93,11.29-1.23
	c-2.34,2.431-5.14,4.34-7.649,6.59c1.479-1.739,3.069-3.729,2.13-6.18c-1.84,0.2-3.11,1.67-4.55,2.67
	c-2.511-2.779-5.83-0.17-8.79,0.07c0.079,1.51,0.159,3.01,0.229,4.52c-1.439,0.131-2.86,0.28-4.27,0.5
	c1.979-0.83,4.1-1.709,3.88-4.289c-3.721-0.45-7.221,0.609-9.971,3.129c-4.93-1.959-10.359-0.5-15.51-1.229
	c-0.439,1.29-0.87,2.59-1.27,3.89c-1.23,0.4-2.44,0.83-3.65,1.271c-0.24,0.81-0.72,2.45-0.96,3.271c2.23-0.591,5.23-2.871,7.25-0.78
	c0.87,1.12,3.78,2.13,1.97,3.729c-0.489-1.02-0.97-2.029-1.439-3.05c-2.71,1.28-5.391,3.101-8.51,2.96
	c-3.65-0.26-7.5-0.01-10.73-2.05c-1.33,0.64-2.76,1.06-4.18,1.39c-0.2-0.66-0.59-1.979-0.78-2.63c-1.06,0.84-2.13,1.66-3.2,2.49
	c-1.3-1.03-2.609-2.04-3.92-3.021c5.561-1.899,11.73-3.68,17.5-1.5c2.82,1.12,5.271-1.59,7.811-2.41c-2.2-2.27-5.36-1.129-8.12-1.26
	c-0.021-0.32-0.061-0.949-0.08-1.26c2.819,0.189,5.569-0.189,8.01-1.7c3.58-0.189,7.2-0.13,10.69-1.14
	c3.92,0.76,7.939,1.38,11.939,0.55c-3.05-0.7-6.16-1.43-8.56-3.56C612.35,137.27,612.39,135.98,612.42,134.689z"/>
<path d="M494.95,132.859c0.77,4.69,1.01,9.561,0.28,14.271c-0.421-0.8-1.25-2.399-1.671-3.2
	C494.16,140.26,494.63,136.57,494.95,132.859z"/>
<path fill="#FAFAFA" d="M551.51,134.16c2.521-1.19,5.36-0.561,8.05-0.7c-0.01,0.601-0.029,1.8-0.04,2.399
	c-1.18,0.681-2.38,1.341-3.55,2.021c1.221,2.36,2.8,4.69,2.5,7.5c1.33,0.521,2.681,1.04,4.03,1.56c-1.51,1.16-2.91,2.451-4.47,3.53
	c-2.351,0.07-4.7-0.11-7.04-0.28c1.26-3.14,5.109-4.199,6.83-7.17c0.17-2.09-1.391-2.729-3.141-2.989c0.98-1.7,1.7-3.54,2.351-5.39
	C555.18,134.561,553.33,134.4,551.51,134.16z"/>
<path fill="#FAFAFA" d="M533.95,135.46c0.729-0.06,2.189-0.18,2.91-0.24c0.659,3.771,2.33,7.23,5.6,9.4
	c0.01,1.149,0.03,2.3,0.05,3.45c-1.21-2.04-2.439-4.061-3.93-5.91c-1.7,0.54-3.41,1.029-5.13,1.449
	c0.689,1.671,1.43,3.341,1.95,5.091c-1.19-1.86-2.021-3.9-3.04-5.841c1.52-0.14,3.05-0.31,4.58-0.5
	C536.68,139.78,535.17,137.65,533.95,135.46z"/>
<path d="M394,139.77c-0.03-2.85,3.02-2.819,5.04-3.51C398.98,139.03,396.07,139.23,394,139.77z"/>
<path fill="#FAFAFA" d="M602.56,137.54c1.381-0.09,2.761-0.17,4.15-0.24c-0.09,1.36-0.17,2.72-0.25,4.091
	C605.16,140.1,603.86,138.82,602.56,137.54z"/>
<path fill="#FAFAFA" d="M424.5,140.311c1.19-1.11,2.37-2.211,3.56-3.32c1.41,0.96,2.79,1.99,4.12,3.09
	C429.99,142.38,427.03,140.99,424.5,140.311z"/>
<path fill="#FAFAFA" d="M438.02,140.391c0.461-0.9,1.381-2.701,1.841-3.601c1.279,1.43,2.739,2.79,3.3,4.7
	C441.4,141.34,439.7,140.891,438.02,140.391z"/>
<path fill="#FAFAFA" d="M445.93,140.76c4.23-0.5,8.851-0.64,12.561,1.801c3.91,3.119,6.779,7.26,10.25,10.819
	c-1.62,0.38-3.221,0.771-4.83,1.16c-1.021-1.57-2.07-3.13-3.2-4.61c-0.11,1.03-0.34,3.09-0.45,4.12
	c-3.12-1.659-6.819-3.03-7.88-6.81c-1.1,0.08-3.3,0.229-4.399,0.3c0.88,1.66,1.819,3.3,2.819,4.899c-2.12-1.08-4.49-1.069-6.8-1.17
	c1.79-1.75,3.47-3.609,5.27-5.34C448.06,144.27,446.9,142.57,445.93,140.76 M454.63,146.46c1.15,2.37,1.4,6.229,5.021,5.45
	c-0.101-1.84-0.19-3.67-0.28-5.5C457.78,146.43,456.2,146.439,454.63,146.46z"/>
<path fill="#FAFAFA" d="M415.75,142.35c1.52,0.15,3.47-0.359,4.46,1.181C418.66,143.42,416.51,144.22,415.75,142.35z"/>
<path fill="#FAFAFA" d="M432.76,143.1c0.82-0.43,2.46-1.3,3.28-1.74c2.33,1.11,4.71,2.24,7.33,2.451
	c0.24,0.899,0.49,1.799,0.76,2.689c-1.68-0.43-3.399-1.05-5.08-0.26c0.96,1.279,1.96,2.529,2.94,3.81
	c-3.311-0.33-6.2-2.01-9.15-3.38c2.061-0.24,4.15-0.279,6.23-0.34C438.61,143.4,434.89,143.95,432.76,143.1z"/>
<path fill="#FAFAFA" d="M586.62,142.34c0.89-1.59,3.88-0.449,2.77,1.35C588.54,145.32,585.48,144.07,586.62,142.34z"/>
<path fill="#FAFAFA" d="M527.45,142.93c1.04,0.601,2.08,1.211,3.149,1.801c0.061,1.83,0.061,3.649,0.021,5.479
	c-1.08-0.86-2.12-1.74-3.18-2.62C527.44,146.04,527.45,144.48,527.45,142.93z"/>
<path d="M511.77,149.23c2.141-1.91,4.061-4.041,6.051-6.11c0.819,0.47,2.46,1.41,3.29,1.88c-2.91,0.8-5.091,2.78-5.44,5.87
	C514.36,150.32,513.07,149.76,511.77,149.23z"/>
<path fill="#FAFAFA" d="M562.69,148.51c4.159,0.45,7.46-2.4,11.13-3.83c-1.801,1.98-3.08,4.301-2.271,7.03
	c-3.479-0.03-6.96,0.021-10.43-0.18C561.51,150.78,562.3,149.27,562.69,148.51z"/>
<path d="M454.63,146.46c1.57-0.021,3.15-0.03,4.74-0.05c0.09,1.83,0.18,3.66,0.28,5.5C456.03,152.689,455.78,148.83,454.63,146.46z"
	/>
<path fill="#FAFAFA" d="M617.51,148.52c2.34,0.011,6.29-2.55,7.38,0.44c-0.739,0.97-1.56,1.87-2.34,2.8
	c-1.79-0.05-3.58-0.09-5.359-0.1C617.3,150.609,617.4,149.561,617.51,148.52z"/>
<path fill="#FAFAFA" d="M628,148.47c1.97-0.01,3.95-0.02,5.94-0.02c-0.011,4.79-5.311,2.93-8.37,3.14
	C626.18,150.811,627.39,149.25,628,148.47z"/>
<path fill="#FAFAFA" d="M363.16,153.05c0.979-1.13,1.939-2.3,2.899-3.46c-0.319,2.471-0.46,5.11-2.279,7.03
	C363.63,155.73,363.31,153.95,363.16,153.05z"/>
<path fill="#FAFAFA" d="M534.66,149.57c0.95,1.49,1.72,3.09,2.41,4.74c-0.69,0.1-2.07,0.299-2.761,0.399
	C534.39,152.99,534.48,151.28,534.66,149.57z"/>
<path fill="#FAFAFA" d="M526.42,151.34c2.36,0.6-0.53,4.17-1.99,2.74C523.56,152.78,524.99,151.1,526.42,151.34z"/>
<path fill="#FAFAFA" d="M429.32,151.45c2.199,1.47,4.729,2.69,6.13,5.06c-2.24,0.221-4.3-0.439-6.101-1.75
	C429.34,153.93,429.33,152.28,429.32,151.45z"/>
<path d="M506.23,151.2c2.26-0.021,3.5,1.12,3.479,3.409c-0.84,0.021-2.53,0.051-3.37,0.061
	C506.31,153.811,506.26,152.07,506.23,151.2z"/>
<path fill="#FAFAFA" d="M608.63,152.38c3.3,0.17,6.521,1.04,9.69,1.95C614.91,155.13,611.29,154.84,608.63,152.38z"/>
<path fill="#FAFAFA" d="M545.31,154.91c2.101-2.08,5.11-1.301,7.75-1.33c-1.01,2.55-2.29,4.99-4.189,6.98
	C547.71,158.66,546.77,156.609,545.31,154.91z"/>
<path fill="#FAFAFA" d="M558.88,154.46c3.64-0.01,7.34-0.351,10.92,0.54c-3.13,0.47-6.04,1.66-8.939,2.85
	C560.36,157,559.37,155.311,558.88,154.46z"/>
<path fill="#FAFAFA" d="M498.47,155.061c2.87-2.91,2.8,4.609-0.029,1.85C498.45,156.45,498.46,155.53,498.47,155.061z"/>
<path fill="#FAFAFA" d="M529,154.37c1.5,0.31,2.98,0.739,4.47,1.16c0.08,1.18,0.17,2.35,0.271,3.53
	C531.94,157.7,529.01,157.09,529,154.37z"/>
<path fill="#FAFAFA" d="M537.22,155.75c1.82-0.55,3.63-1.13,5.471-1.68c-0.07,0.899-0.221,2.699-0.29,3.609
	c1.119-0.74,2.33-1.99,3.479-0.539c0.26,0.829,0.79,2.5,1.05,3.34C543.34,161.15,536.92,160.54,537.22,155.75z"/>
<path fill="#FAFAFA" d="M569.8,155.28c1.57,0.06,3.141,0.11,4.73,0.17c-1.65,1.64-3.271,3.319-4.84,5.03
	c1.84,0.02,3.68,0.01,5.54,0.039c-0.631,1.5-1.32,3.101-2.87,3.83c-2.65,0.211-5.311,0.12-7.96,0.221
	C566.08,161.32,570.15,159.359,569.8,155.28z"/>
<path fill="#FAFAFA" d="M576.28,155.42c1.31-0.05,2.63-0.1,3.95-0.15c-0.641,1.061-1.28,2.121-1.9,3.2
	c-0.811,0.05-2.43,0.14-3.24,0.181C575.47,157.57,575.86,156.49,576.28,155.42z"/>
<path fill="#FAFAFA" d="M574.99,163.859c3.8-2.959,6.92-7.06,11.42-8.969c-1.58,2.479-3.67,4.569-5.641,6.729
	c3.37,0.11,6.69-0.46,9.94-1.351c-0.09,1.371-0.11,2.74-0.31,4.101c-4.36,1.6-9.19,1.521-13.761,2.399
	C576.23,166.04,575.4,164.59,574.99,163.859z"/>
<path fill="#FAFAFA" d="M551.43,158.58c1.471-0.439,2.92-1.13,4.48-1.221c1.729,0.721,3.35,1.671,5.06,2.451
	c1.55-0.25,3.11-0.431,4.69-0.57c-1.33,4.38-5.74,6.81-7.3,11.13c-2.32,0.239-4.54,0.92-6.78,1.46c-0.41-1.21-0.8-2.42-1.19-3.63
	c-1.96,1.489-4.25,2.31-6.68,2.54c-2.479,1.42-4.01,3.979-6.35,5.56c-2.771,1-5.721,1.431-8.42,2.591
	c-1.21,1.319-2.08,2.89-3.011,4.409c-4.149,0.61-8.149,0.04-11.76-2.12c0.07-0.699,0.21-2.08,0.29-2.77c2.39-0.03,4.8,0,7.2,0.07
	c-0.061-1.041-0.13-2.07-0.19-3.101c4.87,0.14,10.12,0.96,14.16-2.44c-2.24-3.02-4.93-0.279-7.21,1.03
	c0.03-1.189,0.07-2.38,0.11-3.569c2.64,0,5.279,0.069,7.93,0.289c-0.47-3.069,0.93-5.76,2.41-8.33c3.25-0.1,6.59,0.431,9.18,2.551
	c1.04-0.58,2.09-1.17,3.141-1.76c0.6,1,1.189,2,1.79,3.02c0.84-1.26,1.17-3.311,3.029-3.39c1.46,0.56,2.141,2.069,3.11,3.2
	c0.21-1.561,0.45-3.11,0.729-4.65c-2.92-0.16-5.83,0.07-8.39,1.63C551.45,161.859,551.44,159.67,551.43,158.58z"/>
<path fill="#FAFAFA" d="M610.41,160.3c2.8-1.06,5.82-0.81,8.75-0.84c0.41,0.71,1.22,2.14,1.62,2.851
	c-2.66,0.699-5.33,1.369-7.891,2.359c-0.89-0.63-1.76-1.25-2.64-1.859C610.29,162.18,610.37,160.92,610.41,160.3z"/>
<path fill="#FAFAFA" d="M527.87,168.32c2.97-2.811,5.32-7.221,9.97-7.19C536.69,165.77,531.8,166.98,527.87,168.32z"/>
<path fill="#FAFAFA" d="M591.06,162.53c3.86-0.24,8.53-0.311,11.351,2.78C598.4,165.83,593.83,166.15,591.06,162.53z"/>
<path d="M372.91,165.48c0.899-1.431,3.82-0.311,2.479,1.319C374.51,168.16,371.48,167.061,372.91,165.48z"/>
<path d="M392.57,165.49c0.68-0.07,2.029-0.2,2.71-0.26c-2.99,4.449-4.521,9.58-5.49,14.789c-2.9,5.561-3.28,12.631-0.06,18.16
	c2.27-2.31,5.369-4.25,6.029-7.66c1.431-5.52,5.21-9.91,8.24-14.6c1.36-2,1.79-4.6,3.76-6.16c0.33,6.23-5.7,10.061-7.67,15.49
	c-1.689,4.51-4.479,8.51-5.92,13.12c-2.6,0.05-5.2,0.1-7.79,0.22c0.04-5.13-0.22-10.279,0.07-15.4c1.3-3.67,3.29-7.119,3.88-11.01
	C390.68,169.83,391.55,167.62,392.57,165.49z"/>
<path fill="#FAFAFA" d="M562.31,167.35c2.82-0.109,5.65,0.11,8.471,0.15c-1,1.52-1.87,4.141-4.11,4.02
	c-2.18,0.131-4.37,0.17-6.55,0.19C560.38,170.09,560.29,167.8,562.31,167.35z"/>
<path fill="#FAFAFA" d="M568.94,172.62c0.43-3.13,3.699-5.55,6.819-5.24c3.471,0.011,6.91,0.63,10.271,1.49
	C580.84,171.891,574.88,172.79,568.94,172.62z"/>
<path d="M381.62,168.34c1.189-0.01,2.39-0.01,3.59-0.02c-1.77,3.47-3.25,7.09-4.42,10.81c-0.521,4.81,0.16,9.67-0.44,14.479
	c-0.819-0.029-2.439-0.09-3.25-0.109c0.28-2.28,0.5-4.55,0.73-6.83c-1.521-0.12-3.03-0.32-4.521-0.6
	c2.141-1.221,4.381-0.43,6.381,0.689C378.94,180.52,380.87,174.47,381.62,168.34z"/>
<path fill="#FAFAFA" d="M614.51,168.6c2.36-0.029,4.73-0.119,7.101-0.209c0,1.079,0.01,2.159,0.04,3.239
	c-2.36-0.09-4.721-0.14-7.07-0.17C614.56,170.5,614.53,169.55,614.51,168.6z"/>
<path fill="#FAFAFA" d="M628.63,168.53c2.76,0.939,5.601,1.659,8.42,2.479c-2.79,1.04-5.71,1.51-8.68,1.28
	C628.45,171.03,628.53,169.78,628.63,168.53z"/>
<path fill="#FAFAFA" d="M581.51,173.311c2.69-0.92,4.16-3.551,6.471-5.021c2.1,0.149,3.68,1.88,5.529,2.74
	c-5.569,3.579-11.87,6.97-18.689,6.399c-0.641-0.35-1.91-1.039-2.551-1.38C574.95,174.04,578.4,174.13,581.51,173.311z"/>
<path fill="#FAFAFA" d="M523.8,170.1c1.67-0.539,2.271-0.02,1.811,1.561C523.87,172.17,523.27,171.65,523.8,170.1z"/>
<path fill="#FAFAFA" d="M592.98,173.859c2.279-1.369,4.05,1.451,5.909,2.341c-3.31,1.35-6.88,1.7-10.42,1.33
	C589.76,176.07,591.14,174.62,592.98,173.859z"/>
<path fill="#FAFAFA" d="M541.01,177.4c1.67-1.681,3.86-2.211,6.17-1.83C546.12,178.23,543.25,177.65,541.01,177.4z"/>
<path fill="#FAFAFA" d="M546.17,179.439c0.49-1.489,1-2.959,1.55-4.43c1.141,0.94,2.271,1.91,3.41,2.87
	c1.28-0.58,2.561-1.2,3.86-1.76c-0.26,1.021-0.53,2.03-0.83,3.04C551.61,180.05,548.81,179.53,546.17,179.439z"/>
<path fill="#FAFAFA" d="M626.06,176.55c2.4-1.63,5.24-1.19,7.681,0.11c-0.41,0.689-1.25,2.08-1.66,2.77
	c-1.49,0.11-2.97,0.23-4.45,0.37C627.24,178.99,626.45,177.37,626.06,176.55z"/>
<path d="M369.45,179.24c1.96-0.92,4.149-0.811,6.27-0.93c0,0.33,0.011,0.989,0.011,1.31C373.63,179.561,371.53,179.51,369.45,179.24
	z"/>
<path fill="#FAFAFA" d="M537.27,179.82c0.08-0.7,0.25-2.09,0.33-2.78c1.67,0.7,3.341,1.42,5.011,2.17
	C540.83,179.48,539.05,179.65,537.27,179.82z"/>
<path d="M416.67,181.62c1.09-1.21,2.82-1.19,4.29-1.61c-4.28,4.75-7.55,10.35-12.46,14.521c-2.8,2.21-2.74,6.28-5.43,8.55
	c-2.21,1.859-3.771,4.279-4.88,6.93c1.979,0.4,4,0.561,6.02,0.7c-2.27,2.649-5.09,4.63-8.63,5.07c1.71-1.511,3.9-2.66,4.82-4.87
	c-0.79-0.16-2.351-0.46-3.131-0.62c2.79-5.42,5.69-10.75,9.211-15.76C410.78,191.03,413.33,185.97,416.67,181.62z"/>
<path fill="#FAFAFA" d="M585.44,182.65c4.29,0.31,8.26-1.69,12.5-2.03c5.35-0.42,10.699-1.41,16.1-0.851
	c-4.47,2.42-9.21,4.9-14.42,4.84c-2.79-0.01-5.51,0.57-8.26,0.91c-0.03,0.74-0.101,2.23-0.141,2.971
	c-3.89,0.08-7.83,0.199-11.67-0.521c3.811-0.59,7.681-0.53,11.521-0.489c0.26-3.711-3.32-2.78-5.79-2.99
	C585.32,184.03,585.4,183.109,585.44,182.65z"/>
<path fill="#FAFAFA" d="M619.13,182.359c2.42-1.35,5.25-0.89,7.89-0.75c-5.159,2.65-10.649,4.591-15.789,7.291
	C613.68,186.51,615.66,183.359,619.13,182.359z"/>
<path fill="#FAFAFA" d="M561.93,186.41c1.5-1.07,2.98-2.18,4.42-3.34c0.101,1.229,0.2,2.46,0.32,3.699
	C565.08,186.66,563.5,186.54,561.93,186.41z"/>
<path fill="#FAFAFA" d="M629.45,185.62c2.109-0.91,4.319-1.59,6.46-2.431c-2.73,3.591-6.83,5.311-10.78,7.16
	C626.62,188.82,627.74,186.92,629.45,185.62z"/>
<path d="M449.69,185.6c6.43-0.66,13-0.55,19.239-2.359c-0.37,1.109-0.75,2.22-1.13,3.33c-6.229,0.05-12.55-0.32-18.66,1.16
	C449.28,187.2,449.56,186.13,449.69,185.6z"/>
<path fill="#FAFAFA" d="M541.44,187.07c-0.881-2.24,2.359-1.74,3.59-1.851c1.76,0.021,3.51,0.271,5.26,0.561
	C547.74,187.48,544.3,188.33,541.44,187.07z"/>
<path fill="#FAFAFA" d="M571.2,185.35c0.66-0.029,1.979-0.09,2.64-0.119c-0.05,0.619-0.14,1.85-0.18,2.47
	c-0.51-0.08-1.521-0.25-2.021-0.33C571.53,186.87,571.31,185.859,571.2,185.35z"/>
<path d="M366.61,190.51c1.739-1.81,4.21-2.119,6.59-2.279c-0.641,0.8-1.271,1.6-1.891,2.399
	C369.74,190.62,368.17,190.59,366.61,190.51z"/>
<path fill="#FAFAFA" d="M529.51,189.18c2.87-2.84,2.95,4.551,0,1.811C529.51,190.53,529.51,189.63,529.51,189.18z"/>
<path fill="#FAFAFA" d="M629.25,198.91c3.7-4.18,8.73-6.68,13.94-8.45c0.859,0.01,2.59,0.05,3.46,0.07
	c-2.12,2.729-5.86,2.61-8.551,4.46c-3.21,2.14-6.449,4.25-9.989,5.79c-0.801-1.04-1.601-2.07-2.4-3.101
	c-1.83,1.061-3.59,2.211-5.39,3.301c0.069-0.53,0.22-1.601,0.29-2.131c2.479-0.959,4.54-2.649,6.46-4.449
	C626.93,196.22,627.92,197.75,629.25,198.91z"/>
<path d="M357.45,191.79c3.01-0.479,6.09-0.399,9.13-0.33C364.3,193.66,360.23,192.68,357.45,191.79z"/>
<path fill="#FAFAFA" d="M548.01,193.77c1.46-0.869,2.92-1.75,4.37-2.64c-0.479,1.479-0.92,2.979-1.33,4.49
	c-4.25-1.12-8.08,0.96-11.42,3.39c2.48,3.43,5.18-1.22,8.22-0.65c2.71,0,1.24,3.621,1.79,5.36c-2.38-0.34-4.8-0.2-7.159-0.59
	c-2.301-1.08-4.49-2.399-6.54-3.899c-1.23,0.55-2.431,1.119-3.65,1.68c0.02-0.641,0.04-1.93,0.05-2.57c1.88,0.1,3.76,0.25,5.66,0.19
	c2.81-1.271,5.04-3.53,7.12-5.771C546.08,193.109,547.04,193.439,548.01,193.77z"/>
<path fill="#FAFAFA" d="M569.39,191.24c4.65,0.9,9.351,1.52,14.011,2.39c0.08,0.56,0.229,1.681,0.31,2.24
	c-4.6-1.79-9.5-2.479-14.41-2.41C569.32,192.9,569.37,191.79,569.39,191.24z"/>
<path d="M372.49,195.9c1.09-1.641,3.25,0.369,2.14,1.77C373.6,199.42,371.4,197.25,372.49,195.9z"/>
<path fill="#FAFAFA" d="M551.61,196.48c1.1-0.09,2.21-0.181,3.33-0.261c-0.53,1.061-1.07,2.12-1.58,3.19
	c-0.54,0.13-1.61,0.38-2.15,0.51C551.34,198.77,551.47,197.62,551.61,196.48z"/>
<path d="M412.33,208.83c7.59-2.86,14.81-6.76,21.08-11.939c-0.101,1.209,0.689,2.939-0.771,3.619
	c-5.409,3.65-11.279,6.631-17.43,8.74c-1.04,2.13,1.18,2.52,2.64,3.189c-3.38,0-6.77,0.061-10.14-0.109
	C409.1,210.99,410.39,209.4,412.33,208.83z"/>
<path d="M359.79,205.82c2.729-3.391,5.9-6.98,10.42-7.75c-1.55,1.14-3.229,2.09-4.85,3.1c2.26,1.34,4.899,1.33,7.399,1.82
	C368.33,203.62,363.73,203.25,359.79,205.82z"/>
<path d="M499.5,198.99c3.96-0.98,8.14-0.131,12.04-1.57c0.22,0.41,0.66,1.24,0.88,1.65C508.6,200.32,503.62,199.59,499.5,198.99z"/>
<path fill="#FAFAFA" d="M559.58,198.52c5.83,0.32,11.56-1.3,17.38-0.75c0.25,0.311,0.75,0.95,1,1.271
	c-1.9,1.66-3.93,3.149-5.85,4.771C567.91,202.17,562.13,202.891,559.58,198.52z"/>
<path fill="#FAFAFA" d="M582.55,198.5c1.51-0.34,3.07-0.02,4.61,0.04c-2.48,2.24-5.44,3.899-8.82,4.24
	C579.64,201.26,580.98,199.76,582.55,198.5z"/>
<path fill="#FAFAFA" d="M553.39,199.78c2.45,1.05,4.86,2.229,7.12,3.68c-1.93,0.08-3.859,0.03-5.779-0.01
	C554.28,202.22,553.83,201,553.39,199.78z"/>
<path d="M522.12,202.41c1.34,0.09,2.68,0.18,4.03,0.29c-1.521,1.53-3.051,3.05-4.641,4.5C521.47,205.58,521.63,203.96,522.12,202.41
	z"/>
<path d="M453.5,204.35c0.92-1.52,3.93-0.24,2.86,1.471C455.41,207.311,452.45,206.08,453.5,204.35z"/>
<path d="M507.18,205.96c1.86-2.7,5.681-0.97,8.42-1.54c0,1.03,0.021,3.1,0.021,4.141C512.64,207.84,507.62,210.53,507.18,205.96z"/>
<path fill="#FAFAFA" d="M537.24,206.33c1.17-0.02,2.359-0.04,3.55-0.061c0,0.36,0.01,1.101,0.01,1.471
	c-1.2-0.03-2.399-0.051-3.59-0.07C537.22,207.34,537.23,206.66,537.24,206.33z"/>
<path fill="#FAFAFA" d="M563.87,212.939c1.46-3.709,5.439-4.689,9.02-5.069C569.97,209.71,567.26,212.02,563.87,212.939z"/>
<path fill="#FAFAFA" d="M356.89,208.4c3.04,3.439,5.38,7.52,9.19,10.229c-1.82,0.011-3.63-0.03-5.45,0
	c-0.76-0.83-1.5-1.649-2.24-2.479c-1.05,0.229-2.09,0.459-3.13,0.699C355.07,213.92,355.75,211.07,356.89,208.4z"/>
<path fill="#FAFAFA" d="M576.41,216.92c3.02-3.54,6.649-7.74,11.689-7.74C584.41,212.05,580.52,214.689,576.41,216.92z"/>
<path fill="#FAFAFA" d="M473.66,211.641c4.18-0.49,8.54,0.459,12.31-1.9c3.771,0.74,7.561,1.38,11.181,2.699
	c2.939,0.061,6.05-0.109,8.5,1.82c-2.471,0.32-4.96,0.561-7.45,0.471c-1.76-0.061-3.12-1.871-4.96-1.271
	c-3.11,0.32-6.101,2.92-9.221,1.351C480.65,213.46,477,213.02,473.66,211.641z"/>
<path fill="#FAFAFA" d="M361.65,211.189c2.949,0.061,5.34,1.851,7.649,3.48c2.851,2.09,5.97,3.8,8.76,6
	c-3.649-0.23-6.84-2.27-10.159-3.62C365.12,215.98,363.19,213.63,361.65,211.189z"/>
<path fill="#FAFAFA" d="M511.89,213.189c0.99-1.399,3.601,0.07,2.49,1.591C513.43,216.17,510.71,214.65,511.89,213.189z"/>
<path fill="#FAFAFA" d="M590.73,215.75c3.14-0.939,6.199-2.28,9.52-2.47c-3.14,2.069-6.21,4.659-10.19,4.569
	C590.23,217.33,590.56,216.28,590.73,215.75z"/>
<path fill="#FAFAFA" d="M614.61,218.689c2.26-2.459,5.239-3.979,8.159-5.5c-0.21,0.971-0.409,1.951-0.609,2.931
	C619.7,217.15,617.4,218.83,614.61,218.689z"/>
<path fill="#FAFAFA" d="M628.79,213.6c2.84-0.02,5.71-0.119,8.55,0.32c-2.01,0.5-4.13,0.28-6.109,0.811
	c-1.75,0.979-3.41,2.1-5.131,3.129C626.98,216.43,627.91,215.03,628.79,213.6z"/>
<path fill="#FAFAFA" d="M468.02,214.99c0.75-0.43,2.24-1.28,2.99-1.71c2.09,2.159,4.86,2.64,7.73,2.13
	c-0.03,1.109-0.05,2.22-0.061,3.33c-2.68,1.56-5.68,2.08-8.75,1.85c0.431-0.87,0.87-1.74,1.33-2.59
	C470.15,217.03,469.07,216.01,468.02,214.99z"/>
<path fill="#FAFAFA" d="M526.32,216.439c1.84,0.041,3.689,0.041,5.54,0.021c-0.15,0.5-0.471,1.49-0.62,1.99
	c-1.61,0.03-3.221,0.08-4.82,0.159C526.4,218.07,526.34,216.98,526.32,216.439z"/>
<path fill="#FAFAFA" d="M505.53,217.311c6.319,0.01,12.31,2.75,18.68,2.239c-1.41,0.83-2.84,1.62-4.25,2.42
	c1.44,2.79,3.89,1.29,6.01,0.54c4.96,0.41,9.75-1.49,14.721-0.76c-0.021,0.62-0.07,1.87-0.101,2.49c-4.6-0.43-8.77,1.59-12.93,3.199
	c-4.01,0.051-8.29,0.83-11.88-1.409c-2.88,3.04-4.96,8.329-10.021,7.56c1.521-2.939,5.74-3.41,6.29-6.85
	c-1.819-1.311-3.67-2.58-5.53-3.811c-0.3,2.75,0.74,5.95-1.289,8.25c-1.721,0.971-3.601,3.03-5.721,2
	c-4.899-2.22-10.02,0.66-15.02,0.41c1.63-2.109,3.72-3.79,6.01-5.14c0.03-0.63,0.09-1.87,0.12-2.5c-3.021,1.51-5.89,3.409-7.53,6.47
	c-2.57-0.14-5.14-0.07-7.7,0.1c0.021,0.431,0.051,1.301,0.061,1.73c2.16,0.68,4.229,1.59,3.24,4.32
	c-3.421,0.14-6.841,0.199-10.261,0.029c0.7-1.26,1.42-2.5,2.181-3.72c-2.761,2.16-5.79,4.95-9.54,4.511
	c-2.74-0.32-6.011,1.069-8.16-1.221c-1.38-1.33-3.26-1.689-5.04-2.109c4.77-4.721,11.93-5.061,16.91-9.4
	c1.62-1.25,3.779-0.971,5.62-1.67c2.38-0.721,4.569-1.971,6.949-2.69c2.46-0.6,4.391,1.3,6.561,2.03c3.38,0.27,6.899-0.36,10,1.4
	c3.56-2.24,7.46-4.08,11.72-4.41C505.6,219.98,505.56,218.641,505.53,217.311 M511.32,220.5c0.04,2.141,0.04,4.33,1.5,6.08
	c1.13-1.35,2.279-2.68,3.35-4.08c1.38,1.109,2.84,3.04,4.67,1.48c-0.39-0.871-1.18-2.621-1.58-3.5
	C516.62,220.811,513.96,220.689,511.32,220.5 M468.08,229.32c-3.2,0.92-5.42,3.51-8.21,5.149c-2.03,0.2-4.07,0.04-6.09,0.07
	c2.239,0.37,4.5,0.93,6.79,0.89c5.8-2.189,11.21-5.31,17.08-7.359c-0.091-0.48-0.25-1.45-0.341-1.94
	C473.97,226.26,471.19,228.35,468.08,229.32z"/>
<path fill="#FAFAFA" d="M538.9,217.58c4.199-0.38,8.51,0.15,12.149,2.42c-2.16,0.58-4.33,1.95-6.62,1.26
	C542.13,220.85,540.57,219.04,538.9,217.58z"/>
<path fill="#FAFAFA" d="M355.36,218.189c3.109,0.091,5.659,1.791,7.97,3.701c1.21-0.871,2.41-1.791,3.61-2.69
	c6.439,3.479,14.26,3.649,20.159,8.21c-7.199,1.3-13.58-3.15-20.02-5.58c1.12,2.05,1.7,5.16,4.37,5.73
	c6.26,1.569,12.49,3.289,18.56,5.479c-6.01,2.06-12.31,3.319-18.63,3.899c0.54,0.541,1.61,1.61,2.15,2.15
	c6.21,1.391,11.89-2.21,17.35-4.6c0.7,0.359,2.11,1.07,2.82,1.43c-1.271,1.38-2.521,2.77-3.86,4.08h-33.2
	C356.68,232.689,355,225.53,355.36,218.189z"/>
<path fill="#FAFAFA" d="M553.46,223.54c2.68-4,8.19-5.28,12.25-2.479C561.72,222.34,557.53,222.63,553.46,223.54z"/>
<path d="M511.32,220.5c2.64,0.189,5.3,0.311,7.939-0.02c0.4,0.879,1.19,2.629,1.58,3.5c-1.83,1.56-3.29-0.371-4.67-1.48
	c-1.07,1.4-2.22,2.73-3.35,4.08C511.36,224.83,511.36,222.641,511.32,220.5z"/>
<path d="M468.08,229.32c3.11-0.971,5.89-3.061,9.229-3.19c0.091,0.49,0.25,1.46,0.341,1.94c-5.87,2.05-11.28,5.17-17.08,7.359
	c-2.29,0.04-4.551-0.52-6.79-0.89c2.02-0.03,4.06,0.13,6.09-0.07C462.66,232.83,464.88,230.24,468.08,229.32z"/>
<path fill="#FAFAFA" d="M446.6,232.71c1-4.69,7.48-7.08,11.021-3.729C453.92,230.18,450.64,232.85,446.6,232.71z"/>
<path fill="#FAFAFA" d="M567.81,232.68c0.69-1.949,1.94-4.539,4.381-4.369c1.67-0.131,3.329,0.08,5,0.239
	C574.61,231.03,571.54,233,567.81,232.68z"/>
<path fill="#FAFAFA" d="M549.36,229.939c1.62-0.06,3.239-0.119,4.87-0.209c-0.44,1.539-0.79,3.109-1.07,4.699
	c1.47,0.5,2.96,0.961,4.47,1.36c-0.1,0.38-0.32,1.16-0.43,1.55c-0.32-0.02-0.95-0.04-1.271-0.06c-0.62-0.851-1.239-1.7-1.85-2.54
	c-2.15-0.061-4.3-0.07-6.44-0.11c1.9-1.17,5.33-1.41,5.04-4.34C551.85,230.2,550.19,230.03,549.36,229.939z"/>
<path fill="#FAFAFA" d="M536.48,235.439c2.3-1.549,4.739-2.899,7.02-4.5c0.04,1.16,0.1,2.32,0.16,3.49
	C541.28,234.859,538.92,235.55,536.48,235.439z"/>
<path fill="#FAFAFA" d="M399.33,232.72c2.65,0.98,5.27,2.05,7.86,3.2c-3.69,2.15-7.61,4.05-11.98,4.08h-2.11
	c0.87-1.21,1.69-2.46,2.521-3.71c1.32,0.11,2.64,0.229,3.97,0.34C399.5,235.33,399.41,234.02,399.33,232.72z"/>
<path fill="#FAFAFA" d="M514.3,236.28c1.99-0.9,4.04-1.671,6.181-2.19c0.079,0.66,0.25,1.96,0.34,2.61
	C518.64,236.57,516.46,236.48,514.3,236.28z"/>
<path fill="#FAFAFA" d="M409.87,240c1.91-1.48,3.54-3.28,5.49-4.71c1.81-0.22,3.46,0.75,5.149,1.24c2.641,1.01,5.521,0.89,8.29,1.25
	c-1.83,0.77-3.67,1.51-5.52,2.22H409.87z"/>
<path fill="#FAFAFA" d="M480.47,235.609c1.9-0.31,3.83-0.31,5.761-0.279c-0.771,2.779-3.301,3.68-5.94,3.4
	C480.33,237.95,480.42,236.391,480.47,235.609z"/>
<path fill="#FAFAFA" d="M488.78,235.47c5.069-0.18,10.16-0.14,15.229-0.02c-0.27,2-2.33,3.1-4.2,3.13
	c-3.199,0.07-6.399,0-9.59-0.221C489.69,237.41,489.21,236.45,488.78,235.47z"/>
<path fill="#FAFAFA" d="M504.86,238.391c2.109-1.641,4.319-3.32,7.12-3.311c-0.471,1.189-0.971,2.37-1.48,3.55
	C508.62,238.609,506.73,238.55,504.86,238.391z"/>
<path fill="#FAFAFA" d="M560.28,235.34c1.529,0.01,3.06,0.03,4.6,0.07c-0.22,0.47-0.66,1.42-0.88,1.89
	c-1.12,0.05-2.22,0.101-3.33,0.16C560.58,236.93,560.38,235.87,560.28,235.34z"/>
<path fill="#FAFAFA" d="M569.21,235.16c1.41,0.14,2.83,0.29,4.26,0.449c-1.38,0.781-2.77,1.551-4.14,2.341
	C569.3,237.26,569.24,235.859,569.21,235.16z"/>
<path fill="#FAFAFA" d="M529.42,240c1.95-1.83,4.26-3,6.98-2.96c0.04,0.979,0.1,1.97,0.159,2.96H529.42z"/>
<path fill="#FAFAFA" d="M551.27,240c-0.069-1.92,2.631-1.9,2.601,0H551.27z"/>
</svg>
