<?xml version="1.0" encoding="utf-8"?>
<!-- Generator: Adobe Illustrator 15.0.2, SVG Export Plug-In . SVG Version: 6.00 Build 0)  -->
<!DOCTYPE svg PUBLIC "-//W3C//DTD SVG 1.1//EN" "http://www.w3.org/Graphics/SVG/1.1/DTD/svg11.dtd">
<svg version="1.1" id="Layer_1" xmlns="http://www.w3.org/2000/svg" xmlns:xlink="http://www.w3.org/1999/xlink" x="0px" y="0px"
	 width="650px" height="240px" viewBox="0 0 650 240" enable-background="new 0 0 650 240" xml:space="preserve">
<path fill="#000100" d="M0,0h650v240H390.14c-3.649-4.859-7.83-9.45-10.3-15.07c-2.17-4.74-4.46-9.42-7-13.97
	c-3.79,5.3-6.52,11.26-10.25,16.601c-2.2,3.08-3.35,7.119-6.81,9.119c-2.36,0.66-4.73,1.301-7.11,1.84
	c-3.81,0.86-7.6-0.47-11.31-1.189c0.159-0.34,0.47-1.03,0.63-1.37c2.72,0.25,5.45,0.61,8.109,1.26c3.37-1.46,7.761-1.01,10.4-3.78
	c9.42-13.369,15.75-28.89,26.99-40.979c4.76-5.649,7.13-13,7.439-20.33c2.7-3.46,2.41-8.021,3.311-12.11
	c-0.021-7.869,3.05-15.279,3.41-23.1c0.399-3.7,0.88-7.39,1.069-11.109c0.21-0.631,0.63-1.881,0.84-2.511
	c0.341-7.76,0.04-15.52,0.141-23.28c-0.11-6.55,0.52-13.23-1.24-19.63c-1.66-6.01-2.06-12.3-3.66-18.31
	c-2.47-5.2-6.29-9.86-10.67-13.58c-3.77-2.99-8.229-4.96-12.01-7.93c-2.38-1.84-5.061-3.21-7.67-4.67
	c-3.061-0.48-6.05-1.39-8.62-3.14c-4.96-0.27-9.93-0.74-14.7-2.17c-6.17-2.11-12.77-0.24-19.09-1.41
	c-6.6-1.27-13.34-0.94-20.02-0.87c-2.81,0.07-5.29,1.59-7.92,2.37c-5.83,1.82-11.32,4.63-16.38,8.03
	c-4.03,2.96-6.48,7.47-9.59,11.29c-3.56,4.36-4.37,10.14-7.34,14.84c-2.24,3.81-4.73,7.62-5.61,12.04
	c-0.97,4.76-3.89,9.02-3.72,14.02c-0.42,9.15-2.79,18.78,0.42,27.66c-0.57-0.06-1.73-0.2-2.31-0.27c0.22,3.64-1.31,7.271-0.38,10.86
	c1.5,7.709,2.06,15.649,4.56,23.14c0.89,2.93,0.6,6.13,1.93,8.95c3.28,7.729,5.52,15.84,8.66,23.619
	c3.01,6.961,6.52,13.701,10.25,20.291c2.04,3.41,2.86,7.709,6.36,10.039c5.24,5.101,11.44,9,17.84,12.48
	c-3.81-1.57-7.99-2.55-11.23-5.21c-1.7-1.351-3.55-2.49-5.31-3.74c-3.66-2.42-4.94-6.939-8.24-9.72c-2.68-2.42-3.93-5.85-5.33-9.07
	c-3.44,1.62-6.15,4.41-8.33,7.45c-2.1,3.229-6.07,4.25-8.66,6.94c-4.24,4.529-8.23,9.31-12.78,13.55c-4,3.521-6.58,8.29-10.24,12.13
	H0V0z"/>
<path fill="#CFD1CD" d="M294.1,30.68c2.63-0.78,5.11-2.3,7.92-2.37c6.68-0.07,13.42-0.4,20.02,0.87c6.32,1.17,12.92-0.7,19.09,1.41
	c4.771,1.43,9.74,1.9,14.7,2.17c2.57,1.75,5.56,2.66,8.62,3.14c2.609,1.46,5.29,2.83,7.67,4.67c3.78,2.97,8.24,4.94,12.01,7.93
	c-0.37,0.64-1.12,1.93-1.5,2.57c-4.83-1.58-9.63-3.25-14.63-4.23c-5.88-0.97-9.94-6.21-15.94-6.91c-6.119-0.99-11.75-5.33-18.14-4
	c-4.21,0.69-8.49,0.3-12.71,0.74c-8.9,1.71-16.27,8.18-20.78,15.82c1.59,1.46,3.61,3.1,2.82,5.57c-2.97,2.65-6.55,4.54-9.45,7.29
	c6.47,0.09,12.67,2.26,19.15,2.16c3.319-0.18,3.439,4.33,1.2,5.91c-6.11,0.56-12.18-0.58-18.25-0.58
	c-6.51,1.49-11.87,6.04-16.1,11.03c-1.78,1.76-1.38,4.42-1.64,6.69c0.91-0.08,2.73-0.23,3.64-0.3c-0.35,1.89-0.7,3.79-1.06,5.69
	c1.98,4.99-0.56,11.46,4.1,15.24c-0.05,0.75-0.16,2.25-0.22,3c1.48,2.26,3.77,3.57,6.43,4c4.54,1.42,9.29,0.38,13.92,0.05
	c1.94-0.17,3.73-1.01,5.53-1.69c2.95-2.7,6.3-6.28,5.1-10.66l-0.72-0.17c-3.57,0.13-2.72,4.94-5.45,6.48
	c-3.52-0.13-6.06,2.85-9.45,3.24c-3.42,0.35-6.75-0.65-10.08-1.21c-1.13-1.35-2.27-2.69-3.41-4.03c0.09-1.61,0.18-3.21,0.25-4.81
	c0.59-0.06,1.79-0.17,2.39-0.23c2.79,2.86,6.31,4.96,9.94,6.57c3.86,0.47,7.01-2.64,10.121-4.49c1.8-1.06,2.5-3.01,2.779-4.98
	c0.75,0.96,1.681,1.48,2.78,1.56c0.4-0.45,1.19-1.33,1.58-1.78c0.83,1.67,0.8,5.39,3.51,4.58c1.12,0.14,0.101-1.42,0.25-2
	c0.59-0.82,1.141-1.67,1.641-2.55c-0.011-6.48-1.301-13.41-5.98-18.24c-5.76-1.76-11.82-2.34-17.82-2.16
	c-2.2-0.1-3.97,1.4-5.82,2.35c1.79-1.62,3.18-4.12,5.77-4.49c4.82-1.08,9.48,1.13,14.15,2c3.05,0.45,5.62,2.45,7.47,4.83
	c1.58,2.6,1.96,5.74,3.51,8.38c0.221,0.01,0.66,0.03,0.88,0.04c0.69-1.811,0.48-3.79,0.62-5.68c-0.87-0.95-1.71-1.9-2.55-2.87
	c1.41,0.41,2.81,0.85,4.21,1.3c3.5-2.771,6.57-6.39,11.01-7.69c3.601-1.12,7.11-2.49,10.42-4.32c4.46-1.68,9.29-2.16,13.79-3.79
	c1.62,0.1,3.25,0.25,4.891,0.38l0.38,0.26c-8.061,5.73-18.11,7.1-26.811,11.48c-2.76,1.54-4.869,3.96-6.71,6.49l-0.13-1.12
	c-2.8,0.44-6.12,2.021-8.1-0.9c0.06,2.49,0.05,5-0.271,7.48c-0.68,0.2-2.029,0.6-2.71,0.8c0.54,1.94,1.311,3.81,2.5,5.46
	c0.19,3.92,0.551,7.89-0.109,11.79c-0.95,3.24-3.46,5.68-5.7,8.089c-0.58,1.98-1.14,3.971-1.68,5.961
	c-9.261,1.17-18.581,2.949-27.95,1.97c-4.28-1.11-8-3.69-11.4-6.44c-0.78-0.46-1.9-1.779-2.78-0.76c-2.32,2.1-4.44,4.51-5.86,7.311
	c-1.38,2.729-0.12,5.779,0.37,8.569c6.02,2.771,10.63,8.57,17.57,9.11c0.36,3.06,1.03,6.109,0.99,9.199
	c-1.94,6.32-4.98,12.421-5.52,19.11c-0.64,5.88,3.3,10.95,3.37,16.79c0.73,4.23-0.45,9.92,3.96,12.45
	c2.34,1.36,4.14-0.96,5.51-2.521c1.08,2.25,2.06,4.58,3.55,6.601c4.4,0.84,9.04,0.271,13.31,1.899c3.561,0.99,5.25,4.91,8.761,6.011
	c4.27,1.51,8.479,3.239,12.38,5.569c5.97,3.58,13.03,4.621,19.05,8.11c2.8-2.271,4.58-5.399,6.05-8.63
	c1.69-3.78,5.391-6.07,7.41-9.6c1.521-4.59,0.04-9.541,0.96-14.221c1.84-4.33,5.89-7.51,6.82-12.279
	c1.87-9.36,4.51-18.66,4.08-28.32c2.279-0.721,4.8-1.05,6.77-2.49c4.29-4.83,5.851-11.24,7.79-17.21
	c2.93-4.739,3.76-10.55,7.43-14.83c-0.21,0.63-0.63,1.88-0.84,2.511c-0.189,3.72-0.67,7.409-1.069,11.109
	c-0.36,7.82-3.431,15.23-3.41,23.1c-0.9,4.09-0.61,8.65-3.311,12.11c-0.31,7.33-2.68,14.681-7.439,20.33
	c-11.24,12.09-17.57,27.61-26.99,40.979c-2.64,2.771-7.03,2.32-10.4,3.78c-2.659-0.649-5.39-1.01-8.109-1.26
	c-0.16,0.34-0.471,1.03-0.63,1.37c3.71,0.72,7.5,2.05,11.31,1.189c2.38-0.539,4.75-1.18,7.11-1.84c0.51,1.11,1.05,2.221,1.609,3.32
	H228.67c3.66-3.84,6.24-8.609,10.24-12.13c4.55-4.24,8.54-9.021,12.78-13.55c2.59-2.69,6.56-3.711,8.66-6.94
	c2.18-3.04,4.89-5.83,8.33-7.45c1.4,3.221,2.65,6.65,5.33,9.07c3.3,2.78,4.58,7.3,8.24,9.72c1.76,1.25,3.61,2.39,5.31,3.74
	c3.24,2.66,7.42,3.64,11.23,5.21c-6.4-3.48-12.6-7.38-17.84-12.48c-3.5-2.33-4.32-6.629-6.36-10.039
	c-3.73-6.59-7.24-13.33-10.25-20.291c-3.14-7.779-5.38-15.89-8.66-23.619c-1.33-2.82-1.04-6.021-1.93-8.95
	c-2.5-7.49-3.06-15.431-4.56-23.14c-0.93-3.59,0.6-7.221,0.38-10.86c0.58,0.07,1.74,0.21,2.31,0.27
	c-3.21-8.88-0.84-18.51-0.42-27.66c-0.17-5,2.75-9.26,3.72-14.02c0.88-4.42,3.37-8.23,5.61-12.04c2.97-4.7,3.78-10.48,7.34-14.84
	c3.11-3.82,5.56-8.33,9.59-11.29C282.78,35.31,288.27,32.5,294.1,30.68 M287.99,108.28C286.5,111.25,291.37,108.46,287.99,108.28
	 M309.29,110.13c1.35,0.32,1.89-0.23,1.6-1.65C309.54,108.17,309.01,108.72,309.29,110.13 M276.12,112.84
	c3.61,0.57,3.29,5.17,6.67,6.01c2.37,2.22,5.19,3.87,8.03,5.419c6.55,0.25,13.46,0.801,19.581-2.039
	c2.729-2.57,5.47-5.28,6.79-8.891c-0.11-0.26-0.351-0.78-0.471-1.04c-0.069,0.37-0.21,1.13-0.27,1.5c-2.79,1.97-4.311,5.39-7.48,6.8
	c-6.41,1.16-12.95,1.33-19.42,0.75c-4.5-1.02-6.17-6.02-8.47-9.47C279.45,110.51,275.61,109.35,276.12,112.84z"/>
<path fill="#FCFDFA" d="M333.92,35.93c6.39-1.33,12.021,3.01,18.14,4c6,0.7,10.061,5.94,15.94,6.91c5,0.98,9.8,2.65,14.63,4.23
	c0.38-0.64,1.13-1.93,1.5-2.57c4.38,3.72,8.2,8.38,10.67,13.58c1.601,6.01,2,12.3,3.66,18.31c1.76,6.4,1.13,13.08,1.24,19.63
	c-0.101,7.76,0.2,15.52-0.141,23.28c-3.67,4.28-4.5,10.091-7.43,14.83c-1.939,5.97-3.5,12.38-7.79,17.21
	c-1.97,1.44-4.49,1.77-6.77,2.49c0.43,9.66-2.21,18.96-4.08,28.32c-0.931,4.77-4.98,7.949-6.82,12.279
	c-0.92,4.68,0.561,9.631-0.96,14.221c-2.02,3.529-5.72,5.819-7.41,9.6c-1.47,3.23-3.25,6.359-6.05,8.63
	c-6.02-3.489-13.08-4.53-19.05-8.11c-3.9-2.33-8.11-4.06-12.38-5.569c-3.511-1.101-5.2-5.021-8.761-6.011
	c-4.27-1.629-8.91-1.06-13.31-1.899c-1.49-2.021-2.47-4.351-3.55-6.601c-1.37,1.561-3.17,3.881-5.51,2.521
	c-4.41-2.53-3.23-8.22-3.96-12.45c-0.07-5.84-4.01-10.91-3.37-16.79c0.54-6.689,3.58-12.79,5.52-19.11
	c0.04-3.09-0.63-6.14-0.99-9.199c-6.94-0.54-11.55-6.34-17.57-9.11c-0.49-2.79-1.75-5.84-0.37-8.569
	c1.42-2.801,3.54-5.211,5.86-7.311c0.88-1.02,2,0.3,2.78,0.76c3.4,2.75,7.12,5.33,11.4,6.44c9.37,0.979,18.689-0.8,27.95-1.97
	c0.54-1.99,1.1-3.98,1.68-5.961c2.24-2.409,4.75-4.85,5.7-8.089c0.66-3.9,0.3-7.87,0.109-11.79c-1.189-1.65-1.96-3.52-2.5-5.46
	c0.681-0.2,2.03-0.6,2.71-0.8c0.32-2.48,0.33-4.99,0.271-7.48c1.979,2.92,5.3,1.34,8.1,0.9l0.13,1.12
	c0.08,0.68,0.25,2.05,0.341,2.73c1.72-0.84,2.27-2.89,3.399-4.32c0.79,0.52,1.59,1.04,2.39,1.55c1.671-0.94,3.461-1.73,5.41-1.8
	c-3.41,2.74-3.66,7.25-4.939,11.1c-1.33,4.23-2,8.64-2.181,13.07c0.46,0.05,1.37,0.15,1.83,0.21c0.521-3.68,0.721-7.44,1.88-10.99
	c1.431-4.21,1.87-8.8,4.36-12.59c-0.2,1.42-0.399,2.85-0.53,4.29c-0.13,1.47-0.239,2.94-0.33,4.41c0.931,0.03,2.811,0.1,3.74,0.13
	c-1.069,1.14-2.14,2.28-3.21,3.41c-0.02,2.06-0.149,4.14,0.15,6.18c0.92,0.95,2.16,1.5,3.27,2.2c0.601-1.25,1.21-2.51,1.82-3.77
	c0.42,0.89,0.86,1.76,1.31,2.64c0.681,1.24,1.54,2.36,2.471,3.43c-1.48,1.12-2.96,2.22-4.44,3.34
	c7.11,9.129,21.04,10.081,30.62,4.49c-0.43-1.69-0.39-3.62-1.56-5.01c-3.521-1.31-5.65,2.49-8.631,3.44
	c-1.619,0.47-2.949-0.83-4.25-1.54c5.061-1.64,9.66-4.35,14.21-7.05c0.051-1.77,0.101-3.54,0.271-5.3c0.25-0.28,0.77-0.83,1.02-1.11
	c2.681-1.66,1.33-4.77,1.08-7.27c-0.479,0.75-0.96,1.51-1.42,2.26c-0.319-4.09-1.479-8.01-2.819-11.86
	c2.18,0.03,4.35,0.37,6.54,0.31c1.909-0.5,1.42-2.71,1.579-4.19c0.08-0.37,0.24-1.11,0.32-1.48c-0.28-1.47-0.52-2.94-0.77-4.4
	c-0.561-0.04-1.67-0.12-2.23-0.16c-0.89-1.39-1.75-2.79-2.6-4.2c-0.851,0.36-2.561,1.08-3.42,1.45c-0.061-0.53-0.181-1.57-0.23-2.09
	l-1.55,0.89c0.57,0.38,1.15,0.77,1.72,1.16c-4.95,1.8-8.99,5.31-13.84,7.32c-5.92,2.25-10.93,7.18-17.689,6.42
	c-0.891-1.11-1.771-2.21-2.65-3.32c9.54-3.53,19.79-6.01,27.75-12.71c-0.94,0.03-2.83,0.1-3.771,0.14
	c0.021-0.59,0.07-1.78,0.101-2.37c-1.95,0.22-3.891,0.41-5.811,0.76c1.25,0.07,3.75,0.23,5,0.31c-0.18,0.56-0.369,1.11-0.569,1.66
	c-1.641-0.13-3.271-0.28-4.891-0.38c-5.449-0.6-11.13,0.19-15.989,2.8c-3.591,2-7.681,2.74-11.391,4.43
	c-2.96,1.7-5.45,4.07-8.09,6.21c-4.64-4.05-9.9-7.39-15.24-10.42c1.17-0.41,2.32-0.85,3.471-1.33c2.239-1.58,2.119-6.09-1.2-5.91
	c-6.48,0.1-12.68-2.07-19.15-2.16c2.9-2.75,6.48-4.64,9.45-7.29c0.79-2.47-1.23-4.11-2.82-5.57c4.51-7.64,11.879-14.11,20.78-15.82
	C325.43,36.23,329.71,36.62,333.92,35.93 M349.47,61.62c-7.46,2.55-13.84,7.32-20.35,11.62c-1.39,1.05-3.16,0.35-4.73,0.29
	c0.061,0.6,0.19,1.81,0.261,2.41c-0.36,0.03-1.08,0.08-1.44,0.11c0.72,0.89,1.44,1.79,2.17,2.69c3.73-0.35,7.51-1,10.89-2.7
	c2.171-1.23,4.171-2.8,6.5-3.75c3.761-2.31,8.08-3.46,11.971-5.54c4.06-1.05,9.76-1.98,11.17-6.58c-2.03-0.48-4.141-0.67-6.21-0.37
	c1.93-0.66,3.979-0.82,5.96-1.27c0.03-0.521,0.1-1.57,0.13-2.1C359.82,56.27,354.95,59.94,349.47,61.62 M337.44,114.36
	c-0.851,1.98,1.46,3.03,2.13,4.66c1.029,1.541,0.529,3.4,0.529,5.121c-1.689,0.449-3.359,0.949-5.02,1.449l-0.08-1.46
	c-3.16-0.649-6.39-0.46-9.43,0.62c-0.32-0.16-0.95-0.48-1.271-0.641c0.16,1.19,0.36,2.381,0.59,3.57
	c-0.13,1.141-0.21,2.29-0.26,3.45c3.59,0.44,7.23,0.57,10.72,1.58c2.561,0.75,5.54,0.899,7.92-0.44
	c0.78-1.279,1.32-2.689,1.921-4.069c-0.551-0.011-1.641-0.04-2.19-0.06l1.02-1.4c-0.649-0.16-1.949-0.48-2.6-0.641
	c0.86-2.41,1.66-5.14,0.16-7.5C340.55,117.05,339.87,113.76,337.44,114.36 M342.27,117.86c0.591,2.2,1.471,4.31,2.521,6.33
	c0.76-2.289-0.15-4.589-0.521-6.85C343.77,117.47,342.77,117.73,342.27,117.86 M344.83,126.641c0.82,0.399,1.67,0.75,2.55,1.039
	c0.44-0.789,0.88-1.6,1.3-2.41C347.37,125.7,346.1,126.17,344.83,126.641 M308.8,132.58c2.88,0.52,5.82,0.63,8.73,0.21
	C314.92,130.96,311.6,131.641,308.8,132.58 M324.55,137.57c-0.87,1.89-2.02,3.6-4.08,4.279c0.83,0.76,1.681,1.51,2.54,2.25
	c-0.1,0.521-0.29,1.551-0.39,2.07c3.56,0.57,6.28-1.609,8.59-3.99c1.55,0.881,3.1,1.771,4.65,2.66c0.479-1.14,0.96-2.27,1.449-3.4
	l0.5,0.28c0.23-2.079-1.18-3.739-2.01-5.52C332.03,135.99,327.92,135.49,324.55,137.57 M349.25,137.21c-1.17,1.42,1.4,2.61,2.23,1.3
	C352.64,137.09,350.08,135.91,349.25,137.21 M313.31,154.88c0.82,0.38,1.65,0.771,2.48,1.15c1.729-3.71-0.39-7.29-1.37-10.841
	C314.12,148.42,313.72,151.65,313.31,154.88 M335.38,149.29c-1.2,0.91,0.13,3.319,1.5,2.33
	C338.08,150.71,336.74,148.29,335.38,149.29 M307.35,167.04C307.61,170.359,310.28,165.4,307.35,167.04 M310.15,168.09
	C310.39,171.42,313.08,166.46,310.15,168.09 M347.78,182.21c-0.601,1.55-1.181,3.101-1.811,4.64c-2.45,1.09-4.2,3.141-5.689,5.301
	c0.029,0.89,0.06,1.779,0.09,2.67c-2.07,1.09-3.82,2.63-5.66,4.05c-5.13,3-11.94,1.55-16.64-1.63c0.819-1.75,0.229-4.11-2.061-3.891
	c-2.05-0.99-4.43,2.291-2.26,3.551c0.76,0.649,1.55,1.26,2.38,1.83c-0.83,1.539-2.74,3.06-1.8,5c4.65,3.8,10.64,5.379,16.37,6.789
	c2.27,0.601,3.67,3.42,6.16,3.141c2.87-1.65,5.8-3.41,8.09-5.82c1.92-3.359,2.54-7.27,3.93-10.85c1.13-3.311,2.26-7.51-0.28-10.471
	C348.89,184.91,350.63,182.189,347.78,182.21z"/>
<path fill="#000100" d="M349.47,61.62c5.48-1.68,10.351-5.35,16.32-5.19c-0.03,0.53-0.1,1.58-0.13,2.1
	c-1.98,0.45-4.03,0.61-5.96,1.27c-5.47,2.13-11.11,3.92-16.28,6.74c-5.04,2.65-9.61,6.07-14.39,9.14
	c-1.471,0.08-2.931,0.16-4.38,0.26c-0.07-0.6-0.2-1.81-0.261-2.41c1.57,0.06,3.341,0.76,4.73-0.29
	C335.63,68.94,342.01,64.17,349.47,61.62z"/>
<path fill="#CFD1CD" d="M343.42,66.54c5.17-2.82,10.811-4.61,16.28-6.74c2.069-0.3,4.18-0.11,6.21,0.37
	c-1.41,4.6-7.11,5.53-11.17,6.58c-3.891,2.08-8.21,3.23-11.971,5.54c-2.329,0.95-4.329,2.52-6.5,3.75
	c-3.38,1.7-7.159,2.35-10.89,2.7c-0.729-0.9-1.45-1.8-2.17-2.69c0.36-0.03,1.08-0.08,1.44-0.11c1.449-0.1,2.909-0.18,4.38-0.26
	C333.81,72.61,338.38,69.19,343.42,66.54z"/>
<path fill="#000100" d="M361.85,70.14c1.92-0.35,3.86-0.54,5.811-0.76c-0.03,0.59-0.08,1.78-0.101,2.37
	c0.94-0.04,2.83-0.11,3.771-0.14c-7.96,6.7-18.21,9.18-27.75,12.71c-2.54,0.94-4.76,2.56-6.7,4.43c-1.13,1.43-1.68,3.48-3.399,4.32
	c-0.091-0.68-0.261-2.05-0.341-2.73c1.841-2.53,3.95-4.95,6.71-6.49c8.7-4.38,18.75-5.75,26.811-11.48l-0.38-0.26
	c0.2-0.55,0.39-1.1,0.569-1.66C365.6,70.37,363.1,70.21,361.85,70.14z"/>
<path fill="#000100" d="M345.4,74.53c4.859-2.61,10.54-3.4,15.989-2.8c-4.5,1.63-9.33,2.11-13.79,3.79
	c-3.31,1.83-6.819,3.2-10.42,4.32c-4.439,1.3-7.51,4.92-11.01,7.69c-1.4-0.45-2.8-0.89-4.21-1.3c0.84,0.97,1.68,1.92,2.55,2.87
	c-0.14,1.89,0.07,3.87-0.62,5.68c-0.22-0.01-0.659-0.03-0.88-0.04c-1.55-2.64-1.93-5.78-3.51-8.38c-1.85-2.38-4.42-4.38-7.47-4.83
	c-4.67-0.87-9.33-3.08-14.15-2c-2.59,0.37-3.98,2.87-5.77,4.49c1.85-0.95,3.62-2.45,5.82-2.35c6-0.18,12.06,0.4,17.82,2.16
	c4.68,4.83,5.97,11.76,5.98,18.24c-0.5,0.88-1.051,1.73-1.641,2.55c-0.649-2.96-0.53-6.01-0.72-9.02c-0.44-3.31-1.57-6.65-3.82-9.17
	c-1.729-1.61-4.24-1.89-6.49-2.09c-4.439-0.2-8.91-1.33-13.339-0.41c3.74,0.66,7.64,0.73,11.23,2.08c4.81,2.5,6.83,7.88,8.31,12.771
	c0.271,0.81,0.811,2.45,1.07,3.26c-0.39,0.45-1.18,1.33-1.58,1.78c-1.1-0.08-2.03-0.6-2.78-1.56c-0.279,1.97-0.979,3.92-2.779,4.98
	c2.75-5.22,0.39-11.42-2.891-15.8c-2.19-2.39-5.8-1.42-8.66-1.73c-4.99,3.48-8.85,9.16-8.51,15.45c-0.6,0.06-1.8,0.17-2.39,0.23
	c-0.07,1.6-0.16,3.2-0.25,4.81c1.14,1.34,2.28,2.68,3.41,4.03c3.33,0.56,6.66,1.56,10.08,1.21c3.39-0.39,5.93-3.37,9.45-3.24
	c2.73-1.54,1.88-6.35,5.45-6.48l0.72,0.17c1.2,4.38-2.149,7.96-5.1,10.66c-1.8,0.68-3.59,1.52-5.53,1.69
	c-4.63,0.33-9.38,1.37-13.92-0.05c-2.66-0.43-4.95-1.74-6.43-4c0.06-0.75,0.17-2.25,0.22-3c-4.66-3.78-2.12-10.25-4.1-15.24
	c0.36-1.9,0.71-3.8,1.06-5.69c-0.91,0.07-2.73,0.22-3.64,0.3c0.26-2.27-0.14-4.93,1.64-6.69c4.23-4.99,9.59-9.54,16.1-11.03
	c6.07,0,12.14,1.14,18.25,0.58c-1.15,0.48-2.301,0.92-3.471,1.33c5.34,3.03,10.601,6.37,15.24,10.42c2.64-2.14,5.13-4.51,8.09-6.21
	C337.72,77.27,341.81,76.53,345.4,74.53 M305.84,75.14c2.36,2.05,5.25,3.47,8.391,3.76C311.75,77.05,308.94,75.58,305.84,75.14z"/>
<path fill="#000100" d="M376.04,72.74l1.55-0.89c0.05,0.52,0.17,1.56,0.23,2.09c0.859-0.37,2.569-1.09,3.42-1.45
	c0.85,1.41,1.71,2.81,2.6,4.2c0.561,0.04,1.67,0.12,2.23,0.16c0.25,1.46,0.489,2.93,0.77,4.4c-0.08,0.37-0.24,1.11-0.32,1.48
	c-2.64-1.84-5.3-3.77-8.35-4.85c-6.62,3.72-13.45,7.17-19.55,11.76c-4.32,1.86-8.62,4.44-13.521,3.95
	c0.131-1.44,0.33-2.87,0.53-4.29c-2.49,3.79-2.93,8.38-4.36,12.59c-1.159,3.55-1.359,7.31-1.88,10.99
	c-0.46-0.06-1.37-0.16-1.83-0.21c0.181-4.43,0.851-8.84,2.181-13.07c1.279-3.85,1.529-8.36,4.939-11.1
	c0.5-0.3,1.021-0.59,1.551-0.86c6.76,0.76,11.77-4.17,17.689-6.42c4.85-2.01,8.89-5.52,13.84-7.32
	C377.19,73.51,376.61,73.12,376.04,72.74z"/>
<path fill="#CFD1CD" d="M305.84,75.14c3.101,0.44,5.91,1.91,8.391,3.76C311.09,78.61,308.2,77.19,305.84,75.14z"/>
<path fill="#CFD1CD" d="M358.62,89.64c6.1-4.59,12.93-8.04,19.55-11.76c3.05,1.08,5.71,3.01,8.35,4.85
	c-0.159,1.48,0.33,3.69-1.579,4.19c-2.19,0.06-4.36-0.28-6.54-0.31c1.34,3.85,2.5,7.77,2.819,11.86c0.46-0.75,0.94-1.51,1.42-2.26
	c0.25,2.5,1.601,5.61-1.08,7.27c-0.819-3.46-1.279-7.03-2.63-10.34c-2.37-3.54-6.52-6.67-11.01-5.14
	c-6.99,0.48-11.58,6.26-14.939,11.79c-1.28,2.79-1.421,5.97-1.131,9c-0.449-0.88-0.89-1.75-1.31-2.64
	c-0.61,1.26-1.22,2.52-1.82,3.77c-1.109-0.7-2.35-1.25-3.27-2.2c-0.3-2.04-0.17-4.12-0.15-6.18c1.07-1.13,2.141-2.27,3.21-3.41
	c-0.93-0.03-2.81-0.1-3.74-0.13c0.091-1.47,0.2-2.94,0.33-4.41C350,94.08,354.3,91.5,358.62,89.64z"/>
<path fill="#CFD1CD" d="M295.72,83.93c4.43-0.92,8.9,0.21,13.339,0.41c2.25,0.2,4.761,0.48,6.49,2.09c2.25,2.52,3.38,5.86,3.82,9.17
	c-1.38,1.05-2.74,2.11-4.11,3.18c-1.479-4.89-3.5-10.271-8.31-12.771C303.36,84.66,299.46,84.59,295.72,83.93z"/>
<path fill="#CFD1CD" d="M336.88,88.75c1.94-1.87,4.16-3.49,6.7-4.43c0.88,1.11,1.76,2.21,2.65,3.32
	c-0.53,0.27-1.051,0.56-1.551,0.86c-1.949,0.07-3.739,0.86-5.41,1.8C338.47,89.79,337.67,89.27,336.88,88.75z"/>
<path fill="#000100" d="M367.92,88c4.49-1.53,8.64,1.6,11.01,5.14c1.351,3.31,1.811,6.88,2.63,10.34c-0.25,0.28-0.77,0.83-1.02,1.11
	c-0.17,1.76-0.22,3.53-0.271,5.3c-4.55,2.7-9.149,5.41-14.21,7.05c-2.88,0.73-5.819,1.24-8.79,1.33c1.08-2.73,4.25-2.03,6.511-2.74
	c-2.91-1.76-6.53-1.561-9.46-3.311c-0.931-1.07-1.79-2.189-2.471-3.43c-0.29-3.03-0.149-6.21,1.131-9
	C356.34,94.26,360.93,88.48,367.92,88 M360.34,94.38c-2.88,2.25-4.54,5.5-6,8.76c-1.14,2.11-0.63,4.54-0.26,6.78
	c1.67,0.17,2.95,1.17,3.979,2.44c4.32-0.15,8.771,0.59,13-0.51c2.761-1.5,4.761-3.95,6.921-6.16c-0.62-0.09-1.86-0.28-2.48-0.37
	c-0.14-1.43-0.11-2.86-0.09-4.29c-0.37-2.33-0.11-5.59-2.68-6.74c-0.9-0.54-1.811-1.07-2.721-1.58
	C366.81,93.13,362.72,91.54,360.34,94.38 M377.09,100.46C375.51,103.6,380.3,100.73,377.09,100.46z"/>
<path fill="#FCFDFA" d="M289.13,105.16c-0.34-6.29,3.52-11.97,8.51-15.45c2.86,0.31,6.47-0.66,8.66,1.73
	c3.28,4.38,5.641,10.58,2.891,15.8c-3.11,1.85-6.26,4.96-10.121,4.49C295.44,110.12,291.92,108.02,289.13,105.16 M295.3,105.74
	c1.64,1.43,3.63,2.02,5.8,1.77c0.71-0.78,1.43-1.56,2.16-2.33c-0.29-2.03,0.86-4.83-1.2-6.17c-1.16-0.68-2.61-1.93-3.94-0.82
	C294.81,99.2,295.33,103.04,295.3,105.74z"/>
<path fill="#FCFDFA" d="M360.34,94.38c2.38-2.84,6.47-1.25,9.67-1.67c0.91,0.51,1.82,1.04,2.721,1.58
	c2.569,1.15,2.31,4.41,2.68,6.74c-0.58-0.13-1.72-0.39-2.3-0.521c-0.92,1.521-1.841,3.04-2.73,4.58c0.271-3.06-2.899-4.09-5.1-5.18
	c-1.19,0.96-2.46,1.84-3.49,2.97c-0.83,1.92,0.05,3.98,0.71,5.8c-3.23-0.98-5.75-3.27-8.16-5.54
	C355.8,99.88,357.46,96.63,360.34,94.38z"/>
<path fill="#FCFDFA" d="M315.26,98.78c1.37-1.07,2.73-2.13,4.11-3.18c0.189,3.01,0.07,6.06,0.72,9.02c-0.149,0.58,0.87,2.14-0.25,2
	c-2.71,0.81-2.68-2.91-3.51-4.58C316.07,101.23,315.53,99.59,315.26,98.78z"/>
<path fill="#000100" d="M295.3,105.74c0.03-2.7-0.49-6.54,2.82-7.55c1.33-1.11,2.78,0.14,3.94,0.82c2.06,1.34,0.91,4.14,1.2,6.17
	c-0.73,0.77-1.45,1.55-2.16,2.33C298.93,107.76,296.94,107.17,295.3,105.74z"/>
<path fill="#000100" d="M365.28,99.91c2.2,1.09,5.37,2.12,5.1,5.18c-0.68,1.19-1.37,2.36-2.06,3.54c-1.94,0.01-3.88,0.06-5.82,0.05
	c-0.66-1.82-1.54-3.88-0.71-5.8C362.82,101.75,364.09,100.87,365.28,99.91z"/>
<path fill="#CFD1CD" d="M373.11,100.51c0.58,0.13,1.72,0.39,2.3,0.521c-0.021,1.43-0.05,2.86,0.09,4.29
	c0.62,0.09,1.86,0.28,2.48,0.37c-2.16,2.21-4.16,4.66-6.921,6.16c-4.229,1.1-8.68,0.36-13,0.51c-1.029-1.27-2.31-2.27-3.979-2.44
	c-0.37-2.24-0.88-4.67,0.26-6.78c2.41,2.27,4.93,4.56,8.16,5.54c1.94,0.01,3.88-0.04,5.82-0.05c0.689-1.18,1.38-2.35,2.06-3.54
	C371.27,103.55,372.19,102.03,373.11,100.51z"/>
<path fill="#CFD1CD" d="M377.09,100.46C380.3,100.73,375.51,103.6,377.09,100.46z"/>
<path fill="#000100" d="M287.99,108.28C291.37,108.46,286.5,111.25,287.99,108.28z"/>
<path fill="#000100" d="M309.29,110.13c-0.28-1.41,0.25-1.96,1.6-1.65C311.18,109.9,310.64,110.45,309.29,110.13z"/>
<path fill="#000100" d="M276.12,112.84c-0.51-3.49,3.33-2.33,4.96-0.96c2.3,3.45,3.97,8.45,8.47,9.47
	c6.47,0.58,13.01,0.41,19.42-0.75c3.17-1.41,4.69-4.83,7.48-6.8c0.06-0.37,0.2-1.13,0.27-1.5c0.12,0.26,0.36,0.78,0.471,1.04
	c-1.32,3.61-4.061,6.32-6.79,8.891c-6.121,2.84-13.03,2.289-19.581,2.039c-2.84-1.55-5.66-3.199-8.03-5.419
	C279.41,118.01,279.73,113.41,276.12,112.84z"/>
<path fill="#CFD1CD" d="M354.32,112.22c2.93,1.75,6.55,1.55,9.46,3.311c-2.261,0.71-5.431,0.01-6.511,2.74
	c2.971-0.09,5.91-0.6,8.79-1.33c1.301,0.71,2.631,2.01,4.25,1.54c2.98-0.95,5.11-4.75,8.631-3.44c1.17,1.39,1.13,3.32,1.56,5.01
	c-9.58,5.591-23.51,4.64-30.62-4.49C351.36,114.44,352.84,113.34,354.32,112.22z"/>
<path fill="#000100" d="M337.44,114.36c2.43-0.6,3.109,2.69,4.14,4.24c1.5,2.36,0.7,5.089-0.16,7.5c0.65,0.16,1.95,0.48,2.6,0.641
	l-1.02,1.4c-2.61-0.121-5.2-0.471-7.8-0.66c-0.03-0.48-0.09-1.42-0.12-1.891c1.66-0.5,3.33-1,5.02-1.449
	c0-1.721,0.5-3.58-0.529-5.121C338.9,117.39,336.59,116.34,337.44,114.36z"/>
<path fill="#000100" d="M342.27,117.86c0.5-0.13,1.5-0.39,2-0.52c0.37,2.26,1.28,4.561,0.521,6.85
	C343.74,122.17,342.86,120.06,342.27,117.86z"/>
<path fill="#000100" d="M324.3,124.109c0.32,0.16,0.95,0.48,1.271,0.641c0.439,0.22,1.31,0.66,1.75,0.87
	c-0.61,0.521-1.83,1.55-2.431,2.06C324.66,126.49,324.46,125.3,324.3,124.109z"/>
<path fill="#CFD1CD" d="M325.57,124.75c3.04-1.08,6.27-1.27,9.43-0.62l0.08,1.46c0.03,0.471,0.09,1.41,0.12,1.891
	c2.6,0.189,5.189,0.539,7.8,0.66c0.55,0.02,1.64,0.049,2.19,0.06c-0.601,1.38-1.141,2.79-1.921,4.069
	c-2.38,1.34-5.359,1.19-7.92,0.44c-3.489-1.01-7.13-1.14-10.72-1.58c0.05-1.16,0.13-2.31,0.26-3.45
	c0.601-0.51,1.82-1.539,2.431-2.06C326.88,125.41,326.01,124.97,325.57,124.75z"/>
<path fill="#000100" d="M344.83,126.641c1.27-0.471,2.54-0.94,3.85-1.371c-0.42,0.811-0.859,1.621-1.3,2.41
	C346.5,127.391,345.65,127.04,344.83,126.641z"/>
<path fill="#CFD1CD" d="M308.8,132.58c2.8-0.939,6.12-1.62,8.73,0.21C314.62,133.21,311.68,133.1,308.8,132.58z"/>
<path fill="#000100" d="M324.55,137.57c3.37-2.08,7.48-1.58,11.25-1.37c0.83,1.78,2.24,3.44,2.01,5.52l-0.5-0.28
	c-2.159-1.239-4.52-2.949-7.13-2.489c-2.58,1.42-5.06,3.08-7.17,5.149c-0.859-0.74-1.71-1.49-2.54-2.25
	C322.53,141.17,323.68,139.46,324.55,137.57z"/>
<path fill="#CFD1CD" d="M349.25,137.21c0.83-1.3,3.39-0.12,2.23,1.3C350.65,139.82,348.08,138.63,349.25,137.21z"/>
<path fill="#CFD1CD" d="M323.01,144.1c2.11-2.069,4.59-3.729,7.17-5.149c2.61-0.46,4.971,1.25,7.13,2.489
	c-0.489,1.131-0.97,2.261-1.449,3.4c-1.551-0.89-3.101-1.779-4.65-2.66c-2.31,2.381-5.03,4.561-8.59,3.99
	C322.72,145.65,322.91,144.62,323.01,144.1z"/>
<path fill="#CFD1CD" d="M313.31,154.88c0.41-3.229,0.811-6.46,1.11-9.69c0.98,3.551,3.1,7.131,1.37,10.841
	C314.96,155.65,314.13,155.26,313.31,154.88z"/>
<path fill="#CFD1CD" d="M335.38,149.29c1.36-1,2.7,1.42,1.5,2.33C335.51,152.609,334.18,150.2,335.38,149.29z"/>
<path fill="#CFD1CD" d="M307.35,167.04C310.28,165.4,307.61,170.359,307.35,167.04z"/>
<path fill="#CFD1CD" d="M310.15,168.09C313.08,166.46,310.39,171.42,310.15,168.09z"/>
<path fill="#000100" d="M347.78,182.21c2.85-0.021,1.109,2.7,0.819,4.31c-1.29,2.92-3.09,5.57-4.63,8.36
	c-4.16,2.2-7.39,6.09-12.04,7.3c-5.47,0.91-11.17-0.439-15.8-3.449c-0.83-0.57-1.62-1.181-2.38-1.83
	c-0.04-0.681-0.12-2.03-0.17-2.711c1.54,0.961,3.01,2,4.49,3.051c4.699,3.18,11.51,4.63,16.64,1.63c1.84-1.42,3.59-2.96,5.66-4.05
	c3.05-1.59,4.31-4.99,5.6-7.971C346.6,185.311,347.18,183.76,347.78,182.21z"/>
<path fill="#CFD1CD" d="M340.28,192.15c1.489-2.16,3.239-4.211,5.689-5.301c-1.29,2.98-2.55,6.381-5.6,7.971
	C340.34,193.93,340.31,193.04,340.28,192.15z"/>
<path fill="#CFD1CD" d="M348.6,186.52c2.54,2.961,1.41,7.16,0.28,10.471c-1.39,3.58-2.01,7.49-3.93,10.85
	c-2.29,2.41-5.22,4.17-8.09,5.82c-2.49,0.279-3.891-2.54-6.16-3.141c-5.73-1.41-11.72-2.989-16.37-6.789
	c-0.94-1.94,0.97-3.461,1.8-5c4.63,3.01,10.33,4.359,15.8,3.449c4.65-1.21,7.88-5.1,12.04-7.3
	C345.51,192.09,347.31,189.439,348.6,186.52 M331.88,205.48c2.26,1,5.59,2.42,7.44-0.041C336.84,205.3,334.36,205.32,331.88,205.48z
	"/>
<path fill="#CFD1CD" d="M313.75,196.9c-2.17-1.26,0.21-4.541,2.26-3.551c2.29-0.22,2.88,2.141,2.061,3.891
	c-1.48-1.051-2.95-2.09-4.49-3.051C313.63,194.87,313.71,196.22,313.75,196.9z"/>
<path fill="#FCFDFA" d="M331.88,205.48c2.48-0.16,4.96-0.181,7.44-0.041C337.47,207.9,334.14,206.48,331.88,205.48z"/>
<path fill="#FCFDFA" d="M362.59,227.561c3.73-5.341,6.46-11.301,10.25-16.601c2.54,4.55,4.83,9.229,7,13.97
	c2.47,5.62,6.65,10.211,10.3,15.07h-32.75c-0.56-1.1-1.1-2.21-1.609-3.32C359.24,234.68,360.39,230.641,362.59,227.561z"/>
</svg>
