<?xml version="1.0" encoding="utf-8"?>
<!-- Generator: Adobe Illustrator 15.0.2, SVG Export Plug-In . SVG Version: 6.00 Build 0)  -->
<!DOCTYPE svg PUBLIC "-//W3C//DTD SVG 1.1//EN" "http://www.w3.org/Graphics/SVG/1.1/DTD/svg11.dtd">
<svg version="1.1" id="Layer_1" xmlns="http://www.w3.org/2000/svg" xmlns:xlink="http://www.w3.org/1999/xlink" x="0px" y="0px"
	 width="650px" height="240px" viewBox="0 0 650 240" enable-background="new 0 0 650 240" xml:space="preserve">
<path d="M0,0h650v240H0V0 M444.3,18.47c0.03,0.521,0.08,1.57,0.11,2.09c0.439,0.53,0.89,1.05,1.34,1.58l0.87,0.58
	c0.72,3.95,4.88,5.28,7.75,7.38c-0.13,0.67-0.39,2.01-0.521,2.68c-2.819-2.66-6.64-3.771-10.09-5.36c-1.1-2.05-1.109-5.63-3.8-6.2
	c-4.49,2.14-9.229,3.58-13.91,5.23c-7.37,3.04-14.18,7.34-20.58,12.08c-5.279,3.87-8.12,9.89-11.89,15.04
	c-3.12,4.24-5.69,8.86-9.021,12.94c-4.55,6.1-9.649,11.771-14.02,18c-1.76,2.57-4.22,5.12-4.09,8.46
	c-0.17,15.35,0.05,30.7-0.04,46.04c-0.16,6.311,1.22,12.66,4.09,18.28c0.17,0.59,0.51,1.78,0.68,2.37
	c0.92,3.77,2.61,7.279,4.42,10.699c4.061,7.701,8.78,15.431,16.141,20.4c1.96,5.1,7.26,7.271,11.56,9.971
	c4.38,2.5,7.98,6.189,12.58,8.34c7.21,3.359,14.83,5.96,22.71,7.229c5.13,0.73,9.91,3.08,15.12,3.33
	c8.1,0.57,16.21-0.08,24.31,0.021c5.69,0.09,11.301-1.03,16.98-1.07c7.02-0.04,14.03,0.08,21.05,0.08
	c5.45,0.16,10.46-2.57,15.92-2.38c10.54-0.74,22.62-2.9,29.32-11.97c3.55-4.75,8.24-8.48,11.82-13.201
	c5.02-6.399,10.56-12.579,13.87-20.1c1.67-3.71,1.17-7.859,1.359-11.81c0.11-5.83,2.69-11.32,2.38-17.19
	c-0.359-11.33,0.04-22.67-0.2-34.01c-0.14-5.69,1.301-11.35,0.45-17.04c-0.8-8.04-2.17-16.84-8.06-22.86
	c-2.25-5.55-5-10.89-7.8-16.17c-7.29-11.88-20.811-17.22-30.91-26.14c-3.05-2.78-7.431-2.71-11.19-3.82
	c-7.75-2.14-15.6-3.99-23.2-6.64c-4.17-1.45-8.649-0.82-12.97-0.71c-12.16-2.21-24.55-0.67-36.82-1.19
	C454.22,12.78,449.27,16.08,444.3,18.47z"/>
<path fill="#34375C" d="M444.3,18.47c4.97-2.39,9.92-5.689,15.72-5.04c12.271,0.52,24.66-1.02,36.82,1.19
	c-4,5.42-5.77,12-7.85,18.31c-0.7,2.35-1.32,5.52,1.01,7.2c1.94,1.7,4.56,0.6,6.74,0.1c3.54-1.05,7.12-1.96,10.72-2.76
	c1.46,0.04,2.92,0.08,4.38,0.09c-4.12,1.69-8.51,2.5-12.78,3.67c-2.68,0.63-5.47,1.53-8.229,0.88c-3.8-0.83-7.16-2.88-10.49-4.8
	c1.96-0.93,4.18-2.06,4.48-4.47c1.43-5.83,4.08-11.22,6.29-16.77c-7.311-1.27-14.75-0.63-22.13-0.81
	c-5.431-0.06-10.891-0.38-16.28,0.34c-2.72,1.71-4.91,4.09-6.95,6.54c-0.45-0.53-0.9-1.05-1.34-1.58
	C444.38,20.04,444.33,18.99,444.3,18.47z"/>
<path fill="#686ABA" d="M452.7,15.6c5.39-0.72,10.85-0.4,16.28-0.34c7.38,0.18,14.819-0.46,22.13,0.81
	c-2.21,5.55-4.86,10.94-6.29,16.77c-0.301,2.41-2.521,3.54-4.48,4.47c-1.359,0.42-2.72,0.79-4.09,1.17
	c-0.68-1.87-1.37-3.74-2.06-5.6c-1.2-0.44-2.4-0.87-3.57-1.35c0.01-0.55,0.02-1.65,0.03-2.2c3.479,0.62,5.399,3.62,7.05,6.45
	c2.46-0.521,4.81-1.45,6.99-2.71c-2.19-2.02-4.521-3.87-6.881-5.67c2.33-1.86,4.94-3.3,7.58-4.67c2.21-0.96,2.73-3.54,3.73-5.49
	C477.07,15.39,464.82,16.4,452.7,15.6z"/>
<path fill="#21229F" d="M496.84,14.62c4.32-0.11,8.8-0.74,12.97,0.71c7.601,2.65,15.45,4.5,23.2,6.64
	c3.76,1.11,8.141,1.04,11.19,3.82c10.1,8.92,23.62,14.26,30.91,26.14c2.8,5.28,5.55,10.62,7.8,16.17c4.2,9.78,8.63,20.27,6.21,31.14
	c-0.51-6.18-1.28-12.37-2.91-18.36c-1.57-5.91-4.85-11.13-7.52-16.58c-2.881-5.62-5.511-11.49-9.671-16.32
	c-3.55-4.16-8.17-7.17-12.63-10.27c-3.199-2.74-6.909-4.82-11.1-5.52c-1.32-2.35-2.39-5.34-5.25-6.15
	c-6.34-2.23-13.1-2.9-19.53-4.83c-7.14-2.08-14.51-4.88-22.06-3.76c-4.59,1.82-4.71,7.51-4.811,11.69
	c0.471,3.67-5.62,6.18-2.59,9.68c1.8,0.78,3.771,1.04,5.69,1.41c-2.181,0.5-4.8,1.6-6.74-0.1c-2.33-1.68-1.71-4.85-1.01-7.2
	C491.07,26.62,492.84,20.04,496.84,14.62z"/>
<path fill="#686A91" d="M445.75,22.14c2.04-2.45,4.23-4.83,6.95-6.54c-1.11,1.89-2.24,3.77-3.351,5.65
	c1.351,1.41,2.67,2.85,4.051,4.24c-2.311-0.81-4.641-1.56-6.78-2.771L445.75,22.14z"/>
<path fill="#8F92F4" d="M452.7,15.6c12.12,0.8,24.37-0.21,36.42,1.64c-1,1.95-1.521,4.53-3.73,5.49c-2.64,1.37-5.25,2.81-7.58,4.67
	c2.36,1.8,4.69,3.65,6.881,5.67c-2.181,1.26-4.53,2.19-6.99,2.71c-1.65-2.83-3.57-5.83-7.05-6.45c-0.011,0.55-0.021,1.65-0.03,2.2
	c0.06,2.61-0.561,5.16-2.14,7.27c-4.261-5.24-9.83-9.15-15.08-13.31c-1.381-1.39-2.7-2.83-4.051-4.24
	C450.46,19.37,451.59,17.49,452.7,15.6z"/>
<path fill="#1E1EEE" d="M498.45,17.45c7.55-1.12,14.92,1.68,22.06,3.76c6.431,1.93,13.19,2.6,19.53,4.83
	c2.86,0.81,3.93,3.8,5.25,6.15c4.19,0.7,7.9,2.78,11.1,5.52c-3.68-0.92-7.59-1.23-11-2.99c-2.439-2.02-3.409-5.41-6.069-7.2
	c-1.96-0.73-4.08,0.01-6.09,0.02c-2.091,0.23-3.78-1.3-5.54-2.15c-3.57,6.75-3.87,14.86-2.351,22.2c0.67,4.02,4.811,4.98,8.04,6.2
	c3.24,0.69,2.311,4.73,2.97,7.18c-1.029-2.32-2.63-4.3-4.42-6.07c-1.64,2.24-3.26,4.48-4.91,6.7c-0.39-0.46-1.18-1.39-1.569-1.85
	c0.03-2.16,0.189-4.34-0.16-6.47c-0.73-3.21-2.64-6.03-3.23-9.29c-0.779-4.05,0.29-8.25-0.76-12.271
	c-6.58,0.57-12.76,2.96-19.01,4.89c-2.19,0.62-3.91,2.14-5.55,3.62c-1.92-0.37-3.891-0.63-5.69-1.41c-3.03-3.5,3.061-6.01,2.59-9.68
	C493.74,24.96,493.86,19.27,498.45,17.45 M515.85,28.65c2.74,0.08,5.48,0.08,8.23-0.02c-0.6-1.84-1.38-4.8-3.95-4.23
	C517.67,24.34,516.32,26.52,515.85,28.65z"/>
<path fill="#292B2F" d="M426.05,26.45c4.681-1.65,9.42-3.09,13.91-5.23c2.69,0.57,2.7,4.15,3.8,6.2c3.45,1.59,7.271,2.7,10.09,5.36
	l-0.08,0.91c-2.949-1.52-5.96-2.92-8.93-4.38c-2.109,2.64-4.56,5.17-5.689,8.42c-0.53,2.07-0.67,4.22-0.521,6.35
	c-0.58-0.26-1.74-0.76-2.31-1.01c-0.57,4.52,1.83,8.72,4.97,11.77c2.4,2.01,5.43,3.02,8.24,4.32c-0.8,1.46-1.61,2.91-2.4,4.36
	c-5.54-1.82-10.89-4.27-15.66-7.65c1.38-0.27,2.75-0.55,4.13-0.82c0.311-4.88-0.92-9.65-2.779-14.12
	c2.109-3.75,4.489-7.34,6.93-10.88c1.37-1.96,1.75-4.35,1.91-6.69C436.96,26.25,431.44,26.71,426.05,26.45z"/>
<path fill="#5A5E7F" d="M426.05,26.45c5.391,0.26,10.91-0.2,15.61-3.09c-0.16,2.34-0.54,4.73-1.91,6.69
	c-4.4-3.14-10.09-2.3-14.99-1.04c-6.42,2.11-12.1,6.01-17.1,10.49c-2.15,1.91-4.32,3.82-6.351,5.86c-2.109,2.23-3.8,4.81-5.35,7.45
	c-4.55,8.03-10.27,15.28-15.87,22.59c-4.53,6.35-11.59,12.1-11.6,20.54c-0.15,8.77,0.069,17.54,0.17,26.31
	c-0.141,5.58-0.25,11.17-0.23,16.75c-0.08,6.18,1.971,12.12,2.07,18.29c-2.87-5.62-4.25-11.97-4.09-18.28
	c0.09-15.34-0.13-30.69,0.04-46.04c-0.13-3.34,2.33-5.89,4.09-8.46c4.37-6.229,9.47-11.9,14.02-18c3.33-4.08,5.9-8.7,9.021-12.94
	c3.77-5.15,6.61-11.17,11.89-15.04C411.87,33.79,418.68,29.49,426.05,26.45z"/>
<path fill="#07080D" d="M446.62,22.72c2.14,1.21,4.47,1.96,6.78,2.771c5.25,4.16,10.819,8.07,15.08,13.31
	c1.22,2.38,2.25,4.84,3.34,7.28c-2.141,0.82-4.301,1.59-6.44,2.38c-0.3,2.64,0.311,5.93-2.03,7.82c-2.56,2.45-5.369,4.67-7.659,7.4
	c-7.04,1.26-14.53,4.09-21.551,1.23c-5.739-2.63-12.17-0.7-18.21-1.69c-3.06-3.45-7.14-6.67-7.56-11.61
	c-1.26-5.99,4.01-11.47,9.479-12.86c2.49,1.27,2.851,4.25,3.641,6.64c-2.141,0.08-4.271,0.14-6.41,0.21
	c-0.26,3.44-0.79,7.88,2.35,10.23c3.61,1.78,7.12-1.38,10.29-2.81c1.24,0.96,2.48,1.93,3.75,2.85c4.771,3.38,10.12,5.83,15.66,7.65
	c0.79-1.45,1.601-2.9,2.4-4.36c-2.811-1.3-5.84-2.31-8.24-4.32c-3.14-3.05-5.54-7.25-4.97-11.77c0.569,0.25,1.729,0.75,2.31,1.01
	c1.47,3.06,3.25,6.27,6.36,7.95c3.8,2.79,9.64,3.97,13.21,0.15c2.75-2.97,5.2-8.64,1.359-11.71c-2.01-1.93-3.97-3.89-5.84-5.95
	l0.05-0.83l0.08-0.91c0.131-0.67,0.391-2.01,0.521-2.68C451.5,28,447.34,26.67,446.62,22.72z"/>
<path fill="#00034C" d="M515.85,28.65c0.471-2.13,1.82-4.31,4.28-4.25c2.57-0.57,3.351,2.39,3.95,4.23
	C521.33,28.73,518.59,28.73,515.85,28.65z"/>
<path fill="#1A1AF6" d="M525.34,47.59c-1.52-7.34-1.22-15.45,2.351-22.2c1.76,0.85,3.449,2.38,5.54,2.15
	c2.01-0.01,4.13-0.75,6.09-0.02c2.66,1.79,3.63,5.18,6.069,7.2c3.41,1.76,7.32,2.07,11,2.99c4.46,3.1,9.08,6.11,12.63,10.27
	c4.16,4.83,6.79,10.7,9.671,16.32c2.67,5.45,5.949,10.67,7.52,16.58c1.63,5.99,2.4,12.18,2.91,18.36
	c-1.08,10.55-0.25,21.18-0.54,31.76c0.07,7.12,0.61,14.33-1.03,21.33c-1.87,7.529,0.2,16.05-4.46,22.779
	c-5.78,8.391-12.16,16.4-19.2,23.771c-3.68,3.979-6.819,8.82-11.939,11.101c-6.57,2.979-13.82,4.18-21,4.479
	c-5.91,0.19-11.7,1.71-17.62,1.69c-9.36-1.711-18.9-0.851-28.35-0.9c-9.79-0.03-19.61,1.561-29.36,0.16
	c-4.311-0.61-8.67-0.35-12.98,0c-7.909-1.86-15.81-3.88-23.43-6.7c-5.75-2.06-10.02-6.59-15.11-9.771
	c-3.55-2.239-7.159-4.39-10.55-6.85c-0.229-6.57-0.34-13.63,3.181-19.449c2.859-4.591,5.689-9.24,9.05-13.5
	c6.529,1.17,9.729,7.84,15.689,10.109c4.61,1.7,9.63,1.189,14.42,0.73c0.351-2.5,0.69-4.99,1.03-7.49
	c-3.58,1.279-7.229,2.449-11,2.96c-1.31-3.63-4.67-5.011-8.22-5.49c-1.49-1.51-5.86-3.39-3.71-5.81
	c6.2-1.601,10.22-7.24,16.47-8.721c1.93,1.32,3.9,2.59,5.9,3.82c0.449-2.04,0.899-4.07,1.35-6.109c5.54,0.489,11.17,1,16.64-0.32
	c3.23-0.62,6.641-1.15,9.41-3.07c3.19-2.13,5.94-4.9,9.33-6.73c2.88-1.6,6.3-1.26,9.48-1.39c3.56-4.75,7.699-9,12.319-12.72
	c2.96-2.27,4.86-5.5,6.32-8.86c0.94-1.35,1.9-2.69,2.89-4.01c1.19-0.64,2.41-1.22,3.641-1.8c1.02,2.39,2.08,4.77,3.25,7.1
	c1.52-4.28-0.55-8.35-1.76-12.38c-1.08-3.25-0.131-6.63,0.899-9.75c1.94-5.13,0.75-10.63-0.2-15.83c4.601-1.06,9.66-0.06,13.971-2.3
	c3.899-2.46,8.369-3.59,12.88-4.3c-0.13-1.94-0.23-3.88-0.431-5.811c-0.659-2.45,0.271-6.49-2.97-7.18
	C530.15,52.57,526.01,51.61,525.34,47.59z"/>
<path fill="#8080DD" d="M424.76,29.01c4.9-1.26,10.59-2.1,14.99,1.04c-4.96,2.95-11.55,2.84-15.56,7.32
	c-0.671,1.02-1.29,2.08-1.9,3.13c-1.63-1.06-3.07-3.11-5.23-2.74c-3.239,0.71-5.79,3.01-8.189,5.15c0.62-1.26,1.24-2.52,1.86-3.78
	c-1.03,0.12-2.051,0.25-3.07,0.37C412.66,35.02,418.34,31.12,424.76,29.01z"/>
<path fill="#B6B7B2" d="M439.15,37.73c1.13-3.25,3.58-5.78,5.689-8.42c2.97,1.46,5.98,2.86,8.93,4.38l-0.05,0.83
	c-2.43-0.47-4.88-1.24-7.37-0.96c-2.729,0.99-4.77,3.22-7.04,4.95L439.15,37.73z"/>
<path fill="#606586" d="M424.19,37.37c4.01-4.48,10.6-4.37,15.56-7.32c-2.44,3.54-4.82,7.13-6.93,10.88
	c1.859,4.47,3.09,9.24,2.779,14.12c-1.399-0.27-2.8-0.53-4.18-0.89c0.72-0.56,1.44-1.12,2.16-1.68c-1.48-4.57-2.28-9.34-2.09-14.14
	C429.05,38.03,426.61,37.71,424.19,37.37z"/>
<path fill="#0C0C10" d="M470.62,31.53c1.17,0.479,2.37,0.91,3.57,1.35c0.689,1.86,1.38,3.73,2.06,5.6c1.37-0.38,2.73-0.75,4.09-1.17
	c3.33,1.92,6.69,3.97,10.49,4.8c2.76,0.65,5.55-0.25,8.229-0.88c4.271-1.17,8.66-1.98,12.78-3.67c2.271-0.93,4.38-2.21,6.59-3.27
	c0.58,0,1.73,0.01,2.311,0.01c1.05,2.73-2.04,4.94-3.28,7.13c1.44,2.69,3.08,5.25,4.59,7.89c0.79,4.04-1.17,7.78-3.319,11.03
	c-2.521,1.17-4.86,2.64-7.311,3.92c-2.84,1.43-6.14,0.64-9.14,1.4c-2.601,1.41-4.7,3.69-7.57,4.63c-1.93-1.82-3.87-3.61-5.78-5.45
	c-3.12-2.22-3.64-6.03-3.34-9.57c0-1.43,0-2.86,0.01-4.29c-1.359,0.33-2.71,0.65-4.05,1.04c-1.06,0.31-2.109,0.64-3.149,0.97
	c-0.101-2.38,1.1-5.73-1.23-7.32c-1.54-1.58-3.64-0.03-5.35,0.4c-1.09-2.44-2.12-4.9-3.34-7.28
	C470.06,36.69,470.68,34.14,470.62,31.53 M503.97,44.78c-4.04,1.56-7.91,3.53-11.95,5.1l0.15,0.79l-0.42-0.95
	c-0.54,1.89-1.56,3.98-0.59,5.92c1.439,4.5,6.53,6.28,10.82,6.53c4.159-0.38,9.77-0.32,11.739-4.85
	c1.471-1.24,3.141-2.48,3.931-4.29c0.359-3.09-1.551-5.72-2.48-8.53C511.44,44.33,507.66,44.23,503.97,44.78z"/>
<path fill="#49509F" d="M502.29,36.61c6.25-1.93,12.43-4.32,19.01-4.89c1.05,4.021-0.02,8.22,0.76,12.271
	c0.591,3.26,2.5,6.08,3.23,9.29c0.35,2.13,0.19,4.31,0.16,6.47c0.39,0.46,1.18,1.39,1.569,1.85c1.65-2.22,3.271-4.46,4.91-6.7
	c1.79,1.77,3.391,3.75,4.42,6.07c0.2,1.93,0.301,3.87,0.431,5.811c-4.511,0.71-8.98,1.84-12.88,4.3c-3.92,1.09-7.87-0.1-11.57-1.35
	c0.97-0.45,1.95-0.9,2.92-1.37c2.19,0.4,4.55,1.66,6.74,0.62c1.41-0.56,2.779-1.23,4.2-1.79c2.189-0.51,4.5-0.61,6.6-1.47
	c2.02-1.87,0.13-4.56-0.46-6.64c-2.13,1.36-4.23,2.75-6.37,4.08l-0.7,0.4c-0.88-2.15-1.76-4.29-2.6-6.45
	c1.689-2.52,0.92-5.43-0.61-7.79c-1.51-2.64-3.149-5.2-4.59-7.89c1.24-2.19,4.33-4.4,3.28-7.13c-0.58,0-1.73-0.01-2.311-0.01
	c-3.87,0.14-7.729,0.96-10.97,3.18c-3.6,0.8-7.18,1.71-10.72,2.76C498.38,38.75,500.1,37.23,502.29,36.61z"/>
<path fill="#F2F2F1" d="M439.31,38.51c2.271-1.729,4.311-3.96,7.04-4.95c2.49-0.28,4.94,0.49,7.37,0.96
	c1.87,2.06,3.83,4.02,5.84,5.95c0.12,1.34,0.25,2.69,0.4,4.03c-2.4-0.29-5.42-2.16-7.44-0.11c-1.609,2.57,0.65,5.53,1.011,8.23
	c-5.761-1.98-9.601-6.71-13.4-11.16C439.82,40.48,439.55,39.5,439.31,38.51z"/>
<path fill="#93959D" d="M507.46,37.47c3.24-2.22,7.1-3.04,10.97-3.18c-2.21,1.06-4.319,2.34-6.59,3.27
	C510.38,37.55,508.92,37.51,507.46,37.47z"/>
<path fill="#44457A" d="M408.87,42.91c2.399-2.14,4.95-4.44,8.189-5.15c2.16-0.37,3.601,1.68,5.23,2.74
	c0.12,1.95,0.38,3.92,0.12,5.87c-1.74,1.39-4.21,1.18-6.3,1.62c0.5,2.29,1,4.58,1.51,6.87c3.86,0.1,7.149-1.91,10.189-4.04
	c1.19,1.12,2.37,2.26,3.61,3.34c1.38,0.36,2.78,0.62,4.18,0.89c-1.38,0.27-2.75,0.55-4.13,0.82c-1.27-0.92-2.51-1.89-3.75-2.85
	c-3.17,1.43-6.68,4.59-10.29,2.81c-3.14-2.35-2.609-6.79-2.35-10.23c2.14-0.07,4.27-0.13,6.41-0.21c-0.79-2.39-1.15-5.37-3.641-6.64
	c-5.47,1.39-10.739,6.87-9.479,12.86c0.42,4.94,4.5,8.16,7.56,11.61c-0.489,0.26-1.47,0.8-1.96,1.061
	c-0.05,0.729-0.149,2.189-0.2,2.92c-1.47-1.84-2.89-3.72-4.34-5.57C408.72,55.4,404.72,48.76,408.87,42.91z"/>
<path fill="#8F90EF" d="M422.29,40.5c0.61-1.05,1.229-2.11,1.9-3.13c2.42,0.34,4.859,0.66,7.3,0.97c-0.19,4.8,0.609,9.57,2.09,14.14
	c-0.72,0.56-1.44,1.12-2.16,1.68c-1.24-1.08-2.42-2.22-3.61-3.34c-3.04,2.13-6.329,4.14-10.189,4.04c-0.51-2.29-1.01-4.58-1.51-6.87
	c2.09-0.44,4.56-0.23,6.3-1.62C422.67,44.42,422.41,42.45,422.29,40.5z"/>
<path fill="#6F6E6D" d="M438.63,44.08c-0.149-2.13-0.01-4.28,0.521-6.35l0.159,0.78c0.24,0.99,0.511,1.97,0.82,2.95
	c0.61,5.05,4.08,8.97,8.69,10.9c-1.29-0.09-2.561-0.2-3.83-0.33C441.88,50.35,440.1,47.14,438.63,44.08z"/>
<path fill="#9192F6" d="M407.66,39.5c1.02-0.12,2.04-0.25,3.07-0.37c-0.62,1.26-1.24,2.52-1.86,3.78
	c-4.15,5.85-0.15,12.49,0.56,18.72c-5.359,9.72-13.949,20.11-10.239,31.94c-0.49,4.82-0.65,9.66-0.421,14.49
	c0.391,4.69-2.34,8.87-2.289,13.53c1.989-0.33,3.979-0.68,5.979-1.02c1.28,1.56,2.55,3.14,3.93,4.63
	c2.37,2.159,5.03,3.979,7.79,5.61c3.011,1.729,6.24,3.039,9.28,4.72c0.42,1.17,0.84,2.329,1.271,3.5
	c-5.19,3.38-9.961,8.02-16.32,8.989c-1.95-5.619-0.55-11.41,1.49-16.77c-1.04-0.561-2.061-1.12-3.091-1.67
	c-5.729,6.4-3.72,15.7-2.989,23.46c-1.95-0.63-3.9-1.24-5.801-1.96c-2.43-2.32-5.239-4.4-6.899-7.37
	c-1.061-3.61-0.48-7.46-0.76-11.16c-1.67,1.06-3.681,2.15-3.78,4.4c-0.93,7.13,3.26,14.54,9.6,17.83
	c1.41,0.829,2.83,1.649,4.261,2.46c-0.07,0.91-0.141,1.81-0.19,2.72c-7.38,6.84-9.72,16.92-12.23,26.25
	c-7.539-7.55-11.359-17.61-16.84-26.55c-0.17-0.59-0.51-1.78-0.68-2.37c-0.1-6.17-2.15-12.11-2.07-18.29
	c-0.02-5.58,0.09-11.17,0.23-16.75c1.99-5.85,5.18-11.14,8.05-16.57c1.82-3.22-0.49-6.68-1.45-9.78c0.2-0.42,0.62-1.27,0.83-1.69
	c1,1,2,2.01,3.021,3.01c1.1-0.29,2.199-0.57,3.31-0.86c1.42-6.81,2.75-14.02,1.271-20.93c-1.061,2.43-2.051,4.9-2.801,7.45
	c-0.13-2.51-0.46-5-0.8-7.48c5.601-7.31,11.32-14.56,15.87-22.59c1.07-0.18,2.14-0.35,3.22-0.53c-2.43,7.54-7.729,13.6-11.13,20.67
	c0.54,0.32,1.601,0.94,2.13,1.25c3.94-5.22,6.88-11.09,10.261-16.66c2.329-3.68,1.29-8.14,0.869-12.18
	C403.34,43.32,405.51,41.41,407.66,39.5 M394.25,127.25c-1.76,1.09-0.56,3.18-0.35,4.74c2.649-0.75,6.069-1.28,6.069-4.73
	C398.13,127,395.81,125.63,394.25,127.25z"/>
<path fill="#565559" d="M459.56,40.47c3.841,3.07,1.391,8.74-1.359,11.71c-3.57,3.82-9.41,2.64-13.21-0.15
	c1.27,0.13,2.54,0.24,3.83,0.33c1.56,0.14,3.13,0.2,4.71,0.26c-0.36-2.7-2.62-5.66-1.011-8.23c2.021-2.05,5.04-0.18,7.44,0.11
	C459.81,43.16,459.68,41.81,459.56,40.47z"/>
<path fill="#AAA9AA" d="M440.13,41.46c3.8,4.45,7.64,9.18,13.4,11.16c-1.58-0.06-3.15-0.12-4.71-0.26
	C444.21,50.43,440.74,46.51,440.13,41.46z"/>
<path fill="#E6E7E6" d="M503.97,44.78c3.69-0.55,7.471-0.45,11.2-0.28c0.93,2.81,2.84,5.44,2.48,8.53
	c-0.79,1.81-2.46,3.05-3.931,4.29c-4.739,1.92-9.819,2.63-14.91,2.35c0.96-2.04,1.921-4.09,2.86-6.15
	c-2.93-0.94-6.01-1.13-9.03-0.55c-0.149-0.77-0.31-1.54-0.47-2.3l-0.15-0.79C496.06,48.31,499.93,46.34,503.97,44.78z"/>
<path fill="#6161AE" d="M395.96,52.81c1.55-2.64,3.24-5.22,5.35-7.45c0.421,4.04,1.46,8.5-0.869,12.18
	c-3.381,5.57-6.32,11.44-10.261,16.66c-0.529-0.31-1.59-0.93-2.13-1.25c3.4-7.07,8.7-13.13,11.13-20.67
	C398.1,52.46,397.03,52.63,395.96,52.81z"/>
<path fill="#5D5F96" d="M471.82,46.08c1.71-0.43,3.81-1.98,5.35-0.4c2.33,1.59,1.13,4.94,1.23,7.32c-1.44,5.21-3.2,12.12-9.45,13.22
	c-2.13,0.58-4.26,1.13-6.42,1.54l-0.98-0.03c3.15-4.21,10.13-1.75,12.34-6.81c1.91-3.47,2.771-7.45,2.9-11.38
	c-0.04-1.02,0.14-2.29-0.92-2.85c-3.22,0.7-6.22,2.11-9.29,3.24c0.5,1.68,1,3.37,1.5,5.05c-4.1,3.39-8.3,6.68-12.94,9.3l0.551-0.6
	c2.29-2.73,5.1-4.95,7.659-7.4c2.341-1.89,1.73-5.18,2.03-7.82C467.52,47.67,469.68,46.9,471.82,46.08z"/>
<path fill="#908FF2" d="M466.58,49.93c3.07-1.13,6.07-2.54,9.29-3.24c1.06,0.56,0.88,1.83,0.92,2.85c-0.13,3.93-0.99,7.91-2.9,11.38
	c-2.21,5.06-9.189,2.6-12.34,6.81c0.72,1.83,1.48,3.65,2.141,5.5c-0.261,0.22-0.79,0.66-1.051,0.88c-2.87-0.44-5.67-1.15-8.449-1.96
	c-2.591-0.75-5.2-1.44-7.82-2.02c1.3-1.01,2.62-2.02,3.979-2.96c1.641-0.89,3.24-1.85,4.79-2.89c4.641-2.62,8.841-5.91,12.94-9.3
	C467.58,53.3,467.08,51.61,466.58,49.93z"/>
<path fill="#403F49" d="M522.05,49.32c1.53,2.36,2.3,5.27,0.61,7.79c-1.25,2.47-2.59,4.89-3.771,7.39
	c2.15-0.01,4.351-0.09,6.37-0.94l0.7-0.4c0.07,1.34,0.15,2.68,0.23,4.03c-1.421,0.56-2.79,1.23-4.2,1.79
	c-2.19,1.04-4.55-0.22-6.74-0.62c-0.97,0.47-1.95,0.92-2.92,1.37c-1.74,0.13-3.47,0.28-5.19,0.43c0.49-1.14,0.99-2.28,1.49-3.41
	c1.851,0.09,3.7,0.17,5.55,0.27c1.57-2.19,3.11-4.39,4.551-6.67C520.88,57.1,522.84,53.36,522.05,49.32z"/>
<path fill="#656566" d="M491.75,49.72l0.42,0.95c0.16,0.76,0.32,1.53,0.47,2.3c3.021-0.58,6.101-0.39,9.03,0.55
	c-0.939,2.06-1.9,4.11-2.86,6.15c5.091,0.28,10.171-0.43,14.91-2.35c-1.97,4.53-7.58,4.47-11.739,4.85
	c-4.29-0.25-9.381-2.03-10.82-6.53C490.19,53.7,491.21,51.61,491.75,49.72z"/>
<path fill="#A8ACAC" d="M481.55,52.03c1.34-0.39,2.69-0.71,4.05-1.04c-0.01,1.43-0.01,2.86-0.01,4.29c-0.8,0.09-1.59,0.18-2.37,0.27
	C482.66,54.37,482.1,53.2,481.55,52.03z"/>
<path fill="#35396B" d="M478.4,53c1.04-0.33,2.09-0.66,3.149-0.97c0.55,1.17,1.11,2.34,1.67,3.52c0.78-0.09,1.57-0.18,2.37-0.27
	c-0.3,3.54,0.22,7.35,3.34,9.57c-0.739,0.07-2.22,0.22-2.96,0.29c-0.67-1.16-1.35-2.3-2.04-3.43c-0.81-1.29-1.66-2.54-2.5-3.79
	c-3.26,3.79-5.62,8.29-6.26,13.29c-1.95-1.82-4.06-3.44-6.22-4.99C475.2,65.12,476.96,58.21,478.4,53z"/>
<path fill="#ABA8B4" d="M518.89,64.5c1.181-2.5,2.521-4.92,3.771-7.39c0.84,2.16,1.72,4.3,2.6,6.45
	C523.24,64.41,521.04,64.49,518.89,64.5z"/>
<path fill="#201FE1" d="M481.43,57.92c0.84,1.25,1.69,2.5,2.5,3.79c-0.239,2.22-0.64,4.46-0.42,6.7c0.96,1.98,3.54,1.51,5.351,1.92
	c1.359,0.1,2.729,0.16,4.109,0.22c2.92,0.29,5.82,0.78,8.73,1.23c-0.21,4.27-0.12,8.54-0.07,12.81c-3.64-0.49-6.92-2.15-9.57-4.66
	c-4.75-4.65-12.649-3.28-16.89-8.72C475.81,66.21,478.17,61.71,481.43,57.92z"/>
<path fill="#1C1F4F" d="M525.96,63.16c2.14-1.33,4.24-2.72,6.37-4.08c0.59,2.08,2.479,4.77,0.46,6.64c-2.1,0.86-4.41,0.96-6.6,1.47
	C526.11,65.84,526.03,64.5,525.96,63.16z"/>
<path fill="#252627" d="M511.42,64.27c2.45-1.28,4.79-2.75,7.311-3.92c-1.44,2.28-2.98,4.48-4.551,6.67
	c-1.85-0.1-3.699-0.18-5.55-0.27c-0.5,1.13-1,2.27-1.49,3.41c-0.35,0.78-0.689,1.57-1.029,2.36c-1.471-0.25-2.95-0.5-4.41-0.74
	c-2.91-0.45-5.811-0.94-8.73-1.23c0.431-0.06,1.3-0.19,1.74-0.25c2.87-0.94,4.97-3.22,7.57-4.63
	C505.28,64.91,508.58,65.7,511.42,64.27z"/>
<path fill="#08080A" d="M399.19,93.57c-3.71-11.83,4.88-22.22,10.239-31.94c1.45,1.85,2.87,3.73,4.34,5.57
	c0.801,0.92,1.61,1.82,2.45,2.71c-2.47,0.42-4.91,1.05-7.279,1.85c-2.221,0.95-3,3.41-3.71,5.521c-1.021,3.49-1.91,7.04-2.631,10.61
	c-0.47,2.17-0.189,4.37,0.21,6.52c3.99-2.44,7.61-5.42,11.511-8c0.29,1.51,0.58,3.02,0.92,4.51c0.31-0.01,0.91-0.04,1.21-0.05
	c0.88-0.08,2.62-0.25,3.5-0.34c1.899-0.24,3.8-0.55,5.7-0.88c0.83,1.71,1.659,3.41,2.51,5.12c0.54-0.18,1.63-0.53,2.17-0.71
	c2.38-0.61,4.8-1.08,7.22-1.55c1.24,1.64,2.49,3.28,3.771,4.9c3.62-0.13,7.96-0.67,10.149,2.97l0.471,0.75
	c0.579,0.95,1.149,1.91,1.72,2.88c3.03-0.729,5.979-1.74,8.79-3.09c0.67,2.12,1.359,4.24,2.2,6.31l0.819,0.36
	c2.49,1.37,5.37,1.37,8.141,1.4c1.04,2.12,2.069,4.24,3.13,6.36c0.43-0.14,1.279-0.4,1.71-0.54l0.92-0.29
	c1.81,0.05,3.63,0.17,5.45,0.28c0.54-0.83,1.09-1.66,1.66-2.47c0.27-0.34,0.8-1.02,1.069-1.36c3.63-2.57,7.99-5.78,7.641-10.8
	c-1.66-1.89-3.95-3.03-6.15-4.14c-0.31-0.14-0.92-0.43-1.22-0.57c-4.9-3.01-10.311-5.04-15.86-6.46c-0.35-0.23-1.05-0.68-1.4-0.91
	c-1.439-1.45-3.04-2.73-4.67-3.96c4.851,1.91,10.261,3.91,15.4,1.74c0.44,0.25,1.32,0.76,1.77,1.01c3.881,3.11,7.44,6.68,11.73,9.24
	c3.58,1.74,7.69,1.78,11.53,2.67c-2.53,5.07-5.88,9.66-9.61,13.9c-3.45,3.86-6.82,8.3-11.979,9.871
	c-3.511,1.049-6.601,3.08-9.091,5.739c-1.77,1.681-3.609,3.3-5.51,4.841c-1.22,0.1-2.439,0.209-3.649,0.329
	c2.47-3.61,5.829-6.62,7.8-10.56c0.109-1.99-0.82-3.85-1.311-5.74c-3.13,1.24-5.42,3.7-7.38,6.33c-0.33-0.65-0.649-1.3-0.96-1.95
	c-0.439,1.07-0.77,2.19-1.34,3.2c0.66-2.66-0.38-5.24-1.13-7.75c-5.2,2.01-8.16,6.7-10.98,11.189
	c-0.489-1.149-0.979-2.299-1.46-3.449c3.521-3.71,3.561-9,1.75-13.55c-1.75,0.59-3.489,1.2-5.229,1.8
	c-3.29-1.73-5.141-5.03-7.2-7.96c-2.17,1.01-4.6,1.93-5.71,4.229c-0.2,0.34-0.6,1.03-0.811,1.37c-1.06-0.83-2.119-1.65-3.14-2.52
	c-1.3-1.91-2.26-4.01-3.24-6.09c-2.609,0.25-4.54,2.01-5.51,4.38c-0.72-2.53-1.6-5-2.46-7.48c-3.439-0.51-6.85-1.32-10.33-1.56
	c-2.7-0.25-4.54,2.17-6.49,3.63c-0.51-2.24-1.21-4.43-1.93-6.6L399.19,93.57z"/>
<path fill="#4549B4" d="M483.93,61.71c0.69,1.13,1.37,2.27,2.04,3.43c0.971,1.73,1.931,3.46,2.891,5.19
	c-1.811-0.41-4.391,0.06-5.351-1.92C483.29,66.17,483.69,63.93,483.93,61.71z"/>
<path fill="#C8C9CD" d="M413.97,64.28c0.49-0.26,1.471-0.8,1.96-1.061c6.04,0.99,12.471-0.939,18.21,1.69
	c-0.529,0.63-1.59,1.9-2.12,2.53c-6.06,0.6-12.199,0.4-18.25-0.24C413.82,66.47,413.92,65.01,413.97,64.28z"/>
<path fill="#4F5364" d="M434.14,64.91c7.021,2.86,14.511,0.03,21.551-1.23l-0.551,0.6c-1.55,1.04-3.149,2-4.79,2.89
	c-3.369-0.02-6.859-0.13-9.92,1.51c1.96,0.54,3.94,1,5.94,1.45c2.62,0.58,5.229,1.27,7.82,2.02c0.18,0.36,0.54,1.08,0.72,1.43
	c-1.811,0.88-3.521,1.96-4.79,3.54c-0.34-0.07-1.03-0.19-1.38-0.25c-2.66-2.5-4.431-6.59-8.471-7c-7.96-1.06-16.079-0.74-24.05,0.04
	c-0.84-0.89-1.649-1.79-2.45-2.71c6.051,0.64,12.19,0.84,18.25,0.24C432.55,66.81,433.61,65.54,434.14,64.91z"/>
<path fill="#9798C4" d="M485.97,65.14c0.74-0.07,2.221-0.22,2.96-0.29c1.91,1.84,3.851,3.63,5.78,5.45
	c-0.44,0.06-1.31,0.19-1.74,0.25c-1.38-0.06-2.75-0.12-4.109-0.22C487.9,68.6,486.94,66.87,485.97,65.14z"/>
<path fill="#060713" d="M462.53,67.76c2.16-0.41,4.29-0.96,6.42-1.54c2.16,1.55,4.27,3.17,6.22,4.99
	c4.24,5.44,12.14,4.07,16.89,8.72c2.65,2.51,5.931,4.17,9.57,4.66c-0.05-4.27-0.14-8.54,0.07-12.81c1.46,0.24,2.939,0.49,4.41,0.74
	c2.1,4.91,5.04,10.65,2.479,15.95c-1.78,4.17-7.25,3.86-10.859,2.72c-5.24-2.5-8.78-7.61-14.261-9.74
	c-4.56-2.59-9.739-3.59-14.88-4.23C466.53,74.09,464.64,70.86,462.53,67.76z"/>
<path fill="#6E71A7" d="M440.43,68.68c3.061-1.64,6.551-1.53,9.92-1.51c-1.359,0.94-2.68,1.95-3.979,2.96
	C444.37,69.68,442.39,69.22,440.43,68.68z"/>
<path fill="#323545" d="M461.55,67.73l0.98,0.03c2.109,3.1,4,6.33,6.06,9.46c5.141,0.64,10.32,1.64,14.88,4.23
	c-0.71-0.12-2.14-0.36-2.85-0.48c-3.75-0.71-7.521-1.37-11.34-1.46c-3.261-0.67-6.38-1.84-9.46-3.08c0.93-0.78,1.87-1.55,2.819-2.32
	c0.261-0.22,0.79-0.66,1.051-0.88C463.03,71.38,462.27,69.56,461.55,67.73z"/>
<path fill="#14156C" d="M582.91,68.1c5.89,6.02,7.26,14.82,8.06,22.86c0.851,5.69-0.59,11.35-0.45,17.04
	c0.24,11.34-0.159,22.68,0.2,34.01c0.311,5.87-2.27,11.36-2.38,17.19c-0.189,3.95,0.311,8.1-1.359,11.81
	c-3.311,7.521-8.851,13.7-13.87,20.1c-3.58,4.721-8.271,8.451-11.82,13.201c-6.7,9.069-18.78,11.229-29.32,11.97
	c-5.46-0.19-10.47,2.54-15.92,2.38c-7.02,0-14.03-0.12-21.05-0.08c-5.68,0.04-11.29,1.16-16.98,1.07
	c-8.1-0.101-16.21,0.55-24.31-0.021c-5.21-0.25-9.99-2.6-15.12-3.33c-7.88-1.27-15.5-3.87-22.71-7.229
	c-4.6-2.15-8.2-5.84-12.58-8.34c-4.3-2.7-9.6-4.871-11.56-9.971c0.45,0.33,1.359,1,1.81,1.33c3.391,2.46,7,4.61,10.55,6.85
	c5.091,3.181,9.36,7.711,15.11,9.771c7.62,2.82,15.521,4.84,23.43,6.7c5.521,2.17,11.41,3.35,17.36,2.88
	c8.56-0.67,17.18-0.22,25.71-1.33c9.16-1.14,18.42-0.21,27.62-0.81c5.92,0.02,11.71-1.5,17.62-1.69c7.18-0.3,14.43-1.5,21-4.479
	c5.12-2.28,8.26-7.121,11.939-11.101c7.04-7.37,13.42-15.38,19.2-23.771c4.66-6.729,2.59-15.25,4.46-22.779
	c1.641-7,1.101-14.21,1.03-21.33c0.29-10.58-0.54-21.21,0.54-31.76C591.54,88.37,587.11,77.88,582.91,68.1z"/>
<path fill="#24242E" d="M416.22,69.91c7.971-0.78,16.09-1.1,24.05-0.04c4.04,0.41,5.811,4.5,8.471,7c-3.05,0-6.82-0.59-8.721,2.42
	c-0.069-1.79-0.26-3.57-0.409-5.35c-2.9-0.3-5.63,0.61-8.181,1.89c-2.529-1.03-5.21-1.59-7.91-1.96c-4.8-1.06-9.64-2.14-14.579-2.11
	C411.31,70.96,413.75,70.33,416.22,69.91z"/>
<path fill="#2322A8" d="M507.14,70.16c1.721-0.15,3.45-0.3,5.19-0.43c3.7,1.25,7.65,2.44,11.57,1.35
	c-4.311,2.24-9.37,1.24-13.971,2.3c0.95,5.2,2.141,10.7,0.2,15.83c-3.17,4.12-8.689,4.1-13.35,4.87c1.1,0.77,2.21,1.53,3.319,2.3
	c-3.319,0.02-5.899-2.19-8.34-4.13c-2.66-2.17-5.7-3.76-8.7-5.37c-0.449-0.25-1.329-0.76-1.77-1.01l-0.79-0.42
	c0.03-1.49,0.07-2.98,0.12-4.48c0.71,0.12,2.14,0.36,2.85,0.48c5.48,2.13,9.021,7.24,14.261,9.74c3.609,1.14,9.079,1.45,10.859-2.72
	c2.561-5.3-0.38-11.04-2.479-15.95C506.45,71.73,506.79,70.94,507.14,70.16z"/>
<path fill="#83838A" d="M405.23,77.28c0.71-2.11,1.489-4.57,3.71-5.521c4.939-0.03,9.779,1.05,14.579,2.11l0.75,0.47
	c-1.869,1.06-3.71,2.14-5.52,3.27c0.06-0.55,0.19-1.64,0.26-2.19c-1.05,0.48-2.09,0.97-3.13,1.45c0.271-1.03,0.54-2.06,0.82-3.09
	c-2.67-0.21-5.37-0.561-8.04-0.16c-3.36,4.58-3.48,10.58-4.72,15.94c0.529,0.47,1.6,1.41,2.13,1.88c-0.61,0.34-1.851,1.01-2.46,1.35
	c-0.37-1.63-0.73-3.26-1.011-4.9C403.32,84.32,404.21,80.77,405.23,77.28z"/>
<path fill="#888999" d="M454.19,72.15c2.779,0.81,5.579,1.52,8.449,1.96c-0.949,0.77-1.89,1.54-2.819,2.32
	c3.08,1.24,6.199,2.41,9.46,3.08c-2.391-0.09-4.78-0.12-7.16-0.16c0.93,0.94,1.86,1.88,2.84,2.79l-0.72-0.3
	c-4.58-1.92-9.23-3.78-14.12-4.72c1.27-1.58,2.979-2.66,4.79-3.54C454.73,73.23,454.37,72.51,454.19,72.15z"/>
<path fill="#F3F2F5" d="M408.66,73.62c2.67-0.4,5.37-0.05,8.04,0.16c-0.28,1.03-0.55,2.06-0.82,3.09c-0.95,4.45-2.3,9.2-6.61,11.52
	c0.44-2.91,1.24-5.81,0.961-8.78c-3.36,2.96-3.25,7.79-4.16,11.83c-0.53-0.47-1.601-1.41-2.13-1.88
	C405.18,84.2,405.3,78.2,408.66,73.62z"/>
<path fill="#5A5A5C" d="M423.52,73.87c2.7,0.37,5.381,0.93,7.91,1.96c2.551-1.28,5.28-2.19,8.181-1.89
	c0.149,1.78,0.34,3.56,0.409,5.35l-0.069,0.8c-0.09,4.92-1.47,10.52-6.63,12.38c3.739-2.76,5.12-7.33,6.37-11.59
	c-2.48-1.49-5.2-2.5-8.08-2.78c-1.431,4.82-4.471,9.86-2.811,14.98c0.54,0.17,1.63,0.5,2.181,0.66l-0.65,0.32
	c-0.54,0.18-1.63,0.53-2.17,0.71c-0.851-1.71-1.68-3.41-2.51-5.12c-1.9,0.33-3.801,0.64-5.7,0.88c4.97-2.84,6.91-8.5,8.08-13.771
	c-1.271-0.8-2.521-1.61-3.761-2.42L423.52,73.87z"/>
<path fill="#3A3A3E" d="M415.88,76.87c1.04-0.48,2.08-0.97,3.13-1.45c-0.069,0.55-0.2,1.64-0.26,2.19c-0.47,4.48-2.5,8.7-2.3,13.26
	c-0.3,0.01-0.9,0.04-1.21,0.05c-0.34-1.49-0.63-3-0.92-4.51c-3.9,2.58-7.521,5.56-11.511,8c-0.399-2.15-0.68-4.35-0.21-6.52
	c0.28,1.64,0.641,3.27,1.011,4.9c0.609-0.34,1.85-1.01,2.46-1.35c0.91-4.04,0.8-8.87,4.16-11.83c0.279,2.97-0.521,5.87-0.961,8.78
	C413.58,86.07,414.93,81.32,415.88,76.87z"/>
<path fill="#F5F6F6" d="M418.75,77.61c1.81-1.13,3.65-2.21,5.52-3.27c1.24,0.81,2.49,1.62,3.761,2.42
	c-1.17,5.271-3.11,10.93-8.08,13.771c-0.88,0.09-2.62,0.26-3.5,0.34C416.25,86.31,418.28,82.09,418.75,77.61z"/>
<path fill="#9D9EF3" d="M380.09,75.4c0.34,2.48,0.67,4.97,0.8,7.48c-0.43,1.51-0.87,3.02-1.37,4.5c-1.14,2.28-2.289,4.55-3.43,6.83
	c-0.21,0.42-0.63,1.27-0.83,1.69c0.96,3.1,3.271,6.56,1.45,9.78c-2.87,5.43-6.06,10.72-8.05,16.57
	c-0.101-8.77-0.32-17.54-0.17-26.31C368.5,87.5,375.56,81.75,380.09,75.4z"/>
<path fill="#7275DE" d="M383.69,75.43c1.479,6.91,0.149,14.12-1.271,20.93c-0.26-4.09-0.09-8.19,0.14-12.28
	c-1.029,1.08-2.069,2.17-3.04,3.3c0.5-1.48,0.94-2.99,1.37-4.5C381.64,80.33,382.63,77.86,383.69,75.43z"/>
<path fill="#151416" d="M440.02,79.29c1.9-3.01,5.671-2.42,8.721-2.42c0.35,0.06,1.04,0.18,1.38,0.25c4.89,0.94,9.54,2.8,14.12,4.72
	c0.02,0.54,0.06,1.61,0.08,2.15c-1.051,0.11-2.101,0.2-3.141,0.28c-7.06-1.47-13.779-6.26-21.229-4.18L440.02,79.29z"/>
<path fill="#F6F6F8" d="M431.61,78.1c2.88,0.28,5.6,1.29,8.08,2.78c-1.25,4.26-2.631,8.83-6.37,11.59
	c-0.59,0.32-1.75,0.95-2.34,1.271c-0.551-0.16-1.641-0.49-2.181-0.66C427.14,87.96,430.18,82.92,431.61,78.1z"/>
<path fill="#49494A" d="M439.95,80.09c7.45-2.08,14.17,2.71,21.229,4.18c-2.14,0.1-4.279,0.14-6.42,0.19
	c-1.149,5.29-3.59,10.39-3.29,15.92c-2.189-3.64-6.529-3.1-10.149-2.97c-1.28-1.62-2.53-3.26-3.771-4.9
	c-2.42,0.47-4.84,0.94-7.22,1.55l0.65-0.32c0.59-0.32,1.75-0.95,2.34-1.271C438.48,90.61,439.86,85.01,439.95,80.09 M440.44,95.48
	c2.529,1.19,5.199,0.36,7.76-0.26c1.569-4.29,2.81-8.729,2.43-13.34c-2.55-0.26-5.11-0.43-7.67-0.47
	C441.95,86.08,439.65,90.58,440.44,95.48z"/>
<path fill="#B4B4B7" d="M462.12,79.35c2.38,0.04,4.77,0.07,7.16,0.16c3.819,0.09,7.59,0.75,11.34,1.46
	c-0.05,1.5-0.09,2.99-0.12,4.48c-5.23-0.87-10.71-0.82-15.54-3.31C463.98,81.23,463.05,80.29,462.12,79.35z"/>
<path fill="#F6F5F8" d="M440.44,95.48c-0.79-4.9,1.51-9.4,2.52-14.07c2.56,0.04,5.12,0.21,7.67,0.47c0.38,4.61-0.86,9.05-2.43,13.34
	C445.64,95.84,442.97,96.67,440.44,95.48z"/>
<path fill="#4A494E" d="M464.24,81.84l0.72,0.3c4.83,2.49,10.31,2.44,15.54,3.31l0.79,0.42c-5.14,2.17-10.55,0.17-15.4-1.74
	c1.63,1.23,3.23,2.51,4.67,3.96c-0.68,0.21-2.04,0.62-2.71,0.83c-1.18,6.09-3.64,12-3.199,18.31c-0.841-2.07-1.53-4.19-2.2-6.31
	c-2.811,1.35-5.76,2.36-8.79,3.09c-0.57-0.97-1.141-1.93-1.72-2.88c2.8,0.84,5.97,0.78,8.52-0.78c2.6-3.99,3.37-8.82,4.45-13.38
	c-1.25-0.9-2.5-1.79-3.73-2.7c1.04-0.08,2.09-0.17,3.141-0.28C464.3,83.45,464.26,82.38,464.24,81.84z"/>
<path fill="#3A37C5" d="M379.52,87.38c0.971-1.13,2.011-2.22,3.04-3.3c-0.229,4.09-0.399,8.19-0.14,12.28
	c-1.11,0.29-2.21,0.57-3.31,0.86c-1.021-1-2.021-2.01-3.021-3.01C377.23,91.93,378.38,89.66,379.52,87.38z"/>
<path fill="#F6F6F5" d="M454.76,84.46c2.141-0.05,4.28-0.09,6.42-0.19c1.23,0.91,2.48,1.8,3.73,2.7
	c-1.08,4.561-1.851,9.39-4.45,13.38c-2.55,1.56-5.72,1.62-8.52,0.78l-0.471-0.75C451.17,94.85,453.61,89.75,454.76,84.46z"/>
<path fill="#222264" d="M483.06,86.88c3,1.61,6.04,3.2,8.7,5.37c2.44,1.94,5.021,4.15,8.34,4.13c2.721,0.19,5.44,0.35,8.16,0.62
	c-1.06,3.15-2.31,6.26-4.16,9.04c-0.989,1.32-1.949,2.66-2.89,4.01c-5.979,6.95-13.5,12.36-19.36,19.41
	c-2.069-0.39-4.14-0.78-6.21-1.16c2.49-2.659,5.58-4.69,9.091-5.739c5.159-1.57,8.529-6.011,11.979-9.871
	c3.73-4.24,7.08-8.83,9.61-13.9c-3.84-0.89-7.95-0.93-11.53-2.67C490.5,93.56,486.94,89.99,483.06,86.88z"/>
<path fill="#F6F6F7" d="M467.85,88.92c0.67-0.21,2.03-0.62,2.71-0.83c0.351,0.23,1.051,0.68,1.4,0.91c1.31,0.93,2.61,1.88,3.92,2.81
	c-0.49,4.81-1.07,9.73-3.07,14.18c-1.939,1.76-4.92,1.32-7.34,1.6l-0.819-0.36C464.21,100.92,466.67,95.01,467.85,88.92z"/>
<path fill="#3E3E40" d="M471.96,89c5.55,1.42,10.96,3.45,15.86,6.46c-2.67-0.51-5.33-0.98-8.021-1.32
	c-0.89,5.35-3.439,10.38-3.54,15.85c-0.21,1.93,1.19,3.35,2.19,4.82c-0.431,0.14-1.28,0.4-1.71,0.54
	c-1.061-2.12-2.09-4.24-3.13-6.36c-2.771-0.03-5.65-0.03-8.141-1.4c2.42-0.28,5.4,0.16,7.34-1.6c2-4.45,2.58-9.37,3.07-14.18
	C474.57,90.88,473.27,89.93,471.96,89z"/>
<path fill="#1C1CC4" d="M496.78,94.08c4.66-0.77,10.18-0.75,13.35-4.87c-1.03,3.12-1.979,6.5-0.899,9.75
	c1.21,4.03,3.279,8.1,1.76,12.38c-1.17-2.33-2.23-4.71-3.25-7.1c-1.23,0.58-2.45,1.16-3.641,1.8c1.851-2.78,3.101-5.89,4.16-9.04
	c-2.72-0.27-5.439-0.43-8.16-0.62C498.99,95.61,497.88,94.85,496.78,94.08z"/>
<path fill="#3835BA" d="M399.19,93.57l0.229,0.82c0.64,7.65-0.55,15.45,1.29,23c0.54,1.08,1.14,2.13,1.75,3.18
	c-2,0.34-3.99,0.689-5.979,1.02c-0.051-4.66,2.68-8.84,2.289-13.53C398.54,103.23,398.7,98.39,399.19,93.57z"/>
<path fill="#0E1031" d="M399.42,94.39c0.72,2.17,1.42,4.36,1.93,6.6c0.521,2.22,1.03,4.45,1.58,6.67c1.811-1.38,3.62-2.76,5.45-4.11
	c-0.1,0.6-0.29,1.8-0.39,2.39c-0.8,1.4-1.62,2.78-2.46,4.15c-1.53,2.48-3.05,4.97-4.82,7.3
	C398.87,109.84,400.06,102.04,399.42,94.39z"/>
<path fill="#F3F3F2" d="M479.8,94.14c2.69,0.34,5.351,0.81,8.021,1.32c0.3,0.14,0.91,0.43,1.22,0.57
	c-3.5,6.02-6.09,12.51-9.67,18.49l-0.92,0.29c-1-1.47-2.4-2.89-2.19-4.82C476.36,104.52,478.91,99.49,479.8,94.14z"/>
<path fill="#353537" d="M489.04,96.03c2.2,1.11,4.49,2.25,6.15,4.14c0.35,5.02-4.011,8.23-7.641,10.8
	c2.44-3.63,7.94-7.47,4.561-12.26c-2.7,4-6.86,8.39-5.63,13.62c-0.57,0.81-1.12,1.64-1.66,2.47c-1.82-0.11-3.641-0.23-5.45-0.28
	C482.95,108.54,485.54,102.05,489.04,96.03z"/>
<path fill="#2A2B3D" d="M401.35,100.99c1.95-1.46,3.79-3.88,6.49-3.63c3.48,0.24,6.891,1.05,10.33,1.56
	c0.86,2.48,1.74,4.95,2.46,7.48c-0.66,4.3-2.99,8-5.99,11.05c-0.84-1-1.67-2.01-2.489-3.02c3.29-3.98,5.93-8.79,5.6-14.12
	c-1.92,0.02-3.84-0.04-5.73,0.23c-1.619,1.57-2.819,3.51-4.029,5.4c0.1-0.59,0.29-1.79,0.39-2.39c-1.83,1.35-3.64,2.73-5.45,4.11
	C402.38,105.44,401.87,103.21,401.35,100.99 M403.01,101.23c-1.13,1.52,0.37,3.24,0.771,4.73c1.96-2.53,3.779-5.19,5.22-8.06
	C406.95,98.83,404.23,99.12,403.01,101.23z"/>
<path fill="#C8C9CD" d="M403.01,101.23c1.221-2.11,3.94-2.4,5.99-3.33c-1.44,2.87-3.26,5.53-5.22,8.06
	C403.38,104.47,401.88,102.75,403.01,101.23z"/>
<path fill="#E7E7E9" d="M486.48,112.33c-1.23-5.23,2.93-9.62,5.63-13.62c3.38,4.79-2.12,8.63-4.561,12.26
	C487.28,111.31,486.75,111.99,486.48,112.33z"/>
<path fill="#EFF1F4" d="M407.99,105.94c1.21-1.89,2.41-3.83,4.029-5.4c1.891-0.27,3.811-0.21,5.73-0.23
	c0.33,5.33-2.31,10.14-5.6,14.12c-0.761,0.98-1.521,1.95-2.271,2.92c-1.53-0.44-3.05-0.88-4.56-1.31c0.09-1.99,0.149-3.97,0.21-5.95
	C406.37,108.72,407.19,107.34,407.99,105.94z"/>
<path fill="#F2F4F4" d="M420.63,106.4c0.97-2.37,2.9-4.13,5.51-4.38c0.98,2.08,1.94,4.18,3.24,6.09c-1.49,5.98-4.71,11.3-7.33,16.82
	c-2.8-1.06-5.37-2.619-7.99-4.029c0.181-1.15,0.381-2.3,0.58-3.45C417.64,114.4,419.97,110.7,420.63,106.4z"/>
<path fill="#4E4E51" d="M433.33,109.26c1.11-2.3,3.54-3.22,5.71-4.229c2.06,2.93,3.91,6.229,7.2,7.96
	c-3.931,6.2-8.101,12.21-12.4,18.16c-1.47-0.58-2.939-1.15-4.359-1.82c4.14-2.07,6.55-6.189,8.89-9.99
	c1.27-2.34,2.74-4.71,3.14-7.39c-0.17-1.89-1.41-3.44-2.2-5.11C437.3,107.62,435.28,108.37,433.33,109.26z"/>
<path fill="#F6F6F6" d="M433.33,109.26c1.95-0.89,3.97-1.64,5.979-2.42c0.79,1.67,2.03,3.22,2.2,5.11
	c-0.399,2.68-1.87,5.05-3.14,7.39c-2.34,3.801-4.75,7.92-8.89,9.99c-1.12-1.76-2.131-3.57-3.16-5.37
	c2.239-4.36,4.47-8.74,6.199-13.33C432.73,110.29,433.13,109.6,433.33,109.26z"/>
<path fill="#333237" d="M429.38,108.11c1.021,0.87,2.08,1.69,3.14,2.52c-1.729,4.59-3.96,8.97-6.199,13.33
	c1.029,1.8,2.04,3.61,3.16,5.37c1.42,0.67,2.89,1.24,4.359,1.82c0.48,0.18,1.45,0.529,1.93,0.709
	c-4.88,2.461-8.899-2.079-13.6-2.449c-2.36,1.83-5.27,1.72-8,0.9c0.86-3.69-1.36-6.631-4.03-8.891
	c-0.189-0.82-0.359-1.64-0.529-2.45c1.489,0.61,2.979,1.23,4.449,1.931c2.62,1.41,5.19,2.97,7.99,4.029
	C424.67,119.41,427.89,114.09,429.38,108.11z"/>
<path fill="#47486E" d="M400.71,117.39c1.771-2.33,3.29-4.82,4.82-7.3c-0.061,1.98-0.12,3.96-0.21,5.95
	c-0.07,1.04-0.15,2.09-0.23,3.14c-0.66,0.35-1.979,1.04-2.63,1.39C401.85,119.52,401.25,118.47,400.71,117.39z"/>
<path fill="#1D1EA9" d="M481.85,129.46c5.86-7.05,13.381-12.46,19.36-19.41c-1.46,3.36-3.36,6.59-6.32,8.86
	c-4.62,3.72-8.76,7.97-12.319,12.72c-3.181,0.13-6.601-0.21-9.48,1.39c-3.39,1.83-6.14,4.601-9.33,6.73
	c-2.77,1.92-6.18,2.45-9.41,3.07c-4.55,0.02-9.029-0.79-13.54-1.221c-4.449-0.449-8.819,0.791-13,2.16
	c2.21-1.609,4.341-3.67,7.19-3.979c5.08-0.83,10.08,0.76,15.07,1.42c7.399-0.16,14.489-3.271,20.06-8.06
	c1.9-1.541,3.74-3.16,5.51-4.841C477.71,128.68,479.78,129.07,481.85,129.46z"/>
<path fill="#F4F5F6" d="M446.24,112.99c1.74-0.6,3.479-1.21,5.229-1.8c1.811,4.55,1.771,9.84-1.75,13.55
	c-1.939,2.779-3.7,5.68-5.779,8.35c-2.721-0.47-5.44-0.92-8.171-1.23c-0.479-0.18-1.449-0.529-1.93-0.709
	C438.14,125.2,442.31,119.19,446.24,112.99z"/>
<path fill="#6E707F" d="M409.88,117.35c0.75-0.97,1.51-1.94,2.271-2.92c0.819,1.01,1.649,2.02,2.489,3.02
	c-0.199,1.15-0.399,2.3-0.58,3.45c-1.47-0.7-2.96-1.32-4.449-1.931c0.17,0.811,0.34,1.63,0.529,2.45c-1.25,1.26-2.5,2.53-3.75,3.78
	c-1.38-1.49-2.649-3.07-3.93-4.63c0.65-0.351,1.97-1.04,2.63-1.39c0.08-1.05,0.16-2.1,0.23-3.14
	C406.83,116.47,408.35,116.91,409.88,117.35z"/>
<path fill="#F4F3F5" d="M451.18,128.189c2.82-4.489,5.78-9.18,10.98-11.189c0.75,2.51,1.79,5.09,1.13,7.75
	c-2.43,2.75-5.07,5.33-7.22,8.32c-2.54-0.351-5.09-0.61-7.641-0.631C449.3,131,450.24,129.59,451.18,128.189z"/>
<path fill="#2E2D32" d="M465.59,123.5c1.96-2.63,4.25-5.09,7.38-6.33c0.49,1.89,1.42,3.75,1.311,5.74
	c-1.971,3.939-5.33,6.949-7.8,10.56c-0.91,0.091-1.82,0.181-2.73,0.271c0.83-0.801,1.61-1.65,2.39-2.5
	c2.71-3.23,5.86-6.15,7.73-9.99c-0.771-0.53-2.32-1.58-3.09-2.11c-2.55,3.37-4.55,7.129-7.221,10.4c-1.27,1.43-2.56,2.83-3.81,4.26
	c-0.32-0.05-0.97-0.159-1.3-0.21c-0.8-0.17-1.59-0.34-2.38-0.52c2.149-2.99,4.79-5.57,7.22-8.32c0.57-1.01,0.9-2.13,1.34-3.2
	C464.94,122.2,465.26,122.85,465.59,123.5z"/>
<path fill="#E5E4EB" d="M463.56,129.54c2.671-3.271,4.671-7.03,7.221-10.4c0.77,0.53,2.319,1.58,3.09,2.11
	c-1.87,3.84-5.021,6.76-7.73,9.99C465.5,130.811,464.2,129.97,463.56,129.54z"/>
<path fill="#A5A4C7" d="M406.39,125.2c1.25-1.25,2.5-2.521,3.75-3.78c2.67,2.26,4.891,5.2,4.03,8.891l0.01,0.5
	C411.42,129.18,408.76,127.359,406.39,125.2z"/>
<path fill="#333574" d="M443.94,133.09c2.079-2.67,3.84-5.57,5.779-8.35c0.48,1.15,0.971,2.3,1.46,3.449
	c-0.939,1.4-1.88,2.811-2.75,4.25c-0.21,0.371-0.63,1.11-0.84,1.48c-0.22,0.41-0.43,0.83-0.63,1.25c1.35,0.46,2.72,0.92,4.09,1.391
	c-0.34,1.539-0.66,3.09-0.979,4.64c-4.99-0.66-9.99-2.25-15.07-1.42c-2.85,0.31-4.98,2.37-7.19,3.979
	c-4.68,3.35-10.35,5.58-13.819,10.391c-2.15,2.42,2.22,4.3,3.71,5.81c2.189,2.53,4.28,6.14,8.22,5.49
	c3.771-0.511,7.42-1.681,11-2.96c-0.34,2.5-0.68,4.99-1.03,7.49c-4.79,0.459-9.81,0.97-14.42-0.73
	c-5.96-2.27-9.16-8.939-15.689-10.109c2.029-1.801,4.33-3.311,6.12-5.381c0.04-1.42-1.17-2.439-1.87-3.56
	c5.739-3.32,11.979-6.261,16.52-11.24c-0.56-1.51-1.859-2.5-3.09-3.43c-3.04-1.681-6.27-2.99-9.28-4.72l-0.01-0.5
	c2.73,0.819,5.64,0.93,8-0.9c-0.02,0.59-0.07,1.779-0.1,2.37c3.51,1.909,7.01,4.29,11.08,4.689
	C436.89,135.97,440.42,134.4,443.94,133.09z"/>
<path fill="#424879" d="M394.25,127.25c1.56-1.62,3.88-0.25,5.72,0.01c0,3.45-3.42,3.98-6.069,4.73
	C393.69,130.43,392.49,128.34,394.25,127.25z"/>
<path fill="#93959D" d="M422.17,129.41c4.7,0.37,8.72,4.91,13.6,2.449c2.73,0.311,5.45,0.761,8.171,1.23
	c-3.521,1.311-7.051,2.88-10.79,3.38c-4.07-0.399-7.57-2.78-11.08-4.689C422.1,131.189,422.15,130,422.17,129.41z"/>
<path fill="#696A9A" d="M403.82,153.04c-0.73-7.76-2.74-17.06,2.989-23.46c1.03,0.55,2.051,1.109,3.091,1.67
	c-2.04,5.359-3.44,11.15-1.49,16.77c6.359-0.97,11.13-5.609,16.32-8.989c-0.431-1.171-0.851-2.33-1.271-3.5
	c1.23,0.93,2.53,1.92,3.09,3.43c-4.54,4.979-10.78,7.92-16.52,11.24c-2.261-2.7-3.9-5.83-5.561-8.92
	c-1.029,3.939,0.391,7.76,1.021,11.62c-0.73,2.91-3.36,4.859-5.24,7.06c0.05-0.91,0.12-1.81,0.19-2.72
	c-1.431-0.811-2.851-1.631-4.261-2.46c1.57,0.09,3.15,0.11,4.74,0.149c-0.95-1.3-1.89-2.609-2.9-3.85
	C399.92,151.8,401.87,152.41,403.82,153.04 M405,136.85c3.46,0.631,3.19-3.83,3.15-6.069C405.95,132.04,403.92,134.109,405,136.85z"
	/>
<path fill="#9798C4" d="M459.75,133.8c1.25-1.43,2.54-2.83,3.81-4.26c0.641,0.43,1.94,1.271,2.58,1.7
	c-0.779,0.85-1.56,1.699-2.39,2.5C462.42,133.87,461.08,133.87,459.75,133.8z"/>
<path fill="#494C7B" d="M405,136.85c-1.08-2.74,0.95-4.81,3.15-6.069C408.19,133.02,408.46,137.48,405,136.85z"/>
<path fill="#9295C7" d="M447.59,133.92c0.21-0.37,0.63-1.109,0.84-1.48c2.551,0.021,5.101,0.28,7.641,0.631
	C453.35,134.04,450.45,134.45,447.59,133.92z"/>
<path fill="#4D4DA0" d="M456.07,133.07c0.79,0.18,1.58,0.35,2.38,0.52c-2.431,1.08-4.91,2.04-7.4,2.971
	c-1.37-0.471-2.74-0.931-4.09-1.391c0.2-0.42,0.41-0.84,0.63-1.25C450.45,134.45,453.35,134.04,456.07,133.07z"/>
<path fill="#444878" d="M386.58,136.95c0.1-2.25,2.11-3.341,3.78-4.4c0.279,3.7-0.301,7.55,0.76,11.16
	c1.66,2.97,4.47,5.05,6.899,7.37c1.011,1.24,1.95,2.55,2.9,3.85c-1.59-0.039-3.17-0.06-4.74-0.149
	C389.84,151.49,385.65,144.08,386.58,136.95z"/>
<path fill="#0F0F77" d="M458.45,133.59c0.33,0.051,0.979,0.16,1.3,0.21c1.33,0.07,2.67,0.07,4-0.06c0.91-0.09,1.82-0.18,2.73-0.271
	c1.21-0.12,2.43-0.229,3.649-0.329c-5.57,4.789-12.66,7.899-20.06,8.06c0.319-1.55,0.64-3.101,0.979-4.64
	C453.54,135.63,456.02,134.67,458.45,133.59z"/>
<path fill="#1012D4" d="M427.81,143.76c4.181-1.369,8.551-2.609,13-2.16c4.511,0.431,8.99,1.24,13.54,1.221
	c-5.47,1.32-11.1,0.81-16.64,0.32c-0.45,2.039-0.9,4.069-1.35,6.109c-2-1.23-3.971-2.5-5.9-3.82c-6.25,1.48-10.27,7.12-16.47,8.721
	C417.46,149.34,423.13,147.109,427.81,143.76z"/>
<path fill="#3F4367" d="M405.49,152.9c-0.63-3.86-2.05-7.681-1.021-11.62c1.66,3.09,3.3,6.22,5.561,8.92
	c0.7,1.12,1.91,2.14,1.87,3.56c-1.79,2.07-4.091,3.58-6.12,5.381c-3.36,4.26-6.19,8.909-9.05,13.5
	c-3.521,5.819-3.41,12.879-3.181,19.449c-0.45-0.33-1.359-1-1.81-1.33c-7.36-4.97-12.08-12.699-16.141-20.4
	c-1.81-3.42-3.5-6.93-4.42-10.699c5.48,8.939,9.301,19,16.84,26.55c2.511-9.33,4.851-19.41,12.23-26.25
	C402.13,157.76,404.76,155.811,405.49,152.9z"/>
<path fill="#6E71A7" d="M417.7,159.96c3.55,0.479,6.91,1.86,8.22,5.49C421.98,166.1,419.89,162.49,417.7,159.96z"/>
<path fill="#1F1EC8" d="M442.64,215.41c4.311-0.35,8.67-0.61,12.98,0c9.75,1.4,19.57-0.19,29.36-0.16
	c9.449,0.05,18.989-0.811,28.35,0.9c-9.2,0.6-18.46-0.33-27.62,0.81c-8.53,1.11-17.15,0.66-25.71,1.33
	C454.05,218.76,448.16,217.58,442.64,215.41z"/>
</svg>
