<?xml version="1.0" encoding="utf-8"?>
<!-- Generator: Adobe Illustrator 15.0.2, SVG Export Plug-In . SVG Version: 6.00 Build 0)  -->
<!DOCTYPE svg PUBLIC "-//W3C//DTD SVG 1.1//EN" "http://www.w3.org/Graphics/SVG/1.1/DTD/svg11.dtd">
<svg version="1.1" id="Layer_1" xmlns="http://www.w3.org/2000/svg" xmlns:xlink="http://www.w3.org/1999/xlink" x="0px" y="0px"
	 width="207px" height="213px" viewBox="0 0 207 213" enable-background="new 0 0 207 213" xml:space="preserve">
<path fill="#FFFFFF" d="M0,0h207v213h-21.74c1.67-4.5,2.631-9.34,5.6-13.25c0.99-4.22,3.011-8.09,4.041-12.3
	c1.649-1.07,3.119-2.44,3.47-4.48c2.08-7.329,5.909-15.51,1.771-22.86c0.01,4.07,0.6,8.201-0.361,12.23
	c-0.949-7.779-0.35-15.66-1.309-23.439c-0.451-13.311-0.131-26.631-0.471-39.94c-0.25-4.7-0.87-9.49-2.8-13.83
	c-5.011-11.64-14.69-20.98-17.521-33.61c-1.26-3.92-0.779-8.48-3.289-11.93c-6.011-8.83-12.931-16.99-20.16-24.84
	c-4.57-4.51-9.561-8.57-14.201-13.01c0.73-0.05,2.181-0.14,2.91-0.19c-0.209-0.52-0.629-1.57-0.85-2.09
	c-2.51,0.03-5.01,0.18-7.52,0.24c-1.03-0.91-2-2.17-3.53-2.08c-14.95-2.03-30.15,0.44-44.49,4.73c-5.21,1.44-9.9,4.61-15.44,4.74
	c-8.6,0.49-14.55,7.29-20.75,12.39c-2.89,1.98-3.06,5.96-5.71,8.14c-2.65,2.23-5.42,4.36-7.61,7.08c-2.36,0-4.71,0.08-7.06,0.23
	c0.59,0.55,1.78,1.65,2.37,2.2c-4.2-0.2-8.41-0.31-12.61-0.25c-0.15,0.93-0.29,1.86-0.43,2.79c4.31-0.27,8.64-0.82,12.93-0.02
	c-5.12,5.81-8.93,12.6-13.96,18.48c-0.47,0.04-1.42,0.14-1.89,0.19c-1.47,6.98-8.33,13.19-4.72,20.7c0.63-1.99,0.74-4.28,2.28-5.87
	c-0.38,6.42-2.92,12.4-5.29,18.28c-1.95,9.03-0.87,18.339-0.4,27.47c1.14,16.8,6.81,32.8,9.74,49.289
	c-2.02-3.879-5.2-7.02-7.17-10.909c-3.18-12.13-3.54-24.79-3.68-37.271c0.6-8.699-0.49-17.369-0.36-26.06
	c0.09-4.9-1.65-9.81-0.94-14.62c-0.3,0.14-0.59,0.28-0.88,0.43c2.05,9.41-1.14,18.83-1.07,28.271c0.11,10.61-0.72,21.38,1.67,31.819
	c0.76,3.45,2.17,6.73,2.9,10.19c0.71,3.399-0.54,7.14,1.15,10.34c2.84,5.61,7.26,10.3,9.8,16.08c0.74,2.74,0.42,5.649,1.06,8.41
	c0.96,4.43,3.02,8.569,3.52,13.11c0.1,2.039,1.74,3.449,2.84,5.02H0V0z"/>
<path fill="#040404" d="M86.55,12.35c14.34-4.29,29.54-6.76,44.49-4.73c1.53-0.09,2.5,1.17,3.53,2.08c2.51-0.06,5.01-0.21,7.52-0.24
	c0.221,0.52,0.641,1.57,0.85,2.09c-0.729,0.05-2.18,0.14-2.91,0.19c4.641,4.44,9.631,8.5,14.201,13.01
	c7.229,7.85,14.149,16.01,20.16,24.84c2.51,3.45,2.029,8.01,3.289,11.93c2.83,12.63,12.51,21.97,17.521,33.61
	c1.93,4.34,2.55,9.13,2.8,13.83c0.34,13.31,0.02,26.63,0.471,39.94c0.959,7.779,0.359,15.66,1.309,23.439
	c0.961-4.029,0.371-8.16,0.361-12.23c4.139,7.351,0.31,15.531-1.771,22.86c-0.351,2.04-1.82,3.41-3.47,4.48
	c-1.03,4.21-3.051,8.08-4.041,12.3c-2.969,3.91-3.93,8.75-5.6,13.25h-3.34c3.551-9.391,5.311-19.42,9.7-28.49
	c1.42-3.17,3.92-5.65,5.81-8.5c0.4-4.71,0.74-9.51-0.15-14.189c-0.489-0.221-1.479-0.68-1.969-0.9
	c0.199-16.68,0.469-33.561-3.271-49.91c-1.101-4.77-4.37-8.6-6.17-13.07c-1.74-4.19-0.851-8.94-2.57-13.14
	c-1.89-4.75-3.319-9.72-5.729-14.26c-4.11-6.86-11.801-12.13-11.99-20.85c4.88,2.26,4.62,8.3,7.939,11.87
	c0.16-2.91,0.271-6.12-1.77-8.47c-2.811-3.52-5.73-7-7.32-11.28c-0.14,2.6-0.15,5.21-0.3,7.82c-2.2-5.83-2.36-13.53-8.62-16.78
	c-0.039-7.47-7.359-11.13-12.84-14.56c-2.26-1.13-4.42-3.47-7.18-2.63c-0.53-1.08-0.91-2.21-1.11-3.39
	c-3.08,2.01-7.37,3.41-7.84,7.65c2.2-1.52,4.38-3.07,6.54-4.64c0.57,0.57,1.15,1.15,1.73,1.72c-2.021,1.73-4.201,3.25-6.49,4.6
	c2.4,0.37,4.82,0.65,7.24,0.93c-0.08,0.49-0.23,1.479-0.311,1.97c-4.42,1.48-9.95-2.61-13.4,1.48c-3.92,4.68-2.41,11.33-2.649,16.94
	c-3.65,4.85-8.16,9.18-10.56,14.85c-2.051,4.43-2.19,9.44-1.851,14.23c-2.38,0.81-4.72,1.7-7.07,2.57c-2.03-0.92-2.72-3.16,0.1-3.54
	c-3.18-5.09-3.98-11.4-2.39-17.17c2.36-9.04,6.25-17.79,6.34-27.29c1.89,0.78,3.68,3.25,5.871,1.93c1.189-1.58,1.51-3.6,2.109-5.45
	c-15.19-3.48-31.24-4.55-46.56-1.4c-9.86,5.84-16.41,15.67-23.99,24.01c7.23,5.27,16.65,4.45,24.67,7.67
	c2.56,0.94,4.53,3.27,3.85,6.12c-2.09,0.24-4.19,0.39-6.28,0.5c6.01,8.61,13.4,16.65,22.95,21.33c0.4,6.63-0.48,13.51-3.86,19.34
	c-2.87,5.11-7.44,8.979-12.24,12.22C74.65,104,84.24,97.67,84.6,87.05c0.87-3.96-3.36-6.64-6.91-5.97
	c-0.08,3.48,3.67,3.98,6.01,5.41c-2.05,0.38-4.2,1.06-6.25,0.27c-1.34-5.21-3.89-10.479-8.91-13.05
	c-11.68-5.98-27.69-0.43-33.61,11.18c-2.07,3.92-2.12,8.44-2.09,12.76c4.95-0.39,10.8-0.8,13.6-5.61c-0.65-1.4-1.29-2.79-1.95-4.18
	c-3.16-0.11-6.53-0.06-9.17-2.11c3.75-0.55,7.55-0.39,11.33-0.39c1.34,2.67,2.8,5.85,1.21,8.77c-2.14,4.73-7.72,6.06-12.43,6.33
	c0.16,5.67,0.56,11.979,4.7,16.32c4.28,4.54,10.94,5.37,16.86,5c5.53,0.52,7.5-5.83,11.86-8.03c-0.04,4.72-4.21,7.88-7.77,10.24
	c-9.21,1.42-20.13-0.221-26.14-8.04c-1.37-5.45,1.24-12.58-3.59-16.85c-1.42-9.94,2.54-21.04,11.47-26.27
	c7.54-4.72,16.99-4.28,25.22-1.8c-3.88-5.65-8.12-11.2-13.54-15.46c-4.4-3.43-10.11-4.56-15.56-4.72
	c-8.26,1.41-8.27,12.48-15.41,15.6c-0.98,0.46-1.98,0.9-2.98,1.32c-4.53,11.01-3.52,23.57-9.23,34.19
	c-0.15,8.67-0.45,17.36-0.94,26.04c-0.05,4.84-0.83,9.87,0.8,14.55c4.29,13.31,8.65,26.64,11.58,40.33
	c0.5,3.62,3.95,5.53,6.06,8.181c2.15,2.069,3.05,4.959,3.67,7.799c4.89,4.201,12.16,4.561,16.26,9.82c1.68,0.23,3.37,0.391,5,0.87
	c1.1,1.021,1.91,2.28,2.84,3.45h-3.32c-2.9-1.21-5.58-2.92-7.58-5.37c-3.19-0.53-6.49-1.149-9.16-3.08
	c-5.63-3.88-8.67-10.27-13.31-15.12c-0.56,8.28,2.65,16.03,5.59,23.57h-1.97c-1.1-1.57-2.74-2.98-2.84-5.02
	c-0.5-4.541-2.56-8.681-3.52-13.11c-0.64-2.761-0.32-5.67-1.06-8.41c-2.54-5.78-6.96-10.47-9.8-16.08
	c-1.69-3.2-0.44-6.94-1.15-10.34c-0.73-3.46-2.14-6.74-2.9-10.19C3.18,139.41,4.01,128.641,3.9,118.03
	c-0.07-9.44,3.12-18.86,1.07-28.271c0.29-0.15,0.58-0.29,0.88-0.43c-0.71,4.81,1.03,9.72,0.94,14.62
	c-0.13,8.69,0.96,17.36,0.36,26.06c0.14,12.48,0.5,25.141,3.68,37.271c1.97,3.89,5.15,7.03,7.17,10.909
	C15.07,161.7,9.4,145.7,8.26,128.9c-0.47-9.131-1.55-18.44,0.4-27.47c2.37-5.88,4.91-11.86,5.29-18.28
	c-1.54,1.59-1.65,3.88-2.28,5.87c-3.61-7.51,3.25-13.72,4.72-20.7c0.47-0.05,1.42-0.15,1.89-0.19c5.03-5.88,8.84-12.67,13.96-18.48
	c-4.29-0.8-8.62-0.25-12.93,0.02c0.14-0.93,0.28-1.86,0.43-2.79c4.2-0.06,8.41,0.05,12.61,0.25c-0.59-0.55-1.78-1.65-2.37-2.2
	c2.35-0.15,4.7-0.23,7.06-0.23c2.19-2.72,4.96-4.85,7.61-7.08c2.65-2.18,2.82-6.16,5.71-8.14c6.2-5.1,12.15-11.9,20.75-12.39
	C76.65,16.96,81.34,13.79,86.55,12.35 M119.221,9.14c-0.011,3.59,0.029,7.18-0.041,10.77c6.16,0.43,7.69-6.87,11.87-9.95
	C127.1,9.7,123.189,9.03,119.221,9.14 M80.16,17.2c10.92-1.51,21.42,2.97,32.29,2.57c1.17-3.49,2.409-6.94,3.44-10.46
	C103.87,11.18,91.3,11.83,80.16,17.2 M111.6,31.58c3.93-0.24,4.561-4.42,4.351-7.53c-0.36-0.45-1.08-1.36-1.44-1.81
	C113.55,25.36,112.33,28.39,111.6,31.58 M108.061,30.82c-0.871,2.12-1.701,4.25-2.471,6.41c0.471,0.14,1.42,0.42,1.891,0.56
	C108.529,35.57,108.88,33.16,108.061,30.82 M111.02,44.03c1.4-3.92,3.94-7.64,3.601-11.97C111.65,35.23,110.15,39.73,111.02,44.03
	 M113.189,45.16c2.061-0.89,2.711-3.14,2.57-5.22C114.439,41.42,113.37,43.14,113.189,45.16 M101.14,49.9
	c-1.08,2.93-2.46,5.89-1.93,9.11C99.77,56.02,102.78,52.91,101.14,49.9 M63.42,54.63c-0.64,0.3-1.91,0.9-2.55,1.19
	c1.71,1.48,3.89,1.9,6.11,1.76C66.44,55.93,64.9,55.26,63.42,54.63 M99.43,62.55c0.34,2.01,2.26,3.14,3.74,4.31
	c0.13-3.21,1.01-6.6-0.32-9.68C101.62,58.91,100.36,60.64,99.43,62.55 M184.6,82.04c1.5,11.58,8.82,21.41,10.65,32.94
	c2.32-10.261-3.359-19.561-6.439-28.92C187.87,84.35,185.98,83.36,184.6,82.04z"/>
<path fill="#FFFFFF" d="M119.221,9.14c3.969-0.11,7.879,0.56,11.829,0.82c-4.18,3.08-5.71,10.38-11.87,9.95
	C119.25,16.32,119.21,12.73,119.221,9.14z"/>
<path fill="#FFFFFF" d="M80.16,17.2c11.14-5.37,23.71-6.02,35.73-7.89c-1.031,3.52-2.271,6.97-3.44,10.46
	C101.58,20.17,91.08,15.69,80.16,17.2z"/>
<path fill="#FFFFFF" d="M134.38,12.27c0.2,1.18,0.58,2.31,1.11,3.39c2.76-0.84,4.92,1.5,7.18,2.63
	c5.48,3.43,12.801,7.09,12.84,14.56c6.26,3.25,6.42,10.95,8.62,16.78c0.149-2.61,0.16-5.22,0.3-7.82c1.59,4.28,4.51,7.76,7.32,11.28
	c2.04,2.35,1.93,5.56,1.77,8.47c-3.319-3.57-3.06-9.61-7.939-11.87c0.189,8.72,7.88,13.99,11.99,20.85
	c2.41,4.54,3.84,9.51,5.729,14.26c1.72,4.2,0.83,8.95,2.57,13.14c1.8,4.47,5.069,8.3,6.17,13.07c3.739,16.35,3.47,33.23,3.271,49.91
	c0.489,0.221,1.479,0.68,1.969,0.9c0.891,4.68,0.551,9.479,0.15,14.189c-1.89,2.85-4.39,5.33-5.81,8.5
	c-4.39,9.07-6.149,19.1-9.7,28.49H56.59c-0.93-1.17-1.74-2.43-2.84-3.45c-1.63-0.479-3.32-0.64-5-0.87
	c-4.1-5.26-11.37-5.619-16.26-9.82c-0.62-2.84-1.52-5.729-3.67-7.799c-2.11-2.65-5.56-4.561-6.06-8.181
	c-2.93-13.69-7.29-27.021-11.58-40.33c-1.63-4.68-0.85-9.71-0.8-14.55c0.49-8.68,0.79-17.37,0.94-26.04
	c5.71-10.62,4.7-23.18,9.23-34.19c1-0.42,2-0.86,2.98-1.32c7.14-3.12,7.15-14.19,15.41-15.6c5.45,0.16,11.16,1.29,15.56,4.72
	c5.42,4.26,9.66,9.81,13.54,15.46c-8.23-2.48-17.68-2.92-25.22,1.8c-8.93,5.23-12.89,16.33-11.47,26.27
	c4.83,4.27,2.22,11.4,3.59,16.85c6.01,7.819,16.93,9.46,26.14,8.04c3.56-2.36,7.73-5.521,7.77-10.24c-4.36,2.2-6.33,8.55-11.86,8.03
	c-5.92,0.37-12.58-0.46-16.86-5c-4.14-4.341-4.54-10.65-4.7-16.32c4.71-0.27,10.29-1.6,12.43-6.33c1.59-2.92,0.13-6.1-1.21-8.77
	c-3.78,0-7.58-0.16-11.33,0.39c2.64,2.05,6.01,2,9.17,2.11c0.66,1.39,1.3,2.78,1.95,4.18c-2.8,4.81-8.65,5.22-13.6,5.61
	c-0.03-4.32,0.02-8.84,2.09-12.76c5.92-11.61,21.93-17.16,33.61-11.18c5.02,2.57,7.57,7.84,8.91,13.05c2.05,0.79,4.2,0.11,6.25-0.27
	c-2.34-1.43-6.09-1.93-6.01-5.41c3.55-0.67,7.78,2.01,6.91,5.97c-0.36,10.62-9.95,16.95-14.31,25.79c4.8-3.24,9.37-7.11,12.24-12.22
	c3.38-5.83,4.26-12.71,3.86-19.34c-9.55-4.68-16.94-12.72-22.95-21.33c2.09-0.11,4.19-0.26,6.28-0.5c0.68-2.85-1.29-5.18-3.85-6.12
	c-8.02-3.22-17.44-2.4-24.67-7.67c7.58-8.34,14.13-18.17,23.99-24.01c15.32-3.15,31.37-2.08,46.56,1.4
	c-0.6,1.85-0.92,3.87-2.109,5.45c-2.19,1.32-3.98-1.15-5.871-1.93c-0.09,9.5-3.98,18.25-6.34,27.29
	c-1.59,5.77-0.79,12.08,2.39,17.17c-2.82,0.38-2.13,2.62-0.1,3.54c2.35-0.87,4.69-1.76,7.07-2.57c-0.34-4.79-0.2-9.8,1.851-14.23
	c2.399-5.67,6.909-10,10.56-14.85c0.239-5.61-1.271-12.26,2.649-16.94c3.45-4.09,8.98,0,13.4-1.48c0.08-0.49,0.23-1.48,0.311-1.97
	c-2.42-0.28-4.84-0.561-7.24-0.93c2.289-1.35,4.47-2.87,6.49-4.6c-0.58-0.57-1.16-1.15-1.73-1.72c-2.16,1.57-4.34,3.12-6.54,4.64
	C127.01,15.68,131.3,14.28,134.38,12.27 M128.689,43.71l1.601-0.65c-0.09,1.3-0.181,2.59-0.28,3.88l-0.58-0.63
	c-5.35,4.79-9.33,10.97-15.18,15.2c-1.221,5.78-3.58,11.56-2.68,17.56c1.35,2.67,4.02,4.4,5.67,6.9c2.14,2.6,2.109,6.66,5.289,8.42
	c10.021,6.77,22.641,9.41,34.601,8.14c6.25-0.79,12.91-3.75,15.72-9.75c2.43-5.37,2.33-11.9-0.32-17.17
	c-3.029-6.32-7.159-12.06-9.899-18.53c-1.58-1.25-3.78-1.66-5.521-2.73c-0.449-2.46-1.899-4.51-3.069-6.66
	c-0.56-0.08-1.67-0.26-2.22-0.35c-1.41-2.06-1.85-5.28-4.74-5.78c-4.84-1.44-10.12-2.24-15.09-1.02
	C130.33,40.8,129.67,42.59,128.689,43.71 M161.85,111.141c-2.709,7.109-4.209,14.629-5.81,22.049c3.16,0.53,6.37,1.471,9.59,0.82
	c8.351-1.359,14.04-8.76,22.38-10.21c-0.06-4.729-2.02-9.2-1.779-13.96c-6.53-2.52-13.08-5.69-20.24-5.66
	C163.93,105.97,162.971,108.71,161.85,111.141z"/>
<path fill="#FFFFFF" d="M111.6,31.58c0.73-3.19,1.95-6.22,2.91-9.34c0.36,0.45,1.08,1.36,1.44,1.81
	C116.16,27.16,115.529,31.34,111.6,31.58z"/>
<path fill="#FFFFFF" d="M108.061,30.82c0.819,2.34,0.469,4.75-0.58,6.97c-0.471-0.14-1.42-0.42-1.891-0.56
	C106.359,35.07,107.189,32.94,108.061,30.82z"/>
<path fill="#FFFFFF" d="M111.02,44.03c-0.869-4.3,0.631-8.8,3.601-11.97C114.96,36.39,112.42,40.11,111.02,44.03z"/>
<path fill="#FFFFFF" d="M113.189,45.16c0.181-2.02,1.25-3.74,2.57-5.22C115.9,42.02,115.25,44.27,113.189,45.16z"/>
<path fill="#040404" d="M128.689,43.71c0.98-1.12,1.641-2.91,3.301-3.17c4.97-1.22,10.25-0.42,15.09,1.02
	c2.891,0.5,3.33,3.72,4.74,5.78c0.55,0.09,1.66,0.27,2.22,0.35c1.17,2.15,2.62,4.2,3.069,6.66c1.74,1.07,3.94,1.48,5.521,2.73
	c2.74,6.47,6.87,12.21,9.899,18.53c2.65,5.27,2.75,11.8,0.32,17.17c-2.81,6-9.47,8.96-15.72,9.75
	c-11.96,1.27-24.58-1.37-34.601-8.14c-3.18-1.76-3.149-5.82-5.289-8.42c-1.65-2.5-4.32-4.229-5.67-6.9
	c-0.9-6,1.459-11.78,2.68-17.56c5.85-4.229,9.83-10.41,15.18-15.2l0.58,0.63c0.1-1.29,0.19-2.58,0.28-3.88L128.689,43.71
	 M131.16,42.92c-0.2,0.75-0.6,2.25-0.801,3c3.101-2.2,6.99-2.7,10.521-1.36c-5.92,1.94-11.28,5.35-16.03,9.34
	c-6.97,6.01-10.93,14.99-11.42,24.11c7.061,7.38,12.57,17.14,22.541,20.97c7.25,1.31,14.719,1.08,22.069,1.18
	c3.55,0.4,6.271-2.3,8.851-4.3c4.569-3.85,5.629-10.31,4.639-15.93c-1.659-2.76-4.549-5.39-3.5-8.95
	c-5.189-4.01-5.35-12.87-12.59-14.29c-0.1-4.23-4.119-6.06-6.649-8.77c-0.05-0.64-0.149-1.93-0.2-2.58
	C143.21,42.75,137.04,40.32,131.16,42.92z"/>
<path fill="#FFFFFF" d="M131.16,42.92c5.88-2.6,12.05-0.17,17.43,2.42c0.051,0.65,0.15,1.94,0.2,2.58
	c2.53,2.71,6.55,4.54,6.649,8.77c7.24,1.42,7.4,10.28,12.59,14.29c-1.049,3.56,1.841,6.19,3.5,8.95
	c0.99,5.62-0.069,12.08-4.639,15.93c-2.58,2-5.301,4.7-8.851,4.3c-7.351-0.1-14.819,0.13-22.069-1.18
	C126,95.15,120.49,85.39,113.43,78.01c0.49-9.12,4.45-18.1,11.42-24.11c4.75-3.99,10.11-7.4,16.03-9.34
	c-3.53-1.34-7.42-0.84-10.521,1.36C130.561,45.17,130.96,43.67,131.16,42.92 M142.77,54.24c0.01,4.05,0.051,8.1-0.029,12.15
	c4.48,0.68,8.789,2.52,13.359,2.38c2.041,0.1,3.67-1.49,4.44-3.24c0.88-1.54-1.229-2.2-2.021-3.2c-0.209,0.76-0.619,2.28-0.819,3.03
	c-3.99,2.37-8.46,0.12-12.33-1.37c0.069-3.271,0.05-6.54,0.06-9.81C144.76,54.2,143.43,54.23,142.77,54.24z"/>
<path fill="#FFFFFF" d="M101.14,49.9c1.64,3.01-1.37,6.12-1.93,9.11C98.68,55.79,100.06,52.83,101.14,49.9z"/>
<path fill="#FFFFFF" d="M63.42,54.63c1.48,0.63,3.02,1.3,3.56,2.95c-2.22,0.14-4.4-0.28-6.11-1.76
	C61.51,55.53,62.78,54.93,63.42,54.63z"/>
<path fill="#040404" d="M142.77,54.24c0.66-0.01,1.99-0.04,2.66-0.06c-0.01,3.27,0.01,6.54-0.06,9.81
	c3.87,1.49,8.34,3.74,12.33,1.37c0.2-0.75,0.61-2.27,0.819-3.03c0.791,1,2.9,1.66,2.021,3.2c-0.771,1.75-2.399,3.34-4.44,3.24
	c-4.57,0.14-8.879-1.7-13.359-2.38C142.82,62.34,142.779,58.29,142.77,54.24z"/>
<path fill="#FFFFFF" d="M99.43,62.55c0.93-1.91,2.19-3.64,3.42-5.37c1.33,3.08,0.45,6.47,0.32,9.68
	C101.69,65.69,99.77,64.56,99.43,62.55z"/>
<path fill="#FFFFFF" d="M184.6,82.04c1.381,1.32,3.271,2.31,4.211,4.02c3.08,9.36,8.76,18.66,6.439,28.92
	C193.42,103.45,186.1,93.62,184.6,82.04z"/>
<path fill="#040404" d="M161.85,111.141c1.121-2.431,2.08-5.171,4.141-6.96c7.16-0.03,13.71,3.14,20.24,5.66
	c-0.24,4.76,1.72,9.23,1.779,13.96c-8.34,1.45-14.029,8.851-22.38,10.21c-3.22,0.65-6.43-0.29-9.59-0.82
	C157.641,125.77,159.141,118.25,161.85,111.141 M172.02,109.79c-0.819,4.29-5.549,3.76-8.439,5.67c-3.02,4.13-2.93,9.58-4.43,14.32
	c2.31-0.78,4.709-1.181,7.109-0.48c1.18-3.01,1.32-6.239,1.221-9.44c3.43-1.119,6.56-2.92,9.799-4.469
	c2.631,2.56,5.051,5.459,8.471,7.01c-1.27-3.48-1.32-7.181-1.16-10.84C180.689,109.65,176.311,108.48,172.02,109.79 M169.061,121.77
	c0.029,2.03-0.09,4.49,2.109,5.471c0.33-3.93,3.641-6.131,7.141-7.01c-0.561-0.631-1.15-1.23-1.761-1.811
	C174.029,119.48,171.7,120.99,169.061,121.77 M175.67,123.73c-0.939,1.34-2.07,2.59-2.68,4.129
	C175.35,128.67,177.82,125.47,175.67,123.73z"/>
<path fill="#FFFFFF" d="M172.02,109.79c4.291-1.31,8.67-0.14,12.57,1.771c-0.16,3.659-0.109,7.359,1.16,10.84
	c-3.42-1.551-5.84-4.45-8.471-7.01c-3.239,1.549-6.369,3.35-9.799,4.469c0.1,3.201-0.041,6.431-1.221,9.44
	c-2.4-0.7-4.8-0.3-7.109,0.48c1.5-4.74,1.41-10.19,4.43-14.32C166.471,113.55,171.2,114.08,172.02,109.79z"/>
<path fill="#FFFFFF" d="M169.061,121.77c2.64-0.779,4.969-2.289,7.489-3.35c0.61,0.58,1.2,1.18,1.761,1.811
	c-3.5,0.879-6.811,3.08-7.141,7.01C168.971,126.26,169.09,123.8,169.061,121.77z"/>
<path fill="#FFFFFF" d="M175.67,123.73c2.15,1.739-0.32,4.939-2.68,4.129C173.6,126.32,174.73,125.07,175.67,123.73z"/>
<path fill="#FFFFFF" d="M23.22,189.43c4.64,4.851,7.68,11.24,13.31,15.12c2.67,1.931,5.97,2.55,9.16,3.08
	c2,2.45,4.68,4.16,7.58,5.37H28.81C25.87,205.46,22.66,197.71,23.22,189.43z"/>
</svg>
