<?xml version="1.0" encoding="utf-8"?>
<!-- Generator: Adobe Illustrator 15.0.2, SVG Export Plug-In . SVG Version: 6.00 Build 0)  -->
<!DOCTYPE svg PUBLIC "-//W3C//DTD SVG 1.1//EN" "http://www.w3.org/Graphics/SVG/1.1/DTD/svg11.dtd">
<svg version="1.1" id="Layer_1" xmlns="http://www.w3.org/2000/svg" xmlns:xlink="http://www.w3.org/1999/xlink" x="0px" y="0px"
	 width="186px" height="207px" viewBox="0 0 186 207" enable-background="new 0 0 186 207" xml:space="preserve">
<path fill="#FFFFFF" d="M0,0h186v207h-17.42c2.42-2.83,3.54-6.4,4.279-9.97c1.99-5.86,3.611-11.83,5.721-17.64
	c1.141-2.75,3.82-4.521,4.96-7.261c0.89-4.61,1.649-9.35,1.14-14.05c-0.05-2.08-2.779-2.971-2.66-5.04
	c-0.1-15.021,0.041-30.04-0.029-45.06c-0.08-5.181-2.34-9.95-3.25-14.99c-0.471-3.43-2.4-6.39-3.68-9.55
	c-0.041-1.87-0.061-3.74-0.07-5.61c-3.971-3.99-7.551-8.48-9.57-13.79c-1.279-3.77-3.99-6.99-4.46-11.03
	c-0.62-5.45-2.649-10.68-5.2-15.46c-5.43-4.9-9.16-11.15-13.38-17.03c-4.31-6.1-10.64-10.25-15.84-15.49
	c0.87-0.01,2.601-0.04,3.46-0.061c0-0.49,0-1.479-0.01-1.979c-3.18-0.04-6.44,0.35-9.551-0.55c-1-0.4-2-0.81-2.989-1.22
	c-5.71-1.51-11.66-0.8-17.45-0.25c-9.88,0.28-19.15,4.18-28.37,7.32c-5.37,0.82-10.53,2.6-15.48,4.78c-3.83,2.51-7.39,5.4-11,8.21
	c-2.35,1.95-4.75,4.229-5.42,7.34c-2.78,3.55-5.94,6.86-9.63,9.47c-0.49-0.3-1.45-0.89-1.93-1.18c-1.53,0.29-3.01,0.76-4.44,1.38
	c1.11,1.28,2.63,1.8,4.27,1.99v0.729c-2.45,0-4.9,0-7.34-0.14c-1.66-1.28-3.76-0.75-5.67-0.72c-0.54,1.02-1.09,2.03-1.65,3.04
	c1.81,1.06,3.78,0.39,5.55-0.34c2.14,0.07,4.28,0.15,6.42,0.24c-2.16,7.29-8.16,12.31-12.26,18.46C13,59.48,13,57.41,13,55.34
	c-0.5-0.41-1.5-1.24-2.01-1.66c-0.12,5.2,0.73,10.76-1.9,15.52c-1.12,2.94-3.78,5.52-3.05,8.9c-0.03,1.7,0.9,3.14,1.8,4.5
	c0.12-1.87,0.17-3.73,0.21-5.6l0.97-0.01c-0.04,2.56,0.32,5.25-0.73,7.68c-0.05,1.1-0.08,2.21-0.12,3.31
	c-0.81,1.65-1.55,3.32-2.22,5.03c-0.48,0.35-1.43,1.05-1.91,1.41c0.32,9.93-0.8,19.84-0.38,29.76c-1.41-4.93-0.88-10.09-0.85-15.149
	c0.16-5.311-0.1-10.63,0.16-15.95c-0.02-2.26,0.46-4.71-0.84-6.74C1.99,83.9,1.99,81.45,1.99,79H1c-0.43,4.24,1.02,8.91-1,12.83V0z"
	/>
<path fill="#070707" d="M100,0.97c5.79-0.55,11.74-1.26,17.45,0.25c0.989,0.41,1.989,0.82,2.989,1.22
	c3.11,0.9,6.371,0.51,9.551,0.55C130,3.49,130,4.48,130,4.97c-0.859,0.021-2.59,0.05-3.46,0.061c5.2,5.24,11.53,9.39,15.84,15.49
	c4.22,5.88,7.95,12.13,13.38,17.03c2.551,4.78,4.58,10.01,5.2,15.46c0.47,4.04,3.181,7.26,4.46,11.03c2.02,5.31,5.6,9.8,9.57,13.79
	c0.01,1.87,0.029,3.74,0.07,5.61c1.279,3.16,3.209,6.12,3.68,9.55c0.91,5.04,3.17,9.81,3.25,14.99
	c0.07,15.02-0.07,30.039,0.029,45.06c-0.119,2.069,2.61,2.96,2.66,5.04c0.51,4.7-0.25,9.439-1.14,14.05
	c-1.14,2.74-3.819,4.511-4.96,7.261c-2.109,5.81-3.73,11.779-5.721,17.64c-0.739,3.569-1.859,7.14-4.279,9.97h-0.93
	c0.6-12.08,7.32-22.609,9.959-34.23c1.08-1.129,3.601-1.72,3.15-3.67c-1.449-14.31-0.51-28.74-1.81-43.06
	c-0.25-5.431-3.181-10.59-2.04-16.08C173.359,99.06,170.3,88,167.08,77c-3.689-12.17-12.2-22.08-16.801-33.81
	c5.08,1.55,5.061,8.18,8.41,11.65c0.371-3.22,0.051-6.71-2.33-9.13c-2.729-2.8-4.939-6.04-6.1-9.8c-0.05,1.72,0.09,3.49-0.43,5.17
	c-0.189-0.03-0.59-0.08-0.78-0.11c-1.579-3.63-1.88-7.729-3.84-11.2c-1.069-1.85-3.19-2.62-4.92-3.7c0.86-0.56,1.729-1.13,2.601-1.7
	c-4.74-6.64-11.32-11.52-17.591-16.58c-2.899,2.21-5.29,5-8.2,7.19c2.15,0.5,4.311,1.01,6.44,1.59c-0.03,0.5-0.09,1.5-0.12,2
	c-3.21,0.41-6.16-1.05-9.27-1.37c-3.11,0.9-5.051,3.95-6.15,6.82c-1.609,4.15-0.76,8.63-0.471,12.92
	c-3.1,4.41-6.959,8.36-9.049,13.41c-2.32,4.93-2.541,10.46-2.291,15.81c-2.899,0.99-5.899,1.77-9,1.66c0.1-0.54,0.3-1.62,0.4-2.16
	c0.67-0.14,1.99-0.41,2.65-0.54c-0.55-3.18-1.96-6.11-4.5-8.17c-0.38-7.88,3.04-15.1,5.53-22.37c1.71-4.89,2.03-10.1,2.15-15.24
	c0.45,0.66,0.84,1.36,1.18,2.09c1.371,0.22,2.7,0.14,4.01-0.24c0.881-1.41,1.451-2.98,2.091-4.5c-11.57-3.34-23.8-4.35-35.76-3.01
	c-3.22,0.49-6.66,0.8-9.42,2.72C47,22.26,41.89,31.51,35.14,39.08c7,6.45,17.66,4.31,25.24,9.61c1.35,0.78,1.73,2.4,2.43,3.68
	c-2.49,0.62-5.05,0.9-7.61,1.03c3.78,6.78,9.92,11.64,14.98,17.37c0.94,1.52,2.69,1.76,4.27,2.18c-1.02,2.55-4.25,1.1-5.65,2.82
	c1.5,1.89,3.52,3.22,5.42,4.67c-1.72,0.72-3.54,1.03-5.39,1.14c-0.79-6.29-4.15-12.54-10.17-15.17c-5.01-2.12-11.44-3.83-16.17-0.19
	c-8.88,4.63-15.66,13.72-15.29,24.05c4.24,3.56,2.96,9.75,3.68,14.61c2.83-1.91,4.72-7.05,8.84-5.45c5.1,3.29,5.97,11.97,0.78,15.64
	c0.78,1.029,1.53,2.08,2.26,3.16c-4.3-0.41-8.66-2.131-11.27-5.721c-3.65-5.09-3.92-11.65-3.9-17.69c-1-0.53-2-1.06-2.99-1.59
	c-0.8-7.28,3.04-13.79,3.89-20.84c6.17-4.1,12.03-9.34,19.57-10.63c4.17-0.8,8.36,0.55,11.89,2.72
	c-6.31-10.22-16.21-19.7-28.94-19.93c-2.52,8.07-10.98,11.42-15.78,17.76c-7.25,9.96-0.57,24.19-8.95,33.7
	C6.9,108.68,5.29,121.33,5.71,134c1.23,1.82,2.88,3.6,2.84,5.95c0.59,9.75,4.69,18.739,7.02,28.1c0.97,3.56,1.03,7.271,1.71,10.87
	c2.35,2.891,5.23,5.37,7.04,8.689c1.73,2.601,2.32,6.181,5.31,7.73c6.31,3.93,14.26,5.471,19,11.66h-2.57
	c-7.15-3.26-14.14-6.97-20.53-11.58c-1.75-1.1-1.84-3.37-2.71-5.05c-1.02-2.89-3.49-4.87-5.67-6.87c0.39,8.18,2.65,16.26,6.48,23.5
	H21.4c-3.99-4.32-3.72-10.46-5.01-15.83c-0.54-8-3.19-15.9-8.16-22.23c-2.29-4.799-5.27-9.58-5.47-15.039
	c-0.63-3.961-0.87-7.961-1.37-11.94c-0.3-5.63,0.3-11.38-1.39-16.851V91.83C2.02,87.91,0.57,83.24,1,79h0.99c0,2.45,0,4.9,0.14,7.34
	c1.3,2.03,0.82,4.48,0.84,6.74c-0.26,5.32,0,10.64-0.16,15.95c-0.03,5.06-0.56,10.22,0.85,15.149c-0.42-9.92,0.7-19.83,0.38-29.76
	c0.48-0.36,1.43-1.06,1.91-1.41c0.67-1.71,1.41-3.38,2.22-5.03c0.04-1.1,0.07-2.21,0.12-3.31c1.05-2.43,0.69-5.12,0.73-7.68L8.05,77
	c-0.04,1.87-0.09,3.73-0.21,5.6c-0.9-1.36-1.83-2.8-1.8-4.5c-0.73-3.38,1.93-5.96,3.05-8.9c2.63-4.76,1.78-10.32,1.9-15.52
	c0.51,0.42,1.51,1.25,2.01,1.66c0,2.07,0,4.14,0.05,6.21c4.1-6.15,10.1-11.17,12.26-18.46c-2.14-0.09-4.28-0.17-6.42-0.24
	c-1.77,0.73-3.74,1.4-5.55,0.34c0.56-1.01,1.11-2.02,1.65-3.04c1.91-0.03,4.01-0.56,5.67,0.72c2.44,0.14,4.89,0.14,7.34,0.14V40.28
	c-1.64-0.19-3.16-0.71-4.27-1.99c1.43-0.62,2.91-1.09,4.44-1.38c0.48,0.29,1.44,0.88,1.93,1.18c3.69-2.61,6.85-5.92,9.63-9.47
	c0.67-3.11,3.07-5.39,5.42-7.34c3.61-2.811,7.17-5.7,11-8.21c4.95-2.18,10.11-3.96,15.48-4.78C80.85,5.15,90.12,1.25,100,0.97
	 M107.12,2.26c0.351,3.68,0.12,7.37-0.05,11.05c1.16,0.15,2.31,0.32,3.47,0.5c1.931-3.93,5.56-6.51,8.181-9.91
	C114.95,2.75,111.05,2.19,107.12,2.26 M71.88,10.39c9.9-1.11,19.37,2.63,29.17,3.12c1.229-3.8,2.82-7.47,4.31-11.17
	C94.12,4.66,82.47,5.65,71.88,10.39 M114.99,12.72c2.5-1.9,5.65-3.42,6.8-6.53C119.18,7.82,116.15,9.72,114.99,12.72 M103.43,16.23
	c-1.279,2.57-2.14,5.34-2.41,8.21c1.471-0.63,2.851-1.46,4.201-2.34C104.689,20.22,106.32,15.95,103.43,16.23 M107.21,16
	c-1.14,0.77-0.239,3.55,1.16,2.32C109.62,17.48,108.77,14.67,107.21,16 M95.46,31.8c2.899-0.86,2.24-4.94,2.59-7.3
	C96.45,26.63,95.54,29.14,95.46,31.8 M99.23,40.12c1.39-4.71,4.47-9.06,4.129-14.15C99.99,29.79,99.21,35.2,99.23,40.12
	 M104.82,33.17c-1.19,2.22-2.18,4.54-2.881,6.96C103.49,38.17,106.23,35.92,104.82,33.17 M91.7,41.69
	c-0.98,3.41-2.35,6.68-3.32,10.09C91.43,49.4,92.06,45.32,91.7,41.69 M50.71,48.15c2.2,1.61,4.74,3.33,7.62,2.66
	C56.7,48.33,53.26,48.78,50.71,48.15 M89.38,56.47c0.39,1.73,2,2.94,3,4.37c0.46-3.37,1.229-6.77,0.59-10.17
	C91.69,52.55,90.44,54.46,89.38,56.47 M168.13,73.67c1.91,7.06,4.96,13.75,7.351,20.65c1.39,4.18,0.799,9.11,3.789,12.67
	C178.48,95.16,174.85,83.48,168.13,73.67 M30.87,107.38c1.66,3.16,4.03,5.83,6.71,8.16c2.2-3.64,4.9-7.56,3.68-12.04
	c-1.63-0.31-3.24-0.66-4.85-1.03C35.02,104.58,33.33,106.54,30.87,107.38 M2.9,134.91c0.58,8.58,0.96,17.29,3.47,25.57
	c1.83,4.949,5.84,8.739,7.54,13.779c-0.36-6.15-2.09-12.14-4.65-17.72C5.2,149.92,9.13,140.55,2.9,134.91z"/>
<path fill="#FFFFFF" d="M107.12,2.26c3.93-0.07,7.83,0.49,11.601,1.64c-2.621,3.4-6.25,5.98-8.181,9.91
	c-1.16-0.18-2.31-0.35-3.47-0.5C107.24,9.63,107.471,5.94,107.12,2.26z"/>
<path fill="#FFFFFF" d="M71.88,10.39c10.59-4.74,22.24-5.73,33.479-8.05c-1.489,3.7-3.08,7.37-4.31,11.17
	C91.25,13.02,81.78,9.28,71.88,10.39z"/>
<path fill="#FFFFFF" d="M114.99,12.72c1.16-3,4.189-4.9,6.8-6.53C120.641,9.3,117.49,10.82,114.99,12.72z"/>
<path fill="#FFFFFF" d="M117.1,14.98c2.91-2.19,5.301-4.98,8.2-7.19c6.271,5.06,12.851,9.94,17.591,16.58
	c-0.871,0.57-1.74,1.14-2.601,1.7c1.729,1.08,3.851,1.85,4.92,3.7c1.96,3.47,2.261,7.57,3.84,11.2c0.19,0.03,0.591,0.08,0.78,0.11
	c0.52-1.68,0.38-3.45,0.43-5.17c1.16,3.76,3.37,7,6.1,9.8c2.381,2.42,2.701,5.91,2.33,9.13c-3.35-3.47-3.33-10.1-8.41-11.65
	C154.88,54.92,163.391,64.83,167.08,77c3.22,11,6.279,22.06,9.83,32.96c-1.141,5.49,1.79,10.649,2.04,16.08
	c1.3,14.319,0.36,28.75,1.81,43.06c0.45,1.95-2.07,2.541-3.15,3.67c-2.639,11.621-9.359,22.15-9.959,34.23H48.63
	c-4.74-6.189-12.69-7.73-19-11.66c-2.99-1.55-3.58-5.13-5.31-7.73c-1.81-3.319-4.69-5.799-7.04-8.689
	c-0.68-3.6-0.74-7.311-1.71-10.87c-2.33-9.36-6.43-18.35-7.02-28.1c0.04-2.351-1.61-4.13-2.84-5.95
	c-0.42-12.67,1.19-25.32,0.57-37.99c8.38-9.51,1.7-23.74,8.95-33.7c4.8-6.34,13.26-9.69,15.78-17.76
	c12.73,0.23,22.63,9.71,28.94,19.93c-3.53-2.17-7.72-3.52-11.89-2.72c-7.54,1.29-13.4,6.53-19.57,10.63
	c-0.85,7.05-4.69,13.56-3.89,20.84c0.99,0.53,1.99,1.06,2.99,1.59c-0.02,6.04,0.25,12.6,3.9,17.69c2.61,3.59,6.97,5.311,11.27,5.721
	c-0.73-1.08-1.48-2.131-2.26-3.16c5.19-3.67,4.32-12.351-0.78-15.64c-4.12-1.6-6.01,3.54-8.84,5.45
	c-0.72-4.86,0.56-11.05-3.68-14.61c-0.37-10.33,6.41-19.42,15.29-24.05c4.73-3.64,11.16-1.93,16.17,0.19
	c6.02,2.63,9.38,8.88,10.17,15.17c1.85-0.11,3.67-0.42,5.39-1.14c-1.9-1.45-3.92-2.78-5.42-4.67c1.4-1.72,4.63-0.27,5.65-2.82
	c-1.58-0.42-3.33-0.66-4.27-2.18c-5.06-5.73-11.2-10.59-14.98-17.37c2.56-0.13,5.12-0.41,7.61-1.03c-0.7-1.28-1.08-2.9-2.43-3.68
	c-7.58-5.3-18.24-3.16-25.24-9.61C41.89,31.51,47,22.26,55.52,16.4c2.76-1.92,6.2-2.23,9.42-2.72c11.96-1.34,24.19-0.33,35.76,3.01
	c-0.64,1.52-1.21,3.09-2.091,4.5c-1.31,0.38-2.639,0.46-4.01,0.24c-0.34-0.73-0.729-1.43-1.18-2.09
	c-0.12,5.14-0.44,10.35-2.15,15.24c-2.49,7.27-5.91,14.49-5.53,22.37c2.54,2.06,3.95,4.99,4.5,8.17c-0.66,0.13-1.98,0.4-2.65,0.54
	c-0.1,0.54-0.3,1.62-0.4,2.16c3.1,0.11,6.1-0.67,9-1.66c-0.25-5.35-0.029-10.88,2.291-15.81c2.09-5.05,5.949-9,9.049-13.41
	c-0.289-4.29-1.139-8.77,0.471-12.92c1.1-2.87,3.04-5.92,6.15-6.82c3.109,0.32,6.06,1.78,9.27,1.37c0.03-0.5,0.09-1.5,0.12-2
	C121.41,15.99,119.25,15.48,117.1,14.98 M116.721,38.39c1.17-0.26,2.289-0.67,3.359-1.21c4.98-2.99,11.859-1.08,15.34,3.38
	c3.689,4.01,5.43,9.95,10.58,12.48c1.2,3.21,3.26,5.93,5.42,8.54c2.03,2.42,2.38,5.69,2.26,8.73c1.131,0.83,2.35,1.56,3.33,2.58
	c0.93,4.75,1.2,10.2-1.74,14.34c-3.14,4.61-8.949,6.23-14.209,6.76c-7.381,0.62-14.99-0.39-21.92-2.98
	c-7.061-5.54-11.701-13.35-16.5-20.78c0.449-8.16,4-16.02,9.879-21.69c4.34-4.49,9.931-7.44,14.66-11.43
	c-3.3-0.27-6.75,0.52-9.22,2.81c-3.681,3.26-6.399,7.52-10.62,10.19c-4.47,6.55-8.6,14.63-6.83,22.81
	c4.7,7.6,10.12,15.24,18.01,19.78c7.07,4.15,15.59,4.64,23.57,3.99c7.221-0.67,14.6-4.71,17.37-11.69c-0.3-5.29,1.58-11.3-1.83-15.9
	c-3.43-6.1-5.95-12.66-9.51-18.69c-1.64-0.7-3.56-1.16-4.82-2.5c-1.34-2.47-2.11-5.26-3.86-7.51c-3.64-5.22-10.359-7.7-16.56-7.16
	C119.971,33.4,117.48,35.62,116.721,38.39 M121.48,68.83c1.51-0.32,3.029-0.66,4.52-1.06c3.6,1.03,6.439,3.5,8.76,6.34
	c-1.32,2.8-2.49,5.67-3.81,8.47c-3.32-0.02-6.479-1.05-9.54-2.22c0-3.41,0.04-6.82,0-10.23c-0.891,0.39-1.99,0.71-2.18,1.84
	c-0.94,3.57,0.18,7.3,0.01,10.95c5.1,1.08,10.81,3.49,15.8,1.16c0.61-3.85,0.81-7.8,2.25-11.47c-3.33-3.04-6.63-6.9-11.34-7.59
	C123.641,64.94,122.59,67.22,121.48,68.83 M72.99,76.93c0.55,0.36,1.66,1.07,2.21,1.43c-0.68,6.58-2.59,13.11-6.3,18.64
	c-4.6,6.94-10.82,12.58-16.67,18.439c-2.39,1.061-8.15-1.649-8.03,2.511c2.94,0.2,5.91,0.28,8.84-0.101
	C59.38,111.95,66.01,106.16,71,99c4.71-6.93,6.76-15.43,6.54-23.76C76.1,75.62,73.14,74.64,72.99,76.93 M73.83,107.07
	c-0.28,1.539-1.51,2.149-2.92,2.46c-0.33,1.579-1,3.02-2.09,4.22c1.07,3.26-1.81,5.98-1.63,9.22c-0.23,2.65,0.94,5.32,0,7.921
	c-3.61,14.659-4.43,30.049-10.03,44.189c-1.37,3.73-4.66,6.47-5.52,10.42c-0.1,1.02-0.99,2.68,0.39,3.21
	c2.7,1.59,5.38,3.32,8.41,4.22c0.55-3.939-3.93-4.479-6.17-6.58c10.87-18.93,12.64-41.199,15.62-62.38c0.76-3.56,0.15-7.6,2.4-10.67
	c3.8-5.47,7.01-11.52,12.22-15.81c5.33-4.45,12.75-5.65,19.461-4.59c8.51,1.39,15.799,6.32,23.02,10.71
	c6.119,3.73,12.55,8.01,20,8.05c-0.53-0.94-1.08-1.87-1.631-2.801c-1.909-0.529-3.789-1.209-5.389-2.42
	c3.01-0.649,6.43-0.31,8.67,2.011c5.859,5.77,6.77,14.79,12.709,20.5c1.24,1.25,2.94,1.81,4.65,2.06
	c-4.55-5.14-7.34-11.449-10.59-17.41c-2.34-3.83-4.801-8.16-9.25-9.78c-3.15-1.13-6.5,0.01-9.16,1.77
	c-7.46-2.55-13.52-7.79-20.59-11.15c-7.439-3.87-16.25-4.41-24.38-2.89C83.8,93.17,76.75,99.21,73.83,107.07z"/>
<path fill="#FFFFFF" d="M103.43,16.23c2.891-0.28,1.26,3.99,1.791,5.87c-1.351,0.88-2.73,1.71-4.201,2.34
	C101.29,21.57,102.15,18.8,103.43,16.23z"/>
<path fill="#FFFFFF" d="M107.21,16c1.56-1.33,2.41,1.48,1.16,2.32C106.971,19.55,106.07,16.77,107.21,16z"/>
<path fill="#FFFFFF" d="M95.46,31.8c0.08-2.66,0.99-5.17,2.59-7.3C97.7,26.86,98.359,30.94,95.46,31.8z"/>
<path fill="#FFFFFF" d="M99.23,40.12c-0.021-4.92,0.76-10.33,4.129-14.15C103.7,31.06,100.62,35.41,99.23,40.12z"/>
<path fill="#FFFFFF" d="M104.82,33.17c1.41,2.75-1.33,5-2.881,6.96C102.641,37.71,103.63,35.39,104.82,33.17z"/>
<path fill="#070707" d="M116.721,38.39c0.76-2.77,3.25-4.99,6.159-5.15c6.2-0.54,12.92,1.94,16.56,7.16
	c1.75,2.25,2.521,5.04,3.86,7.51c1.261,1.34,3.181,1.8,4.82,2.5c3.56,6.03,6.08,12.59,9.51,18.69c3.41,4.6,1.53,10.61,1.83,15.9
	c-2.771,6.98-10.149,11.02-17.37,11.69c-7.98,0.65-16.5,0.16-23.57-3.99c-7.89-4.54-13.31-12.18-18.01-19.78
	c-1.77-8.18,2.36-16.26,6.83-22.81c4.221-2.67,6.939-6.93,10.62-10.19c2.47-2.29,5.92-3.08,9.22-2.81
	c-4.729,3.99-10.32,6.94-14.66,11.43c-5.879,5.67-9.43,13.53-9.879,21.69c4.799,7.43,9.439,15.24,16.5,20.78
	c6.93,2.59,14.539,3.6,21.92,2.98c5.26-0.53,11.069-2.15,14.209-6.76c2.94-4.14,2.67-9.59,1.74-14.34
	c-0.98-1.02-2.199-1.75-3.33-2.58c0.12-3.04-0.229-6.31-2.26-8.73c-2.16-2.61-4.22-5.33-5.42-8.54
	c-5.15-2.53-6.891-8.47-10.58-12.48c-3.48-4.46-10.359-6.37-15.34-3.38C119.01,37.72,117.891,38.13,116.721,38.39z"/>
<path fill="#FFFFFF" d="M91.7,41.69c0.36,3.63-0.27,7.71-3.32,10.09C89.35,48.37,90.72,45.1,91.7,41.69z"/>
<path fill="#FFFFFF" d="M50.71,48.15c2.55,0.63,5.99,0.18,7.62,2.66C55.45,51.48,52.91,49.76,50.71,48.15z"/>
<path fill="#FFFFFF" d="M89.38,56.47c1.06-2.01,2.31-3.92,3.59-5.8c0.639,3.4-0.13,6.8-0.59,10.17
	C91.38,59.41,89.77,58.2,89.38,56.47z"/>
<path fill="#070707" d="M121.48,68.83c1.109-1.61,2.16-3.89,4.47-3.81c4.71,0.69,8.01,4.55,11.34,7.59
	c-1.44,3.67-1.64,7.62-2.25,11.47c-4.99,2.33-10.7-0.08-15.8-1.16c0.17-3.65-0.95-7.38-0.01-10.95c0.189-1.13,1.289-1.45,2.18-1.84
	c0.04,3.41,0,6.82,0,10.23c3.061,1.17,6.22,2.2,9.54,2.22c1.319-2.8,2.489-5.67,3.81-8.47c-2.32-2.84-5.16-5.31-8.76-6.34
	C124.51,68.17,122.99,68.51,121.48,68.83z"/>
<path fill="#FFFFFF" d="M168.13,73.67c6.72,9.81,10.351,21.49,11.14,33.32c-2.99-3.56-2.399-8.49-3.789-12.67
	C173.09,87.42,170.04,80.73,168.13,73.67z"/>
<path fill="#070707" d="M72.99,76.93c0.15-2.29,3.11-1.31,4.55-1.69C77.76,83.57,75.71,92.07,71,99
	c-4.99,7.16-11.62,12.95-17.96,18.85c-2.93,0.381-5.9,0.301-8.84,0.101c-0.12-4.16,5.64-1.45,8.03-2.511
	C58.08,109.58,64.3,103.94,68.9,97c3.71-5.53,5.62-12.06,6.3-18.64C74.65,78,73.54,77.29,72.99,76.93z"/>
<path fill="#070707" d="M73.83,107.07c2.92-7.86,9.97-13.9,18.2-15.521c8.13-1.52,16.941-0.98,24.38,2.89
	c7.07,3.36,13.13,8.6,20.59,11.15c2.66-1.76,6.01-2.9,9.16-1.77c4.449,1.62,6.91,5.95,9.25,9.78c3.25,5.961,6.04,12.271,10.59,17.41
	c-1.71-0.25-3.41-0.81-4.65-2.06c-5.939-5.71-6.85-14.73-12.709-20.5c-2.24-2.32-5.66-2.66-8.67-2.011
	c1.6,1.211,3.479,1.891,5.389,2.42c0.551,0.931,1.101,1.86,1.631,2.801c-7.45-0.04-13.881-4.32-20-8.05
	c-7.221-4.39-14.51-9.32-23.02-10.71c-6.711-1.06-14.131,0.14-19.461,4.59c-5.21,4.29-8.42,10.34-12.22,15.81
	c-2.25,3.07-1.64,7.11-2.4,10.67c-2.98,21.181-4.75,43.45-15.62,62.38c2.24,2.101,6.72,2.641,6.17,6.58
	c-3.03-0.899-5.71-2.63-8.41-4.22c-1.38-0.53-0.49-2.19-0.39-3.21c0.86-3.95,4.15-6.689,5.52-10.42
	c5.6-14.141,6.42-29.53,10.03-44.189c0.94-2.601-0.23-5.271,0-7.921c-0.18-3.239,2.7-5.96,1.63-9.22c1.09-1.2,1.76-2.641,2.09-4.22
	C72.32,109.22,73.55,108.609,73.83,107.07z"/>
<path fill="#FFFFFF" d="M30.87,107.38c2.46-0.84,4.15-2.8,5.54-4.91c1.61,0.37,3.22,0.72,4.85,1.03c1.22,4.48-1.48,8.4-3.68,12.04
	C34.9,113.21,32.53,110.54,30.87,107.38z"/>
<path fill="#FFFFFF" d="M0,125.109c1.69,5.471,1.09,11.221,1.39,16.851c0.5,3.979,0.74,7.979,1.37,11.94
	c0.2,5.459,3.18,10.24,5.47,15.039c4.97,6.33,7.62,14.23,8.16,22.23c1.29,5.37,1.02,11.51,5.01,15.83H0V125.109z"/>
<path fill="#FFFFFF" d="M2.9,134.91c6.23,5.64,2.3,15.01,6.36,21.63c2.56,5.58,4.29,11.569,4.65,17.72
	c-1.7-5.04-5.71-8.83-7.54-13.779C3.86,152.2,3.48,143.49,2.9,134.91z"/>
<path fill="#FFFFFF" d="M17.15,183.5c2.18,2,4.65,3.98,5.67,6.87c0.87,1.68,0.96,3.95,2.71,5.05c6.39,4.61,13.38,8.32,20.53,11.58
	H23.63C19.8,199.76,17.54,191.68,17.15,183.5z"/>
</svg>
