<?xml version="1.0" encoding="utf-8"?>
<!-- Generator: Adobe Illustrator 15.0.2, SVG Export Plug-In . SVG Version: 6.00 Build 0)  -->
<!DOCTYPE svg PUBLIC "-//W3C//DTD SVG 1.1//EN" "http://www.w3.org/Graphics/SVG/1.1/DTD/svg11.dtd">
<svg version="1.1" id="Layer_1" xmlns="http://www.w3.org/2000/svg" xmlns:xlink="http://www.w3.org/1999/xlink" x="0px" y="0px"
	 width="105px" height="121px" viewBox="0 0 105 121" enable-background="new 0 0 105 121" xml:space="preserve">
<path fill="#FFFFFF" d="M0,0h105v87.75c-0.5-0.03-1.5-0.07-2-0.1c-0.08-7.891,0.15-15.801-0.07-23.69
	c-0.15-1.16-0.979-3.64-2.55-2.75c-0.97,1.399-0.729,3.19-0.399,4.771c2.189,9.17,1.18,18.66,1.89,27.979
	c0.37,1.69-0.47,3.13-1.42,4.44c-2.07,6.55-5.681,12.83-5.74,19.85c3.021-2.73,3.75-6.87,4.771-10.62
	c1.09-4.25,3.689-7.87,5.52-11.81V121H0V0 M33.14,7.13c-3.55,1.82-6.78,4.36-9.48,7.3c-1.09,2.73-2.85,5.14-5.2,6.92
	c-1.31,1.4-4.08-0.81-4.78,1.52c0.75,0.34,2.25,1.02,3,1.35c-4.19,2.58-5.69,7.62-8.9,11.14c0.32-1.96,0.11-3.83-1.29-5.27
	c-0.13,2.58,0.38,5.29-0.65,7.75c-0.99,2.67-2.77,5.19-2.43,8.17c3.29,2.04-0.11,5.32-0.54,8.01c-0.33,4.02,0.02,8.07-0.35,12.1
	c-0.74-7.11,0.25-14.36-1.21-21.4c-0.77,9.74,0.09,19.55-0.5,29.3c-1.1,4.5,0.44,8.94,0.92,13.4c0.21,7.23,7.16,12.27,7.24,19.55
	c0.22,4.021,0.96,8.91,4.79,11.11c-1.53-4.45-3.4-8.85-3.57-13.641c2.88,1.4,2.74,5.261,5.29,6.94c3.93,2.67,8.12,5.04,12.63,6.62
	c-2.02-3.92-6.59-4.82-10.12-6.82c-2.3-1.14-3-3.84-4.47-5.75c-1.4-2.27-4.2-3.97-3.57-7.02c-0.88,0.07-2.23,0.18-2.6-0.891
	c-1.19-2.879-3.27-5.39-3.78-8.539c-0.81-3.99-1.18-8.07-1.35-12.141c2.65,3.141,1.44,7.5,2.92,11.08
	c1.02,2.52,2.02,5.05,2.56,7.721c0.82,0.68,1.64,1.35,2.47,2.029C8.3,91.8,6.15,85.97,5.34,79.84c-0.41-2.33-2.03-4.39-1.58-6.85
	c0.5-6.15-0.12-12.46,0.75-18.51c3.62-5.15,1.32-11.75,3.72-17.26c2.66-4.34,7.92-6.42,9.89-11.28c6.82,0.4,12.07,5.28,15.73,10.63
	c-6.24-3.24-12.57,1.09-17.27,4.99c-0.88,4.34-4.27,9.46-0.84,13.45c0.35,3.51,0.37,7.54,3.17,10.12c2.92,2.97,7.48,2.24,11.23,2.12
	c7.13-5.75,14.4-13.33,14.13-23.19c-0.3,0.02-0.89,0.05-1.19,0.07c-1.01,2.5-0.99,5.3-2.11,7.77c-2.29,5.66-7.16,9.59-11.28,13.88
	c-2.02-0.12-3.95,0.84-5.93,0.659c1.3-2.799,2.71-6.659-0.2-9.1c-1.96-2.2-4.08,0.9-5.6,2.04c-0.21-2.11-0.17-4.31-1.12-6.25
	c-1.95-3.6,0.08-7.84,2.37-10.77c3.15-3.35,7.88-6.9,12.65-4.63c4.27,1.12,6.58,5.1,7.48,9.14c0.69-0.14,2.07-0.42,2.76-0.56
	c-0.59-0.63-1.75-1.89-2.34-2.52l0.51-0.59l0.57-0.47c0.09-0.3,0.28-0.91,0.37-1.21c-3.45-3.15-6.85-6.42-9.52-10.29
	c1.41-0.26,2.82-0.54,4.22-0.84c-0.46-0.75-1.38-2.26-1.84-3.02c-0.71,0.73-1.39,1.48-2.06,2.24c-0.51-0.21-1.53-0.63-2.04-0.84
	c1.03-0.55,2.06-1.11,3.07-1.7c-4.19-1.47-9.38-1.04-12.69-4.44c4.11-4.45,7.17-10.2,12.64-13.16c7.64-2.1,15.71-1.08,23.33,0.61
	c0.529,0.99,1.08,1.98,1.65,2.95l0.199-2.57c1.23-0.09,2.46-0.19,3.689-0.3l0.16,0.76c-0.6-0.12-1.789-0.37-2.39-0.49
	c-0.05,0.73-0.159,2.18-0.21,2.91c-0.43,0.31-1.279,0.93-1.71,1.24c-0.5-0.72-1.01-1.44-1.54-2.14c-0.82,0.08-2.47,0.24-3.3,0.32
	c0.351,5.84-2.79,10.9-4.09,16.39c-0.9,2.93,1.01,5.34,2.4,7.7c-0.52,0.57-1.58,1.72-2.11,2.29c1.96,0.2,3.82-0.38,5.571-1.16
	c-0.781-6.13,2.239-11.81,6.369-16.09c-0.24-3.6-0.74-8.01,2.37-10.59c2.07-1.9,5.41,1.8,7-0.94c-0.92-0.28-2.76-0.83-3.68-1.1
	c1.37-1.33,2.75-2.66,4.12-4c3.55,2.76,7.039,5.64,9.9,9.14c-0.33,0.28-0.98,0.85-1.311,1.14c3.59,1.59,3.689,5.6,4.96,8.77
	c0.28-0.58,0.83-1.74,1.11-2.32c1.039,3.38,4.689,5.55,4.569,9.36c-1.97-2.05-2.579-5.21-5.25-6.59c2.28,7,8.03,12.51,9.29,19.9
	c0.471-0.69,0.939-1.38,1.41-2.08l-0.29,1.72c2.229-0.19,1.87,3.04,3.521,3.43c1.299-1.36-0.01-3.32-0.951-4.49
	c-4.869-5.74-6.17-13.39-8.359-20.36c-1.87-2.57-4.18-4.79-6.05-7.36C80.1,11.48,77.08,6.81,72.2,4.56
	c0.59-0.68,1.17-1.36,1.75-2.04c-5.66,0.77-10.47-3.4-16.11-2.48C49.54,2.15,41.36,4.75,33.14,7.13 M66.2,21.28
	c0.521,2.37,3.329-0.67,4.771-0.36c-6.771,3.76-13.57,9.9-14.281,18.09c-0.459,3.11,1.891,5.46,3.531,7.78
	c3.479,4.66,8.68,8.46,14.689,8.59c5.43,0.65,12.061-0.49,14.92-5.71c1.02-3.74,0.91-8.01-1.311-11.31
	c-2.229-3.66-3.09-8.67-7.31-10.65c-1.13-2.1-2-4.51-3.989-5.98C74.13,19.34,69.23,18.12,66.2,21.28 M8.22,24.77
	c1.22,0.53,5.64,0.81,5.31-0.72C11.98,23.99,8.89,22.94,8.22,24.77 M94.4,44.49c1.789,5.03,2.5,10.57,4.91,15.31
	c2.199-0.28-1.351-4.56,1.299-3.65c0.261,1.89,0.33,4.11,2.621,4.56c-0.881-4.17-1.61-8.41-3.351-12.34
	c-1.62,1.64,0.12,3.81-0.03,5.7c-2.209-2.19-2.43-5.92-3.55-8.8C95.83,45.07,94.88,44.68,94.4,44.49 M87.27,68.87
	c-0.029,1.83,0.78,3.37,2.17,4.54c-9.959,8.46-16.369,20.05-22.66,31.3c-1.799,3.49-5.68,5.05-8.789,7.13
	c-4.961,3.27-11.73,2.11-16.06-1.68c-6.55-5.11-9.24-13.96-16.75-18c0.32,1.689,1.14,3.21,1.83,4.76
	c-7.34-3.89-1.27-14.26-7.47-18.87c1.47,5.45,0.98,11.28,2.84,16.61c0.89,2.949,4.09,3.93,6.87,3.48
	c4.38,4.109,6.82,10.02,11.85,13.469c3.95,2.16,8.38,4.391,13.02,3.521c4.43-0.45,7.56-3.899,11.239-6
	c3.891-3.11,4.67-8.37,7.67-12.14c4.24-6.051,7.621-12.811,12.941-18.04c1.77-1.74,4.539-2.72,5.5-5.13
	C91.12,71.58,89.061,70.05,87.27,68.87z"/>
<path fill="#393939" d="M33.14,7.13c8.22-2.38,16.4-4.98,24.7-7.09c5.641-0.92,10.45,3.25,16.11,2.48
	c-0.58,0.68-1.16,1.36-1.75,2.04c4.88,2.25,7.899,6.92,11.17,10.96c1.87,2.57,4.18,4.79,6.05,7.36
	c2.189,6.97,3.49,14.62,8.359,20.36c0.941,1.17,2.25,3.13,0.951,4.49c-1.65-0.39-1.291-3.62-3.521-3.43l0.29-1.72
	c-0.471,0.7-0.939,1.39-1.41,2.08c-1.26-7.39-7.01-12.9-9.29-19.9c2.671,1.38,3.28,4.54,5.25,6.59c0.12-3.81-3.53-5.98-4.569-9.36
	c-0.28,0.58-0.83,1.74-1.11,2.32c-1.271-3.17-1.37-7.18-4.96-8.77c0.33-0.29,0.98-0.86,1.311-1.14c-2.861-3.5-6.351-6.38-9.9-9.14
	c-1.37,1.34-2.75,2.67-4.12,4c0.92,0.271,2.76,0.82,3.68,1.1c-1.59,2.74-4.93-0.96-7,0.94c-3.11,2.58-2.61,6.99-2.37,10.59
	c-4.13,4.28-7.15,9.96-6.369,16.09c-1.75,0.78-3.611,1.36-5.571,1.16c0.53-0.57,1.59-1.72,2.11-2.29c-1.39-2.36-3.3-4.77-2.4-7.7
	c1.3-5.49,4.441-10.55,4.09-16.39c0.83-0.08,2.479-0.24,3.3-0.32c0.53,0.7,1.04,1.42,1.54,2.14c0.431-0.31,1.28-0.93,1.71-1.24
	c0.051-0.73,0.16-2.18,0.21-2.91c0.601,0.12,1.79,0.37,2.39,0.49l-0.16-0.76c-1.229,0.11-2.459,0.21-3.689,0.3l-0.199,2.57
	c-0.57-0.97-1.121-1.96-1.65-2.95C48.7,8.39,40.63,7.37,32.99,9.47c-5.47,2.96-8.53,8.71-12.64,13.16c3.31,3.4,8.5,2.97,12.69,4.44
	c-1.01,0.59-2.04,1.15-3.07,1.7c0.51,0.21,1.53,0.63,2.04,0.84c0.67-0.76,1.35-1.51,2.06-2.24c0.46,0.76,1.38,2.27,1.84,3.02
	c-1.4,0.3-2.81,0.58-4.22,0.84c2.67,3.87,6.07,7.14,9.52,10.29c-0.09,0.3-0.28,0.91-0.37,1.21l-0.57,0.47l-0.51,0.59
	c0.59,0.63,1.75,1.89,2.34,2.52c-0.69,0.14-2.07,0.42-2.76,0.56c-0.9-4.04-3.21-8.02-7.48-9.14c-4.77-2.27-9.5,1.28-12.65,4.63
	c-2.29,2.93-4.32,7.17-2.37,10.77c0.95,1.94,0.91,4.14,1.12,6.25c1.52-1.14,3.64-4.24,5.6-2.04c2.91,2.44,1.5,6.301,0.2,9.1
	c1.98,0.181,3.91-0.779,5.93-0.659c4.12-4.29,8.99-8.22,11.28-13.88c1.12-2.47,1.1-5.27,2.11-7.77c0.3-0.02,0.89-0.05,1.19-0.07
	c0.27,9.86-7,17.44-14.13,23.19c-3.75,0.12-8.31,0.85-11.23-2.12c-2.8-2.58-2.82-6.61-3.17-10.12c-3.43-3.99-0.04-9.11,0.84-13.45
	c4.7-3.9,11.03-8.23,17.27-4.99c-3.66-5.35-8.91-10.23-15.73-10.63c-1.97,4.86-7.23,6.94-9.89,11.28c-2.4,5.51-0.1,12.11-3.72,17.26
	c-0.87,6.05-0.25,12.36-0.75,18.51c-0.45,2.46,1.17,4.52,1.58,6.85c0.81,6.13,2.96,11.96,4.83,17.83
	c-0.83-0.68-1.65-1.35-2.47-2.029c-0.54-2.671-1.54-5.201-2.56-7.721c-1.48-3.58-0.27-7.939-2.92-11.08
	c0.17,4.07,0.54,8.15,1.35,12.141c0.51,3.149,2.59,5.66,3.78,8.539c0.37,1.07,1.72,0.961,2.6,0.891c-0.63,3.05,2.17,4.75,3.57,7.02
	c1.47,1.91,2.17,4.61,4.47,5.75c3.53,2,8.1,2.9,10.12,6.82c-4.51-1.58-8.7-3.95-12.63-6.62c-2.55-1.68-2.41-5.54-5.29-6.94
	c0.17,4.791,2.04,9.19,3.57,13.641c-3.83-2.2-4.57-7.09-4.79-11.11c-0.08-7.28-7.03-12.319-7.24-19.55
	c-0.48-4.46-2.02-8.9-0.92-13.4c0.59-9.75-0.27-19.56,0.5-29.3c1.46,7.04,0.47,14.29,1.21,21.4c0.37-4.03,0.02-8.08,0.35-12.1
	c0.43-2.69,3.83-5.97,0.54-8.01c-0.34-2.979,1.44-5.5,2.43-8.17c1.03-2.46,0.52-5.17,0.65-7.75c1.4,1.44,1.61,3.31,1.29,5.27
	c3.21-3.52,4.71-8.56,8.9-11.14c-0.75-0.33-2.25-1.01-3-1.35c0.7-2.33,3.47-0.12,4.78-1.52c2.35-1.78,4.11-4.19,5.2-6.92
	C26.36,11.49,29.59,8.95,33.14,7.13 M41.04,6.54c5.47-0.19,10.78,1.22,16.181,1.84c0.52-1.46,0.989-2.94,1.35-4.45
	c0.6-0.14,1.779-0.41,2.38-0.54c0.31,1.76-1.05,4.65,1.35,5.44c1.46-2.09,3.13-4.02,4.9-5.84c-2.66-0.6-5.4-1.09-8.12-0.63
	C53.029,3.58,46.82,4.26,41.04,6.54 M50.9,33.74c0.44,0.24,1.32,0.71,1.76,0.95c0.08-1.66,0.16-3.32,0.19-4.99
	C51.81,30.84,51.17,32.23,50.9,33.74 M5.31,45.25C5.84,45.83,5.84,45.83,5.31,45.25 M17.97,61.57c1.13,1.479,2.35,2.88,3.69,4.18
	c0.78-2.07,2.96-4.311,1.7-6.63C20.98,57.88,19.62,60.39,17.97,61.57z"/>
<path fill="#FFFFFF" d="M41.04,6.54c5.78-2.28,11.989-2.96,18.04-4.18c2.72-0.46,5.46,0.03,8.12,0.63
	c-1.771,1.82-3.44,3.75-4.9,5.84c-2.399-0.79-1.04-3.68-1.35-5.44c-0.601,0.13-1.78,0.4-2.38,0.54c-0.36,1.51-0.83,2.99-1.35,4.45
	C51.82,7.76,46.51,6.35,41.04,6.54z"/>
<path fill="#393939" d="M66.2,21.28c3.03-3.16,7.93-1.94,11.021,0.45c1.989,1.47,2.859,3.88,3.989,5.98
	c4.22,1.98,5.08,6.99,7.31,10.65c2.221,3.3,2.33,7.57,1.311,11.31c-2.859,5.22-9.49,6.36-14.92,5.71
	c-6.01-0.13-11.21-3.93-14.689-8.59c-1.641-2.32-3.99-4.67-3.531-7.78C57.4,30.82,64.2,24.68,70.971,20.92
	C69.529,20.61,66.721,23.65,66.2,21.28 M72,20.9c-0.98,2.31-3.391,3.33-5.21,4.85c-4.59,3.27-8.181,8.38-8.399,14.15
	c1.959,4.57,5.189,8.62,8.93,11.88c5.3,2.22,11.689,2.77,17.13,0.68c4.771-1.71,6.329-9,2.521-12.32
	c-0.111-3.68-2.781-6.49-4.861-9.26C78.62,27.62,77.07,22.2,72,20.9z"/>
<path fill="#FFFFFF" d="M72,20.9c5.07,1.3,6.62,6.72,10.109,9.98c2.08,2.77,4.75,5.58,4.861,9.26c3.809,3.32,2.25,10.61-2.521,12.32
	c-5.44,2.09-11.83,1.54-17.13-0.68c-3.74-3.26-6.971-7.311-8.93-11.88c0.219-5.77,3.81-10.88,8.399-14.15
	C68.609,24.23,71.02,23.21,72,20.9 M68.891,39.61c1-0.19,2-0.38,3-0.59c1.459,1.03,2.879,2.11,4.26,3.24
	c-0.621,1.59-1.2,3.21-2.03,4.71c-1.74,0.39-3.46-0.5-5.149-0.83c-0.011-1.79,0-3.58,0.039-5.37c-0.439-0.08-1.31-0.23-1.75-0.3
	c-0.07,2.33-0.18,4.68,0.2,6.99c2.819,1.17,5.899,1.69,8.92,1.1c0.399-2.42,0.86-4.83,1.37-7.23c-2.08-1.54-4.029-3.53-6.65-4.08
	C69.93,37.56,69.43,38.65,68.891,39.61z"/>
<path fill="#393939" d="M8.22,24.77c0.67-1.83,3.76-0.78,5.31-0.72C13.86,25.58,9.44,25.3,8.22,24.77z"/>
<path fill="#FFFFFF" d="M50.9,33.74c0.27-1.51,0.91-2.9,1.95-4.04c-0.03,1.67-0.11,3.33-0.19,4.99
	C52.22,34.45,51.34,33.98,50.9,33.74z"/>
<path fill="#393939" d="M68.891,39.61c0.539-0.96,1.039-2.05,2.209-2.36c2.621,0.55,4.57,2.54,6.65,4.08
	c-0.51,2.4-0.971,4.81-1.37,7.23c-3.021,0.59-6.101,0.07-8.92-1.1c-0.38-2.31-0.271-4.66-0.2-6.99c0.44,0.07,1.311,0.22,1.75,0.3
	c-0.039,1.79-0.05,3.58-0.039,5.37c1.689,0.33,3.409,1.22,5.149,0.83c0.83-1.5,1.409-3.12,2.03-4.71
	c-1.381-1.13-2.801-2.21-4.26-3.24C70.891,39.23,69.891,39.42,68.891,39.61z"/>
<path fill="#FFFFFF" d="M5.31,45.25C5.84,45.83,5.84,45.83,5.31,45.25z"/>
<path fill="#393939" d="M94.4,44.49c0.479,0.19,1.43,0.58,1.899,0.78c1.12,2.88,1.341,6.61,3.55,8.8c0.15-1.89-1.59-4.06,0.03-5.7
	c1.74,3.93,2.47,8.17,3.351,12.34c-2.291-0.45-2.36-2.67-2.621-4.56c-2.649-0.91,0.9,3.37-1.299,3.65
	C96.9,55.06,96.189,49.52,94.4,44.49z"/>
<path fill="#FFFFFF" d="M17.97,61.57c1.65-1.18,3.01-3.69,5.39-2.45c1.26,2.319-0.92,4.56-1.7,6.63
	C20.32,64.45,19.1,63.05,17.97,61.57z"/>
<path fill="#393939" d="M100.38,61.21c1.57-0.89,2.399,1.59,2.55,2.75c0.221,7.89-0.01,15.8,0.07,23.69c0.5,0.029,1.5,0.069,2,0.1
	v8.07c-1.83,3.939-4.43,7.56-5.52,11.81c-1.021,3.75-1.75,7.89-4.771,10.62c0.06-7.02,3.67-13.3,5.74-19.85
	c0.95-1.311,1.79-2.75,1.42-4.44c-0.71-9.319,0.3-18.81-1.89-27.979C99.65,64.4,99.41,62.609,100.38,61.21z"/>
<path fill="#393939" d="M87.27,68.87c1.791,1.18,3.851,2.71,4.201,4.95c-0.961,2.41-3.73,3.39-5.5,5.13
	c-5.32,5.229-8.701,11.989-12.941,18.04c-3,3.77-3.779,9.029-7.67,12.14c-3.68,2.101-6.81,5.55-11.239,6
	c-4.64,0.87-9.07-1.36-13.02-3.521c-5.03-3.449-7.47-9.359-11.85-13.469c-2.78,0.449-5.98-0.531-6.87-3.48
	c-1.86-5.33-1.37-11.16-2.84-16.61c6.2,4.61,0.13,14.98,7.47,18.87c-0.69-1.55-1.51-3.07-1.83-4.76c7.51,4.04,10.2,12.89,16.75,18
	c4.33,3.79,11.099,4.949,16.06,1.68c3.109-2.08,6.99-3.64,8.789-7.13c6.291-11.25,12.701-22.84,22.66-31.3
	C88.05,72.24,87.24,70.7,87.27,68.87z"/>
</svg>
