<?xml version="1.0" encoding="UTF-8" ?>
<!DOCTYPE svg PUBLIC "-//W3C//DTD SVG 1.1//EN" "http://www.w3.org/Graphics/SVG/1.1/DTD/svg11.dtd">
<svg width="217pt" height="238pt" viewBox="0 0 217 238" version="1.1" xmlns="http://www.w3.org/2000/svg">
<path fill="#010101" opacity="1.00" d=" M 0.00 0.00 L 217.00 0.00 L 217.00 238.00 L 130.65 238.00 C 131.91 237.26 133.13 236.46 134.34 235.65 C 131.71 234.40 129.07 235.98 126.67 237.00 C 127.39 237.25 128.84 237.75 129.56 238.00 L 127.66 238.00 C 127.20 237.60 126.29 236.79 125.83 236.39 C 128.08 235.07 130.32 233.71 132.37 232.09 C 129.35 232.68 126.38 233.53 123.39 234.27 C 124.10 234.67 125.53 235.46 126.24 235.85 C 125.00 236.27 123.76 236.70 122.52 237.13 C 122.86 235.84 123.20 234.55 123.52 233.27 C 126.49 231.05 129.41 228.74 132.49 226.66 C 133.24 223.39 136.20 221.70 138.71 219.89 C 137.11 218.34 135.51 219.74 134.54 221.21 C 132.94 221.34 131.34 221.52 129.76 221.80 C 129.67 221.46 129.60 221.13 129.52 220.80 C 131.18 220.81 132.83 220.81 134.48 220.81 C 135.33 219.79 136.18 218.77 137.02 217.74 C 137.99 217.93 138.96 218.12 139.93 218.30 C 139.78 217.69 139.49 216.45 139.35 215.83 C 139.59 216.02 140.07 216.40 140.31 216.59 C 141.69 218.18 143.57 216.38 143.86 214.84 C 145.41 213.64 146.82 212.28 148.12 210.82 C 148.98 211.52 149.82 212.28 150.64 213.03 C 150.25 212.53 149.47 211.52 149.08 211.02 C 149.65 210.51 150.78 209.49 151.35 208.98 C 149.26 209.02 147.17 209.13 145.08 209.07 C 147.39 206.80 150.50 205.86 153.48 204.86 C 155.46 204.16 157.38 203.28 159.28 202.38 C 159.89 202.63 160.49 202.89 161.10 203.15 C 163.81 198.66 170.78 198.69 172.23 193.25 C 169.20 195.40 166.19 197.68 162.66 198.96 C 163.76 197.53 164.95 196.15 166.32 194.97 C 170.98 191.49 174.76 186.97 179.65 183.79 C 181.19 182.91 181.94 181.30 182.79 179.83 C 185.13 176.51 189.06 174.78 191.45 171.48 C 196.69 165.70 198.89 157.88 204.46 152.38 C 210.61 141.72 210.70 128.94 210.64 116.98 C 211.92 109.52 210.74 101.98 209.02 94.69 C 207.29 87.51 205.46 80.30 202.47 73.52 C 202.39 72.94 202.25 71.79 202.18 71.21 C 202.55 70.75 203.31 69.85 203.69 69.39 C 203.17 64.96 200.50 61.27 197.45 58.19 C 191.90 51.89 185.26 46.48 181.09 39.06 C 183.70 40.52 186.12 42.56 189.19 42.89 C 187.22 40.46 184.80 38.46 182.59 36.27 C 181.82 36.29 181.06 36.30 180.29 36.32 C 179.46 35.66 178.61 35.01 177.77 34.36 C 178.46 34.41 179.84 34.51 180.53 34.57 C 182.23 32.76 184.51 31.38 185.45 28.97 C 184.33 29.27 183.23 29.58 182.12 29.91 C 181.72 28.47 182.46 26.13 180.64 25.53 C 177.54 24.47 174.87 22.57 172.70 20.14 C 168.09 20.15 164.27 17.36 160.07 15.90 C 161.38 14.91 162.70 13.92 163.98 12.89 C 160.95 14.63 157.09 14.58 154.44 16.92 C 153.83 16.79 152.61 16.52 152.00 16.38 C 151.80 16.70 151.39 17.33 151.19 17.65 C 150.86 16.36 150.46 15.09 150.03 13.83 C 150.32 13.71 150.89 13.46 151.18 13.34 C 151.74 14.04 151.74 16.03 153.15 15.63 C 156.95 14.22 160.82 12.85 164.27 10.66 C 160.65 9.40 157.48 11.76 154.61 13.60 C 154.13 13.38 153.18 12.96 152.70 12.75 C 154.83 10.53 157.79 9.61 160.68 8.84 C 160.68 7.84 160.70 6.84 160.72 5.84 C 156.71 5.89 152.92 7.23 149.20 8.59 C 144.30 5.73 139.08 8.44 134.28 10.03 C 134.30 9.66 134.35 8.93 134.37 8.56 C 132.57 8.87 130.76 9.15 128.96 9.44 C 129.18 8.82 129.61 7.56 129.83 6.93 C 129.16 6.94 127.81 6.95 127.13 6.96 C 127.26 7.46 127.50 8.47 127.63 8.98 C 126.26 9.68 124.67 11.41 123.49 9.36 C 124.44 9.14 126.34 8.71 127.29 8.49 C 124.26 6.46 120.58 7.82 117.69 9.41 C 117.96 8.57 118.22 7.72 118.48 6.87 C 115.30 5.03 113.38 9.61 110.09 8.00 C 107.79 8.81 105.40 9.55 102.96 9.01 C 104.41 8.65 105.87 8.31 107.33 7.97 C 107.84 6.56 108.36 5.14 108.90 3.73 C 106.12 5.29 103.22 6.60 100.19 7.58 C 100.68 8.10 101.66 9.15 102.15 9.67 C 100.10 6.93 97.29 8.69 95.09 10.17 C 95.03 9.37 94.90 7.78 94.83 6.98 C 90.13 6.68 85.46 7.62 81.14 9.47 C 81.59 9.67 82.48 10.07 82.93 10.27 C 79.01 12.02 75.43 14.50 71.44 16.08 C 68.68 16.50 66.16 17.65 63.74 19.00 C 63.87 19.41 64.13 20.24 64.25 20.66 C 65.59 20.00 66.93 19.37 68.29 18.76 C 67.17 20.12 64.24 20.71 64.81 22.86 C 66.37 22.56 67.89 22.10 69.39 21.61 C 67.63 22.37 65.85 23.09 64.04 23.75 C 62.37 26.03 60.77 28.38 58.79 30.41 C 58.35 30.78 57.48 31.52 57.04 31.89 C 57.56 30.90 58.09 29.92 58.63 28.95 C 59.87 26.47 61.59 24.29 63.86 22.67 C 63.37 21.85 62.84 21.06 62.24 20.31 C 59.83 23.05 57.52 25.87 55.18 28.67 C 52.65 31.50 50.53 34.65 48.39 37.78 C 47.88 38.41 47.38 39.05 46.88 39.69 C 46.26 38.90 45.64 38.10 45.01 37.32 C 43.15 44.53 39.25 51.33 39.85 59.00 C 38.14 72.58 35.63 86.37 37.99 100.04 C 38.44 101.54 38.92 103.95 40.87 103.99 C 41.85 102.18 41.01 100.14 40.87 98.23 C 40.11 93.85 40.67 89.40 40.30 85.00 C 40.13 82.39 39.58 79.63 40.80 77.18 C 40.47 81.65 40.92 86.13 41.47 90.56 C 42.18 90.20 42.90 89.84 43.61 89.48 C 43.61 91.66 43.57 93.84 43.64 96.02 C 43.25 94.31 43.85 91.34 41.43 91.06 C 41.81 95.24 42.60 99.42 42.23 103.62 C 41.79 104.19 40.93 105.32 40.50 105.88 C 41.59 110.63 42.23 115.50 41.74 120.38 C 41.54 119.39 41.13 117.42 40.93 116.43 C 40.51 116.43 39.66 116.43 39.24 116.43 C 40.24 109.38 37.20 102.62 35.04 96.08 C 33.98 84.18 34.94 72.20 35.64 60.30 C 35.30 60.28 34.61 60.24 34.27 60.22 C 32.67 74.72 31.92 89.53 34.32 103.98 C 34.91 108.49 37.32 112.46 38.19 116.89 L 38.40 117.72 C 39.02 121.87 39.65 126.04 40.93 130.05 C 41.86 132.18 42.12 134.92 44.04 136.41 C 45.68 132.72 42.75 127.54 44.12 123.29 C 46.00 123.08 47.33 124.36 48.42 125.69 C 48.55 128.63 49.22 131.51 49.47 134.45 C 47.29 131.21 49.34 125.43 45.16 123.98 C 45.53 129.29 45.59 134.70 46.36 140.00 C 46.39 140.32 46.44 140.96 46.47 141.28 C 45.93 141.22 44.85 141.12 44.30 141.07 C 44.29 142.90 44.27 144.76 43.65 146.52 C 41.84 149.93 40.13 153.41 38.96 157.11 C 38.66 156.42 38.06 155.05 37.76 154.37 C 37.31 155.45 36.86 156.53 36.48 157.63 C 35.18 161.51 33.39 165.30 32.99 169.42 C 33.10 169.61 33.33 170.00 33.44 170.19 C 33.69 170.62 34.19 171.46 34.44 171.89 C 33.54 174.14 32.70 176.43 31.52 178.55 L 31.06 179.19 C 31.75 176.82 32.46 174.45 33.48 172.19 C 32.83 171.46 32.16 170.73 31.49 170.02 C 30.82 171.26 30.20 172.53 29.61 173.82 C 27.89 176.60 28.87 179.91 28.28 182.94 C 27.58 186.48 26.18 189.83 25.32 193.33 C 24.92 194.15 24.51 194.97 24.10 195.80 C 22.82 198.39 21.68 201.13 21.42 204.04 C 22.67 204.83 23.85 203.13 24.49 202.25 L 24.07 203.24 C 23.38 204.79 23.02 206.46 22.64 208.10 C 22.65 207.63 22.66 206.67 22.67 206.20 C 22.23 205.39 21.65 204.93 20.93 204.80 C 18.16 212.91 16.38 221.35 13.18 229.32 C 11.93 232.18 10.92 235.14 9.68 238.00 L 7.40 238.00 C 9.11 232.58 10.31 227.00 11.13 221.38 C 11.42 220.24 10.60 219.28 10.16 218.31 C 9.88 225.11 5.37 231.03 6.23 238.00 L 0.00 238.00 L 0.00 0.00 M 108.08 6.55 C 110.43 7.77 115.51 9.23 114.71 4.74 C 112.45 5.17 110.23 5.76 108.08 6.55 M 116.42 4.93 C 117.32 5.69 118.22 6.45 119.13 7.20 C 121.44 6.89 123.76 6.26 126.11 6.64 C 126.35 6.21 126.82 5.34 127.05 4.91 C 125.30 5.15 123.57 5.47 121.86 5.85 C 120.16 5.00 118.27 4.91 116.42 4.93 M 161.54 6.93 L 161.32 8.10 C 163.69 7.98 164.01 10.62 165.10 12.08 C 166.80 11.56 168.18 10.42 169.30 9.07 C 168.03 9.31 165.51 9.79 164.24 10.03 C 164.40 9.28 164.72 7.79 164.88 7.04 C 164.05 7.02 162.37 6.96 161.54 6.93 M 69.60 11.08 C 70.20 11.42 71.41 12.09 72.01 12.42 C 71.40 13.24 70.80 14.06 70.22 14.89 C 71.74 14.70 72.32 13.10 73.47 12.29 C 75.44 11.60 77.50 11.19 79.44 10.40 C 79.59 10.17 79.89 9.73 80.05 9.51 C 76.63 10.43 73.16 11.17 69.60 11.08 M 163.76 16.16 C 163.86 19.38 167.01 14.79 163.76 16.16 M 173.75 19.71 C 174.78 20.32 177.07 21.39 177.74 19.84 C 177.25 18.50 174.24 18.49 173.75 19.71 M 48.85 27.61 C 47.86 30.81 46.62 33.93 45.36 37.03 C 45.86 37.11 46.87 37.28 47.37 37.37 C 48.28 33.90 49.72 30.61 50.86 27.22 C 50.36 27.32 49.36 27.51 48.85 27.61 M 181.38 33.93 L 181.05 35.31 C 185.64 34.42 188.94 38.94 193.42 37.94 C 190.01 35.24 185.57 34.52 181.38 33.93 M 44.19 137.34 C 43.36 138.19 43.84 140.63 45.11 140.77 C 45.85 139.80 45.49 137.57 44.19 137.34 Z" />
<path fill="#fcfcfc" opacity="1.00" d=" M 100.19 7.58 C 103.22 6.60 106.12 5.29 108.90 3.73 C 108.36 5.14 107.84 6.56 107.33 7.97 C 105.87 8.31 104.41 8.65 102.96 9.01 C 105.40 9.55 107.79 8.81 110.09 8.00 C 113.38 9.61 115.30 5.03 118.48 6.87 C 118.22 7.72 117.96 8.57 117.69 9.41 C 120.58 7.82 124.26 6.46 127.29 8.49 C 126.34 8.71 124.44 9.14 123.49 9.36 C 124.67 11.41 126.26 9.68 127.63 8.98 C 127.50 8.47 127.26 7.46 127.13 6.96 C 127.81 6.95 129.16 6.94 129.83 6.93 C 129.61 7.56 129.18 8.82 128.96 9.44 C 130.76 9.15 132.57 8.87 134.37 8.56 C 134.35 8.93 134.30 9.66 134.28 10.03 C 139.08 8.44 144.30 5.73 149.20 8.59 C 152.92 7.23 156.71 5.89 160.72 5.84 C 160.70 6.84 160.68 7.84 160.68 8.84 C 157.79 9.61 154.83 10.53 152.70 12.75 C 153.18 12.96 154.13 13.38 154.61 13.60 C 157.48 11.76 160.65 9.40 164.27 10.66 C 160.82 12.85 156.95 14.22 153.15 15.63 C 151.74 16.03 151.74 14.04 151.18 13.34 C 150.89 13.46 150.32 13.71 150.03 13.83 C 150.46 15.09 150.86 16.36 151.19 17.65 C 151.39 17.33 151.80 16.70 152.00 16.38 C 152.61 16.52 153.83 16.79 154.44 16.92 C 157.09 14.58 160.95 14.63 163.98 12.89 C 162.70 13.92 161.38 14.91 160.07 15.90 C 164.27 17.36 168.09 20.15 172.70 20.14 C 174.87 22.57 177.54 24.47 180.64 25.53 C 182.46 26.13 181.72 28.47 182.12 29.91 C 183.23 29.58 184.33 29.27 185.45 28.97 C 184.51 31.38 182.23 32.76 180.53 34.57 C 179.84 34.51 178.46 34.41 177.77 34.36 C 178.61 35.01 179.46 35.66 180.29 36.32 C 181.06 36.30 181.82 36.29 182.59 36.27 C 184.80 38.46 187.22 40.46 189.19 42.89 C 186.12 42.56 183.70 40.52 181.09 39.06 C 185.26 46.48 191.90 51.89 197.45 58.19 C 196.84 62.77 199.39 67.57 203.69 69.39 C 203.31 69.85 202.55 70.75 202.18 71.21 C 202.25 71.79 202.39 72.94 202.47 73.52 C 202.36 74.20 202.16 75.56 202.05 76.24 C 201.38 73.74 200.45 71.27 198.78 69.27 C 195.28 64.88 192.97 59.72 189.71 55.16 C 186.88 50.73 183.04 47.09 179.97 42.85 C 178.44 40.27 177.78 37.28 176.14 34.75 C 176.30 34.31 176.63 33.44 176.80 33.00 C 176.18 33.00 174.94 33.00 174.32 33.00 C 174.66 34.61 174.98 36.22 175.29 37.84 C 179.27 41.98 183.39 46.36 185.25 51.90 C 186.40 54.21 188.20 56.12 189.54 58.31 C 189.02 61.51 191.22 63.84 193.06 66.11 C 196.04 73.21 200.78 79.53 202.71 87.06 C 199.29 86.56 198.91 82.41 197.29 79.94 C 198.18 82.37 199.17 84.77 199.74 87.30 C 200.16 89.74 200.50 92.19 200.87 94.64 C 201.39 94.02 202.43 92.76 202.95 92.14 C 201.04 96.62 203.78 101.14 203.07 105.71 C 202.76 106.90 202.42 108.10 202.13 109.30 C 200.35 116.47 201.78 123.87 201.14 131.14 C 200.36 133.08 199.57 135.02 198.89 137.01 C 197.54 140.70 196.07 144.34 194.51 147.95 C 194.75 148.55 195.21 149.76 195.44 150.36 C 194.28 152.25 193.20 154.20 191.97 156.05 C 188.73 156.57 187.36 159.62 186.69 162.48 C 188.08 161.23 189.40 159.91 190.68 158.56 C 191.07 158.98 191.47 159.41 191.88 159.84 C 186.83 163.41 185.76 170.21 180.88 174.05 C 178.68 175.87 178.09 178.71 177.67 181.39 C 178.84 180.60 180.01 179.80 181.18 179.00 C 181.58 179.21 182.39 179.62 182.79 179.83 C 181.94 181.30 181.19 182.91 179.65 183.79 C 174.76 186.97 170.98 191.49 166.32 194.97 C 165.93 194.39 165.16 193.23 164.77 192.65 C 164.43 192.97 163.73 193.62 163.39 193.94 C 162.50 194.73 161.61 195.51 160.77 196.34 C 158.54 196.41 156.16 196.32 154.20 197.58 C 153.22 198.25 152.34 199.05 151.56 199.97 C 151.23 200.27 150.57 200.88 150.24 201.18 C 151.32 202.41 152.40 203.63 153.48 204.86 C 150.50 205.86 147.39 206.80 145.08 209.07 C 144.90 207.83 144.73 206.59 144.58 205.36 C 142.46 206.08 140.33 206.89 138.67 208.44 C 140.08 208.61 141.48 208.37 142.86 208.09 C 144.59 209.04 146.36 209.93 148.12 210.82 C 146.82 212.28 145.41 213.64 143.86 214.84 C 142.26 214.71 141.08 215.29 140.31 216.59 C 140.07 216.40 139.59 216.02 139.35 215.83 C 139.49 216.45 139.78 217.69 139.93 218.30 C 138.96 218.12 137.99 217.93 137.02 217.74 C 136.18 218.77 135.33 219.79 134.48 220.81 C 132.83 220.81 131.18 220.81 129.52 220.80 C 129.60 221.13 129.67 221.46 129.76 221.80 C 131.34 221.52 132.94 221.34 134.54 221.21 C 135.51 219.74 137.11 218.34 138.71 219.89 C 136.20 221.70 133.24 223.39 132.49 226.66 C 129.41 228.74 126.49 231.05 123.52 233.27 C 123.20 234.55 122.86 235.84 122.52 237.13 C 123.76 236.70 125.00 236.27 126.24 235.85 C 125.53 235.46 124.10 234.67 123.39 234.27 C 126.38 233.53 129.35 232.68 132.37 232.09 C 130.32 233.71 128.08 235.07 125.83 236.39 C 126.29 236.79 127.20 237.60 127.66 238.00 L 103.49 238.00 C 103.23 233.16 103.42 228.26 105.46 223.78 C 107.63 219.08 106.73 212.79 111.42 209.51 C 110.81 209.34 109.60 208.99 108.99 208.81 C 109.31 207.51 109.64 206.21 110.00 204.93 C 111.04 202.45 112.07 199.96 112.92 197.41 C 120.94 198.14 129.12 202.51 137.10 199.04 C 142.29 196.66 148.51 196.93 152.96 192.97 C 157.35 188.82 162.66 184.99 164.70 179.05 C 167.46 173.26 168.36 166.65 172.27 161.43 C 175.49 156.31 180.91 153.28 184.83 148.81 C 189.51 141.08 188.14 131.85 188.35 123.26 C 189.56 116.17 190.43 108.94 190.27 101.74 C 190.15 97.44 192.15 93.39 192.21 89.17 C 189.42 83.21 185.87 77.60 183.64 71.39 C 181.67 64.97 177.12 59.84 173.94 54.03 C 169.17 45.74 161.90 39.39 155.17 32.77 C 150.32 29.56 144.17 29.48 139.00 26.97 C 132.95 24.06 126.22 23.15 119.62 22.42 C 114.38 20.99 109.20 23.10 103.96 23.06 C 97.04 23.65 90.76 26.88 84.39 29.35 C 78.57 33.47 73.73 38.73 68.75 43.78 C 63.44 50.05 60.14 57.66 56.56 64.98 C 56.07 73.63 56.43 82.32 56.24 90.99 C 55.79 97.62 58.46 103.86 60.08 110.16 C 62.17 115.99 62.00 122.31 63.91 128.19 C 65.07 135.65 67.48 142.83 69.62 150.04 C 70.17 152.13 71.96 155.08 69.70 156.73 C 64.59 161.00 59.89 165.79 56.19 171.35 C 49.80 180.91 43.22 190.38 37.90 200.60 C 32.39 211.54 28.03 223.02 24.18 234.63 C 23.64 235.81 23.49 237.45 22.10 238.00 L 15.35 238.00 C 15.99 237.13 17.01 234.79 15.49 234.36 C 14.18 235.12 13.81 236.76 13.10 238.00 L 9.68 238.00 C 10.92 235.14 11.93 232.18 13.18 229.32 C 13.67 229.21 14.64 228.99 15.13 228.88 C 13.95 230.92 13.19 233.17 12.65 235.46 C 15.46 232.16 16.90 228.05 18.27 224.01 C 19.07 222.01 19.61 219.93 20.07 217.84 C 18.93 218.81 17.80 219.79 16.66 220.77 C 18.08 216.24 22.15 212.98 22.64 208.10 C 23.02 206.46 23.38 204.79 24.07 203.24 C 25.28 200.76 26.21 198.15 26.64 195.42 C 26.01 195.51 24.74 195.70 24.10 195.80 C 24.51 194.97 24.92 194.15 25.32 193.33 C 28.37 188.81 28.57 183.11 31.52 178.55 C 32.70 176.43 33.54 174.14 34.44 171.89 C 35.06 170.30 35.53 168.66 35.93 167.01 C 36.54 167.40 37.76 168.19 38.37 168.59 C 38.23 169.23 37.95 170.52 37.80 171.17 C 37.76 171.27 37.66 171.47 37.61 171.57 C 36.47 174.54 35.53 177.60 34.05 180.44 C 34.99 180.67 35.93 180.91 36.88 181.15 C 33.20 186.10 31.36 192.05 29.25 197.77 C 27.29 200.27 25.51 203.07 26.02 206.41 C 26.90 205.03 27.73 203.62 28.56 202.21 C 28.93 202.78 29.65 203.93 30.01 204.50 C 31.23 201.14 34.11 197.49 31.84 193.93 C 32.61 192.18 33.69 190.59 35.06 189.26 C 35.22 190.20 35.54 192.09 35.70 193.03 C 36.36 189.79 37.19 186.60 38.08 183.42 C 38.83 181.45 39.03 179.36 38.75 177.28 C 40.62 173.31 42.60 169.38 44.20 165.29 C 44.43 164.33 45.28 162.92 44.14 162.21 L 42.76 161.96 C 44.08 161.16 44.14 159.51 44.27 158.14 C 45.41 155.97 46.47 153.76 47.46 151.52 C 46.45 151.33 45.45 151.14 44.44 150.95 C 44.44 150.37 44.43 149.19 44.43 148.61 C 44.18 147.90 43.93 147.21 43.65 146.52 C 44.27 144.76 44.29 142.90 44.30 141.07 C 44.85 141.12 45.93 141.22 46.47 141.28 C 46.44 140.96 46.39 140.32 46.36 140.00 C 49.06 139.45 49.83 136.85 49.47 134.45 C 49.22 131.51 48.55 128.63 48.42 125.69 C 49.00 125.81 50.18 126.03 50.76 126.15 C 50.55 125.64 50.12 124.63 49.90 124.12 C 49.52 121.49 49.45 118.83 49.45 116.18 C 49.74 113.03 48.62 110.05 47.16 107.32 C 46.47 108.53 45.78 109.74 45.09 110.95 C 43.49 108.81 42.72 106.22 42.23 103.62 C 42.60 99.42 41.81 95.24 41.43 91.06 C 43.85 91.34 43.25 94.31 43.64 96.02 C 43.57 93.84 43.61 91.66 43.61 89.48 C 42.90 89.84 42.18 90.20 41.47 90.56 C 40.92 86.13 40.47 81.65 40.80 77.18 C 41.08 76.74 41.64 75.84 41.92 75.39 C 42.08 76.09 42.38 77.50 42.54 78.20 C 42.78 79.56 43.12 80.89 43.49 82.21 C 44.17 75.05 43.07 67.86 43.80 60.71 C 44.19 61.18 44.97 62.11 45.36 62.58 C 45.87 59.17 45.37 54.49 48.74 52.56 C 48.63 59.05 47.15 65.44 47.09 71.95 C 48.50 67.23 47.38 62.20 49.07 57.58 C 49.66 55.72 48.89 53.80 48.72 51.92 C 48.61 50.24 48.59 48.56 48.56 46.87 C 48.89 46.49 49.55 45.71 49.89 45.33 C 50.78 44.47 51.59 43.54 52.32 42.54 C 54.24 39.61 56.57 36.98 58.76 34.26 C 58.89 32.98 58.75 31.69 58.79 30.41 C 60.77 28.38 62.37 26.03 64.04 23.75 C 65.85 23.09 67.63 22.37 69.39 21.61 C 67.89 22.10 66.37 22.56 64.81 22.86 C 64.24 20.71 67.17 20.12 68.29 18.76 C 66.93 19.37 65.59 20.00 64.25 20.66 C 64.13 20.24 63.87 19.41 63.74 19.00 C 66.16 17.65 68.68 16.50 71.44 16.08 C 75.43 14.50 79.01 12.02 82.93 10.27 C 82.48 10.07 81.59 9.67 81.14 9.47 C 85.46 7.62 90.13 6.68 94.83 6.98 C 94.90 7.78 95.03 9.37 95.09 10.17 C 97.29 8.69 100.10 6.93 102.15 9.67 C 101.66 9.15 100.68 8.10 100.19 7.58 M 148.19 10.18 C 147.69 9.89 146.70 9.30 146.20 9.00 C 146.59 9.32 147.36 9.95 147.75 10.27 C 147.39 10.77 146.67 11.77 146.31 12.27 C 147.25 11.88 148.19 11.49 149.13 11.08 C 149.53 11.20 150.34 11.44 150.74 11.56 C 153.29 9.48 157.11 9.70 159.20 6.94 C 155.30 7.06 151.73 8.74 148.19 10.18 M 85.16 9.36 C 83.91 10.88 82.80 12.52 81.68 14.14 C 82.94 14.04 83.88 13.40 84.50 12.22 C 87.13 12.24 89.59 11.10 91.18 8.98 C 90.90 9.83 90.35 11.54 90.07 12.39 C 91.85 11.36 94.20 10.39 94.33 7.99 C 91.23 7.94 87.94 7.74 85.16 9.36 M 143.60 10.63 C 143.54 9.29 141.49 8.41 140.26 8.63 C 139.23 10.34 142.43 10.91 143.60 10.63 M 104.07 11.58 C 105.74 11.71 107.56 11.31 109.10 12.14 C 109.09 11.88 109.07 11.37 109.07 11.11 C 111.23 11.92 113.75 11.44 115.61 10.12 C 111.70 10.10 107.92 11.14 104.07 11.58 M 120.64 10.17 C 119.53 10.81 118.31 11.41 117.41 12.34 C 118.77 14.69 124.43 9.54 120.64 10.17 M 136.59 10.79 C 137.06 10.89 138.00 11.09 138.47 11.19 C 140.31 9.84 135.74 8.70 136.59 10.79 M 100.10 12.10 C 100.23 15.42 103.11 10.58 100.10 12.10 M 125.25 12.25 C 125.79 12.79 125.79 12.79 125.25 12.25 M 138.14 12.10 C 138.30 15.41 141.15 10.57 138.14 12.10 M 77.70 14.00 C 78.07 14.55 78.79 15.64 79.16 16.18 C 81.44 16.04 83.70 16.36 85.95 16.68 C 83.26 15.60 80.45 14.89 77.70 14.00 M 141.21 14.24 C 141.78 14.81 141.78 14.81 141.21 14.24 M 143.01 14.07 C 143.14 17.39 145.98 12.54 143.01 14.07 M 88.23 15.10 C 88.37 18.43 91.22 13.57 88.23 15.10 M 146.47 15.16 C 146.74 16.45 147.51 16.66 148.76 15.81 C 148.49 14.52 147.72 14.30 146.47 15.16 M 70.02 22.73 C 73.84 21.05 78.16 19.63 81.27 16.89 C 77.05 17.58 72.74 19.28 70.02 22.73 M 159.37 18.37 C 159.33 18.91 159.25 19.99 159.21 20.53 C 161.42 21.04 163.62 21.56 165.85 21.92 C 165.60 21.65 165.08 21.09 164.82 20.82 C 162.98 20.58 161.15 20.27 159.33 20.00 C 160.34 19.30 161.38 18.65 162.40 17.96 C 161.64 18.06 160.13 18.27 159.37 18.37 M 156.25 21.25 C 156.75 21.76 156.75 21.76 156.25 21.25 M 170.89 21.48 C 169.91 22.92 173.07 24.53 173.81 23.07 C 173.66 21.85 171.99 21.00 170.89 21.48 M 165.51 23.06 C 164.80 24.37 167.09 25.58 168.06 24.72 C 168.99 23.29 166.52 21.96 165.51 23.06 M 168.87 25.88 C 170.11 26.22 171.47 27.07 172.73 26.24 C 173.00 26.64 173.55 27.44 173.82 27.83 C 173.46 28.03 172.74 28.41 172.38 28.60 C 173.92 29.03 175.95 29.64 177.32 28.48 C 177.73 28.70 178.56 29.14 178.97 29.36 C 179.43 30.09 179.88 30.82 180.32 31.56 C 180.75 29.77 180.99 27.94 181.02 26.10 C 179.57 26.05 178.13 26.01 176.68 25.99 C 176.46 25.69 176.02 25.09 175.80 24.79 C 175.42 24.97 174.66 25.34 174.28 25.53 C 172.80 25.15 171.32 24.77 169.84 24.38 C 169.60 24.75 169.11 25.50 168.87 25.88 M 63.20 27.21 C 62.04 27.30 61.06 29.74 62.69 29.78 C 63.83 29.70 64.81 27.26 63.20 27.21 M 175.43 30.33 C 173.57 30.65 174.55 33.15 176.17 32.46 C 178.08 32.18 177.10 29.37 175.43 30.33 M 50.04 127.44 C 49.18 128.64 49.44 129.36 50.80 129.58 C 51.65 128.37 51.40 127.66 50.04 127.44 M 51.55 131.89 C 51.45 136.04 52.52 140.42 50.81 144.38 C 49.21 148.81 47.37 153.29 47.35 158.08 C 46.80 158.86 46.06 159.48 45.40 160.16 C 49.79 161.76 43.34 166.37 46.48 169.05 C 46.65 167.38 46.78 165.70 46.90 164.03 C 47.35 164.15 48.25 164.38 48.71 164.50 C 48.59 163.82 48.48 163.14 48.37 162.46 C 49.48 160.93 50.26 159.20 50.86 157.42 C 50.11 157.36 48.60 157.24 47.85 157.19 C 49.05 155.32 49.66 151.16 52.74 152.60 C 49.87 151.24 52.65 147.32 52.35 144.84 C 51.86 140.57 53.05 135.90 51.55 131.89 M 188.09 154.73 C 191.66 149.98 194.31 144.57 196.08 138.91 C 192.42 143.60 190.08 149.17 188.09 154.73 M 41.94 175.20 C 43.51 174.04 46.71 170.91 43.98 169.44 C 42.57 171.02 42.38 173.22 41.94 175.20 M 167.09 184.16 C 170.33 183.24 173.49 180.48 173.81 176.97 C 171.00 178.77 168.88 181.40 167.09 184.16 M 169.17 188.02 C 172.11 186.06 176.83 184.39 176.40 180.10 C 173.37 182.11 171.18 185.05 169.17 188.02 M 160.15 193.01 C 163.50 191.31 167.33 189.19 168.10 185.15 C 164.50 186.66 163.11 190.66 160.15 193.01 M 168.49 190.14 C 167.31 190.47 166.48 191.17 166.00 192.25 C 166.73 194.55 171.91 189.65 168.49 190.14 M 148.18 203.06 C 147.94 203.35 147.46 203.93 147.22 204.22 C 148.08 207.12 151.63 202.19 148.18 203.06 M 22.25 215.76 C 22.75 215.64 23.75 215.38 24.25 215.26 C 25.45 212.51 25.96 209.55 25.88 206.56 C 22.79 208.41 22.91 212.60 22.25 215.76 M 138.22 211.74 C 137.65 211.99 136.51 212.49 135.94 212.74 C 133.89 211.21 131.99 212.38 131.62 214.79 C 132.42 214.29 134.02 213.28 134.81 212.78 C 134.93 213.52 135.04 214.27 135.16 215.02 C 135.91 214.98 137.41 214.88 138.17 214.84 C 137.89 214.39 137.33 213.49 137.04 213.04 C 139.31 212.84 141.57 212.70 143.84 212.54 C 141.96 212.30 140.09 212.07 138.22 211.74 M 133.47 214.50 C 132.21 215.51 130.69 216.43 130.67 218.26 C 132.20 217.97 133.69 217.54 135.14 216.99 C 134.58 216.16 134.02 215.33 133.47 214.50 M 126.32 218.40 C 125.25 218.90 124.58 220.52 125.28 221.56 C 126.83 222.19 128.11 218.60 126.32 218.40 M 19.23 232.95 C 21.40 229.27 23.46 225.36 23.67 221.01 C 21.33 224.61 19.36 228.56 19.23 232.95 M 127.49 222.89 C 126.94 224.48 127.49 224.98 129.14 224.38 C 129.71 222.77 129.16 222.27 127.49 222.89 Z" />
<path fill="#ffffff" opacity="1.00" d=" M 108.08 6.55 C 110.23 5.76 112.45 5.17 114.71 4.74 C 115.51 9.23 110.43 7.77 108.08 6.55 Z" />
<path fill="#f5f5f5" opacity="1.00" d=" M 116.42 4.93 C 118.27 4.91 120.16 5.00 121.86 5.85 C 123.57 5.47 125.30 5.15 127.05 4.91 C 126.82 5.34 126.35 6.21 126.11 6.64 C 123.76 6.26 121.44 6.89 119.13 7.20 C 118.22 6.45 117.32 5.69 116.42 4.93 Z" />
<path fill="#050505" opacity="1.00" d=" M 148.19 10.18 C 151.73 8.74 155.30 7.06 159.20 6.94 C 157.11 9.70 153.29 9.48 150.74 11.56 C 150.34 11.44 149.53 11.20 149.13 11.08 C 148.19 11.49 147.25 11.88 146.31 12.27 C 146.67 11.77 147.39 10.77 147.75 10.27 C 147.36 9.95 146.59 9.32 146.20 9.00 C 146.70 9.30 147.69 9.89 148.19 10.18 Z" />
<path fill="#fcfcfc" opacity="1.00" d=" M 161.54 6.93 C 162.37 6.96 164.05 7.02 164.88 7.04 C 164.72 7.79 164.40 9.28 164.24 10.03 C 165.51 9.79 168.03 9.31 169.30 9.07 C 168.18 10.42 166.80 11.56 165.10 12.08 C 164.01 10.62 163.69 7.98 161.32 8.10 L 161.54 6.93 Z" />
<path fill="#050505" opacity="1.00" d=" M 85.16 9.36 C 87.94 7.74 91.23 7.94 94.33 7.99 C 94.20 10.39 91.85 11.36 90.07 12.39 C 90.35 11.54 90.90 9.83 91.18 8.98 C 89.59 11.10 87.13 12.24 84.50 12.22 C 83.88 13.40 82.94 14.04 81.68 14.14 C 82.80 12.52 83.91 10.88 85.16 9.36 Z" />
<path fill="#f5f5f5" opacity="1.00" d=" M 69.60 11.08 C 73.16 11.17 76.63 10.43 80.05 9.51 C 79.89 9.73 79.59 10.17 79.44 10.40 C 77.50 11.19 75.44 11.60 73.47 12.29 C 72.32 13.10 71.74 14.70 70.22 14.89 C 70.80 14.06 71.40 13.24 72.01 12.42 C 71.41 12.09 70.20 11.42 69.60 11.08 Z" />
<path fill="#010101" opacity="1.00" d=" M 143.60 10.63 C 142.43 10.91 139.23 10.34 140.26 8.63 C 141.49 8.41 143.54 9.29 143.60 10.63 Z" />
<path fill="#242424" opacity="1.00" d=" M 104.07 11.58 C 107.92 11.14 111.70 10.10 115.61 10.12 C 113.75 11.44 111.23 11.92 109.07 11.11 C 109.07 11.37 109.09 11.88 109.10 12.14 C 107.56 11.31 105.74 11.71 104.07 11.58 Z" />
<path fill="#010101" opacity="1.00" d=" M 120.64 10.17 C 124.43 9.54 118.77 14.69 117.41 12.34 C 118.31 11.41 119.53 10.81 120.64 10.17 Z" />
<path fill="#101010" opacity="1.00" d=" M 136.59 10.79 C 135.74 8.70 140.31 9.84 138.47 11.19 C 138.00 11.09 137.06 10.89 136.59 10.79 Z" />
<path fill="#a3a3a3" opacity="1.00" d=" M 100.10 12.10 C 103.11 10.58 100.23 15.42 100.10 12.10 Z" />
<path fill="#8a8a8a" opacity="1.00" d=" M 125.25 12.25 C 125.79 12.79 125.79 12.79 125.25 12.25 Z" />
<path fill="#ababab" opacity="1.00" d=" M 138.14 12.10 C 141.15 10.57 138.30 15.41 138.14 12.10 Z" />
<path fill="#060606" opacity="1.00" d=" M 77.70 14.00 C 80.45 14.89 83.26 15.60 85.95 16.68 C 83.70 16.36 81.44 16.04 79.16 16.18 C 78.79 15.64 78.07 14.55 77.70 14.00 Z" />
<path fill="#646464" opacity="1.00" d=" M 141.21 14.24 C 141.78 14.81 141.78 14.81 141.21 14.24 Z" />
<path fill="#373737" opacity="1.00" d=" M 143.01 14.07 C 145.98 12.54 143.14 17.39 143.01 14.07 Z" />
<path fill="#d7d7d7" opacity="1.00" d=" M 88.23 15.10 C 91.22 13.57 88.37 18.43 88.23 15.10 Z" />
<path fill="#848484" opacity="1.00" d=" M 146.47 15.16 C 147.72 14.30 148.49 14.52 148.76 15.81 C 147.51 16.66 146.74 16.45 146.47 15.16 Z" />
<path fill="#d6d6d6" opacity="1.00" d=" M 163.76 16.16 C 167.01 14.79 163.86 19.38 163.76 16.16 Z" />
<path fill="#373737" opacity="1.00" d=" M 70.02 22.73 C 72.74 19.28 77.05 17.58 81.27 16.89 C 78.16 19.63 73.84 21.05 70.02 22.73 Z" />
<path fill="#292929" opacity="1.00" d=" M 159.37 18.37 C 160.13 18.27 161.64 18.06 162.40 17.96 C 161.38 18.65 160.34 19.30 159.33 20.00 C 161.15 20.27 162.98 20.58 164.82 20.82 C 165.08 21.09 165.60 21.65 165.85 21.92 C 163.62 21.56 161.42 21.04 159.21 20.53 C 159.25 19.99 159.33 18.91 159.37 18.37 Z" />
<path fill="#d6d6d6" opacity="1.00" d=" M 173.75 19.71 C 174.24 18.49 177.25 18.50 177.74 19.84 C 177.07 21.39 174.78 20.32 173.75 19.71 Z" />
<path fill="#f5f5f5" opacity="1.00" d=" M 55.18 28.67 C 57.52 25.87 59.83 23.05 62.24 20.31 C 62.84 21.06 63.37 21.85 63.86 22.67 C 61.59 24.29 59.87 26.47 58.63 28.95 C 57.48 28.84 56.33 28.72 55.18 28.67 Z" />
<path fill="#cbcbcb" opacity="1.00" d=" M 156.25 21.25 C 156.75 21.76 156.75 21.76 156.25 21.25 Z" />
<path fill="#060606" opacity="1.00" d=" M 170.89 21.48 C 171.99 21.00 173.66 21.85 173.81 23.07 C 173.07 24.53 169.91 22.92 170.89 21.48 Z" />
<path fill="#050505" opacity="1.00" d=" M 103.96 23.06 C 109.20 23.10 114.38 20.99 119.62 22.42 C 126.22 23.15 132.95 24.06 139.00 26.97 C 144.17 29.48 150.32 29.56 155.17 32.77 C 161.90 39.39 169.17 45.74 173.94 54.03 C 177.12 59.84 181.67 64.97 183.64 71.39 C 185.87 77.60 189.42 83.21 192.21 89.17 C 192.15 93.39 190.15 97.44 190.27 101.74 C 189.41 108.89 188.27 116.03 188.35 123.26 C 188.14 131.85 189.51 141.08 184.83 148.81 C 180.91 153.28 175.49 156.31 172.27 161.43 C 168.36 166.65 167.46 173.26 164.70 179.05 C 162.66 184.99 157.35 188.82 152.96 192.97 C 148.51 196.93 142.29 196.66 137.10 199.04 C 128.62 200.94 120.43 197.75 112.14 196.49 C 111.38 199.29 110.68 202.11 110.00 204.93 C 109.64 206.21 109.31 207.51 108.99 208.81 C 109.60 208.99 110.81 209.34 111.42 209.51 C 106.73 212.79 107.63 219.08 105.46 223.78 C 103.42 228.26 103.23 233.16 103.49 238.00 L 97.63 238.00 C 98.68 223.44 102.41 209.05 109.13 196.06 C 104.98 195.55 101.48 193.22 97.91 191.24 C 95.86 190.05 93.15 190.31 91.41 188.60 C 87.97 185.30 84.57 181.96 81.46 178.35 C 80.87 177.73 80.25 177.13 79.64 176.54 C 78.91 174.94 78.18 173.34 77.22 171.87 C 74.57 168.44 73.23 164.31 72.02 160.22 C 66.29 164.83 62.01 170.89 58.04 177.00 C 52.76 185.17 47.30 193.27 42.95 202.00 C 37.02 213.52 32.83 225.81 28.52 238.00 L 22.10 238.00 C 23.49 237.45 23.64 235.81 24.18 234.63 C 28.03 223.02 32.39 211.54 37.90 200.60 C 43.22 190.38 49.80 180.91 56.19 171.35 C 59.89 165.79 64.59 161.00 69.70 156.73 C 71.96 155.08 70.17 152.13 69.62 150.04 C 67.48 142.83 65.07 135.65 63.91 128.19 C 63.25 118.98 60.99 110.08 58.36 101.27 C 54.83 89.39 58.26 77.05 56.56 64.98 C 60.14 57.66 63.44 50.05 68.75 43.78 C 73.73 38.73 78.57 33.47 84.39 29.35 C 90.76 26.88 97.04 23.65 103.96 23.06 M 89.41 35.25 C 86.36 37.77 82.87 39.63 79.34 41.36 C 73.55 46.33 68.67 52.22 64.28 58.43 C 63.89 61.09 61.69 63.21 61.98 65.98 C 62.08 75.68 61.79 85.39 62.27 95.08 C 63.63 103.81 67.13 112.12 67.78 120.98 C 69.94 135.49 74.05 149.76 80.09 163.12 C 80.74 171.23 88.03 176.36 93.48 181.53 C 97.50 185.46 103.59 184.90 108.27 187.54 C 114.77 190.65 121.57 194.38 129.04 193.46 C 134.49 192.77 140.70 193.78 145.37 190.27 C 147.50 188.58 149.72 187.02 152.03 185.59 C 149.07 185.24 145.18 185.46 143.66 182.31 C 141.75 177.41 142.03 172.00 142.53 166.87 C 142.70 163.78 145.85 161.33 144.97 158.15 C 143.95 155.85 142.68 153.67 141.66 151.37 C 136.52 152.20 130.79 151.55 127.77 146.75 C 126.64 147.59 125.52 148.44 124.40 149.31 C 123.88 149.37 122.85 149.48 122.33 149.53 C 122.14 147.27 123.48 145.59 124.94 144.04 C 125.69 143.06 126.41 142.06 127.12 141.05 C 128.01 141.97 128.89 142.89 129.76 143.82 C 131.33 145.55 132.84 147.45 134.97 148.52 C 137.78 149.07 140.64 148.72 143.47 148.74 C 146.02 150.72 149.16 155.57 145.55 158.05 C 145.45 164.64 145.57 171.26 147.09 177.71 C 150.68 178.13 154.38 177.59 157.24 175.22 C 158.78 172.94 159.07 170.09 159.89 167.52 L 161.01 167.46 C 160.84 169.64 160.60 171.81 160.25 173.97 C 160.60 174.57 160.95 175.17 161.30 175.77 C 161.31 171.15 164.49 167.39 164.82 162.90 C 166.33 152.47 177.38 148.18 182.18 139.68 C 183.69 135.44 184.53 130.31 182.36 126.16 C 183.17 124.95 183.39 123.60 183.02 122.11 C 180.53 121.33 177.98 120.65 175.34 120.70 C 175.92 121.19 177.08 122.16 177.66 122.65 C 177.19 123.09 176.73 123.54 176.27 123.98 C 176.10 125.60 178.92 125.84 179.77 124.81 C 180.18 125.22 180.99 126.03 181.40 126.44 C 173.70 127.75 167.48 121.66 162.08 117.06 C 162.74 118.88 164.35 120.09 165.06 121.88 C 159.48 121.38 158.56 114.55 155.11 111.06 C 157.65 116.70 161.36 121.95 166.94 124.89 L 166.52 126.62 C 164.38 125.29 162.37 122.78 159.56 123.67 C 159.09 126.24 161.78 127.42 163.30 128.95 C 165.46 130.46 166.29 133.06 167.92 135.02 C 170.93 136.93 175.05 135.49 177.68 138.20 C 173.62 140.00 169.18 138.46 164.98 139.54 C 164.14 138.33 163.30 137.12 162.44 135.93 C 163.19 145.41 163.60 154.92 162.89 164.42 C 162.80 164.48 162.63 164.62 162.55 164.68 C 162.32 164.24 161.88 163.35 161.66 162.91 C 161.77 153.58 161.29 144.26 160.32 134.98 C 159.43 132.98 158.20 131.16 157.13 129.26 C 155.08 130.32 152.78 130.44 150.53 130.55 C 150.35 130.18 149.99 129.44 149.82 129.08 C 151.03 126.58 152.40 124.17 153.99 121.90 C 154.73 121.78 156.20 121.53 156.94 121.41 C 153.87 116.71 151.00 111.87 149.18 106.53 C 148.24 103.69 144.70 104.73 142.43 104.30 C 143.31 106.72 145.68 110.71 143.21 112.72 C 142.38 109.86 141.55 107.00 140.16 104.35 C 139.21 104.37 138.25 104.39 137.30 104.41 C 137.43 104.58 137.70 104.93 137.83 105.11 C 137.45 105.69 136.68 106.86 136.29 107.45 C 133.51 104.53 128.74 107.19 125.78 108.83 C 119.78 111.83 112.23 113.35 106.20 109.60 C 101.21 106.56 95.75 103.14 93.50 97.46 C 92.07 95.53 90.24 93.93 88.79 92.01 C 90.47 91.72 91.66 91.25 89.88 90.05 C 89.31 88.88 88.69 87.73 87.63 86.94 C 88.03 86.43 88.41 85.92 88.80 85.41 C 90.06 87.49 91.37 89.54 92.80 91.51 C 92.67 92.30 92.55 93.08 92.42 93.87 C 95.41 97.13 97.76 101.02 101.57 103.44 C 106.68 107.49 113.42 111.58 120.08 108.81 C 114.06 108.55 107.84 107.36 102.79 103.91 L 101.99 101.58 C 106.86 103.11 111.80 104.98 117.02 104.38 C 120.00 106.25 123.61 105.33 126.92 105.65 C 123.27 103.26 118.56 100.95 114.26 103.12 C 111.14 101.87 108.00 100.63 105.05 99.01 C 104.19 94.96 100.62 92.59 97.24 90.74 C 96.32 89.58 95.35 88.45 94.44 87.28 C 95.32 87.39 97.07 87.60 97.95 87.71 C 97.65 82.38 91.60 80.69 90.22 76.05 C 92.58 77.14 94.28 79.14 96.10 80.92 C 96.84 80.85 98.31 80.72 99.04 80.65 C 98.15 79.26 97.31 77.83 96.73 76.28 C 98.43 77.24 100.03 78.39 101.55 79.63 C 104.33 79.77 107.61 75.32 109.51 78.58 C 110.52 77.88 111.56 77.23 112.71 76.79 C 111.34 76.70 107.60 77.08 109.73 74.73 C 108.83 76.62 106.62 76.43 107.31 74.13 C 105.94 75.46 104.86 77.55 102.60 76.46 C 102.51 76.93 102.32 77.87 102.22 78.34 C 100.79 77.73 99.82 76.54 98.85 75.38 C 99.42 73.26 97.82 71.66 96.88 69.96 C 99.91 70.76 101.63 74.39 104.99 74.08 C 104.19 71.72 103.43 69.35 102.78 66.94 C 104.61 68.52 106.46 70.12 108.69 71.11 C 108.10 70.10 107.49 69.11 106.88 68.12 C 108.40 67.48 110.29 66.91 109.15 64.88 C 107.34 64.31 105.46 65.73 103.72 64.77 C 105.10 63.84 106.52 62.92 107.56 61.59 C 111.09 60.57 115.02 57.78 118.42 60.77 C 126.51 69.73 133.71 79.59 139.45 90.22 C 139.85 90.84 140.26 91.46 140.67 92.09 C 140.59 92.52 140.43 93.39 140.35 93.82 C 137.37 94.85 141.34 100.10 141.60 95.74 C 142.37 97.01 142.76 98.44 143.10 99.88 C 142.61 99.76 141.63 99.53 141.14 99.41 C 142.23 100.48 143.36 101.52 144.47 102.58 C 145.68 102.63 146.89 102.67 148.10 102.70 L 147.45 102.29 C 147.54 101.66 147.73 100.42 147.82 99.80 C 147.86 99.43 147.95 98.68 147.99 98.30 C 147.90 97.83 147.70 96.88 147.60 96.41 C 147.50 92.01 145.38 88.02 144.58 83.75 C 144.25 82.69 144.62 81.65 145.44 80.95 C 146.73 84.68 147.63 88.53 148.79 92.30 C 151.09 93.80 152.51 96.25 154.74 97.81 C 153.96 96.95 153.13 96.13 152.37 95.26 C 152.46 92.80 154.18 90.71 154.33 88.23 C 155.13 86.54 155.90 84.78 157.28 83.45 C 157.45 87.32 155.27 90.65 154.09 94.20 C 155.39 93.68 156.38 92.72 157.30 91.70 C 158.16 90.67 159.06 89.67 159.98 88.69 C 160.46 89.24 161.43 90.34 161.92 90.89 C 161.66 89.67 160.95 88.78 159.78 88.22 C 160.95 87.07 162.24 86.06 163.69 85.29 C 163.33 86.82 162.49 88.17 161.79 89.56 C 164.69 88.86 167.72 89.06 170.62 88.45 C 174.09 86.95 177.54 85.33 181.37 85.04 C 181.29 82.67 179.80 80.58 179.23 78.30 C 173.13 78.38 167.84 81.51 162.00 82.61 C 163.58 80.87 165.78 79.78 167.07 77.75 C 169.33 74.09 174.21 74.75 177.88 74.28 C 177.58 73.77 176.98 72.74 176.68 72.22 C 177.32 71.07 178.66 69.90 177.83 68.49 C 174.11 64.63 172.02 59.55 168.30 55.69 C 162.70 48.37 156.96 40.45 148.01 37.01 C 144.07 35.86 140.69 33.13 136.55 32.75 C 134.43 31.49 131.88 32.15 129.56 31.90 C 128.34 30.65 126.54 31.08 125.00 30.97 C 116.68 31.08 108.35 30.88 100.04 31.06 C 96.58 32.67 93.19 34.50 89.41 35.25 M 111.16 63.74 C 112.29 64.88 113.58 65.87 114.83 66.88 C 114.21 65.87 113.59 64.87 112.96 63.88 C 113.14 63.38 113.50 62.40 113.68 61.90 C 112.64 62.31 110.68 62.05 111.16 63.74 M 102.20 82.90 C 103.94 86.18 107.70 87.31 110.55 89.36 C 115.98 93.14 122.41 94.99 128.73 96.68 C 130.56 99.37 133.45 96.38 134.43 94.47 C 134.96 91.19 131.23 89.44 128.90 88.01 C 122.72 79.83 111.07 79.93 102.20 82.90 M 99.90 87.17 C 101.59 89.93 104.89 90.91 107.86 91.61 C 105.39 89.86 103.12 87.29 99.90 87.17 M 111.73 95.98 C 112.93 98.51 115.72 98.90 118.22 98.96 C 116.78 96.75 114.19 96.20 111.73 95.98 M 157.90 97.93 C 155.14 99.29 155.56 103.63 158.20 104.90 C 159.30 106.84 161.30 108.09 163.38 108.75 L 163.30 109.58 C 167.78 110.11 172.30 110.58 176.82 110.41 C 179.18 110.23 182.61 109.23 181.88 106.14 C 180.27 101.73 175.22 100.13 171.01 99.42 C 166.61 99.19 162.29 95.77 157.90 97.93 M 151.60 101.00 C 151.17 104.02 152.51 106.90 154.62 108.99 C 154.08 106.19 153.43 103.26 151.60 101.00 M 126.01 103.55 C 127.65 103.56 130.50 104.66 130.99 102.33 C 129.33 102.37 126.78 101.47 126.01 103.55 M 133.37 103.14 C 132.97 104.54 133.47 105.03 134.87 104.62 C 135.27 103.22 134.77 102.73 133.37 103.14 M 156.10 109.07 C 157.20 110.75 158.31 112.57 160.32 113.26 C 159.86 111.90 159.33 110.58 158.75 109.27 C 158.09 109.22 156.76 109.12 156.10 109.07 M 161.03 113.08 C 162.91 115.93 166.10 116.20 168.93 114.56 C 168.20 114.11 167.46 113.65 166.73 113.20 C 166.58 113.63 166.28 114.47 166.13 114.90 C 164.51 114.09 162.81 113.43 161.03 113.08 M 179.85 119.92 C 181.19 119.81 182.54 119.69 183.88 119.53 C 182.84 117.02 180.69 117.50 179.85 119.92 M 170.36 121.27 C 169.48 123.08 173.42 124.10 173.77 122.25 C 173.29 121.03 171.42 120.52 170.36 121.27 M 157.20 180.73 C 153.49 181.70 149.68 182.15 145.89 182.59 C 149.54 184.89 153.46 182.25 157.29 182.23 C 158.86 180.53 159.74 178.43 159.87 176.12 C 158.96 177.65 158.08 179.19 157.20 180.73 Z" />
<path fill="#373737" opacity="1.00" d=" M 165.51 23.06 C 166.52 21.96 168.99 23.29 168.06 24.72 C 167.09 25.58 164.80 24.37 165.51 23.06 Z" />
<path fill="#050505" opacity="1.00" d=" M 168.87 25.88 C 169.11 25.50 169.60 24.75 169.84 24.38 C 171.32 24.77 172.80 25.15 174.28 25.53 C 173.89 25.71 173.12 26.07 172.73 26.24 C 171.47 27.07 170.11 26.22 168.87 25.88 Z" />
<path fill="#bdbdbd" opacity="1.00" d=" M 174.28 25.53 C 174.66 25.34 175.42 24.97 175.80 24.79 C 176.02 25.09 176.46 25.69 176.68 25.99 C 177.48 27.09 178.24 28.21 178.97 29.36 C 178.56 29.14 177.73 28.70 177.32 28.48 C 177.01 28.13 176.38 27.42 176.07 27.07 C 175.51 27.26 174.38 27.64 173.82 27.83 C 173.55 27.44 173.00 26.64 172.73 26.24 C 173.12 26.07 173.89 25.71 174.28 25.53 Z" />
<path fill="#050505" opacity="1.00" d=" M 176.68 25.99 C 178.13 26.01 179.57 26.05 181.02 26.10 C 180.99 27.94 180.75 29.77 180.32 31.56 C 179.88 30.82 179.43 30.09 178.97 29.36 C 178.24 28.21 177.48 27.09 176.68 25.99 Z" />
<path fill="#cccccc" opacity="1.00" d=" M 48.85 27.61 C 49.36 27.51 50.36 27.32 50.86 27.22 C 49.72 30.61 48.28 33.90 47.37 37.37 C 46.87 37.28 45.86 37.11 45.36 37.03 C 46.62 33.93 47.86 30.81 48.85 27.61 Z" />
<path fill="#d0d0d0" opacity="1.00" d=" M 63.20 27.21 C 64.81 27.26 63.83 29.70 62.69 29.78 C 61.06 29.74 62.04 27.30 63.20 27.21 Z" />
<path fill="#050505" opacity="1.00" d=" M 173.82 27.83 C 174.38 27.64 175.51 27.26 176.07 27.07 C 176.38 27.42 177.01 28.13 177.32 28.48 C 175.95 29.64 173.92 29.03 172.38 28.60 C 172.74 28.41 173.46 28.03 173.82 27.83 Z" />
<path fill="#cdcdcd" opacity="1.00" d=" M 55.18 28.67 C 56.33 28.72 57.48 28.84 58.63 28.95 C 58.09 29.92 57.56 30.90 57.04 31.89 C 57.48 31.52 58.35 30.78 58.79 30.41 C 58.75 31.69 58.89 32.98 58.76 34.26 C 56.89 34.32 55.42 35.49 54.18 36.78 C 53.93 36.58 53.43 36.17 53.19 35.96 L 52.61 35.59 C 51.80 36.31 51.02 37.06 50.24 37.81 L 48.39 37.78 C 50.53 34.65 52.65 31.50 55.18 28.67 Z" />
<path fill="#090909" opacity="1.00" d=" M 175.43 30.33 C 177.10 29.37 178.08 32.18 176.17 32.46 C 174.55 33.15 173.57 30.65 175.43 30.33 Z" />
<path fill="#fcfcfc" opacity="1.00" d=" M 89.41 35.25 C 93.19 34.50 96.58 32.67 100.04 31.06 C 108.35 30.88 116.68 31.08 125.00 30.97 C 126.54 31.08 128.34 30.65 129.56 31.90 C 131.88 32.15 134.43 31.49 136.55 32.75 C 140.69 33.13 144.07 35.86 148.01 37.01 C 156.96 40.45 162.70 48.37 168.30 55.69 C 172.02 59.55 174.11 64.63 177.83 68.49 C 178.66 69.90 177.32 71.07 176.68 72.22 C 176.98 72.74 177.58 73.77 177.88 74.28 C 174.21 74.75 169.33 74.09 167.07 77.75 C 165.78 79.78 163.58 80.87 162.00 82.61 C 167.84 81.51 173.13 78.38 179.23 78.30 C 179.80 80.58 181.29 82.67 181.37 85.04 C 177.54 85.33 174.09 86.95 170.62 88.45 C 167.72 89.06 164.69 88.86 161.79 89.56 C 162.49 88.17 163.33 86.82 163.69 85.29 C 162.24 86.06 160.95 87.07 159.78 88.22 C 160.95 88.78 161.66 89.67 161.92 90.89 C 161.43 90.34 160.46 89.24 159.98 88.69 C 159.06 89.67 158.16 90.67 157.30 91.70 C 157.52 88.69 157.73 85.68 157.82 82.66 C 154.63 82.58 154.66 85.92 154.33 88.23 C 154.18 90.71 152.46 92.80 152.37 95.26 C 153.13 96.13 153.96 96.95 154.74 97.81 C 152.51 96.25 151.09 93.80 148.79 92.30 C 147.63 88.53 146.73 84.68 145.44 80.95 C 144.62 81.65 144.25 82.69 144.58 83.75 C 145.38 88.02 147.50 92.01 147.60 96.41 C 146.59 95.68 145.56 95.00 144.53 94.32 C 143.67 89.24 143.03 84.13 142.58 79.00 C 142.06 75.73 141.54 71.84 138.40 69.99 C 138.61 73.67 142.51 77.93 139.58 81.04 C 138.49 78.94 137.40 76.84 136.24 74.78 C 136.34 73.98 136.44 73.18 136.53 72.38 C 134.15 70.31 132.08 67.94 130.21 65.40 C 131.15 61.76 128.97 58.45 126.04 56.50 C 122.89 54.34 121.52 50.29 118.01 48.61 C 112.14 47.53 106.49 51.28 102.19 54.86 C 102.39 55.17 102.81 55.79 103.02 56.10 C 108.01 55.90 111.97 51.80 117.11 52.18 C 124.09 62.14 129.78 72.95 137.18 82.62 C 138.44 82.58 139.68 82.45 140.93 82.33 C 141.23 84.51 141.54 86.69 141.93 88.86 C 141.25 87.93 140.56 87.01 139.87 86.09 C 139.72 87.47 139.58 88.84 139.45 90.22 C 133.71 79.59 126.51 69.73 118.42 60.77 C 115.02 57.78 111.09 60.57 107.56 61.59 C 106.52 62.92 105.10 63.84 103.72 64.77 C 101.87 65.74 101.79 67.97 101.04 69.68 C 98.06 70.22 95.33 68.58 92.67 67.51 C 92.64 71.29 96.67 72.89 98.85 75.38 C 99.82 76.54 100.79 77.73 102.22 78.34 C 102.32 77.87 102.51 76.93 102.60 76.46 C 104.86 77.55 105.94 75.46 107.31 74.13 C 106.62 76.43 108.83 76.62 109.73 74.73 C 107.60 77.08 111.34 76.70 112.71 76.79 C 111.56 77.23 110.52 77.88 109.51 78.58 C 107.61 75.32 104.33 79.77 101.55 79.63 C 100.03 78.39 98.43 77.24 96.73 76.28 C 97.31 77.83 98.15 79.26 99.04 80.65 C 98.31 80.72 96.84 80.85 96.10 80.92 C 94.28 79.14 92.58 77.14 90.22 76.05 C 91.60 80.69 97.65 82.38 97.95 87.71 C 97.07 87.60 95.32 87.39 94.44 87.28 C 95.35 88.45 96.32 89.58 97.24 90.74 C 98.41 91.97 98.80 93.61 99.02 95.24 C 100.95 96.61 102.94 97.92 105.05 99.01 C 108.00 100.63 111.14 101.87 114.26 103.12 C 115.19 103.52 116.10 103.95 117.02 104.38 C 111.80 104.98 106.86 103.11 101.99 101.58 L 102.79 103.91 C 107.84 107.36 114.06 108.55 120.08 108.81 C 113.42 111.58 106.68 107.49 101.57 103.44 C 97.76 101.02 95.41 97.13 92.42 93.87 C 92.55 93.08 92.67 92.30 92.80 91.51 C 91.37 89.54 90.06 87.49 88.80 85.41 C 88.41 85.92 88.03 86.43 87.63 86.94 C 88.69 87.73 89.31 88.88 89.88 90.05 C 91.66 91.25 90.47 91.72 88.79 92.01 C 90.24 93.93 92.07 95.53 93.50 97.46 C 95.75 103.14 101.21 106.56 106.20 109.60 C 112.23 113.35 119.78 111.83 125.78 108.83 C 127.42 108.40 129.08 108.05 130.75 107.73 C 132.43 108.38 134.19 108.78 135.96 109.09 C 135.40 109.15 134.28 109.28 133.71 109.34 C 131.23 111.56 128.28 113.17 125.24 114.50 C 122.37 115.79 119.09 114.91 116.12 115.83 C 110.49 118.06 105.67 112.56 100.04 112.51 C 103.09 115.03 106.21 117.53 109.71 119.41 C 113.01 121.34 116.59 119.06 119.97 118.60 C 114.74 124.65 108.61 129.87 103.40 135.94 C 103.53 136.36 103.79 137.20 103.92 137.62 C 113.51 129.72 121.19 116.87 134.94 116.44 C 134.82 118.87 135.19 121.27 135.97 123.57 C 136.92 123.47 137.87 123.36 138.82 123.26 C 141.34 126.88 145.29 125.28 148.22 123.12 C 148.53 121.95 148.41 120.73 148.46 119.54 C 144.86 119.08 141.27 119.58 138.73 122.40 C 138.46 121.26 138.20 120.12 137.95 118.98 C 139.52 118.06 141.11 117.16 142.69 116.24 C 142.05 114.56 141.45 112.86 140.95 111.12 C 140.43 108.88 139.28 106.87 137.83 105.11 C 137.70 104.93 137.43 104.58 137.30 104.41 C 138.25 104.39 139.21 104.37 140.16 104.35 C 141.55 107.00 142.38 109.86 143.21 112.72 C 145.68 110.71 143.31 106.72 142.43 104.30 C 144.70 104.73 148.24 103.69 149.18 106.53 C 151.00 111.87 153.87 116.71 156.94 121.41 C 156.20 121.53 154.73 121.78 153.99 121.90 C 152.40 124.17 151.03 126.58 149.82 129.08 C 149.99 129.44 150.35 130.18 150.53 130.55 C 152.78 130.44 155.08 130.32 157.13 129.26 C 158.20 131.16 159.43 132.98 160.32 134.98 C 161.29 144.26 161.77 153.58 161.66 162.91 C 161.10 164.42 160.44 165.90 159.80 167.39 C 160.39 167.39 161.55 167.40 162.14 167.40 C 161.86 167.42 161.29 167.45 161.01 167.46 L 159.89 167.52 C 159.07 170.09 158.78 172.94 157.24 175.22 C 154.38 177.59 150.68 178.13 147.09 177.71 C 145.57 171.26 145.45 164.64 145.55 158.05 C 149.16 155.57 146.02 150.72 143.47 148.74 C 140.64 148.72 137.78 149.07 134.97 148.52 C 132.84 147.45 131.33 145.55 129.76 143.82 C 130.01 143.22 130.52 142.02 130.77 141.42 C 134.52 146.47 141.35 146.26 146.94 145.70 C 149.94 147.81 151.77 151.26 152.40 154.82 C 152.67 160.54 152.69 166.27 152.84 171.99 C 153.19 172.11 153.90 172.35 154.25 172.47 C 155.20 169.60 156.26 166.74 156.68 163.73 C 156.47 163.21 156.06 162.17 155.85 161.65 C 156.26 161.63 157.08 161.60 157.49 161.59 C 157.28 153.55 159.23 144.99 155.50 137.47 C 151.65 135.87 147.53 134.91 143.95 132.70 C 143.91 132.91 143.82 133.34 143.78 133.55 C 142.69 134.56 141.56 135.54 140.52 136.61 C 140.03 134.36 138.00 135.85 136.72 136.26 C 136.64 136.13 136.49 135.85 136.42 135.72 C 136.43 134.13 136.57 132.55 136.61 130.97 C 137.57 130.79 138.53 130.62 139.49 130.45 C 139.61 131.38 139.84 133.23 139.96 134.15 C 141.27 133.53 142.58 132.91 143.88 132.27 C 140.63 129.91 137.91 126.63 133.93 125.46 C 129.25 123.87 123.45 123.30 119.25 126.40 C 111.97 132.92 106.63 141.28 103.32 150.44 C 101.94 152.99 101.37 155.83 101.32 158.70 C 102.89 158.59 104.82 159.36 106.01 157.96 C 109.01 155.30 111.72 152.28 113.78 148.82 C 116.89 143.02 121.95 138.50 128.10 136.12 C 128.73 137.51 129.36 138.89 130.06 140.25 C 128.67 140.44 127.29 140.62 125.91 140.80 C 125.60 141.88 125.28 142.96 124.94 144.04 C 123.48 145.59 122.14 147.27 122.33 149.53 C 122.85 149.48 123.88 149.37 124.40 149.31 C 125.52 148.44 126.64 147.59 127.77 146.75 C 130.79 151.55 136.52 152.20 141.66 151.37 C 142.68 153.67 143.95 155.85 144.97 158.15 C 145.85 161.33 142.70 163.78 142.53 166.87 C 142.03 172.00 141.75 177.41 143.66 182.31 C 145.18 185.46 149.07 185.24 152.03 185.59 C 149.72 187.02 147.50 188.58 145.37 190.27 C 140.70 193.78 134.49 192.77 129.04 193.46 C 121.57 194.38 114.77 190.65 108.27 187.54 C 103.59 184.90 97.50 185.46 93.48 181.53 C 88.03 176.36 80.74 171.23 80.09 163.12 C 74.05 149.76 69.94 135.49 67.78 120.98 C 67.13 112.12 63.63 103.81 62.27 95.08 C 61.79 85.39 62.08 75.68 61.98 65.98 C 61.69 63.21 63.89 61.09 64.28 58.43 C 68.67 52.22 73.55 46.33 79.34 41.36 C 82.87 39.63 86.36 37.77 89.41 35.25 M 131.20 60.28 C 134.70 65.11 139.13 69.42 145.02 71.10 C 149.61 73.71 154.49 70.64 159.33 71.19 C 159.44 70.79 159.65 69.98 159.76 69.57 C 152.86 70.38 146.89 66.61 142.23 61.96 C 142.97 66.64 148.50 68.34 152.02 70.72 C 144.70 70.29 138.04 66.19 133.54 60.51 C 132.96 60.45 131.78 60.33 131.20 60.28 M 161.03 74.41 C 157.05 74.75 153.05 74.44 149.06 74.47 C 149.21 74.94 149.49 75.88 149.63 76.35 C 156.55 76.87 164.62 77.21 169.29 71.05 C 166.11 70.89 163.89 73.53 161.03 74.41 M 146.12 75.92 C 146.10 78.87 147.84 81.35 148.68 84.08 C 149.07 86.48 147.52 89.66 150.14 91.25 C 151.73 87.75 152.99 83.98 152.67 80.09 C 151.82 81.29 151.01 82.52 150.22 83.75 C 149.13 81.07 148.85 77.52 146.12 75.92 M 89.25 82.61 C 90.27 84.19 91.44 85.67 92.86 86.91 C 92.45 85.42 91.98 83.96 91.47 82.51 C 90.92 82.53 89.81 82.58 89.25 82.61 M 83.21 105.04 C 86.34 112.98 87.42 121.49 88.57 129.88 C 86.38 124.39 87.21 117.00 82.30 113.03 C 84.89 122.96 86.28 133.16 88.15 143.22 C 88.04 143.49 87.83 144.05 87.73 144.33 C 92.64 142.06 87.12 135.36 91.27 132.31 C 91.41 128.47 91.22 124.59 90.21 120.86 C 88.91 113.60 86.28 106.56 82.64 100.15 C 81.16 101.67 82.75 103.44 83.21 105.04 M 82.69 127.12 C 82.55 129.03 82.57 130.96 82.59 132.88 C 83.51 132.90 84.43 132.93 85.35 132.96 C 84.52 130.98 83.74 128.99 82.69 127.12 M 82.99 133.25 C 83.20 135.01 83.42 136.77 83.65 138.53 C 83.14 138.78 82.10 139.29 81.59 139.54 C 82.77 142.88 80.85 148.02 83.94 150.15 C 84.99 149.44 86.06 148.77 87.15 148.13 C 86.87 143.46 85.52 138.92 85.47 134.23 C 84.85 133.99 83.61 133.49 82.99 133.25 M 99.48 142.74 C 91.76 147.70 90.97 157.97 93.74 165.95 C 95.28 169.95 100.57 172.32 104.40 170.09 C 106.72 168.87 109.50 168.12 111.14 165.95 C 112.82 163.84 111.76 160.69 113.71 158.74 C 115.18 157.20 116.03 155.30 115.87 153.14 C 111.70 157.93 107.77 163.16 102.11 166.29 C 101.33 166.29 99.76 166.30 98.97 166.30 C 98.29 165.18 97.58 164.08 96.93 162.94 C 95.87 158.17 96.47 153.32 97.80 148.67 C 98.89 146.89 99.59 144.92 100.31 142.97 C 100.10 142.92 99.69 142.80 99.48 142.74 M 121.46 151.98 C 121.95 154.52 120.37 159.48 123.72 160.01 C 123.29 157.33 124.06 153.74 121.46 151.98 M 135.20 169.71 C 133.99 174.13 134.65 178.79 134.66 183.31 C 135.21 183.58 136.31 184.10 136.86 184.36 L 136.66 183.91 C 137.95 180.40 137.09 176.61 137.34 172.98 C 137.26 167.72 139.82 162.24 137.18 157.24 C 135.69 161.21 135.72 165.54 135.20 169.71 M 121.00 162.84 C 123.52 164.74 128.08 162.32 127.75 159.15 C 125.55 160.48 123.34 161.77 121.00 162.84 M 131.57 168.91 C 134.69 166.78 133.03 162.47 132.08 159.54 C 130.50 162.41 131.30 165.82 131.57 168.91 M 118.86 167.85 C 118.72 168.80 118.58 169.76 118.45 170.71 C 121.28 169.14 124.50 168.89 127.68 169.21 C 127.63 173.67 125.71 178.28 127.49 182.62 C 127.92 182.48 128.79 182.22 129.22 182.09 C 129.62 177.38 129.37 172.56 129.14 167.87 C 125.87 166.66 122.19 167.02 118.86 167.85 M 113.54 173.71 C 113.43 174.53 113.33 175.36 113.23 176.18 C 115.85 177.06 118.56 177.68 121.34 177.44 C 121.32 176.54 121.30 175.65 121.29 174.76 C 118.67 174.69 116.01 174.68 113.54 173.71 M 111.66 179.61 C 111.69 179.95 111.76 180.64 111.80 180.98 C 114.38 181.97 116.83 183.72 119.73 183.31 C 118.09 180.55 114.81 179.15 111.66 179.61 Z" />
<path fill="#050505" opacity="1.00" d=" M 174.32 33.00 C 174.94 33.00 176.18 33.00 176.80 33.00 C 176.63 33.44 176.30 34.31 176.14 34.75 C 177.78 37.28 178.44 40.27 179.97 42.85 C 183.04 47.09 186.88 50.73 189.71 55.16 C 192.97 59.72 195.28 64.88 198.78 69.27 C 200.45 71.27 201.38 73.74 202.05 76.24 C 204.26 84.79 207.45 93.14 208.59 101.93 C 208.35 107.61 209.58 113.52 207.43 118.96 C 206.84 123.36 207.65 127.87 206.52 132.22 C 206.28 128.49 206.40 124.76 206.35 121.03 C 206.21 116.09 205.74 111.16 205.00 106.28 C 204.32 101.89 203.48 97.47 203.81 93.01 C 204.00 90.38 203.55 85.82 199.74 87.30 C 199.17 84.77 198.18 82.37 197.29 79.94 C 198.91 82.41 199.29 86.56 202.71 87.06 C 200.78 79.53 196.04 73.21 193.06 66.11 C 192.16 63.40 191.16 60.69 189.54 58.31 C 188.20 56.12 186.40 54.21 185.25 51.90 C 183.39 46.36 179.27 41.98 175.29 37.84 C 174.98 36.22 174.66 34.61 174.32 33.00 Z" />
<path fill="#afafaf" opacity="1.00" d=" M 54.18 36.78 C 55.42 35.49 56.89 34.32 58.76 34.26 C 56.57 36.98 54.24 39.61 52.32 42.54 C 51.96 38.87 48.05 43.46 49.89 45.33 C 49.55 45.71 48.89 46.49 48.56 46.87 C 47.64 47.28 46.73 47.68 45.81 48.07 C 47.22 45.10 48.72 42.17 50.41 39.34 C 52.18 39.55 53.45 38.24 54.18 36.78 Z" />
<path fill="#f5f5f5" opacity="1.00" d=" M 181.38 33.93 C 185.57 34.52 190.01 35.24 193.42 37.94 C 188.94 38.94 185.64 34.42 181.05 35.31 L 181.38 33.93 Z" />
<path fill="#1f1f1f" opacity="1.00" d=" M 50.24 37.81 C 51.02 37.06 51.80 36.31 52.61 35.59 L 53.19 35.96 C 51.82 36.66 51.10 38.06 50.41 39.34 C 48.72 42.17 47.22 45.10 45.81 48.07 C 43.59 51.07 43.33 54.80 42.02 58.10 C 41.83 50.40 45.63 43.67 50.24 37.81 Z" />
<path fill="#e7e7e7" opacity="1.00" d=" M 53.19 35.96 C 53.43 36.17 53.93 36.58 54.18 36.78 C 53.45 38.24 52.18 39.55 50.41 39.34 C 51.10 38.06 51.82 36.66 53.19 35.96 Z" />
<path fill="#cccccc" opacity="1.00" d=" M 45.01 37.32 C 45.64 38.10 46.26 38.90 46.88 39.69 C 47.38 39.05 47.88 38.41 48.39 37.78 L 50.24 37.81 C 45.63 43.67 41.83 50.40 42.02 58.10 C 43.33 54.80 43.59 51.07 45.81 48.07 C 46.73 47.68 47.64 47.28 48.56 46.87 C 48.59 48.56 48.61 50.24 48.72 51.92 C 48.32 51.84 47.50 51.68 47.10 51.60 C 45.79 54.37 44.45 57.11 43.14 59.88 C 43.30 60.09 43.63 60.50 43.80 60.71 C 43.07 67.86 44.17 75.05 43.49 82.21 C 43.12 80.89 42.78 79.56 42.54 78.20 C 42.52 73.41 42.32 68.61 41.55 63.86 C 40.80 67.71 39.17 71.94 41.92 75.39 C 41.64 75.84 41.08 76.74 40.80 77.18 C 39.58 79.63 40.13 82.39 40.30 85.00 C 40.67 89.40 40.11 93.85 40.87 98.23 C 41.01 100.14 41.85 102.18 40.87 103.99 C 38.92 103.95 38.44 101.54 37.99 100.04 C 35.63 86.37 38.14 72.58 39.85 59.00 C 39.25 51.33 43.15 44.53 45.01 37.32 Z" />
<path fill="#555555" opacity="1.00" d=" M 49.89 45.33 C 48.05 43.46 51.96 38.87 52.32 42.54 C 51.59 43.54 50.78 44.47 49.89 45.33 Z" />
<path fill="#080808" opacity="1.00" d=" M 102.19 54.86 C 106.49 51.28 112.14 47.53 118.01 48.61 C 121.52 50.29 122.89 54.34 126.04 56.50 C 125.49 60.19 127.97 62.87 130.21 65.40 C 132.08 67.94 134.15 70.31 136.53 72.38 C 136.44 73.18 136.34 73.98 136.24 74.78 C 137.40 76.84 138.49 78.94 139.58 81.04 C 138.79 81.57 137.99 82.10 137.18 82.62 C 129.78 72.95 124.09 62.14 117.11 52.18 C 111.97 51.80 108.01 55.90 103.02 56.10 C 102.81 55.79 102.39 55.17 102.19 54.86 Z" />
<path fill="#4a4a4a" opacity="1.00" d=" M 47.10 51.60 C 47.50 51.68 48.32 51.84 48.72 51.92 C 48.89 53.80 49.66 55.72 49.07 57.58 C 47.38 62.20 48.50 67.23 47.09 71.95 C 47.15 65.44 48.63 59.05 48.74 52.56 C 45.37 54.49 45.87 59.17 45.36 62.58 C 44.97 62.11 44.19 61.18 43.80 60.71 C 43.63 60.50 43.30 60.09 43.14 59.88 C 44.45 57.11 45.79 54.37 47.10 51.60 Z" />
<path fill="#373737" opacity="1.00" d=" M 126.04 56.50 C 128.97 58.45 131.15 61.76 130.21 65.40 C 127.97 62.87 125.49 60.19 126.04 56.50 Z" />
<path fill="#adadad" opacity="1.00" d=" M 189.54 58.31 C 191.16 60.69 192.16 63.40 193.06 66.11 C 191.22 63.84 189.02 61.51 189.54 58.31 Z" />
<path fill="#afafaf" opacity="1.00" d=" M 197.45 58.19 C 200.50 61.27 203.17 64.96 203.69 69.39 C 199.39 67.57 196.84 62.77 197.45 58.19 M 199.21 63.31 C 199.73 63.82 199.73 63.82 199.21 63.31 Z" />
<path fill="#c6c6c6" opacity="1.00" d=" M 34.27 60.22 C 34.61 60.24 35.30 60.28 35.64 60.30 C 34.94 72.20 33.98 84.18 35.04 96.08 C 37.20 102.62 40.24 109.38 39.24 116.43 L 38.19 116.89 C 37.32 112.46 34.91 108.49 34.32 103.98 C 31.92 89.53 32.67 74.72 34.27 60.22 Z" />
<path fill="#323232" opacity="1.00" d=" M 131.20 60.28 C 131.78 60.33 132.96 60.45 133.54 60.51 C 138.04 66.19 144.70 70.29 152.02 70.72 C 148.50 68.34 142.97 66.64 142.23 61.96 C 146.89 66.61 152.86 70.38 159.76 69.57 C 159.65 69.98 159.44 70.79 159.33 71.19 C 154.49 70.64 149.61 73.71 145.02 71.10 C 139.13 69.42 134.70 65.11 131.20 60.28 Z" />
<path fill="#8d8d8d" opacity="1.00" d=" M 111.16 63.74 C 110.68 62.05 112.64 62.31 113.68 61.90 C 113.50 62.40 113.14 63.38 112.96 63.88 C 113.59 64.87 114.21 65.87 114.83 66.88 C 113.58 65.87 112.29 64.88 111.16 63.74 Z" />
<path fill="#666666" opacity="1.00" d=" M 199.21 63.31 C 199.73 63.82 199.73 63.82 199.21 63.31 Z" />
<path fill="#8d8d8d" opacity="1.00" d=" M 41.55 63.86 C 42.32 68.61 42.52 73.41 42.54 78.20 C 42.38 77.50 42.08 76.09 41.92 75.39 C 39.17 71.94 40.80 67.71 41.55 63.86 Z" />
<path fill="#4a4a4a" opacity="1.00" d=" M 101.04 69.68 C 101.79 67.97 101.87 65.74 103.72 64.77 C 105.46 65.73 107.34 64.31 109.15 64.88 C 110.29 66.91 108.40 67.48 106.88 68.12 C 107.49 69.11 108.10 70.10 108.69 71.11 C 106.46 70.12 104.61 68.52 102.78 66.94 C 103.43 69.35 104.19 71.72 104.99 74.08 C 101.63 74.39 99.91 70.76 96.88 69.96 C 97.82 71.66 99.42 73.26 98.85 75.38 C 96.67 72.89 92.64 71.29 92.67 67.51 C 95.33 68.58 98.06 70.22 101.04 69.68 Z" />
<path fill="#7a7a7a" opacity="1.00" d=" M 56.24 90.99 C 56.43 82.32 56.07 73.63 56.56 64.98 C 58.26 77.05 54.83 89.39 58.36 101.27 C 60.99 110.08 63.25 118.98 63.91 128.19 C 62.00 122.31 62.17 115.99 60.08 110.16 C 58.46 103.86 55.79 97.62 56.24 90.99 Z" />
<path fill="#373737" opacity="1.00" d=" M 138.40 69.99 C 141.54 71.84 142.06 75.73 142.58 79.00 C 143.03 84.13 143.67 89.24 144.53 94.32 C 145.56 95.00 146.59 95.68 147.60 96.41 C 147.70 96.88 147.90 97.83 147.99 98.30 C 147.34 97.66 145.20 96.36 144.94 97.97 C 145.08 99.31 146.58 100.08 147.82 99.80 C 147.73 100.42 147.54 101.66 147.45 102.29 C 146.04 101.41 144.60 100.57 143.10 99.88 C 142.76 98.44 142.37 97.01 141.60 95.74 C 141.29 95.26 140.66 94.30 140.35 93.82 C 140.43 93.39 140.59 92.52 140.67 92.09 C 140.26 91.46 139.85 90.84 139.45 90.22 C 139.58 88.84 139.72 87.47 139.87 86.09 C 140.56 87.01 141.25 87.93 141.93 88.86 C 141.54 86.69 141.23 84.51 140.93 82.33 C 139.68 82.45 138.44 82.58 137.18 82.62 C 137.99 82.10 138.79 81.57 139.58 81.04 C 142.51 77.93 138.61 73.67 138.40 69.99 M 142.09 93.27 C 140.54 96.26 145.40 93.43 142.09 93.27 Z" />
<path fill="#292929" opacity="1.00" d=" M 161.03 74.41 C 163.89 73.53 166.11 70.89 169.29 71.05 C 164.62 77.21 156.55 76.87 149.63 76.35 C 149.49 75.88 149.21 74.94 149.06 74.47 C 153.05 74.44 157.05 74.75 161.03 74.41 Z" />
<path fill="#bdbdbd" opacity="1.00" d=" M 202.47 73.52 C 205.46 80.30 207.29 87.51 209.02 94.69 C 210.74 101.98 211.92 109.52 210.64 116.98 C 210.70 128.94 210.61 141.72 204.46 152.38 C 198.89 157.88 196.69 165.70 191.45 171.48 C 189.06 174.78 185.13 176.51 182.79 179.83 C 182.39 179.62 181.58 179.21 181.18 179.00 C 180.01 179.80 178.84 180.60 177.67 181.39 C 178.09 178.71 178.68 175.87 180.88 174.05 C 180.37 175.08 179.88 176.13 179.41 177.19 C 179.93 177.37 180.97 177.73 181.49 177.91 C 186.36 173.31 190.48 167.87 192.13 161.25 C 192.38 163.90 191.76 166.50 191.10 169.05 C 194.74 164.07 197.82 158.69 200.16 152.97 C 198.81 154.18 197.46 155.39 196.12 156.61 C 195.63 156.10 195.14 155.59 194.65 155.09 C 197.71 153.19 201.51 149.97 199.24 145.98 C 197.89 147.36 196.56 148.78 195.44 150.36 C 195.21 149.76 194.75 148.55 194.51 147.95 C 196.07 144.34 197.54 140.70 198.89 137.01 C 198.92 137.70 198.97 139.08 198.99 139.77 C 200.77 136.95 201.88 133.81 203.18 130.76 C 204.42 135.48 200.96 139.82 199.76 144.25 C 200.67 146.07 201.36 147.99 201.86 149.96 C 205.09 140.69 204.74 130.89 204.62 121.23 L 206.35 121.03 C 206.40 124.76 206.28 128.49 206.52 132.22 C 207.65 127.87 206.84 123.36 207.43 118.96 C 209.58 113.52 208.35 107.61 208.59 101.93 C 207.45 93.14 204.26 84.79 202.05 76.24 C 202.16 75.56 202.36 74.20 202.47 73.52 Z" />
<path fill="#242424" opacity="1.00" d=" M 146.12 75.92 C 148.85 77.52 149.13 81.07 150.22 83.75 C 151.01 82.52 151.82 81.29 152.67 80.09 C 152.99 83.98 151.73 87.75 150.14 91.25 C 147.52 89.66 149.07 86.48 148.68 84.08 C 147.84 81.35 146.10 78.87 146.12 75.92 Z" />
<path fill="#fafafa" opacity="1.00" d=" M 102.20 82.90 C 111.07 79.93 122.72 79.83 128.90 88.01 C 131.27 90.48 135.47 93.61 131.75 96.90 C 131.00 96.85 129.48 96.74 128.73 96.68 C 122.41 94.99 115.98 93.14 110.55 89.36 C 107.70 87.31 103.94 86.18 102.20 82.90 M 108.98 86.56 C 109.06 88.49 111.51 90.71 113.38 89.35 C 114.38 86.24 110.94 86.33 108.98 86.56 Z" />
<path fill="#323232" opacity="1.00" d=" M 89.25 82.61 C 89.81 82.58 90.92 82.53 91.47 82.51 C 91.98 83.96 92.45 85.42 92.86 86.91 C 91.44 85.67 90.27 84.19 89.25 82.61 Z" />
<path fill="#7c7c7c" opacity="1.00" d=" M 154.33 88.23 C 154.66 85.92 154.63 82.58 157.82 82.66 C 157.73 85.68 157.52 88.69 157.30 91.70 C 156.38 92.72 155.39 93.68 154.09 94.20 C 155.27 90.65 157.45 87.32 157.28 83.45 C 155.90 84.78 155.13 86.54 154.33 88.23 Z" />
<path fill="#060606" opacity="1.00" d=" M 108.98 86.56 C 110.94 86.33 114.38 86.24 113.38 89.35 C 111.51 90.71 109.06 88.49 108.98 86.56 Z" />
<path fill="#8d8d8d" opacity="1.00" d=" M 99.90 87.17 C 103.12 87.29 105.39 89.86 107.86 91.61 C 104.89 90.91 101.59 89.93 99.90 87.17 Z" />
<path fill="#707070" opacity="1.00" d=" M 128.90 88.01 C 131.23 89.44 134.96 91.19 134.43 94.47 C 133.45 96.38 130.56 99.37 128.73 96.68 C 129.48 96.74 131.00 96.85 131.75 96.90 C 135.47 93.61 131.27 90.48 128.90 88.01 Z" />
<path fill="#bdbdbd" opacity="1.00" d=" M 199.74 87.30 C 203.55 85.82 204.00 90.38 203.81 93.01 C 203.48 97.47 204.32 101.89 205.00 106.28 C 204.51 106.14 203.55 105.85 203.07 105.71 C 203.78 101.14 201.04 96.62 202.95 92.14 C 202.43 92.76 201.39 94.02 200.87 94.64 C 200.50 92.19 200.16 89.74 199.74 87.30 Z" />
<path fill="#292929" opacity="1.00" d=" M 97.24 90.74 C 100.62 92.59 104.19 94.96 105.05 99.01 C 102.94 97.92 100.95 96.61 99.02 95.24 C 98.80 93.61 98.41 91.97 97.24 90.74 Z" />
<path fill="#6a6a6a" opacity="1.00" d=" M 142.09 93.27 C 145.40 93.43 140.54 96.26 142.09 93.27 Z" />
<path fill="#8d8d8d" opacity="1.00" d=" M 141.60 95.74 C 141.34 100.10 137.37 94.85 140.35 93.82 C 140.66 94.30 141.29 95.26 141.60 95.74 Z" />
<path fill="#252525" opacity="1.00" d=" M 111.73 95.98 C 114.19 96.20 116.78 96.75 118.22 98.96 C 115.72 98.90 112.93 98.51 111.73 95.98 Z" />
<path fill="#e0e0e0" opacity="1.00" d=" M 144.94 97.97 C 145.20 96.36 147.34 97.66 147.99 98.30 C 147.95 98.68 147.86 99.43 147.82 99.80 C 146.58 100.08 145.08 99.31 144.94 97.97 Z" />
<path fill="#757575" opacity="1.00" d=" M 157.90 97.93 C 162.29 95.77 166.61 99.19 171.01 99.42 C 175.22 100.13 180.27 101.73 181.88 106.14 C 182.61 109.23 179.18 110.23 176.82 110.41 C 172.30 110.58 167.78 110.11 163.30 109.58 L 163.38 108.75 C 167.22 109.39 171.12 109.75 175.01 109.89 C 177.35 109.98 180.25 109.32 181.35 107.02 C 178.31 100.20 169.78 100.53 163.71 98.37 C 160.95 97.16 158.05 98.45 156.34 100.71 C 156.95 102.11 157.55 103.52 158.20 104.90 C 155.56 103.63 155.14 99.29 157.90 97.93 Z" />
<path fill="#fafafa" opacity="1.00" d=" M 156.34 100.71 C 158.05 98.45 160.95 97.16 163.71 98.37 C 169.78 100.53 178.31 100.20 181.35 107.02 C 180.25 109.32 177.35 109.98 175.01 109.89 C 171.12 109.75 167.22 109.39 163.38 108.75 C 161.30 108.09 159.30 106.84 158.20 104.90 C 157.55 103.52 156.95 102.11 156.34 100.71 M 160.13 106.61 C 161.77 106.51 163.40 106.40 165.04 106.29 C 164.92 105.60 164.68 104.21 164.56 103.51 C 162.31 103.58 159.53 103.38 160.13 106.61 Z" />
<path fill="#fcfcfc" opacity="1.00" d=" M 141.14 99.41 C 141.63 99.53 142.61 99.76 143.10 99.88 C 144.60 100.57 146.04 101.41 147.45 102.29 L 148.10 102.70 C 146.89 102.67 145.68 102.63 144.47 102.58 C 143.36 101.52 142.23 100.48 141.14 99.41 Z" />
<path fill="#050505" opacity="1.00" d=" M 83.21 105.04 C 82.75 103.44 81.16 101.67 82.64 100.15 C 86.28 106.56 88.91 113.60 90.21 120.86 C 90.31 124.53 91.67 128.53 89.99 132.01 C 87.88 135.45 90.47 139.76 88.15 143.22 C 86.28 133.16 84.89 122.96 82.30 113.03 C 87.21 117.00 86.38 124.39 88.57 129.88 C 87.42 121.49 86.34 112.98 83.21 105.04 Z" />
<path fill="#bdbdbd" opacity="1.00" d=" M 151.60 101.00 C 153.43 103.26 154.08 106.19 154.62 108.99 C 152.51 106.90 151.17 104.02 151.60 101.00 Z" />
<path fill="#181818" opacity="1.00" d=" M 114.26 103.12 C 118.56 100.95 123.27 103.26 126.92 105.65 C 123.61 105.33 120.00 106.25 117.02 104.38 C 116.10 103.95 115.19 103.52 114.26 103.12 Z" />
<path fill="#8d8d8d" opacity="1.00" d=" M 126.01 103.55 C 126.78 101.47 129.33 102.37 130.99 102.33 C 130.50 104.66 127.65 103.56 126.01 103.55 Z" />
<path fill="#969696" opacity="1.00" d=" M 190.27 101.74 C 190.43 108.94 189.56 116.17 188.35 123.26 C 188.27 116.03 189.41 108.89 190.27 101.74 Z" />
<path fill="#252525" opacity="1.00" d=" M 133.37 103.14 C 134.77 102.73 135.27 103.22 134.87 104.62 C 133.47 105.03 132.97 104.54 133.37 103.14 Z" />
<path fill="#090909" opacity="1.00" d=" M 160.13 106.61 C 159.53 103.38 162.31 103.58 164.56 103.51 C 164.68 104.21 164.92 105.60 165.04 106.29 C 163.40 106.40 161.77 106.51 160.13 106.61 Z" />
<path fill="#ededed" opacity="1.00" d=" M 42.23 103.62 C 42.72 106.22 43.49 108.81 45.09 110.95 C 45.78 109.74 46.47 108.53 47.16 107.32 C 48.62 110.05 49.74 113.03 49.45 116.18 C 49.07 115.90 48.33 115.34 47.96 115.05 C 46.42 118.35 47.93 121.44 49.90 124.12 C 50.12 124.63 50.55 125.64 50.76 126.15 C 50.18 126.03 49.00 125.81 48.42 125.69 C 47.33 124.36 46.00 123.08 44.12 123.29 C 42.75 127.54 45.68 132.72 44.04 136.41 C 42.12 134.92 41.86 132.18 40.93 130.05 C 41.09 127.53 41.64 125.03 41.58 122.49 C 40.74 120.77 39.47 119.31 38.40 117.72 L 38.19 116.89 L 39.24 116.43 C 39.66 116.43 40.51 116.43 40.93 116.43 C 41.13 117.42 41.54 119.39 41.74 120.38 C 42.23 115.50 41.59 110.63 40.50 105.88 C 40.93 105.32 41.79 104.19 42.23 103.62 M 45.64 122.36 C 46.10 118.77 45.23 115.22 44.28 111.78 C 43.08 115.29 43.96 119.16 45.64 122.36 Z" />
<path fill="#555555" opacity="1.00" d=" M 125.78 108.83 C 128.74 107.19 133.51 104.53 136.29 107.45 C 136.21 107.86 136.04 108.68 135.96 109.09 C 134.19 108.78 132.43 108.38 130.75 107.73 C 129.08 108.05 127.42 108.40 125.78 108.83 Z" />
<path fill="#2f2f2f" opacity="1.00" d=" M 137.83 105.11 C 139.28 106.87 140.43 108.88 140.95 111.12 C 139.28 110.47 137.62 109.78 135.96 109.09 C 136.04 108.68 136.21 107.86 136.29 107.45 C 136.68 106.86 137.45 105.69 137.83 105.11 Z" />
<path fill="#8d8d8d" opacity="1.00" d=" M 202.13 109.30 C 202.42 108.10 202.76 106.90 203.07 105.71 C 203.55 105.85 204.51 106.14 205.00 106.28 C 205.74 111.16 206.21 116.09 206.35 121.03 L 204.62 121.23 C 204.62 120.85 204.61 120.09 204.61 119.71 C 203.78 116.36 206.34 110.47 202.13 109.30 Z" />
<path fill="#060606" opacity="1.00" d=" M 135.96 109.09 C 137.62 109.78 139.28 110.47 140.95 111.12 C 141.45 112.86 142.05 114.56 142.69 116.24 C 141.11 117.16 139.52 118.06 137.95 118.98 C 137.44 120.27 136.95 121.56 136.38 122.82 C 135.88 120.70 135.45 118.56 134.94 116.44 C 121.19 116.87 113.51 129.72 103.92 137.62 C 103.79 137.20 103.53 136.36 103.40 135.94 C 108.61 129.87 114.74 124.65 119.97 118.60 C 116.59 119.06 113.01 121.34 109.71 119.41 C 106.21 117.53 103.09 115.03 100.04 112.51 C 105.67 112.56 110.49 118.06 116.12 115.83 C 119.09 114.91 122.37 115.79 125.24 114.50 C 128.28 113.17 131.23 111.56 133.71 109.34 C 134.28 109.28 135.40 109.15 135.96 109.09 M 136.27 112.98 C 134.14 113.96 136.33 116.26 137.91 115.24 C 139.93 114.37 137.79 111.62 136.27 112.98 Z" />
<path fill="#2a2a2a" opacity="1.00" d=" M 156.10 109.07 C 156.76 109.12 158.09 109.22 158.75 109.27 C 159.33 110.58 159.86 111.90 160.32 113.26 C 158.31 112.57 157.20 110.75 156.10 109.07 Z" />
<path fill="#bcbcbc" opacity="1.00" d=" M 202.13 109.30 C 206.34 110.47 203.78 116.36 204.61 119.71 C 204.84 121.36 204.39 122.42 203.25 122.91 C 202.57 120.31 202.61 117.61 202.44 114.96 C 202.30 118.32 201.80 121.93 203.41 125.05 C 202.76 127.11 201.98 129.14 201.14 131.14 C 201.78 123.87 200.35 116.47 202.13 109.30 Z" />
<path fill="#fafafa" opacity="1.00" d=" M 155.11 111.06 C 158.56 114.55 159.48 121.38 165.06 121.88 C 164.35 120.09 162.74 118.88 162.08 117.06 C 167.48 121.66 173.70 127.75 181.40 126.44 C 181.64 126.37 182.12 126.23 182.36 126.16 C 184.53 130.31 183.69 135.44 182.18 139.68 C 177.38 148.18 166.33 152.47 164.82 162.90 C 164.34 163.28 163.37 164.04 162.89 164.42 C 163.60 154.92 163.19 145.41 162.44 135.93 C 163.30 137.12 164.14 138.33 164.98 139.54 C 169.18 138.46 173.62 140.00 177.68 138.20 C 175.05 135.49 170.93 136.93 167.92 135.02 C 166.29 133.06 165.46 130.46 163.30 128.95 C 161.78 127.42 159.09 126.24 159.56 123.67 C 162.37 122.78 164.38 125.29 166.52 126.62 C 169.11 128.49 171.58 130.56 174.37 132.13 C 177.32 133.62 180.13 130.97 182.75 129.97 C 182.14 129.51 181.52 129.05 180.91 128.60 C 175.75 132.01 170.99 127.78 166.94 124.89 C 161.36 121.95 157.65 116.70 155.11 111.06 Z" />
<path fill="#323232" opacity="1.00" d=" M 45.64 122.36 C 43.96 119.16 43.08 115.29 44.28 111.78 C 45.23 115.22 46.10 118.77 45.64 122.36 Z" />
<path fill="#bdbdbd" opacity="1.00" d=" M 136.27 112.98 C 137.79 111.62 139.93 114.37 137.91 115.24 C 136.33 116.26 134.14 113.96 136.27 112.98 Z" />
<path fill="#555555" opacity="1.00" d=" M 161.03 113.08 C 162.81 113.43 164.51 114.09 166.13 114.90 C 166.28 114.47 166.58 113.63 166.73 113.20 C 167.46 113.65 168.20 114.11 168.93 114.56 C 166.10 116.20 162.91 115.93 161.03 113.08 Z" />
<path fill="#c4c4c4" opacity="1.00" d=" M 47.96 115.05 C 48.33 115.34 49.07 115.90 49.45 116.18 C 49.45 118.83 49.52 121.49 49.90 124.12 C 47.93 121.44 46.42 118.35 47.96 115.05 Z" />
<path fill="#060606" opacity="1.00" d=" M 203.41 125.05 C 201.80 121.93 202.30 118.32 202.44 114.96 C 202.61 117.61 202.57 120.31 203.25 122.91 C 204.39 122.42 204.84 121.36 204.61 119.71 C 204.61 120.09 204.62 120.85 204.62 121.23 C 204.74 130.89 205.09 140.69 201.86 149.96 C 201.36 147.99 200.67 146.07 199.76 144.25 C 200.96 139.82 204.42 135.48 203.18 130.76 C 201.88 133.81 200.77 136.95 198.99 139.77 C 198.97 139.08 198.92 137.70 198.89 137.01 C 199.57 135.02 200.36 133.08 201.14 131.14 C 201.98 129.14 202.76 127.11 203.41 125.05 Z" />
<path fill="#8f8f8f" opacity="1.00" d=" M 134.94 116.44 C 135.45 118.56 135.88 120.70 136.38 122.82 C 136.95 121.56 137.44 120.27 137.95 118.98 C 138.20 120.12 138.46 121.26 138.73 122.40 C 141.27 119.58 144.86 119.08 148.46 119.54 C 145.64 120.13 139.77 119.88 140.44 124.15 C 143.00 125.38 145.69 123.59 148.22 123.12 C 145.29 125.28 141.34 126.88 138.82 123.26 C 137.87 123.36 136.92 123.47 135.97 123.57 C 135.19 121.27 134.82 118.87 134.94 116.44 Z" />
<path fill="#bdbdbd" opacity="1.00" d=" M 179.85 119.92 C 180.69 117.50 182.84 117.02 183.88 119.53 C 182.54 119.69 181.19 119.81 179.85 119.92 Z" />
<path fill="#a4a4a4" opacity="1.00" d=" M 38.40 117.72 C 39.47 119.31 40.74 120.77 41.58 122.49 C 41.64 125.03 41.09 127.53 40.93 130.05 C 39.65 126.04 39.02 121.87 38.40 117.72 Z" />
<path fill="#080808" opacity="1.00" d=" M 140.44 124.15 C 139.77 119.88 145.64 120.13 148.46 119.54 C 148.41 120.73 148.53 121.95 148.22 123.12 C 145.69 123.59 143.00 125.38 140.44 124.15 Z" />
<path fill="#8d8d8d" opacity="1.00" d=" M 90.21 120.86 C 91.22 124.59 91.41 128.47 91.27 132.31 C 87.12 135.36 92.64 142.06 87.73 144.33 C 87.83 144.05 88.04 143.49 88.15 143.22 C 90.47 139.76 87.88 135.45 89.99 132.01 C 91.67 128.53 90.31 124.53 90.21 120.86 Z" />
<path fill="#585858" opacity="1.00" d=" M 170.36 121.27 C 171.42 120.52 173.29 121.03 173.77 122.25 C 173.42 124.10 169.48 123.08 170.36 121.27 Z" />
<path fill="#3d3d3d" opacity="1.00" d=" M 175.34 120.70 C 177.98 120.65 180.53 121.33 183.02 122.11 C 183.39 123.60 183.17 124.95 182.36 126.16 C 182.12 126.23 181.64 126.37 181.40 126.44 C 180.99 126.03 180.18 125.22 179.77 124.81 C 178.94 123.78 177.46 123.63 176.27 123.98 C 176.73 123.54 177.19 123.09 177.66 122.65 C 177.08 122.16 175.92 121.19 175.34 120.70 Z" />
<path fill="#060606" opacity="1.00" d=" M 119.25 126.40 C 123.45 123.30 129.25 123.87 133.93 125.46 C 137.91 126.63 140.63 129.91 143.88 132.27 C 142.58 132.91 141.27 133.53 139.96 134.15 C 139.84 133.23 139.61 131.38 139.49 130.45 C 138.53 130.62 137.57 130.79 136.61 130.97 C 136.42 130.69 136.02 130.14 135.82 129.87 C 135.52 129.47 134.90 128.66 134.59 128.26 C 133.87 128.38 132.43 128.61 131.71 128.73 C 131.41 128.16 130.80 127.01 130.50 126.44 C 129.96 126.44 128.87 126.43 128.32 126.43 C 127.94 127.83 127.56 129.22 127.24 130.63 C 130.06 132.86 134.47 132.32 136.42 135.72 C 136.49 135.85 136.64 136.13 136.72 136.26 C 138.00 135.85 140.03 134.36 140.52 136.61 L 140.67 138.05 C 143.01 137.54 144.31 136.11 143.78 133.55 C 143.82 133.34 143.91 132.91 143.95 132.70 C 147.53 134.91 151.65 135.87 155.50 137.47 C 159.23 144.99 157.28 153.55 157.49 161.59 C 157.08 161.60 156.26 161.63 155.85 161.65 C 156.06 162.17 156.47 163.21 156.68 163.73 C 156.20 164.40 155.26 165.75 154.78 166.42 C 152.76 162.88 153.01 158.72 152.40 154.82 C 151.77 151.26 149.94 147.81 146.94 145.70 C 141.35 146.26 134.52 146.47 130.77 141.42 C 130.59 141.13 130.24 140.54 130.06 140.25 C 129.36 138.89 128.73 137.51 128.10 136.12 C 121.95 138.50 116.89 143.02 113.78 148.82 C 113.58 147.25 113.40 145.68 113.22 144.10 C 111.91 144.37 110.59 144.64 109.29 144.95 C 108.82 145.08 107.88 145.33 107.41 145.45 C 105.82 147.49 103.99 149.78 104.67 152.56 C 106.26 152.60 107.84 152.69 109.42 152.81 C 107.48 155.22 105.60 158.55 102.03 158.32 C 102.41 155.69 102.78 153.05 103.32 150.44 C 106.63 141.28 111.97 132.92 119.25 126.40 M 123.98 131.73 C 126.09 130.97 125.62 128.75 125.68 127.01 C 123.87 128.02 120.82 130.12 123.98 131.73 M 118.38 131.38 C 118.47 131.86 118.67 132.81 118.77 133.29 C 119.16 133.35 119.95 133.46 120.34 133.51 C 120.64 132.73 121.22 131.16 121.51 130.37 C 120.73 130.62 119.16 131.13 118.38 131.38 M 146.76 136.82 C 146.71 137.97 146.67 139.12 146.64 140.27 C 147.57 140.34 148.51 140.41 149.45 140.48 C 149.61 139.01 149.76 137.53 149.89 136.06 C 148.84 136.31 147.80 136.56 146.76 136.82 M 151.60 139.43 C 151.52 140.45 151.45 141.47 151.38 142.49 C 152.37 142.34 153.36 142.20 154.35 142.05 C 154.39 140.39 153.35 139.16 151.60 139.43 Z" />
<path fill="#cdcdcd" opacity="1.00" d=" M 45.16 123.98 C 49.34 125.43 47.29 131.21 49.47 134.45 C 49.83 136.85 49.06 139.45 46.36 140.00 C 45.59 134.70 45.53 129.29 45.16 123.98 Z" />
<path fill="#636363" opacity="1.00" d=" M 176.27 123.98 C 177.46 123.63 178.94 123.78 179.77 124.81 C 178.92 125.84 176.10 125.60 176.27 123.98 Z" />
<path fill="#1e1e1e" opacity="1.00" d=" M 166.94 124.89 C 170.99 127.78 175.75 132.01 180.91 128.60 C 181.52 129.05 182.14 129.51 182.75 129.97 C 180.13 130.97 177.32 133.62 174.37 132.13 C 171.58 130.56 169.11 128.49 166.52 126.62 L 166.94 124.89 Z" />
<path fill="#fafafa" opacity="1.00" d=" M 128.32 126.43 C 128.87 126.43 129.96 126.44 130.50 126.44 C 130.80 127.01 131.41 128.16 131.71 128.73 C 132.43 128.61 133.87 128.38 134.59 128.26 C 134.90 128.66 135.52 129.47 135.82 129.87 C 134.71 131.06 133.68 133.44 131.62 132.42 C 131.88 131.23 132.18 130.05 132.51 128.88 C 130.95 130.00 129.19 130.70 127.24 130.63 C 127.56 129.22 127.94 127.83 128.32 126.43 Z" />
<path fill="#a1a1a1" opacity="1.00" d=" M 50.04 127.44 C 51.40 127.66 51.65 128.37 50.80 129.58 C 49.44 129.36 49.18 128.64 50.04 127.44 Z" />
<path fill="#1f1f1f" opacity="1.00" d=" M 82.69 127.12 C 83.74 128.99 84.52 130.98 85.35 132.96 C 84.43 132.93 83.51 132.90 82.59 132.88 C 82.57 130.96 82.55 129.03 82.69 127.12 Z" />
<path fill="#f5f5f5" opacity="1.00" d=" M 123.98 131.73 C 120.82 130.12 123.87 128.02 125.68 127.01 C 125.62 128.75 126.09 130.97 123.98 131.73 Z" />
<path fill="#373737" opacity="1.00" d=" M 127.24 130.63 C 129.19 130.70 130.95 130.00 132.51 128.88 C 132.18 130.05 131.88 131.23 131.62 132.42 C 133.68 133.44 134.71 131.06 135.82 129.87 C 136.02 130.14 136.42 130.69 136.61 130.97 C 136.57 132.55 136.43 134.13 136.42 135.72 C 134.47 132.32 130.06 132.86 127.24 130.63 Z" />
<path fill="#fcfcfc" opacity="1.00" d=" M 118.38 131.38 C 119.16 131.13 120.73 130.62 121.51 130.37 C 121.22 131.16 120.64 132.73 120.34 133.51 C 119.95 133.46 119.16 133.35 118.77 133.29 C 118.67 132.81 118.47 131.86 118.38 131.38 Z" />
<path fill="#060606" opacity="1.00" d=" M 51.55 131.89 C 53.05 135.90 51.86 140.57 52.35 144.84 C 52.65 147.32 49.87 151.24 52.74 152.60 C 49.66 151.16 49.05 155.32 47.85 157.19 L 47.35 158.08 C 47.37 153.29 49.21 148.81 50.81 144.38 C 52.52 140.42 51.45 136.04 51.55 131.89 Z" />
<path fill="#555555" opacity="1.00" d=" M 82.99 133.25 C 83.61 133.49 84.85 133.99 85.47 134.23 C 85.52 138.92 86.87 143.46 87.15 148.13 C 85.48 147.11 84.78 145.28 84.03 143.58 C 84.04 145.77 84.02 147.96 83.94 150.15 C 80.85 148.02 82.77 142.88 81.59 139.54 C 82.10 139.29 83.14 138.78 83.65 138.53 C 83.42 136.77 83.20 135.01 82.99 133.25 Z" />
<path fill="#adadad" opacity="1.00" d=" M 140.52 136.61 C 141.56 135.54 142.69 134.56 143.78 133.55 C 144.31 136.11 143.01 137.54 140.67 138.05 L 140.52 136.61 Z" />
<path fill="#fcfcfc" opacity="1.00" d=" M 146.76 136.82 C 147.80 136.56 148.84 136.31 149.89 136.06 C 149.76 137.53 149.61 139.01 149.45 140.48 C 148.51 140.41 147.57 140.34 146.64 140.27 C 146.67 139.12 146.71 137.97 146.76 136.82 Z" />
<path fill="#e8e8e8" opacity="1.00" d=" M 44.19 137.34 C 45.49 137.57 45.85 139.80 45.11 140.77 C 43.84 140.63 43.36 138.19 44.19 137.34 Z" />
<path fill="#fafafa" opacity="1.00" d=" M 151.60 139.43 C 153.35 139.16 154.39 140.39 154.35 142.05 C 153.36 142.20 152.37 142.34 151.38 142.49 C 151.45 141.47 151.52 140.45 151.60 139.43 Z" />
<path fill="#8d8d8d" opacity="1.00" d=" M 188.09 154.73 C 190.08 149.17 192.42 143.60 196.08 138.91 C 194.31 144.57 191.66 149.98 188.09 154.73 Z" />
<path fill="#a0a0a0" opacity="1.00" d=" M 125.91 140.80 C 127.29 140.62 128.67 140.44 130.06 140.25 C 130.24 140.54 130.59 141.13 130.77 141.42 C 130.52 142.02 130.01 143.22 129.76 143.82 C 128.89 142.89 128.01 141.97 127.12 141.05 C 126.41 142.06 125.69 143.06 124.94 144.04 C 125.28 142.96 125.60 141.88 125.91 140.80 Z" />
<path fill="#060606" opacity="1.00" d=" M 99.48 142.74 C 99.69 142.80 100.10 142.92 100.31 142.97 C 99.59 144.92 98.89 146.89 97.80 148.67 C 95.09 152.79 94.50 158.57 96.93 162.94 C 97.58 164.08 98.29 165.18 98.97 166.30 C 99.76 166.30 101.33 166.29 102.11 166.29 C 107.77 163.16 111.70 157.93 115.87 153.14 C 116.03 155.30 115.18 157.20 113.71 158.74 C 111.76 160.69 112.82 163.84 111.14 165.95 C 109.50 168.12 106.72 168.87 104.40 170.09 C 100.57 172.32 95.28 169.95 93.74 165.95 C 90.97 157.97 91.76 147.70 99.48 142.74 Z" />
<path fill="#9f9f9f" opacity="1.00" d=" M 84.03 143.58 C 84.78 145.28 85.48 147.11 87.15 148.13 C 86.06 148.77 84.99 149.44 83.94 150.15 C 84.02 147.96 84.04 145.77 84.03 143.58 Z" />
<path fill="#555555" opacity="1.00" d=" M 109.29 144.95 C 110.59 144.64 111.91 144.37 113.22 144.10 C 113.40 145.68 113.58 147.25 113.78 148.82 C 111.72 152.28 109.01 155.30 106.01 157.96 C 104.82 159.36 102.89 158.59 101.32 158.70 C 101.37 155.83 101.94 152.99 103.32 150.44 C 102.78 153.05 102.41 155.69 102.03 158.32 C 105.60 158.55 107.48 155.22 109.42 152.81 C 107.84 152.69 106.26 152.60 104.67 152.56 C 107.84 151.32 108.58 147.90 109.29 144.95 M 108.99 152.17 C 112.88 153.46 111.36 146.90 112.88 144.82 C 109.82 145.81 109.10 149.37 108.99 152.17 Z" />
<path fill="#fafafa" opacity="1.00" d=" M 107.41 145.45 C 107.88 145.33 108.82 145.08 109.29 144.95 C 108.58 147.90 107.84 151.32 104.67 152.56 C 103.99 149.78 105.82 147.49 107.41 145.45 Z" />
<path fill="#fcfcfc" opacity="1.00" d=" M 108.99 152.17 C 109.10 149.37 109.82 145.81 112.88 144.82 C 111.36 146.90 112.88 153.46 108.99 152.17 Z" />
<path fill="#e0e0e0" opacity="1.00" d=" M 43.65 146.52 C 43.93 147.21 44.18 147.90 44.43 148.61 C 41.88 153.12 39.61 157.90 38.98 163.10 C 35.77 163.72 39.71 166.32 38.98 163.10 C 40.85 159.07 42.74 155.06 44.44 150.95 C 45.45 151.14 46.45 151.33 47.46 151.52 C 46.47 153.76 45.41 155.97 44.27 158.14 C 42.73 158.73 41.74 160.18 42.11 161.85 C 40.90 164.12 39.53 166.30 38.37 168.59 C 37.76 168.19 36.54 167.40 35.93 167.01 C 36.74 163.65 37.87 160.38 38.96 157.11 C 40.13 153.41 41.84 149.93 43.65 146.52 Z" />
<path fill="#090909" opacity="1.00" d=" M 195.44 150.36 C 196.56 148.78 197.89 147.36 199.24 145.98 C 201.51 149.97 197.71 153.19 194.65 155.09 C 195.14 155.59 195.63 156.10 196.12 156.61 C 197.46 155.39 198.81 154.18 200.16 152.97 C 197.82 158.69 194.74 164.07 191.10 169.05 C 191.76 166.50 192.38 163.90 192.13 161.25 C 190.48 167.87 186.36 173.31 181.49 177.91 C 180.97 177.73 179.93 177.37 179.41 177.19 C 179.88 176.13 180.37 175.08 180.88 174.05 C 185.76 170.21 186.83 163.41 191.88 159.84 C 192.86 159.06 193.84 158.28 194.83 157.51 C 193.87 157.02 192.92 156.54 191.97 156.05 C 193.20 154.20 194.28 152.25 195.44 150.36 Z" />
<path fill="#373737" opacity="1.00" d=" M 38.98 163.10 C 39.61 157.90 41.88 153.12 44.43 148.61 C 44.43 149.19 44.44 150.37 44.44 150.95 C 42.74 155.06 40.85 159.07 38.98 163.10 Z" />
<path fill="#666666" opacity="1.00" d=" M 96.93 162.94 C 94.50 158.57 95.09 152.79 97.80 148.67 C 96.47 153.32 95.87 158.17 96.93 162.94 Z" />
<path fill="#1d1d1d" opacity="1.00" d=" M 121.46 151.98 C 124.06 153.74 123.29 157.33 123.72 160.01 C 120.37 159.48 121.95 154.52 121.46 151.98 Z" />
<path fill="#555555" opacity="1.00" d=" M 36.48 157.63 C 36.86 156.53 37.31 155.45 37.76 154.37 C 38.06 155.05 38.66 156.42 38.96 157.11 C 37.87 160.38 36.74 163.65 35.93 167.01 C 35.53 168.66 35.06 170.30 34.44 171.89 C 34.19 171.46 33.69 170.62 33.44 170.19 C 34.82 166.11 36.54 162.02 36.48 157.63 Z" />
<path fill="#1e1e1e" opacity="1.00" d=" M 152.40 154.82 C 153.01 158.72 152.76 162.88 154.78 166.42 C 155.26 165.75 156.20 164.40 156.68 163.73 C 156.26 166.74 155.20 169.60 154.25 172.47 C 153.90 172.35 153.19 172.11 152.84 171.99 C 152.69 166.27 152.67 160.54 152.40 154.82 Z" />
<path fill="#bfbfbf" opacity="1.00" d=" M 186.69 162.48 C 187.36 159.62 188.73 156.57 191.97 156.05 C 192.92 156.54 193.87 157.02 194.83 157.51 C 193.84 158.28 192.86 159.06 191.88 159.84 C 191.47 159.41 191.07 158.98 190.68 158.56 C 189.40 159.91 188.08 161.23 186.69 162.48 Z" />
<path fill="#c6c6c6" opacity="1.00" d=" M 47.85 157.19 C 48.60 157.24 50.11 157.36 50.86 157.42 C 50.26 159.20 49.48 160.93 48.37 162.46 C 48.48 163.14 48.59 163.82 48.71 164.50 C 48.25 164.38 47.35 164.15 46.90 164.03 C 46.78 165.70 46.65 167.38 46.48 169.05 C 43.34 166.37 49.79 161.76 45.40 160.16 C 46.06 159.48 46.80 158.86 47.35 158.08 L 47.85 157.19 Z" />
<path fill="#1f1f1f" opacity="1.00" d=" M 135.20 169.71 C 135.72 165.54 135.69 161.21 137.18 157.24 C 139.82 162.24 137.26 167.72 137.34 172.98 C 137.09 176.61 137.95 180.40 136.66 183.91 C 134.25 179.57 135.48 174.44 135.20 169.71 Z" />
<path fill="#bdbdbd" opacity="1.00" d=" M 36.48 157.63 C 36.54 162.02 34.82 166.11 33.44 170.19 C 33.33 170.00 33.10 169.61 32.99 169.42 C 33.39 165.30 35.18 161.51 36.48 157.63 Z" />
<path fill="#8d8d8d" opacity="1.00" d=" M 42.11 161.85 C 41.74 160.18 42.73 158.73 44.27 158.14 C 44.14 159.51 44.08 161.16 42.76 161.96 L 42.11 161.85 Z" />
<path fill="#090909" opacity="1.00" d=" M 121.00 162.84 C 123.34 161.77 125.55 160.48 127.75 159.15 C 128.08 162.32 123.52 164.74 121.00 162.84 Z" />
<path fill="#ffffff" opacity="1.00" d=" M 58.04 177.00 C 62.01 170.89 66.29 164.83 72.02 160.22 C 73.23 164.31 74.57 168.44 77.22 171.87 C 78.48 174.97 78.69 178.34 78.82 181.64 C 79.69 180.53 80.57 179.44 81.46 178.35 C 84.57 181.96 87.97 185.30 91.41 188.60 C 93.15 190.31 95.86 190.05 97.91 191.24 C 101.48 193.22 104.98 195.55 109.13 196.06 C 102.41 209.05 98.68 223.44 97.63 238.00 L 28.52 238.00 C 32.83 225.81 37.02 213.52 42.95 202.00 C 47.30 193.27 52.76 185.17 58.04 177.00 Z" />
<path fill="#010101" opacity="1.00" d=" M 131.57 168.91 C 131.30 165.82 130.50 162.41 132.08 159.54 C 133.03 162.47 134.69 166.78 131.57 168.91 Z" />
<path fill="#8d8d8d" opacity="1.00" d=" M 38.37 168.59 C 39.53 166.30 40.90 164.12 42.11 161.85 C 41.19 165.17 39.84 168.37 37.80 171.17 C 37.95 170.52 38.23 169.23 38.37 168.59 Z" />
<path fill="#e0e0e0" opacity="1.00" d=" M 42.11 161.85 L 42.76 161.96 L 44.14 162.21 C 42.73 167.35 38.71 171.84 38.75 177.28 C 39.03 179.36 38.83 181.45 38.08 183.42 C 37.94 182.62 37.66 181.01 37.53 180.20 C 37.36 180.44 37.04 180.91 36.88 181.15 C 35.93 180.91 34.99 180.67 34.05 180.44 C 35.53 177.60 36.47 174.54 37.61 171.57 C 37.66 171.47 37.76 171.27 37.80 171.17 C 39.84 168.37 41.19 165.17 42.11 161.85 Z" />
<path fill="#555555" opacity="1.00" d=" M 44.14 162.21 C 45.28 162.92 44.43 164.33 44.20 165.29 C 42.60 169.38 40.62 173.31 38.75 177.28 C 38.71 171.84 42.73 167.35 44.14 162.21 Z" />
<path fill="#9f9f9f" opacity="1.00" d=" M 38.98 163.10 C 35.77 163.72 39.71 166.32 38.98 163.10 Z" />
<path fill="#686868" opacity="1.00" d=" M 161.66 162.91 C 161.88 163.35 162.32 164.24 162.55 164.68 C 162.63 164.62 162.80 164.48 162.89 164.42 C 163.37 164.04 164.34 163.28 164.82 162.90 C 164.49 167.39 161.31 171.15 161.30 175.77 C 160.95 175.17 160.60 174.57 160.25 173.97 C 160.60 171.81 160.84 169.64 161.01 167.46 C 161.29 167.45 161.86 167.42 162.14 167.40 C 161.55 167.40 160.39 167.39 159.80 167.39 C 160.44 165.90 161.10 164.42 161.66 162.91 Z" />
<path fill="#1d1d1d" opacity="1.00" d=" M 118.86 167.85 C 122.19 167.02 125.87 166.66 129.14 167.87 C 129.37 172.56 129.62 177.38 129.22 182.09 C 128.79 182.22 127.92 182.48 127.49 182.62 C 125.71 178.28 127.63 173.67 127.68 169.21 C 124.50 168.89 121.28 169.14 118.45 170.71 C 118.58 169.76 118.72 168.80 118.86 167.85 Z" />
<path fill="#c9c9c9" opacity="1.00" d=" M 41.94 175.20 C 42.38 173.22 42.57 171.02 43.98 169.44 C 46.71 170.91 43.51 174.04 41.94 175.20 Z" />
<path fill="#828282" opacity="1.00" d=" M 134.66 183.31 C 134.65 178.79 133.99 174.13 135.20 169.71 C 135.48 174.44 134.25 179.57 136.66 183.91 L 136.86 184.36 C 136.31 184.10 135.21 183.58 134.66 183.31 Z" />
<path fill="#eeeeee" opacity="1.00" d=" M 31.49 170.02 C 32.16 170.73 32.83 171.46 33.48 172.19 C 32.46 174.45 31.75 176.82 31.06 179.19 C 30.74 179.63 30.10 180.49 29.78 180.92 C 29.62 178.56 29.51 176.19 29.61 173.82 C 30.20 172.53 30.82 171.26 31.49 170.02 Z" />
<path fill="#b7b7b7" opacity="1.00" d=" M 37.61 171.57 C 37.66 171.47 37.76 171.27 37.80 171.17 C 37.76 171.27 37.66 171.47 37.61 171.57 Z" />
<path fill="#555555" opacity="1.00" d=" M 77.22 171.87 C 78.18 173.34 78.91 174.94 79.64 176.54 C 80.25 177.13 80.87 177.73 81.46 178.35 C 80.57 179.44 79.69 180.53 78.82 181.64 C 78.69 178.34 78.48 174.97 77.22 171.87 Z" />
<path fill="#090909" opacity="1.00" d=" M 113.54 173.71 C 116.01 174.68 118.67 174.69 121.29 174.76 C 121.30 175.65 121.32 176.54 121.34 177.44 C 118.56 177.68 115.85 177.06 113.23 176.18 C 113.33 175.36 113.43 174.53 113.54 173.71 Z" />
<path fill="#8a8a8a" opacity="1.00" d=" M 28.28 182.94 C 28.87 179.91 27.89 176.60 29.61 173.82 C 29.51 176.19 29.62 178.56 29.78 180.92 C 30.10 180.49 30.74 179.63 31.06 179.19 L 31.52 178.55 C 28.57 183.11 28.37 188.81 25.32 193.33 C 26.18 189.83 27.58 186.48 28.28 182.94 Z" />
<path fill="#8d8d8d" opacity="1.00" d=" M 157.20 180.73 C 158.08 179.19 158.96 177.65 159.87 176.12 C 159.74 178.43 158.86 180.53 157.29 182.23 C 153.46 182.25 149.54 184.89 145.89 182.59 C 149.68 182.15 153.49 181.70 157.20 180.73 Z" />
<path fill="#4a4a4a" opacity="1.00" d=" M 167.09 184.16 C 168.88 181.40 171.00 178.77 173.81 176.97 C 173.49 180.48 170.33 183.24 167.09 184.16 Z" />
<path fill="#1f1f1f" opacity="1.00" d=" M 111.66 179.61 C 114.81 179.15 118.09 180.55 119.73 183.31 C 116.83 183.72 114.38 181.97 111.80 180.98 C 111.76 180.64 111.69 179.95 111.66 179.61 Z" />
<path fill="#050505" opacity="1.00" d=" M 36.88 181.15 C 37.04 180.91 37.36 180.44 37.53 180.20 C 37.66 181.01 37.94 182.62 38.08 183.42 C 37.19 186.60 36.36 189.79 35.70 193.03 C 35.54 192.09 35.22 190.20 35.06 189.26 C 33.69 190.59 32.61 192.18 31.84 193.93 C 30.98 195.60 30.10 197.26 29.12 198.87 L 29.25 197.77 C 31.36 192.05 33.20 186.10 36.88 181.15 Z" />
<path fill="#090909" opacity="1.00" d=" M 169.17 188.02 C 171.18 185.05 173.37 182.11 176.40 180.10 C 176.83 184.39 172.11 186.06 169.17 188.02 Z" />
<path fill="#323232" opacity="1.00" d=" M 160.15 193.01 C 163.11 190.66 164.50 186.66 168.10 185.15 C 167.33 189.19 163.50 191.31 160.15 193.01 Z" />
<path fill="#4a4a4a" opacity="1.00" d=" M 168.49 190.14 C 171.91 189.65 166.73 194.55 166.00 192.25 C 166.48 191.17 167.31 190.47 168.49 190.14 Z" />
<path fill="#e0e0e0" opacity="1.00" d=" M 163.39 193.94 C 163.73 193.62 164.43 192.97 164.77 192.65 C 165.16 193.23 165.93 194.39 166.32 194.97 C 164.95 196.15 163.76 197.53 162.66 198.96 C 166.19 197.68 169.20 195.40 172.23 193.25 C 170.78 198.69 163.81 198.66 161.10 203.15 C 160.49 202.89 159.89 202.63 159.28 202.38 C 157.38 203.28 155.46 204.16 153.48 204.86 C 152.40 203.63 151.32 202.41 150.24 201.18 C 150.57 200.88 151.23 200.27 151.56 199.97 C 153.35 201.90 157.72 198.40 154.20 197.58 C 156.16 196.32 158.54 196.41 160.77 196.34 C 160.74 196.84 160.70 197.83 160.68 198.33 C 157.96 198.96 155.74 200.64 154.00 202.77 C 156.58 202.08 159.04 201.02 161.40 199.78 C 161.35 199.07 161.23 197.65 161.18 196.94 C 161.91 195.94 162.65 194.94 163.39 193.94 Z" />
<path fill="#080808" opacity="1.00" d=" M 160.77 196.34 C 161.61 195.51 162.50 194.73 163.39 193.94 C 162.65 194.94 161.91 195.94 161.18 196.94 C 161.23 197.65 161.35 199.07 161.40 199.78 C 159.04 201.02 156.58 202.08 154.00 202.77 C 155.74 200.64 157.96 198.96 160.68 198.33 C 160.70 197.83 160.74 196.84 160.77 196.34 Z" />
<path fill="#c5c5c5" opacity="1.00" d=" M 29.12 198.87 C 30.10 197.26 30.98 195.60 31.84 193.93 C 34.11 197.49 31.23 201.14 30.01 204.50 C 29.65 203.93 28.93 202.78 28.56 202.21 C 27.73 203.62 26.90 205.03 26.02 206.41 C 25.51 203.07 27.29 200.27 29.25 197.77 L 29.12 198.87 Z" />
<path fill="#b0b0b0" opacity="1.00" d=" M 24.10 195.80 C 24.74 195.70 26.01 195.51 26.64 195.42 C 26.21 198.15 25.28 200.76 24.07 203.24 L 24.49 202.25 C 23.85 203.13 22.67 204.83 21.42 204.04 C 21.68 201.13 22.82 198.39 24.10 195.80 Z" />
<path fill="#757575" opacity="1.00" d=" M 112.14 196.49 C 120.43 197.75 128.62 200.94 137.10 199.04 C 129.12 202.51 120.94 198.14 112.92 197.41 C 112.07 199.96 111.04 202.45 110.00 204.93 C 110.68 202.11 111.38 199.29 112.14 196.49 Z" />
<path fill="#8d8d8d" opacity="1.00" d=" M 151.56 199.97 C 152.34 199.05 153.22 198.25 154.20 197.58 C 157.72 198.40 153.35 201.90 151.56 199.97 Z" />
<path fill="#dcdcdc" opacity="1.00" d=" M 148.18 203.06 C 151.63 202.19 148.08 207.12 147.22 204.22 C 147.46 203.93 147.94 203.35 148.18 203.06 Z" />
<path fill="#e0e0e0" opacity="1.00" d=" M 20.93 204.80 C 21.65 204.93 22.23 205.39 22.67 206.20 C 22.66 206.67 22.65 207.63 22.64 208.10 C 22.15 212.98 18.08 216.24 16.66 220.77 C 17.80 219.79 18.93 218.81 20.07 217.84 C 19.61 219.93 19.07 222.01 18.27 224.01 C 17.25 225.64 16.19 227.26 15.13 228.88 C 14.64 228.99 13.67 229.21 13.18 229.32 C 16.38 221.35 18.16 212.91 20.93 204.80 Z" />
<path fill="#959595" opacity="1.00" d=" M 138.67 208.44 C 140.33 206.89 142.46 206.08 144.58 205.36 C 144.73 206.59 144.90 207.83 145.08 209.07 C 147.17 209.13 149.26 209.02 151.35 208.98 C 150.78 209.49 149.65 210.51 149.08 211.02 C 149.47 211.52 150.25 212.53 150.64 213.03 C 149.82 212.28 148.98 211.52 148.12 210.82 C 146.36 209.93 144.59 209.04 142.86 208.09 C 141.48 208.37 140.08 208.61 138.67 208.44 Z" />
<path fill="#bdbdbd" opacity="1.00" d=" M 22.25 215.76 C 22.91 212.60 22.79 208.41 25.88 206.56 C 25.96 209.55 25.45 212.51 24.25 215.26 C 23.75 215.38 22.75 215.64 22.25 215.76 Z" />
<path fill="#010101" opacity="1.00" d=" M 138.22 211.74 C 140.09 212.07 141.96 212.30 143.84 212.54 C 141.57 212.70 139.31 212.84 137.04 213.04 C 137.33 213.49 137.89 214.39 138.17 214.84 C 137.41 214.88 135.91 214.98 135.16 215.02 C 135.04 214.27 134.93 213.52 134.81 212.78 C 134.02 213.28 132.42 214.29 131.62 214.79 C 131.99 212.38 133.89 211.21 135.94 212.74 C 136.51 212.49 137.65 211.99 138.22 211.74 Z" />
<path fill="#010101" opacity="1.00" d=" M 133.47 214.50 C 134.02 215.33 134.58 216.16 135.14 216.99 C 133.69 217.54 132.20 217.97 130.67 218.26 C 130.69 216.43 132.21 215.51 133.47 214.50 Z" />
<path fill="#7f7f7f" opacity="1.00" d=" M 140.31 216.59 C 141.08 215.29 142.26 214.71 143.86 214.84 C 143.57 216.38 141.69 218.18 140.31 216.59 Z" />
<path fill="#f5f5f5" opacity="1.00" d=" M 10.16 218.31 C 10.60 219.28 11.42 220.24 11.13 221.38 C 10.31 227.00 9.11 232.58 7.40 238.00 L 6.23 238.00 C 5.37 231.03 9.88 225.11 10.16 218.31 Z" />
<path fill="#d0d0d0" opacity="1.00" d=" M 126.32 218.40 C 128.11 218.60 126.83 222.19 125.28 221.56 C 124.58 220.52 125.25 218.90 126.32 218.40 Z" />
<path fill="#4a4a4a" opacity="1.00" d=" M 19.23 232.95 C 19.36 228.56 21.33 224.61 23.67 221.01 C 23.46 225.36 21.40 229.27 19.23 232.95 Z" />
<path fill="#090909" opacity="1.00" d=" M 127.49 222.89 C 129.16 222.27 129.71 222.77 129.14 224.38 C 127.49 224.98 126.94 224.48 127.49 222.89 Z" />
<path fill="#4a4a4a" opacity="1.00" d=" M 15.13 228.88 C 16.19 227.26 17.25 225.64 18.27 224.01 C 16.90 228.05 15.46 232.16 12.65 235.46 C 13.19 233.17 13.95 230.92 15.13 228.88 Z" />
<path fill="#373737" opacity="1.00" d=" M 15.49 234.36 C 17.01 234.79 15.99 237.13 15.35 238.00 L 13.10 238.00 C 13.81 236.76 14.18 235.12 15.49 234.36 Z" />
<path fill="#fcfcfc" opacity="1.00" d=" M 126.67 237.00 C 129.07 235.98 131.71 234.40 134.34 235.65 C 133.13 236.46 131.91 237.26 130.65 238.00 L 129.56 238.00 C 128.84 237.75 127.39 237.25 126.67 237.00 Z" />
</svg>
