<?xml version="1.0" encoding="utf-8"?>
<!-- Generator: Adobe Illustrator 15.0.2, SVG Export Plug-In . SVG Version: 6.00 Build 0)  -->
<!DOCTYPE svg PUBLIC "-//W3C//DTD SVG 1.1//EN" "http://www.w3.org/Graphics/SVG/1.1/DTD/svg11.dtd">
<svg version="1.1" id="Layer_1" xmlns="http://www.w3.org/2000/svg" xmlns:xlink="http://www.w3.org/1999/xlink" x="0px" y="0px"
	 width="185px" height="200px" viewBox="0 0 185 200" enable-background="new 0 0 185 200" xml:space="preserve">
<path fill="#FEFEFE" d="M0,0h78.8c-1.92,1.45-4.01,2.65-6.29,3.44c-4.6,1.67-8.91,4.1-13.67,5.35c0.32-0.52,0.97-1.55,1.29-2.07
	c-0.42-1.27-0.85-2.54-1.29-3.8c-6.58,5.29-12.33,11.66-19.59,16.05c-4.26,1.62-8.56,3.28-12.2,6.1
	c-6.42,4.89-13.7,8.73-19.28,14.67C5.34,42.2,2.41,44.1,0,46.58V0z"/>
<path fill="#010101" d="M78.8,0h4.72c-1.05,4.52-5.14,7.21-7.54,10.95c7.53,0.34,14.66-2.59,22.03-3.61
	c4.85-1.16,9.86-0.83,14.78-0.6c2.47,0.81,5.38,0.83,7.19,2.96c2.949-0.44,5.93-0.94,8.92-0.57c-1.601,0.82-3.391,1.08-5.141,1.38
	c0.19,0.49,0.59,1.48,0.79,1.97c5.66,4.23,11.601,8.3,16.101,13.83c3.39,4.84,6.59,9.96,11.14,13.82
	c-0.771,0.51-1.54,1.02-2.31,1.54l3.699-0.97l-1.9,2.62c0.701-0.68,1.41-1.35,2.121-2.02c0.34,1.57,0.67,3.15,0.99,4.73
	c0.869,0.939,1.729,1.89,2.59,2.85c-0.09,5.26,2.42,9.99,3.459,15.03c2.181,3.97,5.351,7.31,7.23,11.44
	c0.85,1.4,2.17,2.42,3.29,3.59c0.03,1.57,0.06,3.15,0.101,4.72c5.85,6.13,6.189,15.34,5.939,23.33c0.311,6.72-0.13,13.5,1.24,20.119
	c-1.57,7.25-0.7,14.69-0.961,22.041c0.391,0.319,1.181,0.979,1.57,1.3c-0.09,3.5-0.279,7.03,0.25,10.5
	c1.101-3.97-1.129-8.841,1.73-12.21c0.279,3.979,0.17,7.97,0.17,11.949c-0.391,0.451-1.16,1.351-1.55,1.801
	c-0.06,4.65-2.271,8.91-5.11,12.47c-2.41,8.62-6.64,16.64-9.76,25.04h-2.301c0.891-1.641,1.671-3.35,2.421-5.061
	c-0.261-0.379-0.78-1.149-1.04-1.529c5.02-5.49,3.82-14.09,8.35-19.76c0.73-3.61,1.66-7.291,4.68-9.67
	c1.131-8.061-1.34-15.95-0.859-23.99c-0.15-7.23,0.48-14.53-0.721-21.69c-1.18-3-2.01-6.06-1.979-9.31
	c-1.59-6.141-2.601-12.57-5.69-18.2c-1.02-1.61-1.209-3.5-1.479-5.34c-1.95-5.97-3.88-12-6.181-17.88
	c-3.17-7.49-10.359-12.82-12.229-20.87c0.47-0.13,1.39-0.39,1.851-0.52c1.939,3.88,3.5,8.11,6.75,11.13
	c-0.18-2.23-0.41-4.46-0.59-6.69c-0.551-0.28-1.641-0.83-2.19-1.11c-0.07-0.52-0.21-1.54-0.29-2.06c-1.471-1.55-3.02-3.02-4.76-4.27
	c-0.16-1.58-0.33-3.17-0.561-4.75c-0.56,2.41-0.67,4.9-1.17,7.32c-1.34-3.82-1.939-7.9-3.779-11.54c-1.021-2.04-3.211-2.95-4.98-4.2
	c0.75-0.229,2.26-0.7,3.01-0.93c-4.91-6.46-11.49-11.38-18.24-15.76c-2.609,2.43-5.22,4.91-8.27,6.81
	c2.46,0.44,4.99,0.77,7.279,1.83c-0.199,0.3-0.6,0.9-0.789,1.2c-3.49,0.35-6.971-1.68-10.41-0.6c-2.16,1.6-3.37,4.2-4.53,6.56
	c-0.601,3.75-0.14,7.59-0.33,11.38c-2.37,3.59-5.06,6.93-7.819,10.22c-2.49,5.16-3.101,10.97-2.881,16.63
	c-1.369,0.47-2.729,0.93-4.1,1.41c-1.74-0.04-3.48-0.21-5.16-0.69c1.12-0.51,2.21-1.09,3.27-1.72c0.57-4.26-4.24-6.09-4-10.22
	c0.38-6.9,3.59-13.03,5.96-19.36c1.71-3.73,0.64-7.9,1.65-11.78c1.36,1.02,2.959,1.85,4.73,1.31c1.01-1.77,1.69-3.7,2.46-5.58
	c-4.83,0.29-9.68-0.3-14.21-2.06c-4.59-0.91-9.37-0.47-14.03-0.22c0.92,0.09,2.75,0.26,3.67,0.35c0.42,0.55,1.25,1.66,1.67,2.22
	c-4.32,3.15-9.74-1.68-14.33,1.32c-1.79,3.04-2.82,6.47-4.57,9.55c5.53-1.89,11.23-3.47,16.22-6.63c3.07-1.29,4.95-4.2,7.82-5.78
	c1.39,0.811,2.31,2.97,0.72,4.07c-3.91,4.07-8.86,6.91-14.12,8.85c-3.61,1.93-7.56,2.94-11.57,3.64c-2.15,4.1-4.42,8.14-6.96,12.02
	c2.74,0.72,5.5,1.39,8.33,1.67c1.46,1.2,2.92,2.4,4.38,3.59c-2.26,2.14-5.36,2.56-8.35,2.34c3.3,3.09,5.52,7.14,9.08,9.99
	c2.77,2.22,5.1,4.9,7.39,7.59c0.73,0.14,2.2,0.4,2.93,0.53c-0.86,2.35-3.69,1.29-5.56,1.73c1.05,2.63,3.35,4.16,5.72,5.49
	c-1.73,0.24-3.46,0.44-5.19,0.6c-1.85-3.63-2.09-8.15-5.18-11.07c-5.3-3.13-11.42-6.229-17.71-4.45
	c-6.05,3.19-12.98,6.48-15.96,13.08c-0.04,1.4-0.08,2.79-0.13,4.18c-2.23,2.29-2.15,5.43-1.95,8.41c2.63-1.06,5.43-1.54,8.21-1.98
	c1.6-0.9,2.72-2.46,3.93-3.81c-0.49-1.37-1.2-2.65-1.8-3.97c-2.46-0.13-5.03-0.01-7.33-1.03l0.07-1.35c3-0.16,5.99,0.26,8.98,0.4
	c0.65,1.13,1.32,2.27,2,3.38c1.05,3.68-1.85,6.03-4.05,8.45c-2.62,0.12-5.31,0.27-7.63,1.64c0.15,1.8,0.26,3.63,0.99,5.31
	c0.18,2.57,0.33,5.14,0.65,7.7c2.51,2.44,4.82,5.3,8.16,6.62c4.27,0.48,8.6,0.11,12.89,0.16c2.3-2.41,4.6-4.83,7.2-6.91
	c3.59-2.66,4.74-7.29,7.98-10.28c2.7-2.48,3.87-6.02,5.52-9.2c0.69-2.85,1.28-5.74,1.38-8.68c-0.7-0.29-2.11-0.86-2.81-1.15
	c1.36-0.85,2.84-1.37,4.45-1.561c0.24,2.82,0.23,5.65,0.14,8.47c-1.67,4.84-3.23,10.09-7.13,13.65c-2.95,2.9-4.13,7.17-7.44,9.75
	c-3.08,2.51-5.36,6.08-8.99,7.85c-4.62,0.181-9.28,0.24-13.89-0.049c-3.31-1.281-5.83-3.921-8.25-6.421
	c-2.4-2.35-1.49-6.12-1.68-9.12c-0.26-0.38-0.78-1.14-1.04-1.51c0.01-1.33,0.01-2.66,0-3.99c-4.07-2.31-3.21-8.69-0.57-11.88
	c0.05-1.46,0.1-2.93,0.17-4.39c1-1.09,1.5-2.43,1.64-3.89c3.09-2.73,6.88-4.56,9.69-7.6c0.67-0.02,2-0.06,2.67-0.08
	c0.63-0.84,1.29-1.66,1.99-2.45c3.47-0.24,6.95-0.04,10.43-0.1c2.3,1.01,4.58,2.04,6.85,3.12c-4.72-4.79-8.05-11.25-14.24-14.35
	c-4.11,2.97-6.19,9.48-12.04,9.81c-1.97-1.45-3.41-3.46-4.92-5.35c-2.04,4.91-7.43,7.65-8.54,13c-0.91,5.08-2.71,9.91-4.01,14.88
	c-1.69,5.37-5.76,9.56-7.59,14.86c-0.76,2.41-2.16,4.7-2.23,7.28c0.1,7.931-0.91,15.82-0.39,23.75c4.83,4.69,2.16,12.24,5.31,17.7
	c1.61,3.07,1.75,6.62,2.99,9.83c1.77,4.76,2.75,9.82,2.84,14.9c0.5,0.129,1.51,0.379,2.01,0.5c0.36,0.779,0.73,1.549,1.1,2.319
	c4.68,1.74,3.94,8.351,8.18,10.59c6.08,3.82,12.78,6.521,19.01,10.101c-0.16,0.949-0.32,1.899-0.48,2.85
	c-6.27-4.641-13.78-7.061-20.19-11.42c-3.44-1.82-3.56-6.21-6.06-8.86c-1.28-1.36-2.61-2.68-3.85-4.09
	c0.28,3.38,0.44,6.8,1.41,10.07c0.68,5.39,3.71,9.89,5.71,14.8h-1.62c-5.06-7.609-7.05-16.891-7.02-25.92
	c0.03-1.34-1.7-1.66-2.44-2.51c-1.65-5.33-4.4-10.271-7.88-14.62c-0.22-3.03-0.5-6.05-0.82-9.07c-0.36-0.521-1.07-1.55-1.43-2.06
	c0.3-4-0.2-7.95-1.48-11.74c-0.3-12.37-0.05-24.76-0.09-37.14c0.3-2.47-1.99-4.09-2.39-6.4V78.87l0.75,3.49
	c0.23-0.21,0.68-0.62,0.9-0.83c0.17-2.44,0.58-4.85,0.89-7.271c-1.09,1.28-1.6,2.771-1.51,4.45C0.77,78.72,0.26,78.73,0,78.74V62.46
	c0.09-2.5,2.26-4.04,3.34-6.1c2.33-4.54,6-8.34,7.37-13.35C6.79,44.98,3.4,47.8,0,50.53v-3.95c2.41-2.48,5.34-4.38,7.77-6.84
	c5.58-5.94,12.86-9.78,19.28-14.67c3.64-2.82,7.94-4.48,12.2-6.1c7.26-4.39,13.01-10.76,19.59-16.05c0.44,1.26,0.87,2.53,1.29,3.8
	c-0.32,0.521-0.97,1.55-1.29,2.07c4.76-1.25,9.07-3.68,13.67-5.35C74.79,2.65,76.88,1.45,78.8,0 M66.36,9.87
	c-0.09,0.57-0.27,1.72-0.36,2.3c3.35-1.94,7.06-3.42,9.78-6.28C72.56,6.99,69.29,8.1,66.36,9.87 M81.27,12.45
	c-4.07,0.22-8.2,1.3-11.56,3.68c6.66,0.6,13.69-1.18,20,1.59c3.33,1.07,6.87,0.99,10.319,1.04c0.23-1.08,0.461-2.17,0.681-3.25
	c1.99-2.11,1.75-5.2,3.479-7.45C96.43,8.85,88.94,11.14,81.27,12.45 M105.45,8.07c0.25,3.49,0.14,6.99,0.149,10.49
	c1.11,0.24,2.23,0.46,3.36,0.67c0.69-0.93,1.39-1.87,2.101-2.8c0.049-0.42,0.17-1.28,0.219-1.7c2.371-1.49,4.561-3.24,6.521-5.22
	C113.721,8.67,109.66,7.76,105.45,8.07 M112.13,18.97c3.149-2.16,6.56-4.189,8.62-7.53C117.061,12.44,113.74,15.51,112.13,18.97
	 M42.26,23.97c2.59-1.09,4.58-3.1,5.95-5.53C45.64,19.61,43.16,21.12,42.26,23.97 M101.859,20.62c-0.819,2.87-2.43,5.57-2.369,8.63
	c1.38-0.86,2.75-1.76,4.109-2.65c-0.02-1.96-0.02-3.92-0.02-5.88C103.15,20.7,102.29,20.65,101.859,20.62 M105.58,20.52
	c0,1.22,0.01,2.44,0.029,3.66c0.721-1.05,1.431-2.12,2.15-3.17C107.029,20.85,106.311,20.68,105.58,20.52 M93.76,36.88
	c0.95-1.09,1.87-2.22,2.77-3.35c0-1.98,0.031-3.95-0.02-5.93C95.1,30.52,94.13,33.66,93.76,36.88 M98.529,35.97
	c-0.239,3.24-1.199,6.38-1.369,9.63c1.689-5.36,4.41-10.34,5.73-15.82C100.689,31.09,98.67,33.31,98.529,35.97 M100.29,43.46
	c-0.261,0.53-0.771,1.59-1.03,2.12c1.11-1.14,1.91-2.5,2.52-3.96c2.181-1.47,2.031-3.94,1.701-6.27
	C102.359,38.03,101.18,40.69,100.29,43.46 M39.86,44.03c-0.71,0.82,0.44,1.25,0.98,1.63c1.05-1.93,2.17-3.81,3.15-5.77
	C42.06,40.61,40.79,42.26,39.86,44.03 M87.29,54.97c3.35-2.96,3.23-7.95,4.18-12.01C89.44,46.69,87.99,50.81,87.29,54.97
	 M36.55,48.05c-1.32,1.79-2.81,3.44-4.38,5.01c1.25,1.91,2.21,4.37,4.43,5.37c-0.84-3.47,1.54-6.43,2.66-9.52
	C38.35,48.62,37.45,48.33,36.55,48.05 M48.52,50.4c1.79,1.1,4.09,1,5.64,2.54c1.14,1.11,2.86,0.54,4.29,0.7
	c-0.05-0.45-0.14-1.33-0.19-1.77C54.96,51.69,51.85,50.35,48.52,50.4 M91.85,51.55c-1.18,2.43-1.83,5.61-4.47,6.88
	c1.57,1.47,3.38,2.94,3.48,5.3C92.1,59.78,91.94,55.64,91.85,51.55 M163.46,71.99c0.94,2.49,2.08,4.9,3.08,7.36
	c0.13,2.06,0.64,4.01,1.67,5.81c0.89-1.69,1.261-3.55,1.19-5.45c-2.08-1.7-4.131-3.69-4.391-6.52
	C164.49,72.79,163.98,72.39,163.46,71.99 M168.061,86.07c0.26,1.77,1.16,3.33,2,4.87c2.689,5.24,3.289,11.201,5.199,16.68
	c0.62-8.02-0.26-16.65-5.279-23.25C169.34,84.94,168.7,85.51,168.061,86.07 M3.98,107.78c0.13,7.409,0.14,14.829,0.12,22.25
	c0.03,2.55-0.18,5.38,1.41,7.56c0.06,3.5-0.49,7.221,1.56,10.311c0.42,2.67,0.51,5.369,0.56,8.06c3.22,3.7,5.38,8.13,7.55,12.49
	c0.04,0.6,0.11,1.81,0.14,2.409c0.24-0.229,0.71-0.67,0.95-0.899c-0.81-6.16-3.63-11.78-4.63-17.89
	c-0.8-2.471-2.56-4.601-2.68-7.271c-0.69-4.42-0.17-9.8-3.81-13.069c-0.4-8.08,0.39-16.121,0.39-24.181
	C5.15,107.609,4.37,107.72,3.98,107.78z"/>
<path fill="#FEFEFE" d="M83.52,0H185v200h-20.42c3.12-8.4,7.35-16.42,9.76-25.04c2.84-3.56,5.051-7.819,5.11-12.47
	c0.39-0.45,1.159-1.35,1.55-1.801c0-3.979,0.109-7.97-0.17-11.949c-2.859,3.369-0.63,8.24-1.73,12.21c-0.529-3.47-0.34-7-0.25-10.5
	c-0.39-0.32-1.18-0.98-1.57-1.3c0.261-7.351-0.609-14.791,0.961-22.041c-1.37-6.619-0.93-13.399-1.24-20.119
	c0.25-7.99-0.09-17.2-5.939-23.33c-0.041-1.57-0.07-3.15-0.101-4.72c-1.12-1.17-2.44-2.19-3.29-3.59
	c-1.88-4.13-5.05-7.47-7.23-11.44c-1.039-5.04-3.549-9.77-3.459-15.03c-0.86-0.96-1.721-1.91-2.59-2.85
	c-0.32-1.58-0.65-3.16-0.99-4.73c-0.711,0.67-1.42,1.34-2.121,2.02l1.9-2.62l-3.699,0.97c0.77-0.52,1.539-1.03,2.31-1.54
	c-4.55-3.86-7.75-8.98-11.14-13.82c-4.5-5.53-10.44-9.6-16.101-13.83c-0.2-0.49-0.6-1.48-0.79-1.97c1.75-0.3,3.54-0.56,5.141-1.38
	c-2.99-0.37-5.971,0.13-8.92,0.57c-1.811-2.13-4.721-2.15-7.19-2.96c-4.92-0.23-9.931-0.56-14.78,0.6
	c-7.37,1.02-14.5,3.95-22.03,3.61C78.38,7.21,82.47,4.52,83.52,0z"/>
<path fill="#FEFEFE" d="M66.36,9.87c2.93-1.77,6.2-2.88,9.42-3.98c-2.72,2.86-6.43,4.34-9.78,6.28
	C66.09,11.59,66.27,10.44,66.36,9.87z"/>
<path fill="#FEFEFE" d="M81.27,12.45c7.67-1.31,15.16-3.6,22.919-4.39c-1.729,2.25-1.489,5.34-3.479,7.45
	c-0.22,1.08-0.45,2.17-0.681,3.25c-3.449-0.05-6.989,0.03-10.319-1.04c-6.31-2.77-13.34-0.99-20-1.59
	C73.07,13.75,77.2,12.67,81.27,12.45z"/>
<path fill="#FEFEFE" d="M105.45,8.07c4.21-0.31,8.271,0.6,12.35,1.44c-1.96,1.98-4.149,3.73-6.521,5.22
	c-0.049,0.42-0.17,1.28-0.219,1.7c-0.711,0.93-1.41,1.87-2.101,2.8c-1.13-0.21-2.25-0.43-3.36-0.67
	C105.59,15.06,105.7,11.56,105.45,8.07z"/>
<path fill="#FEFEFE" d="M112.13,18.97c1.61-3.46,4.931-6.53,8.62-7.53C118.689,14.78,115.279,16.81,112.13,18.97z"/>
<path fill="#FEFEFE" d="M114.33,20.13c3.05-1.9,5.66-4.38,8.27-6.81c6.75,4.38,13.33,9.3,18.24,15.76c-0.75,0.23-2.26,0.7-3.01,0.93
	c1.77,1.25,3.96,2.16,4.98,4.2c1.84,3.64,2.439,7.72,3.779,11.54c0.5-2.42,0.61-4.91,1.17-7.32c0.23,1.58,0.4,3.17,0.561,4.75
	c1.74,1.25,3.289,2.72,4.76,4.27c0.08,0.52,0.22,1.54,0.29,2.06c0.55,0.28,1.64,0.83,2.19,1.11c0.18,2.23,0.41,4.46,0.59,6.69
	c-3.25-3.02-4.811-7.25-6.75-11.13c-0.461,0.13-1.381,0.39-1.851,0.52c1.87,8.05,9.06,13.38,12.229,20.87
	c2.301,5.88,4.23,11.91,6.181,17.88c0.271,1.84,0.46,3.73,1.479,5.34c3.09,5.63,4.101,12.06,5.69,18.2
	c-0.03,3.25,0.8,6.31,1.979,9.31c1.201,7.16,0.57,14.46,0.721,21.69c-0.48,8.04,1.99,15.93,0.859,23.99
	c-3.02,2.379-3.949,6.06-4.68,9.67c-4.529,5.67-3.33,14.27-8.35,19.76c0.26,0.38,0.779,1.15,1.04,1.529
	c-0.75,1.711-1.53,3.42-2.421,5.061H25.17c-2-4.91-5.03-9.41-5.71-14.8c-0.97-3.271-1.13-6.69-1.41-10.07
	c1.24,1.41,2.57,2.729,3.85,4.09c2.5,2.65,2.62,7.04,6.06,8.86c6.41,4.359,13.92,6.779,20.19,11.42c0.16-0.95,0.32-1.9,0.48-2.85
	c-6.23-3.58-12.93-6.28-19.01-10.101c-4.24-2.239-3.5-8.85-8.18-10.59c-0.37-0.771-0.74-1.54-1.1-2.319
	c-0.5-0.121-1.51-0.371-2.01-0.5c-0.09-5.08-1.07-10.141-2.84-14.9c-1.24-3.21-1.38-6.76-2.99-9.83c-3.15-5.46-0.48-13.01-5.31-17.7
	c-0.52-7.93,0.49-15.819,0.39-23.75c0.07-2.58,1.47-4.87,2.23-7.28c1.83-5.3,5.9-9.49,7.59-14.86c1.3-4.97,3.1-9.8,4.01-14.88
	c1.11-5.35,6.5-8.09,8.54-13c1.51,1.89,2.95,3.9,4.92,5.35c5.85-0.33,7.93-6.84,12.04-9.81c6.19,3.1,9.52,9.56,14.24,14.35
	c-2.27-1.08-4.55-2.11-6.85-3.12c-3.48,0.06-6.96-0.14-10.43,0.1c-0.7,0.79-1.36,1.61-1.99,2.45c-0.67,0.021-2,0.06-2.67,0.08
	c-2.81,3.04-6.6,4.87-9.69,7.6c-0.14,1.46-0.64,2.8-1.64,3.89c-0.07,1.46-0.12,2.93-0.17,4.39c-2.64,3.19-3.5,9.57,0.57,11.88
	c0.01,1.33,0.01,2.66,0,3.99c0.26,0.37,0.78,1.13,1.04,1.51c0.19,3-0.72,6.77,1.68,9.12c2.42,2.5,4.94,5.14,8.25,6.421
	c4.61,0.289,9.27,0.229,13.89,0.049c3.63-1.77,5.91-5.34,8.99-7.85c3.31-2.58,4.49-6.85,7.44-9.75c3.9-3.56,5.46-8.81,7.13-13.65
	c0.09-2.82,0.1-5.65-0.14-8.47c-1.61,0.19-3.09,0.71-4.45,1.561c0.7,0.29,2.11,0.86,2.81,1.15c-0.1,2.94-0.69,5.83-1.38,8.68
	c-1.65,3.18-2.82,6.72-5.52,9.2c-3.24,2.99-4.39,7.62-7.98,10.28c-2.6,2.08-4.9,4.5-7.2,6.91c-4.29-0.05-8.62,0.32-12.89-0.16
	c-3.34-1.32-5.65-4.18-8.16-6.62c-0.32-2.56-0.47-5.13-0.65-7.7c-0.73-1.68-0.84-3.51-0.99-5.31c2.32-1.37,5.01-1.52,7.63-1.64
	c2.2-2.42,5.1-4.77,4.05-8.45c-0.68-1.11-1.35-2.25-2-3.38c-2.99-0.14-5.98-0.56-8.98-0.4l-0.07,1.35c2.3,1.02,4.87,0.9,7.33,1.03
	c0.6,1.32,1.31,2.6,1.8,3.97c-1.21,1.35-2.33,2.91-3.93,3.81c-2.78,0.44-5.58,0.92-8.21,1.98c-0.2-2.98-0.28-6.12,1.95-8.41
	c0.05-1.39,0.09-2.78,0.13-4.18c2.98-6.6,9.91-9.89,15.96-13.08c6.29-1.78,12.41,1.32,17.71,4.45c3.09,2.92,3.33,7.44,5.18,11.07
	c1.73-0.16,3.46-0.36,5.19-0.6c-2.37-1.33-4.67-2.86-5.72-5.49c1.87-0.44,4.7,0.62,5.56-1.73c-0.73-0.13-2.2-0.39-2.93-0.53
	c-2.29-2.69-4.62-5.37-7.39-7.59c-3.56-2.85-5.78-6.9-9.08-9.99c2.99,0.22,6.09-0.2,8.35-2.34c-1.46-1.19-2.92-2.39-4.38-3.59
	c-2.83-0.28-5.59-0.95-8.33-1.67c2.54-3.88,4.81-7.92,6.96-12.02c4.01-0.7,7.96-1.71,11.57-3.64c5.26-1.94,10.21-4.78,14.12-8.85
	c1.59-1.1,0.67-3.26-0.72-4.07c-2.87,1.58-4.75,4.49-7.82,5.78c-4.99,3.16-10.69,4.74-16.22,6.63c1.75-3.08,2.78-6.51,4.57-9.55
	c4.59-3,10.01,1.83,14.33-1.32c-0.42-0.56-1.25-1.67-1.67-2.22c-0.92-0.09-2.75-0.26-3.67-0.35c4.66-0.25,9.44-0.69,14.03,0.22
	c4.53,1.76,9.38,2.35,14.21,2.06c-0.77,1.88-1.45,3.811-2.46,5.58c-1.771,0.54-3.37-0.29-4.73-1.31c-1.01,3.88,0.06,8.05-1.65,11.78
	c-2.37,6.33-5.58,12.46-5.96,19.36c-0.24,4.13,4.57,5.96,4,10.22c-1.06,0.63-2.15,1.21-3.27,1.72c1.68,0.48,3.42,0.65,5.16,0.69
	c1.37-0.479,2.73-0.94,4.1-1.41c-0.22-5.66,0.391-11.47,2.881-16.63c2.76-3.29,5.449-6.63,7.819-10.22
	c0.19-3.79-0.271-7.63,0.33-11.38c1.16-2.36,2.37-4.96,4.53-6.56c3.439-1.08,6.92,0.95,10.41,0.6c0.189-0.3,0.59-0.9,0.789-1.2
	C119.32,20.9,116.79,20.57,114.33,20.13 M118.23,37.45c-1,0.5-2.01,0.99-3.021,1.46c0.34,0.94-0.649,3.33,1.069,2.94
	c1.23-0.84,2.111-2.55,3.811-2.45c3.311-0.17,6.939-0.44,9.74,1.7c3.3,1.04,3.68,5.24,6.88,6.43c0.89,1.71,1.47,3.6,2.601,5.17
	c1.25,0.82,2.649,1.36,4,1.99c1.369,4.49,4.649,7.78,7.199,11.59c0.16,1.56,0.131,3.13,0.18,4.7c1.291,1.06,2.511,2.2,3.58,3.49
	c-0.199,3.04-0.1,6.09-0.149,9.14c-1.3,1.24-2.08,2.85-2.96,4.38c-2.051,2.42-5.131,3.53-7.51,5.55c-4.25,0.07-8.5,0.03-12.74,0.04
	c-4.67,0.08-8.811-2.67-13.34-3.12c-3.041-3.09-7.391-4.56-9.82-8.29c0.26-2.14-1.54-3.38-2.79-4.77c-0.59-2-1.84-3.71-3.76-4.58
	c-0.06-2.48-0.49-5.08,0.51-7.43c1.81-5.17,4.25-10.62,8.95-13.76c3.311-3.41,6.54-7.09,10.98-9.06
	c1.209-0.14,2.409-0.32,3.619-0.52c-0.869-1.87-2.859-1.48-4.539-1.55c-4.621,2.15-8.111,5.96-11.57,9.57
	c-4.24,2.38-6.03,7.11-8.521,11.02c-0.04,0.45-0.11,1.35-0.14,1.8c-2.19,3.32-1.36,7.49-1.27,11.22
	c0.869,0.75,1.889,1.28,2.859,1.89c0.18,0.59,0.54,1.76,0.72,2.34c2.91,2.64,3.65,6.69,6.65,9.32c2.61,1.19,5.11,2.68,7.03,4.85
	c0.6,0.01,1.81,0.021,2.42,0.021c0.859,0.52,1.72,1.03,2.59,1.53c7.42,1.55,15.039,1.54,22.59,1.51
	c5.04-2.45,9.57-6.03,11.949-11.22c0.32-3.74,0.031-7.5,0.141-11.25c-1.16-1.12-2.33-2.23-3.37-3.45c-0.409-1.5-0.18-3.12-0.31-4.67
	c-1.91-1.88-2.721-4.61-4.86-6.29c-0.84-1.87-1.69-3.74-2.54-5.61c-1.41-0.65-2.82-1.28-4.24-1.88c-0.879-4.33-4.81-6.53-7.02-10.04
	c-1.801-1.62-4.109-2.62-6.301-3.6C124.439,37.26,121.33,37.49,118.23,37.45 M127.85,50.18c-0.029,3.97-0.08,7.95,0.08,11.93
	c5.12-0.04,11.68,4.37,15.75-0.58c-0.17-1.24-0.22-2.59-1.52-3.21c-0.65,1.39-1.01,3.8-3.12,3.4c-3.25,0.51-6.06-1.58-9.25-1.689
	c0.069-3.26,0.069-6.521-0.03-9.78L127.85,50.18 M93.891,97.3c-1.021-0.65-2.011-1.34-2.971-2.08c-3.09,2.07-0.15,5.3,0.63,7.83
	c-0.84-0.54-1.67-1.08-2.51-1.62c-1.05,1.101-2.18,2.131-3.44,2.99c-0.92-0.689-1.81-3.3-3.29-1.98
	c-1.76,1.19-0.63,3.761-0.97,5.561c-0.77-0.97-1.56-1.93-2.35-2.88c-3.19,2.84-2.74,7.319-2.71,11.17
	c-0.69,0.83-2.16,1.36-2.05,2.63c0.58,0.63,1.17,1.25,1.79,1.86c0.17,1.42,1.12,2.319,2.31,2.95c1.2-1.65,3.56-2.78,3.55-5.061
	c1.98,0.77,2.98-0.75,3.11-2.59c0.78,1.08,1.58,2.16,2.4,3.23c1.96-0.91,2.33-2.82,2.24-4.811c1.83,1.52,4.729,2.97,5.63-0.24
	c1.82,1.44,3.051-0.24,4.221-1.55c1.119,0.07,2.02-0.36,2.68-1.3c0.14,0.21,0.43,0.63,0.58,0.84c-6.18,2.68-10.89,7.7-16.67,11.05
	c-4.46,2.28-7.79,6.12-12.1,8.63c-5.2,5.23-13.21,2.17-19.67,3.381c-2.46,0.739-4.88,1.629-7.29,2.52c-1.3,2.87-2.76,5.84-2.55,9.09
	c0.07,4.939-0.08,9.891,0.08,14.83c4.06,5.58,7.71,11.609,10.24,18.04c1.65,1.17,2.61,2.96,3.86,4.5c1.89,1.17,3.84,2.26,5.45,3.819
	c1.77,0.031,3.53,0.041,5.3,0.07c0.73-0.899,1.45-1.8,2.2-2.68c6.33,2.189,12.34,5.29,17.66,9.37c1.66,0.899,3.51,1.37,5.18,2.28
	c2.23,0.33,4.61,0.289,6.6,1.49c6.361-0.381,13.49,2.529,19.191-1.451c3-1.979,6.709-3.119,8.84-6.199
	c1.91-2.521,4.719-4.74,5.049-8.09c0.5-0.16,1.511-0.48,2.021-0.641c1.24-2.43,1.729-5.1,2.39-7.72
	c1.971-3.75-0.029-8.19,1.771-12.021c0.72-5.149,2.5-10.14,2.28-15.39c0.18-5.05,2.88-9.569,3.1-14.59
	c0.42-3.81,3.5-6.55,4.301-10.21c0.5-3.37,2.5-6.189,4.559-8.8c0.221-1.74,0.461-3.48,0.371-5.23c-0.61-0.04-1.84-0.12-2.461-0.159
	c-3.31-2.761-7.539-3.881-11.799-3.57c-3.771-1.471-7.761-1.54-11.75-1.44c-2.861-1.45-6.361-1.18-9.41-0.63
	c-1.211,4.52-6.65,3.65-9.74,6.18c-2.28-4.68-6.15-8.2-9.45-12.11c-0.71-0.93-1.88-1.21-2.899-1.65
	C96.35,95.85,95.439,97.23,93.891,97.3z"/>
<path fill="#FEFEFE" d="M42.26,23.97c0.9-2.85,3.38-4.36,5.95-5.53C46.84,20.87,44.85,22.88,42.26,23.97z"/>
<path fill="#FEFEFE" d="M101.859,20.62c0.431,0.03,1.291,0.08,1.721,0.1c0,1.96,0,3.92,0.02,5.88c-1.359,0.89-2.729,1.79-4.109,2.65
	C99.43,26.19,101.04,23.49,101.859,20.62z"/>
<path fill="#FEFEFE" d="M105.58,20.52c0.73,0.16,1.449,0.33,2.18,0.49c-0.72,1.05-1.43,2.12-2.15,3.17
	C105.59,22.96,105.58,21.74,105.58,20.52z"/>
<path fill="#FEFEFE" d="M93.76,36.88c0.37-3.22,1.34-6.36,2.75-9.28c0.051,1.98,0.02,3.95,0.02,5.93
	C95.63,34.66,94.71,35.79,93.76,36.88z"/>
<path fill="#FEFEFE" d="M98.529,35.97c0.141-2.66,2.16-4.88,4.361-6.189c-1.32,5.479-4.041,10.46-5.73,15.82
	C97.33,42.35,98.29,39.21,98.529,35.97z"/>
<path fill="#FEFEFE" d="M100.29,43.46c0.89-2.77,2.069-5.43,3.19-8.11c0.33,2.33,0.479,4.8-1.701,6.27
	c-0.609,1.46-1.409,2.82-2.52,3.96C99.52,45.05,100.029,43.99,100.29,43.46z"/>
<path fill="#010101" d="M118.23,37.45c3.1,0.04,6.209-0.19,9.299,0.11c2.191,0.98,4.5,1.98,6.301,3.6
	c2.21,3.51,6.141,5.71,7.02,10.04c1.42,0.6,2.83,1.23,4.24,1.88c0.85,1.87,1.7,3.74,2.54,5.61c2.14,1.68,2.95,4.41,4.86,6.29
	c0.13,1.55-0.1,3.17,0.31,4.67c1.04,1.22,2.21,2.33,3.37,3.45c-0.109,3.75,0.18,7.51-0.141,11.25
	c-2.379,5.19-6.909,8.77-11.949,11.22c-7.551,0.03-15.17,0.04-22.59-1.51c-0.87-0.5-1.73-1.01-2.59-1.53
	c-0.61,0-1.82-0.01-2.42-0.021c-1.92-2.17-4.42-3.66-7.03-4.85c-3-2.63-3.74-6.68-6.65-9.32c-0.18-0.58-0.54-1.75-0.72-2.34
	c-0.971-0.61-1.99-1.14-2.859-1.89c-0.091-3.73-0.921-7.9,1.27-11.22c0.029-0.45,0.1-1.35,0.14-1.8c2.49-3.91,4.28-8.64,8.521-11.02
	c3.459-3.61,6.949-7.42,11.57-9.57c1.68,0.07,3.67-0.32,4.539,1.55c-1.21,0.2-2.41,0.38-3.619,0.52c-4.44,1.97-7.67,5.65-10.98,9.06
	c-4.7,3.14-7.141,8.59-8.95,13.76c-1,2.35-0.569,4.95-0.51,7.43c1.92,0.87,3.17,2.58,3.76,4.58c1.25,1.39,3.05,2.63,2.79,4.77
	c2.43,3.73,6.779,5.2,9.82,8.29c4.529,0.45,8.67,3.2,13.34,3.12c4.24-0.01,8.49,0.03,12.74-0.04c2.379-2.02,5.459-3.13,7.51-5.55
	c0.88-1.53,1.66-3.14,2.96-4.38c0.05-3.05-0.05-6.1,0.149-9.14c-1.069-1.29-2.289-2.43-3.58-3.49c-0.049-1.57-0.02-3.14-0.18-4.7
	c-2.55-3.811-5.83-7.1-7.199-11.59c-1.351-0.63-2.75-1.17-4-1.99c-1.131-1.57-1.711-3.46-2.601-5.17c-3.2-1.19-3.58-5.39-6.88-6.43
	c-2.801-2.14-6.43-1.87-9.74-1.7c-1.699-0.1-2.58,1.61-3.811,2.45c-1.719,0.39-0.729-2-1.069-2.94
	C116.221,38.44,117.23,37.95,118.23,37.45z"/>
<path fill="#FEFEFE" d="M39.86,44.03c0.93-1.771,2.2-3.42,4.13-4.14c-0.98,1.96-2.1,3.84-3.15,5.77
	C40.3,45.28,39.15,44.85,39.86,44.03z"/>
<path fill="#FEFEFE" d="M0,50.53c3.4-2.73,6.79-5.55,10.71-7.521c-1.37,5.01-5.04,8.81-7.37,13.35c-1.08,2.06-3.25,3.6-3.34,6.1
	V50.53z"/>
<path fill="#FEFEFE" d="M87.29,54.97c0.7-4.16,2.15-8.28,4.18-12.01C90.52,47.02,90.64,52.01,87.29,54.97z"/>
<path fill="#FEFEFE" d="M36.55,48.05c0.9,0.28,1.8,0.57,2.71,0.86c-1.12,3.09-3.5,6.05-2.66,9.52c-2.22-1-3.18-3.46-4.43-5.37
	C33.74,51.49,35.23,49.84,36.55,48.05z"/>
<path fill="#FEFEFE" d="M48.52,50.4c3.33-0.05,6.44,1.29,9.74,1.47c0.05,0.44,0.14,1.32,0.19,1.77c-1.43-0.16-3.15,0.41-4.29-0.7
	C52.61,51.4,50.31,51.5,48.52,50.4z"/>
<path fill="#010101" d="M127.85,50.18l1.91,0.07c0.1,3.26,0.1,6.52,0.03,9.78c3.19,0.11,6,2.2,9.25,1.689
	c2.11,0.4,2.47-2.01,3.12-3.4c1.3,0.62,1.35,1.97,1.52,3.21c-4.07,4.95-10.63,0.54-15.75,0.58
	C127.77,58.13,127.82,54.15,127.85,50.18z"/>
<path fill="#FEFEFE" d="M91.85,51.55c0.09,4.09,0.25,8.23-0.99,12.18c-0.1-2.36-1.91-3.83-3.48-5.3
	C90.02,57.16,90.67,53.98,91.85,51.55z"/>
<path fill="#FEFEFE" d="M163.46,71.99c0.521,0.4,1.03,0.8,1.55,1.2c0.26,2.83,2.311,4.82,4.391,6.52c0.07,1.9-0.301,3.76-1.19,5.45
	c-1.03-1.8-1.54-3.75-1.67-5.81C165.54,76.89,164.4,74.48,163.46,71.99z"/>
<path fill="#FEFEFE" d="M1.03,78.71c-0.09-1.68,0.42-3.17,1.51-4.45c-0.31,2.42-0.72,4.83-0.89,7.271c-0.22,0.21-0.67,0.62-0.9,0.83
	L0,78.87v-0.13C0.26,78.73,0.77,78.72,1.03,78.71z"/>
<path fill="#FEFEFE" d="M168.061,86.07c0.64-0.56,1.279-1.13,1.92-1.7c5.02,6.6,5.899,15.23,5.279,23.25
	c-1.91-5.479-2.51-11.44-5.199-16.68C169.221,89.4,168.32,87.84,168.061,86.07z"/>
<path fill="#FEFEFE" d="M0,90.54c0.4,2.31,2.69,3.93,2.39,6.4c0.04,12.38-0.21,24.77,0.09,37.14c1.28,3.79,1.78,7.74,1.48,11.74
	c0.36,0.51,1.07,1.539,1.43,2.06c0.32,3.021,0.6,6.04,0.82,9.07c3.48,4.35,6.23,9.29,7.88,14.62c0.74,0.85,2.47,1.17,2.44,2.51
	c-0.03,9.029,1.96,18.311,7.02,25.92H0V90.54z"/>
<path fill="#010101" d="M93.891,97.3c1.549-0.07,2.459-1.45,3.5-2.38c1.02,0.44,2.189,0.72,2.899,1.65
	c3.3,3.91,7.17,7.43,9.45,12.11c3.09-2.529,8.529-1.66,9.74-6.18c3.049-0.55,6.549-0.82,9.41,0.63c3.989-0.1,7.979-0.03,11.75,1.44
	c4.26-0.311,8.489,0.81,11.799,3.57c0.621,0.039,1.851,0.119,2.461,0.159c0.09,1.75-0.15,3.49-0.371,5.23
	c-2.059,2.61-4.059,5.43-4.559,8.8c-0.801,3.66-3.881,6.4-4.301,10.21c-0.22,5.021-2.92,9.54-3.1,14.59
	c0.22,5.25-1.561,10.24-2.28,15.39c-1.8,3.83,0.2,8.271-1.771,12.021c-0.66,2.62-1.149,5.29-2.39,7.72
	c-0.51,0.16-1.521,0.48-2.021,0.641c-0.33,3.35-3.139,5.569-5.049,8.09c-2.131,3.08-5.84,4.22-8.84,6.199
	c-5.701,3.98-12.83,1.07-19.191,1.451c-1.989-1.201-4.369-1.16-6.6-1.49c-1.67-0.91-3.52-1.381-5.18-2.28
	c-5.32-4.08-11.33-7.181-17.66-9.37c-0.75,0.88-1.47,1.78-2.2,2.68c-1.77-0.029-3.53-0.039-5.3-0.07
	c-1.61-1.56-3.56-2.649-5.45-3.819c-1.25-1.54-2.21-3.33-3.86-4.5c-2.53-6.431-6.18-12.46-10.24-18.04
	c-0.16-4.939-0.01-9.891-0.08-14.83c-0.21-3.25,1.25-6.22,2.55-9.09c2.41-0.891,4.83-1.78,7.29-2.52
	c6.46-1.211,14.47,1.85,19.67-3.381c4.31-2.51,7.64-6.35,12.1-8.63c5.78-3.35,10.491-8.37,16.67-11.05
	c-0.15-0.21-0.44-0.63-0.58-0.84c-0.66,0.939-1.561,1.37-2.68,1.3c-1.17,1.31-2.4,2.99-4.221,1.55c-0.9,3.21-3.8,1.76-5.63,0.24
	c0.09,1.99-0.28,3.9-2.24,4.811c-0.82-1.07-1.62-2.15-2.4-3.23c-0.13,1.84-1.13,3.359-3.11,2.59c0.01,2.28-2.35,3.41-3.55,5.061
	c-1.19-0.631-2.14-1.53-2.31-2.95c-0.62-0.61-1.21-1.23-1.79-1.86c-0.11-1.27,1.36-1.8,2.05-2.63c-0.03-3.851-0.48-8.33,2.71-11.17
	c0.79,0.95,1.58,1.91,2.35,2.88c0.34-1.8-0.79-4.37,0.97-5.561c1.48-1.319,2.37,1.291,3.29,1.98c1.26-0.859,2.39-1.89,3.44-2.99
	c0.84,0.54,1.67,1.08,2.51,1.62c-0.78-2.53-3.72-5.76-0.63-7.83C91.88,95.96,92.87,96.65,93.891,97.3 M120.641,105.83
	c-2.58,2.42-6.19,2.98-9.381,4.22c0.76,2.19,0.561,4.681-2.15,5.06c-1.199-0.77-2.399-1.52-3.609-2.25
	c-2.02,1.641-4.55,2.431-6.609,4.011c3.17,3.46,6.719,6.54,8.779,10.86c3.391-0.94,7.33-1.291,9.68-4.261
	c1.461-2.31,2.521-4.87,4.36-6.939c-0.17-2.87,0.78-5.841,2.24-8.181c4.59,1.12,6.7,6.931,10.97,8.57
	c2.801-1.5,5.641-3.561,7.24-6.39c1.619-0.74,3.27-1.39,4.96-1.931c-0.101,0.521-0.31,1.57-0.41,2.09
	c-2.81,1.33-4.44,4.021-6.91,5.78c-1.149,0.591-2.13,1.431-3.069,2.311c-1.57,0.03-3.15,0.1-4.711-0.021
	c-1.149-1.04-1.91-2.42-2.76-3.689c-1.82-0.86-2.789-2.7-4.43-3.801c-0.71,2.011-1.01,4.131-1.27,6.24
	c-1.301,2.1-2.67,4.17-3.791,6.381c-3.069,4.529-8.97,5.729-14.119,5.64c-1.791-4.601-5.59-7.74-8.621-11.47
	c-3.529,2.89-7.169,5.68-11.119,7.979c-4.14,1.96-6.83,5.94-11.03,7.83c-1.92,2.94-5.63,2.84-8.71,3.38c0.04,2.6,0.03,5.2,0,7.8
	c0.6,0.181,1.79,0.54,2.39,0.72c0.35,0.881,0.71,1.761,1.06,2.65c1.82-0.57,3.66-1.08,5.54-1.41c0.83-4.55,3.9-8.34,4.98-12.85
	c1.46-0.221,2.87,0.07,4.21,0.66c0.02,0.539,0.05,1.619,0.07,2.16c0.63,0.879,1.27,1.76,1.9,2.64c1.45-0.03,2.9-0.05,4.36-0.06
	c1.64-1.32,3.83-2.301,4.509-4.461c0.94-2.68,1.301-5.52,2.261-8.199c0.6-1.971-1.091-5.25,1.771-5.881
	c1.389,5.9-1.271,11.42-2.471,17.08c-1.7,1.141-3.25,2.62-5.23,3.271c-2.35,0.37-4.75,0.17-7.12,0.25c-1.16-1.83-2.01-3.83-2.26-6
	c-1.61,4.43-3.9,8.56-5.48,12.989c-1.29,0.82-5.1,0.621-3.95,3.031c1.5,2.979,4.1,5.67,7.08,7.31c0.64,1.01,1.28,2.04,1.91,3.06
	c3.35-1.619,6.82-3.17,9.48-5.859c0.74-1.91,1.65-3.75,2.66-5.53c2.43,0.08,4.86,0.08,7.301,0.09c0.159,0.51,0.489,1.521,0.649,2.03
	c3.34,1.05,5.11-1.771,7.14-3.771c1.16-2.159,2.42-4.28,3.76-6.34c0.021-0.649,0.051-1.96,0.061-2.61
	c1.35-1.81,1.96-6.279,5.04-3.91c-0.94,1.641-2,3.221-3.021,4.83c-0.039,0.69-0.109,2.08-0.14,2.78
	c-2.06,4.03-4.409,7.88-7.71,11.03c-2.35-0.01-4.699-0.03-7.05-0.05c-0.13-0.5-0.37-1.511-0.49-2.021
	c-1.01-0.01-3.021-0.029-4.021-0.039c-0.84,1.609-1.659,3.25-2.109,5.02c-3.72,2.949-7.92,6.32-12.91,6.199
	c-0.74-1.039-1.47-2.09-2.21-3.14c-3.09-1.8-5.05-4.88-7.46-7.43c0.06-0.75,0.17-2.271,0.23-3.03c-2.9,0.71-4-2.32-5.58-4.04
	c-0.19,2.88,0.29,5.91-1.08,8.561c-2.74-0.091-5.48,0.03-8.22-0.091c-2.11-1.859-3.85-4.18-6.39-5.539
	c-0.15-1.33-1.33-3.61,1.04-2.961c1.93,2.391,4.77,3.86,6.32,6.601c2.06-0.04,4.13-0.101,6.19-0.271
	c-0.57-5.229,1.56-10.199,1.04-15.43c-4.72-0.21-9.41-0.109-13.87,1.62c-0.4,0.25-1.21,0.75-1.61,1.01
	c-3.76,6.49-1.8,14.21-2.25,21.32c3,3.01,4.78,6.97,6.91,10.601c1.35,2.379,2.62,4.819,3.71,7.34c1.17,1.029,2.15,2.25,2.93,3.6
	c1.85,0.97,3.46,2.32,5.2,3.47c1.79,0.71,3.37-0.43,4.49-1.71c-1.25-0.449-2.53-0.73-3.84-0.84c-1.25-0.9-2.77-1.74-2.9-3.46
	c1.43,0.18,2.81,0.64,4.1,1.28c2.59,0.58,5.15,1.41,7.36,2.92c3.93,0.71,6.78,3.68,10.55,4.83c4.48,3.49,9.65,6.68,15.54,6.649
	c0.351,0.261,1.05,0.771,1.399,1.03c0.801,0,2.4-0.01,3.201-0.02c-0.011-1.95-0.021-3.91-0.031-5.86
	c-1.709-0.33-3.469-0.74-4.659-2.12c-1.38-0.05-2.671-0.48-3.771-1.33c-1.06,1.391-2.029,2.85-2.979,4.33
	c-0.41-1.3-0.73-2.62-0.94-3.96c1.221-0.91,2.35-1.92,3.391-3.03c1.09,0.59,2.16,1.2,3.24,1.82c0.56,0.02,1.699,0.07,2.26,0.09
	c1.14,0.77,2.279,1.54,3.43,2.3c0.1-3.26,0.029-6.52,0.09-9.78c3.46-0.68,6.21,2.141,9.58,2.291c-0.189-4.021-0.51-8.23,2.07-11.631
	c2.02,0.021,4.05,0.021,6.07,0.051c1.049,1.18,2.409,1.93,3.93,2.3c-0.021-1.591-0.061-3.17-0.12-4.761
	c1.11-0.5,2.229-0.959,3.37-1.39c0.51-0.77,1.029-1.54,1.539-2.31c1.631,0.04,3.261,0.1,4.891,0.17c-0.21,1.73-1.26,2.38-3.13,1.949
	c-0.69,0.801-1.37,1.61-2.05,2.421c-0.631,0.1-1.891,0.3-2.521,0.399c0,0.811,0.011,2.42,0.021,3.221
	c0.57,0.369,1.699,1.109,2.27,1.479c1.43-0.03,2.93,0.021,3.141,1.851c-1.961,0.3-3.961,0.25-5.871-0.32
	c2.07,2.04,3.891,4.33,4.521,7.25c2.899-3.17,3.07-7.51,4.511-11.34c-0.471-5.721,1.5-11.09,2.26-16.69
	c1.399-3.61,0.42-7.53,1.369-11.22c0.431-3.69,2.541-6.971,2.58-10.71c0.211-2.81,1.68-5.271,3.09-7.62
	c1.511-2.35,1.311-5.34,2.811-7.689c1.109-2.07,3.02-3.771,3.38-6.19c-4.19-2.011-8.22-4.8-13.11-4.15
	c-3.84-1.31-7.84-1.56-11.869-1.42c-2.17-1.25-4.711-0.93-7.09-1C120.77,104.55,120.68,105.4,120.641,105.83 M116.7,174.9
	c-0.011,2.72,0.01,5.439,0.021,8.17c2.329-0.76,3.209,1.13,3.129,3.119c0.041,2.94,2.621,4.65,4.86,6.021
	c1.83-1.649,3.56-3.44,5-5.44c1.64-3.369,0.69-7.92-2.931-9.539c0.031-0.74,0.07-2.23,0.101-2.971c-2.97-0.17-5.18-2.56-8.17-2.52
	C118.05,172.8,117.391,173.859,116.7,174.9 M107.26,180.891c-0.24,5.239-0.02,10.479-0.18,15.719c2.641,0.781,5.4,0.641,8.12,0.701
	c2.47-1.181,4.79-2.621,7.079-4.11c-2.909-1.3-4.34-4.2-4.85-7.2c-0.47-0.141-1.41-0.42-1.88-0.561c-1.29-1.35-2.96-2.31-4.829-2.51
	C109.561,182.26,108.41,181.57,107.26,180.891z"/>
<path fill="#FEFEFE" d="M120.641,105.83c0.039-0.43,0.129-1.28,0.17-1.7c2.379,0.07,4.92-0.25,7.09,1
	c4.029-0.14,8.029,0.11,11.869,1.42c4.891-0.649,8.92,2.14,13.11,4.15c-0.36,2.42-2.271,4.12-3.38,6.19
	c-1.5,2.35-1.3,5.34-2.811,7.689c-1.41,2.35-2.879,4.811-3.09,7.62c-0.039,3.739-2.149,7.02-2.58,10.71
	c-0.949,3.689,0.03,7.609-1.369,11.22c-0.76,5.601-2.73,10.97-2.26,16.69c-1.44,3.83-1.611,8.17-4.511,11.34
	c-0.63-2.92-2.45-5.21-4.521-7.25c1.91,0.57,3.91,0.62,5.871,0.32c-0.211-1.83-1.711-1.881-3.141-1.851
	c-0.57-0.37-1.699-1.11-2.27-1.479c-0.01-0.801-0.021-2.41-0.021-3.221c0.63-0.1,1.89-0.3,2.521-0.399
	c0.68-0.811,1.359-1.62,2.05-2.421c1.87,0.431,2.92-0.219,3.13-1.949c-1.63-0.07-3.26-0.13-4.891-0.17
	c-0.51,0.77-1.029,1.54-1.539,2.31c-1.141,0.431-2.26,0.89-3.37,1.39c0.06,1.591,0.1,3.17,0.12,4.761
	c-1.521-0.37-2.881-1.12-3.93-2.3c-2.021-0.03-4.051-0.03-6.07-0.051c-2.58,3.4-2.26,7.61-2.07,11.631
	c-3.37-0.15-6.12-2.971-9.58-2.291c-0.061,3.261,0.01,6.521-0.09,9.78c-1.15-0.76-2.29-1.53-3.43-2.3
	c-0.561-0.02-1.7-0.07-2.26-0.09c-1.08-0.62-2.15-1.23-3.24-1.82c-1.041,1.11-2.17,2.12-3.391,3.03c0.21,1.34,0.53,2.66,0.94,3.96
	c0.95-1.48,1.92-2.939,2.979-4.33c1.1,0.85,2.391,1.28,3.771,1.33c1.19,1.38,2.95,1.79,4.659,2.12c0.011,1.95,0.021,3.91,0.031,5.86
	c-0.801,0.01-2.4,0.02-3.201,0.02c-0.35-0.26-1.049-0.77-1.399-1.03c-5.89,0.03-11.06-3.159-15.54-6.649
	c-3.77-1.15-6.62-4.12-10.55-4.83c-2.21-1.51-4.77-2.34-7.36-2.92c-1.29-0.641-2.67-1.101-4.1-1.28c0.13,1.72,1.65,2.56,2.9,3.46
	c1.31,0.109,2.59,0.391,3.84,0.84c-1.12,1.28-2.7,2.42-4.49,1.71c-1.74-1.149-3.35-2.5-5.2-3.47c-0.78-1.35-1.76-2.57-2.93-3.6
	c-1.09-2.521-2.36-4.961-3.71-7.34c-2.13-3.631-3.91-7.591-6.91-10.601c0.45-7.11-1.51-14.83,2.25-21.32
	c0.4-0.26,1.21-0.76,1.61-1.01c4.46-1.729,9.15-1.83,13.87-1.62c0.52,5.23-1.61,10.2-1.04,15.43c-2.06,0.17-4.13,0.23-6.19,0.271
	c-1.55-2.74-4.39-4.21-6.32-6.601c-2.37-0.649-1.19,1.631-1.04,2.961c2.54,1.359,4.28,3.68,6.39,5.539c2.74,0.121,5.48,0,8.22,0.091
	c1.37-2.65,0.89-5.681,1.08-8.561c1.58,1.72,2.68,4.75,5.58,4.04c-0.06,0.76-0.17,2.28-0.23,3.03c2.41,2.55,4.37,5.63,7.46,7.43
	c0.74,1.05,1.47,2.101,2.21,3.14c4.99,0.121,9.19-3.25,12.91-6.199c0.45-1.77,1.27-3.41,2.109-5.02c1,0.01,3.011,0.029,4.021,0.039
	c0.12,0.51,0.36,1.521,0.49,2.021c2.351,0.02,4.7,0.04,7.05,0.05c3.301-3.15,5.65-7,7.71-11.03c0.03-0.7,0.101-2.09,0.14-2.78
	c1.021-1.609,2.08-3.189,3.021-4.83c-3.08-2.369-3.69,2.101-5.04,3.91c-0.01,0.65-0.04,1.961-0.061,2.61
	c-1.34,2.06-2.6,4.181-3.76,6.34c-2.029,2-3.8,4.82-7.14,3.771c-0.16-0.51-0.49-1.521-0.649-2.03c-2.44-0.01-4.871-0.01-7.301-0.09
	c-1.01,1.78-1.92,3.62-2.66,5.53c-2.66,2.689-6.13,4.24-9.48,5.859c-0.63-1.02-1.27-2.05-1.91-3.06c-2.98-1.64-5.58-4.33-7.08-7.31
	c-1.15-2.41,2.66-2.211,3.95-3.031c1.58-4.43,3.87-8.56,5.48-12.989c0.25,2.17,1.1,4.17,2.26,6c2.37-0.08,4.77,0.12,7.12-0.25
	c1.98-0.65,3.53-2.13,5.23-3.271c1.2-5.66,3.859-11.18,2.471-17.08c-2.861,0.631-1.171,3.91-1.771,5.881
	c-0.96,2.68-1.32,5.52-2.261,8.199c-0.68,2.16-2.87,3.141-4.509,4.461c-1.46,0.01-2.91,0.029-4.36,0.06
	c-0.63-0.88-1.27-1.761-1.9-2.64c-0.02-0.541-0.05-1.621-0.07-2.16c-1.34-0.59-2.75-0.881-4.21-0.66c-1.08,4.51-4.15,8.3-4.98,12.85
	c-1.88,0.33-3.72,0.84-5.54,1.41c-0.35-0.89-0.71-1.77-1.06-2.65c-0.6-0.18-1.79-0.539-2.39-0.72c0.03-2.6,0.04-5.2,0-7.8
	c3.08-0.54,6.79-0.439,8.71-3.38c4.2-1.89,6.89-5.87,11.03-7.83c3.95-2.3,7.59-5.09,11.119-7.979
	c3.031,3.729,6.83,6.869,8.621,11.47c5.149,0.09,11.05-1.11,14.119-5.64c1.121-2.211,2.49-4.281,3.791-6.381
	c0.26-2.109,0.56-4.229,1.27-6.24c1.641,1.101,2.609,2.94,4.43,3.801c0.85,1.27,1.61,2.649,2.76,3.689
	c1.561,0.12,3.141,0.051,4.711,0.021c0.939-0.88,1.92-1.72,3.069-2.311c2.47-1.76,4.101-4.45,6.91-5.78
	c0.101-0.52,0.31-1.569,0.41-2.09c-1.69,0.541-3.341,1.19-4.96,1.931c-1.6,2.829-4.439,4.89-7.24,6.39
	c-4.27-1.64-6.38-7.45-10.97-8.57c-1.46,2.34-2.41,5.311-2.24,8.181c-1.84,2.069-2.899,4.63-4.36,6.939
	c-2.35,2.97-6.289,3.32-9.68,4.261c-2.061-4.32-5.609-7.4-8.779-10.86c2.06-1.58,4.59-2.37,6.609-4.011
	c1.21,0.73,2.41,1.48,3.609,2.25c2.711-0.379,2.91-2.869,2.15-5.06C114.45,108.811,118.061,108.25,120.641,105.83z"/>
<path fill="#FEFEFE" d="M3.98,107.78c0.39-0.061,1.17-0.171,1.56-0.23c0,8.06-0.79,16.101-0.39,24.181
	C8.79,135,8.27,140.38,8.96,144.8c0.12,2.67,1.88,4.8,2.68,7.271c1,6.109,3.82,11.729,4.63,17.89c-0.24,0.229-0.71,0.67-0.95,0.899
	c-0.03-0.6-0.1-1.81-0.14-2.409c-2.17-4.36-4.33-8.79-7.55-12.49c-0.05-2.69-0.14-5.39-0.56-8.06c-2.05-3.09-1.5-6.811-1.56-10.311
	c-1.59-2.18-1.38-5.01-1.41-7.56C4.12,122.609,4.11,115.189,3.98,107.78z"/>
<path fill="#FEFEFE" d="M116.7,174.9c0.69-1.041,1.35-2.101,2.01-3.16c2.99-0.04,5.2,2.35,8.17,2.52
	c-0.03,0.74-0.069,2.23-0.101,2.971c3.621,1.619,4.57,6.17,2.931,9.539c-1.44,2-3.17,3.791-5,5.44
	c-2.239-1.37-4.819-3.08-4.86-6.021c0.08-1.989-0.8-3.879-3.129-3.119C116.71,180.34,116.689,177.62,116.7,174.9z"/>
<path fill="#FEFEFE" d="M107.26,180.891c1.15,0.68,2.301,1.369,3.461,2.039c1.869,0.2,3.539,1.16,4.829,2.51
	c0.47,0.141,1.41,0.42,1.88,0.561c0.51,3,1.94,5.9,4.85,7.2c-2.289,1.489-4.609,2.93-7.079,4.11c-2.72-0.061-5.479,0.08-8.12-0.701
	C107.24,191.37,107.02,186.13,107.26,180.891z"/>
</svg>
