<?xml version="1.0" encoding="utf-8"?>
<!-- Generator: Adobe Illustrator 15.0.2, SVG Export Plug-In . SVG Version: 6.00 Build 0)  -->
<!DOCTYPE svg PUBLIC "-//W3C//DTD SVG 1.1//EN" "http://www.w3.org/Graphics/SVG/1.1/DTD/svg11.dtd">
<svg version="1.1" id="Layer_1" xmlns="http://www.w3.org/2000/svg" xmlns:xlink="http://www.w3.org/1999/xlink" x="0px" y="0px"
	 width="111px" height="165px" viewBox="0 0 111 165" enable-background="new 0 0 111 165" xml:space="preserve">
<path fill="#FFFFFF" d="M0,0h111v165H81.34c3.5-1.73,7.57-1.77,11.04-3.5c3.64-3.13,5.94-7.49,9.28-10.91
	c1.98-2.58,5.25-5.529,3.67-9.09c-2.52-6.4-1.4-13.46-3.08-20.04c-1.92-8-1.25-16.28-1.439-24.42
	c-0.121-4.899-0.131-9.8,0.459-14.67c0.461-0.29,1.381-0.86,1.84-1.15c0.25-4.04,0.951-8.25,3.561-11.49
	c1.24-1.96,3.801-4.19,2.1-6.65c-0.399-2.05-2.75-1.51-4.279-1.83c-0.12,0.84-0.36,2.53-0.48,3.38c0.9-0.93,1.78-1.89,2.67-2.85
	c0.5,1.17,1,2.33,1.51,3.5c-2.59,3.33-4.91,6.9-6.289,10.91c-0.51-0.64-1.53-1.93-2.041-2.58c-0.209,2.45,0.07,4.96,1.08,7.22
	c-1.129,2.93-1.58,6.04-1.399,9.18c0.26,10.71-0.88,21.561,1.399,32.141c1.36,5.6,0.811,11.439,1.82,17.08
	c0.24,1.979,2.9,3.619,1.381,5.629c-1.49,2.851-3.74,5.19-5.631,7.771c-2.27,2.86-4.15,6.07-6.89,8.53
	c-8.091,3.27-17.08,2.41-25.61,2.04c-5.699,0.18-11.3-1.08-16.99-1.07c-15.19-0.22-29.04-7.17-43.07-12.149
	c0.31-0.41,0.93-1.23,1.24-1.641c-0.53-0.31-1.58-0.93-2.11-1.24c1.05-0.479,2.11-0.949,3.17-1.39c-0.86-0.49-1.73-0.979-2.59-1.47
	c2.12-7.57,2.49-15.43,3.38-23.19c2.71-10.159,1.57-20.729,1.8-31.1C11,84.88,9.8,79.89,10.07,74.82c-0.4-0.04-1.21-0.12-1.61-0.17
	c-0.68,1.93-1.42,3.84-2.22,5.72c0.58-4.45,1.03-8.95-0.31-13.33c1.47,1.74,2.62,3.71,3.92,5.58c0.15,2.07,1.56,3.4,3.41,4.18
	c-0.86-2.54-0.91-5.61-3.15-7.43c0.12-6.47-0.17-12.94,0.19-19.4c0.64-5.92,1.46-11.87,0.95-17.84c-0.73-4.55,1.32-8.98,0.3-13.52
	c-0.6-0.39-1.81-1.18-2.42-1.58c0.99,5.65,0.12,11.39,0.99,17.05c0.25,7.66-1.38,15.27-0.92,22.95c0.36,2.2-0.72,4.03-2.18,5.56
	c-2.13-1.38-4.76-1.98-6.56,0.29L0,63.07V0 M51.54,0.6c-0.18,2.49-0.49,4.98-1.03,7.42c0.05-2.41-0.46-4.76-1.07-7.07
	c-3.72,4.45-9.69,5.09-14.42,7.9c-1.37-0.55-2.82-2.41-4.34-1.27c-2.44,1.79-5.7,1.43-8.31,2.88c-4.48,2.02-9.86,2.22-13.67,5.52
	c3.18,1.54,6.36,3.08,9.47,4.77c0.15-0.94,0.45-2.8,0.6-3.74c0.64,1.43,1.19,2.89,1.72,4.35c2.19-0.92,1.44-3.67,2.06-5.52
	c0.17,1.63,0.25,3.27,0.38,4.91c2.49-0.34,4.12-1.9,3.71-4.51c0.12,0,0.34,0.01,0.46,0.02c0.24,1.64-0.75,4.69,2.14,4.4
	c0.11-1.53,0.16-3.05,0.25-4.58c0.33,1.65-0.38,3.88,1.46,4.85c0.15-0.95,0.44-2.86,0.59-3.81c0.09,2.08,0.26,4.16,0.54,6.22
	c1.25-0.56,1.76-1.74,2.17-2.95c1.38-0.25,2.04-1.34,2.58-2.51c0.09,0.66,0.27,1.98,0.36,2.64c1.49,0.61,2.96,1.25,4.43,1.89
	c-0.04-0.74-0.11-2.22-0.15-2.96c0.87,0.68,1.76,1.33,2.65,1.97c0.28-1.32,0.54-2.65,0.77-3.97c0.1-0.01,0.29-0.01,0.38-0.01
	c0.08,1.43,0.16,2.85,0.29,4.27c3.94-0.8,4.79,3.33,7.46,5.12c1.98-0.76,3.18-3.07,5.4-3.65c1.51-1.41,4.09-0.9,5.17-2.83
	c0.061,0.73,0.18,2.18,0.24,2.9c1.189-0.08,2.05-0.73,2.58-1.94c0.66-0.15,1.97-0.45,2.63-0.6c0.45,0.4,1.351,1.21,1.8,1.61
	c0.54-0.34,1.62-1.02,2.16-1.36c4.32-0.46,8.66-0.85,13-1.06c1.43-0.34,3.529,0.57,4.45-0.89c-0.54-0.38-1.62-1.12-2.16-1.49
	c0.75-1.12,1.479-2.25,2.181-3.41c-0.011,0.84-0.021,2.52-0.021,3.36c2.829,1.57,3.159-2.96,4.271-4.59
	c-0.191,2.08-0.421,4.18-0.141,6.27c0.57-0.22,1.72-0.66,2.3-0.88c-0.64,8.32,0.91,16.53,2.271,24.7
	c0.31,6.03,0.709,12.08-0.44,18.07c-0.47,1.43,1.271,1.45,2.13,1.95c-0.189-0.61-0.58-1.83-0.77-2.44
	c0.82-10.47-0.25-20.96-1.65-31.34c-0.939-5.92,1.311-12.75-2.68-17.88c-1.83-0.62-2.66,1.31-3.561,2.49
	c-0.209-1.51,1.5-4.7-1.34-4.41c-1.029,1.46-1.82,3.07-2.68,4.64c0.279-1.66,0.561-3.33,0.84-4.99c-0.65,0.11-1.96,0.33-2.609,0.44
	C85.3,8.7,84.189,7.93,83.02,7.25c-1.67,0.59-3.22,1.44-4.84,2.14c-0.25,0.88-0.5,1.76-0.76,2.64c0.02-0.85,0.061-2.53,0.08-3.37
	l-1.689-0.8c-0.381,1.38-0.761,2.76-1.131,4.15c-0.22-1.29-0.539-2.55-0.949-3.79C72.15,6.83,69.95,6.63,68,6.09
	c-0.12,1.39-0.279,2.76-0.49,4.14c-0.17-1.47-0.289-2.94-0.369-4.42C65.75,5.52,64.38,5.18,63.01,4.85
	c0.641,2.34,0.79,4.76,0.84,7.18c-0.279,0.04-0.83,0.12-1.109,0.16c0.71-2.84-0.15-5.73-0.23-8.59c-1.17,0.39-2.35,0.75-3.529,1.09
	c0.39,1.5,0.74,3.01,0.99,4.53c-3.08-1.37-1.721-5.85-2.98-8.46c-0.45,0.46-1.36,1.38-1.81,1.84c0.94,3.14,0.36,6.38,0.44,9.58
	c-0.45-3.55-0.83-7.2-1.93-10.6C53.15,1.34,52.08,0.84,51.54,0.6 M89.311,33.03c2.27,5.43,1.16,11.439,0.779,17.12
	c0.32,0.99,0.91,1.86,1.43,2.76c0.201-5.96,0.811-11.95,0.17-17.9C90.98,34.26,90.13,33.65,89.311,33.03 M13.95,37.78
	c0.06,6.58-0.49,13.21,0.4,19.76c-2,1.08,0.34,2.33,1.31,3.1c1.09-1.64,0.7-3.49-0.07-5.19c1.08-0.75,1.35-1.38-0.26-1.19
	c-0.33-4.72-0.06-9.46-0.14-14.18C15.33,39.08,14.54,38.44,13.95,37.78 M41.22,48.09c0.63,3.17,0.01,6.39-0.63,9.5
	c-0.08,1.25-1.2,2.13-2.4,2.16c-4.56,0.51-9.18,0.32-13.74,0.73c-2.46,1.04-5.52,1.7-6.83,4.3c4.15,0.229,8.32,0.24,12.45,0.75
	c-3.98,0.55-8.01,0.39-12,0.7c-0.31,0.36-0.94,1.09-1.26,1.45c6.04,0.55,12.12,0.28,18.13-0.49c-0.07,1.04-0.15,2.07-0.22,3.11
	c-1.44,0.21-2.88,0.44-4.31,0.67c1.41,3.4,5.41,1.32,8.03,1.061l0.27,3.939c0.43-1.02,1.29-3.06,1.71-4.09
	c-0.05,0.9-0.15,2.7-0.2,3.6c2.21-1.86,4.74-3.97,4.88-7.11c1.22,0.35,2.47,0.64,3.71,0.94l-3.3-1.48c1.67-1.03,5.46-0.38,4.57-3.58
	c0.63,1.1,1.21,2.23,1.91,3.3c0.59-0.33,1.77-0.98,2.35-1.3c-0.37,2.9,0.09,5.86-0.79,8.69c1.57,0.14,3.11,0.4,4.64,0.76
	c-1.989,0.15-3.979,0.22-5.979,0.23c1.44,2.79,4.979,1.44,7.46,1.36c-1.439-3.53-5.27-6.58-3.311-10.72
	c0.101,2.05,0.971,3.44,2.621,4.17c-0.24-1.72-0.561-3.43-0.91-5.12c1.289,0.24,2.58,0.46,3.88,0.67c0.149,0.41,0.45,1.23,0.59,1.64
	c3.67,0.57,7.38-0.27,11.069,0.16c-0.229,1.35-0.399,2.71-0.409,4.07c-3.421-0.61-5.99-4.44-9.63-3.04
	c1.75,2.86,4.029,5.77,7.49,6.55c2.039,0.2,4.92,0.74,5.729-1.76c1.03-0.41,1.92-1.03,2.681-1.86c-0.9-0.15-2.711-0.45-3.611-0.61
	c2.281-0.04,4.561-0.04,6.83-0.23c-0.439-2.32-3.34-1.28-4.27-3.15c6.53-0.34,13.1,0.27,19.59-0.86c-1.039,0.71-2.1,1.39-3.16,2.06
	c0.301,1.81,0.86,4.11,3.15,4.12c-0.37-1.09-0.75-2.18-1.141-3.26c1.08-0.36,2.16-0.72,3.24-1.08c-0.18-0.59-0.529-1.78-0.709-2.38
	c0.489,0.05,1.489,0.14,1.979,0.18c0.39-0.86,0.79-1.72,1.2-2.57c-8.95,0.1-17.92-0.01-26.83-0.76c4.119-1.11,8.38-1.56,12.619-1.9
	c-0.52-1.31-1.699-2.08-2.77-2.91c-0.75,0.03-2.27,0.09-3.029,0.13l0.08-1.82c-0.061,0.39-0.181,1.16-0.24,1.55
	c-4.851-0.04-9.291,2.4-14.131,2.45c-0.199-3.85,0-7.71-0.449-11.54c-2.49,3.47-0.68,8.33-1.16,12.36
	c-1.27-0.74-2.54-1.49-3.84-2.19c-0.1-0.69-0.291-2.08-0.391-2.77c-3.22,1.28-1.4,5.61-2.16,8.28c-1.029-2.29,0.99-4.88-0.819-6.92
	c-0.63,1.34-1.2,2.7-1.74,4.07c-1.08,0.07-1.92,0.58-2.51,1.54c0.75-2.53,2.01-7.15-1.83-7.51c0.17,0.67,0.5,2.01,0.66,2.68
	c-2.49,0.43-1.54,3.271-1.9,4.99c-0.39,0.16-1.17,0.47-1.56,0.62c1.3-2.86,0.36-6.88-2.81-7.99c0.03,2.32,0.8,4.54,0.83,6.86
	c-0.82,0.13-1.63,0.25-2.45,0.38c0.42-0.28,1.26-0.85,1.68-1.13c0.09-3.46-4.27-2.22-6.5-2.3c1.92-4.98,1.92-10.43,1.11-15.63
	C41.76,45.76,40.59,46.76,41.22,48.09 M20.25,69.28c1.15,1.24,2.97,1.28,4.21,2.33c-0.06,0.69-0.19,2.06-0.25,2.75
	c1.34-0.32,1.77-1.19,1.28-2.59c0.48-0.2,1.43-0.59,1.9-0.79C25.22,69.72,22.85,68.55,20.25,69.28 M45.46,70.26
	c-1.07,2.5-2.16,5.17-4.77,6.45c0.3,0.18,0.89,0.55,1.19,0.74c3.32-1.32,5.69-4.75,6.09-8.26C47.35,69.46,46.09,69.99,45.46,70.26
	 M62.88,82.21c-0.87-1.57-1.521-3.28-2.75-4.61c-0.409,2.14-0.75,4.3-1.159,6.44c-2.141,0.62-5.091,1.87-6.831-0.13
	c-1.74-0.87-0.47-2.78-0.42-4.16c-0.84-0.26-2.52-0.77-3.36-1.02c0.23,1.63,0.44,3.26,0.63,4.9c-2.81-1.28-0.93-4.18-0.93-6.39
	c-1.77,1.24-3.04,3.52-2.44,5.69c0.7,1.55,2.62,1.78,4.01,2.419c1.92,1.311,4.11,2.271,6.44,2.541c2.65-0.301,4.279-2.61,5.47-4.75
	c0.71,0.159,2.13,0.489,2.84,0.649c1.091-2.7,0.261-5.47-1.03-7.92C61.2,77.42,63.34,80.08,62.88,82.21 M14.1,82.94
	c2.61,1.36,4.16,4.11,6.92,5.19c2.35,2.5,2.42,6.011,3.55,9.08c0.99-4.08-0.54-9.22-4.63-10.979c-2.15-0.7-3.35-2.681-4.82-4.24
	c0.38-1.73,0.61-3.48,0.5-5.25C14.36,78.57,14.26,80.8,14.1,82.94 M66.88,80.49c0.72,5.39,6.771,6.02,11.07,6.72
	c1.3,0.79,2.44,4.11,4.05,2.521c-1.79-4.94-7.58-4.19-11.54-6.041C69.26,82.63,68.34,81.24,66.88,80.49 M40.55,82.19
	c0.49,1.3,1.02,2.59,1.54,3.871c-2.3,1.409-5.02,1.129-7.57,1.52c-2.54,0.95-5.08,3.75-3.58,6.52c0.99-2.18,2-5.459,5-5.27
	c2.63,0.2,5.09-0.55,7.25-2.02C43.12,84.85,41.97,83.4,40.55,82.19 M88.57,86.75c-0.471,0.26-1.42,0.77-1.9,1.03
	c-0.439,3.81-1.109,7.6-1.48,11.42c2.92-2.45,1.511-6.89,2.551-10.181c1.32-1.35,2.8-2.55,4.18-3.83
	C90.8,85.7,89.689,86.23,88.57,86.75 M52.92,90.38c-3.22,0.33-6.49,0.67-9.49,1.95c-0.86,1.52-1.41,3.359-3.01,4.311
	c0.06-0.66,0.16-1.99,0.22-2.65c-0.23,0.51-0.68,1.55-0.91,2.07c-1.51-1.351-0.35-3.03,0.04-4.541c-2.19,0.551-4.08,2.631-3.23,4.99
	c1.02,2.391,1.28,5.44,3.68,6.94c-0.19-2.2-0.69-4.37-1.76-6.32c0.89,0.22,2.67,0.65,3.56,0.86c1.25-1.021,1.81-2.58,2.5-3.98
	c3.05-1.07,6.25-1.5,9.45-1.82c4.629-1.029,9.36-3.02,14.07-1.149c0.569,1.71,0.851,3.49,0.88,5.29c1.08,1.38,2.641,2.05,4.4,1.939
	c0.16,3.271-0.03,6.541-0.2,9.811c0.59-1,1.12-2.02,1.59-3.08c0.03,1.01,0.11,3.02,0.149,4.03c3.42-0.53,0.721-4.89,0.451-7.091
	c-0.451-1.279-0.891-2.549-1.32-3.83c0.43-0.039,1.279-0.1,1.71-0.129c0.3,1.129-0.521,3.529,1.01,3.8
	c1.399-1.74,0.34-4.47-0.25-6.38c-1.819,0.199-3.61,0.6-5.431,0.83c-0.219-2.801-0.5-7.141-4.1-7.5
	C62.21,87.061,57.529,89.58,52.92,90.38 M14.33,92.1c1.15,4.551,5.53,7.181,7.31,11.391c0.59,1.22,1.06,2.56,2.12,3.479
	C23.24,100.811,18.07,96.53,14.33,92.1 M49.43,93.96c1.62,3.14,6.94,2.521,8.7-0.229C55.26,92.77,52.3,93.391,49.43,93.96
	 M33.62,100.859c0.92,1.371,1.81,2.75,2.71,4.131c0.31-0.09,0.94-0.271,1.25-0.36c-1.75-3.239-3.07-6.69-4.49-10.08
	C32.36,96.66,33.23,98.78,33.62,100.859 M88.95,108.439c3.09-2.6,5.13-6.64,5.899-10.59C92.721,101.28,90.23,104.57,88.95,108.439
	 M32.35,101.27c-0.81,1.07-0.06,3.74,1.52,3.33C34.4,103.6,33.71,101.01,32.35,101.27 M71.79,107.82c0.21-2.08,0.19-4.18-0.11-6.25
	C70.15,103.311,70.13,106.141,71.79,107.82 M37.23,117.311c0.43,1.159,0.89,2.299,1.32,3.459c1.75,1.41,3.36,3.121,5.5,3.91
	c4.17,1.25,7.04,4.93,11.36,5.891c5.63,2.119,10.369-2.561,14.811-5.23c3.579-1.43,5.289-5.31,6.1-8.82
	c-3.131,1.66-5.11,4.83-8.271,6.471c-2.86,1.449-5.7,3.439-9.01,3.55c-3.93-1.46-8.3-1.59-12.07-3.45
	C44.07,120.63,41.01,118.25,37.23,117.311 M21.69,124.23c-1.13,0.859-2.27,1.729-3.43,2.569c1.72,2.12-1.48,3.42-1.27,5.601
	c-0.2,0.069-0.6,0.209-0.79,0.289c-1.5-2.52,1.16-5.789-0.59-8.299c-0.67,2.469-1.02,5.02-1.4,7.549
	c-1.02,5.561-4.33,10.78-3.6,16.591c1.34-0.351,2.69-0.64,4.05-0.91c2.37-5.58,3.09-11.55,4.34-17.41c2.23-0.95,4.36-2.14,6.7-2.8
	c-1.17-0.5-2.39-1.07-3.69-0.35C20.51,126.96,21.62,125.12,21.69,124.23 M93.35,129.8c0.08,3.39-0.8,8.761,3.291,10.12
	c-0.761-1.91-1.74-3.8-1.681-5.92C94.721,132.48,95.34,130.311,93.35,129.8z"/>
<path fill="#050505" d="M51.54,0.6c0.54,0.24,1.61,0.74,2.15,0.98c1.1,3.4,1.48,7.05,1.93,10.6c-0.08-3.2,0.5-6.44-0.44-9.58
	c0.45-0.46,1.36-1.38,1.81-1.84c1.26,2.61-0.1,7.09,2.98,8.46c-0.25-1.52-0.601-3.03-0.99-4.53c1.18-0.34,2.359-0.7,3.529-1.09
	c0.08,2.86,0.94,5.75,0.23,8.59c0.279-0.04,0.83-0.12,1.109-0.16c-0.05-2.42-0.199-4.84-0.84-7.18c1.37,0.33,2.74,0.67,4.131,0.96
	c0.08,1.48,0.199,2.95,0.369,4.42c0.211-1.38,0.37-2.75,0.49-4.14c1.95,0.54,4.15,0.74,5.73,2.13c0.41,1.24,0.729,2.5,0.949,3.79
	c0.37-1.39,0.75-2.77,1.131-4.15l1.689,0.8c-0.02,0.84-0.061,2.52-0.08,3.37c0.26-0.88,0.51-1.76,0.76-2.64
	c1.62-0.7,3.17-1.55,4.84-2.14c1.17,0.68,2.28,1.45,3.371,2.25C87.04,9.39,88.35,9.17,89,9.06c-0.279,1.66-0.561,3.33-0.84,4.99
	c0.859-1.57,1.65-3.18,2.68-4.64c2.84-0.29,1.131,2.9,1.34,4.41c0.9-1.18,1.73-3.11,3.561-2.49c3.99,5.13,1.74,11.96,2.68,17.88
	c1.4,10.38,2.471,20.87,1.65,31.34c0.189,0.61,0.58,1.83,0.77,2.44c-0.859-0.5-2.6-0.521-2.13-1.95
	c1.149-5.99,0.75-12.04,0.44-18.07c-1.36-8.17-2.91-16.38-2.271-24.7c-0.58,0.22-1.729,0.66-2.3,0.88
	c-0.28-2.09-0.051-4.19,0.141-6.27c-1.111,1.63-1.441,6.16-4.271,4.59c0-0.84,0.01-2.52,0.021-3.36
	c-0.701,1.16-1.431,2.29-2.181,3.41c0.54,0.37,1.62,1.11,2.16,1.49c-0.921,1.46-3.021,0.55-4.45,0.89c-4.34,0.21-8.68,0.6-13,1.06
	c-0.54,0.34-1.62,1.02-2.16,1.36c-0.449-0.4-1.35-1.21-1.8-1.61c-0.66,0.15-1.97,0.45-2.63,0.6c-0.53,1.21-1.391,1.86-2.58,1.94
	c-0.061-0.72-0.18-2.17-0.24-2.9c-1.08,1.93-3.66,1.42-5.17,2.83c-2.22,0.58-3.42,2.89-5.4,3.65c-2.67-1.79-3.52-5.92-7.46-5.12
	c-0.13-1.42-0.21-2.84-0.29-4.27c-0.09,0-0.28,0-0.38,0.01c-0.23,1.32-0.49,2.65-0.77,3.97c-0.89-0.64-1.78-1.29-2.65-1.97
	c0.04,0.74,0.11,2.22,0.15,2.96c-1.47-0.64-2.94-1.28-4.43-1.89c-0.09-0.66-0.27-1.98-0.36-2.64c-0.54,1.17-1.2,2.26-2.58,2.51
	c-0.41,1.21-0.92,2.39-2.17,2.95c-0.28-2.06-0.45-4.14-0.54-6.22c-0.15,0.95-0.44,2.86-0.59,3.81c-1.84-0.97-1.13-3.2-1.46-4.85
	c-0.09,1.53-0.14,3.05-0.25,4.58c-2.89,0.29-1.9-2.76-2.14-4.4c-0.12-0.01-0.34-0.02-0.46-0.02c0.41,2.61-1.22,4.17-3.71,4.51
	c-0.13-1.64-0.21-3.28-0.38-4.91c-0.62,1.85,0.13,4.6-2.06,5.52c-0.53-1.46-1.08-2.92-1.72-4.35c-0.15,0.94-0.45,2.8-0.6,3.74
	c-3.11-1.69-6.29-3.23-9.47-4.77c3.81-3.3,9.19-3.5,13.67-5.52c2.61-1.45,5.87-1.09,8.31-2.88c1.52-1.14,2.97,0.72,4.34,1.27
	c4.73-2.81,10.7-3.45,14.42-7.9c0.61,2.31,1.12,4.66,1.07,7.07C51.05,5.58,51.36,3.09,51.54,0.6 M51.2,22.17
	C51.75,22.87,51.75,22.87,51.2,22.17z"/>
<path fill="#050505" d="M9.13,17.03c0.61,0.4,1.82,1.189,2.42,1.58c1.02,4.54-1.03,8.97-0.3,13.52c0.51,5.97-0.31,11.92-0.95,17.84
	c-0.36,6.46-0.07,12.93-0.19,19.4c2.24,1.82,2.29,4.89,3.15,7.43c-1.85-0.78-3.26-2.11-3.41-4.18c-1.3-1.87-2.45-3.84-3.92-5.58
	c1.34,4.38,0.89,8.88,0.31,13.33c0.8-1.88,1.54-3.79,2.22-5.72c0.4,0.05,1.21,0.13,1.61,0.17C9.8,79.89,11,84.88,10.84,89.95
	c-0.23,10.37,0.91,20.94-1.8,31.1c-0.89,7.761-1.26,15.62-3.38,23.19c0.86,0.49,1.73,0.979,2.59,1.47
	c-1.06,0.44-2.12,0.91-3.17,1.39c0.53,0.311,1.58,0.931,2.11,1.24c-0.31,0.41-0.93,1.23-1.24,1.641
	c14.03,4.979,27.88,11.93,43.07,12.149c5.69-0.01,11.291,1.25,16.99,1.07c8.53,0.37,17.52,1.229,25.61-2.04
	c2.739-2.46,4.62-5.67,6.89-8.53c1.891-2.58,4.141-4.92,5.631-7.771c1.52-2.01-1.141-3.649-1.381-5.629
	c-1.01-5.641-0.46-11.48-1.82-17.08C98.66,111.57,99.8,100.72,99.54,90.01c-0.181-3.14,0.271-6.25,1.399-9.18
	c-1.01-2.26-1.289-4.77-1.08-7.22c0.511,0.65,1.531,1.94,2.041,2.58c1.379-4.01,3.699-7.58,6.289-10.91
	c-0.51-1.17-1.01-2.33-1.51-3.5c-0.89,0.96-1.77,1.92-2.67,2.85c0.12-0.85,0.36-2.54,0.48-3.38c1.529,0.32,3.88-0.22,4.279,1.83
	c1.701,2.46-0.859,4.69-2.1,6.65c-2.609,3.24-3.311,7.45-3.561,11.49c-0.459,0.29-1.379,0.86-1.84,1.15
	c-0.59,4.87-0.58,9.771-0.459,14.67c0.189,8.14-0.48,16.42,1.439,24.42c1.68,6.58,0.561,13.64,3.08,20.04
	c1.58,3.561-1.689,6.51-3.67,9.09c-3.34,3.42-5.641,7.78-9.28,10.91c-3.47,1.73-7.54,1.77-11.04,3.5h-7.061
	c-3.879-1.71-8.18-0.96-12.279-1.17c-5.02,0.04-9.97-0.93-14.99-1.07c-13.04,0.09-24.86-6.119-36.98-10.05
	c-2.3-0.479-3.99-2.19-5.85-3.479c-0.13-3.82,0.55-7.58,1.46-11.271c1.63-6.569,0.96-13.47,2.69-20.01
	c1.91-7.511,1.17-15.29,1.32-22.95c0.08-4.891,0.1-9.8-0.89-14.62c-1.08,0.74-2.12,1.77-3.55,1.49c-0.75-3.9,0-7.9-0.64-11.8
	C3.54,67.88,1.59,66.3,0,64.53v-1.46l0.46-0.19c1.8-2.27,4.43-1.67,6.56-0.29c1.46-1.53,2.54-3.36,2.18-5.56
	c-0.46-7.68,1.17-15.29,0.92-22.95C9.25,28.42,10.12,22.68,9.13,17.03 M2.98,62.17C2.79,63.5,3.4,64.05,4.8,63.8
	C4.99,62.43,4.38,61.88,2.98,62.17 M3.22,65.2C3.91,65.73,3.91,65.73,3.22,65.2z"/>
<path fill="#FFFFFF" d="M51.2,22.17C51.75,22.87,51.75,22.87,51.2,22.17z"/>
<path fill="#050505" d="M89.311,33.03c0.819,0.62,1.67,1.229,2.379,1.979c0.641,5.95,0.031,11.94-0.17,17.9
	c-0.52-0.9-1.109-1.77-1.43-2.76C90.471,44.47,91.58,38.46,89.311,33.03z"/>
<path fill="#050505" d="M13.95,37.78c0.59,0.66,1.38,1.3,1.24,2.3c0.08,4.72-0.19,9.46,0.14,14.18c1.61-0.19,1.34,0.44,0.26,1.19
	c0.77,1.7,1.16,3.55,0.07,5.19c-0.97-0.77-3.31-2.02-1.31-3.1C13.46,50.99,14.01,44.36,13.95,37.78z"/>
<path fill="#050505" d="M41.22,48.09c-0.63-1.33,0.54-2.33,1.21-3.28c0.81,5.2,0.81,10.65-1.11,15.63c2.23,0.08,6.59-1.16,6.5,2.3
	c-0.42,0.28-1.26,0.85-1.68,1.13c0.82-0.13,1.63-0.25,2.45-0.38c-0.03-2.32-0.8-4.54-0.83-6.86c3.17,1.11,4.11,5.13,2.81,7.99
	c0.39-0.15,1.17-0.46,1.56-0.62c0.36-1.72-0.59-4.56,1.9-4.99c-0.16-0.67-0.49-2.01-0.66-2.68c3.84,0.36,2.58,4.98,1.83,7.51
	c0.59-0.96,1.43-1.47,2.51-1.54c0.54-1.37,1.11-2.73,1.74-4.07c1.81,2.04-0.21,4.63,0.819,6.92c0.76-2.67-1.06-7,2.16-8.28
	c0.1,0.69,0.291,2.08,0.391,2.77c1.3,0.7,2.57,1.45,3.84,2.19c0.48-4.03-1.33-8.89,1.16-12.36c0.449,3.83,0.25,7.69,0.449,11.54
	c4.84-0.05,9.28-2.49,14.131-2.45c0.06-0.39,0.18-1.16,0.24-1.55l-0.08,1.82c0.76-0.04,2.279-0.1,3.029-0.13
	c1.07,0.83,2.25,1.6,2.77,2.91c-4.239,0.34-8.5,0.79-12.619,1.9c8.91,0.75,17.88,0.86,26.83,0.76c-0.41,0.85-0.811,1.71-1.2,2.57
	c-0.49-0.04-1.49-0.13-1.979-0.18c0.18,0.6,0.529,1.79,0.709,2.38c-1.08,0.36-2.16,0.72-3.24,1.08C97.25,71.2,97.63,72.29,98,73.38
	c-2.29-0.01-2.85-2.31-3.15-4.12c1.061-0.67,2.121-1.35,3.16-2.06c-6.49,1.13-13.06,0.52-19.59,0.86c0.93,1.87,3.83,0.83,4.27,3.15
	c-2.27,0.19-4.549,0.19-6.83,0.23c0.9,0.16,2.711,0.46,3.611,0.61c-0.761,0.83-1.65,1.45-2.681,1.86c-0.81,2.5-3.69,1.96-5.729,1.76
	c-3.461-0.78-5.74-3.69-7.49-6.55c3.64-1.4,6.209,2.43,9.63,3.04c0.01-1.36,0.18-2.72,0.409-4.07
	c-3.689-0.43-7.399,0.41-11.069-0.16c-0.14-0.41-0.44-1.23-0.59-1.64c-1.3-0.21-2.591-0.43-3.88-0.67c0.35,1.69,0.67,3.4,0.91,5.12
	c-1.65-0.73-2.521-2.12-2.621-4.17c-1.959,4.14,1.871,7.19,3.311,10.72c-2.48,0.08-6.02,1.43-7.46-1.36c2-0.01,3.99-0.08,5.979-0.23
	c-1.529-0.36-3.069-0.62-4.64-0.76c0.88-2.83,0.42-5.79,0.79-8.69c-0.58,0.32-1.76,0.97-2.35,1.3c-0.7-1.07-1.28-2.2-1.91-3.3
	c0.89,3.2-2.9,2.55-4.57,3.58l3.3,1.48c-1.24-0.3-2.49-0.59-3.71-0.94c-0.14,3.14-2.67,5.25-4.88,7.11c0.05-0.9,0.15-2.7,0.2-3.6
	c-0.42,1.03-1.28,3.07-1.71,4.09l-0.27-3.939c-2.62,0.26-6.62,2.34-8.03-1.061c1.43-0.229,2.87-0.46,4.31-0.67
	c0.07-1.04,0.15-2.07,0.22-3.11c-6.01,0.77-12.09,1.04-18.13,0.49c0.32-0.36,0.95-1.09,1.26-1.45c3.99-0.31,8.02-0.15,12-0.7
	c-4.13-0.51-8.3-0.521-12.45-0.75c1.31-2.6,4.37-3.26,6.83-4.3c4.56-0.41,9.18-0.22,13.74-0.73c1.2-0.03,2.32-0.91,2.4-2.16
	C41.23,54.48,41.85,51.26,41.22,48.09 M39.22,67.41c-0.06,0.62-0.17,1.87-0.22,2.49c1.53,0.1,3.07,0.2,4.61,0.31
	c0.05-0.53,0.16-1.58,0.22-2.1C42.54,66.95,40.78,67.39,39.22,67.41 M75.35,68.11C75.5,71.39,78.359,66.59,75.35,68.11 M67.5,71.77
	c1.66,2.73,4.95,1.86,7.59,1.88C72.48,73.39,69.971,72.64,67.5,71.77C67.07,70.99,67.07,70.99,67.5,71.77z"/>
<path fill="#FFFFFF" d="M2.98,62.17c1.4-0.29,2.01,0.26,1.82,1.63C3.4,64.05,2.79,63.5,2.98,62.17z"/>
<path fill="#FFFFFF" d="M0,64.53c1.59,1.77,3.54,3.35,4.57,5.54c0.64,3.9-0.11,7.9,0.64,11.8c1.43,0.28,2.47-0.75,3.55-1.49
	C9.75,85.2,9.73,90.109,9.65,95c-0.15,7.66,0.59,15.439-1.32,22.95c-1.73,6.54-1.06,13.44-2.69,20.01
	c-0.91,3.69-1.59,7.45-1.46,11.271c1.86,1.289,3.55,3,5.85,3.479c12.12,3.931,23.94,10.14,36.98,10.05
	c5.02,0.141,9.971,1.11,14.99,1.07c4.1,0.21,8.4-0.54,12.279,1.17H0V64.53z"/>
<path fill="#FFFFFF" d="M3.22,65.2C3.91,65.73,3.91,65.73,3.22,65.2z"/>
<path fill="#FFFFFF" d="M39.22,67.41c1.56-0.02,3.32-0.46,4.61,0.7c-0.06,0.52-0.17,1.57-0.22,2.1C42.07,70.1,40.53,70,39,69.9
	C39.05,69.28,39.16,68.03,39.22,67.41z"/>
<path fill="#FFFFFF" d="M75.35,68.11C78.359,66.59,75.5,71.39,75.35,68.11z"/>
<path fill="#050505" d="M20.25,69.28c2.6-0.73,4.97,0.439,7.14,1.7c-0.47,0.2-1.42,0.59-1.9,0.79c0.49,1.4,0.06,2.27-1.28,2.59
	c0.06-0.69,0.19-2.06,0.25-2.75C23.22,70.56,21.4,70.52,20.25,69.28z"/>
<path fill="#050505" d="M45.46,70.26c0.63-0.27,1.89-0.8,2.51-1.07c-0.4,3.51-2.77,6.94-6.09,8.26c-0.3-0.19-0.89-0.56-1.19-0.74
	C43.3,75.43,44.39,72.76,45.46,70.26z"/>
<path fill="#FFFFFF" d="M67.5,71.77C67.07,70.99,67.07,70.99,67.5,71.77z"/>
<path fill="#FFFFFF" d="M67.5,71.77c2.471,0.87,4.98,1.62,7.59,1.88C72.45,73.63,69.16,74.5,67.5,71.77z"/>
<path fill="#050505" d="M62.88,82.21c0.46-2.13-1.68-4.79,0.47-6.34c1.291,2.45,2.121,5.22,1.03,7.92
	c-0.71-0.16-2.13-0.49-2.84-0.649c-1.19,2.14-2.819,4.449-5.47,4.75c-2.33-0.271-4.521-1.23-6.44-2.541
	c-1.39-0.64-3.31-0.869-4.01-2.419c-0.6-2.17,0.67-4.45,2.44-5.69c0,2.21-1.88,5.11,0.93,6.39c-0.19-1.64-0.4-3.27-0.63-4.9
	c0.84,0.25,2.52,0.76,3.36,1.02c-0.05,1.38-1.32,3.29,0.42,4.16c1.74,2,4.69,0.75,6.831,0.13c0.409-2.14,0.75-4.3,1.159-6.44
	C61.359,78.93,62.01,80.64,62.88,82.21z"/>
<path fill="#050505" d="M14.1,82.94c0.16-2.14,0.26-4.37,1.52-6.2c0.11,1.77-0.12,3.52-0.5,5.25c1.47,1.56,2.67,3.54,4.82,4.24
	c4.09,1.76,5.62,6.899,4.63,10.979c-1.13-3.069-1.2-6.58-3.55-9.08C18.26,87.05,16.71,84.3,14.1,82.94z"/>
<path fill="#050505" d="M66.88,80.49c1.46,0.75,2.38,2.14,3.58,3.199C74.42,85.54,80.21,84.79,82,89.73
	c-1.609,1.59-2.75-1.73-4.05-2.521C73.65,86.51,67.6,85.88,66.88,80.49z"/>
<path fill="#050505" d="M40.55,82.19c1.42,1.21,2.57,2.66,2.64,4.621c-2.16,1.47-4.62,2.22-7.25,2.02c-3-0.189-4.01,3.09-5,5.27
	c-1.5-2.77,1.04-5.569,3.58-6.52c2.55-0.391,5.27-0.11,7.57-1.52C41.57,84.78,41.04,83.49,40.55,82.19z"/>
<path fill="#050505" d="M88.57,86.75c1.119-0.52,2.229-1.05,3.35-1.561c-1.38,1.28-2.859,2.48-4.18,3.83
	c-1.04,3.291,0.369,7.73-2.551,10.181c0.371-3.82,1.041-7.61,1.48-11.42C87.15,87.52,88.1,87.01,88.57,86.75z"/>
<path fill="#050505" d="M52.92,90.38c4.609-0.8,9.29-3.319,14.01-1.649c3.6,0.359,3.881,4.699,4.1,7.5
	C72.85,96,74.641,95.6,76.46,95.4c0.59,1.91,1.649,4.64,0.25,6.38c-1.53-0.271-0.71-2.671-1.01-3.8
	c-0.431,0.029-1.28,0.09-1.71,0.129c0.43,1.281,0.869,2.551,1.32,3.83c0.27,2.201,2.969,6.561-0.451,7.091
	c-0.039-1.011-0.119-3.021-0.149-4.03c-0.47,1.061-1,2.08-1.59,3.08c0.17-3.27,0.36-6.54,0.2-9.811c-1.76,0.11-3.32-0.56-4.4-1.939
	c-0.029-1.8-0.311-3.58-0.88-5.29c-4.71-1.87-9.44,0.12-14.07,1.149c-3.2,0.32-6.4,0.75-9.45,1.82c-0.69,1.4-1.25,2.96-2.5,3.98
	c-0.89-0.21-2.67-0.641-3.56-0.86c1.07,1.95,1.57,4.12,1.76,6.32c-2.4-1.5-2.66-4.55-3.68-6.94c-0.85-2.359,1.04-4.439,3.23-4.99
	c-0.39,1.511-1.55,3.19-0.04,4.541c0.23-0.521,0.68-1.561,0.91-2.07c-0.06,0.66-0.16,1.99-0.22,2.65
	c1.6-0.951,2.15-2.791,3.01-4.311C46.43,91.05,49.7,90.71,52.92,90.38z"/>
<path fill="#050505" d="M14.33,92.1c3.74,4.431,8.91,8.711,9.43,14.87c-1.06-0.92-1.53-2.26-2.12-3.479
	C19.86,99.28,15.48,96.65,14.33,92.1z"/>
<path fill="#050505" d="M49.43,93.96c2.87-0.569,5.83-1.19,8.7-0.229C56.37,96.48,51.05,97.1,49.43,93.96z"/>
<path fill="#050505" d="M33.62,100.859c-0.39-2.079-1.26-4.199-0.53-6.31c1.42,3.39,2.74,6.841,4.49,10.08
	c-0.31,0.09-0.94,0.271-1.25,0.36C35.43,103.609,34.54,102.23,33.62,100.859z"/>
<path fill="#050505" d="M88.95,108.439c1.28-3.869,3.771-7.159,5.899-10.59C94.08,101.8,92.04,105.84,88.95,108.439z"/>
<path fill="#050505" d="M32.35,101.27c1.36-0.26,2.05,2.33,1.52,3.33C32.29,105.01,31.54,102.34,32.35,101.27z"/>
<path fill="#050505" d="M71.79,107.82c-1.66-1.68-1.64-4.51-0.11-6.25C71.98,103.641,72,105.74,71.79,107.82z"/>
<path fill="#050505" d="M37.23,117.311c3.78,0.939,6.84,3.319,9.74,5.779c3.77,1.86,8.14,1.99,12.07,3.45
	c3.31-0.11,6.149-2.101,9.01-3.55c3.16-1.641,5.14-4.811,8.271-6.471c-0.811,3.511-2.521,7.391-6.1,8.82
	c-4.441,2.67-9.181,7.35-14.811,5.23c-4.32-0.961-7.19-4.641-11.36-5.891c-2.14-0.789-3.75-2.5-5.5-3.91
	C38.12,119.609,37.66,118.47,37.23,117.311z"/>
<path fill="#050505" d="M21.69,124.23c-0.07,0.89-1.18,2.729,0.32,2.83c1.3-0.721,2.52-0.15,3.69,0.35c-2.34,0.66-4.47,1.85-6.7,2.8
	c-1.25,5.86-1.97,11.83-4.34,17.41c-1.36,0.271-2.71,0.56-4.05,0.91c-0.73-5.811,2.58-11.03,3.6-16.591
	c0.38-2.529,0.73-5.08,1.4-7.549c1.75,2.51-0.91,5.779,0.59,8.299c0.19-0.08,0.59-0.22,0.79-0.289c-0.21-2.181,2.99-3.48,1.27-5.601
	C19.42,125.96,20.56,125.09,21.69,124.23 M15.09,133.2c-1.04,4.54-2.63,8.94-3.48,13.53c0.46,0.17,1.36,0.51,1.81,0.68
	c1.22-4.07,3.08-8.15,2.85-12.48C15.97,134.5,15.39,133.641,15.09,133.2z"/>
<path fill="#050505" d="M93.35,129.8c1.99,0.511,1.371,2.681,1.61,4.2c-0.06,2.12,0.92,4.01,1.681,5.92
	C92.55,138.561,93.43,133.189,93.35,129.8z"/>
<path fill="#FFFFFF" d="M15.09,133.2c0.3,0.44,0.88,1.3,1.18,1.729c0.23,4.33-1.63,8.41-2.85,12.48c-0.45-0.17-1.35-0.51-1.81-0.68
	C12.46,142.141,14.05,137.74,15.09,133.2z"/>
</svg>
