<?xml version="1.0" encoding="utf-8"?>
<!-- Generator: Adobe Illustrator 15.0.2, SVG Export Plug-In . SVG Version: 6.00 Build 0)  -->
<!DOCTYPE svg PUBLIC "-//W3C//DTD SVG 1.1//EN" "http://www.w3.org/Graphics/SVG/1.1/DTD/svg11.dtd">
<svg version="1.1" id="Layer_1" xmlns="http://www.w3.org/2000/svg" xmlns:xlink="http://www.w3.org/1999/xlink" x="0px" y="0px"
	 width="190px" height="207px" viewBox="0 0 190 207" enable-background="new 0 0 190 207" xml:space="preserve">
<path fill="#FFFFFF" d="M0,0h190v152c-0.5,0-1.5,0-2,0c0,3,0,6,0,9l-1,0.02c-0.029-15.02,0-30.039,0.02-45.06
	c0.021-1.649-0.229-3.3-0.859-4.84c-0.02-6.58-0.49-13.2-2.49-19.51c-1.561-5.17-4.79-9.82-5.24-15.28
	c-2.83-3.16-5.58-6.43-7.66-10.15c-2.56-4.32-3.699-9.27-5.72-13.84c-0.04-2.11-0.069-4.23-0.1-6.35
	c-4.46-5.56-8.341-11.55-12.32-17.45c-1.64-2.97-3.96-5.45-6.37-7.8C141,15.64,136.141,10.09,130.23,5.72
	c1.14-0.38,3.43-1.15,4.569-1.53c-3.479-1.32-7.229-1.11-10.85-1.61c-1.31-0.66-2.601-1.42-4.04-1.77
	c-16.92-0.06-33.72,3.22-49.87,8.17c-4.16,1.63-8.69,2.09-12.77,4c-2.21,1.08-5.25,1.05-6.63,3.38c-2.29,3.41-5.13,6.37-7.96,9.32
	c-3.4,4.38-6.35,9.29-10.94,12.58c-2.47-0.91-5.07-1.32-7.69-1.46c-0.02,0.54-0.05,1.62-0.07,2.16c0.6,0.03,1.79,0.09,2.38,0.12
	c0.66,0.34,1.98,1.01,2.64,1.34l0.02,0.66c-1.39-0.09-2.77-0.17-4.16-0.28c-4.35-1.89-9.07-0.46-13.14,1.42
	c4.79,1.01,9.71,0.8,14.57,0.771C22.2,49,18.92,55.86,13.08,60.41c-0.29-2.72-0.49-5.45-0.8-8.17c-0.76,0.72-1.47,1.49-2.12,2.3
	c-0.43,4.26-0.05,8.55-0.17,12.81c-1.62,2.83-3.17,5.69-4.96,8.41C5.01,77.4,5,79.05,4.97,80.7c1.17,0.61,2.35,1.21,3.52,1.83
	C7.18,86.3,6.44,90.4,3.53,93.36c0.43,12.41,0.38,24.88-0.52,37.27c-0.8-8.54-0.47-17.12-0.57-25.68
	c-0.1-9.03,1.23-18.07,0.27-27.09c-0.9-1.24-1.82-2.47-2.71-3.72V0z"/>
<path fill="#050505" d="M70.04,8.98c16.15-4.95,32.95-8.23,49.87-8.17c1.439,0.35,2.73,1.11,4.04,1.77
	c3.62,0.5,7.37,0.29,10.85,1.61c-1.14,0.38-3.43,1.15-4.569,1.53c5.91,4.37,10.77,9.92,16.029,15.021c2.41,2.35,4.73,4.83,6.37,7.8
	c3.979,5.9,7.86,11.89,12.32,17.45c0.03,2.12,0.06,4.24,0.1,6.35c2.021,4.57,3.16,9.52,5.72,13.84c2.08,3.72,4.83,6.99,7.66,10.15
	c0.45,5.46,3.68,10.11,5.24,15.28c2,6.31,2.471,12.93,2.49,19.51c0.63,1.54,0.88,3.19,0.859,4.84C187,130.98,186.971,146,187,161.02
	l1-0.02c0-3,0-6,0-9c0.5,0,1.5,0,2,0v12.38c-2.57,5.021-4.359,10.4-7.3,15.229c-2.64,7.551-5.87,14.881-8.94,22.271
	c-0.8,1.851-1.869,3.58-3.18,5.12h-1.45c5.62-13.24,7.31-28.24,16.101-40.03c-0.961-21.05-0.91-42.42-6.211-62.96
	c-2.17-9.15-4.66-18.24-7.59-27.18c-4.18-12.16-12.439-22.38-16.939-34.4c4.48,2.8,5.189,8.37,8.4,12.22
	c-0.121-2.62,0.239-5.57-1.521-7.76c-2.61-3.47-6.181-6.44-6.97-10.96l-0.94,0.27c0.08,2.12,0.149,4.23,0.101,6.34
	c-1.961-3.78-2.49-8.1-4.281-11.94c-1.01-2.34-3.43-3.39-5.51-4.56c0.69-0.36,2.07-1.07,2.76-1.42
	c-4.59-7.02-11.579-11.82-18.579-16.15c-2.88,2.24-5.601,4.67-8.511,6.87c2.781,0.57,6.541,0.03,7.601,3.36
	c-3.08,0.11-6.06-0.7-9.069-1.18c-3.051-0.44-6.121,1.74-6.771,4.75c-1.25,5.26,0.29,10.97-2,16.03
	c-2.841,6.25-8.521,10.94-10.3,17.72c-1.041,3.27-0.45,6.71,0.01,10.02c-3.1,0.57-7.07,3.43-9.69,0.39
	c0.85-0.46,2.56-1.39,3.42-1.86c-0.45-2.98-1.81-5.66-4.06-7.69c-1.85-12.92,9.46-23.46,7.13-36.41
	c1.09,0.53,2.181,1.061,3.261,1.59c0.549-0.22,1.639-0.68,2.18-0.9c0.66-1.63,1.32-3.25,1.959-4.88
	C89.23,14.41,74.88,11.5,61.02,14.98c-6.5,1.53-12.05,5.86-15.39,11.6c-2.63,4.76-6.51,8.57-10.36,12.33
	c7.12,5.03,16.28,4.44,24.11,7.68c2.58,0.97,4.43,3.06,6.1,5.16c-2.47,0.75-5,1.33-7.55,1.77c5.14,8,11.73,14.97,19.44,20.54
	c-2.22,0.66-4.52,0.85-6.82,0.88c2.02,2.22,4.26,4.22,6.39,6.33c-1.72,0.09-3.45,0.14-5.17,0.16c-2.5-3.43-2.73-7.85-4.75-11.48
	c-4.12-4.23-10.3-6.07-16.08-6.15c-5.35,0.49-9.88,3.89-14.01,7.06c-4.9,3.74-7.74,9.98-7.17,16.14c0.56,6.45,2.6,12.66,3.24,19.109
	c0.32,3.801,3.37,6.711,6.62,8.32c4.5,2.131,9.7,2.36,14.57,1.66c1.82-1.1,3.14-2.84,4.63-4.33c5.3-5.779,11.09-11.31,14.72-18.36
	c2.55-4.56,3.82-9.68,4.53-14.82c-1.03-1.11-2.04-2.24-3.03-3.39c2.3,0.2,5.29,0.98,5.38,3.81c0.12,6.57-2.86,12.87-6.25,18.36
	c-5.31,6.89-10.06,14.44-16.94,19.91c-1.94,1.881-4.8,1.15-7.22,1.32c-3.17-0.14-6.44,0.36-9.54-0.38
	c-3.91-2.13-6.79-5.67-9.78-8.88c-0.05-5.78-0.29-11.92-3.88-16.75c-0.53-6.92,2.61-13.29,4.1-19.88
	c4.72-4.08,10.42-6.95,15.08-11.17c5.52-0.48,11.03,0.37,16.18,2.39c-4.4-5.9-8.85-12.15-15.43-15.8
	c-4.64-2.56-10.03-4.64-15.4-3.75c-2.29,2.13-3.19,5.29-5.29,7.58c-4.33,4.84-9.46,8.92-13.62,13.93
	C13.56,76,10.87,86.14,6.08,95.01C7.04,105.68,4.97,116.32,5.56,127c0.57,9.641,5.19,18.311,7.81,27.46
	c2.1,7.01,3.4,14.26,3.83,21.57c4.35,3.62,8.67,7.76,9.95,13.52c4.99,3.58,11.11,5.19,15.85,9.16c2.24,0.681,4.42,1.53,6.5,2.601
	c-0.06,0.72-0.17,2.149-0.23,2.859c-8.19-4.17-16.79-7.8-24.28-13.18c-1.44-4.49-3.9-8.57-7.85-11.28
	c0.6,9.66,4.26,18.64,8.33,27.29h-0.42c-2.68-2.7-5.75-5.41-6.83-9.189c-1.69-6.591-3.81-13.201-3.27-20.091
	c-3.65-6.06-5.9-12.96-10.56-18.399c-0.26-4.51-0.5-9.131-2.21-13.36c-2.74-6.08,0.31-13.06-2.18-19.19V74.14
	c0.89,1.25,1.81,2.48,2.71,3.72c0.96,9.02-0.37,18.06-0.27,27.09c0.1,8.56-0.23,17.14,0.57,25.68c0.9-12.39,0.95-24.86,0.52-37.27
	c2.91-2.96,3.65-7.06,4.96-10.83c-1.17-0.62-2.35-1.22-3.52-1.83c0.03-1.65,0.04-3.3,0.06-4.94c1.79-2.72,3.34-5.58,4.96-8.41
	c0.12-4.26-0.26-8.55,0.17-12.81c0.65-0.81,1.36-1.58,2.12-2.3c0.31,2.72,0.51,5.45,0.8,8.17C18.92,55.86,22.2,49,26.29,42.99
	c-4.86,0.03-9.78,0.24-14.57-0.771c4.07-1.88,8.79-3.31,13.14-1.42c1.39,0.11,2.77,0.19,4.16,0.28L29,40.42
	c-0.66-0.33-1.98-1-2.64-1.34c-0.59-0.03-1.78-0.09-2.38-0.12c0.02-0.54,0.05-1.62,0.07-2.16c2.62,0.14,5.22,0.55,7.69,1.46
	c4.59-3.29,7.54-8.2,10.94-12.58c2.83-2.95,5.67-5.91,7.96-9.32c1.38-2.33,4.42-2.3,6.63-3.38C61.35,11.07,65.88,10.61,70.04,8.98
	 M73.3,10.84c10.18-0.72,20.05,2.07,30.091,2.99c1.609-3.72,3.069-7.5,4.58-11.26C96.48,5.56,84.03,5.24,73.3,10.84 M109.77,2.17
	c0.021,3.97-0.49,7.99,0.461,11.9c5.229-1.41,7.949-6.29,11.279-10.08C117.609,3.33,113.721,2.53,109.77,2.17 M117.04,13.15
	c3.399-1.47,6.399-3.85,8.431-6.97C121.82,7.28,119.061,10.02,117.04,13.15 M105.971,16.11c-0.691,2.67-1.861,5.16-2.891,7.71
	c0.76,0.01,2.27,0.03,3.029,0.04c1.19-2.3,1.5-4.87,1.42-7.43C107.141,16.35,106.359,16.19,105.971,16.11 M99.01,32.21
	c1.03-2.73,1.65-5.59,1.86-8.5C99.58,26.24,96.63,29.47,99.01,32.21 M101.689,40.01c1.67-4.83,4.461-9.38,4.83-14.58
	C102.76,29.23,101.68,34.84,101.689,40.01 M104.83,39.15c1.609-1.81,3.24-3.8,3.25-6.36C106.46,34.59,105.4,36.8,104.83,39.15
	 M99.42,34.23c-1.23,0.46-2.13,2.29-1.391,3.46C99.57,38.33,101.311,34.55,99.42,34.23 M91.27,51.59c2.96-2.86,3.25-7.18,3.43-11.05
	C93.14,44.08,91.91,47.78,91.27,51.59 M53.49,48.28c2.37,1.54,4.97,2.81,7.89,2.43c-2.19-2.14-5.39-2.3-8.17-3.15
	C53.28,47.74,53.42,48.1,53.49,48.28 M91.95,56.48c0.99,1.45,1.99,2.88,2.99,4.33c1.08-3.5,1.61-7.21,0.669-10.8
	C94.45,52.2,93.32,54.41,91.95,56.48 M172.23,71.89c3.029,11.47,7.609,22.43,11.119,33.74c0.811-5.88-0.199-11.94-2.82-17.26
	c-1.619-3.25-2.84-6.69-3.539-10.26C174.91,76.46,173.439,74.23,172.23,71.89 M3.2,131.561c0.2,5.27-0.15,10.76,1.37,15.84
	c2.13,3.1,1.14,6.939,1.7,10.42c2.36,4.729,6.28,8.619,7.75,13.82c0.1-0.021,0.29-0.051,0.39-0.061
	c-0.87-7.21-3.14-14.189-6.38-20.68c-1.07-1.791-0.51-3.891-0.6-5.84C7.37,140.24,5.17,135.84,3.2,131.561z"/>
<path fill="#FFFFFF" d="M73.3,10.84c10.73-5.6,23.181-5.28,34.671-8.27c-1.511,3.76-2.971,7.54-4.58,11.26
	C93.35,12.91,83.48,10.12,73.3,10.84z"/>
<path fill="#FFFFFF" d="M109.77,2.17c3.951,0.36,7.84,1.16,11.74,1.82c-3.33,3.79-6.05,8.67-11.279,10.08
	C109.279,10.16,109.79,6.14,109.77,2.17z"/>
<path fill="#FFFFFF" d="M117.04,13.15c2.021-3.13,4.78-5.87,8.431-6.97C123.439,9.3,120.439,11.68,117.04,13.15z"/>
<path fill="#FFFFFF" d="M119.439,15.34c2.91-2.2,5.631-4.63,8.511-6.87c7,4.33,13.989,9.13,18.579,16.15
	c-0.689,0.35-2.069,1.06-2.76,1.42c2.08,1.17,4.5,2.22,5.51,4.56c1.791,3.84,2.32,8.16,4.281,11.94
	c0.049-2.11-0.021-4.22-0.101-6.34l0.94-0.27c0.789,4.52,4.359,7.49,6.97,10.96c1.76,2.19,1.399,5.14,1.521,7.76
	c-3.211-3.85-3.92-9.42-8.4-12.22c4.5,12.02,12.76,22.24,16.939,34.4c2.93,8.94,5.42,18.03,7.59,27.18
	c5.301,20.54,5.25,41.91,6.211,62.96c-8.791,11.79-10.48,26.79-16.101,40.03H25.47c-4.07-8.65-7.73-17.63-8.33-27.29
	c3.95,2.71,6.41,6.79,7.85,11.28c7.49,5.38,16.09,9.01,24.28,13.18c0.06-0.71,0.17-2.14,0.23-2.859c-2.08-1.07-4.26-1.92-6.5-2.601
	c-4.74-3.97-10.86-5.58-15.85-9.16c-1.28-5.76-5.6-9.899-9.95-13.52c-0.43-7.311-1.73-14.561-3.83-21.57
	c-2.62-9.149-7.24-17.819-7.81-27.46c-0.59-10.68,1.48-21.32,0.52-31.99c4.79-8.87,7.48-19.01,6.35-29.13
	c4.16-5.01,9.29-9.09,13.62-13.93c2.1-2.29,3-5.45,5.29-7.58c5.37-0.89,10.76,1.19,15.4,3.75c6.58,3.65,11.03,9.9,15.43,15.8
	c-5.15-2.02-10.66-2.87-16.18-2.39c-4.66,4.22-10.36,7.09-15.08,11.17c-1.49,6.59-4.63,12.96-4.1,19.88
	c3.59,4.83,3.83,10.97,3.88,16.75c2.99,3.21,5.87,6.75,9.78,8.88c3.1,0.74,6.37,0.24,9.54,0.38c2.42-0.17,5.28,0.561,7.22-1.32
	c6.88-5.47,11.63-13.02,16.94-19.91c3.39-5.49,6.37-11.79,6.25-18.36c-0.09-2.83-3.08-3.61-5.38-3.81c0.99,1.15,2,2.28,3.03,3.39
	c-0.71,5.14-1.98,10.26-4.53,14.82c-3.63,7.05-9.42,12.581-14.72,18.36c-1.49,1.49-2.81,3.23-4.63,4.33
	c-4.87,0.7-10.07,0.471-14.57-1.66c-3.25-1.609-6.3-4.52-6.62-8.32C32.36,99.66,30.32,93.45,29.76,87
	c-0.57-6.16,2.27-12.4,7.17-16.14c4.13-3.17,8.66-6.57,14.01-7.06c5.78,0.08,11.96,1.92,16.08,6.15c2.02,3.63,2.25,8.05,4.75,11.48
	c1.72-0.02,3.45-0.07,5.17-0.16c-2.13-2.11-4.37-4.11-6.39-6.33c2.3-0.03,4.6-0.22,6.82-0.88c-7.71-5.57-14.3-12.54-19.44-20.54
	c2.55-0.44,5.08-1.02,7.55-1.77c-1.67-2.1-3.52-4.19-6.1-5.16c-7.83-3.24-16.99-2.65-24.11-7.68c3.85-3.76,7.73-7.57,10.36-12.33
	c3.34-5.74,8.89-10.07,15.39-11.6c13.86-3.48,28.21-0.57,42.089,1.3c-0.639,1.63-1.299,3.25-1.959,4.88
	c-0.541,0.22-1.631,0.68-2.18,0.9c-1.08-0.53-2.171-1.06-3.261-1.59c2.33,12.95-8.98,23.49-7.13,36.41
	c2.25,2.03,3.61,4.71,4.06,7.69c-0.86,0.47-2.57,1.4-3.42,1.86c2.62,3.04,6.59,0.18,9.69-0.39c-0.46-3.31-1.051-6.75-0.01-10.02
	c1.779-6.78,7.459-11.47,10.3-17.72c2.29-5.06,0.75-10.77,2-16.03c0.649-3.01,3.72-5.19,6.771-4.75c3.01,0.48,5.989,1.29,9.069,1.18
	C125.98,15.37,122.221,15.91,119.439,15.34 M119.6,37.91c3.41-1.47,7.101-3.54,10.92-2.27c6.51,2.08,10.291,8.2,14.631,13.03
	c1.899,2.42,4.689,4.11,6.05,6.94c3.1,6.26,6.31,12.47,9.239,18.81c1.891,6.6-1.14,14.58-7.549,17.53
	c-8.181,3.89-17.811,2.92-26.221,0.27c-5.71-2.03-12.109-5-14.29-11.16c-1.64-4.01-4.59-7.25-7.38-10.49
	c0.54-5.94,2.58-11.74,5.971-16.65c4.869-7.5,12.52-12.34,19.76-17.25c-5.971-1.82-10.08,3.56-14.15,6.87
	c-8.42,7.09-14.801,17.81-13.2,29.18c4.841,3.88,5.511,10.65,9.79,14.96c4.99,4.97,11.83,7.6,18.66,8.81
	c8.59,1.43,18.109,0.83,25.47-4.25c5.2-3.71,7.49-10.64,5.96-16.78c-2.1-9.1-8.41-16.42-11.59-25.1c-1.689-0.76-3.359-1.59-5-2.45
	c-0.68-5.16-6-7.41-7.75-12.01c-4.949-2.11-10.609-4.05-15.96-2.31C120.971,34.14,120.3,36.21,119.6,37.91 M122.5,59.44
	c-3.85,3.51-2.279,10.55,2.109,12.92c5.221,3.15,11.91,2.05,16.931-0.97c0.3-3.71,0.62-7.92-1.94-10.97
	C135.68,55.04,127.21,55.25,122.5,59.44 M43.68,82.48c0.05,3.56-0.17,7.14,0.07,10.7c3.49,4.39,9.91,4.71,14.62,2.2
	c3.74-4.86,0.86-13.09-5.13-14.59C49.95,79.66,46.59,80.93,43.68,82.48 M92.37,155.609c-8.43,2.281-17.44,6.551-21.29,14.891
	c9.45-6.35,19.3-13.05,30.88-14.49c7.42-1.5,14.771,1.7,22.2,0.46c2.8,1.44,5.6,3.03,8.72,3.7c1.39-0.05,3.66,0.02,3.03-2.04
	C122.25,152.391,106.641,152.03,92.37,155.609z"/>
<path fill="#FFFFFF" d="M105.971,16.11c0.389,0.08,1.17,0.24,1.559,0.32c0.08,2.56-0.229,5.13-1.42,7.43
	c-0.76-0.01-2.27-0.03-3.029-0.04C104.109,21.27,105.279,18.78,105.971,16.11z"/>
<path fill="#FFFFFF" d="M99.01,32.21c-2.38-2.74,0.57-5.97,1.86-8.5C100.66,26.62,100.04,29.48,99.01,32.21z"/>
<path fill="#FFFFFF" d="M101.689,40.01c-0.01-5.17,1.07-10.78,4.83-14.58C106.15,30.63,103.359,35.18,101.689,40.01z"/>
<path fill="#FFFFFF" d="M104.83,39.15c0.57-2.35,1.63-4.56,3.25-6.36C108.07,35.35,106.439,37.34,104.83,39.15z"/>
<path fill="#050505" d="M119.6,37.91c0.7-1.7,1.371-3.77,3.36-4.32c5.351-1.74,11.011,0.2,15.96,2.31c1.75,4.6,7.07,6.85,7.75,12.01
	c1.641,0.86,3.311,1.69,5,2.45c3.18,8.68,9.49,16,11.59,25.1c1.53,6.14-0.76,13.07-5.96,16.78c-7.36,5.08-16.88,5.68-25.47,4.25
	c-6.83-1.21-13.67-3.84-18.66-8.81c-4.279-4.31-4.949-11.08-9.79-14.96c-1.601-11.37,4.78-22.09,13.2-29.18
	c4.07-3.31,8.18-8.69,14.15-6.87c-7.24,4.91-14.891,9.75-19.76,17.25c-3.391,4.91-5.431,10.71-5.971,16.65
	c2.79,3.24,5.74,6.48,7.38,10.49c2.181,6.16,8.58,9.13,14.29,11.16c8.41,2.65,18.04,3.62,26.221-0.27
	c6.409-2.95,9.439-10.93,7.549-17.53c-2.93-6.34-6.14-12.55-9.239-18.81c-1.36-2.83-4.15-4.52-6.05-6.94
	c-4.34-4.83-8.121-10.95-14.631-13.03C126.7,34.37,123.01,36.44,119.6,37.91z"/>
<path fill="#FFFFFF" d="M99.42,34.23c1.891,0.32,0.15,4.1-1.391,3.46C97.29,36.52,98.189,34.69,99.42,34.23z"/>
<path fill="#FFFFFF" d="M91.27,51.59c0.64-3.81,1.87-7.51,3.43-11.05C94.52,44.41,94.23,48.73,91.27,51.59z"/>
<path fill="#FFFFFF" d="M53.49,48.28c-0.07-0.18-0.21-0.54-0.28-0.72c2.78,0.85,5.98,1.01,8.17,3.15
	C58.46,51.09,55.86,49.82,53.49,48.28z"/>
<path fill="#FFFFFF" d="M91.95,56.48c1.37-2.07,2.5-4.28,3.659-6.47c0.94,3.59,0.41,7.3-0.669,10.8
	C93.94,59.36,92.94,57.93,91.95,56.48z"/>
<path fill="#050505" d="M122.5,59.44c4.71-4.19,13.18-4.4,17.1,0.98c2.561,3.05,2.24,7.26,1.94,10.97
	c-5.021,3.02-11.71,4.12-16.931,0.97C120.221,69.99,118.65,62.95,122.5,59.44 M129.45,59.28c-3.431,0.63-5.56,3.46-6.729,6.52
	c1.399,1.77,2.75,3.75,4.879,4.69c3.461,1.84,8.561,0.92,10.48-2.69C140.51,62.98,134.16,57.14,129.45,59.28z"/>
<path fill="#FFFFFF" d="M129.45,59.28c4.71-2.14,11.06,3.7,8.63,8.52c-1.92,3.61-7.02,4.53-10.48,2.69
	c-2.129-0.94-3.479-2.92-4.879-4.69C123.891,62.74,126.02,59.91,129.45,59.28z"/>
<path fill="#FFFFFF" d="M172.23,71.89c1.209,2.34,2.68,4.57,4.76,6.22c0.699,3.57,1.92,7.01,3.539,10.26
	c2.621,5.32,3.631,11.38,2.82,17.26C179.84,94.32,175.26,83.36,172.23,71.89z"/>
<path fill="#050505" d="M43.68,82.48c2.91-1.55,6.27-2.82,9.56-1.69c5.99,1.5,8.87,9.73,5.13,14.59c-4.71,2.51-11.13,2.19-14.62-2.2
	C43.51,89.62,43.73,86.04,43.68,82.48 M48.15,84.19c-3.88,1.19-2.59,6.9-0.01,8.84c3.3,2.72,9.89,0.939,9.49-3.94
	C56.69,85.25,51.82,82.88,48.15,84.19z"/>
<path fill="#FFFFFF" d="M48.15,84.19c3.67-1.31,8.54,1.06,9.48,4.9c0.4,4.88-6.19,6.66-9.49,3.94
	C45.56,91.09,44.27,85.38,48.15,84.19z"/>
<path fill="#FFFFFF" d="M0,126.77c2.49,6.131-0.56,13.11,2.18,19.19c1.71,4.229,1.95,8.851,2.21,13.36
	c4.66,5.439,6.91,12.34,10.56,18.399c-0.54,6.89,1.58,13.5,3.27,20.091c1.08,3.779,4.15,6.489,6.83,9.189H0V126.77z"/>
<path fill="#FFFFFF" d="M3.2,131.561c1.97,4.279,4.17,8.68,4.23,13.5c0.09,1.949-0.47,4.049,0.6,5.84
	c3.24,6.49,5.51,13.47,6.38,20.68c-0.1,0.01-0.29,0.04-0.39,0.061c-1.47-5.201-5.39-9.091-7.75-13.82
	c-0.56-3.48,0.43-7.32-1.7-10.42C3.05,142.32,3.4,136.83,3.2,131.561z"/>
<path fill="#050505" d="M92.37,155.609c14.271-3.579,29.88-3.219,43.54,2.521c0.63,2.06-1.641,1.99-3.03,2.04
	c-3.12-0.67-5.92-2.26-8.72-3.7c-7.43,1.24-14.78-1.96-22.2-0.46c-11.58,1.44-21.43,8.141-30.88,14.49
	C74.93,162.16,83.94,157.891,92.37,155.609z"/>
<path fill="#FFFFFF" d="M182.7,179.609c2.94-4.829,4.729-10.209,7.3-15.229V207h-19.42c1.311-1.54,2.38-3.27,3.18-5.12
	C176.83,194.49,180.061,187.16,182.7,179.609z"/>
</svg>
