<?xml version="1.0" encoding="utf-8"?>
<!-- Generator: Adobe Illustrator 15.0.2, SVG Export Plug-In . SVG Version: 6.00 Build 0)  -->
<!DOCTYPE svg PUBLIC "-//W3C//DTD SVG 1.1//EN" "http://www.w3.org/Graphics/SVG/1.1/DTD/svg11.dtd">
<svg version="1.1" id="Layer_1" xmlns="http://www.w3.org/2000/svg" xmlns:xlink="http://www.w3.org/1999/xlink" x="0px" y="0px"
	 width="110px" height="123px" viewBox="0 0 110 123" enable-background="new 0 0 110 123" xml:space="preserve">
<path fill="#FFFFFF" d="M0,0h110v123H0V0 M39.98,7.58c-3.38,1.27-7.21,1.25-10.35,3.13c-4.42,4.01-6.79,9.78-11.68,13.3
	c-1.48-0.02-3.06-0.25-4.3,0.76c0.94,0.36,1.88,0.72,2.82,1.08c-1.12,0.55-1.81,1.46-2.07,2.75c-2.27,3.01-4.21,6.25-6.51,9.24
	c-0.1-1.68-0.22-3.37-0.36-5.05c-3.22,2.28-0.26,6.62-2.1,9.58c-1.41,2.47-2.77,5.17-1.64,8.08c1.33-1.28,1.37-3.21,2.03-4.82
	c0.41,3.15-0.94,6.07-2.36,8.78c0.34,0.09,1.01,0.26,1.34,0.35c2.5-4.14,3.52-8.93,3.16-13.729c2.92-4.7,7.23-8.36,10.4-12.89
	c6.92,0.3,12.31,5.18,15.97,10.65c-2.84-0.63-5.85-1.65-8.77-0.89c-3,1.83-5.73,4.07-8.68,5.98c-0.74,3.37-2.23,6.63-2.28,10.12
	c1.05,3.48,2.43,6.92,2.17,10.641c1.65,1.799,3.29,3.689,5.37,5.01c2.89,0.75,5.96,0.22,8.92,0.35c2.61-1.99,4.28-5.359,7.29-6.65
	c-0.41-2.08,1.99-3.41,2.83-5.12c2.34-3.76,4.9-8.44,3.05-12.9c-0.54,0.55-1.06,1.12-1.56,1.7c1.01,1.93,0.13,4.01-0.53,5.87
	c-2.09,5.78-6.67,10.1-10.8,14.45c-1.54,1.83-4.17,1.141-6.24,1.041c-3.16-0.301-6.68-2.41-6.88-5.881
	c-0.32-4.82-2.99-9.68-1.21-14.479c0.94-3.42,4.05-5.521,6.86-7.34c3.97-2.74,9.4-1.34,12.99,1.39c1.78,2.66,1.38,7.83,5.93,7.27
	c-0.76-1.38-2.49-2.34-2.76-3.93c0.72-0.16,2.16-0.49,2.88-0.65c-4.05-3.32-7.78-7.05-10.67-11.43c1.28-0.59,4.18,0.08,3.64-2.1
	c-4.37-4.03-11.06-2.72-15.75-6.21c4.63-4.311,7.57-10.3,13.04-13.68c7.97-2.7,16.48-0.42,24.51,0.84
	c-0.14,2.34-1.979,3.25-4.1,2.45c-0.05,1.31-0.15,3.93-0.19,5.24c1.31-0.38,2.129-1.2,2.45-2.45c0.17,0.02,0.52,0.07,0.689,0.1
	c-0.859,0.9-0.029,2.27-0.909,3.17c-0.97,0.02-1.95,0.05-2.92,0.09c-0.39,2.1-1.18,4.08-2.1,5.99c0.42,0.71,0.84,1.41,1.28,2.11
	l1.18-1.86c-0.41,1.689-0.94,3.35-1.34,5.04c-0.38-1.44-0.84-2.87-1.61-4.16c-0.4,2.8-1.64,6.04,0.28,8.57
	c1.42,1.57,0.62,3.54-0.2,5.18c1.84-0.41,3.68-0.86,5.5-1.35c-1.169-2.12-2.66-4-4.449-5.62c0.81-0.96,1.62-1.93,2.43-2.9
	c0.14,1.38-0.85,3.59,1.06,4.06c1.57-4.31,4.53-7.83,6.84-11.73c-0.521-0.55-1.03-1.09-1.561-1.63l-1.16,1.71
	c-0.32-2.17,1.58-1.9,3.041-1.93c-0.061-2.52-0.201-5.12,0.779-7.52c-0.641-0.52-1.25-0.55-1.85-0.08
	c-0.83,0.94-1.95,1.54-2.961,2.26c0.44-1.53,0.74-3.15,1.521-4.55l0.69-0.26c2.77-1.11,1.72-4.86,0.81-6.95
	c-2.11,0.27-2.021,3.72-3.13,5.35c-4.72-0.78-9.4-1.91-14.2-2.04c1.63-1.81,4.28-1.87,6.5-2.49C56,4.95,62.1,3.37,68.13,4.75
	c-1.93,2.55-6.38,5.24-4.55,8.94c2.23-1.83,4.92-0.23,7.38-0.2c-0.41-1.82-2.17-2.06-3.75-2.31c1.569-1.22,3.011-2.6,4.511-3.89
	c3.469,2.61,7.1,5.2,9.59,8.83c-0.041,0.41-0.131,1.25-0.181,1.67c2.86,2.2,3.32,5.81,4.21,9.06c0.42-1.24,0.83-2.48,1.25-3.71
	c0.08,0.9,0.16,1.8,0.24,2.7c1.859,2.33,4.66,4.54,4.199,7.89c-1.619-2.23-2.6-4.92-4.76-6.73c1.631,6.61,6.521,11.79,8.78,18.16
	c2.39,7.5,4.841,15.02,5.96,22.84c2.891,9.76,1.211,19.98,1.881,29.97c0.299,1.37-0.5,2.511-1.311,3.5
	c-1.859,6.54-5.62,12.54-6,19.46c3.54-1.939,3.561-6.699,4.88-10.109c1.11-5.61,5.771-9.98,5.96-15.82
	c-0.25-1.7-0.17-4.17-2.29-4.65c-0.101-9.81,0.649-19.649-0.29-29.419c-0.42-5.11-3.04-9.6-4.449-14.43
	c-2.461-3.93-5.41-7.73-6.351-12.39c-0.81-4.28-1.88-8.86-5.06-12.05c-4.82-5.15-8.121-12.04-14.57-15.45
	c0.119-0.61,0.34-1.82,0.46-2.42c-4.08,0.43-7.79-1.87-11.841-1.64C54.39,2.55,47.07,4.99,39.98,7.58 M66.58,24.02
	c0.72,0.02,2.16,0.06,2.87,0.08c-6.021,4.5-12.37,10.6-11.94,18.79c2.61,4.36,4.37,9.88,9.27,12.26
	c6.291,3.31,14.521,4.13,20.771,0.34c3.89-2.3,5.2-7.45,3.55-11.53c-1.72-4.13-3.92-8.06-6.129-11.94
	c-3.281-2.5-4.941-6.45-8.091-9.08C73.65,21.46,68.85,20.41,66.58,24.02 M7.35,27.44c2.62,0.35,5.5,0.31,7.68-1.4
	C12.6,26.17,8.47,24.03,7.35,27.44 M1.2,45.92c-0.28,4.71-0.65,9.41-0.76,14.12c0.24,5.649,0.78,11.3,0.5,16.96
	c-0.17,2.99-1.09,5.939-0.55,8.96c0.8-0.66,1.57-1.36,2.32-2.069c-1-9.281-0.18-18.61-0.43-27.911C2.18,52.62,3.38,48.87,1.2,45.92
	 M24.57,49.38c-1.1,1.88-0.6,4.4-0.26,6.47c2.39,3.01,9.09,2.84,9.21-1.82C33.88,49.45,27.96,46.69,24.57,49.38 M3.05,55.08
	C2.1,62.73,3.06,70.43,2.73,78.109C4.26,85.34,6.12,92.561,8.16,99.7c0.61-1.16,1.79-2.39,0.75-3.79
	C7.52,88.2,3.27,80.95,4.23,72.939c0-4.649-0.41-9.31-0.01-13.959C4.76,57.49,3.75,56.25,3.05,55.08 M1.25,87.189
	C2.2,93.82,5.27,99.84,8.56,105.58c1.61,5.109-0.14,12.51,5.41,15.62c-1.54-4.57-3.44-9.101-3.5-14.011
	c3.16,1.871,3.13,6.311,6.43,7.94c3.6,2.2,7.28,4.29,11.2,5.87c-1.8-3.97-6.58-4.82-9.96-6.98c-3.06-1.449-3.13-5.43-5.74-7.39
	c-1.86-1.37-2.5-3.489-2.31-5.729c-0.59,0.25-1.18,0.479-1.77,0.709C5.23,96.68,2.65,91.22,2.99,85.25
	C2.41,85.891,1.83,86.54,1.25,87.189 M57.85,97.391c-4.52,1.399-9.26,0.27-13.879,0.18c-3.06-0.021-5.82-3.021-8.9-1.301
	c6.36,3.681,14.19,3.851,21.31,3c5.99-1.1,13.21-3.199,15.89-9.239C67.67,92.84,63.2,96.141,57.85,97.391z"/>
<path fill="#2F2F2F" d="M39.98,7.58c7.09-2.59,14.41-5.03,22.049-5.03C66.08,2.32,69.79,4.62,73.87,4.19
	c-0.12,0.6-0.341,1.81-0.46,2.42c6.449,3.41,9.75,10.3,14.57,15.45c3.18,3.19,4.25,7.77,5.06,12.05c0.94,4.66,3.89,8.46,6.351,12.39
	c1.409,4.83,4.029,9.32,4.449,14.43c0.939,9.77,0.189,19.61,0.29,29.419c2.12,0.48,2.04,2.95,2.29,4.65
	c-0.189,5.84-4.85,10.21-5.96,15.82c-1.319,3.41-1.34,8.17-4.88,10.109c0.38-6.92,4.141-12.92,6-19.46
	c0.811-0.989,1.609-2.13,1.311-3.5c-0.67-9.989,1.01-20.21-1.881-29.97c-1.119-7.82-3.57-15.34-5.96-22.84
	C92.79,38.79,87.9,33.61,86.27,27c2.16,1.81,3.141,4.5,4.76,6.73c0.461-3.35-2.34-5.56-4.199-7.89c-0.08-0.9-0.16-1.8-0.24-2.7
	c-0.42,1.23-0.83,2.47-1.25,3.71c-0.89-3.25-1.35-6.86-4.21-9.06c0.05-0.42,0.14-1.26,0.181-1.67c-2.49-3.63-6.121-6.22-9.59-8.83
	c-1.5,1.29-2.941,2.67-4.511,3.89c1.58,0.25,3.34,0.49,3.75,2.31c-2.46-0.03-5.149-1.63-7.38,0.2c-1.83-3.7,2.62-6.39,4.55-8.94
	C62.1,3.37,56,4.95,50.05,5.99c-2.22,0.62-4.87,0.68-6.5,2.49c4.8,0.13,9.48,1.26,14.2,2.04c1.109-1.63,1.02-5.08,3.13-5.35
	c0.91,2.09,1.96,5.84-0.81,6.95l-0.69,0.26c-0.78,1.4-1.08,3.02-1.521,4.55c1.011-0.72,2.131-1.32,2.961-2.26
	c0.6-0.47,1.209-0.44,1.85,0.08c-0.98,2.4-0.84,5-0.779,7.52c-1.461,0.03-3.361-0.24-3.041,1.93l1.16-1.71
	c0.53,0.54,1.04,1.08,1.561,1.63c-2.311,3.9-5.271,7.42-6.84,11.73c-1.91-0.47-0.92-2.68-1.06-4.06c-0.81,0.97-1.62,1.94-2.43,2.9
	c1.79,1.62,3.28,3.5,4.449,5.62c-1.819,0.49-3.66,0.94-5.5,1.35c0.82-1.64,1.62-3.61,0.2-5.18c-1.92-2.53-0.68-5.77-0.28-8.57
	c0.77,1.29,1.23,2.72,1.61,4.16c0.4-1.69,0.93-3.35,1.34-5.04l-1.18,1.86c-0.44-0.7-0.86-1.4-1.28-2.11
	c0.92-1.91,1.71-3.89,2.1-5.99c0.97-0.04,1.95-0.07,2.92-0.09c0.88-0.9,0.05-2.27,0.909-3.17c-0.17-0.03-0.52-0.08-0.689-0.1
	c-0.32,1.25-1.14,2.07-2.45,2.45c0.04-1.31,0.14-3.93,0.19-5.24c2.12,0.8,3.96-0.11,4.1-2.45c-8.03-1.26-16.54-3.54-24.51-0.84
	c-5.47,3.38-8.41,9.37-13.04,13.68c4.69,3.49,11.38,2.18,15.75,6.21c0.54,2.18-2.36,1.51-3.64,2.1c2.89,4.38,6.62,8.11,10.67,11.43
	c-0.72,0.16-2.16,0.49-2.88,0.65c0.27,1.59,2,2.55,2.76,3.93c-4.55,0.56-4.15-4.61-5.93-7.27c-3.59-2.73-9.02-4.13-12.99-1.39
	c-2.81,1.82-5.92,3.92-6.86,7.34c-1.78,4.8,0.89,9.66,1.21,14.479c0.2,3.471,3.72,5.58,6.88,5.881c2.07,0.1,4.7,0.789,6.24-1.041
	c4.13-4.35,8.71-8.669,10.8-14.45c0.66-1.86,1.54-3.94,0.53-5.87c0.5-0.58,1.02-1.15,1.56-1.7c1.85,4.46-0.71,9.14-3.05,12.9
	c-0.84,1.71-3.24,3.04-2.83,5.12c-3.01,1.291-4.68,4.66-7.29,6.65c-2.96-0.13-6.03,0.4-8.92-0.35c-2.08-1.32-3.72-3.211-5.37-5.01
	C17.03,60.92,15.65,57.48,14.6,54c0.05-3.49,1.54-6.75,2.28-10.12c2.95-1.91,5.68-4.15,8.68-5.98c2.92-0.76,5.93,0.26,8.77,0.89
	c-3.66-5.47-9.05-10.35-15.97-10.65c-3.17,4.53-7.48,8.19-10.4,12.89c0.36,4.8-0.66,9.59-3.16,13.729c-0.33-0.09-1-0.26-1.34-0.35
	c1.42-2.71,2.77-5.63,2.36-8.78c-0.66,1.61-0.7,3.54-2.03,4.82c-1.13-2.91,0.23-5.61,1.64-8.08c1.84-2.96-1.12-7.3,2.1-9.58
	c0.14,1.68,0.26,3.37,0.36,5.05c2.3-2.99,4.24-6.23,6.51-9.24c0.26-1.29,0.95-2.2,2.07-2.75c-0.94-0.36-1.88-0.72-2.82-1.08
	c1.24-1.01,2.82-0.78,4.3-0.76c4.89-3.52,7.26-9.29,11.68-13.3C32.77,8.83,36.6,8.85,39.98,7.58 M56.93,23.97
	c1.391-1.82,2.24-3.96,2.791-6.17C57.689,19.15,57.189,21.71,56.93,23.97 M30.31,30.25c-0.22,1.41,2.23,2.4,3.27,1.55
	C33.83,30.36,31.36,29.57,30.31,30.25 M97.07,46.76c1.38,5.21,3.34,10.25,4.729,15.46C102.51,56.68,100.2,51.2,97.07,46.76z"/>
<path fill="#FFFFFF" d="M56.93,23.97c0.26-2.26,0.76-4.82,2.791-6.17C59.17,20.01,58.32,22.15,56.93,23.97z"/>
<path fill="#2F2F2F" d="M66.58,24.02c2.27-3.61,7.07-2.56,10.3-1.08c3.149,2.63,4.81,6.58,8.091,9.08
	c2.209,3.88,4.409,7.81,6.129,11.94c1.65,4.08,0.34,9.23-3.55,11.53c-6.25,3.79-14.479,2.97-20.771-0.34
	c-4.899-2.38-6.659-7.9-9.27-12.26C57.08,34.7,63.43,28.6,69.45,24.1C68.74,24.08,67.3,24.04,66.58,24.02 M69.57,23.33
	c0.82,0.17,2.449,0.51,3.27,0.68c-5.92,3.88-12.02,8.67-13.63,15.97c-1.239,2.59,1.22,4.54,2.39,6.56c1.51,2.1,2.17,5.01,4.631,6.27
	c5.479,3.26,12.529,4.58,18.619,2.33c4.521-1.52,6.551-7.28,4.32-11.4c-2.32-4.5-4-9.5-7.8-13.021C78.26,27.26,75,22.15,69.57,23.33
	z"/>
<path fill="#FFFFFF" d="M69.57,23.33c5.43-1.18,8.689,3.93,11.8,7.39c3.8,3.521,5.479,8.521,7.8,13.021
	c2.23,4.12,0.2,9.88-4.32,11.4c-6.09,2.25-13.14,0.93-18.619-2.33c-2.461-1.26-3.121-4.17-4.631-6.27
	c-1.17-2.02-3.629-3.97-2.39-6.56c1.61-7.3,7.71-12.09,13.63-15.97C72.02,23.84,70.391,23.5,69.57,23.33 M70.37,35.4
	c-1.86,0.72-3.649,2.45-3.11,4.63c0.42,5.58,8.76,6.56,11.98,2.93C81,37.78,75.221,32.77,70.37,35.4z"/>
<path fill="#2F2F2F" d="M7.35,27.44c1.12-3.41,5.25-1.27,7.68-1.4C12.85,27.75,9.97,27.79,7.35,27.44z"/>
<path fill="#FFFFFF" d="M30.31,30.25c1.05-0.68,3.52,0.11,3.27,1.55C32.54,32.65,30.09,31.66,30.31,30.25z"/>
<path fill="#2F2F2F" d="M70.37,35.4c4.851-2.63,10.63,2.38,8.87,7.56c-3.221,3.63-11.561,2.65-11.98-2.93
	C66.721,37.85,68.51,36.12,70.37,35.4 M68.75,40.91c2.609,2.81,7.891,3.44,9.21-0.95c-1.2-1.57-2.47-4.26-4.899-3.48
	C70.57,36.6,69.15,38.65,68.75,40.91z"/>
<path fill="#FFFFFF" d="M68.75,40.91c0.4-2.26,1.82-4.31,4.311-4.43c2.43-0.78,3.699,1.91,4.899,3.48
	C76.641,44.35,71.359,43.72,68.75,40.91z"/>
<path fill="#2F2F2F" d="M1.2,45.92c2.18,2.95,0.98,6.7,1.08,10.06c0.25,9.3-0.57,18.629,0.43,27.911C1.96,84.6,1.19,85.3,0.39,85.96
	c-0.54-3.021,0.38-5.97,0.55-8.96c0.28-5.66-0.26-11.311-0.5-16.96C0.55,55.33,0.92,50.63,1.2,45.92z"/>
<path fill="#FFFFFF" d="M97.07,46.76c3.13,4.44,5.439,9.92,4.729,15.46C100.41,57.01,98.45,51.97,97.07,46.76z"/>
<path fill="#2F2F2F" d="M24.57,49.38c3.39-2.69,9.31,0.07,8.95,4.65c-0.12,4.66-6.82,4.83-9.21,1.82
	C23.97,53.78,23.47,51.26,24.57,49.38 M25.1,51.55c0.16,2.92,2.66,5.92,5.75,4.12C34.56,52.43,27.67,48.36,25.1,51.55z"/>
<path fill="#FFFFFF" d="M25.1,51.55c2.57-3.19,9.46,0.88,5.75,4.12C27.76,57.47,25.26,54.47,25.1,51.55z"/>
<path fill="#2F2F2F" d="M3.05,55.08c0.7,1.17,1.71,2.41,1.17,3.9c-0.4,4.65,0.01,9.31,0.01,13.959C3.27,80.95,7.52,88.2,8.91,95.91
	c1.04,1.4-0.14,2.63-0.75,3.79c-2.04-7.14-3.9-14.36-5.43-21.591C3.06,70.43,2.1,62.73,3.05,55.08z"/>
<path fill="#2F2F2F" d="M1.25,87.189c0.58-0.649,1.16-1.299,1.74-1.939c-0.34,5.97,2.24,11.43,5.33,16.359
	c0.59-0.229,1.18-0.459,1.77-0.709c-0.19,2.24,0.45,4.359,2.31,5.729c2.61,1.96,2.68,5.94,5.74,7.39c3.38,2.16,8.16,3.011,9.96,6.98
	c-3.92-1.58-7.6-3.67-11.2-5.87c-3.3-1.63-3.27-6.069-6.43-7.94c0.06,4.91,1.96,9.44,3.5,14.011c-5.55-3.11-3.8-10.511-5.41-15.62
	C5.27,99.84,2.2,93.82,1.25,87.189z"/>
<path fill="#2F2F2F" d="M57.85,97.391c5.351-1.25,9.82-4.551,14.42-7.36c-2.68,6.04-9.899,8.14-15.89,9.239
	c-7.12,0.851-14.95,0.681-21.31-3c3.08-1.72,5.84,1.28,8.9,1.301C48.59,97.66,53.33,98.79,57.85,97.391z"/>
</svg>
