<?xml version="1.0" encoding="utf-8"?>
<!-- Generator: Adobe Illustrator 15.0.2, SVG Export Plug-In . SVG Version: 6.00 Build 0)  -->
<!DOCTYPE svg PUBLIC "-//W3C//DTD SVG 1.1//EN" "http://www.w3.org/Graphics/SVG/1.1/DTD/svg11.dtd">
<svg version="1.1" id="Layer_1" xmlns="http://www.w3.org/2000/svg" xmlns:xlink="http://www.w3.org/1999/xlink" x="0px" y="0px"
	 width="121px" height="131px" viewBox="0 0 121 131" enable-background="new 0 0 121 131" xml:space="preserve">
<path fill="#FFFFFF" d="M0,0h121v131H0V0 M51.05,6.21C47.59,6.3,44.1,5.72,40.67,6.42C44.7,7.54,48.9,6.72,53,6.61
	c1.91-0.3,4.52-0.28,5.26-2.49C55.76,4.51,53.52,5.78,51.05,6.21 M69.96,7.48c-2.05,0.1-4.5,0.15-5.56,2.27
	c5.05-1.57,10.31-2.16,15.449-3.32C79.311,6,78.77,5.58,78.23,5.16C75.561,6.17,72.88,7.48,69.96,7.48 M46.59,14.23
	c2.65-0.62,5.14-3.28,7.97-1.86c3.68,1.35,8.12,4.18,11.73,1.05c-1.11,0.16-2.21,0.37-3.3,0.6c-3.37-0.78-6.63-1.99-10.04-2.57
	C50.47,10.93,48.05,12.28,46.59,14.23 M70.52,11.38c4.351,0.9,8.881,0.3,13.221,1.4c0.48,1.21,0.77,2.52,1.48,3.63
	c2.35,0.88,5.02,0.86,7.229,2.07c1.3,2.43,1.63,5.22,2.399,7.83c-0.01-2.68,0.36-5.65-1.43-7.9c-1.73-2.14-4.66-2.29-7.18-2.47
	c-1.1-1.48-1.27-4.4-3.54-4.4C78.66,11.19,74.55,10.71,70.52,11.38 M31.12,22.85c0.33,0.02,1,0.08,1.33,0.1
	c-0.36-5.05,3.85-7.97,6.88-11.23C34.47,13.41,31.89,18.02,31.12,22.85 M93.721,11.72c1.719,3.17,5.189,4.99,6.539,8.39
	c0.801,4.41-1.55,9.5,1.49,13.38c-0.27-2.5-1.029-4.98-0.641-7.51c0.301-2.51,0.851-5.22-0.459-7.55
	C99.05,15.58,96.221,13.73,93.721,11.72 M22.48,17.64c-2.87,1.9-5.76,4.03-6.8,7.5c1.83-1.65,3.47-3.49,5.38-5.04
	c2.6-2.21,5.81-4.01,7.11-7.36C26.05,14.11,24.65,16.32,22.48,17.64 M38.67,18.31c-1.2,1.76-2.62,3.34-3.86,5.07
	c2.1-1.05,3.78-2.69,5.33-4.4c3.88-0.13,8.36,0.23,11.22-2.97C47.25,17.35,43.04,18.56,38.67,18.31 M72.88,17.36
	c-7.729-1.61-15.06,1.62-22.46,3.17c-5.53,2.89-11.05,5.82-16.08,9.52c0.1,0.54,0.3,1.61,0.4,2.14c-0.36-0.37-1.08-1.13-1.44-1.51
	c-1.21-0.55-2.41-1.12-3.61-1.68c0.94,1.42,1.94,2.81,2.83,4.27c-1.6-1.06-3.14-2.22-4.71-3.33c0.55,1.69,1.17,3.39,2.31,4.78
	c-0.79,0.48-1.57,0.95-2.36,1.44l2.77,0.8c-1.09,0.18-2.19,0.35-3.28,0.49l-0.5-0.24c-3.07-1.06,0.49,3.02,0.98,4.01
	c-0.54,0.73-1.62,2.18-2.16,2.9c-0.01-0.75-0.03-2.25-0.04-3c-0.24-0.02-0.72-0.06-0.97-0.08c-0.11,4.04,0.21,9.29-3.8,11.61
	c1.5,10.76-0.54,21.64,0.7,32.411c0.52,2.6,0.96,5.229,0.69,7.899c1.81,4.05,6.77,7.19,5.64,12.14c0.49,0.131,1.46,0.381,1.95,0.51
	c-0.12-1.01-0.36-3.02-0.47-4.029c0.95,2.13,1.52,4.43,2.66,6.48c1.1,1.279,2.81,1.76,4.2,2.619c2.62,1.221,4.74,3.66,7.78,3.82
	c8.45,0.891,16.55,3.84,25.04,4.47c7.86,0.591,15.729-1.18,23-4.11c4.739-1.979,6.45-7.279,7.89-11.779
	c1.57-5.58,3.73-11.27,2.95-17.16c-0.521-2.85,0.601-5.59,1-8.37l-1.21-0.06c-0.21-3.19-0.721-6.35-0.82-9.54
	c-0.16-2.69,1.35-5.37,0.2-8c-1.399-6.2-6.67-11.17-6.851-17.61C94.21,42,93.32,41.66,92.42,41.33l0.311,1.75
	c-1.771-3-3.15-6.54-6.19-8.5c-2.101-1.32-5.88-0.67-5.97-4l1.15,1.1c0.709-0.64,2.109-1.91,2.809-2.55
	c2.091,2.64,3.391,5.84,5.851,8.19c0.75,1.57,1.92,2.88,3.3,3.93C92.54,36.07,89,32,86.109,27.72c0.951-1.18,1.91-2.34,2.91-3.46
	c-0.629-0.4-1.25-0.79-1.879-1.19l2.619-0.61c0.801,4.18,1.67,9.9,6.74,10.86c-1.16-1.31-2.46-2.47-3.811-3.58
	c-0.709-2.54-1.289-5.13-2.09-7.66c-2.85-0.22-5.5,0.81-8.05,1.95c1.21-1.811,2.72-3.39,3.94-5.2c-1.59,0.88-3.1,1.86-4.68,2.74
	c0.619-0.79,1.85-2.36,2.469-3.15c-3.319,1.87-6.449,0.08-9.739-0.49c0.36-0.58,1.09-1.73,1.46-2.3
	C74.95,16.19,73.91,16.76,72.88,17.36 M79.55,18.46c1.36,0.09,1.921-0.56,1.69-1.96C79.859,16.41,79.29,17.06,79.55,18.46
	 M106.3,26.49c-0.079,3.06,0.16,6.17,1.45,8.99C107.75,32.45,108.07,29.14,106.3,26.49 M17.01,40.76c-2.14,2.12-4.46,4.1-6.19,6.59
	c2.96-1.25,4.93-3.88,6.99-6.21c-0.15-2.7-0.52-5.68,1.18-8c1.67-1.94,3.79-3.44,5.39-5.45C19.14,29.63,15.26,35.09,17.01,40.76
	 M7.04,43.19c2.59-3.77,2.66-8.5,3.6-12.82C8.03,34.01,8.27,38.97,7.04,43.19 M26.72,33.96l-0.27,0.91
	C28.01,36.49,28.84,32.54,26.72,33.96 M101.1,35.77c0.311,2.4,0.771,4.92,2.301,6.88C103.109,40.22,102.79,37.67,101.1,35.77
	 M95.85,36.65c2.33,5.63,5.51,11.01,9.271,15.77c-1.181-4.21-4.181-7.51-6.05-11.39C98.23,39.41,97.24,37.86,95.85,36.65
	 M108.641,42.21c0.35,5.42-2.211,10.96-0.121,16.2c-0.069-5.45,1.021-10.82,1.101-16.26C109.37,42.16,108.891,42.2,108.641,42.21
	 M17.93,46.47c-1.29,4.89-2.04,9.94-1.66,15.01c1.29,0.44,2.57,0.97,3.95,0.89c-1.12-0.79-2.21-1.63-3.26-2.51
	C15.96,55.33,19.43,50.9,17.93,46.47 M113.09,48.61c0.03,4.07,0.92,8.18,2.84,11.79C115.609,56.35,114.58,52.38,113.09,48.61
	 M5.25,54.25c-3.17,3.54-3.69,9.05-1.59,13.26c-0.29-5.1-0.54-11.27,4.12-14.62c0.06-0.85,0.19-2.54,0.26-3.39
	C7.16,51.12,6.46,52.84,5.25,54.25 M106.561,60.36c0,2.35,0.06,4.74,1.02,6.94c0.29-2.76,0.18-5.53,0.061-8.29
	C107.37,59.34,106.83,60.02,106.561,60.36 M11.61,61.66c-1.21,3.85-1.51,7.9-1.32,11.9c0.83,1.26,1.66,2.52,2.58,3.72
	C10.52,72.311,11.93,66.91,11.61,61.66 M112.07,66.5c1.66,4.51,6.189,8.18,5.32,13.4c-0.94,3.199-2.811,6.029-4.011,9.14
	c0.479,1.13,0.96,2.26,1.47,3.38c-0.029-1.5-0.07-3.01-0.119-4.51C120.13,81.65,118.38,71.48,112.07,66.5 M105.88,67.59
	c1.41,4.01,3.601,7.67,5.12,11.63C110.971,74.82,108.8,70.77,105.88,67.59 M16.28,72.45c-0.08,3.29-0.11,6.58,0.12,9.85
	C17.43,79.109,18.11,75.51,16.28,72.45 M9.19,80.85l0.01,0.59c3.05,3.701,5.01,8.121,7.83,11.961C15.9,88.57,13.38,83.71,9.19,80.85
	 M104.32,94.29c3.27-3.79,2.83-9.149,2.27-13.771C106.07,85.15,105.689,89.8,104.32,94.29 M110.65,87.12
	c0.619,2.771,0.42,5.61,0.66,8.42c1.189-2.57,0.41-5.44,0.459-8.149C111.49,87.32,110.93,87.189,110.65,87.12 M9.14,91.67
	c0.87,3.36,1.92,6.689,2.14,10.18c1.37,0.271,2.74,0.541,4.12,0.75c-0.72-1.33-2.2-1.439-3.53-1.67
	C11.72,97.689,11.73,94.04,9.14,91.67 M19.75,94.561c0.67,2.659,2.37,4.85,3.54,7.279c1.18,2.15,0.73,4.69,0.98,7.03
	c0.31-0.32,0.93-0.97,1.24-1.3c-0.37-1.7-0.71-3.4-0.99-5.11C23.53,99.51,21.98,96.74,19.75,94.561 M108.779,95.55
	c-1.02,4.13-2.329,8.22-2.779,12.47c-1.3,0.45-2.6,0.91-3.91,1.351c-0.79,2.739-2.02,5.31-2.97,7.989
	c2.63-1.459,2.86-4.689,3.69-7.26c1.279-0.459,2.549-0.93,3.83-1.39C107.33,104.32,109.48,100.09,108.779,95.55 M20.16,102.41
	c0.88,4.18,2.22,8.24,3.31,12.359c2.36,0.75,4.79,1.25,7.2,1.851c0.01-0.3,0.04-0.91,0.06-1.22c-2.04-0.301-4.07-0.65-6.1-1.021
	C22.63,110.58,23.29,105.58,20.16,102.41 M30.74,110.51c0.48-1.479-0.18-3.14-0.68-4.55C27.69,105.96,28.85,110.74,30.74,110.51
	 M37.67,116.08c2.01,2.07,4.77,3.08,7.52,3.74C43.07,117.91,40.38,116.85,37.67,116.08z"/>
<path fill="#0D0D0D" d="M51.05,6.21c2.47-0.43,4.71-1.7,7.21-2.09C57.52,6.33,54.91,6.31,53,6.61c-4.1,0.11-8.3,0.93-12.33-0.19
	C44.1,5.72,47.59,6.3,51.05,6.21z"/>
<path fill="#0D0D0D" d="M69.96,7.48c2.92,0,5.601-1.31,8.271-2.32C78.77,5.58,79.311,6,79.85,6.43C74.71,7.59,69.45,8.18,64.4,9.75
	C65.46,7.63,67.91,7.58,69.96,7.48z"/>
<path fill="#0D0D0D" d="M46.59,14.23c1.46-1.95,3.88-3.3,6.36-2.78c3.41,0.58,6.67,1.79,10.04,2.57c1.09-0.23,2.189-0.44,3.3-0.6
	c-3.61,3.13-8.05,0.3-11.73-1.05C51.73,10.95,49.24,13.61,46.59,14.23z"/>
<path fill="#0D0D0D" d="M70.52,11.38c4.03-0.67,8.141-0.19,12.181,0.16c2.271,0,2.44,2.92,3.54,4.4c2.52,0.18,5.449,0.33,7.18,2.47
	c1.79,2.25,1.42,5.22,1.43,7.9c-0.77-2.61-1.1-5.4-2.399-7.83c-2.21-1.21-4.88-1.19-7.229-2.07c-0.711-1.11-1-2.42-1.48-3.63
	C79.4,11.68,74.87,12.28,70.52,11.38z"/>
<path fill="#0D0D0D" d="M31.12,22.85c0.77-4.83,3.35-9.44,8.21-11.13c-3.03,3.26-7.24,6.18-6.88,11.23
	C32.12,22.93,31.45,22.87,31.12,22.85z"/>
<path fill="#0D0D0D" d="M93.721,11.72c2.5,2.01,5.329,3.86,6.93,6.71c1.31,2.33,0.76,5.04,0.459,7.55
	c-0.389,2.53,0.371,5.01,0.641,7.51c-3.04-3.88-0.689-8.97-1.49-13.38C98.91,16.71,95.439,14.89,93.721,11.72z"/>
<path fill="#0D0D0D" d="M22.48,17.64c2.17-1.32,3.57-3.53,5.69-4.9c-1.3,3.35-4.51,5.15-7.11,7.36c-1.91,1.55-3.55,3.39-5.38,5.04
	C16.72,21.67,19.61,19.54,22.48,17.64z"/>
<path fill="#0D0D0D" d="M38.67,18.31c4.37,0.25,8.58-0.96,12.69-2.3c-2.86,3.2-7.34,2.84-11.22,2.97c-1.55,1.71-3.23,3.35-5.33,4.4
	C36.05,21.65,37.47,20.07,38.67,18.31z"/>
<path fill="#0D0D0D" d="M72.88,17.36c1.03-0.6,2.07-1.17,3.12-1.73c-0.37,0.57-1.1,1.72-1.46,2.3c3.29,0.57,6.42,2.36,9.739,0.49
	c-0.619,0.79-1.85,2.36-2.469,3.15c1.58-0.88,3.09-1.86,4.68-2.74c-1.221,1.81-2.73,3.39-3.94,5.2c2.55-1.14,5.2-2.17,8.05-1.95
	c0.801,2.53,1.381,5.12,2.09,7.66c1.351,1.11,2.65,2.27,3.811,3.58c-5.07-0.96-5.939-6.68-6.74-10.86l-2.619,0.61
	c0.629,0.4,1.25,0.79,1.879,1.19c-1,1.12-1.959,2.28-2.91,3.46C89,32,92.54,36.07,93.68,41.25c-1.38-1.05-2.55-2.36-3.3-3.93
	c-2.46-2.35-3.76-5.55-5.851-8.19c-0.699,0.64-2.1,1.91-2.809,2.55l-1.15-1.1c0.09,3.33,3.869,2.68,5.97,4
	c3.04,1.96,4.42,5.5,6.19,8.5l-0.311-1.75c0.9,0.33,1.79,0.67,2.689,1.01c0.181,6.44,5.451,11.41,6.851,17.61
	c1.149,2.63-0.36,5.31-0.2,8c0.1,3.19,0.61,6.35,0.82,9.54l1.21,0.06c-0.399,2.78-1.521,5.521-1,8.37
	c0.78,5.891-1.38,11.58-2.95,17.16c-1.439,4.5-3.15,9.8-7.89,11.779c-7.271,2.931-15.14,4.701-23,4.11
	c-8.49-0.63-16.59-3.579-25.04-4.47c-3.04-0.16-5.16-2.6-7.78-3.82c-1.39-0.859-3.1-1.34-4.2-2.619
	c-1.14-2.051-1.71-4.351-2.66-6.48c0.11,1.01,0.35,3.02,0.47,4.029c-0.49-0.129-1.46-0.379-1.95-0.51
	c1.13-4.949-3.83-8.09-5.64-12.14c0.27-2.67-0.17-5.3-0.69-7.899c-1.24-10.771,0.8-21.65-0.7-32.411c4.01-2.32,3.69-7.57,3.8-11.61
	c0.25,0.02,0.73,0.06,0.97,0.08c0.01,0.75,0.03,2.25,0.04,3c0.54-0.72,1.62-2.17,2.16-2.9c-0.49-0.99-4.05-5.07-0.98-4.01l0.5,0.24
	c1.09-0.14,2.19-0.31,3.28-0.49l-2.77-0.8c0.79-0.49,1.57-0.96,2.36-1.44c-1.14-1.39-1.76-3.09-2.31-4.78
	c1.57,1.11,3.11,2.27,4.71,3.33c-0.89-1.46-1.89-2.85-2.83-4.27c1.2,0.56,2.4,1.13,3.61,1.68c0.36,0.38,1.08,1.14,1.44,1.51
	c-0.1-0.53-0.3-1.6-0.4-2.14c5.03-3.7,10.55-6.63,16.08-9.52C57.82,18.98,65.15,15.75,72.88,17.36 M57.83,20.65
	c-0.02,0.5-0.06,1.5-0.08,2c-0.46,0.29-1.4,0.88-1.86,1.18l0.23-0.81l0.26-0.72c0.21-0.65,0.21-1.3-0.01-1.96
	c-3.68,1.33-8.03,2.48-9.97,6.26c-3.34,1.31-6.01,3.73-8.51,6.22c3.32,1.57,6.88,2.64,10.07,4.5l0.4-1.36
	c0.04,0.45,0.12,1.34,0.16,1.79c0.93,0.78,2.8,2.35,3.74,3.13c-1.18-2.96-2.99-5.79-3.11-9.06c1.19,2.23,2.35,4.5,3.05,6.95
	c1.23-1.43,1.5-3.22,1.53-5.06c-1.51-0.35-2.35-1.61-3.04-2.88c1.23,0.7,2.42,1.47,3.64,2.21c0.32,3.02,0.75,6.02,0.9,9.05
	c-0.53-1.42-1.02-2.85-1.48-4.3c-0.65,1.62-1.25,3.34-0.78,5.13c-1.02-0.83-2.09-1.6-3.19-2.32c1.3,1.53,2.76,2.91,4.26,4.24
	c-0.17,1.49-0.33,2.99-0.47,4.49c-0.86-0.42-2.59-1.25-3.46-1.66c1.06,1.13,1.03,3.82,2.68,4.14c0.26-0.4,0.78-1.19,1.04-1.59
	c0.82,0.96,0.87,2.23,0.74,3.44l-0.48,0.4c-0.16,1.23-0.47,3.68-0.63,4.91c0.45-0.36,1.33-1.09,1.77-1.46
	c0.67-1.32,1.46-2.57,2.4-3.72c-0.55,2.26-1.53,4.39-2.77,6.35c-0.58-0.47-1.16-0.94-1.74-1.41c-0.4,0.36-1.18,1.08-1.57,1.44
	c-3.83,0.65-7.58-0.88-11.41-0.86c-3,1.99-6.32,3.59-9.95,3.97c1.64,0.71,3.43,0.96,5.17,1.31c-3.26,0.72-6.42,1.83-9.48,3.16
	c1.11-1,2.25-1.98,3.38-2.97l0.75,0.93c0.12-0.58,0.36-1.72,0.48-2.3c-1.06,0.05-3.19,0.13-4.25,0.17
	c0.07-4.92,1.58-9.74,0.97-14.69c1.52-2.26,3.09-4.47,4.68-6.68c-0.68-0.37-2.03-1.1-2.7-1.47c-0.94,1.95-1.89,3.89-2.8,5.86
	c-0.26-0.04-0.77-0.12-1.03-0.15c-0.33,3.49-0.7,6.98-1.07,10.47c0.39-0.1,1.16-0.3,1.55-0.39l0.11,0.979l-2.42-0.33
	c0.37,0.6,1.12,1.79,1.5,2.39l-1.46-0.35c-0.05,5.26-0.32,10.54,1.07,15.681c3.03-2.25,6.72-3.5,9.39-6.26
	c-0.92-0.08-2.75-0.261-3.66-0.341c0.01-0.3,0.02-0.88,0.03-1.18c1.7,0.319,3.36,0.81,4.99,1.41c-0.3-0.48-0.89-1.46-1.19-1.94
	c1.97-0.83,3.57-2.23,4.81-3.95c9.69-3.01,18.99,3.41,28.76,2.25c3.181-2.79,7.5-1.64,11.26-2.42c2.101-1.11,3.601-3.05,5.15-4.79
	c-2.15,1.17-4.289,2.35-6.42,3.54c0.94-1.02,2.82-3.05,3.76-4.07c-1.77,0.84-3.52,1.73-5.289,2.57l0.609,0.96
	c-2.21-0.01-4.41,0-6.619-0.02c-1.73-1.63-3.73-3.01-5.24-4.87c-1.351-3.18,0.92-6.35,1.399-9.46c-1.25,0.66-3.76,1.97-5.021,2.63
	c0.121-0.97,0.351-2.9,0.471-3.87c-0.96,0.35-2.89,1.05-3.85,1.4c0.91-1.9,1.89-3.75,2.7-5.69c-4.58,1.69-3.03,7.41-3.55,11.1
	c-1.52-3.49-0.97-7.34-0.03-10.89c-0.03-2.979-1.56-6.55,1.31-8.729c-1.49-1.5-2.9-3.061-4.29-4.65c-0.78-1.18-1.78,0.62-2.45,0.92
	c-0.15-0.44-0.46-1.33-0.62-1.77c0.43-0.24,1.27-0.71,1.7-0.95c-0.1-0.44-0.29-1.31-0.38-1.75c3.37,2.06,3.87,6.46,7.18,8.58
	c-0.1-0.89-0.28-2.68-0.37-3.58c0.37,0.22,1.12,0.64,1.49,0.85c0.721-0.68,2.15-2.04,2.87-2.72c-0.44-0.55-0.88-1.1-1.33-1.64
	c-0.58,0.6-1.75,1.8-2.34,2.4c0.83-1.93,2.159-3.57,3.409-5.24c0.771,1.51,1.721,2.93,2.371,4.5c-0.221,1.23-1.49,1.97-2.19,2.95
	c0.78-0.28,2.33-0.83,3.11-1.11c-0.32-2.6,0.63-5.03,1.439-7.45c2.32,0.46,3.131-1.66,4.141-3.25
	C67.08,17.15,62.779,20.8,57.83,20.65 M74.311,25.04c1.379,0.47,3.379-1.41,3.279-2.79C76.141,21.81,73.88,23.45,74.311,25.04
	 M85.25,24.26l0.02,0.81c0.36,0.08,1.09,0.24,1.451,0.32c0-0.46,0-1.38,0-1.85C86.359,23.72,85.62,24.08,85.25,24.26 M37.27,30.5
	c1.3,0.12,3.52-1.22,3.13-2.68C39.03,27.58,37.08,29.09,37.27,30.5 M63.84,29.04c-0.91,0.33-2.72,1.01-3.63,1.35
	c0,0.62-0.01,1.87-0.02,2.49c-3.17,1.14-2.79,4.4-2.34,7.13C60.32,36.63,62.221,32.88,63.84,29.04 M78.88,32.78
	c-2.2,1.61-4.521,3.03-6.819,4.49l0.76-2.49c-0.471,0.53-1.4,1.59-1.87,2.12c0.95,0.29,1.85,1.31,2.899,0.73
	c2.51-1.02,5.601-1.37,7.4-3.57C80.471,33.63,79.67,33.2,78.88,32.78 M70.88,39.81c-0.601,1.38-1.18,2.76-1.78,4.14
	c3.43,0.08,5.78,3.76,4.291,6.9c-0.9,3.49-5.631,3.88-8.121,1.85c1.551,4.46,6.91,7.56,11.181,4.67c-1.89-0.2-3.79-0.23-5.681-0.14
	c-0.609-0.74-1.209-1.49-1.81-2.23c1.13,0.51,2.261,1.02,3.38,1.54c-0.02-0.52-0.07-1.56-0.09-2.09c1.54,0.62,2.939,2.19,4.74,1.84
	c1.029-0.51,3.949,0.67,3.789-1.15c-1.149-0.39-2.34-0.61-3.559-0.67c0-0.33,0.02-0.979,0.02-1.3c1.57,0.18,3.13,0.38,4.689,0.65
	c0.78-0.9,1.551-1.8,2.311-2.72c0.96,0.57,5.439,2.5,1,1.08l0.26,0.97c-1.21,0.11-2.061,0.64-2.54,1.6
	c2.81-0.08,5.61-0.32,8.41-0.04c0.81-7.16-0.53-16.13-7.14-20.27C79.939,36.59,75.73,39.17,70.88,39.81 M33,42.55
	c-1.17,1.71-2.27,3.47-3.37,5.23l1.99-0.35c0.05,0.39,0.17,1.18,0.23,1.57c0.17,0.33,0.51,0.98,0.68,1.3
	c0.67-1.62,0.85-3.36,0.99-5.08c0.25-0.01,0.75-0.01,1-0.01c-0.43,1.83-0.85,3.67-1.2,5.52c0.68-0.61,2.04-1.85,2.72-2.46l0.53,1.87
	c-1.57,0.79-3.15,1.73-4.99,1.32c-0.54-1.23-1.06-2.47-1.55-3.72c-0.34,0.52-1.03,1.56-1.37,2.08c1.41,1.15,2.64,2.5,3.69,3.98
	c-0.09,2.72-0.15,5.44-0.01,8.16c0.86-1.07,1.65-2.19,2.41-3.33c0.74-0.53,1.48-1.06,2.22-1.58c0.82,0.18,2.47,0.54,3.29,0.72
	c0.8-1.28,1.6-2.56,2.37-3.86c0.3,2.35,2.08,2.51,4.1,2.15c-0.05-0.47-0.17-1.4-0.22-1.87c0.93,0.47,1.86,0.94,2.79,1.42
	c-2.7,1.21-5.69,1.13-8.57,1.44c3.68,1.42,7.65,1.63,11.53,1.29c-0.06-4.37-2.03-8.44-4.7-11.81c-3.52-1.76-7.65-1.43-11.42-2.271
	c0.35,0.55,1.04,1.65,1.38,2.2c2.61-0.49,4.13,1.81,6.15,2.92c-1.62,0.8-3.24,1.64-4.8,2.57c0.85,0.7,1.7,1.4,2.55,2.1
	c-0.78,0.28-2.35,0.83-3.13,1.11c0.2-0.54,0.6-1.61,0.81-2.15c-0.11-0.33-0.32-1.01-0.43-1.35c-2.25,0.8-4.17,2.23-6.16,3.5
	c0.93-1.38,2.03-2.63,3.09-3.91c0.64,0.06,1.91,0.17,2.54,0.23c0.88-0.54,1.75-1.1,2.6-1.67c-0.15-0.84-0.31-1.67-0.48-2.51
	l-1.94,0.07l0.04,2.14c-1.28-1.79-2.24-3.76-2.83-5.87C34.9,43.37,33.64,42.82,33,42.55 M63.18,43.3
	C63.83,43.81,63.83,43.81,63.18,43.3 M92.29,43.97c0.351,4.42,1.229,8.771,1.29,13.21c-1.971,0.27-3.95,0.55-5.92,0.87
	c2.91,1.34,6.08,1.82,9.189,2.44c0.32,0.45,0.95,1.34,1.271,1.78c-1.97,0.08-3.94,0.07-5.92,0.03c-0.07,2.94-0.11,5.87-0.21,8.81
	c0.23-0.079,0.67-0.25,0.89-0.329c0.71-1.46,0.46-3.11,0.62-4.671c1.85-0.89,3.68-1.799,5.529-2.679
	C97.37,56.77,96.34,49.7,92.29,43.97 M23.28,52.33c-1.25,0.54-1.83,3.09-0.32,3.63C24.12,55.42,24.58,52.88,23.28,52.33
	 M84.029,56.98c1.601,0.4,4.73,1.09,5.671-0.44C88.1,55.94,85.09,55.58,84.029,56.98 M36.19,59.22
	C36.82,59.79,36.82,59.79,36.19,59.22 M85.67,61.82c2.051,8.05-1.641,16.11-1.12,24.071l1.671,0.709
	c0.229-0.819,0.709-2.459,0.949-3.279c0.32,0.63,0.62,1.26,0.92,1.899c-0.85,2.05-0.43,4.12,0.439,6.07
	c1.311-2.55,0.771-5.44,0.771-8.17c-0.47,0.06-1.399,0.19-1.86,0.26c1.66-7.22-0.709-14.59,0.69-21.84
	C87.51,61.61,86.279,61.75,85.67,61.82 M79.1,64.58c0.53,4.47,1.721,8.84,1.891,13.34c0.189,2.221-0.26,4.7,1.21,6.58
	c2-7.061,3.29-14.49,2.13-21.81C82.58,63.31,80.84,63.96,79.1,64.58 M89.27,74.82c0.82-3.78,0.86-7.721,0.11-11.51
	C88.37,67.061,88.82,71.02,89.27,74.82 M41.73,65.12c1.37,4.71,2.31,9.54,3.05,14.39c0.68-0.13,2.05-0.4,2.73-0.529
	c0.64-4.78-1.85-9.181-2.11-13.891C44.17,65.1,42.95,65.11,41.73,65.12 M47.19,64.88c0.6,6.351,1.59,12.66,2.64,18.95
	c0.96-0.78,1.91-1.561,2.87-2.33c-1.18-5.27-2.44-10.609-2.12-16.05C49.74,65.31,48.04,65.02,47.19,64.88 M75.439,64.55
	c1.121,5.3,1.031,10.761,1.931,16.08c0.53,0.11,1.601,0.33,2.13,0.44c0.17-5.521-1.4-10.92-1.34-16.44
	C77.48,64.61,76.12,64.57,75.439,64.55 M94.6,66.16c-0.279,1.98-0.229,3.96,0.17,5.939c0.74-0.789,1.49-1.58,2.23-2.38
	c1.91,3.25,1.83,7.08,1.08,10.65c0.18,1.25,0.3,2.51,0.38,3.771c-1.739-3.961-0.69-8.41-1.2-12.57c-1.289,0.689-2.73,0.979-4.14,1.3
	c-1.83,3.59,1.739,8.46-1.25,12.01c-0.12,2.07-0.101,4.17-0.66,6.19c-1.59,4.859,0.03,9.93,0.55,14.84
	c0.83,0.449,2.49,1.35,3.311,1.8c0.24-1.53,0.47-3.069,0.709-4.61c2.66-2.88,3.711-6.689,4.971-10.289
	c-1.439-9.65,1.1-19.541-1.3-29.13C98.141,65.06,96.55,66.07,94.6,66.16 M38.16,66.71c0.95,4.04,2.46,7.92,3.48,11.94
	c-0.35,0-1.06-0.01-1.41-0.01c-2-3.65-1.56-8.65-4.88-11.521c0.07,1.319,0.2,3.95,0.27,5.271c-0.4-0.541-1.21-1.631-1.61-2.171
	c-3.08,2-6.18,3.98-9.58,5.4c-0.35,3.47,0.88,6.739,1.44,10.11c0.2,0.939,0.78,1.34,1.75,1.189c-0.04-0.359-0.12-1.08-0.16-1.439
	c0.52,0.09,1.56,0.27,2.07,0.359c0.96-1.49,1.98-2.939,3.02-4.38c0.07-2.75,0.56-5.521,1.82-7.99c0.27,3.671-0.86,7.24-2.37,10.54
	c-0.77,1.2-1.23,3.44-3.41,2.2c0.3,1.31,0.59,2.62,0.84,3.931c-0.42-0.841-1.25-2.541-1.67-3.381c-0.85,1.69-1.47,3.84,0.02,5.381
	c1.49,1.659,0.86,3.859,0.79,5.85c1.05,1.58,2.13,3.15,3.31,4.65c0.69-0.031,1.37-0.131,2.04-0.291c0.88,1.271,1.69,2.601,2.35,4.01
	c-0.91-0.209-2.47-3.579-3.28-1.479c3.13,3.7,8.15,5.62,12.7,7.07c0.64-2.12-1.75-2.681-3.02-3.75
	c-3.33-2.271-4.12-6.521-5.46-10.05c0.72,0.09,2.17,0.26,2.89,0.35c-0.81-2.1-2.43-3.859-2.93-6.08c0.66,1,1.68,1.51,2.89,1.33
	c-0.75-5.391-5.5-10.78-2.05-16.24c0.31,1.86-0.24,3.71-0.28,5.57c0.57,2.76,1.65,5.38,2.49,8.061
	c1.91-3.881-0.92-8.631,1.72-12.301c0.22,3.01,0.49,6.03,0.6,9.051c0.62-0.091,1.84-0.271,2.46-0.36
	c-1.43-7.5-2.39-15.181-5.33-22.28C39.29,65.62,38.54,66.34,38.16,66.71 M51.62,65.76c1.02,6.25,2.17,12.5,2.68,18.82
	c0.85,0.17,2.55,0.52,3.4,0.689c0.84-5.66-3-10.51-2.87-16.06c0.29-0.101,0.88-0.3,1.17-0.399c1.1,3.58,1.72,7.6,2.89,11.289
	c0.98,0,2.93-0.01,3.9-0.01c-0.44-4.3-1.88-8.39-3.11-12.5C56.89,67.41,53.92,67.68,51.62,65.76 M70.68,65.94
	c0.641,4.02,0.91,8.09,1.271,12.14c1.39,0.109,2.78,0.23,4.17,0.34c-0.61-4.33-1.72-8.58-2.229-12.92
	C73.09,65.61,71.49,65.83,70.68,65.94 M65.87,67.23c0.97,4.33,2.67,8.479,4.819,12.359c0.271-4.5-1.09-8.83-1.5-13.27
	C68.359,66.54,66.7,67,65.87,67.23 M61.45,67.439c1.31,3.32,2.19,6.78,2.55,10.341c0.99-0.12,2.971-0.37,3.971-0.49
	c-1.301-3.21-2.801-6.351-3.451-9.771C63.75,67.5,62.221,67.46,61.45,67.439 M63.87,79.71c1.17,8.149,1.46,16.39,2.14,24.59
	c0.82,0.101,2.471,0.31,3.301,0.42C68.24,96.17,69,87.5,67.55,78.99C66.32,79.23,65.1,79.47,63.87,79.71 M72.42,79.609
	c1.391,5.99,2.83,12.261,1.33,18.381c1.48,2.779,0.439,7.18,4,8.359c-1.23-8.08-1.15-16.27-1.55-24.42
	C76.66,79.55,73.92,79.71,72.42,79.609 M45.48,80.22c1.92,9.101,0.53,19.261,5.74,27.41c0.53-0.19,1.58-0.58,2.11-0.78
	c-3.96-8.09-3.97-17.25-5.48-25.949C47.26,80.73,46.07,80.391,45.48,80.22 M59.05,82.37c-0.08,5.37,1.53,10.51,2.88,15.64
	c0.87,2.54-0.26,5.91,2.58,7.46c-0.08-7.92-0.789-15.84-1.789-23.7C61.5,81.97,60.28,82.17,59.05,82.37 M69.58,81.01
	c0.17,8.4,0.23,16.891,2.18,25.12c0.631-0.6,2.6-0.59,1.9-1.87c-1.881-6.29-0.49-12.88-1.29-19.29
	C72.15,83.34,72.05,80.67,69.58,81.01 M77.52,81.641c-0.039,7.18,1.49,14.27,1.301,21.439c0.479,0.15,1.439,0.45,1.92,0.6
	c0.34-5.72-0.77-11.359-1.211-17.05C79.17,84.859,79.88,82.34,77.52,81.641 M49.83,85.689c1.54,6.33,1.5,13.091,4.26,19.101
	c0.33,1.55,2.18,0.78,3.26,0.97c-3.46-6.939-4.4-14.689-4.21-22.34C52.03,84.16,50.93,84.92,49.83,85.689 M81.33,84.63
	c-0.439,6.57,1.48,13.101,0.66,19.66c-0.62,0.83-2-0.05-2.91,0.11c0.08,0.84,0.24,2.52,0.311,3.369
	c0.369-0.399,1.1-1.199,1.469-1.59c0.781,0.301,2.351,0.92,3.141,1.23l-1.26-0.561c1.32-3.459,0.57-7.199,0.65-10.8
	C83.09,92.22,83.529,87.99,81.33,84.63 M54.16,86.28c0.18,4.37,1.31,8.59,2.84,12.67c1.12,2.68,0.41,6.42,3.49,7.89
	c1.38-6.99-2.21-13.47-2.85-20.3C56.77,86.48,55.03,86.34,54.16,86.28 M23.59,88.189c-0.46,1.17,0.33,2.771,1.49,3.19
	C26.61,90.811,25.05,87.54,23.59,88.189 M84.561,86.91c-0.041,6.24,0.069,12.48,0.379,18.71c0.73-0.011,2.201-0.05,2.94-0.06
	l-0.37-2.49c0.811,0.609,1.631,1.24,2.43,1.869c-0.41-2.629-0.35-5.35-1.16-7.899c-0.729,1.43,0.441,3.99-1.449,4.74
	C87.061,96.84,88.279,90.85,84.561,86.91 M43.23,88.811c0.55,2.909,1.14,5.84,2.23,8.609c0.17-2.65,0.4-5.37-0.19-7.99
	C44.76,89.27,43.74,88.96,43.23,88.811 M41.6,95.38c-0.71-0.33-2.13-0.979-2.84-1.31c0.5,0.97,1.49,2.93,1.99,3.91
	c-0.72,0.699-1.51,1.33-2.26,1.989c2.28,4.591,5.38,10.091,11.39,9.71c-0.34-3.3-2.73-5.789-4.15-8.649
	c-0.61-0.2-1.82-0.601-2.43-0.79c0.56,0.92,1.66,2.76,2.22,3.689c-1.17-0.97-2.26-2.02-3.34-3.08c0.8-0.56,1.6-1.109,2.39-1.68
	c-1.29-2.95-1.98-6.109-2.69-9.24C41.04,91.689,38.62,93.47,41.6,95.38 M60.65,108.45c-2.28-1.06-4.84-1.3-7.01,0.19
	c-2.32,1.64-5.12,2.09-7.73,3.06c5.09,3.36,11.38,2.18,16.83,4.44c6.47,2.289,13.8,1.59,19.92-1.371
	c-0.01-0.39-0.04-1.17-0.061-1.56c-1.859,0.36-3.699,0.79-5.56,1.13c1.79-1.5,4-2.18,6.319-2.22l-0.239,1.59
	c3.069-0.13,6.11-0.69,9.19-0.86c0.85-1.38,1.689-2.77,2.539-4.16c-5.59-1.859-11.85-0.85-16.57,2.66
	c1.621-2.88-1.34-3.85-3.309-5.01c-2.111,1.04-4.201,2.11-6.341,3.08c0.33-0.7,0.979-2.1,1.31-2.8c-0.83-0.15-2.489-0.431-3.31-0.58
	c-0.521,1.99-1.78,3.54-3.75,4.2c1.181-1.51,2.53-2.87,3.75-4.34C64.561,106.561,62.561,107.41,60.65,108.45z"/>
<path fill="#0D0D0D" d="M79.55,18.46c-0.26-1.4,0.31-2.05,1.69-1.96C81.471,17.9,80.91,18.55,79.55,18.46z"/>
<path fill="#FFFFFF" d="M57.83,20.65c4.949,0.15,9.25-3.5,14.32-2.28c-1.01,1.59-1.82,3.71-4.141,3.25
	c-0.81,2.42-1.76,4.85-1.439,7.45c-0.78,0.28-2.33,0.83-3.11,1.11c0.7-0.98,1.97-1.72,2.19-2.95c-0.65-1.57-1.601-2.99-2.371-4.5
	c-1.25,1.67-2.579,3.31-3.409,5.24c0.59-0.6,1.76-1.8,2.34-2.4c0.45,0.54,0.89,1.09,1.33,1.64c-0.72,0.68-2.149,2.04-2.87,2.72
	c-0.37-0.21-1.12-0.63-1.49-0.85c0.09,0.9,0.27,2.69,0.37,3.58c-3.31-2.12-3.81-6.52-7.18-8.58c0.09,0.44,0.28,1.31,0.38,1.75
	c-0.43,0.24-1.27,0.71-1.7,0.95c0.16,0.439,0.47,1.33,0.62,1.77c0.67-0.3,1.67-2.1,2.45-0.92c1.39,1.59,2.8,3.15,4.29,4.65
	c-2.87,2.18-1.34,5.75-1.31,8.729c-0.94,3.55-1.49,7.4,0.03,10.89c0.52-3.69-1.03-9.41,3.55-11.1c-0.81,1.94-1.79,3.79-2.7,5.69
	c0.96-0.35,2.89-1.05,3.85-1.4c-0.12,0.97-0.35,2.9-0.471,3.87c1.261-0.66,3.771-1.97,5.021-2.63c-0.479,3.11-2.75,6.28-1.399,9.46
	c1.51,1.86,3.51,3.24,5.24,4.87c2.209,0.02,4.409,0.01,6.619,0.02l-0.609-0.96c1.77-0.84,3.52-1.729,5.289-2.57
	c-0.939,1.02-2.819,3.05-3.76,4.07c2.131-1.189,4.27-2.37,6.42-3.54c-1.55,1.74-3.05,3.68-5.15,4.79
	c-3.76,0.78-8.079-0.37-11.26,2.42C58,66.05,48.7,59.63,39.01,62.64c-1.24,1.72-2.84,3.12-4.81,3.95c0.3,0.48,0.89,1.46,1.19,1.94
	c-1.63-0.601-3.29-1.091-4.99-1.41c-0.01,0.3-0.02,0.88-0.03,1.18c0.91,0.08,2.74,0.261,3.66,0.341c-2.67,2.76-6.36,4.01-9.39,6.26
	c-1.39-5.141-1.12-10.42-1.07-15.681l1.46,0.35c-0.38-0.6-1.13-1.79-1.5-2.39l2.42,0.33l-0.11-0.979c-0.39,0.09-1.16,0.29-1.55,0.39
	c0.37-3.49,0.74-6.98,1.07-10.47c0.26,0.03,0.77,0.11,1.03,0.15c0.91-1.97,1.86-3.91,2.8-5.86c0.67,0.37,2.02,1.1,2.7,1.47
	c-1.59,2.21-3.16,4.42-4.68,6.68c0.61,4.95-0.9,9.77-0.97,14.69c1.06-0.04,3.19-0.12,4.25-0.17c-0.12,0.58-0.36,1.72-0.48,2.3
	l-0.75-0.93c-1.13,0.99-2.27,1.97-3.38,2.97c3.06-1.33,6.22-2.44,9.48-3.16c-1.74-0.35-3.53-0.6-5.17-1.31
	c3.63-0.38,6.95-1.98,9.95-3.97c3.83-0.02,7.58,1.51,11.41,0.86c0.39-0.36,1.17-1.08,1.57-1.44c0.58,0.47,1.16,0.94,1.74,1.41
	c1.24-1.96,2.22-4.09,2.77-6.35c-0.94,1.15-1.73,2.4-2.4,3.72c-0.44,0.37-1.32,1.1-1.77,1.46c0.16-1.229,0.47-3.68,0.63-4.91
	l0.48-0.4c0.13-1.21,0.08-2.48-0.74-3.44c-0.26,0.4-0.78,1.19-1.04,1.59c-1.65-0.32-1.62-3.01-2.68-4.14
	c0.87,0.41,2.6,1.24,3.46,1.66c0.14-1.5,0.3-3,0.47-4.49c-1.5-1.33-2.96-2.71-4.26-4.24c1.1,0.72,2.17,1.49,3.19,2.32
	c-0.47-1.79,0.13-3.51,0.78-5.13c0.46,1.45,0.95,2.88,1.48,4.3c-0.15-3.03-0.58-6.03-0.9-9.05c-1.22-0.74-2.41-1.51-3.64-2.21
	c0.69,1.27,1.53,2.53,3.04,2.88c-0.03,1.84-0.3,3.63-1.53,5.06c-0.7-2.45-1.86-4.72-3.05-6.95c0.12,3.27,1.93,6.1,3.11,9.06
	c-0.94-0.78-2.81-2.35-3.74-3.13c-0.04-0.45-0.12-1.34-0.16-1.79l-0.4,1.36c-3.19-1.86-6.75-2.93-10.07-4.5
	c2.5-2.49,5.17-4.91,8.51-6.22c1.94-3.78,6.29-4.93,9.97-6.26c0.22,0.66,0.22,1.31,0.01,1.96l-0.26,0.72l-0.23,0.81
	c0.46-0.3,1.4-0.89,1.86-1.18C57.77,22.15,57.81,21.15,57.83,20.65 M65.26,19.89c-0.39,0.2-1.16,0.62-1.55,0.82
	c-1.2,1.28,1.38,1.49,2.05,0.92C67.35,21.4,66.76,19.06,65.26,19.89 M59.56,22.34c-0.88,1.19-2.14,2.88-1.57,4.4
	C59.69,27.16,61.689,21.9,59.56,22.34 M42.58,32.04c2.34-0.14,4.63-1.06,5.83-3.18C46.33,29.63,44.33,30.66,42.58,32.04
	 M45.44,32.85c-0.58,1.2,1.2,3.18,2.36,2.18C48.42,33.79,46.62,31.88,45.44,32.85 M59.12,50.45c-0.81,0.79-0.63,3.18,0.75,3.14
	C60.67,52.8,60.5,50.41,59.12,50.45 M62.15,51.4c-0.68,1.52-0.07,3.64,1.08,4.8C64.43,55.36,63.561,51.74,62.15,51.4 M59.77,56.05
	c1.05,1.52,2.32,2.85,3.57,4.19c-1.199,0.3-2.39,0.64-3.56,1.03c1.701,0.46,3.451,0.61,5.21,0.64
	C64.63,59.01,62.811,56.46,59.77,56.05 M56.34,59.9c-1.53,0.36-1.03,2.74,0.54,1.88C58.51,61.52,57.91,58.92,56.34,59.9z"/>
<path fill="#0D0D0D" d="M65.26,19.89c1.5-0.83,2.09,1.51,0.5,1.74c-0.67,0.57-3.25,0.36-2.05-0.92
	C64.1,20.51,64.87,20.09,65.26,19.89z"/>
<path fill="#0D0D0D" d="M59.56,22.34c2.129-0.44,0.13,4.82-1.57,4.4C57.42,25.22,58.68,23.53,59.56,22.34z"/>
<path fill="#FFFFFF" d="M74.311,25.04c-0.431-1.59,1.83-3.23,3.279-2.79C77.689,23.63,75.689,25.51,74.311,25.04z"/>
<path fill="#FFFFFF" d="M85.25,24.26c0.37-0.18,1.109-0.54,1.471-0.72c0,0.47,0,1.39,0,1.85c-0.361-0.08-1.091-0.24-1.451-0.32
	L85.25,24.26z"/>
<path fill="#0D0D0D" d="M106.3,26.49c1.771,2.65,1.45,5.96,1.45,8.99C106.46,32.66,106.221,29.55,106.3,26.49z"/>
<path fill="#0D0D0D" d="M17.01,40.76c-1.75-5.67,2.13-11.13,7.37-13.07c-1.6,2.01-3.72,3.51-5.39,5.45c-1.7,2.32-1.33,5.3-1.18,8
	c-2.06,2.33-4.03,4.96-6.99,6.21C12.55,44.86,14.87,42.88,17.01,40.76z"/>
<path fill="#FFFFFF" d="M37.27,30.5c-0.19-1.41,1.76-2.92,3.13-2.68C40.79,29.28,38.57,30.62,37.27,30.5z"/>
<path fill="#0D0D0D" d="M42.58,32.04c1.75-1.38,3.75-2.41,5.83-3.18C47.21,30.98,44.92,31.9,42.58,32.04z"/>
<path fill="#FFFFFF" d="M63.84,29.04c-1.619,3.84-3.52,7.59-5.99,10.97c-0.45-2.729-0.83-5.99,2.34-7.13
	c0.01-0.62,0.02-1.87,0.02-2.49C61.12,30.05,62.93,29.37,63.84,29.04z"/>
<path fill="#0D0D0D" d="M7.04,43.19c1.23-4.22,0.99-9.18,3.6-12.82C9.7,34.69,9.63,39.42,7.04,43.19z"/>
<path fill="#0D0D0D" d="M45.44,32.85c1.18-0.97,2.98,0.94,2.36,2.18C46.64,36.03,44.86,34.05,45.44,32.85z"/>
<path fill="#FFFFFF" d="M78.88,32.78c0.79,0.42,1.591,0.85,2.37,1.28c-1.8,2.2-4.891,2.55-7.4,3.57
	c-1.05,0.58-1.949-0.44-2.899-0.73c0.47-0.53,1.399-1.59,1.87-2.12l-0.76,2.49C74.359,35.81,76.68,34.39,78.88,32.78z"/>
<path fill="#0D0D0D" d="M26.72,33.96c2.12-1.42,1.29,2.53-0.27,0.91L26.72,33.96z"/>
<path fill="#FFFFFF" d="M70.88,39.81c4.851-0.64,9.06-3.22,13.351-5.37c6.609,4.14,7.949,13.11,7.14,20.27
	c-2.8-0.28-5.601-0.04-8.41,0.04c0.479-0.96,1.33-1.49,2.54-1.6l-0.26-0.97c4.439,1.42-0.04-0.51-1-1.08
	c-0.76,0.92-1.53,1.82-2.311,2.72c-1.56-0.27-3.119-0.47-4.689-0.65c0,0.32-0.02,0.97-0.02,1.3c1.219,0.061,2.409,0.28,3.559,0.67
	c0.16,1.82-2.76,0.64-3.789,1.15c-1.801,0.35-3.2-1.22-4.74-1.84c0.02,0.53,0.07,1.57,0.09,2.09c-1.119-0.52-2.25-1.03-3.38-1.54
	c0.601,0.74,1.2,1.49,1.81,2.23c1.891-0.09,3.791-0.06,5.681,0.14c-4.271,2.89-9.63-0.21-11.181-4.67
	c2.49,2.03,7.221,1.64,8.121-1.85c1.489-3.14-0.861-6.82-4.291-6.9C69.7,42.57,70.279,41.19,70.88,39.81 M72.51,43.3
	c1.75,0.85,3.59,1.17,5.52,0.96c-2.039,0.93-3.079,2.48-3.109,4.65c0.641-0.88,1.27-1.77,1.88-2.67c1.011-0.45,1.729-1.16,2.15-2.14
	c-1.681-0.39-3.4-0.61-5.091-0.95c1.371-1.04,2.94-1.76,4.58-2.26c0.121-0.55,0.34-1.65,0.451-2.2
	C76.67,40.09,74.529,41.62,72.51,43.3 M86.279,42.05c0.681,1.13,1.431,1.07,2.25-0.18C87.83,40.72,87.07,40.78,86.279,42.05
	 M80.811,51.19c2.34-1.09,4.64-2.36,6.479-4.2C84.67,47.54,82.59,49.28,80.811,51.19z"/>
<path fill="#0D0D0D" d="M101.1,35.77c1.69,1.9,2.01,4.45,2.301,6.88C101.87,40.69,101.41,38.17,101.1,35.77z"/>
<path fill="#0D0D0D" d="M95.85,36.65c1.391,1.21,2.381,2.76,3.221,4.38c1.869,3.88,4.869,7.18,6.05,11.39
	C101.359,47.66,98.18,42.28,95.85,36.65z"/>
<path fill="#0D0D0D" d="M72.51,43.3c2.02-1.68,4.16-3.21,6.381-4.61c-0.111,0.55-0.33,1.65-0.451,2.2
	c-1.64,0.5-3.209,1.22-4.58,2.26c1.69,0.34,3.41,0.56,5.091,0.95c-0.421,0.98-1.14,1.69-2.15,2.14c-0.61,0.9-1.239,1.79-1.88,2.67
	c0.03-2.17,1.07-3.72,3.109-4.65C76.1,44.47,74.26,44.15,72.51,43.3z"/>
<path fill="#0D0D0D" d="M86.279,42.05c0.791-1.27,1.551-1.33,2.25-0.18C87.71,43.12,86.96,43.18,86.279,42.05z"/>
<path fill="#0D0D0D" d="M108.641,42.21c0.25-0.01,0.729-0.05,0.979-0.06c-0.08,5.44-1.17,10.81-1.101,16.26
	C106.43,53.17,108.99,47.63,108.641,42.21z"/>
<path fill="#FFFFFF" d="M33,42.55c0.64,0.27,1.9,0.82,2.53,1.09c0.59,2.11,1.55,4.08,2.83,5.87l-0.04-2.14l1.94-0.07
	c0.17,0.84,0.33,1.67,0.48,2.51c-0.85,0.57-1.72,1.13-2.6,1.67c-0.63-0.06-1.9-0.17-2.54-0.23c-1.06,1.28-2.16,2.53-3.09,3.91
	c1.99-1.27,3.91-2.7,6.16-3.5c0.11,0.34,0.32,1.02,0.43,1.35c-0.21,0.54-0.61,1.61-0.81,2.15c0.78-0.28,2.35-0.83,3.13-1.11
	c-0.85-0.7-1.7-1.4-2.55-2.1c1.56-0.93,3.18-1.77,4.8-2.57c-2.02-1.11-3.54-3.41-6.15-2.92c-0.34-0.55-1.03-1.65-1.38-2.2
	c3.77,0.84,7.9,0.51,11.42,2.271c2.67,3.37,4.64,7.439,4.7,11.81c-3.88,0.34-7.85,0.13-11.53-1.29c2.88-0.31,5.87-0.23,8.57-1.44
	c-0.93-0.48-1.86-0.95-2.79-1.42c0.05,0.47,0.17,1.4,0.22,1.87c-2.02,0.36-3.8,0.2-4.1-2.15c-0.77,1.3-1.57,2.58-2.37,3.86
	c-0.82-0.18-2.47-0.54-3.29-0.72c-0.74,0.52-1.48,1.05-2.22,1.58c-0.76,1.14-1.55,2.26-2.41,3.33c-0.14-2.72-0.08-5.44,0.01-8.16
	c-1.05-1.48-2.28-2.83-3.69-3.98c0.34-0.52,1.03-1.56,1.37-2.08c0.49,1.25,1.01,2.49,1.55,3.72c1.84,0.41,3.42-0.53,4.99-1.32
	l-0.53-1.87c-0.68,0.61-2.04,1.85-2.72,2.46c0.35-1.85,0.77-3.69,1.2-5.52c-0.25,0-0.75,0-1,0.01c-0.14,1.72-0.32,3.46-0.99,5.08
	c-0.17-0.32-0.51-0.97-0.68-1.3c-0.06-0.39-0.18-1.18-0.23-1.57l-1.99,0.35C30.73,46.02,31.83,44.26,33,42.55 M35.1,54.79
	c-1.24,0.9-1.28,1.66-0.11,2.28C36.24,56.2,36.28,55.44,35.1,54.79z"/>
<path fill="#FFFFFF" d="M63.18,43.3C63.83,43.81,63.83,43.81,63.18,43.3z"/>
<path fill="#FFFFFF" d="M92.29,43.97c4.05,5.73,5.08,12.8,6.739,19.46c-1.85,0.88-3.68,1.79-5.529,2.679
	c-0.16,1.561,0.09,3.211-0.62,4.671c-0.22,0.079-0.659,0.25-0.89,0.329c0.1-2.939,0.14-5.869,0.21-8.81
	c1.979,0.04,3.95,0.05,5.92-0.03c-0.32-0.44-0.95-1.33-1.271-1.78c-3.109-0.62-6.279-1.1-9.189-2.44c1.97-0.32,3.949-0.6,5.92-0.87
	C93.52,52.74,92.641,48.39,92.29,43.97z"/>
<path fill="#0D0D0D" d="M17.93,46.47c1.5,4.43-1.97,8.86-0.97,13.39c1.05,0.88,2.14,1.72,3.26,2.51c-1.38,0.08-2.66-0.45-3.95-0.89
	C15.89,56.41,16.64,51.36,17.93,46.47z"/>
<path fill="#0D0D0D" d="M80.811,51.19c1.779-1.91,3.859-3.65,6.479-4.2C85.45,48.83,83.15,50.1,80.811,51.19z"/>
<path fill="#0D0D0D" d="M113.09,48.61c1.49,3.77,2.52,7.74,2.84,11.79C114.01,56.79,113.12,52.68,113.09,48.61z"/>
<path fill="#0D0D0D" d="M5.25,54.25c1.21-1.41,1.91-3.13,2.79-4.75c-0.07,0.85-0.2,2.54-0.26,3.39c-4.66,3.35-4.41,9.52-4.12,14.62
	C1.56,63.3,2.08,57.79,5.25,54.25z"/>
<path fill="#0D0D0D" d="M59.12,50.45c1.38-0.04,1.55,2.35,0.75,3.14C58.49,53.63,58.31,51.24,59.12,50.45z"/>
<path fill="#0D0D0D" d="M62.15,51.4c1.41,0.34,2.279,3.96,1.08,4.8C62.08,55.04,61.471,52.92,62.15,51.4z"/>
<path fill="#FFFFFF" d="M23.28,52.33c1.3,0.55,0.84,3.09-0.32,3.63C21.45,55.42,22.03,52.87,23.28,52.33z"/>
<path fill="#0D0D0D" d="M35.1,54.79c1.18,0.65,1.14,1.41-0.11,2.28C33.82,56.45,33.86,55.69,35.1,54.79z"/>
<path fill="#0D0D0D" d="M59.77,56.05c3.041,0.41,4.86,2.96,5.22,5.86c-1.76-0.03-3.51-0.18-5.21-0.64
	c1.17-0.39,2.361-0.73,3.56-1.03C62.09,58.9,60.82,57.57,59.77,56.05z"/>
<path fill="#FFFFFF" d="M84.029,56.98c1.061-1.4,4.07-1.04,5.671-0.44C88.76,58.07,85.63,57.38,84.029,56.98z"/>
<path fill="#FFFFFF" d="M36.19,59.22C36.82,59.79,36.82,59.79,36.19,59.22z"/>
<path fill="#0D0D0D" d="M106.561,60.36c0.27-0.34,0.81-1.02,1.08-1.35c0.119,2.76,0.229,5.53-0.061,8.29
	C106.62,65.1,106.561,62.71,106.561,60.36z"/>
<path fill="#0D0D0D" d="M56.34,59.9c1.57-0.98,2.17,1.62,0.54,1.88C55.31,62.64,54.81,60.26,56.34,59.9z"/>
<path fill="#0D0D0D" d="M11.61,61.66c0.32,5.25-1.09,10.65,1.26,15.62c-0.92-1.2-1.75-2.46-2.58-3.72
	C10.1,69.561,10.4,65.51,11.61,61.66z"/>
<path fill="#FFFFFF" d="M85.67,61.82c0.609-0.07,1.84-0.21,2.46-0.28c-1.399,7.25,0.97,14.62-0.69,21.84
	c0.461-0.069,1.391-0.2,1.86-0.26c0,2.729,0.54,5.62-0.771,8.17c-0.869-1.95-1.289-4.021-0.439-6.07c-0.3-0.64-0.6-1.27-0.92-1.899
	c-0.24,0.82-0.72,2.46-0.949,3.279l-1.671-0.709C84.029,77.93,87.721,69.87,85.67,61.82z"/>
<path fill="#FFFFFF" d="M79.1,64.58c1.74-0.62,3.48-1.27,5.23-1.89c1.16,7.32-0.13,14.75-2.13,21.81
	c-1.47-1.88-1.021-4.359-1.21-6.58C80.82,73.42,79.63,69.05,79.1,64.58z"/>
<path fill="#FFFFFF" d="M89.27,74.82c-0.449-3.801-0.899-7.76,0.11-11.51C90.13,67.1,90.09,71.04,89.27,74.82z"/>
<path fill="#FFFFFF" d="M41.73,65.12c1.22-0.01,2.44-0.02,3.67-0.03c0.26,4.71,2.75,9.11,2.11,13.891
	c-0.68,0.129-2.05,0.399-2.73,0.529C44.04,74.66,43.1,69.83,41.73,65.12z"/>
<path fill="#FFFFFF" d="M47.19,64.88c0.85,0.14,2.55,0.43,3.39,0.57c-0.32,5.44,0.94,10.78,2.12,16.05
	c-0.96,0.77-1.91,1.55-2.87,2.33C48.78,77.54,47.79,71.23,47.19,64.88z"/>
<path fill="#FFFFFF" d="M75.439,64.55c0.681,0.02,2.041,0.06,2.721,0.08C78.1,70.15,79.67,75.55,79.5,81.07
	c-0.529-0.11-1.6-0.33-2.13-0.44C76.471,75.311,76.561,69.85,75.439,64.55z"/>
<path fill="#FFFFFF" d="M94.6,66.16c1.95-0.09,3.541-1.1,4.851-2.48c2.399,9.589-0.14,19.48,1.3,29.13
	c-1.26,3.6-2.311,7.409-4.971,10.289c-0.239,1.541-0.469,3.08-0.709,4.61c-0.82-0.45-2.48-1.351-3.311-1.8
	c-0.52-4.91-2.14-9.98-0.55-14.84c0.56-2.021,0.54-4.12,0.66-6.19c2.989-3.55-0.58-8.42,1.25-12.01c1.409-0.32,2.851-0.61,4.14-1.3
	c0.51,4.16-0.539,8.609,1.2,12.57c-0.08-1.261-0.2-2.521-0.38-3.771c0.75-3.57,0.83-7.4-1.08-10.65c-0.74,0.8-1.49,1.591-2.23,2.38
	C94.37,70.12,94.32,68.141,94.6,66.16 M96.48,86.03c1.029,3.659,1.5,7.43,2.18,11.159C99.18,93.35,99.109,89.141,96.48,86.03
	 M94.5,88.92c0.48,4.52-1.77,9.141-0.279,13.51C95.05,97.96,95.779,93.38,94.5,88.92z"/>
<path fill="#FFFFFF" d="M38.16,66.71c0.38-0.37,1.13-1.09,1.51-1.46c2.94,7.1,3.9,14.78,5.33,22.28c-0.62,0.09-1.84,0.27-2.46,0.36
	c-0.11-3.021-0.38-6.041-0.6-9.051c-2.64,3.67,0.19,8.42-1.72,12.301c-0.84-2.681-1.92-5.301-2.49-8.061
	c0.04-1.86,0.59-3.71,0.28-5.57c-3.45,5.46,1.3,10.85,2.05,16.24c-1.21,0.18-2.23-0.33-2.89-1.33c0.5,2.221,2.12,3.98,2.93,6.08
	c-0.72-0.09-2.17-0.26-2.89-0.35c1.34,3.529,2.13,7.779,5.46,10.05c1.27,1.069,3.66,1.63,3.02,3.75c-4.55-1.45-9.57-3.37-12.7-7.07
	c0.81-2.1,2.37,1.271,3.28,1.479c-0.66-1.409-1.47-2.739-2.35-4.01c-0.67,0.16-1.35,0.26-2.04,0.291c-1.18-1.5-2.26-3.07-3.31-4.65
	c0.07-1.99,0.7-4.19-0.79-5.85c-1.49-1.541-0.87-3.69-0.02-5.381c0.42,0.84,1.25,2.54,1.67,3.381c-0.25-1.311-0.54-2.621-0.84-3.931
	c2.18,1.24,2.64-1,3.41-2.2c1.51-3.3,2.64-6.869,2.37-10.54c-1.26,2.47-1.75,5.24-1.82,7.99c-1.04,1.44-2.06,2.89-3.02,4.38
	c-0.51-0.09-1.55-0.27-2.07-0.359c0.04,0.359,0.12,1.08,0.16,1.439c-0.97,0.15-1.55-0.25-1.75-1.189
	c-0.56-3.371-1.79-6.641-1.44-10.11c3.4-1.42,6.5-3.4,9.58-5.4c0.4,0.54,1.21,1.63,1.61,2.171c-0.07-1.32-0.2-3.951-0.27-5.271
	c3.32,2.87,2.88,7.87,4.88,11.521c0.35,0,1.06,0.01,1.41,0.01C40.62,74.63,39.11,70.75,38.16,66.71z"/>
<path fill="#FFFFFF" d="M51.62,65.76c2.3,1.92,5.27,1.65,8.06,1.83c1.23,4.11,2.669,8.2,3.11,12.5c-0.97,0-2.92,0.01-3.9,0.01
	C57.72,76.41,57.1,72.391,56,68.811c-0.29,0.1-0.88,0.299-1.17,0.399c-0.13,5.55,3.71,10.399,2.87,16.06
	c-0.85-0.17-2.55-0.52-3.4-0.689C53.79,78.26,52.64,72.01,51.62,65.76z"/>
<path fill="#FFFFFF" d="M70.68,65.94c0.811-0.11,2.41-0.33,3.211-0.44c0.51,4.34,1.619,8.59,2.229,12.92
	c-1.39-0.109-2.78-0.23-4.17-0.34C71.59,74.03,71.32,69.96,70.68,65.94z"/>
<path fill="#FFFFFF" d="M65.87,67.23c0.83-0.23,2.489-0.69,3.319-0.91c0.41,4.439,1.771,8.77,1.5,13.27
	C68.54,75.71,66.84,71.561,65.87,67.23z"/>
<path fill="#0D0D0D" d="M112.07,66.5c6.31,4.98,8.06,15.15,2.66,21.41c0.049,1.5,0.09,3.01,0.119,4.51
	c-0.51-1.12-0.99-2.25-1.47-3.38c1.2-3.11,3.07-5.94,4.011-9.14C118.26,74.68,113.73,71.01,112.07,66.5z"/>
<path fill="#FFFFFF" d="M61.45,67.439c0.771,0.021,2.3,0.061,3.069,0.08c0.65,3.42,2.15,6.561,3.451,9.771
	c-1,0.12-2.98,0.37-3.971,0.49C63.641,74.22,62.76,70.76,61.45,67.439z"/>
<path fill="#0D0D0D" d="M105.88,67.59c2.92,3.18,5.091,7.23,5.12,11.63C109.48,75.26,107.29,71.6,105.88,67.59z"/>
<path fill="#0D0D0D" d="M16.28,72.45c1.83,3.06,1.15,6.659,0.12,9.85C16.17,79.03,16.2,75.74,16.28,72.45z"/>
<path fill="#FFFFFF" d="M63.87,79.71c1.229-0.24,2.45-0.479,3.68-0.72c1.45,8.51,0.69,17.18,1.761,25.729
	c-0.83-0.11-2.48-0.319-3.301-0.42C65.33,96.1,65.04,87.859,63.87,79.71z"/>
<path fill="#FFFFFF" d="M72.42,79.609c1.5,0.101,4.24-0.06,3.78,2.32c0.399,8.15,0.319,16.34,1.55,24.42
	c-3.561-1.18-2.52-5.58-4-8.359C75.25,91.87,73.811,85.6,72.42,79.609z"/>
<path fill="#0D0D0D" d="M9.19,80.85c4.19,2.86,6.71,7.721,7.84,12.551c-2.82-3.84-4.78-8.26-7.83-11.961L9.19,80.85z"/>
<path fill="#FFFFFF" d="M45.48,80.22c0.59,0.171,1.78,0.511,2.37,0.681c1.51,8.699,1.52,17.859,5.48,25.949
	c-0.53,0.2-1.58,0.59-2.11,0.78C46.01,99.48,47.4,89.32,45.48,80.22z"/>
<path fill="#0D0D0D" d="M104.32,94.29c1.369-4.49,1.75-9.14,2.27-13.771C107.15,85.141,107.59,90.5,104.32,94.29z"/>
<path fill="#FFFFFF" d="M59.05,82.37c1.23-0.2,2.45-0.4,3.671-0.601c1,7.86,1.709,15.78,1.789,23.7c-2.84-1.55-1.71-4.92-2.58-7.46
	C60.58,92.88,58.97,87.74,59.05,82.37z"/>
<path fill="#FFFFFF" d="M69.58,81.01c2.47-0.34,2.57,2.33,2.79,3.96c0.8,6.41-0.591,13,1.29,19.29c0.699,1.28-1.27,1.271-1.9,1.87
	C69.811,97.9,69.75,89.41,69.58,81.01z"/>
<path fill="#FFFFFF" d="M77.52,81.641c2.36,0.699,1.65,3.219,2.01,4.989c0.441,5.69,1.551,11.33,1.211,17.05
	c-0.48-0.149-1.44-0.449-1.92-0.6C79.01,95.91,77.48,88.82,77.52,81.641z"/>
<path fill="#FFFFFF" d="M49.83,85.689c1.1-0.77,2.2-1.529,3.31-2.27c-0.19,7.65,0.75,15.4,4.21,22.34
	c-1.08-0.189-2.93,0.58-3.26-0.97C51.33,98.78,51.37,92.02,49.83,85.689z"/>
<path fill="#FFFFFF" d="M81.33,84.63c2.199,3.36,1.76,7.59,2.061,11.42c-0.08,3.601,0.67,7.341-0.65,10.8L84,107.41
	c-0.79-0.311-2.359-0.93-3.141-1.23c-0.369,0.391-1.1,1.19-1.469,1.59c-0.07-0.85-0.23-2.529-0.311-3.369
	c0.91-0.16,2.29,0.72,2.91-0.11C82.811,97.73,80.891,91.2,81.33,84.63z"/>
<path fill="#0D0D0D" d="M96.48,86.03c2.629,3.11,2.699,7.319,2.18,11.159C97.98,93.46,97.51,89.689,96.48,86.03z"/>
<path fill="#FFFFFF" d="M54.16,86.28c0.87,0.06,2.61,0.2,3.48,0.26c0.64,6.83,4.23,13.31,2.85,20.3c-3.08-1.47-2.37-5.21-3.49-7.89
	C55.47,94.87,54.34,90.65,54.16,86.28z"/>
<path fill="#0D0D0D" d="M110.65,87.12c0.279,0.069,0.84,0.2,1.119,0.271c-0.049,2.709,0.73,5.579-0.459,8.149
	C111.07,92.73,111.27,89.891,110.65,87.12z"/>
<path fill="#FFFFFF" d="M23.59,88.189c1.46-0.649,3.02,2.621,1.49,3.19C23.92,90.96,23.13,89.359,23.59,88.189z"/>
<path fill="#FFFFFF" d="M84.561,86.91c3.719,3.939,2.5,9.93,2.77,14.87c1.891-0.75,0.72-3.311,1.449-4.74
	c0.811,2.55,0.75,5.271,1.16,7.899c-0.799-0.629-1.619-1.26-2.43-1.869l0.37,2.49c-0.739,0.01-2.21,0.049-2.94,0.06
	C84.63,99.391,84.52,93.15,84.561,86.91z"/>
<path fill="#FFFFFF" d="M43.23,88.811c0.51,0.149,1.53,0.459,2.04,0.619c0.59,2.62,0.36,5.34,0.19,7.99
	C44.37,94.65,43.78,91.72,43.23,88.811z"/>
<path fill="#0D0D0D" d="M94.5,88.92c1.279,4.46,0.55,9.04-0.279,13.51C92.73,98.061,94.98,93.439,94.5,88.92z"/>
<path fill="#FFFFFF" d="M41.6,95.38c-2.98-1.91-0.56-3.69,0.28-5.45c0.71,3.131,1.4,6.29,2.69,9.24c-0.79,0.57-1.59,1.12-2.39,1.68
	c1.08,1.061,2.17,2.11,3.34,3.08c-0.56-0.93-1.66-2.77-2.22-3.689c0.61,0.189,1.82,0.59,2.43,0.79c1.42,2.86,3.81,5.35,4.15,8.649
	c-6.01,0.381-9.11-5.119-11.39-9.71c0.75-0.659,1.54-1.29,2.26-1.989c-0.5-0.98-1.49-2.94-1.99-3.91
	C39.47,94.4,40.89,95.05,41.6,95.38z"/>
<path fill="#0D0D0D" d="M9.14,91.67c2.59,2.37,2.58,6.02,2.73,9.26c1.33,0.23,2.81,0.34,3.53,1.67c-1.38-0.209-2.75-0.479-4.12-0.75
	C11.06,98.359,10.01,95.03,9.14,91.67z"/>
<path fill="#0D0D0D" d="M19.75,94.561c2.23,2.18,3.78,4.949,4.77,7.899c0.28,1.71,0.62,3.41,0.99,5.11
	c-0.31,0.33-0.93,0.979-1.24,1.3c-0.25-2.34,0.2-4.88-0.98-7.03C22.12,99.41,20.42,97.22,19.75,94.561z"/>
<path fill="#0D0D0D" d="M108.779,95.55c0.701,4.54-1.449,8.771-2.139,13.16c-1.281,0.46-2.551,0.931-3.83,1.39
	c-0.83,2.57-1.061,5.801-3.69,7.26c0.95-2.68,2.18-5.25,2.97-7.989c1.311-0.44,2.61-0.9,3.91-1.351
	C106.45,103.77,107.76,99.68,108.779,95.55z"/>
<path fill="#0D0D0D" d="M20.16,102.41c3.13,3.17,2.47,8.17,4.47,11.97c2.03,0.37,4.06,0.72,6.1,1.021
	c-0.02,0.31-0.05,0.92-0.06,1.22c-2.41-0.601-4.84-1.101-7.2-1.851C22.38,110.65,21.04,106.59,20.16,102.41z"/>
<path fill="#0D0D0D" d="M30.74,110.51c-1.89,0.23-3.05-4.55-0.68-4.55C30.56,107.37,31.22,109.03,30.74,110.51z"/>
<path fill="#FFFFFF" d="M60.65,108.45c1.911-1.04,3.911-1.89,5.98-2.55c-1.22,1.47-2.569,2.83-3.75,4.34
	c1.97-0.66,3.229-2.21,3.75-4.2c0.82,0.149,2.479,0.43,3.31,0.58c-0.33,0.7-0.979,2.1-1.31,2.8c2.14-0.97,4.229-2.04,6.341-3.08
	c1.969,1.16,4.93,2.13,3.309,5.01c4.721-3.51,10.98-4.52,16.57-2.66c-0.85,1.391-1.689,2.78-2.539,4.16
	c-3.08,0.17-6.121,0.73-9.19,0.86l0.239-1.59c-2.319,0.04-4.529,0.72-6.319,2.22c1.86-0.34,3.7-0.77,5.56-1.13
	c0.021,0.39,0.051,1.17,0.061,1.56c-6.12,2.961-13.45,3.66-19.92,1.371c-5.45-2.261-11.74-1.08-16.83-4.44
	c2.61-0.97,5.41-1.42,7.73-3.06C55.81,107.15,58.37,107.391,60.65,108.45 M58.24,111.16c-1.16-0.41-2.96,1.52-1.24,2.04
	C58.11,113.63,59.88,111.609,58.24,111.16z"/>
<path fill="#0D0D0D" d="M58.24,111.16c1.64,0.449-0.13,2.47-1.24,2.04C55.28,112.68,57.08,110.75,58.24,111.16z"/>
<path fill="#0D0D0D" d="M37.67,116.08c2.71,0.77,5.4,1.83,7.52,3.74C42.44,119.16,39.68,118.15,37.67,116.08z"/>
</svg>
