<?xml version="1.0" encoding="utf-8"?>
<!-- Generator: Adobe Illustrator 15.0.2, SVG Export Plug-In . SVG Version: 6.00 Build 0)  -->
<!DOCTYPE svg PUBLIC "-//W3C//DTD SVG 1.1//EN" "http://www.w3.org/Graphics/SVG/1.1/DTD/svg11.dtd">
<svg version="1.1" id="Layer_1" xmlns="http://www.w3.org/2000/svg" xmlns:xlink="http://www.w3.org/1999/xlink" x="0px" y="0px"
	 width="300px" height="361px" viewBox="0 0 300 361" enable-background="new 0 0 300 361" xml:space="preserve">
<path fill="#FFFFFF" d="M0,0h300v326.5c-2.65-2.6-5.26-5.62-9.04-6.52c-5.01-1.25-9.94-3.051-15.16-3.16
	c-8.19-1.521-16.56-0.18-24.8-1.24c-10.641-0.02-21.3-0.42-31.92,0.4c-3.13,0.18-6.391-0.291-9.391,0.84
	c-8.149,3.039-16.479,5.67-24.33,9.439c-4.09-0.73-8.049-2.189-12.239-2.21c-16.06-0.14-32.12,0.101-48.18-0.1
	c-5.3-1.021-9.72-4.47-14.72-6.37c-7.95-3.85-15.37-8.71-23.17-12.84c1.88-7.02,1.37-14.4,3.14-21.43
	c2.9-8.951,4.83-18.181,6.78-27.381c1.77-12,6.74-23.32,7.86-35.46c3.33,4.2,7.61,7.55,10.7,11.94c1.69,2.29,3.92,4.1,5.73,6.29
	c4.09,4.89,7.61,10.37,12.79,14.21c7.09,6.26,13.35,13.38,20.29,19.8c4.11,3.56,7.53,7.91,12.189,10.819
	c4.431,3.691,9.521,8.671,15.861,6.761c9.26-3.271,18.149-7.851,25.83-14.021c4.319-2.609,7.5-6.58,11.469-9.619
	c8.371-5.32,16.711-10.971,23.32-18.461c0.32,5.53-0.3,11.061-0.26,16.591c1.26,0.1,2.52,0.2,3.779,0.3
	c0.861-0.95,1.73-1.9,2.591-2.85c-1.681-5.2-1.12-10.681-1.95-16c0.85-1.891,1.63-3.811,2.221-5.791
	c-0.631-0.31-1.891-0.92-2.521-1.229c0.17-13.83,0.8-27.78,4.399-41.2c4.931-0.199,10.551,1.271,14.871-1.82
	c5.09-4.529,6.989-11.56,7.5-18.14c0.26-6.02,0.549-12.08,0.039-18.1c-0.08-1.4-1.01-2.96-2.609-2.76
	c-7.2-0.38-14.42-1.69-21.641-0.97c-3.14,3.1-4.6,7.47-6.949,11.16c-4.201,6.23-2.84,14.12-1.86,21.09
	c0.22,4.08,4.51,5.591,7.46,7.431c-1.73,7.3-3.66,14.6-4,22.14c-1.109,8.12,0.12,16.49-1.96,24.479
	c-6.67,9.021-16.229,15.08-25.44,21.181c-8.51,7.68-17.57,15.149-28.26,19.6c-3.67,1.81-7.97,4.54-12.09,2.39
	c-16.23-10.76-28.15-26.59-43.04-38.979c-4.61-4.771-8.04-10.58-12.93-15.11c-4.38-5.75-9.6-10.77-14.59-15.979
	c0.15-3.681,1.01-7.271,2.35-10.7c23.66,1.25,47.79-5.91,66.5-20.561c1.909-1.879,4.729-1.539,7.03-2.52
	c0.8-1.05,1.39-2.22,2.029-3.37c0.98-0.16,1.961-0.32,2.94-0.479c3.75-3.18,5.56-7.74,7.76-11.99c2.33-0.34,5.22,0.34,6.96-1.69
	c2.91-2.77,3.52-6.96,4.52-10.67c2.92-1.27,6.041-2.41,8.41-4.61c2.49-6.23-1.43-12.39-2.699-18.44c0.92-0.25,2.76-0.76,3.67-1.01
	c1.689-5.52-0.16-11.41-2.48-16.47c1.07-0.56,2.15-1.11,3.24-1.66c0.391-2.04,0.8-4.17,0.189-6.23
	c-0.819-4.25-4.629-6.88-6.59-10.53c-0.3-2.09-0.14-4.21-0.119-6.31c2.59-2.55,5.779-5.42,5.689-9.38
	c0.141-2.55-0.79-4.97-1.38-7.41c-1.41-2.23-2.8-4.49-4.38-6.61c0.85-2.05,1.8-4.29,1.1-6.54c-2.539-2.69-6.68-1.97-10.02-2.27
	c-3.68-3.93-7.53-7.75-12.141-10.59c0.381-3.76,0.67-7.59,0.211-11.35c-0.971-3.99-5.181-5.67-8.351-7.6
	c-0.83-7.38-9.601-9.01-15.681-8.63c-3.459-4.75-7.85-10.73-14.469-10.12c-4.68-0.53-9.16,0.89-13.28,3
	c-1.73-4.5-4.67-9.36-9.74-10.43c-8.36-0.93-16.75,0.45-25,1.73c-4.83,0.84-9.15,3.35-13.17,6.03c-5.43-5.41-13.9-4.65-20.7-2.78
	c-5.29,1.74-8.42,6.55-11.84,10.59c-2.6,0.53-5.51,0.77-7.48,2.76c-5.13,4.37-10.6,8.32-16.5,11.57
	c-4.83,5.96-7.07,13.57-10.84,20.18c-1.63,3.28-6.09,2.04-8.19,4.74c-4.8,4.62-3.87,11.97-4.1,18.04c-4,3.14-7.79,7.01-9.22,12.04V0
	z"/>
<path d="M102.04,2.18c8.25-1.28,16.64-2.66,25-1.73c5.07,1.07,8.01,5.93,9.74,10.43c4.12-2.11,8.6-3.53,13.28-3
	c6.62-0.61,11.01,5.37,14.469,10.12c6.08-0.38,14.851,1.25,15.681,8.63c3.17,1.93,7.38,3.61,8.351,7.6
	c0.459,3.76,0.17,7.59-0.211,11.35c4.61,2.84,8.461,6.66,12.141,10.59c3.34,0.3,7.48-0.42,10.02,2.27c0.7,2.25-0.25,4.49-1.1,6.54
	c1.58,2.12,2.97,4.38,4.38,6.61c0.59,2.44,1.521,4.86,1.38,7.41c0.09,3.96-3.1,6.83-5.689,9.38c-0.021,2.1-0.181,4.22,0.119,6.31
	c1.961,3.65,5.771,6.28,6.59,10.53c0.61,2.061,0.201,4.19-0.189,6.23c-1.09,0.55-2.17,1.1-3.24,1.66
	c2.32,5.06,4.17,10.95,2.48,16.47c-0.91,0.25-2.75,0.76-3.67,1.01c1.27,6.05,5.189,12.21,2.699,18.44
	c-2.369,2.2-5.49,3.34-8.41,4.61c-1,3.71-1.609,7.9-4.52,10.67c-1.74,2.03-4.63,1.35-6.96,1.69c-2.2,4.25-4.01,8.81-7.76,11.99
	c-0.979,0.16-1.96,0.32-2.94,0.479c-0.64,1.15-1.229,2.32-2.029,3.37c-2.301,0.98-5.121,0.641-7.03,2.52
	c-18.71,14.65-42.84,21.811-66.5,20.561c-1.34,3.43-2.2,7.02-2.35,10.7c4.99,5.21,10.21,10.229,14.59,15.979
	c4.89,4.53,8.32,10.34,12.93,15.11c14.89,12.39,26.81,28.22,43.04,38.979c4.12,2.15,8.42-0.58,12.09-2.39
	c10.689-4.45,19.75-11.92,28.26-19.6c9.211-6.101,18.771-12.16,25.44-21.181c2.08-7.989,0.851-16.359,1.96-24.479
	c0.34-7.54,2.27-14.84,4-22.14c-2.95-1.84-7.24-3.351-7.46-7.431c-0.979-6.97-2.341-14.86,1.86-21.09
	c2.35-3.69,3.81-8.06,6.949-11.16c7.221-0.72,14.44,0.59,21.641,0.97c1.6-0.2,2.529,1.36,2.609,2.76
	c0.51,6.02,0.221,12.08-0.039,18.1c-0.511,6.58-2.41,13.61-7.5,18.14c-4.32,3.091-9.94,1.621-14.871,1.82
	c-3.6,13.42-4.229,27.37-4.399,41.2c0.63,0.31,1.89,0.92,2.521,1.229c-0.591,1.98-1.371,3.9-2.221,5.791
	c0.83,5.319,0.27,10.8,1.95,16c-0.86,0.949-1.729,1.899-2.591,2.85c-1.26-0.1-2.52-0.2-3.779-0.3
	c-0.04-5.53,0.58-11.061,0.26-16.591c-6.609,7.49-14.949,13.141-23.32,18.461c-3.969,3.039-7.149,7.01-11.469,9.619
	c-7.681,6.17-16.57,10.75-25.83,14.021c-6.341,1.91-11.431-3.069-15.861-6.761c-4.659-2.909-8.079-7.26-12.189-10.819
	c-6.94-6.42-13.2-13.54-20.29-19.8c-5.18-3.84-8.7-9.32-12.79-14.21c-1.81-2.19-4.04-4-5.73-6.29c-3.09-4.391-7.37-7.74-10.7-11.94
	c-1.12,12.14-6.09,23.46-7.86,35.46c-1.95,9.2-3.88,18.43-6.78,27.381c-1.77,7.029-1.26,14.41-3.14,21.43
	c7.8,4.13,15.22,8.99,23.17,12.84c5,1.9,9.42,5.35,14.72,6.37c16.06,0.2,32.121-0.04,48.18,0.1c4.19,0.021,8.149,1.479,12.239,2.21
	c7.851-3.77,16.181-6.4,24.33-9.439c3-1.131,6.261-0.66,9.391-0.84c10.62-0.82,21.279-0.42,31.92-0.4
	c8.24,1.061,16.609-0.28,24.8,1.24c5.22,0.109,10.15,1.91,15.16,3.16c3.78,0.899,6.39,3.92,9.04,6.52v13.38
	c-1.83,7.32-8.75,11.44-14.63,15.32c-12.99,8.17-29.32,3.87-43.69,5.8H228.6c-4.92-0.68-9.959-0.34-14.8-1.6
	c-6.37-1.541-12.88-2.33-19.31-3.49c-5.29-2.54-9.51-7.08-12.01-12.35c-1.24-4.66-0.201-9.59-0.86-14.34
	c-4.771-1.23-9.681-1.941-14.62-1.75c-13.71,0.17-27.44-0.271-41.15,0.219c-6.66-0.069-12.73,2.84-18.74,5.33
	c-0.53-1.039-1.04-2.069-1.54-3.109c3.35-2.131,7.16-3.23,10.88-4.51c-2.72-1.66-5.57-3.09-8.52-4.271
	c-7.45-3.47-14.15-8.36-21.61-11.8c-0.23,8.529-0.29,17.07-1.19,25.57c0.42,7.43-1.57,14.689-1.12,22.1c-1.4,0-2.81-0.01-4.22-0.01
	c-0.04-6.01,1.25-11.94,1.11-17.961c-0.13-6.699,1.16-13.34,1.05-20.029c-0.07-3.84-0.03-7.689,0.58-11.49
	c-7.14-2.18-12.84-7.01-18.99-10.99c-3.5-2.899-6.81-6.039-10.52-8.67c-3.07-2.22-6.28-4.899-6.93-8.85
	c-0.48-1.92,1.17-3.359,2.2-4.72c6.51-7.15,14.19-13.23,19.82-21.16c2.9-4.33,6.38-8.229,10.13-11.84
	c2.77-2.601,4.85-5.841,7.76-8.3c4.31-3.67,8.12-7.881,12.1-11.9c4.98-3.971,3.13-11.12,5.69-16.38
	c-16.34-1.83-32.45-7.08-46.07-16.42c-6.24-3.98-11.66-9.05-17.01-14.12c-5.96,0.41-12.03-0.11-17.62-2.3
	c-3.84-1.43-4.94-5.76-6.63-9.05c-0.81-3.85-0.32-7.87-0.11-11.78c-4.22-1.79-8.41-3.71-12.31-6.14c-2.16-1.4-1.76-4.37-1.61-6.57
	c0.23-3.44,2.21-6.37,4.65-8.66c-2.08-2.43-4.55-4.74-5.67-7.8c-0.79-5.56-0.82-12.93,5.08-15.79C5.48,100.26,1.57,95.56,0,89.96
	v-4.61c1.43-5.03,5.22-8.9,9.22-12.04c0.23-6.07-0.7-13.42,4.1-18.04c2.1-2.7,6.56-1.46,8.19-4.74c3.77-6.61,6.01-14.22,10.84-20.18
	c5.9-3.25,11.37-7.2,16.5-11.57c1.97-1.99,4.88-2.23,7.48-2.76c3.42-4.04,6.55-8.85,11.84-10.59c6.8-1.87,15.27-2.63,20.7,2.78
	C92.89,5.53,97.21,3.02,102.04,2.18 M101.99,4.21c-5.24,1.01-9.56,4.32-14.16,6.8c-1.4-1.8-2.79-4-5.27-4.33
	c-4.63-0.89-9.55-0.67-14.05,0.75c-5.12,1.96-7.83,6.89-11.33,10.73c-2.13,0.26-4.54,0.23-6.3,1.65c-4.67,3.73-9.33,7.5-14.44,10.62
	c-1.23,0.77-2.84,1.15-3.56,2.53c-2.66,3.98-4.54,8.42-6.69,12.68c-1.7,4.55-4.49,10.3-10.25,9.93c-5.12,3.84-4.62,10.75-4.66,16.45
	c0.2,1.5-0.27,2.98-1.7,3.7c-4.05,3.311-8.5,7.76-7.49,13.521c1.09,6.46,7,11.63,6.3,18.55c-6.12,1.52-5.6,8.94-5.01,13.83
	c1.75,3.05,4.22,5.59,6.44,8.29c-3.74,3.04-6.73,7.79-5.25,12.76c4.29,3.39,9.84,4.68,14.33,7.73c-0.92,3.88-0.93,7.99-0.43,11.92
	c1.63,2.68,2.16,6.66,5.57,7.71c4.88,1.86,10.08,2.79,15.3,2.42C27.16,158.7,18.97,141.31,16.96,123
	c-1.12-6.35-1.31-12.86-0.13-19.21c2.16-21,12.22-40.97,27.45-55.53c16-15.52,37.48-25.09,59.64-27.09c6.38-0.26,12.78-0.28,19.16,0
	c17.4,1.66,34.41,7.81,48.609,18.05c17.66,12.45,30.961,31.25,36.101,52.29c-0.069-1.7-0.14-3.4-0.13-5.1
	c3.26-1.34,5.64-4.88,5.75-8.4c-0.7-5.02-3.51-9.44-6.91-13.09c1.33-1.68,2.561-3.49,2.391-5.75c-3.061-1.09-6.42-0.66-9.48-1.35
	c-4.33-4.19-8.54-8.55-13.75-11.68c1.561-3.7,1.32-7.84,0.93-11.75c-1.32-3.36-5.15-4.44-8-6.13c-0.811-1.37-0.88-3.05-1.33-4.56
	c-4.08-3.92-9.93-3.71-15.18-3.76c-0.07-0.66-0.23-1.97-0.311-2.63c-2.529-2.52-4.709-5.57-8.06-7.07
	c-6.28-1.95-12.63,0.479-18,3.71c-1.85-4.45-3.55-9.99-8.77-11.52C118.59,1.47,110.23,2.99,101.99,4.21 M83.4,27.73
	c-0.47,0.12-1.4,0.38-1.87,0.5c-7.79,2.78-15.17,6.58-22.12,11.06c-1.62,1.14-3.27,2.22-4.82,3.45C49.43,45.31,46.17,50.18,42,53.97
	c-5.64,6.6-11.2,13.38-14.73,21.4c-2.59,5.94-5.91,11.91-6.1,18.53c-0.17-0.01-0.52-0.03-0.7-0.04c-0.54,4.05-1.62,8.04-1.27,12.17
	c0.34,8.53-1.03,17.3,1.7,25.58c1,6.36,3.68,12.22,6.37,18.02c4.48,9.65,11.3,17.98,18.81,25.43c3.5,4.59,8.81,7.2,13.33,10.629
	c6.94,4.42,14.25,8.291,22.04,10.971c1.07,0.32,2.12,0.68,3.16,1.08c2.99,0.54,5.98,1.21,8.9,2.08c1.25,0.199,2.51,0.39,3.78,0.57
	c5.11,1.239,10.45,0.34,15.67,0.609c4.89-0.29,9.94,0.66,14.73-0.58c1.98-0.25,3.98-0.42,5.9-1c1.36-0.33,2.73-0.63,4.01-1.189
	c0.96-0.141,1.92-0.28,2.89-0.41c2.3-0.86,4.67-1.53,6.94-2.5c4.21-1.471,8.22-3.44,12.14-5.561c1.529-1.24,3.289-2.15,5.05-3.01
	c5.44-3.85,11.63-6.97,15.659-12.46c4.441-4.25,8.131-9.16,12.031-13.88c0.799-1.27,1.59-2.55,2.42-3.8
	c2.819-5.27,5.379-10.65,7.85-16.09c0.29-1.38,0.609-2.77,1.029-4.11c0.381-1.5,0.82-2.97,1.371-4.41h-1.08
	c1.22-1.99,2.439-4.1,2-6.53c0.27-8.65,0.199-17.32,0.029-25.97c1-2.6-2.209-4.69-1.209-7.03c-0.391-1.28-0.75-2.57-1.091-3.87
	c-0.44-1.35-0.75-2.73-1.04-4.12c-3.16-6.77-6.16-13.65-10.27-19.92c-7.24-8.6-14.03-18.06-23.94-23.8
	c-1.25-0.85-2.51-1.66-3.75-2.51c-1.75-0.89-3.51-1.79-5.05-3.02c-3.301-1.87-6.75-3.44-10.24-4.92c-0.96-0.32-1.91-0.66-2.84-1.04
	c-1.98-0.75-4-1.37-5.99-2.1c-0.97-0.15-1.93-0.29-2.9-0.44c-1.31-0.5-2.66-0.85-4.02-1.2c-1.94-0.5-3.93-0.74-5.91-1.021
	c-2.82-0.82-5.78-0.45-8.66-0.52c-6.4,0.09-12.8-0.14-19.19,0.1C94.28,24.92,88.81,26.26,83.4,27.73 M209.04,97.56
	c4.271,22.86-1.21,47.37-14.8,66.24c1.64-0.03,3.279-0.05,4.93-0.05c3.09-3.08,4.33-7.44,4.641-11.69
	c3.189-0.89,6.129-2.42,8.91-4.2c-0.101-3.24,0.639-6.72-0.941-9.72c-1.029-2.27-2.439-4.56-1.909-7.17
	c-0.22-2.38,2.67-2.56,4.14-3.61c-0.119-2.81-0.359-5.62-1.01-8.36c-0.859-2.32-2.061-4.54-2.27-7.06
	c1.299-0.74,2.59-1.48,3.89-2.23C215.25,104.81,211.891,101.07,209.04,97.56 M251.2,159.72c-2.49,4.03-4.71,8.23-6.931,12.41
	c-1.709,5.57-0.789,11.53,0.5,17.08c1.641,1.95,4.141,2.681,6.59,2.88c0.431,0.721,0.851,1.44,1.281,2.16
	c3.789,0.5,8.109,1.15,11.409-1.26c3.591-3.67,5.19-8.91,5.7-13.91c0.16-6.07,0.529-12.15,0.08-18.22
	C263.59,160.8,257.45,159.4,251.2,159.72 M89.5,235.54c-3.45,2.899-5.97,6.71-9.35,9.7c-6.02,5.699-10.02,13.09-15.83,18.979
	c-4.77,4.69-9.65,9.29-14.09,14.29c1.25,3.94,5.26,5.7,8.2,8.18c4.22,3.44,8.11,7.33,12.97,9.92c3.32,3.061,7.42,4.931,11.56,6.611
	c1.32-4.57,1.48-9.341,2.02-14.041c0.12-4.97,2-9.619,3.38-14.33c2.13-8.949,4.48-17.869,5.83-26.99
	c2.21-7.56,4.1-15.199,5.96-22.859C96.71,228.62,93.32,232.311,89.5,235.54 M221.189,319.74c-3.539,0.35-7.26-0.53-10.649,0.81
	c-6.91,2.55-14.04,4.61-20.649,7.91c-0.291,0.011-0.861,0.03-1.141,0.04c-0.77,1.58-1.4,3.23-1.939,4.91
	c7.569,5.46,17.359,4.98,26.27,5.09c9.97,0.87,20.01,0.34,30.01,0.439c8.92-0.879,17.891-0.33,26.84-0.459
	c8.66,0.39,18.01-1.931,24.1-8.471c0.031-1.449,0.051-2.9,0.08-4.35c-2.549-1.53-5.35-2.6-8.239-3.26
	c-8.46-1.971-17.16-2.94-25.86-2.58c-5.02,0.32-9.93-1.12-14.96-0.76C237.1,319.35,229.07,318.45,221.189,319.74z"/>
<path fill="#FFFFFF" d="M101.99,4.21c8.24-1.22,16.6-2.74,24.95-1.78c5.22,1.53,6.92,7.07,8.77,11.52c5.37-3.23,11.72-5.66,18-3.71
	c3.351,1.5,5.53,4.55,8.06,7.07c0.08,0.66,0.24,1.97,0.311,2.63c5.25,0.05,11.1-0.16,15.18,3.76c0.45,1.51,0.52,3.19,1.33,4.56
	c2.85,1.69,6.68,2.771,8,6.13c0.391,3.91,0.631,8.05-0.93,11.75c5.21,3.13,9.42,7.49,13.75,11.68c3.061,0.69,6.42,0.26,9.48,1.35
	c0.17,2.26-1.061,4.07-2.391,5.75c3.4,3.65,6.21,8.07,6.91,13.09c-0.11,3.521-2.49,7.06-5.75,8.4c-0.01,1.7,0.061,3.4,0.13,5.1
	c-5.14-21.04-18.44-39.84-36.101-52.29C157.49,28.98,140.48,22.83,123.08,21.17c-6.38-0.28-12.78-0.26-19.16,0
	c-22.16,2-43.64,11.57-59.64,27.09c-15.23,14.56-25.29,34.53-27.45,55.53c-1.18,6.35-0.99,12.86,0.13,19.21
	c2.01,18.31,10.2,35.7,22.38,49.45c-5.22,0.37-10.42-0.56-15.3-2.42c-3.41-1.05-3.94-5.03-5.57-7.71c-0.5-3.93-0.49-8.04,0.43-11.92
	c-4.49-3.05-10.04-4.34-14.33-7.73c-1.48-4.97,1.51-9.72,5.25-12.76c-2.22-2.7-4.69-5.24-6.44-8.29
	c-0.59-4.89-1.11-12.31,5.01-13.83c0.7-6.92-5.21-12.09-6.3-18.55C1.08,83.48,5.53,79.03,9.58,75.72c1.43-0.72,1.9-2.2,1.7-3.7
	c0.04-5.7-0.46-12.61,4.66-16.45c5.76,0.37,8.55-5.38,10.25-9.93c2.15-4.26,4.03-8.7,6.69-12.68c0.72-1.38,2.33-1.76,3.56-2.53
	c5.11-3.12,9.77-6.89,14.44-10.62c1.76-1.42,4.17-1.39,6.3-1.65c3.5-3.84,6.21-8.77,11.33-10.73c4.5-1.42,9.42-1.64,14.05-0.75
	c2.48,0.33,3.87,2.53,5.27,4.33C92.43,8.53,96.75,5.22,101.99,4.21z"/>
<path fill="#FFFFFF" d="M83.4,27.73c5.41-1.47,10.88-2.81,16.43-3.64c6.39-0.24,12.79-0.01,19.19-0.1c2.88,0.07,5.84-0.3,8.66,0.52
	c1.98,0.28,3.97,0.521,5.91,1.021c1.36,0.35,2.71,0.7,4.02,1.2c0.97,0.15,1.93,0.29,2.9,0.44c1.99,0.73,4.01,1.35,5.99,2.1
	c0.93,0.38,1.88,0.72,2.84,1.04c3.49,1.48,6.939,3.05,10.24,4.92c1.54,1.23,3.3,2.13,5.05,3.02c1.24,0.85,2.5,1.66,3.75,2.51
	c9.91,5.74,16.7,15.2,23.94,23.8c4.109,6.27,7.109,13.15,10.27,19.92c0.29,1.39,0.6,2.77,1.04,4.12c0.341,1.3,0.7,2.59,1.091,3.87
	c-1,2.34,2.209,4.43,1.209,7.03c0.17,8.65,0.24,17.32-0.029,25.97c0.439,2.43-0.78,4.54-2,6.53h1.08
	c-0.551,1.44-0.99,2.91-1.371,4.41c-0.42,1.34-0.739,2.73-1.029,4.11c-2.471,5.44-5.03,10.82-7.85,16.09
	c-0.83,1.25-1.621,2.53-2.42,3.8c-3.9,4.72-7.59,9.63-12.031,13.88c-4.029,5.49-10.219,8.61-15.659,12.46
	c-1.761,0.859-3.521,1.77-5.05,3.01c-3.92,2.12-7.93,4.09-12.14,5.561c-2.27,0.97-4.64,1.64-6.94,2.5
	c-0.97,0.13-1.93,0.27-2.89,0.41c-1.28,0.56-2.65,0.859-4.01,1.189c-1.92,0.58-3.92,0.75-5.9,1c-4.79,1.24-9.84,0.29-14.73,0.58
	c-5.22-0.27-10.56,0.63-15.67-0.609c-1.27-0.181-2.53-0.371-3.78-0.57c-2.92-0.87-5.91-1.54-8.9-2.08c-1.04-0.4-2.09-0.76-3.16-1.08
	c-7.79-2.68-15.1-6.551-22.04-10.971c-4.52-3.43-9.83-6.04-13.33-10.629c-7.51-7.45-14.33-15.78-18.81-25.43
	c-2.69-5.8-5.37-11.66-6.37-18.02c-2.73-8.28-1.36-17.05-1.7-25.58c-0.35-4.13,0.73-8.12,1.27-12.17c0.18,0.01,0.53,0.03,0.7,0.04
	c0.19-6.62,3.51-12.59,6.1-18.53c3.53-8.02,9.09-14.8,14.73-21.4c4.17-3.79,7.43-8.66,12.59-11.229c1.55-1.23,3.2-2.31,4.82-3.45
	c6.95-4.48,14.33-8.28,22.12-11.06C82,28.11,82.93,27.85,83.4,27.73 M87.89,81.83c3.34,3.18,7.16,5.8,10.65,8.79
	c2.19,3.06,5.32,5.2,8.7,6.78c-4.04,1.46-7.65,6.02-4.82,10.22c4.88,2.43,10.73-1.07,12.91-5.67c3.15,0.92,7.3,5.17,9.82,1.05
	c-5.23-3.08-11.55-3.98-16.29-7.91c-2.69-1.94-5.82-3.43-7.69-6.3c-3.03-2.96-6.74-5.15-9.76-8.15
	C90.26,79.26,87.45,79.69,87.89,81.83 M161.76,96.8c-3.46,3.05-7.97,4.3-12.14,6.04c0.4,0.57,1.2,1.71,1.601,2.28
	c3.449-0.67,6.75-1.98,9.67-3.94c-0.611,1.88-1.631,3.76-1.33,5.8c0.039,3.23,4.239,1.66,6.34,2.1c2.3-1.89,5.649-3.67,5.449-7.13
	c0.25-3.15-3.64-3.73-5.899-4.32c3.26-2.43,6.61-4.75,9.79-7.28c1.74-1.21,1.39-3.32,0.1-4.71C171.26,89.88,166.2,92.97,161.76,96.8
	 M117.34,148.65c-1.13,0.07-2.26,0.09-3.39,0.06c-2.92,2.29-4.94,5.42-6.61,8.68c-1.03,1.36-2.14,2.63-3.27,3.9
	c-0.1,0.51-0.29,1.54-0.39,2.05c-0.51,1.31-0.86,2.67-1.17,4.03c-0.57,1.38-0.56,2.87-0.01,4.26c0.37,1.82,0.99,3.58,1.65,5.33
	c0.56,0.09,1.67,0.27,2.23,0.37c6.13,2.42,13.53,0.88,18.36-3.61c1.2-1.66,1.98-3.58,3.12-5.27c0.13-0.89,0.25-1.79,0.39-2.68
	c1.49-3.92,1.07-8.52-0.89-12.23C125.48,150.38,121.06,147.14,117.34,148.65z"/>
<path d="M87.89,81.83c-0.44-2.14,2.37-2.57,3.52-1.19c3.02,3,6.73,5.19,9.76,8.15c1.87,2.87,5,4.36,7.69,6.3
	c4.74,3.93,11.06,4.83,16.29,7.91c-2.52,4.12-6.67-0.13-9.82-1.05c-2.18,4.6-8.03,8.1-12.91,5.67c-2.83-4.2,0.78-8.76,4.82-10.22
	c-3.38-1.58-6.51-3.72-8.7-6.78C95.05,87.63,91.23,85.01,87.89,81.83z"/>
<path d="M161.76,96.8c4.44-3.83,9.5-6.92,13.58-11.16c1.29,1.39,1.641,3.5-0.1,4.71c-3.18,2.53-6.53,4.85-9.79,7.28
	c2.26,0.59,6.149,1.17,5.899,4.32c0.2,3.46-3.149,5.24-5.449,7.13c-2.101-0.44-6.301,1.13-6.34-2.1c-0.301-2.04,0.719-3.92,1.33-5.8
	c-2.92,1.96-6.221,3.27-9.67,3.94c-0.4-0.57-1.201-1.71-1.601-2.28C153.79,101.1,158.3,99.85,161.76,96.8z"/>
<path fill="#FFFFFF" d="M0,89.96c1.57,5.6,5.48,10.3,6.49,16.11c-5.9,2.86-5.87,10.23-5.08,15.79c1.12,3.06,3.59,5.37,5.67,7.8
	c-2.44,2.29-4.42,5.22-4.65,8.66c-0.15,2.2-0.55,5.17,1.61,6.57c3.9,2.43,8.09,4.35,12.31,6.14c-0.21,3.91-0.7,7.93,0.11,11.78
	c1.69,3.29,2.79,7.62,6.63,9.05c5.59,2.19,11.66,2.71,17.62,2.3c5.35,5.07,10.77,10.14,17.01,14.12
	c13.62,9.34,29.73,14.59,46.07,16.42c-2.56,5.26-0.71,12.409-5.69,16.38c-3.98,4.02-7.79,8.23-12.1,11.9
	c-2.91,2.459-4.99,5.699-7.76,8.3c-3.75,3.61-7.23,7.51-10.13,11.84c-5.63,7.93-13.31,14.01-19.82,21.16
	c-1.03,1.36-2.68,2.8-2.2,4.72c0.65,3.95,3.86,6.63,6.93,8.85c3.71,2.631,7.02,5.771,10.52,8.67c6.15,3.98,11.85,8.811,18.99,10.99
	c-0.61,3.801-0.65,7.65-0.58,11.49c0.11,6.689-1.18,13.33-1.05,20.029c0.14,6.021-1.15,11.951-1.11,17.961
	c1.41,0,2.82,0.01,4.22,0.01c-0.45-7.41,1.54-14.67,1.12-22.1c0.9-8.5,0.96-17.041,1.19-25.57c7.46,3.439,14.16,8.33,21.61,11.8
	c2.95,1.181,5.8,2.61,8.52,4.271c-3.72,1.279-7.53,2.379-10.88,4.51c0.5,1.04,1.01,2.07,1.54,3.109
	c6.01-2.49,12.08-5.399,18.74-5.33c13.71-0.489,27.44-0.049,41.15-0.219c4.939-0.191,9.85,0.52,14.62,1.75
	c0.659,4.75-0.38,9.68,0.86,14.34c2.5,5.27,6.72,9.81,12.01,12.35c6.43,1.16,12.939,1.949,19.31,3.49c4.841,1.26,9.88,0.92,14.8,1.6
	H0V89.96z"/>
<path fill="#FFFFFF" d="M209.04,97.56c2.851,3.51,6.21,7.25,5.58,12.15c-1.3,0.75-2.591,1.49-3.89,2.23
	c0.209,2.52,1.41,4.74,2.27,7.06c0.65,2.74,0.891,5.55,1.01,8.36c-1.47,1.05-4.359,1.23-4.14,3.61c-0.53,2.61,0.88,4.9,1.909,7.17
	c1.58,3,0.841,6.48,0.941,9.72c-2.781,1.78-5.721,3.31-8.91,4.2c-0.311,4.25-1.551,8.61-4.641,11.69c-1.65,0-3.29,0.02-4.93,0.05
	C207.83,144.93,213.311,120.42,209.04,97.56z"/>
<path d="M117.34,148.65c3.72-1.51,8.14,1.73,10.02,4.89c1.96,3.71,2.38,8.31,0.89,12.23c-0.14,0.89-0.26,1.79-0.39,2.68
	c-1.14,1.69-1.92,3.61-3.12,5.27c-4.83,4.49-12.23,6.03-18.36,3.61c-0.56-0.1-1.67-0.28-2.23-0.37c-0.66-1.75-1.28-3.51-1.65-5.33
	c-0.55-1.39-0.56-2.88,0.01-4.26c0.31-1.36,0.66-2.72,1.17-4.03c0.1-0.51,0.29-1.54,0.39-2.05c1.13-1.27,2.24-2.54,3.27-3.9
	c1.67-3.26,3.69-6.39,6.61-8.68C115.08,148.74,116.21,148.72,117.34,148.65z"/>
<path fill="#FFFFFF" d="M251.2,159.72c6.25-0.32,12.39,1.08,18.63,1.14c0.449,6.07,0.08,12.15-0.08,18.22
	c-0.51,5-2.109,10.24-5.7,13.91c-3.3,2.41-7.62,1.76-11.409,1.26c-0.431-0.72-0.851-1.439-1.281-2.16
	c-2.449-0.199-4.949-0.93-6.59-2.88c-1.289-5.55-2.209-11.51-0.5-17.08C246.49,167.95,248.71,163.75,251.2,159.72 M253.529,163.54
	c-2.789,4.58-4.829,9.61-6.299,14.76c-0.36,1.16-0.711,3.63,1.26,2.67c1.58-5.43,3.92-10.57,6.07-15.76
	C254.311,164.79,253.79,163.96,253.529,163.54 M259.061,165.22c-2.721,5.63-5.11,11.71-4.83,18.08c0.42,0.271,1.26,0.79,1.68,1.05
	c0.63-3.79,0.74-7.7,2.109-11.33c1.03-2.61,2.17-5.19,3.07-7.85C260.58,165.18,259.57,165.2,259.061,165.22 M264.02,171.13
	c-0.1,5.45-3.699,10.3-3.24,15.78c2.66-1.98,2.73-5.48,3.791-8.34c1.51-4.16,1.9-8.61,1.609-13
	C263.439,166.15,264.391,169.12,264.02,171.13z"/>
<path d="M253.529,163.54c0.261,0.42,0.781,1.25,1.031,1.67c-2.15,5.19-4.49,10.33-6.07,15.76c-1.971,0.96-1.62-1.51-1.26-2.67
	C248.7,173.15,250.74,168.12,253.529,163.54z"/>
<path d="M259.061,165.22c0.51-0.02,1.52-0.04,2.029-0.05c-0.9,2.66-2.04,5.24-3.07,7.85c-1.369,3.63-1.479,7.54-2.109,11.33
	c-0.42-0.26-1.26-0.779-1.68-1.05C253.95,176.93,256.34,170.85,259.061,165.22z"/>
<path d="M264.02,171.13c0.371-2.01-0.58-4.98,2.16-5.56c0.291,4.39-0.1,8.84-1.609,13c-1.061,2.86-1.131,6.36-3.791,8.34
	C260.32,181.43,263.92,176.58,264.02,171.13z"/>
<path fill="#FFFFFF" d="M89.5,235.54c3.82-3.229,7.21-6.92,10.65-10.54c-1.86,7.66-3.75,15.3-5.96,22.859
	c-1.35,9.121-3.7,18.041-5.83,26.99c-1.38,4.711-3.26,9.36-3.38,14.33c-0.54,4.7-0.7,9.471-2.02,14.041
	c-4.14-1.681-8.24-3.551-11.56-6.611c-4.86-2.59-8.75-6.479-12.97-9.92c-2.94-2.479-6.95-4.239-8.2-8.18
	c4.44-5,9.32-9.6,14.09-14.29c5.81-5.89,9.81-13.28,15.83-18.979C83.53,242.25,86.05,238.439,89.5,235.54z"/>
<path fill="#FFFFFF" d="M221.189,319.74c7.881-1.29,15.91-0.391,23.86-0.68c5.03-0.36,9.94,1.08,14.96,0.76
	c8.7-0.36,17.4,0.609,25.86,2.58c2.89,0.66,5.69,1.729,8.239,3.26c-0.029,1.449-0.049,2.9-0.08,4.35
	c-6.09,6.54-15.439,8.86-24.1,8.471c-8.949,0.129-17.92-0.42-26.84,0.459c-10-0.1-20.04,0.431-30.01-0.439
	c-8.91-0.109-18.7,0.37-26.27-5.09c0.539-1.68,1.17-3.33,1.939-4.91c0.279-0.01,0.85-0.029,1.141-0.04
	c6.609-3.3,13.739-5.36,20.649-7.91C213.93,319.21,217.65,320.09,221.189,319.74z"/>
<path fill="#FFFFFF" d="M285.37,355.2c5.88-3.88,12.8-8,14.63-15.32V361h-58.32C256.05,359.07,272.38,363.37,285.37,355.2z"/>
</svg>
