<?xml version="1.0" encoding="UTF-8" ?>
<!DOCTYPE svg PUBLIC "-//W3C//DTD SVG 1.1//EN" "http://www.w3.org/Graphics/SVG/1.1/DTD/svg11.dtd">
<svg width="547pt" height="363pt" viewBox="0 0 547 363" version="1.1" xmlns="http://www.w3.org/2000/svg">
<path fill="#ffffff" opacity="1.00" d=" M 0.00 0.00 L 547.00 0.00 L 547.00 363.00 L 0.00 363.00 L 0.00 0.00 M 241.02 29.36 C 236.64 29.20 232.24 29.30 227.91 30.07 C 209.72 32.81 191.90 37.96 174.97 45.13 C 164.47 49.59 155.70 57.16 148.32 65.73 C 143.65 63.89 138.54 62.27 133.54 63.83 C 126.96 67.05 124.45 75.76 126.50 82.39 C 126.75 82.85 127.25 83.76 127.49 84.21 C 127.35 84.59 127.07 85.33 126.93 85.70 C 126.91 86.21 126.87 87.22 126.85 87.73 C 126.41 87.84 125.54 88.07 125.10 88.18 C 120.01 84.30 116.62 78.73 111.75 74.62 C 110.63 68.65 101.21 66.92 98.41 72.36 C 97.20 77.07 101.82 80.35 103.75 84.12 C 99.89 86.55 94.92 84.36 90.97 86.76 L 91.91 88.04 C 89.38 84.93 85.60 88.58 82.37 87.44 C 78.78 86.24 74.86 87.40 72.47 90.33 C 68.62 90.49 64.89 94.74 66.50 98.61 C 68.27 100.94 70.83 102.81 71.27 105.91 C 70.48 106.47 69.82 107.14 69.29 107.92 C 65.49 109.36 66.13 114.60 67.59 117.51 C 69.08 118.91 70.66 120.23 71.64 122.07 C 68.70 125.35 65.27 128.48 63.35 132.48 C 61.24 134.26 60.16 138.65 62.56 140.40 C 63.13 141.91 66.22 140.92 67.70 141.33 L 67.30 141.04 C 67.65 140.95 68.37 140.79 68.73 140.71 L 69.59 139.91 C 73.83 139.32 77.57 136.82 80.83 134.18 C 85.97 132.84 89.41 127.98 94.74 126.99 C 94.73 129.33 94.59 131.68 94.85 134.02 C 97.22 137.69 105.10 136.91 105.58 132.32 C 105.73 132.12 106.03 131.72 106.18 131.52 C 106.73 131.51 107.84 131.49 108.39 131.48 C 111.07 127.84 114.00 124.41 117.21 121.23 C 119.21 119.38 120.64 116.61 123.47 115.94 C 123.83 117.65 124.19 119.36 124.56 121.08 C 125.08 131.89 126.22 142.80 129.42 153.18 C 131.80 161.04 136.90 167.63 139.99 175.17 C 141.76 179.34 143.45 183.56 145.69 187.50 C 148.20 190.78 143.05 193.66 144.23 197.32 C 145.54 197.38 146.85 197.45 148.16 197.52 C 150.32 199.68 152.33 203.45 155.98 202.28 C 165.62 200.32 174.87 204.75 183.42 208.61 C 177.88 213.96 172.23 219.63 169.17 226.82 C 165.78 232.82 166.01 240.66 167.86 247.16 C 168.72 247.33 169.58 247.51 170.45 247.69 C 170.38 246.06 170.32 244.43 170.21 242.80 C 171.21 232.58 174.58 222.25 181.50 214.48 C 186.77 208.38 193.92 204.13 201.52 201.61 C 199.78 208.33 197.89 215.04 197.20 221.97 C 206.12 220.14 207.93 208.98 216.43 206.31 C 218.07 211.85 214.02 217.46 216.44 222.92 C 223.66 222.17 224.58 212.32 231.09 210.83 C 232.88 215.77 226.42 219.39 228.47 224.52 C 231.64 224.06 233.91 221.45 237.06 221.02 C 235.40 225.73 231.08 229.00 229.76 233.95 C 225.77 238.00 221.43 241.90 217.28 245.87 C 217.72 246.29 218.59 247.12 219.03 247.53 C 224.43 244.62 227.83 239.18 233.10 236.05 C 233.51 232.65 234.97 229.21 237.99 227.35 C 243.29 227.89 248.60 228.36 253.94 228.20 C 256.39 231.04 258.48 234.27 259.50 237.92 C 259.85 240.64 259.45 243.50 260.51 246.10 C 261.44 247.98 263.68 247.38 265.36 247.66 C 267.88 243.78 264.05 239.98 263.91 236.01 C 264.23 232.27 260.68 230.27 258.91 227.42 C 264.06 226.46 269.31 225.41 273.85 222.64 C 280.99 218.75 287.92 212.60 296.55 213.20 C 305.67 220.53 317.09 225.63 329.02 224.83 C 337.39 224.21 347.11 222.70 352.52 215.53 C 356.63 209.14 355.94 198.97 349.19 194.58 C 345.31 191.74 340.22 190.52 336.95 186.92 C 341.62 176.87 345.44 166.22 345.82 155.00 C 347.36 141.20 343.24 127.68 342.58 114.01 L 343.79 115.08 L 344.83 114.31 C 345.97 114.66 347.12 114.99 348.29 115.29 C 347.21 115.22 346.12 115.25 345.04 115.27 C 350.94 121.02 359.50 115.81 365.08 112.07 C 366.96 109.46 364.38 106.25 361.47 106.01 C 361.37 105.41 361.17 104.22 361.07 103.63 C 364.51 103.70 367.96 103.56 371.40 103.33 C 374.58 104.83 377.22 98.62 373.41 98.38 C 372.94 96.68 370.22 97.41 368.79 96.95 C 371.92 96.90 375.05 96.60 378.16 96.16 C 378.32 94.46 378.50 92.76 378.67 91.06 C 378.32 92.40 378.00 93.74 377.69 95.08 C 377.70 92.91 377.99 90.13 375.28 89.55 C 370.18 88.83 365.04 89.66 359.93 89.27 C 359.21 88.06 358.51 86.85 357.83 85.62 C 359.73 85.88 360.73 84.03 362.02 83.03 C 364.00 81.03 366.90 79.90 368.24 77.30 C 368.64 75.34 368.66 73.31 368.47 71.32 C 365.47 67.10 359.45 68.16 355.66 70.64 C 353.39 72.29 350.02 72.73 348.47 75.15 C 345.71 75.18 343.23 76.46 341.02 77.99 C 343.15 75.92 344.96 73.56 346.57 71.07 C 348.43 68.97 347.85 65.11 346.34 62.84 C 340.12 56.99 331.39 62.49 326.71 67.65 C 322.17 62.37 320.02 54.62 314.01 50.60 C 311.71 50.36 310.52 48.80 310.19 46.60 C 303.56 43.21 297.37 39.13 291.13 35.10 C 278.56 29.55 264.88 25.09 250.96 26.64 C 247.34 26.45 244.59 29.64 241.02 29.36 M 366.92 48.86 C 365.05 49.86 363.27 51.29 364.18 53.63 C 366.26 53.48 368.44 53.46 370.30 52.34 C 376.83 50.60 384.10 48.62 387.88 42.48 C 380.45 41.98 373.62 46.12 366.92 48.86 M 426.13 50.37 C 427.17 50.82 428.20 51.28 429.29 51.64 L 428.43 51.82 C 423.09 50.66 418.16 53.57 412.96 54.18 C 405.83 55.37 398.97 60.41 397.85 67.92 C 397.46 68.40 396.68 69.36 396.30 69.84 C 393.35 68.49 389.52 65.33 386.74 68.75 C 385.06 68.92 383.39 69.32 381.93 70.19 C 381.66 70.40 381.11 70.81 380.83 71.02 C 379.51 71.33 378.17 71.58 376.91 72.10 C 374.96 72.91 374.42 74.95 374.24 76.86 L 374.98 76.94 C 377.12 81.07 383.52 81.43 387.23 79.08 C 390.56 76.79 394.47 74.59 395.90 70.57 C 396.39 70.47 397.39 70.26 397.89 70.16 C 400.40 70.91 401.89 73.89 404.72 73.67 C 407.20 75.72 410.90 73.80 413.60 75.47 C 415.78 76.61 417.83 78.30 420.40 78.44 C 426.79 78.85 433.37 79.04 439.40 76.50 C 442.26 75.74 447.54 73.79 445.52 69.97 C 445.01 69.63 443.99 68.95 443.47 68.61 C 439.31 66.23 434.00 67.80 429.38 67.50 C 428.61 67.27 427.06 66.80 426.28 66.57 C 427.60 65.97 428.90 65.33 430.16 64.59 C 433.17 62.66 436.27 60.53 438.21 57.44 C 438.88 55.62 439.35 52.63 437.41 51.45 C 434.06 49.45 429.84 50.75 426.13 50.37 M 395.59 52.86 C 395.06 55.42 397.54 56.33 399.68 55.66 C 399.56 54.68 399.45 53.70 399.34 52.73 C 398.09 52.77 396.84 52.81 395.59 52.86 M 375.14 60.83 C 375.77 61.81 376.41 62.79 377.04 63.78 C 377.22 63.10 377.59 61.73 377.77 61.04 C 381.27 60.04 384.73 58.93 388.26 58.03 C 388.28 57.67 388.31 56.94 388.33 56.57 C 383.74 56.91 378.75 57.75 375.14 60.83 M 65.29 73.54 C 65.27 74.03 65.22 75.01 65.20 75.50 C 70.46 76.26 75.74 76.18 81.01 75.63 C 75.98 73.71 70.70 72.08 65.29 73.54 M 90.78 73.77 C 89.81 74.90 90.34 76.49 90.27 77.83 C 92.04 77.03 94.59 76.95 95.48 74.99 C 95.20 72.65 92.33 72.86 90.78 73.77 M 48.57 81.21 C 45.89 81.32 43.72 83.06 41.62 84.53 C 41.57 85.57 41.51 86.62 41.45 87.66 C 44.41 87.71 47.70 88.11 50.20 86.17 C 53.30 84.90 56.35 83.45 59.59 82.51 C 60.88 81.99 62.61 81.85 63.14 80.33 C 58.28 80.21 53.35 80.15 48.57 81.21 M 399.79 90.88 C 398.06 91.48 395.47 91.60 394.99 93.76 C 395.43 93.70 396.30 93.57 396.74 93.51 C 400.49 92.85 402.73 95.52 404.66 98.22 C 411.18 101.49 418.78 99.77 425.76 99.48 C 425.74 98.97 425.70 97.96 425.68 97.45 L 426.52 97.45 C 427.53 96.66 428.54 95.88 429.57 95.11 C 429.76 92.45 427.88 89.39 424.97 89.47 C 425.20 89.21 425.66 88.68 425.89 88.42 C 419.93 87.94 413.95 87.96 408.00 87.43 C 404.85 87.07 402.37 89.47 399.79 90.88 M 31.31 104.31 C 26.35 105.40 22.46 109.74 19.86 113.93 C 17.57 115.59 16.07 118.92 18.59 121.11 C 18.91 121.43 19.56 122.08 19.88 122.41 C 21.63 124.79 24.79 125.30 27.45 124.27 C 35.71 118.52 43.10 111.31 52.41 107.22 C 53.90 106.14 53.42 103.94 53.82 102.35 L 53.18 102.30 C 52.07 100.88 50.86 99.53 49.42 98.44 L 49.43 97.39 C 49.22 96.88 48.80 95.87 48.59 95.36 C 41.98 95.61 36.00 99.91 31.31 104.31 M 381.67 108.73 C 379.62 110.69 377.06 112.30 375.66 114.81 C 380.64 117.56 383.81 123.02 389.22 124.96 C 390.47 125.93 391.80 126.78 393.09 127.69 L 393.42 127.61 C 398.99 131.16 405.83 132.44 412.25 133.74 C 414.32 134.04 416.43 133.73 418.50 133.51 C 419.41 128.48 416.37 124.08 412.29 121.49 C 408.92 116.55 402.73 112.50 396.72 113.06 C 396.22 111.96 394.53 112.09 393.58 111.51 C 389.67 110.46 385.87 107.41 381.67 108.73 M 27.46 150.37 C 22.38 156.02 18.36 162.53 13.59 168.43 C 10.94 175.65 21.03 180.71 26.32 176.37 C 31.69 171.73 36.46 165.80 37.71 158.64 C 39.90 154.44 41.95 149.84 39.57 145.19 C 35.09 145.48 31.04 147.83 27.46 150.37 M 67.50 166.35 C 68.05 166.57 69.14 167.00 69.69 167.22 C 69.65 169.84 73.28 168.84 73.73 166.96 C 75.29 166.52 77.33 166.88 78.53 165.60 C 78.99 162.89 78.69 160.06 77.58 157.55 C 78.51 157.34 79.32 156.90 80.04 156.24 C 77.24 155.29 74.31 156.41 71.43 156.23 C 66.46 156.72 67.18 162.76 67.50 166.35 M 128.97 265.65 C 128.73 270.10 128.02 274.51 126.93 278.83 C 126.20 274.37 125.55 269.89 124.67 265.46 C 120.97 265.46 117.27 265.46 113.57 265.46 C 113.57 275.37 113.54 285.29 113.58 295.21 C 116.15 295.22 118.72 295.20 121.29 295.15 C 121.61 290.27 120.95 285.30 121.95 280.49 C 123.54 285.09 123.14 290.07 124.42 294.74 C 125.55 295.87 127.60 295.01 129.07 295.15 C 131.87 291.16 129.33 284.59 132.54 280.84 C 132.67 285.62 132.54 290.41 132.78 295.20 C 135.38 295.26 137.97 295.23 140.56 295.02 C 140.41 285.18 140.54 275.33 140.49 265.49 C 136.65 265.45 132.80 265.32 128.97 265.65 M 151.08 264.88 C 147.41 265.30 143.66 267.99 143.57 271.96 C 143.35 277.91 143.28 283.89 143.67 289.84 C 146.19 298.73 163.20 297.91 163.39 287.99 C 163.54 282.32 163.72 276.62 163.21 270.96 C 162.10 265.61 155.77 264.07 151.08 264.88 M 165.45 266.06 C 164.13 266.72 164.08 270.49 165.65 270.93 C 167.06 271.13 168.49 271.29 169.92 271.42 C 170.51 279.31 170.03 287.24 170.18 295.15 C 173.01 295.25 175.85 295.25 178.69 295.04 C 178.55 287.22 178.76 279.40 178.57 271.58 C 180.06 271.38 181.54 271.19 183.03 270.96 C 184.51 270.30 184.01 267.44 183.51 266.10 L 183.15 266.08 C 181.02 264.79 178.35 265.69 176.00 265.46 C 172.50 265.75 168.79 264.77 165.45 266.06 M 185.69 266.01 C 185.92 275.73 185.69 285.47 185.81 295.20 C 188.74 295.21 191.67 295.20 194.60 295.22 C 194.65 291.21 194.67 287.20 194.55 283.20 C 195.20 283.08 196.52 282.85 197.17 282.73 C 197.26 286.90 197.16 291.06 197.28 295.23 C 200.10 295.21 202.92 295.20 205.74 295.23 C 205.89 285.30 205.80 275.37 205.78 265.44 C 202.92 265.46 200.07 265.47 197.21 265.43 C 197.17 269.15 197.33 272.86 197.16 276.58 C 196.53 276.61 195.27 276.67 194.64 276.71 C 194.55 273.15 194.66 269.60 194.69 266.05 L 194.31 266.07 C 191.66 264.98 188.39 265.14 185.69 266.01 M 209.45 265.45 C 209.33 275.32 209.49 285.18 209.36 295.05 C 214.45 295.31 219.57 295.33 224.66 295.04 C 224.64 293.16 224.63 291.28 224.62 289.40 C 222.48 289.40 220.35 289.37 218.22 289.26 C 218.25 287.15 218.26 285.06 218.28 282.96 C 220.05 282.87 221.82 282.79 223.60 282.70 C 223.58 280.91 223.58 279.12 223.60 277.34 C 221.80 277.15 220.01 276.97 218.23 276.78 C 218.25 274.95 218.27 273.13 218.30 271.30 C 220.22 271.29 222.15 271.29 224.08 271.29 C 223.76 269.47 224.89 266.86 223.50 265.51 C 218.82 265.32 214.13 265.53 209.45 265.45 M 227.44 265.38 C 227.10 275.27 227.39 285.18 227.28 295.08 C 230.13 295.08 233.11 295.66 235.90 294.88 C 236.63 290.40 235.90 285.76 236.27 281.22 C 236.80 281.36 237.84 281.62 238.37 281.75 C 238.72 286.21 238.48 290.70 238.64 295.17 C 241.31 295.19 243.99 295.21 246.66 295.27 C 246.68 291.22 246.97 287.15 246.55 283.11 C 246.33 280.85 244.01 280.08 242.18 279.49 C 243.56 279.18 244.89 278.66 246.21 278.11 C 246.83 274.26 247.70 268.82 243.64 266.53 C 238.51 264.51 232.80 265.89 227.44 265.38 M 265.06 264.83 C 261.43 265.25 257.36 267.87 257.37 271.90 C 257.22 277.88 257.08 283.90 257.48 289.88 C 260.02 298.82 276.83 297.78 277.24 288.02 C 277.28 282.32 277.74 276.54 276.93 270.90 C 275.86 265.68 269.63 264.17 265.06 264.83 M 280.26 265.40 C 280.12 275.32 280.18 285.24 280.21 295.17 C 283.06 295.24 285.91 295.23 288.76 295.12 C 288.73 291.04 288.75 286.97 288.74 282.89 C 290.62 282.84 292.50 282.79 294.39 282.73 C 294.36 280.92 294.35 279.11 294.37 277.31 C 292.61 277.18 290.84 277.11 289.11 276.79 C 288.34 275.17 288.85 273.24 288.63 271.52 C 290.68 271.32 292.74 271.25 294.81 271.14 C 294.76 269.23 294.72 267.33 294.66 265.42 C 289.86 265.47 285.06 265.49 280.26 265.40 M 304.79 269.52 C 303.97 275.97 304.38 282.54 304.46 289.03 C 304.69 295.36 313.96 298.22 318.00 293.50 C 319.37 295.91 322.16 295.14 324.45 295.21 C 324.49 289.92 324.46 284.62 324.51 279.33 C 321.12 279.23 317.74 279.22 314.36 279.26 C 314.14 281.11 314.36 282.90 315.80 284.21 C 315.84 286.37 315.78 288.54 315.68 290.71 C 315.12 290.72 314.00 290.75 313.44 290.76 C 312.40 283.97 312.48 276.97 313.22 270.15 C 313.82 270.16 315.02 270.19 315.62 270.20 C 315.69 272.14 315.69 274.09 315.88 276.03 C 318.61 276.87 321.67 276.15 324.52 276.37 C 324.45 273.18 324.73 269.32 321.93 267.12 C 316.86 263.42 308.17 263.66 304.79 269.52 M 335.12 264.96 C 330.98 265.43 327.65 269.15 327.87 273.37 C 327.98 279.39 327.02 285.64 328.74 291.49 C 332.63 297.76 344.68 297.60 347.46 290.40 C 347.97 283.68 347.99 276.85 347.43 270.13 C 345.70 265.27 339.66 264.08 335.12 264.96 M 350.70 265.61 C 350.81 275.47 350.69 285.33 350.77 295.20 C 355.52 295.10 360.29 295.44 365.04 295.07 C 367.07 294.73 369.96 294.31 370.47 291.87 C 371.45 284.94 371.40 277.83 370.67 270.87 C 370.74 267.74 367.47 266.17 364.82 265.76 C 360.13 265.23 355.40 265.41 350.70 265.61 Z" />
<path fill="#040404" opacity="1.00" d=" M 241.02 29.36 C 244.59 29.64 247.34 26.45 250.96 26.64 C 264.88 25.09 278.56 29.55 291.13 35.10 C 297.37 39.13 303.56 43.21 310.19 46.60 C 310.52 48.80 311.71 50.36 314.01 50.60 C 320.02 54.62 322.17 62.37 326.71 67.65 C 331.39 62.49 340.12 56.99 346.34 62.84 C 346.48 65.58 346.70 68.32 346.57 71.07 C 344.96 73.56 343.15 75.92 341.02 77.99 C 339.33 79.50 337.98 82.42 340.66 83.69 C 340.65 84.11 340.63 84.94 340.62 85.36 C 340.47 86.64 340.33 87.93 340.20 89.21 C 340.21 89.76 340.24 90.85 340.25 91.39 C 341.32 94.25 342.98 96.83 345.02 99.10 C 345.82 100.98 346.52 102.90 347.22 104.83 L 346.02 105.52 C 345.35 104.65 344.70 103.76 344.08 102.85 C 340.76 98.32 337.11 93.64 336.76 87.78 C 336.51 86.78 336.17 85.83 335.74 84.90 C 335.13 78.84 340.42 75.01 343.49 70.56 C 345.23 68.35 344.35 65.37 342.86 63.30 C 337.56 62.52 331.98 65.15 329.46 69.88 C 329.52 74.97 332.79 79.25 335.01 83.62 C 333.88 84.82 332.75 86.01 331.62 87.20 C 330.58 82.28 328.93 77.48 326.29 73.17 C 309.00 78.09 291.16 82.04 273.10 81.59 C 271.72 81.86 270.01 78.61 272.06 78.70 C 289.36 78.11 305.63 71.08 322.91 70.37 C 318.61 57.18 307.57 47.56 295.63 41.28 C 285.25 35.84 274.16 31.11 262.38 30.01 C 256.71 28.94 250.60 28.84 245.18 31.00 C 238.86 33.76 231.76 32.87 225.06 33.48 C 212.58 34.15 201.07 39.41 189.25 42.93 C 181.66 45.49 173.67 47.47 166.92 51.94 C 160.94 55.86 157.43 62.42 151.59 66.50 C 151.53 66.55 151.40 66.66 151.34 66.72 C 150.50 67.61 149.68 68.52 148.88 69.44 C 147.89 68.90 146.91 68.34 145.93 67.78 C 145.41 67.51 144.38 66.96 143.86 66.69 C 143.30 66.56 142.19 66.30 141.64 66.17 L 140.98 65.88 C 139.05 64.45 136.52 64.52 134.82 66.28 C 134.64 66.40 134.28 66.65 134.10 66.77 L 132.93 67.67 C 132.74 67.82 132.37 68.14 132.19 68.29 C 132.02 68.42 131.70 68.67 131.53 68.80 C 131.06 69.23 130.13 70.09 129.66 70.52 C 129.52 71.14 129.24 72.38 129.10 73.01 C 128.33 76.45 128.64 79.98 129.60 83.36 L 128.71 84.58 L 128.26 84.35 C 128.13 84.18 127.86 83.85 127.73 83.68 C 127.42 83.36 126.81 82.71 126.50 82.39 C 124.45 75.76 126.96 67.05 133.54 63.83 C 138.54 62.27 143.65 63.89 148.32 65.73 C 155.70 57.16 164.47 49.59 174.97 45.13 C 191.90 37.96 209.72 32.81 227.91 30.07 C 232.24 29.30 236.64 29.20 241.02 29.36 Z" />
<path fill="#7e7e7e" opacity="1.00" d=" M 245.18 31.00 C 250.60 28.84 256.71 28.94 262.38 30.01 C 256.64 30.20 250.85 29.95 245.18 31.00 Z" />
<path fill="#fefefe" opacity="1.00" d=" M 245.18 31.00 C 250.85 29.95 256.64 30.20 262.38 30.01 C 274.16 31.11 285.25 35.84 295.63 41.28 C 307.57 47.56 318.61 57.18 322.91 70.37 C 305.63 71.08 289.36 78.11 272.06 78.70 C 270.01 78.61 271.72 81.86 273.10 81.59 C 291.16 82.04 309.00 78.09 326.29 73.17 C 328.93 77.48 330.58 82.28 331.62 87.20 C 331.83 88.12 332.05 89.04 332.26 89.96 C 337.00 111.36 343.32 132.83 342.26 154.98 C 341.47 166.07 339.72 177.85 332.96 187.02 C 325.48 186.85 317.84 184.70 310.49 187.16 C 301.49 189.42 298.06 199.61 289.79 203.08 C 286.31 204.42 282.00 202.54 280.78 198.98 C 279.41 196.02 278.85 192.12 275.55 190.61 C 268.51 187.45 260.53 187.38 252.97 187.97 C 244.32 188.62 236.91 194.65 228.10 194.35 C 222.78 193.70 217.84 191.42 212.70 190.00 C 197.55 185.60 181.93 181.53 166.02 182.30 C 160.08 182.53 154.32 184.35 149.01 186.94 C 145.66 177.53 139.73 169.40 135.32 160.51 C 130.10 150.07 130.19 138.16 128.59 126.85 C 133.57 131.19 140.65 131.21 146.62 129.15 C 146.72 130.58 146.83 132.02 146.96 133.45 C 150.65 129.59 153.54 125.03 157.70 121.61 C 160.44 118.66 164.06 113.66 160.97 109.87 C 159.03 113.55 158.18 118.03 154.59 120.57 C 149.49 125.78 142.21 128.62 134.92 127.41 C 136.97 126.79 138.97 126.02 140.93 125.14 C 146.71 118.62 150.82 110.36 152.09 101.70 C 152.46 100.59 151.68 99.73 151.11 98.89 C 150.82 100.06 150.54 101.24 150.28 102.42 C 148.98 101.81 147.69 101.19 146.38 100.61 C 148.74 98.75 150.68 96.43 152.90 94.41 C 154.46 96.91 157.08 99.34 156.47 102.57 C 156.56 103.96 155.39 107.43 158.09 106.47 C 161.87 102.14 157.40 97.27 157.38 92.62 C 152.72 91.22 153.07 85.71 150.39 82.48 C 147.49 78.58 143.00 76.38 138.60 74.63 C 138.49 74.58 138.29 74.50 138.19 74.46 L 137.61 74.24 C 137.04 73.94 135.89 73.35 135.32 73.05 C 133.72 72.28 132.18 71.41 130.62 70.58 L 131.52 69.50 C 131.66 69.32 131.94 68.97 132.08 68.80 C 132.25 68.69 132.58 68.47 132.75 68.36 C 133.26 67.96 134.28 67.17 134.79 66.77 C 137.06 67.70 139.57 67.63 141.87 66.87 C 142.41 67.05 143.49 67.39 144.03 67.56 C 144.51 67.62 145.46 67.73 145.93 67.78 C 146.91 68.34 147.89 68.90 148.88 69.44 C 149.73 72.43 149.75 75.53 149.63 78.61 C 150.61 78.61 151.60 78.61 152.58 78.62 C 154.19 74.50 151.97 70.71 151.34 66.72 C 151.40 66.66 151.53 66.55 151.59 66.50 C 157.43 62.42 160.94 55.86 166.92 51.94 C 173.67 47.47 181.66 45.49 189.25 42.93 C 201.07 39.41 212.58 34.15 225.06 33.48 C 231.76 32.87 238.86 33.76 245.18 31.00 M 239.83 62.35 C 240.86 64.21 242.84 65.40 245.02 65.12 C 251.44 64.41 257.39 61.04 263.98 61.45 C 267.98 61.14 273.23 62.45 276.02 58.82 C 263.77 57.14 252.01 62.15 239.83 62.35 M 274.63 66.02 C 263.07 68.12 251.10 65.03 239.64 67.94 C 231.27 71.25 222.41 67.49 213.78 67.87 C 213.76 68.63 213.75 69.40 213.74 70.16 C 217.19 72.23 221.17 71.09 224.94 71.27 C 233.29 71.71 241.61 70.46 249.89 69.54 C 257.57 68.78 265.29 69.75 272.97 69.19 C 280.18 67.94 286.50 63.32 293.99 63.31 C 287.83 59.35 280.65 64.00 274.63 66.02 M 204.42 72.46 C 204.45 72.97 204.50 74.01 204.52 74.52 C 207.77 75.92 211.41 74.63 214.71 75.82 C 230.19 80.35 246.21 75.53 261.87 75.32 C 263.49 78.34 265.66 81.87 269.71 80.13 C 268.73 78.49 267.72 76.87 266.87 75.17 C 279.59 70.74 293.51 70.70 306.23 66.09 C 307.22 63.27 303.36 64.48 302.03 64.71 C 270.21 72.11 237.03 78.35 204.42 72.46 M 170.54 68.41 C 169.41 71.16 169.88 74.13 169.57 77.01 C 168.09 79.67 165.54 81.98 165.60 85.25 C 166.11 85.09 167.11 84.76 167.61 84.60 C 171.03 80.07 174.03 74.62 173.18 68.73 C 172.30 68.62 171.42 68.51 170.54 68.41 M 185.63 74.45 C 185.64 75.09 185.64 76.38 185.64 77.02 L 186.05 76.57 C 188.83 80.76 194.63 80.32 199.03 81.05 C 204.67 81.95 211.19 81.07 215.93 84.80 C 212.30 87.81 207.26 89.27 204.82 93.56 C 204.16 95.53 204.36 97.66 204.28 99.72 C 213.62 102.46 223.24 105.55 233.11 104.64 C 237.12 104.36 240.83 102.43 243.60 99.54 C 243.03 96.96 242.94 94.03 241.05 91.99 C 238.09 88.24 233.20 87.24 229.05 85.37 C 235.24 85.29 241.59 88.11 247.64 85.72 C 247.62 85.15 247.59 84.01 247.57 83.44 C 244.40 81.87 240.83 83.15 237.52 82.22 C 228.54 79.95 219.26 79.56 210.09 78.66 C 205.93 77.87 201.65 77.72 197.64 76.26 C 193.53 76.67 189.63 75.08 185.63 74.45 M 289.95 86.15 C 286.94 86.49 282.54 87.35 282.32 91.12 C 284.93 94.32 288.85 96.05 292.11 98.52 C 290.63 99.17 289.66 100.24 289.18 101.73 C 291.84 101.84 294.51 101.80 297.18 101.82 C 297.20 102.10 297.25 102.65 297.27 102.92 C 295.40 103.10 294.27 104.04 293.89 105.76 C 295.84 105.70 297.81 105.63 299.74 105.24 C 302.69 105.12 305.64 105.04 308.59 104.98 C 308.42 104.36 308.08 103.12 307.90 102.50 C 311.36 101.68 315.34 103.14 318.50 101.40 C 320.30 100.51 318.20 99.20 317.24 98.87 C 312.22 98.25 306.39 100.78 301.94 97.79 C 306.78 97.43 311.55 96.58 316.38 96.08 C 318.87 92.14 315.85 87.25 312.88 84.51 C 305.38 81.78 297.51 85.36 289.95 86.15 M 266.20 86.52 C 267.66 92.57 275.56 94.45 275.77 100.99 C 275.51 105.89 272.09 110.06 272.17 115.04 C 272.70 119.66 275.57 123.90 274.56 128.69 C 277.35 132.22 281.41 136.05 280.08 141.02 C 277.44 144.26 273.34 145.83 269.50 147.16 C 260.06 149.80 248.85 149.76 240.91 143.29 C 242.15 139.92 243.28 136.33 242.29 132.73 C 239.45 133.11 236.69 133.90 233.89 134.47 C 232.32 134.45 229.67 132.86 230.75 131.04 C 233.19 128.87 237.80 130.35 238.92 126.57 C 235.35 126.59 231.90 127.57 228.55 128.72 C 228.56 130.94 228.58 133.16 228.60 135.38 C 232.02 137.33 236.02 136.35 239.74 136.35 C 238.98 139.20 238.45 142.10 238.03 145.01 C 244.71 148.33 251.63 151.86 259.25 152.09 C 264.65 151.96 269.48 149.27 274.42 147.42 C 277.58 146.12 281.27 145.10 283.15 141.98 C 284.79 136.97 280.09 133.44 278.37 129.22 C 276.10 123.79 275.17 117.78 275.31 111.91 C 275.34 107.30 279.98 103.71 278.47 98.92 C 276.61 93.11 271.46 89.15 266.20 86.52 M 165.12 102.31 C 169.92 103.65 174.17 100.11 178.96 100.47 C 183.54 100.02 189.72 100.67 192.53 96.19 C 183.50 98.49 173.01 96.53 165.12 102.31 M 196.78 100.84 C 196.11 105.05 202.78 105.38 205.96 105.83 C 210.44 110.59 217.35 109.92 222.92 112.36 C 219.76 114.29 216.57 112.02 213.46 111.28 C 213.52 111.99 213.65 113.40 213.71 114.10 C 217.47 115.76 221.79 115.30 225.68 114.35 C 226.18 112.81 223.66 111.89 224.35 110.57 C 228.23 109.04 233.11 110.41 236.30 107.21 C 226.90 106.34 217.31 107.34 208.03 105.33 C 204.03 104.48 200.96 100.70 196.78 100.84 M 175.87 102.83 C 175.78 103.24 175.59 104.05 175.49 104.46 C 177.36 105.81 181.75 105.21 180.79 102.21 C 179.38 101.03 177.47 102.68 175.87 102.83 M 303.29 107.66 C 303.41 108.52 303.53 109.39 303.66 110.26 C 306.21 110.25 308.74 110.00 311.26 109.64 C 309.12 107.50 306.13 107.41 303.29 107.66 M 256.13 113.55 C 256.65 115.17 257.19 116.78 257.67 118.40 C 261.75 118.65 267.59 121.35 269.99 116.52 C 267.30 116.37 264.60 116.36 261.91 116.33 C 262.48 115.23 263.06 114.13 263.65 113.04 C 261.16 113.35 258.65 113.53 256.13 113.55 M 197.41 138.40 C 195.78 140.16 194.08 143.48 197.00 144.99 C 199.26 139.01 203.17 133.63 208.78 130.42 C 208.66 131.88 208.56 133.34 208.50 134.81 C 211.24 133.22 213.22 130.64 215.47 128.46 C 217.11 127.25 216.08 124.12 218.34 123.61 C 222.74 121.99 228.60 123.57 231.88 119.54 C 217.89 118.02 204.99 127.30 197.41 138.40 M 289.94 121.25 C 294.23 127.99 304.82 127.72 308.69 135.15 C 310.09 138.60 310.54 142.98 314.31 144.78 C 312.56 137.47 311.20 129.75 306.56 123.59 C 303.93 122.93 301.33 123.41 298.95 124.63 C 296.15 123.01 293.27 121.34 289.94 121.25 M 266.15 126.35 C 265.82 127.39 265.51 128.44 265.22 129.50 C 266.45 129.49 267.69 129.46 268.92 129.42 C 268.19 128.23 267.21 127.23 266.15 126.35 M 292.92 129.92 C 293.26 134.09 297.05 136.39 300.59 137.71 C 300.10 133.70 296.48 131.13 292.92 129.92 M 154.47 133.20 C 153.41 136.36 151.46 139.97 152.95 143.27 C 153.79 145.20 156.07 144.66 157.74 144.52 C 156.69 143.40 155.61 142.32 154.55 141.22 C 155.85 138.82 156.90 136.25 156.56 133.46 C 156.04 133.40 154.99 133.26 154.47 133.20 M 286.02 145.32 C 289.11 149.76 294.68 151.95 297.00 157.00 C 299.18 161.14 300.74 166.21 305.23 168.37 C 302.76 161.09 299.38 153.67 293.27 148.72 C 291.15 147.06 288.98 144.79 286.02 145.32 M 184.87 146.53 C 183.00 150.07 179.23 152.78 179.12 157.06 C 182.67 154.94 186.71 151.56 186.18 146.96 C 185.85 146.85 185.20 146.64 184.87 146.53 M 212.90 162.03 C 212.08 165.58 212.56 169.40 212.68 173.04 C 212.91 174.85 214.63 178.52 216.60 176.11 C 215.87 171.67 213.29 167.52 214.28 162.87 C 217.03 158.84 220.57 155.32 224.51 152.45 C 226.14 151.13 228.77 150.51 229.03 148.09 C 221.43 149.21 216.55 155.89 212.90 162.03 M 243.05 160.27 C 239.64 161.40 236.17 163.09 233.98 166.04 C 232.76 168.16 232.33 170.74 230.41 172.42 C 229.30 173.20 229.36 174.51 229.34 175.72 C 236.97 172.75 240.66 163.87 248.89 161.96 C 259.88 159.20 270.66 163.90 281.27 166.17 C 286.50 167.13 285.09 175.02 290.62 175.87 C 290.20 171.39 288.22 167.22 285.59 163.62 C 282.58 162.40 279.40 161.67 276.23 161.02 C 268.85 158.21 260.75 158.21 252.95 158.20 C 249.63 158.53 245.98 158.51 243.05 160.27 M 249.28 168.45 C 249.35 168.96 249.47 169.99 249.53 170.50 C 254.55 169.35 259.27 171.53 264.05 172.65 C 265.11 172.33 267.43 172.20 266.59 170.56 C 261.07 168.82 255.06 166.56 249.28 168.45 Z" />
<path fill="#b71e21" opacity="1.00" d=" M 366.92 48.86 C 373.62 46.12 380.45 41.98 387.88 42.48 C 384.10 48.62 376.83 50.60 370.30 52.34 C 368.69 52.38 367.07 52.35 365.47 52.33 C 365.95 51.17 366.44 50.02 366.92 48.86 M 376.99 46.74 C 379.96 46.83 383.10 46.36 385.19 44.03 C 382.27 44.28 379.52 45.31 376.99 46.74 Z" />
<path fill="#fcb7b3" opacity="1.00" d=" M 376.99 46.74 C 379.52 45.31 382.27 44.28 385.19 44.03 C 383.10 46.36 379.96 46.83 376.99 46.74 Z" />
<path fill="#c48786" opacity="1.00" d=" M 364.18 53.63 C 363.27 51.29 365.05 49.86 366.92 48.86 C 366.44 50.02 365.95 51.17 365.47 52.33 C 367.07 52.35 368.69 52.38 370.30 52.34 C 368.44 53.46 366.26 53.48 364.18 53.63 Z" />
<path fill="#ddafad" opacity="1.00" d=" M 426.13 50.37 C 429.84 50.75 434.06 49.45 437.41 51.45 C 434.70 51.44 431.99 51.57 429.29 51.64 C 428.20 51.28 427.17 50.82 426.13 50.37 Z" />
<path fill="#8a1817" opacity="1.00" d=" M 437.41 51.45 C 439.35 52.63 438.88 55.62 438.21 57.44 C 436.27 60.53 433.17 62.66 430.16 64.59 L 428.83 64.05 C 430.27 62.65 431.74 61.30 433.23 59.96 C 435.34 58.25 437.37 56.20 437.48 53.30 C 436.05 53.20 434.62 53.12 433.19 53.06 C 426.11 53.19 419.28 56.49 413.89 60.94 C 417.25 60.27 420.49 58.16 424.02 58.97 C 424.26 60.34 424.50 61.72 424.75 63.09 C 419.43 65.06 414.29 67.47 408.97 69.44 C 410.11 66.32 410.83 63.04 410.67 59.70 C 413.26 58.29 415.78 56.76 418.38 55.37 C 421.75 54.26 425.05 52.93 428.43 51.82 L 429.29 51.64 C 431.99 51.57 434.70 51.44 437.41 51.45 Z" />
<path fill="#84454b" opacity="1.00" d=" M 395.59 52.86 C 396.84 52.81 398.09 52.77 399.34 52.73 C 399.45 53.70 399.56 54.68 399.68 55.66 C 397.54 56.33 395.06 55.42 395.59 52.86 Z" />
<path fill="#e0a6a7" opacity="1.00" d=" M 412.96 54.18 C 418.16 53.57 423.09 50.66 428.43 51.82 C 425.05 52.93 421.75 54.26 418.38 55.37 C 413.19 55.41 408.59 58.06 404.01 60.18 C 401.93 60.88 401.53 63.15 400.70 64.90 C 399.79 65.95 398.81 66.93 397.85 67.92 C 398.97 60.41 405.83 55.37 412.96 54.18 Z" />
<path fill="#9a2e2d" opacity="1.00" d=" M 413.89 60.94 C 419.28 56.49 426.11 53.19 433.19 53.06 C 433.39 53.59 433.78 54.64 433.98 55.17 C 431.13 56.89 428.08 58.31 424.83 59.08 L 424.02 58.97 C 420.49 58.16 417.25 60.27 413.89 60.94 Z" />
<path fill="#e49896" opacity="1.00" d=" M 433.19 53.06 C 434.62 53.12 436.05 53.20 437.48 53.30 C 437.37 56.20 435.34 58.25 433.23 59.96 C 430.48 60.24 427.74 60.65 425.02 61.13 C 424.98 60.62 424.88 59.60 424.83 59.08 C 428.08 58.31 431.13 56.89 433.98 55.17 C 433.78 54.64 433.39 53.59 433.19 53.06 Z" />
<path fill="#bf6766" opacity="1.00" d=" M 404.01 60.18 C 408.59 58.06 413.19 55.41 418.38 55.37 C 415.78 56.76 413.26 58.29 410.67 59.70 C 407.34 61.42 403.98 63.09 400.70 64.90 C 401.53 63.15 401.93 60.88 404.01 60.18 Z" />
<path fill="#863b41" opacity="1.00" d=" M 375.14 60.83 C 378.75 57.75 383.74 56.91 388.33 56.57 C 388.31 56.94 388.28 57.67 388.26 58.03 C 384.73 58.93 381.27 60.04 377.77 61.04 C 377.59 61.73 377.22 63.10 377.04 63.78 C 376.41 62.79 375.77 61.81 375.14 60.83 Z" />
<path fill="#050505" opacity="1.00" d=" M 239.83 62.35 C 252.01 62.15 263.77 57.14 276.02 58.82 C 273.23 62.45 267.98 61.14 263.98 61.45 C 257.39 61.04 251.44 64.41 245.02 65.12 C 242.84 65.40 240.86 64.21 239.83 62.35 Z" />
<path fill="#c65756" opacity="1.00" d=" M 424.02 58.97 L 424.83 59.08 C 424.88 59.60 424.98 60.62 425.02 61.13 C 427.74 60.65 430.48 60.24 433.23 59.96 C 431.74 61.30 430.27 62.65 428.83 64.05 L 430.16 64.59 C 428.90 65.33 427.60 65.97 426.28 66.57 C 427.06 66.80 428.61 67.27 429.38 67.50 C 427.81 67.66 426.26 67.88 424.71 68.09 C 424.61 67.58 424.40 66.56 424.30 66.05 C 421.96 66.55 419.10 66.36 417.62 68.60 C 421.99 68.78 426.37 68.66 430.75 68.65 C 431.14 69.25 431.92 70.43 432.31 71.03 C 434.33 71.21 436.35 71.43 438.39 71.51 C 432.69 73.23 426.78 71.67 420.98 71.76 C 416.85 71.84 412.73 71.20 408.97 69.44 C 414.29 67.47 419.43 65.06 424.75 63.09 C 424.50 61.72 424.26 60.34 424.02 58.97 Z" />
<path fill="#730b08" opacity="1.00" d=" M 400.70 64.90 C 403.98 63.09 407.34 61.42 410.67 59.70 C 410.83 63.04 410.11 66.32 408.97 69.44 C 412.73 71.20 416.85 71.84 420.98 71.76 C 426.78 71.67 432.69 73.23 438.39 71.51 C 439.61 71.15 440.72 70.53 441.88 70.00 C 438.46 68.08 434.48 68.70 430.75 68.65 C 426.37 68.66 421.99 68.78 417.62 68.60 C 419.10 66.36 421.96 66.55 424.30 66.05 C 424.40 66.56 424.61 67.58 424.71 68.09 C 426.26 67.88 427.81 67.66 429.38 67.50 C 434.00 67.80 439.31 66.23 443.47 68.61 C 443.38 69.49 443.20 71.23 443.11 72.10 C 435.39 74.53 427.09 75.00 419.09 74.05 C 413.34 72.66 407.60 71.28 401.79 70.15 C 401.47 68.39 401.10 66.64 400.70 64.90 Z" />
<path fill="#0a0a0a" opacity="1.00" d=" M 274.63 66.02 C 280.65 64.00 287.83 59.35 293.99 63.31 C 286.50 63.32 280.18 67.94 272.97 69.19 C 265.29 69.75 257.57 68.78 249.89 69.54 C 241.61 70.46 233.29 71.71 224.94 71.27 C 221.17 71.09 217.19 72.23 213.74 70.16 C 213.75 69.40 213.76 68.63 213.78 67.87 C 222.41 67.49 231.27 71.25 239.64 67.94 C 251.10 65.03 263.07 68.12 274.63 66.02 Z" />
<path fill="#fbfcfc" opacity="1.00" d=" M 329.46 69.88 C 331.98 65.15 337.56 62.52 342.86 63.30 C 344.35 65.37 345.23 68.35 343.49 70.56 C 340.42 75.01 335.13 78.84 335.74 84.90 C 335.56 84.58 335.19 83.94 335.01 83.62 C 332.79 79.25 329.52 74.97 329.46 69.88 Z" />
<path fill="#868b89" opacity="1.00" d=" M 346.34 62.84 C 347.85 65.11 348.43 68.97 346.57 71.07 C 346.70 68.32 346.48 65.58 346.34 62.84 Z" />
<path fill="#0f0e0f" opacity="1.00" d=" M 134.82 66.28 C 136.52 64.52 139.05 64.45 140.98 65.88 C 138.98 66.50 136.87 66.41 134.82 66.28 Z" />
<path fill="#080808" opacity="1.00" d=" M 204.42 72.46 C 237.03 78.35 270.21 72.11 302.03 64.71 C 303.36 64.48 307.22 63.27 306.23 66.09 C 293.51 70.70 279.59 70.74 266.87 75.17 C 267.72 76.87 268.73 78.49 269.71 80.13 C 265.66 81.87 263.49 78.34 261.87 75.32 C 246.21 75.53 230.19 80.35 214.71 75.82 C 211.41 74.63 207.77 75.92 204.52 74.52 C 204.50 74.01 204.45 72.97 204.42 72.46 Z" />
<path fill="#9f5555" opacity="1.00" d=" M 397.85 67.92 C 398.81 66.93 399.79 65.95 400.70 64.90 C 401.10 66.64 401.47 68.39 401.79 70.15 C 400.49 70.09 399.18 70.08 397.89 70.16 C 397.39 70.26 396.39 70.47 395.90 70.57 C 396.00 70.39 396.20 70.02 396.30 69.84 C 396.68 69.36 397.46 68.40 397.85 67.92 Z" />
<path fill="#0f0e0f" opacity="1.00" d=" M 134.10 66.77 C 134.28 66.65 134.64 66.40 134.82 66.28 L 134.79 66.77 L 134.10 66.77 Z" />
<path fill="#fcfcfc" opacity="1.00" d=" M 134.82 66.28 C 136.87 66.41 138.98 66.50 140.98 65.88 L 141.64 66.17 L 141.87 66.87 C 139.57 67.63 137.06 67.70 134.79 66.77 L 134.82 66.28 Z" />
<path fill="#0f0e0f" opacity="1.00" d=" M 141.64 66.17 C 142.19 66.30 143.30 66.56 143.86 66.69 C 143.36 66.73 142.37 66.83 141.87 66.87 L 141.64 66.17 Z" />
<path fill="#3f3f3f" opacity="1.00" d=" M 151.34 66.72 C 151.40 66.66 151.53 66.55 151.59 66.50 C 151.53 66.55 151.40 66.66 151.34 66.72 Z" />
<path fill="#0f0e0f" opacity="1.00" d=" M 132.19 68.29 C 132.37 68.14 132.74 67.82 132.93 67.67 L 132.75 68.36 L 132.19 68.29 Z" />
<path fill="#fcfcfc" opacity="1.00" d=" M 132.93 67.67 L 134.10 66.77 L 134.79 66.77 C 134.28 67.17 133.26 67.96 132.75 68.36 L 132.93 67.67 Z" />
<path fill="#fcfcfc" opacity="1.00" d=" M 141.87 66.87 C 142.37 66.83 143.36 66.73 143.86 66.69 L 144.03 67.56 C 143.49 67.39 142.41 67.05 141.87 66.87 Z" />
<path fill="#0f0e0f" opacity="1.00" d=" M 143.86 66.69 C 144.38 66.96 145.41 67.51 145.93 67.78 C 145.46 67.73 144.51 67.62 144.03 67.56 L 143.86 66.69 Z" />
<path fill="#3f3f3f" opacity="1.00" d=" M 148.88 69.44 C 149.68 68.52 150.50 67.61 151.34 66.72 C 151.97 70.71 154.19 74.50 152.58 78.62 C 151.60 78.61 150.61 78.61 149.63 78.61 C 149.75 75.53 149.73 72.43 148.88 69.44 Z" />
<path fill="#e2b1b0" opacity="1.00" d=" M 386.74 68.75 C 389.52 65.33 393.35 68.49 396.30 69.84 C 396.20 70.02 396.00 70.39 395.90 70.57 C 394.47 74.59 390.56 76.79 387.23 79.08 C 383.52 81.43 377.12 81.07 374.98 76.94 C 377.46 77.24 379.95 77.39 382.43 77.67 C 383.09 77.79 384.40 78.01 385.06 78.13 C 388.27 76.09 393.58 74.67 393.42 70.01 C 391.76 68.04 388.97 68.92 386.74 68.75 Z" />
<path fill="#0f0e0f" opacity="1.00" d=" M 131.53 68.80 C 131.70 68.67 132.02 68.42 132.19 68.29 L 132.08 68.80 L 131.53 68.80 Z" />
<path fill="#fcfcfc" opacity="1.00" d=" M 132.19 68.29 L 132.75 68.36 C 132.58 68.47 132.25 68.69 132.08 68.80 L 132.19 68.29 Z" />
<path fill="#090909" opacity="1.00" d=" M 170.54 68.41 C 171.42 68.51 172.30 68.62 173.18 68.73 C 174.03 74.62 171.03 80.07 167.61 84.60 C 167.11 84.76 166.11 85.09 165.60 85.25 C 165.54 81.98 168.09 79.67 169.57 77.01 C 169.88 74.13 169.41 71.16 170.54 68.41 Z" />
<path fill="#b75c60" opacity="1.00" d=" M 355.66 70.64 C 359.45 68.16 365.47 67.10 368.47 71.32 C 368.66 73.31 368.64 75.34 368.24 77.30 C 366.90 79.90 364.00 81.03 362.02 83.03 C 360.73 84.03 359.73 85.88 357.83 85.62 C 357.22 85.49 356.00 85.21 355.39 85.07 C 358.10 83.95 360.47 82.18 362.17 79.78 C 365.48 77.41 366.73 73.26 364.79 69.58 C 364.43 71.16 364.09 72.74 363.75 74.32 C 360.28 74.33 358.01 77.21 354.81 77.96 C 354.56 76.18 354.31 74.40 354.07 72.62 C 351.90 74.03 349.73 75.43 347.64 76.95 C 347.85 76.50 348.27 75.60 348.47 75.15 C 350.02 72.73 353.39 72.29 355.66 70.64 M 355.68 76.58 C 357.92 75.19 359.75 73.28 361.16 71.06 C 357.71 70.17 354.73 73.08 355.68 76.58 Z" />
<path fill="#eab6b5" opacity="1.00" d=" M 98.41 72.36 C 101.21 66.92 110.63 68.65 111.75 74.62 C 110.27 73.51 108.76 72.43 107.22 71.41 C 105.07 70.77 102.66 70.46 100.62 71.64 C 98.53 74.58 100.90 77.92 103.08 79.97 C 103.70 80.66 104.33 81.34 104.96 82.02 C 105.57 83.10 106.14 84.20 106.71 85.30 C 106.14 85.84 105.58 86.37 105.01 86.91 C 100.34 86.58 95.65 86.81 90.97 86.76 C 94.92 84.36 99.89 86.55 103.75 84.12 C 101.82 80.35 97.20 77.07 98.41 72.36 Z" />
<path fill="#0f0e0f" opacity="1.00" d=" M 129.66 70.52 C 130.13 70.09 131.06 69.23 131.53 68.80 L 131.52 69.50 L 130.62 70.58 L 129.66 70.52 Z" />
<path fill="#fcfcfc" opacity="1.00" d=" M 131.53 68.80 L 132.08 68.80 C 131.94 68.97 131.66 69.32 131.52 69.50 L 131.53 68.80 Z" />
<path fill="#c66c6f" opacity="1.00" d=" M 381.93 70.19 C 383.39 69.32 385.06 68.92 386.74 68.75 C 388.97 68.92 391.76 68.04 393.42 70.01 C 393.58 74.67 388.27 76.09 385.06 78.13 C 384.40 78.01 383.09 77.79 382.43 77.67 C 385.17 75.72 390.24 74.34 388.14 70.04 C 386.07 70.09 384.00 70.12 381.93 70.19 Z" />
<path fill="#fcb7b3" opacity="1.00" d=" M 430.75 68.65 C 434.48 68.70 438.46 68.08 441.88 70.00 C 440.72 70.53 439.61 71.15 438.39 71.51 C 436.35 71.43 434.33 71.21 432.31 71.03 C 431.92 70.43 431.14 69.25 430.75 68.65 Z" />
<path fill="#cc8283" opacity="1.00" d=" M 443.47 68.61 C 443.99 68.95 445.01 69.63 445.52 69.97 C 444.17 71.80 443.04 74.10 440.69 74.81 C 434.45 77.29 427.57 76.26 421.02 76.46 C 418.04 76.72 415.59 74.88 412.93 73.90 C 410.24 73.27 407.45 73.68 404.72 73.67 C 401.89 73.89 400.40 70.91 397.89 70.16 C 399.18 70.08 400.49 70.09 401.79 70.15 C 407.60 71.28 413.34 72.66 419.09 74.05 C 427.09 75.00 435.39 74.53 443.11 72.10 C 443.20 71.23 443.38 69.49 443.47 68.61 Z" />
<path fill="#680707" opacity="1.00" d=" M 364.79 69.58 C 366.73 73.26 365.48 77.41 362.17 79.78 C 357.39 82.24 352.62 85.68 346.94 83.96 C 349.07 81.41 351.15 78.22 354.81 77.96 C 358.01 77.21 360.28 74.33 363.75 74.32 C 364.09 72.74 364.43 71.16 364.79 69.58 Z" />
<path fill="#760d0d" opacity="1.00" d=" M 380.83 71.02 C 381.11 70.81 381.66 70.40 381.93 70.19 C 384.00 70.12 386.07 70.09 388.14 70.04 C 390.24 74.34 385.17 75.72 382.43 77.67 C 379.95 77.39 377.46 77.24 374.98 76.94 L 374.24 76.86 C 374.42 74.95 374.96 72.91 376.91 72.10 C 376.58 73.41 376.29 74.72 376.00 76.04 C 377.54 75.81 379.10 75.60 380.64 75.32 C 383.41 75.02 386.28 74.06 387.26 71.17 C 384.92 71.18 382.60 71.66 380.72 73.12 C 380.75 72.59 380.80 71.55 380.83 71.02 Z" />
<path fill="#e4b2b1" opacity="1.00" d=" M 445.52 69.97 C 447.54 73.79 442.26 75.74 439.40 76.50 C 433.37 79.04 426.79 78.85 420.40 78.44 C 417.83 78.30 415.78 76.61 413.60 75.47 C 410.90 73.80 407.20 75.72 404.72 73.67 C 407.45 73.68 410.24 73.27 412.93 73.90 C 415.59 74.88 418.04 76.72 421.02 76.46 C 427.57 76.26 434.45 77.29 440.69 74.81 C 443.04 74.10 444.17 71.80 445.52 69.97 Z" />
<path fill="#b96668" opacity="1.00" d=" M 100.62 71.64 C 102.66 70.46 105.07 70.77 107.22 71.41 C 105.39 71.58 103.56 71.74 101.73 71.91 C 101.84 74.64 102.17 77.38 103.08 79.97 C 100.90 77.92 98.53 74.58 100.62 71.64 Z" />
<path fill="#0f0e0f" opacity="1.00" d=" M 129.10 73.01 C 129.24 72.38 129.52 71.14 129.66 70.52 C 129.52 71.14 129.24 72.38 129.10 73.01 Z" />
<path fill="#fcfcfc" opacity="1.00" d=" M 129.66 70.52 L 130.62 70.58 C 132.18 71.41 133.72 72.28 135.32 73.05 C 133.92 73.20 132.53 73.35 131.14 73.50 C 131.17 73.99 131.23 74.97 131.26 75.46 C 134.31 76.51 137.42 77.40 140.48 78.42 C 146.20 80.58 150.39 86.01 151.05 92.09 C 148.55 94.31 145.79 96.62 145.16 100.10 C 144.42 100.80 143.70 101.51 142.98 102.23 C 142.29 102.07 140.90 101.75 140.20 101.59 C 140.55 100.32 140.91 99.06 141.34 97.82 C 141.51 97.56 141.84 97.04 142.01 96.78 C 144.40 94.45 143.00 89.86 139.58 89.57 C 136.55 89.54 133.56 90.18 130.54 90.26 L 129.80 89.77 C 129.68 89.69 129.45 89.54 129.34 89.46 C 128.72 89.03 127.47 88.16 126.85 87.73 C 126.87 87.22 126.91 86.21 126.93 85.70 C 127.29 85.52 128.02 85.16 128.38 84.97 C 128.46 84.88 128.63 84.68 128.71 84.58 L 129.60 83.36 C 128.64 79.98 128.33 76.45 129.10 73.01 C 129.24 72.38 129.52 71.14 129.66 70.52 Z" />
<path fill="#f1a9a5" opacity="1.00" d=" M 355.68 76.58 C 354.73 73.08 357.71 70.17 361.16 71.06 C 359.75 73.28 357.92 75.19 355.68 76.58 Z" />
<path fill="#eaafae" opacity="1.00" d=" M 376.91 72.10 C 378.17 71.58 379.51 71.33 380.83 71.02 C 380.80 71.55 380.75 72.59 380.72 73.12 C 380.70 73.67 380.66 74.77 380.64 75.32 C 379.10 75.60 377.54 75.81 376.00 76.04 C 376.29 74.72 376.58 73.41 376.91 72.10 Z" />
<path fill="#d16464" opacity="1.00" d=" M 380.72 73.12 C 382.60 71.66 384.92 71.18 387.26 71.17 C 386.28 74.06 383.41 75.02 380.64 75.32 C 380.66 74.77 380.70 73.67 380.72 73.12 Z" />
<path fill="#821212" opacity="1.00" d=" M 101.73 71.91 C 103.56 71.74 105.39 71.58 107.22 71.41 C 108.76 72.43 110.27 73.51 111.75 74.62 C 116.62 78.73 120.01 84.30 125.10 88.18 C 126.18 89.32 126.76 89.17 126.85 87.73 C 127.47 88.16 128.72 89.03 129.34 89.46 C 129.45 89.54 129.68 89.69 129.80 89.77 L 130.54 90.26 L 130.23 90.51 C 129.74 90.94 128.76 91.79 128.27 92.22 C 130.15 92.79 132.10 93.13 134.07 93.26 C 136.09 93.42 138.10 93.71 140.10 94.04 C 140.21 95.44 140.34 96.84 140.48 98.23 C 139.40 98.74 138.30 99.22 137.22 99.72 C 134.78 100.90 132.32 102.18 130.49 104.23 L 130.34 104.18 C 128.39 102.88 126.50 104.49 124.71 105.24 C 123.65 103.94 122.51 102.72 121.37 101.50 C 118.91 102.83 116.39 104.04 113.75 104.96 C 114.91 100.97 121.24 100.08 119.68 95.20 C 113.92 95.61 109.93 100.36 105.75 103.79 C 103.41 105.46 104.43 108.19 105.70 110.15 C 105.33 110.47 104.59 111.11 104.22 111.42 C 101.30 108.94 102.24 105.23 102.77 101.96 C 100.13 102.65 98.49 104.81 96.62 106.59 C 93.99 108.38 90.92 109.38 88.25 111.10 C 84.73 113.13 81.77 116.39 77.55 116.91 C 78.34 115.97 79.10 115.01 79.86 114.05 C 76.89 115.34 73.85 116.49 70.77 117.51 C 70.13 117.21 68.86 116.62 68.22 116.32 C 68.38 114.36 68.55 112.40 68.84 110.46 C 71.26 108.87 73.38 106.89 75.41 104.84 C 76.15 104.26 76.92 103.72 77.71 103.21 C 77.95 103.37 78.45 103.70 78.69 103.86 L 79.46 104.35 C 78.19 105.27 76.92 106.17 75.67 107.12 C 72.85 109.22 70.59 112.05 69.65 115.49 C 73.55 115.19 77.07 113.44 80.27 111.30 C 82.33 110.14 83.52 108.09 84.56 106.06 C 87.18 103.63 91.31 102.64 92.33 98.82 C 95.57 97.95 98.89 97.41 102.16 96.66 C 101.32 94.99 99.53 94.14 97.72 94.74 C 91.38 96.27 84.80 96.91 78.65 99.15 C 75.29 99.31 71.91 99.04 68.63 98.28 C 68.31 97.92 67.68 97.18 67.36 96.81 C 68.22 95.30 69.36 94.00 70.60 92.79 C 71.37 92.50 72.90 91.90 73.67 91.60 C 73.66 94.04 71.10 95.17 69.67 96.77 C 71.00 96.80 72.33 96.81 73.66 96.79 C 81.56 97.13 88.81 93.42 96.53 92.44 C 97.70 92.53 98.87 92.66 100.04 92.83 C 103.61 95.06 107.43 93.79 111.17 92.96 C 115.92 93.44 120.75 93.09 125.04 90.81 L 124.74 90.01 C 123.31 87.51 120.36 88.24 117.99 88.00 C 113.07 87.77 108.48 85.37 104.96 82.02 C 104.33 81.34 103.70 80.66 103.08 79.97 C 102.17 77.38 101.84 74.64 101.73 71.91 M 103.82 72.94 C 103.00 81.61 113.00 87.35 120.78 86.43 C 115.10 82.02 111.66 73.86 103.82 72.94 M 135.04 95.30 C 133.90 96.49 132.84 97.75 131.90 99.11 C 134.58 99.19 136.92 97.93 139.02 96.41 C 137.69 96.04 136.37 95.67 135.04 95.30 Z" />
<path fill="#831919" opacity="1.00" d=" M 65.29 73.54 C 70.70 72.08 75.98 73.71 81.01 75.63 C 75.74 76.18 70.46 76.26 65.20 75.50 C 65.22 75.01 65.27 74.03 65.29 73.54 M 67.60 74.65 C 69.43 75.26 71.78 75.71 73.56 74.73 C 72.68 73.07 68.75 73.49 67.60 74.65 Z" />
<path fill="#b3666f" opacity="1.00" d=" M 90.78 73.77 C 92.33 72.86 95.20 72.65 95.48 74.99 C 94.59 76.95 92.04 77.03 90.27 77.83 C 90.34 76.49 89.81 74.90 90.78 73.77 Z" />
<path fill="#cf6765" opacity="1.00" d=" M 103.82 72.94 C 111.66 73.86 115.10 82.02 120.78 86.43 C 113.00 87.35 103.00 81.61 103.82 72.94 Z" />
<path fill="#0f0e0f" opacity="1.00" d=" M 131.14 73.50 C 132.53 73.35 133.92 73.20 135.32 73.05 C 135.89 73.35 137.04 73.94 137.61 74.24 L 138.19 74.46 C 138.29 74.50 138.49 74.58 138.60 74.63 C 143.00 76.38 147.49 78.58 150.39 82.48 C 153.07 85.71 152.72 91.22 157.38 92.62 C 157.40 97.27 161.87 102.14 158.09 106.47 C 155.39 107.43 156.56 103.96 156.47 102.57 C 157.08 99.34 154.46 96.91 152.90 94.41 C 150.68 96.43 148.74 98.75 146.38 100.61 L 145.16 100.10 C 145.79 96.62 148.55 94.31 151.05 92.09 C 150.39 86.01 146.20 80.58 140.48 78.42 C 137.42 77.40 134.31 76.51 131.26 75.46 C 131.23 74.97 131.17 73.99 131.14 73.50 Z" />
<path fill="#fcfcfc" opacity="1.00" d=" M 135.32 73.05 C 135.89 73.35 137.04 73.94 137.61 74.24 C 137.04 73.94 135.89 73.35 135.32 73.05 Z" />
<path fill="#891b17" opacity="1.00" d=" M 347.64 76.95 C 349.73 75.43 351.90 74.03 354.07 72.62 C 354.31 74.40 354.56 76.18 354.81 77.96 C 351.15 78.22 349.07 81.41 346.94 83.96 C 352.62 85.68 357.39 82.24 362.17 79.78 C 360.47 82.18 358.10 83.95 355.39 85.07 C 354.62 85.42 353.84 85.76 353.07 86.09 C 348.88 87.35 344.76 85.93 340.62 85.36 C 340.63 84.94 340.65 84.11 340.66 83.69 C 343.04 81.49 345.36 79.24 347.64 76.95 Z" />
<path fill="#de8887" opacity="1.00" d=" M 67.60 74.65 C 68.75 73.49 72.68 73.07 73.56 74.73 C 71.78 75.71 69.43 75.26 67.60 74.65 Z" />
<path fill="#fcfcfc" opacity="1.00" d=" M 138.19 74.46 C 138.29 74.50 138.49 74.58 138.60 74.63 C 138.49 74.58 138.29 74.50 138.19 74.46 Z" />
<path fill="#818181" opacity="1.00" d=" M 185.63 74.45 C 189.63 75.08 193.53 76.67 197.64 76.26 C 201.65 77.72 205.93 77.87 210.09 78.66 C 202.26 78.58 194.61 76.83 186.93 75.62 L 186.05 76.57 L 185.64 77.02 C 185.64 76.38 185.64 75.09 185.63 74.45 Z" />
<path fill="#d59e9f" opacity="1.00" d=" M 341.02 77.99 C 343.23 76.46 345.71 75.18 348.47 75.15 C 348.27 75.60 347.85 76.50 347.64 76.95 C 345.36 79.24 343.04 81.49 340.66 83.69 C 337.98 82.42 339.33 79.50 341.02 77.99 Z" />
<path fill="#030303" opacity="1.00" d=" M 186.93 75.62 C 194.61 76.83 202.26 78.58 210.09 78.66 C 219.26 79.56 228.54 79.95 237.52 82.22 C 240.83 83.15 244.40 81.87 247.57 83.44 C 247.59 84.01 247.62 85.15 247.64 85.72 C 241.59 88.11 235.24 85.29 229.05 85.37 C 233.20 87.24 238.09 88.24 241.05 91.99 C 242.94 94.03 243.03 96.96 243.60 99.54 C 240.83 102.43 237.12 104.36 233.11 104.64 C 223.24 105.55 213.62 102.46 204.28 99.72 C 204.36 97.66 204.16 95.53 204.82 93.56 C 207.26 89.27 212.30 87.81 215.93 84.80 C 211.19 81.07 204.67 81.95 199.03 81.05 C 194.63 80.32 188.83 80.76 186.05 76.57 L 186.93 75.62 M 211.41 90.54 C 208.60 91.90 207.07 94.96 207.59 98.03 C 218.14 100.97 229.67 104.03 240.37 100.05 C 240.04 96.47 238.61 92.68 235.26 90.91 C 228.11 86.77 218.69 86.64 211.41 90.54 Z" />
<path fill="#a0373c" opacity="1.00" d=" M 48.57 81.21 C 53.35 80.15 58.28 80.21 63.14 80.33 C 62.61 81.85 60.88 81.99 59.59 82.51 C 56.35 83.45 53.30 84.90 50.20 86.17 C 48.41 86.42 46.61 86.57 44.81 86.69 C 46.65 82.78 51.68 83.84 54.96 82.02 C 52.84 81.66 50.71 81.35 48.57 81.21 Z" />
<path fill="#c17278" opacity="1.00" d=" M 41.62 84.53 C 43.72 83.06 45.89 81.32 48.57 81.21 C 50.71 81.35 52.84 81.66 54.96 82.02 C 51.68 83.84 46.65 82.78 44.81 86.69 C 46.61 86.57 48.41 86.42 50.20 86.17 C 47.70 88.11 44.41 87.71 41.45 87.66 C 41.51 86.62 41.57 85.57 41.62 84.53 Z" />
<path fill="#bb4e4c" opacity="1.00" d=" M 104.96 82.02 C 108.48 85.37 113.07 87.77 117.99 88.00 C 120.36 88.24 123.31 87.51 124.74 90.01 C 123.33 89.93 121.93 89.84 120.53 89.73 C 115.47 88.25 110.11 88.33 105.01 86.91 C 105.58 86.37 106.14 85.84 106.71 85.30 C 106.14 84.20 105.57 83.10 104.96 82.02 Z" />
<path fill="#e6bbbb" opacity="1.00" d=" M 126.50 82.39 C 126.81 82.71 127.42 83.36 127.73 83.68 L 127.49 84.21 C 127.25 83.76 126.75 82.85 126.50 82.39 Z" />
<path fill="#5b0e0f" opacity="1.00" d=" M 127.73 83.68 C 127.86 83.85 128.13 84.18 128.26 84.35 L 127.49 84.21 L 127.73 83.68 Z" />
<path fill="#821212" opacity="1.00" d=" M 127.49 84.21 L 128.26 84.35 L 128.38 84.97 C 128.02 85.16 127.29 85.52 126.93 85.70 C 127.07 85.33 127.35 84.59 127.49 84.21 Z" />
<path fill="#5b0e0f" opacity="1.00" d=" M 128.26 84.35 L 128.71 84.58 C 128.63 84.68 128.46 84.88 128.38 84.97 L 128.26 84.35 Z" />
<path fill="#050505" opacity="1.00" d=" M 289.95 86.15 C 297.51 85.36 305.38 81.78 312.88 84.51 C 315.85 87.25 318.87 92.14 316.38 96.08 C 311.55 96.58 306.78 97.43 301.94 97.79 C 306.39 100.78 312.22 98.25 317.24 98.87 C 317.49 99.46 317.99 100.65 318.24 101.25 C 314.41 102.26 308.74 99.64 306.63 104.09 C 304.32 104.44 302.02 104.79 299.74 105.24 C 297.81 105.63 295.84 105.70 293.89 105.76 C 294.27 104.04 295.40 103.10 297.27 102.92 C 297.25 102.65 297.20 102.10 297.18 101.82 C 294.51 101.80 291.84 101.84 289.18 101.73 C 289.66 100.24 290.63 99.17 292.11 98.52 C 288.85 96.05 284.93 94.32 282.32 91.12 C 282.54 87.35 286.94 86.49 289.95 86.15 M 297.34 86.91 C 293.53 87.74 289.74 88.62 285.96 89.55 C 286.56 94.71 292.71 95.94 297.00 95.80 C 303.12 95.57 310.15 95.34 315.01 91.18 C 312.37 86.56 306.84 86.16 302.09 86.21 C 302.46 88.43 302.48 92.06 299.12 90.71 C 299.49 90.07 300.23 88.81 300.60 88.17 C 299.79 87.31 298.61 86.23 297.34 86.91 Z" />
<path fill="#541f23" opacity="1.00" d=" M 335.01 83.62 C 335.19 83.94 335.56 84.58 335.74 84.90 C 336.17 85.83 336.51 86.78 336.76 87.78 C 336.73 88.12 336.67 88.81 336.65 89.15 C 335.18 89.41 333.72 89.68 332.26 89.96 C 332.05 89.04 331.83 88.12 331.62 87.20 C 332.75 86.01 333.88 84.82 335.01 83.62 Z" />
<path fill="#ba5d5e" opacity="1.00" d=" M 340.62 85.36 C 344.76 85.93 348.88 87.35 353.07 86.09 C 349.17 88.40 344.77 89.77 340.20 89.21 C 340.33 87.93 340.47 86.64 340.62 85.36 Z" />
<path fill="#f1b0b5" opacity="1.00" d=" M 353.07 86.09 C 353.84 85.76 354.62 85.42 355.39 85.07 C 356.00 85.21 357.22 85.49 357.83 85.62 C 358.51 86.85 359.21 88.06 359.93 89.27 C 357.35 89.09 354.78 88.99 352.20 88.97 C 352.12 89.77 351.96 91.38 351.88 92.18 C 351.87 92.61 351.85 93.47 351.83 93.90 C 350.55 92.62 349.62 90.90 348.00 90.02 C 345.39 90.29 342.84 90.95 340.25 91.39 C 340.24 90.85 340.21 89.76 340.20 89.21 C 344.77 89.77 349.17 88.40 353.07 86.09 Z" />
<path fill="#080808" opacity="1.00" d=" M 266.20 86.52 C 271.46 89.15 276.61 93.11 278.47 98.92 C 279.98 103.71 275.34 107.30 275.31 111.91 C 275.17 117.78 276.10 123.79 278.37 129.22 C 280.09 133.44 284.79 136.97 283.15 141.98 C 281.27 145.10 277.58 146.12 274.42 147.42 C 269.48 149.27 264.65 151.96 259.25 152.09 C 251.63 151.86 244.71 148.33 238.03 145.01 C 238.45 142.10 238.98 139.20 239.74 136.35 C 236.02 136.35 232.02 137.33 228.60 135.38 C 228.58 133.16 228.56 130.94 228.55 128.72 C 231.90 127.57 235.35 126.59 238.92 126.57 C 237.80 130.35 233.19 128.87 230.75 131.04 C 229.67 132.86 232.32 134.45 233.89 134.47 C 236.69 133.90 239.45 133.11 242.29 132.73 C 243.28 136.33 242.15 139.92 240.91 143.29 C 248.85 149.76 260.06 149.80 269.50 147.16 C 273.34 145.83 277.44 144.26 280.08 141.02 C 281.41 136.05 277.35 132.22 274.56 128.69 C 275.57 123.90 272.70 119.66 272.17 115.04 C 272.09 110.06 275.51 105.89 275.77 100.99 C 275.56 94.45 267.66 92.57 266.20 86.52 Z" />
<path fill="#dfa6a4" opacity="1.00" d=" M 72.47 90.33 C 74.86 87.40 78.78 86.24 82.37 87.44 C 85.60 88.58 89.38 84.93 91.91 88.04 C 94.30 90.37 97.84 89.06 100.79 89.18 C 100.54 90.40 100.29 91.61 100.04 92.83 C 98.87 92.66 97.70 92.53 96.53 92.44 C 95.37 91.36 93.98 90.60 92.34 90.78 C 89.20 90.36 86.24 88.91 83.05 88.89 C 79.86 89.83 77.36 94.30 73.87 91.63 C 73.82 91.63 73.72 91.61 73.67 91.60 C 72.90 91.90 71.37 92.50 70.60 92.79 C 71.23 91.98 71.86 91.16 72.47 90.33 Z" />
<path fill="#861c1c" opacity="1.00" d=" M 90.97 86.76 C 95.65 86.81 100.34 86.58 105.01 86.91 C 110.11 88.33 115.47 88.25 120.53 89.73 C 110.88 91.21 101.56 87.58 91.91 88.04 L 90.97 86.76 Z" />
<path fill="#fcfcfc" opacity="1.00" d=" M 211.41 90.54 C 218.69 86.64 228.11 86.77 235.26 90.91 C 238.61 92.68 240.04 96.47 240.37 100.05 C 229.67 104.03 218.14 100.97 207.59 98.03 C 207.07 94.96 208.60 91.90 211.41 90.54 M 222.58 94.42 C 222.54 95.54 222.50 96.67 222.46 97.80 C 224.61 97.83 226.76 97.83 228.92 97.75 C 229.25 94.06 225.46 92.83 222.58 94.42 Z" />
<path fill="#fbfbfb" opacity="1.00" d=" M 297.34 86.91 C 298.61 86.23 299.79 87.31 300.60 88.17 C 300.23 88.81 299.49 90.07 299.12 90.71 C 302.48 92.06 302.46 88.43 302.09 86.21 C 306.84 86.16 312.37 86.56 315.01 91.18 C 310.15 95.34 303.12 95.57 297.00 95.80 C 292.71 95.94 286.56 94.71 285.96 89.55 C 289.74 88.62 293.53 87.74 297.34 86.91 Z" />
<path fill="#d99c97" opacity="1.00" d=" M 399.79 90.88 C 402.37 89.47 404.85 87.07 408.00 87.43 C 413.95 87.96 419.93 87.94 425.89 88.42 C 425.66 88.68 425.20 89.21 424.97 89.47 C 417.70 89.66 410.11 88.28 403.12 90.85 C 402.00 90.84 400.90 90.85 399.79 90.88 Z" />
<path fill="#a72b2d" opacity="1.00" d=" M 91.91 88.04 C 101.56 87.58 110.88 91.21 120.53 89.73 C 121.93 89.84 123.33 89.93 124.74 90.01 L 125.04 90.81 C 120.75 93.09 115.92 93.44 111.17 92.96 C 107.43 93.79 103.61 95.06 100.04 92.83 C 100.29 91.61 100.54 90.40 100.79 89.18 C 97.84 89.06 94.30 90.37 91.91 88.04 Z" />
<path fill="#e6bbbb" opacity="1.00" d=" M 125.10 88.18 C 125.54 88.07 126.41 87.84 126.85 87.73 C 126.76 89.17 126.18 89.32 125.10 88.18 Z" />
<path fill="#f9faf8" opacity="1.00" d=" M 336.65 89.15 C 336.67 88.81 336.73 88.12 336.76 87.78 C 337.11 93.64 340.76 98.32 344.08 102.85 C 344.43 105.30 344.67 107.76 344.72 110.23 C 343.91 110.94 342.99 111.50 342.12 112.11 C 341.47 109.24 340.60 106.40 339.13 103.84 C 336.60 99.42 336.15 94.13 336.65 89.15 Z" />
<path fill="#c46b6a" opacity="1.00" d=" M 73.87 91.63 C 77.36 94.30 79.86 89.83 83.05 88.89 C 86.24 88.91 89.20 90.36 92.34 90.78 C 86.26 93.24 79.72 94.26 73.66 96.79 C 72.33 96.81 71.00 96.80 69.67 96.77 C 71.10 95.17 73.66 94.04 73.67 91.60 C 73.72 91.61 73.82 91.63 73.87 91.63 Z" />
<path fill="#e6bbbb" opacity="1.00" d=" M 129.34 89.46 C 129.45 89.54 129.68 89.69 129.80 89.77 C 129.68 89.69 129.45 89.54 129.34 89.46 Z" />
<path fill="#e6bbbb" opacity="1.00" d=" M 130.54 90.26 C 133.56 90.18 136.55 89.54 139.58 89.57 C 143.00 89.86 144.40 94.45 142.01 96.78 C 141.94 92.35 138.16 90.10 134.05 90.71 C 133.10 90.66 131.18 90.56 130.23 90.51 L 130.54 90.26 Z" />
<path fill="#020202" opacity="1.00" d=" M 332.26 89.96 C 333.72 89.68 335.18 89.41 336.65 89.15 C 336.15 94.13 336.60 99.42 339.13 103.84 C 340.60 106.40 341.47 109.24 342.12 112.11 C 342.24 112.59 342.46 113.54 342.58 114.01 C 343.24 127.68 347.36 141.20 345.82 155.00 C 345.44 166.22 341.62 176.87 336.95 186.92 C 340.22 190.52 345.31 191.74 349.19 194.58 C 355.94 198.97 356.63 209.14 352.52 215.53 C 347.11 222.70 337.39 224.21 329.02 224.83 C 317.09 225.63 305.67 220.53 296.55 213.20 C 287.92 212.60 280.99 218.75 273.85 222.64 C 269.31 225.41 264.06 226.46 258.91 227.42 C 260.68 230.27 264.23 232.27 263.91 236.01 C 264.05 239.98 267.88 243.78 265.36 247.66 C 263.68 247.38 261.44 247.98 260.51 246.10 C 259.45 243.50 259.85 240.64 259.50 237.92 C 258.48 234.27 256.39 231.04 253.94 228.20 C 248.60 228.36 243.29 227.89 237.99 227.35 C 234.97 229.21 233.51 232.65 233.10 236.05 C 227.83 239.18 224.43 244.62 219.03 247.53 C 218.59 247.12 217.72 246.29 217.28 245.87 C 221.43 241.90 225.77 238.00 229.76 233.95 C 231.08 229.00 235.40 225.73 237.06 221.02 C 233.91 221.45 231.64 224.06 228.47 224.52 C 226.42 219.39 232.88 215.77 231.09 210.83 C 224.58 212.32 223.66 222.17 216.44 222.92 C 214.02 217.46 218.07 211.85 216.43 206.31 C 207.93 208.98 206.12 220.14 197.20 221.97 C 197.89 215.04 199.78 208.33 201.52 201.61 C 193.92 204.13 186.77 208.38 181.50 214.48 C 174.58 222.25 171.21 232.58 170.21 242.80 C 169.80 244.09 169.36 245.38 168.88 246.65 C 165.71 240.51 167.62 233.18 169.17 226.82 C 172.23 219.63 177.88 213.96 183.42 208.61 C 174.87 204.75 165.62 200.32 155.98 202.28 C 152.33 203.45 150.32 199.68 148.16 197.52 C 146.85 197.45 145.54 197.38 144.23 197.32 C 143.05 193.66 148.20 190.78 145.69 187.50 C 143.45 183.56 141.76 179.34 139.99 175.17 C 136.90 167.63 131.80 161.04 129.42 153.18 C 126.22 142.80 125.08 131.89 124.56 121.08 C 124.42 117.63 124.43 114.17 124.69 110.73 C 124.84 109.05 124.96 107.37 125.02 105.68 L 124.71 105.24 C 126.50 104.49 128.39 102.88 130.34 104.18 C 127.52 110.19 127.04 117.83 129.94 123.88 C 131.43 125.22 132.84 127.05 134.92 127.41 C 142.21 128.62 149.49 125.78 154.59 120.57 C 158.18 118.03 159.03 113.55 160.97 109.87 C 164.06 113.66 160.44 118.66 157.70 121.61 C 153.54 125.03 150.65 129.59 146.96 133.45 C 146.83 132.02 146.72 130.58 146.62 129.15 C 140.65 131.21 133.57 131.19 128.59 126.85 C 130.19 138.16 130.10 150.07 135.32 160.51 C 139.73 169.40 145.66 177.53 149.01 186.94 C 154.32 184.35 160.08 182.53 166.02 182.30 C 181.93 181.53 197.55 185.60 212.70 190.00 C 217.84 191.42 222.78 193.70 228.10 194.35 C 236.91 194.65 244.32 188.62 252.97 187.97 C 260.53 187.38 268.51 187.45 275.55 190.61 C 278.85 192.12 279.41 196.02 280.78 198.98 C 282.00 202.54 286.31 204.42 289.79 203.08 C 298.06 199.61 301.49 189.42 310.49 187.16 C 317.84 184.70 325.48 186.85 332.96 187.02 C 339.72 177.85 341.47 166.07 342.26 154.98 C 343.32 132.83 337.00 111.36 332.26 89.96 M 162.40 189.81 C 162.58 192.72 163.83 195.45 164.02 198.38 C 171.72 200.63 179.09 204.26 187.06 205.46 C 191.22 202.37 195.49 198.47 200.99 198.40 C 202.54 198.81 204.68 199.19 205.38 200.84 C 205.19 204.77 202.45 207.97 201.98 211.85 C 209.13 211.22 211.92 201.72 219.80 203.19 C 219.89 206.99 219.88 210.79 219.85 214.59 C 221.47 214.60 222.90 213.92 224.28 213.14 C 224.52 208.89 221.49 205.39 221.30 201.19 C 215.42 199.76 211.29 194.87 205.55 193.16 C 192.86 189.20 179.45 189.02 166.32 187.95 C 164.83 187.71 162.93 188.24 162.40 189.81 M 259.65 192.77 C 254.10 204.82 235.68 204.63 232.84 218.55 C 236.71 217.66 240.01 219.84 243.04 221.94 C 249.10 216.94 257.30 215.41 263.02 209.94 C 266.50 206.70 270.46 203.02 270.77 197.97 C 269.93 192.78 263.64 193.21 259.65 192.77 M 328.55 194.81 C 324.09 197.91 321.95 203.27 317.73 206.65 C 315.49 208.76 311.90 210.53 312.36 214.15 C 317.17 213.38 321.53 216.47 326.31 216.04 C 334.22 212.21 338.66 203.68 340.32 195.34 C 336.76 193.38 332.17 192.49 328.55 194.81 M 282.28 209.35 C 282.35 210.81 282.44 212.27 282.54 213.74 C 285.43 212.92 288.32 212.09 291.17 211.15 C 291.31 210.71 291.60 209.83 291.74 209.39 C 288.58 209.30 285.43 209.29 282.28 209.35 Z" />
<path fill="#c8706f" opacity="1.00" d=" M 352.20 88.97 C 354.78 88.99 357.35 89.09 359.93 89.27 C 365.04 89.66 370.18 88.83 375.28 89.55 C 369.36 89.89 363.27 89.24 357.57 91.19 C 356.78 92.23 356.22 93.51 355.12 94.25 C 354.00 93.62 352.94 92.89 351.88 92.18 C 351.96 91.38 352.12 89.77 352.20 88.97 Z" />
<path fill="#f3caca" opacity="1.00" d=" M 66.50 98.61 C 64.89 94.74 68.62 90.49 72.47 90.33 C 71.86 91.16 71.23 91.98 70.60 92.79 C 69.36 94.00 68.22 95.30 67.36 96.81 C 67.68 97.18 68.31 97.92 68.63 98.28 L 69.12 98.84 C 70.51 100.65 71.88 102.47 73.31 104.24 C 72.63 104.80 71.95 105.35 71.27 105.91 C 70.83 102.81 68.27 100.94 66.50 98.61 Z" />
<path fill="#fdf7f6" opacity="1.00" d=" M 340.25 91.39 C 342.84 90.95 345.39 90.29 348.00 90.02 C 349.62 90.90 350.55 92.62 351.83 93.90 C 354.31 96.30 357.99 96.57 361.18 97.43 C 361.40 97.72 361.84 98.30 362.07 98.59 C 358.19 98.56 354.25 98.11 350.41 98.76 C 350.28 99.19 350.01 100.04 349.87 100.47 C 352.41 100.55 354.95 100.90 357.23 102.10 C 354.64 103.99 351.40 104.08 348.33 104.22 C 347.43 102.39 346.35 100.64 345.02 99.10 C 342.98 96.83 341.32 94.25 340.25 91.39 Z" />
<path fill="#801816" opacity="1.00" d=" M 357.57 91.19 C 363.27 89.24 369.36 89.89 375.28 89.55 C 377.99 90.13 377.70 92.91 377.69 95.08 C 378.00 93.74 378.32 92.40 378.67 91.06 C 378.50 92.76 378.32 94.46 378.16 96.16 C 375.05 96.60 371.92 96.90 368.79 96.95 C 366.24 96.97 363.71 97.22 361.18 97.43 C 357.99 96.57 354.31 96.30 351.83 93.90 C 351.85 93.47 351.87 92.61 351.88 92.18 C 352.94 92.89 354.00 93.62 355.12 94.25 C 356.22 93.51 356.78 92.23 357.57 91.19 M 369.25 92.17 C 368.13 93.41 369.07 96.32 371.02 95.44 C 374.37 95.29 371.54 89.47 369.25 92.17 Z" />
<path fill="#7d1112" opacity="1.00" d=" M 403.12 90.85 C 410.11 88.28 417.70 89.66 424.97 89.47 C 427.88 89.39 429.76 92.45 429.57 95.11 C 428.54 95.88 427.53 96.66 426.52 97.45 L 425.68 97.45 C 417.83 97.32 408.94 99.34 402.45 93.61 C 404.51 93.44 406.58 93.35 408.66 93.31 C 408.99 93.15 409.66 92.83 410.00 92.66 C 407.61 92.48 405.26 91.96 403.12 90.85 Z" />
<path fill="#b14645" opacity="1.00" d=" M 92.34 90.78 C 93.98 90.60 95.37 91.36 96.53 92.44 C 88.81 93.42 81.56 97.13 73.66 96.79 C 79.72 94.26 86.26 93.24 92.34 90.78 Z" />
<path fill="#5b0e0f" opacity="1.00" d=" M 128.27 92.22 C 128.76 91.79 129.74 90.94 130.23 90.51 C 131.18 90.56 133.10 90.66 134.05 90.71 C 134.06 91.35 134.07 92.62 134.07 93.26 C 132.10 93.13 130.15 92.79 128.27 92.22 Z" />
<path fill="#ab585b" opacity="1.00" d=" M 134.05 90.71 C 138.16 90.10 141.94 92.35 142.01 96.78 C 141.84 97.04 141.51 97.56 141.34 97.82 L 140.48 98.23 C 140.34 96.84 140.21 95.44 140.10 94.04 C 138.10 93.71 136.09 93.42 134.07 93.26 C 134.07 92.62 134.06 91.35 134.05 90.71 Z" />
<path fill="#9b4c50" opacity="1.00" d=" M 394.99 93.76 C 395.47 91.60 398.06 91.48 399.79 90.88 C 400.90 90.85 402.00 90.84 403.12 90.85 C 405.26 91.96 407.61 92.48 410.00 92.66 C 409.66 92.83 408.99 93.15 408.66 93.31 C 406.58 93.35 404.51 93.44 402.45 93.61 C 400.58 93.08 398.63 93.21 396.74 93.51 C 396.30 93.57 395.43 93.70 394.99 93.76 Z" />
<path fill="#da817a" opacity="1.00" d=" M 369.25 92.17 C 371.54 89.47 374.37 95.29 371.02 95.44 C 369.07 96.32 368.13 93.41 369.25 92.17 Z" />
<path fill="#dfa6a6" opacity="1.00" d=" M 396.74 93.51 C 398.63 93.21 400.58 93.08 402.45 93.61 C 408.94 99.34 417.83 97.32 425.68 97.45 C 425.70 97.96 425.74 98.97 425.76 99.48 C 418.78 99.77 411.18 101.49 404.66 98.22 C 402.73 95.52 400.49 92.85 396.74 93.51 Z" />
<path fill="#6e0405" opacity="1.00" d=" M 97.72 94.74 C 99.53 94.14 101.32 94.99 102.16 96.66 C 98.89 97.41 95.57 97.95 92.33 98.82 C 87.95 100.00 83.91 102.10 79.72 103.79 L 78.69 103.86 C 78.45 103.70 77.95 103.37 77.71 103.21 C 79.76 101.91 81.86 100.69 83.95 99.45 C 82.18 99.34 80.42 99.22 78.65 99.15 C 84.80 96.91 91.38 96.27 97.72 94.74 Z" />
<path fill="#050505" opacity="1.00" d=" M 222.58 94.42 C 225.46 92.83 229.25 94.06 228.92 97.75 C 226.76 97.83 224.61 97.83 222.46 97.80 C 222.50 96.67 222.54 95.54 222.58 94.42 Z" />
<path fill="#d7a29d" opacity="1.00" d=" M 31.31 104.31 C 36.00 99.91 41.98 95.61 48.59 95.36 C 48.80 95.87 49.22 96.88 49.43 97.39 C 42.87 98.12 37.39 102.08 31.31 104.31 Z" />
<path fill="#660606" opacity="1.00" d=" M 105.75 103.79 C 109.93 100.36 113.92 95.61 119.68 95.20 C 121.24 100.08 114.91 100.97 113.75 104.96 C 116.39 104.04 118.91 102.83 121.37 101.50 C 122.51 102.72 123.65 103.94 124.71 105.24 L 125.02 105.68 C 122.34 107.80 119.83 110.12 117.23 112.32 C 115.15 113.91 112.74 115.05 110.11 115.27 C 109.77 115.05 109.08 114.59 108.74 114.37 C 107.99 115.80 107.21 117.22 106.51 118.68 C 104.22 120.00 102.03 121.50 100.20 123.41 L 100.41 122.21 C 101.45 119.65 99.14 118.22 97.44 116.86 C 99.86 115.26 102.02 113.31 104.22 111.42 C 104.59 111.11 105.33 110.47 105.70 110.15 C 104.43 108.19 103.41 105.46 105.75 103.79 Z" />
<path fill="#9e2d2a" opacity="1.00" d=" M 135.04 95.30 C 136.37 95.67 137.69 96.04 139.02 96.41 C 136.92 97.93 134.58 99.19 131.90 99.11 C 132.84 97.75 133.90 96.49 135.04 95.30 Z" />
<path fill="#080808" opacity="1.00" d=" M 165.12 102.31 C 173.01 96.53 183.50 98.49 192.53 96.19 C 189.72 100.67 183.54 100.02 178.96 100.47 C 174.17 100.11 169.92 103.65 165.12 102.31 Z" />
<path fill="#cb5d5f" opacity="1.00" d=" M 361.18 97.43 C 363.71 97.22 366.24 96.97 368.79 96.95 C 370.22 97.41 372.94 96.68 373.41 98.38 L 373.68 99.59 C 370.16 99.80 366.63 99.80 363.12 99.99 C 362.86 99.64 362.33 98.94 362.07 98.59 C 361.84 98.30 361.40 97.72 361.18 97.43 Z" />
<path fill="#760d0d" opacity="1.00" d=" M 31.31 104.31 C 37.39 102.08 42.87 98.12 49.43 97.39 L 49.42 98.44 C 49.38 99.74 49.35 101.05 49.31 102.36 C 50.04 102.57 51.48 102.99 52.20 103.20 C 50.97 104.20 49.74 105.18 48.49 106.16 C 43.24 110.27 37.84 114.19 32.64 118.37 C 30.25 117.00 27.41 115.90 26.28 113.16 C 29.85 110.14 33.73 107.51 37.21 104.38 C 35.24 104.34 33.28 104.29 31.31 104.31 Z" />
<path fill="#b54544" opacity="1.00" d=" M 68.63 98.28 C 71.91 99.04 75.29 99.31 78.65 99.15 C 80.42 99.22 82.18 99.34 83.95 99.45 C 81.86 100.69 79.76 101.91 77.71 103.21 C 76.92 103.72 76.15 104.26 75.41 104.84 C 75.10 101.52 71.42 100.54 69.12 98.84 L 68.63 98.28 Z" />
<path fill="#fad5d7" opacity="1.00" d=" M 140.48 98.23 L 141.34 97.82 C 140.91 99.06 140.55 100.32 140.20 101.59 C 140.90 101.75 142.29 102.07 142.98 102.23 C 140.89 104.91 139.45 108.01 137.74 110.95 C 134.41 114.61 131.62 119.23 132.53 124.40 C 132.32 122.52 132.05 120.64 131.77 118.77 C 131.16 120.47 130.55 122.18 129.94 123.88 C 127.04 117.83 127.52 110.19 130.34 104.18 L 130.49 104.23 C 132.85 105.92 135.28 104.17 137.52 103.22 C 137.45 102.35 137.30 100.60 137.22 99.72 C 138.30 99.22 139.40 98.74 140.48 98.23 M 129.46 108.33 C 128.01 112.00 128.67 116.10 128.99 119.94 C 133.03 116.18 135.71 111.15 138.07 106.24 C 135.15 106.17 131.60 105.93 129.46 108.33 Z" />
<path fill="#c47e7e" opacity="1.00" d=" M 49.42 98.44 C 50.86 99.53 52.07 100.88 53.18 102.30 C 52.66 103.74 52.13 105.18 51.61 106.63 C 50.57 106.47 49.53 106.31 48.49 106.16 C 49.74 105.18 50.97 104.20 52.20 103.20 C 51.48 102.99 50.04 102.57 49.31 102.36 C 49.35 101.05 49.38 99.74 49.42 98.44 Z" />
<path fill="#d28284" opacity="1.00" d=" M 69.12 98.84 C 71.42 100.54 75.10 101.52 75.41 104.84 C 73.38 106.89 71.26 108.87 68.84 110.46 C 68.95 109.82 69.18 108.56 69.29 107.92 C 69.82 107.14 70.48 106.47 71.27 105.91 C 71.95 105.35 72.63 104.80 73.31 104.24 C 71.88 102.47 70.51 100.65 69.12 98.84 Z" />
<path fill="#932324" opacity="1.00" d=" M 79.72 103.79 C 83.91 102.10 87.95 100.00 92.33 98.82 C 91.31 102.64 87.18 103.63 84.56 106.06 C 84.18 105.44 83.42 104.21 83.04 103.59 C 82.21 103.64 80.55 103.74 79.72 103.79 Z" />
<path fill="#831919" opacity="1.00" d=" M 151.11 98.89 C 151.68 99.73 152.46 100.59 152.09 101.70 C 150.82 110.36 146.71 118.62 140.93 125.14 C 138.09 125.59 135.20 125.57 132.53 124.40 C 131.62 119.23 134.41 114.61 137.74 110.95 C 141.10 108.31 143.83 103.96 148.62 104.24 C 144.35 108.04 139.32 111.18 136.14 116.04 C 134.94 118.33 133.84 121.29 135.16 123.75 C 137.25 124.71 140.12 124.52 141.38 122.36 C 145.30 116.75 148.47 110.50 149.94 103.78 C 150.02 103.44 150.19 102.76 150.28 102.42 C 150.54 101.24 150.82 100.06 151.11 98.89 Z" />
<path fill="#6d6d6d" opacity="1.00" d=" M 317.24 98.87 C 318.20 99.20 320.30 100.51 318.50 101.40 C 315.34 103.14 311.36 101.68 307.90 102.50 C 308.08 103.12 308.42 104.36 308.59 104.98 C 305.64 105.04 302.69 105.12 299.74 105.24 C 302.02 104.79 304.32 104.44 306.63 104.09 C 308.74 99.64 314.41 102.26 318.24 101.25 C 317.99 100.65 317.49 99.46 317.24 98.87 Z" />
<path fill="#8d7172" opacity="1.00" d=" M 345.02 99.10 C 346.35 100.64 347.43 102.39 348.33 104.22 C 349.33 106.61 349.73 109.19 350.12 111.73 C 349.38 110.53 348.80 109.24 348.30 107.92 C 347.95 106.89 347.58 105.86 347.22 104.83 C 346.52 102.90 345.82 100.98 345.02 99.10 Z" />
<path fill="#b22227" opacity="1.00" d=" M 350.41 98.76 C 354.25 98.11 358.19 98.56 362.07 98.59 C 362.33 98.94 362.86 99.64 363.12 99.99 C 362.76 100.17 362.04 100.52 361.68 100.69 C 363.18 100.76 364.69 100.83 366.20 100.91 C 365.54 101.48 364.89 102.05 364.24 102.62 C 366.64 102.71 369.03 102.93 371.40 103.33 C 367.96 103.56 364.51 103.70 361.07 103.63 C 359.78 103.14 358.50 102.63 357.23 102.10 C 354.95 100.90 352.41 100.55 349.87 100.47 C 350.01 100.04 350.28 99.19 350.41 98.76 Z" />
<path fill="#a95d5b" opacity="1.00" d=" M 373.41 98.38 C 377.22 98.62 374.58 104.83 371.40 103.33 C 369.03 102.93 366.64 102.71 364.24 102.62 C 364.89 102.05 365.54 101.48 366.20 100.91 C 368.59 100.33 373.85 103.79 373.68 99.59 L 373.41 98.38 Z" />
<path fill="#c06c6d" opacity="1.00" d=" M 130.49 104.23 C 132.32 102.18 134.78 100.90 137.22 99.72 C 137.30 100.60 137.45 102.35 137.52 103.22 C 135.28 104.17 132.85 105.92 130.49 104.23 Z" />
<path fill="#cc8186" opacity="1.00" d=" M 145.16 100.10 L 146.38 100.61 C 147.69 101.19 148.98 101.81 150.28 102.42 C 150.19 102.76 150.02 103.44 149.94 103.78 C 149.61 103.90 148.95 104.12 148.62 104.24 C 143.83 103.96 141.10 108.31 137.74 110.95 C 139.45 108.01 140.89 104.91 142.98 102.23 C 143.70 101.51 144.42 100.80 145.16 100.10 Z" />
<path fill="#fba5a0" opacity="1.00" d=" M 361.68 100.69 C 362.04 100.52 362.76 100.17 363.12 99.99 C 366.63 99.80 370.16 99.80 373.68 99.59 C 373.85 103.79 368.59 100.33 366.20 100.91 C 364.69 100.83 363.18 100.76 361.68 100.69 Z" />
<path fill="#040404" opacity="1.00" d=" M 196.78 100.84 C 200.96 100.70 204.03 104.48 208.03 105.33 C 217.31 107.34 226.90 106.34 236.30 107.21 C 233.11 110.41 228.23 109.04 224.35 110.57 C 223.66 111.89 226.18 112.81 225.68 114.35 C 221.79 115.30 217.47 115.76 213.71 114.10 C 213.65 113.40 213.52 111.99 213.46 111.28 C 216.57 112.02 219.76 114.29 222.92 112.36 C 217.35 109.92 210.44 110.59 205.96 105.83 C 202.78 105.38 196.11 105.05 196.78 100.84 Z" />
<path fill="#e1b0ae" opacity="1.00" d=" M 53.18 102.30 L 53.82 102.35 C 53.42 103.94 53.90 106.14 52.41 107.22 C 43.10 111.31 35.71 118.52 27.45 124.27 C 24.79 125.30 21.63 124.79 19.88 122.41 C 24.68 124.43 29.15 121.43 32.64 118.37 C 37.84 114.19 43.24 110.27 48.49 106.16 C 49.53 106.31 50.57 106.47 51.61 106.63 C 52.13 105.18 52.66 103.74 53.18 102.30 Z" />
<path fill="#a22a2b" opacity="1.00" d=" M 96.62 106.59 C 98.49 104.81 100.13 102.65 102.77 101.96 C 102.24 105.23 101.30 108.94 104.22 111.42 C 102.02 113.31 99.86 115.26 97.44 116.86 C 91.57 119.23 86.13 122.49 80.73 125.74 C 78.10 126.98 79.90 129.76 80.40 131.77 C 78.33 133.40 76.18 134.92 73.98 136.38 C 73.43 133.72 73.29 131.00 73.46 128.30 C 72.93 128.23 71.88 128.10 71.35 128.04 C 72.44 126.87 75.38 126.13 73.85 124.19 C 73.51 124.11 72.82 123.95 72.48 123.86 C 67.72 126.91 63.60 132.22 64.24 138.16 C 64.97 139.38 66.17 140.21 67.30 141.04 L 67.70 141.33 C 66.22 140.92 63.13 141.91 62.56 140.40 C 64.24 138.08 63.34 135.11 63.35 132.48 C 65.27 128.48 68.70 125.35 71.64 122.07 C 72.35 121.39 73.08 120.72 73.83 120.08 C 75.06 119.02 76.34 118.00 77.55 116.91 C 81.77 116.39 84.73 113.13 88.25 111.10 C 90.92 109.38 93.99 108.38 96.62 106.59 M 74.04 121.98 C 74.56 123.43 74.88 124.93 75.20 126.44 C 77.86 124.37 78.74 121.01 79.78 117.97 C 77.55 118.80 75.65 120.25 74.04 121.98 Z" />
<path fill="#060606" opacity="1.00" d=" M 175.87 102.83 C 177.47 102.68 179.38 101.03 180.79 102.21 C 181.75 105.21 177.36 105.81 175.49 104.46 C 175.59 104.05 175.78 103.24 175.87 102.83 Z" />
<path fill="#fcb7b3" opacity="1.00" d=" M 348.33 104.22 C 351.40 104.08 354.64 103.99 357.23 102.10 C 358.50 102.63 359.78 103.14 361.07 103.63 C 361.17 104.22 361.37 105.41 361.47 106.01 C 358.94 105.36 356.37 104.91 353.82 104.45 C 352.97 106.19 352.13 107.93 351.42 109.73 L 352.01 110.03 C 353.84 110.74 355.74 111.34 357.41 112.41 C 355.92 112.69 354.43 112.95 352.94 113.20 C 351.98 112.72 351.05 112.23 350.12 111.73 C 349.73 109.19 349.33 106.61 348.33 104.22 Z" />
<path fill="#857a78" opacity="1.00" d=" M 344.08 102.85 C 344.70 103.76 345.35 104.65 346.02 105.52 C 345.58 107.09 345.22 108.68 344.72 110.23 C 344.67 107.76 344.43 105.30 344.08 102.85 Z" />
<path fill="#9f3733" opacity="1.00" d=" M 19.86 113.93 C 22.46 109.74 26.35 105.40 31.31 104.31 C 33.28 104.29 35.24 104.34 37.21 104.38 C 33.73 107.51 29.85 110.14 26.28 113.16 C 27.41 115.90 30.25 117.00 32.64 118.37 C 29.15 121.43 24.68 124.43 19.88 122.41 C 19.56 122.08 18.91 121.43 18.59 121.11 C 18.84 118.69 19.22 116.28 19.86 113.93 M 22.61 112.53 C 20.73 114.81 21.55 117.94 21.40 120.64 C 21.91 120.64 22.93 120.64 23.45 120.65 C 23.21 116.07 25.69 111.38 28.71 108.02 C 26.48 109.22 24.01 110.30 22.61 112.53 Z" />
<path fill="#b0514f" opacity="1.00" d=" M 78.69 103.86 L 79.72 103.79 C 80.55 103.74 82.21 103.64 83.04 103.59 C 83.42 104.21 84.18 105.44 84.56 106.06 C 83.52 108.09 82.33 110.14 80.27 111.30 C 80.19 110.55 80.03 109.05 79.95 108.30 C 81.16 107.25 82.31 106.15 83.49 105.07 C 82.14 104.87 80.79 104.63 79.46 104.35 L 78.69 103.86 Z" />
<path fill="#ce6767" opacity="1.00" d=" M 148.62 104.24 C 148.95 104.12 149.61 103.90 149.94 103.78 C 148.47 110.50 145.30 116.75 141.38 122.36 C 140.12 124.52 137.25 124.71 135.16 123.75 C 133.84 121.29 134.94 118.33 136.14 116.04 C 139.32 111.18 144.35 108.04 148.62 104.24 Z" />
<path fill="#e69795" opacity="1.00" d=" M 75.67 107.12 C 76.92 106.17 78.19 105.27 79.46 104.35 C 80.79 104.63 82.14 104.87 83.49 105.07 C 82.31 106.15 81.16 107.25 79.95 108.30 C 78.76 108.98 77.51 109.57 76.27 110.16 C 76.12 109.40 75.82 107.88 75.67 107.12 Z" />
<path fill="#290a0a" opacity="1.00" d=" M 346.02 105.52 L 347.22 104.83 C 347.58 105.86 347.95 106.89 348.30 107.92 C 348.84 110.80 347.23 112.98 344.83 114.31 L 343.79 115.08 L 342.58 114.01 C 342.46 113.54 342.24 112.59 342.12 112.11 C 342.99 111.50 343.91 110.94 344.72 110.23 C 345.22 108.68 345.58 107.09 346.02 105.52 Z" />
<path fill="#bf7578" opacity="1.00" d=" M 351.42 109.73 C 352.13 107.93 352.97 106.19 353.82 104.45 C 356.37 104.91 358.94 105.36 361.47 106.01 C 364.38 106.25 366.96 109.46 365.08 112.07 C 359.50 115.81 350.94 121.02 345.04 115.27 C 346.12 115.25 347.21 115.22 348.29 115.29 C 350.98 115.56 353.71 115.54 356.37 114.99 C 358.95 113.83 361.10 111.97 363.09 109.99 C 360.67 105.80 354.44 105.87 352.01 110.03 L 351.42 109.73 Z" />
<path fill="#831919" opacity="1.00" d=" M 117.23 112.32 C 119.83 110.12 122.34 107.80 125.02 105.68 C 124.96 107.37 124.84 109.05 124.69 110.73 C 118.42 117.54 111.20 123.62 106.18 131.52 C 106.03 131.72 105.73 132.12 105.58 132.32 C 103.06 133.69 100.16 133.64 97.38 133.55 C 97.47 130.91 97.55 128.20 98.74 125.78 C 99.21 124.98 99.70 124.19 100.20 123.41 C 102.03 121.50 104.22 120.00 106.51 118.68 C 106.39 120.05 106.32 121.42 106.30 122.79 C 103.72 125.18 101.14 127.71 99.82 131.05 C 103.65 131.61 105.72 128.04 107.76 125.47 C 108.48 124.46 109.19 123.45 109.89 122.44 C 112.29 119.21 118.66 117.03 117.23 112.32 Z" />
<path fill="#fdf9f8" opacity="1.00" d=" M 129.46 108.33 C 131.60 105.93 135.15 106.17 138.07 106.24 C 135.71 111.15 133.03 116.18 128.99 119.94 C 128.67 116.10 128.01 112.00 129.46 108.33 Z" />
<path fill="#d16464" opacity="1.00" d=" M 69.65 115.49 C 70.59 112.05 72.85 109.22 75.67 107.12 C 75.82 107.88 76.12 109.40 76.27 110.16 C 77.51 109.57 78.76 108.98 79.95 108.30 C 80.03 109.05 80.19 110.55 80.27 111.30 C 77.07 113.44 73.55 115.19 69.65 115.49 Z" />
<path fill="#0c0c0c" opacity="1.00" d=" M 303.29 107.66 C 306.13 107.41 309.12 107.50 311.26 109.64 C 308.74 110.00 306.21 110.25 303.66 110.26 C 303.53 109.39 303.41 108.52 303.29 107.66 Z" />
<path fill="#9c302f" opacity="1.00" d=" M 352.01 110.03 C 354.44 105.87 360.67 105.80 363.09 109.99 C 361.10 111.97 358.95 113.83 356.37 114.99 C 355.23 114.38 354.09 113.78 352.94 113.20 C 354.43 112.95 355.92 112.69 357.41 112.41 C 355.74 111.34 353.84 110.74 352.01 110.03 Z" />
<path fill="#e48887" opacity="1.00" d=" M 22.61 112.53 C 24.01 110.30 26.48 109.22 28.71 108.02 C 25.69 111.38 23.21 116.07 23.45 120.65 C 22.93 120.64 21.91 120.64 21.40 120.64 C 21.55 117.94 20.73 114.81 22.61 112.53 Z" />
<path fill="#f7d2cf" opacity="1.00" d=" M 67.59 117.51 C 66.13 114.60 65.49 109.36 69.29 107.92 C 69.18 108.56 68.95 109.82 68.84 110.46 C 68.55 112.40 68.38 114.36 68.22 116.32 C 68.86 116.62 70.13 117.21 70.77 117.51 C 71.83 118.32 72.82 119.20 73.83 120.08 C 73.08 120.72 72.35 121.39 71.64 122.07 C 70.66 120.23 69.08 118.91 67.59 117.51 Z" />
<path fill="#762b2c" opacity="1.00" d=" M 348.30 107.92 C 348.80 109.24 349.38 110.53 350.12 111.73 C 351.05 112.23 351.98 112.72 352.94 113.20 C 354.09 113.78 355.23 114.38 356.37 114.99 C 353.71 115.54 350.98 115.56 348.29 115.29 C 347.12 114.99 345.97 114.66 344.83 114.31 C 347.23 112.98 348.84 110.80 348.30 107.92 Z" />
<path fill="#ca908f" opacity="1.00" d=" M 381.67 108.73 C 385.87 107.41 389.67 110.46 393.58 111.51 C 394.53 112.09 396.22 111.96 396.72 113.06 L 396.84 114.17 C 396.52 114.12 395.88 114.03 395.56 113.99 C 391.61 113.22 387.96 111.35 384.01 110.64 C 382.55 111.33 381.20 112.23 379.84 113.08 C 380.05 113.60 380.49 114.63 380.70 115.15 C 379.02 115.05 377.33 114.94 375.66 114.81 C 377.06 112.30 379.62 110.69 381.67 108.73 Z" />
<path fill="#fad5d7" opacity="1.00" d=" M 106.18 131.52 C 111.20 123.62 118.42 117.54 124.69 110.73 C 124.43 114.17 124.42 117.63 124.56 121.08 C 124.19 119.36 123.83 117.65 123.47 115.94 C 120.64 116.61 119.21 119.38 117.21 121.23 C 114.00 124.41 111.07 127.84 108.39 131.48 C 107.84 131.49 106.73 131.51 106.18 131.52 Z" />
<path fill="#7f1516" opacity="1.00" d=" M 379.84 113.08 C 381.20 112.23 382.55 111.33 384.01 110.64 C 387.96 111.35 391.61 113.22 395.56 113.99 C 392.04 116.03 387.94 115.55 384.05 115.80 C 387.76 120.35 393.61 122.24 398.58 125.05 C 403.13 127.29 407.42 130.00 412.03 132.13 C 413.67 132.43 415.34 132.61 417.01 132.82 C 417.38 128.64 414.80 125.46 412.65 122.20 L 412.29 121.49 C 416.37 124.08 419.41 128.48 418.50 133.51 C 416.43 133.73 414.32 134.04 412.25 133.74 C 407.27 131.35 402.15 129.25 397.26 126.67 C 393.57 124.55 389.93 122.33 385.99 120.70 C 384.02 119.07 382.02 117.38 380.70 115.15 C 380.49 114.63 380.05 113.60 379.84 113.08 Z" />
<path fill="#8e2322" opacity="1.00" d=" M 110.11 115.27 C 112.74 115.05 115.15 113.91 117.23 112.32 C 118.66 117.03 112.29 119.21 109.89 122.44 C 110.03 120.05 110.13 117.66 110.11 115.27 Z" />
<path fill="#030303" opacity="1.00" d=" M 256.13 113.55 C 258.65 113.53 261.16 113.35 263.65 113.04 C 263.06 114.13 262.48 115.23 261.91 116.33 C 264.60 116.36 267.30 116.37 269.99 116.52 C 267.59 121.35 261.75 118.65 257.67 118.40 C 257.19 116.78 256.65 115.17 256.13 113.55 Z" />
<path fill="#eeb2b2" opacity="1.00" d=" M 396.72 113.06 C 402.73 112.50 408.92 116.55 412.29 121.49 L 412.65 122.20 C 414.80 125.46 417.38 128.64 417.01 132.82 C 415.34 132.61 413.67 132.43 412.03 132.13 C 412.68 131.33 413.35 130.52 414.01 129.72 C 412.31 126.65 409.65 124.36 407.30 121.83 C 406.45 120.09 405.70 118.30 404.64 116.67 C 402.12 115.61 399.53 114.68 396.84 114.17 L 396.72 113.06 Z" />
<path fill="#d69899" opacity="1.00" d=" M 18.59 121.11 C 16.07 118.92 17.57 115.59 19.86 113.93 C 19.22 116.28 18.84 118.69 18.59 121.11 Z" />
<path fill="#cf716e" opacity="1.00" d=" M 70.77 117.51 C 73.85 116.49 76.89 115.34 79.86 114.05 C 79.10 115.01 78.34 115.97 77.55 116.91 C 76.34 118.00 75.06 119.02 73.83 120.08 C 72.82 119.20 71.83 118.32 70.77 117.51 Z" />
<path fill="#e59993" opacity="1.00" d=" M 106.51 118.68 C 107.21 117.22 107.99 115.80 108.74 114.37 C 109.08 114.59 109.77 115.05 110.11 115.27 C 110.13 117.66 110.03 120.05 109.89 122.44 C 109.19 123.45 108.48 124.46 107.76 125.47 C 107.26 124.58 106.77 123.69 106.30 122.79 C 106.32 121.42 106.39 120.05 106.51 118.68 Z" />
<path fill="#901d20" opacity="1.00" d=" M 395.56 113.99 C 395.88 114.03 396.52 114.12 396.84 114.17 C 399.53 114.68 402.12 115.61 404.64 116.67 C 403.10 118.16 402.19 120.85 400.00 121.35 C 394.36 120.66 389.15 118.17 384.05 115.80 C 387.94 115.55 392.04 116.03 395.56 113.99 Z" />
<path fill="#e8b6b6" opacity="1.00" d=" M 375.66 114.81 C 377.33 114.94 379.02 115.05 380.70 115.15 C 382.02 117.38 384.02 119.07 385.99 120.70 C 387.08 122.11 388.10 123.57 389.22 124.96 C 383.81 123.02 380.64 117.56 375.66 114.81 Z" />
<path fill="#ba5451" opacity="1.00" d=" M 398.58 125.05 C 393.61 122.24 387.76 120.35 384.05 115.80 C 389.15 118.17 394.36 120.66 400.00 121.35 C 402.19 120.85 403.10 118.16 404.64 116.67 C 405.70 118.30 406.45 120.09 407.30 121.83 C 406.53 122.62 405.77 123.41 405.02 124.21 C 403.48 123.95 401.95 123.69 400.42 123.44 C 399.96 123.84 399.04 124.65 398.58 125.05 Z" />
<path fill="#831313" opacity="1.00" d=" M 80.73 125.74 C 86.13 122.49 91.57 119.23 97.44 116.86 C 99.14 118.22 101.45 119.65 100.41 122.21 C 99.41 118.65 96.20 121.41 94.70 122.91 C 90.24 126.87 85.06 129.96 80.83 134.18 C 77.57 136.82 73.83 139.32 69.59 139.91 C 70.95 138.62 72.43 137.44 73.98 136.38 C 76.18 134.92 78.33 133.40 80.40 131.77 C 79.90 129.76 78.10 126.98 80.73 125.74 Z" />
<path fill="#c04d4e" opacity="1.00" d=" M 74.04 121.98 C 75.65 120.25 77.55 118.80 79.78 117.97 C 78.74 121.01 77.86 124.37 75.20 126.44 C 74.88 124.93 74.56 123.43 74.04 121.98 Z" />
<path fill="#e49896" opacity="1.00" d=" M 129.94 123.88 C 130.55 122.18 131.16 120.47 131.77 118.77 C 132.05 120.64 132.32 122.52 132.53 124.40 C 135.20 125.57 138.09 125.59 140.93 125.14 C 138.97 126.02 136.97 126.79 134.92 127.41 C 132.84 127.05 131.43 125.22 129.94 123.88 Z" />
<path fill="#040404" opacity="1.00" d=" M 197.41 138.40 C 204.99 127.30 217.89 118.02 231.88 119.54 C 228.60 123.57 222.74 121.99 218.34 123.61 C 216.08 124.12 217.11 127.25 215.47 128.46 C 213.22 130.64 211.24 133.22 208.50 134.81 C 208.56 133.34 208.66 131.88 208.78 130.42 C 203.17 133.63 199.26 139.01 197.00 144.99 C 194.08 143.48 195.78 140.16 197.41 138.40 Z" />
<path fill="#b95d5c" opacity="1.00" d=" M 94.70 122.91 C 96.20 121.41 99.41 118.65 100.41 122.21 L 100.20 123.41 C 99.70 124.19 99.21 124.98 98.74 125.78 C 97.49 124.70 96.12 123.75 94.70 122.91 Z" />
<path fill="#cf7f82" opacity="1.00" d=" M 385.99 120.70 C 389.93 122.33 393.57 124.55 397.26 126.67 C 395.98 126.98 394.70 127.30 393.42 127.61 L 393.09 127.69 C 391.80 126.78 390.47 125.93 389.22 124.96 C 388.10 123.57 387.08 122.11 385.99 120.70 Z" />
<path fill="#040404" opacity="1.00" d=" M 289.94 121.25 C 293.27 121.34 296.15 123.01 298.95 124.63 C 301.33 123.41 303.93 122.93 306.56 123.59 C 311.20 129.75 312.56 137.47 314.31 144.78 C 310.54 142.98 310.09 138.60 308.69 135.15 C 304.82 127.72 294.23 127.99 289.94 121.25 M 303.32 125.42 C 303.34 125.83 303.40 126.66 303.42 127.08 C 305.90 128.95 305.71 123.73 303.32 125.42 Z" />
<path fill="#c96766" opacity="1.00" d=" M 405.02 124.21 C 405.77 123.41 406.53 122.62 407.30 121.83 C 409.65 124.36 412.31 126.65 414.01 129.72 C 413.35 130.52 412.68 131.33 412.03 132.13 C 407.42 130.00 403.13 127.29 398.58 125.05 C 399.04 124.65 399.96 123.84 400.42 123.44 C 401.95 123.69 403.48 123.95 405.02 124.21 Z" />
<path fill="#ffdcd8" opacity="1.00" d=" M 80.83 134.18 C 85.06 129.96 90.24 126.87 94.70 122.91 C 96.12 123.75 97.49 124.70 98.74 125.78 C 97.55 128.20 97.47 130.91 97.38 133.55 C 100.16 133.64 103.06 133.69 105.58 132.32 C 105.10 136.91 97.22 137.69 94.85 134.02 C 94.59 131.68 94.73 129.33 94.74 126.99 C 89.41 127.98 85.97 132.84 80.83 134.18 Z" />
<path fill="#992625" opacity="1.00" d=" M 99.82 131.05 C 101.14 127.71 103.72 125.18 106.30 122.79 C 106.77 123.69 107.26 124.58 107.76 125.47 C 105.72 128.04 103.65 131.61 99.82 131.05 Z" />
<path fill="#fcb7b3" opacity="1.00" d=" M 72.48 123.86 C 72.82 123.95 73.51 124.11 73.85 124.19 C 75.38 126.13 72.44 126.87 71.35 128.04 C 67.29 130.98 66.89 136.37 68.73 140.71 C 68.37 140.79 67.65 140.95 67.30 141.04 C 66.17 140.21 64.97 139.38 64.24 138.16 C 63.60 132.22 67.72 126.91 72.48 123.86 Z" />
<path fill="#e4b2b6" opacity="1.00" d=" M 303.32 125.42 C 305.71 123.73 305.90 128.95 303.42 127.08 C 303.40 126.66 303.34 125.83 303.32 125.42 Z" />
<path fill="#060606" opacity="1.00" d=" M 266.15 126.35 C 267.21 127.23 268.19 128.23 268.92 129.42 C 267.69 129.46 266.45 129.49 265.22 129.50 C 265.51 128.44 265.82 127.39 266.15 126.35 Z" />
<path fill="#e1a6a6" opacity="1.00" d=" M 393.42 127.61 C 394.70 127.30 395.98 126.98 397.26 126.67 C 402.15 129.25 407.27 131.35 412.25 133.74 C 405.83 132.44 398.99 131.16 393.42 127.61 Z" />
<path fill="#c76968" opacity="1.00" d=" M 71.35 128.04 C 71.88 128.10 72.93 128.23 73.46 128.30 C 73.29 131.00 73.43 133.72 73.98 136.38 C 72.43 137.44 70.95 138.62 69.59 139.91 L 68.73 140.71 C 66.89 136.37 67.29 130.98 71.35 128.04 Z" />
<path fill="#060606" opacity="1.00" d=" M 292.92 129.92 C 296.48 131.13 300.10 133.70 300.59 137.71 C 297.05 136.39 293.26 134.09 292.92 129.92 Z" />
<path fill="#ab6e72" opacity="1.00" d=" M 62.56 140.40 C 60.16 138.65 61.24 134.26 63.35 132.48 C 63.34 135.11 64.24 138.08 62.56 140.40 Z" />
<path fill="#030303" opacity="1.00" d=" M 154.47 133.20 C 154.99 133.26 156.04 133.40 156.56 133.46 C 156.90 136.25 155.85 138.82 154.55 141.22 C 155.61 142.32 156.69 143.40 157.74 144.52 C 156.07 144.66 153.79 145.20 152.95 143.27 C 151.46 139.97 153.41 136.36 154.47 133.20 Z" />
<path fill="#e4b2b6" opacity="1.00" d=" M 27.46 150.37 C 31.04 147.83 35.09 145.48 39.57 145.19 C 41.95 149.84 39.90 154.44 37.71 158.64 C 36.46 165.80 31.69 171.73 26.32 176.37 C 21.03 180.71 10.94 175.65 13.59 168.43 C 18.36 162.53 22.38 156.02 27.46 150.37 M 26.13 155.14 C 24.96 158.16 22.70 160.52 20.62 162.93 L 21.08 161.98 C 17.65 164.49 13.74 169.12 16.33 173.51 C 18.05 177.36 23.29 176.63 25.96 174.24 C 28.33 172.43 31.24 170.64 32.23 167.69 C 36.71 161.70 38.66 153.67 38.52 146.23 C 35.09 150.32 27.93 149.60 26.13 155.14 Z" />
<path fill="#060606" opacity="1.00" d=" M 286.02 145.32 C 288.98 144.79 291.15 147.06 293.27 148.72 C 299.38 153.67 302.76 161.09 305.23 168.37 C 300.74 166.21 299.18 161.14 297.00 157.00 C 294.68 151.95 289.11 149.76 286.02 145.32 Z" />
<path fill="#070707" opacity="1.00" d=" M 184.87 146.53 C 185.20 146.64 185.85 146.85 186.18 146.96 C 186.71 151.56 182.67 154.94 179.12 157.06 C 179.23 152.78 183.00 150.07 184.87 146.53 Z" />
<path fill="#851312" opacity="1.00" d=" M 26.13 155.14 C 27.93 149.60 35.09 150.32 38.52 146.23 C 38.66 153.67 36.71 161.70 32.23 167.69 C 32.39 166.21 32.53 164.72 32.68 163.24 C 30.93 164.44 29.39 166.53 27.13 166.58 C 25.54 165.74 25.18 163.64 24.24 162.22 C 23.04 164.50 21.85 166.80 20.89 169.20 L 20.46 170.37 C 19.87 168.63 19.64 166.80 19.65 164.97 C 19.89 164.46 20.38 163.44 20.62 162.93 C 22.70 160.52 24.96 158.16 26.13 155.14 Z" />
<path fill="#070707" opacity="1.00" d=" M 212.90 162.03 C 216.55 155.89 221.43 149.21 229.03 148.09 C 228.77 150.51 226.14 151.13 224.51 152.45 C 220.57 155.32 217.03 158.84 214.28 162.87 C 213.29 167.52 215.87 171.67 216.60 176.11 C 214.63 178.52 212.91 174.85 212.68 173.04 C 212.56 169.40 212.08 165.58 212.90 162.03 Z" />
<path fill="#cc8586" opacity="1.00" d=" M 67.50 166.35 C 67.18 162.76 66.46 156.72 71.43 156.23 C 70.29 159.77 69.28 163.45 69.69 167.22 C 69.14 167.00 68.05 166.57 67.50 166.35 Z" />
<path fill="#8f2f35" opacity="1.00" d=" M 71.43 156.23 C 74.31 156.41 77.24 155.29 80.04 156.24 C 79.32 156.90 78.51 157.34 77.58 157.55 C 77.26 157.55 76.62 157.55 76.29 157.55 C 75.86 157.54 74.99 157.53 74.56 157.52 C 72.38 159.48 70.52 161.83 70.48 164.91 C 71.31 164.41 72.14 163.92 72.97 163.43 C 73.33 164.42 73.67 165.42 74.00 166.42 L 73.73 166.96 C 73.28 168.84 69.65 169.84 69.69 167.22 C 69.28 163.45 70.29 159.77 71.43 156.23 Z" />
<path fill="#8c1b17" opacity="1.00" d=" M 74.56 157.52 C 74.99 157.53 75.86 157.54 76.29 157.55 C 76.24 160.65 75.68 163.76 74.00 166.42 C 73.67 165.42 73.33 164.42 72.97 163.43 C 72.14 163.92 71.31 164.41 70.48 164.91 C 70.52 161.83 72.38 159.48 74.56 157.52 Z" />
<path fill="#cd898a" opacity="1.00" d=" M 76.29 157.55 C 76.62 157.55 77.26 157.55 77.58 157.55 C 78.69 160.06 78.99 162.89 78.53 165.60 C 77.33 166.88 75.29 166.52 73.73 166.96 L 74.00 166.42 C 75.68 163.76 76.24 160.65 76.29 157.55 Z" />
<path fill="#848484" opacity="1.00" d=" M 243.05 160.27 C 245.98 158.51 249.63 158.53 252.95 158.20 C 260.75 158.21 268.85 158.21 276.23 161.02 C 265.28 159.03 254.01 157.36 243.05 160.27 Z" />
<path fill="#050505" opacity="1.00" d=" M 243.05 160.27 C 254.01 157.36 265.28 159.03 276.23 161.02 C 279.40 161.67 282.58 162.40 285.59 163.62 C 288.22 167.22 290.20 171.39 290.62 175.87 C 285.09 175.02 286.50 167.13 281.27 166.17 C 270.66 163.90 259.88 159.20 248.89 161.96 C 240.66 163.87 236.97 172.75 229.34 175.72 C 229.36 174.51 229.30 173.20 230.41 172.42 C 232.33 170.74 232.76 168.16 233.98 166.04 C 236.17 163.09 239.64 161.40 243.05 160.27 Z" />
<path fill="#c8656a" opacity="1.00" d=" M 16.33 173.51 C 13.74 169.12 17.65 164.49 21.08 161.98 L 20.62 162.93 C 20.38 163.44 19.89 164.46 19.65 164.97 C 18.59 167.59 18.20 170.77 19.67 173.31 C 21.47 174.62 23.88 174.11 25.96 174.24 C 23.29 176.63 18.05 177.36 16.33 173.51 Z" />
<path fill="#a32f30" opacity="1.00" d=" M 20.89 169.20 C 21.85 166.80 23.04 164.50 24.24 162.22 C 25.18 163.64 25.54 165.74 27.13 166.58 C 29.39 166.53 30.93 164.44 32.68 163.24 C 32.53 164.72 32.39 166.21 32.23 167.69 C 31.24 170.64 28.33 172.43 25.96 174.24 C 23.88 174.11 21.47 174.62 19.67 173.31 C 18.20 170.77 18.59 167.59 19.65 164.97 C 19.64 166.80 19.87 168.63 20.46 170.37 C 22.40 173.39 27.38 171.92 28.53 168.80 C 25.98 168.87 23.43 169.02 20.89 169.20 Z" />
<path fill="#0d0d0d" opacity="1.00" d=" M 249.28 168.45 C 255.06 166.56 261.07 168.82 266.59 170.56 C 267.43 172.20 265.11 172.33 264.05 172.65 C 259.27 171.53 254.55 169.35 249.53 170.50 C 249.47 169.99 249.35 168.96 249.28 168.45 Z" />
<path fill="#ce5856" opacity="1.00" d=" M 20.89 169.20 C 23.43 169.02 25.98 168.87 28.53 168.80 C 27.38 171.92 22.40 173.39 20.46 170.37 L 20.89 169.20 Z" />
<path fill="#fdfdfd" opacity="1.00" d=" M 162.40 189.81 C 162.93 188.24 164.83 187.71 166.32 187.95 C 179.45 189.02 192.86 189.20 205.55 193.16 C 211.29 194.87 215.42 199.76 221.30 201.19 C 221.49 205.39 224.52 208.89 224.28 213.14 C 222.90 213.92 221.47 214.60 219.85 214.59 C 219.88 210.79 219.89 206.99 219.80 203.19 C 211.92 201.72 209.13 211.22 201.98 211.85 C 202.45 207.97 205.19 204.77 205.38 200.84 C 204.68 199.19 202.54 198.81 200.99 198.40 C 195.49 198.47 191.22 202.37 187.06 205.46 C 179.09 204.26 171.72 200.63 164.02 198.38 C 163.83 195.45 162.58 192.72 162.40 189.81 Z" />
<path fill="#fcfcfc" opacity="1.00" d=" M 259.65 192.77 C 263.64 193.21 269.93 192.78 270.77 197.97 C 270.46 203.02 266.50 206.70 263.02 209.94 C 257.30 215.41 249.10 216.94 243.04 221.94 C 240.01 219.84 236.71 217.66 232.84 218.55 C 235.68 204.63 254.10 204.82 259.65 192.77 Z" />
<path fill="#fcfcfc" opacity="1.00" d=" M 328.55 194.81 C 332.17 192.49 336.76 193.38 340.32 195.34 C 338.66 203.68 334.22 212.21 326.31 216.04 C 321.53 216.47 317.17 213.38 312.36 214.15 C 311.90 210.53 315.49 208.76 317.73 206.65 C 321.95 203.27 324.09 197.91 328.55 194.81 Z" />
<path fill="#f9f9f9" opacity="1.00" d=" M 282.28 209.35 C 285.43 209.29 288.58 209.30 291.74 209.39 C 291.60 209.83 291.31 210.71 291.17 211.15 C 288.32 212.09 285.43 212.92 282.54 213.74 C 282.44 212.27 282.35 210.81 282.28 209.35 Z" />
<path fill="#737373" opacity="1.00" d=" M 167.86 247.16 C 166.01 240.66 165.78 232.82 169.17 226.82 C 167.62 233.18 165.71 240.51 168.88 246.65 C 169.36 245.38 169.80 244.09 170.21 242.80 C 170.32 244.43 170.38 246.06 170.45 247.69 C 169.58 247.51 168.72 247.33 167.86 247.16 Z" />
<path fill="#020202" opacity="1.00" d=" M 128.97 265.65 C 132.80 265.32 136.65 265.45 140.49 265.49 C 140.54 275.33 140.41 285.18 140.56 295.02 C 137.97 295.23 135.38 295.26 132.78 295.20 C 132.54 290.41 132.67 285.62 132.54 280.84 C 129.33 284.59 131.87 291.16 129.07 295.15 C 127.60 295.01 125.55 295.87 124.42 294.74 C 123.14 290.07 123.54 285.09 121.95 280.49 C 120.95 285.30 121.61 290.27 121.29 295.15 C 118.72 295.20 116.15 295.22 113.58 295.21 C 113.54 285.29 113.57 275.37 113.57 265.46 C 117.27 265.46 120.97 265.46 124.67 265.46 C 125.55 269.89 126.20 274.37 126.93 278.83 C 128.02 274.51 128.73 270.10 128.97 265.65 Z" />
<path fill="#020202" opacity="1.00" d=" M 151.08 264.88 C 155.77 264.07 162.10 265.61 163.21 270.96 C 163.72 276.62 163.54 282.32 163.39 287.99 C 163.20 297.91 146.19 298.73 143.67 289.84 C 143.28 283.89 143.35 277.91 143.57 271.96 C 143.66 267.99 147.41 265.30 151.08 264.88 M 152.34 270.16 C 152.11 277.02 152.11 283.89 152.36 290.74 C 152.91 290.73 154.01 290.71 154.56 290.70 C 154.96 283.85 154.84 276.98 154.64 270.12 C 154.06 270.13 152.91 270.15 152.34 270.16 Z" />
<path fill="#020202" opacity="1.00" d=" M 165.45 266.06 C 168.79 264.77 172.50 265.75 176.00 265.46 C 178.35 265.69 181.02 264.79 183.15 266.08 C 177.26 266.47 171.34 266.47 165.45 266.06 Z" />
<path fill="#020202" opacity="1.00" d=" M 185.69 266.01 C 188.39 265.14 191.66 264.98 194.31 266.07 C 191.44 266.28 188.55 266.31 185.69 266.01 Z" />
<path fill="#010101" opacity="1.00" d=" M 197.21 265.43 C 200.07 265.47 202.92 265.46 205.78 265.44 C 205.80 275.37 205.89 285.30 205.74 295.23 C 202.92 295.20 200.10 295.21 197.28 295.23 C 197.16 291.06 197.26 286.90 197.17 282.73 C 196.52 282.85 195.20 283.08 194.55 283.20 C 194.67 287.20 194.65 291.21 194.60 295.22 C 191.67 295.20 188.74 295.21 185.81 295.20 C 185.69 285.47 185.92 275.73 185.69 266.01 C 188.55 266.31 191.44 266.28 194.31 266.07 L 194.69 266.05 C 194.66 269.60 194.55 273.15 194.64 276.71 C 195.27 276.67 196.53 276.61 197.16 276.58 C 197.33 272.86 197.17 269.15 197.21 265.43 Z" />
<path fill="#020202" opacity="1.00" d=" M 209.45 265.45 C 214.13 265.53 218.82 265.32 223.50 265.51 C 224.89 266.86 223.76 269.47 224.08 271.29 C 222.15 271.29 220.22 271.29 218.30 271.30 C 218.27 273.13 218.25 274.95 218.23 276.78 C 220.01 276.97 221.80 277.15 223.60 277.34 C 223.58 279.12 223.58 280.91 223.60 282.70 C 221.82 282.79 220.05 282.87 218.28 282.96 C 218.26 285.06 218.25 287.15 218.22 289.26 C 220.35 289.37 222.48 289.40 224.62 289.40 C 224.63 291.28 224.64 293.16 224.66 295.04 C 219.57 295.33 214.45 295.31 209.36 295.05 C 209.49 285.18 209.33 275.32 209.45 265.45 Z" />
<path fill="#030303" opacity="1.00" d=" M 227.44 265.38 C 232.80 265.89 238.51 264.51 243.64 266.53 C 247.70 268.82 246.83 274.26 246.21 278.11 C 244.89 278.66 243.56 279.18 242.18 279.49 C 244.01 280.08 246.33 280.85 246.55 283.11 C 246.97 287.15 246.68 291.22 246.66 295.27 C 243.99 295.21 241.31 295.19 238.64 295.17 C 238.48 290.70 238.72 286.21 238.37 281.75 C 237.84 281.62 236.80 281.36 236.27 281.22 C 235.90 285.76 236.63 290.40 235.90 294.88 C 233.11 295.66 230.13 295.08 227.28 295.08 C 227.39 285.18 227.10 275.27 227.44 265.38 M 236.35 270.12 C 236.11 272.59 236.13 275.08 236.44 277.55 C 237.11 277.22 237.79 276.89 238.47 276.57 C 238.46 274.22 239.54 270.74 236.35 270.12 Z" />
<path fill="#010101" opacity="1.00" d=" M 265.06 264.83 C 269.63 264.17 275.86 265.68 276.93 270.90 C 277.74 276.54 277.28 282.32 277.24 288.02 C 276.83 297.78 260.02 298.82 257.48 289.88 C 257.08 283.90 257.22 277.88 257.37 271.90 C 257.36 267.87 261.43 265.25 265.06 264.83 M 265.68 276.00 C 265.91 280.92 265.19 285.92 266.19 290.79 C 266.74 290.74 267.86 290.64 268.41 290.59 C 268.72 283.78 268.66 276.95 268.46 270.14 C 264.77 269.32 265.80 273.72 265.68 276.00 Z" />
<path fill="#020202" opacity="1.00" d=" M 280.26 265.40 C 285.06 265.49 289.86 265.47 294.66 265.42 C 294.72 267.33 294.76 269.23 294.81 271.14 C 292.74 271.25 290.68 271.32 288.63 271.52 C 288.85 273.24 288.34 275.17 289.11 276.79 C 290.84 277.11 292.61 277.18 294.37 277.31 C 294.35 279.11 294.36 280.92 294.39 282.73 C 292.50 282.79 290.62 282.84 288.74 282.89 C 288.75 286.97 288.73 291.04 288.76 295.12 C 285.91 295.23 283.06 295.24 280.21 295.17 C 280.18 285.24 280.12 275.32 280.26 265.40 Z" />
<path fill="#020202" opacity="1.00" d=" M 304.79 269.52 C 308.17 263.66 316.86 263.42 321.93 267.12 C 324.73 269.32 324.45 273.18 324.52 276.37 C 321.67 276.15 318.61 276.87 315.88 276.03 C 315.69 274.09 315.69 272.14 315.62 270.20 C 315.02 270.19 313.82 270.16 313.22 270.15 C 312.48 276.97 312.40 283.97 313.44 290.76 C 314.00 290.75 315.12 290.72 315.68 290.71 C 315.78 288.54 315.84 286.37 315.80 284.21 C 314.36 282.90 314.14 281.11 314.36 279.26 C 317.74 279.22 321.12 279.23 324.51 279.33 C 324.46 284.62 324.49 289.92 324.45 295.21 C 322.16 295.14 319.37 295.91 318.00 293.50 C 313.96 298.22 304.69 295.36 304.46 289.03 C 304.38 282.54 303.97 275.97 304.79 269.52 Z" />
<path fill="#010101" opacity="1.00" d=" M 335.12 264.96 C 339.66 264.08 345.70 265.27 347.43 270.13 C 347.99 276.85 347.97 283.68 347.46 290.40 C 344.68 297.60 332.63 297.76 328.74 291.49 C 327.02 285.64 327.98 279.39 327.87 273.37 C 327.65 269.15 330.98 265.43 335.12 264.96 M 336.83 269.64 C 336.16 276.65 336.44 283.74 336.68 290.77 C 337.76 290.69 339.64 290.76 339.28 289.07 C 339.38 283.13 339.42 277.18 339.27 271.24 C 339.54 269.79 337.77 269.86 336.83 269.64 Z" />
<path fill="#020202" opacity="1.00" d=" M 350.70 265.61 C 355.40 265.41 360.13 265.23 364.82 265.76 C 367.47 266.17 370.74 267.74 370.67 270.87 C 371.40 277.83 371.45 284.94 370.47 291.87 C 369.96 294.31 367.07 294.73 365.04 295.07 C 360.29 295.44 355.52 295.10 350.77 295.20 C 350.69 285.33 350.81 275.47 350.70 265.61 M 359.65 270.25 C 359.55 276.98 359.52 283.71 359.68 290.44 C 361.33 290.07 362.65 288.89 362.24 287.07 C 362.25 282.36 362.25 277.65 362.24 272.94 C 362.25 271.33 361.38 270.44 359.65 270.25 Z" />
<path fill="#020202" opacity="1.00" d=" M 165.65 270.93 C 164.08 270.49 164.13 266.72 165.45 266.06 C 165.97 267.63 166.06 269.32 165.65 270.93 Z" />
<path fill="#010101" opacity="1.00" d=" M 165.45 266.06 C 171.34 266.47 177.26 266.47 183.15 266.08 C 182.44 267.62 182.45 269.38 183.03 270.96 C 181.54 271.19 180.06 271.38 178.57 271.58 C 178.76 279.40 178.55 287.22 178.69 295.04 C 175.85 295.25 173.01 295.25 170.18 295.15 C 170.03 287.24 170.51 279.31 169.92 271.42 C 168.49 271.29 167.06 271.13 165.65 270.93 C 166.06 269.32 165.97 267.63 165.45 266.06 Z" />
<path fill="#020202" opacity="1.00" d=" M 183.15 266.08 L 183.51 266.10 C 184.01 267.44 184.51 270.30 183.03 270.96 C 182.45 269.38 182.44 267.62 183.15 266.08 Z" />
<path fill="#f7f7f7" opacity="1.00" d=" M 336.83 269.64 C 337.77 269.86 339.54 269.79 339.27 271.24 C 339.42 277.18 339.38 283.13 339.28 289.07 C 339.64 290.76 337.76 290.69 336.68 290.77 C 336.44 283.74 336.16 276.65 336.83 269.64 Z" />
<path fill="#fdfdfd" opacity="1.00" d=" M 152.34 270.16 C 152.91 270.15 154.06 270.13 154.64 270.12 C 154.84 276.98 154.96 283.85 154.56 290.70 C 154.01 290.71 152.91 290.73 152.36 290.74 C 152.11 283.89 152.11 277.02 152.34 270.16 Z" />
<path fill="#fafafa" opacity="1.00" d=" M 236.35 270.12 C 239.54 270.74 238.46 274.22 238.47 276.57 C 237.79 276.89 237.11 277.22 236.44 277.55 C 236.13 275.08 236.11 272.59 236.35 270.12 Z" />
<path fill="#fdfdfd" opacity="1.00" d=" M 265.68 276.00 C 265.80 273.72 264.77 269.32 268.46 270.14 C 268.66 276.95 268.72 283.78 268.41 290.59 C 267.86 290.64 266.74 290.74 266.19 290.79 C 265.19 285.92 265.91 280.92 265.68 276.00 Z" />
<path fill="#f6f6f6" opacity="1.00" d=" M 359.65 270.25 C 361.38 270.44 362.25 271.33 362.24 272.94 C 362.25 277.65 362.25 282.36 362.24 287.07 C 362.65 288.89 361.33 290.07 359.68 290.44 C 359.52 283.71 359.55 276.98 359.65 270.25 Z" />
</svg>
