<?xml version="1.0" encoding="UTF-8" ?>
<!DOCTYPE svg PUBLIC "-//W3C//DTD SVG 1.1//EN" "http://www.w3.org/Graphics/SVG/1.1/DTD/svg11.dtd">
<svg width="904pt" height="503pt" viewBox="0 0 904 503" version="1.1" xmlns="http://www.w3.org/2000/svg">
<g id="#000000ff">
<path fill="#000000" opacity="1.00" d=" M 210.08 15.71 C 234.72 10.31 259.76 6.27 285.02 5.72 C 297.64 5.56 310.44 6.05 322.71 9.27 C 327.26 10.41 332.38 10.75 336.03 14.03 C 338.48 16.22 338.09 20.12 340.58 22.29 C 343.94 25.44 347.96 27.78 351.92 30.09 C 354.12 31.28 356.34 32.81 358.96 32.73 C 364.10 32.82 369.25 32.66 374.40 32.75 C 371.83 40.14 369.03 47.44 366.55 54.86 C 370.82 54.48 375.10 54.72 379.36 55.14 C 373.57 60.42 367.95 65.90 362.79 71.80 C 360.40 76.87 362.70 83.47 358.80 87.99 C 353.13 95.74 357.16 105.46 358.87 113.82 C 356.17 116.32 353.04 118.39 350.65 121.21 C 349.52 125.33 350.11 129.73 348.94 133.84 C 345.62 140.28 340.62 145.72 337.44 152.25 C 334.49 153.53 331.86 155.75 330.96 158.95 C 329.58 163.24 327.18 167.06 324.83 170.86 C 335.80 169.89 345.59 164.54 355.71 160.69 C 370.10 155.44 385.59 150.82 401.03 153.31 C 405.68 153.83 409.42 156.75 413.58 158.56 C 422.27 161.49 431.01 164.31 439.93 166.47 C 442.14 166.88 444.49 167.68 446.70 166.81 C 474.71 157.04 505.40 158.35 533.04 147.22 C 537.85 145.03 544.08 142.46 544.56 136.38 C 557.34 136.11 569.45 131.44 581.46 127.52 C 618.15 114.46 653.75 98.55 689.12 82.32 C 694.19 80.57 699.65 80.65 704.94 80.91 C 715.74 72.08 726.37 63.05 737.21 54.28 C 740.05 52.15 741.53 48.62 744.63 46.80 C 748.66 44.40 753.29 43.32 757.85 42.45 C 769.63 40.42 781.65 40.33 793.57 40.64 C 799.10 40.67 804.37 42.82 809.92 42.71 C 832.29 43.33 854.64 41.38 876.92 39.64 C 881.79 39.40 887.04 37.78 891.59 40.36 C 896.35 42.19 901.64 46.91 899.33 52.55 C 896.04 59.88 888.78 64.53 881.98 68.27 C 875.48 68.33 868.91 66.99 862.44 68.25 C 859.44 69.05 857.07 71.34 853.99 71.91 C 845.10 73.77 835.97 73.95 826.93 74.24 C 826.93 76.75 826.96 79.27 827.02 81.79 C 829.85 83.56 832.78 85.53 834.27 88.64 C 837.72 95.51 836.85 103.58 835.38 110.86 C 833.84 117.68 832.88 125.36 827.48 130.39 C 821.87 135.84 813.69 136.76 806.25 137.01 C 803.95 141.94 800.63 147.30 794.92 148.56 C 788.49 149.82 782.50 146.09 777.63 142.33 C 770.63 146.13 763.20 149.04 755.70 151.64 C 753.49 152.08 752.99 154.48 752.24 156.23 C 747.10 170.43 741.46 184.46 737.09 198.92 C 735.90 202.59 732.52 205.34 728.96 206.53 C 717.35 207.14 706.25 210.88 695.13 213.94 C 674.85 219.95 654.70 226.43 634.82 233.66 C 628.31 236.60 621.35 238.29 614.56 240.48 C 591.83 247.52 569.15 254.77 546.60 262.39 C 515.83 272.94 485.02 283.67 455.48 297.39 C 447.46 301.42 438.95 305.06 432.47 311.44 C 429.09 314.10 425.15 316.02 422.17 319.20 C 410.39 330.80 403.74 346.43 398.47 361.83 C 391.10 384.57 386.85 408.26 384.94 432.06 C 383.84 436.14 381.98 440.02 381.35 444.24 C 377.80 463.64 379.35 483.51 381.19 503.00 L 379.18 503.00 C 377.32 483.14 375.74 462.87 379.53 443.14 C 380.17 438.96 382.22 435.18 382.98 431.06 C 384.91 408.26 388.95 385.57 395.75 363.71 C 400.96 347.78 407.58 331.69 419.22 319.31 C 423.67 314.24 429.97 311.46 434.72 306.73 C 447.44 297.94 461.97 292.21 476.13 286.16 C 523.08 267.16 571.40 251.80 619.75 236.79 C 626.81 234.88 633.49 231.85 640.41 229.50 C 659.09 222.97 677.93 216.86 696.93 211.33 C 704.87 209.08 712.82 206.82 720.94 205.32 C 705.77 194.67 691.89 181.87 681.52 166.42 C 674.22 155.47 668.40 143.21 666.43 130.10 C 665.53 120.91 666.46 111.16 671.01 102.96 C 675.15 95.55 682.80 90.40 691.12 88.92 C 695.48 88.52 698.21 84.69 701.76 82.58 C 697.87 82.87 693.89 82.86 690.15 84.09 C 655.26 100.01 620.20 115.74 584.07 128.72 C 571.87 132.85 559.57 137.37 546.64 138.43 C 544.25 145.40 536.50 147.21 531.09 151.05 C 530.57 150.86 529.53 150.47 529.02 150.28 C 529.49 150.58 530.43 151.17 530.90 151.47 C 519.80 159.11 509.37 167.71 498.11 175.11 C 501.80 168.66 506.92 163.07 509.74 156.12 C 488.56 160.71 466.41 161.50 446.03 169.35 C 434.69 168.21 423.97 163.83 413.11 160.56 C 409.70 159.72 407.20 156.97 403.83 156.06 C 397.24 154.11 390.23 154.36 383.49 155.24 C 369.14 157.26 355.53 162.56 342.37 168.41 C 335.53 170.67 328.34 173.79 321.00 172.24 C 316.39 171.70 311.73 172.13 307.10 171.90 C 307.44 175.62 308.29 179.36 307.75 183.11 C 306.43 192.77 305.44 202.46 304.16 212.12 C 306.29 212.11 308.42 212.11 310.55 212.11 C 311.10 205.62 312.09 199.18 312.33 192.67 C 314.63 192.52 316.88 192.06 319.10 191.45 C 337.97 186.46 356.39 179.79 374.16 171.72 C 388.67 181.07 401.90 192.84 411.50 207.28 C 417.57 201.05 424.03 195.21 429.79 188.68 C 431.35 187.00 432.42 184.95 433.35 182.87 C 436.45 181.89 439.22 184.15 439.74 187.17 C 440.67 194.35 443.14 201.56 447.99 207.06 C 450.38 209.52 453.40 211.71 456.92 212.00 C 463.01 212.94 468.80 209.99 473.74 206.74 C 496.03 191.63 518.07 176.13 540.93 161.88 C 546.85 158.04 553.30 155.16 559.71 152.27 C 557.85 158.79 554.86 165.11 550.13 170.05 C 547.47 172.71 543.56 174.40 542.31 178.22 C 542.76 180.83 545.84 181.14 547.96 180.97 C 554.74 180.50 561.11 177.86 567.27 175.16 C 592.75 164.17 618.45 153.61 643.37 141.37 C 646.80 139.98 649.20 136.45 653.09 136.20 C 655.02 136.43 657.27 136.97 658.10 138.97 C 664.98 152.21 671.65 165.64 680.03 178.02 C 681.67 180.90 686.44 182.71 684.78 186.68 C 682.44 189.56 678.52 189.89 675.36 191.40 C 657.53 199.57 640.07 208.53 622.81 217.83 C 609.20 225.34 595.50 232.74 582.55 241.35 C 581.78 242.88 581.03 244.55 579.44 245.40 C 573.19 249.29 565.61 249.89 558.47 250.71 C 549.80 251.27 541.38 253.53 532.93 255.37 C 501.67 262.81 471.00 272.56 440.84 283.57 C 438.29 284.50 435.34 284.40 433.11 286.13 C 427.33 290.27 422.22 295.25 417.15 300.20 C 402.55 314.57 388.78 329.74 375.16 345.03 C 368.58 354.17 363.07 364.17 355.33 372.45 C 352.47 375.67 349.27 378.71 345.28 380.48 C 343.74 383.74 343.18 387.29 343.53 390.87 C 340.50 410.22 337.69 429.61 334.37 448.92 C 330.47 466.71 328.55 484.87 326.96 503.00 L 262.97 503.00 C 261.86 458.10 260.78 413.20 259.65 368.30 L 257.67 368.36 C 258.76 413.24 259.87 458.12 260.96 503.00 L 112.67 503.00 C 112.85 492.77 113.21 482.52 113.22 472.30 C 113.00 472.31 112.56 472.35 112.35 472.36 C 110.74 474.92 111.25 478.15 110.80 481.03 C 109.78 488.38 108.24 495.65 107.13 503.00 L 105.09 503.00 C 106.40 494.89 107.90 486.80 108.79 478.63 C 104.34 486.71 100.14 494.93 95.66 503.00 L 93.39 503.00 C 99.77 491.39 105.86 479.62 112.19 467.99 L 112.62 468.67 L 112.93 469.37 C 113.12 469.44 113.49 469.58 113.68 469.65 C 114.26 461.13 113.67 452.54 114.23 444.01 C 114.45 441.24 114.36 438.46 113.89 435.73 C 110.05 435.56 108.13 439.32 106.14 441.97 C 102.68 446.27 104.06 453.00 99.63 456.66 C 96.11 458.93 94.40 462.90 92.40 466.40 C 86.23 478.11 80.99 490.33 77.17 503.00 L 15.30 503.00 C 21.34 491.21 27.46 478.63 27.03 465.04 C 27.14 461.27 26.33 457.54 24.83 454.09 C 30.55 453.10 35.93 450.01 39.02 445.00 C 43.44 438.00 44.68 429.44 44.09 421.32 C 45.77 419.61 47.92 418.31 48.94 416.05 C 55.97 403.51 63.34 390.55 65.12 376.04 C 65.83 372.35 69.11 369.95 70.60 366.60 C 76.85 354.44 82.27 341.84 86.76 328.92 C 88.78 322.70 90.91 316.33 90.76 309.71 C 99.43 297.79 107.62 283.80 106.22 268.51 C 109.42 264.33 111.66 259.41 112.24 254.15 C 112.82 248.82 115.85 244.26 118.89 240.01 C 122.69 235.15 126.79 230.51 131.23 226.22 C 133.26 224.17 136.25 223.77 138.84 222.78 C 150.38 218.81 161.98 214.94 173.20 210.11 C 174.38 209.45 175.93 209.11 176.72 207.94 C 177.20 204.72 177.48 201.48 178.01 198.27 C 182.52 195.06 186.89 191.66 191.18 188.16 C 186.71 190.56 182.68 193.65 178.48 196.47 C 167.82 203.61 156.99 210.58 145.45 216.24 C 139.93 218.85 134.21 221.46 128.02 221.82 C 123.52 221.93 119.76 224.74 116.52 227.59 C 107.45 236.18 102.25 248.09 99.21 260.02 C 94.74 272.44 91.34 285.39 84.78 296.94 C 83.26 299.95 79.71 301.59 79.01 305.04 C 75.04 318.76 71.67 332.67 67.03 346.20 C 65.91 349.17 64.98 352.37 62.76 354.74 C 56.78 361.08 53.17 369.16 49.90 377.12 C 43.03 394.78 38.74 413.33 35.39 431.94 C 35.25 433.05 34.11 433.58 33.43 434.34 C 29.11 437.83 25.76 442.83 25.19 448.45 C 24.94 450.11 25.11 451.87 24.45 453.45 C 17.31 469.86 10.75 486.52 3.78 503.00 L 1.63 503.00 C 8.38 486.94 14.82 470.74 21.71 454.74 C 23.35 451.35 22.89 447.46 24.12 443.96 C 25.29 440.54 27.29 437.42 29.88 434.90 C 31.53 433.18 33.75 431.62 33.90 429.02 C 36.61 414.07 40.10 399.24 44.94 384.84 C 48.04 375.85 51.58 366.91 56.82 358.93 C 59.15 355.22 62.84 352.37 64.22 348.08 C 69.55 333.38 73.07 318.11 77.48 303.13 C 78.25 299.78 81.99 298.46 83.35 295.42 C 89.11 284.87 92.62 273.30 96.29 261.92 C 99.14 251.29 103.24 240.79 109.88 231.92 C 114.58 225.97 120.87 219.85 128.94 219.63 C 134.69 219.22 139.95 216.60 145.09 214.19 C 158.99 207.23 171.97 198.61 184.69 189.74 C 188.83 186.39 193.98 184.55 197.87 180.87 C 208.16 171.92 213.93 158.96 217.09 145.94 C 220.98 129.56 221.42 112.54 220.18 95.81 C 219.81 91.95 219.60 88.03 218.62 84.27 C 217.27 82.03 214.99 80.59 212.88 79.15 C 202.66 72.76 191.10 69.04 179.89 64.82 C 188.34 64.59 196.79 64.68 205.23 64.21 C 195.67 57.38 185.26 51.81 175.59 45.14 C 188.58 45.40 201.52 47.10 214.51 46.88 C 199.14 40.97 183.66 35.35 168.17 29.75 C 179.20 30.00 190.22 30.84 201.25 30.61 C 188.12 27.57 175.01 24.40 161.88 21.36 C 171.59 20.68 181.36 21.17 191.04 19.87 C 197.55 19.33 203.71 16.99 210.08 15.71 M 299.62 37.01 C 300.31 39.97 303.03 41.60 305.01 43.66 C 299.35 41.39 293.16 39.71 287.03 40.59 C 283.94 41.02 281.16 43.78 281.50 47.04 C 283.30 51.25 285.81 55.21 288.95 58.56 C 286.32 59.20 283.36 59.39 281.11 61.00 C 279.56 62.09 281.15 63.65 281.81 64.70 C 276.87 70.69 272.02 76.89 268.61 83.91 C 268.84 76.26 268.97 67.93 264.85 61.18 C 262.69 57.12 257.19 57.53 253.85 59.79 C 248.94 63.09 243.52 66.68 241.53 72.57 C 237.78 81.56 240.98 91.37 244.38 99.91 C 246.95 105.73 252.64 110.92 259.45 109.66 C 259.67 120.20 259.32 131.10 262.82 141.19 C 261.31 139.99 259.81 138.72 258.97 136.96 C 255.04 129.67 255.29 121.04 255.96 113.03 C 252.34 113.01 247.47 112.22 246.99 107.79 C 244.50 107.30 242.78 109.35 241.07 110.76 C 239.89 109.82 238.57 109.10 237.07 108.85 C 236.03 110.96 235.48 113.25 235.36 115.60 C 233.46 114.77 231.17 113.62 229.34 115.25 C 224.42 119.44 224.37 126.58 221.73 131.96 C 219.54 146.95 215.85 162.50 206.25 174.61 C 206.60 174.50 207.30 174.28 207.66 174.17 C 210.07 177.85 212.77 181.31 215.37 184.85 C 216.76 177.80 218.46 170.82 220.01 163.81 C 220.50 163.89 221.46 164.04 221.95 164.11 C 220.29 171.70 218.65 179.30 216.82 186.85 C 217.62 187.94 218.42 189.04 219.21 190.14 C 224.76 188.90 230.10 186.84 235.60 185.39 C 241.97 183.72 248.36 181.31 255.06 181.89 C 268.61 178.90 281.48 173.46 294.78 169.63 C 294.54 170.16 294.05 171.21 293.80 171.74 C 281.66 176.08 269.43 180.27 256.97 183.58 C 253.71 184.62 250.27 183.46 247.01 184.46 C 238.11 186.54 229.39 189.31 220.66 191.99 C 223.38 208.37 233.16 222.15 239.26 237.28 C 252.04 221.11 265.03 205.08 278.72 189.66 C 284.59 182.71 291.01 176.24 296.65 169.09 C 292.87 166.15 288.75 163.71 284.82 160.99 C 292.28 162.46 299.51 164.92 306.87 166.81 C 312.01 168.10 317.02 170.18 322.41 170.23 C 324.78 166.88 327.74 163.54 328.25 159.31 C 329.11 157.57 329.97 155.80 331.20 154.28 C 332.81 152.17 335.55 151.22 336.86 148.84 C 340.22 143.51 344.16 138.52 347.11 132.95 C 348.04 128.67 347.74 124.21 348.72 119.94 C 351.24 117.49 354.18 115.50 356.58 112.90 C 355.35 107.65 354.06 102.37 353.69 96.97 C 353.42 92.12 356.47 88.05 358.71 84.02 C 359.46 79.42 360.03 74.75 360.18 70.08 C 359.53 64.87 358.52 59.70 357.75 54.51 C 355.68 55.81 353.62 57.13 351.59 58.49 C 347.33 53.11 342.92 47.68 337.26 43.71 C 335.38 42.35 333.37 40.95 330.99 40.75 C 328.74 41.79 329.48 44.76 329.46 46.69 C 321.96 43.08 314.16 40.00 306.11 37.81 C 304.00 37.20 301.80 37.04 299.62 37.01 M 804.07 44.26 C 794.60 41.90 784.77 42.48 775.10 42.70 C 765.60 43.29 755.74 43.80 746.97 47.81 C 743.40 49.21 742.05 53.08 739.11 55.25 C 730.55 62.31 721.99 69.38 713.46 76.48 C 710.09 79.17 707.03 82.34 703.07 84.19 C 700.75 85.88 697.66 87.15 696.67 90.05 C 693.60 90.89 691.88 93.83 689.88 96.07 C 683.59 103.79 680.34 114.28 682.79 124.12 C 686.28 137.22 693.62 149.43 704.13 158.09 C 711.88 155.01 719.83 152.36 727.97 150.48 C 733.53 149.32 739.36 148.13 745.01 149.44 C 749.13 150.47 753.48 149.88 757.46 148.53 C 763.47 146.51 769.29 143.87 774.69 140.54 C 774.72 140.30 774.78 139.82 774.81 139.58 C 763.75 134.56 751.57 132.97 739.67 131.18 L 739.25 129.36 C 747.91 130.04 756.49 131.72 764.90 133.90 C 770.86 135.72 777.34 137.49 781.70 142.24 C 783.27 144.05 785.49 144.99 787.57 146.09 C 788.08 139.04 794.54 134.88 800.09 131.71 C 793.42 114.62 779.58 101.26 764.18 91.81 C 762.83 90.99 761.61 89.99 760.51 88.88 C 762.02 87.22 763.51 85.39 763.83 83.08 C 764.08 81.89 764.26 79.64 766.08 79.99 C 768.68 83.32 767.28 87.94 768.07 91.81 C 770.05 94.17 772.70 91.89 775.06 91.52 C 780.45 90.33 785.70 92.82 789.93 95.97 C 789.57 90.73 787.62 85.22 782.86 82.44 C 782.92 81.94 783.03 80.94 783.09 80.43 C 790.74 83.92 792.74 93.50 791.54 101.09 C 790.96 103.29 794.51 103.76 794.00 106.08 C 793.21 105.81 791.65 105.28 790.87 105.02 C 789.54 105.84 788.39 106.90 787.18 107.85 C 792.23 113.34 796.63 119.45 799.90 126.17 C 808.94 124.94 817.13 117.36 817.54 107.99 C 817.99 104.01 815.56 100.59 814.72 96.85 C 812.74 88.54 811.88 80.02 810.98 71.54 C 808.34 71.57 805.54 71.04 803.07 72.22 C 797.64 74.96 791.37 74.20 785.50 74.68 C 782.37 75.56 780.32 78.55 777.11 79.28 C 778.12 77.22 778.05 74.91 778.17 72.67 C 784.45 72.44 790.77 72.84 797.02 71.98 C 800.23 71.82 802.77 69.27 806.05 69.47 C 812.74 69.56 819.65 69.90 825.99 72.20 C 835.94 71.87 846.22 72.09 855.83 69.19 C 863.08 63.72 872.67 66.27 881.01 66.24 C 884.79 64.99 887.87 62.25 891.00 59.88 C 894.16 57.08 897.85 53.69 897.82 49.12 C 896.69 44.31 891.36 42.10 887.05 40.98 C 859.45 42.59 831.75 46.21 804.07 44.26 M 813.03 71.73 C 813.88 80.02 814.75 88.36 816.69 96.48 C 817.92 100.54 820.24 104.49 819.50 108.90 C 818.68 118.68 810.27 126.40 800.89 128.13 C 801.11 128.79 801.57 130.12 801.80 130.78 C 808.18 127.80 814.87 125.60 821.58 123.49 C 823.87 122.95 824.81 120.54 825.31 118.50 C 828.06 106.96 820.43 96.00 822.61 84.49 C 824.58 81.15 826.03 76.05 822.68 73.12 C 819.52 72.34 816.24 72.17 813.03 71.73 M 825.81 99.90 C 827.79 105.87 828.41 112.30 827.36 118.53 C 826.82 121.33 825.47 124.33 822.69 125.51 C 815.80 127.32 808.90 129.44 802.63 132.85 C 802.82 133.60 803.19 135.08 803.38 135.83 C 807.02 134.00 811.24 135.20 815.11 134.17 C 822.52 133.05 829.64 127.71 830.99 120.03 C 833.40 110.99 836.29 101.33 833.53 92.01 C 832.38 87.95 829.03 85.03 825.30 83.34 C 822.99 88.61 824.86 94.51 825.81 99.90 M 677.71 97.71 C 671.28 103.62 668.64 112.53 668.22 121.02 C 667.38 131.65 670.89 142.02 675.30 151.53 C 682.61 167.04 693.95 180.26 706.59 191.69 C 706.63 191.30 706.72 190.51 706.77 190.11 C 709.86 186.63 713.49 183.01 713.99 178.13 C 710.74 175.08 706.34 179.52 703.11 177.06 C 705.04 174.58 708.32 174.19 711.20 173.65 C 717.55 172.58 723.89 171.48 730.25 170.53 C 725.08 169.82 719.86 168.94 715.04 166.85 C 702.31 161.62 692.50 150.90 686.29 138.82 C 682.66 131.41 679.37 123.37 680.06 114.94 C 680.61 105.63 685.63 97.25 691.89 90.60 C 686.74 91.95 681.59 93.95 677.71 97.71 M 772.18 94.35 C 776.82 98.28 781.54 102.13 785.95 106.33 C 788.70 104.82 789.67 101.96 789.83 98.98 C 785.54 94.06 778.36 91.83 772.18 94.35 M 789.57 146.72 C 796.57 148.17 802.09 142.40 804.26 136.34 C 801.40 139.32 801.51 135.13 800.74 133.78 C 795.63 136.44 789.87 140.36 789.57 146.72 M 705.98 159.42 C 713.23 164.91 722.15 167.88 731.18 168.50 C 735.23 162.76 738.90 156.76 742.95 151.02 C 730.12 150.40 717.90 155.31 705.98 159.42 M 202.73 180.81 C 199.80 193.26 196.63 205.68 194.36 218.27 C 197.72 216.23 199.98 212.83 201.08 209.11 C 202.79 204.34 202.26 198.70 205.72 194.63 C 208.30 191.27 212.65 190.07 216.72 190.05 C 213.05 185.17 209.51 180.21 205.85 175.34 C 204.48 176.96 202.98 178.60 202.73 180.81 M 204.92 201.05 C 204.49 204.64 202.76 208.23 203.73 211.86 C 204.82 216.50 205.63 221.21 206.85 225.82 C 208.45 228.09 211.32 229.13 213.56 230.72 C 218.52 227.02 223.40 223.21 228.46 219.63 C 225.00 211.93 221.27 204.26 219.46 195.95 C 219.03 194.55 218.99 192.02 216.96 192.15 C 211.38 191.48 205.76 195.42 204.92 201.05 M 196.40 219.21 C 195.15 220.06 193.40 220.49 192.93 222.12 C 185.73 237.39 180.41 253.50 176.23 269.84 C 175.69 271.89 175.25 273.98 175.14 276.11 C 183.66 258.86 194.18 242.67 204.90 226.72 C 203.92 222.08 202.94 217.45 201.88 212.84 C 200.42 215.23 198.91 217.78 196.40 219.21 M 215.05 232.07 C 212.37 248.70 210.34 265.44 207.44 282.03 C 217.08 267.38 227.26 253.11 237.90 239.18 C 235.46 233.03 232.56 227.07 229.40 221.26 C 224.67 224.94 219.84 228.49 215.05 232.07 M 175.52 279.62 C 171.19 287.73 171.56 297.16 170.16 306.00 C 169.57 318.87 168.86 331.94 171.35 344.66 C 171.99 344.74 173.28 344.91 173.93 344.99 C 175.52 342.65 176.03 339.75 177.23 337.21 C 184.58 319.70 194.09 303.20 204.20 287.16 C 205.00 285.99 205.22 284.56 205.45 283.20 C 207.90 266.40 210.40 249.61 212.87 232.82 C 210.66 231.28 208.41 229.78 206.12 228.35 C 195.16 244.96 184.26 261.71 175.52 279.62 M 266.59 255.67 C 261.68 256.86 261.68 264.14 266.58 265.33 C 268.23 266.39 270.76 266.42 272.41 265.33 C 277.32 264.14 277.32 256.86 272.41 255.67 C 270.76 254.60 268.24 254.58 266.59 255.67 M 276.89 268.25 C 259.20 281.18 241.38 293.96 223.76 306.99 C 225.13 307.82 226.52 308.64 227.92 309.44 C 244.28 295.76 260.73 282.15 276.89 268.25 M 251.20 327.52 C 253.36 329.37 256.23 330.15 259.04 330.09 C 266.62 330.53 273.96 327.92 280.74 324.80 C 283.78 323.19 287.24 321.93 289.34 319.04 C 287.18 318.92 285.01 318.81 282.87 319.14 C 272.07 320.86 261.34 323.38 251.20 327.52 M 173.66 378.58 C 172.58 380.57 172.57 383.43 173.67 385.42 C 174.26 386.79 175.19 387.99 176.38 388.91 C 178.83 389.81 180.45 387.30 181.34 385.42 C 182.43 383.43 182.41 380.57 181.34 378.58 C 180.73 377.20 179.81 376.00 178.62 375.09 C 176.17 374.18 174.55 376.70 173.66 378.58 M 172.67 449.59 C 171.55 451.56 171.59 454.43 172.66 456.42 C 173.26 457.79 174.19 458.99 175.39 459.91 C 177.83 460.81 179.46 458.30 180.33 456.41 C 181.44 454.44 181.43 451.56 180.34 449.58 C 179.74 448.20 178.81 447.00 177.62 446.09 C 175.17 445.18 173.54 447.70 172.67 449.59 Z" />
<path fill="#000000" opacity="1.00" d=" M 302.35 60.22 C 302.31 58.34 305.97 57.02 307.91 57.45 C 321.04 59.46 331.01 69.34 339.68 78.65 C 341.13 77.43 342.66 76.26 344.37 75.40 C 344.98 78.88 341.96 83.96 337.96 81.81 C 335.22 76.47 330.21 72.89 325.19 69.86 C 317.91 65.93 310.18 62.88 302.35 60.22 Z" />
<path fill="#000000" opacity="1.00" d=" M 252.17 64.11 C 256.41 61.26 262.26 64.87 263.52 69.34 C 265.30 74.90 264.73 81.78 260.21 85.91 C 260.78 90.99 259.62 96.45 261.93 101.19 C 261.88 104.25 254.74 103.25 257.57 99.72 C 254.00 99.29 249.26 98.94 247.65 95.12 C 248.06 91.74 249.69 88.64 252.18 86.33 C 253.33 87.26 254.23 88.41 254.57 89.88 C 253.35 91.21 251.97 92.62 252.28 94.60 C 253.42 94.77 254.57 94.94 255.72 95.10 C 255.93 91.30 257.15 86.84 254.79 83.49 C 251.86 82.21 248.46 82.03 245.86 80.03 C 249.86 76.63 255.90 78.92 258.28 83.17 C 260.11 82.63 262.50 81.48 261.57 79.12 C 260.31 76.25 258.52 73.05 260.29 69.96 C 259.37 68.79 258.62 67.17 257.00 66.87 C 254.03 67.24 253.84 71.27 251.07 71.84 C 249.60 72.41 248.71 71.14 247.99 70.14 C 249.42 68.17 250.00 65.45 252.17 64.11 Z" />
<path fill="#000000" opacity="1.00" d=" M 310.13 75.17 C 314.85 72.28 321.29 71.97 326.01 75.04 C 328.88 76.89 331.64 79.14 333.33 82.16 C 333.17 86.77 330.31 90.77 328.52 94.90 C 328.04 94.68 327.09 94.25 326.61 94.03 C 327.25 92.87 327.91 91.72 328.59 90.58 C 324.13 91.77 319.92 88.81 317.88 85.03 C 318.52 84.06 320.43 83.51 319.91 82.08 C 318.56 80.46 318.17 78.45 318.12 76.40 C 316.07 76.54 314.41 77.59 313.07 79.07 C 312.10 82.34 311.90 85.72 312.21 89.10 C 310.79 89.09 309.19 88.97 308.64 87.41 C 307.07 83.54 306.23 77.99 310.13 75.17 Z" />
<path fill="#000000" opacity="1.00" d=" M 303.43 82.01 C 303.96 82.04 305.04 82.11 305.57 82.15 C 305.45 83.67 305.34 85.19 305.25 86.72 C 304.76 86.74 303.78 86.79 303.30 86.82 C 303.33 85.21 303.38 83.61 303.43 82.01 Z" />
<path fill="#000000" opacity="1.00" d=" M 335.74 84.79 C 336.19 84.64 337.11 84.34 337.57 84.19 C 338.05 86.22 338.65 88.23 339.50 90.14 C 338.04 92.06 336.19 93.62 334.28 95.07 C 334.01 94.65 333.47 93.81 333.20 93.39 C 334.51 92.32 335.80 91.21 337.05 90.07 C 336.58 88.32 336.15 86.55 335.74 84.79 Z" />
<path fill="#000000" opacity="1.00" d=" M 338.09 114.48 C 339.56 114.51 341.04 114.53 342.52 114.55 C 342.53 115.04 342.54 116.02 342.55 116.51 C 341.05 116.53 339.56 116.55 338.07 116.59 C 338.08 116.06 338.08 115.01 338.09 114.48 Z" />
<path fill="#000000" opacity="1.00" d=" M 787.80 119.36 C 788.41 119.62 789.03 119.89 789.66 120.15 C 788.23 123.02 786.80 125.88 785.37 128.74 C 784.76 128.37 784.17 128.01 783.59 127.64 C 785.09 124.93 786.45 122.14 787.80 119.36 Z" />
<path fill="#000000" opacity="1.00" d=" M 305.58 121.71 C 310.59 118.79 316.75 119.02 322.21 120.38 C 330.33 122.37 338.24 125.16 346.09 128.01 C 344.56 129.22 342.93 130.36 341.86 132.02 C 335.40 141.34 329.29 150.92 323.69 160.77 C 315.50 160.75 306.69 159.87 299.91 154.83 C 295.42 151.51 293.41 145.52 294.63 140.11 C 295.72 132.94 299.17 125.56 305.58 121.71 M 310.70 124.92 C 320.90 124.74 330.68 128.58 339.15 134.01 C 339.55 133.26 340.34 131.76 340.73 131.01 C 340.40 129.30 338.50 128.71 337.28 127.74 C 330.95 123.98 323.66 120.12 316.05 121.64 C 313.86 121.91 312.29 123.56 310.70 124.92 M 332.54 132.79 C 331.46 134.16 330.39 135.54 329.32 136.92 C 331.69 137.01 334.06 137.01 336.43 136.86 C 335.57 135.13 334.04 133.94 332.54 132.79 M 300.17 151.30 C 299.16 153.54 302.08 154.64 303.72 155.28 C 309.58 157.17 315.69 158.80 321.87 158.85 C 322.70 157.47 320.94 156.58 320.18 155.75 C 314.58 151.24 307.12 150.14 300.17 151.30 Z" />
<path fill="#000000" opacity="1.00" d=" M 690.87 123.10 C 689.56 122.51 690.78 119.38 691.85 121.23 C 698.78 129.65 709.41 135.18 720.46 134.56 L 720.54 136.57 C 709.19 137.16 698.06 131.76 690.87 123.10 Z" />
</g>
<g id="#ffffffff">
<path fill="#ffffff" opacity="1.00" d=" M 299.62 37.01 C 301.80 37.04 304.00 37.20 306.11 37.81 C 314.16 40.00 321.96 43.08 329.46 46.69 C 329.48 44.76 328.74 41.79 330.99 40.75 C 333.37 40.95 335.38 42.35 337.26 43.71 C 342.92 47.68 347.33 53.11 351.59 58.49 C 353.62 57.13 355.68 55.81 357.75 54.51 C 358.52 59.70 359.53 64.87 360.18 70.08 C 360.03 74.75 359.46 79.42 358.71 84.02 C 356.47 88.05 353.42 92.12 353.69 96.97 C 354.06 102.37 355.35 107.65 356.58 112.90 C 354.18 115.50 351.24 117.49 348.72 119.94 C 347.74 124.21 348.04 128.67 347.11 132.95 C 344.16 138.52 340.22 143.51 336.86 148.84 C 335.55 151.22 332.81 152.17 331.20 154.28 C 329.97 155.80 329.11 157.57 328.25 159.31 C 327.74 163.54 324.78 166.88 322.41 170.23 C 317.02 170.18 312.01 168.10 306.87 166.81 C 299.51 164.92 292.28 162.46 284.82 160.99 C 288.75 163.71 292.87 166.15 296.65 169.09 C 291.01 176.24 284.59 182.71 278.72 189.66 C 265.03 205.08 252.04 221.11 239.26 237.28 C 233.16 222.15 223.38 208.37 220.66 191.99 C 229.39 189.31 238.11 186.54 247.01 184.46 C 250.27 183.46 253.71 184.62 256.97 183.58 C 269.43 180.27 281.66 176.08 293.80 171.74 C 294.05 171.21 294.54 170.16 294.78 169.63 C 281.48 173.46 268.61 178.90 255.06 181.89 C 248.36 181.31 241.97 183.72 235.60 185.39 C 230.10 186.84 224.76 188.90 219.21 190.14 C 218.42 189.04 217.62 187.94 216.82 186.85 C 218.65 179.30 220.29 171.70 221.95 164.11 C 221.46 164.04 220.50 163.89 220.01 163.81 C 218.46 170.82 216.76 177.80 215.37 184.85 C 212.77 181.31 210.07 177.85 207.66 174.17 C 207.30 174.28 206.60 174.50 206.25 174.61 C 215.85 162.50 219.54 146.95 221.73 131.96 C 224.37 126.58 224.42 119.44 229.34 115.25 C 231.17 113.62 233.46 114.77 235.36 115.60 C 235.48 113.25 236.03 110.96 237.07 108.85 C 238.57 109.10 239.89 109.82 241.07 110.76 C 242.78 109.35 244.50 107.30 246.99 107.79 C 247.47 112.22 252.34 113.01 255.96 113.03 C 255.29 121.04 255.04 129.67 258.97 136.96 C 259.81 138.72 261.31 139.99 262.82 141.19 C 259.32 131.10 259.67 120.20 259.45 109.66 C 252.64 110.92 246.95 105.73 244.38 99.91 C 240.98 91.37 237.78 81.56 241.53 72.57 C 243.52 66.68 248.94 63.09 253.85 59.79 C 257.19 57.53 262.69 57.12 264.85 61.18 C 268.97 67.93 268.84 76.26 268.61 83.91 C 272.02 76.89 276.87 70.69 281.81 64.70 C 281.15 63.65 279.56 62.09 281.11 61.00 C 283.36 59.39 286.32 59.20 288.95 58.56 C 285.81 55.21 283.30 51.25 281.50 47.04 C 281.16 43.78 283.94 41.02 287.03 40.59 C 293.16 39.71 299.35 41.39 305.01 43.66 C 303.03 41.60 300.31 39.97 299.62 37.01 M 302.35 60.22 C 310.18 62.88 317.91 65.93 325.19 69.86 C 330.21 72.89 335.22 76.47 337.96 81.81 C 341.96 83.96 344.98 78.88 344.37 75.40 C 342.66 76.26 341.13 77.43 339.68 78.65 C 331.01 69.34 321.04 59.46 307.91 57.45 C 305.97 57.02 302.31 58.34 302.35 60.22 M 252.17 64.11 C 250.00 65.45 249.42 68.17 247.99 70.14 C 248.71 71.14 249.60 72.41 251.07 71.84 C 253.84 71.27 254.03 67.24 257.00 66.87 C 258.62 67.17 259.37 68.79 260.29 69.96 C 258.52 73.05 260.31 76.25 261.57 79.12 C 262.50 81.48 260.11 82.63 258.28 83.17 C 255.90 78.92 249.86 76.63 245.86 80.03 C 248.46 82.03 251.86 82.21 254.79 83.49 C 257.15 86.84 255.93 91.30 255.72 95.10 C 254.57 94.94 253.42 94.77 252.28 94.60 C 251.97 92.62 253.35 91.21 254.57 89.88 C 254.23 88.41 253.33 87.26 252.18 86.33 C 249.69 88.64 248.06 91.74 247.65 95.12 C 249.26 98.94 254.00 99.29 257.57 99.72 C 254.74 103.25 261.88 104.25 261.93 101.19 C 259.62 96.45 260.78 90.99 260.21 85.91 C 264.73 81.78 265.30 74.90 263.52 69.34 C 262.26 64.87 256.41 61.26 252.17 64.11 M 310.13 75.17 C 306.23 77.99 307.07 83.54 308.64 87.41 C 309.19 88.97 310.79 89.09 312.21 89.10 C 311.90 85.72 312.10 82.34 313.07 79.07 C 314.41 77.59 316.07 76.54 318.12 76.40 C 318.17 78.45 318.56 80.46 319.91 82.08 C 320.43 83.51 318.52 84.06 317.88 85.03 C 319.92 88.81 324.13 91.77 328.59 90.58 C 327.91 91.72 327.25 92.87 326.61 94.03 C 327.09 94.25 328.04 94.68 328.52 94.90 C 330.31 90.77 333.17 86.77 333.33 82.16 C 331.64 79.14 328.88 76.89 326.01 75.04 C 321.29 71.97 314.85 72.28 310.13 75.17 M 303.43 82.01 C 303.38 83.61 303.33 85.21 303.30 86.82 C 303.78 86.79 304.76 86.74 305.25 86.72 C 305.34 85.19 305.45 83.67 305.57 82.15 C 305.04 82.11 303.96 82.04 303.43 82.01 M 335.74 84.79 C 336.15 86.55 336.58 88.32 337.05 90.07 C 335.80 91.21 334.51 92.32 333.20 93.39 C 333.47 93.81 334.01 94.65 334.28 95.07 C 336.19 93.62 338.04 92.06 339.50 90.14 C 338.65 88.23 338.05 86.22 337.57 84.19 C 337.11 84.34 336.19 84.64 335.74 84.79 M 338.09 114.48 C 338.08 115.01 338.08 116.06 338.07 116.59 C 339.56 116.55 341.05 116.53 342.55 116.51 C 342.54 116.02 342.53 115.04 342.52 114.55 C 341.04 114.53 339.56 114.51 338.09 114.48 M 305.58 121.71 C 299.17 125.56 295.72 132.94 294.63 140.11 C 293.41 145.52 295.42 151.51 299.91 154.83 C 306.69 159.87 315.50 160.75 323.69 160.77 C 329.29 150.92 335.40 141.34 341.86 132.02 C 342.93 130.36 344.56 129.22 346.09 128.01 C 338.24 125.16 330.33 122.37 322.21 120.38 C 316.75 119.02 310.59 118.79 305.58 121.71 Z" />
<path fill="#ffffff" opacity="1.00" d=" M 804.07 44.26 C 831.75 46.21 859.45 42.59 887.05 40.98 C 891.36 42.10 896.69 44.31 897.82 49.12 C 897.85 53.69 894.16 57.08 891.00 59.88 C 887.87 62.25 884.79 64.99 881.01 66.24 C 872.67 66.27 863.08 63.72 855.83 69.19 C 846.22 72.09 835.94 71.87 825.99 72.20 C 819.65 69.90 812.74 69.56 806.05 69.47 C 802.77 69.27 800.23 71.82 797.02 71.98 C 790.77 72.84 784.45 72.44 778.17 72.67 C 778.05 74.91 778.12 77.22 777.11 79.28 C 780.32 78.55 782.37 75.56 785.50 74.68 C 791.37 74.20 797.64 74.96 803.07 72.22 C 805.54 71.04 808.34 71.57 810.98 71.54 C 811.88 80.02 812.74 88.54 814.72 96.85 C 815.56 100.59 817.99 104.01 817.54 107.99 C 817.13 117.36 808.94 124.94 799.90 126.17 C 796.63 119.45 792.23 113.34 787.18 107.85 C 788.39 106.90 789.54 105.84 790.87 105.02 C 791.65 105.28 793.21 105.81 794.00 106.08 C 794.51 103.76 790.96 103.29 791.54 101.09 C 792.74 93.50 790.74 83.92 783.09 80.43 C 783.03 80.94 782.92 81.94 782.86 82.44 C 787.62 85.22 789.57 90.73 789.93 95.97 C 785.70 92.82 780.45 90.33 775.06 91.52 C 772.70 91.89 770.05 94.17 768.07 91.81 C 767.28 87.94 768.68 83.32 766.08 79.99 C 764.26 79.64 764.08 81.89 763.83 83.08 C 763.51 85.39 762.02 87.22 760.51 88.88 C 761.61 89.99 762.83 90.99 764.18 91.81 C 779.58 101.26 793.42 114.62 800.09 131.71 C 794.54 134.88 788.08 139.04 787.57 146.09 C 785.49 144.99 783.27 144.05 781.70 142.24 C 777.34 137.49 770.86 135.72 764.90 133.90 C 756.49 131.72 747.91 130.04 739.25 129.36 L 739.67 131.18 C 751.57 132.97 763.75 134.56 774.81 139.58 C 774.78 139.82 774.72 140.30 774.69 140.54 C 769.29 143.87 763.47 146.51 757.46 148.53 C 753.48 149.88 749.13 150.47 745.01 149.44 C 739.36 148.13 733.53 149.32 727.97 150.48 C 719.83 152.36 711.88 155.01 704.13 158.09 C 693.62 149.43 686.28 137.22 682.79 124.12 C 680.34 114.28 683.59 103.79 689.88 96.07 C 691.88 93.83 693.60 90.89 696.67 90.05 C 697.66 87.15 700.75 85.88 703.07 84.19 C 707.03 82.34 710.09 79.17 713.46 76.48 C 721.99 69.38 730.55 62.31 739.11 55.25 C 742.05 53.08 743.40 49.21 746.97 47.81 C 755.74 43.80 765.60 43.29 775.10 42.70 C 784.77 42.48 794.60 41.90 804.07 44.26 M 787.80 119.36 C 786.45 122.14 785.09 124.93 783.59 127.64 C 784.17 128.01 784.76 128.37 785.37 128.74 C 786.80 125.88 788.23 123.02 789.66 120.15 C 789.03 119.89 788.41 119.62 787.80 119.36 M 690.87 123.10 C 698.06 131.76 709.19 137.16 720.54 136.57 L 720.46 134.56 C 709.41 135.18 698.78 129.65 691.85 121.23 C 690.78 119.38 689.56 122.51 690.87 123.10 Z" />
<path fill="#ffffff" opacity="1.00" d=" M 813.03 71.73 C 816.24 72.17 819.52 72.34 822.68 73.12 C 826.03 76.05 824.58 81.15 822.61 84.49 C 820.43 96.00 828.06 106.96 825.31 118.50 C 824.81 120.54 823.87 122.95 821.58 123.49 C 814.87 125.60 808.18 127.80 801.80 130.78 C 801.57 130.12 801.11 128.79 800.89 128.13 C 810.27 126.40 818.68 118.68 819.50 108.90 C 820.24 104.49 817.92 100.54 816.69 96.48 C 814.75 88.36 813.88 80.02 813.03 71.73 Z" />
<path fill="#ffffff" opacity="1.00" d=" M 690.15 84.09 C 693.89 82.86 697.87 82.87 701.76 82.58 C 698.21 84.69 695.48 88.52 691.12 88.92 C 682.80 90.40 675.15 95.55 671.01 102.96 C 666.46 111.16 665.53 120.91 666.43 130.10 C 668.40 143.21 674.22 155.47 681.52 166.42 C 691.89 181.87 705.77 194.67 720.94 205.32 C 712.82 206.82 704.87 209.08 696.93 211.33 C 677.93 216.86 659.09 222.97 640.41 229.50 C 633.49 231.85 626.81 234.88 619.75 236.79 C 571.40 251.80 523.08 267.16 476.13 286.16 C 461.97 292.21 447.44 297.94 434.72 306.73 C 429.97 311.46 423.67 314.24 419.22 319.31 C 407.58 331.69 400.96 347.78 395.75 363.71 C 388.95 385.57 384.91 408.26 382.98 431.06 C 382.22 435.18 380.17 438.96 379.53 443.14 C 375.74 462.87 377.32 483.14 379.18 503.00 L 326.96 503.00 C 328.55 484.87 330.47 466.71 334.37 448.92 C 337.69 429.61 340.50 410.22 343.53 390.87 C 343.18 387.29 343.74 383.74 345.28 380.48 C 349.27 378.71 352.47 375.67 355.33 372.45 C 363.07 364.17 368.58 354.17 375.16 345.03 C 388.78 329.74 402.55 314.57 417.15 300.20 C 422.22 295.25 427.33 290.27 433.11 286.13 C 435.34 284.40 438.29 284.50 440.84 283.57 C 471.00 272.56 501.67 262.81 532.93 255.37 C 541.38 253.53 549.80 251.27 558.47 250.71 C 565.61 249.89 573.19 249.29 579.44 245.40 C 581.03 244.55 581.78 242.88 582.55 241.35 C 595.50 232.74 609.20 225.34 622.81 217.83 C 640.07 208.53 657.53 199.57 675.36 191.40 C 678.52 189.89 682.44 189.56 684.78 186.68 C 686.44 182.71 681.67 180.90 680.03 178.02 C 671.65 165.64 664.98 152.21 658.10 138.97 C 657.27 136.97 655.02 136.43 653.09 136.20 C 649.20 136.45 646.80 139.98 643.37 141.37 C 618.45 153.61 592.75 164.17 567.27 175.16 C 561.11 177.86 554.74 180.50 547.96 180.97 C 545.84 181.14 542.76 180.83 542.31 178.22 C 543.56 174.40 547.47 172.71 550.13 170.05 C 554.86 165.11 557.85 158.79 559.71 152.27 C 553.30 155.16 546.85 158.04 540.93 161.88 C 518.07 176.13 496.03 191.63 473.74 206.74 C 468.80 209.99 463.01 212.94 456.92 212.00 C 453.40 211.71 450.38 209.52 447.99 207.06 C 443.14 201.56 440.67 194.35 439.74 187.17 C 439.22 184.15 436.45 181.89 433.35 182.87 C 432.42 184.95 431.35 187.00 429.79 188.68 C 424.03 195.21 417.57 201.05 411.50 207.28 C 401.90 192.84 388.67 181.07 374.16 171.72 C 356.39 179.79 337.97 186.46 319.10 191.45 C 316.88 192.06 314.63 192.52 312.33 192.67 C 312.09 199.18 311.10 205.62 310.55 212.11 C 308.42 212.11 306.29 212.11 304.16 212.12 C 305.44 202.46 306.43 192.77 307.75 183.11 C 308.29 179.36 307.44 175.62 307.10 171.90 C 311.73 172.13 316.39 171.70 321.00 172.24 C 328.34 173.79 335.53 170.67 342.37 168.41 C 355.53 162.56 369.14 157.26 383.49 155.24 C 390.23 154.36 397.24 154.11 403.83 156.06 C 407.20 156.97 409.70 159.72 413.11 160.56 C 423.97 163.83 434.69 168.21 446.03 169.35 C 466.41 161.50 488.56 160.71 509.74 156.12 C 506.92 163.07 501.80 168.66 498.11 175.11 C 509.37 167.71 519.80 159.11 530.90 151.47 C 530.43 151.17 529.49 150.58 529.02 150.28 C 529.53 150.47 530.57 150.86 531.09 151.05 C 536.50 147.21 544.25 145.40 546.64 138.43 C 559.57 137.37 571.87 132.85 584.07 128.72 C 620.20 115.74 655.26 100.01 690.15 84.09 Z" />
<path fill="#ffffff" opacity="1.00" d=" M 825.81 99.90 C 824.86 94.51 822.99 88.61 825.30 83.34 C 829.03 85.03 832.38 87.95 833.53 92.01 C 836.29 101.33 833.40 110.99 830.99 120.03 C 829.64 127.71 822.52 133.05 815.11 134.17 C 811.24 135.20 807.02 134.00 803.38 135.83 C 803.19 135.08 802.82 133.60 802.63 132.85 C 808.90 129.44 815.80 127.32 822.69 125.51 C 825.47 124.33 826.82 121.33 827.36 118.53 C 828.41 112.30 827.79 105.87 825.81 99.90 Z" />
<path fill="#ffffff" opacity="1.00" d=" M 677.71 97.71 C 681.59 93.95 686.74 91.95 691.89 90.60 C 685.63 97.25 680.61 105.63 680.06 114.94 C 679.37 123.37 682.66 131.41 686.29 138.82 C 692.50 150.90 702.31 161.62 715.04 166.85 C 719.86 168.94 725.08 169.82 730.25 170.53 C 723.89 171.48 717.55 172.58 711.20 173.65 C 708.32 174.19 705.04 174.58 703.11 177.06 C 706.34 179.52 710.74 175.08 713.99 178.13 C 713.49 183.01 709.86 186.63 706.77 190.11 C 706.72 190.51 706.63 191.30 706.59 191.69 C 693.95 180.26 682.61 167.04 675.30 151.53 C 670.89 142.02 667.38 131.65 668.22 121.02 C 668.64 112.53 671.28 103.62 677.71 97.71 Z" />
<path fill="#ffffff" opacity="1.00" d=" M 772.18 94.35 C 778.36 91.83 785.54 94.06 789.83 98.98 C 789.67 101.96 788.70 104.82 785.95 106.33 C 781.54 102.13 776.82 98.28 772.18 94.35 Z" />
<path fill="#ffffff" opacity="1.00" d=" M 310.70 124.92 C 312.29 123.56 313.86 121.91 316.05 121.64 C 323.66 120.12 330.95 123.98 337.28 127.74 C 338.50 128.71 340.40 129.30 340.73 131.01 C 340.34 131.76 339.55 133.26 339.15 134.01 C 330.68 128.58 320.90 124.74 310.70 124.92 Z" />
<path fill="#ffffff" opacity="1.00" d=" M 332.54 132.79 C 334.04 133.94 335.57 135.13 336.43 136.86 C 334.06 137.01 331.69 137.01 329.32 136.92 C 330.39 135.54 331.46 134.16 332.54 132.79 Z" />
<path fill="#ffffff" opacity="1.00" d=" M 789.57 146.72 C 789.87 140.36 795.63 136.44 800.74 133.78 C 801.51 135.13 801.40 139.32 804.26 136.34 C 802.09 142.40 796.57 148.17 789.57 146.72 Z" />
<path fill="#ffffff" opacity="1.00" d=" M 300.17 151.30 C 307.12 150.14 314.58 151.24 320.18 155.75 C 320.94 156.58 322.70 157.47 321.87 158.85 C 315.69 158.80 309.58 157.17 303.72 155.28 C 302.08 154.64 299.16 153.54 300.17 151.30 Z" />
<path fill="#ffffff" opacity="1.00" d=" M 705.98 159.42 C 717.90 155.31 730.12 150.40 742.95 151.02 C 738.90 156.76 735.23 162.76 731.18 168.50 C 722.15 167.88 713.23 164.91 705.98 159.42 Z" />
<path fill="#ffffff" opacity="1.00" d=" M 202.73 180.81 C 202.98 178.60 204.48 176.96 205.85 175.34 C 209.51 180.21 213.05 185.17 216.72 190.05 C 212.65 190.07 208.30 191.27 205.72 194.63 C 202.26 198.70 202.79 204.34 201.08 209.11 C 199.98 212.83 197.72 216.23 194.36 218.27 C 196.63 205.68 199.80 193.26 202.73 180.81 Z" />
<path fill="#ffffff" opacity="1.00" d=" M 178.48 196.47 C 182.68 193.65 186.71 190.56 191.18 188.16 C 186.89 191.66 182.52 195.06 178.01 198.27 C 177.48 201.48 177.20 204.72 176.72 207.94 C 175.93 209.11 174.38 209.45 173.20 210.11 C 161.98 214.94 150.38 218.81 138.84 222.78 C 136.25 223.77 133.26 224.17 131.23 226.22 C 126.79 230.51 122.69 235.15 118.89 240.01 C 115.85 244.26 112.82 248.82 112.24 254.15 C 111.66 259.41 109.42 264.33 106.22 268.51 C 107.62 283.80 99.43 297.79 90.76 309.71 C 90.91 316.33 88.78 322.70 86.76 328.92 C 82.27 341.84 76.85 354.44 70.60 366.60 C 69.11 369.95 65.83 372.35 65.12 376.04 C 63.34 390.55 55.97 403.51 48.94 416.05 C 47.92 418.31 45.77 419.61 44.09 421.32 C 44.68 429.44 43.44 438.00 39.02 445.00 C 35.93 450.01 30.55 453.10 24.83 454.09 C 26.33 457.54 27.14 461.27 27.03 465.04 C 27.46 478.63 21.34 491.21 15.30 503.00 L 3.78 503.00 C 10.75 486.52 17.31 469.86 24.45 453.45 C 25.11 451.87 24.94 450.11 25.19 448.45 C 25.76 442.83 29.11 437.83 33.43 434.34 C 34.11 433.58 35.25 433.05 35.39 431.94 C 38.74 413.33 43.03 394.78 49.90 377.12 C 53.17 369.16 56.78 361.08 62.76 354.74 C 64.98 352.37 65.91 349.17 67.03 346.20 C 71.67 332.67 75.04 318.76 79.01 305.04 C 79.71 301.59 83.26 299.95 84.78 296.94 C 91.34 285.39 94.74 272.44 99.21 260.02 C 102.25 248.09 107.45 236.18 116.52 227.59 C 119.76 224.74 123.52 221.93 128.02 221.82 C 134.21 221.46 139.93 218.85 145.45 216.24 C 156.99 210.58 167.82 203.61 178.48 196.47 Z" />
<path fill="#ffffff" opacity="1.00" d=" M 204.92 201.05 C 205.76 195.42 211.38 191.48 216.96 192.15 C 218.99 192.02 219.03 194.55 219.46 195.95 C 221.27 204.26 225.00 211.93 228.46 219.63 C 223.40 223.21 218.52 227.02 213.56 230.72 C 211.32 229.13 208.45 228.09 206.85 225.82 C 205.63 221.21 204.82 216.50 203.73 211.86 C 202.76 208.23 204.49 204.64 204.92 201.05 Z" />
<path fill="#ffffff" opacity="1.00" d=" M 196.40 219.21 C 198.91 217.78 200.42 215.23 201.88 212.84 C 202.94 217.45 203.92 222.08 204.90 226.72 C 194.18 242.67 183.66 258.86 175.14 276.11 C 175.25 273.98 175.69 271.89 176.23 269.84 C 180.41 253.50 185.73 237.39 192.93 222.12 C 193.40 220.49 195.15 220.06 196.40 219.21 Z" />
<path fill="#ffffff" opacity="1.00" d=" M 215.05 232.07 C 219.84 228.49 224.67 224.94 229.40 221.26 C 232.56 227.07 235.46 233.03 237.90 239.18 C 227.26 253.11 217.08 267.38 207.44 282.03 C 210.34 265.44 212.37 248.70 215.05 232.07 Z" />
<path fill="#ffffff" opacity="1.00" d=" M 175.52 279.62 C 184.26 261.71 195.16 244.96 206.12 228.35 C 208.41 229.78 210.66 231.28 212.87 232.82 C 210.40 249.61 207.90 266.40 205.45 283.20 C 205.22 284.56 205.00 285.99 204.20 287.16 C 194.09 303.20 184.58 319.70 177.23 337.21 C 176.03 339.75 175.52 342.65 173.93 344.99 C 173.28 344.91 171.99 344.74 171.35 344.66 C 168.86 331.94 169.57 318.87 170.16 306.00 C 171.56 297.16 171.19 287.73 175.52 279.62 Z" />
<path fill="#ffffff" opacity="1.00" d=" M 266.59 255.67 C 268.24 254.58 270.76 254.60 272.41 255.67 C 277.32 256.86 277.32 264.14 272.41 265.33 C 270.76 266.42 268.23 266.39 266.58 265.33 C 261.68 264.14 261.68 256.86 266.59 255.67 Z" />
<path fill="#ffffff" opacity="1.00" d=" M 276.89 268.25 C 260.73 282.15 244.28 295.76 227.92 309.44 C 226.52 308.64 225.13 307.82 223.76 306.99 C 241.38 293.96 259.20 281.18 276.89 268.25 Z" />
<path fill="#ffffff" opacity="1.00" d=" M 251.20 327.52 C 261.34 323.38 272.07 320.86 282.87 319.14 C 285.01 318.81 287.18 318.92 289.34 319.04 C 287.24 321.93 283.78 323.19 280.74 324.80 C 273.96 327.92 266.62 330.53 259.04 330.09 C 256.23 330.15 253.36 329.37 251.20 327.52 Z" />
<path fill="#ffffff" opacity="1.00" d=" M 257.67 368.36 L 259.65 368.30 C 260.78 413.20 261.86 458.10 262.97 503.00 L 260.96 503.00 C 259.87 458.12 258.76 413.24 257.67 368.36 Z" />
<path fill="#ffffff" opacity="1.00" d=" M 173.66 378.58 C 174.55 376.70 176.17 374.18 178.62 375.09 C 179.81 376.00 180.73 377.20 181.34 378.58 C 182.41 380.57 182.43 383.43 181.34 385.42 C 180.45 387.30 178.83 389.81 176.38 388.91 C 175.19 387.99 174.26 386.79 173.67 385.42 C 172.57 383.43 172.58 380.57 173.66 378.58 Z" />
<path fill="#ffffff" opacity="1.00" d=" M 106.14 441.97 C 108.13 439.32 110.05 435.56 113.89 435.73 C 114.36 438.46 114.45 441.24 114.23 444.01 C 113.67 452.54 114.26 461.13 113.68 469.65 C 113.49 469.58 113.12 469.44 112.93 469.37 L 112.62 468.67 L 112.19 467.99 C 105.86 479.62 99.77 491.39 93.39 503.00 L 77.17 503.00 C 80.99 490.33 86.23 478.11 92.40 466.40 C 94.40 462.90 96.11 458.93 99.63 456.66 C 104.06 453.00 102.68 446.27 106.14 441.97 Z" />
<path fill="#ffffff" opacity="1.00" d=" M 172.67 449.59 C 173.54 447.70 175.17 445.18 177.62 446.09 C 178.81 447.00 179.74 448.20 180.34 449.58 C 181.43 451.56 181.44 454.44 180.33 456.41 C 179.46 458.30 177.83 460.81 175.39 459.91 C 174.19 458.99 173.26 457.79 172.66 456.42 C 171.59 454.43 171.55 451.56 172.67 449.59 Z" />
<path fill="#ffffff" opacity="1.00" d=" M 112.35 472.36 C 112.56 472.35 113.00 472.31 113.22 472.30 C 113.21 482.52 112.85 492.77 112.67 503.00 L 107.13 503.00 C 108.24 495.65 109.78 488.38 110.80 481.03 C 111.25 478.15 110.74 474.92 112.35 472.36 Z" />
</g>
</svg>
