<?xml version="1.0" encoding="UTF-8" ?>
<!DOCTYPE svg PUBLIC "-//W3C//DTD SVG 1.1//EN" "http://www.w3.org/Graphics/SVG/1.1/DTD/svg11.dtd">
<svg width="962pt" height="1073pt" viewBox="0 0 962 1073" version="1.1" xmlns="http://www.w3.org/2000/svg">
<path fill="#ffffff" opacity="1.00" d=" M 0.00 0.00 L 962.00 0.00 L 962.00 1073.00 L 0.00 1073.00 L 0.00 0.00 M 477.43 9.60 C 442.65 17.08 408.55 27.41 374.85 38.76 C 366.85 41.45 358.95 44.47 350.77 46.61 C 332.87 51.43 314.23 53.48 296.77 59.93 C 277.21 67.62 260.50 81.02 245.93 95.93 C 227.57 114.62 212.42 136.10 197.52 157.56 C 185.38 174.48 170.74 189.41 155.59 203.62 C 141.47 217.14 126.68 230.05 114.10 245.07 C 97.52 264.40 91.13 290.83 71.83 308.06 C 69.52 307.34 67.23 305.91 66.82 303.32 C 64.98 294.37 69.43 285.32 67.42 276.38 C 66.92 273.70 64.31 272.32 61.81 272.06 C 61.66 285.67 59.90 299.25 56.57 312.44 C 49.53 341.81 34.50 368.46 26.68 397.58 C 25.93 401.12 26.08 404.85 26.73 408.41 C 27.17 410.47 28.60 413.18 31.09 412.78 C 35.25 412.54 38.37 409.25 42.16 407.85 C 43.81 406.72 45.29 408.10 46.69 408.92 C 36.76 435.29 27.48 462.12 23.10 490.06 C 18.53 517.20 18.34 544.93 20.95 572.29 C 15.87 568.66 12.60 562.99 11.15 556.99 C 8.53 546.37 9.22 535.32 9.83 524.51 C 10.63 512.69 11.44 500.85 11.24 489.00 C 11.52 465.52 13.80 442.02 12.17 418.54 C 11.51 411.03 10.71 403.33 7.51 396.42 C 6.15 393.38 3.96 390.65 0.90 389.20 C 0.34 410.45 0.83 431.73 0.67 453.00 C 0.66 536.01 0.68 619.03 0.66 702.04 C 0.57 706.48 3.43 710.14 4.65 714.25 C 15.19 743.08 12.08 774.36 17.78 804.11 C 21.39 823.84 31.72 841.36 41.29 858.68 C 51.27 875.81 60.03 893.87 72.81 909.16 C 74.39 911.35 77.44 912.91 77.21 915.98 C 78.19 936.87 79.76 957.80 83.39 978.43 C 86.42 995.27 90.87 1012.03 98.58 1027.38 C 105.52 1040.85 115.21 1053.34 128.22 1061.40 C 124.50 1039.66 114.89 1019.64 106.57 999.41 C 99.03 981.13 93.32 961.83 92.53 941.97 C 92.54 939.75 93.28 937.64 94.06 935.61 C 96.00 935.77 98.03 936.12 99.43 937.62 C 104.68 942.44 109.03 948.26 112.56 954.44 C 114.96 962.14 117.87 969.80 122.60 976.41 C 130.24 987.57 141.69 995.43 153.66 1001.34 C 168.11 1008.69 183.48 1014.21 197.42 1022.57 C 206.55 1028.25 214.57 1035.48 223.44 1041.53 C 232.69 1048.16 244.02 1052.92 255.60 1051.23 C 251.42 1038.30 242.37 1027.37 231.24 1019.76 C 206.29 1002.64 175.39 997.41 150.17 980.80 C 147.77 979.41 147.17 976.50 145.87 974.26 C 132.17 946.98 115.55 920.74 93.65 899.26 C 92.20 897.91 92.91 895.75 92.73 894.03 C 93.29 874.55 88.28 855.40 81.64 837.24 C 72.86 812.97 60.89 789.88 54.06 764.92 C 49.56 748.67 48.46 731.74 47.92 714.97 C 47.34 703.19 46.84 690.75 40.79 680.27 C 38.44 676.00 34.99 672.52 31.55 669.13 C 33.35 648.66 33.91 628.08 33.59 607.54 C 33.42 568.67 31.01 529.52 36.69 490.88 C 39.72 470.99 50.41 453.60 58.61 435.57 C 63.41 424.98 67.59 413.79 67.92 402.04 C 68.47 385.38 63.77 368.90 65.47 352.24 C 66.85 339.77 73.01 328.37 80.68 318.65 C 92.21 304.20 106.98 292.90 120.80 280.79 C 132.91 270.20 145.02 258.90 152.45 244.41 C 156.21 237.27 158.15 229.33 158.95 221.34 C 168.86 216.70 177.76 210.13 185.89 202.86 C 209.11 181.90 225.13 154.68 244.23 130.22 C 254.68 116.81 266.24 103.92 280.55 94.52 C 292.96 86.44 306.96 81.13 321.22 77.38 C 340.07 72.47 359.53 70.32 378.96 69.55 C 404.72 68.61 430.55 70.41 456.07 73.95 C 478.78 77.19 501.31 81.88 523.24 88.64 C 526.56 90.09 531.38 87.93 531.51 84.03 C 532.28 76.83 526.24 70.98 526.71 63.88 C 531.17 63.77 535.48 62.50 539.92 62.14 C 552.86 60.71 565.98 63.79 577.63 69.39 C 595.13 77.70 609.79 90.63 626.06 100.94 C 657.01 120.18 692.63 130.25 723.70 149.27 C 736.57 157.03 747.41 167.88 755.47 180.55 C 776.69 212.91 783.27 252.36 804.02 284.97 C 814.15 301.20 828.58 314.79 845.71 323.39 C 852.90 349.50 862.28 374.93 871.76 400.28 C 893.22 457.15 915.58 514.03 928.67 573.56 C 933.53 596.43 937.86 619.57 938.70 642.98 C 939.79 683.49 934.97 724.02 937.82 764.52 C 939.58 788.04 944.50 811.38 943.63 835.06 C 943.07 852.83 936.74 869.71 929.77 885.85 C 920.77 906.66 909.93 926.68 902.08 948.00 C 888.96 985.41 871.52 1021.84 866.02 1061.45 C 872.40 1059.79 878.33 1056.61 883.35 1052.34 C 896.29 1040.87 902.76 1024.24 908.64 1008.42 C 914.68 990.61 921.95 973.26 928.70 955.71 C 936.72 935.00 944.64 914.26 952.72 893.58 C 954.47 893.51 956.23 893.48 958.00 893.45 C 958.00 837.60 958.00 781.75 958.00 725.90 C 956.49 725.65 954.57 725.84 953.65 724.36 C 951.08 720.46 951.25 715.47 951.73 711.01 C 952.05 707.71 954.07 703.69 958.01 704.48 C 957.99 680.30 957.98 656.13 958.02 631.95 C 958.21 628.50 956.90 625.26 956.24 621.94 C 951.03 597.31 952.49 571.99 952.25 547.00 C 952.32 526.82 952.50 506.41 948.19 486.59 C 945.67 475.32 941.23 464.00 932.85 455.77 C 929.12 454.67 923.81 457.53 924.53 461.98 C 925.37 468.70 928.85 474.67 930.96 481.02 C 933.76 488.80 935.87 497.75 932.32 505.66 C 927.57 492.35 920.86 479.89 914.79 467.17 C 908.44 453.84 903.31 439.67 902.00 424.87 C 908.07 426.31 907.68 433.36 910.18 437.81 C 911.49 440.35 914.62 440.50 917.13 440.66 C 918.86 421.95 917.51 402.24 908.82 385.26 C 901.91 371.50 889.98 360.85 876.55 353.61 C 876.43 344.87 874.23 336.27 870.72 328.29 C 863.80 312.62 853.24 298.73 847.56 282.48 C 841.11 263.24 839.34 242.89 834.63 223.23 C 832.36 214.12 828.68 205.37 823.48 197.55 C 807.43 171.92 788.54 148.16 768.05 125.96 C 741.61 97.31 712.47 71.24 681.78 47.23 C 669.76 37.65 659.63 25.96 647.69 16.29 C 640.96 10.77 632.53 8.02 624.20 5.97 C 611.34 2.90 598.13 1.54 584.96 0.76 C 574.64 0.51 564.32 0.75 554.01 0.67 C 528.21 0.11 502.60 4.33 477.43 9.60 M 286.51 243.76 C 277.03 244.85 267.57 246.21 258.23 248.09 C 231.25 254.37 206.62 268.72 185.99 286.98 C 164.30 306.40 146.64 330.93 137.75 358.83 C 129.43 384.20 129.32 412.15 137.28 437.62 C 140.63 449.04 146.97 459.38 154.59 468.45 C 167.65 483.97 184.09 496.34 201.54 506.52 C 221.74 518.04 243.73 526.78 266.76 530.46 C 282.84 533.19 299.41 532.21 315.22 528.33 C 334.39 523.79 352.77 515.95 369.44 505.45 C 384.56 495.67 398.56 483.40 407.70 467.69 C 412.72 459.28 415.47 449.77 417.52 440.26 C 420.79 425.07 421.92 409.49 421.97 393.98 C 421.54 370.23 418.25 346.15 408.81 324.19 C 405.15 316.06 401.00 307.76 394.07 301.92 C 386.05 295.01 375.57 292.07 367.04 285.94 C 358.56 280.18 352.15 272.07 345.91 264.07 C 341.72 258.62 336.72 253.66 330.60 250.42 C 317.09 243.46 301.41 242.20 286.51 243.76 M 769.31 251.69 C 769.95 261.97 767.17 272.85 771.23 282.67 C 773.55 287.89 779.81 288.52 784.80 287.90 C 785.87 279.01 786.19 269.35 781.76 261.26 C 779.22 256.43 774.43 253.24 769.31 251.69 M 668.52 260.80 C 661.65 261.25 654.87 262.50 648.00 262.99 C 640.19 263.77 632.09 264.36 624.95 267.92 C 617.13 271.76 609.93 276.73 603.03 282.01 C 588.45 293.29 575.13 306.12 562.76 319.77 C 549.36 334.63 537.01 350.49 526.54 367.56 C 517.56 382.34 509.68 398.11 506.04 415.13 C 503.26 427.63 503.97 441.06 509.15 452.86 C 515.95 468.84 528.66 481.53 542.74 491.32 C 560.29 503.43 580.29 511.69 600.88 517.04 C 624.37 523.01 648.91 525.34 673.05 522.68 C 691.19 520.66 709.26 515.57 724.86 505.90 C 732.55 501.12 738.98 494.66 745.11 488.06 C 757.29 474.17 766.87 458.12 774.06 441.13 C 781.78 422.51 786.91 402.28 785.19 382.00 C 784.94 376.81 782.92 371.94 780.58 367.38 C 772.88 352.20 762.65 338.49 754.54 323.54 C 746.63 308.80 743.29 291.95 734.21 277.78 C 730.20 271.47 724.30 266.08 716.94 264.13 C 701.25 259.64 684.67 259.82 668.52 260.80 M 239.25 671.14 C 216.47 678.46 194.00 687.63 174.21 701.24 C 163.56 708.84 153.06 718.02 148.25 730.54 C 175.08 727.70 199.48 715.31 224.05 705.07 C 246.59 695.33 269.79 686.64 294.01 682.14 C 314.45 678.42 335.27 677.70 355.99 677.25 C 405.82 677.10 455.40 682.78 504.98 687.08 C 542.22 690.19 579.70 692.91 617.04 689.80 C 616.90 686.46 616.82 682.93 615.07 679.98 C 613.28 677.01 610.09 675.20 606.79 674.45 C 596.94 672.34 586.92 675.25 577.02 674.41 C 556.48 670.27 535.79 666.89 515.01 664.20 C 472.89 658.74 430.47 655.44 388.00 654.74 C 338.10 654.38 287.19 655.84 239.25 671.14 Z" />
<path fill="#000000" opacity="1.00" d=" M 477.43 9.60 C 502.60 4.33 528.21 0.11 554.01 0.67 C 564.32 0.75 574.64 0.51 584.96 0.76 C 598.13 1.54 611.34 2.90 624.20 5.97 C 632.53 8.02 640.96 10.77 647.69 16.29 C 659.63 25.96 669.76 37.65 681.78 47.23 C 712.47 71.24 741.61 97.31 768.05 125.96 C 788.54 148.16 807.43 171.92 823.48 197.55 C 828.68 205.37 832.36 214.12 834.63 223.23 C 839.34 242.89 841.11 263.24 847.56 282.48 C 853.24 298.73 863.80 312.62 870.72 328.29 C 874.23 336.27 876.43 344.87 876.55 353.61 C 889.98 360.85 901.91 371.50 908.82 385.26 C 917.51 402.24 918.86 421.95 917.13 440.66 C 914.62 440.50 911.49 440.35 910.18 437.81 C 907.68 433.36 908.07 426.31 902.00 424.87 C 903.31 439.67 908.44 453.84 914.79 467.17 C 920.86 479.89 927.57 492.35 932.32 505.66 C 935.87 497.75 933.76 488.80 930.96 481.02 C 928.85 474.67 925.37 468.70 924.53 461.98 C 923.81 457.53 929.12 454.67 932.85 455.77 C 941.23 464.00 945.67 475.32 948.19 486.59 C 952.50 506.41 952.32 526.82 952.25 547.00 C 952.49 571.99 951.03 597.31 956.24 621.94 C 956.90 625.26 958.21 628.50 958.02 631.95 C 957.98 656.13 957.99 680.30 958.01 704.48 C 954.07 703.69 952.05 707.71 951.73 711.01 C 951.25 715.47 951.08 720.46 953.65 724.36 C 954.57 725.84 956.49 725.65 958.00 725.90 C 958.00 781.75 958.00 837.60 958.00 893.45 C 956.23 893.48 954.47 893.51 952.72 893.58 C 944.64 914.26 936.72 935.00 928.70 955.71 C 921.95 973.26 914.68 990.61 908.64 1008.42 C 902.76 1024.24 896.29 1040.87 883.35 1052.34 C 878.33 1056.61 872.40 1059.79 866.02 1061.45 C 871.52 1021.84 888.96 985.41 902.08 948.00 C 909.93 926.68 920.77 906.66 929.77 885.85 C 936.74 869.71 943.07 852.83 943.63 835.06 C 944.50 811.38 939.58 788.04 937.82 764.52 C 934.97 724.02 939.79 683.49 938.70 642.98 C 937.86 619.57 933.53 596.43 928.67 573.56 C 915.58 514.03 893.22 457.15 871.76 400.28 C 862.28 374.93 852.90 349.50 845.71 323.39 C 828.58 314.79 814.15 301.20 804.02 284.97 C 783.27 252.36 776.69 212.91 755.47 180.55 C 747.41 167.88 736.57 157.03 723.70 149.27 C 692.63 130.25 657.01 120.18 626.06 100.94 C 609.79 90.63 595.13 77.70 577.63 69.39 C 565.98 63.79 552.86 60.71 539.92 62.14 C 535.48 62.50 531.17 63.77 526.71 63.88 C 526.24 70.98 532.28 76.83 531.51 84.03 C 531.38 87.93 526.56 90.09 523.24 88.64 C 501.31 81.88 478.78 77.19 456.07 73.95 C 430.55 70.41 404.72 68.61 378.96 69.55 C 359.53 70.32 340.07 72.47 321.22 77.38 C 306.96 81.13 292.96 86.44 280.55 94.52 C 266.24 103.92 254.68 116.81 244.23 130.22 C 225.13 154.68 209.11 181.90 185.89 202.86 C 177.76 210.13 168.86 216.70 158.95 221.34 C 158.15 229.33 156.21 237.27 152.45 244.41 C 145.02 258.90 132.91 270.20 120.80 280.79 C 106.98 292.90 92.21 304.20 80.68 318.65 C 73.01 328.37 66.85 339.77 65.47 352.24 C 63.77 368.90 68.47 385.38 67.92 402.04 C 67.59 413.79 63.41 424.98 58.61 435.57 C 50.41 453.60 39.72 470.99 36.69 490.88 C 31.01 529.52 33.42 568.67 33.59 607.54 C 33.91 628.08 33.35 648.66 31.55 669.13 C 34.99 672.52 38.44 676.00 40.79 680.27 C 46.84 690.75 47.34 703.19 47.92 714.97 C 48.46 731.74 49.56 748.67 54.06 764.92 C 60.89 789.88 72.86 812.97 81.64 837.24 C 88.28 855.40 93.29 874.55 92.73 894.03 C 92.91 895.75 92.20 897.91 93.65 899.26 C 115.55 920.74 132.17 946.98 145.87 974.26 C 147.17 976.50 147.77 979.41 150.17 980.80 C 175.39 997.41 206.29 1002.64 231.24 1019.76 C 242.37 1027.37 251.42 1038.30 255.60 1051.23 C 244.02 1052.92 232.69 1048.16 223.44 1041.53 C 214.57 1035.48 206.55 1028.25 197.42 1022.57 C 183.48 1014.21 168.11 1008.69 153.66 1001.34 C 141.69 995.43 130.24 987.57 122.60 976.41 C 117.87 969.80 114.96 962.14 112.56 954.44 C 109.03 948.26 104.68 942.44 99.43 937.62 C 98.03 936.12 96.00 935.77 94.06 935.61 C 93.28 937.64 92.54 939.75 92.53 941.97 C 93.32 961.83 99.03 981.13 106.57 999.41 C 114.89 1019.64 124.50 1039.66 128.22 1061.40 C 115.21 1053.34 105.52 1040.85 98.58 1027.38 C 90.87 1012.03 86.42 995.27 83.39 978.43 C 79.76 957.80 78.19 936.87 77.21 915.98 C 77.44 912.91 74.39 911.35 72.81 909.16 C 60.03 893.87 51.27 875.81 41.29 858.68 C 31.72 841.36 21.39 823.84 17.78 804.11 C 12.08 774.36 15.19 743.08 4.65 714.25 C 3.43 710.14 0.57 706.48 0.66 702.04 C 0.68 619.03 0.66 536.01 0.67 453.00 C 0.83 431.73 0.34 410.45 0.90 389.20 C 3.96 390.65 6.15 393.38 7.51 396.42 C 10.71 403.33 11.51 411.03 12.17 418.54 C 13.80 442.02 11.52 465.52 11.24 489.00 C 11.44 500.85 10.63 512.69 9.83 524.51 C 9.22 535.32 8.53 546.37 11.15 556.99 C 12.60 562.99 15.87 568.66 20.95 572.29 C 18.34 544.93 18.53 517.20 23.10 490.06 C 27.48 462.12 36.76 435.29 46.69 408.92 C 45.29 408.10 43.81 406.72 42.16 407.85 C 38.37 409.25 35.25 412.54 31.09 412.78 C 28.60 413.18 27.17 410.47 26.73 408.41 C 26.08 404.85 25.93 401.12 26.68 397.58 C 34.50 368.46 49.53 341.81 56.57 312.44 C 59.90 299.25 61.66 285.67 61.81 272.06 C 64.31 272.32 66.92 273.70 67.42 276.38 C 69.43 285.32 64.98 294.37 66.82 303.32 C 67.23 305.91 69.52 307.34 71.83 308.06 C 91.13 290.83 97.52 264.40 114.10 245.07 C 126.68 230.05 141.47 217.14 155.59 203.62 C 170.74 189.41 185.38 174.48 197.52 157.56 C 212.42 136.10 227.57 114.62 245.93 95.93 C 260.50 81.02 277.21 67.62 296.77 59.93 C 314.23 53.48 332.87 51.43 350.77 46.61 C 358.95 44.47 366.85 41.45 374.85 38.76 C 408.55 27.41 442.65 17.08 477.43 9.60 M 489.13 27.16 C 472.03 30.84 454.88 34.38 437.85 38.39 C 472.37 33.87 507.77 34.42 541.75 42.39 C 565.07 47.79 587.50 56.57 608.93 67.17 C 643.49 83.84 676.01 106.07 713.88 114.77 C 701.16 105.34 692.66 91.70 684.66 78.32 C 675.58 63.29 666.36 47.67 652.28 36.73 C 642.72 29.13 631.03 24.97 619.40 21.79 C 600.40 16.85 580.58 15.83 561.04 16.83 C 536.81 18.10 512.86 22.28 489.13 27.16 M 488.48 59.30 C 486.24 59.75 485.05 61.81 483.86 63.52 C 488.70 63.43 493.57 63.74 498.41 63.32 C 501.33 63.11 504.10 61.47 505.06 58.57 C 499.54 58.59 493.90 58.03 488.48 59.30 M 804.94 221.09 C 806.15 225.68 807.77 230.16 809.28 234.67 C 813.58 247.00 819.23 260.14 830.69 267.42 C 831.06 260.37 830.58 253.04 827.36 246.63 C 822.41 236.15 812.36 229.63 804.94 221.09 M 16.19 689.67 C 27.25 727.34 26.79 767.15 35.99 805.20 C 40.45 822.88 47.60 841.01 62.06 852.91 C 53.76 816.68 46.92 780.07 36.80 744.28 C 31.35 725.60 25.13 707.00 16.19 689.67 Z" />
<path fill="#ffffff" opacity="1.00" d=" M 489.13 27.16 C 512.86 22.28 536.81 18.10 561.04 16.83 C 580.58 15.83 600.40 16.85 619.40 21.79 C 631.03 24.97 642.72 29.13 652.28 36.73 C 666.36 47.67 675.58 63.29 684.66 78.32 C 692.66 91.70 701.16 105.34 713.88 114.77 C 676.01 106.07 643.49 83.84 608.93 67.17 C 587.50 56.57 565.07 47.79 541.75 42.39 C 507.77 34.42 472.37 33.87 437.85 38.39 C 454.88 34.38 472.03 30.84 489.13 27.16 Z" />
<path fill="#ffffff" opacity="1.00" d=" M 488.48 59.30 C 493.90 58.03 499.54 58.59 505.06 58.57 C 504.10 61.47 501.33 63.11 498.41 63.32 C 493.57 63.74 488.70 63.43 483.86 63.52 C 485.05 61.81 486.24 59.75 488.48 59.30 Z" />
<path fill="#ffffff" opacity="1.00" d=" M 804.94 221.09 C 812.36 229.63 822.41 236.15 827.36 246.63 C 830.58 253.04 831.06 260.37 830.69 267.42 C 819.23 260.14 813.58 247.00 809.28 234.67 C 807.77 230.16 806.15 225.68 804.94 221.09 Z" />
<path fill="#000000" opacity="1.00" d=" M 286.51 243.76 C 301.41 242.20 317.09 243.46 330.60 250.42 C 336.72 253.66 341.72 258.62 345.91 264.07 C 352.15 272.07 358.56 280.18 367.04 285.94 C 375.57 292.07 386.05 295.01 394.07 301.92 C 401.00 307.76 405.15 316.06 408.81 324.19 C 418.25 346.15 421.54 370.23 421.97 393.98 C 421.92 409.49 420.79 425.07 417.52 440.26 C 415.47 449.77 412.72 459.28 407.70 467.69 C 398.56 483.40 384.56 495.67 369.44 505.45 C 352.77 515.95 334.39 523.79 315.22 528.33 C 299.41 532.21 282.84 533.19 266.76 530.46 C 243.73 526.78 221.74 518.04 201.54 506.52 C 184.09 496.34 167.65 483.97 154.59 468.45 C 146.97 459.38 140.63 449.04 137.28 437.62 C 129.32 412.15 129.43 384.20 137.75 358.83 C 146.64 330.93 164.30 306.40 185.99 286.98 C 206.62 268.72 231.25 254.37 258.23 248.09 C 267.57 246.21 277.03 244.85 286.51 243.76 M 220.59 282.61 C 193.80 302.32 174.75 330.38 158.41 358.91 C 196.91 361.29 235.42 363.70 273.99 364.74 C 315.38 365.46 357.05 365.49 398.04 358.95 C 386.89 341.50 386.09 319.12 372.78 302.86 C 363.26 302.52 353.57 300.06 345.96 294.10 C 335.17 285.75 328.94 273.31 321.76 262.03 C 311.32 259.92 300.66 258.78 290.00 258.99 C 265.09 259.12 240.54 267.78 220.59 282.61 M 255.29 384.26 C 253.78 396.47 246.04 407.32 235.64 413.67 C 219.98 423.33 200.36 425.72 182.55 421.64 C 171.36 419.27 161.08 413.29 153.45 404.77 C 155.81 431.35 169.01 456.47 188.91 474.12 C 220.35 502.10 264.52 513.75 305.93 508.63 C 325.52 506.10 344.82 499.48 360.99 487.96 C 376.36 477.10 388.53 461.74 395.38 444.20 C 402.99 425.27 404.76 404.44 403.13 384.24 C 353.85 384.28 304.57 384.23 255.29 384.26 Z" />
<path fill="#000000" opacity="1.00" d=" M 769.31 251.69 C 774.43 253.24 779.22 256.43 781.76 261.26 C 786.19 269.35 785.87 279.01 784.80 287.90 C 779.81 288.52 773.55 287.89 771.23 282.67 C 767.17 272.85 769.95 261.97 769.31 251.69 Z" />
<path fill="#ffffff" opacity="1.00" d=" M 220.59 282.61 C 240.54 267.78 265.09 259.12 290.00 258.99 C 300.66 258.78 311.32 259.92 321.76 262.03 C 328.94 273.31 335.17 285.75 345.96 294.10 C 353.57 300.06 363.26 302.52 372.78 302.86 C 386.09 319.12 386.89 341.50 398.04 358.95 C 357.05 365.49 315.38 365.46 273.99 364.74 C 235.42 363.70 196.91 361.29 158.41 358.91 C 174.75 330.38 193.80 302.32 220.59 282.61 Z" />
<path fill="#000000" opacity="1.00" d=" M 668.52 260.80 C 684.67 259.82 701.25 259.64 716.94 264.13 C 724.30 266.08 730.20 271.47 734.21 277.78 C 743.29 291.95 746.63 308.80 754.54 323.54 C 762.65 338.49 772.88 352.20 780.58 367.38 C 782.92 371.94 784.94 376.81 785.19 382.00 C 786.91 402.28 781.78 422.51 774.06 441.13 C 766.87 458.12 757.29 474.17 745.11 488.06 C 738.98 494.66 732.55 501.12 724.86 505.90 C 709.26 515.57 691.19 520.66 673.05 522.68 C 648.91 525.34 624.37 523.01 600.88 517.04 C 580.29 511.69 560.29 503.43 542.74 491.32 C 528.66 481.53 515.95 468.84 509.15 452.86 C 503.97 441.06 503.26 427.63 506.04 415.13 C 509.68 398.11 517.56 382.34 526.54 367.56 C 537.01 350.49 549.36 334.63 562.76 319.77 C 575.13 306.12 588.45 293.29 603.03 282.01 C 609.93 276.73 617.13 271.76 624.95 267.92 C 632.09 264.36 640.19 263.77 648.00 262.99 C 654.87 262.50 661.65 261.25 668.52 260.80 M 633.72 286.75 C 615.30 294.96 599.74 308.47 586.70 323.67 C 574.79 337.74 564.61 353.20 555.48 369.18 C 621.82 369.21 688.01 360.44 754.39 364.02 C 749.07 343.71 731.60 329.76 724.60 310.24 C 724.02 309.33 724.00 307.53 722.63 307.50 C 711.20 305.05 701.03 312.44 690.02 313.73 C 685.12 314.40 680.74 311.53 677.79 307.89 C 678.68 304.52 680.08 301.15 682.92 298.95 C 692.16 291.48 706.72 293.11 713.89 282.62 C 687.76 275.05 658.73 275.37 633.72 286.75 M 658.08 384.55 C 641.25 386.85 623.80 390.58 609.87 400.86 C 606.42 403.21 603.99 406.65 600.99 409.46 C 584.66 409.55 568.32 409.48 551.99 409.49 C 549.17 409.76 547.02 407.09 546.26 404.65 C 544.97 399.57 550.11 395.27 549.02 390.25 C 546.52 388.33 543.16 389.12 540.27 389.20 C 531.17 401.81 524.00 417.01 525.48 432.92 C 526.63 447.51 535.60 460.26 546.62 469.36 C 562.64 482.54 582.35 490.34 602.22 495.62 C 630.06 502.71 659.21 504.83 687.76 501.54 C 698.91 500.33 709.16 494.79 717.48 487.46 C 729.01 477.26 737.52 464.18 744.74 450.71 C 755.01 431.08 762.69 410.21 769.52 389.17 C 732.73 383.52 695.19 380.21 658.08 384.55 Z" />
<path fill="#ffffff" opacity="1.00" d=" M 633.72 286.75 C 658.73 275.37 687.76 275.05 713.89 282.62 C 706.72 293.11 692.16 291.48 682.92 298.95 C 680.08 301.15 678.68 304.52 677.79 307.89 C 680.74 311.53 685.12 314.40 690.02 313.73 C 701.03 312.44 711.20 305.05 722.63 307.50 C 724.00 307.53 724.02 309.33 724.60 310.24 C 731.60 329.76 749.07 343.71 754.39 364.02 C 688.01 360.44 621.82 369.21 555.48 369.18 C 564.61 353.20 574.79 337.74 586.70 323.67 C 599.74 308.47 615.30 294.96 633.72 286.75 Z" />
<path fill="#ffffff" opacity="1.00" d=" M 658.08 384.55 C 695.19 380.21 732.73 383.52 769.52 389.17 C 762.69 410.21 755.01 431.08 744.74 450.71 C 737.52 464.18 729.01 477.26 717.48 487.46 C 709.16 494.79 698.91 500.33 687.76 501.54 C 659.21 504.83 630.06 502.71 602.22 495.62 C 582.35 490.34 562.64 482.54 546.62 469.36 C 535.60 460.26 526.63 447.51 525.48 432.92 C 524.00 417.01 531.17 401.81 540.27 389.20 C 543.16 389.12 546.52 388.33 549.02 390.25 C 550.11 395.27 544.97 399.57 546.26 404.65 C 547.02 407.09 549.17 409.76 551.99 409.49 C 568.32 409.48 584.66 409.55 600.99 409.46 C 603.99 406.65 606.42 403.21 609.87 400.86 C 623.80 390.58 641.25 386.85 658.08 384.55 Z" />
<path fill="#ffffff" opacity="1.00" d=" M 255.29 384.26 C 304.57 384.23 353.85 384.28 403.13 384.24 C 404.76 404.44 402.99 425.27 395.38 444.20 C 388.53 461.74 376.36 477.10 360.99 487.96 C 344.82 499.48 325.52 506.10 305.93 508.63 C 264.52 513.75 220.35 502.10 188.91 474.12 C 169.01 456.47 155.81 431.35 153.45 404.77 C 161.08 413.29 171.36 419.27 182.55 421.64 C 200.36 425.72 219.98 423.33 235.64 413.67 C 246.04 407.32 253.78 396.47 255.29 384.26 Z" />
<path fill="#000000" opacity="1.00" d=" M 239.25 671.14 C 287.19 655.84 338.10 654.38 388.00 654.74 C 430.47 655.44 472.89 658.74 515.01 664.20 C 535.79 666.89 556.48 670.27 577.02 674.41 C 586.92 675.25 596.94 672.34 606.79 674.45 C 610.09 675.20 613.28 677.01 615.07 679.98 C 616.82 682.93 616.90 686.46 617.04 689.80 C 579.70 692.91 542.22 690.19 504.98 687.08 C 455.40 682.78 405.82 677.10 355.99 677.25 C 335.27 677.70 314.45 678.42 294.01 682.14 C 269.79 686.64 246.59 695.33 224.05 705.07 C 199.48 715.31 175.08 727.70 148.25 730.54 C 153.06 718.02 163.56 708.84 174.21 701.24 C 194.00 687.63 216.47 678.46 239.25 671.14 Z" />
<path fill="#ffffff" opacity="1.00" d=" M 16.19 689.67 C 25.13 707.00 31.35 725.60 36.80 744.28 C 46.92 780.07 53.76 816.68 62.06 852.91 C 47.60 841.01 40.45 822.88 35.99 805.20 C 26.79 767.15 27.25 727.34 16.19 689.67 Z" />
</svg>
