<?xml version="1.0" encoding="UTF-8" ?>
<!DOCTYPE svg PUBLIC "-//W3C//DTD SVG 1.1//EN" "http://www.w3.org/Graphics/SVG/1.1/DTD/svg11.dtd">
<svg width="190pt" height="240pt" viewBox="0 0 190 240" version="1.1" xmlns="http://www.w3.org/2000/svg">
<g id="#ffffffff">
<path fill="#ffffff" opacity="1.00" d=" M 57.32 0.00 L 60.69 0.00 L 60.68 0.61 C 59.66 1.15 58.61 3.34 57.42 2.61 C 57.35 2.17 57.21 1.28 57.14 0.84 L 57.32 0.00 Z" />
<path fill="#ffffff" opacity="1.00" d=" M 52.13 1.59 C 52.82 1.77 54.20 2.12 54.89 2.29 L 54.90 2.99 C 54.24 2.81 52.93 2.44 52.28 2.26 L 52.13 1.59 Z" />
<path fill="#ffffff" opacity="1.00" d=" M 83.99 8.10 C 85.54 7.80 86.42 6.43 87.52 5.44 L 88.17 5.14 C 86.61 6.60 85.37 9.17 82.83 8.63 L 82.23 8.19 C 82.67 8.17 83.55 8.12 83.99 8.10 Z" />
<path fill="#ffffff" opacity="1.00" d=" M 44.05 10.92 C 44.88 8.86 47.01 8.16 49.08 8.22 C 48.94 8.52 48.67 9.13 48.54 9.43 C 47.32 10.58 45.60 10.65 44.05 10.92 Z" />
<path fill="#ffffff" opacity="1.00" d=" M 113.69 12.37 C 115.03 12.26 116.51 12.44 117.29 13.70 C 116.56 13.70 115.10 13.71 114.37 13.72 C 114.20 13.38 113.86 12.70 113.69 12.37 Z" />
<path fill="#ffffff" opacity="1.00" d=" M 138.03 25.89 C 138.97 22.96 141.62 21.04 144.72 21.17 C 144.90 26.16 145.95 31.07 145.92 36.07 C 146.18 36.58 146.71 37.59 146.97 38.10 C 146.67 37.85 146.07 37.33 145.76 37.08 C 145.79 31.83 143.98 26.76 144.53 21.50 C 143.45 21.72 142.38 21.93 141.31 22.14 C 140.23 23.35 139.33 24.70 138.80 26.24 C 138.33 26.44 137.40 26.82 136.94 27.02 C 137.21 26.73 137.76 26.17 138.03 25.89 Z" />
<path fill="#ffffff" opacity="1.00" d=" M 20.25 39.36 C 20.16 37.87 20.91 36.45 22.41 36.04 C 22.73 37.59 21.68 38.90 20.25 39.36 Z" />
<path fill="#ffffff" opacity="1.00" d=" M 74.99 42.71 C 75.41 42.67 76.24 42.59 76.65 42.55 C 76.27 43.37 75.89 44.20 75.51 45.02 L 75.25 45.58 C 74.81 45.55 73.93 45.48 73.48 45.45 C 73.15 45.19 72.50 44.66 72.17 44.40 L 73.35 44.71 C 73.76 44.21 74.58 43.21 74.99 42.71 Z" />
<path fill="#ffffff" opacity="1.00" d=" M 46.58 49.94 C 49.44 46.32 53.88 45.26 57.87 43.51 C 60.19 44.34 62.77 44.03 65.01 45.09 C 66.15 45.21 67.25 45.44 68.33 45.78 C 70.74 47.36 73.27 48.87 76.28 48.58 C 76.41 48.82 76.67 49.29 76.81 49.53 C 77.41 50.60 78.02 51.66 78.64 52.73 C 79.90 52.17 81.15 51.61 82.41 51.05 C 82.66 51.67 83.18 52.92 83.44 53.54 C 85.41 53.15 87.37 52.73 89.37 52.45 L 90.82 53.30 C 94.48 52.68 98.15 53.31 101.82 53.23 C 101.83 53.85 101.84 55.10 101.85 55.73 C 102.75 55.78 104.56 55.90 105.46 55.96 C 104.69 57.14 103.90 58.31 103.11 59.48 C 105.94 60.94 109.20 60.22 112.24 60.37 C 112.80 60.65 113.90 61.21 114.45 61.49 C 115.05 62.13 115.67 62.75 116.29 63.38 C 118.61 63.19 120.75 64.03 122.69 65.24 C 125.14 65.37 127.82 65.10 130.01 66.45 C 130.19 66.80 130.54 67.48 130.72 67.83 C 133.44 68.11 136.08 67.32 138.73 66.87 C 139.40 69.70 139.76 72.58 139.94 75.48 C 140.95 76.27 141.96 77.05 142.97 77.84 C 143.29 78.09 143.92 78.59 144.24 78.84 C 144.33 80.17 144.45 81.49 144.59 82.81 C 144.98 87.87 146.39 92.78 146.80 97.84 C 147.22 99.19 147.63 100.56 148.11 101.90 C 148.28 102.09 148.62 102.45 148.79 102.64 C 149.93 103.90 151.53 105.08 151.67 106.92 C 151.03 117.24 150.68 127.71 152.46 137.93 C 152.60 139.35 152.71 140.78 152.89 142.20 C 153.04 142.37 153.34 142.73 153.49 142.90 L 154.59 144.17 C 149.92 143.50 145.68 145.85 141.04 145.27 C 136.40 145.02 131.99 146.67 127.46 147.24 C 126.34 148.22 124.78 147.93 123.44 148.20 C 122.11 148.87 120.61 148.86 119.17 149.07 C 115.33 150.64 110.91 149.96 106.82 150.76 C 106.03 151.51 105.09 151.88 104.00 151.89 C 100.85 152.28 97.98 153.74 94.93 154.55 C 92.21 154.86 89.46 154.65 86.72 154.59 C 82.92 156.36 82.46 162.22 86.81 163.34 C 88.12 163.00 88.92 161.80 89.92 161.00 C 94.00 160.96 98.32 161.53 102.06 159.49 C 104.37 158.07 107.10 158.19 109.59 157.38 C 110.75 157.33 111.91 157.28 113.08 157.25 C 114.41 155.94 116.32 156.38 118.01 156.26 C 125.01 155.85 131.64 153.24 138.64 152.79 L 139.45 151.90 C 142.51 151.80 145.58 151.85 148.65 151.92 C 147.06 153.98 146.55 156.93 144.25 158.37 C 144.54 159.32 144.80 160.27 145.05 161.23 C 144.66 160.68 143.88 159.59 143.49 159.04 C 142.41 160.56 141.49 162.24 140.00 163.42 L 139.91 162.38 C 140.86 161.25 141.80 160.12 142.72 158.97 C 141.02 156.79 140.24 159.36 139.24 160.72 C 139.16 160.04 139.00 158.68 138.93 158.00 C 138.46 158.00 137.53 158.00 137.07 158.00 L 136.92 159.14 C 134.69 158.87 133.59 160.50 132.76 162.29 C 132.86 162.61 133.06 163.23 133.16 163.55 L 135.42 163.42 C 134.54 164.46 133.66 165.50 132.75 166.52 C 132.03 165.43 131.41 164.29 130.90 163.10 C 130.46 163.23 129.59 163.48 129.16 163.61 C 127.94 163.07 127.50 162.15 127.85 160.85 C 126.78 161.82 125.67 162.78 124.39 163.49 C 123.68 162.59 122.98 161.70 122.29 160.79 L 121.28 162.47 C 122.11 162.96 122.89 163.53 123.61 164.19 L 122.31 165.13 C 121.97 164.60 121.28 163.52 120.94 162.98 C 119.75 162.99 118.55 163.02 117.36 163.04 C 116.72 163.84 116.06 164.61 115.37 165.37 C 115.38 164.53 115.39 162.84 115.39 162.00 C 114.21 163.06 113.07 164.17 111.86 165.20 C 112.07 164.40 112.49 162.78 112.70 161.97 L 110.89 162.12 L 110.95 163.54 C 110.35 163.93 109.16 164.71 108.57 165.10 C 108.20 164.73 107.47 163.98 107.10 163.60 L 106.94 164.83 C 105.27 165.13 103.63 165.52 101.99 165.89 C 101.63 163.91 103.68 163.25 104.89 162.18 C 101.61 161.23 100.50 165.37 97.57 165.96 C 96.74 165.20 95.90 164.44 95.07 163.68 C 95.01 164.46 94.91 166.03 94.86 166.81 L 94.06 166.86 C 94.26 165.07 95.15 163.05 93.37 161.76 C 92.91 162.89 92.37 163.98 91.75 165.04 C 89.59 164.80 87.55 163.94 85.41 163.54 C 83.89 163.34 82.36 163.14 80.83 162.98 C 80.74 160.57 81.91 156.23 78.15 156.21 C 78.53 156.54 79.27 157.20 79.64 157.53 L 79.97 159.79 C 78.21 158.53 77.18 160.74 75.85 161.34 C 76.27 160.34 76.58 159.31 76.76 158.26 L 76.38 157.78 C 74.86 154.64 74.81 151.04 73.24 147.92 C 72.92 142.58 73.12 137.21 73.13 131.86 C 75.05 127.68 74.00 123.00 74.33 118.54 C 75.79 116.05 74.30 112.99 75.52 110.42 C 75.97 109.15 76.65 107.50 75.48 106.39 C 73.90 103.73 70.11 104.48 68.51 106.76 C 68.27 109.77 69.52 113.26 67.66 115.90 C 68.13 122.98 66.60 129.93 66.93 136.99 C 66.99 141.34 66.83 145.69 66.98 150.04 C 67.14 153.67 69.94 157.21 68.94 160.84 C 68.41 159.09 68.38 157.13 67.23 155.63 C 67.32 156.34 67.48 157.75 67.57 158.45 C 66.74 158.24 65.10 157.80 64.27 157.58 C 64.61 157.35 65.28 156.88 65.62 156.64 C 65.04 155.49 65.04 154.28 65.52 153.09 C 65.10 153.05 64.26 152.97 63.84 152.93 C 64.06 153.59 64.49 154.89 64.71 155.54 C 63.89 155.52 62.26 155.47 61.44 155.45 C 60.87 153.50 59.35 152.60 57.39 152.93 C 56.70 151.50 55.37 153.06 54.29 152.96 C 55.93 150.57 54.04 149.26 51.38 149.77 C 52.02 150.41 52.67 151.04 53.32 151.66 L 50.77 150.98 L 52.18 153.07 C 51.58 153.03 50.38 152.93 49.78 152.88 L 51.05 152.31 C 50.61 150.02 49.61 147.78 49.79 145.43 C 48.54 145.78 47.26 145.98 45.98 146.14 C 46.20 145.73 46.65 144.92 46.87 144.52 C 45.84 143.09 45.76 141.49 46.61 139.72 C 45.13 140.59 44.55 141.98 44.85 143.90 C 43.89 144.38 43.21 145.44 42.16 145.68 C 40.27 143.73 41.54 140.64 42.16 138.45 L 40.07 139.69 L 39.64 139.33 C 40.86 137.73 41.39 135.81 41.95 133.92 L 41.24 133.75 C 39.68 135.88 38.49 138.25 37.37 140.64 C 36.51 139.84 35.36 139.22 35.17 137.94 L 33.56 137.76 C 34.19 137.62 35.47 137.32 36.10 137.17 C 35.30 136.11 34.29 135.35 33.07 134.88 C 32.17 135.81 31.70 136.96 31.68 138.34 C 29.98 136.75 32.49 134.54 32.16 132.64 C 31.76 133.23 30.98 134.41 30.59 135.00 C 30.29 135.00 29.69 134.99 29.39 134.99 C 29.45 133.59 29.01 132.44 28.04 131.53 C 27.73 128.97 28.09 126.40 28.68 123.91 C 25.88 125.36 26.08 129.73 27.07 132.38 C 23.62 129.08 24.43 124.01 25.20 119.81 C 23.88 119.60 22.66 119.05 21.46 118.49 C 21.67 114.71 22.82 111.07 24.55 107.73 C 23.32 108.51 22.16 109.40 20.88 110.11 C 21.33 109.71 22.21 108.90 22.65 108.50 C 22.14 108.26 21.13 107.80 20.62 107.56 C 21.63 106.72 22.49 105.71 23.03 104.49 L 23.67 103.12 C 22.76 103.09 20.93 103.03 20.01 103.00 C 20.61 102.42 21.79 101.26 22.39 100.68 C 22.50 100.47 22.72 100.06 22.83 99.85 C 19.73 97.23 21.70 92.62 21.56 89.11 C 21.72 87.39 21.72 85.65 21.75 83.92 C 22.58 83.31 23.41 82.70 24.24 82.08 C 24.28 80.24 24.81 78.47 26.65 77.73 C 27.03 76.07 27.40 74.41 27.72 72.75 C 29.31 70.51 30.24 67.76 33.04 66.72 C 32.63 66.31 31.81 65.48 31.41 65.06 C 32.50 64.42 33.61 63.79 34.71 63.17 C 34.52 61.77 34.31 60.37 34.10 58.97 C 36.14 56.96 38.08 54.85 40.28 53.01 C 40.88 53.00 42.07 52.98 42.67 52.97 C 43.83 51.80 44.92 50.40 46.58 49.94 M 51.87 112.81 C 51.77 115.68 53.36 119.25 56.84 117.77 C 55.84 117.04 54.82 116.33 53.80 115.64 C 53.42 114.52 52.83 113.53 51.87 112.81 M 25.15 113.67 C 25.09 114.21 24.97 115.30 24.91 115.84 C 24.38 116.87 22.32 118.93 24.44 119.52 C 24.95 119.02 25.98 118.03 26.50 117.53 L 24.92 116.68 C 26.04 115.86 27.14 114.38 25.15 113.67 M 83.99 117.60 C 86.34 118.48 88.70 116.33 89.92 114.45 C 87.42 114.02 86.32 117.12 83.99 117.60 M 80.56 116.83 C 79.05 117.61 77.44 118.11 75.75 118.24 C 75.78 119.94 77.16 119.99 78.51 119.97 C 79.12 118.59 80.30 117.81 81.80 117.83 C 82.11 116.82 82.42 115.82 82.74 114.83 C 81.63 115.10 80.55 115.47 80.56 116.83 M 59.89 115.60 C 59.62 118.24 62.24 119.64 64.10 120.93 C 64.46 120.29 65.17 119.02 65.52 118.38 C 65.72 117.10 65.89 115.76 64.12 115.74 C 64.03 116.43 63.86 117.80 63.78 118.49 C 62.15 120.27 61.62 115.96 59.89 115.60 M 30.47 116.96 C 29.60 117.78 28.72 118.58 27.82 119.37 C 27.68 121.53 29.42 123.14 31.30 123.84 C 35.39 124.93 38.77 127.93 43.07 128.17 C 43.03 128.69 42.93 129.72 42.88 130.24 C 44.10 130.23 45.32 130.22 46.55 130.22 C 47.51 130.77 48.48 131.33 49.44 131.89 C 52.41 131.84 55.06 133.29 57.92 133.80 C 60.25 133.91 63.58 134.34 64.56 131.58 C 64.97 128.45 64.88 124.48 61.48 123.00 C 62.47 124.78 61.53 128.19 58.98 127.08 C 56.16 125.73 53.00 125.48 50.13 124.29 C 48.21 123.48 45.70 123.91 44.51 121.84 C 44.00 121.82 42.97 121.79 42.45 121.77 C 40.24 119.24 36.32 119.44 33.94 117.10 C 32.78 117.04 31.62 117.00 30.47 116.96 M 77.80 129.27 C 78.57 130.32 79.00 131.54 79.19 132.83 C 79.90 133.53 80.62 134.24 81.33 134.95 C 84.77 134.92 88.21 134.94 91.65 134.95 L 92.40 133.93 C 97.99 133.88 103.45 132.60 108.96 131.77 C 110.29 131.24 111.49 130.43 112.76 129.78 C 112.73 128.62 112.72 127.46 112.71 126.31 C 111.26 124.77 108.97 123.62 107.17 125.38 C 101.15 125.04 95.46 127.18 89.53 127.58 C 86.09 127.92 81.55 129.28 79.10 126.06 C 80.09 124.98 81.09 123.92 82.09 122.85 C 78.61 122.21 77.42 126.60 77.80 129.27 M 75.48 135.36 C 75.34 135.88 75.05 136.93 74.91 137.45 C 75.54 138.27 76.16 139.11 76.75 139.96 C 77.17 139.12 77.60 138.29 78.03 137.46 C 77.18 136.80 76.77 135.24 75.48 135.36 M 56.62 144.98 C 55.33 145.58 54.05 146.17 52.79 146.82 C 58.61 147.65 62.86 142.64 65.81 138.30 C 62.41 139.95 59.69 142.79 56.62 144.98 M 81.80 140.21 C 83.36 141.91 85.69 142.58 87.49 143.98 C 89.22 144.69 90.88 145.51 92.56 146.33 C 94.04 147.02 95.74 148.90 97.38 147.43 C 94.79 146.80 92.82 144.91 90.45 143.79 C 87.74 142.21 84.87 140.88 81.80 140.21 M 143.17 155.42 C 141.68 157.18 145.33 157.77 144.03 155.58 L 143.17 155.42 Z" />
<path fill="#ffffff" opacity="1.00" d=" M 10.07 54.59 C 10.04 53.28 10.63 52.37 11.86 51.87 C 12.05 53.38 11.46 54.29 10.07 54.59 Z" />
<path fill="#ffffff" opacity="1.00" d=" M 116.24 60.04 C 117.61 59.43 118.98 58.83 120.36 58.24 C 120.96 59.75 121.55 61.27 122.26 62.74 C 120.45 61.31 118.20 60.75 116.04 60.12 L 116.24 60.04 Z" />
<path fill="#ffffff" opacity="1.00" d=" M 123.55 63.51 C 125.14 62.89 126.71 62.21 128.24 61.46 C 128.61 61.78 129.37 62.41 129.74 62.73 C 131.26 62.70 132.77 62.65 134.29 62.68 C 134.46 62.88 134.78 63.26 134.95 63.46 C 131.28 65.31 127.40 63.09 123.55 63.51 Z" />
<path fill="#ffffff" opacity="1.00" d=" M 25.31 74.22 C 26.07 71.19 26.85 68.02 29.10 65.71 C 28.21 68.70 26.56 71.38 25.31 74.22 Z" />
<path fill="#ffffff" opacity="1.00" d=" M 8.86 73.15 C 11.61 81.69 7.72 90.51 8.04 99.21 C 7.46 90.49 10.88 81.83 8.86 73.15 Z" />
<path fill="#ffffff" opacity="1.00" d=" M 180.17 83.26 C 182.24 80.48 183.93 77.45 185.91 74.61 C 184.35 77.70 182.65 80.80 180.17 83.26 Z" />
<path fill="#ffffff" opacity="1.00" d=" M 176.34 86.84 C 175.66 85.13 177.60 83.66 179.16 84.37 C 178.45 85.19 177.71 85.97 176.93 86.72 L 176.34 86.84 Z" />
<path fill="#ffffff" opacity="1.00" d=" M 174.41 87.37 L 174.80 87.26 C 174.89 89.25 174.81 91.23 174.77 93.22 L 174.24 93.01 C 173.45 91.95 173.37 90.61 173.11 89.38 C 173.44 88.88 174.09 87.87 174.41 87.37 Z" />
<path fill="#ffffff" opacity="1.00" d=" M 175.02 94.09 C 175.96 97.29 175.44 100.71 176.40 103.91 C 177.41 113.16 176.17 122.48 174.20 131.52 C 174.54 129.72 174.40 127.90 174.14 126.11 L 174.39 125.49 C 175.71 123.01 175.64 120.22 175.27 117.52 L 176.43 117.56 C 176.14 113.14 177.30 108.42 175.52 104.22 C 175.50 100.84 175.67 97.43 175.02 94.09 Z" />
<path fill="#ffffff" opacity="1.00" d=" M 5.23 104.44 C 4.99 102.73 6.32 101.16 7.96 100.84 C 8.12 102.59 6.69 103.81 5.23 104.44 Z" />
<path fill="#ffffff" opacity="1.00" d=" M 168.28 143.33 C 169.05 141.37 169.76 139.37 170.85 137.54 C 170.09 139.66 169.36 141.79 168.68 143.94 C 167.69 143.23 166.69 142.53 165.69 141.84 C 165.33 142.49 164.59 143.78 164.22 144.43 C 164.69 143.28 165.20 142.14 165.71 141.00 C 166.35 141.59 167.64 142.75 168.28 143.33 Z" />
<path fill="#ffffff" opacity="1.00" d=" M 1.97 142.97 C 2.75 145.50 3.40 148.07 3.85 150.68 C 4.86 150.62 5.87 150.56 6.89 150.52 C 7.69 153.13 9.83 154.69 12.07 156.03 C 10.90 155.39 9.72 154.78 8.53 154.20 C 7.90 153.09 7.27 151.98 6.67 150.85 C 5.74 151.08 4.81 151.32 3.88 151.56 C 3.16 148.71 2.42 145.87 1.97 142.97 Z" />
<path fill="#ffffff" opacity="1.00" d=" M 27.13 145.85 C 28.53 147.38 29.94 148.91 31.27 150.52 C 31.42 151.14 31.72 152.38 31.88 153.00 C 30.83 152.26 29.74 151.57 28.64 150.93 C 29.08 149.70 28.91 148.58 28.14 147.56 L 27.31 147.50 C 27.26 147.09 27.17 146.26 27.13 145.85 Z" />
<path fill="#ffffff" opacity="1.00" d=" M 42.18 147.18 C 42.89 147.84 42.89 147.84 42.18 147.18 Z" />
<path fill="#ffffff" opacity="1.00" d=" M 47.19 147.29 C 47.89 147.90 47.89 147.90 47.19 147.29 Z" />
<path fill="#ffffff" opacity="1.00" d=" M 161.84 149.16 C 162.04 148.80 162.44 148.08 162.64 147.72 C 161.60 151.78 161.75 156.21 164.11 159.80 C 161.50 156.93 161.20 152.81 161.84 149.16 Z" />
<path fill="#ffffff" opacity="1.00" d=" M 47.25 149.19 C 47.92 149.84 47.92 149.84 47.25 149.19 Z" />
<path fill="#ffffff" opacity="1.00" d=" M 55.31 154.56 C 54.86 153.05 58.28 153.09 57.72 154.61 C 57.12 154.59 55.91 154.57 55.31 154.56 Z" />
<path fill="#ffffff" opacity="1.00" d=" M 36.03 156.15 C 36.49 156.40 37.40 156.90 37.86 157.15 C 42.11 158.55 45.98 160.94 49.26 163.97 C 44.98 162.26 41.64 158.49 37.00 157.29 C 38.23 160.63 41.09 162.79 44.27 164.10 C 44.54 164.23 45.08 164.49 45.36 164.62 C 40.97 163.60 37.38 160.47 36.03 156.15 Z" />
<path fill="#ffffff" opacity="1.00" d=" M 17.20 160.03 C 19.61 160.62 22.02 161.24 24.37 162.04 C 21.85 161.96 19.43 161.17 17.20 160.03 Z" />
<path fill="#ffffff" opacity="1.00" d=" M 138.20 161.17 L 138.83 161.18 L 138.82 161.81 L 138.19 161.81 L 138.20 161.17 Z" />
<path fill="#ffffff" opacity="1.00" d=" M 31.10 163.29 C 31.31 163.33 31.74 163.41 31.95 163.45 C 31.74 163.41 31.31 163.33 31.10 163.29 Z" />
<path fill="#ffffff" opacity="1.00" d=" M 34.21 163.43 C 35.66 163.34 37.11 163.44 38.52 163.80 C 38.33 166.91 38.76 169.98 39.36 173.02 C 39.93 176.01 38.76 178.92 38.10 181.78 L 39.79 180.90 C 38.87 181.81 37.97 182.74 37.09 183.69 C 37.98 180.83 39.07 177.96 39.09 174.93 C 39.21 171.54 37.70 168.28 38.33 164.87 C 37.00 164.27 35.62 163.79 34.21 163.43 Z" />
<path fill="#ffffff" opacity="1.00" d=" M 137.20 163.15 C 137.86 163.86 137.86 163.86 137.20 163.15 Z" />
<path fill="#ffffff" opacity="1.00" d=" M 50.71 164.23 C 52.58 164.16 54.55 164.73 55.17 166.70 C 53.39 166.72 51.29 166.15 50.71 164.23 Z" />
<path fill="#ffffff" opacity="1.00" d=" M 110.27 165.29 C 111.58 165.96 111.57 166.63 110.24 167.30 C 109.00 166.60 109.01 165.92 110.27 165.29 Z" />
<path fill="#ffffff" opacity="1.00" d=" M 160.61 168.19 C 162.63 167.19 164.75 166.37 166.72 165.24 C 165.39 167.28 162.71 167.47 160.61 168.19 Z" />
<path fill="#ffffff" opacity="1.00" d=" M 58.16 168.13 C 62.45 168.55 66.97 168.97 70.95 170.66 C 71.93 174.51 71.35 178.62 72.70 182.40 C 70.49 178.87 72.29 174.13 70.39 170.63 C 66.68 169.09 62.49 169.10 58.55 168.47 L 58.16 168.13 Z" />
<path fill="#ffffff" opacity="1.00" d=" M 45.69 170.74 L 46.29 170.03 C 45.07 172.83 43.78 175.63 42.12 178.20 C 42.33 177.64 42.76 176.54 42.98 175.99 C 43.10 175.75 43.34 175.28 43.46 175.05 C 44.20 173.61 44.86 172.13 45.69 170.74 Z" />
<path fill="#ffffff" opacity="1.00" d=" M 151.42 171.84 C 152.92 171.63 154.42 171.44 155.92 171.20 C 154.50 171.68 153.03 171.97 151.59 172.31 C 151.47 175.09 154.21 176.10 156.42 176.68 C 157.97 178.04 159.62 179.30 161.00 180.84 C 158.49 178.52 155.48 176.90 152.52 175.25 C 151.11 174.71 151.69 172.99 151.42 171.84 Z" />
<path fill="#ffffff" opacity="1.00" d=" M 77.39 172.17 C 78.23 172.55 79.06 172.95 79.89 173.35 C 84.31 174.25 88.67 175.69 93.21 175.78 C 95.98 176.97 99.15 176.24 101.94 177.48 C 106.53 177.36 111.50 178.44 115.84 176.71 C 117.84 176.59 119.86 176.50 121.81 175.97 C 123.82 175.25 125.91 174.68 127.72 173.52 C 128.16 173.54 129.03 173.58 129.46 173.60 C 130.35 174.63 131.22 175.67 132.05 176.76 C 132.58 176.72 133.66 176.66 134.19 176.62 C 134.28 179.37 137.69 180.09 139.18 182.07 C 142.08 183.28 143.59 186.28 146.18 187.96 C 146.20 188.77 146.22 189.58 146.25 190.40 C 144.83 191.90 143.43 193.41 142.02 194.92 C 139.58 198.03 135.07 198.41 133.02 201.97 C 129.33 203.57 127.33 207.31 125.35 210.56 C 124.74 210.57 123.52 210.58 122.91 210.58 C 120.29 215.57 115.58 218.65 111.55 222.33 C 108.08 223.13 106.20 226.34 103.11 227.81 C 101.20 230.21 98.37 231.40 95.59 232.46 C 94.90 233.79 93.58 234.51 92.36 235.25 C 91.93 235.27 91.07 235.29 90.65 235.30 C 89.31 233.64 87.95 232.01 86.68 230.30 C 86.56 228.28 87.02 226.05 85.78 224.29 C 84.17 221.03 85.71 216.82 82.91 214.12 C 82.96 210.40 82.69 206.69 82.02 203.02 C 81.08 198.39 81.70 193.65 81.40 188.97 C 81.03 188.57 80.29 187.78 79.92 187.38 C 79.83 184.56 79.26 181.75 77.53 179.46 C 77.31 177.03 77.28 174.60 77.39 172.17 M 77.75 172.52 C 77.58 175.09 77.36 177.79 78.60 180.15 C 79.99 183.04 80.23 186.30 81.77 189.11 C 82.32 194.71 81.26 200.50 82.98 205.98 C 84.03 209.35 82.41 213.21 84.76 216.21 C 85.03 219.26 85.49 222.28 86.69 225.13 C 86.94 227.69 86.97 230.32 88.70 232.41 L 89.41 232.24 C 89.60 233.48 90.42 234.32 91.41 235.01 C 92.09 234.71 93.46 234.12 94.14 233.82 C 94.14 231.71 96.45 231.80 97.86 231.08 C 100.74 230.29 102.01 227.15 104.75 226.14 C 105.69 225.30 106.62 224.45 107.47 223.52 C 110.70 222.87 112.74 220.19 115.36 218.45 C 117.24 216.56 119.71 215.15 120.75 212.58 C 121.54 210.92 122.94 209.84 124.83 209.81 C 125.71 208.40 126.93 207.24 127.83 205.84 C 129.57 202.63 133.35 201.43 135.59 198.62 C 139.67 196.97 142.32 193.40 145.59 190.65 C 145.61 190.04 145.63 188.83 145.65 188.23 C 141.88 184.24 137.02 181.63 133.34 177.58 C 131.17 177.69 130.90 174.86 129.05 174.25 C 125.56 174.43 122.57 176.76 119.06 176.94 C 110.34 178.77 101.18 178.23 92.61 176.14 C 90.60 175.91 88.52 175.98 86.63 175.18 C 84.34 174.75 82.03 174.43 79.72 174.16 C 79.23 173.75 78.24 172.93 77.75 172.52 Z" />
<path fill="#ffffff" opacity="1.00" d=" M 72.88 182.77 C 73.13 183.05 73.64 183.60 73.89 183.88 C 74.34 185.43 74.54 187.09 75.36 188.52 C 75.64 188.98 76.20 189.91 76.48 190.37 C 76.65 194.92 76.49 199.47 76.63 204.02 C 77.05 207.65 77.87 211.23 77.93 214.90 C 79.53 218.08 79.46 221.74 80.78 225.02 C 81.67 227.36 81.61 229.91 82.24 232.32 C 83.27 234.59 85.36 236.12 87.27 237.62 C 87.36 238.21 87.53 239.39 87.61 239.99 C 90.02 239.80 92.62 240.34 94.87 239.20 C 95.33 238.89 96.24 238.26 96.70 237.95 C 98.73 237.28 100.78 236.63 102.75 235.79 C 104.93 233.91 106.93 231.77 109.49 230.39 C 107.21 232.04 105.09 233.88 103.29 236.03 C 100.51 236.98 97.18 237.37 95.40 240.00 L 86.96 240.00 C 86.74 239.13 86.52 238.25 86.31 237.38 C 80.82 234.11 81.04 227.45 79.51 222.01 C 78.62 217.73 77.10 213.60 77.03 209.17 C 75.19 203.30 76.99 197.11 75.99 191.16 C 74.66 188.48 73.74 185.63 72.88 182.77 Z" />
<path fill="#ffffff" opacity="1.00" d=" M 162.16 182.74 C 164.39 186.15 167.04 189.28 168.34 193.22 C 166.49 190.57 165.48 187.40 163.09 185.12 C 162.86 184.53 162.39 183.34 162.16 182.74 Z" />
<path fill="#ffffff" opacity="1.00" d=" M 143.86 200.04 C 146.57 197.79 148.72 194.98 151.30 192.61 C 154.59 193.81 156.83 197.28 158.82 200.12 C 156.57 197.40 153.99 194.98 151.36 192.66 C 149.10 195.33 146.86 198.15 143.86 200.04 Z" />
<path fill="#ffffff" opacity="1.00" d=" M 168.85 193.93 C 171.17 196.15 171.77 199.40 172.81 202.30 C 171.39 199.56 170.23 196.69 168.85 193.93 Z" />
<path fill="#ffffff" opacity="1.00" d=" M 128.21 214.25 C 129.16 213.46 130.11 212.68 131.06 211.88 L 130.42 212.60 C 129.13 213.91 127.83 215.20 126.61 216.57 C 125.31 217.61 124.10 218.75 122.91 219.91 C 123.16 219.48 123.65 218.62 123.90 218.19 C 125.60 217.20 127.10 215.89 128.21 214.25 Z" />
<path fill="#ffffff" opacity="1.00" d=" M 118.22 222.94 C 118.69 222.76 119.63 222.39 120.10 222.21 C 119.74 222.48 119.03 223.02 118.68 223.29 C 117.76 224.91 115.81 225.32 114.30 226.17 C 113.83 228.40 111.76 229.36 109.86 230.16 C 110.90 229.49 111.95 228.83 113.02 228.20 C 113.26 227.64 113.75 226.52 114.00 225.96 C 115.53 225.16 117.20 224.41 118.22 222.94 Z" />
</g>
<g id="#000000ff">
<path fill="#000000" opacity="1.00" d=" M 52.00 1.12 C 53.72 1.03 55.43 0.94 57.14 0.84 C 57.21 1.28 57.35 2.17 57.42 2.61 C 58.61 3.34 59.66 1.15 60.68 0.61 C 63.57 0.91 66.47 1.06 69.37 1.24 C 69.45 1.28 69.62 1.35 69.71 1.39 C 73.81 3.79 78.47 5.20 82.23 8.19 L 82.83 8.63 C 85.37 9.17 86.61 6.60 88.17 5.14 C 94.66 4.45 101.15 5.29 107.34 7.29 L 107.52 7.34 L 107.65 7.45 C 109.65 9.11 111.63 10.78 113.69 12.37 C 113.86 12.70 114.20 13.38 114.37 13.72 C 115.10 13.71 116.56 13.70 117.29 13.70 C 119.59 14.91 121.79 16.37 123.37 18.47 C 126.87 19.76 130.86 21.46 132.13 25.32 L 132.31 26.20 C 129.15 25.76 127.24 22.93 124.66 21.33 C 120.11 17.70 115.01 14.90 110.03 11.93 C 104.14 7.88 97.01 5.57 89.85 5.64 C 88.69 7.08 86.14 8.54 87.48 10.69 C 87.96 12.30 89.50 13.02 90.87 13.74 C 83.08 14.59 79.26 5.82 72.04 4.74 C 70.23 4.59 68.68 3.75 67.36 2.53 C 61.84 2.37 57.13 5.86 52.72 8.76 C 48.39 12.20 42.98 14.04 38.96 17.89 C 35.77 20.93 32.12 23.45 28.99 26.55 C 29.92 26.64 31.77 26.82 32.70 26.91 C 29.60 32.88 23.61 36.53 20.13 42.23 C 16.41 48.64 11.53 54.54 9.79 61.91 C 8.25 66.32 10.80 70.62 11.24 74.97 C 11.88 81.93 13.21 89.10 11.29 95.98 C 9.86 100.64 8.76 105.54 5.81 109.54 C 6.37 110.30 6.90 111.09 7.40 111.90 C 5.75 117.71 1.34 122.68 1.34 128.94 C 0.87 134.25 3.37 139.08 4.93 143.99 C 5.37 145.39 6.40 146.47 7.27 147.62 C 7.72 147.12 8.63 146.13 9.08 145.63 C 11.65 144.46 10.48 147.57 10.25 148.85 C 11.56 151.39 12.62 154.35 15.31 155.75 C 20.61 158.69 26.58 160.10 32.34 161.86 C 33.81 162.47 35.39 162.25 36.93 162.16 C 35.26 159.09 33.60 156.03 31.88 153.00 C 31.72 152.38 31.42 151.14 31.27 150.52 C 29.94 148.91 28.53 147.38 27.13 145.85 C 23.94 140.46 21.69 134.55 21.19 128.27 C 17.99 117.98 17.97 107.06 18.64 96.40 C 19.70 90.92 18.63 84.61 22.24 79.93 C 22.31 78.48 22.37 77.03 22.42 75.59 C 23.05 75.54 24.32 75.43 24.95 75.38 L 25.31 74.22 C 26.56 71.38 28.21 68.70 29.10 65.71 C 30.28 59.65 34.60 55.02 37.85 49.99 C 40.69 45.56 45.29 42.80 48.98 39.18 C 51.58 35.01 56.12 32.61 60.35 30.41 C 68.91 25.81 78.27 22.48 87.99 21.58 C 94.05 21.04 99.98 22.72 105.86 23.89 C 108.81 25.50 111.96 26.74 114.95 28.28 C 118.39 30.76 121.55 33.61 124.74 36.40 C 126.84 36.21 128.95 36.04 131.05 35.87 C 131.52 34.36 131.99 32.86 132.45 31.35 C 133.07 31.03 134.32 30.38 134.94 30.06 C 134.01 28.82 132.63 27.79 132.31 26.20 C 132.76 26.10 133.64 25.91 134.08 25.81 C 135.03 26.23 135.98 26.63 136.94 27.02 C 137.40 26.82 138.33 26.44 138.80 26.24 C 139.33 24.70 140.23 23.35 141.31 22.14 C 142.38 21.93 143.45 21.72 144.53 21.50 C 143.98 26.76 145.79 31.83 145.76 37.08 C 146.07 37.33 146.67 37.85 146.97 38.10 C 148.88 39.53 150.46 41.32 151.64 43.39 C 154.36 44.94 156.51 47.23 158.67 49.44 C 158.82 50.02 159.12 51.18 159.28 51.76 C 159.84 51.93 160.98 52.27 161.55 52.44 C 164.75 55.60 168.44 58.19 171.68 61.30 C 173.81 63.47 176.72 64.53 179.28 66.08 C 181.06 67.18 183.02 67.94 184.97 68.68 C 185.43 68.38 186.33 67.76 186.78 67.45 C 187.68 68.59 188.48 69.94 190.00 70.31 L 190.00 70.81 C 189.46 70.99 188.38 71.33 187.84 71.50 L 187.64 71.57 L 187.57 71.69 C 187.00 72.66 186.45 73.63 185.91 74.61 C 183.93 77.45 182.24 80.48 180.17 83.26 C 179.92 83.54 179.41 84.10 179.16 84.37 C 177.60 83.66 175.66 85.13 176.34 86.84 C 175.95 86.95 175.18 87.16 174.80 87.26 L 174.41 87.37 C 174.09 87.87 173.44 88.88 173.11 89.38 C 172.04 87.89 170.82 86.51 169.59 85.17 C 169.57 84.63 169.52 83.55 169.50 83.01 C 171.38 83.86 173.21 84.83 175.01 85.85 C 178.18 82.29 181.90 78.77 182.80 73.86 C 183.56 73.10 184.31 72.34 185.07 71.58 C 180.46 69.62 175.68 67.49 172.30 63.65 C 168.45 59.38 162.83 57.20 159.19 52.69 C 155.51 49.23 152.40 44.79 147.53 42.91 C 147.55 44.51 147.57 46.11 147.60 47.71 C 142.35 47.12 137.38 45.18 132.17 44.40 C 131.29 45.34 130.93 46.97 132.08 47.86 C 136.59 52.10 138.01 58.30 140.87 63.59 C 142.20 63.10 143.71 62.20 144.71 63.80 C 144.28 65.07 143.72 66.27 143.03 67.43 C 143.79 68.59 144.56 69.75 145.33 70.92 C 143.81 75.12 145.75 79.63 147.65 83.39 C 147.27 84.21 146.89 85.02 146.51 85.84 C 148.81 91.38 147.75 98.29 152.17 102.88 C 154.47 105.58 158.00 106.62 161.45 106.55 C 161.45 107.58 161.45 108.60 161.46 109.63 C 158.82 108.97 156.14 108.47 153.45 108.09 C 151.50 115.87 152.24 124.10 153.49 131.95 C 153.74 137.05 155.69 141.92 155.56 147.05 C 153.81 148.48 152.15 150.02 150.66 151.72 C 150.39 153.62 149.93 155.47 149.41 157.31 C 148.76 157.42 147.46 157.64 146.81 157.75 C 146.38 159.45 145.93 161.15 145.48 162.85 C 147.05 165.29 148.46 167.84 149.82 170.40 C 151.24 170.39 152.66 170.38 154.08 170.38 C 154.45 169.98 155.21 169.19 155.58 168.80 C 159.24 168.03 162.09 165.40 164.91 163.12 C 162.90 160.86 159.90 159.06 159.56 155.77 C 159.70 153.12 160.36 150.53 160.65 147.89 C 161.17 143.99 163.75 140.73 164.45 136.88 C 164.70 134.98 164.67 133.05 164.75 131.14 C 166.05 131.96 167.36 132.79 168.67 133.61 C 168.35 135.05 165.82 137.70 168.05 138.61 C 171.08 135.02 172.62 130.48 174.14 126.11 C 174.40 127.90 174.54 129.72 174.20 131.52 L 173.93 132.16 C 173.81 132.38 173.57 132.81 173.45 133.02 C 172.58 134.53 171.68 136.02 170.85 137.54 C 169.76 139.37 169.05 141.37 168.28 143.33 C 167.64 142.75 166.35 141.59 165.71 141.00 C 165.20 142.14 164.69 143.28 164.22 144.43 C 163.71 145.53 163.19 146.64 162.64 147.72 C 162.44 148.08 162.04 148.80 161.84 149.16 C 161.20 152.81 161.50 156.93 164.11 159.80 C 164.45 160.19 165.13 160.97 165.47 161.36 L 165.62 161.55 L 165.67 161.56 C 166.17 161.64 167.18 161.82 167.68 161.91 C 168.07 162.16 168.86 162.65 169.25 162.89 C 168.82 162.98 167.97 163.14 167.54 163.22 C 167.33 163.73 166.92 164.74 166.72 165.24 C 164.75 166.37 162.63 167.19 160.61 168.19 C 160.13 168.44 159.17 168.93 158.70 169.18 L 158.40 169.34 L 158.20 169.66 C 157.63 170.04 156.49 170.82 155.92 171.20 C 154.42 171.44 152.92 171.63 151.42 171.84 C 151.69 172.99 151.11 174.71 152.52 175.25 C 155.48 176.90 158.49 178.52 161.00 180.84 C 161.29 181.32 161.87 182.27 162.16 182.74 C 162.39 183.34 162.86 184.53 163.09 185.12 C 165.48 187.40 166.49 190.57 168.34 193.22 C 168.47 193.40 168.72 193.75 168.85 193.93 C 170.23 196.69 171.39 199.56 172.81 202.30 C 174.69 206.62 176.61 210.94 178.85 215.09 C 178.90 217.80 179.13 220.50 179.73 223.15 C 181.18 228.92 177.38 234.23 177.88 240.00 L 159.99 240.00 C 162.01 237.70 163.95 235.28 165.14 232.44 L 165.56 231.46 C 165.98 227.80 165.90 224.09 165.22 220.48 C 165.05 218.45 164.90 216.42 164.68 214.40 C 163.04 211.45 163.01 207.80 160.65 205.22 C 160.64 204.62 160.60 203.44 160.59 202.84 C 160.00 201.92 159.41 201.02 158.82 200.12 C 156.83 197.28 154.59 193.81 151.30 192.61 C 148.72 194.98 146.57 197.79 143.86 200.04 C 143.46 200.29 142.65 200.79 142.25 201.05 C 141.89 201.53 141.18 202.51 140.82 202.99 C 137.02 205.31 133.89 208.48 131.06 211.88 C 130.11 212.68 129.16 213.46 128.21 214.25 C 127.10 215.89 125.60 217.20 123.90 218.19 C 123.65 218.62 123.16 219.48 122.91 219.91 C 122.01 220.72 121.07 221.49 120.10 222.21 C 119.63 222.39 118.69 222.76 118.22 222.94 C 117.20 224.41 115.53 225.16 114.00 225.96 C 113.75 226.52 113.26 227.64 113.02 228.20 C 111.95 228.83 110.90 229.49 109.86 230.16 L 109.49 230.39 C 106.93 231.77 104.93 233.91 102.75 235.79 C 100.78 236.63 98.73 237.28 96.70 237.95 C 96.24 238.26 95.33 238.89 94.87 239.20 C 92.62 240.34 90.02 239.80 87.61 239.99 C 87.53 239.39 87.36 238.21 87.27 237.62 C 85.36 236.12 83.27 234.59 82.24 232.32 C 81.61 229.91 81.67 227.36 80.78 225.02 C 79.46 221.74 79.53 218.08 77.93 214.90 C 77.87 211.23 77.05 207.65 76.63 204.02 C 76.49 199.47 76.65 194.92 76.48 190.37 C 76.20 189.91 75.64 188.98 75.36 188.52 C 74.54 187.09 74.34 185.43 73.89 183.88 C 73.64 183.60 73.13 183.05 72.88 182.77 L 72.70 182.40 C 71.35 178.62 71.93 174.51 70.95 170.66 C 66.97 168.97 62.45 168.55 58.16 168.13 C 57.29 167.43 56.29 166.95 55.17 166.70 C 54.55 164.73 52.58 164.16 50.71 164.23 C 50.35 164.16 49.63 164.03 49.26 163.97 C 45.98 160.94 42.11 158.55 37.86 157.15 C 37.40 156.90 36.49 156.40 36.03 156.15 C 37.38 160.47 40.97 163.60 45.36 164.62 C 45.91 164.82 47.01 165.21 47.56 165.40 C 47.55 166.47 47.54 167.54 47.53 168.61 C 47.22 168.96 46.60 169.67 46.29 170.03 L 45.69 170.74 C 44.86 172.13 44.20 173.61 43.46 175.05 C 43.27 172.86 43.84 170.75 44.63 168.74 C 43.51 166.95 42.22 165.26 40.66 163.83 C 40.10 165.60 40.48 167.39 41.17 169.06 C 41.28 171.21 41.29 173.37 41.41 175.53 L 42.98 175.99 C 42.76 176.54 42.33 177.64 42.12 178.20 C 41.47 179.20 40.62 180.05 39.79 180.90 L 38.10 181.78 C 38.76 178.92 39.93 176.01 39.36 173.02 C 38.76 169.98 38.33 166.91 38.52 163.80 C 37.11 163.44 35.66 163.34 34.21 163.43 C 33.64 163.43 32.52 163.44 31.95 163.45 C 31.74 163.41 31.31 163.33 31.10 163.29 C 28.94 162.45 26.64 162.25 24.37 162.04 C 22.02 161.24 19.61 160.62 17.20 160.03 C 16.36 159.28 15.53 158.51 14.70 157.74 L 14.57 157.62 L 14.42 157.52 C 13.83 157.15 12.66 156.40 12.07 156.03 C 9.83 154.69 7.69 153.13 6.89 150.52 C 5.87 150.56 4.86 150.62 3.85 150.68 C 3.40 148.07 2.75 145.50 1.97 142.97 C 1.37 140.68 0.70 138.40 0.00 136.13 L 0.00 125.38 C 0.35 124.30 0.71 123.22 1.08 122.14 C 2.08 121.24 2.40 120.16 2.03 118.90 C 2.45 117.29 2.86 115.67 3.25 114.06 C 2.44 113.99 0.81 113.86 0.00 113.80 L 0.00 112.69 L 0.81 112.56 C 0.58 109.21 2.10 105.87 5.23 104.44 C 6.69 103.81 8.12 102.59 7.96 100.84 C 7.98 100.43 8.02 99.61 8.04 99.21 C 7.72 90.51 11.61 81.69 8.86 73.15 C 8.60 72.88 8.07 72.34 7.81 72.06 C 8.72 70.81 8.47 68.75 7.01 68.02 C 7.07 65.45 7.02 62.88 7.01 60.31 C 7.57 60.00 8.70 59.37 9.26 59.06 C 10.83 58.31 10.33 56.21 9.95 54.89 L 10.07 54.59 C 11.46 54.29 12.05 53.38 11.86 51.87 C 14.10 47.85 17.20 44.41 19.63 40.52 C 19.78 40.23 20.10 39.65 20.25 39.36 C 21.68 38.90 22.73 37.59 22.41 36.04 C 24.64 33.58 28.19 31.65 28.00 27.87 C 26.90 27.86 24.71 27.84 23.61 27.83 C 25.16 25.70 26.76 23.58 28.80 21.89 C 32.17 19.23 34.87 15.70 38.82 13.81 C 39.36 13.59 40.44 13.15 40.98 12.93 C 42.00 12.26 43.02 11.59 44.05 10.92 C 45.60 10.65 47.32 10.58 48.54 9.43 C 48.67 9.13 48.94 8.52 49.08 8.22 C 50.26 7.33 51.45 6.44 52.63 5.54 C 53.21 5.44 54.38 5.24 54.96 5.14 C 54.95 4.60 54.91 3.52 54.90 2.99 L 54.89 2.29 C 54.20 2.12 52.82 1.77 52.13 1.59 L 52.00 1.12 M 80.48 24.78 C 77.29 26.55 73.52 26.58 70.25 28.12 C 64.35 30.34 59.71 34.77 54.12 37.58 C 57.38 44.69 66.29 41.63 72.17 44.40 C 72.50 44.66 73.15 45.19 73.48 45.45 C 73.93 45.48 74.81 45.55 75.25 45.58 L 75.51 45.02 C 82.33 48.57 89.95 52.91 97.87 51.13 C 99.94 51.40 102.03 51.48 104.11 51.53 C 107.05 53.54 110.68 52.30 113.96 52.26 C 115.15 52.22 115.26 53.75 115.84 54.49 C 113.42 54.60 111.01 54.65 108.60 54.86 C 111.10 56.64 113.66 58.36 116.24 60.04 L 116.04 60.12 C 118.20 60.75 120.45 61.31 122.26 62.74 C 122.58 62.93 123.22 63.31 123.55 63.51 C 127.40 63.09 131.28 65.31 134.95 63.46 L 135.63 64.32 C 136.18 64.43 137.28 64.65 137.84 64.76 C 137.36 57.92 132.14 53.00 129.16 47.21 C 126.60 49.34 125.69 53.05 125.16 56.23 C 120.69 55.39 121.39 49.49 118.54 46.82 C 115.63 44.52 113.19 41.72 110.50 39.18 C 110.47 38.70 110.40 37.74 110.36 37.26 C 114.23 36.90 116.98 40.73 121.01 39.59 C 121.56 40.00 122.67 40.81 123.23 41.22 C 123.22 40.68 123.22 39.59 123.22 39.04 C 120.10 35.43 116.40 32.26 112.43 29.61 C 102.62 24.87 91.26 21.73 80.48 24.78 M 46.58 49.94 C 44.92 50.40 43.83 51.80 42.67 52.97 C 42.07 52.98 40.88 53.00 40.28 53.01 C 38.08 54.85 36.14 56.96 34.10 58.97 C 34.31 60.37 34.52 61.77 34.71 63.17 C 33.61 63.79 32.50 64.42 31.41 65.06 C 31.81 65.48 32.63 66.31 33.04 66.72 C 30.24 67.76 29.31 70.51 27.72 72.75 C 27.40 74.41 27.03 76.07 26.65 77.73 C 24.81 78.47 24.28 80.24 24.24 82.08 C 23.41 82.70 22.58 83.31 21.75 83.92 C 21.72 85.65 21.72 87.39 21.56 89.11 C 21.28 89.42 20.71 90.03 20.43 90.34 C 20.13 93.94 20.72 97.66 19.20 101.09 C 20.01 100.74 21.62 100.04 22.43 99.68 L 22.39 100.68 C 21.79 101.26 20.61 102.42 20.01 103.00 C 20.93 103.03 22.76 103.09 23.67 103.12 L 23.03 104.49 C 21.72 104.68 20.42 104.45 19.16 104.12 C 20.34 105.20 20.82 106.49 19.95 107.97 L 20.62 107.56 C 21.13 107.80 22.14 108.26 22.65 108.50 C 22.21 108.90 21.33 109.71 20.88 110.11 C 22.16 109.40 23.32 108.51 24.55 107.73 C 22.82 111.07 21.67 114.71 21.46 118.49 C 22.66 119.05 23.88 119.60 25.20 119.81 C 24.43 124.01 23.62 129.08 27.07 132.38 C 26.08 129.73 25.88 125.36 28.68 123.91 C 28.09 126.40 27.73 128.97 28.04 131.53 C 29.01 132.44 29.45 133.59 29.39 134.99 C 29.69 134.99 30.29 135.00 30.59 135.00 C 30.98 134.41 31.76 133.23 32.16 132.64 C 32.49 134.54 29.98 136.75 31.68 138.34 C 31.70 136.96 32.17 135.81 33.07 134.88 C 34.29 135.35 35.30 136.11 36.10 137.17 C 35.47 137.32 34.19 137.62 33.56 137.76 L 35.17 137.94 C 35.36 139.22 36.51 139.84 37.37 140.64 C 38.49 138.25 39.68 135.88 41.24 133.75 L 41.95 133.92 C 41.39 135.81 40.86 137.73 39.64 139.33 L 40.07 139.69 L 42.16 138.45 C 41.54 140.64 40.27 143.73 42.16 145.68 C 43.21 145.44 43.89 144.38 44.85 143.90 C 44.55 141.98 45.13 140.59 46.61 139.72 C 45.76 141.49 45.84 143.09 46.87 144.52 C 46.65 144.92 46.20 145.73 45.98 146.14 C 47.26 145.98 48.54 145.78 49.79 145.43 C 49.61 147.78 50.61 150.02 51.05 152.31 L 49.78 152.88 C 50.38 152.93 51.58 153.03 52.18 153.07 L 50.77 150.98 L 53.32 151.66 C 52.67 151.04 52.02 150.41 51.38 149.77 C 54.04 149.26 55.93 150.57 54.29 152.96 C 55.37 153.06 56.70 151.50 57.39 152.93 C 59.35 152.60 60.87 153.50 61.44 155.45 C 62.26 155.47 63.89 155.52 64.71 155.54 C 64.49 154.89 64.06 153.59 63.84 152.93 C 64.26 152.97 65.10 153.05 65.52 153.09 C 65.04 154.28 65.04 155.49 65.62 156.64 C 65.28 156.88 64.61 157.35 64.27 157.58 C 65.10 157.80 66.74 158.24 67.57 158.45 C 67.48 157.75 67.32 156.34 67.23 155.63 C 68.38 157.13 68.41 159.09 68.94 160.84 C 69.94 157.21 67.14 153.67 66.98 150.04 C 66.83 145.69 66.99 141.34 66.93 136.99 C 66.60 129.93 68.13 122.98 67.66 115.90 C 69.52 113.26 68.27 109.77 68.51 106.76 C 70.11 104.48 73.90 103.73 75.48 106.39 C 76.65 107.50 75.97 109.15 75.52 110.42 C 74.30 112.99 75.79 116.05 74.33 118.54 C 74.00 123.00 75.05 127.68 73.13 131.86 C 73.12 137.21 72.92 142.58 73.24 147.92 C 74.81 151.04 74.86 154.64 76.38 157.78 L 76.76 158.26 C 76.58 159.31 76.27 160.34 75.85 161.34 C 77.18 160.74 78.21 158.53 79.97 159.79 L 79.64 157.53 C 79.27 157.20 78.53 156.54 78.15 156.21 C 81.91 156.23 80.74 160.57 80.83 162.98 C 82.36 163.14 83.89 163.34 85.41 163.54 C 87.55 163.94 89.59 164.80 91.75 165.04 C 92.37 163.98 92.91 162.89 93.37 161.76 C 95.15 163.05 94.26 165.07 94.06 166.86 L 94.86 166.81 C 94.91 166.03 95.01 164.46 95.07 163.68 C 95.90 164.44 96.74 165.20 97.57 165.96 C 100.50 165.37 101.61 161.23 104.89 162.18 C 103.68 163.25 101.63 163.91 101.99 165.89 C 103.63 165.52 105.27 165.13 106.94 164.83 L 107.10 163.60 C 107.47 163.98 108.20 164.73 108.57 165.10 C 109.16 164.71 110.35 163.93 110.95 163.54 L 110.89 162.12 L 112.70 161.97 C 112.49 162.78 112.07 164.40 111.86 165.20 C 113.07 164.17 114.21 163.06 115.39 162.00 C 115.39 162.84 115.38 164.53 115.37 165.37 C 116.06 164.61 116.72 163.84 117.36 163.04 C 118.55 163.02 119.75 162.99 120.94 162.98 C 121.28 163.52 121.97 164.60 122.31 165.13 L 123.61 164.19 C 122.89 163.53 122.11 162.96 121.28 162.47 L 122.29 160.79 C 122.98 161.70 123.68 162.59 124.39 163.49 C 125.67 162.78 126.78 161.82 127.85 160.85 C 127.50 162.15 127.94 163.07 129.16 163.61 C 129.59 163.48 130.46 163.23 130.90 163.10 C 131.41 164.29 132.03 165.43 132.75 166.52 C 133.66 165.50 134.54 164.46 135.42 163.42 L 133.16 163.55 C 133.06 163.23 132.86 162.61 132.76 162.29 C 133.59 160.50 134.69 158.87 136.92 159.14 L 137.07 158.00 C 137.53 158.00 138.46 158.00 138.93 158.00 C 139.00 158.68 139.16 160.04 139.24 160.72 C 140.24 159.36 141.02 156.79 142.72 158.97 C 141.80 160.12 140.86 161.25 139.91 162.38 L 140.00 163.42 C 141.49 162.24 142.41 160.56 143.49 159.04 C 143.88 159.59 144.66 160.68 145.05 161.23 C 144.80 160.27 144.54 159.32 144.25 158.37 C 146.55 156.93 147.06 153.98 148.65 151.92 C 145.58 151.85 142.51 151.80 139.45 151.90 L 138.64 152.79 C 131.64 153.24 125.01 155.85 118.01 156.26 C 116.32 156.38 114.41 155.94 113.08 157.25 C 111.91 157.28 110.75 157.33 109.59 157.38 C 107.10 158.19 104.37 158.07 102.06 159.49 C 98.32 161.53 94.00 160.96 89.92 161.00 C 88.92 161.80 88.12 163.00 86.81 163.34 C 82.46 162.22 82.92 156.36 86.72 154.59 C 89.46 154.65 92.21 154.86 94.93 154.55 C 97.98 153.74 100.85 152.28 104.00 151.89 C 105.09 151.88 106.03 151.51 106.82 150.76 C 110.91 149.96 115.33 150.64 119.17 149.07 C 120.61 148.86 122.11 148.87 123.44 148.20 C 124.78 147.93 126.34 148.22 127.46 147.24 C 131.99 146.67 136.40 145.02 141.04 145.27 C 145.68 145.85 149.92 143.50 154.59 144.17 L 153.49 142.90 C 153.36 141.21 153.82 139.25 152.46 137.93 C 150.68 127.71 151.03 117.24 151.67 106.92 C 151.53 105.08 149.93 103.90 148.79 102.64 C 147.74 97.41 146.93 92.15 145.77 86.96 C 145.54 85.53 145.51 84.00 144.59 82.81 C 144.45 81.49 144.33 80.17 144.24 78.84 C 143.92 78.59 143.29 78.09 142.97 77.84 C 140.16 74.48 140.55 69.79 138.47 66.00 C 135.62 66.15 132.81 68.04 130.01 66.45 C 127.82 65.10 125.14 65.37 122.69 65.24 C 120.75 64.03 118.61 63.19 116.29 63.38 C 115.67 62.75 115.05 62.13 114.45 61.49 C 113.90 61.21 112.80 60.65 112.24 60.37 C 111.83 60.11 110.99 59.58 110.57 59.31 C 110.55 59.16 110.52 58.86 110.51 58.70 C 108.52 58.43 106.73 57.52 105.46 55.96 C 104.56 55.90 102.75 55.78 101.85 55.73 C 101.84 55.10 101.83 53.85 101.82 53.23 C 98.15 53.31 94.48 52.68 90.82 53.30 L 89.37 52.45 L 89.93 52.37 C 88.64 52.32 87.34 52.26 86.05 52.21 C 83.10 50.90 79.92 50.29 76.81 49.53 C 76.67 49.29 76.41 48.82 76.28 48.58 C 73.84 47.14 70.92 46.91 68.33 45.78 C 67.25 45.44 66.15 45.21 65.01 45.09 C 62.77 44.03 60.19 44.34 57.87 43.51 C 53.88 45.26 49.44 46.32 46.58 49.94 M 42.18 147.18 C 42.89 147.84 42.89 147.84 42.18 147.18 M 47.19 147.29 C 47.89 147.90 47.89 147.90 47.19 147.29 M 47.25 149.19 C 47.92 149.84 47.92 149.84 47.25 149.19 M 55.31 154.56 C 55.91 154.57 57.12 154.59 57.72 154.61 C 58.28 153.09 54.86 153.05 55.31 154.56 M 138.20 161.17 L 138.19 161.81 L 138.82 161.81 L 138.83 161.18 L 138.20 161.17 M 137.20 163.15 C 137.86 163.86 137.86 163.86 137.20 163.15 M 110.27 165.29 C 109.01 165.92 109.00 166.60 110.24 167.30 C 111.57 166.63 111.58 165.96 110.27 165.29 M 129.30 165.19 C 129.78 165.80 129.78 165.80 129.30 165.19 M 137.29 176.73 C 140.91 176.50 144.52 175.99 148.04 175.07 C 149.51 174.91 149.68 173.47 150.00 172.34 C 148.97 171.96 147.93 171.59 146.90 171.21 C 146.29 170.14 145.68 169.07 145.06 168.00 C 142.33 170.77 139.26 173.32 137.29 176.73 M 77.39 172.17 C 77.28 174.60 77.31 177.03 77.53 179.46 C 79.26 181.75 79.83 184.56 79.92 187.38 C 80.29 187.78 81.03 188.57 81.40 188.97 C 81.70 193.65 81.08 198.39 82.02 203.02 C 82.69 206.69 82.96 210.40 82.91 214.12 C 85.71 216.82 84.17 221.03 85.78 224.29 C 87.02 226.05 86.56 228.28 86.68 230.30 C 87.95 232.01 89.31 233.64 90.65 235.30 C 91.07 235.29 91.93 235.27 92.36 235.25 C 93.58 234.51 94.90 233.79 95.59 232.46 C 98.37 231.40 101.20 230.21 103.11 227.81 C 106.20 226.34 108.08 223.13 111.55 222.33 C 115.58 218.65 120.29 215.57 122.91 210.58 C 123.52 210.58 124.74 210.57 125.35 210.56 C 127.33 207.31 129.33 203.57 133.02 201.97 C 135.07 198.41 139.58 198.03 142.02 194.92 C 143.43 193.41 144.83 191.90 146.25 190.40 C 146.22 189.58 146.20 188.77 146.18 187.96 C 143.59 186.28 142.08 183.28 139.18 182.07 C 137.69 180.09 134.28 179.37 134.19 176.62 C 133.66 176.66 132.58 176.72 132.05 176.76 C 131.22 175.67 130.35 174.63 129.46 173.60 C 129.03 173.58 128.16 173.54 127.72 173.52 C 125.91 174.68 123.82 175.25 121.81 175.97 C 119.86 176.50 117.84 176.59 115.84 176.71 C 111.50 178.44 106.53 177.36 101.94 177.48 C 99.15 176.24 95.98 176.97 93.21 175.78 C 88.67 175.69 84.31 174.25 79.89 173.35 C 79.06 172.95 78.23 172.55 77.39 172.17 Z" />
<path fill="#000000" opacity="1.00" d=" M 51.87 112.81 C 52.83 113.53 53.42 114.52 53.80 115.64 C 54.82 116.33 55.84 117.04 56.84 117.77 C 53.36 119.25 51.77 115.68 51.87 112.81 Z" />
<path fill="#000000" opacity="1.00" d=" M 25.15 113.67 C 27.14 114.38 26.04 115.86 24.92 116.68 L 26.50 117.53 C 25.98 118.03 24.95 119.02 24.44 119.52 C 22.32 118.93 24.38 116.87 24.91 115.84 C 24.97 115.30 25.09 114.21 25.15 113.67 Z" />
<path fill="#000000" opacity="1.00" d=" M 83.99 117.60 C 86.32 117.12 87.42 114.02 89.92 114.45 C 88.70 116.33 86.34 118.48 83.99 117.60 Z" />
<path fill="#000000" opacity="1.00" d=" M 80.56 116.83 C 80.55 115.47 81.63 115.10 82.74 114.83 C 82.42 115.82 82.11 116.82 81.80 117.83 C 80.30 117.81 79.12 118.59 78.51 119.97 C 77.16 119.99 75.78 119.94 75.75 118.24 C 77.44 118.11 79.05 117.61 80.56 116.83 Z" />
<path fill="#000000" opacity="1.00" d=" M 59.89 115.60 C 61.62 115.96 62.15 120.27 63.78 118.49 C 63.86 117.80 64.03 116.43 64.12 115.74 C 65.89 115.76 65.72 117.10 65.52 118.38 C 65.17 119.02 64.46 120.29 64.10 120.93 C 62.24 119.64 59.62 118.24 59.89 115.60 Z" />
<path fill="#000000" opacity="1.00" d=" M 30.47 116.96 C 31.62 117.00 32.78 117.04 33.94 117.10 C 36.32 119.44 40.24 119.24 42.45 121.77 C 42.97 121.79 44.00 121.82 44.51 121.84 C 45.70 123.91 48.21 123.48 50.13 124.29 C 53.00 125.48 56.16 125.73 58.98 127.08 C 61.53 128.19 62.47 124.78 61.48 123.00 C 64.88 124.48 64.97 128.45 64.56 131.58 C 63.58 134.34 60.25 133.91 57.92 133.80 C 55.06 133.29 52.41 131.84 49.44 131.89 C 48.48 131.33 47.51 130.77 46.55 130.22 C 45.32 130.22 44.10 130.23 42.88 130.24 C 42.93 129.72 43.03 128.69 43.07 128.17 C 38.77 127.93 35.39 124.93 31.30 123.84 C 29.42 123.14 27.68 121.53 27.82 119.37 C 28.72 118.58 29.60 117.78 30.47 116.96 Z" />
<path fill="#000000" opacity="1.00" d=" M 77.80 129.27 C 77.42 126.60 78.61 122.21 82.09 122.85 C 81.09 123.92 80.09 124.98 79.10 126.06 C 81.55 129.28 86.09 127.92 89.53 127.58 C 95.46 127.18 101.15 125.04 107.17 125.38 C 108.97 123.62 111.26 124.77 112.71 126.31 C 112.72 127.46 112.73 128.62 112.76 129.78 C 111.49 130.43 110.29 131.24 108.96 131.77 C 103.45 132.60 97.99 133.88 92.40 133.93 L 91.65 134.95 C 88.21 134.94 84.77 134.92 81.33 134.95 C 80.62 134.24 79.90 133.53 79.19 132.83 C 79.00 131.54 78.57 130.32 77.80 129.27 Z" />
<path fill="#000000" opacity="1.00" d=" M 75.48 135.36 C 76.77 135.24 77.18 136.80 78.03 137.46 C 77.60 138.29 77.17 139.12 76.75 139.96 C 76.16 139.11 75.54 138.27 74.91 137.45 C 75.05 136.93 75.34 135.88 75.48 135.36 Z" />
<path fill="#000000" opacity="1.00" d=" M 56.62 144.98 C 59.69 142.79 62.41 139.95 65.81 138.30 C 62.86 142.64 58.61 147.65 52.79 146.82 C 54.05 146.17 55.33 145.58 56.62 144.98 Z" />
<path fill="#000000" opacity="1.00" d=" M 81.80 140.21 C 84.87 140.88 87.74 142.21 90.45 143.79 C 92.82 144.91 94.79 146.80 97.38 147.43 C 95.74 148.90 94.04 147.02 92.56 146.33 C 90.88 145.51 89.22 144.69 87.49 143.98 C 85.69 142.58 83.36 141.91 81.80 140.21 Z" />
<path fill="#000000" opacity="1.00" d=" M 28.64 150.93 C 26.78 150.68 25.56 148.92 27.31 147.50 L 28.14 147.56 C 28.91 148.58 29.08 149.70 28.64 150.93 Z" />
<path fill="#000000" opacity="1.00" d=" M 143.17 155.42 L 144.03 155.58 C 145.33 157.77 141.68 157.18 143.17 155.42 Z" />
</g>
<g id="#d29914ff">
<path fill="#d29914" opacity="1.00" d=" M 69.37 1.24 L 69.49 1.25 L 69.71 1.39 C 69.62 1.35 69.45 1.28 69.37 1.24 Z" />
<path fill="#d29914" opacity="1.00" d=" M 52.72 8.76 C 57.13 5.86 61.84 2.37 67.36 2.53 C 68.68 3.75 70.23 4.59 72.04 4.74 C 79.26 5.82 83.08 14.59 90.87 13.74 C 89.50 13.02 87.96 12.30 87.48 10.69 C 86.14 8.54 88.69 7.08 89.85 5.64 C 97.01 5.57 104.14 7.88 110.03 11.93 C 115.01 14.90 120.11 17.70 124.66 21.33 C 127.24 22.93 129.15 25.76 132.31 26.20 C 132.63 27.79 134.01 28.82 134.94 30.06 C 134.32 30.38 133.07 31.03 132.45 31.35 C 131.99 32.86 131.52 34.36 131.05 35.87 C 128.95 36.04 126.84 36.21 124.74 36.40 C 121.55 33.61 118.39 30.76 114.95 28.28 C 111.96 26.74 108.81 25.50 105.86 23.89 C 99.98 22.72 94.05 21.04 87.99 21.58 C 78.27 22.48 68.91 25.81 60.35 30.41 C 56.12 32.61 51.58 35.01 48.98 39.18 C 45.29 42.80 40.69 45.56 37.85 49.99 C 34.60 55.02 30.28 59.65 29.10 65.71 C 26.85 68.02 26.07 71.19 25.31 74.22 L 24.95 75.38 C 24.32 75.43 23.05 75.54 22.42 75.59 C 22.37 77.03 22.31 78.48 22.24 79.93 C 18.63 84.61 19.70 90.92 18.64 96.40 C 17.97 107.06 17.99 117.98 21.19 128.27 C 21.69 134.55 23.94 140.46 27.13 145.85 C 27.17 146.26 27.26 147.09 27.31 147.50 C 25.56 148.92 26.78 150.68 28.64 150.93 C 29.74 151.57 30.83 152.26 31.88 153.00 C 33.60 156.03 35.26 159.09 36.93 162.16 C 35.39 162.25 33.81 162.47 32.34 161.86 C 26.58 160.10 20.61 158.69 15.31 155.75 C 12.62 154.35 11.56 151.39 10.25 148.85 C 10.48 147.57 11.65 144.46 9.08 145.63 C 8.63 146.13 7.72 147.12 7.27 147.62 C 6.40 146.47 5.37 145.39 4.93 143.99 C 3.37 139.08 0.87 134.25 1.34 128.94 C 1.34 122.68 5.75 117.71 7.40 111.90 C 6.90 111.09 6.37 110.30 5.81 109.54 C 8.76 105.54 9.86 100.64 11.29 95.98 C 13.21 89.10 11.88 81.93 11.24 74.97 C 10.80 70.62 8.25 66.32 9.79 61.91 C 11.53 54.54 16.41 48.64 20.13 42.23 C 23.61 36.53 29.60 32.88 32.70 26.91 C 31.77 26.82 29.92 26.64 28.99 26.55 C 32.12 23.45 35.77 20.93 38.96 17.89 C 42.98 14.04 48.39 12.20 52.72 8.76 Z" />
<path fill="#d29914" opacity="1.00" d=" M 107.34 7.29 L 107.52 7.33 L 107.65 7.45 L 107.52 7.34 L 107.34 7.29 Z" />
<path fill="#d29914" opacity="1.00" d=" M 39.15 13.04 C 39.60 13.02 40.52 12.96 40.98 12.93 C 40.44 13.15 39.36 13.59 38.82 13.81 L 39.15 13.04 Z" />
<path fill="#d29914" opacity="1.00" d=" M 80.48 24.78 C 91.26 21.73 102.62 24.87 112.43 29.61 C 116.40 32.26 120.10 35.43 123.22 39.04 C 123.22 39.59 123.22 40.68 123.23 41.22 C 122.67 40.81 121.56 40.00 121.01 39.59 C 116.98 40.73 114.23 36.90 110.36 37.26 C 110.40 37.74 110.47 38.70 110.50 39.18 C 113.19 41.72 115.63 44.52 118.54 46.82 C 121.39 49.49 120.69 55.39 125.16 56.23 C 125.69 53.05 126.60 49.34 129.16 47.21 C 132.14 53.00 137.36 57.92 137.84 64.76 C 137.28 64.65 136.18 64.43 135.63 64.32 L 134.95 63.46 C 134.78 63.26 134.46 62.88 134.29 62.68 C 132.77 62.65 131.26 62.70 129.74 62.73 C 129.37 62.41 128.61 61.78 128.24 61.46 C 126.71 62.21 125.14 62.89 123.55 63.51 C 123.22 63.31 122.58 62.93 122.26 62.74 C 121.55 61.27 120.96 59.75 120.36 58.24 C 118.98 58.83 117.61 59.43 116.24 60.04 C 113.66 58.36 111.10 56.64 108.60 54.86 C 111.01 54.65 113.42 54.60 115.84 54.49 C 115.26 53.75 115.15 52.22 113.96 52.26 C 110.68 52.30 107.05 53.54 104.11 51.53 C 102.03 51.48 99.94 51.40 97.87 51.13 C 89.95 52.91 82.33 48.57 75.51 45.02 C 75.89 44.20 76.27 43.37 76.65 42.55 C 76.24 42.59 75.41 42.67 74.99 42.71 C 74.58 43.21 73.76 44.21 73.35 44.71 L 72.17 44.40 C 66.29 41.63 57.38 44.69 54.12 37.58 C 59.71 34.77 64.35 30.34 70.25 28.12 C 73.52 26.58 77.29 26.55 80.48 24.78 Z" />
<path fill="#d29914" opacity="1.00" d=" M 132.13 25.32 L 132.87 24.86 C 133.17 25.10 133.78 25.57 134.08 25.81 C 133.64 25.91 132.76 26.10 132.31 26.20 L 132.13 25.32 Z" />
<path fill="#d29914" opacity="1.00" d=" M 147.53 42.91 C 152.40 44.79 155.51 49.23 159.19 52.69 C 162.83 57.20 168.45 59.38 172.30 63.65 C 175.68 67.49 180.46 69.62 185.07 71.58 C 184.31 72.34 183.56 73.10 182.80 73.86 C 181.90 78.77 178.18 82.29 175.01 85.85 C 173.21 84.83 171.38 83.86 169.50 83.01 C 169.52 83.55 169.57 84.63 169.59 85.17 C 170.82 86.51 172.04 87.89 173.11 89.38 C 173.37 90.61 173.45 91.95 174.24 93.01 L 174.77 93.22 L 175.02 94.09 C 175.67 97.43 175.50 100.84 175.52 104.22 C 177.30 108.42 176.14 113.14 176.43 117.56 L 175.27 117.52 C 175.64 120.22 175.71 123.01 174.39 125.49 L 174.14 126.11 C 172.62 130.48 171.08 135.02 168.05 138.61 C 165.82 137.70 168.35 135.05 168.67 133.61 C 167.36 132.79 166.05 131.96 164.75 131.14 C 164.67 133.05 164.70 134.98 164.45 136.88 C 163.75 140.73 161.17 143.99 160.65 147.89 C 160.36 150.53 159.70 153.12 159.56 155.77 C 159.90 159.06 162.90 160.86 164.91 163.12 C 162.09 165.40 159.24 168.03 155.58 168.80 C 155.21 169.19 154.45 169.98 154.08 170.38 C 152.66 170.38 151.24 170.39 149.82 170.40 C 148.46 167.84 147.05 165.29 145.48 162.85 C 145.93 161.15 146.38 159.45 146.81 157.75 C 147.46 157.64 148.76 157.42 149.41 157.31 C 149.93 155.47 150.39 153.62 150.66 151.72 C 152.15 150.02 153.81 148.48 155.56 147.05 C 155.69 141.92 153.74 137.05 153.49 131.95 C 152.24 124.10 151.50 115.87 153.45 108.09 C 156.14 108.47 158.82 108.97 161.46 109.63 C 161.45 108.60 161.45 107.58 161.45 106.55 C 158.00 106.62 154.47 105.58 152.17 102.88 C 147.75 98.29 148.81 91.38 146.51 85.84 C 146.89 85.02 147.27 84.21 147.65 83.39 C 145.75 79.63 143.81 75.12 145.33 70.92 C 144.56 69.75 143.79 68.59 143.03 67.43 C 143.72 66.27 144.28 65.07 144.71 63.80 C 143.71 62.20 142.20 63.10 140.87 63.59 C 138.01 58.30 136.59 52.10 132.08 47.86 C 130.93 46.97 131.29 45.34 132.17 44.40 C 137.38 45.18 142.35 47.12 147.60 47.71 C 147.57 46.11 147.55 44.51 147.53 42.91 Z" />
<path fill="#d29914" opacity="1.00" d=" M 68.33 45.78 C 70.92 46.91 73.84 47.14 76.28 48.58 C 73.27 48.87 70.74 47.36 68.33 45.78 Z" />
<path fill="#d29914" opacity="1.00" d=" M 76.81 49.53 C 79.92 50.29 83.10 50.90 86.05 52.21 C 87.34 52.26 88.64 52.32 89.93 52.37 L 89.37 52.45 C 87.37 52.73 85.41 53.15 83.44 53.54 C 83.18 52.92 82.66 51.67 82.41 51.05 C 81.15 51.61 79.90 52.17 78.64 52.73 C 78.02 51.66 77.41 50.60 76.81 49.53 Z" />
<path fill="#d29914" opacity="1.00" d=" M 9.44 55.18 L 9.95 54.89 C 10.33 56.21 10.83 58.31 9.26 59.06 C 8.87 57.74 8.92 56.45 9.44 55.18 Z" />
<path fill="#d29914" opacity="1.00" d=" M 105.46 55.96 C 106.73 57.52 108.52 58.43 110.51 58.70 C 110.52 58.86 110.55 59.16 110.57 59.31 C 110.99 59.58 111.83 60.11 112.24 60.37 C 109.20 60.22 105.94 60.94 103.11 59.48 C 103.90 58.31 104.69 57.14 105.46 55.96 Z" />
<path fill="#d29914" opacity="1.00" d=" M 130.01 66.45 C 132.81 68.04 135.62 66.15 138.47 66.00 C 140.55 69.79 140.16 74.48 142.97 77.84 C 141.96 77.05 140.95 76.27 139.94 75.48 C 139.76 72.58 139.40 69.70 138.73 66.87 C 136.08 67.32 133.44 68.11 130.72 67.83 C 130.54 67.48 130.19 66.80 130.01 66.45 Z" />
<path fill="#d29914" opacity="1.00" d=" M 179.28 66.08 C 181.44 65.98 183.60 65.98 185.77 66.02 C 186.02 66.38 186.53 67.09 186.78 67.45 C 186.33 67.76 185.43 68.38 184.97 68.68 C 183.02 67.94 181.06 67.18 179.28 66.08 Z" />
<path fill="#d29914" opacity="1.00" d=" M 7.01 68.02 C 8.47 68.75 8.72 70.81 7.81 72.06 L 7.29 71.77 C 6.90 70.55 6.81 69.30 7.01 68.02 Z" />
<path fill="#d29914" opacity="1.00" d=" M 187.64 71.57 L 187.84 71.50 C 187.77 71.55 187.64 71.64 187.57 71.69 L 187.64 71.57 Z" />
<path fill="#d29914" opacity="1.00" d=" M 144.59 82.81 C 145.51 84.00 145.54 85.53 145.77 86.96 C 146.93 92.15 147.74 97.41 148.79 102.64 C 148.62 102.45 148.28 102.09 148.11 101.90 C 147.63 100.56 147.22 99.19 146.80 97.84 C 146.39 92.78 144.98 87.87 144.59 82.81 Z" />
<path fill="#d29914" opacity="1.00" d=" M 20.43 90.34 C 20.71 90.03 21.28 89.42 21.56 89.11 C 21.70 92.62 19.73 97.23 22.83 99.85 C 22.72 100.06 22.50 100.47 22.39 100.68 L 22.43 99.68 C 21.62 100.04 20.01 100.74 19.20 101.09 C 20.72 97.66 20.13 93.94 20.43 90.34 Z" />
<path fill="#d29914" opacity="1.00" d=" M 19.16 104.12 C 20.42 104.45 21.72 104.68 23.03 104.49 C 22.49 105.71 21.63 106.72 20.62 107.56 L 19.95 107.97 C 20.82 106.49 20.34 105.20 19.16 104.12 Z" />
<path fill="#d29914" opacity="1.00" d=" M 1.26 119.16 L 2.03 118.90 C 2.40 120.16 2.08 121.24 1.08 122.14 C 1.12 121.40 1.21 119.91 1.26 119.16 Z" />
<path fill="#d29914" opacity="1.00" d=" M 173.45 133.02 C 173.57 132.81 173.81 132.38 173.93 132.16 L 173.73 132.65 L 173.45 133.02 Z" />
<path fill="#d29914" opacity="1.00" d=" M 0.00 136.13 C 0.70 138.40 1.37 140.68 1.97 142.97 C 1.48 142.55 0.49 141.69 0.00 141.27 L 0.00 136.13 Z" />
<path fill="#d29914" opacity="1.00" d=" M 152.46 137.93 C 153.82 139.25 153.36 141.21 153.49 142.90 C 153.34 142.73 153.04 142.37 152.89 142.20 C 152.71 140.78 152.60 139.35 152.46 137.93 Z" />
<path fill="#d29914" opacity="1.00" d=" M 14.42 157.52 L 14.57 157.62 L 14.70 157.74 L 14.57 157.62 L 14.42 157.52 Z" />
<path fill="#d29914" opacity="1.00" d=" M 165.47 161.36 C 165.52 161.41 165.62 161.51 165.67 161.56 L 165.62 161.55 L 165.47 161.36 Z" />
<path fill="#d29914" opacity="1.00" d=" M 167.68 161.91 C 168.35 160.50 170.66 161.12 170.06 162.75 L 169.25 162.89 C 168.86 162.65 168.07 162.16 167.68 161.91 Z" />
<path fill="#d29914" opacity="1.00" d=" M 41.17 169.06 C 40.48 167.39 40.10 165.60 40.66 163.83 C 42.22 165.26 43.51 166.95 44.63 168.74 C 43.84 170.75 43.27 172.86 43.46 175.05 C 43.34 175.28 43.10 175.75 42.98 175.99 L 41.41 175.53 C 41.29 173.37 41.28 171.21 41.17 169.06 Z" />
<path fill="#d29914" opacity="1.00" d=" M 129.30 165.19 C 129.78 165.80 129.78 165.80 129.30 165.19 Z" />
<path fill="#d29914" opacity="1.00" d=" M 137.29 176.73 C 139.26 173.32 142.33 170.77 145.06 168.00 C 145.68 169.07 146.29 170.14 146.90 171.21 C 147.93 171.59 148.97 171.96 150.00 172.34 C 149.68 173.47 149.51 174.91 148.04 175.07 C 144.52 175.99 140.91 176.50 137.29 176.73 Z" />
<path fill="#d29914" opacity="1.00" d=" M 158.40 169.34 L 158.70 169.18 L 158.47 169.46 L 158.20 169.66 L 158.40 169.34 Z" />
<path fill="#d29914" opacity="1.00" d=" M 140.82 202.99 C 141.18 202.51 141.89 201.53 142.25 201.05 C 141.89 201.53 141.18 202.51 140.82 202.99 Z" />
<path fill="#d29914" opacity="1.00" d=" M 165.22 220.48 C 165.90 224.09 165.98 227.80 165.56 231.46 L 165.14 232.44 C 165.29 228.45 165.19 224.46 165.22 220.48 Z" />
</g>
</svg>
