<?xml version="1.0" encoding="UTF-8" ?>
<!DOCTYPE svg PUBLIC "-//W3C//DTD SVG 1.1//EN" "http://www.w3.org/Graphics/SVG/1.1/DTD/svg11.dtd">
<svg width="358pt" height="439pt" viewBox="0 0 358 439" version="1.1" xmlns="http://www.w3.org/2000/svg">
<g id="#262626ff">
<path fill="#262626" opacity="1.00" d=" M 29.35 31.36 C 35.44 25.77 44.27 24.93 52.15 25.78 C 65.88 27.59 78.86 32.77 91.45 38.31 C 95.97 40.21 100.19 42.78 104.85 44.34 C 133.58 33.78 164.78 31.79 195.04 34.68 C 210.63 36.44 226.43 39.29 240.57 46.40 C 241.66 47.04 242.80 46.11 243.82 45.74 C 256.99 39.48 270.56 33.63 284.95 30.88 C 291.28 29.97 297.75 30.19 304.10 30.81 C 309.84 31.34 314.87 35.17 317.55 40.16 C 319.49 45.57 319.63 51.39 320.22 57.05 C 319.71 71.77 317.89 86.43 315.47 100.97 C 315.01 103.25 315.38 105.58 316.56 107.59 C 329.39 134.07 333.32 165.05 325.81 193.64 C 323.40 205.80 317.53 216.87 311.55 227.60 C 302.75 241.99 292.84 255.88 280.62 267.59 C 273.15 274.93 264.32 280.94 254.58 284.84 C 261.72 288.70 266.85 295.38 270.83 302.29 C 280.80 320.91 283.62 342.28 285.38 363.03 C 285.65 377.72 287.70 392.64 284.84 407.18 C 284.75 380.73 280.07 354.50 272.75 329.15 C 269.24 319.93 266.75 310.14 260.91 302.00 C 258.05 297.66 254.32 293.81 249.69 291.37 C 246.43 289.33 242.47 289.39 238.89 288.26 C 237.05 286.02 237.06 282.36 239.99 281.06 C 245.78 278.90 251.92 277.54 257.38 274.53 C 273.83 265.95 285.62 251.01 296.22 236.22 C 299.91 230.51 303.95 224.95 306.85 218.77 C 299.86 215.23 298.13 207.01 294.06 200.99 C 290.51 196.72 283.62 198.87 280.44 202.55 C 277.49 205.65 278.83 210.16 278.26 213.97 C 277.42 219.98 275.49 225.97 271.93 230.95 C 269.99 233.32 267.27 235.76 263.98 235.49 C 260.52 235.48 258.05 232.21 257.63 229.04 C 257.04 224.88 258.14 220.78 258.77 216.70 C 254.16 216.28 252.12 211.51 250.40 207.86 C 248.27 202.69 245.63 197.60 244.85 192.00 C 244.58 185.80 249.06 180.40 254.47 177.90 C 241.68 172.38 230.97 160.94 228.41 146.99 C 226.77 140.24 228.04 133.11 230.74 126.81 C 235.20 116.79 244.59 109.45 255.01 106.44 C 276.13 99.89 301.41 109.89 311.44 129.80 C 317.27 140.86 316.81 155.22 309.26 165.37 C 314.23 167.14 318.58 170.64 321.14 175.28 C 322.94 152.96 318.59 130.27 308.73 110.16 C 306.70 106.78 306.94 102.77 307.48 99.03 C 309.90 83.11 312.51 67.06 311.49 50.91 C 311.33 48.87 310.95 46.81 310.12 44.92 C 308.55 42.08 304.10 41.51 301.87 43.88 C 298.07 47.20 296.38 52.16 294.72 56.77 C 291.56 66.70 289.81 77.07 289.07 87.45 C 283.99 77.66 286.02 66.09 288.63 55.88 C 290.46 49.88 291.89 43.50 295.66 38.37 C 288.39 38.03 281.29 39.88 274.41 42.04 C 264.81 45.18 255.47 49.11 246.46 53.68 C 244.21 54.67 241.59 56.21 239.15 54.87 C 224.68 47.11 208.22 44.33 192.07 42.61 C 180.49 42.01 168.85 40.83 157.26 42.21 C 141.18 42.83 125.20 45.99 109.99 51.25 C 107.20 52.22 104.06 53.16 101.19 51.93 C 84.85 44.29 68.24 36.03 50.10 33.87 C 43.83 33.03 36.74 34.43 32.58 39.56 C 43.39 39.44 52.45 46.29 61.25 51.71 C 66.55 55.47 73.52 59.74 73.44 67.09 C 74.03 77.53 65.43 86.19 55.95 89.02 C 61.05 85.61 65.70 81.10 68.04 75.33 C 69.19 71.79 68.95 67.56 66.52 64.60 C 62.16 59.00 55.69 55.76 49.83 52.03 C 44.81 49.35 39.68 45.72 33.69 46.38 C 32.59 48.41 31.73 50.60 31.54 52.92 C 30.97 57.96 29.69 62.93 29.51 68.01 C 30.82 82.08 33.39 96.00 34.87 110.05 C 36.00 117.63 36.43 125.81 40.85 132.36 C 47.95 132.97 54.33 128.69 57.99 122.87 C 41.45 157.64 43.27 199.62 59.72 234.08 C 68.04 251.64 81.93 266.89 99.74 275.05 C 98.87 258.25 102.26 241.65 105.18 225.19 C 105.77 221.96 105.54 218.67 105.34 215.43 C 101.55 215.75 97.77 217.42 93.97 216.30 C 89.04 213.99 88.80 207.87 87.31 203.32 C 82.18 202.70 77.06 205.93 72.06 204.09 C 68.85 201.63 71.48 197.91 72.39 195.00 C 71.79 191.58 71.27 187.68 73.96 184.94 C 76.46 181.35 83.14 182.11 83.87 177.17 C 78.91 172.71 74.22 167.64 71.79 161.29 C 67.86 151.79 68.52 140.50 73.44 131.47 C 80.84 117.49 95.59 108.14 110.96 105.47 C 104.32 105.43 97.72 104.77 91.11 104.25 C 89.30 104.11 88.38 102.41 87.44 101.10 C 87.87 100.28 88.29 99.44 88.70 98.61 C 90.66 97.39 92.88 98.01 95.01 98.30 C 112.47 99.68 130.64 97.46 146.28 89.20 C 151.07 86.79 155.59 83.46 160.96 82.51 C 163.98 81.74 167.36 84.94 166.18 87.98 C 165.12 91.31 162.47 93.75 160.27 96.34 C 156.68 99.98 152.76 103.49 147.99 105.50 C 147.41 105.21 146.24 104.63 145.65 104.35 C 145.35 103.73 144.73 102.50 144.42 101.88 C 145.34 100.66 146.36 99.50 147.66 98.67 C 151.23 96.26 154.21 93.13 157.46 90.33 C 146.17 97.06 133.80 102.40 120.59 103.61 C 135.41 102.85 151.02 106.81 162.38 116.71 C 169.76 122.98 174.40 132.28 175.18 141.93 C 175.71 153.23 170.31 164.05 162.45 171.94 C 168.74 174.48 173.12 179.95 176.99 185.29 C 178.52 187.53 180.08 190.34 179.04 193.12 C 177.51 197.72 172.20 199.21 169.61 203.01 C 168.85 208.06 171.23 212.94 171.41 217.97 C 172.09 224.66 169.87 231.43 165.73 236.67 C 163.83 239.12 161.49 242.09 158.01 241.81 C 153.29 242.14 150.95 237.09 149.35 233.46 C 146.90 228.33 146.19 222.02 141.92 217.98 C 139.07 222.77 138.42 229.85 132.58 232.08 C 129.53 233.05 127.07 230.30 125.43 228.11 C 125.58 238.11 124.54 248.05 124.45 258.05 C 124.16 266.05 122.35 273.92 118.89 281.15 C 122.08 281.20 125.37 281.26 128.25 282.82 C 129.54 284.90 129.41 287.19 128.13 289.25 C 124.09 290.84 119.57 289.54 115.56 291.21 C 106.66 294.57 98.28 299.15 90.17 304.09 C 81.08 310.04 77.24 320.76 73.66 330.49 C 65.28 355.96 62.09 382.77 60.31 409.42 C 58.97 396.33 59.65 383.10 59.66 369.96 C 61.38 348.79 63.34 326.38 74.99 307.99 C 82.01 296.84 94.81 292.02 105.95 286.14 C 89.34 281.24 74.88 270.30 64.20 256.83 C 54.72 244.90 48.42 230.75 44.13 216.22 C 36.95 191.75 36.30 165.31 42.74 140.61 C 38.60 141.02 34.62 138.77 32.70 135.11 C 28.82 128.07 27.98 119.87 26.82 112.05 C 25.00 93.70 21.14 75.54 20.65 57.07 C 20.98 48.02 22.14 37.73 29.35 31.36 M 264.56 111.05 C 256.45 111.70 248.53 115.00 242.60 120.59 C 237.56 125.72 234.09 132.73 234.28 140.03 C 233.78 149.16 238.41 157.86 244.86 164.05 C 254.98 173.84 270.10 177.71 283.78 174.90 C 292.68 172.97 300.92 167.52 305.53 159.59 C 309.48 152.88 309.65 144.47 307.63 137.12 C 301.91 119.55 282.34 109.31 264.56 111.05 M 110.56 111.76 C 99.20 114.55 88.30 120.77 81.49 130.47 C 76.78 137.11 74.21 145.67 76.08 153.75 C 77.13 158.96 79.67 163.85 83.36 167.69 C 92.25 177.56 105.95 182.20 119.02 181.80 C 129.40 182.00 140.30 179.84 148.80 173.59 C 160.83 167.84 169.99 154.69 168.59 141.02 C 167.71 130.26 159.93 121.22 150.70 116.26 C 138.58 109.47 123.89 108.88 110.56 111.76 M 274.01 182.36 C 269.63 182.32 265.17 180.47 260.85 181.97 C 257.29 183.29 253.49 185.19 251.74 188.75 C 250.84 191.59 251.65 194.61 252.81 197.24 C 254.64 201.48 256.13 205.88 258.59 209.81 C 260.70 209.58 263.12 208.61 265.10 209.84 C 266.08 210.97 266.60 212.50 266.22 213.99 C 265.29 218.73 263.56 223.39 263.73 228.28 C 264.06 228.41 264.72 228.67 265.05 228.80 C 268.60 226.05 269.94 221.40 271.19 217.28 C 272.83 211.47 270.98 204.75 274.71 199.63 C 279.03 193.14 288.29 190.53 295.35 193.77 C 300.22 196.39 301.70 202.07 304.27 206.56 C 305.71 209.00 306.99 212.11 310.03 212.86 C 313.60 204.90 317.24 196.70 318.25 187.97 C 317.70 181.10 313.85 171.98 305.91 171.66 C 296.46 177.78 285.52 182.54 274.01 182.36 M 155.04 178.45 C 147.13 182.55 138.84 186.23 129.96 187.51 C 116.38 189.96 102.01 187.58 89.86 181.06 C 87.00 184.84 83.12 187.62 78.54 188.91 C 78.49 191.89 78.56 194.86 78.54 197.84 C 82.51 197.16 87.06 195.52 90.70 198.15 C 94.88 200.99 93.74 206.91 96.58 210.68 C 101.09 209.53 107.69 207.32 110.69 212.32 C 112.78 217.23 111.67 222.85 111.15 228.00 C 108.33 243.28 105.30 258.76 106.46 274.38 C 106.59 275.80 107.22 277.11 107.71 278.44 C 109.36 278.52 111.50 279.37 112.65 277.69 C 117.71 271.71 117.25 263.32 118.24 255.99 C 118.95 244.36 117.97 232.57 120.07 221.06 C 120.73 218.62 123.30 216.52 125.85 217.81 C 128.40 219.61 129.58 222.62 131.10 225.23 C 134.24 221.66 134.53 216.35 138.02 213.02 C 140.34 210.75 144.45 210.89 146.60 213.34 C 152.76 219.47 152.95 229.01 157.94 235.90 C 160.87 233.23 163.08 229.81 164.33 226.05 C 165.61 219.73 164.44 213.27 163.10 207.07 C 161.44 200.66 166.87 195.68 171.76 192.65 C 173.05 191.97 172.83 190.10 171.96 189.18 C 168.68 185.11 165.71 180.26 160.67 178.19 C 158.88 177.34 156.75 177.50 155.04 178.45 Z" />
<path fill="#262626" opacity="1.00" d=" M 239.38 86.29 C 241.03 85.15 243.18 85.41 245.05 85.69 C 252.73 87.61 259.13 92.54 266.44 95.37 C 271.17 97.33 276.18 98.52 281.26 99.00 C 285.89 99.89 290.44 97.89 295.09 98.53 C 295.46 99.17 296.20 100.45 296.57 101.09 C 295.42 104.74 291.23 105.10 288.01 105.39 C 277.99 106.04 267.94 103.43 259.01 98.99 C 254.13 96.61 249.52 93.59 244.26 92.09 C 247.11 95.56 250.99 98.19 253.47 101.92 C 254.21 104.86 251.28 106.03 248.89 105.60 C 244.90 101.76 240.29 98.22 237.89 93.09 C 236.95 90.87 236.95 87.56 239.38 86.29 Z" />
<path fill="#262626" opacity="1.00" d=" M 267.17 118.94 C 276.49 117.64 286.51 121.16 292.78 128.24 C 297.54 133.82 299.74 141.90 297.14 148.94 C 293.35 160.43 280.62 167.06 268.96 166.22 C 261.78 165.53 254.64 162.68 249.67 157.33 C 244.83 151.90 242.22 144.01 244.51 136.89 C 247.35 126.92 257.12 120.10 267.17 118.94 M 264.54 125.91 C 259.82 127.40 255.05 129.97 252.50 134.39 C 249.33 139.31 249.37 146.32 252.89 151.05 C 259.40 160.34 273.22 162.22 282.77 156.76 C 288.06 153.95 292.12 148.18 291.70 142.03 C 291.79 135.88 287.37 130.51 282.11 127.80 C 276.79 124.84 270.36 124.78 264.54 125.91 Z" />
<path fill="#262626" opacity="1.00" d=" M 119.64 122.00 C 132.14 121.36 145.87 126.24 152.74 137.26 C 157.21 144.36 156.85 154.23 151.93 161.02 C 146.86 168.21 138.62 172.67 130.08 174.26 C 120.38 175.66 109.94 174.83 101.41 169.62 C 94.18 165.33 87.90 157.80 88.16 148.98 C 87.69 141.94 91.38 135.15 96.72 130.78 C 103.02 125.21 111.38 122.63 119.64 122.00 M 111.56 129.84 C 104.43 131.95 97.45 136.67 95.00 143.99 C 92.76 150.75 96.18 158.23 101.73 162.27 C 110.97 169.15 123.73 170.34 134.44 166.49 C 140.22 164.27 145.88 160.48 148.31 154.55 C 151.69 147.58 148.19 139.07 142.20 134.76 C 133.56 128.26 121.79 126.92 111.56 129.84 Z" />
<path fill="#262626" opacity="1.00" d=" M 268.18 136.12 C 271.82 134.42 275.79 138.22 274.92 141.94 C 274.55 145.29 270.24 147.50 267.47 145.35 C 264.15 143.26 264.62 137.70 268.18 136.12 Z" />
<path fill="#262626" opacity="1.00" d=" M 116.19 141.30 C 119.97 139.40 124.78 142.85 124.24 147.04 C 124.21 151.19 118.92 154.05 115.52 151.51 C 111.79 149.27 112.27 143.06 116.19 141.30 Z" />
<path fill="#262626" opacity="1.00" d=" M 197.00 154.47 C 201.30 152.24 206.21 151.86 210.96 151.79 C 213.68 151.82 216.53 151.92 218.92 153.39 C 216.77 158.22 214.82 164.79 209.06 166.27 C 202.62 166.13 199.80 159.20 197.00 154.47 Z" />
<path fill="#262626" opacity="1.00" d=" M 182.73 199.71 C 187.32 198.56 189.83 203.62 194.07 204.25 C 203.23 206.12 211.83 200.59 221.00 201.34 C 224.32 201.17 227.45 203.00 229.39 205.62 C 229.79 207.27 230.00 209.54 228.10 210.36 C 224.78 211.48 223.26 206.90 219.99 207.48 C 213.44 207.65 207.27 210.30 200.76 210.83 C 200.28 217.18 197.15 223.98 190.98 226.56 C 190.06 225.72 188.15 225.46 188.31 223.90 C 187.64 221.43 190.10 220.07 191.36 218.40 C 193.25 216.32 193.98 213.53 194.48 210.84 C 190.02 209.97 185.68 207.90 182.59 204.52 C 181.85 202.98 182.56 201.29 182.73 199.71 Z" />
<path fill="#262626" opacity="1.00" d=" M 204.54 216.87 C 205.40 215.58 205.99 213.20 208.00 213.61 C 211.28 213.34 210.93 218.87 214.16 218.59 C 218.45 219.16 222.08 215.65 226.40 216.67 C 226.58 218.22 226.72 219.78 226.81 221.35 C 221.61 224.11 214.96 226.84 209.33 223.69 C 206.53 222.49 205.61 219.44 204.54 216.87 Z" />
<path fill="#262626" opacity="1.00" d=" M 178.43 235.07 C 182.80 233.52 188.55 235.31 189.77 240.17 C 191.45 246.69 189.86 253.48 189.25 260.05 C 186.92 278.40 183.85 296.71 183.09 315.20 C 181.79 328.91 182.77 342.69 183.88 356.37 C 184.25 360.95 185.58 365.47 185.43 370.07 C 185.03 372.83 181.48 372.80 179.80 371.15 C 175.84 352.68 176.26 333.69 176.59 314.91 C 177.76 294.86 180.99 275.01 183.44 255.09 C 183.57 250.48 184.90 245.79 183.40 241.27 C 181.76 241.34 180.07 241.15 178.49 241.66 C 175.56 243.36 174.76 247.18 171.84 248.91 C 169.29 250.62 164.75 247.84 163.32 251.22 C 160.34 257.59 160.64 264.78 159.70 271.60 C 158.80 287.35 160.31 303.20 158.51 318.90 C 157.53 330.69 155.21 342.49 150.69 353.47 C 148.24 358.81 145.63 364.49 140.89 368.20 C 140.13 368.28 138.61 368.42 137.86 368.50 C 136.96 366.99 135.91 364.98 137.45 363.49 C 147.29 351.14 150.35 335.06 152.12 319.77 C 153.45 306.90 152.15 293.92 153.23 281.03 C 153.43 271.40 153.53 261.62 156.11 252.27 C 157.12 249.02 158.69 245.49 161.89 243.87 C 164.12 242.99 166.60 243.35 168.95 243.22 C 171.02 239.49 174.00 235.85 178.43 235.07 Z" />
<path fill="#262626" opacity="1.00" d=" M 201.64 241.67 C 205.08 238.85 209.87 239.17 214.03 239.50 C 219.43 240.11 222.68 245.69 222.63 250.76 C 226.90 249.05 232.01 248.48 236.15 250.84 C 237.99 253.95 237.46 257.56 236.34 260.82 C 232.45 273.48 230.93 286.77 231.45 299.99 C 232.37 323.76 234.88 347.46 238.51 370.97 C 238.72 372.80 238.53 374.64 238.40 376.47 C 236.81 376.59 235.22 376.68 233.63 376.73 C 232.99 374.93 232.41 373.09 232.09 371.21 C 229.06 351.57 227.03 331.80 225.60 312.00 C 225.21 298.03 224.41 283.87 227.45 270.12 C 228.33 265.14 230.25 260.40 230.88 255.37 C 226.98 255.17 223.69 257.37 221.30 260.25 C 219.55 262.73 215.13 260.92 215.63 257.98 C 216.37 254.23 216.94 250.34 215.26 246.73 C 211.74 244.71 205.21 244.51 204.05 249.40 C 201.92 258.10 202.53 267.13 202.71 276.00 C 203.79 284.61 203.06 293.33 204.20 301.94 C 204.65 311.63 204.32 321.36 205.22 331.03 C 205.40 341.68 205.37 352.34 205.32 362.99 C 205.39 364.93 204.82 366.80 204.29 368.64 C 202.75 368.67 201.21 368.70 199.67 368.75 C 199.15 367.22 198.57 365.67 198.67 364.04 C 198.79 346.69 198.76 329.33 198.26 311.99 C 197.19 303.26 197.94 294.42 196.76 285.70 C 196.47 275.44 196.20 265.17 196.62 254.92 C 197.06 250.20 197.96 245.01 201.64 241.67 Z" />
</g>
<g id="#0acaf6ff">
<path fill="#0acaf6" opacity="1.00" d=" M 274.01 182.36 C 285.52 182.54 296.46 177.78 305.91 171.66 C 313.85 171.98 317.70 181.10 318.25 187.97 C 317.24 196.70 313.60 204.90 310.03 212.86 C 306.99 212.11 305.71 209.00 304.27 206.56 C 301.70 202.07 300.22 196.39 295.35 193.77 C 288.29 190.53 279.03 193.14 274.71 199.63 C 270.98 204.75 272.83 211.47 271.19 217.28 C 269.94 221.40 268.60 226.05 265.05 228.80 C 264.72 228.67 264.06 228.41 263.73 228.28 C 263.56 223.39 265.29 218.73 266.22 213.99 C 266.60 212.50 266.08 210.97 265.10 209.84 C 263.12 208.61 260.70 209.58 258.59 209.81 C 256.13 205.88 254.64 201.48 252.81 197.24 C 251.65 194.61 250.84 191.59 251.74 188.75 C 253.49 185.19 257.29 183.29 260.85 181.97 C 265.17 180.47 269.63 182.32 274.01 182.36 M 307.11 209.06 C 314.87 200.43 317.47 186.90 311.30 176.66 C 312.23 187.70 307.89 198.19 307.11 209.06 Z" />
<path fill="#0acaf6" opacity="1.00" d=" M 155.04 178.45 C 156.75 177.50 158.88 177.34 160.67 178.19 C 165.71 180.26 168.68 185.11 171.96 189.18 C 172.83 190.10 173.05 191.97 171.76 192.65 C 166.87 195.68 161.44 200.66 163.10 207.07 C 164.44 213.27 165.61 219.73 164.33 226.05 C 163.08 229.81 160.87 233.23 157.94 235.90 C 152.95 229.01 152.76 219.47 146.60 213.34 C 144.45 210.89 140.34 210.75 138.02 213.02 C 134.53 216.35 134.24 221.66 131.10 225.23 C 129.58 222.62 128.40 219.61 125.85 217.81 C 123.30 216.52 120.73 218.62 120.07 221.06 C 117.97 232.57 118.95 244.36 118.24 255.99 C 117.25 263.32 117.71 271.71 112.65 277.69 C 111.50 279.37 109.36 278.52 107.71 278.44 C 107.22 277.11 106.59 275.80 106.46 274.38 C 105.30 258.76 108.33 243.28 111.15 228.00 C 111.67 222.85 112.78 217.23 110.69 212.32 C 107.69 207.32 101.09 209.53 96.58 210.68 C 93.74 206.91 94.88 200.99 90.70 198.15 C 87.06 195.52 82.51 197.16 78.54 197.84 C 78.56 194.86 78.49 191.89 78.54 188.91 C 83.12 187.62 87.00 184.84 89.86 181.06 C 102.01 187.58 116.38 189.96 129.96 187.51 C 138.84 186.23 147.13 182.55 155.04 178.45 M 166.29 184.80 C 167.10 188.66 164.96 191.85 162.03 194.11 C 164.53 193.72 168.51 194.74 169.70 191.71 C 169.75 189.01 167.58 186.99 166.29 184.80 M 160.77 207.94 C 160.89 208.32 161.15 209.07 161.28 209.45 C 159.75 212.45 160.02 215.91 159.13 219.09 C 158.28 222.35 157.61 225.67 157.53 229.05 C 158.00 228.73 158.95 228.07 159.43 227.74 C 162.81 222.10 160.75 215.22 161.91 209.05 C 161.62 208.77 161.05 208.22 160.77 207.94 M 110.11 274.90 C 112.18 273.48 113.30 271.18 113.78 268.77 C 115.28 261.88 115.06 254.75 114.59 247.76 C 113.92 256.94 110.84 265.74 110.11 274.90 Z" />
</g>
<g id="#feffffff">
<path fill="#feffff" opacity="1.00" d=" M 307.11 209.06 C 307.89 198.19 312.23 187.70 311.30 176.66 C 317.47 186.90 314.87 200.43 307.11 209.06 Z" />
<path fill="#feffff" opacity="1.00" d=" M 166.29 184.80 C 167.58 186.99 169.75 189.01 169.70 191.71 C 168.51 194.74 164.53 193.72 162.03 194.11 C 164.96 191.85 167.10 188.66 166.29 184.80 Z" />
<path fill="#feffff" opacity="1.00" d=" M 160.77 207.94 C 161.05 208.22 161.62 208.77 161.91 209.05 C 160.75 215.22 162.81 222.10 159.43 227.74 C 158.95 228.07 158.00 228.73 157.53 229.05 C 157.61 225.67 158.28 222.35 159.13 219.09 C 160.02 215.91 159.75 212.45 161.28 209.45 C 161.15 209.07 160.89 208.32 160.77 207.94 Z" />
<path fill="#feffff" opacity="1.00" d=" M 110.11 274.90 C 110.84 265.74 113.92 256.94 114.59 247.76 C 115.06 254.75 115.28 261.88 113.78 268.77 C 113.30 271.18 112.18 273.48 110.11 274.90 Z" />
</g>
</svg>
