<?xml version="1.0" encoding="UTF-8" ?>
<!DOCTYPE svg PUBLIC "-//W3C//DTD SVG 1.1//EN" "http://www.w3.org/Graphics/SVG/1.1/DTD/svg11.dtd">
<svg width="633pt" height="488pt" viewBox="0 0 633 488" version="1.1" xmlns="http://www.w3.org/2000/svg">
<g id="#262626ff">
<path fill="#262626" opacity="1.00" d=" M 141.33 40.32 C 146.43 33.15 155.27 29.05 164.03 29.63 C 172.39 30.23 180.37 33.34 187.65 37.36 C 201.49 44.89 213.61 55.17 224.92 66.06 C 225.80 66.87 226.79 67.68 228.07 67.64 C 234.92 68.06 242.79 68.15 248.16 63.16 C 258.70 53.04 267.76 40.44 281.62 34.62 C 291.03 30.56 302.13 33.91 309.47 40.54 C 319.35 49.30 323.89 62.39 326.14 75.06 C 327.29 80.60 327.31 86.26 327.91 91.86 C 329.65 94.21 332.27 95.67 334.57 97.43 C 353.02 111.07 367.57 130.79 372.52 153.42 C 374.81 162.78 374.82 172.48 374.30 182.04 C 372.57 198.68 369.58 215.16 367.29 231.73 C 365.17 240.19 363.79 248.81 362.67 257.45 C 361.97 265.96 362.25 274.53 362.42 283.06 C 362.50 290.72 363.72 298.34 363.21 306.01 C 362.65 312.54 362.49 319.13 361.20 325.58 C 359.26 335.91 355.12 346.10 347.79 353.79 C 340.96 361.03 331.93 365.55 323.32 370.27 C 319.95 372.15 316.40 373.65 312.77 374.92 C 309.52 388.91 308.71 403.43 309.60 417.75 C 310.43 423.47 311.48 429.87 315.98 433.96 C 317.17 435.12 318.38 436.27 319.51 437.51 C 312.13 435.75 308.46 428.23 306.43 421.59 C 302.38 407.22 302.38 392.02 303.66 377.24 C 296.09 377.32 288.31 376.76 281.26 373.79 C 271.22 369.69 262.74 362.35 256.35 353.68 C 254.05 350.62 252.77 346.72 249.60 344.38 C 241.84 338.65 232.66 334.51 222.91 334.05 C 232.01 332.08 241.57 333.33 249.83 337.62 C 249.36 335.74 249.05 333.76 247.98 332.11 C 242.63 324.26 234.79 317.32 224.97 316.31 C 230.02 316.57 235.19 316.45 240.05 318.07 C 243.84 319.21 246.97 321.71 250.09 324.03 C 255.01 305.86 265.46 288.48 263.30 269.01 C 261.56 257.99 260.98 246.82 261.89 235.69 C 253.25 237.65 243.97 236.09 236.37 231.57 C 232.96 229.44 229.97 226.73 227.01 224.04 C 233.83 227.71 241.12 231.01 248.97 231.49 C 253.27 231.68 257.62 231.75 261.90 231.17 C 265.20 228.29 265.70 223.39 267.81 219.67 C 253.50 222.45 238.63 221.11 224.68 217.17 C 230.45 216.95 236.20 217.76 241.97 217.57 C 251.86 217.25 261.84 215.83 271.05 212.07 C 276.55 209.91 281.04 205.91 286.38 203.43 C 297.76 197.95 310.54 196.50 323.00 195.67 C 332.52 195.43 342.45 196.54 350.99 201.04 C 355.36 203.26 358.65 206.95 362.20 210.22 C 364.16 196.91 366.60 183.57 366.61 170.07 C 359.60 180.57 347.99 188.77 335.03 188.83 C 327.01 189.27 318.58 186.95 312.69 181.31 C 307.44 176.52 304.65 169.12 305.76 162.06 C 307.00 155.06 310.17 148.29 315.35 143.35 C 325.26 133.14 342.81 132.55 354.02 140.96 C 358.26 144.13 360.67 148.97 363.91 153.03 C 359.28 134.55 347.71 117.89 332.40 106.63 C 308.30 90.08 276.90 87.85 249.07 94.56 C 248.08 91.04 247.32 87.10 244.51 84.52 C 240.57 81.00 235.62 78.91 230.72 77.11 C 230.07 80.97 228.81 85.07 225.09 87.02 C 224.15 81.91 223.11 76.48 219.48 72.52 C 213.73 66.24 207.08 60.85 200.44 55.55 C 190.28 48.03 179.40 40.48 166.69 38.28 C 172.14 49.45 176.96 61.36 177.00 73.99 C 177.30 88.09 171.16 102.37 160.09 111.26 C 163.75 104.07 165.69 96.12 165.93 88.07 C 166.18 78.63 166.19 68.90 163.07 59.88 C 161.15 54.30 156.99 48.86 150.91 47.68 C 148.98 47.41 146.14 46.92 145.21 49.17 C 139.40 59.16 136.10 70.37 133.33 81.52 C 127.17 107.26 124.42 133.67 122.69 160.02 C 122.67 165.22 118.32 168.67 115.88 172.83 C 106.48 188.18 102.26 206.18 101.04 223.98 C 100.16 232.98 100.37 242.07 101.27 251.06 C 102.29 270.28 107.87 288.82 110.55 307.81 C 112.69 321.12 112.26 334.67 111.60 348.08 C 111.37 354.54 110.14 360.91 108.97 367.25 C 105.91 382.13 101.99 396.94 95.71 410.82 C 93.55 415.48 91.19 420.09 88.06 424.18 C 89.97 419.11 92.59 414.34 94.42 409.23 C 101.51 389.99 104.66 369.45 104.97 349.00 C 105.35 329.98 103.46 310.90 99.49 292.28 C 96.67 278.94 94.09 265.52 93.02 251.91 C 91.61 232.00 92.49 211.66 98.31 192.44 C 101.42 182.37 105.63 172.48 112.01 164.01 C 113.07 162.46 114.51 160.93 114.51 158.93 C 116.48 131.15 119.35 103.28 126.19 76.22 C 129.56 63.68 133.52 50.89 141.33 40.32 M 281.65 43.63 C 269.00 50.78 261.17 63.63 249.79 72.35 C 250.66 75.75 253.54 78.52 257.08 78.91 C 262.07 79.47 266.66 77.10 271.06 75.13 C 277.48 72.21 285.29 71.30 291.75 74.60 C 287.05 74.86 282.06 75.78 279.10 79.83 C 282.13 80.74 285.44 81.90 288.53 80.51 C 293.10 78.71 298.02 78.25 302.88 77.94 C 302.64 78.93 302.39 79.91 302.14 80.90 C 305.14 79.05 308.54 78.00 312.07 77.83 C 309.96 79.99 308.20 82.57 308.59 85.76 C 311.42 85.25 314.29 84.93 317.17 84.89 C 316.04 85.89 314.90 86.87 313.79 87.90 C 315.71 88.34 317.63 88.80 319.55 89.30 C 318.92 80.26 317.60 71.14 314.37 62.62 C 311.42 55.01 306.78 47.52 299.40 43.54 C 294.04 40.42 286.98 40.42 281.65 43.63 M 321.12 149.12 C 317.42 152.91 314.90 157.88 313.93 163.08 C 312.82 168.65 316.06 174.35 320.77 177.22 C 326.42 180.99 333.65 181.40 340.14 180.04 C 349.67 177.85 357.28 170.52 361.69 162.02 C 356.94 158.09 353.85 152.72 349.85 148.14 C 341.85 141.35 328.63 141.67 321.12 149.12 M 313.43 204.66 C 301.48 206.20 288.72 209.10 279.88 217.87 C 272.81 224.58 270.13 234.56 269.58 244.01 C 268.82 255.08 272.19 265.92 271.54 276.99 C 271.39 292.60 264.15 306.74 259.45 321.28 C 256.81 329.06 256.46 338.02 260.77 345.28 C 267.39 356.52 278.43 365.73 291.43 368.27 C 298.39 369.04 305.80 369.37 312.31 366.31 C 320.71 362.29 329.11 358.10 336.73 352.71 C 344.05 347.39 348.97 339.31 351.49 330.70 C 356.05 315.67 354.64 299.76 354.37 284.28 C 352.53 268.71 354.60 253.02 357.53 237.72 C 358.46 232.96 359.30 228.06 358.52 223.22 C 357.05 216.25 351.92 210.32 345.42 207.52 C 335.44 202.85 324.08 204.20 313.43 204.66 Z" />
<path fill="#262626" opacity="1.00" d=" M 324.76 129.80 C 322.95 127.04 326.74 125.08 329.06 124.85 C 338.13 123.86 346.89 128.06 354.25 132.96 C 348.28 131.32 342.20 129.27 335.91 130.16 C 332.24 130.23 328.12 131.95 324.76 129.80 Z" />
<path fill="#262626" opacity="1.00" d=" M 185.01 143.03 C 190.47 140.20 196.32 136.98 202.67 137.45 C 205.22 137.36 207.50 140.33 205.81 142.57 C 203.72 145.85 199.43 145.54 196.06 146.03 C 186.41 147.00 177.63 151.39 168.51 154.30 C 173.45 149.81 179.27 146.39 185.01 143.03 Z" />
<path fill="#262626" opacity="1.00" d=" M 342.83 148.81 C 344.73 147.63 346.67 149.19 348.32 150.05 C 348.70 153.29 345.16 155.72 342.42 153.81 C 340.25 152.85 340.63 149.49 342.83 148.81 Z" />
<path fill="#262626" opacity="1.00" d=" M 178.11 160.11 C 185.41 153.21 196.02 149.40 206.01 151.10 C 219.71 153.30 229.53 167.52 228.36 181.03 C 227.52 189.42 221.45 196.33 214.33 200.33 C 200.82 207.86 183.15 206.47 170.87 197.11 C 168.08 194.96 165.62 192.44 163.10 189.98 C 160.83 190.70 158.57 191.47 156.31 192.22 C 158.23 190.52 159.90 188.54 160.91 186.16 C 159.92 185.19 158.93 184.23 157.95 183.27 C 154.52 184.47 151.55 186.55 148.73 188.78 C 150.96 185.51 153.09 181.77 156.87 180.10 C 160.35 178.39 164.92 178.77 167.56 175.56 C 171.81 170.92 173.38 164.38 178.11 160.11 M 183.94 165.95 C 180.87 168.77 179.39 172.76 177.21 176.22 C 175.21 179.46 172.53 182.21 169.94 184.97 C 173.47 188.95 177.61 192.52 182.64 194.45 C 188.56 197.13 195.29 197.15 201.61 196.30 C 208.89 194.73 216.50 190.66 219.36 183.38 C 221.61 178.28 219.64 172.55 216.96 168.03 C 214.02 162.73 208.22 158.86 202.04 159.18 C 195.37 158.68 188.77 161.45 183.94 165.95 Z" />
<path fill="#262626" opacity="1.00" d=" M 194.48 171.26 C 197.93 169.76 200.27 174.10 200.08 177.02 C 200.29 179.94 198.79 184.23 195.19 183.84 C 190.36 181.90 190.22 173.90 194.48 171.26 Z" />
<path fill="#262626" opacity="1.00" d=" M 273.17 188.12 C 276.86 187.24 280.86 186.35 284.60 187.40 C 289.51 190.77 286.49 201.23 280.03 199.84 C 274.42 198.76 268.28 197.84 263.92 193.81 C 265.61 190.25 269.70 189.16 273.17 188.12 Z" />
<path fill="#262626" opacity="1.00" d=" M 310.41 217.64 C 320.39 215.49 332.05 215.85 340.06 222.96 C 346.51 228.27 349.37 236.86 349.21 245.01 C 348.35 256.36 342.48 266.61 341.69 277.99 C 340.58 293.67 343.68 309.32 342.64 325.01 C 341.67 333.15 337.06 340.59 330.99 345.97 C 322.23 353.55 310.62 358.02 298.99 357.60 C 291.05 357.63 282.80 354.55 277.61 348.39 C 271.37 340.47 270.90 329.72 271.91 320.10 C 273.46 307.38 282.86 297.33 284.40 284.61 C 285.09 277.31 284.90 269.92 284.24 262.63 C 282.79 252.54 283.49 241.67 288.68 232.67 C 293.14 224.66 301.52 219.37 310.41 217.64 M 303.63 228.86 C 304.29 235.50 305.09 242.45 302.79 248.87 C 302.43 248.86 301.72 248.83 301.37 248.82 C 299.70 245.30 298.18 241.24 294.13 239.87 C 290.58 249.23 292.07 259.29 293.07 268.96 C 294.08 279.82 292.51 291.03 287.92 300.97 C 285.72 306.04 282.74 310.80 281.22 316.15 C 279.00 323.67 279.02 331.95 281.66 339.36 C 284.54 346.51 292.73 349.64 299.96 349.55 C 310.23 349.40 320.61 345.23 327.68 337.68 C 331.77 333.55 334.50 327.93 334.64 322.07 C 335.26 303.21 330.64 283.98 335.68 265.42 C 337.43 257.95 341.30 250.83 340.74 242.96 C 340.91 239.27 339.56 235.80 337.86 232.60 C 335.54 235.59 335.08 239.67 332.36 242.34 C 330.11 237.11 329.65 231.41 329.28 225.80 C 320.80 224.06 311.33 224.58 303.63 228.86 Z" />
<path fill="#262626" opacity="1.00" d=" M 466.29 250.25 C 473.17 249.41 480.92 249.87 486.43 254.58 C 493.81 260.67 496.30 270.80 496.04 280.01 C 496.20 289.18 493.64 299.26 486.17 305.20 C 480.61 309.78 472.91 310.06 466.08 309.15 C 457.75 307.85 451.19 301.06 448.73 293.20 C 446.14 284.90 446.10 275.79 448.25 267.38 C 450.37 258.89 457.43 251.47 466.29 250.25 M 468.38 262.29 C 463.82 264.02 461.12 268.70 460.35 273.32 C 459.14 280.07 459.49 287.68 463.57 293.46 C 466.09 296.81 471.00 299.28 474.98 296.95 C 480.28 294.52 482.59 288.49 483.00 283.02 C 483.40 277.31 483.09 271.08 479.79 266.19 C 477.33 262.76 472.46 260.31 468.38 262.29 Z" />
<path fill="#262626" opacity="1.00" d=" M 405.79 251.05 C 410.06 250.95 414.35 250.93 418.62 251.10 C 418.62 266.72 418.52 282.35 418.66 297.97 C 426.35 298.09 434.04 297.89 441.73 298.06 C 441.75 301.82 441.75 305.58 441.74 309.34 C 429.76 309.57 417.77 309.50 405.79 309.39 C 405.69 289.94 405.69 270.49 405.79 251.05 Z" />
<path fill="#262626" opacity="1.00" d=" M 504.79 251.05 C 509.06 250.95 513.35 250.93 517.62 251.10 C 517.62 266.72 517.52 282.35 517.66 297.97 C 525.35 298.09 533.04 297.89 540.73 298.06 C 540.75 301.82 540.75 305.58 540.74 309.34 C 528.76 309.58 516.77 309.49 504.79 309.39 C 504.69 289.94 504.69 270.49 504.79 251.05 Z" />
</g>
</svg>
