<?xml version="1.0" encoding="UTF-8" ?>
<!DOCTYPE svg PUBLIC "-//W3C//DTD SVG 1.1//EN" "http://www.w3.org/Graphics/SVG/1.1/DTD/svg11.dtd">
<svg width="435pt" height="389pt" viewBox="0 0 435 389" version="1.1" xmlns="http://www.w3.org/2000/svg">
<g id="#ffffffff">
<path fill="#ffffff" opacity="1.00" d=" M 127.02 125.40 C 143.86 121.10 164.28 128.33 171.51 144.90 C 148.49 145.08 125.46 145.04 102.43 144.92 C 106.87 134.88 116.41 127.74 127.02 125.40 Z" />
<path fill="#ffffff" opacity="1.00" d=" M 270.04 139.00 C 288.21 126.00 317.91 133.69 326.04 154.92 C 303.78 155.08 281.51 155.00 259.24 154.96 C 260.75 148.54 264.63 142.77 270.04 139.00 Z" />
<path fill="#ffffff" opacity="1.00" d=" M 100.81 150.31 C 104.24 149.86 107.70 150.01 111.15 149.96 C 110.04 151.61 108.70 153.72 110.04 155.67 C 113.55 160.57 122.23 160.59 125.78 155.74 C 127.22 153.80 125.86 151.60 124.71 149.95 C 140.72 150.07 156.73 149.97 172.74 150.00 C 173.44 156.93 172.33 164.19 167.91 169.79 C 154.00 188.57 122.53 189.25 107.46 171.55 C 102.28 165.80 100.33 157.91 100.81 150.31 Z" />
<path fill="#ffffff" opacity="1.00" d=" M 259.10 160.02 C 263.51 159.97 267.92 160.05 272.33 159.95 C 271.19 161.51 270.32 163.68 271.63 165.44 C 274.57 169.38 281.53 169.32 284.21 165.12 C 285.32 163.41 284.33 161.45 283.37 159.96 C 298.11 160.15 312.85 159.78 327.59 160.15 C 328.45 168.57 325.12 177.31 318.47 182.65 C 301.84 196.74 273.27 191.33 262.45 172.56 C 260.14 168.81 259.05 164.41 259.10 160.02 Z" />
</g>
<g id="#262626ff">
<path fill="#262626" opacity="1.00" d=" M 50.39 29.94 C 59.89 28.32 69.57 28.30 79.17 28.80 C 94.80 30.45 110.45 34.69 123.75 43.31 C 128.01 46.58 133.50 43.67 138.21 43.20 L 138.86 42.81 C 157.41 39.18 176.11 35.63 195.07 35.40 C 211.13 34.90 227.32 35.78 243.01 39.47 C 262.40 43.88 281.23 52.03 296.77 64.55 C 300.97 63.43 304.79 61.27 308.87 59.83 C 315.93 56.99 323.35 55.20 330.81 53.82 C 337.57 53.29 344.32 52.21 351.11 52.84 C 354.38 53.45 357.72 53.53 361.02 53.87 C 366.70 55.05 373.90 55.17 376.86 61.16 C 382.66 73.20 381.29 87.06 381.32 100.03 C 380.74 105.32 380.62 110.67 379.88 115.95 C 378.05 135.05 374.16 153.93 368.93 172.37 C 369.54 180.60 369.62 188.90 369.19 197.15 C 367.25 219.02 359.45 240.49 345.73 257.73 C 333.59 273.55 317.08 285.31 299.76 294.84 C 303.70 315.83 309.34 336.46 314.84 357.08 C 309.04 341.41 302.54 326.00 296.51 310.42 C 294.28 304.34 290.98 298.29 291.57 291.61 C 292.88 288.52 295.97 287.11 298.78 285.70 C 320.25 274.38 339.36 257.36 350.24 235.40 C 358.06 219.82 361.45 202.30 361.36 184.95 C 361.44 179.94 360.19 174.98 360.77 169.97 C 368.13 146.72 371.75 122.36 372.99 98.05 C 374.00 89.64 372.82 81.23 372.26 72.84 C 366.90 69.95 360.29 70.92 355.36 74.24 C 349.84 77.85 344.38 83.10 343.64 90.00 C 343.15 94.75 346.19 98.70 349.21 101.98 C 343.39 98.45 338.69 92.10 339.31 85.02 C 339.91 75.63 346.32 68.10 352.23 61.33 C 343.58 61.14 334.83 61.02 326.37 63.11 C 318.15 64.78 310.34 67.94 302.68 71.30 C 299.95 72.61 296.69 73.28 293.79 72.16 C 289.38 69.36 285.35 66.00 280.87 63.31 C 266.55 54.60 250.49 48.91 234.01 46.03 C 214.60 42.64 194.66 42.59 175.16 45.13 C 172.50 45.38 169.82 45.56 167.21 46.13 C 163.15 46.64 159.11 47.31 155.09 48.08 C 146.72 49.52 138.47 51.55 130.13 53.14 C 127.17 53.76 123.96 53.51 121.47 51.69 C 110.87 44.52 98.59 39.76 85.89 38.15 L 85.29 37.71 C 81.89 37.45 78.48 37.27 75.08 37.07 C 84.24 45.05 92.61 55.50 93.54 68.08 C 94.49 79.81 88.21 90.78 80.01 98.69 C 84.75 93.26 88.35 86.35 87.75 78.94 C 86.95 68.15 79.84 58.81 71.56 52.34 C 65.25 47.35 55.07 46.14 48.92 51.92 C 46.77 61.47 45.48 71.26 45.27 81.05 C 44.58 88.94 44.25 96.95 45.13 104.84 C 45.61 121.34 47.84 137.77 51.09 153.94 C 55.36 175.93 61.79 197.70 72.52 217.44 C 86.74 243.97 108.01 267.09 134.45 281.75 C 137.72 283.76 142.10 284.52 144.27 287.95 C 145.48 292.08 143.18 296.04 142.13 299.93 C 136.73 315.60 131.15 331.21 125.66 346.85 C 124.20 351.12 122.26 355.26 121.50 359.73 C 121.41 359.36 121.23 358.60 121.15 358.23 L 121.22 357.34 C 122.05 355.29 122.87 353.23 123.29 351.06 C 125.85 339.36 128.40 327.66 130.92 315.95 C 132.56 307.88 134.74 299.91 135.93 291.76 C 115.01 281.43 96.85 265.89 82.46 247.61 C 66.82 227.74 55.63 204.55 48.86 180.23 C 46.83 173.60 45.57 166.77 43.89 160.05 C 42.48 152.71 41.02 145.37 39.93 137.98 C 38.99 132.72 38.75 127.37 37.86 122.11 C 37.43 117.80 37.66 113.42 36.80 109.16 C 36.29 95.36 36.44 81.55 37.83 67.82 C 39.48 56.78 41.16 45.64 45.05 35.12 C 45.96 32.73 47.80 30.53 50.39 29.94 Z" />
<path fill="#262626" opacity="1.00" d=" M 128.88 118.90 C 139.67 117.32 151.13 118.87 160.60 124.48 C 169.60 129.65 176.88 138.54 178.59 148.95 C 180.05 155.31 178.58 162.00 175.98 167.87 C 170.63 179.18 159.20 186.75 147.15 189.23 C 134.49 192.09 120.64 189.44 110.01 181.96 C 102.67 176.88 97.08 169.00 95.45 160.16 C 93.49 151.74 96.06 142.76 100.87 135.75 C 107.38 126.57 117.89 120.76 128.88 118.90 M 127.02 125.40 C 116.41 127.74 106.87 134.88 102.43 144.92 C 125.46 145.04 148.49 145.08 171.51 144.90 C 164.28 128.33 143.86 121.10 127.02 125.40 M 100.81 150.31 C 100.33 157.91 102.28 165.80 107.46 171.55 C 122.53 189.25 154.00 188.57 167.91 169.79 C 172.33 164.19 173.44 156.93 172.74 150.00 C 156.73 149.97 140.72 150.07 124.71 149.95 C 125.86 151.60 127.22 153.80 125.78 155.74 C 122.23 160.59 113.55 160.57 110.04 155.67 C 108.70 153.72 110.04 151.61 111.15 149.96 C 107.70 150.01 104.24 149.86 100.81 150.31 Z" />
<path fill="#262626" opacity="1.00" d=" M 285.07 127.02 C 298.19 125.33 312.09 129.49 321.84 138.51 C 328.98 144.92 333.76 154.30 333.47 164.03 C 333.57 173.17 328.88 181.99 321.82 187.66 C 308.10 198.82 287.56 199.08 272.51 190.46 C 263.04 185.07 255.29 175.85 253.44 164.92 C 251.82 157.87 253.71 150.39 257.19 144.19 C 262.93 134.30 273.97 128.47 285.07 127.02 M 270.04 139.00 C 264.63 142.77 260.75 148.54 259.24 154.96 C 281.51 155.00 303.78 155.08 326.04 154.92 C 317.91 133.69 288.21 126.00 270.04 139.00 M 259.10 160.02 C 259.05 164.41 260.14 168.81 262.45 172.56 C 273.27 191.33 301.84 196.74 318.47 182.65 C 325.12 177.31 328.45 168.57 327.59 160.15 C 312.85 159.78 298.11 160.15 283.37 159.96 C 284.33 161.45 285.32 163.41 284.21 165.12 C 281.53 169.32 274.57 169.38 271.63 165.44 C 270.32 163.68 271.19 161.51 272.33 159.95 C 267.92 160.05 263.51 159.97 259.10 160.02 Z" />
<path fill="#262626" opacity="1.00" d=" M 196.41 172.67 C 205.19 171.46 214.14 170.83 222.96 171.88 C 226.18 172.49 230.20 172.95 232.07 176.03 C 232.07 179.27 228.61 180.90 226.20 182.33 C 219.99 185.25 212.62 188.18 205.86 185.35 C 201.21 183.38 196.05 181.23 193.38 176.68 C 192.12 174.58 194.52 172.82 196.41 172.67 Z" />
<path fill="#262626" opacity="1.00" d=" M 122.53 218.68 C 141.18 210.49 162.23 210.80 182.07 213.25 C 195.32 215.16 208.50 217.96 221.13 222.43 C 195.66 215.60 168.84 217.39 143.02 221.05 C 131.65 222.51 120.51 225.55 109.08 226.51 C 112.91 222.92 117.88 220.96 122.53 218.68 Z" />
</g>
</svg>
