<?xml version="1.0" encoding="utf-8"?>
<!-- Generator: Adobe Illustrator 15.0.2, SVG Export Plug-In . SVG Version: 6.00 Build 0)  -->
<!DOCTYPE svg PUBLIC "-//W3C//DTD SVG 1.1//EN" "http://www.w3.org/Graphics/SVG/1.1/DTD/svg11.dtd">
<svg version="1.1" id="Layer_1" xmlns="http://www.w3.org/2000/svg" xmlns:xlink="http://www.w3.org/1999/xlink" x="0px" y="0px"
	 width="184px" height="155px" viewBox="0 0 184 155" enable-background="new 0 0 184 155" xml:space="preserve">
<path fill="#FFFFFF" d="M0,0h184v121.28c-17.02,0.01-34.04,0-51.061,0.02c-2.5,0.08-4.75-1.14-7.149-1.6
	c-2.25-0.21-4.5,0.17-6.71,0.51c-2.221,0.29-3.73,2.57-6.07,2.38c-7.01,0.061-14.02-0.06-21.03,0.02
	c-3.46,0.171-6.64-1.329-9.91-2.199c1.33-0.53,2.67-1.051,4.01-1.57c0.12-2.57-1.46-4.17-3.47-5.449
	c-0.32-7.351-0.11-14.73-0.12-22.08c5.92,0.909,11.939,0.869,17.81,2.149c6.9,0.42,13.83,0.07,20.74,0.16
	c2.84,0.17,5.46-1.08,8.16-1.729c3.12,0.539,6.55,1.709,9.479-0.15c3.87-2.2,9.12-2.41,11.801-6.34c1.39-3.141,2.26-6.49,3.359-9.74
	c0.87-2.13-0.9-4.54,0.311-6.6c1.119-2.17,2.99-3.81,4.66-5.55c0.399-3.979-2.4-6.99-4.461-10.07c-2.869-1.22-6.199-1.07-9.22-1.95
	c-2.83,1.05-5.43,2.61-8.149,3.91c-2.11-2.13-4.461-4.07-6.07-6.62c-0.689-4.85,0.13-9.78-0.36-14.65
	c-3.06-9.4-7.43-19.04-15.75-24.91c-2.229-1.4-3.75-3.56-5.51-5.45c-3.71-1.84-8.011-1.59-11.99-2.42
	c-5.02-1.24-10.22-0.76-15.34-0.84c-5.34-0.29-9.45,3.74-14.28,5.33c-4.27,1.3-8.32,4.48-9.08,9.1c-0.49,5.88,0.14,11.8-0.27,17.69
	c-0.48,1.8-2.19,2.96-2.97,4.64c-0.39,4.09-0.08,8.22,0.01,12.32c1.14,1.13,2.29,2.25,3.43,3.38c-1.35,4.48-0.14,9.66,3.39,12.811
	c3.24,2.89,6.46,5.8,9.53,8.87c-0.88,0.63-1.76,1.27-2.64,1.92c-5.56-1.69-11.38-1.02-17.1-1.18c-2.46-0.02-5.01-0.13-7.31,0.89
	C38.96,78.5,32.43,78.51,27.23,82c-2.96,2.439-5.8,5.02-8.82,7.4c-0.03,4.369-0.57,8.8,0.09,13.149c1.7,2.341,4.38,3.62,6.5,5.511
	c1.43,0.989,0.66,2.799,0.7,4.22c-0.22,5.78-0.81,11.54-1.26,17.3c-0.66,0.96-1.92,1.109-2.94,1.48
	c-7.22,1.319-14.47,2.689-21.5,4.85V0z"/>
<path fill="#0A0A0A" d="M67.68,5.84c4.83-1.59,8.94-5.62,14.28-5.33c5.12,0.08,10.32-0.4,15.34,0.84
	c3.979,0.83,8.28,0.58,11.99,2.42c1.76,1.89,3.28,4.05,5.51,5.45c8.32,5.87,12.69,15.51,15.75,24.91c0.49,4.87-0.329,9.8,0.36,14.65
	c1.609,2.55,3.96,4.49,6.07,6.62c2.72-1.3,5.319-2.86,8.149-3.91c3.021,0.88,6.351,0.729,9.22,1.95
	c2.061,3.08,4.86,6.09,4.461,10.07c-1.67,1.74-3.541,3.38-4.66,5.55c-1.211,2.06,0.56,4.47-0.311,6.6c-1.1,3.25-1.97,6.6-3.359,9.74
	c-2.681,3.93-7.931,4.14-11.801,6.34c-2.93,1.859-6.359,0.689-9.479,0.15c-2.7,0.649-5.32,1.899-8.16,1.729
	c-6.91-0.09-13.84,0.26-20.74-0.16c-5.87-1.28-11.89-1.24-17.81-2.149c0.01,7.35-0.2,14.729,0.12,22.08
	c2.01,1.279,3.59,2.879,3.47,5.449c-1.34,0.52-2.68,1.04-4.01,1.57c3.27,0.87,6.45,2.37,9.91,2.199
	c7.01-0.079,14.02,0.041,21.03-0.02c2.34,0.19,3.85-2.09,6.07-2.38c2.21-0.34,4.46-0.72,6.71-0.51c2.399,0.46,4.649,1.68,7.149,1.6
	c17.021-0.02,34.041-0.01,51.061-0.02v4.38c-17.359-0.35-34.721-0.02-52.08-0.2c-3.439-0.33-6.439,1.89-9.85,1.851
	c-13.75,0.069-27.521-0.211-41.26,0.26c-3.25-0.28-6.11,1.46-8.85,2.93c-1.13-0.609-2.25-1.24-3.36-1.87
	c-4.6-0.09-9.13,0.64-13.62,1.56c-14.82,1.461-29.52,3.98-44.07,7.141C7.17,138,3.47,138.96,0,140.52v-4.609
	c7.03-2.16,14.28-3.53,21.5-4.85c1.02-0.371,2.28-0.521,2.94-1.48c0.45-5.76,1.04-11.52,1.26-17.3c-0.04-1.421,0.73-3.23-0.7-4.22
	c-2.12-1.891-4.8-3.17-6.5-5.511c-0.66-4.35-0.12-8.78-0.09-13.149c3.02-2.381,5.86-4.961,8.82-7.4c5.2-3.49,11.73-3.5,17.44-5.72
	c2.3-1.021,4.85-0.91,7.31-0.89c5.72,0.16,11.54-0.51,17.1,1.18c0.88-0.65,1.76-1.29,2.64-1.92c-3.07-3.07-6.29-5.98-9.53-8.87
	c-3.53-3.15-4.74-8.33-3.39-12.811c-1.14-1.13-2.29-2.25-3.43-3.38c-0.09-4.1-0.4-8.23-0.01-12.32c0.78-1.68,2.49-2.84,2.97-4.64
	c0.41-5.89-0.22-11.81,0.27-17.69C59.36,10.32,63.41,7.14,67.68,5.84 M70.04,8.2c-3.49,0.88-6.59,3.45-7.83,6.86
	c-1.27,5.11-0.09,10.5-0.63,15.72c1.57-1.03,3.05-2.83,5.13-2.48c1.79-0.14,2.12,1.84,2.9,3.01c-4.85-0.22-8.3,3.65-10.9,7.24
	c-0.12,3.88-1.6,8.96,2.1,11.64c2.4,2.44,5.86,3.14,8.89,4.46c-0.1,1.31-0.22,2.62-0.35,3.93c-2.91-0.7-5.56-2.12-8.21-3.48
	c0.49,3.42,1.7,7,4.51,9.21c2.25,1.9,4.38,3.94,6.34,6.15c4.72-0.11,9.25,1.54,13.98,1.34c6.27,0.86,13.68,2.42,19.209-1.55
	c0.11-6.48,3.11-12.31,6.811-17.44c1.039-0.44,2.08-0.85,3.13-1.24c4.28-0.25,7.989-2.83,12.399-2.07
	c-0.129-5.01,0.431-10.09-0.229-15.05c-2.021-4.55-4.16-9.04-6.229-13.56c-4.98-0.73-10.11,0.1-15.15-0.33
	c-1.2-1.04-1.21-2.1-0.02-3.16c3.739-0.26,7.51,0.24,11.25-0.18c0.069-0.229,0.199-0.68,0.27-0.91c-2.881-2.34-5.59-4.85-8.16-7.53
	C105.2,4.36,98.71,5.8,93.54,3.96c-4.68-0.5-9.45-0.25-14.15-0.14C76.23,5.19,73.38,7.24,70.04,8.2 M117.54,54.57
	c-2.03,2.07-5.14,4.11-4.83,7.39c0.261,2.96-0.979,6.13,0.24,8.95c4.36,5.24,9.569,9.689,15.09,13.65
	c2.78-1.271,3.78-4.641,6.33-6.24c2.55-1.58,4.96-3.41,7.68-4.73c2.011-0.19,4.03-0.11,6.05-0.16c-0.68-1.69-1.82-3.12-3.16-4.34
	c-4.92-4.73-9.6-9.72-14.51-14.45C126.221,54.01,121.779,54.15,117.54,54.57 M101.91,75.92c-6.381,1.87-12.87-0.46-19.3-0.53
	c-0.53,0.98-1.06,1.95-1.61,2.93c-1.8,0.64-5.5-0.18-5.71,2.35c2.22,0.86,4.64,0.54,6.97,0.689c0.16,1.551,0.37,3.61,2.23,4.011
	c4.14,1.87,8.8,0.399,13.07,1.649c7.51,2.311,15.479,0.971,23.209,1.23c1.57,0.34,1.69-1.28,2.131-2.34
	c-5.59-2.96-9.101-8.61-13.9-12.63C106.62,74.13,104.279,75.07,101.91,75.92 M133.24,86.05c1.5,1.23,3.46,3.53,5.51,1.92
	c2.689-2.229,6.15-3.31,8.83-5.479c1.75-1.17,0.29-2.86-0.21-4.29C141.609,77.51,134.939,80.04,133.24,86.05 M29.58,87.54
	c-1.99,1.66-3.82,3.5-5.89,5.069c-0.01,2.841-0.01,5.69,0.1,8.531c1.21,0.149,2.41,0.31,3.61,0.469c0.19-2.819-1.39-6.77,1.42-8.64
	c10.2-6.42,22.85-5.3,34.01-8.939c1.58-0.69,1.07-3.561-0.8-3.19c-4.31-0.029-8.62-0.189-12.92,0.1
	C42.9,84.12,35.47,83.609,29.58,87.54 M69.37,85.41c-4.62,4.41-7.7,10.12-10.76,15.66c-0.78,3.33,0.08,7-1.87,10.09
	c1.34,2.609,4.68,0.67,6.96,1.52c5.14,1.76,10.65,0.53,15.95,1c-0.15-7.76,1.28-15.51-0.16-23.22c-2.45-1.47-5.17-2.61-7.01-4.94
	C71.44,85.48,70.41,85.439,69.37,85.41 M41.66,90.939c-2.32,0.841-5.81-0.14-7.13,2.44c-0.09,5,0.01,10,0.01,14.99
	c2.81,1.38,5.46,3.19,8.47,4.13c2.47,0.21,4.95,0.05,7.42-0.01c0.83-4.11,1.44-8.221,1.44-12.42c2.55-3.76,3.89-8.131,6.52-11.83
	C52.69,88.26,47.29,90.32,41.66,90.939 M31.08,105.83c2.11-3.46,1.89-8.51-0.06-12C28.9,97.22,28.83,102.47,31.08,105.83
	 M28.54,111.1c0.27,6.211-1.53,12.23-1.14,18.431c1.65-0.08,3.31-0.12,4.96-0.16c0.04-5.37-0.03-10.74,0.09-16.11
	C31.23,112.391,29.93,111.65,28.54,111.1 M34.52,116.16c-0.09,4.18,0.07,8.35-0.03,12.529c5.65-0.799,11.29-1.77,17.03-1.459
	c-0.66-2.86-1.19-5.761-1.26-8.7c-3.42-0.08-6.85,0.14-10.26-0.171C38.19,117.57,36.48,116.55,34.52,116.16 M56.34,118.41
	c0.11,2.37,0.21,4.74,0.2,7.109c2.99-0.199,5.99,0.08,8.97-0.22c2.49-1.35,2.21-4.569,3.21-6.88
	C64.59,118.49,60.47,118.54,56.34,118.41 M72.35,120.38c0.04,0.49,0.1,1.49,0.14,1.979c2.69,0.99,5.52,1.4,8.38,1.461
	c-0.81-1.07-1.62-2.131-2.41-3.211C76.43,120.51,74.39,120.43,72.35,120.38z"/>
<path fill="#FFFFFF" d="M70.04,8.2c3.34-0.96,6.19-3.01,9.35-4.38c4.7-0.11,9.47-0.36,14.15,0.14c5.17,1.84,11.66,0.4,15.71,4.82
	c2.57,2.68,5.279,5.189,8.16,7.53c-0.07,0.23-0.2,0.68-0.27,0.91c-3.74,0.42-7.511-0.08-11.25,0.18c-1.19,1.06-1.181,2.12,0.02,3.16
	c5.04,0.43,10.17-0.4,15.15,0.33c2.069,4.52,4.209,9.01,6.229,13.56c0.66,4.96,0.101,10.04,0.229,15.05
	c-4.41-0.76-8.119,1.82-12.399,2.07c-1.05,0.39-2.091,0.8-3.13,1.24c-3.7,5.13-6.7,10.96-6.811,17.44
	C99.65,74.22,92.24,72.66,85.97,71.8c-4.73,0.2-9.26-1.45-13.98-1.34c-1.96-2.21-4.09-4.25-6.34-6.15
	c-2.81-2.21-4.02-5.79-4.51-9.21c2.65,1.36,5.3,2.78,8.21,3.48c0.13-1.31,0.25-2.62,0.35-3.93c-3.03-1.32-6.49-2.02-8.89-4.46
	c-3.7-2.68-2.22-7.76-2.1-11.64c2.6-3.59,6.05-7.46,10.9-7.24c-0.78-1.17-1.11-3.15-2.9-3.01c-2.08-0.35-3.56,1.45-5.13,2.48
	c0.54-5.22-0.64-10.61,0.63-15.72C63.45,11.65,66.55,9.08,70.04,8.2 M79.46,22.56c-0.01,0.74-0.03,2.22-0.04,2.96
	c2.06,0.22,4.13,0.19,6.2,0.13c0,2.13-0.1,4.26-0.01,6.39c0.97,2.52,4.12,2.86,6.28,3.97c4.03-1.47,3.27-6.58,1.92-9.8
	c1.199-0.51,2.5-0.96,3.31-2.07c-0.78-0.4-2.351-1.2-3.14-1.6C89.15,22.46,84.3,22.37,79.46,22.56 M114.27,26.01
	c-2.459,0.93-5.09,3.09-4.729,6c-0.7,2.81,2.38,4.49,4.51,5.5c5.08,0.72,8.181-6.28,5.64-10.1
	C118.26,26.21,116.13,24.97,114.27,26.01z"/>
<path fill="#0A0A0A" d="M79.46,22.56c4.84-0.19,9.69-0.1,14.521-0.02c0.789,0.4,2.359,1.2,3.14,1.6c-0.81,1.11-2.11,1.56-3.31,2.07
	c1.35,3.22,2.109,8.33-1.92,9.8c-2.16-1.11-5.31-1.45-6.28-3.97c-0.09-2.13,0.01-4.26,0.01-6.39c-2.07,0.06-4.14,0.09-6.2-0.13
	C79.43,24.78,79.45,23.3,79.46,22.56z"/>
<path fill="#0A0A0A" d="M114.27,26.01c1.86-1.04,3.99,0.2,5.42,1.4c2.541,3.82-0.56,10.82-5.64,10.1c-2.13-1.01-5.21-2.69-4.51-5.5
	C109.18,29.1,111.811,26.94,114.27,26.01z"/>
<path fill="#FFFFFF" d="M117.54,54.57c4.239-0.42,8.681-0.56,12.89,0.07c4.91,4.73,9.59,9.72,14.51,14.45
	c1.34,1.22,2.48,2.65,3.16,4.34c-2.02,0.05-4.039-0.03-6.05,0.16c-2.72,1.32-5.13,3.15-7.68,4.73c-2.55,1.6-3.55,4.97-6.33,6.24
	c-5.521-3.961-10.729-8.411-15.09-13.65c-1.22-2.82,0.021-5.99-0.24-8.95C112.4,58.68,115.51,56.64,117.54,54.57z"/>
<path fill="#FFFFFF" d="M101.91,75.92c2.369-0.85,4.71-1.79,7.09-2.64c4.8,4.02,8.311,9.67,13.9,12.63
	c-0.44,1.06-0.561,2.68-2.131,2.34c-7.729-0.26-15.699,1.08-23.209-1.23c-4.271-1.25-8.931,0.221-13.07-1.649
	c-1.86-0.4-2.07-2.46-2.23-4.011c-2.33-0.149-4.75,0.171-6.97-0.689c0.21-2.529,3.91-1.71,5.71-2.35c0.55-0.98,1.08-1.95,1.61-2.93
	C89.04,75.46,95.529,77.79,101.91,75.92z"/>
<path fill="#FFFFFF" d="M133.24,86.05c1.699-6.01,8.369-8.54,14.13-7.85c0.5,1.43,1.96,3.12,0.21,4.29
	c-2.68,2.17-6.141,3.25-8.83,5.479C136.7,89.58,134.74,87.28,133.24,86.05z"/>
<path fill="#FFFFFF" d="M29.58,87.54c5.89-3.931,13.32-3.42,19.53-6.601c4.3-0.289,8.61-0.129,12.92-0.1
	c1.87-0.37,2.38,2.5,0.8,3.19c-11.16,3.64-23.81,2.52-34.01,8.939c-2.81,1.87-1.23,5.82-1.42,8.64c-1.2-0.159-2.4-0.319-3.61-0.469
	c-0.11-2.841-0.11-5.69-0.1-8.531C25.76,91.04,27.59,89.2,29.58,87.54z"/>
<path fill="#FFFFFF" d="M69.37,85.41c1.04,0.029,2.07,0.07,3.11,0.109c1.84,2.33,4.56,3.471,7.01,4.94
	c1.44,7.71,0.01,15.46,0.16,23.22c-5.3-0.47-10.81,0.76-15.95-1c-2.28-0.85-5.62,1.09-6.96-1.52c1.95-3.09,1.09-6.76,1.87-10.09
	C61.67,95.53,64.75,89.82,69.37,85.41z"/>
<path fill="#FFFFFF" d="M41.66,90.939c5.63-0.619,11.03-2.68,16.73-2.699c-2.63,3.699-3.97,8.07-6.52,11.83
	c0,4.199-0.61,8.31-1.44,12.42c-2.47,0.06-4.95,0.22-7.42,0.01c-3.01-0.939-5.66-2.75-8.47-4.13c0-4.99-0.1-9.99-0.01-14.99
	C35.85,90.8,39.34,91.78,41.66,90.939z"/>
<path fill="#FFFFFF" d="M31.08,105.83c-2.25-3.36-2.18-8.61-0.06-12C32.97,97.32,33.19,102.37,31.08,105.83z"/>
<path fill="#FFFFFF" d="M28.54,111.1c1.39,0.551,2.69,1.291,3.91,2.16c-0.12,5.37-0.05,10.74-0.09,16.11
	c-1.65,0.04-3.31,0.08-4.96,0.16C27.01,123.33,28.81,117.311,28.54,111.1z"/>
<path fill="#FFFFFF" d="M34.52,116.16c1.96,0.39,3.67,1.41,5.48,2.199c3.41,0.311,6.84,0.091,10.26,0.171
	c0.07,2.939,0.6,5.84,1.26,8.7c-5.74-0.311-11.38,0.66-17.03,1.459C34.59,124.51,34.43,120.34,34.52,116.16z"/>
<path fill="#FFFFFF" d="M56.34,118.41c4.13,0.13,8.25,0.08,12.38,0.01c-1,2.311-0.72,5.53-3.21,6.88c-2.98,0.3-5.98,0.021-8.97,0.22
	C56.55,123.15,56.45,120.78,56.34,118.41z"/>
<path fill="#FFFFFF" d="M72.35,120.38c2.04,0.05,4.08,0.13,6.11,0.229c0.79,1.08,1.6,2.141,2.41,3.211
	c-2.86-0.061-5.69-0.471-8.38-1.461C72.45,121.87,72.39,120.87,72.35,120.38z"/>
<path fill="#FFFFFF" d="M122.07,127.311c3.41,0.039,6.41-2.181,9.85-1.851c17.359,0.181,34.721-0.149,52.08,0.2V155H0v-14.48
	c3.47-1.56,7.17-2.52,10.91-3.189c14.55-3.16,29.25-5.68,44.07-7.141c4.49-0.92,9.02-1.649,13.62-1.56
	c1.11,0.63,2.23,1.261,3.36,1.87c2.74-1.47,5.6-3.21,8.85-2.93C94.55,127.1,108.32,127.38,122.07,127.311z"/>
</svg>
