<?xml version="1.0" encoding="utf-8"?>
<!-- Generator: Adobe Illustrator 15.0.2, SVG Export Plug-In . SVG Version: 6.00 Build 0)  -->
<!DOCTYPE svg PUBLIC "-//W3C//DTD SVG 1.1//EN" "http://www.w3.org/Graphics/SVG/1.1/DTD/svg11.dtd">
<svg version="1.1" id="Layer_1" xmlns="http://www.w3.org/2000/svg" xmlns:xlink="http://www.w3.org/1999/xlink" x="0px" y="0px"
	 width="199px" height="164px" viewBox="0 0 199 164" enable-background="new 0 0 199 164" xml:space="preserve">
<path fill="#FFFFFF" d="M0,0h199v164h-18.33c-0.02-2.6-0.029-5.21,0.33-7.78c1.08-6.89,0.32-13.93,1.561-20.79
	c4.06-2.89,9.279-4.56,11.719-9.32c3.591-7.52,4.351-16.739,1.08-24.51c-3.479-7.43-11.819-10.619-19.399-11.959
	c-13.62-2.9-27.26,1.359-40.729,3.1c-2.101-0.21-5.75-1.631-4.961-4.35c3.061-3.66,6.28-7.221,8.771-11.311
	c2.88-4.69,8.66-7.51,9.649-13.31c1.451-4.5-1.34-8.73-2.09-13.06c-0.529-6.01-1.619-12-3.55-17.73
	c-5.319-13.92-16.979-25.42-31.271-29.9C100.62-0.89,87.98-0.59,77.07,4.06c-13.72,5.09-24.6,16.8-29.18,30.63
	c-4.11,12.67-3.45,27.04,2.62,38.98c9.51,19.71,32.92,31.3,54.36,27.13c6.72-1.649,13.5-3.77,19.13-7.94
	c0.85,0.57,1.7,1.141,2.54,1.701c0.069,0.56,0.19,1.659,0.25,2.209c-6.45,2.03-12.8,4.601-19.601,5.301
	c-6.049,0.5-12.04,1.52-18.12,1.56c-8.17,1.729-16.93,3.351-23.43,9c-3.36,3.04-4,7.94-2.92,12.16c1.32,3.45,3.82,6.24,5.76,9.351
	c-22.94,1.25-45.81,3.699-68.48,7.409V0z"/>
<path fill="#040404" d="M77.07,4.06c10.91-4.65,23.55-4.95,34.709-0.98c14.291,4.48,25.951,15.98,31.271,29.9
	c1.931,5.73,3.021,11.72,3.55,17.73c0.75,4.33,3.541,8.56,2.09,13.06c-0.989,5.8-6.77,8.62-9.649,13.31
	c-2.49,4.09-5.71,7.65-8.771,11.311c-0.789,2.719,2.86,4.14,4.961,4.35c13.47-1.74,27.109-6,40.729-3.1
	c7.58,1.34,15.92,4.529,19.399,11.959c3.271,7.771,2.511,16.99-1.08,24.51c-2.439,4.761-7.659,6.431-11.719,9.32
	c-1.24,6.86-0.48,13.9-1.561,20.79c-0.359,2.57-0.35,5.181-0.33,7.78h-5.55c-2.57-4.57-5.94-8.76-10.41-11.6
	c-9.06-5.78-19.649-8.69-30.19-10.25c-5.899,6.569-12.26,14.27-21.569,15.5c-6.011,0.81-12.3-0.641-16.91-4.7
	c-5.3-4.931-11.91-8.04-17.95-11.91c-2.96-2.06-6.63-1.181-9.94-0.851c-22.83,1.16-45.57,3.951-68.15,7.451v-6.091
	c22.67-3.71,45.54-6.159,68.48-7.409c-1.94-3.11-4.44-5.9-5.76-9.351c-1.08-4.22-0.44-9.12,2.92-12.16
	c6.5-5.649,15.26-7.271,23.43-9c6.08-0.04,12.071-1.06,18.12-1.56c6.801-0.7,13.15-3.271,19.601-5.301
	c-0.06-0.55-0.181-1.649-0.25-2.209C125.7,94,124.85,93.43,124,92.859c-5.63,4.171-12.41,6.291-19.13,7.94
	c-21.44,4.17-44.85-7.42-54.36-27.13c-6.07-11.94-6.73-26.31-2.62-38.98C52.47,20.86,63.35,9.15,77.07,4.06 M81.41,4.49
	C69.08,8.35,58.32,17.2,52.43,28.72c7.84,0.2,15.7-0.16,23.53,0.19l0.98,0.44c0.17,0.55,0.49,1.65,0.66,2.2
	c-3.46,0.34-6.94,0.17-10.41,0.23c2.22,3.86,3.8,8.65,1.08,12.729c2.8-0.04,5.59-0.01,8.39,0.11c-0.05,0.75-0.15,2.23-0.2,2.97
	c-8.61,0.01-17.22,0.21-25.82-0.12c0.01-0.92,0.02-1.85,0.03-2.78c1.41-0.07,2.83-0.13,4.24-0.18c-1.02-4.22-0.77-8.65,2.14-12.07
	c-1.96-0.4-3.93-0.97-5.95-0.85c-4.11,8.47-4.37,18.16-3.39,27.35C49.84,71,56.47,82.39,66.4,89.67
	c11.58,8.96,27.43,12.141,41.55,8.3c10.78-2.52,19.909-9.51,26.909-17.87c-0.77-0.95-1.529-1.9-2.279-2.86
	c4.85-2.76,10.09-5.64,12.92-10.67c1.811-2.76,1.15-6.26,1.061-9.37c-1.4-5.46-6.32-8.82-10.011-12.71
	c-0.12-0.41-0.37-1.24-0.489-1.65l0.899-0.42c2.58,1.47,4.5,3.81,6.729,5.73c1-6.48-1.689-12.82-4.319-18.61
	c-7.28-14.52-22-25.37-38.32-26.91C94.46,2.39,87.75,2.37,81.41,4.49 M139.7,98.93c1.36,0.891,2.7,1.99,4.42,2.061
	c8.979,1.18,18,2.01,26.94,3.479c4.379,0.16,8.439,1.97,12.459,3.561c0.601,6.53-0.689,13.079-0.209,19.63
	c6.939-2.2,8.299-10.38,7.93-16.69c0.9-8.02-6.87-14.13-14.17-15.06c-7.65-0.82-15.4-0.37-23.09-0.23
	C149.2,96.62,144.05,96.41,139.7,98.93 M124.51,103.85c-0.32,8.15-0.24,16.311-0.05,24.461c2.86-0.791,4.86-2.99,6.83-5.061
	c0.58,0.01,1.739,0.05,2.319,0.07c-0.06,0.5-0.18,1.5-0.239,2c-0.479,0.3-1.46,0.89-1.95,1.18c-0.02,0.47-0.05,1.41-0.07,1.88
	c5.381,1.261,10.851,2.21,16.381,2.44c0.27-9.65-4.61-18.721-10.631-25.95C134.12,100.96,128.49,102.65,124.51,103.85
	 M144.91,104.47c5.42,8.04,8.99,17.33,9.72,27.04c5.46,0.29,10.95,0.36,16.39-0.22c0.311-0.3,0.94-0.92,1.25-1.22
	c0.07-7.48,1.211-14.9,1.07-22.381C163.83,106.9,154.45,104.74,144.91,104.47 M89.03,109.54c-6.88,1.5-14.13,3.11-19.52,7.96
	c-1.63,1.38-1.55,3.939-0.89,5.79c2.23,4.22,5.86,7.51,9.85,10.05c5.84,1.65,10.44-3.07,15.74-4.529
	c8.56-3.74,18.05-2.631,27.11-2.371c-0.28-7.01,0.779-14.159-0.641-21.069C110.32,107.87,99.68,109.391,89.03,109.54
	 M176.721,109.59c-0.171,7.09-1.511,14.12-1.121,21.221c1.601-0.841,4.221-0.761,4.49-3.011c0.68-5.76,0.32-11.61,0.6-17.399
	C179.391,109.98,178.07,109.7,176.721,109.59 M104.77,129.76c0.53,0.41,1.59,1.23,2.121,1.641c4.949-0.021,9.959-0.311,14.639,1.64
	c0.07-0.61,0.221-1.82,0.291-2.431C116.279,129.07,110.439,129.141,104.77,129.76 M91.32,133.4c-0.02,0.51-0.05,1.529-0.07,2.039
	c2.46,0.57,4.9,1.25,7.16,2.4c0.09-0.65,0.28-1.939,0.37-2.58c-0.85,0.07-2.54,0.2-3.39,0.271c0.75-1.16,1.51-2.311,2.27-3.47
	c1.27,0.699,2.57,1.359,3.89,1.979C99.4,129.97,94.49,131.9,91.32,133.4 M115.2,132.4c-1.31,0.109-2.171,2.039-1.14,2.97
	C115.721,136.28,117.43,132.54,115.2,132.4 M100.32,135.02C100.34,138.54,103.221,133.5,100.32,135.02 M174.51,137.5
	c0.17,4.85-0.34,9.7-0.17,14.55c0.801,1.591,2.5,2.41,3.84,3.48c0.43-6.48,0.67-12.99,0.391-19.48
	C177.2,136.49,175.85,136.98,174.51,137.5 M87.88,138.35c2.35,3.25,6.2,4.711,9.64,6.471c0.04,1.75,0.07,3.5,0.09,5.25
	c5.19,4.859,13.22,6.279,19.65,3.189c6.27-3.359,11.85-8.51,14.9-14.99c-7.04,2.851-14.4,5.75-22.15,5.23
	C102.279,143.72,95.21,140.2,87.88,138.35 M105.391,137.96c-1.061,1.39,1.199,3.399,2.229,1.76
	C108.67,138.32,106.45,136.34,105.391,137.96 M110.85,138.439c-0.529,1.591,0.041,2.11,1.73,1.57
	C113.12,138.45,112.54,137.93,110.85,138.439 M153.8,138.67c1.29,2.33,3.89,3.05,6.14,4.09c3.711,1.631,7.181,3.76,10.69,5.78
	c0.16-3.41,0.16-6.82,0.24-10.229C165.18,138.45,159.471,137.99,153.8,138.67z"/>
<path fill="#FFFFFF" d="M81.41,4.49c6.34-2.12,13.05-2.1,19.64-1.86c16.32,1.54,31.04,12.39,38.32,26.91
	c2.63,5.79,5.319,12.13,4.319,18.61c-2.229-1.92-4.149-4.26-6.729-5.73l-0.899,0.42c0.119,0.41,0.369,1.24,0.489,1.65
	c3.69,3.89,8.61,7.25,10.011,12.71c0.09,3.11,0.75,6.61-1.061,9.37c-2.83,5.03-8.07,7.91-12.92,10.67
	c0.75,0.96,1.51,1.91,2.279,2.86c-7,8.36-16.129,15.35-26.909,17.87c-14.12,3.841-29.97,0.66-41.55-8.3
	C56.47,82.39,49.84,71,47.71,58.94c-0.98-9.19-0.72-18.88,3.39-27.35c2.02-0.12,3.99,0.45,5.95,0.85
	c-2.91,3.42-3.16,7.85-2.14,12.07c-1.41,0.05-2.83,0.11-4.24,0.18c-0.01,0.93-0.02,1.86-0.03,2.78c8.6,0.33,17.21,0.13,25.82,0.12
	c0.05-0.74,0.15-2.22,0.2-2.97c-2.8-0.12-5.59-0.15-8.39-0.11c2.72-4.08,1.14-8.87-1.08-12.729c3.47-0.061,6.95,0.11,10.41-0.23
	c-0.17-0.55-0.49-1.65-0.66-2.2l-0.98-0.44c-7.83-0.35-15.69,0.01-23.53-0.19C58.32,17.2,69.08,8.35,81.41,4.49 M86.81,29.89
	c1.46,2.12,3.94,1.87,6.2,1.95c-0.73,1.89-1.68,3.69-2.31,5.62c-0.73,2.35,0.37,4.68,1.04,6.9c-1.42,0.21-2.83,0.42-4.23,0.69
	c0.04,0.61,0.11,1.82,0.15,2.43c8.62,0.32,17.25,0.11,25.869,0.13c0.031-0.75,0.08-2.23,0.101-2.98c-2.89-0.14-5.8-0.14-8.7-0.14
	c0.49-1.8,1.09-3.59,1.41-5.44c-0.609-2.49-1.79-4.81-2.43-7.29c3.51-0.55,8.061,1.48,10.52-1.9c-4.32-1.58-8.939-1-13.43-1.09
	C96.26,28.91,91.37,28.18,86.81,29.89 M81.2,64.43c-0.01,0.55-0.03,1.64-0.04,2.18c4.47-0.06,8.95-0.03,13.43-0.03
	c-0.01-0.53-0.02-1.59-0.03-2.12C90.1,64.47,85.65,64.5,81.2,64.43z"/>
<path fill="#040404" d="M86.81,29.89c4.56-1.71,9.45-0.98,14.19-1.12c4.49,0.09,9.109-0.49,13.43,1.09
	c-2.459,3.38-7.01,1.35-10.52,1.9c0.64,2.48,1.82,4.8,2.43,7.29c-0.32,1.85-0.92,3.64-1.41,5.44c2.9,0,5.811,0,8.7,0.14
	c-0.021,0.75-0.069,2.23-0.101,2.98c-8.619-0.02-17.25,0.19-25.869-0.13c-0.04-0.61-0.11-1.82-0.15-2.43
	c1.4-0.27,2.81-0.48,4.23-0.69c-0.67-2.22-1.77-4.55-1.04-6.9c0.63-1.93,1.58-3.73,2.31-5.62C90.75,31.76,88.27,32.01,86.81,29.89z"
	/>
<path fill="#040404" d="M81.2,64.43c4.45,0.07,8.9,0.04,13.36,0.03c0.01,0.53,0.02,1.59,0.03,2.12c-4.48,0-8.96-0.03-13.43,0.03
	C81.17,66.07,81.19,64.98,81.2,64.43z"/>
<path fill="#FFFFFF" d="M139.7,98.93c4.35-2.52,9.5-2.31,14.28-3.25c7.689-0.14,15.439-0.59,23.09,0.23
	c7.3,0.93,15.07,7.04,14.17,15.06c0.369,6.311-0.99,14.49-7.93,16.69c-0.48-6.551,0.81-13.1,0.209-19.63
	c-4.02-1.591-8.08-3.4-12.459-3.561c-8.94-1.47-17.961-2.3-26.94-3.479C142.4,100.92,141.061,99.82,139.7,98.93z"/>
<path fill="#FFFFFF" d="M124.51,103.85c3.98-1.199,9.61-2.89,12.59,1.021c6.021,7.229,10.9,16.3,10.631,25.95
	c-5.53-0.23-11-1.18-16.381-2.44c0.021-0.47,0.051-1.41,0.07-1.88c0.49-0.29,1.471-0.88,1.95-1.18c0.06-0.5,0.18-1.5,0.239-2
	c-0.58-0.021-1.739-0.061-2.319-0.07c-1.97,2.07-3.97,4.27-6.83,5.061C124.27,120.16,124.189,112,124.51,103.85z"/>
<path fill="#FFFFFF" d="M144.91,104.47c9.54,0.271,18.92,2.431,28.43,3.22c0.141,7.48-1,14.9-1.07,22.381
	c-0.31,0.3-0.939,0.92-1.25,1.22c-5.439,0.58-10.93,0.51-16.39,0.22C153.9,121.8,150.33,112.51,144.91,104.47z"/>
<path fill="#FFFFFF" d="M89.03,109.54c10.65-0.149,21.291-1.67,31.65-4.17c1.42,6.91,0.36,14.06,0.641,21.069
	c-9.061-0.26-18.551-1.369-27.11,2.371c-5.3,1.459-9.9,6.18-15.74,4.529c-3.99-2.54-7.62-5.83-9.85-10.05
	c-0.66-1.851-0.74-4.41,0.89-5.79C74.9,112.65,82.15,111.04,89.03,109.54z"/>
<path fill="#FFFFFF" d="M176.721,109.59c1.35,0.11,2.67,0.391,3.969,0.811c-0.279,5.789,0.08,11.64-0.6,17.399
	c-0.27,2.25-2.89,2.17-4.49,3.011C175.21,123.71,176.55,116.68,176.721,109.59z"/>
<path fill="#FFFFFF" d="M104.77,129.76c5.67-0.619,11.51-0.689,17.051,0.85c-0.07,0.61-0.221,1.82-0.291,2.431
	c-4.68-1.95-9.689-1.66-14.639-1.64C106.359,130.99,105.3,130.17,104.77,129.76z"/>
<path fill="#FFFFFF" d="M91.32,133.4c3.17-1.5,8.08-3.431,10.23,0.64c-1.319-0.62-2.62-1.28-3.89-1.979
	c-0.76,1.159-1.52,2.31-2.27,3.47c0.85-0.07,2.54-0.2,3.39-0.271c-0.09,0.641-0.28,1.93-0.37,2.58c-2.26-1.15-4.7-1.83-7.16-2.4
	C91.27,134.93,91.3,133.91,91.32,133.4z"/>
<path fill="#FFFFFF" d="M115.2,132.4c2.229,0.14,0.521,3.88-1.14,2.97C113.029,134.439,113.891,132.51,115.2,132.4z"/>
<path fill="#FFFFFF" d="M100.32,135.02C103.221,133.5,100.34,138.54,100.32,135.02z"/>
<path fill="#FFFFFF" d="M174.51,137.5c1.34-0.52,2.69-1.01,4.061-1.45c0.279,6.49,0.039,13-0.391,19.48
	c-1.34-1.07-3.039-1.89-3.84-3.48C174.17,147.2,174.68,142.35,174.51,137.5z"/>
<path fill="#FFFFFF" d="M87.88,138.35c7.33,1.851,14.399,5.37,22.13,5.15c7.75,0.52,15.11-2.38,22.15-5.23
	c-3.051,6.48-8.631,11.631-14.9,14.99c-6.43,3.09-14.46,1.67-19.65-3.189c-0.02-1.75-0.05-3.5-0.09-5.25
	C94.08,143.061,90.23,141.6,87.88,138.35z"/>
<path fill="#FFFFFF" d="M105.391,137.96c1.06-1.62,3.279,0.36,2.229,1.76C106.59,141.359,104.33,139.35,105.391,137.96z"/>
<path fill="#FFFFFF" d="M110.85,138.439c1.69-0.51,2.271,0.011,1.73,1.57C110.891,140.55,110.32,140.03,110.85,138.439z"/>
<path fill="#FFFFFF" d="M0,147.641c22.58-3.5,45.32-6.291,68.15-7.451c3.31-0.33,6.98-1.209,9.94,0.851
	c6.04,3.87,12.65,6.979,17.95,11.91c4.61,4.06,10.899,5.51,16.91,4.7c9.31-1.23,15.67-8.931,21.569-15.5
	c10.541,1.56,21.131,4.47,30.19,10.25c4.47,2.84,7.84,7.029,10.41,11.6H0V147.641z"/>
<path fill="#FFFFFF" d="M153.8,138.67c5.671-0.68,11.38-0.22,17.07-0.359c-0.08,3.409-0.08,6.819-0.24,10.229
	c-3.51-2.021-6.979-4.149-10.69-5.78C157.689,141.72,155.09,141,153.8,138.67z"/>
</svg>
