<?xml version="1.0" encoding="utf-8"?>
<!-- Generator: Adobe Illustrator 15.0.2, SVG Export Plug-In . SVG Version: 6.00 Build 0)  -->
<!DOCTYPE svg PUBLIC "-//W3C//DTD SVG 1.1//EN" "http://www.w3.org/Graphics/SVG/1.1/DTD/svg11.dtd">
<svg version="1.1" id="Layer_1" xmlns="http://www.w3.org/2000/svg" xmlns:xlink="http://www.w3.org/1999/xlink" x="0px" y="0px"
	 width="325px" height="279px" viewBox="0 0 325 279" enable-background="new 0 0 325 279" xml:space="preserve">
<path fill="#FFFFFF" d="M0,0h145.3c-17.42,0.9-34.7,6.89-48.41,17.8C80.02,30.72,68.47,50.4,65.47,71.45
	c-3.18,20.04,1.5,41.26,12.76,58.14c11.07,17.26,28.9,29.96,48.68,35.19c23.32,6.42,49.42,2.04,69.26-11.82
	c4.66,2.74,9.2,5.681,13.54,8.91c-3.21,1.45-6.5,3.08-10.14,2.79c-1.33,1.92-3.721,2.32-5.78,2.949
	c-28.55,7.75-58.74,6.58-87.69,1.891c-17.02-2.78-33.73-7.13-50.22-12.12c1.22-4.87,3.14-9.54,4.23-14.43
	c0.05-3.39-0.84-6.76-0.69-10.17c-10.57-3.42-21.25-6.49-31.82-9.9c-1.68,2.82-4.16,5.03-5.99,7.73c-1.12,3.03-1.92,6.17-2.84,9.27
	c-5.72-2.8-11.6-5.36-17.84-6.77c-0.01,0.76-0.05,2.28-0.06,3.05c5.71,2.11,11.64,3.78,16.91,6.939c-0.92,2.78-1.79,5.58-2.66,8.391
	c-2.08,0.369-4.68,0.38-5.88,2.47c-0.48,1.95,0.27,3.84,1.14,5.55c-1.54,0.68-3.28,1.141-4.45,2.43
	c-0.54,1.94,0.12,3.871,0.79,5.681c-0.89,0.7-2.49,1.12-2.44,2.51c-0.59,2.729,1.65,4.75,2.7,7.021
	c-0.17,2.359-1.17,4.569-1.79,6.84c12.92,4.07,25.96,7.779,38.82,12.029c2.09-6.699,4.03-13.449,6.14-20.149
	c0.9-3.08,4.19-4.38,6.2-6.64c32.57,9.77,66.49,16.119,100.6,15.1c14.2-0.7,28.44-2.45,42.079-6.6
	c-0.469,15.149-0.279,30.31-0.209,45.47c-7.65-0.13-15.271-0.58-22.891-1.13c-15.36,0.029-30.76-0.57-46.07,0.75
	c-8.62,0.119-17.27,0.07-25.84,1.1C69.19,226.141,34.55,230.6,0,235.5V0z"/>
<path d="M145.3,0h7.42c12.809,0.85,25.549,4.13,36.78,10.47c20.471,11.21,35.971,31.28,41.17,54.08c1.87,8.71,3,17.76,1.85,26.65
	c-1.52,20.66-11.539,40.41-26.81,54.33c5.399,3.37,10.58,7.09,15.49,11.149c18.96-4.08,38.25-7.75,57.739-6.939
	c12.881,0.83,26.82,3.51,36.311,13c6,5.6,8.97,13.699,9.75,21.729v6.271c-1.1,9.08-2.83,18.99-9.41,25.84
	c-4.22,4.4-9.79,7.04-15.21,9.63c-1.06,12.94-1.47,25.91-2.64,38.851c-0.93,4.84,1.6,9.279,2.439,13.939h-11.51
	c-2.939-13.67-14.38-23.359-26.41-29.24c-18.359-8.77-38.699-12.279-58.76-14.43c-24.09-2.061-48.32-1.82-72.46-1.189
	c-8.97,0.899-18.04,0.27-26.96,1.68c-23.72,1.24-47.25,4.58-70.88,6.83c-11.14,0.779-22.16,2.729-33.2,4.34V235.5
	c34.55-4.9,69.19-9.359,104.02-11.58c8.57-1.029,17.22-0.98,25.84-1.1c15.31-1.32,30.71-0.721,46.07-0.75
	c7.62,0.55,15.24,1,22.891,1.13c-0.07-15.16-0.26-30.32,0.209-45.47c-13.639,4.149-27.879,5.899-42.079,6.6
	c-34.11,1.02-68.03-5.33-100.6-15.1c-2.01,2.26-5.3,3.56-6.2,6.64c-2.11,6.7-4.05,13.45-6.14,20.149
	c-12.86-4.25-25.9-7.959-38.82-12.029c0.62-2.271,1.62-4.48,1.79-6.84c-1.05-2.271-3.29-4.291-2.7-7.021
	c-0.05-1.39,1.55-1.81,2.44-2.51c-0.67-1.81-1.33-3.74-0.79-5.681c1.17-1.289,2.91-1.75,4.45-2.43c-0.87-1.71-1.62-3.6-1.14-5.55
	c1.2-2.09,3.8-2.101,5.88-2.47c0.87-2.811,1.74-5.61,2.66-8.391c-5.27-3.16-11.2-4.83-16.91-6.939c0.01-0.77,0.05-2.29,0.06-3.05
	c6.24,1.41,12.12,3.97,17.84,6.77c0.92-3.1,1.72-6.24,2.84-9.27c1.83-2.7,4.31-4.91,5.99-7.73c10.57,3.41,21.25,6.48,31.82,9.9
	c-0.15,3.41,0.74,6.78,0.69,10.17c-1.09,4.89-3.01,9.56-4.23,14.43c16.49,4.99,33.2,9.34,50.22,12.12
	c28.95,4.689,59.14,5.859,87.69-1.891c2.06-0.629,4.45-1.029,5.78-2.949c3.64,0.29,6.93-1.34,10.14-2.79
	c-4.34-3.229-8.88-6.17-13.54-8.91c-19.84,13.86-45.94,18.24-69.26,11.82c-19.78-5.23-37.61-17.931-48.68-35.19
	c-11.26-16.88-15.94-38.1-12.76-58.14c3-21.05,14.55-40.73,31.42-53.65C110.6,6.89,127.88,0.9,145.3,0 M144.92,5.07
	c-22.87,1.06-45.23,12.58-58.74,31.17c-17.68,22.28-20.7,54.63-8.65,80.229c8.5,18.39,24.35,33.23,43.3,40.421
	c17.91,6.969,38.42,6.959,56.34,0.039c13.6-5.07,25.29-14.35,34.57-25.37c14.33-18.57,19.85-43.83,13.789-66.57
	c-4.76-19.91-17.809-37.6-35.26-48.25C176.8,8.36,160.74,4.36,144.92,5.07 M24.5,131.98c-2.08,5.88-3.71,11.911-5.58,17.86
	c12.79-2.16,25.61-4.24,38.34-6.75c-0.28-2.74-0.7-5.45-1.08-8.17c-9.06-2.73-18.09-5.56-27.13-8.35
	C27.6,128.42,25.89,130.07,24.5,131.98 M17.89,153.15c-0.74,2.539-1.6,5.05-2.3,7.6c1.82,0.96,3.63,2.23,5.8,2.03
	c-0.32-1.74-0.66-3.48-0.98-5.21c1.59-0.221,3.19-0.391,4.79-0.551c0.67,1.101,0.79,2.221,0.35,3.36c0.86,0.81,1.33,2.511,2.77,2.25
	c-2.01-4.68,6-6.39,5.62-1.239l-0.68-0.551c-0.31-0.48-0.95-1.46-1.27-1.939c-1.39-0.051-2.37,0.729-3.16,1.77
	c0.75,0.18,2.26,0.54,3.01,0.71c-0.72,0.15-2.16,0.44-2.89,0.58c0.47,0.57,1.42,1.72,1.89,2.29c1.24-0.32,2.49-0.641,3.73-0.95
	c-1.05,1.931-4.96,2.5-5.55-0.04c-2.08,1.25-3.8,3.26-6.41,3.29c-2.83-0.43-5.62-1.1-8.16-2.47c-0.47,1.84-0.99,3.66-1.54,5.49
	c3.16,1.289,6.62,2.729,10.08,1.77c8.96-1.79,17.9-3.75,26.89-5.35c2.21-6.43,3.87-13.04,6.15-19.44
	C43.33,148.79,30.63,151.15,17.89,153.15 M12.4,155.04c-0.47,1.649,0.08,2.2,1.64,1.63C14.53,155,13.98,154.46,12.4,155.04
	 M22.15,158.34c-1.21,1.32,0.96,3.96,2.22,2.15C25.94,159.03,23.54,157.189,22.15,158.34 M231.189,166.3
	c1.121,1.101,1.971,2.87,3.82,2.75c18.49,2.341,36.98,4.72,55.45,7.261c3.91,2.26,8.29,3.569,12.479,5.22
	c-0.279,10.649-0.619,21.34-2.029,31.909c4.32-2.22,8.649-5.47,10.01-10.369c2.42-7.33,4.41-15.42,1.85-22.99
	c-1.619-6.71-6.92-11.98-13.17-14.61c-12.459-5.59-26.47-4.689-39.77-4.069C250.23,162.67,240.52,163.641,231.189,166.3
	 M23.09,162.391c-0.52,1.129-0.25,2.06,0.81,2.789c1.33,0.23,2.58-1.699,1.52-2.689C24.84,162.46,23.67,162.41,23.09,162.391
	 M9.17,163.311c-0.3,1.369,0.79,2.51,1.28,3.709c0.35-1.359,0.68-2.72,1.01-4.09C10.89,163.03,9.74,163.21,9.17,163.311
	 M11.82,176.609c1.65,1.48,3.87,1.49,5.95,1.621c0.06,0.85,0.17,2.55,0.23,3.399c-2.89-0.069-5.76-0.56-8.28-2.06
	c-0.19,0.58-0.57,1.75-0.76,2.34c10.98,3.449,22.01,6.74,33,10.15c1.73-5.53,3.31-11.11,5.16-16.61
	c-2.95,0.909-6.05,0.92-9.11,0.899c0-0.8-0.01-2.399-0.01-3.199c3.86-0.25,9.38,0.449,11.27-3.84
	C36.74,171.49,24.35,174.46,11.82,176.609 M8.32,170.23c-1.35,0.18-1.2,2.41,0.03,2.649C9.72,172.8,9.73,170.24,8.32,170.23
	 M205.189,175.87c0.121,12.6-0.1,25.2,0.121,37.79c3.699,0.65,7.51-0.04,11.199,0.76c8.86,1.76,17.79,3.34,26.801,4.02
	c-1.73-16.549-9.031-32.43-20.521-44.47c-2.03-1.13-4.61-0.85-6.87-1.17C212.05,172.24,208.73,174.75,205.189,175.87 M238.98,175.92
	c6.449,9.18,11.27,19.55,13.729,30.52c1.24,4.32,1.2,8.86,2.19,13.24c9.09,0.23,18.22,0.4,27.27-0.77
	c0.91-12.41,1.66-24.82,2.48-37.221C269.4,179.97,254.24,177.57,238.98,175.92 M290.811,183.67c-0.471,11.37-1.82,22.67-2.08,34.05
	c2.02-0.61,4.06-1.17,6.1-1.729c0.859-9.93,0.76-19.93,2.1-29.82C294.971,185.15,292.9,184.359,290.811,183.67 M287.74,229.4
	c-0.58,7.74-0.57,15.51-1.551,23.209c2.061,2.11,3.961,4.36,5.82,6.65c0.33-10.47,1.61-20.88,1.891-31.34
	C291.859,228.47,289.8,228.95,287.74,229.4 M255.04,230.98c-0.05,0.709-0.14,2.109-0.19,2.81c9.211,2.99,17.771,7.66,25.58,13.351
	c0.36-5.681,0.37-11.381,1.051-17.031C272.77,231.73,263.85,231.12,255.04,230.98z"/>
<path fill="#FFFFFF" d="M152.72,0H325v184.47c-0.78-8.03-3.75-16.13-9.75-21.729c-9.49-9.49-23.43-12.17-36.311-13
	c-19.489-0.811-38.779,2.859-57.739,6.939c-4.91-4.06-10.091-7.779-15.49-11.149c15.271-13.92,25.29-33.67,26.81-54.33
	c1.15-8.89,0.021-17.94-1.85-26.65c-5.199-22.8-20.699-42.87-41.17-54.08C178.27,4.13,165.529,0.85,152.72,0z"/>
<path fill="#FFFFFF" d="M144.92,5.07c15.82-0.71,31.88,3.29,45.35,11.67c17.451,10.65,30.5,28.34,35.26,48.25
	c6.061,22.74,0.541,48-13.789,66.57c-9.28,11.02-20.971,20.299-34.57,25.37c-17.92,6.92-38.43,6.93-56.34-0.039
	c-18.95-7.19-34.8-22.031-43.3-40.421c-12.05-25.6-9.03-57.95,8.65-80.229C99.69,17.65,122.05,6.13,144.92,5.07 M81.49,46.4
	c-0.5,0.47-1.48,1.42-1.97,1.89c0.22,1.33-0.4,3.23,0.99,4.07c1.47,0.19,2.95,0.25,4.44,0.2c-3.15,2.66-5.96,6.19-6.05,10.5
	c-0.64,5.16,2.19,9.98,6.34,12.85c-1.47,0.05-2.94,0.14-4.41,0.29c-1.03,1.45,0.61,3.04,2.1,2.79c8.69,0.04,17.39-0.01,26.08,0.02
	c1.58,0.22,2.93-0.54,4.18-1.39c-0.85-0.82-1.67-2.19-3.12-1.7c-3.64-0.03-7.27-0.02-10.9,0.16c2.92-2.33,5.62-5.29,6.27-9.1
	c1.43-5.47-1.55-10.91-5.63-14.39c4.35-0.27,8.79,0.37,13.09-0.3c3.32-1.41,1.55-6.55-1.81-6.16
	C101.22,46.25,91.33,45.79,81.49,46.4 M136.93,46.97c-0.72,0.96-1.57,1.86-2.02,2.99c0.35,1.16,1.18,2.08,1.84,3.07
	c2.95-0.04,5.9-0.021,8.85-0.05c-3.68,2.82-6.38,7.26-5.83,12.04c-0.23,4.85,3.17,8.89,6.95,11.5c-1.72,0.22-6.99-0.77-4.72,2.35
	c7.01,0.32,14.04,0.04,21.05,0.13c3.62-0.09,7.32,0.39,10.86-0.59c-0.42-0.47-1.27-1.4-1.689-1.86
	c-4.15,0.08-8.311,0.08-12.461-0.01c3.37-2.66,6.44-6.14,6.82-10.61c0.82-5.01-1.801-9.9-5.68-12.93c5.36-0.09,10.741,0.16,16.1-0.1
	c3.2-0.52,2.471-6.25-0.88-5.88C163.061,46.94,149.99,47.06,136.93,46.97 M131.81,93.8c-8.8,5.7-17.12,12.32-24.05,20.2
	c0.09,0.75,0.27,2.25,0.37,3c3.62-0.3,7.15-1.61,10.84-1.05c5.33,0.18,9.52,3.77,14,6.12c14.2,2.17,28.68,3.25,43.04,1.97
	c4.77-0.79,9.721-1.53,13.881-4.15c2.819-1.63,4.979-4.63,5.27-7.9c-2.93-12.81-13.28-23.92-26.061-27.28
	C155.99,81.87,142.78,86.86,131.81,93.8z"/>
<path d="M81.49,46.4c9.84-0.61,19.73-0.15,29.6-0.27c3.36-0.39,5.13,4.75,1.81,6.16c-4.3,0.67-8.74,0.03-13.09,0.3
	c4.08,3.48,7.06,8.92,5.63,14.39c-0.65,3.81-3.35,6.77-6.27,9.1c3.63-0.18,7.26-0.19,10.9-0.16c1.45-0.49,2.27,0.88,3.12,1.7
	c-1.25,0.85-2.6,1.61-4.18,1.39c-8.69-0.03-17.39,0.021-26.08-0.02c-1.49,0.25-3.13-1.34-2.1-2.79c1.47-0.15,2.94-0.24,4.41-0.29
	c-4.15-2.87-6.98-7.69-6.34-12.85c0.09-4.31,2.9-7.84,6.05-10.5c-1.49,0.05-2.97-0.01-4.44-0.2c-1.39-0.84-0.77-2.74-0.99-4.07
	C80.01,47.82,80.99,46.87,81.49,46.4z"/>
<path d="M136.93,46.97c13.06,0.09,26.13-0.03,39.19,0.05c3.351-0.37,4.08,5.36,0.88,5.88c-5.359,0.26-10.74,0.01-16.1,0.1
	c3.879,3.03,6.5,7.92,5.68,12.93c-0.38,4.47-3.45,7.95-6.82,10.61c4.15,0.09,8.311,0.09,12.461,0.01c0.42,0.46,1.27,1.39,1.689,1.86
	c-3.54,0.98-7.24,0.5-10.86,0.59c-7.01-0.09-14.04,0.19-21.05-0.13c-2.27-3.12,3-2.13,4.72-2.35c-3.78-2.61-7.18-6.65-6.95-11.5
	c-0.55-4.78,2.15-9.22,5.83-12.04c-2.95,0.03-5.9,0.01-8.85,0.05c-0.66-0.99-1.49-1.91-1.84-3.07
	C135.36,48.83,136.21,47.93,136.93,46.97z"/>
<path d="M131.81,93.8c10.97-6.94,24.18-11.93,37.29-9.09c12.78,3.36,23.131,14.47,26.061,27.28c-0.29,3.27-2.45,6.27-5.27,7.9
	c-4.16,2.62-9.111,3.36-13.881,4.15c-14.36,1.28-28.84,0.2-43.04-1.97c-4.48-2.35-8.67-5.94-14-6.12
	c-3.69-0.56-7.22,0.75-10.84,1.05c-0.1-0.75-0.28-2.25-0.37-3C114.69,106.12,123.01,99.5,131.81,93.8 M171.57,120
	c6.729-0.75,15.06-1.06,19.26-7.26c-1.92-1.6-4.359-2.5-6.85-2.59C178.33,110.8,174.43,115.5,171.57,120z"/>
<path fill="#FFFFFF" d="M171.57,120c2.859-4.5,6.76-9.2,12.41-9.85c2.49,0.09,4.93,0.99,6.85,2.59
	C186.63,118.94,178.3,119.25,171.57,120z"/>
<path fill="#FFFFFF" d="M24.5,131.98c1.39-1.91,3.1-3.56,4.55-5.41c9.04,2.79,18.07,5.62,27.13,8.35c0.38,2.72,0.8,5.43,1.08,8.17
	c-12.73,2.51-25.55,4.59-38.34,6.75C20.79,143.891,22.42,137.86,24.5,131.98z"/>
<path fill="#FFFFFF" d="M17.89,153.15c12.74-2,25.44-4.36,38.14-6.601c-2.28,6.4-3.94,13.011-6.15,19.44
	c-8.99,1.6-17.93,3.56-26.89,5.35c-3.46,0.96-6.92-0.48-10.08-1.77c0.55-1.83,1.07-3.65,1.54-5.49c2.54,1.37,5.33,2.04,8.16,2.47
	c2.61-0.03,4.33-2.04,6.41-3.29c0.59,2.54,4.5,1.971,5.55,0.04c-1.24,0.31-2.49,0.63-3.73,0.95c-0.47-0.57-1.42-1.72-1.89-2.29
	c0.73-0.14,2.17-0.43,2.89-0.58c-0.75-0.17-2.26-0.53-3.01-0.71c0.79-1.04,1.77-1.82,3.16-1.77c0.32,0.479,0.96,1.459,1.27,1.939
	l0.68,0.551c0.38-5.15-7.63-3.44-5.62,1.239c-1.44,0.261-1.91-1.44-2.77-2.25c0.44-1.14,0.32-2.26-0.35-3.36
	c-1.6,0.16-3.2,0.33-4.79,0.551c0.32,1.729,0.66,3.47,0.98,5.21c-2.17,0.2-3.98-1.07-5.8-2.03
	C16.29,158.2,17.15,155.689,17.89,153.15 M41.79,156.65c0.64,2.229,0.48,4.85,2.09,6.689c-0.14-2.76-1.15-5.699,1.27-7.79
	C44.03,155.93,42.91,156.29,41.79,156.65 M36.35,157.311c-2.22,1.64-1.51,5.479,1.11,6.26c1.45,0.63,2.83-0.57,3.97-1.29
	c-2.01,0.409-4.26,1.14-5.7-1.03l3-0.25c-1.07-0.65-2.16-1.27-3.23-1.9c1.13-0.97,2.47-1.34,4-1.109
	c-0.24,0.689-0.72,2.05-0.95,2.74c4.32,0.069,1.75-2.11,1.23-3.59C38.63,157.16,37.49,157.21,36.35,157.311z"/>
<path fill="#FFFFFF" d="M12.4,155.04c1.58-0.58,2.13-0.04,1.64,1.63C12.48,157.24,11.93,156.689,12.4,155.04z"/>
<path d="M41.79,156.65c1.12-0.36,2.24-0.721,3.36-1.101c-2.42,2.091-1.41,5.03-1.27,7.79C42.27,161.5,42.43,158.88,41.79,156.65z"/>
<path d="M36.35,157.311c1.14-0.101,2.28-0.15,3.43-0.17c0.52,1.479,3.09,3.659-1.23,3.59c0.23-0.69,0.71-2.051,0.95-2.74
	c-1.53-0.23-2.87,0.14-4,1.109c1.07,0.631,2.16,1.25,3.23,1.9l-3,0.25c1.44,2.17,3.69,1.439,5.7,1.03
	c-1.14,0.72-2.52,1.92-3.97,1.29C34.84,162.79,34.13,158.95,36.35,157.311z"/>
<path fill="#FFFFFF" d="M22.15,158.34c1.39-1.15,3.79,0.69,2.22,2.15C23.11,162.3,20.94,159.66,22.15,158.34z"/>
<path fill="#FFFFFF" d="M231.189,166.3c9.33-2.659,19.041-3.63,28.641-4.899c13.3-0.62,27.311-1.521,39.77,4.069
	c6.25,2.63,11.551,7.9,13.17,14.61c2.561,7.57,0.57,15.66-1.85,22.99c-1.36,4.899-5.689,8.149-10.01,10.369
	c1.41-10.569,1.75-21.26,2.029-31.909c-4.189-1.65-8.569-2.96-12.479-5.22c-18.47-2.541-36.96-4.92-55.45-7.261
	C233.16,169.17,232.311,167.4,231.189,166.3z"/>
<path fill="#FFFFFF" d="M23.09,162.391c0.58,0.02,1.75,0.069,2.33,0.1c1.06,0.99-0.19,2.92-1.52,2.689
	C22.84,164.45,22.57,163.52,23.09,162.391z"/>
<path fill="#FFFFFF" d="M9.17,163.311c0.57-0.101,1.72-0.28,2.29-0.381c-0.33,1.37-0.66,2.73-1.01,4.09
	C9.96,165.82,8.87,164.68,9.17,163.311z"/>
<path fill="#FFFFFF" d="M11.82,176.609c12.53-2.149,24.92-5.119,37.45-7.299c-1.89,4.289-7.41,3.59-11.27,3.84
	c0,0.8,0.01,2.399,0.01,3.199c3.06,0.021,6.16,0.01,9.11-0.899c-1.85,5.5-3.43,11.08-5.16,16.61c-10.99-3.41-22.02-6.701-33-10.15
	c0.19-0.59,0.57-1.76,0.76-2.34c2.52,1.5,5.39,1.99,8.28,2.06c-0.06-0.85-0.17-2.55-0.23-3.399
	C15.69,178.1,13.47,178.09,11.82,176.609z"/>
<path fill="#FFFFFF" d="M8.32,170.23c1.41,0.01,1.4,2.569,0.03,2.649C7.12,172.641,6.97,170.41,8.32,170.23z"/>
<path fill="#FFFFFF" d="M205.189,175.87c3.541-1.12,6.86-3.63,10.73-3.07c2.26,0.32,4.84,0.04,6.87,1.17
	c11.489,12.04,18.79,27.921,20.521,44.47c-9.011-0.68-17.94-2.26-26.801-4.02c-3.689-0.8-7.5-0.109-11.199-0.76
	C205.09,201.07,205.311,188.47,205.189,175.87z"/>
<path fill="#FFFFFF" d="M238.98,175.92c15.26,1.65,30.42,4.05,45.67,5.77c-0.82,12.4-1.57,24.811-2.48,37.221
	c-9.05,1.17-18.18,1-27.27,0.77c-0.99-4.38-0.95-8.92-2.19-13.24C250.25,195.47,245.43,185.1,238.98,175.92z"/>
<path fill="#FFFFFF" d="M290.811,183.67c2.09,0.689,4.16,1.48,6.119,2.5c-1.34,9.891-1.24,19.891-2.1,29.82
	c-2.04,0.56-4.08,1.119-6.1,1.729C288.99,206.34,290.34,195.04,290.811,183.67z"/>
<path fill="#FFFFFF" d="M315.59,216.58c6.58-6.85,8.311-16.76,9.41-25.84V279h-24.82c-0.84-4.66-3.369-9.1-2.439-13.939
	c1.17-12.94,1.58-25.91,2.64-38.851C305.8,223.62,311.37,220.98,315.59,216.58z"/>
<path fill="#FFFFFF" d="M287.74,229.4c2.06-0.45,4.119-0.931,6.16-1.48c-0.28,10.46-1.561,20.87-1.891,31.34
	c-1.859-2.29-3.76-4.54-5.82-6.65C287.17,244.91,287.16,237.141,287.74,229.4z"/>
<path fill="#FFFFFF" d="M255.04,230.98c8.81,0.14,17.729,0.75,26.44-0.871c-0.681,5.65-0.69,11.351-1.051,17.031
	c-7.81-5.69-16.369-10.36-25.58-13.351C254.9,233.09,254.99,231.689,255.04,230.98z"/>
<path fill="#FFFFFF" d="M131.04,234.141c24.14-0.631,48.37-0.871,72.46,1.189c20.061,2.15,40.4,5.66,58.76,14.43
	c12.03,5.881,23.471,15.57,26.41,29.24H0v-32.01c11.04-1.61,22.06-3.561,33.2-4.34c23.63-2.25,47.16-5.59,70.88-6.83
	C113,234.41,122.07,235.04,131.04,234.141z"/>
</svg>
