<?xml version="1.0" encoding="utf-8"?>
<!-- Generator: Adobe Illustrator 15.0.2, SVG Export Plug-In . SVG Version: 6.00 Build 0)  -->
<!DOCTYPE svg PUBLIC "-//W3C//DTD SVG 1.1//EN" "http://www.w3.org/Graphics/SVG/1.1/DTD/svg11.dtd">
<svg version="1.1" id="Layer_1" xmlns="http://www.w3.org/2000/svg" xmlns:xlink="http://www.w3.org/1999/xlink" x="0px" y="0px"
	 width="210px" height="174px" viewBox="0 0 210 174" enable-background="new 0 0 210 174" xml:space="preserve">
<path fill="#FFFFFF" d="M0,0h91.62c-6.05,2.4-12.5,4.03-17.97,7.7C59.7,15.84,50.63,31.11,48.53,46.95
	c-0.01,6.44-0.72,13.05,1.1,19.33c3.8,17.08,16.71,31.77,33.07,37.909c15.12,6.121,32.819,4.33,46.76-3.97
	c1.64-1.26,3.681-0.63,5.511-0.28c-0.121,1.131-0.41,2.19-0.871,3.211c-6.92,2.17-13.77,4.83-21.07,5.5
	c-7.559,1.76-15.479-0.25-22.939,2.16c-8.62,1.97-18.67,4.56-23.29,12.879c-1.06,4.021-1.16,8.791,1.2,12.4
	c1.35,2.32,3.11,4.35,4.79,6.43c-6.24,1.141-12.65,0.42-18.87,1.67c-9.28,0.461-18.46,1.881-27.69,2.931
	c-8.81,0.66-17.5,2.28-26.23,3.58V0z"/>
<path fill="#040404" d="M91.62,0h20.319c5.24,2.13,10.871,3.34,15.781,6.22c16.479,8.97,27.59,27.021,28,45.8
	c-0.16,4.56,3.59,8.23,3.02,12.84c-0.131,6.83-5.98,11.16-10.04,15.86c-3.15,4.86-6.511,9.591-10.8,13.521
	c1.25,1.689,2.64,3.41,4.629,4.25c3.011,0.51,5.91-0.78,8.851-1.23c5.601-1.02,11.25-1.83,16.88-2.68
	c7.59-0.03,15.35-0.84,22.721,1.41c9.199,1.699,17.66,8.82,19.02,18.38v10.21c-1.07,5.24-2.98,10.66-7.311,14.109
	c-2.479,2.621-6.33,3.341-8.76,5.951c-0.56,6.31,0.131,12.719-1.02,18.989c-0.66,3.41-0.48,6.91-0.5,10.37H186
	c-2.311-3.891-5.02-7.63-8.721-10.32c-9.229-6.779-20.539-9.76-31.569-12.13c-2.67-1.02-4.14,1.88-5.739,3.431
	c-4.061,4.729-8.681,9.229-14.58,11.569c-5.051,2.341-11.041,2.73-16.181,0.431c-5.6-1.95-9.42-6.761-14.58-9.471
	c-4.51-2.4-8.71-5.33-13.16-7.84c-2.58-1.79-5.64-0.46-8.47-0.34c-12.7,0.45-25.37,1.71-37.99,3.14
	c-11.7,1.171-23.29,3.36-35.01,4.311v-6.08c8.73-1.3,17.42-2.92,26.23-3.58c9.23-1.05,18.41-2.47,27.69-2.931
	c6.22-1.25,12.63-0.529,18.87-1.67c-1.68-2.08-3.44-4.109-4.79-6.43c-2.36-3.609-2.26-8.38-1.2-12.4
	c4.62-8.319,14.67-10.909,23.29-12.879c7.46-2.41,15.38-0.4,22.939-2.16c7.301-0.67,14.15-3.33,21.07-5.5
	c0.461-1.021,0.75-2.08,0.871-3.211c-1.83-0.35-3.871-0.979-5.511,0.28c-13.94,8.3-31.64,10.091-46.76,3.97
	C66.34,98.05,53.43,83.36,49.63,66.28c-1.82-6.28-1.11-12.89-1.1-19.33C50.63,31.11,59.7,15.84,73.65,7.7
	C79.12,4.03,85.57,2.4,91.62,0 M68.89,13.82c-5.11,4.66-10.68,9.64-12.61,16.52c8.71,0.06,17.43-0.25,26.13,0.16
	c0.04,0.66,0.13,1.96,0.17,2.62c-3.69,0.68-7.46,0.26-11.18,0.52c2.17,3.39,4.58,7.71,2.06,11.6c-3.06,6.37-13.72,5.45-15.33-1.51
	c-1.6-3.68,1.02-7.08,2.74-10.14c-2.23-0.11-4.47-0.19-6.71-0.26c-8.15,19.27-3.59,43.34,11.79,57.72
	c9.48,9.28,22.69,15,36.04,14.54c16.1,0.51,31.74-7.939,41.38-20.63c-0.74-0.98-1.49-1.94-2.229-2.92
	c6.34-4.03,14.83-8.52,15.219-17c0.841-8.53-6.619-14.26-12.219-19.39c0.699-0.12,2.1-0.37,2.81-0.49c2.05,1.92,4.09,3.88,6.43,5.46
	c-0.159-17.11-10.94-33.07-25.34-41.81C109.95-2.38,84.82-0.27,68.89,13.82 M150.029,104.25c-0.27,0.63-0.51,1.26-0.719,1.91
	c6.369,2.05,13.16,1.85,19.68,3.109c4.41,0.131,8.67,1.431,13.08,1.53c4.76,0.41,9.17,2.3,13.479,4.22
	c0.479,6.961-0.989,13.91-0.149,20.871c2.729-1.24,5.27-3.23,6.289-6.15c2.531-5.08,1.74-10.891,1.601-16.36
	c-2.3-7.7-10.69-11.7-18.22-12.1C173.35,101.01,161.34,100.68,150.029,104.25 M132.471,111.38c-0.24,8.2-0.141,16.42-0.041,24.62
	c3.68,0.23,5.53-3.311,8-5.41c0.541,0.061,1.62,0.16,2.16,0.221c-0.8,2.109-2.79,3.939-2.18,6.359c5.699,0.62,11.32,1.8,17.04,2.311
	c-0.03-11.17-5.64-21.73-13.04-29.83C140.59,109.3,135.279,108.04,132.471,111.38 M108.99,115.59c-10,0.27-20.2,1.53-29.3,5.94
	c-3.17,1.72-7.45,4.149-6.35,8.479c1.5,5.01,6,8.521,10.1,11.48c3.29,0.449,7.02,0.76,9.81-1.391c10.7-6.149,23.37-6.649,35.35-5.35
	c0.93-3.52,0.601-7.17,0.631-10.76c-0.07-3.93,0.319-7.92-0.601-11.78C122,112.8,115.67,115.4,108.99,115.59 M154.73,111.28
	c5.149,8.7,9.209,18.25,9.83,28.45c6.219,1.189,12.75,1.039,18.879-0.58c-0.279-8.19,1.511-16.26,1.031-24.45
	c-2.521-0.4-5.011-1.04-7.57-1.2C169.49,112.93,162.2,111,154.73,111.28 M188.71,116.13c-1.91,4.7-0.89,9.82-1.521,14.72
	c-0.399,2.58-0.609,5.181-0.609,7.801c1.779,0.039,3.54-0.33,4.99-1.42c-0.18-6.541,1.199-12.98,0.93-19.53
	C191.24,117.17,189.971,116.641,188.71,116.13 M111.721,137.72c0.289,0.431,0.859,1.3,1.139,1.74c3.361,0.3,6.761-0.08,10.131,0.25
	c2.1,0.67,4.109,1.63,6.27,2.13c0.15-0.699,0.44-2.09,0.59-2.79C123.939,137.391,117.811,137.18,111.721,137.72 M96.92,142.05
	c-0.15,0.4-0.45,1.2-0.6,1.601c2.84,1.069,5.76,1.93,8.54,3.17c-0.04-0.631-0.12-1.881-0.16-2.5c-0.62-0.23-1.84-0.68-2.45-0.91
	c0.57-1.12,1.12-2.26,1.64-3.42C101.49,140.41,99.21,141.26,96.92,142.05 M111.221,140.32c-0.361,0.229-1.08,0.68-1.431,0.91
	C109.141,144.77,114.93,140.96,111.221,140.32 M122.16,141.311c-1.27,0.359-1.381,2.51-0.15,3
	C123.99,144.68,124.45,140.641,122.16,141.311 M130.71,144.72c-0.11,0.57-0.319,1.73-0.431,2.3c2.671-0.97,5.351-2.01,7.75-3.56
	C135.48,143.01,133.02,143.66,130.71,144.72 M116.23,146.189C116.85,146.811,116.85,146.811,116.23,146.189 M186.62,145.48
	c-1.64,4.67-0.78,9.729-1.19,14.58c-0.359,1.85,1.12,3.109,2.051,4.489c0.529,0.091,1.58,0.261,2.109,0.351
	c1.18-6.42,0.801-12.971,0.971-19.461C189.58,145.45,187.609,145.47,186.62,145.48 M112.38,147.04c-1.08,1.37,1.21,3.399,2.22,1.729
	C115.74,147.35,113.45,145.47,112.38,147.04 M118.13,147.47c-0.45,1.58,0.16,2.07,1.841,1.49
	C120.471,147.41,119.85,146.91,118.13,147.47 M164.25,147.4c0.17,0.85,0.34,1.709,0.51,2.58c6.051,1.66,11.41,5.02,16.76,8.189
	c0.66-3.47,0.771-7,1.01-10.52c-1.399-0.7-2.939-1.03-4.5-0.76C173.45,147.43,168.84,147,164.25,147.4 M95.94,148.109
	c1.16,3.49,5.47,4.201,8.34,5.891c0.12,2.05,0.16,4.1,0.17,6.16c3.39,3.14,7.87,5.109,12.56,4.6c7.11,0.58,13.02-4.3,17.61-9.15
	c2.05-2.359,4.78-4.359,5.58-7.529c-1.95,0.1-3.79,0.66-5.53,1.51c-5.88,2.551-12.34,3.38-18.71,2.99
	C108.99,152.84,102.53,149.88,95.94,148.109z"/>
<path fill="#FFFFFF" d="M111.939,0H210v114.37c-1.359-9.56-9.82-16.681-19.02-18.38c-7.371-2.25-15.131-1.44-22.721-1.41
	c-5.63,0.85-11.279,1.66-16.88,2.68c-2.94,0.45-5.84,1.74-8.851,1.23c-1.989-0.84-3.379-2.561-4.629-4.25
	c4.289-3.93,7.649-8.66,10.8-13.521c4.06-4.7,9.909-9.03,10.04-15.86c0.57-4.61-3.18-8.28-3.02-12.84
	c-0.41-18.78-11.521-36.83-28-45.8C122.811,3.34,117.18,2.13,111.939,0z"/>
<path fill="#FFFFFF" d="M68.89,13.82c15.93-14.09,41.06-16.2,59.15-5.01c14.399,8.74,25.181,24.7,25.34,41.81
	c-2.34-1.58-4.38-3.54-6.43-5.46c-0.71,0.12-2.11,0.37-2.81,0.49c5.6,5.13,13.06,10.86,12.219,19.39
	c-0.389,8.48-8.879,12.97-15.219,17c0.739,0.98,1.489,1.94,2.229,2.92c-9.64,12.69-25.28,21.14-41.38,20.63
	c-13.35,0.46-26.56-5.26-36.04-14.54C50.57,76.67,46.01,52.6,54.16,33.33c2.24,0.07,4.48,0.15,6.71,0.26
	c-1.72,3.06-4.34,6.46-2.74,10.14c1.61,6.96,12.27,7.88,15.33,1.51c2.52-3.89,0.11-8.21-2.06-11.6c3.72-0.26,7.49,0.16,11.18-0.52
	c-0.04-0.66-0.13-1.96-0.17-2.62c-8.7-0.41-17.42-0.1-26.13-0.16C58.21,23.46,63.78,18.48,68.89,13.82 M93.15,32.03
	c1.61,2.07,4.33,1.36,6.6,1.689c-3.49,3.44-5.04,9.87-1.03,13.49c3.77,4.07,11.36,2.75,13.49-2.38c1.66-3.89-0.069-7.89-2.13-11.23
	c3.41-0.12,6.811-0.14,10.22-0.02c0.2-0.75,0.61-2.23,0.82-2.98c-7.681-0.65-15.39-0.09-23.08-0.3
	C96.43,30.56,93.33,29.55,93.15,32.03 M85.91,70.22c4.9,0.39,9.81,0.16,14.72,0.15l0.02-1.88c-3.55-0.08-7.11-0.09-10.66-0.08
	C88.58,68.61,85.66,67.76,85.91,70.22z"/>
<path fill="#040404" d="M93.15,32.03c0.18-2.48,3.28-1.47,4.89-1.73c7.69,0.21,15.399-0.35,23.08,0.3
	c-0.21,0.75-0.62,2.23-0.82,2.98c-3.409-0.12-6.81-0.1-10.22,0.02c2.061,3.34,3.79,7.34,2.13,11.23c-2.13,5.13-9.72,6.45-13.49,2.38
	c-4.01-3.62-2.46-10.05,1.03-13.49C97.48,33.39,94.76,34.1,93.15,32.03z"/>
<path fill="#040404" d="M85.91,70.22c-0.25-2.46,2.67-1.61,4.08-1.81c3.55-0.01,7.11,0,10.66,0.08l-0.02,1.88
	C95.72,70.38,90.81,70.61,85.91,70.22z"/>
<path fill="#FFFFFF" d="M150.029,104.25c11.311-3.57,23.32-3.24,35.041-2.97c7.529,0.399,15.92,4.399,18.22,12.1
	c0.14,5.47,0.931,11.28-1.601,16.36c-1.02,2.92-3.56,4.91-6.289,6.15c-0.84-6.961,0.629-13.91,0.149-20.871
	c-4.31-1.92-8.72-3.81-13.479-4.22c-4.41-0.1-8.67-1.399-13.08-1.53c-6.52-1.26-13.311-1.06-19.68-3.109
	C149.52,105.51,149.76,104.88,150.029,104.25z"/>
<path fill="#FFFFFF" d="M132.471,111.38c2.809-3.34,8.119-2.08,11.939-1.729c7.4,8.1,13.01,18.66,13.04,29.83
	c-5.72-0.511-11.341-1.69-17.04-2.311c-0.61-2.42,1.38-4.25,2.18-6.359c-0.54-0.061-1.619-0.16-2.16-0.221
	c-2.47,2.1-4.32,5.641-8,5.41C132.33,127.8,132.23,119.58,132.471,111.38z"/>
<path fill="#FFFFFF" d="M108.99,115.59c6.68-0.189,13.01-2.79,19.64-3.38c0.92,3.86,0.53,7.851,0.601,11.78
	c-0.03,3.59,0.299,7.24-0.631,10.76c-11.979-1.3-24.649-0.8-35.35,5.35c-2.79,2.15-6.52,1.84-9.81,1.391
	c-4.1-2.96-8.6-6.471-10.1-11.48c-1.1-4.33,3.18-6.76,6.35-8.479C88.79,117.12,98.99,115.859,108.99,115.59z"/>
<path fill="#FFFFFF" d="M154.73,111.28c7.47-0.28,14.76,1.649,22.17,2.22c2.56,0.16,5.05,0.8,7.57,1.2
	c0.479,8.19-1.311,16.26-1.031,24.45c-6.129,1.619-12.66,1.77-18.879,0.58C163.939,129.53,159.88,119.98,154.73,111.28z"/>
<path fill="#FFFFFF" d="M188.71,116.13c1.261,0.511,2.53,1.04,3.79,1.57c0.27,6.55-1.109,12.989-0.93,19.53
	c-1.45,1.09-3.211,1.459-4.99,1.42c0-2.62,0.21-5.221,0.609-7.801C187.82,125.95,186.8,120.83,188.71,116.13z"/>
<path fill="#FFFFFF" d="M202.689,138.689c4.33-3.449,6.24-8.869,7.311-14.109V174h-17.59c0.02-3.46-0.16-6.96,0.5-10.37
	c1.15-6.271,0.46-12.68,1.02-18.989C196.359,142.03,200.21,141.311,202.689,138.689z"/>
<path fill="#FFFFFF" d="M111.721,137.72c6.09-0.54,12.219-0.329,18.129,1.33c-0.149,0.7-0.439,2.091-0.59,2.79
	c-2.16-0.5-4.17-1.46-6.27-2.13c-3.37-0.33-6.77,0.05-10.131-0.25C112.58,139.02,112.01,138.15,111.721,137.72z"/>
<path fill="#FFFFFF" d="M96.92,142.05c2.29-0.79,4.57-1.64,6.97-2.06c-0.52,1.16-1.07,2.3-1.64,3.42c0.61,0.23,1.83,0.68,2.45,0.91
	c0.04,0.619,0.12,1.869,0.16,2.5c-2.78-1.24-5.7-2.101-8.54-3.17C96.47,143.25,96.77,142.45,96.92,142.05z"/>
<path fill="#FFFFFF" d="M111.221,140.32c3.709,0.64-2.08,4.449-1.431,0.91C110.141,141,110.859,140.55,111.221,140.32z"/>
<path fill="#FFFFFF" d="M122.16,141.311c2.29-0.67,1.83,3.369-0.15,3C120.779,143.82,120.891,141.67,122.16,141.311z"/>
<path fill="#FFFFFF" d="M130.71,144.72c2.31-1.06,4.771-1.71,7.319-1.26c-2.399,1.55-5.079,2.59-7.75,3.56
	C130.391,146.45,130.6,145.29,130.71,144.72z"/>
<path fill="#FFFFFF" d="M116.23,146.189C116.85,146.811,116.85,146.811,116.23,146.189z"/>
<path fill="#FFFFFF" d="M186.62,145.48c0.989-0.011,2.96-0.03,3.94-0.041c-0.17,6.49,0.209,13.041-0.971,19.461
	c-0.529-0.09-1.58-0.26-2.109-0.351c-0.931-1.38-2.41-2.64-2.051-4.489C185.84,155.21,184.98,150.15,186.62,145.48z"/>
<path fill="#FFFFFF" d="M112.38,147.04c1.07-1.57,3.36,0.31,2.22,1.729C113.59,150.439,111.3,148.41,112.38,147.04z"/>
<path fill="#FFFFFF" d="M118.13,147.47c1.72-0.56,2.341-0.06,1.841,1.49C118.29,149.54,117.68,149.05,118.13,147.47z"/>
<path fill="#FFFFFF" d="M164.25,147.4c4.59-0.4,9.2,0.029,13.779-0.51c1.561-0.271,3.101,0.06,4.5,0.76
	c-0.239,3.52-0.35,7.05-1.01,10.52c-5.35-3.17-10.709-6.529-16.76-8.189C164.59,149.109,164.42,148.25,164.25,147.4z"/>
<path fill="#FFFFFF" d="M35.01,152.47c12.62-1.43,25.29-2.689,37.99-3.14c2.83-0.12,5.89-1.45,8.47,0.34
	c4.45,2.51,8.65,5.439,13.16,7.84c5.16,2.71,8.98,7.521,14.58,9.471c5.14,2.3,11.13,1.91,16.181-0.431
	c5.899-2.34,10.52-6.84,14.58-11.569c1.6-1.551,3.069-4.45,5.739-3.431c11.03,2.37,22.34,5.351,31.569,12.13
	c3.701,2.69,6.41,6.43,8.721,10.32H0v-17.22C11.72,155.83,23.31,153.641,35.01,152.47z"/>
<path fill="#FFFFFF" d="M95.94,148.109c6.59,1.771,13.05,4.73,20.02,4.471c6.37,0.39,12.83-0.439,18.71-2.99
	c1.74-0.85,3.58-1.41,5.53-1.51c-0.8,3.17-3.53,5.17-5.58,7.529c-4.591,4.851-10.5,9.73-17.61,9.15c-4.689,0.51-9.17-1.46-12.56-4.6
	c-0.01-2.061-0.05-4.11-0.17-6.16C101.41,152.311,97.1,151.6,95.94,148.109z"/>
</svg>
