<?xml version="1.0" encoding="utf-8"?>
<!-- Generator: Adobe Illustrator 15.0.2, SVG Export Plug-In . SVG Version: 6.00 Build 0)  -->
<!DOCTYPE svg PUBLIC "-//W3C//DTD SVG 1.1//EN" "http://www.w3.org/Graphics/SVG/1.1/DTD/svg11.dtd">
<svg version="1.1" id="Layer_1" xmlns="http://www.w3.org/2000/svg" xmlns:xlink="http://www.w3.org/1999/xlink" x="0px" y="0px"
	 width="184px" height="150px" viewBox="0 0 184 150" enable-background="new 0 0 184 150" xml:space="preserve">
<path fill="#FFFFFF" d="M0,0h74.54c-2.11,0.66-4.1,1.65-6.17,2.44c-0.38,0.34-1.14,1.03-1.52,1.37c-4.77-0.43-7.53,3.53-10.7,6.3
	c-2.22,6.93-0.72,14.34-1.15,21.48c-1.02,0.73-2.03,1.47-3.03,2.23c-0.08,4.38-0.04,8.77,0.06,13.16c1.15,0.91,2.33,1.79,3.34,2.86
	c0,1.39-1.32,2.46-1.21,3.87c0.59,2.01,1.4,3.95,2.05,5.94c3.19,4.53,8.12,7.4,12.22,11.03c-3.12,3.06-7.6,0.91-11.42,1.31
	c-6.49,0.3-13.23-0.93-19.47,1.39c-3.63,0.54-6.92,2.29-10.55,2.761c-3.66,1.719-6.82,4.289-9.96,6.789
	c-4.01,3.08-2.25,8.79-2.66,13.131c0.27,4.459,6.11,4.77,7.91,8.1c0.3,6.33-1.25,12.57-1.36,18.9c-1.41,0.959-3.12,1.35-4.68,1.989
	c-2.61-0.19-4.64,1.33-6.65,2.73c-1.74,0.28-3.41,0.829-5.02,1.55c-1,1.6-2.46,2.97-3.15,4.73c-0.16,3.569-0.48,7.129-1.42,10.6V0z"
	/>
<path fill="#040404" d="M74.54,0h17.92c4.42,0.55,9.14,0.39,13.2,2.43c2.84,2.96,5.55,6.5,9.939,7.04
	c-0.01,0.57-0.05,1.71-0.07,2.29c3.611,2.4,5.721,6.26,7.961,9.84c0.16,0.45,0.48,1.33,0.64,1.77c0.63,1.43,0.841,2.97,1.06,4.5
	c0.86,0.87,1.73,1.73,2.61,2.6c-0.06,6.53,0.08,13.07-0.04,19.6c0.221,1.32-1.1,2.01-1.71,2.97c-2.38,2.2-1.06,6.28-3.829,8.2
	c-5.08,3.58-10.57,6.6-16.611,8.229c-8.049,4.3-17.379,2.18-26.089,2.18c-0.9,1.03-1.81,2.05-2.75,3.05
	c-2.03,0.24-4.02,0.69-5.97,1.29c2.39,1.13,5.01,1.66,7.52,0.529c0.26,1.23,0.51,2.45,0.74,3.69c4.45,2.72,9.71,1.2,14.5,2.46
	c6.629,2.05,13.6,1.141,20.42,1.35c2.319,0.15,4.56-0.42,6.72-1.22c6.04-4.44,13-7.239,19.771-10.32c3.85-1.58,6.939-5.45,11.5-4.42
	c-0.291,1.17,0.069,2.81-1.291,3.41c-3.189,1.92-6.789,3.18-9.67,5.58c-4.65,4.23-10.57,6.65-15.46,10.54
	c-4.95,2.08-10.35,1.301-15.56,1.41c-5.301-0.23-10.74,0.68-15.92-0.8c-4.99-1.341-10.271,0.319-15.19-1.45
	c0.01,7.41,0.06,14.811-0.04,22.21c0.66,0.19,1.98,0.57,2.64,0.76c4.11-0.829,8.31-0.439,12.47-0.51c4.47,0.11,9-0.399,13.43,0.479
	c3.66,0.74,7.49-0.09,11.11,0.951c1.26,0.35,2.52,0.699,3.779,1.049c1.211-0.35,2.42-0.67,3.65-0.959
	c0.03,0.619,0.09,1.859,0.13,2.479c1.31-0.03,2.62-0.069,3.931-0.11c5.43-2.199,11.47-0.64,17.17-1.119
	c0.43,0.83,0.869,1.67,1.31,2.5c2.851,1.75,5.479,3.84,7.761,6.289c3.799,3.961,9.85,5.551,12.159,10.891
	c3.8,2.56,5.62,6.97,9.25,9.689c2.67,2.28,3.899,5.74,6.37,8.211V150h-6.641c-0.219-0.641-0.659-1.93-0.869-2.57
	c-1.87-3.119-5.641-4.279-7.631-7.289c-1.189-1.811-2.52-3.551-4.439-4.621c-0.641-1.93-2.029-3.35-3.779-4.31
	c-0.98-0.99-1.961-1.979-2.94-2.96c-3.87-0.29-4.65-4.63-7.63-6.32c-2.61-1.689-5.141-3.539-7.19-5.91
	c-2.149-0.02-4.3-0.02-6.45-0.02c-0.99,0.66-1.97,1.311-2.939,1.98c-3.32,0.1-6.65,0.029-9.93-0.48l1.219,1
	c-1.279,2.49-1.059,5.311-1.129,8.01c-2.99,3.69-6.44,7.11-8.471,11.471c-8.72-0.021-17.449,0.029-26.18,0
	c-3.35,0.119-6.34-1.65-9.49-2.521c-0.99-0.34-1.98-0.67-2.98-1c-2.04-1.979-4.53-3.42-6.49-5.479c-1.61-1.91-2.69-4.19-4.22-6.16
	c-1.63,0.16-3.21,0.609-4.84,0.76c-11.85,0.23-23.49,2.7-35.21,4.21c-3.62,0.37-6.89,2.29-10.56,2.37
	c-0.39,0.38-1.18,1.14-1.57,1.51c-1.14,0.2-2.28,0.4-3.42,0.61c-0.05,0.54-0.17,1.62-0.22,2.17c1.41,1.78,2.54,3.85,4.41,5.22
	c3.07,2.25,5.68,5.4,9.67,5.98c0.06,1.449,0.09,2.899,0.01,4.35h-4.24c-5.8-2.55-10.03-7.55-13.85-12.43
	c0.01,2.359,0.18,4.81-0.82,7.02c-0.13,1.801-0.2,3.61-0.27,5.41H0v-5.34c0.94-3.471,1.26-7.03,1.42-10.6
	c0.69-1.761,2.15-3.131,3.15-4.73c1.61-0.721,3.28-1.27,5.02-1.55c2.01-1.4,4.04-2.921,6.65-2.73c1.56-0.64,3.27-1.03,4.68-1.989
	c0.11-6.33,1.66-12.57,1.36-18.9c-1.8-3.33-7.64-3.641-7.91-8.1c0.41-4.341-1.35-10.051,2.66-13.131c3.14-2.5,6.3-5.07,9.96-6.789
	c3.63-0.471,6.92-2.221,10.55-2.761c6.24-2.32,12.98-1.09,19.47-1.39c3.82-0.4,8.3,1.75,11.42-1.31c-4.1-3.63-9.03-6.5-12.22-11.03
	c-0.65-1.99-1.46-3.93-2.05-5.94c-0.11-1.41,1.21-2.48,1.21-3.87c-1.01-1.07-2.19-1.95-3.34-2.86c-0.1-4.39-0.14-8.78-0.06-13.16
	c1-0.76,2.01-1.5,3.03-2.23c0.43-7.14-1.07-14.55,1.15-21.48c3.17-2.77,5.93-6.73,10.7-6.3c0.38-0.34,1.14-1.03,1.52-1.37
	C70.44,1.65,72.43,0.66,74.54,0 M69.16,5.63l-0.58,1.02c-4.77-0.06-8.86,3.45-10.32,7.85c-0.09,4.76-0.07,9.53-0.01,14.3
	c0.91-0.9,1.81-1.81,2.7-2.72c2.23,0.14,4.72-0.48,6.66,0.96c-0.25,2.41-2.88,2.06-4.63,2.46c-1.5,0.73-2.88,1.67-4.4,2.37
	c-0.52,0.89-1.03,1.79-1.52,2.7c-0.55,0.34-1.65,1.02-2.2,1.36c0.03,2.87,0.05,5.74-0.1,8.6c1.37,1.62,2.88,3.12,4.51,4.479
	c2.94,0.6,5.48,2.271,7.85,4.021c-0.52,0.46-1.57,1.38-2.1,1.84C62.2,54.1,59.63,52.7,57,51.48c1.13,2.93,2.03,6,3.82,8.63
	c2.96,1.54,5.08,4.22,7.44,6.51c5.34,1.64,11.04,1.46,16.55,1.97c3.71,0.88,7.58,0.79,11.36,0.46c4.41-1.24,8.65-3.03,12.95-4.62
	c3.5-1.17,7.28-2.05,10.09-4.59c2.14-3.21,2-7.31,4.5-10.35c0.011-0.67,0.04-1.99,0.05-2.65c1.461-4.69,0.35-9.8,0.6-14.65
	c-2.68-4.27-4.159-9.18-6.81-13.46c-5.079,0.13-10.19,0.31-15.26-0.03c-1.479-0.59-0.96-1.86-0.53-2.99
	c4.45-0.09,8.9,0.15,13.34-0.16c-1.47-1.07-2.91-2.19-4.25-3.42c-1.25-1.05-2.479-2.13-3.459-3.44c-1.4-0.88-2.681-1.93-3.75-3.19
	c-3.551-1.74-7.611-1.56-11.431-2.02c-4.67-1.1-9.48-0.43-14.22-0.61C74.8,2.7,72.12,4.76,69.16,5.63 M44.5,77.061
	c-3.14,2.59-7.51,2.739-11.39,2.649l-0.17,1.28c-1.32,0.01-2.65,0.02-3.97,0.04c-1.71,2.7-5.91,2.8-6.87,6.06
	c-0.55,0.23-1.66,0.69-2.21,0.92c-0.01,2.59-0.02,5.18,0.03,7.771c1.19,0.52,2.37,1.06,3.55,1.61c-0.04-2.721-0.03-5.44-0.1-8.16
	c1.28-1.061,2.9-1.271,4.5-1.41c0.54-0.93,0.76-2.48,2.15-2.471c7.19-1.31,14.49-2.09,21.57-3.949c2.31-0.26,4.52-1.24,6.89-0.961
	c0.71-0.97,3.4-1.979,1.33-3.289C54.72,76.84,49.6,77.03,44.5,77.061 M57.57,91.311c-0.81,2.129-2.2,3.949-3.61,5.709
	c0.3,3.681,0.15,7.45-1.66,10.75c4.29-0.16,8.58-0.18,12.87,0.021c-1.5-0.97-2.85-2.16-3.73-3.729c0.1-1.4,0.24-2.791,0.4-4.181
	c0.78-1.45,2.86-1.44,4.11-0.69c4.41,3.25,6.36,9.351,11.93,11.03c-1.08-0.819-1.59-1.87-1.52-3.159
	c-0.08-7.041,0.28-14.121-0.18-21.141c-3.95-0.41-5.91-5.51-10.07-4.59C62.37,83.84,60.22,87.82,57.57,91.311 M30.8,87.84
	c0.01,5.15,0.04,10.301,0,15.44c2.51,1.28,4.87,2.829,7.28,4.28c3.13,0.299,6.28,0.06,9.42,0.1c0.04-2.17-0.4-4.5,0.68-6.5
	c0.09-2.25,0.08-4.5,0.09-6.75c1.09-1.28,2.13-2.62,3.23-3.9c0.05-0.619,0.15-1.859,0.2-2.479c1.45-1.46,2.88-2.931,4.28-4.431
	C47.48,84.23,39.21,86.54,30.8,87.84 M25.77,90.1c0.03,3.021,0.05,6.041-0.03,9.061c0.64,0.56,1.93,1.67,2.57,2.23
	c-0.01-3.761,0-7.531-0.01-11.301C27.67,90.09,26.4,90.1,25.77,90.1 M23.85,115.9c-0.58,2.569-0.42,5.22-0.46,7.83
	c1.66-0.041,3.31-0.08,4.97-0.15c-0.09-5.29-0.08-10.58-0.01-15.86c-1.17-0.56-2.34-1.11-3.52-1.649
	C23.88,109.28,24.62,112.67,23.85,115.9 M30.81,110.51c0.03,4.15,0.05,8.301-0.03,12.45c5.62-0.63,11.19-1.96,16.87-1.78
	c-0.04-1.41-0.39-2.729-1.06-3.949c0.01-1.34,0.02-2.681,0.05-4.021c-3.63,0-7.26,0.03-10.88,0.01
	C34.18,112.189,32.52,111.311,30.81,110.51 M88.86,112.38c0.15,0.32,0.44,0.94,0.59,1.261c4.159-0.521,8.36-0.4,12.54-0.371
	c2.359-0.029,4.75,0.681,6.47,2.36c1.819-0.08,3.899,0.521,5.5-0.62c1.521-1.439,3.54-0.01,5.31-0.04
	c-3.569-2.7-8.189-1.319-12.27-1.87C101.08,111.6,94.891,112.59,88.86,112.38 M52.05,113.28c0.33,1.2,0.71,2.39,1.17,3.55
	c-0.01,1.23-0.04,2.46-0.09,3.689c3.41-1.959,7.74,0.34,11.06-2.069c-0.04-1.13-0.07-2.261-0.1-3.39
	c0.48-0.461,1.44-1.391,1.92-1.851C61.36,113.25,56.7,113.2,52.05,113.28 M68.96,114.75c-0.19,0.359-0.57,1.08-0.76,1.439
	c2.67,1.301,5.51,2.16,8.52,1.99c0.63,0.25,1.9,0.76,2.54,1.01c-1.47-1.33-3.03-2.56-4.51-3.879
	C72.82,115.17,70.89,114.91,68.96,114.75 M78.57,114.2c1.78,2.33,4.84,1.319,7.34,1.39C85.07,112.51,80.83,114.48,78.57,114.2
	 M93.141,116.311c0.029,0.739,0.08,2.22,0.1,2.959c1.32-0.76,2.46-1.739,3.529-2.81C95.561,116.4,94.35,116.35,93.141,116.311
	 M99.32,118.75c1.859-0.18,4.199,0.78,5.66-0.72c-0.98-0.7-2.01-1.33-3.01-1.98C101.08,116.95,100.2,117.84,99.32,118.75
	 M120.25,117.28C120.811,117.891,120.811,117.891,120.25,117.28 M70.38,122.99c1.44,3.89,5.2,5.6,7.91,8.42
	c3.08,0.76,5.94,2.13,8.88,3.279c8.301,0.32,16.641,0.091,24.96,0.121c1.45,0.33,2.149-0.891,2.8-1.92
	c2.2-3.33,5.291-6.381,5.711-10.541c-2.19,0.42-4.41,0.58-6.631,0.521c-10.66-0.12-21.33,0.12-31.98-0.101
	C78.17,121.95,74.19,121.79,70.38,122.99z"/>
<path fill="#FFFFFF" d="M92.46,0H184v149.561c-2.471-2.471-3.7-5.931-6.37-8.211c-3.63-2.72-5.45-7.13-9.25-9.689
	c-2.31-5.34-8.36-6.93-12.159-10.891c-2.281-2.449-4.91-4.539-7.761-6.289c-0.44-0.83-0.88-1.67-1.31-2.5
	c-5.7,0.479-11.74-1.08-17.17,1.119c-1.311,0.041-2.621,0.08-3.931,0.11c-0.04-0.62-0.1-1.86-0.13-2.479
	c-1.23,0.289-2.439,0.609-3.65,0.959c-1.26-0.35-2.52-0.699-3.779-1.049c-3.62-1.041-7.45-0.211-11.11-0.951
	c-4.43-0.879-8.96-0.369-13.43-0.479c-4.16,0.07-8.36-0.319-12.47,0.51c-0.66-0.189-1.98-0.569-2.64-0.76
	c0.1-7.399,0.05-14.8,0.04-22.21c4.92,1.77,10.2,0.109,15.19,1.45c5.18,1.479,10.619,0.569,15.92,0.8
	c5.21-0.109,10.609,0.67,15.56-1.41c4.89-3.89,10.81-6.31,15.46-10.54c2.881-2.4,6.48-3.66,9.67-5.58c1.36-0.6,1-2.24,1.291-3.41
	c-4.561-1.03-7.65,2.84-11.5,4.42c-6.771,3.081-13.73,5.879-19.771,10.32c-2.16,0.8-4.4,1.37-6.72,1.22
	c-6.82-0.209-13.791,0.7-20.42-1.35c-4.791-1.26-10.051,0.26-14.5-2.46c-0.23-1.24-0.48-2.46-0.74-3.69
	c-2.51,1.131-5.13,0.601-7.52-0.529c1.95-0.6,3.94-1.05,5.97-1.29c0.94-1,1.85-2.02,2.75-3.05c8.71,0,18.041,2.12,26.089-2.18
	c6.041-1.63,11.531-4.65,16.611-8.229c2.77-1.92,1.449-6,3.829-8.2c0.61-0.96,1.931-1.65,1.71-2.97c0.12-6.53-0.02-13.07,0.04-19.6
	c-0.88-0.87-1.75-1.729-2.61-2.6c-0.219-1.53-0.43-3.07-1.06-4.5c-0.159-0.44-0.479-1.32-0.64-1.77c-2.24-3.58-4.35-7.44-7.961-9.84
	c0.021-0.58,0.061-1.72,0.07-2.29c-4.39-0.54-7.1-4.08-9.939-7.04C101.6,0.39,96.88,0.55,92.46,0z"/>
<path fill="#FFFFFF" d="M69.16,5.63c2.96-0.87,5.64-2.93,8.83-2.76c4.74,0.18,9.55-0.49,14.22,0.61
	c3.819,0.46,7.88,0.28,11.431,2.02c1.069,1.26,2.35,2.31,3.75,3.19c0.979,1.31,2.209,2.39,3.459,3.44c1.34,1.23,2.78,2.35,4.25,3.42
	c-4.439,0.31-8.89,0.07-13.34,0.16c-0.43,1.13-0.949,2.4,0.53,2.99c5.069,0.34,10.181,0.16,15.26,0.03
	c2.65,4.28,4.13,9.19,6.81,13.46c-0.25,4.85,0.861,9.96-0.6,14.65c-0.01,0.66-0.039,1.98-0.05,2.65c-2.5,3.04-2.36,7.14-4.5,10.35
	c-2.81,2.54-6.59,3.42-10.09,4.59c-4.3,1.59-8.54,3.38-12.95,4.62c-3.78,0.33-7.65,0.42-11.36-0.46
	c-5.51-0.51-11.21-0.33-16.55-1.97c-2.36-2.29-4.48-4.97-7.44-6.51c-1.79-2.63-2.69-5.7-3.82-8.63c2.63,1.22,5.2,2.62,8.02,3.39
	c0.53-0.46,1.58-1.38,2.1-1.84c-2.37-1.75-4.91-3.42-7.85-4.021c-1.63-1.36-3.14-2.86-4.51-4.479c0.15-2.86,0.13-5.73,0.1-8.6
	c0.55-0.34,1.65-1.02,2.2-1.36c0.49-0.91,1-1.81,1.52-2.7c1.52-0.7,2.9-1.64,4.4-2.37c1.75-0.4,4.38-0.05,4.63-2.46
	c-1.94-1.44-4.43-0.82-6.66-0.96c-0.89,0.91-1.79,1.82-2.7,2.72c-0.06-4.77-0.08-9.54,0.01-14.3c1.46-4.4,5.55-7.91,10.32-7.85
	L69.16,5.63 M76.49,20.52c-0.29,0.39-0.88,1.16-1.17,1.54c1.16,2.77,4.63,1.28,6.93,1.65c0,2.34-0.12,4.68,0.08,7.02
	c2.63,2,6.08,3.33,9.15,1.48c-0.04-2.46-0.05-4.92-0.01-7.38c-0.33-0.27-0.99-0.8-1.32-1.06c1.27-0.01,2.52-0.13,3.76-0.35
	c1.72-0.63,0.48-3.22-1-3.01C87.44,20.39,81.95,20.25,76.49,20.52 M108.91,24.56c-0.87,0.91-1.74,1.81-2.62,2.71
	c-0.011,1.64-0.03,3.28-0.08,4.92c2.45,2.78,6.41,3.54,9.56,1.45c1.561-2.43,1.521-5.31,1.471-8.09
	C114.9,23.23,111.79,23.64,108.91,24.56 M78.59,36.41c-0.98,0.54-1.96,1.08-2.94,1.61c0.01,1.21,0.03,2.42,0.05,3.64
	c-0.85,0.4-1.7,0.82-2.54,1.23c-0.01,0.74-0.03,2.21-0.04,2.94c2.19,1.98,4.67,3.59,7.23,5.05c6.15-0.08,12.31,0.1,18.46-0.09
	c0.279-0.38,0.85-1.16,1.14-1.55c2.92-0.18,6.04,0.52,8.829-0.41c2.551-1.87-0.809-3.68-1.979-5.14
	c-2.01-2.84-3.909-6.63-7.909-6.69C92.27,35.6,85.33,36.72,78.59,36.41 M67.24,42.4c-2.28,0.7,0.74,4.51,1.81,2.38
	C71.01,43.62,68.92,41.34,67.24,42.4 M68.12,49.96c2.56-0.21,1.62-2.57,0.09-3.56C66.56,47.23,65.46,49.73,68.12,49.96 M75.97,53.49
	c0.53,0.43,1.6,1.3,2.14,1.74c0.45-0.43,1.36-1.28,1.82-1.71C79.63,50.94,76.57,51.27,75.97,53.49z"/>
<path fill="#040404" d="M76.49,20.52c5.46-0.27,10.95-0.13,16.42-0.11c1.48-0.21,2.72,2.38,1,3.01c-1.24,0.22-2.49,0.34-3.76,0.35
	c0.33,0.26,0.99,0.79,1.32,1.06c-0.04,2.46-0.03,4.92,0.01,7.38c-3.07,1.85-6.52,0.52-9.15-1.48c-0.2-2.34-0.08-4.68-0.08-7.02
	c-2.3-0.37-5.77,1.12-6.93-1.65C75.61,21.68,76.2,20.91,76.49,20.52z"/>
<path fill="#040404" d="M108.91,24.56c2.88-0.92,5.99-1.33,8.33,0.99c0.05,2.78,0.09,5.66-1.471,8.09
	c-3.149,2.09-7.109,1.33-9.56-1.45c0.05-1.64,0.069-3.28,0.08-4.92C107.17,26.37,108.04,25.47,108.91,24.56z"/>
<path fill="#040404" d="M78.59,36.41c6.74,0.31,13.68-0.81,20.301,0.59c4,0.06,5.899,3.85,7.909,6.69
	c1.171,1.46,4.53,3.27,1.979,5.14c-2.789,0.93-5.909,0.23-8.829,0.41c-0.29,0.39-0.86,1.17-1.14,1.55
	c-6.15,0.19-12.311,0.01-18.46,0.09c-2.56-1.46-5.04-3.07-7.23-5.05c0.01-0.73,0.03-2.2,0.04-2.94c0.84-0.41,1.69-0.83,2.54-1.23
	c-0.02-1.22-0.04-2.43-0.05-3.64C76.63,37.49,77.61,36.95,78.59,36.41 M77.8,45.12c1.08,0.84,2.17,1.69,3.24,2.57
	c1.32,0.01,2.65,0.03,3.97,0.05c-1.07-0.81-2.14-1.61-3.19-2.44C80.48,45.24,79.14,45.18,77.8,45.12z"/>
<path fill="#040404" d="M67.24,42.4c1.68-1.06,3.77,1.22,1.81,2.38C67.98,46.91,64.96,43.1,67.24,42.4z"/>
<path fill="#FFFFFF" d="M77.8,45.12c1.34,0.06,2.68,0.12,4.02,0.18c1.05,0.83,2.12,1.63,3.19,2.44c-1.32-0.021-2.65-0.04-3.97-0.05
	C79.97,46.81,78.88,45.96,77.8,45.12z"/>
<path fill="#040404" d="M68.12,49.96c-2.66-0.23-1.56-2.73,0.09-3.56C69.74,47.39,70.68,49.75,68.12,49.96z"/>
<path fill="#040404" d="M75.97,53.49c0.6-2.22,3.66-2.55,3.96,0.03c-0.46,0.43-1.37,1.28-1.82,1.71
	C77.57,54.79,76.5,53.92,75.97,53.49z"/>
<path fill="#FFFFFF" d="M44.5,77.061c5.1-0.03,10.22-0.221,15.31,0.09c2.07,1.31-0.62,2.319-1.33,3.289
	c-2.37-0.279-4.58,0.701-6.89,0.961c-7.08,1.859-14.38,2.64-21.57,3.949c-1.39-0.01-1.61,1.541-2.15,2.471
	c-1.6,0.14-3.22,0.35-4.5,1.41c0.07,2.72,0.06,5.439,0.1,8.16c-1.18-0.551-2.36-1.091-3.55-1.61c-0.05-2.591-0.04-5.181-0.03-7.771
	c0.55-0.229,1.66-0.689,2.21-0.92c0.96-3.26,5.16-3.359,6.87-6.06c1.32-0.021,2.65-0.03,3.97-0.04l0.17-1.28
	C36.99,79.8,41.36,79.65,44.5,77.061z"/>
<path fill="#FFFFFF" d="M57.57,91.311c2.65-3.49,4.8-7.471,8.54-9.98c4.16-0.92,6.12,4.18,10.07,4.59
	c0.46,7.02,0.1,14.1,0.18,21.141c-0.07,1.289,0.44,2.34,1.52,3.159c-5.57-1.68-7.52-7.78-11.93-11.03
	c-1.25-0.75-3.33-0.76-4.11,0.69c-0.16,1.39-0.3,2.78-0.4,4.181c0.88,1.569,2.23,2.76,3.73,3.729c-4.29-0.2-8.58-0.181-12.87-0.021
	c1.81-3.3,1.96-7.069,1.66-10.75C55.37,95.26,56.76,93.439,57.57,91.311z"/>
<path fill="#FFFFFF" d="M30.8,87.84c8.41-1.3,16.68-3.609,25.18-4.24c-1.4,1.5-2.83,2.971-4.28,4.431
	c-0.05,0.62-0.15,1.86-0.2,2.479c-1.1,1.28-2.14,2.62-3.23,3.9c-0.01,2.25,0,4.5-0.09,6.75c-1.08,2-0.64,4.33-0.68,6.5
	c-3.14-0.04-6.29,0.199-9.42-0.1c-2.41-1.451-4.77-3-7.28-4.28C30.84,98.141,30.81,92.99,30.8,87.84z"/>
<path fill="#FFFFFF" d="M25.77,90.1c0.63,0,1.9-0.01,2.53-0.01c0.01,3.77,0,7.54,0.01,11.301c-0.64-0.561-1.93-1.671-2.57-2.23
	C25.82,96.141,25.8,93.12,25.77,90.1z"/>
<path fill="#FFFFFF" d="M23.85,115.9c0.77-3.23,0.03-6.62,0.98-9.83c1.18,0.539,2.35,1.09,3.52,1.649
	c-0.07,5.28-0.08,10.57,0.01,15.86c-1.66,0.07-3.31,0.109-4.97,0.15C23.43,121.12,23.27,118.47,23.85,115.9z"/>
<path fill="#FFFFFF" d="M30.81,110.51c1.71,0.801,3.37,1.68,4.95,2.71c3.62,0.021,7.25-0.01,10.88-0.01
	c-0.03,1.34-0.04,2.681-0.05,4.021c0.67,1.22,1.02,2.539,1.06,3.949c-5.68-0.18-11.25,1.15-16.87,1.78
	C30.86,118.811,30.84,114.66,30.81,110.51z"/>
<path fill="#FFFFFF" d="M88.86,112.38c6.031,0.21,12.22-0.78,18.14,0.72c4.08,0.551,8.7-0.83,12.27,1.87
	c-1.77,0.03-3.789-1.399-5.31,0.04c-1.601,1.141-3.681,0.54-5.5,0.62c-1.72-1.68-4.11-2.39-6.47-2.36
	c-4.18-0.029-8.381-0.149-12.54,0.371C89.3,113.32,89.01,112.7,88.86,112.38z"/>
<path fill="#FFFFFF" d="M52.05,113.28c4.65-0.08,9.31-0.03,13.96-0.07c-0.48,0.46-1.44,1.39-1.92,1.851
	c0.03,1.129,0.06,2.26,0.1,3.39c-3.32,2.409-7.65,0.11-11.06,2.069c0.05-1.229,0.08-2.459,0.09-3.689
	C52.76,115.67,52.38,114.48,52.05,113.28z"/>
<path fill="#FFFFFF" d="M68.96,114.75c1.93,0.16,3.86,0.42,5.79,0.561c1.48,1.319,3.04,2.549,4.51,3.879
	c-0.64-0.25-1.91-0.76-2.54-1.01c-3.01,0.17-5.85-0.689-8.52-1.99C68.39,115.83,68.77,115.109,68.96,114.75z"/>
<path fill="#FFFFFF" d="M78.57,114.2c2.26,0.28,6.5-1.69,7.34,1.39C83.41,115.52,80.35,116.53,78.57,114.2z"/>
<path fill="#FFFFFF" d="M93.141,116.311c1.209,0.039,2.42,0.09,3.629,0.149c-1.069,1.07-2.209,2.05-3.529,2.81
	C93.221,118.53,93.17,117.05,93.141,116.311z"/>
<path fill="#FFFFFF" d="M99.32,118.75c0.88-0.91,1.76-1.8,2.65-2.7c1,0.65,2.029,1.28,3.01,1.98
	C103.52,119.53,101.18,118.57,99.32,118.75z"/>
<path fill="#FFFFFF" d="M136.43,116c2.15,0,4.301,0,6.45,0.02c2.05,2.371,4.58,4.221,7.19,5.91c2.979,1.69,3.76,6.03,7.63,6.32
	c0.979,0.98,1.96,1.97,2.94,2.96c1.75,0.96,3.139,2.38,3.779,4.31c1.92,1.07,3.25,2.811,4.439,4.621
	c1.99,3.01,5.761,4.17,7.631,7.289c0.21,0.641,0.65,1.93,0.869,2.57H24.09c0.08-1.45,0.05-2.9-0.01-4.35
	c-3.99-0.58-6.6-3.73-9.67-5.98c-1.87-1.37-3-3.439-4.41-5.22c0.05-0.55,0.17-1.63,0.22-2.17c1.14-0.21,2.28-0.41,3.42-0.61
	c0.39-0.37,1.18-1.13,1.57-1.51c3.67-0.08,6.94-2,10.56-2.37c11.72-1.51,23.36-3.979,35.21-4.21c1.63-0.15,3.21-0.6,4.84-0.76
	c1.53,1.97,2.61,4.25,4.22,6.16c1.96,2.06,4.45,3.5,6.49,5.479c1,0.33,1.99,0.66,2.98,1c3.15,0.87,6.14,2.64,9.49,2.521
	c8.73,0.029,17.46-0.021,26.18,0c2.03-4.36,5.48-7.78,8.471-11.471c0.07-2.699-0.15-5.52,1.129-8.01l-1.219-1
	c3.279,0.51,6.609,0.58,9.93,0.48C134.46,117.311,135.439,116.66,136.43,116z"/>
<path fill="#FFFFFF" d="M120.25,117.28C120.811,117.891,120.811,117.891,120.25,117.28z"/>
<path fill="#FFFFFF" d="M70.38,122.99c3.81-1.2,7.79-1.04,11.65-0.221c10.65,0.221,21.32-0.02,31.98,0.101
	c2.221,0.06,4.44-0.101,6.631-0.521c-0.42,4.16-3.511,7.211-5.711,10.541c-0.65,1.029-1.35,2.25-2.8,1.92
	c-8.319-0.03-16.659,0.199-24.96-0.121c-2.94-1.149-5.8-2.52-8.88-3.279C75.58,128.59,71.82,126.88,70.38,122.99z"/>
<path fill="#FFFFFF" d="M6,137.57c3.82,4.88,8.05,9.88,13.85,12.43H4.91c0.07-1.8,0.14-3.609,0.27-5.41
	C6.18,142.38,6.01,139.93,6,137.57z"/>
</svg>
