<?xml version="1.0" encoding="utf-8"?>
<!-- Generator: Adobe Illustrator 15.0.2, SVG Export Plug-In . SVG Version: 6.00 Build 0)  -->
<!DOCTYPE svg PUBLIC "-//W3C//DTD SVG 1.1//EN" "http://www.w3.org/Graphics/SVG/1.1/DTD/svg11.dtd">
<svg version="1.1" id="Layer_1" xmlns="http://www.w3.org/2000/svg" xmlns:xlink="http://www.w3.org/1999/xlink" x="0px" y="0px"
	 width="218px" height="233px" viewBox="0 0 218 233" enable-background="new 0 0 218 233" xml:space="preserve">
<path fill="#FFFFFF" d="M0,0h218v233h-98.77c2.97,1.1,4.08-1.85,3.799-4.061c-0.1-1.949,0.811-3.689,1.58-5.409
	c0.92-1.39,1.891-2.74,2.781-4.15c1.049-1.319,2.109-2.64,3-4.08c2.489-2.77,5.109-5.43,7.909-7.89c2.69-1.641,4.7-4.15,7.36-5.83
	c1.24-1.05,2.449-2.141,3.68-3.2c1.83-1.17,3.48-2.59,5.32-3.75c0.89-0.771,1.77-1.54,2.66-2.29c1.47-0.859,2.88-1.82,4.35-2.67
	c0.42-0.33,1.26-0.99,1.67-1.32c1.051-0.63,2.07-1.289,3.09-1.959c1.41-0.921,2.771-1.91,4.17-2.86c1.121-0.28,2.26-0.54,3.4-0.771
	c0-0.359,0-1.07,0-1.43c-1.529-0.63-3.04-1.32-4.561-1.96c-1.75-0.91-3.359-2.19-1.59-4.15c0.19-2.68-0.17-5.51,1-8.02
	c0.41-3.65-0.5-7.521,0.99-10.99c0.189-3.14,0.131-6.28,0.32-9.42c1.49-3.47,0.58-7.351,0.98-11c2.479-4.28-1.23-10.37,2.439-13.899
	c5.73,0.949,11.29,2.819,16.85,4.5c6.771,1.979,12.82,5.719,19.471,8.01c-0.58-1.45-0.801-3.24-2.28-4.11
	c-3.88-2.67-8.58-3.851-12.46-6.53c-1.33-0.84-1.811-2.41-2.32-3.79c-3.29-9.939-6-20.05-8.99-30.08
	c-3.629-9.96-10.3-18.42-14.979-27.85c1.069-5.49,4.05-10.52,4.28-16.2c0.649-10.24-1.18-21.71-8.92-29.1
	c-6.51-6.3-15.84-7.93-24.44-9.28c-8.2-0.92-16.58-2.21-24.771-0.47c-4.819,0.63-8.45,4.15-12.31,6.76
	c-3.42,2.67-7.74,3.8-11.06,6.63c0.45,1.41,0.71,2.87,0.84,4.34c1.3-1.25,2.58-2.53,3.81-3.84c-1.6,4.99-2.93,10.1-5.17,14.85
	c-0.07,1.29-0.12,2.59-0.17,3.88c-1.74,2.8-3.1,6.44-6.44,7.65c-1.47,0.76-3.71,0.71-4.13,2.67c0.8,3.23,2.84,6.27,5.84,7.82
	c2.73,1.08,5.7,1.12,8.58,1.29c3.39,2.32,6.04,5.66,9.86,7.36c9.17,4.42,19.08,7.2,29.12,8.82c5.3,1.03,10.87,0.87,16.06-0.68
	c4.33-1.45,8.051-4.22,11.641-6.96c1.439-1,2.619-2.61,4.48-2.8c1.77,2.43,3.389,5.91,1.5,8.72c-1.861,2.76-3.771,5.57-6.4,7.66
	c-9.24,7.8-19.891,13.71-30.62,19.18c-2.64,1.12-5.29,2.19-7.89,3.4c-1.69,0.62-3.371,1.27-5.041,1.95
	c-1.72,0.66-3.41,1.38-5.06,2.2c-6.69,1.49-13.6,0.27-20.37,0.16c-20.56-0.17-41.12,0-61.68-0.05c-0.95,1.01-1.91,2.01-2.85,3.03
	c1.73,0.66,3.54,1.07,5.4,0.99c20.68-0.04,41.36-0.01,62.04-0.02c0,0.65,0,1.94,0.01,2.59c-0.66,0.34-1.98,1.01-2.64,1.35
	c-1.34,0.03-2.68,0.05-4.02,0.06c-0.42,0.5-1.28,1.5-1.71,2c-1.02,0-2.03,0-3.05,0c-1.01,0.85-2.03,1.689-3.08,2.5
	c-1.3,0.28-2.61,0.52-3.92,0.76c-0.98,0.34-1.96,0.67-2.95,0.99c-0.47-0.47-1.41-1.41-1.88-1.88c-1.4-0.81-2.73-1.729-4.07-2.62
	c-2.44,2.51-4.96,4.93-7.29,7.55c-2.34,3.61-5.49,6.761-9.11,9.101c-3.81,3.17-6.74,7.33-10.95,10.02
	c-1.24,1.04-2.45,2.12-3.68,3.18c-1.42,0.91-2.72,1.971-4.02,3.03c-1.68,1.04-3.32,2.14-5.02,3.14c-1.37,0.61-2.71,1.291-4.05,1.971
	c-1.98,0.97-3.97,1.92-6.02,2.72c-1.61,0.351-3.24,0.59-4.86,0.87c-2.26,0.73-4.64,0.68-6.98,0.8c0.5,1.19,1.01,2.37,1.5,3.57
	c1.42,0.63,2.83,1.319,4.23,2.02c1.71,0.841,3.42,1.71,5.14,2.55c0.95,0.48,1.89,0.971,2.84,1.471c1.35,0.64,2.7,1.29,4.05,1.939
	c1.4,0.87,2.74,1.83,4.15,2.7c1.32,1.05,2.63,2.12,4.08,3.011c2.77,2.529,5.66,5.029,7.71,8.209c0.73,0.94,1.46,1.87,2.2,2.811
	c1.09-0.57,2.69-0.58,3.26-1.85c0.34-4.11,0.06-8.24,0.12-12.36c2.63,0.25,4.94-0.73,5.71-3.42c0.89,0.27,1.77,0.56,2.65,0.86
	c1.21,0.59,2.42,1.18,3.65,1.739c0,0.41,0.01,1.22,0.01,1.62c2,0,4.01,0,6.01,0c-0.03-2.65-0.04-5.3-0.05-7.95
	c1.28,0.48,2.58,0.92,3.9,1.31l0.14-1.42c-0.5,0.021-1.51,0.07-2.01,0.091c2.08-1.851-0.09-3.73-1.31-5.22
	c0.65,0.109,1.96,0.319,2.61,0.43c1.4,0.41,2.8,0.779,4.22,1.119c-0.36-0.409-1.07-1.239-1.43-1.649c0.44-0.899,0.88-1.8,1.3-2.71
	l0.65-0.02c-0.02,0.59-0.06,1.76-0.08,2.34c1.19-0.99,2.4-1.98,3.63-2.92c1.79-0.271,3.6-0.41,5.41-0.551
	c0.05-2.68-0.45-5.58,1.06-7.97c0.7,0.39,2.08,1.17,2.78,1.56c0.05-0.609,0.17-1.83,0.22-2.439c0.73,0,2.2,0,2.93,0
	c0-0.5,0.01-1.5,0.01-2l0.71-0.02c0.51,1.34,1.06,2.68,1.58,4.029c0.43,0,1.28-0.01,1.71-0.01c0-2.67,0-5.34,0-8
	c3.67,0,7.35,0,11.02,0c-0.01-0.6-0.04-1.8-0.06-2.4c-1.22-1.38-2.42-2.8-3.47-4.319c-0.48-0.261-1.45-0.771-1.93-1.021
	c-0.5-0.24-1.52-0.72-2.03-0.96c-1.66-1-3.26-2.12-4.96-3.05c-1.4-0.811-2.74-1.71-4.14-2.51c-1.83-1.03-3.59-2.16-5.41-3.19
	l-0.08-0.37c0.66-0.189,1.98-0.58,2.64-0.779c1.03-0.771,2.03-1.58,3.02-2.391c1.13-0.01,2.27-0.01,3.4-0.02c0-0.42,0-1.26,0-1.69
	c0.63-0.239,1.9-0.72,2.54-0.97c1.67-0.57,3.32-1.24,4.94-1.95c1.38-0.91,2.72-1.9,4.09-2.83c4.83-0.8,9.47-2.87,14.44-2.6
	c16.37,0.39,32.7,2.98,48.42,7.62c1.26,0.49,2.471,0.31,3.641-0.53c1.74,3.8,0.76,8.14,0.77,12.17c-1.48,3.47-0.59,7.34-0.99,10.99
	c-1.41,3.14-0.66,6.67-1,10c-1.91,3.96,0.211,8.63-1.699,12.59c-0.84,3.38,1.52,8.28-2.051,10.39c-1.83-1.34-3.5-2.91-5.56-3.899
	c-2.2-1.091-3.87-2.95-5.05-5.07c-0.971-0.25-1.94-0.521-2.891-0.819c-0.52-0.281-1.56-0.83-2.08-1.101
	c-1.49-0.91-2.92-1.899-4.42-2.771c-0.02,0.801-0.07,2.42-0.09,3.23c-1.41,1.109-2.859,2.17-4.33,3.2
	c-1.15-0.88-2.33-1.73-3.55-2.511c-0.08,1.73-0.12,3.471-0.14,5.201c-0.49,0.43-1.48,1.289-1.971,1.709
	c-0.029,0.51-0.08,1.521-0.109,2.021c-0.33,0.66-0.98,1.97-1.301,2.63c-0.659,0-1.959,0-2.609,0c0,2.391,0,4.79-0.01,7.18
	c-1.93-0.17-3.891-0.26-5.73-0.93c-1.21-0.15-2.42-0.29-3.619-0.42c-0.771-0.311-2.311-0.92-3.08-1.23
	c0.34,0.771,1.02,2.311,1.359,3.08c0.061,2.12,0.08,4.25,0.109,6.37c-1.449-0.05-2.889-0.1-4.329-0.17
	c-0.83-0.31-2.479-0.94-3.31-1.26c0.9,1.71,1.95,3.33,2.95,4.989c0.76,1.101,1.5,2.211,2.2,3.36c-1.58-0.01-3.16-0.04-4.74-0.12
	c-1.94-0.91-4.11-0.85-6.2-1c-0.62-0.31-1.87-0.92-2.49-1.22c-0.5,2.351,0.95,5.771-1.55,7.25c-2.64,0.261-5.29,0.101-7.94,0.17
	c0.31,0.64,0.94,1.91,1.25,2.55c0.11,1.23,0.22,2.471,0.34,3.711c0.67,2.08,0.9,4.27,1.54,6.359c0.12,0.689,0.37,2.05,0.49,2.73
	c0.61-0.351,1.81-1.061,2.41-1.42c2.36,0,4.77-0.101,7.04,0.68c0.44,0.12,1.32,0.35,1.76,0.47c1.01,0.78,2.04,1.55,3.09,2.29
	c1.239,1.74,2.67,3.34,4.06,4.96c0.93,1.4,1.99,2.71,3.061,4.011c0.73,1.209,1.55,2.369,2.25,3.609H0V0 M105.25,155
	c-0.29,1.141-0.55,2.29-0.77,3.439c-0.61,0.83-1.17,1.701-1.68,2.591c0.8-0.011,2.4-0.04,3.2-0.05c0-2,0-3.99,0-5.98H105.25
	 M119.58,168.51c-0.2,0.721-0.6,2.17-0.801,2.9c1.021-0.84,2.041-1.67,3.07-2.48c-0.06-0.83-0.18-2.479-0.24-3.31
	C120.859,166.52,120.141,167.46,119.58,168.51 M84.04,171.67c1.35,0.26,1.89-0.279,1.63-1.63C84.24,169.7,83.7,170.24,84.04,171.67
	 M102.2,171.73c0.02,2.09-1.18,3.869-1.4,5.91c1.05-1.121,1.95-2.381,2.6-3.771c0.69,0.63,2.68,0.64,2.37,1.899
	c-1.26,1.271-3.21,1.631-4.16,3.261c2.32-0.39,4.6-1.49,6.16-3.271c-0.31-1.9-3.01-2.14-4.44-3.05
	C103.05,172.46,102.49,171.98,102.2,171.73 M51.84,179.77c0.74,2.461,2.92,4.65,5.39,5.391C55.81,183.05,53.95,181.189,51.84,179.77
	 M88.96,186.98c0.03,1.129,0.08,2.27,0.14,3.399c1.21,1.3,0.83,3.06,0.92,4.65c1-0.431,1.99-0.86,2.99-1.3
	c-0.81-1.431-1.61-2.86-2.36-4.32c-0.24-0.6-0.72-1.811-0.97-2.41L88.96,186.98z"/>
<path d="M115.02,6.99c8.19-1.74,16.57-0.45,24.771,0.47c8.601,1.35,17.931,2.98,24.44,9.28c7.74,7.39,9.569,18.86,8.92,29.1
	c-0.23,5.68-3.211,10.71-4.28,16.2c4.68,9.43,11.351,17.89,14.979,27.85c2.99,10.03,5.7,20.14,8.99,30.08
	c0.51,1.38,0.99,2.95,2.32,3.79c3.88,2.68,8.58,3.86,12.46,6.53c1.479,0.87,1.7,2.66,2.28,4.11c-6.65-2.291-12.7-6.03-19.471-8.01
	c-5.56-1.681-11.119-3.551-16.85-4.5c-3.67,3.529,0.04,9.619-2.439,13.899c-0.4,3.649,0.51,7.53-0.98,11
	c-0.189,3.14-0.131,6.28-0.32,9.42c-1.49,3.47-0.58,7.34-0.99,10.99c-1.17,2.51-0.81,5.34-1,8.02c-1.77,1.96-0.16,3.24,1.59,4.15
	c1.521,0.64,3.031,1.33,4.561,1.96c0,0.359,0,1.07,0,1.43c-1.141,0.23-2.279,0.49-3.4,0.771c-1.399,0.95-2.76,1.939-4.17,2.86
	c-1.02,0.67-2.039,1.329-3.09,1.959c-0.41,0.33-1.25,0.99-1.67,1.32c-1.47,0.85-2.88,1.811-4.35,2.67
	c-0.891,0.75-1.771,1.52-2.66,2.29c-1.84,1.16-3.49,2.58-5.32,3.75c-1.23,1.06-2.439,2.15-3.68,3.2c-2.66,1.68-4.67,4.189-7.36,5.83
	c-2.8,2.46-5.42,5.12-7.909,7.89c-0.891,1.44-1.951,2.761-3,4.08c-0.891,1.41-1.861,2.761-2.781,4.15
	c-0.77,1.72-1.68,3.46-1.58,5.409c0.281,2.211-0.829,5.16-3.799,4.061h-0.32c-0.7-1.24-1.52-2.4-2.25-3.609
	c-1.07-1.301-2.131-2.61-3.061-4.011c-1.39-1.62-2.82-3.22-4.06-4.96c-1.05-0.74-2.08-1.51-3.09-2.29
	c-0.44-0.12-1.32-0.35-1.76-0.47c-2.27-0.78-4.68-0.68-7.04-0.68c-0.6,0.359-1.8,1.069-2.41,1.42c-0.12-0.681-0.37-2.041-0.49-2.73
	c-0.64-2.09-0.87-4.279-1.54-6.359c-0.12-1.24-0.23-2.48-0.34-3.711c-0.31-0.64-0.94-1.91-1.25-2.55c2.65-0.069,5.3,0.091,7.94-0.17
	c2.5-1.479,1.05-4.899,1.55-7.25c0.62,0.3,1.87,0.91,2.49,1.22c2.09,0.15,4.26,0.09,6.2,1c1.58,0.08,3.16,0.11,4.74,0.12
	c-0.7-1.149-1.44-2.26-2.2-3.36c-1-1.659-2.05-3.279-2.95-4.989c0.831,0.319,2.48,0.95,3.31,1.26c1.44,0.07,2.88,0.12,4.329,0.17
	c-0.029-2.12-0.049-4.25-0.109-6.37c-0.34-0.77-1.02-2.31-1.359-3.08c0.77,0.311,2.31,0.92,3.08,1.23
	c1.199,0.13,2.409,0.27,3.619,0.42c1.84,0.67,3.801,0.76,5.73,0.93c0.01-2.39,0.01-4.789,0.01-7.18c0.65,0,1.95,0,2.609,0
	c0.32-0.66,0.971-1.97,1.301-2.63c0.029-0.5,0.08-1.511,0.109-2.021c0.49-0.42,1.48-1.279,1.971-1.709
	c0.02-1.73,0.06-3.471,0.14-5.201c1.22,0.78,2.399,1.631,3.55,2.511c1.471-1.03,2.92-2.091,4.33-3.2c0.02-0.811,0.07-2.43,0.09-3.23
	c1.5,0.871,2.93,1.86,4.42,2.771c0.521,0.271,1.561,0.819,2.08,1.101c0.95,0.299,1.92,0.569,2.891,0.819
	c1.18,2.12,2.85,3.979,5.05,5.07c2.06,0.989,3.729,2.56,5.56,3.899c3.57-2.109,1.211-7.01,2.051-10.39
	c1.91-3.96-0.211-8.63,1.699-12.59c0.34-3.33-0.41-6.86,1-10c0.4-3.65-0.49-7.521,0.99-10.99c-0.01-4.03,0.971-8.37-0.77-12.17
	c-1.17,0.84-2.381,1.021-3.641,0.53c-15.72-4.64-32.05-7.23-48.42-7.62c-4.97-0.27-9.61,1.8-14.44,2.6
	c-1.37,0.93-2.71,1.92-4.09,2.83c-1.62,0.71-3.27,1.38-4.94,1.95c-0.64,0.25-1.91,0.73-2.54,0.97c0,0.431,0,1.271,0,1.69
	c-1.13,0.01-2.27,0.01-3.4,0.02c-0.99,0.811-1.99,1.62-3.02,2.391c-0.66,0.199-1.98,0.59-2.64,0.779l0.08,0.37
	c1.82,1.03,3.58,2.16,5.41,3.19c1.4,0.8,2.74,1.699,4.14,2.51c1.7,0.93,3.3,2.05,4.96,3.05c0.51,0.24,1.53,0.72,2.03,0.96
	c0.48,0.25,1.45,0.76,1.93,1.021c1.05,1.52,2.25,2.939,3.47,4.319c0.02,0.601,0.05,1.801,0.06,2.4c-3.67,0-7.35,0-11.02,0
	c0,2.66,0,5.33,0,8c-0.43,0-1.28,0.01-1.71,0.01c-0.52-1.35-1.07-2.689-1.58-4.029L87,147c0,0.5-0.01,1.5-0.01,2
	c-0.73,0-2.2,0-2.93,0c-0.05,0.609-0.17,1.83-0.22,2.439c-0.7-0.39-2.08-1.17-2.78-1.56c-1.51,2.39-1.01,5.29-1.06,7.97
	c-1.81,0.141-3.62,0.28-5.41,0.551c-1.23,0.939-2.44,1.93-3.63,2.92c0.02-0.58,0.06-1.75,0.08-2.34L70.39,159
	c-0.42,0.91-0.86,1.811-1.3,2.71c0.36,0.41,1.07,1.24,1.43,1.649c-1.42-0.34-2.82-0.709-4.22-1.119c-0.65-0.11-1.96-0.32-2.61-0.43
	c1.22,1.489,3.39,3.369,1.31,5.22c0.5-0.021,1.51-0.07,2.01-0.091l-0.14,1.42c-1.32-0.39-2.62-0.829-3.9-1.31
	c0.01,2.65,0.02,5.3,0.05,7.95c-2,0-4.01,0-6.01,0c0-0.4-0.01-1.21-0.01-1.62c-1.23-0.56-2.44-1.149-3.65-1.739
	c-0.88-0.301-1.76-0.591-2.65-0.86c-0.77,2.689-3.08,3.67-5.71,3.42c-0.06,4.12,0.22,8.25-0.12,12.36
	c-0.57,1.27-2.17,1.279-3.26,1.85c-0.74-0.94-1.47-1.87-2.2-2.811c-2.05-3.18-4.94-5.68-7.71-8.209
	c-1.45-0.891-2.76-1.961-4.08-3.011c-1.41-0.87-2.75-1.83-4.15-2.7c-1.35-0.649-2.7-1.3-4.05-1.939c-0.95-0.5-1.89-0.99-2.84-1.471
	c-1.72-0.84-3.43-1.709-5.14-2.55c-1.4-0.7-2.81-1.39-4.23-2.02c-0.49-1.2-1-2.38-1.5-3.57c2.34-0.12,4.72-0.069,6.98-0.8
	c1.62-0.28,3.25-0.52,4.86-0.87c2.05-0.8,4.04-1.75,6.02-2.72c1.34-0.68,2.68-1.36,4.05-1.971c1.7-1,3.34-2.1,5.02-3.14
	c1.3-1.06,2.6-2.12,4.02-3.03c1.23-1.06,2.44-2.14,3.68-3.18c4.21-2.689,7.14-6.85,10.95-10.02c3.62-2.34,6.77-5.49,9.11-9.101
	c2.33-2.62,4.85-5.04,7.29-7.55c1.34,0.891,2.67,1.811,4.07,2.62c0.47,0.47,1.41,1.41,1.88,1.88c0.99-0.32,1.97-0.65,2.95-0.99
	c1.31-0.24,2.62-0.479,3.92-0.76c1.05-0.811,2.07-1.65,3.08-2.5c1.02,0,2.03,0,3.05,0c0.43-0.5,1.29-1.5,1.71-2
	c1.34-0.01,2.68-0.03,4.02-0.06c0.66-0.34,1.98-1.01,2.64-1.35C95,113.94,95,112.65,95,112c-20.68,0.01-41.36-0.02-62.04,0.02
	c-1.86,0.08-3.67-0.33-5.4-0.99c0.94-1.021,1.9-2.021,2.85-3.03c20.56,0.05,41.12-0.12,61.68,0.05c6.77,0.11,13.68,1.33,20.37-0.16
	c1.649-0.82,3.34-1.54,5.06-2.2c1.67-0.68,3.351-1.33,5.041-1.95c2.6-1.21,5.25-2.28,7.89-3.4c10.729-5.47,21.38-11.38,30.62-19.18
	c2.63-2.09,4.539-4.9,6.4-7.66c1.889-2.81,0.27-6.29-1.5-8.72c-1.861,0.189-3.041,1.8-4.48,2.8c-3.59,2.74-7.311,5.51-11.641,6.96
	c-5.189,1.55-10.76,1.71-16.06,0.68c-10.04-1.62-19.95-4.4-29.12-8.82c-3.82-1.7-6.47-5.04-9.86-7.36
	c-2.88-0.17-5.85-0.21-8.58-1.29c-3-1.55-5.04-4.59-5.84-7.82c0.42-1.96,2.66-1.91,4.13-2.67c3.34-1.21,4.7-4.85,6.44-7.65
	c0.05-1.29,0.1-2.59,0.17-3.88c2.24-4.75,3.57-9.86,5.17-14.85c-1.23,1.31-2.51,2.59-3.81,3.84c-0.13-1.47-0.39-2.93-0.84-4.34
	c3.32-2.83,7.64-3.96,11.06-6.63C106.57,11.14,110.2,7.62,115.02,6.99 M104.45,16.94c1.16,1.65,2.43,3.26,3.18,5.15
	c-1.71,2.36-4.1-0.92-5.9-1.57c-2.41,3.3-3.99,7.1-5.27,10.96c2.68,1.12,5.75,1.19,8.26,2.69c1.15,2.46-0.1,5.5,0.28,8.19
	c-1.39,1.03-2.62,2.25-3.64,3.64c-2.65,0-5.3-0.02-7.94,0.09c0.74,1.08,1.27,2.54,2.67,2.93c6.35,2.39,13.25,2.02,19.91,2.37
	c7.29,0.39,14.59,0.31,21.88,0.44c9.2-9.04,18.3-18.28,28.71-25.95c-2.23-4.11-5.279-7.94-9.57-10.04
	c-12.299-6.49-26.629-6.06-40.119-5.77C111.98,10.45,107.95,13.74,104.45,16.94 M164.279,32.18
	c-8.299,6.72-16.029,14.16-23.049,22.21c-2.271,2.26-1.551,6.64-5.021,7.81c-4.431,1.52-9.44,1.66-14,0.57
	c-4.08-1.68-6.46-6.09-10.84-7.22c-5.21-1.4-10.63-1.62-15.93-2.6c2.97,4.14,6.74,7.73,10.99,10.52
	c5.669,2.61,11.66,4.44,17.55,6.47c4.01,1.23,8.279,3.33,12.459,1.52c1.371-0.93,2.69-1.95,4.11-2.82
	c2.14-1.09,4.75-2.68,7.011-0.88c2.129-0.03,3.93,0.92,5.43,2.38c1.33-0.31,1.75-1.72,2.35-2.75c5.45-3.69,11.1-8.25,13.02-14.83
	c2.451-7.19,2.631-15.17,0.32-22.4C166.91,29.75,165.63,31.33,164.279,32.18 M100.12,35.83c-0.36,1.59,0.61,4.32-1.61,4.84
	c-2.08,0.64-3.86,1.88-5.78,2.85c1.94,2.27,5.12,1.28,7.7,1.51c1.2-1.19,2.4-2.39,3.58-3.6c-0.01-1.58-0.01-3.16-0.02-4.74
	C102.7,36.4,101.41,36.1,100.12,35.83 M86.09,52.22c-0.83,0.46-0.84,0.93-0.02,1.42c1.23,1.32,3.07,1.86,4.82,1.97
	c1.97-0.15,0.78-2.24,0.87-3.5C89.88,51.93,87.93,51.65,86.09,52.22 M118.21,55.21c2.12,3.38,6.229,4.71,9.97,5.27
	c3.391,0.04,8.15-1.19,8.311-5.32C130.4,54.83,124.29,54.78,118.21,55.21 M172.061,74.09c-0.261,6.32-0.48,12.65-0.531,18.97
	c0.98,7.81,0.16,15.71,0.551,23.55c1.63,2.281,4.62,2.47,7.09,3.22c3.2,0.68,6.35,1.89,9.641,2.02c0.729-2.89-0.66-5.63-1.471-8.33
	c-3.22-8.92-4.8-18.38-8.72-27.05C176.811,82.15,174.359,78.15,172.061,74.09 M164.391,82.08c-1.32,1.74-2.611,3.59-4.521,4.75
	c-5.42,3.59-10.681,7.47-16.49,10.43c-2.899,1.86-5.93,3.49-9.021,5.01c-3.85,1.97-7.84,3.69-12,4.92
	c-1.139,0.59-2.279,1.2-3.409,1.81c10.479-0.4,20.79,2.01,31.05,3.88c5.51,1.1,11.25,2.03,15.99,5.271
	c0.16-1.931-0.53-4.17,0.939-5.771c0.59-3.93-0.979-8.34,0.95-11.93c0.341-1.42,0.649-2.87,0.37-4.33
	c-0.49-4.72-0.16-9.47-0.25-14.2C166.79,81.92,165.59,81.98,164.391,82.08 M67.46,121.1c-6.04,4.92-9.43,12.67-16.65,16.2l1.48,1.75
	l-2.57-1.43l1.37,3.33l-1.67-2.04c-5.98,6.65-13.25,12.1-20.8,16.859c-0.5,0.23-1.51,0.69-2.01,0.92
	c-1.07,0.53-2.12,1.08-3.19,1.621c-1.58,0.799-3.21,1.5-4.89,2.1c-1.99,0.77-4.33,0.23-6.15,1.47c-0.6,0.04-1.8,0.101-2.4,0.14
	l0.02,0.66c1.22,0.471,2.4,1.04,3.6,1.57c2.24,1.2,4.54,2.3,6.8,3.47c6.13,2.72,11.61,6.82,16.38,11.5c2.41,2.12,3.77,5.13,6.2,7.24
	c0.41-4.51-0.84-9.3,0.84-13.59l-2.22,1.521c0.39-4.371,5.86-0.671,7.38-3.871c-0.1-0.689-0.3-2.069-0.39-2.76
	c3.18-0.16,5.22,2.53,8.01,3.561c0.5,0.25,1.49,0.76,1.99,1.01c0.59,0.25,1.78,0.74,2.37,0.99C61.01,170.54,61,167.77,61,165
	c0.84,0,2.51,0,3.34-0.01c-1.69-1.69-3.2-3.551-4.43-5.6c2.6,0.939,5.39,0.549,8.09,0.619c0-0.75,0-2.26,0-3.01
	c1.66,0,3.33,0,4.99,0c0.01-0.45,0.01-1.359,0.01-1.811c2.05,0.19,3.65-0.869,4.49-2.699c1.07-2.91,0.16-6.01,0.11-9.01
	c0.51,1.029,1.02,2.06,1.17,3.22c0.39,0.43,1.16,1.31,1.55,1.739c1.67-0.42,3.52-0.229,5.07-1.049c0.86-1.511,0.6-3.351,0.98-4.99
	c-1.04-0.99-2.19-2-2.42-3.51c1.41,1.01,2.85,2.209,3.22,4c0.86,1.299,2.68,2.299,2.01,4.149l0.81-0.04c-0.08-2-0.01-4,0.02-6
	c3.46-0.01,6.93,0.02,10.4-0.01c-1.52-1.59-2.94-3.391-5-4.301c-1.75-0.85-3.32-2.02-5.01-2.959c-1.97-1.09-3.83-2.381-5.81-3.45
	c-1.43-0.811-2.77-1.75-4.15-2.63c-2.82-2.061-6.21-1.681-9.48-1.521c-0.49,0.45-1.45,1.351-1.93,1.8
	c-1.03-0.72-2.04-1.46-3.02-2.229c0.36-0.67,1.07-2.03,1.42-2.7c1.53,0,3.05,0,4.58,0L72,122.25
	C70.51,121.85,69.06,120.6,67.46,121.1 M77.18,155.18v0.631h0.64v-0.631H77.18 M136.221,169c-0.48,1.2-0.971,2.4-1.441,3.6
	c-0.489,0.95-0.969,1.891-1.439,2.851c-1.04,1.62-2.33,3.08-3.24,4.79c-0.199,1.89-0.09,3.8-0.1,5.699
	c-1.87,0-3.73,0.141-5.58,0.351c-0.72-0.521-1.51-0.86-2.38-1.021l-0.05-0.85c-0.99,0.28-1.99,0.55-2.99,0.8
	c0,2.521,0,5.04,0.01,7.55c-0.83,0.23-2.5,0.681-3.33,0.9c-0.459-0.43-1.4-1.3-1.869-1.73c-0.131,2.261,1.39,3.871,2.569,5.61
	c0.22,0.591,0.67,1.75,0.899,2.341c-2.25,0.09-4.52,0.109-6.699,0.699c-0.391-0.39-1.18-1.189-1.58-1.58
	c-1.97-0.01-3.94-0.01-5.91-0.01c-0.32,1.359,0.48,3.24-0.77,4.24c-1.83,2.22-4.86,1.729-7.4,1.82c-0.09,2.399,0.24,4.76,1.31,6.939
	c1.58,0,3.17,0,4.75,0c0.03-2.03-0.1-4.08,0.17-6.09c0.22-1.25,1.55-0.01,2.26-0.09c-0.47,2.699-0.46,5.449-0.43,8.18
	c-1.99,0-3.99,0-5.98,0v1c2.83,0.141,5.82-0.49,8.52,0.609c1.91,0.48,3.46,1.701,5.089,2.75c3.48,4.721,7.431,9.141,10.4,14.25
	c-0.02-2.81-0.43-5.779,1.25-8.239c0.24-0.5,0.74-1.49,0.98-1.99c4.01-6.75,8.92-13.17,15.34-17.79
	c9.9-8.56,20.41-16.57,31.75-23.14c-1.41-1.08-3.07-1.63-4.75-2.07c-1.65-1.06-3.24-2.21-4.98-3.11
	c-1.699-0.939-3.25-2.119-5.01-2.949c-3.52-2.37-6.609-5.351-10.109-7.78C141.52,163.05,140.02,172.73,136.221,169z"/>
<path fill="#FFFFFF" d="M104.45,16.94c3.5-3.2,7.53-6.49,12.45-6.87c13.49-0.29,27.82-0.72,40.119,5.77
	c4.291,2.1,7.34,5.93,9.57,10.04c-10.41,7.67-19.51,16.91-28.71,25.95c-7.29-0.13-14.59-0.05-21.88-0.44
	c-6.66-0.35-13.56,0.02-19.91-2.37c-1.4-0.39-1.93-1.85-2.67-2.93c2.64-0.11,5.29-0.09,7.94-0.09c1.02-1.39,2.25-2.61,3.64-3.64
	c-0.38-2.69,0.87-5.73-0.28-8.19c-2.51-1.5-5.58-1.57-8.26-2.69c1.28-3.86,2.86-7.66,5.27-10.96c1.8,0.65,4.19,3.93,5.9,1.57
	C106.88,20.2,105.61,18.59,104.45,16.94 M111.01,27.43c3.9,2.37,8.721,0.89,13.02,1.3c6.221-0.52,11.441,3.22,16.99,5.31
	c1.16,0.32,2.621,1.2,3.66,0.08c-0.76-2.7-3.789-3.57-5.959-4.87C130.311,24.77,119.859,23.61,111.01,27.43 M116.57,35.36
	c0.26,2.75,0.33,5.5,0.55,8.25c1.489,1.83,3.53,3.05,5.43,4.39c1.97-0.03,4.03,0.2,5.91-0.53c4.431-0.89,5.58-5.67,3.99-9.42
	l1.479-0.82C128.37,35.5,122.37,35.03,116.57,35.36z"/>
<path d="M111.01,27.43c8.85-3.82,19.301-2.66,27.711,1.82c2.17,1.3,5.199,2.17,5.959,4.87c-1.039,1.12-2.5,0.24-3.66-0.08
	c-5.549-2.09-10.77-5.83-16.99-5.31C119.73,28.32,114.91,29.8,111.01,27.43z"/>
<path fill="#FFFFFF" d="M164.279,32.18c1.351-0.85,2.631-2.43,4.4-2.02c2.311,7.23,2.131,15.21-0.32,22.4
	c-1.92,6.58-7.569,11.14-13.02,14.83c-0.6,1.03-1.02,2.44-2.35,2.75c-1.5-1.46-3.301-2.41-5.43-2.38
	c-2.261-1.8-4.871-0.21-7.011,0.88c-1.42,0.87-2.739,1.89-4.11,2.82c-4.18,1.81-8.449-0.29-12.459-1.52
	c-5.891-2.03-11.881-3.86-17.55-6.47c-4.25-2.79-8.02-6.38-10.99-10.52c5.3,0.98,10.72,1.2,15.93,2.6
	c4.38,1.13,6.76,5.54,10.84,7.22c4.56,1.09,9.569,0.95,14-0.57c3.47-1.17,2.75-5.55,5.021-7.81
	C148.25,46.34,155.98,38.9,164.279,32.18z"/>
<path d="M116.57,35.36c5.8-0.33,11.8,0.14,17.359,1.87l-1.479,0.82c1.59,3.75,0.44,8.53-3.99,9.42c-1.88,0.73-3.94,0.5-5.91,0.53
	c-1.899-1.34-3.94-2.56-5.43-4.39C116.9,40.86,116.83,38.11,116.57,35.36 M126.9,43.03c-2.43-0.09-5.08,0.439-7.15-1.18
	c-0.37,2.72,1.7,4.17,3.83,5.23c1.33-0.12,2.689-0.18,3.949-0.64c1.49-0.27,2.781-1.01,3.721-2.2c2.109-1.94,0.26-5.78-2.21-6.31
	C126.54,38.29,127.029,41.22,126.9,43.03z"/>
<path fill="#FFFFFF" d="M100.12,35.83c1.29,0.27,2.58,0.57,3.87,0.86c0.01,1.58,0.01,3.16,0.02,4.74c-1.18,1.21-2.38,2.41-3.58,3.6
	c-2.58-0.23-5.76,0.76-7.7-1.51c1.92-0.97,3.7-2.21,5.78-2.85C100.73,40.15,99.76,37.42,100.12,35.83z"/>
<path fill="#FFFFFF" d="M126.9,43.03c0.129-1.811-0.36-4.74,2.14-5.1c2.47,0.53,4.319,4.37,2.21,6.31
	c-0.939,1.19-2.23,1.93-3.721,2.2c-1.26,0.46-2.619,0.52-3.949,0.64c-2.13-1.06-4.2-2.51-3.83-5.23
	C121.82,43.47,124.471,42.94,126.9,43.03z"/>
<path fill="#FFFFFF" d="M86.09,52.22c1.84-0.57,3.79-0.29,5.67-0.11c-0.09,1.26,1.1,3.35-0.87,3.5c-1.75-0.11-3.59-0.65-4.82-1.97
	C85.25,53.15,85.26,52.68,86.09,52.22z"/>
<path fill="#FFFFFF" d="M118.21,55.21c6.08-0.43,12.19-0.38,18.28-0.05c-0.16,4.13-4.92,5.36-8.311,5.32
	C124.439,59.92,120.33,58.59,118.21,55.21z"/>
<path fill="#FFFFFF" d="M172.061,74.09c2.299,4.06,4.75,8.06,6.56,12.38c3.92,8.67,5.5,18.13,8.72,27.05
	c0.811,2.7,2.2,5.44,1.471,8.33c-3.291-0.13-6.44-1.34-9.641-2.02c-2.47-0.75-5.46-0.939-7.09-3.22
	c-0.391-7.84,0.43-15.74-0.551-23.55C171.58,86.74,171.8,80.41,172.061,74.09z"/>
<path fill="#FFFFFF" d="M164.391,82.08c1.199-0.1,2.399-0.16,3.609-0.16c0.09,4.73-0.24,9.48,0.25,14.2
	c0.279,1.46-0.029,2.91-0.37,4.33c-1.93,3.59-0.36,8-0.95,11.93c-1.47,1.6-0.779,3.84-0.939,5.771
	c-4.74-3.24-10.48-4.17-15.99-5.271c-10.26-1.87-20.57-4.28-31.05-3.88c1.13-0.61,2.271-1.22,3.409-1.81
	c4.16-1.23,8.15-2.95,12-4.92c3.091-1.52,6.121-3.15,9.021-5.01c5.81-2.96,11.07-6.84,16.49-10.43
	C161.779,85.67,163.07,83.82,164.391,82.08z"/>
<path fill="#FFFFFF" d="M67.46,121.1c1.6-0.5,3.05,0.75,4.54,1.15l0.01,0.75c-1.53,0-3.05,0-4.58,0c-0.35,0.67-1.06,2.03-1.42,2.7
	c0.98,0.77,1.99,1.51,3.02,2.229c0.48-0.449,1.44-1.35,1.93-1.8c3.27-0.16,6.66-0.54,9.48,1.521c1.38,0.88,2.72,1.819,4.15,2.63
	c1.98,1.069,3.84,2.36,5.81,3.45c1.69,0.939,3.26,2.109,5.01,2.959c2.06,0.91,3.48,2.711,5,4.301c-3.47,0.029-6.94,0-10.4,0.01
	c-0.03,2-0.1,4-0.02,6l-0.81,0.04c0.67-1.851-1.15-2.851-2.01-4.149c-0.37-1.791-1.81-2.99-3.22-4c0.23,1.51,1.38,2.52,2.42,3.51
	c-0.38,1.64-0.12,3.479-0.98,4.99c-1.55,0.819-3.4,0.629-5.07,1.049c-0.39-0.43-1.16-1.31-1.55-1.739
	c-0.15-1.16-0.66-2.19-1.17-3.22c0.05,3,0.96,6.1-0.11,9.01c-0.84,1.83-2.44,2.89-4.49,2.699c0,0.451,0,1.36-0.01,1.811
	c-1.66,0-3.33,0-4.99,0c0,0.75,0,2.26,0,3.01c-2.7-0.07-5.49,0.32-8.09-0.619c1.23,2.049,2.74,3.909,4.43,5.6
	C63.51,165,61.84,165,61,165c0,2.77,0.01,5.54-0.04,8.32c-0.59-0.25-1.78-0.74-2.37-0.99c-0.5-0.25-1.49-0.76-1.99-1.01
	c-2.79-1.03-4.83-3.721-8.01-3.561c0.09,0.69,0.29,2.07,0.39,2.76c-1.52,3.2-6.99-0.5-7.38,3.871l2.22-1.521
	c-1.68,4.29-0.43,9.08-0.84,13.59c-2.43-2.11-3.79-5.12-6.2-7.24c-4.77-4.68-10.25-8.78-16.38-11.5c-2.26-1.17-4.56-2.27-6.8-3.47
	c-1.2-0.53-2.38-1.1-3.6-1.57l-0.02-0.66c0.6-0.039,1.8-0.1,2.4-0.14c1.82-1.239,4.16-0.7,6.15-1.47c1.68-0.6,3.31-1.301,4.89-2.1
	c1.07-0.541,2.12-1.091,3.19-1.621c0.5-0.229,1.51-0.689,2.01-0.92c7.55-4.76,14.82-10.209,20.8-16.859l1.67,2.04l-1.37-3.33
	l2.57,1.43l-1.48-1.75C58.03,133.77,61.42,126.02,67.46,121.1z"/>
<path fill="#FFFFFF" d="M77.18,155.18h0.64v0.631h-0.64V155.18z"/>
<path d="M105.25,155H106c0,1.99,0,3.98,0,5.98c-0.8,0.01-2.4,0.039-3.2,0.05c0.51-0.89,1.07-1.761,1.68-2.591
	C104.7,157.29,104.96,156.141,105.25,155z"/>
<path fill="#FFFFFF" d="M136.221,169c3.799,3.73,5.299-5.95,9.26-3.46c3.5,2.43,6.59,5.41,10.109,7.78
	c1.76,0.83,3.311,2.01,5.01,2.949c1.74,0.9,3.33,2.051,4.98,3.11c1.68,0.44,3.34,0.99,4.75,2.07
	c-11.34,6.569-21.85,14.58-31.75,23.14c-6.42,4.62-11.33,11.04-15.34,17.79c-0.24,0.5-0.74,1.49-0.98,1.99
	c-1.68,2.46-1.27,5.43-1.25,8.239c-2.97-5.109-6.92-9.529-10.4-14.25c-1.629-1.049-3.179-2.27-5.089-2.75
	c-2.7-1.1-5.69-0.469-8.52-0.609v-1c1.99,0,3.99,0,5.98,0c-0.03-2.73-0.04-5.48,0.43-8.18c-0.71,0.08-2.04-1.16-2.26,0.09
	c-0.27,2.01-0.14,4.06-0.17,6.09c-1.58,0-3.17,0-4.75,0c-1.07-2.18-1.4-4.54-1.31-6.939c2.54-0.091,5.57,0.399,7.4-1.82
	c1.25-1,0.45-2.881,0.77-4.24c1.97,0,3.94,0,5.91,0.01c0.4,0.391,1.189,1.19,1.58,1.58c2.18-0.59,4.449-0.609,6.699-0.699
	c-0.229-0.591-0.68-1.75-0.899-2.341c-1.18-1.739-2.7-3.35-2.569-5.61c0.469,0.431,1.41,1.301,1.869,1.73
	c0.83-0.22,2.5-0.67,3.33-0.9c-0.01-2.51-0.01-5.029-0.01-7.55c1-0.25,2-0.52,2.99-0.8l0.05,0.85c0.87,0.16,1.66,0.5,2.38,1.021
	c1.85-0.21,3.71-0.351,5.58-0.351c0.01-1.899-0.1-3.81,0.1-5.699c0.91-1.71,2.2-3.17,3.24-4.79c0.471-0.96,0.95-1.9,1.439-2.851
	C135.25,171.4,135.74,170.2,136.221,169z"/>
<path d="M119.58,168.51c0.561-1.05,1.279-1.99,2.029-2.89c0.061,0.83,0.181,2.479,0.24,3.31c-1.029,0.811-2.05,1.641-3.07,2.48
	C118.98,170.68,119.38,169.23,119.58,168.51z"/>
<path d="M84.04,171.67c-0.34-1.43,0.2-1.97,1.63-1.63C85.93,171.391,85.39,171.93,84.04,171.67z"/>
<path d="M102.2,171.73c0.29,0.25,0.85,0.729,1.13,0.979c1.43,0.91,4.13,1.149,4.44,3.05c-1.56,1.78-3.84,2.881-6.16,3.271
	c0.95-1.63,2.9-1.99,4.16-3.261c0.31-1.26-1.68-1.27-2.37-1.899c-0.65,1.39-1.55,2.649-2.6,3.771
	C101.02,175.6,102.22,173.82,102.2,171.73z"/>
<path d="M51.84,179.77c2.11,1.42,3.97,3.28,5.39,5.391C54.76,184.42,52.58,182.23,51.84,179.77z"/>
<path d="M73.79,181.891c0.56,0.029,1.66,0.109,2.21,0.14c0,1.659,0,3.319,0,4.989c-1.48-0.02-2.95-0.05-4.42-0.1
	c0.7-1.32,1.12-3.05,2.5-3.84c-0.09,0.72-0.27,2.17-0.35,2.89C76.08,185.93,74.95,182.76,73.79,181.891z"/>
<path fill="#FFFFFF" d="M73.79,181.891c1.16,0.869,2.29,4.039-0.06,4.079c0.08-0.72,0.26-2.17,0.35-2.89L73.79,181.891z"/>
<path d="M88.96,186.98l0.72,0.02c0.25,0.6,0.73,1.811,0.97,2.41c0.75,1.46,1.55,2.89,2.36,4.32c-1,0.439-1.99,0.869-2.99,1.3
	c-0.09-1.591,0.29-3.351-0.92-4.65C89.04,189.25,88.99,188.109,88.96,186.98z"/>
</svg>
