<?xml version="1.0" encoding="UTF-8" ?>
<!DOCTYPE svg PUBLIC "-//W3C//DTD SVG 1.1//EN" "http://www.w3.org/Graphics/SVG/1.1/DTD/svg11.dtd">
<svg width="139pt" height="130pt" viewBox="0 0 139 130" version="1.1" xmlns="http://www.w3.org/2000/svg">
<path fill="#ffffff" opacity="1.00" d=" M 0.00 0.00 L 139.00 0.00 L 139.00 130.00 L 0.00 130.00 L 0.00 0.00 M 59.10 2.73 C 58.14 2.98 58.31 4.00 58.25 4.76 C 77.34 1.63 98.08 4.52 114.15 15.80 C 117.22 17.60 120.05 19.75 122.48 22.35 C 124.46 26.04 126.90 29.51 128.44 33.43 C 130.01 37.23 130.56 41.36 132.10 45.18 C 132.20 46.89 132.25 48.60 132.26 50.32 C 131.89 48.20 131.67 46.06 131.38 43.93 C 129.48 40.26 128.27 36.28 126.44 32.58 C 124.13 27.84 120.69 23.77 117.07 19.99 C 111.65 14.54 104.51 11.28 97.36 8.75 C 96.62 9.12 95.89 9.50 95.17 9.88 C 98.77 10.39 102.07 12.07 105.03 14.12 C 106.74 15.16 108.49 16.11 110.21 17.14 C 108.77 16.53 107.36 15.88 105.95 15.21 C 105.48 15.78 105.02 16.34 104.55 16.91 C 107.18 18.11 109.35 20.04 111.45 21.99 C 108.60 20.27 105.80 18.48 103.17 16.43 C 102.53 16.91 101.89 17.38 101.26 17.85 L 103.62 19.47 C 94.82 14.88 85.29 10.96 75.24 10.90 C 83.53 13.08 92.07 15.07 99.57 19.40 C 102.30 20.94 104.58 23.44 107.86 23.81 C 107.69 24.54 107.71 26.35 106.48 25.56 C 103.66 21.92 99.18 20.35 95.12 18.50 C 88.79 15.64 81.89 14.24 75.01 13.50 C 78.38 14.56 81.68 15.84 84.96 17.17 C 87.17 18.30 89.37 19.46 91.53 20.71 C 89.98 20.60 88.44 20.46 86.90 20.28 C 84.02 19.09 81.01 18.29 78.00 17.51 C 79.15 18.38 80.30 19.24 81.45 20.11 C 78.25 19.29 75.14 18.08 71.81 17.83 C 73.88 18.83 75.94 19.83 78.00 20.85 C 82.29 23.52 86.72 25.98 91.40 27.90 C 87.44 27.06 83.97 24.86 80.15 23.64 C 75.84 22.24 71.57 20.69 67.51 18.65 C 67.53 18.74 67.55 18.92 67.56 19.01 C 73.71 23.28 80.30 26.92 86.99 30.27 C 89.43 30.41 91.63 31.46 93.74 32.62 C 92.05 32.43 89.99 32.97 88.62 31.74 C 79.08 29.08 69.84 25.40 60.97 21.02 C 63.80 24.01 67.03 26.55 70.24 29.09 C 67.90 28.42 65.75 27.24 63.58 26.17 C 63.34 25.74 62.88 24.90 62.64 24.48 C 62.48 24.81 62.15 25.49 61.99 25.83 L 61.55 26.58 L 56.09 22.76 L 62.33 29.39 C 57.76 26.64 53.37 23.36 50.11 19.09 C 49.86 19.58 49.36 20.57 49.11 21.06 C 48.80 20.56 48.18 19.56 47.87 19.07 C 46.81 21.82 45.09 24.23 43.53 26.70 C 43.50 25.54 43.44 23.21 43.41 22.05 C 43.15 22.90 42.62 24.61 42.36 25.47 L 41.23 25.33 L 41.77 26.68 C 41.02 26.54 39.52 26.26 38.77 26.12 C 40.63 24.34 42.66 22.62 43.67 20.17 C 37.55 22.47 32.71 27.09 28.30 31.75 C 28.11 31.22 27.73 30.16 27.54 29.63 C 26.39 30.88 25.17 32.07 23.89 33.19 C 26.69 27.20 31.82 22.65 37.06 18.80 C 30.78 21.05 26.87 26.73 22.65 31.54 C 19.26 35.34 16.29 39.51 13.94 44.04 C 13.59 44.59 12.91 45.70 12.56 46.26 C 12.29 48.12 11.98 49.98 11.56 51.81 C 10.96 46.40 13.74 41.59 15.74 36.78 C 17.36 33.24 19.65 30.09 21.70 26.80 C 18.99 29.53 16.61 32.55 14.01 35.38 C 15.36 32.91 16.87 30.51 17.81 27.84 C 20.03 23.78 23.21 20.32 27.04 17.74 C 26.27 19.31 25.50 20.88 24.74 22.46 C 26.09 21.54 27.45 20.62 28.81 19.70 C 30.45 19.12 32.08 18.47 33.74 17.94 C 33.19 17.48 32.64 17.01 32.10 16.54 C 33.47 15.18 35.25 14.42 37.19 14.63 C 36.48 14.83 35.05 15.22 34.34 15.42 C 34.34 15.77 34.34 16.47 34.33 16.81 C 34.81 16.93 35.76 17.16 36.23 17.27 C 37.84 16.54 39.53 16.06 41.29 15.83 C 39.75 16.89 36.68 19.00 35.14 20.06 C 38.49 18.78 41.63 17.06 44.89 15.57 C 43.64 15.59 41.16 15.62 39.92 15.63 C 40.70 15.22 42.27 14.39 43.06 13.98 C 41.01 13.44 38.95 12.92 36.90 12.36 C 37.67 12.37 39.19 12.40 39.96 12.41 C 45.38 8.55 51.60 5.84 58.23 4.91 C 57.00 4.25 55.71 3.66 54.30 3.53 C 49.16 4.70 44.46 7.41 40.24 10.50 C 37.22 10.28 33.97 9.43 31.08 10.77 C 24.37 14.10 18.17 18.70 13.95 24.99 C 10.26 30.61 4.40 35.75 4.18 42.90 L 3.40 42.21 C 3.42 42.87 3.47 44.19 3.49 44.86 L 5.33 43.82 C 1.76 50.25 0.90 58.04 2.24 65.23 C 2.98 60.14 3.53 55.02 4.39 49.95 C 5.08 55.37 3.51 60.67 3.42 66.06 C 3.23 73.95 2.92 82.36 6.74 89.54 C 6.68 86.38 6.04 83.27 5.35 80.20 L 6.36 80.72 C 6.49 79.15 6.75 76.03 6.88 74.46 C 7.19 75.87 7.82 78.69 8.13 80.10 C 8.38 81.70 8.41 83.37 8.97 84.91 C 10.95 90.13 11.80 95.68 13.65 100.94 C 14.03 100.18 14.79 98.66 15.17 97.90 C 16.14 105.51 17.34 113.12 19.05 120.60 C 19.90 112.56 18.01 104.51 17.37 96.50 C 21.19 100.80 20.21 106.72 21.06 111.97 C 21.36 116.76 21.04 121.58 21.40 126.38 C 23.16 119.77 22.88 112.91 22.57 106.14 C 22.77 106.16 23.16 106.19 23.36 106.20 C 25.88 111.31 24.87 117.17 26.69 122.47 C 26.71 119.32 26.59 116.18 26.36 113.04 L 27.87 113.88 L 27.32 110.88 C 27.98 111.72 29.32 113.40 29.98 114.23 C 27.96 110.15 27.15 105.59 25.52 101.39 C 25.84 101.32 26.49 101.17 26.81 101.10 C 26.84 97.88 25.45 94.97 24.38 92.03 C 26.08 95.49 27.97 99.10 27.42 103.11 L 28.05 102.45 C 30.77 110.07 32.67 117.98 35.80 125.46 C 35.68 119.70 33.77 114.17 33.38 108.44 C 33.96 109.62 34.49 110.83 35.03 112.03 C 36.67 116.48 37.32 121.24 39.19 125.61 C 38.56 111.83 31.08 99.69 28.42 86.35 C 28.02 82.21 26.87 78.16 26.85 73.98 C 26.86 67.10 25.56 60.30 26.00 53.41 C 29.07 49.78 30.64 44.97 34.37 41.97 L 34.43 41.40 L 35.99 41.97 L 35.39 40.99 C 37.93 40.79 39.46 38.71 40.96 36.91 C 44.06 32.64 47.06 28.22 48.90 23.24 C 52.21 27.94 57.19 30.96 61.74 34.31 C 66.66 36.40 70.93 40.45 76.62 40.16 C 74.72 39.36 72.82 38.54 70.94 37.70 C 75.30 38.28 79.50 40.21 84.00 39.52 C 80.82 38.35 77.63 37.28 74.40 36.26 C 80.04 36.25 85.30 38.94 90.96 38.62 C 94.42 38.33 97.79 39.14 101.10 40.05 C 102.51 40.35 103.94 40.59 105.37 40.82 C 108.05 42.39 111.24 43.38 113.26 45.86 C 115.18 48.09 117.19 50.25 118.90 52.66 L 119.73 52.21 L 119.88 54.54 C 121.78 51.71 119.11 48.55 118.48 45.73 C 120.80 50.45 125.77 54.38 125.18 60.09 C 124.21 64.76 120.76 68.61 120.77 73.57 C 118.47 83.07 119.56 93.04 117.17 102.54 C 117.65 102.88 118.61 103.56 119.09 103.91 C 119.04 108.22 119.96 112.45 121.35 116.52 C 121.36 114.34 121.34 112.17 121.28 110.00 C 121.84 110.24 122.96 110.74 123.52 110.99 C 123.49 110.02 123.42 108.07 123.39 107.10 L 124.71 108.13 C 124.46 104.64 124.36 101.14 124.59 97.65 C 126.36 103.66 128.15 109.70 130.64 115.46 C 130.41 111.21 129.31 107.07 128.78 102.86 C 129.50 101.30 130.75 99.83 130.35 97.98 C 129.83 91.65 129.05 85.24 129.80 78.90 C 130.92 74.71 132.02 70.51 132.65 66.22 L 133.24 66.59 C 133.86 64.56 134.59 62.56 134.94 60.45 L 135.33 60.71 C 135.65 58.81 136.17 56.94 136.37 55.02 C 135.73 45.86 132.59 36.95 128.03 29.03 C 124.40 24.71 122.17 19.16 117.42 15.86 C 113.46 12.73 109.38 9.48 104.44 8.07 L 104.61 7.79 C 98.56 6.01 92.59 3.95 86.37 2.80 C 77.31 1.64 68.17 1.47 59.10 2.73 M 86.38 7.33 C 88.82 8.01 91.35 8.30 93.75 9.12 C 94.45 8.79 95.15 8.44 95.84 8.08 C 92.70 7.67 89.56 7.08 86.38 7.33 M 79.42 8.38 C 84.91 9.34 90.42 10.37 95.53 12.69 L 95.53 13.59 C 96.25 13.55 97.70 13.47 98.42 13.43 L 98.52 16.60 C 98.92 15.88 99.72 14.44 100.12 13.72 L 100.82 15.85 C 101.86 15.28 102.90 14.70 103.93 14.11 C 95.93 11.64 88.06 7.44 79.42 8.38 M 99.47 15.47 C 99.78 15.78 99.78 15.78 99.47 15.47 Z" />
<path fill="#040404" opacity="1.00" d=" M 59.10 2.73 C 68.17 1.47 77.31 1.64 86.37 2.80 C 92.59 3.95 98.56 6.01 104.61 7.79 L 104.44 8.07 C 109.38 9.48 113.46 12.73 117.42 15.86 C 122.17 19.16 124.40 24.71 128.03 29.03 C 132.59 36.95 135.73 45.86 136.37 55.02 C 136.17 56.94 135.65 58.81 135.33 60.71 L 134.94 60.45 C 134.59 62.56 133.86 64.56 133.24 66.59 L 132.65 66.22 C 132.02 70.51 130.92 74.71 129.80 78.90 C 129.05 85.24 129.83 91.65 130.35 97.98 C 130.75 99.83 129.50 101.30 128.78 102.86 C 129.31 107.07 130.41 111.21 130.64 115.46 C 128.15 109.70 126.36 103.66 124.59 97.65 C 124.36 101.14 124.46 104.64 124.71 108.13 L 123.39 107.10 C 123.42 108.07 123.49 110.02 123.52 110.99 C 122.96 110.74 121.84 110.24 121.28 110.00 C 121.34 112.17 121.36 114.34 121.35 116.52 C 119.96 112.45 119.04 108.22 119.09 103.91 C 118.61 103.56 117.65 102.88 117.17 102.54 C 119.56 93.04 118.47 83.07 120.77 73.57 C 120.76 68.61 124.21 64.76 125.18 60.09 C 125.77 54.38 120.80 50.45 118.48 45.73 C 119.11 48.55 121.78 51.71 119.88 54.54 L 119.73 52.21 L 118.90 52.66 C 117.19 50.25 115.18 48.09 113.26 45.86 C 111.24 43.38 108.05 42.39 105.37 40.82 C 103.94 40.59 102.51 40.35 101.10 40.05 C 97.79 39.14 94.42 38.33 90.96 38.62 C 85.30 38.94 80.04 36.25 74.40 36.26 C 77.63 37.28 80.82 38.35 84.00 39.52 C 79.50 40.21 75.30 38.28 70.94 37.70 C 72.82 38.54 74.72 39.36 76.62 40.16 C 70.93 40.45 66.66 36.40 61.74 34.31 C 57.19 30.96 52.21 27.94 48.90 23.24 C 47.06 28.22 44.06 32.64 40.96 36.91 C 39.46 38.71 37.93 40.79 35.39 40.99 L 35.99 41.97 L 34.43 41.40 L 34.37 41.97 C 30.64 44.97 29.07 49.78 26.00 53.41 C 25.56 60.30 26.86 67.10 26.85 73.98 C 26.87 78.16 28.02 82.21 28.42 86.35 C 31.08 99.69 38.56 111.83 39.19 125.61 C 37.32 121.24 36.67 116.48 35.03 112.03 C 34.49 110.83 33.96 109.62 33.38 108.44 C 33.77 114.17 35.68 119.70 35.80 125.46 C 32.67 117.98 30.77 110.07 28.05 102.45 L 27.42 103.11 C 27.97 99.10 26.08 95.49 24.38 92.03 C 25.45 94.97 26.84 97.88 26.81 101.10 C 26.49 101.17 25.84 101.32 25.52 101.39 C 27.15 105.59 27.96 110.15 29.98 114.23 C 29.32 113.40 27.98 111.72 27.32 110.88 L 27.87 113.88 L 26.36 113.04 C 26.59 116.18 26.71 119.32 26.69 122.47 C 24.87 117.17 25.88 111.31 23.36 106.20 C 23.16 106.19 22.77 106.16 22.57 106.14 C 22.88 112.91 23.16 119.77 21.40 126.38 C 21.04 121.58 21.36 116.76 21.06 111.97 C 20.21 106.72 21.19 100.80 17.37 96.50 C 18.01 104.51 19.90 112.56 19.05 120.60 C 17.34 113.12 16.14 105.51 15.17 97.90 C 14.79 98.66 14.03 100.18 13.65 100.94 C 11.80 95.68 10.95 90.13 8.97 84.91 C 8.41 83.37 8.38 81.70 8.13 80.10 C 7.82 78.69 7.19 75.87 6.88 74.46 C 6.75 76.03 6.49 79.15 6.36 80.72 L 5.35 80.20 C 6.04 83.27 6.68 86.38 6.74 89.54 C 2.92 82.36 3.23 73.95 3.42 66.06 C 3.51 60.67 5.08 55.37 4.39 49.95 C 3.53 55.02 2.98 60.14 2.24 65.23 C 0.90 58.04 1.76 50.25 5.33 43.82 L 3.49 44.86 C 3.47 44.19 3.42 42.87 3.40 42.21 L 4.18 42.90 C 4.40 35.75 10.26 30.61 13.95 24.99 C 18.17 18.70 24.37 14.10 31.08 10.77 C 33.97 9.43 37.22 10.28 40.24 10.50 C 44.46 7.41 49.16 4.70 54.30 3.53 C 55.71 3.66 57.00 4.25 58.23 4.91 C 51.60 5.84 45.38 8.55 39.96 12.41 C 39.19 12.40 37.67 12.37 36.90 12.36 C 38.95 12.92 41.01 13.44 43.06 13.98 C 42.27 14.39 40.70 15.22 39.92 15.63 C 41.16 15.62 43.64 15.59 44.89 15.57 C 41.63 17.06 38.49 18.78 35.14 20.06 C 36.68 19.00 39.75 16.89 41.29 15.83 C 39.53 16.06 37.84 16.54 36.23 17.27 C 35.76 17.16 34.81 16.93 34.33 16.81 C 34.34 16.47 34.34 15.77 34.34 15.42 C 35.05 15.22 36.48 14.83 37.19 14.63 C 35.25 14.42 33.47 15.18 32.10 16.54 C 32.64 17.01 33.19 17.48 33.74 17.94 C 32.08 18.47 30.45 19.12 28.81 19.70 C 27.45 20.62 26.09 21.54 24.74 22.46 C 25.50 20.88 26.27 19.31 27.04 17.74 C 23.21 20.32 20.03 23.78 17.81 27.84 C 16.87 30.51 15.36 32.91 14.01 35.38 C 16.61 32.55 18.99 29.53 21.70 26.80 C 19.65 30.09 17.36 33.24 15.74 36.78 C 13.74 41.59 10.96 46.40 11.56 51.81 C 11.98 49.98 12.29 48.12 12.56 46.26 C 12.91 45.70 13.59 44.59 13.94 44.04 C 16.29 39.51 19.26 35.34 22.65 31.54 C 26.87 26.73 30.78 21.05 37.06 18.80 C 31.82 22.65 26.69 27.20 23.89 33.19 C 25.17 32.07 26.39 30.88 27.54 29.63 C 27.73 30.16 28.11 31.22 28.30 31.75 C 32.71 27.09 37.55 22.47 43.67 20.17 C 42.66 22.62 40.63 24.34 38.77 26.12 C 39.52 26.26 41.02 26.54 41.77 26.68 L 41.23 25.33 L 42.36 25.47 C 42.62 24.61 43.15 22.90 43.41 22.05 C 43.44 23.21 43.50 25.54 43.53 26.70 C 45.09 24.23 46.81 21.82 47.87 19.07 C 48.18 19.56 48.80 20.56 49.11 21.06 C 49.36 20.57 49.86 19.58 50.11 19.09 C 53.37 23.36 57.76 26.64 62.33 29.39 L 56.09 22.76 L 61.55 26.58 L 61.99 25.83 C 62.15 25.49 62.48 24.81 62.64 24.48 C 62.88 24.90 63.34 25.74 63.58 26.17 C 65.75 27.24 67.90 28.42 70.24 29.09 C 67.03 26.55 63.80 24.01 60.97 21.02 C 69.84 25.40 79.08 29.08 88.62 31.74 C 89.99 32.97 92.05 32.43 93.74 32.62 C 91.63 31.46 89.43 30.41 86.99 30.27 C 80.30 26.92 73.71 23.28 67.56 19.01 C 67.55 18.92 67.53 18.74 67.51 18.65 C 71.57 20.69 75.84 22.24 80.15 23.64 C 83.97 24.86 87.44 27.06 91.40 27.90 C 86.72 25.98 82.29 23.52 78.00 20.85 C 75.94 19.83 73.88 18.83 71.81 17.83 C 75.14 18.08 78.25 19.29 81.45 20.11 C 80.30 19.24 79.15 18.38 78.00 17.51 C 81.01 18.29 84.02 19.09 86.90 20.28 C 88.44 20.46 89.98 20.60 91.53 20.71 C 89.37 19.46 87.17 18.30 84.96 17.17 C 81.68 15.84 78.38 14.56 75.01 13.50 C 81.89 14.24 88.79 15.64 95.12 18.50 C 99.18 20.35 103.66 21.92 106.48 25.56 C 107.71 26.35 107.69 24.54 107.86 23.81 C 104.58 23.44 102.30 20.94 99.57 19.40 C 92.07 15.07 83.53 13.08 75.24 10.90 C 85.29 10.96 94.82 14.88 103.62 19.47 L 101.26 17.85 C 101.89 17.38 102.53 16.91 103.17 16.43 C 105.80 18.48 108.60 20.27 111.45 21.99 C 109.35 20.04 107.18 18.11 104.55 16.91 C 105.02 16.34 105.48 15.78 105.95 15.21 C 107.36 15.88 108.77 16.53 110.21 17.14 C 108.49 16.11 106.74 15.16 105.03 14.12 C 102.07 12.07 98.77 10.39 95.17 9.88 C 95.89 9.50 96.62 9.12 97.36 8.75 C 104.51 11.28 111.65 14.54 117.07 19.99 C 120.69 23.77 124.13 27.84 126.44 32.58 C 128.27 36.28 129.48 40.26 131.38 43.93 C 131.67 46.06 131.89 48.20 132.26 50.32 C 132.25 48.60 132.20 46.89 132.10 45.18 C 130.56 41.36 130.01 37.23 128.44 33.43 C 126.90 29.51 124.46 26.04 122.48 22.35 C 120.05 19.75 117.22 17.60 114.15 15.80 C 98.08 4.52 77.34 1.63 58.25 4.76 C 58.31 4.00 58.14 2.98 59.10 2.73 M 50.28 22.22 C 50.83 22.83 50.83 22.83 50.28 22.22 M 63.29 27.15 C 63.85 27.83 63.85 27.83 63.29 27.15 Z" />
<path fill="#040404" opacity="1.00" d=" M 86.38 7.33 C 89.56 7.08 92.70 7.67 95.84 8.08 C 95.15 8.44 94.45 8.79 93.75 9.12 C 91.35 8.30 88.82 8.01 86.38 7.33 Z" />
<path fill="#040404" opacity="1.00" d=" M 79.42 8.38 C 88.06 7.44 95.93 11.64 103.93 14.11 C 102.90 14.70 101.86 15.28 100.82 15.85 L 100.12 13.72 C 99.72 14.44 98.92 15.88 98.52 16.60 L 98.42 13.43 C 97.70 13.47 96.25 13.55 95.53 13.59 L 95.53 12.69 C 90.42 10.37 84.91 9.34 79.42 8.38 Z" />
<path fill="#040404" opacity="1.00" d=" M 99.47 15.47 C 99.78 15.78 99.78 15.78 99.47 15.47 Z" />
<path fill="#ffffff" opacity="1.00" d=" M 50.28 22.22 C 50.83 22.83 50.83 22.83 50.28 22.22 Z" />
<path fill="#ffffff" opacity="1.00" d=" M 63.29 27.15 C 63.85 27.83 63.85 27.83 63.29 27.15 Z" />
</svg>
