<?xml version="1.0" encoding="UTF-8" ?>
<!DOCTYPE svg PUBLIC "-//W3C//DTD SVG 1.1//EN" "http://www.w3.org/Graphics/SVG/1.1/DTD/svg11.dtd">
<svg width="232pt" height="220pt" viewBox="0 0 232 220" version="1.1" xmlns="http://www.w3.org/2000/svg">
<path fill="#ffffff" opacity="1.00" d=" M 0.00 0.00 L 71.45 0.00 C 71.36 0.81 71.26 1.62 71.17 2.44 C 69.33 0.45 66.40 1.19 63.99 0.90 C 64.88 2.19 65.90 3.44 66.40 4.96 C 62.01 8.62 56.73 10.96 51.84 13.84 C 45.96 15.74 42.06 20.69 37.19 24.18 C 34.07 26.33 32.09 29.64 29.66 32.47 C 31.30 33.12 32.94 33.78 34.57 34.45 C 31.56 40.30 25.52 43.95 22.76 50.05 C 22.03 51.20 21.35 52.37 20.72 53.57 C 15.28 60.29 10.58 67.76 8.40 76.19 C 8.67 80.52 9.01 85.03 10.92 89.01 C 12.66 92.33 12.14 96.17 12.46 99.76 C 12.91 104.79 12.44 109.84 12.00 114.85 C 9.85 122.77 2.30 127.72 0.00 135.53 L 0.00 0.00 Z" />
<path fill="#0b0403" opacity="1.00" d=" M 71.45 0.00 L 73.04 0.00 C 77.06 1.91 81.78 0.12 85.75 2.25 C 91.35 4.63 97.29 6.51 102.15 10.28 C 104.23 8.64 106.06 6.65 108.37 5.33 C 114.30 4.63 120.29 5.61 126.06 6.91 C 131.28 7.98 134.71 12.49 139.40 14.65 C 145.62 17.43 150.78 21.99 156.62 25.41 C 160.01 28.08 163.18 31.35 167.56 32.34 C 168.58 30.48 169.28 28.35 170.88 26.87 C 172.53 25.60 174.68 25.37 176.65 24.90 C 176.20 31.28 177.99 37.48 177.82 43.86 C 180.78 47.91 184.12 51.78 188.12 54.86 C 190.22 56.54 192.00 58.59 193.43 60.88 C 188.34 58.68 184.83 54.24 180.40 51.09 C 179.87 53.10 179.36 55.12 178.83 57.14 C 172.58 55.81 166.46 53.64 160.02 53.39 C 160.46 57.96 164.08 61.13 166.00 65.07 C 167.91 68.41 168.90 72.27 171.30 75.32 C 172.67 75.53 174.06 75.52 175.44 75.60 C 174.83 77.39 174.21 79.18 173.57 80.97 C 175.01 82.81 176.62 84.74 176.45 87.23 C 176.46 92.66 179.32 97.57 179.25 103.00 C 179.78 110.75 180.70 119.64 186.99 125.03 C 189.57 127.63 193.33 128.01 196.77 128.51 C 196.74 129.13 196.69 130.39 196.66 131.01 C 193.62 130.66 190.59 130.14 187.59 129.50 C 186.16 132.45 185.74 135.72 185.95 138.97 C 186.31 146.54 185.64 154.23 187.28 161.68 C 187.91 164.48 188.16 167.38 187.57 170.22 C 185.52 165.67 185.91 160.50 184.35 155.77 C 184.00 146.90 183.63 137.90 184.89 129.08 C 184.47 125.20 180.39 123.16 179.76 119.37 C 178.78 115.32 179.58 111.01 178.07 107.06 C 176.49 101.45 177.04 94.02 171.32 90.65 C 171.29 87.33 170.71 83.99 168.74 81.24 C 167.36 78.16 163.59 80.93 161.20 81.14 C 160.31 80.53 159.41 79.95 158.50 79.39 C 151.66 78.10 144.74 76.58 138.44 73.57 C 133.88 70.51 129.21 67.64 124.46 64.89 C 124.65 64.47 125.02 63.63 125.21 63.21 C 129.09 62.45 133.11 62.70 137.04 62.91 C 138.50 62.83 139.75 63.60 140.53 64.81 C 138.07 65.12 135.61 65.31 133.14 65.47 C 133.23 65.89 133.42 66.73 133.51 67.15 C 138.40 69.75 142.68 73.58 148.14 75.00 C 154.62 77.22 161.53 76.97 168.27 77.45 C 167.63 69.62 161.54 64.19 158.43 57.39 C 157.42 57.37 156.41 57.36 155.40 57.34 C 154.21 60.51 153.04 63.70 151.77 66.84 C 148.08 64.07 147.05 59.29 143.93 56.04 C 140.63 52.49 136.84 49.27 134.70 44.82 C 140.05 45.55 144.99 48.35 150.52 47.92 C 148.14 43.33 143.90 40.21 139.98 37.02 C 134.23 32.45 126.53 31.84 120.42 27.93 C 126.78 27.07 132.61 30.21 138.10 32.94 C 143.29 35.60 146.96 40.44 152.10 43.15 C 154.57 43.48 157.05 42.99 159.50 42.73 C 160.89 40.10 162.42 37.54 164.02 35.03 C 155.53 26.53 145.19 20.25 135.03 13.98 C 129.03 9.99 121.97 7.94 114.95 6.63 C 111.69 5.93 108.68 7.52 105.97 9.09 C 106.55 11.22 107.13 13.34 107.66 15.48 C 100.75 14.51 96.75 7.94 90.30 5.92 C 86.58 4.84 82.95 3.01 79.04 2.84 C 73.21 3.75 68.15 7.07 63.38 10.36 C 58.83 13.53 53.66 15.74 49.39 19.33 C 44.77 23.16 40.07 26.89 35.53 30.83 C 36.77 31.54 38.01 32.25 39.25 32.96 C 34.06 38.93 29.26 45.43 22.76 50.05 C 25.52 43.95 31.56 40.30 34.57 34.45 C 32.94 33.78 31.30 33.12 29.66 32.47 C 32.09 29.64 34.07 26.33 37.19 24.18 C 42.06 20.69 45.96 15.74 51.84 13.84 C 56.73 10.96 62.01 8.62 66.40 4.96 C 65.90 3.44 64.88 2.19 63.99 0.90 C 66.40 1.19 69.33 0.45 71.17 2.44 C 71.26 1.62 71.36 0.81 71.45 0.00 Z" />
<path fill="#ffffff" opacity="1.00" d=" M 73.04 0.00 L 232.00 0.00 L 232.00 84.18 C 231.22 83.98 229.66 83.57 228.88 83.37 C 229.23 80.42 230.47 77.68 231.08 74.79 C 229.75 76.15 228.58 77.65 227.44 79.16 C 224.96 79.00 222.50 79.30 220.10 79.89 C 214.89 77.39 209.77 74.45 205.63 70.37 C 202.49 67.30 198.80 64.87 195.02 62.67 C 194.49 62.07 193.96 61.47 193.43 60.88 C 192.00 58.59 190.22 56.54 188.12 54.86 C 184.12 51.78 180.78 47.91 177.82 43.86 C 177.99 37.48 176.20 31.28 176.65 24.90 C 174.68 25.37 172.53 25.60 170.88 26.87 C 169.28 28.35 168.58 30.48 167.56 32.34 C 163.18 31.35 160.01 28.08 156.62 25.41 C 150.78 21.99 145.62 17.43 139.40 14.65 C 134.71 12.49 131.28 7.98 126.06 6.91 C 120.29 5.61 114.30 4.63 108.37 5.33 C 106.06 6.65 104.23 8.64 102.15 10.28 C 97.29 6.51 91.35 4.63 85.75 2.25 C 81.78 0.12 77.06 1.91 73.04 0.00 Z" />
<path fill="#702d13" opacity="1.00" d=" M 63.38 10.36 C 68.15 7.07 73.21 3.75 79.04 2.84 C 82.95 3.01 86.58 4.84 90.30 5.92 C 96.75 7.94 100.75 14.51 107.66 15.48 C 107.13 13.34 106.55 11.22 105.97 9.09 C 108.68 7.52 111.69 5.93 114.95 6.63 C 121.97 7.94 129.03 9.99 135.03 13.98 C 145.19 20.25 155.53 26.53 164.02 35.03 C 162.42 37.54 160.89 40.10 159.50 42.73 C 157.05 42.99 154.57 43.48 152.10 43.15 C 146.96 40.44 143.29 35.60 138.10 32.94 C 132.61 30.21 126.78 27.07 120.42 27.93 C 126.53 31.84 134.23 32.45 139.98 37.02 C 143.90 40.21 148.14 43.33 150.52 47.92 C 144.99 48.35 140.05 45.55 134.70 44.82 C 136.84 49.27 140.63 52.49 143.93 56.04 C 147.05 59.29 148.08 64.07 151.77 66.84 C 153.04 63.70 154.21 60.51 155.40 57.34 C 156.41 57.36 157.42 57.37 158.43 57.39 C 161.54 64.19 167.63 69.62 168.27 77.45 C 161.53 76.97 154.62 77.22 148.14 75.00 C 142.68 73.58 138.40 69.75 133.51 67.15 C 133.42 66.73 133.23 65.89 133.14 65.47 C 135.61 65.31 138.07 65.12 140.53 64.81 C 139.75 63.60 138.50 62.83 137.04 62.91 C 133.11 62.70 129.09 62.45 125.21 63.21 C 125.02 63.63 124.65 64.47 124.46 64.89 C 119.82 63.00 114.54 64.51 109.70 63.33 C 110.19 63.00 111.17 62.34 111.66 62.00 C 101.30 59.05 91.65 53.91 81.03 51.82 C 79.45 51.51 77.98 52.42 76.50 52.82 C 76.01 52.67 75.04 52.38 74.56 52.23 C 74.91 52.04 75.63 51.67 75.98 51.49 C 72.18 50.14 68.21 48.69 65.68 45.35 C 72.71 40.73 79.34 35.12 87.53 32.63 C 93.56 30.79 99.53 28.21 105.93 28.12 C 110.79 28.02 115.66 28.49 120.50 27.86 C 117.32 25.96 113.56 25.90 109.97 26.07 C 97.64 26.29 85.46 29.81 74.68 35.77 C 70.66 37.90 66.53 40.03 63.32 43.34 C 57.57 49.26 50.84 54.21 45.61 60.62 C 40.69 67.60 36.17 74.87 32.55 82.62 C 26.23 92.13 23.37 103.65 23.04 114.97 C 22.89 126.30 22.01 137.80 24.37 148.98 C 26.05 156.47 26.60 164.47 31.05 171.01 C 36.17 178.64 41.80 186.25 44.18 195.29 C 36.57 195.09 29.40 192.23 22.36 189.59 C 16.63 187.41 11.12 181.18 13.41 174.73 C 11.69 175.53 9.97 176.34 8.26 177.16 C 4.83 172.56 4.31 166.61 1.36 161.75 C 1.06 163.03 0.74 164.31 0.43 165.58 L 0.00 166.69 L 0.00 152.14 L 0.67 151.22 C 5.33 145.26 7.51 137.61 8.27 130.17 C 10.00 124.26 14.04 119.07 14.39 112.72 C 15.10 102.24 14.59 91.53 11.79 81.36 C 10.44 76.53 12.65 71.72 14.31 67.27 C 16.08 62.51 20.13 58.79 20.72 53.57 C 21.35 52.37 22.03 51.20 22.76 50.05 C 29.26 45.43 34.06 38.93 39.25 32.96 C 38.01 32.25 36.77 31.54 35.53 30.83 C 40.07 26.89 44.77 23.16 49.39 19.33 C 53.66 15.74 58.83 13.53 63.38 10.36 Z" />
<path fill="#0b0403" opacity="1.00" d=" M 74.68 35.77 C 85.46 29.81 97.64 26.29 109.97 26.07 C 113.56 25.90 117.32 25.96 120.50 27.86 C 115.66 28.49 110.79 28.02 105.93 28.12 C 99.53 28.21 93.56 30.79 87.53 32.63 C 79.34 35.12 72.71 40.73 65.68 45.35 C 68.21 48.69 72.18 50.14 75.98 51.49 C 75.63 51.67 74.91 52.04 74.56 52.23 C 70.17 52.43 66.60 49.78 63.62 46.88 C 59.78 49.16 56.81 52.56 53.58 55.59 C 47.98 62.49 40.90 68.78 38.59 77.70 C 34.20 85.47 31.47 94.11 26.36 101.50 C 24.83 107.25 25.19 113.26 24.13 119.09 C 23.84 125.06 23.76 131.07 23.96 137.05 C 24.88 142.81 25.84 148.60 27.63 154.15 C 27.85 162.86 32.58 170.54 37.52 177.40 C 40.94 182.23 42.40 188.22 46.20 192.78 C 50.13 195.49 54.35 197.80 58.33 200.47 C 57.55 202.61 56.22 204.48 55.04 206.42 C 53.78 202.72 52.82 198.37 48.74 196.80 C 48.86 202.19 48.64 208.27 52.14 212.74 C 50.46 215.53 48.14 217.89 45.68 220.00 L 45.09 220.00 C 46.11 217.29 47.05 214.54 47.90 211.77 C 48.63 208.96 47.16 206.35 46.43 203.73 C 46.03 201.52 46.13 199.27 46.04 197.04 C 42.95 196.93 39.71 197.36 36.76 196.19 C 32.60 194.43 27.88 195.00 23.72 193.24 C 19.45 191.40 15.92 188.27 11.89 186.01 C 9.89 185.04 8.80 183.01 7.57 181.27 C 6.31 181.08 4.20 181.88 4.08 179.99 C 2.84 175.19 1.12 170.51 0.43 165.58 C 0.74 164.31 1.06 163.03 1.36 161.75 C 4.31 166.61 4.83 172.56 8.26 177.16 C 9.97 176.34 11.69 175.53 13.41 174.73 C 11.12 181.18 16.63 187.41 22.36 189.59 C 29.40 192.23 36.57 195.09 44.18 195.29 C 41.80 186.25 36.17 178.64 31.05 171.01 C 26.60 164.47 26.05 156.47 24.37 148.98 C 22.01 137.80 22.89 126.30 23.04 114.97 C 23.37 103.65 26.23 92.13 32.55 82.62 C 36.17 74.87 40.69 67.60 45.61 60.62 C 50.84 54.21 57.57 49.26 63.32 43.34 C 66.53 40.03 70.66 37.90 74.68 35.77 Z" />
<path fill="#ffffff" opacity="1.00" d=" M 53.58 55.59 C 56.81 52.56 59.78 49.16 63.62 46.88 C 66.60 49.78 70.17 52.43 74.56 52.23 C 75.04 52.38 76.01 52.67 76.50 52.82 C 81.70 53.80 86.31 56.45 91.48 57.47 C 97.04 60.70 103.38 62.39 109.70 63.33 C 114.54 64.51 119.82 63.00 124.46 64.89 C 129.21 67.64 133.88 70.51 138.44 73.57 C 144.74 76.58 151.66 78.10 158.50 79.39 C 159.41 79.95 160.31 80.53 161.20 81.14 C 163.59 80.93 167.36 78.16 168.74 81.24 C 170.71 83.99 171.29 87.33 171.32 90.65 C 177.04 94.02 176.49 101.45 178.07 107.06 C 179.58 111.01 178.78 115.32 179.76 119.37 C 180.39 123.16 184.47 125.20 184.89 129.08 C 183.63 137.90 184.00 146.90 184.35 155.77 C 185.91 160.50 185.52 165.67 187.57 170.22 C 187.70 170.51 187.96 171.10 188.08 171.39 C 188.11 172.68 188.22 174.10 187.13 175.04 C 183.21 180.00 179.31 185.17 177.28 191.23 C 176.29 194.37 174.39 197.11 173.30 200.22 C 172.26 203.97 168.24 206.05 167.63 210.00 C 167.36 210.88 167.11 211.77 166.86 212.66 C 165.91 213.19 164.95 213.73 164.00 214.27 C 164.04 214.83 164.13 215.96 164.17 216.52 C 165.39 216.80 166.60 217.09 167.82 217.41 C 172.07 218.83 176.44 217.07 180.72 216.68 C 184.13 213.77 183.64 207.63 188.38 206.32 C 191.69 205.23 194.46 203.08 197.48 201.42 C 201.75 199.74 206.26 198.59 210.88 198.67 C 210.89 198.07 210.89 196.87 210.90 196.27 C 207.88 194.86 204.64 194.20 201.36 193.76 C 198.28 191.88 197.79 187.99 197.09 184.77 C 196.79 179.60 198.82 174.60 201.69 170.38 C 202.93 171.05 204.19 171.68 205.47 172.28 C 207.36 167.85 208.99 163.29 211.51 159.15 C 213.32 155.68 213.72 151.66 214.69 147.90 C 215.25 137.65 215.11 127.35 214.73 117.10 C 213.73 113.34 212.50 109.60 213.03 105.63 C 213.76 104.91 214.44 104.16 215.08 103.37 C 215.26 103.16 215.61 102.72 215.79 102.51 C 219.20 100.37 222.20 97.58 223.85 93.84 C 226.12 90.43 226.98 84.82 232.00 84.61 L 232.00 220.00 L 45.68 220.00 C 48.14 217.89 50.46 215.53 52.14 212.74 C 53.22 210.68 54.11 208.54 55.04 206.42 C 56.22 204.48 57.55 202.61 58.33 200.47 C 54.35 197.80 50.13 195.49 46.20 192.78 C 42.40 188.22 40.94 182.23 37.52 177.40 C 32.58 170.54 27.85 162.86 27.63 154.15 C 25.84 148.60 24.88 142.81 23.96 137.05 C 23.76 131.07 23.84 125.06 24.13 119.09 C 25.19 113.26 24.83 107.25 26.36 101.50 C 31.47 94.11 34.20 85.47 38.59 77.70 C 40.90 68.78 47.98 62.49 53.58 55.59 Z" />
<path fill="#702d13" opacity="1.00" d=" M 180.40 51.09 C 184.83 54.24 188.34 58.68 193.43 60.88 C 193.96 61.47 194.49 62.07 195.02 62.67 C 197.58 67.50 202.86 69.65 206.63 73.34 C 211.97 78.34 217.87 82.87 224.79 85.44 C 223.62 88.58 222.42 91.77 220.39 94.46 C 218.62 97.00 215.84 99.15 215.79 102.51 C 215.61 102.72 215.26 103.16 215.08 103.37 C 212.38 102.60 209.70 101.75 206.99 101.03 C 208.41 103.31 209.66 107.06 213.03 105.63 C 212.50 109.60 213.73 113.34 214.73 117.10 C 215.11 127.35 215.25 137.65 214.69 147.90 C 213.72 151.66 213.32 155.68 211.51 159.15 C 211.17 158.85 210.47 158.24 210.13 157.93 C 208.68 160.92 206.95 163.78 204.65 166.20 C 204.57 164.57 204.60 162.92 204.35 161.30 C 203.49 160.32 202.37 159.62 201.35 158.84 C 199.90 168.06 195.15 176.55 195.03 186.01 C 195.11 190.16 198.30 193.27 200.58 196.43 C 196.33 200.24 191.45 203.62 185.94 205.22 C 182.43 205.98 180.37 202.49 179.17 199.80 C 178.17 197.54 176.84 194.81 178.35 192.44 C 181.42 187.24 184.34 181.91 188.12 177.17 C 189.72 175.50 189.02 173.19 188.08 171.39 C 187.96 171.10 187.70 170.51 187.57 170.22 C 188.16 167.38 187.91 164.48 187.28 161.68 C 185.64 154.23 186.31 146.54 185.95 138.97 C 185.74 135.72 186.16 132.45 187.59 129.50 C 190.59 130.14 193.62 130.66 196.66 131.01 C 196.69 130.39 196.74 129.13 196.77 128.51 C 193.33 128.01 189.57 127.63 186.99 125.03 C 180.70 119.64 179.78 110.75 179.25 103.00 C 179.32 97.57 176.46 92.66 176.45 87.23 C 176.62 84.74 175.01 82.81 173.57 80.97 C 174.21 79.18 174.83 77.39 175.44 75.60 C 174.06 75.52 172.67 75.53 171.30 75.32 C 168.90 72.27 167.91 68.41 166.00 65.07 C 164.08 61.13 160.46 57.96 160.02 53.39 C 166.46 53.64 172.58 55.81 178.83 57.14 C 179.36 55.12 179.87 53.10 180.40 51.09 Z" />
<path fill="#0b0403" opacity="1.00" d=" M 76.50 52.82 C 77.98 52.42 79.45 51.51 81.03 51.82 C 91.65 53.91 101.30 59.05 111.66 62.00 C 111.17 62.34 110.19 63.00 109.70 63.33 C 103.38 62.39 97.04 60.70 91.48 57.47 C 86.31 56.45 81.70 53.80 76.50 52.82 Z" />
<path fill="#0b0403" opacity="1.00" d=" M 8.40 76.19 C 10.58 67.76 15.28 60.29 20.72 53.57 C 20.13 58.79 16.08 62.51 14.31 67.27 C 12.65 71.72 10.44 76.53 11.79 81.36 C 14.59 91.53 15.10 102.24 14.39 112.72 C 14.04 119.07 10.00 124.26 8.27 130.17 C 7.51 137.61 5.33 145.26 0.67 151.22 C 0.46 146.20 3.55 142.10 4.43 137.33 C 2.95 136.94 1.47 136.55 0.00 136.14 L 0.00 135.53 C 2.30 127.72 9.85 122.77 12.00 114.85 C 12.44 109.84 12.91 104.79 12.46 99.76 C 12.14 96.17 12.66 92.33 10.92 89.01 C 9.01 85.03 8.67 80.52 8.40 76.19 Z" />
<path fill="#0b0403" opacity="1.00" d=" M 195.02 62.67 C 198.80 64.87 202.49 67.30 205.63 70.37 C 209.77 74.45 214.89 77.39 220.10 79.89 C 221.90 80.82 223.68 81.78 225.47 82.74 C 226.10 81.54 226.74 80.33 227.44 79.16 C 228.58 77.65 229.75 76.15 231.08 74.79 C 230.47 77.68 229.23 80.42 228.88 83.37 C 229.66 83.57 231.22 83.98 232.00 84.18 L 232.00 84.61 C 226.98 84.82 226.12 90.43 223.85 93.84 C 222.20 97.58 219.20 100.37 215.79 102.51 C 215.84 99.15 218.62 97.00 220.39 94.46 C 222.42 91.77 223.62 88.58 224.79 85.44 C 217.87 82.87 211.97 78.34 206.63 73.34 C 202.86 69.65 197.58 67.50 195.02 62.67 Z" />
<path fill="#702d13" opacity="1.00" d=" M 220.10 79.89 C 222.50 79.30 224.96 79.00 227.44 79.16 C 226.74 80.33 226.10 81.54 225.47 82.74 C 223.68 81.78 221.90 80.82 220.10 79.89 Z" />
<path fill="#0b0403" opacity="1.00" d=" M 206.99 101.03 C 209.70 101.75 212.38 102.60 215.08 103.37 C 214.44 104.16 213.76 104.91 213.03 105.63 C 209.66 107.06 208.41 103.31 206.99 101.03 Z" />
<path fill="#ffffff" opacity="1.00" d=" M 0.00 136.14 C 1.47 136.55 2.95 136.94 4.43 137.33 C 3.55 142.10 0.46 146.20 0.67 151.22 L 0.00 152.14 L 0.00 136.14 Z" />
<path fill="#0b0403" opacity="1.00" d=" M 210.13 157.93 C 210.47 158.24 211.17 158.85 211.51 159.15 C 208.99 163.29 207.36 167.85 205.47 172.28 C 204.19 171.68 202.93 171.05 201.69 170.38 C 198.82 174.60 196.79 179.60 197.09 184.77 C 197.79 187.99 198.28 191.88 201.36 193.76 C 204.64 194.20 207.88 194.86 210.90 196.27 C 210.89 196.87 210.89 198.07 210.88 198.67 C 206.26 198.59 201.75 199.74 197.48 201.42 C 194.46 203.08 191.69 205.23 188.38 206.32 C 183.64 207.63 184.13 213.77 180.72 216.68 C 180.37 213.48 181.77 210.52 182.83 207.59 C 180.67 206.13 178.82 203.52 176.14 203.24 C 172.93 204.90 170.79 208.16 167.63 210.00 C 168.24 206.05 172.26 203.97 173.30 200.22 C 174.39 197.11 176.29 194.37 177.28 191.23 C 179.31 185.17 183.21 180.00 187.13 175.04 C 188.22 174.10 188.11 172.68 188.08 171.39 C 189.02 173.19 189.72 175.50 188.12 177.17 C 184.34 181.91 181.42 187.24 178.35 192.44 C 176.84 194.81 178.17 197.54 179.17 199.80 C 180.37 202.49 182.43 205.98 185.94 205.22 C 191.45 203.62 196.33 200.24 200.58 196.43 C 198.30 193.27 195.11 190.16 195.03 186.01 C 195.15 176.55 199.90 168.06 201.35 158.84 C 202.37 159.62 203.49 160.32 204.35 161.30 C 204.60 162.92 204.57 164.57 204.65 166.20 C 206.95 163.78 208.68 160.92 210.13 157.93 Z" />
<path fill="#ffffff" opacity="1.00" d=" M 0.00 166.69 L 0.43 165.58 C 1.12 170.51 2.84 175.19 4.08 179.99 C 4.20 181.88 6.31 181.08 7.57 181.27 C 8.80 183.01 9.89 185.04 11.89 186.01 C 15.92 188.27 19.45 191.40 23.72 193.24 C 27.88 195.00 32.60 194.43 36.76 196.19 C 39.71 197.36 42.95 196.93 46.04 197.04 C 46.13 199.27 46.03 201.52 46.43 203.73 C 47.16 206.35 48.63 208.96 47.90 211.77 C 47.05 214.54 46.11 217.29 45.09 220.00 L 0.00 220.00 L 0.00 166.69 Z" />
<path fill="#702d13" opacity="1.00" d=" M 48.74 196.80 C 52.82 198.37 53.78 202.72 55.04 206.42 C 54.11 208.54 53.22 210.68 52.14 212.74 C 48.64 208.27 48.86 202.19 48.74 196.80 Z" />
<path fill="#702d13" opacity="1.00" d=" M 167.63 210.00 C 170.79 208.16 172.93 204.90 176.14 203.24 C 178.82 203.52 180.67 206.13 182.83 207.59 C 181.77 210.52 180.37 213.48 180.72 216.68 C 176.44 217.07 172.07 218.83 167.82 217.41 C 167.47 215.83 167.17 214.24 166.86 212.66 C 167.11 211.77 167.36 210.88 167.63 210.00 Z" />
<path fill="#0b0403" opacity="1.00" d=" M 164.00 214.27 C 164.95 213.73 165.91 213.19 166.86 212.66 C 167.17 214.24 167.47 215.83 167.82 217.41 C 166.60 217.09 165.39 216.80 164.17 216.52 C 164.13 215.96 164.04 214.83 164.00 214.27 Z" />
</svg>
