<?xml version="1.0" encoding="UTF-8" ?>
<!DOCTYPE svg PUBLIC "-//W3C//DTD SVG 1.1//EN" "http://www.w3.org/Graphics/SVG/1.1/DTD/svg11.dtd">
<svg width="233pt" height="220pt" viewBox="0 0 233 220" version="1.1" xmlns="http://www.w3.org/2000/svg">
<path fill="#ffffff" opacity="1.00" d=" M 0.00 0.00 L 72.66 0.00 C 70.18 1.25 67.36 1.04 64.67 1.13 C 65.42 2.62 67.88 3.58 66.93 5.51 C 62.89 6.59 60.19 9.93 56.37 11.43 C 52.53 13.14 49.71 16.68 45.47 17.51 C 41.36 19.51 39.20 23.98 35.43 26.47 C 32.96 28.06 30.97 30.23 29.16 32.51 C 31.00 33.09 32.82 33.72 34.64 34.37 C 33.85 38.29 29.60 39.58 28.00 42.98 C 24.79 48.94 19.80 53.70 16.66 59.69 C 14.96 62.30 12.53 64.54 11.79 67.67 C 10.95 71.44 7.60 74.58 8.38 78.68 C 9.60 83.60 10.44 88.62 12.15 93.41 C 12.23 93.70 12.38 94.27 12.45 94.56 C 12.27 101.63 13.07 108.79 11.78 115.79 C 9.67 121.48 5.69 126.18 1.98 130.90 C 0.96 132.64 0.78 134.75 0.00 136.61 L 0.00 0.00 Z" />
<path fill="#0c0403" opacity="1.00" d=" M 72.66 0.00 L 73.33 0.00 C 76.28 1.51 79.66 0.75 82.81 1.21 C 87.11 2.22 90.80 4.86 95.01 6.12 C 98.16 7.00 100.80 8.99 103.69 10.43 C 104.53 8.97 105.35 7.50 106.18 6.04 C 113.69 6.29 121.37 5.26 128.71 7.36 C 134.73 10.00 138.95 16.04 145.56 17.49 C 148.61 18.46 150.41 21.40 153.24 22.80 C 158.53 25.81 162.62 31.05 168.77 32.39 C 170.06 30.39 171.35 28.38 172.57 26.33 C 173.91 26.26 175.26 26.18 176.61 26.10 C 176.60 31.51 177.95 36.76 178.65 42.09 C 178.70 45.04 181.26 46.95 182.76 49.25 C 186.07 53.97 191.94 56.21 194.57 61.46 C 198.57 64.42 202.80 67.11 206.24 70.77 C 210.59 73.85 214.95 76.92 219.47 79.75 C 221.10 80.83 223.13 80.49 224.97 80.44 C 228.21 80.66 229.73 77.25 231.99 75.55 C 231.43 78.09 230.69 80.64 229.03 82.71 C 229.91 83.18 230.80 83.64 231.68 84.11 C 226.98 86.55 227.15 92.35 223.93 96.00 C 221.60 100.20 215.92 101.53 214.75 106.49 C 213.99 113.69 216.24 120.78 215.88 127.99 C 215.59 137.92 216.74 148.16 213.70 157.78 C 211.03 162.31 207.58 166.54 206.50 171.84 C 204.89 171.64 203.27 171.45 201.65 171.35 C 199.99 175.74 198.18 180.19 197.93 184.93 C 198.38 187.62 199.22 190.23 199.98 192.85 C 204.54 193.90 208.68 195.97 212.76 198.16 C 206.48 200.03 200.05 201.49 194.01 204.09 C 195.71 200.98 198.54 198.82 201.45 196.91 C 199.53 194.65 197.05 192.78 195.70 190.09 C 194.93 186.77 195.36 183.31 195.82 179.98 C 196.51 174.54 200.29 170.12 201.10 164.72 C 201.77 162.65 201.02 159.20 204.10 159.20 C 205.31 161.31 205.22 163.80 205.47 166.14 C 207.85 162.50 210.68 159.01 211.92 154.76 C 213.60 149.01 214.78 143.08 214.95 137.08 C 215.37 128.62 213.64 120.28 212.43 111.96 C 212.04 107.44 208.37 104.33 206.67 100.32 C 209.30 101.16 211.88 102.15 214.45 103.15 C 218.79 97.39 223.60 91.86 226.29 85.06 C 222.04 83.92 217.40 83.10 214.25 79.75 C 207.66 73.24 199.47 68.67 193.08 61.97 C 189.17 58.35 185.06 54.93 181.42 51.02 C 181.20 53.14 180.97 55.26 180.73 57.38 C 173.78 57.33 167.52 53.64 160.56 53.60 C 160.94 58.33 165.08 61.14 166.98 65.17 C 168.71 68.61 170.55 71.99 172.38 75.38 C 173.78 75.61 175.19 75.85 176.59 76.09 C 176.03 77.97 175.44 79.85 174.86 81.73 C 176.55 83.81 177.59 86.29 177.43 89.01 C 177.32 93.13 179.04 96.93 181.21 100.32 C 180.68 101.46 180.16 102.60 179.64 103.73 C 183.02 110.51 180.90 119.58 187.06 124.92 C 190.02 127.94 195.20 126.75 197.88 130.09 C 195.07 132.52 191.27 130.47 188.02 130.34 C 186.24 135.84 186.18 141.67 186.79 147.36 C 187.59 153.98 187.44 160.72 189.03 167.23 C 189.57 170.37 190.72 173.58 190.11 176.79 C 188.44 180.00 184.87 181.82 183.59 185.28 C 182.24 188.71 180.14 191.75 178.56 195.06 C 178.75 198.71 180.72 202.24 183.48 204.58 C 186.72 204.79 189.97 204.50 193.21 204.54 C 190.72 206.09 188.12 207.46 185.41 208.57 C 185.13 211.79 183.74 214.71 181.79 217.25 C 181.37 217.35 180.53 217.54 180.11 217.64 C 181.42 214.59 182.57 211.47 183.31 208.24 C 180.83 206.85 178.69 203.23 175.48 204.42 C 172.71 206.82 170.83 210.08 168.05 212.50 C 167.90 207.81 172.54 205.15 174.06 201.06 C 177.79 191.83 181.80 182.56 188.20 174.82 C 188.50 170.49 186.89 166.35 185.89 162.21 C 184.32 157.13 185.34 151.76 184.75 146.55 C 184.74 140.46 185.53 134.33 184.88 128.26 C 182.29 122.45 179.75 116.37 179.13 109.99 C 179.32 105.86 176.95 102.21 177.01 98.09 C 177.20 94.88 174.54 92.91 172.03 91.55 C 171.89 88.21 172.70 84.37 170.28 81.62 C 168.93 80.05 166.64 80.70 164.86 80.84 C 160.60 81.53 156.73 79.14 152.65 78.34 C 148.48 77.09 143.62 76.96 140.42 73.63 C 137.95 72.28 135.13 71.67 132.72 70.17 C 129.63 68.28 126.82 65.93 123.62 64.20 C 119.00 63.14 113.97 64.57 109.52 62.49 C 105.26 61.56 100.78 61.68 96.58 60.41 C 88.04 56.42 79.16 53.15 69.98 50.95 C 67.46 50.46 65.52 48.61 63.13 47.80 C 59.99 49.68 57.07 51.98 54.73 54.83 C 49.90 60.66 44.71 66.22 40.35 72.44 C 38.29 75.38 40.06 79.73 37.14 82.16 C 33.86 85.08 34.05 89.94 31.17 93.16 C 28.83 95.65 28.42 99.15 27.10 102.19 C 25.45 105.58 26.13 109.41 25.95 113.05 C 25.94 117.12 23.83 120.86 23.94 124.96 C 23.98 129.17 23.43 133.46 24.28 137.62 C 25.95 142.66 26.64 147.95 27.74 153.13 C 27.71 159.66 29.39 166.32 33.40 171.55 C 35.76 174.64 39.01 177.56 39.16 181.72 C 35.07 177.87 31.24 173.53 28.89 168.38 C 26.68 161.05 25.95 153.37 23.92 145.99 C 22.00 139.15 22.63 132.01 22.62 125.01 C 22.69 117.42 22.50 109.62 25.09 102.37 C 27.27 96.40 27.27 89.53 31.36 84.38 C 36.71 76.83 39.36 67.53 45.88 60.80 C 49.41 57.05 52.41 52.76 56.56 49.63 C 60.74 46.50 63.25 41.36 68.26 39.35 C 75.58 36.16 81.90 30.78 89.76 28.86 C 99.90 26.73 110.35 25.56 120.68 26.80 C 126.37 27.87 132.39 28.50 137.38 31.69 C 142.20 34.75 146.47 38.58 151.05 41.97 C 153.39 43.91 156.76 43.27 159.46 42.59 C 161.27 40.34 162.71 37.83 164.47 35.55 C 162.17 32.84 159.83 30.04 156.60 28.42 C 151.40 25.81 147.59 21.22 142.45 18.53 C 134.18 14.25 126.57 7.95 117.04 6.77 C 113.44 6.39 108.82 6.09 106.45 9.42 C 106.60 11.34 107.30 13.16 107.86 14.98 C 107.65 15.48 107.24 16.49 107.03 16.99 C 102.21 13.90 97.81 10.17 92.99 7.10 C 88.76 5.63 84.37 4.55 79.98 3.67 C 72.96 4.08 66.66 7.98 61.34 12.36 C 57.47 15.68 52.33 17.05 48.60 20.55 C 44.91 23.85 41.21 27.16 37.06 29.88 C 37.89 31.80 40.03 34.14 38.08 36.10 C 35.27 39.27 31.56 41.60 29.17 45.17 C 24.76 51.83 18.93 57.65 16.00 65.21 C 13.96 70.52 10.13 75.94 12.05 81.87 C 12.64 85.66 15.79 90.28 12.15 93.41 C 10.44 88.62 9.60 83.60 8.38 78.68 C 7.60 74.58 10.95 71.44 11.79 67.67 C 12.53 64.54 14.96 62.30 16.66 59.69 C 19.80 53.70 24.79 48.94 28.00 42.98 C 29.60 39.58 33.85 38.29 34.64 34.37 C 32.82 33.72 31.00 33.09 29.16 32.51 C 30.97 30.23 32.96 28.06 35.43 26.47 C 39.20 23.98 41.36 19.51 45.47 17.51 C 49.71 16.68 52.53 13.14 56.37 11.43 C 60.19 9.93 62.89 6.59 66.93 5.51 C 67.88 3.58 65.42 2.62 64.67 1.13 C 67.36 1.04 70.18 1.25 72.66 0.00 M 101.01 28.78 C 96.64 29.21 92.86 31.68 88.63 32.66 C 84.21 33.71 80.95 37.10 76.80 38.73 C 72.86 40.21 69.56 43.01 66.69 46.02 C 70.36 52.45 78.63 49.47 84.37 51.78 C 89.75 54.11 95.43 55.70 100.69 58.31 C 106.33 61.18 112.86 62.24 119.12 61.41 C 126.15 61.17 133.12 62.52 140.15 62.72 C 140.29 63.33 140.58 64.53 140.72 65.14 C 138.14 65.41 135.55 65.64 132.97 65.92 C 136.97 68.86 140.83 72.10 145.73 73.39 C 152.80 77.34 161.10 77.04 168.94 77.60 C 167.14 70.23 162.73 63.79 158.03 57.98 C 155.48 60.42 153.25 63.31 152.82 66.93 C 152.23 66.89 151.04 66.82 150.44 66.79 C 148.11 57.62 139.03 52.70 134.67 44.77 C 137.05 44.59 139.24 45.39 141.27 46.54 C 144.05 48.15 147.36 47.93 150.45 48.18 C 149.06 42.88 143.88 40.20 139.75 37.27 C 135.30 33.64 129.59 32.30 124.54 29.76 C 116.88 28.01 108.81 27.76 101.01 28.78 Z" />
<path fill="#ffffff" opacity="1.00" d=" M 73.33 0.00 L 233.00 0.00 L 233.00 220.00 L 46.63 220.00 C 49.18 218.59 50.33 215.90 51.93 213.64 C 53.07 211.98 53.95 210.16 54.76 208.33 C 55.52 205.80 57.36 204.00 59.53 202.62 C 57.03 198.58 51.78 197.91 48.72 194.37 C 42.98 192.45 43.04 185.54 39.16 181.72 C 39.01 177.56 35.76 174.64 33.40 171.55 C 29.39 166.32 27.71 159.66 27.74 153.13 C 26.64 147.95 25.95 142.66 24.28 137.62 C 23.43 133.46 23.98 129.17 23.94 124.96 C 23.83 120.86 25.94 117.12 25.95 113.05 C 26.13 109.41 25.45 105.58 27.10 102.19 C 28.42 99.15 28.83 95.65 31.17 93.16 C 34.05 89.94 33.86 85.08 37.14 82.16 C 40.06 79.73 38.29 75.38 40.35 72.44 C 44.71 66.22 49.90 60.66 54.73 54.83 C 57.07 51.98 59.99 49.68 63.13 47.80 C 65.52 48.61 67.46 50.46 69.98 50.95 C 79.16 53.15 88.04 56.42 96.58 60.41 C 100.78 61.68 105.26 61.56 109.52 62.49 C 113.97 64.57 119.00 63.14 123.62 64.20 C 126.82 65.93 129.63 68.28 132.72 70.17 C 135.13 71.67 137.95 72.28 140.42 73.63 C 143.62 76.96 148.48 77.09 152.65 78.34 C 156.73 79.14 160.60 81.53 164.86 80.84 C 166.64 80.70 168.93 80.05 170.28 81.62 C 172.70 84.37 171.89 88.21 172.03 91.55 C 174.54 92.91 177.20 94.88 177.01 98.09 C 176.95 102.21 179.32 105.86 179.13 109.99 C 179.75 116.37 182.29 122.45 184.88 128.26 C 185.53 134.33 184.74 140.46 184.75 146.55 C 185.34 151.76 184.32 157.13 185.89 162.21 C 186.89 166.35 188.50 170.49 188.20 174.82 C 181.80 182.56 177.79 191.83 174.06 201.06 C 172.54 205.15 167.90 207.81 168.05 212.50 C 168.03 212.81 167.99 213.42 167.97 213.72 C 166.77 214.28 165.59 214.87 164.43 215.48 C 165.95 217.29 167.94 218.66 170.28 219.14 C 174.18 219.01 178.06 218.35 181.79 217.25 C 183.74 214.71 185.13 211.79 185.41 208.57 C 188.12 207.46 190.72 206.09 193.21 204.54 C 193.41 204.43 193.81 204.20 194.01 204.09 C 200.05 201.49 206.48 200.03 212.76 198.16 C 208.68 195.97 204.54 193.90 199.98 192.85 C 199.22 190.23 198.38 187.62 197.93 184.93 C 198.18 180.19 199.99 175.74 201.65 171.35 C 203.27 171.45 204.89 171.64 206.50 171.84 C 207.58 166.54 211.03 162.31 213.70 157.78 C 216.74 148.16 215.59 137.92 215.88 127.99 C 216.24 120.78 213.99 113.69 214.75 106.49 C 215.92 101.53 221.60 100.20 223.93 96.00 C 227.15 92.35 226.98 86.55 231.68 84.11 C 230.80 83.64 229.91 83.18 229.03 82.71 C 230.69 80.64 231.43 78.09 231.99 75.55 C 229.73 77.25 228.21 80.66 224.97 80.44 C 223.13 80.49 221.10 80.83 219.47 79.75 C 214.95 76.92 210.59 73.85 206.24 70.77 C 202.80 67.11 198.57 64.42 194.57 61.46 C 191.94 56.21 186.07 53.97 182.76 49.25 C 181.26 46.95 178.70 45.04 178.65 42.09 C 177.95 36.76 176.60 31.51 176.61 26.10 C 175.26 26.18 173.91 26.26 172.57 26.33 C 171.35 28.38 170.06 30.39 168.77 32.39 C 162.62 31.05 158.53 25.81 153.24 22.80 C 150.41 21.40 148.61 18.46 145.56 17.49 C 138.95 16.04 134.73 10.00 128.71 7.36 C 121.37 5.26 113.69 6.29 106.18 6.04 C 105.35 7.50 104.53 8.97 103.69 10.43 C 100.80 8.99 98.16 7.00 95.01 6.12 C 90.80 4.86 87.11 2.22 82.81 1.21 C 79.66 0.75 76.28 1.51 73.33 0.00 Z" />
<path fill="#e33902" opacity="1.00" d=" M 61.34 12.36 C 66.66 7.98 72.96 4.08 79.98 3.67 C 84.37 4.55 88.76 5.63 92.99 7.10 C 97.81 10.17 102.21 13.90 107.03 16.99 C 107.24 16.49 107.65 15.48 107.86 14.98 C 107.30 13.16 106.60 11.34 106.45 9.42 C 108.82 6.09 113.44 6.39 117.04 6.77 C 126.57 7.95 134.18 14.25 142.45 18.53 C 147.59 21.22 151.40 25.81 156.60 28.42 C 159.83 30.04 162.17 32.84 164.47 35.55 C 162.71 37.83 161.27 40.34 159.46 42.59 C 156.76 43.27 153.39 43.91 151.05 41.97 C 146.47 38.58 142.20 34.75 137.38 31.69 C 132.39 28.50 126.37 27.87 120.68 26.80 C 110.35 25.56 99.90 26.73 89.76 28.86 C 81.90 30.78 75.58 36.16 68.26 39.35 C 63.25 41.36 60.74 46.50 56.56 49.63 C 52.41 52.76 49.41 57.05 45.88 60.80 C 39.36 67.53 36.71 76.83 31.36 84.38 C 27.27 89.53 27.27 96.40 25.09 102.37 C 22.50 109.62 22.69 117.42 22.62 125.01 C 22.63 132.01 22.00 139.15 23.92 145.99 C 25.95 153.37 26.68 161.05 28.89 168.38 C 31.24 173.53 35.07 177.87 39.16 181.72 C 39.02 186.74 42.18 190.92 43.74 195.49 C 36.71 193.86 29.36 193.27 22.70 190.34 C 16.91 187.68 12.47 181.40 13.36 174.86 C 11.45 175.77 9.55 176.70 7.65 177.61 C 5.54 171.41 3.43 165.19 1.78 158.84 C 0.29 152.82 4.74 147.69 6.12 142.10 C 7.61 138.36 7.32 134.30 7.93 130.40 C 12.22 122.29 15.80 113.34 15.47 103.99 C 15.47 100.60 15.72 96.61 12.45 94.56 C 12.38 94.27 12.23 93.70 12.15 93.41 C 15.79 90.28 12.64 85.66 12.05 81.87 C 10.13 75.94 13.96 70.52 16.00 65.21 C 18.93 57.65 24.76 51.83 29.17 45.17 C 31.56 41.60 35.27 39.27 38.08 36.10 C 40.03 34.14 37.89 31.80 37.06 29.88 C 41.21 27.16 44.91 23.85 48.60 20.55 C 52.33 17.05 57.47 15.68 61.34 12.36 M 32.36 179.37 C 31.16 180.72 33.31 183.04 34.68 181.72 C 35.96 180.39 33.69 178.08 32.36 179.37 Z" />
<path fill="#e33902" opacity="1.00" d=" M 101.01 28.78 C 108.81 27.76 116.88 28.01 124.54 29.76 C 129.59 32.30 135.30 33.64 139.75 37.27 C 143.88 40.20 149.06 42.88 150.45 48.18 C 147.36 47.93 144.05 48.15 141.27 46.54 C 139.24 45.39 137.05 44.59 134.67 44.77 C 139.03 52.70 148.11 57.62 150.44 66.79 C 151.04 66.82 152.23 66.89 152.82 66.93 C 153.25 63.31 155.48 60.42 158.03 57.98 C 162.73 63.79 167.14 70.23 168.94 77.60 C 161.10 77.04 152.80 77.34 145.73 73.39 C 140.83 72.10 136.97 68.86 132.97 65.92 C 135.55 65.64 138.14 65.41 140.72 65.14 C 140.58 64.53 140.29 63.33 140.15 62.72 C 133.12 62.52 126.15 61.17 119.12 61.41 C 112.86 62.24 106.33 61.18 100.69 58.31 C 95.43 55.70 89.75 54.11 84.37 51.78 C 78.63 49.47 70.36 52.45 66.69 46.02 C 69.56 43.01 72.86 40.21 76.80 38.73 C 80.95 37.10 84.21 33.71 88.63 32.66 C 92.86 31.68 96.64 29.21 101.01 28.78 Z" />
<path fill="#e33902" opacity="1.00" d=" M 181.42 51.02 C 185.06 54.93 189.17 58.35 193.08 61.97 C 199.47 68.67 207.66 73.24 214.25 79.75 C 217.40 83.10 222.04 83.92 226.29 85.06 C 223.60 91.86 218.79 97.39 214.45 103.15 C 211.88 102.15 209.30 101.16 206.67 100.32 C 208.37 104.33 212.04 107.44 212.43 111.96 C 213.64 120.28 215.37 128.62 214.95 137.08 C 214.78 143.08 213.60 149.01 211.92 154.76 C 210.68 159.01 207.85 162.50 205.47 166.14 C 205.22 163.80 205.31 161.31 204.10 159.20 C 201.02 159.20 201.77 162.65 201.10 164.72 C 200.29 170.12 196.51 174.54 195.82 179.98 C 195.36 183.31 194.93 186.77 195.70 190.09 C 197.05 192.78 199.53 194.65 201.45 196.91 C 198.54 198.82 195.71 200.98 194.01 204.09 C 193.81 204.20 193.41 204.43 193.21 204.54 C 189.97 204.50 186.72 204.79 183.48 204.58 C 180.72 202.24 178.75 198.71 178.56 195.06 C 180.14 191.75 182.24 188.71 183.59 185.28 C 184.87 181.82 188.44 180.00 190.11 176.79 C 190.72 173.58 189.57 170.37 189.03 167.23 C 187.44 160.72 187.59 153.98 186.79 147.36 C 186.18 141.67 186.24 135.84 188.02 130.34 C 191.27 130.47 195.07 132.52 197.88 130.09 C 195.20 126.75 190.02 127.94 187.06 124.92 C 180.90 119.58 183.02 110.51 179.64 103.73 C 180.16 102.60 180.68 101.46 181.21 100.32 C 179.04 96.93 177.32 93.13 177.43 89.01 C 177.59 86.29 176.55 83.81 174.86 81.73 C 175.44 79.85 176.03 77.97 176.59 76.09 C 175.19 75.85 173.78 75.61 172.38 75.38 C 170.55 71.99 168.71 68.61 166.98 65.17 C 165.08 61.14 160.94 58.33 160.56 53.60 C 167.52 53.64 173.78 57.33 180.73 57.38 C 180.97 55.26 181.20 53.14 181.42 51.02 Z" />
<path fill="#0c0403" opacity="1.00" d=" M 12.45 94.56 C 15.72 96.61 15.47 100.60 15.47 103.99 C 15.80 113.34 12.22 122.29 7.93 130.40 C 7.32 134.30 7.61 138.36 6.12 142.10 C 4.74 147.69 0.29 152.82 1.78 158.84 C 3.43 165.19 5.54 171.41 7.65 177.61 C 9.55 176.70 11.45 175.77 13.36 174.86 C 12.47 181.40 16.91 187.68 22.70 190.34 C 29.36 193.27 36.71 193.86 43.74 195.49 C 42.18 190.92 39.02 186.74 39.16 181.72 C 43.04 185.54 42.98 192.45 48.72 194.37 C 51.78 197.91 57.03 198.58 59.53 202.62 C 57.36 204.00 55.52 205.80 54.76 208.33 C 54.08 204.71 52.90 201.10 50.03 198.60 C 50.32 203.62 49.41 209.04 51.93 213.64 C 50.33 215.90 49.18 218.59 46.63 220.00 L 45.97 220.00 C 49.64 212.95 47.87 204.98 46.34 197.62 C 38.19 198.40 30.70 194.38 22.78 193.19 C 17.98 192.89 15.96 187.87 11.87 186.09 C 9.97 185.34 8.91 183.56 7.72 182.01 C 6.58 181.96 5.45 181.90 4.31 181.86 C 4.15 175.93 1.33 170.62 0.00 164.95 L 0.00 152.07 C 0.73 147.21 3.29 143.04 4.56 138.37 C 3.04 137.97 1.52 137.58 0.00 137.18 L 0.00 136.61 C 0.78 134.75 0.96 132.64 1.98 130.90 C 5.69 126.18 9.67 121.48 11.78 115.79 C 13.07 108.79 12.27 101.63 12.45 94.56 Z" />
<path fill="#ffffff" opacity="1.00" d=" M 0.00 137.18 C 1.52 137.58 3.04 137.97 4.56 138.37 C 3.29 143.04 0.73 147.21 0.00 152.07 L 0.00 137.18 Z" />
<path fill="#ffffff" opacity="1.00" d=" M 0.00 164.95 C 1.33 170.62 4.15 175.93 4.31 181.86 C 5.45 181.90 6.58 181.96 7.72 182.01 C 8.91 183.56 9.97 185.34 11.87 186.09 C 15.96 187.87 17.98 192.89 22.78 193.19 C 30.70 194.38 38.19 198.40 46.34 197.62 C 47.87 204.98 49.64 212.95 45.97 220.00 L 0.00 220.00 L 0.00 164.95 Z" />
<path fill="#0c0403" opacity="1.00" d=" M 32.36 179.37 C 33.69 178.08 35.96 180.39 34.68 181.72 C 33.31 183.04 31.16 180.72 32.36 179.37 Z" />
<path fill="#e33902" opacity="1.00" d=" M 50.03 198.60 C 52.90 201.10 54.08 204.71 54.76 208.33 C 53.95 210.16 53.07 211.98 51.93 213.64 C 49.41 209.04 50.32 203.62 50.03 198.60 Z" />
<path fill="#e33902" opacity="1.00" d=" M 175.48 204.42 C 178.69 203.23 180.83 206.85 183.31 208.24 C 182.57 211.47 181.42 214.59 180.11 217.64 C 180.53 217.54 181.37 217.35 181.79 217.25 C 178.06 218.35 174.18 219.01 170.28 219.14 C 169.51 217.33 168.69 215.55 167.97 213.72 C 167.99 213.42 168.03 212.81 168.05 212.50 C 170.83 210.08 172.71 206.82 175.48 204.42 Z" />
<path fill="#0c0403" opacity="1.00" d=" M 164.43 215.48 C 165.59 214.87 166.77 214.28 167.97 213.72 C 168.69 215.55 169.51 217.33 170.28 219.14 C 167.94 218.66 165.95 217.29 164.43 215.48 Z" />
</svg>
