<?xml version="1.0" encoding="UTF-8" ?>
<!DOCTYPE svg PUBLIC "-//W3C//DTD SVG 1.1//EN" "http://www.w3.org/Graphics/SVG/1.1/DTD/svg11.dtd">
<svg width="232pt" height="220pt" viewBox="0 0 232 220" version="1.1" xmlns="http://www.w3.org/2000/svg">
<path fill="#ffffff" opacity="1.00" d=" M 0.00 0.00 L 232.00 0.00 L 232.00 220.00 L 45.49 220.00 C 47.80 217.53 50.26 215.15 52.08 212.29 C 52.71 211.05 53.26 209.77 53.77 208.48 C 54.85 205.18 58.07 202.85 58.07 199.19 C 51.80 196.09 44.82 192.53 42.24 185.52 C 38.91 176.44 30.84 169.84 28.80 160.20 C 27.67 153.77 26.50 147.34 25.03 140.98 C 23.09 132.78 23.75 124.23 25.13 116.00 C 25.90 111.03 25.02 105.74 27.12 101.05 C 31.18 93.35 35.14 85.60 38.69 77.65 C 40.86 70.07 46.58 64.38 51.51 58.49 C 55.18 54.81 58.35 50.41 62.96 47.82 C 65.68 48.53 67.46 51.28 70.32 51.80 C 75.74 53.08 81.17 54.42 86.35 56.51 C 93.22 58.63 99.64 62.30 106.90 63.04 C 112.08 64.03 117.39 63.56 122.57 64.46 C 129.54 68.48 136.14 73.09 143.35 76.67 C 147.46 79.30 152.59 78.17 157.03 79.84 C 160.46 81.30 164.12 80.38 167.68 80.18 C 169.41 82.74 170.16 85.73 170.70 88.73 C 171.11 91.74 174.13 93.43 174.84 96.33 C 175.84 100.05 176.40 103.87 177.29 107.61 C 178.42 112.54 178.04 117.90 180.59 122.43 C 181.85 124.81 184.19 126.95 183.84 129.87 C 183.15 137.52 183.38 145.21 183.42 152.88 C 183.93 159.41 185.52 165.80 186.52 172.26 C 187.05 174.54 184.87 176.09 183.77 177.80 C 178.11 184.21 175.58 192.52 172.31 200.24 C 171.13 202.88 168.77 204.77 167.57 207.40 C 166.31 210.29 164.43 212.83 162.93 215.58 C 164.84 216.24 166.78 216.85 168.77 217.26 C 172.52 217.37 176.27 217.04 179.98 216.49 C 182.23 213.65 183.77 210.35 184.90 206.93 C 189.73 205.36 193.61 201.85 198.44 200.28 C 202.57 198.63 207.38 199.31 211.21 196.82 C 207.27 193.55 200.56 195.03 197.99 190.01 C 194.90 184.48 196.69 177.65 199.44 172.35 C 200.37 170.26 203.03 171.69 204.75 171.56 C 206.24 166.55 209.05 162.13 211.27 157.46 C 214.82 145.32 214.90 132.43 213.55 119.94 C 213.96 115.52 211.49 111.43 211.85 107.07 C 213.86 101.96 219.83 100.10 222.35 95.33 C 224.62 91.51 226.06 86.83 230.10 84.43 C 229.47 83.84 228.85 83.26 228.23 82.67 C 228.69 80.22 229.05 77.75 229.27 75.27 C 228.28 76.69 227.29 78.12 226.21 79.47 C 223.40 79.67 220.59 79.78 217.79 79.56 C 213.05 77.03 208.50 74.10 204.57 70.42 C 200.92 67.02 196.41 64.66 193.01 61.00 C 187.99 54.94 181.29 50.43 176.85 43.88 C 176.98 37.87 175.51 32.05 174.95 26.10 C 171.10 25.44 169.30 28.88 167.37 31.48 C 163.36 33.11 160.21 28.78 157.24 26.74 C 151.24 22.64 145.34 18.30 138.85 14.99 C 134.77 12.79 131.50 9.07 126.87 7.97 C 120.76 6.34 114.39 5.15 108.06 5.79 C 105.80 7.01 104.01 8.91 102.02 10.50 C 94.38 6.73 86.87 1.60 78.03 1.55 C 73.41 0.90 68.78 1.53 64.16 1.82 C 65.00 2.94 65.84 4.06 66.65 5.19 C 58.30 11.92 47.42 15.07 39.63 22.64 C 36.18 25.75 32.30 28.57 29.85 32.61 C 31.27 33.25 32.69 33.88 34.11 34.51 C 33.34 38.65 29.29 40.77 27.06 44.05 C 23.08 49.75 19.55 55.75 15.34 61.29 C 12.48 64.81 11.08 69.15 9.40 73.29 C 8.78 76.52 9.07 79.86 9.32 83.12 C 9.62 87.28 12.58 90.74 12.50 94.98 C 12.62 101.62 12.99 108.33 12.25 114.95 C 10.38 120.32 6.42 124.59 3.00 129.04 C 1.45 130.93 1.54 133.50 1.05 135.78 C 2.19 136.56 3.33 137.33 4.46 138.13 C 3.46 141.45 1.62 144.50 1.14 147.97 C 0.32 152.93 0.47 157.98 0.55 162.99 C 0.64 168.94 3.24 174.41 4.58 180.13 C 8.18 180.88 9.79 184.45 12.81 186.17 C 17.45 189.13 21.85 192.99 27.52 193.71 C 33.75 194.62 39.71 197.14 46.08 196.83 C 46.23 200.03 46.56 203.23 47.42 206.33 C 48.58 211.04 46.53 215.64 45.00 220.00 L 0.00 220.00 L 0.00 0.00 Z" />
<path fill="#080606" opacity="1.00" d=" M 64.16 1.82 C 68.78 1.53 73.41 0.90 78.03 1.55 C 86.87 1.60 94.38 6.73 102.02 10.50 C 104.01 8.91 105.80 7.01 108.06 5.79 C 114.39 5.15 120.76 6.34 126.87 7.97 C 131.50 9.07 134.77 12.79 138.85 14.99 C 145.34 18.30 151.24 22.64 157.24 26.74 C 160.21 28.78 163.36 33.11 167.37 31.48 C 169.30 28.88 171.10 25.44 174.95 26.10 C 175.51 32.05 176.98 37.87 176.85 43.88 C 181.29 50.43 187.99 54.94 193.01 61.00 C 196.41 64.66 200.92 67.02 204.57 70.42 C 208.50 74.10 213.05 77.03 217.79 79.56 C 219.75 80.59 221.85 81.33 223.94 82.06 C 224.70 81.20 225.47 80.35 226.21 79.47 C 227.29 78.12 228.28 76.69 229.27 75.27 C 229.05 77.75 228.69 80.22 228.23 82.67 C 228.85 83.26 229.47 83.84 230.10 84.43 C 226.06 86.83 224.62 91.51 222.35 95.33 C 219.83 100.10 213.86 101.96 211.85 107.07 C 211.49 111.43 213.96 115.52 213.55 119.94 C 214.90 132.43 214.82 145.32 211.27 157.46 C 209.05 162.13 206.24 166.55 204.75 171.56 C 203.03 171.69 200.37 170.26 199.44 172.35 C 196.69 177.65 194.90 184.48 197.99 190.01 C 200.56 195.03 207.27 193.55 211.21 196.82 C 207.38 199.31 202.57 198.63 198.44 200.28 C 193.61 201.85 189.73 205.36 184.90 206.93 C 183.77 210.35 182.23 213.65 179.98 216.49 C 179.56 216.33 178.72 216.01 178.30 215.85 C 179.55 213.10 180.81 210.35 181.80 207.49 C 179.78 205.84 177.74 204.20 175.68 202.60 C 172.16 204.92 169.26 208.23 167.45 212.03 C 167.39 213.86 168.26 215.54 168.77 217.26 C 166.78 216.85 164.84 216.24 162.93 215.58 C 164.43 212.83 166.31 210.29 167.57 207.40 C 168.77 204.77 171.13 202.88 172.31 200.24 C 175.58 192.52 178.11 184.21 183.77 177.80 C 184.87 176.09 187.05 174.54 186.52 172.26 C 185.52 165.80 183.93 159.41 183.42 152.88 C 183.38 145.21 183.15 137.52 183.84 129.87 C 184.19 126.95 181.85 124.81 180.59 122.43 C 178.04 117.90 178.42 112.54 177.29 107.61 C 176.40 103.87 175.84 100.05 174.84 96.33 C 174.13 93.43 171.11 91.74 170.70 88.73 C 170.16 85.73 169.41 82.74 167.68 80.18 C 164.12 80.38 160.46 81.30 157.03 79.84 C 152.59 78.17 147.46 79.30 143.35 76.67 C 136.14 73.09 129.54 68.48 122.57 64.46 C 117.39 63.56 112.08 64.03 106.90 63.04 C 99.64 62.30 93.22 58.63 86.35 56.51 C 81.17 54.42 75.74 53.08 70.32 51.80 C 67.46 51.28 65.68 48.53 62.96 47.82 C 58.35 50.41 55.18 54.81 51.51 58.49 C 46.58 64.38 40.86 70.07 38.69 77.65 C 35.14 85.60 31.18 93.35 27.12 101.05 C 25.02 105.74 25.90 111.03 25.13 116.00 C 23.75 124.23 23.09 132.78 25.03 140.98 C 26.50 147.34 27.67 153.77 28.80 160.20 C 30.84 169.84 38.91 176.44 42.24 185.52 C 44.82 192.53 51.80 196.09 58.07 199.19 C 58.07 202.85 54.85 205.18 53.77 208.48 C 53.31 204.77 54.64 198.46 49.33 198.00 C 49.48 202.85 49.60 207.95 52.08 212.29 C 50.26 215.15 47.80 217.53 45.49 220.00 L 45.00 220.00 C 46.53 215.64 48.58 211.04 47.42 206.33 C 46.56 203.23 46.23 200.03 46.08 196.83 C 39.71 197.14 33.75 194.62 27.52 193.71 C 21.85 192.99 17.45 189.13 12.81 186.17 C 9.79 184.45 8.18 180.88 4.58 180.13 C 3.24 174.41 0.64 168.94 0.55 162.99 C 0.47 157.98 0.32 152.93 1.14 147.97 C 1.62 144.50 3.46 141.45 4.46 138.13 C 3.33 137.33 2.19 136.56 1.05 135.78 C 1.54 133.50 1.45 130.93 3.00 129.04 C 6.42 124.59 10.38 120.32 12.25 114.95 C 12.99 108.33 12.62 101.62 12.50 94.98 C 12.58 90.74 9.62 87.28 9.32 83.12 C 9.07 79.86 8.78 76.52 9.40 73.29 C 11.08 69.15 12.48 64.81 15.34 61.29 C 19.55 55.75 23.08 49.75 27.06 44.05 C 29.29 40.77 33.34 38.65 34.11 34.51 C 32.69 33.88 31.27 33.25 29.85 32.61 C 32.30 28.57 36.18 25.75 39.63 22.64 C 47.42 15.07 58.30 11.92 66.65 5.19 C 65.84 4.06 65.00 2.94 64.16 1.82 M 57.77 14.75 C 49.80 19.30 42.94 25.40 36.11 31.45 C 37.26 31.99 38.41 32.54 39.55 33.09 C 35.70 39.23 30.00 43.90 25.72 49.72 C 19.89 58.53 13.43 67.37 11.52 78.02 C 15.05 93.97 17.93 111.82 9.88 126.94 C 7.43 130.44 9.28 134.88 7.49 138.58 C 5.46 143.64 2.45 148.44 1.83 153.96 C 1.36 159.19 3.23 164.19 5.00 169.01 C 5.99 171.56 6.69 174.36 8.65 176.38 C 10.14 175.84 11.84 173.72 13.47 175.02 C 12.32 182.17 18.67 187.93 24.99 189.82 C 31.22 191.62 37.33 194.37 43.87 194.77 C 42.88 190.12 40.00 186.19 38.30 181.81 C 36.77 177.64 32.78 175.11 30.95 171.12 C 25.90 162.23 24.96 151.85 23.23 141.97 C 22.03 135.71 22.72 129.31 22.53 122.99 C 22.32 117.63 23.23 112.33 23.49 106.99 C 23.70 102.41 25.79 98.23 26.84 93.82 C 28.01 88.38 32.08 84.28 34.23 79.26 C 36.88 73.20 40.49 67.64 44.25 62.22 C 49.03 55.72 55.53 50.83 61.12 45.09 C 66.18 39.37 73.58 36.81 79.99 33.00 C 97.19 25.34 117.95 23.45 135.28 31.75 C 141.45 34.16 145.66 39.56 151.14 43.04 C 153.50 43.70 156.30 43.63 158.53 42.55 C 160.03 40.23 162.14 37.93 162.70 35.24 C 159.27 30.95 154.36 28.23 150.00 25.01 C 145.37 21.53 140.28 18.76 135.45 15.57 C 129.30 11.53 122.29 8.75 115.01 7.59 C 112.03 7.33 107.86 7.17 106.35 10.35 C 105.96 12.92 108.31 14.82 109.77 16.64 C 108.09 16.47 106.34 16.66 104.70 16.15 C 98.56 12.64 93.37 7.16 86.25 5.56 C 83.55 4.92 80.93 3.07 78.06 3.78 C 70.41 5.55 64.48 11.02 57.77 14.75 M 83.68 34.70 C 77.61 38.00 71.52 41.48 66.27 46.01 C 71.14 52.45 80.05 50.41 86.73 53.27 C 95.95 55.91 104.42 60.86 114.00 62.27 C 117.62 61.40 121.34 61.26 124.98 62.17 C 129.83 63.25 134.86 62.09 139.69 63.09 C 139.71 63.70 139.76 64.91 139.78 65.51 C 137.16 65.67 134.54 65.93 131.94 66.26 C 137.80 69.80 143.42 74.12 150.21 75.74 C 155.65 77.30 161.34 76.94 166.90 77.53 C 166.93 73.38 164.69 69.80 162.62 66.39 C 160.63 63.24 158.73 59.98 155.98 57.43 C 154.04 60.33 152.73 63.59 151.62 66.89 C 151.07 66.81 149.99 66.66 149.45 66.59 C 146.78 63.14 145.59 58.69 142.38 55.60 C 139.59 52.07 135.19 49.49 133.99 44.93 C 136.34 44.42 138.45 45.70 140.55 46.52 C 143.28 47.76 146.32 47.82 149.25 48.14 C 148.66 46.97 148.14 45.73 147.23 44.77 C 138.40 35.44 125.90 29.52 113.03 29.08 C 102.93 27.84 92.96 31.08 83.68 34.70 M 179.51 51.97 C 179.19 53.65 178.92 55.34 178.69 57.03 C 172.38 58.21 166.53 53.49 160.14 54.32 C 160.01 54.72 159.73 55.53 159.60 55.94 C 164.23 61.81 167.28 68.63 170.54 75.31 C 172.23 75.50 174.03 75.62 175.35 76.83 C 174.85 78.26 174.36 79.68 173.86 81.10 C 174.74 83.00 176.34 84.74 176.14 86.97 C 176.00 90.39 176.50 93.79 177.79 96.98 C 179.01 99.87 178.09 103.06 178.77 106.05 C 180.08 112.39 180.66 119.60 185.79 124.21 C 188.29 127.07 192.17 127.58 195.67 128.32 C 195.70 128.99 195.75 130.33 195.78 130.99 C 192.56 131.22 189.49 130.04 186.39 129.36 C 184.83 134.78 185.49 140.45 185.41 146.00 C 185.36 153.77 186.37 161.51 187.96 169.11 C 188.35 171.24 188.97 173.42 188.58 175.60 C 186.99 178.61 183.77 180.56 182.84 183.97 C 182.01 187.07 179.42 189.11 177.79 191.75 C 176.40 194.16 177.50 196.94 178.76 199.13 C 180.09 201.42 181.67 205.00 184.95 204.23 C 190.37 202.69 195.06 199.40 199.49 196.03 C 197.85 193.85 195.95 191.86 194.58 189.50 C 192.66 186.59 194.30 183.14 194.49 179.99 C 194.89 174.47 197.66 169.57 199.12 164.33 C 199.75 162.14 199.26 159.56 200.89 157.76 C 201.84 158.59 202.96 159.26 203.71 160.31 C 204.00 161.92 203.51 163.55 203.43 165.17 C 206.06 163.78 207.04 160.80 208.32 158.32 C 210.34 154.21 211.28 149.67 211.59 145.12 C 213.56 134.09 212.03 122.83 210.62 111.83 C 210.47 107.50 206.84 104.58 205.70 100.59 C 207.93 100.92 210.06 101.64 212.14 102.46 C 217.42 98.08 220.78 91.95 223.65 85.83 C 220.74 84.14 217.42 83.25 214.65 81.31 C 210.26 78.45 206.75 74.49 202.54 71.39 C 194.99 66.08 188.91 59.04 181.82 53.18 C 181.08 52.71 180.31 52.31 179.51 51.97 Z" />
<path fill="#d19812" opacity="1.00" d=" M 57.77 14.75 C 64.48 11.02 70.41 5.55 78.06 3.78 C 80.93 3.07 83.55 4.92 86.25 5.56 C 93.37 7.16 98.56 12.64 104.70 16.15 C 106.34 16.66 108.09 16.47 109.77 16.64 C 108.31 14.82 105.96 12.92 106.35 10.35 C 107.86 7.17 112.03 7.33 115.01 7.59 C 122.29 8.75 129.30 11.53 135.45 15.57 C 140.28 18.76 145.37 21.53 150.00 25.01 C 154.36 28.23 159.27 30.95 162.70 35.24 C 162.14 37.93 160.03 40.23 158.53 42.55 C 156.30 43.63 153.50 43.70 151.14 43.04 C 145.66 39.56 141.45 34.16 135.28 31.75 C 117.95 23.45 97.19 25.34 79.99 33.00 C 73.58 36.81 66.18 39.37 61.12 45.09 C 55.53 50.83 49.03 55.72 44.25 62.22 C 40.49 67.64 36.88 73.20 34.23 79.26 C 32.08 84.28 28.01 88.38 26.84 93.82 C 25.79 98.23 23.70 102.41 23.49 106.99 C 23.23 112.33 22.32 117.63 22.53 122.99 C 22.72 129.31 22.03 135.71 23.23 141.97 C 24.96 151.85 25.90 162.23 30.95 171.12 C 32.78 175.11 36.77 177.64 38.30 181.81 C 40.00 186.19 42.88 190.12 43.87 194.77 C 37.33 194.37 31.22 191.62 24.99 189.82 C 18.67 187.93 12.32 182.17 13.47 175.02 C 11.84 173.72 10.14 175.84 8.65 176.38 C 6.69 174.36 5.99 171.56 5.00 169.01 C 3.23 164.19 1.36 159.19 1.83 153.96 C 2.45 148.44 5.46 143.64 7.49 138.58 C 9.28 134.88 7.43 130.44 9.88 126.94 C 17.93 111.82 15.05 93.97 11.52 78.02 C 13.43 67.37 19.89 58.53 25.72 49.72 C 30.00 43.90 35.70 39.23 39.55 33.09 C 38.41 32.54 37.26 31.99 36.11 31.45 C 42.94 25.40 49.80 19.30 57.77 14.75 M 32.13 178.31 C 32.34 178.75 32.74 179.64 32.94 180.08 C 33.38 180.27 34.25 180.66 34.69 180.86 C 34.68 180.22 34.67 178.93 34.66 178.29 C 34.03 178.30 32.77 178.31 32.13 178.31 Z" />
<path fill="#d19812" opacity="1.00" d=" M 83.68 34.70 C 92.96 31.08 102.93 27.84 113.03 29.08 C 125.90 29.52 138.40 35.44 147.23 44.77 C 148.14 45.73 148.66 46.97 149.25 48.14 C 146.32 47.82 143.28 47.76 140.55 46.52 C 138.45 45.70 136.34 44.42 133.99 44.93 C 135.19 49.49 139.59 52.07 142.38 55.60 C 145.59 58.69 146.78 63.14 149.45 66.59 C 149.99 66.66 151.07 66.81 151.62 66.89 C 152.73 63.59 154.04 60.33 155.98 57.43 C 158.73 59.98 160.63 63.24 162.62 66.39 C 164.69 69.80 166.93 73.38 166.90 77.53 C 161.34 76.94 155.65 77.30 150.21 75.74 C 143.42 74.12 137.80 69.80 131.94 66.26 C 134.54 65.93 137.16 65.67 139.78 65.51 C 139.76 64.91 139.71 63.70 139.69 63.09 C 134.86 62.09 129.83 63.25 124.98 62.17 C 121.34 61.26 117.62 61.40 114.00 62.27 C 104.42 60.86 95.95 55.91 86.73 53.27 C 80.05 50.41 71.14 52.45 66.27 46.01 C 71.52 41.48 77.61 38.00 83.68 34.70 Z" />
<path fill="#d19812" opacity="1.00" d=" M 179.51 51.97 C 180.31 52.31 181.08 52.71 181.82 53.18 C 188.91 59.04 194.99 66.08 202.54 71.39 C 206.75 74.49 210.26 78.45 214.65 81.31 C 217.42 83.25 220.74 84.14 223.65 85.83 C 220.78 91.95 217.42 98.08 212.14 102.46 C 210.06 101.64 207.93 100.92 205.70 100.59 C 206.84 104.58 210.47 107.50 210.62 111.83 C 212.03 122.83 213.56 134.09 211.59 145.12 C 211.28 149.67 210.34 154.21 208.32 158.32 C 207.04 160.80 206.06 163.78 203.43 165.17 C 203.51 163.55 204.00 161.92 203.71 160.31 C 202.96 159.26 201.84 158.59 200.89 157.76 C 199.26 159.56 199.75 162.14 199.12 164.33 C 197.66 169.57 194.89 174.47 194.49 179.99 C 194.30 183.14 192.66 186.59 194.58 189.50 C 195.95 191.86 197.85 193.85 199.49 196.03 C 195.06 199.40 190.37 202.69 184.95 204.23 C 181.67 205.00 180.09 201.42 178.76 199.13 C 177.50 196.94 176.40 194.16 177.79 191.75 C 179.42 189.11 182.01 187.07 182.84 183.97 C 183.77 180.56 186.99 178.61 188.58 175.60 C 188.97 173.42 188.35 171.24 187.96 169.11 C 186.37 161.51 185.36 153.77 185.41 146.00 C 185.49 140.45 184.83 134.78 186.39 129.36 C 189.49 130.04 192.56 131.22 195.78 130.99 C 195.75 130.33 195.70 128.99 195.67 128.32 C 192.17 127.58 188.29 127.07 185.79 124.21 C 180.66 119.60 180.08 112.39 178.77 106.05 C 178.09 103.06 179.01 99.87 177.79 96.98 C 176.50 93.79 176.00 90.39 176.14 86.97 C 176.34 84.74 174.74 83.00 173.86 81.10 C 174.36 79.68 174.85 78.26 175.35 76.83 C 174.03 75.62 172.23 75.50 170.54 75.31 C 167.28 68.63 164.23 61.81 159.60 55.94 C 159.73 55.53 160.01 54.72 160.14 54.32 C 166.53 53.49 172.38 58.21 178.69 57.03 C 178.92 55.34 179.19 53.65 179.51 51.97 Z" />
<path fill="#d19812" opacity="1.00" d=" M 217.79 79.56 C 220.59 79.78 223.40 79.67 226.21 79.47 C 225.47 80.35 224.70 81.20 223.94 82.06 C 221.85 81.33 219.75 80.59 217.79 79.56 Z" />
<path fill="#080606" opacity="1.00" d=" M 32.13 178.31 C 32.77 178.31 34.03 178.30 34.66 178.29 C 34.67 178.93 34.68 180.22 34.69 180.86 C 34.25 180.66 33.38 180.27 32.94 180.08 C 32.74 179.64 32.34 178.75 32.13 178.31 Z" />
<path fill="#d19812" opacity="1.00" d=" M 49.33 198.00 C 54.64 198.46 53.31 204.77 53.77 208.48 C 53.26 209.77 52.71 211.05 52.08 212.29 C 49.60 207.95 49.48 202.85 49.33 198.00 Z" />
<path fill="#d19812" opacity="1.00" d=" M 167.45 212.03 C 169.26 208.23 172.16 204.92 175.68 202.60 C 177.74 204.20 179.78 205.84 181.80 207.49 C 180.81 210.35 179.55 213.10 178.30 215.85 C 178.72 216.01 179.56 216.33 179.98 216.49 C 176.27 217.04 172.52 217.37 168.77 217.26 C 168.26 215.54 167.39 213.86 167.45 212.03 Z" />
</svg>
