<?xml version="1.0" encoding="utf-8"?>
<!-- Generator: Adobe Illustrator 15.0.2, SVG Export Plug-In . SVG Version: 6.00 Build 0)  -->
<!DOCTYPE svg PUBLIC "-//W3C//DTD SVG 1.1//EN" "http://www.w3.org/Graphics/SVG/1.1/DTD/svg11.dtd">
<svg version="1.1" id="Layer_1" xmlns="http://www.w3.org/2000/svg" xmlns:xlink="http://www.w3.org/1999/xlink" x="0px" y="0px"
	 width="115px" height="200px" viewBox="0 0 115 200" enable-background="new 0 0 115 200" xml:space="preserve">
<path fill="#FFFFFF" d="M0,0h115v200H0V0 M46.57,20.64c-6.23,3.38-12.75,6.27-18.63,10.25c-2.29,1.75-4.98,3.62-5.56,6.66
	l-0.86-0.27l0.14,1.97c2.89,5.69,9.89,6.62,13.86,11.26c4.95,4.53,8.91,10.43,14.92,13.61c-3.61,5.61-11.87,6.71-14.26,13.47
	c2.88,0.52,5.88,0.12,8.47-1.25l0.15-1.22c2.86-3.22,6.92-4.94,10.31-7.5c-0.09,5.29-6.16,6.57-9.93,8.57
	c0.38,0.81,0.81,1.59,1.3,2.34c-1.92,2.7-4.03,5.31-5.44,8.33c4.12-0.99,5.52-5.65,8.43-8.25c2.61-1.15,5.15,1.15,7.8,0.92
	c0.6-3.1-3.21-2.46-4.99-3.28c1.66-5.02,6.27-8.04,9.66-11.81c13.82-2.96,24.5-13.11,37.67-17.65c4.17-0.98,10.511-0.62,11.371-6.13
	C102,41.2,94.59,47.08,85.77,48.29c-0.279-0.21-0.83-0.62-1.109-0.83c-1.93-11.66-5.82-23.15-5.26-35.11
	C67.92,11.85,56.62,15.31,46.57,20.64 M52.46,84.48c-6.18,3.64-10.14,10.49-10.78,17.57c0.44,3.8,2.18,7.261,3.23,10.89
	c-0.63,2.021-3.35,2.11-4.95,3.141c8.1,20.63,6.59,43.41,4.1,64.99c-0.86,5.109-0.88,10.43-2.57,15.35
	c1.31,0.17,2.62,0.311,3.93,0.46c1.13-8.569,2.13-17.17,2.26-25.819c1.47-17.021,0.06-34.08-0.14-51.121
	c5.5,0.771,10.94,2.82,16.569,1.871C69.23,121,74.92,119.42,78,114.9c3.12-4.28,3.8-10.041,2.38-15.07
	C78.93,92.63,75,84.54,67.21,82.7C62.33,81.81,56.77,81.58,52.46,84.48z"/>
<path fill="#010101" d="M46.57,20.64c10.05-5.33,21.35-8.79,32.831-8.29c-0.561,11.96,3.33,23.45,5.26,35.11
	c0.279,0.21,0.83,0.62,1.109,0.83c8.82-1.21,16.23-7.09,25.211-7.63c-0.86,5.51-7.201,5.15-11.371,6.13
	c-13.17,4.54-23.85,14.69-37.67,17.65c-3.39,3.77-8,6.79-9.66,11.81c1.78,0.82,5.59,0.18,4.99,3.28c-2.65,0.229-5.19-2.07-7.8-0.92
	c-2.91,2.6-4.31,7.26-8.43,8.25c1.41-3.02,3.52-5.63,5.44-8.33c-0.49-0.75-0.92-1.53-1.3-2.34c3.77-2,9.84-3.28,9.93-8.57
	c-3.39,2.56-7.45,4.28-10.31,7.5l-0.15,1.22c-2.59,1.37-5.59,1.77-8.47,1.25c2.39-6.76,10.65-7.86,14.26-13.47
	c-6.01-3.18-9.97-9.08-14.92-13.61c-3.97-4.64-10.97-5.57-13.86-11.26l-0.14-1.97l0.86,0.27c0.58-3.04,3.27-4.91,5.56-6.66
	C33.82,26.91,40.34,24.02,46.57,20.64 M36.02,31.28c2.15,5.51,8.02,8.54,9.68,14.34c6.18,2.56,13.17,6.38,14.26,13.69
	c2.19-0.56,4.47-1.2,5.81-3.19C61.37,48.98,54.11,44.36,49.06,37.77c-2.41-3.07-3.24-6.94-4.92-10.37
	C40.98,27.26,38.79,30.14,36.02,31.28z"/>
<path fill="#FDFDFD" d="M36.02,31.28c2.77-1.14,4.96-4.021,8.12-3.88c1.68,3.43,2.51,7.3,4.92,10.37
	c5.05,6.59,12.31,11.21,16.709,18.35c-1.34,1.99-3.619,2.63-5.81,3.19C58.87,52,51.88,48.18,45.7,45.62
	C44.04,39.82,38.17,36.79,36.02,31.28z"/>
<path fill="#020202" d="M52.46,84.48c4.31-2.9,9.87-2.67,14.75-1.78c7.79,1.84,11.72,9.93,13.17,17.13
	c1.42,5.029,0.74,10.79-2.38,15.07c-3.08,4.52-8.77,6.1-13.891,6.91c-5.629,0.949-11.069-1.101-16.569-1.871
	c0.2,17.041,1.61,34.101,0.14,51.121c-0.13,8.649-1.13,17.25-2.26,25.819c-1.31-0.149-2.62-0.29-3.93-0.46
	c1.69-4.92,1.71-10.24,2.57-15.35c2.49-21.58,4-44.36-4.1-64.99c1.6-1.03,4.32-1.12,4.95-3.141c-1.05-3.629-2.79-7.09-3.23-10.89
	C42.32,94.97,46.28,88.12,52.46,84.48 M50.21,91.91c-7.43,6.51-6.2,19.51,1.31,25.46c3.79,3.021,8.93,3.239,13.56,2.87
	c5.83-1.301,10.87-5.43,13.09-11c3.41-7.4,0.25-17.87-7.9-20.521C63.609,87.18,55.75,87.44,50.21,91.91z"/>
<path fill="#FFFFFF" d="M50.21,91.91c5.54-4.47,13.399-4.73,20.06-3.19c8.15,2.65,11.311,13.12,7.9,20.521
	c-2.22,5.57-7.26,9.699-13.09,11c-4.63,0.369-9.77,0.15-13.56-2.87C44.01,111.42,42.78,98.42,50.21,91.91z"/>
</svg>
