<?xml version="1.0" encoding="UTF-8" ?>
<!DOCTYPE svg PUBLIC "-//W3C//DTD SVG 1.1//EN" "http://www.w3.org/Graphics/SVG/1.1/DTD/svg11.dtd">
<svg width="232pt" height="220pt" viewBox="0 0 232 220" version="1.1" xmlns="http://www.w3.org/2000/svg">
<path fill="#ffffff" opacity="1.00" d=" M 0.00 0.00 L 71.47 0.00 C 71.39 0.97 71.31 1.95 71.24 2.92 C 70.92 2.46 70.28 1.55 69.96 1.09 C 67.97 1.08 65.98 1.02 63.99 0.93 C 64.65 2.30 67.05 3.96 65.76 5.52 C 59.64 10.12 52.44 12.99 45.91 16.90 C 40.40 22.00 33.67 25.90 29.77 32.53 C 31.28 33.15 32.78 33.76 34.29 34.37 C 33.83 37.36 31.13 39.11 29.27 41.25 C 24.81 45.39 22.81 51.35 18.92 55.95 C 14.09 61.91 10.38 68.78 8.38 76.19 C 8.72 81.16 8.80 86.56 12.17 90.59 C 11.38 96.52 13.76 102.40 12.48 108.29 C 11.93 111.97 12.65 116.05 10.19 119.18 C 7.16 124.86 1.70 129.05 0.00 135.45 L 0.00 0.00 Z" />
<path fill="#0b0d0a" opacity="1.00" d=" M 71.47 0.00 L 73.15 0.00 C 77.11 1.97 81.83 0.06 85.76 2.23 C 91.28 4.65 97.24 6.41 102.03 10.20 C 103.20 9.36 104.36 8.52 105.50 7.64 C 105.63 8.11 105.89 9.04 106.02 9.50 C 109.06 8.31 112.25 7.00 115.59 7.56 C 118.58 8.00 121.66 8.07 124.45 6.72 C 130.97 7.29 135.01 12.99 140.79 15.30 C 145.61 17.57 149.62 21.20 154.28 23.76 C 158.99 26.16 162.01 31.57 167.62 32.14 C 168.56 30.31 169.30 28.27 170.85 26.85 C 172.52 25.49 174.75 25.31 176.78 24.92 C 176.17 31.30 178.18 37.47 177.86 43.84 C 182.13 50.89 189.65 54.98 194.30 61.70 C 197.72 64.65 201.79 66.79 205.11 69.88 C 208.91 73.63 213.44 76.60 218.20 78.99 C 221.36 79.47 224.57 78.97 227.75 78.99 C 228.75 77.54 229.78 76.10 231.05 74.87 C 230.64 77.81 228.83 80.45 229.11 83.48 C 229.83 83.67 231.28 84.04 232.00 84.23 L 232.00 84.75 C 230.68 85.07 229.07 84.98 228.17 86.19 C 224.81 90.84 223.41 97.05 218.54 100.53 C 216.52 101.97 214.85 103.82 213.06 105.52 C 211.63 105.46 210.20 105.39 208.78 105.32 C 211.23 110.02 212.30 115.27 212.42 120.54 C 213.01 133.15 214.40 146.50 208.93 158.31 C 209.75 158.61 210.57 158.91 211.40 159.22 C 209.13 163.26 207.46 167.59 205.67 171.86 C 204.06 171.71 202.37 171.08 200.81 171.78 C 198.38 175.34 197.24 179.65 197.00 183.92 C 197.65 187.41 198.09 191.68 201.37 193.77 C 204.66 194.12 207.89 194.79 210.87 196.28 C 210.88 196.88 210.90 198.09 210.91 198.69 C 204.90 198.78 198.67 200.16 193.74 203.74 C 191.31 205.53 188.21 206.03 185.73 207.70 C 183.98 210.62 183.30 214.29 180.61 216.60 C 178.32 217.03 176.00 217.32 173.72 217.79 C 170.47 218.49 167.30 217.18 164.15 216.55 C 164.14 216.03 164.12 214.98 164.10 214.46 C 165.63 213.46 167.18 212.38 167.45 210.43 C 168.08 207.18 170.51 204.90 172.41 202.36 C 173.90 198.01 176.46 194.14 177.81 189.74 C 180.16 183.81 184.15 178.73 188.11 173.80 C 187.37 169.65 185.82 165.64 185.60 161.37 C 183.20 153.78 184.32 145.78 184.07 137.96 C 183.93 134.98 184.69 132.08 185.02 129.14 C 184.40 125.23 180.36 123.11 179.67 119.26 C 179.71 117.85 179.77 116.45 179.85 115.04 C 180.71 115.64 181.56 116.25 182.42 116.85 C 180.66 110.13 178.13 103.39 178.48 96.34 C 178.14 92.79 177.22 89.32 176.59 85.82 C 174.46 88.66 176.65 91.92 177.29 94.88 C 176.72 94.68 175.58 94.28 175.01 94.08 C 173.86 92.83 172.60 91.70 171.32 90.60 C 171.48 86.65 170.00 83.00 167.84 79.77 C 165.67 80.19 163.53 80.95 161.30 80.89 C 155.95 77.91 149.48 78.39 143.85 76.12 C 136.89 73.22 130.95 68.48 124.39 64.83 C 125.64 63.42 127.42 62.81 129.12 62.16 C 122.83 59.55 115.75 60.52 109.72 63.33 C 105.14 63.22 100.97 61.28 96.56 60.31 C 93.61 58.67 90.84 56.68 87.32 56.56 C 82.06 53.88 76.19 52.75 70.42 51.59 C 67.82 50.77 65.85 48.81 63.83 47.09 C 62.94 47.45 62.05 47.82 61.17 48.19 C 61.70 46.65 62.19 45.10 62.69 43.55 C 58.66 45.77 54.93 48.65 52.56 52.66 C 54.45 51.71 56.33 50.36 58.56 50.77 C 56.96 52.44 55.23 53.97 53.59 55.60 C 48.01 62.51 40.89 68.77 38.61 77.70 C 36.83 81.31 34.47 84.63 33.54 88.62 C 30.79 92.73 29.50 97.63 26.35 101.49 C 24.87 106.96 25.27 112.68 24.24 118.22 C 23.87 120.77 23.97 123.36 23.98 125.94 C 23.46 125.78 22.41 125.46 21.88 125.30 C 21.34 134.54 22.82 143.71 24.31 152.80 C 25.59 156.79 26.44 160.90 27.36 164.99 C 27.83 164.40 28.76 163.24 29.23 162.66 C 31.15 168.00 34.21 172.82 37.53 177.39 C 40.94 182.23 42.42 188.21 46.21 192.78 C 50.10 195.40 54.22 197.72 58.14 200.32 C 57.65 203.60 54.86 205.82 53.90 208.93 C 52.34 213.29 49.31 216.83 46.02 220.00 L 45.12 220.00 C 46.38 215.84 48.78 211.71 47.73 207.23 C 47.87 205.73 48.13 204.25 48.40 202.78 C 48.99 204.77 49.56 206.76 50.20 208.74 C 51.25 205.04 49.18 200.95 51.74 197.63 C 50.19 197.41 48.64 197.59 47.21 198.26 C 46.88 197.99 46.20 197.46 45.87 197.19 C 42.83 196.84 39.65 197.37 36.75 196.20 C 32.60 194.41 27.86 195.06 23.71 193.25 C 19.66 191.50 16.32 188.51 12.37 186.56 C 10.05 185.58 8.87 183.26 7.62 181.23 C 6.57 181.25 5.51 181.29 4.46 181.30 C 3.14 176.86 2.21 172.30 0.00 168.18 L 0.00 166.59 C 0.08 166.42 0.24 166.09 0.32 165.92 C 0.61 165.39 1.19 164.33 1.48 163.80 C 1.85 163.66 2.58 163.38 2.95 163.23 C 2.31 158.97 1.80 154.68 0.94 150.46 C 0.09 145.60 4.21 141.98 4.17 137.29 C 2.77 136.91 1.38 136.52 0.00 136.09 L 0.00 135.45 C 1.70 129.05 7.16 124.86 10.19 119.18 C 11.20 119.39 12.20 119.61 13.21 119.82 C 15.58 110.76 15.23 101.22 14.29 91.97 C 13.98 88.55 13.93 84.98 12.25 81.88 C 12.59 84.78 12.84 87.72 12.17 90.59 C 8.80 86.56 8.72 81.16 8.38 76.19 C 10.38 68.78 14.09 61.91 18.92 55.95 C 22.81 51.35 24.81 45.39 29.27 41.25 C 31.13 39.11 33.83 37.36 34.29 34.37 C 32.78 33.76 31.28 33.15 29.77 32.53 C 33.67 25.90 40.40 22.00 45.91 16.90 C 52.44 12.99 59.64 10.12 65.76 5.52 C 67.05 3.96 64.65 2.30 63.99 0.93 C 65.98 1.02 67.97 1.08 69.96 1.09 C 70.28 1.55 70.92 2.46 71.24 2.92 C 71.31 1.95 71.39 0.97 71.47 0.00 M 162.01 49.88 C 164.20 50.09 166.42 50.00 168.57 50.50 C 171.36 51.75 173.73 54.28 177.02 53.92 C 177.86 50.91 174.89 48.91 174.84 46.06 C 174.33 41.24 176.25 35.48 172.10 31.80 C 167.52 36.99 162.61 42.66 162.01 49.88 M 155.86 48.25 C 155.82 49.37 155.82 50.50 155.84 51.63 C 157.17 51.35 158.51 51.11 159.85 50.88 C 159.51 49.99 159.17 49.10 158.83 48.21 C 158.09 48.22 156.61 48.24 155.86 48.25 M 141.05 49.16 C 142.45 52.10 144.99 54.31 148.28 54.78 C 149.07 56.16 149.85 57.55 150.63 58.94 C 151.04 56.55 151.92 54.30 153.05 52.16 C 149.53 49.57 145.00 50.48 141.05 49.16 Z" />
<path fill="#ffffff" opacity="1.00" d=" M 73.15 0.00 L 232.00 0.00 L 232.00 84.23 C 231.28 84.04 229.83 83.67 229.11 83.48 C 228.83 80.45 230.64 77.81 231.05 74.87 C 229.78 76.10 228.75 77.54 227.75 78.99 C 224.57 78.97 221.36 79.47 218.20 78.99 C 213.44 76.60 208.91 73.63 205.11 69.88 C 201.79 66.79 197.72 64.65 194.30 61.70 C 189.65 54.98 182.13 50.89 177.86 43.84 C 178.18 37.47 176.17 31.30 176.78 24.92 C 174.75 25.31 172.52 25.49 170.85 26.85 C 169.30 28.27 168.56 30.31 167.62 32.14 C 162.01 31.57 158.99 26.16 154.28 23.76 C 149.62 21.20 145.61 17.57 140.79 15.30 C 135.01 12.99 130.97 7.29 124.45 6.72 C 119.44 5.68 114.32 4.52 109.17 5.11 C 107.57 5.24 106.43 6.45 105.50 7.64 C 104.36 8.52 103.20 9.36 102.03 10.20 C 97.24 6.41 91.28 4.65 85.76 2.23 C 81.83 0.06 77.11 1.97 73.15 0.00 Z" />
<path fill="#2d2413" opacity="1.00" d=" M 105.50 7.64 C 106.43 6.45 107.57 5.24 109.17 5.11 C 114.32 4.52 119.44 5.68 124.45 6.72 C 121.66 8.07 118.58 8.00 115.59 7.56 C 112.25 7.00 109.06 8.31 106.02 9.50 C 105.89 9.04 105.63 8.11 105.50 7.64 Z" />
<path fill="#ff60f9" opacity="1.00" d=" M 162.01 49.88 C 162.61 42.66 167.52 36.99 172.10 31.80 C 176.25 35.48 174.33 41.24 174.84 46.06 C 174.89 48.91 177.86 50.91 177.02 53.92 C 173.73 54.28 171.36 51.75 168.57 50.50 C 166.42 50.00 164.20 50.09 162.01 49.88 Z" />
<path fill="#2d2413" opacity="1.00" d=" M 52.56 52.66 C 54.93 48.65 58.66 45.77 62.69 43.55 C 62.19 45.10 61.70 46.65 61.17 48.19 C 60.30 49.06 59.43 49.92 58.56 50.77 C 56.33 50.36 54.45 51.71 52.56 52.66 Z" />
<path fill="#ffffff" opacity="1.00" d=" M 61.17 48.19 C 62.05 47.82 62.94 47.45 63.83 47.09 C 65.85 48.81 67.82 50.77 70.42 51.59 C 76.19 52.75 82.06 53.88 87.32 56.56 C 90.84 56.68 93.61 58.67 96.56 60.31 C 100.97 61.28 105.14 63.22 109.72 63.33 C 114.54 64.44 119.80 62.92 124.39 64.83 C 130.95 68.48 136.89 73.22 143.85 76.12 C 149.48 78.39 155.95 77.91 161.30 80.89 C 163.53 80.95 165.67 80.19 167.84 79.77 C 170.00 83.00 171.48 86.65 171.32 90.60 C 172.60 91.70 173.86 92.83 175.01 94.08 C 176.80 98.42 176.89 103.20 178.37 107.63 C 179.57 111.40 178.59 115.46 179.67 119.26 C 180.36 123.11 184.40 125.23 185.02 129.14 C 184.69 132.08 183.93 134.98 184.07 137.96 C 184.32 145.78 183.20 153.78 185.60 161.37 C 185.82 165.64 187.37 169.65 188.11 173.80 C 184.15 178.73 180.16 183.81 177.81 189.74 C 176.46 194.14 173.90 198.01 172.41 202.36 C 170.51 204.90 168.08 207.18 167.45 210.43 C 167.18 212.38 165.63 213.46 164.10 214.46 C 164.12 214.98 164.14 216.03 164.15 216.55 C 167.30 217.18 170.47 218.49 173.72 217.79 C 176.00 217.32 178.32 217.03 180.61 216.60 C 183.30 214.29 183.98 210.62 185.73 207.70 C 188.21 206.03 191.31 205.53 193.74 203.74 C 198.67 200.16 204.90 198.78 210.91 198.69 C 210.90 198.09 210.88 196.88 210.87 196.28 C 207.89 194.79 204.66 194.12 201.37 193.77 C 198.09 191.68 197.65 187.41 197.00 183.92 C 197.24 179.65 198.38 175.34 200.81 171.78 C 202.37 171.08 204.06 171.71 205.67 171.86 C 207.46 167.59 209.13 163.26 211.40 159.22 C 213.05 155.65 213.80 151.71 214.67 147.90 C 215.17 137.36 215.03 126.78 214.70 116.24 C 213.20 112.85 212.64 109.22 213.06 105.52 C 214.85 103.82 216.52 101.97 218.54 100.53 C 223.41 97.05 224.81 90.84 228.17 86.19 C 229.07 84.98 230.68 85.07 232.00 84.75 L 232.00 220.00 L 46.02 220.00 C 49.31 216.83 52.34 213.29 53.90 208.93 C 54.86 205.82 57.65 203.60 58.14 200.32 C 54.22 197.72 50.10 195.40 46.21 192.78 C 42.42 188.21 40.94 182.23 37.53 177.39 C 34.21 172.82 31.15 168.00 29.23 162.66 C 27.59 158.74 28.45 154.29 26.56 150.44 C 25.73 146.90 25.14 143.30 24.22 139.77 C 23.59 135.19 24.18 130.55 23.98 125.94 C 23.97 123.36 23.87 120.77 24.24 118.22 C 25.27 112.68 24.87 106.96 26.35 101.49 C 29.50 97.63 30.79 92.73 33.54 88.62 C 34.47 84.63 36.83 81.31 38.61 77.70 C 40.89 68.77 48.01 62.51 53.59 55.60 C 55.23 53.97 56.96 52.44 58.56 50.77 C 59.43 49.92 60.30 49.06 61.17 48.19 Z" />
<path fill="#ff60f9" opacity="1.00" d=" M 155.86 48.25 C 156.61 48.24 158.09 48.22 158.83 48.21 C 159.17 49.10 159.51 49.99 159.85 50.88 C 158.51 51.11 157.17 51.35 155.84 51.63 C 155.82 50.50 155.82 49.37 155.86 48.25 Z" />
<path fill="#ff60f9" opacity="1.00" d=" M 141.05 49.16 C 145.00 50.48 149.53 49.57 153.05 52.16 C 151.92 54.30 151.04 56.55 150.63 58.94 C 149.85 57.55 149.07 56.16 148.28 54.78 C 144.99 54.31 142.45 52.10 141.05 49.16 Z" />
<path fill="#2d2413" opacity="1.00" d=" M 109.72 63.33 C 115.75 60.52 122.83 59.55 129.12 62.16 C 127.42 62.81 125.64 63.42 124.39 64.83 C 119.80 62.92 114.54 64.44 109.72 63.33 Z" />
<path fill="#2d2413" opacity="1.00" d=" M 12.25 81.88 C 13.93 84.98 13.98 88.55 14.29 91.97 C 15.23 101.22 15.58 110.76 13.21 119.82 C 12.20 119.61 11.20 119.39 10.19 119.18 C 12.65 116.05 11.93 111.97 12.48 108.29 C 13.76 102.40 11.38 96.52 12.17 90.59 C 12.84 87.72 12.59 84.78 12.25 81.88 Z" />
<path fill="#2d2413" opacity="1.00" d=" M 177.29 94.88 C 176.65 91.92 174.46 88.66 176.59 85.82 C 177.22 89.32 178.14 92.79 178.48 96.34 C 178.13 103.39 180.66 110.13 182.42 116.85 C 181.56 116.25 180.71 115.64 179.85 115.04 C 179.77 116.45 179.71 117.85 179.67 119.26 C 178.59 115.46 179.57 111.40 178.37 107.63 C 176.89 103.20 176.80 98.42 175.01 94.08 C 175.58 94.28 176.72 94.68 177.29 94.88 Z" />
<path fill="#2d2413" opacity="1.00" d=" M 208.78 105.32 C 210.20 105.39 211.63 105.46 213.06 105.52 C 212.64 109.22 213.20 112.85 214.70 116.24 C 215.03 126.78 215.17 137.36 214.67 147.90 C 213.80 151.71 213.05 155.65 211.40 159.22 C 210.57 158.91 209.75 158.61 208.93 158.31 C 214.40 146.50 213.01 133.15 212.42 120.54 C 212.30 115.27 211.23 110.02 208.78 105.32 Z" />
<path fill="#2d2413" opacity="1.00" d=" M 21.88 125.30 C 22.41 125.46 23.46 125.78 23.98 125.94 C 24.18 130.55 23.59 135.19 24.22 139.77 C 25.14 143.30 25.73 146.90 26.56 150.44 C 28.45 154.29 27.59 158.74 29.23 162.66 C 28.76 163.24 27.83 164.40 27.36 164.99 C 26.44 160.90 25.59 156.79 24.31 152.80 C 22.82 143.71 21.34 134.54 21.88 125.30 Z" />
<path fill="#ffffff" opacity="1.00" d=" M 0.00 136.09 C 1.38 136.52 2.77 136.91 4.17 137.29 C 4.21 141.98 0.09 145.60 0.94 150.46 L 0.00 151.28 L 0.00 136.09 Z" />
<path fill="#2d2413" opacity="1.00" d=" M 0.00 151.28 L 0.94 150.46 C 1.80 154.68 2.31 158.97 2.95 163.23 C 2.58 163.38 1.85 163.66 1.48 163.80 C 1.19 164.33 0.61 165.39 0.32 165.92 L 0.00 166.24 L 0.00 151.28 Z" />
<path fill="#ffffff" opacity="1.00" d=" M 0.00 166.24 L 0.32 165.92 C 0.24 166.09 0.08 166.42 0.00 166.59 L 0.00 166.24 Z" />
<path fill="#ffffff" opacity="1.00" d=" M 0.00 168.18 C 2.21 172.30 3.14 176.86 4.46 181.30 C 5.51 181.29 6.57 181.25 7.62 181.23 C 8.87 183.26 10.05 185.58 12.37 186.56 C 16.32 188.51 19.66 191.50 23.71 193.25 C 27.86 195.06 32.60 194.41 36.75 196.20 C 39.65 197.37 42.83 196.84 45.87 197.19 C 45.93 200.62 45.91 204.19 47.73 207.23 C 48.78 211.71 46.38 215.84 45.12 220.00 L 0.00 220.00 L 0.00 168.18 Z" />
<path fill="#2d2413" opacity="1.00" d=" M 45.87 197.19 C 46.20 197.46 46.88 197.99 47.21 198.26 C 48.64 197.59 50.19 197.41 51.74 197.63 C 49.18 200.95 51.25 205.04 50.20 208.74 C 49.56 206.76 48.99 204.77 48.40 202.78 C 48.13 204.25 47.87 205.73 47.73 207.23 C 45.91 204.19 45.93 200.62 45.87 197.19 Z" />
</svg>
