<?xml version="1.0" encoding="UTF-8" ?>
<!DOCTYPE svg PUBLIC "-//W3C//DTD SVG 1.1//EN" "http://www.w3.org/Graphics/SVG/1.1/DTD/svg11.dtd">
<svg width="235pt" height="237pt" viewBox="0 0 235 237" version="1.1" xmlns="http://www.w3.org/2000/svg">
<path fill="#ffffff" opacity="1.00" d=" M 0.00 0.00 L 235.00 0.00 L 235.00 237.00 L 0.00 237.00 L 0.00 0.00 M 111.61 30.59 C 108.41 31.49 104.94 30.40 101.85 31.84 C 96.90 33.79 91.58 34.60 86.67 36.67 C 84.17 37.69 82.06 39.42 79.68 40.67 C 76.65 42.29 73.34 43.46 70.67 45.68 C 66.26 49.25 61.57 52.52 57.74 56.74 C 54.64 59.37 52.60 62.92 49.77 65.79 C 46.73 68.99 44.92 73.09 43.02 77.01 C 41.75 79.67 39.78 81.94 38.67 84.67 C 36.60 89.58 35.78 94.90 33.86 99.86 C 32.34 103.20 33.57 106.97 32.42 110.40 C 31.44 116.41 31.57 122.59 32.42 128.61 C 33.72 132.35 32.19 136.48 33.85 140.15 C 35.61 144.62 36.42 149.39 38.11 153.89 C 39.36 157.68 42.11 160.69 43.67 164.33 C 45.62 168.77 48.21 172.93 51.69 176.32 C 57.13 183.85 64.51 189.61 71.84 195.18 C 75.28 197.56 79.39 198.77 82.81 201.21 C 88.49 205.10 95.58 205.63 101.85 208.17 C 104.11 209.19 106.62 209.02 109.04 209.01 C 104.62 217.65 100.37 226.36 95.97 235.00 C 121.05 234.93 146.14 235.11 171.23 234.93 C 170.64 232.73 168.78 231.27 167.61 229.41 C 163.74 223.60 159.83 217.83 156.01 212.00 C 154.58 209.78 152.84 207.73 151.80 205.29 C 155.03 204.20 158.36 203.19 161.19 201.20 C 164.43 198.93 168.23 197.68 171.57 195.59 C 179.37 189.84 187.02 183.67 192.77 175.79 C 198.14 170.96 199.95 163.74 203.97 157.97 C 207.19 152.48 207.85 146.00 210.15 140.15 C 211.73 136.74 210.44 132.92 211.40 129.39 C 212.41 126.01 211.91 122.46 212.00 118.99 C 211.96 115.86 212.33 112.65 211.42 109.60 C 210.54 106.40 211.59 102.93 210.15 99.85 C 208.24 94.88 207.39 89.58 205.32 84.68 C 204.30 82.17 202.57 80.06 201.33 77.67 C 199.83 74.84 198.65 71.83 196.85 69.17 C 195.12 66.30 192.40 64.22 190.57 61.42 C 185.35 54.94 178.74 49.82 172.15 44.81 C 168.71 42.43 164.61 41.23 161.19 38.80 C 155.50 34.90 148.42 34.36 142.14 31.85 C 138.74 30.28 134.92 31.54 131.40 30.59 C 128.01 29.62 124.47 30.06 121.00 29.99 C 117.86 30.04 114.65 29.64 111.61 30.59 M 213.28 110.27 L 213.27 110.72 L 213.72 110.73 L 213.73 110.28 L 213.28 110.27 Z" />
<path fill="#000000" opacity="1.00" d=" M 111.61 30.59 C 114.65 29.64 117.86 30.04 121.00 29.99 C 124.47 30.06 128.01 29.62 131.40 30.59 C 134.92 31.54 138.74 30.28 142.14 31.85 C 148.42 34.36 155.50 34.90 161.19 38.80 C 164.61 41.23 168.71 42.43 172.15 44.81 C 178.74 49.82 185.35 54.94 190.57 61.42 C 192.40 64.22 195.12 66.30 196.85 69.17 C 198.65 71.83 199.83 74.84 201.33 77.67 C 202.57 80.06 204.30 82.17 205.32 84.68 C 207.39 89.58 208.24 94.88 210.15 99.85 C 211.59 102.93 210.54 106.40 211.42 109.60 C 212.33 112.65 211.96 115.86 212.00 118.99 C 211.91 122.46 212.41 126.01 211.40 129.39 C 210.44 132.92 211.73 136.74 210.15 140.15 C 207.85 146.00 207.19 152.48 203.97 157.97 C 199.95 163.74 198.14 170.96 192.77 175.79 C 187.02 183.67 179.37 189.84 171.57 195.59 C 168.23 197.68 164.43 198.93 161.19 201.20 C 158.36 203.19 155.03 204.20 151.80 205.29 C 152.84 207.73 154.58 209.78 156.01 212.00 C 159.83 217.83 163.74 223.60 167.61 229.41 C 168.78 231.27 170.64 232.73 171.23 234.93 C 146.14 235.11 121.05 234.93 95.97 235.00 C 100.37 226.36 104.62 217.65 109.04 209.01 C 106.62 209.02 104.11 209.19 101.85 208.17 C 95.58 205.63 88.49 205.10 82.81 201.21 C 79.39 198.77 75.28 197.56 71.84 195.18 C 64.51 189.61 57.13 183.85 51.69 176.32 C 48.21 172.93 45.62 168.77 43.67 164.33 C 42.11 160.69 39.36 157.68 38.11 153.89 C 36.42 149.39 35.61 144.62 33.85 140.15 C 32.19 136.48 33.72 132.35 32.42 128.61 C 31.57 122.59 31.44 116.41 32.42 110.40 C 33.57 106.97 32.34 103.20 33.86 99.86 C 35.78 94.90 36.60 89.58 38.67 84.67 C 39.78 81.94 41.75 79.67 43.02 77.01 C 44.92 73.09 46.73 68.99 49.77 65.79 C 52.60 62.92 54.64 59.37 57.74 56.74 C 61.57 52.52 66.26 49.25 70.67 45.68 C 73.34 43.46 76.65 42.29 79.68 40.67 C 82.06 39.42 84.17 37.69 86.67 36.67 C 91.58 34.60 96.90 33.79 101.85 31.84 C 104.94 30.40 108.41 31.49 111.61 30.59 M 112.62 35.60 C 109.41 36.45 105.94 35.40 102.85 36.84 C 98.14 38.72 93.08 39.49 88.37 41.39 C 85.91 42.49 83.81 44.25 81.34 45.36 C 78.79 46.73 75.85 47.56 73.79 49.69 C 77.58 50.90 81.69 51.69 85.60 50.59 C 87.94 49.86 90.40 49.94 92.82 49.97 C 92.92 49.25 93.11 47.83 93.21 47.12 C 93.72 47.04 94.73 46.89 95.23 46.81 C 95.16 48.32 95.09 49.84 95.01 51.35 L 96.08 51.23 C 95.98 49.80 95.88 48.37 95.77 46.94 L 96.93 47.01 C 96.87 49.34 97.18 51.81 95.93 53.90 C 93.12 53.92 90.25 54.20 87.51 53.44 C 82.99 52.31 78.20 53.82 73.77 52.17 C 70.39 50.86 68.27 54.41 65.80 55.98 C 74.77 56.15 83.77 55.73 92.74 56.14 C 93.04 56.43 93.62 57.01 93.91 57.29 C 93.93 59.74 92.86 62.10 92.76 64.57 C 90.88 65.21 90.52 67.25 89.82 68.86 C 89.12 70.67 87.90 72.21 86.79 73.78 C 84.52 74.05 82.35 74.95 80.07 75.02 C 75.69 74.31 71.63 72.31 67.22 71.77 C 66.01 69.93 64.71 68.14 63.11 66.62 C 62.99 64.01 62.99 61.39 62.96 58.78 C 59.60 61.17 57.39 64.67 54.74 67.74 C 51.38 70.96 49.31 75.19 47.35 79.35 C 46.25 81.81 44.49 83.91 43.39 86.37 C 41.51 91.08 40.70 96.13 38.84 100.85 C 37.67 103.41 38.13 106.24 37.92 108.96 C 36.33 116.51 36.32 124.48 37.90 132.05 C 38.04 134.70 37.94 137.42 39.10 139.89 C 41.36 145.44 41.71 151.78 45.17 156.81 C 47.50 160.30 48.83 164.34 51.15 167.83 C 53.08 171.20 56.64 173.31 58.03 177.04 C 60.21 177.59 61.36 179.66 62.83 181.16 C 64.83 183.55 67.59 185.08 69.86 187.17 C 74.48 191.35 79.75 194.86 85.54 197.22 C 87.64 198.02 89.43 199.40 91.41 200.42 C 95.56 200.91 99.82 201.33 103.69 203.01 C 106.11 204.21 108.90 203.61 111.51 203.74 C 112.52 202.05 113.46 200.29 114.76 198.80 C 117.50 196.59 120.84 195.19 123.27 192.60 L 123.78 192.54 C 125.93 193.27 128.01 192.33 130.07 191.82 C 132.87 192.25 135.69 192.76 138.41 193.55 C 141.04 194.39 142.68 197.51 145.51 197.55 L 145.56 197.57 C 146.64 198.68 147.38 200.68 149.09 200.83 C 153.81 199.79 157.95 197.32 162.30 195.35 C 162.40 195.31 162.59 195.22 162.69 195.17 C 164.10 194.44 165.52 193.72 166.93 192.99 C 167.02 192.94 167.19 192.84 167.28 192.79 C 169.84 191.23 172.36 189.55 174.53 187.47 C 177.89 183.53 182.56 180.94 185.65 176.72 C 187.98 173.40 191.27 170.86 193.22 167.26 C 195.22 164.38 196.08 160.91 197.84 157.90 C 200.69 153.91 202.55 149.11 202.94 144.21 C 204.65 142.56 205.65 140.46 205.81 138.08 C 207.84 130.85 206.43 123.32 206.93 115.95 C 207.19 112.56 205.67 109.36 205.83 105.98 C 205.99 102.58 204.48 99.44 203.47 96.28 L 202.62 95.62 C 202.65 96.53 202.71 98.35 202.75 99.26 C 202.41 97.71 201.93 96.20 201.52 94.68 L 201.93 94.29 L 202.23 94.71 L 202.64 94.38 L 202.31 93.92 L 202.33 93.31 C 203.16 92.27 202.55 88.79 200.80 89.56 L 201.08 88.48 C 200.80 85.49 198.42 83.38 197.31 80.71 C 195.01 75.62 192.42 70.55 188.30 66.68 C 183.22 59.47 176.10 54.13 169.16 48.82 C 166.14 46.67 162.53 45.59 159.43 43.56 C 154.05 39.66 147.16 39.32 141.15 36.84 C 138.38 35.58 135.26 36.37 132.39 35.59 C 129.34 34.65 126.13 35.04 123.00 35.00 C 119.53 35.06 116.00 34.63 112.62 35.60 M 88.25 52.36 L 88.26 52.72 C 90.11 53.32 93.45 53.86 94.71 52.35 C 92.69 51.82 90.23 51.58 88.25 52.36 M 67.28 60.28 L 67.28 60.73 L 67.73 60.73 L 67.73 60.28 L 67.28 60.28 M 80.22 60.14 C 79.05 61.19 79.06 62.96 78.29 64.27 C 76.59 65.55 74.44 66.49 72.28 65.92 C 71.33 64.70 70.59 63.34 69.79 62.02 C 69.07 62.02 67.62 62.03 66.89 62.03 C 66.53 65.05 69.18 67.38 71.85 68.17 C 74.64 68.99 77.35 70.05 80.14 70.89 C 82.53 70.65 85.41 69.94 86.66 67.64 C 88.12 65.25 89.01 62.59 89.95 59.97 C 86.71 60.02 83.46 59.83 80.22 60.14 M 41.27 82.29 L 41.28 82.74 L 41.73 82.73 L 41.72 82.28 L 41.27 82.29 M 124.28 194.27 L 124.28 194.72 L 124.73 194.72 L 124.73 194.28 L 124.28 194.27 M 91.29 203.08 L 91.29 203.91 L 92.00 204.32 L 92.71 203.91 L 92.71 203.08 L 92.00 202.67 L 91.29 203.08 Z" />
<path fill="#ffffff" opacity="1.00" d=" M 112.62 35.60 C 116.00 34.63 119.53 35.06 123.00 35.00 C 126.13 35.04 129.34 34.65 132.39 35.59 C 135.26 36.37 138.38 35.58 141.15 36.84 C 147.16 39.32 154.05 39.66 159.43 43.56 C 162.53 45.59 166.14 46.67 169.16 48.82 C 176.10 54.13 183.22 59.47 188.30 66.68 C 192.42 70.55 195.01 75.62 197.31 80.71 C 198.42 83.38 200.80 85.49 201.08 88.48 C 200.11 87.15 199.10 85.85 198.07 84.57 C 197.68 90.34 198.29 96.13 197.80 101.89 C 196.62 110.34 193.61 118.36 190.45 126.23 C 190.40 126.34 190.31 126.57 190.26 126.69 C 188.46 130.89 186.22 134.88 183.75 138.71 C 182.37 140.71 182.73 143.35 181.43 145.39 C 178.90 149.65 175.82 153.56 172.67 157.38 C 172.61 157.45 172.48 157.61 172.42 157.68 C 170.43 160.17 168.18 162.42 165.70 164.41 C 165.62 164.47 165.46 164.60 165.39 164.67 C 161.48 168.21 156.93 170.93 152.17 173.15 C 147.56 175.30 143.39 178.79 138.11 179.11 C 133.66 180.39 129.02 180.75 124.59 182.04 L 124.10 182.17 C 120.33 182.29 116.71 183.46 112.99 183.91 C 109.29 184.40 105.71 183.05 102.05 182.98 C 98.88 182.91 95.71 182.90 92.58 182.45 L 92.21 182.39 C 86.82 181.49 81.48 180.11 76.00 179.97 C 70.90 180.02 66.19 177.71 61.16 177.16 C 64.56 181.34 69.33 184.05 73.03 187.94 C 75.90 191.18 80.18 192.39 83.93 194.26 C 88.54 196.21 92.90 199.03 97.98 199.56 C 102.44 200.16 107.21 203.27 111.56 200.86 C 114.27 197.56 117.76 195.09 121.35 192.82 C 121.44 192.79 121.62 192.74 121.72 192.71 C 122.10 192.68 122.88 192.63 123.27 192.60 C 120.84 195.19 117.50 196.59 114.76 198.80 C 113.46 200.29 112.52 202.05 111.51 203.74 C 108.90 203.61 106.11 204.21 103.69 203.01 C 99.82 201.33 95.56 200.91 91.41 200.42 C 89.43 199.40 87.64 198.02 85.54 197.22 C 79.75 194.86 74.48 191.35 69.86 187.17 C 67.59 185.08 64.83 183.55 62.83 181.16 C 61.36 179.66 60.21 177.59 58.03 177.04 C 56.64 173.31 53.08 171.20 51.15 167.83 C 48.83 164.34 47.50 160.30 45.17 156.81 C 41.71 151.78 41.36 145.44 39.10 139.89 C 37.94 137.42 38.04 134.70 37.90 132.05 C 36.32 124.48 36.33 116.51 37.92 108.96 C 38.13 106.24 37.67 103.41 38.84 100.85 C 40.70 96.13 41.51 91.08 43.39 86.37 C 44.49 83.91 46.25 81.81 47.35 79.35 C 49.31 75.19 51.38 70.96 54.74 67.74 C 57.39 64.67 59.60 61.17 62.96 58.78 C 62.99 61.39 62.99 64.01 63.11 66.62 C 64.71 68.14 66.01 69.93 67.22 71.77 C 71.63 72.31 75.69 74.31 80.07 75.02 C 82.35 74.95 84.52 74.05 86.79 73.78 C 87.90 72.21 89.12 70.67 89.82 68.86 C 90.52 67.25 90.88 65.21 92.76 64.57 C 92.86 62.10 93.93 59.74 93.91 57.29 C 93.62 57.01 93.04 56.43 92.74 56.14 C 83.77 55.73 74.77 56.15 65.80 55.98 C 68.27 54.41 70.39 50.86 73.77 52.17 C 78.20 53.82 82.99 52.31 87.51 53.44 C 90.25 54.20 93.12 53.92 95.93 53.90 C 97.18 51.81 96.87 49.34 96.93 47.01 L 95.77 46.94 C 95.88 48.37 95.98 49.80 96.08 51.23 L 95.01 51.35 C 95.09 49.84 95.16 48.32 95.23 46.81 C 94.73 46.89 93.72 47.04 93.21 47.12 C 93.11 47.83 92.92 49.25 92.82 49.97 C 90.40 49.94 87.94 49.86 85.60 50.59 C 81.69 51.69 77.58 50.90 73.79 49.69 C 75.85 47.56 78.79 46.73 81.34 45.36 C 83.81 44.25 85.91 42.49 88.37 41.39 C 93.08 39.49 98.14 38.72 102.85 36.84 C 105.94 35.40 109.41 36.45 112.62 35.60 M 100.32 39.18 C 99.04 39.52 98.06 42.32 99.60 42.72 C 100.42 42.05 101.89 39.62 100.32 39.18 M 103.21 43.22 C 102.03 43.83 100.83 44.49 100.81 46.00 C 102.13 45.99 103.45 45.97 104.77 45.94 C 105.59 43.46 108.31 42.37 109.11 39.91 C 106.67 39.81 104.20 40.86 103.21 43.22 M 92.90 40.79 C 93.79 42.96 94.96 45.15 97.18 46.20 C 96.59 43.95 95.82 40.77 92.90 40.79 M 107.16 44.00 C 106.91 44.29 106.41 44.87 106.16 45.16 C 106.99 48.04 110.66 43.06 107.16 44.00 M 136.27 45.30 C 136.61 46.66 140.37 46.65 140.73 45.30 C 139.42 44.57 137.57 44.58 136.27 45.30 M 140.95 47.91 C 136.97 48.26 132.96 47.82 128.97 47.99 C 126.95 48.05 125.05 48.97 123.02 48.97 C 118.98 48.82 115.15 50.69 111.10 49.97 C 109.48 50.14 109.30 48.07 108.61 47.07 C 107.96 47.05 106.65 47.01 106.00 46.99 C 106.00 48.26 106.01 49.54 106.01 50.82 C 111.07 52.91 116.83 52.23 122.05 51.10 C 124.75 51.06 127.41 50.73 130.04 50.07 C 138.13 49.68 146.91 51.12 154.30 46.97 C 153.14 50.01 149.73 49.95 147.03 50.09 L 147.02 51.02 C 148.87 50.91 150.72 50.82 152.58 50.67 C 153.77 48.75 156.52 48.38 157.23 46.18 C 151.72 45.52 146.33 46.95 140.95 47.91 M 104.07 52.35 C 103.71 53.76 104.23 54.28 105.64 53.92 C 105.96 52.54 105.44 52.02 104.07 52.35 M 115.28 53.15 C 113.09 54.58 114.05 57.65 114.11 59.85 C 115.52 62.90 116.37 66.19 117.73 69.25 C 119.39 70.37 121.21 71.29 123.13 71.91 C 131.73 71.84 140.23 74.71 148.86 73.68 L 149.56 72.58 C 146.93 72.62 144.31 72.85 141.69 72.93 C 143.08 71.64 145.23 71.92 146.75 70.84 C 148.97 69.31 151.04 67.57 153.28 66.08 C 152.22 68.28 150.15 69.85 149.37 72.20 C 153.12 70.69 153.87 66.39 154.93 62.98 C 155.69 62.97 157.22 62.95 157.99 62.95 C 158.01 61.02 158.10 59.08 157.89 57.16 C 157.44 57.06 156.55 56.85 156.10 56.74 C 156.78 58.40 157.09 60.15 157.10 61.94 C 156.59 61.96 155.56 62.01 155.05 62.04 C 155.02 61.32 154.95 59.90 154.91 59.19 C 152.41 56.77 149.00 55.77 146.21 53.77 C 144.16 52.34 141.49 53.41 139.20 52.76 C 134.65 51.57 129.83 51.84 125.19 52.23 C 121.97 53.27 118.59 52.86 115.28 53.15 M 109.92 61.79 C 110.77 64.21 111.28 66.74 110.55 69.27 C 110.86 69.12 111.49 68.83 111.80 68.68 C 112.10 66.23 112.85 62.88 109.92 61.79 M 57.27 67.27 L 57.27 67.72 L 57.73 67.72 L 57.72 67.27 L 57.27 67.27 M 59.08 66.69 C 59.72 68.39 60.49 70.04 61.29 71.68 C 63.68 72.69 65.68 74.49 68.20 75.21 C 67.13 72.78 64.60 71.78 62.41 70.63 C 61.57 69.10 60.56 67.65 59.08 66.69 M 89.92 76.25 C 92.20 73.28 93.87 69.87 96.06 66.80 C 91.71 67.42 90.11 72.45 89.92 76.25 M 142.74 79.98 C 143.45 79.96 144.86 79.91 145.57 79.88 C 149.25 76.42 155.48 75.14 156.97 69.75 C 152.60 73.68 147.68 76.85 142.74 79.98 M 122.82 74.79 C 123.48 75.89 124.31 76.89 125.19 77.82 C 128.81 78.14 132.55 80.13 136.05 78.09 C 136.59 78.32 137.67 78.77 138.21 78.99 C 138.11 78.50 137.92 77.52 137.82 77.03 C 134.97 76.58 132.29 78.77 129.47 77.66 C 127.04 77.21 125.17 75.44 122.82 74.79 M 101.03 96.03 C 94.01 95.98 86.99 96.02 79.97 95.97 C 77.26 95.84 74.74 97.17 72.04 97.04 C 68.09 97.15 64.11 96.69 60.18 97.19 C 57.18 97.92 54.22 98.80 51.16 99.20 C 49.09 99.42 47.56 100.93 46.04 102.20 C 45.97 104.73 45.95 107.26 46.03 109.79 C 49.06 111.81 52.29 113.58 55.14 115.85 C 56.59 117.18 57.30 120.50 59.75 119.89 C 62.22 118.38 60.57 115.45 59.25 113.77 C 56.80 110.95 53.41 109.16 50.06 107.63 C 50.03 106.48 50.01 105.33 49.99 104.18 C 53.16 102.99 56.57 102.77 59.80 101.79 C 65.04 100.15 70.59 101.45 75.96 100.93 C 77.64 100.68 79.26 100.05 80.97 100.00 C 88.63 99.88 96.30 100.20 103.96 99.91 C 108.01 98.91 112.32 98.39 116.40 99.60 C 118.86 100.31 121.44 99.84 123.96 100.10 C 128.47 101.09 133.13 101.17 137.59 102.45 C 140.94 103.45 144.45 102.70 147.87 103.10 C 150.29 104.05 152.61 105.27 155.18 105.80 C 159.51 106.74 163.38 109.27 167.78 109.92 C 169.12 109.05 169.62 106.81 168.36 105.69 C 165.96 104.65 163.40 104.05 161.01 102.99 C 157.81 101.56 154.19 101.47 151.02 99.97 C 147.76 98.06 143.88 99.62 140.39 98.63 C 136.45 97.58 132.43 97.10 128.40 96.58 C 125.15 95.50 121.67 96.50 118.40 95.59 C 115.34 94.67 112.11 94.98 108.97 94.95 C 106.26 94.84 103.74 96.18 101.03 96.03 M 175.89 101.82 C 175.67 104.80 178.29 107.05 178.08 110.01 C 178.20 112.17 177.39 114.76 175.08 115.42 C 175.07 116.11 175.03 117.49 175.02 118.18 C 177.52 118.16 178.95 116.13 180.42 114.42 C 180.37 112.96 180.34 111.49 180.32 110.02 C 181.02 109.77 182.43 109.26 183.13 109.01 C 182.12 107.81 180.99 106.73 179.76 105.77 C 179.75 105.13 179.73 103.86 179.71 103.23 C 178.46 102.71 177.19 102.22 175.89 101.82 M 170.92 103.77 C 171.50 106.23 172.86 108.96 171.42 111.39 C 170.82 113.09 169.10 113.89 167.81 114.99 C 168.57 115.00 170.09 115.01 170.85 115.02 C 173.07 112.26 173.49 108.67 172.85 105.27 C 172.37 104.89 171.40 104.14 170.92 103.77 M 183.11 110.26 C 182.05 110.59 181.47 112.90 182.94 113.02 C 184.19 112.85 184.60 110.27 183.11 110.26 M 181.76 113.58 C 181.87 115.63 182.10 117.70 181.90 119.77 C 180.26 121.51 177.12 120.97 175.79 123.10 C 178.52 123.02 181.08 122.00 183.64 121.16 C 183.10 122.80 180.96 122.76 179.76 123.76 C 181.52 123.88 183.30 123.91 185.07 123.93 C 184.79 123.05 184.52 122.17 184.25 121.29 C 184.65 119.98 185.21 118.65 184.96 117.26 C 183.98 115.96 182.84 114.79 181.76 113.58 M 88.40 116.19 C 88.64 117.91 92.85 119.01 93.67 117.37 C 92.08 116.72 90.13 115.57 88.40 116.19 M 180.09 116.11 L 180.09 116.63 L 180.61 116.63 L 180.61 116.11 L 180.09 116.11 M 97.30 117.23 C 96.14 123.02 91.72 127.84 91.96 133.97 C 92.26 142.27 90.91 150.93 94.22 158.80 C 94.69 158.88 95.63 159.04 96.10 159.12 C 95.93 155.31 94.62 151.70 94.09 147.95 C 93.82 144.30 94.07 140.64 93.96 136.98 C 93.69 132.31 95.67 127.88 97.86 123.87 C 99.03 121.72 99.10 119.25 99.05 116.86 C 98.62 116.95 97.74 117.14 97.30 117.23 M 105.76 119.06 C 108.11 118.38 110.51 117.90 112.96 117.87 L 113.00 116.95 C 110.44 117.18 106.93 115.98 105.76 119.06 M 169.27 148.28 L 169.28 148.73 L 169.73 148.72 L 169.72 148.27 L 169.27 148.28 M 167.46 155.45 C 165.57 157.93 163.19 160.00 160.83 162.02 C 161.55 162.00 162.98 161.97 163.70 161.96 C 166.02 158.35 171.06 155.77 170.02 150.75 C 168.76 152.06 168.60 154.04 167.46 155.45 M 46.82 156.78 C 48.77 160.19 52.59 161.96 56.23 162.98 C 56.59 160.40 53.96 161.12 52.29 160.87 C 51.48 158.57 49.00 157.44 46.82 156.78 M 155.27 169.27 L 155.27 169.72 L 155.72 169.72 L 155.72 169.27 L 155.27 169.27 Z" />
<path fill="#000000" opacity="1.00" d=" M 100.32 39.18 C 101.89 39.62 100.42 42.05 99.60 42.72 C 98.06 42.32 99.04 39.52 100.32 39.18 Z" />
<path fill="#000000" opacity="1.00" d=" M 103.21 43.22 C 104.20 40.86 106.67 39.81 109.11 39.91 C 108.31 42.37 105.59 43.46 104.77 45.94 C 103.45 45.97 102.13 45.99 100.81 46.00 C 100.83 44.49 102.03 43.83 103.21 43.22 Z" />
<path fill="#000000" opacity="1.00" d=" M 92.90 40.79 C 95.82 40.77 96.59 43.95 97.18 46.20 C 94.96 45.15 93.79 42.96 92.90 40.79 Z" />
<path fill="#555555" opacity="1.00" d=" M 107.16 44.00 C 110.66 43.06 106.99 48.04 106.16 45.16 C 106.41 44.87 106.91 44.29 107.16 44.00 Z" />
<path fill="#000000" opacity="1.00" d=" M 136.27 45.30 C 137.57 44.58 139.42 44.57 140.73 45.30 C 140.37 46.65 136.61 46.66 136.27 45.30 Z" />
<path fill="#000000" opacity="1.00" d=" M 140.95 47.91 C 146.33 46.95 151.72 45.52 157.23 46.18 C 156.52 48.38 153.77 48.75 152.58 50.67 C 150.72 50.82 148.87 50.91 147.02 51.02 L 147.03 50.09 C 149.73 49.95 153.14 50.01 154.30 46.97 C 146.91 51.12 138.13 49.68 130.04 50.07 C 127.41 50.73 124.75 51.06 122.05 51.10 C 116.83 52.23 111.07 52.91 106.01 50.82 C 106.01 49.54 106.00 48.26 106.00 46.99 C 106.65 47.01 107.96 47.05 108.61 47.07 C 109.30 48.07 109.48 50.14 111.10 49.97 C 115.15 50.69 118.98 48.82 123.02 48.97 C 125.05 48.97 126.95 48.05 128.97 47.99 C 132.96 47.82 136.97 48.26 140.95 47.91 Z" />
<path fill="#ffffff" opacity="1.00" d=" M 88.25 52.36 C 90.23 51.58 92.69 51.82 94.71 52.35 C 93.45 53.86 90.11 53.32 88.26 52.72 L 88.25 52.36 Z" />
<path fill="#000000" opacity="1.00" d=" M 104.07 52.35 C 105.44 52.02 105.96 52.54 105.64 53.92 C 104.23 54.28 103.71 53.76 104.07 52.35 Z" />
<path fill="#000000" opacity="1.00" d=" M 115.28 53.15 C 118.59 52.86 121.97 53.27 125.19 52.23 C 129.83 51.84 134.65 51.57 139.20 52.76 C 141.49 53.41 144.16 52.34 146.21 53.77 C 149.00 55.77 152.41 56.77 154.91 59.19 C 154.95 59.90 155.02 61.32 155.05 62.04 C 155.56 62.01 156.59 61.96 157.10 61.94 C 157.09 60.15 156.78 58.40 156.10 56.74 C 156.55 56.85 157.44 57.06 157.89 57.16 C 158.10 59.08 158.01 61.02 157.99 62.95 C 157.22 62.95 155.69 62.97 154.93 62.98 C 153.87 66.39 153.12 70.69 149.37 72.20 C 150.15 69.85 152.22 68.28 153.28 66.08 C 151.04 67.57 148.97 69.31 146.75 70.84 C 145.23 71.92 143.08 71.64 141.69 72.93 C 144.31 72.85 146.93 72.62 149.56 72.58 L 148.86 73.68 C 140.23 74.71 131.73 71.84 123.13 71.91 C 121.21 71.29 119.39 70.37 117.73 69.25 C 116.37 66.19 115.52 62.90 114.11 59.85 C 114.05 57.65 113.09 54.58 115.28 53.15 M 134.08 55.93 C 133.74 57.91 134.75 60.61 132.72 61.90 C 129.88 62.43 127.08 61.30 124.35 60.65 C 122.78 60.22 123.16 58.22 122.76 57.02 C 121.10 57.01 119.45 57.01 117.80 57.02 C 118.97 59.91 119.99 62.86 121.30 65.69 C 123.06 68.09 126.32 68.12 129.02 68.04 C 132.05 67.81 134.90 69.54 137.93 68.97 C 140.17 68.50 142.40 67.94 144.70 67.80 C 146.34 65.61 149.82 64.15 149.96 61.24 C 147.62 59.82 145.30 58.32 142.87 57.10 C 139.90 57.00 136.87 57.13 134.08 55.93 M 151.27 59.28 L 151.28 59.73 L 151.73 59.72 L 151.72 59.27 L 151.27 59.28 Z" />
<path fill="#ffffff" opacity="1.00" d=" M 134.08 55.93 C 136.87 57.13 139.90 57.00 142.87 57.10 C 145.30 58.32 147.62 59.82 149.96 61.24 C 149.82 64.15 146.34 65.61 144.70 67.80 C 142.40 67.94 140.17 68.50 137.93 68.97 C 134.90 69.54 132.05 67.81 129.02 68.04 C 126.32 68.12 123.06 68.09 121.30 65.69 C 119.99 62.86 118.97 59.91 117.80 57.02 C 119.45 57.01 121.10 57.01 122.76 57.02 C 123.16 58.22 122.78 60.22 124.35 60.65 C 127.08 61.30 129.88 62.43 132.72 61.90 C 134.75 60.61 133.74 57.91 134.08 55.93 Z" />
<path fill="#555555" opacity="1.00" d=" M 151.27 59.28 L 151.72 59.27 L 151.73 59.72 L 151.28 59.73 L 151.27 59.28 Z" />
<path fill="#555555" opacity="1.00" d=" M 67.28 60.28 L 67.73 60.28 L 67.73 60.73 L 67.28 60.73 L 67.28 60.28 Z" />
<path fill="#ffffff" opacity="1.00" d=" M 80.22 60.14 C 83.46 59.83 86.71 60.02 89.95 59.97 C 89.01 62.59 88.12 65.25 86.66 67.64 C 85.41 69.94 82.53 70.65 80.14 70.89 C 77.35 70.05 74.64 68.99 71.85 68.17 C 69.18 67.38 66.53 65.05 66.89 62.03 C 67.62 62.03 69.07 62.02 69.79 62.02 C 70.59 63.34 71.33 64.70 72.28 65.92 C 74.44 66.49 76.59 65.55 78.29 64.27 C 79.06 62.96 79.05 61.19 80.22 60.14 Z" />
<path fill="#000000" opacity="1.00" d=" M 109.92 61.79 C 112.85 62.88 112.10 66.23 111.80 68.68 C 111.49 68.83 110.86 69.12 110.55 69.27 C 111.28 66.74 110.77 64.21 109.92 61.79 Z" />
<path fill="#808080" opacity="1.00" d=" M 57.27 67.27 L 57.72 67.27 L 57.73 67.72 L 57.27 67.72 L 57.27 67.27 Z" />
<path fill="#000000" opacity="1.00" d=" M 59.08 66.69 C 60.56 67.65 61.57 69.10 62.41 70.63 C 64.60 71.78 67.13 72.78 68.20 75.21 C 65.68 74.49 63.68 72.69 61.29 71.68 C 60.49 70.04 59.72 68.39 59.08 66.69 Z" />
<path fill="#000000" opacity="1.00" d=" M 89.92 76.25 C 90.11 72.45 91.71 67.42 96.06 66.80 C 93.87 69.87 92.20 73.28 89.92 76.25 Z" />
<path fill="#000000" opacity="1.00" d=" M 142.74 79.98 C 147.68 76.85 152.60 73.68 156.97 69.75 C 155.48 75.14 149.25 76.42 145.57 79.88 C 144.86 79.91 143.45 79.96 142.74 79.98 Z" />
<path fill="#000000" opacity="1.00" d=" M 122.82 74.79 C 125.17 75.44 127.04 77.21 129.47 77.66 C 132.29 78.77 134.97 76.58 137.82 77.03 C 137.92 77.52 138.11 78.50 138.21 78.99 C 137.67 78.77 136.59 78.32 136.05 78.09 C 132.55 80.13 128.81 78.14 125.19 77.82 C 124.31 76.89 123.48 75.89 122.82 74.79 Z" />
<path fill="#555555" opacity="1.00" d=" M 41.27 82.29 L 41.72 82.28 L 41.73 82.73 L 41.28 82.74 L 41.27 82.29 Z" />
<path fill="#808080" opacity="1.00" d=" M 198.07 84.57 C 199.10 85.85 200.11 87.15 201.08 88.48 L 200.80 89.56 L 200.54 90.26 C 200.50 90.34 200.44 90.50 200.41 90.58 L 200.53 90.75 C 201.11 91.61 201.71 92.47 202.33 93.31 L 202.31 93.92 L 201.93 94.29 L 201.52 94.68 C 201.93 96.20 202.41 97.71 202.75 99.26 L 202.83 100.13 C 202.87 100.57 202.94 101.45 202.97 101.89 C 203.14 102.40 203.48 103.42 203.65 103.92 L 204.11 104.74 L 204.99 104.96 C 204.56 107.30 204.67 109.70 205.13 112.02 C 204.51 114.03 204.49 116.24 205.89 117.93 C 205.93 119.51 205.96 121.08 205.97 122.66 C 205.35 124.91 204.93 127.21 204.38 129.48 C 203.79 131.76 202.43 133.78 202.07 136.12 C 202.00 138.19 202.38 140.24 202.61 142.29 C 202.06 143.34 201.51 144.38 200.94 145.42 C 200.92 145.47 200.86 145.58 200.83 145.64 L 200.81 145.76 C 200.73 149.44 198.36 152.38 196.73 155.50 C 194.91 158.61 193.96 162.31 191.11 164.71 C 191.08 164.74 191.01 164.81 190.98 164.84 L 190.96 164.91 C 190.19 167.56 189.33 170.41 186.87 171.99 C 184.06 173.91 182.99 177.31 180.67 179.68 C 177.54 183.04 173.10 184.68 169.65 187.65 C 166.36 190.50 162.46 192.47 158.95 195.01 C 156.21 196.93 153.18 198.51 149.90 199.22 C 148.37 198.92 146.99 198.17 145.56 197.57 L 145.51 197.55 C 142.65 192.85 136.81 191.92 131.82 191.22 C 129.05 190.74 126.40 191.85 123.78 192.54 L 123.27 192.60 C 122.88 192.63 122.10 192.68 121.72 192.71 L 121.51 192.72 L 121.35 192.82 C 117.76 195.09 114.27 197.56 111.56 200.86 C 107.21 203.27 102.44 200.16 97.98 199.56 C 92.90 199.03 88.54 196.21 83.93 194.26 C 80.18 192.39 75.90 191.18 73.03 187.94 C 69.33 184.05 64.56 181.34 61.16 177.16 C 66.19 177.71 70.90 180.02 76.00 179.97 C 81.48 180.11 86.82 181.49 92.21 182.39 C 92.28 182.40 92.43 182.43 92.50 182.44 L 92.58 182.45 C 95.71 182.90 98.88 182.91 102.05 182.98 C 105.71 183.05 109.29 184.40 112.99 183.91 C 116.71 183.46 120.33 182.29 124.10 182.17 C 124.20 182.21 124.40 182.31 124.50 182.36 L 124.59 182.04 C 129.02 180.75 133.66 180.39 138.11 179.11 C 143.39 178.79 147.56 175.30 152.17 173.15 C 156.93 170.93 161.48 168.21 165.39 164.67 C 165.46 164.60 165.62 164.47 165.70 164.41 C 168.18 162.42 170.43 160.17 172.42 157.68 C 172.48 157.61 172.61 157.45 172.67 157.38 C 175.82 153.56 178.90 149.65 181.43 145.39 C 182.73 143.35 182.37 140.71 183.75 138.71 C 186.22 134.88 188.46 130.89 190.26 126.69 C 190.31 126.57 190.40 126.34 190.45 126.23 C 193.61 118.36 196.62 110.34 197.80 101.89 C 198.29 96.13 197.68 90.34 198.07 84.57 M 148.26 195.26 L 148.22 195.71 L 148.68 195.75 L 148.71 195.29 L 148.26 195.26 Z" />
<path fill="#ffffff" opacity="1.00" d=" M 200.80 89.56 C 202.55 88.79 203.16 92.27 202.33 93.31 C 201.71 92.47 201.11 91.61 200.53 90.75 L 200.54 90.26 L 200.80 89.56 Z" />
<path fill="#555555" opacity="1.00" d=" M 200.41 90.58 C 200.44 90.50 200.50 90.34 200.54 90.26 L 200.53 90.75 L 200.41 90.58 Z" />
<path fill="#ffffff" opacity="1.00" d=" M 201.93 94.29 L 202.31 93.92 L 202.64 94.38 L 202.23 94.71 L 201.93 94.29 Z" />
<path fill="#000000" opacity="1.00" d=" M 101.03 96.03 C 103.74 96.18 106.26 94.84 108.97 94.95 C 112.11 94.98 115.34 94.67 118.40 95.59 C 121.67 96.50 125.15 95.50 128.40 96.58 C 132.43 97.10 136.45 97.58 140.39 98.63 C 143.88 99.62 147.76 98.06 151.02 99.97 C 154.19 101.47 157.81 101.56 161.01 102.99 C 163.40 104.05 165.96 104.65 168.36 105.69 C 169.62 106.81 169.12 109.05 167.78 109.92 C 163.38 109.27 159.51 106.74 155.18 105.80 C 152.61 105.27 150.29 104.05 147.87 103.10 C 144.45 102.70 140.94 103.45 137.59 102.45 C 133.13 101.17 128.47 101.09 123.96 100.10 C 121.44 99.84 118.86 100.31 116.40 99.60 C 112.32 98.39 108.01 98.91 103.96 99.91 C 96.30 100.20 88.63 99.88 80.97 100.00 C 79.26 100.05 77.64 100.68 75.96 100.93 C 70.59 101.45 65.04 100.15 59.80 101.79 C 56.57 102.77 53.16 102.99 49.99 104.18 C 50.01 105.33 50.03 106.48 50.06 107.63 C 53.41 109.16 56.80 110.95 59.25 113.77 C 60.57 115.45 62.22 118.38 59.75 119.89 C 57.30 120.50 56.59 117.18 55.14 115.85 C 52.29 113.58 49.06 111.81 46.03 109.79 C 45.95 107.26 45.97 104.73 46.04 102.20 C 47.56 100.93 49.09 99.42 51.16 99.20 C 54.22 98.80 57.18 97.92 60.18 97.19 C 64.11 96.69 68.09 97.15 72.04 97.04 C 74.74 97.17 77.26 95.84 79.97 95.97 C 86.99 96.02 94.01 95.98 101.03 96.03 M 125.27 98.27 L 125.27 98.72 L 125.72 98.72 L 125.72 98.27 L 125.27 98.27 M 132.28 98.27 L 132.27 98.72 L 132.72 98.73 L 132.73 98.28 L 132.28 98.27 Z" />
<path fill="#ffffff" opacity="1.00" d=" M 202.62 95.62 L 203.47 96.28 C 204.48 99.44 205.99 102.58 205.83 105.98 C 205.67 109.36 207.19 112.56 206.93 115.95 C 206.43 123.32 207.84 130.85 205.81 138.08 C 205.65 140.46 204.65 142.56 202.94 144.21 C 202.55 149.11 200.69 153.91 197.84 157.90 C 196.08 160.91 195.22 164.38 193.22 167.26 C 191.27 170.86 187.98 173.40 185.65 176.72 C 182.56 180.94 177.89 183.53 174.53 187.47 C 172.36 189.55 169.84 191.23 167.28 192.79 C 167.19 192.84 167.02 192.94 166.93 192.99 C 165.52 193.72 164.10 194.44 162.69 195.17 C 162.59 195.22 162.40 195.31 162.30 195.35 C 157.95 197.32 153.81 199.79 149.09 200.83 C 147.38 200.68 146.64 198.68 145.56 197.57 C 146.99 198.17 148.37 198.92 149.90 199.22 C 153.18 198.51 156.21 196.93 158.95 195.01 C 162.46 192.47 166.36 190.50 169.65 187.65 C 173.10 184.68 177.54 183.04 180.67 179.68 C 182.99 177.31 184.06 173.91 186.87 171.99 C 189.33 170.41 190.19 167.56 190.96 164.91 L 191.11 164.71 C 193.96 162.31 194.91 158.61 196.73 155.50 C 198.36 152.38 200.73 149.44 200.81 145.76 L 200.94 145.42 C 201.51 144.38 202.06 143.34 202.61 142.29 C 203.59 139.68 204.49 137.04 205.53 134.45 C 207.05 130.69 206.13 126.57 205.97 122.66 C 205.96 121.08 205.93 119.51 205.89 117.93 C 206.51 115.93 206.56 113.70 205.13 112.02 C 204.67 109.70 204.56 107.30 204.99 104.96 C 204.96 104.57 204.90 103.78 204.87 103.39 L 204.13 103.32 L 203.65 103.92 C 203.48 103.42 203.14 102.40 202.97 101.89 L 203.75 101.76 L 204.13 101.05 C 203.81 100.82 203.16 100.36 202.83 100.13 L 202.75 99.26 C 202.71 98.35 202.65 96.53 202.62 95.62 M 204.26 139.30 L 204.29 139.75 L 204.74 139.73 L 204.71 139.28 L 204.26 139.30 Z" />
<path fill="#555555" opacity="1.00" d=" M 125.27 98.27 L 125.72 98.27 L 125.72 98.72 L 125.27 98.72 L 125.27 98.27 Z" />
<path fill="#555555" opacity="1.00" d=" M 132.28 98.27 L 132.73 98.28 L 132.72 98.73 L 132.27 98.72 L 132.28 98.27 Z" />
<path fill="#000000" opacity="1.00" d=" M 202.83 100.13 C 203.16 100.36 203.81 100.82 204.13 101.05 L 203.75 101.76 L 202.97 101.89 C 202.94 101.45 202.87 100.57 202.83 100.13 Z" />
<path fill="#000000" opacity="1.00" d=" M 175.89 101.82 C 177.19 102.22 178.46 102.71 179.71 103.23 C 179.73 103.86 179.75 105.13 179.76 105.77 C 180.99 106.73 182.12 107.81 183.13 109.01 C 182.43 109.26 181.02 109.77 180.32 110.02 C 180.34 111.49 180.37 112.96 180.42 114.42 C 178.95 116.13 177.52 118.16 175.02 118.18 C 175.03 117.49 175.07 116.11 175.08 115.42 C 177.39 114.76 178.20 112.17 178.08 110.01 C 178.29 107.05 175.67 104.80 175.89 101.82 Z" />
<path fill="#000000" opacity="1.00" d=" M 204.13 103.32 L 204.87 103.39 C 204.90 103.78 204.96 104.57 204.99 104.96 L 204.11 104.74 L 203.65 103.92 L 204.13 103.32 Z" />
<path fill="#000000" opacity="1.00" d=" M 170.92 103.77 C 171.40 104.14 172.37 104.89 172.85 105.27 C 173.49 108.67 173.07 112.26 170.85 115.02 C 170.09 115.01 168.57 115.00 167.81 114.99 C 169.10 113.89 170.82 113.09 171.42 111.39 C 172.86 108.96 171.50 106.23 170.92 103.77 Z" />
<path fill="#000000" opacity="1.00" d=" M 183.11 110.26 C 184.60 110.27 184.19 112.85 182.94 113.02 C 181.47 112.90 182.05 110.59 183.11 110.26 Z" />
<path fill="#808080" opacity="1.00" d=" M 213.28 110.27 L 213.73 110.28 L 213.72 110.73 L 213.27 110.72 L 213.28 110.27 Z" />
<path fill="#000000" opacity="1.00" d=" M 205.13 112.02 C 206.56 113.70 206.51 115.93 205.89 117.93 C 204.49 116.24 204.51 114.03 205.13 112.02 Z" />
<path fill="#000000" opacity="1.00" d=" M 181.76 113.58 C 182.84 114.79 183.98 115.96 184.96 117.26 C 185.21 118.65 184.65 119.98 184.25 121.29 C 184.52 122.17 184.79 123.05 185.07 123.93 C 183.30 123.91 181.52 123.88 179.76 123.76 C 180.96 122.76 183.10 122.80 183.64 121.16 C 181.08 122.00 178.52 123.02 175.79 123.10 C 177.12 120.97 180.26 121.51 181.90 119.77 C 182.10 117.70 181.87 115.63 181.76 113.58 M 183.23 117.32 L 182.79 118.00 C 182.90 118.41 183.12 119.24 183.23 119.65 L 183.85 119.65 C 183.97 119.24 184.19 118.42 184.30 118.00 L 183.86 117.32 L 183.23 117.32 Z" />
<path fill="#000000" opacity="1.00" d=" M 88.40 116.19 C 90.13 115.57 92.08 116.72 93.67 117.37 C 92.85 119.01 88.64 117.91 88.40 116.19 Z" />
<path fill="#000000" opacity="1.00" d=" M 180.09 116.11 L 180.61 116.11 L 180.61 116.63 L 180.09 116.63 L 180.09 116.11 Z" />
<path fill="#000000" opacity="1.00" d=" M 97.30 117.23 C 97.74 117.14 98.62 116.95 99.05 116.86 C 99.10 119.25 99.03 121.72 97.86 123.87 C 95.67 127.88 93.69 132.31 93.96 136.98 C 94.07 140.64 93.82 144.30 94.09 147.95 C 94.62 151.70 95.93 155.31 96.10 159.12 C 95.63 159.04 94.69 158.88 94.22 158.80 C 90.91 150.93 92.26 142.27 91.96 133.97 C 91.72 127.84 96.14 123.02 97.30 117.23 Z" />
<path fill="#000000" opacity="1.00" d=" M 105.76 119.06 C 106.93 115.98 110.44 117.18 113.00 116.95 L 112.96 117.87 C 110.51 117.90 108.11 118.38 105.76 119.06 Z" />
<path fill="#ffffff" opacity="1.00" d=" M 183.23 117.32 L 183.86 117.32 L 184.30 118.00 C 184.19 118.42 183.97 119.24 183.85 119.65 L 183.23 119.65 C 183.12 119.24 182.90 118.41 182.79 118.00 L 183.23 117.32 Z" />
<path fill="#555555" opacity="1.00" d=" M 204.38 129.48 C 204.93 127.21 205.35 124.91 205.97 122.66 C 206.13 126.57 207.05 130.69 205.53 134.45 C 204.49 137.04 203.59 139.68 202.61 142.29 C 202.38 140.24 202.00 138.19 202.07 136.12 C 202.43 133.78 203.79 131.76 204.38 129.48 Z" />
<path fill="#000000" opacity="1.00" d=" M 190.26 126.69 C 190.31 126.57 190.40 126.34 190.45 126.23 C 190.40 126.34 190.31 126.57 190.26 126.69 Z" />
<path fill="#808080" opacity="1.00" d=" M 204.26 139.30 L 204.71 139.28 L 204.74 139.73 L 204.29 139.75 L 204.26 139.30 Z" />
<path fill="#000000" opacity="1.00" d=" M 200.83 145.64 C 200.86 145.58 200.92 145.47 200.94 145.42 L 200.81 145.76 L 200.83 145.64 Z" />
<path fill="#808080" opacity="1.00" d=" M 169.27 148.28 L 169.72 148.27 L 169.73 148.72 L 169.28 148.73 L 169.27 148.28 Z" />
<path fill="#000000" opacity="1.00" d=" M 167.46 155.45 C 168.60 154.04 168.76 152.06 170.02 150.75 C 171.06 155.77 166.02 158.35 163.70 161.96 C 162.98 161.97 161.55 162.00 160.83 162.02 C 163.19 160.00 165.57 157.93 167.46 155.45 Z" />
<path fill="#000000" opacity="1.00" d=" M 46.82 156.78 C 49.00 157.44 51.48 158.57 52.29 160.87 C 53.96 161.12 56.59 160.40 56.23 162.98 C 52.59 161.96 48.77 160.19 46.82 156.78 Z" />
<path fill="#000000" opacity="1.00" d=" M 172.42 157.68 C 172.48 157.61 172.61 157.45 172.67 157.38 C 172.61 157.45 172.48 157.61 172.42 157.68 Z" />
<path fill="#000000" opacity="1.00" d=" M 165.39 164.67 C 165.46 164.60 165.62 164.47 165.70 164.41 C 165.62 164.47 165.46 164.60 165.39 164.67 Z" />
<path fill="#000000" opacity="1.00" d=" M 190.98 164.84 C 191.01 164.81 191.08 164.74 191.11 164.71 L 190.96 164.91 L 190.98 164.84 Z" />
<path fill="#808080" opacity="1.00" d=" M 155.27 169.27 L 155.72 169.27 L 155.72 169.72 L 155.27 169.72 L 155.27 169.27 Z" />
<path fill="#000000" opacity="1.00" d=" M 92.21 182.39 L 92.58 182.45 L 92.50 182.44 C 92.43 182.43 92.28 182.40 92.21 182.39 Z" />
<path fill="#000000" opacity="1.00" d=" M 124.10 182.17 L 124.59 182.04 L 124.50 182.36 C 124.40 182.31 124.20 182.21 124.10 182.17 Z" />
<path fill="#ffffff" opacity="1.00" d=" M 123.78 192.54 C 126.40 191.85 129.05 190.74 131.82 191.22 C 136.81 191.92 142.65 192.85 145.51 197.55 C 142.68 197.51 141.04 194.39 138.41 193.55 C 135.69 192.76 132.87 192.25 130.07 191.82 C 128.01 192.33 125.93 193.27 123.78 192.54 Z" />
<path fill="#555555" opacity="1.00" d=" M 121.51 192.72 L 121.72 192.71 C 121.62 192.74 121.44 192.79 121.35 192.82 L 121.51 192.72 Z" />
<path fill="#808080" opacity="1.00" d=" M 166.93 192.99 C 167.02 192.94 167.19 192.84 167.28 192.79 C 167.19 192.84 167.02 192.94 166.93 192.99 Z" />
<path fill="#555555" opacity="1.00" d=" M 124.28 194.27 L 124.73 194.28 L 124.73 194.72 L 124.28 194.72 L 124.28 194.27 Z" />
<path fill="#ffffff" opacity="1.00" d=" M 148.26 195.26 L 148.71 195.29 L 148.68 195.75 L 148.22 195.71 L 148.26 195.26 Z" />
<path fill="#808080" opacity="1.00" d=" M 162.30 195.35 C 162.40 195.31 162.59 195.22 162.69 195.17 C 162.59 195.22 162.40 195.31 162.30 195.35 Z" />
<path fill="#555555" opacity="1.00" d=" M 91.29 203.08 L 92.00 202.67 L 92.71 203.08 L 92.71 203.91 L 92.00 204.32 L 91.29 203.91 L 91.29 203.08 Z" />
</svg>
