<?xml version="1.0" encoding="utf-8"?>
<!-- Generator: Adobe Illustrator 15.0.2, SVG Export Plug-In . SVG Version: 6.00 Build 0)  -->
<!DOCTYPE svg PUBLIC "-//W3C//DTD SVG 1.1//EN" "http://www.w3.org/Graphics/SVG/1.1/DTD/svg11.dtd">
<svg version="1.1" id="Layer_1" xmlns="http://www.w3.org/2000/svg" xmlns:xlink="http://www.w3.org/1999/xlink" x="0px" y="0px"
	 width="110px" height="121px" viewBox="0 0 110 121" enable-background="new 0 0 110 121" xml:space="preserve">
<path fill="#FFFFFF" d="M0,0h110v86.689c-0.57-0.029-1.7-0.1-2.26-0.129c-0.211-8.881,0.18-17.771-0.27-26.65
	C107.3,54.21,105.25,48.8,103,43.63c-2.061-3.58-4.75-6.85-6.07-10.83C95.73,29.91,96,26.53,94.2,23.89
	C89.25,16.17,83.1,9.19,75.84,3.57c0.73-0.06,2.189-0.17,2.91-0.22c-0.17-0.3-0.52-0.9-0.689-1.2c-4.74,0.3-9.16-2.17-13.881-1.54
	C54.3,1.78,44.64,4.32,35.15,7.26c-3.92,0.92-5.81,4.85-8.79,7.2c-1.49,2.81-3.76,5.04-6.06,7.18c-1.33-0.27-2.66-0.53-4-0.79
	c0.12,0.58,0.35,1.72,0.47,2.29c-2.92-0.45-5.99-0.49-8.49,1.31c2.98,0.48,5.99,0.36,8.99,0.26c-2.39,3.25-4.58,6.64-7.01,9.86
	c-0.27-1.81-0.58-3.62-0.92-5.41c-2.11,3.31-0.43,7.46-2.25,10.86c-0.86,1.62-1.16,3.82-2.96,4.71c-0.32-0.6-0.96-1.8-1.27-2.4
	c-0.4,14.36-0.73,28.811,0.92,43.109c0.26,7,7.13,11.631,7.3,18.641c0.29,4.77,1.45,9.89,5.35,13.05
	c-0.93-5.34-4.22-10.08-4.11-15.69c2.11,2.08,3.33,4.801,5.13,7.101c3.84,2.8,8.32,4.569,12.48,6.851
	c0.43-0.131,1.27-0.391,1.7-0.521c-4.19-2.761-8.68-5-13.11-7.34c-1.35-3.3-3.87-5.8-6.1-8.48c-0.14-1.39-0.19-2.78-0.16-4.17
	c-0.47-0.09-1.42-0.26-1.9-0.35l0.38,2.46c-1.39-2.471-3.05-4.82-4.15-7.44c-1-4.92-2.27-9.86-2.17-14.93
	c2.33,4.37,2.07,9.5,4.01,13.989c0.74,1.951,1.25,3.961,1.66,6c0.54-0.6,1.09-1.189,1.64-1.779c-1.7-8.32-6.5-16.05-5.89-24.75
	c0.35-4.67,0.25-9.35,0.6-14.01c0.96-3.35,2.65-6.5,3.07-9.99c0.33-2.26,0.15-4.58,0.64-6.81c3.02-3.75,6.95-6.7,9.63-10.76
	c1.13-1.89,3.57-0.84,5.26-0.53c5.27,1.33,8.55,5.97,11.8,9.94c-3.83-0.81-8.05-1.5-11.68,0.45c-5.68,2.39-8.7,8.63-8.46,14.59
	c2.08,3.82,1.02,8.89,4.26,12.13c2.27,2.16,5.99,3.71,8.86,1.801c1.21-0.921,2.12,1.379,3.11,1.369
	c5.97-4.84,11.32-10.88,14.34-18.01c1.11-2.22,0.43-4.66-0.89-6.63c-0.56,4.86-1.52,9.82-4.74,13.7c-3.23-2.06-7.57-3.92-11.19-1.72
	c-3.57,2.6-2.48,7.53-2.18,11.28c-1.9-0.72-4.01-1.09-5.67-2.34c-2.67-2.68-2.5-6.72-3.02-10.19c-0.91-1.61-1.65-3.46-0.84-5.29
	c1.13-5.46,6.04-9.41,11.27-10.66c3.71,0,8.31,0.85,10.19,4.48c1.34,2.25,1.92,5.54,5.28,5.3c-0.92-1.22-1.89-2.39-2.87-3.56
	c0.96-0.44,1.91-0.9,2.86-1.36c-3.9-3-7.34-6.52-10.61-10.17c1.39-0.68,2.78-1.37,4.16-2.08c-4.44-4.43-11.21-3.45-16.43-6.38
	c4.52-4.09,6.64-10.85,12.76-13.03c8.14-2.82,16.88-0.95,25.15,0.25c-0.33,0.73-0.98,2.17-1.311,2.9c-0.84-0.09-2.51-0.26-3.35-0.35
	c-1.11,3.47,1.76,3.21,3.57,3.25c-0.66,1.18-1.311,2.35-1.95,3.53c-0.36-1.1-0.76-2.19-1.17-3.27c-0.96,4.48-3.52,8.46-4.2,13
	c-0.64,2.52,1.21,4.59,2.25,6.69c-0.64,0.92-1.28,1.85-1.92,2.77c1.76-0.21,3.52-0.41,5.23-0.86c0.369-2.12,0.289-4.31,0.8-6.42
	c1.43-4.34,5.95-7.19,6.319-11.95c0.101-2.54,1-5.31,0.01-7.74c-1.859-0.49-2.689,2.3-4.059,3.14c0.5-1.67,1.02-3.34,1.569-5
	c3.899,1.52,8.13,1.46,12.25,1.49c-1.31-0.87-2.69-1.62-4.08-2.36c1.46-1.07,2.89-2.17,4.33-3.28c3.72,2.83,8.931,5.2,9.95,10.2
	c2.31,2.47,3.09,5.81,4.27,8.87c0.07-1.21,0.131-2.43,0.19-3.64c1.84,3.4,4.819,6.22,5.46,10.19c-1.75-2.25-3.189-4.76-5.21-6.8
	c2.25,6.76,7.079,12.29,9.3,19.07c3.971,11.89,7.109,24.22,7.38,36.81c0.13,4.641,0.771,9.27,0.49,13.91
	c-3.96,7.3-6.63,15.23-8.3,23.35c3.42-3.08,3.939-7.85,5.89-11.789C106,100.77,108.98,96.47,110,91.4V121H0V0 M75.42,14.21
	c0.57,0.06,1.689,0.17,2.25,0.22C78.59,11.98,73.65,11.57,75.42,14.21 M74.55,14.86c0.28,2.08,2.181,2.49,3.88,2.91
	c0.19-1.22,0.37-2.44,0.551-3.66c-0.451,0.66-1.36,1.98-1.811,2.64C76.52,16.28,75.21,15.34,74.55,14.86 M69.4,21.56
	c1-0.15,2.979-0.45,3.97-0.61c-4.8,3.55-9.96,7.39-12.16,13.17c-0.931,2.41-1.97,5.58-0.04,7.78c3.02,3.59,5.301,8.25,9.891,10.11
	c5.16,2.12,11.029,2.81,16.479,1.45c3.14-0.83,6.59-2.89,7.069-6.39c1.16-6.77-3.26-12.62-6.539-18.06
	c-3.95-2.64-5.42-7.94-10.141-9.58C74.971,19.04,71.07,18.3,69.4,21.56 M52.17,47.9c0.04,1.52,0.09,3.04,0.16,4.56
	c0.17-0.6,0.51-1.79,0.67-2.39c0.57,0.25,1.7,0.76,2.27,1.01c-0.21,0.43-0.62,1.29-0.83,1.71c0.35,0.04,1.04,0.13,1.39,0.17
	c-0.1-0.64-0.29-1.91-0.39-2.55C54.35,49.57,53.26,48.73,52.17,47.9 M93.83,57.37c1.58,0.15,3.16,0.28,4.75,0.41
	c-0.1-1.87-0.21-3.74-0.33-5.61C96.74,53.87,95.23,55.57,93.83,57.37 M79.96,66.72c-0.81,0.97-1.22,2.97-2.91,2.54
	c-2.14-0.39-3.76,1.03-5.229,2.34c-1.84-0.649-3.75-1.979-5.771-1.209c-1.96,0.549-2.649,2.75-3.69,4.26
	c-1.289-0.95-2.409-2.36-4.119-2.521c-0.801,1.56-1.311,3.261-1.92,4.91c-1.34-1.229-2.69-2.44-4.03-3.67
	c-1.39,0.58-2.77,1.19-4.1,1.899c-1.05-0.33-2.33-1.359-3.04,0.121c0.55,1.979,1.86,3.67,3.53,4.859
	c5.43,4.391,13.08,6.55,19.81,4.061c3.189-1.521,5.71-4.101,8.789-5.82c1.371-4.1,4.99-7.57,4.83-12.07
	C81.57,66.5,80.5,66.65,79.96,66.72 M15.11,69.439c-0.01,0.451-0.03,1.371-0.03,1.82c1.48,0.54,3.03,1.46,2.66,3.301
	c-0.97-0.541-2.89-1.631-3.85-2.17c0.61,2.31,2.79,2.34,4.71,2.6c-0.01-0.66-0.01-1.99-0.02-2.65
	C17.43,71.359,16.28,70.391,15.11,69.439z"/>
<path fill="#323232" d="M35.15,7.26C44.64,4.32,54.3,1.78,64.18,0.61C68.9-0.02,73.32,2.45,78.061,2.15c0.17,0.3,0.52,0.9,0.689,1.2
	c-0.721,0.05-2.18,0.16-2.91,0.22c7.26,5.62,13.41,12.6,18.36,20.32c1.8,2.64,1.53,6.02,2.729,8.91c1.32,3.98,4.01,7.25,6.07,10.83
	c2.25,5.17,4.3,10.58,4.471,16.28c0.449,8.88,0.059,17.77,0.27,26.65c0.56,0.029,1.689,0.1,2.26,0.129V91.4
	c-1.02,5.069-4,9.369-5.79,14.16c-1.95,3.939-2.47,8.709-5.89,11.789c1.67-8.119,4.34-16.05,8.3-23.35
	c0.28-4.641-0.36-9.27-0.49-13.91c-0.271-12.59-3.409-24.92-7.38-36.81c-2.221-6.78-7.05-12.311-9.3-19.07
	c2.021,2.04,3.46,4.55,5.21,6.8c-0.641-3.97-3.62-6.79-5.46-10.19c-0.06,1.21-0.12,2.43-0.19,3.64c-1.18-3.06-1.96-6.4-4.27-8.87
	c-1.02-5-6.23-7.37-9.95-10.2c-1.44,1.11-2.87,2.21-4.33,3.28c1.39,0.74,2.771,1.49,4.08,2.36c-4.12-0.03-8.351,0.03-12.25-1.49
	c-0.55,1.66-1.069,3.33-1.569,5c1.369-0.84,2.199-3.63,4.059-3.14c0.99,2.43,0.091,5.2-0.01,7.74c-0.369,4.76-4.89,7.61-6.319,11.95
	c-0.511,2.11-0.431,4.3-0.8,6.42c-1.711,0.45-3.47,0.65-5.23,0.86c0.64-0.92,1.28-1.85,1.92-2.77c-1.04-2.1-2.89-4.17-2.25-6.69
	c0.68-4.54,3.24-8.52,4.2-13c0.41,1.08,0.81,2.17,1.17,3.27c0.64-1.18,1.29-2.35,1.95-3.53c-1.811-0.04-4.68,0.22-3.57-3.25
	c0.84,0.09,2.51,0.26,3.35,0.35c0.33-0.73,0.98-2.17,1.311-2.9c-8.27-1.2-17.01-3.07-25.15-0.25c-6.12,2.18-8.24,8.94-12.76,13.03
	c5.22,2.93,11.99,1.95,16.43,6.38c-1.38,0.71-2.77,1.4-4.16,2.08c3.27,3.65,6.71,7.17,10.61,10.17c-0.95,0.46-1.9,0.92-2.86,1.36
	c0.98,1.17,1.95,2.34,2.87,3.56c-3.36,0.24-3.94-3.05-5.28-5.3c-1.88-3.63-6.48-4.48-10.19-4.48c-5.23,1.25-10.14,5.2-11.27,10.66
	c-0.81,1.83-0.07,3.68,0.84,5.29c0.52,3.47,0.35,7.51,3.02,10.19c1.66,1.25,3.77,1.62,5.67,2.34c-0.3-3.75-1.39-8.68,2.18-11.28
	c3.62-2.2,7.96-0.34,11.19,1.72c3.22-3.88,4.18-8.84,4.74-13.7c1.32,1.97,2,4.41,0.89,6.63c-3.02,7.13-8.37,13.17-14.34,18.01
	c-0.99,0.01-1.9-2.29-3.11-1.369c-2.87,1.909-6.59,0.359-8.86-1.801c-3.24-3.24-2.18-8.31-4.26-12.13
	c-0.24-5.96,2.78-12.2,8.46-14.59c3.63-1.95,7.85-1.26,11.68-0.45c-3.25-3.97-6.53-8.61-11.8-9.94c-1.69-0.31-4.13-1.36-5.26,0.53
	c-2.68,4.06-6.61,7.01-9.63,10.76c-0.49,2.23-0.31,4.55-0.64,6.81c-0.42,3.49-2.11,6.64-3.07,9.99c-0.35,4.66-0.25,9.34-0.6,14.01
	c-0.61,8.7,4.19,16.43,5.89,24.75c-0.55,0.59-1.1,1.18-1.64,1.779c-0.41-2.039-0.92-4.049-1.66-6C6.49,84.12,6.75,78.99,4.42,74.62
	c-0.1,5.069,1.17,10.01,2.17,14.93c1.1,2.62,2.76,4.97,4.15,7.44l-0.38-2.46c0.48,0.09,1.43,0.26,1.9,0.35
	c-0.03,1.39,0.02,2.78,0.16,4.17c2.23,2.681,4.75,5.181,6.1,8.48c4.43,2.34,8.92,4.579,13.11,7.34c-0.43,0.13-1.27,0.39-1.7,0.521
	c-4.16-2.281-8.64-4.051-12.48-6.851c-1.8-2.3-3.02-5.021-5.13-7.101c-0.11,5.61,3.18,10.351,4.11,15.69
	c-3.9-3.16-5.06-8.28-5.35-13.05c-0.17-7.01-7.04-11.641-7.3-18.641C2.13,71.141,2.46,56.69,2.86,42.33c0.31,0.6,0.95,1.8,1.27,2.4
	c1.8-0.89,2.1-3.09,2.96-4.71c1.82-3.4,0.14-7.55,2.25-10.86c0.34,1.79,0.65,3.6,0.92,5.41c2.43-3.22,4.62-6.61,7.01-9.86
	c-3,0.1-6.01,0.22-8.99-0.26c2.5-1.8,5.57-1.76,8.49-1.31c-0.12-0.57-0.35-1.71-0.47-2.29c1.34,0.26,2.67,0.52,4,0.79
	c2.3-2.14,4.57-4.37,6.06-7.18C29.34,12.11,31.23,8.18,35.15,7.26 M64.49,1.98c-0.051,1.93-0.16,3.86-0.01,5.78
	c3,0.69,4.569-3.41,6.549-5.09C68.859,2.35,66.68,2.11,64.49,1.98 M43.99,6.5c5.67-0.34,11.17,1.43,16.77,1.42
	c1.061-1.81,1.711-3.81,2.52-5.74C56.85,3.62,50.11,3.84,43.99,6.5 M69.16,7.57c1.32,0.16,3.22-1.39,3.02-2.78
	C70.77,4.45,68.93,6.15,69.16,7.57 M61.109,16.11c-0.51,1.75-0.949,3.53-1.18,5.35c1.211-1.92,2.09-4.01,2.971-6.1
	C62.45,15.55,61.561,15.92,61.109,16.11 M62.221,20.29C62.811,20.85,62.811,20.85,62.221,20.29 M53.77,28.28
	c0.6,0.56,1.19,1.14,1.78,1.72c-2.05,1.39-0.92,2.95,0.13,4.38c0.68-2.22,0.301-4.85,1.84-6.75c-0.64,0.33-1.93,1-2.569,1.33
	c0.2-1.35,0.59-4.04,0.79-5.39C54.99,25.1,54.37,26.69,53.77,28.28 M32.36,27.29c-0.63,1.64,3.28,2.97,3.64,1.11
	C35.41,27.16,33.55,26.71,32.36,27.29 M100.25,42.5c-0.29,1.19-0.12,2.34,0.529,3.43c0.4-0.05,1.191-0.16,1.591-0.22
	C102.49,44.53,101.66,42.28,100.25,42.5 M7.16,43.65C5.77,46.83,10.36,43.77,7.16,43.65 M4.75,46.86
	c-1.21,8.33-0.48,16.89-0.25,25.3c0.47-5.38,0.21-10.79,0.29-16.19c-0.15-3.53,1.91-6.65,2.09-10.14
	C6.35,46.09,5.28,46.6,4.75,46.86 M101.77,48.27c1.57,3.65,2.49,7.55,4.25,11.13c0.351-4.67-2.1-8.75-3.209-13.12
	C102.45,46.94,102.1,47.6,101.77,48.27 M31.61,55.57c-2.16,1.29-1.61,4.07-1.85,6.19c1.19,0.631,2.36,1.311,3.51,2.01
	c2.55-2.06,4.92-4.339,6.88-6.979C37.86,54.76,34.35,54.04,31.61,55.57z"/>
<path fill="#FFFFFF" d="M64.49,1.98c2.189,0.13,4.369,0.37,6.539,0.69C69.05,4.35,67.48,8.45,64.48,7.76
	C64.33,5.84,64.439,3.91,64.49,1.98z"/>
<path fill="#FFFFFF" d="M43.99,6.5c6.12-2.66,12.859-2.88,19.289-4.32c-0.809,1.93-1.459,3.93-2.52,5.74
	C55.16,7.93,49.66,6.16,43.99,6.5z"/>
<path fill="#FFFFFF" d="M69.16,7.57c-0.23-1.42,1.609-3.12,3.02-2.78C72.38,6.18,70.48,7.73,69.16,7.57z"/>
<path fill="#323232" d="M75.42,14.21c-1.77-2.64,3.17-2.23,2.25,0.22C77.109,14.38,75.99,14.27,75.42,14.21z"/>
<path fill="#FFFFFF" d="M61.109,16.11c0.451-0.19,1.341-0.56,1.791-0.75c-0.881,2.09-1.76,4.18-2.971,6.1
	C60.16,19.64,60.6,17.86,61.109,16.11z"/>
<path fill="#323232" d="M74.55,14.86c0.66,0.48,1.97,1.42,2.62,1.89c0.45-0.66,1.359-1.98,1.811-2.64
	c-0.181,1.22-0.36,2.44-0.551,3.66C76.73,17.35,74.83,16.94,74.55,14.86z"/>
<path fill="#323232" d="M69.4,21.56c1.67-3.26,5.57-2.52,8.529-2.13c4.721,1.64,6.19,6.94,10.141,9.58
	c3.279,5.44,7.699,11.29,6.539,18.06c-0.479,3.5-3.93,5.56-7.069,6.39c-5.45,1.36-11.319,0.67-16.479-1.45
	c-4.59-1.86-6.871-6.52-9.891-10.11c-1.93-2.2-0.891-5.37,0.04-7.78c2.2-5.78,7.36-9.62,12.16-13.17
	C72.38,21.11,70.4,21.41,69.4,21.56 M75.35,22.69c-0.72,0.13-2.16,0.38-2.879,0.51C68.02,27.4,62.52,31.63,61.6,38.1
	c2.7,3.84,4.36,8.69,8.48,11.31c0.02-0.87,0.061-2.61,0.08-3.47c3.82-2.74,9.561-3.78,13.369-0.48c2.271,1.67,1.941,4.66,2.101,7.13
	c3.271-0.89,6.89-2.77,7.3-6.55c1.16-4.52-1.979-8.33-3.859-12.12c-1.711-3.73-5.25-6.05-7.68-9.26
	c-0.82-2.64-3.351-3.57-5.811-4.14C75.52,21.06,75.41,22.15,75.35,22.69 M71.529,50.26c3.601,1.78,7.58,2.57,11.591,2.5
	c0.239-1.53,0.851-3.18-0.011-4.63C80.32,43.85,71.77,44.32,71.529,50.26z"/>
<path fill="#FFFFFF" d="M62.221,20.29C62.811,20.85,62.811,20.85,62.221,20.29z"/>
<path fill="#FFFFFF" d="M75.35,22.69c0.061-0.54,0.17-1.63,0.23-2.17c2.46,0.57,4.99,1.5,5.811,4.14c2.43,3.21,5.969,5.53,7.68,9.26
	c1.88,3.79,5.02,7.6,3.859,12.12c-0.41,3.78-4.029,5.66-7.3,6.55c-0.159-2.47,0.17-5.46-2.101-7.13
	c-3.809-3.3-9.549-2.26-13.369,0.48c-0.02,0.86-0.061,2.6-0.08,3.47c-4.12-2.62-5.78-7.47-8.48-11.31
	c0.92-6.47,6.42-10.7,10.871-14.9C73.189,23.07,74.63,22.82,75.35,22.69z"/>
<path fill="#FFFFFF" d="M53.77,28.28c0.6-1.59,1.22-3.18,1.97-4.71c-0.2,1.35-0.59,4.04-0.79,5.39c0.64-0.33,1.93-1,2.569-1.33
	c-1.539,1.9-1.16,4.53-1.84,6.75c-1.05-1.43-2.18-2.99-0.13-4.38C54.96,29.42,54.37,28.84,53.77,28.28z"/>
<path fill="#FFFFFF" d="M32.36,27.29c1.19-0.58,3.05-0.13,3.64,1.11C35.64,30.26,31.73,28.93,32.36,27.29z"/>
<path fill="#FFFFFF" d="M100.25,42.5c1.41-0.22,2.24,2.03,2.12,3.21c-0.399,0.06-1.19,0.17-1.591,0.22
	C100.13,44.84,99.96,43.69,100.25,42.5z"/>
<path fill="#FFFFFF" d="M7.16,43.65C10.36,43.77,5.77,46.83,7.16,43.65z"/>
<path fill="#FFFFFF" d="M4.75,46.86c0.53-0.26,1.6-0.77,2.13-1.03c-0.18,3.49-2.24,6.61-2.09,10.14C4.71,61.37,4.97,66.78,4.5,72.16
	C4.27,63.75,3.54,55.19,4.75,46.86z"/>
<path fill="#FFFFFF" d="M71.529,50.26c0.24-5.94,8.791-6.41,11.58-2.13c0.861,1.45,0.25,3.1,0.011,4.63
	C79.109,52.83,75.13,52.04,71.529,50.26z"/>
<path fill="#FFFFFF" d="M101.77,48.27c0.33-0.67,0.681-1.33,1.041-1.99c1.109,4.37,3.56,8.45,3.209,13.12
	C104.26,55.82,103.34,51.92,101.77,48.27z"/>
<path fill="#323232" d="M52.17,47.9c1.09,0.83,2.18,1.67,3.27,2.51c0.1,0.64,0.291,1.91,0.39,2.55c-0.35-0.04-1.04-0.13-1.39-0.17
	c0.21-0.42,0.62-1.28,0.83-1.71c-0.57-0.25-1.7-0.76-2.27-1.01c-0.16,0.6-0.5,1.79-0.67,2.39C52.26,50.94,52.21,49.42,52.17,47.9z"
	/>
<path fill="#323232" d="M93.83,57.37c1.4-1.8,2.91-3.5,4.42-5.2c0.12,1.87,0.23,3.74,0.33,5.61C96.99,57.65,95.41,57.52,93.83,57.37
	 M95.7,56.08c-0.05,1.79,3.05,0.57,1.989-0.77C97.189,55.5,96.189,55.89,95.7,56.08z"/>
<path fill="#FFFFFF" d="M31.61,55.57c2.74-1.53,6.25-0.81,8.54,1.22c-1.96,2.64-4.33,4.92-6.88,6.979
	c-1.15-0.699-2.32-1.379-3.51-2.01C30,59.64,29.45,56.86,31.61,55.57z"/>
<path fill="#FFFFFF" d="M95.7,56.08c0.489-0.19,1.489-0.58,1.989-0.77C98.75,56.65,95.65,57.87,95.7,56.08z"/>
<path fill="#323232" d="M79.96,66.72c0.54-0.069,1.61-0.22,2.149-0.3c0.16,4.5-3.459,7.971-4.83,12.07
	c-3.079,1.72-5.6,4.3-8.789,5.82c-6.73,2.489-14.38,0.33-19.81-4.061c-1.67-1.189-2.98-2.88-3.53-4.859
	c0.71-1.48,1.99-0.451,3.04-0.121c1.33-0.709,2.71-1.319,4.1-1.899c1.34,1.229,2.69,2.44,4.03,3.67
	c0.609-1.649,1.119-3.351,1.92-4.91c1.71,0.16,2.83,1.57,4.119,2.521c1.041-1.51,1.73-3.711,3.69-4.26
	c2.021-0.771,3.931,0.56,5.771,1.209c1.47-1.31,3.09-2.729,5.229-2.34C78.74,69.689,79.15,67.689,79.96,66.72 M64.5,74.93
	c0.35,2.61,0.859,5.2,1.21,7.811c2.681,0.46,4.819-1.32,5.899-3.641c-0.159-1.89-0.659-3.729-1.02-5.58
	c-1.029-0.879-2.05-1.77-3.07-2.66C66.37,72.09,65.029,73.27,64.5,74.93 M72.66,72.01c1.38,1.32,2.949,2.41,4.52,3.5
	c0.631-1.63,1.291-3.24,1.93-4.869C76.939,71.04,74.79,71.48,72.66,72.01 M55.971,82.51c2.819,1.061,5.819,1.46,8.809,1.18
	c-1.129-3.58-2.649-7.09-5.26-9.85C58.061,76.609,57.01,79.57,55.971,82.51 M50.33,79.04c1.38,0.92,2.73,1.88,4.08,2.83
	c2.73-2.8-1.13-5.14-2.86-7.011C51.03,76.22,50.62,77.62,50.33,79.04 M73.48,75.91c-0.07,0.59-0.221,1.77-0.291,2.359
	c1.181,0.91,2.791-0.629,2.98-1.819C75.43,75.54,74.529,75.359,73.48,75.91z"/>
<path fill="#323232" d="M15.11,69.439c1.17,0.951,2.32,1.92,3.47,2.9c0.01,0.66,0.01,1.99,0.02,2.65c-1.92-0.26-4.1-0.29-4.71-2.6
	c0.96,0.539,2.88,1.629,3.85,2.17c0.37-1.841-1.18-2.761-2.66-3.301C15.08,70.811,15.1,69.891,15.11,69.439z"/>
<path fill="#FFFFFF" d="M64.5,74.93c0.529-1.66,1.87-2.84,3.02-4.07c1.021,0.891,2.041,1.781,3.07,2.66
	c0.36,1.851,0.86,3.69,1.02,5.58c-1.08,2.32-3.219,4.101-5.899,3.641C65.359,80.13,64.85,77.54,64.5,74.93z"/>
<path fill="#FFFFFF" d="M72.66,72.01c2.13-0.529,4.279-0.97,6.449-1.369c-0.639,1.629-1.299,3.239-1.93,4.869
	C75.609,74.42,74.04,73.33,72.66,72.01z"/>
<path fill="#FFFFFF" d="M55.971,82.51c1.039-2.939,2.09-5.9,3.549-8.67c2.61,2.76,4.131,6.27,5.26,9.85
	C61.79,83.97,58.79,83.57,55.971,82.51z"/>
<path fill="#FFFFFF" d="M50.33,79.04c0.29-1.42,0.7-2.82,1.22-4.181c1.73,1.871,5.591,4.211,2.86,7.011
	C53.06,80.92,51.71,79.96,50.33,79.04z"/>
<path fill="#FFFFFF" d="M73.48,75.91c1.049-0.551,1.949-0.37,2.689,0.54c-0.189,1.19-1.8,2.729-2.98,1.819
	C73.26,77.68,73.41,76.5,73.48,75.91z"/>
</svg>
