<?xml version="1.0" encoding="UTF-8" ?>
<!DOCTYPE svg PUBLIC "-//W3C//DTD SVG 1.1//EN" "http://www.w3.org/Graphics/SVG/1.1/DTD/svg11.dtd">
<svg width="250pt" height="206pt" viewBox="0 0 250 206" version="1.1" xmlns="http://www.w3.org/2000/svg">
<path fill="#0d0d0d" opacity="1.00" d=" M 0.00 0.00 L 0.34 0.00 C 0.26 0.09 0.09 0.26 0.00 0.34 L 0.00 0.00 Z" />
<path fill="#fefffe" opacity="1.00" d=" M 0.34 0.00 L 250.00 0.00 L 250.00 206.00 L 242.63 206.00 C 240.68 198.87 238.77 191.72 237.04 184.54 C 235.42 184.47 233.79 184.40 232.17 184.34 C 229.86 191.49 227.80 198.73 225.91 206.00 L 221.21 206.00 C 222.78 204.84 224.01 203.21 224.13 201.20 C 224.63 195.62 224.31 190.00 224.10 184.42 C 222.68 184.38 221.25 184.35 219.83 184.32 C 219.52 190.49 219.98 196.68 219.43 202.85 C 217.51 203.38 215.61 204.01 213.89 205.04 L 216.16 206.00 L 213.71 206.00 C 213.79 198.80 213.77 191.60 213.76 184.41 C 212.56 184.40 211.37 184.39 210.17 184.38 C 210.12 188.82 210.06 193.26 210.22 197.70 C 208.13 193.34 205.89 189.04 204.04 184.57 C 202.46 184.47 200.89 184.38 199.31 184.29 C 198.49 191.50 198.52 198.76 198.61 206.00 L 194.58 206.00 C 194.63 198.81 194.60 191.61 194.57 184.42 C 193.15 184.40 191.73 184.39 190.32 184.38 C 190.23 191.58 190.30 198.79 190.25 206.00 L 185.82 206.00 C 185.93 198.78 185.90 191.57 185.84 184.35 C 184.67 184.36 183.51 184.38 182.35 184.39 C 182.29 188.86 182.22 193.32 182.35 197.79 C 180.32 193.34 178.25 188.90 176.34 184.39 C 174.68 184.40 173.02 184.40 171.37 184.41 C 171.25 191.60 171.31 198.80 171.30 206.00 L 162.06 206.00 C 160.52 198.73 158.61 191.53 156.54 184.40 C 155.03 184.37 153.51 184.34 152.00 184.31 C 149.55 191.43 147.43 198.67 145.70 206.00 L 143.26 206.00 C 140.53 199.86 138.43 193.46 135.28 187.51 C 135.54 186.51 135.79 185.52 136.04 184.52 C 135.29 184.44 133.79 184.30 133.04 184.22 C 129.94 176.80 124.28 170.42 117.42 166.25 C 117.55 158.79 115.89 151.45 116.40 143.99 C 125.99 143.92 135.58 144.06 145.16 143.81 C 149.86 142.86 154.56 141.92 159.25 140.97 C 162.81 140.30 165.78 138.07 169.17 136.94 C 173.44 136.66 177.73 137.21 182.01 136.95 C 184.70 136.86 187.34 136.24 190.04 136.18 C 194.32 136.05 198.64 136.44 202.89 135.75 C 196.63 134.82 190.21 135.06 183.95 135.92 C 179.34 136.33 174.71 136.07 170.10 135.76 C 173.93 133.47 178.00 131.45 181.02 128.06 C 185.36 124.64 188.34 119.94 191.36 115.40 C 193.69 111.19 196.49 107.20 198.17 102.66 C 199.40 98.82 200.10 94.83 200.84 90.86 C 201.25 86.65 200.91 82.41 201.03 78.18 C 202.91 75.70 205.14 73.26 205.65 70.05 C 203.89 71.08 202.30 72.34 200.76 73.66 C 202.27 70.72 204.27 68.01 205.39 64.90 C 205.29 64.53 205.10 63.79 205.00 63.42 C 203.00 64.40 201.83 66.35 200.51 68.04 C 198.68 61.50 197.03 54.86 194.25 48.64 C 191.46 43.85 188.06 39.45 184.68 35.08 C 179.96 29.44 173.02 26.52 166.39 23.80 C 159.10 21.34 151.49 20.18 143.91 19.09 C 136.61 18.80 129.29 19.04 121.98 18.96 C 114.97 19.35 107.90 20.46 101.39 23.21 C 95.80 25.64 90.48 28.63 84.84 30.93 C 75.15 37.71 68.48 47.89 63.49 58.44 C 59.69 65.24 56.67 72.59 55.33 80.29 C 53.01 89.11 51.74 99.23 56.53 107.48 C 59.51 111.48 62.14 115.80 65.76 119.28 C 68.60 122.17 71.14 125.40 74.43 127.82 C 78.36 130.85 82.92 132.90 87.39 134.99 C 90.18 136.29 92.86 137.88 95.83 138.76 C 101.91 140.37 107.72 143.14 114.10 143.38 C 112.92 150.37 114.94 157.30 114.69 164.29 C 109.74 165.62 104.82 167.51 100.81 170.79 C 97.37 173.74 93.53 176.16 89.98 178.97 C 88.95 180.90 87.77 182.77 86.35 184.44 C 85.64 184.43 84.23 184.41 83.52 184.40 C 83.54 185.12 83.56 186.55 83.58 187.27 C 79.71 191.78 77.94 197.56 74.27 202.20 C 74.53 203.46 74.81 204.73 75.08 206.00 L 74.72 206.00 C 74.39 205.34 73.72 204.03 73.39 203.37 C 71.14 203.37 68.90 203.37 66.65 203.37 C 66.55 197.06 66.63 190.74 66.60 184.43 C 65.55 184.42 63.45 184.41 62.40 184.40 C 62.39 191.60 62.37 198.80 62.38 206.00 L 59.81 206.00 C 59.79 205.34 59.74 204.03 59.72 203.38 C 56.94 203.38 54.16 203.37 51.38 203.36 C 51.37 200.79 51.37 198.21 51.39 195.64 C 53.44 195.60 55.49 195.56 57.55 195.52 C 57.87 195.04 58.51 194.08 58.84 193.60 C 56.34 193.14 53.82 192.80 51.29 192.57 C 51.35 190.71 51.40 188.85 51.46 186.99 C 54.77 187.02 58.11 187.01 61.35 186.25 C 57.41 182.98 51.88 184.95 47.20 184.35 C 47.13 191.57 47.09 198.78 47.16 206.00 L 45.00 206.00 C 44.77 205.42 44.30 204.25 44.07 203.66 C 41.26 203.23 38.41 203.36 35.58 203.32 C 35.58 200.77 35.57 198.23 35.57 195.68 C 37.89 195.64 40.21 195.59 42.52 195.53 C 42.56 194.98 42.63 193.88 42.66 193.32 C 40.29 193.08 37.92 192.85 35.55 192.65 C 35.56 190.87 35.56 189.09 35.56 187.31 C 38.59 187.22 41.63 187.08 44.66 186.83 C 44.63 186.23 44.57 185.04 44.55 184.44 C 40.16 184.44 35.78 184.42 31.40 184.38 C 31.45 191.59 31.17 198.80 31.51 206.00 L 20.68 206.00 C 20.70 202.83 20.77 199.67 21.08 196.52 C 23.26 196.50 25.44 196.52 27.62 196.36 C 27.56 195.78 27.45 194.62 27.40 194.03 C 25.18 193.75 22.95 193.69 20.73 193.57 C 20.73 191.50 20.72 189.43 20.70 187.37 C 23.44 187.22 26.24 187.36 28.94 186.76 C 29.26 186.23 29.92 185.17 30.24 184.64 C 25.69 184.34 21.13 184.38 16.57 184.43 C 16.56 191.62 16.52 198.81 16.58 206.00 L 0.00 206.00 L 0.00 0.34 C 0.09 0.26 0.26 0.09 0.34 0.00 M 195.84 24.70 C 204.21 25.56 212.75 23.95 221.00 25.90 C 226.72 26.02 232.48 26.13 238.19 25.70 C 232.05 24.05 225.54 25.91 219.31 24.77 C 214.32 23.41 209.10 24.23 204.00 24.03 C 201.28 24.12 198.41 23.54 195.84 24.70 M 35.00 28.00 C 28.17 27.98 21.33 27.97 14.50 27.97 L 14.46 29.51 C 21.64 29.57 28.82 29.51 35.99 29.56 C 40.01 29.62 43.98 28.77 48.00 28.84 C 54.95 28.85 61.91 28.89 68.87 28.86 C 68.87 28.43 68.87 27.57 68.87 27.15 C 61.58 27.10 54.28 27.18 46.99 27.11 C 42.96 26.98 39.03 28.10 35.00 28.00 M 227.81 55.31 C 231.11 56.41 234.88 56.39 238.19 55.33 C 234.75 54.93 231.25 54.92 227.81 55.31 M 13.79 72.84 C 16.81 73.52 19.93 73.19 23.00 73.26 C 25.55 73.18 28.20 73.59 30.67 72.72 C 25.09 72.16 19.33 71.97 13.79 72.84 M 219.24 89.19 C 225.54 89.76 231.92 91.42 238.25 90.00 C 234.23 88.92 229.90 90.41 226.01 88.89 C 223.75 88.67 221.44 88.57 219.24 89.19 M 33.44 113.82 C 42.12 114.13 50.85 114.15 59.53 113.80 C 57.62 112.45 55.20 112.78 53.00 112.73 C 48.35 112.79 43.69 112.77 39.04 112.74 C 37.13 112.79 35.02 112.50 33.44 113.82 M 13.71 143.34 C 15.06 143.92 16.54 144.08 18.00 144.01 C 24.61 143.90 31.21 143.99 37.82 143.97 L 37.77 143.11 C 29.75 143.14 21.71 142.76 13.71 143.34 M 220.00 153.03 C 214.49 153.21 208.91 152.52 203.46 153.55 C 197.32 155.00 190.96 153.70 184.74 154.40 C 188.65 155.85 192.94 154.83 197.01 155.15 C 201.10 155.43 204.92 153.49 208.99 153.62 C 216.00 153.68 223.00 153.64 230.01 153.69 C 232.77 153.68 235.60 153.79 238.28 152.99 C 232.19 152.92 226.09 153.14 220.00 153.03 Z" />
<path fill="#0d0d0d" opacity="1.00" d=" M 101.39 23.21 C 107.90 20.46 114.97 19.35 121.98 18.96 C 129.29 19.04 136.61 18.80 143.91 19.09 C 151.49 20.18 159.10 21.34 166.39 23.80 C 173.02 26.52 179.96 29.44 184.68 35.08 C 188.06 39.45 191.46 43.85 194.25 48.64 C 197.03 54.86 198.68 61.50 200.51 68.04 C 201.83 66.35 203.00 64.40 205.00 63.42 C 205.10 63.79 205.29 64.53 205.39 64.90 C 204.27 68.01 202.27 70.72 200.76 73.66 C 202.30 72.34 203.89 71.08 205.65 70.05 C 205.14 73.26 202.91 75.70 201.03 78.18 C 200.91 82.41 201.25 86.65 200.84 90.86 C 200.10 94.83 199.40 98.82 198.17 102.66 C 196.49 107.20 193.69 111.19 191.36 115.40 C 188.34 119.94 185.36 124.64 181.02 128.06 C 178.00 131.45 173.93 133.47 170.10 135.76 C 174.71 136.07 179.34 136.33 183.95 135.92 C 190.21 135.06 196.63 134.82 202.89 135.75 C 198.64 136.44 194.32 136.05 190.04 136.18 C 187.34 136.24 184.70 136.86 182.01 136.95 C 177.73 137.21 173.44 136.66 169.17 136.94 C 165.78 138.07 162.81 140.30 159.25 140.97 C 154.56 141.92 149.86 142.86 145.16 143.81 C 135.58 144.06 125.99 143.92 116.40 143.99 C 115.89 151.45 117.55 158.79 117.42 166.25 C 124.28 170.42 129.94 176.80 133.04 184.22 C 132.08 184.19 131.11 184.19 130.15 184.21 C 127.66 178.21 122.59 174.07 118.35 169.38 C 117.96 174.37 118.16 179.38 118.12 184.38 C 117.45 184.31 116.12 184.19 115.45 184.13 C 115.55 179.23 115.46 174.32 115.52 169.42 C 114.77 168.77 114.02 168.12 113.28 167.46 C 105.59 169.39 100.04 175.23 93.63 179.47 C 91.05 181.00 90.72 185.16 87.52 185.69 L 87.03 184.49 L 86.35 184.44 C 87.77 182.77 88.95 180.90 89.98 178.97 C 93.53 176.16 97.37 173.74 100.81 170.79 C 104.82 167.51 109.74 165.62 114.69 164.29 C 114.94 157.30 112.92 150.37 114.10 143.38 C 107.72 143.14 101.91 140.37 95.83 138.76 C 92.86 137.88 90.18 136.29 87.39 134.99 C 82.92 132.90 78.36 130.85 74.43 127.82 C 71.14 125.40 68.60 122.17 65.76 119.28 C 62.14 115.80 59.51 111.48 56.53 107.48 C 51.74 99.23 53.01 89.11 55.33 80.29 C 56.67 72.59 59.69 65.24 63.49 58.44 C 68.48 47.89 75.15 37.71 84.84 30.93 C 90.48 28.63 95.80 25.64 101.39 23.21 M 106.04 24.12 C 99.88 25.56 94.62 29.26 88.90 31.81 C 83.99 33.86 79.87 37.49 76.80 41.80 C 70.54 48.69 66.88 57.36 62.54 65.47 C 60.90 70.07 58.72 74.55 58.17 79.46 C 56.05 87.66 54.94 96.39 57.22 104.69 C 59.36 107.08 61.43 109.61 62.49 112.69 C 63.31 113.10 64.13 113.52 64.95 113.94 C 65.11 114.42 65.44 115.40 65.60 115.89 C 68.75 117.89 70.55 121.28 73.30 123.72 C 75.57 125.78 78.04 127.60 80.35 129.63 C 85.24 131.05 89.74 133.50 94.38 135.54 C 98.45 136.67 102.34 138.35 106.37 139.62 C 116.40 142.07 126.78 141.02 136.99 141.28 C 143.76 141.50 150.44 140.19 157.07 139.00 C 160.93 138.40 164.27 136.28 167.86 134.89 C 172.26 130.35 179.02 129.05 182.87 123.85 C 187.58 116.91 192.09 109.83 196.01 102.41 C 185.79 105.85 175.00 107.29 164.30 108.26 C 157.95 109.40 151.54 108.07 145.20 107.49 C 138.78 105.87 132.12 104.25 126.58 100.43 C 123.24 98.18 119.78 95.86 117.55 92.42 C 113.59 86.61 110.03 79.94 110.31 72.71 C 113.94 69.51 116.84 65.49 120.98 62.90 C 126.77 58.82 134.03 57.45 141.00 57.63 C 147.78 57.45 154.36 59.67 160.38 62.61 C 165.80 64.90 170.75 68.11 175.51 71.53 C 177.91 73.28 181.20 74.59 184.11 73.35 C 189.77 71.39 192.59 65.72 196.91 61.98 C 194.97 56.55 193.25 50.91 189.82 46.19 C 187.34 42.67 184.99 39.02 182.15 35.77 C 177.31 31.15 171.31 27.82 164.85 26.07 C 157.76 23.80 150.40 22.41 143.01 21.58 C 130.69 21.91 117.98 20.33 106.04 24.12 M 128.89 61.86 C 125.22 63.73 121.27 65.34 118.33 68.32 C 116.33 70.37 113.87 72.24 112.98 75.09 C 113.29 77.99 114.23 80.80 115.20 83.55 C 116.98 88.42 120.90 91.98 124.50 95.51 C 128.46 99.26 133.61 101.24 138.61 103.17 C 141.42 103.66 144.19 104.40 147.01 104.85 C 152.50 105.27 158.01 106.83 163.52 105.63 C 166.49 104.65 169.67 105.40 172.70 104.77 C 180.02 103.39 187.49 102.57 194.61 100.31 C 192.60 99.78 189.92 100.73 188.44 98.85 C 191.38 98.51 195.11 100.25 197.44 97.74 C 193.52 96.91 189.57 98.08 185.62 97.66 C 189.32 96.44 193.23 96.36 197.08 96.48 C 197.32 95.33 197.54 94.17 197.76 93.02 C 194.45 93.77 191.27 95.08 187.94 95.69 C 187.45 95.30 186.47 94.54 185.99 94.15 C 187.49 93.34 188.99 92.36 190.73 92.13 C 190.22 91.38 189.28 91.02 188.78 90.22 C 187.59 92.42 185.95 94.53 183.45 95.29 C 185.34 91.98 186.85 88.32 189.75 85.73 C 192.40 83.48 193.51 80.11 195.12 77.14 C 195.74 78.13 196.34 79.13 196.92 80.15 C 197.11 79.56 197.48 78.39 197.66 77.80 C 198.20 77.13 198.58 76.38 198.80 75.57 C 197.87 75.68 196.95 75.62 196.06 75.33 C 196.69 74.64 197.95 73.25 198.58 72.56 C 198.19 69.49 198.32 66.07 196.34 63.50 C 196.34 64.53 196.32 65.55 196.30 66.58 C 194.28 67.71 193.52 69.83 192.93 71.92 C 192.15 72.95 189.45 73.54 190.89 75.24 L 191.13 75.94 C 193.49 74.01 194.90 70.66 197.97 69.78 C 195.22 72.43 192.80 75.49 189.64 77.68 C 187.36 79.47 184.77 80.83 182.52 82.66 C 177.94 83.64 173.33 82.46 169.06 80.83 C 165.61 79.44 161.94 78.70 158.46 77.42 C 156.78 75.96 155.23 74.35 153.67 72.77 C 153.64 72.38 153.58 71.61 153.55 71.23 C 149.48 70.19 146.56 66.87 142.56 65.64 C 146.34 65.17 148.88 68.72 152.16 69.97 C 156.21 71.49 157.09 77.04 161.44 77.83 C 165.96 78.38 170.00 80.77 174.52 81.28 C 177.57 82.73 181.43 82.79 183.77 80.06 C 182.16 79.92 180.54 79.80 178.93 79.71 L 178.85 78.88 C 181.10 79.04 183.35 79.24 185.56 79.74 C 186.35 78.03 187.26 76.38 188.20 74.75 C 186.16 75.48 184.14 76.34 182.01 76.76 C 179.59 77.01 177.60 75.35 175.39 74.70 C 172.14 71.76 168.21 69.75 164.47 67.53 C 157.15 63.90 149.45 59.71 141.01 60.32 C 136.92 60.24 132.68 60.08 128.89 61.86 M 188.35 73.61 L 188.24 74.43 L 188.91 74.80 L 189.66 74.33 L 189.77 73.50 L 189.10 73.14 L 188.35 73.61 M 188.81 76.16 L 188.99 76.80 C 190.41 77.12 191.04 76.60 190.89 75.24 L 190.18 75.08 C 189.84 75.35 189.15 75.89 188.81 76.16 M 193.11 86.01 C 193.58 86.49 194.52 87.46 194.99 87.95 C 195.04 88.62 195.13 89.97 195.18 90.65 C 196.24 90.53 197.29 90.42 198.35 90.30 C 198.37 87.15 198.46 83.99 198.37 80.84 C 196.51 82.45 194.80 84.23 193.11 86.01 Z" />
<path fill="#7f7f7f" opacity="1.00" d=" M 106.04 24.12 C 117.98 20.33 130.69 21.91 143.01 21.58 C 150.40 22.41 157.76 23.80 164.85 26.07 C 171.31 27.82 177.31 31.15 182.15 35.77 C 184.99 39.02 187.34 42.67 189.82 46.19 C 193.25 50.91 194.97 56.55 196.91 61.98 C 192.59 65.72 189.77 71.39 184.11 73.35 C 181.20 74.59 177.91 73.28 175.51 71.53 C 170.75 68.11 165.80 64.90 160.38 62.61 C 154.36 59.67 147.78 57.45 141.00 57.63 C 134.03 57.45 126.77 58.82 120.98 62.90 C 116.84 65.49 113.94 69.51 110.31 72.71 C 110.03 79.94 113.59 86.61 117.55 92.42 C 119.78 95.86 123.24 98.18 126.58 100.43 C 132.12 104.25 138.78 105.87 145.20 107.49 C 151.54 108.07 157.95 109.40 164.30 108.26 C 175.00 107.29 185.79 105.85 196.01 102.41 C 192.09 109.83 187.58 116.91 182.87 123.85 C 179.02 129.05 172.26 130.35 167.86 134.89 C 164.27 136.28 160.93 138.40 157.07 139.00 C 150.44 140.19 143.76 141.50 136.99 141.28 C 126.78 141.02 116.40 142.07 106.37 139.62 C 102.34 138.35 98.45 136.67 94.38 135.54 C 89.74 133.50 85.24 131.05 80.35 129.63 C 78.04 127.60 75.57 125.78 73.30 123.72 C 70.55 121.28 68.75 117.89 65.60 115.89 C 65.44 115.40 65.11 114.42 64.95 113.94 C 64.13 113.52 63.31 113.10 62.49 112.69 C 61.43 109.61 59.36 107.08 57.22 104.69 C 54.94 96.39 56.05 87.66 58.17 79.46 C 58.72 74.55 60.90 70.07 62.54 65.47 C 66.88 57.36 70.54 48.69 76.80 41.80 C 79.87 37.49 83.99 33.86 88.90 31.81 C 94.62 29.26 99.88 25.56 106.04 24.12 M 143.19 44.44 C 143.21 44.95 143.25 45.98 143.27 46.49 C 150.98 47.11 158.11 50.58 165.20 53.46 C 168.03 54.68 171.53 53.83 173.86 56.20 C 174.86 57.13 175.95 55.40 176.93 55.36 C 180.81 54.91 185.34 55.68 188.37 52.60 C 181.51 55.18 174.07 54.34 167.02 53.11 C 163.04 52.07 159.51 49.81 155.59 48.60 C 151.98 47.58 148.44 46.28 144.78 45.44 C 144.39 45.19 143.59 44.69 143.19 44.44 M 127.49 48.50 C 130.34 48.44 133.23 48.08 136.06 48.66 C 141.04 49.66 146.12 50.21 150.97 51.80 C 155.57 52.76 159.36 55.77 163.84 57.06 C 166.60 57.89 169.39 58.63 172.16 59.44 C 177.17 61.03 182.49 60.14 187.65 60.41 C 189.23 58.88 190.84 57.24 191.05 54.92 C 190.00 56.33 189.09 57.84 187.92 59.14 C 183.67 59.69 179.32 59.53 175.06 59.19 C 169.87 57.82 164.53 56.74 159.65 54.44 C 153.51 51.14 146.65 49.37 139.79 48.40 C 135.75 47.76 131.32 46.27 127.49 48.50 M 112.05 57.61 C 109.72 58.32 107.57 59.50 105.72 61.07 C 109.15 60.23 112.24 58.47 115.58 57.37 C 120.08 55.92 124.26 53.43 128.99 52.72 C 132.32 52.48 135.67 52.55 139.01 52.60 C 142.65 52.57 145.77 54.66 149.17 55.61 C 151.61 56.06 154.16 56.23 156.38 57.46 C 160.43 59.57 164.83 60.89 168.93 62.90 C 174.72 66.30 182.18 67.55 188.57 65.20 C 190.63 64.56 192.11 62.92 193.02 61.02 C 190.50 62.75 188.17 65.08 184.96 65.31 C 179.75 65.72 174.25 65.08 169.69 62.37 C 165.02 59.87 160.07 58.00 155.18 55.99 C 152.88 54.98 150.29 55.06 147.92 54.25 C 144.69 53.17 141.53 51.54 138.04 51.57 C 134.75 51.58 131.44 51.44 128.17 51.83 C 122.60 53.18 117.47 55.82 112.05 57.61 M 64.72 78.16 C 64.29 84.25 63.04 90.35 63.91 96.46 C 64.91 102.34 67.89 107.58 70.60 112.80 C 71.94 115.54 74.07 117.75 76.10 119.99 C 78.83 122.89 81.14 126.42 84.91 128.08 C 80.65 123.64 76.07 119.41 72.46 114.42 C 69.58 108.73 65.98 103.18 64.95 96.76 C 64.03 90.50 65.04 84.21 65.72 77.98 C 66.41 75.01 67.55 72.15 68.10 69.14 C 68.89 65.18 70.97 61.63 71.90 57.71 C 67.78 63.81 66.79 71.26 64.72 78.16 M 97.49 81.68 C 97.59 83.15 97.72 84.62 97.87 86.09 C 101.64 90.90 105.11 96.09 110.13 99.73 C 115.94 103.22 121.95 107.02 128.96 107.19 L 128.95 106.22 C 121.73 106.06 115.59 102.03 109.63 98.42 C 104.29 93.99 99.74 88.30 97.49 81.68 M 84.14 82.79 C 86.05 84.94 87.76 87.25 89.17 89.77 C 94.60 93.42 97.54 99.96 103.50 103.02 C 106.84 104.42 110.14 105.90 113.36 107.58 C 115.94 109.06 118.99 108.65 121.83 108.74 C 121.80 108.45 121.73 107.88 121.70 107.59 C 119.21 107.63 116.53 108.22 114.21 107.01 C 111.23 105.63 108.33 104.07 105.29 102.83 C 100.97 101.09 97.61 97.68 94.77 94.11 C 92.75 91.46 90.04 89.41 88.27 86.57 C 87.30 84.91 85.72 83.80 84.14 82.79 M 130.49 107.41 C 130.33 108.85 132.84 108.81 133.52 107.93 C 133.66 106.49 131.17 106.56 130.49 107.41 M 78.99 115.00 C 80.31 117.90 82.60 120.16 84.61 122.58 C 86.28 124.52 88.51 126.08 91.17 126.10 C 88.95 124.49 86.30 123.41 84.53 121.24 C 82.70 119.14 81.02 116.91 78.99 115.00 M 168.92 130.26 C 172.66 127.95 175.04 124.18 177.78 120.87 C 179.24 119.10 180.56 117.19 181.18 114.95 C 177.43 120.31 173.35 125.44 168.92 130.26 M 87.80 120.14 C 88.87 122.87 91.86 123.65 94.46 124.12 C 92.50 122.40 90.18 121.18 87.80 120.14 M 166.58 126.51 C 164.28 129.09 162.16 131.89 161.06 135.21 C 162.88 132.96 164.39 130.49 166.19 128.22 C 168.35 125.39 171.01 122.97 172.97 119.98 C 170.23 121.49 168.62 124.26 166.58 126.51 M 177.00 125.14 C 178.08 124.88 179.14 124.56 180.18 124.18 C 181.07 122.97 181.43 121.49 181.97 120.12 C 180.25 121.73 178.58 123.39 177.00 125.14 Z" />
<path fill="#0d0d0d" opacity="1.00" d=" M 195.84 24.70 C 198.41 23.54 201.28 24.12 204.00 24.03 C 209.10 24.23 214.32 23.41 219.31 24.77 C 225.54 25.91 232.05 24.05 238.19 25.70 C 232.48 26.13 226.72 26.02 221.00 25.90 C 212.75 23.95 204.21 25.56 195.84 24.70 Z" />
<path fill="#7f7f7f" opacity="1.00" d=" M 35.00 28.00 C 39.03 28.10 42.96 26.98 46.99 27.11 C 54.28 27.18 61.58 27.10 68.87 27.15 C 68.87 27.57 68.87 28.43 68.87 28.86 C 61.91 28.89 54.95 28.85 48.00 28.84 C 43.98 28.77 40.01 29.62 35.99 29.56 C 28.82 29.51 21.64 29.57 14.46 29.51 L 14.50 27.97 C 21.33 27.97 28.17 27.98 35.00 28.00 Z" />
<path fill="#0d0d0d" opacity="1.00" d=" M 143.19 44.44 C 143.59 44.69 144.39 45.19 144.78 45.44 C 148.44 46.28 151.98 47.58 155.59 48.60 C 159.51 49.81 163.04 52.07 167.02 53.11 C 174.07 54.34 181.51 55.18 188.37 52.60 C 185.34 55.68 180.81 54.91 176.93 55.36 C 175.95 55.40 174.86 57.13 173.86 56.20 C 171.53 53.83 168.03 54.68 165.20 53.46 C 158.11 50.58 150.98 47.11 143.27 46.49 C 143.25 45.98 143.21 44.95 143.19 44.44 Z" />
<path fill="#0d0d0d" opacity="1.00" d=" M 127.49 48.50 C 131.32 46.27 135.75 47.76 139.79 48.40 C 146.65 49.37 153.51 51.14 159.65 54.44 C 164.53 56.74 169.87 57.82 175.06 59.19 C 179.32 59.53 183.67 59.69 187.92 59.14 C 189.09 57.84 190.00 56.33 191.05 54.92 C 190.84 57.24 189.23 58.88 187.65 60.41 C 182.49 60.14 177.17 61.03 172.16 59.44 C 169.39 58.63 166.60 57.89 163.84 57.06 C 159.36 55.77 155.57 52.76 150.97 51.80 C 146.12 50.21 141.04 49.66 136.06 48.66 C 133.23 48.08 130.34 48.44 127.49 48.50 Z" />
<path fill="#0d0d0d" opacity="1.00" d=" M 112.05 57.61 C 117.47 55.82 122.60 53.18 128.17 51.83 C 131.44 51.44 134.75 51.58 138.04 51.57 C 141.53 51.54 144.69 53.17 147.92 54.25 C 150.29 55.06 152.88 54.98 155.18 55.99 C 160.07 58.00 165.02 59.87 169.69 62.37 C 174.25 65.08 179.75 65.72 184.96 65.31 C 188.17 65.08 190.50 62.75 193.02 61.02 C 192.11 62.92 190.63 64.56 188.57 65.20 C 182.18 67.55 174.72 66.30 168.93 62.90 C 164.83 60.89 160.43 59.57 156.38 57.46 C 154.16 56.23 151.61 56.06 149.17 55.61 C 145.77 54.66 142.65 52.57 139.01 52.60 C 135.67 52.55 132.32 52.48 128.99 52.72 C 124.26 53.43 120.08 55.92 115.58 57.37 C 112.24 58.47 109.15 60.23 105.72 61.07 C 107.57 59.50 109.72 58.32 112.05 57.61 Z" />
<path fill="#0d0d0d" opacity="1.00" d=" M 227.81 55.31 C 231.25 54.92 234.75 54.93 238.19 55.33 C 234.88 56.39 231.11 56.41 227.81 55.31 Z" />
<path fill="#0d0d0d" opacity="1.00" d=" M 64.72 78.16 C 66.79 71.26 67.78 63.81 71.90 57.71 C 70.97 61.63 68.89 65.18 68.10 69.14 C 67.55 72.15 66.41 75.01 65.72 77.98 C 65.04 84.21 64.03 90.50 64.95 96.76 C 65.98 103.18 69.58 108.73 72.46 114.42 C 76.07 119.41 80.65 123.64 84.91 128.08 C 81.14 126.42 78.83 122.89 76.10 119.99 C 74.07 117.75 71.94 115.54 70.60 112.80 C 67.89 107.58 64.91 102.34 63.91 96.46 C 63.04 90.35 64.29 84.25 64.72 78.16 Z" />
<path fill="#fefffe" opacity="1.00" d=" M 128.89 61.86 C 132.68 60.08 136.92 60.24 141.01 60.32 C 149.45 59.71 157.15 63.90 164.47 67.53 C 168.21 69.75 172.14 71.76 175.39 74.70 C 177.60 75.35 179.59 77.01 182.01 76.76 C 184.14 76.34 186.16 75.48 188.20 74.75 C 187.26 76.38 186.35 78.03 185.56 79.74 C 183.35 79.24 181.10 79.04 178.85 78.88 L 178.93 79.71 C 180.54 79.80 182.16 79.92 183.77 80.06 C 181.43 82.79 177.57 82.73 174.52 81.28 C 170.00 80.77 165.96 78.38 161.44 77.83 C 157.09 77.04 156.21 71.49 152.16 69.97 C 148.88 68.72 146.34 65.17 142.56 65.64 C 146.56 66.87 149.48 70.19 153.55 71.23 C 153.58 71.61 153.64 72.38 153.67 72.77 C 155.23 74.35 156.78 75.96 158.46 77.42 C 161.94 78.70 165.61 79.44 169.06 80.83 C 173.33 82.46 177.94 83.64 182.52 82.66 C 184.77 80.83 187.36 79.47 189.64 77.68 C 192.80 75.49 195.22 72.43 197.97 69.78 C 194.90 70.66 193.49 74.01 191.13 75.94 L 190.89 75.24 C 189.45 73.54 192.15 72.95 192.93 71.92 C 193.52 69.83 194.28 67.71 196.30 66.58 C 196.32 65.55 196.34 64.53 196.34 63.50 C 198.32 66.07 198.19 69.49 198.58 72.56 C 197.95 73.25 196.69 74.64 196.06 75.33 C 196.95 75.62 197.87 75.68 198.80 75.57 C 198.58 76.38 198.20 77.13 197.66 77.80 C 197.48 78.39 197.11 79.56 196.92 80.15 C 196.34 79.13 195.74 78.13 195.12 77.14 C 193.51 80.11 192.40 83.48 189.75 85.73 C 186.85 88.32 185.34 91.98 183.45 95.29 C 185.95 94.53 187.59 92.42 188.78 90.22 C 189.28 91.02 190.22 91.38 190.73 92.13 C 188.99 92.36 187.49 93.34 185.99 94.15 C 186.47 94.54 187.45 95.30 187.94 95.69 C 191.27 95.08 194.45 93.77 197.76 93.02 C 197.54 94.17 197.32 95.33 197.08 96.48 C 193.23 96.36 189.32 96.44 185.62 97.66 C 189.57 98.08 193.52 96.91 197.44 97.74 C 195.11 100.25 191.38 98.51 188.44 98.85 C 189.92 100.73 192.60 99.78 194.61 100.31 C 187.49 102.57 180.02 103.39 172.70 104.77 C 169.67 105.40 166.49 104.65 163.52 105.63 C 158.01 106.83 152.50 105.27 147.01 104.85 C 144.19 104.40 141.42 103.66 138.61 103.17 C 133.61 101.24 128.46 99.26 124.50 95.51 C 120.90 91.98 116.98 88.42 115.20 83.55 C 114.23 80.80 113.29 77.99 112.98 75.09 C 113.87 72.24 116.33 70.37 118.33 68.32 C 121.27 65.34 125.22 63.73 128.89 61.86 M 146.90 63.49 C 147.85 64.42 148.83 65.33 149.78 66.27 C 153.17 68.32 156.59 70.29 160.07 72.17 C 158.23 69.41 154.85 68.57 152.22 66.81 C 150.37 65.81 149.04 63.91 146.90 63.49 M 159.65 72.32 C 163.97 73.60 168.08 75.70 172.61 76.19 C 171.60 75.51 170.59 74.85 169.58 74.18 C 166.07 74.42 163.18 71.65 159.65 72.32 M 159.64 75.32 C 163.96 76.74 168.50 77.41 172.73 79.15 C 174.31 79.98 176.10 79.66 177.71 79.11 C 178.14 78.63 178.99 77.67 179.41 77.19 C 178.76 77.28 177.46 77.44 176.81 77.53 C 176.33 75.46 174.18 75.73 172.61 76.19 L 171.63 76.39 C 173.68 76.65 175.60 77.33 177.04 78.92 C 174.34 78.87 171.73 78.16 169.22 77.21 C 166.13 76.26 162.94 74.77 159.64 75.32 M 120.23 77.19 C 124.35 79.92 129.21 81.38 133.84 83.03 C 134.43 82.36 135.02 81.70 135.61 81.04 C 131.00 79.65 126.43 78.13 121.90 76.52 C 121.48 76.69 120.65 77.02 120.23 77.19 M 118.60 81.55 C 122.40 84.13 127.15 84.28 131.45 85.52 C 133.91 86.27 136.41 86.95 138.96 87.28 C 138.27 89.43 137.44 91.65 138.74 93.80 C 134.75 94.00 130.76 94.05 126.77 93.81 C 126.75 94.48 126.70 95.81 126.68 96.47 C 141.96 96.62 157.24 96.49 172.52 96.53 C 173.34 94.87 174.17 93.21 175.14 91.64 C 171.01 88.94 165.92 88.25 161.95 85.25 C 161.24 85.32 159.82 85.44 159.11 85.51 C 160.63 86.03 162.31 86.23 163.62 87.24 C 166.54 89.23 170.12 89.76 173.35 91.04 C 173.35 92.20 173.35 93.36 173.36 94.52 C 168.18 92.38 162.83 90.61 157.38 89.29 C 151.94 87.74 146.90 85.08 141.52 83.32 L 140.73 83.82 C 140.61 84.34 140.35 85.38 140.23 85.90 C 140.02 85.56 139.61 84.89 139.41 84.56 C 137.97 84.43 136.56 84.20 135.23 83.66 C 130.29 83.18 125.60 81.19 120.81 79.91 C 120.26 80.32 119.15 81.14 118.60 81.55 M 136.20 82.21 C 136.29 82.55 136.48 83.21 136.57 83.55 L 137.46 83.22 L 137.56 82.25 L 136.77 81.74 L 136.20 82.21 M 180.81 90.64 C 181.69 90.45 182.87 90.52 183.35 89.57 C 184.81 87.42 185.84 84.92 187.90 83.24 C 187.67 82.97 187.21 82.44 186.99 82.18 C 185.37 85.28 183.70 88.51 180.81 90.64 M 139.17 83.24 L 139.02 83.63 L 139.48 83.61 C 139.40 83.51 139.25 83.33 139.17 83.24 M 179.17 97.05 C 180.78 97.99 182.47 98.84 184.30 99.27 C 183.05 98.25 181.73 97.33 180.46 96.35 C 180.30 95.01 180.10 93.68 179.85 92.36 C 179.53 93.91 179.35 95.48 179.17 97.05 M 176.70 94.13 C 175.61 95.62 174.12 97.21 174.83 99.21 C 175.85 97.69 177.05 96.07 176.70 94.13 M 151.32 99.82 C 146.05 100.03 140.77 100.03 135.50 100.04 L 135.62 100.97 C 141.73 100.56 147.98 101.52 153.98 100.01 C 156.69 99.72 159.49 100.32 162.12 99.39 C 158.57 99.01 154.68 98.33 151.32 99.82 M 143.49 102.93 C 149.15 103.06 154.82 103.15 160.47 102.87 C 160.12 102.54 159.42 101.88 159.07 101.56 C 155.40 101.14 151.70 101.37 148.01 101.30 C 146.45 101.57 143.92 100.66 143.49 102.93 Z" />
<path fill="#0d0d0d" opacity="1.00" d=" M 146.90 63.49 C 149.04 63.91 150.37 65.81 152.22 66.81 C 154.85 68.57 158.23 69.41 160.07 72.17 C 156.59 70.29 153.17 68.32 149.78 66.27 C 148.83 65.33 147.85 64.42 146.90 63.49 Z" />
<path fill="#0d0d0d" opacity="1.00" d=" M 13.79 72.84 C 19.33 71.97 25.09 72.16 30.67 72.72 C 28.20 73.59 25.55 73.18 23.00 73.26 C 19.93 73.19 16.81 73.52 13.79 72.84 Z" />
<path fill="#0d0d0d" opacity="1.00" d=" M 159.65 72.32 C 163.18 71.65 166.07 74.42 169.58 74.18 C 170.59 74.85 171.60 75.51 172.61 76.19 C 168.08 75.70 163.97 73.60 159.65 72.32 Z" />
<path fill="#fefffe" opacity="1.00" d=" M 188.35 73.61 L 189.10 73.14 L 189.77 73.50 L 189.66 74.33 L 188.91 74.80 L 188.24 74.43 L 188.35 73.61 Z" />
<path fill="#0d0d0d" opacity="1.00" d=" M 159.64 75.32 C 162.94 74.77 166.13 76.26 169.22 77.21 C 171.73 78.16 174.34 78.87 177.04 78.92 C 175.60 77.33 173.68 76.65 171.63 76.39 L 172.61 76.19 C 174.18 75.73 176.33 75.46 176.81 77.53 C 177.46 77.44 178.76 77.28 179.41 77.19 C 178.99 77.67 178.14 78.63 177.71 79.11 C 176.10 79.66 174.31 79.98 172.73 79.15 C 168.50 77.41 163.96 76.74 159.64 75.32 Z" />
<path fill="#fefffe" opacity="1.00" d=" M 188.81 76.16 C 189.15 75.89 189.84 75.35 190.18 75.08 L 190.89 75.24 C 191.04 76.60 190.41 77.12 188.99 76.80 L 188.81 76.16 Z" />
<path fill="#0d0d0d" opacity="1.00" d=" M 120.23 77.19 C 120.65 77.02 121.48 76.69 121.90 76.52 C 126.43 78.13 131.00 79.65 135.61 81.04 C 135.02 81.70 134.43 82.36 133.84 83.03 C 129.21 81.38 124.35 79.92 120.23 77.19 Z" />
<path fill="#0d0d0d" opacity="1.00" d=" M 118.60 81.55 C 119.15 81.14 120.26 80.32 120.81 79.91 C 125.60 81.19 130.29 83.18 135.23 83.66 C 136.56 84.20 137.97 84.43 139.41 84.56 C 139.61 84.89 140.02 85.56 140.23 85.90 C 140.35 85.38 140.61 84.34 140.73 83.82 L 141.52 83.32 C 146.90 85.08 151.94 87.74 157.38 89.29 C 162.83 90.61 168.18 92.38 173.36 94.52 C 173.35 93.36 173.35 92.20 173.35 91.04 C 170.12 89.76 166.54 89.23 163.62 87.24 C 162.31 86.23 160.63 86.03 159.11 85.51 C 159.82 85.44 161.24 85.32 161.95 85.25 C 165.92 88.25 171.01 88.94 175.14 91.64 C 174.17 93.21 173.34 94.87 172.52 96.53 C 157.24 96.49 141.96 96.62 126.68 96.47 C 126.70 95.81 126.75 94.48 126.77 93.81 C 130.76 94.05 134.75 94.00 138.74 93.80 C 137.44 91.65 138.27 89.43 138.96 87.28 C 136.41 86.95 133.91 86.27 131.45 85.52 C 127.15 84.28 122.40 84.13 118.60 81.55 M 146.15 89.41 C 145.89 90.94 145.66 92.47 145.41 94.00 C 152.94 94.24 160.65 92.96 168.00 95.09 L 168.04 94.30 C 160.69 92.91 153.45 91.05 146.15 89.41 Z" />
<path fill="#fefffe" opacity="1.00" d=" M 193.11 86.01 C 194.80 84.23 196.51 82.45 198.37 80.84 C 198.46 83.99 198.37 87.15 198.35 90.30 C 197.29 90.42 196.24 90.53 195.18 90.65 C 195.13 89.97 195.04 88.62 194.99 87.95 C 194.52 87.46 193.58 86.49 193.11 86.01 Z" />
<path fill="#0d0d0d" opacity="1.00" d=" M 97.49 81.68 C 99.74 88.30 104.29 93.99 109.63 98.42 C 115.59 102.03 121.73 106.06 128.95 106.22 L 128.96 107.19 C 121.95 107.02 115.94 103.22 110.13 99.73 C 105.11 96.09 101.64 90.90 97.87 86.09 C 97.72 84.62 97.59 83.15 97.49 81.68 Z" />
<path fill="#0d0d0d" opacity="1.00" d=" M 136.20 82.21 L 136.77 81.74 L 137.56 82.25 L 137.46 83.22 L 136.57 83.55 C 136.48 83.21 136.29 82.55 136.20 82.21 Z" />
<path fill="#0d0d0d" opacity="1.00" d=" M 180.81 90.64 C 183.70 88.51 185.37 85.28 186.99 82.18 C 187.21 82.44 187.67 82.97 187.90 83.24 C 185.84 84.92 184.81 87.42 183.35 89.57 C 182.87 90.52 181.69 90.45 180.81 90.64 Z" />
<path fill="#0d0d0d" opacity="1.00" d=" M 84.14 82.79 C 85.72 83.80 87.30 84.91 88.27 86.57 C 90.04 89.41 92.75 91.46 94.77 94.11 C 97.61 97.68 100.97 101.09 105.29 102.83 C 108.33 104.07 111.23 105.63 114.21 107.01 C 116.53 108.22 119.21 107.63 121.70 107.59 C 121.73 107.88 121.80 108.45 121.83 108.74 C 118.99 108.65 115.94 109.06 113.36 107.58 C 110.14 105.90 106.84 104.42 103.50 103.02 C 97.54 99.96 94.60 93.42 89.17 89.77 C 87.76 87.25 86.05 84.94 84.14 82.79 Z" />
<path fill="#0d0d0d" opacity="1.00" d=" M 139.17 83.24 C 139.25 83.33 139.40 83.51 139.48 83.61 L 139.02 83.63 L 139.17 83.24 Z" />
<path fill="#0d0d0d" opacity="1.00" d=" M 219.24 89.19 C 221.44 88.57 223.75 88.67 226.01 88.89 C 229.90 90.41 234.23 88.92 238.25 90.00 C 231.92 91.42 225.54 89.76 219.24 89.19 Z" />
<path fill="#fefffe" opacity="1.00" d=" M 146.15 89.41 C 153.45 91.05 160.69 92.91 168.04 94.30 L 168.00 95.09 C 160.65 92.96 152.94 94.24 145.41 94.00 C 145.66 92.47 145.89 90.94 146.15 89.41 Z" />
<path fill="#0d0d0d" opacity="1.00" d=" M 179.17 97.05 C 179.35 95.48 179.53 93.91 179.85 92.36 C 180.10 93.68 180.30 95.01 180.46 96.35 C 181.73 97.33 183.05 98.25 184.30 99.27 C 182.47 98.84 180.78 97.99 179.17 97.05 Z" />
<path fill="#0d0d0d" opacity="1.00" d=" M 176.70 94.13 C 177.05 96.07 175.85 97.69 174.83 99.21 C 174.12 97.21 175.61 95.62 176.70 94.13 Z" />
<path fill="#0d0d0d" opacity="1.00" d=" M 151.32 99.82 C 154.68 98.33 158.57 99.01 162.12 99.39 C 159.49 100.32 156.69 99.72 153.98 100.01 C 147.98 101.52 141.73 100.56 135.62 100.97 L 135.50 100.04 C 140.77 100.03 146.05 100.03 151.32 99.82 Z" />
<path fill="#7f7f7f" opacity="1.00" d=" M 143.49 102.93 C 143.92 100.66 146.45 101.57 148.01 101.30 C 151.70 101.37 155.40 101.14 159.07 101.56 C 159.42 101.88 160.12 102.54 160.47 102.87 C 154.82 103.15 149.15 103.06 143.49 102.93 Z" />
<path fill="#0d0d0d" opacity="1.00" d=" M 130.49 107.41 C 131.17 106.56 133.66 106.49 133.52 107.93 C 132.84 108.81 130.33 108.85 130.49 107.41 Z" />
<path fill="#7f7f7f" opacity="1.00" d=" M 33.44 113.82 C 35.02 112.50 37.13 112.79 39.04 112.74 C 43.69 112.77 48.35 112.79 53.00 112.73 C 55.20 112.78 57.62 112.45 59.53 113.80 C 50.85 114.15 42.12 114.13 33.44 113.82 Z" />
<path fill="#0d0d0d" opacity="1.00" d=" M 78.99 115.00 C 81.02 116.91 82.70 119.14 84.53 121.24 C 86.30 123.41 88.95 124.49 91.17 126.10 C 88.51 126.08 86.28 124.52 84.61 122.58 C 82.60 120.16 80.31 117.90 78.99 115.00 Z" />
<path fill="#0d0d0d" opacity="1.00" d=" M 168.92 130.26 C 173.35 125.44 177.43 120.31 181.18 114.95 C 180.56 117.19 179.24 119.10 177.78 120.87 C 175.04 124.18 172.66 127.95 168.92 130.26 Z" />
<path fill="#0d0d0d" opacity="1.00" d=" M 87.80 120.14 C 90.18 121.18 92.50 122.40 94.46 124.12 C 91.86 123.65 88.87 122.87 87.80 120.14 Z" />
<path fill="#0d0d0d" opacity="1.00" d=" M 166.58 126.51 C 168.62 124.26 170.23 121.49 172.97 119.98 C 171.01 122.97 168.35 125.39 166.19 128.22 C 164.39 130.49 162.88 132.96 161.06 135.21 C 162.16 131.89 164.28 129.09 166.58 126.51 Z" />
<path fill="#0d0d0d" opacity="1.00" d=" M 177.00 125.14 C 178.58 123.39 180.25 121.73 181.97 120.12 C 181.43 121.49 181.07 122.97 180.18 124.18 C 179.14 124.56 178.08 124.88 177.00 125.14 Z" />
<path fill="#0d0d0d" opacity="1.00" d=" M 13.71 143.34 C 21.71 142.76 29.75 143.14 37.77 143.11 L 37.82 143.97 C 31.21 143.99 24.61 143.90 18.00 144.01 C 16.54 144.08 15.06 143.92 13.71 143.34 Z" />
<path fill="#0d0d0d" opacity="1.00" d=" M 220.00 153.03 C 226.09 153.14 232.19 152.92 238.28 152.99 C 235.60 153.79 232.77 153.68 230.01 153.69 C 223.00 153.64 216.00 153.68 208.99 153.62 C 204.92 153.49 201.10 155.43 197.01 155.15 C 192.94 154.83 188.65 155.85 184.74 154.40 C 190.96 153.70 197.32 155.00 203.46 153.55 C 208.91 152.52 214.49 153.21 220.00 153.03 Z" />
<path fill="#fefffe" opacity="1.00" d=" M 93.63 179.47 C 100.04 175.23 105.59 169.39 113.28 167.46 C 114.02 168.12 114.77 168.77 115.52 169.42 C 115.46 174.32 115.55 179.23 115.45 184.13 C 113.99 187.30 111.87 190.10 109.79 192.88 C 109.74 190.05 109.71 187.21 109.68 184.38 C 108.66 184.40 106.64 184.46 105.62 184.49 C 105.50 191.66 105.57 198.83 105.55 206.00 L 101.46 206.00 C 101.48 198.83 101.41 191.65 101.45 184.48 C 100.03 184.42 98.62 184.37 97.20 184.31 C 97.12 191.54 97.15 198.77 97.20 206.00 L 94.82 206.00 C 94.78 205.34 94.71 204.01 94.67 203.35 C 92.29 203.37 89.92 203.38 87.54 203.40 C 87.34 197.50 87.45 191.59 87.52 185.69 C 90.72 185.16 91.05 181.00 93.63 179.47 Z" />
<path fill="#fefffe" opacity="1.00" d=" M 118.35 169.38 C 122.59 174.07 127.66 178.21 130.15 184.21 C 127.84 184.32 125.52 184.40 123.21 184.45 C 123.12 191.63 123.13 198.82 123.13 206.00 L 121.21 206.00 C 119.56 202.30 117.52 198.76 116.24 194.91 C 116.56 193.23 117.07 191.60 117.56 189.98 C 118.25 188.13 119.01 186.32 119.81 184.52 C 119.39 184.49 118.54 184.41 118.12 184.38 C 118.16 179.38 117.96 174.37 118.35 169.38 Z" />
<path fill="#c03634" opacity="1.00" d=" M 31.40 184.38 C 35.78 184.42 40.16 184.44 44.55 184.44 C 44.57 185.04 44.63 186.23 44.66 186.83 C 41.63 187.08 38.59 187.22 35.56 187.31 C 35.56 189.09 35.56 190.87 35.55 192.65 C 37.92 192.85 40.29 193.08 42.66 193.32 C 42.63 193.88 42.56 194.98 42.52 195.53 C 40.21 195.59 37.89 195.64 35.57 195.68 C 35.57 198.23 35.58 200.77 35.58 203.32 C 38.41 203.36 41.26 203.23 44.07 203.66 C 44.30 204.25 44.77 205.42 45.00 206.00 L 31.51 206.00 C 31.17 198.80 31.45 191.59 31.40 184.38 Z" />
<path fill="#c03634" opacity="1.00" d=" M 97.20 184.31 C 98.62 184.37 100.03 184.42 101.45 184.48 C 101.41 191.65 101.48 198.83 101.46 206.00 L 97.20 206.00 C 97.15 198.77 97.12 191.54 97.20 184.31 Z" />
<path fill="#c03634" opacity="1.00" d=" M 115.45 184.13 C 116.12 184.19 117.45 184.31 118.12 184.38 C 118.54 184.41 119.39 184.49 119.81 184.52 C 119.01 186.32 118.25 188.13 117.56 189.98 C 117.15 190.51 116.33 191.57 115.91 192.10 C 116.01 193.03 116.11 193.97 116.24 194.91 C 117.52 198.76 119.56 202.30 121.21 206.00 L 116.67 206.00 C 115.35 203.89 114.26 201.65 113.12 199.44 C 113.00 199.10 112.77 198.41 112.66 198.07 C 112.50 197.59 112.20 196.62 112.05 196.14 C 111.33 197.17 110.53 198.16 109.95 199.29 C 109.48 201.48 109.74 203.77 109.69 206.00 L 105.55 206.00 C 105.57 198.83 105.50 191.66 105.62 184.49 C 106.64 184.46 108.66 184.40 109.68 184.38 C 109.71 187.21 109.74 190.05 109.79 192.88 C 111.87 190.10 113.99 187.30 115.45 184.13 Z" />
<path fill="#c03634" opacity="1.00" d=" M 123.21 184.45 C 125.52 184.40 127.84 184.32 130.15 184.21 C 131.11 184.19 132.08 184.19 133.04 184.22 C 133.79 184.30 135.29 184.44 136.04 184.52 C 135.79 185.52 135.54 186.51 135.28 187.51 C 134.42 187.45 132.70 187.33 131.84 187.27 C 130.23 187.25 128.63 187.33 127.02 187.42 C 127.21 189.22 127.37 191.02 127.54 192.83 C 130.04 192.82 132.55 192.81 135.05 192.77 C 135.42 193.53 135.76 194.31 136.07 195.11 C 133.17 195.42 130.26 195.60 127.34 195.69 C 127.34 198.24 127.34 200.80 127.36 203.36 C 130.31 203.39 133.27 203.44 136.23 203.53 C 136.24 204.14 136.25 205.38 136.26 206.00 L 123.13 206.00 C 123.13 198.82 123.12 191.63 123.21 184.45 Z" />
<path fill="#c03634" opacity="1.00" d=" M 152.00 184.31 C 153.51 184.34 155.03 184.37 156.54 184.40 C 158.61 191.53 160.52 198.73 162.06 206.00 L 157.65 206.00 C 157.33 204.04 156.90 202.11 156.50 200.17 C 154.76 200.14 153.02 200.12 151.28 200.10 C 150.81 202.07 150.36 204.04 149.83 206.00 L 145.70 206.00 C 147.43 198.67 149.55 191.43 152.00 184.31 M 152.19 197.40 C 153.30 197.37 154.41 197.35 155.52 197.33 C 154.94 194.97 154.43 192.60 154.04 190.20 C 153.21 192.54 152.53 194.93 152.19 197.40 Z" />
<path fill="#c03634" opacity="1.00" d=" M 171.37 184.41 C 173.02 184.40 174.68 184.40 176.34 184.39 C 178.25 188.90 180.32 193.34 182.35 197.79 C 182.22 193.32 182.29 188.86 182.35 184.39 C 183.51 184.38 184.67 184.36 185.84 184.35 C 185.90 191.57 185.93 198.78 185.82 206.00 L 181.81 206.00 C 179.38 201.90 178.78 196.62 174.96 193.46 C 174.68 197.64 174.75 201.82 174.77 206.00 L 171.30 206.00 C 171.31 198.80 171.25 191.60 171.37 184.41 Z" />
<path fill="#c03634" opacity="1.00" d=" M 190.32 184.38 C 191.73 184.39 193.15 184.40 194.57 184.42 C 194.60 191.61 194.63 198.81 194.58 206.00 L 190.25 206.00 C 190.30 198.79 190.23 191.58 190.32 184.38 Z" />
<path fill="#c03634" opacity="1.00" d=" M 199.31 184.29 C 200.89 184.38 202.46 184.47 204.04 184.57 C 205.89 189.04 208.13 193.34 210.22 197.70 C 210.06 193.26 210.12 188.82 210.17 184.38 C 211.37 184.39 212.56 184.40 213.76 184.41 C 213.77 191.60 213.79 198.80 213.71 206.00 L 209.15 206.00 C 207.12 200.97 205.04 195.96 202.68 191.08 C 202.52 196.05 202.51 201.03 202.53 206.00 L 198.61 206.00 C 198.52 198.76 198.49 191.50 199.31 184.29 Z" />
<path fill="#c03634" opacity="1.00" d=" M 219.83 184.32 C 221.25 184.35 222.68 184.38 224.10 184.42 C 224.31 190.00 224.63 195.62 224.13 201.20 C 224.01 203.21 222.78 204.84 221.21 206.00 L 216.16 206.00 L 213.89 205.04 C 215.61 204.01 217.51 203.38 219.43 202.85 C 219.98 196.68 219.52 190.49 219.83 184.32 Z" />
<path fill="#c03634" opacity="1.00" d=" M 232.17 184.34 C 233.79 184.40 235.42 184.47 237.04 184.54 C 238.77 191.72 240.68 198.87 242.63 206.00 L 237.67 206.00 C 237.50 204.07 237.23 202.15 236.95 200.24 C 235.12 200.20 233.29 200.17 231.46 200.15 C 231.03 202.10 230.60 204.06 230.12 206.00 L 225.91 206.00 C 227.80 198.73 229.86 191.49 232.17 184.34 M 234.02 190.22 C 233.54 192.62 232.92 194.99 232.31 197.37 C 233.46 197.36 234.60 197.36 235.75 197.36 C 235.44 194.92 234.82 192.54 234.02 190.22 Z" />
<path fill="#c03634" opacity="1.00" d=" M 16.57 184.43 C 21.13 184.38 25.69 184.34 30.24 184.64 C 29.92 185.17 29.26 186.23 28.94 186.76 C 26.24 187.36 23.44 187.22 20.70 187.37 C 20.72 189.43 20.73 191.50 20.73 193.57 C 22.95 193.69 25.18 193.75 27.40 194.03 C 27.45 194.62 27.56 195.78 27.62 196.36 C 25.44 196.52 23.26 196.50 21.08 196.52 C 20.77 199.67 20.70 202.83 20.68 206.00 L 16.58 206.00 C 16.52 198.81 16.56 191.62 16.57 184.43 Z" />
<path fill="#c03634" opacity="1.00" d=" M 47.16 206.00 C 47.09 198.78 47.13 191.57 47.20 184.35 C 51.88 184.95 57.41 182.98 61.35 186.25 C 58.11 187.01 54.77 187.02 51.46 186.99 C 51.40 188.85 51.35 190.71 51.29 192.57 C 53.82 192.80 56.34 193.14 58.84 193.60 C 58.51 194.08 57.87 195.04 57.55 195.52 C 55.49 195.56 53.44 195.60 51.39 195.64 C 51.37 198.21 51.37 200.79 51.38 203.36 C 54.16 203.37 56.94 203.38 59.72 203.38 C 59.74 204.03 59.79 205.34 59.81 206.00 L 47.16 206.00 Z" />
<path fill="#c03634" opacity="1.00" d=" M 62.40 184.40 C 63.45 184.41 65.55 184.42 66.60 184.43 C 66.63 190.74 66.55 197.06 66.65 203.37 C 68.90 203.37 71.14 203.37 73.39 203.37 C 73.72 204.03 74.39 205.34 74.72 206.00 L 62.38 206.00 C 62.37 198.80 62.39 191.60 62.40 184.40 Z" />
<path fill="#c03634" opacity="1.00" d=" M 83.52 184.40 C 84.23 184.41 85.64 184.43 86.35 184.44 L 87.03 184.49 L 87.52 185.69 C 87.45 191.59 87.34 197.50 87.54 203.40 C 89.92 203.38 92.29 203.37 94.67 203.35 C 94.71 204.01 94.78 205.34 94.82 206.00 L 83.48 206.00 C 83.10 200.45 83.11 194.87 83.50 189.33 C 83.52 188.81 83.56 187.78 83.58 187.27 C 83.56 186.55 83.54 185.12 83.52 184.40 Z" />
<path fill="#0d0d0d" opacity="1.00" d=" M 74.27 202.20 C 77.94 197.56 79.71 191.78 83.58 187.27 C 83.56 187.78 83.52 188.81 83.50 189.33 C 82.27 195.50 78.57 200.72 75.36 206.00 L 75.08 206.00 C 74.81 204.73 74.53 203.46 74.27 202.20 Z" />
<path fill="#fefffe" opacity="1.00" d=" M 127.02 187.42 C 128.63 187.33 130.23 187.25 131.84 187.27 C 132.94 189.08 134.03 190.90 135.05 192.77 C 132.55 192.81 130.04 192.82 127.54 192.83 C 127.37 191.02 127.21 189.22 127.02 187.42 Z" />
<path fill="#0d0d0d" opacity="1.00" d=" M 131.84 187.27 C 132.70 187.33 134.42 187.45 135.28 187.51 C 138.43 193.46 140.53 199.86 143.26 206.00 L 140.65 206.00 C 138.90 202.47 137.13 198.92 136.07 195.11 C 135.76 194.31 135.42 193.53 135.05 192.77 C 134.03 190.90 132.94 189.08 131.84 187.27 Z" />
<path fill="#fefffe" opacity="1.00" d=" M 75.36 206.00 C 78.57 200.72 82.27 195.50 83.50 189.33 C 83.11 194.87 83.10 200.45 83.48 206.00 L 75.36 206.00 Z" />
<path fill="#0d0d0d" opacity="1.00" d=" M 115.91 192.10 C 116.33 191.57 117.15 190.51 117.56 189.98 C 117.07 191.60 116.56 193.23 116.24 194.91 C 116.11 193.97 116.01 193.03 115.91 192.10 Z" />
<path fill="#fefffe" opacity="1.00" d=" M 152.19 197.40 C 152.53 194.93 153.21 192.54 154.04 190.20 C 154.43 192.60 154.94 194.97 155.52 197.33 C 154.41 197.35 153.30 197.37 152.19 197.40 Z" />
<path fill="#fefffe" opacity="1.00" d=" M 234.02 190.22 C 234.82 192.54 235.44 194.92 235.75 197.36 C 234.60 197.36 233.46 197.36 232.31 197.37 C 232.92 194.99 233.54 192.62 234.02 190.22 Z" />
<path fill="#fefffe" opacity="1.00" d=" M 202.68 191.08 C 205.04 195.96 207.12 200.97 209.15 206.00 L 202.53 206.00 C 202.51 201.03 202.52 196.05 202.68 191.08 Z" />
<path fill="#fefffe" opacity="1.00" d=" M 136.07 195.11 C 137.13 198.92 138.90 202.47 140.65 206.00 L 136.26 206.00 C 136.25 205.38 136.24 204.14 136.23 203.53 C 133.27 203.44 130.31 203.39 127.36 203.36 C 127.34 200.80 127.34 198.24 127.34 195.69 C 130.26 195.60 133.17 195.42 136.07 195.11 Z" />
<path fill="#fefffe" opacity="1.00" d=" M 174.96 193.46 C 178.78 196.62 179.38 201.90 181.81 206.00 L 174.77 206.00 C 174.75 201.82 174.68 197.64 174.96 193.46 Z" />
<path fill="#fefffe" opacity="1.00" d=" M 109.95 199.29 C 110.53 198.16 111.33 197.17 112.05 196.14 C 112.20 196.62 112.50 197.59 112.66 198.07 C 112.88 200.75 112.23 203.40 111.68 206.00 L 109.69 206.00 C 109.74 203.77 109.48 201.48 109.95 199.29 Z" />
<path fill="#0d0d0d" opacity="1.00" d=" M 112.66 198.07 C 112.77 198.41 113.00 199.10 113.12 199.44 C 113.86 201.57 114.77 203.69 114.74 206.00 L 111.68 206.00 C 112.23 203.40 112.88 200.75 112.66 198.07 Z" />
<path fill="#fefffe" opacity="1.00" d=" M 113.12 199.44 C 114.26 201.65 115.35 203.89 116.67 206.00 L 114.74 206.00 C 114.77 203.69 113.86 201.57 113.12 199.44 Z" />
<path fill="#fefffe" opacity="1.00" d=" M 151.28 200.10 C 153.02 200.12 154.76 200.14 156.50 200.17 C 156.90 202.11 157.33 204.04 157.65 206.00 L 149.83 206.00 C 150.36 204.04 150.81 202.07 151.28 200.10 Z" />
<path fill="#fefffe" opacity="1.00" d=" M 231.46 200.15 C 233.29 200.17 235.12 200.20 236.95 200.24 C 237.23 202.15 237.50 204.07 237.67 206.00 L 230.12 206.00 C 230.60 204.06 231.03 202.10 231.46 200.15 Z" />
</svg>
