<?xml version="1.0" encoding="utf-8"?>
<!-- Generator: Adobe Illustrator 15.0.2, SVG Export Plug-In . SVG Version: 6.00 Build 0)  -->
<!DOCTYPE svg PUBLIC "-//W3C//DTD SVG 1.1//EN" "http://www.w3.org/Graphics/SVG/1.1/DTD/svg11.dtd">
<svg version="1.1" id="Layer_1" xmlns="http://www.w3.org/2000/svg" xmlns:xlink="http://www.w3.org/1999/xlink" x="0px" y="0px"
	 width="111px" height="126px" viewBox="0 0 111 126" enable-background="new 0 0 111 126" xml:space="preserve">
<path fill="#FEFFFD" d="M0,0h111v47.31c-2.391-4.88-3.16-10.47-6.34-14.97c-1.891-2.84-2.811-6.21-4.85-8.94
	c-0.621-0.07-1.86-0.19-2.48-0.26c0.07-0.42,0.199-1.28,0.27-1.71c-6.39-1.05-7.83-9.03-13.629-11.23
	C73.4,4.99,61.68-1.99,49.5,1.58c5.55,1.04,11.721,0.03,16.76,2.98C52.91,6.57,39.23,2.69,25.94,5.84
	c-5.52,0.74-9.91,4.6-12.77,9.18c-3.55,5.5-9.65,9.81-10.41,16.72c-1.01,6.09-0.29,12.32-1.12,18.44c-1,7.94-0.05,15.97-1.02,23.9
	c2.46,6.71,8.18,11.47,12.11,17.279c4.2,5.69,7.23,12.791,13.8,16.211c7.95,4.119,17.13,4.43,25.66,6.649
	c-4.14,2.55-9.45,5.54-9.35,11.13c3.48-4.77,7.5-9.51,13.48-11.039c-2.32,3.729-5.91,6.629-7.35,10.879
	c4.44-2.319,6.46-7.18,9.719-10.729c2.261,0.03,4.511,0.03,6.771,0.021c1.21,3.59,0.78,7.75,3.011,10.959
	c1.079-3.76,0.049-7.609-1.74-10.959c6.43,0.479,12.89,0.209,19.279-0.641c-2.15-1.029-4.56-1.22-6.8-1.96
	c-10.89,1.17-21.97,1.09-32.78-0.72c-7.62-1.82-14.51-5.77-22.09-7.74C17.03,94.891,9.3,86.17,5.35,75.46
	C3.49,68.85,2,61.67,4.08,54.92c1.67-5.58,0.12-11.45,0.83-17.14c1.82-10.46,8.14-20.21,17.42-25.53c9.03-5.65,20.27-5.82,30.5-4.38
	c3.92,0.48,7.21,2.68,10.08,5.25c-0.77-3.82-3.99-6.02-7.53-7.01c8.149-0.58,16.511,0.5,23.8,4.39c4.971,2.86,10.2,5.85,13.53,10.67
	c-2.39,3.21-6.69,3.56-10.26,4.59c-3.56,1.09-7.521-0.05-10.88,1.76c-5.211,2.29-10.73,3.79-15.96,6.05
	c-4.39-3.2-10.07-1.72-15.1-2.47c0.55,0.46,1.65,1.38,2.19,1.84c-4.81-0.09-9.58-0.79-14.34-1.43c-3.96-0.3-8.44-0.56-11.77,2
	c3.41,0.45,6.85,0.64,10.29,0.88c-2.36,1.32-5.14,2.52-6.32,5.16c-1.86,3.3-0.42,8.13,3.19,9.57c4.34,1.84,9.14,1.88,13.76,2.38
	l0.05,0.82c-2.03,0.18-4.06,0.41-5.99,1.08c6.1,0.58,13.38-0.29,17.5-5.37c2.76-3.23,2.74-7.74,2.76-11.75
	c6.09-0.63,13.46,0.92,18.109-4.07c-0.399,2.19-1.129,4.51-0.25,6.68c2.44,2.74,6.44,2.8,9.67,4.06
	c-3.409-0.21-6.789-0.76-10.199-0.85c6.35,1.85,13.27,4.78,19.859,2.41c-3.789-0.39-7.649-0.27-11.379-1.17
	C82.37,42.75,88.17,44.71,92,41.01c4.061-4.82,2.83-11.6,2.15-17.33c7.02,4.67,8.539,13.45,10.24,21.06
	c3.68,9.66,2.5,20.229,0.949,30.199c-1.15,6.301-1.619,12.94-4.83,18.631c-3,5.39-7.31,9.899-11.55,14.33
	c-1.76,2.119-4.819,2.209-6.851,3.75c3.281,0.49,6.531-1.301,8.861-3.48c1.67-1.43,2.889-3.58,5.149-4.13
	c-2.33,4.03-6.32,7.3-10.97,8.14c0.76,0.391,1.529,0.771,2.289,1.16c3.69-1.49,7.951-3.14,9.701-7.02
	c5.379-11.891,9.85-24.271,12.049-37.16c0.531-3.15,0.931-6.32,1.811-9.39V126H0V0 M57.07,18.28c-4.37,0.4-9.811-2.49-13.24,1.54
	c4.29-0.95,8.66-1.56,13.07-1.23c2.75,0.28,5.39-0.53,7.93-1.47C62.66,14.41,59.68,17.94,57.07,18.28 M64.58,20.53
	c-3.26,0.88-5.95,3.79-9.56,3.2C50,23.84,44.18,21.56,39.68,24.6c5.78-0.51,11.56-0.02,17.349-0.13
	c3.111,0.021,6.121-1.16,8.57-3.03C65.74,20.62,65.4,20.32,64.58,20.53 M58.16,38.64c1.25,2.25,3.359,3.36,5.939,3.17
	c0.121-1.22,0.291-2.43,0.51-3.64C62.471,38.41,60.311,38.52,58.16,38.64 M64.21,44.98c-0.55,4.02,3.66,5.94,4.49,9.49
	c-1.82,0.65-5.32-0.439-5.729,2.18c2.729-0.11,5.409-0.62,8.01-1.44C69.971,51.13,67.21,47.8,64.21,44.98 M88.529,61.45
	c-1.799,2.239-1.479,5.35-0.09,7.71c0.201-2.26-0.379-4.811,1.041-6.78c2.17-3.1,5.92-4.82,7.569-8.32
	C93.9,56.1,90.83,58.45,88.529,61.45 M46.91,65.37c1.04,2.08,2.27,4.3,4.54,5.22c6.7,3.04,14.239,1.23,21.079-0.32
	c2.561-0.459,1.131-3.51,1.701-5.27c-2.19,0.561-3.44,2.67-5.51,3.439C61.76,70.91,53.86,68.13,48.51,63.4
	C47.98,64.061,47.44,64.71,46.91,65.37 M20.99,65.46c3.96,1.64,7.52,4.101,10.33,7.351c0.09,2.47-0.53,5.949,2.32,7.129
	c-0.62-2.789-0.73-5.699-1.39-8.449c-3.17-2.59-6.29-5.74-10.38-6.771C21.65,64.91,21.21,65.28,20.99,65.46 M56.029,79.66
	c2.471-0.99,5.311-2.311,7.701-0.35c0.66-0.261,1.35-0.451,1.979-0.771c-2.069-0.431-3.431-2.74-5.78-2.149
	C57.939,76.3,56.37,77.75,56.029,79.66z"/>
<path fill="#070A06" d="M49.5,1.58c12.18-3.57,23.9,3.41,34.471,8.62C89.77,12.4,91.21,20.38,97.6,21.43
	c-0.07,0.43-0.199,1.29-0.27,1.71c0.62,0.07,1.859,0.19,2.48,0.26c2.039,2.73,2.959,6.1,4.85,8.94c3.18,4.5,3.949,10.09,6.34,14.97
	v12.46c-0.88,3.07-1.279,6.24-1.811,9.39c-2.199,12.89-6.67,25.27-12.049,37.16c-1.75,3.88-6.011,5.529-9.701,7.02
	c-0.76-0.39-1.529-0.77-2.289-1.16c4.649-0.84,8.64-4.109,10.97-8.14c-2.261,0.55-3.479,2.7-5.149,4.13
	c-2.33,2.18-5.58,3.971-8.861,3.48c2.031-1.541,5.091-1.631,6.851-3.75c4.24-4.431,8.55-8.94,11.55-14.33
	c3.211-5.69,3.68-12.33,4.83-18.631c1.551-9.97,2.73-20.54-0.949-30.199c-1.701-7.61-3.221-16.39-10.24-21.06
	c0.68,5.73,1.91,12.51-2.15,17.33c-3.83,3.7-9.63,1.74-14.359,2.33c3.729,0.9,7.59,0.78,11.379,1.17
	c-6.59,2.37-13.51-0.56-19.859-2.41c3.41,0.09,6.79,0.64,10.199,0.85c-3.229-1.26-7.229-1.32-9.67-4.06
	c-0.879-2.17-0.149-4.49,0.25-6.68c-4.649,4.99-12.02,3.44-18.109,4.07c-0.02,4.01,0,8.52-2.76,11.75
	c-4.12,5.08-11.4,5.95-17.5,5.37c1.93-0.67,3.96-0.9,5.99-1.08l-0.05-0.82c-4.62-0.5-9.42-0.54-13.76-2.38
	c-3.61-1.44-5.05-6.27-3.19-9.57c1.18-2.64,3.96-3.84,6.32-5.16c-3.44-0.24-6.88-0.43-10.29-0.88c3.33-2.56,7.81-2.3,11.77-2
	c4.76,0.64,9.53,1.34,14.34,1.43c-0.54-0.46-1.64-1.38-2.19-1.84c5.03,0.75,10.71-0.73,15.1,2.47c5.23-2.26,10.75-3.76,15.96-6.05
	c3.359-1.81,7.32-0.67,10.88-1.76c3.569-1.03,7.87-1.38,10.26-4.59c-3.33-4.82-8.56-7.81-13.53-10.67
	c-7.289-3.89-15.65-4.97-23.8-4.39c3.54,0.99,6.761,3.19,7.53,7.01c-2.87-2.57-6.16-4.77-10.08-5.25
	C42.6,6.43,31.36,6.6,22.33,12.25c-9.28,5.32-15.6,15.07-17.42,25.53C4.2,43.47,5.75,49.34,4.08,54.92
	C2,61.67,3.49,68.85,5.35,75.46c3.95,10.71,11.68,19.431,18.99,27.96c7.58,1.971,14.47,5.92,22.09,7.74
	c10.81,1.81,21.89,1.89,32.78,0.72c2.24,0.74,4.649,0.931,6.8,1.96c-6.39,0.85-12.85,1.12-19.279,0.641
	c1.789,3.35,2.819,7.199,1.74,10.959c-2.23-3.209-1.801-7.369-3.011-10.959c-2.26,0.01-4.51,0.01-6.771-0.021
	c-3.259,3.55-5.279,8.41-9.719,10.729c1.44-4.25,5.03-7.149,7.35-10.879c-5.98,1.529-10,6.27-13.48,11.039
	c-0.1-5.59,5.21-8.58,9.35-11.13c-8.53-2.22-17.71-2.53-25.66-6.649c-6.57-3.42-9.6-10.521-13.8-16.211
	C8.8,85.55,3.08,80.79,0.62,74.08c0.97-7.93,0.02-15.96,1.02-23.9c0.83-6.12,0.11-12.35,1.12-18.44
	c0.76-6.91,6.86-11.22,10.41-16.72c2.86-4.58,7.25-8.44,12.77-9.18c13.29-3.15,26.97,0.73,40.32-1.28
	C61.221,1.61,55.05,2.62,49.5,1.58 M16.35,14.22c4.14-2.68,8.95-4.22,12.93-7.1C24.31,7.62,18.54,9.2,16.35,14.22 M89.24,28.9
	c2.21,5.72-10.59,8.08-9,1.46c-2.91-0.01-5.74,0.7-8.561,1.34c-0.22,2.53-0.449,5.11,0.131,7.61c3.649,1.11,7.369,2.23,11.239,2.04
	c4.229,0.09,8.671-2.14,10.171-6.28c0.789-2.99,1.149-6.6-1.031-9.1C91.21,26.95,90.221,27.93,89.24,28.9 M4.86,30.14
	c0.7,2.19,3.39-2.42,1.44-2.51C5.94,28.26,5.22,29.52,4.86,30.14 M21.36,42.1c-0.64,3.35,3.02,5.13,5.57,6.19
	c5.87,2.05,12.83,3.33,18.63,0.43c3.94-2.38,4.32-7.38,5.01-11.46c-2.56-1.33-5.46-0.65-8.22-0.68c0.04,2.14-0.5,4.21-1.84,5.9
	c-2.97,0.41-5.97,0.41-8.91-0.19c-0.89-2.42,0.37-4.42,2.3-5.8C29.36,35.46,22.44,36.7,21.36,42.1 M104.21,35.91
	c2.87,8.87,4,18.17,4.38,27.46c1.131-1.92,0.96-4.23,1.1-6.36C109.85,49.69,108.359,42.04,104.21,35.91 M2.48,68.27
	c-0.53,1.521-0.99,4.24,0.31,5.33C3.56,72.26,4.05,68.859,2.48,68.27z"/>
<path fill="#FEFFFD" d="M16.35,14.22c2.19-5.02,7.96-6.6,12.93-7.1C25.3,10,20.49,11.54,16.35,14.22z"/>
<path fill="#070A06" d="M57.07,18.28c2.609-0.34,5.59-3.87,7.76-1.16c-2.54,0.94-5.18,1.75-7.93,1.47
	c-4.41-0.33-8.78,0.28-13.07,1.23C47.26,15.79,52.7,18.68,57.07,18.28z"/>
<path fill="#070A06" d="M64.58,20.53c0.82-0.21,1.16,0.09,1.02,0.91c-2.449,1.87-5.459,3.05-8.57,3.03
	C51.24,24.58,45.46,24.09,39.68,24.6c4.5-3.04,10.32-0.76,15.34-0.87C58.63,24.32,61.32,21.41,64.58,20.53z"/>
<path fill="#FEFFFD" d="M89.24,28.9c0.98-0.97,1.97-1.95,2.949-2.93c2.181,2.5,1.82,6.11,1.031,9.1
	c-1.5,4.14-5.941,6.37-10.171,6.28c-3.87,0.19-7.59-0.93-11.239-2.04c-0.58-2.5-0.351-5.08-0.131-7.61
	c2.82-0.64,5.65-1.35,8.561-1.34C78.65,36.98,91.45,34.62,89.24,28.9z"/>
<path fill="#FEFFFD" d="M4.86,30.14c0.36-0.62,1.08-1.88,1.44-2.51C8.25,27.72,5.56,32.33,4.86,30.14z"/>
<path fill="#FEFFFD" d="M21.36,42.1c1.08-5.4,8-6.64,12.54-5.61c-1.93,1.38-3.19,3.38-2.3,5.8c2.94,0.6,5.94,0.6,8.91,0.19
	c1.34-1.69,1.88-3.76,1.84-5.9c2.76,0.03,5.66-0.65,8.22,0.68c-0.69,4.08-1.07,9.08-5.01,11.46c-5.8,2.9-12.76,1.62-18.63-0.43
	C24.38,47.23,20.72,45.45,21.36,42.1z"/>
<path fill="#FEFFFD" d="M104.21,35.91c4.149,6.13,5.64,13.78,5.479,21.1c-0.14,2.13,0.031,4.44-1.1,6.36
	C108.21,54.08,107.08,44.78,104.21,35.91z"/>
<path fill="#070A06" d="M58.16,38.64c2.15-0.12,4.311-0.23,6.449-0.47c-0.219,1.21-0.389,2.42-0.51,3.64
	C61.52,42,59.41,40.89,58.16,38.64z"/>
<path fill="#070A06" d="M64.21,44.98c3,2.82,5.761,6.15,6.771,10.23c-2.601,0.82-5.28,1.33-8.01,1.44
	c0.409-2.62,3.909-1.53,5.729-2.18C67.87,50.92,63.66,49,64.21,44.98z"/>
<path fill="#070A06" d="M88.529,61.45c2.301-3,5.371-5.35,8.521-7.39c-1.649,3.5-5.399,5.22-7.569,8.32
	c-1.42,1.97-0.84,4.521-1.041,6.78C87.05,66.8,86.73,63.689,88.529,61.45z"/>
<path fill="#070A06" d="M46.91,65.37c0.53-0.66,1.07-1.31,1.6-1.97c5.35,4.73,13.25,7.51,20.211,5.04
	c2.069-0.77,3.319-2.879,5.51-3.439c-0.57,1.76,0.859,4.811-1.701,5.27c-6.84,1.551-14.379,3.36-21.079,0.32
	C49.18,69.67,47.95,67.45,46.91,65.37z"/>
<path fill="#070A06" d="M20.99,65.46c0.22-0.18,0.66-0.55,0.88-0.74c4.09,1.03,7.21,4.181,10.38,6.771
	c0.66,2.75,0.77,5.66,1.39,8.449c-2.85-1.18-2.23-4.659-2.32-7.129C28.51,69.561,24.95,67.1,20.99,65.46z"/>
<path fill="#FEFFFD" d="M2.48,68.27c1.57,0.59,1.08,3.99,0.31,5.33C1.49,72.51,1.95,69.79,2.48,68.27z"/>
<path fill="#070A06" d="M56.029,79.66c0.341-1.91,1.91-3.36,3.9-3.27c2.35-0.591,3.711,1.719,5.78,2.149
	c-0.63,0.319-1.319,0.51-1.979,0.771C61.34,77.35,58.5,78.67,56.029,79.66z"/>
</svg>
