<?xml version="1.0" encoding="utf-8"?>
<!-- Generator: Adobe Illustrator 15.0.2, SVG Export Plug-In . SVG Version: 6.00 Build 0)  -->
<!DOCTYPE svg PUBLIC "-//W3C//DTD SVG 1.1//EN" "http://www.w3.org/Graphics/SVG/1.1/DTD/svg11.dtd">
<svg version="1.1" id="Layer_1" xmlns="http://www.w3.org/2000/svg" xmlns:xlink="http://www.w3.org/1999/xlink" x="0px" y="0px"
	 width="265px" height="212px" viewBox="0 0 265 212" enable-background="new 0 0 265 212" xml:space="preserve">
<path fill="#FFFFFF" d="M0,0h265v6.26c-0.25-1.78-0.8-3.91-2.75-4.51C258.641,0.56,254.74,1.13,251,1c0,7.99,0,15.99,0,23.99
	c3.66-0.06,7.35,0.28,10.98-0.28c1.51-0.27,2.25-1.75,3.02-2.9V212H148.63c0.28-14.65-3.59-28.97-9.18-42.391
	c2.14,0.311,4.12-0.27,5.819-1.579c-0.91-0.22-2.75-0.681-3.67-0.91c7.25-0.71,13.711-4.36,20.291-7.2
	c4.93-1.99,8.639-5.91,12.779-9.1c-0.09,5.38,0.311,10.789-0.46,16.13c-0.45,1.069-0.88,2.159-1.28,3.25
	c-4.779,1.8-10.15,2.12-15.039,0.59c-3.83-1.11-7.711-2.03-11.65-2.601c-0.74,0.601-1.471,1.19-2.211,1.78
	c4.75,0.5,9.261,2.061,13.861,3.21c4.639,0.5,9.359,0.19,13.959-0.52c2.041-1.48,4.041-3.12,4.57-5.73
	c-0.35-5.6,0.27-11.24-0.4-16.82c5.19-5.619,10.28-11.489,13.41-18.549C201.6,109.71,198.45,81.2,183.48,61.5
	c-6.121-6.9-12.931-13.29-21.01-17.85c-12.721-6.35-27.101-10.28-41.401-8.54c-7.93,0.57-15.55,3.11-22.86,6.14
	c-3.98,1.31-7.35,3.86-10.77,6.21C84.21,49.88,80.71,52,77.95,55c-7.37,8.1-13.68,17.43-16.79,28.03
	c-0.73,2.59-1.45,5.189-2.25,7.77c-2.87,12.07-0.03,24.591,4.65,35.81c3.02,7.381,7.81,13.82,12.87,19.9
	c10.76,11.131,25.18,18.51,40.41,21.09c5.32,0.87,10.72,0.65,16.08,0.931c-4.3,3.1-8.2,6.7-12.37,9.97
	c-5.03,4.47-8.51,10.3-12.39,15.73c1.07,4.76,3.91,9.3,8.81,10.76c1.48,1.39,3.1,4.32,5.42,2.5c0.16,0.5,0.48,1.5,0.64,2
	c1.73,0.55,3.44,1.14,5.16,1.74l-1.15,0.77H0V18.57c0.29,2.06,0.58,4.56,2.49,5.77c3.09,1.63,7.35,1.66,9.88-1.01
	c1.88-2.12,1.34-5.17,1.67-7.76c-1.99-0.02-3.98-0.03-5.98-0.03c-0.45,2.29,1.11,6.03-1.97,6.87C5.83,16.17,5.83,9.91,6.1,3.66
	c3.4,0.77,1.37,5.21,1.97,7.73c1.94,0,3.88,0.01,5.82,0.03c-0.11-2.91,0.48-6.24-1.41-8.73C8.77-1.24,0.72,0.31,0,6.11V0 M16,0.96
	c0,8.02,0,16.03,0,24.04c1.98,0,3.95,0,5.93-0.01c-0.01-3.33-0.01-6.66,0-9.99c0.53,0,1.61,0,2.14,0c0.01,3.33,0.01,6.66,0,9.99
	C28.1,25,32.13,25,36.17,25c0.12-1.29,0.23-2.57,0.34-3.86c0.62-0.05,1.86-0.15,2.48-0.2c0.01,1.34,0.03,2.69,0.04,4.04
	c2.07,0.01,4.14,0.02,6.21,0.03C44.36,16.97,42.95,9,41.84,0.99C38.92,0.93,36,0.92,33.08,0.97c-1.13,7.021-1.99,14.08-2.56,21.17
	C29.54,15.12,30.18,8.02,30,0.97c-1.98,0-3.95,0-5.93,0c0,3.01,0,6.021,0,9.03c-0.53,0-1.61,0-2.14,0c-0.01-3-0.01-6.01,0-9.01
	C19.95,0.98,17.98,0.97,16,0.96 M46,0.95C45.94,8.97,46.13,16.99,45.9,25c3.36,0,6.73,0,10.1,0c0-1.67,0-3.33,0-5
	c-1.36,0-2.72,0-4.07,0c-0.01-6.34,0-12.68,0-19.03C49.95,0.96,47.98,0.96,46,0.95 M57,0.95c0,8.02,0,16.03,0,24.05
	c3.33,0,6.67,0,10,0c0-1.67,0-3.33,0-5c-1.36,0-2.72,0-4.07,0c0-6.34-0.01-12.68,0-19.02C60.95,0.97,58.98,0.96,57,0.95 M69,0.99
	c0,8,0,16.01,0,24.01c3.4,0,6.8,0,10.2,0c0.07-1.67,0.14-3.33,0.21-5c-1.49,0-2.99,0-4.48,0c-0.01-1.67-0.01-3.33,0-5
	c1.35,0,2.71,0,4.07,0c0-1.67,0-3.33,0-5c-1.36,0-2.72,0-4.07,0c0-1.33,0-2.67,0-4c1.48,0,2.97,0,4.46,0
	c-0.06-1.67-0.12-3.34-0.19-5.01C75.8,0.96,72.4,0.95,69,0.99 M79.69,0.97c0.43,8,0.46,16.03,0,24.03c1.77,0,3.54,0,5.32,0
	c0.03-3.41-0.2-6.85,0.24-10.25c1.41,3.33,2.04,6.97,3.66,10.2c1.69,0.1,3.39,0.06,5.09,0.07C94,17,94,8.99,94,0.97
	c-1.67,0-3.34,0-5.01,0c-0.03,3.42,0.21,6.86-0.24,10.26c-1.34-3.41-2.41-6.93-3.91-10.29C83.12,0.96,81.41,0.96,79.69,0.97
	 M97.58,2.57c-2.08,2.31-1.43,5.64-1.59,8.47c0.13,3.48-0.35,7.05,0.46,10.47c1.1,3.92,6.42,5.26,9.26,2.34
	c0.59,1.92,2.87,0.86,4.29,1.21c0-4.35,0-8.71,0-13.06c-2.38,0-4.77,0-7.15,0.01c0.01,3.19,3.54,8.86-0.79,10.23
	c-0.22-6.14-0.2-12.28-0.01-18.42c3.24-0.23,1.6,3.79,2.13,5.8c1.94-0.02,3.88-0.03,5.83-0.02c-0.09-2.56,0.18-5.67-2.1-7.43
	C105.03-0.07,100.21-0.09,97.58,2.57 M111,0.97c0,8.01,0,16.021,0,24.03c3.5,0,7,0,10.5,0c0-1.67,0-3.33,0-5c-1.53,0-3.05,0-4.57,0
	c-0.01-1.67-0.01-3.33,0-5c1.35,0,2.71,0,4.07,0c0-1.67,0-3.33,0-5c-1.36,0-2.72,0-4.07,0c-0.01-1.33-0.01-2.67,0-4
	c1.52,0,3.04,0,4.57,0c0-1.68,0-3.36,0-5.04C118,0.96,114.5,0.96,111,0.97 M127.15,5.9c-0.2,5.02-0.42,10.1,0.21,15.09
	c0.98,5.01,8.1,5.7,11.5,2.81c2.471-1.98,1.871-5.46,2.141-8.24c-2-0.01-3.99-0.02-5.98-0.02c-0.47,2.19,1.33,6.29-1.959,6.72
	c-0.21-6.15-0.241-12.31,0.029-18.46c0.45,0.13,1.34,0.4,1.79,0.53c0.2,2.36,0.11,4.72,0.21,7.08c1.92-0.03,3.85-0.03,5.78-0.01
	c0.31-3.9,0.26-8.64-3.81-10.61c-2.041,0-4.07-0.01-6.101-0.02C129.27,2.08,127.2,3.52,127.15,5.9 M146.26,1.35
	c-3.199,1.65-3.41,5.49-3.27,8.65c0.13,3.84-0.381,7.77,0.52,11.54c2.15,5.85,12.73,5.04,13.301-1.45
	c0.26-4.99,0.43-10.05-0.15-15.03C155.5,0.65,149.939-0.26,146.26,1.35 M158,0.98c0,8.01,0,16.01,0,24.02c1.67,0,3.34,0,5.01,0
	c0.07-3.43-0.34-6.91,0.391-10.29c1.02,3.47,2.17,6.9,3.359,10.32c1.74-0.021,3.49-0.03,5.24-0.04c0-8.01,0-16.021,0-24.03
	c-1.67,0.01-3.34,0.01-5.01,0.02c-0.09,3.4,0.369,6.87-0.42,10.23c-1.08-3.48-2.25-6.93-3.73-10.26
	C161.23,0.96,159.609,0.97,158,0.98 M176.529,1.53c-2.989,1.63-2.76,5.62-2.229,8.49c1.13,3.8,5.431,5.01,7.82,7.87
	c-0.19,1.71,0.351,4.23-2.091,4.4c-0.069-1.88-0.109-3.77-0.129-5.65c-2,0-3.99,0-5.98,0c0.25,2.5-0.29,5.73,2.08,7.41
	c3.3,2.02,8.45,2.07,11.08-1.07c1.29-2.61,0.99-5.81,0.26-8.55c-1.57-3.04-4.859-4.61-7.46-6.64c0.2-1.65-0.409-4.09,2.04-3.99
	c0.04,1.39,0.08,2.78,0.109,4.17c2-0.01,4-0.02,6-0.04c-0.299-2.09,0.171-4.85-1.969-6.12C183.21,0.22,179.48,0.19,176.529,1.53
	 M189,0.97c0,8.01,0,16.021,0,24.03c1.971,0,3.95,0,5.93,0c-0.01-8.01,0-16.01,0-24.02C192.95,0.98,190.971,0.97,189,0.97 M197,0.97
	c0,8.01,0,16.021,0,24.03c3.85-0.17,7.82,0.46,11.59-0.48c3.26-1.51,2.2-5.66,2.42-8.53c-0.359-4.25,0.83-8.87-0.939-12.85
	C206.68-0.2,201.29,1.34,197,0.97 M212,1c0,8,0,16,0,24c3.52,0,7.04,0.05,10.55-0.09c-0.021-1.61-0.021-3.22-0.01-4.83
	c-1.54-0.05-3.08-0.08-4.61-0.11c-0.01-1.66-0.01-3.31,0-4.97c1.35,0,2.711,0,4.07,0c0-1.67,0-3.33,0-5c-1.359,0-2.721,0-4.07,0
	c-0.01-1.32-0.01-2.64-0.01-3.97c1.54-0.03,3.08-0.07,4.62-0.11c-0.011-1.61-0.011-3.22,0.021-4.83C219.04,0.88,215.52,0.93,212,1
	 M224,0.98c0,8.01,0,16.01,0,24.02c1.971,0,3.95,0,5.93,0c0-3.78-0.039-7.56,0.041-11.34c0.489,0.32,1.469,0.96,1.959,1.28
	c0.2,3.35,0.021,6.71,0.07,10.06c1.971,0,3.95,0,5.92,0c-0.05-3.35,0.2-6.72-0.21-10.05c-0.351-1.27-1.64-1.8-2.601-2.53
	c4.24-1.38,3.021-7,1.48-10.07C232.721,0.3,228.2,1.17,224,0.98 M239,1c0,8,0,16,0,23.99c3.52,0.01,7.05,0.08,10.57-0.11
	c-0.03-1.59-0.03-3.18-0.021-4.78c-1.54-0.06-3.09-0.1-4.63-0.14c0-1.65,0-3.31,0.01-4.96c1.35,0,2.711,0,4.07,0c0-1.67,0-3.33,0-5
	c-1.359,0-2.721,0-4.07,0c-0.01-1.32-0.01-2.64-0.01-3.97C246.46,6,248,5.97,249.54,5.92c-0.011-1.61-0.011-3.22,0.021-4.82
	C246.04,0.9,242.52,0.93,239,1z"/>
<path d="M0,6.11c0.72-5.8,8.77-7.35,12.48-3.42c1.89,2.49,1.3,5.82,1.41,8.73c-1.94-0.02-3.88-0.03-5.82-0.03
	C7.47,8.87,9.5,4.43,6.1,3.66C5.83,9.91,5.83,16.17,6.09,22.41c3.08-0.84,1.52-4.58,1.97-6.87c2,0,3.99,0.01,5.98,0.03
	c-0.33,2.59,0.21,5.64-1.67,7.76C9.84,26,5.58,25.97,2.49,24.34c-1.91-1.21-2.2-3.71-2.49-5.77V6.11z"/>
<path d="M16,0.96c1.98,0.01,3.95,0.02,5.93,0.03c-0.01,3-0.01,6.01,0,9.01c0.53,0,1.61,0,2.14,0c0-3.01,0-6.02,0-9.03
	c1.98,0,3.95,0,5.93,0c0.18,7.05-0.46,14.15,0.52,21.17c0.57-7.09,1.43-14.15,2.56-21.17C36,0.92,38.92,0.93,41.84,0.99
	c1.11,8.01,2.52,15.979,3.4,24.02c-2.07-0.01-4.14-0.02-6.21-0.03c-0.01-1.35-0.03-2.7-0.04-4.04c-0.62,0.05-1.86,0.15-2.48,0.2
	c-0.11,1.29-0.22,2.57-0.34,3.86c-4.04,0-8.07,0-12.1-0.01c0.01-3.33,0.01-6.66,0-9.99c-0.53,0-1.61,0-2.14,0
	c-0.01,3.33-0.01,6.66,0,9.99C19.95,25,17.98,25,16,25C16,16.99,16,8.98,16,0.96 M37.48,6.97c-0.43,3.3-0.62,6.62-1.04,9.92
	c0.55,0.02,1.64,0.06,2.19,0.09C38.27,13.64,38,10.29,37.48,6.97z"/>
<path d="M46,0.95c1.98,0.01,3.95,0.01,5.93,0.02c0,6.35-0.01,12.69,0,19.03c1.35,0,2.71,0,4.07,0c0,1.67,0,3.33,0,5
	c-3.37,0-6.74,0-10.1,0C46.13,16.99,45.94,8.97,46,0.95z"/>
<path d="M57,0.95c1.98,0.01,3.95,0.02,5.93,0.03c-0.01,6.34,0,12.68,0,19.02c1.35,0,2.71,0,4.07,0c0,1.67,0,3.33,0,5
	c-3.33,0-6.67,0-10,0C57,16.98,57,8.97,57,0.95z"/>
<path d="M69,0.99c3.4-0.04,6.8-0.03,10.2,0c0.07,1.67,0.13,3.34,0.19,5.01c-1.49,0-2.98,0-4.46,0c0,1.33,0,2.67,0,4
	c1.35,0,2.71,0,4.07,0c0,1.67,0,3.33,0,5c-1.36,0-2.72,0-4.07,0c-0.01,1.67-0.01,3.33,0,5c1.49,0,2.99,0,4.48,0
	c-0.07,1.67-0.14,3.33-0.21,5c-3.4,0-6.8,0-10.2,0C69,17,69,8.99,69,0.99z"/>
<path d="M79.69,0.97c1.72-0.01,3.43-0.01,5.15-0.03c1.5,3.36,2.57,6.88,3.91,10.29c0.45-3.4,0.21-6.84,0.24-10.26
	c1.67,0,3.34,0,5.01,0C94,8.99,94,17,94,25.02c-1.7-0.01-3.4,0.03-5.09-0.07c-1.62-3.23-2.25-6.87-3.66-10.2
	c-0.44,3.4-0.21,6.84-0.24,10.25c-1.78,0-3.55,0-5.32,0C80.15,17,80.12,8.97,79.69,0.97z"/>
<path d="M97.58,2.57c2.63-2.66,7.45-2.64,10.33-0.4c2.28,1.76,2.01,4.87,2.1,7.43c-1.95-0.01-3.89,0-5.83,0.02
	c-0.53-2.01,1.11-6.03-2.13-5.8c-0.19,6.14-0.21,12.28,0.01,18.42c4.33-1.37,0.8-7.04,0.79-10.23C105.23,12,107.62,12,110,12
	c0,4.35,0,8.71,0,13.06c-1.42-0.35-3.7,0.71-4.29-1.21c-2.84,2.92-8.16,1.58-9.26-2.34c-0.81-3.42-0.33-6.99-0.46-10.47
	C96.15,8.21,95.5,4.88,97.58,2.57z"/>
<path d="M111,0.97c3.5-0.01,7-0.01,10.5-0.01c0,1.68,0,3.36,0,5.04c-1.53,0-3.05,0-4.57,0c-0.01,1.33-0.01,2.67,0,4
	c1.35,0,2.71,0,4.07,0c0,1.67,0,3.33,0,5c-1.36,0-2.72,0-4.07,0c-0.01,1.67-0.01,3.33,0,5c1.52,0,3.04,0,4.57,0c0,1.67,0,3.33,0,5
	c-3.5,0-7,0-10.5,0C111,16.99,111,8.98,111,0.97z"/>
<path d="M127.15,5.9c0.05-2.38,2.12-3.82,3.81-5.13c2.03,0.01,4.06,0.02,6.101,0.02c4.069,1.97,4.119,6.71,3.81,10.61
	c-1.931-0.02-3.86-0.02-5.78,0.01c-0.1-2.36-0.01-4.72-0.21-7.08c-0.45-0.13-1.34-0.4-1.79-0.53c-0.27,6.15-0.24,12.31-0.029,18.46
	c3.289-0.43,1.489-4.53,1.959-6.72c1.99,0,3.98,0.01,5.98,0.02c-0.27,2.78,0.33,6.26-2.141,8.24c-3.399,2.89-10.52,2.2-11.5-2.81
	C126.73,16,126.95,10.92,127.15,5.9z"/>
<path d="M146.26,1.35c3.68-1.61,9.24-0.7,10.4,3.71c0.58,4.98,0.41,10.04,0.15,15.03c-0.57,6.49-11.15,7.3-13.301,1.45
	c-0.9-3.77-0.39-7.7-0.52-11.54C142.85,6.84,143.061,3,146.26,1.35 M149.09,4.24c-0.34,5.97-0.16,11.979-0.061,17.96
	c0.461-0.12,1.391-0.37,1.861-0.49c0.379-5.95,0.17-11.92,0.09-17.87C150.5,3.94,149.561,4.14,149.09,4.24z"/>
<path d="M158,0.98c1.609-0.01,3.23-0.02,4.84-0.03c1.48,3.33,2.65,6.78,3.73,10.26c0.789-3.36,0.33-6.83,0.42-10.23
	c1.67-0.01,3.34-0.01,5.01-0.02c0,8.01,0,16.02,0,24.03c-1.75,0.01-3.5,0.02-5.24,0.04c-1.189-3.42-2.34-6.85-3.359-10.32
	c-0.73,3.38-0.32,6.86-0.391,10.29c-1.67,0-3.34,0-5.01,0C158,16.99,158,8.99,158,0.98z"/>
<path d="M176.529,1.53c2.951-1.34,6.681-1.311,9.531,0.28c2.14,1.27,1.67,4.03,1.969,6.12c-2,0.02-4,0.03-6,0.04
	C182,6.58,181.96,5.19,181.92,3.8c-2.449-0.1-1.84,2.34-2.04,3.99c2.601,2.03,5.89,3.6,7.46,6.64c0.73,2.74,1.03,5.94-0.26,8.55
	c-2.63,3.14-7.78,3.09-11.08,1.07c-2.37-1.68-1.83-4.91-2.08-7.41c1.99,0,3.98,0,5.98,0c0.02,1.88,0.06,3.77,0.129,5.65
	c2.441-0.17,1.9-2.69,2.091-4.4c-2.39-2.86-6.69-4.07-7.82-7.87C173.77,7.15,173.54,3.16,176.529,1.53z"/>
<path d="M189,0.97c1.971,0,3.95,0.01,5.93,0.01c0,8.01-0.01,16.01,0,24.02c-1.979,0-3.959,0-5.93,0C189,16.99,189,8.98,189,0.97z"/>
<path d="M197,0.97c4.29,0.37,9.68-1.17,13.07,2.17c1.77,3.98,0.58,8.6,0.939,12.85c-0.22,2.87,0.84,7.02-2.42,8.53
	c-3.77,0.94-7.74,0.31-11.59,0.48C197,16.99,197,8.98,197,0.97 M202.939,4.3c-0.029,5.8-0.02,11.6,0,17.4
	c0.49-0.21,1.48-0.61,1.98-0.81c0.26-5.26,0.26-10.56,0.01-15.82C204.43,4.88,203.439,4.49,202.939,4.3z"/>
<path d="M212,1c3.52-0.07,7.04-0.12,10.561,0.09c-0.031,1.61-0.031,3.22-0.021,4.83C221,5.96,219.46,6,217.92,6.03
	c0,1.33,0,2.65,0.01,3.97c1.35,0,2.711,0,4.07,0c0,1.67,0,3.33,0,5c-1.359,0-2.721,0-4.07,0c-0.01,1.66-0.01,3.31,0,4.97
	c1.53,0.03,3.07,0.061,4.61,0.11c-0.011,1.61-0.011,3.22,0.01,4.83C219.04,25.05,215.52,25,212,25C212,17,212,9,212,1z"/>
<path d="M224,0.98c4.2,0.19,8.721-0.68,12.59,1.37c1.54,3.07,2.76,8.69-1.48,10.07c0.961,0.73,2.25,1.26,2.601,2.53
	c0.41,3.33,0.16,6.7,0.21,10.05c-1.97,0-3.949,0-5.92,0c-0.05-3.35,0.13-6.71-0.07-10.06c-0.49-0.32-1.47-0.96-1.959-1.28
	c-0.08,3.78-0.041,7.56-0.041,11.34c-1.979,0-3.959,0-5.93,0C224,16.99,224,8.99,224,0.98 M230.109,4.25
	c-0.199,2.15-0.209,4.32-0.02,6.48c0.48-0.19,1.43-0.56,1.91-0.75c0-1.63,0-3.26,0-4.89C231.529,4.88,230.59,4.46,230.109,4.25z"/>
<path d="M239,1c3.52-0.07,7.04-0.1,10.561,0.1c-0.031,1.6-0.031,3.21-0.021,4.82C248,5.97,246.46,6,244.92,6.03
	c0,1.33,0,2.65,0.01,3.97c1.35,0,2.711,0,4.07,0c0,1.67,0,3.33,0,5c-1.359,0-2.721,0-4.07,0c-0.01,1.65-0.01,3.31-0.01,4.96
	c1.54,0.04,3.09,0.08,4.63,0.14c-0.01,1.6-0.01,3.19,0.021,4.78C246.05,25.07,242.52,25,239,24.99C239,17,239,9,239,1z"/>
<path d="M251,1c3.74,0.13,7.641-0.44,11.25,0.75c1.95,0.6,2.5,2.73,2.75,4.51v15.55c-0.77,1.15-1.51,2.63-3.02,2.9
	c-3.631,0.56-7.32,0.22-10.98,0.28C251,16.99,251,8.99,251,1 M256.95,4.26c-0.05,5.81-0.03,11.61-0.011,17.42
	c0.49-0.2,1.49-0.59,1.98-0.79c0.25-5.26,0.27-10.56,0-15.81C258.43,4.87,257.439,4.46,256.95,4.26z"/>
<path fill="#FFFFFF" d="M149.09,4.24c0.471-0.1,1.41-0.3,1.891-0.4c0.08,5.95,0.289,11.92-0.09,17.87
	c-0.471,0.12-1.4,0.37-1.861,0.49C148.93,16.22,148.75,10.21,149.09,4.24z"/>
<path fill="#FFFFFF" d="M230.109,4.25c0.48,0.21,1.42,0.63,1.891,0.84c0,1.63,0,3.26,0,4.89c-0.48,0.19-1.43,0.56-1.91,0.75
	C229.9,8.57,229.91,6.4,230.109,4.25z"/>
<path fill="#FFFFFF" d="M202.939,4.3c0.5,0.19,1.49,0.58,1.99,0.77c0.25,5.26,0.25,10.56-0.01,15.82c-0.5,0.2-1.49,0.6-1.98,0.81
	C202.92,15.9,202.91,10.1,202.939,4.3z"/>
<path fill="#FFFFFF" d="M256.95,4.26c0.489,0.2,1.479,0.61,1.97,0.82c0.27,5.25,0.25,10.55,0,15.81c-0.49,0.2-1.49,0.59-1.98,0.79
	C256.92,15.87,256.9,10.07,256.95,4.26z"/>
<path fill="#FFFFFF" d="M37.48,6.97c0.52,3.32,0.79,6.67,1.15,10.01c-0.55-0.03-1.64-0.07-2.19-0.09
	C36.86,13.59,37.05,10.27,37.48,6.97z"/>
<path d="M121.07,35.11c14.3-1.74,28.68,2.19,41.401,8.54c8.079,4.56,14.889,10.95,21.01,17.85c14.97,19.7,18.119,48.21,5.949,70.061
	c-3.13,7.06-8.22,12.93-13.41,18.549c0.67,5.58,0.051,11.221,0.4,16.82c-0.529,2.61-2.529,4.25-4.57,5.73
	c-4.6,0.71-9.32,1.02-13.959,0.52c-4.601-1.149-9.111-2.71-13.861-3.21c0.74-0.59,1.471-1.18,2.211-1.78
	c3.939,0.57,7.82,1.49,11.65,2.601c4.889,1.53,10.26,1.21,15.039-0.59c0.4-1.091,0.83-2.181,1.28-3.25
	c0.771-5.341,0.37-10.75,0.46-16.13c-4.141,3.189-7.85,7.109-12.779,9.1c-6.58,2.84-13.041,6.49-20.291,7.2
	c0.92,0.229,2.76,0.69,3.67,0.91c-1.699,1.31-3.68,1.89-5.819,1.579c5.59,13.421,9.46,27.74,9.18,42.391h-2.271
	c0.221-4.18,0.17-8.38-0.56-12.51c-1.739-10.49-4.079-21.15-9.45-30.44c-9.439,7.851-20.59,14.73-26.01,26.22
	c0.49,1.28,0.99,2.561,1.5,3.84c1.11,0.521,2.18,1.141,2.89,2.171c3.11,1.63,5.8,3.899,8.58,6.01c3.12,1.24,6.15,2.72,8.86,4.71
	h-5.13l1.15-0.77c-1.72-0.601-3.43-1.19-5.16-1.74c-0.16-0.5-0.48-1.5-0.64-2c-2.32,1.82-3.94-1.11-5.42-2.5
	c-4.9-1.46-7.74-6-8.81-10.76c3.88-5.431,7.36-11.261,12.39-15.73c4.17-3.27,8.07-6.87,12.37-9.97
	c-5.36-0.28-10.76-0.061-16.08-0.931c-15.23-2.58-29.65-9.959-40.41-21.09c-5.06-6.08-9.85-12.52-12.87-19.9
	c-4.68-11.219-7.52-23.739-4.65-35.81c0.8-2.58,1.52-5.18,2.25-7.77C64.27,72.43,70.58,63.1,77.95,55c2.76-3,6.26-5.12,9.49-7.54
	c3.42-2.35,6.79-4.9,10.77-6.21C105.52,38.22,113.14,35.68,121.07,35.11 M108.97,39.09c-3.08,0.82-6,2.15-9.12,2.81
	c-6.24,2.71-11.6,7.01-17.18,10.81C70.48,63.55,62,78.81,60.19,95.11c-1.12,2.12-0.63,4.59-0.75,6.89
	c0.8,17.45,8.59,34.35,21.1,46.52c4.48,3.601,9.13,7.03,14.01,10.061c3.74,1.65,7.51,3.21,11.31,4.71
	c0.57,0.101,1.71,0.3,2.28,0.399l0.76,0.511c8.22,2.409,16.92,3.1,25.42,2.18l0.5-0.67c-0.961-2.53-2.561-4.75-4.2-6.88
	c0.46-0.46,0.93-0.92,1.4-1.38c2.28,2.569,3.66,5.77,5.791,8.46c6.64-1.11,13.06-3.19,19.17-6.01
	c6.459-2.08,11.67-6.601,16.67-10.971c-0.121-1.02-0.4-1.99-0.82-2.91c-3.12-4.199-5.23-9.26-9.54-12.449
	c-1.99-0.44-3.69-1.62-5.11-3.04c-2.26-1.341-4.85-1.04-7.34-0.78c-2.74,0.54-5.15,1.9-7,3.99c-1.1-2.69,1.08-3.93,2.971-5.17
	c0.85-0.01,2.539-0.03,3.39-0.04c-3.229-1.8-7.511-0.39-11.07-1.62c-1.5,0.02-2.819-0.54-3.78-1.68c0.18-0.431,0.541-1.28,0.721-1.7
	c2.449,2.25,5.8,1.95,8.81,2.7c2.11,0.09,4.22,0.08,6.33,0.05c-0.979-1.91-2.931-4.63-0.21-5.96c1.49,2.16,3.13,4.25,4,6.76
	c0.529,0.29,1.59,0.859,2.13,1.15c1.399,0.26,2.67,0.879,3.729,1.84c1.99,2.17,5.381,2.51,6.871,5.16c1.31,2.02,3.27,3.64,3.99,6.02
	c1.229,1.98,3.209,3.51,3.18,6.08c9.879-6.55,14.67-18.28,18.289-29.13c0.291-1.4,0.631-2.78,1.021-4.15c1.06-6,1.53-12.08,1-18.15
	c-0.87-6.86-2.44-13.64-5.25-19.99c-2.97,3.92-7.33,6.09-11.979,7.37c-2.01,0.12-4.03,0.14-6.041,0.06
	c-4-1.36-8.199-2.19-11.879-4.39c-5.301-2.2-9.371-7.25-10.381-12.91c-0.029-3.6,2.4-6.44,5.41-8.09
	c4.82-2.6,10.68-4.34,15.971-2.06c2.31,0.69,4.609,1.42,6.969,1.94c-1.85-1.78-3.619-3.65-5.6-5.29
	c-2.76-0.67-5.699-0.15-8.529-0.32c-1.19-0.31-3.561-0.92-4.75-1.229c2.57-0.26,5.85-2.64,8.16-0.28
	c0.109-0.48,0.35-1.44,0.459-1.93c-3.879-2.35-7.619-5.03-11.899-6.62c-2.261-0.71-4.54-1.38-6.681-2.4
	C136.24,35.67,122.01,35.05,108.97,39.09 M152.93,61.19c10.41,0.21,20.61,2.56,30.93,3.67c-2.719-5.15-8.76-6.13-13.85-7.49
	C164.15,55.79,157.66,57.48,152.93,61.19 M151.779,63.53c-0.119,1.02-0.239,2.04-0.359,3.06c1.77,1.27,5.221,0.22,5.63,2.91
	c-1.22-0.24-3.67-0.71-4.899-0.94c2.199,6.46,8.66,9.87,14.859,11.54c6.73,2.69,14.551,1.45,20.27-2.94
	c0.131-0.86,0.391-2.57,0.521-3.43c-9.899-0.12-19.59-2.02-29.271-3.83c2.531-1.79,5.951-0.25,8.801-0.14
	c0.74-2,2.01-3.72,3.63-5.09C164.6,64.03,158.18,62.73,151.779,63.53 M174.05,65.26c1.021,1.26,2.07,2.5,3.15,3.72
	c-0.011,0.58-0.05,1.73-0.07,2.31c3.591,0.3,7.19,0.52,10.761,1.07c-0.621-2.15-1.57-4.51-3.73-5.52
	C180.82,66.18,177.45,65.58,174.05,65.26z"/>
<path fill="#FFFFFF" d="M108.97,39.09c13.04-4.04,27.27-3.42,40.219,0.67c2.141,1.021,4.42,1.69,6.681,2.4
	c4.28,1.59,8.021,4.27,11.899,6.62c-0.109,0.49-0.35,1.45-0.459,1.93c-2.311-2.36-5.59,0.02-8.16,0.28
	c1.189,0.31,3.56,0.92,4.75,1.229c2.83,0.17,5.77-0.35,8.529,0.32c1.98,1.64,3.75,3.51,5.6,5.29c-2.359-0.52-4.659-1.25-6.969-1.94
	c-5.291-2.28-11.15-0.54-15.971,2.06c-3.01,1.65-5.439,4.49-5.41,8.09c1.01,5.66,5.08,10.71,10.381,12.91
	c3.68,2.2,7.879,3.03,11.879,4.39c2.011,0.08,4.031,0.06,6.041-0.06c4.649-1.28,9.01-3.45,11.979-7.37
	c2.81,6.35,4.38,13.13,5.25,19.99c0.53,6.07,0.06,12.15-1,18.15c-0.39,1.37-0.729,2.75-1.021,4.15
	c-3.619,10.85-8.41,22.58-18.289,29.13c0.029-2.57-1.95-4.1-3.18-6.08c-0.721-2.38-2.681-4-3.99-6.02
	c-1.49-2.65-4.881-2.99-6.871-5.16c-1.06-0.961-2.33-1.58-3.729-1.84c-0.54-0.291-1.601-0.86-2.13-1.15c-0.87-2.51-2.51-4.6-4-6.76
	c-2.721,1.33-0.77,4.05,0.21,5.96c-2.11,0.03-4.22,0.04-6.33-0.05c-3.01-0.75-6.36-0.45-8.81-2.7c-0.18,0.42-0.541,1.27-0.721,1.7
	c0.961,1.14,2.28,1.699,3.78,1.68c3.56,1.23,7.841-0.18,11.07,1.62c-0.851,0.01-2.54,0.03-3.39,0.04
	c-1.891,1.24-4.07,2.479-2.971,5.17c1.85-2.09,4.26-3.45,7-3.99c2.49-0.26,5.08-0.561,7.34,0.78c1.42,1.42,3.12,2.6,5.11,3.04
	c4.31,3.189,6.42,8.25,9.54,12.449c0.42,0.92,0.699,1.891,0.82,2.91c-5,4.37-10.211,8.891-16.67,10.971
	c-6.11,2.819-12.53,4.899-19.17,6.01c-2.131-2.69-3.511-5.891-5.791-8.46c-0.47,0.46-0.94,0.92-1.4,1.38
	c1.64,2.13,3.239,4.35,4.2,6.88l-0.5,0.67c-8.5,0.92-17.2,0.229-25.42-2.18l-0.76-0.511c-0.57-0.1-1.71-0.299-2.28-0.399
	c-3.8-1.5-7.57-3.06-11.31-4.71c-4.88-3.03-9.53-6.46-14.01-10.061c-12.51-12.17-20.3-29.069-21.1-46.52
	c0.12-2.3-0.37-4.77,0.75-6.89c1.81-16.3,10.29-31.56,22.48-42.4c5.58-3.8,10.94-8.1,17.18-10.81
	C102.97,41.24,105.89,39.91,108.97,39.09 M116.93,41.81c-1.33,0.66-2.79,0.83-4.25,0.94c-0.01,0.41-0.03,1.25-0.04,1.67
	c4.77,0.14,9.53-2.04,14.28-0.5c1.03,0.57,2.08,1.12,3.12,1.68c0.51-0.54,1.03-1.08,1.55-1.61c-0.31-0.32-0.92-0.95-1.23-1.26
	c-0.61-0.12-1.83-0.34-2.43-0.46C124.46,40.87,120.56,41.72,116.93,41.81 M112.57,50.93c-6.27,0.96-12.84,2.62-17.63,7.02
	c-2.45,2.38-5.03,5.42-4.6,9.09c1.29,5.13,5.36,9.55,10.62,10.69c4.9,0.85,9.85,2.46,14.85,1.36c4.39-0.91,9.17-0.88,13.08-3.35
	c3.51-2.22,6.9-5.11,8.62-8.97c1.37-2.85,0.37-6.29-1.88-8.38C130.16,51.66,120.73,50.21,112.57,50.93 M177.55,91.32
	c-1.17,2.68,1.681,4.43,2.87,6.47c-0.609,1.59-0.949,3.24-1.029,4.94l1.75-0.49C183.58,98.3,181.21,93.48,177.55,91.32
	 M122.36,108.71c0.05,0.47,0.17,1.42,0.22,1.89c6.62-1.899,12.66-5.399,19.49-6.66c8.24-2.81,16.859-5.51,25.689-4.5
	c-2.31,5.72-8.21,8.701-12.5,12.61c0.08,0.47,0.23,1.41,0.301,1.88c4.469-2.41,8.029-6.09,11.66-9.56
	c1.289-1.13,1.549-2.88,2.109-4.4c-0.21-0.63-0.63-1.88-0.85-2.51c-4.01-1.44-8.271,0.18-12.381,0.37
	C144.529,100.33,133.42,104.58,122.36,108.71 M112.22,108.93c0.33-1.88,1.53-3.83,0.64-5.72
	C111.23,104.62,110.68,107.25,112.22,108.93z"/>
<path d="M116.93,41.81c3.63-0.09,7.53-0.94,11,0.46c0.6,0.12,1.82,0.34,2.43,0.46c0.31,0.31,0.92,0.94,1.23,1.26
	c-0.52,0.53-1.04,1.07-1.55,1.61c-1.04-0.56-2.09-1.11-3.12-1.68c-4.75-1.54-9.51,0.64-14.28,0.5c0.01-0.42,0.03-1.26,0.04-1.67
	C114.14,42.64,115.6,42.47,116.93,41.81z"/>
<path d="M112.57,50.93c8.16-0.72,17.59,0.73,23.06,7.46c2.25,2.09,3.25,5.53,1.88,8.38c-1.72,3.86-5.11,6.75-8.62,8.97
	c-3.91,2.47-8.69,2.44-13.08,3.35c-5,1.1-9.95-0.51-14.85-1.36c-5.26-1.14-9.33-5.56-10.62-10.69c-0.43-3.67,2.15-6.71,4.6-9.09
	C99.73,53.55,106.3,51.89,112.57,50.93 M93.65,60.94c13.45-1.83,27.05-1.68,40.581-1.45c-2.891-4.4-8.24-6.021-13.161-6.8
	C111.34,51.34,100.91,54.19,93.65,60.94 M93.73,62.75c-1.8,0.99-1.18,3.22-1.49,4.89c1.84,0.11,3.69,0.18,5.54,0.08
	c0.18,0.45,0.53,1.34,0.71,1.79c-1.81-0.14-3.61-0.29-5.41-0.42c0.12,0.56,0.36,1.69,0.48,2.25c6.49,6.87,16.62,7.13,25.38,6.13
	c5.89-1.18,12.18-3.51,15.4-8.95c-3.77,0.1-7.53,0.46-11.3,0.67c-2.04,0.15-4.25-0.09-6.02,1.16c-0.68-0.21-1.36-0.43-2.03-0.65
	c-5.56,0.19-11.15-0.36-16.68,0.33c0.62-0.53,1.23-1.07,1.84-1.61c4.11,0.2,8.23,0.21,12.35,0.16c-1.14-3.2,0.32-6.01,2.68-8.1
	C108.03,61.19,100.8,61.37,93.73,62.75 M117.79,60.53c1.18,1.45,2.39,2.88,3.47,4.4c0.03,1.21,0.08,2.41,0.14,3.61
	c2.51-1.04,5.25-0.92,7.89-1.22c2.11-0.54,4.29-0.71,6.46-0.87c-0.01-1.87-0.061-3.74-0.2-5.61
	C129.64,60.5,123.71,60.15,117.79,60.53z"/>
<path fill="#FFFFFF" d="M93.65,60.94c7.26-6.75,17.69-9.6,27.42-8.25c4.92,0.78,10.27,2.4,13.161,6.8
	C120.7,59.26,107.1,59.11,93.65,60.94z"/>
<path fill="#FFFFFF" d="M152.93,61.19c4.73-3.71,11.221-5.4,17.08-3.82c5.09,1.36,11.131,2.34,13.85,7.49
	C173.54,63.75,163.34,61.4,152.93,61.19z"/>
<path fill="#FFFFFF" d="M93.73,62.75c7.07-1.38,14.3-1.56,21.45-2.27c-2.36,2.09-3.82,4.9-2.68,8.1c-4.12,0.05-8.24,0.04-12.35-0.16
	c-0.61,0.54-1.22,1.08-1.84,1.61c5.53-0.69,11.12-0.14,16.68-0.33c0.67,0.22,1.35,0.44,2.03,0.65c1.77-1.25,3.98-1.01,6.02-1.16
	c3.77-0.21,7.53-0.57,11.3-0.67c-3.22,5.44-9.51,7.77-15.4,8.95c-8.76,1-18.89,0.74-25.38-6.13c-0.12-0.56-0.36-1.69-0.48-2.25
	c1.8,0.13,3.6,0.28,5.41,0.42c-0.18-0.45-0.53-1.34-0.71-1.79c-1.85,0.1-3.7,0.03-5.54-0.08C92.55,65.97,91.93,63.74,93.73,62.75z"
	/>
<path fill="#FFFFFF" d="M117.79,60.53c5.92-0.38,11.85-0.03,17.76,0.31c0.14,1.87,0.19,3.74,0.2,5.61
	c-2.17,0.16-4.35,0.33-6.46,0.87c-2.64,0.3-5.38,0.18-7.89,1.22c-0.06-1.2-0.11-2.4-0.14-3.61
	C120.18,63.41,118.97,61.98,117.79,60.53z"/>
<path fill="#FFFFFF" d="M151.779,63.53c6.4-0.8,12.82,0.5,19.181,1.14c-1.62,1.37-2.89,3.09-3.63,5.09
	c-2.85-0.11-6.27-1.65-8.801,0.14c9.681,1.81,19.371,3.71,29.271,3.83c-0.13,0.86-0.39,2.57-0.521,3.43
	c-5.719,4.39-13.539,5.63-20.27,2.94c-6.199-1.67-12.66-5.08-14.859-11.54c1.229,0.23,3.68,0.7,4.899,0.94
	c-0.409-2.69-3.86-1.64-5.63-2.91C151.54,65.57,151.66,64.55,151.779,63.53z"/>
<path fill="#FFFFFF" d="M174.05,65.26c3.4,0.32,6.771,0.92,10.11,1.58c2.16,1.01,3.109,3.37,3.73,5.52
	c-3.57-0.55-7.17-0.77-10.761-1.07c0.021-0.58,0.06-1.73,0.07-2.31C176.12,67.76,175.07,66.52,174.05,65.26z"/>
<path d="M177.55,91.32c3.66,2.16,6.03,6.98,3.591,10.92l-1.75,0.49c0.08-1.7,0.42-3.35,1.029-4.94
	C179.23,95.75,176.38,94,177.55,91.32z"/>
<path d="M122.36,108.71c11.06-4.13,22.169-8.38,33.74-10.88c4.11-0.19,8.371-1.81,12.381-0.37c0.22,0.63,0.64,1.88,0.85,2.51
	c-0.561,1.521-0.82,3.271-2.109,4.4c-3.631,3.47-7.191,7.149-11.66,9.56c-0.07-0.47-0.221-1.41-0.301-1.88
	c4.29-3.909,10.19-6.89,12.5-12.61c-8.83-1.01-17.449,1.69-25.689,4.5c-6.83,1.26-12.87,4.76-19.49,6.66
	C122.53,110.13,122.41,109.18,122.36,108.71z"/>
<path d="M112.22,108.93c-1.54-1.68-0.99-4.31,0.64-5.72C113.75,105.1,112.55,107.05,112.22,108.93z"/>
<path fill="#FFFFFF" d="M110.34,195.27c5.42-11.489,16.57-18.369,26.01-26.22c5.371,9.29,7.711,19.95,9.45,30.44
	c0.729,4.13,0.78,8.33,0.56,12.51H132.17c-2.71-1.99-5.74-3.47-8.86-4.71c-2.78-2.11-5.47-4.38-8.58-6.01
	c-0.71-1.03-1.78-1.65-2.89-2.171C111.33,197.83,110.83,196.55,110.34,195.27z"/>
</svg>
