<?xml version="1.0" encoding="utf-8"?>
<!-- Generator: Adobe Illustrator 15.0.2, SVG Export Plug-In . SVG Version: 6.00 Build 0)  -->
<!DOCTYPE svg PUBLIC "-//W3C//DTD SVG 1.1//EN" "http://www.w3.org/Graphics/SVG/1.1/DTD/svg11.dtd">
<svg version="1.1" id="Layer_1" xmlns="http://www.w3.org/2000/svg" xmlns:xlink="http://www.w3.org/1999/xlink" x="0px" y="0px"
	 width="58px" height="124px" viewBox="0 0 58 124" enable-background="new 0 0 58 124" xml:space="preserve">
<path fill="#FFFFFF" d="M0,0h58v124H19.08c-1.42-6.59-6.23-11.83-7.84-18.35c-1.77-12.32-1.2-25.03,2.09-37.051
	c3.95,3.061,7.76,6.301,11.55,9.551c2.34,2.05,5.87,2.43,8.729,1.42c5.611-3.75,6.16-11.04,9.58-16.381
	C49.141,61.68,53.62,56.77,56.5,51.6c1.08-9.66,0.9-19.74-1.971-29.13C53.46,19.14,54.2,15.1,51.66,12.35
	c-3.17-3.45-6.2-7.34-10.62-9.24c-7.36-3.35-16.8-3.58-23.38,1.61c-8.61,4.49-12.59,15-11.27,24.3c0.71,4.52,0.49,9.23,2.12,13.57
	c2.02,5.15,3.16,10.67,6.13,15.41c-0.55,1.67-0.99,3.38-1.83,4.93c-1.56,1.41-3.99,1.711-5.12,3.631C3.92,72.29,0.27,78.43,0,85.5V0
	z"/>
<path fill="#222222" d="M17.66,4.72c6.58-5.189,16.02-4.96,23.38-1.61c4.42,1.9,7.45,5.79,10.62,9.24
	c2.54,2.75,1.8,6.79,2.869,10.12C57.4,31.86,57.58,41.94,56.5,51.6c-2.88,5.17-7.359,10.08-13.311,11.589
	c-3.42,5.341-3.969,12.631-9.58,16.381c-2.859,1.01-6.389,0.63-8.729-1.42c-3.79-3.25-7.6-6.49-11.55-9.551
	c-3.29,12.021-3.86,24.73-2.09,37.051c1.61,6.52,6.42,11.76,7.84,18.35h-1.63c-2.69-4.01-4.6-8.5-6.5-12.92
	c-0.8,4.35-1.32,8.87-3.2,12.92H6.08c5.19-18.62-1.16-38.609,5.27-57.01c-6.36,4.9-8.67,13.3-9.32,20.96
	c0.18,4.92-0.88,10.159,1.2,14.8c0.9,1.98,3.14,2.96,3.95,4.98c-0.71,0.1-2.13,0.31-2.84,0.42c0.52,0.59,1.57,1.76,2.09,2.35
	l-2.08-0.08c0.06,0.73,0.19,2.18,0.25,2.91c-1.8-0.34-3.68-1.391-3.72-3.46C0.3,105.5,0.49,101.061,0,96.68V85.5
	c0.27-7.07,3.92-13.21,7.69-18.939c1.13-1.92,3.56-2.221,5.12-3.631c0.84-1.55,1.28-3.26,1.83-4.93
	c-2.97-4.74-4.11-10.26-6.13-15.41c-1.63-4.34-1.41-9.05-2.12-13.57C5.07,19.72,9.05,9.21,17.66,4.72 M12.62,11.56
	c-4.47,7.2-4.44,16.22-3.1,24.33c0.61,4.9,3.27,9.22,4.02,14.09c1.08,3.15,2.89,6.07,4.85,8.73c7.07,4.13,15.68,2.01,23.43,1.97
	c-1.811-0.92-4.32-1.16-5.51-2.89c0.709-2.46,3.92,0.71,5.43,0.45c-1.28-1.04-2.48-2.15-3.61-3.33c0.11-3.13,2.99,0.25,4.261,0.73
	c-0.051-0.92-0.17-2.76-0.221-3.68c4.189,0.62,1.45,6.21,1.971,9.06c1.81-1.19,3.659-2.33,5.369-3.68c2.51-2.09,3.6-5.32,4.62-8.32
	c1.66-11.35-1.18-22.59-3.319-33.65c-1.49-2.17-3.48-3.93-5.36-5.75c-2.75,0.19-8.511,2.4-9.33-1.31c2.59-0.54,5.239-0.59,7.87-0.35
	C41.88,5.17,38.4,4,35.1,3.35C26.87,1.68,17.77,4.89,12.62,11.56 M16.48,60.2c-0.63,1.67-1.3,3.33-1.95,4.989
	c2.18,4.19,6.67,6.17,9.71,9.601c1.57,1.95,4.02,2.61,6.34,3.2c1.42-0.71,2.83-1.4,4.25-2.1c2.43-4.031,3.55-8.631,5.529-12.86
	C34.54,62.46,28.77,64.35,22.99,63.3C20.51,63,18.72,61.11,16.48,60.2z"/>
<path fill="#FFFFFF" d="M12.62,11.56C17.77,4.89,26.87,1.68,35.1,3.35C38.4,4,41.88,5.17,43.99,7.96
	c-2.631-0.24-5.28-0.19-7.87,0.35c0.819,3.71,6.58,1.5,9.33,1.31c1.88,1.82,3.87,3.58,5.36,5.75c2.14,11.06,4.979,22.3,3.319,33.65
	c-1.021,3-2.11,6.23-4.62,8.32c-1.71,1.35-3.56,2.49-5.369,3.68c-0.521-2.85,2.219-8.44-1.971-9.06c0.051,0.92,0.17,2.76,0.221,3.68
	c-1.271-0.48-4.15-3.86-4.261-0.73c1.13,1.18,2.33,2.29,3.61,3.33c-1.51,0.26-4.721-2.91-5.43-0.45c1.189,1.73,3.699,1.97,5.51,2.89
	c-7.75,0.04-16.36,2.16-23.43-1.97c-1.96-2.66-3.77-5.58-4.85-8.73c-0.75-4.87-3.41-9.19-4.02-14.09
	C8.18,27.78,8.15,18.76,12.62,11.56 M26.66,7.74c-3.31,1.03-6.7,2.29-9.22,4.78c-0.99,0.68-1.02,1.9-0.84,2.97
	c1.47,0.94,1.92-1.17,2.85-1.92c2.83-2.18,6.54-2.75,9.42-4.86C29.05,7.19,27.62,7.53,26.66,7.74 M39.109,14.37
	c-3.899,3.87-1.299,11.58,3.92,12.77c2.15,0.48,4.32-0.99,4.721-3.14c1.141-4.11,1.52-9.78-2.689-12.3
	C42.91,12.12,40.63,12.65,39.109,14.37 M19.17,22.07c-0.07,3.46,3.32,5.49,5.93,7.05c3.05,0.58,6.24-0.2,8.77-1.97
	c-0.28-4.25,1.08-9.35-1.91-12.89C26.65,10.73,18.58,15.76,19.17,22.07 M23.22,37.65c0.65,0.05,1.95,0.15,2.59,0.2
	c2.4,1.98,4.94,4.24,8.24,4.32c3.921,0.59,8.44-0.98,11.9,1.5c2.13,1.25,4,4.56,6.76,2.59c-2.06-2.22-4.101-4.729-7.04-5.79
	c-4.24-1.53-8.84-0.13-13.16-1.2c-3.01-0.88-5.14-3.45-6.59-6.1C24.5,34.3,23.88,36.03,23.22,37.65z"/>
<path fill="#222222" d="M26.66,7.74c0.96-0.21,2.39-0.55,2.21,0.97c-2.88,2.11-6.59,2.68-9.42,4.86c-0.93,0.75-1.38,2.86-2.85,1.92
	c-0.18-1.07-0.15-2.29,0.84-2.97C19.96,10.03,23.35,8.77,26.66,7.74z"/>
<path fill="#222222" d="M39.109,14.37c1.521-1.72,3.801-2.25,5.951-2.67c4.209,2.52,3.83,8.19,2.689,12.3
	c-0.4,2.15-2.57,3.62-4.721,3.14C37.811,25.95,35.21,18.24,39.109,14.37 M40.08,18.95c-0.42,2.92,1.641,6.13,4.859,5.59
	c-0.91-0.9-2.83-1.25-2.279-3c0.82,0.04,2.449,0.14,3.26,0.19c-0.1-1.59-0.18-3.17-0.25-4.75C43.779,17.56,41.93,18.25,40.08,18.95z
	"/>
<path fill="#222222" d="M19.17,22.07c-0.59-6.31,7.48-11.34,12.79-7.81c2.99,3.54,1.63,8.64,1.91,12.89
	c-2.53,1.77-5.72,2.55-8.77,1.97C22.49,27.56,19.1,25.53,19.17,22.07 M22.66,18.66c0.62,0.8,1.24,1.61,1.86,2.41
	c-1.35,0.13-3.01,2.02-1.87,3.27c1.92,2.36,5.44,2.75,8.241,2.21c1.68-2.19,0.219-5.28,0.399-7.84c-1.8,0.14-3.58,0.42-5.33,0.85
	c-0.59-0.52-1.18-1.03-1.77-1.55c2.1-0.63,4.25-1.09,6.43-1.37c-0.271-0.27-0.8-0.79-1.07-1.05C26.8,15.19,24.33,16.55,22.66,18.66z
	"/>
<path fill="#FFFFFF" d="M22.66,18.66c1.67-2.11,4.14-3.47,6.89-3.07c0.271,0.26,0.8,0.78,1.07,1.05c-2.18,0.28-4.33,0.74-6.43,1.37
	c0.59,0.521,1.18,1.03,1.77,1.55c1.75-0.43,3.53-0.71,5.33-0.85c-0.181,2.56,1.28,5.65-0.399,7.84
	c-2.801,0.54-6.321,0.15-8.241-2.21c-1.14-1.25,0.52-3.14,1.87-3.27C23.9,20.27,23.28,19.46,22.66,18.66 M29.39,25.44
	c1.41,0.08,2.389-1.92,0.98-2.69C28.45,21.95,26.95,25.2,29.39,25.44z"/>
<path fill="#FFFFFF" d="M40.08,18.95c1.85-0.7,3.699-1.39,5.59-1.97c0.07,1.58,0.15,3.16,0.25,4.75
	c-0.811-0.05-2.439-0.15-3.26-0.19c-0.551,1.75,1.369,2.1,2.279,3C41.721,25.08,39.66,21.87,40.08,18.95z"/>
<path fill="#222222" d="M29.39,25.44c-2.44-0.24-0.94-3.49,0.98-2.69C31.779,23.52,30.8,25.52,29.39,25.44z"/>
<path fill="#222222" d="M23.22,37.65c0.66-1.62,1.28-3.35,2.7-4.48c1.45,2.65,3.58,5.22,6.59,6.1c4.32,1.07,8.92-0.33,13.16,1.2
	c2.939,1.061,4.98,3.57,7.04,5.79c-2.76,1.97-4.63-1.34-6.76-2.59c-3.46-2.48-7.979-0.91-11.9-1.5c-3.3-0.08-5.84-2.34-8.24-4.32
	C25.17,37.8,23.87,37.7,23.22,37.65z"/>
<path fill="#FFFFFF" d="M16.48,60.2c2.24,0.91,4.03,2.8,6.51,3.1c5.78,1.05,11.55-0.84,17.369-0.27
	c-1.979,4.229-3.1,8.829-5.529,12.86c-1.42,0.699-2.83,1.39-4.25,2.1c-2.32-0.59-4.77-1.25-6.34-3.2
	c-3.04-3.431-7.53-5.41-9.71-9.601C15.18,63.53,15.85,61.87,16.48,60.2z"/>
<path fill="#FFFFFF" d="M2.03,87.95c0.65-7.66,2.96-16.06,9.32-20.96c-6.43,18.4-0.08,38.39-5.27,57.01H0V96.68
	c0.49,4.381,0.3,8.82,0.88,13.19c0.04,2.069,1.92,3.12,3.72,3.46c-0.06-0.73-0.19-2.18-0.25-2.91l2.08,0.08
	c-0.52-0.59-1.57-1.76-2.09-2.35c0.71-0.11,2.13-0.32,2.84-0.42c-0.81-2.021-3.05-3-3.95-4.98C1.15,98.109,2.21,92.87,2.03,87.95z"
	/>
<path fill="#FFFFFF" d="M7.75,124c1.88-4.05,2.4-8.57,3.2-12.92c1.9,4.42,3.81,8.91,6.5,12.92H7.75z"/>
</svg>
