<?xml version="1.0" encoding="utf-8"?>
<!-- Generator: Adobe Illustrator 15.0.2, SVG Export Plug-In . SVG Version: 6.00 Build 0)  -->
<!DOCTYPE svg PUBLIC "-//W3C//DTD SVG 1.1//EN" "http://www.w3.org/Graphics/SVG/1.1/DTD/svg11.dtd">
<svg version="1.1" id="Layer_1" xmlns="http://www.w3.org/2000/svg" xmlns:xlink="http://www.w3.org/1999/xlink" x="0px" y="0px"
	 width="324px" height="239px" viewBox="0 0 324 239" enable-background="new 0 0 324 239" xml:space="preserve">
<path fill="#DCDCDC" d="M0,0h324v238.109c-12.66,0.48-25.33,0.121-38,0.23c-10.43,0.17-20.891-0.56-31.27,0.66h-1.471
	c-0.42-0.09-1.26-0.26-1.68-0.35c0.23-5.021,0.22-10.061-0.1-15.08c-8.78-0.29-17.58-0.271-26.36,0.02
	c-1.341-9.9-1.96-20.01-5.479-29.46c-2.051-6.89-7.17-13.229-6.25-20.739c2.939-4,7.039-7,9.869-11.11
	c4.381-6.3,8.09-13.431,8.79-21.19c0.82-7.54-0.569-15.16-2.78-22.35c-3.18-9.63-11.459-16.92-20.89-20.18
	c-12.56-4.19-26.11-3.24-38.979-1.19c-7.84,1.8-16.891,3.06-22.05,9.98c-7.87,8.72-10.29,20.71-11.46,32.03
	c1.25,7.979,2.61,16.15,6.35,23.41c1.08,2.21,2.46,4.28,3.28,6.62c0.48,2.91-0.56,5.8-0.84,8.689
	c-0.96,7.931-1.65,15.931-1.27,23.92c0.66,7.261,1.51,14.5,2.54,21.711c-4.06,0.02-8.11,0.02-12.17-0.041
	c-0.13-1.399-0.25-2.81-0.38-4.209c-4.94-0.801-9.74-3.59-14.85-2.36c-4.81,0.76-9.7,0.479-14.55,0.53
	c-11.24,0.039-22.48-0.03-33.72,0c0.05-0.69,0.15-2.08,0.2-2.771c10.16-0.56,20.33,0.011,30.49-0.26c2.28,0.03,4.03-1.63,5.73-2.92
	c2.25-2.04,4.72-4.07,6.11-6.83c0.08-3.351-0.92-6.61-1.5-9.88c-4.42-20.83-8.27-41.771-12.43-62.641
	c-0.47-2.209-0.89-4.449-1.8-6.52c-2.15-1.15-4.66-1.03-7.02-1.09c-21.05,0.119-42.11,0-63.16,0.04
	c-3.82-0.351-6.69,2.439-9.37,4.71c-1.26,1.22-2.96,2.49-2.7,4.479c-0.08,5.78,0.13,11.681,2.19,17.15
	c4.02,16.09,7.57,32.3,11.36,48.45c2.07,6.96-0.42,14.109-1.02,21.109c0.12,1.551-1.31,2.45-2.71,2.461
	C16.45,223.71,8.16,222.46,0,223.71V0z"/>
<path fill="#3E3E3E" d="M169.4,97.37c12.869-2.05,26.42-3,38.979,1.19c9.431,3.26,17.71,10.55,20.89,20.18
	c2.211,7.189,3.601,14.81,2.78,22.35c-0.7,7.76-4.409,14.891-8.79,21.19c-2.83,4.11-6.93,7.11-9.869,11.11
	c-0.92,7.51,4.199,13.85,6.25,20.739c3.52,9.45,4.139,19.56,5.479,29.46c8.78-0.29,17.58-0.31,26.36-0.02
	c0.319,5.02,0.33,10.06,0.1,15.08c-0.52-0.131-1.551-0.4-2.061-0.53c-0.209-3.58-0.14-7.17-0.119-10.761
	c-17.4,3.011-34.771,6.261-52.19,9.15c-3.069,0.5-6.11,1.221-9.09,2.131c-2.979-0.16-5.91-0.711-8.82-1.36
	c20.57-4.33,41.431-7.24,62.08-11.19c-6.45-0.62-12.95-0.48-19.39,0.13c-5.78,0.45-11.641-0.409-17.37,0.681
	c-3.181,0.779-6.33-0.791-9.54-0.541c-15.6,0.08-31.21-0.219-46.8,0.25c-4.87-0.01-10.13-1.27-14.68,1.031
	c-3.95,1.819-8.44,1.35-12.65,1.84c-7.15,0.81-14.39-0.4-21.51,0.619c-10.31,3.59-21.47,0.021-32,2.351
	c-5.72,1.39-11.63,0.67-17.45,0.85c-9.95,0.351-19.95,0.79-29.89-0.02c1.16-2.78,2.74-5.351,4.5-7.79c-8.2-0.17-16.4,0.1-24.6-0.2
	v-1.58c8.16-1.25,16.45,0,24.65-0.569c1.4-0.011,2.83-0.91,2.71-2.461c0.6-7,3.09-14.149,1.02-21.109
	c-3.79-16.15-7.34-32.36-11.36-48.45c-2.06-5.47-2.27-11.37-2.19-17.15c-0.26-1.989,1.44-3.26,2.7-4.479
	c2.68-2.271,5.55-5.061,9.37-4.71c21.05-0.04,42.11,0.079,63.16-0.04c2.36,0.06,4.87-0.061,7.02,1.09c0.91,2.07,1.33,4.311,1.8,6.52
	c4.16,20.87,8.01,41.811,12.43,62.641c0.58,3.27,1.58,6.529,1.5,9.88c-1.39,2.76-3.86,4.79-6.11,6.83c-1.7,1.29-3.45,2.95-5.73,2.92
	c-10.16,0.271-20.33-0.3-30.49,0.26c-0.05,0.69-0.15,2.08-0.2,2.771c11.24-0.03,22.48,0.039,33.72,0
	c4.85-0.051,9.74,0.229,14.55-0.53c5.11-1.229,9.91,1.56,14.85,2.36c0.13,1.399,0.25,2.81,0.38,4.209
	c4.06,0.061,8.11,0.061,12.17,0.041c-1.03-7.211-1.88-14.45-2.54-21.711c-0.38-7.989,0.31-15.989,1.27-23.92
	c0.28-2.89,1.32-5.779,0.84-8.689c-0.82-2.34-2.2-4.41-3.28-6.62c-3.74-7.26-5.1-15.431-6.35-23.41
	c1.17-11.319,3.59-23.31,11.46-32.03C152.51,100.43,161.56,99.17,169.4,97.37 M159.03,102.9c-6.87,1.5-11.31,7.57-14.65,13.3
	c-3.2,6.96-5.18,14.479-5.37,22.149c4.67,1.351,9.53,1.811,14.34,2.391c0.91-1.26,1.82-2.53,2.75-3.78
	c0.42,1.351,0.83,2.7,1.21,4.05c-4.53,1.59-1.39,7.82-5.55,9.811c-3,2.57-7.09,1.85-10.7,1.689c1.6,4.631,3.11,9.37,5.84,13.5
	c2.17-1.699,4.08-3.729,5.45-6.13c5.44-0.19,10.89-0.05,16.32-0.31c10.801,3.22,15.25,14.32,21.67,22.46
	c2.52-0.47,5.02-1.16,7.26-2.45c3.041-1.71,6.58-2.45,9.351-4.641c6.95-5.359,13.21-11.819,17.409-19.59
	c2.761-5.039,5.221-10.49,5.291-16.35c0.459-10.189-1.92-21.06-8.59-29.03c-8.16-8.62-20.461-11.99-32.051-11.52
	C178.82,97.99,168.73,99.93,159.03,102.9 M18.51,132.47c18.5,0.261,37,0.04,55.49,0.11c4.79,0.09,9.62-0.36,14.36,0.48
	c5.38,25.68,11.03,51.299,16.57,76.93c1.81-1.96,4.23-3.551,5.31-6.051c-4.79-25.539-9.95-51.01-15.09-76.47
	c-22.72-0.14-45.45,0.021-68.17-0.09C23.3,126.891,21.03,130.4,18.51,132.47 M17.33,135.33c0.04,4.061-0.02,8.18,1,12.14
	c8.89,0.33,17.81-0.27,26.67,0.72c10.01-0.159,20,0.711,30.02,0.471c1.23-0.18,3,0.33,3.74-0.99c2.64-3.88,4.75-8.109,6.93-12.27
	C62.9,135.2,40.11,135.35,17.33,135.33 M81.38,149.13c-0.34,1.97,0.42,3.92,0.8,5.83c3.63,14.92,6.76,29.96,10.18,44.931
	c0.64,2.869,1.02,5.84,2.16,8.569c2.38,1.16,5.1,1.181,7.69,1.51c-5.14-23.439-10.09-46.93-15.13-70.39
	C84.88,142.57,82.85,145.72,81.38,149.13 M139.39,141.27c0.14,2.4,0.28,4.801,0.38,7.2c3.17,1.64,7,2.71,10.17,0.4
	c2.37-0.851,1.76-3.59,2.02-5.56C147.78,142.53,143.52,142.311,139.39,141.27 M19.96,150.34c3.01,15.7,7.22,31.16,10.31,46.85
	c1.67-10.979,3.52-21.959,4.36-33.029c10.97-0.78,21.89,0.99,32.86,0.67c0,0.59,0.01,1.779,0.01,2.38
	c-10.08,0.851-20.06-1.08-30.14-0.62c-2.52,18.37-5.37,36.721-7.29,55.16c10.7,0.97,21.49,0.29,32.22,0.42
	c1.97-18.439,4.2-36.87,6.3-55.3c0.05-2.29,2.81-2.36,4.41-2.97c0.54,4.08,1.38,8.119,2.08,12.18c0.99,5.439-0.74,10.83-1.31,16.22
	c-0.48,6.181-1.89,12.23-2.41,18.41c6.92,0.11,13.83,0.11,20.75-0.021c-4.22-19.81-9.22-39.439-13.38-59.26
	c-7.93-0.22-15.9,0.43-23.78-0.71C43.28,150.8,31.63,150.07,19.96,150.34 M150.03,170.88c4.39,3.681,8.43,8,13.871,10.14
	c7.3,3.73,15.68,2.561,23.56,2.371c-3.76-6.811-8.34-13.381-14.33-18.371c-3.739-0.17-7.44-0.699-11.14-1.34
	c-2.97,0.311-5.88,1.221-8.9,0.83C149.65,164.2,150.38,168.66,150.03,170.88 M70.85,170.4c-2.04,15.33-3.67,30.709-5.5,46.069
	c-0.51,1.75,0.65,3.21,1.68,4.49c1.61-10.78,3.33-21.54,4.67-32.36C72.87,182.6,73.4,176.141,70.85,170.4 M148.14,172.8
	c-1.79,8.601-2.17,17.45-2.41,26.21c0.79,8.42,1.38,16.92,3.26,25.19c1.46-0.3,2.95-0.48,4.36-0.97
	c13.35-9.36,25.339-20.53,36.169-32.7c1.221-1.05,1.101-2.74,1.381-4.19c-7.98-0.47-16.2,1.19-23.971-1.26
	C159.52,183.09,153.53,178.03,148.14,172.8 M194.359,188.85c4.9,11.131,8.17,22.971,9.301,35.08c1.92-5.619,4.05-11.199,5.1-17.07
	c1.26-6.1,1.33-12.379,2.65-18.479c0.84-3.72-0.21-8.3-3.35-10.649C202.58,180.141,197.109,183.26,194.359,188.85 M211.66,205.99
	c-0.9,6.14-3.131,11.96-4.86,17.9c4.96-0.291,9.931-0.641,14.9-0.461c0.29-11.84-2.13-23.84-7.21-34.55
	C212.37,194.35,212.95,200.33,211.66,205.99 M177.05,207.05c-5.85,6.3-13.05,11.07-19.5,16.71c14.31,0.03,28.62-0.029,42.94,0.04
	c0.439-6.59-1.79-12.87-3.23-19.2c-1.02-4.539-3.039-8.75-4.59-13.109C187.34,196.55,182.529,202.13,177.05,207.05 M120.62,219.05
	c-0.06,2.54-0.06,5.091-0.05,7.64c3.42-0.01,6.84-0.109,10.26-0.17c-0.02-1.59-0.02-3.189-0.03-4.779
	C127.42,220.811,124.07,219.72,120.62,219.05 M89.94,222.439c-9.6,0.721-19.68-1.239-28.87,2.101
	c-10.84,0.03-21.69-0.101-32.53,0.06c-1.58,2.17-3.16,4.34-4.56,6.631c5.34,0.09,10.68,0.199,16.02,0.01
	c8.53-1.16,17.15-0.471,25.72-0.66c-0.17-2.12-1.16-4.27-0.54-6.38c2.78-1.42,2.2,3.46,2.71,5.09c9.19,0.09,18.38,0.16,27.56-0.06
	c-1.23-2.261-2.97-4.351-3.25-7.011c2.48,1.04,4.17,3.171,5.88,5.14c6.72,0.131,13.43,0.171,20.14-0.039
	c0.03-2.36,0.04-4.721,0.04-7.08c-7.75,0.01-15.5-0.051-23.24,0.02C93.02,220.07,91.64,221.71,89.94,222.439z"/>
<path fill="#FDFDFD" d="M159.03,102.9c9.701-2.97,19.791-4.91,29.98-4.45c11.59-0.47,23.891,2.9,32.051,11.52
	c6.67,7.97,9.049,18.841,8.59,29.03c-0.07,5.859-2.53,11.311-5.291,16.35c-4.199,7.771-10.459,14.23-17.409,19.59
	c-2.771,2.19-6.31,2.931-9.351,4.641c-2.24,1.29-4.74,1.98-7.26,2.45c-6.42-8.14-10.869-19.24-21.67-22.46
	c-1.859-0.971-3.63-2.2-5.67-2.73c-3.69,0.4-7.13,1.96-10.65,3.04c-1.37,2.4-3.28,4.431-5.45,6.13c-2.73-4.13-4.24-8.869-5.84-13.5
	c3.61,0.16,7.7,0.881,10.7-1.689c4.16-1.99,1.02-8.221,5.55-9.811c2.59-1.71,4.87-3.84,6.709-6.34c-3.35,0.13-6.529,1.18-9.319,3
	c-4.7,3.18-10.51,0.66-15.69,0.68c0.19-7.67,2.17-15.189,5.37-22.149C147.72,110.47,152.16,104.4,159.03,102.9 M167.891,143.811
	c0.67,3.02,0.799,6.689,3.639,8.6c2.57,1.4,5.561,1.99,8.471,2.23c6.029-0.41,12.82-1.971,16.32-7.421c2.209-3.18,0.8-7.149-1.25-10
	c-8.33,0.23-16.58,1.53-24.881,2.04c-1.819-0.83-3.119-2.39-4.59-3.67C163.141,138.77,167.76,140.689,167.891,143.811z"/>
<path fill="#FDFDFD" d="M18.51,132.47c2.52-2.069,4.79-5.579,8.47-5.09c22.72,0.11,45.45-0.05,68.17,0.09
	c5.14,25.46,10.3,50.931,15.09,76.47c-1.08,2.5-3.5,4.091-5.31,6.051c-5.54-25.631-11.19-51.25-16.57-76.93
	c-4.74-0.841-9.57-0.391-14.36-0.48C55.51,132.51,37.01,132.73,18.51,132.47z"/>
<path fill="#FDFDFD" d="M17.33,135.33c22.78,0.02,45.57-0.13,68.36,0.07c-2.18,4.16-4.29,8.39-6.93,12.27
	c-0.74,1.32-2.51,0.811-3.74,0.99C65,148.9,55.01,148.03,45,148.189c-8.86-0.989-17.78-0.39-26.67-0.72
	C17.31,143.51,17.37,139.391,17.33,135.33z"/>
<path fill="#DCDCDC" d="M154.7,137.67c2.79-1.82,5.97-2.87,9.319-3c-1.839,2.5-4.12,4.63-6.709,6.34
	c-0.38-1.35-0.79-2.699-1.21-4.05c-0.93,1.25-1.84,2.521-2.75,3.78c-4.81-0.58-9.67-1.04-14.34-2.391
	C144.19,138.33,150,140.85,154.7,137.67z"/>
<path fill="#3E3E3E" d="M167.891,143.811c-0.131-3.121-4.75-5.041-2.291-8.221c1.471,1.28,2.771,2.84,4.59,3.67
	c8.301-0.51,16.551-1.81,24.881-2.04c2.05,2.851,3.459,6.82,1.25,10c-3.5,5.45-10.291,7.011-16.32,7.421
	c-2.91-0.24-5.9-0.83-8.471-2.23C168.689,150.5,168.561,146.83,167.891,143.811 M177.99,141.27c-2.68,0.09-5.301,0.601-7.83,1.461
	c0.88,2.42,1.029,5.3,2.869,7.26c2.361,1.359,5.23,1.81,7.941,1.689c4.489-0.6,9.639-1.199,12.59-5.09
	c1.649-1.54,1.239-3.93,0.859-5.9C189.07,139.48,183.42,140.891,177.99,141.27z"/>
<path fill="#FDFDFD" d="M81.38,149.13c1.47-3.41,3.5-6.56,5.7-9.55c5.04,23.46,9.99,46.95,15.13,70.39
	c-2.59-0.329-5.31-0.35-7.69-1.51c-1.14-2.729-1.52-5.7-2.16-8.569c-3.42-14.971-6.55-30.011-10.18-44.931
	C81.8,153.05,81.04,151.1,81.38,149.13z"/>
<path fill="#FDFDFD" d="M177.99,141.27c5.43-0.379,11.08-1.789,16.43-0.58c0.38,1.971,0.79,4.36-0.859,5.9
	c-2.951,3.891-8.101,4.49-12.59,5.09c-2.711,0.12-5.58-0.33-7.941-1.689c-1.84-1.96-1.989-4.84-2.869-7.26
	C172.689,141.87,175.311,141.359,177.99,141.27 M173.061,144.96c-0.511,1.62,0.06,2.181,1.719,1.66
	C175.279,144.98,174.71,144.43,173.061,144.96z"/>
<path fill="#FDFDFD" d="M139.39,141.27c4.13,1.041,8.39,1.261,12.57,2.041c-0.26,1.97,0.35,4.709-2.02,5.56
	c-3.17,2.31-7,1.239-10.17-0.4C139.67,146.07,139.53,143.67,139.39,141.27 M141.75,143.87c-1.05,2.09,0.94,3.04,2.35,4.1
	c0.28-1.479,0.55-2.96,0.8-4.439C144.11,143.62,142.54,143.78,141.75,143.87z"/>
<path fill="#3E3E3E" d="M141.75,143.87c0.79-0.09,2.36-0.25,3.15-0.34c-0.25,1.479-0.52,2.96-0.8,4.439
	C142.69,146.91,140.7,145.96,141.75,143.87z"/>
<path fill="#3E3E3E" d="M173.061,144.96c1.649-0.53,2.219,0.021,1.719,1.66C173.12,147.141,172.55,146.58,173.061,144.96z"/>
<path fill="#FDFDFD" d="M19.96,150.34c11.67-0.27,23.32,0.46,34.99,0.38c7.88,1.14,15.85,0.49,23.78,0.71
	c4.16,19.82,9.16,39.45,13.38,59.26c-6.92,0.131-13.83,0.131-20.75,0.021c0.52-6.18,1.93-12.229,2.41-18.41
	c0.57-5.39,2.3-10.78,1.31-16.22c-0.7-4.061-1.54-8.1-2.08-12.18c-1.6,0.609-4.36,0.68-4.41,2.97c-2.1,18.43-4.33,36.86-6.3,55.3
	c-10.73-0.13-21.52,0.55-32.22-0.42c1.92-18.439,4.77-36.79,7.29-55.16c10.08-0.46,20.06,1.471,30.14,0.62
	c0-0.601-0.01-1.79-0.01-2.38c-10.97,0.32-21.89-1.45-32.86-0.67c-0.84,11.07-2.69,22.05-4.36,33.029
	C27.18,181.5,22.97,166.04,19.96,150.34z"/>
<path fill="#DCDCDC" d="M152.35,159.88c3.52-1.08,6.96-2.64,10.65-3.04c2.04,0.53,3.811,1.76,5.67,2.73
	C163.24,159.83,157.79,159.689,152.35,159.88z"/>
<path fill="#FDFDFD" d="M150.03,170.88c0.35-2.22-0.38-6.68,3.06-6.37c3.02,0.391,5.93-0.52,8.9-0.83
	c3.699,0.641,7.4,1.17,11.14,1.34c5.99,4.99,10.57,11.561,14.33,18.371c-7.88,0.189-16.26,1.359-23.56-2.371
	C158.46,178.88,154.42,174.561,150.03,170.88 M158.61,167.52c-0.09,0.541-0.26,1.631-0.35,2.181c3.46,0.39,6.94,0.58,10.42,0.81
	c-0.109-0.939-0.22-1.89-0.33-2.83C165.109,167.439,161.86,167.42,158.61,167.52z"/>
<path fill="#3E3E3E" d="M158.61,167.52c3.25-0.1,6.5-0.08,9.74,0.16c0.11,0.94,0.221,1.891,0.33,2.83
	c-3.479-0.229-6.959-0.42-10.42-0.81C158.35,169.15,158.52,168.061,158.61,167.52z"/>
<path fill="#FDFDFD" d="M70.85,170.4c2.55,5.74,2.02,12.199,0.85,18.199c-1.34,10.82-3.06,21.58-4.67,32.36
	c-1.03-1.28-2.19-2.74-1.68-4.49C67.18,201.109,68.81,185.73,70.85,170.4z"/>
<path fill="#DCDCDC" d="M148.14,172.8c5.39,5.23,11.38,10.29,18.79,12.28c7.771,2.45,15.99,0.79,23.971,1.26
	c-0.28,1.45-0.16,3.141-1.381,4.19c-10.83,12.17-22.819,23.34-36.169,32.7c-1.41,0.489-2.9,0.67-4.36,0.97
	c-1.88-8.271-2.47-16.771-3.26-25.19C145.97,190.25,146.35,181.4,148.14,172.8z"/>
<path fill="#DCDCDC" d="M194.359,188.85c2.75-5.59,8.221-8.709,13.701-11.119c3.14,2.35,4.189,6.93,3.35,10.649
	c-1.32,6.101-1.391,12.38-2.65,18.479c-1.05,5.871-3.18,11.451-5.1,17.07C202.529,211.82,199.26,199.98,194.359,188.85z"/>
<path fill="#DCDCDC" d="M211.66,205.99c1.29-5.66,0.71-11.641,2.83-17.11c5.08,10.71,7.5,22.71,7.21,34.55
	c-4.97-0.18-9.94,0.17-14.9,0.461C208.529,217.95,210.76,212.13,211.66,205.99z"/>
<path fill="#DCDCDC" d="M177.05,207.05c5.479-4.92,10.29-10.5,15.62-15.56c1.551,4.359,3.57,8.57,4.59,13.109
	c1.44,6.33,3.67,12.61,3.23,19.2c-14.32-0.069-28.631-0.01-42.94-0.04C164,218.12,171.2,213.35,177.05,207.05z"/>
<path fill="#FDFDFD" d="M120.62,219.05c3.45,0.67,6.8,1.761,10.18,2.69c0.01,1.59,0.01,3.189,0.03,4.779
	c-3.42,0.061-6.84,0.16-10.26,0.17C120.56,224.141,120.56,221.59,120.62,219.05z"/>
<path fill="#FDFDFD" d="M89.94,222.439c1.7-0.729,3.08-2.369,5.08-2.18c7.74-0.07,15.49-0.01,23.24-0.02
	c0,2.359-0.01,4.72-0.04,7.08c-6.71,0.21-13.42,0.17-20.14,0.039c-1.71-1.969-3.4-4.1-5.88-5.14c0.28,2.66,2.02,4.75,3.25,7.011
	c-9.18,0.22-18.37,0.149-27.56,0.06c-0.51-1.63,0.07-6.51-2.71-5.09c-0.62,2.11,0.37,4.26,0.54,6.38
	c-8.57,0.189-17.19-0.5-25.72,0.66c-5.34,0.189-10.68,0.08-16.02-0.01c1.4-2.291,2.98-4.461,4.56-6.631
	c10.84-0.16,21.69-0.029,32.53-0.06C70.26,221.2,80.34,223.16,89.94,222.439z"/>
<path fill="#FDFDFD" d="M0,225.29c8.2,0.3,16.4,0.03,24.6,0.2c-1.76,2.439-3.34,5.01-4.5,7.79c9.94,0.81,19.94,0.37,29.89,0.02
	c5.82-0.18,11.73,0.54,17.45-0.85c10.53-2.33,21.69,1.239,32-2.351c7.12-1.02,14.36,0.19,21.51-0.619
	c4.21-0.49,8.7-0.021,12.65-1.84c4.55-2.301,9.81-1.041,14.68-1.031c15.59-0.469,31.201-0.17,46.8-0.25
	c3.21-0.25,6.359,1.32,9.54,0.541c5.729-1.09,11.59-0.23,17.37-0.681c6.439-0.61,12.939-0.75,19.39-0.13
	c-20.649,3.95-41.51,6.86-62.08,11.19c-1.63,0.439-3.19,1.12-4.771,1.72H0V225.29z"/>
<path fill="#FDFDFD" d="M197.21,236.51c17.42-2.89,34.79-6.14,52.19-9.15c-0.021,3.591-0.09,7.181,0.119,10.761
	c0.51,0.13,1.541,0.399,2.061,0.53c0.42,0.09,1.26,0.26,1.68,0.35h-66.3l1.16-0.359C191.1,237.73,194.141,237.01,197.21,236.51z"/>
<path fill="#DCDCDC" d="M174.529,239c1.58-0.6,3.141-1.28,4.771-1.72c2.91,0.649,5.841,1.2,8.82,1.36L186.96,239H174.529z"/>
<path fill="#FDFDFD" d="M254.73,239c10.379-1.22,20.84-0.49,31.27-0.66c12.67-0.109,25.34,0.25,38-0.23V239H254.73z"/>
</svg>
