<?xml version="1.0" encoding="UTF-8" ?>
<!DOCTYPE svg PUBLIC "-//W3C//DTD SVG 1.1//EN" "http://www.w3.org/Graphics/SVG/1.1/DTD/svg11.dtd">
<svg width="452pt" height="607pt" viewBox="0 0 452 607" version="1.1" xmlns="http://www.w3.org/2000/svg">
<g id="#010101ff">
<path fill="#010101" opacity="1.00" d=" M 0.00 0.00 L 0.10 0.00 C 0.08 0.01 0.03 0.02 0.00 0.02 L 0.00 0.00 Z" />
<path fill="#010101" opacity="1.00" d=" M 266.86 19.68 C 268.78 18.11 270.83 16.71 272.96 15.46 C 276.04 16.66 278.60 18.78 280.96 21.04 C 282.44 21.33 283.92 21.74 284.13 23.51 C 285.64 23.39 287.57 22.61 287.98 24.76 C 289.18 23.91 291.04 21.46 292.26 23.74 C 293.58 26.54 294.41 29.55 295.77 32.34 C 297.67 33.54 299.93 33.56 302.11 33.68 C 302.72 35.12 303.33 36.55 303.94 37.99 C 306.55 38.68 308.61 40.53 308.54 43.41 C 310.09 43.14 311.67 43.20 313.20 43.56 C 313.99 47.61 314.89 51.66 316.69 55.40 C 318.63 59.36 317.83 64.63 321.47 67.66 C 321.95 74.69 323.30 81.85 321.70 88.83 C 321.34 92.65 318.96 96.09 319.48 100.00 C 319.64 104.06 321.26 107.87 321.54 111.91 C 321.88 116.34 324.88 120.38 323.93 124.91 C 322.98 132.36 322.75 140.02 320.18 147.15 C 316.76 157.14 313.66 167.23 310.25 177.22 C 308.74 182.78 302.90 185.16 298.38 187.81 C 298.53 189.55 298.60 191.30 298.65 193.05 C 303.70 198.46 309.22 203.47 315.17 207.87 C 326.08 214.68 336.52 222.28 348.06 228.00 C 349.80 231.51 345.93 234.69 345.31 238.08 C 356.49 250.02 362.83 265.34 368.70 280.35 C 371.02 287.52 372.85 294.82 374.84 302.08 C 377.28 314.03 380.85 325.75 382.34 337.89 C 384.29 353.66 387.97 369.17 389.31 385.01 C 390.30 400.99 391.92 416.98 391.31 433.01 C 390.95 440.14 388.96 447.04 388.04 454.09 C 387.26 458.10 387.78 462.21 387.27 466.26 C 386.96 467.99 387.58 469.65 388.31 471.20 C 387.99 473.52 386.26 475.66 383.71 474.57 C 381.66 472.48 382.56 469.43 382.91 466.89 C 386.28 446.09 386.07 424.95 385.26 403.96 C 383.93 392.66 383.84 381.29 383.12 369.95 C 380.92 354.61 378.74 339.26 375.89 324.02 C 370.72 305.57 368.10 286.15 359.10 268.97 C 354.96 258.90 350.00 248.80 342.08 241.14 C 339.61 246.43 334.78 250.50 333.28 256.18 C 333.27 265.96 333.84 275.77 333.55 285.57 C 333.43 286.74 333.21 287.90 332.88 289.04 C 335.13 295.24 332.95 301.81 332.46 308.13 C 331.82 319.01 328.05 329.33 325.82 339.93 C 324.99 344.68 321.85 349.60 324.24 354.36 C 322.58 355.17 320.01 355.15 320.12 352.66 C 318.09 352.23 316.92 350.64 316.21 348.81 C 310.64 343.80 303.04 342.29 296.97 338.06 C 292.88 335.10 288.46 332.62 284.58 329.38 C 277.97 324.17 270.41 320.31 263.95 314.89 C 260.92 312.26 257.27 310.45 254.38 307.65 C 250.61 304.10 246.70 300.71 242.99 297.09 C 234.64 287.54 226.20 277.90 220.18 266.64 C 219.36 265.24 218.66 263.79 217.98 262.33 C 213.48 263.64 209.10 265.69 204.30 265.54 C 204.49 263.92 204.73 262.32 205.00 260.72 C 205.55 258.45 206.50 256.27 206.61 253.92 C 206.90 243.61 206.86 233.19 204.47 223.10 C 203.83 217.75 202.63 212.46 202.37 207.07 C 189.29 211.39 175.95 215.22 163.40 221.02 C 151.20 225.43 140.17 232.33 129.28 239.26 C 123.60 243.04 120.15 249.11 117.32 255.14 C 111.83 264.02 107.32 273.56 100.75 281.75 C 97.30 287.19 93.80 292.64 89.09 297.11 C 82.79 304.77 75.47 311.49 68.50 318.52 C 65.49 321.55 61.73 323.72 58.93 326.97 C 54.36 332.26 49.83 337.82 47.38 344.47 C 44.36 352.60 40.44 360.38 38.01 368.73 C 37.03 372.32 35.50 376.21 36.90 379.90 C 38.41 383.99 39.44 388.41 42.23 391.87 C 46.07 396.75 49.49 401.94 52.78 407.20 C 56.23 412.06 59.99 416.69 63.62 421.42 C 71.25 429.18 77.68 438.00 85.00 446.03 C 90.19 452.82 96.65 458.48 102.16 464.99 C 107.18 470.23 111.22 476.39 116.94 480.94 C 115.23 480.91 113.53 480.86 111.83 480.79 C 106.20 478.07 101.60 473.30 97.22 468.84 C 89.33 460.56 82.90 451.08 75.36 442.50 C 71.19 437.76 66.15 433.71 62.92 428.21 C 61.02 424.97 58.79 421.95 56.75 418.81 C 54.27 414.77 51.32 411.04 48.25 407.44 C 43.43 400.99 37.63 395.05 34.52 387.53 C 34.15 382.12 34.04 376.65 34.55 371.25 C 35.38 366.49 35.95 361.60 38.05 357.19 C 41.29 350.37 44.40 343.49 47.31 336.53 C 49.76 329.83 54.14 324.12 59.44 319.43 C 69.08 311.66 77.93 302.86 85.76 293.26 C 91.62 287.44 96.83 280.87 100.83 273.64 L 100.90 273.53 C 102.24 271.68 103.31 269.55 105.22 268.21 C 111.81 259.90 114.83 249.48 120.77 240.79 C 124.55 235.13 130.89 232.24 136.39 228.61 C 144.41 223.41 153.22 219.66 162.04 216.07 C 169.40 212.31 177.59 210.61 184.98 206.93 C 189.44 204.73 194.70 204.41 199.01 201.96 C 199.56 196.14 204.07 191.91 207.66 187.69 C 210.36 184.35 214.22 182.29 217.48 179.58 C 217.66 176.43 217.54 173.23 216.75 170.16 C 216.56 167.14 216.73 164.06 215.86 161.12 C 215.12 156.26 214.90 151.24 213.38 146.54 C 213.01 146.24 212.27 145.63 211.89 145.33 C 211.46 147.62 211.59 150.27 209.91 152.09 C 207.96 153.28 205.81 152.04 204.51 150.51 C 204.43 148.55 204.42 146.58 204.55 144.61 C 203.24 143.86 201.95 143.09 200.66 142.32 C 197.11 136.72 196.28 130.04 194.38 123.82 C 193.90 118.65 196.75 113.96 198.01 109.08 C 198.31 106.79 200.68 105.78 201.66 103.95 C 201.19 101.86 201.52 99.83 202.77 98.07 C 200.45 96.52 201.18 93.89 202.50 91.96 C 201.22 90.58 201.11 88.66 202.89 87.66 C 202.13 87.11 201.37 86.56 200.60 86.03 C 200.27 84.33 200.78 82.71 202.32 81.79 C 201.95 80.75 200.66 79.59 201.41 78.44 C 202.19 77.44 203.30 76.79 204.28 75.99 C 203.72 75.06 203.18 74.13 202.65 73.19 C 203.63 72.20 204.58 71.20 205.54 70.19 C 203.87 69.20 203.70 66.57 205.76 65.94 C 204.63 64.82 203.93 63.49 204.23 61.85 C 205.76 61.27 207.16 60.42 208.42 59.39 C 206.65 57.14 208.24 54.96 210.46 54.04 C 210.21 51.30 211.05 48.93 213.85 48.01 C 213.50 47.22 212.80 45.64 212.44 44.85 C 213.82 42.93 215.99 42.00 218.12 41.17 C 218.72 40.38 219.31 39.59 219.91 38.79 C 221.46 38.48 223.01 38.12 224.55 37.72 C 223.92 34.64 226.50 33.42 229.14 33.40 C 229.40 31.72 229.95 30.11 230.82 28.64 C 231.62 28.85 233.22 29.29 234.02 29.51 C 234.55 28.23 235.09 26.96 235.65 25.70 C 236.02 25.44 236.75 24.93 237.12 24.67 C 238.09 25.23 239.04 25.84 240.00 26.44 C 242.34 26.23 244.56 25.11 246.95 25.37 C 248.19 21.82 252.14 22.45 255.03 23.18 C 256.10 21.95 257.17 20.72 258.25 19.50 C 259.61 20.36 260.91 21.29 262.18 22.29 C 262.91 20.77 263.65 19.22 265.00 18.14 C 265.47 18.52 266.40 19.29 266.86 19.68 M 267.22 22.50 C 266.65 22.51 265.52 22.54 264.96 22.56 C 264.04 25.50 260.42 25.01 258.85 22.94 C 258.01 23.86 257.30 24.92 256.25 25.62 C 254.08 25.62 251.93 25.32 249.77 25.22 C 249.25 26.33 248.74 27.44 248.23 28.56 C 244.46 28.31 240.69 29.17 236.97 28.25 C 236.76 29.00 236.35 30.50 236.14 31.25 C 234.80 31.81 233.40 32.20 231.99 32.50 C 231.83 34.94 229.88 36.50 227.51 36.58 C 227.58 39.65 224.62 40.68 222.10 40.97 C 220.37 43.00 217.99 44.21 215.52 45.09 C 216.35 46.30 216.82 47.67 216.61 49.14 C 215.49 49.87 214.38 50.62 213.29 51.38 C 213.33 52.53 213.36 53.68 213.40 54.84 C 212.44 55.53 211.47 56.22 210.51 56.90 C 210.68 58.34 210.75 59.80 210.59 61.25 C 209.49 61.82 208.39 62.40 207.30 62.98 C 208.95 64.34 209.31 66.60 207.43 67.96 C 208.12 69.82 208.31 72.00 206.25 73.06 C 207.36 75.54 206.67 78.18 204.07 79.24 C 204.51 79.68 205.38 80.56 205.82 80.99 C 205.22 82.43 204.27 83.65 203.29 84.84 C 204.39 85.58 205.45 86.38 206.47 87.24 C 205.83 88.15 205.20 89.07 204.55 89.98 C 205.10 90.92 205.47 91.93 205.65 93.01 C 204.95 93.78 204.25 94.55 203.57 95.33 C 205.02 96.30 206.45 98.22 204.97 99.86 C 203.20 102.05 204.93 104.80 205.60 107.08 C 207.03 108.08 208.37 109.22 209.61 110.46 C 207.40 110.89 205.15 110.57 203.08 109.73 C 202.54 110.01 201.47 110.57 200.93 110.85 C 199.48 115.48 197.33 120.12 197.84 125.09 C 198.40 129.03 198.88 133.26 201.48 136.46 C 203.60 139.11 206.36 141.98 210.07 141.73 C 213.45 142.25 215.66 139.23 216.96 136.57 L 217.93 136.28 L 217.23 135.28 C 217.79 135.15 218.89 134.90 219.44 134.78 C 219.50 135.98 219.56 137.19 219.62 138.40 L 220.27 138.49 C 221.15 148.25 223.82 157.81 226.67 167.17 C 227.84 169.61 229.18 171.97 230.63 174.26 C 232.36 176.49 234.32 178.54 236.52 180.32 C 240.01 181.87 243.26 183.93 246.90 185.15 C 249.30 186.37 251.59 187.84 254.11 188.85 C 258.31 190.81 263.00 191.28 267.41 192.63 C 270.19 193.58 273.12 192.94 275.94 192.56 C 275.59 190.61 275.25 188.67 275.03 186.71 C 276.70 187.17 276.33 189.34 277.77 190.10 C 277.65 191.26 277.53 192.42 277.39 193.58 C 279.00 192.81 280.61 192.02 282.27 191.37 C 283.65 190.15 283.37 188.42 283.33 186.80 C 283.87 186.14 284.96 184.82 285.50 184.16 C 285.87 186.63 283.44 189.37 286.16 191.18 L 286.33 189.21 C 287.11 189.26 288.69 189.35 289.48 189.40 C 289.37 188.70 289.27 188.00 289.17 187.30 C 290.19 185.83 291.39 184.48 292.91 183.51 C 293.43 183.84 294.46 184.50 294.97 184.83 C 293.07 185.20 290.09 186.44 291.65 188.87 C 291.68 185.54 296.18 187.86 295.38 184.65 C 300.72 181.96 306.92 178.95 308.77 172.73 C 312.04 163.15 316.07 153.82 318.91 144.11 C 321.02 133.03 322.43 121.02 317.60 110.43 C 315.30 105.59 315.50 100.18 315.19 94.96 C 309.27 84.17 307.29 71.86 305.15 59.90 C 304.72 57.88 302.84 56.61 300.91 56.30 C 296.94 55.41 293.12 53.59 288.99 53.73 C 280.23 54.08 271.49 54.91 262.94 56.89 C 253.59 57.53 243.67 56.63 235.04 60.99 C 229.99 63.25 226.58 68.54 226.37 74.03 C 226.18 80.21 226.20 86.40 226.12 92.57 C 224.47 95.11 221.76 96.72 220.01 99.17 C 217.34 105.34 220.19 112.33 218.01 118.61 C 216.00 113.35 216.72 107.57 216.61 102.06 C 216.66 97.61 220.53 94.84 223.38 92.02 C 224.13 83.30 221.85 73.76 226.22 65.72 C 229.60 59.30 237.08 56.78 243.79 55.59 C 251.02 53.76 258.62 55.56 265.86 53.74 C 274.42 51.64 283.28 51.22 292.06 51.43 C 295.72 51.88 299.20 53.30 302.78 54.18 C 304.87 54.53 306.07 56.37 307.32 57.88 C 309.84 70.41 311.47 83.52 318.08 94.72 C 319.45 89.27 320.92 83.55 319.75 77.93 C 319.40 75.22 319.62 72.49 319.38 69.78 C 318.28 67.86 316.53 66.21 316.34 63.89 C 315.46 57.52 311.74 52.00 311.11 45.57 C 309.58 45.63 307.76 46.75 306.41 45.54 C 305.55 44.48 305.83 42.98 305.54 41.73 C 303.00 40.87 301.16 38.96 300.39 36.40 C 297.97 35.91 294.99 35.73 293.55 33.41 C 292.23 31.15 291.46 28.64 290.45 26.25 C 289.34 27.86 286.48 28.74 285.91 26.19 C 285.54 26.53 284.80 27.21 284.43 27.55 C 284.00 27.55 283.14 27.53 282.72 27.52 C 282.27 26.31 281.80 25.11 281.35 23.90 C 277.80 23.54 276.58 19.00 273.06 18.44 C 270.98 19.59 269.13 21.11 267.22 22.50 M 215.46 142.73 C 218.09 149.52 218.45 156.86 219.63 163.98 C 220.58 172.63 221.65 181.43 220.30 190.11 C 220.33 194.92 222.63 199.37 224.55 203.68 C 225.74 207.11 227.13 210.55 229.36 213.46 C 231.84 216.73 233.63 220.50 236.50 223.48 C 242.95 230.04 248.16 238.34 256.78 242.33 C 260.99 244.13 263.60 248.05 267.17 250.74 C 271.24 253.99 275.53 257.42 277.70 262.31 C 279.31 265.77 281.04 269.17 283.08 272.41 C 286.72 272.71 290.38 272.54 293.96 271.76 C 300.03 271.04 306.16 269.55 311.37 266.22 L 311.53 266.51 C 312.68 265.45 313.87 264.43 315.09 263.45 C 311.99 255.30 308.81 246.78 302.69 240.35 C 298.74 236.03 295.94 230.80 291.80 226.65 C 292.15 228.35 292.35 230.09 292.50 231.84 C 291.81 231.84 290.43 231.83 289.74 231.83 C 289.35 231.65 288.56 231.30 288.17 231.12 C 288.21 217.67 287.73 203.61 293.31 191.05 C 288.46 194.22 282.58 194.67 277.07 195.87 C 274.09 196.58 270.99 196.62 267.96 196.29 C 256.20 194.49 246.11 187.83 235.59 182.76 C 232.34 181.05 228.92 178.98 227.33 175.51 C 223.55 168.21 220.48 160.32 220.02 152.04 C 219.68 147.70 218.49 143.45 218.67 139.07 C 217.58 140.28 216.52 141.50 215.46 142.73 M 205.53 144.61 C 205.79 146.63 206.09 148.64 206.54 150.63 C 207.43 150.60 208.32 150.56 209.21 150.51 C 209.56 148.96 209.91 147.42 210.29 145.88 C 208.69 145.50 207.09 145.10 205.53 144.61 M 206.88 196.73 C 205.90 200.94 204.06 205.20 204.91 209.59 L 204.58 209.66 L 205.05 210.71 C 205.54 214.75 206.24 218.76 206.88 222.78 C 209.11 232.70 209.42 242.94 209.15 253.07 C 208.98 256.41 207.72 259.57 207.11 262.84 C 212.25 261.70 217.29 259.94 222.21 258.08 C 227.59 256.76 232.48 253.95 237.90 252.78 C 242.99 251.97 248.54 250.73 253.15 253.81 C 257.55 256.16 262.39 257.62 266.49 260.55 C 272.45 263.44 276.46 268.84 280.81 273.62 C 276.93 268.19 275.54 261.10 270.26 256.70 C 266.02 253.27 262.05 249.51 257.89 246.01 C 250.45 242.24 244.04 236.65 239.01 230.01 C 235.24 226.06 231.60 221.95 228.85 217.20 C 225.81 213.41 223.60 209.05 222.13 204.43 C 219.22 198.63 217.08 192.16 217.63 185.60 C 213.62 188.83 209.64 192.35 206.88 196.73 M 294.90 194.63 C 292.67 203.92 291.44 213.48 291.83 223.05 C 291.68 224.66 293.53 225.35 294.56 226.17 L 294.52 226.27 C 297.43 228.49 299.16 231.78 301.35 234.65 C 303.87 238.10 307.22 240.92 309.30 244.70 C 316.20 256.56 320.44 269.78 323.64 283.05 C 326.85 301.24 325.32 319.85 322.77 338.01 C 322.86 341.88 321.00 345.35 320.29 349.04 C 320.30 350.68 321.87 348.60 321.54 347.95 C 323.37 334.90 328.68 322.46 329.73 309.24 C 330.13 305.51 330.70 301.81 331.28 298.10 C 331.69 290.08 331.17 282.06 331.16 274.04 C 330.98 267.67 330.19 261.27 330.75 254.90 C 333.43 248.00 339.36 242.83 341.73 235.75 C 342.17 233.93 343.83 232.21 343.56 230.36 C 338.06 227.77 332.59 225.00 327.76 221.27 C 322.73 217.30 316.85 214.60 311.76 210.72 C 305.67 205.85 299.93 200.58 294.90 194.63 M 220.20 261.63 C 220.86 263.55 221.89 265.30 222.96 267.02 L 223.23 266.91 C 226.73 273.42 231.24 279.30 236.00 284.93 C 239.97 289.32 243.25 294.37 247.88 298.13 C 252.00 301.70 255.59 305.91 260.18 308.91 C 263.56 311.10 266.54 313.84 269.83 316.17 C 275.36 320.03 281.22 323.43 286.52 327.62 C 289.97 330.55 294.01 332.65 297.61 335.38 C 302.99 339.29 309.67 340.87 314.99 344.86 C 313.08 338.92 311.08 332.99 308.83 327.16 C 306.49 320.85 302.21 315.55 299.41 309.47 C 297.56 306.10 296.24 302.39 293.90 299.31 C 288.43 286.65 280.07 275.31 270.00 265.91 C 264.67 261.92 258.63 259.10 252.54 256.47 C 248.88 253.92 244.25 254.33 240.07 254.98 C 233.17 256.30 226.95 259.79 220.20 261.63 M 312.91 268.43 C 304.53 273.38 294.57 274.92 284.97 274.80 C 287.92 279.64 290.23 284.82 292.92 289.81 C 301.36 287.09 310.54 284.99 317.35 278.97 C 317.90 278.79 319.00 278.43 319.55 278.25 C 318.71 274.15 317.35 270.20 316.18 266.19 C 315.08 266.93 314.00 267.68 312.91 268.43 M 317.12 281.00 C 310.45 286.48 301.79 288.93 293.54 290.92 C 297.78 300.56 302.45 310.04 307.86 319.09 C 311.30 325.14 313.34 331.84 315.63 338.38 C 316.59 340.70 317.14 343.35 319.06 345.14 C 319.99 340.12 320.12 334.99 321.21 330.03 C 321.63 326.71 321.53 323.35 322.01 320.04 C 323.03 313.63 322.40 307.12 322.61 300.66 C 322.38 300.44 321.94 299.99 321.72 299.77 L 322.80 299.80 C 322.89 292.77 321.30 285.97 320.03 279.11 C 318.84 279.35 317.99 280.23 317.12 281.00 Z" />
<path fill="#010101" opacity="1.00" d=" M 268.36 69.36 C 268.44 68.23 268.48 67.04 269.19 66.08 L 269.30 67.82 L 270.76 67.34 C 270.72 67.93 270.64 69.11 270.60 69.70 C 270.04 69.62 268.92 69.45 268.36 69.36 Z" />
<path fill="#010101" opacity="1.00" d=" M 283.82 69.46 L 284.87 69.63 C 285.28 70.96 283.61 73.95 286.14 73.75 C 286.42 72.23 286.71 70.71 286.99 69.19 C 287.61 71.19 287.54 73.29 287.44 75.35 C 286.49 75.43 285.55 75.52 284.60 75.61 C 283.80 73.65 283.72 71.55 283.82 69.46 Z" />
<path fill="#010101" opacity="1.00" d=" M 301.49 74.63 C 301.63 73.19 301.76 71.74 301.94 70.30 C 302.09 71.22 302.40 73.05 302.55 73.97 C 303.09 73.88 304.15 73.71 304.68 73.62 C 304.30 74.53 304.64 75.96 303.61 76.45 C 302.85 75.90 302.18 75.25 301.49 74.63 Z" />
<path fill="#010101" opacity="1.00" d=" M 244.27 73.53 C 244.80 73.57 245.86 73.65 246.38 73.69 C 246.78 74.33 247.57 75.62 247.97 76.26 C 246.91 76.34 245.86 76.42 244.81 76.50 C 244.63 75.51 244.45 74.52 244.27 73.53 Z" />
<path fill="#010101" opacity="1.00" d=" M 290.95 96.09 C 296.87 94.46 302.06 90.83 308.10 89.62 C 310.19 91.88 310.10 95.47 310.70 98.41 C 302.60 101.10 293.87 102.30 285.36 101.51 C 284.64 98.22 288.70 97.25 290.95 96.09 Z" />
<path fill="#010101" opacity="1.00" d=" M 238.47 92.09 C 241.49 92.64 244.34 93.79 247.30 94.60 C 254.90 96.84 262.86 97.77 270.23 100.82 C 270.26 101.33 270.33 102.37 270.37 102.88 C 259.76 100.57 248.90 101.57 238.16 100.76 C 238.26 97.87 238.30 94.98 238.47 92.09 Z" />
<path fill="#010101" opacity="1.00" d=" M 288.94 107.01 C 293.25 104.70 298.35 104.48 303.13 103.90 C 306.24 103.48 309.38 103.73 312.33 104.85 C 309.44 106.11 307.35 108.73 304.26 109.55 C 304.31 109.98 304.40 110.84 304.44 111.26 C 298.86 111.91 293.26 110.85 288.34 108.13 L 288.94 107.01 M 303.75 108.22 C 304.89 109.01 306.99 107.51 306.50 106.20 C 305.32 105.52 303.08 106.76 303.75 108.22 M 292.00 107.97 C 294.11 108.67 296.28 109.30 298.52 109.38 C 297.60 106.14 294.36 107.52 292.00 107.97 Z" />
<path fill="#010101" opacity="1.00" d=" M 238.64 109.13 C 243.80 105.88 250.23 106.57 256.05 105.89 C 260.02 106.01 264.74 105.29 267.96 108.12 C 266.60 108.26 265.24 108.44 263.89 108.65 C 261.57 110.75 259.12 113.12 255.80 113.30 C 251.35 113.10 246.57 112.58 243.02 109.60 C 241.54 109.71 240.02 109.78 238.64 109.13 M 245.45 109.01 C 246.98 110.15 248.78 110.80 250.55 111.47 C 250.60 110.43 250.65 109.39 250.69 108.34 C 248.93 108.52 247.18 108.71 245.45 109.01 M 258.24 108.19 C 257.93 109.30 257.61 110.42 257.30 111.54 C 258.82 110.50 260.39 109.54 261.96 108.57 C 260.72 108.43 259.48 108.31 258.24 108.19 Z" />
<path fill="#010101" opacity="1.00" d=" M 282.79 113.30 C 282.24 112.07 282.48 110.75 282.79 109.50 C 285.19 114.20 286.69 119.28 288.87 124.09 C 289.83 126.82 291.68 129.40 291.44 132.42 C 290.25 131.27 289.23 129.95 288.62 128.40 C 286.50 123.44 284.47 118.43 282.79 113.30 Z" />
<path fill="#010101" opacity="1.00" d=" M 202.49 122.99 C 202.11 119.30 203.95 114.73 208.30 115.16 C 208.37 115.67 208.52 116.70 208.59 117.21 L 207.67 117.40 C 207.23 117.50 206.36 117.71 205.92 117.81 C 205.23 120.71 204.33 123.85 205.54 126.75 C 206.36 128.56 207.76 130.01 208.97 131.56 C 210.16 131.31 211.35 131.06 212.55 130.81 C 212.55 131.47 212.54 132.80 212.54 133.46 C 210.60 133.67 208.65 133.69 206.71 133.63 C 204.62 130.41 201.95 127.09 202.49 122.99 Z" />
<path fill="#010101" opacity="1.00" d=" M 223.35 115.30 C 225.62 116.90 226.72 121.75 223.89 123.06 C 221.90 121.67 221.61 119.12 221.21 116.93 C 221.97 118.08 222.49 119.36 222.79 120.72 L 224.37 120.59 C 224.39 119.69 224.44 117.88 224.47 116.98 C 224.19 116.56 223.63 115.72 223.35 115.30 Z" />
<path fill="#010101" opacity="1.00" d=" M 256.30 118.21 C 258.04 117.37 259.96 116.62 261.93 116.97 C 259.81 118.64 257.38 119.81 254.76 120.42 C 255.14 119.87 255.92 118.77 256.30 118.21 Z" />
<path fill="#010101" opacity="1.00" d=" M 211.06 128.97 C 208.87 127.45 208.55 124.34 211.02 122.92 C 211.48 124.40 211.94 125.87 212.45 127.33 C 211.98 127.88 211.52 128.42 211.06 128.97 Z" />
<path fill="#010101" opacity="1.00" d=" M 244.65 158.93 C 248.82 151.68 252.97 144.42 257.06 137.12 C 257.54 137.66 258.03 138.19 258.52 138.73 C 253.46 145.90 249.37 153.78 244.75 161.28 C 244.73 160.69 244.68 159.52 244.65 158.93 Z" />
<path fill="#010101" opacity="1.00" d=" M 267.65 137.92 C 268.05 137.77 268.84 137.46 269.24 137.31 C 271.73 136.69 274.17 137.56 276.39 138.65 C 276.52 139.11 276.78 140.02 276.91 140.48 C 276.41 140.46 275.40 140.42 274.89 140.41 C 274.66 140.39 274.18 140.37 273.94 140.36 C 271.98 139.19 269.55 139.24 267.65 137.92 Z" />
<path fill="#010101" opacity="1.00" d=" M 284.60 137.72 C 286.93 137.50 289.31 137.05 291.64 137.61 L 292.70 137.88 C 292.29 138.11 291.47 138.57 291.06 138.80 C 288.84 139.52 286.50 139.69 284.19 139.83 C 284.29 139.30 284.50 138.25 284.60 137.72 Z" />
<path fill="#010101" opacity="1.00" d=" M 296.48 141.38 L 297.99 141.69 C 300.90 145.44 303.08 149.69 305.40 153.82 C 305.98 155.46 306.40 157.16 306.46 158.91 C 303.46 152.89 300.18 147.01 296.48 141.38 Z" />
<path fill="#010101" opacity="1.00" d=" M 258.77 148.86 C 265.52 143.58 274.86 143.97 282.96 144.57 C 287.21 145.26 292.43 144.98 295.30 148.81 C 298.33 152.21 301.61 156.80 300.28 161.59 C 296.11 160.79 296.17 155.06 292.82 153.03 C 283.08 150.10 272.44 150.72 262.81 153.86 C 260.17 155.69 259.07 158.96 257.81 161.77 C 256.41 161.58 254.17 161.06 254.72 159.11 C 255.32 155.51 256.61 151.83 258.77 148.86 Z" />
<path fill="#010101" opacity="1.00" d=" M 263.51 157.43 C 267.83 156.24 272.32 155.60 276.80 155.36 C 276.79 155.61 276.76 156.11 276.75 156.37 C 274.89 156.35 273.03 156.49 271.21 156.84 C 272.52 159.21 275.44 158.35 277.65 158.60 C 277.51 157.80 277.22 156.20 277.08 155.40 C 281.79 155.44 286.58 155.33 291.19 156.47 C 294.84 157.26 297.93 160.73 297.62 164.58 C 294.60 164.38 294.08 159.91 290.90 160.24 C 282.93 160.58 274.96 160.63 267.00 160.25 C 264.86 159.95 263.33 161.59 261.83 162.80 C 261.23 162.63 260.03 162.28 259.43 162.11 C 260.45 160.32 261.29 158.04 263.51 157.43 M 278.80 158.09 C 279.65 159.54 280.50 159.55 281.37 158.12 C 280.51 156.70 279.66 156.69 278.80 158.09 Z" />
<path fill="#010101" opacity="1.00" d=" M 284.80 165.82 C 286.30 164.76 288.19 163.64 289.95 164.92 C 289.63 165.15 289.00 165.60 288.68 165.83 C 284.00 169.71 277.58 170.40 271.83 168.93 C 275.88 166.87 280.83 168.31 284.80 165.82 Z" />
<path fill="#010101" opacity="1.00" d=" M 287.05 186.08 C 287.45 184.77 288.12 183.64 289.08 182.71 C 289.87 183.59 289.96 184.64 289.32 185.85 C 288.57 186.50 287.81 186.58 287.05 186.08 Z" />
<path fill="#010101" opacity="1.00" d=" M 277.47 188.72 C 279.09 188.70 280.27 187.24 281.87 187.32 C 281.87 188.33 281.84 189.34 281.76 190.35 C 280.71 190.70 279.67 191.05 278.63 191.41 C 278.34 190.74 277.76 189.39 277.47 188.72 Z" />
<path fill="#010101" opacity="1.00" d=" M 287.15 187.16 C 287.48 187.26 288.15 187.47 288.48 187.57 L 288.09 188.42 L 287.10 188.48 L 286.63 187.70 L 287.15 187.16 Z" />
<path fill="#010101" opacity="1.00" d=" M 265.47 212.26 C 267.79 211.59 268.47 214.03 269.75 215.35 C 272.28 217.43 275.44 215.58 278.21 215.18 C 278.26 215.72 278.35 216.79 278.40 217.33 C 275.09 219.16 270.00 219.94 267.40 216.56 C 266.23 215.42 265.93 213.75 265.47 212.26 Z" />
<path fill="#010101" opacity="1.00" d=" M 301.41 292.62 C 305.27 291.09 308.81 288.87 312.69 287.37 C 310.37 290.05 307.10 291.51 303.94 292.94 C 302.67 293.38 301.38 293.78 300.11 294.20 C 300.43 293.80 301.08 293.01 301.41 292.62 Z" />
<path fill="#010101" opacity="1.00" d=" M 160.08 326.88 C 160.38 325.89 162.35 323.37 162.83 325.23 C 162.46 329.64 160.87 333.82 159.76 338.08 C 164.76 353.02 170.99 367.50 176.48 382.26 C 181.67 398.90 187.47 415.43 190.77 432.59 C 192.59 441.64 193.95 450.79 195.08 459.95 C 195.65 465.36 196.11 471.04 194.31 476.27 C 193.49 477.79 191.68 477.41 190.26 477.57 L 189.94 477.59 C 183.41 466.56 174.77 457.02 167.46 446.55 C 164.10 442.81 160.58 439.16 158.15 434.72 C 151.63 423.70 142.92 413.96 137.78 402.14 C 135.73 395.73 133.55 389.37 130.68 383.27 C 129.06 380.55 131.83 378.26 133.14 376.12 C 138.24 369.26 143.32 362.21 146.12 354.03 C 148.09 347.82 151.58 342.30 154.37 336.46 C 156.45 333.38 158.47 330.25 160.08 326.88 M 154.91 348.36 C 152.27 354.04 149.62 359.74 145.78 364.73 C 142.75 370.37 138.26 375.07 135.52 380.87 C 140.03 389.90 142.10 400.00 147.26 408.73 C 153.59 418.67 160.53 428.18 167.09 437.96 C 173.26 444.27 178.60 451.38 182.92 459.08 C 184.93 461.91 186.33 465.27 188.96 467.59 L 190.37 467.63 L 189.82 466.42 C 190.58 459.90 188.77 453.44 188.28 446.95 C 185.97 430.67 181.94 414.69 176.77 399.09 C 175.29 393.37 173.68 387.68 171.59 382.15 C 170.65 380.04 170.67 377.40 168.81 375.81 C 166.70 368.09 163.37 360.74 161.32 353.00 C 159.98 349.63 158.56 346.26 158.04 342.65 C 156.99 344.54 155.94 346.44 154.91 348.36 Z" />
<path fill="#010101" opacity="1.00" d=" M 121.82 387.83 C 122.58 386.31 124.22 386.65 125.61 386.62 C 119.99 394.21 112.69 400.49 104.54 405.23 C 102.42 406.26 100.27 408.16 97.77 407.24 C 105.90 400.93 115.01 395.72 121.82 387.83 Z" />
<path fill="#010101" opacity="1.00" d=" M 112.41 406.94 C 118.69 403.69 122.60 397.56 128.12 393.42 C 128.14 393.91 128.16 394.88 128.18 395.37 C 124.27 401.06 119.02 405.90 112.70 408.79 C 112.61 408.17 112.51 407.55 112.41 406.94 Z" />
<path fill="#010101" opacity="1.00" d=" M 200.40 421.46 C 203.62 418.83 206.82 415.45 211.22 415.13 C 210.38 416.66 208.65 417.25 207.27 418.17 C 204.66 419.66 202.55 421.82 200.44 423.91 C 200.43 423.30 200.41 422.07 200.40 421.46 Z" />
<path fill="#010101" opacity="1.00" d=" M 211.57 420.94 C 211.95 421.51 212.31 422.09 212.67 422.68 C 209.33 423.63 205.99 425.05 203.58 427.66 C 202.63 427.35 202.15 425.79 203.50 425.61 C 206.25 424.43 208.74 421.73 211.98 422.76 L 211.57 420.94 Z" />
<path fill="#010101" opacity="1.00" d=" M 99.25 517.15 C 104.42 516.81 109.82 517.07 114.55 519.41 C 119.49 521.64 123.10 526.35 124.33 531.58 C 125.34 538.00 125.26 544.53 125.29 551.01 C 125.24 560.51 125.56 570.03 124.53 579.49 C 123.67 584.86 120.20 589.79 115.33 592.27 C 109.03 595.60 101.46 595.72 94.62 594.18 C 87.69 592.58 81.77 586.82 80.61 579.71 C 79.57 570.18 79.93 560.58 79.87 551.02 C 79.84 544.54 79.89 538.02 80.75 531.58 C 82.54 523.13 90.87 517.41 99.25 517.15 M 100.46 530.57 C 99.91 532.65 99.47 534.78 99.53 536.95 C 99.57 549.64 99.56 562.33 99.53 575.02 C 99.47 577.28 99.87 579.52 100.52 581.68 C 101.84 581.70 103.15 581.70 104.47 581.67 C 105.60 578.58 105.51 575.25 105.57 572.01 C 105.56 560.69 105.57 549.36 105.56 538.04 C 105.57 535.47 105.39 532.89 104.64 530.43 C 103.25 530.30 101.84 530.34 100.46 530.57 Z" />
<path fill="#010101" opacity="1.00" d=" M 135.51 521.55 C 141.25 517.09 148.92 516.68 155.90 517.21 C 161.73 517.72 167.74 519.98 171.39 524.77 C 173.35 530.00 173.40 535.62 173.44 541.13 C 167.56 541.09 161.68 541.17 155.81 541.10 C 153.69 540.00 155.31 536.86 155.11 534.98 C 154.85 533.53 154.63 532.09 154.40 530.66 C 152.77 530.24 150.49 529.71 149.49 531.54 C 147.65 535.57 148.47 541.20 152.49 543.64 C 158.53 547.77 165.05 551.42 170.15 556.77 C 174.67 561.63 174.86 568.76 174.88 575.02 C 174.78 580.03 174.70 586.00 170.53 589.51 C 164.69 594.70 156.31 595.66 148.82 594.86 C 142.54 594.20 135.66 591.41 132.73 585.44 C 130.51 579.63 130.72 573.27 130.68 567.15 C 136.90 567.16 143.12 566.96 149.32 567.29 C 149.19 571.95 148.89 576.67 149.70 581.30 C 151.72 582.01 155.19 582.40 155.68 579.59 C 156.70 575.75 156.63 571.03 154.18 567.76 C 148.20 562.31 140.78 558.68 134.94 553.08 C 130.44 548.25 129.84 541.27 130.27 535.00 C 130.40 530.14 131.43 524.69 135.51 521.55 Z" />
<path fill="#010101" opacity="1.00" d=" M 180.41 529.16 C 181.66 522.26 188.60 518.18 195.10 517.39 C 202.88 516.61 211.65 516.76 218.02 521.94 C 223.62 526.45 222.42 534.57 222.73 540.95 C 216.63 541.31 210.52 540.99 204.42 541.15 C 204.30 537.58 204.75 533.92 203.61 530.47 C 201.92 530.26 199.46 529.75 198.73 531.85 C 197.62 535.50 197.56 540.52 201.05 542.97 C 207.93 548.21 216.37 551.92 221.41 559.22 C 224.92 566.14 224.76 574.38 223.75 581.90 C 223.05 589.32 215.49 593.51 208.82 594.57 C 199.82 596.04 188.76 594.88 182.99 586.94 C 179.56 580.95 180.35 573.72 180.23 567.09 C 186.34 567.17 192.46 567.02 198.57 567.20 C 198.79 571.98 197.74 576.99 199.51 581.58 C 201.51 581.87 204.40 582.33 205.06 579.74 C 205.96 576.02 205.96 571.62 204.07 568.19 C 198.08 562.61 190.63 558.87 184.57 553.38 C 178.72 546.89 178.82 537.24 180.41 529.16 Z" />
<path fill="#010101" opacity="1.00" d=" M 32.32 519.06 C 40.21 519.08 48.11 518.91 56.00 519.02 C 61.72 519.28 68.49 520.00 72.00 525.16 C 75.47 531.17 74.30 538.43 74.56 545.07 C 74.50 550.29 74.90 556.67 70.54 560.43 C 65.23 564.52 58.16 563.87 51.86 563.80 C 51.94 573.78 51.94 583.76 51.88 593.74 C 45.36 593.75 38.83 593.82 32.31 593.72 C 32.34 568.83 32.32 543.95 32.32 519.06 M 51.88 532.12 C 51.94 538.33 51.93 544.54 51.88 550.75 C 53.89 550.62 57.03 550.94 57.57 548.38 C 58.07 543.74 58.22 538.96 57.53 534.34 C 56.92 531.85 53.79 532.44 51.88 532.12 Z" />
<path fill="#010101" opacity="1.00" d=" M 229.85 519.07 C 236.42 518.87 242.99 518.90 249.56 519.05 C 249.55 543.94 249.56 568.84 249.55 593.74 C 242.98 593.79 236.40 593.76 229.83 593.74 C 229.84 568.85 229.82 543.96 229.85 519.07 Z" />
<path fill="#010101" opacity="1.00" d=" M 257.27 518.97 C 266.84 519.06 276.44 518.62 286.00 519.39 C 290.86 519.67 295.89 521.69 298.50 526.01 C 301.94 531.94 301.86 539.28 300.94 545.87 C 300.24 550.42 295.53 552.23 291.58 553.07 C 295.92 554.12 300.74 556.39 301.81 561.18 C 303.53 568.24 302.94 575.70 302.38 582.88 C 302.08 588.32 297.66 593.11 292.10 593.25 C 280.52 594.27 268.85 593.59 257.24 593.72 C 257.24 568.80 257.19 543.89 257.27 518.97 M 276.75 532.21 C 276.92 537.58 276.88 542.97 276.79 548.35 C 278.70 548.18 280.60 547.84 282.44 547.30 C 283.12 542.77 284.05 537.96 282.24 533.57 C 281.15 531.70 278.52 532.52 276.75 532.21 M 276.77 560.11 C 276.92 566.95 276.87 573.79 276.80 580.63 C 278.72 580.60 280.58 580.13 282.37 579.44 C 282.62 578.29 282.88 577.14 283.17 576.01 C 283.07 570.90 283.94 565.60 282.13 560.70 C 280.34 560.47 278.55 560.26 276.77 560.11 Z" />
<path fill="#010101" opacity="1.00" d=" M 309.82 519.06 C 320.37 519.03 330.98 518.52 341.49 519.74 C 347.63 520.48 352.31 525.93 353.05 531.92 C 353.78 537.63 354.15 543.70 352.39 549.26 C 351.43 552.98 347.33 553.90 344.10 554.67 C 348.72 555.99 353.27 559.48 353.43 564.68 C 353.73 574.36 353.44 584.05 353.57 593.74 C 347.50 593.81 341.43 593.71 335.37 593.78 C 335.26 584.51 335.41 575.24 335.31 565.97 C 335.35 564.16 334.75 562.45 334.22 560.76 C 332.67 560.47 331.11 560.17 329.57 559.91 C 329.41 571.18 329.53 582.45 329.49 593.73 C 322.95 593.81 316.41 593.73 309.87 593.79 C 309.71 568.88 309.79 543.97 309.82 519.06 M 329.50 532.06 C 329.55 537.54 329.36 543.04 329.62 548.53 C 331.72 547.93 335.13 547.87 335.13 544.91 C 335.40 540.85 335.93 536.54 334.14 532.74 C 332.60 532.48 331.05 532.25 329.50 532.06 Z" />
<path fill="#010101" opacity="1.00" d=" M 360.37 519.07 C 366.87 518.82 373.37 519.14 379.87 518.91 C 380.03 525.26 379.83 531.62 379.98 537.98 C 380.60 552.47 379.13 567.02 380.54 581.48 C 381.84 581.68 383.16 581.80 384.48 581.83 C 384.90 580.26 385.44 578.69 385.38 577.05 C 385.40 557.72 385.36 538.39 385.40 519.06 C 391.88 518.85 398.36 519.07 404.84 518.89 C 404.89 532.25 405.42 545.62 404.93 558.98 C 404.71 566.68 405.85 574.49 404.26 582.11 C 402.31 588.37 396.73 593.33 390.26 594.46 C 382.35 595.92 373.44 595.18 366.82 590.23 C 362.42 587.00 360.32 581.41 360.54 576.07 C 360.20 557.07 360.52 538.07 360.37 519.07 Z" />
<path fill="#010101" opacity="1.00" d=" M 412.22 518.86 C 419.04 519.04 425.87 518.96 432.69 518.91 C 431.90 537.80 430.77 556.68 429.70 575.57 C 424.74 575.47 419.77 575.77 414.82 575.38 C 414.52 556.52 412.63 537.71 412.22 518.86 Z" />
<path fill="#010101" opacity="1.00" d=" M 413.43 578.92 C 419.38 578.71 425.36 578.70 431.32 578.93 C 431.26 583.84 431.22 588.75 431.34 593.66 C 425.38 593.85 419.42 593.79 413.46 593.71 C 413.49 588.78 413.52 583.85 413.43 578.92 Z" />
</g>
<g id="#ffffffff">
<path fill="#ffffff" opacity="1.00" d=" M 0.10 0.00 L 452.00 0.00 L 452.00 607.00 L 0.00 607.00 L 0.00 0.02 C 0.03 0.02 0.08 0.01 0.10 0.00 M 266.86 19.68 C 266.40 19.29 265.47 18.52 265.00 18.14 C 263.65 19.22 262.91 20.77 262.18 22.29 C 260.91 21.29 259.61 20.36 258.25 19.50 C 257.17 20.72 256.10 21.95 255.03 23.18 C 252.14 22.45 248.19 21.82 246.95 25.37 C 244.56 25.11 242.34 26.23 240.00 26.44 C 239.04 25.84 238.09 25.23 237.12 24.67 C 236.75 24.93 236.02 25.44 235.65 25.70 C 235.09 26.96 234.55 28.23 234.02 29.51 C 233.22 29.29 231.62 28.85 230.82 28.64 C 229.95 30.11 229.40 31.72 229.14 33.40 C 226.50 33.42 223.92 34.64 224.55 37.72 C 223.01 38.12 221.46 38.48 219.91 38.79 C 219.31 39.59 218.72 40.38 218.12 41.17 C 215.99 42.00 213.82 42.93 212.44 44.85 C 212.80 45.64 213.50 47.22 213.85 48.01 C 211.05 48.93 210.21 51.30 210.46 54.04 C 208.24 54.96 206.65 57.14 208.42 59.39 C 207.16 60.42 205.76 61.27 204.23 61.85 C 203.93 63.49 204.63 64.82 205.76 65.94 C 203.70 66.57 203.87 69.20 205.54 70.19 C 204.58 71.20 203.63 72.20 202.65 73.19 C 203.18 74.13 203.72 75.06 204.28 75.99 C 203.30 76.79 202.19 77.44 201.41 78.44 C 200.66 79.59 201.95 80.75 202.32 81.79 C 200.78 82.71 200.27 84.33 200.60 86.03 C 201.37 86.56 202.13 87.11 202.89 87.66 C 201.11 88.66 201.22 90.58 202.50 91.96 C 201.18 93.89 200.45 96.52 202.77 98.07 C 201.52 99.83 201.19 101.86 201.66 103.95 C 200.68 105.78 198.31 106.79 198.01 109.08 C 196.75 113.96 193.90 118.65 194.38 123.82 C 196.28 130.04 197.11 136.72 200.66 142.32 C 201.95 143.09 203.24 143.86 204.55 144.61 C 204.42 146.58 204.43 148.55 204.51 150.51 C 205.81 152.04 207.96 153.28 209.91 152.09 C 211.59 150.27 211.46 147.62 211.89 145.33 C 212.27 145.63 213.01 146.24 213.38 146.54 C 214.90 151.24 215.12 156.26 215.86 161.12 C 216.73 164.06 216.56 167.14 216.75 170.16 C 217.54 173.23 217.66 176.43 217.48 179.58 C 214.22 182.29 210.36 184.35 207.66 187.69 C 204.07 191.91 199.56 196.14 199.01 201.96 C 194.70 204.41 189.44 204.73 184.98 206.93 C 177.59 210.61 169.40 212.31 162.04 216.07 C 153.22 219.66 144.41 223.41 136.39 228.61 C 130.89 232.24 124.55 235.13 120.77 240.79 C 114.83 249.48 111.81 259.90 105.22 268.21 C 103.31 269.55 102.24 271.68 100.90 273.53 L 100.83 273.64 C 100.27 273.90 99.14 274.43 98.58 274.69 C 95.12 278.28 92.13 282.31 89.53 286.56 C 88.19 288.74 86.07 290.57 85.76 293.26 C 77.93 302.86 69.08 311.66 59.44 319.43 C 54.14 324.12 49.76 329.83 47.31 336.53 C 44.02 336.71 43.75 340.85 42.22 343.13 C 41.29 350.13 34.80 354.47 33.20 361.20 C 32.27 364.59 32.66 368.15 32.81 371.61 L 34.55 371.25 C 34.04 376.65 34.15 382.12 34.52 387.53 C 37.63 395.05 43.43 400.99 48.25 407.44 C 47.19 410.42 49.34 413.10 50.44 415.72 C 51.41 418.29 54.47 418.36 56.75 418.81 C 58.79 421.95 61.02 424.97 62.92 428.21 C 66.15 433.71 71.19 437.76 75.36 442.50 C 82.90 451.08 89.33 460.56 97.22 468.84 C 101.60 473.30 106.20 478.07 111.83 480.79 C 112.55 482.13 113.28 483.49 114.33 484.62 C 120.01 491.20 124.59 498.64 130.08 505.37 C 133.52 504.36 137.12 503.28 139.83 500.82 C 144.48 495.66 152.49 496.19 157.44 491.45 C 160.67 487.97 157.67 482.94 155.18 479.92 C 142.62 462.04 128.49 445.37 114.06 428.99 C 110.15 425.45 107.69 420.73 104.07 416.93 C 100.95 412.11 96.94 407.97 93.85 403.13 C 88.76 395.30 82.43 388.39 77.23 380.64 C 76.17 378.94 74.27 377.75 73.55 375.88 C 73.11 370.94 73.59 365.96 73.26 361.01 C 73.21 357.97 72.62 354.80 73.68 351.86 C 77.51 341.57 82.13 331.60 86.62 321.60 C 89.84 317.08 91.52 311.57 95.47 307.59 C 97.60 304.18 97.61 299.61 100.80 296.84 C 105.48 291.51 110.38 286.34 114.67 280.69 C 117.42 277.75 120.32 274.94 122.71 271.69 C 127.45 264.78 135.92 261.64 140.56 254.62 C 144.43 248.91 150.15 244.66 153.52 238.59 C 155.03 236.04 157.39 234.00 158.17 231.05 C 159.05 227.21 163.35 225.14 163.40 221.02 C 175.95 215.22 189.29 211.39 202.37 207.07 C 202.63 212.46 203.83 217.75 204.47 223.10 C 206.86 233.19 206.90 243.61 206.61 253.92 C 206.50 256.27 205.55 258.45 205.00 260.72 C 203.06 261.78 204.04 264.27 203.82 266.01 C 209.33 265.79 214.67 267.73 220.18 266.64 C 226.20 277.90 234.64 287.54 242.99 297.09 C 246.70 300.71 250.61 304.10 254.38 307.65 C 257.27 310.45 260.92 312.26 263.95 314.89 C 270.41 320.31 277.97 324.17 284.58 329.38 C 288.46 332.62 292.88 335.10 296.97 338.06 C 303.04 342.29 310.64 343.80 316.21 348.81 C 316.92 350.64 318.09 352.23 320.12 352.66 C 320.01 355.15 322.58 355.17 324.24 354.36 C 321.85 349.60 324.99 344.68 325.82 339.93 C 328.05 329.33 331.82 319.01 332.46 308.13 C 332.95 301.81 335.13 295.24 332.88 289.04 C 333.21 287.90 333.43 286.74 333.55 285.57 C 333.84 275.77 333.27 265.96 333.28 256.18 C 334.78 250.50 339.61 246.43 342.08 241.14 C 350.00 248.80 354.96 258.90 359.10 268.97 C 368.10 286.15 370.72 305.57 375.89 324.02 C 378.74 339.26 380.92 354.61 383.12 369.95 C 383.84 381.29 383.93 392.66 385.26 403.96 C 386.07 424.95 386.28 446.09 382.91 466.89 C 382.56 469.43 381.66 472.48 383.71 474.57 C 386.26 475.66 387.99 473.52 388.31 471.20 C 387.58 469.65 386.96 467.99 387.27 466.26 C 387.78 462.21 387.26 458.10 388.04 454.09 C 388.96 447.04 390.95 440.14 391.31 433.01 C 391.92 416.98 390.30 400.99 389.31 385.01 C 387.97 369.17 384.29 353.66 382.34 337.89 C 380.85 325.75 377.28 314.03 374.84 302.08 C 372.85 294.82 371.02 287.52 368.70 280.35 C 362.83 265.34 356.49 250.02 345.31 238.08 C 345.93 234.69 349.80 231.51 348.06 228.00 C 336.52 222.28 326.08 214.68 315.17 207.87 C 309.22 203.47 303.70 198.46 298.65 193.05 C 298.60 191.30 298.53 189.55 298.38 187.81 C 302.90 185.16 308.74 182.78 310.25 177.22 C 313.66 167.23 316.76 157.14 320.18 147.15 C 322.75 140.02 322.98 132.36 323.93 124.91 C 324.88 120.38 321.88 116.34 321.54 111.91 C 321.26 107.87 319.64 104.06 319.48 100.00 C 318.96 96.09 321.34 92.65 321.70 88.83 C 323.30 81.85 321.95 74.69 321.47 67.66 C 317.83 64.63 318.63 59.36 316.69 55.40 C 314.89 51.66 313.99 47.61 313.20 43.56 C 311.67 43.20 310.09 43.14 308.54 43.41 C 308.61 40.53 306.55 38.68 303.94 37.99 C 303.33 36.55 302.72 35.12 302.11 33.68 C 299.93 33.56 297.67 33.54 295.77 32.34 C 294.41 29.55 293.58 26.54 292.26 23.74 C 291.04 21.46 289.18 23.91 287.98 24.76 C 287.57 22.61 285.64 23.39 284.13 23.51 C 283.92 21.74 282.44 21.33 280.96 21.04 C 278.60 18.78 276.04 16.66 272.96 15.46 C 270.83 16.71 268.78 18.11 266.86 19.68 M 160.08 326.88 C 157.95 328.13 155.63 329.23 154.00 331.14 C 153.57 332.91 154.15 334.70 154.37 336.46 C 151.58 342.30 148.09 347.82 146.12 354.03 C 143.32 362.21 138.24 369.26 133.14 376.12 C 131.83 378.26 129.06 380.55 130.68 383.27 C 133.55 389.37 135.73 395.73 137.78 402.14 C 142.92 413.96 151.63 423.70 158.15 434.72 C 160.58 439.16 164.10 442.81 167.46 446.55 C 174.77 457.02 183.41 466.56 189.94 477.59 L 190.26 477.57 C 189.28 480.73 191.76 483.31 192.88 486.05 C 194.70 489.29 195.03 493.08 196.55 496.43 C 197.91 498.33 200.58 499.58 202.91 498.92 C 208.14 497.37 213.63 498.47 218.98 498.00 C 226.66 496.79 234.18 494.03 242.04 494.41 C 244.46 494.48 246.86 494.07 249.13 493.25 C 254.25 491.36 259.82 492.18 265.07 493.00 C 271.94 493.55 278.98 493.83 285.68 491.91 C 286.83 490.29 288.30 488.96 289.95 487.87 C 290.61 485.28 291.80 482.33 290.03 479.91 C 286.31 474.18 279.29 471.78 272.78 471.34 C 268.39 470.73 267.36 466.13 264.75 463.34 C 261.82 459.64 257.10 458.21 253.34 455.62 C 251.62 453.47 250.76 450.80 249.71 448.30 C 244.78 435.14 237.36 423.11 231.53 410.37 C 228.51 406.22 226.01 401.75 223.82 397.12 C 218.39 388.12 212.87 379.09 206.08 371.03 C 202.03 366.68 198.17 362.16 194.27 357.68 C 191.01 355.08 187.84 352.27 185.52 348.76 C 182.15 342.83 177.80 337.54 174.14 331.79 C 171.50 329.17 168.79 325.79 164.82 325.48 C 164.75 326.09 164.61 327.33 164.54 327.95 C 164.43 326.96 164.31 325.98 164.20 325.00 L 162.83 325.23 C 162.35 323.37 160.38 325.89 160.08 326.88 M 121.82 387.83 C 115.01 395.72 105.90 400.93 97.77 407.24 C 100.27 408.16 102.42 406.26 104.54 405.23 C 112.69 400.49 119.99 394.21 125.61 386.62 C 124.22 386.65 122.58 386.31 121.82 387.83 M 112.41 406.94 C 112.51 407.55 112.61 408.17 112.70 408.79 C 119.02 405.90 124.27 401.06 128.18 395.37 C 128.16 394.88 128.14 393.91 128.12 393.42 C 122.60 397.56 118.69 403.69 112.41 406.94 M 99.25 517.15 C 90.87 517.41 82.54 523.13 80.75 531.58 C 79.89 538.02 79.84 544.54 79.87 551.02 C 79.93 560.58 79.57 570.18 80.61 579.71 C 81.77 586.82 87.69 592.58 94.62 594.18 C 101.46 595.72 109.03 595.60 115.33 592.27 C 120.20 589.79 123.67 584.86 124.53 579.49 C 125.56 570.03 125.24 560.51 125.29 551.01 C 125.26 544.53 125.34 538.00 124.33 531.58 C 123.10 526.35 119.49 521.64 114.55 519.41 C 109.82 517.07 104.42 516.81 99.25 517.15 M 135.51 521.55 C 131.43 524.69 130.40 530.14 130.27 535.00 C 129.84 541.27 130.44 548.25 134.94 553.08 C 140.78 558.68 148.20 562.31 154.18 567.76 C 156.63 571.03 156.70 575.75 155.68 579.59 C 155.19 582.40 151.72 582.01 149.70 581.30 C 148.89 576.67 149.19 571.95 149.32 567.29 C 143.12 566.96 136.90 567.16 130.68 567.15 C 130.72 573.27 130.51 579.63 132.73 585.44 C 135.66 591.41 142.54 594.20 148.82 594.86 C 156.31 595.66 164.69 594.70 170.53 589.51 C 174.70 586.00 174.78 580.03 174.88 575.02 C 174.86 568.76 174.67 561.63 170.15 556.77 C 165.05 551.42 158.53 547.77 152.49 543.64 C 148.47 541.20 147.65 535.57 149.49 531.54 C 150.49 529.71 152.77 530.24 154.40 530.66 C 154.63 532.09 154.85 533.53 155.11 534.98 C 155.31 536.86 153.69 540.00 155.81 541.10 C 161.68 541.17 167.56 541.09 173.44 541.13 C 173.40 535.62 173.35 530.00 171.39 524.77 C 167.74 519.98 161.73 517.72 155.90 517.21 C 148.92 516.68 141.25 517.09 135.51 521.55 M 180.41 529.16 C 178.82 537.24 178.72 546.89 184.57 553.38 C 190.63 558.87 198.08 562.61 204.07 568.19 C 205.96 571.62 205.96 576.02 205.06 579.74 C 204.40 582.33 201.51 581.87 199.51 581.58 C 197.74 576.99 198.79 571.98 198.57 567.20 C 192.46 567.02 186.34 567.17 180.23 567.09 C 180.35 573.72 179.56 580.95 182.99 586.94 C 188.76 594.88 199.82 596.04 208.82 594.57 C 215.49 593.51 223.05 589.32 223.75 581.90 C 224.76 574.38 224.92 566.14 221.41 559.22 C 216.37 551.92 207.93 548.21 201.05 542.97 C 197.56 540.52 197.62 535.50 198.73 531.85 C 199.46 529.75 201.92 530.26 203.61 530.47 C 204.75 533.92 204.30 537.58 204.42 541.15 C 210.52 540.99 216.63 541.31 222.73 540.95 C 222.42 534.57 223.62 526.45 218.02 521.94 C 211.65 516.76 202.88 516.61 195.10 517.39 C 188.60 518.18 181.66 522.26 180.41 529.16 M 32.32 519.06 C 32.32 543.95 32.34 568.83 32.31 593.72 C 38.83 593.82 45.36 593.75 51.88 593.74 C 51.94 583.76 51.94 573.78 51.86 563.80 C 58.16 563.87 65.23 564.52 70.54 560.43 C 74.90 556.67 74.50 550.29 74.56 545.07 C 74.30 538.43 75.47 531.17 72.00 525.16 C 68.49 520.00 61.72 519.28 56.00 519.02 C 48.11 518.91 40.21 519.08 32.32 519.06 M 229.85 519.07 C 229.82 543.96 229.84 568.85 229.83 593.74 C 236.40 593.76 242.98 593.79 249.55 593.74 C 249.56 568.84 249.55 543.94 249.56 519.05 C 242.99 518.90 236.42 518.87 229.85 519.07 M 257.27 518.97 C 257.19 543.89 257.24 568.80 257.24 593.72 C 268.85 593.59 280.52 594.27 292.10 593.25 C 297.66 593.11 302.08 588.32 302.38 582.88 C 302.94 575.70 303.53 568.24 301.81 561.18 C 300.74 556.39 295.92 554.12 291.58 553.07 C 295.53 552.23 300.24 550.42 300.94 545.87 C 301.86 539.28 301.94 531.94 298.50 526.01 C 295.89 521.69 290.86 519.67 286.00 519.39 C 276.44 518.62 266.84 519.06 257.27 518.97 M 309.82 519.06 C 309.79 543.97 309.71 568.88 309.87 593.79 C 316.41 593.73 322.95 593.81 329.49 593.73 C 329.53 582.45 329.41 571.18 329.57 559.91 C 331.11 560.17 332.67 560.47 334.22 560.76 C 334.75 562.45 335.35 564.16 335.31 565.97 C 335.41 575.24 335.26 584.51 335.37 593.78 C 341.43 593.71 347.50 593.81 353.57 593.74 C 353.44 584.05 353.73 574.36 353.43 564.68 C 353.27 559.48 348.72 555.99 344.10 554.67 C 347.33 553.90 351.43 552.98 352.39 549.26 C 354.15 543.70 353.78 537.63 353.05 531.92 C 352.31 525.93 347.63 520.48 341.49 519.74 C 330.98 518.52 320.37 519.03 309.82 519.06 M 360.37 519.07 C 360.52 538.07 360.20 557.07 360.54 576.07 C 360.32 581.41 362.42 587.00 366.82 590.23 C 373.44 595.18 382.35 595.92 390.26 594.46 C 396.73 593.33 402.31 588.37 404.26 582.11 C 405.85 574.49 404.71 566.68 404.93 558.98 C 405.42 545.62 404.89 532.25 404.84 518.89 C 398.36 519.07 391.88 518.85 385.40 519.06 C 385.36 538.39 385.40 557.72 385.38 577.05 C 385.44 578.69 384.90 580.26 384.48 581.83 C 383.16 581.80 381.84 581.68 380.54 581.48 C 379.13 567.02 380.60 552.47 379.98 537.98 C 379.83 531.62 380.03 525.26 379.87 518.91 C 373.37 519.14 366.87 518.82 360.37 519.07 M 412.22 518.86 C 412.63 537.71 414.52 556.52 414.82 575.38 C 419.77 575.77 424.74 575.47 429.70 575.57 C 430.77 556.68 431.90 537.80 432.69 518.91 C 425.87 518.96 419.04 519.04 412.22 518.86 M 413.43 578.92 C 413.52 583.85 413.49 588.78 413.46 593.71 C 419.42 593.79 425.38 593.85 431.34 593.66 C 431.22 588.75 431.26 583.84 431.32 578.93 C 425.36 578.70 419.38 578.71 413.43 578.92 Z" />
<path fill="#ffffff" opacity="1.00" d=" M 267.22 22.50 C 269.13 21.11 270.98 19.59 273.06 18.44 C 276.58 19.00 277.80 23.54 281.35 23.90 C 281.80 25.11 282.27 26.31 282.72 27.52 C 283.14 27.53 284.00 27.55 284.43 27.55 C 284.80 27.21 285.54 26.53 285.91 26.19 C 286.48 28.74 289.34 27.86 290.45 26.25 C 291.46 28.64 292.23 31.15 293.55 33.41 C 294.99 35.73 297.97 35.91 300.39 36.40 C 301.16 38.96 303.00 40.87 305.54 41.73 C 305.83 42.98 305.55 44.48 306.41 45.54 C 307.76 46.75 309.58 45.63 311.11 45.57 C 311.74 52.00 315.46 57.52 316.34 63.89 C 316.53 66.21 318.28 67.86 319.38 69.78 C 319.62 72.49 319.40 75.22 319.75 77.93 C 320.92 83.55 319.45 89.27 318.08 94.72 C 311.47 83.52 309.84 70.41 307.32 57.88 C 306.07 56.37 304.87 54.53 302.78 54.18 C 299.20 53.30 295.72 51.88 292.06 51.43 C 283.28 51.22 274.42 51.64 265.86 53.74 C 258.62 55.56 251.02 53.76 243.79 55.59 C 237.08 56.78 229.60 59.30 226.22 65.72 C 221.85 73.76 224.13 83.30 223.38 92.02 C 220.53 94.84 216.66 97.61 216.61 102.06 C 216.72 107.57 216.00 113.35 218.01 118.61 C 220.19 112.33 217.34 105.34 220.01 99.17 C 221.76 96.72 224.47 95.11 226.12 92.57 C 226.20 86.40 226.18 80.21 226.37 74.03 C 226.58 68.54 229.99 63.25 235.04 60.99 C 243.67 56.63 253.59 57.53 262.94 56.89 C 271.49 54.91 280.23 54.08 288.99 53.73 C 293.12 53.59 296.94 55.41 300.91 56.30 C 302.84 56.61 304.72 57.88 305.15 59.90 C 307.29 71.86 309.27 84.17 315.19 94.96 C 315.50 100.18 315.30 105.59 317.60 110.43 C 322.43 121.02 321.02 133.03 318.91 144.11 C 316.07 153.82 312.04 163.15 308.77 172.73 C 306.92 178.95 300.72 181.96 295.38 184.65 C 296.18 187.86 291.68 185.54 291.65 188.87 C 290.09 186.44 293.07 185.20 294.97 184.83 C 294.46 184.50 293.43 183.84 292.91 183.51 C 291.39 184.48 290.19 185.83 289.17 187.30 C 289.27 188.00 289.37 188.70 289.48 189.40 C 288.69 189.35 287.11 189.26 286.33 189.21 L 286.16 191.18 C 283.44 189.37 285.87 186.63 285.50 184.16 C 284.96 184.82 283.87 186.14 283.33 186.80 C 283.37 188.42 283.65 190.15 282.27 191.37 C 280.61 192.02 279.00 192.81 277.39 193.58 C 277.53 192.42 277.65 191.26 277.77 190.10 C 276.33 189.34 276.70 187.17 275.03 186.71 C 275.25 188.67 275.59 190.61 275.94 192.56 C 273.12 192.94 270.19 193.58 267.41 192.63 C 263.00 191.28 258.31 190.81 254.11 188.85 C 251.59 187.84 249.30 186.37 246.90 185.15 C 243.26 183.93 240.01 181.87 236.52 180.32 C 234.32 178.54 232.36 176.49 230.63 174.26 C 229.18 171.97 227.84 169.61 226.67 167.17 C 223.82 157.81 221.15 148.25 220.27 138.49 L 219.62 138.40 C 219.56 137.19 219.50 135.98 219.44 134.78 C 218.89 134.90 217.79 135.15 217.23 135.28 C 216.89 134.78 216.20 133.79 215.85 133.29 C 214.75 133.33 213.64 133.38 212.54 133.46 C 212.54 132.80 212.55 131.47 212.55 130.81 L 212.48 130.53 C 212.12 130.14 211.41 129.36 211.06 128.97 C 211.52 128.42 211.98 127.88 212.45 127.33 C 211.94 125.87 211.48 124.40 211.02 122.92 C 210.55 120.74 209.06 119.06 207.67 117.40 L 208.59 117.21 C 208.52 116.70 208.37 115.67 208.30 115.16 C 203.95 114.73 202.11 119.30 202.49 122.99 C 201.95 127.09 204.62 130.41 206.71 133.63 C 208.43 137.72 213.33 138.10 216.96 136.57 C 215.66 139.23 213.45 142.25 210.07 141.73 C 206.36 141.98 203.60 139.11 201.48 136.46 C 198.88 133.26 198.40 129.03 197.84 125.09 C 197.33 120.12 199.48 115.48 200.93 110.85 C 201.47 110.57 202.54 110.01 203.08 109.73 C 205.15 110.57 207.40 110.89 209.61 110.46 C 208.37 109.22 207.03 108.08 205.60 107.08 C 204.93 104.80 203.20 102.05 204.97 99.86 C 206.45 98.22 205.02 96.30 203.57 95.33 C 204.25 94.55 204.95 93.78 205.65 93.01 C 205.47 91.93 205.10 90.92 204.55 89.98 C 205.20 89.07 205.83 88.15 206.47 87.24 C 205.45 86.38 204.39 85.58 203.29 84.84 C 204.27 83.65 205.22 82.43 205.82 80.99 C 205.38 80.56 204.51 79.68 204.07 79.24 C 206.67 78.18 207.36 75.54 206.25 73.06 C 208.31 72.00 208.12 69.82 207.43 67.96 C 209.31 66.60 208.95 64.34 207.30 62.98 C 208.39 62.40 209.49 61.82 210.59 61.25 C 210.75 59.80 210.68 58.34 210.51 56.90 C 211.47 56.22 212.44 55.53 213.40 54.84 C 213.36 53.68 213.33 52.53 213.29 51.38 C 214.38 50.62 215.49 49.87 216.61 49.14 C 216.82 47.67 216.35 46.30 215.52 45.09 C 217.99 44.21 220.37 43.00 222.10 40.97 C 224.62 40.68 227.58 39.65 227.51 36.58 C 229.88 36.50 231.83 34.94 231.99 32.50 C 233.40 32.20 234.80 31.81 236.14 31.25 C 236.35 30.50 236.76 29.00 236.97 28.25 C 240.69 29.17 244.46 28.31 248.23 28.56 C 248.74 27.44 249.25 26.33 249.77 25.22 C 251.93 25.32 254.08 25.62 256.25 25.62 C 257.30 24.92 258.01 23.86 258.85 22.94 C 260.42 25.01 264.04 25.50 264.96 22.56 C 265.52 22.54 266.65 22.51 267.22 22.50 M 268.36 69.36 C 268.92 69.45 270.04 69.62 270.60 69.70 C 270.64 69.11 270.72 67.93 270.76 67.34 L 269.30 67.82 L 269.19 66.08 C 268.48 67.04 268.44 68.23 268.36 69.36 M 283.82 69.46 C 283.72 71.55 283.80 73.65 284.60 75.61 C 285.55 75.52 286.49 75.43 287.44 75.35 C 287.54 73.29 287.61 71.19 286.99 69.19 C 286.71 70.71 286.42 72.23 286.14 73.75 C 283.61 73.95 285.28 70.96 284.87 69.63 L 283.82 69.46 M 301.49 74.63 C 302.18 75.25 302.85 75.90 303.61 76.45 C 304.64 75.96 304.30 74.53 304.68 73.62 C 304.15 73.71 303.09 73.88 302.55 73.97 C 302.40 73.05 302.09 71.22 301.94 70.30 C 301.76 71.74 301.63 73.19 301.49 74.63 M 244.27 73.53 C 244.45 74.52 244.63 75.51 244.81 76.50 C 245.86 76.42 246.91 76.34 247.97 76.26 C 247.57 75.62 246.78 74.33 246.38 73.69 C 245.86 73.65 244.80 73.57 244.27 73.53 M 233.84 73.48 C 233.82 77.70 233.74 82.49 236.87 85.77 C 237.47 85.33 238.67 84.47 239.27 84.03 C 239.38 80.04 238.20 74.66 233.84 73.48 M 290.95 96.09 C 288.70 97.25 284.64 98.22 285.36 101.51 C 293.87 102.30 302.60 101.10 310.70 98.41 C 310.10 95.47 310.19 91.88 308.10 89.62 C 302.06 90.83 296.87 94.46 290.95 96.09 M 238.47 92.09 C 238.30 94.98 238.26 97.87 238.16 100.76 C 248.90 101.57 259.76 100.57 270.37 102.88 C 270.33 102.37 270.26 101.33 270.23 100.82 C 262.86 97.77 254.90 96.84 247.30 94.60 C 244.34 93.79 241.49 92.64 238.47 92.09 M 288.94 107.01 L 288.34 108.13 C 293.26 110.85 298.86 111.91 304.44 111.26 C 304.40 110.84 304.31 109.98 304.26 109.55 C 307.35 108.73 309.44 106.11 312.33 104.85 C 309.38 103.73 306.24 103.48 303.13 103.90 C 298.35 104.48 293.25 104.70 288.94 107.01 M 238.64 109.13 C 240.02 109.78 241.54 109.71 243.02 109.60 C 246.57 112.58 251.35 113.10 255.80 113.30 C 259.12 113.12 261.57 110.75 263.89 108.65 C 265.24 108.44 266.60 108.26 267.96 108.12 C 264.74 105.29 260.02 106.01 256.05 105.89 C 250.23 106.57 243.80 105.88 238.64 109.13 M 282.79 113.30 C 284.47 118.43 286.50 123.44 288.62 128.40 C 289.23 129.95 290.25 131.27 291.44 132.42 C 291.68 129.40 289.83 126.82 288.87 124.09 C 286.69 119.28 285.19 114.20 282.79 109.50 C 282.48 110.75 282.24 112.07 282.79 113.30 M 223.35 115.30 C 223.63 115.72 224.19 116.56 224.47 116.98 C 224.44 117.88 224.39 119.69 224.37 120.59 L 222.79 120.72 C 222.49 119.36 221.97 118.08 221.21 116.93 C 221.61 119.12 221.90 121.67 223.89 123.06 C 226.72 121.75 225.62 116.90 223.35 115.30 M 256.30 118.21 C 253.35 117.56 250.29 117.81 247.51 118.99 C 248.08 120.19 248.35 121.89 249.99 122.06 C 254.93 123.05 259.95 122.07 264.43 119.88 C 263.94 118.82 263.69 115.65 261.93 116.97 C 259.96 116.62 258.04 117.37 256.30 118.21 M 295.65 115.92 C 295.66 116.75 295.68 118.40 295.69 119.22 C 298.86 119.36 302.04 119.35 305.21 119.19 C 305.19 118.35 305.16 116.66 305.15 115.82 C 301.98 115.81 298.81 115.85 295.65 115.92 M 280.00 134.80 C 276.33 134.68 272.72 135.29 269.18 136.18 L 269.24 137.31 C 268.84 137.46 268.05 137.77 267.65 137.92 C 269.55 139.24 271.98 139.19 273.94 140.36 C 274.18 140.37 274.66 140.39 274.89 140.41 L 275.49 141.90 C 279.67 142.60 284.02 142.26 288.13 141.27 C 289.53 141.06 290.66 140.19 291.06 138.80 C 291.47 138.57 292.29 138.11 292.70 137.88 L 291.64 137.61 C 291.86 136.67 292.30 134.79 292.52 133.84 C 288.28 131.71 284.32 135.15 280.00 134.80 M 244.65 158.93 C 244.68 159.52 244.73 160.69 244.75 161.28 C 249.37 153.78 253.46 145.90 258.52 138.73 C 258.03 138.19 257.54 137.66 257.06 137.12 C 252.97 144.42 248.82 151.68 244.65 158.93 M 226.97 148.35 C 228.27 148.31 229.57 148.24 230.87 148.12 C 232.36 147.08 231.97 145.15 232.25 143.61 C 231.19 143.91 230.13 144.22 229.07 144.54 C 229.05 143.82 229.01 142.39 228.98 141.67 C 225.10 141.56 225.29 146.00 226.97 148.35 M 296.48 141.38 C 300.18 147.01 303.46 152.89 306.46 158.91 C 306.40 157.16 305.98 155.46 305.40 153.82 C 303.08 149.69 300.90 145.44 297.99 141.69 L 296.48 141.38 M 258.77 148.86 C 256.61 151.83 255.32 155.51 254.72 159.11 C 254.17 161.06 256.41 161.58 257.81 161.77 C 259.07 158.96 260.17 155.69 262.81 153.86 C 272.44 150.72 283.08 150.10 292.82 153.03 C 296.17 155.06 296.11 160.79 300.28 161.59 C 301.61 156.80 298.33 152.21 295.30 148.81 C 292.43 144.98 287.21 145.26 282.96 144.57 C 274.86 143.97 265.52 143.58 258.77 148.86 M 263.51 157.43 C 261.29 158.04 260.45 160.32 259.43 162.11 C 260.03 162.28 261.23 162.63 261.83 162.80 C 263.33 161.59 264.86 159.95 267.00 160.25 C 274.96 160.63 282.93 160.58 290.90 160.24 C 294.08 159.91 294.60 164.38 297.62 164.58 C 297.93 160.73 294.84 157.26 291.19 156.47 C 286.58 155.33 281.79 155.44 277.08 155.40 C 277.22 156.20 277.51 157.80 277.65 158.60 C 275.44 158.35 272.52 159.21 271.21 156.84 C 273.03 156.49 274.89 156.35 276.75 156.37 C 276.76 156.11 276.79 155.61 276.80 155.36 C 272.32 155.60 267.83 156.24 263.51 157.43 M 284.80 165.82 C 280.83 168.31 275.88 166.87 271.83 168.93 C 272.00 168.58 272.32 167.90 272.48 167.56 C 270.97 168.20 269.42 168.76 267.84 169.21 C 267.73 171.21 267.76 173.27 268.91 175.01 C 270.29 175.10 271.68 175.22 273.07 175.34 C 272.49 176.30 271.91 177.26 271.33 178.23 C 271.55 179.18 271.78 180.14 272.01 181.10 C 277.29 182.19 282.84 180.43 286.83 176.91 C 288.00 174.40 289.58 172.13 291.39 170.05 C 290.49 168.64 289.58 167.23 288.68 165.83 C 289.00 165.60 289.63 165.15 289.95 164.92 C 288.19 163.64 286.30 164.76 284.80 165.82 M 287.05 186.08 C 287.81 186.58 288.57 186.50 289.32 185.85 C 289.96 184.64 289.87 183.59 289.08 182.71 C 288.12 183.64 287.45 184.77 287.05 186.08 M 277.47 188.72 C 277.76 189.39 278.34 190.74 278.63 191.41 C 279.67 191.05 280.71 190.70 281.76 190.35 C 281.84 189.34 281.87 188.33 281.87 187.32 C 280.27 187.24 279.09 188.70 277.47 188.72 M 287.15 187.16 L 286.63 187.70 L 287.10 188.48 L 288.09 188.42 L 288.48 187.57 C 288.15 187.47 287.48 187.26 287.15 187.16 Z" />
<path fill="#ffffff" opacity="1.00" d=" M 303.75 108.22 C 303.08 106.76 305.32 105.52 306.50 106.20 C 306.99 107.51 304.89 109.01 303.75 108.22 Z" />
<path fill="#ffffff" opacity="1.00" d=" M 292.00 107.97 C 294.36 107.52 297.60 106.14 298.52 109.38 C 296.28 109.30 294.11 108.67 292.00 107.97 Z" />
<path fill="#ffffff" opacity="1.00" d=" M 245.45 109.01 C 247.18 108.71 248.93 108.52 250.69 108.34 C 250.65 109.39 250.60 110.43 250.55 111.47 C 248.78 110.80 246.98 110.15 245.45 109.01 Z" />
<path fill="#ffffff" opacity="1.00" d=" M 258.24 108.19 C 259.48 108.31 260.72 108.43 261.96 108.57 C 260.39 109.54 258.82 110.50 257.30 111.54 C 257.61 110.42 257.93 109.30 258.24 108.19 Z" />
<path fill="#ffffff" opacity="1.00" d=" M 205.53 144.61 C 207.09 145.10 208.69 145.50 210.29 145.88 C 209.91 147.42 209.56 148.96 209.21 150.51 C 208.32 150.56 207.43 150.60 206.54 150.63 C 206.09 148.64 205.79 146.63 205.53 144.61 Z" />
<path fill="#ffffff" opacity="1.00" d=" M 235.71 200.68 C 237.31 200.15 238.93 199.05 240.68 199.38 C 248.24 201.21 255.28 204.80 262.97 206.14 C 271.19 207.76 279.61 207.30 287.93 207.08 C 288.63 214.97 286.18 222.76 287.10 230.64 L 288.17 231.12 C 288.56 231.30 289.35 231.65 289.74 231.83 C 291.49 232.77 293.12 234.02 294.12 235.78 C 299.95 245.88 305.59 256.09 311.37 266.22 C 306.16 269.55 300.03 271.04 293.96 271.76 C 290.38 272.54 286.72 272.71 283.08 272.41 C 281.04 269.17 279.31 265.77 277.70 262.31 C 275.53 257.42 271.24 253.99 267.17 250.74 C 263.60 248.05 260.99 244.13 256.78 242.33 C 248.16 238.34 242.95 230.04 236.50 223.48 C 233.63 220.50 231.84 216.73 229.36 213.46 C 227.13 210.55 225.74 207.11 224.55 203.68 C 228.41 203.31 232.18 202.28 235.71 200.68 M 265.47 212.26 C 265.93 213.75 266.23 215.42 267.40 216.56 C 270.00 219.94 275.09 219.16 278.40 217.33 C 278.35 216.79 278.26 215.72 278.21 215.18 C 275.44 215.58 272.28 217.43 269.75 215.35 C 268.47 214.03 267.79 211.59 265.47 212.26 Z" />
<path fill="#ffffff" opacity="1.00" d=" M 204.91 209.59 C 210.83 208.52 216.53 206.59 222.13 204.43 C 223.60 209.05 225.81 213.41 228.85 217.20 C 231.60 221.95 235.24 226.06 239.01 230.01 C 244.04 236.65 250.45 242.24 257.89 246.01 C 262.05 249.51 266.02 253.27 270.26 256.70 C 275.54 261.10 276.93 268.19 280.81 273.62 C 276.46 268.84 272.45 263.44 266.49 260.55 C 262.39 257.62 257.55 256.16 253.15 253.81 C 248.54 250.73 242.99 251.97 237.90 252.78 C 232.48 253.95 227.59 256.76 222.21 258.08 C 217.71 258.36 213.45 260.25 208.89 260.02 C 211.33 248.68 209.91 236.94 208.33 225.58 C 207.02 220.67 207.16 215.39 205.05 210.71 L 204.58 209.66 L 204.91 209.59 Z" />
<path fill="#ffffff" opacity="1.00" d=" M 311.76 210.72 C 316.85 214.60 322.73 217.30 327.76 221.27 C 332.59 225.00 338.06 227.77 343.56 230.36 C 343.83 232.21 342.17 233.93 341.73 235.75 C 339.36 242.83 333.43 248.00 330.75 254.90 C 330.19 261.27 330.98 267.67 331.16 274.04 C 331.17 282.06 331.69 290.08 331.28 298.10 C 330.70 301.81 330.13 305.51 329.73 309.24 C 328.68 322.46 323.37 334.90 321.54 347.95 C 321.87 348.60 320.30 350.68 320.29 349.04 C 321.00 345.35 322.86 341.88 322.77 338.01 C 325.32 319.85 326.85 301.24 323.64 283.05 C 320.44 269.78 316.20 256.56 309.30 244.70 C 307.22 240.92 303.87 238.10 301.35 234.65 C 299.16 231.78 297.43 228.49 294.52 226.27 L 294.56 226.17 C 296.47 222.93 296.31 218.74 298.98 215.92 C 301.56 212.71 306.07 213.29 309.72 212.80 C 310.23 212.28 311.25 211.24 311.76 210.72 Z" />
<path fill="#ffffff" opacity="1.00" d=" M 223.23 266.91 C 230.16 264.44 237.33 260.93 244.90 262.37 C 247.58 263.26 249.97 264.94 252.81 265.41 C 257.57 266.29 262.19 268.02 266.13 270.86 C 277.05 278.57 285.42 289.15 293.90 299.31 C 296.24 302.39 297.56 306.10 299.41 309.47 C 302.21 315.55 306.49 320.85 308.83 327.16 C 311.08 332.99 313.08 338.92 314.99 344.86 C 309.67 340.87 302.99 339.29 297.61 335.38 C 294.01 332.65 289.97 330.55 286.52 327.62 C 281.22 323.43 275.36 320.03 269.83 316.17 C 266.54 313.84 263.56 311.10 260.18 308.91 C 255.59 305.91 252.00 301.70 247.88 298.13 C 243.25 294.37 239.97 289.32 236.00 284.93 C 231.24 279.30 226.73 273.42 223.23 266.91 Z" />
<path fill="#ffffff" opacity="1.00" d=" M 284.97 274.80 C 294.57 274.92 304.53 273.38 312.91 268.43 C 314.20 272.02 315.71 275.53 317.35 278.97 C 310.54 284.99 301.36 287.09 292.92 289.81 C 290.23 284.82 287.92 279.64 284.97 274.80 Z" />
<path fill="#ffffff" opacity="1.00" d=" M 293.54 290.92 C 301.79 288.93 310.45 286.48 317.12 281.00 C 320.51 286.69 319.82 293.61 321.72 299.77 C 321.94 299.99 322.38 300.44 322.61 300.66 C 322.40 307.12 323.03 313.63 322.01 320.04 C 321.53 323.35 321.63 326.71 321.21 330.03 C 320.12 334.99 319.99 340.12 319.06 345.14 C 317.14 343.35 316.59 340.70 315.63 338.38 C 313.34 331.84 311.30 325.14 307.86 319.09 C 302.45 310.04 297.78 300.56 293.54 290.92 M 301.41 292.62 C 301.08 293.01 300.43 293.80 300.11 294.20 C 301.38 293.78 302.67 293.38 303.94 292.94 C 307.10 291.51 310.37 290.05 312.69 287.37 C 308.81 288.87 305.27 291.09 301.41 292.62 Z" />
<path fill="#ffffff" opacity="1.00" d=" M 154.91 348.36 C 155.74 349.46 156.56 350.58 157.38 351.70 C 157.83 351.60 158.73 351.39 159.18 351.29 C 159.89 351.85 160.60 352.42 161.32 353.00 C 163.37 360.74 166.70 368.09 168.81 375.81 C 170.62 384.67 174.43 393.01 176.15 401.91 C 176.76 405.39 178.62 408.49 179.25 411.97 C 180.54 421.37 183.37 430.49 184.31 439.96 C 185.96 448.80 185.65 458.20 189.82 466.42 L 190.37 467.63 L 188.96 467.59 C 186.33 465.27 184.93 461.91 182.92 459.08 C 178.60 451.38 173.26 444.27 167.09 437.96 C 160.53 428.18 153.59 418.67 147.26 408.73 C 142.10 400.00 140.03 389.90 135.52 380.87 C 138.26 375.07 142.75 370.37 145.78 364.73 C 149.62 359.74 152.27 354.04 154.91 348.36 Z" />
<path fill="#ffffff" opacity="1.00" d=" M 100.46 530.57 C 101.84 530.34 103.25 530.30 104.64 530.43 C 105.39 532.89 105.57 535.47 105.56 538.04 C 105.57 549.36 105.56 560.69 105.57 572.01 C 105.51 575.25 105.60 578.58 104.47 581.67 C 103.15 581.70 101.84 581.70 100.52 581.68 C 99.87 579.52 99.47 577.28 99.53 575.02 C 99.56 562.33 99.57 549.64 99.53 536.95 C 99.47 534.78 99.91 532.65 100.46 530.57 Z" />
<path fill="#ffffff" opacity="1.00" d=" M 51.88 532.12 C 53.79 532.44 56.92 531.85 57.53 534.34 C 58.22 538.96 58.07 543.74 57.57 548.38 C 57.03 550.94 53.89 550.62 51.88 550.75 C 51.93 544.54 51.94 538.33 51.88 532.12 Z" />
<path fill="#ffffff" opacity="1.00" d=" M 329.50 532.06 C 331.05 532.25 332.60 532.48 334.14 532.74 C 335.93 536.54 335.40 540.85 335.13 544.91 C 335.13 547.87 331.72 547.93 329.62 548.53 C 329.36 543.04 329.55 537.54 329.50 532.06 Z" />
<path fill="#ffffff" opacity="1.00" d=" M 276.75 532.21 C 278.52 532.52 281.15 531.70 282.24 533.57 C 284.05 537.96 283.12 542.77 282.44 547.30 C 280.60 547.84 278.70 548.18 276.79 548.35 C 276.88 542.97 276.92 537.58 276.75 532.21 Z" />
<path fill="#ffffff" opacity="1.00" d=" M 276.77 560.11 C 278.55 560.26 280.34 560.47 282.13 560.70 C 283.94 565.60 283.07 570.90 283.17 576.01 C 282.88 577.14 282.62 578.29 282.37 579.44 C 280.58 580.13 278.72 580.60 276.80 580.63 C 276.87 573.79 276.92 566.95 276.77 560.11 Z" />
</g>
<g id="#c2c2c2ff">
<path fill="#c2c2c2" opacity="1.00" d=" M 233.84 73.48 C 238.20 74.66 239.38 80.04 239.27 84.03 C 238.67 84.47 237.47 85.33 236.87 85.77 C 233.74 82.49 233.82 77.70 233.84 73.48 Z" />
<path fill="#c2c2c2" opacity="1.00" d=" M 295.65 115.92 C 298.81 115.85 301.98 115.81 305.15 115.82 C 305.16 116.66 305.19 118.35 305.21 119.19 C 302.04 119.35 298.86 119.36 295.69 119.22 C 295.68 118.40 295.66 116.75 295.65 115.92 Z" />
<path fill="#c2c2c2" opacity="1.00" d=" M 261.93 116.97 C 263.69 115.65 263.94 118.82 264.43 119.88 C 259.95 122.07 254.93 123.05 249.99 122.06 C 248.35 121.89 248.08 120.19 247.51 118.99 C 250.29 117.81 253.35 117.56 256.30 118.21 C 255.92 118.77 255.14 119.87 254.76 120.42 C 257.38 119.81 259.81 118.64 261.93 116.97 Z" />
<path fill="#c2c2c2" opacity="1.00" d=" M 205.54 126.75 C 204.33 123.85 205.23 120.71 205.92 117.81 C 206.36 117.71 207.23 117.50 207.67 117.40 C 209.06 119.06 210.55 120.74 211.02 122.92 C 208.55 124.34 208.87 127.45 211.06 128.97 C 211.41 129.36 212.12 130.14 212.48 130.53 L 212.55 130.81 C 211.35 131.06 210.16 131.31 208.97 131.56 C 207.76 130.01 206.36 128.56 205.54 126.75 Z" />
<path fill="#c2c2c2" opacity="1.00" d=" M 206.71 133.63 C 208.65 133.69 210.60 133.67 212.54 133.46 C 213.64 133.38 214.75 133.33 215.85 133.29 C 216.20 133.79 216.89 134.78 217.23 135.28 L 217.93 136.28 L 216.96 136.57 C 213.33 138.10 208.43 137.72 206.71 133.63 Z" />
<path fill="#c2c2c2" opacity="1.00" d=" M 280.00 134.80 C 284.32 135.15 288.28 131.71 292.52 133.84 C 292.30 134.79 291.86 136.67 291.64 137.61 C 289.31 137.05 286.93 137.50 284.60 137.72 C 284.50 138.25 284.29 139.30 284.19 139.83 C 286.50 139.69 288.84 139.52 291.06 138.80 C 290.66 140.19 289.53 141.06 288.13 141.27 C 284.02 142.26 279.67 142.60 275.49 141.90 L 274.89 140.41 C 275.40 140.42 276.41 140.46 276.91 140.48 C 276.78 140.02 276.52 139.11 276.39 138.65 C 274.17 137.56 271.73 136.69 269.24 137.31 L 269.18 136.18 C 272.72 135.29 276.33 134.68 280.00 134.80 Z" />
<path fill="#c2c2c2" opacity="1.00" d=" M 215.46 142.73 C 216.52 141.50 217.58 140.28 218.67 139.07 C 218.49 143.45 219.68 147.70 220.02 152.04 C 220.48 160.32 223.55 168.21 227.33 175.51 C 228.92 178.98 232.34 181.05 235.59 182.76 C 246.11 187.83 256.20 194.49 267.96 196.29 C 270.99 196.62 274.09 196.58 277.07 195.87 C 282.58 194.67 288.46 194.22 293.31 191.05 C 287.73 203.61 288.21 217.67 288.17 231.12 L 287.10 230.64 C 286.18 222.76 288.63 214.97 287.93 207.08 C 279.61 207.30 271.19 207.76 262.97 206.14 C 255.28 204.80 248.24 201.21 240.68 199.38 C 238.93 199.05 237.31 200.15 235.71 200.68 C 232.18 202.28 228.41 203.31 224.55 203.68 C 222.63 199.37 220.33 194.92 220.30 190.11 C 221.65 181.43 220.58 172.63 219.63 163.98 C 218.45 156.86 218.09 149.52 215.46 142.73 Z" />
<path fill="#c2c2c2" opacity="1.00" d=" M 226.97 148.35 C 225.29 146.00 225.10 141.56 228.98 141.67 C 229.01 142.39 229.05 143.82 229.07 144.54 C 230.13 144.22 231.19 143.91 232.25 143.61 C 231.97 145.15 232.36 147.08 230.87 148.12 C 229.57 148.24 228.27 148.31 226.97 148.35 Z" />
<path fill="#c2c2c2" opacity="1.00" d=" M 278.80 158.09 C 279.66 156.69 280.51 156.70 281.37 158.12 C 280.50 159.55 279.65 159.54 278.80 158.09 Z" />
<path fill="#c2c2c2" opacity="1.00" d=" M 271.83 168.93 C 277.58 170.40 284.00 169.71 288.68 165.83 C 289.58 167.23 290.49 168.64 291.39 170.05 C 289.58 172.13 288.00 174.40 286.83 176.91 C 282.84 180.43 277.29 182.19 272.01 181.10 C 271.78 180.14 271.55 179.18 271.33 178.23 C 271.91 177.26 272.49 176.30 273.07 175.34 C 271.68 175.22 270.29 175.10 268.91 175.01 C 267.76 173.27 267.73 171.21 267.84 169.21 C 269.42 168.76 270.97 168.20 272.48 167.56 C 272.32 167.90 272.00 168.58 271.83 168.93 Z" />
<path fill="#c2c2c2" opacity="1.00" d=" M 206.88 196.73 C 209.64 192.35 213.62 188.83 217.63 185.60 C 217.08 192.16 219.22 198.63 222.13 204.43 C 216.53 206.59 210.83 208.52 204.91 209.59 C 204.06 205.20 205.90 200.94 206.88 196.73 Z" />
<path fill="#c2c2c2" opacity="1.00" d=" M 294.90 194.63 C 299.93 200.58 305.67 205.85 311.76 210.72 C 311.25 211.24 310.23 212.28 309.72 212.80 C 306.07 213.29 301.56 212.71 298.98 215.92 C 296.31 218.74 296.47 222.93 294.56 226.17 C 293.53 225.35 291.68 224.66 291.83 223.05 C 291.44 213.48 292.67 203.92 294.90 194.63 Z" />
<path fill="#c2c2c2" opacity="1.00" d=" M 205.05 210.71 C 207.16 215.39 207.02 220.67 208.33 225.58 C 209.91 236.94 211.33 248.68 208.89 260.02 C 213.45 260.25 217.71 258.36 222.21 258.08 C 217.29 259.94 212.25 261.70 207.11 262.84 C 207.72 259.57 208.98 256.41 209.15 253.07 C 209.42 242.94 209.11 232.70 206.88 222.78 C 206.24 218.76 205.54 214.75 205.05 210.71 Z" />
<path fill="#c2c2c2" opacity="1.00" d=" M 129.28 239.26 C 140.17 232.33 151.20 225.43 163.40 221.02 C 163.35 225.14 159.05 227.21 158.17 231.05 C 157.39 234.00 155.03 236.04 153.52 238.59 C 150.15 244.66 144.43 248.91 140.56 254.62 C 135.92 261.64 127.45 264.78 122.71 271.69 C 120.32 274.94 117.42 277.75 114.67 280.69 C 110.38 286.34 105.48 291.51 100.80 296.84 C 97.61 299.61 97.60 304.18 95.47 307.59 C 91.52 311.57 89.84 317.08 86.62 321.60 C 82.13 331.60 77.51 341.57 73.68 351.86 C 72.62 354.80 73.21 357.97 73.26 361.01 C 73.59 365.96 73.11 370.94 73.55 375.88 C 74.27 377.75 76.17 378.94 77.23 380.64 C 82.43 388.39 88.76 395.30 93.85 403.13 C 96.94 407.97 100.95 412.11 104.07 416.93 C 107.69 420.73 110.15 425.45 114.06 428.99 C 128.49 445.37 142.62 462.04 155.18 479.92 C 157.67 482.94 160.67 487.97 157.44 491.45 C 152.49 496.19 144.48 495.66 139.83 500.82 C 137.12 503.28 133.52 504.36 130.08 505.37 C 124.59 498.64 120.01 491.20 114.33 484.62 C 113.28 483.49 112.55 482.13 111.83 480.79 C 113.53 480.86 115.23 480.91 116.94 480.94 C 111.22 476.39 107.18 470.23 102.16 464.99 C 96.65 458.48 90.19 452.82 85.00 446.03 C 77.68 438.00 71.25 429.18 63.62 421.42 C 59.99 416.69 56.23 412.06 52.78 407.20 C 49.49 401.94 46.07 396.75 42.23 391.87 C 39.44 388.41 38.41 383.99 36.90 379.90 C 35.50 376.21 37.03 372.32 38.01 368.73 C 40.44 360.38 44.36 352.60 47.38 344.47 C 49.83 337.82 54.36 332.26 58.93 326.97 C 61.73 323.72 65.49 321.55 68.50 318.52 C 75.47 311.49 82.79 304.77 89.09 297.11 C 93.80 292.64 97.30 287.19 100.75 281.75 C 107.32 273.56 111.83 264.02 117.32 255.14 C 120.15 249.11 123.60 243.04 129.28 239.26 Z" />
<path fill="#c2c2c2" opacity="1.00" d=" M 291.80 226.65 C 295.94 230.80 298.74 236.03 302.69 240.35 C 308.81 246.78 311.99 255.30 315.09 263.45 C 313.87 264.43 312.68 265.45 311.53 266.51 L 311.37 266.22 C 305.59 256.09 299.95 245.88 294.12 235.78 C 293.12 234.02 291.49 232.77 289.74 231.83 C 290.43 231.83 291.81 231.84 292.50 231.84 C 292.35 230.09 292.15 228.35 291.80 226.65 Z" />
<path fill="#c2c2c2" opacity="1.00" d=" M 220.20 261.63 C 226.95 259.79 233.17 256.30 240.07 254.98 C 244.25 254.33 248.88 253.92 252.54 256.47 C 258.63 259.10 264.67 261.92 270.00 265.91 C 280.07 275.31 288.43 286.65 293.90 299.31 C 285.42 289.15 277.05 278.57 266.13 270.86 C 262.19 268.02 257.57 266.29 252.81 265.41 C 249.97 264.94 247.58 263.26 244.90 262.37 C 237.33 260.93 230.16 264.44 223.23 266.91 L 222.96 267.02 C 221.89 265.30 220.86 263.55 220.20 261.63 Z" />
<path fill="#c2c2c2" opacity="1.00" d=" M 203.82 266.01 C 204.04 264.27 203.06 261.78 205.00 260.72 C 204.73 262.32 204.49 263.92 204.30 265.54 C 209.10 265.69 213.48 263.64 217.98 262.33 C 218.66 263.79 219.36 265.24 220.18 266.64 C 214.67 267.73 209.33 265.79 203.82 266.01 Z" />
<path fill="#c2c2c2" opacity="1.00" d=" M 312.91 268.43 C 314.00 267.68 315.08 266.93 316.18 266.19 C 317.35 270.20 318.71 274.15 319.55 278.25 C 319.00 278.43 317.90 278.79 317.35 278.97 C 315.71 275.53 314.20 272.02 312.91 268.43 Z" />
<path fill="#c2c2c2" opacity="1.00" d=" M 98.58 274.69 C 99.14 274.43 100.27 273.90 100.83 273.64 C 96.83 280.87 91.62 287.44 85.76 293.26 C 86.07 290.57 88.19 288.74 89.53 286.56 C 92.13 282.31 95.12 278.28 98.58 274.69 Z" />
<path fill="#c2c2c2" opacity="1.00" d=" M 317.12 281.00 C 317.99 280.23 318.84 279.35 320.03 279.11 C 321.30 285.97 322.89 292.77 322.80 299.80 L 321.72 299.77 C 319.82 293.61 320.51 286.69 317.12 281.00 Z" />
<path fill="#c2c2c2" opacity="1.00" d=" M 162.83 325.23 L 164.20 325.00 C 164.31 325.98 164.43 326.96 164.54 327.95 C 164.61 327.33 164.75 326.09 164.82 325.48 C 168.79 325.79 171.50 329.17 174.14 331.79 C 177.80 337.54 182.15 342.83 185.52 348.76 C 187.84 352.27 191.01 355.08 194.27 357.68 C 198.17 362.16 202.03 366.68 206.08 371.03 C 212.87 379.09 218.39 388.12 223.82 397.12 C 226.01 401.75 228.51 406.22 231.53 410.37 C 237.36 423.11 244.78 435.14 249.71 448.30 C 250.76 450.80 251.62 453.47 253.34 455.62 C 257.10 458.21 261.82 459.64 264.75 463.34 C 267.36 466.13 268.39 470.73 272.78 471.34 C 279.29 471.78 286.31 474.18 290.03 479.91 C 291.80 482.33 290.61 485.28 289.95 487.87 C 288.30 488.96 286.83 490.29 285.68 491.91 C 278.98 493.83 271.94 493.55 265.07 493.00 C 259.82 492.18 254.25 491.36 249.13 493.25 C 246.86 494.07 244.46 494.48 242.04 494.41 C 234.18 494.03 226.66 496.79 218.98 498.00 C 213.63 498.47 208.14 497.37 202.91 498.92 C 200.58 499.58 197.91 498.33 196.55 496.43 C 195.03 493.08 194.70 489.29 192.88 486.05 C 191.76 483.31 189.28 480.73 190.26 477.57 C 191.68 477.41 193.49 477.79 194.31 476.27 C 196.11 471.04 195.65 465.36 195.08 459.95 C 193.95 450.79 192.59 441.64 190.77 432.59 C 187.47 415.43 181.67 398.90 176.48 382.26 C 170.99 367.50 164.76 353.02 159.76 338.08 C 160.87 333.82 162.46 329.64 162.83 325.23 M 200.40 421.46 C 200.41 422.07 200.43 423.30 200.44 423.91 C 202.55 421.82 204.66 419.66 207.27 418.17 C 208.65 417.25 210.38 416.66 211.22 415.13 C 206.82 415.45 203.62 418.83 200.40 421.46 M 211.57 420.94 L 211.98 422.76 C 208.74 421.73 206.25 424.43 203.50 425.61 C 202.15 425.79 202.63 427.35 203.58 427.66 C 205.99 425.05 209.33 423.63 212.67 422.68 C 212.31 422.09 211.95 421.51 211.57 420.94 Z" />
<path fill="#c2c2c2" opacity="1.00" d=" M 154.00 331.14 C 155.63 329.23 157.95 328.13 160.08 326.88 C 158.47 330.25 156.45 333.38 154.37 336.46 C 154.15 334.70 153.57 332.91 154.00 331.14 Z" />
<path fill="#c2c2c2" opacity="1.00" d=" M 42.22 343.13 C 43.75 340.85 44.02 336.71 47.31 336.53 C 44.40 343.49 41.29 350.37 38.05 357.19 C 35.95 361.60 35.38 366.49 34.55 371.25 L 32.81 371.61 C 32.66 368.15 32.27 364.59 33.20 361.20 C 34.80 354.47 41.29 350.13 42.22 343.13 Z" />
<path fill="#c2c2c2" opacity="1.00" d=" M 154.91 348.36 C 155.94 346.44 156.99 344.54 158.04 342.65 C 158.56 346.26 159.98 349.63 161.32 353.00 C 160.60 352.42 159.89 351.85 159.18 351.29 C 158.73 351.39 157.83 351.60 157.38 351.70 C 156.56 350.58 155.74 349.46 154.91 348.36 Z" />
<path fill="#c2c2c2" opacity="1.00" d=" M 168.81 375.81 C 170.67 377.40 170.65 380.04 171.59 382.15 C 173.68 387.68 175.29 393.37 176.77 399.09 C 181.94 414.69 185.97 430.67 188.28 446.95 C 188.77 453.44 190.58 459.90 189.82 466.42 C 185.65 458.20 185.96 448.80 184.31 439.96 C 183.37 430.49 180.54 421.37 179.25 411.97 C 178.62 408.49 176.76 405.39 176.15 401.91 C 174.43 393.01 170.62 384.67 168.81 375.81 Z" />
<path fill="#c2c2c2" opacity="1.00" d=" M 48.25 407.44 C 51.32 411.04 54.27 414.77 56.75 418.81 C 54.47 418.36 51.41 418.29 50.44 415.72 C 49.34 413.10 47.19 410.42 48.25 407.44 Z" />
</g>
</svg>
