<?xml version="1.0" encoding="utf-8"?>
<!-- Generator: Adobe Illustrator 15.0.2, SVG Export Plug-In . SVG Version: 6.00 Build 0)  -->
<!DOCTYPE svg PUBLIC "-//W3C//DTD SVG 1.1//EN" "http://www.w3.org/Graphics/SVG/1.1/DTD/svg11.dtd">
<svg version="1.1" id="Layer_1" xmlns="http://www.w3.org/2000/svg" xmlns:xlink="http://www.w3.org/1999/xlink" x="0px" y="0px"
	 width="190px" height="207px" viewBox="0 0 190 207" enable-background="new 0 0 190 207" xml:space="preserve">
<path fill="#FFFFFF" d="M0,0h190v151.99c-0.5,0.01-1.5,0.01-2,0.01c0,3.01,0,6.01,0,9.02l-1-0.02
	c-0.1-15.95,0.141-31.92-0.08-47.859c-0.199-0.44-0.6-1.311-0.8-1.75c0.05-5.671-0.399-11.291-1.47-16.851l-0.601-0.92
	c-0.09-0.49-0.271-1.47-0.36-1.96c-1.41-5.2-4.979-9.76-5.149-15.24c-3.069-3.32-5.96-6.86-8.11-10.85
	c-2.39-4.12-3.34-8.85-5.359-13.13c-0.07-2.17-0.1-4.34-0.141-6.5c-5.39-6.7-9.959-14-14.77-21.09c-4.439-4.89-9.33-9.36-13.9-14.13
	c-1.71-2.09-4.74-2.86-5.67-5.57c0.98-0.1,2.95-0.29,3.93-0.39c-2.939-3.01-7.449-0.81-10.93-2.42c-2.83-2.06-6.33-1.74-9.58-1.23
	C101.15,1.28,88.4,3.76,76.08,7.33c-4.07,0.36-7.5,2.77-11.5,3.32c-4.45,0.71-8.35,3.16-12.7,4.24c-2.8,3.48-5.27,7.3-8.74,10.2
	c-3.88,4.43-6.46,10.46-11.92,13.25c-2.21-1.25-4.73-1.47-7.22-1.43c0,0.52,0,1.54,0,2.05c0.61,0.04,1.84,0.12,2.45,0.16
	c0.63,0.3,1.89,0.91,2.53,1.21l0.04,0.7c-1.47-0.04-2.94-0.08-4.41-0.15c-4.09-2.29-8.87-0.26-12.87,1.27
	c4.73,1.16,9.62,0.85,14.44,0.81c-0.62,1.19-1.23,2.38-1.85,3.57c-4.01,4.43-6.02,10.54-11.31,13.8c-0.21-2.43-0.31-4.87-0.54-7.3
	c-1.24-0.28-2.54,0.91-2.44,2.16c-0.19,4.09,0.09,8.2-0.1,12.3c-1.64,2.7-3.01,5.58-4.89,8.14C5.01,77.31,5,78.99,5,80.67
	c1.2,0.67,2.39,1.35,3.57,2.05c-1.61,3.61-1.92,7.87-5.11,10.61c0.59,12.48,0.4,25.04-0.46,37.51c-0.79-8.92-0.47-17.89-0.56-26.84
	c-0.16-8.82,1.5-17.75,0.07-26.51C1.66,76.43,0.82,75.38,0,74.3V0z"/>
<path fill="#050505" d="M76.08,7.33c12.32-3.57,25.07-6.05,37.93-6.22c3.25-0.51,6.75-0.83,9.58,1.23
	c3.48,1.61,7.99-0.59,10.93,2.42c-0.979,0.1-2.949,0.29-3.93,0.39c0.93,2.71,3.96,3.48,5.67,5.57c4.57,4.771,9.461,9.24,13.9,14.13
	c4.811,7.09,9.38,14.39,14.77,21.09c0.041,2.16,0.07,4.33,0.141,6.5c2.02,4.28,2.97,9.01,5.359,13.13
	c2.15,3.99,5.041,7.53,8.11,10.85c0.17,5.48,3.739,10.04,5.149,15.24c0.09,0.49,0.271,1.47,0.36,1.96l0.601,0.92
	c1.07,5.56,1.52,11.18,1.47,16.851c0.2,0.439,0.601,1.31,0.8,1.75C187.141,129.08,186.9,145.05,187,161l1,0.02c0-3.01,0-6.01,0-9.02
	c0.5,0,1.5,0,2-0.01v12.64c-2.92,4.771-4.12,10.351-7.35,14.95c-1.84,5.66-4.18,11.12-6.53,16.58c-1.67,3.71-2.649,7.93-5.681,10.84
	H169.2c5.47-13.24,7.229-28.189,16.01-39.93c-0.19-12.09-1.06-24.16-1.819-36.221c-0.931-14.09-4.391-27.83-8.141-41.39
	c-1.971-6.72-3.7-13.58-6.85-19.87c-4.291-9.15-10.271-17.45-13.84-26.94c4.64,2.44,4.93,8.2,8.209,11.84
	c0.061-2.57,0.34-5.45-1.379-7.6c-2.69-3.57-6.44-6.57-7.111-11.31c-1.51,1.85-0.379,4.41-0.609,6.57
	c-2.77-3.74-2.391-8.84-5.05-12.64c-1.091-1.79-3.2-2.43-4.92-3.43c0.7-0.36,2.1-1.08,2.8-1.44c-4.49-7.07-11.561-11.78-18.51-16.16
	c-2.95,2.21-5.62,4.79-8.69,6.84c2.181,0.34,4.36,0.65,6.54,0.98c0.32,0.78,0.631,1.56,0.93,2.34c-4.6,0.72-9.689-3.15-13.72,0.43
	c-3.579,3.87-2.05,9.63-2.84,14.39c-0.42,6.71-6.14,11.03-9.26,16.5c-2.979,4.59-3.46,10.31-2.45,15.59
	c-3.09,0.09-7.65,2.9-9.62-0.53c0.84-0.3,2.52-0.89,3.37-1.19c-0.75-3.22-2.79-5.84-4.25-8.74c-0.76-7.06,2.59-13.62,5.23-19.95
	c2-4.61,2.491-9.68,2.43-14.67c1.109,0.53,2.22,1.061,3.33,1.59c0.539-0.23,1.619-0.67,2.16-0.89c0.66-1.64,1.3-3.28,1.92-4.93
	C89.18,14.44,74.84,11.47,60.98,15c-6.8,1.57-12.44,6.28-15.82,12.3c-2.41,4.51-6.26,7.95-9.84,11.51
	c8.39,6.95,22.15,2.78,28.72,12.45c-2.31,1.021-4.67,1.94-7.17,2.4c5.19,7.58,13.02,12.68,18.76,19.74c1.7,0.68,3.83,1.37,4.15,3.47
	c1.81,6.96-3.52,12.65-5.94,18.69c-6.52,6.42-10.95,15.1-18.9,19.97c-7.2,1.34-15.68,1.09-21.58-3.78
	c-5.36-4.53-5.57-12.08-5.5-18.54c-0.84-0.77-2.07-1.22-2.56-2.3c-1.09-9.62,3.16-19.77,11.26-25.22
	c7.22-4.92,16.77-5.19,24.72-1.93c-4.87-6.7-9.98-13.9-17.73-17.45c-3.86-1.37-8.1-2.72-12.21-1.91c-2.24,1.85-2.95,4.9-4.85,7.05
	c-4.43,5.09-9.82,9.26-14.09,14.51c1.2,10.11-1.58,20.24-6.35,29.11c1.07,10.96-1.24,21.9-0.42,32.87
	c0.7,8.211,4.27,15.761,6.8,23.5c2.6,7.951,4.33,16.211,4.76,24.58c4.21,3.621,8.73,7.57,9.79,13.33c4.92,3.91,11.41,5.19,16.08,9.5
	c2.35,0.42,4.58,1.301,6.48,2.771c-0.05,0.62-0.15,1.86-0.2,2.479c-8.35-3.959-16.84-7.859-24.46-13.13
	c-1.24-4.489-3.7-8.61-7.76-11.09c0.84,4.9,1.18,9.95,3.07,14.601c1.66,4.199,3.4,8.39,5.25,12.52h-0.38
	c-2.69-2.74-5.84-5.439-6.89-9.29c-1.61-6.62-3.8-13.22-3.24-20.14c-3.67-5.91-5.89-12.65-10.32-18.12
	c-0.89-4.47-0.41-9.341-2.45-13.57c-2.89-5.84,0.55-12.83-2.16-18.6V74.3c0.82,1.08,1.66,2.13,2.51,3.19
	C3.94,86.25,2.28,95.18,2.44,104c0.09,8.95-0.23,17.92,0.56,26.84c0.86-12.47,1.05-25.029,0.46-37.51c3.19-2.74,3.5-7,5.11-10.61
	C7.39,82.02,6.2,81.34,5,80.67c0-1.68,0.01-3.36,0.05-5.04c1.88-2.56,3.25-5.44,4.89-8.14c0.19-4.1-0.09-8.21,0.1-12.3
	c-0.1-1.25,1.2-2.44,2.44-2.16c0.23,2.43,0.33,4.87,0.54,7.3c5.29-3.26,7.3-9.37,11.31-13.8c0.62-1.19,1.23-2.38,1.85-3.57
	c-4.82,0.04-9.71,0.35-14.44-0.81c4-1.53,8.78-3.56,12.87-1.27c1.47,0.07,2.94,0.11,4.41,0.15l-0.04-0.7
	c-0.64-0.3-1.9-0.91-2.53-1.21C25.84,39.08,24.61,39,24,38.96c0-0.51,0-1.53,0-2.05c2.49-0.04,5.01,0.18,7.22,1.43
	c5.46-2.79,8.04-8.82,11.92-13.25c3.47-2.9,5.94-6.72,8.74-10.2c4.35-1.08,8.25-3.53,12.7-4.24C68.58,10.1,72.01,7.69,76.08,7.33
	 M73.12,10.9c10.26-0.93,20.2,2.15,30.33,2.86c1.54-3.72,3.09-7.44,4.46-11.22C96.391,5.62,83.89,5.25,73.12,10.9 M109.74,2.21
	c0.14,3.93-0.58,7.94,0.52,11.79c5.32-1.24,7.87-6.35,11.311-10.02C117.63,3.37,113.73,2.49,109.74,2.21 M117.16,13.07
	c3.17-1.43,6.47-3.54,7.939-6.82C121.689,7.44,119.01,10.03,117.16,13.07 M105.83,16.11c-0.391,2.95-2.15,5.46-2.76,8.36
	c4.479,0.1,4.66-4.89,4.369-8.12C107.04,16.29,106.23,16.17,105.83,16.11 M98.54,32.06c1.05-1.94,1.79-4.02,2.271-6.17
	c-0.221-0.47-0.66-1.4-0.881-1.87C99.08,26.59,97.21,29.34,98.54,32.06 M101.68,39.08c1.7-4.33,4.061-8.42,5.061-13
	C101.88,28.16,101.98,34.57,101.68,39.08 M104.2,40.81c1.579-2.71,3.13-5.48,4.03-8.51C105.65,34.39,104.73,37.68,104.2,40.81
	 M91.55,51.74c1.59-3.75,3.07-7.72,2.82-11.86C93.08,43.69,90.26,47.59,91.55,51.74 M50.47,47.17c3.1,1.11,6.8,5.72,9.81,2.1
	C57.1,48.17,53.8,47.52,50.47,47.17 M94.41,49.94c-0.59,2.14-0.94,4.69-3.37,5.52c1.06,1.59,2.17,3.14,3.33,4.66
	c1.13-3.53,1.63-7.26,0.94-10.94C95.09,49.37,94.64,49.75,94.41,49.94 M33.96,72.05c-4.62,4.82-6.36,11.69-6.39,18.22
	c0.73,0.09,2.17,0.28,2.89,0.38c-0.47,6.4-0.07,13.52,4.08,18.76c3.9,4.279,10.32,4.97,15.72,3.89c-1.54-0.659-3.26-0.55-4.89-0.729
	c-0.32-3.9-0.77-7.86,0.08-11.73c0.62-3.26,2.75-6.48,6.08-7.42c5.75-1.71,12.38-0.21,16.57,4.17c6.17-3.83,7.71-11.74,8.95-18.34
	c-2.08,0.84-4.28,1.25-6.52,1.05c-1.04-4.54-2.79-9.25-6.53-12.27c-4.6-3.95-11.02-4.9-16.88-4.41
	C42.33,65.69,37.68,68.35,33.96,72.05 M183.279,105.9c0.931-5.96-0.1-12.13-2.739-17.53c-1.64-3.29-2.94-6.75-3.521-10.39
	c-2.35-1.36-3.56-3.82-4.66-6.18C175.01,83.47,180.141,94.37,183.279,105.9 M70.24,73.54c0.35,2.96,3.89,3.52,4.63,5.94
	c0.69-0.48,1.38-0.95,2.07-1.41c-0.45-1.5-0.93-2.97-1.45-4.44C73.74,73.61,71.99,73.58,70.24,73.54 M50.44,98.45
	c-3.01,2.94-2.39,7.51-2.1,11.31c2.34,0.03,5.46,0.43,5.24,3.57c4.53-4.2,10.36-7.6,12.61-13.7c-1.3-0.65-2.33-1.63-3.11-2.84
	C58.91,96.25,53.84,95.25,50.44,98.45 M5.86,150.061c0.71,3.159-0.78,6.81,1.36,9.6c2.6,3.98,5.64,7.76,6.94,12.439
	c-0.13-7.67-3.17-14.97-6.41-21.81c-0.74-1.34-0.3-2.87-0.32-4.3c0.28-5.221-2.31-9.95-4.19-14.65
	C3.61,137.58,2.48,144.48,5.86,150.061z"/>
<path fill="#FFFFFF" d="M73.12,10.9c10.77-5.65,23.271-5.28,34.79-8.36c-1.37,3.78-2.92,7.5-4.46,11.22
	C93.32,13.05,83.38,9.97,73.12,10.9z"/>
<path fill="#FFFFFF" d="M109.74,2.21c3.99,0.28,7.89,1.16,11.83,1.77c-3.44,3.67-5.99,8.78-11.311,10.02
	C109.16,10.15,109.88,6.14,109.74,2.21z"/>
<path fill="#FFFFFF" d="M117.16,13.07c1.85-3.04,4.529-5.63,7.939-6.82C123.63,9.53,120.33,11.64,117.16,13.07z"/>
<path fill="#FFFFFF" d="M119.3,15.32c3.07-2.05,5.74-4.63,8.69-6.84c6.949,4.38,14.02,9.09,18.51,16.16c-0.7,0.36-2.1,1.08-2.8,1.44
	c1.72,1,3.829,1.64,4.92,3.43c2.659,3.8,2.28,8.9,5.05,12.64c0.23-2.16-0.9-4.72,0.609-6.57c0.671,4.74,4.421,7.74,7.111,11.31
	c1.719,2.15,1.439,5.03,1.379,7.6c-3.279-3.64-3.569-9.4-8.209-11.84c3.569,9.49,9.549,17.79,13.84,26.94
	c3.149,6.29,4.879,13.15,6.85,19.87c3.75,13.56,7.21,27.3,8.141,41.39c0.76,12.061,1.629,24.131,1.819,36.221
	c-8.78,11.74-10.54,26.689-16.01,39.93H25.44c-1.85-4.13-3.59-8.32-5.25-12.52c-1.89-4.65-2.23-9.7-3.07-14.601
	c4.06,2.479,6.52,6.601,7.76,11.09c7.62,5.271,16.11,9.171,24.46,13.13c0.05-0.619,0.15-1.859,0.2-2.479
	c-1.9-1.47-4.13-2.351-6.48-2.771c-4.67-4.31-11.16-5.59-16.08-9.5c-1.06-5.76-5.58-9.709-9.79-13.33
	c-0.43-8.369-2.16-16.629-4.76-24.58c-2.53-7.739-6.1-15.289-6.8-23.5c-0.82-10.97,1.49-21.909,0.42-32.87
	c4.77-8.87,7.55-19,6.35-29.11c4.27-5.25,9.66-9.42,14.09-14.51c1.9-2.15,2.61-5.2,4.85-7.05c4.11-0.81,8.35,0.54,12.21,1.91
	c7.75,3.55,12.86,10.75,17.73,17.45c-7.95-3.26-17.5-2.99-24.72,1.93c-8.1,5.45-12.35,15.6-11.26,25.22
	c0.49,1.08,1.72,1.53,2.56,2.3c-0.07,6.46,0.14,14.01,5.5,18.54c5.9,4.87,14.38,5.12,21.58,3.78c7.95-4.87,12.38-13.55,18.9-19.97
	c2.42-6.04,7.75-11.73,5.94-18.69c-0.32-2.1-2.45-2.79-4.15-3.47c-5.74-7.06-13.57-12.16-18.76-19.74c2.5-0.46,4.86-1.38,7.17-2.4
	c-6.57-9.67-20.33-5.5-28.72-12.45c3.58-3.56,7.43-7,9.84-11.51c3.38-6.02,9.02-10.73,15.82-12.3c13.86-3.53,28.2-0.56,42.09,1.24
	c-0.62,1.65-1.26,3.29-1.92,4.93c-0.541,0.22-1.621,0.66-2.16,0.89c-1.11-0.53-2.221-1.06-3.33-1.59
	c0.061,4.99-0.43,10.061-2.43,14.67c-2.64,6.33-5.99,12.89-5.23,19.95c1.46,2.9,3.5,5.52,4.25,8.74c-0.85,0.3-2.53,0.89-3.37,1.19
	c1.97,3.43,6.53,0.62,9.62,0.53c-1.01-5.28-0.529-11,2.45-15.59c3.12-5.47,8.84-9.79,9.26-16.5c0.79-4.76-0.739-10.52,2.84-14.39
	c4.03-3.58,9.12,0.29,13.72-0.43c-0.299-0.78-0.609-1.56-0.93-2.34C123.66,15.97,121.48,15.66,119.3,15.32 M129.7,19.96
	c-0.45,2.89-1.47,5.88-0.65,8.8c1.83,1.65,4.45,0.58,6.65,0.66C136.8,24.76,131.43,23.43,129.7,19.96 M71.77,31.08
	c-0.34,2.98-0.62,5.97-0.71,8.98c2.13,0.8,4.43,0.62,6.66,0.58C79.19,35.8,73.72,34.44,71.77,31.08 M119.689,37.85
	c5.5-2.85,12.44-2.95,17.761,0.38c2.29,1.14,1.3,4.55,3.53,5.8c2.01,1.49,4.02,3.16,4.369,5.82c1.461,0.71,2.91,1.43,4.34,2.22
	c3.881,6.87,7.86,13.72,11.08,20.93c1.061,4.74,0.03,10.01-2.819,13.97c-2.681,3.5-7.101,4.78-11.229,5.61
	c1.239-4.72,0.529-10.71-3.951-13.51c-6.859-4.35-16.569-3.37-22.68,1.9c0.11,2.03,0.12,4.061,0.15,6.1
	c-2.07-1.39-4.311-2.64-5.92-4.59c-2.66-3.18-3.711-7.37-6.41-10.52c-1.641-2.01-4.16-4.14-3.1-7.06
	c2.469-9.83,10.459-16.92,17.739-23.42c2.05-2.52,6.47-1.12,7.71-4.53c-2.949-0.52-6.13-0.08-8.51,1.85
	c-4.07,3.16-6.83,7.93-11.68,10.1c-3.91,7.11-9.021,14.46-7.57,23.06c5.76,4.86,8.37,12.57,14.66,16.9
	c7.029,4.57,15.58,6.1,23.84,6.31c6.93-0.11,14.6-1.38,19.561-6.66c3.789-4.22,3.25-10.38,2.39-15.57
	c-1.431-8.11-7.271-14.35-10.37-21.78c-1.141-2.95-5.79-2.01-6.57-5.26c-2.189-5.53-7.119-9.51-12.14-12.36
	c-3.54-0.05-7.08-0.37-10.61-0.1C120.99,33.65,119.68,35.71,119.689,37.85 M88.42,84c-0.14,2.92-1.32,6.06-0.34,8.89
	c1.86,1.21,4.25,0.51,6.34,0.64C95.92,88.89,90.45,87.2,88.42,84 M163.561,101.29c1.93,1.2,4.539,0.23,6.719,0.22
	c0.24-3.229,0.031-6.479-0.979-9.58C168.52,95.86,162.15,96.8,163.561,101.29 M22.48,121.7c-0.33,3.3-1.51,6.67-0.46,9.96
	c2.19,0.109,4.4,0.12,6.59-0.02c-0.11-1.66-0.05-3.641-1.49-4.781C25.22,125.48,23.23,124.04,22.48,121.7 M102.23,137.23
	c-6.08,2.58-10.931,7.729-12.96,14.029c-1.57,0.44-2.43,1.62-2.88,3.131c-0.37,0.35-1.12,1.069-1.5,1.43
	c-0.66,6.119-1.1,12.279-2.29,18.33c-0.43,2.17,0.96,5.31,3.64,4.33c1.94-1.67,1.19-4.5,1.65-6.721c1.89-0.35,3.92-0.39,5.65-1.31
	c2.31-1.73,3.101-4.681,4.22-7.2c3.01,1.49,6.86,2.189,9.77,0.08c3.341-2.23,3.74-6.59,3.811-10.24c3.04,0.7,5.641,2.9,8.91,2.471
	c-0.04-3.19-0.18-6.381-0.04-9.57c3.31,0.9,6.431,2.369,9.729,3.32c1.971-1.44,3.271-3.48,4.15-5.721
	c1.78-0.07,3.67,0.45,5.381-0.24c0.909-2.149-1.631-3.59-2.99-4.8C126.15,132.79,112.98,132.35,102.23,137.23z"/>
<path fill="#FFFFFF" d="M105.83,16.11c0.4,0.06,1.21,0.18,1.609,0.24c0.291,3.23,0.11,8.22-4.369,8.12
	C103.68,21.57,105.439,19.06,105.83,16.11z"/>
<path fill="#050505" d="M129.7,19.96c1.729,3.47,7.1,4.8,6,9.46c-2.2-0.08-4.82,0.99-6.65-0.66
	C128.23,25.84,129.25,22.85,129.7,19.96 M129.641,23.19c0.109,1.75,0.25,3.5,0.43,5.25c1.65-0.01,3.31-0.08,4.949-0.33
	C134.45,25.37,131.971,24.2,129.641,23.19z"/>
<path fill="#FFFFFF" d="M98.54,32.06c-1.33-2.72,0.54-5.47,1.39-8.04c0.221,0.47,0.66,1.4,0.881,1.87
	C100.33,28.04,99.59,30.12,98.54,32.06z"/>
<path fill="#FFFFFF" d="M129.641,23.19c2.33,1.01,4.81,2.18,5.379,4.92c-1.64,0.25-3.299,0.32-4.949,0.33
	C129.891,26.69,129.75,24.94,129.641,23.19z"/>
<path fill="#FFFFFF" d="M101.68,39.08c0.301-4.51,0.2-10.92,5.061-13C105.74,30.66,103.38,34.75,101.68,39.08z"/>
<path fill="#050505" d="M71.77,31.08c1.95,3.36,7.42,4.72,5.95,9.56c-2.23,0.04-4.53,0.22-6.66-0.58
	C71.15,37.05,71.43,34.06,71.77,31.08 M72.04,34.44c0.07,1.75,0.2,3.52,0.63,5.22c1.06-0.03,3.18-0.11,4.24-0.14
	C77.18,36.47,74.26,35.5,72.04,34.44z"/>
<path fill="#FFFFFF" d="M104.2,40.81c0.53-3.13,1.45-6.42,4.03-8.51C107.33,35.33,105.779,38.1,104.2,40.81z"/>
<path fill="#050505" d="M119.689,37.85c-0.01-2.14,1.301-4.2,3.57-4.41c3.53-0.27,7.07,0.05,10.61,0.1
	c5.021,2.85,9.95,6.83,12.14,12.36c0.78,3.25,5.43,2.31,6.57,5.26c3.1,7.43,8.939,13.67,10.37,21.78
	c0.86,5.19,1.399,11.35-2.39,15.57C155.6,93.79,147.93,95.06,141,95.17c-8.26-0.21-16.811-1.74-23.84-6.31
	c-6.29-4.33-8.9-12.04-14.66-16.9c-1.45-8.6,3.66-15.95,7.57-23.06c4.85-2.17,7.609-6.94,11.68-10.1c2.38-1.93,5.561-2.37,8.51-1.85
	c-1.24,3.41-5.66,2.01-7.71,4.53c-7.28,6.5-15.271,13.59-17.739,23.42c-1.061,2.92,1.459,5.05,3.1,7.06
	c2.699,3.15,3.75,7.34,6.41,10.52c1.609,1.95,3.85,3.2,5.92,4.59c-0.03-2.04-0.04-4.07-0.15-6.1c6.11-5.27,15.82-6.25,22.68-1.9
	c4.48,2.8,5.19,8.79,3.951,13.51c4.129-0.83,8.549-2.11,11.229-5.61c2.85-3.96,3.88-9.229,2.819-13.97
	c-3.22-7.21-7.199-14.06-11.08-20.93c-1.43-0.79-2.879-1.51-4.34-2.22c-0.35-2.66-2.359-4.33-4.369-5.82
	c-2.23-1.25-1.24-4.66-3.53-5.8C132.13,34.9,125.189,35,119.689,37.85 M124.88,81.91c-1.61,1.02-1.229,3.14-1.63,4.75
	c-0.33,0.35-0.98,1.05-1.3,1.4c6.35,3.8,13.93,5.51,21.28,4.38c0.68-3.18,1.27-6.95-1.28-9.49
	C137.561,78.56,129.8,78.22,124.88,81.91z"/>
<path fill="#FFFFFF" d="M72.04,34.44c2.22,1.06,5.14,2.03,4.87,5.08c-1.06,0.03-3.18,0.11-4.24,0.14
	C72.24,37.96,72.11,36.19,72.04,34.44z"/>
<path fill="#FFFFFF" d="M91.55,51.74c-1.29-4.15,1.53-8.05,2.82-11.86C94.62,44.02,93.14,47.99,91.55,51.74z"/>
<path fill="#FFFFFF" d="M50.47,47.17c3.33,0.35,6.63,1,9.81,2.1C57.27,52.89,53.57,48.28,50.47,47.17z"/>
<path fill="#FFFFFF" d="M94.41,49.94c0.23-0.19,0.68-0.57,0.9-0.76c0.69,3.68,0.19,7.41-0.94,10.94c-1.16-1.52-2.27-3.07-3.33-4.66
	C93.47,54.63,93.82,52.08,94.41,49.94z"/>
<path fill="#FFFFFF" d="M33.96,72.05c3.72-3.7,8.37-6.36,13.16-8.43c5.86-0.49,12.28,0.46,16.88,4.41
	c3.74,3.02,5.49,7.729,6.53,12.27c2.24,0.2,4.44-0.21,6.52-1.05c-1.24,6.6-2.78,14.51-8.95,18.34c-4.19-4.38-10.82-5.88-16.57-4.17
	c-3.33,0.94-5.46,4.16-6.08,7.42c-0.85,3.87-0.4,7.83-0.08,11.73c1.63,0.18,3.35,0.07,4.89,0.729c-5.4,1.08-11.82,0.39-15.72-3.89
	c-4.15-5.24-4.55-12.36-4.08-18.76c-0.72-0.1-2.16-0.29-2.89-0.38C27.6,83.74,29.34,76.87,33.96,72.05z"/>
<path fill="#FFFFFF" d="M183.279,105.9c-3.139-11.53-8.27-22.431-10.92-34.101c1.101,2.36,2.311,4.82,4.66,6.18
	c0.58,3.64,1.881,7.1,3.521,10.39C183.18,93.77,184.21,99.94,183.279,105.9z"/>
<path fill="#FFFFFF" d="M70.24,73.54c1.75,0.04,3.5,0.07,5.25,0.09c0.52,1.47,1,2.94,1.45,4.44c-0.69,0.46-1.38,0.93-2.07,1.41
	C74.13,77.06,70.59,76.5,70.24,73.54z"/>
<path fill="#FFFFFF" d="M124.88,81.91c4.92-3.69,12.681-3.35,17.07,1.04c2.55,2.54,1.96,6.31,1.28,9.49
	c-7.351,1.13-14.931-0.58-21.28-4.38c0.319-0.35,0.97-1.05,1.3-1.4C123.65,85.05,123.27,82.93,124.88,81.91z"/>
<path fill="#050505" d="M88.42,84c2.03,3.2,7.5,4.89,6,9.53c-2.09-0.13-4.48,0.57-6.34-0.64C87.1,90.06,88.28,86.92,88.42,84
	 M88.7,87.28c0.06,1.67,0.13,3.35,0.21,5.03c1.58,0.05,3.16,0.09,4.74,0.12C93.86,89.36,90.93,88.37,88.7,87.28z"/>
<path fill="#FFFFFF" d="M88.7,87.28c2.23,1.09,5.16,2.08,4.95,5.15c-1.58-0.03-3.16-0.07-4.74-0.12
	C88.83,90.63,88.76,88.95,88.7,87.28z"/>
<path fill="#050505" d="M163.561,101.29c-1.41-4.49,4.959-5.43,5.739-9.36c1.011,3.1,1.22,6.35,0.979,9.58
	C168.1,101.52,165.49,102.49,163.561,101.29 M164.45,100.79c1.569-0.05,3.13-0.12,4.69-0.22c0.139-1.68,0.199-3.35,0.17-5.03
	C167.17,96.75,164.21,97.77,164.45,100.79z"/>
<path fill="#FFFFFF" d="M164.45,100.79c-0.24-3.02,2.72-4.04,4.86-5.25c0.029,1.68-0.031,3.35-0.17,5.03
	C167.58,100.67,166.02,100.74,164.45,100.79z"/>
<path fill="#FFFFFF" d="M50.44,98.45c3.4-3.2,8.47-2.2,12.64-1.66c0.78,1.21,1.81,2.19,3.11,2.84c-2.25,6.101-8.08,9.5-12.61,13.7
	c0.22-3.141-2.9-3.54-5.24-3.57C48.05,105.96,47.43,101.39,50.44,98.45z"/>
<path fill="#050505" d="M22.48,121.7c0.75,2.34,2.74,3.78,4.64,5.159c1.44,1.141,1.38,3.121,1.49,4.781
	c-2.19,0.14-4.4,0.129-6.59,0.02C20.97,128.37,22.15,125,22.48,121.7 M22.61,125.49c0.09,1.689,0.19,3.38,0.3,5.07
	c1.6,0.049,3.19,0.049,4.79,0.01C27.52,127.72,24.84,126.54,22.61,125.49z"/>
<path fill="#FFFFFF" d="M22.61,125.49c2.23,1.05,4.91,2.229,5.09,5.08c-1.6,0.039-3.19,0.039-4.79-0.01
	C22.8,128.87,22.7,127.18,22.61,125.49z"/>
<path fill="#FFFFFF" d="M0,127.28c2.71,5.77-0.73,12.76,2.16,18.6c2.04,4.229,1.56,9.101,2.45,13.57
	c4.43,5.47,6.65,12.21,10.32,18.12c-0.56,6.92,1.63,13.52,3.24,20.14c1.05,3.851,4.2,6.55,6.89,9.29H0V127.28z"/>
<path fill="#FFFFFF" d="M5.86,150.061c-3.38-5.58-2.25-12.48-2.62-18.721c1.88,4.7,4.47,9.43,4.19,14.65
	c0.02,1.43-0.42,2.96,0.32,4.3c3.24,6.84,6.28,14.14,6.41,21.81c-1.3-4.68-4.34-8.459-6.94-12.439
	C5.08,156.87,6.57,153.22,5.86,150.061z"/>
<path fill="#050505" d="M102.23,137.23c10.75-4.881,23.92-4.44,34.25,1.319c1.359,1.21,3.899,2.65,2.99,4.8
	c-1.711,0.69-3.601,0.17-5.381,0.24c-0.88,2.24-2.18,4.28-4.15,5.721c-3.299-0.951-6.42-2.42-9.729-3.32
	c-0.14,3.189,0,6.38,0.04,9.57c-3.27,0.43-5.87-1.771-8.91-2.471c-0.07,3.65-0.47,8.01-3.811,10.24
	c-2.909,2.109-6.76,1.41-9.77-0.08c-1.119,2.52-1.91,5.47-4.22,7.2c-1.73,0.92-3.76,0.96-5.65,1.31
	c-0.46,2.221,0.29,5.051-1.65,6.721c-2.68,0.979-4.07-2.16-3.64-4.33c1.19-6.051,1.63-12.211,2.29-18.33
	c0.38-0.36,1.13-1.08,1.5-1.43c0.45-1.511,1.31-2.69,2.88-3.131C91.3,144.96,96.15,139.811,102.23,137.23 M102.1,140.51
	c4.73,4.67,8.561,11.2,15.621,12.521c0.059-5.49-0.051-10.98,0.1-16.47C112.35,136.061,106.32,136.609,102.1,140.51 M120.09,142.42
	c3.561,1.16,6.7,4.439,10.7,3.061c-0.75-2.15-1.44-4.34-1.5-6.641c-3-0.48-5.761-1.81-8.71-2.47
	C120.21,138.359,120.13,140.391,120.09,142.42 M93.7,153.84c1.75,1.93,4.26,3.66,3.68,6.66c2.71,0.04,4.87,2.29,7.479,2.34
	c3.99-1.79,3.291-7.08,3.24-10.67c-5.08-0.8-2.879-7.89-7.02-9.561C95.18,141.95,93.07,149.18,93.7,153.84 M86.1,170.54
	c3.13-0.899,5.38-3.58,8.61-4.229c0.04-1.28,0.05-2.57,0.06-3.851c-1.74-0.46-3.49-0.851-5.26-1.17c-0.04-0.45-0.12-1.36-0.16-1.82
	c1.75-0.18,3.67,0.29,5.3-0.55c-2.19-1.359-2.74-4.061-4.49-5.82C86.89,158.27,85.77,164.49,86.1,170.54z"/>
<path fill="#FFFFFF" d="M102.1,140.51c4.221-3.9,10.25-4.449,15.721-3.949c-0.15,5.489-0.041,10.979-0.1,16.47
	C110.66,151.71,106.83,145.18,102.1,140.51z"/>
<path fill="#FFFFFF" d="M120.09,142.42c0.04-2.029,0.12-4.061,0.49-6.05c2.949,0.66,5.71,1.989,8.71,2.47
	c0.06,2.301,0.75,4.49,1.5,6.641C126.79,146.859,123.65,143.58,120.09,142.42z"/>
<path fill="#FFFFFF" d="M93.7,153.84c-0.63-4.66,1.48-11.89,7.38-11.23c4.141,1.671,1.939,8.761,7.02,9.561
	c0.051,3.59,0.75,8.88-3.24,10.67c-2.609-0.05-4.77-2.3-7.479-2.34C97.96,157.5,95.45,155.77,93.7,153.84z"/>
<path fill="#FFFFFF" d="M86.1,170.54c-0.33-6.05,0.79-12.271,4.06-17.44c1.75,1.76,2.3,4.461,4.49,5.82
	c-1.63,0.84-3.55,0.37-5.3,0.55c0.04,0.46,0.12,1.37,0.16,1.82c1.77,0.319,3.52,0.71,5.26,1.17c-0.01,1.28-0.02,2.57-0.06,3.851
	C91.48,166.96,89.23,169.641,86.1,170.54z"/>
<path fill="#FFFFFF" d="M182.65,179.58c3.229-4.6,4.43-10.18,7.35-14.95V207h-19.561c3.031-2.91,4.011-7.13,5.681-10.84
	C178.471,190.7,180.811,185.24,182.65,179.58z"/>
</svg>
