<?xml version="1.0" encoding="UTF-8" ?>
<!DOCTYPE svg PUBLIC "-//W3C//DTD SVG 1.1//EN" "http://www.w3.org/Graphics/SVG/1.1/DTD/svg11.dtd">
<svg width="210pt" height="230pt" viewBox="0 0 210 230" version="1.1" xmlns="http://www.w3.org/2000/svg">
<path fill="#ffffff" opacity="1.00" d=" M 0.00 0.00 L 210.00 0.00 L 210.00 230.00 L 149.78 230.00 C 148.00 221.85 147.30 213.52 146.68 205.22 C 145.41 194.52 146.26 183.74 145.98 173.01 C 146.04 168.86 145.54 164.63 146.42 160.55 C 150.15 157.22 154.64 154.77 158.09 151.10 C 162.12 146.76 166.12 142.36 169.47 137.46 C 172.14 133.59 175.17 129.66 175.87 124.87 C 176.61 119.16 175.89 113.33 174.17 107.86 C 171.48 99.06 168.90 90.18 165.23 81.73 C 162.16 75.77 158.51 70.01 153.75 65.24 C 150.77 62.23 147.86 59.14 144.72 56.28 C 139.01 51.17 131.72 48.48 125.03 44.95 C 118.91 41.68 111.97 40.51 105.15 39.83 C 100.08 39.34 95.07 38.30 89.97 38.13 C 83.45 38.27 77.17 40.48 71.37 43.33 C 64.93 46.44 58.11 48.66 51.61 51.65 C 47.09 53.81 44.77 58.53 42.88 62.90 C 39.12 72.10 35.90 81.57 34.38 91.42 C 31.86 101.80 31.02 112.66 32.73 123.24 C 33.86 130.20 36.97 136.60 40.27 142.76 C 44.05 149.20 50.17 153.87 56.66 157.35 C 60.21 159.42 64.15 160.77 67.56 163.06 C 65.39 168.89 62.14 174.28 60.35 180.27 C 58.58 186.45 55.81 192.32 54.55 198.64 C 51.96 208.89 51.43 219.49 50.82 230.00 L 0.00 230.00 L 0.00 0.00 Z" />
<path fill="#010101" opacity="1.00" d=" M 71.37 43.33 C 77.17 40.48 83.45 38.27 89.97 38.13 C 95.07 38.30 100.08 39.34 105.15 39.83 C 111.97 40.51 118.91 41.68 125.03 44.95 C 131.72 48.48 139.01 51.17 144.72 56.28 C 147.86 59.14 150.77 62.23 153.75 65.24 C 158.51 70.01 162.16 75.77 165.23 81.73 C 168.90 90.18 171.48 99.06 174.17 107.86 C 175.89 113.33 176.61 119.16 175.87 124.87 C 175.17 129.66 172.14 133.59 169.47 137.46 C 166.12 142.36 162.12 146.76 158.09 151.10 C 154.64 154.77 150.15 157.22 146.42 160.55 C 145.54 164.63 146.04 168.86 145.98 173.01 C 146.26 183.74 145.41 194.52 146.68 205.22 C 147.30 213.52 148.00 221.85 149.78 230.00 L 147.22 230.00 C 145.65 220.38 144.92 210.66 144.13 200.96 C 143.62 189.90 144.41 178.82 143.82 167.77 C 139.41 170.70 135.57 174.51 130.66 176.65 C 127.56 178.34 123.35 179.58 122.33 183.42 C 121.32 188.26 122.60 193.18 122.83 198.04 C 123.15 208.71 123.78 219.40 125.15 230.00 L 50.82 230.00 C 51.43 219.49 51.96 208.89 54.55 198.64 C 55.81 192.32 58.58 186.45 60.35 180.27 C 62.14 174.28 65.39 168.89 67.56 163.06 C 64.15 160.77 60.21 159.42 56.66 157.35 C 50.17 153.87 44.05 149.20 40.27 142.76 C 36.97 136.60 33.86 130.20 32.73 123.24 C 31.02 112.66 31.86 101.80 34.38 91.42 C 35.90 81.57 39.12 72.10 42.88 62.90 C 44.77 58.53 47.09 53.81 51.61 51.65 C 58.11 48.66 64.93 46.44 71.37 43.33 M 94.69 41.05 C 95.48 42.23 98.80 42.93 97.21 44.54 C 98.54 47.47 99.09 50.67 100.62 53.51 C 101.24 57.64 101.22 61.87 100.02 65.90 C 98.07 67.08 97.19 69.22 95.92 71.01 L 96.99 71.02 C 97.01 71.75 97.04 73.22 97.05 73.95 C 98.06 75.19 99.27 76.26 100.39 77.41 C 101.05 73.91 102.23 70.55 103.18 67.14 C 104.90 66.99 106.52 66.50 108.09 65.82 C 107.05 69.45 107.14 73.26 106.85 77.00 C 107.38 76.99 108.44 76.97 108.97 76.97 C 109.02 77.55 109.11 78.72 109.16 79.30 C 110.49 78.88 111.82 78.45 113.15 78.01 C 113.02 76.43 112.91 74.86 112.78 73.28 C 111.78 71.34 111.17 69.28 110.80 67.13 C 113.07 67.64 113.32 65.51 114.01 63.93 C 114.82 63.98 116.44 64.07 117.24 64.11 C 117.28 64.98 114.98 67.25 116.70 67.10 C 117.57 70.20 118.01 73.38 118.17 76.60 C 125.57 79.57 133.65 78.40 141.38 77.95 C 140.60 79.30 139.80 80.63 138.99 81.94 C 133.97 81.92 128.98 82.43 124.04 83.29 C 124.02 83.70 124.00 84.52 123.99 84.93 C 127.83 84.90 131.69 84.99 135.51 85.44 C 137.83 85.85 139.23 87.76 140.92 89.22 C 140.96 90.45 141.00 91.68 141.05 92.91 C 139.58 93.04 139.73 95.08 138.96 96.03 C 134.30 96.01 129.64 96.01 124.98 96.00 L 125.10 96.68 C 127.53 97.73 130.11 98.01 132.73 98.10 C 133.05 98.44 133.68 99.12 133.99 99.47 C 134.32 99.12 134.98 98.43 135.31 98.09 C 137.90 98.26 140.00 97.01 142.12 95.70 C 141.79 97.19 141.45 98.68 141.11 100.17 C 139.28 99.96 136.41 100.08 135.91 102.19 C 133.78 102.00 131.65 101.80 129.53 101.54 C 127.43 100.88 125.37 100.09 123.16 99.90 C 121.13 99.01 120.40 96.14 118.02 95.94 C 118.00 92.40 118.00 88.86 118.07 85.32 C 118.78 84.48 119.49 83.65 120.19 82.81 C 117.83 83.14 115.47 83.51 113.12 83.90 C 112.76 84.44 112.05 85.53 111.70 86.07 C 114.06 88.35 112.79 92.43 115.14 94.83 C 116.40 97.24 118.78 98.57 120.77 100.28 C 121.88 101.65 124.43 100.09 125.29 101.71 C 125.79 103.45 127.52 102.91 128.90 103.01 C 130.60 106.07 132.09 109.23 133.70 112.34 C 134.15 115.31 135.11 118.13 136.21 120.92 L 136.96 121.11 C 137.06 122.83 137.18 125.69 139.19 126.07 C 138.80 129.36 138.92 132.74 137.88 135.92 C 137.05 136.34 136.23 136.76 135.41 137.19 C 133.21 133.98 134.30 129.95 133.81 126.31 C 132.35 123.05 131.15 119.68 130.76 116.11 L 130.07 115.97 C 129.19 112.84 128.84 108.95 126.00 107.03 C 125.98 108.60 125.95 110.18 125.93 111.76 C 125.20 112.48 124.48 113.20 123.76 113.92 C 121.50 113.97 119.23 114.00 116.97 114.03 C 117.02 116.13 117.07 118.22 117.15 120.32 C 114.03 121.13 110.79 121.12 107.70 120.20 C 107.92 118.91 108.13 117.62 108.35 116.33 C 108.77 115.33 111.77 113.68 108.66 113.57 C 108.47 114.18 108.08 115.41 107.88 116.02 C 105.95 116.03 104.02 116.04 102.09 116.05 C 101.98 118.32 101.62 120.54 100.80 122.66 C 105.02 123.41 109.26 123.99 113.56 123.81 C 117.21 122.88 120.91 122.16 124.68 121.91 C 127.39 123.73 127.60 126.96 128.32 129.87 L 128.92 129.87 C 128.09 131.42 128.61 134.57 126.07 134.08 C 126.38 136.18 125.31 137.66 123.77 138.93 C 121.52 138.97 119.26 139.00 117.01 139.04 C 116.57 141.11 119.86 139.46 121.02 139.95 C 121.00 140.54 120.95 141.72 120.93 142.31 C 116.05 141.45 111.00 140.41 106.13 141.95 C 105.70 143.24 105.26 144.54 104.82 145.83 C 102.11 147.67 101.43 151.86 103.64 154.29 C 105.80 156.18 107.98 158.06 110.29 159.78 C 112.63 160.34 114.79 161.48 117.14 161.99 C 119.44 162.25 121.70 161.51 123.93 161.05 C 124.23 160.54 124.83 159.52 125.13 159.01 C 129.45 159.85 130.24 154.71 132.13 151.99 C 131.14 150.43 130.27 148.83 129.84 147.04 C 130.56 147.04 132.02 147.05 132.75 147.05 C 133.04 147.62 133.63 148.75 133.93 149.31 C 134.17 153.19 134.03 157.11 133.06 160.89 C 131.08 161.57 128.76 161.79 127.77 163.92 C 126.14 164.12 123.43 164.23 122.98 166.04 C 117.53 165.93 112.03 165.65 106.65 166.74 C 107.50 167.85 108.35 168.95 109.20 170.06 C 115.62 170.37 121.66 168.06 127.87 166.88 L 128.17 166.31 C 131.38 164.80 134.55 163.23 137.75 161.71 C 138.94 160.00 140.97 159.56 142.78 158.77 C 144.13 156.78 146.63 156.66 148.68 155.77 C 150.55 153.90 152.55 152.14 154.73 150.63 C 158.03 146.97 161.15 143.16 164.66 139.69 C 167.00 136.32 168.66 132.43 171.84 129.72 C 172.15 128.12 172.24 125.38 174.05 124.99 C 173.99 121.78 173.95 118.57 173.79 115.36 C 172.52 110.90 170.90 106.55 169.93 102.00 L 169.01 101.99 C 169.00 100.33 168.99 98.68 168.99 97.03 C 166.46 95.59 166.61 91.75 165.66 89.18 C 164.39 87.81 163.94 85.94 163.92 84.11 C 162.25 83.45 162.58 80.91 161.25 79.77 C 159.55 77.93 157.97 76.00 157.50 73.46 C 151.61 67.31 146.03 60.79 139.35 55.46 C 139.38 52.72 135.77 55.20 135.28 52.68 C 134.86 50.92 132.00 53.14 131.83 51.30 C 127.15 49.32 122.80 46.62 118.08 44.74 L 117.89 44.07 C 114.69 44.16 111.64 43.41 108.67 42.26 C 103.99 42.15 99.38 41.20 94.69 41.05 M 102.85 81.91 C 102.45 83.50 102.08 85.11 101.73 86.72 C 102.37 87.09 103.65 87.85 104.30 88.23 C 103.62 91.48 103.91 95.21 101.63 97.87 L 101.15 97.88 C 101.46 99.17 101.78 100.46 102.08 101.76 C 103.71 101.37 105.34 101.01 106.97 100.66 C 107.41 102.13 107.83 103.61 108.25 105.09 C 106.83 104.69 105.41 104.29 103.98 103.88 C 104.00 105.93 104.01 107.97 104.02 110.01 C 105.91 110.28 107.49 109.98 108.16 108.01 C 108.85 108.02 110.22 108.05 110.90 108.07 C 111.00 106.58 111.11 105.09 111.21 103.61 C 112.94 104.83 114.62 106.23 116.87 106.08 L 117.18 106.73 C 119.57 107.76 121.85 109.02 124.10 110.34 C 123.91 107.90 123.68 105.47 123.32 103.05 C 121.26 102.69 119.21 102.27 117.14 101.97 C 116.64 101.04 116.16 100.10 115.67 99.16 C 113.76 99.01 113.38 96.78 112.24 95.58 C 111.80 93.49 111.07 91.49 110.42 89.46 C 110.18 86.99 110.00 84.51 109.84 82.03 C 107.51 81.99 105.18 81.96 102.85 81.91 M 88.02 86.04 C 87.11 87.46 85.24 88.03 83.96 89.13 C 83.61 91.21 84.70 92.65 86.22 93.92 C 88.16 93.95 90.10 93.98 92.04 94.01 C 91.18 92.43 90.36 90.83 89.74 89.13 C 91.42 89.16 91.23 86.96 92.04 85.96 C 90.70 85.98 89.36 86.01 88.02 86.04 M 98.37 86.67 C 98.74 89.27 99.60 91.95 97.78 94.24 C 99.38 93.25 100.97 92.25 102.54 91.22 C 100.89 89.84 100.04 87.95 98.37 86.67 M 125.40 87.46 C 124.77 87.57 123.52 87.80 122.90 87.91 C 122.54 89.15 122.19 90.39 121.85 91.63 C 122.68 92.38 123.51 93.14 124.35 93.90 C 125.48 93.97 126.62 94.04 127.76 94.12 C 127.45 92.57 127.15 91.01 126.88 89.45 C 127.66 88.59 128.44 87.71 129.21 86.84 C 127.94 87.03 126.67 87.24 125.40 87.46 M 135.30 87.89 C 135.48 90.16 135.65 92.44 135.84 94.71 C 136.67 93.30 137.56 91.92 138.49 90.58 C 137.42 89.68 136.36 88.78 135.30 87.89 M 110.82 115.80 C 110.95 116.75 111.21 118.67 111.34 119.63 C 112.92 118.74 114.40 117.69 115.70 116.43 C 114.07 116.20 112.44 115.99 110.82 115.80 M 122.36 123.54 L 121.89 124.70 C 116.14 126.11 110.18 126.21 104.30 125.81 C 103.10 125.72 101.72 124.22 100.69 125.40 C 99.10 125.86 98.81 127.15 98.80 128.62 C 107.62 127.25 116.57 128.45 125.44 127.82 C 124.43 126.38 123.39 124.95 122.36 123.54 M 102.02 130.01 C 101.94 131.45 99.76 131.30 98.84 132.10 C 99.16 132.54 99.80 133.42 100.12 133.86 C 102.95 133.93 105.80 134.02 108.60 134.55 C 113.86 135.40 119.07 133.89 124.33 133.70 C 123.54 132.46 122.73 131.23 121.93 130.00 C 115.29 130.01 108.66 130.02 102.02 130.01 Z" />
<path fill="#ffffff" opacity="1.00" d=" M 94.69 41.05 C 99.38 41.20 103.99 42.15 108.67 42.26 C 111.64 43.41 114.69 44.16 117.89 44.07 L 118.08 44.74 C 122.80 46.62 127.15 49.32 131.83 51.30 C 132.00 53.14 134.86 50.92 135.28 52.68 C 135.77 55.20 139.38 52.72 139.35 55.46 C 146.03 60.79 151.61 67.31 157.50 73.46 C 157.97 76.00 159.55 77.93 161.25 79.77 C 162.58 80.91 162.25 83.45 163.92 84.11 C 163.94 85.94 164.39 87.81 165.66 89.18 C 166.61 91.75 166.46 95.59 168.99 97.03 C 168.99 98.68 169.00 100.33 169.01 101.99 L 169.93 102.00 C 170.90 106.55 172.52 110.90 173.79 115.36 C 173.95 118.57 173.99 121.78 174.05 124.99 C 172.24 125.38 172.15 128.12 171.84 129.72 C 168.66 132.43 167.00 136.32 164.66 139.69 C 161.15 143.16 158.03 146.97 154.73 150.63 C 152.55 152.14 150.55 153.90 148.68 155.77 C 146.63 156.66 144.13 156.78 142.78 158.77 C 140.97 159.56 138.94 160.00 137.75 161.71 C 134.55 163.23 131.38 164.80 128.17 166.31 L 127.87 166.88 C 121.66 168.06 115.62 170.37 109.20 170.06 C 108.35 168.95 107.50 167.85 106.65 166.74 C 112.03 165.65 117.53 165.93 122.98 166.04 C 123.43 164.23 126.14 164.12 127.77 163.92 C 128.76 161.79 131.08 161.57 133.06 160.89 C 134.03 157.11 134.17 153.19 133.93 149.31 C 133.63 148.75 133.04 147.62 132.75 147.05 C 132.02 147.05 130.56 147.04 129.84 147.04 C 130.27 148.83 131.14 150.43 132.13 151.99 C 130.24 154.71 129.45 159.85 125.13 159.01 C 124.83 159.52 124.23 160.54 123.93 161.05 C 121.70 161.51 119.44 162.25 117.14 161.99 C 114.79 161.48 112.63 160.34 110.29 159.78 C 107.98 158.06 105.80 156.18 103.64 154.29 C 101.43 151.86 102.11 147.67 104.82 145.83 C 105.26 144.54 105.70 143.24 106.13 141.95 C 111.00 140.41 116.05 141.45 120.93 142.31 C 120.95 141.72 121.00 140.54 121.02 139.95 C 119.86 139.46 116.57 141.11 117.01 139.04 C 119.26 139.00 121.52 138.97 123.77 138.93 C 125.31 137.66 126.38 136.18 126.07 134.08 C 128.61 134.57 128.09 131.42 128.92 129.87 L 128.32 129.87 C 127.60 126.96 127.39 123.73 124.68 121.91 C 120.91 122.16 117.21 122.88 113.56 123.81 C 109.26 123.99 105.02 123.41 100.80 122.66 C 101.62 120.54 101.98 118.32 102.09 116.05 C 104.02 116.04 105.95 116.03 107.88 116.02 C 108.08 115.41 108.47 114.18 108.66 113.57 C 111.77 113.68 108.77 115.33 108.35 116.33 C 108.13 117.62 107.92 118.91 107.70 120.20 C 110.79 121.12 114.03 121.13 117.15 120.32 C 117.07 118.22 117.02 116.13 116.97 114.03 C 119.23 114.00 121.50 113.97 123.76 113.92 C 124.48 113.20 125.20 112.48 125.93 111.76 C 125.95 110.18 125.98 108.60 126.00 107.03 C 128.84 108.95 129.19 112.84 130.07 115.97 L 130.76 116.11 C 131.15 119.68 132.35 123.05 133.81 126.31 C 134.30 129.95 133.21 133.98 135.41 137.19 C 136.23 136.76 137.05 136.34 137.88 135.92 C 138.92 132.74 138.80 129.36 139.19 126.07 C 137.18 125.69 137.06 122.83 136.96 121.11 L 136.21 120.92 C 135.11 118.13 134.15 115.31 133.70 112.34 C 132.09 109.23 130.60 106.07 128.90 103.01 C 127.52 102.91 125.79 103.45 125.29 101.71 C 124.43 100.09 121.88 101.65 120.77 100.28 C 118.78 98.57 116.40 97.24 115.14 94.83 C 112.79 92.43 114.06 88.35 111.70 86.07 C 112.05 85.53 112.76 84.44 113.12 83.90 C 115.47 83.51 117.83 83.14 120.19 82.81 C 119.49 83.65 118.78 84.48 118.07 85.32 C 118.00 88.86 118.00 92.40 118.02 95.94 C 120.40 96.14 121.13 99.01 123.16 99.90 C 125.37 100.09 127.43 100.88 129.53 101.54 C 131.65 101.80 133.78 102.00 135.91 102.19 C 136.41 100.08 139.28 99.96 141.11 100.17 C 141.45 98.68 141.79 97.19 142.12 95.70 C 140.00 97.01 137.90 98.26 135.31 98.09 C 134.98 98.43 134.32 99.12 133.99 99.47 C 133.68 99.12 133.05 98.44 132.73 98.10 C 130.11 98.01 127.53 97.73 125.10 96.68 L 124.98 96.00 C 129.64 96.01 134.30 96.01 138.96 96.03 C 139.73 95.08 139.58 93.04 141.05 92.91 C 141.00 91.68 140.96 90.45 140.92 89.22 C 139.23 87.76 137.83 85.85 135.51 85.44 C 131.69 84.99 127.83 84.90 123.99 84.93 C 124.00 84.52 124.02 83.70 124.04 83.29 C 128.98 82.43 133.97 81.92 138.99 81.94 C 139.80 80.63 140.60 79.30 141.38 77.95 C 133.65 78.40 125.57 79.57 118.17 76.60 C 118.01 73.38 117.57 70.20 116.70 67.10 C 114.98 67.25 117.28 64.98 117.24 64.11 C 116.44 64.07 114.82 63.98 114.01 63.93 C 113.32 65.51 113.07 67.64 110.80 67.13 C 111.17 69.28 111.78 71.34 112.78 73.28 C 112.91 74.86 113.02 76.43 113.15 78.01 C 111.82 78.45 110.49 78.88 109.16 79.30 C 109.11 78.72 109.02 77.55 108.97 76.97 C 108.44 76.97 107.38 76.99 106.85 77.00 C 107.14 73.26 107.05 69.45 108.09 65.82 C 106.52 66.50 104.90 66.99 103.18 67.14 C 102.23 70.55 101.05 73.91 100.39 77.41 C 99.27 76.26 98.06 75.19 97.05 73.95 C 97.04 73.22 97.01 71.75 96.99 71.02 L 95.92 71.01 C 97.19 69.22 98.07 67.08 100.02 65.90 C 101.22 61.87 101.24 57.64 100.62 53.51 C 99.09 50.67 98.54 47.47 97.21 44.54 C 98.80 42.93 95.48 42.23 94.69 41.05 M 120.73 66.11 C 121.10 68.44 121.51 70.78 121.92 73.11 C 128.52 74.69 135.39 74.13 141.96 72.72 C 141.97 72.32 142.00 71.53 142.01 71.14 C 140.39 70.66 138.77 70.19 137.15 69.73 L 137.03 71.12 C 133.49 71.87 129.87 72.12 126.26 71.99 C 123.96 70.91 122.70 68.55 122.97 66.04 C 122.41 66.05 121.29 66.09 120.73 66.11 M 147.09 97.96 C 148.31 103.18 148.09 108.56 147.95 113.87 C 145.74 114.70 145.59 117.06 144.87 118.99 C 145.55 118.95 146.91 118.87 147.59 118.84 C 148.34 117.76 149.10 116.69 149.86 115.62 C 150.07 109.75 150.02 103.88 149.99 98.02 C 149.26 98.00 147.82 97.97 147.09 97.96 Z" />
<path fill="#010101" opacity="1.00" d=" M 120.73 66.11 C 121.29 66.09 122.41 66.05 122.97 66.04 C 122.70 68.55 123.96 70.91 126.26 71.99 C 129.87 72.12 133.49 71.87 137.03 71.12 L 137.15 69.73 C 138.77 70.19 140.39 70.66 142.01 71.14 C 142.00 71.53 141.97 72.32 141.96 72.72 C 135.39 74.13 128.52 74.69 121.92 73.11 C 121.51 70.78 121.10 68.44 120.73 66.11 Z" />
<path fill="#ffffff" opacity="1.00" d=" M 102.85 81.91 C 105.18 81.96 107.51 81.99 109.84 82.03 C 110.00 84.51 110.18 86.99 110.42 89.46 C 111.07 91.49 111.80 93.49 112.24 95.58 C 113.38 96.78 113.76 99.01 115.67 99.16 C 116.16 100.10 116.64 101.04 117.14 101.97 C 119.21 102.27 121.26 102.69 123.32 103.05 C 123.68 105.47 123.91 107.90 124.10 110.34 C 121.85 109.02 119.57 107.76 117.18 106.73 L 116.87 106.08 C 114.62 106.23 112.94 104.83 111.21 103.61 C 111.11 105.09 111.00 106.58 110.90 108.07 C 110.22 108.05 108.85 108.02 108.16 108.01 C 107.49 109.98 105.91 110.28 104.02 110.01 C 104.01 107.97 104.00 105.93 103.98 103.88 C 105.41 104.29 106.83 104.69 108.25 105.09 C 107.83 103.61 107.41 102.13 106.97 100.66 C 105.34 101.01 103.71 101.37 102.08 101.76 C 101.78 100.46 101.46 99.17 101.15 97.88 L 101.63 97.87 C 103.91 95.21 103.62 91.48 104.30 88.23 C 103.65 87.85 102.37 87.09 101.73 86.72 C 102.08 85.11 102.45 83.50 102.85 81.91 Z" />
<path fill="#ffffff" opacity="1.00" d=" M 88.02 86.04 C 89.36 86.01 90.70 85.98 92.04 85.96 C 91.23 86.96 91.42 89.16 89.74 89.13 C 90.36 90.83 91.18 92.43 92.04 94.01 C 90.10 93.98 88.16 93.95 86.22 93.92 C 84.70 92.65 83.61 91.21 83.96 89.13 C 85.24 88.03 87.11 87.46 88.02 86.04 Z" />
<path fill="#ffffff" opacity="1.00" d=" M 98.37 86.67 C 100.04 87.95 100.89 89.84 102.54 91.22 C 100.97 92.25 99.38 93.25 97.78 94.24 C 99.60 91.95 98.74 89.27 98.37 86.67 Z" />
<path fill="#ffffff" opacity="1.00" d=" M 125.40 87.46 C 126.67 87.24 127.94 87.03 129.21 86.84 C 128.44 87.71 127.66 88.59 126.88 89.45 C 127.15 91.01 127.45 92.57 127.76 94.12 C 126.62 94.04 125.48 93.97 124.35 93.90 C 123.51 93.14 122.68 92.38 121.85 91.63 C 122.19 90.39 122.54 89.15 122.90 87.91 C 123.52 87.80 124.77 87.57 125.40 87.46 Z" />
<path fill="#ffffff" opacity="1.00" d=" M 135.30 87.89 C 136.36 88.78 137.42 89.68 138.49 90.58 C 137.56 91.92 136.67 93.30 135.84 94.71 C 135.65 92.44 135.48 90.16 135.30 87.89 Z" />
<path fill="#010101" opacity="1.00" d=" M 147.09 97.96 C 147.82 97.97 149.26 98.00 149.99 98.02 C 150.02 103.88 150.07 109.75 149.86 115.62 C 149.10 116.69 148.34 117.76 147.59 118.84 C 146.91 118.87 145.55 118.95 144.87 118.99 C 145.59 117.06 145.74 114.70 147.95 113.87 C 148.09 108.56 148.31 103.18 147.09 97.96 Z" />
<path fill="#ffffff" opacity="1.00" d=" M 110.82 115.80 C 112.44 115.99 114.07 116.20 115.70 116.43 C 114.40 117.69 112.92 118.74 111.34 119.63 C 111.21 118.67 110.95 116.75 110.82 115.80 Z" />
<path fill="#ffffff" opacity="1.00" d=" M 122.36 123.54 C 123.39 124.95 124.43 126.38 125.44 127.82 C 116.57 128.45 107.62 127.25 98.80 128.62 C 98.81 127.15 99.10 125.86 100.69 125.40 C 101.72 124.22 103.10 125.72 104.30 125.81 C 110.18 126.21 116.14 126.11 121.89 124.70 L 122.36 123.54 Z" />
<path fill="#ffffff" opacity="1.00" d=" M 102.02 130.01 C 108.66 130.02 115.29 130.01 121.93 130.00 C 122.73 131.23 123.54 132.46 124.33 133.70 C 119.07 133.89 113.86 135.40 108.60 134.55 C 105.80 134.02 102.95 133.93 100.12 133.86 C 99.80 133.42 99.16 132.54 98.84 132.10 C 99.76 131.30 101.94 131.45 102.02 130.01 Z" />
<path fill="#ffffff" opacity="1.00" d=" M 130.66 176.65 C 135.57 174.51 139.41 170.70 143.82 167.77 C 144.41 178.82 143.62 189.90 144.13 200.96 C 144.92 210.66 145.65 220.38 147.22 230.00 L 125.15 230.00 C 123.78 219.40 123.15 208.71 122.83 198.04 C 122.60 193.18 121.32 188.26 122.33 183.42 C 123.35 179.58 127.56 178.34 130.66 176.65 Z" />
</svg>
