<?xml version="1.0" encoding="UTF-8" ?>
<!DOCTYPE svg PUBLIC "-//W3C//DTD SVG 1.1//EN" "http://www.w3.org/Graphics/SVG/1.1/DTD/svg11.dtd">
<svg width="700pt" height="738pt" viewBox="0 0 700 738" version="1.1" xmlns="http://www.w3.org/2000/svg">
<g id="#030303ff">
<path fill="#030303" opacity="1.00" d=" M 0.00 0.00 L 0.31 0.00 C 0.23 0.08 0.08 0.24 0.00 0.33 L 0.00 0.00 Z" />
<path fill="#030303" opacity="1.00" d=" M 353.60 42.78 C 356.20 42.07 358.94 41.30 361.66 41.87 C 365.26 42.72 368.32 44.97 371.84 46.05 C 376.08 47.34 380.66 47.11 384.91 45.98 C 388.48 44.58 391.24 41.51 394.98 40.56 C 398.85 40.34 402.88 40.87 406.46 42.36 C 409.64 45.05 412.71 48.28 417.03 49.00 C 426.64 50.24 436.58 49.91 445.84 53.14 C 454.14 56.78 463.64 55.57 472.07 58.93 C 477.54 60.71 481.95 64.75 484.74 69.73 C 487.44 68.97 490.30 68.27 493.06 69.22 C 496.35 70.30 500.09 70.16 503.17 71.75 C 508.81 77.26 513.97 83.35 518.25 90.00 C 524.98 92.89 531.50 96.34 537.46 100.60 C 540.49 102.79 544.10 104.54 545.87 108.03 C 548.90 112.64 547.75 118.65 550.58 123.34 C 553.06 126.22 555.97 128.74 558.01 131.99 C 563.09 139.21 565.39 148.17 564.78 156.95 C 572.16 164.96 579.82 174.55 579.30 186.08 C 579.44 191.43 574.69 195.62 575.68 201.04 C 576.98 208.97 583.21 214.72 586.68 221.70 C 583.09 228.17 579.43 234.60 575.65 240.96 C 577.40 255.53 574.33 270.51 566.78 283.10 C 569.03 287.23 571.33 291.34 573.54 295.49 C 581.09 311.73 581.54 330.97 575.02 347.64 C 590.37 383.41 606.96 420.33 606.99 460.01 C 607.78 498.41 598.74 538.62 574.13 568.96 C 575.25 573.99 580.17 576.18 583.60 579.43 C 633.20 621.52 668.56 678.13 692.79 738.00 L 692.41 738.00 C 690.21 734.45 686.79 731.86 684.76 728.20 C 681.81 722.98 679.75 717.32 677.04 711.98 C 651.93 659.35 616.97 610.36 570.42 574.65 C 564.84 580.16 558.97 585.37 553.36 590.84 C 561.53 601.59 564.54 615.68 562.84 628.96 C 561.60 640.00 557.98 650.82 552.40 660.42 C 543.34 672.42 530.34 681.06 516.38 686.37 C 498.47 693.18 479.02 694.80 460.01 693.79 C 454.33 693.38 448.67 694.14 443.00 694.01 C 424.74 693.93 406.74 690.45 388.88 687.01 C 384.25 686.03 379.52 685.44 375.01 683.94 C 347.27 675.16 319.90 664.74 294.48 650.46 C 276.38 640.30 259.39 628.01 244.71 613.29 C 232.07 602.19 228.82 584.79 219.45 571.41 C 217.44 571.23 215.62 572.96 213.76 573.69 C 150.21 606.95 93.07 655.07 56.05 717.08 C 52.27 723.18 49.15 729.65 45.47 735.80 C 45.23 736.35 44.75 737.45 44.51 738.00 L 44.22 738.00 C 44.82 733.38 44.92 728.49 47.37 724.36 C 50.68 718.70 53.92 712.99 57.28 707.36 C 86.42 659.44 129.09 621.20 175.71 590.72 C 189.00 581.83 203.58 575.09 218.44 569.30 C 217.53 548.05 219.92 526.60 216.27 505.53 C 209.37 481.23 202.53 456.46 202.68 430.99 C 203.05 421.98 203.95 412.96 206.38 404.25 C 195.41 396.18 190.76 382.22 179.44 374.55 C 175.08 371.37 171.86 366.66 170.68 361.38 C 169.04 354.15 171.11 346.64 174.93 340.45 C 164.56 332.57 159.11 318.02 164.45 305.66 C 162.50 302.31 159.19 300.19 156.73 297.29 C 154.71 294.44 152.95 291.38 151.63 288.15 C 150.76 284.20 151.05 280.08 151.47 276.09 C 151.54 273.28 153.83 271.37 154.95 268.99 C 153.97 264.65 148.04 264.51 146.69 260.41 C 145.93 257.77 145.55 255.05 145.10 252.35 C 144.20 248.05 145.76 243.77 146.72 239.61 C 147.86 234.63 151.96 230.89 156.56 229.00 C 155.51 220.08 153.49 210.63 156.92 201.97 C 158.58 197.46 162.30 194.18 166.34 191.79 C 162.06 178.68 167.90 164.37 177.99 155.64 C 181.87 137.04 197.91 125.15 207.64 109.79 C 224.38 103.73 229.52 83.72 245.07 76.07 C 249.56 73.57 254.84 74.39 259.64 73.75 C 264.56 69.17 269.37 64.46 274.08 59.67 C 283.23 59.80 292.37 59.24 301.52 59.40 C 303.60 55.08 306.90 51.13 311.60 49.59 C 322.38 46.11 333.92 51.29 344.70 47.71 C 348.04 46.75 350.22 43.62 353.60 42.78 M 342.05 54.24 C 359.14 58.01 376.64 53.52 393.87 55.49 C 401.58 56.30 408.91 59.29 415.17 63.83 C 411.73 59.92 407.88 56.41 404.25 52.69 C 403.21 51.43 401.40 52.40 400.06 52.30 C 380.77 53.91 361.23 51.21 342.05 54.24 M 413.07 55.14 C 418.90 55.45 424.72 55.92 430.55 56.29 C 436.13 61.17 441.52 66.26 447.15 71.09 C 447.47 69.10 447.83 67.12 448.23 65.15 C 441.52 60.82 435.00 55.69 427.10 53.76 C 422.43 52.55 417.44 53.16 413.07 55.14 M 518.95 98.95 C 529.62 109.13 536.12 122.82 547.09 132.75 C 541.72 124.74 535.33 117.24 531.80 108.13 C 527.75 104.79 523.40 101.75 518.95 98.95 M 454.05 136.14 C 447.14 137.23 440.25 134.52 434.68 130.58 C 428.33 134.88 420.93 138.60 413.05 137.88 C 407.97 137.58 403.35 134.97 399.70 131.55 C 395.23 136.50 388.63 139.52 381.93 139.34 C 376.68 139.06 371.65 136.97 367.54 133.72 C 359.26 140.61 348.15 146.40 337.19 142.73 C 330.35 151.34 320.49 157.82 309.35 158.75 C 309.36 162.91 309.30 167.07 309.40 171.23 C 303.40 177.40 296.72 184.69 287.39 184.63 C 290.19 198.35 288.17 214.36 277.17 224.10 C 282.54 229.94 286.42 237.22 287.85 245.05 C 290.28 256.88 286.83 269.43 279.85 279.12 C 284.78 284.93 288.10 292.29 288.01 300.01 C 288.13 312.45 282.05 324.16 273.86 333.22 C 269.11 326.15 263.82 318.71 255.72 315.26 C 251.21 313.14 246.07 313.24 241.24 313.89 C 237.55 318.96 232.75 323.22 229.79 328.81 C 228.36 331.76 226.90 335.30 228.52 338.49 C 231.48 346.18 236.03 354.10 243.74 357.81 C 247.20 359.64 251.17 359.39 254.95 359.25 C 245.74 364.26 237.61 370.97 228.61 376.30 C 228.94 380.90 229.17 385.76 227.06 390.02 C 223.60 397.56 216.05 402.08 208.61 405.01 C 208.70 416.68 208.23 428.37 209.30 440.01 C 211.62 471.72 219.06 503.50 234.46 531.52 C 241.88 545.05 251.29 557.50 262.30 568.33 C 262.59 571.58 262.81 574.85 262.93 578.12 C 247.48 562.03 235.39 543.19 222.54 525.05 C 223.06 545.67 223.87 567.12 232.96 586.05 C 238.23 596.26 245.03 605.69 253.02 613.95 C 268.52 629.92 287.83 641.50 307.53 651.52 C 321.79 658.53 336.11 665.51 351.07 670.93 C 395.62 687.19 443.97 692.52 491.07 687.40 C 508.44 686.19 525.23 678.74 538.23 667.22 C 549.09 657.52 556.60 643.74 557.29 629.05 C 558.59 616.16 557.28 601.59 547.72 591.88 C 543.34 601.47 541.25 611.99 536.29 621.33 C 528.86 635.06 508.43 641.23 495.95 630.61 C 488.51 637.58 478.11 641.30 467.93 640.21 C 450.83 638.46 435.52 626.71 428.24 611.32 C 434.18 610.71 438.07 615.82 441.00 620.18 C 443.52 624.15 447.33 626.97 450.97 629.83 C 458.66 635.56 468.58 637.43 478.00 636.99 C 479.30 636.86 480.90 636.95 481.88 635.89 C 485.82 631.93 490.01 628.22 493.99 624.29 C 500.38 627.05 506.88 630.46 514.03 630.37 C 519.26 630.41 523.56 627.07 528.03 624.83 C 535.57 619.22 535.43 608.90 536.76 600.51 C 536.76 598.34 539.01 597.53 540.40 596.31 C 568.26 574.66 589.77 543.85 597.07 509.05 C 600.95 494.34 602.70 479.10 602.53 463.90 C 602.25 424.94 589.89 386.75 570.74 353.07 C 563.11 362.80 552.87 370.00 542.42 376.40 C 544.16 379.68 546.65 383.98 551.02 383.43 C 557.43 382.81 560.73 375.66 566.94 374.50 C 569.80 374.22 571.29 377.23 572.62 379.26 C 564.09 383.02 555.35 386.27 546.79 389.94 C 544.60 395.63 543.05 401.68 541.58 407.64 C 549.81 412.73 557.73 418.60 564.09 425.95 C 570.10 432.84 573.90 441.87 573.56 451.09 C 572.54 461.69 565.15 469.92 558.77 477.85 C 553.16 477.79 547.57 477.50 541.97 477.33 C 540.60 477.25 539.07 477.24 538.02 476.23 C 529.53 469.21 520.98 462.27 512.41 455.35 C 504.65 454.94 496.83 456.17 489.66 459.21 C 473.55 465.88 460.67 478.03 445.72 486.71 C 440.96 489.26 435.44 489.84 430.13 490.16 C 424.19 490.24 417.97 489.41 412.88 486.14 C 408.68 483.64 405.84 479.19 404.81 474.46 C 402.81 464.84 404.44 454.63 408.94 445.93 C 415.53 432.77 427.04 422.85 439.35 415.18 C 438.51 409.50 437.03 403.84 437.27 398.07 C 437.47 393.26 439.96 388.67 443.94 385.96 C 442.45 391.46 440.92 396.95 439.20 402.38 C 442.77 405.99 446.51 409.61 451.07 411.97 C 455.63 414.41 460.95 414.32 465.91 415.37 C 485.12 418.62 505.33 422.13 524.37 416.12 C 536.61 410.92 545.70 397.50 544.06 384.00 C 543.04 378.38 540.10 373.35 537.75 368.22 C 527.23 348.63 507.60 336.35 488.03 327.16 C 511.66 331.30 530.94 348.50 543.00 368.56 C 563.81 362.00 577.47 340.41 577.06 318.97 C 563.62 318.67 550.18 318.69 536.75 318.54 C 533.69 320.39 532.81 324.15 530.02 326.25 C 527.71 327.21 525.11 326.62 522.69 326.64 C 521.59 325.54 520.51 324.42 519.46 323.28 C 519.38 322.16 519.30 321.05 519.23 319.94 C 506.65 314.88 490.86 316.40 480.71 325.85 C 478.69 313.19 483.10 300.00 491.25 290.27 C 501.22 277.81 517.12 270.44 533.05 270.75 C 544.42 271.74 553.70 279.05 564.16 282.84 C 566.76 235.04 552.94 186.59 526.00 147.07 C 517.20 147.16 510.72 140.39 505.09 134.50 C 499.45 138.03 492.66 140.20 485.98 139.05 C 479.07 138.16 472.86 134.58 467.46 130.35 C 463.48 133.20 458.98 135.54 454.05 136.14 M 274.85 177.83 C 272.07 185.48 275.85 193.39 275.61 201.18 C 272.24 209.39 265.84 215.79 260.45 222.68 C 266.64 227.01 271.44 233.44 273.06 240.90 C 275.79 252.98 272.28 265.49 267.01 276.39 C 271.59 290.75 276.72 305.67 274.37 320.98 C 282.46 307.80 281.41 290.76 274.53 277.30 C 282.83 260.44 282.47 238.55 270.18 223.67 C 274.80 218.48 278.25 212.18 279.60 205.34 C 281.08 198.43 280.36 191.32 279.08 184.45 C 289.59 179.32 299.66 172.69 306.87 163.34 C 297.52 170.84 285.22 172.43 274.85 177.83 M 504.38 284.39 C 493.89 291.99 486.92 303.86 484.33 316.46 C 514.15 311.99 544.43 311.77 574.44 314.28 C 572.36 303.84 567.22 293.89 559.40 286.60 C 553.90 281.29 546.68 277.67 539.03 276.96 C 536.01 276.53 532.99 277.30 529.97 277.07 C 520.93 276.37 511.67 279.01 504.38 284.39 Z" />
<path fill="#030303" opacity="1.00" d=" M 359.41 222.32 C 373.12 213.52 390.57 213.59 405.89 217.49 C 391.56 221.46 375.23 218.12 362.33 226.83 C 361.31 225.35 360.34 223.85 359.41 222.32 Z" />
<path fill="#030303" opacity="1.00" d=" M 374.53 273.78 C 399.05 268.97 425.75 284.45 433.73 308.14 C 435.83 315.58 438.43 323.26 437.29 331.10 C 435.20 350.70 420.29 367.31 402.31 374.36 C 389.96 379.37 375.68 378.78 363.54 373.45 C 346.37 365.72 334.23 349.01 329.79 330.98 C 331.19 315.54 336.76 300.00 347.50 288.57 C 354.76 281.07 364.41 276.10 374.53 273.78 M 370.63 279.53 C 354.12 284.45 342.30 299.75 338.17 316.04 C 342.45 315.38 346.79 315.83 351.10 315.51 C 377.44 314.68 404.02 312.07 430.23 316.08 C 427.77 294.52 406.54 277.22 385.01 278.38 C 380.20 277.97 375.29 278.17 370.63 279.53 M 338.53 319.42 C 333.18 321.29 332.58 328.11 334.27 332.72 C 337.94 341.45 342.99 349.68 349.49 356.60 C 357.72 365.44 368.78 372.05 380.92 373.43 C 387.95 374.44 394.95 372.19 401.26 369.27 C 412.90 363.60 422.41 354.33 430.20 344.14 C 431.68 337.13 432.61 330.00 433.74 322.93 C 418.42 315.80 401.25 320.22 385.10 319.01 C 382.45 321.54 382.95 325.79 380.08 328.10 C 377.17 331.25 371.35 330.03 369.24 326.49 C 367.26 324.25 369.54 320.69 367.37 318.57 C 357.78 319.44 347.85 316.21 338.53 319.42 Z" />
<path fill="#030303" opacity="1.00" d=" M 251.89 330.55 C 259.49 329.98 264.07 339.37 261.62 345.83 C 260.26 345.93 258.81 346.18 257.59 345.40 C 252.77 342.39 250.21 336.03 251.89 330.55 Z" />
<path fill="#030303" opacity="1.00" d=" M 441.16 526.35 C 450.19 523.27 458.84 519.00 468.15 516.81 C 479.10 517.64 490.05 516.00 500.99 516.97 C 516.53 517.15 532.77 519.82 545.82 528.80 C 532.94 528.40 520.74 523.77 508.15 521.55 C 501.52 520.18 494.71 520.55 488.01 519.99 C 473.14 520.02 458.81 524.69 444.97 529.68 C 443.65 528.62 442.38 527.51 441.16 526.35 Z" />
</g>
<g id="#fbf9f9ff">
<path fill="#fbf9f9" opacity="1.00" d=" M 342.05 54.24 C 361.23 51.21 380.77 53.91 400.06 52.30 C 401.40 52.40 403.21 51.43 404.25 52.69 C 407.88 56.41 411.73 59.92 415.17 63.83 C 408.91 59.29 401.58 56.30 393.87 55.49 C 376.64 53.52 359.14 58.01 342.05 54.24 Z" />
<path fill="#fbf9f9" opacity="1.00" d=" M 413.07 55.14 C 417.44 53.16 422.43 52.55 427.10 53.76 C 435.00 55.69 441.52 60.82 448.23 65.15 C 447.83 67.12 447.47 69.10 447.15 71.09 C 441.52 66.26 436.13 61.17 430.55 56.29 C 424.72 55.92 418.90 55.45 413.07 55.14 Z" />
<path fill="#fbf9f9" opacity="1.00" d=" M 518.95 98.95 C 523.40 101.75 527.75 104.79 531.80 108.13 C 535.33 117.24 541.72 124.74 547.09 132.75 C 536.12 122.82 529.62 109.13 518.95 98.95 Z" />
<path fill="#fbf9f9" opacity="1.00" d=" M 454.05 136.14 C 458.98 135.54 463.48 133.20 467.46 130.35 C 472.86 134.58 479.07 138.16 485.98 139.05 C 492.66 140.20 499.45 138.03 505.09 134.50 C 510.72 140.39 517.20 147.16 526.00 147.07 C 552.94 186.59 566.76 235.04 564.16 282.84 C 553.70 279.05 544.42 271.74 533.05 270.75 C 517.12 270.44 501.22 277.81 491.25 290.27 C 483.10 300.00 478.69 313.19 480.71 325.85 C 490.86 316.40 506.65 314.88 519.23 319.94 C 519.30 321.05 519.38 322.16 519.46 323.28 C 520.51 324.42 521.59 325.54 522.69 326.64 C 525.11 326.62 527.71 327.21 530.02 326.25 C 532.81 324.15 533.69 320.39 536.75 318.54 C 550.18 318.69 563.62 318.67 577.06 318.97 C 577.47 340.41 563.81 362.00 543.00 368.56 C 530.94 348.50 511.66 331.30 488.03 327.16 C 507.60 336.35 527.23 348.63 537.75 368.22 C 540.10 373.35 543.04 378.38 544.06 384.00 C 545.70 397.50 536.61 410.92 524.37 416.12 C 505.33 422.13 485.12 418.62 465.91 415.37 C 460.95 414.32 455.63 414.41 451.07 411.97 C 446.51 409.61 442.77 405.99 439.20 402.38 C 440.92 396.95 442.45 391.46 443.94 385.96 C 439.96 388.67 437.47 393.26 437.27 398.07 C 437.03 403.84 438.51 409.50 439.35 415.18 C 427.04 422.85 415.53 432.77 408.94 445.93 C 404.44 454.63 402.81 464.84 404.81 474.46 C 405.84 479.19 408.68 483.64 412.88 486.14 C 417.97 489.41 424.19 490.24 430.13 490.16 C 435.44 489.84 440.96 489.26 445.72 486.71 C 460.67 478.03 473.55 465.88 489.66 459.21 C 496.83 456.17 504.65 454.94 512.41 455.35 C 520.98 462.27 529.53 469.21 538.02 476.23 C 539.07 477.24 540.60 477.25 541.97 477.33 C 547.57 477.50 553.16 477.79 558.77 477.85 C 565.15 469.92 572.54 461.69 573.56 451.09 C 573.90 441.87 570.10 432.84 564.09 425.95 C 557.73 418.60 549.81 412.73 541.58 407.64 C 543.05 401.68 544.60 395.63 546.79 389.94 C 555.35 386.27 564.09 383.02 572.62 379.26 C 571.29 377.23 569.80 374.22 566.94 374.50 C 560.73 375.66 557.43 382.81 551.02 383.43 C 546.65 383.98 544.16 379.68 542.42 376.40 C 552.87 370.00 563.11 362.80 570.74 353.07 C 589.89 386.75 602.25 424.94 602.53 463.90 C 602.70 479.10 600.95 494.34 597.07 509.05 C 589.77 543.85 568.26 574.66 540.40 596.31 C 539.01 597.53 536.76 598.34 536.76 600.51 C 535.43 608.90 535.57 619.22 528.03 624.83 C 523.56 627.07 519.26 630.41 514.03 630.37 C 506.88 630.46 500.38 627.05 493.99 624.29 C 490.01 628.22 485.82 631.93 481.88 635.89 C 480.90 636.95 479.30 636.86 478.00 636.99 C 468.58 637.43 458.66 635.56 450.97 629.83 C 447.33 626.97 443.52 624.15 441.00 620.18 C 438.07 615.82 434.18 610.71 428.24 611.32 C 435.52 626.71 450.83 638.46 467.93 640.21 C 478.11 641.30 488.51 637.58 495.95 630.61 C 508.43 641.23 528.86 635.06 536.29 621.33 C 541.25 611.99 543.34 601.47 547.72 591.88 C 557.28 601.59 558.59 616.16 557.29 629.05 C 556.60 643.74 549.09 657.52 538.23 667.22 C 525.23 678.74 508.44 686.19 491.07 687.40 C 443.97 692.52 395.62 687.19 351.07 670.93 C 336.11 665.51 321.79 658.53 307.53 651.52 C 287.83 641.50 268.52 629.92 253.02 613.95 C 245.03 605.69 238.23 596.26 232.96 586.05 C 223.87 567.12 223.06 545.67 222.54 525.05 C 235.39 543.19 247.48 562.03 262.93 578.12 C 262.81 574.85 262.59 571.58 262.30 568.33 C 251.29 557.50 241.88 545.05 234.46 531.52 C 219.06 503.50 211.62 471.72 209.30 440.01 C 208.23 428.37 208.70 416.68 208.61 405.01 C 216.05 402.08 223.60 397.56 227.06 390.02 C 229.17 385.76 228.94 380.90 228.61 376.30 C 237.61 370.97 245.74 364.26 254.95 359.25 C 251.17 359.39 247.20 359.64 243.74 357.81 C 236.03 354.10 231.48 346.18 228.52 338.49 C 226.90 335.30 228.36 331.76 229.79 328.81 C 232.75 323.22 237.55 318.96 241.24 313.89 C 246.07 313.24 251.21 313.14 255.72 315.26 C 263.82 318.71 269.11 326.15 273.86 333.22 C 282.05 324.16 288.13 312.45 288.01 300.01 C 288.10 292.29 284.78 284.93 279.85 279.12 C 286.83 269.43 290.28 256.88 287.85 245.05 C 286.42 237.22 282.54 229.94 277.17 224.10 C 288.17 214.36 290.19 198.35 287.39 184.63 C 296.72 184.69 303.40 177.40 309.40 171.23 C 309.30 167.07 309.36 162.91 309.35 158.75 C 320.49 157.82 330.35 151.34 337.19 142.73 C 348.15 146.40 359.26 140.61 367.54 133.72 C 371.65 136.97 376.68 139.06 381.93 139.34 C 388.63 139.52 395.23 136.50 399.70 131.55 C 403.35 134.97 407.97 137.58 413.05 137.88 C 420.93 138.60 428.33 134.88 434.68 130.58 C 440.25 134.52 447.14 137.23 454.05 136.14 M 359.41 222.32 C 360.34 223.85 361.31 225.35 362.33 226.83 C 375.23 218.12 391.56 221.46 405.89 217.49 C 390.57 213.59 373.12 213.52 359.41 222.32 M 374.53 273.78 C 364.41 276.10 354.76 281.07 347.50 288.57 C 336.76 300.00 331.19 315.54 329.79 330.98 C 334.23 349.01 346.37 365.72 363.54 373.45 C 375.68 378.78 389.96 379.37 402.31 374.36 C 420.29 367.31 435.20 350.70 437.29 331.10 C 438.43 323.26 435.83 315.58 433.73 308.14 C 425.75 284.45 399.05 268.97 374.53 273.78 M 251.89 330.55 C 250.21 336.03 252.77 342.39 257.59 345.40 C 258.81 346.18 260.26 345.93 261.62 345.83 C 264.07 339.37 259.49 329.98 251.89 330.55 M 441.16 526.35 C 442.38 527.51 443.65 528.62 444.97 529.68 C 458.81 524.69 473.14 520.02 488.01 519.99 C 494.71 520.55 501.52 520.18 508.15 521.55 C 520.74 523.77 532.94 528.40 545.82 528.80 C 532.77 519.82 516.53 517.15 500.99 516.97 C 490.05 516.00 479.10 517.64 468.15 516.81 C 458.84 519.00 450.19 523.27 441.16 526.35 Z" />
<path fill="#fbf9f9" opacity="1.00" d=" M 274.85 177.83 C 285.22 172.43 297.52 170.84 306.87 163.34 C 299.66 172.69 289.59 179.32 279.08 184.45 C 280.36 191.32 281.08 198.43 279.60 205.34 C 278.25 212.18 274.80 218.48 270.18 223.67 C 282.47 238.55 282.83 260.44 274.53 277.30 C 281.41 290.76 282.46 307.80 274.37 320.98 C 276.72 305.67 271.59 290.75 267.01 276.39 C 272.28 265.49 275.79 252.98 273.06 240.90 C 271.44 233.44 266.64 227.01 260.45 222.68 C 265.84 215.79 272.24 209.39 275.61 201.18 C 275.85 193.39 272.07 185.48 274.85 177.83 Z" />
<path fill="#fbf9f9" opacity="1.00" d=" M 504.38 284.39 C 511.67 279.01 520.93 276.37 529.97 277.07 C 532.99 277.30 536.01 276.53 539.03 276.96 C 546.68 277.67 553.90 281.29 559.40 286.60 C 567.22 293.89 572.36 303.84 574.44 314.28 C 544.43 311.77 514.15 311.99 484.33 316.46 C 486.92 303.86 493.89 291.99 504.38 284.39 Z" />
<path fill="#fbf9f9" opacity="1.00" d=" M 370.63 279.53 C 375.29 278.17 380.20 277.97 385.01 278.38 C 406.54 277.22 427.77 294.52 430.23 316.08 C 404.02 312.07 377.44 314.68 351.10 315.51 C 346.79 315.83 342.45 315.38 338.17 316.04 C 342.30 299.75 354.12 284.45 370.63 279.53 Z" />
<path fill="#fbf9f9" opacity="1.00" d=" M 338.53 319.42 C 347.85 316.21 357.78 319.44 367.37 318.57 C 369.54 320.69 367.26 324.25 369.24 326.49 C 371.35 330.03 377.17 331.25 380.08 328.10 C 382.95 325.79 382.45 321.54 385.10 319.01 C 401.25 320.22 418.42 315.80 433.74 322.93 C 432.61 330.00 431.68 337.13 430.20 344.14 C 422.41 354.33 412.90 363.60 401.26 369.27 C 394.95 372.19 387.95 374.44 380.92 373.43 C 368.78 372.05 357.72 365.44 349.49 356.60 C 342.99 349.68 337.94 341.45 334.27 332.72 C 332.58 328.11 333.18 321.29 338.53 319.42 Z" />
<path fill="#fbf9f9" opacity="1.00" d=" M 213.76 573.69 C 215.62 572.96 217.44 571.23 219.45 571.41 C 228.82 584.79 232.07 602.19 244.71 613.29 C 259.39 628.01 276.38 640.30 294.48 650.46 C 319.90 664.74 347.27 675.16 375.01 683.94 C 379.52 685.44 384.25 686.03 388.88 687.01 C 406.74 690.45 424.74 693.93 443.00 694.01 C 448.67 694.14 454.33 693.38 460.01 693.79 C 479.02 694.80 498.47 693.18 516.38 686.37 C 530.34 681.06 543.34 672.42 552.40 660.42 C 557.98 650.82 561.60 640.00 562.84 628.96 C 564.54 615.68 561.53 601.59 553.36 590.84 C 558.97 585.37 564.84 580.16 570.42 574.65 C 616.97 610.36 651.93 659.35 677.04 711.98 C 679.75 717.32 681.81 722.98 684.76 728.20 C 686.79 731.86 690.21 734.45 692.41 738.00 L 44.51 738.00 C 44.75 737.45 45.23 736.35 45.47 735.80 C 49.15 729.65 52.27 723.18 56.05 717.08 C 93.07 655.07 150.21 606.95 213.76 573.69 Z" />
</g>
</svg>
