<?xml version="1.0" encoding="UTF-8" ?>
<!DOCTYPE svg PUBLIC "-//W3C//DTD SVG 1.1//EN" "http://www.w3.org/Graphics/SVG/1.1/DTD/svg11.dtd">
<svg width="483pt" height="375pt" viewBox="0 0 483 375" version="1.1" xmlns="http://www.w3.org/2000/svg">
<g id="#000000ff">
<path fill="#000000" opacity="1.00" d=" M 0.00 0.00 L 0.13 0.00 C 0.09 0.01 0.03 0.04 0.00 0.06 L 0.00 0.00 Z" />
<path fill="#000000" opacity="1.00" d=" M 161.98 24.26 C 166.91 23.71 170.85 19.74 175.95 19.98 C 183.89 20.15 191.86 20.44 199.71 21.65 C 204.17 22.17 208.12 24.46 212.41 25.62 C 216.63 27.69 220.48 30.53 225.03 31.91 C 235.34 35.28 241.51 45.00 247.94 53.07 C 253.49 60.69 256.25 69.85 261.04 77.91 C 262.82 81.00 263.32 84.59 263.87 88.05 C 264.68 94.02 265.25 100.04 265.25 106.07 C 266.71 106.74 268.73 107.10 269.30 108.86 C 270.93 113.66 271.20 118.93 273.71 123.44 C 276.97 129.07 277.34 135.73 277.80 142.07 C 278.09 145.51 277.57 149.17 275.04 151.73 C 275.48 153.29 277.09 155.08 275.58 156.58 C 272.76 160.65 268.71 165.79 263.03 164.05 C 265.53 171.79 265.60 180.02 266.32 188.05 C 274.58 195.64 282.20 203.90 289.81 212.13 C 292.44 214.85 294.27 218.53 297.80 220.24 C 300.81 221.87 304.51 220.81 307.51 222.50 C 315.30 226.17 323.75 228.08 332.12 229.91 C 340.25 231.65 348.12 234.44 356.34 235.80 C 371.24 237.61 385.26 243.16 399.57 247.38 C 412.83 251.79 426.48 255.49 438.78 262.30 C 444.93 265.93 449.93 271.34 453.56 277.45 C 459.50 287.17 460.53 298.74 463.20 309.58 C 465.07 316.94 464.37 324.60 465.48 332.06 C 465.92 335.73 469.06 338.41 469.44 342.08 C 469.76 344.94 469.89 347.86 469.40 350.71 C 469.02 353.77 465.98 355.61 465.48 358.63 C 465.19 360.29 464.66 362.04 465.12 363.71 C 466.46 365.46 468.75 366.14 470.27 367.72 C 471.76 369.84 471.94 372.53 472.44 375.00 L 470.34 375.00 C 469.90 372.13 469.14 369.10 466.72 367.24 C 464.39 365.33 461.97 362.49 463.10 359.26 C 464.68 355.49 467.40 352.13 467.89 347.95 C 468.79 342.56 464.81 338.10 464.17 332.94 C 462.97 324.86 463.70 316.57 461.60 308.62 C 459.03 298.49 458.29 287.51 452.45 278.55 C 449.69 274.39 446.38 270.60 442.89 267.04 C 439.00 263.11 433.66 261.30 428.70 259.17 C 420.65 262.66 412.82 266.68 405.46 271.44 C 402.02 273.61 399.25 276.64 396.87 279.90 C 383.94 296.99 373.44 315.76 363.72 334.81 C 361.68 339.01 359.59 343.27 358.75 347.90 C 357.12 356.89 356.06 365.97 354.66 375.00 L 352.06 375.00 C 354.12 364.09 355.81 353.10 358.34 342.28 C 359.25 338.59 361.09 335.24 362.71 331.84 C 368.28 320.58 374.40 309.61 380.86 298.84 C 385.78 290.92 390.58 282.79 397.00 275.98 C 405.35 268.03 415.81 262.80 426.34 258.37 C 413.66 253.57 400.78 249.31 387.93 245.02 C 379.86 242.39 371.77 239.70 363.37 238.37 C 352.11 236.66 341.16 233.48 330.11 230.80 C 324.33 229.25 318.46 227.98 312.84 225.92 C 309.66 226.63 306.42 227.26 303.54 228.85 C 304.19 240.77 304.10 252.73 304.65 264.67 C 304.10 265.44 303.55 266.21 302.99 266.97 C 303.12 253.98 302.03 241.01 301.65 228.02 C 304.14 227.11 306.63 226.20 309.11 225.24 C 306.77 223.39 303.93 222.39 300.95 222.86 C 297.39 223.58 294.73 220.76 292.63 218.34 C 286.34 210.94 280.04 203.55 273.28 196.57 C 276.20 205.34 274.78 214.84 271.24 223.19 C 266.22 235.81 258.27 246.92 251.86 258.82 C 234.06 291.24 216.93 324.02 199.82 356.81 C 196.64 362.87 193.83 369.14 190.28 375.00 L 182.24 375.00 C 178.32 354.58 174.33 334.18 170.62 313.72 C 167.89 292.38 166.56 270.85 162.65 249.66 C 161.95 246.38 161.94 242.33 158.58 240.49 C 158.22 240.68 157.50 241.05 157.14 241.24 C 155.47 246.72 155.43 252.93 151.77 257.65 C 145.94 265.20 140.59 273.13 134.46 280.44 C 130.44 285.23 123.56 287.93 121.91 294.41 C 125.49 295.50 129.26 295.36 132.91 294.73 C 132.63 296.00 133.39 298.07 131.78 298.70 C 127.33 299.13 123.25 295.13 118.79 296.52 C 114.22 298.90 109.59 302.54 108.40 307.83 C 107.53 311.59 108.77 315.41 110.28 318.83 C 116.22 332.64 123.71 345.72 131.51 358.55 C 134.95 364.15 138.27 369.86 142.39 375.00 L 140.62 375.00 C 128.49 356.66 117.71 337.41 108.44 317.48 C 105.73 312.08 106.41 305.15 110.78 300.82 C 113.57 297.14 118.67 296.14 121.08 292.13 C 124.31 287.40 129.49 284.54 133.02 280.08 C 138.82 272.85 144.67 265.66 150.14 258.18 C 152.83 254.68 153.59 250.24 154.42 246.02 C 149.24 246.63 144.52 248.92 139.65 250.62 C 127.60 254.94 116.49 261.38 105.11 267.14 C 79.92 280.09 53.59 291.58 31.32 309.40 C 29.18 310.50 30.01 313.03 29.99 314.94 C 30.97 327.97 31.45 341.24 35.14 353.84 C 38.28 361.21 43.08 367.74 46.48 375.00 L 45.44 375.00 C 40.68 368.96 36.05 362.54 33.97 355.02 C 29.52 340.58 29.33 325.36 28.96 310.39 C 28.37 309.94 27.21 309.04 26.62 308.59 C 24.56 311.30 23.88 314.69 22.78 317.85 C 21.46 322.09 19.86 326.24 18.44 330.45 C 16.50 335.94 19.79 341.70 18.21 347.24 C 17.30 350.96 12.01 351.89 12.05 356.03 C 11.89 362.35 10.62 369.03 13.43 375.00 L 11.72 375.00 C 9.05 368.35 10.77 361.10 11.19 354.20 C 11.25 350.91 15.31 350.16 16.35 347.32 C 18.37 342.82 15.39 337.97 16.52 333.34 C 18.26 324.87 21.45 316.76 24.82 308.84 C 25.70 306.51 28.26 307.88 29.82 308.48 C 38.39 302.78 46.72 296.66 55.80 291.78 C 77.56 279.68 99.70 268.26 121.93 257.03 C 132.24 251.56 143.31 247.59 154.50 244.40 C 155.09 242.40 156.08 240.58 157.46 239.03 C 156.52 235.79 154.38 233.27 152.04 230.96 C 150.62 227.29 150.63 223.10 148.27 219.79 C 146.75 216.37 142.59 215.33 141.06 211.93 C 138.16 206.31 136.37 200.17 135.03 194.01 C 131.22 193.29 126.43 193.65 123.87 190.15 C 121.41 186.83 122.83 182.49 123.21 178.76 C 122.64 178.52 121.51 178.05 120.95 177.81 C 120.94 176.62 120.94 175.42 120.95 174.23 C 118.98 172.86 116.43 171.67 115.88 169.09 C 115.04 165.95 114.69 162.66 113.24 159.71 C 111.70 156.68 112.45 153.21 112.15 149.97 C 112.21 147.55 110.49 145.69 109.73 143.51 C 109.57 141.52 111.02 139.87 111.93 138.24 C 109.60 134.82 108.89 130.78 108.20 126.80 C 106.74 123.95 103.95 121.81 103.40 118.50 C 100.96 107.12 101.39 95.31 102.88 83.84 C 103.29 79.19 105.02 74.78 105.13 70.10 C 106.63 66.00 110.86 62.69 109.57 57.86 C 117.10 49.67 123.59 40.12 133.36 34.37 C 135.32 33.50 137.51 33.34 139.45 32.43 C 141.74 31.07 143.64 29.00 146.29 28.31 C 151.49 26.84 156.59 24.92 161.98 24.26 M 178.15 50.37 C 173.79 50.90 169.44 49.79 165.08 50.08 C 162.00 50.39 159.56 52.50 156.98 53.99 C 153.10 56.43 148.52 57.30 144.47 59.38 C 139.91 61.45 135.54 64.74 130.28 64.30 C 127.09 65.68 126.99 72.83 122.11 70.69 C 122.26 74.02 118.81 75.69 117.61 78.51 C 110.96 91.49 111.58 106.76 113.73 120.79 C 114.45 125.96 116.00 130.96 116.98 136.08 C 117.77 139.63 116.32 143.23 117.08 146.77 C 118.51 153.58 119.17 160.64 121.96 167.08 C 125.52 175.41 130.83 182.81 135.82 190.28 C 136.70 196.95 139.02 203.32 141.53 209.53 C 142.72 213.13 147.04 213.99 148.76 217.18 C 150.22 219.66 151.07 222.77 153.81 224.20 C 155.65 225.16 157.83 227.06 159.98 225.80 C 159.17 225.23 158.36 224.68 157.55 224.13 C 158.09 223.32 159.17 221.70 159.72 220.89 C 157.86 219.84 158.27 217.62 158.07 215.84 C 155.56 214.57 152.36 213.37 151.74 210.26 C 151.06 206.94 151.36 203.22 152.85 200.16 C 152.76 204.08 151.67 208.99 155.09 211.89 C 157.35 213.03 159.91 213.29 162.36 213.80 C 163.04 211.71 165.69 211.24 166.40 209.05 C 166.73 209.23 167.39 209.59 167.73 209.77 C 169.42 207.28 172.62 206.73 174.42 204.37 C 174.76 204.34 175.43 204.28 175.76 204.26 C 176.01 202.55 176.97 201.14 177.83 199.69 C 178.07 197.88 177.59 196.06 177.40 194.27 C 174.57 193.73 171.45 194.61 168.84 193.15 C 166.80 191.95 164.36 192.11 162.09 191.80 C 163.15 190.51 164.87 190.44 166.39 190.14 C 166.00 186.95 165.50 183.74 165.82 180.51 C 162.74 184.19 159.61 187.85 156.75 191.71 C 155.52 193.24 155.60 195.30 155.26 197.13 C 155.06 195.58 154.46 193.89 155.43 192.46 C 157.95 187.81 162.09 184.34 165.13 180.06 C 166.72 178.63 164.75 175.72 166.80 174.73 C 167.24 179.61 165.21 184.81 167.55 189.43 C 171.25 193.71 177.47 194.37 182.60 192.69 C 184.98 191.42 186.88 189.35 189.47 188.45 C 192.68 187.01 196.78 188.27 199.51 185.65 C 201.69 184.24 201.04 181.04 199.53 179.37 C 198.00 178.28 196.23 177.60 194.71 176.50 C 197.28 177.35 200.26 178.01 202.13 180.06 C 203.97 184.61 199.57 189.49 194.97 189.55 C 190.78 189.58 187.42 192.20 184.05 194.33 C 184.03 194.91 183.98 196.09 183.96 196.68 C 185.32 197.64 186.50 199.00 188.10 199.55 C 191.21 199.11 193.48 201.54 196.27 202.49 C 200.30 202.97 204.54 203.19 208.20 205.12 C 209.82 205.45 211.48 204.95 213.12 204.87 C 213.49 206.11 214.20 207.12 215.25 207.90 C 216.19 207.01 217.14 206.14 218.10 205.29 C 218.81 207.18 219.15 209.17 219.38 211.17 C 220.52 213.12 222.67 214.38 223.49 216.58 C 224.78 219.30 222.02 222.10 223.05 224.91 C 224.17 227.92 226.20 230.63 226.43 233.94 C 227.47 239.43 223.86 244.90 218.88 247.02 C 213.98 251.28 207.41 252.56 201.13 253.09 C 195.20 253.59 189.20 254.58 183.26 253.73 C 180.04 253.36 179.72 249.10 176.77 248.24 C 175.02 247.39 172.83 247.08 171.68 245.35 C 169.13 241.82 167.41 237.75 164.67 234.36 C 162.82 232.51 160.90 230.73 159.05 228.89 C 156.66 228.02 154.15 227.44 151.91 226.19 C 152.55 227.78 152.59 229.79 154.03 230.96 C 156.91 233.63 157.90 237.61 160.36 240.58 C 163.01 242.94 166.02 244.89 168.49 247.48 C 172.96 252.21 178.83 255.18 184.10 258.89 C 193.81 262.95 204.74 262.23 214.79 259.92 C 220.38 258.56 223.92 253.68 228.07 250.10 C 241.09 238.71 248.14 222.42 259.63 209.71 C 261.68 207.24 264.30 205.10 265.62 202.11 C 264.94 190.72 265.51 179.15 263.22 167.92 C 262.70 163.49 258.57 160.80 257.49 156.63 C 257.30 152.00 257.70 147.32 256.72 142.75 C 255.78 138.37 255.83 133.40 252.91 129.76 C 252.52 130.50 251.76 131.97 251.38 132.70 C 252.58 138.60 252.92 144.70 252.39 150.69 C 251.05 158.10 246.86 164.97 247.75 172.74 L 247.23 172.70 C 246.00 164.06 251.93 156.57 251.82 148.05 C 251.76 141.74 252.00 135.35 250.63 129.15 C 249.67 125.29 250.16 121.16 248.50 117.48 C 247.41 115.02 249.19 112.39 248.37 109.86 C 247.37 104.82 242.46 102.00 240.42 97.47 C 239.09 94.95 239.75 92.04 239.52 89.33 C 238.50 85.74 234.95 83.86 232.98 80.88 C 233.63 79.72 236.47 78.79 234.97 77.26 C 233.51 75.03 230.67 74.79 228.59 73.44 C 226.73 71.15 226.89 67.97 225.77 65.34 C 223.56 61.54 218.23 61.78 215.66 58.37 C 214.16 56.74 214.84 54.40 214.56 52.42 C 213.55 50.80 211.47 50.64 209.80 50.21 C 206.28 49.55 202.67 48.53 199.09 49.32 C 194.29 50.10 189.12 51.68 184.47 49.42 C 182.33 48.03 180.27 50.03 178.15 50.37 M 256.64 112.63 C 252.60 116.49 252.20 122.46 253.27 127.63 C 255.82 132.66 257.54 138.08 257.86 143.75 C 259.93 143.48 260.96 141.73 261.70 140.01 C 260.20 137.64 258.31 135.01 259.07 132.04 C 260.70 123.70 262.96 115.46 265.62 107.40 C 261.81 107.18 259.28 110.41 256.64 112.63 M 264.85 112.98 C 263.33 117.94 261.67 122.91 260.90 128.07 C 263.90 128.80 266.54 127.03 266.68 123.91 C 265.99 129.07 269.48 132.97 272.18 136.87 C 272.32 139.67 270.25 141.91 268.84 144.13 C 268.32 145.96 268.63 147.91 268.28 149.78 C 267.47 148.05 267.28 146.09 267.49 144.20 C 268.35 141.73 271.46 140.07 270.97 137.19 C 269.15 134.19 267.19 131.26 265.69 128.07 C 264.37 130.17 262.59 131.92 259.97 130.75 C 259.21 134.03 260.96 136.84 262.33 139.64 C 262.29 142.07 260.39 144.30 257.97 144.67 C 258.20 148.12 258.23 151.57 258.30 155.03 C 258.39 159.28 262.05 164.08 266.74 162.86 C 270.27 161.39 273.12 158.47 274.79 155.05 C 274.44 153.28 273.60 151.28 274.73 149.60 C 277.18 145.83 276.25 141.18 275.98 136.97 C 275.59 130.51 271.56 125.08 270.36 118.82 C 269.65 116.00 269.37 112.97 267.83 110.45 C 266.24 109.53 265.31 111.86 264.85 112.98 M 111.39 140.04 C 110.47 141.86 109.69 143.92 111.48 145.51 C 114.40 149.56 111.36 154.96 113.81 159.19 C 115.23 162.01 116.05 165.05 116.36 168.18 C 116.77 172.10 122.57 172.31 122.17 176.66 C 125.86 178.96 122.22 183.40 123.16 186.77 C 124.20 192.02 130.51 193.56 135.12 193.15 C 132.55 185.61 126.50 179.95 123.34 172.70 C 118.67 163.96 117.59 154.00 115.78 144.42 C 114.41 142.86 112.97 141.37 111.39 140.04 M 266.32 189.06 C 266.47 192.98 266.86 196.91 266.67 200.83 C 266.10 205.06 262.65 207.98 260.00 211.01 C 255.05 216.18 251.70 222.57 247.33 228.19 C 243.88 232.51 240.77 237.07 237.52 241.55 C 233.71 247.05 227.74 250.45 223.44 255.52 C 220.13 259.72 214.58 260.42 209.74 261.67 C 209.49 262.03 208.99 262.75 208.74 263.12 C 210.19 265.66 212.63 267.42 214.73 269.40 C 221.35 275.41 228.26 281.09 235.08 286.87 C 244.99 268.59 254.75 250.22 265.33 232.33 C 270.17 224.07 274.13 214.84 273.39 205.06 C 274.75 198.67 270.27 193.43 266.32 189.06 M 179.62 196.87 C 179.63 200.97 179.27 205.27 181.04 209.10 C 179.60 207.32 177.30 206.09 174.98 206.79 C 170.57 207.94 167.89 211.95 164.18 214.29 C 162.94 214.63 161.91 217.58 164.10 217.11 C 167.53 215.30 170.17 212.03 174.02 210.96 C 177.15 210.15 179.92 212.35 182.67 213.45 C 184.57 211.81 186.46 209.92 188.98 209.31 C 196.12 207.27 203.66 210.57 210.76 208.80 C 211.10 208.40 211.77 207.58 212.11 207.17 C 208.01 207.35 203.95 204.91 199.97 206.71 C 199.93 204.70 197.60 205.38 196.71 206.17 C 195.04 207.24 193.44 205.59 191.99 204.95 C 188.72 204.55 185.86 206.49 183.15 208.03 C 185.75 204.43 185.65 196.08 179.62 196.87 M 182.76 214.31 C 180.26 213.15 177.79 211.74 175.02 211.33 C 171.61 212.46 168.04 214.48 166.04 217.50 C 172.24 217.49 179.38 215.14 184.82 219.21 C 187.24 216.65 190.98 216.64 193.87 214.89 C 197.80 213.02 202.31 210.54 206.71 212.04 C 198.43 212.85 191.31 217.64 183.74 220.50 C 180.87 217.73 176.66 218.11 173.00 218.34 C 169.92 218.69 166.73 218.34 163.76 219.38 C 168.67 222.79 172.57 227.85 178.55 229.52 C 186.52 231.69 196.25 231.48 202.63 225.61 C 206.51 220.83 209.72 215.37 214.74 211.63 C 214.26 211.04 213.30 209.85 212.82 209.26 C 211.40 210.40 209.99 211.56 208.51 212.62 C 207.66 212.08 206.82 211.53 205.98 210.98 L 208.95 210.83 L 208.90 210.11 C 202.57 209.99 196.25 209.26 189.92 209.50 C 187.15 210.43 184.96 212.47 182.76 214.31 M 205.17 224.21 C 204.30 225.70 202.74 227.22 203.22 229.10 C 204.05 229.01 205.72 228.84 206.55 228.75 C 204.40 231.33 200.39 230.06 197.83 231.95 C 195.80 233.59 194.14 235.62 192.23 237.40 C 188.57 235.36 184.70 233.76 180.76 232.37 C 174.78 230.14 169.96 225.82 165.41 221.49 C 164.04 220.36 162.88 218.51 160.73 218.99 C 160.59 220.30 160.24 221.59 160.04 222.90 C 160.85 223.90 162.05 224.44 163.13 225.09 C 162.72 226.21 162.30 227.33 161.86 228.44 C 163.68 228.94 165.72 229.35 167.00 230.88 C 169.39 233.61 168.67 238.00 171.55 240.40 C 173.41 241.89 175.15 243.51 176.74 245.29 C 179.44 246.35 182.63 247.37 185.49 246.48 C 185.65 244.25 183.12 242.76 181.97 241.03 C 184.60 242.16 187.13 243.70 190.03 244.03 C 194.35 244.79 198.79 243.91 203.09 244.87 C 204.62 245.05 206.43 246.01 207.82 244.88 C 209.30 243.83 212.05 241.49 212.37 244.85 C 216.46 246.34 222.03 243.29 222.53 238.69 C 223.33 233.74 220.76 229.24 219.33 224.68 C 218.53 221.89 220.28 219.42 221.59 217.14 C 221.92 214.90 220.04 213.19 219.10 211.35 C 218.26 211.42 216.57 211.57 215.73 211.65 C 211.45 215.13 208.44 219.83 205.17 224.21 M 162.14 243.23 C 163.20 245.81 163.97 248.54 164.39 251.30 C 166.42 263.54 167.38 275.92 168.89 288.23 C 172.63 280.98 176.03 273.52 180.78 266.85 C 182.16 264.56 184.47 262.37 183.90 259.45 C 180.06 257.07 175.99 255.11 172.10 252.83 C 168.53 249.90 165.85 246.02 162.14 243.23 M 185.29 261.94 C 184.17 263.67 183.03 265.40 181.89 267.13 C 183.93 268.21 186.16 268.89 188.23 269.94 C 190.78 270.68 193.52 270.30 196.15 270.50 C 195.19 272.01 194.49 273.89 192.77 274.74 C 190.75 275.13 188.17 273.95 186.55 275.55 C 185.26 278.64 188.49 280.73 190.73 282.07 C 188.83 283.74 189.76 287.42 186.89 287.96 C 187.21 288.48 187.86 289.51 188.18 290.03 C 194.30 289.51 200.78 289.29 206.15 292.78 C 206.08 291.14 205.74 289.55 205.01 288.09 C 202.82 283.63 203.78 278.51 203.52 273.73 C 205.48 274.63 208.27 273.98 208.79 271.67 C 209.28 268.80 208.35 265.94 207.85 263.14 C 200.33 262.70 192.70 263.64 185.29 261.94 M 213.76 269.44 C 213.65 272.67 212.32 275.64 211.30 278.65 C 209.98 278.49 208.67 278.36 207.36 278.24 C 206.41 283.14 206.60 288.15 206.59 293.12 C 208.55 294.55 210.51 296.05 211.97 298.02 C 217.04 303.61 213.13 312.41 218.26 318.01 C 223.88 308.08 229.01 297.86 234.54 287.88 C 227.59 281.75 220.53 275.77 213.76 269.44 M 174.39 279.95 C 173.03 283.03 171.08 285.83 169.90 289.00 C 168.82 291.58 169.52 294.38 169.79 297.05 C 170.70 305.30 171.56 313.56 173.14 321.72 C 174.97 319.15 175.82 316.08 177.34 313.34 C 179.29 309.59 181.91 306.16 183.24 302.11 C 184.58 297.99 185.46 293.75 186.67 289.60 C 185.43 287.43 184.04 284.78 181.25 284.51 C 178.34 284.12 175.90 282.44 174.39 279.95 M 191.00 295.06 C 193.18 297.93 192.71 301.64 192.83 305.02 C 192.78 308.96 193.23 312.91 192.87 316.84 C 192.32 320.65 189.25 323.30 187.47 326.54 C 185.48 330.03 185.42 334.17 185.30 338.08 C 185.27 345.17 185.63 352.28 186.85 359.27 C 187.30 362.18 186.33 365.10 186.71 368.01 C 188.19 369.53 190.37 370.60 190.64 372.98 C 198.98 354.66 208.49 336.85 217.87 319.03 C 214.04 314.58 214.71 308.56 213.99 303.15 C 212.36 302.05 210.93 300.70 209.86 299.06 C 208.69 298.84 207.53 298.59 206.38 298.31 C 204.89 297.23 206.24 295.20 206.28 293.77 C 204.18 292.61 202.00 291.60 199.78 290.70 C 196.94 291.85 191.54 291.33 191.00 295.06 M 186.36 293.76 C 184.86 298.60 184.20 303.88 181.26 308.13 C 179.67 310.57 178.35 313.17 177.06 315.78 C 179.97 315.10 183.05 315.04 185.88 314.00 C 187.24 313.26 186.67 311.42 186.71 310.19 C 187.73 309.69 188.76 309.19 189.79 308.69 C 189.96 305.79 190.79 302.89 190.42 300.00 C 190.30 298.45 188.33 298.52 187.47 297.55 C 187.11 296.28 186.74 295.01 186.36 293.76 Z" />
<path fill="#000000" opacity="1.00" d=" M 187.01 89.12 C 190.03 88.37 193.89 87.70 196.47 89.83 C 191.89 88.25 187.45 89.75 182.95 90.55 C 173.94 89.39 166.02 95.20 157.12 95.11 C 150.69 95.10 144.15 96.20 138.51 99.44 C 135.01 101.15 132.20 103.87 129.00 106.01 C 133.16 100.93 139.36 97.78 145.45 95.54 C 152.03 93.27 159.22 95.04 165.81 92.84 C 168.60 92.01 171.31 90.90 174.15 90.23 C 178.37 89.16 182.83 90.52 187.01 89.12 Z" />
<path fill="#000000" opacity="1.00" d=" M 179.05 103.04 C 185.44 102.01 191.64 99.96 198.08 99.27 C 204.48 99.20 210.82 100.84 217.24 100.33 C 209.44 102.47 201.34 99.26 193.47 101.26 C 182.15 104.43 170.46 105.77 158.88 107.56 C 154.09 108.27 149.16 108.90 144.78 111.09 C 144.00 111.52 143.17 111.71 142.29 111.69 C 145.89 110.24 149.25 108.05 153.13 107.39 C 161.76 105.87 170.40 104.42 179.05 103.04 Z" />
<path fill="#000000" opacity="1.00" d=" M 208.50 110.69 C 211.47 109.65 215.34 110.37 217.07 113.21 C 217.55 114.80 217.73 116.47 218.03 118.10 C 215.25 116.75 212.38 114.75 209.13 115.36 C 205.17 115.93 202.31 118.94 199.21 121.16 C 194.35 124.83 187.91 126.34 181.93 125.26 C 180.63 125.17 179.79 124.19 179.01 123.28 C 179.98 121.72 180.93 120.15 181.87 118.57 C 182.68 122.18 187.22 122.12 189.99 121.09 C 196.26 117.82 201.73 113.00 208.50 110.69 Z" />
<path fill="#000000" opacity="1.00" d=" M 193.74 126.79 C 197.45 125.41 201.63 123.44 205.53 125.31 C 211.33 127.96 217.36 130.43 223.84 130.49 C 222.62 132.43 219.95 131.71 218.07 131.61 C 212.07 131.40 207.14 126.68 201.02 127.34 C 198.58 127.58 195.34 127.57 194.08 130.10 C 192.12 134.03 188.90 137.07 185.72 140.00 L 185.21 137.47 C 187.47 135.20 189.70 132.90 191.58 130.31 C 188.01 130.01 183.13 132.06 180.62 128.79 C 184.96 127.95 189.56 128.45 193.74 126.79 Z" />
<path fill="#000000" opacity="1.00" d=" M 126.34 133.02 C 136.11 133.90 146.56 134.28 155.67 130.04 C 154.16 134.35 158.05 136.96 161.23 138.78 C 163.75 140.00 164.43 143.58 161.93 145.23 C 156.65 143.50 151.81 140.01 146.08 140.06 C 140.75 140.87 135.51 144.12 133.14 149.05 C 133.19 150.70 134.97 151.33 136.13 150.21 C 143.85 144.90 154.13 144.55 162.80 147.53 C 162.71 148.29 162.61 149.05 162.52 149.81 C 158.80 145.95 153.04 147.16 148.26 147.18 C 148.23 149.35 147.10 151.55 144.90 152.18 C 142.90 152.21 141.05 151.30 139.25 150.56 C 139.02 152.15 138.28 153.44 137.01 154.45 C 138.05 155.52 139.17 157.42 140.99 156.75 C 145.05 156.22 148.53 153.96 152.12 152.16 C 149.01 154.62 145.37 156.27 141.53 157.23 L 140.72 158.12 C 148.05 161.56 153.15 152.41 160.15 152.34 C 156.05 153.93 152.65 156.77 148.76 158.73 C 144.40 160.84 139.01 159.03 136.46 155.01 C 133.86 155.54 130.86 155.53 128.71 153.77 C 128.06 146.37 135.02 142.00 140.51 138.59 C 137.15 138.63 133.75 138.73 130.48 139.52 C 128.23 140.65 127.67 143.41 125.94 145.07 C 124.53 145.48 123.09 145.66 121.61 145.62 C 121.29 143.79 120.69 141.96 120.80 140.08 C 121.67 137.11 124.19 135.09 126.34 133.02 Z" />
<path fill="#000000" opacity="1.00" d=" M 196.16 135.10 C 203.75 134.71 211.37 134.65 218.97 134.53 C 216.41 135.47 214.15 137.06 212.75 139.46 C 211.59 136.55 208.67 135.50 205.74 135.94 C 206.38 140.39 200.07 142.79 197.10 139.92 C 196.01 139.01 195.69 137.54 195.07 136.34 C 193.17 137.85 191.17 140.03 192.66 142.56 C 191.07 142.60 189.48 142.67 187.90 142.79 C 189.59 139.39 192.04 135.58 196.16 135.10 Z" />
<path fill="#000000" opacity="1.00" d=" M 192.15 147.03 C 196.99 142.35 205.33 146.01 210.12 141.12 C 209.97 142.50 208.39 142.75 207.42 143.35 C 202.75 145.26 197.25 144.00 192.81 146.70 C 192.65 146.78 192.31 146.95 192.15 147.03 Z" />
<path fill="#000000" opacity="1.00" d=" M 216.42 143.35 C 218.31 144.41 215.74 146.37 214.52 146.74 C 210.72 147.92 206.66 148.05 202.73 148.50 C 199.40 148.54 195.42 149.35 192.81 146.70 C 199.37 148.78 206.18 147.85 212.77 146.56 L 212.31 145.95 C 214.30 146.53 215.68 144.99 216.42 143.35 Z" />
<path fill="#000000" opacity="1.00" d=" M 239.20 212.09 C 239.29 206.43 243.22 201.94 246.79 197.95 C 244.07 202.35 240.68 206.69 240.03 211.98 C 239.32 218.78 238.09 225.71 234.91 231.84 C 233.76 234.36 231.30 235.74 229.03 237.09 C 236.77 231.39 238.20 220.98 239.20 212.09 Z" />
<path fill="#000000" opacity="1.00" d=" M 293.63 271.64 C 297.45 269.69 301.86 268.98 305.34 266.37 C 305.22 271.00 300.26 272.72 297.26 275.32 C 292.62 278.22 288.60 282.99 282.80 283.26 C 284.26 285.05 285.48 287.71 288.11 287.89 C 292.85 288.34 297.61 288.35 302.36 288.67 C 278.60 317.72 255.72 347.56 230.07 375.00 L 226.99 375.00 C 249.79 350.63 270.42 324.36 292.09 299.00 C 294.15 296.24 297.11 293.70 297.28 290.02 C 292.77 289.12 287.47 290.55 283.67 287.36 C 280.89 284.50 279.49 280.65 277.38 277.33 C 283.29 277.21 288.37 273.91 293.63 271.64 Z" />
</g>
<g id="#ffffffff">
<path fill="#ffffff" opacity="1.00" d=" M 0.13 0.00 L 483.00 0.00 L 483.00 375.00 L 472.44 375.00 C 471.94 372.53 471.76 369.84 470.27 367.72 C 468.75 366.14 466.46 365.46 465.12 363.71 C 464.66 362.04 465.19 360.29 465.48 358.63 C 465.98 355.61 469.02 353.77 469.40 350.71 C 469.89 347.86 469.76 344.94 469.44 342.08 C 469.06 338.41 465.92 335.73 465.48 332.06 C 464.37 324.60 465.07 316.94 463.20 309.58 C 460.53 298.74 459.50 287.17 453.56 277.45 C 449.93 271.34 444.93 265.93 438.78 262.30 C 426.48 255.49 412.83 251.79 399.57 247.38 C 385.26 243.16 371.24 237.61 356.34 235.80 C 348.12 234.44 340.25 231.65 332.12 229.91 C 323.75 228.08 315.30 226.17 307.51 222.50 C 304.51 220.81 300.81 221.87 297.80 220.24 C 294.27 218.53 292.44 214.85 289.81 212.13 C 282.20 203.90 274.58 195.64 266.32 188.05 C 265.60 180.02 265.53 171.79 263.03 164.05 C 268.71 165.79 272.76 160.65 275.58 156.58 C 277.09 155.08 275.48 153.29 275.04 151.73 C 277.57 149.17 278.09 145.51 277.80 142.07 C 277.34 135.73 276.97 129.07 273.71 123.44 C 271.20 118.93 270.93 113.66 269.30 108.86 C 268.73 107.10 266.71 106.74 265.25 106.07 C 265.25 100.04 264.68 94.02 263.87 88.05 C 263.32 84.59 262.82 81.00 261.04 77.91 C 256.25 69.85 253.49 60.69 247.94 53.07 C 241.51 45.00 235.34 35.28 225.03 31.91 C 220.48 30.53 216.63 27.69 212.41 25.62 C 208.12 24.46 204.17 22.17 199.71 21.65 C 191.86 20.44 183.89 20.15 175.95 19.98 C 170.85 19.74 166.91 23.71 161.98 24.26 C 156.59 24.92 151.49 26.84 146.29 28.31 C 143.64 29.00 141.74 31.07 139.45 32.43 C 137.51 33.34 135.32 33.50 133.36 34.37 C 123.59 40.12 117.10 49.67 109.57 57.86 C 110.86 62.69 106.63 66.00 105.13 70.10 C 105.02 74.78 103.29 79.19 102.88 83.84 C 101.39 95.31 100.96 107.12 103.40 118.50 C 103.95 121.81 106.74 123.95 108.20 126.80 C 108.89 130.78 109.60 134.82 111.93 138.24 C 111.02 139.87 109.57 141.52 109.73 143.51 C 110.49 145.69 112.21 147.55 112.15 149.97 C 112.45 153.21 111.70 156.68 113.24 159.71 C 114.69 162.66 115.04 165.95 115.88 169.09 C 116.43 171.67 118.98 172.86 120.95 174.23 C 120.94 175.42 120.94 176.62 120.95 177.81 C 121.51 178.05 122.64 178.52 123.21 178.76 C 122.83 182.49 121.41 186.83 123.87 190.15 C 126.43 193.65 131.22 193.29 135.03 194.01 C 136.37 200.17 138.16 206.31 141.06 211.93 C 142.59 215.33 146.75 216.37 148.27 219.79 C 150.63 223.10 150.62 227.29 152.04 230.96 C 154.38 233.27 156.52 235.79 157.46 239.03 C 156.08 240.58 155.09 242.40 154.50 244.40 C 143.31 247.59 132.24 251.56 121.93 257.03 C 99.70 268.26 77.56 279.68 55.80 291.78 C 46.72 296.66 38.39 302.78 29.82 308.48 C 28.26 307.88 25.70 306.51 24.82 308.84 C 21.45 316.76 18.26 324.87 16.52 333.34 C 15.39 337.97 18.37 342.82 16.35 347.32 C 15.31 350.16 11.25 350.91 11.19 354.20 C 10.77 361.10 9.05 368.35 11.72 375.00 L 0.00 375.00 L 0.00 0.06 C 0.03 0.04 0.09 0.01 0.13 0.00 Z" />
<path fill="#ffffff" opacity="1.00" d=" M 178.15 50.37 C 180.27 50.03 182.33 48.03 184.47 49.42 C 189.12 51.68 194.29 50.10 199.09 49.32 C 202.67 48.53 206.28 49.55 209.80 50.21 C 211.47 50.64 213.55 50.80 214.56 52.42 C 214.84 54.40 214.16 56.74 215.66 58.37 C 218.23 61.78 223.56 61.54 225.77 65.34 C 226.89 67.97 226.73 71.15 228.59 73.44 C 230.67 74.79 233.51 75.03 234.97 77.26 C 236.47 78.79 233.63 79.72 232.98 80.88 C 234.95 83.86 238.50 85.74 239.52 89.33 C 239.75 92.04 239.09 94.95 240.42 97.47 C 242.46 102.00 247.37 104.82 248.37 109.86 C 249.19 112.39 247.41 115.02 248.50 117.48 C 250.16 121.16 249.67 125.29 250.63 129.15 C 252.00 135.35 251.76 141.74 251.82 148.05 C 251.93 156.57 246.00 164.06 247.23 172.70 L 247.75 172.74 C 246.86 164.97 251.05 158.10 252.39 150.69 C 252.92 144.70 252.58 138.60 251.38 132.70 C 251.76 131.97 252.52 130.50 252.91 129.76 C 255.83 133.40 255.78 138.37 256.72 142.75 C 257.70 147.32 257.30 152.00 257.49 156.63 C 258.57 160.80 262.70 163.49 263.22 167.92 C 265.51 179.15 264.94 190.72 265.62 202.11 C 264.30 205.10 261.68 207.24 259.63 209.71 C 248.14 222.42 241.09 238.71 228.07 250.10 C 223.92 253.68 220.38 258.56 214.79 259.92 C 204.74 262.23 193.81 262.95 184.10 258.89 C 178.83 255.18 172.96 252.21 168.49 247.48 C 166.02 244.89 163.01 242.94 160.36 240.58 C 157.90 237.61 156.91 233.63 154.03 230.96 C 152.59 229.79 152.55 227.78 151.91 226.19 C 154.15 227.44 156.66 228.02 159.05 228.89 C 160.90 230.73 162.82 232.51 164.67 234.36 C 167.41 237.75 169.13 241.82 171.68 245.35 C 172.83 247.08 175.02 247.39 176.77 248.24 C 179.72 249.10 180.04 253.36 183.26 253.73 C 189.20 254.58 195.20 253.59 201.13 253.09 C 207.41 252.56 213.98 251.28 218.88 247.02 C 223.86 244.90 227.47 239.43 226.43 233.94 C 226.20 230.63 224.17 227.92 223.05 224.91 C 222.02 222.10 224.78 219.30 223.49 216.58 C 222.67 214.38 220.52 213.12 219.38 211.17 C 219.15 209.17 218.81 207.18 218.10 205.29 C 217.14 206.14 216.19 207.01 215.25 207.90 C 214.20 207.12 213.49 206.11 213.12 204.87 C 211.48 204.95 209.82 205.45 208.20 205.12 C 204.54 203.19 200.30 202.97 196.27 202.49 C 193.48 201.54 191.21 199.11 188.10 199.55 C 186.50 199.00 185.32 197.64 183.96 196.68 C 183.98 196.09 184.03 194.91 184.05 194.33 C 187.42 192.20 190.78 189.58 194.97 189.55 C 199.57 189.49 203.97 184.61 202.13 180.06 C 200.26 178.01 197.28 177.35 194.71 176.50 C 196.23 177.60 198.00 178.28 199.53 179.37 C 201.04 181.04 201.69 184.24 199.51 185.65 C 196.78 188.27 192.68 187.01 189.47 188.45 C 186.88 189.35 184.98 191.42 182.60 192.69 C 177.47 194.37 171.25 193.71 167.55 189.43 C 165.21 184.81 167.24 179.61 166.80 174.73 C 164.75 175.72 166.72 178.63 165.13 180.06 C 162.09 184.34 157.95 187.81 155.43 192.46 C 154.46 193.89 155.06 195.58 155.26 197.13 C 155.60 195.30 155.52 193.24 156.75 191.71 C 159.61 187.85 162.74 184.19 165.82 180.51 C 165.50 183.74 166.00 186.95 166.39 190.14 C 164.87 190.44 163.15 190.51 162.09 191.80 C 164.36 192.11 166.80 191.95 168.84 193.15 C 171.45 194.61 174.57 193.73 177.40 194.27 C 177.59 196.06 178.07 197.88 177.83 199.69 C 176.97 201.14 176.01 202.55 175.76 204.26 C 175.43 204.28 174.76 204.34 174.42 204.37 C 172.62 206.73 169.42 207.28 167.73 209.77 C 167.39 209.59 166.73 209.23 166.40 209.05 C 165.69 211.24 163.04 211.71 162.36 213.80 C 159.91 213.29 157.35 213.03 155.09 211.89 C 151.67 208.99 152.76 204.08 152.85 200.16 C 151.36 203.22 151.06 206.94 151.74 210.26 C 152.36 213.37 155.56 214.57 158.07 215.84 C 158.27 217.62 157.86 219.84 159.72 220.89 C 159.17 221.70 158.09 223.32 157.55 224.13 C 158.36 224.68 159.17 225.23 159.98 225.80 C 157.83 227.06 155.65 225.16 153.81 224.20 C 151.07 222.77 150.22 219.66 148.76 217.18 C 147.04 213.99 142.72 213.13 141.53 209.53 C 139.02 203.32 136.70 196.95 135.82 190.28 C 130.83 182.81 125.52 175.41 121.96 167.08 C 119.17 160.64 118.51 153.58 117.08 146.77 C 116.32 143.23 117.77 139.63 116.98 136.08 C 116.00 130.96 114.45 125.96 113.73 120.79 C 111.58 106.76 110.96 91.49 117.61 78.51 C 118.81 75.69 122.26 74.02 122.11 70.69 C 126.99 72.83 127.09 65.68 130.28 64.30 C 135.54 64.74 139.91 61.45 144.47 59.38 C 148.52 57.30 153.10 56.43 156.98 53.99 C 159.56 52.50 162.00 50.39 165.08 50.08 C 169.44 49.79 173.79 50.90 178.15 50.37 M 187.01 89.12 C 182.83 90.52 178.37 89.16 174.15 90.23 C 171.31 90.90 168.60 92.01 165.81 92.84 C 159.22 95.04 152.03 93.27 145.45 95.54 C 139.36 97.78 133.16 100.93 129.00 106.01 C 132.20 103.87 135.01 101.15 138.51 99.44 C 144.15 96.20 150.69 95.10 157.12 95.11 C 166.02 95.20 173.94 89.39 182.95 90.55 C 187.45 89.75 191.89 88.25 196.47 89.83 C 193.89 87.70 190.03 88.37 187.01 89.12 M 179.05 103.04 C 170.40 104.42 161.76 105.87 153.13 107.39 C 149.25 108.05 145.89 110.24 142.29 111.69 C 143.17 111.71 144.00 111.52 144.78 111.09 C 149.16 108.90 154.09 108.27 158.88 107.56 C 170.46 105.77 182.15 104.43 193.47 101.26 C 201.34 99.26 209.44 102.47 217.24 100.33 C 210.82 100.84 204.48 99.20 198.08 99.27 C 191.64 99.96 185.44 102.01 179.05 103.04 M 208.50 110.69 C 201.73 113.00 196.26 117.82 189.99 121.09 C 187.22 122.12 182.68 122.18 181.87 118.57 C 180.93 120.15 179.98 121.72 179.01 123.28 C 179.79 124.19 180.63 125.17 181.93 125.26 C 187.91 126.34 194.35 124.83 199.21 121.16 C 202.31 118.94 205.17 115.93 209.13 115.36 C 212.38 114.75 215.25 116.75 218.03 118.10 C 217.73 116.47 217.55 114.80 217.07 113.21 C 215.34 110.37 211.47 109.65 208.50 110.69 M 193.74 126.79 C 189.56 128.45 184.96 127.95 180.62 128.79 C 183.13 132.06 188.01 130.01 191.58 130.31 C 189.70 132.90 187.47 135.20 185.21 137.47 L 185.72 140.00 C 188.90 137.07 192.12 134.03 194.08 130.10 C 195.34 127.57 198.58 127.58 201.02 127.34 C 207.14 126.68 212.07 131.40 218.07 131.61 C 219.95 131.71 222.62 132.43 223.84 130.49 C 217.36 130.43 211.33 127.96 205.53 125.31 C 201.63 123.44 197.45 125.41 193.74 126.79 M 126.34 133.02 C 124.19 135.09 121.67 137.11 120.80 140.08 C 120.69 141.96 121.29 143.79 121.61 145.62 C 123.09 145.66 124.53 145.48 125.94 145.07 C 127.67 143.41 128.23 140.65 130.48 139.52 C 133.75 138.73 137.15 138.63 140.51 138.59 C 135.02 142.00 128.06 146.37 128.71 153.77 C 130.86 155.53 133.86 155.54 136.46 155.01 C 139.01 159.03 144.40 160.84 148.76 158.73 C 152.65 156.77 156.05 153.93 160.15 152.34 C 153.15 152.41 148.05 161.56 140.72 158.12 L 141.53 157.23 C 145.37 156.27 149.01 154.62 152.12 152.16 C 148.53 153.96 145.05 156.22 140.99 156.75 C 139.17 157.42 138.05 155.52 137.01 154.45 C 138.28 153.44 139.02 152.15 139.25 150.56 C 141.05 151.30 142.90 152.21 144.90 152.18 C 147.10 151.55 148.23 149.35 148.26 147.18 C 153.04 147.16 158.80 145.95 162.52 149.81 C 162.61 149.05 162.71 148.29 162.80 147.53 C 154.13 144.55 143.85 144.90 136.13 150.21 C 134.97 151.33 133.19 150.70 133.14 149.05 C 135.51 144.12 140.75 140.87 146.08 140.06 C 151.81 140.01 156.65 143.50 161.93 145.23 C 164.43 143.58 163.75 140.00 161.23 138.78 C 158.05 136.96 154.16 134.35 155.67 130.04 C 146.56 134.28 136.11 133.90 126.34 133.02 M 196.16 135.10 C 192.04 135.58 189.59 139.39 187.90 142.79 C 189.48 142.67 191.07 142.60 192.66 142.56 C 191.17 140.03 193.17 137.85 195.07 136.34 C 195.69 137.54 196.01 139.01 197.10 139.92 C 200.07 142.79 206.38 140.39 205.74 135.94 C 208.67 135.50 211.59 136.55 212.75 139.46 C 214.15 137.06 216.41 135.47 218.97 134.53 C 211.37 134.65 203.75 134.71 196.16 135.10 M 192.15 147.03 C 192.31 146.95 192.65 146.78 192.81 146.70 C 197.25 144.00 202.75 145.26 207.42 143.35 C 208.39 142.75 209.97 142.50 210.12 141.12 C 205.33 146.01 196.99 142.35 192.15 147.03 M 216.42 143.35 C 215.68 144.99 214.30 146.53 212.31 145.95 L 212.77 146.56 C 206.18 147.85 199.37 148.78 192.81 146.70 C 195.42 149.35 199.40 148.54 202.73 148.50 C 206.66 148.05 210.72 147.92 214.52 146.74 C 215.74 146.37 218.31 144.41 216.42 143.35 M 239.20 212.09 C 238.20 220.98 236.77 231.39 229.03 237.09 C 231.30 235.74 233.76 234.36 234.91 231.84 C 238.09 225.71 239.32 218.78 240.03 211.98 C 240.68 206.69 244.07 202.35 246.79 197.95 C 243.22 201.94 239.29 206.43 239.20 212.09 Z" />
<path fill="#ffffff" opacity="1.00" d=" M 256.64 112.63 C 259.28 110.41 261.81 107.18 265.62 107.40 C 262.96 115.46 260.70 123.70 259.07 132.04 C 258.31 135.01 260.20 137.64 261.70 140.01 C 260.96 141.73 259.93 143.48 257.86 143.75 C 257.54 138.08 255.82 132.66 253.27 127.63 C 252.20 122.46 252.60 116.49 256.64 112.63 Z" />
<path fill="#ffffff" opacity="1.00" d=" M 264.85 112.98 C 265.31 111.86 266.24 109.53 267.83 110.45 C 269.37 112.97 269.65 116.00 270.36 118.82 C 271.56 125.08 275.59 130.51 275.98 136.97 C 276.25 141.18 277.18 145.83 274.73 149.60 C 273.60 151.28 274.44 153.28 274.79 155.05 C 273.12 158.47 270.27 161.39 266.74 162.86 C 262.05 164.08 258.39 159.28 258.30 155.03 C 258.23 151.57 258.20 148.12 257.97 144.67 C 260.39 144.30 262.29 142.07 262.33 139.64 C 260.96 136.84 259.21 134.03 259.97 130.75 C 262.59 131.92 264.37 130.17 265.69 128.07 C 267.19 131.26 269.15 134.19 270.97 137.19 C 271.46 140.07 268.35 141.73 267.49 144.20 C 267.28 146.09 267.47 148.05 268.28 149.78 C 268.63 147.91 268.32 145.96 268.84 144.13 C 270.25 141.91 272.32 139.67 272.18 136.87 C 269.48 132.97 265.99 129.07 266.68 123.91 C 266.54 127.03 263.90 128.80 260.90 128.07 C 261.67 122.91 263.33 117.94 264.85 112.98 Z" />
<path fill="#ffffff" opacity="1.00" d=" M 111.39 140.04 C 112.97 141.37 114.41 142.86 115.78 144.42 C 117.59 154.00 118.67 163.96 123.34 172.70 C 126.50 179.95 132.55 185.61 135.12 193.15 C 130.51 193.56 124.20 192.02 123.16 186.77 C 122.22 183.40 125.86 178.96 122.17 176.66 C 122.57 172.31 116.77 172.10 116.36 168.18 C 116.05 165.05 115.23 162.01 113.81 159.19 C 111.36 154.96 114.40 149.56 111.48 145.51 C 109.69 143.92 110.47 141.86 111.39 140.04 Z" />
<path fill="#ffffff" opacity="1.00" d=" M 266.32 189.06 C 270.27 193.43 274.75 198.67 273.39 205.06 C 274.13 214.84 270.17 224.07 265.33 232.33 C 254.75 250.22 244.99 268.59 235.08 286.87 C 228.26 281.09 221.35 275.41 214.73 269.40 C 212.63 267.42 210.19 265.66 208.74 263.12 C 208.99 262.75 209.49 262.03 209.74 261.67 C 214.58 260.42 220.13 259.72 223.44 255.52 C 227.74 250.45 233.71 247.05 237.52 241.55 C 240.77 237.07 243.88 232.51 247.33 228.19 C 251.70 222.57 255.05 216.18 260.00 211.01 C 262.65 207.98 266.10 205.06 266.67 200.83 C 266.86 196.91 266.47 192.98 266.32 189.06 Z" />
<path fill="#ffffff" opacity="1.00" d=" M 179.62 196.87 C 185.65 196.08 185.75 204.43 183.15 208.03 C 185.86 206.49 188.72 204.55 191.99 204.95 C 193.44 205.59 195.04 207.24 196.71 206.17 C 197.60 205.38 199.93 204.70 199.97 206.71 C 203.95 204.91 208.01 207.35 212.11 207.17 C 211.77 207.58 211.10 208.40 210.76 208.80 C 203.66 210.57 196.12 207.27 188.98 209.31 C 186.46 209.92 184.57 211.81 182.67 213.45 C 179.92 212.35 177.15 210.15 174.02 210.96 C 170.17 212.03 167.53 215.30 164.10 217.11 C 161.91 217.58 162.94 214.63 164.18 214.29 C 167.89 211.95 170.57 207.94 174.98 206.79 C 177.30 206.09 179.60 207.32 181.04 209.10 C 179.27 205.27 179.63 200.97 179.62 196.87 Z" />
<path fill="#ffffff" opacity="1.00" d=" M 273.28 196.57 C 280.04 203.55 286.34 210.94 292.63 218.34 C 294.73 220.76 297.39 223.58 300.95 222.86 C 303.93 222.39 306.77 223.39 309.11 225.24 C 306.63 226.20 304.14 227.11 301.65 228.02 C 302.03 241.01 303.12 253.98 302.99 266.97 C 303.55 266.21 304.10 265.44 304.65 264.67 C 304.10 252.73 304.19 240.77 303.54 228.85 C 306.42 227.26 309.66 226.63 312.84 225.92 C 318.46 227.98 324.33 229.25 330.11 230.80 C 341.16 233.48 352.11 236.66 363.37 238.37 C 371.77 239.70 379.86 242.39 387.93 245.02 C 400.78 249.31 413.66 253.57 426.34 258.37 C 415.81 262.80 405.35 268.03 397.00 275.98 C 390.58 282.79 385.78 290.92 380.86 298.84 C 374.40 309.61 368.28 320.58 362.71 331.84 C 361.09 335.24 359.25 338.59 358.34 342.28 C 355.81 353.10 354.12 364.09 352.06 375.00 L 230.07 375.00 C 255.72 347.56 278.60 317.72 302.36 288.67 C 297.61 288.35 292.85 288.34 288.11 287.89 C 285.48 287.71 284.26 285.05 282.80 283.26 C 288.60 282.99 292.62 278.22 297.26 275.32 C 300.26 272.72 305.22 271.00 305.34 266.37 C 301.86 268.98 297.45 269.69 293.63 271.64 C 288.37 273.91 283.29 277.21 277.38 277.33 C 279.49 280.65 280.89 284.50 283.67 287.36 C 287.47 290.55 292.77 289.12 297.28 290.02 C 297.11 293.70 294.15 296.24 292.09 299.00 C 270.42 324.36 249.79 350.63 226.99 375.00 L 190.28 375.00 C 193.83 369.14 196.64 362.87 199.82 356.81 C 216.93 324.02 234.06 291.24 251.86 258.82 C 258.27 246.92 266.22 235.81 271.24 223.19 C 274.78 214.84 276.20 205.34 273.28 196.57 Z" />
<path fill="#ffffff" opacity="1.00" d=" M 182.76 214.31 C 184.96 212.47 187.15 210.43 189.92 209.50 C 196.25 209.26 202.57 209.99 208.90 210.11 L 208.95 210.83 L 205.98 210.98 C 206.82 211.53 207.66 212.08 208.51 212.62 C 209.99 211.56 211.40 210.40 212.82 209.26 C 213.30 209.85 214.26 211.04 214.74 211.63 C 209.72 215.37 206.51 220.83 202.63 225.61 C 196.25 231.48 186.52 231.69 178.55 229.52 C 172.57 227.85 168.67 222.79 163.76 219.38 C 166.73 218.34 169.92 218.69 173.00 218.34 C 176.66 218.11 180.87 217.73 183.74 220.50 C 191.31 217.64 198.43 212.85 206.71 212.04 C 202.31 210.54 197.80 213.02 193.87 214.89 C 190.98 216.64 187.24 216.65 184.82 219.21 C 179.38 215.14 172.24 217.49 166.04 217.50 C 168.04 214.48 171.61 212.46 175.02 211.33 C 177.79 211.74 180.26 213.15 182.76 214.31 Z" />
<path fill="#ffffff" opacity="1.00" d=" M 205.17 224.21 C 208.44 219.83 211.45 215.13 215.73 211.65 C 216.57 211.57 218.26 211.42 219.10 211.35 C 220.04 213.19 221.92 214.90 221.59 217.14 C 220.28 219.42 218.53 221.89 219.33 224.68 C 220.76 229.24 223.33 233.74 222.53 238.69 C 222.03 243.29 216.46 246.34 212.37 244.85 C 212.05 241.49 209.30 243.83 207.82 244.88 C 206.43 246.01 204.62 245.05 203.09 244.87 C 198.79 243.91 194.35 244.79 190.03 244.03 C 187.13 243.70 184.60 242.16 181.97 241.03 C 183.12 242.76 185.65 244.25 185.49 246.48 C 182.63 247.37 179.44 246.35 176.74 245.29 C 175.15 243.51 173.41 241.89 171.55 240.40 C 168.67 238.00 169.39 233.61 167.00 230.88 C 165.72 229.35 163.68 228.94 161.86 228.44 C 162.30 227.33 162.72 226.21 163.13 225.09 C 162.05 224.44 160.85 223.90 160.04 222.90 C 160.24 221.59 160.59 220.30 160.73 218.99 C 162.88 218.51 164.04 220.36 165.41 221.49 C 169.96 225.82 174.78 230.14 180.76 232.37 C 184.70 233.76 188.57 235.36 192.23 237.40 C 194.14 235.62 195.80 233.59 197.83 231.95 C 200.39 230.06 204.40 231.33 206.55 228.75 C 205.72 228.84 204.05 229.01 203.22 229.10 C 202.74 227.22 204.30 225.70 205.17 224.21 Z" />
<path fill="#ffffff" opacity="1.00" d=" M 157.14 241.24 C 157.50 241.05 158.22 240.68 158.58 240.49 C 161.94 242.33 161.95 246.38 162.65 249.66 C 166.56 270.85 167.89 292.38 170.62 313.72 C 174.33 334.18 178.32 354.58 182.24 375.00 L 142.39 375.00 C 138.27 369.86 134.95 364.15 131.51 358.55 C 123.71 345.72 116.22 332.64 110.28 318.83 C 108.77 315.41 107.53 311.59 108.40 307.83 C 109.59 302.54 114.22 298.90 118.79 296.52 C 123.25 295.13 127.33 299.13 131.78 298.70 C 133.39 298.07 132.63 296.00 132.91 294.73 C 129.26 295.36 125.49 295.50 121.91 294.41 C 123.56 287.93 130.44 285.23 134.46 280.44 C 140.59 273.13 145.94 265.20 151.77 257.65 C 155.43 252.93 155.47 246.72 157.14 241.24 Z" />
<path fill="#ffffff" opacity="1.00" d=" M 162.14 243.23 C 165.85 246.02 168.53 249.90 172.10 252.83 C 175.99 255.11 180.06 257.07 183.90 259.45 C 184.47 262.37 182.16 264.56 180.78 266.85 C 176.03 273.52 172.63 280.98 168.89 288.23 C 167.38 275.92 166.42 263.54 164.39 251.30 C 163.97 248.54 163.20 245.81 162.14 243.23 Z" />
<path fill="#ffffff" opacity="1.00" d=" M 139.65 250.62 C 144.52 248.92 149.24 246.63 154.42 246.02 C 153.59 250.24 152.83 254.68 150.14 258.18 C 144.67 265.66 138.82 272.85 133.02 280.08 C 129.49 284.54 124.31 287.40 121.08 292.13 C 118.67 296.14 113.57 297.14 110.78 300.82 C 106.41 305.15 105.73 312.08 108.44 317.48 C 117.71 337.41 128.49 356.66 140.62 375.00 L 46.48 375.00 C 43.08 367.74 38.28 361.21 35.14 353.84 C 31.45 341.24 30.97 327.97 29.99 314.94 C 30.01 313.03 29.18 310.50 31.32 309.40 C 53.59 291.58 79.92 280.09 105.11 267.14 C 116.49 261.38 127.60 254.94 139.65 250.62 Z" />
<path fill="#ffffff" opacity="1.00" d=" M 405.46 271.44 C 412.82 266.68 420.65 262.66 428.70 259.17 C 433.66 261.30 439.00 263.11 442.89 267.04 C 446.38 270.60 449.69 274.39 452.45 278.55 C 458.29 287.51 459.03 298.49 461.60 308.62 C 463.70 316.57 462.97 324.86 464.17 332.94 C 464.81 338.10 468.79 342.56 467.89 347.95 C 467.40 352.13 464.68 355.49 463.10 359.26 C 461.97 362.49 464.39 365.33 466.72 367.24 C 469.14 369.10 469.90 372.13 470.34 375.00 L 354.66 375.00 C 356.06 365.97 357.12 356.89 358.75 347.90 C 359.59 343.27 361.68 339.01 363.72 334.81 C 373.44 315.76 383.94 296.99 396.87 279.90 C 399.25 276.64 402.02 273.61 405.46 271.44 Z" />
<path fill="#ffffff" opacity="1.00" d=" M 185.29 261.94 C 192.70 263.64 200.33 262.70 207.85 263.14 C 208.35 265.94 209.28 268.80 208.79 271.67 C 208.27 273.98 205.48 274.63 203.52 273.73 C 203.78 278.51 202.82 283.63 205.01 288.09 C 205.74 289.55 206.08 291.14 206.15 292.78 C 200.78 289.29 194.30 289.51 188.18 290.03 C 187.86 289.51 187.21 288.48 186.89 287.96 C 189.76 287.42 188.83 283.74 190.73 282.07 C 188.49 280.73 185.26 278.64 186.55 275.55 C 188.17 273.95 190.75 275.13 192.77 274.74 C 194.49 273.89 195.19 272.01 196.15 270.50 C 193.52 270.30 190.78 270.68 188.23 269.94 C 186.16 268.89 183.93 268.21 181.89 267.13 C 183.03 265.40 184.17 263.67 185.29 261.94 Z" />
<path fill="#ffffff" opacity="1.00" d=" M 213.76 269.44 C 220.53 275.77 227.59 281.75 234.54 287.88 C 229.01 297.86 223.88 308.08 218.26 318.01 C 213.13 312.41 217.04 303.61 211.97 298.02 C 210.51 296.05 208.55 294.55 206.59 293.12 C 206.60 288.15 206.41 283.14 207.36 278.24 C 208.67 278.36 209.98 278.49 211.30 278.65 C 212.32 275.64 213.65 272.67 213.76 269.44 Z" />
<path fill="#ffffff" opacity="1.00" d=" M 174.39 279.95 C 175.90 282.44 178.34 284.12 181.25 284.51 C 184.04 284.78 185.43 287.43 186.67 289.60 C 185.46 293.75 184.58 297.99 183.24 302.11 C 181.91 306.16 179.29 309.59 177.34 313.34 C 175.82 316.08 174.97 319.15 173.14 321.72 C 171.56 313.56 170.70 305.30 169.79 297.05 C 169.52 294.38 168.82 291.58 169.90 289.00 C 171.08 285.83 173.03 283.03 174.39 279.95 Z" />
<path fill="#ffffff" opacity="1.00" d=" M 191.00 295.06 C 191.54 291.33 196.94 291.85 199.78 290.70 C 202.00 291.60 204.18 292.61 206.28 293.77 C 206.24 295.20 204.89 297.23 206.38 298.31 C 207.53 298.59 208.69 298.84 209.86 299.06 C 210.93 300.70 212.36 302.05 213.99 303.15 C 214.71 308.56 214.04 314.58 217.87 319.03 C 208.49 336.85 198.98 354.66 190.64 372.98 C 190.37 370.60 188.19 369.53 186.71 368.01 C 186.33 365.10 187.30 362.18 186.85 359.27 C 185.63 352.28 185.27 345.17 185.30 338.08 C 185.42 334.17 185.48 330.03 187.47 326.54 C 189.25 323.30 192.32 320.65 192.87 316.84 C 193.23 312.91 192.78 308.96 192.83 305.02 C 192.71 301.64 193.18 297.93 191.00 295.06 Z" />
<path fill="#ffffff" opacity="1.00" d=" M 186.36 293.76 C 186.74 295.01 187.11 296.28 187.47 297.55 C 188.33 298.52 190.30 298.45 190.42 300.00 C 190.79 302.89 189.96 305.79 189.79 308.69 C 188.76 309.19 187.73 309.69 186.71 310.19 C 186.67 311.42 187.24 313.26 185.88 314.00 C 183.05 315.04 179.97 315.10 177.06 315.78 C 178.35 313.17 179.67 310.57 181.26 308.13 C 184.20 303.88 184.86 298.60 186.36 293.76 Z" />
<path fill="#ffffff" opacity="1.00" d=" M 22.78 317.85 C 23.88 314.69 24.56 311.30 26.62 308.59 C 27.21 309.04 28.37 309.94 28.96 310.39 C 29.33 325.36 29.52 340.58 33.97 355.02 C 36.05 362.54 40.68 368.96 45.44 375.00 L 13.43 375.00 C 10.62 369.03 11.89 362.35 12.05 356.03 C 12.01 351.89 17.30 350.96 18.21 347.24 C 19.79 341.70 16.50 335.94 18.44 330.45 C 19.86 326.24 21.46 322.09 22.78 317.85 Z" />
</g>
</svg>
