<?xml version="1.0" encoding="utf-8"?>
<!-- Generator: Adobe Illustrator 15.0.2, SVG Export Plug-In . SVG Version: 6.00 Build 0)  -->
<!DOCTYPE svg PUBLIC "-//W3C//DTD SVG 1.1//EN" "http://www.w3.org/Graphics/SVG/1.1/DTD/svg11.dtd">
<svg version="1.1" id="Layer_1" xmlns="http://www.w3.org/2000/svg" xmlns:xlink="http://www.w3.org/1999/xlink" x="0px" y="0px"
	 width="209px" height="228px" viewBox="0 0 209 228" enable-background="new 0 0 209 228" xml:space="preserve">
<path fill="#FFFFFF" d="M0,0h209v228H0V0 M55.41,8.33c-5.7,3.2-12.68,5.47-15.96,11.6c0.41,1.07,0.94,2.08,1.42,3.12
	c3.1,1.85,6.44,3.44,9.01,6.04c3.64,3.57,6.98,7.5,11.08,10.58c-2.11-0.13-4.21-0.18-6.32-0.25c-4.09,3.97-7.94,8.18-12.23,11.93
	c-3.17,2.56-6.32,5.16-9.08,8.16c-2.26,6.24-4.99,12.31-7.79,18.34c-0.3,3.68-0.72,7.39-1.87,10.92c-0.15,3.09-0.88,6.1-1.27,9.16
	c-0.36,6.75-0.04,13.53-0.58,20.27c-0.25,7.03-1.29,14.46,2.16,20.92c3.87,6.45,7.99,12.76,11.84,19.22
	c2.39,4.17,6.85,6.41,10.21,9.67c3.61,2.59,7.34,5.79,12.03,5.86c7.27,1.94,14.86,0.09,22.19,1.55c0.56,1.34,1.01,2.78,2.1,3.811
	c1.46,3.41,0.91,7.17,0.98,10.77c-0.1,4.85,0.17,9.7-0.09,14.54c-1.57,5.59-6.71,10.26-5.72,16.45c0.56,1.5,1.63,2.75,2.43,4.13
	c3.37,2.28,7.47,2.59,11.36,1.729c-3.31-2.27-6.99-3.939-10.38-6.08c-0.88-2.42,1.22-4.51,2-6.649c1.52-3.97,4.49-7.67,3.98-12.15
	c-0.03-3.76-0.35-7.5-0.22-11.25c0.43-0.56,0.88-1.11,1.35-1.64c1.88,5.25,4.19,10.38,5.26,15.88c0.34,3.771,0.12,7.56,0.47,11.33
	c0.29,3.5,0.54,7,0.7,10.51c1.11,0.05,2.22,0.101,3.34,0.16c-0.93-6.41-1.15-12.87-1.57-19.319c-0.03-1.511-0.1-3.021-0.29-4.521
	c0.11-0.11,0.31-0.34,0.41-0.45c-2.03-5.359-4.47-10.58-5.86-16.17c4.13,0.41,6.03,4.8,9.35,6.811
	c2.64,4.77,7.919,6.67,11.669,10.26c0.65,6.649-2.02,12.93-3.209,19.34c0.439,0.54,1.31,1.63,1.739,2.18
	c0.81-1.52,1.58-3.04,2.341-4.58c0.08-3.199,0.56-6.4,1.909-9.33c0.33-2.99,0.14-6.01,0.16-9.01c-6.25-6.65-14.12-11.58-19.97-18.59
	c-2.4-3.28-5.96-5.26-8.81-8.04c5.99-0.76,12.05-0.181,18.07-0.38c5.221-0.73,10.62-0.43,15.73-1.85
	c2.33-1.32,4.629-2.701,6.89-4.121c3.819-1.959,7.771-3.909,10.68-7.159c4.78-4.921,9.931-9.45,14.91-14.14
	c1.521-2.82,2.431-5.98,3.601-8.971c1.33-3.74-1.471-8.7,2.1-11.5c0.01-13.88-0.02-27.75-0.25-41.62
	c-6.26-10.35-13.381-20.15-19.83-30.38c-1.939-3.36-5.561-5.16-8.33-7.73c-2.95-2.59-6.23-4.77-10.17-5.42
	c-4.23-3.24-9.12-5.42-13.91-7.68c-7.7-0.4-15.44-0.18-23.14,0.08c6.88-3.22,13.09-8.48,20.93-9.11c2.05-0.21,3.47-1.73,4.37-3.46
	c-7.27-0.4-12.97,5.53-20.19,5.35c-1.47-8.91-4.01-17.67-4.26-26.76C73.15,0,63.72,3.58,55.41,8.33 M186.311,23.3
	c-0.84,1.12-2.281,2.12-1.94,3.73c-0.05,5.17,0.09,10.34-0.07,15.51c0.32,0.04,0.95,0.11,1.261,0.15
	c-0.041,0.26-0.121,0.77-0.16,1.02c0.539,0.02,1.609,0.04,2.149,0.06c0.74-0.82,1.49-1.63,2.24-2.43l-1.22,0.16
	c0.1-2.33,0.08-4.73,1.07-6.9c0.729-0.03,2.199-0.1,2.93-0.14c0.99-0.99,1.97-1.98,2.959-2.97c0.061-2.76,0.221-5.93-1.959-8.01
	C191.18,23.02,188.721,23.29,186.311,23.3 M156.391,26.38c-0.391,0.44-1.181,1.32-1.58,1.76c-3.16,0.05-6.311,0.08-9.471,0.05
	c-0.39,1.33-0.779,2.66-1.16,4c-0.689,0.16-2.05,0.49-2.74,0.65c0.381,3.83,2.61,7.28,4.311,10.69c2.04,2,3.24,6.12,6.75,5.22
	c0.18-2.34,0.221-4.68,0.13-7.02c1.5-0.94,2.99-1.89,4.56-2.7c0.951-0.55,3.771-1.68,1.871-3.03c-2.521-1.35-5.34,1.45-8.041,1.42
	c-1.149-1.29-2.229-2.65-3.35-3.96c0.87-0.85,1.77-1.66,2.71-2.45l-0.14,1.81c0.539-0.46,1.609-1.37,2.14-1.83l-0.09,1.77
	c0.319-0.28,0.96-0.83,1.28-1.1c2.76,0.47,5.029-0.51,6.14-3.12c0-0.57,0-1.71,0.011-2.27C158.609,26.3,157.5,26.33,156.391,26.38
	 M167.58,30.42c-2.721,3.35-2.609,7.86-3.18,11.92c1.1,1.21,2.25,2.37,3.449,3.49c0.721-1.64,1.09-3.46,2.11-4.95
	c1.67-0.76,3.54-0.36,5.3-0.31c0.02,1.23,0.051,2.46,0.07,3.69c0.561,0.34,1.67,1,2.23,1.34c0.699-0.71,1.39-1.42,2.1-2.12
	c0.359-4.68-2.51-8.72-3.18-13.25C173.96,28.52,170.29,29.38,167.58,30.42 M178.55,75.63c-4.319,0.93-5.5,5.78-5.229,9.6
	c-1.17,2.48-3.211,4.93-2.65,7.84c1.21,0.58,2.58,0.63,3.891,0.86c0.529-1.79,0.979-3.6,1.359-5.43c2.46,0.53,4.88,1.24,7.28,1.97
	c0.069-1.12,0.78-2.47-0.14-3.41c-1.59-0.88-3.631-1.23-4.631-2.9c-0.22-1.77,1.521-2.76,2.34-4.08c1.791,0.45,3.551,1.05,5.28,1.72
	c1.601,1.3,3.3,0.65,4.101-1.09c-0.851-0.68-1.7-1.37-2.541-2.06C184.77,77.21,181.75,75.83,178.55,75.63 M187.71,87.19
	c-0.399,2.61-0.14,5.32-1.11,7.84c1.69,0.92,4.061,1.439,3.99,3.84c0.62-0.02,1.84-0.06,2.46-0.08c1.19-3.47,0.61-7.22,0.681-10.81
	c0.16-1.79-1.41-2.95-2.73-3.83C189.74,84.96,188.641,86.01,187.71,87.19 M199.55,85.47c-0.54,0.29-1.61,0.88-2.149,1.17
	c0.1,3.12-0.211,6.22-0.86,9.27c-0.069,2.15-0.761,4.83,1.5,6.16c1.181-1.04,1.89-2.44,2.7-3.75l-1.57-0.03
	c0.439-0.57,1.34-1.7,1.79-2.27c2.78-0.4,6.24-1.66,6.47-4.96C208.5,86.61,203.01,84.89,199.55,85.47 M198.45,137.27
	c-1.229,5.521-0.94,11.24-0.82,16.851c0.261,1.33,1.47,4.66,3.24,3.19c0.01-2.601-0.181-5.23,0.37-7.791
	c-0.061-0.27-0.17-0.819-0.221-1.1c0.15-0.71,0.451-2.12,0.601-2.82c1.83-0.55,3.72-0.91,5.55-1.479c0.88-2.431,0.561-5.19-1.12-7.2
	c-1.51-0.561-3.1-0.83-4.64-1.29C200.41,136.16,199.29,136.5,198.45,137.27 M173.29,137.42c-0.21,4.61,0.61,9.15,1.66,13.62
	c0.67,2.229,1.43,4.44,2.229,6.64c0.7-0.02,2.1-0.06,2.801-0.08c-0.75-2.97-1.78-5.91-1.51-9.02c1.629-0.24,3.27-0.439,4.909-0.221
	c0.06,1.61,0.149,3.23,0.229,4.841c0.631,1.86,1.211,3.75,1.851,5.62c0.56,0,1.69,0.02,2.25,0.029c0.39-2.41,0.72-4.81,0.979-7.229
	c0.36-0.021,1.101-0.06,1.471-0.08c0.74,0.87,1.55,4.399,3.02,2.45c0.84-3.5,0.65-7.311,0.12-10.85
	c-1.649-3.131-5.25-3.171-8.01-1.57c-0.069,0.689-0.21,2.09-0.29,2.789c-2.18,0.23-4.38,0.24-6.57,0.15
	c-0.609-1.16-2.64-2.13-1.479-3.63c1.989-0.84,6.92,0.94,5.899-2.63C180.05,136.4,176.43,137.55,173.29,137.42 M30.13,165.96
	c0.05,2.41,0.47,4.81,0.56,7.229c-3.19-0.939-2.06-5.049-4.34-6.789c-2.06-0.7-3.18,1.529-4.55,2.58
	c-0.6,0.119-1.81,0.379-2.41,0.51c-0.2,4.189,1.08,8.24,1.01,12.439c0.01,1.601,1.79,1.471,2.89,1.851
	c0.39-1.14,0.79-2.271,1.21-3.4c-0.38-0.03-1.14-0.08-1.53-0.11c0.81-0.939,1.64-1.859,2.5-2.739c1.57,0.659,3.12,1.39,4.87,1.329
	c0.18-0.469,0.53-1.399,0.7-1.859c0.4,1.52,0.18,3.29,1.15,4.62c1.14,0.12,2.28,0.2,3.42,0.25c0.3-1.95,0.48-3.92,0.84-5.87
	c1.6-1.641,3.14-3.35,4.09-5.46c-0.29-0.36-0.85-1.08-1.14-1.44c0.27-0.13,0.79-0.39,1.06-0.52c-0.5-0.86-0.98-1.73-1.46-2.6
	c-0.87-0.57-1.73-1.16-2.59-1.74C34.3,164.41,31.1,163.38,30.13,165.96 M7.81,167.689c-2.34,0.78-4.76,1.5-6.36,3.511
	c2.16,3.42,4.39,6.8,6.25,10.399c0.3,0.381,0.91,1.16,1.22,1.541c0.36,0.969,0.75,1.93,1.15,2.879c0.13,2.24,1.17,3.82,3.53,3.9
	c0.31-3.74-0.12-7.48-0.2-11.21c0.85,0.021,2.57,0.06,3.43,0.09c0.92-1.3,1.6-2.739,2.02-4.28c-0.95-0.039-2.85-0.119-3.8-0.16
	c-0.86,0.971-2.13,0.921-3.29,1.07c-0.07-1.56-0.06-3.13,0.04-4.689c1.29-0.07,2.59-0.131,3.88-0.18
	c0.77-0.841,1.53-1.681,2.29-2.521c-0.7-0.82-1.4-1.649-2.1-2.47C13.17,166.23,10.51,167.05,7.81,167.689 M126.37,182.3
	c0.409,0.79,0.819,1.58,1.229,2.38c4.23-0.64,7.221,2.37,10.49,4.4c0.471,1.22,0.95,2.43,1.43,3.64c0.44-0.02,1.34-0.06,1.791-0.079
	c0.31-0.551,0.91-1.631,1.219-2.181C139.609,184.73,133.02,179.66,126.37,182.3 M50.71,188.42c-2.47,2.86-1.12,6.8-1.36,10.21
	c0.6,0.021,1.79,0.06,2.38,0.08c0.65-4.44,1.25-9,3.89-12.79C53.53,183.859,51.98,187.02,50.71,188.42 M57.69,193.98
	c0.13,3.16-1.07,6.149-1.14,9.25c-0.13,1.76,2,1.479,2.94,0.8c-0.23-3.851,1.38-7.39,2.51-10.97
	C60.58,193.33,58.9,193.02,57.69,193.98 M136.9,199c2.189,1.93,3.609,4.55,3.74,7.5c0.27,0.51,0.789,1.52,1.06,2.03
	c0.61,0.3,1.84,0.92,2.45,1.22c1.56-2.62-1.23-4.79-1.74-7.26c-0.84-3.44-3.53-5.85-6.12-8.04
	C133.96,195.38,135.689,197.939,136.9,199 M65.33,198.32c-2.97,3.039-4.83,7.33-3.56,11.58c0.98,1.13,2.16,2.08,3.3,3.039
	c0.35-0.59,1.04-1.77,1.39-2.369c-3.49-2.711-0.74-7.351,1.18-10.18c0.02-0.521,0.05-1.561,0.06-2.08
	C67.11,198.311,65.92,198.32,65.33,198.32 M130.37,201.9c1.851,2.699,3.659,5.49,4.159,8.81c0.4,0.31,1.191,0.94,1.591,1.25
	c0.13,0.74,0.39,2.229,0.521,2.97c0.93-0.26,1.85-0.56,2.76-0.89c0.72-2.431-1.19-4.31-2.211-6.29c-1.5-2.21-1.789-4.9-2.609-7.37
	C132.84,199.859,129.54,198.83,130.37,201.9 M157.939,206.141c-0.549,0.899-1.09,1.799-1.609,2.719
	c0.88,1.66,1.189,3.511,1.67,5.311c0.9,0.26,1.811,0.48,2.73,0.66C160.859,211.7,161.73,207.45,157.939,206.141z"/>
<path fill="#000200" d="M55.41,8.33C63.72,3.58,73.15,0,82.88,0.69c0.25,9.09,2.79,17.85,4.26,26.76
	c7.22,0.18,12.92-5.75,20.19-5.35c-0.9,1.73-2.32,3.25-4.37,3.46c-7.84,0.63-14.05,5.89-20.93,9.11c7.7-0.26,15.44-0.48,23.14-0.08
	c4.79,2.26,9.68,4.44,13.91,7.68c3.939,0.65,7.22,2.83,10.17,5.42c2.77,2.57,6.391,4.37,8.33,7.73
	c6.449,10.23,13.57,20.03,19.83,30.38c0.23,13.87,0.26,27.74,0.25,41.62c-3.57,2.8-0.77,7.76-2.1,11.5
	c-1.17,2.99-2.08,6.15-3.601,8.971c-4.979,4.689-10.13,9.219-14.91,14.14c-2.909,3.25-6.86,5.2-10.68,7.159
	c-2.261,1.42-4.56,2.801-6.89,4.121c-5.11,1.42-10.51,1.119-15.73,1.85c-6.02,0.199-12.08-0.38-18.07,0.38
	c2.85,2.78,6.41,4.76,8.81,8.04c5.85,7.01,13.72,11.939,19.97,18.59c-0.021,3,0.17,6.02-0.16,9.01
	c-1.35,2.93-1.829,6.131-1.909,9.33c-0.761,1.54-1.531,3.061-2.341,4.58c-0.43-0.55-1.3-1.64-1.739-2.18
	c1.189-6.41,3.859-12.69,3.209-19.34c-3.75-3.59-9.029-5.49-11.669-10.26c-3.32-2.011-5.22-6.4-9.35-6.811
	c1.39,5.59,3.83,10.811,5.86,16.17c-0.1,0.11-0.3,0.34-0.41,0.45c0.19,1.5,0.26,3.01,0.29,4.521c0.42,6.449,0.64,12.909,1.57,19.319
	c-1.12-0.06-2.23-0.11-3.34-0.16c-0.16-3.51-0.41-7.01-0.7-10.51c-0.35-3.771-0.13-7.56-0.47-11.33c-1.07-5.5-3.38-10.63-5.26-15.88
	c-0.47,0.529-0.92,1.08-1.35,1.64c-0.13,3.75,0.19,7.49,0.22,11.25c0.51,4.48-2.46,8.181-3.98,12.15c-0.78,2.14-2.88,4.229-2,6.649
	c3.39,2.141,7.07,3.811,10.38,6.08c-3.89,0.86-7.99,0.551-11.36-1.729c-0.8-1.38-1.87-2.63-2.43-4.13
	c-0.99-6.19,4.15-10.86,5.72-16.45c0.26-4.84-0.01-9.69,0.09-14.54c-0.07-3.6,0.48-7.359-0.98-10.77
	c-1.09-1.03-1.54-2.471-2.1-3.811c-7.33-1.46-14.92,0.391-22.19-1.55c-4.69-0.07-8.42-3.271-12.03-5.86
	c-3.36-3.26-7.82-5.5-10.21-9.67c-3.85-6.46-7.97-12.77-11.84-19.22c-3.45-6.46-2.41-13.89-2.16-20.92
	c0.54-6.74,0.22-13.52,0.58-20.27c0.39-3.06,1.12-6.07,1.27-9.16c1.15-3.53,1.57-7.24,1.87-10.92c2.8-6.03,5.53-12.1,7.79-18.34
	c2.76-3,5.91-5.6,9.08-8.16c4.29-3.75,8.14-7.96,12.23-11.93c2.11,0.07,4.21,0.12,6.32,0.25c-4.1-3.08-7.44-7.01-11.08-10.58
	c-2.57-2.6-5.91-4.19-9.01-6.04c-0.48-1.04-1.01-2.05-1.42-3.12C42.73,13.8,49.71,11.53,55.41,8.33 M50.16,14.94
	c2.25,3.75,5.98,6.43,7.58,10.57c4.81,2.021,9.73,5.06,11.04,10.51c1.39-0.65,2.78-1.32,4.16-2.01c-3.14-6.28-9.86-9.62-13.47-15.56
	c-1.34-2.26-2.11-4.8-3.28-7.15C54.16,12.48,52.16,13.71,50.16,14.94 M62.62,47.97c3.34-1.51,6.96-2.13,10.44-3.18
	c0.29-0.03,0.88-0.11,1.17-0.14c1.68,1.1,4.8,2.98,2.85,5.27c-1.07-0.72-1.93-1.68-2.86-2.55c-2.78,0.49-8.42-0.29-8.08,3.87
	c-0.81-0.01-2.42-0.05-3.23-0.07c-1.46,2.16-2.77,4.41-4.01,6.7c1.85-1.58,3.8-3.06,5.95-4.19c4.67-0.63,9.95-0.79,13.77,2.43
	c0.98,0.56,1.96,1.1,2.96,1.64l-0.27,0.73c0.69,0.25,2.07,0.74,2.76,0.99c1.44,0.12,3.42-0.79,4.42,0.68
	c0.68,1.99,0.94,4.14,0.32,6.18c-0.06-1.07-0.18-3.21-0.24-4.28c-1.01-0.4-2.03-0.83-3.15-0.72c0.18,2.5,0.49,5.15-0.68,7.48
	c-0.08,4.31-1.34,9.03-5.14,11.54c-6.05,3.98-13.79,3.33-20.35,1.07c0.21,19.46,1.22,39.07-1.84,58.38
	c-0.69-0.06-2.06-0.17-2.75-0.229c1.36-6.131,1.84-12.4,2.53-18.631c1.22-14.029,1.59-28.81-3.9-42.069c1.26-0.62,2.54-1.2,3.75-1.9
	c-0.47-3.15-2.2-5.99-2.4-9.18c0.3-2.77,1.99-5.25,1.81-8.09c0-2,1.13-3.79,1.6-5.68c-0.96,0.81-2.87,2.43-3.83,3.24
	c0.66-2.62,2.45-4.69,4.1-6.729c-0.32-0.45-0.96-1.35-1.28-1.811c3.15-1.45,7.4-2.65,8.13-6.59c-3.24,2.05-7.08,3.69-9.03,7.21
	c-1.86,0.29-3.72,0.5-5.59,0.65c0.37-0.97,0.75-1.93,1.13-2.89c-1.05,1.75-2.13,3.55-3.82,4.77c-3.37,2.59-6.35,5.63-9.61,8.34
	c-2.24,1.5-2.34,4.4-3.41,6.64c-1.6,3.09-2.31,6.85-5.08,9.18c-0.15,1.68-0.27,3.35-0.43,5.03c-1.6,4.14-0.9,8.84-2.67,12.94
	c-0.01,0.44-0.03,1.33-0.04,1.78c-0.49,4.06-0.03,8.18-0.83,12.21c-0.28,7.01-0.22,14.029-0.41,21.05
	c-0.11,2.49,0.88,4.83,1.39,7.229c4.36,7.08,8.69,14.16,12.93,21.311c4.54,3.39,8.42,8.12,13.72,10.23l-0.29,0.629
	c2.27,0.65,4.56,1.181,6.8,1.91c6.01,0.601,12.07,0.291,18.1,0.37c12.34-0.069,24.69,0.271,37.031-0.329
	c1.899,0.01,3.439-1.311,5.109-2.07c1.561-1.141,3.21-2.16,4.859-3.16c8.271-4.36,14.73-11.12,21.351-17.57l-0.09-0.24
	c2.66-1.209,3.931-3.74,4.95-6.31c0.13-0.5,0.4-1.5,0.529-1.99c1.431-2.45,0.551-5.38,0.721-8.05c-0.17-2.74,1.4-5.23,1.199-7.97
	c-0.02-11.34-0.029-22.68,0.011-34.021c-0.021-1.58,0.05-3.28-1.011-4.59c-6.049-9.29-12.09-18.6-18.25-27.83
	c-2.92-3.78-7.35-6.01-11.35-8.45c-4.09-1.3-7.77-3.47-11.33-5.82c-1.58-0.83-3.16-1.63-4.699-2.53
	c-1.621-0.65-3.221-1.52-5.021-1.41c-8.67-0.11-17.34,0.12-26.01,0.3C70.14,39,65.75,43.37,62.62,47.97 M55.36,43.08
	c-1.53,0.29-1.33,2.92,0.39,1.88C57.28,44.66,57.08,42.04,55.36,43.08 M60.87,60.79c-5.83,5.29-4.17,15.97,2.5,19.79
	c5.5,2.76,12.95,1.54,16.78-3.45c2.66-3.1,3.31-7.29,3.27-11.24c-1.58-3.24-3.54-6.9-7.34-7.84C71.01,57.01,64.92,57.1,60.87,60.79
	 M84.05,63.93c-0.02-0.65-0.06-1.95-0.09-2.59C81.82,57.88,81.83,64.13,84.05,63.93z"/>
<path fill="#F8FAF7" d="M50.16,14.94c2-1.23,4-2.46,6.03-3.64c1.17,2.35,1.94,4.89,3.28,7.15c3.61,5.94,10.33,9.28,13.47,15.56
	c-1.38,0.69-2.77,1.36-4.16,2.01c-1.31-5.45-6.23-8.49-11.04-10.51C56.14,21.37,52.41,18.69,50.16,14.94z"/>
<path fill="#000200" d="M186.311,23.3c2.41-0.01,4.869-0.28,7.26,0.18c2.18,2.08,2.02,5.25,1.959,8.01
	c-0.989,0.99-1.969,1.979-2.959,2.97c-0.73,0.04-2.2,0.11-2.93,0.14c-0.99,2.17-0.971,4.57-1.07,6.9l1.22-0.16
	c-0.75,0.8-1.5,1.61-2.24,2.43c-0.54-0.02-1.61-0.04-2.149-0.06c0.039-0.25,0.119-0.76,0.16-1.02c-0.311-0.04-0.94-0.11-1.261-0.15
	c0.16-5.17,0.021-10.34,0.07-15.51C184.029,25.42,185.471,24.42,186.311,23.3 M188.48,26.54c-0.11,1.69-0.17,3.39-0.16,5.09
	c1.029-0.44,2.06-0.9,3.1-1.34c-0.04-1.2-0.07-2.4-0.1-3.59C190.37,26.64,189.42,26.59,188.48,26.54z"/>
<path fill="#000200" d="M156.391,26.38c1.109-0.05,2.219-0.08,3.33-0.11c-0.011,0.56-0.011,1.7-0.011,2.27
	c-1.11,2.61-3.38,3.59-6.14,3.12c-0.32,0.27-0.961,0.82-1.28,1.1l0.09-1.77c-0.53,0.46-1.601,1.37-2.14,1.83l0.14-1.81
	c-0.94,0.79-1.84,1.6-2.71,2.45c1.12,1.31,2.2,2.67,3.35,3.96c2.701,0.03,5.521-2.77,8.041-1.42c1.899,1.35-0.92,2.48-1.871,3.03
	c-1.569,0.81-3.06,1.76-4.56,2.7c0.091,2.34,0.05,4.68-0.13,7.02c-3.51,0.9-4.71-3.22-6.75-5.22c-1.7-3.41-3.93-6.86-4.311-10.69
	c0.69-0.16,2.051-0.49,2.74-0.65c0.381-1.34,0.771-2.67,1.16-4c3.16,0.03,6.311,0,9.471-0.05C155.21,27.7,156,26.82,156.391,26.38z"
	/>
<path fill="#F6F8F4" d="M188.48,26.54c0.939,0.05,1.89,0.1,2.84,0.16c0.029,1.19,0.06,2.39,0.1,3.59c-1.04,0.44-2.07,0.9-3.1,1.34
	C188.311,29.93,188.37,28.23,188.48,26.54z"/>
<path fill="#000200" d="M167.58,30.42c2.71-1.04,6.38-1.9,8.9-0.19c0.67,4.53,3.539,8.57,3.18,13.25c-0.71,0.7-1.4,1.41-2.1,2.12
	c-0.561-0.34-1.67-1-2.23-1.34c-0.02-1.229-0.051-2.46-0.07-3.69c-1.76-0.05-3.63-0.45-5.3,0.31c-1.021,1.49-1.39,3.31-2.11,4.95
	c-1.199-1.12-2.35-2.28-3.449-3.49C164.971,38.28,164.859,33.77,167.58,30.42 M169.37,34.33c-0.021,0.55-0.07,1.67-0.091,2.23
	c1.441-0.12,2.891-0.23,4.341-0.33c-0.091-1.25-0.181-2.49-0.271-3.74C171.9,32.82,170.52,33.36,169.37,34.33z"/>
<path fill="#EBEEEA" d="M169.37,34.33c1.149-0.97,2.53-1.51,3.979-1.84c0.09,1.25,0.18,2.49,0.271,3.74
	c-1.45,0.1-2.899,0.21-4.341,0.33C169.3,36,169.35,34.88,169.37,34.33z"/>
<path fill="#FEFFFC" d="M62.62,47.97c3.13-4.6,7.52-8.97,13.41-9.29c8.67-0.18,17.34-0.41,26.01-0.3c1.8-0.11,3.399,0.76,5.021,1.41
	c1.539,0.9,3.119,1.7,4.699,2.53c3.561,2.35,7.24,4.52,11.33,5.82c-1.119-0.05-2.24-0.1-3.359-0.12c-0.26,0.87-0.53,1.74-0.801,2.61
	c-1.39-0.76-2.85-1.36-4.34-1.88c-4.21,1.33-8.77-1.03-12.89,0.92c-3.29,0.75-5.01,3.77-6.36,6.56c0.91,1.66,1.8,3.33,2.64,5.04
	c-0.41,0.55-1.22,1.64-1.62,2.19c1.1,0.78,2.21,1.57,3.32,2.35c-0.14-1.17-0.27-2.35-0.38-3.53c1.23,0.46,2.44,0.97,3.66,1.47
	c0.31,0.27,0.93,0.83,1.24,1.11c0.54,0.81,1.079,1.63,1.6,2.46c1.351,0.05,2.7,0.09,4.06,0.14c1.92,1.37,4.091,2.39,6.511,2.08
	c-2.271-1.87-4.591-3.69-7.011-5.35c3.451-0.81,7.341-3.36,7.351-7.29c0.22-2.48-1.42-4.57-2.239-6.78
	c2.42,0.85,4.309,2.56,5.729,4.66c0.28-0.42,0.85-1.25,1.14-1.67c0.18-0.27,0.551-0.81,0.74-1.09
	c11.359,13.28,20.75,28.64,25.061,45.71c1.93,11.31,1.069,22.85,1.27,34.27c0.42,5.29-4.85,10.22-2.12,15.35l0.09,0.24
	c-6.62,6.45-13.08,13.21-21.351,17.57c-1.649,1-3.299,2.02-4.859,3.16c-1.67,0.76-3.21,2.08-5.109,2.07
	c-12.34,0.6-24.69,0.26-37.031,0.329c-6.03-0.079-12.09,0.23-18.1-0.37c-2.24-0.729-4.53-1.26-6.8-1.91l0.29-0.629
	c1.36,0.209,2.73,0.39,4.11,0.549c-4.8-4.869-11.67-7.409-15.54-13.239c-4.2-6.351-8.67-12.67-11.05-19.97
	c-2.14-6.5-3.86-13.24-3.89-20.12c-0.03-6.42-0.34-12.83-0.43-19.25c0.01-0.45,0.03-1.34,0.04-1.78c1.77-4.1,1.07-8.8,2.67-12.94
	c0.16-1.68,0.28-3.35,0.43-5.03c2.77-2.33,3.48-6.09,5.08-9.18c1.07-2.24,1.17-5.14,3.41-6.64c3.26-2.71,6.24-5.75,9.61-8.34
	c1.69-1.22,2.77-3.02,3.82-4.77c-0.38,0.96-0.76,1.92-1.13,2.89c1.87-0.15,3.73-0.36,5.59-0.65c1.95-3.52,5.79-5.16,9.03-7.21
	c-0.73,3.94-4.98,5.14-8.13,6.59c0.32,0.46,0.96,1.36,1.28,1.811c-1.65,2.04-3.44,4.11-4.1,6.729c0.96-0.81,2.87-2.43,3.83-3.24
	c-0.47,1.89-1.6,3.68-1.6,5.68c0.18,2.84-1.51,5.32-1.81,8.09c0.2,3.19,1.93,6.03,2.4,9.18c-1.21,0.7-2.49,1.28-3.75,1.9
	c5.49,13.26,5.12,28.04,3.9,42.069c-0.69,6.23-1.17,12.5-2.53,18.631c0.69,0.06,2.06,0.17,2.75,0.229
	c3.06-19.31,2.05-38.92,1.84-58.38c6.56,2.26,14.3,2.91,20.35-1.07c3.8-2.51,5.06-7.23,5.14-11.54c1.17-2.33,0.86-4.98,0.68-7.48
	c1.12-0.11,2.14,0.32,3.15,0.72c0.06,1.07,0.18,3.21,0.24,4.28c0.62-2.04,0.36-4.19-0.32-6.18c-1-1.47-2.98-0.56-4.42-0.68
	c-0.69-0.25-2.07-0.74-2.76-0.99l0.27-0.73c-1-0.54-1.98-1.08-2.96-1.64c0.25-1.12,0.52-2.23,0.78-3.35
	c-4.85,0.23-9.82-0.479-14.55,0.92c-2.15,1.13-4.1,2.61-5.95,4.19c1.24-2.29,2.55-4.54,4.01-6.7c0.81,0.02,2.42,0.06,3.23,0.07
	c-0.34-4.16,5.3-3.38,8.08-3.87c0.93,0.87,1.79,1.83,2.86,2.55c1.95-2.29-1.17-4.17-2.85-5.27c-0.29,0.03-0.88,0.11-1.17,0.14
	C69.58,45.84,65.96,46.46,62.62,47.97 M81.6,44c-0.26,2.39,0.82,4.05,3.39,4.19c1.69,0.64,3.53,1,4.92-0.47
	c2.5-2.46,6.14-1.81,9.2-2.939c2.96-0.15,5.93-0.16,8.871-0.48c-3.311-3.43-8.73-1.2-12.99-1.54c-1.67,0.72-3.38,1.36-5.08,2.021
	l-0.92,0.689c-2.14,0.13-5.88,1.26-5.89-2.04C82.73,43.57,81.97,43.86,81.6,44 M91.51,50.76c0.26,0.68,0.79,2.04,1.05,2.72
	c0.63,0.18,1.88,0.54,2.5,0.73c-0.37-1.05-0.73-2.09-1.09-3.13c0.87-1.19,1.76-2.44,1.45-4.02C93.95,48.11,92.65,49.37,91.51,50.76
	 M87.43,69.7c-0.06,0.87-0.18,2.6-0.24,3.47c-1.01,1.55-2.03,3.09-3.05,4.64c0.99-0.12,1.98-0.24,2.97-0.36
	C87.81,75,90.86,71.29,87.43,69.7 M121.4,70.24c0.01,0.49,0.029,1.479,0.039,1.97c1.791,0.48,3.57,1.06,5.281,1.78
	c0.159,0.83,0.459,2.49,0.609,3.32c1.02-0.73,2.74-1.78,1.58-3.25C127.9,70.85,124.25,70.42,121.4,70.24 M107.01,76.35
	c-1.23,0.08-2.15,0.86-3.06,1.59c-3.06,1.45-5.88,3.56-7.67,6.49c-1.74,2.72-4.43,5.05-5,8.36l-0.64-1.17
	c-0.18,2.24-0.5,5.5-3.68,4.99c-0.58,2.54,2.93,5.16,0.5,7.12c0.64-0.19,1.92-0.56,2.55-0.75c-0.22,0.67-0.66,2.01-0.88,2.68
	c1.18-1.84,3.11-0.18,4.73-0.09c1.8-0.37,3.13-1.7,4.17-3.13c-1.76-0.23-3.48,0.04-4.92,1.13c-1.93-1.76-4.12-3.6-4.21-6.45
	c0.76-0.16,2.28-0.48,3.04-0.64l0.33-0.69l0.01,0.03c0.06-1.31,0.11-2.62,0.14-3.92c0.79-0.68,1.56-1.37,2.32-2.07
	c2.27-1.3,4.46-4.15,7.36-3.07c1.9,1.23,3.77-1.07,5.57,0.42c-1.54,1.7-1.52,4.07-1.859,6.19c3.029-0.99,6.219-3.52,6.08-7.01
	c0.219-0.23,0.649-0.7,0.869-0.93c1.35-0.05,2.7-0.11,4.051-0.16c-0.11-0.34-0.34-1.04-0.461-1.38c1.9-0.82,3.811-1.61,5.76-2.3
	c0.201,1.49,0.371,2.97,0.551,4.46c2.73-0.38,2.05,2.33,1.25,3.67c1.25-0.82,2.439-1.71,3.64-2.58c-2.92-2.39-3.47-6.33-3.26-9.87
	c-1.22-1.11-2.351-2.78-4.229-2.51C115.561,74.05,111.43,76.31,107.01,76.35 M84.93,91.98c-0.32,1.96,1.41,1.89,2.82,2.18
	c-0.43-3.03-0.24-6.23,1.65-8.78c1.66-3.35,5.57-5.54,5.75-9.55C89.97,79.59,84.67,85.14,84.93,91.98 M114.23,89.3
	c-0.59,0.93-1.53,2.84,0.02,3.38C117.061,94.04,117.279,87.71,114.23,89.3 M131.48,103.54c-0.65,1.12-1.471,2.13-2.25,3.15
	c0.629-0.06,1.89-0.19,2.52-0.25c2.33-1.88,2.23-4.79,1.939-7.5C131.6,99.49,132.17,101.97,131.48,103.54 M133.3,111.08
	c2.25,2.27,6.12,2.76,7.41,6.04c0.101,4.03-1.64,8.33-5.33,10.3c-0.87,0.63-3.21,1.66-1.569,2.891
	c6.359-0.771,8.91-8.101,9.779-13.641C140.91,114.01,137.71,108.58,133.3,111.08 M129.7,113.37c1.489,6.04,1.3,12.91-2.65,18.01
	c-0.34,0.03-1.03,0.08-1.38,0.11c-1.77-2.36-4.109,0.35-6.109,0.869c-3.601,1.57-7.021-1.359-10.57-1.219
	c1,2.5,4.13,3.549,4.369,6.459c2.301,1.34,5.091,2.561,7.69,1.26c8.07-3.109,12.71-12.35,12.3-20.709
	C132.87,116.07,132.7,112.44,129.7,113.37z"/>
<path fill="#383A37" d="M55.36,43.08c1.72-1.04,1.92,1.58,0.39,1.88C54.03,46,53.83,43.37,55.36,43.08z"/>
<path fill="#686967" d="M81.6,44c0.37-0.14,1.13-0.43,1.5-0.57c0.01,3.3,3.75,2.17,5.89,2.04c-1.31,0.95-2.63,1.87-4,2.72
	C82.42,48.05,81.34,46.39,81.6,44z"/>
<path fill="#464845" d="M89.91,44.78c1.7-0.66,3.41-1.3,5.08-2.021c4.26,0.34,9.68-1.89,12.99,1.54
	c-2.94,0.32-5.911,0.33-8.871,0.48c-3.06,1.13-6.7,0.479-9.2,2.939c-1.39,1.47-3.23,1.11-4.92,0.47c1.37-0.85,2.69-1.77,4-2.72
	L89.91,44.78z"/>
<path fill="#787A77" d="M91.51,50.76c1.14-1.39,2.44-2.65,3.91-3.7c0.31,1.58-0.58,2.83-1.45,4.02c0.36,1.04,0.72,2.08,1.09,3.13
	c-0.62-0.19-1.87-0.55-2.5-0.73C92.3,52.8,91.77,51.44,91.51,50.76z"/>
<path fill="#757774" d="M101.7,49.67c4.12-1.95,8.68,0.41,12.89-0.92c1.49,0.52,2.95,1.12,4.34,1.88c0.83,0.8,1.61,1.65,2.41,2.48
	c-0.29,0.42-0.859,1.25-1.14,1.67c-1.421-2.1-3.31-3.811-5.729-4.66c0.819,2.21,2.459,4.3,2.239,6.78
	c-0.01,3.93-3.899,6.48-7.351,7.29c-2.129-0.19-4.27-0.28-6.399-0.44c-1.22-0.5-2.43-1.01-3.66-1.47c0.11,1.18,0.24,2.36,0.38,3.53
	c-1.11-0.78-2.22-1.57-3.32-2.35c0.4-0.55,1.21-1.64,1.62-2.19c-0.84-1.71-1.73-3.38-2.64-5.04C96.69,53.44,98.41,50.42,101.7,49.67
	 M99.19,53.27c-0.34,1.24-0.62,2.49-0.85,3.76c2.45,5.89,11.85,7.3,15.439,1.76c2.23-3.36-1.189-7.39-4.709-7.56
	C105.609,50.63,102.28,51.85,99.19,53.27z"/>
<path fill="#D9DBD7" d="M119.73,48.02c1.119,0.02,2.24,0.07,3.359,0.12c4,2.44,8.43,4.67,11.35,8.45
	c6.16,9.23,12.201,18.54,18.25,27.83c1.061,1.31,0.99,3.01,1.011,4.59c-0.04,11.34-0.03,22.68-0.011,34.021
	c0.201,2.739-1.369,5.229-1.199,7.97c-0.17,2.67,0.71,5.6-0.721,8.05c-0.129,0.49-0.399,1.49-0.529,1.99
	c-1.02,2.569-2.29,5.101-4.95,6.31c-2.729-5.13,2.54-10.06,2.12-15.35c-0.2-11.42,0.66-22.96-1.27-34.27
	c-4.311-17.07-13.701-32.43-25.061-45.71c-0.189,0.28-0.561,0.82-0.74,1.09c-0.8-0.83-1.58-1.68-2.41-2.48
	C119.2,49.76,119.471,48.89,119.73,48.02z"/>
<path fill="#FEFFFC" d="M99.19,53.27c3.09-1.42,6.419-2.64,9.88-2.04c3.52,0.17,6.939,4.2,4.709,7.56
	c-3.59,5.54-12.989,4.13-15.439-1.76C98.57,55.76,98.85,54.51,99.19,53.27 M107.891,55.71c-0.851,0.75-1.69,1.5-2.531,2.25
	c0.531,0.88,1.051,1.77,1.57,2.66c1.9,0.18,3.09-0.96,3.721-2.66c-0.41-0.55-1.23-1.67-1.641-2.23
	C108.73,55.73,108.17,55.72,107.891,55.71z"/>
<path fill="#939592" d="M64.85,53.68c4.73-1.4,9.7-0.69,14.55-0.92c-0.26,1.12-0.53,2.23-0.78,3.35
	C74.8,52.89,69.52,53.05,64.85,53.68z"/>
<path fill="#131412" d="M107.891,55.71c0.279,0.01,0.84,0.02,1.119,0.02c0.41,0.56,1.23,1.68,1.641,2.23
	c-0.631,1.7-1.82,2.84-3.721,2.66c-0.52-0.89-1.039-1.78-1.57-2.66C106.2,57.21,107.04,56.46,107.891,55.71z"/>
<path fill="#FEFFFC" d="M60.87,60.79c4.05-3.69,10.14-3.78,15.21-2.74c3.8,0.94,5.76,4.6,7.34,7.84c0.04,3.95-0.61,8.14-3.27,11.24
	c-3.83,4.99-11.28,6.21-16.78,3.45C56.7,76.76,55.04,66.08,60.87,60.79z"/>
<path fill="#A9ABA7" d="M84.05,63.93c-2.22,0.2-2.23-6.05-0.09-2.59C83.99,61.98,84.03,63.28,84.05,63.93z"/>
<path fill="#9A9B98" d="M102.96,63.75c2.13,0.16,4.271,0.25,6.399,0.44c2.42,1.66,4.74,3.48,7.011,5.35
	c-2.42,0.31-4.591-0.71-6.511-2.08c-1.359-0.05-2.709-0.09-4.06-0.14c-0.521-0.83-1.06-1.65-1.6-2.46
	C103.89,64.58,103.27,64.02,102.96,63.75z"/>
<path fill="#7E807D" d="M87.43,69.7c3.43,1.59,0.38,5.3-0.32,7.75c-0.99,0.12-1.98,0.24-2.97,0.36c1.02-1.55,2.04-3.09,3.05-4.64
	C87.25,72.3,87.37,70.57,87.43,69.7z"/>
<path fill="#9A9B98" d="M121.4,70.24c2.85,0.18,6.5,0.61,7.51,3.82c1.16,1.47-0.561,2.52-1.58,3.25c-0.15-0.83-0.45-2.49-0.609-3.32
	c-1.711-0.72-3.49-1.3-5.281-1.78C121.43,71.72,121.41,70.73,121.4,70.24z"/>
<path fill="#4C4E4B" d="M107.01,76.35c4.42-0.04,8.551-2.3,13.051-1.59c1.879-0.27,3.01,1.4,4.229,2.51
	c-0.21,3.54,0.34,7.48,3.26,9.87c-1.2,0.87-2.39,1.76-3.64,2.58c0.8-1.34,1.48-4.05-1.25-3.67c-0.18-1.49-0.35-2.97-0.551-4.46
	c-1.949,0.69-3.859,1.48-5.76,2.3c-0.41-0.38-1.229-1.15-1.64-1.53c2.2-1.66,4.84-2.51,7.33-3.63c-3.83-3.02-8.771,0.46-13.04-0.55
	C108.5,77.72,107.51,76.81,107.01,76.35z"/>
<path fill="#000200" d="M178.55,75.63c3.2,0.2,6.22,1.58,9.06,3.02c0.841,0.69,1.69,1.38,2.541,2.06
	c-0.801,1.74-2.5,2.39-4.101,1.09c-1.729-0.67-3.489-1.27-5.28-1.72c-0.819,1.32-2.56,2.31-2.34,4.08c1,1.67,3.041,2.02,4.631,2.9
	c0.92,0.94,0.209,2.29,0.14,3.41c-2.4-0.729-4.82-1.439-7.28-1.97c-0.38,1.83-0.83,3.64-1.359,5.43
	c-1.311-0.23-2.681-0.28-3.891-0.86c-0.561-2.91,1.48-5.36,2.65-7.84C173.05,81.41,174.23,76.56,178.55,75.63z"/>
<path fill="#ECEEEB" d="M84.93,91.98c-0.26-6.84,5.04-12.39,10.22-16.15c-0.18,4.01-4.09,6.2-5.75,9.55
	c-1.89,2.55-2.08,5.75-1.65,8.78C86.34,93.87,84.61,93.94,84.93,91.98z"/>
<path fill="#D9DBD7" d="M103.95,77.94c0.91-0.73,1.829-1.51,3.06-1.59c0.5,0.46,1.49,1.37,1.99,1.83c4.27,1.01,9.21-2.47,13.04,0.55
	c-2.49,1.12-5.13,1.97-7.33,3.63c-0.38,0.26-1.149,0.79-1.53,1.05l-0.729-0.85c1.61-1.26,3.229-2.53,4.84-3.8
	c-3.63,0.3-7.25,0.69-10.88,0.93l0.21-0.43c-0.07-0.66-0.181-1.32-0.33-1.97L103.95,77.94z"/>
<path fill="#040702" d="M96.28,84.43c1.79-2.93,4.61-5.04,7.67-6.49l2.34-0.65c0.149,0.65,0.26,1.31,0.33,1.97l-0.21,0.43
	c-2.74,0.52-5.05,2.14-6.62,4.44c1.11,0.14,3.32,0.42,4.43,0.57c0.35-0.29,1.049-0.86,1.4-1.15c2.14,1.35,5.72,2.17,6.351-1.24
	c0.119,0.07,0.359,0.19,0.479,0.25l0.729,0.85c0.381-0.26,1.15-0.79,1.53-1.05c0.41,0.38,1.229,1.15,1.64,1.53
	c0.121,0.34,0.351,1.04,0.461,1.38c-1.351,0.05-2.701,0.11-4.051,0.16c-0.22,0.23-0.65,0.7-0.869,0.93
	c-0.451,0.48-1.341,1.46-1.791,1.94c-0.81-0.38-1.619-0.76-2.43-1.12c-1.8-1.49-3.67,0.81-5.57-0.42c-2.9-1.08-5.09,1.771-7.36,3.07
	c-0.76,0.7-1.53,1.39-2.32,2.07c-0.03,1.3-0.08,2.61-0.14,3.92l-0.01-0.03c-0.28-1.01-0.65-2.01-0.99-3
	C91.85,89.48,94.54,87.15,96.28,84.43z"/>
<path fill="#FEFFFC" d="M106.41,79.69c3.63-0.24,7.25-0.63,10.88-0.93c-1.61,1.271-3.229,2.54-4.84,3.8
	c-0.12-0.06-0.36-0.18-0.479-0.25c-0.631,3.41-4.211,2.59-6.351,1.24c-0.351,0.29-1.05,0.86-1.4,1.15
	c-1.11-0.15-3.32-0.43-4.43-0.57C101.36,81.83,103.67,80.21,106.41,79.69z"/>
<path fill="#000200" d="M187.71,87.19c0.931-1.18,2.03-2.23,3.29-3.04c1.32,0.88,2.891,2.04,2.73,3.83
	c-0.07,3.59,0.51,7.34-0.681,10.81c-0.62,0.02-1.84,0.06-2.46,0.08c0.07-2.4-2.3-2.92-3.99-3.84
	C187.57,92.51,187.311,89.8,187.71,87.19z"/>
<path fill="#000200" d="M199.55,85.47c3.46-0.58,8.95,1.14,7.88,5.59c-0.229,3.3-3.689,4.56-6.47,4.96
	c-0.45,0.57-1.351,1.7-1.79,2.27l1.57,0.03c-0.811,1.31-1.52,2.71-2.7,3.75c-2.261-1.33-1.569-4.01-1.5-6.16
	c0.649-3.05,0.96-6.15,0.86-9.27C197.939,86.35,199.01,85.76,199.55,85.47 M200.7,89.45c0.01,0.55,0.021,1.64,0.021,2.19
	c0.449,0,1.359-0.01,1.809-0.01c0.66-0.66,1.351-1.3,2.031-1.94C203.27,89.61,201.98,89.52,200.7,89.45z"/>
<path fill="#D6D8D5" d="M110.1,88.3c0.45-0.48,1.34-1.46,1.791-1.94c0.139,3.49-3.051,6.02-6.08,7.01
	c0.34-2.12,0.319-4.49,1.859-6.19C108.48,87.54,109.29,87.92,110.1,88.3z"/>
<path fill="#D7D9D6" d="M114.23,89.3c3.049-1.59,2.83,4.74,0.02,3.38C112.7,92.14,113.641,90.23,114.23,89.3z"/>
<path fill="#D9DBD7" d="M200.7,89.45c1.28,0.07,2.569,0.16,3.86,0.24c-0.681,0.64-1.371,1.28-2.031,1.94
	c-0.449,0-1.359,0.01-1.809,0.01C200.721,91.09,200.71,90,200.7,89.45z"/>
<path fill="#7E807D" d="M90.64,91.62l0.64,1.17c0.34,0.99,0.71,1.99,0.99,3l-0.33,0.69c-0.76,0.16-2.28,0.48-3.04,0.64
	c0.09,2.85,2.28,4.69,4.21,6.45c1.44-1.09,3.16-1.36,4.92-1.13c-1.04,1.43-2.37,2.76-4.17,3.13c-1.62-0.09-3.55-1.75-4.73,0.09
	c0.22-0.67,0.66-2.01,0.88-2.68c-0.63,0.19-1.91,0.56-2.55,0.75c2.43-1.96-1.08-4.58-0.5-7.12C90.14,97.12,90.46,93.86,90.64,91.62z
	"/>
<path fill="#DDDFDC" d="M25.79,107.99c0.8-4.03,0.34-8.15,0.83-12.21c0.09,6.42,0.4,12.83,0.43,19.25
	c0.03,6.88,1.75,13.62,3.89,20.12c2.38,7.3,6.85,13.619,11.05,19.97c3.87,5.83,10.74,8.37,15.54,13.239
	c-1.38-0.159-2.75-0.34-4.11-0.549c-5.3-2.11-9.18-6.841-13.72-10.23c-4.24-7.15-8.57-14.23-12.93-21.311
	c-0.51-2.399-1.5-4.739-1.39-7.229C25.57,122.02,25.51,115,25.79,107.99z"/>
<path fill="#4C4E4B" d="M131.48,103.54c0.689-1.57,0.119-4.05,2.209-4.6c0.291,2.71,0.391,5.62-1.939,7.5
	c-0.63,0.06-1.891,0.19-2.52,0.25C130.01,105.67,130.83,104.66,131.48,103.54z"/>
<path fill="#787A77" d="M133.3,111.08c4.41-2.5,7.61,2.93,10.29,5.59c-0.869,5.54-3.42,12.87-9.779,13.641
	c-1.641-1.23,0.699-2.261,1.569-2.891c3.69-1.97,5.431-6.27,5.33-10.3C139.42,113.84,135.55,113.35,133.3,111.08z"/>
<path fill="#868885" d="M129.7,113.37c3-0.93,3.17,2.7,3.649,4.78c0.41,8.359-4.229,17.6-12.3,20.709
	c-2.6,1.301-5.39,0.08-7.69-1.26c1.791-1.729,4.371-0.97,6.591-1.279c3.12-0.07,5.38-2.61,7.1-4.94
	C131,126.28,131.189,119.41,129.7,113.37z"/>
<path fill="#DEE0DD" d="M119.561,132.359c2-0.52,4.34-3.229,6.109-0.869c0.35-0.03,1.04-0.08,1.38-0.11
	c-1.72,2.33-3.979,4.87-7.1,4.94c-2.22,0.31-4.8-0.45-6.591,1.279c-0.239-2.91-3.369-3.959-4.369-6.459
	C112.54,131,115.96,133.93,119.561,132.359z"/>
<path fill="#000200" d="M198.45,137.27c0.84-0.77,1.96-1.109,2.96-1.64c1.54,0.46,3.13,0.729,4.64,1.29c1.681,2.01,2,4.77,1.12,7.2
	c-1.83,0.569-3.72,0.93-5.55,1.479c-0.149,0.7-0.45,2.11-0.601,2.82c0.051,0.28,0.16,0.83,0.221,1.1
	c-0.551,2.561-0.36,5.19-0.37,7.791c-1.771,1.47-2.979-1.86-3.24-3.19C197.51,148.51,197.221,142.79,198.45,137.27 M201.41,139.53
	c-0.04,0.5-0.11,1.479-0.15,1.97c0.61,0.03,1.84,0.09,2.45,0.109c-0.021-0.52-0.05-1.579-0.069-2.109
	C203.08,139.51,201.971,139.53,201.41,139.53z"/>
<path fill="#000200" d="M173.29,137.42c3.14,0.13,6.76-1.02,9.56,0.83c1.021,3.57-3.91,1.79-5.899,2.63
	c-1.16,1.5,0.87,2.47,1.479,3.63c2.19,0.09,4.391,0.08,6.57-0.15c0.08-0.699,0.221-2.1,0.29-2.789c2.76-1.601,6.36-1.561,8.01,1.57
	c0.53,3.539,0.72,7.35-0.12,10.85c-1.47,1.949-2.279-1.58-3.02-2.45c-0.37,0.021-1.11,0.06-1.471,0.08
	c-0.26,2.42-0.59,4.819-0.979,7.229c-0.56-0.01-1.69-0.029-2.25-0.029c-0.64-1.87-1.22-3.76-1.851-5.62
	c-0.08-1.61-0.17-3.23-0.229-4.841c-1.64-0.219-3.28-0.02-4.909,0.221c-0.271,3.109,0.76,6.05,1.51,9.02
	c-0.701,0.021-2.101,0.061-2.801,0.08c-0.8-2.199-1.56-4.41-2.229-6.64C173.9,146.57,173.08,142.03,173.29,137.42z"/>
<path fill="#868885" d="M201.41,139.53c0.561,0,1.67-0.021,2.23-0.03c0.02,0.53,0.049,1.59,0.069,2.109
	c-0.61-0.02-1.84-0.079-2.45-0.109C201.3,141.01,201.37,140.03,201.41,139.53z"/>
<path fill="#000200" d="M30.13,165.96c0.97-2.58,4.17-1.55,6.28-1.72c0.86,0.58,1.72,1.17,2.59,1.74c0.48,0.869,0.96,1.739,1.46,2.6
	c-0.27,0.13-0.79,0.39-1.06,0.52c0.29,0.36,0.85,1.08,1.14,1.44c-0.95,2.11-2.49,3.819-4.09,5.46c-0.36,1.95-0.54,3.92-0.84,5.87
	c-1.14-0.05-2.28-0.13-3.42-0.25c-0.97-1.33-0.75-3.101-1.15-4.62c-0.17,0.46-0.52,1.391-0.7,1.859c-1.75,0.061-3.3-0.67-4.87-1.329
	c-0.86,0.88-1.69,1.8-2.5,2.739c0.39,0.03,1.15,0.08,1.53,0.11c-0.42,1.13-0.82,2.261-1.21,3.4c-1.1-0.38-2.88-0.25-2.89-1.851
	c0.07-4.199-1.21-8.25-1.01-12.439c0.6-0.131,1.81-0.391,2.41-0.51c1.37-1.051,2.49-3.28,4.55-2.58c2.28,1.74,1.15,5.85,4.34,6.789
	C30.6,170.77,30.18,168.37,30.13,165.96 M34.33,168.34c0.03,1.08,0.06,2.16,0.08,3.24c0.47-0.02,1.4-0.061,1.87-0.08
	c0.02-1.02,0.04-2.03,0.06-3.05C35.83,168.43,34.83,168.37,34.33,168.34 M23.15,172.07c-1.23,1.38,1.21,3.3,2.24,1.75
	C26.51,172.439,24.21,170.59,23.15,172.07z"/>
<path fill="#000200" d="M7.81,167.689c2.7-0.64,5.36-1.459,8.06-2.119c0.7,0.82,1.4,1.649,2.1,2.47c-0.76,0.84-1.52,1.68-2.29,2.521
	c-1.29,0.049-2.59,0.109-3.88,0.18c-0.1,1.56-0.11,3.13-0.04,4.689c1.16-0.149,2.43-0.1,3.29-1.07c0.95,0.041,2.85,0.121,3.8,0.16
	c-0.42,1.541-1.1,2.98-2.02,4.28c-0.86-0.03-2.58-0.069-3.43-0.09c0.08,3.729,0.51,7.47,0.2,11.21c-2.36-0.08-3.4-1.66-3.53-3.9
	c-0.4-0.949-0.79-1.91-1.15-2.879C8.61,182.76,8,181.98,7.7,181.6C5.84,178,3.61,174.62,1.45,171.2
	C3.05,169.189,5.47,168.47,7.81,167.689z"/>
<path fill="#D9DBD7" d="M34.33,168.34c0.5,0.03,1.5,0.09,2.01,0.11c-0.02,1.02-0.04,2.03-0.06,3.05c-0.47,0.02-1.4,0.061-1.87,0.08
	C34.39,170.5,34.36,169.42,34.33,168.34z"/>
<path fill="#D9DBD7" d="M23.15,172.07c1.06-1.48,3.36,0.369,2.24,1.75C24.36,175.37,21.92,173.45,23.15,172.07z"/>
<path fill="#000200" d="M126.37,182.3c6.649-2.64,13.239,2.431,16.159,8.16c-0.309,0.55-0.909,1.63-1.219,2.181
	c-0.451,0.02-1.351,0.06-1.791,0.079c-0.479-1.21-0.959-2.42-1.43-3.64c-3.27-2.03-6.26-5.04-10.49-4.4
	C127.189,183.88,126.779,183.09,126.37,182.3z"/>
<path fill="#000200" d="M50.71,188.42c1.27-1.4,2.82-4.561,4.91-2.5c-2.64,3.79-3.24,8.35-3.89,12.79
	c-0.59-0.021-1.78-0.06-2.38-0.08C49.59,195.22,48.24,191.28,50.71,188.42z"/>
<path fill="#000200" d="M57.69,193.98c1.21-0.961,2.89-0.65,4.31-0.92c-1.13,3.58-2.74,7.119-2.51,10.97
	c-0.94,0.68-3.07,0.96-2.94-0.8C56.62,200.13,57.82,197.141,57.69,193.98z"/>
<path fill="#000200" d="M136.9,199c-1.211-1.061-2.94-3.62-0.61-4.55c2.59,2.19,5.28,4.6,6.12,8.04c0.51,2.47,3.3,4.64,1.74,7.26
	c-0.61-0.3-1.84-0.92-2.45-1.22c-0.271-0.511-0.79-1.521-1.06-2.03C140.51,203.55,139.09,200.93,136.9,199z"/>
<path fill="#000200" d="M65.33,198.32c0.59,0,1.78-0.01,2.37-0.01c-0.01,0.52-0.04,1.56-0.06,2.08
	c-1.92,2.829-4.67,7.469-1.18,10.18c-0.35,0.6-1.04,1.779-1.39,2.369c-1.14-0.959-2.32-1.909-3.3-3.039
	C60.5,205.65,62.36,201.359,65.33,198.32z"/>
<path fill="#000200" d="M130.37,201.9c-0.83-3.07,2.47-2.041,4.21-1.521c0.82,2.47,1.109,5.16,2.609,7.37
	c1.021,1.98,2.931,3.859,2.211,6.29c-0.91,0.33-1.83,0.63-2.76,0.89c-0.131-0.74-0.391-2.229-0.521-2.97
	c-0.399-0.31-1.19-0.94-1.591-1.25C134.029,207.391,132.221,204.6,130.37,201.9z"/>
<path fill="#000200" d="M157.939,206.141c3.791,1.31,2.92,5.56,2.791,8.689c-0.92-0.18-1.83-0.4-2.73-0.66
	c-0.48-1.8-0.79-3.65-1.67-5.311C156.85,207.939,157.391,207.04,157.939,206.141z"/>
</svg>
