<?xml version="1.0" encoding="UTF-8" ?>
<!DOCTYPE svg PUBLIC "-//W3C//DTD SVG 1.1//EN" "http://www.w3.org/Graphics/SVG/1.1/DTD/svg11.dtd">
<svg width="263pt" height="301pt" viewBox="0 0 263 301" version="1.1" xmlns="http://www.w3.org/2000/svg">
<path fill="#000000" opacity="1.00" d=" M 0.00 0.00 L 0.15 0.00 C 0.12 0.04 0.04 0.11 0.00 0.15 L 0.00 0.00 Z" />
<path fill="#ffffff" opacity="1.00" d=" M 0.15 0.00 L 184.49 0.00 C 183.44 2.02 182.59 4.27 180.76 5.74 C 175.51 10.07 168.78 12.67 161.99 13.02 C 154.21 12.14 146.46 10.87 138.80 9.22 C 136.07 8.71 133.28 9.02 130.59 9.56 C 126.36 10.39 121.96 9.57 117.77 10.71 C 111.19 12.38 104.26 12.44 97.86 14.84 C 93.05 16.43 88.14 17.94 83.87 20.74 C 79.23 23.90 73.63 25.57 69.64 29.65 C 66.09 32.05 63.13 35.13 59.95 37.96 C 55.50 37.10 50.99 35.02 46.41 36.29 C 40.95 41.17 36.06 46.68 30.74 51.73 C 26.09 55.90 23.14 61.49 19.36 66.38 C 15.85 70.74 13.78 76.03 12.32 81.38 C 11.51 84.36 9.69 86.98 9.11 90.03 C 8.07 95.69 5.46 100.85 3.03 106.00 C 0.84 110.69 1.64 116.06 0.00 120.89 L 0.00 0.15 C 0.04 0.11 0.12 0.04 0.15 0.00 Z" />
<path fill="#000000" opacity="1.00" d=" M 184.49 0.00 L 186.77 0.00 C 188.26 5.08 191.51 10.65 188.92 15.90 C 187.65 18.62 185.15 20.46 183.14 22.61 C 187.83 25.13 192.58 27.54 197.52 29.52 C 204.47 33.85 211.84 37.58 218.24 42.74 C 221.55 45.47 223.73 49.30 227.16 51.90 C 228.92 53.26 229.70 55.41 230.71 57.32 C 232.52 61.17 234.61 64.88 236.17 68.85 C 237.44 72.12 239.23 75.38 239.04 79.01 C 235.50 80.01 233.53 76.76 231.14 74.90 C 228.00 73.02 224.44 71.73 221.86 69.04 C 220.66 67.43 218.49 68.11 216.78 67.98 C 221.29 72.88 225.97 77.64 229.92 83.01 C 231.94 86.35 233.95 89.70 235.95 93.05 C 239.09 99.09 239.38 106.01 240.48 112.59 C 241.26 116.55 240.73 120.63 241.43 124.60 C 242.22 128.77 241.80 133.07 242.69 137.23 C 243.85 144.43 242.29 151.61 241.66 158.77 C 240.66 165.39 241.01 172.29 238.67 178.65 C 238.22 180.22 236.67 180.08 235.36 180.02 C 234.10 171.85 231.99 163.39 226.52 156.94 C 225.71 158.68 224.79 160.38 224.21 162.22 C 223.33 166.76 225.03 171.67 222.98 176.00 C 221.29 179.83 219.65 183.73 218.72 187.83 C 218.18 191.06 215.26 192.91 213.48 195.41 C 211.80 197.72 209.92 199.98 207.33 201.30 C 204.04 203.06 201.47 206.05 197.88 207.24 C 198.11 205.43 199.64 203.71 199.01 201.85 C 197.41 203.75 197.71 206.23 197.51 208.52 C 196.58 209.22 195.01 209.24 194.52 210.38 C 192.14 218.99 186.23 225.97 180.85 232.88 C 177.69 236.05 174.68 239.45 170.88 241.90 C 168.39 243.47 166.21 246.23 163.01 246.08 C 162.65 242.53 164.09 239.20 164.81 235.79 C 165.47 232.51 164.44 229.22 163.66 226.06 C 161.11 226.37 158.60 227.02 156.02 227.01 C 146.88 227.11 137.73 226.77 128.59 227.13 C 130.53 228.34 132.87 228.86 134.67 230.29 C 137.11 233.19 139.08 236.49 141.82 239.16 C 144.99 243.04 150.06 245.02 152.53 249.52 C 154.78 253.41 158.83 255.58 162.84 257.22 C 163.33 262.15 162.75 267.10 163.01 272.04 C 163.01 274.83 164.98 277.17 164.96 279.97 C 165.13 283.50 164.71 287.09 165.44 290.59 C 165.86 292.68 166.13 294.81 165.98 296.96 C 164.43 297.06 162.87 297.08 161.33 296.92 C 159.78 291.47 160.04 285.73 158.69 280.23 C 157.19 274.13 158.66 267.80 157.73 261.66 C 154.05 259.30 150.37 256.77 147.98 253.01 C 144.03 249.26 140.06 245.51 136.15 241.72 C 137.64 246.42 138.64 251.45 141.50 255.55 C 142.18 257.70 141.87 260.08 142.84 262.16 C 143.97 264.72 144.79 267.55 144.36 270.37 C 143.80 275.97 143.59 281.70 144.71 287.25 C 145.18 290.45 145.16 293.72 144.85 296.95 C 143.34 297.07 141.82 297.09 140.32 296.96 C 139.92 294.58 139.65 292.17 139.29 289.79 C 138.21 281.95 140.25 273.83 137.84 266.17 C 136.61 262.39 136.51 258.20 134.33 254.77 C 132.68 251.94 132.57 248.55 131.14 245.64 C 130.70 252.77 131.21 259.92 130.98 267.06 C 130.98 268.16 130.72 269.19 130.22 270.17 C 127.97 274.95 125.70 279.72 123.45 284.50 C 122.73 286.10 122.77 287.98 123.21 289.65 C 126.37 293.83 131.90 294.71 136.37 296.88 C 132.30 297.06 128.21 297.25 124.15 296.83 C 121.64 295.81 119.45 294.11 117.33 292.46 C 116.34 288.32 117.00 283.83 119.11 280.13 C 121.34 275.94 123.11 271.52 125.28 267.30 C 126.32 265.37 125.96 263.10 126.05 261.00 C 125.93 254.65 126.09 248.31 126.00 241.96 C 125.81 238.39 125.31 234.67 123.42 231.57 C 122.52 230.22 122.46 228.59 122.27 227.04 C 115.51 226.57 108.73 227.64 101.98 226.94 C 98.58 226.62 95.35 225.32 91.95 224.94 C 91.66 229.52 95.28 233.00 97.51 236.65 C 98.58 237.70 97.75 239.22 96.72 239.92 C 88.73 239.44 82.01 234.64 75.28 230.81 C 71.06 229.22 67.53 226.36 63.40 224.57 C 57.44 219.54 52.00 213.69 48.01 206.95 C 45.45 203.40 43.03 199.71 41.26 195.70 C 39.82 192.55 37.76 189.73 36.45 186.52 C 35.36 184.29 34.70 181.83 33.17 179.84 C 32.22 181.51 31.49 183.32 31.09 185.20 C 30.98 187.86 31.97 190.41 32.05 193.07 C 31.39 193.00 30.07 192.88 29.41 192.82 C 26.37 189.35 24.10 185.32 21.26 181.70 C 15.24 174.27 13.02 164.65 11.52 155.42 C 10.46 150.47 11.53 145.37 10.57 140.41 C 9.69 135.99 10.01 131.47 9.97 126.99 C 9.89 122.19 11.58 117.52 10.96 112.69 C 8.84 115.04 6.79 117.50 5.30 120.31 C 3.90 122.90 3.44 125.83 2.57 128.61 C 1.93 128.82 0.64 129.22 0.00 129.43 L 0.00 120.89 C 1.64 116.06 0.84 110.69 3.03 106.00 C 5.46 100.85 8.07 95.69 9.11 90.03 C 9.69 86.98 11.51 84.36 12.32 81.38 C 13.78 76.03 15.85 70.74 19.36 66.38 C 23.14 61.49 26.09 55.90 30.74 51.73 C 36.06 46.68 40.95 41.17 46.41 36.29 C 50.99 35.02 55.50 37.10 59.95 37.96 C 63.13 35.13 66.09 32.05 69.64 29.65 C 73.63 25.57 79.23 23.90 83.87 20.74 C 88.14 17.94 93.05 16.43 97.86 14.84 C 104.26 12.44 111.19 12.38 117.77 10.71 C 121.96 9.57 126.36 10.39 130.59 9.56 C 133.28 9.02 136.07 8.71 138.80 9.22 C 146.46 10.87 154.21 12.14 161.99 13.02 C 168.78 12.67 175.51 10.07 180.76 5.74 C 182.59 4.27 183.44 2.02 184.49 0.00 M 183.39 8.31 C 181.12 9.70 179.07 11.44 176.68 12.62 C 170.41 15.58 163.26 16.71 156.41 15.50 C 149.90 14.29 143.33 13.38 136.83 12.11 C 133.87 11.41 131.00 12.99 128.03 12.85 C 121.18 12.72 114.56 14.73 107.81 15.57 C 102.11 16.09 96.91 18.56 91.67 20.63 C 87.52 22.29 84.04 25.18 79.95 26.94 C 77.98 27.90 75.89 28.73 74.27 30.26 C 70.69 33.70 66.28 36.26 63.39 40.39 C 62.39 42.37 59.95 42.01 58.13 41.80 C 55.31 41.13 53.25 38.00 50.07 38.88 C 45.01 42.48 40.65 46.91 35.93 50.92 C 33.92 53.25 32.00 55.66 29.69 57.71 C 27.30 59.76 26.26 62.85 24.19 65.18 C 22.14 67.54 20.64 70.29 18.86 72.85 C 15.50 77.89 15.79 84.36 12.36 89.37 C 11.02 98.42 4.75 105.94 4.05 115.12 C 7.45 112.43 8.86 107.93 12.36 105.31 C 12.96 105.25 14.18 105.11 14.78 105.04 C 15.06 107.22 14.93 109.44 14.47 111.59 C 13.62 115.13 14.13 118.82 13.32 122.36 C 12.58 125.86 12.88 129.45 12.87 133.00 C 12.96 138.07 12.45 143.20 13.55 148.20 C 14.65 156.23 15.76 164.39 19.00 171.90 C 20.34 175.31 22.79 178.09 24.88 181.05 C 25.72 182.09 26.44 183.36 27.72 183.92 C 29.42 179.80 31.15 175.48 34.51 172.41 C 34.81 172.36 35.40 172.25 35.70 172.20 C 37.33 175.20 36.47 178.84 38.10 181.84 C 41.46 190.36 46.27 198.18 51.01 205.99 C 53.94 209.99 57.05 213.90 60.70 217.29 C 62.99 219.38 64.81 222.20 67.87 223.22 C 69.95 223.93 71.63 225.35 73.45 226.52 C 79.40 228.54 84.34 232.66 90.11 235.13 L 90.81 234.82 C 91.04 232.76 89.61 230.87 89.31 228.84 C 88.48 219.59 90.16 210.15 88.28 200.98 C 87.80 197.12 88.57 193.18 87.73 189.35 C 87.07 186.26 86.23 183.19 86.13 180.01 C 86.05 175.91 84.20 172.11 84.08 168.01 C 83.85 164.46 82.15 161.25 81.34 157.83 C 80.26 153.13 77.95 148.85 76.83 144.16 C 75.24 140.93 72.61 138.26 71.17 134.91 C 71.42 134.45 71.91 133.53 72.16 133.07 C 73.88 133.91 74.70 135.74 75.77 137.22 C 80.31 143.62 84.50 150.60 91.12 155.10 C 89.11 148.70 85.54 142.86 83.70 136.38 C 80.76 128.19 78.89 119.67 77.91 111.05 C 76.60 105.11 77.31 99.02 77.09 93.00 C 76.94 89.97 77.67 87.01 78.02 84.02 C 79.03 71.40 83.10 59.15 89.04 48.03 C 91.22 41.73 97.77 38.72 103.63 36.72 C 111.02 34.38 118.00 29.96 125.99 30.10 C 134.01 30.19 142.03 30.08 150.04 30.15 C 154.66 30.02 158.17 33.43 162.38 34.72 C 165.55 35.60 167.87 38.17 171.00 39.11 C 173.63 39.92 175.83 41.64 178.33 42.75 C 183.49 44.76 188.18 48.02 191.97 52.04 C 200.88 59.67 205.15 70.92 211.50 80.49 C 213.62 83.27 213.93 87.02 216.35 89.62 C 219.10 92.53 219.59 96.77 222.24 99.76 C 225.21 103.06 225.84 107.72 225.90 111.99 C 225.84 124.00 225.88 136.01 225.85 148.02 C 225.62 151.00 228.09 153.10 229.75 155.26 C 233.30 158.96 234.70 163.99 236.28 168.72 C 237.56 169.35 238.07 166.95 238.05 166.03 C 238.54 155.63 241.64 145.20 239.41 134.80 C 239.12 130.86 238.89 126.93 238.19 123.04 C 238.48 115.94 236.64 109.04 235.98 102.03 C 235.64 98.65 234.02 95.60 232.27 92.75 C 230.24 89.49 228.50 85.99 225.79 83.22 C 223.10 80.50 221.15 77.19 218.76 74.23 C 216.05 70.96 210.50 70.13 209.99 65.25 C 213.26 65.07 216.58 64.86 219.83 65.32 C 221.94 66.19 223.98 67.23 226.12 68.03 C 229.19 69.16 231.71 71.48 234.95 72.19 C 231.90 66.56 228.81 60.94 225.64 55.37 C 223.21 52.17 220.00 49.66 217.30 46.70 C 211.43 40.18 203.22 36.69 195.99 32.01 C 192.58 30.33 188.88 29.28 185.55 27.41 C 183.23 26.09 180.31 26.29 178.13 24.74 C 177.77 22.65 178.94 20.76 180.64 19.64 C 183.66 17.37 186.83 14.16 186.18 10.02 C 186.66 8.16 184.80 7.12 183.39 8.31 M 106.94 38.90 C 103.22 39.30 100.19 41.82 96.50 42.44 C 88.08 52.05 84.48 64.72 81.87 76.95 C 80.83 80.91 81.15 85.05 80.11 89.01 C 79.82 94.67 80.08 100.35 79.98 106.01 C 80.72 114.00 82.83 121.78 84.42 129.62 C 87.61 140.54 92.37 150.99 98.35 160.65 C 99.26 161.95 98.99 163.58 99.01 165.07 C 92.84 162.14 88.78 156.37 83.00 152.89 C 83.95 156.03 84.37 159.32 85.64 162.38 C 87.14 165.75 86.87 169.52 88.00 173.00 C 88.74 175.27 89.10 177.63 89.01 180.02 C 88.85 183.18 90.18 186.12 90.82 189.16 C 91.48 193.88 90.31 198.74 91.59 203.39 C 92.62 208.42 91.52 213.60 92.17 218.67 C 96.83 219.73 101.70 219.69 106.25 221.26 C 122.49 220.65 138.77 221.22 155.02 220.97 C 158.22 220.48 161.43 220.08 164.64 219.64 C 168.83 219.02 172.35 216.50 176.39 215.40 C 180.09 214.49 182.87 211.66 186.50 210.55 C 187.32 208.56 188.27 206.35 190.42 205.48 C 193.62 204.14 196.39 202.02 199.45 200.42 C 200.77 199.14 201.65 197.29 203.40 196.50 C 206.70 195.49 208.97 192.50 210.59 189.63 C 213.35 188.64 212.99 185.79 213.40 183.46 C 214.14 182.50 214.98 181.63 215.72 180.67 C 216.05 179.25 216.15 177.79 216.45 176.37 C 217.03 174.75 218.30 173.51 218.98 171.94 C 219.33 167.98 218.79 163.99 219.20 160.03 C 219.50 158.02 220.12 156.06 220.07 154.01 C 220.01 138.01 220.07 122.01 220.05 106.01 C 220.04 103.08 217.42 101.15 216.41 98.56 C 212.98 92.76 208.95 87.33 205.46 81.57 C 202.40 79.93 203.51 76.03 201.24 73.78 C 197.15 69.53 196.53 62.93 191.80 59.21 C 189.61 57.43 187.46 55.60 185.46 53.61 C 181.21 50.65 177.00 46.06 171.32 46.93 C 171.04 46.07 170.08 45.66 169.42 45.13 C 169.15 45.43 168.61 46.05 168.34 46.35 C 167.52 43.17 163.92 42.11 161.32 40.71 C 157.70 39.51 154.43 37.52 150.90 36.10 C 139.60 35.84 128.28 36.07 116.97 35.99 C 113.36 35.85 110.41 38.39 106.94 38.90 M 185.36 217.23 C 181.18 218.96 177.82 222.48 173.19 223.10 C 171.16 223.75 168.61 223.52 167.10 225.25 C 166.15 228.51 167.61 231.76 167.89 235.00 C 167.71 236.66 167.30 238.28 167.14 239.94 C 167.58 239.99 168.44 240.08 168.88 240.12 C 173.28 237.21 177.53 233.70 180.19 229.05 C 182.61 225.13 185.86 221.78 188.25 217.83 C 187.49 216.69 186.52 216.49 185.36 217.23 Z" />
<path fill="#ffffff" opacity="1.00" d=" M 186.77 0.00 L 263.00 0.00 L 263.00 114.35 C 263.00 114.39 263.00 114.48 263.00 114.53 L 263.00 211.79 C 260.17 210.86 257.17 211.06 254.25 210.84 C 253.88 208.00 254.21 204.82 252.09 202.56 L 251.22 203.18 C 250.85 205.86 251.06 208.57 250.90 211.27 C 248.62 209.45 247.13 206.92 245.18 204.81 C 243.37 203.29 241.08 202.42 238.81 201.87 C 239.40 204.61 241.40 206.80 243.59 208.44 C 247.94 211.82 250.12 217.50 255.06 220.20 C 255.82 219.63 256.53 218.99 257.18 218.29 C 256.39 217.43 255.61 216.58 254.83 215.73 C 257.20 214.46 260.37 215.18 263.00 214.27 L 263.00 301.00 L 74.95 301.00 C 75.95 298.96 76.78 296.83 77.85 294.82 C 79.71 295.79 81.41 297.04 83.23 298.08 C 83.52 297.82 84.11 297.28 84.40 297.01 C 82.59 294.98 79.89 294.15 77.84 292.41 C 79.49 291.75 81.16 291.16 82.81 290.51 C 82.90 289.93 83.09 288.78 83.18 288.20 C 78.79 289.26 74.67 291.21 70.35 292.48 C 68.06 291.21 64.24 289.53 65.08 286.30 C 66.23 285.24 67.64 284.52 69.05 283.87 C 69.79 285.02 70.39 286.25 71.13 287.40 C 72.57 286.58 71.91 284.64 71.92 283.32 C 70.71 282.76 69.50 281.94 68.12 282.00 C 66.19 282.58 64.39 283.71 63.17 285.34 C 62.85 286.74 62.82 288.23 63.18 289.64 C 65.34 291.55 67.76 293.23 68.91 296.01 C 71.02 295.09 73.02 293.94 75.14 293.03 C 75.17 295.90 73.91 298.50 72.66 301.00 L 0.00 301.00 L 0.00 129.43 C 0.64 129.22 1.93 128.82 2.57 128.61 C 3.44 125.83 3.90 122.90 5.30 120.31 C 6.79 117.50 8.84 115.04 10.96 112.69 C 11.58 117.52 9.89 122.19 9.97 126.99 C 10.01 131.47 9.69 135.99 10.57 140.41 C 11.53 145.37 10.46 150.47 11.52 155.42 C 13.02 164.65 15.24 174.27 21.26 181.70 C 24.10 185.32 26.37 189.35 29.41 192.82 C 30.07 192.88 31.39 193.00 32.05 193.07 C 31.97 190.41 30.98 187.86 31.09 185.20 C 31.49 183.32 32.22 181.51 33.17 179.84 C 34.70 181.83 35.36 184.29 36.45 186.52 C 37.76 189.73 39.82 192.55 41.26 195.70 C 43.03 199.71 45.45 203.40 48.01 206.95 C 52.00 213.69 57.44 219.54 63.40 224.57 C 67.53 226.36 71.06 229.22 75.28 230.81 C 82.01 234.64 88.73 239.44 96.72 239.92 C 97.75 239.22 98.58 237.70 97.51 236.65 C 95.28 233.00 91.66 229.52 91.95 224.94 C 95.35 225.32 98.58 226.62 101.98 226.94 C 108.73 227.64 115.51 226.57 122.27 227.04 C 122.46 228.59 122.52 230.22 123.42 231.57 C 125.31 234.67 125.81 238.39 126.00 241.96 C 126.09 248.31 125.93 254.65 126.05 261.00 C 125.96 263.10 126.32 265.37 125.28 267.30 C 123.11 271.52 121.34 275.94 119.11 280.13 C 117.00 283.83 116.34 288.32 117.33 292.46 C 119.45 294.11 121.64 295.81 124.15 296.83 C 128.21 297.25 132.30 297.06 136.37 296.88 C 131.90 294.71 126.37 293.83 123.21 289.65 C 122.77 287.98 122.73 286.10 123.45 284.50 C 125.70 279.72 127.97 274.95 130.22 270.17 C 130.72 269.19 130.98 268.16 130.98 267.06 C 131.21 259.92 130.70 252.77 131.14 245.64 C 132.57 248.55 132.68 251.94 134.33 254.77 C 136.51 258.20 136.61 262.39 137.84 266.17 C 140.25 273.83 138.21 281.95 139.29 289.79 C 139.65 292.17 139.92 294.58 140.32 296.96 C 141.82 297.09 143.34 297.07 144.85 296.95 C 145.16 293.72 145.18 290.45 144.71 287.25 C 143.59 281.70 143.80 275.97 144.36 270.37 C 144.79 267.55 143.97 264.72 142.84 262.16 C 141.87 260.08 142.18 257.70 141.50 255.55 C 138.64 251.45 137.64 246.42 136.15 241.72 C 140.06 245.51 144.03 249.26 147.98 253.01 C 150.37 256.77 154.05 259.30 157.73 261.66 C 158.66 267.80 157.19 274.13 158.69 280.23 C 160.04 285.73 159.78 291.47 161.33 296.92 C 162.87 297.08 164.43 297.06 165.98 296.96 C 166.13 294.81 165.86 292.68 165.44 290.59 C 164.71 287.09 165.13 283.50 164.96 279.97 C 164.98 277.17 163.01 274.83 163.01 272.04 C 162.75 267.10 163.33 262.15 162.84 257.22 C 158.83 255.58 154.78 253.41 152.53 249.52 C 150.06 245.02 144.99 243.04 141.82 239.16 C 139.08 236.49 137.11 233.19 134.67 230.29 C 132.87 228.86 130.53 228.34 128.59 227.13 C 137.73 226.77 146.88 227.11 156.02 227.01 C 158.60 227.02 161.11 226.37 163.66 226.06 C 164.44 229.22 165.47 232.51 164.81 235.79 C 164.09 239.20 162.65 242.53 163.01 246.08 C 166.21 246.23 168.39 243.47 170.88 241.90 C 174.68 239.45 177.69 236.05 180.85 232.88 C 186.23 225.97 192.14 218.99 194.52 210.38 C 195.01 209.24 196.58 209.22 197.51 208.52 C 197.71 206.23 197.41 203.75 199.01 201.85 C 199.64 203.71 198.11 205.43 197.88 207.24 C 201.47 206.05 204.04 203.06 207.33 201.30 C 209.92 199.98 211.80 197.72 213.48 195.41 C 215.26 192.91 218.18 191.06 218.72 187.83 C 219.65 183.73 221.29 179.83 222.98 176.00 C 225.03 171.67 223.33 166.76 224.21 162.22 C 224.79 160.38 225.71 158.68 226.52 156.94 C 231.99 163.39 234.10 171.85 235.36 180.02 C 236.67 180.08 238.22 180.22 238.67 178.65 C 241.01 172.29 240.66 165.39 241.66 158.77 C 242.29 151.61 243.85 144.43 242.69 137.23 C 241.80 133.07 242.22 128.77 241.43 124.60 C 240.73 120.63 241.26 116.55 240.48 112.59 C 239.38 106.01 239.09 99.09 235.95 93.05 C 233.95 89.70 231.94 86.35 229.92 83.01 C 225.97 77.64 221.29 72.88 216.78 67.98 C 218.49 68.11 220.66 67.43 221.86 69.04 C 224.44 71.73 228.00 73.02 231.14 74.90 C 233.53 76.76 235.50 80.01 239.04 79.01 C 239.23 75.38 237.44 72.12 236.17 68.85 C 234.61 64.88 232.52 61.17 230.71 57.32 C 229.70 55.41 228.92 53.26 227.16 51.90 C 223.73 49.30 221.55 45.47 218.24 42.74 C 211.84 37.58 204.47 33.85 197.52 29.52 C 192.58 27.54 187.83 25.13 183.14 22.61 C 185.15 20.46 187.65 18.62 188.92 15.90 C 191.51 10.65 188.26 5.08 186.77 0.00 M 242.31 215.18 C 241.35 216.15 239.51 217.18 240.17 218.82 C 241.06 221.56 240.45 225.13 243.30 226.82 C 247.15 227.62 252.44 227.10 253.76 222.67 C 254.76 221.35 252.76 220.46 252.04 219.68 C 250.76 221.20 249.86 223.15 248.07 224.14 C 245.08 223.40 244.54 220.25 243.06 218.01 C 244.71 217.96 246.36 217.99 248.01 217.88 C 248.51 214.67 244.48 214.53 242.31 215.18 M 224.24 216.44 C 223.43 216.56 220.81 217.49 222.72 218.26 C 224.19 219.15 225.82 219.78 227.23 220.78 C 228.40 222.12 228.70 223.98 229.47 225.56 C 231.18 228.92 233.83 231.73 236.78 234.03 C 237.14 233.52 237.85 232.51 238.21 232.00 C 235.12 228.83 232.60 225.20 230.88 221.11 C 229.82 218.37 227.16 216.51 224.24 216.44 M 214.26 223.34 C 213.50 223.91 212.80 224.54 212.14 225.23 C 213.30 227.72 214.66 230.52 217.33 231.66 C 220.21 232.98 222.04 235.68 223.57 238.33 C 223.03 240.23 222.26 242.06 221.59 243.91 C 218.95 244.60 215.84 243.80 214.96 240.97 C 215.39 238.92 216.89 236.62 214.81 234.95 C 210.72 236.80 211.29 242.32 214.05 245.11 C 211.15 243.98 208.06 243.89 204.99 244.00 C 206.37 242.25 207.62 240.33 206.95 237.99 C 206.29 238.03 204.98 238.10 204.32 238.13 C 202.40 240.37 200.86 242.98 200.21 245.87 C 200.48 246.11 201.01 246.58 201.27 246.81 C 204.82 247.29 208.42 246.77 211.99 247.10 C 212.59 248.59 210.85 249.25 210.03 250.08 C 208.49 251.23 207.88 253.18 207.10 254.86 C 207.86 255.64 208.78 256.06 209.87 256.12 C 210.95 255.13 211.91 253.96 213.23 253.26 C 214.98 253.90 216.76 254.61 218.23 255.78 C 219.55 257.32 219.78 259.47 220.80 261.20 C 222.54 264.26 224.99 266.90 227.79 269.01 C 228.15 268.51 228.85 267.51 229.21 267.00 C 225.90 263.67 223.37 259.72 221.54 255.40 C 220.45 252.62 217.30 252.22 215.09 250.78 C 214.90 249.20 214.93 247.60 215.02 246.02 C 217.87 246.64 221.36 248.12 223.87 245.87 C 226.97 244.21 227.12 240.10 227.04 236.98 C 227.47 234.41 223.32 233.44 224.11 231.05 C 227.52 230.08 228.58 234.23 230.37 236.24 C 229.55 241.50 235.82 243.15 238.03 246.99 C 240.33 249.66 242.31 252.85 245.31 254.78 C 246.56 255.86 247.49 253.78 248.27 253.10 C 247.71 252.08 245.08 251.53 246.14 250.15 C 248.88 249.51 252.83 251.25 254.27 248.00 C 252.59 244.51 248.18 246.59 245.14 245.93 C 244.81 243.20 245.54 239.68 243.05 237.80 L 242.12 238.07 C 241.89 240.77 242.07 243.48 241.96 246.19 C 240.14 244.95 238.75 243.23 237.59 241.39 C 236.35 239.19 233.73 238.56 231.77 237.20 C 232.40 236.32 233.05 235.45 233.70 234.58 C 232.85 233.09 231.94 231.45 230.33 230.67 C 228.27 229.65 226.50 227.59 224.01 227.92 C 222.54 227.60 221.99 229.37 220.99 230.06 C 219.48 229.32 217.78 228.65 216.77 227.24 C 216.02 225.84 215.59 224.30 214.85 222.90 L 214.26 223.34 M 234.01 223.02 C 233.76 224.34 234.62 225.53 235.44 226.46 C 237.33 227.98 239.06 229.70 241.01 231.15 L 241.96 230.89 C 242.42 228.67 240.59 227.02 239.88 225.09 C 238.88 222.95 236.07 222.78 234.01 223.02 M 45.30 227.12 C 42.56 228.72 45.35 231.60 44.97 233.90 C 42.47 234.65 41.49 231.11 39.98 229.72 L 39.11 230.19 C 38.16 232.71 40.78 234.32 42.34 235.79 C 43.83 236.24 45.43 236.02 46.95 235.95 C 47.24 233.50 46.86 231.04 46.08 228.72 C 47.68 229.97 48.81 231.67 50.02 233.28 L 50.89 232.82 C 50.94 232.38 51.03 231.50 51.08 231.06 C 49.91 229.15 47.93 226.22 45.30 227.12 M 51.33 235.24 C 48.42 236.40 45.56 239.37 46.10 242.69 C 46.96 243.29 47.84 243.87 48.72 244.44 C 48.16 245.30 47.55 246.14 46.98 247.00 C 49.97 247.08 53.22 246.50 55.85 248.30 C 56.58 249.83 55.37 251.36 54.68 252.66 C 53.43 253.16 52.15 253.59 50.86 253.98 C 49.47 253.06 48.38 251.75 46.94 250.91 C 45.60 250.71 44.08 251.62 43.99 253.04 C 44.25 254.66 45.12 256.20 44.95 257.88 C 42.50 258.69 41.48 255.10 39.98 253.73 L 39.10 254.19 C 38.16 256.70 40.78 258.31 42.34 259.79 C 43.83 260.24 45.43 260.01 46.96 259.95 C 47.24 257.50 46.86 255.05 46.07 252.73 C 47.68 253.94 48.81 255.62 49.93 257.26 C 51.01 254.83 53.52 255.01 55.76 254.75 C 58.15 252.62 58.36 249.19 57.89 246.23 C 56.86 245.05 55.23 245.09 53.84 244.70 C 56.58 243.09 59.44 241.65 61.98 239.71 C 61.69 239.30 61.13 238.47 60.84 238.06 C 57.77 239.54 55.14 241.85 51.90 243.01 C 50.53 243.03 49.33 242.25 48.10 241.78 C 48.79 240.31 49.37 238.53 50.95 237.79 C 52.65 238.29 51.37 241.97 53.94 240.97 C 53.99 238.83 54.78 235.71 52.07 234.90 L 51.33 235.24 M 85.43 239.21 C 84.12 240.62 82.75 241.99 81.42 243.39 C 80.99 245.43 80.18 247.33 79.12 249.12 C 78.73 252.37 79.09 255.67 79.45 258.91 C 81.15 258.30 82.65 258.90 84.02 259.95 C 84.06 257.34 83.83 254.72 84.11 252.12 C 85.51 248.93 87.53 246.05 89.03 242.90 C 88.92 241.08 87.84 237.83 85.43 239.21 M 63.34 250.40 C 60.98 251.96 58.66 253.59 56.40 255.29 C 55.42 255.93 54.90 256.84 54.83 258.02 C 58.23 256.56 61.50 254.69 64.31 252.27 C 65.63 251.93 64.08 249.45 63.34 250.40 M 93.33 250.19 C 90.33 251.72 91.17 255.14 90.86 257.90 C 90.10 260.20 88.40 262.34 89.03 264.90 C 89.57 266.58 90.39 268.34 91.98 269.26 C 94.18 268.22 93.96 265.60 94.68 263.64 C 95.85 260.34 95.91 256.73 97.62 253.64 C 98.32 252.45 97.00 251.24 96.69 250.12 C 95.55 249.83 94.43 249.85 93.33 250.19 M 233.31 250.18 C 232.35 251.15 230.51 252.18 231.16 253.81 C 232.06 256.55 231.44 260.14 234.30 261.81 C 238.14 262.63 243.45 262.10 244.76 257.67 C 245.76 256.34 243.77 255.46 243.03 254.69 C 241.76 256.21 240.85 258.14 239.07 259.14 C 236.08 258.39 235.54 255.25 234.06 253.01 C 235.71 252.96 237.36 252.99 239.01 252.88 C 239.50 249.67 235.48 249.52 233.31 250.18 M 178.28 254.23 C 177.30 255.02 176.45 255.97 175.73 257.01 C 177.15 259.48 179.96 260.30 182.20 261.78 C 184.83 263.89 186.59 266.83 188.66 269.44 C 189.22 272.85 189.59 276.30 190.31 279.69 C 190.86 280.50 191.52 281.21 192.30 281.82 C 195.85 282.28 199.44 281.77 202.99 282.10 C 203.58 283.59 201.86 284.25 201.03 285.08 C 199.49 286.22 198.88 288.18 198.10 289.86 C 198.85 290.66 199.77 291.07 200.86 291.09 C 202.54 289.66 204.25 288.26 205.79 286.68 C 206.07 284.80 205.97 282.90 206.11 281.01 C 208.92 281.68 212.38 283.10 214.87 280.87 C 217.97 279.21 218.12 275.10 218.04 271.98 C 218.48 269.41 214.29 268.42 215.12 266.06 C 215.76 266.07 217.04 266.09 217.67 266.11 C 219.14 268.08 220.39 270.24 222.26 271.87 C 223.35 271.52 224.05 270.51 224.86 269.78 C 223.87 267.95 222.63 266.17 220.70 265.28 C 218.87 264.34 217.25 262.56 215.01 262.93 C 213.54 262.61 212.98 264.35 212.00 265.07 C 210.48 264.32 208.79 263.65 207.77 262.24 C 207.01 260.84 206.58 259.29 205.84 257.89 C 204.88 258.59 203.97 259.37 203.14 260.23 C 204.30 262.72 205.66 265.52 208.33 266.66 C 211.21 267.98 213.05 270.68 214.57 273.34 C 214.03 275.24 213.26 277.06 212.59 278.91 C 209.94 279.60 206.84 278.81 205.96 275.97 C 206.40 273.92 207.88 271.62 205.80 269.94 C 201.73 271.81 202.29 277.30 205.04 280.11 C 202.14 278.98 199.05 278.89 195.98 279.00 C 197.19 277.34 198.64 275.61 197.95 273.41 C 196.78 272.83 194.99 273.04 194.34 271.71 C 192.97 266.61 192.25 260.64 187.74 257.22 C 185.23 254.72 181.62 254.39 178.28 254.23 M 63.38 255.40 C 61.50 256.90 59.28 258.08 57.83 260.03 C 60.30 260.28 62.66 259.04 64.32 257.28 C 65.63 256.79 64.14 254.59 63.38 255.40 M 102.33 257.23 C 100.39 259.04 98.99 261.34 97.39 263.44 C 96.72 266.88 95.60 270.37 96.06 273.92 C 96.59 275.84 97.74 277.58 99.31 278.82 C 101.31 279.67 104.51 278.78 104.04 276.12 C 103.04 274.39 101.79 272.81 100.91 271.02 C 102.27 270.04 103.14 268.75 103.05 267.01 C 102.77 264.43 106.24 263.50 106.07 261.00 C 106.37 258.94 104.32 257.84 102.98 256.73 L 102.33 257.23 M 67.34 258.26 C 65.73 258.92 64.27 259.94 63.16 261.30 C 62.82 262.74 62.86 264.26 63.14 265.72 C 65.05 267.75 68.36 268.64 68.40 271.92 C 70.78 271.66 72.79 269.84 75.04 269.00 C 75.76 271.95 73.22 274.20 73.09 276.93 C 76.64 277.71 76.04 272.32 77.98 270.90 C 79.81 271.75 81.40 273.03 83.11 274.10 C 83.38 273.83 83.92 273.29 84.20 273.02 C 82.96 270.73 79.96 270.33 77.99 268.82 C 79.30 266.60 84.70 267.68 83.99 264.01 C 79.31 265.05 74.87 266.99 70.36 268.60 C 68.51 267.47 66.60 266.34 65.18 264.68 C 63.84 261.95 67.49 260.19 69.64 260.07 C 70.11 261.29 69.86 263.83 71.95 262.96 C 72.09 261.73 72.07 260.52 71.89 259.31 C 70.48 258.76 68.89 257.37 67.34 258.26 M 225.00 258.03 C 224.78 259.35 225.61 260.53 226.45 261.46 C 228.33 262.98 230.05 264.70 232.01 266.13 L 232.97 265.90 C 233.42 263.69 231.60 262.03 230.88 260.10 C 229.88 257.94 227.07 257.78 225.00 258.03 M 51.33 259.24 C 48.41 260.39 45.56 263.37 46.10 266.69 C 46.96 267.29 47.84 267.87 48.74 268.43 C 48.17 269.30 47.55 270.13 46.97 271.00 C 49.96 271.08 53.22 270.49 55.85 272.31 C 56.56 273.79 55.45 275.33 54.67 276.54 C 53.26 277.17 51.51 277.41 50.78 278.96 C 52.43 279.04 54.10 279.11 55.75 278.88 C 58.05 276.64 58.41 273.26 57.89 270.23 C 56.86 269.04 55.22 269.08 53.83 268.70 C 56.16 267.36 58.56 266.14 60.74 264.56 C 60.82 263.91 60.97 262.59 61.05 261.94 C 57.92 263.48 55.20 265.79 51.90 267.01 C 50.54 267.02 49.33 266.25 48.10 265.78 C 48.77 264.27 49.42 262.57 50.96 261.75 C 52.60 262.37 51.39 265.92 53.94 264.98 C 53.99 262.84 54.78 259.72 52.07 258.90 L 51.33 259.24 M 174.30 263.22 C 172.27 263.82 173.60 265.38 174.32 266.53 C 180.34 268.29 183.02 275.19 182.99 280.97 C 183.26 283.26 182.27 286.08 184.11 287.91 C 185.40 287.27 186.57 286.41 187.72 285.54 C 188.83 280.51 187.29 275.41 186.64 270.41 C 185.55 268.89 184.85 266.75 182.90 266.14 C 181.47 265.69 180.32 264.73 179.17 263.80 C 177.91 262.50 175.87 262.84 174.30 263.22 M 173.54 270.24 L 172.99 270.95 C 172.46 272.52 169.58 269.81 169.88 272.01 C 171.52 274.72 174.91 276.25 175.47 279.60 C 176.48 281.29 175.18 282.99 175.18 284.73 C 176.06 286.45 178.11 286.05 179.71 285.95 C 181.92 280.27 179.68 272.42 173.54 270.24 M 63.33 274.41 C 60.98 275.97 58.66 277.59 56.39 279.29 C 55.42 279.93 54.90 280.84 54.83 282.01 C 58.23 280.56 61.51 278.71 64.30 276.27 C 65.64 275.85 64.11 273.49 63.33 274.41 M 63.38 279.40 C 61.51 280.91 59.28 282.07 57.83 284.03 C 60.30 284.28 62.66 283.03 64.32 281.28 C 65.63 280.83 64.12 278.54 63.38 279.40 Z" />
<path fill="#d4981c" opacity="1.00" d=" M 183.39 8.31 C 184.80 7.12 186.66 8.16 186.18 10.02 C 186.83 14.16 183.66 17.37 180.64 19.64 C 178.94 20.76 177.77 22.65 178.13 24.74 C 180.31 26.29 183.23 26.09 185.55 27.41 C 188.88 29.28 192.58 30.33 195.99 32.01 C 203.22 36.69 211.43 40.18 217.30 46.70 C 220.00 49.66 223.21 52.17 225.64 55.37 C 228.81 60.94 231.90 66.56 234.95 72.19 C 231.71 71.48 229.19 69.16 226.12 68.03 C 223.98 67.23 221.94 66.19 219.83 65.32 C 216.58 64.86 213.26 65.07 209.99 65.25 C 210.50 70.13 216.05 70.96 218.76 74.23 C 221.15 77.19 223.10 80.50 225.79 83.22 C 228.50 85.99 230.24 89.49 232.27 92.75 C 234.02 95.60 235.64 98.65 235.98 102.03 C 236.64 109.04 238.48 115.94 238.19 123.04 C 238.89 126.93 239.12 130.86 239.41 134.80 C 241.64 145.20 238.54 155.63 238.05 166.03 C 238.07 166.95 237.56 169.35 236.28 168.72 C 234.70 163.99 233.30 158.96 229.75 155.26 C 228.09 153.10 225.62 151.00 225.85 148.02 C 225.88 136.01 225.84 124.00 225.90 111.99 C 225.84 107.72 225.21 103.06 222.24 99.76 C 219.59 96.77 219.10 92.53 216.35 89.62 C 213.93 87.02 213.62 83.27 211.50 80.49 C 205.15 70.92 200.88 59.67 191.97 52.04 C 188.18 48.02 183.49 44.76 178.33 42.75 C 175.83 41.64 173.63 39.92 171.00 39.11 C 167.87 38.17 165.55 35.60 162.38 34.72 C 158.17 33.43 154.66 30.02 150.04 30.15 C 142.03 30.08 134.01 30.19 125.99 30.10 C 118.00 29.96 111.02 34.38 103.63 36.72 C 97.77 38.72 91.22 41.73 89.04 48.03 C 83.10 59.15 79.03 71.40 78.02 84.02 C 77.67 87.01 76.94 89.97 77.09 93.00 C 77.31 99.02 76.60 105.11 77.91 111.05 C 78.89 119.67 80.76 128.19 83.70 136.38 C 85.54 142.86 89.11 148.70 91.12 155.10 C 84.50 150.60 80.31 143.62 75.77 137.22 C 74.70 135.74 73.88 133.91 72.16 133.07 C 71.91 133.53 71.42 134.45 71.17 134.91 C 72.61 138.26 75.24 140.93 76.83 144.16 C 77.95 148.85 80.26 153.13 81.34 157.83 C 82.15 161.25 83.85 164.46 84.08 168.01 C 84.20 172.11 86.05 175.91 86.13 180.01 C 86.23 183.19 87.07 186.26 87.73 189.35 C 88.57 193.18 87.80 197.12 88.28 200.98 C 90.16 210.15 88.48 219.59 89.31 228.84 C 89.61 230.87 91.04 232.76 90.81 234.82 L 90.11 235.13 C 84.34 232.66 79.40 228.54 73.45 226.52 C 71.63 225.35 69.95 223.93 67.87 223.22 C 64.81 222.20 62.99 219.38 60.70 217.29 C 57.05 213.90 53.94 209.99 51.01 205.99 C 46.27 198.18 41.46 190.36 38.10 181.84 C 36.47 178.84 37.33 175.20 35.70 172.20 C 35.40 172.25 34.81 172.36 34.51 172.41 C 31.15 175.48 29.42 179.80 27.72 183.92 C 26.44 183.36 25.72 182.09 24.88 181.05 C 22.79 178.09 20.34 175.31 19.00 171.90 C 15.76 164.39 14.65 156.23 13.55 148.20 C 12.45 143.20 12.96 138.07 12.87 133.00 C 12.88 129.45 12.58 125.86 13.32 122.36 C 14.13 118.82 13.62 115.13 14.47 111.59 C 14.93 109.44 15.06 107.22 14.78 105.04 C 14.18 105.11 12.96 105.25 12.36 105.31 C 8.86 107.93 7.45 112.43 4.05 115.12 C 4.75 105.94 11.02 98.42 12.36 89.37 C 15.79 84.36 15.50 77.89 18.86 72.85 C 20.64 70.29 22.14 67.54 24.19 65.18 C 26.26 62.85 27.30 59.76 29.69 57.71 C 32.00 55.66 33.92 53.25 35.93 50.92 C 40.65 46.91 45.01 42.48 50.07 38.88 C 53.25 38.00 55.31 41.13 58.13 41.80 C 59.95 42.01 62.39 42.37 63.39 40.39 C 66.28 36.26 70.69 33.70 74.27 30.26 C 75.89 28.73 77.98 27.90 79.95 26.94 C 84.04 25.18 87.52 22.29 91.67 20.63 C 96.91 18.56 102.11 16.09 107.81 15.57 C 114.56 14.73 121.18 12.72 128.03 12.85 C 131.00 12.99 133.87 11.41 136.83 12.11 C 143.33 13.38 149.90 14.29 156.41 15.50 C 163.26 16.71 170.41 15.58 176.68 12.62 C 179.07 11.44 181.12 9.70 183.39 8.31 M 52.13 53.23 C 50.16 57.78 49.08 62.69 47.45 67.38 C 46.21 70.72 46.07 74.36 44.74 77.68 C 42.63 78.31 40.43 78.64 38.37 79.45 C 35.96 80.60 35.69 83.56 34.58 85.69 C 29.96 87.50 24.92 88.21 19.96 88.15 C 18.63 88.17 17.17 88.10 16.13 89.11 C 17.51 92.17 19.68 94.77 21.48 97.58 C 23.62 100.76 25.15 104.36 27.82 107.17 C 29.30 108.73 30.60 110.46 31.91 112.18 C 32.62 113.69 33.87 111.82 33.72 110.92 C 33.95 105.20 35.57 99.65 37.30 94.24 C 39.62 93.17 42.17 96.02 44.67 95.60 C 46.46 94.95 48.05 93.75 49.18 92.21 C 50.79 89.41 49.94 85.53 52.26 83.12 C 56.87 81.87 61.39 84.07 65.99 83.86 C 64.80 77.25 60.75 71.63 58.44 65.41 C 56.48 61.37 55.37 56.90 52.80 53.19 L 52.13 53.23 Z" />
<path fill="#ffffff" opacity="1.00" d=" M 106.94 38.90 C 110.41 38.39 113.36 35.85 116.97 35.99 C 128.28 36.07 139.60 35.84 150.90 36.10 C 154.43 37.52 157.70 39.51 161.32 40.71 C 163.92 42.11 167.52 43.17 168.34 46.35 C 168.61 46.05 169.15 45.43 169.42 45.13 C 170.08 45.66 171.04 46.07 171.32 46.93 C 170.72 50.26 174.62 51.23 176.72 52.79 C 175.51 53.01 174.29 53.19 173.07 53.33 C 171.78 53.10 170.48 52.91 169.18 52.76 L 168.30 52.65 C 166.61 52.33 164.89 52.72 163.18 52.64 C 160.85 52.41 158.56 51.70 156.21 51.67 C 152.04 52.23 147.31 52.92 144.79 56.73 C 142.46 58.84 141.75 62.62 143.77 65.18 C 145.45 67.17 147.24 69.12 149.38 70.61 C 153.19 72.46 157.65 72.39 161.73 71.67 C 163.64 71.38 165.23 70.26 166.62 68.99 C 167.71 70.96 168.04 73.19 168.19 75.41 C 169.62 74.06 170.94 72.47 172.84 71.76 C 172.33 72.31 171.32 73.42 170.82 73.97 C 173.03 74.37 175.23 74.84 177.47 75.08 C 177.67 72.51 180.69 72.33 182.66 71.93 C 184.21 72.24 185.54 73.36 187.18 73.50 C 186.69 72.50 186.14 71.55 185.70 70.53 C 186.58 69.87 187.60 69.35 188.22 68.41 C 187.54 68.31 186.17 68.13 185.49 68.03 C 186.79 67.47 188.19 66.92 189.43 68.02 L 189.56 68.92 C 189.61 69.23 189.72 69.86 189.77 70.17 C 190.84 74.21 194.65 76.62 196.29 80.36 C 196.94 81.84 197.49 83.35 198.13 84.84 C 200.00 89.34 203.61 92.85 205.41 97.39 C 207.31 102.22 209.82 106.83 210.95 111.93 C 212.55 118.17 212.48 124.68 213.85 130.97 C 215.20 136.89 214.53 142.99 214.73 149.00 C 215.01 154.72 213.49 160.32 213.64 166.04 C 213.84 171.95 211.30 177.42 209.75 183.00 C 209.08 185.25 210.05 187.48 210.59 189.63 C 208.97 192.50 206.70 195.49 203.40 196.50 C 201.65 197.29 200.77 199.14 199.45 200.42 C 196.39 202.02 193.62 204.14 190.42 205.48 C 188.27 206.35 187.32 208.56 186.50 210.55 C 182.87 211.66 180.09 214.49 176.39 215.40 C 172.35 216.50 168.83 219.02 164.64 219.64 C 161.43 220.08 158.22 220.48 155.02 220.97 C 138.77 221.22 122.49 220.65 106.25 221.26 C 101.70 219.69 96.83 219.73 92.17 218.67 C 91.52 213.60 92.62 208.42 91.59 203.39 C 90.31 198.74 91.48 193.88 90.82 189.16 C 90.18 186.12 88.85 183.18 89.01 180.02 C 89.10 177.63 88.74 175.27 88.00 173.00 C 86.87 169.52 87.14 165.75 85.64 162.38 C 84.37 159.32 83.95 156.03 83.00 152.89 C 88.78 156.37 92.84 162.14 99.01 165.07 C 98.99 163.58 99.26 161.95 98.35 160.65 C 92.37 150.99 87.61 140.54 84.42 129.62 C 82.83 121.78 80.72 114.00 79.98 106.01 C 80.08 100.35 79.82 94.67 80.11 89.01 C 81.15 85.05 80.83 80.91 81.87 76.95 C 84.48 64.72 88.08 52.05 96.50 42.44 C 100.19 41.82 103.22 39.30 106.94 38.90 M 107.51 40.34 C 106.99 41.86 110.47 42.78 110.78 41.18 C 110.34 39.96 108.49 39.58 107.51 40.34 M 111.55 42.71 C 111.91 43.24 112.61 44.29 112.97 44.82 C 109.91 45.33 107.04 46.62 103.97 47.06 C 102.38 47.15 101.24 48.31 99.94 49.07 C 99.50 48.67 98.61 47.87 98.17 47.47 C 97.43 48.98 97.56 50.97 95.99 51.96 C 93.05 54.32 91.37 57.82 90.38 61.37 C 89.88 63.73 87.60 65.47 87.95 68.02 C 89.58 67.72 91.17 67.27 92.73 66.72 C 93.91 64.67 93.85 62.15 95.17 60.19 C 96.66 57.75 97.82 54.90 100.36 53.34 C 103.95 51.20 107.91 49.57 112.08 49.04 C 114.14 48.97 116.07 49.91 118.10 50.14 C 117.51 49.38 116.89 48.66 116.23 47.96 C 116.60 48.02 117.33 48.15 117.70 48.22 C 117.55 46.92 118.23 45.93 119.12 45.07 C 118.61 43.75 117.50 43.94 116.42 44.30 C 115.96 41.94 113.24 42.89 111.55 42.71 M 140.36 43.35 C 137.60 43.88 134.72 44.58 132.74 46.74 C 130.80 48.97 127.57 47.92 125.02 47.86 C 125.04 46.51 125.43 45.20 125.70 43.87 C 122.95 43.44 124.29 46.95 124.09 48.60 C 126.89 49.50 129.54 50.85 132.41 51.53 C 135.46 48.91 139.00 46.71 142.99 45.92 C 147.93 44.34 153.14 45.23 158.21 44.92 C 157.84 44.48 157.11 43.62 156.74 43.19 C 151.30 42.96 145.77 42.68 140.36 43.35 M 141.38 50.22 C 140.39 50.58 138.90 51.73 139.43 52.92 C 140.80 53.83 143.27 50.78 141.38 50.22 M 138.10 54.22 L 137.67 54.93 L 138.07 55.66 L 138.90 55.67 L 139.32 54.96 L 138.92 54.24 L 138.10 54.22 M 117.29 57.59 C 114.90 58.07 112.04 57.43 110.09 59.14 C 110.12 59.55 110.18 60.36 110.22 60.77 C 111.50 61.18 112.56 60.05 113.72 59.71 C 115.73 58.63 118.09 59.16 120.27 58.82 C 119.45 58.11 118.43 57.43 117.29 57.59 M 139.11 59.21 C 138.05 59.47 137.24 60.07 136.69 61.02 C 137.72 61.46 138.78 61.83 139.86 62.12 C 140.58 61.23 142.08 60.34 141.68 59.01 C 142.30 57.65 139.93 56.86 138.89 57.10 C 137.89 57.86 137.96 58.57 139.11 59.21 M 101.49 72.77 C 102.31 75.97 104.02 79.46 107.10 81.01 C 105.79 81.78 105.62 82.86 106.60 84.25 C 106.14 84.39 105.23 84.69 104.77 84.84 C 103.79 84.32 104.94 82.73 104.02 82.10 C 103.14 81.22 102.33 80.28 101.50 79.36 C 100.18 80.12 98.98 81.45 97.31 80.94 C 96.82 78.03 96.47 75.09 95.73 72.22 L 95.06 72.00 C 95.00 75.87 95.38 80.45 92.01 83.18 C 94.58 82.52 97.66 80.99 100.13 82.68 C 99.54 82.76 98.35 82.92 97.76 83.00 C 98.43 85.07 99.76 86.87 101.38 88.30 C 100.48 90.51 98.71 88.26 97.33 87.89 C 97.11 90.64 94.67 88.17 93.15 88.91 C 91.58 89.94 90.16 91.38 89.65 93.24 C 90.81 93.04 91.96 92.79 93.10 92.50 C 92.56 93.72 92.02 94.98 91.86 96.31 C 93.28 96.04 94.66 95.62 96.06 95.26 C 94.57 96.09 93.00 96.76 91.51 97.59 C 90.94 99.55 89.98 101.12 87.74 101.30 C 88.67 102.19 89.75 102.90 90.83 103.60 C 90.09 103.73 88.60 103.99 87.85 104.11 L 87.66 105.18 C 89.32 105.08 92.03 106.08 92.39 103.68 C 93.35 103.88 94.49 104.31 95.03 103.13 L 94.70 104.25 C 95.49 104.22 97.06 104.15 97.85 104.12 C 98.79 103.01 99.69 101.87 100.68 100.80 C 100.04 103.73 97.22 105.23 94.77 106.39 C 93.33 105.83 91.74 105.62 90.69 107.03 C 90.32 109.01 92.36 109.52 93.62 110.43 C 91.89 111.24 89.86 111.97 90.79 114.34 C 93.03 113.55 94.72 111.87 96.55 110.44 C 96.74 110.83 97.12 111.62 97.31 112.01 C 98.47 112.54 98.01 109.88 98.55 109.14 C 99.51 111.13 99.42 113.31 99.01 115.43 C 101.01 115.35 101.78 113.39 102.92 112.07 C 102.57 113.49 102.19 114.90 101.87 116.32 C 102.48 116.30 103.70 116.25 104.31 116.23 C 104.34 114.19 103.71 112.22 103.54 110.20 C 105.79 106.63 109.59 104.52 112.51 101.59 C 112.64 101.18 112.91 100.37 113.04 99.96 C 112.55 100.11 111.55 100.41 111.05 100.56 C 111.44 99.67 111.83 98.79 112.22 97.90 C 110.38 97.56 108.22 98.04 106.70 96.72 C 109.46 96.68 112.21 96.97 114.97 97.08 C 114.42 96.12 113.88 95.16 113.34 94.21 C 114.04 92.91 116.41 93.44 116.97 92.07 C 115.54 91.64 113.88 91.69 112.72 90.63 C 114.18 90.73 115.63 90.95 117.10 90.96 C 117.34 90.08 117.53 89.19 117.77 88.32 C 118.92 88.08 121.46 90.01 121.39 87.93 C 118.28 85.62 115.27 88.57 112.08 88.80 C 110.24 89.01 108.41 89.46 106.54 89.43 C 107.82 88.71 108.98 87.80 110.17 86.95 C 110.39 88.62 113.85 89.18 113.78 87.14 C 116.13 86.70 118.49 85.79 120.89 86.46 C 122.49 86.54 124.77 87.67 125.74 85.76 C 126.85 83.99 128.23 82.44 129.71 80.97 C 130.02 78.93 130.49 76.93 131.17 74.98 C 130.87 74.73 130.27 74.23 129.97 73.98 L 129.17 74.01 C 129.10 71.88 129.25 69.69 128.67 67.62 C 127.10 66.40 125.91 64.81 124.65 63.30 C 119.79 60.37 113.88 63.00 108.81 61.10 C 106.09 64.78 101.62 67.74 101.49 72.77 M 129.33 65.97 C 130.27 67.90 131.67 69.55 133.00 71.21 C 133.05 69.90 133.00 68.59 132.86 67.29 C 131.73 66.74 130.55 66.30 129.33 65.97 M 144.22 69.22 L 144.22 69.78 L 144.78 69.78 L 144.78 69.22 L 144.22 69.22 M 188.30 71.18 L 188.30 71.63 L 188.75 71.63 L 188.76 71.18 L 188.30 71.18 M 145.33 72.25 C 145.32 73.67 147.86 73.42 148.67 72.75 C 148.71 71.28 146.13 71.54 145.33 72.25 M 165.33 72.15 L 165.34 72.97 L 166.06 73.38 L 166.77 72.96 L 166.76 72.13 L 166.04 71.73 L 165.33 72.15 M 188.15 72.98 C 187.74 73.59 186.92 74.81 186.50 75.43 C 183.30 73.98 179.98 75.71 177.75 78.07 C 180.37 77.64 183.04 76.32 185.71 77.19 C 187.40 78.63 188.18 80.86 190.00 82.19 C 190.54 79.52 189.32 77.24 187.09 75.84 C 188.46 76.42 189.90 77.10 191.43 76.91 C 191.65 74.73 190.13 73.40 188.15 72.98 M 170.42 75.15 L 170.42 75.83 L 171.05 76.31 C 171.43 76.19 172.19 75.96 172.57 75.84 L 172.57 75.16 C 172.19 75.04 171.43 74.80 171.05 74.68 L 170.42 75.15 M 174.28 75.27 L 174.27 75.73 L 174.73 75.73 L 174.73 75.27 L 174.28 75.27 M 161.78 76.00 C 163.83 77.91 166.25 79.63 169.22 79.01 C 167.16 77.10 164.78 75.37 161.78 76.00 M 162.12 78.49 L 162.14 78.95 L 162.60 78.93 L 162.58 78.47 L 162.12 78.49 M 132.44 81.51 C 131.27 83.89 130.42 86.46 128.70 88.54 C 128.21 88.61 127.22 88.73 126.72 88.80 C 126.97 89.96 127.34 91.12 128.22 91.98 C 129.42 90.95 130.75 90.00 131.63 88.66 C 132.12 86.04 132.73 83.43 133.05 80.78 L 132.44 81.51 M 190.19 84.35 L 189.75 85.02 C 189.86 85.42 190.07 86.23 190.18 86.64 L 190.83 86.65 L 191.27 85.98 C 191.17 85.57 190.95 84.76 190.85 84.36 L 190.19 84.35 M 187.96 85.15 L 187.55 85.87 L 187.96 86.58 L 188.79 86.58 L 189.20 85.86 L 188.78 85.15 L 187.96 85.15 M 185.23 87.13 C 183.22 88.69 184.37 91.61 183.82 93.79 C 182.45 94.85 180.82 95.48 179.38 96.43 C 178.00 97.74 176.92 99.59 174.91 100.01 C 172.91 100.31 170.96 99.64 169.00 99.41 C 167.69 99.59 166.40 99.88 165.09 100.02 C 164.71 96.83 164.62 93.36 166.58 90.62 C 162.70 91.61 164.37 96.11 163.85 99.00 C 163.19 99.00 161.87 98.99 161.21 98.99 C 160.64 97.82 161.78 95.21 160.13 94.97 C 160.00 96.57 159.99 98.17 159.83 99.76 C 158.10 100.62 156.17 100.90 154.32 101.37 C 152.62 102.34 152.12 104.80 150.00 105.08 C 148.46 105.46 146.90 106.18 145.29 105.87 C 143.33 104.58 144.27 101.97 143.80 100.02 C 143.12 100.02 141.76 100.02 141.08 100.02 C 140.79 101.89 140.93 103.80 141.42 105.63 C 142.16 108.25 141.90 110.99 142.22 113.67 C 143.12 114.83 144.18 115.87 145.33 116.78 C 148.87 117.21 152.46 117.04 156.02 116.96 C 157.88 116.92 159.17 115.23 160.99 114.95 C 163.48 114.15 166.12 114.12 168.67 113.62 C 171.78 112.29 174.60 110.35 177.45 108.55 C 179.45 104.92 181.69 101.44 183.78 97.87 C 184.23 96.37 185.43 95.39 186.53 94.38 C 187.08 92.63 187.53 90.85 188.36 89.20 C 187.50 88.39 186.69 86.36 185.23 87.13 M 192.89 88.69 C 192.34 92.07 193.63 96.23 190.83 98.86 C 188.14 101.40 187.08 105.03 184.86 107.91 C 184.08 108.86 184.08 110.17 183.64 111.28 C 183.21 111.21 182.33 111.06 181.89 110.99 C 180.07 111.72 180.77 113.84 180.67 115.35 C 181.45 115.28 183.02 115.15 183.81 115.08 C 185.99 109.72 191.79 106.78 193.29 101.08 C 194.75 97.13 194.51 92.83 194.08 88.72 L 192.89 88.69 M 115.14 94.74 C 115.58 94.81 116.47 94.95 116.91 95.02 C 114.72 98.09 113.19 101.57 112.73 105.33 C 111.85 105.15 110.98 104.98 110.10 104.82 C 108.23 106.21 106.86 108.37 107.33 110.77 C 106.49 110.50 105.64 110.24 104.80 109.98 C 105.51 113.08 105.74 116.24 105.94 119.40 C 107.95 119.12 108.69 117.04 109.69 115.57 C 112.60 111.21 115.24 106.61 116.82 101.59 C 118.91 99.72 120.64 97.37 120.19 94.37 C 121.73 94.12 122.32 92.41 123.29 91.39 C 122.30 92.01 121.29 92.59 120.26 93.14 C 120.12 92.41 119.85 90.94 119.71 90.21 C 119.24 92.66 117.54 94.22 115.14 94.74 M 155.33 91.63 C 154.54 93.11 154.49 95.23 155.29 96.72 C 156.76 96.22 156.64 92.27 155.33 91.63 M 123.32 95.43 C 122.01 96.61 122.82 98.56 124.26 99.22 C 122.46 100.25 122.41 102.19 123.13 103.92 C 125.28 103.05 125.49 99.59 128.10 99.16 C 129.78 99.03 130.15 97.59 130.38 96.17 C 130.35 95.56 130.30 94.33 130.27 93.71 C 127.88 93.59 124.85 93.07 123.32 95.43 M 88.17 95.61 C 86.86 97.47 90.26 99.04 90.89 96.84 C 91.62 95.19 89.02 94.29 88.17 95.61 M 141.30 96.02 C 141.06 96.31 140.59 96.87 140.35 97.16 C 140.77 99.77 143.81 96.31 141.30 96.02 M 149.16 97.34 C 148.33 98.86 149.43 100.74 150.46 101.89 C 151.83 103.02 152.04 100.77 151.07 100.20 C 150.19 99.50 150.55 97.18 149.16 97.34 M 137.64 99.19 C 137.18 101.56 141.57 99.74 139.10 98.65 C 138.73 98.78 138.01 99.05 137.64 99.19 M 122.16 106.36 C 122.05 106.76 121.83 107.57 121.72 107.98 L 122.17 108.65 L 122.82 108.64 C 122.93 108.24 123.14 107.43 123.25 107.02 L 122.81 106.35 L 122.16 106.36 M 124.19 107.20 L 123.76 107.91 L 124.15 108.64 L 124.97 108.66 L 125.41 107.96 L 125.02 107.23 L 124.19 107.20 M 127.54 107.36 C 126.49 108.85 125.32 110.28 124.45 111.90 C 124.83 112.10 125.58 112.51 125.95 112.72 C 127.17 110.98 127.23 108.76 127.90 106.81 L 127.54 107.36 M 118.91 110.71 C 118.24 116.09 118.40 121.88 121.28 126.64 C 122.78 128.79 124.63 130.66 126.34 132.63 C 128.07 134.47 129.68 136.68 132.25 137.37 C 132.25 136.52 132.26 134.82 132.26 133.97 C 131.62 132.76 130.43 133.01 129.37 133.30 C 128.91 130.08 126.37 127.88 125.20 124.96 C 124.15 122.48 121.65 120.97 120.63 118.50 C 120.14 115.93 120.36 113.30 120.10 110.71 L 118.91 110.71 M 95.25 113.06 C 94.30 112.96 92.45 114.57 94.08 115.07 C 95.84 115.97 98.12 112.70 95.25 113.06 M 138.25 114.32 C 137.56 115.13 137.32 117.68 138.76 117.66 C 139.44 116.85 139.69 114.29 138.25 114.32 M 125.09 116.29 L 124.68 117.01 L 125.09 117.73 L 125.91 117.73 L 126.33 117.01 L 125.91 116.29 L 125.09 116.29 M 141.28 121.31 C 142.06 122.81 145.22 122.24 146.68 121.69 C 145.89 120.20 142.74 120.75 141.28 121.31 M 191.29 121.28 C 191.02 123.88 190.72 126.48 190.02 129.02 C 190.45 128.99 191.31 128.93 191.73 128.90 C 192.88 126.74 191.97 123.94 191.71 121.62 L 191.29 121.28 M 149.28 122.28 L 149.28 122.73 L 149.73 122.73 L 149.73 122.28 L 149.28 122.28 M 146.27 123.57 L 146.27 124.02 L 146.72 124.02 L 146.72 123.57 L 146.27 123.57 M 189.23 130.22 L 189.22 130.77 L 189.77 130.78 L 189.78 130.23 L 189.23 130.22 M 192.27 130.42 L 192.28 130.87 L 192.73 130.87 L 192.73 130.41 L 192.27 130.42 M 198.49 137.65 C 196.93 137.77 195.37 137.94 193.83 138.20 C 195.86 139.10 197.73 140.65 199.93 141.02 C 199.90 139.79 200.66 136.78 198.49 137.65 M 188.90 140.83 C 188.92 143.68 190.67 146.16 190.91 148.94 C 190.22 151.88 190.06 154.89 189.91 157.90 C 188.26 159.56 187.22 161.67 186.92 164.00 C 187.32 163.98 188.13 163.93 188.53 163.91 C 189.29 160.40 192.62 157.84 192.04 154.04 C 192.08 149.60 192.33 144.11 188.90 140.83 M 201.94 141.77 C 203.10 145.38 202.88 149.16 203.35 152.86 C 203.20 153.33 202.90 154.27 202.76 154.74 C 200.67 154.81 200.26 156.95 199.52 158.47 C 197.25 159.94 194.93 161.34 192.77 162.98 C 194.02 163.05 195.27 163.04 196.52 162.96 C 198.88 166.17 203.27 162.56 202.85 159.46 C 204.57 158.56 205.98 157.16 206.18 155.14 C 205.50 154.44 204.75 153.82 203.95 153.28 C 206.42 149.79 204.71 144.64 201.94 141.77 M 193.27 143.27 L 193.27 143.72 L 193.72 143.72 L 193.72 143.27 L 193.27 143.27 M 173.56 167.19 C 171.80 167.47 170.01 167.57 168.24 167.52 C 165.33 166.69 162.90 164.11 159.66 164.70 C 159.70 165.26 159.77 166.37 159.80 166.93 C 162.12 169.55 165.54 170.83 168.20 173.06 L 167.12 172.78 C 168.06 173.90 168.81 175.31 170.14 176.04 C 172.69 176.15 175.15 175.28 177.55 174.53 C 181.47 172.28 185.91 169.43 187.15 164.82 C 186.74 165.13 185.91 165.74 185.49 166.04 C 183.76 165.03 181.84 164.37 179.94 163.77 C 177.51 164.25 175.86 166.44 173.56 167.19 Z" />
<path fill="#dcdcdc" opacity="1.00" d=" M 107.51 40.34 C 108.49 39.58 110.34 39.96 110.78 41.18 C 110.47 42.78 106.99 41.86 107.51 40.34 Z" />
<path fill="#dcdcdc" opacity="1.00" d=" M 111.55 42.71 C 113.24 42.89 115.96 41.94 116.42 44.30 C 117.50 43.94 118.61 43.75 119.12 45.07 C 118.23 45.93 117.55 46.92 117.70 48.22 C 117.33 48.15 116.60 48.02 116.23 47.96 C 115.15 46.91 114.07 45.84 112.97 44.82 C 112.61 44.29 111.91 43.24 111.55 42.71 Z" />
<path fill="#000000" opacity="1.00" d=" M 140.36 43.35 C 145.77 42.68 151.30 42.96 156.74 43.19 C 157.11 43.62 157.84 44.48 158.21 44.92 C 153.14 45.23 147.93 44.34 142.99 45.92 C 139.00 46.71 135.46 48.91 132.41 51.53 C 129.54 50.85 126.89 49.50 124.09 48.60 C 124.29 46.95 122.95 43.44 125.70 43.87 C 125.43 45.20 125.04 46.51 125.02 47.86 C 127.57 47.92 130.80 48.97 132.74 46.74 C 134.72 44.58 137.60 43.88 140.36 43.35 Z" />
<path fill="#000000" opacity="1.00" d=" M 103.97 47.06 C 107.04 46.62 109.91 45.33 112.97 44.82 C 114.07 45.84 115.15 46.91 116.23 47.96 C 116.89 48.66 117.51 49.38 118.10 50.14 C 116.07 49.91 114.14 48.97 112.08 49.04 C 107.91 49.57 103.95 51.20 100.36 53.34 C 97.82 54.90 96.66 57.75 95.17 60.19 C 93.85 62.15 93.91 64.67 92.73 66.72 C 91.17 67.27 89.58 67.72 87.95 68.02 C 87.60 65.47 89.88 63.73 90.38 61.37 C 91.37 57.82 93.05 54.32 95.99 51.96 C 97.56 50.97 97.43 48.98 98.17 47.47 C 98.61 47.87 99.50 48.67 99.94 49.07 C 101.24 48.31 102.38 47.15 103.97 47.06 Z" />
<path fill="#dcdcdc" opacity="1.00" d=" M 171.32 46.93 C 177.00 46.06 181.21 50.65 185.46 53.61 C 187.46 55.60 189.61 57.43 191.80 59.21 C 196.53 62.93 197.15 69.53 201.24 73.78 C 203.51 76.03 202.40 79.93 205.46 81.57 C 208.95 87.33 212.98 92.76 216.41 98.56 C 217.42 101.15 220.04 103.08 220.05 106.01 C 220.07 122.01 220.01 138.01 220.07 154.01 C 220.12 156.06 219.50 158.02 219.20 160.03 C 218.79 163.99 219.33 167.98 218.98 171.94 C 218.30 173.51 217.03 174.75 216.45 176.37 C 216.15 177.79 216.05 179.25 215.72 180.67 C 214.98 181.63 214.14 182.50 213.40 183.46 C 212.99 185.79 213.35 188.64 210.59 189.63 C 210.05 187.48 209.08 185.25 209.75 183.00 C 211.30 177.42 213.84 171.95 213.64 166.04 C 213.49 160.32 215.01 154.72 214.73 149.00 C 214.53 142.99 215.20 136.89 213.85 130.97 C 212.48 124.68 212.55 118.17 210.95 111.93 C 209.82 106.83 207.31 102.22 205.41 97.39 C 203.61 92.85 200.00 89.34 198.13 84.84 C 197.49 83.35 196.94 81.84 196.29 80.36 C 194.65 76.62 190.84 74.21 189.77 70.17 C 190.87 70.50 193.22 71.72 193.73 70.14 C 192.90 68.71 190.95 69.06 189.56 68.92 L 189.43 68.02 C 189.48 65.68 186.49 65.35 185.12 63.97 L 184.79 63.22 C 184.40 62.26 183.88 61.40 183.21 60.63 C 181.39 58.76 180.08 56.52 179.05 54.14 C 178.56 54.60 178.09 55.08 177.59 55.53 C 176.40 55.31 175.22 55.10 174.03 54.89 C 174.63 56.14 175.29 57.36 175.96 58.59 C 174.43 59.72 174.19 61.62 174.04 63.38 C 173.99 63.84 173.89 64.76 173.84 65.22 C 172.85 65.83 171.85 66.43 170.84 67.01 C 170.65 66.68 170.25 66.01 170.06 65.68 C 170.93 63.66 171.31 61.43 170.86 59.25 C 169.21 57.29 166.90 55.80 166.05 53.27 C 166.61 53.12 167.74 52.81 168.30 52.65 L 169.18 52.76 C 169.84 53.81 170.34 55.05 171.39 55.78 C 172.71 56.00 172.87 54.24 173.07 53.33 C 174.29 53.19 175.51 53.01 176.72 52.79 C 174.62 51.23 170.72 50.26 171.32 46.93 M 215.39 102.28 L 215.38 102.73 L 215.83 102.74 L 215.84 102.29 L 215.39 102.28 Z" />
<path fill="#000000" opacity="1.00" d=" M 141.38 50.22 C 143.27 50.78 140.80 53.83 139.43 52.92 C 138.90 51.73 140.39 50.58 141.38 50.22 Z" />
<path fill="#000000" opacity="1.00" d=" M 156.21 51.67 C 158.56 51.70 160.85 52.41 163.18 52.64 C 164.89 52.72 166.61 52.33 168.30 52.65 C 167.74 52.81 166.61 53.12 166.05 53.27 C 166.90 55.80 169.21 57.29 170.86 59.25 C 171.31 61.43 170.93 63.66 170.06 65.68 C 168.88 66.75 167.73 67.85 166.62 68.99 C 165.23 70.26 163.64 71.38 161.73 71.67 C 157.65 72.39 153.19 72.46 149.38 70.61 C 147.24 69.12 145.45 67.17 143.77 65.18 C 141.75 62.62 142.46 58.84 144.79 56.73 C 147.31 52.92 152.04 52.23 156.21 51.67 M 152.31 54.25 C 149.73 55.63 147.53 57.62 145.17 59.34 C 143.59 63.43 147.37 66.75 150.89 67.91 C 153.06 66.90 155.40 66.41 157.61 65.53 C 157.85 64.37 158.10 63.21 158.34 62.05 C 160.09 61.25 160.93 63.08 162.02 64.07 C 164.07 63.51 165.97 62.52 167.85 61.54 C 168.60 59.86 168.06 58.31 166.42 57.51 C 162.76 53.82 157.16 53.38 152.31 54.25 M 167.25 63.17 C 165.03 63.84 163.01 65.05 160.87 65.93 C 158.70 67.15 156.04 66.87 153.90 68.15 L 154.18 68.97 C 159.17 69.47 165.24 68.49 168.25 64.04 L 167.96 63.25 L 167.25 63.17 Z" />
<path fill="#000000" opacity="1.00" d=" M 52.13 53.23 L 52.80 53.19 C 55.37 56.90 56.48 61.37 58.44 65.41 C 60.75 71.63 64.80 77.25 65.99 83.86 C 61.39 84.07 56.87 81.87 52.26 83.12 C 49.94 85.53 50.79 89.41 49.18 92.21 C 48.05 93.75 46.46 94.95 44.67 95.60 C 42.17 96.02 39.62 93.17 37.30 94.24 C 35.57 99.65 33.95 105.20 33.72 110.92 C 33.87 111.82 32.62 113.69 31.91 112.18 C 30.60 110.46 29.30 108.73 27.82 107.17 C 25.15 104.36 23.62 100.76 21.48 97.58 C 19.68 94.77 17.51 92.17 16.13 89.11 C 17.17 88.10 18.63 88.17 19.96 88.15 C 24.92 88.21 29.96 87.50 34.58 85.69 C 35.69 83.56 35.96 80.60 38.37 79.45 C 40.43 78.64 42.63 78.31 44.74 77.68 C 46.07 74.36 46.21 70.72 47.45 67.38 C 49.08 62.69 50.16 57.78 52.13 53.23 Z" />
<path fill="#000000" opacity="1.00" d=" M 169.18 52.76 C 170.48 52.91 171.78 53.10 173.07 53.33 C 172.87 54.24 172.71 56.00 171.39 55.78 C 170.34 55.05 169.84 53.81 169.18 52.76 Z" />
<path fill="#ceb9ba" opacity="1.00" d=" M 138.10 54.22 L 138.92 54.24 L 139.32 54.96 L 138.90 55.67 L 138.07 55.66 L 137.67 54.93 L 138.10 54.22 Z" />
<path fill="#ffffff" opacity="1.00" d=" M 152.31 54.25 C 157.16 53.38 162.76 53.82 166.42 57.51 C 168.06 58.31 168.60 59.86 167.85 61.54 C 165.97 62.52 164.07 63.51 162.02 64.07 C 160.93 63.08 160.09 61.25 158.34 62.05 C 158.10 63.21 157.85 64.37 157.61 65.53 C 155.40 66.41 153.06 66.90 150.89 67.91 C 147.37 66.75 143.59 63.43 145.17 59.34 C 147.53 57.62 149.73 55.63 152.31 54.25 Z" />
<path fill="#ffffff" opacity="1.00" d=" M 177.59 55.53 C 178.09 55.08 178.56 54.60 179.05 54.14 C 180.08 56.52 181.39 58.76 183.21 60.63 C 180.92 60.13 178.50 59.40 176.16 60.10 C 174.15 62.28 176.83 64.16 178.23 65.68 C 176.83 64.92 175.44 64.14 174.04 63.38 C 174.19 61.62 174.43 59.72 175.96 58.59 C 177.03 57.87 177.45 56.75 177.59 55.53 Z" />
<path fill="#000000" opacity="1.00" d=" M 174.03 54.89 C 175.22 55.10 176.40 55.31 177.59 55.53 C 177.45 56.75 177.03 57.87 175.96 58.59 C 175.29 57.36 174.63 56.14 174.03 54.89 Z" />
<path fill="#000000" opacity="1.00" d=" M 117.29 57.59 C 118.43 57.43 119.45 58.11 120.27 58.82 C 118.09 59.16 115.73 58.63 113.72 59.71 C 112.56 60.05 111.50 61.18 110.22 60.77 C 110.18 60.36 110.12 59.55 110.09 59.14 C 112.04 57.43 114.90 58.07 117.29 57.59 Z" />
<path fill="#000000" opacity="1.00" d=" M 139.11 59.21 C 137.96 58.57 137.89 57.86 138.89 57.10 C 139.93 56.86 142.30 57.65 141.68 59.01 C 141.04 59.06 139.75 59.16 139.11 59.21 Z" />
<path fill="#ceb9ba" opacity="1.00" d=" M 139.11 59.21 C 139.75 59.16 141.04 59.06 141.68 59.01 C 142.08 60.34 140.58 61.23 139.86 62.12 C 138.78 61.83 137.72 61.46 136.69 61.02 C 137.24 60.07 138.05 59.47 139.11 59.21 Z" />
<path fill="#ceb9ba" opacity="1.00" d=" M 176.16 60.10 C 178.50 59.40 180.92 60.13 183.21 60.63 C 183.88 61.40 184.40 62.26 184.79 63.22 C 183.57 61.52 182.03 63.32 182.78 64.81 C 183.29 66.41 184.61 64.55 185.12 63.97 C 186.49 65.35 189.48 65.68 189.43 68.02 C 188.19 66.92 186.79 67.47 185.49 68.03 C 186.17 68.13 187.54 68.31 188.22 68.41 C 187.60 69.35 186.58 69.87 185.70 70.53 C 186.14 71.55 186.69 72.50 187.18 73.50 C 185.54 73.36 184.21 72.24 182.66 71.93 C 180.69 72.33 177.67 72.51 177.47 75.08 C 175.23 74.84 173.03 74.37 170.82 73.97 C 171.32 73.42 172.33 72.31 172.84 71.76 C 170.94 72.47 169.62 74.06 168.19 75.41 C 168.04 73.19 167.71 70.96 166.62 68.99 C 167.73 67.85 168.88 66.75 170.06 65.68 C 170.25 66.01 170.65 66.68 170.84 67.01 L 170.27 67.61 C 171.23 68.48 172.24 69.30 173.29 70.06 C 173.27 69.09 173.25 68.13 173.23 67.16 C 174.26 67.21 175.30 67.23 176.34 67.23 C 175.49 66.58 174.67 65.89 173.84 65.22 C 173.89 64.76 173.99 63.84 174.04 63.38 C 175.44 64.14 176.83 64.92 178.23 65.68 C 176.83 64.16 174.15 62.28 176.16 60.10 M 177.59 61.16 C 177.18 62.55 179.53 63.53 180.53 62.72 C 181.07 61.27 178.57 60.17 177.59 61.16 M 179.28 64.09 L 179.29 64.91 L 180.00 65.32 L 180.72 64.91 L 180.72 64.09 L 180.00 63.68 L 179.28 64.09 M 179.60 66.62 C 179.40 66.76 178.99 67.06 178.78 67.20 C 181.02 67.15 183.17 67.78 185.27 68.50 C 183.77 67.29 181.48 65.83 179.60 66.62 M 177.08 68.48 C 177.07 68.91 177.06 69.78 177.05 70.21 C 178.67 70.37 180.29 70.56 181.91 70.82 C 180.35 69.93 178.84 68.90 177.08 68.48 M 169.17 69.17 L 168.82 70.00 L 169.16 70.83 L 170.00 71.17 L 170.83 70.83 L 171.17 70.00 L 170.83 69.17 L 170.00 68.82 L 169.17 69.17 M 175.27 70.27 L 175.27 70.73 L 175.73 70.72 L 175.73 70.27 L 175.27 70.27 Z" />
<path fill="#000000" opacity="1.00" d=" M 101.49 72.77 C 101.62 67.74 106.09 64.78 108.81 61.10 C 113.88 63.00 119.79 60.37 124.65 63.30 C 125.91 64.81 127.10 66.40 128.67 67.62 C 129.25 69.69 129.10 71.88 129.17 74.01 C 128.31 80.12 121.65 83.30 116.02 83.05 C 112.88 83.33 109.88 82.36 107.10 81.01 C 104.02 79.46 102.31 75.97 101.49 72.77 M 111.46 64.43 C 109.73 65.40 107.80 66.03 106.21 67.23 C 104.50 68.97 103.64 71.49 103.91 73.92 C 105.73 76.71 108.01 80.15 111.78 79.82 C 114.02 78.63 116.24 77.38 118.65 76.57 C 120.42 75.86 119.76 73.50 120.32 72.05 C 122.25 71.53 122.84 74.28 124.03 75.29 C 125.18 74.35 126.52 73.41 127.06 71.96 C 126.82 70.38 126.26 68.86 125.66 67.38 C 121.51 64.67 116.37 62.75 111.46 64.43 M 123.33 76.19 C 119.97 77.37 116.47 78.60 113.73 80.96 C 118.37 81.74 123.55 79.94 126.22 75.96 C 125.49 76.02 124.05 76.13 123.33 76.19 Z" />
<path fill="#ffffff" opacity="1.00" d=" M 177.59 61.16 C 178.57 60.17 181.07 61.27 180.53 62.72 C 179.53 63.53 177.18 62.55 177.59 61.16 Z" />
<path fill="#ffffff" opacity="1.00" d=" M 182.78 64.81 C 182.03 63.32 183.57 61.52 184.79 63.22 L 185.12 63.97 C 184.61 64.55 183.29 66.41 182.78 64.81 Z" />
<path fill="#ffffff" opacity="1.00" d=" M 167.25 63.17 L 167.96 63.25 L 168.25 64.04 C 165.24 68.49 159.17 69.47 154.18 68.97 L 153.90 68.15 C 156.04 66.87 158.70 67.15 160.87 65.93 C 163.01 65.05 165.03 63.84 167.25 63.17 Z" />
<path fill="#ffffff" opacity="1.00" d=" M 111.46 64.43 C 116.37 62.75 121.51 64.67 125.66 67.38 C 126.26 68.86 126.82 70.38 127.06 71.96 C 126.52 73.41 125.18 74.35 124.03 75.29 C 122.84 74.28 122.25 71.53 120.32 72.05 C 119.76 73.50 120.42 75.86 118.65 76.57 C 116.24 77.38 114.02 78.63 111.78 79.82 C 108.01 80.15 105.73 76.71 103.91 73.92 C 103.64 71.49 104.50 68.97 106.21 67.23 C 107.80 66.03 109.73 65.40 111.46 64.43 Z" />
<path fill="#ffffff" opacity="1.00" d=" M 179.28 64.09 L 180.00 63.68 L 180.72 64.09 L 180.72 64.91 L 180.00 65.32 L 179.29 64.91 L 179.28 64.09 Z" />
<path fill="#ffffff" opacity="1.00" d=" M 173.84 65.22 C 174.67 65.89 175.49 66.58 176.34 67.23 C 175.30 67.23 174.26 67.21 173.23 67.16 C 173.25 68.13 173.27 69.09 173.29 70.06 C 172.24 69.30 171.23 68.48 170.27 67.61 L 170.84 67.01 C 171.85 66.43 172.85 65.83 173.84 65.22 Z" />
<path fill="#000000" opacity="1.00" d=" M 129.33 65.97 C 130.55 66.30 131.73 66.74 132.86 67.29 C 133.00 68.59 133.05 69.90 133.00 71.21 C 131.67 69.55 130.27 67.90 129.33 65.97 Z" />
<path fill="#ffffff" opacity="1.00" d=" M 179.60 66.62 C 181.48 65.83 183.77 67.29 185.27 68.50 C 183.17 67.78 181.02 67.15 178.78 67.20 C 178.99 67.06 179.40 66.76 179.60 66.62 Z" />
<path fill="#ffffff" opacity="1.00" d=" M 177.08 68.48 C 178.84 68.90 180.35 69.93 181.91 70.82 C 180.29 70.56 178.67 70.37 177.05 70.21 C 177.06 69.78 177.07 68.91 177.08 68.48 Z" />
<path fill="#000000" opacity="1.00" d=" M 144.22 69.22 L 144.78 69.22 L 144.78 69.78 L 144.22 69.78 L 144.22 69.22 Z" />
<path fill="#ffffff" opacity="1.00" d=" M 169.17 69.17 L 170.00 68.82 L 170.83 69.17 L 171.17 70.00 L 170.83 70.83 L 170.00 71.17 L 169.16 70.83 L 168.82 70.00 L 169.17 69.17 Z" />
<path fill="#ceb9ba" opacity="1.00" d=" M 189.56 68.92 C 190.95 69.06 192.90 68.71 193.73 70.14 C 193.22 71.72 190.87 70.50 189.77 70.17 C 189.72 69.86 189.61 69.23 189.56 68.92 Z" />
<path fill="#ffffff" opacity="1.00" d=" M 175.27 70.27 L 175.73 70.27 L 175.73 70.72 L 175.27 70.73 L 175.27 70.27 Z" />
<path fill="#000000" opacity="1.00" d=" M 188.30 71.18 L 188.76 71.18 L 188.75 71.63 L 188.30 71.63 L 188.30 71.18 Z" />
<path fill="#000000" opacity="1.00" d=" M 95.06 72.00 L 95.73 72.22 C 96.47 75.09 96.82 78.03 97.31 80.94 C 98.98 81.45 100.18 80.12 101.50 79.36 C 102.33 80.28 103.14 81.22 104.02 82.10 C 104.94 82.73 103.79 84.32 104.77 84.84 C 105.23 84.69 106.14 84.39 106.60 84.25 C 106.90 85.14 107.08 86.07 107.15 87.02 C 104.61 85.92 102.47 84.13 100.13 82.68 C 97.66 80.99 94.58 82.52 92.01 83.18 C 95.38 80.45 95.00 75.87 95.06 72.00 Z" />
<path fill="#000000" opacity="1.00" d=" M 145.33 72.25 C 146.13 71.54 148.71 71.28 148.67 72.75 C 147.86 73.42 145.32 73.67 145.33 72.25 Z" />
<path fill="#ceb9ba" opacity="1.00" d=" M 165.33 72.15 L 166.04 71.73 L 166.76 72.13 L 166.77 72.96 L 166.06 73.38 L 165.34 72.97 L 165.33 72.15 Z" />
<path fill="#ceb9ba" opacity="1.00" d=" M 188.15 72.98 C 190.13 73.40 191.65 74.73 191.43 76.91 C 189.90 77.10 188.46 76.42 187.09 75.84 L 186.50 75.43 C 186.92 74.81 187.74 73.59 188.15 72.98 Z" />
<path fill="#dcdcdc" opacity="1.00" d=" M 129.17 74.01 L 129.97 73.98 C 130.27 74.23 130.87 74.73 131.17 74.98 C 130.49 76.93 130.02 78.93 129.71 80.97 C 128.23 82.44 126.85 83.99 125.74 85.76 C 124.77 87.67 122.49 86.54 120.89 86.46 C 118.49 85.79 116.13 86.70 113.78 87.14 C 112.64 86.84 111.22 85.96 110.17 86.95 C 108.98 87.80 107.82 88.71 106.54 89.43 C 104.78 89.30 103.08 88.74 101.38 88.30 C 99.76 86.87 98.43 85.07 97.76 83.00 C 98.35 82.92 99.54 82.76 100.13 82.68 C 102.47 84.13 104.61 85.92 107.15 87.02 C 107.08 86.07 106.90 85.14 106.60 84.25 C 105.62 82.86 105.79 81.78 107.10 81.01 C 109.88 82.36 112.88 83.33 116.02 83.05 C 121.65 83.30 128.31 80.12 129.17 74.01 Z" />
<path fill="#ceb9ba" opacity="1.00" d=" M 170.42 75.15 L 171.05 74.68 C 171.43 74.80 172.19 75.04 172.57 75.16 L 172.57 75.84 C 172.19 75.96 171.43 76.19 171.05 76.31 L 170.42 75.83 L 170.42 75.15 Z" />
<path fill="#ceb9ba" opacity="1.00" d=" M 174.28 75.27 L 174.73 75.27 L 174.73 75.73 L 174.27 75.73 L 174.28 75.27 Z" />
<path fill="#000000" opacity="1.00" d=" M 177.75 78.07 C 179.98 75.71 183.30 73.98 186.50 75.43 L 187.09 75.84 C 189.32 77.24 190.54 79.52 190.00 82.19 C 188.18 80.86 187.40 78.63 185.71 77.19 C 183.04 76.32 180.37 77.64 177.75 78.07 Z" />
<path fill="#ffffff" opacity="1.00" d=" M 123.33 76.19 C 124.05 76.13 125.49 76.02 126.22 75.96 C 123.55 79.94 118.37 81.74 113.73 80.96 C 116.47 78.60 119.97 77.37 123.33 76.19 Z" />
<path fill="#000000" opacity="1.00" d=" M 161.78 76.00 C 164.78 75.37 167.16 77.10 169.22 79.01 C 166.25 79.63 163.83 77.91 161.78 76.00 Z" />
<path fill="#ceb9ba" opacity="1.00" d=" M 162.12 78.49 L 162.58 78.47 L 162.60 78.93 L 162.14 78.95 L 162.12 78.49 Z" />
<path fill="#000000" opacity="1.00" d=" M 132.44 81.51 L 133.05 80.78 C 132.73 83.43 132.12 86.04 131.63 88.66 C 130.75 90.00 129.42 90.95 128.22 91.98 C 127.34 91.12 126.97 89.96 126.72 88.80 C 127.22 88.73 128.21 88.61 128.70 88.54 C 130.42 86.46 131.27 83.89 132.44 81.51 Z" />
<path fill="#000000" opacity="1.00" d=" M 190.19 84.35 L 190.85 84.36 C 190.95 84.76 191.17 85.57 191.27 85.98 L 190.83 86.65 L 190.18 86.64 C 190.07 86.23 189.86 85.42 189.75 85.02 L 190.19 84.35 Z" />
<path fill="#dcdcdc" opacity="1.00" d=" M 187.96 85.15 L 188.78 85.15 L 189.20 85.86 L 188.79 86.58 L 187.96 86.58 L 187.55 85.87 L 187.96 85.15 Z" />
<path fill="#ceb9ba" opacity="1.00" d=" M 110.17 86.95 C 111.22 85.96 112.64 86.84 113.78 87.14 C 113.85 89.18 110.39 88.62 110.17 86.95 Z" />
<path fill="#ceb9ba" opacity="1.00" d=" M 112.08 88.80 C 115.27 88.57 118.28 85.62 121.39 87.93 C 121.46 90.01 118.92 88.08 117.77 88.32 C 117.53 89.19 117.34 90.08 117.10 90.96 C 115.63 90.95 114.18 90.73 112.72 90.63 C 113.88 91.69 115.54 91.64 116.97 92.07 C 116.41 93.44 114.04 92.91 113.34 94.21 C 113.88 95.16 114.42 96.12 114.97 97.08 C 112.21 96.97 109.46 96.68 106.70 96.72 C 108.22 98.04 110.38 97.56 112.22 97.90 C 111.83 98.79 111.44 99.67 111.05 100.56 C 111.55 100.41 112.55 100.11 113.04 99.96 C 112.91 100.37 112.64 101.18 112.51 101.59 C 109.59 104.52 105.79 106.63 103.54 110.20 C 103.71 112.22 104.34 114.19 104.31 116.23 C 103.70 116.25 102.48 116.30 101.87 116.32 C 102.19 114.90 102.57 113.49 102.92 112.07 C 101.78 113.39 101.01 115.35 99.01 115.43 C 99.42 113.31 99.51 111.13 98.55 109.14 C 98.01 109.88 98.47 112.54 97.31 112.01 C 97.12 111.62 96.74 110.83 96.55 110.44 C 94.72 111.87 93.03 113.55 90.79 114.34 C 89.86 111.97 91.89 111.24 93.62 110.43 C 92.36 109.52 90.32 109.01 90.69 107.03 C 91.74 105.62 93.33 105.83 94.77 106.39 C 97.22 105.23 100.04 103.73 100.68 100.80 C 99.69 101.87 98.79 103.01 97.85 104.12 C 97.06 104.15 95.49 104.22 94.70 104.25 L 95.03 103.13 C 96.45 103.63 98.04 101.86 96.49 100.86 C 95.59 99.78 94.68 98.71 93.72 97.69 C 93.07 99.07 92.62 100.51 92.19 101.97 C 93.64 101.66 95.07 101.27 96.49 100.86 C 96.12 101.43 95.39 102.57 95.03 103.13 C 94.49 104.31 93.35 103.88 92.39 103.68 C 92.03 106.08 89.32 105.08 87.66 105.18 L 87.85 104.11 C 88.60 103.99 90.09 103.73 90.83 103.60 C 89.75 102.90 88.67 102.19 87.74 101.30 C 89.98 101.12 90.94 99.55 91.51 97.59 C 93.00 96.76 94.57 96.09 96.06 95.26 C 94.66 95.62 93.28 96.04 91.86 96.31 C 92.02 94.98 92.56 93.72 93.10 92.50 C 91.96 92.79 90.81 93.04 89.65 93.24 C 90.16 91.38 91.58 89.94 93.15 88.91 C 94.67 88.17 97.11 90.64 97.33 87.89 C 98.71 88.26 100.48 90.51 101.38 88.30 C 103.08 88.74 104.78 89.30 106.54 89.43 C 108.41 89.46 110.24 89.01 112.08 88.80 M 93.78 91.12 C 93.28 92.44 95.45 93.44 96.02 92.09 C 96.45 90.80 94.26 89.62 93.78 91.12 M 98.55 90.56 L 98.52 91.06 L 99.03 91.13 L 99.05 90.61 L 98.55 90.56 M 102.54 90.22 C 102.34 91.66 104.81 91.69 105.46 90.78 C 105.66 89.34 103.18 89.30 102.54 90.22 M 109.09 90.28 L 108.68 90.99 L 109.08 91.71 L 109.91 91.72 L 110.32 91.00 L 109.92 90.29 L 109.09 90.28 M 99.03 91.13 C 97.79 92.40 99.70 94.58 101.05 93.27 C 102.57 92.16 100.27 90.15 99.03 91.13 M 96.02 92.09 C 95.14 93.17 96.62 95.32 97.91 94.47 C 98.96 93.37 97.34 91.24 96.02 92.09 M 111.09 92.28 L 110.68 92.99 L 111.09 93.71 L 111.91 93.72 L 112.32 93.00 L 111.92 92.28 L 111.09 92.28 M 104.47 93.85 C 103.46 96.63 100.12 96.24 98.11 97.84 C 101.44 97.38 105.30 96.81 107.13 93.61 C 106.25 93.64 105.29 93.46 104.47 93.85 M 109.27 93.27 L 109.27 93.72 L 109.73 93.72 L 109.73 93.27 L 109.27 93.27 M 96.08 97.28 L 95.67 98.00 L 96.09 98.71 L 96.91 98.71 L 97.32 97.99 L 96.90 97.28 L 96.08 97.28 M 103.26 98.24 C 102.77 99.67 103.23 100.13 104.64 99.62 C 105.12 98.19 104.66 97.73 103.26 98.24 M 104.24 101.27 C 104.73 101.72 105.70 102.61 106.19 103.06 C 107.71 104.33 108.66 102.04 109.68 101.26 C 108.00 100.34 105.89 100.19 104.24 101.27 M 101.07 103.37 L 100.67 104.12 L 101.07 104.89 L 101.87 104.83 L 102.26 104.08 L 101.86 103.36 L 101.07 103.37 M 105.38 103.03 L 104.89 103.73 L 105.22 104.47 L 106.03 104.51 L 106.52 103.80 L 106.19 103.06 L 105.38 103.03 M 97.25 106.58 C 98.53 106.90 100.07 106.84 101.02 107.92 C 100.92 108.51 100.73 109.67 100.63 110.25 C 101.51 109.02 102.36 107.76 103.14 106.45 C 102.58 106.61 101.47 106.91 100.91 107.07 C 100.95 106.52 101.03 105.43 101.07 104.89 C 99.86 105.59 98.59 106.18 97.25 106.58 M 94.29 108.09 L 94.29 108.91 L 95.01 109.32 L 95.72 108.91 L 95.72 108.09 L 95.00 107.68 L 94.29 108.09 Z" />
<path fill="#000000" opacity="1.00" d=" M 185.23 87.13 C 186.69 86.36 187.50 88.39 188.36 89.20 C 187.53 90.85 187.08 92.63 186.53 94.38 C 185.43 95.39 184.23 96.37 183.78 97.87 C 181.69 101.44 179.45 104.92 177.45 108.55 C 174.60 110.35 171.78 112.29 168.67 113.62 C 166.12 114.12 163.48 114.15 160.99 114.95 C 159.17 115.23 157.88 116.92 156.02 116.96 C 152.46 117.04 148.87 117.21 145.33 116.78 C 144.18 115.87 143.12 114.83 142.22 113.67 C 141.90 110.99 142.16 108.25 141.42 105.63 C 140.93 103.80 140.79 101.89 141.08 100.02 C 141.76 100.02 143.12 100.02 143.80 100.02 C 144.27 101.97 143.33 104.58 145.29 105.87 C 146.90 106.18 148.46 105.46 150.00 105.08 C 152.12 104.80 152.62 102.34 154.32 101.37 C 156.17 100.90 158.10 100.62 159.83 99.76 C 159.99 98.17 160.00 96.57 160.13 94.97 C 161.78 95.21 160.64 97.82 161.21 98.99 C 161.87 98.99 163.19 99.00 163.85 99.00 C 164.37 96.11 162.70 91.61 166.58 90.62 C 164.62 93.36 164.71 96.83 165.09 100.02 C 166.40 99.88 167.69 99.59 169.00 99.41 C 170.96 99.64 172.91 100.31 174.91 100.01 C 176.92 99.59 178.00 97.74 179.38 96.43 C 180.82 95.48 182.45 94.85 183.82 93.79 C 184.37 91.61 183.22 88.69 185.23 87.13 M 160.24 103.11 C 158.70 104.30 159.19 106.38 158.81 108.05 C 157.29 107.73 158.70 104.71 156.90 104.96 C 154.13 104.42 154.54 108.33 153.80 110.05 C 153.48 109.59 152.82 108.67 152.49 108.21 C 151.95 109.15 151.33 110.03 150.80 110.97 C 150.16 110.18 149.52 109.40 148.86 108.64 C 147.25 109.82 148.08 112.21 148.07 113.90 C 150.33 114.11 152.63 114.22 154.88 113.85 C 160.36 111.81 165.98 110.09 171.65 108.64 C 173.07 107.78 174.13 106.45 175.11 105.14 C 173.03 103.83 170.59 103.09 168.14 102.97 C 168.02 104.70 168.03 106.45 167.90 108.19 C 166.70 107.17 167.02 105.24 165.83 104.20 C 164.54 102.38 162.12 102.86 160.24 103.11 Z" />
<path fill="#dcdcdc" opacity="1.00" d=" M 192.89 88.69 L 194.08 88.72 C 194.51 92.83 194.75 97.13 193.29 101.08 C 191.79 106.78 185.99 109.72 183.81 115.08 C 183.02 115.15 181.45 115.28 180.67 115.35 C 180.77 113.84 180.07 111.72 181.89 110.99 C 182.33 111.06 183.21 111.21 183.64 111.28 C 184.08 110.17 184.08 108.86 184.86 107.91 C 187.08 105.03 188.14 101.40 190.83 98.86 C 193.63 96.23 192.34 92.07 192.89 88.69 Z" />
<path fill="#ffffff" opacity="1.00" d=" M 93.78 91.12 C 94.26 89.62 96.45 90.80 96.02 92.09 C 95.45 93.44 93.28 92.44 93.78 91.12 Z" />
<path fill="#ffffff" opacity="1.00" d=" M 98.55 90.56 L 99.05 90.61 L 99.03 91.13 L 98.52 91.06 L 98.55 90.56 Z" />
<path fill="#ffffff" opacity="1.00" d=" M 102.54 90.22 C 103.18 89.30 105.66 89.34 105.46 90.78 C 104.81 91.69 102.34 91.66 102.54 90.22 Z" />
<path fill="#ffffff" opacity="1.00" d=" M 109.09 90.28 L 109.92 90.29 L 110.32 91.00 L 109.91 91.72 L 109.08 91.71 L 108.68 90.99 L 109.09 90.28 Z" />
<path fill="#000000" opacity="1.00" d=" M 115.14 94.74 C 117.54 94.22 119.24 92.66 119.71 90.21 C 119.85 90.94 120.12 92.41 120.26 93.14 C 121.29 92.59 122.30 92.01 123.29 91.39 C 122.32 92.41 121.73 94.12 120.19 94.37 C 119.09 94.57 118.00 94.79 116.91 95.02 C 116.47 94.95 115.58 94.81 115.14 94.74 Z" />
<path fill="#ffffff" opacity="1.00" d=" M 99.03 91.13 C 100.27 90.15 102.57 92.16 101.05 93.27 C 99.70 94.58 97.79 92.40 99.03 91.13 Z" />
<path fill="#000000" opacity="1.00" d=" M 155.33 91.63 C 156.64 92.27 156.76 96.22 155.29 96.72 C 154.49 95.23 154.54 93.11 155.33 91.63 Z" />
<path fill="#ffffff" opacity="1.00" d=" M 96.02 92.09 C 97.34 91.24 98.96 93.37 97.91 94.47 C 96.62 95.32 95.14 93.17 96.02 92.09 Z" />
<path fill="#ffffff" opacity="1.00" d=" M 111.09 92.28 L 111.92 92.28 L 112.32 93.00 L 111.91 93.72 L 111.09 93.71 L 110.68 92.99 L 111.09 92.28 Z" />
<path fill="#ffffff" opacity="1.00" d=" M 104.47 93.85 C 105.29 93.46 106.25 93.64 107.13 93.61 C 105.30 96.81 101.44 97.38 98.11 97.84 C 100.12 96.24 103.46 96.63 104.47 93.85 Z" />
<path fill="#ffffff" opacity="1.00" d=" M 109.27 93.27 L 109.73 93.27 L 109.73 93.72 L 109.27 93.72 L 109.27 93.27 Z" />
<path fill="#dcdcdc" opacity="1.00" d=" M 123.32 95.43 C 124.85 93.07 127.88 93.59 130.27 93.71 C 130.30 94.33 130.35 95.56 130.38 96.17 C 128.21 96.90 126.11 97.85 124.26 99.22 C 122.82 98.56 122.01 96.61 123.32 95.43 Z" />
<path fill="#ceb9ba" opacity="1.00" d=" M 88.17 95.61 C 89.02 94.29 91.62 95.19 90.89 96.84 C 90.26 99.04 86.86 97.47 88.17 95.61 Z" />
<path fill="#dcdcdc" opacity="1.00" d=" M 116.91 95.02 C 118.00 94.79 119.09 94.57 120.19 94.37 C 120.64 97.37 118.91 99.72 116.82 101.59 C 115.24 106.61 112.60 111.21 109.69 115.57 C 108.69 117.04 107.95 119.12 105.94 119.40 C 105.74 116.24 105.51 113.08 104.80 109.98 C 105.64 110.24 106.49 110.50 107.33 110.77 C 106.86 108.37 108.23 106.21 110.10 104.82 C 110.98 104.98 111.85 105.15 112.73 105.33 C 113.19 101.57 114.72 98.09 116.91 95.02 Z" />
<path fill="#000000" opacity="1.00" d=" M 124.26 99.22 C 126.11 97.85 128.21 96.90 130.38 96.17 C 130.15 97.59 129.78 99.03 128.10 99.16 C 125.49 99.59 125.28 103.05 123.13 103.92 C 122.41 102.19 122.46 100.25 124.26 99.22 Z" />
<path fill="#000000" opacity="1.00" d=" M 141.30 96.02 C 143.81 96.31 140.77 99.77 140.35 97.16 C 140.59 96.87 141.06 96.31 141.30 96.02 Z" />
<path fill="#ffffff" opacity="1.00" d=" M 96.08 97.28 L 96.90 97.28 L 97.32 97.99 L 96.91 98.71 L 96.09 98.71 L 95.67 98.00 L 96.08 97.28 Z" />
<path fill="#000000" opacity="1.00" d=" M 149.16 97.34 C 150.55 97.18 150.19 99.50 151.07 100.20 C 152.04 100.77 151.83 103.02 150.46 101.89 C 149.43 100.74 148.33 98.86 149.16 97.34 Z" />
<path fill="#dcdcdc" opacity="1.00" d=" M 93.72 97.69 C 94.68 98.71 95.59 99.78 96.49 100.86 C 95.07 101.27 93.64 101.66 92.19 101.97 C 92.62 100.51 93.07 99.07 93.72 97.69 Z" />
<path fill="#dcdcdc" opacity="1.00" d=" M 103.26 98.24 C 104.66 97.73 105.12 98.19 104.64 99.62 C 103.23 100.13 102.77 99.67 103.26 98.24 Z" />
<path fill="#000000" opacity="1.00" d=" M 137.64 99.19 C 138.01 99.05 138.73 98.78 139.10 98.65 C 141.57 99.74 137.18 101.56 137.64 99.19 Z" />
<path fill="#ffffff" opacity="1.00" d=" M 104.24 101.27 C 105.89 100.19 108.00 100.34 109.68 101.26 C 108.66 102.04 107.71 104.33 106.19 103.06 C 105.70 102.61 104.73 101.72 104.24 101.27 Z" />
<path fill="#ffffff" opacity="1.00" d=" M 96.49 100.86 C 98.04 101.86 96.45 103.63 95.03 103.13 C 95.39 102.57 96.12 101.43 96.49 100.86 Z" />
<path fill="#ceb9ba" opacity="1.00" d=" M 215.39 102.28 L 215.84 102.29 L 215.83 102.74 L 215.38 102.73 L 215.39 102.28 Z" />
<path fill="#ffffff" opacity="1.00" d=" M 101.07 103.37 L 101.86 103.36 L 102.26 104.08 L 101.87 104.83 L 101.07 104.89 L 100.67 104.12 L 101.07 103.37 Z" />
<path fill="#ffffff" opacity="1.00" d=" M 105.38 103.03 L 106.19 103.06 L 106.52 103.80 L 106.03 104.51 L 105.22 104.47 L 104.89 103.73 L 105.38 103.03 Z" />
<path fill="#ffffff" opacity="1.00" d=" M 160.24 103.11 C 162.12 102.86 164.54 102.38 165.83 104.20 C 167.02 105.24 166.70 107.17 167.90 108.19 C 168.03 106.45 168.02 104.70 168.14 102.97 C 170.59 103.09 173.03 103.83 175.11 105.14 C 174.13 106.45 173.07 107.78 171.65 108.64 C 165.98 110.09 160.36 111.81 154.88 113.85 C 152.63 114.22 150.33 114.11 148.07 113.90 C 148.08 112.21 147.25 109.82 148.86 108.64 C 149.52 109.40 150.16 110.18 150.80 110.97 C 151.33 110.03 151.95 109.15 152.49 108.21 C 152.82 108.67 153.48 109.59 153.80 110.05 C 154.54 108.33 154.13 104.42 156.90 104.96 C 158.70 104.71 157.29 107.73 158.81 108.05 C 159.19 106.38 158.70 104.30 160.24 103.11 Z" />
<path fill="#ffffff" opacity="1.00" d=" M 97.25 106.58 C 98.59 106.18 99.86 105.59 101.07 104.89 C 101.03 105.43 100.95 106.52 100.91 107.07 C 101.47 106.91 102.58 106.61 103.14 106.45 C 102.36 107.76 101.51 109.02 100.63 110.25 C 100.73 109.67 100.92 108.51 101.02 107.92 C 100.07 106.84 98.53 106.90 97.25 106.58 Z" />
<path fill="#000000" opacity="1.00" d=" M 122.16 106.36 L 122.81 106.35 L 123.25 107.02 C 123.14 107.43 122.93 108.24 122.82 108.64 L 122.17 108.65 L 121.72 107.98 C 121.83 107.57 122.05 106.76 122.16 106.36 Z" />
<path fill="#dcdcdc" opacity="1.00" d=" M 124.19 107.20 L 125.02 107.23 L 125.41 107.96 L 124.97 108.66 L 124.15 108.64 L 123.76 107.91 L 124.19 107.20 Z" />
<path fill="#000000" opacity="1.00" d=" M 127.54 107.36 L 127.90 106.81 C 127.23 108.76 127.17 110.98 125.95 112.72 C 125.58 112.51 124.83 112.10 124.45 111.90 C 125.32 110.28 126.49 108.85 127.54 107.36 Z" />
<path fill="#ffffff" opacity="1.00" d=" M 94.29 108.09 L 95.00 107.68 L 95.72 108.09 L 95.72 108.91 L 95.01 109.32 L 94.29 108.91 L 94.29 108.09 Z" />
<path fill="#dcdcdc" opacity="1.00" d=" M 118.91 110.71 L 120.10 110.71 C 120.36 113.30 120.14 115.93 120.63 118.50 C 121.65 120.97 124.15 122.48 125.20 124.96 C 126.37 127.88 128.91 130.08 129.37 133.30 C 130.43 133.01 131.62 132.76 132.26 133.97 C 132.26 134.82 132.25 136.52 132.25 137.37 C 129.68 136.68 128.07 134.47 126.34 132.63 C 124.63 130.66 122.78 128.79 121.28 126.64 C 118.40 121.88 118.24 116.09 118.91 110.71 Z" />
<path fill="#ceb9ba" opacity="1.00" d=" M 95.25 113.06 C 98.12 112.70 95.84 115.97 94.08 115.07 C 92.45 114.57 94.30 112.96 95.25 113.06 Z" />
<path fill="#000000" opacity="1.00" d=" M 138.25 114.32 C 139.69 114.29 139.44 116.85 138.76 117.66 C 137.32 117.68 137.56 115.13 138.25 114.32 Z" />
<path fill="#d4981c" opacity="1.00" d=" M 263.00 114.53 C 263.00 114.48 263.00 114.39 263.00 114.35 L 263.00 114.53 Z" />
<path fill="#dcdcdc" opacity="1.00" d=" M 125.09 116.29 L 125.91 116.29 L 126.33 117.01 L 125.91 117.73 L 125.09 117.73 L 124.68 117.01 L 125.09 116.29 Z" />
<path fill="#000000" opacity="1.00" d=" M 141.28 121.31 C 142.74 120.75 145.89 120.20 146.68 121.69 C 145.22 122.24 142.06 122.81 141.28 121.31 Z" />
<path fill="#000000" opacity="1.00" d=" M 191.29 121.28 L 191.71 121.62 C 191.97 123.94 192.88 126.74 191.73 128.90 C 191.31 128.93 190.45 128.99 190.02 129.02 C 190.72 126.48 191.02 123.88 191.29 121.28 Z" />
<path fill="#dcdcdc" opacity="1.00" d=" M 149.28 122.28 L 149.73 122.28 L 149.73 122.73 L 149.28 122.73 L 149.28 122.28 Z" />
<path fill="#ceb9ba" opacity="1.00" d=" M 146.27 123.57 L 146.72 123.57 L 146.72 124.02 L 146.27 124.02 L 146.27 123.57 Z" />
<path fill="#000000" opacity="1.00" d=" M 189.23 130.22 L 189.78 130.23 L 189.77 130.78 L 189.22 130.77 L 189.23 130.22 Z" />
<path fill="#ceb9ba" opacity="1.00" d=" M 192.27 130.42 L 192.73 130.41 L 192.73 130.87 L 192.28 130.87 L 192.27 130.42 Z" />
<path fill="#000000" opacity="1.00" d=" M 198.49 137.65 C 200.66 136.78 199.90 139.79 199.93 141.02 C 197.73 140.65 195.86 139.10 193.83 138.20 C 195.37 137.94 196.93 137.77 198.49 137.65 Z" />
<path fill="#000000" opacity="1.00" d=" M 188.90 140.83 C 192.33 144.11 192.08 149.60 192.04 154.04 C 192.62 157.84 189.29 160.40 188.53 163.91 C 188.13 163.93 187.32 163.98 186.92 164.00 C 187.22 161.67 188.26 159.56 189.91 157.90 C 190.06 154.89 190.22 151.88 190.91 148.94 C 190.67 146.16 188.92 143.68 188.90 140.83 Z" />
<path fill="#000000" opacity="1.00" d=" M 201.94 141.77 C 204.71 144.64 206.42 149.79 203.95 153.28 L 203.35 152.86 C 202.88 149.16 203.10 145.38 201.94 141.77 Z" />
<path fill="#dcdcdc" opacity="1.00" d=" M 193.27 143.27 L 193.72 143.27 L 193.72 143.72 L 193.27 143.72 L 193.27 143.27 Z" />
<path fill="#dcdcdc" opacity="1.00" d=" M 203.35 152.86 L 203.95 153.28 C 204.75 153.82 205.50 154.44 206.18 155.14 C 205.98 157.16 204.57 158.56 202.85 159.46 C 203.27 162.56 198.88 166.17 196.52 162.96 C 199.40 160.97 201.93 158.25 202.76 154.74 C 202.90 154.27 203.20 153.33 203.35 152.86 Z" />
<path fill="#000000" opacity="1.00" d=" M 199.52 158.47 C 200.26 156.95 200.67 154.81 202.76 154.74 C 201.93 158.25 199.40 160.97 196.52 162.96 C 195.27 163.04 194.02 163.05 192.77 162.98 C 194.93 161.34 197.25 159.94 199.52 158.47 Z" />
<path fill="#dcdcdc" opacity="1.00" d=" M 173.56 167.19 C 175.86 166.44 177.51 164.25 179.94 163.77 C 181.84 164.37 183.76 165.03 185.49 166.04 C 183.42 168.16 181.36 170.31 179.07 172.19 C 176.00 174.59 171.69 174.15 168.20 173.06 C 165.54 170.83 162.12 169.55 159.80 166.93 C 159.77 166.37 159.70 165.26 159.66 164.70 C 162.90 164.11 165.33 166.69 168.24 167.52 C 170.01 167.57 171.80 167.47 173.56 167.19 Z" />
<path fill="#000000" opacity="1.00" d=" M 185.49 166.04 C 185.91 165.74 186.74 165.13 187.15 164.82 C 185.91 169.43 181.47 172.28 177.55 174.53 C 175.15 175.28 172.69 176.15 170.14 176.04 C 168.81 175.31 168.06 173.90 167.12 172.78 L 168.20 173.06 C 171.69 174.15 176.00 174.59 179.07 172.19 C 181.36 170.31 183.42 168.16 185.49 166.04 Z" />
<path fill="#000000" opacity="1.00" d=" M 238.81 201.87 C 241.08 202.42 243.37 203.29 245.18 204.81 C 247.13 206.92 248.62 209.45 250.90 211.27 C 251.06 208.57 250.85 205.86 251.22 203.18 L 252.09 202.56 C 254.21 204.82 253.88 208.00 254.25 210.84 C 257.17 211.06 260.17 210.86 263.00 211.79 L 263.00 214.27 C 260.37 215.18 257.20 214.46 254.83 215.73 C 255.61 216.58 256.39 217.43 257.18 218.29 C 256.53 218.99 255.82 219.63 255.06 220.20 C 250.12 217.50 247.94 211.82 243.59 208.44 C 241.40 206.80 239.40 204.61 238.81 201.87 Z" />
<path fill="#000000" opacity="1.00" d=" M 242.31 215.18 C 244.48 214.53 248.51 214.67 248.01 217.88 C 246.36 217.99 244.71 217.96 243.06 218.01 C 244.54 220.25 245.08 223.40 248.07 224.14 C 249.86 223.15 250.76 221.20 252.04 219.68 C 252.76 220.46 254.76 221.35 253.76 222.67 C 252.44 227.10 247.15 227.62 243.30 226.82 C 240.45 225.13 241.06 221.56 240.17 218.82 C 239.51 217.18 241.35 216.15 242.31 215.18 Z" />
<path fill="#000000" opacity="1.00" d=" M 224.24 216.44 C 227.16 216.51 229.82 218.37 230.88 221.11 C 232.60 225.20 235.12 228.83 238.21 232.00 C 237.85 232.51 237.14 233.52 236.78 234.03 C 233.83 231.73 231.18 228.92 229.47 225.56 C 228.70 223.98 228.40 222.12 227.23 220.78 C 225.82 219.78 224.19 219.15 222.72 218.26 C 220.81 217.49 223.43 216.56 224.24 216.44 Z" />
<path fill="#d4981c" opacity="1.00" d=" M 185.36 217.23 C 186.52 216.49 187.49 216.69 188.25 217.83 C 185.86 221.78 182.61 225.13 180.19 229.05 C 177.53 233.70 173.28 237.21 168.88 240.12 C 168.44 240.08 167.58 239.99 167.14 239.94 C 167.30 238.28 167.71 236.66 167.89 235.00 C 167.61 231.76 166.15 228.51 167.10 225.25 C 168.61 223.52 171.16 223.75 173.19 223.10 C 177.82 222.48 181.18 218.96 185.36 217.23 Z" />
<path fill="#000000" opacity="1.00" d=" M 214.26 223.34 L 214.85 222.90 C 215.59 224.30 216.02 225.84 216.77 227.24 C 217.78 228.65 219.48 229.32 220.99 230.06 C 221.99 229.37 222.54 227.60 224.01 227.92 C 226.50 227.59 228.27 229.65 230.33 230.67 C 231.94 231.45 232.85 233.09 233.70 234.58 C 233.05 235.45 232.40 236.32 231.77 237.20 C 233.73 238.56 236.35 239.19 237.59 241.39 C 238.75 243.23 240.14 244.95 241.96 246.19 C 242.07 243.48 241.89 240.77 242.12 238.07 L 243.05 237.80 C 245.54 239.68 244.81 243.20 245.14 245.93 C 248.18 246.59 252.59 244.51 254.27 248.00 C 252.83 251.25 248.88 249.51 246.14 250.15 C 245.08 251.53 247.71 252.08 248.27 253.10 C 247.49 253.78 246.56 255.86 245.31 254.78 C 242.31 252.85 240.33 249.66 238.03 246.99 C 235.82 243.15 229.55 241.50 230.37 236.24 C 228.58 234.23 227.52 230.08 224.11 231.05 C 223.32 233.44 227.47 234.41 227.04 236.98 C 227.12 240.10 226.97 244.21 223.87 245.87 C 221.36 248.12 217.87 246.64 215.02 246.02 C 214.93 247.60 214.90 249.20 215.09 250.78 C 217.30 252.22 220.45 252.62 221.54 255.40 C 223.37 259.72 225.90 263.67 229.21 267.00 C 228.85 267.51 228.15 268.51 227.79 269.01 C 224.99 266.90 222.54 264.26 220.80 261.20 C 219.78 259.47 219.55 257.32 218.23 255.78 C 216.76 254.61 214.98 253.90 213.23 253.26 C 211.91 253.96 210.95 255.13 209.87 256.12 C 208.78 256.06 207.86 255.64 207.10 254.86 C 207.88 253.18 208.49 251.23 210.03 250.08 C 210.85 249.25 212.59 248.59 211.99 247.10 C 208.42 246.77 204.82 247.29 201.27 246.81 C 201.01 246.58 200.48 246.11 200.21 245.87 C 200.86 242.98 202.40 240.37 204.32 238.13 C 204.98 238.10 206.29 238.03 206.95 237.99 C 207.62 240.33 206.37 242.25 204.99 244.00 C 208.06 243.89 211.15 243.98 214.05 245.11 C 211.29 242.32 210.72 236.80 214.81 234.95 C 216.89 236.62 215.39 238.92 214.96 240.97 C 215.84 243.80 218.95 244.60 221.59 243.91 C 222.26 242.06 223.03 240.23 223.57 238.33 C 222.04 235.68 220.21 232.98 217.33 231.66 C 214.66 230.52 213.30 227.72 212.14 225.23 C 212.80 224.54 213.50 223.91 214.26 223.34 Z" />
<path fill="#000000" opacity="1.00" d=" M 234.01 223.02 C 236.07 222.78 238.88 222.95 239.88 225.09 C 240.59 227.02 242.42 228.67 241.96 230.89 L 241.01 231.15 C 239.06 229.70 237.33 227.98 235.44 226.46 C 234.62 225.53 233.76 224.34 234.01 223.02 Z" />
<path fill="#000000" opacity="1.00" d=" M 45.30 227.12 C 47.93 226.22 49.91 229.15 51.08 231.06 C 51.03 231.50 50.94 232.38 50.89 232.82 L 50.02 233.28 C 48.81 231.67 47.68 229.97 46.08 228.72 C 46.86 231.04 47.24 233.50 46.95 235.95 C 45.43 236.02 43.83 236.24 42.34 235.79 C 40.78 234.32 38.16 232.71 39.11 230.19 L 39.98 229.72 C 41.49 231.11 42.47 234.65 44.97 233.90 C 45.35 231.60 42.56 228.72 45.30 227.12 Z" />
<path fill="#000000" opacity="1.00" d=" M 51.33 235.24 L 52.07 234.90 C 54.78 235.71 53.99 238.83 53.94 240.97 C 51.37 241.97 52.65 238.29 50.95 237.79 C 49.37 238.53 48.79 240.31 48.10 241.78 C 49.33 242.25 50.53 243.03 51.90 243.01 C 55.14 241.85 57.77 239.54 60.84 238.06 C 61.13 238.47 61.69 239.30 61.98 239.71 C 59.44 241.65 56.58 243.09 53.84 244.70 C 55.23 245.09 56.86 245.05 57.89 246.23 C 58.36 249.19 58.15 252.62 55.76 254.75 C 53.52 255.01 51.01 254.83 49.93 257.26 C 48.81 255.62 47.68 253.94 46.07 252.73 C 46.86 255.05 47.24 257.50 46.96 259.95 C 45.43 260.01 43.83 260.24 42.34 259.79 C 40.78 258.31 38.16 256.70 39.10 254.19 L 39.98 253.73 C 41.48 255.10 42.50 258.69 44.95 257.88 C 45.12 256.20 44.25 254.66 43.99 253.04 C 44.08 251.62 45.60 250.71 46.94 250.91 C 48.38 251.75 49.47 253.06 50.86 253.98 C 52.15 253.59 53.43 253.16 54.68 252.66 C 55.37 251.36 56.58 249.83 55.85 248.30 C 53.22 246.50 49.97 247.08 46.98 247.00 C 47.55 246.14 48.16 245.30 48.72 244.44 C 47.84 243.87 46.96 243.29 46.10 242.69 C 45.56 239.37 48.42 236.40 51.33 235.24 Z" />
<path fill="#000000" opacity="1.00" d=" M 85.43 239.21 C 87.84 237.83 88.92 241.08 89.03 242.90 C 87.53 246.05 85.51 248.93 84.11 252.12 C 83.83 254.72 84.06 257.34 84.02 259.95 C 82.65 258.90 81.15 258.30 79.45 258.91 C 79.09 255.67 78.73 252.37 79.12 249.12 C 80.18 247.33 80.99 245.43 81.42 243.39 C 82.75 241.99 84.12 240.62 85.43 239.21 Z" />
<path fill="#000000" opacity="1.00" d=" M 63.34 250.40 C 64.08 249.45 65.63 251.93 64.31 252.27 C 61.50 254.69 58.23 256.56 54.83 258.02 C 54.90 256.84 55.42 255.93 56.40 255.29 C 58.66 253.59 60.98 251.96 63.34 250.40 Z" />
<path fill="#000000" opacity="1.00" d=" M 93.33 250.19 C 94.43 249.85 95.55 249.83 96.69 250.12 C 97.00 251.24 98.32 252.45 97.62 253.64 C 95.91 256.73 95.85 260.34 94.68 263.64 C 93.96 265.60 94.18 268.22 91.98 269.26 C 90.39 268.34 89.57 266.58 89.03 264.90 C 88.40 262.34 90.10 260.20 90.86 257.90 C 91.17 255.14 90.33 251.72 93.33 250.19 Z" />
<path fill="#000000" opacity="1.00" d=" M 233.31 250.18 C 235.48 249.52 239.50 249.67 239.01 252.88 C 237.36 252.99 235.71 252.96 234.06 253.01 C 235.54 255.25 236.08 258.39 239.07 259.14 C 240.85 258.14 241.76 256.21 243.03 254.69 C 243.77 255.46 245.76 256.34 244.76 257.67 C 243.45 262.10 238.14 262.63 234.30 261.81 C 231.44 260.14 232.06 256.55 231.16 253.81 C 230.51 252.18 232.35 251.15 233.31 250.18 Z" />
<path fill="#000000" opacity="1.00" d=" M 178.28 254.23 C 181.62 254.39 185.23 254.72 187.74 257.22 C 192.25 260.64 192.97 266.61 194.34 271.71 C 194.99 273.04 196.78 272.83 197.95 273.41 C 198.64 275.61 197.19 277.34 195.98 279.00 C 199.05 278.89 202.14 278.98 205.04 280.11 C 202.29 277.30 201.73 271.81 205.80 269.94 C 207.88 271.62 206.40 273.92 205.96 275.97 C 206.84 278.81 209.94 279.60 212.59 278.91 C 213.26 277.06 214.03 275.24 214.57 273.34 C 213.05 270.68 211.21 267.98 208.33 266.66 C 205.66 265.52 204.30 262.72 203.14 260.23 C 203.97 259.37 204.88 258.59 205.84 257.89 C 206.58 259.29 207.01 260.84 207.77 262.24 C 208.79 263.65 210.48 264.32 212.00 265.07 C 212.98 264.35 213.54 262.61 215.01 262.93 C 217.25 262.56 218.87 264.34 220.70 265.28 C 222.63 266.17 223.87 267.95 224.86 269.78 C 224.05 270.51 223.35 271.52 222.26 271.87 C 220.39 270.24 219.14 268.08 217.67 266.11 C 217.04 266.09 215.76 266.07 215.12 266.06 C 214.29 268.42 218.48 269.41 218.04 271.98 C 218.12 275.10 217.97 279.21 214.87 280.87 C 212.38 283.10 208.92 281.68 206.11 281.01 C 205.97 282.90 206.07 284.80 205.79 286.68 C 204.25 288.26 202.54 289.66 200.86 291.09 C 199.77 291.07 198.85 290.66 198.10 289.86 C 198.88 288.18 199.49 286.22 201.03 285.08 C 201.86 284.25 203.58 283.59 202.99 282.10 C 199.44 281.77 195.85 282.28 192.30 281.82 C 191.52 281.21 190.86 280.50 190.31 279.69 C 189.59 276.30 189.22 272.85 188.66 269.44 C 186.59 266.83 184.83 263.89 182.20 261.78 C 179.96 260.30 177.15 259.48 175.73 257.01 C 176.45 255.97 177.30 255.02 178.28 254.23 M 184.21 257.22 L 184.22 257.78 L 184.78 257.77 L 184.77 257.21 L 184.21 257.22 Z" />
<path fill="#000000" opacity="1.00" d=" M 63.38 255.40 C 64.14 254.59 65.63 256.79 64.32 257.28 C 62.66 259.04 60.30 260.28 57.83 260.03 C 59.28 258.08 61.50 256.90 63.38 255.40 Z" />
<path fill="#000000" opacity="1.00" d=" M 102.33 257.23 L 102.98 256.73 C 104.32 257.84 106.37 258.94 106.07 261.00 C 106.24 263.50 102.77 264.43 103.05 267.01 C 103.14 268.75 102.27 270.04 100.91 271.02 C 101.79 272.81 103.04 274.39 104.04 276.12 C 104.51 278.78 101.31 279.67 99.31 278.82 C 97.74 277.58 96.59 275.84 96.06 273.92 C 95.60 270.37 96.72 266.88 97.39 263.44 C 98.99 261.34 100.39 259.04 102.33 257.23 Z" />
<path fill="#ffffff" opacity="1.00" d=" M 184.21 257.22 L 184.77 257.21 L 184.78 257.77 L 184.22 257.78 L 184.21 257.22 Z" />
<path fill="#000000" opacity="1.00" d=" M 67.34 258.26 C 68.89 257.37 70.48 258.76 71.89 259.31 C 72.07 260.52 72.09 261.73 71.95 262.96 C 69.86 263.83 70.11 261.29 69.64 260.07 C 67.49 260.19 63.84 261.95 65.18 264.68 C 66.60 266.34 68.51 267.47 70.36 268.60 C 74.87 266.99 79.31 265.05 83.99 264.01 C 84.70 267.68 79.30 266.60 77.99 268.82 C 79.96 270.33 82.96 270.73 84.20 273.02 C 83.92 273.29 83.38 273.83 83.11 274.10 C 81.40 273.03 79.81 271.75 77.98 270.90 C 76.04 272.32 76.64 277.71 73.09 276.93 C 73.22 274.20 75.76 271.95 75.04 269.00 C 72.79 269.84 70.78 271.66 68.40 271.92 C 68.36 268.64 65.05 267.75 63.14 265.72 C 62.86 264.26 62.82 262.74 63.16 261.30 C 64.27 259.94 65.73 258.92 67.34 258.26 Z" />
<path fill="#000000" opacity="1.00" d=" M 225.00 258.03 C 227.07 257.78 229.88 257.94 230.88 260.10 C 231.60 262.03 233.42 263.69 232.97 265.90 L 232.01 266.13 C 230.05 264.70 228.33 262.98 226.45 261.46 C 225.61 260.53 224.78 259.35 225.00 258.03 Z" />
<path fill="#000000" opacity="1.00" d=" M 51.33 259.24 L 52.07 258.90 C 54.78 259.72 53.99 262.84 53.94 264.98 C 51.39 265.92 52.60 262.37 50.96 261.75 C 49.42 262.57 48.77 264.27 48.10 265.78 C 49.33 266.25 50.54 267.02 51.90 267.01 C 55.20 265.79 57.92 263.48 61.05 261.94 C 60.97 262.59 60.82 263.91 60.74 264.56 C 58.56 266.14 56.16 267.36 53.83 268.70 C 55.22 269.08 56.86 269.04 57.89 270.23 C 58.41 273.26 58.05 276.64 55.75 278.88 C 54.10 279.11 52.43 279.04 50.78 278.96 C 51.51 277.41 53.26 277.17 54.67 276.54 C 55.45 275.33 56.56 273.79 55.85 272.31 C 53.22 270.49 49.96 271.08 46.97 271.00 C 47.55 270.13 48.17 269.30 48.74 268.43 C 47.84 267.87 46.96 267.29 46.10 266.69 C 45.56 263.37 48.41 260.39 51.33 259.24 Z" />
<path fill="#000000" opacity="1.00" d=" M 174.30 263.22 C 175.87 262.84 177.91 262.50 179.17 263.80 C 180.32 264.73 181.47 265.69 182.90 266.14 C 184.85 266.75 185.55 268.89 186.64 270.41 C 187.29 275.41 188.83 280.51 187.72 285.54 C 186.57 286.41 185.40 287.27 184.11 287.91 C 182.27 286.08 183.26 283.26 182.99 280.97 C 183.02 275.19 180.34 268.29 174.32 266.53 C 173.60 265.38 172.27 263.82 174.30 263.22 Z" />
<path fill="#000000" opacity="1.00" d=" M 173.54 270.24 C 179.68 272.42 181.92 280.27 179.71 285.95 C 178.11 286.05 176.06 286.45 175.18 284.73 C 175.18 282.99 176.48 281.29 175.47 279.60 C 174.91 276.25 171.52 274.72 169.88 272.01 C 169.58 269.81 172.46 272.52 172.99 270.95 L 173.54 270.24 Z" />
<path fill="#000000" opacity="1.00" d=" M 63.33 274.41 C 64.11 273.49 65.64 275.85 64.30 276.27 C 61.51 278.71 58.23 280.56 54.83 282.01 C 54.90 280.84 55.42 279.93 56.39 279.29 C 58.66 277.59 60.98 275.97 63.33 274.41 Z" />
<path fill="#000000" opacity="1.00" d=" M 63.38 279.40 C 64.12 278.54 65.63 280.83 64.32 281.28 C 62.66 283.03 60.30 284.28 57.83 284.03 C 59.28 282.07 61.51 280.91 63.38 279.40 Z" />
<path fill="#000000" opacity="1.00" d=" M 63.17 285.34 C 64.39 283.71 66.19 282.58 68.12 282.00 C 69.50 281.94 70.71 282.76 71.92 283.32 C 71.91 284.64 72.57 286.58 71.13 287.40 C 70.39 286.25 69.79 285.02 69.05 283.87 C 67.64 284.52 66.23 285.24 65.08 286.30 C 64.24 289.53 68.06 291.21 70.35 292.48 C 74.67 291.21 78.79 289.26 83.18 288.20 C 83.09 288.78 82.90 289.93 82.81 290.51 C 81.16 291.16 79.49 291.75 77.84 292.41 C 79.89 294.15 82.59 294.98 84.40 297.01 C 84.11 297.28 83.52 297.82 83.23 298.08 C 81.41 297.04 79.71 295.79 77.85 294.82 C 76.78 296.83 75.95 298.96 74.95 301.00 L 72.66 301.00 C 73.91 298.50 75.17 295.90 75.14 293.03 C 73.02 293.94 71.02 295.09 68.91 296.01 C 67.76 293.23 65.34 291.55 63.18 289.64 C 62.82 288.23 62.85 286.74 63.17 285.34 Z" />
</svg>
