<?xml version="1.0" encoding="UTF-8" ?>
<!DOCTYPE svg PUBLIC "-//W3C//DTD SVG 1.1//EN" "http://www.w3.org/Graphics/SVG/1.1/DTD/svg11.dtd">
<svg width="527pt" height="604pt" viewBox="0 0 527 604" version="1.1" xmlns="http://www.w3.org/2000/svg">
<g id="#ffffffff">
<path fill="#ffffff" opacity="1.00" d=" M 273.94 362.05 C 282.03 358.71 290.58 356.75 299.08 354.76 C 301.80 354.40 304.64 354.54 307.09 355.88 C 311.19 358.04 315.95 357.42 320.33 356.68 C 320.42 357.46 320.50 358.24 320.56 359.03 C 304.74 366.34 288.04 371.45 271.45 376.68 C 264.16 378.79 256.71 380.96 249.04 380.69 C 243.22 380.83 237.50 379.57 231.82 378.46 C 231.01 376.95 230.20 375.43 229.36 373.94 C 229.98 372.46 230.82 371.09 231.78 369.81 C 232.52 368.99 233.24 368.16 233.94 367.31 C 235.24 367.44 236.54 367.60 237.85 367.78 C 241.32 369.58 245.29 368.21 248.95 367.83 C 250.93 367.65 252.94 367.52 254.85 366.90 C 258.37 365.15 262.23 364.34 266.14 364.21 C 268.70 363.36 271.29 362.59 273.94 362.05 Z" />
<path fill="#ffffff" opacity="1.00" d=" M 21.77 371.65 C 26.50 371.64 31.23 371.57 35.95 371.66 C 39.43 371.74 43.24 372.85 45.31 375.86 C 48.62 380.48 46.59 388.10 40.88 389.72 C 34.71 391.57 28.11 390.50 21.76 390.71 C 21.80 384.36 21.77 378.00 21.77 371.65 Z" />
<path fill="#ffffff" opacity="1.00" d=" M 473.32 474.74 C 476.59 479.32 480.14 483.72 483.14 488.48 C 486.11 496.50 489.79 504.35 495.04 511.15 C 498.71 515.77 503.94 518.71 508.11 522.83 C 514.63 528.02 520.73 533.71 527.00 539.20 L 527.00 604.00 L 136.84 604.00 C 148.57 589.44 161.73 576.12 174.64 562.62 C 188.47 548.15 203.95 535.42 219.28 522.61 C 219.88 522.60 221.07 522.58 221.66 522.58 C 225.24 517.42 227.65 511.55 231.38 506.50 C 237.00 498.64 243.92 491.83 249.27 483.77 C 254.48 486.63 254.41 493.00 256.24 497.95 C 256.85 501.61 257.41 505.28 258.01 508.95 C 260.33 514.08 260.53 520.12 264.23 524.59 C 267.94 529.58 270.94 535.12 275.29 539.63 C 284.29 550.30 292.67 561.50 302.36 571.58 C 309.24 578.76 316.56 585.94 325.77 590.04 C 334.58 594.30 344.43 595.53 354.06 596.43 C 364.35 597.06 374.65 597.70 384.94 598.24 C 395.63 597.89 406.32 597.36 416.97 596.30 C 414.76 597.68 412.53 599.03 410.23 600.25 C 411.41 600.40 412.60 600.56 413.79 600.73 C 417.62 598.34 421.98 597.00 425.92 594.80 C 430.96 591.81 436.86 590.92 442.20 588.63 C 446.21 586.89 450.25 585.22 454.24 583.45 C 458.45 581.59 461.92 578.50 465.76 576.04 C 466.59 575.25 467.35 574.41 468.10 573.56 C 468.36 573.26 468.90 572.67 469.16 572.37 C 473.41 570.44 472.66 565.39 474.53 561.82 C 476.84 557.02 477.54 551.68 479.41 546.73 C 482.18 539.45 481.57 531.46 483.59 523.99 C 483.91 522.31 484.89 520.54 484.04 518.86 C 481.81 512.79 479.98 506.56 478.85 500.19 C 477.33 491.63 474.73 483.31 473.32 474.74 Z" />
</g>
<g id="#000000ff">
<path fill="#000000" opacity="1.00" d=" M 315.04 7.06 C 316.52 5.35 318.98 5.75 321.00 5.52 C 325.35 5.47 329.60 3.98 333.98 4.44 C 339.06 4.95 343.94 6.64 349.00 7.27 C 353.77 7.77 358.56 7.40 363.34 7.37 C 367.10 12.88 374.37 11.20 380.07 11.73 C 385.42 12.29 390.79 12.41 396.16 12.71 L 396.83 13.28 C 399.89 13.61 403.34 13.08 405.98 15.05 C 410.31 17.92 414.71 21.37 420.11 21.73 C 424.70 22.57 429.70 22.15 433.79 24.77 C 438.09 26.70 440.16 31.35 444.21 33.63 C 446.79 35.10 449.48 36.38 452.07 37.84 C 457.12 42.74 464.76 41.88 470.37 45.70 C 475.06 48.45 479.91 51.69 482.62 56.53 C 484.77 62.98 489.41 68.08 493.17 73.61 C 494.50 76.62 494.84 79.96 495.74 83.11 C 498.72 91.12 503.97 98.04 506.99 106.02 C 507.63 109.75 508.55 113.61 507.69 117.37 C 510.80 122.01 514.02 127.19 513.57 133.01 C 513.43 137.12 515.22 140.95 515.62 144.98 C 515.72 151.98 514.95 159.02 515.83 166.00 C 518.01 175.93 516.02 186.12 514.32 195.96 C 517.78 199.84 518.23 205.19 520.27 209.79 C 520.79 213.57 519.24 217.95 521.54 221.30 C 520.80 229.57 519.33 237.76 518.38 246.02 C 518.08 248.85 516.00 251.12 515.73 253.96 C 514.98 260.05 514.05 266.11 513.27 272.19 C 513.04 269.30 512.53 266.44 512.10 263.58 C 513.15 258.17 512.38 252.11 515.38 247.29 C 516.21 242.77 517.17 238.13 516.64 233.53 C 514.91 228.40 513.78 223.10 512.68 217.80 C 512.19 214.44 512.54 210.98 511.41 207.72 C 509.76 205.75 508.49 203.44 506.54 201.76 C 502.21 200.15 497.48 200.76 493.01 199.87 C 489.43 198.82 485.90 201.28 484.30 204.39 C 481.66 209.00 477.15 212.06 474.11 216.37 C 473.20 216.74 472.27 217.09 471.37 217.46 C 472.52 211.08 479.34 208.33 482.13 202.86 C 483.71 199.58 487.20 197.03 490.93 197.33 C 496.14 197.51 501.27 198.72 506.50 198.62 C 509.49 200.58 511.80 203.36 513.49 206.48 C 515.26 209.33 514.60 212.86 514.82 216.04 C 516.30 220.37 516.45 225.03 518.19 229.29 C 518.66 226.26 518.70 223.15 517.99 220.15 C 517.22 216.87 517.89 213.48 517.33 210.18 C 516.74 207.66 515.85 205.23 515.26 202.71 C 513.04 198.19 509.70 194.32 506.31 190.65 C 505.46 190.80 503.77 191.09 502.92 191.24 C 498.14 189.47 493.02 189.23 488.00 188.73 C 480.20 191.87 475.52 199.19 470.68 205.63 C 460.72 214.11 448.95 221.28 442.13 232.82 C 440.44 235.42 438.97 238.17 437.15 240.69 C 430.34 240.47 423.86 238.11 417.15 237.22 C 417.81 231.11 419.60 225.10 419.25 218.92 C 419.20 211.93 417.86 204.99 416.51 198.16 C 410.49 183.21 401.35 169.41 389.44 158.49 C 387.96 157.47 387.63 155.83 387.57 154.16 C 389.30 147.10 389.17 139.75 390.68 132.65 C 391.44 129.09 392.09 125.50 392.65 121.90 C 389.64 119.75 386.60 117.53 382.99 116.51 C 376.46 114.61 372.17 109.00 368.02 104.00 C 361.57 97.01 351.05 94.91 342.02 97.12 C 336.01 97.50 330.06 98.49 324.05 98.87 C 320.74 99.46 317.38 99.55 314.07 100.12 C 307.96 99.91 302.53 102.65 297.16 105.19 C 290.45 108.34 283.58 111.11 276.69 113.83 C 274.95 114.78 273.04 114.05 271.23 113.83 C 268.75 116.03 265.24 115.68 262.21 116.41 C 254.60 118.06 246.81 116.88 239.11 117.34 C 235.74 117.45 232.89 119.49 230.23 121.35 C 226.30 124.28 222.05 126.99 219.10 130.99 C 216.66 134.44 215.05 138.37 212.81 141.94 C 211.72 145.63 209.41 149.04 209.30 152.96 C 206.66 151.44 203.97 150.02 201.26 148.63 C 201.28 147.81 201.30 146.99 201.33 146.17 C 200.00 147.29 197.88 149.86 196.26 147.80 C 196.01 145.45 199.40 144.72 200.77 143.13 C 200.67 142.51 200.47 141.27 200.37 140.64 C 198.04 141.55 195.63 143.27 193.13 141.76 C 194.87 139.81 196.67 137.92 198.49 136.03 C 198.00 135.62 197.53 135.21 197.05 134.80 C 195.19 136.26 193.20 137.55 190.99 138.41 C 191.14 135.10 192.23 131.97 193.66 129.02 C 194.28 128.84 194.90 128.64 195.51 128.43 C 194.75 127.43 193.95 126.47 193.20 125.48 C 192.20 126.53 191.20 127.77 189.68 128.02 C 187.61 127.05 188.97 124.94 189.36 123.41 C 187.66 123.92 185.95 124.44 184.24 124.91 C 184.90 120.94 186.04 117.06 186.42 113.05 C 186.65 109.50 185.84 105.85 186.98 102.39 C 188.82 95.97 187.99 88.95 190.96 82.84 C 192.25 84.62 193.32 86.56 194.16 88.59 C 194.81 88.54 195.46 88.49 196.12 88.44 C 196.18 85.30 196.29 82.16 196.60 79.04 C 198.51 78.61 200.45 78.40 202.39 78.18 C 202.51 76.59 202.62 74.99 202.74 73.40 C 204.97 73.30 207.19 73.29 209.43 73.30 C 209.46 71.80 209.49 70.30 209.53 68.79 C 209.96 68.74 210.81 68.63 211.23 68.58 C 213.64 69.40 216.11 70.03 218.58 70.64 C 218.51 70.28 218.37 69.56 218.29 69.20 C 217.28 68.01 216.32 66.78 215.41 65.52 C 218.62 65.60 221.79 66.07 224.96 66.49 C 224.30 63.52 223.55 60.57 223.07 57.56 C 225.80 58.01 228.54 58.44 231.30 58.70 C 231.78 57.28 232.30 55.88 232.72 54.44 L 232.13 53.81 C 230.57 52.26 229.13 50.57 228.09 48.63 C 230.63 48.38 233.18 48.37 235.73 48.41 C 235.10 46.63 234.48 44.85 233.97 43.04 C 237.09 43.22 239.96 44.47 242.79 45.67 C 243.14 42.90 241.79 40.61 240.05 38.60 C 243.34 37.25 246.88 36.75 250.39 36.34 C 250.54 34.49 250.65 32.64 250.94 30.81 C 253.59 30.88 256.21 31.38 258.86 31.56 C 262.20 29.61 265.94 28.01 268.07 24.58 C 269.68 24.57 271.29 24.57 272.90 24.55 C 275.01 21.92 277.28 19.21 280.42 17.78 C 283.16 16.65 286.12 16.27 289.01 15.70 C 295.41 14.67 301.66 12.76 308.15 12.30 C 310.82 11.08 313.05 9.18 315.04 7.06 Z" />
<path fill="#000000" opacity="1.00" d=" M 73.00 359.43 C 88.95 359.45 104.89 359.44 120.84 359.44 C 120.86 363.50 120.85 367.57 120.85 371.63 C 109.62 371.62 98.38 371.62 87.15 371.63 C 87.18 376.85 87.18 382.06 87.14 387.28 C 96.87 387.36 106.60 387.16 116.33 387.39 C 116.27 391.41 116.29 395.42 116.30 399.44 C 106.59 399.51 96.87 399.46 87.16 399.47 C 87.19 409.27 87.11 419.08 87.20 428.89 C 82.40 429.17 77.56 429.39 72.78 428.75 C 73.04 405.65 72.60 382.53 73.00 359.43 Z" />
<path fill="#000000" opacity="1.00" d=" M 132.52 359.45 C 148.48 359.43 164.44 359.43 180.39 359.45 C 180.38 363.50 180.37 367.55 180.41 371.60 C 169.13 371.67 157.85 371.59 146.57 371.64 C 146.58 376.86 146.57 382.07 146.57 387.29 C 156.29 387.27 166.01 387.32 175.73 387.29 C 175.71 391.33 175.68 395.37 175.77 399.42 C 166.04 399.56 156.30 399.41 146.56 399.50 C 146.59 409.35 146.55 419.20 146.58 429.05 C 141.88 429.13 137.17 429.26 132.48 428.88 C 132.59 405.74 132.50 382.59 132.52 359.45 Z" />
<path fill="#000000" opacity="1.00" d=" M 7.82 359.44 C 17.87 359.47 27.93 359.37 37.99 359.49 C 43.28 359.74 49.12 359.97 53.40 363.52 C 65.50 372.46 63.79 394.74 49.50 400.63 C 40.69 404.13 30.97 402.28 21.76 403.14 C 21.80 411.79 21.77 420.44 21.77 429.09 C 17.12 429.14 12.48 429.11 7.83 429.12 C 7.78 405.89 7.81 382.67 7.82 359.44 M 21.77 371.65 C 21.77 378.00 21.80 384.36 21.76 390.71 C 28.11 390.50 34.71 391.57 40.88 389.72 C 46.59 388.10 48.62 380.48 45.31 375.86 C 43.24 372.85 39.43 371.74 35.95 371.66 C 31.23 371.57 26.50 371.64 21.77 371.65 Z" />
<path fill="#000000" opacity="1.00" d=" M 255.19 386.51 C 255.66 386.57 256.60 386.68 257.07 386.73 C 259.17 390.69 261.82 394.34 263.63 398.45 C 262.51 398.41 260.90 399.13 260.42 397.64 C 258.60 393.99 255.25 390.77 255.19 386.51 Z" />
</g>
<g id="#c8c8c8ff">
<path fill="#c8c8c8" opacity="1.00" d=" M 232.13 53.81 L 232.72 54.44 C 232.30 55.88 231.78 57.28 231.30 58.70 C 228.54 58.44 225.80 58.01 223.07 57.56 C 223.55 60.57 224.30 63.52 224.96 66.49 C 221.79 66.07 218.62 65.60 215.41 65.52 C 216.32 66.78 217.28 68.01 218.29 69.20 C 218.37 69.56 218.51 70.28 218.58 70.64 C 216.11 70.03 213.64 69.40 211.23 68.58 C 212.11 68.46 213.88 68.22 214.76 68.10 C 214.86 67.25 215.06 65.56 215.16 64.72 C 218.04 64.78 220.91 64.91 223.79 65.10 C 222.99 62.73 222.15 60.36 221.80 57.88 C 224.38 56.07 227.60 57.36 230.45 57.61 C 231.01 56.34 231.57 55.07 232.13 53.81 Z" />
<path fill="#c8c8c8" opacity="1.00" d=" M 297.20 173.51 C 298.34 173.45 299.48 173.41 300.63 173.37 C 300.57 174.32 300.52 175.27 300.47 176.22 C 300.01 176.26 299.09 176.35 298.64 176.39 C 298.28 175.67 297.56 174.23 297.20 173.51 Z" />
<path fill="#c8c8c8" opacity="1.00" d=" M 309.44 227.63 C 309.99 227.61 311.11 227.58 311.67 227.57 C 311.59 228.02 311.43 228.93 311.35 229.39 C 310.99 229.34 310.28 229.26 309.92 229.22 C 309.80 228.82 309.56 228.03 309.44 227.63 Z" />
<path fill="#c8c8c8" opacity="1.00" d=" M 212.39 245.41 C 212.87 245.48 213.83 245.61 214.32 245.67 C 214.35 246.51 214.39 247.36 214.43 248.21 C 213.91 248.28 212.86 248.42 212.34 248.49 C 212.35 247.46 212.36 246.43 212.39 245.41 Z" />
<path fill="#c8c8c8" opacity="1.00" d=" M 467.79 381.78 C 468.31 381.60 469.35 381.23 469.86 381.05 C 468.75 384.23 468.04 387.55 467.85 390.92 C 467.36 397.91 466.28 404.85 466.05 411.87 C 465.39 421.88 464.31 431.94 465.05 441.99 C 466.39 442.09 467.75 442.21 469.10 442.31 C 465.86 442.20 466.86 445.46 466.61 447.61 C 466.16 447.51 465.28 447.32 464.83 447.22 C 463.60 430.83 464.21 414.29 466.26 397.99 C 466.52 392.56 467.08 387.17 467.79 381.78 Z" />
<path fill="#c8c8c8" opacity="1.00" d=" M 477.41 511.13 C 478.46 509.59 480.80 511.47 479.73 512.90 C 478.69 514.39 476.35 512.51 477.41 511.13 Z" />
</g>
<g id="#e8e8e8ff">
<path fill="#e8e8e8" opacity="1.00" d=" M 194.78 79.80 C 195.24 79.61 196.15 79.23 196.60 79.04 C 196.29 82.16 196.18 85.30 196.12 88.44 C 195.46 88.49 194.81 88.54 194.16 88.59 C 193.32 86.56 192.25 84.62 190.96 82.84 C 187.99 88.95 188.82 95.97 186.98 102.39 C 185.84 105.85 186.65 109.50 186.42 113.05 C 186.04 117.06 184.90 120.94 184.24 124.91 C 185.95 124.44 187.66 123.92 189.36 123.41 C 188.97 124.94 187.61 127.05 189.68 128.02 C 191.20 127.77 192.20 126.53 193.20 125.48 C 193.95 126.47 194.75 127.43 195.51 128.43 C 194.90 128.64 194.28 128.84 193.66 129.02 C 192.23 131.97 191.14 135.10 190.99 138.41 C 193.20 137.55 195.19 136.26 197.05 134.80 C 197.53 135.21 198.00 135.62 198.49 136.03 C 196.67 137.92 194.87 139.81 193.13 141.76 C 195.63 143.27 198.04 141.55 200.37 140.64 C 200.47 141.27 200.67 142.51 200.77 143.13 C 199.40 144.72 196.01 145.45 196.26 147.80 C 197.88 149.86 200.00 147.29 201.33 146.17 C 201.30 146.99 201.28 147.81 201.26 148.63 L 200.64 148.34 C 199.65 149.55 198.70 150.80 197.79 152.08 C 198.08 151.51 198.64 150.38 198.92 149.82 C 197.16 149.45 195.20 149.19 194.36 147.36 C 196.00 145.50 197.98 144.00 199.97 142.53 C 197.53 142.99 195.05 143.28 192.58 143.46 C 192.86 142.04 193.15 140.63 193.44 139.21 C 192.21 139.11 190.97 139.01 189.74 138.90 C 189.81 135.18 191.09 131.67 192.76 128.39 C 189.10 130.19 186.03 127.45 183.84 124.76 C 183.50 121.80 184.41 118.90 184.79 115.99 C 185.62 111.86 184.16 107.56 185.58 103.51 C 187.82 96.54 186.60 88.81 189.95 82.15 C 192.07 83.11 193.63 84.81 194.79 86.79 C 194.76 84.46 194.78 82.13 194.78 79.80 Z" />
<path fill="#e8e8e8" opacity="1.00" d=" M 294.37 171.50 C 294.94 171.48 296.07 171.43 296.63 171.41 C 296.70 173.00 296.86 174.78 294.56 174.72 C 294.48 173.65 294.42 172.57 294.37 171.50 Z" />
</g>
<g id="#fefefeff">
<path fill="#fefefe" opacity="1.00" d=" M 342.02 97.12 C 351.05 94.91 361.57 97.01 368.02 104.00 C 372.17 109.00 376.46 114.61 382.99 116.51 C 386.60 117.53 389.64 119.75 392.65 121.90 C 392.09 125.50 391.44 129.09 390.68 132.65 C 389.17 139.75 389.30 147.10 387.57 154.16 C 387.63 155.83 387.96 157.47 389.44 158.49 C 401.35 169.41 410.49 183.21 416.51 198.16 C 417.86 204.99 419.20 211.93 419.25 218.92 C 419.60 225.10 417.81 231.11 417.15 237.22 C 423.86 238.11 430.34 240.47 437.15 240.69 C 438.97 238.17 440.44 235.42 442.13 232.82 C 448.95 221.28 460.72 214.11 470.68 205.63 C 475.52 199.19 480.20 191.87 488.00 188.73 C 493.02 189.23 498.14 189.47 502.92 191.24 C 503.77 191.09 505.46 190.80 506.31 190.65 C 509.70 194.32 513.04 198.19 515.26 202.71 C 515.85 205.23 516.74 207.66 517.33 210.18 C 517.89 213.48 517.22 216.87 517.99 220.15 C 518.70 223.15 518.66 226.26 518.19 229.29 C 516.45 225.03 516.30 220.37 514.82 216.04 C 514.60 212.86 515.26 209.33 513.49 206.48 C 511.80 203.36 509.49 200.58 506.50 198.62 C 501.27 198.72 496.14 197.51 490.93 197.33 C 487.20 197.03 483.71 199.58 482.13 202.86 C 479.34 208.33 472.52 211.08 471.37 217.46 C 472.27 217.09 473.20 216.74 474.11 216.37 C 477.15 212.06 481.66 209.00 484.30 204.39 C 485.90 201.28 489.43 198.82 493.01 199.87 C 497.48 200.76 502.21 200.15 506.54 201.76 C 508.49 203.44 509.76 205.75 511.41 207.72 C 512.54 210.98 512.19 214.44 512.68 217.80 C 513.78 223.10 514.91 228.40 516.64 233.53 C 517.17 238.13 516.21 242.77 515.38 247.29 C 512.38 252.11 513.15 258.17 512.10 263.58 L 511.92 264.67 C 510.13 271.66 511.56 279.84 506.70 285.75 C 503.03 291.93 498.51 297.50 494.21 303.24 C 491.30 307.24 486.73 309.71 482.10 311.16 C 475.24 311.15 468.49 315.55 461.76 312.33 C 461.72 321.61 460.26 330.79 459.08 339.97 C 458.22 346.38 456.04 352.53 455.45 358.99 C 458.67 359.09 458.25 355.22 459.30 353.09 C 459.39 351.77 459.50 350.45 459.61 349.13 C 459.89 349.15 460.45 349.18 460.73 349.20 C 460.47 351.08 460.21 352.96 459.85 354.83 C 459.58 357.24 459.34 359.66 458.91 362.05 C 457.03 377.07 454.97 392.06 453.01 407.06 C 452.25 414.97 445.06 419.69 440.29 425.25 C 435.41 431.71 428.71 436.40 423.24 442.27 C 419.04 448.25 413.46 454.06 413.32 461.83 C 416.90 461.10 416.51 456.96 418.04 454.43 C 420.31 450.71 422.92 447.19 425.53 443.70 C 429.83 438.95 435.23 435.31 439.45 430.46 C 444.49 423.77 451.60 418.80 455.33 411.12 C 455.88 406.74 456.45 402.37 457.14 398.01 C 458.60 385.59 460.32 373.21 461.87 360.80 C 462.56 355.59 463.43 350.19 462.05 345.01 C 461.01 341.37 462.53 337.68 462.73 334.03 C 463.76 328.22 463.14 322.27 464.28 316.49 C 467.87 316.43 471.42 315.82 474.94 315.15 C 477.48 314.26 480.14 313.79 482.81 313.40 C 478.17 324.69 472.94 335.95 471.14 348.15 C 469.75 353.79 468.89 359.55 467.34 365.15 C 465.80 371.12 466.24 377.43 464.53 383.37 C 465.04 390.28 463.88 397.17 462.82 403.97 C 462.42 416.66 460.91 429.32 461.77 442.03 C 462.42 445.40 462.92 448.79 463.69 452.14 C 464.92 451.45 466.14 450.75 467.37 450.06 C 468.32 455.45 468.85 460.90 469.57 466.33 C 469.83 469.57 470.47 472.75 470.84 475.98 C 471.33 478.34 471.67 480.73 472.21 483.10 C 472.43 486.40 471.96 489.81 472.98 493.02 C 473.61 495.30 474.57 497.62 473.98 500.03 C 473.25 503.72 474.27 507.38 474.73 511.03 C 475.76 514.90 477.24 518.66 479.33 522.09 C 480.61 529.78 478.49 537.45 477.27 545.01 C 475.03 550.38 474.34 556.27 471.80 561.52 C 470.22 565.39 466.82 567.98 464.09 570.99 C 463.27 571.83 462.44 572.65 461.59 573.45 C 458.49 576.11 455.33 578.82 451.55 580.49 C 446.93 582.66 442.87 586.00 437.90 587.40 C 433.74 588.49 429.94 590.59 425.80 591.75 C 420.33 593.25 414.65 593.51 409.04 594.16 C 398.72 594.96 388.37 595.92 378.00 595.27 C 365.35 594.06 352.52 594.59 340.03 591.95 C 330.22 589.89 320.75 585.61 313.41 578.67 C 300.37 567.81 291.30 553.32 280.96 540.08 C 275.81 533.49 271.02 526.62 265.93 519.99 C 263.99 517.64 262.83 514.82 261.78 512.01 C 260.93 509.05 260.12 506.07 259.73 503.02 C 259.05 496.37 256.39 490.17 255.30 483.60 C 254.07 483.13 252.84 482.67 251.61 482.23 C 251.60 481.85 251.58 481.09 251.56 480.71 C 252.26 479.81 252.97 478.91 253.67 478.02 C 256.24 479.09 258.85 480.24 260.92 482.16 C 263.26 484.54 266.54 485.70 268.85 488.13 C 271.62 491.02 273.81 494.45 276.92 497.01 C 279.99 499.52 281.48 503.29 283.72 506.47 C 284.10 506.39 284.87 506.23 285.26 506.15 C 285.29 505.66 285.36 504.69 285.39 504.21 C 283.26 501.15 281.88 497.47 278.89 495.11 C 275.52 492.26 273.11 488.51 269.85 485.55 C 277.70 485.22 285.52 484.11 293.09 481.99 C 299.62 481.02 305.71 478.46 311.77 475.98 C 315.75 474.15 318.74 470.82 322.22 468.24 C 326.64 464.91 331.32 461.12 333.00 455.62 C 332.39 455.57 331.18 455.49 330.57 455.45 C 327.48 461.61 321.52 465.21 316.49 469.58 C 311.58 474.06 304.95 475.72 298.87 477.97 C 292.28 479.40 285.77 481.28 279.07 482.19 C 274.37 482.71 269.63 482.74 264.93 482.30 C 264.37 481.44 263.81 480.60 263.25 479.76 C 255.96 476.47 248.94 472.34 243.50 466.39 C 240.69 462.92 240.20 458.32 238.70 454.26 C 234.96 443.77 240.52 432.71 238.20 422.08 C 236.48 418.03 234.26 414.21 232.97 409.98 C 226.67 399.82 220.54 389.53 214.91 378.97 C 216.10 378.50 217.28 378.00 218.45 377.48 C 216.68 377.47 214.91 377.55 213.14 377.56 C 209.50 370.43 204.11 363.83 202.97 355.73 C 203.90 356.28 205.76 357.39 206.69 357.94 C 205.72 355.98 203.70 355.18 201.86 354.29 C 199.99 349.20 198.00 344.16 195.80 339.20 C 194.33 333.02 191.98 327.10 190.09 321.04 C 189.29 317.68 188.02 314.42 187.59 310.98 C 187.73 305.15 189.31 299.47 191.01 293.92 C 192.42 289.40 194.06 284.85 197.05 281.10 C 198.69 279.17 199.53 276.80 199.48 274.27 C 199.90 274.29 200.74 274.31 201.16 274.33 C 201.69 273.13 202.25 271.94 202.81 270.75 C 205.44 270.11 208.09 269.57 210.78 269.28 C 210.71 268.31 210.63 267.35 210.56 266.40 C 207.46 266.77 204.43 267.54 201.55 268.73 C 201.50 267.77 201.40 265.86 201.35 264.90 C 202.01 264.57 203.33 263.91 203.99 263.57 C 204.99 263.47 206.00 263.37 207.01 263.28 C 207.22 261.14 206.15 260.14 204.05 260.26 C 203.21 260.91 202.37 261.56 201.52 262.21 C 199.81 257.46 199.52 251.00 204.67 248.29 C 204.68 250.94 204.43 253.59 204.59 256.24 C 207.17 258.81 210.14 260.94 212.89 263.33 C 215.87 263.60 218.81 264.41 221.82 264.45 C 224.27 263.83 226.52 262.64 228.90 261.81 C 234.03 259.80 239.61 259.04 244.49 256.41 C 247.07 254.88 247.34 251.59 248.08 248.98 C 248.43 246.35 248.69 243.71 249.01 241.08 C 249.66 237.69 250.08 233.85 247.93 230.88 C 244.90 226.92 240.75 224.01 236.78 221.07 C 231.91 217.42 225.89 215.96 220.52 213.26 C 218.59 212.26 217.62 209.74 218.46 207.73 C 220.83 205.57 224.01 204.53 226.28 202.25 C 230.62 198.16 234.98 194.09 239.37 190.06 C 239.71 186.91 239.88 183.70 240.77 180.66 C 242.30 177.47 245.27 175.01 245.72 171.35 C 239.79 172.86 234.02 175.12 227.88 175.76 C 218.88 180.95 211.43 188.42 202.93 194.36 C 202.14 192.82 201.33 191.29 200.47 189.80 C 200.89 186.85 201.43 183.92 201.82 180.97 C 202.64 177.28 203.39 173.58 203.77 169.82 L 204.12 169.11 C 204.27 166.54 204.89 164.04 206.28 161.85 C 206.03 161.14 205.54 159.72 205.29 159.02 C 206.79 158.11 208.28 157.18 209.77 156.25 C 209.62 155.15 209.47 154.05 209.30 152.96 C 209.41 149.04 211.72 145.63 212.81 141.94 C 215.05 138.37 216.66 134.44 219.10 130.99 C 222.05 126.99 226.30 124.28 230.23 121.35 C 232.89 119.49 235.74 117.45 239.11 117.34 C 246.81 116.88 254.60 118.06 262.21 116.41 C 265.24 115.68 268.75 116.03 271.23 113.83 C 273.04 114.05 274.95 114.78 276.69 113.83 C 283.58 111.11 290.45 108.34 297.16 105.19 C 302.53 102.65 307.96 99.91 314.07 100.12 C 317.38 99.55 320.74 99.46 324.05 98.87 C 330.06 98.49 336.01 97.50 342.02 97.12 M 265.17 154.77 C 265.40 155.80 265.84 156.74 266.56 157.52 C 271.87 155.96 277.54 155.64 283.07 155.11 C 286.46 154.48 289.92 154.43 293.36 154.21 C 293.58 153.54 294.01 152.22 294.22 151.56 C 288.75 151.16 283.39 152.64 277.92 152.69 C 273.68 153.51 269.30 153.42 265.17 154.77 M 241.07 154.13 C 235.82 156.67 230.46 158.96 224.90 160.72 C 220.91 162.99 217.10 165.62 213.60 168.59 C 212.32 170.74 212.66 173.34 212.46 175.74 C 213.37 175.64 214.28 175.54 215.19 175.44 C 215.53 173.27 214.71 170.33 217.19 169.22 C 220.86 166.48 224.55 163.57 229.00 162.21 C 233.61 161.19 237.53 158.46 241.94 156.89 C 243.58 156.54 245.14 155.96 246.64 155.23 C 246.18 154.58 245.73 153.93 245.28 153.27 C 243.86 153.48 242.45 153.71 241.07 154.13 M 269.88 158.79 C 266.99 160.04 264.00 161.03 261.13 162.29 C 259.19 162.53 257.28 162.92 255.45 163.56 C 251.35 163.25 247.22 161.93 243.12 162.83 C 243.12 163.38 243.13 164.48 243.13 165.03 C 247.62 165.53 252.75 167.95 257.03 165.75 C 258.65 165.49 260.30 165.29 261.92 164.99 C 262.45 164.72 263.50 164.18 264.03 163.91 C 266.84 163.65 269.44 162.50 272.10 161.67 C 275.21 160.69 278.72 162.00 281.65 160.28 C 281.25 159.64 280.45 158.36 280.06 157.72 C 276.63 157.61 273.07 157.28 269.88 158.79 M 272.49 171.71 C 269.34 174.92 266.32 178.35 262.46 180.75 C 261.99 182.26 261.67 183.81 261.43 185.38 L 262.53 185.54 L 262.40 186.44 C 264.23 186.98 266.06 187.52 267.85 188.22 C 269.89 188.79 271.93 189.41 273.87 190.30 C 275.55 190.54 277.24 190.79 278.91 191.16 C 282.01 191.42 285.15 191.63 288.13 192.62 C 288.99 193.21 289.87 193.78 290.75 194.35 C 294.02 195.37 296.62 197.65 299.27 199.73 C 300.56 200.76 301.83 201.83 303.04 202.98 C 308.47 204.86 314.30 204.04 319.85 205.19 C 322.22 205.43 324.62 205.54 326.94 206.12 C 329.59 206.45 332.25 206.62 334.91 206.92 C 337.41 208.25 340.01 209.39 342.44 210.86 C 344.76 212.43 346.37 214.88 348.89 216.19 C 350.04 216.22 351.19 216.27 352.35 216.34 C 354.13 215.16 355.78 213.78 356.94 211.96 C 358.00 207.67 360.52 202.09 356.31 198.68 C 350.78 194.44 344.63 191.12 339.16 186.79 C 338.66 186.47 337.66 185.82 337.16 185.50 C 330.14 183.84 322.82 183.96 315.78 182.41 C 313.03 180.79 309.87 179.75 307.68 177.33 C 304.93 174.47 302.24 171.33 298.49 169.77 C 293.36 169.18 288.26 168.05 283.08 168.22 C 279.28 168.35 275.82 170.04 272.49 171.71 M 251.69 180.90 C 251.42 184.31 251.34 187.75 250.72 191.13 C 251.40 193.08 251.60 195.14 251.93 197.17 C 252.63 200.25 252.44 203.50 253.63 206.47 L 252.94 207.02 C 254.22 206.75 256.02 206.94 256.20 205.18 C 256.08 200.38 254.56 195.75 254.26 190.97 C 254.19 187.52 254.63 184.07 254.66 180.62 C 255.87 178.74 257.16 176.91 258.39 175.05 C 258.04 174.59 257.34 173.66 256.99 173.20 C 254.82 175.43 252.75 177.94 251.69 180.90 M 240.43 186.61 C 240.91 193.56 245.76 199.49 244.82 206.66 C 245.49 206.59 246.84 206.46 247.51 206.39 C 248.89 199.36 244.10 193.46 243.28 186.73 C 242.57 186.70 241.15 186.64 240.43 186.61 M 359.67 204.55 C 360.19 207.00 361.50 209.08 363.77 210.24 C 366.32 209.89 367.93 211.82 369.53 213.47 C 369.95 213.43 370.80 213.35 371.22 213.31 C 371.28 212.89 371.38 212.05 371.43 211.63 C 370.17 210.40 368.98 209.08 367.92 207.68 C 366.77 207.67 365.62 207.67 364.47 207.68 C 364.04 206.60 363.63 205.52 363.22 204.43 C 362.34 204.46 360.56 204.52 359.67 204.55 M 361.05 215.63 C 358.32 219.67 353.79 222.01 349.15 223.13 C 348.11 223.47 347.08 223.84 346.07 224.25 C 345.54 224.38 344.49 224.65 343.97 224.78 C 342.67 225.24 341.38 225.68 340.08 226.14 C 338.40 226.81 336.75 227.75 334.90 227.83 C 333.23 227.34 331.75 226.40 330.21 225.62 C 327.19 225.28 324.03 225.05 321.33 223.52 L 321.38 222.71 C 319.18 221.90 317.05 220.92 314.97 219.85 C 313.68 219.47 312.40 219.09 311.15 218.67 C 309.75 218.36 308.36 218.02 307.00 217.65 C 304.95 217.86 302.98 218.42 301.04 219.07 C 299.68 219.66 298.33 220.25 296.96 220.82 C 294.74 223.48 292.76 226.33 290.53 228.99 C 291.08 229.59 291.64 230.19 292.20 230.81 C 295.59 227.88 297.18 222.81 301.90 221.60 C 305.44 219.82 309.55 220.49 313.00 222.17 C 313.58 222.28 314.74 222.51 315.31 222.62 C 316.18 223.23 317.07 223.85 317.94 224.48 C 313.31 224.63 308.62 222.29 304.09 224.20 C 299.87 224.95 297.39 228.66 294.85 231.72 C 294.25 233.66 293.56 235.59 293.39 237.63 C 295.37 237.55 297.28 237.01 299.12 236.31 C 303.47 234.32 308.19 233.65 312.84 232.80 C 319.95 231.72 327.04 233.59 334.16 233.53 C 334.24 232.83 334.40 231.43 334.48 230.73 C 338.35 230.20 341.77 228.16 345.52 227.19 C 351.25 225.16 358.07 224.07 361.84 218.78 C 362.79 218.26 363.75 217.75 364.72 217.26 C 364.67 216.77 364.55 215.79 364.50 215.30 C 363.34 215.39 362.19 215.50 361.05 215.63 M 247.91 218.37 C 248.59 221.39 250.18 224.09 250.99 227.08 C 252.12 231.69 252.62 236.42 253.46 241.08 C 253.17 246.63 252.01 252.11 251.18 257.61 C 249.59 257.60 247.99 257.46 246.41 257.61 C 242.12 260.50 237.62 263.38 234.68 267.77 C 229.54 273.80 224.34 279.84 220.19 286.62 C 218.66 288.68 216.97 290.67 216.13 293.15 C 215.69 294.05 215.25 294.94 214.80 295.84 C 213.83 298.50 212.87 301.15 211.91 303.82 C 211.55 304.86 211.15 305.91 210.73 306.94 C 209.71 310.46 209.42 314.11 209.26 317.76 C 213.55 317.80 212.05 312.63 212.68 309.90 C 214.29 305.18 216.00 300.50 217.78 295.84 C 218.94 292.88 220.75 290.27 222.78 287.84 C 225.50 282.76 229.41 278.45 232.99 273.97 C 237.64 268.80 241.86 261.96 248.99 260.17 C 248.45 263.56 246.96 266.68 245.94 269.94 C 245.57 270.94 245.19 271.93 244.79 272.92 C 244.64 273.46 244.34 274.54 244.19 275.08 C 243.05 277.66 241.94 280.27 240.74 282.83 C 238.61 287.85 234.21 291.71 233.30 297.25 C 232.70 297.34 231.50 297.53 230.90 297.63 C 229.84 299.02 228.74 300.38 227.59 301.70 C 225.73 305.28 227.10 309.53 225.59 313.25 C 226.74 316.05 229.05 318.07 231.02 320.30 C 233.70 320.57 236.37 320.95 239.02 321.44 C 239.25 318.89 241.85 319.55 243.63 319.26 C 243.47 315.39 238.91 313.80 235.65 313.53 C 235.52 314.23 235.26 315.63 235.13 316.32 C 235.77 316.34 237.04 316.38 237.68 316.40 C 237.61 316.93 237.47 317.99 237.39 318.52 C 236.32 318.29 235.25 318.07 234.19 317.83 C 233.59 317.73 232.41 317.54 231.82 317.45 C 230.77 316.07 229.62 314.78 228.76 313.29 C 229.50 309.94 228.67 306.28 230.05 303.12 C 230.70 302.19 231.32 301.26 231.91 300.31 C 232.27 300.35 232.98 300.42 233.33 300.46 C 232.64 302.22 232.50 304.11 232.53 306.00 C 233.32 307.21 234.03 308.48 234.74 309.75 C 235.31 309.70 236.44 309.61 237.01 309.56 C 236.70 308.28 236.40 306.96 235.52 305.93 C 235.09 302.19 235.52 298.39 236.69 294.81 C 238.84 291.23 241.37 287.87 243.17 284.08 C 246.06 278.30 247.92 272.11 250.26 266.12 C 250.37 265.57 250.61 264.48 250.73 263.93 C 251.22 262.67 251.68 261.42 252.15 260.16 C 253.49 253.51 257.20 246.89 255.92 240.02 C 255.58 237.73 255.45 235.42 254.94 233.16 C 254.69 231.72 254.48 230.29 254.27 228.85 C 253.25 225.21 252.13 221.59 250.34 218.25 C 249.73 218.28 248.52 218.34 247.91 218.37 M 271.37 222.43 C 270.57 225.93 269.92 229.47 269.55 233.04 C 270.49 234.73 271.24 236.51 271.89 238.33 C 272.74 238.31 273.59 238.30 274.45 238.29 C 273.89 235.88 274.05 233.17 272.49 231.13 C 272.56 230.33 272.70 228.74 272.78 227.94 C 273.07 226.97 273.37 226.01 273.67 225.05 C 274.66 224.00 274.73 222.53 274.97 221.19 C 273.75 221.55 272.55 221.97 271.37 222.43 M 362.12 227.25 C 358.78 229.25 354.86 229.53 351.12 230.13 C 347.42 230.52 343.57 230.21 340.10 231.80 C 340.56 232.24 341.50 233.11 341.97 233.55 C 347.08 233.66 352.07 232.31 357.17 232.22 C 361.78 230.22 366.53 228.59 371.63 229.33 C 371.61 228.41 371.60 227.50 371.60 226.59 C 368.46 226.84 364.98 225.55 362.12 227.25 M 476.01 229.31 C 474.07 231.43 472.87 234.02 472.64 236.88 C 472.37 241.46 468.30 244.88 468.50 249.53 C 469.22 249.28 469.94 248.99 470.64 248.67 C 473.91 243.75 475.43 237.96 476.71 232.27 C 478.75 233.96 480.78 235.65 482.81 237.37 C 484.59 238.34 486.55 238.82 488.59 238.84 C 488.51 238.35 488.36 237.38 488.28 236.89 C 483.61 235.29 480.62 230.89 476.01 229.31 M 337.50 236.66 C 337.82 237.59 337.11 239.21 338.28 239.65 C 344.97 241.38 351.72 238.68 358.40 238.20 C 360.59 238.52 362.81 238.28 365.01 238.22 C 365.13 237.68 365.37 236.61 365.50 236.08 L 365.24 236.06 C 361.40 234.70 357.01 235.57 352.97 235.11 C 347.91 236.64 342.66 235.95 337.50 236.66 M 499.73 235.75 C 499.66 239.86 500.88 243.80 501.92 247.72 C 501.38 252.97 500.64 258.28 497.76 262.84 C 497.51 263.32 497.02 264.29 496.78 264.78 C 496.26 265.59 495.75 266.40 495.25 267.21 C 494.24 268.55 493.21 269.89 492.19 271.22 C 491.68 271.65 490.64 272.51 490.13 272.95 C 490.54 273.33 491.38 274.10 491.80 274.48 C 492.14 274.43 492.82 274.33 493.16 274.29 C 495.60 271.32 498.04 268.31 499.76 264.85 C 500.58 263.27 501.37 261.68 502.24 260.13 C 502.40 259.65 502.72 258.68 502.88 258.20 C 503.52 258.90 504.16 259.61 504.82 260.31 C 504.63 261.22 504.44 262.12 504.25 263.03 C 503.83 264.04 503.47 265.08 503.16 266.13 C 502.23 267.54 501.06 268.77 499.73 269.81 C 498.58 271.05 497.54 272.43 497.43 274.19 C 498.70 274.21 499.97 274.22 501.25 274.24 C 501.33 273.63 501.48 272.39 501.56 271.78 C 503.37 270.32 505.19 268.67 505.78 266.32 C 507.67 264.42 507.64 261.59 508.16 259.14 C 509.08 252.85 510.52 246.62 510.78 240.25 L 509.75 240.40 C 509.67 240.07 509.51 239.40 509.43 239.07 C 509.07 237.61 508.67 236.18 508.25 234.75 C 505.45 235.38 502.59 235.65 499.73 235.75 M 323.17 246.28 C 322.59 246.38 321.43 246.56 320.85 246.66 C 318.72 247.74 316.47 248.56 314.20 249.29 C 310.04 249.97 305.91 249.09 301.84 248.37 C 300.41 247.70 298.94 247.13 297.56 246.39 C 297.00 245.06 296.63 243.66 296.23 242.29 C 292.57 242.74 294.67 247.31 295.90 249.22 C 297.67 249.73 299.41 250.29 301.17 250.86 C 302.79 251.35 304.46 251.59 306.13 251.90 C 309.84 253.02 313.61 252.05 317.28 251.27 C 323.05 248.72 329.44 247.26 334.44 243.21 C 334.61 242.19 334.73 241.17 334.80 240.15 C 330.71 241.67 327.39 244.88 323.17 246.28 M 464.98 250.36 C 464.67 250.96 464.05 252.14 463.74 252.74 C 463.71 253.09 463.67 253.80 463.65 254.15 C 465.28 256.33 466.87 258.55 468.40 260.80 C 469.05 265.51 468.42 270.24 468.19 274.95 C 467.28 277.59 466.87 280.37 466.18 283.07 C 465.62 284.55 465.34 286.08 465.34 287.67 C 466.58 287.52 467.84 287.35 469.07 287.06 C 469.97 286.63 470.87 286.20 471.79 285.78 C 474.84 283.00 478.11 280.46 481.82 278.61 C 482.46 278.52 483.74 278.35 484.38 278.26 C 484.42 277.41 484.47 276.57 484.51 275.73 C 483.53 275.64 482.55 275.56 481.57 275.49 C 478.05 277.65 474.29 279.52 471.40 282.54 C 470.65 283.55 469.46 283.77 468.29 283.65 C 468.95 282.14 469.60 280.62 470.24 279.11 C 470.47 273.04 472.72 266.90 470.98 260.88 C 470.44 258.11 468.42 256.04 466.91 253.78 C 466.76 252.36 466.23 251.12 464.98 250.36 M 305.82 285.80 C 305.67 286.71 306.16 287.50 306.45 288.32 C 314.87 289.11 321.48 295.27 326.61 301.49 C 332.58 307.71 337.22 315.00 342.39 321.86 C 342.85 322.97 343.32 324.08 343.76 325.21 C 344.25 326.10 344.73 326.99 345.22 327.88 C 345.34 328.44 345.58 329.57 345.70 330.13 C 348.21 333.98 348.44 338.65 348.89 343.08 C 350.25 349.24 349.47 355.70 348.94 361.92 C 348.14 367.85 347.22 374.04 344.40 379.38 C 341.42 383.59 336.26 380.88 332.25 380.35 C 332.31 380.88 332.43 381.94 332.49 382.46 C 335.91 384.65 340.71 385.58 344.28 383.14 C 348.07 380.65 348.49 375.72 350.45 371.98 C 351.62 366.05 351.31 359.96 352.26 354.00 C 352.95 348.95 351.74 343.96 351.18 338.97 C 350.75 336.97 350.42 334.95 349.77 333.01 C 349.59 332.01 349.41 331.02 349.23 330.04 C 347.34 326.47 346.29 322.46 343.89 319.17 C 341.21 315.50 338.43 311.89 335.80 308.18 C 332.02 303.05 327.55 298.51 323.38 293.71 C 320.75 292.07 318.36 290.10 315.93 288.19 C 314.91 287.82 313.87 287.49 312.84 287.18 C 311.52 286.70 310.22 286.20 308.94 285.66 C 307.89 285.67 306.85 285.68 305.82 285.80 M 288.83 287.46 C 287.75 287.91 286.70 288.45 285.63 288.93 C 284.33 290.40 284.40 292.16 285.88 293.52 C 287.82 292.21 289.67 290.31 292.16 290.18 C 294.55 290.42 296.79 291.42 299.13 291.93 C 300.13 293.14 300.46 294.70 300.96 296.15 C 301.95 298.93 302.03 302.05 301.11 304.86 C 299.50 308.77 295.29 310.42 291.66 311.90 C 291.65 312.55 291.64 313.86 291.64 314.51 C 295.55 314.07 298.91 311.51 301.87 309.06 C 304.58 307.38 304.77 303.94 305.01 301.08 C 304.99 298.93 305.46 296.34 303.74 294.68 C 303.35 293.66 302.87 292.69 302.45 291.70 C 302.11 291.27 301.43 290.42 301.09 289.99 C 298.21 286.77 292.66 285.70 288.83 287.46 M 270.04 308.47 C 267.09 308.71 264.90 311.01 262.44 312.41 C 260.80 313.62 258.12 314.59 258.58 317.13 C 258.30 318.81 260.27 319.57 261.03 320.79 C 261.80 320.67 262.56 320.52 263.31 320.35 C 264.37 318.97 262.81 317.85 262.19 316.72 C 262.63 316.25 263.51 315.29 263.95 314.82 C 266.13 313.57 267.90 311.39 270.56 311.23 C 274.39 311.73 278.24 311.17 282.04 310.61 C 283.92 311.15 285.91 311.72 287.10 313.42 C 287.83 313.46 288.57 313.49 289.31 313.53 C 289.35 313.03 289.43 312.03 289.47 311.53 C 288.43 310.55 287.30 309.69 286.05 309.01 C 280.89 306.56 275.43 308.51 270.04 308.47 M 375.62 316.18 C 374.61 322.46 376.49 328.73 376.28 335.03 C 376.17 338.73 376.78 342.45 376.15 346.13 C 375.17 351.42 375.49 356.87 374.31 362.14 C 372.91 366.26 369.89 369.64 368.86 373.93 C 367.43 377.39 365.58 380.65 364.15 384.10 C 363.03 387.02 361.92 389.95 361.14 392.98 C 360.52 394.33 359.91 395.69 359.32 397.05 C 358.16 400.14 357.03 403.25 355.45 406.15 C 352.31 411.72 351.07 418.18 347.56 423.56 C 346.78 424.62 346.40 425.86 346.06 427.12 C 344.36 429.86 343.14 432.86 341.53 435.65 C 341.56 436.08 341.61 436.96 341.64 437.40 C 342.41 437.37 343.18 437.36 343.96 437.34 C 345.17 434.48 346.71 431.77 348.30 429.11 C 348.47 428.59 348.80 427.56 348.96 427.05 C 349.53 425.94 350.12 424.84 350.70 423.75 C 351.94 421.27 353.03 418.71 354.19 416.19 C 355.75 410.47 359.10 405.53 361.27 400.06 C 361.41 399.53 361.69 398.45 361.83 397.91 C 363.10 395.35 364.07 392.65 364.90 389.92 C 365.65 387.98 366.33 386.01 367.09 384.08 C 370.29 378.28 372.10 371.83 375.52 366.15 C 378.09 361.84 377.25 356.67 378.28 351.95 C 378.48 348.32 379.99 344.68 378.88 341.07 C 378.66 338.04 378.36 334.96 379.07 331.97 C 378.22 328.38 378.69 324.65 377.95 321.04 C 377.64 319.17 378.07 316.74 375.62 316.18 M 218.84 318.41 C 216.70 321.68 212.83 323.45 211.17 327.07 C 210.31 328.57 210.41 330.37 210.05 332.03 C 209.14 335.44 209.30 338.98 209.62 342.46 L 210.38 342.62 C 210.27 345.71 210.34 348.83 210.95 351.89 C 211.69 353.55 212.39 355.23 213.09 356.92 C 216.13 363.02 220.81 368.08 224.10 374.02 C 226.01 378.14 227.55 382.87 231.59 385.47 C 236.72 388.87 242.71 390.76 247.99 393.89 C 250.50 396.90 253.61 399.61 254.98 403.38 C 255.92 403.54 256.85 403.69 257.80 403.84 C 257.99 401.19 256.75 398.89 255.21 396.84 C 252.78 394.62 251.32 391.26 248.18 389.89 C 244.11 388.01 240.16 385.83 235.86 384.49 C 243.20 384.31 250.58 385.37 257.90 384.36 C 265.85 383.18 273.38 380.24 281.14 378.24 C 287.50 376.30 293.80 374.16 300.16 372.23 C 308.78 369.45 317.31 366.42 325.99 363.82 C 327.43 364.27 328.91 364.60 330.42 364.71 C 334.37 365.65 334.39 370.19 335.89 373.19 C 337.10 371.61 337.57 369.71 337.91 367.80 C 338.20 368.70 338.47 369.61 338.75 370.52 C 339.48 370.64 340.96 370.87 341.69 370.98 C 341.59 368.09 340.35 365.47 339.22 362.88 C 337.66 361.39 336.17 359.84 334.73 358.24 C 332.51 356.82 330.30 355.41 328.19 353.83 C 324.34 351.83 321.15 348.60 316.89 347.43 C 311.08 345.78 305.08 344.92 299.15 343.83 C 292.38 343.12 285.67 344.24 278.96 344.89 C 270.94 346.25 262.87 347.39 254.88 348.99 C 252.18 349.40 249.41 349.66 246.90 350.83 C 241.33 353.14 235.08 353.74 229.91 357.05 C 226.21 359.11 223.77 363.04 224.09 367.32 C 223.81 367.36 223.24 367.43 222.95 367.47 C 220.92 364.32 219.06 361.06 216.73 358.12 C 216.04 356.79 215.37 355.47 214.69 354.15 C 213.98 352.15 213.36 350.13 212.77 348.10 C 212.80 345.35 212.65 342.61 212.30 339.89 C 211.59 338.34 211.27 336.61 212.14 335.06 C 212.67 332.67 213.00 330.23 213.70 327.88 C 214.61 326.15 216.23 324.98 217.63 323.67 C 218.81 322.44 219.99 321.19 221.20 319.98 C 221.21 319.64 221.25 318.95 221.27 318.60 C 220.45 318.53 219.64 318.47 218.84 318.41 M 357.98 340.15 C 358.35 342.08 358.44 344.05 358.32 346.02 C 357.45 348.27 357.40 350.70 357.13 353.07 C 354.97 367.06 353.74 381.20 351.25 395.14 C 350.75 396.71 350.33 398.31 349.91 399.91 C 348.44 403.33 346.57 406.56 344.82 409.85 C 344.29 411.28 343.71 412.69 343.20 414.13 C 339.30 421.78 330.67 425.28 326.68 432.85 C 326.75 433.27 326.88 434.11 326.94 434.53 C 328.19 434.42 329.45 434.17 329.95 432.83 C 332.02 429.02 335.82 426.81 338.81 423.84 C 340.15 422.16 341.65 420.63 343.25 419.20 C 343.76 418.41 344.28 417.63 344.80 416.85 C 345.83 414.52 346.87 412.21 347.82 409.86 C 349.47 407.05 350.90 404.12 352.41 401.23 C 352.93 398.83 353.42 396.42 354.17 394.08 C 357.22 377.49 358.72 360.64 361.12 343.95 C 360.59 339.45 360.32 334.79 358.11 330.73 L 356.64 330.33 C 355.51 333.55 358.08 336.81 357.98 340.15 M 373.67 376.47 C 369.82 386.06 365.35 395.42 361.65 405.07 C 361.94 405.57 362.52 406.57 362.81 407.07 C 366.57 401.61 368.34 395.06 371.16 389.10 C 373.23 383.55 376.45 378.39 377.58 372.53 C 375.02 372.01 374.55 374.84 373.67 376.47 M 314.57 376.93 C 314.17 381.06 312.93 385.15 313.34 389.34 C 313.80 389.30 314.74 389.22 315.21 389.19 C 315.46 388.08 315.72 386.98 315.98 385.88 C 316.39 383.27 316.56 380.63 317.20 378.07 C 317.29 376.51 317.35 374.96 317.39 373.42 C 315.13 372.94 314.65 375.37 314.57 376.93 M 322.54 379.64 C 322.41 381.39 322.34 383.14 322.37 384.91 C 323.26 384.70 324.16 384.50 325.06 384.30 C 325.60 381.91 327.00 379.25 325.16 377.06 C 324.27 377.91 323.40 378.77 322.54 379.64 M 255.19 386.51 C 255.25 390.77 258.60 393.99 260.42 397.64 C 260.90 399.13 262.51 398.41 263.63 398.45 C 261.82 394.34 259.17 390.69 257.07 386.73 C 256.60 386.68 255.66 386.57 255.19 386.51 M 235.63 391.35 C 235.51 391.99 235.26 393.28 235.14 393.93 C 238.92 396.16 242.00 400.00 246.48 400.75 C 246.49 400.26 246.52 399.28 246.53 398.79 C 242.94 396.25 239.42 393.59 235.63 391.35 M 265.15 391.17 C 266.03 393.83 266.97 398.26 270.62 397.69 C 269.62 395.03 268.84 390.67 265.15 391.17 M 239.32 406.23 C 240.31 411.47 241.36 416.69 242.27 421.94 C 242.81 425.04 241.95 428.59 243.95 431.30 C 244.48 431.25 245.55 431.15 246.08 431.10 C 247.26 422.78 244.78 414.25 242.78 406.17 C 241.63 406.18 240.47 406.20 239.32 406.23 Z" />
<path fill="#fefefe" opacity="1.00" d=" M 262.01 351.07 C 271.92 349.16 281.86 347.25 291.95 346.70 C 300.32 346.74 308.34 349.27 316.24 351.78 C 318.16 352.28 320.09 352.92 319.58 355.40 C 313.10 353.71 306.52 352.51 299.90 351.55 C 296.86 351.27 293.96 352.46 291.03 353.04 C 288.32 353.58 285.65 354.33 283.08 355.32 C 279.83 356.57 276.27 356.66 273.12 358.22 C 270.32 358.44 267.61 359.16 264.90 359.84 C 259.29 361.42 253.59 362.63 248.09 364.55 C 242.74 364.32 237.31 362.08 232.00 363.90 C 230.36 365.79 228.94 367.84 227.44 369.84 C 226.72 369.32 226.01 368.81 225.30 368.30 C 227.10 364.47 229.19 360.33 233.32 358.59 C 242.46 354.71 252.36 353.17 262.01 351.07 Z" />
<path fill="#fefefe" opacity="1.00" d=" M 143.60 444.78 C 146.80 442.65 150.23 440.37 154.29 441.26 C 151.84 443.57 149.15 445.61 146.33 447.45 C 145.41 447.41 143.55 447.32 142.63 447.27 C 142.87 446.65 143.36 445.40 143.60 444.78 Z" />
</g>
<g id="#030303ff">
<path fill="#030303" opacity="1.00" d=" M 197.79 152.08 C 198.70 150.80 199.65 149.55 200.64 148.34 L 201.26 148.63 C 203.97 150.02 206.66 151.44 209.30 152.96 C 209.47 154.05 209.62 155.15 209.77 156.25 C 208.28 157.18 206.79 158.11 205.29 159.02 C 205.54 159.72 206.03 161.14 206.28 161.85 C 204.89 164.04 204.27 166.54 204.12 169.11 L 203.77 169.82 C 203.39 173.58 202.64 177.28 201.82 180.97 C 201.43 183.92 200.89 186.85 200.47 189.80 C 201.33 191.29 202.14 192.82 202.93 194.36 C 211.43 188.42 218.88 180.95 227.88 175.76 C 234.02 175.12 239.79 172.86 245.72 171.35 C 245.27 175.01 242.30 177.47 240.77 180.66 C 239.88 183.70 239.71 186.91 239.37 190.06 C 234.98 194.09 230.62 198.16 226.28 202.25 C 224.01 204.53 220.83 205.57 218.46 207.73 C 217.62 209.74 218.59 212.26 220.52 213.26 C 225.89 215.96 231.91 217.42 236.78 221.07 C 240.75 224.01 244.90 226.92 247.93 230.88 C 250.08 233.85 249.66 237.69 249.01 241.08 C 248.69 243.71 248.43 246.35 248.08 248.98 C 247.34 251.59 247.07 254.88 244.49 256.41 C 239.61 259.04 234.03 259.80 228.90 261.81 C 226.52 262.64 224.27 263.83 221.82 264.45 C 218.81 264.41 215.87 263.60 212.89 263.33 C 210.14 260.94 207.17 258.81 204.59 256.24 C 204.43 253.59 204.68 250.94 204.67 248.29 C 199.52 251.00 199.81 257.46 201.52 262.21 C 202.37 261.56 203.21 260.91 204.05 260.26 C 206.15 260.14 207.22 261.14 207.01 263.28 C 206.00 263.37 204.99 263.47 203.99 263.57 C 203.33 263.91 202.01 264.57 201.35 264.90 C 201.40 265.86 201.50 267.77 201.55 268.73 C 204.43 267.54 207.46 266.77 210.56 266.40 C 210.63 267.35 210.71 268.31 210.78 269.28 C 208.09 269.57 205.44 270.11 202.81 270.75 C 202.25 271.94 201.69 273.13 201.16 274.33 C 200.74 274.31 199.90 274.29 199.48 274.27 C 199.53 276.80 198.69 279.17 197.05 281.10 C 194.06 284.85 192.42 289.40 191.01 293.92 C 189.31 299.47 187.73 305.15 187.59 310.98 C 188.02 314.42 189.29 317.68 190.09 321.04 C 191.98 327.10 194.33 333.02 195.80 339.20 C 198.00 344.16 199.99 349.20 201.86 354.29 C 203.70 355.18 205.72 355.98 206.69 357.94 C 205.76 357.39 203.90 356.28 202.97 355.73 C 204.11 363.83 209.50 370.43 213.14 377.56 C 214.91 377.55 216.68 377.47 218.45 377.48 C 217.28 378.00 216.10 378.50 214.91 378.97 C 220.54 389.53 226.67 399.82 232.97 409.98 C 234.26 414.21 236.48 418.03 238.20 422.08 C 240.52 432.71 234.96 443.77 238.70 454.26 C 240.20 458.32 240.69 462.92 243.50 466.39 C 248.94 472.34 255.96 476.47 263.25 479.76 C 263.81 480.60 264.37 481.44 264.93 482.30 C 269.63 482.74 274.37 482.71 279.07 482.19 C 285.77 481.28 292.28 479.40 298.87 477.97 C 304.95 475.72 311.58 474.06 316.49 469.58 C 321.52 465.21 327.48 461.61 330.57 455.45 C 331.18 455.49 332.39 455.57 333.00 455.62 C 331.32 461.12 326.64 464.91 322.22 468.24 C 318.74 470.82 315.75 474.15 311.77 475.98 C 305.71 478.46 299.62 481.02 293.09 481.99 C 285.52 484.11 277.70 485.22 269.85 485.55 C 273.11 488.51 275.52 492.26 278.89 495.11 C 281.88 497.47 283.26 501.15 285.39 504.21 C 285.36 504.69 285.29 505.66 285.26 506.15 C 284.87 506.23 284.10 506.39 283.72 506.47 C 281.48 503.29 279.99 499.52 276.92 497.01 C 273.81 494.45 271.62 491.02 268.85 488.13 C 266.54 485.70 263.26 484.54 260.92 482.16 C 258.85 480.24 256.24 479.09 253.67 478.02 C 252.97 478.91 252.26 479.81 251.56 480.71 C 251.58 481.09 251.60 481.85 251.61 482.23 C 252.84 482.67 254.07 483.13 255.30 483.60 C 256.39 490.17 259.05 496.37 259.73 503.02 C 260.12 506.07 260.93 509.05 261.78 512.01 C 262.83 514.82 263.99 517.64 265.93 519.99 C 271.02 526.62 275.81 533.49 280.96 540.08 C 291.30 553.32 300.37 567.81 313.41 578.67 C 320.75 585.61 330.22 589.89 340.03 591.95 C 352.52 594.59 365.35 594.06 378.00 595.27 C 388.37 595.92 398.72 594.96 409.04 594.16 C 414.65 593.51 420.33 593.25 425.80 591.75 C 429.94 590.59 433.74 588.49 437.90 587.40 C 442.87 586.00 446.93 582.66 451.55 580.49 C 455.33 578.82 458.49 576.11 461.59 573.45 C 462.98 574.31 464.37 575.17 465.76 576.04 C 461.92 578.50 458.45 581.59 454.24 583.45 C 450.25 585.22 446.21 586.89 442.20 588.63 C 436.86 590.92 430.96 591.81 425.92 594.80 C 421.98 597.00 417.62 598.34 413.79 600.73 C 412.60 600.56 411.41 600.40 410.23 600.25 C 412.53 599.03 414.76 597.68 416.97 596.30 C 406.32 597.36 395.63 597.89 384.94 598.24 C 374.65 597.70 364.35 597.06 354.06 596.43 C 344.43 595.53 334.58 594.30 325.77 590.04 C 316.56 585.94 309.24 578.76 302.36 571.58 C 292.67 561.50 284.29 550.30 275.29 539.63 C 270.94 535.12 267.94 529.58 264.23 524.59 C 260.53 520.12 260.33 514.08 258.01 508.95 C 257.41 505.28 256.85 501.61 256.24 497.95 C 254.41 493.00 254.48 486.63 249.27 483.77 C 243.92 491.83 237.00 498.64 231.38 506.50 C 227.65 511.55 225.24 517.42 221.66 522.58 C 221.07 522.58 219.88 522.60 219.28 522.61 C 203.95 535.42 188.47 548.15 174.64 562.62 C 161.73 576.12 148.57 589.44 136.84 604.00 L 133.44 604.00 C 146.39 587.82 160.95 573.05 175.39 558.22 C 189.35 543.84 204.94 531.19 220.31 518.36 C 223.44 515.87 224.47 511.80 226.84 508.71 C 230.65 503.56 234.03 498.05 238.49 493.42 C 242.19 489.63 244.69 484.89 248.35 481.06 C 247.96 479.96 247.58 478.86 247.21 477.76 C 248.34 478.00 249.47 478.24 250.61 478.49 C 250.63 477.89 250.67 476.70 250.69 476.10 C 247.60 473.57 244.29 471.25 241.56 468.31 C 238.16 464.29 237.69 458.81 235.81 454.06 C 235.18 451.40 234.29 448.71 234.75 445.95 C 235.59 440.36 235.18 434.66 236.25 429.10 C 237.05 425.82 235.78 422.62 234.24 419.78 C 231.73 415.48 230.21 410.69 227.57 406.45 C 222.29 397.53 217.25 388.41 211.19 379.99 C 205.69 384.92 199.89 389.52 194.48 394.55 C 192.31 396.52 190.39 398.79 187.95 400.44 C 194.53 392.17 203.27 385.98 211.14 379.02 C 207.43 373.69 204.75 367.78 201.58 362.14 C 201.08 360.23 200.61 358.32 200.20 356.41 C 198.48 356.11 196.75 355.82 195.04 355.53 C 196.34 355.29 197.66 355.06 198.97 354.84 C 198.00 351.87 197.07 348.89 195.80 346.03 C 192.65 339.16 191.07 331.73 188.50 324.65 C 187.02 319.57 184.71 314.48 185.31 309.07 C 185.55 301.37 188.15 294.07 190.72 286.91 C 192.18 283.06 194.77 279.80 196.39 276.03 C 197.36 270.06 197.84 263.99 197.53 257.94 C 195.34 253.64 192.30 249.82 189.37 245.99 C 189.35 243.07 190.07 240.07 189.40 237.19 C 186.92 231.38 184.49 225.30 184.52 218.89 C 187.17 209.86 194.80 203.70 199.65 195.92 C 199.68 194.97 199.67 194.02 199.62 193.07 C 197.30 190.87 197.64 187.61 197.52 184.71 C 197.06 185.65 196.62 186.60 196.18 187.55 C 195.72 187.59 194.78 187.68 194.32 187.72 C 194.14 183.09 194.51 178.41 193.63 173.83 C 192.54 174.64 191.45 175.43 190.36 176.23 C 190.28 174.57 190.37 172.87 191.66 171.66 C 193.95 169.20 194.75 165.89 194.93 162.61 C 193.73 162.08 192.53 161.56 191.33 161.05 C 191.74 159.72 192.17 158.39 192.63 157.08 C 194.99 156.17 196.54 154.19 197.79 152.08 M 206.99 224.14 C 202.43 225.88 199.54 230.09 197.04 234.06 C 196.04 236.06 195.05 238.06 194.16 240.12 C 193.12 240.44 192.53 241.10 192.40 242.10 C 191.33 246.21 195.63 248.81 196.91 252.34 C 197.27 252.45 198.00 252.67 198.37 252.78 C 199.04 250.30 200.11 247.85 202.20 246.25 C 206.05 243.01 209.75 239.58 214.28 237.27 C 215.09 236.71 215.89 236.14 216.70 235.58 C 226.28 230.69 236.83 235.08 246.90 234.79 C 246.12 231.99 243.94 230.03 241.79 228.26 C 237.86 225.05 233.87 221.80 229.17 219.77 C 226.03 218.75 223.20 216.89 219.94 216.21 C 214.99 217.64 211.67 222.10 206.99 224.14 M 221.98 244.77 C 217.90 247.58 214.31 251.08 210.04 253.62 C 209.11 253.18 208.20 252.72 207.30 252.25 C 206.25 256.28 210.86 257.62 213.09 260.00 C 216.08 261.55 219.69 261.54 223.00 261.50 C 224.62 260.58 226.33 259.84 228.08 259.20 C 230.67 258.43 233.26 257.65 235.85 256.87 C 237.87 256.21 239.88 255.53 241.90 254.87 C 242.73 254.17 243.56 253.46 244.39 252.75 C 244.98 250.13 245.62 247.51 245.79 244.83 C 241.17 244.59 236.66 243.35 232.02 243.46 C 228.67 243.52 224.96 242.80 221.98 244.77 M 212.39 245.41 C 212.36 246.43 212.35 247.46 212.34 248.49 C 212.86 248.42 213.91 248.28 214.43 248.21 C 214.39 247.36 214.35 246.51 214.32 245.67 C 213.83 245.61 212.87 245.48 212.39 245.41 Z" />
<path fill="#030303" opacity="1.00" d=" M 511.92 264.67 L 512.10 263.58 C 512.53 266.44 513.04 269.30 513.27 272.19 C 512.45 276.18 512.91 280.55 510.91 284.22 C 505.92 292.30 500.31 299.99 494.19 307.25 C 493.10 308.17 493.51 309.66 493.37 310.90 C 493.31 314.00 492.65 317.05 492.22 320.12 C 491.31 322.37 490.56 324.67 489.70 326.94 C 489.58 327.49 489.36 328.60 489.24 329.15 C 484.88 338.77 483.65 349.34 480.58 359.37 C 479.58 363.59 479.41 368.05 477.34 371.96 C 475.21 374.60 473.92 377.81 471.68 380.38 C 471.23 380.55 470.32 380.88 469.86 381.05 C 469.35 381.23 468.31 381.60 467.79 381.78 C 467.08 387.17 466.52 392.56 466.26 397.99 C 464.21 414.29 463.60 430.83 464.83 447.22 C 465.28 447.32 466.16 447.51 466.61 447.61 C 466.86 445.46 465.86 442.20 469.10 442.31 C 469.30 444.54 469.49 446.78 469.71 449.02 C 470.28 451.33 470.68 453.67 471.20 455.99 C 471.32 458.37 471.51 460.75 471.49 463.15 C 470.84 464.20 470.20 465.26 469.57 466.33 C 468.85 460.90 468.32 455.45 467.37 450.06 C 466.14 450.75 464.92 451.45 463.69 452.14 C 462.92 448.79 462.42 445.40 461.77 442.03 C 460.91 429.32 462.42 416.66 462.82 403.97 C 463.88 397.17 465.04 390.28 464.53 383.37 C 466.24 377.43 465.80 371.12 467.34 365.15 C 468.89 359.55 469.75 353.79 471.14 348.15 C 472.94 335.95 478.17 324.69 482.81 313.40 C 480.14 313.79 477.48 314.26 474.94 315.15 C 471.42 315.82 467.87 316.43 464.28 316.49 C 463.14 322.27 463.76 328.22 462.73 334.03 C 462.53 337.68 461.01 341.37 462.05 345.01 C 463.43 350.19 462.56 355.59 461.87 360.80 C 460.32 373.21 458.60 385.59 457.14 398.01 C 456.45 402.37 455.88 406.74 455.33 411.12 C 451.60 418.80 444.49 423.77 439.45 430.46 C 435.23 435.31 429.83 438.95 425.53 443.70 C 422.92 447.19 420.31 450.71 418.04 454.43 C 416.51 456.96 416.90 461.10 413.32 461.83 C 413.46 454.06 419.04 448.25 423.24 442.27 C 428.71 436.40 435.41 431.71 440.29 425.25 C 445.06 419.69 452.25 414.97 453.01 407.06 C 454.97 392.06 457.03 377.07 458.91 362.05 C 459.34 359.66 459.58 357.24 459.85 354.83 C 460.21 352.96 460.47 351.08 460.73 349.20 C 460.45 349.18 459.89 349.15 459.61 349.13 C 459.50 350.45 459.39 351.77 459.30 353.09 C 458.25 355.22 458.67 359.09 455.45 358.99 C 456.04 352.53 458.22 346.38 459.08 339.97 C 460.26 330.79 461.72 321.61 461.76 312.33 C 468.49 315.55 475.24 311.15 482.10 311.16 C 486.73 309.71 491.30 307.24 494.21 303.24 C 498.51 297.50 503.03 291.93 506.70 285.75 C 511.56 279.84 510.13 271.66 511.92 264.67 Z" />
</g>
<g id="#101010ff">
<path fill="#101010" opacity="1.00" d=" M 265.17 154.77 C 269.30 153.42 273.68 153.51 277.92 152.69 C 283.39 152.64 288.75 151.16 294.22 151.56 C 294.01 152.22 293.58 153.54 293.36 154.21 C 289.92 154.43 286.46 154.48 283.07 155.11 C 277.54 155.64 271.87 155.96 266.56 157.52 C 265.84 156.74 265.40 155.80 265.17 154.77 Z" />
<path fill="#101010" opacity="1.00" d=" M 241.07 154.13 C 242.45 153.71 243.86 153.48 245.28 153.27 C 245.73 153.93 246.18 154.58 246.64 155.23 C 245.14 155.96 243.58 156.54 241.94 156.89 C 237.53 158.46 233.61 161.19 229.00 162.21 C 224.55 163.57 220.86 166.48 217.19 169.22 C 214.71 170.33 215.53 173.27 215.19 175.44 C 214.28 175.54 213.37 175.64 212.46 175.74 C 212.66 173.34 212.32 170.74 213.60 168.59 C 217.10 165.62 220.91 162.99 224.90 160.72 C 230.46 158.96 235.82 156.67 241.07 154.13 Z" />
<path fill="#101010" opacity="1.00" d=" M 476.01 229.31 C 480.62 230.89 483.61 235.29 488.28 236.89 C 488.36 237.38 488.51 238.35 488.59 238.84 C 486.55 238.82 484.59 238.34 482.81 237.37 C 480.78 235.65 478.75 233.96 476.71 232.27 C 475.43 237.96 473.91 243.75 470.64 248.67 C 469.94 248.99 469.22 249.28 468.50 249.53 C 468.30 244.88 472.37 241.46 472.64 236.88 C 472.87 234.02 474.07 231.43 476.01 229.31 Z" />
</g>
<g id="#848484ff">
<path fill="#848484" opacity="1.00" d=" M 269.88 158.79 C 273.07 157.28 276.63 157.61 280.06 157.72 C 280.45 158.36 281.25 159.64 281.65 160.28 C 278.72 162.00 275.21 160.69 272.10 161.67 C 269.44 162.50 266.84 163.65 264.03 163.91 C 269.25 160.82 275.29 160.10 281.23 159.90 C 277.80 157.76 273.66 158.55 269.88 158.79 Z" />
<path fill="#848484" opacity="1.00" d=" M 270.56 311.23 C 274.33 310.56 278.22 309.92 282.04 310.61 C 278.24 311.17 274.39 311.73 270.56 311.23 Z" />
</g>
<g id="#0e0e0eff">
<path fill="#0e0e0e" opacity="1.00" d=" M 261.13 162.29 C 264.00 161.03 266.99 160.04 269.88 158.79 C 273.66 158.55 277.80 157.76 281.23 159.90 C 275.29 160.10 269.25 160.82 264.03 163.91 C 263.50 164.18 262.45 164.72 261.92 164.99 C 260.30 165.29 258.65 165.49 257.03 165.75 C 252.75 167.95 247.62 165.53 243.13 165.03 C 246.15 161.11 251.49 165.65 255.45 163.56 C 257.28 162.92 259.19 162.53 261.13 162.29 Z" />
<path fill="#0e0e0e" opacity="1.00" d=" M 251.69 180.90 C 252.75 177.94 254.82 175.43 256.99 173.20 C 257.34 173.66 258.04 174.59 258.39 175.05 C 257.16 176.91 255.87 178.74 254.66 180.62 C 251.58 188.50 254.70 196.99 255.50 205.01 C 255.04 205.38 254.10 206.11 253.63 206.47 C 252.44 203.50 252.63 200.25 251.93 197.17 C 251.60 195.14 251.40 193.08 250.72 191.13 C 251.34 187.75 251.42 184.31 251.69 180.90 Z" />
</g>
<g id="#8f8f8fff">
<path fill="#8f8f8f" opacity="1.00" d=" M 243.12 162.83 C 247.22 161.93 251.35 163.25 255.45 163.56 C 251.49 165.65 246.15 161.11 243.13 165.03 C 243.13 164.48 243.12 163.38 243.12 162.83 Z" />
</g>
<g id="#010101ff">
<path fill="#010101" opacity="1.00" d=" M 272.49 171.71 C 275.82 170.04 279.28 168.35 283.08 168.22 C 288.26 168.05 293.36 169.18 298.49 169.77 C 302.24 171.33 304.93 174.47 307.68 177.33 C 309.87 179.75 313.03 180.79 315.78 182.41 C 322.82 183.96 330.14 183.84 337.16 185.50 C 337.66 185.82 338.66 186.47 339.16 186.79 C 344.63 191.12 350.78 194.44 356.31 198.68 C 360.52 202.09 358.00 207.67 356.94 211.96 C 355.78 213.78 354.13 215.16 352.35 216.34 C 351.19 216.27 350.04 216.22 348.89 216.19 C 346.37 214.88 344.76 212.43 342.44 210.86 C 340.01 209.39 337.41 208.25 334.91 206.92 C 332.25 206.62 329.59 206.45 326.94 206.12 C 324.62 205.54 322.22 205.43 319.85 205.19 C 314.30 204.04 308.47 204.86 303.04 202.98 C 301.83 201.83 300.56 200.76 299.27 199.73 C 296.62 197.65 294.02 195.37 290.75 194.35 C 289.87 193.78 288.99 193.21 288.13 192.62 C 285.15 191.63 282.01 191.42 278.91 191.16 C 277.24 190.79 275.55 190.54 273.87 190.30 C 271.93 189.41 269.89 188.79 267.85 188.22 C 266.06 187.52 264.23 186.98 262.40 186.44 L 262.53 185.54 L 261.43 185.38 C 261.67 183.81 261.99 182.26 262.46 180.75 C 266.32 178.35 269.34 174.92 272.49 171.71 M 294.37 171.50 C 294.42 172.57 294.48 173.65 294.56 174.72 C 296.86 174.78 296.70 173.00 296.63 171.41 C 296.07 171.43 294.94 171.48 294.37 171.50 M 297.20 173.51 C 297.56 174.23 298.28 175.67 298.64 176.39 C 299.09 176.35 300.01 176.26 300.47 176.22 C 300.52 175.27 300.57 174.32 300.63 173.37 C 299.48 173.41 298.34 173.45 297.20 173.51 M 306.44 181.33 C 306.43 181.91 306.41 183.06 306.40 183.64 C 306.98 183.65 308.12 183.66 308.70 183.66 C 308.70 183.10 308.69 181.96 308.69 181.39 C 308.13 181.38 307.00 181.35 306.44 181.33 M 353.73 204.69 C 353.63 206.32 353.53 207.96 353.46 209.60 C 354.42 209.56 355.39 209.52 356.37 209.47 C 356.44 207.78 356.50 206.09 356.51 204.41 C 355.58 204.49 354.65 204.59 353.73 204.69 M 349.20 211.68 C 349.64 212.90 348.94 215.46 351.43 214.52 C 351.57 213.55 351.68 212.58 351.78 211.60 C 351.13 211.62 349.85 211.66 349.20 211.68 Z" />
<path fill="#010101" opacity="1.00" d=" M 218.84 318.41 C 219.64 318.47 220.45 318.53 221.27 318.60 C 221.25 318.95 221.21 319.64 221.20 319.98 C 219.99 321.19 218.81 322.44 217.63 323.67 C 216.23 324.98 214.61 326.15 213.70 327.88 C 213.00 330.23 212.67 332.67 212.14 335.06 C 211.27 336.61 211.59 338.34 212.30 339.89 C 212.65 342.61 212.80 345.35 212.77 348.10 C 213.36 350.13 213.98 352.15 214.69 354.15 C 215.37 355.47 216.04 356.79 216.73 358.12 C 219.06 361.06 220.92 364.32 222.95 367.47 C 223.24 367.43 223.81 367.36 224.09 367.32 C 223.77 363.04 226.21 359.11 229.91 357.05 C 235.08 353.74 241.33 353.14 246.90 350.83 C 249.41 349.66 252.18 349.40 254.88 348.99 C 262.87 347.39 270.94 346.25 278.96 344.89 C 285.67 344.24 292.38 343.12 299.15 343.83 C 305.08 344.92 311.08 345.78 316.89 347.43 C 321.15 348.60 324.34 351.83 328.19 353.83 C 330.30 355.41 332.51 356.82 334.73 358.24 C 336.17 359.84 337.66 361.39 339.22 362.88 C 340.35 365.47 341.59 368.09 341.69 370.98 C 340.96 370.87 339.48 370.64 338.75 370.52 C 338.47 369.61 338.20 368.70 337.91 367.80 C 337.57 369.71 337.10 371.61 335.89 373.19 C 334.39 370.19 334.37 365.65 330.42 364.71 C 328.91 364.60 327.43 364.27 325.99 363.82 C 317.31 366.42 308.78 369.45 300.16 372.23 C 293.80 374.16 287.50 376.30 281.14 378.24 C 273.38 380.24 265.85 383.18 257.90 384.36 C 250.58 385.37 243.20 384.31 235.86 384.49 C 240.16 385.83 244.11 388.01 248.18 389.89 C 251.32 391.26 252.78 394.62 255.21 396.84 C 256.75 398.89 257.99 401.19 257.80 403.84 C 256.85 403.69 255.92 403.54 254.98 403.38 C 253.61 399.61 250.50 396.90 247.99 393.89 C 242.71 390.76 236.72 388.87 231.59 385.47 C 227.55 382.87 226.01 378.14 224.10 374.02 C 220.81 368.08 216.13 363.02 213.09 356.92 C 212.39 355.23 211.69 353.55 210.95 351.89 C 210.34 348.83 210.27 345.71 210.38 342.62 L 209.62 342.46 C 209.30 338.98 209.14 335.44 210.05 332.03 C 210.41 330.37 210.31 328.57 211.17 327.07 C 212.83 323.45 216.70 321.68 218.84 318.41 M 262.01 351.07 C 252.36 353.17 242.46 354.71 233.32 358.59 C 229.19 360.33 227.10 364.47 225.30 368.30 C 226.01 368.81 226.72 369.32 227.44 369.84 C 228.94 367.84 230.36 365.79 232.00 363.90 C 237.31 362.08 242.74 364.32 248.09 364.55 C 253.59 362.63 259.29 361.42 264.90 359.84 C 267.61 359.16 270.32 358.44 273.12 358.22 C 276.27 356.66 279.83 356.57 283.08 355.32 C 285.65 354.33 288.32 353.58 291.03 353.04 C 293.96 352.46 296.86 351.27 299.90 351.55 C 306.52 352.51 313.10 353.71 319.58 355.40 C 320.09 352.92 318.16 352.28 316.24 351.78 C 308.34 349.27 300.32 346.74 291.95 346.70 C 281.86 347.25 271.92 349.16 262.01 351.07 M 273.94 362.05 C 271.29 362.59 268.70 363.36 266.14 364.21 C 262.23 364.34 258.37 365.15 254.85 366.90 C 252.94 367.52 250.93 367.65 248.95 367.83 C 245.29 368.21 241.32 369.58 237.85 367.78 C 236.54 367.60 235.24 367.44 233.94 367.31 C 233.24 368.16 232.52 368.99 231.78 369.81 C 230.82 371.09 229.98 372.46 229.36 373.94 C 230.20 375.43 231.01 376.95 231.82 378.46 C 237.50 379.57 243.22 380.83 249.04 380.69 C 256.71 380.96 264.16 378.79 271.45 376.68 C 288.04 371.45 304.74 366.34 320.56 359.03 C 320.50 358.24 320.42 357.46 320.33 356.68 C 315.95 357.42 311.19 358.04 307.09 355.88 C 304.64 354.54 301.80 354.40 299.08 354.76 C 290.58 356.75 282.03 358.71 273.94 362.05 Z" />
<path fill="#010101" opacity="1.00" d=" M 373.67 376.47 C 374.55 374.84 375.02 372.01 377.58 372.53 C 376.45 378.39 373.23 383.55 371.16 389.10 C 368.34 395.06 366.57 401.61 362.81 407.07 C 362.52 406.57 361.94 405.57 361.65 405.07 C 365.35 395.42 369.82 386.06 373.67 376.47 Z" />
</g>
<g id="#8c8c8cff">
<path fill="#8c8c8c" opacity="1.00" d=" M 255.50 205.01 C 254.70 196.99 251.58 188.50 254.66 180.62 C 254.63 184.07 254.19 187.52 254.26 190.97 C 254.56 195.75 256.08 200.38 256.20 205.18 C 256.02 206.94 254.22 206.75 252.94 207.02 L 253.63 206.47 C 254.10 206.11 255.04 205.38 255.50 205.01 Z" />
<path fill="#8c8c8c" opacity="1.00" d=" M 260.78 316.84 C 261.84 316.16 262.90 315.49 263.95 314.82 C 263.51 315.29 262.63 316.25 262.19 316.72 C 262.81 317.85 264.37 318.97 263.31 320.35 C 262.56 320.52 261.80 320.67 261.03 320.79 C 261.60 320.35 262.73 319.48 263.30 319.05 C 262.67 318.49 261.41 317.39 260.78 316.84 Z" />
</g>
<g id="#f2f2f2ff">
<path fill="#f2f2f2" opacity="1.00" d=" M 306.44 181.33 C 307.00 181.35 308.13 181.38 308.69 181.39 C 308.69 181.96 308.70 183.10 308.70 183.66 C 308.12 183.66 306.98 183.65 306.40 183.64 C 306.41 183.06 306.43 181.91 306.44 181.33 Z" />
<path fill="#f2f2f2" opacity="1.00" d=" M 353.73 204.69 C 354.65 204.59 355.58 204.49 356.51 204.41 C 356.50 206.09 356.44 207.78 356.37 209.47 C 355.39 209.52 354.42 209.56 353.46 209.60 C 353.53 207.96 353.63 206.32 353.73 204.69 Z" />
</g>
<g id="#292929ff">
<path fill="#292929" opacity="1.00" d=" M 240.43 186.61 C 241.15 186.64 242.57 186.70 243.28 186.73 C 244.10 193.46 248.89 199.36 247.51 206.39 C 246.84 206.46 245.49 206.59 244.82 206.66 C 245.76 199.49 240.91 193.56 240.43 186.61 Z" />
</g>
<g id="#040404ff">
<path fill="#040404" opacity="1.00" d=" M 359.67 204.55 C 360.56 204.52 362.34 204.46 363.22 204.43 C 363.63 205.52 364.04 206.60 364.47 207.68 C 365.62 207.67 366.77 207.67 367.92 207.68 C 368.98 209.08 370.17 210.40 371.43 211.63 C 371.38 212.05 371.28 212.89 371.22 213.31 C 370.80 213.35 369.95 213.43 369.53 213.47 C 367.93 211.82 366.32 209.89 363.77 210.24 C 361.50 209.08 360.19 207.00 359.67 204.55 Z" />
<path fill="#040404" opacity="1.00" d=" M 322.54 379.64 C 323.40 378.77 324.27 377.91 325.16 377.06 C 327.00 379.25 325.60 381.91 325.06 384.30 C 324.16 384.50 323.26 384.70 322.37 384.91 C 322.34 383.14 322.41 381.39 322.54 379.64 Z" />
<path fill="#040404" opacity="1.00" d=" M 235.63 391.35 C 239.42 393.59 242.94 396.25 246.53 398.79 C 246.52 399.28 246.49 400.26 246.48 400.75 C 242.00 400.00 238.92 396.16 235.14 393.93 C 235.26 393.28 235.51 391.99 235.63 391.35 Z" />
<path fill="#040404" opacity="1.00" d=" M 265.15 391.17 C 268.84 390.67 269.62 395.03 270.62 397.69 C 266.97 398.26 266.03 393.83 265.15 391.17 Z" />
</g>
<g id="#e2e2e2ff">
<path fill="#e2e2e2" opacity="1.00" d=" M 349.20 211.68 C 349.85 211.66 351.13 211.62 351.78 211.60 C 351.68 212.58 351.57 213.55 351.43 214.52 C 348.94 215.46 349.64 212.90 349.20 211.68 Z" />
<path fill="#e2e2e2" opacity="1.00" d=" M 499.73 235.75 C 502.59 235.65 505.45 235.38 508.25 234.75 C 508.67 236.18 509.07 237.61 509.43 239.07 C 508.57 237.71 507.67 236.38 506.74 235.09 C 504.95 238.03 507.90 240.82 507.28 243.84 C 506.53 249.34 505.81 254.85 504.82 260.31 C 504.16 259.61 503.52 258.90 502.88 258.20 C 503.98 254.40 504.46 250.44 504.77 246.51 C 505.07 243.02 503.58 239.74 503.10 236.34 L 500.96 236.46 C 501.11 240.23 502.94 243.93 501.92 247.72 C 500.88 243.80 499.66 239.86 499.73 235.75 Z" />
</g>
<g id="#050505ff">
<path fill="#050505" opacity="1.00" d=" M 361.05 215.63 C 362.19 215.50 363.34 215.39 364.50 215.30 C 364.55 215.79 364.67 216.77 364.72 217.26 C 363.75 217.75 362.79 218.26 361.84 218.78 C 358.07 224.07 351.25 225.16 345.52 227.19 C 341.77 228.16 338.35 230.20 334.48 230.73 C 334.40 231.43 334.24 232.83 334.16 233.53 C 327.04 233.59 319.95 231.72 312.84 232.80 C 308.19 233.65 303.47 234.32 299.12 236.31 C 297.28 237.01 295.37 237.55 293.39 237.63 C 293.56 235.59 294.25 233.66 294.85 231.72 C 297.39 228.66 299.87 224.95 304.09 224.20 C 308.62 222.29 313.31 224.63 317.94 224.48 C 317.07 223.85 316.18 223.23 315.31 222.62 C 314.74 222.51 313.58 222.28 313.00 222.17 C 309.55 220.49 305.44 219.82 301.90 221.60 C 297.18 222.81 295.59 227.88 292.20 230.81 C 291.64 230.19 291.08 229.59 290.53 228.99 C 292.76 226.33 294.74 223.48 296.96 220.82 C 298.33 220.25 299.68 219.66 301.04 219.07 C 302.98 218.42 304.95 217.86 307.00 217.65 C 308.36 218.02 309.75 218.36 311.15 218.67 C 312.40 219.09 313.68 219.47 314.97 219.85 C 317.05 220.92 319.18 221.90 321.38 222.71 L 321.33 223.52 C 324.03 225.05 327.19 225.28 330.21 225.62 C 331.75 226.40 333.23 227.34 334.90 227.83 C 336.75 227.75 338.40 226.81 340.08 226.14 C 341.38 225.68 342.67 225.24 343.97 224.78 C 344.49 224.65 345.54 224.38 346.07 224.25 C 347.08 223.84 348.11 223.47 349.15 223.13 C 353.79 222.01 358.32 219.67 361.05 215.63 M 309.44 227.63 C 309.56 228.03 309.80 228.82 309.92 229.22 C 310.28 229.26 310.99 229.34 311.35 229.39 C 311.43 228.93 311.59 228.02 311.67 227.57 C 311.11 227.58 309.99 227.61 309.44 227.63 Z" />
</g>
<g id="#fcfcfcff">
<path fill="#fcfcfc" opacity="1.00" d=" M 206.99 224.14 C 211.67 222.10 214.99 217.64 219.94 216.21 C 223.20 216.89 226.03 218.75 229.17 219.77 C 233.87 221.80 237.86 225.05 241.79 228.26 C 243.94 230.03 246.12 231.99 246.90 234.79 C 236.83 235.08 226.28 230.69 216.70 235.58 C 215.89 236.14 215.09 236.71 214.28 237.27 C 209.75 239.58 206.05 243.01 202.20 246.25 C 200.11 247.85 199.04 250.30 198.37 252.78 C 198.00 252.67 197.27 252.45 196.91 252.34 C 195.63 248.81 191.33 246.21 192.40 242.10 C 192.53 241.10 193.12 240.44 194.16 240.12 C 195.05 238.06 196.04 236.06 197.04 234.06 C 199.54 230.09 202.43 225.88 206.99 224.14 Z" />
<path fill="#fcfcfc" opacity="1.00" d=" M 221.98 244.77 C 224.96 242.80 228.67 243.52 232.02 243.46 C 236.66 243.35 241.17 244.59 245.79 244.83 C 245.62 247.51 244.98 250.13 244.39 252.75 C 243.56 253.46 242.73 254.17 241.90 254.87 C 239.88 255.53 237.87 256.21 235.85 256.87 C 233.26 257.65 230.67 258.43 228.08 259.20 C 226.33 259.84 224.62 260.58 223.00 261.50 C 219.69 261.54 216.08 261.55 213.09 260.00 C 210.86 257.62 206.25 256.28 207.30 252.25 C 208.20 252.72 209.11 253.18 210.04 253.62 C 214.31 251.08 217.90 247.58 221.98 244.77 Z" />
<path fill="#fcfcfc" opacity="1.00" d=" M 179.14 422.80 C 180.93 421.69 182.70 420.55 184.53 419.52 C 184.01 422.43 181.68 424.23 179.53 425.97 C 179.39 424.91 179.26 423.85 179.14 422.80 Z" />
<path fill="#fcfcfc" opacity="1.00" d=" M 201.25 488.21 C 200.67 484.80 200.90 481.27 202.92 478.36 C 203.08 481.70 203.40 485.37 201.25 488.21 Z" />
<path fill="#fcfcfc" opacity="1.00" d=" M 41.05 511.83 C 43.02 508.26 45.23 504.77 48.01 501.76 C 47.76 506.02 45.10 510.31 41.05 511.83 Z" />
</g>
<g id="#0b0b0bff">
<path fill="#0b0b0b" opacity="1.00" d=" M 247.91 218.37 C 248.52 218.34 249.73 218.28 250.34 218.25 C 252.13 221.59 253.25 225.21 254.27 228.85 C 254.48 230.29 254.69 231.72 254.94 233.16 C 255.45 235.42 255.58 237.73 255.92 240.02 C 257.20 246.89 253.49 253.51 252.15 260.16 C 251.68 261.42 251.22 262.67 250.73 263.93 C 250.61 264.48 250.37 265.57 250.26 266.12 C 247.92 272.11 246.06 278.30 243.17 284.08 C 241.37 287.87 238.84 291.23 236.69 294.81 C 235.52 298.39 235.09 302.19 235.52 305.93 C 236.40 306.96 236.70 308.28 237.01 309.56 C 236.44 309.61 235.31 309.70 234.74 309.75 C 234.03 308.48 233.32 307.21 232.53 306.00 C 232.50 304.11 232.64 302.22 233.33 300.46 C 232.98 300.42 232.27 300.35 231.91 300.31 C 231.32 301.26 230.70 302.19 230.05 303.12 C 228.67 306.28 229.50 309.94 228.76 313.29 C 229.62 314.78 230.77 316.07 231.82 317.45 C 232.41 317.54 233.59 317.73 234.19 317.83 C 235.25 318.07 236.32 318.29 237.39 318.52 C 237.47 317.99 237.61 316.93 237.68 316.40 C 237.04 316.38 235.77 316.34 235.13 316.32 C 235.26 315.63 235.52 314.23 235.65 313.53 C 238.91 313.80 243.47 315.39 243.63 319.26 C 241.85 319.55 239.25 318.89 239.02 321.44 C 236.37 320.95 233.70 320.57 231.02 320.30 C 229.05 318.07 226.74 316.05 225.59 313.25 C 227.10 309.53 225.73 305.28 227.59 301.70 C 228.74 300.38 229.84 299.02 230.90 297.63 C 231.50 297.53 232.70 297.34 233.30 297.25 C 234.21 291.71 238.61 287.85 240.74 282.83 C 241.94 280.27 243.05 277.66 244.19 275.08 C 244.34 274.54 244.64 273.46 244.79 272.92 C 245.19 271.93 245.57 270.94 245.94 269.94 C 246.96 266.68 248.45 263.56 248.99 260.17 C 241.86 261.96 237.64 268.80 232.99 273.97 C 229.41 278.45 225.50 282.76 222.78 287.84 C 220.75 290.27 218.94 292.88 217.78 295.84 C 216.00 300.50 214.29 305.18 212.68 309.90 C 212.05 312.63 213.55 317.80 209.26 317.76 C 209.42 314.11 209.71 310.46 210.73 306.94 C 211.15 305.91 211.55 304.86 211.91 303.82 C 212.87 301.15 213.83 298.50 214.80 295.84 C 215.25 294.94 215.69 294.05 216.13 293.15 C 216.97 290.67 218.66 288.68 220.19 286.62 C 224.34 279.84 229.54 273.80 234.68 267.77 C 237.62 263.38 242.12 260.50 246.41 257.61 C 247.99 257.46 249.59 257.60 251.18 257.61 C 252.01 252.11 253.17 246.63 253.46 241.08 C 252.62 236.42 252.12 231.69 250.99 227.08 C 250.18 224.09 248.59 221.39 247.91 218.37 Z" />
<path fill="#0b0b0b" opacity="1.00" d=" M 305.82 285.80 C 306.85 285.68 307.89 285.67 308.94 285.66 C 310.22 286.20 311.52 286.70 312.84 287.18 C 313.87 287.49 314.91 287.82 315.93 288.19 C 318.36 290.10 320.75 292.07 323.38 293.71 C 327.55 298.51 332.02 303.05 335.80 308.18 C 338.43 311.89 341.21 315.50 343.89 319.17 C 346.29 322.46 347.34 326.47 349.23 330.04 C 349.41 331.02 349.59 332.01 349.77 333.01 C 350.42 334.95 350.75 336.97 351.18 338.97 C 351.74 343.96 352.95 348.95 352.26 354.00 C 351.31 359.96 351.62 366.05 350.45 371.98 C 348.49 375.72 348.07 380.65 344.28 383.14 C 340.71 385.58 335.91 384.65 332.49 382.46 C 332.43 381.94 332.31 380.88 332.25 380.35 C 336.26 380.88 341.42 383.59 344.40 379.38 C 347.22 374.04 348.14 367.85 348.94 361.92 C 349.47 355.70 350.25 349.24 348.89 343.08 C 348.44 338.65 348.21 333.98 345.70 330.13 C 345.58 329.57 345.34 328.44 345.22 327.88 C 344.73 326.99 344.25 326.10 343.76 325.21 C 343.32 324.08 342.85 322.97 342.39 321.86 C 337.22 315.00 332.58 307.71 326.61 301.49 C 321.48 295.27 314.87 289.11 306.45 288.32 C 306.16 287.50 305.67 286.71 305.82 285.80 Z" />
</g>
<g id="#131313ff">
<path fill="#131313" opacity="1.00" d=" M 271.37 222.43 C 272.55 221.97 273.75 221.55 274.97 221.19 C 274.73 222.53 274.66 224.00 273.67 225.05 C 273.37 226.01 273.07 226.97 272.78 227.94 C 272.70 228.74 272.56 230.33 272.49 231.13 C 274.05 233.17 273.89 235.88 274.45 238.29 C 273.59 238.30 272.74 238.31 271.89 238.33 C 271.24 236.51 270.49 234.73 269.55 233.04 C 269.92 229.47 270.57 225.93 271.37 222.43 Z" />
</g>
<g id="#161616ff">
<path fill="#161616" opacity="1.00" d=" M 362.12 227.25 C 364.98 225.55 368.46 226.84 371.60 226.59 C 371.60 227.50 371.61 228.41 371.63 229.33 C 366.53 228.59 361.78 230.22 357.17 232.22 C 352.07 232.31 347.08 233.66 341.97 233.55 C 341.50 233.11 340.56 232.24 340.10 231.80 C 343.57 230.21 347.42 230.52 351.12 230.13 C 354.86 229.53 358.78 229.25 362.12 227.25 Z" />
</g>
<g id="#999999ff">
<path fill="#999999" opacity="1.00" d=" M 337.50 236.66 C 342.66 235.95 347.91 236.64 352.97 235.11 C 357.01 235.57 361.40 234.70 365.24 236.06 C 361.62 235.81 357.97 235.61 354.35 236.02 C 348.87 237.08 343.34 237.35 337.78 237.54 C 339.16 239.71 341.88 238.96 344.00 239.09 C 348.02 239.19 351.96 238.30 355.78 237.13 C 356.62 237.53 357.50 237.90 358.40 238.20 C 351.72 238.68 344.97 241.38 338.28 239.65 C 337.11 239.21 337.82 237.59 337.50 236.66 Z" />
</g>
<g id="#060606ff">
<path fill="#060606" opacity="1.00" d=" M 337.78 237.54 C 343.34 237.35 348.87 237.08 354.35 236.02 L 355.78 237.13 C 351.96 238.30 348.02 239.19 344.00 239.09 C 341.88 238.96 339.16 239.71 337.78 237.54 Z" />
<path fill="#060606" opacity="1.00" d=" M 285.63 288.93 C 286.70 288.45 287.75 287.91 288.83 287.46 C 293.04 287.38 297.33 287.99 301.09 289.99 C 301.43 290.42 302.11 291.27 302.45 291.70 C 302.87 292.69 303.35 293.66 303.74 294.68 C 304.58 299.55 304.03 304.59 301.87 309.06 C 298.91 311.51 295.55 314.07 291.64 314.51 C 291.64 313.86 291.65 312.55 291.66 311.90 C 295.29 310.42 299.50 308.77 301.11 304.86 C 302.03 302.05 301.95 298.93 300.96 296.15 C 300.46 294.70 300.13 293.14 299.13 291.93 C 297.31 290.66 295.30 289.41 293.03 289.26 C 290.20 289.15 287.84 290.95 285.48 292.25 C 285.52 291.42 285.59 289.76 285.63 288.93 Z" />
<path fill="#060606" opacity="1.00" d=" M 471.49 463.15 C 471.66 462.86 472.02 462.29 472.20 462.00 C 472.28 464.44 472.38 466.87 472.49 469.32 C 477.32 475.12 481.95 481.18 485.75 487.71 C 488.58 495.51 492.22 503.09 497.31 509.69 C 501.32 514.76 507.36 517.61 511.92 522.12 C 516.77 526.86 522.09 531.07 527.00 535.74 L 527.00 539.20 C 520.73 533.71 514.63 528.02 508.11 522.83 C 503.94 518.71 498.71 515.77 495.04 511.15 C 489.79 504.35 486.11 496.50 483.14 488.48 C 480.14 483.72 476.59 479.32 473.32 474.74 C 474.73 483.31 477.33 491.63 478.85 500.19 C 479.98 506.56 481.81 512.79 484.04 518.86 C 484.89 520.54 483.91 522.31 483.59 523.99 C 481.57 531.46 482.18 539.45 479.41 546.73 C 477.54 551.68 476.84 557.02 474.53 561.82 C 472.66 565.39 473.41 570.44 469.16 572.37 C 468.90 572.67 468.36 573.26 468.10 573.56 C 467.78 573.00 467.13 571.90 466.81 571.35 C 465.89 571.22 464.99 571.10 464.09 570.99 C 466.82 567.98 470.22 565.39 471.80 561.52 C 474.34 556.27 475.03 550.38 477.27 545.01 C 478.49 537.45 480.61 529.78 479.33 522.09 C 477.24 518.66 475.76 514.90 474.73 511.03 C 474.27 507.38 473.25 503.72 473.98 500.03 C 474.57 497.62 473.61 495.30 472.98 493.02 C 471.96 489.81 472.43 486.40 472.21 483.10 C 471.67 480.73 471.33 478.34 470.84 475.98 C 470.47 472.75 469.83 469.57 469.57 466.33 C 470.20 465.26 470.84 464.20 471.49 463.15 M 477.41 511.13 C 476.35 512.51 478.69 514.39 479.73 512.90 C 480.80 511.47 478.46 509.59 477.41 511.13 Z" />
</g>
<g id="#303030ff">
<path fill="#303030" opacity="1.00" d=" M 354.35 236.02 C 357.97 235.61 361.62 235.81 365.24 236.06 L 365.50 236.08 C 365.37 236.61 365.13 237.68 365.01 238.22 C 362.81 238.28 360.59 238.52 358.40 238.20 C 357.50 237.90 356.62 237.53 355.78 237.13 L 354.35 236.02 Z" />
<path fill="#303030" opacity="1.00" d=" M 185.78 412.58 C 186.20 413.51 186.59 414.45 186.98 415.41 C 188.49 414.39 190.05 413.23 191.99 413.44 C 189.67 415.54 185.87 416.55 185.46 420.14 C 184.66 423.75 181.41 427.04 177.54 426.92 C 177.49 426.16 177.40 424.62 177.36 423.86 C 175.70 425.86 174.23 428.14 171.92 429.48 C 174.18 424.05 179.65 421.48 184.00 418.03 C 185.80 416.84 185.18 414.37 185.78 412.58 M 179.14 422.80 C 179.26 423.85 179.39 424.91 179.53 425.97 C 181.68 424.23 184.01 422.43 184.53 419.52 C 182.70 420.55 180.93 421.69 179.14 422.80 Z" />
<path fill="#303030" opacity="1.00" d=" M 56.85 436.23 C 60.18 435.08 63.40 433.23 67.01 433.27 C 61.26 436.00 55.20 438.53 48.79 439.02 L 48.07 439.59 C 47.94 440.23 47.68 441.51 47.55 442.15 C 50.40 442.18 53.27 442.36 56.11 442.11 C 57.74 441.11 58.42 439.18 59.45 437.68 C 59.73 437.90 60.28 438.34 60.55 438.56 C 59.69 440.05 58.85 441.56 58.03 443.08 C 54.27 443.41 50.49 443.39 46.71 443.37 C 46.50 441.48 46.34 439.58 46.16 437.69 C 49.77 437.73 53.52 437.80 56.85 436.23 Z" />
<path fill="#303030" opacity="1.00" d=" M 150.59 439.82 C 153.39 439.55 156.21 439.52 159.02 439.37 C 158.07 440.00 157.06 440.53 156.04 441.03 C 152.12 444.84 147.60 449.80 141.54 448.48 C 141.60 447.13 141.68 445.78 141.75 444.45 C 144.62 442.79 147.33 440.69 150.59 439.82 M 143.60 444.78 C 143.36 445.40 142.87 446.65 142.63 447.27 C 143.55 447.32 145.41 447.41 146.33 447.45 C 149.15 445.61 151.84 443.57 154.29 441.26 C 150.23 440.37 146.80 442.65 143.60 444.78 Z" />
<path fill="#303030" opacity="1.00" d=" M 56.21 488.97 C 56.25 489.69 56.66 490.49 56.11 491.15 C 53.98 496.22 50.20 500.41 48.47 505.67 C 46.85 509.45 43.44 512.00 40.69 514.93 C 40.19 513.27 39.65 511.36 40.75 509.82 C 43.71 505.46 46.56 500.89 50.60 497.43 C 53.35 495.26 54.25 491.73 56.21 488.97 M 41.05 511.83 C 45.10 510.31 47.76 506.02 48.01 501.76 C 45.23 504.77 43.02 508.26 41.05 511.83 Z" />
</g>
<g id="#090909ff">
<path fill="#090909" opacity="1.00" d=" M 500.96 236.46 L 503.10 236.34 C 503.58 239.74 505.07 243.02 504.77 246.51 C 504.46 250.44 503.98 254.40 502.88 258.20 C 502.72 258.68 502.40 259.65 502.24 260.13 C 501.37 261.68 500.58 263.27 499.76 264.85 C 498.04 268.31 495.60 271.32 493.16 274.29 C 492.82 274.33 492.14 274.43 491.80 274.48 C 491.38 274.10 490.54 273.33 490.13 272.95 C 490.64 272.51 491.68 271.65 492.19 271.22 C 493.21 269.89 494.24 268.55 495.25 267.21 C 495.75 266.40 496.26 265.59 496.78 264.78 C 497.02 264.29 497.51 263.32 497.76 262.84 C 500.64 258.28 501.38 252.97 501.92 247.72 C 502.94 243.93 501.11 240.23 500.96 236.46 Z" />
</g>
<g id="#0d0d0dff">
<path fill="#0d0d0d" opacity="1.00" d=" M 506.74 235.09 C 507.67 236.38 508.57 237.71 509.43 239.07 C 509.51 239.40 509.67 240.07 509.75 240.40 C 509.58 249.16 507.25 257.72 505.78 266.32 C 505.19 268.67 503.37 270.32 501.56 271.78 C 501.48 272.39 501.33 273.63 501.25 274.24 C 499.97 274.22 498.70 274.21 497.43 274.19 C 497.54 272.43 498.58 271.05 499.73 269.81 C 501.06 268.77 502.23 267.54 503.16 266.13 C 503.47 265.08 503.83 264.04 504.25 263.03 C 504.44 262.12 504.63 261.22 504.82 260.31 C 505.81 254.85 506.53 249.34 507.28 243.84 C 507.90 240.82 504.95 238.03 506.74 235.09 Z" />
<path fill="#0d0d0d" opacity="1.00" d=" M 323.17 246.28 C 327.39 244.88 330.71 241.67 334.80 240.15 C 334.73 241.17 334.61 242.19 334.44 243.21 C 329.44 247.26 323.05 248.72 317.28 251.27 C 313.61 252.05 309.84 253.02 306.13 251.90 C 304.46 251.59 302.79 251.35 301.17 250.86 C 299.41 250.29 297.67 249.73 295.90 249.22 C 294.67 247.31 292.57 242.74 296.23 242.29 C 296.63 243.66 297.00 245.06 297.56 246.39 C 298.94 247.13 300.41 247.70 301.84 248.37 C 305.91 249.09 310.04 249.97 314.20 249.29 C 316.47 248.56 318.72 247.74 320.85 246.66 C 321.43 246.56 322.59 246.38 323.17 246.28 Z" />
</g>
<g id="#888888ff">
<path fill="#888888" opacity="1.00" d=" M 509.75 240.40 L 510.78 240.25 C 510.52 246.62 509.08 252.85 508.16 259.14 C 507.64 261.59 507.67 264.42 505.78 266.32 C 507.25 257.72 509.58 249.16 509.75 240.40 Z" />
</g>
<g id="#0c0c0cff">
<path fill="#0c0c0c" opacity="1.00" d=" M 464.98 250.36 C 466.23 251.12 466.76 252.36 466.91 253.78 C 468.42 256.04 470.44 258.11 470.98 260.88 C 472.72 266.90 470.47 273.04 470.24 279.11 C 469.60 280.62 468.95 282.14 468.29 283.65 C 469.46 283.77 470.65 283.55 471.40 282.54 C 474.29 279.52 478.05 277.65 481.57 275.49 C 482.55 275.56 483.53 275.64 484.51 275.73 C 484.47 276.57 484.42 277.41 484.38 278.26 C 483.74 278.35 482.46 278.52 481.82 278.61 C 478.11 280.46 474.84 283.00 471.79 285.78 C 470.87 286.20 469.97 286.63 469.07 287.06 C 467.84 287.35 466.58 287.52 465.34 287.67 C 465.34 286.08 465.62 284.55 466.18 283.07 C 466.87 280.37 467.28 277.59 468.19 274.95 C 468.42 270.24 469.05 265.51 468.40 260.80 C 466.87 258.55 465.28 256.33 463.65 254.15 C 463.67 253.80 463.71 253.09 463.74 252.74 C 464.05 252.14 464.67 250.96 464.98 250.36 Z" />
<path fill="#0c0c0c" opacity="1.00" d=" M 375.62 316.18 C 378.07 316.74 377.64 319.17 377.95 321.04 C 378.69 324.65 378.22 328.38 379.07 331.97 C 378.36 334.96 378.66 338.04 378.88 341.07 C 379.99 344.68 378.48 348.32 378.28 351.95 C 377.25 356.67 378.09 361.84 375.52 366.15 C 372.10 371.83 370.29 378.28 367.09 384.08 C 366.33 386.01 365.65 387.98 364.90 389.92 C 364.07 392.65 363.10 395.35 361.83 397.91 C 361.69 398.45 361.41 399.53 361.27 400.06 C 359.10 405.53 355.75 410.47 354.19 416.19 C 353.03 418.71 351.94 421.27 350.70 423.75 C 350.12 424.84 349.53 425.94 348.96 427.05 C 348.80 427.56 348.47 428.59 348.30 429.11 C 346.71 431.77 345.17 434.48 343.96 437.34 C 343.18 437.36 342.41 437.37 341.64 437.40 C 341.61 436.96 341.56 436.08 341.53 435.65 C 343.14 432.86 344.36 429.86 346.06 427.12 C 346.40 425.86 346.78 424.62 347.56 423.56 C 351.07 418.18 352.31 411.72 355.45 406.15 C 357.03 403.25 358.16 400.14 359.32 397.05 C 359.91 395.69 360.52 394.33 361.14 392.98 C 361.92 389.95 363.03 387.02 364.15 384.10 C 365.58 380.65 367.43 377.39 368.86 373.93 C 369.89 369.64 372.91 366.26 374.31 362.14 C 375.49 356.87 375.17 351.42 376.15 346.13 C 376.78 342.45 376.17 338.73 376.28 335.03 C 376.49 328.73 374.61 322.46 375.62 316.18 Z" />
</g>
<g id="#989898ff">
<path fill="#989898" opacity="1.00" d=" M 288.83 287.46 C 292.66 285.70 298.21 286.77 301.09 289.99 C 297.33 287.99 293.04 287.38 288.83 287.46 Z" />
</g>
<g id="#909090ff">
<path fill="#909090" opacity="1.00" d=" M 285.88 293.52 C 284.40 292.16 284.33 290.40 285.63 288.93 C 285.59 289.76 285.52 291.42 285.48 292.25 C 287.84 290.95 290.20 289.15 293.03 289.26 C 295.30 289.41 297.31 290.66 299.13 291.93 C 296.79 291.42 294.55 290.42 292.16 290.18 C 289.67 290.31 287.82 292.21 285.88 293.52 Z" />
</g>
<g id="#8d8d8dff">
<path fill="#8d8d8d" opacity="1.00" d=" M 303.74 294.68 C 305.46 296.34 304.99 298.93 305.01 301.08 C 304.77 303.94 304.58 307.38 301.87 309.06 C 304.03 304.59 304.58 299.55 303.74 294.68 Z" />
</g>
<g id="#1f1f1fff">
<path fill="#1f1f1f" opacity="1.00" d=" M 270.04 308.47 C 275.43 308.51 280.89 306.56 286.05 309.01 C 287.30 309.69 288.43 310.55 289.47 311.53 C 289.43 312.03 289.35 313.03 289.31 313.53 C 288.57 313.49 287.83 313.46 287.10 313.42 C 285.91 311.72 283.92 311.15 282.04 310.61 C 278.22 309.92 274.33 310.56 270.56 311.23 C 267.90 311.39 266.13 313.57 263.95 314.82 C 262.90 315.49 261.84 316.16 260.78 316.84 C 261.41 317.39 262.67 318.49 263.30 319.05 C 262.73 319.48 261.60 320.35 261.03 320.79 C 260.27 319.57 258.30 318.81 258.58 317.13 C 258.12 314.59 260.80 313.62 262.44 312.41 C 264.90 311.01 267.09 308.71 270.04 308.47 Z" />
<path fill="#1f1f1f" opacity="1.00" d=" M 176.35 351.58 C 176.26 352.56 176.06 354.51 175.96 355.48 C 176.69 354.30 177.40 353.10 178.16 351.95 C 181.15 354.34 176.96 357.03 174.70 357.23 C 174.39 355.03 174.94 353.15 176.35 351.58 Z" />
<path fill="#1f1f1f" opacity="1.00" d=" M 104.35 485.15 C 106.86 485.40 104.53 486.78 103.50 487.37 C 103.83 487.74 104.49 488.49 104.82 488.86 C 103.48 489.91 102.16 490.99 100.80 492.03 C 100.56 489.21 102.68 487.12 104.35 485.15 Z" />
</g>
<g id="#080808ff">
<path fill="#080808" opacity="1.00" d=" M 357.98 340.15 C 358.08 336.81 355.51 333.55 356.64 330.33 L 358.11 330.73 C 360.32 334.79 360.59 339.45 361.12 343.95 C 358.72 360.64 357.22 377.49 354.17 394.08 C 353.42 396.42 352.93 398.83 352.41 401.23 C 350.90 404.12 349.47 407.05 347.82 409.86 C 346.87 412.21 345.83 414.52 344.80 416.85 C 344.28 417.63 343.76 418.41 343.25 419.20 C 341.65 420.63 340.15 422.16 338.81 423.84 C 335.82 426.81 332.02 429.02 329.95 432.83 C 329.45 434.17 328.19 434.42 326.94 434.53 C 326.88 434.11 326.75 433.27 326.68 432.85 C 330.67 425.28 339.30 421.78 343.20 414.13 C 343.71 412.69 344.29 411.28 344.82 409.85 C 346.57 406.56 348.44 403.33 349.91 399.91 C 350.33 398.31 350.75 396.71 351.25 395.14 C 353.74 381.20 354.97 367.06 357.13 353.07 C 357.40 350.70 357.45 348.27 358.32 346.02 C 358.44 344.05 358.35 342.08 357.98 340.15 Z" />
</g>
<g id="#535353ff">
<path fill="#535353" opacity="1.00" d=" M 132.32 338.74 C 134.43 338.30 136.56 337.89 138.68 337.49 C 138.88 338.00 139.27 339.02 139.46 339.53 C 137.76 339.70 135.40 338.89 134.57 340.99 C 138.38 342.54 142.47 343.23 146.57 342.61 C 144.29 341.49 141.96 340.40 139.43 340.02 C 140.03 339.50 140.65 338.99 141.27 338.48 C 145.14 341.04 149.80 342.34 154.42 341.41 C 150.99 345.55 145.15 344.22 140.45 344.26 C 137.51 343.11 132.53 342.75 132.32 338.74 Z" />
<path fill="#535353" opacity="1.00" d=" M 107.94 352.94 C 108.64 350.43 111.99 348.45 114.30 350.16 C 112.18 351.09 110.08 352.07 107.94 352.94 Z" />
<path fill="#535353" opacity="1.00" d=" M 161.39 378.44 C 162.02 378.52 163.29 378.68 163.93 378.76 C 160.98 380.64 157.95 382.38 154.86 384.00 C 155.84 381.06 159.10 380.11 161.39 378.44 Z" />
<path fill="#535353" opacity="1.00" d=" M 216.46 413.55 C 219.39 411.18 221.88 407.25 226.11 407.59 C 226.21 407.99 226.41 408.79 226.51 409.19 C 225.43 409.17 224.36 409.17 223.28 409.17 C 216.20 415.46 209.38 422.02 202.49 428.52 C 195.19 436.18 190.01 445.97 181.34 452.24 C 182.73 449.13 185.44 446.98 187.66 444.50 C 192.59 439.10 196.58 432.90 201.57 427.55 C 206.65 423.01 211.25 417.96 216.46 413.55 Z" />
<path fill="#535353" opacity="1.00" d=" M 110.88 420.84 C 114.26 417.41 117.83 412.92 123.17 413.20 C 120.79 414.90 117.82 415.69 115.75 417.83 C 113.54 419.93 111.47 422.18 109.18 424.20 C 105.11 427.92 99.71 429.85 95.83 433.82 C 91.57 437.97 87.79 443.03 81.80 444.75 C 82.41 442.49 85.02 442.09 86.63 440.77 C 90.94 437.43 94.05 432.73 98.66 429.75 C 102.84 426.94 107.44 424.61 110.88 420.84 Z" />
</g>
<g id="#020202ff">
<path fill="#020202" opacity="1.00" d=" M 314.57 376.93 C 314.65 375.37 315.13 372.94 317.39 373.42 C 317.35 374.96 317.29 376.51 317.20 378.07 C 316.56 380.63 316.39 383.27 315.98 385.88 C 315.72 386.98 315.46 388.08 315.21 389.19 C 314.74 389.22 313.80 389.30 313.34 389.34 C 312.93 385.15 314.17 381.06 314.57 376.93 Z" />
</g>
<g id="#919191ff">
<path fill="#919191" opacity="1.00" d=" M 239.32 406.23 C 240.47 406.20 241.63 406.18 242.78 406.17 C 244.78 414.25 247.26 422.78 246.08 431.10 C 245.55 431.15 244.48 431.25 243.95 431.30 C 241.95 428.59 242.81 425.04 242.27 421.94 C 241.36 416.69 240.31 411.47 239.32 406.23 M 240.17 406.37 C 242.09 414.45 243.19 422.66 244.16 430.89 L 245.56 430.05 C 245.83 423.27 244.24 416.67 243.00 410.06 C 242.52 408.56 242.46 406.22 240.17 406.37 Z" />
</g>
<g id="#121212ff">
<path fill="#121212" opacity="1.00" d=" M 240.17 406.37 C 242.46 406.22 242.52 408.56 243.00 410.06 C 244.24 416.67 245.83 423.27 245.56 430.05 L 244.16 430.89 C 243.19 422.66 242.09 414.45 240.17 406.37 Z" />
</g>
<g id="#575757ff">
<path fill="#575757" opacity="1.00" d=" M 88.89 448.99 C 90.16 447.71 91.36 446.38 92.61 445.08 C 92.76 447.40 91.16 449.04 89.74 450.65 C 90.36 450.70 91.60 450.81 92.22 450.86 C 91.19 451.95 90.16 453.05 89.17 454.18 C 87.75 455.25 86.32 456.30 84.87 457.33 C 84.54 454.65 85.32 452.23 88.24 451.71 C 88.46 450.80 88.68 449.89 88.89 448.99 Z" />
<path fill="#575757" opacity="1.00" d=" M 29.17 466.92 C 30.09 463.27 33.12 460.67 34.70 457.31 C 34.81 458.07 35.03 459.59 35.14 460.35 C 36.08 459.39 36.93 457.97 38.53 458.55 C 36.12 462.04 32.98 465.01 29.17 466.92 Z" />
<path fill="#575757" opacity="1.00" d=" M 139.11 474.98 C 140.69 470.76 143.57 466.41 148.11 465.08 C 146.98 467.25 144.70 468.43 143.27 470.38 C 141.98 471.99 140.92 473.87 139.11 474.98 Z" />
</g>
<g id="#858585ff">
<path fill="#858585" opacity="1.00" d=" M 201.55 475.49 C 202.61 475.48 203.66 475.48 204.72 475.49 C 204.88 479.64 204.93 483.84 204.09 487.94 C 202.51 488.93 200.86 489.83 199.07 490.41 C 198.15 485.20 199.89 480.32 201.55 475.49 M 201.25 488.21 C 203.40 485.37 203.08 481.70 202.92 478.36 C 200.90 481.27 200.67 484.80 201.25 488.21 Z" />
</g>
<g id="#393939ff">
<path fill="#393939" opacity="1.00" d=" M 461.59 573.45 C 462.44 572.65 463.27 571.83 464.09 570.99 C 464.99 571.10 465.89 571.22 466.81 571.35 C 467.13 571.90 467.78 573.00 468.10 573.56 C 467.35 574.41 466.59 575.25 465.76 576.04 C 464.37 575.17 462.98 574.31 461.59 573.45 Z" />
</g>
</svg>
