<?xml version="1.0" encoding="utf-8"?>
<!-- Generator: Adobe Illustrator 15.0.2, SVG Export Plug-In . SVG Version: 6.00 Build 0)  -->
<!DOCTYPE svg PUBLIC "-//W3C//DTD SVG 1.1//EN" "http://www.w3.org/Graphics/SVG/1.1/DTD/svg11.dtd">
<svg version="1.1" id="Layer_1" xmlns="http://www.w3.org/2000/svg" xmlns:xlink="http://www.w3.org/1999/xlink" x="0px" y="0px"
	 width="120px" height="123px" viewBox="0 0 120 123" enable-background="new 0 0 120 123" xml:space="preserve">
<path fill="#FFFFFF" d="M0,0h64.2c-1.89,1.21-3.71,2.52-5.48,3.91c-3.52,0.78-6.24,3.34-9.62,4.48c-1.66,0.21-1.62,1.86-1.9,3.12
	c-0.95-0.01-1.9-0.02-2.84-0.02c-2.03,2.76-6.76,3.71-5.93,7.86c2.1-0.96,4.16-2.16,6.44-2.63c-5.2,2.55-9.08,7.05-12.89,11.28
	c-4.94,5.09-4.16,13.03-2.15,19.24c2.94,8.31,10.25,13.61,16.48,19.33c0.56,0.479,1.13,0.949,1.72,1.41
	c0.17,4.289,0.18,8.58,0.2,12.879c3.7-0.159,7.35-0.89,10.83-2.14c0.59,0.38,1.76,1.13,2.34,1.511c0.91,0.869,2.55,1.34,2.539,2.8
	c2.021,12.189,5.5,24.09,9.44,35.79c0.511,1.52,1.45,2.82,2.261,4.18H0V0 M31.86,72.13c-7.42,2.65-14.02,8.3-16.52,15.931
	c-2.43,8.93-11.25,14.149-14,22.93c-0.24,2.72-1.34,5.96,0.41,8.38c0.69-2.78-0.97-6.54,1.48-8.55c0.64,2.92,1.23,7.01,4.95,7.369
	c-0.58-1.549-1.28-3.049-2.06-4.51c-0.97-2.42-0.51-5.1,1.47-6.84c1.15,4.12,2.14,9.93,7.43,10.38c-1.51-3.97-5.33-6.939-5.37-11.42
	c0.6,0.05,1.81,0.15,2.42,0.19c3.6,0.199,4.13,5.71,8.08,5.01c-0.79-5.66-7.21-5.9-11.01-8.67c6.19-7.2,7.18-17.53,14.11-24.17
	C29.61,73,38,71.47,45.84,69.891c0.18-0.49,0.54-1.48,0.72-1.971C41.53,68.811,36.65,70.38,31.86,72.13z"/>
<path fill="#C42F23" d="M64.2,0h0.569c0.94,1.15,1.9,2.29,2.851,3.44c3.989-2.33,8.489-0.11,12.59,0.7
	c0.94-0.61,1.87-1.25,2.84-1.82C85.4,1.9,87.07,4.07,88.33,5.71c2.17,1.11,4.47,2.01,6.529,3.32c2.121,2.32,3.461,5.27,5.781,7.439
	c0.1,0.59,0.279,1.76,0.369,2.35c1.26,1.39,3.09,2.45,3.77,4.25c0.521,1.92-1.689,2.64-2.67,3.86c-1.08-0.58-2.149-1.17-3.209-1.78
	c-1.49-1.71-3.041-3.63-2.871-6.06c0-1.58-0.789-2.2-2.389-1.87c-0.391-0.84-0.781-1.67-1.19-2.51c0.01-1.02-0.101-2.32-1.32-2.64
	C87.529,9.56,83.4,8.03,78.971,8.09C78.68,8.04,78.109,7.95,77.83,7.9c-4.68-2.79-10.141,0.48-14.92-1.78
	c-0.74,0.57-1.48,1.14-2.23,1.71c-0.35,0.26-1.05,0.78-1.41,1.05c-1.38-0.69-4.14-0.11-3.47,1.92c-1.33,0.29-2.65,0.62-3.98,0.93
	c-1.41,0.05-2.55,0.99-2.8,2.39c-0.58,0.89-1.24,1.72-1.91,2.55c-0.56,0.01-1.68,0.04-2.24,0.05c-2.28,0.47-4.34,1.67-6.44,2.63
	c-0.83-4.15,3.9-5.1,5.93-7.86c0.94,0,1.89,0.01,2.84,0.02c0.28-1.26,0.24-2.91,1.9-3.12c3.38-1.14,6.1-3.7,9.62-4.48
	C60.49,2.52,62.311,1.21,64.2,0z"/>
<path fill="#FFFFFF" d="M64.77,0H120v119.52c-1.57-3.569-1.37-7.859-3.391-11.42c-10.799-5.51-23.489-6.91-33.35-14.3
	c-4.529-3.83-8.48-8.31-12.27-12.85c2.539,0.79,5.13,1.43,7.59,2.46c1.391-3.66,1.05-7.7,0.66-11.51c0.4-0.25,1.189-0.75,1.58-1
	c10.52-1.76,17.14-11.67,19.529-21.38c1.67-7.98,2.211-16.85-1.449-24.37c1.06,0.61,2.129,1.2,3.209,1.78
	c0.98-1.22,3.19-1.94,2.67-3.86c-0.68-1.8-2.51-2.86-3.77-4.25c-0.09-0.59-0.27-1.76-0.369-2.35c-2.32-2.17-3.66-5.12-5.781-7.439
	C92.8,7.72,90.5,6.82,88.33,5.71c-1.26-1.64-2.93-3.81-5.28-3.39c-0.97,0.57-1.899,1.21-2.84,1.82c-4.101-0.81-8.601-3.03-12.59-0.7
	C66.67,2.29,65.71,1.15,64.77,0z"/>
<path fill="#F4E7E7" d="M60.68,7.83c0.75-0.57,1.49-1.14,2.23-1.71c4.779,2.26,10.24-1.01,14.92,1.78
	C72.12,7.58,66.4,7.87,60.68,7.83z"/>
<path fill="#030601" d="M59.27,8.88c0.36-0.27,1.06-0.79,1.41-1.05C66.4,7.87,72.12,7.58,77.83,7.9c0.279,0.05,0.85,0.14,1.141,0.19
	c5.25,0.33,9.889,2.87,13.479,6.62c0.409,0.84,0.8,1.67,1.19,2.51c0.409,1.2,1.209,1.83,2.389,1.87
	c-0.17,2.43,1.381,4.35,2.871,6.06c3.66,7.52,3.119,16.39,1.449,24.37c-2.39,9.71-9.01,19.621-19.529,21.38
	c-1.68-1.49-3.86-0.82-5.78-0.351c-2.39,0.12-4.78,0.11-7.16,0.24c-0.29,0.5-0.88,1.479-1.17,1.97c-0.59-0.01-1.78-0.02-2.37-0.029
	c-0.26,0.33-0.779,0.979-1.04,1.31l-0.819-1.08c-3.09-3.42-8.351-3.42-11.46-6.979c4.15-1.42,8.28-2.891,12.46-4.21
	c0.35,2.121,0.729,4.24,1.06,6.36c6.92,1.681,14.681,2.46,21.01-1.489C97.48,60.04,101.07,44.76,99.04,32.13
	c-2.56,0.63-5.13,1.2-7.75,1.48c1.681,2.14,2.94,4.57,3.69,7.2c-1.131-0.08-2.25-0.19-3.371-0.31c-2.1-2.09-1.659-5.99-4.639-7.3
	c-2.931-1.44-5.771-3.05-8.73-4.44c-7.43-1.66-15.061-0.22-22.57-0.12c-2.64-3.83-8.93-5.19-8.51-10.78
	c-6.92,3.11-11.88,9.27-16.03,15.41c-2.17,8.03,0.98,16.96,6.79,22.74c3.63,3.54,7.48,6.92,11.92,9.42
	c-1.2,0.29-2.39,0.66-3.53,1.141c-6.23-5.72-13.54-11.021-16.48-19.33c-2.01-6.21-2.79-14.15,2.15-19.24
	c3.81-4.23,7.69-8.73,12.89-11.28c0.56-0.01,1.68-0.04,2.24-0.05c0.67-0.83,1.33-1.66,1.91-2.55c1.42,0.34,3.07-0.85,2.8-2.39
	c1.33-0.31,2.65-0.64,3.98-0.93C57.19,10.92,59.34,10.76,59.27,8.88 M71.439,11.45c-1.75-0.53-3.52-1.02-5.33-1.3
	c1.75,1.48,3.931,2.44,6.261,2.15c-0.12,2.95,3.67,2.99,5.46,4.38c-0.33,0.13-1,0.38-1.34,0.51c0.01,1.67,0,3.35,0.01,5.02
	c-1.391,1.2-2.84,2.34-4.4,3.31c2.26,0.34,4.51,0.79,6.75,1.3c-0.64-3.41-0.879-6.89-0.449-10.34l1.92-0.68
	c0.66,3.86,0.959,7.8,2.3,11.51c2.63,1.44,5.409,2.7,8.43,3.03c2.931-0.06,7.89-0.63,6.53-4.81c-6.51,3.32-16.51-0.28-16.51-8.41
	c0.979,0.13,2.949,0.38,3.93,0.51c2.41,1.5,5.189,2.17,7.891,2.92c-0.5-1.14-0.781-3.02-2.141-3.33c-0.96-1.53-2.48-2.42-4.061-3.18
	l-0.02-0.8c-3.811-3.15-9.12-2.74-13.59-4.33C72.52,9.75,71.98,10.6,71.439,11.45 M53.88,14.44c4.38,0.14,8.78,0.2,13.17,0.08
	C62.68,14.39,58.18,13.08,53.88,14.44 M52.81,16.75c2.9,2.78,7.32,3.47,11.161,2.74c1.529,0.08,1.77-1.5,2.239-2.6
	C61.77,16.12,57.27,16.75,52.81,16.75 M63.02,21.61c-4.47,0.26-8.54-1.84-12.89-2.45c1.45,1.45,2.87,2.94,4.51,4.16
	c5.75,2.23,12.95,2.14,17.84-2c1.209-0.98,0.819-2.67,1.16-4.02C71.12,20.49,66.939,21.68,63.02,21.61 M83.939,20.07
	c0.73,2.6,3.261,3.47,5.65,3.93c-0.25-0.89-0.49-1.77-0.74-2.66C87.25,20.77,85.59,20.45,83.939,20.07 M54.88,67.03
	c2,1,4.2,1.47,6.38,1.92c0.34-1.29,0.5-2.57-0.46-3.67C58.7,64.92,56.73,66.21,54.88,67.03z"/>
<path fill="#F4E7E7" d="M78.971,8.09c4.43-0.06,8.559,1.47,12.159,3.98c1.22,0.32,1.33,1.62,1.32,2.64
	C88.859,10.96,84.221,8.42,78.971,8.09z"/>
<path fill="#F4E7E7" d="M55.8,10.8c-0.67-2.03,2.09-2.61,3.47-1.92C59.34,10.76,57.19,10.92,55.8,10.8z"/>
<path fill="#F4E7E7" d="M71.439,11.45c0.541-0.85,1.08-1.7,1.641-2.54c4.47,1.59,9.779,1.18,13.59,4.33l0.02,0.8
	c-4.869,0.4-9.42-2.26-14.319-1.74c-2.33,0.29-4.511-0.67-6.261-2.15C67.92,10.43,69.689,10.92,71.439,11.45z"/>
<path fill="#B3625D" d="M49.02,14.12c0.25-1.4,1.39-2.34,2.8-2.39C52.09,13.27,50.44,14.46,49.02,14.12z"/>
<path fill="#E9EBE8" d="M53.88,14.44c4.3-1.36,8.8-0.05,13.17,0.08C62.66,14.64,58.26,14.58,53.88,14.44z"/>
<path fill="#763B05" d="M72.37,12.3c4.899-0.52,9.45,2.14,14.319,1.74c1.58,0.76,3.101,1.65,4.061,3.18
	c-1.92,0.16-3.82,0.48-5.75,0.41c-0.98-0.13-2.95-0.38-3.93-0.51c-0.19-0.33-0.561-0.99-0.75-1.32l-1.92,0.68
	c-0.141,0.05-0.42,0.15-0.57,0.2C76.04,15.29,72.25,15.25,72.37,12.3z"/>
<path fill="#E9EBE8" d="M77.83,16.68c0.15-0.05,0.43-0.15,0.57-0.2c-0.43,3.45-0.19,6.93,0.449,10.34c-2.24-0.51-4.49-0.96-6.75-1.3
	c1.561-0.97,3.01-2.11,4.4-3.31c-0.01-1.67,0-3.35-0.01-5.02C76.83,17.06,77.5,16.81,77.83,16.68z"/>
<path fill="#F8FAF7" d="M80.32,15.8c0.189,0.33,0.56,0.99,0.75,1.32c0,8.13,10,11.73,16.51,8.41c1.359,4.18-3.6,4.75-6.53,4.81
	c-3.021-0.33-5.8-1.59-8.43-3.03C81.279,23.6,80.98,19.66,80.32,15.8z"/>
<path fill="#FEFFFC" d="M52.81,16.75c4.46,0,8.959-0.63,13.4,0.14c-0.47,1.1-0.71,2.68-2.239,2.6
	C60.13,20.22,55.71,19.53,52.81,16.75z"/>
<path fill="#FEFFFC" d="M63.02,21.61c3.92,0.07,8.101-1.12,10.621-4.31c-0.341,1.35,0.049,3.04-1.16,4.02
	c-4.891,4.14-12.09,4.23-17.84,2c-1.64-1.22-3.06-2.71-4.51-4.16C54.48,19.77,58.55,21.87,63.02,21.61z"/>
<path fill="#F8FAF7" d="M85,17.63c1.93,0.07,3.83-0.25,5.75-0.41c1.359,0.311,1.641,2.19,2.141,3.33
	C90.189,19.8,87.41,19.13,85,17.63z"/>
<path fill="#B66761" d="M93.641,17.22c1.6-0.33,2.389,0.29,2.389,1.87C94.85,19.05,94.05,18.42,93.641,17.22z"/>
<path fill="#FEFFFC" d="M31.13,33.27c4.15-6.14,9.11-12.3,16.03-15.41c-0.42,5.59,5.87,6.95,8.51,10.78
	c7.51-0.1,15.141-1.54,22.57,0.12c2.96,1.39,5.8,3,8.73,4.44c2.979,1.31,2.539,5.21,4.639,7.3c1.121,0.12,2.24,0.23,3.371,0.31
	c-0.75-2.63-2.01-5.06-3.69-7.2c2.62-0.28,5.19-0.85,7.75-1.48c2.03,12.63-1.56,27.91-13.49,34.511
	c-6.329,3.949-14.09,3.17-21.01,1.489c-0.33-2.12-0.71-4.239-1.06-6.36c-4.181,1.32-8.311,2.791-12.46,4.21
	c3.11,3.56,8.37,3.56,11.46,6.979c-0.51,0.38-1.541,1.14-2.05,1.521c-2.87-2.09-5.15-5.371-8.78-6.131
	c-0.27-0.619-0.81-1.84-1.08-2.459l-1.77,0.56c-0.2,0.38-0.58,1.149-0.77,1.53c-0.59-0.461-1.16-0.931-1.72-1.41
	c1.14-0.48,2.33-0.851,3.53-1.141c-4.44-2.5-8.29-5.88-11.92-9.42C32.11,50.23,28.96,41.3,31.13,33.27 M49.55,27.55
	c0.06,1.55,0.11,3.11,0.14,4.67c1.05,0.05,2.1,0.09,3.15,0.13c-0.57-1.64-1.11-3.28-1.51-4.97C50.88,27.42,49.99,27.51,49.55,27.55
	 M68.99,30.67c5.199,2.56,10.98,4.28,16.83,4.02C81.189,31,74.77,29.97,68.99,30.67z"/>
<path fill="#FEFFFC" d="M83.939,20.07c1.65,0.38,3.311,0.7,4.91,1.27c0.25,0.89,0.49,1.77,0.74,2.66
	C87.2,23.54,84.67,22.67,83.939,20.07z"/>
<path fill="#030601" d="M49.55,27.55c0.44-0.04,1.33-0.13,1.78-0.17c0.4,1.69,0.94,3.33,1.51,4.97c-1.05-0.04-2.1-0.08-3.15-0.13
	C49.66,30.66,49.61,29.1,49.55,27.55z"/>
<path fill="#030601" d="M68.99,30.67c5.779-0.7,12.199,0.33,16.83,4.02C79.971,34.95,74.189,33.23,68.99,30.67z"/>
<path fill="#FEFFFC" d="M54.88,67.03c1.85-0.82,3.82-2.11,5.92-1.75c0.96,1.1,0.8,2.38,0.46,3.67
	C59.08,68.5,56.88,68.03,54.88,67.03z"/>
<path fill="#55D773" d="M48.8,66.45l1.77-0.56c0.27,0.619,0.81,1.84,1.08,2.459c3.63,0.76,5.91,4.041,8.78,6.131
	c-0.22,0.149-0.64,0.43-0.86,0.569c-0.49,0.03-1.47,0.101-1.96,0.13c-2.3-1.8-4.63-3.55-7.07-5.149c-0.85,2.77-1.44,5.64-0.71,8.5
	c0.71-0.101,2.14-0.29,2.85-0.38c2.18-0.23,4.36-0.311,6.54-0.45l-0.16,1.02c-3.48,1.25-7.13,1.98-10.83,2.14
	c-0.02-4.299-0.03-8.59-0.2-12.879C48.22,67.6,48.6,66.83,48.8,66.45z"/>
<path fill="#030601" d="M31.86,72.13c4.79-1.75,9.67-3.319,14.7-4.21c-0.18,0.49-0.54,1.48-0.72,1.971
	C38,71.47,29.61,73,23.25,78.16c-6.93,6.64-7.92,16.97-14.11,24.17c3.8,2.77,10.22,3.01,11.01,8.67c-3.95,0.7-4.48-4.811-8.08-5.01
	c-0.61-0.04-1.82-0.141-2.42-0.19c0.04,4.48,3.86,7.45,5.37,11.42c-5.29-0.45-6.28-6.26-7.43-10.38c-1.98,1.74-2.44,4.42-1.47,6.84
	c0.78,1.461,1.48,2.961,2.06,4.51c-3.72-0.359-4.31-4.449-4.95-7.369c-2.45,2.01-0.79,5.77-1.48,8.55
	c-1.75-2.42-0.65-5.66-0.41-8.38c2.75-8.78,11.57-14,14-22.93C17.84,80.43,24.44,74.78,31.86,72.13z"/>
<path fill="#3CCC7F" d="M75.04,70.55c1.92-0.47,4.101-1.14,5.78,0.351c-0.391,0.25-1.18,0.75-1.58,1
	c-0.73,0.49-1.461,0.959-2.211,1.41c-2.689,0.879-5.35,1.899-7.719,3.449c1.52,0.98,3.039,1.971,4.629,2.86
	c0.311,0.16,0.92,0.479,1.23,0.64c0.75,0.01,2.24,0.04,2.98,0.051c0.109,0.77,0.32,2.319,0.43,3.1c-2.46-1.03-5.051-1.67-7.59-2.46
	c-0.73-0.591-1.51-1.12-2.27-1.67l-0.841-0.64c-0.11-1.261-0.21-2.531-0.3-3.791C70.391,74.03,72.77,72.33,75.04,70.55z"/>
<path fill="#ECBBC5" d="M49.83,78.53c-0.73-2.86-0.14-5.73,0.71-8.5c2.44,1.6,4.77,3.35,7.07,5.149c-0.83,0.5-1.65,1-2.46,1.5
	c-0.76-0.55-1.52-1.09-2.28-1.64C51.88,76.22,50.86,77.38,49.83,78.53z"/>
<path fill="#A55992" d="M66.71,72.76c0.29-0.49,0.88-1.47,1.17-1.97c-0.229,1.351-0.45,2.7-0.601,4.06
	c-2.229-0.08-4.459-0.199-6.689-0.27c0.27,1.99,0.52,4.01,1.79,5.66c-0.25,0-0.729-0.01-0.979-0.01
	c-0.58-0.381-1.75-1.131-2.34-1.511l0.16-1.02c0.09-0.66,0.26-1.99,0.35-2.65c0.22-0.14,0.64-0.42,0.86-0.569
	c0.509-0.381,1.541-1.141,2.05-1.521l0.819,1.08c0.261-0.33,0.78-0.979,1.04-1.31C64.93,72.74,66.12,72.75,66.71,72.76z"/>
<path fill="#DAF0E0" d="M67.88,70.79c2.38-0.13,4.771-0.12,7.16-0.24c-2.271,1.78-4.649,3.48-7.46,4.3h-0.301
	C67.43,73.49,67.65,72.141,67.88,70.79z"/>
<path fill="#96DEAE" d="M77.029,73.311c0.75-0.451,1.48-0.92,2.211-1.41c0.39,3.81,0.73,7.85-0.66,11.51
	c-0.109-0.78-0.32-2.33-0.43-3.1c-0.74-0.011-2.23-0.041-2.98-0.051c-0.311-0.16-0.92-0.479-1.23-0.64
	C76.8,78.9,76.46,75.57,77.029,73.311z"/>
<path fill="#F6CDBC" d="M69.311,76.76c2.369-1.55,5.029-2.57,7.719-3.449c-0.569,2.26-0.229,5.59-3.09,6.31
	C72.35,78.73,70.83,77.74,69.311,76.76z"/>
<path fill="#EDDADD" d="M49.83,78.53c1.03-1.15,2.05-2.311,3.04-3.49c0.76,0.55,1.52,1.09,2.28,1.64
	c-0.62,0.37-1.85,1.101-2.47,1.471C51.97,78.24,50.54,78.43,49.83,78.53z"/>
<path fill="#B3F0B9" d="M57.61,75.18c0.49-0.029,1.47-0.1,1.96-0.13c-0.09,0.66-0.26,1.99-0.35,2.65c-2.18,0.14-4.36,0.22-6.54,0.45
	c0.62-0.37,1.85-1.101,2.47-1.471C55.96,76.18,56.78,75.68,57.61,75.18z"/>
<path fill="#ED0EBE" d="M60.59,74.58c2.23,0.07,4.46,0.189,6.689,0.27h0.301c0.09,1.26,0.189,2.53,0.3,3.791
	C67.51,78.96,66.77,79.6,66.4,79.92c-1.311,0.391-2.65,0.5-4.021,0.32C61.109,78.59,60.859,76.57,60.59,74.58z"/>
<path fill="#FFFFFF" d="M66.4,79.92c0.369-0.32,1.109-0.96,1.479-1.279l0.841,0.64c4.059,7.03,9.659,13,15.85,18.18
	c8.33,5.24,18.59,6.21,26.84,11.649c-0.6,2.86-2.58,6.5,0.189,8.841c0.5-2.56,0.95-5.13,1.621-7.66
	c0.299,0.28,0.889,0.851,1.189,1.14c-0.17,2.26-1.46,4.68-0.45,6.851c1.62,0.93,1.8-2.3,2.771-3.11c0.42,2.08,0.609,4.76,3.27,5.03
	v2.8H76.65c-3.03-14.189-9.43-27.5-11.721-41.9C65.29,80.811,66.029,80.22,66.4,79.92z"/>
<path fill="#030601" d="M68.721,79.28c0.76,0.55,1.539,1.079,2.27,1.67c3.789,4.54,7.74,9.02,12.27,12.85
	c9.86,7.39,22.551,8.79,33.35,14.3c2.021,3.561,1.82,7.851,3.391,11.42v0.681c-2.66-0.271-2.85-2.95-3.27-5.03
	c-0.971,0.811-1.15,4.04-2.771,3.11c-1.01-2.171,0.28-4.591,0.45-6.851c-0.301-0.289-0.891-0.859-1.189-1.14
	c-0.671,2.53-1.121,5.101-1.621,7.66c-2.77-2.341-0.789-5.98-0.189-8.841c-8.25-5.439-18.51-6.409-26.84-11.649
	C78.38,92.28,72.779,86.311,68.721,79.28z"/>
<path fill="#030601" d="M61.4,80.23c0.25,0,0.729,0.01,0.979,0.01c1.37,0.18,2.71,0.07,4.021-0.32c-0.371,0.3-1.11,0.891-1.471,1.18
	c2.291,14.4,8.69,27.711,11.721,41.9h-1.01c-0.811-1.359-1.75-2.66-2.261-4.18c-3.94-11.7-7.42-23.601-9.44-35.79
	C63.95,81.57,62.311,81.1,61.4,80.23z"/>
</svg>
