<?xml version="1.0" encoding="UTF-8" ?>
<!DOCTYPE svg PUBLIC "-//W3C//DTD SVG 1.1//EN" "http://www.w3.org/Graphics/SVG/1.1/DTD/svg11.dtd">
<svg width="1099pt" height="1160pt" viewBox="0 0 1099 1160" version="1.1" xmlns="http://www.w3.org/2000/svg">
<path fill="#ffffff" opacity="1.00" d=" M 0.00 0.00 L 1099.00 0.00 L 1099.00 1160.00 L 0.00 1160.00 L 0.00 0.00 M 526.33 16.95 C 527.92 25.68 535.45 31.64 542.96 35.40 C 517.76 51.11 490.97 63.97 464.69 77.72 C 418.41 102.33 373.61 131.12 336.93 168.93 C 312.94 193.29 292.81 221.29 276.11 251.08 C 274.64 253.82 272.61 256.45 272.51 259.69 C 268.96 290.33 264.12 321.02 264.83 351.96 C 265.39 379.95 273.54 407.30 285.60 432.40 C 300.93 463.97 322.18 492.37 346.14 517.89 C 372.55 545.50 402.03 570.47 435.05 589.84 C 427.37 601.52 416.11 610.58 403.41 616.30 C 381.45 626.41 356.95 628.10 334.00 635.05 C 305.69 643.87 277.49 653.54 251.00 667.00 C 220.52 682.25 192.29 703.60 173.27 732.23 C 168.13 740.16 162.36 748.20 160.87 757.76 C 158.22 772.09 158.61 787.38 151.65 800.59 C 144.18 814.29 130.41 823.21 123.00 836.98 C 112.33 856.76 105.37 878.21 97.21 899.08 C 91.52 913.80 85.48 928.54 76.69 941.74 C 60.33 967.58 38.30 989.28 22.23 1015.30 C 13.58 1029.46 7.38 1045.35 5.92 1061.97 C 4.19 1081.23 7.90 1100.70 14.63 1118.72 C 17.61 1118.03 20.87 1117.38 23.05 1115.03 C 26.57 1111.32 27.46 1106.00 27.87 1101.10 C 28.75 1086.68 25.70 1072.37 26.03 1057.96 C 26.23 1051.59 27.31 1044.61 32.33 1040.13 C 43.19 1057.70 46.00 1079.11 57.76 1096.22 C 63.17 1104.11 71.40 1110.04 80.81 1112.06 C 83.11 1101.48 80.34 1090.62 76.19 1080.87 C 69.78 1065.53 60.70 1050.90 58.62 1034.11 C 56.73 1020.28 61.00 1006.21 68.67 994.73 C 84.75 1020.08 88.92 1051.17 106.07 1075.96 C 114.14 1087.81 126.75 1096.54 140.97 1099.04 C 141.98 1087.13 137.23 1075.75 131.47 1065.61 C 123.71 1051.92 114.23 1039.28 106.55 1025.53 C 99.96 1013.88 94.60 1001.30 92.83 987.94 C 105.25 985.35 118.94 985.28 130.20 991.84 C 143.48 999.29 151.05 1013.03 161.02 1023.98 C 168.21 1032.28 177.98 1038.62 188.97 1040.27 C 189.83 1031.67 188.21 1022.96 185.23 1014.90 C 177.85 995.28 161.62 979.41 142.14 971.82 C 126.57 965.59 109.25 964.96 92.89 968.03 C 95.59 947.79 101.90 927.91 112.38 910.34 C 120.69 896.49 131.30 884.07 143.49 873.50 C 145.11 872.03 147.13 870.74 147.58 868.44 C 163.12 819.23 183.46 771.16 212.01 728.00 C 219.93 716.41 227.93 704.75 237.37 694.35 C 311.71 665.22 390.52 648.73 463.83 616.77 C 465.73 615.70 467.80 616.78 469.71 617.20 C 504.08 626.40 538.56 635.26 573.46 642.17 C 577.44 728.07 592.12 813.21 613.47 896.43 C 635.65 984.23 664.70 1070.10 687.57 1157.72 C 695.72 1157.79 703.87 1157.72 712.02 1157.76 C 696.59 1105.95 680.67 1054.29 665.83 1002.31 C 634.58 893.38 608.92 782.40 597.98 669.44 C 611.66 691.90 625.54 714.24 639.46 736.56 C 642.66 742.00 646.52 747.16 648.58 753.20 C 651.31 760.73 652.74 768.69 655.84 776.09 C 657.47 780.20 661.07 783.06 664.76 785.26 C 672.88 790.07 682.36 792.97 688.95 800.06 C 712.53 823.82 730.64 852.24 752.40 877.58 C 762.49 889.48 773.51 900.72 786.36 909.67 C 820.90 934.46 861.11 949.52 901.08 963.07 C 942.39 977.02 984.30 989.60 1024.15 1007.50 C 1020.93 1022.45 1014.24 1036.34 1010.06 1051.02 C 1006.91 1061.72 1004.37 1072.97 1005.77 1084.19 C 1006.80 1092.52 1011.13 1100.57 1018.12 1105.37 C 1023.19 1104.05 1026.62 1099.21 1028.36 1094.50 C 1032.22 1083.78 1031.66 1072.19 1032.24 1060.98 C 1032.70 1051.80 1032.75 1042.23 1036.51 1033.67 C 1043.41 1042.08 1043.29 1053.65 1043.17 1063.95 C 1042.71 1079.98 1040.23 1096.05 1042.21 1112.06 C 1047.32 1113.09 1053.73 1112.56 1056.68 1107.61 C 1061.98 1098.92 1060.23 1087.59 1066.32 1079.21 C 1070.52 1083.18 1071.93 1088.99 1073.21 1094.42 C 1075.11 1102.58 1075.90 1111.07 1079.08 1118.89 C 1080.29 1121.65 1082.58 1124.85 1085.99 1124.52 C 1090.18 1124.41 1093.27 1121.17 1096.44 1118.85 C 1096.48 1109.89 1096.64 1100.92 1096.39 1091.97 C 1094.94 1085.99 1092.52 1080.30 1090.63 1074.46 C 1082.69 1052.69 1074.88 1030.56 1072.55 1007.36 C 1035.85 990.01 997.99 975.30 960.18 960.61 C 920.33 945.01 880.27 929.55 842.40 909.49 C 811.12 892.94 781.36 872.83 756.82 847.16 C 747.68 837.32 737.76 828.16 729.53 817.50 C 722.98 808.32 723.48 796.30 718.59 786.44 C 693.86 756.33 663.13 731.34 641.12 698.94 C 629.29 681.74 620.60 662.38 615.81 642.06 C 629.53 641.93 643.27 641.39 656.99 641.98 C 690.02 641.97 723.44 644.45 756.11 638.17 C 772.10 635.24 787.20 628.59 800.76 619.72 C 835.78 597.16 862.33 563.64 882.79 527.80 C 900.92 495.77 914.28 461.15 923.42 425.53 C 933.87 384.29 938.73 341.57 937.17 299.04 C 936.28 278.93 934.64 258.72 929.85 239.11 C 925.44 221.25 918.87 203.94 910.44 187.60 C 893.20 153.25 868.34 123.65 844.35 93.92 C 844.93 90.23 848.74 88.11 852.05 87.13 C 857.30 85.40 863.83 85.33 867.47 80.55 C 870.25 76.33 869.22 70.78 867.66 66.29 C 865.53 61.18 859.18 60.51 854.42 61.58 C 845.99 63.55 838.28 68.13 831.94 73.95 C 824.89 66.00 817.03 58.78 808.45 52.51 C 778.46 30.45 741.62 19.63 704.97 15.65 C 658.99 10.97 612.24 15.98 567.82 28.44 C 561.53 19.81 551.59 15.34 543.47 8.81 C 543.49 6.72 543.49 4.62 543.50 2.52 C 539.33 2.48 535.17 2.47 531.01 2.55 C 527.69 6.50 525.13 11.66 526.33 16.95 Z" />
<path fill="#000000" opacity="1.00" d=" M 526.33 16.95 C 525.13 11.66 527.69 6.50 531.01 2.55 C 535.17 2.47 539.33 2.48 543.50 2.52 C 543.49 4.62 543.49 6.72 543.47 8.81 C 551.59 15.34 561.53 19.81 567.82 28.44 C 612.24 15.98 658.99 10.97 704.97 15.65 C 741.62 19.63 778.46 30.45 808.45 52.51 C 817.03 58.78 824.89 66.00 831.94 73.95 C 838.28 68.13 845.99 63.55 854.42 61.58 C 859.18 60.51 865.53 61.18 867.66 66.29 C 869.22 70.78 870.25 76.33 867.47 80.55 C 863.83 85.33 857.30 85.40 852.05 87.13 C 848.74 88.11 844.93 90.23 844.35 93.92 C 868.34 123.65 893.20 153.25 910.44 187.60 C 918.87 203.94 925.44 221.25 929.85 239.11 C 934.64 258.72 936.28 278.93 937.17 299.04 C 938.73 341.57 933.87 384.29 923.42 425.53 C 914.28 461.15 900.92 495.77 882.79 527.80 C 862.33 563.64 835.78 597.16 800.76 619.72 C 787.20 628.59 772.10 635.24 756.11 638.17 C 723.44 644.45 690.02 641.97 656.99 641.98 C 643.27 641.39 629.53 641.93 615.81 642.06 C 620.60 662.38 629.29 681.74 641.12 698.94 C 663.13 731.34 693.86 756.33 718.59 786.44 C 723.48 796.30 722.98 808.32 729.53 817.50 C 737.76 828.16 747.68 837.32 756.82 847.16 C 781.36 872.83 811.12 892.94 842.40 909.49 C 880.27 929.55 920.33 945.01 960.18 960.61 C 997.99 975.30 1035.85 990.01 1072.55 1007.36 C 1074.88 1030.56 1082.69 1052.69 1090.63 1074.46 C 1092.52 1080.30 1094.94 1085.99 1096.39 1091.97 C 1096.64 1100.92 1096.48 1109.89 1096.44 1118.85 C 1093.27 1121.17 1090.18 1124.41 1085.99 1124.52 C 1082.58 1124.85 1080.29 1121.65 1079.08 1118.89 C 1075.90 1111.07 1075.11 1102.58 1073.21 1094.42 C 1071.93 1088.99 1070.52 1083.18 1066.32 1079.21 C 1060.23 1087.59 1061.98 1098.92 1056.68 1107.61 C 1053.73 1112.56 1047.32 1113.09 1042.21 1112.06 C 1040.23 1096.05 1042.71 1079.98 1043.17 1063.95 C 1043.29 1053.65 1043.41 1042.08 1036.51 1033.67 C 1032.75 1042.23 1032.70 1051.80 1032.24 1060.98 C 1031.66 1072.19 1032.22 1083.78 1028.36 1094.50 C 1026.62 1099.21 1023.19 1104.05 1018.12 1105.37 C 1011.13 1100.57 1006.80 1092.52 1005.77 1084.19 C 1004.37 1072.97 1006.91 1061.72 1010.06 1051.02 C 1014.24 1036.34 1020.93 1022.45 1024.15 1007.50 C 984.30 989.60 942.39 977.02 901.08 963.07 C 861.11 949.52 820.90 934.46 786.36 909.67 C 773.51 900.72 762.49 889.48 752.40 877.58 C 730.64 852.24 712.53 823.82 688.95 800.06 C 682.36 792.97 672.88 790.07 664.76 785.26 C 661.07 783.06 657.47 780.20 655.84 776.09 C 652.74 768.69 651.31 760.73 648.58 753.20 C 646.52 747.16 642.66 742.00 639.46 736.56 C 625.54 714.24 611.66 691.90 597.98 669.44 C 608.92 782.40 634.58 893.38 665.83 1002.31 C 680.67 1054.29 696.59 1105.95 712.02 1157.76 C 703.87 1157.72 695.72 1157.79 687.57 1157.72 C 664.70 1070.10 635.65 984.23 613.47 896.43 C 592.12 813.21 577.44 728.07 573.46 642.17 C 538.56 635.26 504.08 626.40 469.71 617.20 C 467.80 616.78 465.73 615.70 463.83 616.77 C 390.52 648.73 311.71 665.22 237.37 694.35 C 227.93 704.75 219.93 716.41 212.01 728.00 C 183.46 771.16 163.12 819.23 147.58 868.44 C 147.13 870.74 145.11 872.03 143.49 873.50 C 131.30 884.07 120.69 896.49 112.38 910.34 C 101.90 927.91 95.59 947.79 92.89 968.03 C 109.25 964.96 126.57 965.59 142.14 971.82 C 161.62 979.41 177.85 995.28 185.23 1014.90 C 188.21 1022.96 189.83 1031.67 188.97 1040.27 C 177.98 1038.62 168.21 1032.28 161.02 1023.98 C 151.05 1013.03 143.48 999.29 130.20 991.84 C 118.94 985.28 105.25 985.35 92.83 987.94 C 94.60 1001.30 99.96 1013.88 106.55 1025.53 C 114.23 1039.28 123.71 1051.92 131.47 1065.61 C 137.23 1075.75 141.98 1087.13 140.97 1099.04 C 126.75 1096.54 114.14 1087.81 106.07 1075.96 C 88.92 1051.17 84.75 1020.08 68.67 994.73 C 61.00 1006.21 56.73 1020.28 58.62 1034.11 C 60.70 1050.90 69.78 1065.53 76.19 1080.87 C 80.34 1090.62 83.11 1101.48 80.81 1112.06 C 71.40 1110.04 63.17 1104.11 57.76 1096.22 C 46.00 1079.11 43.19 1057.70 32.33 1040.13 C 27.31 1044.61 26.23 1051.59 26.03 1057.96 C 25.70 1072.37 28.75 1086.68 27.87 1101.10 C 27.46 1106.00 26.57 1111.32 23.05 1115.03 C 20.87 1117.38 17.61 1118.03 14.63 1118.72 C 7.90 1100.70 4.19 1081.23 5.92 1061.97 C 7.38 1045.35 13.58 1029.46 22.23 1015.30 C 38.30 989.28 60.33 967.58 76.69 941.74 C 85.48 928.54 91.52 913.80 97.21 899.08 C 105.37 878.21 112.33 856.76 123.00 836.98 C 130.41 823.21 144.18 814.29 151.65 800.59 C 158.61 787.38 158.22 772.09 160.87 757.76 C 162.36 748.20 168.13 740.16 173.27 732.23 C 192.29 703.60 220.52 682.25 251.00 667.00 C 277.49 653.54 305.69 643.87 334.00 635.05 C 356.95 628.10 381.45 626.41 403.41 616.30 C 416.11 610.58 427.37 601.52 435.05 589.84 C 402.03 570.47 372.55 545.50 346.14 517.89 C 322.18 492.37 300.93 463.97 285.60 432.40 C 273.54 407.30 265.39 379.95 264.83 351.96 C 264.12 321.02 268.96 290.33 272.51 259.69 C 272.61 256.45 274.64 253.82 276.11 251.08 C 292.81 221.29 312.94 193.29 336.93 168.93 C 373.61 131.12 418.41 102.33 464.69 77.72 C 490.97 63.97 517.76 51.11 542.96 35.40 C 535.45 31.64 527.92 25.68 526.33 16.95 M 663.50 35.02 C 665.53 38.57 668.08 42.04 668.70 46.18 C 669.06 48.54 666.97 50.34 664.79 50.56 C 657.51 51.41 650.29 49.56 643.03 49.39 C 637.38 49.10 630.65 49.63 627.18 54.78 C 643.89 54.85 658.98 62.88 673.18 70.84 C 682.17 75.43 691.51 81.12 701.92 80.87 C 711.54 77.56 718.20 68.65 728.09 65.85 C 731.61 64.68 735.60 66.36 737.54 69.44 C 739.71 72.86 741.20 76.85 741.50 80.90 C 735.58 88.42 729.14 95.61 721.86 101.84 C 715.36 107.15 707.48 112.23 698.72 111.53 C 691.45 110.98 685.83 105.66 681.61 100.16 C 678.90 112.59 671.65 123.82 661.84 131.83 C 648.77 142.66 632.40 148.65 615.95 152.08 C 589.47 157.39 562.03 156.56 535.56 151.64 C 515.29 147.74 495.23 141.33 477.54 130.50 C 467.87 124.50 459.05 116.72 453.30 106.79 C 431.27 123.46 407.97 138.37 385.74 154.76 C 360.52 173.44 335.78 194.07 318.94 220.94 C 307.84 239.02 299.38 258.67 293.14 278.93 C 284.68 306.99 280.07 337.04 285.72 366.12 C 290.93 393.20 302.50 418.68 316.97 442.03 C 336.21 472.84 360.50 500.25 387.16 524.81 C 414.03 549.30 443.37 571.22 475.19 588.86 C 476.19 589.36 477.30 590.31 478.36 589.32 C 509.95 569.57 548.89 565.76 579.71 544.48 C 593.22 566.17 591.74 593.33 603.34 615.82 C 605.78 616.49 608.36 616.41 610.87 616.69 C 639.87 618.97 669.06 619.74 698.06 617.19 C 728.99 614.39 760.26 607.82 787.63 592.61 C 803.46 583.75 817.37 571.90 830.43 559.42 C 853.18 536.91 872.13 510.32 884.60 480.77 C 889.74 468.84 893.28 456.31 896.55 443.77 C 907.26 402.10 912.99 359.05 912.26 316.00 C 911.36 275.61 904.66 234.46 886.18 198.14 C 859.40 206.71 829.35 208.30 803.07 197.12 C 785.00 189.67 769.61 176.22 759.35 159.63 C 748.34 141.93 742.85 121.14 742.01 100.41 C 752.47 94.98 764.07 92.17 774.41 86.49 C 781.81 82.53 787.88 75.87 790.12 67.68 C 770.60 57.34 749.41 50.57 728.12 44.91 C 706.99 39.60 685.40 34.83 663.50 35.02 M 556.42 61.61 C 537.92 63.64 520.70 73.33 508.29 87.02 C 533.18 84.99 558.09 87.91 582.99 88.26 C 599.84 88.31 617.55 88.29 633.08 80.89 C 625.06 76.60 616.62 73.13 608.14 69.86 C 591.69 63.80 574.03 59.51 556.42 61.61 M 798.85 105.84 C 792.31 108.20 786.67 113.07 784.04 119.58 C 789.16 119.04 794.41 119.12 799.36 120.69 C 811.70 124.21 821.32 133.58 833.54 137.33 C 839.31 139.32 845.45 137.06 849.86 133.17 C 842.80 126.92 835.19 120.89 830.42 112.59 C 828.25 109.05 827.09 105.04 825.82 101.12 L 825.04 100.69 C 816.22 101.80 807.23 102.68 798.85 105.84 M 495.72 113.41 C 502.96 118.36 511.49 120.94 519.91 123.09 C 531.43 125.82 543.23 127.22 555.05 127.72 C 573.37 128.08 592.37 127.36 609.42 119.95 C 603.85 112.74 594.72 109.73 586.16 107.81 C 570.73 104.58 554.81 104.53 539.14 105.69 C 524.47 106.83 509.77 108.92 495.72 113.41 M 777.72 139.35 C 776.85 150.19 784.59 159.38 793.42 164.58 C 803.21 170.33 814.69 174.36 826.18 172.95 C 824.34 171.47 821.94 170.34 821.04 168.01 C 819.22 163.04 819.94 157.67 820.03 152.51 C 814.72 152.65 809.38 152.12 804.27 150.65 C 794.93 148.10 786.76 142.68 777.72 139.35 M 549.91 583.14 C 549.88 586.96 549.69 591.70 545.81 593.72 C 536.61 598.28 525.31 592.98 516.39 598.38 C 515.18 599.38 512.37 602.12 514.80 603.19 C 531.29 610.34 548.83 616.34 567.05 615.79 C 563.76 606.87 565.17 596.78 560.87 588.21 C 558.85 584.15 554.10 582.93 549.91 583.14 Z" />
<path fill="#ffffff" opacity="1.00" d=" M 663.50 35.02 C 685.40 34.83 706.99 39.60 728.12 44.91 C 749.41 50.57 770.60 57.34 790.12 67.68 C 787.88 75.87 781.81 82.53 774.41 86.49 C 764.07 92.17 752.47 94.98 742.01 100.41 C 742.85 121.14 748.34 141.93 759.35 159.63 C 769.61 176.22 785.00 189.67 803.07 197.12 C 829.35 208.30 859.40 206.71 886.18 198.14 C 904.66 234.46 911.36 275.61 912.26 316.00 C 912.99 359.05 907.26 402.10 896.55 443.77 C 893.28 456.31 889.74 468.84 884.60 480.77 C 872.13 510.32 853.18 536.91 830.43 559.42 C 817.37 571.90 803.46 583.75 787.63 592.61 C 760.26 607.82 728.99 614.39 698.06 617.19 C 669.06 619.74 639.87 618.97 610.87 616.69 C 608.36 616.41 605.78 616.49 603.34 615.82 C 591.74 593.33 593.22 566.17 579.71 544.48 C 548.89 565.76 509.95 569.57 478.36 589.32 C 477.30 590.31 476.19 589.36 475.19 588.86 C 443.37 571.22 414.03 549.30 387.16 524.81 C 360.50 500.25 336.21 472.84 316.97 442.03 C 302.50 418.68 290.93 393.20 285.72 366.12 C 280.07 337.04 284.68 306.99 293.14 278.93 C 299.38 258.67 307.84 239.02 318.94 220.94 C 335.78 194.07 360.52 173.44 385.74 154.76 C 407.97 138.37 431.27 123.46 453.30 106.79 C 459.05 116.72 467.87 124.50 477.54 130.50 C 495.23 141.33 515.29 147.74 535.56 151.64 C 562.03 156.56 589.47 157.39 615.95 152.08 C 632.40 148.65 648.77 142.66 661.84 131.83 C 671.65 123.82 678.90 112.59 681.61 100.16 C 685.83 105.66 691.45 110.98 698.72 111.53 C 707.48 112.23 715.36 107.15 721.86 101.84 C 729.14 95.61 735.58 88.42 741.50 80.90 C 741.20 76.85 739.71 72.86 737.54 69.44 C 735.60 66.36 731.61 64.68 728.09 65.85 C 718.20 68.65 711.54 77.56 701.92 80.87 C 691.51 81.12 682.17 75.43 673.18 70.84 C 658.98 62.88 643.89 54.85 627.18 54.78 C 630.65 49.63 637.38 49.10 643.03 49.39 C 650.29 49.56 657.51 51.41 664.79 50.56 C 666.97 50.34 669.06 48.54 668.70 46.18 C 668.08 42.04 665.53 38.57 663.50 35.02 M 577.95 190.01 C 556.49 192.19 534.71 195.21 514.73 203.75 C 501.97 209.29 489.45 217.79 483.58 230.87 C 490.80 233.56 498.62 234.26 506.26 233.53 C 523.31 231.77 539.26 225.04 555.81 221.04 C 569.58 217.35 583.89 216.72 598.04 215.82 C 644.17 213.62 691.06 218.18 735.01 232.86 C 766.66 243.76 797.70 260.54 818.54 287.43 C 820.84 289.71 820.03 293.16 820.42 296.08 C 821.40 310.29 826.47 324.96 837.50 334.50 C 845.98 342.00 856.92 346.02 867.88 348.24 C 865.67 316.90 850.82 287.32 829.17 264.86 C 802.73 237.25 768.08 218.86 732.15 206.76 C 682.68 190.43 629.75 185.23 577.95 190.01 M 465.26 204.93 C 460.22 212.62 459.20 222.07 458.76 231.03 C 458.57 240.72 459.22 250.75 463.14 259.75 C 464.06 261.29 464.69 263.85 467.00 263.52 C 475.16 264.23 480.73 256.15 488.92 256.63 C 481.48 243.34 481.34 227.33 473.98 214.02 C 471.96 210.26 468.92 207.11 465.26 204.93 M 654.82 239.74 C 645.94 242.54 639.00 249.25 633.83 256.77 C 644.09 256.72 654.36 257.61 664.41 259.71 C 688.88 264.51 711.74 274.86 735.73 281.38 C 753.25 286.25 772.14 288.32 789.83 283.04 C 790.11 276.12 787.54 269.52 783.90 263.76 C 776.84 264.37 769.72 263.83 762.76 262.52 C 740.35 258.28 719.54 248.54 697.73 242.21 C 683.92 238.31 668.86 235.09 654.82 239.74 Z" />
<path fill="#ffffff" opacity="1.00" d=" M 556.42 61.61 C 574.03 59.51 591.69 63.80 608.14 69.86 C 616.62 73.13 625.06 76.60 633.08 80.89 C 617.55 88.29 599.84 88.31 582.99 88.26 C 558.09 87.91 533.18 84.99 508.29 87.02 C 520.70 73.33 537.92 63.64 556.42 61.61 Z" />
<path fill="#ffffff" opacity="1.00" d=" M 798.85 105.84 C 807.23 102.68 816.22 101.80 825.04 100.69 L 825.82 101.12 C 827.09 105.04 828.25 109.05 830.42 112.59 C 835.19 120.89 842.80 126.92 849.86 133.17 C 845.45 137.06 839.31 139.32 833.54 137.33 C 821.32 133.58 811.70 124.21 799.36 120.69 C 794.41 119.12 789.16 119.04 784.04 119.58 C 786.67 113.07 792.31 108.20 798.85 105.84 Z" />
<path fill="#ffffff" opacity="1.00" d=" M 495.72 113.41 C 509.77 108.92 524.47 106.83 539.14 105.69 C 554.81 104.53 570.73 104.58 586.16 107.81 C 594.72 109.73 603.85 112.74 609.42 119.95 C 592.37 127.36 573.37 128.08 555.05 127.72 C 543.23 127.22 531.43 125.82 519.91 123.09 C 511.49 120.94 502.96 118.36 495.72 113.41 Z" />
<path fill="#ffffff" opacity="1.00" d=" M 777.72 139.35 C 786.76 142.68 794.93 148.10 804.27 150.65 C 809.38 152.12 814.72 152.65 820.03 152.51 C 819.94 157.67 819.22 163.04 821.04 168.01 C 821.94 170.34 824.34 171.47 826.18 172.95 C 814.69 174.36 803.21 170.33 793.42 164.58 C 784.59 159.38 776.85 150.19 777.72 139.35 Z" />
<path fill="#000000" opacity="1.00" d=" M 577.95 190.01 C 629.75 185.23 682.68 190.43 732.15 206.76 C 768.08 218.86 802.73 237.25 829.17 264.86 C 850.82 287.32 865.67 316.90 867.88 348.24 C 856.92 346.02 845.98 342.00 837.50 334.50 C 826.47 324.96 821.40 310.29 820.42 296.08 C 820.03 293.16 820.84 289.71 818.54 287.43 C 797.70 260.54 766.66 243.76 735.01 232.86 C 691.06 218.18 644.17 213.62 598.04 215.82 C 583.89 216.72 569.58 217.35 555.81 221.04 C 539.26 225.04 523.31 231.77 506.26 233.53 C 498.62 234.26 490.80 233.56 483.58 230.87 C 489.45 217.79 501.97 209.29 514.73 203.75 C 534.71 195.21 556.49 192.19 577.95 190.01 Z" />
<path fill="#000000" opacity="1.00" d=" M 465.26 204.93 C 468.92 207.11 471.96 210.26 473.98 214.02 C 481.34 227.33 481.48 243.34 488.92 256.63 C 480.73 256.15 475.16 264.23 467.00 263.52 C 464.69 263.85 464.06 261.29 463.14 259.75 C 459.22 250.75 458.57 240.72 458.76 231.03 C 459.20 222.07 460.22 212.62 465.26 204.93 Z" />
<path fill="#000000" opacity="1.00" d=" M 654.82 239.74 C 668.86 235.09 683.92 238.31 697.73 242.21 C 719.54 248.54 740.35 258.28 762.76 262.52 C 769.72 263.83 776.84 264.37 783.90 263.76 C 787.54 269.52 790.11 276.12 789.83 283.04 C 772.14 288.32 753.25 286.25 735.73 281.38 C 711.74 274.86 688.88 264.51 664.41 259.71 C 654.36 257.61 644.09 256.72 633.83 256.77 C 639.00 249.25 645.94 242.54 654.82 239.74 Z" />
<path fill="#ffffff" opacity="1.00" d=" M 549.91 583.14 C 554.10 582.93 558.85 584.15 560.87 588.21 C 565.17 596.78 563.76 606.87 567.05 615.79 C 548.83 616.34 531.29 610.34 514.80 603.19 C 512.37 602.12 515.18 599.38 516.39 598.38 C 525.31 592.98 536.61 598.28 545.81 593.72 C 549.69 591.70 549.88 586.96 549.91 583.14 Z" />
</svg>
