<?xml version="1.0" encoding="UTF-8" ?>
<!DOCTYPE svg PUBLIC "-//W3C//DTD SVG 1.1//EN" "http://www.w3.org/Graphics/SVG/1.1/DTD/svg11.dtd">
<svg width="500pt" height="518pt" viewBox="0 0 500 518" version="1.1" xmlns="http://www.w3.org/2000/svg">
<g id="#ffffffff">
<path fill="#ffffff" opacity="1.00" d=" M 0.00 0.00 L 500.00 0.00 L 500.00 518.00 L 0.00 518.00 L 0.00 0.00 M 237.14 1.28 C 234.69 3.67 234.39 7.80 236.31 10.61 C 237.75 13.04 240.19 14.57 242.61 15.90 C 222.74 27.86 201.13 36.74 181.94 49.85 C 157.07 65.89 135.96 87.96 122.25 114.27 C 121.26 117.10 121.36 120.17 120.87 123.10 C 118.74 140.98 116.04 159.57 121.40 177.15 C 128.30 200.54 143.42 220.56 160.57 237.49 C 170.83 247.19 181.81 256.30 194.09 263.33 C 191.98 267.90 187.70 271.01 183.56 273.66 C 173.01 279.69 160.56 280.29 149.13 283.77 C 132.00 289.03 114.95 295.26 99.83 305.04 C 95.31 305.39 91.67 308.57 89.14 312.10 C 87.55 315.93 83.93 318.23 81.68 321.60 C 83.50 326.08 81.00 330.56 80.27 334.97 C 78.97 340.68 73.93 344.05 70.39 348.29 C 70.56 348.72 70.90 349.58 71.07 350.01 C 67.77 342.51 60.40 336.93 52.13 336.45 C 41.33 335.83 30.50 336.38 19.69 336.12 C 19.58 356.56 19.69 377.00 19.63 397.45 C 26.86 397.46 34.10 397.36 41.33 397.50 C 39.88 398.97 38.29 400.29 36.68 401.59 C 36.57 404.43 35.93 407.22 35.65 410.06 C 35.42 413.59 32.93 416.45 32.35 419.90 C 31.92 422.41 31.67 425.13 29.99 427.19 C 21.17 439.27 9.74 449.99 4.81 464.46 C 0.71 475.98 2.41 488.67 6.49 499.95 C 9.11 499.50 11.49 497.70 12.02 494.99 C 13.58 487.05 11.03 479.04 11.71 471.06 C 11.93 468.72 12.63 466.22 14.63 464.81 C 18.42 471.57 20.18 479.21 23.60 486.13 C 26.13 491.18 30.44 495.98 36.31 496.82 C 37.85 486.23 30.56 477.51 27.54 467.94 C 24.72 460.13 25.98 451.17 30.70 444.37 C 37.53 455.43 39.62 468.70 46.62 479.66 C 50.24 485.46 56.20 489.99 63.07 490.99 C 63.41 483.16 59.03 476.34 55.00 470.02 C 49.17 461.21 43.05 452.09 41.36 441.44 C 48.92 439.60 57.62 440.94 63.03 446.91 C 69.43 453.61 74.28 463.57 84.53 464.81 C 85.18 452.75 77.49 441.36 67.02 435.85 C 59.26 431.59 50.01 430.90 41.41 432.50 C 42.60 425.29 44.75 418.20 47.68 411.50 C 49.85 405.91 53.86 401.38 56.72 396.18 C 62.04 394.77 66.74 391.24 69.62 386.55 C 74.10 379.98 74.03 371.69 74.27 364.05 C 75.60 361.19 75.94 357.60 79.44 356.40 C 79.43 364.50 78.78 372.78 79.68 380.89 C 80.93 390.28 89.81 396.66 98.81 397.52 C 107.13 398.24 116.33 398.47 123.55 393.62 C 129.53 390.04 132.25 382.78 132.29 376.07 C 132.22 363.11 132.36 350.15 132.21 337.19 C 127.09 337.18 121.96 337.15 116.84 337.22 C 116.72 350.14 116.89 363.06 116.79 375.97 C 116.62 379.43 115.73 383.56 112.29 385.19 C 108.33 387.06 103.42 387.14 99.44 385.30 C 95.74 383.36 94.62 378.86 94.55 375.00 C 94.53 362.41 94.48 349.82 94.57 337.23 C 92.77 337.22 90.97 337.23 89.18 337.28 C 89.50 335.53 89.23 333.58 90.38 332.09 C 94.92 324.61 99.94 317.40 105.52 310.67 C 117.25 305.44 129.74 301.94 141.96 297.96 C 164.19 291.10 186.56 284.50 207.99 275.38 C 223.97 279.44 239.90 283.78 256.11 286.90 C 257.77 319.99 262.71 352.86 270.28 385.10 C 280.47 429.58 295.54 472.74 306.97 516.89 C 310.59 517.55 314.28 517.43 317.94 517.21 C 311.27 494.15 304.06 471.23 297.50 448.13 C 283.61 399.32 271.79 349.63 267.25 298.99 C 274.20 311.59 282.67 323.31 289.51 335.97 C 289.70 337.01 290.04 338.00 290.53 338.94 C 291.70 343.82 292.97 349.46 298.10 351.67 C 302.66 359.15 307.24 366.63 311.59 374.24 C 312.20 381.71 311.47 389.26 311.95 396.76 C 317.08 396.71 322.22 396.75 327.36 396.66 C 327.17 391.56 327.24 386.45 327.30 381.35 C 333.53 388.84 339.28 396.87 346.88 403.07 C 358.60 412.68 372.51 419.16 386.55 424.61 C 409.01 433.15 432.35 439.28 454.45 448.80 C 455.41 449.39 456.98 449.45 457.42 450.67 C 454.81 461.16 449.07 471.00 449.10 482.06 C 449.08 486.52 450.90 491.56 454.96 493.80 C 457.66 493.15 459.03 490.20 459.80 487.77 C 461.91 479.30 460.09 470.30 462.79 461.93 C 464.82 463.65 465.48 466.39 465.71 468.93 C 466.57 478.28 464.46 487.63 465.53 496.97 C 467.79 496.96 470.71 497.25 472.02 494.92 C 474.13 490.91 473.96 486.11 476.13 482.10 C 481.37 487.72 478.85 496.70 483.76 502.57 C 486.07 502.69 487.97 501.40 489.75 500.10 C 489.54 494.75 490.72 489.12 488.57 484.03 C 484.54 472.92 480.33 461.74 478.99 449.92 C 457.91 440.26 436.19 432.09 414.62 423.60 C 395.88 416.00 377.01 408.14 360.21 396.74 C 373.54 396.73 386.87 396.73 400.20 396.75 C 400.28 392.89 400.26 389.04 400.16 385.20 C 390.96 385.28 381.76 385.10 372.57 385.31 C 372.29 380.37 372.45 375.43 372.48 370.49 C 381.09 370.51 389.71 370.63 398.33 370.45 C 398.18 366.74 398.14 363.02 398.39 359.31 C 389.80 358.18 381.04 359.20 372.38 358.77 C 372.41 355.40 372.41 352.03 372.54 348.66 C 381.74 348.88 390.93 348.69 400.13 348.78 C 400.28 344.91 400.27 341.03 400.16 337.16 C 385.82 337.21 371.48 337.11 357.14 337.21 C 356.99 356.33 357.30 375.45 356.96 394.57 C 346.58 387.76 338.17 378.57 329.55 369.76 C 336.17 359.00 342.52 348.09 349.08 337.30 C 343.36 337.07 337.63 337.20 331.91 337.19 C 328.76 343.12 325.48 348.98 322.41 354.95 C 321.78 353.18 321.20 351.32 319.86 349.95 C 316.00 345.72 312.30 341.34 308.15 337.39 L 308.11 337.18 L 307.88 337.19 C 304.47 333.24 300.60 329.74 297.19 325.80 C 287.09 314.72 278.10 301.75 275.26 286.77 C 286.51 286.79 297.76 286.63 309.01 287.11 C 324.56 287.02 341.23 287.03 354.94 278.59 C 376.24 265.88 390.87 244.59 401.17 222.48 C 407.07 223.13 412.20 219.53 418.00 219.33 C 423.88 217.54 426.36 211.50 430.13 207.23 C 433.59 203.13 434.10 197.61 436.48 192.97 C 436.33 186.22 438.33 178.63 434.24 172.64 C 439.01 170.27 443.51 167.38 448.48 165.44 C 451.68 162.46 453.11 158.16 454.18 154.03 C 455.37 147.66 453.47 141.34 452.78 135.04 C 452.37 132.48 452.59 129.41 450.49 127.51 C 447.30 124.03 444.29 120.20 439.98 118.03 C 435.55 116.04 432.26 112.02 427.43 110.85 C 423.65 110.03 419.80 109.51 415.94 109.31 C 410.44 83.28 393.73 61.75 376.94 41.89 C 378.94 37.84 384.31 39.07 387.32 36.36 C 389.38 33.41 388.23 27.35 383.94 27.35 C 379.18 27.25 375.13 30.19 371.52 32.95 C 360.96 20.83 345.93 13.44 330.50 9.68 C 305.24 3.78 278.59 5.77 253.75 12.68 C 250.70 9.14 246.68 6.72 242.85 4.12 C 242.85 3.38 242.86 1.90 242.86 1.16 C 240.95 1.17 239.04 1.09 237.14 1.28 M 160.29 338.27 C 151.26 341.69 145.05 350.47 143.63 359.87 C 142.46 368.70 142.94 378.37 148.06 385.99 C 152.28 392.80 160.12 396.67 167.90 397.64 C 176.97 398.96 186.40 397.08 194.45 392.78 C 194.68 388.04 194.47 383.29 194.53 378.54 C 194.07 378.55 193.15 378.57 192.68 378.58 C 188.35 382.53 183.05 385.96 177.04 386.35 C 171.47 386.71 165.38 384.45 162.35 379.55 C 158.95 374.75 158.94 368.54 159.38 362.92 C 159.93 355.98 164.80 349.15 171.94 347.95 C 179.84 345.85 187.08 350.78 192.91 355.48 L 194.38 355.51 C 194.74 350.60 194.46 345.67 194.49 340.75 C 184.00 335.60 171.35 334.12 160.29 338.27 M 205.57 337.43 C 205.79 357.17 205.67 376.92 205.64 396.67 C 210.83 396.78 216.03 396.77 221.23 396.63 C 221.18 389.95 220.95 383.26 221.40 376.60 C 222.51 375.52 223.55 374.37 224.55 373.19 C 230.68 380.78 236.28 388.81 242.26 396.52 C 248.53 396.99 254.84 396.65 261.12 396.67 C 253.47 386.13 245.34 375.94 237.55 365.50 C 236.64 364.44 238.09 363.41 238.62 362.59 C 245.81 354.20 252.99 345.79 260.08 337.31 C 254.10 337.17 248.10 336.99 242.14 337.38 C 234.99 345.86 228.58 354.97 221.31 363.35 C 220.90 354.65 221.36 345.93 221.06 337.23 C 215.90 337.27 210.72 336.92 205.57 337.43 M 428.19 337.26 C 421.00 357.10 413.60 376.86 406.33 396.67 C 411.62 396.74 416.92 396.83 422.21 396.56 C 423.56 392.52 424.68 388.39 426.50 384.53 C 433.61 384.85 440.73 384.56 447.85 384.74 C 449.07 388.71 450.59 392.60 451.71 396.61 C 457.11 396.78 462.52 396.78 467.92 396.66 C 460.84 376.83 453.13 357.22 446.28 337.31 C 440.25 337.08 434.22 337.15 428.19 337.26 M 476.38 381.23 C 476.09 386.37 476.35 391.52 476.27 396.67 C 481.33 396.71 486.38 396.87 491.44 396.56 C 491.25 391.31 491.36 386.06 491.35 380.81 C 486.40 381.21 481.13 380.30 476.38 381.23 Z" />
<path fill="#ffffff" opacity="1.00" d=" M 296.33 15.57 C 307.59 15.69 318.65 18.22 329.45 21.22 C 337.53 23.52 345.47 26.36 352.97 30.18 C 352.07 33.19 350.18 35.87 347.55 37.61 C 342.61 40.93 336.68 42.19 331.40 44.84 C 332.00 58.41 337.09 72.37 347.67 81.31 C 356.70 89.16 369.09 92.45 380.90 91.48 C 386.05 91.16 391.07 89.90 396.04 88.59 C 399.25 95.59 402.02 102.81 403.73 110.33 C 391.48 109.90 379.14 111.12 366.99 109.39 C 364.65 109.33 362.32 109.39 359.99 109.38 C 359.88 105.03 355.97 102.25 351.85 102.36 C 349.40 99.69 348.63 96.10 347.01 92.99 C 341.59 88.56 334.75 86.39 328.96 82.56 C 325.11 81.17 320.93 81.87 316.98 81.03 C 306.82 79.26 296.43 77.87 286.15 79.55 C 278.71 79.86 271.15 79.81 263.91 81.82 C 260.39 82.85 257.61 85.50 254.02 86.41 C 250.00 88.07 245.62 88.88 241.96 91.32 C 237.97 92.30 234.18 94.52 229.97 94.24 C 224.33 94.14 218.70 94.35 213.07 94.17 C 206.97 93.96 203.01 88.40 197.15 87.46 C 192.44 86.36 187.78 88.05 183.12 88.55 C 179.86 89.08 176.15 89.11 173.70 91.67 C 171.26 94.09 168.24 95.69 165.24 97.27 C 162.03 100.29 158.87 103.64 157.34 107.87 C 156.17 111.37 153.10 114.18 153.24 118.08 C 153.07 123.02 153.07 127.98 153.19 132.93 C 154.14 137.40 156.03 142.40 160.44 144.53 C 165.35 147.00 169.75 150.66 175.30 151.66 C 178.34 156.62 180.20 162.41 184.40 166.57 C 187.50 169.57 189.12 173.86 192.62 176.48 C 195.12 177.83 198.13 177.91 200.57 179.43 C 205.35 182.29 210.74 183.90 215.80 186.18 C 220.54 187.66 224.71 190.54 229.57 191.69 C 233.91 192.67 237.63 195.83 242.25 195.64 C 250.03 195.62 257.83 195.86 265.60 195.50 C 270.29 194.27 275.00 192.74 279.93 193.09 C 285.31 193.55 291.02 191.77 296.07 194.37 C 301.86 196.32 307.43 198.79 312.45 202.31 C 322.42 206.21 330.86 213.18 341.09 216.53 C 347.74 218.42 353.95 221.94 360.99 222.34 C 371.20 222.61 381.42 222.20 391.63 222.52 C 386.12 232.30 379.52 241.52 371.51 249.41 C 362.87 257.93 352.98 265.50 341.42 269.54 C 318.48 277.81 293.57 277.12 269.60 275.35 C 264.40 265.23 264.85 253.17 259.11 243.27 C 245.00 252.76 227.43 254.67 213.04 263.61 C 187.27 249.00 164.15 229.28 146.75 205.23 C 136.41 190.69 128.05 173.99 126.64 155.97 C 125.95 144.06 128.34 132.19 132.16 120.96 C 136.56 108.25 142.78 95.89 152.33 86.25 C 167.14 71.09 185.54 60.24 202.58 47.87 C 208.73 57.83 220.23 62.60 230.98 65.85 C 247.80 70.43 266.14 71.42 282.85 65.90 C 292.70 62.72 302.04 55.49 304.47 44.99 C 307.09 48.02 310.85 50.93 315.13 49.58 C 322.16 47.53 326.75 41.27 331.42 36.03 C 330.56 33.33 329.60 28.95 325.92 29.29 C 321.02 30.34 317.84 34.85 313.11 36.26 C 305.24 35.47 299.03 30.06 291.92 27.17 C 288.16 25.41 284.04 24.75 279.95 24.28 C 285.01 19.73 292.14 23.93 297.96 22.25 C 299.96 20.30 297.17 17.49 296.33 15.57 Z" />
<path fill="#ffffff" opacity="1.00" d=" M 226.98 38.82 C 233.00 32.47 241.17 27.90 250.01 27.39 C 261.61 26.65 272.70 31.17 282.92 36.16 C 278.81 37.97 274.39 38.90 269.93 39.23 C 255.61 40.14 241.31 37.83 226.98 38.82 Z" />
<path fill="#ffffff" opacity="1.00" d=" M 350.18 53.35 C 353.48 46.32 362.15 45.61 368.94 45.11 C 370.07 51.46 375.34 55.55 379.69 59.79 C 376.86 61.75 373.16 62.30 370.08 60.55 C 363.77 57.40 357.74 52.24 350.18 53.35 Z" />
<path fill="#ffffff" opacity="1.00" d=" M 221.70 50.60 C 233.07 47.23 245.15 46.30 256.94 47.38 C 262.34 48.13 268.70 49.06 272.21 53.72 C 265.13 56.48 257.45 57.23 249.91 57.17 C 241.23 56.84 232.40 55.84 224.36 52.39 C 223.33 52.01 222.49 51.33 221.70 50.60 Z" />
<path fill="#ffffff" opacity="1.00" d=" M 347.28 62.23 C 353.44 64.83 359.42 68.46 366.36 68.32 C 366.08 71.57 365.84 75.32 368.82 77.43 C 362.31 77.76 355.84 75.21 350.99 70.93 C 348.62 68.69 347.32 65.48 347.28 62.23 Z" />
<path fill="#ffffff" opacity="1.00" d=" M 244.00 265.12 C 245.75 264.17 245.38 262.06 245.73 260.41 C 247.67 260.61 250.06 261.07 250.75 263.21 C 252.26 267.04 252.20 271.30 253.06 275.31 C 244.69 275.11 236.63 272.57 229.09 269.11 C 232.43 263.95 239.41 267.78 244.00 265.12 Z" />
<path fill="#ffffff" opacity="1.00" d=" M 38.13 350.58 C 43.28 350.49 49.71 350.12 53.12 354.80 C 56.22 359.87 55.74 366.18 55.46 371.89 C 55.26 376.08 53.50 381.09 49.08 382.41 C 45.49 383.10 41.82 383.11 38.18 383.25 C 38.08 372.36 38.18 361.47 38.13 350.58 Z" />
</g>
<g id="#000000ff">
<path fill="#000000" opacity="1.00" d=" M 237.14 1.28 C 239.04 1.09 240.95 1.17 242.86 1.16 C 242.86 1.90 242.85 3.38 242.85 4.12 C 246.68 6.72 250.70 9.14 253.75 12.68 C 278.59 5.77 305.24 3.78 330.50 9.68 C 345.93 13.44 360.96 20.83 371.52 32.95 C 375.13 30.19 379.18 27.25 383.94 27.35 C 388.23 27.35 389.38 33.41 387.32 36.36 C 384.31 39.07 378.94 37.84 376.94 41.89 C 393.73 61.75 410.44 83.28 415.94 109.31 C 419.80 109.51 423.65 110.03 427.43 110.85 C 432.26 112.02 435.55 116.04 439.98 118.03 C 444.29 120.20 447.30 124.03 450.49 127.51 C 452.59 129.41 452.37 132.48 452.78 135.04 C 453.47 141.34 455.37 147.66 454.18 154.03 C 453.11 158.16 451.68 162.46 448.48 165.44 C 443.51 167.38 439.01 170.27 434.24 172.64 C 438.33 178.63 436.33 186.22 436.48 192.97 C 434.10 197.61 433.59 203.13 430.13 207.23 C 426.36 211.50 423.88 217.54 418.00 219.33 C 412.20 219.53 407.07 223.13 401.17 222.48 C 390.87 244.59 376.24 265.88 354.94 278.59 C 341.23 287.03 324.56 287.02 309.01 287.11 C 297.76 286.63 286.51 286.79 275.26 286.77 C 278.10 301.75 287.09 314.72 297.19 325.80 C 300.60 329.74 304.47 333.24 307.88 337.19 C 301.99 337.19 296.11 337.20 290.23 337.15 C 290.05 336.86 289.69 336.26 289.51 335.97 C 282.67 323.31 274.20 311.59 267.25 298.99 C 271.79 349.63 283.61 399.32 297.50 448.13 C 304.06 471.23 311.27 494.15 317.94 517.21 C 314.28 517.43 310.59 517.55 306.97 516.89 C 295.54 472.74 280.47 429.58 270.28 385.10 C 262.71 352.86 257.77 319.99 256.11 286.90 C 239.90 283.78 223.97 279.44 207.99 275.38 C 186.56 284.50 164.19 291.10 141.96 297.96 C 129.74 301.94 117.25 305.44 105.52 310.67 C 99.94 317.40 94.92 324.61 90.38 332.09 C 89.23 333.58 89.50 335.53 89.18 337.28 C 87.67 338.34 85.98 339.11 84.21 339.62 C 82.76 339.72 81.31 339.81 79.86 339.89 C 79.82 345.35 79.91 350.82 79.63 356.28 L 79.44 356.40 C 75.94 357.60 75.60 361.19 74.27 364.05 C 73.68 359.29 73.04 354.43 71.07 350.01 C 70.90 349.58 70.56 348.72 70.39 348.29 C 73.93 344.05 78.97 340.68 80.27 334.97 C 81.00 330.56 83.50 326.08 81.68 321.60 C 83.93 318.23 87.55 315.93 89.14 312.10 C 91.67 308.57 95.31 305.39 99.83 305.04 C 114.95 295.26 132.00 289.03 149.13 283.77 C 160.56 280.29 173.01 279.69 183.56 273.66 C 187.70 271.01 191.98 267.90 194.09 263.33 C 181.81 256.30 170.83 247.19 160.57 237.49 C 143.42 220.56 128.30 200.54 121.40 177.15 C 116.04 159.57 118.74 140.98 120.87 123.10 C 121.36 120.17 121.26 117.10 122.25 114.27 C 135.96 87.96 157.07 65.89 181.94 49.85 C 201.13 36.74 222.74 27.86 242.61 15.90 C 240.19 14.57 237.75 13.04 236.31 10.61 C 234.39 7.80 234.69 3.67 237.14 1.28 M 296.33 15.57 C 297.17 17.49 299.96 20.30 297.96 22.25 C 292.14 23.93 285.01 19.73 279.95 24.28 C 284.04 24.75 288.16 25.41 291.92 27.17 C 299.03 30.06 305.24 35.47 313.11 36.26 C 317.84 34.85 321.02 30.34 325.92 29.29 C 329.60 28.95 330.56 33.33 331.42 36.03 C 326.75 41.27 322.16 47.53 315.13 49.58 C 310.85 50.93 307.09 48.02 304.47 44.99 C 302.04 55.49 292.70 62.72 282.85 65.90 C 266.14 71.42 247.80 70.43 230.98 65.85 C 220.23 62.60 208.73 57.83 202.58 47.87 C 185.54 60.24 167.14 71.09 152.33 86.25 C 142.78 95.89 136.56 108.25 132.16 120.96 C 128.34 132.19 125.95 144.06 126.64 155.97 C 128.05 173.99 136.41 190.69 146.75 205.23 C 164.15 229.28 187.27 249.00 213.04 263.61 C 227.43 254.67 245.00 252.76 259.11 243.27 C 264.85 253.17 264.40 265.23 269.60 275.35 C 293.57 277.12 318.48 277.81 341.42 269.54 C 352.98 265.50 362.87 257.93 371.51 249.41 C 379.52 241.52 386.12 232.30 391.63 222.52 C 381.42 222.20 371.20 222.61 360.99 222.34 C 353.95 221.94 347.74 218.42 341.09 216.53 C 330.86 213.18 322.42 206.21 312.45 202.31 C 307.43 198.79 301.86 196.32 296.07 194.37 C 291.02 191.77 285.31 193.55 279.93 193.09 C 275.00 192.74 270.29 194.27 265.60 195.50 C 257.83 195.86 250.03 195.62 242.25 195.64 C 237.63 195.83 233.91 192.67 229.57 191.69 C 224.71 190.54 220.54 187.66 215.80 186.18 C 210.74 183.90 205.35 182.29 200.57 179.43 C 198.13 177.91 195.12 177.83 192.62 176.48 C 189.12 173.86 187.50 169.57 184.40 166.57 C 180.20 162.41 178.34 156.62 175.30 151.66 C 169.75 150.66 165.35 147.00 160.44 144.53 C 156.03 142.40 154.14 137.40 153.19 132.93 C 153.07 127.98 153.07 123.02 153.24 118.08 C 153.10 114.18 156.17 111.37 157.34 107.87 C 158.87 103.64 162.03 100.29 165.24 97.27 C 168.24 95.69 171.26 94.09 173.70 91.67 C 176.15 89.11 179.86 89.08 183.12 88.55 C 187.78 88.05 192.44 86.36 197.15 87.46 C 203.01 88.40 206.97 93.96 213.07 94.17 C 218.70 94.35 224.33 94.14 229.97 94.24 C 234.18 94.52 237.97 92.30 241.96 91.32 C 245.62 88.88 250.00 88.07 254.02 86.41 C 257.61 85.50 260.39 82.85 263.91 81.82 C 271.15 79.81 278.71 79.86 286.15 79.55 C 296.43 77.87 306.82 79.26 316.98 81.03 C 320.93 81.87 325.11 81.17 328.96 82.56 C 334.75 86.39 341.59 88.56 347.01 92.99 C 348.63 96.10 349.40 99.69 351.85 102.36 C 355.97 102.25 359.88 105.03 359.99 109.38 C 362.32 109.39 364.65 109.33 366.99 109.39 C 379.14 111.12 391.48 109.90 403.73 110.33 C 402.02 102.81 399.25 95.59 396.04 88.59 C 391.07 89.90 386.05 91.16 380.90 91.48 C 369.09 92.45 356.70 89.16 347.67 81.31 C 337.09 72.37 332.00 58.41 331.40 44.84 C 336.68 42.19 342.61 40.93 347.55 37.61 C 350.18 35.87 352.07 33.19 352.97 30.18 C 345.47 26.36 337.53 23.52 329.45 21.22 C 318.65 18.22 307.59 15.69 296.33 15.57 M 226.98 38.82 C 241.31 37.83 255.61 40.14 269.93 39.23 C 274.39 38.90 278.81 37.97 282.92 36.16 C 272.70 31.17 261.61 26.65 250.01 27.39 C 241.17 27.90 233.00 32.47 226.98 38.82 M 350.18 53.35 C 357.74 52.24 363.77 57.40 370.08 60.55 C 373.16 62.30 376.86 61.75 379.69 59.79 C 375.34 55.55 370.07 51.46 368.94 45.11 C 362.15 45.61 353.48 46.32 350.18 53.35 M 221.70 50.60 C 222.49 51.33 223.33 52.01 224.36 52.39 C 232.40 55.84 241.23 56.84 249.91 57.17 C 257.45 57.23 265.13 56.48 272.21 53.72 C 268.70 49.06 262.34 48.13 256.94 47.38 C 245.15 46.30 233.07 47.23 221.70 50.60 M 347.28 62.23 C 347.32 65.48 348.62 68.69 350.99 70.93 C 355.84 75.21 362.31 77.76 368.82 77.43 C 365.84 75.32 366.08 71.57 366.36 68.32 C 359.42 68.46 353.44 64.83 347.28 62.23 M 263.62 95.51 C 263.57 95.53 263.47 95.59 263.41 95.62 C 258.20 97.99 252.61 99.49 247.53 102.20 C 241.53 104.12 235.53 106.93 229.06 106.31 C 220.64 105.86 211.80 107.59 203.79 104.20 C 200.25 103.10 197.64 99.91 193.95 99.32 C 189.96 99.72 186.02 100.50 182.07 101.14 C 178.96 102.90 176.33 105.40 173.14 107.05 C 169.72 108.86 168.69 112.79 167.02 115.97 C 163.81 120.49 165.63 126.28 165.22 131.42 C 169.08 131.79 170.88 135.27 173.28 137.76 C 176.40 139.91 180.65 139.82 183.51 142.47 C 188.08 147.52 189.58 154.66 194.44 159.49 C 196.31 161.36 197.55 163.75 199.33 165.69 C 201.21 166.66 203.31 167.08 205.20 168.03 C 213.10 172.50 221.91 175.01 230.05 178.99 C 233.99 180.36 238.00 181.55 241.81 183.30 C 247.84 183.94 253.96 183.37 260.03 183.59 C 263.23 183.81 266.25 182.64 269.28 181.81 C 276.77 180.34 284.41 180.94 291.98 180.82 C 295.68 180.53 298.91 182.55 302.26 183.77 C 306.94 185.50 311.65 187.30 315.76 190.18 C 319.66 192.92 324.40 194.08 328.38 196.68 C 334.81 200.74 341.59 204.37 348.95 206.39 C 353.54 208.01 358.03 210.38 363.02 210.36 C 372.69 210.41 382.35 210.36 392.02 210.39 C 397.39 210.59 402.65 209.21 408.00 209.05 C 409.87 206.77 411.96 204.75 414.93 204.04 C 417.82 198.53 421.26 193.35 424.61 188.11 C 424.59 183.97 424.53 179.81 423.81 175.73 C 417.47 176.16 412.55 181.80 405.97 180.84 C 401.20 179.65 396.82 182.82 392.06 182.21 C 381.28 181.64 370.79 185.31 360.02 184.81 C 355.69 184.73 351.32 185.08 347.03 184.37 C 340.07 182.93 332.81 182.74 326.20 179.91 C 321.00 177.59 315.21 177.08 310.07 174.64 C 304.27 172.06 298.00 170.56 292.52 167.30 C 289.33 165.48 285.42 165.64 282.24 163.78 C 278.19 161.52 273.36 162.16 269.00 160.99 C 266.09 160.26 263.97 157.83 261.04 157.13 C 255.93 155.55 250.55 154.90 245.81 152.31 C 236.69 150.55 228.89 145.43 220.70 141.39 L 220.67 141.11 C 218.13 137.95 213.87 136.19 212.70 132.05 C 212.20 130.55 210.05 128.41 208.57 129.57 C 207.08 133.00 208.79 136.60 209.65 139.96 C 210.48 145.03 203.61 148.78 199.87 145.17 C 196.02 141.24 195.99 135.17 196.05 130.01 C 195.71 126.69 197.99 124.06 198.87 121.04 C 199.98 118.25 200.21 114.59 203.24 113.09 C 209.56 109.04 217.18 112.73 224.07 112.22 C 229.24 112.28 231.01 119.08 227.85 122.61 C 226.04 123.53 224.11 124.15 222.17 124.71 C 225.02 128.56 228.08 132.55 232.76 134.22 C 239.81 139.00 248.31 140.32 256.06 143.45 C 261.56 145.19 267.59 145.91 272.31 149.50 C 277.04 150.26 282.14 149.99 286.37 152.59 C 289.65 154.54 293.78 154.13 296.99 156.26 C 302.20 159.59 308.35 160.80 313.89 163.42 C 318.84 165.75 324.40 166.25 329.40 168.47 C 335.56 171.18 342.38 171.29 348.89 172.59 C 354.90 173.04 360.97 172.85 366.99 172.69 C 372.03 171.96 377.07 171.29 382.12 170.68 C 390.08 169.24 398.36 171.46 406.20 169.14 C 406.24 168.47 406.32 167.12 406.35 166.45 C 409.21 166.34 412.16 166.61 414.91 165.66 C 418.89 164.29 423.15 163.91 427.10 162.40 C 432.28 160.86 436.58 157.49 441.36 155.10 C 443.91 148.51 441.06 141.54 440.57 134.83 C 437.57 129.43 431.53 127.64 427.01 123.93 C 424.50 121.83 421.03 121.98 417.98 121.57 C 417.84 122.12 417.56 123.22 417.41 123.76 C 402.11 120.98 386.45 123.09 371.01 122.09 C 365.22 120.63 359.08 122.44 353.41 120.40 C 350.01 118.63 348.94 114.38 345.62 112.51 C 342.39 110.37 340.03 107.12 338.37 103.65 C 337.66 102.42 337.28 100.84 335.85 100.21 C 333.55 98.78 331.18 97.42 328.61 96.52 C 328.55 96.50 328.45 96.46 328.40 96.43 C 325.89 95.63 323.80 93.49 321.02 93.69 C 313.30 93.26 305.77 90.96 298.00 91.14 C 291.63 90.92 285.32 92.05 278.96 91.99 C 273.76 92.57 268.04 92.23 263.62 95.51 M 244.00 265.12 C 239.41 267.78 232.43 263.95 229.09 269.11 C 236.63 272.57 244.69 275.11 253.06 275.31 C 252.20 271.30 252.26 267.04 250.75 263.21 C 250.06 261.07 247.67 260.61 245.73 260.41 C 245.38 262.06 245.75 264.17 244.00 265.12 Z" />
<path fill="#000000" opacity="1.00" d=" M 276.68 116.01 C 275.68 112.93 276.96 109.30 280.06 108.05 C 282.52 106.77 285.13 108.14 287.09 109.66 C 287.87 111.22 288.59 112.80 289.38 114.37 C 289.42 114.45 289.50 114.62 289.55 114.70 C 291.15 119.42 296.13 121.61 298.13 126.02 C 299.96 130.26 295.42 135.21 291.00 133.76 C 283.92 130.22 279.82 123.00 276.68 116.01 Z" />
<path fill="#000000" opacity="1.00" d=" M 329.55 369.76 C 338.17 378.57 346.58 387.76 356.96 394.57 C 356.97 395.10 357.00 396.17 357.01 396.70 C 358.07 396.71 359.14 396.72 360.21 396.74 C 377.01 408.14 395.88 416.00 414.62 423.60 C 436.19 432.09 457.91 440.26 478.99 449.92 C 480.33 461.74 484.54 472.92 488.57 484.03 C 490.72 489.12 489.54 494.75 489.75 500.10 C 487.97 501.40 486.07 502.69 483.76 502.57 C 478.85 496.70 481.37 487.72 476.13 482.10 C 473.96 486.11 474.13 490.91 472.02 494.92 C 470.71 497.25 467.79 496.96 465.53 496.97 C 464.46 487.63 466.57 478.28 465.71 468.93 C 465.48 466.39 464.82 463.65 462.79 461.93 C 460.09 470.30 461.91 479.30 459.80 487.77 C 459.03 490.20 457.66 493.15 454.96 493.80 C 450.90 491.56 449.08 486.52 449.10 482.06 C 449.07 471.00 454.81 461.16 457.42 450.67 C 456.98 449.45 455.41 449.39 454.45 448.80 C 432.35 439.28 409.01 433.15 386.55 424.61 C 372.51 419.16 358.60 412.68 346.88 403.07 C 339.28 396.87 333.53 388.84 327.30 381.35 C 327.16 377.36 326.72 373.00 329.55 369.76 Z" />
<path fill="#000000" opacity="1.00" d=" M 41.33 397.50 C 46.48 397.56 51.69 397.45 56.72 396.18 C 53.86 401.38 49.85 405.91 47.68 411.50 C 44.75 418.20 42.60 425.29 41.41 432.50 C 50.01 430.90 59.26 431.59 67.02 435.85 C 77.49 441.36 85.18 452.75 84.53 464.81 C 74.28 463.57 69.43 453.61 63.03 446.91 C 57.62 440.94 48.92 439.60 41.36 441.44 C 43.05 452.09 49.17 461.21 55.00 470.02 C 59.03 476.34 63.41 483.16 63.07 490.99 C 56.20 489.99 50.24 485.46 46.62 479.66 C 39.62 468.70 37.53 455.43 30.70 444.37 C 25.98 451.17 24.72 460.13 27.54 467.94 C 30.56 477.51 37.85 486.23 36.31 496.82 C 30.44 495.98 26.13 491.18 23.60 486.13 C 20.18 479.21 18.42 471.57 14.63 464.81 C 12.63 466.22 11.93 468.72 11.71 471.06 C 11.03 479.04 13.58 487.05 12.02 494.99 C 11.49 497.70 9.11 499.50 6.49 499.95 C 2.41 488.67 0.71 475.98 4.81 464.46 C 9.74 449.99 21.17 439.27 29.99 427.19 C 31.67 425.13 31.92 422.41 32.35 419.90 C 32.93 416.45 35.42 413.59 35.65 410.06 C 35.93 407.22 36.57 404.43 36.68 401.59 C 38.29 400.29 39.88 398.97 41.33 397.50 Z" />
</g>
<g id="#e0da00ff">
<path fill="#e0da00" opacity="1.00" d=" M 263.62 95.51 C 268.04 92.23 273.76 92.57 278.96 91.99 C 285.32 92.05 291.63 90.92 298.00 91.14 C 305.77 90.96 313.30 93.26 321.02 93.69 C 323.80 93.49 325.89 95.63 328.40 96.43 C 328.45 96.46 328.55 96.50 328.61 96.52 C 331.18 97.42 333.55 98.78 335.85 100.21 C 333.81 102.46 333.53 106.36 330.11 107.14 C 321.88 110.25 313.63 104.51 305.31 106.51 C 302.27 107.79 299.46 109.66 296.20 110.37 C 293.15 111.48 290.17 109.62 287.09 109.66 C 285.13 108.14 282.52 106.77 280.06 108.05 C 276.96 109.30 275.68 112.93 276.68 116.01 C 276.24 114.45 275.89 112.86 275.54 111.27 C 274.49 112.88 273.43 114.48 272.35 116.07 C 272.42 115.05 272.49 114.04 272.57 113.03 C 267.66 114.64 262.59 115.74 257.77 117.64 C 253.56 119.51 248.67 118.28 244.53 120.39 C 240.53 122.28 236.13 123.40 231.69 122.75 C 231.11 123.11 230.55 123.46 229.98 123.82 C 229.45 123.51 228.38 122.91 227.85 122.61 C 231.01 119.08 229.24 112.28 224.07 112.22 C 217.18 112.73 209.56 109.04 203.24 113.09 C 200.21 114.59 199.98 118.25 198.87 121.04 C 197.99 124.06 195.71 126.69 196.05 130.01 C 195.99 135.17 196.02 141.24 199.87 145.17 C 203.61 148.78 210.48 145.03 209.65 139.96 C 208.79 136.60 207.08 133.00 208.57 129.57 C 210.05 128.41 212.20 130.55 212.70 132.05 C 213.87 136.19 218.13 137.95 220.67 141.11 L 220.70 141.39 C 221.13 144.17 221.03 147.67 223.76 149.33 C 225.90 150.96 228.68 150.47 231.15 150.21 C 235.31 154.28 239.14 158.68 243.42 162.64 C 246.74 165.30 247.02 169.84 248.39 173.58 C 254.24 176.14 260.65 176.85 266.96 177.25 C 266.06 177.71 265.16 178.18 264.27 178.65 C 265.52 179.01 266.78 179.38 268.04 179.75 C 268.35 180.26 268.97 181.30 269.28 181.81 C 266.25 182.64 263.23 183.81 260.03 183.59 C 253.96 183.37 247.84 183.94 241.81 183.30 C 238.00 181.55 233.99 180.36 230.05 178.99 C 221.91 175.01 213.10 172.50 205.20 168.03 C 203.31 167.08 201.21 166.66 199.33 165.69 C 197.55 163.75 196.31 161.36 194.44 159.49 C 189.58 154.66 188.08 147.52 183.51 142.47 C 180.65 139.82 176.40 139.91 173.28 137.76 C 170.88 135.27 169.08 131.79 165.22 131.42 C 165.63 126.28 163.81 120.49 167.02 115.97 C 168.69 112.79 169.72 108.86 173.14 107.05 C 176.33 105.40 178.96 102.90 182.07 101.14 C 186.02 100.50 189.96 99.72 193.95 99.32 C 197.64 99.91 200.25 103.10 203.79 104.20 C 211.80 107.59 220.64 105.86 229.06 106.31 C 235.53 106.93 241.53 104.12 247.53 102.20 C 252.61 99.49 258.20 97.99 263.41 95.62 C 263.47 95.59 263.57 95.53 263.62 95.51 Z" />
</g>
<g id="#585858ff">
<path fill="#585858" opacity="1.00" d=" M 263.41 95.62 C 263.47 95.59 263.57 95.53 263.62 95.51 C 263.57 95.53 263.47 95.59 263.41 95.62 Z" />
</g>
<g id="#736655ff">
<path fill="#736655" opacity="1.00" d=" M 328.40 96.43 C 328.45 96.46 328.55 96.50 328.61 96.52 C 328.55 96.50 328.45 96.46 328.40 96.43 Z" />
</g>
<g id="#efe700ff">
<path fill="#efe700" opacity="1.00" d=" M 330.11 107.14 C 333.53 106.36 333.81 102.46 335.85 100.21 C 337.28 100.84 337.66 102.42 338.37 103.65 C 340.03 107.12 342.39 110.37 345.62 112.51 C 348.94 114.38 350.01 118.63 353.41 120.40 C 359.08 122.44 365.22 120.63 371.01 122.09 C 386.45 123.09 402.11 120.98 417.41 123.76 C 417.56 123.22 417.84 122.12 417.98 121.57 C 421.03 121.98 424.50 121.83 427.01 123.93 C 431.53 127.64 437.57 129.43 440.57 134.83 C 441.06 141.54 443.91 148.51 441.36 155.10 C 436.58 157.49 432.28 160.86 427.10 162.40 C 423.15 163.91 418.89 164.29 414.91 165.66 C 412.16 166.61 409.21 166.34 406.35 166.45 C 406.32 167.12 406.24 168.47 406.20 169.14 C 398.36 171.46 390.08 169.24 382.12 170.68 C 377.07 171.29 372.03 171.96 366.99 172.69 C 360.97 172.85 354.90 173.04 348.89 172.59 C 342.38 171.29 335.56 171.18 329.40 168.47 C 324.40 166.25 318.84 165.75 313.89 163.42 C 308.35 160.80 302.20 159.59 296.99 156.26 C 293.78 154.13 289.65 154.54 286.37 152.59 C 282.14 149.99 277.04 150.26 272.31 149.50 C 267.59 145.91 261.56 145.19 256.06 143.45 C 248.31 140.32 239.81 139.00 232.76 134.22 C 228.08 132.55 225.02 128.56 222.17 124.71 C 224.11 124.15 226.04 123.53 227.85 122.61 C 228.38 122.91 229.45 123.51 229.98 123.82 C 230.55 123.46 231.11 123.11 231.69 122.75 C 236.13 123.40 240.53 122.28 244.53 120.39 C 248.67 118.28 253.56 119.51 257.77 117.64 C 262.59 115.74 267.66 114.64 272.57 113.03 C 272.49 114.04 272.42 115.05 272.35 116.07 C 273.43 114.48 274.49 112.88 275.54 111.27 C 275.89 112.86 276.24 114.45 276.68 116.01 C 279.82 123.00 283.92 130.22 291.00 133.76 C 295.42 135.21 299.96 130.26 298.13 126.02 C 296.13 121.61 291.15 119.42 289.55 114.70 C 289.50 114.62 289.42 114.45 289.38 114.37 C 288.59 112.80 287.87 111.22 287.09 109.66 C 290.17 109.62 293.15 111.48 296.20 110.37 C 299.46 109.66 302.27 107.79 305.31 106.51 C 313.63 104.51 321.88 110.25 330.11 107.14 M 319.34 111.19 C 317.30 112.31 316.30 114.80 316.55 117.04 C 317.89 122.92 322.21 127.72 327.41 130.58 C 329.69 131.79 332.35 133.37 334.99 132.30 C 338.03 131.16 339.60 127.44 338.35 124.45 C 337.21 121.33 333.58 120.68 331.28 118.71 C 328.27 116.75 328.48 112.06 324.89 110.78 C 323.14 109.94 320.94 110.13 319.34 111.19 Z" />
<path fill="#efe700" opacity="1.00" d=" M 223.76 149.33 C 221.03 147.67 221.13 144.17 220.70 141.39 C 228.89 145.43 236.69 150.55 245.81 152.31 C 250.55 154.90 255.93 155.55 261.04 157.13 C 263.97 157.83 266.09 160.26 269.00 160.99 C 273.36 162.16 278.19 161.52 282.24 163.78 C 285.42 165.64 289.33 165.48 292.52 167.30 C 298.00 170.56 304.27 172.06 310.07 174.64 C 315.21 177.08 321.00 177.59 326.20 179.91 C 332.81 182.74 340.07 182.93 347.03 184.37 C 351.32 185.08 355.69 184.73 360.02 184.81 C 370.79 185.31 381.28 181.64 392.06 182.21 C 396.82 182.82 401.20 179.65 405.97 180.84 C 412.55 181.80 417.47 176.16 423.81 175.73 C 424.53 179.81 424.59 183.97 424.61 188.11 C 421.26 193.35 417.82 198.53 414.93 204.04 C 411.96 204.75 409.87 206.77 408.00 209.05 C 402.65 209.21 397.39 210.59 392.02 210.39 C 382.35 210.36 372.69 210.41 363.02 210.36 C 358.03 210.38 353.54 208.01 348.95 206.39 C 341.59 204.37 334.81 200.74 328.38 196.68 C 324.40 194.08 319.66 192.92 315.76 190.18 C 311.65 187.30 306.94 185.50 302.26 183.77 C 298.91 182.55 295.68 180.53 291.98 180.82 C 284.41 180.94 276.77 180.34 269.28 181.81 C 268.97 181.30 268.35 180.26 268.04 179.75 C 266.78 179.38 265.52 179.01 264.27 178.65 C 265.16 178.18 266.06 177.71 266.96 177.25 C 260.65 176.85 254.24 176.14 248.39 173.58 C 247.02 169.84 246.74 165.30 243.42 162.64 C 239.14 158.68 235.31 154.28 231.15 150.21 C 228.68 150.47 225.90 150.96 223.76 149.33 Z" />
</g>
<g id="#010102ff">
<path fill="#010102" opacity="1.00" d=" M 319.34 111.19 C 320.94 110.13 323.14 109.94 324.89 110.78 C 328.48 112.06 328.27 116.75 331.28 118.71 C 333.58 120.68 337.21 121.33 338.35 124.45 C 339.60 127.44 338.03 131.16 334.99 132.30 C 332.35 133.37 329.69 131.79 327.41 130.58 C 322.21 127.72 317.89 122.92 316.55 117.04 C 316.30 114.80 317.30 112.31 319.34 111.19 Z" />
<path fill="#010102" opacity="1.00" d=" M 290.53 338.94 C 293.03 343.19 295.62 347.39 298.10 351.67 C 292.97 349.46 291.70 343.82 290.53 338.94 Z" />
</g>
<g id="#968f49ff">
<path fill="#968f49" opacity="1.00" d=" M 289.38 114.37 C 289.42 114.45 289.50 114.62 289.55 114.70 C 289.50 114.62 289.42 114.45 289.38 114.37 Z" />
</g>
<g id="#fe2400ff">
<path fill="#fe2400" opacity="1.00" d=" M 19.69 336.12 C 30.50 336.38 41.33 335.83 52.13 336.45 C 60.40 336.93 67.77 342.51 71.07 350.01 C 73.04 354.43 73.68 359.29 74.27 364.05 C 74.03 371.69 74.10 379.98 69.62 386.55 C 66.74 391.24 62.04 394.77 56.72 396.18 C 51.69 397.45 46.48 397.56 41.33 397.50 C 34.10 397.36 26.86 397.46 19.63 397.45 C 19.69 377.00 19.58 356.56 19.69 336.12 M 38.13 350.58 C 38.18 361.47 38.08 372.36 38.18 383.25 C 41.82 383.11 45.49 383.10 49.08 382.41 C 53.50 381.09 55.26 376.08 55.46 371.89 C 55.74 366.18 56.22 359.87 53.12 354.80 C 49.71 350.12 43.28 350.49 38.13 350.58 Z" />
<path fill="#fe2400" opacity="1.00" d=" M 160.29 338.27 C 171.35 334.12 184.00 335.60 194.49 340.75 C 194.46 345.67 194.74 350.60 194.38 355.51 L 192.91 355.48 C 187.08 350.78 179.84 345.85 171.94 347.95 C 164.80 349.15 159.93 355.98 159.38 362.92 C 158.94 368.54 158.95 374.75 162.35 379.55 C 165.38 384.45 171.47 386.71 177.04 386.35 C 183.05 385.96 188.35 382.53 192.68 378.58 C 193.15 378.57 194.07 378.55 194.53 378.54 C 194.47 383.29 194.68 388.04 194.45 392.78 C 186.40 397.08 176.97 398.96 167.90 397.64 C 160.12 396.67 152.28 392.80 148.06 385.99 C 142.94 378.37 142.46 368.70 143.63 359.87 C 145.05 350.47 151.26 341.69 160.29 338.27 Z" />
<path fill="#fe2400" opacity="1.00" d=" M 289.51 335.97 C 289.69 336.26 290.05 336.86 290.23 337.15 C 296.11 337.20 301.99 337.19 307.88 337.19 L 308.11 337.18 L 308.15 337.39 C 308.32 340.34 310.24 342.67 311.60 345.16 C 314.31 350.03 317.03 354.90 319.59 359.85 C 320.54 358.22 321.49 356.59 322.41 354.95 C 325.48 348.98 328.76 343.12 331.91 337.19 C 337.63 337.20 343.36 337.07 349.08 337.30 C 342.52 348.09 336.17 359.00 329.55 369.76 C 326.72 373.00 327.16 377.36 327.30 381.35 C 327.24 386.45 327.17 391.56 327.36 396.66 C 322.22 396.75 317.08 396.71 311.95 396.76 C 311.47 389.26 312.20 381.71 311.59 374.24 C 307.24 366.63 302.66 359.15 298.10 351.67 C 295.62 347.39 293.03 343.19 290.53 338.94 C 290.04 338.00 289.70 337.01 289.51 335.97 Z" />
<path fill="#fe2400" opacity="1.00" d=" M 84.21 339.62 C 85.98 339.11 87.67 338.34 89.18 337.28 C 90.97 337.23 92.77 337.22 94.57 337.23 C 94.48 349.82 94.53 362.41 94.55 375.00 C 94.62 378.86 95.74 383.36 99.44 385.30 C 103.42 387.14 108.33 387.06 112.29 385.19 C 115.73 383.56 116.62 379.43 116.79 375.97 C 116.89 363.06 116.72 350.14 116.84 337.22 C 121.96 337.15 127.09 337.18 132.21 337.19 C 132.36 350.15 132.22 363.11 132.29 376.07 C 132.25 382.78 129.53 390.04 123.55 393.62 C 116.33 398.47 107.13 398.24 98.81 397.52 C 89.81 396.66 80.93 390.28 79.68 380.89 C 78.78 372.78 79.43 364.50 79.44 356.40 L 79.63 356.28 C 79.92 359.64 80.05 363.02 80.39 366.39 C 82.91 363.40 83.28 359.40 83.88 355.69 C 84.74 350.37 84.32 344.97 84.21 339.62 Z" />
<path fill="#fe2400" opacity="1.00" d=" M 205.57 337.43 C 210.72 336.92 215.90 337.27 221.06 337.23 C 221.36 345.93 220.90 354.65 221.31 363.35 C 228.58 354.97 234.99 345.86 242.14 337.38 C 248.10 336.99 254.10 337.17 260.08 337.31 C 252.99 345.79 245.81 354.20 238.62 362.59 C 238.09 363.41 236.64 364.44 237.55 365.50 C 245.34 375.94 253.47 386.13 261.12 396.67 C 254.84 396.65 248.53 396.99 242.26 396.52 C 236.28 388.81 230.68 380.78 224.55 373.19 C 223.55 374.37 222.51 375.52 221.40 376.60 C 220.95 383.26 221.18 389.95 221.23 396.63 C 216.03 396.77 210.83 396.78 205.64 396.67 C 205.67 376.92 205.79 357.17 205.57 337.43 Z" />
<path fill="#fe2400" opacity="1.00" d=" M 357.14 337.21 C 371.48 337.11 385.82 337.21 400.16 337.16 C 400.27 341.03 400.28 344.91 400.13 348.78 C 390.93 348.69 381.74 348.88 372.54 348.66 C 372.41 352.03 372.41 355.40 372.38 358.77 C 381.04 359.20 389.80 358.18 398.39 359.31 C 398.14 363.02 398.18 366.74 398.33 370.45 C 389.71 370.63 381.09 370.51 372.48 370.49 C 372.45 375.43 372.29 380.37 372.57 385.31 C 381.76 385.10 390.96 385.28 400.16 385.20 C 400.26 389.04 400.28 392.89 400.20 396.75 C 386.87 396.73 373.54 396.73 360.21 396.74 C 359.14 396.72 358.07 396.71 357.01 396.70 C 357.00 396.17 356.97 395.10 356.96 394.57 C 357.30 375.45 356.99 356.33 357.14 337.21 Z" />
<path fill="#fe2400" opacity="1.00" d=" M 428.19 337.26 C 434.22 337.15 440.25 337.08 446.28 337.31 C 453.13 357.22 460.84 376.83 467.92 396.66 C 462.52 396.78 457.11 396.78 451.71 396.61 C 450.59 392.60 449.07 388.71 447.85 384.74 C 440.73 384.56 433.61 384.85 426.50 384.53 C 424.68 388.39 423.56 392.52 422.21 396.56 C 416.92 396.83 411.62 396.74 406.33 396.67 C 413.60 376.86 421.00 357.10 428.19 337.26 M 436.93 353.17 C 434.70 360.04 432.07 366.79 430.00 373.71 C 434.67 373.80 439.34 373.80 444.01 373.70 C 441.71 366.83 439.42 359.97 436.93 353.17 Z" />
<path fill="#fe2400" opacity="1.00" d=" M 476.38 381.23 C 481.13 380.30 486.40 381.21 491.35 380.81 C 491.36 386.06 491.25 391.31 491.44 396.56 C 486.38 396.87 481.33 396.71 476.27 396.67 C 476.35 391.52 476.09 386.37 476.38 381.23 Z" />
</g>
<g id="#010107ff">
<path fill="#010107" opacity="1.00" d=" M 308.15 337.39 C 312.30 341.34 316.00 345.72 319.86 349.95 C 321.20 351.32 321.78 353.18 322.41 354.95 C 321.49 356.59 320.54 358.22 319.59 359.85 C 317.03 354.90 314.31 350.03 311.60 345.16 C 310.24 342.67 308.32 340.34 308.15 337.39 Z" />
</g>
<g id="#fc492aff">
<path fill="#fc492a" opacity="1.00" d=" M 79.86 339.89 C 81.31 339.81 82.76 339.72 84.21 339.62 C 84.32 344.97 84.74 350.37 83.88 355.69 C 83.28 359.40 82.91 363.40 80.39 366.39 C 80.05 363.02 79.92 359.64 79.63 356.28 C 79.91 350.82 79.82 345.35 79.86 339.89 Z" />
</g>
<g id="#fdfffdff">
<path fill="#fdfffd" opacity="1.00" d=" M 436.93 353.17 C 439.42 359.97 441.71 366.83 444.01 373.70 C 439.34 373.80 434.67 373.80 430.00 373.71 C 432.07 366.79 434.70 360.04 436.93 353.17 Z" />
</g>
</svg>
