<?xml version="1.0" encoding="utf-8"?>
<!-- Generator: Adobe Illustrator 15.0.2, SVG Export Plug-In . SVG Version: 6.00 Build 0)  -->
<!DOCTYPE svg PUBLIC "-//W3C//DTD SVG 1.1//EN" "http://www.w3.org/Graphics/SVG/1.1/DTD/svg11.dtd">
<svg version="1.1" id="Layer_1" xmlns="http://www.w3.org/2000/svg" xmlns:xlink="http://www.w3.org/1999/xlink" x="0px" y="0px"
	 width="650px" height="406px" viewBox="0 0 650 406" enable-background="new 0 0 650 406" xml:space="preserve">
<path fill="#FFFFFF" d="M0,0h650v406H0V0 M498.43,4.76c-1.699,10.04-2.46,20.23-3.649,30.34c-1.061-10.02-0.96-20.41-2.721-30.21
	c-7.6-0.13-15.22-0.12-22.819,0.02c-1.78,10.61-2.61,21.35-3.21,32.08c-1.29-10.67-1.931-21.44-2.74-32.16
	c-4.271,0.11-8.57-0.32-12.81,0.31c-0.841,10.29-2.7,20.5-3.04,30.82c-1.41-10.31-1.36-20.79-2.62-31.14
	c-7.75,0.22-15.551-0.44-23.261,0.36c-1.46,10.58-2.739,21.22-2.97,31.92c-1.59-10.7-1.729-21.56-3.06-32.29
	c-4.11,0.21-8.28-0.36-12.351,0.27c-1.85,10.2-2.13,20.65-3.729,30.91c-0.5-10.28-1.34-20.53-1.99-30.8
	C391.35,4.37,385.15,5.06,379,4.8c-1.56,0.15-3.32-0.37-4.74,0.39c-2.13,10.14-2.439,20.56-3.529,30.82
	c-0.761-10.4-1.91-20.76-2.57-31.17c-4.16,0.27-8.69-0.62-12.62,0.41c-1.58,10.18-2.55,20.48-3.13,30.77
	c-1.66-10.28-1.561-20.76-2.67-31.11c-3.9-0.16-7.8-0.07-11.69-0.1c1.84,15.47,3.431,30.95,5.431,46.4
	c4.93-0.01,9.859-0.03,14.8,0.02c1.41-7.85,2.29-15.78,3.359-23.68c1.21,7.85,2.351,15.72,3.54,23.57
	c5.11,0.18,10.221,0.02,15.32,0.09c1.51-14.82,3.37-29.62,5.15-44.41c2.239,14.74,3.369,29.62,5.34,44.39
	c4.939-0.22,10.01,0.47,14.87-0.31c1.409-7.6,2.26-15.3,3.3-22.95c1.25,7.74,2.439,15.5,3.649,23.25
	c5.08,0.04,10.16,0.02,15.24,0.02c1.62-14.76,3.29-29.53,5.13-44.25c2.391,14.7,3.271,29.59,5.511,44.3
	c4.92-0.09,9.84-0.04,14.76-0.04c1.069-7.76,2.31-15.5,3.399-23.26c1.021,7.78,2.271,15.52,3.61,23.26
	c4.97,0.03,9.95-0.12,14.93,0.1c2.11-14.74,3.41-29.6,5.32-44.38c2.35,14.66,3.48,29.52,5.38,44.26c5.03,0.02,10.061,0,15.09,0.01
	c0.681-7.84,2.29-15.55,3.2-23.36c0.9,7.83,2.47,15.55,3.55,23.35c5.04,0.02,10.09,0,15.141,0.01c1.939-14.75,3.229-29.6,5.27-44.33
	c2.12,14.76,3.44,29.61,5.391,44.38c4.979-0.11,9.949-0.04,14.93-0.04c1.14-7.75,1.85-15.61,3.53-23.26
	c0.659,7.84,1.979,15.6,3.55,23.31c4.96-0.11,9.93-0.05,14.899-0.05c2.101-14.73,2.83-29.69,5.551-44.3
	c1.39,14.8,3.489,29.51,4.96,44.3c4.989-0.1,9.979,0.14,14.97-0.1c1.49-7.71,1.86-15.64,3.649-23.31
	c0.75,7.84,1.87,15.63,3.421,23.36c5,0.08,10,0.03,15,0.03c1.96-15.45,3.52-30.94,5.399-46.39c-3.92,0.03-7.84,0.02-11.76,0.03
	c-1.47,10.71-2.45,21.49-3.311,32.26c-1.359-10.74-0.979-21.66-2.819-32.34c-4.061,0.11-8.12,0.09-12.181,0.04
	c-1.609,10.29-2.77,20.64-3.5,31.03c-0.899-10.36-1.539-20.74-2.67-31.07c-7.649,0.4-15.489-0.43-23.02,0.4
	c-1.86,10.52-2.24,21.23-3.39,31.83c-1.181-10.7-1.41-21.47-2.53-32.17c-4.26,0.23-8.601-0.49-12.79,0.48
	c-0.71,10.26-2.95,20.4-3.16,30.69c-1.11-10.34-1.38-20.77-2.57-31.12c-7.689-0.09-15.37,0-23.06-0.05
	c-1.94,10.68-2.46,21.55-3.33,32.35c-1.39-10.76-1.37-21.67-2.9-32.39C506.54,4.85,502.48,4.86,498.43,4.76 M35.81,4.88
	c-2,15.45-3.94,30.91-6.18,46.32c4.16-0.07,8.33,0.15,12.49-0.09c0.71-2.68,0.43-5.52,0.67-8.26c1.45-0.04,2.91-0.07,4.36-0.11
	c0.21,2.82,0.46,5.64,0.71,8.46c4.04,0,8.08,0,12.12,0c-0.64-8.52-2.61-16.86-3.57-25.33c-0.79-6.93-2.33-13.75-3.04-20.69
	C47.55,4.43,41.66,4.95,35.81,4.88 M66.67,5.29c-0.56,8.66-2.44,17.17-3.26,25.8c-0.8,6.73-1.62,13.46-2.9,20.12
	c4.2-0.09,8.41,0.14,12.61-0.09c0.92-2.76-0.12-5.91,1.41-8.52c0.92,0.05,2.76,0.16,3.67,0.21c0.26,2.8,0.5,5.6,0.7,8.41
	c4.04-0.03,8.08-0.02,12.12-0.02c-0.66-9.13-2.82-18.05-3.8-27.14c-0.75-6.32-2.12-12.54-2.8-18.87
	C78.56,4.64,72.51,4.47,66.67,5.29 M97.76,5.11c-0.33,5.71-1.32,11.35-2.09,17.01c-1.54,9.67-2.14,19.48-4.06,29.09
	c4.22-0.01,8.44-0.04,12.66,0.03c0.22-2.84,0.43-5.68,0.79-8.51c1.36-0.04,2.71,0.03,4.06,0.22c0.76,2.67,0.56,5.5,0.8,8.25
	c4.05,0,8.1,0,12.16,0c-0.85-9.6-2.88-19.03-4.05-28.58c-0.77-5.96-1.76-11.89-2.8-17.8C109.41,4.98,103.56,4.48,97.76,5.11
	 M128.81,5.57c-0.77,6.83-1.6,13.65-2.67,20.44c-1.28,8.38-1.77,16.88-3.48,25.2c4.22-0.01,8.44-0.04,12.65,0.03
	c0.2-2.83,0.41-5.66,0.77-8.47c1.41-0.01,2.82-0.02,4.23-0.03c0.33,2.81,0.55,5.63,0.66,8.45c4.1,0.01,8.21,0,12.32,0.03
	c-1.03-7.08-1.9-14.2-3.16-21.25c-1.46-8.31-1.91-16.88-4.03-25.03c-5.44-0.24-10.91-0.14-16.36-0.07
	C129.51,5.05,129.04,5.4,128.81,5.57 M160.09,5.09c-2.17,15.33-4.12,30.74-6.16,46.11c4.12,0.01,8.24-0.03,12.36,0.04
	c0.29-2.82,0.53-5.64,0.81-8.46c1.41-0.021,2.82-0.05,4.23-0.09c0.39,2.82,0.55,5.66,0.67,8.51c4.1,0,8.2-0.01,12.31,0.01
	c-2.28-15.48-4.41-31-6.96-46.44C171.6,5.08,165.79,4.41,160.09,5.09 M191.19,4.8c-2.2,15.44-4.18,30.91-6.2,46.38
	c4.11,0.04,8.22-0.02,12.33,0.07c0.29-2.85,0.59-5.7,0.97-8.54c1.42,0.02,2.84,0.04,4.26,0.05c0.19,2.71,0.18,5.44,0.6,8.13
	c3.99,0.77,8.17,0.07,12.24,0.33c-2.27-15.32-4.37-30.689-6.89-45.97C203.04,4.21,196.91,5.15,191.19,4.8 M222.19,4.83
	c-2.14,15.45-4.21,30.91-6.09,46.4c4.07-0.04,8.14-0.08,12.21,0.04c0.39-2.82,0.67-5.66,0.97-8.5c1.43,0,2.87-0.01,4.32-0.01
	c0.16,2.85,0.03,5.74,0.71,8.53c4.03-0.14,8.06-0.11,12.09-0.04c-1.37-9.04-2.42-18.12-4.01-27.12c-1.17-6.44-1.46-13.04-3.01-19.41
	C233.66,4.94,227.92,4.77,222.19,4.83 M253.15,4.9c-1.82,15.46-4.33,30.84-5.9,46.34c4.1-0.06,8.21-0.05,12.32-0.021
	c0.19-2.83,0.45-5.65,0.74-8.47c1.07,0,3.22,0.01,4.29,0.02c0.28,2.85-0.2,5.85,0.94,8.56c4-0.22,8.01-0.13,12.01-0.09
	c-2.43-15.35-4.46-30.76-6.94-46.09C264.91,4.4,258.95,4.97,253.15,4.9 M284.28,4.85c-2.04,15.45-4.35,30.87-6.01,46.36
	c4.06-0.32,8.43,0.57,12.32-0.4c0.42-2.66,0.49-5.36,0.75-8.04c1.07-0.01,3.2-0.02,4.26-0.03c0.17,2.88-0.03,5.83,0.92,8.61
	c4.04-0.25,8.1-0.13,12.15-0.15c-2.47-15.42-4.74-30.88-6.95-46.35C295.91,4.81,290.09,4.8,284.28,4.85 M312.9,22.98
	c-1.04,9.44-2.851,18.77-3.61,28.24c4.14-0.04,8.28,0.03,12.43-0.07c0.2-2.8,0.46-5.59,0.75-8.38c1.03-0.01,3.101-0.01,4.141-0.01
	c0.13,2.85,0.33,5.7,0.739,8.53c4.11-0.16,8.23-0.09,12.351-0.07c-2.54-15.32-4.55-30.74-6.98-46.07
	c-5.6-0.85-11.45,0.03-17.14-0.44C314.21,10.72,313.71,16.88,312.9,22.98 M267.88,60.14c-7.55,2.79-12.8,9.16-18.84,14.16
	c-3.13,2.79-6.59,5.28-9.13,8.67c-3.59,4.61-8.69,8.73-9.33,14.93c-0.53,2.29,0.14,5.11-1.65,6.93
	c-8.19,8.7-16.22,17.96-20.97,29.05c-2.75,6.09-1.33,12.87-2.09,19.29c-0.72,5.16-1.52,10.57-4.54,14.96
	c-3.38,4.93-7.72,9.1-11.99,13.25c-1.34,1.4-3.56,2.37-3.38,4.64c3.24-1.61,6.34-3.5,9.67-4.93
	c-6.31,16.33-14.07,32.891-13.94,50.76c-0.65,10.7-1.8,21.391-1.59,32.12c-0.15,7.601,0.28,15.561,3.75,22.47
	c2.48,3.48,4.52,7.34,5.31,11.59c1.89,10.531,1.66,21.301,1.06,31.941c0.01,4.649-0.05,9.359-1.32,13.869
	c-0.84,2.49-2.45,4.62-3.66,6.939c2-0.109,2.85-2.149,3.73-3.639c2.43-5.311,2.65-11.311,2.7-17.051
	c0.78-12.21,1.06-24.74-2.4-36.59c-1.42-4.84-5.75-8.33-6.38-13.46c-3.12-15.39-0.42-31.09,0.01-46.601
	c0.42-4.819,0.02-9.72,1.2-14.449c3.39-14.12,8.53-27.771,14.57-40.95c-2.5,0.66-4.63,2.16-6.95,3.24
	c4.34-5.18,9.82-9.57,12.67-15.86l1.16-0.77c0.92,9.84,1.47,19.76,3.72,29.42c1.2,6.61,2.93,13.31,6.7,18.97
	c6.43,10.13,16.44,17.649,21.8,28.51c3.16,6.3,3.53,13.74,1.49,20.44c-3.78,14.49-13.61,26.939-15.34,42.029
	c-1.44,15.53,12.24,29.41,27.06,31.461c8.21-0.26,15.17-5.41,21.8-9.74c5.5-2.43,11.52-0.9,17.04,0.59c10.11,3,20,6.74,29.51,11.3
	c6.71,3.38,13.62,6.74,19.22,11.851c0.8,0.959,2.03,1.14,3.19,1.399c-1.221-1.61-2.61-3.11-4.24-4.319
	c-6.91-5.19-14.7-9.021-22.53-12.61c-10.29-4.54-20.92-8.341-31.87-10.88c-5.03-0.83-10.14,0.5-14.87,2.13
	c0.1,0.329,0.31,0.989,0.41,1.319c-4.76,3.66-10.52,6.58-16.56,7.381c-14.27-1.061-27.36-14.25-26.71-28.86
	c1.47-16.25,12.68-29.39,15.93-45.149c1.04-6.15,0.94-12.781-1.92-18.451c-5.44-11.629-16.26-19.399-22.8-30.299
	c-2.8-4.33-3.97-9.431-5.32-14.341c-2.45-13.14-4.44-26.48-4.47-39.87c1.18-6.78-0.27-13.83,1.64-20.48
	c4.45-11.84,12.89-21.68,21.58-30.65c-0.42,2.25-0.57,4.57,0.96,6.47c0.63-5.37-0.07-10.88,1.29-16.15
	c1.48-4.94,5.65-8.22,8.63-12.21c3.19-4.14,7.56-7.11,11.41-10.58c3.77-3.33,7.25-7.09,11.58-9.73c6.52-3.74,14.54-5.42,21.88-3.37
	c6.2,2.62,10.15,9.2,17.03,10.49c5.86,1.92,12.1,1.75,18.07,2.96c5.26,2.74,9.17,7.44,13.109,11.76c-2.649-0.3-5.41-0.39-7.89-1.47
	c-2.18-1.02-3.82-2.85-5.82-4.15c-6.09-4.46-14-4.97-21.29-4.98c-7.71,0.14-15.92-0.46-22.95,3.28
	c-9.82,4.91-20.04,10.3-26.65,19.38c-4.22,6.65-5.45,14.72-5.53,22.48c-0.02,5.54,0.16,11.47,3.37,16.23
	c3.8,8.77,4.3,18.64,8.41,27.29c8.02,10.15,12.54,22.73,14.54,35.41c0.57-0.08,1.71-0.25,2.28-0.33c4.35,6.8,8.92,13.47,12.69,20.62
	c0.93,1.81,1.64,3.75,1.82,5.79c0.52,4.67,1.92,9.25,1.8,13.99c0.03,1.43-0.43,3.6-2.34,2.949c-2.33-5.46-5.4-10.56-8.7-15.479
	c-1.78-2.2-1.19-5.181-1.68-7.78c-0.64-6.79-3.46-13.13-4.08-19.93c-0.39,0.58-1.18,1.729-1.57,2.3c0.21-1.55-0.9-2.67-1.51-3.96
	c-4.57-9.53-10.62-18.24-15.45-27.64c-6.32-12-13.87-23.29-21.54-34.47c-3.42-6.41-1.99-13.99-1.21-20.88
	c-0.55-0.67-1.11-1.34-1.65-2.01c-0.35,7.99-2.76,16.8,1.85,24.08c7.63,11.18,15.2,22.45,21.46,34.47
	c7.17,13.67,16.71,26.34,20.77,41.44c2.62,8.55,2.99,18.08-0.4,26.479c-1.47,5.67-2.26,11.54-4.11,17.11
	c-8.75,9.87-18.86,19.859-21.59,33.29c-2.19,6.79-3.31,13.909-3.19,21.05c-0.19,1.62,0.4,3.17,1.4,4.43
	c-0.76-9.83,1.48-19.5,4.27-28.85c2.79-9.18,9.29-16.55,15.47-23.641c2.07-2.56,5.03-4.529,6.04-7.81c1.66,1.57,3.35,3.3,5.61,3.99
	c2.08,0.33,4.15-0.271,6.19-0.62c1.71,2.85,4.83,5.32,8.36,4.45c3.2-0.46,4.97-3.351,6.42-5.91c4.2,10.76,9.13,21.729,17.55,29.899
	c8.06,8.16,17.62,14.73,27.71,20.11c9.54,5.53,21.6,4.05,30.85,10.21c13.24,8.79,25.28,20.141,32.33,34.58
	c0.271-0.199,0.8-0.6,1.061-0.8c-6.69-14.681-19.13-25.819-32.2-34.83c-9.311-6.521-21.59-5.01-31.351-10.479
	c-12.22-6.621-23.869-14.82-32.56-25.791c-5.38-7.459-9.09-15.979-12.55-24.449c-0.46-3.65-0.77-7.42-3.06-10.5
	c0.4-1.391,0.69-2.801,0.86-4.24c-1.21,0.77-1.95,1.99-2.59,3.22c-1.09-0.88-2.42-1.31-3.7-1.78c0.61-6.279-1.06-12.47-1.76-18.67
	c-4.24-10.34-11.17-19.27-17.1-28.649c-2.87-10.28-6.29-20.71-12.75-29.37c-3.88-4.47-4.02-10.72-5.92-16.09
	c-1.14-6.05-3.18-11.86-5.95-17.35c-2.58-10.08-1.21-21.04,2.87-30.54c6.14-10.39,17.42-16.06,27.86-21.22
	c5.72-3.27,12.48-2.7,18.82-2.9c6.42,0.05,13.149-0.33,19.18,2.3c5.061,1.94,8.39,6.93,13.89,7.97
	c-4.239,1.43-8.239,3.43-12.31,5.26c0.32,3.85,0.65,7.69,1.01,11.53c-1.83-1.47-3.689-2.91-5.77-4c-0.15,1.87,1.649,2.76,2.899,3.75
	c3.351,2.31,6.801,5.08,11.051,5.28c5.529,0.14,11.119-2.3,16.56-0.271c4.14,1.42,9.65,2.88,10.73,7.82
	c0.449,2.75,1.409,6.67-1.23,8.58c-0.72-0.03-2.17-0.1-2.89-0.13c-0.12,0.38-0.36,1.15-0.48,1.54c1.97,0.05,4.61,0.62,5.64-1.63
	c1.44-3.79,0.98-8.36-0.939-11.91c-3.021-3.73-7.94-5.01-12.39-6.12c-4.66-1.27-9.32,0.64-13.98,0.8c-3.43,0.16-6.29-2-9.09-3.65
	c4.82-4.83,9.81-9.92,16.16-12.68c4.319-0.67,8.76-0.39,13.069-1.35c3.86,2.18,6.521,5.94,7.761,10.15
	c-5.811-1.59-11.811,0.57-17.5,1.75c-0.12,0.38-0.341,1.14-0.46,1.52c6.609-1.49,13.359-3.32,20.14-1.68l-0.13,0.36
	c-4.33,0.46-8.521,1.87-12.93,1.81c0.64,1.01,1.27,2.01,1.89,3.04c4.99,0.34,10.03,1.26,15.03,0.45c0.81,0.95,1.619,1.9,2.439,2.85
	c5.94,0.96,10.15,5.61,14.101,9.729c6.38,7.23,12.17,15.03,17.02,23.36c3.38,9.34,6.26,18.86,9.91,28.1
	c1.899,5.1,3.689,10.36,7.18,14.63c2.021,4.5,2.99,9.58,2.271,14.5c-1.96,9.03-1.801,18.34-2.391,27.52
	c0.471-0.11,1.42-0.32,1.891-0.43c-0.71-5.09,0.109-10.23,0.52-15.311c5.07,4.99,9.271,10.971,11.891,17.6
	c3.27,8.44,2.72,17.641,3.42,26.511c0.55,12.34,0.779,24.7,1.319,37.05c0.32,5.35-0.66,10.68-0.279,16.02
	c0.47,7.461-2.04,14.78-5.7,21.19c0.529-12.729,0.779-25.489,0.29-38.229c-0.59-6.541-0.62-13.381-3.4-19.471
	c-3.45-7.91-6.79-15.97-8.12-24.55c-0.649-5.99-0.52-12.04-0.399-18.06c-0.65-0.49-1.29-0.99-1.92-1.5
	c1.04,5.83,0.02,11.84,0.75,17.729c0.689,10.92,5.92,20.761,9.779,30.79c1.271,4.24,1.13,8.73,1.521,13.109
	c0.77,15.701,0.16,31.421-0.41,47.121l1.479,0.06c0.08-1.56,0.19-3.12,0.32-4.67c1.78-1.24,2.39-3.38,3.061-5.33
	c1.189,2.62,1.859,6.16,4.949,7.229c7.08,2.051,10.21,9.57,12.16,16.011c0.32,0.149,0.98,0.46,1.3,0.61
	c-0.97-8.041-6.13-16.15-14.119-18.73c-3.171-2.99-3.04-8.01-1.521-11.801c1.7-4.68,1.98-9.68,1.55-14.6
	c27.25-1.189,55.021-3.17,81.82,3.18c14.03,3.561,24.95,15.121,30.01,28.391c1.811,4.17,2.44,8.71,3.811,13.029
	c0.359,0.091,1.09,0.281,1.449,0.381c-0.569-4.41-2.399-8.5-3.54-12.77c-4.55-12.521-13.92-23.74-26.47-28.73
	c-11.47-4.189-23.78-4.68-35.8-5.9c-17.09-0.64-34.18,0.08-51.23,1.16c0.48-11.17-0.189-22.33-0.72-33.48
	c-0.24-10.08-0.939-20.149-1.54-30.209c-0.27-8.34-3.819-16.261-8.6-22.98c-2.03-2.67-3.96-5.641-7.05-7.189
	c-0.17-4.681,1.609-9.141,1.51-13.811c0.189-5.84-1.83-11.63-5.47-16.18c-3.891-8.16-6.61-16.82-9.69-25.3
	c-2.14-5.67-3.21-11.84-6.7-16.91c-6.29-9.52-12.979-19.02-21.83-26.35c-2.37-2.2-5.63-2.92-8.279-4.63
	c-3.53-3.95-7.381-7.84-9.28-12.9c-3.351-6.55-11.061-8.64-17.88-8.92c-4.71-4.85-8.99-10.62-15.34-13.43
	c-6.931-1.75-14.44-1.12-21.07-4.1c-5.53-2.59-9.18-8.35-15.32-9.73C278.99,57.14,273.21,58.44,267.88,60.14 M276.11,112.05
	c-6.44,3.15-13.72,7.67-15.52,15.07c0.42,6.2,1.02,12.46,2.26,18.56c0.38-0.3,1.13-0.91,1.51-1.21c-0.86-6.55-1.06-14.11,3.24-19.57
	c6.87-7.37,17.22-9.75,26.91-10.52c2.93-1.22,2.43-5.27,2.35-7.89C290.08,108.85,282.84,109.61,276.11,112.05 M347.62,114.79
	c-3.101,1.61-0.23,8.88,2.99,5.79C353.57,118.43,350.68,114.13,347.62,114.79 M290.16,122.25c-8.65,4.27-14.1,12.88-18.81,20.97
	l1.39-0.05c4.58-6.46,8.65-13.67,15.36-18.21c4.43-3.03,10.15-0.78,14.83-3.01C298.74,121.23,294.28,121.19,290.16,122.25
	 M326.52,126.36c-1.02,2.69,1.78,5.83,4.551,5.16c2.359-1.49,4.81-3.53,5-6.54c1.069-0.66,2.14-1.33,3.199-2.01
	c-0.279-0.56-0.85-1.68-1.13-2.25C333.54,120.12,328.56,122.02,326.52,126.36 M283.82,135.73c-2.7,2.37-5.66,5.32-5.47,9.21
	c2.06-1.56,2.47-4.43,4.44-6.13c5.57-5.8,13.23-8.84,19.93-13.08c-0.19-0.34-0.58-1.01-0.78-1.34
	C295.93,128.21,289.31,131.14,283.82,135.73 M318.3,123.98c0.54,2.57,1,5.19,1.97,7.66c1.4,3.99,5.74,6.05,9.671,6.57
	c3.68,0.51,6.59-2.21,8.989-4.6c-0.3-0.26-0.89-0.79-1.189-1.05c-2.54,3.01-6.73,5.45-10.601,3.27c-5.17-1.24-6.46-7-7.26-11.49
	C319.48,124.25,318.7,124.07,318.3,123.98 M361.13,126.65c6.38,2.93,12.76,6.3,17.67,11.42c3.79,3.7,4.61,9.17,6.73,13.81
	c3.88,8.5,8.01,16.9,12.689,24.98c3.78,5.09,7.65,10.27,9.88,16.27c1.21,3.49,1.03,7.69-1.55,10.53
	c-6.08,7.449-16.2,10.439-25.55,9.66c-13.53-0.2-26.38-5.101-38.45-10.82c-0.359,0.39-0.71,0.77-1.05,1.16
	c7.79,3.97,16.1,6.98,24.51,9.359c10.32,1.67,21.391,3.561,31.37-0.67c5.91-2.859,12.61-7.34,12.99-14.58
	c-0.48-8.58-6.37-15.36-11.04-22.1c-4.7-8.2-8.95-16.66-12.76-25.32c-1.75-3.7-2.29-7.97-4.92-11.24
	c-5.04-6.45-12.45-10.4-19.721-13.8C361.73,125.64,361.33,126.31,361.13,126.65 M300.41,132.11c-3.07,3.99-8.13,5.28-12.1,8.04
	c-1.62,0.85-1.5,2.73-1.66,4.28c0.42-0.01,1.27-0.02,1.7-0.03c0.03-0.64,0.09-1.92,0.12-2.56c2.33-1.51,4.76-2.84,7.25-4.07
	c4.1-2.07,7.22-5.74,9.17-9.85C302.52,128.06,301.89,130.68,300.41,132.11 M352.82,132.95c-6.86,2.86-14.44,5.91-18.41,12.61
	c-6.92,11.48-7.36,25.51-5.61,38.44c5.9,3.63,12.311,6.49,18.521,9.6c5.739,3.12,12.449,2.15,18.71,2.23
	c5.489,0.18,11.01-1.36,15.569-4.43c3.95-2.63,8.25-4.8,11.811-7.99c3.01-2.6,1.87-7.6-0.771-10.07c-3.58-3.35-7.1-7.2-8.13-12.16
	c-1.7-5.16-2.77-10.6-5.3-15.44c-1.36-3.021-4.8-3.9-7.27-5.74c0.02-2.04-0.631-4.2-2.66-5.05
	C364.31,132.39,358.22,130.65,352.82,132.95 M315.11,131.81c3.68,11.7,1.989,24.13,2.81,36.18c0.09,3.02,1.43,5.8,2.82,8.41
	c4.26,7.5,9.279,14.52,14.26,21.54l1.02-1.08c-5.18-7.55-10.659-14.93-14.939-23.04c-2.16-3.9-1.61-8.51-1.78-12.79
	c-0.21-8.021,0.42-16.16-1.27-24.061C317.46,135.12,317.27,132.54,315.11,131.81 M334.77,204.67c-0.189,1.71,1.561,2.061,2.641,2.75
	c7.75,3.891,15.47,7.85,23.07,12.03c9.75,4.8,21.109,4.58,31.619,3.069c8.351-1.209,14.92-7.479,19.04-14.51
	c-0.279-0.29-0.819-0.85-1.1-1.13c-3.14,5.46-7.64,10.47-13.54,12.95c-10.85,2.91-22.68,3.12-33.32-0.74
	C353.71,214.3,344.54,208.85,334.77,204.67 M244.42,316.4c1.6,4.289,3.81,8.93,8.18,11c4.49,2.149,9.74,0.899,14.22-0.641
	c-0.19-0.32-0.57-0.97-0.76-1.289c-4.38,1.26-9.49,2.489-13.72,0.109c-3.68-2.609-6.18-6.98-6.41-11.5
	C245.42,314.85,244.91,315.62,244.42,316.4 M243.97,340.16c-8.28,1.779-15.99,5.55-22.84,10.47c1.29-0.06,2.69,0.12,3.77-0.75
	c5.52-3.569,11.57-6.521,18.05-7.819c16.91-4.311,34.8-1.141,50.85,4.969c3.74,1.271,7.13,4.201,11.31,3.561
	C286.52,340.779,264.79,336.16,243.97,340.16 M232.27,350.109C232.46,353.37,235.31,348.57,232.27,350.109 M6.57,354.939
	c2.35,8.211,4.68,16.42,7.04,24.621c2.75,6.949,1.13,14.51,1.62,21.77c3.54-0.07,7.08-0.11,10.61,0.07
	c1.03-5.93-0.26-12.021,0.68-17.95c2.75-8.89,5.25-17.86,8.01-26.74c2.38,7.36,4.28,14.87,6.5,22.28c2.87,7.09,1.08,14.869,1.6,22.3
	c3.68-0.021,7.37-0.021,11.05,0.03c0.2-5.76-0.32-11.561,0.25-17.291c1.75-5.609,3.22-11.289,5.05-16.869
	c1.12-3.439,1.58-7.141,3.4-10.32c1.75,7.26,4.03,14.381,6.02,21.59c2.97,7.26,1.5,15.19,1.79,22.811c3.7,0.069,7.4,0.029,11.1,0.05
	c0.15-5.75-0.29-11.54,0.21-17.271c2.72-9.069,5.29-18.199,8.19-27.209c2.37,7.35,4.22,14.879,6.52,22.26
	c2.67,7.1,0.99,14.81,1.5,22.199c3.68,0.011,7.37-0.02,11.05,0.07c0.35-5.74-0.27-11.529,0.32-17.25
	c2.78-9.08,5.04-18.359,8.33-27.279c1.97,7.42,4.15,14.779,6.31,22.14c2.67,7.14,1.16,14.87,1.52,22.3
	c3.71,0.04,7.41,0.03,11.12,0.05c0.18-5.71-0.33-11.45,0.25-17.13c2.71-9.109,5.21-18.279,8.21-27.3
	c2.37,7.229,4.13,14.64,6.42,21.899c2.64,7.211,1.08,15.021,1.49,22.521c3.74-0.01,7.49-0.021,11.24,0
	c0.11-5.46-0.16-10.931,0.11-16.39c2.49-10.101,6.04-19.93,8.61-30c-3.61,0.039-7.22,0.06-10.83,0.01
	c-1.64,5.92-2.56,11.99-3.31,18.09c-0.63-6.02-2.23-11.891-3-17.891c-7.12-0.33-14.25-0.199-21.37-0.069
	c-1.47,5.59-2.19,11.34-3.27,16.989c-0.92-5.619-2.15-11.199-2.83-16.869c-7.18-0.36-14.39-0.381-21.57-0.01
	c-1.38,5.67-2.11,11.449-3.18,17.18c-0.92-5.73-2.01-11.439-2.82-17.189c-7.13-0.42-14.3-0.16-21.44-0.15
	c-1.6,5.609-2.01,11.48-3.35,17.14c-0.9-5.67-1.96-11.319-2.77-17.01c-7.19-0.3-14.4-0.29-21.59-0.03
	c-1.25,5.891-2.32,11.82-2.96,17.811c-1.21-5.851-2.08-11.771-2.91-17.68c-7.17-0.631-14.38-0.131-21.57-0.281
	c-1.51,5.94-2.16,12.041-3.4,18.041c-0.6-6-1.79-11.91-2.66-17.86C14.1,354.83,10.33,354.93,6.57,354.939 M174.7,354.93
	c-0.01,15.461,0.03,30.91,0,46.37c6.98-0.04,13.97-0.03,20.96,0c0.01-3.13,0.01-6.26-0.03-9.39c-3,0.08-6,0.07-8.99,0.029
	c0.01-3.369,0.01-6.729,0.01-10.09c2.54,0.01,5.09,0,7.63-0.06c-0.07-2.91-0.08-5.81-0.12-8.71c-2.49,0.061-4.98,0.08-7.47,0.08
	c-0.04-2.98-0.05-5.95-0.06-8.92c2.7-0.051,5.39-0.04,8.09,0.02c0.07-3.08,0.08-6.16,0.07-9.23
	C188.1,354.82,181.4,354.98,174.7,354.93 M198.86,354.971c0.01,15.439,0,30.879,0,46.319c6.98-0.01,13.97-0.03,20.95,0.01
	c0.02-3.13,0.02-6.26-0.02-9.39c-3.01,0.15-6.01,0.109-9-0.03c0.02-3.34,0.02-6.68,0.01-10.021c2.54,0,5.09-0.01,7.64-0.06
	c-0.11-2.86-0.12-5.729,0.02-8.579c-2.43-0.23-4.99,0.329-7.31-0.451c-0.83-2.689-0.13-5.699-0.35-8.5
	c2.68-0.09,5.37-0.09,8.06,0.03c0.19-3.13,0.14-6.26,0.08-9.38C212.25,354.96,205.55,354.891,198.86,354.971 M223.13,354.96
	c0.02,15.46-0.11,30.931,0.07,46.39c6.85-0.119,13.71-0.109,20.57,0c0.38-3.08,0.42-6.189,0.26-9.279
	c-2.98-0.131-5.97-0.17-8.95-0.131c0.01-3.369,0.01-6.739-0.01-10.1c2.49-0.01,4.98,0.01,7.47,0.061c0.04-2.92,0.05-5.83,0.07-8.74
	c-2.45-0.1-4.9-0.09-7.33,0.09c-0.25-3.02-0.23-6.05-0.17-9.07c2.68,0.051,5.37,0.03,8.06,0c-0.02-3.08,0-6.15,0-9.22
	C236.49,354.91,229.81,354.92,223.13,354.96 M247.26,355.029c0.18,15.451-0.23,30.931,0.2,46.381c6.93-0.28,13.86-0.061,20.79-0.141
	c-0.02-3.06-0.02-6.109-0.01-9.17c-3-0.05-6-0.06-8.99-0.039c-0.06-3.41-0.05-6.82-0.05-10.23c2.54,0.01,5.08,0.02,7.63,0.029
	c-0.02-2.92-0.03-5.83-0.02-8.739c-2.54,0.05-5.08,0.04-7.62-0.091c0.02-2.949,0.02-5.899,0-8.84c2.73,0.021,5.46,0.021,8.19,0.021
	c0-3.101,0-6.19,0-9.28C260.67,354.98,253.97,354.82,247.26,355.029 M271.38,355.12c0.26,15.399-0.05,30.8,0.16,46.2
	c6.92-0.08,13.84-0.03,20.76-0.03c0.04-3.04,0.06-6.08,0.12-9.11c-3-0.32-6.02-0.289-9.03-0.1c-0.05-3.42-0.05-6.83-0.05-10.24
	c2.54,0,5.08,0,7.62,0.02c0.01-2.92,0-5.83-0.03-8.739c-2.51,0.021-5.02,0.021-7.52,0.04c-0.07-2.99-0.08-5.971-0.07-8.96
	c2.74,0,5.47,0.01,8.21,0.03c-0.01-3.051,0-6.101,0.06-9.141C284.87,354.859,278.11,354.779,271.38,355.12 M295.61,354.93
	c0,15.461,0,30.91,0,46.36c6.92,0.01,13.85-0.08,20.77,0.05c0.11-3.08,0.11-6.16,0.14-9.23c-2.979-0.06-5.96-0.08-8.93-0.049
	c-0.01-3.42-0.02-6.82-0.02-10.23c2.529-0.01,5.06,0.01,7.59,0.109c0.08-2.949,0.07-5.899,0.01-8.84
	c-2.52,0.041-5.04,0.051-7.56,0.07c-0.03-2.99-0.04-5.99-0.04-8.98c2.699,0.011,5.41,0.021,8.12,0.051
	c0.029-3.061,0.05-6.12,0.06-9.18C309.04,354.79,302.32,354.99,295.61,354.93 M319.74,355.04c-0.021,15.41,0,30.83,0,46.24
	c6.95,0,13.899-0.021,20.85,0.02c0.021-3.13,0.01-6.26-0.03-9.39c-2.92,0.04-5.829,0.109-8.739,0.17
	c0.01-3.42,0.01-6.82-0.021-10.23c2.55,0.01,5.101-0.01,7.66-0.07c-0.08-2.859-0.08-5.719,0-8.569c-2.55-0.08-5.09-0.08-7.63-0.069
	c-0.021-2.99-0.021-5.98,0.02-8.971c2.65,0.03,5.29,0.04,7.94,0.061c0.05-3.101,0.05-6.211,0.01-9.311
	C333.11,355,326.43,354.811,319.74,355.04 M343.8,355.15c0.061,15.369,0.021,30.74,0.021,46.119c6.949,0.03,13.89-0.01,20.84,0.021
	c0.08-3.13,0.109-6.261,0.07-9.38c-2.891,0.08-5.78,0.14-8.671,0.14c-0.13-3.399-0.14-6.8-0.109-10.2
	c2.55-0.01,5.109-0.01,7.68-0.02c-0.04-2.88-0.04-5.76,0.021-8.63c-2.511-0.07-5.021-0.07-7.521-0.05
	c-0.18-2.98-0.229-5.971-0.13-8.95c2.72,0.01,5.44,0.01,8.17-0.011c-0.01-3.029-0.02-6.049-0.01-9.069
	C357.38,354.84,350.58,354.79,343.8,355.15 M371.53,354.93c-2.17,15.44-4,30.93-6.25,46.36c4.14-0.17,8.31,0.28,12.439-0.18
	c0.67-2.601,0.61-5.29,0.721-7.95c1.489-0.03,2.97-0.051,4.47-0.061c0.16,2.76,0.34,5.521,0.7,8.261
	c4.01-0.141,8.04-0.08,12.06-0.07c-2-15.45-4.43-30.84-6.8-46.24C383.1,354.811,377.31,354.99,371.53,354.93 M402.42,355.109
	c-0.88,9.181-2.43,18.281-3.61,27.431c-0.569,6.28-1.52,12.521-2.449,18.75c4.06,0,8.12-0.1,12.18,0.11
	c0.9-2.641,0.77-5.45,0.86-8.2c1.5-0.05,3-0.091,4.51-0.11c0.22,2.74,0.47,5.5,0.74,8.25c4.01-0.09,8.029-0.07,12.05-0.03
	c-1.94-15.45-4.44-30.819-6.74-46.22C414.12,354.85,408.26,354.82,402.42,355.109 M433.43,355.12
	c-1.67,15.43-4.05,30.771-5.93,46.17c4.12-0.16,8.26,0.27,12.37-0.18c0.54-2.601,0.47-5.271,0.58-7.91
	c1.52-0.05,3.03-0.091,4.56-0.12c0.16,2.75,0.41,5.49,0.73,8.229c4.01-0.05,8.02-0.04,12.04-0.02
	c-2.061-15.479-4.44-30.91-6.79-46.351C445.13,355.01,439.27,354.74,433.43,355.12 M463.25,365.891
	c-1.71,11.779-3.19,23.59-4.68,35.399c4.13-0.021,8.27,0,12.41-0.03c0.18-2.76,0.409-5.51,0.739-8.25
	c1.46,0.04,2.92,0.08,4.391,0.131c0.159,2.719,0.359,5.449,0.62,8.169c4.05-0.06,8.09-0.04,12.14-0.01
	c-2.08-15.47-4.521-30.89-6.82-46.329c-5.71,0-11.43-0.16-17.13,0.039C463.48,358.3,463.9,362.311,463.25,365.891 M494.16,366.96
	c-1.58,11.431-3.16,22.87-4.5,34.33c4.13-0.021,8.26,0,12.39-0.021c0.141-2.77,0.391-5.52,0.811-8.26c1.42,0.051,2.859,0.1,4.3,0.15
	c0.189,2.71,0.39,5.42,0.57,8.14c4.079-0.04,8.17,0.01,12.26-0.05c-2.3-15.439-4.55-30.891-6.91-46.311
	c-5.72,0.07-11.45-0.18-17.17,0.101C494.61,358.82,494.8,363.02,494.16,366.96 M520.7,401.29c4.12-0.021,8.24-0.021,12.37,0.01
	c0.17-2.77,0.439-5.521,0.8-8.26c1.45,0.03,2.91,0.069,4.37,0.11c0.14,2.709,0.31,5.42,0.52,8.13c4.101-0.011,8.2,0.01,12.311,0
	c-2.36-15.45-4.521-30.921-6.931-46.351c-5.79,0-11.59,0.021-17.38-0.02C524.69,370.37,522.54,385.811,520.7,401.29 M557.83,354.93
	c-2.13,15.44-4.17,30.891-6.11,46.36c4.12-0.021,8.25-0.021,12.38,0.01c0.24-2.78,0.521-5.55,0.851-8.31
	c1.439,0.06,2.88,0.13,4.33,0.199c0.12,2.69,0.279,5.391,0.42,8.091c4.16,0,8.319,0,12.479,0c-2.37-15.37-4.8-30.72-6.79-46.14
	C569.54,354.7,563.68,355.04,557.83,354.93 M582.72,401.26c4.141,0.021,8.28,0.01,12.42,0.04c0.311-2.75,0.62-5.51,0.82-8.271
	c1.48,0.07,2.98,0.15,4.47,0.25c-0.01,2.66,0.11,5.331,0.29,7.99c4.24,0.011,8.48,0,12.73,0.021c-2.16-9.31-2.79-18.87-4.49-28.261
	c-1.11-6.01-1.64-12.109-2.67-18.129c-5.8,0.07-11.6,0.02-17.39,0.029C586.68,370.35,584.78,385.82,582.72,401.26 M619.97,354.939
	c-1.09,6.961-2.069,13.94-2.79,20.961c-0.979,8.459-2.72,16.84-3.149,25.359c4.069,0.021,8.14,0.04,12.21-0.01
	c0.26-2.71,0.529-5.42,0.75-8.141c1.439,0.021,2.899,0.051,4.37,0.101c0.09,2.69,0.229,5.38,0.39,8.08
	c4.19-0.01,8.37-0.01,12.56-0.01c-2.439-15.351-4.779-30.72-6.84-46.12C631.65,354.689,625.8,355.029,619.97,354.939z"/>
<path fill="#DA0000" d="M498.43,4.76c4.051,0.1,8.11,0.09,12.17,0.01c1.53,10.72,1.511,21.63,2.9,32.39
	c0.87-10.8,1.39-21.67,3.33-32.35c7.689,0.05,15.37-0.04,23.06,0.05c1.19,10.35,1.46,20.78,2.57,31.12
	c0.21-10.29,2.45-20.43,3.16-30.69c4.189-0.97,8.53-0.25,12.79-0.48c1.12,10.7,1.35,21.47,2.53,32.17
	c1.149-10.6,1.529-21.31,3.39-31.83c7.53-0.83,15.37,0,23.02-0.4c1.131,10.33,1.771,20.71,2.67,31.07
	c0.73-10.39,1.891-20.74,3.5-31.03c4.061,0.05,8.12,0.07,12.181-0.04c1.84,10.68,1.46,21.6,2.819,32.34
	c0.86-10.77,1.841-21.55,3.311-32.26c3.92-0.01,7.84,0,11.76-0.03c-1.88,15.45-3.439,30.94-5.399,46.39c-5,0-10,0.05-15-0.03
	c-1.551-7.73-2.671-15.52-3.421-23.36c-1.789,7.67-2.159,15.6-3.649,23.31c-4.99,0.24-9.98,0-14.97,0.1
	c-1.471-14.79-3.57-29.5-4.96-44.3c-2.721,14.61-3.45,29.57-5.551,44.3c-4.97,0-9.939-0.06-14.899,0.05
	c-1.57-7.71-2.891-15.47-3.55-23.31c-1.681,7.65-2.391,15.51-3.53,23.26c-4.98,0-9.95-0.07-14.93,0.04
	c-1.95-14.77-3.271-29.62-5.391-44.38c-2.04,14.73-3.33,29.58-5.27,44.33c-5.051-0.01-10.101,0.01-15.141-0.01
	c-1.08-7.8-2.649-15.52-3.55-23.35c-0.91,7.81-2.52,15.52-3.2,23.36c-5.029-0.01-10.06,0.01-15.09-0.01
	c-1.899-14.74-3.03-29.6-5.38-44.26c-1.91,14.78-3.21,29.64-5.32,44.38c-4.979-0.22-9.96-0.07-14.93-0.1
	c-1.34-7.74-2.59-15.48-3.61-23.26c-1.09,7.76-2.33,15.5-3.399,23.26c-4.92,0-9.84-0.05-14.76,0.04
	c-2.24-14.71-3.12-29.6-5.511-44.3c-1.84,14.72-3.51,29.49-5.13,44.25c-5.08,0-10.16,0.02-15.24-0.02
	c-1.21-7.75-2.399-15.51-3.649-23.25c-1.04,7.65-1.891,15.35-3.3,22.95c-4.86,0.78-9.931,0.09-14.87,0.31
	c-1.971-14.77-3.101-29.65-5.34-44.39c-1.78,14.79-3.641,29.59-5.15,44.41c-5.1-0.07-10.21,0.09-15.32-0.09
	c-1.189-7.85-2.33-15.72-3.54-23.57c-1.069,7.9-1.949,15.83-3.359,23.68c-4.94-0.05-9.87-0.03-14.8-0.02
	c-2-15.45-3.591-30.93-5.431-46.4c3.891,0.03,7.79-0.06,11.69,0.1c1.109,10.35,1.01,20.83,2.67,31.11
	c0.58-10.29,1.55-20.59,3.13-30.77c3.93-1.03,8.46-0.14,12.62-0.41c0.66,10.41,1.81,20.77,2.57,31.17
	c1.09-10.26,1.399-20.68,3.529-30.82c1.42-0.76,3.181-0.24,4.74-0.39c6.15,0.26,12.35-0.43,18.46,0.39
	c0.65,10.27,1.49,20.52,1.99,30.8c1.6-10.26,1.88-20.71,3.729-30.91c4.07-0.63,8.24-0.06,12.351-0.27
	c1.33,10.73,1.47,21.59,3.06,32.29c0.23-10.7,1.51-21.34,2.97-31.92c7.71-0.8,15.511-0.14,23.261-0.36
	c1.26,10.35,1.21,20.83,2.62,31.14c0.34-10.32,2.199-20.53,3.04-30.82c4.239-0.63,8.539-0.2,12.81-0.31
	c0.81,10.72,1.45,21.49,2.74,32.16c0.6-10.73,1.43-21.47,3.21-32.08c7.6-0.14,15.22-0.15,22.819-0.02
	c1.761,9.8,1.66,20.19,2.721,30.21C495.97,24.99,496.73,14.8,498.43,4.76z"/>
<path fill="#DA0000" d="M35.81,4.88c5.85,0.07,11.74-0.45,17.56,0.3c0.71,6.94,2.25,13.76,3.04,20.69
	c0.96,8.47,2.93,16.81,3.57,25.33c-4.04,0-8.08,0-12.12,0c-0.25-2.82-0.5-5.64-0.71-8.46c-1.45,0.04-2.91,0.07-4.36,0.11
	c-0.24,2.74,0.04,5.58-0.67,8.26c-4.16,0.24-8.33,0.02-12.49,0.09C31.87,35.79,33.81,20.33,35.81,4.88 M42.62,34.66
	c1.38,0.05,2.77,0.1,4.15,0.15c-0.43-6.28-1.21-12.53-1.45-18.82C43.58,22.07,43.59,28.45,42.62,34.66z"/>
<path fill="#DA0000" d="M66.67,5.29c5.84-0.82,11.89-0.65,17.75-0.1c0.68,6.33,2.05,12.55,2.8,18.87c0.98,9.09,3.14,18.01,3.8,27.14
	c-4.04,0-8.08-0.01-12.12,0.02c-0.2-2.81-0.44-5.61-0.7-8.41c-0.91-0.05-2.75-0.16-3.67-0.21c-1.53,2.61-0.49,5.76-1.41,8.52
	c-4.2,0.23-8.41,0-12.61,0.09c1.28-6.66,2.1-13.39,2.9-20.12C64.23,22.46,66.11,13.95,66.67,5.29 M73.63,34.64
	c1.4,0.06,2.8,0.12,4.2,0.17c-0.54-6-1.1-12-1.51-18.01C74.51,22.55,74.65,28.72,73.63,34.64z"/>
<path fill="#DA0000" d="M97.76,5.11c5.8-0.63,11.65-0.13,17.47-0.29c1.04,5.91,2.03,11.84,2.8,17.8c1.17,9.55,3.2,18.98,4.05,28.58
	c-4.06,0-8.11,0-12.16,0c-0.24-2.75-0.04-5.58-0.8-8.25c-1.35-0.19-2.7-0.26-4.06-0.22c-0.36,2.83-0.57,5.67-0.79,8.51
	c-4.22-0.07-8.44-0.04-12.66-0.03c1.92-9.61,2.52-19.42,4.06-29.09C96.44,16.46,97.43,10.82,97.76,5.11 M107.4,15.9
	c-1.4,6.19-1.99,12.55-2.59,18.86c1.37-0.01,2.74-0.01,4.12-0.02C108.25,28.48,107.62,22.2,107.4,15.9z"/>
<path fill="#DA0000" d="M128.81,5.57c0.23-0.17,0.7-0.52,0.93-0.7c5.45-0.07,10.92-0.17,16.36,0.07c2.12,8.15,2.57,16.72,4.03,25.03
	c1.26,7.05,2.13,14.17,3.16,21.25c-4.11-0.03-8.22-0.02-12.32-0.03c-0.11-2.82-0.33-5.64-0.66-8.45c-1.41,0.01-2.82,0.02-4.23,0.03
	c-0.36,2.81-0.57,5.64-0.77,8.47c-4.21-0.07-8.43-0.04-12.65-0.03c1.71-8.32,2.2-16.82,3.48-25.2
	C127.21,19.22,128.04,12.4,128.81,5.57 M136,34.75c1.32,0.01,2.65,0.02,3.98,0.04c-0.6-6.28-1.45-12.54-1.51-18.86
	C137.04,22.09,136.41,28.44,136,34.75z"/>
<path fill="#DA0000" d="M160.09,5.09c5.7-0.68,11.51-0.01,17.26-0.32c2.55,15.44,4.68,30.96,6.96,46.44
	c-4.11-0.02-8.21-0.01-12.31-0.01c-0.12-2.85-0.28-5.69-0.67-8.51c-1.41,0.04-2.82,0.07-4.23,0.09c-0.28,2.82-0.52,5.64-0.81,8.46
	c-4.12-0.07-8.24-0.03-12.36-0.04C155.97,35.83,157.92,20.42,160.09,5.09 M168.73,16.52c0.09,6.14-1.53,12.15-1.8,18.27
	c1.37-0.02,2.75-0.03,4.13-0.05c-0.65-6.09-1.44-12.18-1.66-18.31C169.23,16.45,168.9,16.5,168.73,16.52z"/>
<path fill="#DA0000" d="M191.19,4.8c5.72,0.35,11.85-0.59,17.31,0.45c2.52,15.28,4.62,30.65,6.89,45.97
	c-4.07-0.26-8.25,0.44-12.24-0.33c-0.42-2.69-0.41-5.42-0.6-8.13c-1.42-0.01-2.84-0.03-4.26-0.05c-0.38,2.84-0.68,5.69-0.97,8.54
	c-4.11-0.09-8.22-0.03-12.33-0.07C187.01,35.71,188.99,20.24,191.19,4.8 M198.01,34.75c1.34,0.01,2.68,0.03,4.02,0.04
	c-0.48-6.27-1.28-12.5-1.77-18.77C199.31,22.24,198.62,28.5,198.01,34.75z"/>
<path fill="#DA0000" d="M222.19,4.83c5.73-0.06,11.47,0.11,17.19-0.11c1.55,6.37,1.84,12.97,3.01,19.41
	c1.59,9,2.64,18.08,4.01,27.12c-4.03-0.07-8.06-0.1-12.09,0.04c-0.68-2.79-0.55-5.68-0.71-8.53c-1.45,0-2.89,0.01-4.32,0.01
	c-0.3,2.84-0.58,5.68-0.97,8.5c-4.07-0.12-8.14-0.08-12.21-0.04C217.98,35.74,220.05,20.28,222.19,4.83 M229.05,34.76
	c1.39,0,2.78,0,4.18,0c-0.77-6.25-1.4-12.51-1.97-18.77C230.27,22.21,229.77,28.5,229.05,34.76z"/>
<path fill="#DA0000" d="M253.15,4.9c5.8,0.07,11.76-0.5,17.46,0.25c2.48,15.33,4.51,30.74,6.94,46.09c-4-0.04-8.01-0.13-12.01,0.09
	c-1.14-2.71-0.66-5.71-0.94-8.56c-1.07-0.01-3.22-0.02-4.29-0.02c-0.29,2.82-0.55,5.64-0.74,8.47c-4.11-0.03-8.22-0.04-12.32,0.021
	C248.82,35.74,251.33,20.36,253.15,4.9 M260.09,34.78c1.42-0.021,2.83-0.05,4.26-0.08c-0.85-5.94-1.21-11.93-2.11-17.86
	C261.17,22.75,260.9,28.82,260.09,34.78z"/>
<path fill="#DA0000" d="M284.28,4.85c5.81-0.05,11.63-0.04,17.44,0c2.21,15.47,4.48,30.93,6.95,46.35
	c-4.05,0.02-8.11-0.1-12.15,0.15c-0.95-2.78-0.75-5.73-0.92-8.61c-1.06,0.01-3.19,0.02-4.26,0.03c-0.26,2.68-0.33,5.38-0.75,8.04
	c-3.89,0.97-8.26,0.08-12.32,0.4C279.93,35.72,282.24,20.3,284.28,4.85 M291.14,34.78c1.06-0.021,3.18-0.04,4.23-0.05
	c-0.78-5.97-1.19-11.98-2.06-17.93C292.07,22.69,292.02,28.81,291.14,34.78z"/>
<path fill="#DA0000" d="M312.9,22.98c0.81-6.1,1.31-12.26,2.68-18.27c5.689,0.47,11.54-0.41,17.14,0.44
	c2.431,15.33,4.44,30.75,6.98,46.07c-4.12-0.02-8.24-0.09-12.351,0.07c-0.409-2.83-0.609-5.68-0.739-8.53c-1.04,0-3.11,0-4.141,0.01
	c-0.29,2.79-0.55,5.58-0.75,8.38c-4.149,0.1-8.29,0.03-12.43,0.07C310.05,41.75,311.86,32.42,312.9,22.98 M322.26,34.78
	c1.4-0.021,2.8-0.05,4.2-0.08c-0.76-6.27-1.45-12.55-1.95-18.85C323.2,22.07,323.01,28.48,322.26,34.78z"/>
<path fill="#FCFEFE" d="M42.62,34.66c0.97-6.21,0.96-12.59,2.7-18.67c0.24,6.29,1.02,12.54,1.45,18.82
	C45.39,34.76,44,34.71,42.62,34.66z"/>
<path fill="#FCFFFF" d="M107.4,15.9c0.22,6.3,0.85,12.58,1.53,18.84c-1.38,0.01-2.75,0.01-4.12,0.02
	C105.41,28.45,106,22.09,107.4,15.9z"/>
<path fill="#FCFFFF" d="M136,34.75c0.41-6.31,1.04-12.66,2.47-18.82c0.06,6.32,0.91,12.58,1.51,18.86
	C138.65,34.77,137.32,34.76,136,34.75z"/>
<path fill="#FCFFFD" d="M168.73,16.52c0.17-0.02,0.5-0.07,0.67-0.09c0.22,6.13,1.01,12.22,1.66,18.31
	c-1.38,0.02-2.76,0.03-4.13,0.05C167.2,28.67,168.82,22.66,168.73,16.52z"/>
<path fill="#FFFFFF" d="M198.01,34.75c0.61-6.25,1.3-12.51,2.25-18.73c0.49,6.27,1.29,12.5,1.77,18.77
	C200.69,34.78,199.35,34.76,198.01,34.75z"/>
<path fill="#FFFFFF" d="M229.05,34.76c0.72-6.26,1.22-12.55,2.21-18.77c0.57,6.26,1.2,12.52,1.97,18.77
	C231.83,34.76,230.44,34.76,229.05,34.76z"/>
<path fill="#FBFEF9" d="M322.26,34.78c0.75-6.3,0.94-12.71,2.25-18.93c0.5,6.3,1.19,12.58,1.95,18.85
	C325.06,34.73,323.66,34.76,322.26,34.78z"/>
<path fill="#FCFFFD" d="M73.63,34.64c1.02-5.92,0.88-12.09,2.69-17.84c0.41,6.01,0.97,12.01,1.51,18.01
	C76.43,34.76,75.03,34.7,73.63,34.64z"/>
<path fill="#FDFFFF" d="M260.09,34.78c0.81-5.96,1.08-12.03,2.15-17.94c0.9,5.93,1.26,11.92,2.11,17.86
	C262.92,34.73,261.51,34.76,260.09,34.78z"/>
<path fill="#FCFFFF" d="M291.14,34.78c0.88-5.97,0.93-12.09,2.17-17.98c0.87,5.95,1.28,11.96,2.06,17.93
	C294.32,34.74,292.2,34.76,291.14,34.78z"/>
<path fill="#030303" d="M267.88,60.14c5.33-1.7,11.11-3,16.67-1.59c6.14,1.38,9.79,7.14,15.32,9.73c6.63,2.979,14.14,2.35,21.07,4.1
	c6.35,2.81,10.63,8.58,15.34,13.43c6.819,0.28,14.529,2.37,17.88,8.92c1.899,5.06,5.75,8.95,9.28,12.9
	c2.649,1.71,5.909,2.43,8.279,4.63c8.851,7.33,15.54,16.83,21.83,26.35c3.49,5.07,4.561,11.24,6.7,16.91
	c3.08,8.48,5.8,17.14,9.69,25.3c3.64,4.55,5.659,10.34,5.47,16.18c0.1,4.67-1.68,9.13-1.51,13.811c3.09,1.549,5.02,4.52,7.05,7.189
	c4.78,6.72,8.33,14.641,8.6,22.98c0.601,10.06,1.3,20.129,1.54,30.209c0.53,11.15,1.2,22.311,0.72,33.48
	c17.051-1.08,34.141-1.8,51.23-1.16c12.02,1.221,24.33,1.711,35.8,5.9c12.55,4.99,21.92,16.21,26.47,28.73
	c1.141,4.27,2.971,8.359,3.54,12.77c-0.359-0.1-1.09-0.29-1.449-0.381c-1.37-4.319-2-8.859-3.811-13.029
	c-5.06-13.27-15.979-24.83-30.01-28.391c-26.8-6.35-54.57-4.369-81.82-3.18c0.431,4.92,0.15,9.92-1.55,14.6
	c-1.52,3.791-1.65,8.811,1.521,11.801c7.989,2.58,13.149,10.689,14.119,18.73c-0.319-0.15-0.979-0.461-1.3-0.61
	c-1.95-6.44-5.08-13.96-12.16-16.011c-3.09-1.069-3.76-4.609-4.949-7.229c-0.671,1.95-1.28,4.09-3.061,5.33
	c-0.13,1.55-0.24,3.11-0.32,4.67l-1.479-0.06c0.57-15.7,1.18-31.42,0.41-47.121c-0.391-4.379-0.25-8.869-1.521-13.109
	c-3.859-10.029-9.09-19.87-9.779-30.79c-0.73-5.89,0.29-11.899-0.75-17.729c0.63,0.51,1.27,1.01,1.92,1.5
	c-0.12,6.02-0.25,12.069,0.399,18.06c1.33,8.58,4.67,16.64,8.12,24.55c2.78,6.09,2.811,12.93,3.4,19.471
	c0.489,12.74,0.239,25.5-0.29,38.229c3.66-6.41,6.17-13.729,5.7-21.19c-0.381-5.34,0.6-10.67,0.279-16.02
	c-0.54-12.35-0.77-24.71-1.319-37.05c-0.7-8.87-0.15-18.07-3.42-26.511c-2.62-6.629-6.82-12.609-11.891-17.6
	c-0.41,5.08-1.229,10.221-0.52,15.311c-0.471,0.109-1.42,0.319-1.891,0.43c0.59-9.18,0.431-18.49,2.391-27.52
	c0.72-4.92-0.25-10-2.271-14.5c-3.49-4.27-5.28-9.53-7.18-14.63c-3.65-9.24-6.53-18.76-9.91-28.1
	c-4.85-8.33-10.64-16.13-17.02-23.36c-3.95-4.12-8.16-8.77-14.101-9.729c-0.82-0.95-1.63-1.9-2.439-2.85
	c-5,0.81-10.04-0.11-15.03-0.45c-0.62-1.03-1.25-2.03-1.89-3.04c4.409,0.06,8.6-1.35,12.93-1.81l0.13-0.36
	c-6.78-1.64-13.53,0.19-20.14,1.68c0.119-0.38,0.34-1.14,0.46-1.52c5.689-1.18,11.689-3.34,17.5-1.75
	c-1.24-4.21-3.9-7.97-7.761-10.15c-4.31,0.96-8.75,0.68-13.069,1.35c-6.351,2.76-11.34,7.85-16.16,12.68
	c2.8,1.65,5.66,3.81,9.09,3.65c4.66-0.16,9.32-2.07,13.98-0.8c4.449,1.11,9.369,2.39,12.39,6.12c1.92,3.55,2.38,8.12,0.939,11.91
	c-1.029,2.25-3.67,1.68-5.64,1.63c0.12-0.39,0.36-1.16,0.48-1.54c0.72,0.03,2.17,0.1,2.89,0.13c2.64-1.91,1.68-5.83,1.23-8.58
	c-1.08-4.94-6.591-6.4-10.73-7.82c-5.44-2.03-11.03,0.41-16.56,0.271c-4.25-0.2-7.7-2.97-11.051-5.28
	c-1.25-0.99-3.05-1.88-2.899-3.75c2.08,1.09,3.939,2.53,5.77,4c-0.359-3.84-0.689-7.68-1.01-11.53c4.07-1.83,8.07-3.83,12.31-5.26
	c-5.5-1.04-8.829-6.03-13.89-7.97c-6.03-2.63-12.76-2.25-19.18-2.3c-6.34,0.2-13.1-0.37-18.82,2.9
	c-10.44,5.16-21.72,10.83-27.86,21.22c-4.08,9.5-5.45,20.46-2.87,30.54c2.77,5.49,4.81,11.3,5.95,17.35
	c1.9,5.37,2.04,11.62,5.92,16.09c6.46,8.66,9.88,19.09,12.75,29.37c5.93,9.38,12.86,18.31,17.1,28.649
	c0.7,6.2,2.37,12.391,1.76,18.67c1.28,0.471,2.61,0.9,3.7,1.78c0.64-1.229,1.38-2.45,2.59-3.22c-0.17,1.439-0.46,2.85-0.86,4.24
	c2.29,3.08,2.6,6.85,3.06,10.5c3.46,8.47,7.17,16.99,12.55,24.449c8.69,10.971,20.34,19.17,32.56,25.791
	c9.761,5.47,22.04,3.959,31.351,10.479c13.07,9.011,25.51,20.149,32.2,34.83c-0.261,0.2-0.79,0.601-1.061,0.8
	c-7.05-14.439-19.09-25.79-32.33-34.58c-9.25-6.16-21.31-4.68-30.85-10.21c-10.09-5.38-19.65-11.95-27.71-20.11
	c-8.42-8.17-13.35-19.14-17.55-29.899c-1.45,2.56-3.22,5.45-6.42,5.91c-3.53,0.87-6.65-1.601-8.36-4.45
	c-2.04,0.35-4.11,0.95-6.19,0.62c-2.26-0.69-3.95-2.42-5.61-3.99c-1.01,3.28-3.97,5.25-6.04,7.81
	c-6.18,7.091-12.68,14.461-15.47,23.641c-2.79,9.35-5.03,19.02-4.27,28.85c-1-1.26-1.59-2.81-1.4-4.43
	c-0.12-7.141,1-14.26,3.19-21.05c2.73-13.431,12.84-23.42,21.59-33.29c1.85-5.57,2.64-11.44,4.11-17.11
	c3.39-8.399,3.02-17.93,0.4-26.479c-4.06-15.101-13.6-27.771-20.77-41.44c-6.26-12.02-13.83-23.29-21.46-34.47
	c-4.61-7.28-2.2-16.09-1.85-24.08c0.54,0.67,1.1,1.34,1.65,2.01c-0.78,6.89-2.21,14.47,1.21,20.88
	c7.67,11.18,15.22,22.47,21.54,34.47c4.83,9.4,10.88,18.11,15.45,27.64c0.61,1.29,1.72,2.41,1.51,3.96c0.39-0.57,1.18-1.72,1.57-2.3
	c0.62,6.8,3.44,13.14,4.08,19.93c0.49,2.6-0.1,5.58,1.68,7.78c3.3,4.92,6.37,10.02,8.7,15.479c1.91,0.65,2.37-1.52,2.34-2.949
	c0.12-4.74-1.28-9.32-1.8-13.99c-0.18-2.04-0.89-3.98-1.82-5.79c-3.77-7.15-8.34-13.82-12.69-20.62c-0.57,0.08-1.71,0.25-2.28,0.33
	c-2-12.68-6.52-25.26-14.54-35.41c-4.11-8.65-4.61-18.52-8.41-27.29c-3.21-4.76-3.39-10.69-3.37-16.23
	c0.08-7.76,1.31-15.83,5.53-22.48c6.61-9.08,16.83-14.47,26.65-19.38c7.03-3.74,15.24-3.14,22.95-3.28
	c7.29,0.01,15.2,0.52,21.29,4.98c2,1.3,3.641,3.13,5.82,4.15c2.479,1.08,5.24,1.17,7.89,1.47c-3.939-4.32-7.85-9.02-13.109-11.76
	c-5.971-1.21-12.21-1.04-18.07-2.96c-6.88-1.29-10.83-7.87-17.03-10.49c-7.34-2.05-15.36-0.37-21.88,3.37
	c-4.33,2.64-7.81,6.4-11.58,9.73c-3.85,3.47-8.22,6.44-11.41,10.58c-2.98,3.99-7.15,7.27-8.63,12.21
	c-1.36,5.27-0.66,10.78-1.29,16.15c-1.53-1.9-1.38-4.22-0.96-6.47c-8.69,8.97-17.13,18.81-21.58,30.65
	c-1.91,6.65-0.46,13.7-1.64,20.48c0.03,13.39,2.02,26.73,4.47,39.87c1.35,4.91,2.52,10.011,5.32,14.341
	c6.54,10.899,17.36,18.67,22.8,30.299c2.86,5.67,2.96,12.301,1.92,18.451c-3.25,15.76-14.46,28.899-15.93,45.149
	c-0.65,14.61,12.44,27.8,26.71,28.86c6.04-0.801,11.8-3.721,16.56-7.381c-0.1-0.33-0.31-0.99-0.41-1.319
	c4.73-1.63,9.84-2.96,14.87-2.13c10.95,2.539,21.58,6.34,31.87,10.88c7.83,3.59,15.62,7.42,22.53,12.61
	c1.63,1.209,3.02,2.709,4.24,4.319c-1.16-0.26-2.391-0.44-3.19-1.399c-5.6-5.11-12.51-8.471-19.22-11.851
	c-9.51-4.56-19.4-8.3-29.51-11.3c-5.52-1.49-11.54-3.02-17.04-0.59c-6.63,4.33-13.59,9.48-21.8,9.74
	c-14.82-2.051-28.5-15.931-27.06-31.461c1.73-15.09,11.56-27.539,15.34-42.029c2.04-6.7,1.67-14.141-1.49-20.44
	c-5.36-10.86-15.37-18.38-21.8-28.51c-3.77-5.66-5.5-12.36-6.7-18.97c-2.25-9.66-2.8-19.58-3.72-29.42l-1.16,0.77
	c-2.85,6.29-8.33,10.68-12.67,15.86c2.32-1.08,4.45-2.58,6.95-3.24c-6.04,13.18-11.18,26.83-14.57,40.95
	c-1.18,4.729-0.78,9.63-1.2,14.449c-0.43,15.511-3.13,31.211-0.01,46.601c0.63,5.13,4.96,8.62,6.38,13.46
	c3.46,11.85,3.18,24.38,2.4,36.59c-0.05,5.74-0.27,11.74-2.7,17.051c-0.88,1.489-1.73,3.529-3.73,3.639
	c1.21-2.319,2.82-4.449,3.66-6.939c1.27-4.51,1.33-9.22,1.32-13.869c0.6-10.641,0.83-21.41-1.06-31.941
	c-0.79-4.25-2.83-8.109-5.31-11.59c-3.47-6.909-3.9-14.869-3.75-22.47c-0.21-10.729,0.94-21.42,1.59-32.12
	c-0.13-17.869,7.63-34.43,13.94-50.76c-3.33,1.43-6.43,3.32-9.67,4.93c-0.18-2.27,2.04-3.24,3.38-4.64
	c4.27-4.15,8.61-8.32,11.99-13.25c3.02-4.39,3.82-9.8,4.54-14.96c0.76-6.42-0.66-13.2,2.09-19.29
	c4.75-11.09,12.78-20.35,20.97-29.05c1.79-1.82,1.12-4.64,1.65-6.93c0.64-6.2,5.74-10.32,9.33-14.93c2.54-3.39,6-5.88,9.13-8.67
	C255.08,69.3,260.33,62.93,267.88,60.14 M328.57,88.45c-3.41,1.38-6.88,2.64-10.101,4.45c0.271,2.37,0.471,4.74,0.641,7.12
	c3.79-3.56,7.689-7.13,12.29-9.63c3.109-1.8,6.8-1.36,10.239-1.55l0.061-0.75C337.36,87.59,332.76,86.69,328.57,88.45
	 M346.75,104.42c4.03,1.08,8.24,1.07,12.38,1.31c-0.12-0.36-0.37-1.07-0.49-1.43C354.81,102.55,350.72,104.6,346.75,104.42
	 M276.52,227.5c-0.52,8.51-4.1,16.37-5.33,24.77c1.81,1.721,3.62,3.53,5.92,4.59c1.66,0.221,3.27-0.43,4.87-0.779
	c-0.71-4.6-0.44-9.88,3.39-13.11C282.81,237.6,279.99,232.34,276.52,227.5 M287.49,243.59c-6.52,3.41-5.82,15.26,1.57,17.08
	c5.43,0.46,8.22-6.07,7.23-10.67C296.07,245.811,291.8,241.561,287.49,243.59z"/>
<path fill="#FFFFFF" d="M328.57,88.45c4.189-1.76,8.79-0.86,13.13-0.36l-0.061,0.75c-3.439,0.19-7.13-0.25-10.239,1.55
	c-4.601,2.5-8.5,6.07-12.29,9.63c-0.17-2.38-0.37-4.75-0.641-7.12C321.69,91.09,325.16,89.83,328.57,88.45z"/>
<path fill="#FDFDFE" d="M346.75,104.42c3.97,0.18,8.06-1.87,11.89-0.12c0.12,0.36,0.37,1.07,0.49,1.43
	C354.99,105.49,350.78,105.5,346.75,104.42z"/>
<path d="M276.11,112.05c6.73-2.44,13.97-3.2,20.75-5.56c0.08,2.62,0.58,6.67-2.35,7.89c-9.69,0.77-20.04,3.15-26.91,10.52
	c-4.3,5.46-4.1,13.02-3.24,19.57c-0.38,0.3-1.13,0.91-1.51,1.21c-1.24-6.1-1.84-12.36-2.26-18.56
	C262.39,119.72,269.67,115.2,276.11,112.05 M285.01,111.1c-8.55,1.4-16.92,5.79-21.81,13.12c-1.92,2.5-0.83,5.89-1.02,8.771
	c1.16-2.46,1.78-5.16,3.17-7.51c2.43-3.83,6.57-6.13,10.44-8.27c5.84-3.18,12.61-3.21,18.98-4.46c0.53-1.36,0.86-2.79,0.99-4.26
	C292.21,109.48,288.66,110.53,285.01,111.1z"/>
<path fill="#FFFFFF" d="M285.01,111.1c3.65-0.57,7.2-1.62,10.75-2.61c-0.13,1.47-0.46,2.9-0.99,4.26
	c-6.37,1.25-13.14,1.28-18.98,4.46c-3.87,2.14-8.01,4.44-10.44,8.27c-1.39,2.35-2.01,5.05-3.17,7.51c0.19-2.88-0.9-6.271,1.02-8.771
	C268.09,116.89,276.46,112.5,285.01,111.1z"/>
<path d="M347.62,114.79c3.06-0.66,5.95,3.64,2.99,5.79C347.39,123.67,344.52,116.4,347.62,114.79z"/>
<path d="M290.16,122.25c4.12-1.06,8.58-1.02,12.77-0.3c-4.68,2.23-10.4-0.02-14.83,3.01c-6.71,4.54-10.78,11.75-15.36,18.21
	l-1.39,0.05C276.06,135.13,281.51,126.52,290.16,122.25z"/>
<path d="M326.52,126.36c2.04-4.34,7.021-6.24,11.62-5.64c0.28,0.57,0.851,1.69,1.13,2.25c-1.06,0.68-2.13,1.35-3.199,2.01
	c-0.19,3.01-2.641,5.05-5,6.54C328.3,132.19,325.5,129.05,326.52,126.36z"/>
<path d="M283.82,135.73c5.49-4.59,12.11-7.52,18.12-11.34c0.2,0.33,0.59,1,0.78,1.34c-6.7,4.24-14.36,7.28-19.93,13.08
	c-1.97,1.7-2.38,4.57-4.44,6.13C278.16,141.05,281.12,138.1,283.82,135.73z"/>
<path fill="#0E0E0E" d="M318.3,123.98c0.4,0.09,1.181,0.27,1.58,0.36c0.8,4.49,2.09,10.25,7.26,11.49
	c3.87,2.18,8.061-0.26,10.601-3.27c0.3,0.26,0.89,0.79,1.189,1.05c-2.399,2.39-5.31,5.11-8.989,4.6
	c-3.931-0.52-8.271-2.58-9.671-6.57C319.3,129.17,318.84,126.55,318.3,123.98z"/>
<path fill="#0B0B0B" d="M361.13,126.65c0.2-0.34,0.601-1.01,0.8-1.34c7.271,3.4,14.681,7.35,19.721,13.8
	c2.63,3.27,3.17,7.54,4.92,11.24c3.81,8.66,8.06,17.12,12.76,25.32c4.67,6.74,10.56,13.52,11.04,22.1
	c-0.38,7.24-7.08,11.72-12.99,14.58c-9.979,4.23-21.05,2.34-31.37,0.67c-8.41-2.379-16.72-5.39-24.51-9.359
	c0.34-0.39,0.69-0.77,1.05-1.16c12.07,5.72,24.92,10.62,38.45,10.82c9.35,0.779,19.47-2.211,25.55-9.66
	c2.58-2.84,2.76-7.04,1.55-10.53c-2.229-6-6.1-11.18-9.88-16.27c-4.68-8.08-8.81-16.48-12.689-24.98
	c-2.12-4.64-2.94-10.11-6.73-13.81C373.89,132.95,367.51,129.58,361.13,126.65z"/>
<path fill="#030303" d="M300.41,132.11c1.48-1.43,2.11-4.05,4.48-4.19c-1.95,4.11-5.07,7.78-9.17,9.85
	c-2.49,1.23-4.92,2.56-7.25,4.07c-0.03,0.64-0.09,1.92-0.12,2.56c-0.43,0.01-1.28,0.02-1.7,0.03c0.16-1.55,0.04-3.43,1.66-4.28
	C292.28,137.39,297.34,136.1,300.41,132.11z"/>
<path fill="#060606" d="M352.82,132.95c5.399-2.3,11.489-0.56,16.46,2c2.029,0.85,2.68,3.01,2.66,5.05
	c2.47,1.84,5.909,2.72,7.27,5.74c2.53,4.84,3.6,10.28,5.3,15.44c1.03,4.96,4.55,8.81,8.13,12.16c2.641,2.47,3.78,7.47,0.771,10.07
	c-3.561,3.19-7.86,5.36-11.811,7.99c-4.56,3.07-10.08,4.61-15.569,4.43c-6.261-0.08-12.971,0.89-18.71-2.23
	c-6.21-3.11-12.62-5.97-18.521-9.6c-1.75-12.93-1.31-26.96,5.61-38.44C338.38,138.86,345.96,135.81,352.82,132.95 M351.26,135.19
	c-5.38,2.59-11.52,4.87-14.85,10.16c-5.18,7.88-7.3,17.57-6.66,26.93c1.92-4.88,3-10.15,5.76-14.68
	c4.95-8.4,12.75-15.66,22.51-17.79c4.011-1.8,8.45-1.4,12.4,0.36c0.47-1.97-0.91-3.59-2.58-4.38
	C362.67,133.46,356.52,132.64,351.26,135.19 M343.67,149.65c-8.939,8.31-12.45,20.7-13.28,32.52c0.721,1.54,2.98,1.17,4.38,1.72
	c0.7-2.13,0.98-4.39,1.841-6.47c0.5-1.92,3.439-2.14,3.04-4.47c0.06-3.05,2.05-5.57,4.6-7.06c-0.61-3.1-0.07-7.18,3.76-7.62
	c0.971-2.64,2.82-6.01,6.12-3.93c1.3-1.5,2.4-3.15,3.55-4.77c1.12-0.1,2.24-0.2,3.36-0.31c0.21-0.55,0.62-1.66,0.83-2.21
	c4.29-0.93,8.72-1.93,13.05-0.54c-1.979-4.25-6.56-5.79-10.86-6.42C356.56,141.21,348.88,143.84,343.67,149.65 M375,143.59
	c1.34,4.41,3.18,8.71,3.69,13.33c1.1,6.42-3.101,12.72-0.801,19.06c2.74,0.61,4.391-2.73,7.11-1.9c2.08,1.42,2.32,4.64,0.15,6.1
	c-5.91,5.13-13,8.75-20.301,11.46c-4.31,1.73-9.05,1.04-13.55,0.84c-0.03,0.29-0.1,0.87-0.14,1.16c6.55,1.14,13.22,0.74,19.81,0.24
	c6.681-0.69,11.82-5.3,17.4-8.55c2.2-1.6,5.46-3.08,5.17-6.31c0.05-3.92-3.73-5.92-5.9-8.62c-5.01-5.5-5.38-13.32-8.05-19.95
	C378.49,147.92,377.76,144.85,375,143.59 M363.38,148.32c-0.87,2.25-3.14,3.12-5.399,3.1c-0.87,2.11-2.631,5.38-5.431,4.13
	c-1.8-1.05-1.87,1.41-2.569,2.47c-0.49,2.23-3.86,1.71-4.211,4c0.051,1.34,0.12,2.68,0.19,4.03c-0.88,1.67-2.94,2.31-3.9,3.95
	c-1.069,1.47-0.869,3.36-1.229,5.06c-0.99,1.5-3.15,2.2-3.311,4.2c-0.47,2.34-0.779,4.83-2.569,6.59
	c3.899,1.69,7.56,3.89,11.479,5.56c2.83-1.74,4.99-4.72,8.4-5.41c4.83-1.03,9.27-3.25,13.61-5.52c2.79-1.15,5.739-2.07,8.029-4.16
	c-0.399-1.48-0.77-2.97-1.13-4.46c-2.16,1.44-4.939,1.77-6.729-0.4c0.96-1.87,2.29-4.06,1.029-6.13c-1.689-2.91,0.44-6.21-0.55-9.22
	c-0.899-1.06-2-1.94-2.79-3.09c-0.479-1.75,0.22-3.54,0.41-5.29C365.88,147.88,364.22,148.17,363.38,148.32 M368.39,147.2
	c-0.33,1.63-0.699,3.25-0.76,4.92c0.98,1.35,2.4,2.39,3.17,3.9c0.46,3.16-0.93,6.43,0.47,9.48c0.851,1.99-0.13,4.05-0.659,5.97
	c3.26,0.93,5.899-2.53,5.79-5.58c2.05-5.81,0.649-11.94-1.561-17.46C372.73,147.82,370.58,147.37,368.39,147.2 M377.1,178.12
	c-4.109,2.38-8.649,3.87-12.79,6.19c-4.779,2.6-10.81,2.5-14.76,6.61c4.51-0.06,9.17,1.03,13.561-0.41
	c7.64-2.37,14.88-6.229,20.97-11.43c1.479-1.01,1.21-2.69,0.16-3.92C382.13,176.77,379.71,177.76,377.1,178.12z"/>
<path fill="#030303" d="M315.11,131.81c2.159,0.73,2.35,3.31,2.92,5.16c1.689,7.9,1.06,16.04,1.27,24.061
	c0.17,4.28-0.38,8.89,1.78,12.79c4.28,8.11,9.76,15.49,14.939,23.04l-1.02,1.08c-4.98-7.02-10-14.04-14.26-21.54
	c-1.391-2.61-2.73-5.39-2.82-8.41C317.1,155.94,318.79,143.51,315.11,131.81z"/>
<path fill="#FFFFFF" d="M351.26,135.19c5.26-2.55,11.41-1.73,16.58,0.6c1.67,0.79,3.05,2.41,2.58,4.38
	c-3.95-1.76-8.39-2.16-12.4-0.36c-9.76,2.13-17.56,9.39-22.51,17.79c-2.76,4.53-3.84,9.8-5.76,14.68
	c-0.64-9.36,1.48-19.05,6.66-26.93C339.74,140.06,345.88,137.78,351.26,135.19z"/>
<path fill="#FFFFFF" d="M343.67,149.65c5.21-5.81,12.89-8.44,20.39-9.56c4.301,0.63,8.881,2.17,10.86,6.42
	c-4.33-1.39-8.76-0.39-13.05,0.54c-0.21,0.55-0.62,1.66-0.83,2.21c-1.12,0.11-2.24,0.21-3.36,0.31c-1.149,1.62-2.25,3.27-3.55,4.77
	c-3.3-2.08-5.149,1.29-6.12,3.93c-3.83,0.44-4.37,4.52-3.76,7.62c-2.55,1.49-4.54,4.01-4.6,7.06c0.399,2.33-2.54,2.55-3.04,4.47
	c-0.86,2.08-1.141,4.34-1.841,6.47c-1.399-0.55-3.659-0.18-4.38-1.72C331.22,170.35,334.73,157.96,343.67,149.65z"/>
<path fill="#FFFFFF" d="M375,143.59c2.76,1.26,3.49,4.33,4.59,6.86c2.67,6.63,3.04,14.45,8.05,19.95c2.17,2.7,5.95,4.7,5.9,8.62
	c0.29,3.23-2.97,4.71-5.17,6.31c-5.58,3.25-10.72,7.86-17.4,8.55c-6.59,0.5-13.26,0.9-19.81-0.24c0.04-0.29,0.109-0.87,0.14-1.16
	c4.5,0.2,9.24,0.89,13.55-0.84c7.301-2.71,14.391-6.33,20.301-11.46c2.17-1.46,1.93-4.68-0.15-6.1c-2.72-0.83-4.37,2.51-7.11,1.9
	c-2.3-6.34,1.9-12.64,0.801-19.06C378.18,152.3,376.34,148,375,143.59z"/>
<path fill="#FFFFFF" d="M363.38,148.32c0.84-0.15,2.5-0.44,3.33-0.59c-0.19,1.75-0.89,3.54-0.41,5.29
	c0.79,1.15,1.891,2.03,2.79,3.09c0.99,3.01-1.14,6.31,0.55,9.22c1.261,2.07-0.069,4.26-1.029,6.13c1.79,2.17,4.569,1.84,6.729,0.4
	c0.36,1.49,0.73,2.98,1.13,4.46c-2.29,2.09-5.239,3.01-8.029,4.16c-4.341,2.27-8.78,4.49-13.61,5.52c-3.41,0.69-5.57,3.67-8.4,5.41
	c-3.92-1.67-7.58-3.87-11.479-5.56c1.79-1.76,2.1-4.25,2.569-6.59c0.16-2,2.32-2.7,3.311-4.2c0.36-1.7,0.16-3.59,1.229-5.06
	c0.96-1.64,3.021-2.28,3.9-3.95c-0.07-1.35-0.14-2.69-0.19-4.03c0.351-2.29,3.721-1.77,4.211-4c0.699-1.06,0.77-3.52,2.569-2.47
	c2.8,1.25,4.561-2.02,5.431-4.13C360.24,151.44,362.51,150.57,363.38,148.32z"/>
<path fill="#FFFFFF" d="M368.39,147.2c2.19,0.17,4.341,0.62,6.45,1.23c2.21,5.52,3.61,11.65,1.561,17.46
	c0.109,3.05-2.53,6.51-5.79,5.58c0.529-1.92,1.51-3.979,0.659-5.97c-1.399-3.05-0.01-6.32-0.47-9.48c-0.77-1.51-2.189-2.55-3.17-3.9
	C367.69,150.45,368.06,148.83,368.39,147.2z"/>
<path fill="#FFFFFF" d="M377.1,178.12c2.61-0.36,5.03-1.35,7.141-2.96c1.05,1.23,1.319,2.91-0.16,3.92
	c-6.09,5.2-13.33,9.06-20.97,11.43c-4.391,1.44-9.051,0.35-13.561,0.41c3.95-4.11,9.98-4.01,14.76-6.61
	C368.45,181.99,372.99,180.5,377.1,178.12z"/>
<path d="M334.77,204.67c9.771,4.18,18.94,9.63,28.41,14.42c10.641,3.86,22.471,3.65,33.32,0.74c5.9-2.48,10.4-7.49,13.54-12.95
	c0.28,0.28,0.82,0.84,1.1,1.13c-4.12,7.03-10.689,13.301-19.04,14.51c-10.51,1.511-21.869,1.73-31.619-3.069
	c-7.601-4.181-15.32-8.14-23.07-12.03C336.33,206.73,334.58,206.38,334.77,204.67z"/>
<path fill="#FFFFFF" d="M276.52,227.5c3.47,4.84,6.29,10.1,8.85,15.47c-3.83,3.23-4.1,8.511-3.39,13.11c-1.6,0.35-3.21,1-4.87,0.779
	c-2.3-1.06-4.11-2.869-5.92-4.59C272.42,243.87,276,236.01,276.52,227.5z"/>
<path fill="#FFFFFF" d="M287.49,243.59c4.31-2.029,8.58,2.221,8.8,6.41c0.99,4.6-1.8,11.13-7.23,10.67
	C281.67,258.85,280.97,247,287.49,243.59z"/>
<path d="M244.42,316.4c0.49-0.78,1-1.551,1.51-2.32c0.23,4.52,2.73,8.891,6.41,11.5c4.23,2.38,9.34,1.15,13.72-0.109
	c0.19,0.319,0.57,0.969,0.76,1.289c-4.48,1.54-9.73,2.79-14.22,0.641C248.23,325.33,246.02,320.689,244.42,316.4z"/>
<path d="M243.97,340.16c20.82-4,42.55,0.619,61.14,10.43c-4.18,0.641-7.57-2.29-11.31-3.561c-16.05-6.109-33.94-9.279-50.85-4.969
	c-6.48,1.299-12.53,4.25-18.05,7.819c-1.08,0.87-2.48,0.69-3.77,0.75C227.98,345.71,235.69,341.939,243.97,340.16z"/>
<path fill="#A3A3A3" d="M232.27,350.109C235.31,348.57,232.46,353.37,232.27,350.109z"/>
<path fill="#DA0000" d="M6.57,354.939c3.76-0.01,7.53-0.109,11.29,0.181c0.87,5.95,2.06,11.86,2.66,17.86
	c1.24-6,1.89-12.101,3.4-18.041c7.19,0.15,14.4-0.35,21.57,0.281c0.83,5.909,1.7,11.829,2.91,17.68
	c0.64-5.99,1.71-11.92,2.96-17.811c7.19-0.26,14.4-0.27,21.59,0.03c0.81,5.69,1.87,11.34,2.77,17.01
	c1.34-5.659,1.75-11.53,3.35-17.14c7.14-0.01,14.31-0.27,21.44,0.15c0.81,5.75,1.9,11.459,2.82,17.189
	c1.07-5.73,1.8-11.51,3.18-17.18c7.18-0.371,14.39-0.351,21.57,0.01c0.68,5.67,1.91,11.25,2.83,16.869
	c1.08-5.649,1.8-11.399,3.27-16.989c7.12-0.13,14.25-0.261,21.37,0.069c0.77,6,2.37,11.871,3,17.891c0.75-6.1,1.67-12.17,3.31-18.09
	c3.61,0.05,7.22,0.029,10.83-0.01c-2.57,10.07-6.12,19.899-8.61,30c-0.27,5.459,0,10.93-0.11,16.39c-3.75-0.021-7.5-0.01-11.24,0
	c-0.41-7.5,1.15-15.31-1.49-22.521c-2.29-7.26-4.05-14.67-6.42-21.899c-3,9.021-5.5,18.19-8.21,27.3
	c-0.58,5.68-0.07,11.42-0.25,17.13c-3.71-0.02-7.41-0.01-11.12-0.05c-0.36-7.43,1.15-15.16-1.52-22.3
	c-2.16-7.36-4.34-14.72-6.31-22.14c-3.29,8.92-5.55,18.199-8.33,27.279c-0.59,5.721,0.03,11.51-0.32,17.25
	c-3.68-0.09-7.37-0.06-11.05-0.07c-0.51-7.39,1.17-15.1-1.5-22.199c-2.3-7.381-4.15-14.91-6.52-22.26
	c-2.9,9.01-5.47,18.14-8.19,27.209c-0.5,5.73-0.06,11.521-0.21,17.271c-3.7-0.021-7.4,0.02-11.1-0.05
	c-0.29-7.62,1.18-15.551-1.79-22.811c-1.99-7.209-4.27-14.33-6.02-21.59c-1.82,3.18-2.28,6.881-3.4,10.32
	c-1.83,5.58-3.3,11.26-5.05,16.869c-0.57,5.73-0.05,11.531-0.25,17.291c-3.68-0.051-7.37-0.051-11.05-0.03
	c-0.52-7.431,1.27-15.21-1.6-22.3c-2.22-7.41-4.12-14.92-6.5-22.28c-2.76,8.88-5.26,17.851-8.01,26.74
	c-0.94,5.93,0.35,12.021-0.68,17.95c-3.53-0.181-7.07-0.141-10.61-0.07c-0.49-7.26,1.13-14.82-1.62-21.77
	C11.25,371.359,8.92,363.15,6.57,354.939z"/>
<path fill="#DA0000" d="M174.7,354.93c6.7,0.051,13.4-0.109,20.09,0.1c0.01,3.07,0,6.15-0.07,9.23c-2.7-0.06-5.39-0.07-8.09-0.02
	c0.01,2.97,0.02,5.939,0.06,8.92c2.49,0,4.98-0.02,7.47-0.08c0.04,2.9,0.05,5.8,0.12,8.71c-2.54,0.06-5.09,0.069-7.63,0.06
	c0,3.36,0,6.721-0.01,10.09c2.99,0.041,5.99,0.051,8.99-0.029c0.04,3.13,0.04,6.26,0.03,9.39c-6.99-0.03-13.98-0.04-20.96,0
	C174.73,385.84,174.69,370.391,174.7,354.93z"/>
<path fill="#DA0000" d="M198.86,354.971c6.69-0.08,13.39-0.011,20.08-0.051c0.06,3.12,0.11,6.25-0.08,9.38
	c-2.69-0.12-5.38-0.12-8.06-0.03c0.22,2.801-0.48,5.811,0.35,8.5c2.32,0.78,4.88,0.221,7.31,0.451c-0.14,2.85-0.13,5.719-0.02,8.579
	c-2.55,0.05-5.1,0.06-7.64,0.06c0.01,3.341,0.01,6.681-0.01,10.021c2.99,0.14,5.99,0.181,9,0.03c0.04,3.13,0.04,6.26,0.02,9.39
	c-6.98-0.04-13.97-0.02-20.95-0.01C198.86,385.85,198.87,370.41,198.86,354.971z"/>
<path fill="#DA0000" d="M223.13,354.96c6.68-0.04,13.36-0.05,20.04,0c0,3.069-0.02,6.14,0,9.22c-2.69,0.03-5.38,0.051-8.06,0
	c-0.06,3.021-0.08,6.051,0.17,9.07c2.43-0.18,4.88-0.189,7.33-0.09c-0.02,2.91-0.03,5.82-0.07,8.74
	c-2.49-0.051-4.98-0.07-7.47-0.061c0.02,3.36,0.02,6.73,0.01,10.1c2.98-0.039,5.97,0,8.95,0.131c0.16,3.09,0.12,6.199-0.26,9.279
	c-6.86-0.109-13.72-0.119-20.57,0C223.02,385.891,223.15,370.42,223.13,354.96z"/>
<path fill="#DA0000" d="M247.26,355.029c6.71-0.209,13.41-0.049,20.12-0.1c0,3.09,0,6.18,0,9.28c-2.73,0-5.46,0-8.19-0.021
	c0.02,2.94,0.02,5.891,0,8.84c2.54,0.131,5.08,0.141,7.62,0.091c-0.01,2.909,0,5.819,0.02,8.739c-2.55-0.01-5.09-0.02-7.63-0.029
	c0,3.41-0.01,6.82,0.05,10.23c2.99-0.021,5.99-0.011,8.99,0.039c-0.01,3.061-0.01,6.11,0.01,9.17c-6.93,0.08-13.86-0.14-20.79,0.141
	C247.03,385.96,247.44,370.48,247.26,355.029z"/>
<path fill="#DA0000" d="M271.38,355.12c6.73-0.341,13.49-0.261,20.23-0.03c-0.06,3.04-0.07,6.09-0.06,9.141
	c-2.74-0.021-5.47-0.03-8.21-0.03c-0.01,2.989,0,5.97,0.07,8.96c2.5-0.02,5.01-0.02,7.52-0.04c0.03,2.909,0.04,5.819,0.03,8.739
	c-2.54-0.02-5.08-0.02-7.62-0.02c0,3.41,0,6.82,0.05,10.24c3.01-0.189,6.03-0.221,9.03,0.1c-0.06,3.03-0.08,6.07-0.12,9.11
	c-6.92,0-13.84-0.05-20.76,0.03C271.33,385.92,271.64,370.52,271.38,355.12z"/>
<path fill="#DA0000" d="M295.61,354.93c6.71,0.061,13.43-0.14,20.14,0.131c-0.01,3.06-0.03,6.119-0.06,9.18
	c-2.71-0.03-5.421-0.04-8.12-0.051c0,2.99,0.01,5.99,0.04,8.98c2.52-0.02,5.04-0.029,7.56-0.07c0.061,2.94,0.07,5.891-0.01,8.84
	c-2.53-0.1-5.061-0.119-7.59-0.109c0,3.41,0.01,6.811,0.02,10.23c2.97-0.031,5.95-0.011,8.93,0.049
	c-0.029,3.07-0.029,6.15-0.14,9.23c-6.92-0.13-13.85-0.04-20.77-0.05C295.61,385.84,295.61,370.391,295.61,354.93z"/>
<path fill="#DA0000" d="M319.74,355.04c6.689-0.229,13.37-0.04,20.06-0.12c0.04,3.1,0.04,6.21-0.01,9.311
	c-2.65-0.021-5.29-0.03-7.94-0.061c-0.04,2.99-0.04,5.98-0.02,8.971c2.54-0.011,5.08-0.011,7.63,0.069
	c-0.08,2.851-0.08,5.71,0,8.569c-2.56,0.061-5.11,0.08-7.66,0.07c0.03,3.41,0.03,6.811,0.021,10.23
	c2.91-0.061,5.819-0.13,8.739-0.17c0.04,3.13,0.051,6.26,0.03,9.39c-6.95-0.04-13.899-0.02-20.85-0.02
	C319.74,385.87,319.72,370.45,319.74,355.04z"/>
<path fill="#DA0000" d="M343.8,355.15c6.78-0.36,13.58-0.311,20.36-0.03c-0.01,3.021,0,6.04,0.01,9.069
	c-2.729,0.021-5.45,0.021-8.17,0.011c-0.1,2.979-0.05,5.97,0.13,8.95c2.5-0.021,5.01-0.021,7.521,0.05
	c-0.061,2.87-0.061,5.75-0.021,8.63c-2.57,0.01-5.13,0.01-7.68,0.02c-0.03,3.4-0.021,6.801,0.109,10.2c2.891,0,5.78-0.06,8.671-0.14
	c0.039,3.119,0.01,6.25-0.07,9.38c-6.95-0.03-13.891,0.01-20.84-0.021C343.82,385.891,343.86,370.52,343.8,355.15z"/>
<path fill="#DA0000" d="M371.53,354.93c5.779,0.061,11.569-0.119,17.34,0.12c2.37,15.4,4.8,30.79,6.8,46.24
	c-4.02-0.01-8.05-0.07-12.06,0.07c-0.36-2.74-0.54-5.501-0.7-8.261c-1.5,0.01-2.98,0.03-4.47,0.061
	c-0.11,2.66-0.051,5.35-0.721,7.95c-4.13,0.46-8.3,0.01-12.439,0.18C367.53,385.859,369.36,370.37,371.53,354.93 M378.36,384.66
	c1.029,0.02,3.1,0.04,4.13,0.05c-0.94-6.14-0.99-12.36-1.561-18.521C379.58,372.26,378.94,378.48,378.36,384.66z"/>
<path fill="#DA0000" d="M402.42,355.109c5.84-0.289,11.7-0.26,17.54-0.02c2.3,15.4,4.8,30.77,6.74,46.22
	c-4.021-0.04-8.04-0.06-12.05,0.03c-0.271-2.75-0.521-5.51-0.74-8.25c-1.51,0.02-3.01,0.061-4.51,0.11
	c-0.091,2.75,0.04,5.56-0.86,8.2c-4.06-0.21-8.12-0.11-12.18-0.11c0.93-6.229,1.88-12.47,2.449-18.75
	C399.99,373.391,401.54,364.29,402.42,355.109 M411.79,366.1c-0.86,6.18-1.93,12.34-2.41,18.57c1.04,0.01,3.101,0.03,4.14,0.04
	C412.53,378.54,412.64,372.27,411.79,366.1z"/>
<path fill="#DA0000" d="M433.43,355.12c5.84-0.38,11.7-0.11,17.561-0.181c2.35,15.44,4.729,30.871,6.79,46.351
	c-4.021-0.021-8.03-0.03-12.04,0.02c-0.32-2.739-0.57-5.479-0.73-8.229c-1.529,0.029-3.04,0.07-4.56,0.12
	c-0.11,2.64-0.04,5.31-0.58,7.91c-4.11,0.449-8.25,0.02-12.37,0.18C429.38,385.891,431.76,370.55,433.43,355.12 M442.81,366.93
	c-1.02,5.881-1.77,11.811-2.39,17.75c1.05,0,3.14,0.01,4.19,0.01C443.59,378.811,443.76,372.8,442.81,366.93z"/>
<path fill="#DA0000" d="M463.25,365.891c0.65-3.58,0.23-7.591,1.67-10.881c5.7-0.199,11.42-0.039,17.13-0.039
	c2.3,15.439,4.74,30.859,6.82,46.329c-4.05-0.03-8.09-0.05-12.14,0.01c-0.261-2.72-0.461-5.45-0.62-8.169
	c-1.471-0.051-2.931-0.091-4.391-0.131c-0.33,2.74-0.56,5.49-0.739,8.25c-4.141,0.03-8.28,0.01-12.41,0.03
	C460.06,389.48,461.54,377.67,463.25,365.891 M473.68,366.05c-0.47,6.24-1.699,12.4-2.18,18.65c1.05,0,3.15-0.011,4.2-0.011
	C474.61,378.52,474.77,372.2,473.68,366.05z"/>
<path fill="#DA0000" d="M494.16,366.96c0.64-3.94,0.45-8.14,1.75-11.92c5.72-0.28,11.45-0.03,17.17-0.101
	c2.36,15.42,4.61,30.871,6.91,46.311c-4.09,0.06-8.181,0.01-12.26,0.05c-0.181-2.72-0.381-5.43-0.57-8.14
	c-1.44-0.051-2.88-0.1-4.3-0.15c-0.42,2.74-0.67,5.49-0.811,8.26c-4.13,0.021-8.26,0-12.39,0.021
	C491,389.83,492.58,378.391,494.16,366.96 M504.71,365.96c-0.49,6.261-1.6,12.45-2.1,18.72c1.05,0,3.14,0.01,4.18,0.01
	C505.73,378.49,505.72,372.16,504.71,365.96z"/>
<path fill="#DA0000" d="M520.7,401.29c1.84-15.479,3.99-30.92,6.06-46.38c5.79,0.04,11.59,0.02,17.38,0.02
	c2.41,15.43,4.57,30.9,6.931,46.351c-4.11,0.01-8.21-0.011-12.311,0c-0.21-2.71-0.38-5.421-0.52-8.13
	c-1.46-0.041-2.92-0.08-4.37-0.11c-0.36,2.739-0.63,5.49-0.8,8.26C528.94,401.27,524.82,401.27,520.7,401.29 M533.65,384.7
	c1.05,0,3.14,0,4.189,0c-0.88-6.21-1.2-12.49-2.02-18.7C535.01,372.23,534.31,378.46,533.65,384.7z"/>
<path fill="#DA0000" d="M557.83,354.93c5.85,0.11,11.71-0.229,17.56,0.211c1.99,15.42,4.42,30.77,6.79,46.14
	c-4.16,0-8.319,0-12.479,0c-0.141-2.7-0.3-5.4-0.42-8.091c-1.45-0.069-2.891-0.14-4.33-0.199c-0.33,2.76-0.61,5.529-0.851,8.31
	c-4.13-0.03-8.26-0.03-12.38-0.01C553.66,385.82,555.7,370.37,557.83,354.93 M564.68,384.66c1.38,0.01,2.771,0.02,4.17,0.04
	c-0.76-6.22-1.14-12.479-2.05-18.681C565.97,372.221,565.46,378.45,564.68,384.66z"/>
<path fill="#DA0000" d="M582.72,401.26c2.061-15.439,3.96-30.91,6.181-46.33c5.79-0.01,11.59,0.041,17.39-0.029
	c1.03,6.02,1.56,12.119,2.67,18.129c1.7,9.391,2.33,18.951,4.49,28.261c-4.25-0.021-8.49-0.01-12.73-0.021
	c-0.18-2.659-0.3-5.33-0.29-7.99c-1.489-0.1-2.989-0.18-4.47-0.25c-0.2,2.761-0.51,5.521-0.82,8.271
	C591,401.27,586.86,401.28,582.72,401.26 M597.77,366.1c-0.789,6.11-1.159,12.271-2.1,18.371c1.4,0.129,2.8,0.209,4.22,0.279
	C599.13,378.54,598.91,372.25,597.77,366.1z"/>
<path fill="#DA0000" d="M619.97,354.939c5.83,0.09,11.681-0.25,17.5,0.221c2.061,15.4,4.4,30.77,6.84,46.12
	c-4.189,0-8.369,0-12.56,0.01c-0.16-2.7-0.3-5.39-0.39-8.08c-1.471-0.05-2.931-0.08-4.37-0.101c-0.221,2.721-0.49,5.431-0.75,8.141
	c-4.07,0.05-8.141,0.03-12.21,0.01c0.43-8.52,2.17-16.9,3.149-25.359C617.9,368.88,618.88,361.9,619.97,354.939 M627.01,384.721
	c1.29-0.031,2.58-0.041,3.88-0.051c-0.55-6.25-1.18-12.5-1.83-18.74C627.85,372.12,627.41,378.43,627.01,384.721z"/>
<path fill="#FEFFFF" d="M378.36,384.66c0.58-6.18,1.22-12.4,2.569-18.471c0.57,6.16,0.62,12.381,1.561,18.521
	C381.46,384.7,379.39,384.68,378.36,384.66z"/>
<path fill="#FDFFFF" d="M411.79,366.1c0.85,6.17,0.74,12.44,1.729,18.61c-1.039-0.01-3.1-0.03-4.14-0.04
	C409.86,378.439,410.93,372.279,411.79,366.1z"/>
<path fill="#FCFFFF" d="M473.68,366.05c1.09,6.15,0.931,12.47,2.021,18.64c-1.05,0-3.15,0.011-4.2,0.011
	C471.98,378.45,473.21,372.29,473.68,366.05z"/>
<path fill="#FEFFFF" d="M504.71,365.96c1.01,6.2,1.021,12.53,2.08,18.729c-1.04,0-3.13-0.01-4.18-0.01
	C503.11,378.41,504.22,372.221,504.71,365.96z"/>
<path fill="#FCFEFE" d="M533.65,384.7c0.659-6.24,1.359-12.47,2.17-18.7c0.819,6.21,1.14,12.49,2.02,18.7
	C536.79,384.7,534.7,384.7,533.65,384.7z"/>
<path fill="#FEFFFF" d="M564.68,384.66c0.78-6.21,1.29-12.439,2.12-18.641c0.91,6.201,1.29,12.461,2.05,18.681
	C567.45,384.68,566.06,384.67,564.68,384.66z"/>
<path fill="#FDFFFF" d="M597.77,366.1c1.141,6.15,1.36,12.44,2.12,18.65c-1.42-0.07-2.819-0.15-4.22-0.279
	C596.61,378.37,596.98,372.21,597.77,366.1z"/>
<path fill="#FDFDFE" d="M627.01,384.721c0.4-6.291,0.84-12.601,2.05-18.791c0.65,6.24,1.28,12.49,1.83,18.74
	C629.59,384.68,628.3,384.689,627.01,384.721z"/>
<path fill="#FDFFFF" d="M442.81,366.93c0.95,5.87,0.78,11.881,1.801,17.76c-1.051,0-3.141-0.01-4.19-0.01
	C441.04,378.74,441.79,372.811,442.81,366.93z"/>
</svg>
