<?xml version="1.0" encoding="UTF-8" ?>
<!DOCTYPE svg PUBLIC "-//W3C//DTD SVG 1.1//EN" "http://www.w3.org/Graphics/SVG/1.1/DTD/svg11.dtd">
<svg width="772pt" height="560pt" viewBox="0 0 772 560" version="1.1" xmlns="http://www.w3.org/2000/svg">
<g id="#ffffffff">
<path fill="#ffffff" opacity="1.00" d=" M 0.00 0.00 L 772.00 0.00 L 772.00 560.00 L 0.00 560.00 L 0.00 0.00 M 315.34 10.16 C 300.27 12.95 285.42 18.65 273.44 28.39 C 264.45 35.90 260.20 47.16 255.43 57.50 C 251.77 66.26 246.49 74.88 246.68 84.69 C 239.55 90.39 237.09 100.19 238.18 108.94 C 240.23 117.76 246.00 125.49 253.32 130.71 C 253.18 134.07 253.10 137.52 254.20 140.75 C 256.51 147.81 260.90 153.90 264.99 160.01 C 266.94 162.83 268.52 165.92 270.93 168.40 C 271.13 166.93 271.32 165.45 271.49 163.97 C 273.74 173.46 276.18 183.09 275.48 192.93 C 270.70 192.88 265.89 193.13 261.25 194.39 C 251.42 197.07 241.27 198.72 231.80 202.62 C 221.33 206.94 210.86 211.77 202.04 219.01 C 198.53 221.85 194.75 224.34 191.17 227.09 C 189.28 228.59 186.91 229.19 184.68 229.95 C 169.25 235.55 153.61 240.57 137.73 244.70 C 126.78 247.60 116.19 251.86 104.99 253.75 C 96.38 255.20 87.69 256.12 79.13 257.86 C 77.23 256.32 75.27 254.85 73.21 253.54 C 73.21 248.73 73.53 243.80 72.09 239.14 C 70.66 234.19 68.15 229.24 63.81 226.24 C 61.38 224.56 58.28 223.22 55.30 224.14 C 53.11 225.37 52.06 227.85 51.57 230.20 C 50.77 234.30 51.03 238.50 50.96 242.65 C 48.94 242.97 46.76 242.90 44.92 243.90 C 42.39 245.55 41.26 248.49 40.10 251.14 C 36.95 259.07 32.00 266.11 26.92 272.91 C 24.69 275.96 22.06 278.74 20.16 282.03 C 18.45 284.92 18.26 288.90 20.40 291.64 C 24.17 296.58 30.03 299.26 34.25 303.76 C 44.38 314.59 53.82 326.39 59.93 340.01 C 65.53 352.64 68.60 366.21 70.90 379.78 C 72.45 389.11 73.98 398.45 74.62 407.89 C 75.74 424.56 75.46 441.71 81.08 457.67 C 82.20 461.22 84.36 464.39 85.23 468.01 C 85.29 471.98 84.57 475.91 84.30 479.86 C 83.57 489.87 83.33 499.93 83.78 509.96 C 83.98 514.98 83.96 520.02 83.46 525.04 C 83.19 527.15 83.41 529.29 83.96 531.35 C 86.33 525.18 85.63 518.43 85.69 511.96 C 85.07 499.41 85.47 486.82 86.67 474.32 C 87.40 466.52 88.89 458.82 89.33 450.99 C 91.25 427.30 88.06 403.57 89.39 379.86 C 90.23 365.94 90.74 351.98 90.33 338.03 C 90.15 330.88 88.61 323.87 87.40 316.84 C 86.50 311.75 84.51 306.94 83.40 301.90 C 82.87 299.67 83.53 297.41 83.53 295.17 C 83.10 292.65 81.95 290.32 81.22 287.89 C 84.64 291.54 85.42 296.72 88.25 300.72 C 89.31 302.42 91.82 302.63 93.29 301.37 C 96.51 299.00 97.73 294.83 97.73 290.99 C 97.68 286.45 96.54 281.81 94.03 277.99 C 91.61 274.34 87.20 273.03 83.37 271.44 C 83.29 269.35 83.42 267.23 82.99 265.17 C 82.20 263.20 80.92 261.49 79.92 259.63 C 90.83 257.35 102.03 256.73 112.85 254.03 C 120.98 252.05 128.83 249.10 136.90 246.92 C 149.76 243.40 162.62 239.84 175.17 235.33 C 181.24 233.19 187.22 230.75 193.54 229.40 C 195.58 228.89 197.80 228.61 199.51 227.26 C 200.78 226.28 202.23 225.41 203.92 225.62 C 209.81 225.42 214.36 230.01 217.62 234.39 C 221.31 239.64 219.72 246.41 217.97 252.07 C 215.07 260.75 213.24 269.73 210.62 278.50 C 205.27 297.53 197.90 315.89 190.19 334.07 C 187.54 340.05 185.59 346.44 181.80 351.84 C 181.27 352.79 180.32 353.67 180.36 354.85 C 182.02 368.66 189.16 380.93 196.42 392.51 C 202.34 402.33 209.10 412.02 211.75 423.36 C 213.72 431.55 217.36 439.47 217.32 448.03 C 216.79 451.63 215.56 455.24 216.47 458.90 C 218.45 467.99 215.44 477.08 212.36 485.53 C 215.73 484.21 216.26 480.13 218.36 477.53 C 220.63 477.64 222.91 477.46 225.18 477.48 C 229.26 481.69 232.09 486.92 235.07 491.92 C 237.18 495.58 239.72 499.56 238.90 504.00 C 237.94 509.77 235.43 515.13 233.26 520.51 C 231.82 519.05 230.51 517.43 228.82 516.24 C 225.77 514.23 221.27 515.34 219.37 518.43 C 217.28 521.37 217.59 525.13 217.95 528.52 C 221.08 527.26 223.65 524.63 226.99 523.97 C 232.13 523.86 233.23 530.01 237.08 532.23 C 236.23 527.81 233.19 523.38 228.68 522.18 C 225.24 521.33 222.30 523.94 219.35 525.23 C 219.90 522.80 219.92 519.77 222.16 518.18 C 223.85 517.08 226.38 516.54 228.03 518.03 C 230.16 520.08 231.85 522.54 233.93 524.65 C 236.24 518.24 239.13 511.99 240.64 505.33 C 241.61 501.54 240.50 497.63 238.66 494.30 C 235.61 488.81 232.40 483.38 228.61 478.36 C 226.77 475.75 224.53 473.24 223.92 470.00 C 223.10 466.39 222.07 462.83 220.79 459.36 C 219.50 456.03 219.73 452.42 219.46 448.93 C 218.77 436.94 214.20 425.68 211.80 414.01 C 210.95 410.38 212.09 406.66 211.41 403.02 C 210.00 393.54 207.49 384.28 205.27 374.98 C 202.66 364.32 198.41 353.63 199.87 342.46 C 198.94 343.50 197.72 344.50 197.73 346.05 C 197.16 351.59 198.78 357.02 199.92 362.39 C 200.79 366.38 200.18 370.50 200.80 374.52 C 201.76 381.19 203.77 387.66 205.85 394.05 C 207.74 399.80 208.42 405.83 209.70 411.73 C 202.11 395.80 190.31 382.04 184.59 365.19 C 183.53 361.25 181.68 356.78 183.87 352.90 C 188.42 344.07 191.97 334.78 195.79 325.62 C 204.17 306.01 211.11 285.76 216.21 265.04 C 218.16 256.30 222.42 247.95 221.76 238.77 C 226.25 237.09 230.74 235.32 234.82 232.78 C 241.36 228.73 247.44 223.98 253.97 219.91 C 257.96 217.42 262.08 215.14 266.12 212.74 C 275.33 220.36 280.15 231.63 286.64 241.38 C 293.64 251.85 303.17 260.19 312.29 268.72 C 321.35 277.66 330.50 286.50 339.46 295.55 C 346.40 302.27 353.64 308.70 360.26 315.74 C 364.50 320.21 368.00 325.29 371.99 329.97 C 376.73 335.72 381.69 341.62 384.06 348.82 C 385.25 351.91 384.21 355.37 385.39 358.47 C 386.25 360.70 387.55 362.73 388.77 364.79 C 386.09 365.27 383.46 365.97 380.93 367.00 C 380.97 370.20 381.26 373.40 381.71 376.58 C 385.31 376.67 388.79 375.65 392.20 374.61 C 395.88 379.50 398.27 385.21 401.88 390.16 C 404.11 393.20 406.54 396.47 410.20 397.84 C 412.74 398.82 416.59 397.04 416.06 393.94 C 416.22 390.20 413.53 387.29 411.42 384.52 C 408.09 380.65 406.09 375.88 404.40 371.12 C 406.53 370.63 408.66 370.14 410.80 369.65 C 411.09 367.06 411.10 364.46 410.92 361.87 C 406.89 361.99 402.93 362.77 398.99 363.55 C 396.75 357.86 393.39 352.78 389.56 348.06 C 390.93 340.78 392.49 333.47 392.43 326.03 C 392.26 316.34 393.14 306.68 393.13 297.00 C 393.10 286.98 393.53 276.90 391.97 266.96 C 390.29 256.17 389.59 245.27 388.21 234.45 C 387.34 226.72 387.53 218.90 386.23 211.22 C 390.28 214.65 394.28 218.16 397.91 222.05 C 400.64 224.99 403.38 228.00 406.77 230.21 C 411.66 233.63 417.49 235.32 423.26 236.57 C 431.50 238.31 439.82 239.80 447.86 242.35 C 454.53 244.46 460.87 247.53 466.76 251.28 C 472.87 255.12 478.49 259.67 484.69 263.38 C 486.56 264.41 488.11 265.92 489.12 267.82 C 493.13 274.79 498.15 281.22 501.11 288.76 C 503.06 293.61 503.82 298.84 504.09 304.04 C 504.40 308.04 502.56 311.74 501.88 315.61 C 500.31 323.75 500.20 332.08 499.12 340.29 C 498.22 347.52 498.74 354.80 498.81 362.06 C 498.32 367.28 498.93 372.73 496.90 377.71 C 494.98 382.83 492.89 388.06 489.36 392.32 C 488.13 393.67 486.05 395.38 484.20 394.17 C 479.12 391.33 475.14 386.98 470.91 383.08 C 467.81 380.27 465.66 376.23 461.59 374.67 C 463.05 378.20 465.96 380.76 468.55 383.46 C 473.65 388.49 478.80 393.64 485.20 397.03 C 483.47 409.04 485.75 421.07 487.80 432.88 C 489.97 445.27 493.11 457.48 494.79 469.96 C 496.42 481.47 496.85 493.26 500.41 504.42 C 501.90 509.56 504.26 514.58 504.30 520.03 C 504.43 523.39 502.36 526.74 499.22 527.99 C 496.28 529.05 493.09 529.21 490.16 530.30 C 487.88 531.21 485.87 532.63 483.88 534.04 C 487.74 533.07 491.54 531.85 495.48 531.18 C 499.19 530.56 502.54 528.79 505.83 527.04 C 507.27 529.42 508.46 531.94 509.49 534.52 C 509.87 535.80 510.76 536.76 512.02 537.24 C 511.55 533.03 509.57 529.27 507.15 525.88 C 505.58 523.91 506.24 521.26 506.02 518.96 C 506.14 514.88 504.17 511.16 503.81 507.17 C 504.37 505.68 505.22 504.32 506.07 502.98 C 512.89 492.53 519.79 482.12 526.81 471.80 C 533.65 461.65 538.34 450.25 544.94 439.95 C 548.67 433.91 552.53 427.06 551.01 419.68 C 547.72 422.13 544.71 424.94 541.34 427.29 C 544.55 422.77 547.60 418.12 550.15 413.19 C 555.92 402.13 564.38 392.86 572.29 383.33 C 579.71 374.31 586.58 364.86 593.41 355.39 C 596.67 350.74 599.93 346.02 604.18 342.19 C 609.62 337.28 614.26 331.36 617.42 324.73 C 613.90 325.99 612.41 329.57 610.41 332.40 C 606.63 338.17 600.62 341.99 596.62 347.59 C 587.94 359.53 579.47 371.64 570.01 382.99 C 563.93 390.29 557.58 397.42 552.44 405.44 C 548.87 410.97 546.17 417.01 542.36 422.40 C 539.71 426.26 536.45 429.65 533.28 433.09 C 539.69 431.43 544.96 427.42 549.92 423.22 C 548.75 429.46 545.75 435.10 542.39 440.41 C 537.92 447.44 534.42 455.00 530.33 462.25 C 525.98 470.10 520.56 477.28 515.66 484.79 C 511.19 491.45 506.96 498.28 502.42 504.90 C 498.19 490.75 498.03 475.86 495.36 461.41 C 492.27 444.62 488.10 427.98 486.60 410.93 C 486.36 406.46 486.03 401.79 487.48 397.48 C 489.05 395.06 491.34 393.19 492.89 390.75 C 497.63 383.38 500.31 374.84 501.04 366.14 C 503.29 365.13 505.58 364.04 507.19 362.08 C 515.32 352.96 525.45 345.42 536.94 341.13 C 541.27 339.41 545.93 339.03 550.54 338.73 C 549.91 337.31 548.47 336.91 547.11 336.60 C 540.59 335.03 534.88 331.29 529.47 327.47 C 524.39 323.64 518.98 319.94 515.39 314.57 C 513.05 311.17 510.41 307.79 506.36 306.39 C 505.55 301.01 505.47 295.47 503.71 290.28 C 501.45 283.26 497.21 277.16 493.31 270.98 C 496.70 273.48 500.21 275.90 504.26 277.21 C 503.52 274.99 502.79 272.63 501.02 270.99 C 496.01 266.26 489.24 264.21 483.58 260.45 C 477.14 256.21 471.07 251.42 464.38 247.55 C 457.53 243.56 450.06 240.72 442.39 238.77 C 434.22 236.59 425.79 235.51 417.67 233.15 C 411.34 231.33 405.61 227.66 401.24 222.74 C 394.78 215.48 387.17 209.38 379.52 203.42 C 377.12 201.67 375.28 199.26 374.50 196.37 C 377.29 196.79 380.06 197.38 382.77 198.18 C 392.98 201.15 403.29 204.16 413.95 204.92 C 421.99 205.43 430.06 205.46 438.09 206.13 C 443.41 206.56 448.57 208.01 453.87 208.58 C 459.10 209.22 464.58 209.27 469.44 211.56 C 471.16 212.30 472.13 214.11 472.04 215.96 C 472.11 221.68 472.32 227.67 474.96 232.89 C 476.54 236.03 479.61 238.41 483.10 238.97 C 487.39 239.61 491.72 238.50 495.65 236.81 C 507.13 231.86 518.36 225.91 530.75 223.55 C 543.42 221.03 556.37 222.86 569.06 224.18 C 588.32 226.39 607.45 230.58 625.54 237.65 C 632.43 240.42 639.02 243.87 645.97 246.51 C 650.96 247.97 656.49 248.95 660.37 252.71 C 661.64 255.20 662.43 257.97 662.83 260.74 C 662.35 262.41 660.23 262.93 659.00 264.01 C 629.56 283.93 602.59 307.36 577.66 332.64 C 564.83 346.51 550.97 359.38 536.28 371.24 C 530.67 375.60 525.61 380.59 520.47 385.47 C 512.70 393.09 505.02 401.30 494.97 405.89 C 493.49 406.55 491.94 407.37 491.68 409.15 C 496.20 408.03 500.25 405.61 503.99 402.90 C 515.33 394.71 524.14 383.66 534.94 374.85 C 547.97 364.33 560.64 353.33 572.19 341.18 C 596.81 315.29 623.60 291.39 652.76 270.70 C 657.03 267.73 661.11 264.16 666.31 262.96 C 665.22 259.30 662.87 255.94 662.95 252.01 C 662.85 248.25 665.03 245.00 667.07 242.03 C 668.89 239.50 670.56 236.87 672.29 234.27 C 673.45 232.61 674.84 230.73 677.04 230.50 C 680.67 230.25 683.73 232.60 686.46 234.69 C 683.21 237.34 680.08 240.21 677.73 243.71 C 673.09 250.43 668.76 257.45 665.72 265.06 C 668.65 269.33 673.24 273.76 678.86 273.00 C 681.28 272.80 682.37 270.46 683.41 268.62 C 681.27 269.49 679.27 270.72 677.02 271.27 C 673.18 270.61 670.31 267.68 667.86 264.88 C 670.91 257.94 674.78 251.36 679.12 245.14 C 681.20 242.37 683.25 239.36 686.28 237.54 C 690.76 237.30 695.07 238.99 698.97 241.06 C 702.58 242.99 706.42 244.73 709.38 247.63 C 711.93 250.09 712.96 253.57 714.12 256.81 C 710.11 251.79 705.65 246.26 699.02 244.87 C 694.86 243.79 690.75 245.41 686.94 246.93 C 682.83 248.39 679.60 251.61 677.19 255.15 C 675.59 257.57 674.35 260.69 675.54 263.55 C 676.39 266.40 679.20 268.06 681.96 268.67 C 686.86 268.40 692.48 265.92 693.62 260.65 C 689.99 262.95 686.76 267.07 681.99 266.45 C 678.58 266.24 676.07 262.49 677.28 259.28 C 678.98 255.00 682.31 251.16 686.70 249.52 C 690.02 248.22 693.27 246.02 696.99 246.43 C 701.39 246.99 705.20 249.70 708.23 252.79 C 711.63 256.26 713.60 260.76 715.96 264.93 C 717.31 267.39 718.31 270.16 718.03 273.01 C 717.95 276.13 715.72 278.54 713.75 280.72 C 710.94 283.63 708.62 286.95 705.84 289.87 C 702.66 283.68 699.91 277.29 696.85 271.05 C 695.55 268.67 694.85 265.42 691.91 264.56 C 695.42 273.87 700.62 282.45 704.21 291.74 C 708.17 300.46 711.36 309.56 713.28 318.97 C 715.30 328.87 716.37 338.94 717.67 348.96 C 722.95 390.90 725.94 433.09 730.45 475.11 C 732.52 494.34 732.67 513.71 734.38 532.97 C 734.38 534.23 735.02 535.02 736.30 535.36 C 736.17 528.21 735.18 521.12 734.98 513.98 C 734.23 501.34 733.76 488.67 732.45 476.07 C 727.04 425.79 723.77 375.26 716.39 325.21 C 714.74 313.79 711.03 302.84 706.77 292.17 C 709.44 289.01 711.80 285.60 714.68 282.62 C 717.16 279.94 719.84 276.92 720.01 273.06 C 720.36 269.66 718.92 266.48 717.50 263.49 C 715.27 259.16 715.98 253.89 713.38 249.70 C 709.87 243.62 702.95 240.98 696.97 238.00 C 693.63 236.26 688.86 235.31 687.71 231.19 C 685.87 226.11 685.38 219.67 680.45 216.47 C 675.75 214.35 671.03 217.42 667.12 219.83 C 665.54 216.86 664.01 213.78 661.66 211.33 C 658.77 208.30 654.40 206.77 650.25 207.35 C 648.22 207.55 646.59 209.25 646.30 211.23 C 646.25 212.73 646.87 214.14 647.33 215.53 C 651.02 224.59 651.16 235.28 646.96 244.19 C 640.58 242.87 634.96 239.47 629.01 236.98 C 607.67 228.20 584.81 223.59 561.89 221.51 C 553.30 220.71 544.62 219.85 536.02 220.93 C 525.03 222.58 514.06 219.86 503.08 219.44 C 494.39 219.10 485.68 218.73 476.98 219.29 C 475.48 219.56 474.49 218.04 474.32 216.75 C 473.55 214.40 473.36 211.37 470.88 210.09 C 466.66 207.78 461.70 207.55 457.01 207.00 C 450.30 206.54 443.80 204.62 437.09 204.13 C 425.92 203.32 414.62 203.79 403.58 201.61 C 393.74 199.53 384.08 196.64 374.44 193.81 C 374.54 188.85 373.89 183.89 374.28 178.94 C 374.65 174.61 377.46 171.13 379.48 167.46 C 382.86 161.35 386.70 155.34 388.35 148.47 C 390.14 140.74 389.60 132.74 390.28 124.88 C 391.01 117.26 392.05 109.66 392.13 101.99 C 392.22 95.54 392.15 88.93 390.05 82.76 C 389.07 79.72 386.65 77.54 384.95 74.93 C 383.43 72.52 382.67 69.46 380.16 67.83 C 377.05 65.85 373.11 66.07 369.67 66.91 C 366.94 67.65 363.65 68.24 362.49 71.20 C 365.64 70.59 368.80 69.33 372.06 69.97 C 376.46 70.70 381.46 72.04 383.90 76.15 C 383.57 78.28 381.68 79.78 380.31 81.32 C 378.15 83.46 374.92 85.82 371.79 84.22 C 366.99 81.81 367.21 74.90 362.47 72.62 C 363.82 77.06 365.84 81.50 369.24 84.76 C 371.81 87.34 376.20 87.04 378.98 84.96 C 381.44 83.07 383.44 80.68 385.77 78.64 C 388.10 82.34 389.45 86.58 389.86 90.92 C 391.02 101.96 389.63 113.04 388.46 124.01 C 387.55 131.90 388.42 139.98 386.55 147.76 C 385.32 152.93 382.64 157.57 380.18 162.23 C 378.56 165.17 377.21 168.33 374.83 170.76 C 371.24 174.51 368.29 178.98 363.80 181.76 C 355.81 187.41 344.55 188.02 336.22 182.75 C 328.93 178.28 322.25 172.81 316.38 166.60 C 312.59 162.54 309.11 158.01 307.23 152.72 C 306.06 149.43 306.09 145.90 305.58 142.49 C 304.70 143.45 303.88 144.59 304.06 145.98 C 304.26 152.53 307.28 158.64 311.28 163.72 C 317.44 171.58 325.33 177.89 333.59 183.41 C 338.40 186.65 344.15 188.57 349.99 188.28 C 358.95 188.14 367.18 183.06 372.69 176.21 C 372.02 181.79 372.57 187.41 372.57 193.01 C 372.65 195.66 372.71 198.50 374.22 200.79 C 376.55 204.45 380.79 206.22 383.54 209.50 C 386.16 217.25 385.25 225.64 386.20 233.67 C 387.52 243.77 388.22 253.94 389.64 264.03 C 392.87 284.23 390.52 304.72 390.58 325.05 C 390.63 333.11 389.09 341.07 387.32 348.90 C 386.96 348.80 386.23 348.60 385.87 348.50 C 383.54 340.85 378.42 334.59 373.37 328.56 C 369.54 324.08 366.17 319.21 362.15 314.90 C 352.86 305.16 342.73 296.29 333.38 286.61 C 325.47 279.19 317.98 271.32 310.04 263.91 C 301.95 256.35 293.71 248.71 287.65 239.35 C 283.73 233.24 280.35 226.79 276.13 220.87 C 273.71 217.44 270.78 214.41 267.98 211.29 C 272.11 207.40 276.03 202.78 277.00 197.01 C 277.92 190.79 277.40 184.43 276.53 178.23 C 273.98 162.54 267.74 147.80 262.09 133.03 C 263.82 130.70 265.77 128.45 266.87 125.73 C 267.23 124.12 267.05 122.45 267.06 120.82 C 266.62 120.94 265.74 121.18 265.29 121.29 C 264.26 124.22 263.75 127.32 262.51 130.18 C 261.38 129.30 260.32 128.33 259.33 127.31 C 259.34 128.18 259.35 129.91 259.36 130.78 C 253.43 129.72 249.07 124.99 245.66 120.35 C 242.98 116.37 240.25 112.03 239.88 107.13 C 240.65 104.53 241.80 102.06 242.61 99.46 C 243.21 97.65 244.07 95.40 246.23 95.06 C 249.67 94.35 252.72 96.74 254.85 99.16 C 257.91 102.73 259.82 107.59 259.15 112.31 C 259.14 113.54 258.14 114.29 257.36 115.07 C 257.78 112.83 258.76 110.68 258.76 108.38 C 258.16 104.44 253.58 100.52 249.59 102.54 C 246.90 104.13 246.93 107.67 246.59 110.40 C 249.05 109.46 249.08 106.60 249.77 104.47 C 252.62 103.25 255.85 105.06 256.64 107.97 C 256.55 109.49 255.39 110.71 255.07 112.19 C 255.07 113.48 255.14 114.78 255.28 116.07 C 256.86 116.23 258.45 116.37 260.05 116.51 C 262.60 109.67 260.47 101.71 255.25 96.73 C 252.69 94.19 248.95 92.17 245.27 93.24 C 243.59 94.11 242.26 95.49 240.84 96.72 C 242.52 92.53 244.57 87.73 249.19 86.14 C 254.56 84.51 259.88 87.80 263.59 91.42 C 266.21 94.40 268.07 97.95 270.26 101.25 C 269.46 93.37 270.57 85.49 271.88 77.73 C 272.79 73.05 273.67 68.25 275.83 63.95 C 276.93 61.35 280.54 62.19 282.31 60.29 C 283.91 58.65 284.87 56.33 284.71 54.02 C 284.28 48.68 280.29 44.35 280.00 38.99 C 279.88 35.58 282.13 32.65 284.85 30.85 C 290.90 26.69 298.16 24.95 304.64 21.61 C 312.10 17.89 319.67 13.38 328.25 13.22 C 334.10 13.34 339.50 15.95 344.72 18.34 C 348.46 20.02 351.55 22.78 355.15 24.70 C 360.97 27.60 365.39 32.62 369.17 37.79 C 372.37 42.16 373.41 47.58 375.62 52.44 C 376.04 53.41 376.82 53.93 377.94 54.00 C 377.02 47.79 373.95 42.23 371.44 36.56 C 369.01 31.07 365.36 26.15 360.84 22.20 C 354.26 16.29 346.76 10.60 337.83 9.07 C 330.34 8.21 322.74 8.89 315.34 10.16 M 310.24 49.30 C 306.70 50.90 304.08 53.96 302.52 57.46 C 308.94 56.39 315.21 54.02 321.80 54.18 C 324.79 54.37 327.91 54.93 330.44 56.64 C 333.36 58.72 334.80 62.13 336.60 65.10 C 336.91 63.74 337.22 62.38 337.53 61.02 C 338.29 60.81 339.06 60.59 339.83 60.38 C 338.73 57.47 337.79 54.45 336.11 51.81 C 334.67 49.53 332.09 48.29 329.51 47.81 C 323.13 46.60 316.24 46.57 310.24 49.30 M 349.05 49.83 C 350.13 53.95 351.36 58.04 352.08 62.26 C 349.57 60.85 346.95 59.06 343.93 59.99 C 345.84 63.57 351.20 62.44 353.46 65.63 C 356.36 69.76 359.60 73.74 361.45 78.49 C 363.70 84.14 366.74 89.83 366.32 96.11 C 363.85 95.70 361.41 95.17 358.97 94.61 C 357.63 95.67 356.32 96.75 355.02 97.85 C 351.70 94.17 345.86 91.31 341.17 94.14 C 338.96 95.33 336.41 94.64 334.05 94.57 C 333.96 92.83 333.57 91.00 334.25 89.33 C 335.51 86.26 338.55 84.02 338.71 80.51 C 335.24 83.16 333.13 87.06 330.31 90.31 C 325.29 96.61 319.46 102.24 314.68 108.73 C 307.59 119.37 307.70 132.88 308.77 145.14 C 312.58 139.59 314.05 132.63 319.01 127.84 C 320.25 129.95 321.44 132.12 322.90 134.10 C 330.99 145.08 347.12 149.35 359.49 143.50 C 364.82 141.03 368.75 136.33 371.00 130.98 C 371.90 139.58 370.62 148.22 371.33 156.82 C 372.32 152.64 373.00 148.40 374.18 144.27 C 376.23 136.58 379.14 129.03 379.78 121.03 C 380.30 114.94 377.20 109.19 373.19 104.84 C 370.60 101.97 367.25 100.00 364.03 97.94 C 365.98 97.75 367.95 97.29 369.93 97.53 C 372.79 99.08 374.86 101.70 376.64 104.36 C 379.91 109.49 382.24 115.25 383.23 121.27 C 383.59 122.86 383.68 124.78 385.23 125.76 C 385.78 118.08 382.55 110.73 378.84 104.19 C 376.56 99.94 372.84 96.74 368.64 94.46 C 367.38 87.22 364.62 80.37 361.38 73.81 C 359.71 70.57 357.10 67.95 355.29 64.80 C 353.49 61.52 354.36 57.50 352.84 54.12 C 351.93 52.41 350.41 51.16 349.05 49.83 M 357.63 62.62 C 363.62 61.65 369.81 60.73 375.83 61.96 C 379.82 62.84 382.33 66.31 385.19 68.91 C 384.10 65.90 382.97 62.71 380.52 60.51 C 376.36 56.79 370.73 54.43 365.09 54.99 C 361.30 55.40 357.38 58.53 357.63 62.62 M 310.67 60.52 C 307.25 61.53 303.51 62.62 301.31 65.64 C 302.59 65.81 303.88 66.19 305.19 66.04 C 307.78 65.20 310.08 63.10 312.96 63.49 C 320.20 64.16 327.38 69.15 334.64 65.79 C 331.58 62.80 327.39 60.97 323.08 61.05 C 318.92 61.09 314.78 59.18 310.67 60.52 M 291.29 61.86 C 293.26 65.61 298.05 66.21 301.24 68.65 C 298.75 69.36 296.25 70.06 293.78 70.81 C 293.60 71.31 293.25 72.31 293.08 72.81 C 297.26 71.64 302.20 71.53 305.37 68.20 C 300.65 66.15 296.33 63.11 291.29 61.86 M 335.85 66.49 C 336.92 69.39 337.33 73.04 340.36 74.63 C 340.02 72.74 339.60 70.87 339.14 69.01 C 340.87 69.03 342.61 69.03 344.35 69.00 C 344.14 68.63 343.71 67.90 343.49 67.53 C 341.00 66.84 338.40 66.79 335.85 66.49 M 305.85 71.85 C 306.72 73.96 308.21 75.75 310.20 76.90 C 315.25 80.45 321.99 80.85 327.70 78.75 C 330.99 77.50 334.83 76.12 336.28 72.60 C 332.31 73.91 328.98 76.76 324.83 77.60 C 321.73 78.23 318.44 78.28 315.40 77.35 C 311.83 76.23 309.36 73.12 305.85 71.85 M 291.82 101.87 C 290.36 106.46 288.71 111.12 288.95 116.01 C 289.09 120.16 289.33 124.43 290.66 128.40 C 291.06 128.62 291.86 129.05 292.26 129.27 C 291.64 122.90 290.12 116.46 291.41 110.07 C 292.36 106.24 294.10 102.58 294.10 98.56 C 292.93 99.34 292.13 100.50 291.82 101.87 M 303.24 105.43 C 301.79 109.89 301.69 114.67 301.16 119.30 C 300.39 132.73 300.60 146.45 304.47 159.44 C 306.67 167.02 310.40 174.38 316.38 179.67 C 327.40 189.45 342.42 195.26 357.24 193.32 C 351.41 196.63 344.55 196.34 338.17 195.22 C 339.12 196.16 339.84 197.42 341.10 198.00 C 347.35 198.47 353.94 197.75 359.34 194.34 C 363.65 191.59 368.33 188.50 370.19 183.49 C 366.57 184.87 364.19 188.15 360.70 189.73 C 357.04 191.41 352.94 191.99 348.94 191.81 C 340.74 191.32 332.84 188.36 325.82 184.17 C 320.58 180.94 315.55 177.05 312.17 171.83 C 307.40 164.57 305.15 156.01 303.84 147.52 C 301.75 133.38 302.66 119.00 304.83 104.93 C 304.43 105.06 303.64 105.30 303.24 105.43 M 280.87 136.50 C 282.16 140.99 284.70 144.96 287.06 148.94 C 289.82 153.50 292.24 158.24 294.93 162.83 C 290.98 159.57 287.03 156.27 283.59 152.45 C 281.19 150.01 280.76 146.47 279.13 143.58 C 278.46 146.32 278.66 149.29 280.47 151.57 C 284.63 157.35 290.39 161.69 295.94 166.05 C 303.08 171.54 308.37 178.95 314.83 185.17 C 318.74 189.37 323.40 192.74 327.97 196.16 C 317.55 194.34 308.93 187.65 301.26 180.76 C 296.76 176.83 292.85 172.14 287.67 169.06 C 288.43 172.60 291.73 174.47 294.13 176.83 C 302.51 184.63 311.11 192.91 322.19 196.65 C 327.25 198.54 332.72 198.44 338.04 198.72 C 334.10 196.82 330.04 195.08 326.44 192.56 C 319.81 187.95 314.32 181.95 308.90 176.03 C 304.69 171.57 300.88 166.74 296.98 162.01 C 293.13 156.37 290.27 150.13 286.66 144.33 C 284.84 141.67 284.14 137.82 280.87 136.50 M 362.07 146.10 C 360.00 148.98 356.41 150.27 353.00 150.53 C 346.77 151.06 340.80 148.85 334.72 147.92 C 334.89 148.34 335.23 149.17 335.39 149.59 C 341.89 151.77 348.99 153.14 355.84 152.02 C 361.56 151.06 365.69 146.09 367.01 140.64 C 364.52 141.55 363.62 144.20 362.07 146.10 M 313.58 147.61 C 315.73 155.96 322.81 162.36 330.76 165.18 C 332.14 165.81 333.62 165.82 334.98 165.13 C 330.04 162.50 324.36 160.78 320.65 156.32 C 317.94 153.69 317.07 149.43 313.58 147.61 M 294.32 181.26 C 291.16 187.48 287.97 193.70 284.81 199.93 C 283.62 202.22 282.71 204.65 282.09 207.16 C 283.39 206.50 284.60 205.61 285.07 204.16 C 288.25 196.60 292.67 189.64 295.95 182.13 C 295.54 181.91 294.73 181.48 294.32 181.26 M 302.30 187.24 C 303.54 190.04 306.36 191.50 308.44 193.59 C 313.20 198.20 317.23 203.54 322.30 207.85 C 327.68 207.29 333.10 208.50 338.45 207.75 C 338.60 207.38 338.91 206.64 339.06 206.27 C 333.80 205.88 328.52 205.92 323.26 205.72 C 319.73 203.34 317.18 199.81 314.23 196.79 C 310.72 193.12 307.42 188.69 302.30 187.24 M 297.03 200.98 C 297.76 202.77 298.81 204.42 300.22 205.76 C 306.45 211.95 312.90 218.00 320.22 222.87 C 323.35 224.91 326.64 226.84 330.28 227.76 C 334.41 228.75 338.79 227.61 342.36 225.45 C 349.60 221.19 354.61 214.15 361.56 209.50 C 363.03 208.56 364.32 207.38 365.20 205.86 C 363.62 206.26 362.00 206.66 360.65 207.63 C 355.19 211.42 350.75 216.44 345.68 220.70 C 342.30 223.41 338.43 225.95 333.99 226.25 C 329.89 226.41 326.17 224.29 322.80 222.20 C 316.62 218.20 310.98 213.41 305.66 208.33 C 302.89 205.77 300.64 202.44 297.03 200.98 M 586.60 234.66 C 586.83 235.05 587.29 235.84 587.52 236.24 C 591.29 237.21 595.25 237.26 599.05 238.19 C 612.86 241.26 626.30 245.94 639.20 251.71 C 631.80 251.60 624.40 251.45 617.01 251.76 C 600.55 251.98 585.26 244.73 569.03 243.17 C 560.37 242.33 551.67 242.11 542.98 241.89 C 533.63 241.48 524.33 240.33 515.14 238.66 C 510.42 237.82 505.78 236.55 501.01 236.02 C 501.18 236.41 501.51 237.20 501.67 237.59 C 504.49 238.77 507.58 239.05 510.54 239.71 C 522.87 242.24 535.41 243.66 547.99 243.98 C 558.69 244.18 569.49 244.54 579.97 246.92 C 591.58 249.47 603.01 253.46 615.02 253.60 C 622.69 253.56 630.38 253.08 638.04 253.71 C 641.55 253.97 645.04 254.55 648.56 254.77 C 647.66 253.16 646.18 252.11 644.47 251.53 C 631.55 246.30 618.60 240.99 605.04 237.64 C 598.99 236.15 592.85 234.79 586.60 234.66 M 694.29 256.93 C 695.47 260.18 696.86 263.36 698.60 266.36 C 700.14 268.93 701.36 271.97 704.21 273.38 C 703.34 270.10 701.52 267.22 699.82 264.33 C 703.33 266.05 707.04 267.40 710.94 267.93 C 709.00 266.02 706.72 264.45 704.08 263.70 C 700.12 262.61 697.28 259.54 694.29 256.93 M 174.86 264.26 C 166.89 264.76 159.25 267.14 151.49 268.79 C 131.70 272.65 111.61 268.70 91.68 268.95 C 91.87 269.35 92.24 270.15 92.43 270.55 C 96.59 271.25 100.84 270.88 105.03 271.15 C 122.50 272.18 140.38 273.93 157.53 269.42 C 167.09 267.01 177.28 264.50 187.06 267.13 C 173.42 270.66 159.44 272.78 145.88 276.67 C 130.42 281.28 114.05 281.24 98.10 279.99 C 98.06 280.47 98.00 281.43 97.96 281.90 C 109.82 282.74 121.78 283.00 133.59 281.35 C 140.43 280.38 147.03 278.25 153.73 276.62 C 160.42 274.93 167.17 273.47 173.95 272.17 C 179.98 271.02 185.83 269.00 191.96 268.32 C 193.57 267.98 195.77 268.24 196.39 266.29 C 189.17 265.92 182.13 263.29 174.86 264.26 M 667.56 281.48 C 663.84 286.70 658.77 290.74 654.68 295.65 C 646.97 304.50 642.83 315.68 636.42 325.39 C 625.70 341.66 621.32 360.90 615.34 379.18 C 607.44 402.91 599.36 426.67 588.42 449.21 C 582.08 462.15 576.55 475.50 572.23 489.25 C 570.07 495.96 568.64 502.89 566.36 509.56 C 563.76 517.49 561.02 525.57 560.98 534.00 C 561.37 533.87 562.15 533.60 562.53 533.47 C 563.24 530.55 563.33 527.54 563.99 524.62 C 565.69 516.52 568.91 508.86 570.93 500.85 C 575.27 483.80 581.83 467.38 589.46 451.55 C 600.44 429.26 608.50 405.70 616.39 382.19 C 621.58 366.61 625.41 350.47 632.75 335.69 C 634.88 331.32 637.57 327.26 640.11 323.13 C 645.29 314.64 649.13 305.28 655.56 297.60 C 660.36 291.78 666.61 287.17 670.49 280.62 C 671.67 278.72 672.10 276.51 672.40 274.33 C 669.89 276.00 669.30 279.17 667.56 281.48 M 124.53 295.24 C 120.36 296.11 116.09 295.89 111.87 295.63 C 120.09 303.58 128.62 311.20 136.62 319.38 C 141.56 324.44 146.83 329.17 151.84 334.16 C 158.35 340.66 165.19 346.99 170.23 354.75 C 171.63 356.90 172.10 359.49 173.34 361.72 C 174.39 363.12 175.83 364.16 177.17 365.26 C 175.06 356.76 169.42 349.75 163.70 343.35 C 154.46 333.57 144.41 324.60 135.05 314.95 C 129.43 309.15 123.07 304.09 117.66 298.08 C 127.30 297.42 136.33 293.53 145.95 292.81 C 147.22 292.82 148.02 292.19 148.35 290.93 C 140.16 290.59 132.45 293.69 124.53 295.24 M 97.14 299.92 C 97.29 305.19 100.74 309.38 103.57 313.53 C 106.78 318.05 109.43 322.93 112.42 327.60 C 116.19 333.50 119.99 339.38 123.70 345.31 C 132.75 359.87 143.54 373.36 151.19 388.76 C 161.64 410.40 171.18 432.49 180.35 454.69 C 182.52 458.88 184.37 463.23 186.30 467.54 C 189.16 474.06 192.59 480.38 194.61 487.25 C 196.79 493.84 197.90 500.79 200.80 507.15 C 201.71 505.52 202.98 503.97 203.06 502.03 C 203.81 494.64 201.48 487.44 199.37 480.46 C 197.45 474.01 195.28 467.40 190.76 462.25 C 187.58 458.13 182.65 455.33 180.75 450.29 C 173.81 434.00 166.82 417.73 159.45 401.62 C 155.13 392.43 150.91 383.15 145.42 374.58 C 137.84 362.57 129.42 351.12 122.04 338.99 C 115.48 329.12 109.64 318.79 102.89 309.05 C 100.88 306.06 99.74 302.50 97.14 299.92 M 479.88 360.83 C 477.10 363.90 476.14 368.54 477.30 372.49 C 478.53 375.90 483.57 376.44 485.86 373.84 C 489.51 370.08 489.97 363.91 487.07 359.57 C 484.66 359.61 481.69 358.71 479.88 360.83 M 360.44 376.62 C 353.39 378.58 347.28 382.74 340.74 385.86 C 331.17 390.79 320.71 393.60 310.88 397.92 C 307.33 399.53 304.20 402.12 300.36 403.05 C 297.60 403.71 294.80 404.18 292.10 405.06 C 287.80 406.62 283.39 404.38 279.13 403.66 C 279.62 404.73 280.10 406.06 281.46 406.25 C 284.32 407.04 287.22 407.68 290.15 408.15 C 292.52 407.33 294.70 405.92 297.25 405.61 C 300.74 405.10 304.19 404.12 307.17 402.15 C 312.61 398.71 318.82 396.86 324.80 394.63 C 331.19 392.30 337.52 389.76 343.56 386.63 C 347.53 384.63 351.35 382.35 355.41 380.52 C 360.69 378.16 366.50 377.23 371.71 374.69 C 372.96 374.19 373.56 372.93 374.29 371.90 C 369.59 373.23 365.17 375.37 360.44 376.62 M 301.26 376.26 C 297.11 379.77 298.75 387.34 303.55 389.42 C 307.79 390.67 311.86 387.50 314.00 384.09 C 316.05 380.84 315.27 376.88 314.68 373.33 C 310.11 373.16 304.96 373.14 301.26 376.26 M 119.09 377.21 C 119.06 386.07 123.55 393.94 125.38 402.43 C 128.97 417.77 132.20 433.18 135.70 448.54 C 138.37 460.84 140.48 473.34 144.87 485.19 C 145.29 486.76 146.50 487.80 147.92 488.51 C 146.97 484.84 145.51 481.34 144.43 477.72 C 141.25 467.32 139.46 456.57 137.09 445.96 C 133.73 431.35 130.75 416.66 127.25 402.08 C 125.41 393.65 121.24 385.80 120.86 377.06 C 120.42 377.09 119.53 377.17 119.09 377.21 M 135.47 376.61 C 135.88 378.67 136.48 380.70 137.36 382.62 C 146.85 403.29 156.61 423.85 165.02 445.00 C 169.48 456.28 172.84 467.94 176.43 479.52 C 180.82 493.58 186.45 507.29 189.48 521.76 C 189.99 521.77 191.00 521.79 191.50 521.80 C 189.24 511.19 185.70 500.92 182.17 490.68 C 176.93 475.80 173.06 460.47 167.39 445.74 C 159.13 424.49 149.17 403.96 139.86 383.17 C 138.71 380.81 138.03 377.88 135.47 376.61 M 518.47 418.39 C 511.89 420.90 505.00 423.02 497.93 423.33 C 495.15 423.53 492.72 422.02 490.24 421.05 C 490.77 422.62 491.43 424.43 493.32 424.73 C 498.34 425.80 503.55 424.85 508.47 423.62 C 514.84 421.89 521.59 420.16 526.50 415.46 C 529.99 412.13 534.10 409.03 539.15 408.93 C 539.36 410.81 539.80 412.87 538.74 414.61 C 535.95 419.08 530.84 421.52 528.21 426.14 C 526.44 429.20 524.60 432.24 522.26 434.90 C 524.60 434.30 526.98 433.84 529.39 433.56 C 528.49 436.07 526.98 438.50 524.39 439.53 C 516.66 443.00 507.94 442.22 499.80 443.92 C 497.37 444.51 494.35 445.11 493.55 447.88 C 496.39 447.07 499.16 445.97 502.09 445.48 C 508.61 444.36 515.33 444.44 521.74 442.62 C 524.75 441.77 527.78 440.31 529.65 437.70 C 530.96 435.98 530.97 433.73 531.35 431.70 C 529.99 431.64 528.65 431.58 527.31 431.54 C 528.86 428.77 530.31 425.87 532.68 423.69 C 535.52 420.81 539.22 418.52 540.83 414.66 C 541.77 412.56 541.28 410.25 541.03 408.07 C 539.06 407.77 537.04 406.98 535.06 407.60 C 528.39 409.27 524.76 415.98 518.47 418.39 M 428.32 505.36 C 427.76 508.28 428.95 512.17 432.29 512.69 C 437.24 512.96 441.60 510.09 446.11 508.48 C 445.87 506.60 445.40 504.40 443.30 503.82 C 439.92 502.84 436.21 502.98 433.12 501.06 C 431.49 502.45 429.53 503.55 428.32 505.36 Z" />
<path fill="#ffffff" opacity="1.00" d=" M 310.00 13.21 C 316.20 11.64 322.60 10.91 328.98 10.60 C 333.79 10.36 338.77 10.64 343.23 12.62 C 351.64 16.21 358.74 22.31 364.79 29.07 C 361.92 26.88 359.25 24.41 356.08 22.65 C 351.80 20.36 347.90 17.39 343.40 15.51 C 337.63 13.06 331.41 10.59 325.02 11.58 C 314.09 12.96 305.19 20.05 295.06 23.75 C 298.20 21.33 301.51 19.12 304.55 16.55 C 306.19 15.19 307.84 13.68 310.00 13.21 Z" />
<path fill="#ffffff" opacity="1.00" d=" M 276.05 28.94 C 283.39 23.07 291.93 18.75 300.91 15.99 C 292.91 20.84 284.36 24.68 276.05 28.94 Z" />
<path fill="#ffffff" opacity="1.00" d=" M 276.17 31.31 C 280.24 28.87 284.52 26.76 288.87 24.85 C 285.39 27.37 281.76 29.69 278.29 32.23 C 277.01 33.24 275.43 33.69 273.87 34.03 C 274.51 33.04 275.06 31.89 276.17 31.31 Z" />
<path fill="#ffffff" opacity="1.00" d=" M 266.20 39.97 C 267.76 37.40 269.53 34.96 271.73 32.91 C 272.29 33.92 272.85 34.92 273.41 35.93 C 271.53 38.31 269.63 40.67 267.68 42.98 C 267.31 42.23 266.57 40.72 266.20 39.97 Z" />
<path fill="#ffffff" opacity="1.00" d=" M 276.50 36.19 C 277.35 35.49 278.20 34.80 279.06 34.11 C 278.56 35.79 278.03 37.46 277.46 39.12 C 277.13 38.14 276.82 37.16 276.50 36.19 Z" />
<path fill="#ffffff" opacity="1.00" d=" M 274.04 37.62 C 277.01 41.55 277.44 46.70 277.98 51.43 C 275.53 47.33 273.05 42.55 274.04 37.62 Z" />
<path fill="#ffffff" opacity="1.00" d=" M 258.17 57.25 C 260.06 51.53 262.69 46.03 265.82 40.89 C 265.75 43.01 266.36 45.38 265.19 47.31 C 264.48 48.56 263.07 49.09 261.92 49.81 C 261.53 52.63 260.90 55.75 258.17 57.25 Z" />
<path fill="#ffffff" opacity="1.00" d=" M 271.45 41.45 C 273.58 46.77 274.09 52.59 273.95 58.27 C 271.36 54.30 269.83 49.78 268.72 45.21 C 269.62 43.95 270.53 42.70 271.45 41.45 Z" />
<path fill="#ffffff" opacity="1.00" d=" M 264.22 52.18 C 265.05 51.06 265.87 49.94 266.71 48.82 C 267.96 52.63 269.06 56.53 269.19 60.57 C 266.83 58.24 265.29 55.29 264.22 52.18 Z" />
<path fill="#ffffff" opacity="1.00" d=" M 280.19 49.93 C 281.14 51.60 282.38 53.17 282.89 55.05 C 282.57 56.68 281.79 58.28 280.47 59.32 C 279.05 59.70 277.58 59.85 276.15 60.08 C 276.01 57.39 275.88 54.69 275.68 52.01 C 277.07 54.26 278.39 56.55 279.92 58.71 C 280.09 55.78 280.12 52.86 280.19 49.93 Z" />
<path fill="#ffffff" opacity="1.00" d=" M 310.78 53.45 C 316.94 49.77 325.10 48.85 331.51 52.39 C 334.00 53.66 335.05 56.36 336.14 58.75 C 333.25 56.59 330.57 53.84 326.92 53.03 C 321.60 51.51 316.12 52.82 310.78 53.45 Z" />
<path fill="#ffffff" opacity="1.00" d=" M 260.50 58.64 C 261.27 57.41 262.09 56.19 262.97 55.03 C 264.93 58.87 266.65 62.84 267.92 66.97 C 265.35 64.27 262.95 61.43 260.50 58.64 Z" />
<path fill="#ffffff" opacity="1.00" d=" M 271.18 58.55 C 273.37 57.53 273.27 62.97 271.18 62.30 C 270.24 61.32 270.31 59.56 271.18 58.55 Z" />
<path fill="#ffffff" opacity="1.00" d=" M 362.77 59.53 C 366.77 58.07 371.14 58.09 375.16 59.44 C 371.04 59.65 366.90 59.71 362.77 59.53 Z" />
<path fill="#ffffff" opacity="1.00" d=" M 256.58 64.34 C 257.35 63.18 258.11 62.03 258.89 60.88 C 260.79 64.06 262.52 67.34 264.09 70.70 C 261.62 68.54 259.13 66.40 256.58 64.34 Z" />
<path fill="#ffffff" opacity="1.00" d=" M 269.30 83.04 C 269.16 75.36 270.95 67.52 274.74 60.82 C 271.92 67.95 269.96 75.38 269.30 83.04 Z" />
<path fill="#ffffff" opacity="1.00" d=" M 320.97 63.28 C 324.16 62.13 327.41 63.35 330.19 64.98 C 327.03 65.02 323.92 64.35 320.97 63.28 Z" />
<path fill="#ffffff" opacity="1.00" d=" M 269.12 64.25 L 269.94 64.25 L 270.35 64.97 L 269.93 65.68 L 269.11 65.68 L 268.70 64.96 L 269.12 64.25 Z" />
<path fill="#ffffff" opacity="1.00" d=" M 264.43 66.52 C 266.08 66.40 267.44 69.19 266.76 70.63 C 265.03 70.76 263.98 67.98 264.43 66.52 Z" />
<path fill="#ffffff" opacity="1.00" d=" M 255.25 67.05 C 256.39 68.81 256.40 70.87 256.52 72.88 C 257.40 74.90 259.18 76.38 260.50 78.12 C 257.72 78.00 254.95 77.80 252.18 77.56 C 252.07 73.80 253.17 70.16 255.25 67.05 Z" />
<path fill="#ffffff" opacity="1.00" d=" M 374.67 68.13 C 376.02 67.11 379.01 68.04 379.37 69.64 C 377.95 70.05 374.86 69.92 374.67 68.13 Z" />
<path fill="#ffffff" opacity="1.00" d=" M 258.83 69.06 C 261.28 70.63 263.36 72.71 264.86 75.20 C 262.46 73.58 260.44 71.46 258.83 69.06 Z" />
<path fill="#ffffff" opacity="1.00" d=" M 248.66 83.80 C 248.58 80.84 249.17 77.95 249.98 75.12 C 250.67 77.01 251.02 79.13 252.29 80.75 C 255.00 83.00 258.14 84.64 261.01 86.67 C 257.24 84.52 252.99 83.57 248.66 83.80 Z" />
<path fill="#ffffff" opacity="1.00" d=" M 265.54 76.13 C 267.10 75.38 268.79 78.03 267.84 79.32 C 266.25 80.06 264.67 77.43 265.54 76.13 Z" />
<path fill="#ffffff" opacity="1.00" d=" M 258.96 80.78 C 260.83 80.86 262.76 80.72 264.57 81.33 C 266.39 82.39 267.50 84.28 268.87 85.82 C 268.58 87.75 268.28 89.68 267.95 91.60 C 266.78 90.18 265.79 88.63 265.14 86.91 C 264.14 84.01 261.06 82.75 258.96 80.78 Z" />
<path fill="#ffffff" opacity="1.00" d=" M 317.76 107.81 C 322.29 102.46 326.98 97.27 331.60 92.00 C 331.86 93.28 332.12 94.56 332.39 95.84 C 335.93 96.48 339.52 96.82 343.10 97.21 C 335.89 98.87 328.70 101.26 322.52 105.43 C 318.79 107.88 316.57 111.84 313.83 115.23 C 314.50 112.46 315.89 109.94 317.76 107.81 Z" />
<path fill="#ffffff" opacity="1.00" d=" M 343.99 94.96 C 346.89 94.89 349.62 95.94 352.01 97.52 C 349.37 96.95 345.16 98.13 343.99 94.96 Z" />
<path fill="#ffffff" opacity="1.00" d=" M 359.24 96.32 C 360.53 95.97 361.06 97.75 360.21 98.52 C 359.60 99.46 357.67 99.67 357.45 98.31 C 357.55 97.23 358.14 96.57 359.24 96.32 Z" />
<path fill="#ffffff" opacity="1.00" d=" M 329.54 103.75 C 334.45 101.67 339.48 99.38 344.88 99.16 C 346.18 99.29 348.56 99.84 347.69 101.63 C 342.18 104.65 335.94 105.91 330.20 108.38 C 326.09 109.96 322.47 112.49 318.71 114.73 C 323.33 109.11 330.08 105.74 336.94 103.69 C 339.99 102.74 343.24 102.60 346.29 101.62 L 346.95 100.38 C 337.44 100.23 328.39 104.15 320.71 109.51 C 323.37 107.19 326.27 105.11 329.54 103.75 Z" />
<path fill="#ffffff" opacity="1.00" d=" M 351.58 99.13 C 352.71 98.18 353.35 98.43 353.49 99.88 C 352.35 100.81 351.71 100.56 351.58 99.13 Z" />
<path fill="#ffffff" opacity="1.00" d=" M 349.85 101.15 C 353.96 102.24 358.26 101.97 362.44 102.64 C 367.80 106.99 369.00 114.42 370.19 120.85 C 364.18 112.82 354.05 107.57 343.90 109.11 C 333.45 110.29 324.93 117.28 318.08 124.78 C 317.74 123.19 317.39 121.60 317.04 120.01 C 322.99 112.33 332.68 109.41 341.49 106.38 C 344.53 105.16 348.55 104.62 349.85 101.15 Z" />
<path fill="#ffffff" opacity="1.00" d=" M 365.06 100.88 C 366.95 102.00 368.68 103.40 370.13 105.07 C 367.93 104.36 366.08 102.99 365.06 100.88 Z" />
<path fill="#ffffff" opacity="1.00" d=" M 368.38 106.10 C 370.27 107.71 372.36 109.25 373.52 111.52 C 374.87 114.14 375.29 117.12 375.53 120.03 C 375.76 124.30 375.80 128.91 373.35 132.63 C 372.60 126.70 372.70 120.66 371.31 114.82 C 370.60 111.83 369.45 108.97 368.38 106.10 Z" />
<path fill="#ffffff" opacity="1.00" d=" M 327.05 118.69 C 332.26 114.73 338.29 111.49 344.92 110.96 C 352.51 109.97 360.14 113.24 365.49 118.52 C 367.36 120.39 369.08 122.63 369.53 125.31 C 369.71 127.21 369.26 129.10 369.02 130.98 C 368.22 128.02 367.65 124.84 365.69 122.39 C 363.10 118.98 359.05 117.01 354.93 116.19 C 345.63 114.43 335.90 115.34 327.05 118.69 Z" />
<path fill="#ffffff" opacity="1.00" d=" M 376.76 113.78 C 377.58 116.82 377.82 119.97 377.69 123.11 C 377.24 120.01 376.92 116.90 376.76 113.78 Z" />
<path fill="#ffffff" opacity="1.00" d=" M 344.27 117.93 C 348.47 116.73 352.85 117.72 357.01 118.58 C 356.43 119.25 355.85 119.93 355.27 120.60 C 353.86 119.57 352.53 118.37 350.88 117.73 C 348.68 117.54 346.47 117.89 344.27 117.93 Z" />
<path fill="#ffffff" opacity="1.00" d=" M 314.54 128.22 C 313.41 124.86 313.47 121.26 314.39 117.86 C 314.71 121.30 314.84 124.77 314.54 128.22 Z" />
<path fill="#ffffff" opacity="1.00" d=" M 337.30 118.11 C 339.69 117.29 340.97 120.35 343.20 120.59 C 345.53 121.09 347.56 119.38 349.82 119.15 C 352.47 119.78 353.23 122.61 354.17 124.79 C 347.59 124.56 340.90 124.26 334.44 125.81 C 332.22 126.32 330.09 127.16 327.86 127.57 C 325.39 127.76 322.93 127.25 320.48 127.00 C 321.73 122.91 326.05 121.28 329.65 119.79 C 329.85 121.62 330.04 123.46 330.25 125.29 C 332.56 122.87 334.39 119.87 337.30 118.11 Z" />
<path fill="#ffffff" opacity="1.00" d=" M 331.38 119.09 L 332.09 118.69 L 332.79 119.11 L 332.78 119.94 L 332.06 120.35 L 331.36 119.92 L 331.38 119.09 Z" />
<path fill="#ffffff" opacity="1.00" d=" M 358.50 119.42 C 359.84 118.58 362.26 120.37 361.34 121.88 C 359.99 122.99 357.62 120.87 358.50 119.42 Z" />
<path fill="#ffffff" opacity="1.00" d=" M 310.24 138.17 C 309.85 132.38 310.23 126.53 311.59 120.88 C 311.86 124.72 312.12 128.56 312.35 132.40 C 312.50 134.53 311.09 136.32 310.24 138.17 Z" />
<path fill="#ffffff" opacity="1.00" d=" M 354.52 124.93 C 355.39 123.66 356.30 122.42 357.23 121.20 C 357.66 122.22 358.09 123.25 358.52 124.28 C 360.34 123.89 362.38 122.79 364.18 123.76 C 366.73 126.59 366.83 130.67 367.08 134.27 C 363.48 130.42 359.33 127.14 354.52 124.93 Z" />
<path fill="#ffffff" opacity="1.00" d=" M 329.40 129.46 C 335.88 126.77 343.05 126.14 350.00 126.50 C 356.38 126.83 361.82 130.92 365.41 135.97 C 365.09 136.48 364.45 137.52 364.13 138.04 C 361.92 136.65 359.56 135.45 357.01 134.86 C 346.52 132.16 335.53 132.50 324.86 133.70 C 323.90 132.16 322.95 130.62 322.03 129.08 C 324.45 129.31 327.02 130.57 329.40 129.46 Z" />
<path fill="#ffffff" opacity="1.00" d=" M 255.15 131.85 C 257.28 132.24 259.33 132.95 261.12 134.19 C 259.42 134.20 257.73 134.20 256.05 134.22 C 255.58 136.15 255.95 138.07 257.66 139.26 C 257.94 138.36 258.49 136.56 258.76 135.66 C 259.52 139.00 260.12 142.41 261.36 145.63 C 262.24 147.00 263.54 148.07 264.27 149.55 C 264.77 151.39 264.65 153.33 264.71 155.22 C 261.09 151.55 258.87 146.80 256.76 142.16 C 255.24 138.95 255.00 135.35 255.15 131.85 Z" />
<path fill="#ffffff" opacity="1.00" d=" M 373.16 140.13 C 373.02 137.86 373.15 135.50 374.85 133.79 C 374.48 135.95 373.91 138.07 373.16 140.13 Z" />
<path fill="#ffffff" opacity="1.00" d=" M 326.18 135.42 C 338.46 134.09 351.30 134.12 362.91 138.84 C 357.40 143.80 349.49 144.90 342.38 143.79 C 343.25 142.87 344.11 141.77 345.48 141.65 C 349.22 141.03 352.95 142.24 356.69 142.41 C 356.41 142.00 355.84 141.17 355.55 140.76 C 351.11 139.01 346.18 139.62 341.61 140.54 C 341.04 139.87 340.46 139.20 339.89 138.53 C 337.28 139.67 334.32 140.04 331.55 139.28 C 329.55 138.32 327.92 136.76 326.18 135.42 Z" />
<path fill="#ffffff" opacity="1.00" d=" M 262.87 140.95 C 264.01 143.22 264.88 145.60 265.68 148.01 C 264.35 145.83 263.18 143.52 262.87 140.95 Z" />
<path fill="#ffffff" opacity="1.00" d=" M 337.02 141.12 C 338.83 141.23 340.27 142.21 341.41 143.58 C 339.74 143.15 337.87 142.82 337.02 141.12 Z" />
<path fill="#ffffff" opacity="1.00" d=" M 266.30 149.24 C 267.46 152.45 268.55 155.69 269.76 158.89 C 268.72 157.48 267.33 156.24 266.72 154.58 C 266.41 152.81 266.35 151.02 266.30 149.24 Z" />
<path fill="#ffffff" opacity="1.00" d=" M 266.10 157.68 C 267.76 157.44 269.18 160.04 268.61 161.49 C 266.96 161.79 265.46 159.09 266.10 157.68 Z" />
<path fill="#ffffff" opacity="1.00" d=" M 249.94 199.14 C 258.29 197.51 266.50 193.90 275.17 195.10 C 274.60 204.40 266.39 210.67 258.84 214.77 C 245.97 221.57 235.37 232.41 221.30 236.90 C 218.72 231.99 215.00 227.45 209.98 224.93 C 206.22 223.00 201.91 223.90 197.97 224.64 C 202.69 221.10 207.13 217.15 212.28 214.23 C 224.05 207.50 236.63 201.94 249.94 199.14 Z" />
<path fill="#ffffff" opacity="1.00" d=" M 648.45 209.65 C 650.77 209.29 653.22 208.75 655.50 209.68 C 660.57 211.33 663.30 216.38 665.29 220.96 C 663.03 223.82 660.38 226.59 659.39 230.19 C 658.74 232.67 658.62 235.32 659.22 237.82 C 659.78 240.13 662.11 241.23 663.85 242.56 C 662.89 245.04 661.87 247.50 660.83 249.95 C 656.94 248.22 653.05 246.50 649.09 244.93 C 652.52 235.82 653.16 225.51 649.67 216.33 C 648.78 214.21 648.18 211.96 648.45 209.65 Z" />
<path fill="#ffffff" opacity="1.00" d=" M 667.92 221.92 C 671.14 219.43 675.41 216.48 679.61 218.22 C 683.65 221.37 684.21 226.94 685.87 231.48 C 682.41 229.71 678.30 227.43 674.43 229.36 C 670.29 231.73 669.25 236.95 665.76 239.99 C 663.19 240.77 660.72 238.57 660.82 235.98 C 659.96 230.27 663.49 225.13 667.92 221.92 Z" />
<path fill="#ffffff" opacity="1.00" d=" M 474.47 223.02 C 474.37 221.24 476.75 221.48 477.92 221.20 C 483.94 220.74 489.98 221.07 496.01 221.09 C 505.38 221.07 514.66 222.45 523.98 223.27 C 513.90 226.06 504.54 230.81 495.00 234.98 C 490.78 236.74 485.89 238.21 481.42 236.51 C 476.35 234.22 474.61 228.14 474.47 223.02 Z" />
<path fill="#ffffff" opacity="1.00" d=" M 53.72 229.48 C 54.22 227.88 55.13 225.82 57.08 225.74 C 60.68 225.88 63.81 228.27 65.98 230.99 C 70.66 237.18 72.17 245.33 71.05 252.92 C 69.08 251.18 67.25 249.05 64.67 248.24 C 62.59 247.99 60.48 248.34 58.39 248.19 C 56.33 247.13 54.79 245.31 53.06 243.80 C 53.03 239.03 52.53 234.16 53.72 229.48 Z" />
<path fill="#ffffff" opacity="1.00" d=" M 43.84 247.88 C 44.89 246.10 46.69 244.40 48.92 244.68 C 51.90 245.49 54.35 247.52 56.47 249.70 C 48.78 255.67 43.77 264.15 37.04 271.05 C 35.90 272.14 35.19 273.55 34.61 275.01 C 36.57 273.95 38.50 272.74 39.95 271.01 C 44.82 265.51 48.87 259.28 54.23 254.21 C 55.73 252.58 57.93 252.14 59.98 251.60 C 60.69 251.03 61.18 249.84 62.25 249.96 C 65.38 249.66 67.67 252.11 69.18 254.52 C 63.08 258.52 58.14 263.94 53.45 269.47 C 51.14 272.33 48.10 274.71 46.75 278.23 C 48.44 277.52 49.99 276.52 51.16 275.09 C 55.81 269.79 60.32 264.33 65.58 259.60 C 67.62 257.76 70.11 256.19 72.93 256.00 C 74.95 255.78 75.80 257.92 76.68 259.32 C 77.78 261.57 79.56 263.33 81.06 265.30 C 81.63 266.71 81.30 268.28 81.36 269.77 C 79.32 269.44 77.28 268.91 75.20 269.04 C 71.08 270.73 68.46 274.61 66.53 278.45 C 64.83 281.97 62.46 285.09 60.68 288.57 C 65.39 286.98 66.73 281.79 69.01 277.94 C 70.54 274.80 73.17 272.44 76.01 270.51 C 80.23 271.94 84.33 273.71 88.31 275.72 C 93.34 278.03 95.11 283.94 95.78 289.00 C 96.27 293.34 95.03 299.11 90.23 300.46 C 87.67 296.54 86.55 291.88 83.96 287.99 C 82.77 286.68 80.12 284.90 78.81 286.96 C 79.35 289.46 80.36 291.83 81.22 294.24 C 79.32 294.18 77.42 294.14 75.51 294.19 C 76.65 295.88 78.68 296.22 80.51 296.68 C 81.39 303.29 83.72 309.55 85.26 316.01 C 86.93 324.58 88.61 333.22 88.60 341.99 C 88.95 356.66 87.82 371.30 87.30 385.96 C 86.75 409.33 89.38 432.74 87.01 456.07 C 86.67 458.49 86.98 461.24 85.40 463.30 C 75.64 442.23 78.32 418.46 75.34 396.03 C 72.45 376.58 69.60 356.74 61.45 338.66 C 55.45 325.49 46.40 313.98 36.63 303.41 C 33.09 299.54 28.62 296.73 24.67 293.33 C 22.82 291.64 20.70 289.67 20.71 286.96 C 20.78 283.78 22.94 281.24 24.77 278.85 C 30.06 272.29 35.04 265.44 39.08 258.04 C 40.91 254.76 41.94 251.11 43.84 247.88 Z" />
<path fill="#ffffff" opacity="1.00" d=" M 493.14 267.94 C 495.68 269.25 498.08 270.88 500.00 273.02 C 497.49 271.65 495.22 269.90 493.14 267.94 Z" />
<path fill="#ffffff" opacity="1.00" d=" M 506.39 308.62 C 509.72 310.28 511.09 313.98 513.02 316.93 C 510.07 314.84 507.34 312.23 506.39 308.62 Z" />
<path fill="#ffffff" opacity="1.00" d=" M 504.71 311.19 C 507.03 314.27 509.75 317.02 512.72 319.49 C 511.84 325.33 511.07 331.18 510.64 337.07 C 509.80 346.73 505.83 355.82 500.59 363.88 C 500.79 358.22 500.20 352.57 500.50 346.92 C 500.75 340.92 501.73 334.98 502.11 328.99 C 502.55 323.00 503.38 317.04 504.71 311.19 Z" />
<path fill="#ffffff" opacity="1.00" d=" M 515.30 318.74 C 523.94 325.70 532.46 333.10 542.78 337.53 C 526.91 341.13 513.22 351.41 503.08 363.87 C 506.13 358.49 509.04 352.97 510.71 346.98 C 513.43 337.77 512.40 327.92 515.30 318.74 Z" />
<path fill="#ffffff" opacity="1.00" d=" M 386.83 351.96 C 387.60 351.85 389.14 351.63 389.90 351.51 C 393.08 355.87 396.60 360.52 396.62 366.18 C 400.81 365.29 404.98 364.18 409.27 363.87 C 409.15 365.39 409.02 366.92 408.87 368.45 C 406.42 368.68 403.98 368.91 401.54 369.15 C 402.79 373.34 404.69 377.29 406.67 381.18 C 408.47 384.60 411.46 387.21 413.31 390.60 C 414.35 392.28 413.82 394.33 413.91 396.19 C 411.94 396.19 409.86 395.99 408.40 394.52 C 401.41 388.47 398.41 379.37 392.98 372.11 C 389.86 373.32 386.63 374.23 383.34 374.87 C 383.15 372.58 383.01 370.30 382.90 368.02 C 386.09 367.10 389.41 366.95 392.72 366.99 C 389.97 362.42 385.27 357.77 386.83 351.96 Z" />
<path fill="#ffffff" opacity="1.00" d=" M 479.46 372.59 C 477.56 368.45 479.30 362.32 483.88 360.77 C 485.07 362.36 487.12 363.71 487.03 365.92 C 486.99 368.57 485.95 371.44 483.74 373.02 C 482.40 374.11 480.75 373.25 479.46 372.59 Z" />
<path fill="#ffffff" opacity="1.00" d=" M 301.62 378.78 C 303.78 375.85 307.70 375.50 311.03 375.03 C 311.81 376.75 312.71 378.41 313.64 380.06 C 312.30 383.75 309.56 387.71 305.24 387.83 C 301.38 387.17 299.77 381.92 301.62 378.78 Z" />
<path fill="#ffffff" opacity="1.00" d=" M 184.90 459.08 C 189.89 463.35 193.71 468.93 195.66 475.22 C 198.43 483.89 201.66 492.71 201.42 501.96 C 200.76 501.11 200.12 500.20 199.91 499.14 C 198.26 492.97 196.74 486.74 194.38 480.79 C 191.42 473.47 187.58 466.52 184.90 459.08 Z" />
<path fill="#ffffff" opacity="1.00" d=" M 219.15 461.67 C 220.67 461.54 221.62 464.17 220.84 465.34 C 219.29 465.49 218.21 462.83 219.15 461.67 Z" />
<path fill="#ffffff" opacity="1.00" d=" M 217.72 475.44 C 218.11 472.64 218.55 469.84 219.23 467.09 C 220.76 469.70 222.05 472.45 222.86 475.38 C 221.14 475.40 219.43 475.42 217.72 475.44 Z" />
<path fill="#ffffff" opacity="1.00" d=" M 430.28 504.63 C 432.43 504.46 432.88 506.13 433.13 507.90 C 434.34 507.40 435.44 506.27 436.82 506.39 C 438.09 507.03 439.22 507.91 440.38 508.74 C 437.51 510.07 434.43 511.02 431.23 510.77 C 430.51 508.79 430.19 506.72 430.28 504.63 Z" />
<path fill="#ffffff" opacity="1.00" d=" M 439.76 505.06 C 441.18 503.97 444.05 505.47 443.77 507.28 C 442.41 507.62 439.82 506.58 439.76 505.06 Z" />
</g>
<g id="#000000ff">
<path fill="#000000" opacity="1.00" d=" M 315.34 10.16 C 322.74 8.89 330.34 8.21 337.83 9.07 C 346.76 10.60 354.26 16.29 360.84 22.20 C 365.36 26.15 369.01 31.07 371.44 36.56 C 373.95 42.23 377.02 47.79 377.94 54.00 C 376.82 53.93 376.04 53.41 375.62 52.44 C 373.41 47.58 372.37 42.16 369.17 37.79 C 365.39 32.62 360.97 27.60 355.15 24.70 C 351.55 22.78 348.46 20.02 344.72 18.34 C 339.50 15.95 334.10 13.34 328.25 13.22 C 319.67 13.38 312.10 17.89 304.64 21.61 C 298.16 24.95 290.90 26.69 284.85 30.85 C 282.13 32.65 279.88 35.58 280.00 38.99 C 280.29 44.35 284.28 48.68 284.71 54.02 C 284.87 56.33 283.91 58.65 282.31 60.29 C 280.54 62.19 276.93 61.35 275.83 63.95 C 273.67 68.25 272.79 73.05 271.88 77.73 C 270.57 85.49 269.46 93.37 270.26 101.25 C 268.07 97.95 266.21 94.40 263.59 91.42 C 259.88 87.80 254.56 84.51 249.19 86.14 C 244.57 87.73 242.52 92.53 240.84 96.72 C 242.26 95.49 243.59 94.11 245.27 93.24 C 248.95 92.17 252.69 94.19 255.25 96.73 C 260.47 101.71 262.60 109.67 260.05 116.51 C 258.45 116.37 256.86 116.23 255.28 116.07 C 255.14 114.78 255.07 113.48 255.07 112.19 C 255.39 110.71 256.55 109.49 256.64 107.97 C 255.85 105.06 252.62 103.25 249.77 104.47 C 249.08 106.60 249.05 109.46 246.59 110.40 C 246.93 107.67 246.90 104.13 249.59 102.54 C 253.58 100.52 258.16 104.44 258.76 108.38 C 258.76 110.68 257.78 112.83 257.36 115.07 C 258.14 114.29 259.14 113.54 259.15 112.31 C 259.82 107.59 257.91 102.73 254.85 99.16 C 252.72 96.74 249.67 94.35 246.23 95.06 C 244.07 95.40 243.21 97.65 242.61 99.46 C 241.80 102.06 240.65 104.53 239.88 107.13 C 240.25 112.03 242.98 116.37 245.66 120.35 C 249.07 124.99 253.43 129.72 259.36 130.78 C 259.35 129.91 259.34 128.18 259.33 127.31 C 260.32 128.33 261.38 129.30 262.51 130.18 C 263.75 127.32 264.26 124.22 265.29 121.29 C 265.74 121.18 266.62 120.94 267.06 120.82 C 267.05 122.45 267.23 124.12 266.87 125.73 C 265.77 128.45 263.82 130.70 262.09 133.03 C 267.74 147.80 273.98 162.54 276.53 178.23 C 277.40 184.43 277.92 190.79 277.00 197.01 C 276.03 202.78 272.11 207.40 267.98 211.29 C 270.78 214.41 273.71 217.44 276.13 220.87 C 280.35 226.79 283.73 233.24 287.65 239.35 C 293.71 248.71 301.95 256.35 310.04 263.91 C 317.98 271.32 325.47 279.19 333.38 286.61 C 342.73 296.29 352.86 305.16 362.15 314.90 C 366.17 319.21 369.54 324.08 373.37 328.56 C 378.42 334.59 383.54 340.85 385.87 348.50 C 386.23 348.60 386.96 348.80 387.32 348.90 C 389.09 341.07 390.63 333.11 390.58 325.05 C 390.52 304.72 392.87 284.23 389.64 264.03 C 388.22 253.94 387.52 243.77 386.20 233.67 C 385.25 225.64 386.16 217.25 383.54 209.50 C 380.79 206.22 376.55 204.45 374.22 200.79 C 372.71 198.50 372.65 195.66 372.57 193.01 C 372.57 187.41 372.02 181.79 372.69 176.21 C 367.18 183.06 358.95 188.14 349.99 188.28 C 344.15 188.57 338.40 186.65 333.59 183.41 C 325.33 177.89 317.44 171.58 311.28 163.72 C 307.28 158.64 304.26 152.53 304.06 145.98 C 303.88 144.59 304.70 143.45 305.58 142.49 C 306.09 145.90 306.06 149.43 307.23 152.72 C 309.11 158.01 312.59 162.54 316.38 166.60 C 322.25 172.81 328.93 178.28 336.22 182.75 C 344.55 188.02 355.81 187.41 363.80 181.76 C 368.29 178.98 371.24 174.51 374.83 170.76 C 377.21 168.33 378.56 165.17 380.18 162.23 C 382.64 157.57 385.32 152.93 386.55 147.76 C 388.42 139.98 387.55 131.90 388.46 124.01 C 389.63 113.04 391.02 101.96 389.86 90.92 C 389.45 86.58 388.10 82.34 385.77 78.64 C 383.44 80.68 381.44 83.07 378.98 84.96 C 376.20 87.04 371.81 87.34 369.24 84.76 C 365.84 81.50 363.82 77.06 362.47 72.62 C 367.21 74.90 366.99 81.81 371.79 84.22 C 374.92 85.82 378.15 83.46 380.31 81.32 C 381.68 79.78 383.57 78.28 383.90 76.15 C 381.46 72.04 376.46 70.70 372.06 69.97 C 368.80 69.33 365.64 70.59 362.49 71.20 C 363.65 68.24 366.94 67.65 369.67 66.91 C 373.11 66.07 377.05 65.85 380.16 67.83 C 382.67 69.46 383.43 72.52 384.95 74.93 C 386.65 77.54 389.07 79.72 390.05 82.76 C 392.15 88.93 392.22 95.54 392.13 101.99 C 392.05 109.66 391.01 117.26 390.28 124.88 C 389.60 132.74 390.14 140.74 388.35 148.47 C 386.70 155.34 382.86 161.35 379.48 167.46 C 377.46 171.13 374.65 174.61 374.28 178.94 C 373.89 183.89 374.54 188.85 374.44 193.81 C 384.08 196.64 393.74 199.53 403.58 201.61 C 414.62 203.79 425.92 203.32 437.09 204.13 C 443.80 204.62 450.30 206.54 457.01 207.00 C 461.70 207.55 466.66 207.78 470.88 210.09 C 473.36 211.37 473.55 214.40 474.32 216.75 C 474.49 218.04 475.48 219.56 476.98 219.29 C 485.68 218.73 494.39 219.10 503.08 219.44 C 514.06 219.86 525.03 222.58 536.02 220.93 C 544.62 219.85 553.30 220.71 561.89 221.51 C 584.81 223.59 607.67 228.20 629.01 236.98 C 634.96 239.47 640.58 242.87 646.96 244.19 C 651.16 235.28 651.02 224.59 647.33 215.53 C 646.87 214.14 646.25 212.73 646.30 211.23 C 646.59 209.25 648.22 207.55 650.25 207.35 C 654.40 206.77 658.77 208.30 661.66 211.33 C 664.01 213.78 665.54 216.86 667.12 219.83 C 671.03 217.42 675.75 214.35 680.45 216.47 C 685.38 219.67 685.87 226.11 687.71 231.19 C 688.86 235.31 693.63 236.26 696.97 238.00 C 702.95 240.98 709.87 243.62 713.38 249.70 C 715.98 253.89 715.27 259.16 717.50 263.49 C 718.92 266.48 720.36 269.66 720.01 273.06 C 719.84 276.92 717.16 279.94 714.68 282.62 C 711.80 285.60 709.44 289.01 706.77 292.17 C 711.03 302.84 714.74 313.79 716.39 325.21 C 723.77 375.26 727.04 425.79 732.45 476.07 C 733.76 488.67 734.23 501.34 734.98 513.98 C 735.18 521.12 736.17 528.21 736.30 535.36 C 735.02 535.02 734.38 534.23 734.38 532.97 C 732.67 513.71 732.52 494.34 730.45 475.11 C 725.94 433.09 722.95 390.90 717.67 348.96 C 716.37 338.94 715.30 328.87 713.28 318.97 C 711.36 309.56 708.17 300.46 704.21 291.74 C 700.62 282.45 695.42 273.87 691.91 264.56 C 694.85 265.42 695.55 268.67 696.85 271.05 C 699.91 277.29 702.66 283.68 705.84 289.87 C 708.62 286.95 710.94 283.63 713.75 280.72 C 715.72 278.54 717.95 276.13 718.03 273.01 C 718.31 270.16 717.31 267.39 715.96 264.93 C 713.60 260.76 711.63 256.26 708.23 252.79 C 705.20 249.70 701.39 246.99 696.99 246.43 C 693.27 246.02 690.02 248.22 686.70 249.52 C 682.31 251.16 678.98 255.00 677.28 259.28 C 676.07 262.49 678.58 266.24 681.99 266.45 C 686.76 267.07 689.99 262.95 693.62 260.65 C 692.48 265.92 686.86 268.40 681.96 268.67 C 679.20 268.06 676.39 266.40 675.54 263.55 C 674.35 260.69 675.59 257.57 677.19 255.15 C 679.60 251.61 682.83 248.39 686.94 246.93 C 690.75 245.41 694.86 243.79 699.02 244.87 C 705.65 246.26 710.11 251.79 714.12 256.81 C 712.96 253.57 711.93 250.09 709.38 247.63 C 706.42 244.73 702.58 242.99 698.97 241.06 C 695.07 238.99 690.76 237.30 686.28 237.54 C 683.25 239.36 681.20 242.37 679.12 245.14 C 674.78 251.36 670.91 257.94 667.86 264.88 C 670.31 267.68 673.18 270.61 677.02 271.27 C 679.27 270.72 681.27 269.49 683.41 268.62 C 682.37 270.46 681.28 272.80 678.86 273.00 C 673.24 273.76 668.65 269.33 665.72 265.06 C 668.76 257.45 673.09 250.43 677.73 243.71 C 680.08 240.21 683.21 237.34 686.46 234.69 C 683.73 232.60 680.67 230.25 677.04 230.50 C 674.84 230.73 673.45 232.61 672.29 234.27 C 670.56 236.87 668.89 239.50 667.07 242.03 C 665.03 245.00 662.85 248.25 662.95 252.01 C 662.87 255.94 665.22 259.30 666.31 262.96 C 661.11 264.16 657.03 267.73 652.76 270.70 C 623.60 291.39 596.81 315.29 572.19 341.18 C 560.64 353.33 547.97 364.33 534.94 374.85 C 524.14 383.66 515.33 394.71 503.99 402.90 C 500.25 405.61 496.20 408.03 491.68 409.15 C 491.94 407.37 493.49 406.55 494.97 405.89 C 505.02 401.30 512.70 393.09 520.47 385.47 C 525.61 380.59 530.67 375.60 536.28 371.24 C 550.97 359.38 564.83 346.51 577.66 332.64 C 602.59 307.36 629.56 283.93 659.00 264.01 C 660.23 262.93 662.35 262.41 662.83 260.74 C 662.43 257.97 661.64 255.20 660.37 252.71 C 656.49 248.95 650.96 247.97 645.97 246.51 C 639.02 243.87 632.43 240.42 625.54 237.65 C 607.45 230.58 588.32 226.39 569.06 224.18 C 556.37 222.86 543.42 221.03 530.75 223.55 C 518.36 225.91 507.13 231.86 495.65 236.81 C 491.72 238.50 487.39 239.61 483.10 238.97 C 479.61 238.41 476.54 236.03 474.96 232.89 C 472.32 227.67 472.11 221.68 472.04 215.96 C 472.13 214.11 471.16 212.30 469.44 211.56 C 464.58 209.27 459.10 209.22 453.87 208.58 C 448.57 208.01 443.41 206.56 438.09 206.13 C 430.06 205.46 421.99 205.43 413.95 204.92 C 403.29 204.16 392.98 201.15 382.77 198.18 C 380.06 197.38 377.29 196.79 374.50 196.37 C 375.28 199.26 377.12 201.67 379.52 203.42 C 387.17 209.38 394.78 215.48 401.24 222.74 C 405.61 227.66 411.34 231.33 417.67 233.15 C 425.79 235.51 434.22 236.59 442.39 238.77 C 450.06 240.72 457.53 243.56 464.38 247.55 C 471.07 251.42 477.14 256.21 483.58 260.45 C 489.24 264.21 496.01 266.26 501.02 270.99 C 502.79 272.63 503.52 274.99 504.26 277.21 C 500.21 275.90 496.70 273.48 493.31 270.98 C 497.21 277.16 501.45 283.26 503.71 290.28 C 505.47 295.47 505.55 301.01 506.36 306.39 C 510.41 307.79 513.05 311.17 515.39 314.57 C 518.98 319.94 524.39 323.64 529.47 327.47 C 534.88 331.29 540.59 335.03 547.11 336.60 C 548.47 336.91 549.91 337.31 550.54 338.73 C 545.93 339.03 541.27 339.41 536.94 341.13 C 525.45 345.42 515.32 352.96 507.19 362.08 C 505.58 364.04 503.29 365.13 501.04 366.14 C 500.31 374.84 497.63 383.38 492.89 390.75 C 491.34 393.19 489.05 395.06 487.48 397.48 C 486.03 401.79 486.36 406.46 486.60 410.93 C 488.10 427.98 492.27 444.62 495.36 461.41 C 498.03 475.86 498.19 490.75 502.42 504.90 C 506.96 498.28 511.19 491.45 515.66 484.79 C 520.56 477.28 525.98 470.10 530.33 462.25 C 534.42 455.00 537.92 447.44 542.39 440.41 C 545.75 435.10 548.75 429.46 549.92 423.22 C 544.96 427.42 539.69 431.43 533.28 433.09 C 536.45 429.65 539.71 426.26 542.36 422.40 C 546.17 417.01 548.87 410.97 552.44 405.44 C 557.58 397.42 563.93 390.29 570.01 382.99 C 579.47 371.64 587.94 359.53 596.62 347.59 C 600.62 341.99 606.63 338.17 610.41 332.40 C 612.41 329.57 613.90 325.99 617.42 324.73 C 614.26 331.36 609.62 337.28 604.18 342.19 C 599.93 346.02 596.67 350.74 593.41 355.39 C 586.58 364.86 579.71 374.31 572.29 383.33 C 564.38 392.86 555.92 402.13 550.15 413.19 C 547.60 418.12 544.55 422.77 541.34 427.29 C 544.71 424.94 547.72 422.13 551.01 419.68 C 552.53 427.06 548.67 433.91 544.94 439.95 C 538.34 450.25 533.65 461.65 526.81 471.80 C 519.79 482.12 512.89 492.53 506.07 502.98 C 505.22 504.32 504.37 505.68 503.81 507.17 C 504.17 511.16 506.14 514.88 506.02 518.96 C 506.24 521.26 505.58 523.91 507.15 525.88 C 509.57 529.27 511.55 533.03 512.02 537.24 C 510.76 536.76 509.87 535.80 509.49 534.52 C 508.46 531.94 507.27 529.42 505.83 527.04 C 502.54 528.79 499.19 530.56 495.48 531.18 C 491.54 531.85 487.74 533.07 483.88 534.04 C 485.87 532.63 487.88 531.21 490.16 530.30 C 493.09 529.21 496.28 529.05 499.22 527.99 C 502.36 526.74 504.43 523.39 504.30 520.03 C 504.26 514.58 501.90 509.56 500.41 504.42 C 496.85 493.26 496.42 481.47 494.79 469.96 C 493.11 457.48 489.97 445.27 487.80 432.88 C 485.75 421.07 483.47 409.04 485.20 397.03 C 478.80 393.64 473.65 388.49 468.55 383.46 C 465.96 380.76 463.05 378.20 461.59 374.67 C 465.66 376.23 467.81 380.27 470.91 383.08 C 475.14 386.98 479.12 391.33 484.20 394.17 C 486.05 395.38 488.13 393.67 489.36 392.32 C 492.89 388.06 494.98 382.83 496.90 377.71 C 498.93 372.73 498.32 367.28 498.81 362.06 C 498.74 354.80 498.22 347.52 499.12 340.29 C 500.20 332.08 500.31 323.75 501.88 315.61 C 502.56 311.74 504.40 308.04 504.09 304.04 C 503.82 298.84 503.06 293.61 501.11 288.76 C 498.15 281.22 493.13 274.79 489.12 267.82 C 488.11 265.92 486.56 264.41 484.69 263.38 C 478.49 259.67 472.87 255.12 466.76 251.28 C 460.87 247.53 454.53 244.46 447.86 242.35 C 439.82 239.80 431.50 238.31 423.26 236.57 C 417.49 235.32 411.66 233.63 406.77 230.21 C 403.38 228.00 400.64 224.99 397.91 222.05 C 394.28 218.16 390.28 214.65 386.23 211.22 C 387.53 218.90 387.34 226.72 388.21 234.45 C 389.59 245.27 390.29 256.17 391.97 266.96 C 393.53 276.90 393.10 286.98 393.13 297.00 C 393.14 306.68 392.26 316.34 392.43 326.03 C 392.49 333.47 390.93 340.78 389.56 348.06 C 393.39 352.78 396.75 357.86 398.99 363.55 C 402.93 362.77 406.89 361.99 410.92 361.87 C 411.10 364.46 411.09 367.06 410.80 369.65 C 408.66 370.14 406.53 370.63 404.40 371.12 C 406.09 375.88 408.09 380.65 411.42 384.52 C 413.53 387.29 416.22 390.20 416.06 393.94 C 416.59 397.04 412.74 398.82 410.20 397.84 C 406.54 396.47 404.11 393.20 401.88 390.16 C 398.27 385.21 395.88 379.50 392.20 374.61 C 388.79 375.65 385.31 376.67 381.71 376.58 C 381.26 373.40 380.97 370.20 380.93 367.00 C 383.46 365.97 386.09 365.27 388.77 364.79 C 387.55 362.73 386.25 360.70 385.39 358.47 C 384.21 355.37 385.25 351.91 384.06 348.82 C 381.69 341.62 376.73 335.72 371.99 329.97 C 368.00 325.29 364.50 320.21 360.26 315.74 C 353.64 308.70 346.40 302.27 339.46 295.55 C 330.50 286.50 321.35 277.66 312.29 268.72 C 303.17 260.19 293.64 251.85 286.64 241.38 C 280.15 231.63 275.33 220.36 266.12 212.74 C 262.08 215.14 257.96 217.42 253.97 219.91 C 247.44 223.98 241.36 228.73 234.82 232.78 C 230.74 235.32 226.25 237.09 221.76 238.77 C 222.42 247.95 218.16 256.30 216.21 265.04 C 211.11 285.76 204.17 306.01 195.79 325.62 C 191.97 334.78 188.42 344.07 183.87 352.90 C 181.68 356.78 183.53 361.25 184.59 365.19 C 190.31 382.04 202.11 395.80 209.70 411.73 C 208.42 405.83 207.74 399.80 205.85 394.05 C 203.77 387.66 201.76 381.19 200.80 374.52 C 200.18 370.50 200.79 366.38 199.92 362.39 C 198.78 357.02 197.16 351.59 197.73 346.05 C 197.72 344.50 198.94 343.50 199.87 342.46 C 198.41 353.63 202.66 364.32 205.27 374.98 C 207.49 384.28 210.00 393.54 211.41 403.02 C 212.09 406.66 210.95 410.38 211.80 414.01 C 214.20 425.68 218.77 436.94 219.46 448.93 C 219.73 452.42 219.50 456.03 220.79 459.36 C 222.07 462.83 223.10 466.39 223.92 470.00 C 224.53 473.24 226.77 475.75 228.61 478.36 C 232.40 483.38 235.61 488.81 238.66 494.30 C 240.50 497.63 241.61 501.54 240.64 505.33 C 239.13 511.99 236.24 518.24 233.93 524.65 C 231.85 522.54 230.16 520.08 228.03 518.03 C 226.38 516.54 223.85 517.08 222.16 518.18 C 219.92 519.77 219.90 522.80 219.35 525.23 C 222.30 523.94 225.24 521.33 228.68 522.18 C 233.19 523.38 236.23 527.81 237.08 532.23 C 233.23 530.01 232.13 523.86 226.99 523.97 C 223.65 524.63 221.08 527.26 217.95 528.52 C 217.59 525.13 217.28 521.37 219.37 518.43 C 221.27 515.34 225.77 514.23 228.82 516.24 C 230.51 517.43 231.82 519.05 233.26 520.51 C 235.43 515.13 237.94 509.77 238.90 504.00 C 239.72 499.56 237.18 495.58 235.07 491.92 C 232.09 486.92 229.26 481.69 225.18 477.48 C 222.91 477.46 220.63 477.64 218.36 477.53 C 216.26 480.13 215.73 484.21 212.36 485.53 C 215.44 477.08 218.45 467.99 216.47 458.90 C 215.56 455.24 216.79 451.63 217.32 448.03 C 217.36 439.47 213.72 431.55 211.75 423.36 C 209.10 412.02 202.34 402.33 196.42 392.51 C 189.16 380.93 182.02 368.66 180.36 354.85 C 180.32 353.67 181.27 352.79 181.80 351.84 C 185.59 346.44 187.54 340.05 190.19 334.07 C 197.90 315.89 205.27 297.53 210.62 278.50 C 213.24 269.73 215.07 260.75 217.97 252.07 C 219.72 246.41 221.31 239.64 217.62 234.39 C 214.36 230.01 209.81 225.42 203.92 225.62 C 202.23 225.41 200.78 226.28 199.51 227.26 C 197.80 228.61 195.58 228.89 193.54 229.40 C 187.22 230.75 181.24 233.19 175.17 235.33 C 162.62 239.84 149.76 243.40 136.90 246.92 C 128.83 249.10 120.98 252.05 112.85 254.03 C 102.03 256.73 90.83 257.35 79.92 259.63 C 80.92 261.49 82.20 263.20 82.99 265.17 C 83.42 267.23 83.29 269.35 83.37 271.44 C 87.20 273.03 91.61 274.34 94.03 277.99 C 96.54 281.81 97.68 286.45 97.73 290.99 C 97.73 294.83 96.51 299.00 93.29 301.37 C 91.82 302.63 89.31 302.42 88.25 300.72 C 85.42 296.72 84.64 291.54 81.22 287.89 C 81.95 290.32 83.10 292.65 83.53 295.17 C 83.53 297.41 82.87 299.67 83.40 301.90 C 84.51 306.94 86.50 311.75 87.40 316.84 C 88.61 323.87 90.15 330.88 90.33 338.03 C 90.74 351.98 90.23 365.94 89.39 379.86 C 88.06 403.57 91.25 427.30 89.33 450.99 C 88.89 458.82 87.40 466.52 86.67 474.32 C 85.47 486.82 85.07 499.41 85.69 511.96 C 85.63 518.43 86.33 525.18 83.96 531.35 C 83.41 529.29 83.19 527.15 83.46 525.04 C 83.96 520.02 83.98 514.98 83.78 509.96 C 83.33 499.93 83.57 489.87 84.30 479.86 C 84.57 475.91 85.29 471.98 85.23 468.01 C 84.36 464.39 82.20 461.22 81.08 457.67 C 75.46 441.71 75.74 424.56 74.62 407.89 C 73.98 398.45 72.45 389.11 70.90 379.78 C 68.60 366.21 65.53 352.64 59.93 340.01 C 53.82 326.39 44.38 314.59 34.25 303.76 C 30.03 299.26 24.17 296.58 20.40 291.64 C 18.26 288.90 18.45 284.92 20.16 282.03 C 22.06 278.74 24.69 275.96 26.92 272.91 C 32.00 266.11 36.95 259.07 40.10 251.14 C 41.26 248.49 42.39 245.55 44.92 243.90 C 46.76 242.90 48.94 242.97 50.96 242.65 C 51.03 238.50 50.77 234.30 51.57 230.20 C 52.06 227.85 53.11 225.37 55.30 224.14 C 58.28 223.22 61.38 224.56 63.81 226.24 C 68.15 229.24 70.66 234.19 72.09 239.14 C 73.53 243.80 73.21 248.73 73.21 253.54 C 75.27 254.85 77.23 256.32 79.13 257.86 C 87.69 256.12 96.38 255.20 104.99 253.75 C 116.19 251.86 126.78 247.60 137.73 244.70 C 153.61 240.57 169.25 235.55 184.68 229.95 C 186.91 229.19 189.28 228.59 191.17 227.09 C 194.75 224.34 198.53 221.85 202.04 219.01 C 210.86 211.77 221.33 206.94 231.80 202.62 C 241.27 198.72 251.42 197.07 261.25 194.39 C 265.89 193.13 270.70 192.88 275.48 192.93 C 276.18 183.09 273.74 173.46 271.49 163.97 C 271.32 165.45 271.13 166.93 270.93 168.40 C 268.52 165.92 266.94 162.83 264.99 160.01 C 260.90 153.90 256.51 147.81 254.20 140.75 C 253.10 137.52 253.18 134.07 253.32 130.71 C 246.00 125.49 240.23 117.76 238.18 108.94 C 237.09 100.19 239.55 90.39 246.68 84.69 C 246.49 74.88 251.77 66.26 255.43 57.50 C 260.20 47.16 264.45 35.90 273.44 28.39 C 285.42 18.65 300.27 12.95 315.34 10.16 M 310.00 13.21 C 307.84 13.68 306.19 15.19 304.55 16.55 C 301.51 19.12 298.20 21.33 295.06 23.75 C 305.19 20.05 314.09 12.96 325.02 11.58 C 331.41 10.59 337.63 13.06 343.40 15.51 C 347.90 17.39 351.80 20.36 356.08 22.65 C 359.25 24.41 361.92 26.88 364.79 29.07 C 358.74 22.31 351.64 16.21 343.23 12.62 C 338.77 10.64 333.79 10.36 328.98 10.60 C 322.60 10.91 316.20 11.64 310.00 13.21 M 276.05 28.94 C 284.36 24.68 292.91 20.84 300.91 15.99 C 291.93 18.75 283.39 23.07 276.05 28.94 M 276.17 31.31 C 275.06 31.89 274.51 33.04 273.87 34.03 C 275.43 33.69 277.01 33.24 278.29 32.23 C 281.76 29.69 285.39 27.37 288.87 24.85 C 284.52 26.76 280.24 28.87 276.17 31.31 M 266.20 39.97 C 266.57 40.72 267.31 42.23 267.68 42.98 C 269.63 40.67 271.53 38.31 273.41 35.93 C 272.85 34.92 272.29 33.92 271.73 32.91 C 269.53 34.96 267.76 37.40 266.20 39.97 M 276.50 36.19 C 276.82 37.16 277.13 38.14 277.46 39.12 C 278.03 37.46 278.56 35.79 279.06 34.11 C 278.20 34.80 277.35 35.49 276.50 36.19 M 274.04 37.62 C 273.05 42.55 275.53 47.33 277.98 51.43 C 277.44 46.70 277.01 41.55 274.04 37.62 M 258.17 57.25 C 260.90 55.75 261.53 52.63 261.92 49.81 C 263.07 49.09 264.48 48.56 265.19 47.31 C 266.36 45.38 265.75 43.01 265.82 40.89 C 262.69 46.03 260.06 51.53 258.17 57.25 M 271.45 41.45 C 270.53 42.70 269.62 43.95 268.72 45.21 C 269.83 49.78 271.36 54.30 273.95 58.27 C 274.09 52.59 273.58 46.77 271.45 41.45 M 264.22 52.18 C 265.29 55.29 266.83 58.24 269.19 60.57 C 269.06 56.53 267.96 52.63 266.71 48.82 C 265.87 49.94 265.05 51.06 264.22 52.18 M 280.19 49.93 C 280.12 52.86 280.09 55.78 279.92 58.71 C 278.39 56.55 277.07 54.26 275.68 52.01 C 275.88 54.69 276.01 57.39 276.15 60.08 C 277.58 59.85 279.05 59.70 280.47 59.32 C 281.79 58.28 282.57 56.68 282.89 55.05 C 282.38 53.17 281.14 51.60 280.19 49.93 M 260.50 58.64 C 262.95 61.43 265.35 64.27 267.92 66.97 C 266.65 62.84 264.93 58.87 262.97 55.03 C 262.09 56.19 261.27 57.41 260.50 58.64 M 271.18 58.55 C 270.31 59.56 270.24 61.32 271.18 62.30 C 273.27 62.97 273.37 57.53 271.18 58.55 M 256.58 64.34 C 259.13 66.40 261.62 68.54 264.09 70.70 C 262.52 67.34 260.79 64.06 258.89 60.88 C 258.11 62.03 257.35 63.18 256.58 64.34 M 269.30 83.04 C 269.96 75.38 271.92 67.95 274.74 60.82 C 270.95 67.52 269.16 75.36 269.30 83.04 M 269.12 64.25 L 268.70 64.96 L 269.11 65.68 L 269.93 65.68 L 270.35 64.97 L 269.94 64.25 L 269.12 64.25 M 264.43 66.52 C 263.98 67.98 265.03 70.76 266.76 70.63 C 267.44 69.19 266.08 66.40 264.43 66.52 M 255.25 67.05 C 253.17 70.16 252.07 73.80 252.18 77.56 C 254.95 77.80 257.72 78.00 260.50 78.12 C 259.18 76.38 257.40 74.90 256.52 72.88 C 256.40 70.87 256.39 68.81 255.25 67.05 M 374.67 68.13 C 374.86 69.92 377.95 70.05 379.37 69.64 C 379.01 68.04 376.02 67.11 374.67 68.13 M 258.83 69.06 C 260.44 71.46 262.46 73.58 264.86 75.20 C 263.36 72.71 261.28 70.63 258.83 69.06 M 248.66 83.80 C 252.99 83.57 257.24 84.52 261.01 86.67 C 258.14 84.64 255.00 83.00 252.29 80.75 C 251.02 79.13 250.67 77.01 249.98 75.12 C 249.17 77.95 248.58 80.84 248.66 83.80 M 265.54 76.13 C 264.67 77.43 266.25 80.06 267.84 79.32 C 268.79 78.03 267.10 75.38 265.54 76.13 M 258.96 80.78 C 261.06 82.75 264.14 84.01 265.14 86.91 C 265.79 88.63 266.78 90.18 267.95 91.60 C 268.28 89.68 268.58 87.75 268.87 85.82 C 267.50 84.28 266.39 82.39 264.57 81.33 C 262.76 80.72 260.83 80.86 258.96 80.78 M 255.15 131.85 C 255.00 135.35 255.24 138.95 256.76 142.16 C 258.87 146.80 261.09 151.55 264.71 155.22 C 264.65 153.33 264.77 151.39 264.27 149.55 C 263.54 148.07 262.24 147.00 261.36 145.63 C 260.12 142.41 259.52 139.00 258.76 135.66 C 258.49 136.56 257.94 138.36 257.66 139.26 C 255.95 138.07 255.58 136.15 256.05 134.22 C 257.73 134.20 259.42 134.20 261.12 134.19 C 259.33 132.95 257.28 132.24 255.15 131.85 M 262.87 140.95 C 263.18 143.52 264.35 145.83 265.68 148.01 C 264.88 145.60 264.01 143.22 262.87 140.95 M 266.30 149.24 C 266.35 151.02 266.41 152.81 266.72 154.58 C 267.33 156.24 268.72 157.48 269.76 158.89 C 268.55 155.69 267.46 152.45 266.30 149.24 M 266.10 157.68 C 265.46 159.09 266.96 161.79 268.61 161.49 C 269.18 160.04 267.76 157.44 266.10 157.68 M 249.94 199.14 C 236.63 201.94 224.05 207.50 212.28 214.23 C 207.13 217.15 202.69 221.10 197.97 224.64 C 201.91 223.90 206.22 223.00 209.98 224.93 C 215.00 227.45 218.72 231.99 221.30 236.90 C 235.37 232.41 245.97 221.57 258.84 214.77 C 266.39 210.67 274.60 204.40 275.17 195.10 C 266.50 193.90 258.29 197.51 249.94 199.14 M 648.45 209.65 C 648.18 211.96 648.78 214.21 649.67 216.33 C 653.16 225.51 652.52 235.82 649.09 244.93 C 653.05 246.50 656.94 248.22 660.83 249.95 C 661.87 247.50 662.89 245.04 663.85 242.56 C 662.11 241.23 659.78 240.13 659.22 237.82 C 658.62 235.32 658.74 232.67 659.39 230.19 C 660.38 226.59 663.03 223.82 665.29 220.96 C 663.30 216.38 660.57 211.33 655.50 209.68 C 653.22 208.75 650.77 209.29 648.45 209.65 M 667.92 221.92 C 663.49 225.13 659.96 230.27 660.82 235.98 C 660.72 238.57 663.19 240.77 665.76 239.99 C 669.25 236.95 670.29 231.73 674.43 229.36 C 678.30 227.43 682.41 229.71 685.87 231.48 C 684.21 226.94 683.65 221.37 679.61 218.22 C 675.41 216.48 671.14 219.43 667.92 221.92 M 474.47 223.02 C 474.61 228.14 476.35 234.22 481.42 236.51 C 485.89 238.21 490.78 236.74 495.00 234.98 C 504.54 230.81 513.90 226.06 523.98 223.27 C 514.66 222.45 505.38 221.07 496.01 221.09 C 489.98 221.07 483.94 220.74 477.92 221.20 C 476.75 221.48 474.37 221.24 474.47 223.02 M 53.72 229.48 C 52.53 234.16 53.03 239.03 53.06 243.80 C 54.79 245.31 56.33 247.13 58.39 248.19 C 60.48 248.34 62.59 247.99 64.67 248.24 C 67.25 249.05 69.08 251.18 71.05 252.92 C 72.17 245.33 70.66 237.18 65.98 230.99 C 63.81 228.27 60.68 225.88 57.08 225.74 C 55.13 225.82 54.22 227.88 53.72 229.48 M 43.84 247.88 C 41.94 251.11 40.91 254.76 39.08 258.04 C 35.04 265.44 30.06 272.29 24.77 278.85 C 22.94 281.24 20.78 283.78 20.71 286.96 C 20.70 289.67 22.82 291.64 24.67 293.33 C 28.62 296.73 33.09 299.54 36.63 303.41 C 46.40 313.98 55.45 325.49 61.45 338.66 C 69.60 356.74 72.45 376.58 75.34 396.03 C 78.32 418.46 75.64 442.23 85.40 463.30 C 86.98 461.24 86.67 458.49 87.01 456.07 C 89.38 432.74 86.75 409.33 87.30 385.96 C 87.82 371.30 88.95 356.66 88.60 341.99 C 88.61 333.22 86.93 324.58 85.26 316.01 C 83.72 309.55 81.39 303.29 80.51 296.68 C 78.68 296.22 76.65 295.88 75.51 294.19 C 77.42 294.14 79.32 294.18 81.22 294.24 C 80.36 291.83 79.35 289.46 78.81 286.96 C 80.12 284.90 82.77 286.68 83.96 287.99 C 86.55 291.88 87.67 296.54 90.23 300.46 C 95.03 299.11 96.27 293.34 95.78 289.00 C 95.11 283.94 93.34 278.03 88.31 275.72 C 84.33 273.71 80.23 271.94 76.01 270.51 C 73.17 272.44 70.54 274.80 69.01 277.94 C 66.73 281.79 65.39 286.98 60.68 288.57 C 62.46 285.09 64.83 281.97 66.53 278.45 C 68.46 274.61 71.08 270.73 75.20 269.04 C 77.28 268.91 79.32 269.44 81.36 269.77 C 81.30 268.28 81.63 266.71 81.06 265.30 C 79.56 263.33 77.78 261.57 76.68 259.32 C 75.80 257.92 74.95 255.78 72.93 256.00 C 70.11 256.19 67.62 257.76 65.58 259.60 C 60.32 264.33 55.81 269.79 51.16 275.09 C 49.99 276.52 48.44 277.52 46.75 278.23 C 48.10 274.71 51.14 272.33 53.45 269.47 C 58.14 263.94 63.08 258.52 69.18 254.52 C 67.67 252.11 65.38 249.66 62.25 249.96 C 61.18 249.84 60.69 251.03 59.98 251.60 C 57.93 252.14 55.73 252.58 54.23 254.21 C 48.87 259.28 44.82 265.51 39.95 271.01 C 38.50 272.74 36.57 273.95 34.61 275.01 C 35.19 273.55 35.90 272.14 37.04 271.05 C 43.77 264.15 48.78 255.67 56.47 249.70 C 54.35 247.52 51.90 245.49 48.92 244.68 C 46.69 244.40 44.89 246.10 43.84 247.88 M 493.14 267.94 C 495.22 269.90 497.49 271.65 500.00 273.02 C 498.08 270.88 495.68 269.25 493.14 267.94 M 506.39 308.62 C 507.34 312.23 510.07 314.84 513.02 316.93 C 511.09 313.98 509.72 310.28 506.39 308.62 M 504.71 311.19 C 503.38 317.04 502.55 323.00 502.11 328.99 C 501.73 334.98 500.75 340.92 500.50 346.92 C 500.20 352.57 500.79 358.22 500.59 363.88 C 505.83 355.82 509.80 346.73 510.64 337.07 C 511.07 331.18 511.84 325.33 512.72 319.49 C 509.75 317.02 507.03 314.27 504.71 311.19 M 515.30 318.74 C 512.40 327.92 513.43 337.77 510.71 346.98 C 509.04 352.97 506.13 358.49 503.08 363.87 C 513.22 351.41 526.91 341.13 542.78 337.53 C 532.46 333.10 523.94 325.70 515.30 318.74 M 386.83 351.96 C 385.27 357.77 389.97 362.42 392.72 366.99 C 389.41 366.95 386.09 367.10 382.90 368.02 C 383.01 370.30 383.15 372.58 383.34 374.87 C 386.63 374.23 389.86 373.32 392.98 372.11 C 398.41 379.37 401.41 388.47 408.40 394.52 C 409.86 395.99 411.94 396.19 413.91 396.19 C 413.82 394.33 414.35 392.28 413.31 390.60 C 411.46 387.21 408.47 384.60 406.67 381.18 C 404.69 377.29 402.79 373.34 401.54 369.15 C 403.98 368.91 406.42 368.68 408.87 368.45 C 409.02 366.92 409.15 365.39 409.27 363.87 C 404.98 364.18 400.81 365.29 396.62 366.18 C 396.60 360.52 393.08 355.87 389.90 351.51 C 389.14 351.63 387.60 351.85 386.83 351.96 M 219.15 461.67 C 218.21 462.83 219.29 465.49 220.84 465.34 C 221.62 464.17 220.67 461.54 219.15 461.67 M 217.72 475.44 C 219.43 475.42 221.14 475.40 222.86 475.38 C 222.05 472.45 220.76 469.70 219.23 467.09 C 218.55 469.84 218.11 472.64 217.72 475.44 Z" />
<path fill="#000000" opacity="1.00" d=" M 310.24 49.30 C 316.24 46.57 323.13 46.60 329.51 47.81 C 332.09 48.29 334.67 49.53 336.11 51.81 C 337.79 54.45 338.73 57.47 339.83 60.38 C 339.06 60.59 338.29 60.81 337.53 61.02 C 337.22 62.38 336.91 63.74 336.60 65.10 C 334.80 62.13 333.36 58.72 330.44 56.64 C 327.91 54.93 324.79 54.37 321.80 54.18 C 315.21 54.02 308.94 56.39 302.52 57.46 C 304.08 53.96 306.70 50.90 310.24 49.30 M 310.78 53.45 C 316.12 52.82 321.60 51.51 326.92 53.03 C 330.57 53.84 333.25 56.59 336.14 58.75 C 335.05 56.36 334.00 53.66 331.51 52.39 C 325.10 48.85 316.94 49.77 310.78 53.45 Z" />
<path fill="#000000" opacity="1.00" d=" M 349.05 49.83 C 350.41 51.16 351.93 52.41 352.84 54.12 C 354.36 57.50 353.49 61.52 355.29 64.80 C 357.10 67.95 359.71 70.57 361.38 73.81 C 364.62 80.37 367.38 87.22 368.64 94.46 C 372.84 96.74 376.56 99.94 378.84 104.19 C 382.55 110.73 385.78 118.08 385.23 125.76 C 383.68 124.78 383.59 122.86 383.23 121.27 C 382.24 115.25 379.91 109.49 376.64 104.36 C 374.86 101.70 372.79 99.08 369.93 97.53 C 367.95 97.29 365.98 97.75 364.03 97.94 C 367.25 100.00 370.60 101.97 373.19 104.84 C 377.20 109.19 380.30 114.94 379.78 121.03 C 379.14 129.03 376.23 136.58 374.18 144.27 C 373.00 148.40 372.32 152.64 371.33 156.82 C 370.62 148.22 371.90 139.58 371.00 130.98 C 368.75 136.33 364.82 141.03 359.49 143.50 C 347.12 149.35 330.99 145.08 322.90 134.10 C 321.44 132.12 320.25 129.95 319.01 127.84 C 314.05 132.63 312.58 139.59 308.77 145.14 C 307.70 132.88 307.59 119.37 314.68 108.73 C 319.46 102.24 325.29 96.61 330.31 90.31 C 333.13 87.06 335.24 83.16 338.71 80.51 C 338.55 84.02 335.51 86.26 334.25 89.33 C 333.57 91.00 333.96 92.83 334.05 94.57 C 336.41 94.64 338.96 95.33 341.17 94.14 C 345.86 91.31 351.70 94.17 355.02 97.85 C 356.32 96.75 357.63 95.67 358.97 94.61 C 361.41 95.17 363.85 95.70 366.32 96.11 C 366.74 89.83 363.70 84.14 361.45 78.49 C 359.60 73.74 356.36 69.76 353.46 65.63 C 351.20 62.44 345.84 63.57 343.93 59.99 C 346.95 59.06 349.57 60.85 352.08 62.26 C 351.36 58.04 350.13 53.95 349.05 49.83 M 317.76 107.81 C 315.89 109.94 314.50 112.46 313.83 115.23 C 316.57 111.84 318.79 107.88 322.52 105.43 C 328.70 101.26 335.89 98.87 343.10 97.21 C 339.52 96.82 335.93 96.48 332.39 95.84 C 332.12 94.56 331.86 93.28 331.60 92.00 C 326.98 97.27 322.29 102.46 317.76 107.81 M 343.99 94.96 C 345.16 98.13 349.37 96.95 352.01 97.52 C 349.62 95.94 346.89 94.89 343.99 94.96 M 359.24 96.32 C 358.14 96.57 357.55 97.23 357.45 98.31 C 357.67 99.67 359.60 99.46 360.21 98.52 C 361.06 97.75 360.53 95.97 359.24 96.32 M 329.54 103.75 C 326.27 105.11 323.37 107.19 320.71 109.51 C 328.39 104.15 337.44 100.23 346.95 100.38 L 346.29 101.62 C 343.24 102.60 339.99 102.74 336.94 103.69 C 330.08 105.74 323.33 109.11 318.71 114.73 C 322.47 112.49 326.09 109.96 330.20 108.38 C 335.94 105.91 342.18 104.65 347.69 101.63 C 348.56 99.84 346.18 99.29 344.88 99.16 C 339.48 99.38 334.45 101.67 329.54 103.75 M 351.58 99.13 C 351.71 100.56 352.35 100.81 353.49 99.88 C 353.35 98.43 352.71 98.18 351.58 99.13 M 349.85 101.15 C 348.55 104.62 344.53 105.16 341.49 106.38 C 332.68 109.41 322.99 112.33 317.04 120.01 C 317.39 121.60 317.74 123.19 318.08 124.78 C 324.93 117.28 333.45 110.29 343.90 109.11 C 354.05 107.57 364.18 112.82 370.19 120.85 C 369.00 114.42 367.80 106.99 362.44 102.64 C 358.26 101.97 353.96 102.24 349.85 101.15 M 365.06 100.88 C 366.08 102.99 367.93 104.36 370.13 105.07 C 368.68 103.40 366.95 102.00 365.06 100.88 M 368.38 106.10 C 369.45 108.97 370.60 111.83 371.31 114.82 C 372.70 120.66 372.60 126.70 373.35 132.63 C 375.80 128.91 375.76 124.30 375.53 120.03 C 375.29 117.12 374.87 114.14 373.52 111.52 C 372.36 109.25 370.27 107.71 368.38 106.10 M 327.05 118.69 C 335.90 115.34 345.63 114.43 354.93 116.19 C 359.05 117.01 363.10 118.98 365.69 122.39 C 367.65 124.84 368.22 128.02 369.02 130.98 C 369.26 129.10 369.71 127.21 369.53 125.31 C 369.08 122.63 367.36 120.39 365.49 118.52 C 360.14 113.24 352.51 109.97 344.92 110.96 C 338.29 111.49 332.26 114.73 327.05 118.69 M 376.76 113.78 C 376.92 116.90 377.24 120.01 377.69 123.11 C 377.82 119.97 377.58 116.82 376.76 113.78 M 344.27 117.93 C 346.47 117.89 348.68 117.54 350.88 117.73 C 352.53 118.37 353.86 119.57 355.27 120.60 C 355.85 119.93 356.43 119.25 357.01 118.58 C 352.85 117.72 348.47 116.73 344.27 117.93 M 314.54 128.22 C 314.84 124.77 314.71 121.30 314.39 117.86 C 313.47 121.26 313.41 124.86 314.54 128.22 M 337.30 118.11 C 334.39 119.87 332.56 122.87 330.25 125.29 C 330.04 123.46 329.85 121.62 329.65 119.79 C 326.05 121.28 321.73 122.91 320.48 127.00 C 322.93 127.25 325.39 127.76 327.86 127.57 C 330.09 127.16 332.22 126.32 334.44 125.81 C 340.90 124.26 347.59 124.56 354.17 124.79 C 353.23 122.61 352.47 119.78 349.82 119.15 C 347.56 119.38 345.53 121.09 343.20 120.59 C 340.97 120.35 339.69 117.29 337.30 118.11 M 331.38 119.09 L 331.36 119.92 L 332.06 120.35 L 332.78 119.94 L 332.79 119.11 L 332.09 118.69 L 331.38 119.09 M 358.50 119.42 C 357.62 120.87 359.99 122.99 361.34 121.88 C 362.26 120.37 359.84 118.58 358.50 119.42 M 310.24 138.17 C 311.09 136.32 312.50 134.53 312.35 132.40 C 312.12 128.56 311.86 124.72 311.59 120.88 C 310.23 126.53 309.85 132.38 310.24 138.17 M 354.52 124.93 C 359.33 127.14 363.48 130.42 367.08 134.27 C 366.83 130.67 366.73 126.59 364.18 123.76 C 362.38 122.79 360.34 123.89 358.52 124.28 C 358.09 123.25 357.66 122.22 357.23 121.20 C 356.30 122.42 355.39 123.66 354.52 124.93 M 329.40 129.46 C 327.02 130.57 324.45 129.31 322.03 129.08 C 322.95 130.62 323.90 132.16 324.86 133.70 C 335.53 132.50 346.52 132.16 357.01 134.86 C 359.56 135.45 361.92 136.65 364.13 138.04 C 364.45 137.52 365.09 136.48 365.41 135.97 C 361.82 130.92 356.38 126.83 350.00 126.50 C 343.05 126.14 335.88 126.77 329.40 129.46 M 373.16 140.13 C 373.91 138.07 374.48 135.95 374.85 133.79 C 373.15 135.50 373.02 137.86 373.16 140.13 M 326.18 135.42 C 327.92 136.76 329.55 138.32 331.55 139.28 C 334.32 140.04 337.28 139.67 339.89 138.53 C 340.46 139.20 341.04 139.87 341.61 140.54 C 346.18 139.62 351.11 139.01 355.55 140.76 C 355.84 141.17 356.41 142.00 356.69 142.41 C 352.95 142.24 349.22 141.03 345.48 141.65 C 344.11 141.77 343.25 142.87 342.38 143.79 C 349.49 144.90 357.40 143.80 362.91 138.84 C 351.30 134.12 338.46 134.09 326.18 135.42 M 337.02 141.12 C 337.87 142.82 339.74 143.15 341.41 143.58 C 340.27 142.21 338.83 141.23 337.02 141.12 Z" />
<path fill="#000000" opacity="1.00" d=" M 357.63 62.62 C 357.38 58.53 361.30 55.40 365.09 54.99 C 370.73 54.43 376.36 56.79 380.52 60.51 C 382.97 62.71 384.10 65.90 385.19 68.91 C 382.33 66.31 379.82 62.84 375.83 61.96 C 369.81 60.73 363.62 61.65 357.63 62.62 M 362.77 59.53 C 366.90 59.71 371.04 59.65 375.16 59.44 C 371.14 58.09 366.77 58.07 362.77 59.53 Z" />
<path fill="#000000" opacity="1.00" d=" M 310.67 60.52 C 314.78 59.18 318.92 61.09 323.08 61.05 C 327.39 60.97 331.58 62.80 334.64 65.79 C 327.38 69.15 320.20 64.16 312.96 63.49 C 310.08 63.10 307.78 65.20 305.19 66.04 C 303.88 66.19 302.59 65.81 301.31 65.64 C 303.51 62.62 307.25 61.53 310.67 60.52 M 320.97 63.28 C 323.92 64.35 327.03 65.02 330.19 64.98 C 327.41 63.35 324.16 62.13 320.97 63.28 Z" />
<path fill="#000000" opacity="1.00" d=" M 291.29 61.86 C 296.33 63.11 300.65 66.15 305.37 68.20 C 302.20 71.53 297.26 71.64 293.08 72.81 C 293.25 72.31 293.60 71.31 293.78 70.81 C 296.25 70.06 298.75 69.36 301.24 68.65 C 298.05 66.21 293.26 65.61 291.29 61.86 Z" />
<path fill="#000000" opacity="1.00" d=" M 335.85 66.49 C 338.40 66.79 341.00 66.84 343.49 67.53 C 343.71 67.90 344.14 68.63 344.35 69.00 C 342.61 69.03 340.87 69.03 339.14 69.01 C 339.60 70.87 340.02 72.74 340.36 74.63 C 337.33 73.04 336.92 69.39 335.85 66.49 Z" />
<path fill="#000000" opacity="1.00" d=" M 305.85 71.85 C 309.36 73.12 311.83 76.23 315.40 77.35 C 318.44 78.28 321.73 78.23 324.83 77.60 C 328.98 76.76 332.31 73.91 336.28 72.60 C 334.83 76.12 330.99 77.50 327.70 78.75 C 321.99 80.85 315.25 80.45 310.20 76.90 C 308.21 75.75 306.72 73.96 305.85 71.85 Z" />
<path fill="#000000" opacity="1.00" d=" M 291.82 101.87 C 292.13 100.50 292.93 99.34 294.10 98.56 C 294.10 102.58 292.36 106.24 291.41 110.07 C 290.12 116.46 291.64 122.90 292.26 129.27 C 291.86 129.05 291.06 128.62 290.66 128.40 C 289.33 124.43 289.09 120.16 288.95 116.01 C 288.71 111.12 290.36 106.46 291.82 101.87 Z" />
<path fill="#000000" opacity="1.00" d=" M 303.24 105.43 C 303.64 105.30 304.43 105.06 304.83 104.93 C 302.66 119.00 301.75 133.38 303.84 147.52 C 305.15 156.01 307.40 164.57 312.17 171.83 C 315.55 177.05 320.58 180.94 325.82 184.17 C 332.84 188.36 340.74 191.32 348.94 191.81 C 352.94 191.99 357.04 191.41 360.70 189.73 C 364.19 188.15 366.57 184.87 370.19 183.49 C 368.33 188.50 363.65 191.59 359.34 194.34 C 353.94 197.75 347.35 198.47 341.10 198.00 C 339.84 197.42 339.12 196.16 338.17 195.22 C 344.55 196.34 351.41 196.63 357.24 193.32 C 342.42 195.26 327.40 189.45 316.38 179.67 C 310.40 174.38 306.67 167.02 304.47 159.44 C 300.60 146.45 300.39 132.73 301.16 119.30 C 301.69 114.67 301.79 109.89 303.24 105.43 Z" />
<path fill="#000000" opacity="1.00" d=" M 280.87 136.50 C 284.14 137.82 284.84 141.67 286.66 144.33 C 290.27 150.13 293.13 156.37 296.98 162.01 C 300.88 166.74 304.69 171.57 308.90 176.03 C 314.32 181.95 319.81 187.95 326.44 192.56 C 330.04 195.08 334.10 196.82 338.04 198.72 C 332.72 198.44 327.25 198.54 322.19 196.65 C 311.11 192.91 302.51 184.63 294.13 176.83 C 291.73 174.47 288.43 172.60 287.67 169.06 C 292.85 172.14 296.76 176.83 301.26 180.76 C 308.93 187.65 317.55 194.34 327.97 196.16 C 323.40 192.74 318.74 189.37 314.83 185.17 C 308.37 178.95 303.08 171.54 295.94 166.05 C 290.39 161.69 284.63 157.35 280.47 151.57 C 278.66 149.29 278.46 146.32 279.13 143.58 C 280.76 146.47 281.19 150.01 283.59 152.45 C 287.03 156.27 290.98 159.57 294.93 162.83 C 292.24 158.24 289.82 153.50 287.06 148.94 C 284.70 144.96 282.16 140.99 280.87 136.50 Z" />
<path fill="#000000" opacity="1.00" d=" M 362.07 146.10 C 363.62 144.20 364.52 141.55 367.01 140.64 C 365.69 146.09 361.56 151.06 355.84 152.02 C 348.99 153.14 341.89 151.77 335.39 149.59 C 335.23 149.17 334.89 148.34 334.72 147.92 C 340.80 148.85 346.77 151.06 353.00 150.53 C 356.41 150.27 360.00 148.98 362.07 146.10 Z" />
<path fill="#000000" opacity="1.00" d=" M 313.58 147.61 C 317.07 149.43 317.94 153.69 320.65 156.32 C 324.36 160.78 330.04 162.50 334.98 165.13 C 333.62 165.82 332.14 165.81 330.76 165.18 C 322.81 162.36 315.73 155.96 313.58 147.61 Z" />
<path fill="#000000" opacity="1.00" d=" M 294.32 181.26 C 294.73 181.48 295.54 181.91 295.95 182.13 C 292.67 189.64 288.25 196.60 285.07 204.16 C 284.60 205.61 283.39 206.50 282.09 207.16 C 282.71 204.65 283.62 202.22 284.81 199.93 C 287.97 193.70 291.16 187.48 294.32 181.26 Z" />
<path fill="#000000" opacity="1.00" d=" M 302.30 187.24 C 307.42 188.69 310.72 193.12 314.23 196.79 C 317.18 199.81 319.73 203.34 323.26 205.72 C 328.52 205.92 333.80 205.88 339.06 206.27 C 338.91 206.64 338.60 207.38 338.45 207.75 C 333.10 208.50 327.68 207.29 322.30 207.85 C 317.23 203.54 313.20 198.20 308.44 193.59 C 306.36 191.50 303.54 190.04 302.30 187.24 Z" />
<path fill="#000000" opacity="1.00" d=" M 297.03 200.98 C 300.64 202.44 302.89 205.77 305.66 208.33 C 310.98 213.41 316.62 218.20 322.80 222.20 C 326.17 224.29 329.89 226.41 333.99 226.25 C 338.43 225.95 342.30 223.41 345.68 220.70 C 350.75 216.44 355.19 211.42 360.65 207.63 C 362.00 206.66 363.62 206.26 365.20 205.86 C 364.32 207.38 363.03 208.56 361.56 209.50 C 354.61 214.15 349.60 221.19 342.36 225.45 C 338.79 227.61 334.41 228.75 330.28 227.76 C 326.64 226.84 323.35 224.91 320.22 222.87 C 312.90 218.00 306.45 211.95 300.22 205.76 C 298.81 204.42 297.76 202.77 297.03 200.98 Z" />
<path fill="#000000" opacity="1.00" d=" M 586.60 234.66 C 592.85 234.79 598.99 236.15 605.04 237.64 C 618.60 240.99 631.55 246.30 644.47 251.53 C 646.18 252.11 647.66 253.16 648.56 254.77 C 645.04 254.55 641.55 253.97 638.04 253.71 C 630.38 253.08 622.69 253.56 615.02 253.60 C 603.01 253.46 591.58 249.47 579.97 246.92 C 569.49 244.54 558.69 244.18 547.99 243.98 C 535.41 243.66 522.87 242.24 510.54 239.71 C 507.58 239.05 504.49 238.77 501.67 237.59 C 501.51 237.20 501.18 236.41 501.01 236.02 C 505.78 236.55 510.42 237.82 515.14 238.66 C 524.33 240.33 533.63 241.48 542.98 241.89 C 551.67 242.11 560.37 242.33 569.03 243.17 C 585.26 244.73 600.55 251.98 617.01 251.76 C 624.40 251.45 631.80 251.60 639.20 251.71 C 626.30 245.94 612.86 241.26 599.05 238.19 C 595.25 237.26 591.29 237.21 587.52 236.24 C 587.29 235.84 586.83 235.05 586.60 234.66 Z" />
<path fill="#000000" opacity="1.00" d=" M 694.29 256.93 C 697.28 259.54 700.12 262.61 704.08 263.70 C 706.72 264.45 709.00 266.02 710.94 267.93 C 707.04 267.40 703.33 266.05 699.82 264.33 C 701.52 267.22 703.34 270.10 704.21 273.38 C 701.36 271.97 700.14 268.93 698.60 266.36 C 696.86 263.36 695.47 260.18 694.29 256.93 Z" />
<path fill="#000000" opacity="1.00" d=" M 174.86 264.26 C 182.13 263.29 189.17 265.92 196.39 266.29 C 195.77 268.24 193.57 267.98 191.96 268.32 C 185.83 269.00 179.98 271.02 173.95 272.17 C 167.17 273.47 160.42 274.93 153.73 276.62 C 147.03 278.25 140.43 280.38 133.59 281.35 C 121.78 283.00 109.82 282.74 97.96 281.90 C 98.00 281.43 98.06 280.47 98.10 279.99 C 114.05 281.24 130.42 281.28 145.88 276.67 C 159.44 272.78 173.42 270.66 187.06 267.13 C 177.28 264.50 167.09 267.01 157.53 269.42 C 140.38 273.93 122.50 272.18 105.03 271.15 C 100.84 270.88 96.59 271.25 92.43 270.55 C 92.24 270.15 91.87 269.35 91.68 268.95 C 111.61 268.70 131.70 272.65 151.49 268.79 C 159.25 267.14 166.89 264.76 174.86 264.26 Z" />
<path fill="#000000" opacity="1.00" d=" M 667.56 281.48 C 669.30 279.17 669.89 276.00 672.40 274.33 C 672.10 276.51 671.67 278.72 670.49 280.62 C 666.61 287.17 660.36 291.78 655.56 297.60 C 649.13 305.28 645.29 314.64 640.11 323.13 C 637.57 327.26 634.88 331.32 632.75 335.69 C 625.41 350.47 621.58 366.61 616.39 382.19 C 608.50 405.70 600.44 429.26 589.46 451.55 C 581.83 467.38 575.27 483.80 570.93 500.85 C 568.91 508.86 565.69 516.52 563.99 524.62 C 563.33 527.54 563.24 530.55 562.53 533.47 C 562.15 533.60 561.37 533.87 560.98 534.00 C 561.02 525.57 563.76 517.49 566.36 509.56 C 568.64 502.89 570.07 495.96 572.23 489.25 C 576.55 475.50 582.08 462.15 588.42 449.21 C 599.36 426.67 607.44 402.91 615.34 379.18 C 621.32 360.90 625.70 341.66 636.42 325.39 C 642.83 315.68 646.97 304.50 654.68 295.65 C 658.77 290.74 663.84 286.70 667.56 281.48 Z" />
<path fill="#000000" opacity="1.00" d=" M 124.53 295.24 C 132.45 293.69 140.16 290.59 148.35 290.93 C 148.02 292.19 147.22 292.82 145.95 292.81 C 136.33 293.53 127.30 297.42 117.66 298.08 C 123.07 304.09 129.43 309.15 135.05 314.95 C 144.41 324.60 154.46 333.57 163.70 343.35 C 169.42 349.75 175.06 356.76 177.17 365.26 C 175.83 364.16 174.39 363.12 173.34 361.72 C 172.10 359.49 171.63 356.90 170.23 354.75 C 165.19 346.99 158.35 340.66 151.84 334.16 C 146.83 329.17 141.56 324.44 136.62 319.38 C 128.62 311.20 120.09 303.58 111.87 295.63 C 116.09 295.89 120.36 296.11 124.53 295.24 Z" />
<path fill="#000000" opacity="1.00" d=" M 97.14 299.92 C 99.74 302.50 100.88 306.06 102.89 309.05 C 109.64 318.79 115.48 329.12 122.04 338.99 C 129.42 351.12 137.84 362.57 145.42 374.58 C 150.91 383.15 155.13 392.43 159.45 401.62 C 166.82 417.73 173.81 434.00 180.75 450.29 C 182.65 455.33 187.58 458.13 190.76 462.25 C 195.28 467.40 197.45 474.01 199.37 480.46 C 201.48 487.44 203.81 494.64 203.06 502.03 C 202.98 503.97 201.71 505.52 200.80 507.15 C 197.90 500.79 196.79 493.84 194.61 487.25 C 192.59 480.38 189.16 474.06 186.30 467.54 C 184.37 463.23 182.52 458.88 180.35 454.69 C 171.18 432.49 161.64 410.40 151.19 388.76 C 143.54 373.36 132.75 359.87 123.70 345.31 C 119.99 339.38 116.19 333.50 112.42 327.60 C 109.43 322.93 106.78 318.05 103.57 313.53 C 100.74 309.38 97.29 305.19 97.14 299.92 M 184.90 459.08 C 187.58 466.52 191.42 473.47 194.38 480.79 C 196.74 486.74 198.26 492.97 199.91 499.14 C 200.12 500.20 200.76 501.11 201.42 501.96 C 201.66 492.71 198.43 483.89 195.66 475.22 C 193.71 468.93 189.89 463.35 184.90 459.08 Z" />
<path fill="#000000" opacity="1.00" d=" M 479.88 360.83 C 481.69 358.71 484.66 359.61 487.07 359.57 C 489.97 363.91 489.51 370.08 485.86 373.84 C 483.57 376.44 478.53 375.90 477.30 372.49 C 476.14 368.54 477.10 363.90 479.88 360.83 M 479.46 372.59 C 480.75 373.25 482.40 374.11 483.74 373.02 C 485.95 371.44 486.99 368.57 487.03 365.92 C 487.12 363.71 485.07 362.36 483.88 360.77 C 479.30 362.32 477.56 368.45 479.46 372.59 Z" />
<path fill="#000000" opacity="1.00" d=" M 360.44 376.62 C 365.17 375.37 369.59 373.23 374.29 371.90 C 373.56 372.93 372.96 374.19 371.71 374.69 C 366.50 377.23 360.69 378.16 355.41 380.52 C 351.35 382.35 347.53 384.63 343.56 386.63 C 337.52 389.76 331.19 392.30 324.80 394.63 C 318.82 396.86 312.61 398.71 307.17 402.15 C 304.19 404.12 300.74 405.10 297.25 405.61 C 294.70 405.92 292.52 407.33 290.15 408.15 C 287.22 407.68 284.32 407.04 281.46 406.25 C 280.10 406.06 279.62 404.73 279.13 403.66 C 283.39 404.38 287.80 406.62 292.10 405.06 C 294.80 404.18 297.60 403.71 300.36 403.05 C 304.20 402.12 307.33 399.53 310.88 397.92 C 320.71 393.60 331.17 390.79 340.74 385.86 C 347.28 382.74 353.39 378.58 360.44 376.62 Z" />
<path fill="#000000" opacity="1.00" d=" M 301.26 376.26 C 304.96 373.14 310.11 373.16 314.68 373.33 C 315.27 376.88 316.05 380.84 314.00 384.09 C 311.86 387.50 307.79 390.67 303.55 389.42 C 298.75 387.34 297.11 379.77 301.26 376.26 M 301.62 378.78 C 299.77 381.92 301.38 387.17 305.24 387.83 C 309.56 387.71 312.30 383.75 313.64 380.06 C 312.71 378.41 311.81 376.75 311.03 375.03 C 307.70 375.50 303.78 375.85 301.62 378.78 Z" />
<path fill="#000000" opacity="1.00" d=" M 119.09 377.21 C 119.53 377.17 120.42 377.09 120.86 377.06 C 121.24 385.80 125.41 393.65 127.25 402.08 C 130.75 416.66 133.73 431.35 137.09 445.96 C 139.46 456.57 141.25 467.32 144.43 477.72 C 145.51 481.34 146.97 484.84 147.92 488.51 C 146.50 487.80 145.29 486.76 144.87 485.19 C 140.48 473.34 138.37 460.84 135.70 448.54 C 132.20 433.18 128.97 417.77 125.38 402.43 C 123.55 393.94 119.06 386.07 119.09 377.21 Z" />
<path fill="#000000" opacity="1.00" d=" M 135.47 376.61 C 138.03 377.88 138.71 380.81 139.86 383.17 C 149.17 403.96 159.13 424.49 167.39 445.74 C 173.06 460.47 176.93 475.80 182.17 490.68 C 185.70 500.92 189.24 511.19 191.50 521.80 C 191.00 521.79 189.99 521.77 189.48 521.76 C 186.45 507.29 180.82 493.58 176.43 479.52 C 172.84 467.94 169.48 456.28 165.02 445.00 C 156.61 423.85 146.85 403.29 137.36 382.62 C 136.48 380.70 135.88 378.67 135.47 376.61 Z" />
<path fill="#000000" opacity="1.00" d=" M 518.47 418.39 C 524.76 415.98 528.39 409.27 535.06 407.60 C 537.04 406.98 539.06 407.77 541.03 408.07 C 541.28 410.25 541.77 412.56 540.83 414.66 C 539.22 418.52 535.52 420.81 532.68 423.69 C 530.31 425.87 528.86 428.77 527.31 431.54 C 528.65 431.58 529.99 431.64 531.35 431.70 C 530.97 433.73 530.96 435.98 529.65 437.70 C 527.78 440.31 524.75 441.77 521.74 442.62 C 515.33 444.44 508.61 444.36 502.09 445.48 C 499.16 445.97 496.39 447.07 493.55 447.88 C 494.35 445.11 497.37 444.51 499.80 443.92 C 507.94 442.22 516.66 443.00 524.39 439.53 C 526.98 438.50 528.49 436.07 529.39 433.56 C 526.98 433.84 524.60 434.30 522.26 434.90 C 524.60 432.24 526.44 429.20 528.21 426.14 C 530.84 421.52 535.95 419.08 538.74 414.61 C 539.80 412.87 539.36 410.81 539.15 408.93 C 534.10 409.03 529.99 412.13 526.50 415.46 C 521.59 420.16 514.84 421.89 508.47 423.62 C 503.55 424.85 498.34 425.80 493.32 424.73 C 491.43 424.43 490.77 422.62 490.24 421.05 C 492.72 422.02 495.15 423.53 497.93 423.33 C 505.00 423.02 511.89 420.90 518.47 418.39 Z" />
<path fill="#000000" opacity="1.00" d=" M 428.32 505.36 C 429.53 503.55 431.49 502.45 433.12 501.06 C 436.21 502.98 439.92 502.84 443.30 503.82 C 445.40 504.40 445.87 506.60 446.11 508.48 C 441.60 510.09 437.24 512.96 432.29 512.69 C 428.95 512.17 427.76 508.28 428.32 505.36 M 430.28 504.63 C 430.19 506.72 430.51 508.79 431.23 510.77 C 434.43 511.02 437.51 510.07 440.38 508.74 C 439.22 507.91 438.09 507.03 436.82 506.39 C 435.44 506.27 434.34 507.40 433.13 507.90 C 432.88 506.13 432.43 504.46 430.28 504.63 M 439.76 505.06 C 439.82 506.58 442.41 507.62 443.77 507.28 C 444.05 505.47 441.18 503.97 439.76 505.06 Z" />
</g>
</svg>
