<?xml version="1.0" encoding="utf-8"?>
<!-- Generator: Adobe Illustrator 15.0.2, SVG Export Plug-In . SVG Version: 6.00 Build 0)  -->
<!DOCTYPE svg PUBLIC "-//W3C//DTD SVG 1.1//EN" "http://www.w3.org/Graphics/SVG/1.1/DTD/svg11.dtd">
<svg version="1.1" id="Layer_1" xmlns="http://www.w3.org/2000/svg" xmlns:xlink="http://www.w3.org/1999/xlink" x="0px" y="0px"
	 width="119px" height="116px" viewBox="0 0 119 116" enable-background="new 0 0 119 116" xml:space="preserve">
<path fill="#FFFFFF" d="M0,0h119v108.3c-0.7-2.46-1.6-4.85-2.43-7.27c-10.48-5.11-22.45-6.811-32.23-13.38
	c-3.99-2.971-7.23-6.801-10.65-10.381c-3.6-3.66-4.6-8.85-6.56-13.41c3.95-0.5,7.89,0.25,11.841,0.32
	c9.5-0.689,16.85-8.479,19.889-17.07c4.82-12.75,3.761-28.99-6.52-38.84c1.08-0.8,2.141-1.61,3.2-2.43
	c-1.67-0.03-3.351,0.02-5.021,0.11C87.32,3.17,83.35,1.14,79.04,1.08c-7.46-0.26-15,0.6-22.39-0.9c0.72,0.71,2.14,2.14,2.85,2.85
	C47.4,6.4,36.38,13.97,29.49,24.53c-2.59,7.33-0.75,15.85,3.77,22.05c3.68,5.49,9.25,9.22,13.87,13.82
	c-9.6,3.069-20.72,4.779-27.49,13.02c-4.23,4.721-4.67,11.54-8.88,16.28c-4.49,5.38-9.24,11.01-10.33,18.19L0,108.18V0z"/>
<path d="M56.65,0.18c7.39,1.5,14.93,0.64,22.39,0.9c4.31,0.06,8.28,2.09,11.479,4.87c1.67-0.09,3.351-0.14,5.021-0.11
	c-1.06,0.82-2.12,1.63-3.2,2.43c10.28,9.85,11.34,26.09,6.52,38.84C95.82,55.7,88.471,63.49,78.971,64.18
	c-3.951-0.07-7.891-0.82-11.841-0.32c1.96,4.561,2.96,9.75,6.56,13.41c3.42,3.58,6.66,7.41,10.65,10.381
	c9.78,6.569,21.75,8.27,32.23,13.38c0.83,2.42,1.729,4.81,2.43,7.27v5.72c-1.01-1.869-1.83-3.83-2.52-5.83
	c-0.801,1.41-1.65,2.801-2.551,4.15c-0.38-3.21,0.16-6.42,0.15-9.64c-1.68,2.58-2.04,5.67-2.82,8.58c-1.82-2.89-0.8-6.24,0.1-9.23
	c-8.27-5.45-18.6-6.33-26.899-11.69c-3.29-2.629-6.13-5.789-9.08-8.779C70.7,76.7,68.27,70.27,64.35,64.859
	C64.18,82.75,73.109,98.82,76.62,116h-0.81c-0.811-1.13-1.65-2.26-2.17-3.561C68.99,98.9,65.189,85.03,62.939,70.88
	c-0.449-2.12-0.56-4.37-1.469-6.36c-2.181-1.6-4.961-1.819-7.561-1.959c-8.62-0.36-17.16,1.899-25.1,5.1
	c-4.6,1.779-8.13,5.54-10.31,9.9C15.47,83.609,13.28,90.1,9.15,95.55c4.2,2.32,10.17,3.19,11.27,8.74
	c-2.59-0.22-4.19-2.16-5.78-3.94c-1.28-1.56-3.51-1.33-5.27-1.8c0.65,4.521,3.86,7.91,5.79,11.88c-5.44-0.869-6.37-6.729-7.82-11.05
	c-0.68,1.479-1.76,2.88-1.8,4.57c0.41,2.739,1.83,5.18,2.68,7.8c-3.68-1.5-4.5-5.38-5.4-8.811c-0.95,3.03-1.04,6.23-0.92,9.381
	c-0.47-0.61-1.42-1.84-1.9-2.461v-1.68l0.43-0.289C1.52,100.71,6.27,95.08,10.76,89.7c4.21-4.74,4.65-11.56,8.88-16.28
	c6.77-8.24,17.89-9.95,27.49-13.02C42.51,55.8,36.94,52.07,33.26,46.58c-4.52-6.2-6.36-14.72-3.77-22.05
	C36.38,13.97,47.4,6.4,59.5,3.03C58.79,2.32,57.37,0.89,56.65,0.18 M65.91,3.19C67.189,4,68.52,4.7,69.92,5.29
	c-0.76,0.31-1.52,0.61-2.279,0.9c-4.531-1.33-9.65-1.33-13.761,1.23C59.13,7.77,64.4,7.84,69.65,7.53l-0.67-0.76
	c0.799-0.34,1.6-0.66,2.41-0.97c2.539,0.47,5.119,0.64,7.68,0.94c0.4,0.27,1.199,0.81,1.6,1.08c-2.07,1.04-4.32,3.12-6.641,1.47
	c-1.809,3.69-6.079,5.19-9.949,5.27c-5.45,0.2-11.07-1.22-15.59-4.32c-7.57,2.88-12.88,9.49-17.35,15.95
	c-1.39,4.67-0.67,9.9,1.15,14.39c3.37,8.3,11.16,13.48,18.1,18.57c4.31-1.431,8.66-2.771,12.84-4.57c0.289,1.1,0.58,2.2,0.869,3.3
	c0.141,1.11,0.33,2.21,0.57,3.3c6.37,1.66,13.46,2.04,19.54-0.84c6.05-2.77,10.53-8.26,12.87-14.4c3.41-8.71,3.05-18.45,0.35-27.29
	c-3.74,1.39-8.16,1.6-11.66-0.55c-3.229-1.55-4.449-5.27-4.68-8.6c2.01-0.98,4.03-1.94,6.03-2.93C83.189,3.35,77.9,3.3,73.189,2.14
	C71.859,5.22,68.33,3.29,65.91,3.19 M52.59,9.76c3.95,3.19,10.141,4.36,14.4,1.11C62.68,8.18,57.35,10.09,52.59,9.76 M85.57,9.58
	c-0.051,0.4-0.16,1.21-0.211,1.61c2.521,0.91,5.08,1.68,7.681,2.34C92.32,10.06,88.79,8.36,85.57,9.58 M83.85,12.95
	c0.771,2.63,3.301,3.51,5.69,4.14c-0.19-0.9-0.39-1.81-0.58-2.71C87.26,13.88,85.57,13.37,83.85,12.95 M54.66,60.12
	c2.23,0.79,4.53,1.36,6.85,1.85c-0.22-1.39,0.54-3.67-1.48-3.87C58.13,58.45,56.38,59.28,54.66,60.12z"/>
<path fill="#FFFFFF" d="M65.91,3.19c2.42,0.1,5.949,2.03,7.279-1.05c4.711,1.16,10,1.21,13.931,4.43c-2,0.99-4.021,1.95-6.03,2.93
	c0.23,3.33,1.45,7.05,4.68,8.6c3.5,2.15,7.92,1.94,11.66,0.55c2.7,8.84,3.061,18.58-0.35,27.29c-2.34,6.14-6.82,11.63-12.87,14.4
	c-6.08,2.88-13.17,2.5-19.54,0.84c-0.24-1.09-0.43-2.189-0.57-3.3c-0.289-1.1-0.58-2.2-0.869-3.3c-4.181,1.8-8.53,3.14-12.84,4.57
	c-6.94-5.09-14.73-10.271-18.1-18.57c-1.82-4.49-2.54-9.72-1.15-14.39c4.47-6.46,9.78-13.07,17.35-15.95
	c4.52,3.1,10.14,4.52,15.59,4.32c3.87-0.08,8.141-1.58,9.949-5.27c2.32,1.65,4.57-0.43,6.641-1.47c-0.4-0.27-1.199-0.81-1.6-1.08
	c-2.561-0.3-5.141-0.47-7.68-0.94c-0.811,0.31-1.611,0.63-2.41,0.97l0.67,0.76C64.4,7.84,59.13,7.77,53.88,7.42
	c4.11-2.56,9.229-2.56,13.761-1.23c0.76-0.29,1.52-0.59,2.279-0.9C68.52,4.7,67.189,4,65.91,3.19 M49.98,16.46
	c-0.51,1.33-1.05,2.65-1.61,3.96c0.4,0.08,1.2,0.25,1.6,0.33c0.91-0.88,1.85-1.74,2.8-2.59c-0.05-0.39-0.16-1.16-0.21-1.54
	C51.7,16.56,50.84,16.51,49.98,16.46 M52.91,19.93c-0.08,0.59-0.24,1.77-0.32,2.36c0.35,0.08,1.05,0.26,1.4,0.34
	c0.93,0.89,1.88,1.76,2.82,2.64c1.65,1.02,3.299,2.03,4.95,3.05c1.1,0.57,2.19,1.13,3.28,1.7c3.56,1.21,7.239,2.01,10.92,2.73
	c0.64-0.58,1.28-1.16,1.931-1.73c-9.041-0.56-16.611-5.95-24.521-9.77C53.25,20.92,53.02,20.26,52.91,19.93 M85.96,30.04
	c-2.21,0.9-4.64,1.05-6.989,1.22c-0.631,0.65-1.25,1.3-1.871,1.95c6.34,0.09,13.041-1.21,17.641-5.9c-0.1-0.5-0.311-1.49-0.42-1.99
	C90.45,24.49,89.061,28.83,85.96,30.04 M62.71,32.92c0.49,0.1,1.479,0.29,1.979,0.38l-0.129,0.95C69.6,36.04,74.96,37.4,80.33,36.4
	C74.98,33.43,68.7,32.94,62.71,32.92z"/>
<path fill="#FFFFFF" d="M52.59,9.76c4.76,0.33,10.09-1.58,14.4,1.11C62.73,14.12,56.54,12.95,52.59,9.76z"/>
<path fill="#FFFFFF" d="M85.57,9.58c3.22-1.22,6.75,0.48,7.47,3.95c-2.601-0.66-5.16-1.43-7.681-2.34
	C85.41,10.79,85.52,9.98,85.57,9.58z"/>
<path fill="#FFFFFF" d="M83.85,12.95c1.721,0.42,3.41,0.93,5.11,1.43c0.19,0.9,0.39,1.81,0.58,2.71
	C87.15,16.46,84.62,15.58,83.85,12.95z"/>
<path d="M49.98,16.46c0.86,0.05,1.72,0.1,2.58,0.16c0.05,0.38,0.16,1.15,0.21,1.54c-0.95,0.85-1.89,1.71-2.8,2.59
	c-0.4-0.08-1.2-0.25-1.6-0.33C48.93,19.11,49.47,17.79,49.98,16.46z"/>
<path d="M52.91,19.93c0.11,0.33,0.34,0.99,0.46,1.32c7.909,3.82,15.479,9.21,24.521,9.77c-0.65,0.57-1.291,1.15-1.931,1.73
	c-3.681-0.72-7.36-1.52-10.92-2.73c-1.09-0.57-2.181-1.13-3.28-1.7c-1.65-1.02-3.3-2.03-4.95-3.05c-0.94-0.88-1.89-1.75-2.82-2.64
	c-0.35-0.08-1.05-0.26-1.4-0.34C52.67,21.7,52.83,20.52,52.91,19.93z"/>
<path d="M85.96,30.04c3.101-1.21,4.49-5.55,8.36-4.72c0.109,0.5,0.32,1.49,0.42,1.99c-4.6,4.69-11.301,5.99-17.641,5.9
	c0.621-0.65,1.24-1.3,1.871-1.95C81.32,31.09,83.75,30.94,85.96,30.04z"/>
<path fill="#070707" d="M62.71,32.92c5.99,0.02,12.271,0.51,17.62,3.48c-5.37,1-10.73-0.36-15.77-2.15l0.129-0.95
	C64.189,33.21,63.2,33.02,62.71,32.92z"/>
<path fill="#FFFFFF" d="M54.66,60.12c1.72-0.84,3.47-1.67,5.369-2.02c2.021,0.2,1.261,2.48,1.48,3.87
	C59.19,61.48,56.89,60.91,54.66,60.12z"/>
<path fill="#FFFFFF" d="M28.81,67.66c7.94-3.2,16.48-5.46,25.1-5.1c2.6,0.14,5.38,0.359,7.561,1.959
	c0.909,1.99,1.02,4.24,1.469,6.36c2.25,14.15,6.051,28.021,10.701,41.56c0.52,1.301,1.359,2.431,2.17,3.561H0v-6.141
	c0.48,0.621,1.43,1.851,1.9,2.461c-0.12-3.15-0.03-6.351,0.92-9.381c0.9,3.431,1.72,7.311,5.4,8.811c-0.85-2.62-2.27-5.061-2.68-7.8
	c0.04-1.69,1.12-3.091,1.8-4.57c1.45,4.32,2.38,10.181,7.82,11.05c-1.93-3.97-5.14-7.359-5.79-11.88c1.76,0.47,3.99,0.24,5.27,1.8
	c1.59,1.78,3.19,3.721,5.78,3.94c-1.1-5.55-7.07-6.42-11.27-8.74c4.13-5.45,6.32-11.94,9.35-17.989
	C20.68,73.2,24.21,69.439,28.81,67.66z"/>
<path fill="#FFFFFF" d="M64.35,64.859C68.27,70.27,70.7,76.7,75.38,81.58c2.95,2.99,5.79,6.15,9.08,8.779
	c8.3,5.36,18.63,6.24,26.899,11.69c-0.899,2.99-1.92,6.341-0.1,9.23c0.78-2.91,1.141-6,2.82-8.58c0.01,3.22-0.53,6.43-0.15,9.64
	c0.9-1.35,1.75-2.74,2.551-4.15c0.689,2,1.51,3.961,2.52,5.83V116H76.62C73.109,98.82,64.18,82.75,64.35,64.859z"/>
</svg>
