<?xml version="1.0" encoding="UTF-8" ?>
<!DOCTYPE svg PUBLIC "-//W3C//DTD SVG 1.1//EN" "http://www.w3.org/Graphics/SVG/1.1/DTD/svg11.dtd">
<svg width="716pt" height="762pt" viewBox="0 0 716 762" version="1.1" xmlns="http://www.w3.org/2000/svg">
<g id="#ffffffff">
<path fill="#ffffff" opacity="1.00" d=" M 371.96 123.02 C 387.75 121.70 403.17 130.38 412.37 142.90 C 414.84 146.57 417.80 149.87 420.30 153.52 C 423.31 157.95 427.33 161.64 429.80 166.45 C 432.61 170.33 434.55 174.72 436.97 178.84 C 437.82 180.72 438.53 182.85 438.25 184.94 C 427.85 184.86 417.98 181.19 407.84 179.41 C 399.83 177.94 391.47 179.19 383.98 182.21 C 382.81 182.72 384.17 183.69 384.64 184.12 C 390.00 188.42 395.13 193.18 398.55 199.22 C 408.94 201.27 419.13 204.50 428.82 208.77 C 420.54 217.68 411.51 226.49 406.91 238.01 C 404.14 244.14 404.02 251.56 407.25 257.53 C 408.93 260.77 411.75 263.17 414.38 265.62 C 415.97 266.99 417.76 268.60 420.01 268.53 C 425.91 268.34 431.81 267.76 437.64 266.84 C 441.19 270.76 444.32 275.03 447.79 279.02 C 449.15 280.58 451.24 281.55 452.01 283.57 C 444.37 278.76 435.84 275.66 427.47 272.39 C 423.99 271.16 420.63 269.54 417.04 268.66 C 415.38 269.41 413.90 270.49 412.27 271.30 C 409.13 267.14 406.31 262.66 404.28 257.86 C 400.95 249.04 401.21 239.46 400.20 230.23 C 398.50 230.48 396.18 230.85 395.85 232.93 C 394.80 242.64 397.90 252.32 402.36 260.84 C 410.51 276.24 423.18 288.65 436.64 299.46 C 439.68 302.06 443.37 303.96 445.90 307.11 C 447.89 310.95 447.61 315.48 448.98 319.53 C 453.69 317.15 451.49 311.35 450.41 307.47 C 456.04 308.87 459.44 315.23 457.91 320.73 C 457.32 323.12 455.50 324.99 453.35 326.09 C 453.36 324.26 453.72 322.42 453.42 320.60 C 451.39 319.42 449.23 321.41 447.63 322.53 C 444.86 324.46 442.80 328.32 444.68 331.54 C 452.67 331.15 461.66 326.41 463.27 317.96 C 462.33 313.49 459.37 309.83 457.04 306.00 C 456.15 304.35 454.09 304.23 452.54 303.57 C 443.18 300.63 435.68 293.93 428.84 287.15 C 424.59 282.83 420.34 278.51 416.17 274.13 C 422.09 274.14 427.29 277.32 433.05 278.20 C 437.08 278.74 440.24 281.44 443.61 283.47 C 453.08 289.37 462.59 295.49 470.33 303.62 C 471.63 305.01 472.76 306.56 473.82 308.15 C 475.13 310.47 477.23 312.11 479.28 313.73 C 481.56 315.55 482.72 318.31 484.48 320.56 C 485.88 322.45 487.68 324.05 488.83 326.13 C 489.80 328.34 490.28 330.72 491.00 333.02 C 487.49 325.08 480.33 318.84 471.96 316.65 C 471.03 317.43 467.85 317.68 468.67 319.30 C 473.61 323.16 480.80 323.96 484.51 329.39 C 488.46 335.04 490.90 342.00 490.26 348.96 C 489.25 362.37 482.64 374.53 480.88 387.80 C 478.03 407.14 481.91 426.80 487.94 445.17 C 489.16 441.65 489.85 437.87 489.03 434.18 C 485.62 416.41 483.31 397.95 486.89 380.02 C 488.40 372.71 491.19 365.75 493.16 358.57 C 493.33 360.41 493.53 362.31 492.93 364.11 C 491.43 368.94 491.35 374.01 490.88 379.00 C 490.51 382.87 490.63 386.76 490.87 390.63 C 492.16 389.76 494.08 388.98 493.72 387.06 C 493.73 380.35 493.85 373.63 494.54 366.96 C 495.12 363.29 496.67 359.78 496.36 356.00 C 495.94 347.71 497.47 339.07 494.22 331.17 C 498.80 335.64 502.73 340.82 505.36 346.68 C 506.29 348.65 506.21 350.88 506.26 353.01 C 506.25 358.34 506.36 363.67 506.22 369.00 C 506.28 372.57 506.61 376.31 508.36 379.51 C 510.24 382.24 513.28 384.21 514.34 387.49 C 514.80 389.64 514.84 391.85 515.28 394.01 C 515.88 397.50 518.35 400.41 518.63 403.99 C 518.84 406.81 518.68 409.64 518.94 412.47 C 519.91 412.02 520.76 411.43 521.52 410.70 C 521.97 407.44 521.94 404.12 521.69 400.85 C 521.32 397.32 518.69 394.51 518.24 391.00 C 517.86 388.85 517.88 386.64 517.28 384.55 C 516.00 381.20 512.73 379.26 510.84 376.32 C 509.51 373.77 509.29 370.82 509.27 368.00 C 509.28 361.68 509.34 355.35 509.39 349.03 C 509.53 345.12 507.24 341.78 505.36 338.56 C 502.11 333.00 497.07 328.86 492.88 324.07 C 490.65 321.64 490.73 318.13 489.59 315.20 C 488.83 313.78 487.68 312.62 486.74 311.33 C 484.43 308.51 483.49 304.76 480.79 302.23 C 479.03 300.36 476.69 298.94 475.47 296.64 C 475.12 293.79 475.49 290.91 475.11 288.06 C 474.47 286.45 472.96 285.41 471.81 284.18 C 469.18 281.82 466.84 279.17 464.57 276.47 C 461.94 273.35 458.16 271.59 455.25 268.79 C 453.41 266.99 451.42 265.33 449.73 263.39 C 453.69 261.41 457.04 258.55 460.13 255.43 C 462.01 255.37 463.73 254.60 465.10 253.31 C 464.16 253.39 462.27 253.55 461.32 253.63 C 461.67 252.72 462.36 250.89 462.71 249.98 C 462.60 246.80 460.31 244.33 459.38 241.41 C 461.42 242.33 463.57 243.33 464.88 245.25 C 466.46 247.13 466.80 249.64 467.58 251.90 C 468.81 251.39 471.13 250.89 470.53 249.05 C 469.86 245.84 468.16 242.40 465.07 240.90 C 459.54 237.64 453.44 235.05 446.95 234.75 C 432.85 233.52 419.41 239.24 407.19 245.60 C 411.15 234.35 418.40 224.27 427.78 216.89 C 429.28 215.74 430.72 214.42 432.50 213.71 C 437.48 213.57 442.06 216.23 447.03 216.33 C 448.73 216.50 450.61 216.09 452.15 217.05 C 458.04 220.11 464.49 223.21 468.04 229.12 C 469.34 231.02 469.15 233.39 469.33 235.58 C 471.28 234.43 473.34 233.39 475.05 231.88 C 471.33 226.21 470.51 219.21 471.35 212.60 C 482.41 214.85 493.43 217.37 504.57 219.22 C 510.97 220.39 517.56 220.26 523.91 221.83 C 537.42 224.81 549.75 231.42 562.93 235.43 C 565.00 236.11 567.36 236.43 568.90 238.15 C 582.34 251.00 595.36 264.35 609.85 276.05 C 614.60 280.00 619.95 283.26 624.09 287.91 C 633.56 298.13 639.26 311.02 646.21 322.93 C 657.35 346.18 672.54 367.26 682.98 390.86 C 684.05 393.09 683.44 395.63 683.52 398.01 C 683.39 413.32 685.64 428.64 684.11 443.94 C 683.28 452.53 681.00 461.10 676.52 468.53 C 674.37 471.99 673.06 475.86 671.42 479.57 C 656.10 515.15 636.52 548.79 614.18 580.39 C 612.14 583.28 610.17 586.24 607.75 588.83 C 594.18 603.26 583.00 620.04 575.62 638.45 C 574.19 641.97 573.28 645.82 570.81 648.81 C 568.17 652.24 564.43 654.60 560.56 656.41 C 543.28 664.66 530.13 679.40 512.87 687.69 C 510.06 688.95 507.25 690.49 504.11 690.69 C 480.72 692.53 457.40 695.36 433.95 696.26 C 424.14 696.96 414.85 700.59 405.10 701.63 C 401.07 702.09 397.01 701.80 392.97 701.68 C 365.99 701.32 339.00 702.33 312.03 701.28 C 310.14 701.21 308.23 701.05 306.44 700.42 C 287.64 693.78 269.38 685.67 250.45 679.39 C 240.27 675.91 229.79 672.89 220.43 667.46 C 216.29 664.86 212.04 661.98 209.32 657.84 C 221.25 657.87 233.29 656.41 245.13 658.51 C 252.09 659.71 258.44 662.93 265.11 665.10 C 267.98 666.06 271.08 666.38 274.07 665.84 C 269.27 661.83 262.74 661.17 256.91 659.55 C 252.31 658.26 246.94 657.14 244.05 652.94 C 242.39 650.59 243.08 647.63 243.12 644.97 C 242.79 644.76 242.14 644.35 241.81 644.14 C 230.26 638.61 220.36 630.30 209.16 624.16 C 214.53 630.94 222.86 634.24 229.60 639.39 C 234.13 642.75 238.67 647.00 239.97 652.71 C 223.55 657.36 205.12 655.31 190.51 646.33 C 187.97 644.92 186.80 642.13 185.09 639.94 C 174.37 625.47 159.82 614.51 148.03 600.99 C 144.75 597.26 141.90 593.18 138.57 589.49 C 122.20 570.83 101.41 556.68 85.10 537.96 C 82.12 534.56 79.50 530.86 76.32 527.64 C 70.13 521.24 62.96 515.61 58.26 507.93 C 55.27 503.55 55.23 498.03 54.71 492.95 C 53.34 471.24 60.92 450.49 66.46 429.85 C 68.84 421.50 68.48 412.47 72.34 404.56 C 77.20 391.98 85.83 381.37 91.45 369.17 C 95.34 362.80 99.80 356.79 103.40 350.24 C 104.94 356.77 107.86 362.88 110.95 368.80 C 118.03 380.28 124.33 392.23 131.24 403.81 C 135.69 411.41 140.73 419.29 148.64 423.67 C 155.99 428.10 164.65 429.71 171.89 434.34 C 176.03 435.97 180.70 435.15 185.05 435.14 C 192.43 432.57 200.57 432.36 207.45 428.38 C 208.10 426.85 206.92 423.94 205.32 423.35 C 197.34 428.66 187.55 432.33 177.87 430.65 C 169.87 429.66 162.53 426.01 155.59 422.12 C 150.68 419.30 145.57 416.60 141.57 412.51 C 139.37 410.32 137.86 407.58 136.36 404.90 C 130.93 395.49 126.17 385.69 120.31 376.53 C 118.84 374.18 116.70 372.01 116.43 369.12 C 115.90 365.46 115.73 361.75 114.86 358.15 C 113.55 352.51 111.89 346.85 111.95 341.01 C 112.16 337.36 112.91 333.29 115.86 330.81 C 120.30 326.93 125.93 323.72 132.02 324.11 C 141.09 324.51 148.51 331.39 157.65 331.28 C 155.47 328.65 152.40 327.02 149.58 325.20 C 143.09 321.21 135.14 318.84 127.57 320.83 C 121.69 322.45 116.18 325.58 111.65 329.64 C 109.97 333.06 108.28 336.50 106.79 340.00 C 106.80 342.40 108.03 344.60 108.51 346.92 C 109.59 351.57 110.64 356.22 111.66 360.88 C 105.37 351.39 103.07 338.93 107.02 328.09 C 110.88 317.49 121.56 309.52 132.98 309.81 C 139.52 310.35 145.10 314.15 150.29 317.86 C 152.66 319.45 154.87 321.67 157.90 321.82 C 169.68 323.38 181.79 325.46 192.14 331.66 C 196.14 333.99 199.52 337.18 203.15 340.01 C 204.45 340.07 205.42 339.05 206.45 338.42 C 212.00 334.42 218.40 331.77 223.87 327.65 C 223.52 325.87 222.36 324.41 221.53 322.84 C 216.53 313.79 212.16 304.18 210.62 293.88 C 207.99 278.79 210.90 263.24 216.40 249.11 C 218.35 243.62 221.37 238.58 223.20 233.04 C 220.60 220.72 210.84 211.87 205.10 201.07 C 203.83 199.47 205.09 197.58 206.04 196.23 C 208.70 193.11 212.68 191.47 215.29 188.28 C 221.12 181.70 221.66 172.40 226.00 165.00 C 227.66 162.35 229.74 159.67 232.81 158.60 C 241.85 154.77 251.84 154.80 261.37 153.06 C 268.20 151.70 274.84 149.30 280.87 145.79 C 286.62 142.50 292.53 139.37 299.00 137.77 C 300.01 138.34 300.97 139.01 302.03 139.51 C 303.14 139.63 304.22 139.18 305.32 139.00 C 308.55 138.18 311.90 138.82 315.17 139.09 C 323.94 140.72 332.59 137.83 340.93 135.45 C 346.82 133.45 353.04 131.94 358.14 128.20 C 362.17 125.24 366.93 123.30 371.96 123.02 M 397.80 136.93 C 399.74 140.52 402.61 143.48 405.11 146.68 C 407.18 148.96 408.81 151.71 411.40 153.47 C 411.89 151.07 410.95 148.46 408.81 147.21 C 405.88 145.28 404.06 142.16 403.36 138.76 C 401.68 137.72 399.70 137.32 397.80 136.93 M 391.31 162.43 C 385.83 162.73 380.31 163.37 375.04 164.95 L 375.37 165.52 C 386.12 170.42 397.83 164.25 408.94 166.43 C 413.10 168.14 416.54 172.82 421.56 171.55 C 420.27 168.85 418.93 166.15 417.23 163.68 C 408.70 162.34 399.95 162.26 391.31 162.43 M 381.41 172.69 C 376.29 175.58 371.07 178.79 365.10 179.39 C 356.40 180.41 346.93 180.34 339.39 185.42 C 339.40 185.63 339.42 186.04 339.43 186.24 C 345.81 188.22 351.60 183.48 357.99 184.19 C 365.34 184.62 372.69 182.54 378.87 178.58 C 380.94 177.28 382.03 174.84 381.90 172.43 L 381.41 172.69 M 340.61 175.95 C 335.81 177.54 330.56 178.35 326.39 181.41 C 324.64 182.62 323.93 184.71 323.36 186.66 C 325.65 185.94 327.78 184.81 330.04 184.01 C 338.43 181.07 347.53 180.37 355.60 176.49 C 355.65 176.25 355.75 175.77 355.80 175.52 C 350.83 173.99 345.53 174.56 340.61 175.95 M 371.12 189.14 C 371.10 190.41 370.86 192.07 372.01 192.97 C 374.36 194.62 377.45 195.34 379.10 197.87 C 384.01 204.85 383.91 213.77 386.36 221.65 C 386.59 221.64 387.05 221.62 387.28 221.62 C 391.20 212.39 386.30 202.59 380.95 195.09 C 378.46 192.17 375.48 188.35 371.12 189.14 M 393.50 194.09 C 390.27 201.79 392.27 210.38 395.44 217.73 C 397.16 213.34 397.63 208.52 396.65 203.90 C 395.86 200.58 395.45 196.99 393.50 194.09 M 350.08 194.99 C 343.04 195.11 336.37 197.91 330.44 201.51 C 328.45 202.77 326.23 203.78 324.62 205.53 C 320.14 211.17 319.71 219.27 314.09 224.12 C 307.19 229.99 297.75 231.85 291.06 238.03 C 284.11 244.50 278.01 252.15 274.52 261.05 C 273.62 262.88 274.10 264.89 274.06 266.84 C 268.91 270.60 262.98 275.67 263.71 282.77 C 267.36 280.12 270.77 276.76 272.87 272.73 C 273.76 271.34 273.22 269.00 274.71 268.15 C 277.07 272.44 281.11 276.10 286.02 277.01 C 290.95 275.17 292.82 269.70 295.30 265.54 C 297.74 260.98 302.38 258.34 306.79 256.01 C 314.89 251.76 324.00 249.11 330.92 242.90 C 337.56 236.89 340.25 227.85 346.54 221.54 C 353.74 214.01 365.34 212.87 372.15 204.86 C 371.89 203.58 370.70 202.86 369.81 202.06 C 364.24 197.67 357.29 194.57 350.08 194.99 M 373.68 244.27 C 373.42 251.54 379.52 256.84 380.63 263.81 C 382.93 260.82 383.10 256.67 381.37 253.38 C 379.56 249.83 377.06 246.44 373.68 244.27 M 313.67 276.68 C 312.23 277.96 310.98 279.77 308.98 280.17 C 301.80 281.30 294.52 281.26 287.28 281.29 C 282.51 280.67 277.67 280.57 272.87 280.95 C 270.08 279.90 272.11 282.90 273.13 282.66 C 282.14 286.88 292.35 285.68 301.95 284.89 C 305.91 284.46 309.92 284.98 313.88 284.50 C 315.01 286.43 318.13 288.20 316.51 290.72 C 317.55 290.48 318.58 290.15 319.66 290.11 C 319.76 291.32 319.79 292.54 319.75 293.77 C 317.92 293.52 316.06 293.56 314.24 293.80 C 315.73 295.18 317.66 295.93 319.54 296.65 C 319.19 300.17 317.68 303.45 317.32 306.96 C 317.13 313.64 317.46 320.33 317.23 327.00 C 316.62 330.61 316.59 334.26 316.42 337.90 C 315.24 342.86 310.34 345.68 308.16 350.05 C 307.33 355.30 307.37 360.79 308.74 365.97 C 309.43 368.90 309.02 372.01 310.01 374.89 C 310.94 377.41 311.08 380.15 310.90 382.82 C 309.86 384.16 308.75 385.44 307.82 386.87 C 309.04 385.84 310.23 384.77 311.62 383.98 C 312.02 389.63 317.41 392.81 319.01 397.97 C 319.82 401.28 319.97 404.72 320.92 408.00 C 321.58 410.30 322.19 412.64 322.33 415.06 C 322.54 419.05 323.50 422.99 323.30 427.00 C 323.34 429.11 322.98 431.33 323.66 433.38 C 324.64 434.72 326.26 435.38 327.55 436.38 C 331.21 439.12 334.44 442.40 337.24 446.01 C 338.94 445.97 340.41 444.24 339.46 442.62 C 337.60 439.82 334.97 437.64 332.51 435.39 C 330.77 433.70 328.38 432.86 326.78 431.03 C 325.72 427.47 326.67 423.68 326.16 420.04 C 325.40 415.37 325.58 410.54 324.10 406.01 C 323.01 402.70 322.94 399.18 322.22 395.80 C 320.80 391.89 317.86 388.81 315.69 385.33 C 314.90 383.68 314.38 381.28 315.98 379.93 C 318.11 377.74 320.26 375.55 322.17 373.15 C 325.25 369.61 326.81 365.11 328.98 361.02 C 331.14 356.17 334.19 351.46 334.23 345.97 C 334.38 340.32 334.29 334.66 334.31 329.00 C 334.52 325.10 331.68 321.86 331.75 318.00 C 331.81 311.36 330.73 304.63 331.98 298.05 C 334.01 297.70 336.15 297.76 338.10 297.01 C 345.22 295.72 352.51 292.87 357.09 287.02 C 359.58 284.02 360.53 280.03 360.30 276.19 C 359.42 276.94 358.68 277.85 358.19 278.91 C 356.32 282.55 353.83 286.07 350.18 288.10 C 344.89 291.27 338.75 292.62 332.66 292.99 C 333.86 290.22 337.33 290.03 339.72 288.75 C 346.00 285.64 350.14 279.71 354.54 274.48 C 355.92 272.76 358.13 271.46 358.27 269.04 L 357.69 269.54 C 354.23 264.58 348.21 260.92 342.01 261.80 C 337.62 262.21 333.84 264.61 330.01 266.56 C 331.98 263.81 334.47 261.14 337.88 260.31 C 344.92 258.27 351.87 261.54 358.75 262.70 C 355.42 256.68 347.72 252.96 341.08 255.55 C 329.93 259.49 321.79 268.52 313.67 276.68 M 506.94 263.89 C 519.38 293.14 539.04 318.57 559.48 342.64 C 563.61 347.33 567.45 352.28 571.88 356.71 C 551.14 325.68 525.38 297.89 508.74 264.23 C 508.29 264.14 507.39 263.97 506.94 263.89 M 295.62 287.94 C 290.83 289.28 286.01 291.40 280.91 290.58 C 277.83 290.02 275.20 292.17 272.53 293.35 C 270.95 294.25 268.23 296.09 269.69 298.16 C 271.20 298.88 272.53 297.60 273.90 297.17 C 283.72 292.50 295.66 294.96 304.91 288.77 C 304.84 288.45 304.71 287.82 304.64 287.50 C 301.65 286.97 298.55 287.15 295.62 287.94 M 304.37 291.49 C 301.72 292.67 299.35 294.50 296.50 295.21 C 292.37 296.25 287.97 296.83 284.42 299.37 C 282.43 300.40 282.00 302.75 281.38 304.69 C 285.04 303.47 288.41 301.51 292.11 300.37 C 298.61 297.99 305.48 296.39 311.53 292.94 C 310.41 290.11 306.65 290.29 304.37 291.49 M 381.60 319.87 C 376.94 322.19 372.53 325.21 368.99 329.04 C 368.23 332.15 369.69 335.41 370.97 338.22 C 372.60 341.06 374.01 344.10 376.14 346.61 C 381.47 348.25 387.58 349.72 392.85 347.07 C 390.14 341.94 383.60 344.60 379.10 343.42 C 373.28 340.80 371.51 331.78 376.51 327.50 C 379.92 323.84 385.08 323.16 389.72 322.25 C 388.75 319.11 384.26 318.41 381.60 319.87 M 362.25 326.17 C 352.72 331.66 345.99 341.04 342.09 351.17 C 334.23 371.56 333.48 394.92 341.38 415.42 C 344.14 421.95 347.85 428.05 351.73 433.96 C 352.75 430.44 352.07 426.66 350.29 423.51 C 345.02 413.70 340.34 403.20 339.34 391.99 C 339.26 377.46 342.78 363.11 347.89 349.58 C 350.12 344.49 352.32 339.19 356.22 335.12 C 358.01 333.20 360.50 332.19 362.52 330.56 C 364.01 329.29 364.18 327.14 364.56 325.36 C 363.98 325.56 362.83 325.97 362.25 326.17 M 260.32 330.54 C 257.56 334.46 256.35 339.26 255.35 343.89 C 252.43 358.12 254.63 372.66 254.87 387.01 C 254.77 390.29 257.01 392.95 258.17 395.87 C 261.48 402.78 264.52 410.51 271.00 415.08 C 269.52 411.68 267.30 408.67 265.85 405.26 C 256.96 386.12 255.92 364.25 258.83 343.61 C 259.21 339.00 260.72 334.55 260.81 329.92 L 260.32 330.54 M 409.44 331.73 C 404.85 332.93 400.29 334.67 396.40 337.42 C 394.29 339.83 391.27 342.82 392.73 346.31 C 393.66 345.70 394.52 345.00 395.30 344.21 C 399.97 339.37 406.26 336.07 412.93 335.17 C 415.67 334.77 418.70 334.46 421.24 335.83 C 423.04 336.94 423.94 338.95 425.25 340.55 L 425.95 340.40 C 427.03 337.93 428.64 334.13 425.73 332.31 C 420.59 330.17 414.77 330.53 409.44 331.73 M 186.89 333.80 C 186.36 335.76 185.79 337.73 184.72 339.48 C 181.73 344.42 181.34 350.70 183.33 356.08 C 185.08 360.96 188.46 365.06 192.17 368.61 C 193.19 369.50 194.16 370.59 195.54 370.93 C 195.60 369.41 195.66 367.89 195.41 366.39 C 193.68 364.50 191.34 363.29 189.58 361.43 C 187.11 359.00 185.18 355.64 185.45 352.08 C 186.25 346.17 188.47 340.58 189.59 334.74 C 188.92 334.51 187.56 334.04 186.89 333.80 M 156.54 346.46 C 152.34 351.05 148.38 356.32 147.54 362.68 C 150.07 362.37 151.64 359.99 153.29 358.30 C 155.26 356.25 156.22 353.43 158.04 351.32 C 159.66 352.01 160.49 353.85 161.64 355.13 C 164.49 358.98 168.03 363.69 173.47 362.98 L 174.00 362.10 C 168.92 356.18 162.69 351.33 157.92 345.12 C 157.58 345.46 156.89 346.12 156.54 346.46 M 586.03 351.83 C 585.03 359.88 582.68 367.73 578.96 374.95 C 568.82 395.30 551.58 411.68 544.38 433.56 C 537.56 458.21 523.71 480.39 518.30 505.48 C 517.55 509.04 516.66 512.62 516.85 516.29 C 519.64 515.46 521.06 512.74 522.26 510.33 C 523.85 506.60 524.40 502.54 525.77 498.74 C 531.33 479.86 541.23 462.58 546.40 443.57 C 547.48 439.42 548.88 435.36 550.68 431.46 C 561.02 408.54 578.72 389.81 588.53 366.61 C 590.41 361.88 592.24 357.06 593.01 352.01 C 590.69 351.68 588.34 351.48 586.03 351.83 M 434.87 356.66 C 418.03 362.85 399.85 365.83 384.23 375.05 C 376.97 378.94 369.78 383.29 364.14 389.38 C 359.82 394.00 355.46 398.76 352.67 404.50 C 351.42 407.12 350.32 410.01 350.74 412.98 C 351.39 418.32 354.75 422.84 358.45 426.54 C 365.98 434.35 375.06 440.55 384.80 445.28 C 388.87 447.32 393.48 448.08 398.01 448.15 C 409.76 447.95 421.41 445.70 432.61 442.21 C 433.83 443.42 434.97 445.28 436.96 445.14 C 438.71 445.12 441.31 445.33 442.01 443.25 C 441.01 442.19 440.31 440.99 440.47 439.49 C 450.14 435.88 459.78 431.46 467.53 424.49 C 470.96 421.19 474.30 417.31 475.24 412.50 C 476.65 404.90 474.05 396.95 476.86 389.55 C 478.57 384.81 479.46 379.32 476.48 374.88 C 477.39 372.52 479.20 370.55 479.77 368.04 C 481.05 364.41 479.29 360.59 477.13 357.69 C 474.12 354.19 469.29 353.22 464.93 352.73 C 454.79 351.98 444.41 353.05 434.87 356.66 M 178.46 362.41 C 176.61 365.26 175.00 368.51 175.17 372.01 C 175.28 380.37 179.87 387.87 185.02 394.14 C 185.70 395.10 186.88 395.95 186.64 397.28 C 182.63 397.06 178.84 395.65 174.96 394.78 C 171.95 394.14 168.99 395.47 166.28 396.61 C 166.32 396.77 166.41 397.09 166.45 397.25 C 174.77 400.50 183.98 402.75 192.86 400.52 C 192.96 397.83 191.04 395.65 189.55 393.60 C 185.83 388.75 180.43 384.48 179.76 377.99 C 179.55 372.75 181.21 367.38 179.43 362.26 C 179.19 362.29 178.71 362.37 178.46 362.41 M 100.37 364.48 C 98.41 366.93 98.75 370.44 97.39 373.21 C 102.80 376.47 108.49 379.26 113.87 382.60 C 112.48 379.91 111.11 377.16 108.92 375.03 C 107.66 373.93 109.24 371.48 107.56 370.75 C 104.62 369.28 103.32 366.07 100.91 364.05 L 100.37 364.48 M 132.57 365.35 C 131.61 369.74 132.35 374.36 134.29 378.39 C 137.33 384.67 141.60 390.59 147.55 394.42 C 151.24 397.14 156.18 399.27 160.75 397.70 C 153.37 393.60 146.10 388.83 140.95 382.01 C 136.99 377.20 135.07 371.19 133.33 365.33 C 133.14 365.33 132.76 365.34 132.57 365.35 M 126.79 366.52 C 125.45 374.02 128.18 381.58 132.23 387.81 C 135.12 392.20 138.47 396.46 142.90 399.41 C 145.72 401.19 149.50 402.28 152.67 400.77 C 147.75 398.18 142.79 395.18 139.58 390.50 C 133.66 383.48 129.83 374.96 127.34 366.17 C 127.20 366.26 126.93 366.44 126.79 366.52 M 88.68 384.80 C 86.42 386.11 85.57 388.71 84.06 390.69 C 82.90 393.81 79.91 396.28 80.29 399.87 C 83.74 395.61 84.80 390.05 87.90 385.58 L 88.83 385.64 C 100.07 389.47 110.01 397.72 114.47 408.90 C 115.02 404.87 116.67 401.07 117.02 397.02 C 117.40 393.76 115.06 390.55 111.84 389.96 C 104.22 387.88 96.53 385.71 88.68 384.80 M 300.25 392.76 C 299.02 394.38 298.15 396.26 296.87 397.85 C 294.44 399.72 291.34 400.81 289.60 403.49 C 286.22 408.10 282.02 412.00 277.93 415.97 C 275.70 418.60 272.88 421.34 272.79 425.02 C 272.86 429.34 273.22 433.71 274.68 437.82 C 273.88 438.73 272.99 439.55 272.19 440.47 C 272.27 442.71 275.27 444.90 277.18 443.15 C 278.89 441.99 278.34 439.76 278.35 438.02 C 278.37 435.21 276.39 432.89 276.33 430.10 C 276.11 426.53 275.19 422.60 277.17 419.35 C 279.29 414.67 283.64 411.71 287.09 408.10 C 289.44 406.05 290.56 402.82 293.39 401.29 C 295.85 399.94 298.09 398.20 300.62 396.99 C 300.94 397.19 301.58 397.59 301.90 397.80 C 302.55 400.80 303.78 403.64 304.70 406.58 C 308.33 417.10 312.29 427.83 319.50 436.49 C 327.25 445.20 336.61 452.22 345.38 459.84 C 353.09 466.36 359.81 473.93 367.04 480.96 C 373.01 486.63 379.80 491.95 387.97 493.89 C 386.21 491.95 384.19 490.29 382.22 488.58 C 367.12 475.43 352.87 461.35 338.10 447.84 C 331.00 441.29 322.27 436.19 317.15 427.76 C 312.02 419.04 309.66 409.10 306.79 399.49 C 305.94 396.60 304.75 393.82 304.08 390.89 C 304.96 389.63 306.04 388.54 306.99 387.35 C 306.00 388.24 305.04 389.16 304.03 390.03 C 302.98 389.08 302.33 387.86 302.07 386.37 C 300.57 388.02 297.82 390.68 300.25 392.76 M 326.55 393.71 C 326.06 394.02 325.09 394.62 324.61 394.93 C 324.67 396.95 325.54 398.83 326.14 400.74 C 329.48 410.82 334.06 420.43 338.93 429.84 C 342.92 437.90 347.91 445.41 353.14 452.70 C 360.74 463.26 369.87 473.00 381.18 479.64 C 387.64 483.50 395.14 485.85 402.71 485.51 C 399.58 480.09 392.69 478.89 387.13 477.31 C 379.08 475.41 372.13 470.41 366.55 464.46 C 361.82 459.47 357.64 453.99 353.64 448.41 C 342.69 431.33 333.20 412.99 328.50 393.14 C 328.01 393.28 327.03 393.57 326.55 393.71 M 667.34 398.20 C 664.82 399.81 664.30 403.18 664.46 405.95 C 664.87 411.17 667.04 416.07 669.40 420.68 C 671.20 421.44 672.46 419.37 673.22 418.05 C 675.59 412.49 674.35 405.84 671.13 400.88 C 670.14 399.75 669.02 398.05 667.34 398.20 M 498.21 403.20 L 497.87 404.04 L 498.22 404.87 L 499.05 405.21 L 499.87 404.87 L 500.21 404.04 L 499.87 403.21 L 499.05 402.86 L 498.21 403.20 M 492.25 422.54 C 491.68 424.64 491.86 426.84 491.80 429.00 C 491.87 431.50 491.42 434.19 492.71 436.49 C 496.06 443.44 501.15 449.49 503.62 456.88 C 505.97 464.19 505.74 472.24 503.21 479.48 C 500.06 488.65 494.21 496.53 488.40 504.17 C 486.67 506.61 483.44 506.95 480.88 508.08 C 464.78 514.12 447.48 518.70 430.18 516.23 C 420.86 514.62 412.44 509.70 402.98 508.66 C 404.90 510.98 407.59 512.42 410.16 513.91 C 420.12 519.41 431.75 521.36 443.03 520.70 C 453.20 520.10 463.21 517.78 472.87 514.60 C 475.89 513.71 478.77 511.70 482.04 512.60 C 484.91 511.31 487.57 509.58 490.45 508.29 C 493.87 504.84 494.82 499.70 498.21 496.20 C 498.59 496.58 499.33 497.34 499.71 497.71 C 498.39 494.62 501.59 492.74 502.50 490.08 C 504.47 485.44 509.41 482.26 509.77 476.93 C 510.34 464.26 505.55 452.15 499.99 441.01 C 498.90 438.72 497.38 436.59 496.89 434.07 C 496.74 431.52 496.97 428.97 496.90 426.42 C 496.19 426.48 494.77 426.60 494.07 426.66 C 493.03 425.25 492.77 423.53 492.42 421.88 L 492.25 422.54 M 85.46 435.74 C 81.36 437.86 77.15 442.73 79.39 447.58 C 86.75 451.18 96.61 442.79 94.05 434.97 C 91.27 433.66 88.06 434.36 85.46 435.74 M 238.90 435.06 C 239.49 438.52 241.50 442.02 244.92 443.34 C 245.01 440.62 245.02 437.89 244.68 435.19 C 242.76 434.91 240.82 434.93 238.90 435.06 M 106.18 446.00 C 100.12 448.66 95.99 454.03 91.33 458.50 C 87.53 462.41 82.52 464.80 78.51 468.48 C 74.88 471.79 71.23 475.31 68.98 479.75 C 71.11 479.05 73.59 478.88 75.40 477.44 C 77.22 474.94 78.90 472.31 81.20 470.21 C 89.91 461.42 102.38 456.42 108.73 445.36 C 108.09 445.52 106.82 445.84 106.18 446.00 M 224.05 450.18 C 226.45 457.86 232.02 465.40 240.17 467.45 C 243.21 467.71 243.23 471.29 244.41 473.43 C 259.38 508.32 283.91 537.89 308.78 566.15 C 307.47 563.29 305.48 560.85 303.72 558.28 C 286.04 533.23 265.80 509.85 251.01 482.85 C 249.49 479.95 247.78 477.12 246.57 474.07 C 246.82 469.62 248.57 465.34 248.45 460.86 C 243.98 461.39 239.77 463.12 235.35 463.86 C 231.73 459.18 228.28 454.34 224.05 450.18 M 208.66 463.52 C 207.04 467.90 206.05 472.56 204.78 477.07 C 206.41 480.15 208.50 482.98 209.86 486.23 C 210.80 489.13 213.93 490.15 216.12 491.92 C 219.86 494.39 223.79 497.47 228.45 497.55 C 226.39 493.42 223.75 489.61 221.66 485.50 C 221.72 481.42 220.43 477.43 217.95 474.18 C 215.14 470.55 212.69 466.65 209.81 463.08 C 209.52 463.19 208.95 463.41 208.66 463.52 M 116.21 479.85 C 107.30 489.73 95.95 497.03 87.11 506.98 C 84.79 509.67 82.46 512.45 81.01 515.73 C 94.42 503.24 108.82 491.89 123.00 480.32 C 120.82 480.22 118.09 478.52 116.21 479.85 M 151.25 482.98 C 158.76 497.15 162.58 513.18 162.90 529.19 C 160.49 529.52 158.03 529.48 155.62 529.18 C 154.53 525.35 154.90 521.32 154.44 517.41 C 152.46 515.50 149.28 517.62 148.97 520.01 C 146.33 535.86 145.11 552.08 147.13 568.09 C 147.78 571.26 149.61 574.04 151.15 576.85 C 158.46 588.64 170.12 596.62 180.34 605.66 C 182.93 608.40 186.90 608.61 190.39 609.20 C 189.00 606.51 186.76 604.45 184.67 602.33 C 176.68 594.23 167.09 587.95 158.95 580.02 C 155.30 575.80 153.64 570.24 152.59 564.86 C 150.80 553.65 152.68 542.31 152.37 531.03 C 156.07 536.13 158.20 542.15 161.24 547.63 L 161.83 547.87 C 167.92 529.70 168.23 509.58 162.84 491.20 C 162.42 489.97 162.17 488.66 161.42 487.60 C 158.15 485.82 154.78 484.17 151.25 482.98 M 356.84 526.20 C 359.97 528.77 363.94 530.02 367.74 531.26 C 376.38 533.57 385.33 534.70 393.75 537.85 C 391.25 534.75 388.45 531.77 384.85 529.97 C 376.32 525.41 366.23 525.35 356.84 526.20 M 440.48 539.71 C 432.81 543.14 428.87 551.74 428.30 559.75 C 431.05 559.85 433.03 557.49 434.66 555.58 C 436.52 553.39 436.81 550.45 437.81 547.86 C 440.56 544.55 444.44 542.38 447.12 538.99 C 444.89 538.86 442.58 538.86 440.48 539.71 M 167.15 557.01 C 168.33 568.14 174.11 578.31 181.59 586.45 C 191.51 597.18 204.00 605.05 216.46 612.51 C 219.68 614.37 222.77 616.48 226.12 618.13 C 224.81 616.06 222.82 614.59 221.01 613.02 C 215.57 608.37 209.71 604.24 203.78 600.24 C 198.28 596.46 192.48 593.02 187.78 588.23 C 178.67 579.50 172.42 568.34 167.15 557.01 M 430.75 567.17 L 430.66 567.05 C 434.03 585.84 438.58 604.87 436.47 624.09 C 436.20 627.71 434.43 630.94 432.98 634.19 C 428.26 644.57 422.87 654.63 418.43 665.13 C 417.14 668.26 415.68 671.35 415.01 674.69 C 416.92 673.00 418.93 671.41 420.85 669.73 C 421.93 667.67 422.28 665.34 423.12 663.19 C 426.58 654.03 432.39 645.94 435.33 636.56 C 442.45 616.25 441.09 593.59 433.64 573.57 C 432.75 571.41 432.20 569.04 430.75 567.17 M 527.49 652.61 C 520.25 659.28 514.03 666.99 506.87 673.73 C 504.23 673.77 501.62 673.35 499.00 673.36 C 483.14 673.16 467.88 678.94 452.02 678.60 C 447.29 678.51 442.63 677.67 438.11 676.32 C 443.56 680.23 450.36 681.83 456.98 681.99 C 474.25 682.22 490.76 673.73 508.14 676.43 C 509.66 677.04 510.47 675.35 511.36 674.49 C 517.22 667.39 523.18 660.30 527.82 652.31 L 527.49 652.61 M 311.08 671.18 C 316.07 678.20 324.50 681.36 331.98 684.97 C 334.26 685.91 336.34 687.68 338.93 687.62 C 350.92 687.84 362.92 689.38 374.91 688.22 C 382.68 687.48 390.45 685.37 397.09 681.18 C 393.33 681.53 389.68 682.54 385.95 683.10 C 368.80 685.91 350.93 686.21 334.10 681.43 C 325.92 679.27 318.35 675.42 311.08 671.18 Z" />
<path fill="#ffffff" opacity="1.00" d=" M 445.47 264.64 C 447.67 267.40 450.47 269.56 453.01 271.99 C 455.61 274.42 459.05 275.86 461.29 278.71 C 464.19 282.15 467.23 285.48 470.63 288.45 C 472.09 289.57 472.59 291.42 472.19 293.19 C 470.01 293.62 468.53 291.26 466.96 290.09 C 464.22 286.99 459.94 285.95 457.26 282.83 C 455.23 280.49 452.59 278.78 450.68 276.34 C 447.90 272.81 444.79 269.56 442.14 265.93 C 443.26 265.53 444.37 265.10 445.47 264.64 Z" />
<path fill="#ffffff" opacity="1.00" d=" M 320.27 308.01 C 319.88 303.62 321.77 299.54 322.57 295.32 C 322.30 298.57 326.66 297.44 328.74 297.76 C 328.78 301.51 328.16 305.24 328.24 309.00 C 328.33 313.01 328.62 317.02 328.56 321.04 C 328.27 324.32 331.21 326.74 331.19 330.00 C 331.45 335.65 331.22 341.33 331.29 347.00 C 331.35 354.87 326.61 361.47 323.53 368.39 C 322.10 371.77 319.61 374.50 317.36 377.34 C 316.55 378.31 315.57 379.94 314.06 379.21 C 313.95 374.39 312.21 369.82 312.01 365.01 C 310.88 359.39 309.87 353.47 311.49 347.84 C 313.80 343.86 317.25 340.59 319.42 336.54 C 320.34 327.07 320.44 317.53 320.27 308.01 Z" />
</g>
<g id="#040707ff">
<path fill="#040707" opacity="1.00" d=" M 320.36 42.26 C 320.67 42.22 321.29 42.15 321.61 42.11 C 322.52 44.52 321.94 47.68 323.61 49.67 C 326.93 47.77 330.55 45.61 334.56 46.40 C 334.76 48.82 334.53 51.25 334.43 53.68 C 337.59 51.37 340.04 48.08 343.58 46.33 C 344.30 49.09 343.74 51.92 343.48 54.70 C 346.23 53.14 348.81 51.25 351.75 50.05 C 353.02 52.66 352.01 55.39 351.63 58.06 C 351.23 59.66 352.58 60.89 353.88 61.51 C 356.21 59.42 358.36 57.08 361.06 55.42 L 361.93 55.82 C 363.08 58.96 362.70 62.35 362.81 65.62 C 366.18 64.85 368.71 62.09 372.04 61.08 C 374.49 60.93 373.34 64.02 373.88 65.49 C 377.10 64.02 380.61 64.12 384.05 64.25 C 385.72 64.47 387.41 63.23 389.00 63.91 C 390.05 65.36 390.38 67.41 391.88 68.48 C 394.69 68.02 397.39 67.02 400.21 66.57 C 401.72 69.13 402.47 72.11 404.42 74.40 C 405.91 72.89 404.98 70.00 406.27 68.18 C 406.59 68.23 407.22 68.33 407.53 68.38 C 411.61 75.26 416.56 81.54 421.43 87.86 C 422.99 89.61 421.26 92.05 421.98 94.10 C 423.10 99.25 428.10 102.27 429.96 107.01 C 427.78 109.96 424.77 112.16 422.66 115.16 C 424.87 117.86 429.32 119.83 428.82 123.88 C 426.72 125.13 424.27 124.38 421.99 124.37 C 424.30 126.03 428.25 126.78 428.30 130.25 C 426.00 131.34 423.46 130.58 421.07 130.39 C 424.28 132.27 427.66 134.13 429.93 137.19 C 428.67 137.91 427.30 138.34 426.03 138.99 C 429.84 141.56 435.10 142.54 437.52 146.85 C 436.95 148.59 436.18 150.27 435.69 152.04 C 438.38 154.65 441.43 156.93 443.80 159.88 C 443.49 160.44 442.89 161.58 442.59 162.14 C 445.06 165.76 449.42 167.47 452.02 170.98 C 455.85 176.02 457.51 182.25 460.26 187.87 C 462.40 192.12 464.03 197.05 468.07 199.92 C 472.06 200.74 476.06 201.54 479.93 202.84 C 507.79 209.14 537.20 210.18 563.48 222.30 C 590.24 235.45 606.56 262.03 631.21 278.08 C 633.16 279.40 634.34 281.51 635.74 283.36 C 657.55 313.52 673.02 347.53 691.26 379.83 C 692.45 382.08 694.33 384.25 694.02 386.97 C 693.82 409.00 695.19 431.05 693.74 453.05 C 693.56 455.28 693.57 457.59 692.83 459.73 C 672.72 512.74 644.47 562.77 608.48 606.63 C 596.30 621.44 587.38 638.75 581.38 656.91 C 581.06 657.95 580.00 658.44 579.21 659.06 C 565.37 667.98 550.50 675.41 537.73 685.90 C 528.89 693.01 518.91 699.57 507.45 701.14 C 474.53 704.35 441.35 706.25 408.92 713.15 C 403.32 713.90 397.64 713.34 392.01 713.48 C 364.32 712.55 336.60 714.91 308.94 712.87 C 306.13 712.60 303.22 712.71 300.57 711.63 C 283.31 704.58 266.09 697.36 248.28 691.81 C 228.06 686.40 209.86 675.26 193.60 662.32 C 162.25 637.11 138.17 604.45 109.20 576.77 C 106.16 573.79 102.66 571.36 99.49 568.55 C 81.55 553.14 66.56 534.77 50.68 517.35 C 48.96 515.39 46.76 513.63 46.05 511.00 C 41.15 496.12 42.35 480.10 44.80 464.88 C 45.68 460.20 46.23 455.44 47.60 450.88 C 58.23 420.41 66.00 388.43 65.42 355.97 C 65.79 330.96 74.70 307.00 75.53 282.03 C 75.68 274.99 76.04 267.95 76.89 260.96 C 77.32 258.30 76.79 255.62 76.84 252.95 C 76.86 250.30 77.65 247.73 77.92 245.11 C 77.13 242.63 75.63 240.42 75.14 237.84 C 73.70 231.29 75.02 224.57 76.34 218.12 C 77.67 211.45 77.66 204.44 75.58 197.92 C 74.87 196.33 76.20 194.88 76.69 193.45 C 81.33 183.38 81.23 171.69 86.90 162.01 C 89.63 156.91 94.28 153.27 98.94 150.04 C 102.22 148.13 102.91 144.12 105.12 141.30 C 107.05 138.41 110.52 137.29 113.00 135.00 C 114.84 131.65 114.98 127.67 116.38 124.15 C 118.08 122.18 120.32 120.78 122.26 119.08 C 134.00 109.11 145.71 98.98 158.84 90.84 C 166.90 85.08 176.06 81.16 185.14 77.32 C 186.21 76.79 187.46 76.47 188.32 75.60 C 188.97 73.77 189.18 71.79 190.00 70.02 C 192.64 68.10 196.09 68.02 199.09 66.93 C 209.97 63.19 218.17 54.26 229.09 50.59 C 232.75 49.29 236.87 50.05 240.38 48.23 C 242.48 47.08 244.83 48.33 247.06 48.33 C 260.61 49.33 273.34 41.95 286.92 43.56 C 290.07 43.73 292.87 45.42 295.95 45.86 C 299.28 45.69 302.65 45.17 305.96 45.88 C 308.67 46.23 311.31 47.35 314.07 47.21 C 316.71 46.37 318.35 44.02 320.36 42.26 M 371.96 123.02 C 366.93 123.30 362.17 125.24 358.14 128.20 C 353.04 131.94 346.82 133.45 340.93 135.45 C 332.59 137.83 323.94 140.72 315.17 139.09 C 312.91 138.10 310.37 138.18 307.98 137.79 C 305.01 137.52 301.91 136.80 299.00 137.77 C 292.53 139.37 286.62 142.50 280.87 145.79 C 274.84 149.30 268.20 151.70 261.37 153.06 C 251.84 154.80 241.85 154.77 232.81 158.60 C 229.74 159.67 227.66 162.35 226.00 165.00 C 221.66 172.40 221.12 181.70 215.29 188.28 C 212.68 191.47 208.70 193.11 206.04 196.23 C 205.09 197.58 203.83 199.47 205.10 201.07 C 210.84 211.87 220.60 220.72 223.20 233.04 C 221.37 238.58 218.35 243.62 216.40 249.11 C 210.90 263.24 207.99 278.79 210.62 293.88 C 212.16 304.18 216.53 313.79 221.53 322.84 C 222.36 324.41 223.52 325.87 223.87 327.65 C 218.40 331.77 212.00 334.42 206.45 338.42 C 205.42 339.05 204.45 340.07 203.15 340.01 C 199.52 337.18 196.14 333.99 192.14 331.66 C 181.79 325.46 169.68 323.38 157.90 321.82 C 154.87 321.67 152.66 319.45 150.29 317.86 C 145.10 314.15 139.52 310.35 132.98 309.81 C 121.56 309.52 110.88 317.49 107.02 328.09 C 103.07 338.93 105.37 351.39 111.66 360.88 C 110.64 356.22 109.59 351.57 108.51 346.92 C 108.03 344.60 106.80 342.40 106.79 340.00 C 108.28 336.50 109.97 333.06 111.65 329.64 C 116.18 325.58 121.69 322.45 127.57 320.83 C 135.14 318.84 143.09 321.21 149.58 325.20 C 152.40 327.02 155.47 328.65 157.65 331.28 C 148.51 331.39 141.09 324.51 132.02 324.11 C 125.93 323.72 120.30 326.93 115.86 330.81 C 112.91 333.29 112.16 337.36 111.95 341.01 C 111.89 346.85 113.55 352.51 114.86 358.15 C 115.73 361.75 115.90 365.46 116.43 369.12 C 116.70 372.01 118.84 374.18 120.31 376.53 C 126.17 385.69 130.93 395.49 136.36 404.90 C 137.86 407.58 139.37 410.32 141.57 412.51 C 145.57 416.60 150.68 419.30 155.59 422.12 C 162.53 426.01 169.87 429.66 177.87 430.65 C 187.55 432.33 197.34 428.66 205.32 423.35 C 206.92 423.94 208.10 426.85 207.45 428.38 C 200.57 432.36 192.43 432.57 185.05 435.14 C 180.70 435.15 176.03 435.97 171.89 434.34 C 164.65 429.71 155.99 428.10 148.64 423.67 C 140.73 419.29 135.69 411.41 131.24 403.81 C 124.33 392.23 118.03 380.28 110.95 368.80 C 107.86 362.88 104.94 356.77 103.40 350.24 C 99.80 356.79 95.34 362.80 91.45 369.17 C 85.83 381.37 77.20 391.98 72.34 404.56 C 68.48 412.47 68.84 421.50 66.46 429.85 C 60.92 450.49 53.34 471.24 54.71 492.95 C 55.23 498.03 55.27 503.55 58.26 507.93 C 62.96 515.61 70.13 521.24 76.32 527.64 C 79.50 530.86 82.12 534.56 85.10 537.96 C 101.41 556.68 122.20 570.83 138.57 589.49 C 141.90 593.18 144.75 597.26 148.03 600.99 C 159.82 614.51 174.37 625.47 185.09 639.94 C 186.80 642.13 187.97 644.92 190.51 646.33 C 205.12 655.31 223.55 657.36 239.97 652.71 C 238.67 647.00 234.13 642.75 229.60 639.39 C 222.86 634.24 214.53 630.94 209.16 624.16 C 220.36 630.30 230.26 638.61 241.81 644.14 C 242.14 644.35 242.79 644.76 243.12 644.97 C 243.08 647.63 242.39 650.59 244.05 652.94 C 246.94 657.14 252.31 658.26 256.91 659.55 C 262.74 661.17 269.27 661.83 274.07 665.84 C 271.08 666.38 267.98 666.06 265.11 665.10 C 258.44 662.93 252.09 659.71 245.13 658.51 C 233.29 656.41 221.25 657.87 209.32 657.84 C 212.04 661.98 216.29 664.86 220.43 667.46 C 229.79 672.89 240.27 675.91 250.45 679.39 C 269.38 685.67 287.64 693.78 306.44 700.42 C 308.23 701.05 310.14 701.21 312.03 701.28 C 339.00 702.33 365.99 701.32 392.97 701.68 C 397.01 701.80 401.07 702.09 405.10 701.63 C 414.85 700.59 424.14 696.96 433.95 696.26 C 457.40 695.36 480.72 692.53 504.11 690.69 C 507.25 690.49 510.06 688.95 512.87 687.69 C 530.13 679.40 543.28 664.66 560.56 656.41 C 564.43 654.60 568.17 652.24 570.81 648.81 C 573.28 645.82 574.19 641.97 575.62 638.45 C 583.00 620.04 594.18 603.26 607.75 588.83 C 610.17 586.24 612.14 583.28 614.18 580.39 C 636.52 548.79 656.10 515.15 671.42 479.57 C 673.06 475.86 674.37 471.99 676.52 468.53 C 681.00 461.10 683.28 452.53 684.11 443.94 C 685.64 428.64 683.39 413.32 683.52 398.01 C 683.44 395.63 684.05 393.09 682.98 390.86 C 672.54 367.26 657.35 346.18 646.21 322.93 C 639.26 311.02 633.56 298.13 624.09 287.91 C 619.95 283.26 614.60 280.00 609.85 276.05 C 595.36 264.35 582.34 251.00 568.90 238.15 C 567.36 236.43 565.00 236.11 562.93 235.43 C 549.75 231.42 537.42 224.81 523.91 221.83 C 517.56 220.26 510.97 220.39 504.57 219.22 C 493.43 217.37 482.41 214.85 471.35 212.60 C 470.51 219.21 471.33 226.21 475.05 231.88 C 473.34 233.39 471.28 234.43 469.33 235.58 C 469.15 233.39 469.34 231.02 468.04 229.12 C 464.49 223.21 458.04 220.11 452.15 217.05 C 450.61 216.09 448.73 216.50 447.03 216.33 C 442.06 216.23 437.48 213.57 432.50 213.71 C 430.72 214.42 429.28 215.74 427.78 216.89 C 418.40 224.27 411.15 234.35 407.19 245.60 C 419.41 239.24 432.85 233.52 446.95 234.75 C 453.44 235.05 459.54 237.64 465.07 240.90 C 468.16 242.40 469.86 245.84 470.53 249.05 C 471.13 250.89 468.81 251.39 467.58 251.90 C 466.80 249.64 466.46 247.13 464.88 245.25 C 463.57 243.33 461.42 242.33 459.38 241.41 C 460.31 244.33 462.60 246.80 462.71 249.98 C 462.36 250.89 461.67 252.72 461.32 253.63 C 462.27 253.55 464.16 253.39 465.10 253.31 C 463.73 254.60 462.01 255.37 460.13 255.43 C 457.04 258.55 453.69 261.41 449.73 263.39 C 448.88 262.43 448.14 261.37 447.21 260.50 C 451.93 258.00 455.78 254.14 458.70 249.70 C 458.86 249.28 459.17 248.43 459.33 248.00 C 452.23 246.99 445.20 245.12 437.99 245.29 C 428.32 244.85 419.10 249.93 412.56 256.77 L 412.05 256.38 C 412.72 257.54 413.50 258.66 414.62 259.45 C 418.99 262.75 424.51 264.45 429.98 264.37 C 431.89 264.34 433.81 264.33 435.71 264.59 C 436.20 265.16 437.16 266.28 437.64 266.84 C 431.81 267.76 425.91 268.34 420.01 268.53 C 417.76 268.60 415.97 266.99 414.38 265.62 C 411.75 263.17 408.93 260.77 407.25 257.53 C 404.02 251.56 404.14 244.14 406.91 238.01 C 411.51 226.49 420.54 217.68 428.82 208.77 C 419.13 204.50 408.94 201.27 398.55 199.22 C 395.13 193.18 390.00 188.42 384.64 184.12 C 384.17 183.69 382.81 182.72 383.98 182.21 C 391.47 179.19 399.83 177.94 407.84 179.41 C 417.98 181.19 427.85 184.86 438.25 184.94 C 438.53 182.85 437.82 180.72 436.97 178.84 C 434.55 174.72 432.61 170.33 429.80 166.45 C 427.33 161.64 423.31 157.95 420.30 153.52 C 417.80 149.87 414.84 146.57 412.37 142.90 C 403.17 130.38 387.75 121.70 371.96 123.02 Z" />
<path fill="#040707" opacity="1.00" d=" M 314.24 293.80 C 316.06 293.56 317.92 293.52 319.75 293.77 C 319.72 294.73 319.65 295.69 319.54 296.65 C 317.66 295.93 315.73 295.18 314.24 293.80 Z" />
</g>
<g id="#787979ff">
<path fill="#787979" opacity="1.00" d=" M 299.00 137.77 C 301.91 136.80 305.01 137.52 307.98 137.79 C 310.37 138.18 312.91 138.10 315.17 139.09 C 311.90 138.82 308.55 138.18 305.32 139.00 C 304.22 139.18 303.14 139.63 302.03 139.51 C 300.97 139.01 300.01 138.34 299.00 137.77 Z" />
</g>
<g id="#060809ff">
<path fill="#060809" opacity="1.00" d=" M 397.80 136.93 C 399.70 137.32 401.68 137.72 403.36 138.76 C 404.06 142.16 405.88 145.28 408.81 147.21 C 410.95 148.46 411.89 151.07 411.40 153.47 C 408.81 151.71 407.18 148.96 405.11 146.68 C 402.61 143.48 399.74 140.52 397.80 136.93 Z" />
<path fill="#060809" opacity="1.00" d=" M 167.15 557.01 C 172.42 568.34 178.67 579.50 187.78 588.23 C 192.48 593.02 198.28 596.46 203.78 600.24 C 209.71 604.24 215.57 608.37 221.01 613.02 C 222.82 614.59 224.81 616.06 226.12 618.13 C 222.77 616.48 219.68 614.37 216.46 612.51 C 204.00 605.05 191.51 597.18 181.59 586.45 C 174.11 578.31 168.33 568.14 167.15 557.01 Z" />
</g>
<g id="#000000ff">
<path fill="#000000" opacity="1.00" d=" M 391.31 162.43 C 399.95 162.26 408.70 162.34 417.23 163.68 C 418.93 166.15 420.27 168.85 421.56 171.55 C 416.54 172.82 413.10 168.14 408.94 166.43 C 397.83 164.25 386.12 170.42 375.37 165.52 L 375.04 164.95 C 380.31 163.37 385.83 162.73 391.31 162.43 Z" />
<path fill="#000000" opacity="1.00" d=" M 350.08 194.99 C 357.29 194.57 364.24 197.67 369.81 202.06 C 370.70 202.86 371.89 203.58 372.15 204.86 C 365.34 212.87 353.74 214.01 346.54 221.54 C 340.25 227.85 337.56 236.89 330.92 242.90 C 324.00 249.11 314.89 251.76 306.79 256.01 C 302.38 258.34 297.74 260.98 295.30 265.54 C 292.82 269.70 290.95 275.17 286.02 277.01 C 281.11 276.10 277.07 272.44 274.71 268.15 C 273.22 269.00 273.76 271.34 272.87 272.73 C 270.77 276.76 267.36 280.12 263.71 282.77 C 262.98 275.67 268.91 270.60 274.06 266.84 C 274.10 264.89 273.62 262.88 274.52 261.05 C 278.01 252.15 284.11 244.50 291.06 238.03 C 297.75 231.85 307.19 229.99 314.09 224.12 C 319.71 219.27 320.14 211.17 324.62 205.53 C 326.23 203.78 328.45 202.77 330.44 201.51 C 336.37 197.91 343.04 195.11 350.08 194.99 Z" />
<path fill="#000000" opacity="1.00" d=" M 313.67 276.68 C 321.79 268.52 329.93 259.49 341.08 255.55 C 347.72 252.96 355.42 256.68 358.75 262.70 C 351.87 261.54 344.92 258.27 337.88 260.31 C 334.47 261.14 331.98 263.81 330.01 266.56 C 333.84 264.61 337.62 262.21 342.01 261.80 C 348.21 260.92 354.23 264.58 357.69 269.54 C 355.73 270.91 353.25 270.76 350.98 270.93 C 343.64 271.35 336.09 272.05 329.44 275.43 C 323.81 277.64 318.09 279.99 313.88 284.50 C 309.92 284.98 305.91 284.46 301.95 284.89 C 292.35 285.68 282.14 286.88 273.13 282.66 C 277.47 280.36 282.59 281.95 287.28 281.29 C 294.52 281.26 301.80 281.30 308.98 280.17 C 310.98 279.77 312.23 277.96 313.67 276.68 Z" />
<path fill="#000000" opacity="1.00" d=" M 322.83 294.58 C 325.30 294.61 327.84 294.68 330.03 293.32 C 329.62 294.81 329.20 296.29 328.74 297.76 C 326.66 297.44 322.30 298.57 322.57 295.32 L 322.83 294.58 Z" />
<path fill="#000000" opacity="1.00" d=" M 468.67 319.30 C 467.85 317.68 471.03 317.43 471.96 316.65 C 480.33 318.84 487.49 325.08 491.00 333.02 C 494.41 341.13 493.06 350.04 493.16 358.57 C 491.19 365.75 488.40 372.71 486.89 380.02 C 483.31 397.95 485.62 416.41 489.03 434.18 C 489.85 437.87 489.16 441.65 487.94 445.17 C 481.91 426.80 478.03 407.14 480.88 387.80 C 482.64 374.53 489.25 362.37 490.26 348.96 C 490.90 342.00 488.46 335.04 484.51 329.39 C 480.80 323.96 473.61 323.16 468.67 319.30 Z" />
<path fill="#000000" opacity="1.00" d=" M 156.54 346.46 C 156.89 346.12 157.58 345.46 157.92 345.12 C 162.69 351.33 168.92 356.18 174.00 362.10 L 173.47 362.98 C 168.03 363.69 164.49 358.98 161.64 355.13 C 160.49 353.85 159.66 352.01 158.04 351.32 C 156.22 353.43 155.26 356.25 153.29 358.30 C 151.64 359.99 150.07 362.37 147.54 362.68 C 148.38 356.32 152.34 351.05 156.54 346.46 Z" />
<path fill="#000000" opacity="1.00" d=" M 434.87 356.66 C 444.41 353.05 454.79 351.98 464.93 352.73 C 469.29 353.22 474.12 354.19 477.13 357.69 C 479.29 360.59 481.05 364.41 479.77 368.04 C 479.20 370.55 477.39 372.52 476.48 374.88 C 479.46 379.32 478.57 384.81 476.86 389.55 C 474.05 396.95 476.65 404.90 475.24 412.50 C 474.30 417.31 470.96 421.19 467.53 424.49 C 459.78 431.46 450.14 435.88 440.47 439.49 C 437.85 440.40 435.24 441.32 432.61 442.21 C 421.41 445.70 409.76 447.95 398.01 448.15 C 393.48 448.08 388.87 447.32 384.80 445.28 C 375.06 440.55 365.98 434.35 358.45 426.54 C 354.75 422.84 351.39 418.32 350.74 412.98 C 350.32 410.01 351.42 407.12 352.67 404.50 C 355.46 398.76 359.82 394.00 364.14 389.38 C 369.78 383.29 376.97 378.94 384.23 375.05 C 399.85 365.83 418.03 362.85 434.87 356.66 M 451.02 356.89 C 436.96 358.53 423.64 363.51 410.14 367.44 C 395.73 372.18 381.59 378.81 370.11 388.87 C 392.09 376.32 417.80 374.37 441.93 368.43 C 450.61 366.35 458.64 362.32 467.04 359.45 C 470.58 361.59 471.37 365.98 473.19 369.40 L 474.03 369.21 C 474.96 366.96 475.81 364.47 475.26 362.01 C 474.41 359.56 471.87 358.40 469.59 357.67 C 463.56 355.95 457.18 356.24 451.02 356.89 M 456.46 372.30 C 455.01 375.79 455.34 379.54 455.95 383.17 C 453.59 380.06 453.36 375.51 450.00 372.99 C 446.34 378.75 449.45 386.99 455.02 390.31 C 455.11 388.34 455.06 386.36 455.12 384.40 C 456.57 384.90 457.47 386.96 459.13 386.64 C 459.97 381.76 460.14 376.13 456.46 372.30 M 439.36 374.54 C 438.10 375.37 436.41 376.20 436.15 377.85 C 435.87 381.28 437.42 384.56 437.39 387.99 C 437.42 389.66 436.09 391.37 436.81 392.98 C 441.31 394.56 446.64 393.25 449.95 389.87 C 448.73 383.87 445.46 378.12 440.93 374.01 C 440.54 374.14 439.75 374.41 439.36 374.54 M 421.44 379.71 C 420.74 386.23 424.07 392.42 427.03 398.02 C 430.32 398.38 434.35 396.35 435.35 392.94 C 437.08 387.52 434.34 380.91 429.02 378.70 C 426.46 378.09 423.86 378.94 421.44 379.71 M 460.38 410.08 C 459.05 412.24 456.64 413.29 454.56 414.56 C 436.50 424.93 415.99 431.87 395.00 431.78 C 386.55 431.82 378.24 430.16 370.04 428.34 C 371.22 430.60 373.29 432.20 375.10 433.94 C 381.67 439.79 390.03 444.26 399.01 444.33 C 413.59 444.78 427.95 440.99 441.44 435.73 C 448.86 432.79 456.32 429.44 462.38 424.14 C 464.73 421.88 467.11 419.37 468.20 416.25 C 469.57 414.40 470.48 412.25 470.98 410.02 C 470.71 408.64 470.44 407.27 470.15 405.90 L 470.86 406.25 L 471.64 405.93 C 471.72 405.48 471.87 404.57 471.95 404.12 C 471.85 403.66 471.65 402.74 471.55 402.28 C 473.72 397.75 472.40 392.48 472.38 387.65 C 472.44 385.06 472.67 382.49 472.73 379.91 C 466.58 389.06 466.69 400.99 460.38 410.08 M 409.58 381.61 C 407.12 387.33 409.14 395.12 414.77 398.22 C 417.51 399.69 420.80 398.55 423.30 397.11 C 422.92 389.65 417.13 382.66 409.58 381.61 M 394.69 385.75 C 391.18 392.84 396.93 400.42 403.21 403.46 C 406.92 401.86 410.35 396.82 408.09 392.74 C 405.77 388.13 400.46 386.29 395.72 385.37 L 394.69 385.75 M 384.34 392.51 C 382.33 393.40 380.88 395.74 381.25 397.95 C 382.93 401.85 385.91 405.57 390.13 406.82 C 392.13 404.23 393.99 401.34 394.90 398.19 C 392.91 394.56 388.86 390.06 384.34 392.51 M 373.38 398.50 C 371.74 399.71 370.67 401.98 371.62 403.96 C 373.09 407.42 377.08 410.84 381.04 409.27 C 384.03 408.09 383.72 404.20 382.37 401.88 C 380.78 398.85 376.58 396.19 373.38 398.50 M 364.10 403.00 C 362.27 406.73 363.64 412.27 367.98 413.44 C 369.66 414.20 370.69 412.20 371.23 410.98 C 371.32 409.07 369.91 407.59 368.69 406.31 C 367.32 405.03 365.98 403.51 364.10 403.00 M 437.37 412.55 C 437.08 412.71 436.52 413.03 436.23 413.19 C 436.99 415.50 438.20 417.64 439.51 419.68 C 441.95 419.89 442.73 416.38 445.04 416.08 C 445.77 415.97 447.23 415.75 447.96 415.64 C 448.07 413.33 445.73 411.62 443.66 411.34 C 443.72 412.31 443.83 414.25 443.88 415.22 C 442.10 413.70 439.97 411.19 437.37 412.55 M 433.18 414.03 C 432.07 414.55 430.57 414.82 430.01 416.05 C 430.32 418.31 430.87 420.54 431.57 422.72 C 433.67 422.01 435.71 421.13 437.72 420.22 C 437.37 417.71 435.38 415.76 433.92 413.78 L 433.18 414.03 M 421.41 415.67 C 420.94 415.95 420.00 416.50 419.53 416.77 C 419.09 419.19 420.57 421.61 421.20 423.93 C 424.05 424.54 427.03 423.20 429.84 422.56 C 428.63 420.09 427.14 417.73 425.30 415.69 C 424.30 414.58 422.55 415.05 421.41 415.67 M 413.42 417.19 C 411.84 418.69 410.19 420.20 409.10 422.12 C 411.09 425.66 415.53 426.43 419.22 425.67 C 419.66 422.00 417.84 417.79 414.23 416.47 L 413.42 417.19 M 398.62 421.43 C 397.87 423.30 397.38 425.27 397.01 427.25 C 401.39 427.81 405.95 427.37 410.13 425.88 L 410.79 425.12 C 408.23 421.33 402.65 421.05 398.62 421.43 M 390.35 425.41 C 388.98 426.18 388.98 427.97 389.94 429.09 C 391.13 429.15 393.24 429.73 393.47 428.04 C 393.26 426.65 392.10 424.18 390.35 425.41 Z" />
<path fill="#000000" opacity="1.00" d=" M 208.66 463.52 C 208.95 463.41 209.52 463.19 209.81 463.08 C 212.69 466.65 215.14 470.55 217.95 474.18 C 220.43 477.43 221.72 481.42 221.66 485.50 C 223.75 489.61 226.39 493.42 228.45 497.55 C 223.79 497.47 219.86 494.39 216.12 491.92 C 213.93 490.15 210.80 489.13 209.86 486.23 C 208.50 482.98 206.41 480.15 204.78 477.07 C 206.05 472.56 207.04 467.90 208.66 463.52 Z" />
</g>
<g id="#010101ff">
<path fill="#010101" opacity="1.00" d=" M 381.41 172.69 L 381.90 172.43 C 382.03 174.84 380.94 177.28 378.87 178.58 C 372.69 182.54 365.34 184.62 357.99 184.19 C 351.60 183.48 345.81 188.22 339.43 186.24 C 339.42 186.04 339.40 185.63 339.39 185.42 C 346.93 180.34 356.40 180.41 365.10 179.39 C 371.07 178.79 376.29 175.58 381.41 172.69 Z" />
<path fill="#010101" opacity="1.00" d=" M 340.61 175.95 C 345.53 174.56 350.83 173.99 355.80 175.52 C 355.75 175.77 355.65 176.25 355.60 176.49 C 347.53 180.37 338.43 181.07 330.04 184.01 C 327.78 184.81 325.65 185.94 323.36 186.66 C 323.93 184.71 324.64 182.62 326.39 181.41 C 330.56 178.35 335.81 177.54 340.61 175.95 Z" />
<path fill="#010101" opacity="1.00" d=" M 371.12 189.14 C 375.48 188.35 378.46 192.17 380.95 195.09 C 386.30 202.59 391.20 212.39 387.28 221.62 C 387.05 221.62 386.59 221.64 386.36 221.65 C 383.91 213.77 384.01 204.85 379.10 197.87 C 377.45 195.34 374.36 194.62 372.01 192.97 C 370.86 192.07 371.10 190.41 371.12 189.14 Z" />
<path fill="#010101" opacity="1.00" d=" M 393.50 194.09 C 395.45 196.99 395.86 200.58 396.65 203.90 C 397.63 208.52 397.16 213.34 395.44 217.73 C 392.27 210.38 390.27 201.79 393.50 194.09 Z" />
<path fill="#010101" opacity="1.00" d=" M 395.85 232.93 C 396.18 230.85 398.50 230.48 400.20 230.23 C 401.21 239.46 400.95 249.04 404.28 257.86 C 406.31 262.66 409.13 267.14 412.27 271.30 C 413.90 270.49 415.38 269.41 417.04 268.66 C 420.63 269.54 423.99 271.16 427.47 272.39 C 435.84 275.66 444.37 278.76 452.01 283.57 C 454.09 285.70 456.53 287.41 459.09 288.93 C 462.37 290.86 464.94 293.71 468.00 295.95 C 469.55 297.26 471.52 298.46 472.12 300.54 C 472.74 303.06 472.97 305.68 473.82 308.15 C 472.76 306.56 471.63 305.01 470.33 303.62 C 462.59 295.49 453.08 289.37 443.61 283.47 C 440.24 281.44 437.08 278.74 433.05 278.20 C 427.29 277.32 422.09 274.14 416.17 274.13 C 420.34 278.51 424.59 282.83 428.84 287.15 C 435.68 293.93 443.18 300.63 452.54 303.57 C 454.09 304.23 456.15 304.35 457.04 306.00 C 459.37 309.83 462.33 313.49 463.27 317.96 C 461.66 326.41 452.67 331.15 444.68 331.54 C 442.80 328.32 444.86 324.46 447.63 322.53 C 449.23 321.41 451.39 319.42 453.42 320.60 C 453.72 322.42 453.36 324.26 453.35 326.09 C 455.50 324.99 457.32 323.12 457.91 320.73 C 459.44 315.23 456.04 308.87 450.41 307.47 C 451.49 311.35 453.69 317.15 448.98 319.53 C 447.61 315.48 447.89 310.95 445.90 307.11 C 443.37 303.96 439.68 302.06 436.64 299.46 C 423.18 288.65 410.51 276.24 402.36 260.84 C 397.90 252.32 394.80 242.64 395.85 232.93 Z" />
<path fill="#010101" opacity="1.00" d=" M 373.68 244.27 C 377.06 246.44 379.56 249.83 381.37 253.38 C 383.10 256.67 382.93 260.82 380.63 263.81 C 379.52 256.84 373.42 251.54 373.68 244.27 Z" />
<path fill="#010101" opacity="1.00" d=" M 440.77 262.96 C 442.63 262.11 444.64 262.66 445.47 264.64 C 444.37 265.10 443.26 265.53 442.14 265.93 C 441.80 265.19 441.11 263.70 440.77 262.96 Z" />
<path fill="#010101" opacity="1.00" d=" M 358.19 278.91 C 358.68 277.85 359.42 276.94 360.30 276.19 C 360.53 280.03 359.58 284.02 357.09 287.02 C 352.51 292.87 345.22 295.72 338.10 297.01 C 335.99 297.26 333.86 297.46 331.74 297.35 C 331.67 295.83 331.87 294.30 332.66 292.99 C 338.75 292.62 344.89 291.27 350.18 288.10 C 353.83 286.07 356.32 282.55 358.19 278.91 Z" />
<path fill="#010101" opacity="1.00" d=" M 295.62 287.94 C 298.55 287.15 301.65 286.97 304.64 287.50 C 304.71 287.82 304.84 288.45 304.91 288.77 C 295.66 294.96 283.72 292.50 273.90 297.17 C 272.53 297.60 271.20 298.88 269.69 298.16 C 268.23 296.09 270.95 294.25 272.53 293.35 C 275.20 292.17 277.83 290.02 280.91 290.58 C 286.01 291.40 290.83 289.28 295.62 287.94 Z" />
<path fill="#010101" opacity="1.00" d=" M 304.37 291.49 C 306.65 290.29 310.41 290.11 311.53 292.94 C 305.48 296.39 298.61 297.99 292.11 300.37 C 288.41 301.51 285.04 303.47 281.38 304.69 C 282.00 302.75 282.43 300.40 284.42 299.37 C 287.97 296.83 292.37 296.25 296.50 295.21 C 299.35 294.50 301.72 292.67 304.37 291.49 Z" />
<path fill="#010101" opacity="1.00" d=" M 381.60 319.87 C 384.26 318.41 388.75 319.11 389.72 322.25 C 385.08 323.16 379.92 323.84 376.51 327.50 C 371.51 331.78 373.28 340.80 379.10 343.42 C 383.60 344.60 390.14 341.94 392.85 347.07 C 387.58 349.72 381.47 348.25 376.14 346.61 C 374.01 344.10 372.60 341.06 370.97 338.22 C 369.69 335.41 368.23 332.15 368.99 329.04 C 372.53 325.21 376.94 322.19 381.60 319.87 Z" />
<path fill="#010101" opacity="1.00" d=" M 362.25 326.17 C 362.83 325.97 363.98 325.56 364.56 325.36 C 364.18 327.14 364.01 329.29 362.52 330.56 C 360.50 332.19 358.01 333.20 356.22 335.12 C 352.32 339.19 350.12 344.49 347.89 349.58 C 342.78 363.11 339.26 377.46 339.34 391.99 C 340.34 403.20 345.02 413.70 350.29 423.51 C 352.07 426.66 352.75 430.44 351.73 433.96 C 347.85 428.05 344.14 421.95 341.38 415.42 C 333.48 394.92 334.23 371.56 342.09 351.17 C 345.99 341.04 352.72 331.66 362.25 326.17 Z" />
<path fill="#010101" opacity="1.00" d=" M 409.44 331.73 C 414.77 330.53 420.59 330.17 425.73 332.31 C 428.64 334.13 427.03 337.93 425.95 340.40 L 425.25 340.55 C 423.94 338.95 423.04 336.94 421.24 335.83 C 418.70 334.46 415.67 334.77 412.93 335.17 C 406.26 336.07 399.97 339.37 395.30 344.21 C 394.52 345.00 393.66 345.70 392.73 346.31 C 391.27 342.82 394.29 339.83 396.40 337.42 C 400.29 334.67 404.85 332.93 409.44 331.73 Z" />
<path fill="#010101" opacity="1.00" d=" M 178.46 362.41 C 178.71 362.37 179.19 362.29 179.43 362.26 C 181.21 367.38 179.55 372.75 179.76 377.99 C 180.43 384.48 185.83 388.75 189.55 393.60 C 191.04 395.65 192.96 397.83 192.86 400.52 C 183.98 402.75 174.77 400.50 166.45 397.25 C 166.41 397.09 166.32 396.77 166.28 396.61 C 168.99 395.47 171.95 394.14 174.96 394.78 C 178.84 395.65 182.63 397.06 186.64 397.28 C 186.88 395.95 185.70 395.10 185.02 394.14 C 179.87 387.87 175.28 380.37 175.17 372.01 C 175.00 368.51 176.61 365.26 178.46 362.41 Z" />
<path fill="#010101" opacity="1.00" d=" M 132.57 365.35 C 132.76 365.34 133.14 365.33 133.33 365.33 C 135.07 371.19 136.99 377.20 140.95 382.01 C 146.10 388.83 153.37 393.60 160.75 397.70 C 156.18 399.27 151.24 397.14 147.55 394.42 C 141.60 390.59 137.33 384.67 134.29 378.39 C 132.35 374.36 131.61 369.74 132.57 365.35 Z" />
<path fill="#010101" opacity="1.00" d=" M 126.79 366.52 C 126.93 366.44 127.20 366.26 127.34 366.17 C 129.83 374.96 133.66 383.48 139.58 390.50 C 142.79 395.18 147.75 398.18 152.67 400.77 C 149.50 402.28 145.72 401.19 142.90 399.41 C 138.47 396.46 135.12 392.20 132.23 387.81 C 128.18 381.58 125.45 374.02 126.79 366.52 Z" />
<path fill="#010101" opacity="1.00" d=" M 300.25 392.76 C 297.82 390.68 300.57 388.02 302.07 386.37 C 302.33 387.86 302.98 389.08 304.03 390.03 C 305.04 389.16 306.00 388.24 306.99 387.35 C 306.04 388.54 304.96 389.63 304.08 390.89 C 304.75 393.82 305.94 396.60 306.79 399.49 C 309.66 409.10 312.02 419.04 317.15 427.76 C 322.27 436.19 331.00 441.29 338.10 447.84 C 352.87 461.35 367.12 475.43 382.22 488.58 C 384.19 490.29 386.21 491.95 387.97 493.89 C 379.80 491.95 373.01 486.63 367.04 480.96 C 359.81 473.93 353.09 466.36 345.38 459.84 C 336.61 452.22 327.25 445.20 319.50 436.49 C 312.29 427.83 308.33 417.10 304.70 406.58 C 303.78 403.64 302.55 400.80 301.90 397.80 C 301.40 396.10 301.60 394.07 300.25 392.76 Z" />
<path fill="#010101" opacity="1.00" d=" M 326.55 393.71 C 327.03 393.57 328.01 393.28 328.50 393.14 C 333.20 412.99 342.69 431.33 353.64 448.41 C 357.64 453.99 361.82 459.47 366.55 464.46 C 372.13 470.41 379.08 475.41 387.13 477.31 C 392.69 478.89 399.58 480.09 402.71 485.51 C 395.14 485.85 387.64 483.50 381.18 479.64 C 369.87 473.00 360.74 463.26 353.14 452.70 C 347.91 445.41 342.92 437.90 338.93 429.84 C 334.06 420.43 329.48 410.82 326.14 400.74 C 325.54 398.83 324.67 396.95 324.61 394.93 C 325.09 394.62 326.06 394.02 326.55 393.71 Z" />
<path fill="#010101" opacity="1.00" d=" M 492.25 422.54 L 492.42 421.88 C 492.77 423.53 493.03 425.25 494.07 426.66 C 494.77 426.60 496.19 426.48 496.90 426.42 C 496.97 428.97 496.74 431.52 496.89 434.07 C 497.38 436.59 498.90 438.72 499.99 441.01 C 505.55 452.15 510.34 464.26 509.77 476.93 C 509.41 482.26 504.47 485.44 502.50 490.08 C 501.59 492.74 498.39 494.62 499.71 497.71 C 499.33 497.34 498.59 496.58 498.21 496.20 C 494.82 499.70 493.87 504.84 490.45 508.29 C 487.57 509.58 484.91 511.31 482.04 512.60 C 478.77 511.70 475.89 513.71 472.87 514.60 C 463.21 517.78 453.20 520.10 443.03 520.70 C 431.75 521.36 420.12 519.41 410.16 513.91 C 407.59 512.42 404.90 510.98 402.98 508.66 C 412.44 509.70 420.86 514.62 430.18 516.23 C 447.48 518.70 464.78 514.12 480.88 508.08 C 483.44 506.95 486.67 506.61 488.40 504.17 C 494.21 496.53 500.06 488.65 503.21 479.48 C 505.74 472.24 505.97 464.19 503.62 456.88 C 501.15 449.49 496.06 443.44 492.71 436.49 C 491.42 434.19 491.87 431.50 491.80 429.00 C 491.86 426.84 491.68 424.64 492.25 422.54 Z" />
</g>
<g id="#7092beff">
<path fill="#7092be" opacity="1.00" d=" M 412.56 256.77 C 419.10 249.93 428.32 244.85 437.99 245.29 C 445.20 245.12 452.23 246.99 459.33 248.00 C 459.17 248.43 458.86 249.28 458.70 249.70 C 453.99 251.44 449.41 253.58 445.18 256.29 C 444.65 258.12 445.92 259.44 447.21 260.50 C 448.14 261.37 448.88 262.43 449.73 263.39 C 451.42 265.33 453.41 266.99 455.25 268.79 C 458.16 271.59 461.94 273.35 464.57 276.47 C 466.84 279.17 469.18 281.82 471.81 284.18 C 472.96 285.41 474.47 286.45 475.11 288.06 C 475.49 290.91 475.12 293.79 475.47 296.64 C 476.69 298.94 479.03 300.36 480.79 302.23 C 483.49 304.76 484.43 308.51 486.74 311.33 C 487.68 312.62 488.83 313.78 489.59 315.20 C 490.73 318.13 490.65 321.64 492.88 324.07 C 497.07 328.86 502.11 333.00 505.36 338.56 C 507.24 341.78 509.53 345.12 509.39 349.03 C 509.34 355.35 509.28 361.68 509.27 368.00 C 509.29 370.82 509.51 373.77 510.84 376.32 C 512.73 379.26 516.00 381.20 517.28 384.55 C 517.88 386.64 517.86 388.85 518.24 391.00 C 518.69 394.51 521.32 397.32 521.69 400.85 C 521.94 404.12 521.97 407.44 521.52 410.70 C 520.76 411.43 519.91 412.02 518.94 412.47 C 518.68 409.64 518.84 406.81 518.63 403.99 C 518.35 400.41 515.88 397.50 515.28 394.01 C 514.84 391.85 514.80 389.64 514.34 387.49 C 513.28 384.21 510.24 382.24 508.36 379.51 C 506.61 376.31 506.28 372.57 506.22 369.00 C 506.36 363.67 506.25 358.34 506.26 353.01 C 506.21 350.88 506.29 348.65 505.36 346.68 C 502.73 340.82 498.80 335.64 494.22 331.17 C 497.47 339.07 495.94 347.71 496.36 356.00 C 496.67 359.78 495.12 363.29 494.54 366.96 C 493.85 373.63 493.73 380.35 493.72 387.06 C 494.08 388.98 492.16 389.76 490.87 390.63 C 490.63 386.76 490.51 382.87 490.88 379.00 C 491.35 374.01 491.43 368.94 492.93 364.11 C 493.53 362.31 493.33 360.41 493.16 358.57 C 493.06 350.04 494.41 341.13 491.00 333.02 C 490.28 330.72 489.80 328.34 488.83 326.13 C 487.68 324.05 485.88 322.45 484.48 320.56 C 482.72 318.31 481.56 315.55 479.28 313.73 C 477.23 312.11 475.13 310.47 473.82 308.15 C 472.97 305.68 472.74 303.06 472.12 300.54 C 471.52 298.46 469.55 297.26 468.00 295.95 C 464.94 293.71 462.37 290.86 459.09 288.93 C 456.53 287.41 454.09 285.70 452.01 283.57 C 451.24 281.55 449.15 280.58 447.79 279.02 C 444.32 275.03 441.19 270.76 437.64 266.84 C 437.16 266.28 436.20 265.16 435.71 264.59 C 433.47 262.35 431.03 260.02 427.85 259.27 C 423.98 258.11 419.91 258.50 415.93 258.31 C 414.58 258.43 413.53 257.54 412.56 256.77 M 439.50 257.56 C 438.06 257.86 436.61 258.12 435.19 258.51 C 436.96 260.38 439.05 263.96 442.07 262.21 C 442.56 260.54 441.94 258.83 441.62 257.20 C 441.09 257.29 440.03 257.47 439.50 257.56 M 440.77 262.96 C 441.11 263.70 441.80 265.19 442.14 265.93 C 444.79 269.56 447.90 272.81 450.68 276.34 C 452.59 278.78 455.23 280.49 457.26 282.83 C 459.94 285.95 464.22 286.99 466.96 290.09 C 468.53 291.26 470.01 293.62 472.19 293.19 C 472.59 291.42 472.09 289.57 470.63 288.45 C 467.23 285.48 464.19 282.15 461.29 278.71 C 459.05 275.86 455.61 274.42 453.01 271.99 C 450.47 269.56 447.67 267.40 445.47 264.64 C 444.64 262.66 442.63 262.11 440.77 262.96 M 477.08 304.34 C 476.35 305.73 478.31 307.81 479.73 307.50 C 480.09 306.11 478.64 303.86 477.08 304.34 Z" />
<path fill="#7092be" opacity="1.00" d=" M 357.69 269.54 L 358.27 269.04 C 358.13 271.46 355.92 272.76 354.54 274.48 C 350.14 279.71 346.00 285.64 339.72 288.75 C 337.33 290.03 333.86 290.22 332.66 292.99 C 331.87 294.30 331.67 295.83 331.74 297.35 C 333.86 297.46 335.99 297.26 338.10 297.01 C 336.15 297.76 334.01 297.70 331.98 298.05 C 330.73 304.63 331.81 311.36 331.75 318.00 C 331.68 321.86 334.52 325.10 334.31 329.00 C 334.29 334.66 334.38 340.32 334.23 345.97 C 334.19 351.46 331.14 356.17 328.98 361.02 C 326.81 365.11 325.25 369.61 322.17 373.15 C 320.26 375.55 318.11 377.74 315.98 379.93 C 314.38 381.28 314.90 383.68 315.69 385.33 C 317.86 388.81 320.80 391.89 322.22 395.80 C 322.94 399.18 323.01 402.70 324.10 406.01 C 325.58 410.54 325.40 415.37 326.16 420.04 C 326.67 423.68 325.72 427.47 326.78 431.03 C 328.38 432.86 330.77 433.70 332.51 435.39 C 334.97 437.64 337.60 439.82 339.46 442.62 C 340.41 444.24 338.94 445.97 337.24 446.01 C 334.44 442.40 331.21 439.12 327.55 436.38 C 326.26 435.38 324.64 434.72 323.66 433.38 C 322.98 431.33 323.34 429.11 323.30 427.00 C 323.50 422.99 322.54 419.05 322.33 415.06 C 322.19 412.64 321.58 410.30 320.92 408.00 C 319.97 404.72 319.82 401.28 319.01 397.97 C 317.41 392.81 312.02 389.63 311.62 383.98 C 310.23 384.77 309.04 385.84 307.82 386.87 C 308.75 385.44 309.86 384.16 310.90 382.82 C 311.08 380.15 310.94 377.41 310.01 374.89 C 309.02 372.01 309.43 368.90 308.74 365.97 C 307.37 360.79 307.33 355.30 308.16 350.05 C 310.34 345.68 315.24 342.86 316.42 337.90 C 316.59 334.26 316.62 330.61 317.23 327.00 C 317.46 320.33 317.13 313.64 317.32 306.96 C 317.68 303.45 319.19 300.17 319.54 296.65 C 319.65 295.69 319.72 294.73 319.75 293.77 C 319.79 292.54 319.76 291.32 319.66 290.11 C 318.58 290.15 317.55 290.48 316.51 290.72 C 318.13 288.20 315.01 286.43 313.88 284.50 C 318.09 279.99 323.81 277.64 329.44 275.43 C 336.09 272.05 343.64 271.35 350.98 270.93 C 353.25 270.76 355.73 270.91 357.69 269.54 M 322.83 294.58 L 322.57 295.32 C 321.77 299.54 319.88 303.62 320.27 308.01 C 320.44 317.53 320.34 327.07 319.42 336.54 C 317.25 340.59 313.80 343.86 311.49 347.84 C 309.87 353.47 310.88 359.39 312.01 365.01 C 312.21 369.82 313.95 374.39 314.06 379.21 C 315.57 379.94 316.55 378.31 317.36 377.34 C 319.61 374.50 322.10 371.77 323.53 368.39 C 326.61 361.47 331.35 354.87 331.29 347.00 C 331.22 341.33 331.45 335.65 331.19 330.00 C 331.21 326.74 328.27 324.32 328.56 321.04 C 328.62 317.02 328.33 313.01 328.24 309.00 C 328.16 305.24 328.78 301.51 328.74 297.76 C 329.20 296.29 329.62 294.81 330.03 293.32 C 327.84 294.68 325.30 294.61 322.83 294.58 Z" />
</g>
<g id="#fefefeff">
<path fill="#fefefe" opacity="1.00" d=" M 445.18 256.29 C 449.41 253.58 453.99 251.44 458.70 249.70 C 455.78 254.14 451.93 258.00 447.21 260.50 C 445.92 259.44 444.65 258.12 445.18 256.29 Z" />
<path fill="#fefefe" opacity="1.00" d=" M 412.05 256.38 L 412.56 256.77 C 413.53 257.54 414.58 258.43 415.93 258.31 C 419.91 258.50 423.98 258.11 427.85 259.27 C 431.03 260.02 433.47 262.35 435.71 264.59 C 433.81 264.33 431.89 264.34 429.98 264.37 C 424.51 264.45 418.99 262.75 414.62 259.45 C 413.50 258.66 412.72 257.54 412.05 256.38 Z" />
<path fill="#fefefe" opacity="1.00" d=" M 451.02 356.89 C 457.18 356.24 463.56 355.95 469.59 357.67 C 471.87 358.40 474.41 359.56 475.26 362.01 C 475.81 364.47 474.96 366.96 474.03 369.21 L 473.19 369.40 C 471.37 365.98 470.58 361.59 467.04 359.45 C 458.64 362.32 450.61 366.35 441.93 368.43 C 417.80 374.37 392.09 376.32 370.11 388.87 C 381.59 378.81 395.73 372.18 410.14 367.44 C 423.64 363.51 436.96 358.53 451.02 356.89 Z" />
<path fill="#fefefe" opacity="1.00" d=" M 456.46 372.30 C 460.14 376.13 459.97 381.76 459.13 386.64 C 457.47 386.96 456.57 384.90 455.12 384.40 C 455.06 386.36 455.11 388.34 455.02 390.31 C 449.45 386.99 446.34 378.75 450.00 372.99 C 453.36 375.51 453.59 380.06 455.95 383.17 C 455.34 379.54 455.01 375.79 456.46 372.30 Z" />
<path fill="#fefefe" opacity="1.00" d=" M 439.36 374.54 C 439.75 374.41 440.54 374.14 440.93 374.01 C 445.46 378.12 448.73 383.87 449.95 389.87 C 446.64 393.25 441.31 394.56 436.81 392.98 C 436.09 391.37 437.42 389.66 437.39 387.99 C 437.42 384.56 435.87 381.28 436.15 377.85 C 436.41 376.20 438.10 375.37 439.36 374.54 Z" />
<path fill="#fefefe" opacity="1.00" d=" M 421.44 379.71 C 423.86 378.94 426.46 378.09 429.02 378.70 C 434.34 380.91 437.08 387.52 435.35 392.94 C 434.35 396.35 430.32 398.38 427.03 398.02 C 424.07 392.42 420.74 386.23 421.44 379.71 Z" />
<path fill="#fefefe" opacity="1.00" d=" M 460.38 410.08 C 466.69 400.99 466.58 389.06 472.73 379.91 C 472.67 382.49 472.44 385.06 472.38 387.65 C 472.31 389.89 472.29 392.19 471.29 394.26 C 469.96 396.78 471.13 399.66 471.55 402.28 C 471.65 402.74 471.85 403.66 471.95 404.12 C 470.61 401.85 469.19 404.37 470.15 405.90 C 470.44 407.27 470.71 408.64 470.98 410.02 C 470.63 409.74 469.93 409.18 469.58 408.90 C 467.85 410.91 468.58 413.82 468.20 416.25 C 467.11 419.37 464.73 421.88 462.38 424.14 C 456.32 429.44 448.86 432.79 441.44 435.73 C 427.95 440.99 413.59 444.78 399.01 444.33 C 390.03 444.26 381.67 439.79 375.10 433.94 C 373.29 432.20 371.22 430.60 370.04 428.34 C 378.24 430.16 386.55 431.82 395.00 431.78 C 415.99 431.87 436.50 424.93 454.56 414.56 C 456.64 413.29 459.05 412.24 460.38 410.08 Z" />
<path fill="#fefefe" opacity="1.00" d=" M 409.58 381.61 C 417.13 382.66 422.92 389.65 423.30 397.11 C 420.80 398.55 417.51 399.69 414.77 398.22 C 409.14 395.12 407.12 387.33 409.58 381.61 Z" />
<path fill="#fefefe" opacity="1.00" d=" M 394.69 385.75 L 395.72 385.37 C 400.46 386.29 405.77 388.13 408.09 392.74 C 410.35 396.82 406.92 401.86 403.21 403.46 C 396.93 400.42 391.18 392.84 394.69 385.75 Z" />
<path fill="#fefefe" opacity="1.00" d=" M 384.34 392.51 C 388.86 390.06 392.91 394.56 394.90 398.19 C 393.99 401.34 392.13 404.23 390.13 406.82 C 385.91 405.57 382.93 401.85 381.25 397.95 C 380.88 395.74 382.33 393.40 384.34 392.51 Z" />
<path fill="#fefefe" opacity="1.00" d=" M 373.38 398.50 C 376.58 396.19 380.78 398.85 382.37 401.88 C 383.72 404.20 384.03 408.09 381.04 409.27 C 377.08 410.84 373.09 407.42 371.62 403.96 C 370.67 401.98 371.74 399.71 373.38 398.50 Z" />
<path fill="#fefefe" opacity="1.00" d=" M 364.10 403.00 C 365.98 403.51 367.32 405.03 368.69 406.31 C 369.91 407.59 371.32 409.07 371.23 410.98 C 370.69 412.20 369.66 414.20 367.98 413.44 C 363.64 412.27 362.27 406.73 364.10 403.00 Z" />
<path fill="#fefefe" opacity="1.00" d=" M 437.37 412.55 C 439.97 411.19 442.10 413.70 443.88 415.22 C 443.83 414.25 443.72 412.31 443.66 411.34 C 445.73 411.62 448.07 413.33 447.96 415.64 C 447.23 415.75 445.77 415.97 445.04 416.08 C 442.73 416.38 441.95 419.89 439.51 419.68 C 438.20 417.64 436.99 415.50 436.23 413.19 C 436.52 413.03 437.08 412.71 437.37 412.55 Z" />
<path fill="#fefefe" opacity="1.00" d=" M 421.41 415.67 C 422.55 415.05 424.30 414.58 425.30 415.69 C 427.14 417.73 428.63 420.09 429.84 422.56 C 427.03 423.20 424.05 424.54 421.20 423.93 C 420.57 421.61 419.09 419.19 419.53 416.77 C 420.00 416.50 420.94 415.95 421.41 415.67 Z" />
<path fill="#fefefe" opacity="1.00" d=" M 413.42 417.19 L 414.23 416.47 C 417.84 417.79 419.66 422.00 419.22 425.67 C 415.53 426.43 411.09 425.66 409.10 422.12 C 410.19 420.20 411.84 418.69 413.42 417.19 Z" />
<path fill="#fefefe" opacity="1.00" d=" M 398.62 421.43 C 402.65 421.05 408.23 421.33 410.79 425.12 L 410.13 425.88 C 405.95 427.37 401.39 427.81 397.01 427.25 C 397.38 425.27 397.87 423.30 398.62 421.43 Z" />
</g>
<g id="#fdfdfdff">
<path fill="#fdfdfd" opacity="1.00" d=" M 439.50 257.56 C 440.03 257.47 441.09 257.29 441.62 257.20 C 441.94 258.83 442.56 260.54 442.07 262.21 C 439.05 263.96 436.96 260.38 435.19 258.51 C 436.61 258.12 438.06 257.86 439.50 257.56 Z" />
<path fill="#fdfdfd" opacity="1.00" d=" M 433.18 414.03 L 433.92 413.78 C 435.38 415.76 437.37 417.71 437.72 420.22 C 435.71 421.13 433.67 422.01 431.57 422.72 C 430.87 420.54 430.32 418.31 430.01 416.05 C 430.57 414.82 432.07 414.55 433.18 414.03 Z" />
<path fill="#fdfdfd" opacity="1.00" d=" M 390.35 425.41 C 392.10 424.18 393.26 426.65 393.47 428.04 C 393.24 429.73 391.13 429.15 389.94 429.09 C 388.98 427.97 388.98 426.18 390.35 425.41 Z" />
</g>
<g id="#050708ff">
<path fill="#050708" opacity="1.00" d=" M 506.94 263.89 C 507.39 263.97 508.29 264.14 508.74 264.23 C 525.38 297.89 551.14 325.68 571.88 356.71 C 567.45 352.28 563.61 347.33 559.48 342.64 C 539.04 318.57 519.38 293.14 506.94 263.89 Z" />
<path fill="#050708" opacity="1.00" d=" M 260.32 330.54 L 260.81 329.92 C 260.72 334.55 259.21 339.00 258.83 343.61 C 255.92 364.25 256.96 386.12 265.85 405.26 C 267.30 408.67 269.52 411.68 271.00 415.08 C 264.52 410.51 261.48 402.78 258.17 395.87 C 257.01 392.95 254.77 390.29 254.87 387.01 C 254.63 372.66 252.43 358.12 255.35 343.89 C 256.35 339.26 257.56 334.46 260.32 330.54 Z" />
<path fill="#050708" opacity="1.00" d=" M 186.89 333.80 C 187.56 334.04 188.92 334.51 189.59 334.74 C 188.47 340.58 186.25 346.17 185.45 352.08 C 185.18 355.64 187.11 359.00 189.58 361.43 C 191.34 363.29 193.68 364.50 195.41 366.39 C 195.66 367.89 195.60 369.41 195.54 370.93 C 194.16 370.59 193.19 369.50 192.17 368.61 C 188.46 365.06 185.08 360.96 183.33 356.08 C 181.34 350.70 181.73 344.42 184.72 339.48 C 185.79 337.73 186.36 335.76 186.89 333.80 Z" />
<path fill="#050708" opacity="1.00" d=" M 100.37 364.48 L 100.91 364.05 C 103.32 366.07 104.62 369.28 107.56 370.75 C 109.24 371.48 107.66 373.93 108.92 375.03 C 111.11 377.16 112.48 379.91 113.87 382.60 C 108.49 379.26 102.80 376.47 97.39 373.21 C 98.75 370.44 98.41 366.93 100.37 364.48 Z" />
<path fill="#050708" opacity="1.00" d=" M 88.68 384.80 C 96.53 385.71 104.22 387.88 111.84 389.96 C 115.06 390.55 117.40 393.76 117.02 397.02 C 116.67 401.07 115.02 404.87 114.47 408.90 C 110.01 397.72 100.07 389.47 88.83 385.64 L 87.90 385.58 C 84.80 390.05 83.74 395.61 80.29 399.87 C 79.91 396.28 82.90 393.81 84.06 390.69 C 85.57 388.71 86.42 386.11 88.68 384.80 Z" />
<path fill="#050708" opacity="1.00" d=" M 85.46 435.74 C 88.06 434.36 91.27 433.66 94.05 434.97 C 96.61 442.79 86.75 451.18 79.39 447.58 C 77.15 442.73 81.36 437.86 85.46 435.74 Z" />
<path fill="#050708" opacity="1.00" d=" M 106.18 446.00 C 106.82 445.84 108.09 445.52 108.73 445.36 C 102.38 456.42 89.91 461.42 81.20 470.21 C 78.90 472.31 77.22 474.94 75.40 477.44 C 73.59 478.88 71.11 479.05 68.98 479.75 C 71.23 475.31 74.88 471.79 78.51 468.48 C 82.52 464.80 87.53 462.41 91.33 458.50 C 95.99 454.03 100.12 448.66 106.18 446.00 Z" />
<path fill="#050708" opacity="1.00" d=" M 224.05 450.18 C 228.28 454.34 231.73 459.18 235.35 463.86 C 239.77 463.12 243.98 461.39 248.45 460.86 C 248.57 465.34 246.82 469.62 246.57 474.07 C 247.78 477.12 249.49 479.95 251.01 482.85 C 265.80 509.85 286.04 533.23 303.72 558.28 C 305.48 560.85 307.47 563.29 308.78 566.15 C 283.91 537.89 259.38 508.32 244.41 473.43 C 243.23 471.29 243.21 467.71 240.17 467.45 C 232.02 465.40 226.45 457.86 224.05 450.18 Z" />
<path fill="#050708" opacity="1.00" d=" M 116.21 479.85 C 118.09 478.52 120.82 480.22 123.00 480.32 C 108.82 491.89 94.42 503.24 81.01 515.73 C 82.46 512.45 84.79 509.67 87.11 506.98 C 95.95 497.03 107.30 489.73 116.21 479.85 Z" />
<path fill="#050708" opacity="1.00" d=" M 430.75 567.17 C 432.20 569.04 432.75 571.41 433.64 573.57 C 441.09 593.59 442.45 616.25 435.33 636.56 C 432.39 645.94 426.58 654.03 423.12 663.19 C 422.28 665.34 421.93 667.67 420.85 669.73 C 418.93 671.41 416.92 673.00 415.01 674.69 C 415.68 671.35 417.14 668.26 418.43 665.13 C 422.87 654.63 428.26 644.57 432.98 634.19 C 434.43 630.94 436.20 627.71 436.47 624.09 C 438.58 604.87 434.03 585.84 430.66 567.05 L 430.75 567.17 Z" />
<path fill="#050708" opacity="1.00" d=" M 527.49 652.61 L 527.82 652.31 C 523.18 660.30 517.22 667.39 511.36 674.49 C 510.47 675.35 509.66 677.04 508.14 676.43 C 490.76 673.73 474.25 682.22 456.98 681.99 C 450.36 681.83 443.56 680.23 438.11 676.32 C 442.63 677.67 447.29 678.51 452.02 678.60 C 467.88 678.94 483.14 673.16 499.00 673.36 C 501.62 673.35 504.23 673.77 506.87 673.73 C 514.03 666.99 520.25 659.28 527.49 652.61 Z" />
<path fill="#050708" opacity="1.00" d=" M 311.08 671.18 C 318.35 675.42 325.92 679.27 334.10 681.43 C 350.93 686.21 368.80 685.91 385.95 683.10 C 389.68 682.54 393.33 681.53 397.09 681.18 C 390.45 685.37 382.68 687.48 374.91 688.22 C 362.92 689.38 350.92 687.84 338.93 687.62 C 336.34 687.68 334.26 685.91 331.98 684.97 C 324.50 681.36 316.07 678.20 311.08 671.18 Z" />
</g>
<g id="#696969ff">
<path fill="#696969" opacity="1.00" d=" M 272.87 280.95 C 277.67 280.57 282.51 280.67 287.28 281.29 C 282.59 281.95 277.47 280.36 273.13 282.66 C 272.11 282.90 270.08 279.90 272.87 280.95 Z" />
</g>
<g id="#b9cadeff">
<path fill="#b9cade" opacity="1.00" d=" M 477.08 304.34 C 478.64 303.86 480.09 306.11 479.73 307.50 C 478.31 307.81 476.35 305.73 477.08 304.34 Z" />
</g>
<g id="#6b6c6cff">
<path fill="#6b6c6c" opacity="1.00" d=" M 586.03 351.83 C 588.34 351.48 590.69 351.68 593.01 352.01 C 592.24 357.06 590.41 361.88 588.53 366.61 C 578.72 389.81 561.02 408.54 550.68 431.46 C 548.88 435.36 547.48 439.42 546.40 443.57 C 541.23 462.58 531.33 479.86 525.77 498.74 C 524.40 502.54 523.85 506.60 522.26 510.33 C 521.06 512.74 519.64 515.46 516.85 516.29 C 516.66 512.62 517.55 509.04 518.30 505.48 C 523.71 480.39 537.56 458.21 544.38 433.56 C 551.58 411.68 568.82 395.30 578.96 374.95 C 582.68 367.73 585.03 359.88 586.03 351.83 Z" />
<path fill="#6b6c6c" opacity="1.00" d=" M 667.34 398.20 C 669.02 398.05 670.14 399.75 671.13 400.88 C 674.35 405.84 675.59 412.49 673.22 418.05 C 672.46 419.37 671.20 421.44 669.40 420.68 C 667.04 416.07 664.87 411.17 664.46 405.95 C 664.30 403.18 664.82 399.81 667.34 398.20 Z" />
<path fill="#6b6c6c" opacity="1.00" d=" M 238.90 435.06 C 240.82 434.93 242.76 434.91 244.68 435.19 C 245.02 437.89 245.01 440.62 244.92 443.34 C 241.50 442.02 239.49 438.52 238.90 435.06 Z" />
<path fill="#6b6c6c" opacity="1.00" d=" M 151.25 482.98 C 154.78 484.17 158.15 485.82 161.42 487.60 C 162.17 488.66 162.42 489.97 162.84 491.20 C 168.23 509.58 167.92 529.70 161.83 547.87 L 161.24 547.63 C 158.20 542.15 156.07 536.13 152.37 531.03 C 152.68 542.31 150.80 553.65 152.59 564.86 C 153.64 570.24 155.30 575.80 158.95 580.02 C 167.09 587.95 176.68 594.23 184.67 602.33 C 186.76 604.45 189.00 606.51 190.39 609.20 C 186.90 608.61 182.93 608.40 180.34 605.66 C 170.12 596.62 158.46 588.64 151.15 576.85 C 149.61 574.04 147.78 571.26 147.13 568.09 C 145.11 552.08 146.33 535.86 148.97 520.01 C 149.28 517.62 152.46 515.50 154.44 517.41 C 154.90 521.32 154.53 525.35 155.62 529.18 C 158.03 529.48 160.49 529.52 162.90 529.19 C 162.58 513.18 158.76 497.15 151.25 482.98 Z" />
<path fill="#6b6c6c" opacity="1.00" d=" M 356.84 526.20 C 366.23 525.35 376.32 525.41 384.85 529.97 C 388.45 531.77 391.25 534.75 393.75 537.85 C 385.33 534.70 376.38 533.57 367.74 531.26 C 363.94 530.02 359.97 528.77 356.84 526.20 Z" />
<path fill="#6b6c6c" opacity="1.00" d=" M 440.48 539.71 C 442.58 538.86 444.89 538.86 447.12 538.99 C 444.44 542.38 440.56 544.55 437.81 547.86 C 436.81 550.45 436.52 553.39 434.66 555.58 C 433.03 557.49 431.05 559.85 428.30 559.75 C 428.87 551.74 432.81 543.14 440.48 539.71 Z" />
</g>
<g id="#545555ff">
<path fill="#545555" opacity="1.00" d=" M 471.29 394.26 C 472.29 392.19 472.31 389.89 472.38 387.65 C 472.40 392.48 473.72 397.75 471.55 402.28 C 471.13 399.66 469.96 396.78 471.29 394.26 Z" />
</g>
<g id="#7193beff">
<path fill="#7193be" opacity="1.00" d=" M 300.25 392.76 C 301.60 394.07 301.40 396.10 301.90 397.80 C 301.58 397.59 300.94 397.19 300.62 396.99 C 298.09 398.20 295.85 399.94 293.39 401.29 C 290.56 402.82 289.44 406.05 287.09 408.10 C 283.64 411.71 279.29 414.67 277.17 419.35 C 275.19 422.60 276.11 426.53 276.33 430.10 C 276.39 432.89 278.37 435.21 278.35 438.02 C 278.34 439.76 278.89 441.99 277.18 443.15 C 275.27 444.90 272.27 442.71 272.19 440.47 C 272.99 439.55 273.88 438.73 274.68 437.82 C 273.22 433.71 272.86 429.34 272.79 425.02 C 272.88 421.34 275.70 418.60 277.93 415.97 C 282.02 412.00 286.22 408.10 289.60 403.49 C 291.34 400.81 294.44 399.72 296.87 397.85 C 298.15 396.26 299.02 394.38 300.25 392.76 Z" />
</g>
<g id="#848485ff">
<path fill="#848485" opacity="1.00" d=" M 470.15 405.90 C 469.19 404.37 470.61 401.85 471.95 404.12 C 471.87 404.57 471.72 405.48 471.64 405.93 L 470.86 406.25 L 470.15 405.90 Z" />
</g>
<g id="#d6d6d6ff">
<path fill="#d6d6d6" opacity="1.00" d=" M 498.21 403.20 L 499.05 402.86 L 499.87 403.21 L 500.21 404.04 L 499.87 404.87 L 499.05 405.21 L 498.22 404.87 L 497.87 404.04 L 498.21 403.20 Z" />
</g>
<g id="#7b7b7cff">
<path fill="#7b7b7c" opacity="1.00" d=" M 468.20 416.25 C 468.58 413.82 467.85 410.91 469.58 408.90 C 469.93 409.18 470.63 409.74 470.98 410.02 C 470.48 412.25 469.57 414.40 468.20 416.25 Z" />
</g>
<g id="#e7e9e9ff">
<path fill="#e7e9e9" opacity="1.00" d=" M 432.61 442.21 C 435.24 441.32 437.85 440.40 440.47 439.49 C 440.31 440.99 441.01 442.19 442.01 443.25 C 441.31 445.33 438.71 445.12 436.96 445.14 C 434.97 445.28 433.83 443.42 432.61 442.21 Z" />
</g>
</svg>
