<?xml version="1.0" encoding="UTF-8" ?>
<!DOCTYPE svg PUBLIC "-//W3C//DTD SVG 1.1//EN" "http://www.w3.org/Graphics/SVG/1.1/DTD/svg11.dtd">
<svg width="982pt" height="1022pt" viewBox="0 0 982 1022" version="1.1" xmlns="http://www.w3.org/2000/svg">
<path fill="#ffffff" opacity="1.00" d=" M 0.00 0.00 L 982.00 0.00 L 982.00 1022.00 L 0.00 1022.00 L 0.00 0.00 M 511.78 14.52 C 481.71 18.14 451.95 23.92 422.42 30.60 C 396.43 36.28 370.43 41.97 344.72 48.79 C 327.14 53.55 309.56 58.61 292.87 65.95 C 276.79 73.02 262.53 83.78 250.43 96.43 C 229.45 117.96 214.22 144.13 195.30 167.34 C 186.69 177.78 177.20 187.72 165.90 195.28 C 163.94 195.67 162.10 194.28 160.19 193.95 C 151.15 191.22 141.56 193.50 133.14 197.17 C 122.35 201.79 111.58 207.18 99.73 208.34 C 90.95 209.51 82.13 208.00 73.59 206.02 C 73.90 208.45 74.32 211.03 76.07 212.90 C 79.04 216.24 83.70 217.17 87.94 217.60 C 100.72 218.58 113.27 215.40 125.92 214.30 C 128.94 214.23 132.37 213.68 134.87 215.83 C 124.22 238.26 113.52 261.19 96.93 279.96 C 88.90 288.90 79.60 296.91 68.82 302.34 C 68.48 293.89 69.13 285.45 69.01 277.01 C 68.98 272.73 69.25 268.28 67.67 264.22 C 65.12 263.15 62.83 266.70 63.78 268.95 C 66.86 285.95 66.78 303.83 61.27 320.34 C 56.84 334.55 48.82 347.21 42.69 360.68 C 37.13 372.71 33.36 385.75 33.01 399.06 C 33.06 401.11 34.02 404.73 36.75 403.94 C 41.74 400.92 43.95 395.02 48.22 391.20 C 49.16 390.30 50.49 390.18 51.70 389.94 C 54.80 394.20 50.93 398.46 49.47 402.52 C 38.93 428.06 33.90 455.48 30.55 482.80 C 25.24 528.64 25.29 574.96 28.07 620.98 C 31.09 665.03 36.18 709.15 47.19 751.99 C 52.79 771.71 57.52 791.88 66.58 810.38 C 71.39 819.73 78.12 829.79 89.11 832.14 C 82.24 815.82 75.67 799.34 70.35 782.44 C 54.86 733.74 45.72 683.17 41.25 632.31 C 38.30 597.61 37.54 562.74 39.27 527.97 C 42.36 468.61 52.02 409.05 73.43 353.39 C 87.09 318.23 105.85 284.48 132.26 257.26 C 148.49 240.50 167.74 226.51 189.16 217.15 C 190.33 216.73 191.44 215.99 191.49 214.63 C 193.17 205.43 187.26 196.31 190.40 187.20 C 192.78 180.87 197.43 175.76 201.59 170.54 C 213.97 156.01 227.76 142.75 241.59 129.62 C 254.44 117.75 267.40 105.95 281.22 95.22 C 299.58 81.23 322.32 74.32 344.95 71.28 C 377.53 66.96 410.52 69.48 443.04 73.11 C 472.86 76.56 502.49 81.42 532.20 85.75 C 570.77 91.28 609.72 96.60 648.77 94.38 C 649.93 91.25 651.39 86.22 647.60 84.35 C 640.69 81.93 633.30 85.69 626.30 83.75 C 623.75 83.09 622.35 79.46 624.56 77.63 C 631.66 69.11 637.36 58.97 647.01 52.99 C 650.67 50.89 654.69 48.95 658.93 48.69 C 688.25 62.75 712.68 84.74 736.65 106.30 C 738.14 107.78 740.24 108.98 740.63 111.22 C 746.19 133.44 759.47 152.68 773.93 170.05 C 788.12 187.21 803.96 203.10 816.14 221.84 C 824.93 235.17 831.11 250.57 831.80 266.66 C 827.37 264.34 824.71 259.84 822.64 255.48 C 818.71 246.91 817.10 237.24 811.57 229.44 C 807.12 223.03 798.57 219.88 791.04 221.56 C 818.14 254.23 836.83 292.84 853.35 331.67 C 879.56 393.32 899.42 458.02 933.31 516.15 C 927.26 524.11 928.28 534.62 928.28 544.02 C 928.76 550.17 928.23 556.35 928.66 562.50 C 936.21 575.82 939.38 591.11 940.47 606.25 C 941.85 625.60 940.36 644.98 939.11 664.29 C 937.73 687.44 935.80 710.91 940.05 733.88 C 942.37 745.23 946.26 756.80 953.99 765.65 C 951.64 721.76 953.78 677.80 956.42 633.97 C 959.49 579.60 962.26 524.29 950.28 470.74 C 947.23 455.85 941.71 441.59 934.88 428.05 C 918.10 395.26 894.96 366.35 876.52 334.54 C 868.14 319.81 859.72 304.71 856.00 288.02 C 850.74 266.60 850.76 244.01 842.97 223.20 C 833.39 198.72 818.07 176.90 800.67 157.35 C 774.04 127.27 742.44 102.23 713.20 74.82 C 701.13 63.20 688.97 51.42 679.31 37.67 C 678.07 30.45 685.42 25.26 684.49 18.09 C 681.79 16.74 678.56 16.97 675.63 16.36 C 621.43 8.27 566.16 7.71 511.78 14.52 M 623.13 170.18 C 621.17 172.46 619.66 175.13 619.05 178.10 C 616.94 187.26 618.28 196.69 617.99 205.98 C 597.00 215.41 578.18 229.88 564.28 248.28 C 541.78 277.70 532.92 316.62 538.85 353.03 C 544.10 387.23 562.90 419.65 591.63 439.33 C 608.43 450.94 628.20 458.27 648.50 460.42 C 640.84 452.02 631.52 445.34 622.58 438.39 C 605.56 425.51 587.74 413.53 572.33 398.68 C 561.05 387.84 551.10 375.10 545.88 360.19 C 539.34 341.49 540.20 320.53 547.15 302.07 C 553.16 285.89 563.41 271.63 575.10 259.07 C 599.95 232.64 630.69 212.94 660.21 192.23 C 663.21 189.95 666.64 188.18 669.21 185.37 C 664.33 184.32 659.22 184.08 654.41 185.58 C 646.56 187.54 639.96 192.79 632.00 194.38 C 628.71 195.18 625.62 193.34 623.54 190.95 C 635.83 185.19 649.35 181.51 663.01 181.99 C 678.86 182.31 694.00 188.99 706.37 198.64 C 722.53 211.17 735.09 227.57 747.07 243.98 C 757.85 258.66 767.91 273.99 780.50 287.23 C 774.21 289.39 767.68 290.76 761.25 292.41 C 747.39 295.54 733.02 298.35 718.80 296.19 C 709.37 294.77 699.79 290.27 694.59 281.98 C 695.18 270.67 698.51 259.36 696.69 248.01 C 696.30 244.66 693.98 240.64 690.02 241.49 C 684.88 243.43 680.93 248.52 680.35 254.03 C 679.69 260.15 681.37 266.15 682.65 272.08 C 684.56 280.47 685.89 289.22 684.22 297.78 C 702.92 306.14 723.51 311.47 744.11 309.65 C 759.38 308.43 774.19 302.51 786.08 292.85 C 801.46 309.29 811.85 330.03 817.38 351.76 C 822.30 371.67 823.20 392.90 817.64 412.78 C 813.30 428.79 804.19 443.76 790.89 453.87 C 777.76 464.10 761.26 469.17 744.85 470.59 C 749.99 470.88 755.05 469.56 760.15 469.01 C 779.45 466.00 799.12 460.10 814.30 447.30 C 825.93 437.64 833.45 423.51 835.70 408.63 C 838.62 389.83 835.08 370.68 829.42 352.73 C 822.27 330.44 811.61 309.44 799.58 289.42 C 780.61 258.31 758.18 229.32 732.93 203.07 C 721.08 191.20 708.95 179.27 694.63 170.40 C 670.81 170.00 646.96 170.45 623.13 170.18 M 256.39 204.96 C 254.82 219.64 250.38 234.10 242.79 246.80 C 235.43 259.31 225.25 269.92 214.06 279.08 C 197.03 293.06 177.90 304.14 160.14 317.12 C 146.80 326.89 134.14 338.01 124.80 351.79 C 117.22 363.02 111.57 375.84 109.48 389.27 C 120.33 375.17 134.38 364.03 148.80 353.81 C 177.96 333.14 210.21 316.18 235.31 290.31 C 245.53 279.54 254.16 266.87 258.40 252.52 C 263.39 236.03 262.18 218.20 257.39 201.82 C 256.87 202.80 256.44 203.83 256.39 204.96 M 501.18 292.17 C 502.78 301.37 499.05 310.67 501.09 319.80 C 502.27 324.29 507.43 323.98 511.08 323.61 C 510.82 317.64 511.20 311.69 511.91 305.76 C 511.89 301.79 512.84 297.22 510.27 293.80 C 508.09 290.98 504.22 291.89 501.18 292.17 M 255.47 312.63 C 218.31 314.83 180.99 329.85 155.79 357.83 C 150.28 366.82 146.82 376.98 144.01 387.11 C 136.93 413.79 139.73 441.78 144.27 468.63 C 148.39 492.94 153.04 517.20 155.14 541.80 C 161.31 550.82 169.98 557.93 178.95 564.07 C 210.65 584.77 251.67 588.35 287.50 577.51 C 316.05 548.75 348.27 523.27 372.43 490.43 C 383.61 475.33 392.73 458.66 398.95 440.92 C 405.35 422.71 408.81 403.51 409.67 384.25 C 408.39 381.41 406.32 379.04 404.53 376.52 C 390.00 356.81 370.09 341.45 348.16 330.77 C 319.51 316.90 287.23 310.57 255.47 312.63 M 17.45 383.79 C 15.31 403.21 12.62 422.58 10.90 442.05 C 4.46 511.47 2.85 581.42 8.10 650.98 C 12.08 700.80 19.37 750.64 34.35 798.44 C 45.13 832.55 60.33 865.88 83.70 893.27 C 83.26 904.84 83.65 916.47 85.33 927.95 C 87.72 945.08 93.10 961.61 99.21 977.73 C 104.43 991.76 110.33 1005.60 114.19 1020.09 C 117.63 1020.31 121.07 1020.26 124.52 1020.24 C 121.28 993.56 105.35 970.57 100.81 944.22 C 98.80 932.15 99.20 919.17 104.47 907.95 C 107.89 916.20 112.68 923.84 118.10 930.92 C 133.15 950.52 153.93 964.63 175.05 976.95 C 198.99 990.92 224.12 1003.06 246.44 1019.66 C 249.74 1020.97 253.61 1019.95 257.13 1020.20 C 253.47 1009.57 246.41 1000.23 237.26 993.72 C 223.48 983.74 206.97 978.84 191.23 972.92 C 177.79 967.99 164.21 962.24 153.59 952.37 C 139.57 939.54 129.15 923.36 120.39 906.62 C 111.09 888.93 103.43 870.44 94.46 852.58 C 91.47 848.88 85.96 846.28 81.27 848.10 C 76.65 850.98 77.51 857.30 78.65 861.83 C 72.25 853.21 66.53 844.09 61.51 834.61 C 42.33 798.51 32.81 758.16 27.33 717.90 C 21.25 672.19 20.10 626.01 19.92 579.97 C 19.59 566.65 19.67 553.31 20.01 539.99 C 19.85 492.31 20.64 444.62 18.53 396.97 C 18.28 392.57 18.43 388.12 17.45 383.79 M 699.65 663.70 C 682.34 670.04 667.95 682.27 655.87 695.91 C 636.55 717.49 619.98 742.06 596.28 759.27 C 581.19 770.40 563.53 777.22 546.22 784.04 C 502.24 800.30 455.97 811.53 408.97 813.21 C 384.08 814.21 359.51 809.38 335.16 804.87 C 312.90 800.39 290.71 795.27 269.22 787.86 C 260.30 784.54 251.04 781.46 243.44 775.54 C 234.76 768.97 226.98 761.31 218.69 754.28 C 209.04 746.19 198.76 737.94 186.32 734.79 C 177.30 732.41 167.42 734.56 160.07 740.23 C 161.62 750.00 166.04 759.89 174.56 765.47 C 187.13 773.64 202.82 774.61 215.59 782.42 C 223.29 787.12 229.87 793.42 236.44 799.56 C 265.24 827.33 287.82 860.68 315.50 889.49 C 334.89 909.86 357.39 928.21 384.00 938.14 C 403.44 945.46 424.39 947.61 445.02 947.76 C 488.35 947.33 530.90 936.87 571.69 922.89 C 595.62 914.51 619.20 905.08 642.07 894.15 C 677.18 876.78 707.33 851.43 739.58 829.53 C 760.27 815.60 782.32 803.02 806.54 796.44 C 813.35 769.25 816.38 740.99 814.37 712.99 C 812.21 682.63 803.98 652.25 787.56 626.42 C 771.90 601.47 747.89 581.66 719.88 572.22 C 711.38 602.32 711.11 634.38 699.65 663.70 M 966.04 763.08 C 962.08 765.82 960.22 770.59 959.44 775.17 C 956.72 790.58 961.09 806.26 958.81 821.67 C 938.07 844.15 924.04 871.83 912.92 900.09 C 897.49 939.45 886.73 980.42 872.53 1020.22 C 877.69 1020.27 882.86 1020.25 888.03 1020.22 C 895.14 994.62 905.92 970.23 917.55 946.40 C 934.68 911.58 953.10 877.00 963.49 839.41 C 970.77 813.76 974.40 787.08 974.47 760.43 C 971.54 760.84 968.48 761.28 966.04 763.08 Z" />
<path fill="#000000" opacity="1.00" d=" M 511.78 14.52 C 566.16 7.71 621.43 8.27 675.63 16.36 C 678.56 16.97 681.79 16.74 684.49 18.09 C 685.42 25.26 678.07 30.45 679.31 37.67 C 688.97 51.42 701.13 63.20 713.20 74.82 C 742.44 102.23 774.04 127.27 800.67 157.35 C 818.07 176.90 833.39 198.72 842.97 223.20 C 850.76 244.01 850.74 266.60 856.00 288.02 C 859.72 304.71 868.14 319.81 876.52 334.54 C 894.96 366.35 918.10 395.26 934.88 428.05 C 941.71 441.59 947.23 455.85 950.28 470.74 C 962.26 524.29 959.49 579.60 956.42 633.97 C 953.78 677.80 951.64 721.76 953.99 765.65 C 946.26 756.80 942.37 745.23 940.05 733.88 C 935.80 710.91 937.73 687.44 939.11 664.29 C 940.36 644.98 941.85 625.60 940.47 606.25 C 939.38 591.11 936.21 575.82 928.66 562.50 C 928.23 556.35 928.76 550.17 928.28 544.02 C 928.28 534.62 927.26 524.11 933.31 516.15 C 899.42 458.02 879.56 393.32 853.35 331.67 C 836.83 292.84 818.14 254.23 791.04 221.56 C 798.57 219.88 807.12 223.03 811.57 229.44 C 817.10 237.24 818.71 246.91 822.64 255.48 C 824.71 259.84 827.37 264.34 831.80 266.66 C 831.11 250.57 824.93 235.17 816.14 221.84 C 803.96 203.10 788.12 187.21 773.93 170.05 C 759.47 152.68 746.19 133.44 740.63 111.22 C 740.24 108.98 738.14 107.78 736.65 106.30 C 712.68 84.74 688.25 62.75 658.93 48.69 C 654.69 48.95 650.67 50.89 647.01 52.99 C 637.36 58.97 631.66 69.11 624.56 77.63 C 622.35 79.46 623.75 83.09 626.30 83.75 C 633.30 85.69 640.69 81.93 647.60 84.35 C 651.39 86.22 649.93 91.25 648.77 94.38 C 609.72 96.60 570.77 91.28 532.20 85.75 C 502.49 81.42 472.86 76.56 443.04 73.11 C 410.52 69.48 377.53 66.96 344.95 71.28 C 322.32 74.32 299.58 81.23 281.22 95.22 C 267.40 105.95 254.44 117.75 241.59 129.62 C 227.76 142.75 213.97 156.01 201.59 170.54 C 197.43 175.76 192.78 180.87 190.40 187.20 C 187.26 196.31 193.17 205.43 191.49 214.63 C 191.44 215.99 190.33 216.73 189.16 217.15 C 167.74 226.51 148.49 240.50 132.26 257.26 C 105.85 284.48 87.09 318.23 73.43 353.39 C 52.02 409.05 42.36 468.61 39.27 527.97 C 37.54 562.74 38.30 597.61 41.25 632.31 C 45.72 683.17 54.86 733.74 70.35 782.44 C 75.67 799.34 82.24 815.82 89.11 832.14 C 78.12 829.79 71.39 819.73 66.58 810.38 C 57.52 791.88 52.79 771.71 47.19 751.99 C 36.18 709.15 31.09 665.03 28.07 620.98 C 25.29 574.96 25.24 528.64 30.55 482.80 C 33.90 455.48 38.93 428.06 49.47 402.52 C 50.93 398.46 54.80 394.20 51.70 389.94 C 50.49 390.18 49.16 390.30 48.22 391.20 C 43.95 395.02 41.74 400.92 36.75 403.94 C 34.02 404.73 33.06 401.11 33.01 399.06 C 33.36 385.75 37.13 372.71 42.69 360.68 C 48.82 347.21 56.84 334.55 61.27 320.34 C 66.78 303.83 66.86 285.95 63.78 268.95 C 62.83 266.70 65.12 263.15 67.67 264.22 C 69.25 268.28 68.98 272.73 69.01 277.01 C 69.13 285.45 68.48 293.89 68.82 302.34 C 79.60 296.91 88.90 288.90 96.93 279.96 C 113.52 261.19 124.22 238.26 134.87 215.83 C 132.37 213.68 128.94 214.23 125.92 214.30 C 113.27 215.40 100.72 218.58 87.94 217.60 C 83.70 217.17 79.04 216.24 76.07 212.90 C 74.32 211.03 73.90 208.45 73.59 206.02 C 82.13 208.00 90.95 209.51 99.73 208.34 C 111.58 207.18 122.35 201.79 133.14 197.17 C 141.56 193.50 151.15 191.22 160.19 193.95 C 162.10 194.28 163.94 195.67 165.90 195.28 C 177.20 187.72 186.69 177.78 195.30 167.34 C 214.22 144.13 229.45 117.96 250.43 96.43 C 262.53 83.78 276.79 73.02 292.87 65.95 C 309.56 58.61 327.14 53.55 344.72 48.79 C 370.43 41.97 396.43 36.28 422.42 30.60 C 451.95 23.92 481.71 18.14 511.78 14.52 M 567.38 17.52 C 567.09 34.62 567.31 51.73 567.26 68.84 C 576.96 69.51 587.32 67.33 594.77 60.78 C 604.22 52.75 609.06 41.03 616.19 31.18 C 618.25 28.13 621.03 25.67 623.16 22.69 C 610.77 21.00 598.58 17.82 586.05 17.20 C 579.82 16.66 573.59 17.21 567.38 17.52 M 481.88 29.72 C 452.17 34.70 422.16 39.90 394.11 51.27 C 388.97 53.55 383.59 55.46 378.95 58.69 C 406.46 53.86 434.55 57.55 461.57 63.53 C 486.19 68.83 511.77 74.53 536.88 68.91 C 539.67 51.19 549.51 35.49 552.15 17.74 C 528.84 22.39 505.34 25.98 481.88 29.72 M 618.83 44.88 C 615.05 47.27 610.95 50.38 610.07 55.04 C 609.36 58.30 611.06 61.29 612.92 63.82 C 620.62 61.15 629.55 59.66 635.11 53.13 C 638.73 48.95 638.98 43.21 638.80 37.96 C 631.80 39.06 624.92 41.23 618.83 44.88 M 892.95 383.91 C 897.21 416.13 908.94 446.87 923.15 475.93 C 928.28 486.17 933.19 496.58 938.96 506.48 C 939.03 489.75 937.51 472.93 933.24 456.72 C 926.24 429.49 911.19 405.04 892.95 383.91 Z" />
<path fill="#ffffff" opacity="1.00" d=" M 567.38 17.52 C 573.59 17.21 579.82 16.66 586.05 17.20 C 598.58 17.82 610.77 21.00 623.16 22.69 C 621.03 25.67 618.25 28.13 616.19 31.18 C 609.06 41.03 604.22 52.75 594.77 60.78 C 587.32 67.33 576.96 69.51 567.26 68.84 C 567.31 51.73 567.09 34.62 567.38 17.52 Z" />
<path fill="#ffffff" opacity="1.00" d=" M 481.88 29.72 C 505.34 25.98 528.84 22.39 552.15 17.74 C 549.51 35.49 539.67 51.19 536.88 68.91 C 511.77 74.53 486.19 68.83 461.57 63.53 C 434.55 57.55 406.46 53.86 378.95 58.69 C 383.59 55.46 388.97 53.55 394.11 51.27 C 422.16 39.90 452.17 34.70 481.88 29.72 Z" />
<path fill="#ffffff" opacity="1.00" d=" M 618.83 44.88 C 624.92 41.23 631.80 39.06 638.80 37.96 C 638.98 43.21 638.73 48.95 635.11 53.13 C 629.55 59.66 620.62 61.15 612.92 63.82 C 611.06 61.29 609.36 58.30 610.07 55.04 C 610.95 50.38 615.05 47.27 618.83 44.88 Z" />
<path fill="#000000" opacity="1.00" d=" M 623.13 170.18 C 646.96 170.45 670.81 170.00 694.63 170.40 C 708.95 179.27 721.08 191.20 732.93 203.07 C 758.18 229.32 780.61 258.31 799.58 289.42 C 811.61 309.44 822.27 330.44 829.42 352.73 C 835.08 370.68 838.62 389.83 835.70 408.63 C 833.45 423.51 825.93 437.64 814.30 447.30 C 799.12 460.10 779.45 466.00 760.15 469.01 C 755.05 469.56 749.99 470.88 744.85 470.59 C 761.26 469.17 777.76 464.10 790.89 453.87 C 804.19 443.76 813.30 428.79 817.64 412.78 C 823.20 392.90 822.30 371.67 817.38 351.76 C 811.85 330.03 801.46 309.29 786.08 292.85 C 774.19 302.51 759.38 308.43 744.11 309.65 C 723.51 311.47 702.92 306.14 684.22 297.78 C 685.89 289.22 684.56 280.47 682.65 272.08 C 681.37 266.15 679.69 260.15 680.35 254.03 C 680.93 248.52 684.88 243.43 690.02 241.49 C 693.98 240.64 696.30 244.66 696.69 248.01 C 698.51 259.36 695.18 270.67 694.59 281.98 C 699.79 290.27 709.37 294.77 718.80 296.19 C 733.02 298.35 747.39 295.54 761.25 292.41 C 767.68 290.76 774.21 289.39 780.50 287.23 C 767.91 273.99 757.85 258.66 747.07 243.98 C 735.09 227.57 722.53 211.17 706.37 198.64 C 694.00 188.99 678.86 182.31 663.01 181.99 C 649.35 181.51 635.83 185.19 623.54 190.95 C 625.62 193.34 628.71 195.18 632.00 194.38 C 639.96 192.79 646.56 187.54 654.41 185.58 C 659.22 184.08 664.33 184.32 669.21 185.37 C 666.64 188.18 663.21 189.95 660.21 192.23 C 630.69 212.94 599.95 232.64 575.10 259.07 C 563.41 271.63 553.16 285.89 547.15 302.07 C 540.20 320.53 539.34 341.49 545.88 360.19 C 551.10 375.10 561.05 387.84 572.33 398.68 C 587.74 413.53 605.56 425.51 622.58 438.39 C 631.52 445.34 640.84 452.02 648.50 460.42 C 628.20 458.27 608.43 450.94 591.63 439.33 C 562.90 419.65 544.10 387.23 538.85 353.03 C 532.92 316.62 541.78 277.70 564.28 248.28 C 578.18 229.88 597.00 215.41 617.99 205.98 C 618.28 196.69 616.94 187.26 619.05 178.10 C 619.66 175.13 621.17 172.46 623.13 170.18 Z" />
<path fill="#000000" opacity="1.00" d=" M 256.39 204.96 C 256.44 203.83 256.87 202.80 257.39 201.82 C 262.18 218.20 263.39 236.03 258.40 252.52 C 254.16 266.87 245.53 279.54 235.31 290.31 C 210.21 316.18 177.96 333.14 148.80 353.81 C 134.38 364.03 120.33 375.17 109.48 389.27 C 111.57 375.84 117.22 363.02 124.80 351.79 C 134.14 338.01 146.80 326.89 160.14 317.12 C 177.90 304.14 197.03 293.06 214.06 279.08 C 225.25 269.92 235.43 259.31 242.79 246.80 C 250.38 234.10 254.82 219.64 256.39 204.96 Z" />
<path fill="#000000" opacity="1.00" d=" M 501.18 292.17 C 504.22 291.89 508.09 290.98 510.27 293.80 C 512.84 297.22 511.89 301.79 511.91 305.76 C 511.20 311.69 510.82 317.64 511.08 323.61 C 507.43 323.98 502.27 324.29 501.09 319.80 C 499.05 310.67 502.78 301.37 501.18 292.17 Z" />
<path fill="#000000" opacity="1.00" d=" M 255.47 312.63 C 287.23 310.57 319.51 316.90 348.16 330.77 C 370.09 341.45 390.00 356.81 404.53 376.52 C 406.32 379.04 408.39 381.41 409.67 384.25 C 408.81 403.51 405.35 422.71 398.95 440.92 C 392.73 458.66 383.61 475.33 372.43 490.43 C 348.27 523.27 316.05 548.75 287.50 577.51 C 251.67 588.35 210.65 584.77 178.95 564.07 C 169.98 557.93 161.31 550.82 155.14 541.80 C 153.04 517.20 148.39 492.94 144.27 468.63 C 139.73 441.78 136.93 413.79 144.01 387.11 C 146.82 376.98 150.28 366.82 155.79 357.83 C 180.99 329.85 218.31 314.83 255.47 312.63 M 216.24 334.14 C 189.45 346.01 165.93 366.71 153.55 393.56 C 145.35 411.14 142.72 431.02 145.03 450.22 C 156.80 450.01 168.69 449.71 180.19 446.96 C 188.35 445.00 196.51 441.57 202.32 435.32 C 208.77 428.35 211.29 418.51 210.93 409.20 C 199.01 401.03 183.37 407.33 170.76 401.24 C 166.19 399.06 164.87 393.72 165.12 389.07 C 178.18 389.12 191.60 388.01 204.28 391.85 C 211.64 394.03 218.86 399.35 220.55 407.22 C 222.80 418.12 221.05 429.30 221.47 440.33 C 204.06 454.37 182.32 461.96 160.47 465.58 C 157.70 487.00 159.51 509.78 169.84 529.09 C 177.95 544.32 190.90 556.29 204.80 566.21 C 205.73 566.94 206.87 567.34 208.07 567.33 C 224.87 568.34 241.87 567.82 258.42 564.55 C 278.01 560.77 296.93 552.94 312.89 540.90 C 324.51 532.30 334.57 521.74 343.19 510.17 C 357.36 491.30 367.94 470.08 377.65 448.66 C 384.87 432.33 392.11 415.98 398.96 399.49 C 389.39 399.19 379.79 400.43 370.26 399.29 C 366.24 398.75 362.00 397.73 358.96 394.89 C 357.92 392.38 357.67 389.62 356.94 387.02 C 353.36 373.05 346.77 359.68 336.91 349.07 C 325.10 336.08 308.73 327.77 291.62 324.37 C 266.29 319.28 239.67 323.73 216.24 334.14 M 368.94 373.93 C 368.26 376.55 367.69 379.49 369.01 382.02 C 371.38 386.85 376.89 389.20 381.97 389.87 C 386.55 390.45 392.14 389.00 394.11 384.38 C 389.53 383.10 388.45 378.13 388.95 373.98 C 382.28 373.98 375.61 374.07 368.94 373.93 Z" />
<path fill="#ffffff" opacity="1.00" d=" M 216.24 334.14 C 239.67 323.73 266.29 319.28 291.62 324.37 C 308.73 327.77 325.10 336.08 336.91 349.07 C 346.77 359.68 353.36 373.05 356.94 387.02 C 357.67 389.62 357.92 392.38 358.96 394.89 C 362.00 397.73 366.24 398.75 370.26 399.29 C 379.79 400.43 389.39 399.19 398.96 399.49 C 392.11 415.98 384.87 432.33 377.65 448.66 C 367.94 470.08 357.36 491.30 343.19 510.17 C 334.57 521.74 324.51 532.30 312.89 540.90 C 296.93 552.94 278.01 560.77 258.42 564.55 C 241.87 567.82 224.87 568.34 208.07 567.33 C 206.87 567.34 205.73 566.94 204.80 566.21 C 190.90 556.29 177.95 544.32 169.84 529.09 C 159.51 509.78 157.70 487.00 160.47 465.58 C 182.32 461.96 204.06 454.37 221.47 440.33 C 221.05 429.30 222.80 418.12 220.55 407.22 C 218.86 399.35 211.64 394.03 204.28 391.85 C 191.60 388.01 178.18 389.12 165.12 389.07 C 164.87 393.72 166.19 399.06 170.76 401.24 C 183.37 407.33 199.01 401.03 210.93 409.20 C 211.29 418.51 208.77 428.35 202.32 435.32 C 196.51 441.57 188.35 445.00 180.19 446.96 C 168.69 449.71 156.80 450.01 145.03 450.22 C 142.72 431.02 145.35 411.14 153.55 393.56 C 165.93 366.71 189.45 346.01 216.24 334.14 Z" />
<path fill="#ffffff" opacity="1.00" d=" M 368.94 373.93 C 375.61 374.07 382.28 373.98 388.95 373.98 C 388.45 378.13 389.53 383.10 394.11 384.38 C 392.14 389.00 386.55 390.45 381.97 389.87 C 376.89 389.20 371.38 386.85 369.01 382.02 C 367.69 379.49 368.26 376.55 368.94 373.93 Z" />
<path fill="#000000" opacity="1.00" d=" M 17.45 383.79 C 18.43 388.12 18.28 392.57 18.53 396.97 C 20.64 444.62 19.85 492.31 20.01 539.99 C 19.67 553.31 19.59 566.65 19.92 579.97 C 20.10 626.01 21.25 672.19 27.33 717.90 C 32.81 758.16 42.33 798.51 61.51 834.61 C 66.53 844.09 72.25 853.21 78.65 861.83 C 77.51 857.30 76.65 850.98 81.27 848.10 C 85.96 846.28 91.47 848.88 94.46 852.58 C 103.43 870.44 111.09 888.93 120.39 906.62 C 129.15 923.36 139.57 939.54 153.59 952.37 C 164.21 962.24 177.79 967.99 191.23 972.92 C 206.97 978.84 223.48 983.74 237.26 993.72 C 246.41 1000.23 253.47 1009.57 257.13 1020.20 C 253.61 1019.95 249.74 1020.97 246.44 1019.66 C 224.12 1003.06 198.99 990.92 175.05 976.95 C 153.93 964.63 133.15 950.52 118.10 930.92 C 112.68 923.84 107.89 916.20 104.47 907.95 C 99.20 919.17 98.80 932.15 100.81 944.22 C 105.35 970.57 121.28 993.56 124.52 1020.24 C 121.07 1020.26 117.63 1020.31 114.19 1020.09 C 110.33 1005.60 104.43 991.76 99.21 977.73 C 93.10 961.61 87.72 945.08 85.33 927.95 C 83.65 916.47 83.26 904.84 83.70 893.27 C 60.33 865.88 45.13 832.55 34.35 798.44 C 19.37 750.64 12.08 700.80 8.10 650.98 C 2.85 581.42 4.46 511.47 10.90 442.05 C 12.62 422.58 15.31 403.21 17.45 383.79 Z" />
<path fill="#ffffff" opacity="1.00" d=" M 892.95 383.91 C 911.19 405.04 926.24 429.49 933.24 456.72 C 937.51 472.93 939.03 489.75 938.96 506.48 C 933.19 496.58 928.28 486.17 923.15 475.93 C 908.94 446.87 897.21 416.13 892.95 383.91 Z" />
<path fill="#000000" opacity="1.00" d=" M 699.65 663.70 C 711.11 634.38 711.38 602.32 719.88 572.22 C 747.89 581.66 771.90 601.47 787.56 626.42 C 803.98 652.25 812.21 682.63 814.37 712.99 C 816.38 740.99 813.35 769.25 806.54 796.44 C 782.32 803.02 760.27 815.60 739.58 829.53 C 707.33 851.43 677.18 876.78 642.07 894.15 C 619.20 905.08 595.62 914.51 571.69 922.89 C 530.90 936.87 488.35 947.33 445.02 947.76 C 424.39 947.61 403.44 945.46 384.00 938.14 C 357.39 928.21 334.89 909.86 315.50 889.49 C 287.82 860.68 265.24 827.33 236.44 799.56 C 229.87 793.42 223.29 787.12 215.59 782.42 C 202.82 774.61 187.13 773.64 174.56 765.47 C 166.04 759.89 161.62 750.00 160.07 740.23 C 167.42 734.56 177.30 732.41 186.32 734.79 C 198.76 737.94 209.04 746.19 218.69 754.28 C 226.98 761.31 234.76 768.97 243.44 775.54 C 251.04 781.46 260.30 784.54 269.22 787.86 C 290.71 795.27 312.90 800.39 335.16 804.87 C 359.51 809.38 384.08 814.21 408.97 813.21 C 455.97 811.53 502.24 800.30 546.22 784.04 C 563.53 777.22 581.19 770.40 596.28 759.27 C 619.98 742.06 636.55 717.49 655.87 695.91 C 667.95 682.27 682.34 670.04 699.65 663.70 M 735.08 602.77 C 726.45 633.90 717.32 665.01 704.60 694.76 C 708.58 696.59 712.26 699.01 716.26 700.81 C 725.31 705.29 735.76 706.52 745.66 704.77 C 749.74 690.44 753.32 675.92 754.91 661.09 C 756.26 648.06 756.50 634.51 752.15 621.99 C 749.31 613.68 743.35 606.13 735.08 602.77 M 775.89 648.62 C 775.29 663.54 771.54 678.18 766.01 692.00 C 760.26 706.75 752.68 720.67 745.95 734.97 C 740.67 746.39 735.63 758.29 735.00 771.02 C 737.95 767.93 741.96 766.04 746.20 765.57 C 761.26 763.57 776.42 768.29 791.46 765.83 C 794.38 752.05 796.39 738.07 797.04 723.99 C 797.69 706.24 797.39 688.06 791.93 671.00 C 788.97 662.25 784.30 653.19 775.89 648.62 M 651.13 730.10 C 643.13 739.06 637.84 750.85 638.22 763.01 C 638.16 773.30 642.52 783.02 648.36 791.29 C 651.40 789.04 654.00 786.27 657.05 784.05 C 671.95 772.81 689.82 766.58 705.31 756.30 C 715.74 749.48 724.94 740.08 729.26 728.19 C 729.46 726.99 730.64 725.51 729.66 724.43 C 721.46 717.08 711.03 712.09 700.04 710.90 C 681.87 708.74 663.23 716.58 651.13 730.10 M 688.18 787.14 C 680.09 791.59 671.69 797.41 668.82 806.67 C 674.07 805.30 679.17 803.41 684.20 801.36 C 691.91 797.96 700.08 794.28 705.37 787.45 C 708.17 783.98 707.65 778.99 704.96 775.64 C 700.02 780.35 694.13 783.86 688.18 787.14 M 612.85 857.22 C 616.82 862.18 622.46 865.87 628.70 867.18 C 637.22 868.86 646.02 867.08 654.01 863.97 C 667.51 858.74 679.61 850.60 691.60 842.60 C 711.12 828.99 731.95 817.31 750.99 802.99 C 758.74 796.75 767.17 790.34 771.12 780.88 C 715.78 800.50 663.34 827.44 612.85 857.22 M 588.39 785.26 C 566.21 789.23 544.79 796.83 524.45 806.42 C 512.70 812.24 500.81 818.30 490.85 826.93 C 522.22 821.81 554.04 817.76 584.23 807.39 C 598.24 802.31 612.25 796.01 623.43 785.95 C 612.12 782.15 599.94 783.49 588.39 785.26 M 261.93 801.13 C 270.84 817.81 282.01 833.30 294.48 847.51 C 316.45 872.51 344.53 892.96 376.73 902.36 C 400.52 909.37 425.97 909.90 450.23 905.08 C 458.86 903.20 467.67 901.34 475.82 897.93 C 487.36 885.36 501.53 875.45 516.73 867.79 C 548.25 851.85 582.67 843.02 615.11 829.26 C 626.79 824.12 638.52 818.75 648.99 811.38 C 624.34 812.10 600.34 818.57 576.93 825.86 C 545.86 835.52 515.10 846.93 482.79 851.82 C 464.74 854.38 446.83 857.85 428.79 860.43 C 410.00 862.91 390.87 865.58 371.96 862.86 C 358.51 861.00 347.23 852.46 337.92 843.07 C 324.73 829.98 313.73 813.96 297.02 804.99 C 286.39 799.05 273.62 798.32 261.93 801.13 M 358.68 826.80 C 361.32 834.52 368.44 840.19 376.36 841.74 C 387.88 844.12 399.67 841.89 411.10 840.06 C 430.79 836.66 451.14 832.05 470.99 836.98 C 462.84 827.08 449.04 825.50 437.05 825.24 C 410.90 824.47 384.77 830.47 358.68 826.80 M 557.08 867.25 C 557.73 877.97 557.50 891.59 547.18 897.90 C 544.42 892.90 541.56 887.49 536.43 884.57 C 531.91 881.96 526.51 882.01 521.48 882.52 C 512.56 896.66 498.42 906.63 483.45 913.54 C 469.51 920.17 454.58 924.24 439.86 928.65 C 473.57 927.25 506.75 919.52 538.56 908.55 C 561.97 900.57 584.85 891.14 608.16 882.88 C 607.34 876.88 606.15 870.57 602.31 865.71 C 599.20 861.72 593.89 860.20 589.01 860.52 C 578.09 861.26 567.84 865.60 557.08 867.25 Z" />
<path fill="#ffffff" opacity="1.00" d=" M 735.08 602.77 C 743.35 606.13 749.31 613.68 752.15 621.99 C 756.50 634.51 756.26 648.06 754.91 661.09 C 753.32 675.92 749.74 690.44 745.66 704.77 C 735.76 706.52 725.31 705.29 716.26 700.81 C 712.26 699.01 708.58 696.59 704.60 694.76 C 717.32 665.01 726.45 633.90 735.08 602.77 Z" />
<path fill="#ffffff" opacity="1.00" d=" M 775.89 648.62 C 784.30 653.19 788.97 662.25 791.93 671.00 C 797.39 688.06 797.69 706.24 797.04 723.99 C 796.39 738.07 794.38 752.05 791.46 765.83 C 776.42 768.29 761.26 763.57 746.20 765.57 C 741.96 766.04 737.95 767.93 735.00 771.02 C 735.63 758.29 740.67 746.39 745.95 734.97 C 752.68 720.67 760.26 706.75 766.01 692.00 C 771.54 678.18 775.29 663.54 775.89 648.62 Z" />
<path fill="#ffffff" opacity="1.00" d=" M 651.13 730.10 C 663.23 716.58 681.87 708.74 700.04 710.90 C 711.03 712.09 721.46 717.08 729.66 724.43 C 730.64 725.51 729.46 726.99 729.26 728.19 C 724.94 740.08 715.74 749.48 705.31 756.30 C 689.82 766.58 671.95 772.81 657.05 784.05 C 654.00 786.27 651.40 789.04 648.36 791.29 C 642.52 783.02 638.16 773.30 638.22 763.01 C 637.84 750.85 643.13 739.06 651.13 730.10 Z" />
<path fill="#000000" opacity="1.00" d=" M 966.04 763.08 C 968.48 761.28 971.54 760.84 974.47 760.43 C 974.40 787.08 970.77 813.76 963.49 839.41 C 953.10 877.00 934.68 911.58 917.55 946.40 C 905.92 970.23 895.14 994.62 888.03 1020.22 C 882.86 1020.25 877.69 1020.27 872.53 1020.22 C 886.73 980.42 897.49 939.45 912.92 900.09 C 924.04 871.83 938.07 844.15 958.81 821.67 C 961.09 806.26 956.72 790.58 959.44 775.17 C 960.22 770.59 962.08 765.82 966.04 763.08 Z" />
<path fill="#ffffff" opacity="1.00" d=" M 688.18 787.14 C 694.13 783.86 700.02 780.35 704.96 775.64 C 707.65 778.99 708.17 783.98 705.37 787.45 C 700.08 794.28 691.91 797.96 684.20 801.36 C 679.17 803.41 674.07 805.30 668.82 806.67 C 671.69 797.41 680.09 791.59 688.18 787.14 Z" />
<path fill="#ffffff" opacity="1.00" d=" M 612.85 857.22 C 663.34 827.44 715.78 800.50 771.12 780.88 C 767.17 790.34 758.74 796.75 750.99 802.99 C 731.95 817.31 711.12 828.99 691.60 842.60 C 679.61 850.60 667.51 858.74 654.01 863.97 C 646.02 867.08 637.22 868.86 628.70 867.18 C 622.46 865.87 616.82 862.18 612.85 857.22 Z" />
<path fill="#ffffff" opacity="1.00" d=" M 588.39 785.26 C 599.94 783.49 612.12 782.15 623.43 785.95 C 612.25 796.01 598.24 802.31 584.23 807.39 C 554.04 817.76 522.22 821.81 490.85 826.93 C 500.81 818.30 512.70 812.24 524.45 806.42 C 544.79 796.83 566.21 789.23 588.39 785.26 Z" />
<path fill="#ffffff" opacity="1.00" d=" M 261.93 801.13 C 273.62 798.32 286.39 799.05 297.02 804.99 C 313.73 813.96 324.73 829.98 337.92 843.07 C 347.23 852.46 358.51 861.00 371.96 862.86 C 390.87 865.58 410.00 862.91 428.79 860.43 C 446.83 857.85 464.74 854.38 482.79 851.82 C 515.10 846.93 545.86 835.52 576.93 825.86 C 600.34 818.57 624.34 812.10 648.99 811.38 C 638.52 818.75 626.79 824.12 615.11 829.26 C 582.67 843.02 548.25 851.85 516.73 867.79 C 501.53 875.45 487.36 885.36 475.82 897.93 C 467.67 901.34 458.86 903.20 450.23 905.08 C 425.97 909.90 400.52 909.37 376.73 902.36 C 344.53 892.96 316.45 872.51 294.48 847.51 C 282.01 833.30 270.84 817.81 261.93 801.13 Z" />
<path fill="#ffffff" opacity="1.00" d=" M 358.68 826.80 C 384.77 830.47 410.90 824.47 437.05 825.24 C 449.04 825.50 462.84 827.08 470.99 836.98 C 451.14 832.05 430.79 836.66 411.10 840.06 C 399.67 841.89 387.88 844.12 376.36 841.74 C 368.44 840.19 361.32 834.52 358.68 826.80 Z" />
<path fill="#ffffff" opacity="1.00" d=" M 557.08 867.25 C 567.84 865.60 578.09 861.26 589.01 860.52 C 593.89 860.20 599.20 861.72 602.31 865.71 C 606.15 870.57 607.34 876.88 608.16 882.88 C 584.85 891.14 561.97 900.57 538.56 908.55 C 506.75 919.52 473.57 927.25 439.86 928.65 C 454.58 924.24 469.51 920.17 483.45 913.54 C 498.42 906.63 512.56 896.66 521.48 882.52 C 526.51 882.01 531.91 881.96 536.43 884.57 C 541.56 887.49 544.42 892.90 547.18 897.90 C 557.50 891.59 557.73 877.97 557.08 867.25 Z" />
</svg>
