<?xml version="1.0" encoding="UTF-8" ?>
<!DOCTYPE svg PUBLIC "-//W3C//DTD SVG 1.1//EN" "http://www.w3.org/Graphics/SVG/1.1/DTD/svg11.dtd">
<svg width="1013pt" height="1002pt" viewBox="0 0 1013 1002" version="1.1" xmlns="http://www.w3.org/2000/svg">
<path fill="#ffffff" opacity="1.00" d=" M 0.00 0.00 L 1013.00 0.00 L 1013.00 1002.00 L 0.00 1002.00 L 0.00 0.00 M 530.35 5.37 C 502.23 17.30 471.39 18.93 441.56 23.50 C 430.25 25.39 418.75 27.27 408.22 32.02 C 392.14 39.06 377.49 49.32 360.56 54.39 C 344.14 59.40 326.87 60.36 310.22 64.33 C 298.26 67.14 287.41 73.36 277.65 80.66 C 255.73 97.26 240.42 120.50 224.65 142.60 C 214.30 157.37 202.19 170.76 190.05 184.04 C 175.21 200.20 159.72 215.72 144.56 231.56 C 117.66 259.34 91.99 288.92 73.65 323.18 C 70.21 321.96 68.46 318.44 68.19 314.99 C 67.23 305.03 70.59 295.15 69.47 285.20 C 69.15 281.68 67.25 278.00 63.51 277.21 C 63.93 287.79 63.38 298.42 61.74 308.89 C 58.85 328.32 51.89 346.77 45.41 365.21 C 38.03 386.16 32.37 408.19 33.16 430.56 C 36.90 431.05 42.08 430.74 43.31 426.37 C 46.12 415.99 41.21 405.31 43.13 394.80 C 51.91 404.76 54.27 419.15 50.68 431.75 C 44.73 453.75 30.30 472.30 24.19 494.25 C 25.46 464.22 27.21 433.22 17.83 404.20 C 16.85 401.95 15.73 397.53 12.48 398.47 C 8.41 401.33 7.67 406.81 4.54 410.49 C 3.79 410.62 3.03 410.65 2.26 410.58 C 2.39 411.69 2.47 412.80 2.50 413.92 C 2.54 510.87 2.44 607.82 2.55 704.77 C 7.60 724.18 11.55 743.92 13.99 763.85 C 17.46 790.30 20.25 817.18 29.57 842.37 C 42.44 878.30 68.78 907.55 81.19 943.68 C 87.67 961.87 89.92 981.36 89.06 1000.59 C 94.08 1000.42 99.11 1000.48 104.13 1000.55 C 102.22 996.15 100.86 991.51 100.75 986.68 C 99.89 977.37 101.36 966.69 94.70 959.09 C 97.32 958.08 100.12 956.92 102.96 957.71 C 109.05 959.26 113.30 964.37 116.67 969.35 C 122.92 978.70 126.75 989.39 129.76 1000.15 C 136.42 1001.04 143.35 1000.17 150.11 1000.55 C 146.57 985.54 138.28 972.10 129.11 959.88 C 119.73 947.40 108.67 936.24 99.45 923.65 C 95.63 889.89 86.28 857.08 76.25 824.71 C 62.98 781.50 46.89 739.03 37.47 694.73 C 32.92 674.81 32.65 654.32 32.01 634.01 C 31.19 592.27 32.42 550.36 37.99 508.94 C 39.30 497.05 44.32 486.03 49.29 475.29 C 56.76 459.51 64.85 443.75 68.55 426.56 C 72.54 408.27 69.93 389.47 70.48 370.95 C 70.65 361.03 72.05 350.78 77.03 342.03 C 81.59 333.94 87.97 327.05 94.57 320.57 C 109.24 306.55 125.38 294.11 139.55 279.55 C 151.16 267.57 160.64 253.79 170.26 240.22 C 183.11 221.91 195.88 203.47 210.71 186.68 C 226.90 168.58 240.07 148.09 254.87 128.88 C 263.30 118.12 272.27 107.41 283.85 99.91 C 297.60 90.86 313.38 85.49 329.23 81.44 C 362.37 73.13 396.62 71.25 430.56 68.67 C 430.64 65.98 431.09 62.93 429.37 60.62 C 427.43 58.09 423.95 57.75 421.00 57.57 C 412.26 57.53 403.58 59.97 394.82 58.71 C 400.29 51.08 409.05 46.36 418.01 44.11 C 436.54 39.44 456.11 42.65 474.55 37.43 C 499.62 31.07 522.33 17.11 548.11 13.31 C 572.62 10.86 597.63 11.00 621.77 16.32 C 639.65 20.35 656.66 27.91 671.80 38.24 C 688.31 49.37 703.01 62.90 718.07 75.87 C 733.97 89.92 750.19 104.03 762.50 121.47 C 773.12 136.38 780.82 153.07 788.23 169.73 C 795.82 186.51 805.58 203.00 806.92 221.79 C 808.60 221.03 810.60 220.27 811.26 218.34 C 813.20 212.97 811.77 207.17 812.00 201.61 C 823.78 212.27 835.58 223.15 845.05 235.99 C 854.88 249.34 861.17 265.35 862.53 281.90 C 858.70 279.71 855.80 276.28 853.28 272.75 C 846.14 262.66 842.68 250.52 835.72 240.33 C 831.25 233.72 824.71 228.15 816.78 226.36 C 816.42 237.77 819.56 249.04 824.94 259.03 C 834.01 275.99 847.19 290.19 857.98 306.01 C 878.39 335.24 889.08 369.65 899.70 403.30 C 909.38 434.82 921.29 465.58 932.67 496.51 C 949.26 541.72 964.65 587.94 969.84 636.05 C 972.45 663.98 970.36 692.03 969.50 719.99 C 968.76 745.40 967.90 771.11 972.86 796.19 C 976.71 819.02 983.56 842.39 978.46 865.59 C 972.81 891.48 958.62 914.24 946.48 937.44 C 935.98 957.17 926.16 977.95 923.75 1000.44 C 932.28 1000.62 940.80 1000.39 949.33 1000.57 C 950.66 995.73 951.66 990.81 953.18 986.03 C 964.18 948.89 987.92 917.05 998.72 879.84 C 1005.09 858.88 1007.01 836.76 1005.69 814.96 C 1005.28 810.71 1005.91 806.34 1004.69 802.21 C 1004.16 800.47 1003.00 798.57 1000.96 798.61 C 996.04 798.72 992.63 803.21 987.92 804.03 C 985.61 804.38 985.06 801.77 985.24 800.04 C 985.05 737.00 987.99 673.99 986.87 610.96 C 985.83 560.44 982.03 509.37 967.38 460.75 C 958.23 430.75 945.16 401.73 926.75 376.22 C 910.72 352.96 891.06 331.34 882.00 304.08 C 874.12 280.29 874.36 254.64 866.23 230.92 C 859.67 212.53 846.13 197.97 833.19 183.84 C 806.40 155.14 786.13 121.19 760.28 91.72 C 742.51 71.22 721.01 53.28 695.54 43.29 C 693.16 38.92 695.98 32.80 700.00 30.02 C 704.42 26.90 709.61 23.67 710.44 17.79 C 704.48 18.02 698.51 18.22 692.57 17.59 C 674.44 16.02 657.38 8.51 639.16 7.57 C 639.03 5.84 638.95 4.12 638.84 2.40 C 605.25 2.66 571.65 2.41 538.07 2.52 C 535.27 2.69 532.91 4.43 530.35 5.37 M 531.87 170.17 C 533.41 197.29 531.73 224.45 529.84 251.51 C 526.53 297.29 521.89 343.90 531.66 389.23 C 537.48 385.79 540.58 379.15 543.18 373.15 C 549.67 355.56 549.44 336.42 548.98 317.94 C 548.22 293.74 545.61 269.58 546.33 245.34 C 547.06 230.38 548.64 214.56 557.13 201.76 L 557.94 201.48 C 567.57 204.59 576.56 209.45 585.04 214.93 C 602.60 226.50 617.82 241.35 636.03 251.97 C 643.35 256.47 651.40 259.55 659.37 262.64 C 672.65 274.79 682.19 290.38 695.17 302.83 C 706.03 313.64 720.20 321.46 735.54 323.28 C 732.45 317.61 728.52 312.44 724.73 307.22 C 702.14 276.98 672.97 252.33 641.99 231.07 C 610.59 209.44 577.23 190.89 544.36 171.65 C 542.47 170.77 541.82 168.71 540.59 167.19 C 537.40 165.89 534.56 168.87 531.87 170.17 M 180.57 399.43 C 180.42 406.61 180.39 413.79 180.92 420.96 C 182.48 458.28 177.34 495.64 180.65 532.93 C 181.70 545.41 181.50 558.26 185.62 570.26 C 187.40 575.64 190.95 580.47 196.00 583.20 C 203.26 573.86 204.63 561.50 204.19 550.05 C 203.10 527.34 197.05 505.26 194.77 482.69 C 192.88 465.16 193.13 446.55 201.08 430.42 C 215.92 439.01 230.22 448.55 245.44 456.51 C 261.67 465.19 278.91 472.16 296.89 476.22 C 310.39 479.36 324.23 480.85 338.07 481.20 C 347.99 481.49 357.60 486.12 367.59 484.37 C 371.52 483.71 374.19 479.94 374.29 476.08 C 370.75 469.98 364.15 466.39 357.64 464.25 C 345.15 460.42 331.94 460.42 319.00 460.50 C 306.93 460.36 294.81 461.34 282.78 460.41 C 270.88 452.35 259.57 443.37 247.66 435.28 C 226.79 420.81 204.64 407.80 180.57 399.43 M 740.64 506.54 C 743.56 530.93 755.51 552.84 766.46 574.41 C 775.14 591.42 782.95 609.55 783.69 628.91 C 784.11 642.61 781.49 656.46 776.10 669.05 C 770.10 672.31 763.91 675.30 758.35 679.33 C 745.80 687.83 734.18 697.93 720.27 704.24 C 710.54 708.81 699.71 710.73 689.00 710.53 C 674.09 710.64 659.52 705.75 646.79 698.21 C 628.43 687.47 612.53 672.67 592.90 664.10 C 595.43 670.01 598.08 675.92 599.72 682.16 C 604.58 698.98 604.59 717.26 599.18 733.94 C 592.38 755.27 577.39 773.70 558.33 785.32 C 544.53 793.81 528.20 798.10 512.01 797.03 C 497.70 796.42 483.80 791.15 472.31 782.67 C 453.91 769.18 441.09 749.90 424.82 734.18 C 416.15 726.02 406.28 718.35 394.58 715.29 C 403.44 733.66 414.15 751.21 426.69 767.32 C 438.87 782.82 453.39 796.91 470.92 806.21 C 501.06 822.77 539.97 820.20 568.57 801.55 C 585.89 790.46 599.54 774.40 609.77 756.70 C 617.98 742.35 624.31 726.89 628.50 710.89 C 630.86 711.90 632.71 713.71 634.80 715.17 C 645.47 722.86 658.30 727.31 671.34 728.66 C 689.45 730.58 707.78 727.13 724.79 720.95 C 749.09 711.89 771.81 697.61 788.98 678.01 C 792.89 674.08 793.66 668.37 795.25 663.29 C 805.82 622.15 796.96 577.16 774.50 541.45 C 765.64 527.82 754.75 514.91 740.64 506.54 Z" />
<path fill="#000000" opacity="1.00" d=" M 530.35 5.37 C 532.91 4.43 535.27 2.69 538.07 2.52 C 571.65 2.41 605.25 2.66 638.84 2.40 C 638.95 4.12 639.03 5.84 639.16 7.57 C 657.38 8.51 674.44 16.02 692.57 17.59 C 698.51 18.22 704.48 18.02 710.44 17.79 C 709.61 23.67 704.42 26.90 700.00 30.02 C 695.98 32.80 693.16 38.92 695.54 43.29 C 721.01 53.28 742.51 71.22 760.28 91.72 C 786.13 121.19 806.40 155.14 833.19 183.84 C 846.13 197.97 859.67 212.53 866.23 230.92 C 874.36 254.64 874.12 280.29 882.00 304.08 C 891.06 331.34 910.72 352.96 926.75 376.22 C 945.16 401.73 958.23 430.75 967.38 460.75 C 982.03 509.37 985.83 560.44 986.87 610.96 C 987.99 673.99 985.05 737.00 985.24 800.04 C 985.06 801.77 985.61 804.38 987.92 804.03 C 992.63 803.21 996.04 798.72 1000.96 798.61 C 1003.00 798.57 1004.16 800.47 1004.69 802.21 C 1005.91 806.34 1005.28 810.71 1005.69 814.96 C 1007.01 836.76 1005.09 858.88 998.72 879.84 C 987.92 917.05 964.18 948.89 953.18 986.03 C 951.66 990.81 950.66 995.73 949.33 1000.57 C 940.80 1000.39 932.28 1000.62 923.75 1000.44 C 926.16 977.95 935.98 957.17 946.48 937.44 C 958.62 914.24 972.81 891.48 978.46 865.59 C 983.56 842.39 976.71 819.02 972.86 796.19 C 967.90 771.11 968.76 745.40 969.50 719.99 C 970.36 692.03 972.45 663.98 969.84 636.05 C 964.65 587.94 949.26 541.72 932.67 496.51 C 921.29 465.58 909.38 434.82 899.70 403.30 C 889.08 369.65 878.39 335.24 857.98 306.01 C 847.19 290.19 834.01 275.99 824.94 259.03 C 819.56 249.04 816.42 237.77 816.78 226.36 C 824.71 228.15 831.25 233.72 835.72 240.33 C 842.68 250.52 846.14 262.66 853.28 272.75 C 855.80 276.28 858.70 279.71 862.53 281.90 C 861.17 265.35 854.88 249.34 845.05 235.99 C 835.58 223.15 823.78 212.27 812.00 201.61 C 811.77 207.17 813.20 212.97 811.26 218.34 C 810.60 220.27 808.60 221.03 806.92 221.79 C 805.58 203.00 795.82 186.51 788.23 169.73 C 780.82 153.07 773.12 136.38 762.50 121.47 C 750.19 104.03 733.97 89.92 718.07 75.87 C 703.01 62.90 688.31 49.37 671.80 38.24 C 656.66 27.91 639.65 20.35 621.77 16.32 C 597.63 11.00 572.62 10.86 548.11 13.31 C 522.33 17.11 499.62 31.07 474.55 37.43 C 456.11 42.65 436.54 39.44 418.01 44.11 C 409.05 46.36 400.29 51.08 394.82 58.71 C 403.58 59.97 412.26 57.53 421.00 57.57 C 423.95 57.75 427.43 58.09 429.37 60.62 C 431.09 62.93 430.64 65.98 430.56 68.67 C 396.62 71.25 362.37 73.13 329.23 81.44 C 313.38 85.49 297.60 90.86 283.85 99.91 C 272.27 107.41 263.30 118.12 254.87 128.88 C 240.07 148.09 226.90 168.58 210.71 186.68 C 195.88 203.47 183.11 221.91 170.26 240.22 C 160.64 253.79 151.16 267.57 139.55 279.55 C 125.38 294.11 109.24 306.55 94.57 320.57 C 87.97 327.05 81.59 333.94 77.03 342.03 C 72.05 350.78 70.65 361.03 70.48 370.95 C 69.93 389.47 72.54 408.27 68.55 426.56 C 64.85 443.75 56.76 459.51 49.29 475.29 C 44.32 486.03 39.30 497.05 37.99 508.94 C 32.42 550.36 31.19 592.27 32.01 634.01 C 32.65 654.32 32.92 674.81 37.47 694.73 C 46.89 739.03 62.98 781.50 76.25 824.71 C 86.28 857.08 95.63 889.89 99.45 923.65 C 108.67 936.24 119.73 947.40 129.11 959.88 C 138.28 972.10 146.57 985.54 150.11 1000.55 C 143.35 1000.17 136.42 1001.04 129.76 1000.15 C 126.75 989.39 122.92 978.70 116.67 969.35 C 113.30 964.37 109.05 959.26 102.96 957.71 C 100.12 956.92 97.32 958.08 94.70 959.09 C 101.36 966.69 99.89 977.37 100.75 986.68 C 100.86 991.51 102.22 996.15 104.13 1000.55 C 99.11 1000.48 94.08 1000.42 89.06 1000.59 C 89.92 981.36 87.67 961.87 81.19 943.68 C 68.78 907.55 42.44 878.30 29.57 842.37 C 20.25 817.18 17.46 790.30 13.99 763.85 C 11.55 743.92 7.60 724.18 2.55 704.77 C 2.44 607.82 2.54 510.87 2.50 413.92 C 2.47 412.80 2.39 411.69 2.26 410.58 C 3.03 410.65 3.79 410.62 4.54 410.49 C 7.67 406.81 8.41 401.33 12.48 398.47 C 15.73 397.53 16.85 401.95 17.83 404.20 C 27.21 433.22 25.46 464.22 24.19 494.25 C 30.30 472.30 44.73 453.75 50.68 431.75 C 54.27 419.15 51.91 404.76 43.13 394.80 C 41.21 405.31 46.12 415.99 43.31 426.37 C 42.08 430.74 36.90 431.05 33.16 430.56 C 32.37 408.19 38.03 386.16 45.41 365.21 C 51.89 346.77 58.85 328.32 61.74 308.89 C 63.38 298.42 63.93 287.79 63.51 277.21 C 67.25 278.00 69.15 281.68 69.47 285.20 C 70.59 295.15 67.23 305.03 68.19 314.99 C 68.46 318.44 70.21 321.96 73.65 323.18 C 91.99 288.92 117.66 259.34 144.56 231.56 C 159.72 215.72 175.21 200.20 190.05 184.04 C 202.19 170.76 214.30 157.37 224.65 142.60 C 240.42 120.50 255.73 97.26 277.65 80.66 C 287.41 73.36 298.26 67.14 310.22 64.33 C 326.87 60.36 344.14 59.40 360.56 54.39 C 377.49 49.32 392.14 39.06 408.22 32.02 C 418.75 27.27 430.25 25.39 441.56 23.50 C 471.39 18.93 502.23 17.30 530.35 5.37 M 919.16 396.05 C 924.54 422.04 932.51 447.42 941.92 472.22 C 951.23 496.85 961.06 521.30 969.71 546.18 C 970.30 519.87 965.82 493.44 956.01 469.00 C 945.91 443.63 931.47 420.34 919.16 396.05 M 16.35 573.28 C 16.50 577.94 16.12 582.61 15.56 587.24 C 13.42 610.10 12.02 633.04 11.74 655.99 C 11.60 678.76 13.49 701.49 16.15 724.09 C 19.53 751.94 24.63 779.64 32.60 806.56 C 43.40 843.00 59.73 878.29 83.78 907.94 C 82.33 899.21 80.32 890.59 77.88 882.09 C 67.62 846.81 52.25 813.17 43.42 777.44 C 39.07 760.85 42.87 743.32 38.38 726.75 C 34.92 713.19 25.59 702.27 20.33 689.49 C 17.16 682.11 17.13 673.95 16.58 666.08 C 15.39 642.75 15.62 619.38 16.22 596.04 C 16.23 588.46 17.09 580.91 16.61 573.33 L 16.35 573.28 M 991.29 834.27 C 989.10 839.59 989.29 847.21 993.80 851.25 C 995.89 846.75 995.61 841.51 993.98 836.92 C 993.43 835.69 993.05 833.73 991.29 834.27 Z" />
<path fill="#000000" opacity="1.00" d=" M 531.87 170.17 C 534.56 168.87 537.40 165.89 540.59 167.19 C 541.82 168.71 542.47 170.77 544.36 171.65 C 577.23 190.89 610.59 209.44 641.99 231.07 C 672.97 252.33 702.14 276.98 724.73 307.22 C 728.52 312.44 732.45 317.61 735.54 323.28 C 720.20 321.46 706.03 313.64 695.17 302.83 C 682.19 290.38 672.65 274.79 659.37 262.64 C 651.40 259.55 643.35 256.47 636.03 251.97 C 617.82 241.35 602.60 226.50 585.04 214.93 C 576.56 209.45 567.57 204.59 557.94 201.48 L 557.13 201.76 C 548.64 214.56 547.06 230.38 546.33 245.34 C 545.61 269.58 548.22 293.74 548.98 317.94 C 549.44 336.42 549.67 355.56 543.18 373.15 C 540.58 379.15 537.48 385.79 531.66 389.23 C 521.89 343.90 526.53 297.29 529.84 251.51 C 531.73 224.45 533.41 197.29 531.87 170.17 Z" />
<path fill="#ffffff" opacity="1.00" d=" M 919.16 396.05 C 931.47 420.34 945.91 443.63 956.01 469.00 C 965.82 493.44 970.30 519.87 969.71 546.18 C 961.06 521.30 951.23 496.85 941.92 472.22 C 932.51 447.42 924.54 422.04 919.16 396.05 Z" />
<path fill="#000000" opacity="1.00" d=" M 180.57 399.43 C 204.64 407.80 226.79 420.81 247.66 435.28 C 259.57 443.37 270.88 452.35 282.78 460.41 C 294.81 461.34 306.93 460.36 319.00 460.50 C 331.94 460.42 345.15 460.42 357.64 464.25 C 364.15 466.39 370.75 469.98 374.29 476.08 C 374.19 479.94 371.52 483.71 367.59 484.37 C 357.60 486.12 347.99 481.49 338.07 481.20 C 324.23 480.85 310.39 479.36 296.89 476.22 C 278.91 472.16 261.67 465.19 245.44 456.51 C 230.22 448.55 215.92 439.01 201.08 430.42 C 193.13 446.55 192.88 465.16 194.77 482.69 C 197.05 505.26 203.10 527.34 204.19 550.05 C 204.63 561.50 203.26 573.86 196.00 583.20 C 190.95 580.47 187.40 575.64 185.62 570.26 C 181.50 558.26 181.70 545.41 180.65 532.93 C 177.34 495.64 182.48 458.28 180.92 420.96 C 180.39 413.79 180.42 406.61 180.57 399.43 Z" />
<path fill="#000000" opacity="1.00" d=" M 740.64 506.54 C 754.75 514.91 765.64 527.82 774.50 541.45 C 796.96 577.16 805.82 622.15 795.25 663.29 C 793.66 668.37 792.89 674.08 788.98 678.01 C 771.81 697.61 749.09 711.89 724.79 720.95 C 707.78 727.13 689.45 730.58 671.34 728.66 C 658.30 727.31 645.47 722.86 634.80 715.17 C 632.71 713.71 630.86 711.90 628.50 710.89 C 624.31 726.89 617.98 742.35 609.77 756.70 C 599.54 774.40 585.89 790.46 568.57 801.55 C 539.97 820.20 501.06 822.77 470.92 806.21 C 453.39 796.91 438.87 782.82 426.69 767.32 C 414.15 751.21 403.44 733.66 394.58 715.29 C 406.28 718.35 416.15 726.02 424.82 734.18 C 441.09 749.90 453.91 769.18 472.31 782.67 C 483.80 791.15 497.70 796.42 512.01 797.03 C 528.20 798.10 544.53 793.81 558.33 785.32 C 577.39 773.70 592.38 755.27 599.18 733.94 C 604.59 717.26 604.58 698.98 599.72 682.16 C 598.08 675.92 595.43 670.01 592.90 664.10 C 612.53 672.67 628.43 687.47 646.79 698.21 C 659.52 705.75 674.09 710.64 689.00 710.53 C 699.71 710.73 710.54 708.81 720.27 704.24 C 734.18 697.93 745.80 687.83 758.35 679.33 C 763.91 675.30 770.10 672.31 776.10 669.05 C 781.49 656.46 784.11 642.61 783.69 628.91 C 782.95 609.55 775.14 591.42 766.46 574.41 C 755.51 552.84 743.56 530.93 740.64 506.54 Z" />
<path fill="#ffffff" opacity="1.00" d=" M 16.35 573.28 L 16.61 573.33 C 17.09 580.91 16.23 588.46 16.22 596.04 C 15.62 619.38 15.39 642.75 16.58 666.08 C 17.13 673.95 17.16 682.11 20.33 689.49 C 25.59 702.27 34.92 713.19 38.38 726.75 C 42.87 743.32 39.07 760.85 43.42 777.44 C 52.25 813.17 67.62 846.81 77.88 882.09 C 80.32 890.59 82.33 899.21 83.78 907.94 C 59.73 878.29 43.40 843.00 32.60 806.56 C 24.63 779.64 19.53 751.94 16.15 724.09 C 13.49 701.49 11.60 678.76 11.74 655.99 C 12.02 633.04 13.42 610.10 15.56 587.24 C 16.12 582.61 16.50 577.94 16.35 573.28 Z" />
<path fill="#ffffff" opacity="1.00" d=" M 991.29 834.27 C 993.05 833.73 993.43 835.69 993.98 836.92 C 995.61 841.51 995.89 846.75 993.80 851.25 C 989.29 847.21 989.10 839.59 991.29 834.27 Z" />
</svg>
