<?xml version="1.0" encoding="UTF-8" ?>
<!DOCTYPE svg PUBLIC "-//W3C//DTD SVG 1.1//EN" "http://www.w3.org/Graphics/SVG/1.1/DTD/svg11.dtd">
<svg width="327pt" height="330pt" viewBox="0 0 327 330" version="1.1" xmlns="http://www.w3.org/2000/svg">
<path fill="#ffffff" opacity="1.00" d=" M 0.00 0.00 L 205.69 0.00 C 204.65 3.28 203.05 6.35 201.49 9.40 C 199.86 12.52 196.74 14.39 193.79 16.09 C 188.60 18.82 184.00 22.61 178.46 24.67 C 171.61 27.14 164.58 29.04 157.50 30.72 C 160.56 22.88 165.82 14.92 163.61 6.13 C 163.16 6.20 162.26 6.34 161.81 6.41 C 159.24 11.63 155.02 15.98 150.19 19.19 C 145.80 22.12 142.98 26.81 138.52 29.66 C 133.67 32.84 130.06 38.59 123.81 39.06 C 118.48 39.34 113.50 41.34 108.43 42.78 C 102.13 44.66 97.52 49.60 92.29 53.30 C 82.88 60.28 76.22 70.07 69.93 79.78 C 64.82 86.64 61.70 94.70 56.79 101.69 C 52.94 110.92 52.45 121.12 52.13 131.01 C 51.90 135.09 53.35 138.96 55.29 142.47 C 58.52 148.12 56.81 154.89 58.54 160.92 C 59.04 162.64 60.47 164.15 60.25 166.02 C 58.92 177.27 53.22 187.55 52.40 198.90 C 51.99 202.96 52.56 207.03 52.15 211.09 C 58.64 218.51 65.70 225.41 72.62 232.43 C 82.80 242.58 92.86 252.86 103.41 262.62 C 110.53 270.47 121.27 272.96 130.99 275.97 C 136.03 277.03 140.29 280.45 145.53 280.75 C 154.44 281.44 163.42 281.16 172.35 280.72 C 172.83 284.14 173.34 287.56 173.77 290.99 C 169.07 295.22 164.43 299.53 159.65 303.67 C 152.37 311.46 147.19 320.86 141.82 330.00 L 0.00 330.00 L 0.00 0.00 Z" />
<path fill="#000000" opacity="1.00" d=" M 205.69 0.00 L 211.76 0.00 C 213.92 6.81 214.11 14.02 213.44 21.08 C 212.66 29.15 215.62 36.99 215.13 45.06 C 214.74 51.95 216.36 59.43 212.90 65.78 C 208.67 74.05 203.28 81.65 198.36 89.51 C 197.59 90.65 196.25 91.19 195.15 91.95 C 196.82 94.46 197.92 97.26 198.65 100.17 C 203.07 100.55 205.80 104.85 210.20 105.27 C 217.36 106.24 224.76 106.11 231.63 108.62 C 238.87 110.79 244.44 116.12 249.85 121.12 C 261.19 131.82 269.49 145.34 275.72 159.53 C 280.94 171.29 281.27 185.00 276.91 197.08 C 269.54 216.52 256.97 233.28 244.92 250.00 C 242.36 253.25 242.00 257.54 240.05 261.10 C 237.02 265.77 230.68 265.98 226.90 269.79 C 224.06 272.64 220.90 275.51 216.80 276.28 C 206.49 278.19 195.95 277.02 185.56 277.93 C 182.73 278.74 180.20 280.46 177.19 280.69 C 177.31 283.94 177.03 287.40 178.88 290.27 C 180.98 290.19 183.30 289.37 185.20 290.66 C 191.16 294.07 196.91 297.84 202.92 301.16 C 202.76 301.60 202.44 302.48 202.28 302.92 C 204.71 303.50 207.21 304.20 209.21 305.79 C 219.23 313.18 228.10 321.98 237.61 330.00 L 226.04 330.00 L 227.34 329.99 C 218.03 319.42 207.36 310.07 195.78 302.07 C 190.57 299.28 185.05 297.11 179.77 294.44 C 181.16 306.27 182.07 318.16 183.37 330.00 L 176.59 330.00 C 176.53 319.34 176.17 308.67 175.88 298.01 C 163.87 305.73 156.81 318.43 149.12 330.00 L 141.82 330.00 C 147.19 320.86 152.37 311.46 159.65 303.67 C 164.43 299.53 169.07 295.22 173.77 290.99 C 173.34 287.56 172.83 284.14 172.35 280.72 C 163.42 281.16 154.44 281.44 145.53 280.75 C 140.29 280.45 136.03 277.03 130.99 275.97 C 121.27 272.96 110.53 270.47 103.41 262.62 C 92.86 252.86 82.80 242.58 72.62 232.43 C 65.70 225.41 58.64 218.51 52.15 211.09 C 52.56 207.03 51.99 202.96 52.40 198.90 C 53.22 187.55 58.92 177.27 60.25 166.02 C 60.47 164.15 59.04 162.64 58.54 160.92 C 56.81 154.89 58.52 148.12 55.29 142.47 C 53.35 138.96 51.90 135.09 52.13 131.01 C 52.45 121.12 52.94 110.92 56.79 101.69 C 61.70 94.70 64.82 86.64 69.93 79.78 C 76.22 70.07 82.88 60.28 92.29 53.30 C 97.52 49.60 102.13 44.66 108.43 42.78 C 113.50 41.34 118.48 39.34 123.81 39.06 C 130.06 38.59 133.67 32.84 138.52 29.66 C 142.98 26.81 145.80 22.12 150.19 19.19 C 155.02 15.98 159.24 11.63 161.81 6.41 C 162.26 6.34 163.16 6.20 163.61 6.13 C 165.82 14.92 160.56 22.88 157.50 30.72 C 164.58 29.04 171.61 27.14 178.46 24.67 C 184.00 22.61 188.60 18.82 193.79 16.09 C 196.74 14.39 199.86 12.52 201.49 9.40 C 203.05 6.35 204.65 3.28 205.69 0.00 M 133.15 67.43 C 129.35 67.92 125.74 69.25 121.98 69.93 C 113.64 71.54 105.93 75.92 100.00 81.96 C 93.22 86.85 88.34 93.73 82.88 99.95 C 76.90 107.91 74.87 117.86 70.87 126.81 C 69.08 132.67 66.33 138.51 66.44 144.74 C 68.06 149.98 68.00 155.55 67.31 160.94 C 67.12 162.53 65.61 163.42 64.64 164.54 C 63.88 172.77 61.07 180.59 58.68 188.44 C 56.58 195.44 55.81 202.84 56.74 210.11 C 73.44 227.73 90.80 244.71 108.20 261.63 C 109.12 259.15 111.46 260.88 113.12 261.43 C 112.04 261.57 109.88 261.84 108.80 261.98 C 116.52 268.61 127.13 269.50 136.06 273.71 C 139.73 274.60 143.11 276.71 146.98 276.65 C 156.66 276.93 166.34 276.81 176.01 276.42 C 180.02 276.64 183.00 273.06 187.12 273.55 C 196.78 273.91 206.56 273.98 216.10 272.15 C 219.89 271.39 222.31 268.25 225.04 265.84 C 228.58 264.26 231.83 262.14 235.19 260.21 C 238.40 257.52 237.88 252.71 240.30 249.45 C 249.09 236.50 259.05 224.24 266.20 210.24 C 271.31 200.94 275.85 190.85 275.78 180.03 C 276.12 167.66 270.10 156.37 264.07 145.98 C 257.33 134.25 248.15 123.94 237.25 115.94 C 230.99 111.46 223.05 111.30 215.97 108.96 C 212.12 107.63 208.01 107.36 203.97 107.52 C 202.54 106.53 201.15 105.49 199.77 104.44 C 198.82 105.26 197.89 106.09 196.97 106.93 C 195.72 106.33 194.49 105.72 193.27 105.09 C 193.95 103.46 194.99 101.79 194.28 99.97 C 192.78 94.39 188.51 90.24 185.25 85.66 C 180.43 79.68 178.28 71.83 172.44 66.64 C 164.42 62.02 154.86 62.74 146.03 61.27 C 141.86 63.53 138.01 66.84 133.15 67.43 Z" />
<path fill="#ffffff" opacity="1.00" d=" M 211.76 0.00 L 327.00 0.00 L 327.00 330.00 L 237.61 330.00 C 228.10 321.98 219.23 313.18 209.21 305.79 C 207.21 304.20 204.71 303.50 202.28 302.92 C 202.44 302.48 202.76 301.60 202.92 301.16 C 196.91 297.84 191.16 294.07 185.20 290.66 C 183.30 289.37 180.98 290.19 178.88 290.27 C 177.03 287.40 177.31 283.94 177.19 280.69 C 180.20 280.46 182.73 278.74 185.56 277.93 C 195.95 277.02 206.49 278.19 216.80 276.28 C 220.90 275.51 224.06 272.64 226.90 269.79 C 230.68 265.98 237.02 265.77 240.05 261.10 C 242.00 257.54 242.36 253.25 244.92 250.00 C 256.97 233.28 269.54 216.52 276.91 197.08 C 281.27 185.00 280.94 171.29 275.72 159.53 C 269.49 145.34 261.19 131.82 249.85 121.12 C 244.44 116.12 238.87 110.79 231.63 108.62 C 224.76 106.11 217.36 106.24 210.20 105.27 C 205.80 104.85 203.07 100.55 198.65 100.17 C 197.92 97.26 196.82 94.46 195.15 91.95 C 196.25 91.19 197.59 90.65 198.36 89.51 C 203.28 81.65 208.67 74.05 212.90 65.78 C 216.36 59.43 214.74 51.95 215.13 45.06 C 215.62 36.99 212.66 29.15 213.44 21.08 C 214.11 14.02 213.92 6.81 211.76 0.00 Z" />
<path fill="#ffffff" opacity="1.00" d=" M 133.15 67.43 C 138.01 66.84 141.86 63.53 146.03 61.27 C 154.86 62.74 164.42 62.02 172.44 66.64 C 178.28 71.83 180.43 79.68 185.25 85.66 C 188.51 90.24 192.78 94.39 194.28 99.97 C 194.99 101.79 193.95 103.46 193.27 105.09 C 194.49 105.72 195.72 106.33 196.97 106.93 C 197.89 106.09 198.82 105.26 199.77 104.44 C 201.15 105.49 202.54 106.53 203.97 107.52 C 208.01 107.36 212.12 107.63 215.97 108.96 C 223.05 111.30 230.99 111.46 237.25 115.94 C 248.15 123.94 257.33 134.25 264.07 145.98 C 270.10 156.37 276.12 167.66 275.78 180.03 C 275.85 190.85 271.31 200.94 266.20 210.24 C 259.05 224.24 249.09 236.50 240.30 249.45 C 237.88 252.71 238.40 257.52 235.19 260.21 C 231.83 262.14 228.58 264.26 225.04 265.84 C 222.31 268.25 219.89 271.39 216.10 272.15 C 206.56 273.98 196.78 273.91 187.12 273.55 C 183.00 273.06 180.02 276.64 176.01 276.42 C 166.34 276.81 156.66 276.93 146.98 276.65 C 143.11 276.71 139.73 274.60 136.06 273.71 C 127.13 269.50 116.52 268.61 108.80 261.98 C 109.88 261.84 112.04 261.57 113.12 261.43 C 111.46 260.88 109.12 259.15 108.20 261.63 C 90.80 244.71 73.44 227.73 56.74 210.11 C 55.81 202.84 56.58 195.44 58.68 188.44 C 61.07 180.59 63.88 172.77 64.64 164.54 C 65.61 163.42 67.12 162.53 67.31 160.94 C 68.00 155.55 68.06 149.98 66.44 144.74 C 66.33 138.51 69.08 132.67 70.87 126.81 C 74.87 117.86 76.90 107.91 82.88 99.95 C 88.34 93.73 93.22 86.85 100.00 81.96 C 105.93 75.92 113.64 71.54 121.98 69.93 C 125.74 69.25 129.35 67.92 133.15 67.43 M 113.58 85.61 C 111.53 87.12 109.21 88.11 106.75 88.71 C 106.65 89.16 106.45 90.07 106.35 90.52 C 101.17 93.99 96.66 98.30 91.95 102.35 C 92.55 103.12 92.62 105.03 93.95 104.78 C 95.51 103.89 96.66 101.89 98.71 102.41 C 101.94 99.46 105.56 96.91 109.88 95.88 C 114.83 93.26 120.52 93.17 125.98 93.62 C 128.91 94.54 131.62 96.19 134.77 96.33 C 133.68 93.33 132.35 89.96 129.02 88.86 C 127.76 87.63 126.45 86.46 125.07 85.38 C 121.26 85.50 117.04 83.09 113.58 85.61 M 158.98 89.87 C 156.76 90.93 157.87 93.52 157.58 95.43 C 159.50 96.14 160.79 94.19 162.39 93.52 C 168.64 90.61 176.46 91.02 182.10 95.14 C 182.87 94.20 183.64 93.25 184.40 92.30 C 181.39 88.34 176.65 86.55 172.06 85.14 C 167.17 83.81 162.80 87.34 158.98 89.87 M 151.68 102.58 C 150.97 108.20 151.73 113.96 153.89 119.20 C 155.70 122.57 158.65 125.16 161.79 127.26 C 159.80 129.17 157.56 130.80 155.33 132.41 C 151.97 132.91 149.26 130.38 145.95 130.69 L 145.58 129.99 C 146.89 126.43 147.34 122.64 148.27 118.97 C 147.06 114.66 147.74 109.80 145.18 105.92 C 144.20 104.62 143.64 102.28 141.51 102.63 C 142.25 105.31 144.30 107.35 145.08 110.00 C 146.29 115.98 147.30 122.84 143.18 127.96 C 143.30 129.35 142.92 130.93 143.69 132.20 C 145.45 134.00 148.19 133.85 150.44 134.65 C 150.52 135.62 150.60 136.58 150.69 137.55 C 149.96 137.91 148.51 138.63 147.78 138.99 C 149.26 140.39 150.94 140.27 152.62 139.35 C 152.59 137.97 152.55 136.58 152.51 135.20 C 153.81 135.19 155.12 135.18 156.43 135.17 C 156.90 138.09 159.67 138.91 162.27 138.43 C 162.34 137.96 162.49 137.02 162.56 136.55 C 161.30 136.45 160.05 136.35 158.80 136.26 C 158.76 135.62 158.69 134.34 158.66 133.70 C 161.21 131.65 163.83 129.60 165.74 126.90 C 161.12 123.21 155.30 119.75 154.42 113.28 C 154.12 112.98 153.53 112.38 153.23 112.08 C 153.28 109.33 153.23 106.58 153.40 103.84 C 153.60 101.45 155.34 99.44 155.28 97.00 C 152.95 97.83 152.33 100.48 151.68 102.58 M 172.72 97.99 C 169.58 99.03 165.79 98.88 163.32 101.36 C 162.42 102.31 160.84 103.16 161.34 104.71 C 163.62 105.50 165.10 103.04 167.10 102.48 C 169.33 101.87 171.61 101.37 173.93 101.25 C 176.41 101.21 177.99 103.43 180.01 104.51 C 181.43 103.65 181.66 102.60 180.69 101.33 C 178.96 98.86 175.68 97.54 172.72 97.99 M 107.10 105.76 C 108.34 105.46 109.18 104.01 110.61 104.42 C 106.47 109.06 106.15 117.68 111.77 121.29 C 115.13 121.99 119.27 122.41 122.00 119.86 C 125.06 117.15 128.55 113.39 127.23 108.93 C 127.51 105.31 123.57 104.61 121.53 102.56 C 118.30 101.61 114.83 102.28 111.51 102.33 C 114.75 99.59 118.99 99.40 122.99 99.54 C 123.06 97.32 120.41 98.29 119.01 98.06 C 114.19 97.99 108.52 101.14 107.10 105.76 M 164.70 105.79 C 164.64 106.22 164.52 107.08 164.46 107.51 C 168.43 108.34 172.26 105.36 176.27 106.91 C 176.84 105.86 177.33 104.47 175.92 103.81 C 172.11 102.64 168.20 104.35 164.70 105.79 M 201.36 116.28 C 199.46 117.93 197.00 119.28 196.10 121.77 C 199.49 120.68 201.68 117.53 204.68 115.71 C 207.39 113.08 212.14 112.05 215.05 114.96 C 217.44 116.50 217.32 119.65 217.73 122.14 C 218.37 126.06 215.97 129.42 214.30 132.73 C 215.39 132.49 216.52 132.15 216.91 130.96 C 219.50 126.42 220.06 120.81 218.14 115.91 C 216.17 113.12 212.66 110.80 209.11 111.68 C 206.04 112.21 203.79 114.53 201.36 116.28 M 202.87 126.64 C 198.54 129.33 193.58 130.77 189.15 133.26 C 182.66 135.52 176.57 138.87 169.86 140.51 C 161.06 142.76 152.00 143.32 143.01 144.25 C 135.63 144.89 128.30 142.58 120.99 143.88 C 119.13 143.93 117.36 143.31 115.61 142.82 C 115.70 143.37 115.90 144.47 116.00 145.02 C 120.19 147.93 125.69 145.43 130.15 147.67 C 136.05 150.47 142.59 150.76 148.93 151.69 C 156.43 153.89 164.30 153.46 172.01 153.39 C 177.19 152.24 182.35 150.85 187.41 149.24 C 193.46 146.87 198.75 142.89 203.29 138.29 C 207.50 133.31 210.01 127.24 211.67 120.98 C 211.26 120.57 210.43 119.75 210.02 119.34 C 207.32 121.44 205.79 124.76 202.87 126.64 M 114.61 136.84 C 112.17 138.81 108.66 141.25 109.42 144.88 C 110.66 151.14 117.55 153.24 121.94 156.91 C 121.87 156.52 121.74 155.75 121.67 155.36 C 117.91 151.57 111.72 149.77 110.57 143.91 C 111.42 141.17 113.71 139.48 115.91 137.86 C 118.32 137.63 121.05 137.44 122.55 135.23 C 119.89 135.55 117.09 135.79 114.61 136.84 M 76.46 145.91 C 77.90 149.05 79.19 152.26 81.07 155.17 C 83.66 159.38 82.21 164.45 82.84 169.08 C 83.70 175.35 83.22 181.71 84.08 187.98 C 84.47 189.67 83.35 192.18 85.27 193.19 C 85.55 183.44 84.40 173.72 84.14 163.98 C 84.89 157.09 80.81 150.85 76.46 145.91 M 240.14 165.15 C 237.55 168.34 235.27 171.74 233.05 175.19 C 228.42 181.74 226.13 189.51 222.59 196.63 C 221.46 199.36 219.59 201.87 219.34 204.88 L 220.85 204.41 C 224.85 198.89 227.01 192.28 230.12 186.25 C 234.27 176.34 241.82 168.49 247.37 159.42 C 248.40 157.42 250.02 155.40 249.47 152.99 C 245.42 156.21 243.32 161.16 240.14 165.15 M 147.45 160.79 C 145.30 160.38 143.14 158.75 140.92 159.69 C 143.32 161.27 146.03 162.41 148.89 162.82 C 162.88 165.40 178.08 165.19 190.89 158.34 C 190.82 158.08 190.67 157.58 190.59 157.33 C 177.04 163.10 161.76 163.54 147.45 160.79 M 107.13 179.04 C 106.72 180.88 108.59 181.40 109.73 182.31 C 117.48 188.46 124.56 195.40 131.46 202.48 C 134.46 205.54 136.00 210.06 139.86 212.21 C 139.92 207.46 136.02 204.09 133.48 200.48 C 126.33 193.27 119.09 186.06 110.75 180.20 C 109.71 179.39 108.36 179.30 107.13 179.04 M 88.20 210.38 C 90.15 215.37 90.31 220.78 90.34 226.09 C 90.28 230.43 92.64 234.40 95.78 237.24 C 99.13 240.22 102.09 243.61 105.62 246.38 C 108.59 248.63 111.10 251.59 114.72 252.84 C 113.09 248.66 109.67 245.46 106.17 242.80 C 102.80 239.86 99.72 236.62 96.49 233.54 C 90.80 227.71 94.50 218.68 91.23 211.83 C 90.61 210.68 89.53 208.66 88.20 210.38 M 196.27 215.22 C 193.80 216.26 190.70 218.49 191.92 221.59 C 195.22 218.63 199.40 216.36 203.99 216.95 C 206.38 216.96 208.27 218.91 210.67 218.76 C 211.24 216.88 209.74 215.44 208.13 214.85 C 204.32 213.46 200.01 213.76 196.27 215.22 M 162.65 220.71 C 165.43 219.94 167.89 217.79 170.94 218.50 C 175.62 219.32 181.03 219.69 184.13 223.80 C 186.26 223.99 186.08 221.17 184.97 220.09 C 181.59 216.70 176.44 216.57 172.02 215.70 C 168.41 215.12 162.79 216.27 162.65 220.71 M 186.41 223.62 C 186.61 229.83 190.27 235.63 189.86 242.02 C 189.19 249.92 187.31 258.03 182.56 264.55 C 180.65 266.19 184.00 267.63 184.91 265.98 C 189.60 260.48 191.37 253.14 192.59 246.16 C 193.91 240.73 192.31 235.21 191.13 229.91 C 190.29 227.38 190.02 223.43 186.41 223.62 M 190.94 266.47 L 191.46 268.00 C 197.24 271.56 204.33 272.95 211.07 272.37 C 213.86 271.49 217.85 270.04 216.30 266.26 C 212.19 270.11 206.26 269.94 201.11 268.82 C 197.65 268.34 194.51 266.09 190.94 266.47 M 154.76 267.48 C 153.91 271.51 158.88 273.33 161.93 274.36 C 167.90 274.85 175.07 274.66 179.55 270.21 C 179.77 267.59 177.02 269.05 175.85 269.58 C 171.92 271.64 167.34 271.66 163.02 271.42 C 159.95 270.91 157.52 268.75 154.76 267.48 Z" />
<path fill="#000000" opacity="1.00" d=" M 113.58 85.61 C 117.04 83.09 121.26 85.50 125.07 85.38 C 126.45 86.46 127.76 87.63 129.02 88.86 C 132.35 89.96 133.68 93.33 134.77 96.33 C 131.62 96.19 128.91 94.54 125.98 93.62 C 120.52 93.17 114.83 93.26 109.88 95.88 C 105.56 96.91 101.94 99.46 98.71 102.41 C 96.66 101.89 95.51 103.89 93.95 104.78 C 92.62 105.03 92.55 103.12 91.95 102.35 C 96.66 98.30 101.17 93.99 106.35 90.52 C 106.45 90.07 106.65 89.16 106.75 88.71 C 109.21 88.11 111.53 87.12 113.58 85.61 Z" />
<path fill="#000000" opacity="1.00" d=" M 158.98 89.87 C 162.80 87.34 167.17 83.81 172.06 85.14 C 176.65 86.55 181.39 88.34 184.40 92.30 C 183.64 93.25 182.87 94.20 182.10 95.14 C 176.46 91.02 168.64 90.61 162.39 93.52 C 160.79 94.19 159.50 96.14 157.58 95.43 C 157.87 93.52 156.76 90.93 158.98 89.87 Z" />
<path fill="#000000" opacity="1.00" d=" M 151.68 102.58 C 152.33 100.48 152.95 97.83 155.28 97.00 C 155.34 99.44 153.60 101.45 153.40 103.84 C 153.23 106.58 153.28 109.33 153.23 112.08 C 153.53 112.38 154.12 112.98 154.42 113.28 C 155.30 119.75 161.12 123.21 165.74 126.90 C 163.83 129.60 161.21 131.65 158.66 133.70 C 158.69 134.34 158.76 135.62 158.80 136.26 C 160.05 136.35 161.30 136.45 162.56 136.55 C 162.49 137.02 162.34 137.96 162.27 138.43 C 159.67 138.91 156.90 138.09 156.43 135.17 C 155.12 135.18 153.81 135.19 152.51 135.20 C 152.55 136.58 152.59 137.97 152.62 139.35 C 150.94 140.27 149.26 140.39 147.78 138.99 C 148.51 138.63 149.96 137.91 150.69 137.55 C 150.60 136.58 150.52 135.62 150.44 134.65 C 148.19 133.85 145.45 134.00 143.69 132.20 C 142.92 130.93 143.30 129.35 143.18 127.96 C 147.30 122.84 146.29 115.98 145.08 110.00 C 144.30 107.35 142.25 105.31 141.51 102.63 C 143.64 102.28 144.20 104.62 145.18 105.92 C 147.74 109.80 147.06 114.66 148.27 118.97 C 147.34 122.64 146.89 126.43 145.58 129.99 L 145.95 130.69 C 149.26 130.38 151.97 132.91 155.33 132.41 C 157.56 130.80 159.80 129.17 161.79 127.26 C 158.65 125.16 155.70 122.57 153.89 119.20 C 151.73 113.96 150.97 108.20 151.68 102.58 Z" />
<path fill="#000000" opacity="1.00" d=" M 172.72 97.99 C 175.68 97.54 178.96 98.86 180.69 101.33 C 181.66 102.60 181.43 103.65 180.01 104.51 C 177.99 103.43 176.41 101.21 173.93 101.25 C 171.61 101.37 169.33 101.87 167.10 102.48 C 165.10 103.04 163.62 105.50 161.34 104.71 C 160.84 103.16 162.42 102.31 163.32 101.36 C 165.79 98.88 169.58 99.03 172.72 97.99 Z" />
<path fill="#000000" opacity="1.00" d=" M 107.10 105.76 C 108.52 101.14 114.19 97.99 119.01 98.06 C 120.41 98.29 123.06 97.32 122.99 99.54 C 118.99 99.40 114.75 99.59 111.51 102.33 C 114.83 102.28 118.30 101.61 121.53 102.56 C 123.57 104.61 127.51 105.31 127.23 108.93 C 128.55 113.39 125.06 117.15 122.00 119.86 C 119.27 122.41 115.13 121.99 111.77 121.29 C 106.15 117.68 106.47 109.06 110.61 104.42 C 109.18 104.01 108.34 105.46 107.10 105.76 M 113.02 104.68 C 110.50 108.00 109.39 112.47 110.69 116.51 C 112.37 120.27 117.95 120.77 120.63 117.86 C 121.95 116.46 123.48 115.24 124.56 113.64 C 125.59 110.67 123.90 107.43 121.51 105.64 C 118.94 104.09 115.86 104.50 113.02 104.68 Z" />
<path fill="#000000" opacity="1.00" d=" M 164.70 105.79 C 168.20 104.35 172.11 102.64 175.92 103.81 C 177.33 104.47 176.84 105.86 176.27 106.91 C 172.26 105.36 168.43 108.34 164.46 107.51 C 164.52 107.08 164.64 106.22 164.70 105.79 Z" />
<path fill="#ffffff" opacity="1.00" d=" M 113.02 104.68 C 115.86 104.50 118.94 104.09 121.51 105.64 C 123.90 107.43 125.59 110.67 124.56 113.64 C 123.48 115.24 121.95 116.46 120.63 117.86 C 117.95 120.77 112.37 120.27 110.69 116.51 C 109.39 112.47 110.50 108.00 113.02 104.68 M 114.35 108.41 C 112.28 109.39 111.98 111.97 112.77 113.90 C 114.48 117.22 121.17 116.26 120.52 111.97 C 120.97 108.91 116.82 106.39 114.35 108.41 Z" />
<path fill="#000000" opacity="1.00" d=" M 114.35 108.41 C 116.82 106.39 120.97 108.91 120.52 111.97 C 121.17 116.26 114.48 117.22 112.77 113.90 C 111.98 111.97 112.28 109.39 114.35 108.41 Z" />
<path fill="#000000" opacity="1.00" d=" M 201.36 116.28 C 203.79 114.53 206.04 112.21 209.11 111.68 C 212.66 110.80 216.17 113.12 218.14 115.91 C 220.06 120.81 219.50 126.42 216.91 130.96 C 216.52 132.15 215.39 132.49 214.30 132.73 C 215.97 129.42 218.37 126.06 217.73 122.14 C 217.32 119.65 217.44 116.50 215.05 114.96 C 212.14 112.05 207.39 113.08 204.68 115.71 C 201.68 117.53 199.49 120.68 196.10 121.77 C 197.00 119.28 199.46 117.93 201.36 116.28 Z" />
<path fill="#000000" opacity="1.00" d=" M 202.87 126.64 C 205.79 124.76 207.32 121.44 210.02 119.34 C 210.43 119.75 211.26 120.57 211.67 120.98 C 210.01 127.24 207.50 133.31 203.29 138.29 C 198.75 142.89 193.46 146.87 187.41 149.24 C 182.35 150.85 177.19 152.24 172.01 153.39 C 164.30 153.46 156.43 153.89 148.93 151.69 C 142.59 150.76 136.05 150.47 130.15 147.67 C 125.69 145.43 120.19 147.93 116.00 145.02 C 115.90 144.47 115.70 143.37 115.61 142.82 C 117.36 143.31 119.13 143.93 120.99 143.88 C 128.30 142.58 135.63 144.89 143.01 144.25 C 152.00 143.32 161.06 142.76 169.86 140.51 C 176.57 138.87 182.66 135.52 189.15 133.26 C 193.58 130.77 198.54 129.33 202.87 126.64 M 206.89 127.26 C 204.93 128.82 202.82 130.21 200.48 131.13 C 201.24 132.07 202.01 133.03 202.77 133.98 C 204.10 131.71 205.49 129.48 206.89 127.26 M 192.17 134.81 C 193.37 137.03 194.13 139.44 193.95 142.01 C 196.81 140.60 199.01 138.19 201.22 135.94 C 201.59 134.32 199.88 133.17 199.07 131.96 C 196.79 132.96 194.42 133.74 192.17 134.81 M 179.66 140.54 C 180.91 142.79 181.36 145.28 181.20 147.83 C 185.14 146.84 189.10 145.65 192.38 143.17 C 192.23 140.87 192.62 138.33 191.15 136.36 C 187.05 136.28 183.28 138.79 179.66 140.54 M 168.31 143.62 C 169.05 145.77 169.36 148.02 169.24 150.30 C 172.82 150.40 176.14 148.88 179.63 148.34 C 179.74 145.72 179.44 143.11 178.13 140.79 C 174.91 141.92 171.80 143.60 168.31 143.62 M 156.71 145.65 C 157.21 147.13 157.64 148.64 158.02 150.16 C 161.24 150.28 164.47 150.26 167.69 150.28 C 167.40 148.45 168.40 145.40 166.31 144.49 C 163.10 144.82 159.91 145.30 156.71 145.65 M 148.44 146.44 C 148.48 146.89 148.56 147.79 148.59 148.24 C 151.09 148.77 153.56 149.44 156.07 149.91 C 155.85 148.69 155.61 147.47 155.36 146.26 C 153.05 146.26 150.74 146.28 148.44 146.44 Z" />
<path fill="#ffffff" opacity="1.00" d=" M 206.89 127.26 C 205.49 129.48 204.10 131.71 202.77 133.98 C 202.01 133.03 201.24 132.07 200.48 131.13 C 202.82 130.21 204.93 128.82 206.89 127.26 Z" />
<path fill="#ffffff" opacity="1.00" d=" M 192.17 134.81 C 194.42 133.74 196.79 132.96 199.07 131.96 C 199.88 133.17 201.59 134.32 201.22 135.94 C 199.01 138.19 196.81 140.60 193.95 142.01 C 194.13 139.44 193.37 137.03 192.17 134.81 Z" />
<path fill="#000000" opacity="1.00" d=" M 114.61 136.84 C 117.09 135.79 119.89 135.55 122.55 135.23 C 121.05 137.44 118.32 137.63 115.91 137.86 C 113.71 139.48 111.42 141.17 110.57 143.91 C 111.72 149.77 117.91 151.57 121.67 155.36 C 121.74 155.75 121.87 156.52 121.94 156.91 C 117.55 153.24 110.66 151.14 109.42 144.88 C 108.66 141.25 112.17 138.81 114.61 136.84 Z" />
<path fill="#ffffff" opacity="1.00" d=" M 179.66 140.54 C 183.28 138.79 187.05 136.28 191.15 136.36 C 192.62 138.33 192.23 140.87 192.38 143.17 C 189.10 145.65 185.14 146.84 181.20 147.83 C 181.36 145.28 180.91 142.79 179.66 140.54 Z" />
<path fill="#ffffff" opacity="1.00" d=" M 168.31 143.62 C 171.80 143.60 174.91 141.92 178.13 140.79 C 179.44 143.11 179.74 145.72 179.63 148.34 C 176.14 148.88 172.82 150.40 169.24 150.30 C 169.36 148.02 169.05 145.77 168.31 143.62 Z" />
<path fill="#ffffff" opacity="1.00" d=" M 156.71 145.65 C 159.91 145.30 163.10 144.82 166.31 144.49 C 168.40 145.40 167.40 148.45 167.69 150.28 C 164.47 150.26 161.24 150.28 158.02 150.16 C 157.64 148.64 157.21 147.13 156.71 145.65 Z" />
<path fill="#000000" opacity="1.00" d=" M 76.46 145.91 C 80.81 150.85 84.89 157.09 84.14 163.98 C 84.40 173.72 85.55 183.44 85.27 193.19 C 83.35 192.18 84.47 189.67 84.08 187.98 C 83.22 181.71 83.70 175.35 82.84 169.08 C 82.21 164.45 83.66 159.38 81.07 155.17 C 79.19 152.26 77.90 149.05 76.46 145.91 Z" />
<path fill="#ffffff" opacity="1.00" d=" M 148.44 146.44 C 150.74 146.28 153.05 146.26 155.36 146.26 C 155.61 147.47 155.85 148.69 156.07 149.91 C 153.56 149.44 151.09 148.77 148.59 148.24 C 148.56 147.79 148.48 146.89 148.44 146.44 Z" />
<path fill="#000000" opacity="1.00" d=" M 240.14 165.15 C 243.32 161.16 245.42 156.21 249.47 152.99 C 250.02 155.40 248.40 157.42 247.37 159.42 C 241.82 168.49 234.27 176.34 230.12 186.25 C 227.01 192.28 224.85 198.89 220.85 204.41 L 219.34 204.88 C 219.59 201.87 221.46 199.36 222.59 196.63 C 226.13 189.51 228.42 181.74 233.05 175.19 C 235.27 171.74 237.55 168.34 240.14 165.15 Z" />
<path fill="#000000" opacity="1.00" d=" M 147.45 160.79 C 161.76 163.54 177.04 163.10 190.59 157.33 C 190.67 157.58 190.82 158.08 190.89 158.34 C 178.08 165.19 162.88 165.40 148.89 162.82 C 146.03 162.41 143.32 161.27 140.92 159.69 C 143.14 158.75 145.30 160.38 147.45 160.79 Z" />
<path fill="#000000" opacity="1.00" d=" M 107.13 179.04 C 108.36 179.30 109.71 179.39 110.75 180.20 C 119.09 186.06 126.33 193.27 133.48 200.48 C 136.02 204.09 139.92 207.46 139.86 212.21 C 136.00 210.06 134.46 205.54 131.46 202.48 C 124.56 195.40 117.48 188.46 109.73 182.31 C 108.59 181.40 106.72 180.88 107.13 179.04 Z" />
<path fill="#000000" opacity="1.00" d=" M 88.20 210.38 C 89.53 208.66 90.61 210.68 91.23 211.83 C 94.50 218.68 90.80 227.71 96.49 233.54 C 99.72 236.62 102.80 239.86 106.17 242.80 C 109.67 245.46 113.09 248.66 114.72 252.84 C 111.10 251.59 108.59 248.63 105.62 246.38 C 102.09 243.61 99.13 240.22 95.78 237.24 C 92.64 234.40 90.28 230.43 90.34 226.09 C 90.31 220.78 90.15 215.37 88.20 210.38 Z" />
<path fill="#000000" opacity="1.00" d=" M 196.27 215.22 C 200.01 213.76 204.32 213.46 208.13 214.85 C 209.74 215.44 211.24 216.88 210.67 218.76 C 208.27 218.91 206.38 216.96 203.99 216.95 C 199.40 216.36 195.22 218.63 191.92 221.59 C 190.70 218.49 193.80 216.26 196.27 215.22 Z" />
<path fill="#000000" opacity="1.00" d=" M 162.65 220.71 C 162.79 216.27 168.41 215.12 172.02 215.70 C 176.44 216.57 181.59 216.70 184.97 220.09 C 186.08 221.17 186.26 223.99 184.13 223.80 C 181.03 219.69 175.62 219.32 170.94 218.50 C 167.89 217.79 165.43 219.94 162.65 220.71 Z" />
<path fill="#000000" opacity="1.00" d=" M 186.41 223.62 C 190.02 223.43 190.29 227.38 191.13 229.91 C 192.31 235.21 193.91 240.73 192.59 246.16 C 191.37 253.14 189.60 260.48 184.91 265.98 C 184.00 267.63 180.65 266.19 182.56 264.55 C 187.31 258.03 189.19 249.92 189.86 242.02 C 190.27 235.63 186.61 229.83 186.41 223.62 Z" />
<path fill="#000000" opacity="1.00" d=" M 190.94 266.47 C 194.51 266.09 197.65 268.34 201.11 268.82 C 206.26 269.94 212.19 270.11 216.30 266.26 C 217.85 270.04 213.86 271.49 211.07 272.37 C 204.33 272.95 197.24 271.56 191.46 268.00 L 190.94 266.47 Z" />
<path fill="#000000" opacity="1.00" d=" M 154.76 267.48 C 157.52 268.75 159.95 270.91 163.02 271.42 C 167.34 271.66 171.92 271.64 175.85 269.58 C 177.02 269.05 179.77 267.59 179.55 270.21 C 175.07 274.66 167.90 274.85 161.93 274.36 C 158.88 273.33 153.91 271.51 154.76 267.48 Z" />
<path fill="#ffffff" opacity="1.00" d=" M 183.37 330.00 C 182.07 318.16 181.16 306.27 179.77 294.44 C 185.05 297.11 190.57 299.28 195.78 302.07 C 207.36 310.07 218.03 319.42 227.34 329.99 L 226.04 330.00 L 183.37 330.00 Z" />
<path fill="#ffffff" opacity="1.00" d=" M 149.12 330.00 C 156.81 318.43 163.87 305.73 175.88 298.01 C 176.17 308.67 176.53 319.34 176.59 330.00 L 149.12 330.00 Z" />
</svg>
