<?xml version="1.0" encoding="UTF-8" ?>
<!DOCTYPE svg PUBLIC "-//W3C//DTD SVG 1.1//EN" "http://www.w3.org/Graphics/SVG/1.1/DTD/svg11.dtd">
<svg width="1110pt" height="778pt" viewBox="0 0 1110 778" version="1.1" xmlns="http://www.w3.org/2000/svg">
<path fill="#ffffff" opacity="1.00" d=" M 0.00 0.00 L 1110.00 0.00 L 1110.00 778.00 L 0.00 778.00 L 0.00 0.00 M 210.96 50.95 C 208.91 51.72 206.37 51.88 205.00 53.81 C 183.76 78.88 160.90 102.50 138.58 126.60 C 111.31 156.01 84.81 186.45 63.40 220.50 C 60.53 221.36 56.43 222.71 54.41 219.61 C 50.94 212.00 56.85 203.03 52.43 195.60 C 51.04 195.38 49.64 195.18 48.24 195.01 C 43.07 232.92 37.13 271.23 22.70 306.89 C 20.76 306.81 18.41 306.74 17.75 304.49 C 16.01 297.74 19.79 290.88 18.31 284.09 C 17.80 281.34 14.78 281.09 12.55 281.38 C 8.97 331.52 5.94 381.76 6.11 432.04 C 6.37 473.84 8.49 515.81 16.01 557.00 C 20.20 579.70 26.11 602.20 35.31 623.42 C 42.32 639.62 51.46 655.06 63.48 668.06 C 62.24 683.10 63.17 698.38 66.91 713.03 C 72.14 734.33 82.91 753.72 88.97 774.76 C 94.18 774.74 99.39 774.75 104.61 774.75 C 90.24 746.13 78.92 715.68 74.11 683.91 C 90.84 707.25 112.37 727.08 136.56 742.50 C 154.69 753.82 174.88 762.87 196.39 764.77 C 189.48 754.97 179.78 747.50 169.45 741.62 C 151.67 731.33 131.95 724.74 114.66 713.56 C 106.75 693.11 94.03 673.08 74.00 662.76 C 74.27 648.08 72.68 633.36 69.10 619.12 C 63.79 597.11 54.30 576.39 48.72 554.46 C 45.14 540.26 43.01 525.58 43.60 510.92 C 43.38 506.12 39.69 502.56 35.91 500.12 C 32.26 497.57 27.78 494.12 28.33 489.12 C 31.49 470.88 32.01 452.29 31.83 433.83 C 31.69 399.28 29.11 364.55 33.49 330.14 C 35.91 310.35 38.25 290.38 44.38 271.33 C 48.25 259.71 53.58 248.16 62.40 239.45 C 69.54 232.06 79.26 227.17 89.40 225.75 C 92.25 227.42 93.42 230.74 93.77 233.86 C 94.74 242.21 92.58 250.63 93.92 258.97 C 94.34 262.24 96.29 265.17 99.20 266.76 C 103.16 262.09 105.44 256.14 105.45 250.00 C 105.52 234.47 97.31 220.66 94.41 205.71 C 95.20 203.91 96.80 202.60 98.06 201.10 C 135.04 159.53 169.17 115.52 205.89 73.72 C 201.09 90.27 196.69 107.02 189.81 122.87 C 183.23 138.10 174.67 152.97 161.99 163.95 C 150.33 174.28 134.84 179.77 119.31 179.78 C 119.99 182.21 120.58 184.79 122.25 186.78 C 126.01 191.52 132.09 193.44 136.32 197.65 C 138.45 199.74 139.35 202.64 140.06 205.45 C 156.22 197.92 169.81 185.93 181.69 172.83 C 197.54 155.78 211.99 136.85 231.74 124.01 C 233.88 112.89 236.84 101.62 243.07 92.01 C 246.62 86.47 251.46 81.82 257.00 78.27 C 270.38 80.72 281.88 89.74 288.74 101.32 C 302.57 124.20 305.36 151.73 318.17 175.10 C 325.41 166.19 327.48 154.26 327.23 143.06 C 326.31 121.17 317.88 99.80 304.33 82.66 C 294.11 69.84 279.69 59.44 263.03 57.61 C 273.11 53.40 284.04 51.53 294.93 51.33 C 326.84 50.80 357.38 63.10 389.26 62.95 C 375.66 84.34 367.19 108.89 363.99 134.00 C 366.63 137.21 372.35 139.35 375.52 135.62 C 382.75 126.08 381.57 112.44 389.68 103.37 C 392.45 104.50 394.55 106.90 394.89 109.94 C 396.41 119.77 392.32 129.67 394.49 139.48 C 402.29 137.98 407.47 131.26 410.04 124.16 C 413.68 115.55 415.82 104.55 425.06 100.10 C 429.95 98.66 435.11 95.87 440.27 97.84 C 449.65 101.50 456.89 109.11 466.39 112.58 C 474.24 115.81 483.06 116.12 491.22 113.92 C 502.34 130.13 510.54 148.14 521.58 164.41 C 529.79 176.58 539.91 187.86 552.80 195.19 C 563.45 201.44 575.71 204.31 587.90 205.52 C 587.89 200.58 585.56 196.00 583.14 191.83 C 573.77 176.83 556.88 168.66 547.24 153.86 C 523.52 117.56 517.78 72.34 491.65 37.36 C 471.72 35.11 452.12 29.99 432.00 29.55 C 422.83 29.61 413.03 30.67 405.39 36.20 C 399.83 40.04 396.43 46.18 394.41 52.49 C 369.39 47.10 344.77 39.05 319.07 37.40 C 311.65 36.64 304.18 37.31 296.76 36.64 C 304.98 35.62 312.99 33.44 321.02 31.47 C 349.27 24.23 377.08 14.69 406.13 11.09 C 422.68 9.02 439.75 9.05 455.95 13.43 C 474.13 18.46 489.12 30.66 502.59 43.38 C 516.45 56.11 529.47 70.74 547.17 78.21 C 547.00 82.27 548.03 86.24 550.15 89.70 C 552.35 92.90 548.86 95.97 547.17 98.49 C 554.74 104.54 561.73 111.39 567.68 119.05 C 569.12 141.51 579.16 162.25 591.20 180.87 C 603.15 199.45 614.97 218.91 618.62 241.06 C 620.94 240.16 623.30 239.13 625.09 237.33 C 633.36 229.72 634.32 217.15 642.60 209.55 C 647.13 205.43 653.53 204.82 659.37 205.37 C 668.38 218.73 672.83 234.50 675.72 250.19 C 680.11 274.53 681.05 299.29 683.41 323.87 C 685.41 343.91 687.70 364.26 694.90 383.21 C 693.95 384.25 692.91 385.17 691.78 385.99 C 688.82 378.34 690.07 369.88 688.05 362.01 C 687.23 357.69 685.08 351.76 679.62 352.40 C 673.79 362.57 673.61 374.89 676.24 386.06 C 681.14 407.36 691.97 427.00 694.82 448.83 C 698.13 476.45 700.09 504.22 701.42 532.00 C 702.44 556.68 703.22 581.42 701.27 606.07 C 700.63 612.98 700.00 620.02 697.43 626.55 C 690.84 644.08 678.11 658.38 670.49 675.40 C 663.87 692.03 660.35 709.65 656.53 727.07 C 652.91 743.65 648.75 760.67 638.87 774.78 C 644.06 774.71 649.26 774.80 654.47 774.71 C 666.88 727.77 695.77 687.46 710.12 641.25 C 716.08 622.39 719.61 602.76 720.54 583.00 C 720.74 579.79 723.44 576.46 721.48 573.34 C 717.21 568.88 708.92 574.39 705.41 568.95 C 704.38 527.65 705.74 486.32 706.12 445.02 C 706.54 398.61 706.57 352.00 700.59 305.89 C 695.44 267.16 685.89 227.96 664.53 194.75 C 660.30 194.57 655.85 194.01 651.84 195.69 C 646.94 197.47 643.14 201.22 638.46 203.40 C 635.75 204.73 632.68 204.97 629.73 205.26 C 628.44 204.21 628.76 202.40 628.43 200.96 C 626.85 189.39 623.86 178.02 619.67 167.12 C 607.28 134.80 584.94 107.52 560.87 83.13 C 536.84 58.58 510.36 36.54 486.46 11.87 C 483.60 12.23 480.69 12.46 477.85 11.83 C 472.77 10.98 468.44 7.90 463.50 6.60 C 459.33 5.56 454.96 5.89 450.77 6.64 C 450.73 4.99 450.71 3.34 450.67 1.70 C 430.13 1.89 409.59 1.58 389.06 1.85 C 328.70 14.29 269.58 32.06 210.96 50.95 M 675.25 38.46 C 675.25 53.20 675.23 67.94 675.26 82.68 C 679.08 82.68 682.91 82.68 686.74 82.68 C 686.76 77.85 686.75 73.02 686.75 68.19 C 692.94 68.15 699.80 68.99 705.11 65.09 C 711.56 60.99 713.76 51.60 709.90 45.05 C 706.95 40.33 701.15 38.59 695.87 38.49 C 688.99 38.41 682.12 38.49 675.25 38.46 M 720.25 38.46 C 720.25 53.20 720.23 67.94 720.26 82.68 C 724.08 82.68 727.91 82.68 731.74 82.68 C 731.76 76.36 731.75 70.03 731.75 63.71 C 738.00 63.69 744.25 63.71 750.50 63.69 C 750.49 60.87 750.50 58.05 750.51 55.22 C 744.26 55.20 738.01 55.22 731.76 55.21 C 731.75 52.46 731.75 49.71 731.75 46.96 C 738.49 46.95 745.25 46.96 752.00 46.96 C 752.00 44.12 752.00 41.28 751.96 38.44 C 741.39 38.49 730.82 38.45 720.25 38.46 M 759.71 38.53 C 759.84 53.26 759.62 68.00 759.83 82.73 C 763.61 82.65 767.39 82.65 771.17 82.73 C 771.34 76.38 771.20 70.03 771.26 63.69 C 777.50 63.71 783.75 63.70 790.00 63.70 C 790.00 60.86 790.00 58.03 789.98 55.20 C 783.75 55.22 777.52 55.20 771.29 55.21 C 771.25 52.46 771.24 49.71 771.23 46.96 C 777.99 46.94 784.76 47.00 791.53 46.92 C 791.50 44.10 791.49 41.28 791.50 38.47 C 780.91 38.50 770.31 38.38 759.71 38.53 M 799.49 38.47 C 799.50 53.20 799.49 67.94 799.50 82.68 C 803.32 82.68 807.14 82.68 810.97 82.70 C 811.03 76.36 810.98 70.03 811.00 63.70 C 817.25 63.70 823.49 63.70 829.74 63.70 C 829.75 60.87 829.75 58.05 829.76 55.22 C 823.52 55.21 817.28 55.21 811.04 55.22 C 811.00 52.46 810.99 49.71 811.00 46.96 C 817.75 46.95 824.49 46.96 831.25 46.96 C 831.24 44.14 831.24 41.33 831.28 38.51 C 820.68 38.40 810.09 38.49 799.49 38.47 M 834.71 38.54 C 834.74 41.34 834.75 44.15 834.75 46.96 C 839.35 46.98 843.96 46.88 848.57 47.07 C 848.40 58.93 848.55 70.79 848.49 82.65 C 852.31 82.69 856.14 82.68 859.97 82.70 C 860.04 70.79 859.98 58.87 860.00 46.96 C 864.59 46.96 869.17 46.97 873.76 46.95 C 873.75 44.12 873.75 41.29 873.75 38.46 C 860.74 38.51 847.72 38.36 834.71 38.54 M 876.50 38.47 C 876.49 41.29 876.49 44.11 876.48 46.93 C 881.06 46.98 885.66 46.95 890.25 46.96 C 890.25 58.87 890.23 70.78 890.26 82.68 C 894.08 82.68 897.91 82.68 901.74 82.68 C 901.77 70.78 901.75 58.87 901.75 46.96 C 906.34 46.95 910.94 47.00 915.54 46.91 C 915.49 44.09 915.49 41.28 915.51 38.47 C 902.50 38.46 889.50 38.46 876.50 38.47 M 918.25 38.46 C 918.24 41.29 918.24 44.12 918.24 46.95 C 922.82 46.97 927.41 46.96 932.00 46.96 C 932.02 58.87 931.96 70.78 932.03 82.70 C 935.86 82.68 939.69 82.70 943.53 82.64 C 943.45 70.76 943.55 58.89 943.47 47.01 C 948.06 46.92 952.65 46.97 957.25 46.96 C 957.24 44.15 957.24 41.33 957.28 38.52 C 944.27 38.38 931.26 38.50 918.25 38.46 M 965.80 45.85 C 961.68 51.62 960.78 59.14 961.92 65.99 C 962.94 72.12 966.43 78.16 972.17 80.94 C 980.85 85.36 991.48 84.19 999.97 79.86 C 1000.02 76.12 1000.07 72.38 999.81 68.64 C 994.87 72.58 988.73 76.99 982.07 74.58 C 973.54 72.12 971.99 61.18 974.54 53.88 C 976.33 47.98 983.11 44.78 988.92 46.27 C 993.16 47.12 996.21 50.38 999.91 52.35 C 1000.05 48.60 999.99 44.85 1000.00 41.10 C 993.22 37.76 985.33 36.50 977.92 38.16 C 973.17 39.23 968.60 41.78 965.80 45.85 M 1008.49 38.47 C 1008.50 53.20 1008.49 67.94 1008.50 82.67 C 1012.32 82.68 1016.14 82.67 1019.97 82.70 C 1020.03 76.20 1019.97 69.69 1020.01 63.19 C 1025.51 63.21 1031.00 63.19 1036.51 63.21 C 1036.47 69.69 1036.52 76.16 1036.47 82.63 C 1040.30 82.70 1044.13 82.68 1047.97 82.70 C 1047.98 67.93 1048.11 53.16 1047.90 38.39 C 1044.09 38.49 1040.29 38.47 1036.49 38.47 C 1036.50 43.86 1036.47 49.26 1036.52 54.66 C 1031.02 54.73 1025.52 54.67 1020.03 54.71 C 1019.95 49.28 1020.06 43.85 1019.94 38.42 C 1016.12 38.48 1012.30 38.47 1008.49 38.47 M 1059.73 38.51 C 1059.82 53.24 1059.64 67.98 1059.82 82.72 C 1063.65 82.67 1067.48 82.73 1071.31 82.58 C 1071.18 76.12 1071.28 69.66 1071.25 63.21 C 1076.74 63.20 1082.25 63.20 1087.76 63.21 C 1087.75 69.70 1087.71 76.20 1087.78 82.70 C 1091.59 82.67 1095.40 82.67 1099.22 82.69 C 1099.31 67.97 1099.19 53.25 1099.29 38.53 C 1095.42 38.42 1091.56 38.42 1087.71 38.54 C 1087.78 43.92 1087.74 49.31 1087.74 54.70 C 1082.24 54.69 1076.75 54.69 1071.26 54.70 C 1071.25 49.30 1071.23 43.91 1071.28 38.52 C 1067.42 38.43 1063.57 38.44 1059.73 38.51 M 705.82 112.66 C 700.52 114.76 696.60 119.44 694.84 124.79 C 692.44 132.56 692.99 141.62 697.66 148.46 C 700.45 152.56 705.05 155.18 709.84 156.21 C 717.24 157.73 725.24 156.71 731.84 152.96 C 732.20 149.29 732.02 145.58 731.79 141.91 C 726.98 145.50 721.39 149.85 714.98 148.01 C 707.42 146.63 704.56 137.86 705.62 131.10 C 705.92 125.10 710.63 119.31 716.90 119.19 C 722.75 118.42 727.24 122.69 731.84 125.52 C 732.07 121.73 732.05 117.93 731.89 114.13 C 723.82 110.43 714.17 109.15 705.82 112.66 M 848.67 114.67 C 841.63 119.62 839.20 128.92 840.15 137.12 C 840.73 144.03 844.40 151.04 850.81 154.19 C 859.44 158.52 869.90 157.29 878.38 153.17 C 878.54 149.46 878.55 145.75 878.44 142.04 C 873.28 145.34 867.69 150.13 861.07 147.89 C 852.72 146.00 850.66 135.68 852.59 128.50 C 853.64 123.23 858.46 119.17 863.86 119.16 C 869.52 118.68 873.94 122.69 878.31 125.62 C 878.60 121.80 878.55 117.96 878.41 114.14 C 869.18 109.84 857.46 108.82 848.67 114.67 M 938.23 111.64 C 938.26 126.37 938.25 141.11 938.24 155.84 C 942.07 155.85 945.91 155.85 949.76 155.84 C 949.74 149.36 949.76 142.88 949.75 136.40 C 955.25 136.39 960.75 136.39 966.26 136.40 C 966.23 142.88 966.26 149.36 966.24 155.83 C 970.07 155.86 973.91 155.85 977.76 155.84 C 977.75 141.11 977.74 126.37 977.76 111.64 C 973.91 111.64 970.07 111.64 966.23 111.64 C 966.25 117.04 966.24 122.44 966.25 127.83 C 960.75 127.83 955.25 127.83 949.75 127.84 C 949.75 122.44 949.74 117.04 949.77 111.64 C 945.92 111.64 942.07 111.64 938.23 111.64 M 989.23 111.64 C 989.26 126.37 989.25 141.11 989.24 155.84 C 993.07 155.85 996.91 155.85 1000.76 155.84 C 1000.74 149.36 1000.76 142.88 1000.74 136.40 C 1006.24 136.39 1011.75 136.39 1017.26 136.40 C 1017.23 142.88 1017.25 149.36 1017.24 155.84 C 1021.08 155.85 1024.91 155.85 1028.76 155.84 C 1028.77 141.11 1028.71 126.39 1028.79 111.66 C 1024.93 111.63 1021.07 111.63 1017.22 111.65 C 1017.26 117.05 1017.24 122.44 1017.24 127.84 C 1011.74 127.83 1006.24 127.84 1000.75 127.83 C 1000.76 122.44 1000.73 117.04 1000.77 111.64 C 996.92 111.64 993.07 111.64 989.23 111.64 M 740.48 111.65 C 740.52 126.38 740.48 141.12 740.50 155.85 C 744.32 155.85 748.15 155.85 751.99 155.86 C 752.01 149.37 751.99 142.89 752.00 136.40 C 757.50 136.40 763.01 136.39 768.51 136.40 C 768.47 142.88 768.52 149.35 768.48 155.82 C 772.31 155.86 776.14 155.85 779.99 155.86 C 780.02 141.12 779.99 126.38 780.00 111.64 C 776.16 111.64 772.33 111.64 768.50 111.64 C 768.49 117.04 768.50 122.44 768.50 127.84 C 763.00 127.83 757.50 127.83 752.01 127.84 C 751.99 122.44 752.00 117.04 752.00 111.65 C 748.15 111.64 744.31 111.64 740.48 111.65 M 791.48 111.65 C 791.54 126.39 791.45 141.13 791.52 155.87 C 795.34 155.84 799.16 155.85 802.99 155.85 C 803.01 149.37 802.99 142.88 803.00 136.40 C 808.50 136.39 814.01 136.39 819.51 136.40 C 819.47 142.88 819.52 149.35 819.48 155.83 C 823.31 155.86 827.15 155.85 830.99 155.86 C 831.01 141.12 831.00 126.38 831.00 111.64 C 827.16 111.64 823.34 111.65 819.51 111.63 C 819.47 117.03 819.50 122.43 819.50 127.84 C 814.00 127.83 808.50 127.83 803.01 127.84 C 802.99 122.44 803.00 117.04 803.00 111.64 C 799.15 111.64 795.31 111.64 791.48 111.65 M 887.00 111.64 C 887.00 126.38 886.98 141.12 887.01 155.86 C 890.84 155.85 894.68 155.85 898.52 155.83 C 898.48 149.36 898.52 142.88 898.49 136.40 C 903.99 136.39 909.49 136.39 915.00 136.40 C 915.00 142.89 914.99 149.37 915.01 155.86 C 918.83 155.85 922.66 155.85 926.50 155.85 C 926.52 141.12 926.47 126.39 926.52 111.65 C 922.68 111.64 918.84 111.64 915.00 111.64 C 914.99 117.04 915.00 122.44 914.99 127.84 C 909.50 127.84 904.01 127.82 898.52 127.85 C 898.48 122.45 898.51 117.04 898.50 111.64 C 894.66 111.64 890.83 111.64 887.00 111.64 M 415.27 195.18 C 396.95 225.48 379.44 256.84 369.51 291.03 C 376.54 286.27 383.99 282.15 391.84 278.88 C 393.49 278.25 395.14 277.59 396.78 276.93 C 399.86 275.94 402.93 274.93 406.00 273.92 C 429.67 267.03 454.55 265.52 479.07 266.88 C 485.05 267.66 491.08 268.09 497.07 268.90 C 522.13 272.89 547.27 280.07 568.53 294.34 C 573.75 297.70 578.17 302.07 582.89 306.07 C 581.01 279.03 573.56 252.08 559.25 228.93 C 549.63 213.33 536.82 199.44 521.01 189.99 C 505.79 180.67 487.72 176.21 469.92 176.97 C 450.55 178.39 431.75 185.03 415.27 195.18 M 742.18 189.18 C 735.17 195.71 733.88 206.47 736.37 215.34 C 738.26 222.12 743.89 227.59 750.76 229.18 C 758.45 230.70 766.63 229.91 773.67 226.30 C 773.78 222.56 773.85 218.82 773.61 215.09 C 770.40 217.07 767.59 219.81 763.91 220.90 C 758.69 222.67 751.98 220.82 749.30 215.77 C 746.87 211.31 746.69 205.83 748.04 201.00 C 749.29 196.18 753.84 192.35 758.89 192.36 C 764.60 191.76 769.18 195.73 773.47 198.87 C 773.73 195.09 774.10 191.24 773.52 187.49 C 763.96 182.36 750.83 181.95 742.18 189.18 M 782.20 184.77 C 782.29 199.44 782.24 214.12 782.23 228.79 C 786.07 228.80 789.92 228.80 793.77 228.79 C 793.73 222.38 793.77 215.98 793.74 209.58 C 799.24 209.56 804.75 209.56 810.26 209.57 C 810.23 215.98 810.26 222.38 810.23 228.79 C 814.07 228.80 817.92 228.80 821.77 228.79 C 821.76 214.12 821.70 199.44 821.80 184.77 C 817.93 184.74 814.06 184.74 810.20 184.77 C 810.28 190.12 810.23 195.46 810.25 200.81 C 804.75 200.81 799.25 200.81 793.75 200.81 C 793.76 195.46 793.71 190.12 793.80 184.77 C 789.93 184.74 786.06 184.74 782.20 184.77 M 833.47 228.77 C 837.31 228.81 841.15 228.80 845.00 228.79 C 845.00 222.38 845.00 215.98 845.00 209.57 C 850.50 209.56 856.01 209.57 861.51 209.57 C 861.51 215.99 861.43 222.42 861.55 228.84 C 865.36 228.78 869.17 228.79 872.99 228.81 C 873.00 214.12 873.02 199.44 872.98 184.75 C 869.16 184.76 865.34 184.76 861.53 184.73 C 861.44 190.10 861.54 195.47 861.47 200.84 C 855.98 200.78 850.49 200.81 845.01 200.82 C 844.98 195.46 845.02 190.11 844.98 184.75 C 841.17 184.76 837.35 184.77 833.55 184.72 C 833.41 199.40 833.56 214.08 833.47 228.77 M 884.47 184.76 C 884.55 199.45 884.43 214.14 884.53 228.83 C 888.34 228.79 892.16 228.79 895.99 228.81 C 896.02 224.04 895.94 219.28 896.07 214.51 C 902.00 214.55 908.50 215.28 913.73 211.86 C 920.51 207.96 923.10 198.36 919.27 191.57 C 916.32 186.76 910.43 184.89 905.07 184.76 C 898.20 184.73 891.34 184.77 884.47 184.76 M 929.20 184.77 C 929.29 199.44 929.24 214.11 929.23 228.78 C 933.07 228.80 936.92 228.80 940.77 228.79 C 940.75 222.47 940.73 216.15 940.77 209.83 C 947.02 209.81 953.27 209.85 959.52 209.80 C 959.49 207.06 959.50 204.31 959.53 201.57 C 953.27 201.54 947.01 201.56 940.76 201.55 C 940.75 198.82 940.74 196.09 940.74 193.36 C 947.45 193.37 954.16 193.31 960.88 193.40 C 960.99 190.52 961.01 187.63 960.99 184.75 C 950.39 184.77 939.80 184.73 929.20 184.77 M 969.02 184.75 C 968.98 199.44 968.99 214.12 969.01 228.81 C 972.83 228.79 976.64 228.79 980.47 228.83 C 980.52 222.59 980.53 216.35 980.46 210.11 C 986.71 209.49 993.01 210.02 999.29 209.77 C 999.24 207.04 999.24 204.30 999.27 201.57 C 993.02 201.53 986.77 201.56 980.52 201.55 C 980.50 198.83 980.49 196.11 980.46 193.39 C 987.21 193.29 993.97 193.41 1000.73 193.32 C 1000.74 190.47 1000.75 187.63 1000.81 184.78 C 990.21 184.72 979.61 184.77 969.02 184.75 M 1008.74 184.76 C 1008.77 199.44 1008.74 214.12 1008.75 228.80 C 1012.58 228.80 1016.41 228.80 1020.24 228.80 C 1020.30 222.47 1020.14 216.14 1020.34 209.81 C 1026.55 209.85 1032.77 209.81 1038.99 209.83 C 1038.99 207.07 1038.99 204.31 1039.00 201.55 C 1032.76 201.55 1026.52 201.54 1020.29 201.56 C 1020.25 198.83 1020.23 196.09 1020.22 193.36 C 1026.96 193.35 1033.70 193.34 1040.45 193.37 C 1040.50 190.49 1040.51 187.62 1040.50 184.75 C 1029.91 184.77 1019.32 184.74 1008.74 184.76 M 174.19 201.18 C 151.53 213.38 135.15 234.94 125.41 258.40 C 117.85 276.92 113.56 297.06 114.55 317.10 C 118.01 312.08 121.59 307.04 126.31 303.12 C 138.66 292.32 154.22 285.91 169.99 281.95 C 187.00 278.01 204.60 276.59 222.00 278.03 C 243.26 279.77 264.73 285.17 282.73 297.00 C 279.82 278.38 275.43 259.93 268.85 242.26 C 262.37 225.28 253.99 208.63 241.83 195.02 C 219.63 188.53 194.69 190.02 174.19 201.18 M 649.55 220.76 C 654.12 247.16 656.41 274.25 652.62 300.91 C 650.03 320.09 644.23 338.88 634.99 355.92 C 626.26 371.81 614.73 386.18 601.03 398.07 C 586.67 410.94 570.11 421.15 552.89 429.75 C 545.10 433.51 537.16 436.96 529.12 440.15 C 527.65 440.69 526.20 441.24 524.74 441.77 C 479.17 458.70 430.94 467.13 382.83 472.86 C 376.62 473.87 370.31 474.14 364.11 475.15 C 360.77 475.44 357.39 475.39 354.12 476.16 C 346.77 476.71 339.42 477.29 332.11 478.15 C 328.37 478.41 324.62 478.50 320.89 478.87 C 316.51 479.66 312.03 479.29 307.64 479.91 C 301.83 480.78 295.89 480.16 290.09 481.15 C 255.69 482.20 221.06 481.97 187.09 475.83 C 177.23 474.19 167.49 471.83 157.86 469.16 C 151.81 467.31 145.80 465.34 139.89 463.11 C 137.54 462.14 135.21 461.14 132.87 460.18 C 109.35 450.03 87.58 434.10 74.22 411.88 C 59.30 387.42 55.68 357.62 58.72 329.53 C 60.61 317.07 66.73 305.88 71.12 294.22 C 75.88 282.26 78.21 268.68 73.78 256.26 C 69.95 256.00 64.91 256.22 63.46 260.57 C 60.96 269.20 65.77 278.08 63.75 286.77 C 57.52 311.08 52.59 335.88 51.55 361.03 C 51.15 376.19 51.98 391.70 57.05 406.13 C 60.95 417.58 68.52 427.93 79.09 434.04 C 73.90 434.99 71.04 439.80 68.91 444.14 C 70.78 445.30 72.74 446.30 74.77 447.17 C 80.08 449.01 85.54 450.35 90.88 452.11 C 96.90 454.11 103.52 458.07 104.44 464.95 C 96.99 468.74 88.40 471.28 82.80 477.83 C 78.76 482.48 78.27 489.00 78.97 494.86 C 92.19 491.14 102.54 481.15 115.81 477.65 C 117.57 477.44 119.34 477.28 121.10 477.08 C 127.51 476.38 134.01 477.93 140.18 479.65 C 138.46 488.77 138.43 499.08 144.19 506.87 C 150.78 515.99 161.96 519.46 170.82 525.72 C 157.78 533.27 152.89 548.47 145.59 560.76 C 162.13 550.94 173.03 534.72 185.42 520.51 C 195.16 509.39 206.90 499.11 221.41 495.02 C 221.57 498.30 221.62 501.71 222.99 504.77 C 225.72 511.56 232.49 515.67 235.33 522.41 C 236.55 525.01 236.73 527.91 236.99 530.74 C 232.53 536.52 228.60 542.69 224.96 549.01 C 219.58 558.61 214.52 568.87 213.62 580.00 C 213.05 586.42 215.77 593.14 221.34 596.64 C 223.60 574.39 232.63 552.91 246.92 535.73 C 250.97 533.83 257.12 534.28 259.11 538.91 C 262.10 544.35 260.54 552.84 267.07 555.84 C 268.09 547.75 273.19 539.93 281.19 537.36 C 290.12 534.63 299.85 536.40 308.13 540.41 C 300.14 552.50 294.30 565.97 290.86 580.06 C 288.20 590.20 287.35 600.69 286.31 611.09 C 285.40 621.65 284.72 632.47 287.27 642.86 C 288.74 648.81 292.01 654.82 297.76 657.54 C 298.01 634.32 297.70 610.96 301.11 587.93 C 303.47 572.95 307.69 557.54 317.66 545.73 C 324.27 537.78 333.79 532.70 343.76 530.38 C 343.37 535.80 342.84 541.87 346.15 546.56 C 347.81 549.14 350.85 550.18 353.68 550.87 C 354.52 539.97 356.58 528.98 361.51 519.14 C 367.85 506.08 379.61 496.19 393.08 491.07 C 402.06 487.72 411.52 485.65 421.08 485.10 C 425.70 483.15 428.53 487.92 431.42 490.59 C 444.23 504.23 453.47 522.23 471.08 530.53 C 471.68 526.38 469.72 522.69 468.13 519.04 C 466.93 516.28 470.15 515.20 472.22 515.05 C 482.19 513.41 492.00 510.17 500.54 504.69 C 514.08 496.23 524.15 483.25 531.90 469.48 C 539.24 469.80 546.14 473.55 550.86 479.11 C 558.20 487.61 562.60 498.79 572.37 505.04 C 576.48 499.95 575.69 492.55 572.59 487.15 C 565.67 474.92 552.86 466.64 548.14 453.06 C 547.92 451.72 546.34 449.24 548.33 448.56 C 550.86 447.23 553.52 446.17 556.17 445.10 C 559.96 443.66 563.92 442.78 567.83 441.77 C 570.50 441.47 573.21 441.38 575.85 440.84 C 578.27 440.73 580.69 440.73 583.12 440.83 C 598.17 442.05 613.26 448.15 623.61 459.38 C 624.61 452.95 623.36 445.88 618.88 440.94 C 612.81 434.26 603.61 431.32 598.07 424.05 C 612.99 403.81 627.36 381.96 648.86 368.07 C 650.19 362.73 651.31 357.34 652.92 352.07 C 658.67 332.10 667.45 312.77 669.27 291.87 C 670.21 282.35 668.65 272.82 666.62 263.55 C 664.34 253.28 661.64 243.05 657.60 233.32 C 655.59 228.77 653.46 224.02 649.55 220.76 M 1005.98 257.34 C 999.06 256.79 991.55 258.43 986.62 263.61 C 980.53 270.33 979.47 280.41 981.93 288.88 C 983.81 295.49 989.32 300.91 996.05 302.48 C 1003.81 304.58 1012.37 303.38 1019.32 299.34 C 1019.23 295.65 1019.27 291.96 1019.16 288.28 C 1016.10 290.50 1013.17 293.08 1009.54 294.29 C 1005.12 295.23 999.83 295.05 996.52 291.55 C 992.45 287.00 992.00 280.23 993.48 274.55 C 994.80 269.06 1000.41 265.15 1006.02 265.67 C 1011.18 265.81 1014.94 269.68 1019.10 272.17 C 1019.32 268.42 1019.25 264.67 1019.24 260.91 C 1015.12 258.84 1010.65 257.27 1005.98 257.34 M 738.03 258.28 C 737.99 273.01 737.96 287.75 738.05 302.49 C 741.85 302.47 745.66 302.47 749.48 302.48 C 749.53 297.56 749.46 292.65 749.55 287.74 C 755.49 287.51 762.09 288.85 767.31 285.23 C 773.82 281.42 776.33 272.53 773.23 265.76 C 770.74 261.15 765.56 258.52 760.42 258.40 C 752.96 258.14 745.49 258.39 738.03 258.28 M 782.80 258.26 C 782.68 273.00 782.77 287.73 782.76 302.47 C 786.58 302.47 790.41 302.47 794.24 302.47 C 794.24 296.15 794.30 289.83 794.19 283.51 C 800.44 283.49 806.69 283.47 812.94 283.52 C 813.01 280.58 813.01 277.65 812.92 274.71 C 806.69 274.75 800.46 274.73 794.23 274.73 C 794.25 272.06 794.24 269.39 794.19 266.72 C 800.97 266.68 807.76 266.79 814.54 266.65 C 814.49 263.89 814.49 261.13 814.55 258.37 C 803.97 258.18 793.38 258.38 782.80 258.26 M 822.44 258.37 C 822.58 273.07 822.44 287.77 822.51 302.48 C 826.32 302.47 830.14 302.47 833.96 302.49 C 834.04 296.16 833.98 289.82 834.00 283.49 C 840.23 283.49 846.47 283.48 852.71 283.51 C 852.79 280.55 852.79 277.59 852.57 274.65 C 846.39 274.83 840.20 274.68 834.03 274.75 C 833.99 272.07 833.99 269.40 834.00 266.72 C 840.71 266.74 847.43 266.66 854.16 266.77 C 854.24 263.98 854.27 261.20 854.34 258.41 C 843.70 258.19 833.07 258.27 822.44 258.37 M 862.22 258.31 C 862.34 273.04 862.10 287.79 862.34 302.52 C 866.15 302.46 869.96 302.49 873.77 302.42 C 873.72 296.11 873.78 289.80 873.74 283.50 C 879.98 283.49 886.23 283.49 892.49 283.50 C 892.52 280.56 892.51 277.63 892.42 274.71 C 886.19 274.76 879.97 274.72 873.75 274.73 C 873.75 272.06 873.74 269.39 873.73 266.72 C 880.48 266.72 887.23 266.70 893.98 266.73 C 893.99 263.91 894.00 261.10 893.99 258.28 C 883.40 258.31 872.81 258.27 862.22 258.31 M 902.02 258.28 C 902.00 273.02 901.95 287.75 902.05 302.49 C 905.85 302.47 909.66 302.47 913.48 302.48 C 913.52 296.15 913.51 289.82 913.48 283.50 C 919.73 283.47 925.99 283.54 932.25 283.45 C 932.24 280.61 932.24 277.78 932.30 274.94 C 926.03 274.46 919.74 274.89 913.46 274.69 C 913.49 272.03 913.49 269.37 913.47 266.72 C 920.23 266.71 927.00 266.73 933.77 266.71 C 933.75 263.90 933.75 261.10 933.78 258.31 C 923.19 258.27 912.60 258.32 902.02 258.28 M 937.22 258.31 C 937.24 261.11 937.24 263.90 937.23 266.70 C 941.81 266.73 946.40 266.71 951.00 266.72 C 951.03 278.64 950.94 290.57 951.05 302.49 C 954.85 302.47 958.67 302.47 962.49 302.47 C 962.52 290.55 962.49 278.62 962.50 266.70 C 967.08 266.73 971.66 266.71 976.25 266.72 C 976.26 263.90 976.25 261.08 976.21 258.27 C 963.22 258.33 950.22 258.26 937.22 258.31 M 1027.43 258.39 C 1027.60 273.08 1027.43 287.78 1027.51 302.48 C 1031.32 302.47 1035.14 302.47 1038.95 302.49 C 1039.11 295.89 1038.82 289.29 1039.14 282.71 C 1044.57 282.79 1050.01 282.75 1055.44 282.74 C 1055.56 289.32 1055.45 295.90 1055.52 302.48 C 1059.32 302.47 1063.14 302.47 1066.96 302.49 C 1067.04 287.75 1067.00 273.01 1066.97 258.28 C 1063.12 258.29 1059.28 258.26 1055.44 258.37 C 1055.53 263.74 1055.50 269.11 1055.47 274.48 C 1049.99 274.48 1044.51 274.47 1039.04 274.49 C 1038.96 269.09 1039.03 263.68 1038.97 258.28 C 1035.12 258.29 1031.27 258.25 1027.43 258.39 M 429.88 291.62 C 441.58 291.24 453.32 290.89 465.01 291.87 C 482.03 293.93 498.68 298.71 514.25 305.88 C 518.52 307.99 523.01 309.72 526.95 312.45 C 526.98 309.13 525.37 306.08 523.43 303.49 C 518.77 297.71 512.48 293.48 505.82 290.32 C 493.47 284.10 479.78 281.02 466.08 279.86 C 453.36 279.51 438.46 281.02 429.88 291.62 M 192.87 291.87 C 188.44 292.90 184.10 294.22 179.85 295.83 C 172.22 299.25 163.58 303.48 160.47 311.84 C 175.53 308.17 190.34 302.99 205.89 301.82 C 214.62 301.60 223.70 302.67 231.55 306.75 C 230.55 299.18 224.19 293.76 217.15 291.80 C 209.17 289.83 200.86 290.30 192.87 291.87 M 262.29 316.67 C 253.46 330.29 238.11 337.97 222.80 341.87 C 219.54 342.72 216.24 343.43 212.91 343.91 C 210.31 344.48 207.64 344.57 205.04 345.10 C 189.32 346.32 173.45 346.08 157.79 344.14 C 155.55 343.65 153.25 343.47 151.01 342.97 C 149.31 342.68 147.59 342.47 145.88 342.25 C 142.59 341.48 139.27 340.84 135.96 340.15 C 129.64 338.54 123.31 336.96 117.09 334.95 C 114.48 334.01 111.89 333.01 109.22 332.25 C 113.43 344.30 122.61 354.32 134.08 359.85 C 135.02 360.31 135.95 360.78 136.89 361.26 C 140.25 362.62 143.63 363.95 147.15 364.85 C 150.39 365.84 153.71 366.46 157.05 366.98 C 159.94 367.68 162.96 367.51 165.87 368.13 C 172.27 368.51 178.71 368.51 185.11 368.11 C 188.35 367.38 191.73 367.69 194.97 366.90 C 196.97 366.62 198.98 366.43 200.95 365.98 C 210.56 364.32 219.97 361.65 229.12 358.29 C 238.17 354.82 246.94 350.55 254.95 345.08 C 261.90 340.24 268.52 334.52 272.68 327.01 C 272.01 323.83 272.03 319.96 269.25 317.76 C 267.32 316.05 264.61 316.75 262.29 316.67 M 384.33 322.44 C 383.00 327.61 383.71 333.34 387.51 337.32 C 395.57 343.93 406.23 345.47 416.04 347.91 C 418.39 348.61 420.76 349.25 423.16 349.82 C 425.77 350.73 428.37 351.69 430.90 352.83 C 430.73 355.89 430.10 358.91 430.03 361.97 C 430.79 363.78 433.12 363.51 434.66 364.21 C 437.79 364.82 440.91 365.49 444.08 365.92 C 446.03 366.45 448.05 366.63 450.05 366.94 C 452.61 367.60 455.29 367.55 457.89 368.12 C 465.61 368.72 473.37 368.59 481.10 368.10 C 484.33 367.28 487.73 367.75 490.97 366.87 C 493.01 366.61 495.08 366.41 497.14 366.18 C 499.05 365.71 501.01 365.38 502.94 364.96 C 511.73 363.28 520.46 361.05 528.82 357.84 C 536.51 355.04 543.99 351.48 550.63 346.66 C 556.77 342.26 562.26 335.84 562.68 327.98 C 559.85 331.02 556.58 333.71 552.72 335.33 C 544.37 338.86 535.35 340.29 526.65 342.66 C 526.54 338.37 530.95 336.19 531.67 332.30 C 530.43 332.90 529.18 333.46 527.93 333.99 C 524.30 335.02 520.71 336.16 517.04 336.99 C 515.65 337.31 514.26 337.61 512.88 337.91 C 510.98 338.38 509.06 338.72 507.17 339.20 C 503.41 339.71 499.69 340.49 495.92 340.89 C 480.74 343.23 465.32 342.81 450.01 342.52 C 436.89 341.58 423.74 339.80 411.12 335.93 C 401.49 333.10 392.08 328.93 384.33 322.44 M 759.03 331.40 C 758.96 346.12 759.02 360.84 759.00 375.56 C 762.84 375.57 766.68 375.57 770.52 375.56 C 770.49 370.79 770.51 366.02 770.48 361.25 C 773.34 361.26 776.20 361.25 779.07 361.18 C 782.96 360.65 787.06 359.86 790.03 357.06 C 795.34 352.92 796.98 345.01 794.23 338.95 C 791.75 334.15 786.30 331.52 781.03 331.46 C 773.70 331.33 766.36 331.48 759.03 331.40 M 803.71 331.47 C 803.79 346.16 803.74 360.86 803.74 375.56 C 807.58 375.57 811.42 375.57 815.26 375.56 C 815.19 369.27 815.38 362.97 815.13 356.69 C 821.40 356.50 827.68 356.62 833.97 356.61 C 834.00 353.81 834.00 351.02 833.98 348.22 C 827.81 348.28 821.64 348.17 815.48 348.30 C 815.16 345.42 815.17 342.53 815.37 339.65 C 822.09 339.71 828.81 339.72 835.54 339.65 C 835.50 336.91 835.50 334.18 835.53 331.45 C 824.92 331.41 814.32 331.37 803.71 331.47 M 843.46 331.44 C 843.53 346.15 843.50 360.85 843.47 375.55 C 847.31 375.57 851.15 375.57 855.00 375.56 C 855.04 369.22 854.90 362.87 855.09 356.53 C 861.32 356.65 867.55 356.59 873.78 356.57 C 873.75 353.80 873.75 351.02 873.77 348.25 C 867.59 348.25 861.40 348.18 855.23 348.30 C 854.97 345.43 854.95 342.55 855.05 339.68 C 861.79 339.70 868.53 339.70 875.27 339.67 C 875.24 336.92 875.24 334.17 875.27 331.43 C 864.66 331.42 854.06 331.39 843.46 331.44 M 883.21 331.43 C 883.27 346.14 883.26 360.85 883.22 375.55 C 887.07 375.57 890.92 375.57 894.78 375.55 C 894.72 369.24 894.79 362.93 894.73 356.62 C 900.99 356.56 907.25 356.62 913.52 356.58 C 913.50 353.80 913.50 351.02 913.51 348.25 C 907.45 348.27 901.39 348.13 895.33 348.34 C 894.37 345.51 894.66 342.50 895.08 339.60 C 901.72 339.78 908.36 339.65 915.01 339.69 C 915.00 336.92 914.99 334.15 914.96 331.39 C 904.37 331.46 893.79 331.38 883.21 331.43 M 923.03 331.39 C 922.95 346.12 923.02 360.84 923.00 375.56 C 926.84 375.57 930.68 375.57 934.53 375.56 C 934.47 369.23 934.53 362.91 934.47 356.59 C 940.75 356.56 947.02 356.68 953.30 356.51 C 953.25 353.75 953.24 351.00 953.25 348.24 C 946.98 347.94 940.60 348.84 934.40 347.78 C 934.48 345.08 934.51 342.38 934.54 339.69 C 941.29 339.68 948.03 339.71 954.78 339.67 C 954.75 336.92 954.75 334.17 954.78 331.43 C 944.20 331.39 933.62 331.45 923.03 331.39 M 958.02 331.40 C 957.99 334.17 957.99 336.93 958.01 339.70 C 962.55 339.68 967.09 339.72 971.64 339.65 C 971.89 351.61 971.69 363.59 971.74 375.56 C 975.57 375.57 979.41 375.57 983.26 375.56 C 983.27 363.60 983.18 351.64 983.31 339.68 C 987.87 339.70 992.44 339.69 997.01 339.69 C 997.01 336.91 997.00 334.13 996.91 331.36 C 983.95 331.49 970.98 331.40 958.02 331.40 M 999.73 331.43 C 999.74 334.17 999.74 336.92 999.73 339.67 C 1004.30 339.70 1008.87 339.69 1013.45 339.68 C 1013.55 351.64 1013.49 363.60 1013.47 375.56 C 1017.31 375.57 1021.15 375.57 1025.00 375.56 C 1025.04 363.60 1024.92 351.64 1025.06 339.67 C 1029.63 339.70 1034.20 339.70 1038.78 339.67 C 1038.75 336.92 1038.75 334.18 1038.79 331.43 C 1025.77 331.40 1012.75 331.41 999.73 331.43 M 763.03 409.01 C 756.09 415.71 754.83 426.57 757.50 435.48 C 759.25 441.38 763.91 446.07 769.61 448.26 C 775.90 450.20 782.81 450.09 789.12 448.23 C 790.90 447.45 792.72 446.74 794.57 446.11 C 794.84 442.39 794.82 438.65 794.65 434.92 C 789.85 437.86 785.17 441.95 779.09 441.32 C 775.97 440.33 772.49 439.26 770.74 436.24 C 767.34 430.65 767.36 423.10 770.50 417.41 C 772.70 413.67 776.91 412.15 781.02 411.74 C 786.39 412.00 790.10 416.01 794.70 418.08 C 794.79 414.33 794.88 410.56 794.52 406.82 C 791.42 405.63 788.28 404.56 785.07 403.74 C 777.45 402.74 768.93 403.61 763.03 409.01 M 854.21 404.44 C 854.27 419.15 854.27 433.85 854.21 448.56 C 858.07 448.58 861.93 448.59 865.79 448.56 C 865.70 442.18 865.82 435.80 865.70 429.42 C 871.23 429.29 876.77 429.28 882.30 429.42 C 882.17 435.80 882.30 442.18 882.21 448.56 C 886.07 448.58 889.92 448.58 893.79 448.56 C 893.73 433.85 893.73 419.15 893.79 404.44 C 889.92 404.41 886.07 404.41 882.21 404.44 C 882.28 409.80 882.20 415.16 882.29 420.52 C 876.75 420.61 871.21 420.66 865.68 420.49 C 865.81 415.14 865.71 409.79 865.79 404.44 C 861.92 404.42 858.07 404.42 854.21 404.44 M 901.06 404.39 C 900.99 407.18 900.98 409.98 901.01 412.78 C 905.61 412.85 910.26 412.42 914.82 413.29 C 914.62 425.02 914.86 436.76 914.69 448.49 C 918.55 448.63 922.42 448.62 926.29 448.51 C 926.36 436.57 925.95 424.62 926.50 412.69 C 929.01 412.74 931.53 412.77 934.06 412.87 C 935.95 413.12 937.87 413.24 939.80 413.32 C 940.02 410.34 940.04 407.36 939.95 404.39 C 926.98 404.44 914.02 404.45 901.06 404.39 M 803.00 404.43 C 803.02 419.15 802.95 433.88 803.04 448.60 C 806.86 448.57 810.70 448.58 814.53 448.56 C 814.47 442.16 814.53 435.75 814.48 429.35 C 819.98 429.34 825.49 429.34 831.00 429.35 C 831.01 435.76 830.96 442.18 831.03 448.60 C 834.86 448.57 838.70 448.59 842.54 448.55 C 842.47 433.84 842.50 419.14 842.52 404.44 C 838.68 404.42 834.84 404.42 831.00 404.43 C 830.97 409.83 831.06 415.23 830.94 420.63 C 825.45 420.54 819.96 420.60 814.47 420.58 C 814.53 415.20 814.48 409.81 814.52 404.44 C 810.68 404.42 806.84 404.42 803.00 404.43 M 947.00 404.43 C 947.04 419.16 946.92 433.89 947.06 448.62 C 950.88 448.56 954.70 448.58 958.53 448.57 C 958.48 443.84 958.53 439.11 958.45 434.38 C 964.90 434.36 972.19 434.91 977.54 430.57 C 983.46 426.36 985.32 417.49 981.73 411.22 C 978.94 406.47 973.16 404.66 967.96 404.45 C 960.97 404.37 953.98 404.45 947.00 404.43 M 991.74 404.43 C 991.72 419.11 991.83 433.80 991.68 448.48 C 995.54 448.63 999.40 448.59 1003.27 448.56 C 1003.25 442.24 1003.22 435.92 1003.28 429.59 C 1009.50 429.61 1015.72 429.56 1021.95 429.63 C 1022.00 426.85 1022.00 424.07 1021.96 421.30 C 1015.77 421.38 1009.57 421.26 1003.38 421.39 C 1003.19 418.51 1003.20 415.62 1003.40 412.74 C 1010.10 412.79 1016.81 412.77 1023.51 412.76 C 1023.49 409.98 1023.50 407.21 1023.52 404.44 C 1012.93 404.41 1002.33 404.42 991.74 404.43 M 803.41 477.81 C 814.03 478.24 824.67 477.88 835.30 477.99 L 835.35 476.99 C 825.21 477.06 815.07 476.88 804.95 477.07 C 804.56 477.25 803.79 477.62 803.41 477.81 M 842.67 477.37 C 850.34 478.78 858.24 477.59 866.00 478.03 C 869.26 477.83 872.99 478.94 875.86 476.95 C 864.80 477.29 853.70 476.49 842.67 477.37 M 887.41 482.37 C 881.54 487.76 879.75 496.30 880.70 503.96 C 881.35 510.50 884.85 517.02 890.80 520.14 C 899.57 524.84 910.43 523.73 919.03 519.15 C 918.97 515.50 919.02 511.86 918.96 508.21 C 915.75 509.80 913.28 512.63 909.81 513.73 C 904.36 515.70 897.08 514.08 894.35 508.57 C 891.76 503.28 891.80 496.67 894.41 491.40 C 897.24 485.59 905.09 483.88 910.64 486.57 C 913.68 487.81 915.91 490.40 918.94 491.68 C 918.72 487.95 919.66 483.88 918.50 480.35 C 914.98 478.36 910.92 477.28 906.87 477.19 L 906.07 476.68 C 904.38 476.71 902.71 476.75 901.05 476.80 C 896.14 477.43 891.05 478.82 887.41 482.37 M 759.13 477.68 C 758.88 492.54 758.97 507.41 759.09 522.27 C 762.87 522.24 766.65 522.24 770.44 522.26 C 770.55 517.35 770.47 512.43 770.52 507.52 C 774.70 507.55 778.90 507.56 783.08 507.28 C 785.81 506.10 788.69 505.03 790.88 502.94 C 794.68 499.52 796.13 494.00 795.31 489.05 C 794.56 483.35 789.27 479.04 783.74 478.36 C 775.61 477.06 767.33 478.03 759.13 477.68 M 927.44 522.34 C 931.15 522.21 934.86 522.21 938.58 522.32 C 938.95 515.73 938.65 509.12 938.76 502.52 C 944.25 502.52 949.74 502.52 955.24 502.53 C 955.28 509.10 955.18 515.68 955.30 522.25 C 959.11 522.25 962.93 522.28 966.75 522.19 C 966.65 507.35 966.98 492.50 966.58 477.67 C 962.83 477.74 959.09 477.73 955.36 477.69 C 955.13 483.20 955.30 488.73 955.23 494.25 C 950.00 494.19 944.77 494.36 939.55 494.22 C 939.36 494.06 938.99 493.73 938.80 493.57 C 938.59 488.28 938.92 482.98 938.64 477.69 C 934.89 477.73 931.14 477.73 927.40 477.67 C 927.16 492.55 927.10 507.46 927.44 522.34 M 978.56 477.71 C 978.44 492.56 978.48 507.41 978.54 522.26 C 982.32 522.24 986.11 522.24 989.91 522.27 C 990.12 515.68 989.89 509.08 990.07 502.49 C 995.53 502.55 1001.01 502.50 1006.48 502.53 C 1006.56 509.11 1006.38 515.70 1006.59 522.28 C 1010.36 522.23 1014.13 522.24 1017.91 522.27 C 1018.03 507.41 1018.12 492.54 1017.86 477.68 C 1014.09 477.73 1010.32 477.72 1006.56 477.71 C 1006.41 483.23 1006.59 488.75 1006.42 494.28 C 1000.97 494.23 995.52 494.25 990.07 494.27 C 989.89 488.74 990.14 483.21 989.87 477.68 C 986.09 477.73 982.32 477.72 978.56 477.71 M 803.75 478.16 C 803.76 492.86 803.72 507.55 803.77 522.25 C 807.58 522.25 811.40 522.25 815.23 522.25 C 815.26 515.92 815.26 509.59 815.22 503.27 C 821.45 503.27 827.68 503.25 833.92 503.29 C 834.00 500.36 834.00 497.43 833.98 494.51 C 827.70 494.47 821.43 494.59 815.16 494.43 C 815.24 491.75 815.25 489.08 815.22 486.40 C 821.99 486.40 828.76 486.42 835.53 486.39 C 835.50 483.65 835.49 480.91 835.51 478.17 C 824.92 478.15 814.33 478.15 803.75 478.16 M 843.49 478.17 C 843.53 492.86 843.44 507.56 843.54 522.26 C 847.32 522.24 851.11 522.24 854.91 522.27 C 855.09 515.93 854.94 509.59 855.02 503.25 C 861.20 503.31 867.39 503.18 873.57 503.35 C 873.79 500.40 873.79 497.44 873.71 494.50 C 867.47 494.52 861.23 494.51 854.99 494.51 C 854.98 491.79 854.99 489.07 855.06 486.36 C 861.77 486.45 868.49 486.39 875.21 486.40 C 875.23 484.29 875.27 482.17 875.54 480.08 C 873.98 478.17 871.22 478.77 869.08 478.29 C 860.56 477.97 852.02 478.25 843.49 478.17 M 741.82 555.85 C 736.19 561.22 734.56 569.58 735.44 577.06 C 736.13 583.62 739.55 590.28 745.62 593.33 C 754.29 597.86 765.03 596.90 773.52 592.42 C 774.10 588.91 773.64 585.29 773.69 581.75 C 770.37 582.79 768.13 585.80 764.78 586.78 C 759.27 588.91 752.03 587.29 749.15 581.81 C 746.55 576.65 746.57 570.23 748.94 565.00 C 751.38 559.50 758.44 557.08 763.93 559.16 C 767.60 560.26 770.28 563.18 773.69 564.82 C 773.80 561.10 773.74 557.39 773.73 553.67 C 769.15 551.40 764.14 549.86 758.97 550.16 C 752.81 549.74 746.29 551.42 741.82 555.85 M 782.23 551.20 C 782.23 565.88 782.30 580.55 782.20 595.22 C 786.06 595.25 789.93 595.25 793.80 595.22 C 793.71 588.70 793.75 582.18 793.77 575.67 C 799.25 575.66 804.74 575.66 810.23 575.67 C 810.24 582.18 810.28 588.70 810.20 595.23 C 814.06 595.25 817.93 595.25 821.80 595.23 C 821.70 580.55 821.77 565.88 821.77 551.21 C 817.92 551.18 814.07 551.18 810.23 551.21 C 810.26 556.54 810.23 561.87 810.27 567.21 C 804.75 567.21 799.24 567.21 793.73 567.21 C 793.77 561.87 793.74 556.54 793.77 551.21 C 789.92 551.18 786.07 551.18 782.23 551.20 M 833.48 551.21 C 833.57 565.91 833.39 580.61 833.57 595.31 C 837.37 595.22 841.17 595.23 844.98 595.25 C 845.06 588.71 844.89 582.17 845.10 575.63 C 850.55 575.68 856.00 575.65 861.46 575.66 C 861.55 582.19 861.46 588.73 861.51 595.26 C 865.33 595.24 869.15 595.24 872.98 595.25 C 873.02 580.56 873.00 565.87 872.99 551.19 C 869.15 551.19 865.31 551.18 861.48 551.21 C 861.51 556.54 861.46 561.88 861.54 567.21 C 856.02 567.21 850.51 567.21 845.00 567.21 C 844.99 561.87 845.01 556.52 844.99 551.18 C 841.15 551.19 837.31 551.18 833.48 551.21 M 884.47 551.22 C 884.56 565.90 884.42 580.59 884.54 595.28 C 888.35 595.23 892.16 595.24 895.98 595.25 C 896.06 588.71 895.89 582.17 896.10 575.63 C 901.55 575.68 907.00 575.65 912.46 575.66 C 912.57 582.20 912.40 588.75 912.56 595.29 C 916.36 595.22 920.17 595.23 923.98 595.25 C 924.01 580.56 924.00 565.87 923.99 551.18 C 920.15 551.19 916.31 551.18 912.48 551.21 C 912.51 556.54 912.46 561.88 912.54 567.21 C 907.02 567.21 901.51 567.21 896.00 567.21 C 895.99 561.87 896.01 556.52 895.98 551.18 C 892.14 551.19 888.30 551.18 884.47 551.22 M 935.75 551.19 C 935.74 565.87 935.76 580.56 935.74 595.24 C 939.57 595.25 943.42 595.25 947.26 595.24 C 947.27 588.70 947.17 582.17 947.33 575.64 C 952.77 575.67 958.22 575.67 963.67 575.64 C 963.82 582.17 963.73 588.70 963.73 595.24 C 967.57 595.25 971.42 595.25 975.26 595.24 C 975.23 580.55 975.26 565.87 975.25 551.19 C 971.41 551.19 967.58 551.19 963.75 551.19 C 963.76 556.53 963.69 561.87 963.81 567.21 C 958.27 567.21 952.73 567.21 947.19 567.22 C 947.29 561.87 947.26 556.52 947.22 551.17 C 943.39 551.20 939.57 551.19 935.75 551.19 M 765.65 626.73 C 758.29 631.38 755.55 640.79 756.33 649.08 C 756.74 656.04 760.20 663.19 766.59 666.48 C 775.33 671.07 786.03 669.85 794.68 665.67 C 794.78 662.02 794.80 658.37 794.68 654.72 C 791.33 656.22 788.79 659.13 785.22 660.16 C 779.84 661.96 772.84 660.26 770.13 654.94 C 767.54 649.74 767.58 643.31 769.98 638.06 C 772.60 632.41 780.02 630.12 785.59 632.56 C 788.95 633.76 791.45 636.49 794.70 637.95 C 794.80 634.21 794.75 630.48 794.70 626.75 C 785.76 622.41 774.37 621.33 765.65 626.73 M 911.39 627.26 C 904.33 632.28 901.93 641.66 902.91 649.92 C 903.52 656.67 907.07 663.57 913.38 666.61 C 922.09 671.02 932.86 669.95 941.32 665.41 C 941.23 661.74 941.28 658.06 941.15 654.39 C 937.95 656.47 935.09 659.24 931.33 660.27 C 926.11 661.85 919.56 660.24 916.80 655.24 C 914.03 650.11 914.07 643.61 916.36 638.32 C 918.79 632.72 925.90 630.19 931.48 632.35 C 935.19 633.33 937.68 636.57 941.24 637.82 C 941.27 634.15 941.23 630.48 941.23 626.82 C 932.08 622.20 920.14 621.30 911.39 627.26 M 803.01 624.14 C 802.99 638.88 803.00 653.62 803.00 668.36 C 806.83 668.35 810.65 668.35 814.49 668.37 C 814.54 661.86 814.44 655.34 814.55 648.84 C 820.00 648.83 825.45 648.85 830.90 648.82 C 831.10 655.33 830.95 661.84 831.00 668.36 C 834.84 668.36 838.68 668.36 842.52 668.35 C 842.48 653.61 842.51 638.88 842.50 624.14 C 838.66 624.14 834.83 624.14 831.01 624.14 C 830.99 629.55 831.00 634.96 831.00 640.37 C 825.49 640.37 819.99 640.37 814.49 640.38 C 814.50 634.96 814.50 629.55 814.50 624.15 C 810.67 624.14 806.84 624.14 803.01 624.14 M 854.24 624.15 C 854.23 638.88 854.29 653.60 854.21 668.33 C 858.06 668.37 861.92 668.37 865.79 668.34 C 865.74 661.83 865.70 655.33 865.81 648.83 C 871.28 648.84 876.75 648.83 882.22 648.84 C 882.25 655.33 882.28 661.83 882.20 668.32 C 886.06 668.37 889.92 668.37 893.79 668.34 C 893.72 653.61 893.76 638.88 893.76 624.16 C 889.92 624.13 886.08 624.13 882.24 624.15 C 882.25 629.56 882.24 634.96 882.26 640.37 C 876.75 640.37 871.24 640.37 865.74 640.37 C 865.76 634.96 865.74 629.56 865.76 624.15 C 861.91 624.14 858.07 624.14 854.24 624.15 M 949.75 624.15 C 949.74 638.88 949.76 653.61 949.74 668.35 C 953.57 668.36 957.41 668.36 961.26 668.35 C 961.27 661.84 961.17 655.33 961.33 648.83 C 966.79 648.86 972.25 648.76 977.72 648.90 C 977.77 655.38 977.74 661.87 977.74 668.35 C 981.57 668.36 985.41 668.36 989.26 668.35 C 989.24 653.62 989.26 638.88 989.25 624.15 C 985.41 624.14 981.58 624.14 977.75 624.15 C 977.75 629.55 977.72 634.96 977.78 640.37 C 972.26 640.37 966.74 640.37 961.22 640.38 C 961.27 634.96 961.24 629.55 961.25 624.14 C 957.41 624.14 953.58 624.14 949.75 624.15 Z" />
<path fill="#000000" opacity="1.00" d=" M 210.96 50.95 C 269.58 32.06 328.70 14.29 389.06 1.85 C 409.59 1.58 430.13 1.89 450.67 1.70 C 450.71 3.34 450.73 4.99 450.77 6.64 C 454.96 5.89 459.33 5.56 463.50 6.60 C 468.44 7.90 472.77 10.98 477.85 11.83 C 480.69 12.46 483.60 12.23 486.46 11.87 C 510.36 36.54 536.84 58.58 560.87 83.13 C 584.94 107.52 607.28 134.80 619.67 167.12 C 623.86 178.02 626.85 189.39 628.43 200.96 C 628.76 202.40 628.44 204.21 629.73 205.26 C 632.68 204.97 635.75 204.73 638.46 203.40 C 643.14 201.22 646.94 197.47 651.84 195.69 C 655.85 194.01 660.30 194.57 664.53 194.75 C 685.89 227.96 695.44 267.16 700.59 305.89 C 706.57 352.00 706.54 398.61 706.12 445.02 C 705.74 486.32 704.38 527.65 705.41 568.95 C 708.92 574.39 717.21 568.88 721.48 573.34 C 723.44 576.46 720.74 579.79 720.54 583.00 C 719.61 602.76 716.08 622.39 710.12 641.25 C 695.77 687.46 666.88 727.77 654.47 774.71 C 649.26 774.80 644.06 774.71 638.87 774.78 C 648.75 760.67 652.91 743.65 656.53 727.07 C 660.35 709.65 663.87 692.03 670.49 675.40 C 678.11 658.38 690.84 644.08 697.43 626.55 C 700.00 620.02 700.63 612.98 701.27 606.07 C 703.22 581.42 702.44 556.68 701.42 532.00 C 700.09 504.22 698.13 476.45 694.82 448.83 C 691.97 427.00 681.14 407.36 676.24 386.06 C 673.61 374.89 673.79 362.57 679.62 352.40 C 685.08 351.76 687.23 357.69 688.05 362.01 C 690.07 369.88 688.82 378.34 691.78 385.99 C 692.91 385.17 693.95 384.25 694.90 383.21 C 687.70 364.26 685.41 343.91 683.41 323.87 C 681.05 299.29 680.11 274.53 675.72 250.19 C 672.83 234.50 668.38 218.73 659.37 205.37 C 653.53 204.82 647.13 205.43 642.60 209.55 C 634.32 217.15 633.36 229.72 625.09 237.33 C 623.30 239.13 620.94 240.16 618.62 241.06 C 614.97 218.91 603.15 199.45 591.20 180.87 C 579.16 162.25 569.12 141.51 567.68 119.05 C 561.73 111.39 554.74 104.54 547.17 98.49 C 548.86 95.97 552.35 92.90 550.15 89.70 C 548.03 86.24 547.00 82.27 547.17 78.21 C 529.47 70.74 516.45 56.11 502.59 43.38 C 489.12 30.66 474.13 18.46 455.95 13.43 C 439.75 9.05 422.68 9.02 406.13 11.09 C 377.08 14.69 349.27 24.23 321.02 31.47 C 312.99 33.44 304.98 35.62 296.76 36.64 C 304.18 37.31 311.65 36.64 319.07 37.40 C 344.77 39.05 369.39 47.10 394.41 52.49 C 396.43 46.18 399.83 40.04 405.39 36.20 C 413.03 30.67 422.83 29.61 432.00 29.55 C 452.12 29.99 471.72 35.11 491.65 37.36 C 517.78 72.34 523.52 117.56 547.24 153.86 C 556.88 168.66 573.77 176.83 583.14 191.83 C 585.56 196.00 587.89 200.58 587.90 205.52 C 575.71 204.31 563.45 201.44 552.80 195.19 C 539.91 187.86 529.79 176.58 521.58 164.41 C 510.54 148.14 502.34 130.13 491.22 113.92 C 483.06 116.12 474.24 115.81 466.39 112.58 C 456.89 109.11 449.65 101.50 440.27 97.84 C 435.11 95.87 429.95 98.66 425.06 100.10 C 415.82 104.55 413.68 115.55 410.04 124.16 C 407.47 131.26 402.29 137.98 394.49 139.48 C 392.32 129.67 396.41 119.77 394.89 109.94 C 394.55 106.90 392.45 104.50 389.68 103.37 C 381.57 112.44 382.75 126.08 375.52 135.62 C 372.35 139.35 366.63 137.21 363.99 134.00 C 367.19 108.89 375.66 84.34 389.26 62.95 C 357.38 63.10 326.84 50.80 294.93 51.33 C 284.04 51.53 273.11 53.40 263.03 57.61 C 279.69 59.44 294.11 69.84 304.33 82.66 C 317.88 99.80 326.31 121.17 327.23 143.06 C 327.48 154.26 325.41 166.19 318.17 175.10 C 305.36 151.73 302.57 124.20 288.74 101.32 C 281.88 89.74 270.38 80.72 257.00 78.27 C 251.46 81.82 246.62 86.47 243.07 92.01 C 236.84 101.62 233.88 112.89 231.74 124.01 C 211.99 136.85 197.54 155.78 181.69 172.83 C 169.81 185.93 156.22 197.92 140.06 205.45 C 139.35 202.64 138.45 199.74 136.32 197.65 C 132.09 193.44 126.01 191.52 122.25 186.78 C 120.58 184.79 119.99 182.21 119.31 179.78 C 134.84 179.77 150.33 174.28 161.99 163.95 C 174.67 152.97 183.23 138.10 189.81 122.87 C 196.69 107.02 201.09 90.27 205.89 73.72 C 169.17 115.52 135.04 159.53 98.06 201.10 C 96.80 202.60 95.20 203.91 94.41 205.71 C 97.31 220.66 105.52 234.47 105.45 250.00 C 105.44 256.14 103.16 262.09 99.20 266.76 C 96.29 265.17 94.34 262.24 93.92 258.97 C 92.58 250.63 94.74 242.21 93.77 233.86 C 93.42 230.74 92.25 227.42 89.40 225.75 C 79.26 227.17 69.54 232.06 62.40 239.45 C 53.58 248.16 48.25 259.71 44.38 271.33 C 38.25 290.38 35.91 310.35 33.49 330.14 C 29.11 364.55 31.69 399.28 31.83 433.83 C 32.01 452.29 31.49 470.88 28.33 489.12 C 27.78 494.12 32.26 497.57 35.91 500.12 C 39.69 502.56 43.38 506.12 43.60 510.92 C 43.01 525.58 45.14 540.26 48.72 554.46 C 54.30 576.39 63.79 597.11 69.10 619.12 C 72.68 633.36 74.27 648.08 74.00 662.76 C 94.03 673.08 106.75 693.11 114.66 713.56 C 131.95 724.74 151.67 731.33 169.45 741.62 C 179.78 747.50 189.48 754.97 196.39 764.77 C 174.88 762.87 154.69 753.82 136.56 742.50 C 112.37 727.08 90.84 707.25 74.11 683.91 C 78.92 715.68 90.24 746.13 104.61 774.75 C 99.39 774.75 94.18 774.74 88.97 774.76 C 82.91 753.72 72.14 734.33 66.91 713.03 C 63.17 698.38 62.24 683.10 63.48 668.06 C 51.46 655.06 42.32 639.62 35.31 623.42 C 26.11 602.20 20.20 579.70 16.01 557.00 C 8.49 515.81 6.37 473.84 6.11 432.04 C 5.94 381.76 8.97 331.52 12.55 281.38 C 14.78 281.09 17.80 281.34 18.31 284.09 C 19.79 290.88 16.01 297.74 17.75 304.49 C 18.41 306.74 20.76 306.81 22.70 306.89 C 37.13 271.23 43.07 232.92 48.24 195.01 C 49.64 195.18 51.04 195.38 52.43 195.60 C 56.85 203.03 50.94 212.00 54.41 219.61 C 56.43 222.71 60.53 221.36 63.40 220.50 C 84.81 186.45 111.31 156.01 138.58 126.60 C 160.90 102.50 183.76 78.88 205.00 53.81 C 206.37 51.88 208.91 51.72 210.96 50.95 M 481.27 62.96 C 480.50 74.78 485.92 86.48 494.21 94.72 C 497.33 97.79 501.90 101.19 506.41 98.82 C 497.35 92.47 496.22 80.73 491.19 71.68 C 489.08 67.66 485.57 64.45 481.27 62.96 M 231.77 72.78 C 229.65 82.51 218.50 85.44 213.41 93.10 C 211.96 95.45 214.31 97.53 216.09 98.72 C 219.70 90.05 229.83 87.25 234.99 79.87 C 236.82 76.90 234.37 74.07 231.77 72.78 M 420.62 83.31 C 416.79 88.41 410.38 90.46 405.94 94.89 C 405.06 95.99 403.94 97.35 404.40 98.86 C 405.25 101.04 407.56 101.99 409.36 103.24 C 410.72 95.19 420.12 93.22 424.00 86.91 C 424.26 84.93 421.90 84.25 420.62 83.31 M 455.36 93.27 C 463.66 95.75 469.76 103.28 478.65 104.18 C 482.26 104.35 484.89 101.53 486.57 98.66 C 478.57 95.93 472.48 88.94 463.93 87.69 C 460.05 87.15 457.02 90.10 455.36 93.27 M 598.33 169.09 C 599.85 170.02 601.83 170.58 602.67 172.32 C 605.24 177.23 603.79 183.42 607.05 188.04 C 608.46 190.27 611.33 189.72 613.58 189.90 C 612.52 181.70 609.80 173.06 603.75 167.17 C 601.71 165.17 599.45 167.23 598.33 169.09 M 17.69 509.85 C 24.28 533.93 26.34 558.96 32.55 583.12 C 36.45 597.55 42.05 612.52 53.70 622.52 C 45.99 601.15 42.79 578.55 37.68 556.50 C 34.78 544.04 31.99 531.35 26.14 519.88 C 24.21 515.90 21.36 512.35 17.69 509.85 Z" />
<path fill="#ed1c24" opacity="1.00" d=" M 675.25 38.46 C 682.12 38.49 688.99 38.41 695.87 38.49 C 701.15 38.59 706.95 40.33 709.90 45.05 C 713.76 51.60 711.56 60.99 705.11 65.09 C 699.80 68.99 692.94 68.15 686.75 68.19 C 686.75 73.02 686.76 77.85 686.74 82.68 C 682.91 82.68 679.08 82.68 675.26 82.68 C 675.23 67.94 675.25 53.20 675.25 38.46 M 686.75 46.71 C 686.75 51.12 686.75 55.53 686.75 59.94 C 689.66 59.90 692.64 60.14 695.49 59.38 C 700.30 58.10 701.46 50.41 697.13 47.88 C 693.93 46.24 690.21 46.78 686.75 46.71 Z" />
<path fill="#ed1c24" opacity="1.00" d=" M 720.25 38.46 C 730.82 38.45 741.39 38.49 751.96 38.44 C 752.00 41.28 752.00 44.12 752.00 46.96 C 745.25 46.96 738.49 46.95 731.75 46.96 C 731.75 49.71 731.75 52.46 731.76 55.21 C 738.01 55.22 744.26 55.20 750.51 55.22 C 750.50 58.05 750.49 60.87 750.50 63.69 C 744.25 63.71 738.00 63.69 731.75 63.71 C 731.75 70.03 731.76 76.36 731.74 82.68 C 727.91 82.68 724.08 82.68 720.26 82.68 C 720.23 67.94 720.25 53.20 720.25 38.46 Z" />
<path fill="#ed1c24" opacity="1.00" d=" M 759.71 38.53 C 770.31 38.38 780.91 38.50 791.50 38.47 C 791.49 41.28 791.50 44.10 791.53 46.92 C 784.76 47.00 777.99 46.94 771.23 46.96 C 771.24 49.71 771.25 52.46 771.29 55.21 C 777.52 55.20 783.75 55.22 789.98 55.20 C 790.00 58.03 790.00 60.86 790.00 63.70 C 783.75 63.70 777.50 63.71 771.26 63.69 C 771.20 70.03 771.34 76.38 771.17 82.73 C 767.39 82.65 763.61 82.65 759.83 82.73 C 759.62 68.00 759.84 53.26 759.71 38.53 Z" />
<path fill="#ed1c24" opacity="1.00" d=" M 799.49 38.47 C 810.09 38.49 820.68 38.40 831.28 38.51 C 831.24 41.33 831.24 44.14 831.25 46.96 C 824.49 46.96 817.75 46.95 811.00 46.96 C 810.99 49.71 811.00 52.46 811.04 55.22 C 817.28 55.21 823.52 55.21 829.76 55.22 C 829.75 58.05 829.75 60.87 829.74 63.70 C 823.49 63.70 817.25 63.70 811.00 63.70 C 810.98 70.03 811.03 76.36 810.97 82.70 C 807.14 82.68 803.32 82.68 799.50 82.68 C 799.49 67.94 799.50 53.20 799.49 38.47 Z" />
<path fill="#ed1c24" opacity="1.00" d=" M 834.71 38.54 C 847.72 38.36 860.74 38.51 873.75 38.46 C 873.75 41.29 873.75 44.12 873.76 46.95 C 869.17 46.97 864.59 46.96 860.00 46.96 C 859.98 58.87 860.04 70.79 859.97 82.70 C 856.14 82.68 852.31 82.69 848.49 82.65 C 848.55 70.79 848.40 58.93 848.57 47.07 C 843.96 46.88 839.35 46.98 834.75 46.96 C 834.75 44.15 834.74 41.34 834.71 38.54 Z" />
<path fill="#ed1c24" opacity="1.00" d=" M 876.50 38.47 C 889.50 38.46 902.50 38.46 915.51 38.47 C 915.49 41.28 915.49 44.09 915.54 46.91 C 910.94 47.00 906.34 46.95 901.75 46.96 C 901.75 58.87 901.77 70.78 901.74 82.68 C 897.91 82.68 894.08 82.68 890.26 82.68 C 890.23 70.78 890.25 58.87 890.25 46.96 C 885.66 46.95 881.06 46.98 876.48 46.93 C 876.49 44.11 876.49 41.29 876.50 38.47 Z" />
<path fill="#ed1c24" opacity="1.00" d=" M 918.25 38.46 C 931.26 38.50 944.27 38.38 957.28 38.52 C 957.24 41.33 957.24 44.15 957.25 46.96 C 952.65 46.97 948.06 46.92 943.47 47.01 C 943.55 58.89 943.45 70.76 943.53 82.64 C 939.69 82.70 935.86 82.68 932.03 82.70 C 931.96 70.78 932.02 58.87 932.00 46.96 C 927.41 46.96 922.82 46.97 918.24 46.95 C 918.24 44.12 918.24 41.29 918.25 38.46 Z" />
<path fill="#ed1c24" opacity="1.00" d=" M 965.80 45.85 C 968.60 41.78 973.17 39.23 977.92 38.16 C 985.33 36.50 993.22 37.76 1000.00 41.10 C 999.99 44.85 1000.05 48.60 999.91 52.35 C 996.21 50.38 993.16 47.12 988.92 46.27 C 983.11 44.78 976.33 47.98 974.54 53.88 C 971.99 61.18 973.54 72.12 982.07 74.58 C 988.73 76.99 994.87 72.58 999.81 68.64 C 1000.07 72.38 1000.02 76.12 999.97 79.86 C 991.48 84.19 980.85 85.36 972.17 80.94 C 966.43 78.16 962.94 72.12 961.92 65.99 C 960.78 59.14 961.68 51.62 965.80 45.85 Z" />
<path fill="#ed1c24" opacity="1.00" d=" M 1008.49 38.47 C 1012.30 38.47 1016.12 38.48 1019.94 38.42 C 1020.06 43.85 1019.95 49.28 1020.03 54.71 C 1025.52 54.67 1031.02 54.73 1036.52 54.66 C 1036.47 49.26 1036.50 43.86 1036.49 38.47 C 1040.29 38.47 1044.09 38.49 1047.90 38.39 C 1048.11 53.16 1047.98 67.93 1047.97 82.70 C 1044.13 82.68 1040.30 82.70 1036.47 82.63 C 1036.52 76.16 1036.47 69.69 1036.51 63.21 C 1031.00 63.19 1025.51 63.21 1020.01 63.19 C 1019.97 69.69 1020.03 76.20 1019.97 82.70 C 1016.14 82.67 1012.32 82.68 1008.50 82.67 C 1008.49 67.94 1008.50 53.20 1008.49 38.47 Z" />
<path fill="#ed1c24" opacity="1.00" d=" M 1059.73 38.51 C 1063.57 38.44 1067.42 38.43 1071.28 38.52 C 1071.23 43.91 1071.25 49.30 1071.26 54.70 C 1076.75 54.69 1082.24 54.69 1087.74 54.70 C 1087.74 49.31 1087.78 43.92 1087.71 38.54 C 1091.56 38.42 1095.42 38.42 1099.29 38.53 C 1099.19 53.25 1099.31 67.97 1099.22 82.69 C 1095.40 82.67 1091.59 82.67 1087.78 82.70 C 1087.71 76.20 1087.75 69.70 1087.76 63.21 C 1082.25 63.20 1076.74 63.20 1071.25 63.21 C 1071.28 69.66 1071.18 76.12 1071.31 82.58 C 1067.48 82.73 1063.65 82.67 1059.82 82.72 C 1059.64 67.98 1059.82 53.24 1059.73 38.51 Z" />
<path fill="#ffffff" opacity="1.00" d=" M 686.75 46.71 C 690.21 46.78 693.93 46.24 697.13 47.88 C 701.46 50.41 700.30 58.10 695.49 59.38 C 692.64 60.14 689.66 59.90 686.75 59.94 C 686.75 55.53 686.75 51.12 686.75 46.71 Z" />
<path fill="#ffffff" opacity="1.00" d=" M 481.27 62.96 C 485.57 64.45 489.08 67.66 491.19 71.68 C 496.22 80.73 497.35 92.47 506.41 98.82 C 501.90 101.19 497.33 97.79 494.21 94.72 C 485.92 86.48 480.50 74.78 481.27 62.96 Z" />
<path fill="#ffffff" opacity="1.00" d=" M 231.77 72.78 C 234.37 74.07 236.82 76.90 234.99 79.87 C 229.83 87.25 219.70 90.05 216.09 98.72 C 214.31 97.53 211.96 95.45 213.41 93.10 C 218.50 85.44 229.65 82.51 231.77 72.78 Z" />
<path fill="#ffffff" opacity="1.00" d=" M 420.62 83.31 C 421.90 84.25 424.26 84.93 424.00 86.91 C 420.12 93.22 410.72 95.19 409.36 103.24 C 407.56 101.99 405.25 101.04 404.40 98.86 C 403.94 97.35 405.06 95.99 405.94 94.89 C 410.38 90.46 416.79 88.41 420.62 83.31 Z" />
<path fill="#ffffff" opacity="1.00" d=" M 455.36 93.27 C 457.02 90.10 460.05 87.15 463.93 87.69 C 472.48 88.94 478.57 95.93 486.57 98.66 C 484.89 101.53 482.26 104.35 478.65 104.18 C 469.76 103.28 463.66 95.75 455.36 93.27 Z" />
<path fill="#ed1c24" opacity="1.00" d=" M 705.82 112.66 C 714.17 109.15 723.82 110.43 731.89 114.13 C 732.05 117.93 732.07 121.73 731.84 125.52 C 727.24 122.69 722.75 118.42 716.90 119.19 C 710.63 119.31 705.92 125.10 705.62 131.10 C 704.56 137.86 707.42 146.63 714.98 148.01 C 721.39 149.85 726.98 145.50 731.79 141.91 C 732.02 145.58 732.20 149.29 731.84 152.96 C 725.24 156.71 717.24 157.73 709.84 156.21 C 705.05 155.18 700.45 152.56 697.66 148.46 C 692.99 141.62 692.44 132.56 694.84 124.79 C 696.60 119.44 700.52 114.76 705.82 112.66 Z" />
<path fill="#ed1c24" opacity="1.00" d=" M 848.67 114.67 C 857.46 108.82 869.18 109.84 878.41 114.14 C 878.55 117.96 878.60 121.80 878.31 125.62 C 873.94 122.69 869.52 118.68 863.86 119.16 C 858.46 119.17 853.64 123.23 852.59 128.50 C 850.66 135.68 852.72 146.00 861.07 147.89 C 867.69 150.13 873.28 145.34 878.44 142.04 C 878.55 145.75 878.54 149.46 878.38 153.17 C 869.90 157.29 859.44 158.52 850.81 154.19 C 844.40 151.04 840.73 144.03 840.15 137.12 C 839.20 128.92 841.63 119.62 848.67 114.67 Z" />
<path fill="#ed1c24" opacity="1.00" d=" M 938.23 111.64 C 942.07 111.64 945.92 111.64 949.77 111.64 C 949.74 117.04 949.75 122.44 949.75 127.84 C 955.25 127.83 960.75 127.83 966.25 127.83 C 966.24 122.44 966.25 117.04 966.23 111.64 C 970.07 111.64 973.91 111.64 977.76 111.64 C 977.74 126.37 977.75 141.11 977.76 155.84 C 973.91 155.85 970.07 155.86 966.24 155.83 C 966.26 149.36 966.23 142.88 966.26 136.40 C 960.75 136.39 955.25 136.39 949.75 136.40 C 949.76 142.88 949.74 149.36 949.76 155.84 C 945.91 155.85 942.07 155.85 938.24 155.84 C 938.25 141.11 938.26 126.37 938.23 111.64 Z" />
<path fill="#ed1c24" opacity="1.00" d=" M 989.23 111.64 C 993.07 111.64 996.92 111.64 1000.77 111.64 C 1000.73 117.04 1000.76 122.44 1000.75 127.83 C 1006.24 127.84 1011.74 127.83 1017.24 127.84 C 1017.24 122.44 1017.26 117.05 1017.22 111.65 C 1021.07 111.63 1024.93 111.63 1028.79 111.66 C 1028.71 126.39 1028.77 141.11 1028.76 155.84 C 1024.91 155.85 1021.08 155.85 1017.24 155.84 C 1017.25 149.36 1017.23 142.88 1017.26 136.40 C 1011.75 136.39 1006.24 136.39 1000.74 136.40 C 1000.76 142.88 1000.74 149.36 1000.76 155.84 C 996.91 155.85 993.07 155.85 989.24 155.84 C 989.25 141.11 989.26 126.37 989.23 111.64 Z" />
<path fill="#ed1c24" opacity="1.00" d=" M 740.48 111.65 C 744.31 111.64 748.15 111.64 752.00 111.65 C 752.00 117.04 751.99 122.44 752.01 127.84 C 757.50 127.83 763.00 127.83 768.50 127.84 C 768.50 122.44 768.49 117.04 768.50 111.64 C 772.33 111.64 776.16 111.64 780.00 111.64 C 779.99 126.38 780.02 141.12 779.99 155.86 C 776.14 155.85 772.31 155.86 768.48 155.82 C 768.52 149.35 768.47 142.88 768.51 136.40 C 763.01 136.39 757.50 136.40 752.00 136.40 C 751.99 142.89 752.01 149.37 751.99 155.86 C 748.15 155.85 744.32 155.85 740.50 155.85 C 740.48 141.12 740.52 126.38 740.48 111.65 Z" />
<path fill="#ed1c24" opacity="1.00" d=" M 791.48 111.65 C 795.31 111.64 799.15 111.64 803.00 111.64 C 803.00 117.04 802.99 122.44 803.01 127.84 C 808.50 127.83 814.00 127.83 819.50 127.84 C 819.50 122.43 819.47 117.03 819.51 111.63 C 823.34 111.65 827.16 111.64 831.00 111.64 C 831.00 126.38 831.01 141.12 830.99 155.86 C 827.15 155.85 823.31 155.86 819.48 155.83 C 819.52 149.35 819.47 142.88 819.51 136.40 C 814.01 136.39 808.50 136.39 803.00 136.40 C 802.99 142.88 803.01 149.37 802.99 155.85 C 799.16 155.85 795.34 155.84 791.52 155.87 C 791.45 141.13 791.54 126.39 791.48 111.65 Z" />
<path fill="#ed1c24" opacity="1.00" d=" M 887.00 111.64 C 890.83 111.64 894.66 111.64 898.50 111.64 C 898.51 117.04 898.48 122.45 898.52 127.85 C 904.01 127.82 909.50 127.84 914.99 127.84 C 915.00 122.44 914.99 117.04 915.00 111.64 C 918.84 111.64 922.68 111.64 926.52 111.65 C 926.47 126.39 926.52 141.12 926.50 155.85 C 922.66 155.85 918.83 155.85 915.01 155.86 C 914.99 149.37 915.00 142.89 915.00 136.40 C 909.49 136.39 903.99 136.39 898.49 136.40 C 898.52 142.88 898.48 149.36 898.52 155.83 C 894.68 155.85 890.84 155.85 887.01 155.86 C 886.98 141.12 887.00 126.38 887.00 111.64 Z" />
<path fill="#ffffff" opacity="1.00" d=" M 598.33 169.09 C 599.45 167.23 601.71 165.17 603.75 167.17 C 609.80 173.06 612.52 181.70 613.58 189.90 C 611.33 189.72 608.46 190.27 607.05 188.04 C 603.79 183.42 605.24 177.23 602.67 172.32 C 601.83 170.58 599.85 170.02 598.33 169.09 Z" />
<path fill="#000000" opacity="1.00" d=" M 415.27 195.18 C 431.75 185.03 450.55 178.39 469.92 176.97 C 487.72 176.21 505.79 180.67 521.01 189.99 C 536.82 199.44 549.63 213.33 559.25 228.93 C 573.56 252.08 581.01 279.03 582.89 306.07 C 578.17 302.07 573.75 297.70 568.53 294.34 C 547.27 280.07 522.13 272.89 497.07 268.90 C 491.08 268.09 485.05 267.66 479.07 266.88 C 454.55 265.52 429.67 267.03 406.00 273.92 C 402.93 274.93 399.86 275.94 396.78 276.93 C 395.14 277.59 393.49 278.25 391.84 278.88 C 383.99 282.15 376.54 286.27 369.51 291.03 C 379.44 256.84 396.95 225.48 415.27 195.18 M 414.25 220.32 C 404.88 231.80 398.78 246.50 399.58 261.48 C 412.46 257.97 425.66 255.85 438.85 253.92 C 454.18 252.50 469.63 250.85 485.02 252.35 C 494.78 252.66 504.46 254.17 514.05 255.95 C 518.08 256.88 522.11 257.81 526.11 258.90 C 537.08 262.08 547.84 266.19 557.86 271.71 C 553.75 251.23 541.89 233.76 532.50 215.50 C 530.37 214.68 528.09 214.71 525.86 214.69 C 521.46 216.12 519.47 220.41 516.59 223.61 C 514.30 226.36 510.38 225.99 507.21 225.59 C 503.40 216.25 493.30 212.03 488.22 203.68 C 485.23 198.94 488.20 193.33 491.73 189.85 C 485.12 189.37 478.47 189.47 471.87 189.95 C 449.80 192.48 428.33 202.88 414.25 220.32 Z" />
<path fill="#ed1c24" opacity="1.00" d=" M 742.18 189.18 C 750.83 181.95 763.96 182.36 773.52 187.49 C 774.10 191.24 773.73 195.09 773.47 198.87 C 769.18 195.73 764.60 191.76 758.89 192.36 C 753.84 192.35 749.29 196.18 748.04 201.00 C 746.69 205.83 746.87 211.31 749.30 215.77 C 751.98 220.82 758.69 222.67 763.91 220.90 C 767.59 219.81 770.40 217.07 773.61 215.09 C 773.85 218.82 773.78 222.56 773.67 226.30 C 766.63 229.91 758.45 230.70 750.76 229.18 C 743.89 227.59 738.26 222.12 736.37 215.34 C 733.88 206.47 735.17 195.71 742.18 189.18 Z" />
<path fill="#ed1c24" opacity="1.00" d=" M 782.20 184.77 C 786.06 184.74 789.93 184.74 793.80 184.77 C 793.71 190.12 793.76 195.46 793.75 200.81 C 799.25 200.81 804.75 200.81 810.25 200.81 C 810.23 195.46 810.28 190.12 810.20 184.77 C 814.06 184.74 817.93 184.74 821.80 184.77 C 821.70 199.44 821.76 214.12 821.77 228.79 C 817.92 228.80 814.07 228.80 810.23 228.79 C 810.26 222.38 810.23 215.98 810.26 209.57 C 804.75 209.56 799.24 209.56 793.74 209.58 C 793.77 215.98 793.73 222.38 793.77 228.79 C 789.92 228.80 786.07 228.80 782.23 228.79 C 782.24 214.12 782.29 199.44 782.20 184.77 Z" />
<path fill="#ed1c24" opacity="1.00" d=" M 833.47 228.77 C 833.56 214.08 833.41 199.40 833.55 184.72 C 837.35 184.77 841.17 184.76 844.98 184.75 C 845.02 190.11 844.98 195.46 845.01 200.82 C 850.49 200.81 855.98 200.78 861.47 200.84 C 861.54 195.47 861.44 190.10 861.53 184.73 C 865.34 184.76 869.16 184.76 872.98 184.75 C 873.02 199.44 873.00 214.12 872.99 228.81 C 869.17 228.79 865.36 228.78 861.55 228.84 C 861.43 222.42 861.51 215.99 861.51 209.57 C 856.01 209.57 850.50 209.56 845.00 209.57 C 845.00 215.98 845.00 222.38 845.00 228.79 C 841.15 228.80 837.31 228.81 833.47 228.77 Z" />
<path fill="#ed1c24" opacity="1.00" d=" M 884.47 184.76 C 891.34 184.77 898.20 184.73 905.07 184.76 C 910.43 184.89 916.32 186.76 919.27 191.57 C 923.10 198.36 920.51 207.96 913.73 211.86 C 908.50 215.28 902.00 214.55 896.07 214.51 C 895.94 219.28 896.02 224.04 895.99 228.81 C 892.16 228.79 888.34 228.79 884.53 228.83 C 884.43 214.14 884.55 199.45 884.47 184.76 M 896.10 192.82 C 895.96 197.35 895.88 201.89 896.18 206.43 C 899.30 206.30 902.55 206.55 905.53 205.38 C 909.37 203.59 910.30 197.68 907.21 194.79 C 903.97 192.54 899.84 192.82 896.10 192.82 Z" />
<path fill="#ed1c24" opacity="1.00" d=" M 929.20 184.77 C 939.80 184.73 950.39 184.77 960.99 184.75 C 961.01 187.63 960.99 190.52 960.88 193.40 C 954.16 193.31 947.45 193.37 940.74 193.36 C 940.74 196.09 940.75 198.82 940.76 201.55 C 947.01 201.56 953.27 201.54 959.53 201.57 C 959.50 204.31 959.49 207.06 959.52 209.80 C 953.27 209.85 947.02 209.81 940.77 209.83 C 940.73 216.15 940.75 222.47 940.77 228.79 C 936.92 228.80 933.07 228.80 929.23 228.78 C 929.24 214.11 929.29 199.44 929.20 184.77 Z" />
<path fill="#ed1c24" opacity="1.00" d=" M 969.02 184.75 C 979.61 184.77 990.21 184.72 1000.81 184.78 C 1000.75 187.63 1000.74 190.47 1000.73 193.32 C 993.97 193.41 987.21 193.29 980.46 193.39 C 980.49 196.11 980.50 198.83 980.52 201.55 C 986.77 201.56 993.02 201.53 999.27 201.57 C 999.24 204.30 999.24 207.04 999.29 209.77 C 993.01 210.02 986.71 209.49 980.46 210.11 C 980.53 216.35 980.52 222.59 980.47 228.83 C 976.64 228.79 972.83 228.79 969.01 228.81 C 968.99 214.12 968.98 199.44 969.02 184.75 Z" />
<path fill="#ed1c24" opacity="1.00" d=" M 1008.74 184.76 C 1019.32 184.74 1029.91 184.77 1040.50 184.75 C 1040.51 187.62 1040.50 190.49 1040.45 193.37 C 1033.70 193.34 1026.96 193.35 1020.22 193.36 C 1020.23 196.09 1020.25 198.83 1020.29 201.56 C 1026.52 201.54 1032.76 201.55 1039.00 201.55 C 1038.99 204.31 1038.99 207.07 1038.99 209.83 C 1032.77 209.81 1026.55 209.85 1020.34 209.81 C 1020.14 216.14 1020.30 222.47 1020.24 228.80 C 1016.41 228.80 1012.58 228.80 1008.75 228.80 C 1008.74 214.12 1008.77 199.44 1008.74 184.76 Z" />
<path fill="#ffffff" opacity="1.00" d=" M 414.25 220.32 C 428.33 202.88 449.80 192.48 471.87 189.95 C 478.47 189.47 485.12 189.37 491.73 189.85 C 488.20 193.33 485.23 198.94 488.22 203.68 C 493.30 212.03 503.40 216.25 507.21 225.59 C 510.38 225.99 514.30 226.36 516.59 223.61 C 519.47 220.41 521.46 216.12 525.86 214.69 C 528.09 214.71 530.37 214.68 532.50 215.50 C 541.89 233.76 553.75 251.23 557.86 271.71 C 547.84 266.19 537.08 262.08 526.11 258.90 C 522.11 257.81 518.08 256.88 514.05 255.95 C 504.46 254.17 494.78 252.66 485.02 252.35 C 469.63 250.85 454.18 252.50 438.85 253.92 C 425.66 255.85 412.46 257.97 399.58 261.48 C 398.78 246.50 404.88 231.80 414.25 220.32 Z" />
<path fill="#000000" opacity="1.00" d=" M 174.19 201.18 C 194.69 190.02 219.63 188.53 241.83 195.02 C 253.99 208.63 262.37 225.28 268.85 242.26 C 275.43 259.93 279.82 278.38 282.73 297.00 C 264.73 285.17 243.26 279.77 222.00 278.03 C 204.60 276.59 187.00 278.01 169.99 281.95 C 154.22 285.91 138.66 292.32 126.31 303.12 C 121.59 307.04 118.01 312.08 114.55 317.10 C 113.56 297.06 117.85 276.92 125.41 258.40 C 135.15 234.94 151.53 213.38 174.19 201.18 M 204.31 205.45 C 183.50 209.73 165.56 223.08 152.48 239.45 C 140.66 254.58 131.26 272.57 129.73 291.97 C 141.15 275.03 160.62 265.70 179.93 260.91 C 207.09 254.77 236.43 255.93 262.33 266.60 C 262.11 257.76 259.21 248.59 252.60 242.44 C 245.72 235.33 235.86 232.63 226.55 230.37 C 220.72 224.41 221.68 214.91 216.33 208.64 C 213.45 205.27 208.46 204.32 204.31 205.45 Z" />
<path fill="#ffffff" opacity="1.00" d=" M 896.10 192.82 C 899.84 192.82 903.97 192.54 907.21 194.79 C 910.30 197.68 909.37 203.59 905.53 205.38 C 902.55 206.55 899.30 206.30 896.18 206.43 C 895.88 201.89 895.96 197.35 896.10 192.82 Z" />
<path fill="#ffffff" opacity="1.00" d=" M 204.31 205.45 C 208.46 204.32 213.45 205.27 216.33 208.64 C 221.68 214.91 220.72 224.41 226.55 230.37 C 235.86 232.63 245.72 235.33 252.60 242.44 C 259.21 248.59 262.11 257.76 262.33 266.60 C 236.43 255.93 207.09 254.77 179.93 260.91 C 160.62 265.70 141.15 275.03 129.73 291.97 C 131.26 272.57 140.66 254.58 152.48 239.45 C 165.56 223.08 183.50 209.73 204.31 205.45 Z" />
<path fill="#000000" opacity="1.00" d=" M 649.55 220.76 C 653.46 224.02 655.59 228.77 657.60 233.32 C 661.64 243.05 664.34 253.28 666.62 263.55 C 668.65 272.82 670.21 282.35 669.27 291.87 C 667.45 312.77 658.67 332.10 652.92 352.07 C 651.31 357.34 650.19 362.73 648.86 368.07 C 627.36 381.96 612.99 403.81 598.07 424.05 C 603.61 431.32 612.81 434.26 618.88 440.94 C 623.36 445.88 624.61 452.95 623.61 459.38 C 613.26 448.15 598.17 442.05 583.12 440.83 C 580.69 440.73 578.27 440.73 575.85 440.84 C 573.21 441.38 570.50 441.47 567.83 441.77 C 563.92 442.78 559.96 443.66 556.17 445.10 C 553.52 446.17 550.86 447.23 548.33 448.56 C 546.34 449.24 547.92 451.72 548.14 453.06 C 552.86 466.64 565.67 474.92 572.59 487.15 C 575.69 492.55 576.48 499.95 572.37 505.04 C 562.60 498.79 558.20 487.61 550.86 479.11 C 546.14 473.55 539.24 469.80 531.90 469.48 C 524.15 483.25 514.08 496.23 500.54 504.69 C 492.00 510.17 482.19 513.41 472.22 515.05 C 470.15 515.20 466.93 516.28 468.13 519.04 C 469.72 522.69 471.68 526.38 471.08 530.53 C 453.47 522.23 444.23 504.23 431.42 490.59 C 428.53 487.92 425.70 483.15 421.08 485.10 C 411.52 485.65 402.06 487.72 393.08 491.07 C 379.61 496.19 367.85 506.08 361.51 519.14 C 356.58 528.98 354.52 539.97 353.68 550.87 C 350.85 550.18 347.81 549.14 346.15 546.56 C 342.84 541.87 343.37 535.80 343.76 530.38 C 333.79 532.70 324.27 537.78 317.66 545.73 C 307.69 557.54 303.47 572.95 301.11 587.93 C 297.70 610.96 298.01 634.32 297.76 657.54 C 292.01 654.82 288.74 648.81 287.27 642.86 C 284.72 632.47 285.40 621.65 286.31 611.09 C 287.35 600.69 288.20 590.20 290.86 580.06 C 294.30 565.97 300.14 552.50 308.13 540.41 C 299.85 536.40 290.12 534.63 281.19 537.36 C 273.19 539.93 268.09 547.75 267.07 555.84 C 260.54 552.84 262.10 544.35 259.11 538.91 C 257.12 534.28 250.97 533.83 246.92 535.73 C 232.63 552.91 223.60 574.39 221.34 596.64 C 215.77 593.14 213.05 586.42 213.62 580.00 C 214.52 568.87 219.58 558.61 224.96 549.01 C 228.60 542.69 232.53 536.52 236.99 530.74 C 236.73 527.91 236.55 525.01 235.33 522.41 C 232.49 515.67 225.72 511.56 222.99 504.77 C 221.62 501.71 221.57 498.30 221.41 495.02 C 206.90 499.11 195.16 509.39 185.42 520.51 C 173.03 534.72 162.13 550.94 145.59 560.76 C 152.89 548.47 157.78 533.27 170.82 525.72 C 161.96 519.46 150.78 515.99 144.19 506.87 C 138.43 499.08 138.46 488.77 140.18 479.65 C 134.01 477.93 127.51 476.38 121.10 477.08 C 119.34 477.28 117.57 477.44 115.81 477.65 C 102.54 481.15 92.19 491.14 78.97 494.86 C 78.27 489.00 78.76 482.48 82.80 477.83 C 88.40 471.28 96.99 468.74 104.44 464.95 C 103.52 458.07 96.90 454.11 90.88 452.11 C 85.54 450.35 80.08 449.01 74.77 447.17 C 72.74 446.30 70.78 445.30 68.91 444.14 C 71.04 439.80 73.90 434.99 79.09 434.04 C 68.52 427.93 60.95 417.58 57.05 406.13 C 51.98 391.70 51.15 376.19 51.55 361.03 C 52.59 335.88 57.52 311.08 63.75 286.77 C 65.77 278.08 60.96 269.20 63.46 260.57 C 64.91 256.22 69.95 256.00 73.78 256.26 C 78.21 268.68 75.88 282.26 71.12 294.22 C 66.73 305.88 60.61 317.07 58.72 329.53 C 55.68 357.62 59.30 387.42 74.22 411.88 C 87.58 434.10 109.35 450.03 132.87 460.18 C 135.21 461.14 137.54 462.14 139.89 463.11 C 145.80 465.34 151.81 467.31 157.86 469.16 C 167.49 471.83 177.23 474.19 187.09 475.83 C 221.06 481.97 255.69 482.20 290.09 481.15 C 295.89 480.16 301.83 480.78 307.64 479.91 C 312.03 479.29 316.51 479.66 320.89 478.87 C 324.62 478.50 328.37 478.41 332.11 478.15 C 339.42 477.29 346.77 476.71 354.12 476.16 C 357.39 475.39 360.77 475.44 364.11 475.15 C 370.31 474.14 376.62 473.87 382.83 472.86 C 430.94 467.13 479.17 458.70 524.74 441.77 C 526.20 441.24 527.65 440.69 529.12 440.15 C 537.16 436.96 545.10 433.51 552.89 429.75 C 570.11 421.15 586.67 410.94 601.03 398.07 C 614.73 386.18 626.26 371.81 634.99 355.92 C 644.23 338.88 650.03 320.09 652.62 300.91 C 656.41 274.25 654.12 247.16 649.55 220.76 M 465.95 473.84 C 458.42 476.01 450.86 479.21 445.31 484.92 C 452.43 487.51 458.06 493.29 460.74 500.34 C 465.18 500.31 469.63 500.47 474.07 500.16 C 480.16 499.05 486.32 497.78 491.76 494.69 C 503.86 488.35 511.49 476.30 517.17 464.30 C 500.28 468.44 482.72 469.15 465.95 473.84 M 150.06 484.56 C 150.61 491.71 153.90 498.89 159.86 503.10 C 167.42 508.46 176.95 510.07 186.01 510.36 C 184.85 506.69 185.04 502.07 188.52 499.71 C 192.07 497.32 196.32 494.71 196.37 489.84 C 189.10 487.45 181.61 485.80 174.02 484.86 C 166.06 484.02 158.04 484.36 150.06 484.56 M 231.34 499.89 C 238.10 510.27 246.42 521.20 258.91 524.71 C 266.91 527.03 275.20 524.58 282.42 521.03 C 283.18 512.45 282.51 503.79 282.78 495.18 C 275.91 495.65 268.95 495.79 262.12 494.85 C 255.76 494.29 249.35 494.06 242.97 494.38 C 238.55 494.59 234.12 496.33 231.34 499.89 M 297.77 494.73 C 297.69 505.02 297.83 515.32 297.70 525.62 C 310.33 525.81 323.25 524.27 334.85 519.01 C 345.48 514.17 354.62 505.59 359.14 494.72 C 338.68 494.74 318.23 494.73 297.77 494.73 Z" />
<path fill="#ed1c24" opacity="1.00" d=" M 1005.98 257.34 C 1010.65 257.27 1015.12 258.84 1019.24 260.91 C 1019.25 264.67 1019.32 268.42 1019.10 272.17 C 1014.94 269.68 1011.18 265.81 1006.02 265.67 C 1000.41 265.15 994.80 269.06 993.48 274.55 C 992.00 280.23 992.45 287.00 996.52 291.55 C 999.83 295.05 1005.12 295.23 1009.54 294.29 C 1013.17 293.08 1016.10 290.50 1019.16 288.28 C 1019.27 291.96 1019.23 295.65 1019.32 299.34 C 1012.37 303.38 1003.81 304.58 996.05 302.48 C 989.32 300.91 983.81 295.49 981.93 288.88 C 979.47 280.41 980.53 270.33 986.62 263.61 C 991.55 258.43 999.06 256.79 1005.98 257.34 Z" />
<path fill="#ed1c24" opacity="1.00" d=" M 738.03 258.28 C 745.49 258.39 752.96 258.14 760.42 258.40 C 765.56 258.52 770.74 261.15 773.23 265.76 C 776.33 272.53 773.82 281.42 767.31 285.23 C 762.09 288.85 755.49 287.51 749.55 287.74 C 749.46 292.65 749.53 297.56 749.48 302.48 C 745.66 302.47 741.85 302.47 738.05 302.49 C 737.96 287.75 737.99 273.01 738.03 258.28 M 749.47 266.51 C 749.51 270.88 749.51 275.25 749.48 279.62 C 752.35 279.59 755.26 279.79 758.12 279.26 C 762.79 277.83 764.25 270.69 760.18 267.82 C 757.00 265.81 753.02 266.70 749.47 266.51 Z" />
<path fill="#ed1c24" opacity="1.00" d=" M 782.80 258.26 C 793.38 258.38 803.97 258.18 814.55 258.37 C 814.49 261.13 814.49 263.89 814.54 266.65 C 807.76 266.79 800.97 266.68 794.19 266.72 C 794.24 269.39 794.25 272.06 794.23 274.73 C 800.46 274.73 806.69 274.75 812.92 274.71 C 813.01 277.65 813.01 280.58 812.94 283.52 C 806.69 283.47 800.44 283.49 794.19 283.51 C 794.30 289.83 794.24 296.15 794.24 302.47 C 790.41 302.47 786.58 302.47 782.76 302.47 C 782.77 287.73 782.68 273.00 782.80 258.26 Z" />
<path fill="#ed1c24" opacity="1.00" d=" M 822.44 258.37 C 833.07 258.27 843.70 258.19 854.34 258.41 C 854.27 261.20 854.24 263.98 854.16 266.77 C 847.43 266.66 840.71 266.74 834.00 266.72 C 833.99 269.40 833.99 272.07 834.03 274.75 C 840.20 274.68 846.39 274.83 852.57 274.65 C 852.79 277.59 852.79 280.55 852.71 283.51 C 846.47 283.48 840.23 283.49 834.00 283.49 C 833.98 289.82 834.04 296.16 833.96 302.49 C 830.14 302.47 826.32 302.47 822.51 302.48 C 822.44 287.77 822.58 273.07 822.44 258.37 Z" />
<path fill="#ed1c24" opacity="1.00" d=" M 862.22 258.31 C 872.81 258.27 883.40 258.31 893.99 258.28 C 894.00 261.10 893.99 263.91 893.98 266.73 C 887.23 266.70 880.48 266.72 873.73 266.72 C 873.74 269.39 873.75 272.06 873.75 274.73 C 879.97 274.72 886.19 274.76 892.42 274.71 C 892.51 277.63 892.52 280.56 892.49 283.50 C 886.23 283.49 879.98 283.49 873.74 283.50 C 873.78 289.80 873.72 296.11 873.77 302.42 C 869.96 302.49 866.15 302.46 862.34 302.52 C 862.10 287.79 862.34 273.04 862.22 258.31 Z" />
<path fill="#ed1c24" opacity="1.00" d=" M 902.02 258.28 C 912.60 258.32 923.19 258.27 933.78 258.31 C 933.75 261.10 933.75 263.90 933.77 266.71 C 927.00 266.73 920.23 266.71 913.47 266.72 C 913.49 269.37 913.49 272.03 913.46 274.69 C 919.74 274.89 926.03 274.46 932.30 274.94 C 932.24 277.78 932.24 280.61 932.25 283.45 C 925.99 283.54 919.73 283.47 913.48 283.50 C 913.51 289.82 913.52 296.15 913.48 302.48 C 909.66 302.47 905.85 302.47 902.05 302.49 C 901.95 287.75 902.00 273.02 902.02 258.28 Z" />
<path fill="#ed1c24" opacity="1.00" d=" M 937.22 258.31 C 950.22 258.26 963.22 258.33 976.21 258.27 C 976.25 261.08 976.26 263.90 976.25 266.72 C 971.66 266.71 967.08 266.73 962.50 266.70 C 962.49 278.62 962.52 290.55 962.49 302.47 C 958.67 302.47 954.85 302.47 951.05 302.49 C 950.94 290.57 951.03 278.64 951.00 266.72 C 946.40 266.71 941.81 266.73 937.23 266.70 C 937.24 263.90 937.24 261.11 937.22 258.31 Z" />
<path fill="#ed1c24" opacity="1.00" d=" M 1027.43 258.39 C 1031.27 258.25 1035.12 258.29 1038.97 258.28 C 1039.03 263.68 1038.96 269.09 1039.04 274.49 C 1044.51 274.47 1049.99 274.48 1055.47 274.48 C 1055.50 269.11 1055.53 263.74 1055.44 258.37 C 1059.28 258.26 1063.12 258.29 1066.97 258.28 C 1067.00 273.01 1067.04 287.75 1066.96 302.49 C 1063.14 302.47 1059.32 302.47 1055.52 302.48 C 1055.45 295.90 1055.56 289.32 1055.44 282.74 C 1050.01 282.75 1044.57 282.79 1039.14 282.71 C 1038.82 289.29 1039.11 295.89 1038.95 302.49 C 1035.14 302.47 1031.32 302.47 1027.51 302.48 C 1027.43 287.78 1027.60 273.08 1027.43 258.39 Z" />
<path fill="#ffffff" opacity="1.00" d=" M 749.47 266.51 C 753.02 266.70 757.00 265.81 760.18 267.82 C 764.25 270.69 762.79 277.83 758.12 279.26 C 755.26 279.79 752.35 279.59 749.48 279.62 C 749.51 275.25 749.51 270.88 749.47 266.51 Z" />
<path fill="#000000" opacity="1.00" d=" M 429.88 291.62 C 438.46 281.02 453.36 279.51 466.08 279.86 C 479.78 281.02 493.47 284.10 505.82 290.32 C 512.48 293.48 518.77 297.71 523.43 303.49 C 525.37 306.08 526.98 309.13 526.95 312.45 C 523.01 309.72 518.52 307.99 514.25 305.88 C 498.68 298.71 482.03 293.93 465.01 291.87 C 453.32 290.89 441.58 291.24 429.88 291.62 Z" />
<path fill="#000000" opacity="1.00" d=" M 192.87 291.87 C 200.86 290.30 209.17 289.83 217.15 291.80 C 224.19 293.76 230.55 299.18 231.55 306.75 C 223.70 302.67 214.62 301.60 205.89 301.82 C 190.34 302.99 175.53 308.17 160.47 311.84 C 163.58 303.48 172.22 299.25 179.85 295.83 C 184.10 294.22 188.44 292.90 192.87 291.87 Z" />
<path fill="#000000" opacity="1.00" d=" M 262.29 316.67 C 264.61 316.75 267.32 316.05 269.25 317.76 C 272.03 319.96 272.01 323.83 272.68 327.01 C 268.52 334.52 261.90 340.24 254.95 345.08 C 246.94 350.55 238.17 354.82 229.12 358.29 C 219.97 361.65 210.56 364.32 200.95 365.98 C 198.98 366.43 196.97 366.62 194.97 366.90 C 191.73 367.69 188.35 367.38 185.11 368.11 C 178.71 368.51 172.27 368.51 165.87 368.13 C 162.96 367.51 159.94 367.68 157.05 366.98 C 153.71 366.46 150.39 365.84 147.15 364.85 C 143.63 363.95 140.25 362.62 136.89 361.26 C 135.95 360.78 135.02 360.31 134.08 359.85 C 122.61 354.32 113.43 344.30 109.22 332.25 C 111.89 333.01 114.48 334.01 117.09 334.95 C 123.31 336.96 129.64 338.54 135.96 340.15 C 139.27 340.84 142.59 341.48 145.88 342.25 C 147.59 342.47 149.31 342.68 151.01 342.97 C 153.25 343.47 155.55 343.65 157.79 344.14 C 173.45 346.08 189.32 346.32 205.04 345.10 C 207.64 344.57 210.31 344.48 212.91 343.91 C 216.24 343.43 219.54 342.72 222.80 341.87 C 238.11 337.97 253.46 330.29 262.29 316.67 Z" />
<path fill="#000000" opacity="1.00" d=" M 384.33 322.44 C 392.08 328.93 401.49 333.10 411.12 335.93 C 423.74 339.80 436.89 341.58 450.01 342.52 C 465.32 342.81 480.74 343.23 495.92 340.89 C 499.69 340.49 503.41 339.71 507.17 339.20 C 509.06 338.72 510.98 338.38 512.88 337.91 C 514.26 337.61 515.65 337.31 517.04 336.99 C 520.71 336.16 524.30 335.02 527.93 333.99 C 529.18 333.46 530.43 332.90 531.67 332.30 C 530.95 336.19 526.54 338.37 526.65 342.66 C 535.35 340.29 544.37 338.86 552.72 335.33 C 556.58 333.71 559.85 331.02 562.68 327.98 C 562.26 335.84 556.77 342.26 550.63 346.66 C 543.99 351.48 536.51 355.04 528.82 357.84 C 520.46 361.05 511.73 363.28 502.94 364.96 C 501.01 365.38 499.05 365.71 497.14 366.18 C 495.08 366.41 493.01 366.61 490.97 366.87 C 487.73 367.75 484.33 367.28 481.10 368.10 C 473.37 368.59 465.61 368.72 457.89 368.12 C 455.29 367.55 452.61 367.60 450.05 366.94 C 448.05 366.63 446.03 366.45 444.08 365.92 C 440.91 365.49 437.79 364.82 434.66 364.21 C 433.12 363.51 430.79 363.78 430.03 361.97 C 430.10 358.91 430.73 355.89 430.90 352.83 C 428.37 351.69 425.77 350.73 423.16 349.82 C 420.76 349.25 418.39 348.61 416.04 347.91 C 406.23 345.47 395.57 343.93 387.51 337.32 C 383.71 333.34 383.00 327.61 384.33 322.44 Z" />
<path fill="#ed1c24" opacity="1.00" d=" M 759.03 331.40 C 766.36 331.48 773.70 331.33 781.03 331.46 C 786.30 331.52 791.75 334.15 794.23 338.95 C 796.98 345.01 795.34 352.92 790.03 357.06 C 787.06 359.86 782.96 360.65 779.07 361.18 C 776.20 361.25 773.34 361.26 770.48 361.25 C 770.51 366.02 770.49 370.79 770.52 375.56 C 766.68 375.57 762.84 375.57 759.00 375.56 C 759.02 360.84 758.96 346.12 759.03 331.40 M 770.48 352.66 C 773.43 352.67 776.40 352.59 779.37 352.51 C 781.55 350.98 783.82 348.94 783.53 345.98 C 783.94 342.65 781.00 340.50 778.21 339.58 C 775.63 339.63 773.05 339.62 770.48 339.60 C 770.51 343.95 770.51 348.31 770.48 352.66 Z" />
<path fill="#ed1c24" opacity="1.00" d=" M 803.71 331.47 C 814.32 331.37 824.92 331.41 835.53 331.45 C 835.50 334.18 835.50 336.91 835.54 339.65 C 828.81 339.72 822.09 339.71 815.37 339.65 C 815.17 342.53 815.16 345.42 815.48 348.30 C 821.64 348.17 827.81 348.28 833.98 348.22 C 834.00 351.02 834.00 353.81 833.97 356.61 C 827.68 356.62 821.40 356.50 815.13 356.69 C 815.38 362.97 815.19 369.27 815.26 375.56 C 811.42 375.57 807.58 375.57 803.74 375.56 C 803.74 360.86 803.79 346.16 803.71 331.47 Z" />
<path fill="#ed1c24" opacity="1.00" d=" M 843.46 331.44 C 854.06 331.39 864.66 331.42 875.27 331.43 C 875.24 334.17 875.24 336.92 875.27 339.67 C 868.53 339.70 861.79 339.70 855.05 339.68 C 854.95 342.55 854.97 345.43 855.23 348.30 C 861.40 348.18 867.59 348.25 873.77 348.25 C 873.75 351.02 873.75 353.80 873.78 356.57 C 867.55 356.59 861.32 356.65 855.09 356.53 C 854.90 362.87 855.04 369.22 855.00 375.56 C 851.15 375.57 847.31 375.57 843.47 375.55 C 843.50 360.85 843.53 346.15 843.46 331.44 Z" />
<path fill="#ed1c24" opacity="1.00" d=" M 883.21 331.43 C 893.79 331.38 904.37 331.46 914.96 331.39 C 914.99 334.15 915.00 336.92 915.01 339.69 C 908.36 339.65 901.72 339.78 895.08 339.60 C 894.66 342.50 894.37 345.51 895.33 348.34 C 901.39 348.13 907.45 348.27 913.51 348.25 C 913.50 351.02 913.50 353.80 913.52 356.58 C 907.25 356.62 900.99 356.56 894.73 356.62 C 894.79 362.93 894.72 369.24 894.78 375.55 C 890.92 375.57 887.07 375.57 883.22 375.55 C 883.26 360.85 883.27 346.14 883.21 331.43 Z" />
<path fill="#ed1c24" opacity="1.00" d=" M 923.03 331.39 C 933.62 331.45 944.20 331.39 954.78 331.43 C 954.75 334.17 954.75 336.92 954.78 339.67 C 948.03 339.71 941.29 339.68 934.54 339.69 C 934.51 342.38 934.48 345.08 934.40 347.78 C 940.60 348.84 946.98 347.94 953.25 348.24 C 953.24 351.00 953.25 353.75 953.30 356.51 C 947.02 356.68 940.75 356.56 934.47 356.59 C 934.53 362.91 934.47 369.23 934.53 375.56 C 930.68 375.57 926.84 375.57 923.00 375.56 C 923.02 360.84 922.95 346.12 923.03 331.39 Z" />
<path fill="#ed1c24" opacity="1.00" d=" M 958.02 331.40 C 970.98 331.40 983.95 331.49 996.91 331.36 C 997.00 334.13 997.01 336.91 997.01 339.69 C 992.44 339.69 987.87 339.70 983.31 339.68 C 983.18 351.64 983.27 363.60 983.26 375.56 C 979.41 375.57 975.57 375.57 971.74 375.56 C 971.69 363.59 971.89 351.61 971.64 339.65 C 967.09 339.72 962.55 339.68 958.01 339.70 C 957.99 336.93 957.99 334.17 958.02 331.40 Z" />
<path fill="#ed1c24" opacity="1.00" d=" M 999.73 331.43 C 1012.75 331.41 1025.77 331.40 1038.79 331.43 C 1038.75 334.18 1038.75 336.92 1038.78 339.67 C 1034.20 339.70 1029.63 339.70 1025.06 339.67 C 1024.92 351.64 1025.04 363.60 1025.00 375.56 C 1021.15 375.57 1017.31 375.57 1013.47 375.56 C 1013.49 363.60 1013.55 351.64 1013.45 339.68 C 1008.87 339.69 1004.30 339.70 999.73 339.67 C 999.74 336.92 999.74 334.17 999.73 331.43 Z" />
<path fill="#ffffff" opacity="1.00" d=" M 770.48 352.66 C 770.51 348.31 770.51 343.95 770.48 339.60 C 773.05 339.62 775.63 339.63 778.21 339.58 C 781.00 340.50 783.94 342.65 783.53 345.98 C 783.82 348.94 781.55 350.98 779.37 352.51 C 776.40 352.59 773.43 352.67 770.48 352.66 Z" />
<path fill="#ed1c24" opacity="1.00" d=" M 763.03 409.01 C 768.93 403.61 777.45 402.74 785.07 403.74 C 788.28 404.56 791.42 405.63 794.52 406.82 C 794.88 410.56 794.79 414.33 794.70 418.08 C 790.10 416.01 786.39 412.00 781.02 411.74 C 776.91 412.15 772.70 413.67 770.50 417.41 C 767.36 423.10 767.34 430.65 770.74 436.24 C 772.49 439.26 775.97 440.33 779.09 441.32 C 785.17 441.95 789.85 437.86 794.65 434.92 C 794.82 438.65 794.84 442.39 794.57 446.11 C 792.72 446.74 790.90 447.45 789.12 448.23 C 782.81 450.09 775.90 450.20 769.61 448.26 C 763.91 446.07 759.25 441.38 757.50 435.48 C 754.83 426.57 756.09 415.71 763.03 409.01 Z" />
<path fill="#ed1c24" opacity="1.00" d=" M 854.21 404.44 C 858.07 404.42 861.92 404.42 865.79 404.44 C 865.71 409.79 865.81 415.14 865.68 420.49 C 871.21 420.66 876.75 420.61 882.29 420.52 C 882.20 415.16 882.28 409.80 882.21 404.44 C 886.07 404.41 889.92 404.41 893.79 404.44 C 893.73 419.15 893.73 433.85 893.79 448.56 C 889.92 448.58 886.07 448.58 882.21 448.56 C 882.30 442.18 882.17 435.80 882.30 429.42 C 876.77 429.28 871.23 429.29 865.70 429.42 C 865.82 435.80 865.70 442.18 865.79 448.56 C 861.93 448.59 858.07 448.58 854.21 448.56 C 854.27 433.85 854.27 419.15 854.21 404.44 Z" />
<path fill="#ed1c24" opacity="1.00" d=" M 901.06 404.39 C 914.02 404.45 926.98 404.44 939.95 404.39 C 940.04 407.36 940.02 410.34 939.80 413.32 C 937.87 413.24 935.95 413.12 934.06 412.87 C 931.53 412.77 929.01 412.74 926.50 412.69 C 925.95 424.62 926.36 436.57 926.29 448.51 C 922.42 448.62 918.55 448.63 914.69 448.49 C 914.86 436.76 914.62 425.02 914.82 413.29 C 910.26 412.42 905.61 412.85 901.01 412.78 C 900.98 409.98 900.99 407.18 901.06 404.39 Z" />
<path fill="#ed1c24" opacity="1.00" d=" M 803.00 404.43 C 806.84 404.42 810.68 404.42 814.52 404.44 C 814.48 409.81 814.53 415.20 814.47 420.58 C 819.96 420.60 825.45 420.54 830.94 420.63 C 831.06 415.23 830.97 409.83 831.00 404.43 C 834.84 404.42 838.68 404.42 842.52 404.44 C 842.50 419.14 842.47 433.84 842.54 448.55 C 838.70 448.59 834.86 448.57 831.03 448.60 C 830.96 442.18 831.01 435.76 831.00 429.35 C 825.49 429.34 819.98 429.34 814.48 429.35 C 814.53 435.75 814.47 442.16 814.53 448.56 C 810.70 448.58 806.86 448.57 803.04 448.60 C 802.95 433.88 803.02 419.15 803.00 404.43 Z" />
<path fill="#ed1c24" opacity="1.00" d=" M 947.00 404.43 C 953.98 404.45 960.97 404.37 967.96 404.45 C 973.16 404.66 978.94 406.47 981.73 411.22 C 985.32 417.49 983.46 426.36 977.54 430.57 C 972.19 434.91 964.90 434.36 958.45 434.38 C 958.53 439.11 958.48 443.84 958.53 448.57 C 954.70 448.58 950.88 448.56 947.06 448.62 C 946.92 433.89 947.04 419.16 947.00 404.43 M 958.52 412.61 C 958.48 416.97 958.53 421.33 958.44 425.69 C 961.47 425.73 964.55 425.94 967.55 425.31 C 972.09 423.73 973.07 416.59 968.99 413.97 C 965.81 412.14 962.02 412.66 958.52 412.61 Z" />
<path fill="#ed1c24" opacity="1.00" d=" M 991.74 404.43 C 1002.33 404.42 1012.93 404.41 1023.52 404.44 C 1023.50 407.21 1023.49 409.98 1023.51 412.76 C 1016.81 412.77 1010.10 412.79 1003.40 412.74 C 1003.20 415.62 1003.19 418.51 1003.38 421.39 C 1009.57 421.26 1015.77 421.38 1021.96 421.30 C 1022.00 424.07 1022.00 426.85 1021.95 429.63 C 1015.72 429.56 1009.50 429.61 1003.28 429.59 C 1003.22 435.92 1003.25 442.24 1003.27 448.56 C 999.40 448.59 995.54 448.63 991.68 448.48 C 991.83 433.80 991.72 419.11 991.74 404.43 Z" />
<path fill="#ffffff" opacity="1.00" d=" M 958.52 412.61 C 962.02 412.66 965.81 412.14 968.99 413.97 C 973.07 416.59 972.09 423.73 967.55 425.31 C 964.55 425.94 961.47 425.73 958.44 425.69 C 958.53 421.33 958.48 416.97 958.52 412.61 Z" />
<path fill="#ffffff" opacity="1.00" d=" M 465.95 473.84 C 482.72 469.15 500.28 468.44 517.17 464.30 C 511.49 476.30 503.86 488.35 491.76 494.69 C 486.32 497.78 480.16 499.05 474.07 500.16 C 469.63 500.47 465.18 500.31 460.74 500.34 C 458.06 493.29 452.43 487.51 445.31 484.92 C 450.86 479.21 458.42 476.01 465.95 473.84 Z" />
<path fill="#e3c0c2" opacity="1.00" d=" M 803.41 477.81 C 803.79 477.62 804.56 477.25 804.95 477.07 C 815.07 476.88 825.21 477.06 835.35 476.99 L 835.30 477.99 C 824.67 477.88 814.03 478.24 803.41 477.81 Z" />
<path fill="#e3c1c3" opacity="1.00" d=" M 842.67 477.37 C 853.70 476.49 864.80 477.29 875.86 476.95 C 872.99 478.94 869.26 477.83 866.00 478.03 C 858.24 477.59 850.34 478.78 842.67 477.37 Z" />
<path fill="#ed1c24" opacity="1.00" d=" M 887.41 482.37 C 891.05 478.82 896.14 477.43 901.05 476.80 C 902.71 476.75 904.38 476.71 906.07 476.68 L 906.87 477.19 C 910.92 477.28 914.98 478.36 918.50 480.35 C 919.66 483.88 918.72 487.95 918.94 491.68 C 915.91 490.40 913.68 487.81 910.64 486.57 C 905.09 483.88 897.24 485.59 894.41 491.40 C 891.80 496.67 891.76 503.28 894.35 508.57 C 897.08 514.08 904.36 515.70 909.81 513.73 C 913.28 512.63 915.75 509.80 918.96 508.21 C 919.02 511.86 918.97 515.50 919.03 519.15 C 910.43 523.73 899.57 524.84 890.80 520.14 C 884.85 517.02 881.35 510.50 880.70 503.96 C 879.75 496.30 881.54 487.76 887.41 482.37 Z" />
<path fill="#ed1c24" opacity="1.00" d=" M 759.13 477.68 C 767.33 478.03 775.61 477.06 783.74 478.36 C 789.27 479.04 794.56 483.35 795.31 489.05 C 796.13 494.00 794.68 499.52 790.88 502.94 C 788.69 505.03 785.81 506.10 783.08 507.28 C 778.90 507.56 774.70 507.55 770.52 507.52 C 770.47 512.43 770.55 517.35 770.44 522.26 C 766.65 522.24 762.87 522.24 759.09 522.27 C 758.97 507.41 758.88 492.54 759.13 477.68 M 770.48 486.30 C 770.51 490.63 770.51 494.97 770.48 499.31 C 774.33 499.11 779.10 500.23 782.02 496.98 C 784.28 494.36 783.69 490.55 782.04 487.79 C 778.50 485.75 774.36 486.32 770.48 486.30 Z" />
<path fill="#ed1c24" opacity="1.00" d=" M 927.44 522.34 C 927.10 507.46 927.16 492.55 927.40 477.67 C 931.14 477.73 934.89 477.73 938.64 477.69 C 938.92 482.98 938.59 488.28 938.80 493.57 C 938.99 493.73 939.36 494.06 939.55 494.22 C 944.77 494.36 950.00 494.19 955.23 494.25 C 955.30 488.73 955.13 483.20 955.36 477.69 C 959.09 477.73 962.83 477.74 966.58 477.67 C 966.98 492.50 966.65 507.35 966.75 522.19 C 962.93 522.28 959.11 522.25 955.30 522.25 C 955.18 515.68 955.28 509.10 955.24 502.53 C 949.74 502.52 944.25 502.52 938.76 502.52 C 938.65 509.12 938.95 515.73 938.58 522.32 C 934.86 522.21 931.15 522.21 927.44 522.34 Z" />
<path fill="#ed1c24" opacity="1.00" d=" M 978.56 477.71 C 982.32 477.72 986.09 477.73 989.87 477.68 C 990.14 483.21 989.89 488.74 990.07 494.27 C 995.52 494.25 1000.97 494.23 1006.42 494.28 C 1006.59 488.75 1006.41 483.23 1006.56 477.71 C 1010.32 477.72 1014.09 477.73 1017.86 477.68 C 1018.12 492.54 1018.03 507.41 1017.91 522.27 C 1014.13 522.24 1010.36 522.23 1006.59 522.28 C 1006.38 515.70 1006.56 509.11 1006.48 502.53 C 1001.01 502.50 995.53 502.55 990.07 502.49 C 989.89 509.08 990.12 515.68 989.91 522.27 C 986.11 522.24 982.32 522.24 978.54 522.26 C 978.48 507.41 978.44 492.56 978.56 477.71 Z" />
<path fill="#ed1c24" opacity="1.00" d=" M 803.75 478.16 C 814.33 478.15 824.92 478.15 835.51 478.17 C 835.49 480.91 835.50 483.65 835.53 486.39 C 828.76 486.42 821.99 486.40 815.22 486.40 C 815.25 489.08 815.24 491.75 815.16 494.43 C 821.43 494.59 827.70 494.47 833.98 494.51 C 834.00 497.43 834.00 500.36 833.92 503.29 C 827.68 503.25 821.45 503.27 815.22 503.27 C 815.26 509.59 815.26 515.92 815.23 522.25 C 811.40 522.25 807.58 522.25 803.77 522.25 C 803.72 507.55 803.76 492.86 803.75 478.16 Z" />
<path fill="#ed1c24" opacity="1.00" d=" M 843.49 478.17 C 852.02 478.25 860.56 477.97 869.08 478.29 C 871.22 478.77 873.98 478.17 875.54 480.08 C 875.27 482.17 875.23 484.29 875.21 486.40 C 868.49 486.39 861.77 486.45 855.06 486.36 C 854.99 489.07 854.98 491.79 854.99 494.51 C 861.23 494.51 867.47 494.52 873.71 494.50 C 873.79 497.44 873.79 500.40 873.57 503.35 C 867.39 503.18 861.20 503.31 855.02 503.25 C 854.94 509.59 855.09 515.93 854.91 522.27 C 851.11 522.24 847.32 522.24 843.54 522.26 C 843.44 507.56 843.53 492.86 843.49 478.17 Z" />
<path fill="#ffffff" opacity="1.00" d=" M 150.06 484.56 C 158.04 484.36 166.06 484.02 174.02 484.86 C 181.61 485.80 189.10 487.45 196.37 489.84 C 196.32 494.71 192.07 497.32 188.52 499.71 C 185.04 502.07 184.85 506.69 186.01 510.36 C 176.95 510.07 167.42 508.46 159.86 503.10 C 153.90 498.89 150.61 491.71 150.06 484.56 Z" />
<path fill="#ffffff" opacity="1.00" d=" M 770.48 486.30 C 774.36 486.32 778.50 485.75 782.04 487.79 C 783.69 490.55 784.28 494.36 782.02 496.98 C 779.10 500.23 774.33 499.11 770.48 499.31 C 770.51 494.97 770.51 490.63 770.48 486.30 Z" />
<path fill="#ffffff" opacity="1.00" d=" M 231.34 499.89 C 234.12 496.33 238.55 494.59 242.97 494.38 C 249.35 494.06 255.76 494.29 262.12 494.85 C 268.95 495.79 275.91 495.65 282.78 495.18 C 282.51 503.79 283.18 512.45 282.42 521.03 C 275.20 524.58 266.91 527.03 258.91 524.71 C 246.42 521.20 238.10 510.27 231.34 499.89 Z" />
<path fill="#ffffff" opacity="1.00" d=" M 297.77 494.73 C 318.23 494.73 338.68 494.74 359.14 494.72 C 354.62 505.59 345.48 514.17 334.85 519.01 C 323.25 524.27 310.33 525.81 297.70 525.62 C 297.83 515.32 297.69 505.02 297.77 494.73 Z" />
<path fill="#ffffff" opacity="1.00" d=" M 17.69 509.85 C 21.36 512.35 24.21 515.90 26.14 519.88 C 31.99 531.35 34.78 544.04 37.68 556.50 C 42.79 578.55 45.99 601.15 53.70 622.52 C 42.05 612.52 36.45 597.55 32.55 583.12 C 26.34 558.96 24.28 533.93 17.69 509.85 Z" />
<path fill="#ed1c24" opacity="1.00" d=" M 741.82 555.85 C 746.29 551.42 752.81 549.74 758.97 550.16 C 764.14 549.86 769.15 551.40 773.73 553.67 C 773.74 557.39 773.80 561.10 773.69 564.82 C 770.28 563.18 767.60 560.26 763.93 559.16 C 758.44 557.08 751.38 559.50 748.94 565.00 C 746.57 570.23 746.55 576.65 749.15 581.81 C 752.03 587.29 759.27 588.91 764.78 586.78 C 768.13 585.80 770.37 582.79 773.69 581.75 C 773.64 585.29 774.10 588.91 773.52 592.42 C 765.03 596.90 754.29 597.86 745.62 593.33 C 739.55 590.28 736.13 583.62 735.44 577.06 C 734.56 569.58 736.19 561.22 741.82 555.85 Z" />
<path fill="#ed1c24" opacity="1.00" d=" M 782.23 551.20 C 786.07 551.18 789.92 551.18 793.77 551.21 C 793.74 556.54 793.77 561.87 793.73 567.21 C 799.24 567.21 804.75 567.21 810.27 567.21 C 810.23 561.87 810.26 556.54 810.23 551.21 C 814.07 551.18 817.92 551.18 821.77 551.21 C 821.77 565.88 821.70 580.55 821.80 595.23 C 817.93 595.25 814.06 595.25 810.20 595.23 C 810.28 588.70 810.24 582.18 810.23 575.67 C 804.74 575.66 799.25 575.66 793.77 575.67 C 793.75 582.18 793.71 588.70 793.80 595.22 C 789.93 595.25 786.06 595.25 782.20 595.22 C 782.30 580.55 782.23 565.88 782.23 551.20 Z" />
<path fill="#ed1c24" opacity="1.00" d=" M 833.48 551.21 C 837.31 551.18 841.15 551.19 844.99 551.18 C 845.01 556.52 844.99 561.87 845.00 567.21 C 850.51 567.21 856.02 567.21 861.54 567.21 C 861.46 561.88 861.51 556.54 861.48 551.21 C 865.31 551.18 869.15 551.19 872.99 551.19 C 873.00 565.87 873.02 580.56 872.98 595.25 C 869.15 595.24 865.33 595.24 861.51 595.26 C 861.46 588.73 861.55 582.19 861.46 575.66 C 856.00 575.65 850.55 575.68 845.10 575.63 C 844.89 582.17 845.06 588.71 844.98 595.25 C 841.17 595.23 837.37 595.22 833.57 595.31 C 833.39 580.61 833.57 565.91 833.48 551.21 Z" />
<path fill="#ed1c24" opacity="1.00" d=" M 884.47 551.22 C 888.30 551.18 892.14 551.19 895.98 551.18 C 896.01 556.52 895.99 561.87 896.00 567.21 C 901.51 567.21 907.02 567.21 912.54 567.21 C 912.46 561.88 912.51 556.54 912.48 551.21 C 916.31 551.18 920.15 551.19 923.99 551.18 C 924.00 565.87 924.01 580.56 923.98 595.25 C 920.17 595.23 916.36 595.22 912.56 595.29 C 912.40 588.75 912.57 582.20 912.46 575.66 C 907.00 575.65 901.55 575.68 896.10 575.63 C 895.89 582.17 896.06 588.71 895.98 595.25 C 892.16 595.24 888.35 595.23 884.54 595.28 C 884.42 580.59 884.56 565.90 884.47 551.22 Z" />
<path fill="#ed1c24" opacity="1.00" d=" M 935.75 551.19 C 939.57 551.19 943.39 551.20 947.22 551.17 C 947.26 556.52 947.29 561.87 947.19 567.22 C 952.73 567.21 958.27 567.21 963.81 567.21 C 963.69 561.87 963.76 556.53 963.75 551.19 C 967.58 551.19 971.41 551.19 975.25 551.19 C 975.26 565.87 975.23 580.55 975.26 595.24 C 971.42 595.25 967.57 595.25 963.73 595.24 C 963.73 588.70 963.82 582.17 963.67 575.64 C 958.22 575.67 952.77 575.67 947.33 575.64 C 947.17 582.17 947.27 588.70 947.26 595.24 C 943.42 595.25 939.57 595.25 935.74 595.24 C 935.76 580.56 935.74 565.87 935.75 551.19 Z" />
<path fill="#ed1c24" opacity="1.00" d=" M 765.65 626.73 C 774.37 621.33 785.76 622.41 794.70 626.75 C 794.75 630.48 794.80 634.21 794.70 637.95 C 791.45 636.49 788.95 633.76 785.59 632.56 C 780.02 630.12 772.60 632.41 769.98 638.06 C 767.58 643.31 767.54 649.74 770.13 654.94 C 772.84 660.26 779.84 661.96 785.22 660.16 C 788.79 659.13 791.33 656.22 794.68 654.72 C 794.80 658.37 794.78 662.02 794.68 665.67 C 786.03 669.85 775.33 671.07 766.59 666.48 C 760.20 663.19 756.74 656.04 756.33 649.08 C 755.55 640.79 758.29 631.38 765.65 626.73 Z" />
<path fill="#ed1c24" opacity="1.00" d=" M 911.39 627.26 C 920.14 621.30 932.08 622.20 941.23 626.82 C 941.23 630.48 941.27 634.15 941.24 637.82 C 937.68 636.57 935.19 633.33 931.48 632.35 C 925.90 630.19 918.79 632.72 916.36 638.32 C 914.07 643.61 914.03 650.11 916.80 655.24 C 919.56 660.24 926.11 661.85 931.33 660.27 C 935.09 659.24 937.95 656.47 941.15 654.39 C 941.28 658.06 941.23 661.74 941.32 665.41 C 932.86 669.95 922.09 671.02 913.38 666.61 C 907.07 663.57 903.52 656.67 902.91 649.92 C 901.93 641.66 904.33 632.28 911.39 627.26 Z" />
<path fill="#ed1c24" opacity="1.00" d=" M 803.01 624.14 C 806.84 624.14 810.67 624.14 814.50 624.15 C 814.50 629.55 814.50 634.96 814.49 640.38 C 819.99 640.37 825.49 640.37 831.00 640.37 C 831.00 634.96 830.99 629.55 831.01 624.14 C 834.83 624.14 838.66 624.14 842.50 624.14 C 842.51 638.88 842.48 653.61 842.52 668.35 C 838.68 668.36 834.84 668.36 831.00 668.36 C 830.95 661.84 831.10 655.33 830.90 648.82 C 825.45 648.85 820.00 648.83 814.55 648.84 C 814.44 655.34 814.54 661.86 814.49 668.37 C 810.65 668.35 806.83 668.35 803.00 668.36 C 803.00 653.62 802.99 638.88 803.01 624.14 Z" />
<path fill="#ed1c24" opacity="1.00" d=" M 854.24 624.15 C 858.07 624.14 861.91 624.14 865.76 624.15 C 865.74 629.56 865.76 634.96 865.74 640.37 C 871.24 640.37 876.75 640.37 882.26 640.37 C 882.24 634.96 882.25 629.56 882.24 624.15 C 886.08 624.13 889.92 624.13 893.76 624.16 C 893.76 638.88 893.72 653.61 893.79 668.34 C 889.92 668.37 886.06 668.37 882.20 668.32 C 882.28 661.83 882.25 655.33 882.22 648.84 C 876.75 648.83 871.28 648.84 865.81 648.83 C 865.70 655.33 865.74 661.83 865.79 668.34 C 861.92 668.37 858.06 668.37 854.21 668.33 C 854.29 653.60 854.23 638.88 854.24 624.15 Z" />
<path fill="#ed1c24" opacity="1.00" d=" M 949.75 624.15 C 953.58 624.14 957.41 624.14 961.25 624.14 C 961.24 629.55 961.27 634.96 961.22 640.38 C 966.74 640.37 972.26 640.37 977.78 640.37 C 977.72 634.96 977.75 629.55 977.75 624.15 C 981.58 624.14 985.41 624.14 989.25 624.15 C 989.26 638.88 989.24 653.62 989.26 668.35 C 985.41 668.36 981.57 668.36 977.74 668.35 C 977.74 661.87 977.77 655.38 977.72 648.90 C 972.25 648.76 966.79 648.86 961.33 648.83 C 961.17 655.33 961.27 661.84 961.26 668.35 C 957.41 668.36 953.57 668.36 949.74 668.35 C 949.76 653.61 949.74 638.88 949.75 624.15 Z" />
</svg>
