<?xml version="1.0" encoding="UTF-8" ?>
<!DOCTYPE svg PUBLIC "-//W3C//DTD SVG 1.1//EN" "http://www.w3.org/Graphics/SVG/1.1/DTD/svg11.dtd">
<svg width="850pt" height="829pt" viewBox="0 0 850 829" version="1.1" xmlns="http://www.w3.org/2000/svg">
<path fill="#ffffff" opacity="1.00" d=" M 0.00 0.00 L 850.00 0.00 L 850.00 829.00 L 0.00 829.00 L 0.00 0.00 M 231.52 12.90 C 233.98 19.68 242.48 18.59 247.24 22.78 C 230.44 34.36 212.81 44.65 195.41 55.28 C 165.02 73.71 134.40 92.93 110.07 119.21 C 108.06 122.18 107.59 127.62 111.55 129.23 C 117.56 131.08 123.88 128.96 130.03 129.55 C 126.66 142.32 119.04 153.43 110.71 163.49 C 90.44 187.59 65.25 207.96 49.95 235.95 C 42.31 249.68 37.96 265.24 37.75 280.97 C 37.11 310.25 46.42 338.37 51.58 366.90 C 54.11 380.78 55.61 395.07 53.67 409.13 C 52.23 419.67 47.80 429.51 42.78 438.79 C 35.91 451.22 27.49 462.68 19.18 474.17 C 13.57 482.09 7.49 489.84 3.57 498.79 C 2.41 501.10 2.45 503.72 2.44 506.25 C 7.62 506.25 12.80 506.26 17.98 506.24 C 14.78 516.97 15.98 528.58 11.91 539.09 C 9.96 544.31 6.47 548.80 2.49 552.63 C 2.55 569.09 2.40 585.54 2.56 602.00 C 5.16 620.25 10.47 638.31 19.53 654.44 C 27.70 669.03 39.16 681.75 52.85 691.36 C 69.48 703.21 88.81 710.71 108.50 715.75 C 128.83 720.83 149.67 723.65 170.56 725.10 C 171.70 735.06 173.15 744.98 174.79 754.88 C 176.24 764.51 177.83 774.32 176.44 784.05 C 175.25 793.97 170.86 803.11 165.83 811.61 C 175.10 808.14 183.68 802.62 190.13 795.06 C 201.12 782.46 206.87 766.33 211.17 750.42 C 219.03 762.05 230.71 770.44 242.96 776.96 C 259.81 785.77 277.97 791.72 296.16 797.09 C 332.39 807.55 369.22 815.83 405.22 827.07 C 432.79 827.51 460.42 827.10 488.02 827.27 C 491.19 827.50 494.17 826.29 497.14 825.36 C 517.85 818.85 539.14 813.89 559.09 805.15 C 571.63 799.58 583.86 792.34 592.78 781.71 C 594.04 787.25 595.65 793.04 599.79 797.19 C 605.98 803.69 615.19 805.62 623.71 806.99 C 617.92 801.70 615.70 793.59 616.32 785.95 C 617.53 770.07 626.03 754.82 639.05 745.59 C 640.77 746.16 642.73 746.47 644.05 747.86 C 647.86 751.46 648.08 757.53 652.29 760.80 C 655.78 763.27 660.31 762.12 664.15 761.24 C 663.83 769.39 659.60 776.54 655.21 783.13 C 651.41 788.77 648.93 795.31 648.71 802.16 C 659.77 786.69 673.56 773.25 689.16 762.38 C 713.99 745.02 742.50 733.72 771.46 725.33 C 768.44 722.09 765.09 719.12 761.19 717.00 C 751.77 711.74 740.74 711.46 730.34 709.88 C 723.18 699.76 720.78 687.09 721.10 674.89 C 721.66 659.01 725.49 643.41 730.70 628.45 C 733.62 628.40 736.89 628.78 738.94 631.13 C 741.19 633.73 742.94 636.75 745.43 639.17 C 757.88 623.90 766.03 605.58 771.98 586.92 C 778.44 566.22 782.07 544.72 783.95 523.15 C 787.71 478.56 784.47 433.55 776.41 389.58 C 784.31 388.03 791.88 384.34 797.35 378.34 C 809.80 365.33 813.86 346.90 824.84 332.87 C 830.32 325.44 838.48 320.16 847.50 318.18 C 847.49 316.52 847.48 314.87 847.49 313.22 C 843.26 313.35 838.53 314.42 834.71 312.09 C 831.75 309.61 833.32 305.38 834.21 302.27 C 836.88 294.59 839.79 286.44 837.72 278.23 C 834.79 287.14 825.39 291.01 820.12 298.16 C 818.49 299.88 820.37 301.58 821.29 303.04 C 817.21 300.42 812.67 298.67 808.38 296.44 C 776.85 281.18 745.53 264.76 718.02 242.86 C 692.72 222.90 670.98 197.67 658.21 167.86 C 648.81 146.28 644.27 122.77 643.71 99.28 C 636.59 98.25 628.62 98.16 622.57 102.63 C 615.17 108.04 612.23 117.09 608.28 124.95 C 600.45 120.52 592.92 115.60 585.56 110.42 C 555.45 89.18 527.30 64.92 494.87 47.14 C 475.18 36.35 453.57 28.05 430.95 26.90 C 409.20 25.65 387.49 32.16 369.01 43.44 C 361.44 35.17 351.97 28.84 341.86 24.11 C 326.81 17.19 310.49 13.38 294.09 11.45 C 273.30 9.05 252.19 9.68 231.52 12.90 Z" />
<path fill="#000000" opacity="1.00" d=" M 231.52 12.90 C 252.19 9.68 273.30 9.05 294.09 11.45 C 310.49 13.38 326.81 17.19 341.86 24.11 C 351.97 28.84 361.44 35.17 369.01 43.44 C 387.49 32.16 409.20 25.65 430.95 26.90 C 453.57 28.05 475.18 36.35 494.87 47.14 C 527.30 64.92 555.45 89.18 585.56 110.42 C 592.92 115.60 600.45 120.52 608.28 124.95 C 612.23 117.09 615.17 108.04 622.57 102.63 C 628.62 98.16 636.59 98.25 643.71 99.28 C 644.27 122.77 648.81 146.28 658.21 167.86 C 670.98 197.67 692.72 222.90 718.02 242.86 C 745.53 264.76 776.85 281.18 808.38 296.44 C 812.67 298.67 817.21 300.42 821.29 303.04 C 820.37 301.58 818.49 299.88 820.12 298.16 C 825.39 291.01 834.79 287.14 837.72 278.23 C 839.79 286.44 836.88 294.59 834.21 302.27 C 833.32 305.38 831.75 309.61 834.71 312.09 C 838.53 314.42 843.26 313.35 847.49 313.22 C 847.48 314.87 847.49 316.52 847.50 318.18 C 838.48 320.16 830.32 325.44 824.84 332.87 C 813.86 346.90 809.80 365.33 797.35 378.34 C 791.88 384.34 784.31 388.03 776.41 389.58 C 784.47 433.55 787.71 478.56 783.95 523.15 C 782.07 544.72 778.44 566.22 771.98 586.92 C 766.03 605.58 757.88 623.90 745.43 639.17 C 742.94 636.75 741.19 633.73 738.94 631.13 C 736.89 628.78 733.62 628.40 730.70 628.45 C 725.49 643.41 721.66 659.01 721.10 674.89 C 720.78 687.09 723.18 699.76 730.34 709.88 C 740.74 711.46 751.77 711.74 761.19 717.00 C 765.09 719.12 768.44 722.09 771.46 725.33 C 742.50 733.72 713.99 745.02 689.16 762.38 C 673.56 773.25 659.77 786.69 648.71 802.16 C 648.93 795.31 651.41 788.77 655.21 783.13 C 659.60 776.54 663.83 769.39 664.15 761.24 C 660.31 762.12 655.78 763.27 652.29 760.80 C 648.08 757.53 647.86 751.46 644.05 747.86 C 642.73 746.47 640.77 746.16 639.05 745.59 C 626.03 754.82 617.53 770.07 616.32 785.95 C 615.70 793.59 617.92 801.70 623.71 806.99 C 615.19 805.62 605.98 803.69 599.79 797.19 C 595.65 793.04 594.04 787.25 592.78 781.71 C 583.86 792.34 571.63 799.58 559.09 805.15 C 539.14 813.89 517.85 818.85 497.14 825.36 C 494.17 826.29 491.19 827.50 488.02 827.27 C 460.42 827.10 432.79 827.51 405.22 827.07 C 369.22 815.83 332.39 807.55 296.16 797.09 C 277.97 791.72 259.81 785.77 242.96 776.96 C 230.71 770.44 219.03 762.05 211.17 750.42 C 206.87 766.33 201.12 782.46 190.13 795.06 C 183.68 802.62 175.10 808.14 165.83 811.61 C 170.86 803.11 175.25 793.97 176.44 784.05 C 177.83 774.32 176.24 764.51 174.79 754.88 C 173.15 744.98 171.70 735.06 170.56 725.10 C 149.67 723.65 128.83 720.83 108.50 715.75 C 88.81 710.71 69.48 703.21 52.85 691.36 C 39.16 681.75 27.70 669.03 19.53 654.44 C 10.47 638.31 5.16 620.25 2.56 602.00 C 2.40 585.54 2.55 569.09 2.49 552.63 C 6.47 548.80 9.96 544.31 11.91 539.09 C 15.98 528.58 14.78 516.97 17.98 506.24 C 12.80 506.26 7.62 506.25 2.44 506.25 C 2.45 503.72 2.41 501.10 3.57 498.79 C 7.49 489.84 13.57 482.09 19.18 474.17 C 27.49 462.68 35.91 451.22 42.78 438.79 C 47.80 429.51 52.23 419.67 53.67 409.13 C 55.61 395.07 54.11 380.78 51.58 366.90 C 46.42 338.37 37.11 310.25 37.75 280.97 C 37.96 265.24 42.31 249.68 49.95 235.95 C 65.25 207.96 90.44 187.59 110.71 163.49 C 119.04 153.43 126.66 142.32 130.03 129.55 C 123.88 128.96 117.56 131.08 111.55 129.23 C 107.59 127.62 108.06 122.18 110.07 119.21 C 134.40 92.93 165.02 73.71 195.41 55.28 C 212.81 44.65 230.44 34.36 247.24 22.78 C 242.48 18.59 233.98 19.68 231.52 12.90 M 260.13 34.39 C 238.46 42.04 218.96 54.74 201.24 69.20 C 179.75 86.63 160.57 106.67 139.65 124.76 C 143.07 125.27 147.34 125.32 149.51 128.50 C 150.76 130.83 150.66 133.95 149.15 136.15 C 145.20 142.09 140.59 147.56 135.86 152.89 C 115.22 175.60 92.46 196.59 74.92 221.94 C 64.27 237.21 55.51 254.06 51.18 272.25 C 47.66 286.56 47.47 301.46 48.52 316.09 C 49.79 334.06 54.49 351.51 58.98 368.88 C 63.14 385.46 66.30 402.96 62.53 419.92 C 58.71 435.04 48.53 447.38 42.69 461.65 C 39.70 469.03 36.79 476.83 37.52 484.94 C 38.25 495.08 41.20 505.45 38.36 515.52 C 33.77 530.75 21.21 541.73 15.28 556.31 C 12.21 563.81 11.99 572.08 12.36 580.07 C 12.96 591.86 16.10 603.42 20.88 614.18 C 26.97 628.32 35.82 640.99 43.19 654.45 C 43.45 651.49 43.36 647.98 45.80 645.83 C 49.20 642.81 54.13 643.46 58.30 643.86 C 56.12 653.30 57.11 663.58 62.03 672.03 C 69.84 685.86 83.84 694.86 98.07 701.05 C 119.24 709.88 142.86 713.84 165.64 710.19 C 163.06 708.20 160.50 706.08 158.77 703.28 C 152.07 692.82 150.35 680.19 144.84 669.20 C 143.17 666.18 140.78 662.66 137.00 662.46 C 132.00 662.15 128.14 665.88 124.73 669.00 C 121.12 654.27 116.91 639.70 112.98 625.06 C 100.67 580.03 89.41 534.48 84.79 487.93 C 81.41 453.45 81.66 418.28 89.22 384.34 C 91.19 375.16 97.43 367.87 101.75 359.77 C 105.31 353.48 106.51 345.93 104.70 338.90 C 107.46 339.17 110.54 339.75 113.02 338.10 C 116.03 336.03 117.20 332.27 119.98 329.96 C 121.38 328.88 123.21 328.69 124.85 328.15 C 126.29 316.44 128.99 304.90 132.87 293.76 C 142.45 265.99 159.07 241.22 178.09 219.06 C 197.10 196.85 218.61 176.99 239.97 157.10 C 241.07 156.09 242.26 155.17 243.58 154.47 C 277.25 137.09 310.58 118.21 347.12 107.42 C 374.79 99.09 404.16 96.05 432.87 99.73 C 449.79 101.94 466.00 108.00 481.00 116.00 C 500.60 126.31 518.39 139.67 537.81 150.29 C 551.79 157.97 566.96 163.94 582.93 165.60 C 588.40 158.55 593.67 150.35 593.47 141.07 C 593.11 132.20 586.94 125.00 580.39 119.64 C 568.99 110.37 555.96 103.42 543.86 95.15 C 526.32 83.21 508.73 71.29 490.27 60.82 C 472.06 50.57 453.01 41.22 432.52 36.64 C 420.15 33.99 406.84 33.24 394.85 37.90 C 391.27 39.24 389.18 43.45 390.29 47.12 C 392.02 54.75 398.91 59.75 401.40 66.98 C 401.03 67.35 400.31 68.09 399.94 68.46 C 392.82 67.72 385.92 65.44 379.28 62.82 C 362.24 55.93 348.17 43.53 335.79 30.22 C 334.76 29.27 333.89 27.87 332.37 27.73 C 308.23 24.13 283.15 26.13 260.13 34.39 M 330.39 126.49 C 299.26 136.19 269.20 151.81 246.55 175.65 C 278.44 190.22 311.76 201.47 345.57 210.66 C 401.64 225.84 459.07 235.50 516.76 241.94 C 516.37 244.15 515.46 246.58 512.98 247.06 C 505.11 248.71 497.17 244.64 489.30 246.43 C 486.70 246.97 486.01 249.73 485.78 252.01 C 507.24 264.05 529.03 276.03 552.69 283.19 C 570.61 288.71 589.80 291.08 608.38 287.75 C 606.97 277.32 604.00 267.08 599.33 257.64 C 591.75 241.71 579.80 228.44 567.45 216.06 C 564.25 228.60 559.88 241.07 552.32 251.70 C 534.96 222.54 508.83 199.85 491.48 170.69 C 510.65 173.84 528.63 181.56 547.49 186.00 C 537.92 168.26 523.68 153.17 506.81 142.19 C 482.52 126.29 453.75 118.36 425.02 115.94 C 393.19 113.43 360.90 117.07 330.39 126.49 M 168.93 259.02 C 147.90 292.44 130.36 327.92 114.34 363.97 C 123.44 371.05 131.34 379.79 141.56 385.33 C 145.99 387.67 151.48 389.50 156.30 387.22 C 161.29 384.95 163.62 379.57 165.40 374.73 C 168.51 406.16 175.91 437.56 190.57 465.72 C 208.42 472.87 228.15 471.03 246.96 471.00 C 247.66 463.98 246.64 456.95 244.86 450.17 C 243.41 445.13 245.07 439.98 246.94 435.30 C 255.27 431.32 263.89 427.73 273.01 426.03 C 281.17 424.40 289.56 424.44 297.83 425.09 C 304.99 408.30 317.54 394.38 324.23 377.34 C 326.96 370.39 329.06 362.27 325.81 355.12 C 322.39 348.23 314.73 344.99 307.64 343.31 C 307.12 345.35 306.15 347.58 307.41 349.57 C 309.79 354.34 315.89 355.04 319.12 358.94 C 318.49 361.67 315.29 362.42 313.25 363.80 C 309.21 351.50 302.05 340.20 292.20 331.74 C 264.81 308.08 221.03 306.40 191.86 327.80 C 178.36 337.66 168.91 352.62 165.29 368.89 C 154.26 368.22 144.39 359.81 140.82 349.54 C 138.68 343.82 140.83 337.51 145.06 333.38 C 154.39 337.68 152.53 350.16 159.42 356.56 C 161.13 358.09 163.43 358.57 165.58 359.14 C 167.49 351.54 165.35 343.87 162.38 336.88 C 160.21 332.41 161.40 326.09 165.70 323.62 C 173.49 325.88 181.92 325.68 189.49 322.67 C 206.28 316.13 219.81 302.54 237.81 298.85 C 254.61 295.82 272.16 300.51 286.35 309.66 C 304.63 321.35 318.41 338.42 333.27 353.92 C 333.48 375.67 325.77 396.85 314.31 415.09 C 301.70 435.02 284.65 452.27 264.40 464.43 C 250.40 472.70 234.39 478.76 217.90 477.99 C 204.12 477.52 190.87 470.43 182.71 459.33 C 170.91 443.65 167.13 423.65 165.50 404.51 C 156.59 403.17 147.86 400.43 139.90 396.19 C 127.58 389.73 117.73 379.59 109.29 368.71 C 96.68 417.20 93.18 468.00 98.73 517.79 C 103.51 559.66 114.69 601.11 134.23 638.58 C 151.80 672.16 176.88 702.84 210.00 722.01 C 212.35 723.61 215.52 724.33 217.07 726.90 C 230.41 749.44 251.54 766.25 274.17 778.84 C 309.50 798.19 349.12 808.60 388.90 813.61 C 429.82 818.52 471.57 817.66 512.03 809.57 C 543.12 803.16 573.89 792.41 599.88 773.82 C 610.72 765.87 620.98 756.74 628.63 745.62 C 631.38 725.84 637.53 706.58 646.71 688.84 C 656.39 669.75 668.70 652.19 679.65 633.83 C 674.60 623.96 671.88 613.08 670.46 602.13 C 665.33 560.14 672.60 517.87 669.42 475.79 C 662.25 470.03 657.58 461.78 654.61 453.20 C 647.42 432.12 646.96 409.59 642.56 387.90 C 639.72 373.51 635.20 358.21 623.59 348.37 C 618.54 351.89 614.05 356.18 610.41 361.15 C 602.40 371.71 598.54 384.81 590.16 395.12 C 584.47 402.30 576.18 407.04 567.47 409.59 C 551.20 414.40 533.85 414.44 517.17 411.93 C 495.32 408.41 474.17 400.46 455.43 388.68 C 440.61 379.26 426.95 367.28 417.99 352.00 C 410.15 338.96 407.48 322.91 410.90 308.06 C 413.68 295.77 421.10 285.29 428.61 275.44 C 436.79 264.80 445.01 254.03 450.61 241.76 C 415.08 242.58 379.44 237.78 345.42 227.48 C 305.97 215.78 268.80 197.87 231.64 180.48 C 207.36 203.71 186.88 230.68 168.93 259.02 M 653.84 195.62 C 653.53 200.83 654.21 206.12 653.21 211.28 C 652.76 214.08 650.20 216.83 647.16 215.91 C 626.90 212.83 606.93 207.80 587.67 200.83 C 596.07 221.38 601.83 243.23 613.81 262.16 C 620.84 273.42 630.66 283.90 643.78 287.73 C 644.02 290.50 643.90 293.63 641.73 295.67 C 639.09 298.16 635.87 299.96 633.37 302.60 C 641.08 314.39 644.59 328.28 647.21 341.96 C 651.57 365.50 653.12 389.49 658.37 412.88 C 662.18 429.61 667.89 446.54 679.21 459.78 C 688.26 470.67 701.19 477.71 714.79 481.18 C 710.47 484.05 705.27 486.41 700.00 485.05 C 693.13 483.39 686.46 480.68 679.28 480.70 C 678.87 496.45 678.81 512.21 679.47 527.95 C 680.48 556.34 683.35 584.64 683.76 613.05 C 683.85 635.16 682.03 657.80 673.48 678.43 C 667.00 694.47 656.34 708.55 643.64 720.19 C 647.16 729.42 652.50 738.57 661.20 743.76 C 669.51 748.81 679.90 748.94 689.07 746.41 C 702.75 742.62 714.80 734.56 725.48 725.42 C 718.47 718.30 712.79 709.68 710.29 699.91 C 705.60 682.56 708.98 664.37 713.23 647.30 C 718.66 625.73 726.71 604.84 730.51 582.87 C 733.96 582.03 738.16 581.20 741.03 583.93 C 744.22 587.24 744.13 592.17 744.80 596.44 C 745.29 601.00 746.07 606.50 750.78 608.64 C 767.94 575.19 773.80 537.18 775.19 499.97 C 776.10 455.42 770.70 409.57 751.16 369.04 C 756.01 370.71 760.00 373.98 764.33 376.63 C 767.88 378.85 772.12 379.41 776.25 379.35 C 794.05 362.08 806.25 340.09 817.10 318.04 C 787.06 308.12 760.85 289.41 737.75 268.19 C 710.40 243.33 685.38 215.39 653.84 195.62 M 455.51 251.73 C 447.46 262.59 438.36 272.64 430.84 283.88 C 421.94 297.00 415.91 312.27 414.77 328.15 C 421.83 336.30 428.00 345.18 433.95 354.17 C 442.16 366.34 451.89 378.39 465.64 384.50 C 465.74 379.83 466.71 374.73 470.46 371.56 C 476.24 366.65 484.11 365.72 491.26 364.13 C 497.46 369.40 504.41 374.31 508.24 381.73 C 512.13 388.72 512.46 397.03 511.43 404.79 C 518.82 406.53 526.36 407.62 533.95 407.91 C 550.29 408.52 567.67 404.35 579.80 392.83 C 590.14 383.46 595.95 369.85 597.22 356.09 C 599.02 337.34 593.30 318.38 582.99 302.77 C 560.68 299.14 539.15 291.75 518.69 282.25 C 497.42 272.52 476.99 261.03 455.51 251.73 M 592.71 307.58 C 594.35 308.35 596.52 308.78 597.16 310.76 C 599.17 314.90 597.56 321.52 602.81 323.51 C 604.43 317.15 613.93 316.95 617.56 321.53 C 619.09 323.42 617.82 325.86 616.47 327.43 C 613.74 331.11 609.34 333.54 607.54 337.88 C 606.66 341.36 610.80 342.72 613.23 343.88 C 613.00 336.04 624.18 335.62 624.27 328.04 C 624.54 321.52 620.64 316.00 617.08 310.92 C 614.31 307.06 613.19 302.31 613.42 297.61 C 605.59 298.02 596.93 300.35 592.71 307.58 M 470.54 394.46 C 473.37 394.13 476.26 393.70 479.11 394.18 C 484.19 395.11 487.96 399.30 493.08 400.14 C 495.88 400.49 498.71 400.18 501.50 399.80 C 502.53 392.89 500.56 384.36 493.57 381.32 C 483.91 376.95 472.14 384.25 470.54 394.46 M 259.52 442.60 C 255.11 445.66 252.69 450.70 251.62 455.83 C 255.17 457.98 259.48 458.50 263.44 457.21 C 273.29 454.16 281.29 445.39 282.81 435.09 C 274.72 436.18 266.33 437.85 259.52 442.60 M 185.67 730.10 C 192.08 741.03 187.76 754.38 191.91 765.94 C 192.65 768.18 194.30 769.91 195.96 771.53 C 196.76 764.03 198.90 756.77 199.84 749.30 C 200.15 744.65 200.61 739.39 197.55 735.48 C 194.72 731.82 189.97 730.83 185.67 730.10 Z" />
<path fill="#bf7b00" opacity="1.00" d=" M 260.13 34.39 C 283.15 26.13 308.23 24.13 332.37 27.73 C 333.89 27.87 334.76 29.27 335.79 30.22 C 348.17 43.53 362.24 55.93 379.28 62.82 C 385.92 65.44 392.82 67.72 399.94 68.46 C 400.31 68.09 401.03 67.35 401.40 66.98 C 398.91 59.75 392.02 54.75 390.29 47.12 C 389.18 43.45 391.27 39.24 394.85 37.90 C 406.84 33.24 420.15 33.99 432.52 36.64 C 453.01 41.22 472.06 50.57 490.27 60.82 C 508.73 71.29 526.32 83.21 543.86 95.15 C 555.96 103.42 568.99 110.37 580.39 119.64 C 586.94 125.00 593.11 132.20 593.47 141.07 C 593.67 150.35 588.40 158.55 582.93 165.60 C 566.96 163.94 551.79 157.97 537.81 150.29 C 518.39 139.67 500.60 126.31 481.00 116.00 C 466.00 108.00 449.79 101.94 432.87 99.73 C 404.16 96.05 374.79 99.09 347.12 107.42 C 310.58 118.21 277.25 137.09 243.58 154.47 C 242.26 155.17 241.07 156.09 239.97 157.10 C 218.61 176.99 197.10 196.85 178.09 219.06 C 159.07 241.22 142.45 265.99 132.87 293.76 C 128.99 304.90 126.29 316.44 124.85 328.15 C 123.21 328.69 121.38 328.88 119.98 329.96 C 117.20 332.27 116.03 336.03 113.02 338.10 C 110.54 339.75 107.46 339.17 104.70 338.90 C 106.51 345.93 105.31 353.48 101.75 359.77 C 97.43 367.87 91.19 375.16 89.22 384.34 C 81.66 418.28 81.41 453.45 84.79 487.93 C 89.41 534.48 100.67 580.03 112.98 625.06 C 116.91 639.70 121.12 654.27 124.73 669.00 C 128.14 665.88 132.00 662.15 137.00 662.46 C 140.78 662.66 143.17 666.18 144.84 669.20 C 150.35 680.19 152.07 692.82 158.77 703.28 C 160.50 706.08 163.06 708.20 165.64 710.19 C 142.86 713.84 119.24 709.88 98.07 701.05 C 83.84 694.86 69.84 685.86 62.03 672.03 C 57.11 663.58 56.12 653.30 58.30 643.86 C 54.13 643.46 49.20 642.81 45.80 645.83 C 43.36 647.98 43.45 651.49 43.19 654.45 C 35.82 640.99 26.97 628.32 20.88 614.18 C 16.10 603.42 12.96 591.86 12.36 580.07 C 11.99 572.08 12.21 563.81 15.28 556.31 C 21.21 541.73 33.77 530.75 38.36 515.52 C 41.20 505.45 38.25 495.08 37.52 484.94 C 36.79 476.83 39.70 469.03 42.69 461.65 C 48.53 447.38 58.71 435.04 62.53 419.92 C 66.30 402.96 63.14 385.46 58.98 368.88 C 54.49 351.51 49.79 334.06 48.52 316.09 C 47.47 301.46 47.66 286.56 51.18 272.25 C 55.51 254.06 64.27 237.21 74.92 221.94 C 92.46 196.59 115.22 175.60 135.86 152.89 C 140.59 147.56 145.20 142.09 149.15 136.15 C 150.66 133.95 150.76 130.83 149.51 128.50 C 147.34 125.32 143.07 125.27 139.65 124.76 C 160.57 106.67 179.75 86.63 201.24 69.20 C 218.96 54.74 238.46 42.04 260.13 34.39 Z" />
<path fill="#bf7b00" opacity="1.00" d=" M 330.39 126.49 C 360.90 117.07 393.19 113.43 425.02 115.94 C 453.75 118.36 482.52 126.29 506.81 142.19 C 523.68 153.17 537.92 168.26 547.49 186.00 C 528.63 181.56 510.65 173.84 491.48 170.69 C 508.83 199.85 534.96 222.54 552.32 251.70 C 559.88 241.07 564.25 228.60 567.45 216.06 C 579.80 228.44 591.75 241.71 599.33 257.64 C 604.00 267.08 606.97 277.32 608.38 287.75 C 589.80 291.08 570.61 288.71 552.69 283.19 C 529.03 276.03 507.24 264.05 485.78 252.01 C 486.01 249.73 486.70 246.97 489.30 246.43 C 497.17 244.64 505.11 248.71 512.98 247.06 C 515.46 246.58 516.37 244.15 516.76 241.94 C 459.07 235.50 401.64 225.84 345.57 210.66 C 311.76 201.47 278.44 190.22 246.55 175.65 C 269.20 151.81 299.26 136.19 330.39 126.49 Z" />
<path fill="#ffffff" opacity="1.00" d=" M 168.93 259.02 C 186.88 230.68 207.36 203.71 231.64 180.48 C 268.80 197.87 305.97 215.78 345.42 227.48 C 379.44 237.78 415.08 242.58 450.61 241.76 C 445.01 254.03 436.79 264.80 428.61 275.44 C 421.10 285.29 413.68 295.77 410.90 308.06 C 407.48 322.91 410.15 338.96 417.99 352.00 C 426.95 367.28 440.61 379.26 455.43 388.68 C 474.17 400.46 495.32 408.41 517.17 411.93 C 533.85 414.44 551.20 414.40 567.47 409.59 C 576.18 407.04 584.47 402.30 590.16 395.12 C 598.54 384.81 602.40 371.71 610.41 361.15 C 614.05 356.18 618.54 351.89 623.59 348.37 C 635.20 358.21 639.72 373.51 642.56 387.90 C 646.96 409.59 647.42 432.12 654.61 453.20 C 657.58 461.78 662.25 470.03 669.42 475.79 C 672.60 517.87 665.33 560.14 670.46 602.13 C 671.88 613.08 674.60 623.96 679.65 633.83 C 668.70 652.19 656.39 669.75 646.71 688.84 C 637.53 706.58 631.38 725.84 628.63 745.62 C 620.98 756.74 610.72 765.87 599.88 773.82 C 573.89 792.41 543.12 803.16 512.03 809.57 C 471.57 817.66 429.82 818.52 388.90 813.61 C 349.12 808.60 309.50 798.19 274.17 778.84 C 251.54 766.25 230.41 749.44 217.07 726.90 C 215.52 724.33 212.35 723.61 210.00 722.01 C 176.88 702.84 151.80 672.16 134.23 638.58 C 114.69 601.11 103.51 559.66 98.73 517.79 C 93.18 468.00 96.68 417.20 109.29 368.71 C 117.73 379.59 127.58 389.73 139.90 396.19 C 147.86 400.43 156.59 403.17 165.50 404.51 C 167.13 423.65 170.91 443.65 182.71 459.33 C 190.87 470.43 204.12 477.52 217.90 477.99 C 234.39 478.76 250.40 472.70 264.40 464.43 C 284.65 452.27 301.70 435.02 314.31 415.09 C 325.77 396.85 333.48 375.67 333.27 353.92 C 318.41 338.42 304.63 321.35 286.35 309.66 C 272.16 300.51 254.61 295.82 237.81 298.85 C 219.81 302.54 206.28 316.13 189.49 322.67 C 181.92 325.68 173.49 325.88 165.70 323.62 C 161.40 326.09 160.21 332.41 162.38 336.88 C 165.35 343.87 167.49 351.54 165.58 359.14 C 163.43 358.57 161.13 358.09 159.42 356.56 C 152.53 350.16 154.39 337.68 145.06 333.38 C 140.83 337.51 138.68 343.82 140.82 349.54 C 144.39 359.81 154.26 368.22 165.29 368.89 C 168.91 352.62 178.36 337.66 191.86 327.80 C 221.03 306.40 264.81 308.08 292.20 331.74 C 302.05 340.20 309.21 351.50 313.25 363.80 C 315.29 362.42 318.49 361.67 319.12 358.94 C 315.89 355.04 309.79 354.34 307.41 349.57 C 306.15 347.58 307.12 345.35 307.64 343.31 C 314.73 344.99 322.39 348.23 325.81 355.12 C 329.06 362.27 326.96 370.39 324.23 377.34 C 317.54 394.38 304.99 408.30 297.83 425.09 C 289.56 424.44 281.17 424.40 273.01 426.03 C 263.89 427.73 255.27 431.32 246.94 435.30 C 245.07 439.98 243.41 445.13 244.86 450.17 C 246.64 456.95 247.66 463.98 246.96 471.00 C 228.15 471.03 208.42 472.87 190.57 465.72 C 175.91 437.56 168.51 406.16 165.40 374.73 C 163.62 379.57 161.29 384.95 156.30 387.22 C 151.48 389.50 145.99 387.67 141.56 385.33 C 131.34 379.79 123.44 371.05 114.34 363.97 C 130.36 327.92 147.90 292.44 168.93 259.02 M 491.17 589.17 C 464.72 610.54 434.34 627.86 401.03 635.68 C 362.11 645.15 320.88 640.96 283.11 628.56 C 277.11 624.36 272.51 618.26 269.00 611.87 C 260.53 596.26 259.95 577.80 251.89 562.03 C 247.93 578.60 247.88 597.46 257.63 612.12 C 267.16 626.77 283.62 634.97 299.83 640.03 C 323.51 647.20 348.41 649.07 373.03 649.75 C 389.34 650.34 405.66 649.66 421.97 649.25 C 423.10 649.13 424.43 649.33 425.41 648.63 C 451.08 623.04 486.39 610.38 513.05 586.01 C 522.80 577.05 530.98 565.32 532.12 551.78 C 519.05 564.86 505.59 577.59 491.17 589.17 Z" />
<path fill="#bf7b00" opacity="1.00" d=" M 653.84 195.62 C 685.38 215.39 710.40 243.33 737.75 268.19 C 760.85 289.41 787.06 308.12 817.10 318.04 C 806.25 340.09 794.05 362.08 776.25 379.35 C 772.12 379.41 767.88 378.85 764.33 376.63 C 760.00 373.98 756.01 370.71 751.16 369.04 C 770.70 409.57 776.10 455.42 775.19 499.97 C 773.80 537.18 767.94 575.19 750.78 608.64 C 746.07 606.50 745.29 601.00 744.80 596.44 C 744.13 592.17 744.22 587.24 741.03 583.93 C 738.16 581.20 733.96 582.03 730.51 582.87 C 726.71 604.84 718.66 625.73 713.23 647.30 C 708.98 664.37 705.60 682.56 710.29 699.91 C 712.79 709.68 718.47 718.30 725.48 725.42 C 714.80 734.56 702.75 742.62 689.07 746.41 C 679.90 748.94 669.51 748.81 661.20 743.76 C 652.50 738.57 647.16 729.42 643.64 720.19 C 656.34 708.55 667.00 694.47 673.48 678.43 C 682.03 657.80 683.85 635.16 683.76 613.05 C 683.35 584.64 680.48 556.34 679.47 527.95 C 678.81 512.21 678.87 496.45 679.28 480.70 C 686.46 480.68 693.13 483.39 700.00 485.05 C 705.27 486.41 710.47 484.05 714.79 481.18 C 701.19 477.71 688.26 470.67 679.21 459.78 C 667.89 446.54 662.18 429.61 658.37 412.88 C 653.12 389.49 651.57 365.50 647.21 341.96 C 644.59 328.28 641.08 314.39 633.37 302.60 C 635.87 299.96 639.09 298.16 641.73 295.67 C 643.90 293.63 644.02 290.50 643.78 287.73 C 630.66 283.90 620.84 273.42 613.81 262.16 C 601.83 243.23 596.07 221.38 587.67 200.83 C 606.93 207.80 626.90 212.83 647.16 215.91 C 650.20 216.83 652.76 214.08 653.21 211.28 C 654.21 206.12 653.53 200.83 653.84 195.62 Z" />
<path fill="#ffffff" opacity="1.00" d=" M 455.51 251.73 C 476.99 261.03 497.42 272.52 518.69 282.25 C 539.15 291.75 560.68 299.14 582.99 302.77 C 593.30 318.38 599.02 337.34 597.22 356.09 C 595.95 369.85 590.14 383.46 579.80 392.83 C 567.67 404.35 550.29 408.52 533.95 407.91 C 526.36 407.62 518.82 406.53 511.43 404.79 C 512.46 397.03 512.13 388.72 508.24 381.73 C 504.41 374.31 497.46 369.40 491.26 364.13 C 484.11 365.72 476.24 366.65 470.46 371.56 C 466.71 374.73 465.74 379.83 465.64 384.50 C 451.89 378.39 442.16 366.34 433.95 354.17 C 428.00 345.18 421.83 336.30 414.77 328.15 C 415.91 312.27 421.94 297.00 430.84 283.88 C 438.36 272.64 447.46 262.59 455.51 251.73 Z" />
<path fill="#ffffff" opacity="1.00" d=" M 592.71 307.58 C 596.93 300.35 605.59 298.02 613.42 297.61 C 613.19 302.31 614.31 307.06 617.08 310.92 C 620.64 316.00 624.54 321.52 624.27 328.04 C 624.18 335.62 613.00 336.04 613.23 343.88 C 610.80 342.72 606.66 341.36 607.54 337.88 C 609.34 333.54 613.74 331.11 616.47 327.43 C 617.82 325.86 619.09 323.42 617.56 321.53 C 613.93 316.95 604.43 317.15 602.81 323.51 C 597.56 321.52 599.17 314.90 597.16 310.76 C 596.52 308.78 594.35 308.35 592.71 307.58 Z" />
<path fill="#ffffff" opacity="1.00" d=" M 470.54 394.46 C 472.14 384.25 483.91 376.95 493.57 381.32 C 500.56 384.36 502.53 392.89 501.50 399.80 C 498.71 400.18 495.88 400.49 493.08 400.14 C 487.96 399.30 484.19 395.11 479.11 394.18 C 476.26 393.70 473.37 394.13 470.54 394.46 Z" />
<path fill="#ffffff" opacity="1.00" d=" M 259.52 442.60 C 266.33 437.85 274.72 436.18 282.81 435.09 C 281.29 445.39 273.29 454.16 263.44 457.21 C 259.48 458.50 255.17 457.98 251.62 455.83 C 252.69 450.70 255.11 445.66 259.52 442.60 Z" />
<path fill="#000000" opacity="1.00" d=" M 491.17 589.17 C 505.59 577.59 519.05 564.86 532.12 551.78 C 530.98 565.32 522.80 577.05 513.05 586.01 C 486.39 610.38 451.08 623.04 425.41 648.63 C 424.43 649.33 423.10 649.13 421.97 649.25 C 405.66 649.66 389.34 650.34 373.03 649.75 C 348.41 649.07 323.51 647.20 299.83 640.03 C 283.62 634.97 267.16 626.77 257.63 612.12 C 247.88 597.46 247.93 578.60 251.89 562.03 C 259.95 577.80 260.53 596.26 269.00 611.87 C 272.51 618.26 277.11 624.36 283.11 628.56 C 320.88 640.96 362.11 645.15 401.03 635.68 C 434.34 627.86 464.72 610.54 491.17 589.17 Z" />
<path fill="#ffffff" opacity="1.00" d=" M 185.67 730.10 C 189.97 730.83 194.72 731.82 197.55 735.48 C 200.61 739.39 200.15 744.65 199.84 749.30 C 198.90 756.77 196.76 764.03 195.96 771.53 C 194.30 769.91 192.65 768.18 191.91 765.94 C 187.76 754.38 192.08 741.03 185.67 730.10 Z" />
</svg>
