<?xml version="1.0" encoding="UTF-8" ?>
<!DOCTYPE svg PUBLIC "-//W3C//DTD SVG 1.1//EN" "http://www.w3.org/Graphics/SVG/1.1/DTD/svg11.dtd">
<svg width="537pt" height="566pt" viewBox="0 0 537 566" version="1.1" xmlns="http://www.w3.org/2000/svg">
<g id="#fefefeff">
<path fill="#fefefe" opacity="1.00" d=" M 0.00 0.00 L 537.00 0.00 L 537.00 566.00 L 0.00 566.00 L 0.00 0.00 M 203.66 61.74 C 200.51 64.15 198.14 67.44 194.97 69.82 C 181.63 73.43 167.40 72.16 154.18 76.16 C 132.17 89.80 112.34 107.97 99.86 130.91 C 87.14 147.97 84.57 169.64 77.31 189.10 C 76.78 190.67 76.87 192.36 76.80 194.00 C 75.87 240.04 76.67 286.09 76.42 332.13 C 79.46 358.14 89.84 382.58 101.40 405.84 C 104.79 412.65 105.48 420.32 107.38 427.58 C 119.64 447.17 140.73 458.31 157.01 474.04 C 160.57 477.12 162.82 481.42 166.54 484.35 C 174.02 490.66 183.67 493.29 192.88 495.90 C 204.14 499.06 216.54 502.52 224.02 512.21 C 225.53 520.27 225.00 528.54 225.18 536.71 C 229.84 536.87 234.50 537.03 239.15 537.38 C 239.16 528.83 239.22 520.27 239.33 511.72 C 252.22 515.01 264.39 521.97 278.01 521.77 C 295.78 521.40 313.56 521.91 331.33 521.48 C 345.43 520.53 356.28 510.57 368.37 504.46 C 373.58 501.93 377.35 497.34 380.82 492.84 C 381.59 492.03 382.14 490.66 383.46 490.73 C 387.48 490.27 391.51 489.96 395.54 489.67 C 403.42 478.98 410.98 467.72 421.52 459.41 C 425.58 456.09 430.66 454.10 434.13 450.06 C 441.17 442.33 443.93 431.99 449.03 423.08 C 453.80 414.76 456.47 405.41 457.96 395.99 C 460.19 381.07 460.42 365.95 461.24 350.92 C 462.26 338.94 465.00 327.00 463.81 314.92 C 461.68 297.57 458.32 280.38 456.90 262.95 C 456.54 256.99 456.58 250.99 455.47 245.10 C 451.51 224.38 438.12 206.36 437.00 184.96 C 436.71 171.96 427.79 161.39 418.64 153.07 C 419.24 146.96 418.28 140.75 415.85 135.12 C 411.48 124.75 403.80 116.36 397.63 107.08 C 385.00 104.08 377.26 92.90 369.50 83.46 C 363.30 75.25 352.16 73.95 344.76 67.26 C 338.50 61.58 332.36 55.74 325.64 50.61 C 324.99 50.68 323.70 50.84 323.05 50.92 C 283.95 60.74 243.06 54.22 203.66 61.74 Z" />
<path fill="#fefefe" opacity="1.00" d=" M 218.08 73.69 C 234.76 72.95 251.29 69.89 268.02 70.06 C 286.05 70.58 304.40 68.83 322.09 73.26 C 330.09 75.21 337.68 78.76 344.25 83.73 C 356.69 91.68 365.87 103.52 377.46 112.53 C 381.55 115.80 386.38 118.11 390.06 121.92 C 398.11 129.89 402.40 140.76 405.32 151.51 C 406.01 153.72 406.07 156.31 407.90 157.98 C 413.14 163.62 417.03 170.52 418.99 177.97 C 423.46 194.92 432.20 210.40 436.44 227.42 C 438.37 234.83 438.61 242.57 440.75 249.93 C 442.30 255.82 444.99 261.41 448.83 266.15 C 447.57 289.19 454.26 311.91 452.26 334.93 C 450.30 349.08 451.48 363.76 446.71 377.44 C 443.38 394.04 441.73 411.44 433.64 426.62 C 432.10 429.61 430.32 432.52 427.80 434.78 C 413.90 448.53 401.06 463.42 385.90 475.85 C 375.69 484.20 364.39 491.48 351.87 495.82 C 343.40 499.09 337.54 507.95 327.95 508.41 C 307.15 507.05 285.48 512.06 265.40 504.52 C 250.59 498.06 234.72 494.59 218.90 491.65 C 211.69 490.17 204.25 489.37 197.45 486.35 C 182.02 479.84 170.26 467.46 156.15 458.78 C 154.69 458.00 153.61 456.75 152.67 455.42 C 145.41 445.57 135.39 438.32 125.57 431.24 C 124.37 430.60 124.37 429.10 123.95 428.00 C 118.80 409.06 103.70 393.57 103.01 373.31 C 100.76 371.11 98.49 368.94 96.28 366.72 C 93.33 352.83 87.35 339.43 87.40 325.02 C 87.92 289.01 87.89 252.99 87.47 216.98 C 87.51 200.77 90.03 184.38 96.47 169.43 C 98.38 164.81 101.15 160.60 102.84 155.89 C 112.59 132.37 127.33 110.14 148.44 95.40 C 159.28 88.08 172.66 86.93 185.14 84.49 C 192.60 83.16 198.26 77.65 205.21 75.06 C 209.30 73.42 213.80 74.12 218.08 73.69 M 363.49 195.28 C 364.04 202.09 364.18 208.91 364.41 215.73 C 377.37 217.88 391.61 221.81 403.98 215.28 C 398.49 212.98 392.85 211.08 387.29 208.99 C 386.79 203.99 386.01 199.03 385.55 194.03 C 378.20 194.44 370.86 195.24 363.49 195.28 M 143.17 230.89 C 140.95 237.91 142.79 245.28 143.32 252.40 C 156.17 251.26 169.10 252.39 181.80 254.46 C 181.66 244.68 181.71 234.90 181.95 225.13 C 172.49 223.17 162.87 219.10 153.10 221.49 C 148.35 222.50 144.56 226.29 143.17 230.89 M 387.38 244.22 C 378.05 250.13 371.85 259.75 362.52 265.63 C 358.94 267.97 354.71 268.95 350.96 270.95 C 343.89 274.61 337.79 279.84 331.04 284.02 C 328.97 285.42 326.43 285.72 324.02 286.07 C 311.11 287.96 297.70 286.89 285.19 291.15 C 268.89 296.52 251.54 297.00 234.97 301.23 C 226.63 303.43 218.47 306.36 209.97 307.92 C 202.34 309.25 193.98 308.95 187.26 304.70 C 178.00 299.21 167.53 293.57 156.39 295.55 C 153.44 298.84 151.41 302.91 148.82 306.52 C 159.53 310.06 169.12 316.12 179.17 321.11 C 190.25 325.48 202.42 321.94 213.07 317.94 C 236.35 309.45 262.52 315.56 285.34 305.26 C 303.77 296.55 325.11 303.80 343.91 296.62 C 348.67 294.89 352.67 291.70 357.01 289.16 C 369.17 281.67 381.83 274.33 391.25 263.37 C 393.13 261.10 396.24 259.33 396.18 256.00 C 396.34 250.62 392.03 246.25 387.38 244.22 M 288.41 322.54 C 280.16 325.14 271.48 326.40 262.83 326.20 C 262.50 328.81 262.29 331.42 262.13 334.04 C 283.15 336.15 303.40 327.07 324.42 328.76 C 325.96 323.39 327.72 318.08 329.53 312.80 C 316.36 318.15 301.84 318.15 288.41 322.54 Z" />
</g>
<g id="#040404ff">
<path fill="#040404" opacity="1.00" d=" M 203.66 61.74 C 243.06 54.22 283.95 60.74 323.05 50.92 C 323.70 50.84 324.99 50.68 325.64 50.61 C 332.36 55.74 338.50 61.58 344.76 67.26 C 352.16 73.95 363.30 75.25 369.50 83.46 C 377.26 92.90 385.00 104.08 397.63 107.08 C 403.80 116.36 411.48 124.75 415.85 135.12 C 418.28 140.75 419.24 146.96 418.64 153.07 C 427.79 161.39 436.71 171.96 437.00 184.96 C 438.12 206.36 451.51 224.38 455.47 245.10 C 456.58 250.99 456.54 256.99 456.90 262.95 C 458.32 280.38 461.68 297.57 463.81 314.92 C 465.00 327.00 462.26 338.94 461.24 350.92 C 460.42 365.95 460.19 381.07 457.96 395.99 C 456.47 405.41 453.80 414.76 449.03 423.08 C 443.93 431.99 441.17 442.33 434.13 450.06 C 430.66 454.10 425.58 456.09 421.52 459.41 C 410.98 467.72 403.42 478.98 395.54 489.67 C 391.51 489.96 387.48 490.27 383.46 490.73 C 382.14 490.66 381.59 492.03 380.82 492.84 C 377.35 497.34 373.58 501.93 368.37 504.46 C 356.28 510.57 345.43 520.53 331.33 521.48 C 313.56 521.91 295.78 521.40 278.01 521.77 C 264.39 521.97 252.22 515.01 239.33 511.72 C 239.22 520.27 239.16 528.83 239.15 537.38 C 234.50 537.03 229.84 536.87 225.18 536.71 C 225.00 528.54 225.53 520.27 224.02 512.21 C 216.54 502.52 204.14 499.06 192.88 495.90 C 183.67 493.29 174.02 490.66 166.54 484.35 C 162.82 481.42 160.57 477.12 157.01 474.04 C 140.73 458.31 119.64 447.17 107.38 427.58 C 105.48 420.32 104.79 412.65 101.40 405.84 C 89.84 382.58 79.46 358.14 76.42 332.13 C 76.67 286.09 75.87 240.04 76.80 194.00 C 76.87 192.36 76.78 190.67 77.31 189.10 C 84.57 169.64 87.14 147.97 99.86 130.91 C 112.34 107.97 132.17 89.80 154.18 76.16 C 167.40 72.16 181.63 73.43 194.97 69.82 C 198.14 67.44 200.51 64.15 203.66 61.74 M 218.08 73.69 C 213.80 74.12 209.30 73.42 205.21 75.06 C 198.26 77.65 192.60 83.16 185.14 84.49 C 172.66 86.93 159.28 88.08 148.44 95.40 C 127.33 110.14 112.59 132.37 102.84 155.89 C 101.15 160.60 98.38 164.81 96.47 169.43 C 90.03 184.38 87.51 200.77 87.47 216.98 C 87.89 252.99 87.92 289.01 87.40 325.02 C 87.35 339.43 93.33 352.83 96.28 366.72 C 98.49 368.94 100.76 371.11 103.01 373.31 C 103.70 393.57 118.80 409.06 123.95 428.00 C 124.37 429.10 124.37 430.60 125.57 431.24 C 135.39 438.32 145.41 445.57 152.67 455.42 C 153.61 456.75 154.69 458.00 156.15 458.78 C 170.26 467.46 182.02 479.84 197.45 486.35 C 204.25 489.37 211.69 490.17 218.90 491.65 C 234.72 494.59 250.59 498.06 265.40 504.52 C 285.48 512.06 307.15 507.05 327.95 508.41 C 337.54 507.95 343.40 499.09 351.87 495.82 C 364.39 491.48 375.69 484.20 385.90 475.85 C 401.06 463.42 413.90 448.53 427.80 434.78 C 430.32 432.52 432.10 429.61 433.64 426.62 C 441.73 411.44 443.38 394.04 446.71 377.44 C 451.48 363.76 450.30 349.08 452.26 334.93 C 454.26 311.91 447.57 289.19 448.83 266.15 C 444.99 261.41 442.30 255.82 440.75 249.93 C 438.61 242.57 438.37 234.83 436.44 227.42 C 432.20 210.40 423.46 194.92 418.99 177.97 C 417.03 170.52 413.14 163.62 407.90 157.98 C 406.07 156.31 406.01 153.72 405.32 151.51 C 402.40 140.76 398.11 129.89 390.06 121.92 C 386.38 118.11 381.55 115.80 377.46 112.53 C 365.87 103.52 356.69 91.68 344.25 83.73 C 337.68 78.76 330.09 75.21 322.09 73.26 C 304.40 68.83 286.05 70.58 268.02 70.06 C 251.29 69.89 234.76 72.95 218.08 73.69 Z" />
<path fill="#040404" opacity="1.00" d=" M 363.49 195.28 C 370.86 195.24 378.20 194.44 385.55 194.03 C 386.01 199.03 386.79 203.99 387.29 208.99 C 392.85 211.08 398.49 212.98 403.98 215.28 C 391.61 221.81 377.37 217.88 364.41 215.73 C 364.18 208.91 364.04 202.09 363.49 195.28 Z" />
<path fill="#040404" opacity="1.00" d=" M 143.17 230.89 C 144.56 226.29 148.35 222.50 153.10 221.49 C 162.87 219.10 172.49 223.17 181.95 225.13 C 181.71 234.90 181.66 244.68 181.80 254.46 C 169.10 252.39 156.17 251.26 143.32 252.40 C 142.79 245.28 140.95 237.91 143.17 230.89 Z" />
<path fill="#040404" opacity="1.00" d=" M 387.38 244.22 C 392.03 246.25 396.34 250.62 396.18 256.00 C 396.24 259.33 393.13 261.10 391.25 263.37 C 381.83 274.33 369.17 281.67 357.01 289.16 C 352.67 291.70 348.67 294.89 343.91 296.62 C 325.11 303.80 303.77 296.55 285.34 305.26 C 262.52 315.56 236.35 309.45 213.07 317.94 C 202.42 321.94 190.25 325.48 179.17 321.11 C 169.12 316.12 159.53 310.06 148.82 306.52 C 151.41 302.91 153.44 298.84 156.39 295.55 C 167.53 293.57 178.00 299.21 187.26 304.70 C 193.98 308.95 202.34 309.25 209.97 307.92 C 218.47 306.36 226.63 303.43 234.97 301.23 C 251.54 297.00 268.89 296.52 285.19 291.15 C 297.70 286.89 311.11 287.96 324.02 286.07 C 326.43 285.72 328.97 285.42 331.04 284.02 C 337.79 279.84 343.89 274.61 350.96 270.95 C 354.71 268.95 358.94 267.97 362.52 265.63 C 371.85 259.75 378.05 250.13 387.38 244.22 Z" />
<path fill="#040404" opacity="1.00" d=" M 288.41 322.54 C 301.84 318.15 316.36 318.15 329.53 312.80 C 327.72 318.08 325.96 323.39 324.42 328.76 C 303.40 327.07 283.15 336.15 262.13 334.04 C 262.29 331.42 262.50 328.81 262.83 326.20 C 271.48 326.40 280.16 325.14 288.41 322.54 Z" />
</g>
</svg>
