<?xml version="1.0" encoding="UTF-8" ?>
<!DOCTYPE svg PUBLIC "-//W3C//DTD SVG 1.1//EN" "http://www.w3.org/Graphics/SVG/1.1/DTD/svg11.dtd">
<svg width="977pt" height="1058pt" viewBox="0 0 977 1058" version="1.1" xmlns="http://www.w3.org/2000/svg">
<path fill="#ffffff" opacity="1.00" d=" M 0.00 0.00 L 977.00 0.00 L 977.00 1058.00 L 0.00 1058.00 L 0.00 0.00 M 518.43 11.58 C 489.23 15.51 460.41 21.76 431.79 28.68 C 390.87 38.67 350.21 50.06 310.69 64.72 C 300.34 68.71 290.00 72.83 280.29 78.24 C 271.88 82.81 265.50 90.13 258.48 96.48 C 247.28 107.29 236.62 118.63 226.24 130.23 C 175.20 187.70 131.43 251.29 78.88 307.47 C 77.00 305.52 75.20 303.46 73.99 301.02 C 68.93 292.03 73.45 280.99 68.60 271.87 C 62.73 299.50 56.92 327.14 51.66 354.90 C 44.25 393.18 38.19 431.70 32.89 470.33 C 25.94 466.88 22.82 459.09 21.32 451.92 C 18.11 435.71 20.13 419.01 17.42 402.75 C 16.57 398.08 15.45 393.33 12.84 389.30 C 11.65 391.98 11.11 394.87 10.52 397.73 C 7.25 413.93 6.70 430.52 6.49 446.99 C 6.61 473.34 8.21 499.65 8.51 525.99 C 8.45 546.11 7.88 566.49 2.85 586.08 C 2.32 588.34 2.52 590.69 2.48 593.00 C 2.58 604.99 2.37 616.99 2.58 628.98 C 5.50 647.58 8.42 666.18 11.20 684.80 C 17.50 725.65 23.88 766.74 36.61 806.19 C 44.00 828.52 53.60 850.39 67.58 869.43 C 72.33 876.23 78.22 882.10 83.64 888.32 C 84.17 894.23 83.91 900.18 84.47 906.10 C 86.07 930.02 91.27 953.68 99.79 976.09 C 110.27 1004.09 125.52 1029.92 139.88 1056.04 C 146.74 1055.94 153.59 1056.06 160.44 1055.97 C 144.08 1030.29 122.71 1007.62 110.77 979.27 C 101.10 957.22 97.83 932.75 99.29 908.82 C 101.24 910.83 103.14 912.89 105.06 914.95 C 148.49 961.49 203.42 996.38 262.17 1020.29 C 257.91 1010.19 250.14 1001.94 241.25 995.72 C 214.96 977.52 181.36 973.64 155.77 954.24 C 149.06 945.79 143.40 936.51 137.55 927.45 C 103.02 871.94 78.24 810.72 61.22 747.70 C 40.26 669.13 31.68 587.01 38.34 505.89 C 39.88 487.09 46.90 469.37 54.13 452.14 C 61.95 433.24 70.57 413.82 70.44 392.97 C 70.57 373.49 66.75 353.26 73.53 334.44 C 78.81 321.15 87.87 309.82 96.76 298.78 C 110.80 281.90 126.39 266.35 142.95 251.94 C 154.86 241.66 167.34 231.98 180.76 223.75 C 190.25 218.06 200.33 212.95 211.35 211.09 C 204.51 203.51 192.84 203.57 185.92 196.07 C 223.40 154.89 261.33 113.49 306.26 80.23 C 308.41 78.13 311.38 80.17 313.91 80.27 C 328.80 83.11 344.72 80.66 357.66 72.62 C 370.91 65.10 381.37 52.96 396.00 47.89 C 446.12 29.69 499.63 19.73 553.04 22.08 C 595.84 24.07 638.94 34.15 676.19 55.84 C 707.84 74.15 734.77 101.49 750.23 134.82 C 721.40 140.63 691.82 137.20 663.01 133.16 C 634.65 129.20 606.25 124.30 577.52 124.53 C 577.06 133.91 578.97 143.73 584.56 151.44 C 591.28 160.66 602.17 165.58 612.96 168.25 C 632.67 173.14 653.11 173.25 673.19 175.53 C 670.07 177.06 666.79 178.22 663.60 179.56 C 644.35 187.58 626.05 197.88 609.31 210.32 C 582.77 230.20 559.89 255.98 546.97 286.78 C 539.01 305.84 535.20 326.83 537.39 347.45 C 539.41 368.07 547.37 387.87 559.18 404.82 C 569.06 419.02 581.37 431.43 594.96 442.09 C 608.86 452.73 624.97 460.16 641.57 465.48 C 659.80 471.33 678.76 474.66 697.78 476.54 C 722.23 478.86 746.91 478.83 771.34 476.33 C 783.23 478.11 795.93 476.66 806.31 470.26 C 810.11 467.88 815.52 465.23 815.02 459.90 C 821.73 455.24 823.34 446.78 827.05 440.00 C 824.15 440.00 821.26 440.02 818.38 439.89 C 822.42 432.26 825.64 424.16 827.70 415.76 C 829.52 408.82 830.04 401.64 831.04 394.55 C 833.15 401.33 834.85 408.23 837.18 414.94 C 837.51 398.29 835.65 381.60 831.92 365.37 C 823.54 329.08 805.08 295.87 782.37 266.62 C 759.50 237.03 732.41 211.07 705.04 185.70 C 709.81 181.94 715.98 180.73 721.89 180.21 C 739.77 178.97 757.63 182.85 775.49 180.95 C 773.44 186.91 771.77 193.61 774.26 199.71 C 776.04 204.61 780.63 208.08 785.64 209.17 C 792.59 210.74 799.81 209.03 806.26 206.35 C 817.85 227.48 833.62 247.43 836.84 272.04 C 832.10 270.82 827.85 267.97 824.99 264.01 C 817.41 253.85 816.26 240.43 808.77 230.22 C 804.78 224.53 797.97 221.47 791.15 221.12 C 795.61 237.61 803.74 252.87 812.72 267.31 C 825.22 287.30 839.73 305.98 851.66 326.33 C 859.38 339.30 865.81 353.06 870.51 367.41 C 878.32 390.28 883.83 413.84 890.93 436.92 C 899.08 463.59 909.89 490.22 928.45 511.46 C 929.88 508.52 929.71 505.13 929.75 501.95 C 929.38 491.37 925.52 481.31 921.26 471.76 C 913.56 454.51 903.30 438.28 898.27 419.94 C 906.47 421.17 914.51 424.67 920.19 430.84 C 927.95 439.12 931.52 450.31 933.63 461.24 C 937.13 479.92 937.05 499.01 938.45 517.91 C 938.74 522.26 939.27 526.78 937.76 530.98 C 931.86 529.72 929.80 522.00 923.51 521.32 C 930.31 542.56 934.06 564.67 935.46 586.91 C 937.36 615.92 936.33 645.01 935.87 674.04 C 935.54 698.35 935.45 722.80 938.91 746.92 C 940.72 759.67 945.00 771.87 948.69 784.16 C 951.67 794.13 953.61 804.67 951.95 815.07 C 950.56 824.21 946.56 832.63 943.38 841.23 C 929.82 875.58 913.92 908.93 898.45 942.44 C 881.38 979.56 864.14 1016.79 852.12 1055.93 C 857.34 1056.06 862.56 1056.01 867.78 1055.96 C 869.65 1051.76 871.62 1047.61 873.56 1043.45 C 911.34 963.16 950.51 882.82 974.35 797.02 C 974.71 786.71 974.42 776.36 974.48 766.04 C 971.71 765.23 969.23 763.78 966.93 762.10 C 964.72 760.37 961.85 760.50 959.23 760.30 C 956.60 739.69 954.78 718.98 953.90 698.23 C 950.89 638.14 956.61 577.96 952.55 517.90 C 951.38 502.93 949.95 487.92 946.88 473.21 C 943.44 457.31 937.85 441.91 930.69 427.32 C 918.04 401.13 900.64 377.69 884.29 353.76 C 873.64 337.98 863.10 321.89 856.09 304.10 C 846.98 280.29 850.07 253.61 839.86 230.13 C 826.16 196.89 804.99 167.36 782.27 139.73 C 757.05 109.42 729.37 81.00 698.15 56.83 C 680.21 42.90 661.29 29.97 640.55 20.55 C 626.50 14.17 611.29 10.70 595.99 9.08 C 570.16 6.33 544.10 8.19 518.43 11.58 M 210.18 227.20 C 203.94 232.86 199.15 239.94 195.35 247.42 C 187.51 262.86 183.70 280.06 175.11 295.16 C 171.40 301.80 166.70 307.92 161.01 312.99 C 146.95 325.64 129.61 333.91 115.35 346.32 C 103.93 355.86 95.14 369.43 94.09 384.56 C 100.23 387.51 107.22 388.69 113.96 387.46 C 131.97 384.48 146.81 372.04 164.86 369.18 C 156.12 388.20 152.57 409.14 151.59 429.92 C 150.39 457.45 153.38 485.26 161.13 511.73 C 165.71 526.52 171.51 541.33 181.24 553.54 C 176.60 557.85 173.72 564.54 175.11 570.88 C 176.04 575.23 179.40 578.70 183.36 580.52 C 188.76 583.06 194.35 585.15 199.86 587.42 C 197.74 599.65 196.46 612.28 198.67 624.59 C 200.78 635.98 208.04 646.14 217.94 652.09 C 222.67 655.01 229.08 654.77 233.67 651.69 C 238.76 648.32 242.36 642.82 243.46 636.82 C 245.41 624.54 245.07 612.07 245.71 599.69 C 252.74 599.68 259.84 600.07 266.79 598.71 C 280.90 596.35 294.11 589.29 304.09 579.09 C 307.62 575.62 309.42 570.48 308.68 565.58 C 312.84 562.13 316.50 558.13 320.51 554.51 C 344.55 531.92 370.11 510.15 388.13 482.16 C 408.16 452.01 416.47 415.05 414.71 379.16 C 412.15 373.50 407.89 368.77 403.87 364.10 C 386.98 346.14 364.54 334.38 341.43 326.52 C 308.95 315.86 273.62 312.61 240.06 319.88 C 224.89 323.13 210.39 329.12 197.13 337.15 C 213.61 316.09 235.30 299.16 248.71 275.70 C 257.39 260.98 261.10 243.02 257.04 226.25 C 242.68 226.23 228.32 226.28 213.96 226.23 C 212.63 226.27 211.09 225.98 210.18 227.20 M 704.30 486.16 C 686.51 503.85 663.29 514.36 640.84 524.77 C 605.62 540.61 569.73 556.20 538.99 580.00 C 520.67 593.84 503.85 609.53 485.98 623.92 C 471.96 635.22 457.05 645.92 440.01 652.14 C 419.49 659.48 397.39 657.83 376.00 658.00 C 354.58 657.94 332.48 659.71 312.86 669.02 C 306.44 692.21 298.90 715.21 295.43 739.09 C 292.87 756.49 292.94 774.49 297.59 791.55 C 299.79 799.35 304.59 806.09 309.96 812.04 C 322.01 825.30 336.93 835.90 347.26 850.72 C 357.73 866.08 365.42 883.09 374.85 899.07 C 380.36 908.25 386.43 917.38 394.74 924.27 C 401.96 930.23 411.30 934.31 420.79 933.62 C 433.34 931.11 446.22 929.89 459.01 930.98 C 485.44 932.87 510.13 943.60 533.45 955.51 C 555.11 966.62 576.50 978.57 599.58 986.57 C 618.63 993.20 638.77 997.14 658.99 996.75 C 673.86 996.74 689.05 995.44 703.01 989.96 C 716.97 984.59 729.87 976.75 741.82 967.83 C 759.94 954.13 776.13 937.81 789.33 919.31 C 799.98 904.26 808.99 887.54 812.46 869.27 C 816.41 845.06 808.81 820.74 811.74 796.48 C 816.50 756.68 824.79 717.35 835.59 678.77 C 850.57 624.87 870.74 572.56 893.15 521.35 C 881.96 514.51 869.78 509.38 857.23 505.61 C 836.80 499.47 815.63 496.21 794.47 493.81 C 766.07 490.57 737.52 489.06 709.09 486.22 C 707.49 486.14 705.86 485.73 704.30 486.16 Z" />
<path fill="#000000" opacity="1.00" d=" M 518.43 11.58 C 544.10 8.19 570.16 6.33 595.99 9.08 C 611.29 10.70 626.50 14.17 640.55 20.55 C 661.29 29.97 680.21 42.90 698.15 56.83 C 729.37 81.00 757.05 109.42 782.27 139.73 C 804.99 167.36 826.16 196.89 839.86 230.13 C 850.07 253.61 846.98 280.29 856.09 304.10 C 863.10 321.89 873.64 337.98 884.29 353.76 C 900.64 377.69 918.04 401.13 930.69 427.32 C 937.85 441.91 943.44 457.31 946.88 473.21 C 949.95 487.92 951.38 502.93 952.55 517.90 C 956.61 577.96 950.89 638.14 953.90 698.23 C 954.78 718.98 956.60 739.69 959.23 760.30 C 961.85 760.50 964.72 760.37 966.93 762.10 C 969.23 763.78 971.71 765.23 974.48 766.04 C 974.42 776.36 974.71 786.71 974.35 797.02 C 950.51 882.82 911.34 963.16 873.56 1043.45 C 871.62 1047.61 869.65 1051.76 867.78 1055.96 C 862.56 1056.01 857.34 1056.06 852.12 1055.93 C 864.14 1016.79 881.38 979.56 898.45 942.44 C 913.92 908.93 929.82 875.58 943.38 841.23 C 946.56 832.63 950.56 824.21 951.95 815.07 C 953.61 804.67 951.67 794.13 948.69 784.16 C 945.00 771.87 940.72 759.67 938.91 746.92 C 935.45 722.80 935.54 698.35 935.87 674.04 C 936.33 645.01 937.36 615.92 935.46 586.91 C 934.06 564.67 930.31 542.56 923.51 521.32 C 929.80 522.00 931.86 529.72 937.76 530.98 C 939.27 526.78 938.74 522.26 938.45 517.91 C 937.05 499.01 937.13 479.92 933.63 461.24 C 931.52 450.31 927.95 439.12 920.19 430.84 C 914.51 424.67 906.47 421.17 898.27 419.94 C 903.30 438.28 913.56 454.51 921.26 471.76 C 925.52 481.31 929.38 491.37 929.75 501.95 C 929.71 505.13 929.88 508.52 928.45 511.46 C 909.89 490.22 899.08 463.59 890.93 436.92 C 883.83 413.84 878.32 390.28 870.51 367.41 C 865.81 353.06 859.38 339.30 851.66 326.33 C 839.73 305.98 825.22 287.30 812.72 267.31 C 803.74 252.87 795.61 237.61 791.15 221.12 C 797.97 221.47 804.78 224.53 808.77 230.22 C 816.26 240.43 817.41 253.85 824.99 264.01 C 827.85 267.97 832.10 270.82 836.84 272.04 C 833.62 247.43 817.85 227.48 806.26 206.35 C 799.81 209.03 792.59 210.74 785.64 209.17 C 780.63 208.08 776.04 204.61 774.26 199.71 C 771.77 193.61 773.44 186.91 775.49 180.95 C 757.63 182.85 739.77 178.97 721.89 180.21 C 715.98 180.73 709.81 181.94 705.04 185.70 C 732.41 211.07 759.50 237.03 782.37 266.62 C 805.08 295.87 823.54 329.08 831.92 365.37 C 835.65 381.60 837.51 398.29 837.18 414.94 C 834.85 408.23 833.15 401.33 831.04 394.55 C 830.59 392.51 830.00 390.50 829.32 388.53 C 818.79 355.81 806.73 322.43 784.09 295.93 C 780.08 291.26 775.74 286.87 771.11 282.83 C 770.17 300.93 767.12 319.14 759.89 335.86 C 752.25 354.05 739.71 370.05 724.25 382.25 C 699.12 402.21 668.33 413.19 637.74 421.65 C 626.41 424.78 614.93 427.33 603.52 430.13 C 617.71 442.33 635.00 450.35 652.68 456.10 C 667.32 461.01 682.49 464.07 697.66 466.83 C 699.03 468.90 700.47 471.38 703.23 471.68 C 718.84 474.77 734.94 475.30 750.73 473.34 C 754.91 473.78 759.10 474.09 763.28 474.56 C 765.98 475.07 768.63 475.84 771.34 476.33 C 746.91 478.83 722.23 478.86 697.78 476.54 C 678.76 474.66 659.80 471.33 641.57 465.48 C 624.97 460.16 608.86 452.73 594.96 442.09 C 581.37 431.43 569.06 419.02 559.18 404.82 C 547.37 387.87 539.41 368.07 537.39 347.45 C 535.20 326.83 539.01 305.84 546.97 286.78 C 559.89 255.98 582.77 230.20 609.31 210.32 C 626.05 197.88 644.35 187.58 663.60 179.56 C 666.79 178.22 670.07 177.06 673.19 175.53 C 653.11 173.25 632.67 173.14 612.96 168.25 C 602.17 165.58 591.28 160.66 584.56 151.44 C 578.97 143.73 577.06 133.91 577.52 124.53 C 606.25 124.30 634.65 129.20 663.01 133.16 C 691.82 137.20 721.40 140.63 750.23 134.82 C 734.77 101.49 707.84 74.15 676.19 55.84 C 638.94 34.15 595.84 24.07 553.04 22.08 C 499.63 19.73 446.12 29.69 396.00 47.89 C 381.37 52.96 370.91 65.10 357.66 72.62 C 344.72 80.66 328.80 83.11 313.91 80.27 C 311.38 80.17 308.41 78.13 306.26 80.23 C 261.33 113.49 223.40 154.89 185.92 196.07 C 192.84 203.57 204.51 203.51 211.35 211.09 C 200.33 212.95 190.25 218.06 180.76 223.75 C 167.34 231.98 154.86 241.66 142.95 251.94 C 126.39 266.35 110.80 281.90 96.76 298.78 C 87.87 309.82 78.81 321.15 73.53 334.44 C 66.75 353.26 70.57 373.49 70.44 392.97 C 70.57 413.82 61.95 433.24 54.13 452.14 C 46.90 469.37 39.88 487.09 38.34 505.89 C 31.68 587.01 40.26 669.13 61.22 747.70 C 78.24 810.72 103.02 871.94 137.55 927.45 C 143.40 936.51 149.06 945.79 155.77 954.24 C 181.36 973.64 214.96 977.52 241.25 995.72 C 250.14 1001.94 257.91 1010.19 262.17 1020.29 C 203.42 996.38 148.49 961.49 105.06 914.95 C 103.14 912.89 101.24 910.83 99.29 908.82 C 97.83 932.75 101.10 957.22 110.77 979.27 C 122.71 1007.62 144.08 1030.29 160.44 1055.97 C 153.59 1056.06 146.74 1055.94 139.88 1056.04 C 125.52 1029.92 110.27 1004.09 99.79 976.09 C 91.27 953.68 86.07 930.02 84.47 906.10 C 83.91 900.18 84.17 894.23 83.64 888.32 C 78.22 882.10 72.33 876.23 67.58 869.43 C 53.60 850.39 44.00 828.52 36.61 806.19 C 23.88 766.74 17.50 725.65 11.20 684.80 C 8.42 666.18 5.50 647.58 2.58 628.98 C 2.37 616.99 2.58 604.99 2.48 593.00 C 2.52 590.69 2.32 588.34 2.85 586.08 C 7.88 566.49 8.45 546.11 8.51 525.99 C 8.21 499.65 6.61 473.34 6.49 446.99 C 6.70 430.52 7.25 413.93 10.52 397.73 C 11.11 394.87 11.65 391.98 12.84 389.30 C 15.45 393.33 16.57 398.08 17.42 402.75 C 20.13 419.01 18.11 435.71 21.32 451.92 C 22.82 459.09 25.94 466.88 32.89 470.33 C 38.19 431.70 44.25 393.18 51.66 354.90 C 56.92 327.14 62.73 299.50 68.60 271.87 C 73.45 280.99 68.93 292.03 73.99 301.02 C 75.20 303.46 77.00 305.52 78.88 307.47 C 131.43 251.29 175.20 187.70 226.24 130.23 C 236.62 118.63 247.28 107.29 258.48 96.48 C 265.50 90.13 271.88 82.81 280.29 78.24 C 290.00 72.83 300.34 68.71 310.69 64.72 C 350.21 50.06 390.87 38.67 431.79 28.68 C 460.41 21.76 489.23 15.51 518.43 11.58 M 648.85 231.69 C 646.91 251.49 653.25 271.49 664.06 287.96 C 673.43 302.31 687.62 314.32 704.71 317.91 C 705.22 296.66 703.51 273.88 691.26 255.76 C 681.80 241.65 665.42 233.62 648.85 231.69 M 609.39 256.56 C 604.18 257.61 599.11 259.63 594.91 262.92 C 586.93 268.95 582.30 278.52 580.54 288.20 C 577.87 303.37 581.26 319.47 589.60 332.40 C 595.56 341.46 604.25 348.93 614.58 352.49 C 625.41 356.40 637.47 356.38 648.53 353.47 C 652.50 350.46 655.38 346.19 657.88 341.93 C 665.51 327.98 665.37 311.00 660.87 296.07 C 657.04 283.50 650.43 271.28 640.08 262.92 C 631.63 255.94 619.84 254.96 609.39 256.56 M 23.15 679.20 C 27.16 706.47 30.88 733.82 36.21 760.88 C 40.54 782.02 45.95 803.14 55.15 822.75 C 62.06 837.34 71.08 851.33 83.58 861.75 C 77.17 816.83 55.09 776.29 44.72 732.40 C 40.85 716.74 38.96 700.68 37.83 684.62 C 32.49 683.79 28.97 678.13 23.15 679.20 Z" />
<path fill="#000000" opacity="1.00" d=" M 210.18 227.20 C 211.09 225.98 212.63 226.27 213.96 226.23 C 228.32 226.28 242.68 226.23 257.04 226.25 C 261.10 243.02 257.39 260.98 248.71 275.70 C 235.30 299.16 213.61 316.09 197.13 337.15 C 210.39 329.12 224.89 323.13 240.06 319.88 C 273.62 312.61 308.95 315.86 341.43 326.52 C 364.54 334.38 386.98 346.14 403.87 364.10 C 407.89 368.77 412.15 373.50 414.71 379.16 C 416.47 415.05 408.16 452.01 388.13 482.16 C 370.11 510.15 344.55 531.92 320.51 554.51 C 316.50 558.13 312.84 562.13 308.68 565.58 C 308.26 563.78 307.62 562.04 307.39 560.21 C 308.67 557.27 310.30 554.49 311.30 551.43 C 341.46 530.85 365.07 501.39 380.33 468.34 C 392.33 442.63 399.67 414.96 404.00 386.99 C 405.10 382.15 400.58 378.48 397.13 375.90 C 385.82 368.87 371.88 369.23 359.04 368.99 C 359.41 393.96 353.29 419.38 339.14 440.18 C 320.46 468.46 288.47 486.91 254.89 490.34 C 225.55 493.69 195.76 485.86 170.46 471.05 C 167.09 487.34 169.91 504.27 175.39 519.78 C 178.49 528.68 182.68 537.16 187.54 545.23 C 187.23 546.68 186.99 548.16 186.76 549.64 C 184.87 550.87 182.99 552.12 181.24 553.54 C 171.51 541.33 165.71 526.52 161.13 511.73 C 153.38 485.26 150.39 457.45 151.59 429.92 C 152.57 409.14 156.12 388.20 164.86 369.18 C 146.81 372.04 131.97 384.48 113.96 387.46 C 107.22 388.69 100.23 387.51 94.09 384.56 C 95.14 369.43 103.93 355.86 115.35 346.32 C 129.61 333.91 146.95 325.64 161.01 312.99 C 166.70 307.92 171.40 301.80 175.11 295.16 C 183.70 280.06 187.51 262.86 195.35 247.42 C 199.15 239.94 203.94 232.86 210.18 227.20 M 220.39 335.57 C 217.35 336.32 214.31 337.15 211.48 338.49 C 207.64 345.09 205.51 352.58 203.89 360.02 C 200.87 374.98 201.29 390.93 206.76 405.29 C 210.43 414.96 217.36 423.93 227.22 427.79 C 237.96 432.05 250.07 429.79 260.41 425.44 C 262.19 424.96 262.92 423.17 263.77 421.73 C 272.88 405.03 274.31 384.59 268.62 366.53 C 265.22 355.91 258.90 345.79 249.32 339.74 C 240.83 334.28 230.07 333.29 220.39 335.57 M 278.28 359.93 C 277.47 378.64 283.87 396.53 287.60 414.61 C 295.23 415.20 303.78 414.07 309.45 408.46 C 315.01 402.86 316.36 394.57 316.43 386.99 C 316.18 372.26 311.93 358.02 307.87 343.97 C 304.58 343.74 301.18 343.45 298.29 341.73 C 294.93 340.02 290.99 337.44 287.16 338.92 C 281.05 344.03 278.67 352.23 278.28 359.93 Z" />
<path fill="#ffffff" opacity="1.00" d=" M 648.85 231.69 C 665.42 233.62 681.80 241.65 691.26 255.76 C 703.51 273.88 705.22 296.66 704.71 317.91 C 687.62 314.32 673.43 302.31 664.06 287.96 C 653.25 271.49 646.91 251.49 648.85 231.69 Z" />
<path fill="#ffffff" opacity="1.00" d=" M 609.39 256.56 C 619.84 254.96 631.63 255.94 640.08 262.92 C 650.43 271.28 657.04 283.50 660.87 296.07 C 665.37 311.00 665.51 327.98 657.88 341.93 C 655.38 346.19 652.50 350.46 648.53 353.47 C 637.47 356.38 625.41 356.40 614.58 352.49 C 604.25 348.93 595.56 341.46 589.60 332.40 C 581.26 319.47 577.87 303.37 580.54 288.20 C 582.30 278.52 586.93 268.95 594.91 262.92 C 599.11 259.63 604.18 257.61 609.39 256.56 Z" />
<path fill="#ffffff" opacity="1.00" d=" M 771.11 282.83 C 775.74 286.87 780.08 291.26 784.09 295.93 C 806.73 322.43 818.79 355.81 829.32 388.53 C 826.29 386.93 822.65 385.54 819.32 387.12 C 815.98 388.47 815.38 392.39 814.41 395.42 C 809.15 414.48 798.71 432.60 782.70 444.59 C 779.01 446.27 775.70 448.63 772.20 450.63 C 753.31 460.19 731.15 460.79 710.63 457.27 C 707.53 456.89 703.83 455.97 701.26 458.33 C 698.54 460.28 698.21 463.80 697.66 466.83 C 682.49 464.07 667.32 461.01 652.68 456.10 C 635.00 450.35 617.71 442.33 603.52 430.13 C 614.93 427.33 626.41 424.78 637.74 421.65 C 668.33 413.19 699.12 402.21 724.25 382.25 C 739.71 370.05 752.25 354.05 759.89 335.86 C 767.12 319.14 770.17 300.93 771.11 282.83 Z" />
<path fill="#ffffff" opacity="1.00" d=" M 220.39 335.57 C 230.07 333.29 240.83 334.28 249.32 339.74 C 258.90 345.79 265.22 355.91 268.62 366.53 C 274.31 384.59 272.88 405.03 263.77 421.73 C 262.92 423.17 262.19 424.96 260.41 425.44 C 250.07 429.79 237.96 432.05 227.22 427.79 C 217.36 423.93 210.43 414.96 206.76 405.29 C 201.29 390.93 200.87 374.98 203.89 360.02 C 205.51 352.58 207.64 345.09 211.48 338.49 C 214.31 337.15 217.35 336.32 220.39 335.57 Z" />
<path fill="#ffffff" opacity="1.00" d=" M 278.28 359.93 C 278.67 352.23 281.05 344.03 287.16 338.92 C 290.99 337.44 294.93 340.02 298.29 341.73 C 301.18 343.45 304.58 343.74 307.87 343.97 C 311.93 358.02 316.18 372.26 316.43 386.99 C 316.36 394.57 315.01 402.86 309.45 408.46 C 303.78 414.07 295.23 415.20 287.60 414.61 C 283.87 396.53 277.47 378.64 278.28 359.93 Z" />
<path fill="#ffffff" opacity="1.00" d=" M 359.04 368.99 C 371.88 369.23 385.82 368.87 397.13 375.90 C 400.58 378.48 405.10 382.15 404.00 386.99 C 399.67 414.96 392.33 442.63 380.33 468.34 C 365.07 501.39 341.46 530.85 311.30 551.43 C 310.87 546.34 309.29 541.12 305.45 537.55 C 300.64 532.59 293.05 530.37 286.40 532.48 C 281.52 534.08 278.19 538.32 273.63 540.54 C 266.40 544.32 257.94 544.46 249.99 543.77 C 236.03 542.37 222.69 537.72 208.91 535.37 C 204.16 534.61 198.95 534.09 194.55 536.46 C 191.08 538.23 188.89 541.69 187.54 545.23 C 182.68 537.16 178.49 528.68 175.39 519.78 C 169.91 504.27 167.09 487.34 170.46 471.05 C 195.76 485.86 225.55 493.69 254.89 490.34 C 288.47 486.91 320.46 468.46 339.14 440.18 C 353.29 419.38 359.41 393.96 359.04 368.99 Z" />
<path fill="#1fe2ff" opacity="1.00" d=" M 819.32 387.12 C 822.65 385.54 826.29 386.93 829.32 388.53 C 830.00 390.50 830.59 392.51 831.04 394.55 C 830.04 401.64 829.52 408.82 827.70 415.76 C 825.64 424.16 822.42 432.26 818.38 439.89 C 815.59 444.64 812.14 448.94 808.90 453.38 C 811.43 455.03 813.89 457.00 815.02 459.90 C 815.52 465.23 810.11 467.88 806.31 470.26 C 795.93 476.66 783.23 478.11 771.34 476.33 C 768.63 475.84 765.98 475.07 763.28 474.56 C 762.74 473.39 762.20 472.23 761.66 471.09 C 758.01 471.82 754.37 472.62 750.73 473.34 C 734.94 475.30 718.84 474.77 703.23 471.68 C 700.47 471.38 699.03 468.90 697.66 466.83 C 698.21 463.80 698.54 460.28 701.26 458.33 C 703.83 455.97 707.53 456.89 710.63 457.27 C 731.15 460.79 753.31 460.19 772.20 450.63 C 772.15 454.27 771.35 458.77 774.73 461.27 C 777.45 464.04 781.57 463.11 784.70 461.65 C 793.03 457.95 801.78 453.96 807.79 446.85 C 812.21 441.14 804.83 432.53 798.43 435.49 C 793.13 438.42 789.14 444.05 782.70 444.59 C 798.71 432.60 809.15 414.48 814.41 395.42 C 815.38 392.39 815.98 388.47 819.32 387.12 Z" />
<path fill="#ccfdff" opacity="1.00" d=" M 798.43 435.49 C 804.83 432.53 812.21 441.14 807.79 446.85 C 801.78 453.96 793.03 457.95 784.70 461.65 C 781.57 463.11 777.45 464.04 774.73 461.27 C 771.35 458.77 772.15 454.27 772.20 450.63 C 775.70 448.63 779.01 446.27 782.70 444.59 C 789.14 444.05 793.13 438.42 798.43 435.49 Z" />
<path fill="#000000" opacity="1.00" d=" M 808.90 453.38 C 812.14 448.94 815.59 444.64 818.38 439.89 C 821.26 440.02 824.15 440.00 827.05 440.00 C 823.34 446.78 821.73 455.24 815.02 459.90 C 813.89 457.00 811.43 455.03 808.90 453.38 Z" />
<path fill="#ffffff" opacity="1.00" d=" M 750.73 473.34 C 754.37 472.62 758.01 471.82 761.66 471.09 C 762.20 472.23 762.74 473.39 763.28 474.56 C 759.10 474.09 754.91 473.78 750.73 473.34 Z" />
<path fill="#000000" opacity="1.00" d=" M 704.30 486.16 C 705.86 485.73 707.49 486.14 709.09 486.22 C 737.52 489.06 766.07 490.57 794.47 493.81 C 815.63 496.21 836.80 499.47 857.23 505.61 C 869.78 509.38 881.96 514.51 893.15 521.35 C 870.74 572.56 850.57 624.87 835.59 678.77 C 824.79 717.35 816.50 756.68 811.74 796.48 C 808.81 820.74 816.41 845.06 812.46 869.27 C 808.99 887.54 799.98 904.26 789.33 919.31 C 776.13 937.81 759.94 954.13 741.82 967.83 C 729.87 976.75 716.97 984.59 703.01 989.96 C 689.05 995.44 673.86 996.74 658.99 996.75 C 638.77 997.14 618.63 993.20 599.58 986.57 C 576.50 978.57 555.11 966.62 533.45 955.51 C 510.13 943.60 485.44 932.87 459.01 930.98 C 446.22 929.89 433.34 931.11 420.79 933.62 C 411.30 934.31 401.96 930.23 394.74 924.27 C 386.43 917.38 380.36 908.25 374.85 899.07 C 365.42 883.09 357.73 866.08 347.26 850.72 C 336.93 835.90 322.01 825.30 309.96 812.04 C 304.59 806.09 299.79 799.35 297.59 791.55 C 292.94 774.49 292.87 756.49 295.43 739.09 C 298.90 715.21 306.44 692.21 312.86 669.02 C 332.48 659.71 354.58 657.94 376.00 658.00 C 397.39 657.83 419.49 659.48 440.01 652.14 C 457.05 645.92 471.96 635.22 485.98 623.92 C 503.85 609.53 520.67 593.84 538.99 580.00 C 569.73 556.20 605.62 540.61 640.84 524.77 C 663.29 514.36 686.51 503.85 704.30 486.16 M 698.38 508.36 C 665.69 529.72 628.02 541.19 592.67 557.13 C 602.98 583.11 624.34 602.82 647.44 617.61 C 648.75 618.67 650.46 618.19 651.99 618.08 C 661.76 616.86 671.33 613.27 679.01 607.03 C 691.11 597.36 698.11 583.04 704.24 569.16 C 711.58 552.77 717.74 535.21 730.19 521.82 C 736.21 525.64 741.53 530.42 746.75 535.25 C 758.28 546.27 770.33 557.88 786.06 562.46 C 795.29 554.38 805.63 547.75 815.58 540.62 C 826.27 532.82 836.92 523.71 842.19 511.24 C 820.60 507.19 798.59 506.50 776.72 505.10 C 756.01 503.75 735.06 502.20 715.10 496.11 C 709.51 500.14 704.26 504.71 698.38 508.36 M 847.16 516.24 C 841.67 531.20 833.15 545.52 820.48 555.47 C 806.59 566.58 788.63 571.70 771.05 572.20 C 762.40 566.55 757.34 557.06 749.65 550.32 C 743.13 544.04 733.89 541.37 724.98 541.73 C 726.44 560.41 720.82 579.53 709.51 594.47 C 698.66 608.96 682.81 619.73 665.21 624.09 C 649.55 628.05 632.18 626.27 618.30 617.72 C 610.06 612.90 603.60 605.75 597.98 598.15 C 598.65 609.35 598.35 620.69 595.71 631.64 C 591.39 650.19 582.17 668.09 567.62 680.65 C 557.25 689.61 543.30 695.37 529.46 693.24 C 516.29 691.49 505.02 683.38 496.05 674.00 C 489.75 682.34 486.59 692.45 483.12 702.17 C 479.44 712.52 475.60 723.60 467.01 730.98 C 464.37 732.95 461.56 735.47 458.05 735.26 C 443.44 735.27 428.82 735.19 414.21 735.30 C 409.66 741.09 410.48 748.94 407.45 755.38 C 406.37 757.79 404.22 759.78 401.57 760.25 C 396.73 761.18 391.86 762.05 386.93 762.33 C 368.27 763.63 348.94 756.70 336.10 742.93 C 329.08 735.32 323.47 725.70 323.14 715.12 C 331.03 716.98 337.96 721.69 343.45 727.55 C 351.57 735.41 357.50 745.99 368.00 751.04 C 376.30 755.15 385.94 753.54 394.40 750.86 C 393.62 736.16 396.91 721.71 400.77 707.63 C 404.11 695.09 405.84 682.05 404.72 669.08 C 389.16 667.14 373.27 667.75 357.94 671.08 C 344.25 674.02 331.12 679.04 318.16 684.25 C 316.04 687.40 315.05 691.16 313.80 694.72 C 308.66 711.61 307.72 729.44 307.49 747.00 C 307.53 761.64 307.35 776.29 307.82 790.93 C 308.93 792.55 310.82 793.44 312.31 794.69 C 325.70 804.78 335.39 818.80 343.89 833.05 C 355.65 852.78 365.32 874.03 380.53 891.48 C 391.83 904.60 407.02 914.57 424.01 918.39 C 426.56 919.06 430.03 916.25 428.37 913.58 C 424.16 907.15 416.24 904.41 411.79 898.20 C 409.58 895.68 413.40 892.58 415.95 893.41 C 440.28 897.49 463.28 907.19 484.72 919.16 C 507.66 931.93 529.51 946.74 553.57 957.44 C 578.70 968.67 606.27 975.02 633.86 974.32 C 635.28 965.98 635.63 956.17 629.43 949.55 C 619.97 939.30 604.41 939.02 594.23 929.80 C 590.64 926.17 584.23 927.43 581.06 931.04 C 576.11 935.44 575.16 942.80 570.00 946.92 C 568.95 945.68 567.41 944.58 567.44 942.80 C 566.85 935.79 568.36 927.75 574.15 923.14 C 580.22 918.67 588.42 917.63 595.62 919.51 C 605.06 921.81 612.77 928.33 622.07 930.96 C 626.09 932.25 630.43 931.24 633.79 928.80 C 635.32 918.18 632.85 907.58 632.87 896.97 C 632.79 891.84 633.80 886.16 638.23 882.96 C 647.78 884.39 656.27 889.31 665.22 892.63 C 671.25 894.95 678.45 897.00 684.44 893.48 C 685.68 879.00 682.58 864.30 685.66 849.96 C 686.85 844.73 689.67 838.94 695.12 837.16 C 703.73 835.91 712.55 836.36 721.09 837.98 C 729.03 839.43 736.86 841.63 744.95 842.20 L 745.74 841.87 C 749.34 834.21 752.45 826.26 757.12 819.16 C 760.41 814.25 764.40 809.24 770.17 807.24 C 775.85 805.22 781.87 808.09 786.11 811.84 C 781.00 822.37 768.35 824.74 760.80 832.83 C 756.97 836.61 755.60 842.04 755.36 847.26 C 762.45 849.19 770.38 849.87 776.23 854.76 C 779.94 857.86 781.09 862.85 781.12 867.48 C 773.57 868.79 768.15 861.71 760.72 862.09 C 760.85 868.15 763.55 873.99 767.60 878.44 C 772.95 884.33 779.99 888.23 786.15 893.17 C 793.27 885.79 798.03 876.32 800.58 866.43 C 803.45 855.54 803.48 844.20 803.16 833.03 C 802.42 817.35 800.69 801.68 801.42 785.97 C 802.23 752.25 808.47 718.86 817.59 686.45 C 832.53 632.98 855.83 582.43 877.92 531.67 C 870.92 530.74 866.00 525.42 860.85 521.17 C 857.04 517.91 852.10 516.45 847.16 516.24 M 553.69 587.68 C 521.10 606.60 494.59 634.40 461.26 652.15 C 446.65 660.16 430.80 665.74 414.51 669.14 C 413.29 681.22 412.55 693.76 416.35 705.49 C 418.50 712.21 422.79 718.43 429.05 721.92 C 438.03 727.06 448.90 726.81 458.85 725.53 C 461.02 725.63 461.79 723.29 462.79 721.80 C 470.54 707.61 472.96 691.33 479.50 676.63 C 483.38 667.60 489.59 658.98 498.85 654.95 C 502.11 652.97 506.25 654.83 508.43 657.58 C 512.26 662.81 512.37 669.75 515.84 675.17 C 517.53 677.93 520.76 679.56 523.98 679.49 C 535.04 679.54 546.10 679.45 557.17 679.53 C 564.77 665.80 571.56 651.57 576.86 636.79 C 584.13 616.12 588.06 594.19 587.71 572.26 C 575.85 576.14 564.48 581.42 553.69 587.68 M 699.41 847.20 C 694.22 862.89 693.42 880.08 698.01 896.03 C 703.96 917.72 717.49 936.10 730.15 954.31 C 741.63 951.56 752.55 944.84 758.49 934.40 C 764.87 923.64 765.72 910.45 763.41 898.38 C 760.05 882.01 750.76 866.70 737.14 856.88 C 726.37 849.10 712.62 845.37 699.41 847.20 M 643.45 898.02 C 643.54 925.23 643.52 952.45 643.46 979.66 C 653.31 980.35 663.21 980.53 673.06 979.64 C 691.86 978.09 711.49 972.75 725.30 959.21 C 706.19 946.12 696.70 923.55 678.34 909.68 C 668.44 902.00 655.90 898.18 643.45 898.02 Z" />
<path fill="#ffffff" opacity="1.00" d=" M 698.38 508.36 C 704.26 504.71 709.51 500.14 715.10 496.11 C 735.06 502.20 756.01 503.75 776.72 505.10 C 798.59 506.50 820.60 507.19 842.19 511.24 C 836.92 523.71 826.27 532.82 815.58 540.62 C 805.63 547.75 795.29 554.38 786.06 562.46 C 770.33 557.88 758.28 546.27 746.75 535.25 C 741.53 530.42 736.21 525.64 730.19 521.82 C 717.74 535.21 711.58 552.77 704.24 569.16 C 698.11 583.04 691.11 597.36 679.01 607.03 C 671.33 613.27 661.76 616.86 651.99 618.08 C 650.46 618.19 648.75 618.67 647.44 617.61 C 624.34 602.82 602.98 583.11 592.67 557.13 C 628.02 541.19 665.69 529.72 698.38 508.36 Z" />
<path fill="#ffffff" opacity="1.00" d=" M 847.16 516.24 C 852.10 516.45 857.04 517.91 860.85 521.17 C 866.00 525.42 870.92 530.74 877.92 531.67 C 855.83 582.43 832.53 632.98 817.59 686.45 C 808.47 718.86 802.23 752.25 801.42 785.97 C 800.69 801.68 802.42 817.35 803.16 833.03 C 803.48 844.20 803.45 855.54 800.58 866.43 C 798.03 876.32 793.27 885.79 786.15 893.17 C 779.99 888.23 772.95 884.33 767.60 878.44 C 763.55 873.99 760.85 868.15 760.72 862.09 C 768.15 861.71 773.57 868.79 781.12 867.48 C 781.09 862.85 779.94 857.86 776.23 854.76 C 770.38 849.87 762.45 849.19 755.36 847.26 C 755.60 842.04 756.97 836.61 760.80 832.83 C 768.35 824.74 781.00 822.37 786.11 811.84 C 781.87 808.09 775.85 805.22 770.17 807.24 C 764.40 809.24 760.41 814.25 757.12 819.16 C 752.45 826.26 749.34 834.21 745.74 841.87 L 744.95 842.20 C 736.86 841.63 729.03 839.43 721.09 837.98 C 712.55 836.36 703.73 835.91 695.12 837.16 C 689.67 838.94 686.85 844.73 685.66 849.96 C 682.58 864.30 685.68 879.00 684.44 893.48 C 678.45 897.00 671.25 894.95 665.22 892.63 C 656.27 889.31 647.78 884.39 638.23 882.96 C 633.80 886.16 632.79 891.84 632.87 896.97 C 632.85 907.58 635.32 918.18 633.79 928.80 C 630.43 931.24 626.09 932.25 622.07 930.96 C 612.77 928.33 605.06 921.81 595.62 919.51 C 588.42 917.63 580.22 918.67 574.15 923.14 C 568.36 927.75 566.85 935.79 567.44 942.80 C 567.41 944.58 568.95 945.68 570.00 946.92 C 575.16 942.80 576.11 935.44 581.06 931.04 C 584.23 927.43 590.64 926.17 594.23 929.80 C 604.41 939.02 619.97 939.30 629.43 949.55 C 635.63 956.17 635.28 965.98 633.86 974.32 C 606.27 975.02 578.70 968.67 553.57 957.44 C 529.51 946.74 507.66 931.93 484.72 919.16 C 463.28 907.19 440.28 897.49 415.95 893.41 C 413.40 892.58 409.58 895.68 411.79 898.20 C 416.24 904.41 424.16 907.15 428.37 913.58 C 430.03 916.25 426.56 919.06 424.01 918.39 C 407.02 914.57 391.83 904.60 380.53 891.48 C 365.32 874.03 355.65 852.78 343.89 833.05 C 335.39 818.80 325.70 804.78 312.31 794.69 C 310.82 793.44 308.93 792.55 307.82 790.93 C 307.35 776.29 307.53 761.64 307.49 747.00 C 307.72 729.44 308.66 711.61 313.80 694.72 C 315.05 691.16 316.04 687.40 318.16 684.25 C 331.12 679.04 344.25 674.02 357.94 671.08 C 373.27 667.75 389.16 667.14 404.72 669.08 C 405.84 682.05 404.11 695.09 400.77 707.63 C 396.91 721.71 393.62 736.16 394.40 750.86 C 385.94 753.54 376.30 755.15 368.00 751.04 C 357.50 745.99 351.57 735.41 343.45 727.55 C 337.96 721.69 331.03 716.98 323.14 715.12 C 323.47 725.70 329.08 735.32 336.10 742.93 C 348.94 756.70 368.27 763.63 386.93 762.33 C 391.86 762.05 396.73 761.18 401.57 760.25 C 404.22 759.78 406.37 757.79 407.45 755.38 C 410.48 748.94 409.66 741.09 414.21 735.30 C 428.82 735.19 443.44 735.27 458.05 735.26 C 461.56 735.47 464.37 732.95 467.01 730.98 C 475.60 723.60 479.44 712.52 483.12 702.17 C 486.59 692.45 489.75 682.34 496.05 674.00 C 505.02 683.38 516.29 691.49 529.46 693.24 C 543.30 695.37 557.25 689.61 567.62 680.65 C 582.17 668.09 591.39 650.19 595.71 631.64 C 598.35 620.69 598.65 609.35 597.98 598.15 C 603.60 605.75 610.06 612.90 618.30 617.72 C 632.18 626.27 649.55 628.05 665.21 624.09 C 682.81 619.73 698.66 608.96 709.51 594.47 C 720.82 579.53 726.44 560.41 724.98 541.73 C 733.89 541.37 743.13 544.04 749.65 550.32 C 757.34 557.06 762.40 566.55 771.05 572.20 C 788.63 571.70 806.59 566.58 820.48 555.47 C 833.15 545.52 841.67 531.20 847.16 516.24 Z" />
<path fill="#1fe2ff" opacity="1.00" d=" M 286.40 532.48 C 293.05 530.37 300.64 532.59 305.45 537.55 C 309.29 541.12 310.87 546.34 311.30 551.43 C 310.30 554.49 308.67 557.27 307.39 560.21 C 307.62 562.04 308.26 563.78 308.68 565.58 C 309.42 570.48 307.62 575.62 304.09 579.09 C 294.11 589.29 280.90 596.35 266.79 598.71 C 259.84 600.07 252.74 599.68 245.71 599.69 C 245.07 612.07 245.41 624.54 243.46 636.82 C 242.36 642.82 238.76 648.32 233.67 651.69 C 229.08 654.77 222.67 655.01 217.94 652.09 C 208.04 646.14 200.78 635.98 198.67 624.59 C 196.46 612.28 197.74 599.65 199.86 587.42 C 194.35 585.15 188.76 583.06 183.36 580.52 C 179.40 578.70 176.04 575.23 175.11 570.88 C 173.72 564.54 176.60 557.85 181.24 553.54 C 182.99 552.12 184.87 550.87 186.76 549.64 C 186.99 548.16 187.23 546.68 187.54 545.23 C 188.89 541.69 191.08 538.23 194.55 536.46 C 198.95 534.09 204.16 534.61 208.91 535.37 C 222.69 537.72 236.03 542.37 249.99 543.77 C 257.94 544.46 266.40 544.32 273.63 540.54 C 278.19 538.32 281.52 534.08 286.40 532.48 M 231.28 592.30 C 227.95 593.21 227.19 596.97 226.81 599.92 C 225.46 610.39 224.80 621.27 227.55 631.57 C 229.37 637.47 238.62 637.53 241.42 632.41 C 243.18 628.91 243.46 624.90 243.90 621.07 C 244.18 615.43 245.12 609.53 243.00 604.12 C 242.18 601.66 242.18 599.03 241.40 596.57 C 239.60 593.00 235.09 591.12 231.28 592.30 Z" />
<path fill="#ffffff" opacity="1.00" d=" M 553.69 587.68 C 564.48 581.42 575.85 576.14 587.71 572.26 C 588.06 594.19 584.13 616.12 576.86 636.79 C 571.56 651.57 564.77 665.80 557.17 679.53 C 546.10 679.45 535.04 679.54 523.98 679.49 C 520.76 679.56 517.53 677.93 515.84 675.17 C 512.37 669.75 512.26 662.81 508.43 657.58 C 506.25 654.83 502.11 652.97 498.85 654.95 C 489.59 658.98 483.38 667.60 479.50 676.63 C 472.96 691.33 470.54 707.61 462.79 721.80 C 461.79 723.29 461.02 725.63 458.85 725.53 C 448.90 726.81 438.03 727.06 429.05 721.92 C 422.79 718.43 418.50 712.21 416.35 705.49 C 412.55 693.76 413.29 681.22 414.51 669.14 C 430.80 665.74 446.65 660.16 461.26 652.15 C 494.59 634.40 521.10 606.60 553.69 587.68 Z" />
<path fill="#ccfdff" opacity="1.00" d=" M 231.28 592.30 C 235.09 591.12 239.60 593.00 241.40 596.57 C 242.18 599.03 242.18 601.66 243.00 604.12 C 245.12 609.53 244.18 615.43 243.90 621.07 C 243.46 624.90 243.18 628.91 241.42 632.41 C 238.62 637.53 229.37 637.47 227.55 631.57 C 224.80 621.27 225.46 610.39 226.81 599.92 C 227.19 596.97 227.95 593.21 231.28 592.30 Z" />
<path fill="#ffffff" opacity="1.00" d=" M 23.15 679.20 C 28.97 678.13 32.49 683.79 37.83 684.62 C 38.96 700.68 40.85 716.74 44.72 732.40 C 55.09 776.29 77.17 816.83 83.58 861.75 C 71.08 851.33 62.06 837.34 55.15 822.75 C 45.95 803.14 40.54 782.02 36.21 760.88 C 30.88 733.82 27.16 706.47 23.15 679.20 Z" />
<path fill="#ffffff" opacity="1.00" d=" M 699.41 847.20 C 712.62 845.37 726.37 849.10 737.14 856.88 C 750.76 866.70 760.05 882.01 763.41 898.38 C 765.72 910.45 764.87 923.64 758.49 934.40 C 752.55 944.84 741.63 951.56 730.15 954.31 C 717.49 936.10 703.96 917.72 698.01 896.03 C 693.42 880.08 694.22 862.89 699.41 847.20 Z" />
<path fill="#ffffff" opacity="1.00" d=" M 643.45 898.02 C 655.90 898.18 668.44 902.00 678.34 909.68 C 696.70 923.55 706.19 946.12 725.30 959.21 C 711.49 972.75 691.86 978.09 673.06 979.64 C 663.21 980.53 653.31 980.35 643.46 979.66 C 643.52 952.45 643.54 925.23 643.45 898.02 Z" />
</svg>
