<?xml version="1.0" encoding="UTF-8" ?>
<!DOCTYPE svg PUBLIC "-//W3C//DTD SVG 1.1//EN" "http://www.w3.org/Graphics/SVG/1.1/DTD/svg11.dtd">
<svg width="450pt" height="370pt" viewBox="0 0 450 370" version="1.1" xmlns="http://www.w3.org/2000/svg">
<path fill="#ffffff" opacity="1.00" d=" M 0.00 0.00 L 247.89 0.00 C 247.69 11.28 247.22 22.68 249.38 33.83 C 244.96 43.73 242.36 54.37 240.33 65.00 C 239.38 70.95 238.52 77.17 240.22 83.07 C 237.31 91.45 238.59 100.55 240.70 108.95 C 242.55 115.22 245.25 121.33 249.41 126.42 C 244.77 131.75 239.76 137.23 237.91 144.24 C 237.14 146.88 239.29 149.83 237.41 152.21 C 228.52 166.80 224.08 184.07 224.92 201.14 C 226.06 222.82 233.75 243.54 243.15 262.91 C 249.77 276.81 257.77 290.04 263.92 304.17 C 264.92 306.68 265.96 309.25 266.22 311.96 C 265.15 321.53 267.68 331.06 270.39 340.17 C 266.85 349.77 267.67 360.47 271.03 370.00 L 0.00 370.00 L 0.00 0.00 M 61.98 23.95 C 63.55 26.44 65.36 28.78 66.83 31.35 C 67.16 33.21 66.97 35.12 67.01 37.00 C 67.51 37.00 68.50 37.00 68.99 37.00 C 69.00 35.08 69.00 33.16 69.02 31.25 C 70.70 28.83 72.36 26.40 74.02 23.96 C 73.37 24.00 72.07 24.08 71.43 24.12 C 70.33 26.02 69.20 27.90 68.07 29.79 C 66.84 27.95 65.67 26.08 64.59 24.16 C 63.93 24.11 62.63 24.00 61.98 23.95 M 77.42 24.49 C 73.61 26.11 73.12 31.53 75.16 34.71 C 77.95 38.76 85.50 37.22 85.86 32.06 C 87.36 27.12 82.26 22.14 77.42 24.49 M 89.01 24.00 C 89.08 27.32 88.74 30.68 89.27 33.98 C 90.07 38.01 96.84 38.06 97.70 34.04 C 98.27 30.73 97.92 27.34 97.99 24.00 C 97.49 24.00 96.50 24.00 96.00 24.00 C 95.95 27.03 96.17 30.08 95.84 33.10 C 95.55 35.66 91.40 35.62 91.16 33.06 C 90.83 30.05 91.04 27.02 91.00 24.00 C 90.50 24.00 89.51 24.00 89.01 24.00 M 102.00 23.98 C 102.00 28.32 102.00 32.66 102.00 37.00 C 102.50 37.00 103.50 37.00 104.00 37.00 C 104.00 35.28 104.00 33.56 104.01 31.85 C 107.21 31.63 108.44 35.12 110.42 36.99 C 111.06 36.99 112.35 37.00 113.00 37.00 C 111.42 35.21 109.85 33.42 108.26 31.65 C 110.38 30.52 112.00 27.80 110.38 25.57 C 108.26 23.23 104.78 24.23 102.00 23.98 M 121.00 23.96 C 121.00 28.31 121.00 32.65 121.00 37.00 C 121.50 37.00 122.50 37.00 123.00 37.00 C 123.00 35.37 123.00 33.75 123.00 32.12 C 126.12 32.57 129.91 30.46 128.90 26.84 C 128.02 23.34 123.72 24.07 121.00 23.96 M 129.98 37.13 C 132.20 37.60 132.68 35.65 133.25 34.01 C 135.08 34.00 136.90 34.00 138.73 34.01 C 139.26 35.70 139.78 37.62 142.02 37.13 C 140.37 32.80 138.96 28.37 137.11 24.13 C 136.55 24.07 135.42 23.94 134.86 23.88 C 133.25 28.30 131.56 32.70 129.98 37.13 M 143.00 24.00 C 143.00 24.50 143.00 25.49 143.00 25.99 C 143.50 25.99 144.50 26.01 145.00 26.01 C 145.00 29.00 145.00 32.00 145.00 34.99 C 144.50 34.99 143.50 35.01 143.00 35.01 C 143.00 35.51 143.00 36.50 143.00 37.00 C 145.00 37.00 147.00 37.00 149.00 37.00 C 149.00 36.50 149.00 35.51 149.00 35.01 C 148.50 35.01 147.50 34.99 147.00 34.99 C 147.00 32.00 147.00 29.00 147.00 26.01 C 147.50 26.01 148.50 25.99 149.00 25.99 C 149.00 25.49 149.00 24.50 149.00 24.00 C 147.00 24.00 145.00 24.00 143.00 24.00 M 152.00 24.00 C 152.00 28.33 152.00 32.67 152.00 37.00 C 152.50 37.00 153.50 37.00 154.00 37.00 C 154.03 33.24 153.78 29.47 154.38 25.74 C 155.59 29.42 156.91 33.08 158.50 36.61 C 159.13 36.74 160.37 37.00 160.99 37.13 C 161.01 32.76 161.00 28.38 161.00 24.00 C 160.50 24.00 159.50 24.00 159.00 24.00 C 159.02 27.56 159.00 31.12 158.91 34.69 C 157.64 31.09 156.21 27.55 154.80 24.01 C 154.10 24.00 152.70 24.00 152.00 24.00 M 165.27 34.14 C 164.14 35.11 165.09 38.06 166.73 36.86 C 167.86 35.90 166.90 32.94 165.27 34.14 M 45.00 70.00 C 45.00 70.50 45.00 71.49 45.00 71.99 C 45.50 71.99 46.50 72.01 47.00 72.01 C 47.00 75.00 47.00 77.99 47.00 80.99 C 46.50 80.99 45.50 81.01 45.00 81.01 C 45.00 81.51 45.00 82.50 45.00 83.00 C 47.00 83.00 49.00 83.00 51.00 83.00 C 51.00 82.50 51.00 81.51 51.00 81.01 C 50.50 81.01 49.50 80.99 49.00 80.99 C 49.00 78.00 49.00 75.00 49.00 72.01 C 49.50 72.01 50.50 71.99 51.00 71.99 C 51.00 71.49 51.00 70.50 51.00 70.00 C 49.00 70.00 47.00 70.00 45.00 70.00 M 52.00 70.00 C 52.00 70.50 52.00 71.50 52.00 72.00 C 53.67 72.00 55.33 72.00 57.00 72.00 C 57.00 75.67 57.00 79.33 57.00 83.00 C 57.50 83.00 58.50 83.00 59.00 83.00 C 59.00 79.33 59.00 75.67 59.00 72.00 C 60.67 72.00 62.33 72.00 64.00 72.00 C 64.00 71.50 64.00 70.50 64.00 70.00 C 60.00 70.00 56.00 70.00 52.00 70.00 M 68.98 83.13 C 71.20 83.59 71.69 81.66 72.25 80.01 C 74.08 80.00 75.90 80.00 77.73 80.01 C 78.26 81.70 78.77 83.64 81.02 83.13 C 79.38 78.80 77.96 74.38 76.11 70.13 C 75.55 70.07 74.42 69.94 73.86 69.87 C 72.25 74.30 70.56 78.69 68.98 83.13 M 83.00 69.98 C 83.00 74.32 83.00 78.66 83.00 83.00 C 83.50 83.00 84.50 83.00 85.00 83.00 C 85.00 79.23 85.00 75.47 85.01 71.70 C 86.07 74.26 87.10 76.82 88.22 79.35 C 90.19 77.23 90.74 74.25 91.99 71.72 C 92.00 75.48 92.00 79.24 92.00 83.00 C 92.50 83.00 93.50 83.00 94.00 83.00 C 94.00 78.66 94.00 74.31 94.00 69.97 C 93.34 70.00 92.01 70.04 91.35 70.07 C 90.46 72.33 89.55 74.58 88.64 76.84 C 87.58 74.61 86.59 72.35 85.68 70.05 C 85.01 70.03 83.67 70.00 83.00 69.98 M 98.01 70.00 C 98.08 73.33 97.74 76.69 98.27 79.99 C 99.09 84.01 105.86 84.05 106.71 80.03 C 107.27 76.72 106.92 73.34 106.99 70.00 C 106.49 70.00 105.50 70.00 105.00 70.00 C 104.96 73.01 105.17 76.04 104.85 79.04 C 104.63 81.67 100.35 81.64 100.15 79.02 C 99.83 76.02 100.04 73.00 100.00 70.00 C 99.50 70.00 98.51 70.00 98.01 70.00 M 110.21 74.91 C 111.53 78.45 117.99 75.78 118.02 79.96 C 115.66 81.89 112.47 80.71 109.85 80.08 C 109.38 83.06 113.02 82.88 115.03 83.00 C 117.68 83.21 120.88 80.91 119.83 77.99 C 118.51 74.46 112.28 77.04 111.90 73.04 C 113.94 71.15 116.82 72.30 119.15 72.89 C 119.11 67.89 108.17 69.50 110.21 74.91 M 123.00 70.00 C 123.00 74.33 123.00 78.67 123.00 83.00 C 125.67 83.00 128.33 83.00 131.00 83.00 C 131.00 82.50 131.00 81.50 131.00 81.00 C 129.00 81.00 127.00 81.00 125.00 81.00 C 125.00 79.67 125.00 78.33 125.00 77.00 C 127.00 77.00 129.00 77.00 131.00 77.00 C 131.00 76.50 131.00 75.50 131.00 75.00 C 129.00 75.00 127.00 75.00 125.00 75.00 C 125.00 74.25 125.00 72.75 125.00 72.00 C 127.00 72.00 129.00 72.00 131.00 72.00 C 131.00 71.50 131.00 70.50 131.00 70.00 C 128.33 70.00 125.67 70.00 123.00 70.00 M 133.21 74.88 C 134.45 78.48 141.08 75.75 140.97 79.99 C 138.63 81.90 135.45 80.69 132.85 80.08 C 132.38 83.04 135.99 82.88 137.99 83.00 C 140.67 83.24 143.91 80.90 142.82 77.95 C 141.45 74.47 135.25 77.04 134.90 73.02 C 136.96 71.17 139.82 72.29 142.15 72.89 C 142.12 67.90 131.18 69.49 133.21 74.88 M 152.00 69.98 C 152.00 74.32 152.00 78.66 152.00 83.00 C 152.50 83.00 153.50 83.00 154.00 83.00 C 154.00 79.25 153.99 75.49 154.01 71.74 C 155.08 74.28 156.11 76.84 157.22 79.36 C 159.18 77.24 159.73 74.28 160.98 71.76 C 161.01 75.50 161.00 79.25 161.00 83.00 C 161.50 83.00 162.50 83.00 163.00 83.00 C 163.00 78.66 163.00 74.32 163.00 69.97 C 162.34 70.00 161.02 70.04 160.36 70.07 C 159.46 72.36 158.52 74.64 157.55 76.90 C 156.59 74.62 155.62 72.35 154.68 70.06 C 154.01 70.04 152.67 70.00 152.00 69.98 M 167.00 70.00 C 167.00 74.33 167.00 78.67 167.00 83.00 C 169.67 83.00 172.33 83.00 175.00 83.00 C 175.00 82.50 175.00 81.50 175.00 81.00 C 173.00 81.00 171.00 81.00 169.00 81.00 C 169.00 79.67 169.00 78.33 169.00 77.00 C 171.00 77.00 173.00 77.00 175.00 77.00 C 175.00 76.50 175.00 75.50 175.00 75.00 C 173.00 75.00 171.00 75.00 169.00 75.00 C 169.00 74.25 169.00 72.75 169.00 72.00 C 171.00 72.00 173.00 72.00 175.00 72.00 C 175.00 71.50 175.00 70.50 175.00 70.00 C 172.33 70.00 169.67 70.00 167.00 70.00 M 178.27 80.15 C 177.13 81.12 178.10 84.07 179.73 82.85 C 180.86 81.88 179.89 78.93 178.27 80.15 Z" />
<path fill="#000000" opacity="1.00" d=" M 247.89 0.00 L 251.27 0.00 C 251.26 9.50 250.78 19.05 251.77 28.51 C 252.05 32.06 254.11 35.01 256.02 37.87 C 254.65 37.41 253.29 36.92 251.94 36.44 C 248.88 43.49 246.78 50.93 245.11 58.41 C 254.37 58.50 264.03 60.18 272.14 64.80 C 271.17 65.44 270.20 66.07 269.24 66.71 C 261.38 63.62 252.94 61.66 244.47 61.72 C 243.44 67.42 242.07 73.21 242.72 79.03 C 242.82 80.61 244.44 81.30 245.47 82.21 C 241.77 86.15 241.45 91.86 241.94 96.97 C 242.32 101.84 243.61 106.57 244.99 111.25 C 245.72 104.17 248.82 97.05 254.62 92.70 C 260.28 88.43 267.64 87.18 274.58 87.35 C 276.02 83.28 276.47 78.46 273.46 74.97 C 273.72 74.23 274.23 72.75 274.49 72.02 C 277.12 73.81 279.19 76.60 279.14 79.91 C 279.16 85.79 277.02 91.41 274.92 96.82 C 269.92 108.40 263.48 119.63 254.32 128.44 C 253.73 128.55 252.54 128.76 251.95 128.87 C 247.61 133.35 243.51 138.33 241.37 144.27 C 240.63 146.32 241.49 148.34 242.58 150.07 C 242.26 157.33 245.73 164.30 249.98 170.00 C 252.92 174.01 257.31 177.09 262.40 177.34 C 262.52 178.10 262.76 179.62 262.88 180.39 C 261.15 180.35 259.43 180.31 257.71 180.25 C 256.30 186.09 256.35 192.12 255.80 198.07 C 257.18 195.42 258.34 192.35 261.19 190.92 C 261.23 191.93 261.30 193.94 261.34 194.95 C 258.41 200.73 256.39 206.91 254.25 213.02 C 258.65 208.11 264.40 204.45 270.93 203.20 C 285.11 199.82 299.76 202.74 313.75 205.65 C 328.65 209.43 343.42 214.15 357.21 221.02 C 358.95 221.62 359.77 223.25 360.57 224.77 C 358.76 224.52 356.79 224.85 355.17 223.85 C 345.37 218.73 334.82 215.32 324.33 211.95 C 308.07 207.33 291.07 203.56 274.11 205.89 C 267.93 206.98 261.61 209.60 257.66 214.67 C 254.46 218.91 253.46 224.32 253.28 229.52 C 251.77 229.79 250.26 230.08 248.76 230.39 C 247.02 223.60 249.97 216.84 251.65 210.35 C 252.27 208.05 253.68 205.88 253.63 203.46 C 251.82 195.30 253.06 186.87 254.68 178.79 C 246.54 173.68 241.90 164.62 239.35 155.64 C 231.97 168.04 228.20 182.52 228.37 196.94 C 228.16 216.37 234.40 235.15 242.11 252.75 C 248.70 267.55 256.76 281.63 264.02 296.11 C 265.38 291.85 266.71 287.56 268.65 283.52 C 269.62 283.97 270.61 284.41 271.59 284.85 C 270.04 289.32 268.19 293.67 266.63 298.13 C 265.49 300.64 267.08 303.14 267.93 305.47 C 270.11 305.79 271.48 307.56 273.00 308.94 C 279.87 315.43 289.84 318.43 299.14 316.74 C 312.76 314.60 324.45 306.50 334.89 297.94 C 348.19 286.52 360.10 273.36 369.63 258.63 C 370.85 258.52 372.07 258.41 373.29 258.29 C 372.44 260.30 371.46 262.26 370.20 264.04 C 362.96 274.36 354.67 283.90 345.65 292.69 C 335.12 302.87 323.32 312.20 309.55 317.52 C 301.10 320.75 291.45 321.78 282.78 318.81 C 277.94 316.74 273.07 314.22 269.63 310.11 C 269.79 315.39 269.03 320.72 270.40 325.92 C 271.61 330.18 270.99 335.69 274.73 338.74 C 269.83 348.43 270.64 360.18 274.75 370.00 L 271.03 370.00 C 267.67 360.47 266.85 349.77 270.39 340.17 C 267.68 331.06 265.15 321.53 266.22 311.96 C 265.96 309.25 264.92 306.68 263.92 304.17 C 257.77 290.04 249.77 276.81 243.15 262.91 C 233.75 243.54 226.06 222.82 224.92 201.14 C 224.08 184.07 228.52 166.80 237.41 152.21 C 239.29 149.83 237.14 146.88 237.91 144.24 C 239.76 137.23 244.77 131.75 249.41 126.42 C 245.25 121.33 242.55 115.22 240.70 108.95 C 238.59 100.55 237.31 91.45 240.22 83.07 C 238.52 77.17 239.38 70.95 240.33 65.00 C 242.36 54.37 244.96 43.73 249.38 33.83 C 247.22 22.68 247.69 11.28 247.89 0.00 M 253.97 97.97 C 249.76 102.23 248.69 108.45 248.00 114.16 C 247.51 113.99 246.51 113.63 246.02 113.45 C 246.13 114.40 246.47 115.23 247.01 115.95 C 251.92 110.14 259.13 105.22 267.01 105.59 C 268.36 103.07 269.70 100.54 270.79 97.90 C 271.74 95.46 272.74 93.04 273.74 90.62 C 266.59 90.51 258.81 92.34 253.97 97.97 M 260.15 110.09 C 260.71 111.39 261.29 112.67 261.87 113.96 C 262.90 112.36 263.99 110.79 265.01 109.19 C 263.33 109.13 261.73 109.59 260.15 110.09 M 248.74 119.79 C 249.86 121.32 250.94 122.88 251.99 124.46 C 252.40 124.47 253.22 124.49 253.63 124.50 C 253.95 123.90 254.28 123.31 254.60 122.72 C 253.01 121.02 251.91 118.98 251.02 116.86 C 250.27 117.84 249.50 118.81 248.74 119.79 Z" />
<path fill="#ffffff" opacity="1.00" d=" M 251.27 0.00 L 450.00 0.00 L 450.00 202.73 C 444.77 219.24 438.51 235.42 431.36 251.20 C 430.28 253.62 428.90 255.88 427.35 258.02 C 427.48 258.95 427.74 260.81 427.88 261.74 C 431.34 259.71 432.66 255.78 434.46 252.44 C 440.33 239.75 445.35 226.69 450.00 213.51 L 450.00 370.00 L 365.47 370.00 C 378.96 357.61 389.65 342.46 398.78 326.66 C 404.54 316.17 410.14 305.45 413.33 293.87 C 414.02 291.27 414.45 288.23 412.32 286.17 C 411.92 286.94 411.11 288.47 410.71 289.23 C 410.27 294.69 407.84 299.67 405.97 304.74 C 395.15 329.05 380.51 352.22 360.50 370.00 L 274.75 370.00 C 270.64 360.18 269.83 348.43 274.73 338.74 C 270.99 335.69 271.61 330.18 270.40 325.92 C 269.03 320.72 269.79 315.39 269.63 310.11 C 273.07 314.22 277.94 316.74 282.78 318.81 C 291.45 321.78 301.10 320.75 309.55 317.52 C 323.32 312.20 335.12 302.87 345.65 292.69 C 354.67 283.90 362.96 274.36 370.20 264.04 C 371.46 262.26 372.44 260.30 373.29 258.29 C 372.07 258.41 370.85 258.52 369.63 258.63 C 360.10 273.36 348.19 286.52 334.89 297.94 C 324.45 306.50 312.76 314.60 299.14 316.74 C 289.84 318.43 279.87 315.43 273.00 308.94 C 271.48 307.56 270.11 305.79 267.93 305.47 C 267.08 303.14 265.49 300.64 266.63 298.13 C 268.19 293.67 270.04 289.32 271.59 284.85 C 270.61 284.41 269.62 283.97 268.65 283.52 C 266.71 287.56 265.38 291.85 264.02 296.11 C 256.76 281.63 248.70 267.55 242.11 252.75 C 234.40 235.15 228.16 216.37 228.37 196.94 C 228.20 182.52 231.97 168.04 239.35 155.64 C 241.90 164.62 246.54 173.68 254.68 178.79 C 253.06 186.87 251.82 195.30 253.63 203.46 C 253.68 205.88 252.27 208.05 251.65 210.35 C 249.97 216.84 247.02 223.60 248.76 230.39 C 250.26 230.08 251.77 229.79 253.28 229.52 C 253.46 224.32 254.46 218.91 257.66 214.67 C 261.61 209.60 267.93 206.98 274.11 205.89 C 291.07 203.56 308.07 207.33 324.33 211.95 C 334.82 215.32 345.37 218.73 355.17 223.85 C 356.79 224.85 358.76 224.52 360.57 224.77 C 359.77 223.25 358.95 221.62 357.21 221.02 C 343.42 214.15 328.65 209.43 313.75 205.65 C 299.76 202.74 285.11 199.82 270.93 203.20 C 264.40 204.45 258.65 208.11 254.25 213.02 C 256.39 206.91 258.41 200.73 261.34 194.95 C 261.30 193.94 261.23 191.93 261.19 190.92 C 258.34 192.35 257.18 195.42 255.80 198.07 C 256.35 192.12 256.30 186.09 257.71 180.25 C 259.43 180.31 261.15 180.35 262.88 180.39 C 262.76 179.62 262.52 178.10 262.40 177.34 C 257.31 177.09 252.92 174.01 249.98 170.00 C 245.73 164.30 242.26 157.33 242.58 150.07 C 241.49 148.34 240.63 146.32 241.37 144.27 C 243.51 138.33 247.61 133.35 251.95 128.87 C 252.54 128.76 253.73 128.55 254.32 128.44 C 263.48 119.63 269.92 108.40 274.92 96.82 C 277.02 91.41 279.16 85.79 279.14 79.91 C 279.19 76.60 277.12 73.81 274.49 72.02 C 274.23 72.75 273.72 74.23 273.46 74.97 C 276.47 78.46 276.02 83.28 274.58 87.35 C 267.64 87.18 260.28 88.43 254.62 92.70 C 248.82 97.05 245.72 104.17 244.99 111.25 C 243.61 106.57 242.32 101.84 241.94 96.97 C 241.45 91.86 241.77 86.15 245.47 82.21 C 244.44 81.30 242.82 80.61 242.72 79.03 C 242.07 73.21 243.44 67.42 244.47 61.72 C 252.94 61.66 261.38 63.62 269.24 66.71 C 270.20 66.07 271.17 65.44 272.14 64.80 C 264.03 60.18 254.37 58.50 245.11 58.41 C 246.78 50.93 248.88 43.49 251.94 36.44 C 253.29 36.92 254.65 37.41 256.02 37.87 C 254.11 35.01 252.05 32.06 251.77 28.51 C 250.78 19.05 251.26 9.50 251.27 0.00 M 290.13 7.07 C 282.25 8.19 274.38 9.82 266.95 12.73 C 264.38 13.65 262.39 15.63 261.46 18.18 C 262.34 18.23 264.09 18.31 264.97 18.35 C 268.95 14.48 274.78 13.57 280.00 12.34 C 300.42 8.30 321.25 6.40 342.06 6.67 C 346.03 6.41 349.89 8.40 353.84 7.18 C 353.00 3.74 348.62 4.05 345.88 3.53 C 327.24 2.49 308.58 4.57 290.13 7.07 M 308.45 27.58 C 308.67 28.38 309.12 30.00 309.35 30.80 C 317.31 28.10 325.72 27.22 334.06 26.66 C 360.80 25.57 387.31 33.07 411.09 44.92 C 420.78 50.09 431.18 55.07 438.12 63.90 C 438.55 63.42 439.41 62.45 439.84 61.97 C 438.62 58.27 435.38 55.88 432.37 53.68 C 420.32 45.08 406.85 38.60 393.03 33.39 C 366.23 23.65 336.21 19.11 308.45 27.58 M 347.44 39.38 C 341.98 43.28 337.65 48.50 333.62 53.80 C 327.83 61.90 322.32 70.47 319.62 80.14 C 319.21 82.25 318.84 84.52 319.51 86.61 C 320.07 87.45 320.29 89.54 321.71 88.66 C 322.76 87.91 323.62 86.47 322.91 85.18 C 321.95 81.98 323.56 78.85 324.58 75.88 C 329.42 64.77 336.32 54.52 344.88 45.94 C 347.93 43.08 351.50 39.89 356.00 40.24 C 356.37 39.12 357.38 37.80 355.98 36.96 C 352.95 36.45 349.92 37.76 347.44 39.38 M 357.19 59.86 C 345.53 63.69 337.53 73.91 331.46 84.07 C 329.97 85.88 332.58 86.39 333.79 86.84 C 338.20 78.96 343.85 71.46 351.39 66.33 C 358.26 61.72 367.19 60.96 374.96 63.56 C 389.92 68.38 401.16 79.98 414.77 87.33 C 419.97 89.89 426.34 91.76 431.83 88.94 C 431.41 88.05 430.96 87.17 430.49 86.31 C 429.37 85.95 428.17 86.63 427.03 86.67 C 422.86 87.45 418.83 85.59 415.24 83.68 C 406.04 78.49 397.93 71.61 388.80 66.28 C 379.48 60.63 368.06 56.38 357.19 59.86 M 348.94 80.87 C 343.42 82.33 338.54 87.23 338.73 93.22 L 340.27 92.35 C 339.48 96.23 344.43 95.96 346.98 96.38 C 363.41 96.90 379.91 95.14 395.91 91.41 C 398.99 90.56 403.33 90.09 403.97 86.24 C 402.38 86.51 400.87 86.53 400.11 84.91 C 392.46 84.55 385.12 82.10 377.56 81.09 C 368.13 79.74 358.30 78.33 348.94 80.87 M 407.06 91.01 C 405.32 91.40 402.90 90.90 402.04 92.96 C 403.35 93.03 404.37 93.63 405.09 94.74 C 410.86 94.08 416.71 94.00 422.52 94.31 L 423.24 92.86 C 423.78 92.75 424.84 92.52 425.37 92.41 C 424.99 91.95 424.24 91.03 423.87 90.57 C 418.26 90.71 412.64 90.42 407.06 91.01 M 395.52 105.74 C 382.95 111.72 368.64 112.47 354.97 111.45 C 348.76 110.61 341.54 109.05 338.11 103.21 C 337.34 103.52 335.80 104.16 335.03 104.47 C 336.95 108.01 340.07 110.83 343.89 112.15 C 355.38 116.47 368.08 115.97 380.00 113.95 C 387.51 112.37 395.48 110.79 401.54 105.75 C 403.19 104.55 404.13 102.71 404.89 100.87 C 404.08 100.74 402.47 100.47 401.67 100.34 C 400.04 102.58 398.10 104.62 395.52 105.74 M 441.68 105.18 C 441.71 109.55 438.37 112.76 435.92 116.02 C 422.67 130.39 406.87 142.33 389.87 151.93 C 383.64 154.91 377.23 158.73 370.07 158.31 C 368.45 156.55 366.51 157.64 365.11 159.01 C 368.92 163.41 375.43 161.64 380.16 159.94 C 392.36 155.53 403.15 148.09 413.57 140.51 C 423.68 132.75 433.69 124.57 441.50 114.41 C 443.71 111.16 446.51 106.99 444.28 103.04 C 443.41 103.75 442.54 104.46 441.68 105.18 M 303.74 137.14 C 303.73 138.21 303.72 139.29 303.72 140.37 C 312.24 141.62 318.40 150.66 317.84 159.00 C 317.97 162.91 315.25 166.46 311.83 168.11 C 307.17 170.44 301.82 170.67 296.71 170.61 C 296.68 171.32 296.63 172.74 296.60 173.45 C 298.36 175.00 300.87 173.69 302.96 173.80 C 309.69 173.62 317.11 170.67 320.13 164.26 C 323.23 157.98 320.62 150.64 316.99 145.19 C 313.81 141.03 309.31 136.99 303.74 137.14 M 331.43 158.47 C 333.98 167.09 339.19 174.57 344.12 181.98 C 353.51 195.35 363.95 207.97 375.06 219.95 C 377.39 222.29 379.60 224.79 382.21 226.86 C 383.59 227.77 385.08 229.18 386.93 228.34 C 386.60 227.56 385.96 225.99 385.64 225.20 C 374.51 215.72 365.44 204.08 356.26 192.75 C 348.42 182.37 340.32 171.89 335.33 159.77 C 334.17 157.32 334.07 154.58 334.36 151.94 C 333.72 151.51 332.46 150.64 331.82 150.21 C 330.30 152.73 330.57 155.78 331.43 158.47 M 268.10 163.81 C 268.53 166.55 269.95 169.29 272.49 170.62 C 277.36 174.00 283.52 172.79 289.06 172.98 C 291.57 173.34 293.59 171.76 295.66 170.65 C 296.17 166.40 295.42 161.77 292.01 158.86 C 284.91 152.16 272.02 154.84 268.10 163.81 M 443.42 161.09 C 444.54 167.23 441.06 173.00 438.74 178.49 C 433.07 190.03 426.28 201.11 417.94 210.94 C 415.27 213.62 412.61 217.41 408.41 217.32 C 407.80 218.29 407.18 219.25 406.56 220.21 C 408.66 220.86 411.08 221.11 413.01 219.85 C 417.61 216.94 420.99 212.61 424.36 208.43 C 430.80 199.86 436.34 190.64 441.29 181.13 C 443.55 175.57 446.56 170.20 447.31 164.16 C 447.69 162.29 446.99 160.51 446.21 158.86 C 445.51 159.42 444.12 160.53 443.42 161.09 M 255.96 165.64 C 255.66 166.21 255.05 167.34 254.75 167.91 C 254.67 168.74 254.52 170.41 254.45 171.25 C 254.81 171.73 255.54 172.71 255.90 173.20 C 259.21 175.16 263.85 176.57 267.26 174.16 C 269.26 170.95 266.26 167.87 264.36 165.52 C 261.56 165.28 258.70 164.76 255.96 165.64 M 414.31 182.21 C 409.39 184.32 404.10 185.68 398.72 185.76 C 397.74 186.47 396.79 187.20 395.86 187.97 C 397.47 188.73 399.11 189.71 400.99 189.29 C 406.98 188.61 412.77 186.63 418.21 184.07 C 420.43 183.04 422.58 181.26 422.75 178.63 C 419.32 178.08 417.22 181.12 414.31 182.21 M 270.44 219.57 C 264.74 223.02 261.57 229.50 260.97 235.99 C 260.26 242.47 259.33 250.02 263.66 255.51 C 266.27 258.67 270.73 257.66 274.12 256.62 C 276.51 261.00 277.89 265.84 279.63 270.51 C 282.21 276.55 278.67 283.18 281.01 289.29 C 282.57 294.76 288.78 297.24 294.03 296.88 C 303.84 296.41 312.94 292.12 321.54 287.69 C 336.75 279.20 351.02 268.67 362.48 255.47 C 366.24 250.97 369.84 246.01 371.04 240.14 C 367.79 238.20 364.34 236.63 360.83 235.22 C 346.64 228.68 331.96 223.05 316.82 219.11 C 307.77 216.41 298.36 215.12 288.94 214.88 C 282.57 215.27 275.82 215.77 270.44 219.57 M 384.43 236.07 C 383.04 244.83 381.46 253.56 379.80 262.28 C 379.51 263.57 381.13 264.53 380.38 265.92 C 380.78 266.15 381.56 266.60 381.95 266.83 C 383.92 262.30 384.11 257.27 385.11 252.49 C 385.93 246.66 387.17 240.90 387.73 235.04 C 386.62 235.37 385.53 235.72 384.43 236.07 M 379.45 279.74 C 380.82 285.27 377.29 290.03 374.72 294.54 C 371.31 299.75 367.22 304.51 362.54 308.61 C 360.50 310.24 358.23 312.07 355.44 311.79 C 354.76 312.61 354.10 313.44 353.43 314.26 C 358.28 317.37 363.10 312.58 366.57 309.52 C 373.46 302.91 379.53 295.07 382.67 285.97 C 383.69 283.30 383.31 280.45 382.06 277.95 C 381.18 278.54 380.31 279.14 379.45 279.74 M 385.27 294.20 C 382.97 302.59 377.54 309.63 372.76 316.75 C 370.68 320.15 366.53 322.20 366.23 326.55 C 369.28 326.62 371.14 323.93 372.98 321.93 C 378.18 315.27 383.01 308.24 386.58 300.57 C 387.78 297.82 389.28 294.78 388.11 291.76 C 387.17 292.54 385.56 292.84 385.27 294.20 M 285.87 361.78 C 286.46 363.27 287.38 364.56 288.79 365.39 C 293.62 367.08 299.09 369.85 304.11 367.24 C 303.25 365.07 300.88 364.56 298.77 364.80 C 294.13 364.92 290.57 360.66 285.87 361.78 Z" />
<path fill="#000000" opacity="1.00" d=" M 290.13 7.07 C 308.58 4.57 327.24 2.49 345.88 3.53 C 348.62 4.05 353.00 3.74 353.84 7.18 C 349.89 8.40 346.03 6.41 342.06 6.67 C 321.25 6.40 300.42 8.30 280.00 12.34 C 274.78 13.57 268.95 14.48 264.97 18.35 C 264.09 18.31 262.34 18.23 261.46 18.18 C 262.39 15.63 264.38 13.65 266.95 12.73 C 274.38 9.82 282.25 8.19 290.13 7.07 Z" />
<path fill="#000000" opacity="1.00" d=" M 61.98 23.95 C 62.63 24.00 63.93 24.11 64.59 24.16 C 65.67 26.08 66.84 27.95 68.07 29.79 C 69.20 27.90 70.33 26.02 71.43 24.12 C 72.07 24.08 73.37 24.00 74.02 23.96 C 72.36 26.40 70.70 28.83 69.02 31.25 C 69.00 33.16 69.00 35.08 68.99 37.00 C 68.50 37.00 67.51 37.00 67.01 37.00 C 66.97 35.12 67.16 33.21 66.83 31.35 C 65.36 28.78 63.55 26.44 61.98 23.95 Z" />
<path fill="#000000" opacity="1.00" d=" M 77.42 24.49 C 82.26 22.14 87.36 27.12 85.86 32.06 C 85.50 37.22 77.95 38.76 75.16 34.71 C 73.12 31.53 73.61 26.11 77.42 24.49 M 78.24 26.34 C 74.53 28.04 75.47 35.26 79.98 35.01 C 83.45 35.25 84.84 31.00 83.61 28.30 C 82.87 26.18 80.17 25.48 78.24 26.34 Z" />
<path fill="#000000" opacity="1.00" d=" M 89.01 24.00 C 89.51 24.00 90.50 24.00 91.00 24.00 C 91.04 27.02 90.83 30.05 91.16 33.06 C 91.40 35.62 95.55 35.66 95.84 33.10 C 96.17 30.08 95.95 27.03 96.00 24.00 C 96.50 24.00 97.49 24.00 97.99 24.00 C 97.92 27.34 98.27 30.73 97.70 34.04 C 96.84 38.06 90.07 38.01 89.27 33.98 C 88.74 30.68 89.08 27.32 89.01 24.00 Z" />
<path fill="#000000" opacity="1.00" d=" M 102.00 23.98 C 104.78 24.23 108.26 23.23 110.38 25.57 C 112.00 27.80 110.38 30.52 108.26 31.65 C 109.85 33.42 111.42 35.21 113.00 37.00 C 112.35 37.00 111.06 36.99 110.42 36.99 C 108.44 35.12 107.21 31.63 104.01 31.85 C 104.00 33.56 104.00 35.28 104.00 37.00 C 103.50 37.00 102.50 37.00 102.00 37.00 C 102.00 32.66 102.00 28.32 102.00 23.98 M 104.00 25.92 C 104.00 27.31 104.00 28.70 104.00 30.09 C 105.68 29.84 108.71 30.46 108.99 28.07 C 109.19 25.41 105.66 26.19 104.00 25.92 Z" />
<path fill="#000000" opacity="1.00" d=" M 121.00 23.96 C 123.72 24.07 128.02 23.34 128.90 26.84 C 129.91 30.46 126.12 32.57 123.00 32.12 C 123.00 33.75 123.00 35.37 123.00 37.00 C 122.50 37.00 121.50 37.00 121.00 37.00 C 121.00 32.65 121.00 28.31 121.00 23.96 M 123.01 25.87 C 123.00 27.29 123.00 28.72 123.01 30.14 C 124.43 29.86 127.05 30.16 126.99 28.01 C 127.24 25.76 124.41 26.13 123.01 25.87 Z" />
<path fill="#000000" opacity="1.00" d=" M 129.98 37.13 C 131.56 32.70 133.25 28.30 134.86 23.88 C 135.42 23.94 136.55 24.07 137.11 24.13 C 138.96 28.37 140.37 32.80 142.02 37.13 C 139.78 37.62 139.26 35.70 138.73 34.01 C 136.90 34.00 135.08 34.00 133.25 34.01 C 132.68 35.65 132.20 37.60 129.98 37.13 M 133.91 31.99 C 135.29 32.00 136.66 32.00 138.04 32.00 C 137.42 30.24 136.78 28.48 136.10 26.74 C 135.21 28.42 134.52 30.20 133.91 31.99 Z" />
<path fill="#000000" opacity="1.00" d=" M 143.00 24.00 C 145.00 24.00 147.00 24.00 149.00 24.00 C 149.00 24.50 149.00 25.49 149.00 25.99 C 148.50 25.99 147.50 26.01 147.00 26.01 C 147.00 29.00 147.00 32.00 147.00 34.99 C 147.50 34.99 148.50 35.01 149.00 35.01 C 149.00 35.51 149.00 36.50 149.00 37.00 C 147.00 37.00 145.00 37.00 143.00 37.00 C 143.00 36.50 143.00 35.51 143.00 35.01 C 143.50 35.01 144.50 34.99 145.00 34.99 C 145.00 32.00 145.00 29.00 145.00 26.01 C 144.50 26.01 143.50 25.99 143.00 25.99 C 143.00 25.49 143.00 24.50 143.00 24.00 Z" />
<path fill="#000000" opacity="1.00" d=" M 152.00 24.00 C 152.70 24.00 154.10 24.00 154.80 24.01 C 156.21 27.55 157.64 31.09 158.91 34.69 C 159.00 31.12 159.02 27.56 159.00 24.00 C 159.50 24.00 160.50 24.00 161.00 24.00 C 161.00 28.38 161.01 32.76 160.99 37.13 C 160.37 37.00 159.13 36.74 158.50 36.61 C 156.91 33.08 155.59 29.42 154.38 25.74 C 153.78 29.47 154.03 33.24 154.00 37.00 C 153.50 37.00 152.50 37.00 152.00 37.00 C 152.00 32.67 152.00 28.33 152.00 24.00 Z" />
<path fill="#000000" opacity="1.00" d=" M 308.45 27.58 C 336.21 19.11 366.23 23.65 393.03 33.39 C 406.85 38.60 420.32 45.08 432.37 53.68 C 435.38 55.88 438.62 58.27 439.84 61.97 C 439.41 62.45 438.55 63.42 438.12 63.90 C 431.18 55.07 420.78 50.09 411.09 44.92 C 387.31 33.07 360.80 25.57 334.06 26.66 C 325.72 27.22 317.31 28.10 309.35 30.80 C 309.12 30.00 308.67 28.38 308.45 27.58 Z" />
<path fill="#ffffff" opacity="1.00" d=" M 78.24 26.34 C 80.17 25.48 82.87 26.18 83.61 28.30 C 84.84 31.00 83.45 35.25 79.98 35.01 C 75.47 35.26 74.53 28.04 78.24 26.34 Z" />
<path fill="#ffffff" opacity="1.00" d=" M 104.00 25.92 C 105.66 26.19 109.19 25.41 108.99 28.07 C 108.71 30.46 105.68 29.84 104.00 30.09 C 104.00 28.70 104.00 27.31 104.00 25.92 Z" />
<path fill="#ffffff" opacity="1.00" d=" M 123.01 25.87 C 124.41 26.13 127.24 25.76 126.99 28.01 C 127.05 30.16 124.43 29.86 123.01 30.14 C 123.00 28.72 123.00 27.29 123.01 25.87 Z" />
<path fill="#ffffff" opacity="1.00" d=" M 133.91 31.99 C 134.52 30.20 135.21 28.42 136.10 26.74 C 136.78 28.48 137.42 30.24 138.04 32.00 C 136.66 32.00 135.29 32.00 133.91 31.99 Z" />
<path fill="#000000" opacity="1.00" d=" M 165.27 34.14 C 166.90 32.94 167.86 35.90 166.73 36.86 C 165.09 38.06 164.14 35.11 165.27 34.14 Z" />
<path fill="#000000" opacity="1.00" d=" M 347.44 39.38 C 349.92 37.76 352.95 36.45 355.98 36.96 C 357.38 37.80 356.37 39.12 356.00 40.24 C 351.50 39.89 347.93 43.08 344.88 45.94 C 336.32 54.52 329.42 64.77 324.58 75.88 C 323.56 78.85 321.95 81.98 322.91 85.18 C 323.62 86.47 322.76 87.91 321.71 88.66 C 320.29 89.54 320.07 87.45 319.51 86.61 C 318.84 84.52 319.21 82.25 319.62 80.14 C 322.32 70.47 327.83 61.90 333.62 53.80 C 337.65 48.50 341.98 43.28 347.44 39.38 Z" />
<path fill="#000000" opacity="1.00" d=" M 357.19 59.86 C 368.06 56.38 379.48 60.63 388.80 66.28 C 397.93 71.61 406.04 78.49 415.24 83.68 C 418.83 85.59 422.86 87.45 427.03 86.67 C 428.17 86.63 429.37 85.95 430.49 86.31 C 430.96 87.17 431.41 88.05 431.83 88.94 C 426.34 91.76 419.97 89.89 414.77 87.33 C 401.16 79.98 389.92 68.38 374.96 63.56 C 367.19 60.96 358.26 61.72 351.39 66.33 C 343.85 71.46 338.20 78.96 333.79 86.84 C 332.58 86.39 329.97 85.88 331.46 84.07 C 337.53 73.91 345.53 63.69 357.19 59.86 Z" />
<path fill="#000000" opacity="1.00" d=" M 45.00 70.00 C 47.00 70.00 49.00 70.00 51.00 70.00 C 51.00 70.50 51.00 71.49 51.00 71.99 C 50.50 71.99 49.50 72.01 49.00 72.01 C 49.00 75.00 49.00 78.00 49.00 80.99 C 49.50 80.99 50.50 81.01 51.00 81.01 C 51.00 81.51 51.00 82.50 51.00 83.00 C 49.00 83.00 47.00 83.00 45.00 83.00 C 45.00 82.50 45.00 81.51 45.00 81.01 C 45.50 81.01 46.50 80.99 47.00 80.99 C 47.00 77.99 47.00 75.00 47.00 72.01 C 46.50 72.01 45.50 71.99 45.00 71.99 C 45.00 71.49 45.00 70.50 45.00 70.00 Z" />
<path fill="#000000" opacity="1.00" d=" M 52.00 70.00 C 56.00 70.00 60.00 70.00 64.00 70.00 C 64.00 70.50 64.00 71.50 64.00 72.00 C 62.33 72.00 60.67 72.00 59.00 72.00 C 59.00 75.67 59.00 79.33 59.00 83.00 C 58.50 83.00 57.50 83.00 57.00 83.00 C 57.00 79.33 57.00 75.67 57.00 72.00 C 55.33 72.00 53.67 72.00 52.00 72.00 C 52.00 71.50 52.00 70.50 52.00 70.00 Z" />
<path fill="#000000" opacity="1.00" d=" M 68.98 83.13 C 70.56 78.69 72.25 74.30 73.86 69.87 C 74.42 69.94 75.55 70.07 76.11 70.13 C 77.96 74.38 79.38 78.80 81.02 83.13 C 78.77 83.64 78.26 81.70 77.73 80.01 C 75.90 80.00 74.08 80.00 72.25 80.01 C 71.69 81.66 71.20 83.59 68.98 83.13 M 74.74 73.09 C 74.06 74.70 73.51 76.36 72.92 78.00 C 74.30 78.00 75.67 78.00 77.04 78.00 C 76.19 76.51 76.29 73.85 74.74 73.09 Z" />
<path fill="#000000" opacity="1.00" d=" M 83.00 69.98 C 83.67 70.00 85.01 70.03 85.68 70.05 C 86.59 72.35 87.58 74.61 88.64 76.84 C 89.55 74.58 90.46 72.33 91.35 70.07 C 92.01 70.04 93.34 70.00 94.00 69.97 C 94.00 74.31 94.00 78.66 94.00 83.00 C 93.50 83.00 92.50 83.00 92.00 83.00 C 92.00 79.24 92.00 75.48 91.99 71.72 C 90.74 74.25 90.19 77.23 88.22 79.35 C 87.10 76.82 86.07 74.26 85.01 71.70 C 85.00 75.47 85.00 79.23 85.00 83.00 C 84.50 83.00 83.50 83.00 83.00 83.00 C 83.00 78.66 83.00 74.32 83.00 69.98 Z" />
<path fill="#000000" opacity="1.00" d=" M 98.01 70.00 C 98.51 70.00 99.50 70.00 100.00 70.00 C 100.04 73.00 99.83 76.02 100.15 79.02 C 100.35 81.64 104.63 81.67 104.85 79.04 C 105.17 76.04 104.96 73.01 105.00 70.00 C 105.50 70.00 106.49 70.00 106.99 70.00 C 106.92 73.34 107.27 76.72 106.71 80.03 C 105.86 84.05 99.09 84.01 98.27 79.99 C 97.74 76.69 98.08 73.33 98.01 70.00 Z" />
<path fill="#000000" opacity="1.00" d=" M 110.21 74.91 C 108.17 69.50 119.11 67.89 119.15 72.89 C 116.82 72.30 113.94 71.15 111.90 73.04 C 112.28 77.04 118.51 74.46 119.83 77.99 C 120.88 80.91 117.68 83.21 115.03 83.00 C 113.02 82.88 109.38 83.06 109.85 80.08 C 112.47 80.71 115.66 81.89 118.02 79.96 C 117.99 75.78 111.53 78.45 110.21 74.91 Z" />
<path fill="#000000" opacity="1.00" d=" M 123.00 70.00 C 125.67 70.00 128.33 70.00 131.00 70.00 C 131.00 70.50 131.00 71.50 131.00 72.00 C 129.00 72.00 127.00 72.00 125.00 72.00 C 125.00 72.75 125.00 74.25 125.00 75.00 C 127.00 75.00 129.00 75.00 131.00 75.00 C 131.00 75.50 131.00 76.50 131.00 77.00 C 129.00 77.00 127.00 77.00 125.00 77.00 C 125.00 78.33 125.00 79.67 125.00 81.00 C 127.00 81.00 129.00 81.00 131.00 81.00 C 131.00 81.50 131.00 82.50 131.00 83.00 C 128.33 83.00 125.67 83.00 123.00 83.00 C 123.00 78.67 123.00 74.33 123.00 70.00 Z" />
<path fill="#000000" opacity="1.00" d=" M 133.21 74.88 C 131.18 69.49 142.12 67.90 142.15 72.89 C 139.82 72.29 136.96 71.17 134.90 73.02 C 135.25 77.04 141.45 74.47 142.82 77.95 C 143.91 80.90 140.67 83.24 137.99 83.00 C 135.99 82.88 132.38 83.04 132.85 80.08 C 135.45 80.69 138.63 81.90 140.97 79.99 C 141.08 75.75 134.45 78.48 133.21 74.88 Z" />
<path fill="#000000" opacity="1.00" d=" M 152.00 69.98 C 152.67 70.00 154.01 70.04 154.68 70.06 C 155.62 72.35 156.59 74.62 157.55 76.90 C 158.52 74.64 159.46 72.36 160.36 70.07 C 161.02 70.04 162.34 70.00 163.00 69.97 C 163.00 74.32 163.00 78.66 163.00 83.00 C 162.50 83.00 161.50 83.00 161.00 83.00 C 161.00 79.25 161.01 75.50 160.98 71.76 C 159.73 74.28 159.18 77.24 157.22 79.36 C 156.11 76.84 155.08 74.28 154.01 71.74 C 153.99 75.49 154.00 79.25 154.00 83.00 C 153.50 83.00 152.50 83.00 152.00 83.00 C 152.00 78.66 152.00 74.32 152.00 69.98 Z" />
<path fill="#000000" opacity="1.00" d=" M 167.00 70.00 C 169.67 70.00 172.33 70.00 175.00 70.00 C 175.00 70.50 175.00 71.50 175.00 72.00 C 173.00 72.00 171.00 72.00 169.00 72.00 C 169.00 72.75 169.00 74.25 169.00 75.00 C 171.00 75.00 173.00 75.00 175.00 75.00 C 175.00 75.50 175.00 76.50 175.00 77.00 C 173.00 77.00 171.00 77.00 169.00 77.00 C 169.00 78.33 169.00 79.67 169.00 81.00 C 171.00 81.00 173.00 81.00 175.00 81.00 C 175.00 81.50 175.00 82.50 175.00 83.00 C 172.33 83.00 169.67 83.00 167.00 83.00 C 167.00 78.67 167.00 74.33 167.00 70.00 Z" />
<path fill="#ffffff" opacity="1.00" d=" M 74.74 73.09 C 76.29 73.85 76.19 76.51 77.04 78.00 C 75.67 78.00 74.30 78.00 72.92 78.00 C 73.51 76.36 74.06 74.70 74.74 73.09 Z" />
<path fill="#000000" opacity="1.00" d=" M 178.27 80.15 C 179.89 78.93 180.86 81.88 179.73 82.85 C 178.10 84.07 177.13 81.12 178.27 80.15 Z" />
<path fill="#000000" opacity="1.00" d=" M 348.94 80.87 C 358.30 78.33 368.13 79.74 377.56 81.09 C 385.12 82.10 392.46 84.55 400.11 84.91 C 400.87 86.53 402.38 86.51 403.97 86.24 C 403.33 90.09 398.99 90.56 395.91 91.41 C 379.91 95.14 363.41 96.90 346.98 96.38 C 344.43 95.96 339.48 96.23 340.27 92.35 L 338.73 93.22 C 338.54 87.23 343.42 82.33 348.94 80.87 M 342.15 91.38 C 346.89 94.22 352.73 92.95 357.99 93.16 C 356.40 90.07 354.79 86.85 355.03 83.27 C 349.73 83.50 343.75 85.80 342.15 91.38 M 373.41 83.65 C 374.09 86.35 375.86 88.65 376.26 91.47 C 382.59 90.31 389.29 90.30 395.30 87.85 C 388.06 86.14 380.63 85.36 373.41 83.65 Z" />
<path fill="#ffffff" opacity="1.00" d=" M 342.15 91.38 C 343.75 85.80 349.73 83.50 355.03 83.27 C 354.79 86.85 356.40 90.07 357.99 93.16 C 352.73 92.95 346.89 94.22 342.15 91.38 Z" />
<path fill="#ffffff" opacity="1.00" d=" M 373.41 83.65 C 380.63 85.36 388.06 86.14 395.30 87.85 C 389.29 90.30 382.59 90.31 376.26 91.47 C 375.86 88.65 374.09 86.35 373.41 83.65 Z" />
<path fill="#ffffff" opacity="1.00" d=" M 253.97 97.97 C 258.81 92.34 266.59 90.51 273.74 90.62 C 272.74 93.04 271.74 95.46 270.79 97.90 C 269.70 100.54 268.36 103.07 267.01 105.59 C 259.13 105.22 251.92 110.14 247.01 115.95 C 246.47 115.23 246.13 114.40 246.02 113.45 C 246.51 113.63 247.51 113.99 248.00 114.16 C 248.69 108.45 249.76 102.23 253.97 97.97 Z" />
<path fill="#000000" opacity="1.00" d=" M 407.06 91.01 C 412.64 90.42 418.26 90.71 423.87 90.57 C 424.24 91.03 424.99 91.95 425.37 92.41 C 424.84 92.52 423.78 92.75 423.24 92.86 L 422.52 94.31 C 416.71 94.00 410.86 94.08 405.09 94.74 C 404.37 93.63 403.35 93.03 402.04 92.96 C 402.90 90.90 405.32 91.40 407.06 91.01 Z" />
<path fill="#000000" opacity="1.00" d=" M 395.52 105.74 C 398.10 104.62 400.04 102.58 401.67 100.34 C 402.47 100.47 404.08 100.74 404.89 100.87 C 404.13 102.71 403.19 104.55 401.54 105.75 C 395.48 110.79 387.51 112.37 380.00 113.95 C 368.08 115.97 355.38 116.47 343.89 112.15 C 340.07 110.83 336.95 108.01 335.03 104.47 C 335.80 104.16 337.34 103.52 338.11 103.21 C 341.54 109.05 348.76 110.61 354.97 111.45 C 368.64 112.47 382.95 111.72 395.52 105.74 Z" />
<path fill="#000000" opacity="1.00" d=" M 441.68 105.18 C 442.54 104.46 443.41 103.75 444.28 103.04 C 446.51 106.99 443.71 111.16 441.50 114.41 C 433.69 124.57 423.68 132.75 413.57 140.51 C 403.15 148.09 392.36 155.53 380.16 159.94 C 375.43 161.64 368.92 163.41 365.11 159.01 C 366.51 157.64 368.45 156.55 370.07 158.31 C 377.23 158.73 383.64 154.91 389.87 151.93 C 406.87 142.33 422.67 130.39 435.92 116.02 C 438.37 112.76 441.71 109.55 441.68 105.18 Z" />
<path fill="#ffffff" opacity="1.00" d=" M 260.15 110.09 C 261.73 109.59 263.33 109.13 265.01 109.19 C 263.99 110.79 262.90 112.36 261.87 113.96 C 261.29 112.67 260.71 111.39 260.15 110.09 Z" />
<path fill="#ffffff" opacity="1.00" d=" M 248.74 119.79 C 249.50 118.81 250.27 117.84 251.02 116.86 C 251.91 118.98 253.01 121.02 254.60 122.72 C 254.28 123.31 253.95 123.90 253.63 124.50 C 253.22 124.49 252.40 124.47 251.99 124.46 C 250.94 122.88 249.86 121.32 248.74 119.79 Z" />
<path fill="#000000" opacity="1.00" d=" M 303.74 137.14 C 309.31 136.99 313.81 141.03 316.99 145.19 C 320.62 150.64 323.23 157.98 320.13 164.26 C 317.11 170.67 309.69 173.62 302.96 173.80 C 300.87 173.69 298.36 175.00 296.60 173.45 C 296.63 172.74 296.68 171.32 296.71 170.61 C 301.82 170.67 307.17 170.44 311.83 168.11 C 315.25 166.46 317.97 162.91 317.84 159.00 C 318.40 150.66 312.24 141.62 303.72 140.37 C 303.72 139.29 303.73 138.21 303.74 137.14 Z" />
<path fill="#000000" opacity="1.00" d=" M 331.43 158.47 C 330.57 155.78 330.30 152.73 331.82 150.21 C 332.46 150.64 333.72 151.51 334.36 151.94 C 334.07 154.58 334.17 157.32 335.33 159.77 C 340.32 171.89 348.42 182.37 356.26 192.75 C 365.44 204.08 374.51 215.72 385.64 225.20 C 385.96 225.99 386.60 227.56 386.93 228.34 C 385.08 229.18 383.59 227.77 382.21 226.86 C 379.60 224.79 377.39 222.29 375.06 219.95 C 363.95 207.97 353.51 195.35 344.12 181.98 C 339.19 174.57 333.98 167.09 331.43 158.47 Z" />
<path fill="#000000" opacity="1.00" d=" M 268.10 163.81 C 272.02 154.84 284.91 152.16 292.01 158.86 C 295.42 161.77 296.17 166.40 295.66 170.65 C 293.59 171.76 291.57 173.34 289.06 172.98 C 283.52 172.79 277.36 174.00 272.49 170.62 C 269.95 169.29 268.53 166.55 268.10 163.81 Z" />
<path fill="#000000" opacity="1.00" d=" M 443.42 161.09 C 444.12 160.53 445.51 159.42 446.21 158.86 C 446.99 160.51 447.69 162.29 447.31 164.16 C 446.56 170.20 443.55 175.57 441.29 181.13 C 436.34 190.64 430.80 199.86 424.36 208.43 C 420.99 212.61 417.61 216.94 413.01 219.85 C 411.08 221.11 408.66 220.86 406.56 220.21 C 407.18 219.25 407.80 218.29 408.41 217.32 C 412.61 217.41 415.27 213.62 417.94 210.94 C 426.28 201.11 433.07 190.03 438.74 178.49 C 441.06 173.00 444.54 167.23 443.42 161.09 Z" />
<path fill="#000000" opacity="1.00" d=" M 255.96 165.64 C 258.70 164.76 261.56 165.28 264.36 165.52 C 266.26 167.87 269.26 170.95 267.26 174.16 C 263.85 176.57 259.21 175.16 255.90 173.20 C 255.54 172.71 254.81 171.73 254.45 171.25 C 254.52 170.41 254.67 168.74 254.75 167.91 C 255.05 167.34 255.66 166.21 255.96 165.64 Z" />
<path fill="#000000" opacity="1.00" d=" M 414.31 182.21 C 417.22 181.12 419.32 178.08 422.75 178.63 C 422.58 181.26 420.43 183.04 418.21 184.07 C 412.77 186.63 406.98 188.61 400.99 189.29 C 399.11 189.71 397.47 188.73 395.86 187.97 C 396.79 187.20 397.74 186.47 398.72 185.76 C 404.10 185.68 409.39 184.32 414.31 182.21 Z" />
<path fill="#000000" opacity="1.00" d=" M 431.36 251.20 C 438.51 235.42 444.77 219.24 450.00 202.73 L 450.00 213.51 C 445.35 226.69 440.33 239.75 434.46 252.44 C 432.66 255.78 431.34 259.71 427.88 261.74 C 427.74 260.81 427.48 258.95 427.35 258.02 C 428.90 255.88 430.28 253.62 431.36 251.20 Z" />
<path fill="#000000" opacity="1.00" d=" M 270.44 219.57 C 275.82 215.77 282.57 215.27 288.94 214.88 C 298.36 215.12 307.77 216.41 316.82 219.11 C 331.96 223.05 346.64 228.68 360.83 235.22 C 364.34 236.63 367.79 238.20 371.04 240.14 C 369.84 246.01 366.24 250.97 362.48 255.47 C 351.02 268.67 336.75 279.20 321.54 287.69 C 312.94 292.12 303.84 296.41 294.03 296.88 C 288.78 297.24 282.57 294.76 281.01 289.29 C 278.67 283.18 282.21 276.55 279.63 270.51 C 277.89 265.84 276.51 261.00 274.12 256.62 C 270.73 257.66 266.27 258.67 263.66 255.51 C 259.33 250.02 260.26 242.47 260.97 235.99 C 261.57 229.50 264.74 223.02 270.44 219.57 M 276.08 220.54 C 270.21 222.42 265.71 227.79 264.82 233.89 C 264.16 238.93 263.06 244.13 264.41 249.16 C 264.95 251.20 265.73 253.76 268.10 254.28 C 270.80 254.38 273.37 253.06 274.89 250.83 C 275.13 241.02 275.75 231.19 275.63 221.36 C 276.24 221.20 277.45 220.86 278.06 220.70 L 279.15 221.61 C 278.90 228.03 278.66 234.44 278.57 240.86 C 279.52 242.04 280.28 243.41 281.43 244.43 C 284.11 245.53 287.10 245.57 289.97 245.61 C 293.59 245.96 294.60 241.49 296.04 238.98 C 296.48 232.22 296.12 225.38 296.17 218.58 C 289.44 218.08 282.45 218.03 276.08 220.54 M 299.41 219.02 C 299.51 225.33 299.33 231.64 299.51 237.95 C 299.86 240.82 299.97 244.36 303.20 245.52 C 305.86 245.31 308.53 245.32 311.20 245.11 C 314.20 244.94 315.76 242.04 317.39 239.93 C 317.62 234.21 317.50 228.47 317.92 222.77 C 311.84 221.09 305.65 219.87 299.41 219.02 M 321.32 223.70 C 321.26 229.00 320.77 234.28 320.72 239.58 C 321.83 241.79 323.12 244.31 325.82 244.78 C 328.56 244.99 331.33 244.93 334.07 244.62 C 339.04 241.23 338.27 234.82 338.70 229.59 C 332.99 227.35 327.10 225.70 321.32 223.70 M 341.84 231.14 C 341.60 233.48 342.01 235.83 343.22 237.87 C 343.34 238.44 343.60 239.57 343.73 240.14 C 345.70 241.91 348.10 243.96 350.98 243.43 C 354.26 243.28 356.81 240.09 356.68 236.91 C 351.68 235.12 347.05 232.32 341.84 231.14 M 361.69 247.47 C 362.29 247.59 363.48 247.84 364.07 247.97 C 365.09 245.93 366.14 243.91 367.20 241.89 C 364.74 240.69 362.27 239.49 359.80 238.31 C 358.95 241.57 359.56 244.84 361.69 247.47 M 335.64 271.61 C 335.33 272.72 335.20 273.87 335.23 275.05 C 337.42 273.65 339.54 272.13 341.63 270.58 C 339.63 270.84 337.46 270.58 335.64 271.61 M 325.99 272.84 C 322.50 275.02 324.33 279.45 323.63 282.77 C 326.49 280.87 329.40 279.06 332.32 277.27 C 332.29 276.35 332.23 274.50 332.20 273.58 C 330.13 273.33 328.09 272.71 325.99 272.84 M 297.03 277.95 C 295.66 281.12 296.41 284.65 296.00 287.98 C 295.73 289.86 295.93 291.74 296.57 293.53 C 299.33 292.89 302.18 292.46 304.80 291.33 C 304.98 285.76 304.15 280.12 303.24 274.61 C 302.89 274.35 302.19 273.83 301.84 273.57 C 299.30 273.67 296.75 275.02 297.03 277.95 M 308.49 273.53 C 306.57 278.84 308.00 284.50 308.28 289.96 C 312.65 288.64 316.62 286.39 320.66 284.33 C 320.71 280.50 317.98 277.57 317.27 273.91 C 316.17 273.50 315.08 273.06 314.01 272.62 C 312.13 272.66 310.27 272.91 308.49 273.53 M 284.44 277.33 C 282.94 280.56 283.10 284.53 284.11 287.91 C 285.15 291.56 288.99 293.48 292.56 293.64 C 292.42 287.69 293.05 281.70 291.50 275.88 C 289.10 275.10 286.44 275.94 284.44 277.33 Z" />
<path fill="#ffffff" opacity="1.00" d=" M 276.08 220.54 C 282.45 218.03 289.44 218.08 296.17 218.58 C 296.12 225.38 296.48 232.22 296.04 238.98 C 294.60 241.49 293.59 245.96 289.97 245.61 C 287.10 245.57 284.11 245.53 281.43 244.43 C 280.28 243.41 279.52 242.04 278.57 240.86 C 278.66 234.44 278.90 228.03 279.15 221.61 L 278.06 220.70 C 277.45 220.86 276.24 221.20 275.63 221.36 C 275.75 231.19 275.13 241.02 274.89 250.83 C 273.37 253.06 270.80 254.38 268.10 254.28 C 265.73 253.76 264.95 251.20 264.41 249.16 C 263.06 244.13 264.16 238.93 264.82 233.89 C 265.71 227.79 270.21 222.42 276.08 220.54 Z" />
<path fill="#ffffff" opacity="1.00" d=" M 299.41 219.02 C 305.65 219.87 311.84 221.09 317.92 222.77 C 317.50 228.47 317.62 234.21 317.39 239.93 C 315.76 242.04 314.20 244.94 311.20 245.11 C 308.53 245.32 305.86 245.31 303.20 245.52 C 299.97 244.36 299.86 240.82 299.51 237.95 C 299.33 231.64 299.51 225.33 299.41 219.02 Z" />
<path fill="#ffffff" opacity="1.00" d=" M 321.32 223.70 C 327.10 225.70 332.99 227.35 338.70 229.59 C 338.27 234.82 339.04 241.23 334.07 244.62 C 331.33 244.93 328.56 244.99 325.82 244.78 C 323.12 244.31 321.83 241.79 320.72 239.58 C 320.77 234.28 321.26 229.00 321.32 223.70 Z" />
<path fill="#ffffff" opacity="1.00" d=" M 341.84 231.14 C 347.05 232.32 351.68 235.12 356.68 236.91 C 356.81 240.09 354.26 243.28 350.98 243.43 C 348.10 243.96 345.70 241.91 343.73 240.14 C 343.60 239.57 343.34 238.44 343.22 237.87 C 342.01 235.83 341.60 233.48 341.84 231.14 Z" />
<path fill="#000000" opacity="1.00" d=" M 384.43 236.07 C 385.53 235.72 386.62 235.37 387.73 235.04 C 387.17 240.90 385.93 246.66 385.11 252.49 C 384.11 257.27 383.92 262.30 381.95 266.83 C 381.56 266.60 380.78 266.15 380.38 265.92 C 381.13 264.53 379.51 263.57 379.80 262.28 C 381.46 253.56 383.04 244.83 384.43 236.07 Z" />
<path fill="#ffffff" opacity="1.00" d=" M 361.69 247.47 C 359.56 244.84 358.95 241.57 359.80 238.31 C 362.27 239.49 364.74 240.69 367.20 241.89 C 366.14 243.91 365.09 245.93 364.07 247.97 C 363.48 247.84 362.29 247.59 361.69 247.47 Z" />
<path fill="#ffffff" opacity="1.00" d=" M 335.64 271.61 C 337.46 270.58 339.63 270.84 341.63 270.58 C 339.54 272.13 337.42 273.65 335.23 275.05 C 335.20 273.87 335.33 272.72 335.64 271.61 Z" />
<path fill="#ffffff" opacity="1.00" d=" M 325.99 272.84 C 328.09 272.71 330.13 273.33 332.20 273.58 C 332.23 274.50 332.29 276.35 332.32 277.27 C 329.40 279.06 326.49 280.87 323.63 282.77 C 324.33 279.45 322.50 275.02 325.99 272.84 Z" />
<path fill="#ffffff" opacity="1.00" d=" M 297.03 277.95 C 296.75 275.02 299.30 273.67 301.84 273.57 C 302.19 273.83 302.89 274.35 303.24 274.61 C 304.15 280.12 304.98 285.76 304.80 291.33 C 302.18 292.46 299.33 292.89 296.57 293.53 C 295.93 291.74 295.73 289.86 296.00 287.98 C 296.41 284.65 295.66 281.12 297.03 277.95 Z" />
<path fill="#ffffff" opacity="1.00" d=" M 308.49 273.53 C 310.27 272.91 312.13 272.66 314.01 272.62 C 315.08 273.06 316.17 273.50 317.27 273.91 C 317.98 277.57 320.71 280.50 320.66 284.33 C 316.62 286.39 312.65 288.64 308.28 289.96 C 308.00 284.50 306.57 278.84 308.49 273.53 Z" />
<path fill="#ffffff" opacity="1.00" d=" M 284.44 277.33 C 286.44 275.94 289.10 275.10 291.50 275.88 C 293.05 281.70 292.42 287.69 292.56 293.64 C 288.99 293.48 285.15 291.56 284.11 287.91 C 283.10 284.53 282.94 280.56 284.44 277.33 Z" />
<path fill="#000000" opacity="1.00" d=" M 379.45 279.74 C 380.31 279.14 381.18 278.54 382.06 277.95 C 383.31 280.45 383.69 283.30 382.67 285.97 C 379.53 295.07 373.46 302.91 366.57 309.52 C 363.10 312.58 358.28 317.37 353.43 314.26 C 354.10 313.44 354.76 312.61 355.44 311.79 C 358.23 312.07 360.50 310.24 362.54 308.61 C 367.22 304.51 371.31 299.75 374.72 294.54 C 377.29 290.03 380.82 285.27 379.45 279.74 Z" />
<path fill="#000000" opacity="1.00" d=" M 410.71 289.23 C 411.11 288.47 411.92 286.94 412.32 286.17 C 414.45 288.23 414.02 291.27 413.33 293.87 C 410.14 305.45 404.54 316.17 398.78 326.66 C 389.65 342.46 378.96 357.61 365.47 370.00 L 360.50 370.00 C 380.51 352.22 395.15 329.05 405.97 304.74 C 407.84 299.67 410.27 294.69 410.71 289.23 Z" />
<path fill="#000000" opacity="1.00" d=" M 385.27 294.20 C 385.56 292.84 387.17 292.54 388.11 291.76 C 389.28 294.78 387.78 297.82 386.58 300.57 C 383.01 308.24 378.18 315.27 372.98 321.93 C 371.14 323.93 369.28 326.62 366.23 326.55 C 366.53 322.20 370.68 320.15 372.76 316.75 C 377.54 309.63 382.97 302.59 385.27 294.20 Z" />
<path fill="#000000" opacity="1.00" d=" M 285.87 361.78 C 290.57 360.66 294.13 364.92 298.77 364.80 C 300.88 364.56 303.25 365.07 304.11 367.24 C 299.09 369.85 293.62 367.08 288.79 365.39 C 287.38 364.56 286.46 363.27 285.87 361.78 Z" />
</svg>
