<?xml version="1.0" encoding="UTF-8" ?>
<!DOCTYPE svg PUBLIC "-//W3C//DTD SVG 1.1//EN" "http://www.w3.org/Graphics/SVG/1.1/DTD/svg11.dtd">
<svg width="318pt" height="275pt" viewBox="0 0 318 275" version="1.1" xmlns="http://www.w3.org/2000/svg">
<g id="#fefefeff">
<path fill="#fefefe" opacity="1.00" d=" M 117.18 119.93 C 121.40 118.76 125.59 117.34 129.95 116.78 C 135.74 116.15 141.22 118.69 146.97 118.75 C 151.63 118.82 156.29 118.67 160.96 118.81 C 175.33 119.53 189.76 118.92 204.10 120.31 C 210.84 120.61 217.64 121.40 223.98 123.83 C 231.03 126.51 237.65 130.17 244.51 133.29 C 258.10 139.59 269.95 149.10 280.30 159.83 C 285.39 165.06 287.84 172.12 289.95 178.95 C 294.06 193.19 295.65 208.22 294.15 222.99 C 291.71 240.58 287.46 257.87 282.85 275.00 L 32.47 275.00 C 30.71 265.75 29.03 256.48 27.67 247.16 C 26.62 229.47 26.37 211.72 26.59 193.99 C 26.51 185.43 28.65 176.62 33.76 169.64 C 37.90 164.14 43.76 160.34 48.89 155.85 C 54.59 151.47 59.99 146.62 66.22 142.96 C 75.69 137.63 85.62 133.15 95.16 127.96 C 101.98 124.04 109.69 122.14 117.18 119.93 M 204.65 147.60 C 198.77 148.71 194.79 153.74 191.08 158.01 C 187.19 163.42 182.59 168.98 181.97 175.88 C 181.59 179.03 182.67 182.13 182.76 185.27 C 179.99 180.59 177.32 175.87 174.97 170.97 C 170.46 165.01 162.82 162.47 155.83 160.70 C 148.78 158.72 142.19 163.44 137.60 168.31 C 133.82 165.62 133.22 160.24 129.48 157.44 C 125.23 154.29 120.07 152.62 115.01 151.29 C 108.77 152.20 102.59 153.78 96.57 155.69 C 92.36 157.88 88.66 161.07 85.38 164.47 C 82.47 169.73 81.56 175.82 79.84 181.52 C 78.47 186.03 79.42 190.85 81.53 194.97 C 75.32 196.80 69.23 198.98 63.08 200.96 C 62.05 201.46 60.37 201.44 60.26 202.91 C 64.87 209.96 67.70 219.17 75.87 223.03 C 84.53 226.37 93.86 227.64 103.08 228.16 C 112.94 226.76 122.50 223.74 131.96 220.71 C 143.84 218.33 156.03 220.53 167.69 223.05 C 173.29 224.06 178.31 227.07 183.96 227.85 C 187.46 228.55 191.02 227.88 194.51 227.41 C 208.98 224.65 222.75 219.26 236.60 214.36 C 241.72 212.66 246.51 210.14 251.12 207.35 C 254.88 205.01 259.02 202.84 261.50 199.02 C 259.45 193.92 254.81 190.52 250.03 188.18 C 246.07 178.14 241.18 168.46 235.98 159.01 C 233.98 155.41 231.58 151.65 227.46 150.25 C 220.18 147.72 212.30 146.85 204.65 147.60 Z" />
<path fill="#fefefe" opacity="1.00" d=" M 206.10 150.26 C 213.50 150.11 221.30 150.19 228.06 153.58 C 231.67 155.88 233.30 160.06 235.42 163.60 C 239.66 171.62 243.75 179.77 247.10 188.21 C 243.66 188.85 240.27 189.67 236.88 190.50 C 232.99 183.34 228.90 175.96 222.51 170.70 C 218.90 167.76 213.61 166.36 209.31 168.64 C 204.89 170.91 201.86 175.14 199.67 179.48 C 197.24 184.27 194.89 189.24 194.04 194.60 C 192.03 195.06 189.66 194.28 188.83 192.26 C 185.38 185.60 182.78 177.26 186.37 170.12 C 189.46 164.54 193.13 159.21 197.69 154.71 C 200.05 152.60 202.71 150.15 206.10 150.26 Z" />
<path fill="#fefefe" opacity="1.00" d=" M 99.85 157.44 C 104.15 156.27 108.49 155.22 112.85 154.31 C 115.46 153.68 117.96 155.01 120.38 155.79 C 123.90 157.23 127.99 158.60 129.94 162.14 C 131.57 165.08 133.60 167.81 134.94 170.91 C 131.72 175.13 129.55 180.08 125.98 184.03 C 122.82 179.03 119.39 173.91 114.28 170.72 C 110.46 168.34 105.27 168.96 102.02 172.02 C 96.21 177.30 93.60 184.95 91.10 192.16 C 88.74 192.57 86.45 193.24 84.14 193.85 C 82.75 191.01 81.23 187.87 81.88 184.63 C 82.85 180.05 84.28 175.58 85.52 171.08 C 86.33 168.69 87.06 166.05 89.13 164.43 C 92.45 161.76 95.60 158.52 99.85 157.44 Z" />
</g>
<g id="#000000ff">
<path fill="#000000" opacity="1.00" d=" M 160.64 28.43 C 165.38 25.34 168.14 20.21 172.47 16.67 C 174.06 18.69 176.07 20.61 176.68 23.21 C 177.87 28.07 176.98 33.10 176.79 38.02 C 176.62 44.59 176.33 51.17 176.11 57.74 C 184.26 56.79 191.75 52.69 200.03 52.62 C 213.73 52.19 228.15 51.22 240.87 57.38 C 246.10 60.04 252.53 63.04 254.21 69.19 C 255.56 80.42 255.42 91.76 255.58 103.05 C 254.47 112.79 247.16 119.82 241.45 127.16 C 258.39 134.40 273.40 145.73 285.61 159.46 C 291.41 167.20 293.95 176.80 296.03 186.10 C 298.12 194.96 298.89 204.07 299.04 213.15 C 298.14 234.23 292.32 254.67 287.13 275.00 L 282.85 275.00 C 287.46 257.87 291.71 240.58 294.15 222.99 C 295.65 208.22 294.06 193.19 289.95 178.95 C 287.84 172.12 285.39 165.06 280.30 159.83 C 269.95 149.10 258.10 139.59 244.51 133.29 C 237.65 130.17 231.03 126.51 223.98 123.83 C 217.64 121.40 210.84 120.61 204.10 120.31 C 189.76 118.92 175.33 119.53 160.96 118.81 C 156.29 118.67 151.63 118.82 146.97 118.75 C 141.22 118.69 135.74 116.15 129.95 116.78 C 125.59 117.34 121.40 118.76 117.18 119.93 C 109.69 122.14 101.98 124.04 95.16 127.96 C 85.62 133.15 75.69 137.63 66.22 142.96 C 59.99 146.62 54.59 151.47 48.89 155.85 C 43.76 160.34 37.90 164.14 33.76 169.64 C 28.65 176.62 26.51 185.43 26.59 193.99 C 26.37 211.72 26.62 229.47 27.67 247.16 C 29.03 256.48 30.71 265.75 32.47 275.00 L 28.35 275.00 C 26.89 269.46 26.33 263.74 25.14 258.15 C 22.94 247.58 22.79 236.74 22.56 225.99 C 22.43 213.99 22.02 201.99 22.45 189.99 C 23.07 182.87 24.88 175.68 28.72 169.58 C 34.12 160.88 43.15 155.50 50.75 148.96 C 49.03 132.71 47.70 116.39 47.51 100.04 C 47.65 92.62 47.42 84.92 50.04 77.86 C 54.11 69.80 60.31 63.03 66.57 56.62 C 72.89 50.85 79.40 44.86 87.48 41.71 C 101.01 37.16 116.00 34.83 129.95 38.84 C 135.54 40.27 140.10 43.96 144.54 47.46 C 143.39 40.62 142.43 33.75 141.80 26.84 C 142.08 26.32 142.64 25.26 142.92 24.73 C 149.07 23.87 155.34 25.21 160.64 28.43 M 97.78 42.82 C 91.87 44.38 85.74 46.02 80.83 49.83 C 71.28 56.82 62.84 65.40 56.18 75.19 C 51.70 81.10 51.70 88.94 51.65 96.02 C 51.45 108.77 52.17 121.51 53.37 134.21 C 66.25 126.17 78.52 117.03 92.21 110.35 C 99.53 106.41 107.87 105.21 115.86 103.29 C 134.05 99.81 152.38 96.31 170.97 96.31 C 177.65 95.88 184.35 96.07 191.04 96.32 C 200.10 96.29 209.22 96.31 218.17 97.86 C 224.97 99.42 231.47 102.05 238.07 104.26 C 241.85 106.00 246.40 105.99 249.55 108.98 C 253.12 103.20 251.06 96.33 251.32 89.99 C 251.54 83.60 250.85 77.23 250.48 70.86 C 250.25 67.67 247.16 65.83 244.82 64.15 C 237.57 59.47 229.01 56.77 220.37 56.50 C 212.75 56.18 205.12 56.31 197.52 56.76 C 193.12 57.07 189.08 59.00 184.81 59.92 C 181.36 60.94 177.70 61.11 174.29 62.26 C 169.95 64.52 166.27 67.83 162.25 70.59 C 156.76 64.81 150.98 59.31 145.42 53.60 C 140.33 48.95 134.83 44.34 128.09 42.36 C 118.16 39.79 107.71 40.75 97.78 42.82 Z" />
<path fill="#000000" opacity="1.00" d=" M 204.65 147.60 C 212.30 146.85 220.18 147.72 227.46 150.25 C 231.58 151.65 233.98 155.41 235.98 159.01 C 241.18 168.46 246.07 178.14 250.03 188.18 C 254.81 190.52 259.45 193.92 261.50 199.02 C 259.02 202.84 254.88 205.01 251.12 207.35 C 246.51 210.14 241.72 212.66 236.60 214.36 C 222.75 219.26 208.98 224.65 194.51 227.41 C 191.02 227.88 187.46 228.55 183.96 227.85 C 178.31 227.07 173.29 224.06 167.69 223.05 C 156.03 220.53 143.84 218.33 131.96 220.71 C 122.50 223.74 112.94 226.76 103.08 228.16 C 93.86 227.64 84.53 226.37 75.87 223.03 C 67.70 219.17 64.87 209.96 60.26 202.91 C 60.37 201.44 62.05 201.46 63.08 200.96 C 69.23 198.98 75.32 196.80 81.53 194.97 C 79.42 190.85 78.47 186.03 79.84 181.52 C 81.56 175.82 82.47 169.73 85.38 164.47 C 88.66 161.07 92.36 157.88 96.57 155.69 C 102.59 153.78 108.77 152.20 115.01 151.29 C 120.07 152.62 125.23 154.29 129.48 157.44 C 133.22 160.24 133.82 165.62 137.60 168.31 C 142.19 163.44 148.78 158.72 155.83 160.70 C 162.82 162.47 170.46 165.01 174.97 170.97 C 177.32 175.87 179.99 180.59 182.76 185.27 C 182.67 182.13 181.59 179.03 181.97 175.88 C 182.59 168.98 187.19 163.42 191.08 158.01 C 194.79 153.74 198.77 148.71 204.65 147.60 M 206.10 150.26 C 202.71 150.15 200.05 152.60 197.69 154.71 C 193.13 159.21 189.46 164.54 186.37 170.12 C 182.78 177.26 185.38 185.60 188.83 192.26 C 189.66 194.28 192.03 195.06 194.04 194.60 C 194.89 189.24 197.24 184.27 199.67 179.48 C 201.86 175.14 204.89 170.91 209.31 168.64 C 213.61 166.36 218.90 167.76 222.51 170.70 C 228.90 175.96 232.99 183.34 236.88 190.50 C 240.27 189.67 243.66 188.85 247.10 188.21 C 243.75 179.77 239.66 171.62 235.42 163.60 C 233.30 160.06 231.67 155.88 228.06 153.58 C 221.30 150.19 213.50 150.11 206.10 150.26 M 99.85 157.44 C 95.60 158.52 92.45 161.76 89.13 164.43 C 87.06 166.05 86.33 168.69 85.52 171.08 C 84.28 175.58 82.85 180.05 81.88 184.63 C 81.23 187.87 82.75 191.01 84.14 193.85 C 86.45 193.24 88.74 192.57 91.10 192.16 C 93.60 184.95 96.21 177.30 102.02 172.02 C 105.27 168.96 110.46 168.34 114.28 170.72 C 119.39 173.91 122.82 179.03 125.98 184.03 C 129.55 180.08 131.72 175.13 134.94 170.91 C 133.60 167.81 131.57 165.08 129.94 162.14 C 127.99 158.60 123.90 157.23 120.38 155.79 C 117.96 155.01 115.46 153.68 112.85 154.31 C 108.49 155.22 104.15 156.27 99.85 157.44 M 132.45 179.36 C 130.55 183.30 127.41 186.62 123.39 188.43 C 113.15 193.18 101.69 194.40 90.54 194.88 C 81.69 196.97 73.32 200.75 64.52 203.03 C 64.47 203.34 64.36 203.97 64.31 204.28 C 69.41 208.71 75.40 212.35 82.14 213.52 C 88.97 214.60 96.04 211.82 100.66 206.76 C 105.63 203.87 111.57 203.43 117.00 201.81 C 128.04 198.68 139.56 196.41 151.06 197.55 C 159.33 199.03 167.11 202.60 174.26 206.92 C 177.69 209.66 182.23 207.44 186.10 207.23 C 190.72 206.04 195.28 207.86 199.88 208.15 C 205.95 208.77 211.94 207.44 217.94 206.79 C 226.34 205.91 235.06 204.17 242.09 199.24 C 245.69 197.73 249.46 196.21 251.84 192.92 C 250.55 192.10 249.40 190.90 247.85 190.61 C 231.44 194.13 214.87 197.86 198.00 198.01 C 193.76 197.66 188.72 197.83 185.66 194.36 C 180.62 186.85 176.14 178.96 171.85 171.03 C 166.17 166.19 158.67 163.11 151.20 162.76 C 142.68 164.75 136.79 172.23 132.45 179.36 M 248.29 199.24 C 245.03 200.52 241.99 202.22 239.05 204.10 C 229.70 208.57 219.20 209.20 209.08 210.51 C 202.96 211.16 196.78 210.60 190.75 209.47 C 185.63 209.27 180.51 211.56 175.39 210.50 C 166.95 205.49 157.95 200.70 148.02 199.67 C 133.91 199.19 120.37 203.69 106.84 207.00 C 104.93 207.49 102.92 208.03 101.52 209.52 C 96.70 214.29 89.70 216.84 82.94 216.30 C 77.16 215.68 72.15 212.56 67.02 210.09 C 69.87 214.37 72.82 219.13 77.86 221.06 C 84.93 223.80 92.54 224.64 100.03 225.41 C 105.84 226.11 111.36 223.77 116.94 222.57 C 122.34 221.36 127.49 219.30 132.82 217.85 C 145.53 215.94 158.39 218.23 170.76 221.14 C 174.65 222.11 178.24 223.96 182.10 224.97 C 188.70 226.34 195.38 224.68 201.80 223.23 C 214.88 219.70 227.57 214.91 240.26 210.24 C 246.78 207.06 253.26 203.56 258.74 198.76 C 257.29 196.83 255.70 195.03 254.02 193.30 C 252.57 195.66 250.98 198.18 248.29 199.24 Z" />
</g>
<g id="#4570f0ff">
<path fill="#4570f0" opacity="1.00" d=" M 97.78 42.82 C 107.71 40.75 118.16 39.79 128.09 42.36 C 134.83 44.34 140.33 48.95 145.42 53.60 C 150.98 59.31 156.76 64.81 162.25 70.59 C 166.27 67.83 169.95 64.52 174.29 62.26 C 177.70 61.11 181.36 60.94 184.81 59.92 C 189.08 59.00 193.12 57.07 197.52 56.76 C 205.12 56.31 212.75 56.18 220.37 56.50 C 229.01 56.77 237.57 59.47 244.82 64.15 C 247.16 65.83 250.25 67.67 250.48 70.86 C 250.85 77.23 251.54 83.60 251.32 89.99 C 251.06 96.33 253.12 103.20 249.55 108.98 C 246.40 105.99 241.85 106.00 238.07 104.26 C 231.47 102.05 224.97 99.42 218.17 97.86 C 209.22 96.31 200.10 96.29 191.04 96.32 C 184.35 96.07 177.65 95.88 170.97 96.31 C 152.38 96.31 134.05 99.81 115.86 103.29 C 107.87 105.21 99.53 106.41 92.21 110.35 C 78.52 117.03 66.25 126.17 53.37 134.21 C 52.17 121.51 51.45 108.77 51.65 96.02 C 51.70 88.94 51.70 81.10 56.18 75.19 C 62.84 65.40 71.28 56.82 80.83 49.83 C 85.74 46.02 91.87 44.38 97.78 42.82 Z" />
</g>
<g id="#fec100ff">
<path fill="#fec100" opacity="1.00" d=" M 132.45 179.36 C 136.79 172.23 142.68 164.75 151.20 162.76 C 158.67 163.11 166.17 166.19 171.85 171.03 C 176.14 178.96 180.62 186.85 185.66 194.36 C 188.72 197.83 193.76 197.66 198.00 198.01 C 214.87 197.86 231.44 194.13 247.85 190.61 C 249.40 190.90 250.55 192.10 251.84 192.92 C 249.46 196.21 245.69 197.73 242.09 199.24 C 235.06 204.17 226.34 205.91 217.94 206.79 C 211.94 207.44 205.95 208.77 199.88 208.15 C 195.28 207.86 190.72 206.04 186.10 207.23 C 182.23 207.44 177.69 209.66 174.26 206.92 C 167.11 202.60 159.33 199.03 151.06 197.55 C 139.56 196.41 128.04 198.68 117.00 201.81 C 111.57 203.43 105.63 203.87 100.66 206.76 C 96.04 211.82 88.97 214.60 82.14 213.52 C 75.40 212.35 69.41 208.71 64.31 204.28 C 64.36 203.97 64.47 203.34 64.52 203.03 C 73.32 200.75 81.69 196.97 90.54 194.88 C 101.69 194.40 113.15 193.18 123.39 188.43 C 127.41 186.62 130.55 183.30 132.45 179.36 Z" />
<path fill="#fec100" opacity="1.00" d=" M 248.29 199.24 C 250.98 198.18 252.57 195.66 254.02 193.30 C 255.70 195.03 257.29 196.83 258.74 198.76 C 253.26 203.56 246.78 207.06 240.26 210.24 C 227.57 214.91 214.88 219.70 201.80 223.23 C 195.38 224.68 188.70 226.34 182.10 224.97 C 178.24 223.96 174.65 222.11 170.76 221.14 C 158.39 218.23 145.53 215.94 132.82 217.85 C 127.49 219.30 122.34 221.36 116.94 222.57 C 111.36 223.77 105.84 226.11 100.03 225.41 C 92.54 224.64 84.93 223.80 77.86 221.06 C 72.82 219.13 69.87 214.37 67.02 210.09 C 72.15 212.56 77.16 215.68 82.94 216.30 C 89.70 216.84 96.70 214.29 101.52 209.52 C 102.92 208.03 104.93 207.49 106.84 207.00 C 120.37 203.69 133.91 199.19 148.02 199.67 C 157.95 200.70 166.95 205.49 175.39 210.50 C 180.51 211.56 185.63 209.27 190.75 209.47 C 196.78 210.60 202.96 211.16 209.08 210.51 C 219.20 209.20 229.70 208.57 239.05 204.10 C 241.99 202.22 245.03 200.52 248.29 199.24 Z" />
</g>
</svg>
