<?xml version="1.0" encoding="UTF-8" ?>
<!DOCTYPE svg PUBLIC "-//W3C//DTD SVG 1.1//EN" "http://www.w3.org/Graphics/SVG/1.1/DTD/svg11.dtd">
<svg width="750pt" height="712pt" viewBox="0 0 750 712" version="1.1" xmlns="http://www.w3.org/2000/svg">
<g id="#090909ff">
<path fill="#090909" opacity="1.00" d=" M 0.00 0.00 L 0.13 0.00 C 0.10 0.03 0.03 0.08 0.00 0.10 L 0.00 0.00 Z" />
<path fill="#090909" opacity="1.00" d=" M 207.34 5.61 C 220.54 4.93 233.76 2.88 247.00 4.17 C 254.48 5.06 262.12 4.76 269.47 6.64 C 291.29 11.45 309.92 24.35 329.82 33.80 C 334.62 30.32 338.80 26.09 343.32 22.28 C 345.28 20.76 347.26 18.81 349.92 18.83 C 368.84 17.44 387.92 19.73 406.19 24.70 C 410.74 25.97 415.36 27.15 419.59 29.28 C 430.54 34.59 439.31 43.40 450.19 48.84 C 467.77 57.60 483.20 69.93 499.93 80.12 C 508.89 85.59 515.78 93.79 524.75 99.24 C 528.22 101.28 531.96 103.05 535.98 103.62 C 539.89 103.06 542.61 99.79 544.73 96.72 C 547.33 92.78 550.15 88.86 553.98 86.02 C 557.88 83.63 562.63 83.68 567.02 82.98 C 565.58 96.16 569.76 108.96 570.95 121.97 C 571.56 127.93 570.90 133.93 571.45 139.88 C 571.68 143.45 574.46 145.94 576.67 148.46 C 586.01 159.03 595.59 169.46 606.33 178.64 C 615.95 186.74 622.96 197.43 632.61 205.50 C 635.89 208.30 639.63 210.48 643.12 213.02 C 653.66 220.63 663.21 229.49 673.26 237.71 C 678.59 242.26 684.73 245.69 690.58 249.52 C 701.05 256.04 713.52 261.90 726.14 258.97 C 733.19 256.18 737.30 249.36 742.09 243.88 C 740.99 252.70 739.08 261.39 737.35 270.11 C 740.15 270.96 742.96 271.78 745.79 272.57 C 741.95 274.63 738.26 277.09 735.39 280.42 C 726.66 290.13 723.02 303.07 715.60 313.65 C 708.83 322.60 698.34 327.66 691.16 336.22 C 688.31 339.26 685.89 342.90 685.39 347.13 C 683.92 356.95 688.52 366.21 689.26 375.86 C 693.84 416.70 695.21 458.59 685.70 498.86 C 684.38 503.72 683.62 508.82 681.23 513.32 C 673.87 527.35 666.18 541.37 661.49 556.58 C 657.17 555.11 652.99 553.24 648.55 552.15 C 638.85 565.94 633.89 583.17 635.75 600.00 C 636.21 605.36 638.06 610.51 640.64 615.21 C 643.13 619.66 646.95 623.75 652.06 625.03 C 662.86 627.67 673.36 631.42 683.56 635.82 C 679.52 638.26 675.28 640.42 670.71 641.65 C 667.35 642.58 663.84 642.71 660.41 643.20 C 649.31 644.77 638.56 648.34 628.43 653.09 C 625.93 653.27 623.41 653.33 620.91 653.37 C 628.06 645.80 636.88 640.10 645.34 634.13 C 638.20 624.83 628.43 616.30 626.70 604.07 C 625.85 592.02 628.34 579.99 631.52 568.42 C 637.07 548.92 645.31 530.11 648.14 509.90 C 652.06 512.77 656.15 515.43 659.86 518.58 C 659.37 524.19 659.09 529.82 659.01 535.45 C 669.32 521.67 678.03 506.15 681.27 489.08 C 688.06 457.21 687.85 424.27 684.60 391.98 C 683.47 379.68 683.48 367.10 679.76 355.20 C 676.34 344.38 669.55 335.11 664.74 324.93 C 671.98 326.98 679.12 329.33 686.30 331.58 C 687.50 332.16 688.23 330.58 689.04 329.99 C 700.31 317.57 710.18 303.82 717.92 288.93 C 719.91 285.15 721.62 281.24 723.60 277.46 C 719.70 275.54 715.46 274.42 711.56 272.47 C 692.79 263.71 677.27 249.68 661.66 236.35 C 657.84 233.13 654.11 229.79 650.03 226.91 C 627.41 210.84 609.30 189.52 587.89 172.01 C 585.48 169.98 582.98 168.07 580.32 166.39 C 579.55 173.02 578.14 179.55 576.87 186.10 C 555.80 184.00 535.82 174.41 514.38 175.53 C 520.40 188.64 529.81 199.81 536.19 212.73 C 540.59 220.81 543.69 229.56 548.54 237.40 C 552.16 243.81 560.12 244.91 566.14 248.11 C 564.91 253.03 563.38 257.88 562.11 262.79 C 565.57 268.72 569.33 274.93 569.58 281.99 C 569.87 291.68 571.48 301.26 573.43 310.73 C 574.28 315.14 575.43 319.52 575.86 324.01 C 577.65 342.54 579.52 361.36 586.06 378.93 C 589.05 386.93 592.76 394.98 599.15 400.86 C 608.16 409.48 620.46 413.56 632.61 415.10 C 632.81 418.16 633.01 421.23 633.18 424.31 C 622.54 423.07 612.05 420.90 601.52 419.03 C 598.96 442.59 599.04 466.34 600.21 489.98 C 600.71 498.98 600.84 508.03 602.20 516.96 C 604.31 531.72 608.18 546.19 609.66 561.04 C 610.55 569.05 603.89 574.77 599.67 580.71 C 592.63 589.72 588.21 600.39 581.73 609.76 C 578.75 614.27 575.40 618.65 573.58 623.79 C 572.48 626.97 572.28 630.50 573.36 633.73 C 576.26 642.81 580.64 651.67 587.49 658.44 C 588.83 660.07 591.10 659.89 593.00 659.99 C 602.35 660.02 610.96 655.89 619.93 653.86 C 618.98 656.09 618.02 658.32 617.11 660.57 C 611.35 664.90 604.36 666.92 597.64 669.22 C 594.51 681.43 588.50 693.20 579.09 701.76 C 579.23 691.79 583.80 682.68 585.42 672.98 C 585.98 671.44 584.41 670.41 583.65 669.35 C 578.61 664.02 573.23 659.04 568.02 653.89 C 559.07 662.00 549.95 670.25 543.53 680.61 C 542.00 683.14 540.19 685.90 540.69 689.02 C 541.47 694.10 544.80 698.25 546.82 702.87 C 540.17 702.15 533.75 700.14 527.38 698.20 C 525.20 700.35 524.62 703.28 523.92 706.13 C 524.44 703.51 524.54 700.61 526.39 698.51 C 525.99 697.01 526.94 695.78 527.64 694.60 C 531.14 689.07 534.92 683.71 537.84 677.84 C 539.54 674.49 540.69 670.87 542.69 667.67 C 545.94 662.38 550.27 657.90 554.01 652.98 C 556.19 650.20 557.30 646.80 558.67 643.59 C 565.55 627.01 571.51 609.98 580.03 594.13 C 586.41 582.45 596.47 573.28 603.13 561.82 C 602.99 550.39 599.38 539.38 597.63 528.15 C 596.76 522.01 595.37 515.96 594.62 509.80 C 591.55 486.66 592.57 463.26 593.03 440.00 C 593.20 432.96 594.75 426.02 594.62 418.98 C 594.56 416.54 594.40 414.02 593.29 411.80 C 589.58 404.02 583.08 397.83 580.20 389.61 C 574.73 374.73 575.49 358.55 571.84 343.26 C 569.21 331.96 568.18 320.29 564.43 309.27 C 562.17 302.87 556.38 298.70 553.31 292.78 C 551.87 290.09 551.54 287.03 550.89 284.11 C 549.02 275.05 545.94 266.16 540.99 258.31 C 534.30 259.33 527.76 261.40 520.97 261.62 C 519.38 261.69 517.86 261.20 516.37 260.78 C 505.40 257.39 494.28 254.04 482.77 253.20 C 492.78 272.10 508.69 286.89 520.14 304.83 C 530.63 320.83 541.44 337.25 545.94 356.11 C 536.25 348.03 529.92 336.89 524.09 325.90 C 512.61 304.31 495.84 286.29 480.99 267.05 C 477.87 263.15 475.22 258.87 471.66 255.34 C 464.86 248.45 456.27 243.77 447.86 239.16 C 436.88 268.13 427.70 297.74 418.33 327.25 C 414.87 338.53 411.84 350.37 404.90 360.10 C 404.40 355.74 403.94 351.25 404.96 346.93 C 414.55 308.95 428.44 272.25 439.53 234.70 C 426.71 226.62 413.52 219.15 400.39 211.59 C 398.36 210.46 396.38 209.00 393.99 208.82 C 368.22 205.84 341.43 206.88 316.90 197.24 C 287.23 184.85 256.78 173.89 225.16 167.67 C 216.78 165.97 212.58 156.54 204.04 155.27 C 202.36 154.81 201.05 156.26 199.71 157.00 C 190.61 163.33 183.26 171.70 175.73 179.75 C 172.86 182.90 169.71 185.81 166.96 189.08 C 154.73 203.53 141.33 217.32 132.37 234.17 C 127.81 242.54 126.03 252.10 121.42 260.44 C 109.71 282.65 100.06 305.90 87.70 327.76 C 85.81 330.97 85.32 334.71 84.62 338.30 C 82.01 352.79 82.76 367.64 80.20 382.13 C 76.64 402.97 76.55 424.32 78.87 445.30 C 82.67 467.29 89.03 488.78 92.20 510.89 C 95.55 529.16 103.42 546.53 114.62 561.33 C 122.27 571.43 128.84 582.35 134.29 593.79 C 137.30 600.01 139.50 606.69 143.67 612.30 C 154.39 627.38 171.26 636.41 187.89 643.54 C 187.40 652.30 182.08 659.56 177.85 666.89 C 174.69 672.08 173.44 678.14 170.43 683.40 C 164.55 694.61 155.30 703.44 146.19 712.00 L 145.00 712.00 C 148.01 703.30 151.63 694.74 153.45 685.68 C 154.76 679.25 154.83 672.47 152.79 666.18 C 149.63 656.67 149.05 646.58 148.84 636.64 C 144.29 636.74 139.72 636.91 135.19 636.38 C 120.14 634.78 105.88 629.11 90.87 627.24 C 84.93 626.52 79.13 624.83 73.72 622.30 C 60.64 616.28 49.64 606.75 37.16 599.69 C 31.24 596.28 28.51 589.72 24.84 584.31 C 21.55 585.00 18.25 585.66 14.93 586.28 C 11.83 573.25 8.26 560.33 4.41 547.51 C 3.27 543.74 2.87 539.82 2.41 535.94 C 0.37 517.85 1.37 499.60 2.92 481.52 C 4.16 468.30 11.32 456.71 14.42 443.97 C 10.12 442.93 5.78 442.07 1.48 441.05 C 3.66 434.50 4.52 427.54 7.25 421.18 C 9.00 416.95 12.25 413.64 15.05 410.11 C 22.94 400.43 31.13 390.73 36.35 379.27 C 37.78 375.94 39.33 372.57 39.72 368.93 C 41.52 347.99 40.40 326.96 40.20 305.99 C 39.84 295.45 34.28 286.17 31.57 276.20 C 30.12 271.25 30.01 266.06 29.66 260.96 C 29.20 253.88 29.04 246.75 29.88 239.70 C 30.26 236.83 31.64 234.24 32.62 231.56 C 36.40 221.74 39.68 211.50 45.99 202.95 C 58.80 185.82 70.70 168.03 81.90 149.82 C 90.11 135.77 104.79 126.67 111.88 111.84 C 106.23 109.78 100.50 107.97 94.81 106.02 C 114.87 81.77 139.23 60.82 167.18 46.18 C 183.19 36.69 199.57 27.85 215.71 18.59 C 213.29 14.03 210.24 9.86 207.34 5.61 M 237.93 16.87 C 220.86 24.69 205.78 36.04 189.82 45.81 C 184.47 49.14 178.84 52.00 173.61 55.50 C 153.08 68.96 135.34 86.07 116.24 101.38 C 120.26 102.98 124.20 104.74 128.21 106.33 C 127.64 107.38 127.06 108.43 126.42 109.44 C 113.50 128.83 94.33 143.03 81.36 162.37 C 70.33 179.26 58.85 195.95 49.97 214.11 C 44.50 225.31 40.14 237.08 37.62 249.30 C 37.31 250.81 37.09 252.35 37.33 253.89 C 38.96 266.44 43.83 278.37 44.75 291.03 C 45.71 305.73 49.04 320.22 48.90 335.00 C 49.67 361.70 42.64 388.17 31.15 412.12 C 29.71 415.05 28.03 417.97 27.58 421.26 C 26.84 426.49 27.57 431.78 27.17 437.04 C 26.88 440.62 25.51 443.98 24.29 447.32 C 19.50 460.18 12.38 472.09 8.36 485.25 C 6.08 492.58 4.85 500.36 5.81 508.03 C 8.36 530.32 17.10 551.31 27.11 571.19 C 32.33 568.46 37.59 565.84 42.89 563.30 C 41.95 569.72 42.13 576.43 44.51 582.54 C 49.77 596.57 62.31 606.80 76.00 612.11 C 97.61 619.46 119.31 627.32 142.06 630.27 C 138.65 617.05 132.07 605.00 126.23 592.76 C 124.70 589.63 123.46 586.36 121.79 583.30 C 115.71 572.36 105.56 564.26 100.00 552.99 C 97.90 548.78 95.58 544.67 93.76 540.33 C 85.77 521.80 82.67 501.72 79.04 482.02 C 76.79 466.38 72.49 450.92 72.73 435.00 C 72.47 397.60 71.78 359.55 81.29 323.06 C 82.66 317.22 84.92 311.62 85.97 305.71 C 90.34 287.82 102.89 273.66 110.38 257.15 C 118.97 238.03 130.04 220.13 142.05 202.98 C 154.82 185.34 171.11 170.71 187.13 156.12 C 195.22 148.92 202.21 140.54 210.80 133.91 C 220.99 126.22 232.82 121.23 243.80 114.87 C 269.18 99.93 297.86 91.01 327.03 87.48 C 333.03 86.82 338.99 85.82 345.02 85.42 C 375.09 83.21 405.50 89.11 433.14 100.96 C 439.49 103.74 445.88 106.56 451.64 110.46 C 464.49 119.09 474.87 130.97 488.26 138.83 C 491.19 140.53 494.72 140.56 498.02 140.50 C 503.34 140.23 508.58 139.12 513.82 138.18 C 517.74 129.88 523.13 122.33 526.67 113.83 C 497.06 85.44 461.00 65.32 426.74 43.26 C 416.77 37.80 406.33 33.12 395.53 29.56 C 381.74 25.04 366.84 22.92 352.48 25.73 C 348.81 26.46 345.71 29.42 345.01 33.12 C 343.58 40.24 346.66 47.26 346.19 54.40 C 323.93 46.41 307.70 27.41 285.38 19.54 C 276.07 16.71 266.89 12.81 257.01 12.64 C 250.40 12.29 243.84 13.96 237.93 16.87 M 280.98 107.86 C 256.17 117.10 234.88 133.24 213.33 148.21 C 221.29 157.79 233.16 164.26 245.65 165.14 C 254.30 165.80 262.84 167.44 271.22 169.65 C 300.22 177.26 326.95 191.60 356.02 199.00 C 359.63 199.87 363.24 201.02 367.00 201.03 C 373.07 201.19 378.97 199.42 385.01 199.26 C 401.48 198.77 417.53 204.25 434.02 203.23 C 438.73 203.03 443.34 201.89 447.85 200.58 C 449.89 204.14 451.82 207.76 453.70 211.41 C 444.60 212.18 435.48 212.82 426.44 214.16 C 428.52 215.63 430.75 216.86 432.94 218.15 C 444.37 225.06 455.21 233.02 467.32 238.76 C 473.76 241.87 480.62 244.02 487.54 245.75 C 505.37 249.95 523.81 249.08 541.93 250.67 C 536.34 231.36 526.44 213.52 514.74 197.27 C 511.85 192.73 508.43 187.01 502.31 187.04 C 497.35 196.32 493.73 206.21 490.12 216.07 C 489.81 217.14 489.18 217.98 488.25 218.58 C 485.84 216.39 483.32 214.30 481.30 211.73 C 475.31 204.30 472.03 195.19 466.64 187.37 C 461.46 180.00 455.02 173.67 448.65 167.35 C 441.99 160.63 435.45 153.35 432.14 144.33 C 449.68 147.00 465.92 155.63 483.82 156.56 C 483.59 156.01 483.12 154.92 482.89 154.37 C 465.11 129.19 438.12 111.46 409.00 102.08 C 390.03 95.68 369.94 93.33 350.00 93.12 C 326.25 93.28 303.33 100.52 280.98 107.86 M 160.93 639.71 C 160.86 653.34 160.82 667.32 165.36 680.35 C 167.08 677.87 168.04 675.00 169.30 672.28 C 171.33 667.75 173.18 663.02 173.48 658.02 C 173.67 654.06 172.93 649.81 170.26 646.74 C 167.67 643.79 164.35 641.58 160.93 639.71 Z" />
<path fill="#090909" opacity="1.00" d=" M 173.36 303.43 C 193.63 319.21 207.76 341.09 225.99 358.94 C 227.57 360.55 229.73 361.33 231.74 362.25 C 244.78 368.02 259.03 370.66 271.74 377.25 C 273.63 378.28 275.83 379.05 277.11 380.90 C 278.65 383.10 279.38 385.74 280.32 388.24 C 263.48 382.56 247.16 375.45 230.36 369.66 C 223.97 367.45 217.87 363.93 213.51 358.68 C 201.58 344.55 191.13 328.90 176.55 317.25 C 162.36 348.81 158.42 383.52 150.58 416.90 C 147.89 417.31 145.17 417.51 142.46 417.68 C 148.85 382.78 157.39 348.26 168.20 314.47 C 169.37 310.56 170.99 306.77 173.36 303.43 Z" />
<path fill="#090909" opacity="1.00" d=" M 514.55 477.76 C 521.95 483.19 525.17 492.41 526.41 501.17 C 528.62 519.07 531.50 536.95 531.89 555.02 C 532.04 557.51 531.00 559.83 530.17 562.12 C 525.70 574.13 519.00 585.13 513.96 596.89 C 492.41 602.94 470.67 610.78 447.94 609.57 C 432.77 609.14 419.23 600.53 408.65 590.25 C 406.08 588.03 403.83 584.64 400.10 584.59 C 398.53 584.62 398.05 586.31 397.31 587.38 C 393.26 594.44 389.30 601.63 384.13 607.96 C 378.38 615.08 370.75 620.43 362.72 624.69 C 345.11 633.85 323.73 636.79 304.75 630.25 C 295.26 627.15 287.02 620.90 280.71 613.24 C 272.87 603.81 267.42 592.69 262.40 581.58 C 257.42 570.27 251.19 559.29 248.99 546.99 C 254.09 549.65 258.40 553.69 261.43 558.57 C 267.46 568.14 269.67 579.43 274.24 589.66 C 276.28 594.12 278.42 598.57 281.31 602.55 C 289.80 614.42 302.77 623.16 317.13 626.00 C 334.38 627.40 352.19 623.04 366.63 613.42 C 374.70 607.98 381.60 600.67 386.02 591.96 C 387.13 589.69 388.37 587.41 388.70 584.88 C 390.28 574.08 388.87 563.14 389.91 552.31 C 398.65 562.34 404.96 574.23 413.82 584.17 C 418.90 589.91 425.01 594.90 432.11 597.91 C 440.54 601.58 449.88 602.81 459.01 602.23 C 469.50 601.61 479.76 598.97 489.75 595.82 C 494.78 594.15 500.12 592.89 504.37 589.53 C 511.61 583.96 515.91 575.59 519.43 567.36 C 520.76 563.96 522.74 560.67 522.72 556.91 C 524.66 530.18 515.58 504.32 514.55 477.76 Z" />
<path fill="#090909" opacity="1.00" d=" M 522.81 706.79 C 523.09 706.62 523.64 706.30 523.92 706.13 C 523.61 708.07 523.72 710.12 523.04 712.00 L 522.55 712.00 C 522.41 710.26 522.12 708.43 522.81 706.79 Z" />
</g>
<g id="#ffffffff">
<path fill="#ffffff" opacity="1.00" d=" M 199.71 157.00 C 201.05 156.26 202.36 154.81 204.04 155.27 C 212.58 156.54 216.78 165.97 225.16 167.67 C 256.78 173.89 287.23 184.85 316.90 197.24 C 341.43 206.88 368.22 205.84 393.99 208.82 C 396.38 209.00 398.36 210.46 400.39 211.59 C 413.52 219.15 426.71 226.62 439.53 234.70 C 428.44 272.25 414.55 308.95 404.96 346.93 C 403.94 351.25 404.40 355.74 404.90 360.10 C 411.84 350.37 414.87 338.53 418.33 327.25 C 427.70 297.74 436.88 268.13 447.86 239.16 C 456.27 243.77 464.86 248.45 471.66 255.34 C 475.22 258.87 477.87 263.15 480.99 267.05 C 495.84 286.29 512.61 304.31 524.09 325.90 C 529.92 336.89 536.25 348.03 545.94 356.11 C 541.44 337.25 530.63 320.83 520.14 304.83 C 508.69 286.89 492.78 272.10 482.77 253.20 C 494.28 254.04 505.40 257.39 516.37 260.78 C 517.86 261.20 519.38 261.69 520.97 261.62 C 527.76 261.40 534.30 259.33 540.99 258.31 C 545.94 266.16 549.02 275.05 550.89 284.11 C 551.54 287.03 551.87 290.09 553.31 292.78 C 556.38 298.70 562.17 302.87 564.43 309.27 C 568.18 320.29 569.21 331.96 571.84 343.26 C 575.49 358.55 574.73 374.73 580.20 389.61 C 583.08 397.83 589.58 404.02 593.29 411.80 C 594.40 414.02 594.56 416.54 594.62 418.98 C 594.75 426.02 593.20 432.96 593.03 440.00 C 592.57 463.26 591.55 486.66 594.62 509.80 C 595.37 515.96 596.76 522.01 597.63 528.15 C 599.38 539.38 602.99 550.39 603.13 561.82 C 596.47 573.28 586.41 582.45 580.03 594.13 C 571.51 609.98 565.55 627.01 558.67 643.59 C 557.30 646.80 556.19 650.20 554.01 652.98 C 550.27 657.90 545.94 662.38 542.69 667.67 C 540.69 670.87 539.54 674.49 537.84 677.84 C 534.92 683.71 531.14 689.07 527.64 694.60 C 526.94 695.78 525.99 697.01 526.39 698.51 C 524.54 700.61 524.44 703.51 523.92 706.13 C 523.64 706.30 523.09 706.62 522.81 706.79 C 522.12 708.43 522.41 710.26 522.55 712.00 L 146.19 712.00 C 155.30 703.44 164.55 694.61 170.43 683.40 C 173.44 678.14 174.69 672.08 177.85 666.89 C 182.08 659.56 187.40 652.30 187.89 643.54 C 171.26 636.41 154.39 627.38 143.67 612.30 C 139.50 606.69 137.30 600.01 134.29 593.79 C 128.84 582.35 122.27 571.43 114.62 561.33 C 103.42 546.53 95.55 529.16 92.20 510.89 C 89.03 488.78 82.67 467.29 78.87 445.30 C 76.55 424.32 76.64 402.97 80.20 382.13 C 82.76 367.64 82.01 352.79 84.62 338.30 C 85.32 334.71 85.81 330.97 87.70 327.76 C 100.06 305.90 109.71 282.65 121.42 260.44 C 126.03 252.10 127.81 242.54 132.37 234.17 C 141.33 217.32 154.73 203.53 166.96 189.08 C 169.71 185.81 172.86 182.90 175.73 179.75 C 183.26 171.70 190.61 163.33 199.71 157.00 M 173.36 303.43 C 170.99 306.77 169.37 310.56 168.20 314.47 C 157.39 348.26 148.85 382.78 142.46 417.68 C 145.17 417.51 147.89 417.31 150.58 416.90 C 158.42 383.52 162.36 348.81 176.55 317.25 C 191.13 328.90 201.58 344.55 213.51 358.68 C 217.87 363.93 223.97 367.45 230.36 369.66 C 247.16 375.45 263.48 382.56 280.32 388.24 C 279.38 385.74 278.65 383.10 277.11 380.90 C 275.83 379.05 273.63 378.28 271.74 377.25 C 259.03 370.66 244.78 368.02 231.74 362.25 C 229.73 361.33 227.57 360.55 225.99 358.94 C 207.76 341.09 193.63 319.21 173.36 303.43 M 514.55 477.76 C 515.58 504.32 524.66 530.18 522.72 556.91 C 522.74 560.67 520.76 563.96 519.43 567.36 C 515.91 575.59 511.61 583.96 504.37 589.53 C 500.12 592.89 494.78 594.15 489.75 595.82 C 479.76 598.97 469.50 601.61 459.01 602.23 C 449.88 602.81 440.54 601.58 432.11 597.91 C 425.01 594.90 418.90 589.91 413.82 584.17 C 404.96 574.23 398.65 562.34 389.91 552.31 C 388.87 563.14 390.28 574.08 388.70 584.88 C 388.37 587.41 387.13 589.69 386.02 591.96 C 381.60 600.67 374.70 607.98 366.63 613.42 C 352.19 623.04 334.38 627.40 317.13 626.00 C 302.77 623.16 289.80 614.42 281.31 602.55 C 278.42 598.57 276.28 594.12 274.24 589.66 C 269.67 579.43 267.46 568.14 261.43 558.57 C 258.40 553.69 254.09 549.65 248.99 546.99 C 251.19 559.29 257.42 570.27 262.40 581.58 C 267.42 592.69 272.87 603.81 280.71 613.24 C 287.02 620.90 295.26 627.15 304.75 630.25 C 323.73 636.79 345.11 633.85 362.72 624.69 C 370.75 620.43 378.38 615.08 384.13 607.96 C 389.30 601.63 393.26 594.44 397.31 587.38 C 398.05 586.31 398.53 584.62 400.10 584.59 C 403.83 584.64 406.08 588.03 408.65 590.25 C 419.23 600.53 432.77 609.14 447.94 609.57 C 470.67 610.78 492.41 602.94 513.96 596.89 C 519.00 585.13 525.70 574.13 530.17 562.12 C 531.00 559.83 532.04 557.51 531.89 555.02 C 531.50 536.95 528.62 519.07 526.41 501.17 C 525.17 492.41 521.95 483.19 514.55 477.76 Z" />
</g>
<g id="#d1992aff">
<path fill="#d1992a" opacity="1.00" d=" M 237.93 16.87 C 243.84 13.96 250.40 12.29 257.01 12.64 C 266.89 12.81 276.07 16.71 285.38 19.54 C 307.70 27.41 323.93 46.41 346.19 54.40 C 346.66 47.26 343.58 40.24 345.01 33.12 C 345.71 29.42 348.81 26.46 352.48 25.73 C 366.84 22.92 381.74 25.04 395.53 29.56 C 406.33 33.12 416.77 37.80 426.74 43.26 C 461.00 65.32 497.06 85.44 526.67 113.83 C 523.13 122.33 517.74 129.88 513.82 138.18 C 508.58 139.12 503.34 140.23 498.02 140.50 C 494.72 140.56 491.19 140.53 488.26 138.83 C 474.87 130.97 464.49 119.09 451.64 110.46 C 445.88 106.56 439.49 103.74 433.14 100.96 C 405.50 89.11 375.09 83.21 345.02 85.42 C 338.99 85.82 333.03 86.82 327.03 87.48 C 297.86 91.01 269.18 99.93 243.80 114.87 C 232.82 121.23 220.99 126.22 210.80 133.91 C 202.21 140.54 195.22 148.92 187.13 156.12 C 171.11 170.71 154.82 185.34 142.05 202.98 C 130.04 220.13 118.97 238.03 110.38 257.15 C 102.89 273.66 90.34 287.82 85.97 305.71 C 84.92 311.62 82.66 317.22 81.29 323.06 C 71.78 359.55 72.47 397.60 72.73 435.00 C 72.49 450.92 76.79 466.38 79.04 482.02 C 82.67 501.72 85.77 521.80 93.76 540.33 C 95.58 544.67 97.90 548.78 100.00 552.99 C 105.56 564.26 115.71 572.36 121.79 583.30 C 123.46 586.36 124.70 589.63 126.23 592.76 C 132.07 605.00 138.65 617.05 142.06 630.27 C 119.31 627.32 97.61 619.46 76.00 612.11 C 62.31 606.80 49.77 596.57 44.51 582.54 C 42.13 576.43 41.95 569.72 42.89 563.30 C 37.59 565.84 32.33 568.46 27.11 571.19 C 17.10 551.31 8.36 530.32 5.81 508.03 C 4.85 500.36 6.08 492.58 8.36 485.25 C 12.38 472.09 19.50 460.18 24.29 447.32 C 25.51 443.98 26.88 440.62 27.17 437.04 C 27.57 431.78 26.84 426.49 27.58 421.26 C 28.03 417.97 29.71 415.05 31.15 412.12 C 42.64 388.17 49.67 361.70 48.90 335.00 C 49.04 320.22 45.71 305.73 44.75 291.03 C 43.83 278.37 38.96 266.44 37.33 253.89 C 37.09 252.35 37.31 250.81 37.62 249.30 C 40.14 237.08 44.50 225.31 49.97 214.11 C 58.85 195.95 70.33 179.26 81.36 162.37 C 94.33 143.03 113.50 128.83 126.42 109.44 C 127.06 108.43 127.64 107.38 128.21 106.33 C 124.20 104.74 120.26 102.98 116.24 101.38 C 135.34 86.07 153.08 68.96 173.61 55.50 C 178.84 52.00 184.47 49.14 189.82 45.81 C 205.78 36.04 220.86 24.69 237.93 16.87 Z" />
<path fill="#d1992a" opacity="1.00" d=" M 280.98 107.86 C 303.33 100.52 326.25 93.28 350.00 93.12 C 369.94 93.33 390.03 95.68 409.00 102.08 C 438.12 111.46 465.11 129.19 482.89 154.37 C 483.12 154.92 483.59 156.01 483.82 156.56 C 465.92 155.63 449.68 147.00 432.14 144.33 C 435.45 153.35 441.99 160.63 448.65 167.35 C 455.02 173.67 461.46 180.00 466.64 187.37 C 472.03 195.19 475.31 204.30 481.30 211.73 C 483.32 214.30 485.84 216.39 488.25 218.58 C 489.18 217.98 489.81 217.14 490.12 216.07 C 493.73 206.21 497.35 196.32 502.31 187.04 C 508.43 187.01 511.85 192.73 514.74 197.27 C 526.44 213.52 536.34 231.36 541.93 250.67 C 523.81 249.08 505.37 249.95 487.54 245.75 C 480.62 244.02 473.76 241.87 467.32 238.76 C 455.21 233.02 444.37 225.06 432.94 218.15 C 430.75 216.86 428.52 215.63 426.44 214.16 C 435.48 212.82 444.60 212.18 453.70 211.41 C 451.82 207.76 449.89 204.14 447.85 200.58 C 443.34 201.89 438.73 203.03 434.02 203.23 C 417.53 204.25 401.48 198.77 385.01 199.26 C 378.97 199.42 373.07 201.19 367.00 201.03 C 363.24 201.02 359.63 199.87 356.02 199.00 C 326.95 191.60 300.22 177.26 271.22 169.65 C 262.84 167.44 254.30 165.80 245.65 165.14 C 233.16 164.26 221.29 157.79 213.33 148.21 C 234.88 133.24 256.17 117.10 280.98 107.86 Z" />
<path fill="#d1992a" opacity="1.00" d=" M 580.32 166.39 C 582.98 168.07 585.48 169.98 587.89 172.01 C 609.30 189.52 627.41 210.84 650.03 226.91 C 654.11 229.79 657.84 233.13 661.66 236.35 C 677.27 249.68 692.79 263.71 711.56 272.47 C 715.46 274.42 719.70 275.54 723.60 277.46 C 721.62 281.24 719.91 285.15 717.92 288.93 C 710.18 303.82 700.31 317.57 689.04 329.99 C 688.23 330.58 687.50 332.16 686.30 331.58 C 679.12 329.33 671.98 326.98 664.74 324.93 C 669.55 335.11 676.34 344.38 679.76 355.20 C 683.48 367.10 683.47 379.68 684.60 391.98 C 687.85 424.27 688.06 457.21 681.27 489.08 C 678.03 506.15 669.32 521.67 659.01 535.45 C 659.09 529.82 659.37 524.19 659.86 518.58 C 656.15 515.43 652.06 512.77 648.14 509.90 C 645.31 530.11 637.07 548.92 631.52 568.42 C 628.34 579.99 625.85 592.02 626.70 604.07 C 628.43 616.30 638.20 624.83 645.34 634.13 C 636.88 640.10 628.06 645.80 620.91 653.37 C 623.41 653.33 625.93 653.27 628.43 653.09 C 624.61 655.50 620.87 658.05 617.11 660.57 C 618.02 658.32 618.98 656.09 619.93 653.86 C 610.96 655.89 602.35 660.02 593.00 659.99 C 591.10 659.89 588.83 660.07 587.49 658.44 C 580.64 651.67 576.26 642.81 573.36 633.73 C 572.28 630.50 572.48 626.97 573.58 623.79 C 575.40 618.65 578.75 614.27 581.73 609.76 C 588.21 600.39 592.63 589.72 599.67 580.71 C 603.89 574.77 610.55 569.05 609.66 561.04 C 608.18 546.19 604.31 531.72 602.20 516.96 C 600.84 508.03 600.71 498.98 600.21 489.98 C 599.04 466.34 598.96 442.59 601.52 419.03 C 612.05 420.90 622.54 423.07 633.18 424.31 C 633.01 421.23 632.81 418.16 632.61 415.10 C 620.46 413.56 608.16 409.48 599.15 400.86 C 592.76 394.98 589.05 386.93 586.06 378.93 C 579.52 361.36 577.65 342.54 575.86 324.01 C 575.43 319.52 574.28 315.14 573.43 310.73 C 571.48 301.26 569.87 291.68 569.58 281.99 C 569.33 274.93 565.57 268.72 562.11 262.79 C 563.38 257.88 564.91 253.03 566.14 248.11 C 560.12 244.91 552.16 243.81 548.54 237.40 C 543.69 229.56 540.59 220.81 536.19 212.73 C 529.81 199.81 520.40 188.64 514.38 175.53 C 535.82 174.41 555.80 184.00 576.87 186.10 C 578.14 179.55 579.55 173.02 580.32 166.39 Z" />
<path fill="#d1992a" opacity="1.00" d=" M 160.93 639.71 C 164.35 641.58 167.67 643.79 170.26 646.74 C 172.93 649.81 173.67 654.06 173.48 658.02 C 173.18 663.02 171.33 667.75 169.30 672.28 C 168.04 675.00 167.08 677.87 165.36 680.35 C 160.82 667.32 160.86 653.34 160.93 639.71 Z" />
<path fill="#d1992a" opacity="1.00" d=" M 543.53 680.61 C 549.95 670.25 559.07 662.00 568.02 653.89 C 573.23 659.04 578.61 664.02 583.65 669.35 C 584.41 670.41 585.98 671.44 585.42 672.98 C 583.80 682.68 579.23 691.79 579.09 701.76 C 568.32 701.69 557.59 702.93 546.82 702.87 C 544.80 698.25 541.47 694.10 540.69 689.02 C 540.19 685.90 542.00 683.14 543.53 680.61 Z" />
</g>
</svg>
