<?xml version="1.0" encoding="utf-8"?>
<!-- Generator: Adobe Illustrator 15.1.0, SVG Export Plug-In . SVG Version: 6.00 Build 0)  -->
<!DOCTYPE svg PUBLIC "-//W3C//DTD SVG 1.1//EN" "http://www.w3.org/Graphics/SVG/1.1/DTD/svg11.dtd">
<svg version="1.1" id="Layer_1" xmlns="http://www.w3.org/2000/svg" xmlns:xlink="http://www.w3.org/1999/xlink" x="0px" y="0px"
	 width="500px" height="570px" viewBox="0 0 500 570" enable-background="new 0 0 500 570" xml:space="preserve">
<g>
	<g>
		<path fill="#FFFFFF" d="M27.864,31.756h441.028v114.641c-24.689,0.052-49.387-0.062-74.075,0.018
			c-5.239,0.07-10.532-0.397-15.709,0.67c0.044-0.988,0.097-1.967,0.15-2.937c-0.185-0.221-0.547-0.653-0.723-0.873
			c2.487-2.673,1.993-6.342,1.641-9.659c0.406-0.865,0.829-1.72,1.244-2.576c-10.461-11.979-21.698-23.56-35.467-31.754
			c-3.493-1.641-6.615-3.908-9.835-6.016c-6.88-3.652-13.795-7.498-21.417-9.333c-7.533-4.189-15.841-6.739-24.177-8.776
			c-2.937-0.758-6.165-0.176-8.882-1.755c-4.587-2.267-9.747-2.778-14.695-3.828c-4.948-1.032-10.002-1.703-15.065-1.297
			c-3.387,0.379-6.307-1.834-9.641-2.029c-9.35-1.041-18.868-1.729-28.19-0.22c-6.431-1.323-13.02-0.935-19.52-0.477
			c-4.763,0.424-9.65,0.573-14.184,2.258c-1.703,0.653-3.528,0.309-5.292,0.292c-6.598-0.282-12.975,1.667-19.396,2.823
			c-5.257,0.837-9.958,3.749-15.356,3.819c-8.909,2.214-17.783,4.939-26.021,9.059c-18.303,6.112-34.585,16.927-49.528,28.949
			c-5.892,5.945-11.361,12.296-16.794,18.656c2.558,4.278,3.387,9.667,7.771,12.657c0.468,0.432,0.944,0.873,1.412,1.306
			c1.394,1.305,2.734,2.708,4.384,3.696c1.579-0.327,2.655-1.641,3.872-2.584c10.285,17.544,21.681,34.417,32.46,51.671
			c26.761,41.553,53.514,83.116,80.267,124.678c0.564,1.297,1.737-0.062,2.329-0.582c-0.186,3.396,2.02,6.201,2.955,9.341
			c0.874,1.702,1.094,4.41,3.414,4.719c0.212,1.834,0.653,3.661,1.861,5.107c0.203,5.416,0.838,11.158-1.702,16.168
			c-2.1,4.473-3.555,9.138-4.455,13.989c0.732,0.653,1.508,1.253,2.329,1.817c1.799-0.115,2.832-1.799,4.066-2.884
			c-0.105,1.323-0.158,2.655-0.167,3.987c0.609,0.097,1.844,0.291,2.461,0.388c-0.062-2.391-0.229-4.79-0.018-7.171
			c1.562-2.831,3.105-5.874,5.698-7.912c3.219-4.958,7.25-9.324,10.523-14.236c1.632,0.035,3.281-0.026,4.913,0.203
			c3.669,4.931,6.342,10.523,8.159,16.389c2.267,4.613,2.523,9.782,3.229,14.792c1.438,5.654,1.703,11.538,1.605,17.359
			c-0.08,3.079,0.423,6.298-0.776,9.235c-3.069-0.036-6.245,0.361-9.173-0.759c-4.401-1.482-8.812,0.494-13.001,1.737
			c-2.761,1.05-5.777,0.9-8.583,1.756c-3.352,1.878-5.363,5.292-7.4,8.423c-0.036,0.327-0.098,0.997-0.133,1.323
			c-0.291-0.459-0.582-0.917-0.864-1.367c-1.914-0.97-3.731-2.152-5.742-2.911c-5.513-0.529-11.996-0.617-16.106,3.723
			c-2.002,2.62-4.075,5.204-5.795,8.018c-1.385,3.219-2.479,6.554-3.863,9.782c-1.262,8.423-1.923,17.297,0.652,25.571
			c1.385,4.366,6.192,5.76,9.509,8.327c3.996,3.228,9.367,3.378,13.681,5.963c3.352,1.782,7.418,3.501,11.087,1.552
			c-0.282-1.235,0.335-3.352-1.42-3.678c-5.707-1.57-10.963-4.357-16.644-5.998c-2.734-0.829-4.746-2.981-7.083-4.499
			c-1.676-1.235-3.784-2.276-4.454-4.401c-1.958-6.325-1.464-13.037-0.635-19.502c1.561-6.889,5.063-13.274,9.888-18.409
			c1.729-1.111,3.846-1.438,5.857-1.632c3.934-0.45,7.057,2.443,10.708,3.343c-0.618,1.623-1.685,3.317-0.935,5.107l0.158,0.362
			c-0.079,0.185-0.247,0.556-0.326,0.741c-2.108,6.219-1.067,12.887-1.35,19.326c-0.344,3.563,1.844,6.589,3.061,9.773
			c1.791,4.446,6.033,7.092,9.817,9.676c-2.567,2.355,0.812,0.591,1.518,0.714c4.445,0.406,7.303,4.252,11.219,5.857
			c2.929,0.459,5.893,0.714,8.848,1.032c1.199,1.129,2.602,2.408,4.339,1.455c1.632-1.631,1.385-5.169-1.076-5.866
			c-2.963-1.182-6.253-0.891-9.35-1.429c-3.14-0.891-5.31-3.607-8.353-4.701c-4.005-1.403-7.824-3.59-10.902-6.483
			c-1.667-3.784-4.357-7.489-4.04-11.802c0.07-7.851-0.388-16.053,2.751-23.437c6.986,0.088,13.963,0.018,20.94,0.08
			c3.272,0.141,6.369-1.27,9.155-2.849c4.19-3.996,8.053-8.662,9.685-14.324c1.076-13.02-0.608-26.047-3.325-38.767
			c-2.143-6.086-4.102-12.269-7.348-17.888c2.788,1.138,4.957,3.326,7.718,4.517c3.458,1.481,6.828,3.175,10.276,4.684
			c-0.009,6.421,0.256,12.904-0.688,19.229c1.994,1.932,4.366,3.669,7.074,4.428c3.219,0.185,6.474,0.264,9.694-0.062
			c2.39-1.033,4.445-2.752,6.218-4.64c1.799-1.817,1.244-4.851-0.344-6.615c-2.125-2.452-2.743-5.787-4.798-8.283
			c-3.96-5.433-10.126-8.565-14.651-13.442c-0.353-1.809-0.203-3.669-0.256-5.504c0.45-0.167,1.341-0.502,1.791-0.67
			c4.358-5.213,9.747-9.941,11.987-16.547c1.341-3.52,1.103-7.427,2.426-10.955c29.134-45.32,58.418-90.579,87.438-135.987
			c7.013-10.223,13.116-21.055,20.058-31.331c0.644,0.847,1.288,1.711,1.958,2.549c-0.891,1.173-0.344,2.646,0.917,3.281
			c2.311,0.529,4.728,0.467,7.092,0.344c0.106-1.279,0.062-2.567,0.018-3.845c1.103-1.227,2.231-2.443,3.369-3.652
			c0.838,2.522,1.879,5.036,2.082,7.718c0.185,39.472-0.212,78.988,0.211,118.451c-4.058,0.538-8.194,0.211-12.27,0.714
			c0.229,0.282,0.697,0.847,0.935,1.129c-0.008,0.697-0.008,1.385,0,2.082c4.367,0.105,8.362,1.923,12.393,3.396
			c1.429,1.42,2.523,3.979,4.887,3.749c11.467-0.159,23.013,0.979,34.4-0.67c3.651,0.211,7.312,1.323,10.963,0.379
			c5.301-0.714,10.206-3.546,15.63-3.37c3.44-0.026,6.704-1.252,10.091-1.729c0.873-12.534,0.247-25.112,0.441-37.664
			c0.079-11.484-0.027-22.968,0.018-34.453c0.062-1.253-0.044-3.378,1.755-3.378c3.502-0.344,7.03-0.018,10.541-0.097v195.852
			c-17.059-0.221-34.109,0.053-51.168-0.053c-5.583-0.088-11.194,0.335-16.75-0.424c-0.141,4.366,0.018,8.75-0.229,13.116
			c-0.988,0.759-2.788,1.041-2.902,2.532c0.097,3.167,0.926,6.342,0.256,9.526c-0.794,4.04-0.389,8.256-1.703,12.199
			c-0.45,1.446-0.635,2.955-0.768,4.472c1.773,0,3.537-0.035,5.319-0.035c-0.785-4.049-0.511-8.15,0.353-12.155
			c22.528-0.106,45.064-0.008,67.592-0.079v109.339H27.864V31.756z M312.451,270.414c-0.874,2.073-0.521,4.393-0.608,6.589
			c0.114,8.53-0.229,17.077,0.229,25.598c1.306-1.041,2.029-2.558,2.814-3.996c2.963-1.631,5.927-3.749,7.162-7.047
			c1.244-0.865,2.117-2.082,2.682-3.476c2.487-2.62,5.178-5.38,6.024-9.015c0.502,0.485,1.014,0.979,1.526,1.464
			c3.149-1.711,5.866-4.066,8.591-6.359c2.188-1.35,4.79-1.843,7.127-2.884c-0.265-0.265-0.803-0.794-1.076-1.05
			c-8.971,0.882-18.073,0.265-27.105,0.502C317.346,270.97,314.832,269.312,312.451,270.414z M443.145,285.568
			c-3.432,0.812-6.801,2.161-10.391,1.923c-8.723-0.309-17.491,0.591-26.179-0.494c-0.229,0.22-0.688,0.67-0.926,0.891
			c-0.3,8.115-0.291,16.256-0.291,24.38c-0.3,1.949,1.976,2.558,3.475,2.62c15.013-0.098,30.034-0.027,45.038-0.009
			c1.632,0.185,2.893-0.935,2.708-2.611c-0.009-8.521,0.062-17.05-0.009-25.571c0.098-1.438-0.873-2.549-1.631-3.643
			C451.074,284.209,447.043,284.58,443.145,285.568z M288.441,330.897c-0.494,1.808-0.485,4.163,1.297,5.283
			c2.381,1.914,5.962,1.217,8.115,3.466c0.009,1.764-2.188,2.373-2.426,4.084c0.027-0.423,0.08-1.27,0.106-1.685
			c-1.394-0.052-2.276,0.512-2.646,1.667c-0.256-1.764-1.703-3.184-2.946-4.34c-0.6,0.194-1.782,0.591-2.382,0.785
			c0.044,0.423,0.132,1.261,0.176,1.676c3.21,5.231,13.981,4.005,13.257-3.167c-1.773-4.331-7.25-3.343-10.258-6.209
			c1.579-2.549,5.848-2.488,6.58,0.688c1.014,0.053,2.029,0.106,3.061,0.159C300.075,327.465,291.149,326.23,288.441,330.897z
			 M308.658,328.374c-6.756,1.659-7.665,12.279-1.773,15.56c2.964,1.491,6.854,1.438,9.509-0.688
			c3.502-3.334,3.616-9.482,0.353-13.01C314.567,328.356,311.437,327.545,308.658,328.374z M321.58,328.206
			c0.309,5.548,0.167,11.114,0.176,16.68c1.023-0.026,2.055-0.044,3.087-0.062c0.248-4.393-0.247-8.848,0.626-13.187
			c0.344,4.022,1.667,7.85,2.223,11.837c-0.044,2.002,2.408,1.244,3.688,1.394c0.908-4.384,1.438-8.899,2.972-13.125
			c-0.07,4.383,0.035,8.776,0.15,13.168c0.785,0.018,2.346,0.044,3.123,0.062c0.044-5.627,0.018-11.255,0.009-16.874
			c-1.693,0.018-3.387,0.044-5.072,0.124c-0.768,4.093-1.967,8.088-2.726,12.19c-1.5-3.952-2.09-8.177-3.079-12.27
			C325.029,328.127,323.3,328.145,321.58,328.206z M340.879,328.162c-0.035,5.592,0.018,11.176-0.018,16.768
			c4.269-0.053,8.547-0.026,12.816-0.009c-0.079-0.847-0.123-1.685-0.238-2.514c-3.087-0.088-6.174,0.009-9.252-0.035
			c-0.027-1.808-0.044-3.625-0.07-5.433c2.875-0.018,5.751-0.018,8.635-0.044c-0.009-0.635-0.018-1.923-0.018-2.567
			c-2.885,0-5.769,0.009-8.645-0.123c-0.009-1.112-0.017-2.214-0.035-3.317c3.034-0.256,6.077-0.15,9.121-0.203
			c0.088-0.617,0.264-1.844,0.353-2.452C349.312,328.056,345.095,328.109,340.879,328.162z M355.936,328.162
			c-0.036,0.635-0.106,1.896-0.141,2.532c1.694,0.009,3.396,0.009,5.107,0c-0.105,4.71,0.009,9.412-0.097,14.122
			c1.05-0.009,2.108-0.018,3.167-0.026c0.062-4.693,0.053-9.385,0.027-14.069c1.632-0.009,3.263,0.018,4.904,0
			c0.009-0.617,0.018-1.861,0.026-2.487C364.598,328.003,360.267,328.18,355.936,328.162z M370.755,328.127
			c0.052,5.583,0.017,11.167-0.009,16.75c0.768-0.009,2.293-0.035,3.052-0.044c0.362-2.417,0.062-4.877,0.08-7.303
			c2.302-0.018,4.613,0,6.916,0.018c-0.009,2.417-0.062,4.842-0.185,7.268c1.12,0.009,2.24,0.018,3.369,0.018
			c0.018-5.548-0.053-11.105,0.026-16.653c-0.803-0.027-2.408-0.062-3.22-0.088c-0.008,2.284-0.008,4.578,0.036,6.862
			c-2.302,0.124-4.613,0.124-6.924,0.062c0.018-2.302,0.027-4.596,0.018-6.889C373.118,328.127,371.54,328.127,370.755,328.127z
			 M386.993,328.145c0.062,5.575,0.018,11.14,0.018,16.715c1.059,0,2.117,0,3.184,0.018c-0.088-5.566-0.07-11.132,0-16.689
			C389.127,328.171,388.061,328.153,386.993,328.145z M393.167,328.136c0.027,5.566,0.027,11.123-0.009,16.68
			c0.767,0.035,2.311,0.115,3.078,0.15c0.098-3.59-0.079-7.18,0.036-10.77c2.62,3.176,4.384,6.995,6.474,10.541
			c1.182,0.097,2.373,0.203,3.563,0.309c0.044-5.636,0-11.273,0.018-16.909c-0.794-0.009-2.39-0.018-3.193-0.026
			c-0.018,3.775-0.018,7.55,0.036,11.334c-2.417-3.652-4.596-7.462-6.73-11.282C395.346,328.153,394.252,328.145,393.167,328.136z
			 M409.874,332.661c-1.499,3.978-0.617,9.791,3.854,11.423c-0.353,0.485-1.067,1.446-1.42,1.932
			c0.477,0.661,0.961,1.332,1.456,2.002c1.314-0.344,2.637-0.679,3.969-1.014c-0.644-0.124-1.932-0.379-2.576-0.502
			c-0.009-0.459-0.009-1.376-0.018-1.844c3.149,0.917,6.307-0.406,9.262-1.42c0.124-2.549,0.114-5.089,0.15-7.629
			c-2.179,0.044-4.349,0.035-6.51-0.15c1.358-0.732,2.778-1.341,4.199-1.949c0.803-0.538,1.561-1.121,2.275-1.756
			C421.42,326.424,412.326,326.998,409.874,332.661z M433.222,330.535c1.693,0.229,3.414,0.238,5.143,0.194
			c0,4.667,0.071,9.341-0.071,14.016c1.058,0.053,2.117,0.098,3.193,0.142c0-4.684,0.018-9.359-0.044-14.042
			c1.693-0.035,3.405-0.106,5.107-0.22c-0.088-0.847-0.176-1.694-0.264-2.532c-4.252,0.062-8.503,0.044-12.746,0.026
			C433.425,328.921,433.319,329.732,433.222,330.535z M447.899,334.151c-0.565,0.211-1.12,0.432-1.667,0.653
			c0.3,0,0.891-0.018,1.191-0.026c0.071,2.39,0.194,4.957,1.649,6.977c3.131,4.736,11.608,4.208,13.76-1.208
			c1.085-3.167,1.085-7.074-1.076-9.817C457.831,326.099,448.878,327.765,447.899,334.151z M288.238,355.479
			c0.07,5.565,0.07,11.131,0,16.697c3.846-0.185,8.194,0.997,11.573-1.438c3.158-3.361,3.202-8.865,0.917-12.71
			C297.747,354.104,292.428,355.806,288.238,355.479z M310.219,355.594c-5.565,1.173-7.197,8.15-4.922,12.728
			c2.329,4.684,9.615,5.301,12.984,1.464c2.364-2.867,2.584-7.163,0.988-10.426C317.628,356.15,313.597,354.835,310.219,355.594z
			 M329.078,355.585c0.238,5.495,0.15,11.008,0.053,16.512c1.067,0.07,2.144,0.15,3.228,0.229c-0.018-2.522,0.009-5.045,0.053-7.568
			c2.223,0.053,4.454,0.053,6.677-0.088c0.124,2.549,0.124,5.107,0.009,7.665c1.12-0.08,2.249-0.159,3.369-0.238
			c-0.167-5.495-0.132-10.991,0.009-16.486c-1.112-0.097-2.205-0.194-3.299-0.282c0,2.32-0.018,4.64-0.062,6.959
			c-2.24,0.026-4.481,0.026-6.721,0.062c-0.018-2.32-0.026-4.64,0.044-6.951C331.309,355.453,330.189,355.515,329.078,355.585z
			 M345.942,355.382c0.026,5.637,0,11.273,0.018,16.909c4.181-0.088,8.362-0.009,12.543-0.08c0.026-0.635,0.088-1.905,0.124-2.549
			c-3.185-0.018-6.36,0-9.535-0.035c0-1.791,0-3.572-0.009-5.345c2.813-0.071,5.636-0.071,8.458-0.044
			c0.098-0.626,0.291-1.878,0.379-2.505c-2.946-0.124-5.892-0.124-8.838-0.097c0-1.191-0.009-2.382-0.009-3.564
			c3.087-0.062,6.174-0.026,9.27-0.088c0.018-0.609,0.044-1.826,0.062-2.435C354.251,355.33,350.097,355.524,345.942,355.382z
			 M361.422,355.515c0.088,5.566,0.115,11.132-0.018,16.697c1.085,0,2.179-0.008,3.272,0c-0.027-2.293-0.035-4.586-0.132-6.871
			c4.287-0.741,5.592,4.41,7.965,6.968c1.27-0.053,2.54-0.115,3.811-0.159c-1.738-2.505-3.316-5.142-5.451-7.33
			c4.631,0.141,5.636-7.56,1.367-8.883C368.752,354.897,365.004,355.717,361.422,355.515z M378.217,355.524
			c0.053,5.574,0.035,11.14-0.026,16.714c4.243-0.044,8.476,0.071,12.719-0.07c-0.008-0.617-0.044-1.844-0.053-2.461
			c-3.157-0.07-6.315-0.044-9.473-0.044c-0.018-1.817-0.018-3.625,0.009-5.433c2.858,0,5.725,0.009,8.591-0.088
			c0.018-0.591,0.053-1.773,0.062-2.364c-2.893-0.185-5.795-0.167-8.697-0.141c0-1.218,0.008-2.435,0.018-3.644
			c3.078,0.044,6.166,0.088,9.252-0.079c-0.009-0.838-0.009-1.676,0-2.505C386.481,355.515,382.345,355.4,378.217,355.524z"/>
	</g>
	<path fill="#FFFFFF" d="M215.839,93.774c10.576-0.115,21.435-0.512,31.675,2.567c2.329-0.133,4.675-0.768,7.013-0.159
		c7.25,1.323,14.765,1.703,21.716,4.322c-0.723,7.991-2.479,15.921-3.634,23.895c-7.383,45.268-14.942,90.508-22.369,135.766
		c-0.997,7.25-2.214,14.466-3.493,21.672c-1.72-1.676-3.652-3.149-5.133-5.046c-0.944-1.834-0.468-3.978-0.476-5.954
		c0.538-8.221,0.697-16.459,1.244-24.688c0.388-19.141,1.922-38.237,2.267-57.378c1.412-23.78,2.082-47.613,3.282-71.411
		c0.193-7.004,0.926-13.998,0.661-21.011c-1.456,2.638-0.635,5.777-0.909,8.653c-0.741,13.778-1.57,27.573-1.755,41.377
		c-1.474,23.507-2.038,47.058-3.29,70.573c-0.803,19.432-1.491,38.863-2.603,58.277c-2.399-2.399-5.918-3.21-8.406-5.31
		c-0.441-4.304-0.794-8.626-1.146-12.939c-4.437-50.692-9.412-101.331-13.893-152.022
		C216.139,101.245,215.575,97.522,215.839,93.774z"/>
	<path fill="#FFFFFF" d="M155.065,99.763c7.718-1.958,15.63-3.061,23.524-4.049c1.508,26.286,2.188,52.615,3.599,78.9
		c0.829,19.114,1.429,38.246,2.593,57.343c0.397,12.128,0.724,24.265,1.553,36.367c0.256,3.22,0.388,6.439,0.608,9.658
		c-1.773,2.135-3.643,4.181-5.654,6.095c-1.288-7.348-2.443-14.721-3.555-22.096c-8.768-53.381-17.597-106.764-26.391-160.128
		c0.379-0.018,1.138-0.044,1.517-0.062l-1.888-0.221C152.208,100.716,153.601,100.116,155.065,99.763z"/>
	<g>
		<path fill="#FFFFFF" d="M213.14,271.561c1.474-0.212,2.894-0.662,4.349-0.979c3.616,0.97,7.55,0.714,10.99,2.399
			c4.031,1.5,7.947,3.546,10.823,6.836c8.45,6.58,13.116,17.376,13.001,28.005c0.168,1.878-0.855,3.52-1.438,5.239l1.949-0.715
			c-0.882,2.567-1.199,5.284-2.257,7.798c0.247,3.449-2.293,6.174-4.234,8.732c-1.093,1.243-1.711,3.396-3.74,3.228
			c-1.367,1.579-2.267,3.52-3.528,5.178c-0.212-0.238-0.635-0.715-0.847-0.953c-2.937,3.466-7.479,4.587-11.432,6.448
			c-2.443,1.297-5.513-2.399-7.224,0.803c-1.57,0.088-3.14,0.132-4.71,0.15c-0.273-0.3-0.82-0.882-1.093-1.173
			c-1.429-0.097-2.85-0.185-4.27-0.264c-0.15-0.538-0.441-1.632-0.582-2.179c-2.011-2.761-4.463,1.667-6.924,0.115
			c-3.713-1.817-7.859-3.185-10.717-6.315c-3.96-3.617-7.268-8.283-8.089-13.681c-0.326-1.843-1.155-3.528-2.038-5.142
			c-0.062-2.779,0.273-5.601-0.396-8.327c-0.997-3.828,0.741-7.55,1.27-11.298c2.496-6.342,6.13-12.702,11.943-16.504
			C199.45,274.789,206.163,271.764,213.14,271.561z M192.033,282.948c1.217,0.882,2.664,0.971,4.11,0.909
			c-0.167-1.279,0.609-3.714-1.508-3.52C192.897,280.125,192.482,281.651,192.033,282.948z M230.446,282.384
			c-0.662,2.24,2.064,2.125,3.502,2.258c0-1.244-0.035-2.487-0.124-3.722C232.589,280.955,230.313,280.452,230.446,282.384z
			 M190.515,285.268c-0.062,0.582-0.185,1.737-0.247,2.32c12.657,0.485,25.35,0.114,38.025,0.176
			c2.038-0.529,0.679-3.096-0.935-2.646C215.081,285.18,202.793,284.977,190.515,285.268z"/>
	</g>
</g>
<g>
	<path fill="#5B7395" d="M180.345,67.814c4.534-1.685,9.42-1.834,14.184-2.258c6.5-0.458,13.089-0.847,19.52,0.477
		c9.323-1.509,18.84-0.82,28.19,0.22c3.334,0.194,6.253,2.408,9.641,2.029c5.063-0.406,10.117,0.265,15.065,1.297
		c4.949,1.05,10.108,1.561,14.695,3.828c2.717,1.579,5.945,0.997,8.882,1.755c8.336,2.038,16.645,4.587,24.177,8.776
		c7.621,1.835,14.537,5.681,21.417,9.333c-0.812,0.706-1.623,1.411-2.435,2.117c-3.59-1.429-7.118-3.052-9.967-5.716
		c-6.148-2.47-12.384-4.772-18.585-7.145c-4.877-2.919-10.62-3.352-15.85-5.345c-2.761-1.085-5.848-0.662-8.583-1.834
		c-3.114-1.244-6.571-1.332-9.588-2.858c-2.69-1.447-5.804-0.194-8.636-1.014c-4.842-1.429-9.967-0.82-14.88-0.177
		c-4.922-2.628-10.435-3.802-16-3.634c-5.725-0.75-11.449-0.168-17.121,0.67c-11.273-0.926-23.304-1.923-33.968,2.584
		c-10.382-1.508-20.508,1.791-30.589,3.687c-5.469,3.246-12.084,2.611-17.959,4.648c-4.657,1.667-9.385,3.237-13.663,5.769
		c-5.019,2.505-12.578,1.605-15.4,7.382c-2.293,0.803-4.666,1.358-6.942,2.232c-2.981,1.164-4.896,4.198-8.088,4.913
		c-3.705,0.768-6.677,3.299-9.632,5.496c-3.254,3.378-7.577,5.372-11.025,8.521c-3.229,2.611-5.469,6.183-8.591,8.891
		c-2.046,1.65-3.025,4.163-4.278,6.395c-0.353-0.124-1.058-0.362-1.411-0.476c-0.301,3.634-1.473,7.462,0.405,10.902
		c0.309,0.388,0.917,1.182,1.226,1.579c0.141-0.08,0.424-0.229,0.564-0.309l1.262-0.256c-0.212,1.253-0.433,2.514-0.653,3.775
		c-4.383-2.99-5.212-8.379-7.771-12.657c5.433-6.36,10.902-12.711,16.794-18.656c14.942-12.022,31.225-22.836,49.528-28.949
		c8.238-4.119,17.112-6.845,26.021-9.059c5.397-0.071,10.099-2.982,15.356-3.819c6.422-1.156,12.799-3.105,19.396-2.823
		C176.817,68.124,178.643,68.468,180.345,67.814z"/>
</g>
<g>
	<g>
		<path fill="#5177B7" d="M180.504,70.919c10.664-4.507,22.695-3.51,33.968-2.584c5.671-0.838,11.396-1.42,17.121-0.67
			c5.565-0.168,11.078,1.005,16,3.634c4.914-0.644,10.038-1.252,14.88,0.177c2.832,0.82,5.945-0.433,8.636,1.014
			c3.017,1.526,6.474,1.614,9.588,2.858c2.734,1.173,5.822,0.75,8.583,1.834c5.23,1.994,10.973,2.426,15.85,5.345
			c6.201,2.373,12.437,4.675,18.585,7.145c2.849,2.664,6.377,4.287,9.967,5.716c1.826,0.82,3.546,1.861,5.213,2.972
			c-0.124,0.45-0.361,1.34-0.485,1.791c1.941-0.018,4.287-0.961,5.839,0.652c1.896,1.685,4.066,3.008,6.466,3.855
			c-0.723,0.141-2.161,0.423-2.876,0.564c1.341,0.688,2.699,1.332,4.067,1.976c0.097,0.512,0.203,1.015,0.309,1.526
			c5.16-0.062,7.444,5.328,9.032,9.385c0.873-0.494,1.755-0.979,2.637-1.464c2.241,2.726,4.013,5.804,6.325,8.477
			c2.205,2.963,4.763,5.892,5.539,9.614c-0.485,0.229-1.464,0.697-1.95,0.935c-0.176-0.485-0.529-1.447-0.705-1.932
			c-4.525-3.634-6.607-9.438-11.423-12.816c-0.768,1.323-1.914,2.575-1.932,4.181c1.976,2.373,4.454,4.251,6.465,6.598
			c1.94,2.249,3.881,4.525,6.254,6.333c-0.15,0.388-0.45,1.155-0.6,1.543c-2.894-0.706-3.89-3.829-6.166-5.425
			c-3.396-2.954-8.185-5.901-7.427-11.113c-2.452-0.645-5.274-0.688-7.206-2.532c-2.391-2.064-5.213-3.51-7.824-5.257
			c-1.535-1.085-3.669-0.926-5.116-2.108c-0.714-1.376-1.138-2.893-1.941-4.225c-2.346-0.997-4.895-1.42-7.215-2.47
			c-5.769-2.849-12.445-3.863-17.464-8.141c-2.435-2.558-6.192-2.011-9.253-3.175c-2.337-0.821-4.675-1.72-7.171-1.888
			c-4.772-0.318-9.05-2.7-13.708-3.546c-0.291-0.996-0.564-1.993-0.847-2.99c-1.984,0.477-3.969,1.235-6.042,1.085
			c-7.55-0.997-14.915-3.96-22.616-3.36c-2.628,0.176-4.701-2.135-7.33-1.888c-3.74,0.326-7.409-0.652-11.132-0.67
			c-6.421,0.185-12.772-1.227-19.203-0.882c-0.388-0.741-0.785-1.482-1.173-2.223c-0.847,1.032-1.279,2.813-2.858,2.884
			c-3.978,0.397-8.009-0.317-11.96,0.503c-4.658,0.899-9.42,0.238-14.104,0.855c-6.007,0.088-11.758,2.002-17.703,2.628
			c-4.41,0.423-8.547,2.452-13.02,2.187c-3.836-0.123-7.135,2.232-10.849,2.806c-3.616,0.617-7.109,1.755-10.487,3.148
			c-4.234,1.799-8.944,1.861-13.231,3.484c-3.087,1.05-4.94,4.119-8.071,5.081c-3.449,1.191-6.845,2.514-10.188,3.987
			c-2.779,1.253-5.875,1.543-8.671,2.717c-3.299,5.284-9.288,7.727-13.91,11.643c-2.285,2.073-6.395,1.5-8.027,4.225
			c-1.111,4.534-4.966,7.348-8.036,10.541c-1.791,1.649-3.069,4.066-5.53,4.833l-1.262,0.256c4.031-5.16,9.015-9.5,12.852-14.81
			c0.749-1.164,1.129-2.514,1.623-3.793c3.061-1.146,6.095-2.452,8.679-4.48c3.493-2.717,7.718-4.463,10.894-7.586
			c1.164-2.461-0.467-5.081-1.314-7.392c-0.546,0.82-1.093,1.632-1.649,2.453c-5.601,4.71-11.467,9.155-16.654,14.351
			c-1.852,1.667-4.339,2.681-5.636,4.913c-2.84,3.908-5.187,8.856-10.073,10.523c-0.185,1.517-0.353,3.034-0.512,4.551
			c-1.878-3.44-0.706-7.268-0.405-10.902c0.353,0.114,1.058,0.353,1.411,0.476c1.253-2.232,2.232-4.745,4.278-6.395
			c3.122-2.708,5.363-6.28,8.591-8.891c3.448-3.148,7.771-5.143,11.025-8.521c2.955-2.196,5.927-4.728,9.632-5.496
			c3.193-0.714,5.107-3.749,8.088-4.913c2.276-0.874,4.648-1.429,6.942-2.232c2.822-5.777,10.382-4.877,15.4-7.382
			c4.278-2.532,9.006-4.102,13.663-5.769c5.875-2.037,12.49-1.402,17.959-4.648C159.996,72.71,170.122,69.411,180.504,70.919z
			 M253.891,72.401c-0.547,1.394-1.085,2.796-1.605,4.199c-0.203-0.574-0.608-1.711-0.812-2.276
			c-0.935,0.326-1.879,0.644-2.814,0.97c0.124,2.073-1.305,5.001,0.891,6.36c9.72-0.132,19.273,2.144,28.834,3.607
			c1.738,0.124,1.42-2.161,1.491-3.272c0.114-2.47-2.875-3.237-4.375-4.675c-2.928-0.556-5.813-1.306-8.724-1.914
			c-2.364-0.379-4.534-2.373-6.995-1.402C257.913,73.16,255.973,72.419,253.891,72.401z M186.678,73.928
			c-1.896,0.44-5.478,0.855-4.64,3.634c0.662,1.984,3.008,1.835,4.684,1.667c8.379-1.059,16.838-1.305,25.271-1.737
			c-0.008-1.103-0.018-2.197-0.018-3.299C203.737,71.872,195.058,73.151,186.678,73.928z M216.721,78.223
			c6.439-0.017,12.896-0.238,19.326,0.309c2.637,0.15,5.301,0.406,7.947,0.097c2.311-0.926,0.423-3.828-0.979-4.666
			c-3.361-0.468-6.774,0.185-10.126-0.388c-4.772-0.935-9.693-0.865-14.509-0.432C215.777,73.53,216.377,76.371,216.721,78.223z
			 M172.804,75.383c-2.576,0.282-5.204,0.265-7.709,0.97c-4.798,1.35-9.923,1.808-14.387,4.172c-0.988,0.723-3.272,2.62-1.138,3.378
			c4.763,0.573,9.447-0.891,14.095-1.702c4.481-1.006,9.147-1.076,13.522-2.514C178.925,76.926,175.317,74.695,172.804,75.383z
			 M131.647,85.288c-2.355,0.944-5.01,1.041-7.162,2.47c-2.32,1.42-5.513,2.381-5.875,5.521c6.475-0.371,12.455-3.229,18.673-4.833
			c2.964-1.191,7.294-0.961,8.433-4.64c-0.415-0.362-1.244-1.094-1.658-1.464C139.7,81.937,135.669,83.965,131.647,85.288z
			 M281.861,85.474c2.584,1.861,5.848,1.914,8.768,2.929c4.058,1.375,8.335,1.932,12.393,3.352c2.011,0.52,3.899,1.703,6.033,1.605
			c0.327-2.373-1.693-4.163-3.819-4.684c-0.141-0.441-0.423-1.314-0.564-1.755c-6.616,0.75-11.873-5.125-18.435-4.939
			C284.154,82.024,282.999,84.018,281.861,85.474z M110.777,93.333c-4.983,1.2-9.041,4.49-13.292,7.171
			c-2.02,1.482-4.551,2.284-6.174,4.269c0.979,0.273,1.985,0.917,3.043,0.573c5.081-1.067,9.129-4.648,14.06-6.113
			c2.849-1.111,6.289-2.055,7.895-4.904c0.026-1.57-1.288-2.443-2.62-2.866C112.806,92.212,111.968,93.112,110.777,93.333z
			 M312.618,96.111c5.998,2.805,12.623,4.243,18.364,7.647c0.177-0.282,0.538-0.837,0.715-1.12c0.661,1.332,2.275,3.246,2.514,0.547
			c-1.984-3.369-6.016-4.181-8.997-6.289c-2.805-2.417-6.289-3.943-9.755-5.089C312.989,91.366,312.204,94.215,312.618,96.111z
			 M339.477,110.083c5.107,2.964,9.835,6.536,14.81,9.721c0.917,0.67,2.091,0.679,3.167,0.873c0.247-1.014,1.12-2.205,0.097-3.087
			c-1.658-1.914-3.758-3.414-5.072-5.627c-3.467-2.867-7.709-4.71-11.493-7.154C338.709,105.399,337.413,108.513,339.477,110.083z"
			/>
	</g>
</g>
<g>
	<path fill="#5D86D0" d="M253.891,72.401c2.082,0.018,4.022,0.759,5.892,1.597c2.461-0.97,4.631,1.023,6.995,1.402
		c2.911,0.608,5.795,1.358,8.724,1.914c1.5,1.438,4.489,2.205,4.375,4.675c-0.071,1.111,0.247,3.396-1.491,3.272
		c-9.562-1.464-19.114-3.74-28.834-3.607c-2.196-1.358-0.768-4.287-0.891-6.36c0.935-0.326,1.879-0.644,2.814-0.97
		c0.203,0.564,0.609,1.702,0.812,2.276C252.806,75.197,253.344,73.795,253.891,72.401z"/>
</g>
<g>
	<path fill="#638BD5" d="M186.678,73.928c8.379-0.776,17.059-2.056,25.297,0.264c0,1.103,0.009,2.197,0.018,3.299
		c-8.432,0.432-16.891,0.679-25.271,1.737c-1.676,0.168-4.022,0.317-4.684-1.667C181.201,74.783,184.782,74.368,186.678,73.928z"/>
</g>
<g>
	<path fill="#628BD5" d="M216.721,78.223c-0.344-1.852-0.944-4.692,1.659-5.08c4.816-0.433,9.737-0.503,14.509,0.432
		c3.352,0.573,6.765-0.08,10.126,0.388c1.402,0.838,3.29,3.74,0.979,4.666c-2.646,0.309-5.31,0.053-7.947-0.097
		C229.617,77.985,223.16,78.206,216.721,78.223z"/>
</g>
<g>
	<path fill="#638CD7" d="M172.804,75.383c2.514-0.688,6.121,1.543,4.384,4.305c-4.375,1.438-9.041,1.508-13.522,2.514
		c-4.648,0.812-9.332,2.275-14.095,1.702c-2.135-0.758,0.15-2.655,1.138-3.378c4.463-2.364,9.588-2.823,14.387-4.172
		C167.6,75.647,170.228,75.665,172.804,75.383z"/>
</g>
<g>
	<path fill="#3B5687" d="M210.167,81.654c1.579-0.071,2.011-1.853,2.858-2.884c0.388,0.741,0.785,1.482,1.173,2.223
		c6.431-0.344,12.781,1.067,19.203,0.882c3.723,0.018,7.392,0.996,11.132,0.67c2.628-0.247,4.701,2.064,7.33,1.888
		c7.701-0.6,15.065,2.364,22.616,3.36c2.073,0.15,4.058-0.608,6.042-1.085c0.282,0.997,0.556,1.994,0.847,2.99
		c4.658,0.847,8.936,3.229,13.708,3.546c2.496,0.167,4.833,1.067,7.171,1.888c3.061,1.164,6.818,0.617,9.253,3.175
		c5.019,4.278,11.696,5.292,17.464,8.141c2.32,1.05,4.869,1.473,7.215,2.47c0.803,1.332,1.227,2.849,1.941,4.225
		c1.446,1.182,3.581,1.023,5.116,2.108c2.611,1.747,5.434,3.192,7.824,5.257c1.932,1.843,4.754,1.887,7.206,2.532
		c-0.758,5.212,4.031,8.159,7.427,11.113c2.276,1.597,3.272,4.719,6.166,5.425l0.873,0.353c1.059,0.609,2.055,1.314,3.069,2.002
		c-1.402,1.305-2.805,2.611-4.163,3.96c-3.114,0.388-7.595-1.032-7.55-4.771c-0.15-0.177-0.459-0.521-0.609-0.697
		c-0.176,0.335-0.521,1.005-0.697,1.341c-1.702-2.532-4.058-4.481-6.113-6.695c-1.87-1.984-3.052-4.507-4.948-6.457
		c-3.387-2.875-8.018-3.51-11.59-6.104c-2.937-2.161-6.792-2.84-9.314-5.593c-1.799-1.887-4.622-1.772-6.986-2.355
		c0.062-0.423,0.194-1.27,0.256-1.693c-1.032,0.238-2.055,0.477-3.079,0.723c0.098-0.309,0.3-0.926,0.397-1.235
		c-2.787-1.005-5.081-3.069-8.018-3.669c-1.932-0.45-3.723-1.306-5.398-2.329c-0.785,1.244-1.588,2.479-2.24,3.792
		c-0.079-0.3-0.238-0.9-0.327-1.2c-1.12-0.555-2.258-1.059-3.414-1.535c0.3-0.644,0.9-1.932,1.208-2.576
		c-1.376-0.044-2.743-0.097-4.11-0.141c0.044-0.389,0.133-1.165,0.177-1.553c-2.17-1.296-4.613-0.406-6.889-0.723
		c-4.348-2.911-9.799-6.501-15.198-4.331c-0.776-0.397-1.605-0.662-2.452-0.82c-0.458-0.229-0.917-0.467-1.376-0.697
		c-2.09,1.932-3.731-0.803-5.813-1.165c-8.697-1.552-17.482-2.522-26.321-2.302c1.896-0.212,3.793-0.424,5.689-0.732
		c-1.641-1.173-3.723-0.732-5.593-0.794c-3.872,0.159-7.665-0.758-11.493-1.182c-4.128-0.494-8.265,0.309-12.402,0.344
		c0.132,0.494,0.406,1.473,0.547,1.967c-0.855-0.723-1.703-1.438-2.567-2.143c-2.734,1.032-5.663-0.406-8.468,0.167
		c-4.092,0.909-8.203-0.776-12.287,0.247c-4.208,0.988-8.883-0.432-12.693,2.002c-2.505,0.591-5.143,0.079-7.691,0.458
		c-3.237,0.476-6.413,1.288-9.686,1.597c-2.937,0.247-5.786,1.747-8.776,1.041c-3.819,1.746-8.027,2.24-11.917,3.766
		c-0.697-0.035-1.402-0.07-2.099-0.106c-5.045,2.179-10.355,3.678-15.762,4.622c-5.187,1.755-10.223,4.102-14.722,7.259
		c-1.314,0.124-2.602-0.273-3.89-0.459c0.097,0.389,0.291,1.156,0.388,1.544c-2.497,0.097-4.772,1.146-6.863,2.443
		c-2.505,1.712-6.421,0.971-7.744,4.243c-2.452,1.844-4.648,4.084-7.524,5.284c-0.035,0.282-0.114,0.847-0.158,1.138
		c-0.953,0.556-1.914,1.12-2.867,1.685c-0.477-0.132-1.438-0.379-1.914-0.503c-2.1,1.738-4.384,3.246-6.465,5.01
		c-1.8,1.508-1.403,4.728-3.802,5.636c-2.073,0.83-4.251,1.403-6.192,2.523c0.15,0.477,0.441,1.438,0.591,1.922
		c-0.653,0.962-1.306,1.932-1.967,2.902c-1.932-0.123-3.872-0.044-5.769,0.379c-0.467-0.433-0.944-0.874-1.412-1.306
		c0.221-1.261,0.441-2.522,0.653-3.775c2.461-0.767,3.74-3.184,5.53-4.833c3.07-3.193,6.924-6.007,8.036-10.541
		c1.632-2.726,5.742-2.152,8.027-4.225c4.622-3.916,10.611-6.359,13.91-11.643c2.796-1.173,5.892-1.464,8.671-2.717
		c3.343-1.473,6.738-2.796,10.188-3.987c3.131-0.961,4.983-4.031,8.071-5.081c4.287-1.623,8.997-1.685,13.231-3.484
		c3.378-1.393,6.871-2.531,10.487-3.148c3.714-0.573,7.013-2.929,10.849-2.806c4.473,0.265,8.609-1.764,13.02-2.187
		c5.945-0.626,11.696-2.541,17.703-2.628c4.684-0.617,9.447,0.044,14.104-0.855C202.159,81.337,206.189,82.051,210.167,81.654z"/>
</g>
<g>
	<path fill="#638CD4" d="M131.647,85.288c4.022-1.323,8.053-3.352,12.411-2.946c0.415,0.371,1.244,1.103,1.658,1.464
		c-1.138,3.678-5.469,3.448-8.433,4.64c-6.218,1.605-12.199,4.463-18.673,4.833c0.362-3.14,3.555-4.102,5.875-5.521
		C126.637,86.329,129.292,86.232,131.647,85.288z"/>
</g>
<g>
	<path fill="#618ACF" d="M281.861,85.474c1.138-1.456,2.293-3.449,4.375-3.493c6.563-0.185,11.819,5.689,18.435,4.939
		c0.141,0.441,0.423,1.314,0.564,1.755c2.126,0.521,4.146,2.311,3.819,4.684c-2.134,0.098-4.022-1.085-6.033-1.605
		c-4.058-1.42-8.335-1.976-12.393-3.352C287.709,87.388,284.445,87.334,281.861,85.474z"/>
</g>
<g>
	<path fill="#3B4B65" d="M215.416,90.572c0.864,0.705,1.711,1.42,2.567,2.143c-0.141-0.494-0.415-1.473-0.547-1.967
		c4.137-0.035,8.273-0.838,12.402-0.344c3.828,0.424,7.621,1.34,11.493,1.182c1.87,0.062,3.952-0.379,5.593,0.794
		c-1.896,0.309-3.793,0.521-5.689,0.732c8.838-0.221,17.624,0.75,26.321,2.302c2.082,0.362,3.722,3.096,5.813,1.165
		c0.459,0.229,0.917,0.467,1.376,0.697c0.847,0.159,1.676,0.423,2.452,0.82c5.398-2.17,10.85,1.42,15.198,4.331
		c2.276,0.317,4.719-0.573,6.889,0.723c-0.044,0.388-0.132,1.164-0.177,1.553c1.367,0.044,2.734,0.097,4.11,0.141
		c-0.309,0.644-0.908,1.932-1.208,2.576c-7.876-2.884-15.982-5.451-24.344-6.448c-6.801,42.277-13.884,84.51-20.834,126.76
		c-2.099,12.049-3.802,24.177-6.157,36.182c-0.124-1.253-0.309-2.505-0.432-3.749c7.427-45.258,14.986-90.499,22.369-135.766
		c1.155-7.973,2.911-15.903,3.634-23.895c-6.951-2.62-14.466-2.999-21.716-4.322c-2.338-0.608-4.684,0.026-7.013,0.159
		c-10.24-3.079-21.099-2.682-31.675-2.567c-0.264,3.749,0.3,7.471,0.75,11.185c4.481,50.691,9.456,101.33,13.893,152.022
		c-0.292,1.376-0.574,2.752-0.803,4.146c-5.239-55.261-10.284-110.557-15.33-165.835c-0.211-0.361-0.626-1.076-0.837-1.438
		c-4.966,52.853-9.535,105.741-14.774,158.567c-0.133-1.587-0.423-3.167-0.671-4.737c4.569-51.327,9.421-102.636,14.157-153.945
		c-7.886-0.22-15.78,0.026-23.622,0.909c-2.919,0.45-5.795,1.217-8.768,1.235c2.628,57.281,5.045,114.579,7.533,171.868
		c-0.265,0.142-0.776,0.433-1.032,0.574c-0.829-12.102-1.156-24.239-1.553-36.367c-1.164-19.097-1.764-38.229-2.593-57.343
		c-1.411-26.285-2.09-52.614-3.599-78.9c-7.894,0.988-15.807,2.091-23.524,4.049c-1.464,0.353-2.857,0.953-4.093,1.808l1.888,0.221
		c-0.379,0.018-1.138,0.044-1.517,0.062c8.794,53.364,17.624,106.747,26.391,160.128c-0.185,0.953-0.353,1.905-0.529,2.867
		c-9.491-54.564-18.161-109.277-27.273-163.912c-9.588,2.038-19,4.913-28.129,8.477c15.515,53.532,32.318,106.685,48.116,160.119
		c-0.141,0.354-0.423,1.059-0.564,1.412c-5.442-16.186-9.756-32.742-15.215-48.919c-2.867-10.919-6.501-21.628-9.659-32.459
		c-0.547-1.597-0.768-3.475-2.205-4.569c0.22-0.018,0.661-0.044,0.882-0.053c-7.744-24.909-15.259-49.889-22.589-74.922
		c-7.745,2.505-15.021,6.28-22.299,9.897c13.073,31.921,26.815,63.57,40.187,95.368c1.103-0.124,2.02,0.75,1.747,1.808
		c-0.309,2.391,1.067,4.481,1.87,6.624c8.75,20.631,17.738,41.157,26.259,61.876l-1.27-0.423
		c-8.997-20.561-17.659-41.28-26.541-61.894c-0.485-0.943-1.208-1.72-1.834-2.566c0.203-3.079-1.862-5.672-2.849-8.459
		c-12.931-30.546-26.197-60.95-38.661-91.689c-5.954,3.651-11.705,7.647-17.491,11.554c-1.447,0.821,0.167,2.408,0.502,3.44
		c27.688,51.574,56.284,102.671,84.21,154.113c-0.062,0.388-0.176,1.155-0.238,1.543c-9.288-16.238-18.047-32.794-27.229-49.095
		c-19.749-36.209-39.966-72.161-59.23-108.625c-3.845,3.978-7.629,8.018-11.502,11.97c15.815,25.967,32.539,51.371,48.813,77.056
		c14.298,22.113,28.464,44.314,42.762,66.436c6.916,11.079,14.342,21.84,21.001,33.077c-0.158,0.194-0.485,0.6-0.652,0.803
		c-26.753-41.563-53.506-83.125-80.267-124.678c-10.779-17.253-22.175-34.127-32.46-51.671c-1.217,0.944-2.293,2.258-3.872,2.584
		c-1.649-0.988-2.99-2.391-4.384-3.696c1.896-0.423,3.837-0.502,5.769-0.379c0.662-0.971,1.314-1.94,1.967-2.902
		c-0.15-0.485-0.441-1.446-0.591-1.922c1.941-1.12,4.119-1.693,6.192-2.523c2.399-0.908,2.002-4.128,3.802-5.636
		c2.082-1.764,4.366-3.272,6.465-5.01c0.477,0.124,1.438,0.371,1.914,0.503c0.953-0.564,1.914-1.129,2.867-1.685
		c0.044-0.291,0.123-0.856,0.158-1.138c2.876-1.2,5.072-3.44,7.524-5.284c1.323-3.272,5.239-2.531,7.744-4.243
		c2.091-1.296,4.366-2.346,6.863-2.443c-0.097-0.388-0.291-1.155-0.388-1.544c1.288,0.186,2.576,0.583,3.89,0.459
		c4.499-3.158,9.535-5.504,14.722-7.259c5.407-0.944,10.717-2.443,15.762-4.622c0.697,0.036,1.402,0.071,2.099,0.106
		c3.89-1.526,8.098-2.02,11.917-3.766c2.99,0.706,5.839-0.794,8.776-1.041c3.273-0.309,6.448-1.121,9.686-1.597
		c2.549-0.379,5.187,0.132,7.691-0.458c3.81-2.435,8.485-1.014,12.693-2.002c4.083-1.023,8.194,0.662,12.287-0.247
		C209.753,90.166,212.681,91.604,215.416,90.572z"/>
</g>
<g>
	<path fill="#618CD3" d="M110.777,93.333c1.191-0.22,2.029-1.12,2.911-1.87c1.332,0.423,2.646,1.296,2.62,2.866
		c-1.605,2.849-5.046,3.793-7.895,4.904c-4.931,1.464-8.979,5.046-14.06,6.113c-1.058,0.344-2.064-0.3-3.043-0.573
		c1.623-1.985,4.155-2.787,6.174-4.269C101.736,97.822,105.794,94.532,110.777,93.333z"/>
</g>
<g>
	<path fill="#618AD4" d="M312.618,96.111c-0.415-1.896,0.371-4.745,2.84-4.304c3.466,1.146,6.951,2.672,9.755,5.089
		c2.981,2.108,7.013,2.92,8.997,6.289c-0.238,2.699-1.853,0.785-2.514-0.547c-0.177,0.283-0.538,0.838-0.715,1.12
		C325.241,100.354,318.616,98.916,312.618,96.111z"/>
</g>
<g>
	<path fill="#FEFEFE" d="M188.601,94.647c7.842-0.882,15.736-1.129,23.622-0.909c-4.736,51.309-9.588,102.618-14.157,153.945
		c-0.494,8.609-1.826,17.139-2.223,25.748c-2.434,1.967-5.213,3.431-8.088,4.63c-0.132-3.44-0.45-6.871-0.388-10.312
		c-2.487-57.289-4.904-114.587-7.533-171.868C182.806,95.864,185.682,95.097,188.601,94.647z"/>
	<path fill="#FEFEFE" d="M213.511,93.853c0.211,0.362,0.626,1.076,0.837,1.438c5.046,55.279,10.091,110.575,15.33,165.835
		c0.327,2.964,0.644,5.927,0.997,8.891c-3.599-1.844-7.762-1.376-11.573-2.487c-3.281-1.032-6.253,1.182-9.482,1.155
		c-4.622,0.115-9.032,1.994-12.878,4.463c0.706-6.907,1.42-13.813,1.994-20.729C203.976,199.594,208.544,146.706,213.511,93.853z"/>
	<path fill="#FEFEFE" d="M121.803,109.413c9.129-3.563,18.541-6.439,28.129-8.477c9.112,54.635,17.782,109.348,27.273,163.912
		c0.979,6.43,2.214,12.825,3.123,19.264c0.282,1.35-0.874,2.373-1.385,3.501c-0.396,1.853-0.899,3.679-1.438,5.496
		c-0.802-1.42-1.464-2.919-1.879-4.499c-1.782-6.395-3.881-12.702-5.707-19.079C154.122,216.097,137.318,162.944,121.803,109.413z"
		/>
	<path fill="#FEFEFE" d="M277.663,100.971c8.362,0.997,16.468,3.563,24.344,6.448c1.156,0.476,2.293,0.979,3.414,1.535
		c0.088,0.3,0.248,0.9,0.327,1.2c-8,27.423-16.379,54.74-24.636,82.084c-1.121,3.625-2.32,7.224-3.149,10.92
		c-8.671,28.764-17.544,57.466-26.126,86.248c-1.35-2.17-2.77-4.287-4.313-6.315c0.97-6.413,2.135-12.781,3.149-19.176
		c2.355-12.005,4.058-24.133,6.157-36.182C263.779,185.481,270.862,143.248,277.663,100.971z"/>
	<path fill="#FEFEFE" d="M98.27,119.918c7.277-3.617,14.554-7.392,22.299-9.897c7.33,25.033,14.845,50.013,22.589,74.922
		c-0.221,0.009-0.662,0.035-0.882,0.053c1.438,1.094,1.658,2.973,2.205,4.569c3.158,10.832,6.792,21.54,9.659,32.459
		c5.459,16.177,9.773,32.733,15.215,48.919c2.522,8.018,4.798,16.106,7.409,24.098c0.97,3.413,0.538,7.029,0.494,10.531
		c-3.617-6.324-5.919-13.336-8.927-19.979c-8.521-20.719-17.509-41.245-26.259-61.876c-0.803-2.143-2.179-4.233-1.87-6.624
		c0.273-1.059-0.644-1.932-1.747-1.808C125.084,183.488,111.342,151.839,98.27,119.918z"/>
	<path fill="#FEFEFE" d="M307.299,109.439c6.713,2.011,12.896,5.354,19.255,8.221c1.817,0.662,2.849,2.311,3.872,3.837l0.388-1.535
		c6.386,3.652,12.631,7.612,18.409,12.181c-15.551,29.628-31.975,58.798-47.869,88.241c-12.49,23.083-25.351,45.973-37.893,69.03
		c-2.267,4.27-4.878,8.362-6.792,12.807c-0.45-1.843-1.799-3.722-0.979-5.645c8.926-20.984,17.932-41.941,26.876-62.926
		c9.782-22.651,19.176-45.47,29.135-68.042c0.573,0.732,1.146,1.473,1.72,2.205c0.168-1.42-1.023-2.064-1.888-2.84
		c2.629-5.054,4.834-10.364,6.668-15.762c0.388,0.626,0.776,1.244,1.173,1.861c-0.106-0.855-0.238-1.711-0.389-2.567
		c3.405-9.173,7.56-18.064,11.105-27.185c-0.388,0.088-1.173,0.282-1.57,0.379c-1.508,5.681-4.366,10.875-6.43,16.362
		c-20.843,49.572-42.047,98.993-63.111,148.477c-1.332,3.149-2.54,6.368-4.243,9.35c-0.573-2.197-2.391-4.287-2.02-6.589
		c8.917-28.984,17.615-58.039,26.532-87.015C288.856,171.421,298.17,140.452,307.299,109.439z"/>
	<path fill="#FEFEFE" d="M235.597,342.805c0.476-0.132,1.446-0.397,1.923-0.521c0,0.671,0,2.011-0.009,2.69
		C236.788,344.357,235.421,343.986,235.597,342.805z"/>
</g>
<g>
	<path fill="#4D668B" d="M336.116,93.271c3.22,2.108,6.342,4.375,9.835,6.016c13.769,8.194,25.006,19.775,35.467,31.754
		c-0.415,0.855-0.838,1.711-1.244,2.576c-1.023,1.87-1.782,3.863-2.311,5.927c-0.67-1.314-1.367-2.602-1.896-3.978l-0.22-0.829
		c-0.776-3.723-3.334-6.651-5.539-9.614c-2.312-2.673-4.084-5.751-6.325-8.477c-0.882,0.485-1.764,0.97-2.637,1.464
		c-1.588-4.058-3.873-9.447-9.032-9.385c-0.106-0.511-0.212-1.014-0.309-1.526c-1.368-0.644-2.726-1.288-4.067-1.976
		c0.715-0.141,2.153-0.423,2.876-0.564c-2.399-0.847-4.569-2.17-6.466-3.855c-1.552-1.614-3.898-0.67-5.839-0.652
		c0.124-0.45,0.362-1.341,0.485-1.791c-1.667-1.111-3.387-2.152-5.213-2.972C334.493,94.682,335.305,93.977,336.116,93.271z"/>
</g>
<g>
	<g>
		<path fill="#040404" d="M247.681,105.002c0.273-2.876-0.547-6.016,0.909-8.653c0.265,7.013-0.468,14.007-0.661,21.011
			c-1.2,23.798-1.87,47.631-3.282,71.411c-0.344,19.141-1.878,38.237-2.267,57.378c-0.547,8.229-0.706,16.468-1.244,24.688
			c0.008,1.976-0.468,4.12,0.476,5.954c1.481,1.897,3.414,3.37,5.133,5.046c1.279-7.207,2.497-14.422,3.493-21.672
			c0.124,1.244,0.309,2.496,0.432,3.749c-1.014,6.395-2.179,12.763-3.149,19.176c1.543,2.029,2.964,4.146,4.313,6.315
			c8.582-28.781,17.456-57.483,26.126-86.248c0.317-0.221,0.961-0.652,1.288-0.873c-8.917,28.976-17.615,58.03-26.532,87.015
			c-0.371,2.302,1.447,4.393,2.02,6.589c1.703-2.982,2.911-6.201,4.243-9.35c21.063-49.483,42.268-98.905,63.111-148.477
			c2.064-5.486,4.922-10.681,6.43-16.362c0.397-0.097,1.182-0.291,1.57-0.379c-3.546,9.12-7.7,18.011-11.105,27.185
			c0.15,0.856,0.283,1.711,0.389,2.567c-0.397-0.617-0.785-1.234-1.173-1.861c-1.834,5.398-4.04,10.708-6.668,15.762
			c0.865,0.776,2.056,1.42,1.888,2.84c-0.573-0.732-1.146-1.473-1.72-2.205c-9.958,22.572-19.353,45.391-29.135,68.042
			c-8.944,20.984-17.95,41.942-26.876,62.926c-0.82,1.923,0.529,3.802,0.979,5.645c1.914-4.445,4.525-8.538,6.792-12.807
			c12.542-23.057,25.403-45.946,37.893-69.03l1.191,0.036c-14.836,26.805-29.584,53.664-44.429,80.47
			c-2.012,3.158-2.761,6.951-2.673,10.655c16.292-24.759,32.072-49.863,48.222-74.71c13.089-20.57,26.409-40.98,39.366-61.621
			c0.097,0.353,0.273,1.067,0.37,1.42c-29.02,45.408-58.304,90.667-87.438,135.987c-1.323,3.528-1.085,7.436-2.426,10.955
			c-2.24,6.606-7.629,11.334-11.987,16.547c-0.45,0.167-1.34,0.502-1.791,0.67c0.053,1.835-0.097,3.696,0.256,5.504
			c4.525,4.877,10.691,8.009,14.651,13.442c2.055,2.496,2.673,5.831,4.798,8.283c1.588,1.764,2.144,4.798,0.344,6.615
			c-1.773,1.888-3.828,3.607-6.218,4.64c-3.22,0.326-6.475,0.247-9.694,0.062c-2.708-0.759-5.081-2.497-7.074-4.428
			c0.944-6.324,0.679-12.807,0.688-19.229c-3.449-1.509-6.818-3.202-10.276-4.684c-2.761-1.191-4.93-3.378-7.718-4.517
			c3.246,5.619,5.205,11.802,7.348,17.888c2.717,12.719,4.401,25.747,3.325,38.767c-1.632,5.663-5.495,10.329-9.685,14.324
			c-2.787,1.579-5.883,2.99-9.155,2.849c-6.978-0.062-13.954,0.009-20.94-0.08c-3.14,7.383-2.681,15.586-2.751,23.437
			c-0.318,4.313,2.373,8.018,4.04,11.802c3.078,2.893,6.897,5.081,10.902,6.483c3.043,1.094,5.212,3.811,8.353,4.701
			c3.097,0.538,6.387,0.247,9.35,1.429c2.461,0.697,2.708,4.234,1.076,5.866c-1.738,0.953-3.14-0.326-4.339-1.455
			c-2.955-0.318-5.919-0.573-8.848-1.032c-3.916-1.605-6.774-5.451-11.219-5.857c-0.706-0.123-4.084,1.641-1.518-0.714
			c-3.784-2.584-8.026-5.23-9.817-9.676c-1.217-3.184-3.405-6.209-3.061-9.773c0.283-6.439-0.758-13.107,1.35-19.326
			c0.08-0.185,0.247-0.556,0.326-0.741l-0.158-0.362c-0.75-1.79,0.317-3.484,0.935-5.107c-3.652-0.9-6.774-3.793-10.708-3.343
			c-2.011,0.194-4.128,0.521-5.857,1.632c-4.825,5.134-8.327,11.52-9.888,18.409c-0.829,6.466-1.323,13.178,0.635,19.502
			c0.67,2.125,2.778,3.167,4.454,4.401c2.337,1.517,4.349,3.669,7.083,4.499c5.681,1.641,10.938,4.428,16.644,5.998
			c1.756,0.326,1.138,2.443,1.42,3.678c-3.669,1.949-7.735,0.229-11.087-1.552c-4.313-2.585-9.685-2.735-13.681-5.963
			c-3.317-2.567-8.124-3.96-9.509-8.327c-2.576-8.274-1.914-17.147-0.652-25.571c1.384-3.229,2.479-6.563,3.863-9.782
			c1.72-2.813,3.792-5.398,5.795-8.018c4.11-4.34,10.594-4.251,16.106-3.723c2.011,0.759,3.828,1.941,5.742,2.911
			c0.282,0.45,0.573,0.908,0.864,1.367c0.035-0.327,0.097-0.997,0.133-1.323c2.037-3.131,4.048-6.545,7.4-8.423
			c2.805-0.856,5.822-0.706,8.583-1.756c4.189-1.243,8.6-3.219,13.001-1.737c2.928,1.12,6.104,0.723,9.173,0.759
			c1.2-2.938,0.697-6.157,0.776-9.235c0.097-5.821-0.168-11.705-1.605-17.359c-0.706-5.01-0.961-10.179-3.229-14.792
			c-1.817-5.866-4.489-11.458-8.159-16.389c-1.632-0.229-3.281-0.167-4.913-0.203c-3.272,4.913-7.304,9.279-10.523,14.236
			c-2.593,2.038-4.137,5.081-5.698,7.912c-0.211,2.382-0.044,4.781,0.018,7.171c-0.617-0.097-1.852-0.291-2.461-0.388
			c0.009-1.332,0.062-2.664,0.167-3.987c-1.234,1.085-2.267,2.77-4.066,2.884c-0.82-0.564-1.597-1.164-2.329-1.817
			c0.899-4.851,2.355-9.517,4.455-13.989c2.54-5.01,1.905-10.752,1.702-16.168c-1.208-1.446-1.649-3.272-1.861-5.107
			c-2.32-0.309-2.54-3.017-3.414-4.719c-0.935-3.14-3.14-5.945-2.955-9.341c-0.591,0.521-1.764,1.879-2.329,0.582
			c0.167-0.203,0.494-0.608,0.652-0.803c0.318-0.22,0.953-0.644,1.262-0.855c-1.799-5.125-4.719-9.738-7.303-14.483
			c-2.982-5.09-5.557-10.409-8.574-15.48c0.062-0.388,0.176-1.156,0.238-1.543c4.393,8.15,8.944,16.212,13.328,24.371
			c0.388-2.275-0.036-4.578-1.023-6.642c-3.291-7.374-6.298-14.872-9.641-22.228l1.27,0.423c3.008,6.642,5.31,13.654,8.927,19.979
			c0.044-3.502,0.476-7.118-0.494-10.531c-2.611-7.992-4.887-16.081-7.409-24.098c0.141-0.353,0.423-1.058,0.564-1.412
			c1.826,6.377,3.925,12.685,5.707,19.079c0.415,1.579,1.077,3.079,1.879,4.499c0.538-1.817,1.041-3.643,1.438-5.496
			c0.512-1.128,1.667-2.152,1.385-3.501c-0.909-6.439-2.144-12.834-3.123-19.264c0.176-0.961,0.344-1.914,0.529-2.867
			c1.111,7.375,2.267,14.748,3.555,22.096c2.011-1.914,3.881-3.96,5.654-6.095c-0.22-3.219-0.353-6.438-0.608-9.658
			c0.256-0.141,0.767-0.432,1.032-0.574c-0.062,3.44,0.256,6.872,0.388,10.312c2.875-1.2,5.654-2.664,8.088-4.63
			c0.397-8.609,1.729-17.139,2.223-25.748c0.248,1.57,0.538,3.149,0.671,4.737c-0.574,6.916-1.288,13.822-1.994,20.729
			c3.846-2.47,8.256-4.348,12.878-4.463c3.229,0.027,6.201-2.188,9.482-1.155c3.811,1.111,7.974,0.644,11.573,2.487
			c-0.353-2.964-0.67-5.927-0.997-8.891c0.229-1.394,0.512-2.77,0.803-4.146c0.353,4.313,0.705,8.635,1.146,12.939
			c2.487,2.1,6.007,2.911,8.406,5.31c1.111-19.414,1.8-38.845,2.603-58.277c1.252-23.516,1.816-47.066,3.29-70.573
			C246.111,132.575,246.94,118.78,247.681,105.002z M213.14,271.561c-6.977,0.203-13.689,3.228-19.193,7.4
			c-5.813,3.802-9.447,10.162-11.943,16.504c-0.529,3.749-2.267,7.471-1.27,11.298c0.67,2.726,0.335,5.548,0.396,8.327
			c0.882,1.614,1.712,3.299,2.038,5.142c0.821,5.398,4.128,10.064,8.089,13.681c2.858,3.131,7.003,4.499,10.717,6.315
			c2.461,1.552,4.913-2.876,6.924-0.115c0.141,0.547,0.432,1.641,0.582,2.179c1.42,0.079,2.84,0.167,4.27,0.264
			c0.273,0.292,0.82,0.874,1.093,1.173c1.57-0.018,3.14-0.062,4.71-0.15c1.711-3.202,4.781,0.494,7.224-0.803
			c3.952-1.861,8.495-2.981,11.432-6.448c0.212,0.238,0.635,0.714,0.847,0.953c1.261-1.658,2.161-3.599,3.528-5.178
			c2.029,0.168,2.646-1.985,3.74-3.228c1.941-2.558,4.481-5.284,4.234-8.732c1.058-2.514,1.375-5.231,2.257-7.798l-1.949,0.715
			c0.583-1.72,1.606-3.361,1.438-5.239c0.115-10.629-4.551-21.425-13.001-28.005c-2.875-3.29-6.792-5.336-10.823-6.836
			c-3.44-1.685-7.374-1.429-10.99-2.399C216.033,270.899,214.613,271.349,213.14,271.561z M189.598,340.344
			c1.87,2.505,1.518,5.627,1.482,8.564c1.685-3.087,4.939-4.542,7.833-6.245c-3.493-1.067-6.342-3.387-9.412-5.239
			C187.939,338.244,187.684,339.603,189.598,340.344z M235.597,342.805c-0.176,1.182,1.19,1.552,1.914,2.169
			c0.009-0.679,0.009-2.02,0.009-2.69C237.043,342.407,236.073,342.672,235.597,342.805z M193.85,355.409
			c0.15-0.441,0.441-1.323,0.591-1.764c1.279-1.42,2.672-2.796,3.537-4.525C196.328,350.955,194.105,352.798,193.85,355.409z
			 M239.778,356.317c0.053,4.754-0.036,9.509,0.053,14.263c2.726-0.158,4.552,1.994,6.704,3.299c2.329-0.088,4.666-0.3,6.933-0.909
			c0.159-0.635,0.476-1.905,0.635-2.541c-1.844-3.237-3.035-6.95-5.884-9.508C246.032,358.417,242.707,357.597,239.778,356.317z
			 M197.589,410.634c-2.249,0.653-3.978,2.567-5.345,4.393c5.76,0.564,11.573,0.026,17.359,0.247
			c4.966,0.203,9.297-2.928,12.243-6.686c-3.298,0.211-6.598-0.036-9.641-1.394C207.301,408.262,202.661,410.52,197.589,410.634z"/>
	</g>
</g>
<g>
	<path fill="#6087CB" d="M86.204,104.941c0.556-0.821,1.103-1.632,1.649-2.453c0.847,2.311,2.479,4.931,1.314,7.392
		c-3.175,3.123-7.4,4.869-10.894,7.586c-2.584,2.029-5.619,3.334-8.679,4.48c-0.494,1.279-0.874,2.629-1.623,3.793
		c-3.837,5.31-8.821,9.65-12.852,14.81c-0.141,0.08-0.423,0.229-0.564,0.309c-0.309-0.397-0.917-1.191-1.226-1.579
		c0.159-1.517,0.327-3.034,0.512-4.551c4.887-1.667,7.233-6.615,10.073-10.523c1.296-2.232,3.784-3.246,5.636-4.913
		C74.737,114.096,80.603,109.651,86.204,104.941z"/>
</g>
<g>
	<path fill="#5B86CA" d="M339.477,110.083c-2.064-1.57-0.767-4.683,1.509-5.274c3.784,2.443,8.026,4.287,11.493,7.154
		c1.314,2.214,3.414,3.713,5.072,5.627c1.023,0.882,0.15,2.073-0.097,3.087c-1.076-0.194-2.25-0.203-3.167-0.873
		C349.312,116.619,344.584,113.047,339.477,110.083z"/>
</g>
<g>
	<path fill="#384967" d="M305.747,110.153c0.652-1.314,1.455-2.549,2.24-3.792c1.676,1.023,3.466,1.878,5.398,2.329
		c2.937,0.6,5.23,2.664,8.018,3.669c-0.097,0.309-0.299,0.926-0.397,1.235c1.023-0.247,2.047-0.485,3.079-0.723
		c-0.062,0.423-0.194,1.27-0.256,1.693c2.364,0.583,5.187,0.468,6.986,2.355c2.522,2.752,6.377,3.432,9.314,5.593
		c3.572,2.593,8.203,3.228,11.59,6.104c1.896,1.949,3.078,4.472,4.948,6.457c2.055,2.214,4.411,4.164,6.113,6.695
		c0.176-0.335,0.521-1.006,0.697-1.341c0.15,0.176,0.458,0.52,0.609,0.697c-0.044,3.74,4.437,5.16,7.55,4.771
		c-1.667,1.641-3.89,4.261-6.219,1.958c-0.67-0.838-1.314-1.703-1.958-2.549c-6.942,10.276-13.045,21.108-20.058,31.331
		c-0.097-0.353-0.273-1.067-0.37-1.42c6.307-10.32,12.904-20.464,19.158-30.81c-3.907-3.855-7.488-8.098-11.952-11.343
		c-15.56,29.302-31.507,58.401-47.692,87.359l-1.191-0.036c15.895-29.443,32.318-58.613,47.869-88.241
		c-5.778-4.569-12.022-8.529-18.409-12.181l-0.388,1.535c-1.023-1.526-2.055-3.176-3.872-3.837
		c-6.36-2.867-12.542-6.209-19.255-8.221c-9.129,31.013-18.443,61.982-28.049,92.845c-0.326,0.221-0.97,0.652-1.288,0.873
		c0.829-3.696,2.028-7.294,3.149-10.92C289.368,164.894,297.747,137.577,305.747,110.153z"/>
</g>
<g>
	<path fill="#FDFDFD" d="M79.685,132.116c5.786-3.907,11.537-7.903,17.491-11.554c12.463,30.739,25.729,61.144,38.661,91.689
		c0.987,2.787,3.052,5.38,2.849,8.459c0.626,0.847,1.349,1.623,1.834,2.566c8.882,20.614,17.544,41.333,26.541,61.894
		c3.343,7.356,6.351,14.854,9.641,22.228c0.987,2.063,1.411,4.366,1.023,6.642c-4.384-8.159-8.936-16.221-13.328-24.371
		c-27.926-51.441-56.522-102.539-84.21-154.113C79.853,134.524,78.238,132.937,79.685,132.116z"/>
	<path fill="#FDFDFD" d="M66.198,145.462c3.873-3.952,7.657-7.992,11.502-11.97c19.264,36.464,39.481,72.417,59.23,108.625
		c9.183,16.3,17.941,32.856,27.229,49.095c3.017,5.072,5.592,10.391,8.574,15.48c2.584,4.745,5.504,9.358,7.303,14.483
		c-0.309,0.212-0.944,0.635-1.262,0.855c-6.659-11.237-14.086-21.998-21.001-33.077c-14.298-22.122-28.464-44.323-42.762-66.436
		C98.737,196.833,82.014,171.43,66.198,145.462z"/>
	<path fill="#FDFDFD" d="M239.778,356.317c2.928,1.279,6.253,2.099,8.441,4.604c2.849,2.558,4.04,6.271,5.884,9.508
		c-0.159,0.635-0.477,1.906-0.635,2.541c-2.267,0.608-4.604,0.82-6.933,0.909c-2.152-1.306-3.978-3.458-6.704-3.299
		C239.743,365.826,239.831,361.072,239.778,356.317z"/>
	<path fill="#FDFDFD" d="M197.589,410.634c5.072-0.114,9.711-2.373,14.616-3.44c3.043,1.358,6.342,1.605,9.641,1.394
		c-2.946,3.757-7.277,6.888-12.243,6.686c-5.786-0.221-11.599,0.318-17.359-0.247C193.611,413.202,195.34,411.287,197.589,410.634z"
		/>
</g>
<g>
	<path fill="#5E85C7" d="M359.738,125.104c0.018-1.606,1.164-2.858,1.932-4.181c4.816,3.378,6.897,9.182,11.423,12.816
		c0.176,0.485,0.529,1.446,0.705,1.932c0.486-0.238,1.464-0.706,1.95-0.935l0.22,0.829c-0.467,1.87-1.341,3.634-3.237,4.366
		l-0.873-0.353c0.15-0.389,0.45-1.156,0.6-1.543c-2.373-1.809-4.313-4.084-6.254-6.333
		C364.192,129.355,361.714,127.477,359.738,125.104z"/>
</g>
<g>
	<path fill="#FCFCFC" d="M350.238,133.061c4.463,3.246,8.044,7.488,11.952,11.343c-6.253,10.346-12.851,20.49-19.158,30.81
		c-12.958,20.64-26.277,41.051-39.366,61.621c-16.15,24.847-31.931,49.951-48.222,74.71c-0.088-3.705,0.661-7.498,2.673-10.655
		c14.845-26.806,29.593-53.665,44.429-80.47C318.73,191.461,334.678,162.362,350.238,133.061z"/>
</g>
<g>
	<path fill="#F7F7F7" d="M377.864,139.543c0.529-2.064,1.288-4.057,2.311-5.927c0.353,3.316,0.847,6.986-1.641,9.659
		c0.176,0.22,0.538,0.652,0.723,0.873c-0.053,0.97-0.106,1.949-0.15,2.937c5.178-1.067,10.47-0.6,15.709-0.67
		c24.688-0.08,49.386,0.035,74.075-0.018v53.84c-3.511,0.08-7.039-0.247-10.541,0.097c-1.799,0-1.693,2.125-1.755,3.378
		c-0.044,11.484,0.062,22.969-0.018,34.453c-0.194,12.552,0.432,25.13-0.441,37.664c-3.387,0.476-6.651,1.702-10.091,1.729
		c-5.425-0.176-10.329,2.655-15.63,3.37c-3.651,0.944-7.312-0.168-10.963-0.379c-11.388,1.65-22.934,0.512-34.4,0.67
		c-2.364,0.229-3.458-2.329-4.887-3.749c-4.031-1.473-8.026-3.29-12.393-3.396c-0.008-0.697-0.008-1.385,0-2.082
		c-0.238-0.282-0.706-0.847-0.935-1.129c4.075-0.503,8.212-0.176,12.27-0.714c-0.423-39.463-0.026-78.979-0.211-118.451
		c-0.203-2.682-1.244-5.195-2.082-7.718c-1.138,1.208-2.267,2.425-3.369,3.652c0.044,1.278,0.088,2.566-0.018,3.845
		c-2.364,0.124-4.781,0.186-7.092-0.344c-1.262-0.635-1.808-2.108-0.917-3.281c2.329,2.302,4.552-0.318,6.219-1.958
		c1.358-1.349,2.761-2.655,4.163-3.96C376.55,141.193,377.247,140.399,377.864,139.543z"/>
	<path fill="#F7F7F7" d="M312.451,270.414c2.381-1.103,4.896,0.556,7.365,0.326c9.032-0.238,18.135,0.379,27.105-0.502
		c0.273,0.256,0.812,0.785,1.076,1.05c-2.337,1.041-4.94,1.534-7.127,2.884c-2.725,2.293-5.442,4.648-8.591,6.359
		c-0.512-0.485-1.023-0.979-1.526-1.464c-0.847,3.634-3.537,6.395-6.024,9.015c-0.565,1.394-1.438,2.611-2.682,3.476
		c-1.235,3.298-4.199,5.416-7.162,7.047c-0.785,1.438-1.508,2.955-2.814,3.996c-0.458-8.521-0.115-17.068-0.229-25.598
		C311.93,274.807,311.577,272.487,312.451,270.414z"/>
	<path fill="#F7F7F7" d="M443.145,285.568c3.898-0.988,7.929-1.358,11.793-2.514c0.758,1.094,1.729,2.205,1.631,3.643
		c0.071,8.521,0,17.05,0.009,25.571c0.185,1.676-1.076,2.796-2.708,2.611c-15.004-0.018-30.025-0.088-45.038,0.009
		c-1.5-0.062-3.775-0.671-3.475-2.62c0-8.124-0.009-16.265,0.291-24.38c0.238-0.221,0.697-0.67,0.926-0.891
		c8.688,1.084,17.456,0.185,26.179,0.494C436.344,287.729,439.713,286.379,443.145,285.568z"/>
	<path fill="#F7F7F7" d="M400.974,395.613c5.557,0.759,11.167,0.335,16.75,0.424c17.059,0.105,34.109-0.168,51.168,0.053v29.099
		c-22.528,0.071-45.064-0.027-67.592,0.079c-0.864,4.005-1.138,8.106-0.353,12.155c-1.782,0-3.546,0.035-5.319,0.035
		c0.132-1.518,0.317-3.026,0.768-4.472c1.314-3.943,0.908-8.159,1.703-12.199c0.67-3.184-0.159-6.359-0.256-9.526
		c0.114-1.491,1.914-1.773,2.902-2.532C400.991,404.363,400.833,399.979,400.974,395.613z"/>
</g>
<g>
	<path fill="#6980A5" d="M375.967,135.565c0.529,1.376,1.226,2.664,1.896,3.978c-0.617,0.855-1.314,1.649-2.064,2.391
		c-1.014-0.688-2.011-1.394-3.069-2.002C374.626,139.2,375.5,137.436,375.967,135.565z"/>
</g>
<g>
	<path fill="#0C0C0C" d="M192.033,282.948c0.45-1.296,0.864-2.822,2.602-2.611c2.117-0.194,1.341,2.241,1.508,3.52
		C194.696,283.918,193.25,283.83,192.033,282.948z"/>
</g>
<g>
	<path fill="#070707" d="M230.446,282.384c-0.132-1.932,2.144-1.429,3.378-1.464c0.088,1.235,0.124,2.479,0.124,3.722
		C232.51,284.509,229.784,284.624,230.446,282.384z"/>
	<path fill="#070707" d="M433.222,330.535c0.097-0.803,0.203-1.614,0.317-2.417c4.243,0.018,8.494,0.035,12.746-0.026
		c0.088,0.838,0.176,1.685,0.264,2.532c-1.702,0.114-3.414,0.185-5.107,0.22c0.062,4.684,0.044,9.358,0.044,14.042
		c-1.077-0.044-2.135-0.088-3.193-0.142c0.142-4.675,0.071-9.349,0.071-14.016C436.635,330.773,434.915,330.765,433.222,330.535z"/>
</g>
<g>
	<path d="M190.515,285.268c12.278-0.291,24.565-0.088,36.844-0.15c1.614-0.45,2.973,2.117,0.935,2.646
		c-12.675-0.062-25.368,0.309-38.025-0.176C190.33,287.005,190.454,285.85,190.515,285.268z"/>
</g>
<g>
	<path fill="#030404" d="M288.441,330.897c2.708-4.667,11.634-3.432,11.935,2.408c-1.032-0.053-2.047-0.106-3.061-0.159
		c-0.732-3.176-5.001-3.237-6.58-0.688c3.008,2.867,8.485,1.879,10.258,6.209c0.724,7.171-10.047,8.397-13.257,3.167
		c-0.044-0.415-0.132-1.252-0.176-1.676c0.6-0.194,1.782-0.591,2.382-0.785c1.243,1.156,2.69,2.576,2.946,4.34
		c0.37-1.156,1.252-1.72,2.646-1.667c-0.026,0.415-0.079,1.262-0.106,1.685c0.238-1.711,2.435-2.32,2.426-4.084
		c-2.152-2.25-5.733-1.552-8.115-3.466C287.956,335.06,287.947,332.705,288.441,330.897z"/>
</g>
<g>
	<g>
		<path fill="#070708" d="M308.658,328.374c2.779-0.829,5.91-0.018,8.088,1.862c3.264,3.528,3.149,9.676-0.353,13.01
			c-2.655,2.125-6.545,2.178-9.509,0.688C300.993,340.652,301.901,330.032,308.658,328.374z M309.346,330.905
			c-4.939,2.32-3.528,12.64,2.646,11.458C318.149,340.837,316.332,328.506,309.346,330.905z"/>
	</g>
</g>
<g>
	<path fill="#060505" d="M321.58,328.206c1.72-0.062,3.449-0.079,5.177-0.062c0.988,4.093,1.579,8.318,3.079,12.27
		c0.759-4.102,1.958-8.097,2.726-12.19c1.685-0.08,3.378-0.106,5.072-0.124c0.009,5.619,0.035,11.247-0.009,16.874
		c-0.776-0.018-2.337-0.044-3.123-0.062c-0.115-4.393-0.22-8.785-0.15-13.168c-1.535,4.225-2.064,8.741-2.972,13.125
		c-1.279-0.15-3.731,0.609-3.688-1.394c-0.556-3.987-1.878-7.815-2.223-11.837c-0.873,4.339-0.379,8.794-0.626,13.187
		c-1.032,0.018-2.063,0.035-3.087,0.062C321.748,339.32,321.889,333.754,321.58,328.206z"/>
</g>
<g>
	<path fill="#030303" d="M340.879,328.162c4.216-0.053,8.433-0.106,12.648,0.071c-0.088,0.608-0.264,1.835-0.353,2.452
		c-3.043,0.053-6.086-0.053-9.121,0.203c0.018,1.103,0.026,2.205,0.035,3.317c2.875,0.132,5.76,0.123,8.645,0.123
		c0,0.644,0.008,1.932,0.018,2.567c-2.884,0.027-5.76,0.027-8.635,0.044c0.026,1.808,0.043,3.625,0.07,5.433
		c3.078,0.044,6.166-0.053,9.252,0.035c0.115,0.829,0.159,1.667,0.238,2.514c-4.269-0.018-8.547-0.044-12.816,0.009
		C340.897,339.338,340.844,333.754,340.879,328.162z"/>
</g>
<g>
	<path fill="#010504" d="M355.936,328.162c4.331,0.018,8.662-0.159,12.993,0.071c-0.009,0.626-0.018,1.87-0.026,2.487
		c-1.641,0.018-3.272-0.009-4.904,0c0.026,4.684,0.035,9.376-0.027,14.069c-1.058,0.009-2.117,0.018-3.167,0.026
		c0.106-4.71-0.008-9.412,0.097-14.122c-1.711,0.009-3.413,0.009-5.107,0C355.83,330.059,355.9,328.797,355.936,328.162z"/>
</g>
<g>
	<path fill="#050406" d="M370.755,328.127c0.785,0,2.363,0,3.157,0c0.009,2.293,0,4.587-0.018,6.889
		c2.311,0.062,4.622,0.062,6.924-0.062c-0.044-2.285-0.044-4.578-0.036-6.862c0.812,0.026,2.417,0.062,3.22,0.088
		c-0.08,5.548-0.009,11.104-0.026,16.653c-1.129,0-2.249-0.008-3.369-0.018c0.123-2.426,0.176-4.851,0.185-7.268
		c-2.303-0.018-4.613-0.035-6.916-0.018c-0.018,2.426,0.282,4.887-0.08,7.303c-0.758,0.009-2.284,0.035-3.052,0.044
		C370.772,339.294,370.807,333.71,370.755,328.127z"/>
</g>
<g>
	<path fill="#040205" d="M386.993,328.145c1.067,0.009,2.134,0.026,3.202,0.044c-0.07,5.557-0.088,11.123,0,16.689
		c-1.067-0.018-2.125-0.018-3.184-0.018C387.011,339.285,387.055,333.719,386.993,328.145z"/>
</g>
<g>
	<path fill="#050506" d="M393.167,328.136c1.085,0.009,2.179,0.018,3.272,0.026c2.134,3.82,4.313,7.63,6.73,11.282
		c-0.053-3.784-0.053-7.56-0.036-11.334c0.803,0.009,2.399,0.018,3.193,0.026c-0.018,5.636,0.027,11.273-0.018,16.909
		c-1.19-0.106-2.381-0.212-3.563-0.309c-2.09-3.546-3.854-7.365-6.474-10.541c-0.115,3.59,0.062,7.18-0.036,10.77
		c-0.767-0.035-2.311-0.115-3.078-0.15C393.194,339.259,393.194,333.702,393.167,328.136z"/>
</g>
<g>
	<path fill="#040405" d="M409.874,332.661c2.452-5.663,11.546-6.236,14.642-0.909c-0.714,0.635-1.473,1.218-2.275,1.756
		c-1.482-1.473-3.123-3.388-5.486-2.761c-4.234,0.15-5.037,5.733-3.634,8.873c1.182,4.393,9.165,3.414,8.556-1.446
		c-1.429-0.071-2.849-0.071-4.27-0.229c-0.044-0.9,0.167-1.729,0.635-2.487c2.161,0.185,4.331,0.194,6.51,0.15
		c-0.036,2.54-0.026,5.081-0.15,7.629c-2.955,1.015-6.113,2.337-9.262,1.42l-0.521-0.203c-0.22-0.097-0.67-0.273-0.891-0.37
		C409.256,342.452,408.375,336.639,409.874,332.661z"/>
</g>
<g>
	<g>
		<path fill="#070506" d="M447.899,334.151c0.979-6.386,9.932-8.053,13.857-3.422c2.161,2.743,2.161,6.651,1.076,9.817
			c-2.152,5.416-10.628,5.945-13.76,1.208c-1.456-2.02-1.579-4.587-1.649-6.977c-0.3,0.008-0.891,0.026-1.191,0.026
			C446.779,334.583,447.334,334.363,447.899,334.151z M453.968,330.861c-4.384,2.02-4.128,10.126,0.679,11.538
			c5.53,1.014,7.021-6.959,4.172-10.347C457.664,330.517,455.67,330.561,453.968,330.861z"/>
	</g>
</g>
<g>
	<path fill="#F8F9F8" d="M309.346,330.905c6.986-2.399,8.803,9.932,2.646,11.458C305.818,343.545,304.406,333.225,309.346,330.905z"
		/>
</g>
<g>
	<path fill="#F7F7F5" d="M413.12,339.62c-1.402-3.14-0.6-8.723,3.634-8.873c2.364-0.627,4.004,1.288,5.486,2.761
		c-1.42,0.608-2.84,1.217-4.199,1.949c-0.468,0.758-0.679,1.587-0.635,2.487c1.42,0.159,2.84,0.159,4.27,0.229
		C422.284,343.034,414.301,344.013,413.12,339.62z"/>
</g>
<g>
	<path fill="#FBFBF9" d="M453.968,330.861c1.702-0.3,3.696-0.344,4.851,1.191c2.849,3.387,1.358,11.361-4.172,10.347
		C449.839,340.987,449.583,332.881,453.968,330.861z"/>
</g>
<g>
	<path fill="#FAFAFA" d="M189.598,340.344c-1.914-0.741-1.658-2.1-0.097-2.92c3.069,1.853,5.918,4.172,9.412,5.239
		c-2.893,1.703-6.148,3.158-7.833,6.245C191.115,345.971,191.468,342.849,189.598,340.344z"/>
	<path fill="#FAFAFA" d="M291.378,357.94c2.002,0.009,4.004,0.15,5.98,0.512c2.1,2.911,2.073,7.083,0.468,10.206
		c-1.711,1.579-4.304,0.837-6.404,0.987C291.414,365.747,291.422,361.839,291.378,357.94z"/>
</g>
<g>
	<path fill="#E4E4E4" d="M413.728,344.083c0.221,0.097,0.671,0.273,0.891,0.37l0.521,0.203c0.009,0.467,0.009,1.385,0.018,1.844
		c0.644,0.124,1.932,0.379,2.576,0.502c-1.332,0.335-2.655,0.67-3.969,1.014c-0.494-0.67-0.979-1.341-1.456-2.002
		C412.661,345.53,413.375,344.569,413.728,344.083z"/>
</g>
<g>
	<path fill="#D2D2D2" d="M193.85,355.409c0.256-2.611,2.479-4.455,4.128-6.29c-0.865,1.729-2.258,3.105-3.537,4.525
		C194.291,354.086,194,354.968,193.85,355.409z"/>
</g>
<g>
	<g>
		<path fill="#050503" d="M288.238,355.479c4.189,0.326,9.509-1.376,12.49,2.549c2.285,3.845,2.241,9.35-0.917,12.71
			c-3.378,2.434-7.727,1.252-11.573,1.438C288.309,366.611,288.309,361.045,288.238,355.479z M291.378,357.94
			c0.044,3.899,0.035,7.806,0.044,11.705c2.1-0.15,4.693,0.591,6.404-0.987c1.605-3.123,1.632-7.295-0.468-10.206
			C295.383,358.091,293.381,357.949,291.378,357.94z"/>
	</g>
</g>
<g>
	<g>
		<path fill="#050705" d="M310.219,355.594c3.378-0.759,7.409,0.556,9.05,3.767c1.597,3.263,1.376,7.559-0.988,10.426
			c-3.37,3.837-10.655,3.219-12.984-1.464C303.021,363.744,304.653,356.768,310.219,355.594z M311.048,358.161
			c-3.546,0.882-3.952,5.875-2.805,8.768c1.041,3.669,7.109,3.696,8.071-0.026C318.175,363.232,316.084,356.608,311.048,358.161z"/>
	</g>
</g>
<g>
	<path fill="#000304" d="M329.078,355.585c1.111-0.071,2.231-0.132,3.36-0.186c-0.07,2.311-0.062,4.631-0.044,6.951
		c2.24-0.035,4.481-0.035,6.721-0.062c0.044-2.32,0.062-4.64,0.062-6.959c1.094,0.088,2.188,0.185,3.299,0.282
		c-0.141,5.495-0.177,10.991-0.009,16.486c-1.12,0.079-2.249,0.158-3.369,0.238c0.115-2.558,0.115-5.116-0.009-7.665
		c-2.223,0.141-4.454,0.141-6.677,0.088c-0.044,2.523-0.071,5.045-0.053,7.568c-1.084-0.079-2.161-0.159-3.228-0.229
		C329.228,366.593,329.315,361.081,329.078,355.585z"/>
</g>
<g>
	<path fill="#040408" d="M345.942,355.382c4.154,0.142,8.309-0.053,12.463,0.167c-0.018,0.609-0.044,1.826-0.062,2.435
		c-3.096,0.062-6.183,0.026-9.27,0.088c0,1.182,0.009,2.373,0.009,3.564c2.946-0.027,5.892-0.027,8.838,0.097
		c-0.088,0.626-0.282,1.879-0.379,2.505c-2.822-0.026-5.645-0.026-8.458,0.044c0.009,1.772,0.009,3.554,0.009,5.345
		c3.175,0.035,6.351,0.018,9.535,0.035c-0.035,0.644-0.097,1.914-0.124,2.549c-4.181,0.071-8.362-0.008-12.543,0.08
		C345.942,366.655,345.969,361.019,345.942,355.382z"/>
</g>
<g>
	<g>
		<path fill="#040504" d="M361.422,355.515c3.582,0.203,7.33-0.617,10.814,0.423c4.269,1.323,3.264,9.023-1.367,8.883
			c2.135,2.188,3.713,4.824,5.451,7.33c-1.271,0.044-2.541,0.105-3.811,0.159c-2.373-2.558-3.678-7.709-7.965-6.968
			c0.097,2.285,0.105,4.578,0.132,6.871c-1.094-0.008-2.188,0-3.272,0C361.537,366.646,361.51,361.081,361.422,355.515z
			 M364.581,358.038c0,1.658,0.052,3.316,0.255,4.975c1.782-0.105,3.59-0.018,5.38-0.256c1.764-0.952,2.02-3.925-0.044-4.666
			C368.312,357.949,366.441,358.029,364.581,358.038z"/>
	</g>
</g>
<g>
	<path fill="#040302" d="M378.217,355.524c4.128-0.124,8.265-0.009,12.401-0.115c-0.009,0.829-0.009,1.667,0,2.505
		c-3.087,0.167-6.174,0.124-9.252,0.079c-0.009,1.208-0.018,2.426-0.018,3.644c2.902-0.027,5.804-0.044,8.697,0.141
		c-0.009,0.591-0.044,1.773-0.062,2.364c-2.867,0.097-5.733,0.088-8.591,0.088c-0.026,1.808-0.026,3.616-0.009,5.433
		c3.158,0,6.316-0.026,9.473,0.044c0.009,0.617,0.044,1.844,0.053,2.461c-4.243,0.141-8.476,0.026-12.719,0.07
		C378.252,366.664,378.27,361.098,378.217,355.524z"/>
</g>
<g>
	<path fill="#F9FAF9" d="M311.048,358.161c5.037-1.552,7.127,5.072,5.266,8.742c-0.961,3.722-7.03,3.695-8.071,0.026
		C307.096,364.036,307.502,359.043,311.048,358.161z"/>
</g>
<g>
	<path fill="#F7FAF6" d="M364.581,358.038c1.861-0.009,3.731-0.088,5.592,0.053c2.064,0.741,1.808,3.713,0.044,4.666
		c-1.791,0.238-3.599,0.15-5.38,0.256C364.633,361.354,364.581,359.696,364.581,358.038z"/>
</g>
</svg>
