<?xml version="1.0" encoding="UTF-8" ?>
<!DOCTYPE svg PUBLIC "-//W3C//DTD SVG 1.1//EN" "http://www.w3.org/Graphics/SVG/1.1/DTD/svg11.dtd">
<svg width="800pt" height="800pt" viewBox="0 0 800 800" version="1.1" xmlns="http://www.w3.org/2000/svg">
<g id="#ffffffff">
<path fill="#ffffff" opacity="1.00" d=" M 570.73 174.68 C 579.80 171.62 588.26 167.09 596.46 162.17 C 603.07 194.52 612.07 226.42 616.78 259.12 C 618.48 265.98 619.80 272.94 620.46 279.99 C 622.46 301.60 622.74 323.31 622.80 345.01 C 624.12 375.86 622.31 406.82 624.56 437.64 C 624.93 476.59 636.88 514.18 639.82 552.88 C 641.79 571.60 641.90 590.46 641.39 609.26 C 640.53 617.95 640.45 626.73 638.62 635.30 C 636.50 649.15 633.20 663.33 624.98 674.96 C 620.63 681.25 613.75 685.39 606.48 687.45 C 602.87 688.63 598.71 689.06 596.01 692.01 C 591.57 696.77 588.66 702.68 584.96 707.99 C 575.74 720.79 565.24 732.79 552.73 742.49 C 539.07 753.21 522.94 761.08 505.71 763.84 C 486.60 767.27 466.88 764.30 448.59 758.28 C 430.47 752.48 413.74 743.20 397.38 733.65 C 366.30 714.88 336.90 693.29 304.53 676.73 C 290.98 669.67 276.06 665.32 263.42 656.54 C 243.96 644.02 230.18 624.17 222.19 602.70 C 215.11 583.38 212.38 562.88 208.45 542.77 C 205.91 530.56 202.44 518.56 199.76 506.39 C 192.16 470.74 188.87 434.34 186.80 398.01 C 185.94 382.39 187.16 366.62 184.61 351.13 C 182.45 342.23 183.38 332.99 184.37 324.00 C 185.38 313.43 186.95 302.92 187.92 292.35 C 189.14 280.99 189.60 269.43 192.68 258.37 C 197.35 258.56 202.30 258.18 206.12 255.17 C 215.68 248.03 222.86 238.27 229.27 228.32 C 232.74 223.32 235.84 218.07 238.72 212.71 C 239.86 211.01 240.95 208.62 243.19 208.30 C 284.25 207.85 325.50 211.73 366.42 206.70 C 369.76 206.40 373.19 206.04 376.51 206.74 C 380.60 207.80 382.85 211.70 385.16 214.89 C 396.73 231.24 405.37 249.50 417.67 265.35 C 419.73 267.68 422.18 271.09 425.76 270.19 C 429.08 269.20 430.73 265.84 431.97 262.89 C 438.75 244.90 439.11 225.43 442.89 206.76 C 443.79 203.26 444.75 198.29 449.17 197.89 C 473.51 193.82 498.24 192.40 522.37 187.06 C 538.63 183.51 554.94 180.01 570.73 174.68 M 298.97 236.86 C 288.29 238.13 277.43 238.22 266.95 240.85 C 249.88 244.49 232.81 248.10 215.76 251.83 C 216.96 252.91 218.47 253.51 219.97 254.06 C 234.09 259.56 248.34 264.88 263.03 268.66 C 272.63 270.70 282.44 273.18 292.32 271.90 C 301.00 271.40 309.62 270.20 318.33 270.27 C 339.51 268.89 360.71 270.65 381.91 270.81 C 381.83 266.42 380.92 262.05 379.00 258.09 C 375.10 250.09 369.87 242.72 363.56 236.45 C 362.08 236.08 360.54 236.23 359.04 236.20 C 339.02 236.37 318.97 235.87 298.97 236.86 M 475.83 245.84 C 476.50 246.59 477.20 247.34 478.12 247.81 C 484.32 251.37 490.21 255.69 494.69 261.33 C 498.89 266.09 502.37 271.71 507.85 275.16 C 513.96 279.40 521.87 279.92 529.03 278.81 C 543.70 277.95 558.37 276.60 573.03 275.82 C 582.87 278.62 592.59 281.92 602.00 285.96 C 605.13 287.31 608.09 289.11 611.41 290.00 C 612.25 278.77 610.75 267.49 608.52 256.50 C 600.91 253.88 593.58 250.45 585.76 248.49 C 580.76 247.36 576.12 244.86 570.95 244.51 C 553.35 242.82 535.62 243.55 517.99 244.24 C 503.91 244.25 489.89 245.41 475.83 245.84 M 457.16 288.16 C 450.77 296.88 443.59 305.33 439.78 315.59 C 438.31 319.36 438.97 323.61 441.02 327.03 C 445.36 334.46 451.06 340.95 456.19 347.82 C 459.79 357.61 465.61 366.50 468.36 376.64 C 471.85 386.02 472.91 396.02 473.97 405.91 C 473.22 405.99 471.70 406.14 470.94 406.22 C 469.65 405.80 468.39 405.29 467.07 405.03 C 465.52 406.13 464.34 407.66 463.09 409.07 C 476.07 414.64 489.64 419.44 501.12 427.88 C 504.78 430.48 507.70 434.28 508.28 438.83 C 505.70 438.25 502.97 437.19 500.45 438.58 C 494.15 441.47 489.87 447.25 485.01 451.99 C 476.96 461.25 468.70 470.31 460.16 479.13 C 456.77 482.82 450.62 481.81 447.00 479.01 C 441.57 474.57 443.18 465.77 437.01 461.98 C 424.38 453.38 410.43 446.68 395.78 442.35 C 393.05 441.40 391.09 443.88 389.93 445.96 C 385.79 448.52 383.39 453.95 385.49 458.57 C 387.95 463.01 393.27 464.37 397.91 465.19 C 406.86 466.67 415.68 468.83 424.28 471.72 C 426.15 472.41 428.11 473.02 429.76 474.21 C 431.71 478.00 432.41 482.44 435.19 485.80 C 438.84 490.65 444.96 493.30 450.99 492.94 C 454.73 492.73 459.09 491.74 460.94 488.10 C 467.86 483.47 472.75 476.46 478.59 470.61 C 486.64 469.74 494.23 466.63 501.67 463.61 C 503.39 463.06 504.22 461.41 505.01 459.93 C 506.46 459.24 508.28 458.80 509.06 457.25 C 510.01 454.39 509.42 450.92 511.59 448.57 C 513.66 446.06 515.79 443.34 516.01 439.95 C 516.59 433.90 512.85 428.35 508.42 424.58 C 499.23 416.69 487.76 412.25 476.57 408.03 C 480.29 404.97 484.00 401.55 485.84 396.98 C 488.26 391.34 488.01 384.81 485.91 379.12 C 480.39 362.90 468.39 350.19 457.87 337.08 C 456.74 331.41 453.67 326.05 454.32 320.11 C 454.65 311.56 458.66 303.85 460.64 295.67 C 468.33 285.20 476.89 274.45 478.57 261.11 C 471.31 270.02 464.46 279.27 457.16 288.16 M 233.91 293.04 C 222.97 298.65 214.62 308.72 210.39 320.19 C 207.45 329.56 207.83 340.21 212.35 349.03 C 211.27 349.19 210.19 349.35 209.11 349.52 C 211.77 356.46 217.73 361.36 223.98 365.00 C 227.15 367.75 230.93 369.91 235.01 370.95 C 252.71 376.07 272.39 377.77 289.90 370.94 C 300.18 367.04 310.39 362.09 318.21 354.19 C 321.85 350.24 326.01 345.33 324.43 339.53 C 325.46 337.16 326.48 334.67 326.43 332.05 C 326.49 321.65 321.81 311.67 314.94 304.05 C 307.08 294.68 295.48 289.37 283.90 286.21 C 267.17 282.21 248.88 284.44 233.91 293.04 M 333.79 298.93 C 332.56 305.19 335.89 311.10 338.39 316.62 C 344.04 328.62 353.12 338.43 361.52 348.53 C 363.81 351.28 366.22 353.96 369.05 356.17 C 368.33 352.80 367.15 349.54 365.53 346.50 C 362.38 340.43 359.29 334.29 355.31 328.71 C 348.57 318.49 341.75 308.24 333.79 298.93 M 538.55 311.63 C 528.87 317.22 519.94 324.15 512.46 332.48 C 508.26 337.32 504.07 343.24 504.83 350.00 C 505.81 357.38 507.19 364.78 510.20 371.64 C 512.72 378.96 516.68 386.12 523.16 390.65 C 524.62 393.58 527.56 395.21 530.27 396.80 C 541.10 402.62 553.73 405.01 565.96 403.90 C 575.94 403.11 585.01 398.35 593.60 393.55 C 597.04 391.10 601.77 389.26 602.82 384.72 C 607.21 380.68 610.61 375.64 612.98 370.18 C 617.12 362.35 617.61 353.10 616.14 344.51 C 612.93 331.26 603.46 319.80 591.44 313.51 C 581.30 307.72 569.59 304.98 557.96 304.83 C 551.03 305.39 544.60 308.38 538.55 311.63 M 376.58 401.59 C 367.27 409.16 361.61 420.51 359.59 432.21 C 359.01 437.29 359.24 443.11 362.98 447.03 C 367.48 452.23 375.20 451.77 381.40 450.97 C 376.94 447.59 370.49 446.56 367.64 441.26 C 364.97 434.98 367.99 428.11 370.31 422.19 C 374.65 411.70 385.02 405.87 394.67 401.03 C 391.60 399.01 388.36 397.27 385.05 395.70 C 382.20 397.63 379.20 399.35 376.58 401.59 M 500.09 400.07 C 500.92 402.59 502.60 404.69 504.61 406.38 C 516.44 416.90 530.88 423.89 543.07 433.94 C 549.92 441.90 555.88 450.60 561.96 459.15 C 557.75 443.01 546.56 429.55 533.76 419.26 C 523.45 411.42 512.16 404.79 500.09 400.07 M 315.16 422.16 C 300.97 432.55 289.27 446.96 284.26 464.00 C 290.56 455.44 296.63 446.63 303.50 438.49 C 314.38 429.85 326.62 423.09 337.65 414.65 C 340.97 411.91 344.81 409.23 346.23 404.96 C 335.12 409.13 324.66 415.06 315.16 422.16 M 323.56 493.34 C 314.14 495.72 305.12 499.39 295.71 501.80 C 289.61 503.29 284.18 506.57 278.19 508.39 C 274.55 509.60 271.11 511.33 267.43 512.44 C 263.70 513.71 259.66 514.43 256.47 516.89 C 255.51 516.94 254.51 516.99 253.66 516.46 C 248.44 513.91 243.54 510.58 237.89 509.02 C 238.95 511.49 240.76 513.52 242.94 515.08 C 258.51 527.15 275.65 536.97 291.85 548.14 C 312.02 565.58 330.63 584.78 347.79 605.19 C 350.90 608.81 353.33 612.95 356.50 616.53 C 364.82 626.23 370.57 637.72 377.78 648.21 C 382.85 655.77 388.02 663.64 395.60 668.94 C 395.66 667.19 395.72 665.45 395.82 663.72 C 402.98 671.07 410.69 678.03 419.36 683.55 C 433.59 691.48 449.54 697.59 466.03 697.41 C 475.46 696.46 484.93 695.98 494.39 695.18 C 507.67 693.20 521.30 691.45 533.56 685.61 C 538.67 683.27 544.22 681.38 548.20 677.21 C 554.13 671.20 555.87 662.53 557.93 654.65 C 559.63 649.06 559.93 643.22 560.74 637.48 C 562.63 630.21 564.86 623.02 567.98 616.18 C 571.93 608.12 574.74 599.46 580.00 592.09 C 583.95 585.23 589.00 579.08 595.04 573.96 C 596.91 571.99 600.43 570.59 599.87 567.31 C 598.81 565.07 596.30 564.03 594.39 562.63 C 587.35 558.52 582.70 551.66 577.01 546.03 C 571.95 541.08 567.82 535.25 562.49 530.57 C 556.64 525.38 552.09 518.67 545.24 514.67 C 535.02 507.90 522.65 505.87 510.89 503.36 C 496.81 500.21 482.32 500.54 467.99 500.36 C 449.80 500.38 431.35 499.54 413.75 494.52 C 395.22 489.85 376.24 485.42 356.99 486.61 C 345.68 487.87 334.54 490.39 323.56 493.34 Z" />
<path fill="#ffffff" opacity="1.00" d=" M 123.06 325.03 C 127.43 321.46 133.34 319.79 138.89 321.15 C 144.17 322.50 148.89 325.46 152.93 329.06 C 159.61 335.17 165.08 342.50 169.70 350.26 C 173.24 356.13 176.91 362.02 179.35 368.45 C 180.10 374.61 179.46 380.84 179.89 387.02 C 180.55 394.69 180.39 402.41 181.24 410.07 C 182.66 426.09 183.64 442.17 186.23 458.07 C 188.89 479.04 192.53 499.91 197.72 520.42 C 199.15 525.93 200.91 531.37 201.89 536.99 C 196.54 532.94 191.49 528.52 186.26 524.32 C 175.88 515.87 165.72 507.17 155.54 498.49 C 141.10 486.34 127.18 473.45 115.04 458.97 C 103.41 444.86 93.91 428.12 92.13 409.63 C 90.19 392.09 94.59 374.40 101.51 358.36 C 106.33 345.99 112.68 333.66 123.06 325.03 M 106.09 419.85 C 112.68 403.41 119.62 387.09 127.00 370.98 C 129.37 366.43 131.84 360.86 137.16 359.26 C 144.96 357.81 150.21 364.77 155.69 369.01 C 151.45 364.34 147.28 359.54 142.00 356.01 C 139.07 354.13 136.46 351.35 133.14 350.34 C 111.16 365.12 100.86 394.23 106.09 419.85 M 162.36 399.89 C 159.38 413.67 173.21 424.93 170.40 438.76 C 168.55 446.69 161.75 452.17 158.91 459.63 C 162.47 460.88 166.35 459.55 169.01 457.04 C 173.27 453.38 173.82 447.27 173.87 442.01 C 174.51 429.40 170.71 417.13 166.31 405.48 C 165.20 403.52 164.92 400.46 162.36 399.89 Z" />
<path fill="#ffffff" opacity="1.00" d=" M 349.79 528.78 C 360.06 519.92 374.63 516.01 387.89 519.34 C 396.54 521.51 405.66 523.41 412.83 529.08 C 418.02 533.18 423.83 536.76 427.81 542.17 C 430.35 546.07 432.81 550.18 433.43 554.88 C 435.39 562.15 437.92 569.33 438.46 576.89 C 439.10 583.46 443.25 590.53 439.81 596.88 C 437.81 600.18 433.33 599.72 430.02 600.17 C 420.97 600.34 411.87 600.08 402.93 598.57 C 394.87 597.51 386.57 598.38 378.67 596.16 C 371.40 594.09 364.00 590.84 359.26 584.72 C 355.30 580.02 353.00 574.14 351.57 568.25 C 351.07 559.06 350.47 549.62 347.17 540.93 C 347.04 541.72 346.79 543.30 346.67 544.09 C 346.26 538.87 345.32 532.63 349.79 528.78 Z" />
<path fill="#ffffff" opacity="1.00" d=" M 460.65 530.82 C 463.04 528.95 466.17 529.31 469.01 529.18 C 474.01 529.21 479.06 528.95 484.03 529.73 C 489.84 531.06 495.64 532.95 500.61 536.33 C 504.59 538.91 508.09 542.13 511.81 545.06 C 516.18 548.71 521.03 552.08 523.97 557.09 C 527.50 563.16 528.73 570.18 530.24 576.95 C 532.05 586.83 535.58 596.71 533.96 606.89 C 533.69 608.94 532.38 611.54 529.93 611.24 C 520.97 611.45 512.02 610.68 503.06 610.39 C 496.32 609.42 489.41 610.21 482.75 608.63 C 477.29 607.44 471.46 607.17 466.48 604.41 C 464.04 603.11 463.18 600.30 461.82 598.10 C 459.00 593.27 457.43 587.89 455.35 582.74 C 451.58 574.54 448.23 566.00 447.05 557.00 C 446.64 553.58 445.35 550.36 444.67 547.01 C 445.15 544.71 446.17 542.51 447.87 540.86 C 451.67 536.97 456.11 533.77 460.65 530.82 Z" />
<path fill="#ffffff" opacity="1.00" d=" M 586.25 569.10 C 587.85 568.29 589.29 566.06 591.27 566.78 C 591.96 567.76 592.03 569.16 590.98 569.95 C 587.23 573.86 582.87 577.23 579.71 581.68 C 573.82 590.51 568.23 599.60 564.48 609.57 C 558.56 622.26 555.10 636.05 554.01 649.98 C 553.64 652.43 552.82 654.77 552.02 657.11 C 550.61 661.18 550.41 665.63 548.42 669.50 C 546.54 673.40 543.06 676.23 539.37 678.33 C 531.68 682.49 523.62 686.19 514.94 687.66 C 506.95 689.02 498.95 690.46 490.90 691.42 C 477.97 691.72 464.92 694.53 452.07 691.88 C 434.28 688.57 417.38 680.24 404.24 667.76 C 394.15 658.18 385.42 647.24 377.55 635.79 C 379.90 632.46 382.75 629.53 385.97 627.04 C 392.77 633.98 400.80 639.52 408.83 644.92 C 414.29 650.57 422.97 650.29 430.12 648.89 C 439.64 646.67 449.46 648.23 459.09 647.11 C 467.74 646.13 476.40 647.22 485.03 647.82 C 491.45 648.23 497.74 650.13 504.22 649.57 C 512.18 650.08 520.89 652.22 528.37 648.36 C 533.12 645.27 536.03 639.98 537.40 634.58 C 538.81 628.93 541.01 623.52 543.32 618.20 C 547.94 608.06 551.16 597.06 558.31 588.29 C 559.93 586.02 562.72 585.24 565.00 583.84 C 567.27 582.52 568.93 580.44 571.02 578.89 C 573.74 577.15 577.32 577.74 579.99 575.91 C 582.35 573.89 583.49 570.73 586.25 569.10 Z" />
</g>
<g id="#000000ff">
<path fill="#000000" opacity="1.00" d=" M 549.06 27.09 C 555.97 26.66 562.08 22.63 568.99 22.20 C 577.49 22.61 586.30 23.64 593.73 28.18 C 601.80 32.45 607.83 39.45 613.87 46.11 C 632.58 70.54 643.58 99.84 651.83 129.23 C 659.34 154.68 665.00 180.70 668.23 207.05 C 668.31 209.71 666.69 212.09 664.99 214.00 C 651.41 226.39 638.55 239.54 625.50 252.48 C 623.98 253.86 622.62 255.70 623.24 257.88 C 628.88 291.63 627.51 325.94 627.23 360.01 C 626.29 370.01 626.61 380.07 625.90 390.09 C 625.38 404.03 624.42 418.02 625.63 431.95 C 625.54 433.51 626.14 435.23 625.39 436.70 L 624.56 437.64 C 622.31 406.82 624.12 375.86 622.80 345.01 C 622.74 323.31 622.46 301.60 620.46 279.99 C 619.80 272.94 618.48 265.98 616.78 259.12 C 612.07 226.42 603.07 194.52 596.46 162.17 C 588.26 167.09 579.80 171.62 570.73 174.68 C 554.94 180.01 538.63 183.51 522.37 187.06 C 498.24 192.40 473.51 193.82 449.17 197.89 C 444.75 198.29 443.79 203.26 442.89 206.76 C 439.11 225.43 438.75 244.90 431.97 262.89 C 430.73 265.84 429.08 269.20 425.76 270.19 C 422.18 271.09 419.73 267.68 417.67 265.35 C 405.37 249.50 396.73 231.24 385.16 214.89 C 382.85 211.70 380.60 207.80 376.51 206.74 C 373.19 206.04 369.76 206.40 366.42 206.70 C 325.50 211.73 284.25 207.85 243.19 208.30 C 240.95 208.62 239.86 211.01 238.72 212.71 C 235.84 218.07 232.74 223.32 229.27 228.32 C 222.86 238.27 215.68 248.03 206.12 255.17 C 202.30 258.18 197.35 258.56 192.68 258.37 C 189.60 269.43 189.14 280.99 187.92 292.35 C 186.95 302.92 185.38 313.43 184.37 324.00 C 183.38 332.99 182.45 342.23 184.61 351.13 C 187.16 366.62 185.94 382.39 186.80 398.01 C 188.87 434.34 192.16 470.74 199.76 506.39 C 202.44 518.56 205.91 530.56 208.45 542.77 C 212.38 562.88 215.11 583.38 222.19 602.70 C 230.18 624.17 243.96 644.02 263.42 656.54 C 276.06 665.32 290.98 669.67 304.53 676.73 C 336.90 693.29 366.30 714.88 397.38 733.65 C 413.74 743.20 430.47 752.48 448.59 758.28 C 466.88 764.30 486.60 767.27 505.71 763.84 C 522.94 761.08 539.07 753.21 552.73 742.49 C 554.65 743.34 556.57 744.21 558.49 745.10 C 544.44 757.01 527.24 765.36 509.01 768.33 C 488.17 771.61 466.82 768.34 446.90 761.89 C 417.16 751.90 390.08 735.72 363.18 719.88 C 346.56 710.32 330.14 700.31 312.67 692.34 C 297.03 684.76 280.61 678.57 266.03 668.99 C 256.22 663.16 247.55 655.48 240.34 646.65 C 227.77 630.98 219.46 612.24 214.33 592.90 C 210.18 577.62 207.95 561.91 204.62 546.45 C 196.35 541.15 189.15 534.22 181.47 528.07 C 183.06 526.80 184.65 525.55 186.26 524.32 C 191.49 528.52 196.54 532.94 201.89 536.99 C 200.91 531.37 199.15 525.93 197.72 520.42 C 192.53 499.91 188.89 479.04 186.23 458.07 C 183.64 442.17 182.66 426.09 181.24 410.07 C 180.39 402.41 180.55 394.69 179.89 387.02 C 179.46 380.84 180.10 374.61 179.35 368.45 C 176.91 362.02 173.24 356.13 169.70 350.26 C 165.08 342.50 159.61 335.17 152.93 329.06 C 148.89 325.46 144.17 322.50 138.89 321.15 C 138.39 320.44 137.88 319.73 137.39 319.02 C 138.63 317.80 139.86 316.58 141.11 315.37 C 147.14 317.49 152.69 320.76 157.64 324.78 C 144.94 302.82 138.41 277.95 133.87 253.18 C 132.81 244.36 131.52 235.57 130.15 226.80 C 128.66 214.26 128.00 201.62 128.38 188.99 C 128.45 181.97 128.58 174.75 131.12 168.11 C 132.57 165.06 134.97 160.94 139.00 161.97 C 147.77 163.84 152.80 171.99 159.02 177.64 C 164.91 155.36 168.13 132.47 172.63 109.88 C 174.18 102.85 174.56 95.36 177.91 88.88 C 178.24 88.64 178.88 88.17 179.20 87.93 C 185.71 86.32 192.44 86.88 199.08 86.63 C 236.02 83.18 272.98 79.89 309.99 77.21 C 327.83 75.78 345.81 74.53 363.19 70.02 C 381.09 65.19 397.69 56.76 414.90 50.05 C 429.32 44.18 443.80 38.22 459.02 34.71 C 488.57 28.25 518.97 28.21 549.06 27.09 M 165.24 332.94 C 170.17 338.49 173.67 345.04 177.80 351.15 C 177.37 346.73 176.45 342.37 176.31 337.92 C 172.39 336.83 168.69 335.08 165.24 332.94 Z" />
<path fill="#000000" opacity="1.00" d=" M 298.97 236.86 C 318.97 235.87 339.02 236.37 359.04 236.20 C 360.54 236.23 362.08 236.08 363.56 236.45 C 369.87 242.72 375.10 250.09 379.00 258.09 C 380.92 262.05 381.83 266.42 381.91 270.81 C 360.71 270.65 339.51 268.89 318.33 270.27 C 309.62 270.20 301.00 271.40 292.32 271.90 C 282.44 273.18 272.63 270.70 263.03 268.66 C 248.34 264.88 234.09 259.56 219.97 254.06 C 218.47 253.51 216.96 252.91 215.76 251.83 C 232.81 248.10 249.88 244.49 266.95 240.85 C 277.43 238.22 288.29 238.13 298.97 236.86 Z" />
<path fill="#000000" opacity="1.00" d=" M 475.83 245.84 C 489.89 245.41 503.91 244.25 517.99 244.24 C 535.62 243.55 553.35 242.82 570.95 244.51 C 576.12 244.86 580.76 247.36 585.76 248.49 C 593.58 250.45 600.91 253.88 608.52 256.50 C 610.75 267.49 612.25 278.77 611.41 290.00 C 608.09 289.11 605.13 287.31 602.00 285.96 C 592.59 281.92 582.87 278.62 573.03 275.82 C 558.37 276.60 543.70 277.95 529.03 278.81 C 521.87 279.92 513.96 279.40 507.85 275.16 C 502.37 271.71 498.89 266.09 494.69 261.33 C 490.21 255.69 484.32 251.37 478.12 247.81 C 477.20 247.34 476.50 246.59 475.83 245.84 Z" />
</g>
<g id="#030303ff">
<path fill="#030303" opacity="1.00" d=" M 457.16 288.16 C 464.46 279.27 471.31 270.02 478.57 261.11 C 476.89 274.45 468.33 285.20 460.64 295.67 C 457.12 300.20 453.92 304.97 450.87 309.83 C 448.11 314.20 447.23 319.91 449.28 324.74 C 451.25 329.40 454.62 333.27 457.87 337.08 C 468.39 350.19 480.39 362.90 485.91 379.12 C 488.01 384.81 488.26 391.34 485.84 396.98 C 484.00 401.55 480.29 404.97 476.57 408.03 C 487.76 412.25 499.23 416.69 508.42 424.58 C 512.85 428.35 516.59 433.90 516.01 439.95 C 515.79 443.34 513.66 446.06 511.59 448.57 C 509.42 450.92 510.01 454.39 509.06 457.25 C 508.28 458.80 506.46 459.24 505.01 459.93 C 500.25 461.66 495.54 463.56 490.64 464.84 C 486.35 466.07 481.40 466.70 478.59 470.61 C 472.75 476.46 467.86 483.47 460.94 488.10 C 454.85 489.43 447.93 489.21 442.81 485.27 C 438.16 482.01 436.36 476.40 434.41 471.36 C 433.95 469.59 431.99 469.20 430.55 468.53 C 421.61 465.18 412.30 462.88 402.88 461.38 C 398.16 460.53 392.72 459.40 389.97 455.04 C 388.15 452.27 389.04 448.89 389.93 445.96 C 391.09 443.88 393.05 441.40 395.78 442.35 C 410.43 446.68 424.38 453.38 437.01 461.98 C 443.18 465.77 441.57 474.57 447.00 479.01 C 450.62 481.81 456.77 482.82 460.16 479.13 C 468.70 470.31 476.96 461.25 485.01 451.99 C 489.87 447.25 494.15 441.47 500.45 438.58 C 502.97 437.19 505.70 438.25 508.28 438.83 C 507.70 434.28 504.78 430.48 501.12 427.88 C 489.64 419.44 476.07 414.64 463.09 409.07 C 464.34 407.66 465.52 406.13 467.07 405.03 C 468.39 405.29 469.65 405.80 470.94 406.22 C 472.14 406.57 473.36 406.84 474.59 407.11 C 477.14 397.47 479.78 387.07 476.54 377.26 C 472.62 365.75 464.07 356.75 456.19 347.82 C 451.06 340.95 445.36 334.46 441.02 327.03 C 438.97 323.61 438.31 319.36 439.78 315.59 C 443.59 305.33 450.77 296.88 457.16 288.16 Z" />
<path fill="#030303" opacity="1.00" d=" M 233.91 293.04 C 248.88 284.44 267.17 282.21 283.90 286.21 C 295.48 289.37 307.08 294.68 314.94 304.05 C 321.81 311.67 326.49 321.65 326.43 332.05 C 326.48 334.67 325.46 337.16 324.43 339.53 C 320.03 345.68 314.44 350.93 308.31 355.32 C 299.61 361.66 290.02 366.96 279.64 369.96 C 272.95 371.99 265.88 371.17 259.01 371.79 C 251.01 372.48 242.91 372.55 235.01 370.95 C 230.93 369.91 227.15 367.75 223.98 365.00 C 219.31 360.31 215.03 355.13 212.35 349.03 C 207.83 340.21 207.45 329.56 210.39 320.19 C 214.62 308.72 222.97 298.65 233.91 293.04 M 237.07 299.13 C 226.00 305.17 217.22 316.27 215.66 328.98 C 214.66 337.18 217.49 345.30 221.91 352.10 C 223.04 353.54 224.11 355.25 225.88 355.96 C 230.76 365.40 242.95 365.98 252.27 365.19 C 257.19 365.59 262.08 364.30 267.03 364.52 C 275.75 364.93 284.13 361.76 291.68 357.66 C 301.28 352.44 310.50 346.05 317.34 337.42 C 318.43 335.84 319.49 334.05 319.44 332.08 C 319.56 323.05 315.18 314.38 309.05 307.94 C 301.56 299.35 290.54 294.78 279.65 292.30 C 265.26 289.62 249.78 291.66 237.07 299.13 Z" />
<path fill="#030303" opacity="1.00" d=" M 538.55 311.63 C 544.60 308.38 551.03 305.39 557.96 304.83 C 569.59 304.98 581.30 307.72 591.44 313.51 C 603.46 319.80 612.93 331.26 616.14 344.51 C 617.61 353.10 617.12 362.35 612.98 370.18 C 610.61 375.64 607.21 380.68 602.82 384.72 C 590.79 394.48 575.68 400.98 560.02 400.87 C 553.34 400.76 546.51 401.02 540.05 399.05 C 533.95 397.30 528.47 394.03 523.16 390.65 C 516.68 386.12 512.72 378.96 510.20 371.64 C 507.19 364.78 505.81 357.38 504.83 350.00 C 504.07 343.24 508.26 337.32 512.46 332.48 C 519.94 324.15 528.87 317.22 538.55 311.63 M 554.33 312.33 C 544.58 315.10 535.99 320.87 528.13 327.12 C 522.87 331.50 517.80 336.25 513.97 341.97 C 512.63 344.03 511.60 346.47 511.79 348.98 C 512.98 359.54 515.84 370.20 521.87 379.08 C 524.68 383.34 529.21 385.90 533.46 388.52 C 539.06 391.81 545.50 393.46 551.95 393.91 C 564.38 395.36 577.19 392.49 587.95 386.15 C 597.73 381.14 605.62 372.32 608.84 361.74 C 611.68 351.13 608.97 339.48 601.92 331.10 C 594.29 321.17 582.36 315.54 570.37 312.92 C 565.09 312.17 559.60 310.90 554.33 312.33 Z" />
<path fill="#030303" opacity="1.00" d=" M 124.85 316.92 C 129.85 314.19 135.68 314.21 141.11 315.37 C 139.86 316.58 138.63 317.80 137.39 319.02 C 137.88 319.73 138.39 320.44 138.89 321.15 C 133.34 319.79 127.43 321.46 123.06 325.03 C 112.68 333.66 106.33 345.99 101.51 358.36 C 94.59 374.40 90.19 392.09 92.13 409.63 C 93.91 428.12 103.41 444.86 115.04 458.97 C 127.18 473.45 141.10 486.34 155.54 498.49 C 165.72 507.17 175.88 515.87 186.26 524.32 C 184.65 525.55 183.06 526.80 181.47 528.07 C 168.03 517.39 155.13 506.04 142.08 494.90 C 129.08 483.25 116.40 471.09 105.87 457.12 C 93.84 441.35 85.37 422.12 85.66 402.00 C 85.60 392.36 86.97 382.68 89.62 373.41 C 94.10 358.76 99.90 344.29 108.60 331.59 C 113.26 325.97 117.95 319.88 124.85 316.92 Z" />
<path fill="#030303" opacity="1.00" d=" M 376.58 401.59 C 379.20 399.35 382.20 397.63 385.05 395.70 C 388.36 397.27 391.60 399.01 394.67 401.03 C 385.02 405.87 374.65 411.70 370.31 422.19 C 367.99 428.11 364.97 434.98 367.64 441.26 C 370.49 446.56 376.94 447.59 381.40 450.97 C 375.20 451.77 367.48 452.23 362.98 447.03 C 359.24 443.11 359.01 437.29 359.59 432.21 C 361.61 420.51 367.27 409.16 376.58 401.59 Z" />
<path fill="#030303" opacity="1.00" d=" M 162.36 399.89 C 164.92 400.46 165.20 403.52 166.31 405.48 C 170.71 417.13 174.51 429.40 173.87 442.01 C 173.82 447.27 173.27 453.38 169.01 457.04 C 166.35 459.55 162.47 460.88 158.91 459.63 C 161.75 452.17 168.55 446.69 170.40 438.76 C 173.21 424.93 159.38 413.67 162.36 399.89 Z" />
<path fill="#030303" opacity="1.00" d=" M 624.56 437.64 L 625.39 436.70 C 626.80 440.32 626.40 444.27 627.01 448.05 C 629.84 468.84 633.90 489.42 638.11 509.97 C 642.18 528.35 642.60 547.26 643.09 566.00 C 643.00 582.67 643.95 599.32 644.09 615.99 C 643.24 634.32 642.14 653.30 634.22 670.16 C 630.40 679.59 623.06 687.74 613.67 691.83 C 609.42 693.73 604.31 693.59 600.55 696.54 C 597.24 700.05 595.19 704.51 592.46 708.44 C 586.84 716.09 580.83 723.44 574.38 730.39 C 569.50 735.73 563.74 740.14 558.49 745.10 C 556.57 744.21 554.65 743.34 552.73 742.49 C 565.24 732.79 575.74 720.79 584.96 707.99 C 588.66 702.68 591.57 696.77 596.01 692.01 C 598.71 689.06 602.87 688.63 606.48 687.45 C 613.75 685.39 620.63 681.25 624.98 674.96 C 633.20 663.33 636.50 649.15 638.62 635.30 C 640.45 626.73 640.53 617.95 641.39 609.26 C 641.90 590.46 641.79 571.60 639.82 552.88 C 636.88 514.18 624.93 476.59 624.56 437.64 Z" />
</g>
<g id="#fefefeff">
<path fill="#fefefe" opacity="1.00" d=" M 237.07 299.13 C 249.78 291.66 265.26 289.62 279.65 292.30 C 290.54 294.78 301.56 299.35 309.05 307.94 C 315.18 314.38 319.56 323.05 319.44 332.08 C 319.49 334.05 318.43 335.84 317.34 337.42 C 310.50 346.05 301.28 352.44 291.68 357.66 C 284.13 361.76 275.75 364.93 267.03 364.52 C 262.08 364.30 257.19 365.59 252.27 365.19 C 243.29 362.61 234.81 358.66 225.88 355.96 C 224.11 355.25 223.04 353.54 221.91 352.10 C 217.49 345.30 214.66 337.18 215.66 328.98 C 217.22 316.27 226.00 305.17 237.07 299.13 M 233.38 312.37 C 229.65 317.14 229.47 324.16 232.88 329.15 C 236.81 334.98 243.17 338.66 249.49 341.41 C 252.62 342.45 255.98 344.63 259.34 343.19 C 267.53 340.11 276.84 336.82 281.23 328.61 C 278.76 328.46 276.09 328.56 274.00 327.00 C 272.45 324.91 272.16 321.97 274.02 319.97 C 276.09 317.31 279.87 318.61 282.74 318.22 C 282.03 312.72 278.21 308.28 273.78 305.26 C 261.13 297.31 242.28 300.05 233.38 312.37 Z" />
<path fill="#fefefe" opacity="1.00" d=" M 554.33 312.33 C 559.60 310.90 565.09 312.17 570.37 312.92 C 582.36 315.54 594.29 321.17 601.92 331.10 C 608.97 339.48 611.68 351.13 608.84 361.74 C 605.62 372.32 597.73 381.14 587.95 386.15 C 577.19 392.49 564.38 395.36 551.95 393.91 C 545.50 393.46 539.06 391.81 533.46 388.52 C 529.21 385.90 524.68 383.34 521.87 379.08 C 515.84 370.20 512.98 359.54 511.79 348.98 C 511.60 346.47 512.63 344.03 513.97 341.97 C 517.80 336.25 522.87 331.50 528.13 327.12 C 535.99 320.87 544.58 315.10 554.33 312.33 M 542.41 335.64 C 548.60 335.79 554.79 335.22 560.99 335.27 C 563.05 335.14 565.11 336.31 565.90 338.26 C 567.61 341.48 564.44 345.46 561.02 345.38 C 554.65 345.73 548.25 345.58 541.91 346.41 C 543.08 351.11 546.07 355.18 549.81 358.20 C 560.80 366.83 577.81 366.56 588.45 357.45 C 592.85 353.59 596.15 348.00 595.85 341.99 C 596.26 334.69 591.57 328.13 585.66 324.32 C 578.50 319.52 569.36 318.38 561.06 320.27 C 552.99 322.25 545.27 327.55 542.41 335.64 Z" />
<path fill="#fefefe" opacity="1.00" d=" M 317.72 531.98 C 317.74 528.23 317.69 523.10 321.96 521.57 C 327.39 521.56 332.60 524.02 337.09 526.90 C 338.58 529.43 337.91 532.76 338.67 535.59 C 340.35 543.07 344.06 550.56 342.28 558.40 C 338.11 558.61 334.24 556.76 330.28 555.76 C 326.20 554.37 321.34 553.00 319.26 548.83 C 316.84 543.55 317.87 537.59 317.72 531.98 Z" />
<path fill="#fefefe" opacity="1.00" d=" M 392.26 603.24 C 396.35 601.69 400.82 602.57 405.01 603.21 C 408.50 603.76 412.57 603.22 415.53 605.48 C 418.92 609.82 420.51 615.24 423.00 620.10 C 426.00 627.44 430.45 634.27 431.79 642.20 C 426.58 643.86 420.94 644.18 415.56 643.31 C 411.13 642.07 409.40 637.44 406.96 634.04 C 401.64 626.37 397.64 617.91 393.44 609.60 C 392.31 607.66 392.21 605.42 392.26 603.24 Z" />
<path fill="#fefefe" opacity="1.00" d=" M 463.35 609.17 C 472.28 610.12 480.91 613.33 489.96 613.53 C 492.42 613.46 495.60 615.06 495.17 617.95 C 494.11 626.21 494.26 634.61 492.48 642.77 C 484.13 642.58 475.66 642.62 467.50 640.59 C 465.50 633.31 465.80 625.67 463.88 618.39 C 463.11 615.37 463.05 612.25 463.35 609.17 Z" />
<path fill="#fefefe" opacity="1.00" d=" M 502.80 615.44 C 511.04 614.94 519.42 615.06 527.54 616.65 C 527.70 618.53 527.75 620.45 527.22 622.29 C 525.30 629.77 524.06 637.54 520.62 644.54 C 519.64 646.64 516.96 646.35 515.05 646.37 C 509.55 646.05 503.98 645.72 498.67 644.15 C 498.31 638.06 500.35 632.16 500.37 626.08 C 500.33 622.38 501.12 618.73 502.80 615.44 Z" />
</g>
<g id="#bcbcbcff">
<path fill="#bcbcbc" opacity="1.00" d=" M 450.87 309.83 C 453.92 304.97 457.12 300.20 460.64 295.67 C 458.66 303.85 454.65 311.56 454.32 320.11 C 453.67 326.05 456.74 331.41 457.87 337.08 C 454.62 333.27 451.25 329.40 449.28 324.74 C 447.23 319.91 448.11 314.20 450.87 309.83 Z" />
<path fill="#bcbcbc" opacity="1.00" d=" M 308.31 355.32 C 314.44 350.93 320.03 345.68 324.43 339.53 C 326.01 345.33 321.85 350.24 318.21 354.19 C 310.39 362.09 300.18 367.04 289.90 370.94 C 272.39 377.77 252.71 376.07 235.01 370.95 C 242.91 372.55 251.01 372.48 259.01 371.79 C 265.88 371.17 272.95 371.99 279.64 369.96 C 290.02 366.96 299.61 361.66 308.31 355.32 Z" />
<path fill="#bcbcbc" opacity="1.00" d=" M 456.19 347.82 C 464.07 356.75 472.62 365.75 476.54 377.26 C 479.78 387.07 477.14 397.47 474.59 407.11 C 473.36 406.84 472.14 406.57 470.94 406.22 C 471.70 406.14 473.22 405.99 473.97 405.91 C 472.91 396.02 471.85 386.02 468.36 376.64 C 465.61 366.50 459.79 357.61 456.19 347.82 Z" />
<path fill="#bcbcbc" opacity="1.00" d=" M 237.89 509.02 C 243.54 510.58 248.44 513.91 253.66 516.46 C 254.51 516.99 255.51 516.94 256.47 516.89 C 258.29 521.20 262.86 522.99 266.42 525.56 C 273.64 530.57 280.27 536.36 287.03 541.97 C 295.49 548.84 304.49 555.08 312.42 562.58 C 319.00 569.00 325.51 575.49 331.98 582.02 C 338.20 588.21 343.25 595.43 348.74 602.26 C 354.21 609.50 359.74 616.70 364.71 624.30 C 374.67 637.75 383.74 652.00 395.82 663.72 C 395.72 665.45 395.66 667.19 395.60 668.94 C 388.02 663.64 382.85 655.77 377.78 648.21 C 370.57 637.72 364.82 626.23 356.50 616.53 C 353.33 612.95 350.90 608.81 347.79 605.19 C 330.63 584.78 312.02 565.58 291.85 548.14 C 275.65 536.97 258.51 527.15 242.94 515.08 C 240.76 513.52 238.95 511.49 237.89 509.02 Z" />
</g>
<g id="#bababaff">
<path fill="#bababa" opacity="1.00" d=" M 333.79 298.93 C 341.75 308.24 348.57 318.49 355.31 328.71 C 359.29 334.29 362.38 340.43 365.53 346.50 C 367.15 349.54 368.33 352.80 369.05 356.17 C 366.22 353.96 363.81 351.28 361.52 348.53 C 353.12 338.43 344.04 328.62 338.39 316.62 C 335.89 311.10 332.56 305.19 333.79 298.93 Z" />
</g>
<g id="#010101ff">
<path fill="#010101" opacity="1.00" d=" M 233.38 312.37 C 242.28 300.05 261.13 297.31 273.78 305.26 C 278.21 308.28 282.03 312.72 282.74 318.22 C 279.87 318.61 276.09 317.31 274.02 319.97 C 272.16 321.97 272.45 324.91 274.00 327.00 C 276.09 328.56 278.76 328.46 281.23 328.61 C 276.84 336.82 267.53 340.11 259.34 343.19 C 255.98 344.63 252.62 342.45 249.49 341.41 C 243.17 338.66 236.81 334.98 232.88 329.15 C 229.47 324.16 229.65 317.14 233.38 312.37 M 256.60 319.61 C 253.09 321.93 254.18 327.88 258.18 329.02 C 262.18 330.78 266.92 326.12 265.15 322.08 C 264.09 318.60 259.39 317.46 256.60 319.61 Z" />
</g>
<g id="#fcfcfcff">
<path fill="#fcfcfc" opacity="1.00" d=" M 256.60 319.61 C 259.39 317.46 264.09 318.60 265.15 322.08 C 266.92 326.12 262.18 330.78 258.18 329.02 C 254.18 327.88 253.09 321.93 256.60 319.61 Z" />
<path fill="#fcfcfc" opacity="1.00" d=" M 584.31 332.23 C 588.47 330.42 592.91 334.16 593.91 338.14 C 595.81 343.64 592.51 351.22 586.05 351.24 C 576.93 350.07 575.74 335.03 584.31 332.23 Z" />
<path fill="#fcfcfc" opacity="1.00" d=" M 165.24 332.94 C 168.69 335.08 172.39 336.83 176.31 337.92 C 176.45 342.37 177.37 346.73 177.80 351.15 C 173.67 345.04 170.17 338.49 165.24 332.94 Z" />
<path fill="#fcfcfc" opacity="1.00" d=" M 477.48 506.97 C 480.24 506.05 483.12 505.35 486.06 505.70 C 494.49 506.48 502.96 507.12 511.31 508.67 C 516.31 509.50 521.27 510.68 526.34 511.07 C 530.85 511.70 535.04 513.78 538.89 516.14 C 545.45 520.07 549.95 526.39 555.49 531.51 C 558.39 534.66 562.24 537.05 564.22 540.97 C 553.02 531.01 542.68 518.44 527.53 514.58 C 520.52 512.34 512.95 514.65 506.06 511.97 C 496.82 508.84 487.02 508.57 477.48 506.97 Z" />
<path fill="#fcfcfc" opacity="1.00" d=" M 561.50 554.56 C 564.98 553.89 568.54 555.75 569.94 559.03 C 571.92 563.44 575.36 567.68 574.83 572.80 C 572.36 573.52 568.95 574.14 567.45 571.46 C 565.16 567.84 564.15 563.59 562.15 559.82 C 561.17 558.21 561.32 556.34 561.50 554.56 Z" />
</g>
<g id="#020202ff">
<path fill="#020202" opacity="1.00" d=" M 542.41 335.64 C 545.27 327.55 552.99 322.25 561.06 320.27 C 569.36 318.38 578.50 319.52 585.66 324.32 C 591.57 328.13 596.26 334.69 595.85 341.99 C 596.15 348.00 592.85 353.59 588.45 357.45 C 577.81 366.56 560.80 366.83 549.81 358.20 C 546.07 355.18 543.08 351.11 541.91 346.41 C 548.25 345.58 554.65 345.73 561.02 345.38 C 564.44 345.46 567.61 341.48 565.90 338.26 C 565.11 336.31 563.05 335.14 560.99 335.27 C 554.79 335.22 548.60 335.79 542.41 335.64 M 584.31 332.23 C 575.74 335.03 576.93 350.07 586.05 351.24 C 592.51 351.22 595.81 343.64 593.91 338.14 C 592.91 334.16 588.47 330.42 584.31 332.23 Z" />
<path fill="#020202" opacity="1.00" d=" M 106.09 419.85 C 100.86 394.23 111.16 365.12 133.14 350.34 C 136.46 351.35 139.07 354.13 142.00 356.01 C 147.28 359.54 151.45 364.34 155.69 369.01 C 150.21 364.77 144.96 357.81 137.16 359.26 C 131.84 360.86 129.37 366.43 127.00 370.98 C 119.62 387.09 112.68 403.41 106.09 419.85 Z" />
<path fill="#020202" opacity="1.00" d=" M 323.56 493.34 C 334.54 490.39 345.68 487.87 356.99 486.61 C 376.24 485.42 395.22 489.85 413.75 494.52 C 431.35 499.54 449.80 500.38 467.99 500.36 C 482.32 500.54 496.81 500.21 510.89 503.36 C 522.65 505.87 535.02 507.90 545.24 514.67 C 552.09 518.67 556.64 525.38 562.49 530.57 C 567.82 535.25 571.95 541.08 577.01 546.03 C 582.70 551.66 587.35 558.52 594.39 562.63 C 596.30 564.03 598.81 565.07 599.87 567.31 C 600.43 570.59 596.91 571.99 595.04 573.96 C 589.00 579.08 583.95 585.23 580.00 592.09 C 574.74 599.46 571.93 608.12 567.98 616.18 C 564.86 623.02 562.63 630.21 560.74 637.48 C 559.93 643.22 559.63 649.06 557.93 654.65 C 555.87 662.53 554.13 671.20 548.20 677.21 C 544.22 681.38 538.67 683.27 533.56 685.61 C 521.30 691.45 507.67 693.20 494.39 695.18 C 484.93 695.98 475.46 696.46 466.03 697.41 C 449.54 697.59 433.59 691.48 419.36 683.55 C 410.69 678.03 402.98 671.07 395.82 663.72 C 383.74 652.00 374.67 637.75 364.71 624.30 C 359.74 616.70 354.21 609.50 348.74 602.26 C 343.25 595.43 338.20 588.21 331.98 582.02 C 325.51 575.49 319.00 569.00 312.42 562.58 C 304.49 555.08 295.49 548.84 287.03 541.97 C 280.27 536.36 273.64 530.57 266.42 525.56 C 262.86 522.99 258.29 521.20 256.47 516.89 C 259.66 514.43 263.70 513.71 267.43 512.44 C 271.11 511.33 274.55 509.60 278.19 508.39 C 284.18 506.57 289.61 503.29 295.71 501.80 C 305.12 499.39 314.14 495.72 323.56 493.34 M 297.82 507.74 C 306.02 508.09 313.39 503.90 321.11 501.83 C 334.27 498.56 347.71 496.49 361.23 495.46 C 371.82 495.28 382.62 494.43 393.00 497.02 C 402.45 499.30 411.48 502.93 420.51 506.46 C 423.20 507.37 426.02 508.50 428.91 508.05 C 443.95 506.09 459.16 506.08 474.29 506.68 C 475.35 507.08 476.41 507.17 477.48 506.97 C 487.02 508.57 496.82 508.84 506.06 511.97 C 512.95 514.65 520.52 512.34 527.53 514.58 C 542.68 518.44 553.02 531.01 564.22 540.97 C 562.24 537.05 558.39 534.66 555.49 531.51 C 549.95 526.39 545.45 520.07 538.89 516.14 C 535.04 513.78 530.85 511.70 526.34 511.07 L 527.17 510.88 C 521.76 508.84 515.98 508.17 510.35 506.98 C 490.43 503.05 470.04 504.89 449.90 503.83 C 449.10 503.92 447.50 504.08 446.70 504.16 C 444.05 503.22 441.19 503.65 438.46 503.18 C 418.44 500.32 399.12 493.67 378.99 491.47 C 371.33 491.14 363.61 490.97 355.98 491.81 C 336.14 495.23 316.79 501.09 297.82 507.74 M 321.03 508.02 C 312.13 510.87 303.03 513.02 294.14 515.91 C 298.88 518.27 303.91 520.13 309.04 521.41 C 312.02 520.58 313.67 517.15 316.96 516.94 C 325.07 516.41 332.46 520.27 339.71 523.32 C 343.22 524.92 346.09 521.43 349.02 520.08 C 357.04 516.01 365.94 513.00 375.03 513.35 C 381.69 513.35 388.14 515.24 394.58 516.70 C 402.38 518.83 410.53 520.91 416.96 526.08 C 423.25 531.08 429.73 535.89 435.63 541.36 C 436.84 542.41 438.24 540.93 438.98 540.00 C 443.27 534.51 449.28 530.77 455.14 527.18 C 457.50 525.69 460.11 524.46 462.95 524.39 C 476.59 523.53 490.65 525.81 502.87 532.09 C 509.83 535.49 514.32 542.43 521.41 545.57 C 525.07 546.18 528.32 543.67 531.72 542.68 C 539.58 539.43 548.39 543.21 554.16 548.79 C 556.53 551.39 560.28 550.68 563.07 549.19 C 558.34 542.60 552.12 537.30 546.44 531.56 C 538.99 524.89 530.55 517.46 519.93 517.59 C 517.63 517.36 517.32 520.13 516.57 521.67 C 511.18 522.44 508.19 517.07 503.49 515.59 C 490.61 510.68 476.55 511.31 463.00 511.14 C 453.91 511.30 444.77 510.90 435.72 511.81 C 437.11 515.92 443.46 516.66 442.80 521.70 C 436.90 522.43 433.45 516.77 428.53 514.64 C 416.87 508.77 404.68 503.66 391.93 500.74 C 385.00 499.79 377.97 500.33 371.00 500.18 C 354.04 499.72 337.13 502.79 321.03 508.02 M 267.07 519.11 C 267.91 522.29 271.22 523.56 273.59 525.42 C 277.02 527.66 279.86 531.08 284.05 531.92 C 284.02 528.37 280.59 526.66 278.01 524.99 C 274.44 522.91 271.17 520.09 267.07 519.11 M 349.79 528.78 C 345.32 532.63 346.26 538.87 346.67 544.09 C 347.32 552.26 348.31 560.65 351.57 568.25 C 353.00 574.14 355.30 580.02 359.26 584.72 C 364.00 590.84 371.40 594.09 378.67 596.16 C 386.57 598.38 394.87 597.51 402.93 598.57 C 411.87 600.08 420.97 600.34 430.02 600.17 C 433.33 599.72 437.81 600.18 439.81 596.88 C 443.25 590.53 439.10 583.46 438.46 576.89 C 437.92 569.33 435.39 562.15 433.43 554.88 C 432.81 550.18 430.35 546.07 427.81 542.17 C 423.83 536.76 418.02 533.18 412.83 529.08 C 405.66 523.41 396.54 521.51 387.89 519.34 C 374.63 516.01 360.06 519.92 349.79 528.78 M 282.21 520.42 C 280.76 521.64 283.24 523.63 284.40 522.43 C 285.57 521.07 283.47 519.33 282.21 520.42 M 294.08 522.73 C 292.45 527.12 290.97 533.34 295.40 536.63 C 299.48 539.26 304.41 541.31 309.36 540.50 C 309.84 536.22 309.91 531.87 309.37 527.60 C 308.03 525.66 305.67 524.95 303.63 524.02 C 300.67 522.79 297.23 521.43 294.08 522.73 M 317.72 531.98 C 317.87 537.59 316.84 543.55 319.26 548.83 C 321.34 553.00 326.20 554.37 330.28 555.76 C 334.24 556.76 338.11 558.61 342.28 558.40 C 344.06 550.56 340.35 543.07 338.67 535.59 C 337.91 532.76 338.58 529.43 337.09 526.90 C 332.60 524.02 327.39 521.56 321.96 521.57 C 317.69 523.10 317.74 528.23 317.72 531.98 M 460.65 530.82 C 456.11 533.77 451.67 536.97 447.87 540.86 C 446.17 542.51 445.15 544.71 444.67 547.01 C 445.35 550.36 446.64 553.58 447.05 557.00 C 448.23 566.00 451.58 574.54 455.35 582.74 C 457.43 587.89 459.00 593.27 461.82 598.10 C 463.18 600.30 464.04 603.11 466.48 604.41 C 471.46 607.17 477.29 607.44 482.75 608.63 C 489.41 610.21 496.32 609.42 503.06 610.39 C 512.02 610.68 520.97 611.45 529.93 611.24 C 532.38 611.54 533.69 608.94 533.96 606.89 C 535.58 596.71 532.05 586.83 530.24 576.95 C 528.73 570.18 527.50 563.16 523.97 557.09 C 521.03 552.08 516.18 548.71 511.81 545.06 C 508.09 542.13 504.59 538.91 500.61 536.33 C 495.64 532.95 489.84 531.06 484.03 529.73 C 479.06 528.95 474.01 529.21 469.01 529.18 C 466.17 529.31 463.04 528.95 460.65 530.82 M 295.98 542.19 C 297.59 545.12 300.47 546.93 303.03 548.95 C 314.65 557.52 324.22 568.43 334.55 578.45 C 351.60 595.39 363.62 616.40 377.55 635.79 C 385.42 647.24 394.15 658.18 404.24 667.76 C 417.38 680.24 434.28 688.57 452.07 691.88 C 464.92 694.53 477.97 691.72 490.90 691.42 C 498.95 690.46 506.95 689.02 514.94 687.66 C 523.62 686.19 531.68 682.49 539.37 678.33 C 543.06 676.23 546.54 673.40 548.42 669.50 C 550.41 665.63 550.61 661.18 552.02 657.11 C 552.82 654.77 553.64 652.43 554.01 649.98 C 555.10 636.05 558.56 622.26 564.48 609.57 C 568.23 599.60 573.82 590.51 579.71 581.68 C 582.87 577.23 587.23 573.86 590.98 569.95 C 592.03 569.16 591.96 567.76 591.27 566.78 C 589.29 566.06 587.85 568.29 586.25 569.10 C 583.49 570.73 582.35 573.89 579.99 575.91 C 577.32 577.74 573.74 577.15 571.02 578.89 C 568.93 580.44 567.27 582.52 565.00 583.84 C 562.72 585.24 559.93 586.02 558.31 588.29 C 551.16 597.06 547.94 608.06 543.32 618.20 C 541.01 623.52 538.81 628.93 537.40 634.58 C 536.03 639.98 533.12 645.27 528.37 648.36 C 520.89 652.22 512.18 650.08 504.22 649.57 C 499.05 647.85 493.55 647.61 488.20 646.77 C 479.14 646.09 470.08 644.99 460.98 645.34 C 452.58 645.73 444.15 645.65 435.76 646.41 C 431.15 646.82 426.64 648.05 422.02 648.29 C 417.35 648.53 413.26 645.90 408.83 644.92 C 400.80 639.52 392.77 633.98 385.97 627.04 C 381.91 622.76 377.50 618.80 373.82 614.17 C 368.50 608.46 364.02 602.03 358.48 596.51 C 353.65 591.64 349.50 586.17 345.02 580.99 C 340.04 575.64 334.85 570.47 329.93 565.06 C 324.50 560.09 318.35 555.99 312.69 551.29 C 307.81 547.18 302.18 543.82 295.98 542.19 M 532.55 547.63 C 530.62 548.54 527.01 549.82 528.42 552.58 C 532.92 558.87 534.85 566.51 536.29 574.00 C 536.73 576.44 536.83 579.30 538.78 581.12 C 542.04 582.37 545.58 582.24 549.00 581.88 C 553.15 581.44 557.91 582.23 561.35 579.32 C 561.96 578.07 562.01 576.58 561.62 575.26 C 560.24 571.38 558.53 567.62 557.01 563.79 C 554.78 557.95 550.36 553.33 546.03 548.98 C 542.55 545.40 536.80 545.79 532.55 547.63 M 561.50 554.56 C 561.32 556.34 561.17 558.21 562.15 559.82 C 564.15 563.59 565.16 567.84 567.45 571.46 C 568.95 574.14 572.36 573.52 574.83 572.80 C 575.36 567.68 571.92 563.44 569.94 559.03 C 568.54 555.75 564.98 553.89 561.50 554.56 M 366.18 597.37 C 372.78 608.22 382.38 616.79 390.97 626.03 C 394.44 629.28 397.47 633.35 402.06 635.08 C 398.33 627.93 393.54 621.35 389.91 614.13 C 387.48 609.25 385.32 603.60 380.26 600.85 C 375.92 598.66 371.09 597.07 366.18 597.37 M 392.26 603.24 C 392.21 605.42 392.31 607.66 393.44 609.60 C 397.64 617.91 401.64 626.37 406.96 634.04 C 409.40 637.44 411.13 642.07 415.56 643.31 C 420.94 644.18 426.58 643.86 431.79 642.20 C 430.45 634.27 426.00 627.44 423.00 620.10 C 420.51 615.24 418.92 609.82 415.53 605.48 C 412.57 603.22 408.50 603.76 405.01 603.21 C 400.82 602.57 396.35 601.69 392.26 603.24 M 463.35 609.17 C 463.05 612.25 463.11 615.37 463.88 618.39 C 465.80 625.67 465.50 633.31 467.50 640.59 C 475.66 642.62 484.13 642.58 492.48 642.77 C 494.26 634.61 494.11 626.21 495.17 617.95 C 495.60 615.06 492.42 613.46 489.96 613.53 C 480.91 613.33 472.28 610.12 463.35 609.17 M 502.80 615.44 C 501.12 618.73 500.33 622.38 500.37 626.08 C 500.35 632.16 498.31 638.06 498.67 644.15 C 503.98 645.72 509.55 646.05 515.05 646.37 C 516.96 646.35 519.64 646.64 520.62 644.54 C 524.06 637.54 525.30 629.77 527.22 622.29 C 527.75 620.45 527.70 618.53 527.54 616.65 C 519.42 615.06 511.04 614.94 502.80 615.44 M 531.13 628.89 C 530.57 632.66 529.14 636.29 529.23 640.15 C 531.03 636.88 531.62 633.17 532.70 629.64 C 533.73 626.09 535.40 622.72 535.94 619.03 C 532.63 621.22 531.73 625.22 531.13 628.89 Z" />
</g>
<g id="#b4b4b4ff">
<path fill="#b4b4b4" opacity="1.00" d=" M 209.11 349.52 C 210.19 349.35 211.27 349.19 212.35 349.03 C 215.03 355.13 219.31 360.31 223.98 365.00 C 217.73 361.36 211.77 356.46 209.11 349.52 Z" />
</g>
<g id="#bdbdbdff">
<path fill="#bdbdbd" opacity="1.00" d=" M 225.88 355.96 C 234.81 358.66 243.29 362.61 252.27 365.19 C 242.95 365.98 230.76 365.40 225.88 355.96 Z" />
<path fill="#bdbdbd" opacity="1.00" d=" M 560.02 400.87 C 575.68 400.98 590.79 394.48 602.82 384.72 C 601.77 389.26 597.04 391.10 593.60 393.55 C 585.01 398.35 575.94 403.11 565.96 403.90 C 553.73 405.01 541.10 402.62 530.27 396.80 C 527.56 395.21 524.62 393.58 523.16 390.65 C 528.47 394.03 533.95 397.30 540.05 399.05 C 546.51 401.02 553.34 400.76 560.02 400.87 Z" />
<path fill="#bdbdbd" opacity="1.00" d=" M 347.17 540.93 C 350.47 549.62 351.07 559.06 351.57 568.25 C 348.31 560.65 347.32 552.26 346.67 544.09 C 346.79 543.30 347.04 541.72 347.17 540.93 Z" />
</g>
<g id="#040404ff">
<path fill="#040404" opacity="1.00" d=" M 500.09 400.07 C 512.16 404.79 523.45 411.42 533.76 419.26 C 546.56 429.55 557.75 443.01 561.96 459.15 C 555.88 450.60 549.92 441.90 543.07 433.94 C 530.88 423.89 516.44 416.90 504.61 406.38 C 502.60 404.69 500.92 402.59 500.09 400.07 Z" />
<path fill="#040404" opacity="1.00" d=" M 315.16 422.16 C 324.66 415.06 335.12 409.13 346.23 404.96 C 344.81 409.23 340.97 411.91 337.65 414.65 C 326.62 423.09 314.38 429.85 303.50 438.49 C 296.63 446.63 290.56 455.44 284.26 464.00 C 289.27 446.96 300.97 432.55 315.16 422.16 Z" />
</g>
<g id="#bbbbbbff">
<path fill="#bbbbbb" opacity="1.00" d=" M 385.49 458.57 C 383.39 453.95 385.79 448.52 389.93 445.96 C 389.04 448.89 388.15 452.27 389.97 455.04 C 392.72 459.40 398.16 460.53 402.88 461.38 C 412.30 462.88 421.61 465.18 430.55 468.53 C 431.99 469.20 433.95 469.59 434.41 471.36 C 436.36 476.40 438.16 482.01 442.81 485.27 C 447.93 489.21 454.85 489.43 460.94 488.10 C 459.09 491.74 454.73 492.73 450.99 492.94 C 444.96 493.30 438.84 490.65 435.19 485.80 C 432.41 482.44 431.71 478.00 429.76 474.21 C 428.11 473.02 426.15 472.41 424.28 471.72 C 415.68 468.83 406.86 466.67 397.91 465.19 C 393.27 464.37 387.95 463.01 385.49 458.57 Z" />
</g>
<g id="#c3c3c3ff">
<path fill="#c3c3c3" opacity="1.00" d=" M 490.64 464.84 C 495.54 463.56 500.25 461.66 505.01 459.93 C 504.22 461.41 503.39 463.06 501.67 463.61 C 494.23 466.63 486.64 469.74 478.59 470.61 C 481.40 466.70 486.35 466.07 490.64 464.84 Z" />
<path fill="#c3c3c3" opacity="1.00" d=" M 446.70 504.16 C 447.50 504.08 449.10 503.92 449.90 503.83 C 470.04 504.89 490.43 503.05 510.35 506.98 C 515.98 508.17 521.76 508.84 527.17 510.88 L 526.34 511.07 C 521.27 510.68 516.31 509.50 511.31 508.67 C 502.96 507.12 494.49 506.48 486.06 505.70 C 483.12 505.35 480.24 506.05 477.48 506.97 C 476.41 507.17 475.35 507.08 474.29 506.68 C 465.28 504.08 455.54 508.07 446.70 504.16 Z" />
</g>
<g id="#fbfbfbff">
<path fill="#fbfbfb" opacity="1.00" d=" M 297.82 507.74 C 316.79 501.09 336.14 495.23 355.98 491.81 C 363.61 490.97 371.33 491.14 378.99 491.47 C 399.12 493.67 418.44 500.32 438.46 503.18 C 441.19 503.65 444.05 503.22 446.70 504.16 C 455.54 508.07 465.28 504.08 474.29 506.68 C 459.16 506.08 443.95 506.09 428.91 508.05 C 426.02 508.50 423.20 507.37 420.51 506.46 C 411.48 502.93 402.45 499.30 393.00 497.02 C 382.62 494.43 371.82 495.28 361.23 495.46 C 347.71 496.49 334.27 498.56 321.11 501.83 C 313.39 503.90 306.02 508.09 297.82 507.74 Z" />
<path fill="#fbfbfb" opacity="1.00" d=" M 295.98 542.19 C 302.18 543.82 307.81 547.18 312.69 551.29 C 318.35 555.99 324.50 560.09 329.93 565.06 C 334.85 570.47 340.04 575.64 345.02 580.99 C 349.50 586.17 353.65 591.64 358.48 596.51 C 364.02 602.03 368.50 608.46 373.82 614.17 C 377.50 618.80 381.91 622.76 385.97 627.04 C 382.75 629.53 379.90 632.46 377.55 635.79 C 363.62 616.40 351.60 595.39 334.55 578.45 C 324.22 568.43 314.65 557.52 303.03 548.95 C 300.47 546.93 297.59 545.12 295.98 542.19 Z" />
<path fill="#fbfbfb" opacity="1.00" d=" M 366.18 597.37 C 371.09 597.07 375.92 598.66 380.26 600.85 C 385.32 603.60 387.48 609.25 389.91 614.13 C 393.54 621.35 398.33 627.93 402.06 635.08 C 397.47 633.35 394.44 629.28 390.97 626.03 C 382.38 616.79 372.78 608.22 366.18 597.37 Z" />
</g>
<g id="#fdfdfdff">
<path fill="#fdfdfd" opacity="1.00" d=" M 321.03 508.02 C 337.13 502.79 354.04 499.72 371.00 500.18 C 377.97 500.33 385.00 499.79 391.93 500.74 C 404.68 503.66 416.87 508.77 428.53 514.64 C 433.45 516.77 436.90 522.43 442.80 521.70 C 443.46 516.66 437.11 515.92 435.72 511.81 C 444.77 510.90 453.91 511.30 463.00 511.14 C 476.55 511.31 490.61 510.68 503.49 515.59 C 508.19 517.07 511.18 522.44 516.57 521.67 C 517.32 520.13 517.63 517.36 519.93 517.59 C 530.55 517.46 538.99 524.89 546.44 531.56 C 552.12 537.30 558.34 542.60 563.07 549.19 C 560.28 550.68 556.53 551.39 554.16 548.79 C 548.39 543.21 539.58 539.43 531.72 542.68 C 528.32 543.67 525.07 546.18 521.41 545.57 C 514.32 542.43 509.83 535.49 502.87 532.09 C 490.65 525.81 476.59 523.53 462.95 524.39 C 460.11 524.46 457.50 525.69 455.14 527.18 C 449.28 530.77 443.27 534.51 438.98 540.00 C 438.24 540.93 436.84 542.41 435.63 541.36 C 429.73 535.89 423.25 531.08 416.96 526.08 C 410.53 520.91 402.38 518.83 394.58 516.70 C 388.14 515.24 381.69 513.35 375.03 513.35 C 365.94 513.00 357.04 516.01 349.02 520.08 C 346.09 521.43 343.22 524.92 339.71 523.32 C 332.46 520.27 325.07 516.41 316.96 516.94 C 313.67 517.15 312.02 520.58 309.04 521.41 C 303.91 520.13 298.88 518.27 294.14 515.91 C 303.03 513.02 312.13 510.87 321.03 508.02 Z" />
<path fill="#fdfdfd" opacity="1.00" d=" M 294.08 522.73 C 297.23 521.43 300.67 522.79 303.63 524.02 C 305.67 524.95 308.03 525.66 309.37 527.60 C 309.91 531.87 309.84 536.22 309.36 540.50 C 304.41 541.31 299.48 539.26 295.40 536.63 C 290.97 533.34 292.45 527.12 294.08 522.73 Z" />
<path fill="#fdfdfd" opacity="1.00" d=" M 532.55 547.63 C 536.80 545.79 542.55 545.40 546.03 548.98 C 550.36 553.33 554.78 557.95 557.01 563.79 C 558.53 567.62 560.24 571.38 561.62 575.26 C 562.01 576.58 561.96 578.07 561.35 579.32 C 557.91 582.23 553.15 581.44 549.00 581.88 C 545.58 582.24 542.04 582.37 538.78 581.12 C 536.83 579.30 536.73 576.44 536.29 574.00 C 534.85 566.51 532.92 558.87 528.42 552.58 C 527.01 549.82 530.62 548.54 532.55 547.63 Z" />
</g>
<g id="#f5f5f5ff">
<path fill="#f5f5f5" opacity="1.00" d=" M 267.07 519.11 C 271.17 520.09 274.44 522.91 278.01 524.99 C 280.59 526.66 284.02 528.37 284.05 531.92 C 279.86 531.08 277.02 527.66 273.59 525.42 C 271.22 523.56 267.91 522.29 267.07 519.11 Z" />
<path fill="#f5f5f5" opacity="1.00" d=" M 282.21 520.42 C 283.47 519.33 285.57 521.07 284.40 522.43 C 283.24 523.63 280.76 521.64 282.21 520.42 Z" />
<path fill="#f5f5f5" opacity="1.00" d=" M 531.13 628.89 C 531.73 625.22 532.63 621.22 535.94 619.03 C 535.40 622.72 533.73 626.09 532.70 629.64 C 531.62 633.17 531.03 636.88 529.23 640.15 C 529.14 636.29 530.57 632.66 531.13 628.89 Z" />
</g>
<g id="#b7b7b7ff">
<path fill="#b7b7b7" opacity="1.00" d=" M 408.83 644.92 C 413.26 645.90 417.35 648.53 422.02 648.29 C 426.64 648.05 431.15 646.82 435.76 646.41 C 444.15 645.65 452.58 645.73 460.98 645.34 C 470.08 644.99 479.14 646.09 488.20 646.77 C 493.55 647.61 499.05 647.85 504.22 649.57 C 497.74 650.13 491.45 648.23 485.03 647.82 C 476.40 647.22 467.74 646.13 459.09 647.11 C 449.46 648.23 439.64 646.67 430.12 648.89 C 422.97 650.29 414.29 650.57 408.83 644.92 Z" />
</g>
</svg>
