<?xml version="1.0" encoding="UTF-8" ?>
<!DOCTYPE svg PUBLIC "-//W3C//DTD SVG 1.1//EN" "http://www.w3.org/Graphics/SVG/1.1/DTD/svg11.dtd">
<svg width="891pt" height="856pt" viewBox="0 0 891 856" version="1.1" xmlns="http://www.w3.org/2000/svg">
<path fill="#000000" opacity="1.00" d=" M 348.55 73.20 C 355.68 71.84 362.59 69.09 369.94 69.05 C 385.44 68.26 400.32 73.39 415.48 75.69 C 423.60 77.02 431.86 76.71 440.05 77.17 C 459.09 78.41 477.92 82.05 497.03 82.30 C 520.07 83.29 542.46 89.21 565.06 93.32 C 572.65 94.77 580.38 95.50 587.87 97.50 C 606.90 102.36 624.47 111.35 642.82 118.15 C 652.39 121.89 662.49 124.47 671.47 129.59 C 677.31 132.84 681.97 137.72 687.33 141.64 C 707.03 156.89 729.39 169.11 746.09 187.92 C 758.54 202.10 768.10 218.50 780.20 232.95 C 802.82 261.30 823.05 291.84 837.60 325.15 C 840.75 333.00 845.17 340.28 847.95 348.29 C 858.52 376.57 859.31 407.22 859.01 437.06 C 858.84 454.39 858.71 471.72 859.10 489.05 C 859.12 509.23 856.90 529.62 850.60 548.87 C 844.20 564.50 834.51 578.47 825.43 592.64 C 812.06 610.12 799.70 628.52 784.19 644.25 C 775.96 652.73 766.50 659.87 757.14 667.05 C 722.21 693.33 683.21 714.55 641.40 727.58 C 626.01 732.29 609.33 730.46 594.19 736.16 C 588.30 738.22 583.42 742.20 578.15 745.39 C 569.91 750.52 561.18 754.93 551.95 758.01 C 540.14 762.15 528.77 768.67 515.97 769.08 C 488.30 768.98 459.83 767.69 433.86 757.16 C 423.07 752.53 419.36 739.74 409.26 734.15 C 401.40 756.91 390.25 778.54 384.73 802.08 C 380.14 821.21 369.93 838.25 361.84 856.00 L 349.43 856.00 C 357.50 841.20 365.65 826.30 371.13 810.31 C 379.64 780.94 391.44 752.68 402.84 724.35 C 375.97 732.31 347.70 737.14 319.65 734.21 C 298.92 732.07 278.53 724.79 261.93 712.05 C 256.91 708.05 252.25 702.77 251.40 696.17 C 251.09 692.16 250.88 687.99 252.13 684.12 C 254.94 675.74 262.03 670.00 267.21 663.14 C 253.67 654.82 239.02 648.24 226.48 638.37 C 203.53 619.48 178.29 603.60 155.37 584.67 C 149.56 579.81 143.62 575.00 138.86 569.06 C 122.02 549.48 108.01 526.18 104.76 500.13 C 98.95 449.97 83.49 400.88 84.42 350.02 C 85.04 342.02 84.25 334.03 84.42 326.03 C 84.77 300.56 88.47 274.60 99.66 251.47 C 107.52 235.29 111.04 217.11 121.10 201.98 C 124.57 197.17 127.65 192.09 131.31 187.42 C 146.27 167.99 165.94 152.99 185.59 138.62 C 194.99 131.90 204.03 124.60 214.18 118.99 C 238.57 105.15 265.80 97.61 291.31 86.22 C 309.38 78.17 329.42 77.19 348.55 73.20 M 364.98 81.05 C 344.72 86.63 322.99 84.80 303.20 92.36 C 295.54 95.63 287.75 98.59 279.96 101.53 C 249.63 112.93 218.35 124.23 193.07 145.18 C 164.03 164.75 136.09 189.09 122.29 222.11 C 113.24 246.38 100.19 269.56 96.65 295.55 C 90.76 319.92 92.57 345.17 92.94 369.98 C 93.00 372.36 93.53 374.69 93.97 377.03 C 99.64 408.15 103.69 439.56 110.27 470.52 C 111.08 476.95 110.72 483.50 111.87 489.91 C 115.39 515.06 126.59 538.81 142.48 558.49 C 148.94 566.25 155.71 573.95 164.03 579.79 C 178.91 591.10 193.85 602.36 209.69 612.32 C 230.53 629.22 252.30 646.03 277.97 654.87 C 293.39 647.90 305.40 632.99 307.81 616.11 C 308.27 610.01 308.32 603.29 305.20 597.89 C 284.83 579.57 255.06 578.92 233.46 562.64 C 227.84 558.33 222.24 553.14 220.54 545.97 C 218.30 536.85 219.64 525.47 227.55 519.40 C 238.44 509.43 251.29 501.99 262.88 492.92 C 268.54 488.32 274.92 483.74 277.49 476.59 C 279.39 471.98 279.17 466.12 275.44 462.47 C 265.44 452.33 258.90 439.28 248.31 429.68 C 244.52 426.10 239.73 423.73 236.28 419.78 C 229.93 412.95 226.01 403.00 228.63 393.75 C 237.17 383.35 248.32 375.38 259.67 368.29 C 260.97 370.72 261.96 373.31 262.70 375.97 C 255.97 382.59 247.46 387.08 240.89 393.87 C 237.24 397.11 237.47 402.77 239.16 406.96 C 242.17 414.16 248.95 418.56 254.86 423.18 C 266.25 432.69 273.06 446.21 282.87 457.13 C 287.61 461.69 290.11 468.53 288.85 475.06 C 287.91 480.21 284.34 484.28 281.20 488.27 C 267.31 504.72 246.99 513.65 231.69 528.55 C 228.75 531.46 227.69 535.93 228.45 539.94 C 229.66 546.38 233.84 552.22 239.57 555.41 C 258.65 566.07 279.63 572.60 299.58 581.34 C 308.19 585.79 317.00 592.95 318.33 603.17 C 318.37 611.88 317.39 620.78 314.14 628.94 C 309.12 641.87 300.01 652.85 289.53 661.76 C 303.13 668.30 317.18 673.95 330.98 680.07 C 351.72 688.99 372.41 698.01 393.16 706.89 C 416.12 713.98 440.34 714.95 463.82 719.50 C 469.57 720.50 475.18 722.25 480.99 722.93 C 494.25 724.76 507.67 723.58 521.00 723.63 C 530.32 723.82 539.64 723.47 548.96 723.73 C 563.61 723.84 578.31 724.43 592.92 722.96 C 602.88 713.52 612.51 701.39 612.37 686.98 C 608.33 674.71 604.13 662.18 596.64 651.50 C 592.95 646.12 588.03 641.77 582.94 637.77 C 573.91 631.25 562.08 629.80 553.62 622.37 C 549.71 618.47 545.35 614.50 543.99 608.92 C 541.16 598.29 545.81 586.96 553.30 579.36 C 568.25 559.47 591.31 548.62 609.95 532.84 C 618.07 526.33 627.70 520.75 632.44 511.07 C 634.28 508.13 633.13 504.63 632.40 501.55 C 627.78 486.94 612.25 479.22 607.50 464.71 C 606.24 459.55 605.80 452.95 609.97 448.95 C 616.18 442.19 624.65 437.99 630.63 431.00 C 630.91 414.31 619.88 400.42 617.51 384.28 C 621.76 383.74 626.79 385.14 628.85 389.22 C 634.84 403.88 641.55 419.82 638.02 435.94 C 632.13 444.52 621.96 448.97 615.42 457.00 C 615.01 459.68 616.06 462.35 617.47 464.59 C 621.09 470.16 626.37 474.33 630.51 479.46 C 636.89 487.12 642.02 496.09 643.92 505.96 C 643.71 510.15 641.98 514.17 639.89 517.77 C 632.93 528.97 620.88 535.22 610.98 543.40 C 601.25 551.76 590.56 558.89 580.49 566.81 C 568.45 576.18 557.11 587.46 551.57 601.97 C 553.00 606.26 555.44 610.21 558.82 613.24 C 567.69 621.20 579.71 623.89 589.61 630.20 C 595.55 633.82 599.99 639.34 604.18 644.79 C 614.61 658.84 621.48 676.20 620.52 693.92 C 620.19 697.21 620.36 700.72 618.74 703.73 C 615.31 710.82 609.99 716.83 606.82 724.07 C 638.07 720.82 667.74 709.03 695.37 694.55 C 701.99 691.21 708.23 687.14 715.06 684.21 C 733.02 675.34 747.25 660.90 763.69 649.72 C 793.11 624.67 813.69 591.45 834.67 559.47 C 843.15 545.80 844.95 529.47 847.98 514.00 C 850.19 503.81 851.12 493.37 851.03 482.95 C 851.00 464.98 850.74 447.01 850.99 429.04 C 851.20 417.28 851.38 405.32 848.20 393.89 C 844.38 380.79 843.95 366.92 839.47 354.00 C 837.66 348.63 834.68 343.79 832.43 338.61 C 825.48 323.24 819.87 307.01 809.61 293.42 C 795.55 264.89 773.73 241.43 755.13 215.93 C 745.55 203.34 737.06 189.29 723.70 180.26 C 698.53 162.42 675.68 139.92 645.88 129.82 C 628.53 122.86 610.95 116.49 593.61 109.49 C 572.64 101.66 549.80 102.25 528.35 96.40 C 508.29 90.96 487.15 94.25 466.92 89.86 C 454.47 87.18 441.65 87.59 429.00 86.96 C 414.86 85.95 401.13 82.17 387.15 80.10 C 379.79 79.04 372.17 78.98 364.98 81.05 M 275.49 669.52 C 269.01 674.69 262.64 680.86 260.05 688.96 C 260.64 694.25 263.26 699.20 266.81 703.12 C 274.05 710.85 284.28 714.61 294.05 717.99 C 301.97 720.48 309.66 723.80 317.89 725.16 C 332.14 727.79 346.76 726.58 360.94 724.11 C 370.61 722.23 380.41 720.51 389.80 717.52 C 374.06 707.78 355.84 703.27 339.60 694.51 C 319.25 687.36 301.28 674.32 280.09 669.42 C 278.59 669.23 276.78 668.28 275.49 669.52 M 417.95 721.90 C 422.07 732.42 428.29 743.01 438.63 748.43 C 451.33 755.24 466.20 754.39 479.92 757.56 C 494.62 760.51 510.62 763.79 524.96 757.62 C 542.04 750.15 560.60 745.40 575.90 734.38 C 557.28 733.77 538.65 734.19 520.03 734.18 C 509.05 733.98 497.99 734.76 487.10 733.09 C 463.90 730.27 441.17 724.42 417.95 721.90 Z" />
<path fill="#ffffff" opacity="1.00" d=" M 364.98 81.05 C 372.17 78.98 379.79 79.04 387.15 80.10 C 401.13 82.17 414.86 85.95 429.00 86.96 C 441.65 87.59 454.47 87.18 466.92 89.86 C 487.15 94.25 508.29 90.96 528.35 96.40 C 549.80 102.25 572.64 101.66 593.61 109.49 C 610.95 116.49 628.53 122.86 645.88 129.82 C 675.68 139.92 698.53 162.42 723.70 180.26 C 737.06 189.29 745.55 203.34 755.13 215.93 C 773.73 241.43 795.55 264.89 809.61 293.42 C 819.87 307.01 825.48 323.24 832.43 338.61 C 834.68 343.79 837.66 348.63 839.47 354.00 C 843.95 366.92 844.38 380.79 848.20 393.89 C 851.38 405.32 851.20 417.28 850.99 429.04 C 850.74 447.01 851.00 464.98 851.03 482.95 C 851.12 493.37 850.19 503.81 847.98 514.00 C 844.95 529.47 843.15 545.80 834.67 559.47 C 813.69 591.45 793.11 624.67 763.69 649.72 C 747.25 660.90 733.02 675.34 715.06 684.21 C 708.23 687.14 701.99 691.21 695.37 694.55 C 667.74 709.03 638.07 720.82 606.82 724.07 C 609.99 716.83 615.31 710.82 618.74 703.73 C 620.36 700.72 620.19 697.21 620.52 693.92 C 621.48 676.20 614.61 658.84 604.18 644.79 C 599.99 639.34 595.55 633.82 589.61 630.20 C 579.71 623.89 567.69 621.20 558.82 613.24 C 555.44 610.21 553.00 606.26 551.57 601.97 C 557.11 587.46 568.45 576.18 580.49 566.81 C 590.56 558.89 601.25 551.76 610.98 543.40 C 620.88 535.22 632.93 528.97 639.89 517.77 C 641.98 514.17 643.71 510.15 643.92 505.96 C 642.02 496.09 636.89 487.12 630.51 479.46 C 626.37 474.33 621.09 470.16 617.47 464.59 C 616.06 462.35 615.01 459.68 615.42 457.00 C 621.96 448.97 632.13 444.52 638.02 435.94 C 641.55 419.82 634.84 403.88 628.85 389.22 C 626.79 385.14 621.76 383.74 617.51 384.28 C 619.88 400.42 630.91 414.31 630.63 431.00 C 624.65 437.99 616.18 442.19 609.97 448.95 C 605.80 452.95 606.24 459.55 607.50 464.71 C 612.25 479.22 627.78 486.94 632.40 501.55 C 633.13 504.63 634.28 508.13 632.44 511.07 C 627.70 520.75 618.07 526.33 609.95 532.84 C 591.31 548.62 568.25 559.47 553.30 579.36 C 545.81 586.96 541.16 598.29 543.99 608.92 C 545.35 614.50 549.71 618.47 553.62 622.37 C 562.08 629.80 573.91 631.25 582.94 637.77 C 588.03 641.77 592.95 646.12 596.64 651.50 C 604.13 662.18 608.33 674.71 612.37 686.98 C 612.51 701.39 602.88 713.52 592.92 722.96 C 578.31 724.43 563.61 723.84 548.96 723.73 C 539.64 723.47 530.32 723.82 521.00 723.63 C 507.67 723.58 494.25 724.76 480.99 722.93 C 475.18 722.25 469.57 720.50 463.82 719.50 C 440.34 714.95 416.12 713.98 393.16 706.89 C 372.41 698.01 351.72 688.99 330.98 680.07 C 317.18 673.95 303.13 668.30 289.53 661.76 C 300.01 652.85 309.12 641.87 314.14 628.94 C 317.39 620.78 318.37 611.88 318.33 603.17 C 317.00 592.95 308.19 585.79 299.58 581.34 C 279.63 572.60 258.65 566.07 239.57 555.41 C 233.84 552.22 229.66 546.38 228.45 539.94 C 227.69 535.93 228.75 531.46 231.69 528.55 C 246.99 513.65 267.31 504.72 281.20 488.27 C 284.34 484.28 287.91 480.21 288.85 475.06 C 290.11 468.53 287.61 461.69 282.87 457.13 C 273.06 446.21 266.25 432.69 254.86 423.18 C 248.95 418.56 242.17 414.16 239.16 406.96 C 237.47 402.77 237.24 397.11 240.89 393.87 C 247.46 387.08 255.97 382.59 262.70 375.97 C 261.96 373.31 260.97 370.72 259.67 368.29 C 248.32 375.38 237.17 383.35 228.63 393.75 C 226.01 403.00 229.93 412.95 236.28 419.78 C 239.73 423.73 244.52 426.10 248.31 429.68 C 258.90 439.28 265.44 452.33 275.44 462.47 C 279.17 466.12 279.39 471.98 277.49 476.59 C 274.92 483.74 268.54 488.32 262.88 492.92 C 251.29 501.99 238.44 509.43 227.55 519.40 C 219.64 525.47 218.30 536.85 220.54 545.97 C 222.24 553.14 227.84 558.33 233.46 562.64 C 255.06 578.92 284.83 579.57 305.20 597.89 C 308.32 603.29 308.27 610.01 307.81 616.11 C 305.40 632.99 293.39 647.90 277.97 654.87 C 252.30 646.03 230.53 629.22 209.69 612.32 C 193.85 602.36 178.91 591.10 164.03 579.79 C 155.71 573.95 148.94 566.25 142.48 558.49 C 126.59 538.81 115.39 515.06 111.87 489.91 C 110.72 483.50 111.08 476.95 110.27 470.52 C 103.69 439.56 99.64 408.15 93.97 377.03 C 93.53 374.69 93.00 372.36 92.94 369.98 C 92.57 345.17 90.76 319.92 96.65 295.55 C 100.19 269.56 113.24 246.38 122.29 222.11 C 136.09 189.09 164.03 164.75 193.07 145.18 C 218.35 124.23 249.63 112.93 279.96 101.53 C 287.75 98.59 295.54 95.63 303.20 92.36 C 322.99 84.80 344.72 86.63 364.98 81.05 M 312.88 112.42 C 301.49 114.31 289.52 115.44 279.33 121.34 C 274.70 123.87 271.27 127.97 267.15 131.17 C 261.55 135.58 255.47 139.36 250.01 143.94 C 244.63 148.32 240.53 153.98 236.41 159.49 C 221.52 180.58 214.65 205.80 203.84 228.96 C 198.39 240.34 198.16 253.31 193.56 264.97 C 191.13 271.06 187.60 277.08 188.05 283.88 C 190.04 283.78 192.13 283.90 193.95 282.95 C 199.47 280.37 202.32 274.52 207.35 271.26 C 224.94 259.26 245.62 253.34 265.07 245.19 C 299.12 231.29 337.77 230.25 373.05 240.02 C 376.66 240.89 380.43 240.59 384.07 241.25 C 409.01 244.69 431.94 256.43 456.91 259.67 C 461.99 260.04 468.14 261.04 471.87 256.65 C 469.63 235.39 462.87 214.56 463.94 193.00 C 465.17 171.60 452.59 151.59 436.20 138.78 C 423.09 128.56 409.23 118.50 393.02 113.95 C 383.61 111.15 373.71 111.53 364.01 111.25 C 346.97 111.06 329.86 110.58 312.88 112.42 M 621.05 183.91 C 591.85 186.32 562.87 200.73 546.29 225.38 C 538.23 238.90 525.73 251.13 525.17 267.81 C 543.04 273.02 561.54 275.57 579.89 278.48 C 589.84 280.08 599.91 281.37 609.51 284.56 C 638.82 293.77 664.30 311.82 687.69 331.27 C 694.57 337.31 702.43 342.61 707.12 350.70 C 712.10 358.29 717.70 368.15 728.02 368.31 C 751.48 343.12 756.62 304.20 744.66 272.53 C 729.49 248.07 711.09 225.84 693.80 202.89 C 688.04 196.78 680.73 192.25 673.06 188.94 C 656.72 182.08 638.40 181.00 621.05 183.91 M 496.41 271.24 C 472.44 278.96 447.39 284.37 422.08 283.41 C 415.98 283.06 408.04 284.11 405.69 290.76 C 407.90 292.69 411.72 293.70 412.30 296.93 C 411.07 301.92 409.43 306.81 408.74 311.93 C 406.43 326.63 407.56 342.98 416.71 355.31 C 421.35 362.05 428.83 365.78 434.98 370.91 C 446.14 379.57 458.22 389.01 472.92 389.81 C 481.06 389.75 489.45 390.90 497.40 388.61 C 503.71 386.91 508.34 381.90 512.28 376.98 C 519.63 366.77 521.00 353.93 523.88 342.04 C 529.58 320.87 527.60 298.75 527.27 277.11 C 527.33 272.89 524.14 269.12 520.11 268.13 C 512.12 265.83 503.95 268.65 496.41 271.24 Z" />
<path fill="#000000" opacity="1.00" d=" M 312.88 112.42 C 329.86 110.58 346.97 111.06 364.01 111.25 C 373.71 111.53 383.61 111.15 393.02 113.95 C 409.23 118.50 423.09 128.56 436.20 138.78 C 452.59 151.59 465.17 171.60 463.94 193.00 C 462.87 214.56 469.63 235.39 471.87 256.65 C 468.14 261.04 461.99 260.04 456.91 259.67 C 431.94 256.43 409.01 244.69 384.07 241.25 C 380.43 240.59 376.66 240.89 373.05 240.02 C 337.77 230.25 299.12 231.29 265.07 245.19 C 245.62 253.34 224.94 259.26 207.35 271.26 C 202.32 274.52 199.47 280.37 193.95 282.95 C 192.13 283.90 190.04 283.78 188.05 283.88 C 187.60 277.08 191.13 271.06 193.56 264.97 C 198.16 253.31 198.39 240.34 203.84 228.96 C 214.65 205.80 221.52 180.58 236.41 159.49 C 240.53 153.98 244.63 148.32 250.01 143.94 C 255.47 139.36 261.55 135.58 267.15 131.17 C 271.27 127.97 274.70 123.87 279.33 121.34 C 289.52 115.44 301.49 114.31 312.88 112.42 M 316.97 121.04 C 306.58 122.68 295.52 123.49 286.44 129.35 C 276.59 136.13 266.93 143.19 257.29 150.27 C 250.00 156.84 244.25 164.96 239.29 173.38 C 228.63 191.80 222.33 212.26 213.58 231.58 C 209.67 240.37 206.09 249.73 206.27 259.49 C 235.38 248.74 262.24 230.41 293.79 227.41 C 293.79 227.21 293.80 226.80 293.80 226.59 C 282.65 217.08 280.13 199.32 287.92 186.97 C 290.19 183.65 292.85 179.88 297.10 179.16 C 310.89 175.35 327.67 176.07 338.43 186.54 C 343.47 194.62 342.62 204.76 341.08 213.75 C 337.05 217.81 332.43 221.22 328.16 225.01 C 352.97 224.04 376.93 231.45 401.18 235.39 C 421.38 239.02 440.29 248.83 461.07 249.27 C 457.32 226.97 455.92 204.37 452.98 181.96 C 452.57 176.92 450.50 172.21 448.23 167.76 C 439.82 151.95 424.73 141.27 409.72 132.28 C 400.80 126.53 390.48 123.39 380.15 121.34 C 365.27 118.43 350.03 118.71 334.95 119.29 C 328.95 119.77 322.90 119.91 316.97 121.04 Z" />
<path fill="#ffffff" opacity="1.00" d=" M 316.97 121.04 C 322.90 119.91 328.95 119.77 334.95 119.29 C 350.03 118.71 365.27 118.43 380.15 121.34 C 390.48 123.39 400.80 126.53 409.72 132.28 C 424.73 141.27 439.82 151.95 448.23 167.76 C 450.50 172.21 452.57 176.92 452.98 181.96 C 455.92 204.37 457.32 226.97 461.07 249.27 C 440.29 248.83 421.38 239.02 401.18 235.39 C 376.93 231.45 352.97 224.04 328.16 225.01 C 332.43 221.22 337.05 217.81 341.08 213.75 C 342.62 204.76 343.47 194.62 338.43 186.54 C 327.67 176.07 310.89 175.35 297.10 179.16 C 292.85 179.88 290.19 183.65 287.92 186.97 C 280.13 199.32 282.65 217.08 293.80 226.59 C 293.80 226.80 293.79 227.21 293.79 227.41 C 262.24 230.41 235.38 248.74 206.27 259.49 C 206.09 249.73 209.67 240.37 213.58 231.58 C 222.33 212.26 228.63 191.80 239.29 173.38 C 244.25 164.96 250.00 156.84 257.29 150.27 C 266.93 143.19 276.59 136.13 286.44 129.35 C 295.52 123.49 306.58 122.68 316.97 121.04 Z" />
<path fill="#000000" opacity="1.00" d=" M 621.05 183.91 C 638.40 181.00 656.72 182.08 673.06 188.94 C 680.73 192.25 688.04 196.78 693.80 202.89 C 711.09 225.84 729.49 248.07 744.66 272.53 C 756.62 304.20 751.48 343.12 728.02 368.31 C 717.70 368.15 712.10 358.29 707.12 350.70 C 702.43 342.61 694.57 337.31 687.69 331.27 C 664.30 311.82 638.82 293.77 609.51 284.56 C 599.91 281.37 589.84 280.08 579.89 278.48 C 561.54 275.57 543.04 273.02 525.17 267.81 C 525.73 251.13 538.23 238.90 546.29 225.38 C 562.87 200.73 591.85 186.32 621.05 183.91 M 620.00 194.49 C 595.66 195.61 571.91 207.68 557.24 227.23 C 553.17 232.32 550.70 238.51 546.23 243.29 C 541.82 248.37 536.75 254.35 538.17 261.62 C 547.37 264.34 556.97 265.46 566.55 265.73 C 562.32 258.73 560.61 250.15 562.59 242.14 C 564.34 234.40 569.35 227.30 576.38 223.49 C 579.76 222.31 583.50 222.36 587.00 222.96 C 601.96 226.05 613.19 242.45 609.28 257.50 C 606.52 263.78 597.29 264.85 596.25 272.26 C 612.91 274.36 628.87 280.37 643.52 288.46 C 666.83 301.29 687.11 318.70 707.77 335.28 C 714.40 341.28 715.98 352.85 725.69 355.16 C 739.23 335.27 745.84 309.62 739.41 286.02 C 737.67 280.34 735.78 274.43 731.77 269.91 C 716.02 249.96 702.38 228.41 685.87 209.05 C 680.92 203.35 674.31 199.20 667.21 196.73 C 652.03 191.45 635.68 192.89 620.00 194.49 Z" />
<path fill="#ffffff" opacity="1.00" d=" M 620.00 194.49 C 635.68 192.89 652.03 191.45 667.21 196.73 C 674.31 199.20 680.92 203.35 685.87 209.05 C 702.38 228.41 716.02 249.96 731.77 269.91 C 735.78 274.43 737.67 280.34 739.41 286.02 C 745.84 309.62 739.23 335.27 725.69 355.16 C 715.98 352.85 714.40 341.28 707.77 335.28 C 687.11 318.70 666.83 301.29 643.52 288.46 C 628.87 280.37 612.91 274.36 596.25 272.26 C 597.29 264.85 606.52 263.78 609.28 257.50 C 613.19 242.45 601.96 226.05 587.00 222.96 C 583.50 222.36 579.76 222.31 576.38 223.49 C 569.35 227.30 564.34 234.40 562.59 242.14 C 560.61 250.15 562.32 258.73 566.55 265.73 C 556.97 265.46 547.37 264.34 538.17 261.62 C 536.75 254.35 541.82 248.37 546.23 243.29 C 550.70 238.51 553.17 232.32 557.24 227.23 C 571.91 207.68 595.66 195.61 620.00 194.49 Z" />
<path fill="#000000" opacity="1.00" d=" M 496.41 271.24 C 503.95 268.65 512.12 265.83 520.11 268.13 C 524.14 269.12 527.33 272.89 527.27 277.11 C 527.60 298.75 529.58 320.87 523.88 342.04 C 521.00 353.93 519.63 366.77 512.28 376.98 C 508.34 381.90 503.71 386.91 497.40 388.61 C 489.45 390.90 481.06 389.75 472.92 389.81 C 458.22 389.01 446.14 379.57 434.98 370.91 C 428.83 365.78 421.35 362.05 416.71 355.31 C 407.56 342.98 406.43 326.63 408.74 311.93 C 409.43 306.81 411.07 301.92 412.30 296.93 C 411.72 293.70 407.90 292.69 405.69 290.76 C 408.04 284.11 415.98 283.06 422.08 283.41 C 447.39 284.37 472.44 278.96 496.41 271.24 M 423.07 296.01 C 419.82 305.99 417.74 316.48 418.10 327.01 C 418.42 335.51 420.68 344.23 426.04 350.99 C 428.75 354.60 432.57 357.11 435.82 360.19 C 445.39 368.54 456.19 376.01 468.53 379.56 C 479.06 382.61 491.19 381.71 500.33 375.31 C 511.83 362.56 513.29 344.64 516.35 328.51 C 519.93 312.85 520.82 296.60 519.19 280.63 C 519.09 277.58 515.95 274.58 512.89 276.21 C 483.66 285.65 453.50 292.01 423.07 296.01 Z" />
<path fill="#ffffff" opacity="1.00" d=" M 423.07 296.01 C 453.50 292.01 483.66 285.65 512.89 276.21 C 515.95 274.58 519.09 277.58 519.19 280.63 C 520.82 296.60 519.93 312.85 516.35 328.51 C 513.29 344.64 511.83 362.56 500.33 375.31 C 491.19 381.71 479.06 382.61 468.53 379.56 C 456.19 376.01 445.39 368.54 435.82 360.19 C 432.57 357.11 428.75 354.60 426.04 350.99 C 420.68 344.23 418.42 335.51 418.10 327.01 C 417.74 316.48 419.82 305.99 423.07 296.01 Z" />
</svg>
