<?xml version="1.0" encoding="UTF-8" ?>
<!DOCTYPE svg PUBLIC "-//W3C//DTD SVG 1.1//EN" "http://www.w3.org/Graphics/SVG/1.1/DTD/svg11.dtd">
<svg width="347pt" height="380pt" viewBox="0 0 347 380" version="1.1" xmlns="http://www.w3.org/2000/svg">
<g id="#010101ff">
<path fill="#010101" opacity="1.00" d=" M 0.00 0.00 L 0.13 0.00 C 0.10 0.03 0.03 0.09 0.00 0.13 L 0.00 0.00 Z" />
<path fill="#010101" opacity="1.00" d=" M 184.10 0.00 L 194.89 0.00 C 199.74 1.89 205.00 0.67 210.04 0.97 C 212.89 0.84 215.48 2.15 218.19 2.77 C 220.82 3.30 223.74 2.46 226.18 3.83 C 229.70 5.98 234.59 4.15 237.70 7.28 C 243.28 12.44 249.34 17.02 255.43 21.57 C 259.20 24.11 263.07 26.71 265.84 30.39 C 266.32 31.94 265.53 33.53 265.30 35.06 C 267.00 36.89 268.84 38.59 270.46 40.50 C 272.50 42.96 273.22 46.23 275.29 48.68 C 277.60 51.39 279.37 54.54 282.02 56.96 C 285.65 60.35 288.31 64.65 292.08 67.90 C 294.24 69.81 296.32 71.89 297.67 74.47 C 298.05 76.15 298.04 77.88 298.18 79.59 C 300.25 81.91 302.78 84.13 303.81 87.13 C 304.06 91.10 304.28 95.08 304.96 99.02 C 305.23 102.12 307.45 104.52 308.58 107.32 C 310.40 110.45 309.22 114.49 311.47 117.43 C 314.76 121.88 316.76 127.29 320.96 131.03 C 322.81 132.63 322.67 135.30 323.70 137.37 C 325.56 140.19 328.74 141.99 330.30 145.02 C 330.54 147.79 330.41 150.58 330.47 153.36 C 333.06 156.26 336.26 159.01 337.22 162.94 C 337.98 166.05 340.21 168.69 340.19 172.00 C 340.33 175.43 342.06 178.55 342.15 181.98 C 342.29 190.93 341.90 199.90 342.33 208.84 C 343.51 215.50 342.88 222.27 343.15 228.99 C 343.29 232.58 345.66 235.96 344.65 239.60 C 343.68 244.34 342.96 249.15 343.10 254.00 C 343.13 262.01 343.12 270.03 343.10 278.04 C 342.76 280.91 345.31 283.11 345.10 285.96 C 345.26 292.07 344.44 298.25 345.71 304.29 C 346.57 307.88 345.20 311.42 345.03 314.99 C 344.78 318.00 344.61 321.22 342.77 323.76 C 341.14 326.18 340.37 329.17 338.12 331.15 C 335.46 333.14 336.87 336.86 335.39 339.46 C 329.98 348.78 327.71 359.50 323.08 369.18 C 321.32 372.69 320.07 376.43 318.41 380.00 L 313.38 380.00 C 314.97 377.01 316.36 373.92 317.76 370.83 C 317.10 369.88 316.44 368.93 315.80 367.98 C 317.69 365.44 319.95 363.06 320.99 360.00 C 322.40 356.49 322.70 352.64 324.22 349.17 C 326.57 343.76 327.38 337.84 329.25 332.28 C 330.10 331.16 331.39 330.49 332.47 329.64 C 333.05 324.85 334.81 320.31 335.88 315.62 C 337.59 313.93 339.61 312.58 341.45 311.03 C 341.35 303.34 341.49 295.65 341.34 287.96 C 341.40 285.16 339.36 282.83 339.43 280.04 C 339.49 265.35 339.40 250.66 339.49 235.97 C 339.58 231.62 338.51 227.35 338.42 223.00 C 338.37 218.00 334.07 214.12 334.53 209.04 C 334.78 206.45 333.72 202.95 336.36 201.30 C 335.95 201.39 335.11 201.56 334.69 201.64 C 333.17 198.97 331.41 196.22 331.67 193.01 C 331.81 190.20 330.25 187.77 329.79 185.07 C 329.34 181.90 327.59 179.12 326.93 176.01 C 326.13 171.43 322.43 168.12 321.20 163.71 C 320.77 161.62 320.88 159.46 320.82 157.34 C 319.91 156.16 318.91 155.03 318.21 153.71 C 317.87 151.62 318.03 149.47 317.60 147.39 C 316.52 144.56 314.85 142.00 313.88 139.13 C 311.57 132.56 310.47 125.41 306.52 119.54 C 303.20 113.71 300.03 107.62 295.10 102.96 C 289.66 96.84 287.15 88.91 282.98 82.00 C 284.60 82.05 286.23 82.09 287.86 82.13 C 290.38 86.12 291.67 90.75 294.33 94.67 C 296.30 97.83 298.02 101.27 301.12 103.52 C 301.28 98.97 299.97 94.54 299.99 89.99 C 298.71 89.48 297.43 88.99 296.14 88.51 C 295.62 86.89 295.11 85.26 294.61 83.63 C 291.82 81.15 290.16 77.09 286.09 76.47 C 285.16 73.58 285.21 70.52 285.15 67.53 C 284.65 67.73 283.65 68.14 283.14 68.35 C 282.56 72.73 283.09 77.17 282.75 81.58 C 280.34 75.42 279.76 68.74 277.21 62.65 C 276.45 59.53 275.08 56.50 272.66 54.32 C 270.60 52.79 268.12 51.90 266.21 50.16 C 267.86 49.45 269.53 48.79 271.21 48.14 C 267.83 43.46 264.31 38.82 259.74 35.22 C 257.03 33.22 255.82 29.76 252.74 28.20 C 247.54 24.04 241.53 20.94 236.83 16.17 C 235.25 14.70 233.76 12.98 231.67 12.26 C 229.18 11.74 226.47 12.13 224.22 10.76 C 222.32 9.63 220.07 9.93 217.97 9.85 C 213.85 10.07 210.18 7.47 206.03 7.84 C 200.74 8.02 195.44 7.93 190.21 7.09 C 179.52 10.93 168.26 12.75 157.22 15.25 C 153.77 16.06 150.13 15.57 146.73 16.61 C 141.82 18.22 136.47 19.16 132.67 22.98 C 141.79 23.32 150.92 23.03 160.04 23.11 C 164.22 23.03 168.02 25.01 171.91 26.29 C 171.90 27.58 171.89 28.86 171.88 30.14 C 168.91 29.72 166.07 28.76 163.27 27.71 C 160.65 26.64 157.77 26.86 155.00 26.85 C 146.98 26.95 138.96 26.80 130.95 26.87 C 128.14 26.82 125.76 28.67 122.99 28.84 C 119.68 28.98 116.36 28.84 113.05 28.83 C 112.37 29.51 111.69 30.18 111.01 30.86 C 109.41 30.87 107.80 30.89 106.20 30.92 C 104.71 32.78 103.39 34.88 101.33 36.18 C 98.32 37.89 95.02 39.11 92.25 41.21 C 89.87 44.54 88.21 48.37 85.47 51.46 C 82.99 54.19 80.25 56.67 77.65 59.28 C 77.75 60.76 77.84 62.24 77.93 63.72 C 71.22 67.97 66.90 74.81 61.20 80.19 C 56.14 84.84 51.77 90.22 48.23 96.10 C 47.25 97.81 45.79 99.13 44.48 100.56 C 42.21 103.02 40.81 106.12 38.69 108.70 C 36.56 111.44 32.41 111.53 30.52 114.52 C 28.75 117.09 27.21 119.82 25.27 122.28 C 24.50 123.46 23.22 124.52 23.29 126.07 C 23.16 129.22 23.15 132.38 22.59 135.50 C 21.74 140.58 22.73 145.77 21.96 150.85 C 20.64 154.63 18.14 157.87 16.81 161.64 C 16.35 163.39 16.42 165.23 16.14 167.02 C 15.51 171.38 11.23 174.49 11.46 179.03 C 11.53 189.70 11.49 200.37 11.52 211.04 C 11.60 215.40 10.20 219.64 10.52 224.01 C 10.76 231.03 10.31 238.06 10.63 245.07 C 11.59 248.01 15.05 249.76 15.18 253.12 C 15.46 256.85 17.50 260.22 17.32 264.00 C 17.40 267.88 17.89 271.76 18.63 275.57 C 19.78 278.85 21.91 281.68 23.06 284.97 C 24.30 288.13 23.92 291.67 25.19 294.82 C 26.47 298.27 27.46 301.81 28.78 305.24 C 30.19 308.66 29.91 312.46 31.12 315.93 C 32.55 319.63 31.78 323.65 32.44 327.48 C 32.75 328.98 32.69 330.50 32.29 331.98 C 32.76 330.94 33.28 329.93 33.85 328.95 C 36.50 328.36 36.75 331.58 37.85 333.16 C 38.59 334.83 40.67 334.94 42.13 335.64 C 44.85 340.66 47.96 345.48 50.13 350.80 C 50.95 353.31 53.63 354.13 55.69 355.34 C 58.70 356.85 61.07 359.48 64.33 360.53 C 67.61 361.62 70.67 363.24 73.86 364.58 C 76.03 365.38 77.47 367.29 79.30 368.63 C 81.69 369.70 84.38 369.97 86.66 371.32 C 88.49 372.32 90.05 373.72 91.66 375.04 C 91.37 376.69 91.08 378.34 90.78 380.00 L 89.55 380.00 C 87.21 376.26 83.27 374.12 79.29 372.54 C 76.57 371.52 74.80 369.00 72.15 367.87 C 69.15 366.45 66.16 364.99 62.99 364.00 C 60.10 363.27 58.23 360.78 55.70 359.40 C 52.59 357.69 49.18 356.14 46.98 353.24 C 44.45 348.66 42.95 343.45 39.74 339.28 C 36.96 337.36 34.41 335.13 32.23 332.53 C 31.59 337.34 32.74 342.09 33.25 346.86 C 34.04 350.03 35.22 353.10 35.62 356.37 C 36.09 360.11 38.11 363.38 39.01 367.01 C 39.82 370.42 42.85 372.61 44.59 375.52 C 44.98 376.98 45.03 378.50 45.21 380.00 L 41.73 380.00 C 40.04 376.87 38.00 373.96 36.01 371.04 C 35.04 368.88 34.83 366.45 33.76 364.32 C 31.77 360.40 31.83 355.88 30.40 351.78 C 29.23 348.52 29.29 345.01 28.68 341.64 C 27.99 337.46 28.84 333.20 28.15 329.04 C 27.08 327.47 25.13 327.08 23.51 326.36 C 22.64 320.45 19.70 315.23 17.03 309.99 C 10.92 301.62 8.42 291.26 6.62 281.21 C 5.84 278.11 4.44 275.15 4.09 271.95 C 3.80 268.64 4.22 265.31 3.92 262.01 C 3.49 259.94 1.90 258.23 2.03 256.02 C 1.92 252.67 1.03 249.39 0.98 246.03 C 1.03 220.02 0.98 194.01 1.01 168.00 C 0.94 164.31 1.54 160.45 0.00 156.96 L 0.00 155.79 C 1.90 151.49 0.39 146.74 1.30 142.29 C 1.77 141.77 2.71 140.75 3.17 140.23 C 4.73 141.77 5.05 143.89 4.94 145.98 C 4.89 180.00 5.04 214.02 4.90 248.04 C 4.76 251.75 5.80 255.36 7.42 258.66 C 8.89 263.98 6.46 269.91 8.96 275.02 C 12.00 281.12 11.84 288.13 11.78 294.77 C 15.32 297.94 17.04 302.43 19.76 306.21 C 22.18 309.73 23.70 313.75 25.56 317.56 C 26.69 319.54 25.74 322.66 28.31 323.60 C 28.55 321.44 28.12 319.32 27.37 317.30 C 26.18 314.16 26.69 310.67 25.39 307.57 C 23.93 303.74 22.83 299.80 21.37 295.97 C 20.31 293.27 20.80 290.25 19.79 287.54 C 18.54 283.83 16.23 280.59 15.01 276.88 C 14.51 272.57 13.65 268.28 13.66 263.92 C 13.83 260.92 11.99 258.40 10.72 255.84 C 12.55 252.78 9.30 250.48 7.65 248.26 C 6.54 247.14 6.90 245.45 6.80 244.04 C 6.92 236.69 6.85 229.35 6.83 222.00 C 6.74 217.97 7.98 214.06 7.88 210.03 C 7.85 199.00 7.86 187.98 7.82 176.96 C 7.64 172.63 11.77 169.78 12.46 165.67 C 12.82 163.38 12.70 160.95 13.73 158.81 C 15.70 153.97 19.70 149.59 18.58 143.99 C 16.75 142.58 15.74 140.52 14.85 138.45 C 14.65 142.75 14.64 147.05 14.73 151.35 C 14.23 151.88 13.23 152.95 12.73 153.48 C 11.93 152.43 10.74 151.46 10.86 150.00 C 10.72 146.06 10.52 142.08 10.99 138.15 C 12.68 135.15 14.77 132.37 16.28 129.25 C 17.42 126.83 19.66 124.72 19.58 121.88 C 19.71 115.55 19.39 109.21 19.69 102.88 C 19.75 101.25 20.47 98.21 22.70 99.21 C 24.21 105.04 23.17 111.11 23.64 117.04 C 25.20 115.42 26.49 113.56 27.47 111.54 C 29.03 108.24 31.83 105.79 33.83 102.77 C 36.25 99.45 37.98 95.69 40.43 92.40 C 42.49 90.13 44.87 88.14 46.58 85.57 C 49.80 80.86 54.66 77.61 58.00 73.00 C 60.81 69.17 64.73 66.33 67.42 62.40 C 68.85 60.05 72.08 59.90 73.54 57.56 C 75.82 55.02 76.23 51.51 77.22 48.37 C 81.67 47.80 83.96 43.74 86.65 40.68 C 88.74 38.03 91.79 36.31 93.62 33.43 C 95.23 30.97 97.46 28.84 100.56 28.64 C 101.16 27.82 101.76 27.00 102.36 26.18 C 104.43 26.04 106.55 26.14 108.58 25.64 C 110.43 24.86 111.99 23.34 114.06 23.15 C 118.09 22.67 121.87 20.96 125.96 20.88 C 130.07 20.60 132.87 17.13 136.41 15.47 C 141.46 13.81 146.53 11.86 151.94 11.91 C 161.83 10.29 171.58 7.87 181.36 5.63 C 181.91 3.59 182.78 1.66 184.10 0.00 M 288.99 71.27 C 288.32 72.80 290.57 74.12 291.88 73.89 C 292.00 72.65 290.28 70.85 288.99 71.27 M 315.60 131.51 C 317.07 135.62 318.27 139.87 320.52 143.66 C 322.27 146.15 321.47 149.29 321.51 152.12 C 322.52 153.25 323.54 154.37 324.56 155.50 C 324.56 158.19 324.19 161.00 325.32 163.54 C 326.08 166.26 328.03 168.33 329.48 170.67 C 330.57 172.34 330.20 174.45 330.86 176.27 C 331.53 177.96 332.49 179.52 333.14 181.23 C 333.51 183.47 332.92 186.19 335.24 187.56 C 335.32 189.76 335.26 191.97 335.40 194.18 C 335.93 196.10 336.99 197.82 338.01 199.53 C 338.50 194.36 338.13 189.16 338.20 183.98 C 338.37 181.12 336.76 178.61 336.34 175.86 C 336.19 174.29 336.25 172.71 336.06 171.15 C 334.86 168.88 333.14 166.81 333.11 164.10 C 331.42 160.89 329.20 157.92 326.49 155.49 C 326.52 152.37 326.50 149.26 326.40 146.14 C 323.14 143.44 319.39 140.58 318.80 136.06 C 318.62 134.04 316.91 132.83 315.60 131.51 M 338.30 322.29 C 338.84 321.84 339.91 320.94 340.45 320.49 C 340.27 319.49 340.08 318.49 339.90 317.50 C 339.20 319.01 337.66 320.49 338.30 322.29 Z" />
<path fill="#010101" opacity="1.00" d=" M 221.48 67.56 C 223.70 66.72 225.73 65.44 227.92 64.53 C 232.28 64.46 236.65 64.58 241.01 64.51 C 243.86 64.43 246.86 64.96 249.14 66.78 C 251.57 68.92 255.23 69.05 257.32 71.64 C 259.00 73.40 259.64 75.86 261.22 77.68 C 262.68 78.93 264.45 79.80 265.76 81.24 C 268.33 84.27 269.19 88.31 271.17 91.64 C 273.98 92.74 277.30 93.34 279.28 95.85 C 281.45 99.15 282.69 102.93 284.26 106.53 C 286.06 107.38 287.68 108.64 288.37 110.59 C 289.57 113.56 291.39 116.19 293.85 118.25 C 293.87 121.11 293.88 123.97 293.87 126.84 C 296.16 129.29 299.03 131.32 300.78 134.21 C 301.02 141.41 300.79 148.62 300.88 155.83 C 298.25 158.10 296.86 161.21 295.36 164.23 C 291.38 168.07 287.14 171.82 282.09 174.19 C 279.82 175.33 277.77 177.45 275.04 177.14 C 266.36 177.09 257.68 177.08 249.00 177.14 C 243.45 177.53 238.72 173.76 233.18 173.90 C 229.28 171.03 224.05 170.93 220.32 167.73 C 217.29 165.26 213.81 163.43 210.23 161.87 C 208.61 158.52 205.36 156.50 203.35 153.46 C 202.94 152.16 202.84 150.80 202.66 149.46 C 201.18 147.89 199.68 146.34 198.28 144.71 C 196.71 143.02 196.63 140.52 195.32 138.67 C 194.04 137.85 192.62 137.28 191.24 136.67 C 189.48 133.72 190.02 130.24 189.99 126.97 C 190.04 124.41 189.92 121.84 190.28 119.30 C 191.18 116.85 192.87 114.67 193.01 111.98 C 192.87 109.77 195.18 108.69 195.73 106.77 C 196.35 102.45 200.60 100.10 202.06 96.15 C 203.35 92.86 206.63 91.17 209.47 89.45 C 211.76 88.10 212.92 85.62 214.55 83.64 C 215.88 81.93 217.83 80.91 219.45 79.53 C 221.63 77.68 223.50 75.51 225.38 73.37 C 226.22 73.15 227.88 72.70 228.71 72.48 C 227.67 71.99 226.63 71.51 225.59 71.03 C 224.71 71.79 223.83 72.54 222.96 73.29 C 222.54 72.90 221.71 72.11 221.30 71.71 C 221.35 70.33 221.41 68.94 221.48 67.56 M 228.38 68.20 C 227.76 68.83 226.52 70.10 225.90 70.74 C 227.09 71.13 228.29 71.48 229.51 71.79 C 230.57 71.15 231.51 70.32 232.52 69.60 C 232.45 70.49 232.30 72.28 232.22 73.18 C 232.37 72.45 232.66 71.00 232.81 70.27 C 235.23 70.42 238.18 69.34 240.12 71.32 C 239.83 72.26 239.44 73.17 238.96 74.04 C 237.12 74.04 235.28 74.08 233.45 74.16 C 231.83 75.91 229.58 76.66 227.42 77.47 C 224.48 79.45 222.28 82.29 219.64 84.60 C 216.02 86.94 214.23 91.18 210.77 93.69 C 209.20 94.81 206.80 95.08 206.08 97.10 C 204.62 100.65 201.84 103.39 199.62 106.46 C 199.59 107.10 199.53 108.37 199.51 109.01 C 198.48 110.27 196.64 111.24 196.75 113.09 C 196.84 116.11 194.97 118.56 193.93 121.26 C 193.49 125.12 193.82 129.02 193.72 132.90 C 195.43 133.92 197.24 134.90 198.55 136.46 C 200.16 138.05 200.32 140.46 201.47 142.32 C 202.97 144.19 204.77 145.79 206.51 147.44 C 206.45 149.42 206.05 151.77 208.03 153.01 C 210.81 155.24 212.35 158.85 215.84 160.16 C 219.55 161.94 222.89 164.41 225.56 167.56 C 228.88 167.19 232.19 167.88 234.50 170.45 C 240.01 169.66 244.57 173.89 250.01 173.51 C 258.74 173.51 267.48 173.38 276.22 173.56 C 278.12 171.99 280.12 170.54 282.36 169.49 C 285.26 168.14 287.50 165.81 290.09 163.99 C 292.09 162.74 292.44 160.27 293.40 158.31 C 294.18 156.99 295.43 156.05 296.48 154.96 C 296.07 154.54 295.26 153.70 294.85 153.28 C 295.39 153.64 296.46 154.37 297.00 154.73 C 296.92 148.55 297.17 142.37 296.91 136.20 C 296.09 133.33 292.81 132.15 290.96 130.03 C 288.33 126.41 292.11 120.81 288.10 117.88 C 286.04 116.01 284.99 113.39 283.83 110.93 C 283.24 110.76 282.05 110.44 281.46 110.28 C 279.29 106.39 278.29 101.94 275.83 98.21 C 273.38 96.49 270.38 95.76 267.93 94.03 C 265.82 90.91 264.99 87.10 262.98 83.90 C 261.79 83.08 260.47 82.48 259.28 81.67 C 257.33 79.80 256.41 77.20 255.01 74.95 C 253.66 72.76 250.76 72.73 248.97 71.08 C 246.56 68.92 243.20 68.06 240.02 68.16 C 236.14 68.18 232.26 68.21 228.38 68.20 Z" />
<path fill="#010101" opacity="1.00" d=" M 252.26 102.74 C 261.73 102.32 271.42 106.16 277.61 113.39 C 281.72 118.19 284.23 124.08 285.85 130.14 C 286.18 134.07 286.02 138.04 285.95 141.98 C 284.44 149.33 280.96 156.33 275.72 161.74 C 270.75 166.08 264.62 169.23 258.04 170.00 C 253.07 169.75 247.85 170.83 243.11 168.93 C 236.56 167.04 230.47 163.04 226.69 157.32 C 223.52 153.34 221.84 148.45 220.38 143.65 C 219.53 139.20 219.63 134.61 220.19 130.13 C 221.99 122.93 225.37 115.93 230.83 110.82 C 236.72 105.69 244.41 102.60 252.26 102.74 M 237.33 108.13 C 235.93 109.57 234.50 110.98 233.04 112.36 C 232.98 114.78 232.98 117.21 233.05 119.64 C 234.52 121.04 235.96 122.48 237.36 123.95 C 240.12 124.03 242.88 124.03 245.64 123.95 C 247.04 122.48 248.48 121.04 249.96 119.64 C 250.01 117.21 250.02 114.78 249.96 112.36 C 248.50 110.98 247.07 109.57 245.67 108.13 C 242.90 107.57 240.10 107.58 237.33 108.13 M 225.38 130.26 C 224.18 131.20 223.13 132.29 222.03 133.33 C 221.98 135.76 221.98 138.20 222.04 140.64 C 223.17 141.72 224.28 142.83 225.36 143.95 C 227.82 144.01 230.29 144.01 232.76 144.00 C 234.43 142.03 236.38 139.79 236.08 137.00 C 236.37 134.25 234.52 132.00 232.78 130.11 C 230.32 129.83 227.74 129.14 225.38 130.26 Z" />
<path fill="#010101" opacity="1.00" d=" M 81.38 116.10 C 87.90 115.42 94.47 115.89 101.01 115.77 C 103.49 115.55 105.23 117.88 107.70 117.81 C 109.66 117.89 111.10 119.37 112.86 120.05 C 116.55 121.50 120.32 122.72 124.11 123.89 C 129.47 125.04 130.25 132.11 135.23 133.84 C 137.87 134.45 140.74 135.24 142.54 137.42 C 143.49 138.63 144.77 139.49 146.04 140.33 C 146.21 144.88 146.29 149.44 146.08 153.99 C 146.03 155.81 144.12 157.01 144.23 158.87 C 144.49 162.30 141.91 164.87 141.03 168.00 C 140.45 169.89 138.85 171.23 138.23 173.10 C 137.48 174.92 136.86 176.96 135.16 178.15 C 129.47 182.72 126.47 189.58 122.57 195.57 C 118.97 200.31 113.36 203.07 110.07 208.06 C 108.22 209.89 106.09 211.40 104.17 213.17 C 102.73 214.47 101.05 215.90 98.96 215.65 C 90.70 215.63 82.44 215.62 74.17 215.68 C 66.40 212.91 61.02 206.33 55.31 200.69 C 53.73 195.62 54.26 190.33 54.04 185.11 C 51.12 181.98 52.27 177.60 52.23 173.74 C 50.89 173.03 49.55 172.34 48.18 171.69 C 46.56 168.36 47.37 164.55 47.15 160.98 C 47.20 157.84 47.40 153.56 51.05 152.51 C 51.16 149.06 51.14 145.62 51.12 142.18 C 52.09 141.63 53.07 141.10 54.05 140.57 C 54.10 138.80 54.13 137.04 54.17 135.28 C 56.43 133.94 58.74 132.56 60.47 130.54 C 61.84 128.88 64.08 127.51 66.09 128.96 C 66.01 128.40 65.86 127.27 65.79 126.71 C 66.75 126.59 67.71 126.46 68.68 126.34 C 69.80 124.25 71.50 122.56 73.20 120.95 C 75.67 120.58 78.23 120.71 80.56 119.62 C 80.83 118.45 81.10 117.27 81.38 116.10 M 84.73 119.39 C 84.61 120.05 84.37 121.38 84.25 122.05 C 81.27 123.42 78.03 124.02 74.93 125.02 C 73.21 126.62 71.88 128.69 69.75 129.80 C 67.34 131.09 64.99 132.51 62.91 134.29 C 63.12 135.10 63.33 135.91 63.55 136.72 C 62.79 136.63 62.03 136.54 61.28 136.44 C 60.22 137.14 59.14 137.83 58.05 138.49 C 58.02 139.83 57.99 141.17 57.95 142.51 C 56.33 143.01 55.43 144.48 55.06 146.06 C 54.88 148.85 55.05 151.66 54.92 154.45 C 50.09 157.25 50.61 163.81 51.31 168.58 C 52.96 170.79 56.08 169.55 57.50 167.75 C 58.10 169.12 58.71 170.49 59.32 171.86 C 58.25 172.41 57.19 172.96 56.12 173.51 C 55.99 175.90 55.97 178.30 56.01 180.70 C 56.69 181.49 57.36 182.28 58.03 183.08 C 57.91 188.33 57.72 193.63 59.22 198.72 C 61.84 201.46 64.58 204.08 67.21 206.80 C 69.13 209.17 72.58 209.29 74.32 211.92 C 82.83 212.12 91.33 211.89 99.84 212.06 C 101.04 210.51 102.13 208.90 103.19 207.26 C 103.84 207.14 105.12 206.88 105.77 206.76 C 107.54 205.10 107.62 202.10 109.97 200.98 C 115.55 197.85 120.34 192.93 122.38 186.77 C 120.23 188.19 118.02 189.49 115.83 190.84 C 112.13 193.45 107.43 194.15 103.00 194.03 C 99.26 193.92 95.42 194.40 91.79 193.27 C 88.51 192.70 85.74 190.79 82.96 189.09 C 76.13 185.73 72.19 178.60 69.87 171.65 C 70.94 172.40 71.79 173.55 73.07 173.97 C 74.63 174.08 76.19 174.02 77.75 174.01 C 79.43 172.03 81.38 169.80 81.07 167.00 C 81.36 163.00 78.12 159.61 74.23 159.23 C 72.71 160.19 71.23 161.21 69.75 162.24 C 71.44 155.32 75.46 149.13 80.98 144.66 C 81.00 147.32 80.99 149.98 81.05 152.64 C 82.17 153.72 83.28 154.83 84.36 155.95 C 86.82 156.01 89.29 156.01 91.75 156.00 C 93.44 154.03 95.39 151.79 95.08 148.99 C 95.38 146.21 93.46 143.97 91.75 142.03 C 90.40 142.02 89.06 142.00 87.71 141.98 C 88.09 141.54 88.86 140.65 89.24 140.20 C 97.11 138.43 105.63 137.91 113.32 140.69 C 117.36 143.27 121.92 145.23 125.28 148.73 C 129.56 153.78 132.84 160.20 132.04 167.00 C 132.56 171.31 130.82 175.29 129.22 179.17 C 131.08 176.73 133.55 174.63 134.57 171.65 C 135.10 169.97 136.16 168.59 137.32 167.31 C 137.58 165.25 138.38 163.36 139.59 161.68 C 141.12 159.74 140.46 157.16 140.57 154.89 C 143.80 151.81 142.03 147.17 142.64 143.27 C 141.51 143.04 140.39 142.82 139.28 142.59 C 139.08 141.45 138.90 140.30 138.72 139.16 C 136.04 138.52 133.36 137.88 130.66 137.32 C 130.16 140.71 132.73 143.21 134.29 145.91 C 135.72 146.00 137.15 146.10 138.58 146.22 C 138.98 146.68 139.79 147.59 140.19 148.05 C 137.94 150.93 134.17 149.84 131.02 150.03 C 130.13 147.78 129.05 145.60 127.70 143.58 C 126.42 142.05 126.98 139.99 126.89 138.18 C 125.20 134.58 122.68 131.49 121.14 127.83 C 117.85 127.11 119.49 131.04 119.44 132.74 C 118.94 131.10 118.86 129.38 118.95 127.68 C 116.03 125.45 112.38 124.64 109.28 122.74 C 107.99 121.90 106.53 121.43 105.07 120.99 C 103.06 120.38 101.18 119.10 99.00 119.33 C 94.24 119.37 89.48 119.38 84.73 119.39 Z" />
<path fill="#010101" opacity="1.00" d=" M 57.17 146.69 L 57.83 146.69 C 57.95 147.07 58.19 147.84 58.30 148.23 L 57.84 148.87 L 57.16 148.88 L 56.70 148.23 C 56.81 147.84 57.05 147.08 57.17 146.69 Z" />
<path fill="#010101" opacity="1.00" d=" M 203.09 217.17 C 209.42 215.99 215.55 213.77 221.98 213.14 C 229.95 213.15 237.93 213.00 245.90 213.21 C 249.15 214.60 252.00 217.14 255.68 217.32 C 260.57 221.19 263.53 226.91 265.17 232.83 C 265.48 234.31 266.96 235.38 266.87 236.97 C 266.90 246.98 266.86 257.00 266.89 267.02 C 267.04 269.76 265.67 272.21 264.35 274.50 C 263.04 279.57 262.47 285.08 259.37 289.46 C 258.12 292.95 258.01 296.84 256.14 300.12 C 254.50 303.01 253.55 306.22 252.20 309.24 C 251.81 310.41 250.88 311.48 250.99 312.77 C 252.07 313.57 253.24 314.24 254.40 314.95 C 253.33 316.02 252.26 317.10 251.19 318.18 C 250.59 317.79 249.40 317.02 248.80 316.64 C 246.07 319.32 243.92 322.54 241.00 325.04 C 239.59 326.43 237.49 326.71 235.96 327.94 C 231.78 330.86 228.16 335.03 222.83 335.77 C 215.02 336.14 206.99 336.10 199.50 333.64 C 199.24 333.23 198.73 332.39 198.48 331.98 C 196.45 331.89 194.41 331.98 192.41 331.66 C 190.95 330.73 189.74 329.48 188.42 328.38 C 186.69 327.42 184.56 327.29 183.04 325.96 C 181.73 324.84 180.05 324.38 178.50 323.73 C 176.52 319.66 172.38 317.63 168.89 315.12 C 166.68 312.99 164.07 311.24 162.24 308.75 C 156.77 302.41 153.69 294.29 147.51 288.51 C 144.21 284.13 140.25 280.21 137.59 275.38 C 133.34 270.21 130.88 263.71 129.87 257.14 C 128.41 255.83 126.78 254.75 125.09 253.77 C 125.70 251.72 126.10 249.63 126.33 247.51 C 128.93 246.42 129.49 243.18 132.02 242.02 C 136.43 239.59 141.35 238.24 145.71 235.70 C 149.67 233.31 154.29 232.49 158.38 230.38 C 160.96 229.12 163.85 228.70 166.45 227.47 C 169.08 226.24 172.30 226.44 174.49 224.34 C 177.23 224.46 179.55 223.26 181.71 221.71 C 188.77 220.04 195.94 218.54 203.09 217.17 M 214.00 218.98 C 205.38 221.39 196.47 222.50 187.81 224.74 C 185.34 225.55 181.45 224.91 180.52 227.95 C 179.14 227.99 177.76 228.03 176.38 228.07 C 175.95 228.52 175.07 229.43 174.63 229.88 C 170.38 229.29 167.20 232.61 163.18 233.21 C 160.47 233.98 158.12 235.66 155.38 236.38 C 149.97 237.87 145.41 241.32 140.12 243.13 C 136.40 244.29 133.51 247.05 129.90 248.45 C 129.87 249.87 130.25 252.06 132.12 251.92 C 134.98 251.64 137.56 252.64 140.06 253.90 C 143.20 254.18 146.36 253.96 149.50 253.97 C 150.61 251.40 152.99 249.81 154.62 247.64 C 156.83 243.87 158.46 239.81 160.15 235.80 C 160.77 235.90 161.99 236.11 162.61 236.22 C 165.41 238.54 167.64 241.48 170.41 243.84 C 170.79 243.90 171.55 244.02 171.92 244.08 C 174.00 242.83 176.07 241.49 177.78 239.77 C 179.21 238.03 180.03 235.89 181.16 233.97 C 181.81 233.98 183.10 234.00 183.74 234.01 C 185.18 236.63 187.18 238.85 189.30 240.93 C 193.59 238.90 197.45 236.10 201.12 233.12 C 202.60 231.11 204.13 229.12 206.05 227.51 C 208.12 229.22 208.93 231.81 209.37 234.36 C 210.53 232.46 211.15 230.33 211.14 228.10 C 212.83 227.00 214.60 225.91 216.69 225.86 C 218.76 229.55 221.89 232.48 224.23 235.99 C 226.46 236.00 228.71 236.13 230.94 235.91 C 236.85 234.11 240.69 228.93 244.16 224.16 C 245.29 222.25 245.87 220.07 246.94 218.13 C 245.34 217.59 243.75 216.88 242.04 216.99 C 237.02 216.96 232.01 217.05 227.00 216.97 C 222.56 216.71 218.29 218.09 214.00 218.98 M 249.64 220.07 C 250.11 221.36 250.94 222.45 251.82 223.48 C 251.92 224.49 252.02 225.50 252.12 226.51 C 253.50 227.37 254.84 228.32 256.16 229.29 C 256.87 228.57 257.58 227.85 258.29 227.14 C 257.05 224.99 255.81 222.69 253.65 221.33 C 252.34 220.81 250.98 220.46 249.64 220.07 M 233.68 239.70 C 229.98 240.26 226.02 240.23 222.31 239.70 C 218.72 238.90 218.58 234.67 216.13 232.55 C 215.63 232.97 214.63 233.82 214.13 234.25 C 213.92 235.89 214.34 237.91 212.68 238.93 C 209.29 239.80 206.53 237.19 204.41 234.92 C 203.82 238.04 200.26 238.35 198.43 240.47 C 195.07 242.86 191.71 246.42 187.25 246.08 C 185.90 244.23 184.58 242.37 183.15 240.58 C 180.88 242.48 178.59 244.37 176.66 246.64 C 174.32 248.60 171.15 247.95 168.35 247.96 C 166.41 245.88 164.38 243.88 162.39 241.86 C 160.70 245.51 159.38 249.53 156.27 252.28 C 154.37 254.04 153.09 256.51 150.95 257.96 C 145.18 257.97 139.12 258.80 133.79 256.02 C 134.94 261.07 136.48 266.20 139.60 270.41 C 141.20 272.54 142.31 274.97 143.83 277.15 C 146.84 280.50 149.25 284.38 152.62 287.41 C 154.34 288.95 155.36 291.07 156.41 293.08 C 158.36 288.50 163.31 286.77 167.15 284.18 C 171.74 279.53 178.21 277.64 184.08 275.12 C 189.39 274.99 194.86 274.42 200.02 275.97 C 205.14 276.94 209.12 272.84 213.81 271.77 C 215.90 271.28 217.72 269.74 219.96 269.98 C 224.25 270.09 228.56 269.76 232.83 270.17 C 236.70 271.24 240.58 272.39 244.65 272.08 C 246.04 273.51 247.45 274.93 248.87 276.34 C 248.97 277.77 248.94 279.23 249.27 280.64 C 250.25 282.64 251.74 284.34 252.73 286.35 C 253.15 287.86 252.98 289.45 253.09 291.00 C 253.54 291.00 254.44 291.01 254.88 291.01 C 254.97 289.83 255.06 288.65 255.16 287.48 C 256.33 286.11 257.49 284.65 257.83 282.83 C 258.58 279.36 260.11 276.07 260.22 272.47 C 262.29 270.20 263.14 267.06 263.02 264.03 C 262.95 255.14 263.07 246.25 262.95 237.36 C 262.49 236.93 261.56 236.06 261.09 235.63 C 261.02 234.35 260.95 233.08 260.88 231.81 C 258.95 232.15 257.09 233.07 255.11 232.99 C 252.80 232.06 250.65 230.79 248.40 229.72 C 248.05 229.14 247.34 227.98 246.99 227.40 C 244.42 233.11 238.89 236.65 233.68 239.70 M 218.36 274.04 C 217.93 274.52 217.06 275.47 216.63 275.94 C 215.22 275.96 213.82 275.99 212.42 276.03 C 212.24 278.68 209.57 277.91 207.74 278.16 C 209.01 281.16 211.58 283.39 213.31 286.14 C 212.59 286.85 211.87 287.57 211.14 288.28 C 207.22 286.81 205.80 282.57 202.67 280.09 C 198.38 280.25 194.30 278.43 189.98 278.95 C 184.66 278.42 180.18 281.72 175.40 283.46 C 170.13 288.02 163.08 290.20 158.72 295.85 C 162.21 301.65 166.17 307.27 171.30 311.74 C 173.46 313.60 176.16 314.75 178.23 316.74 C 179.83 318.26 181.35 319.86 182.98 321.35 C 183.00 319.64 183.01 317.95 183.01 316.25 C 185.17 314.22 187.88 312.36 191.01 312.96 C 195.59 313.83 199.93 317.03 201.21 321.69 C 205.19 320.94 209.12 319.95 213.05 318.99 C 216.41 319.10 218.58 322.24 220.89 324.31 C 220.39 318.80 225.51 313.97 230.82 313.70 C 235.65 312.42 240.68 313.21 245.62 313.00 C 248.09 308.09 250.04 302.96 252.05 297.86 C 249.61 295.33 248.95 291.77 248.83 288.40 C 245.74 286.08 244.97 282.18 244.84 278.54 C 243.86 277.91 243.08 277.11 242.48 276.12 C 238.81 276.26 235.34 275.06 231.84 274.17 C 227.36 273.74 222.85 274.08 218.36 274.04 M 187.21 318.29 C 186.96 319.79 186.69 321.28 186.33 322.76 C 189.05 323.83 191.41 325.57 193.78 327.25 C 195.31 328.57 197.45 327.84 199.27 328.01 C 198.59 327.21 197.91 326.41 197.23 325.62 C 196.99 323.56 196.67 321.37 195.27 319.74 C 194.01 318.01 191.76 317.76 189.92 317.00 C 189.02 317.43 188.11 317.86 187.21 318.29 M 229.34 318.15 C 227.91 319.56 226.49 320.97 225.05 322.36 C 224.98 324.99 224.96 327.63 225.06 330.27 C 226.06 329.95 226.96 329.45 227.76 328.75 C 231.05 325.97 234.84 323.87 238.46 321.55 C 239.75 320.05 240.96 318.49 242.26 316.99 C 237.86 316.47 233.66 317.73 229.34 318.15 M 199.70 328.74 C 201.88 330.19 204.29 331.21 206.96 331.14 C 211.63 332.39 216.48 332.01 221.26 331.93 C 219.86 328.59 217.17 325.65 213.93 323.98 C 208.67 323.45 204.01 326.12 199.70 328.74 Z" />
<path fill="#010101" opacity="1.00" d=" M 171.15 288.32 C 173.40 286.05 176.21 284.33 179.08 282.95 C 180.72 282.55 181.54 284.11 182.52 285.08 C 180.77 286.52 178.61 287.58 177.52 289.67 C 175.74 290.02 174.29 291.07 172.95 292.24 C 172.43 291.85 171.41 291.08 170.90 290.69 C 170.96 290.10 171.08 288.91 171.15 288.32 Z" />
<path fill="#010101" opacity="1.00" d=" M 166.00 299.27 C 167.73 298.17 169.44 297.01 171.08 295.76 C 171.56 296.14 172.51 296.90 172.99 297.28 C 172.99 297.89 173.00 299.12 173.00 299.73 C 171.26 300.83 169.56 301.99 167.92 303.23 C 167.44 302.86 166.49 302.10 166.01 301.72 C 166.01 301.11 166.00 299.89 166.00 299.27 Z" />
</g>
<g id="#fefefeff">
<path fill="#fefefe" opacity="1.00" d=" M 157.22 15.25 C 168.26 12.75 179.52 10.93 190.21 7.09 C 195.44 7.93 200.74 8.02 206.03 7.84 C 210.18 7.47 213.85 10.07 217.97 9.85 C 220.07 9.93 222.32 9.63 224.22 10.76 C 226.47 12.13 229.18 11.74 231.67 12.26 C 233.76 12.98 235.25 14.70 236.83 16.17 C 241.53 20.94 247.54 24.04 252.74 28.20 C 255.82 29.76 257.03 33.22 259.74 35.22 C 264.31 38.82 267.83 43.46 271.21 48.14 C 269.53 48.79 267.86 49.45 266.21 50.16 C 268.12 51.90 270.60 52.79 272.66 54.32 C 275.08 56.50 276.45 59.53 277.21 62.65 C 279.76 68.74 280.34 75.42 282.75 81.58 C 283.09 77.17 282.56 72.73 283.14 68.35 C 283.65 68.14 284.65 67.73 285.15 67.53 C 285.21 70.52 285.16 73.58 286.09 76.47 C 290.16 77.09 291.82 81.15 294.61 83.63 C 295.11 85.26 295.62 86.89 296.14 88.51 C 297.43 88.99 298.71 89.48 299.99 89.99 C 299.97 94.54 301.28 98.97 301.12 103.52 C 298.02 101.27 296.30 97.83 294.33 94.67 C 291.67 90.75 290.38 86.12 287.86 82.13 C 286.23 82.09 284.60 82.05 282.98 82.00 C 287.15 88.91 289.66 96.84 295.10 102.96 C 300.03 107.62 303.20 113.71 306.52 119.54 C 310.47 125.41 311.57 132.56 313.88 139.13 C 314.85 142.00 316.52 144.56 317.60 147.39 C 318.03 149.47 317.87 151.62 318.21 153.71 C 318.91 155.03 319.91 156.16 320.82 157.34 C 320.88 159.46 320.77 161.62 321.20 163.71 C 322.43 168.12 326.13 171.43 326.93 176.01 C 327.59 179.12 329.34 181.90 329.79 185.07 C 330.25 187.77 331.81 190.20 331.67 193.01 C 331.41 196.22 333.17 198.97 334.69 201.64 C 335.11 201.56 335.95 201.39 336.36 201.30 C 333.72 202.95 334.78 206.45 334.53 209.04 C 334.07 214.12 338.37 218.00 338.42 223.00 C 338.51 227.35 339.58 231.62 339.49 235.97 C 339.40 250.66 339.49 265.35 339.43 280.04 C 339.36 282.83 341.40 285.16 341.34 287.96 C 341.49 295.65 341.35 303.34 341.45 311.03 C 339.61 312.58 337.59 313.93 335.88 315.62 C 334.81 320.31 333.05 324.85 332.47 329.64 C 331.39 330.49 330.10 331.16 329.25 332.28 C 327.38 337.84 326.57 343.76 324.22 349.17 C 322.70 352.64 322.40 356.49 320.99 360.00 C 319.95 363.06 317.69 365.44 315.80 367.98 C 316.44 368.93 317.10 369.88 317.76 370.83 C 316.36 373.92 314.97 377.01 313.38 380.00 L 90.78 380.00 C 91.08 378.34 91.37 376.69 91.66 375.04 C 90.05 373.72 88.49 372.32 86.66 371.32 C 84.38 369.97 81.69 369.70 79.30 368.63 C 77.47 367.29 76.03 365.38 73.86 364.58 C 70.67 363.24 67.61 361.62 64.33 360.53 C 61.07 359.48 58.70 356.85 55.69 355.34 C 53.63 354.13 50.95 353.31 50.13 350.80 C 47.96 345.48 44.85 340.66 42.13 335.64 C 40.67 334.94 38.59 334.83 37.85 333.16 C 36.75 331.58 36.50 328.36 33.85 328.95 C 33.28 329.93 32.76 330.94 32.29 331.98 C 32.69 330.50 32.75 328.98 32.44 327.48 C 31.78 323.65 32.55 319.63 31.12 315.93 C 29.91 312.46 30.19 308.66 28.78 305.24 C 27.46 301.81 26.47 298.27 25.19 294.82 C 23.92 291.67 24.30 288.13 23.06 284.97 C 21.91 281.68 19.78 278.85 18.63 275.57 C 17.89 271.76 17.40 267.88 17.32 264.00 C 17.50 260.22 15.46 256.85 15.18 253.12 C 15.05 249.76 11.59 248.01 10.63 245.07 C 10.31 238.06 10.76 231.03 10.52 224.01 C 10.20 219.64 11.60 215.40 11.52 211.04 C 11.49 200.37 11.53 189.70 11.46 179.03 C 11.23 174.49 15.51 171.38 16.14 167.02 C 16.42 165.23 16.35 163.39 16.81 161.64 C 18.14 157.87 20.64 154.63 21.96 150.85 C 22.73 145.77 21.74 140.58 22.59 135.50 C 23.15 132.38 23.16 129.22 23.29 126.07 C 23.22 124.52 24.50 123.46 25.27 122.28 C 27.21 119.82 28.75 117.09 30.52 114.52 C 32.41 111.53 36.56 111.44 38.69 108.70 C 40.81 106.12 42.21 103.02 44.48 100.56 C 45.79 99.13 47.25 97.81 48.23 96.10 C 51.77 90.22 56.14 84.84 61.20 80.19 C 66.90 74.81 71.22 67.97 77.93 63.72 C 77.84 62.24 77.75 60.76 77.65 59.28 C 80.25 56.67 82.99 54.19 85.47 51.46 C 88.21 48.37 89.87 44.54 92.25 41.21 C 95.02 39.11 98.32 37.89 101.33 36.18 C 103.39 34.88 104.71 32.78 106.20 30.92 C 107.80 30.89 109.41 30.87 111.01 30.86 C 111.69 30.18 112.37 29.51 113.05 28.83 C 116.36 28.84 119.68 28.98 122.99 28.84 C 125.76 28.67 128.14 26.82 130.95 26.87 C 138.96 26.80 146.98 26.95 155.00 26.85 C 157.77 26.86 160.65 26.64 163.27 27.71 C 166.07 28.76 168.91 29.72 171.88 30.14 C 171.89 28.86 171.90 27.58 171.91 26.29 C 168.02 25.01 164.22 23.03 160.04 23.11 C 150.92 23.03 141.79 23.32 132.67 22.98 C 136.47 19.16 141.82 18.22 146.73 16.61 C 150.13 15.57 153.77 16.06 157.22 15.25 M 221.48 67.56 C 221.41 68.94 221.35 70.33 221.30 71.71 C 221.71 72.11 222.54 72.90 222.96 73.29 C 223.83 72.54 224.71 71.79 225.59 71.03 C 226.63 71.51 227.67 71.99 228.71 72.48 C 227.88 72.70 226.22 73.15 225.38 73.37 C 223.50 75.51 221.63 77.68 219.45 79.53 C 217.83 80.91 215.88 81.93 214.55 83.64 C 212.92 85.62 211.76 88.10 209.47 89.45 C 206.63 91.17 203.35 92.86 202.06 96.15 C 200.60 100.10 196.35 102.45 195.73 106.77 C 195.18 108.69 192.87 109.77 193.01 111.98 C 192.87 114.67 191.18 116.85 190.28 119.30 C 189.92 121.84 190.04 124.41 189.99 126.97 C 190.02 130.24 189.48 133.72 191.24 136.67 C 192.62 137.28 194.04 137.85 195.32 138.67 C 196.63 140.52 196.71 143.02 198.28 144.71 C 199.68 146.34 201.18 147.89 202.66 149.46 C 202.84 150.80 202.94 152.16 203.35 153.46 C 205.36 156.50 208.61 158.52 210.23 161.87 C 213.81 163.43 217.29 165.26 220.32 167.73 C 224.05 170.93 229.28 171.03 233.18 173.90 C 238.72 173.76 243.45 177.53 249.00 177.14 C 257.68 177.08 266.36 177.09 275.04 177.14 C 277.77 177.45 279.82 175.33 282.09 174.19 C 287.14 171.82 291.38 168.07 295.36 164.23 C 296.86 161.21 298.25 158.10 300.88 155.83 C 300.79 148.62 301.02 141.41 300.78 134.21 C 299.03 131.32 296.16 129.29 293.87 126.84 C 293.88 123.97 293.87 121.11 293.85 118.25 C 291.39 116.19 289.57 113.56 288.37 110.59 C 287.68 108.64 286.06 107.38 284.26 106.53 C 282.69 102.93 281.45 99.15 279.28 95.85 C 277.30 93.34 273.98 92.74 271.17 91.64 C 269.19 88.31 268.33 84.27 265.76 81.24 C 264.45 79.80 262.68 78.93 261.22 77.68 C 259.64 75.86 259.00 73.40 257.32 71.64 C 255.23 69.05 251.57 68.92 249.14 66.78 C 246.86 64.96 243.86 64.43 241.01 64.51 C 236.65 64.58 232.28 64.46 227.92 64.53 C 225.73 65.44 223.70 66.72 221.48 67.56 M 81.38 116.10 C 81.10 117.27 80.83 118.45 80.56 119.62 C 78.23 120.71 75.67 120.58 73.20 120.95 C 71.50 122.56 69.80 124.25 68.68 126.34 C 67.71 126.46 66.75 126.59 65.79 126.71 C 65.86 127.27 66.01 128.40 66.09 128.96 C 64.08 127.51 61.84 128.88 60.47 130.54 C 58.74 132.56 56.43 133.94 54.17 135.28 C 54.13 137.04 54.10 138.80 54.05 140.57 C 53.07 141.10 52.09 141.63 51.12 142.18 C 51.14 145.62 51.16 149.06 51.05 152.51 C 47.40 153.56 47.20 157.84 47.15 160.98 C 47.37 164.55 46.56 168.36 48.18 171.69 C 49.55 172.34 50.89 173.03 52.23 173.74 C 52.27 177.60 51.12 181.98 54.04 185.11 C 54.26 190.33 53.73 195.62 55.31 200.69 C 61.02 206.33 66.40 212.91 74.17 215.68 C 82.44 215.62 90.70 215.63 98.96 215.65 C 101.05 215.90 102.73 214.47 104.17 213.17 C 106.09 211.40 108.22 209.89 110.07 208.06 C 113.36 203.07 118.97 200.31 122.57 195.57 C 126.47 189.58 129.47 182.72 135.16 178.15 C 136.86 176.96 137.48 174.92 138.23 173.10 C 138.85 171.23 140.45 169.89 141.03 168.00 C 141.91 164.87 144.49 162.30 144.23 158.87 C 144.12 157.01 146.03 155.81 146.08 153.99 C 146.29 149.44 146.21 144.88 146.04 140.33 C 144.77 139.49 143.49 138.63 142.54 137.42 C 140.74 135.24 137.87 134.45 135.23 133.84 C 130.25 132.11 129.47 125.04 124.11 123.89 C 120.32 122.72 116.55 121.50 112.86 120.05 C 111.10 119.37 109.66 117.89 107.70 117.81 C 105.23 117.88 103.49 115.55 101.01 115.77 C 94.47 115.89 87.90 115.42 81.38 116.10 M 203.09 217.17 C 195.94 218.54 188.77 220.04 181.71 221.71 C 179.55 223.26 177.23 224.46 174.49 224.34 C 172.30 226.44 169.08 226.24 166.45 227.47 C 163.85 228.70 160.96 229.12 158.38 230.38 C 154.29 232.49 149.67 233.31 145.71 235.70 C 141.35 238.24 136.43 239.59 132.02 242.02 C 129.49 243.18 128.93 246.42 126.33 247.51 C 126.10 249.63 125.70 251.72 125.09 253.77 C 126.78 254.75 128.41 255.83 129.87 257.14 C 130.88 263.71 133.34 270.21 137.59 275.38 C 140.25 280.21 144.21 284.13 147.51 288.51 C 153.69 294.29 156.77 302.41 162.24 308.75 C 164.07 311.24 166.68 312.99 168.89 315.12 C 172.38 317.63 176.52 319.66 178.50 323.73 C 180.05 324.38 181.73 324.84 183.04 325.96 C 184.56 327.29 186.69 327.42 188.42 328.38 C 189.74 329.48 190.95 330.73 192.41 331.66 C 194.41 331.98 196.45 331.89 198.48 331.98 C 198.73 332.39 199.24 333.23 199.50 333.64 C 206.99 336.10 215.02 336.14 222.83 335.77 C 228.16 335.03 231.78 330.86 235.96 327.94 C 237.49 326.71 239.59 326.43 241.00 325.04 C 243.92 322.54 246.07 319.32 248.80 316.64 C 249.40 317.02 250.59 317.79 251.19 318.18 C 252.26 317.10 253.33 316.02 254.40 314.95 C 253.24 314.24 252.07 313.57 250.99 312.77 C 250.88 311.48 251.81 310.41 252.20 309.24 C 253.55 306.22 254.50 303.01 256.14 300.12 C 258.01 296.84 258.12 292.95 259.37 289.46 C 262.47 285.08 263.04 279.57 264.35 274.50 C 265.67 272.21 267.04 269.76 266.89 267.02 C 266.86 257.00 266.90 246.98 266.87 236.97 C 266.96 235.38 265.48 234.31 265.17 232.83 C 263.53 226.91 260.57 221.19 255.68 217.32 C 252.00 217.14 249.15 214.60 245.90 213.21 C 237.93 213.00 229.95 213.15 221.98 213.14 C 215.55 213.77 209.42 215.99 203.09 217.17 Z" />
<path fill="#fefefe" opacity="1.00" d=" M 228.38 68.20 C 232.26 68.21 236.14 68.18 240.02 68.16 C 243.20 68.06 246.56 68.92 248.97 71.08 C 250.76 72.73 253.66 72.76 255.01 74.95 C 256.41 77.20 257.33 79.80 259.28 81.67 C 260.47 82.48 261.79 83.08 262.98 83.90 C 264.99 87.10 265.82 90.91 267.93 94.03 C 270.38 95.76 273.38 96.49 275.83 98.21 C 278.29 101.94 279.29 106.39 281.46 110.28 C 282.05 110.44 283.24 110.76 283.83 110.93 C 284.99 113.39 286.04 116.01 288.10 117.88 C 292.11 120.81 288.33 126.41 290.96 130.03 C 292.81 132.15 296.09 133.33 296.91 136.20 C 297.17 142.37 296.92 148.55 297.00 154.73 C 296.46 154.37 295.39 153.64 294.85 153.28 C 295.26 153.70 296.07 154.54 296.48 154.96 C 295.43 156.05 294.18 156.99 293.40 158.31 C 292.44 160.27 292.09 162.74 290.09 163.99 C 287.50 165.81 285.26 168.14 282.36 169.49 C 280.12 170.54 278.12 171.99 276.22 173.56 C 267.48 173.38 258.74 173.51 250.01 173.51 C 244.57 173.89 240.01 169.66 234.50 170.45 C 232.19 167.88 228.88 167.19 225.56 167.56 C 222.89 164.41 219.55 161.94 215.84 160.16 C 212.35 158.85 210.81 155.24 208.03 153.01 C 206.05 151.77 206.45 149.42 206.51 147.44 C 204.77 145.79 202.97 144.19 201.47 142.32 C 200.32 140.46 200.16 138.05 198.55 136.46 C 197.24 134.90 195.43 133.92 193.72 132.90 C 193.82 129.02 193.49 125.12 193.93 121.26 C 194.97 118.56 196.84 116.11 196.75 113.09 C 196.64 111.24 198.48 110.27 199.51 109.01 C 199.53 108.37 199.59 107.10 199.62 106.46 C 201.84 103.39 204.62 100.65 206.08 97.10 C 206.80 95.08 209.20 94.81 210.77 93.69 C 214.23 91.18 216.02 86.94 219.64 84.60 C 222.28 82.29 224.48 79.45 227.42 77.47 C 229.58 76.66 231.83 75.91 233.45 74.16 C 235.28 74.08 237.12 74.04 238.96 74.04 C 239.44 73.17 239.83 72.26 240.12 71.32 C 238.18 69.34 235.23 70.42 232.81 70.27 C 232.66 71.00 232.37 72.45 232.22 73.18 C 232.30 72.28 232.45 70.49 232.52 69.60 C 231.51 70.32 230.57 71.15 229.51 71.79 C 228.29 71.48 227.09 71.13 225.90 70.74 C 226.52 70.10 227.76 68.83 228.38 68.20 M 252.26 102.74 C 244.41 102.60 236.72 105.69 230.83 110.82 C 225.37 115.93 221.99 122.93 220.19 130.13 C 219.63 134.61 219.53 139.20 220.38 143.65 C 221.84 148.45 223.52 153.34 226.69 157.32 C 230.47 163.04 236.56 167.04 243.11 168.93 C 247.85 170.83 253.07 169.75 258.04 170.00 C 264.62 169.23 270.75 166.08 275.72 161.74 C 280.96 156.33 284.44 149.33 285.95 141.98 C 286.02 138.04 286.18 134.07 285.85 130.14 C 284.23 124.08 281.72 118.19 277.61 113.39 C 271.42 106.16 261.73 102.32 252.26 102.74 Z" />
<path fill="#fefefe" opacity="1.00" d=" M 288.99 71.27 C 290.28 70.85 292.00 72.65 291.88 73.89 C 290.57 74.12 288.32 72.80 288.99 71.27 Z" />
<path fill="#fefefe" opacity="1.00" d=" M 237.33 108.13 C 240.10 107.58 242.90 107.57 245.67 108.13 C 247.07 109.57 248.50 110.98 249.96 112.36 C 250.02 114.78 250.01 117.21 249.96 119.64 C 248.48 121.04 247.04 122.48 245.64 123.95 C 242.88 124.03 240.12 124.03 237.36 123.95 C 235.96 122.48 234.52 121.04 233.05 119.64 C 232.98 117.21 232.98 114.78 233.04 112.36 C 234.50 110.98 235.93 109.57 237.33 108.13 Z" />
<path fill="#fefefe" opacity="1.00" d=" M 84.73 119.39 C 89.48 119.38 94.24 119.37 99.00 119.33 C 101.18 119.10 103.06 120.38 105.07 120.99 C 106.53 121.43 107.99 121.90 109.28 122.74 C 112.38 124.64 116.03 125.45 118.95 127.68 C 118.86 129.38 118.94 131.10 119.44 132.74 C 119.49 131.04 117.85 127.11 121.14 127.83 C 122.68 131.49 125.20 134.58 126.89 138.18 C 126.98 139.99 126.42 142.05 127.70 143.58 C 129.05 145.60 130.13 147.78 131.02 150.03 C 134.17 149.84 137.94 150.93 140.19 148.05 C 139.79 147.59 138.98 146.68 138.58 146.22 C 137.15 146.10 135.72 146.00 134.29 145.91 C 132.73 143.21 130.16 140.71 130.66 137.32 C 133.36 137.88 136.04 138.52 138.72 139.16 C 138.90 140.30 139.08 141.45 139.28 142.59 C 140.39 142.82 141.51 143.04 142.64 143.27 C 142.03 147.17 143.80 151.81 140.57 154.89 C 140.46 157.16 141.12 159.74 139.59 161.68 C 138.38 163.36 137.58 165.25 137.32 167.31 C 136.16 168.59 135.10 169.97 134.57 171.65 C 133.55 174.63 131.08 176.73 129.22 179.17 C 130.82 175.29 132.56 171.31 132.04 167.00 C 132.84 160.20 129.56 153.78 125.28 148.73 C 121.92 145.23 117.36 143.27 113.32 140.69 C 105.63 137.91 97.11 138.43 89.24 140.20 C 88.86 140.65 88.09 141.54 87.71 141.98 C 89.06 142.00 90.40 142.02 91.75 142.03 C 93.46 143.97 95.38 146.21 95.08 148.99 C 95.39 151.79 93.44 154.03 91.75 156.00 C 89.29 156.01 86.82 156.01 84.36 155.95 C 83.28 154.83 82.17 153.72 81.05 152.64 C 80.99 149.98 81.00 147.32 80.98 144.66 C 75.46 149.13 71.44 155.32 69.75 162.24 C 71.23 161.21 72.71 160.19 74.23 159.23 C 78.12 159.61 81.36 163.00 81.07 167.00 C 81.38 169.80 79.43 172.03 77.75 174.01 C 76.19 174.02 74.63 174.08 73.07 173.97 C 71.79 173.55 70.94 172.40 69.87 171.65 C 72.19 178.60 76.13 185.73 82.96 189.09 C 85.74 190.79 88.51 192.70 91.79 193.27 C 95.42 194.40 99.26 193.92 103.00 194.03 C 107.43 194.15 112.13 193.45 115.83 190.84 C 118.02 189.49 120.23 188.19 122.38 186.77 C 120.34 192.93 115.55 197.85 109.97 200.98 C 107.62 202.10 107.54 205.10 105.77 206.76 C 105.12 206.88 103.84 207.14 103.19 207.26 C 102.13 208.90 101.04 210.51 99.84 212.06 C 91.33 211.89 82.83 212.12 74.32 211.92 C 72.58 209.29 69.13 209.17 67.21 206.80 C 64.58 204.08 61.84 201.46 59.22 198.72 C 57.72 193.63 57.91 188.33 58.03 183.08 C 57.36 182.28 56.69 181.49 56.01 180.70 C 55.97 178.30 55.99 175.90 56.12 173.51 C 57.19 172.96 58.25 172.41 59.32 171.86 C 58.71 170.49 58.10 169.12 57.50 167.75 C 56.08 169.55 52.96 170.79 51.31 168.58 C 50.61 163.81 50.09 157.25 54.92 154.45 C 55.05 151.66 54.88 148.85 55.06 146.06 C 55.43 144.48 56.33 143.01 57.95 142.51 C 57.99 141.17 58.02 139.83 58.05 138.49 C 59.14 137.83 60.22 137.14 61.28 136.44 C 62.03 136.54 62.79 136.63 63.55 136.72 C 63.33 135.91 63.12 135.10 62.91 134.29 C 64.99 132.51 67.34 131.09 69.75 129.80 C 71.88 128.69 73.21 126.62 74.93 125.02 C 78.03 124.02 81.27 123.42 84.25 122.05 C 84.37 121.38 84.61 120.05 84.73 119.39 M 57.17 146.69 C 57.05 147.08 56.81 147.84 56.70 148.23 L 57.16 148.88 L 57.84 148.87 L 58.30 148.23 C 58.19 147.84 57.95 147.07 57.83 146.69 L 57.17 146.69 Z" />
<path fill="#fefefe" opacity="1.00" d=" M 225.38 130.26 C 227.74 129.14 230.32 129.83 232.78 130.11 C 234.52 132.00 236.37 134.25 236.08 137.00 C 236.38 139.79 234.43 142.03 232.76 144.00 C 230.29 144.01 227.82 144.01 225.36 143.95 C 224.28 142.83 223.17 141.72 222.04 140.64 C 221.98 138.20 221.98 135.76 222.03 133.33 C 223.13 132.29 224.18 131.20 225.38 130.26 Z" />
<path fill="#fefefe" opacity="1.00" d=" M 315.60 131.51 C 316.91 132.83 318.62 134.04 318.80 136.06 C 319.39 140.58 323.14 143.44 326.40 146.14 C 326.50 149.26 326.52 152.37 326.49 155.49 C 329.20 157.92 331.42 160.89 333.11 164.10 C 333.14 166.81 334.86 168.88 336.06 171.15 C 336.25 172.71 336.19 174.29 336.34 175.86 C 336.76 178.61 338.37 181.12 338.20 183.98 C 338.13 189.16 338.50 194.36 338.01 199.53 C 336.99 197.82 335.93 196.10 335.40 194.18 C 335.26 191.97 335.32 189.76 335.24 187.56 C 332.92 186.19 333.51 183.47 333.14 181.23 C 332.49 179.52 331.53 177.96 330.86 176.27 C 330.20 174.45 330.57 172.34 329.48 170.67 C 328.03 168.33 326.08 166.26 325.32 163.54 C 324.19 161.00 324.56 158.19 324.56 155.50 C 323.54 154.37 322.52 153.25 321.51 152.12 C 321.47 149.29 322.27 146.15 320.52 143.66 C 318.27 139.87 317.07 135.62 315.60 131.51 Z" />
<path fill="#fefefe" opacity="1.00" d=" M 214.00 218.98 C 218.29 218.09 222.56 216.71 227.00 216.97 C 232.01 217.05 237.02 216.96 242.04 216.99 C 243.75 216.88 245.34 217.59 246.94 218.13 C 245.87 220.07 245.29 222.25 244.16 224.16 C 240.69 228.93 236.85 234.11 230.94 235.91 C 228.71 236.13 226.46 236.00 224.23 235.99 C 221.89 232.48 218.76 229.55 216.69 225.86 C 214.60 225.91 212.83 227.00 211.14 228.10 C 211.15 230.33 210.53 232.46 209.37 234.36 C 208.93 231.81 208.12 229.22 206.05 227.51 C 204.13 229.12 202.60 231.11 201.12 233.12 C 197.45 236.10 193.59 238.90 189.30 240.93 C 187.18 238.85 185.18 236.63 183.74 234.01 C 183.10 234.00 181.81 233.98 181.16 233.97 C 180.03 235.89 179.21 238.03 177.78 239.77 C 176.07 241.49 174.00 242.83 171.92 244.08 C 171.55 244.02 170.79 243.90 170.41 243.84 C 167.64 241.48 165.41 238.54 162.61 236.22 C 161.99 236.11 160.77 235.90 160.15 235.80 C 158.46 239.81 156.83 243.87 154.62 247.64 C 152.99 249.81 150.61 251.40 149.50 253.97 C 146.36 253.96 143.20 254.18 140.06 253.90 C 137.56 252.64 134.98 251.64 132.12 251.92 C 130.25 252.06 129.87 249.87 129.90 248.45 C 133.51 247.05 136.40 244.29 140.12 243.13 C 145.41 241.32 149.97 237.87 155.38 236.38 C 158.12 235.66 160.47 233.98 163.18 233.21 C 167.20 232.61 170.38 229.29 174.63 229.88 C 175.07 229.43 175.95 228.52 176.38 228.07 C 177.76 228.03 179.14 227.99 180.52 227.95 C 181.45 224.91 185.34 225.55 187.81 224.74 C 196.47 222.50 205.38 221.39 214.00 218.98 Z" />
<path fill="#fefefe" opacity="1.00" d=" M 249.64 220.07 C 250.98 220.46 252.34 220.81 253.65 221.33 C 255.81 222.69 257.05 224.99 258.29 227.14 C 257.58 227.85 256.87 228.57 256.16 229.29 C 254.84 228.32 253.50 227.37 252.12 226.51 C 252.02 225.50 251.92 224.49 251.82 223.48 C 250.94 222.45 250.11 221.36 249.64 220.07 Z" />
<path fill="#fefefe" opacity="1.00" d=" M 233.68 239.70 C 238.89 236.65 244.42 233.11 246.99 227.40 C 247.34 227.98 248.05 229.14 248.40 229.72 C 250.65 230.79 252.80 232.06 255.11 232.99 C 257.09 233.07 258.95 232.15 260.88 231.81 C 260.95 233.08 261.02 234.35 261.09 235.63 C 261.56 236.06 262.49 236.93 262.95 237.36 C 263.07 246.25 262.95 255.14 263.02 264.03 C 263.14 267.06 262.29 270.20 260.22 272.47 C 260.11 276.07 258.58 279.36 257.83 282.83 C 257.49 284.65 256.33 286.11 255.16 287.48 C 255.06 288.65 254.97 289.83 254.88 291.01 C 254.44 291.01 253.54 291.00 253.09 291.00 C 252.98 289.45 253.15 287.86 252.73 286.35 C 251.74 284.34 250.25 282.64 249.27 280.64 C 248.94 279.23 248.97 277.77 248.87 276.34 C 247.45 274.93 246.04 273.51 244.65 272.08 C 240.58 272.39 236.70 271.24 232.83 270.17 C 228.56 269.76 224.25 270.09 219.96 269.98 C 217.72 269.74 215.90 271.28 213.81 271.77 C 209.12 272.84 205.14 276.94 200.02 275.97 C 194.86 274.42 189.39 274.99 184.08 275.12 C 178.21 277.64 171.74 279.53 167.15 284.18 C 163.31 286.77 158.36 288.50 156.41 293.08 C 155.36 291.07 154.34 288.95 152.62 287.41 C 149.25 284.38 146.84 280.50 143.83 277.15 C 142.31 274.97 141.20 272.54 139.60 270.41 C 136.48 266.20 134.94 261.07 133.79 256.02 C 139.12 258.80 145.18 257.97 150.95 257.96 C 153.09 256.51 154.37 254.04 156.27 252.28 C 159.38 249.53 160.70 245.51 162.39 241.86 C 164.38 243.88 166.41 245.88 168.35 247.96 C 171.15 247.95 174.32 248.60 176.66 246.64 C 178.59 244.37 180.88 242.48 183.15 240.58 C 184.58 242.37 185.90 244.23 187.25 246.08 C 191.71 246.42 195.07 242.86 198.43 240.47 C 200.26 238.35 203.82 238.04 204.41 234.92 C 206.53 237.19 209.29 239.80 212.68 238.93 C 214.34 237.91 213.92 235.89 214.13 234.25 C 214.63 233.82 215.63 232.97 216.13 232.55 C 218.58 234.67 218.72 238.90 222.31 239.70 C 226.02 240.23 229.98 240.26 233.68 239.70 Z" />
<path fill="#fefefe" opacity="1.00" d=" M 218.36 274.04 C 222.85 274.08 227.36 273.74 231.84 274.17 C 235.34 275.06 238.81 276.26 242.48 276.12 C 243.08 277.11 243.86 277.91 244.84 278.54 C 244.97 282.18 245.74 286.08 248.83 288.40 C 248.95 291.77 249.61 295.33 252.05 297.86 C 250.04 302.96 248.09 308.09 245.62 313.00 C 240.68 313.21 235.65 312.42 230.82 313.70 C 225.51 313.97 220.39 318.80 220.89 324.31 C 218.58 322.24 216.41 319.10 213.05 318.99 C 209.12 319.95 205.19 320.94 201.21 321.69 C 199.93 317.03 195.59 313.83 191.01 312.96 C 187.88 312.36 185.17 314.22 183.01 316.25 C 183.01 317.95 183.00 319.64 182.98 321.35 C 181.35 319.86 179.83 318.26 178.23 316.74 C 176.16 314.75 173.46 313.60 171.30 311.74 C 166.17 307.27 162.21 301.65 158.72 295.85 C 163.08 290.20 170.13 288.02 175.40 283.46 C 180.18 281.72 184.66 278.42 189.98 278.95 C 194.30 278.43 198.38 280.25 202.67 280.09 C 205.80 282.57 207.22 286.81 211.14 288.28 C 211.87 287.57 212.59 286.85 213.31 286.14 C 211.58 283.39 209.01 281.16 207.74 278.16 C 209.57 277.91 212.24 278.68 212.42 276.03 C 213.82 275.99 215.22 275.96 216.63 275.94 C 217.06 275.47 217.93 274.52 218.36 274.04 M 171.15 288.32 C 171.08 288.91 170.96 290.10 170.90 290.69 C 171.41 291.08 172.43 291.85 172.95 292.24 C 174.29 291.07 175.74 290.02 177.52 289.67 C 178.61 287.58 180.77 286.52 182.52 285.08 C 181.54 284.11 180.72 282.55 179.08 282.95 C 176.21 284.33 173.40 286.05 171.15 288.32 M 166.00 299.27 C 166.00 299.89 166.01 301.11 166.01 301.72 C 166.49 302.10 167.44 302.86 167.92 303.23 C 169.56 301.99 171.26 300.83 173.00 299.73 C 173.00 299.12 172.99 297.89 172.99 297.28 C 172.51 296.90 171.56 296.14 171.08 295.76 C 169.44 297.01 167.73 298.17 166.00 299.27 Z" />
<path fill="#fefefe" opacity="1.00" d=" M 187.21 318.29 C 188.11 317.86 189.02 317.43 189.92 317.00 C 191.76 317.76 194.01 318.01 195.27 319.74 C 196.67 321.37 196.99 323.56 197.23 325.62 C 197.91 326.41 198.59 327.21 199.27 328.01 C 197.45 327.84 195.31 328.57 193.78 327.25 C 191.41 325.57 189.05 323.83 186.33 322.76 C 186.69 321.28 186.96 319.79 187.21 318.29 Z" />
<path fill="#fefefe" opacity="1.00" d=" M 229.34 318.15 C 233.66 317.73 237.86 316.47 242.26 316.99 C 240.96 318.49 239.75 320.05 238.46 321.55 C 234.84 323.87 231.05 325.97 227.76 328.75 C 226.96 329.45 226.06 329.95 225.06 330.27 C 224.96 327.63 224.98 324.99 225.05 322.36 C 226.49 320.97 227.91 319.56 229.34 318.15 Z" />
<path fill="#fefefe" opacity="1.00" d=" M 338.30 322.29 C 337.66 320.49 339.20 319.01 339.90 317.50 C 340.08 318.49 340.27 319.49 340.45 320.49 C 339.91 320.94 338.84 321.84 338.30 322.29 Z" />
<path fill="#fefefe" opacity="1.00" d=" M 199.70 328.74 C 204.01 326.12 208.67 323.45 213.93 323.98 C 217.17 325.65 219.86 328.59 221.26 331.93 C 216.48 332.01 211.63 332.39 206.96 331.14 C 204.29 331.21 201.88 330.19 199.70 328.74 Z" />
<path fill="#fefefe" opacity="1.00" d=" M 33.25 346.86 C 32.74 342.09 31.59 337.34 32.23 332.53 C 34.41 335.13 36.96 337.36 39.74 339.28 C 42.95 343.45 44.45 348.66 46.98 353.24 C 49.18 356.14 52.59 357.69 55.70 359.40 C 58.23 360.78 60.10 363.27 62.99 364.00 C 66.16 364.99 69.15 366.45 72.15 367.87 C 74.80 369.00 76.57 371.52 79.29 372.54 C 83.27 374.12 87.21 376.26 89.55 380.00 L 45.21 380.00 C 45.03 378.50 44.98 376.98 44.59 375.52 C 42.85 372.61 39.82 370.42 39.01 367.01 C 38.11 363.38 36.09 360.11 35.62 356.37 C 35.22 353.10 34.04 350.03 33.25 346.86 Z" />
</g>
</svg>
