<?xml version="1.0" encoding="UTF-8" ?>
<!DOCTYPE svg PUBLIC "-//W3C//DTD SVG 1.1//EN" "http://www.w3.org/Graphics/SVG/1.1/DTD/svg11.dtd">
<svg width="406pt" height="372pt" viewBox="0 0 406 372" version="1.1" xmlns="http://www.w3.org/2000/svg">
<g id="#fdfdfdff">
<path fill="#fdfdfd" opacity="1.00" d=" M 0.00 0.00 L 406.00 0.00 L 406.00 372.00 L 0.00 372.00 L 0.00 0.00 M 198.50 14.11 C 192.32 16.04 185.65 15.34 179.48 17.27 C 176.38 18.78 172.76 17.67 169.45 18.04 C 167.89 20.15 164.65 17.98 162.89 19.65 C 161.41 21.83 158.64 20.60 156.50 21.19 C 155.16 22.55 153.40 23.14 151.60 23.63 C 144.36 27.62 136.47 30.37 128.99 33.92 C 118.48 39.39 109.05 46.59 99.30 53.25 C 95.20 56.48 91.50 60.22 87.16 63.14 C 82.39 66.35 79.00 71.12 74.51 74.67 C 70.94 77.75 66.88 80.22 63.50 83.54 C 59.92 87.29 55.66 90.34 52.24 94.27 C 44.15 103.91 35.69 113.45 29.77 124.65 C 27.00 130.38 23.44 135.79 21.74 141.99 C 19.73 148.38 16.69 154.50 15.66 161.17 C 14.51 169.25 10.97 176.86 10.90 185.12 C 8.69 200.69 9.42 216.52 11.53 232.05 C 12.06 236.48 13.92 240.57 14.85 244.90 C 15.88 253.86 20.56 261.76 24.02 269.93 C 33.59 287.73 49.90 300.21 64.45 313.67 C 71.43 318.21 78.02 323.34 85.02 327.83 C 89.38 329.56 92.97 332.56 96.37 335.73 C 99.63 338.25 103.34 339.86 107.38 340.52 C 110.48 343.47 114.48 344.89 118.35 346.45 C 121.05 350.33 122.62 354.88 125.00 358.96 C 126.87 358.91 128.73 358.90 130.60 358.89 C 127.80 353.85 125.91 348.26 122.33 343.69 C 120.40 341.21 117.12 340.81 114.48 339.47 C 112.09 338.20 109.92 336.55 107.61 335.15 C 104.85 334.10 101.67 333.81 99.41 331.74 C 95.60 328.44 91.55 325.35 87.02 323.11 C 81.26 319.68 76.05 315.41 70.46 311.72 C 62.64 307.06 56.99 299.72 49.83 294.20 C 41.91 287.01 35.05 278.64 29.47 269.51 C 26.13 262.12 22.29 254.86 20.24 246.97 C 19.11 239.26 15.67 232.04 15.42 224.18 C 14.99 214.95 12.97 205.66 14.71 196.44 C 15.28 189.31 15.51 182.04 17.46 175.11 C 19.85 168.18 20.24 160.76 22.82 153.87 C 25.83 146.75 27.33 139.01 31.48 132.40 C 36.61 121.16 44.12 111.24 52.16 101.95 C 56.26 96.49 61.56 92.15 66.27 87.26 C 72.19 82.59 78.58 78.36 83.47 72.56 C 88.06 68.39 93.28 64.98 97.88 60.81 C 102.08 56.96 107.04 54.08 111.64 50.75 C 119.45 45.25 127.47 39.86 136.34 36.20 C 140.80 34.42 145.00 32.04 149.59 30.58 C 151.84 30.09 153.12 27.74 155.55 27.75 C 156.95 26.59 158.87 27.13 160.52 26.87 C 161.73 26.12 163.15 25.84 164.45 25.27 C 165.59 25.19 166.60 24.79 167.46 24.08 C 172.59 24.38 177.49 22.76 182.45 21.75 C 184.97 20.21 188.07 21.47 190.80 20.66 C 193.69 19.82 197.03 20.03 199.49 18.07 C 203.13 17.92 206.78 18.08 210.43 17.93 C 210.85 17.70 211.70 17.24 212.13 17.01 C 218.14 17.00 224.16 16.91 230.17 17.08 C 234.04 18.02 238.01 17.99 241.97 18.12 C 252.71 20.41 263.37 23.30 273.60 27.30 C 280.52 29.28 287.00 32.48 293.37 35.78 C 298.45 37.62 303.14 40.32 307.66 43.24 C 321.18 51.24 333.86 60.95 344.02 72.99 C 348.74 79.92 354.46 86.28 357.81 94.05 C 359.35 97.23 361.48 100.10 362.78 103.41 C 366.06 112.13 370.94 120.35 372.24 129.72 C 374.34 136.09 376.52 142.47 378.00 149.03 C 378.58 156.83 381.83 164.09 382.42 171.89 C 384.70 179.78 383.93 188.02 385.13 196.07 C 386.30 203.33 385.58 210.70 385.78 218.01 C 386.17 230.15 384.54 242.36 380.89 253.94 C 378.94 260.60 376.89 267.23 374.95 273.90 C 372.42 281.37 368.78 288.36 365.70 295.60 C 364.42 301.91 357.79 304.93 355.88 310.87 C 355.32 314.25 349.81 313.87 350.86 318.00 C 350.47 318.00 349.69 318.00 349.30 318.00 C 347.73 322.51 342.88 324.57 339.61 327.69 C 335.27 331.60 329.52 333.32 325.10 337.11 C 319.71 341.34 312.76 342.44 306.39 344.42 C 301.21 345.66 296.26 347.64 291.05 348.74 C 285.74 349.39 280.41 349.98 275.05 349.72 C 268.44 349.39 261.74 350.41 255.23 348.87 C 253.47 351.97 252.91 355.48 251.97 358.86 C 254.52 358.90 257.08 358.90 259.65 358.91 C 261.07 357.32 262.16 355.20 264.22 354.35 C 274.75 353.39 285.52 355.33 295.90 352.77 C 302.53 350.68 309.22 348.79 315.93 346.94 C 320.04 345.80 324.20 344.24 327.37 341.27 C 330.42 338.46 334.85 337.77 337.74 334.76 C 340.06 332.25 343.39 331.12 345.89 328.85 C 349.41 326.41 351.86 322.74 355.50 320.45 C 357.18 317.54 360.51 315.88 361.24 312.35 C 362.48 309.09 365.84 307.47 367.42 304.44 C 367.94 302.67 368.25 300.81 369.15 299.18 C 372.77 292.26 376.09 285.17 378.98 277.91 C 382.04 267.97 384.94 257.99 387.83 248.00 C 389.24 240.75 390.30 233.40 390.23 226.00 C 390.01 214.96 390.62 203.90 389.73 192.89 C 388.71 188.65 389.08 184.29 388.95 179.98 C 388.80 174.53 386.43 169.47 386.05 164.05 C 385.67 159.60 383.81 155.45 383.13 151.05 C 382.43 141.94 378.29 133.62 376.22 124.81 C 374.48 115.84 369.76 107.88 366.47 99.44 C 362.89 93.09 360.11 86.22 355.47 80.51 C 351.53 74.87 347.73 69.06 342.53 64.46 C 334.39 55.81 325.25 48.09 314.97 42.10 C 308.47 37.70 301.88 33.26 294.36 30.79 C 289.48 27.51 283.78 25.89 278.58 23.26 C 277.09 23.00 275.71 22.41 274.39 21.72 C 272.97 20.66 270.96 21.35 269.56 20.25 C 262.04 18.37 254.75 15.56 247.11 14.17 C 245.59 13.82 243.69 14.40 242.53 13.07 C 238.52 12.84 234.42 13.42 230.52 12.25 C 219.77 10.66 209.21 14.20 198.50 14.11 M 162.05 46.90 C 158.14 49.40 153.73 50.95 149.78 53.38 C 150.26 54.27 150.76 55.16 151.28 56.03 C 154.29 53.83 157.75 52.21 161.56 52.21 C 165.49 49.49 171.16 50.19 175.67 51.09 C 179.80 56.41 184.01 63.46 191.44 64.10 C 192.50 62.80 193.65 61.59 194.84 60.40 C 194.28 57.05 192.59 54.09 190.45 51.50 C 188.42 49.26 188.20 45.90 185.70 44.06 C 182.70 42.38 179.34 44.67 176.59 42.61 C 171.71 43.87 166.49 44.33 162.05 46.90 M 304.99 54.02 C 299.26 56.40 293.18 59.67 290.49 65.59 C 289.18 67.52 291.11 69.71 290.29 71.77 C 291.77 73.56 294.34 74.42 296.50 73.35 C 301.46 71.16 304.87 66.60 307.33 61.92 C 309.68 61.95 312.04 61.84 314.38 61.49 C 316.94 62.40 319.88 62.71 322.29 61.21 C 321.43 60.11 320.56 59.03 319.71 57.94 C 318.89 58.36 318.07 58.77 317.25 59.19 C 315.80 57.49 314.34 55.79 312.90 54.09 C 310.19 54.34 307.54 52.44 304.99 54.02 M 122.37 93.35 C 119.98 96.60 116.34 98.69 113.80 101.86 C 108.24 106.68 104.30 113.07 101.78 119.93 C 100.19 120.69 98.71 121.63 97.45 122.87 C 97.62 123.61 97.97 125.08 98.14 125.82 C 100.36 126.27 102.53 126.97 104.79 127.20 C 105.07 126.68 105.63 125.62 105.91 125.10 C 104.45 125.07 102.99 125.01 101.53 124.94 C 103.75 122.72 106.86 121.93 109.58 120.54 C 113.19 118.77 116.37 116.16 120.19 114.83 C 126.04 113.09 131.44 110.15 137.26 108.34 C 149.18 106.15 161.53 104.78 173.53 107.07 C 175.52 108.92 178.60 107.64 181.05 107.99 C 186.10 107.31 191.18 110.19 196.10 108.24 C 196.05 107.53 195.97 106.11 195.92 105.41 C 192.79 100.58 190.22 95.06 185.33 91.72 C 182.07 89.03 177.72 88.48 173.89 86.96 C 169.13 85.02 163.87 85.48 158.89 84.56 C 146.18 82.07 132.63 85.56 122.37 93.35 M 293.65 105.74 C 291.28 107.39 290.50 110.39 288.08 112.01 C 288.71 112.52 289.97 113.52 290.60 114.03 C 296.39 112.71 302.19 114.28 307.96 114.87 C 313.65 114.63 319.37 114.99 324.98 116.01 C 332.24 117.75 339.92 117.30 347.03 119.76 C 352.19 121.61 357.96 122.71 361.87 126.89 C 364.76 125.35 362.16 122.40 361.41 120.42 C 356.63 109.98 347.07 103.09 337.63 97.16 C 333.41 95.98 329.36 94.21 325.13 93.06 C 313.44 92.12 301.43 97.00 293.65 105.74 M 192.62 95.83 C 194.32 97.94 196.58 99.56 197.98 101.93 C 197.70 104.18 197.90 106.58 200.42 107.33 C 199.88 104.61 200.49 101.22 198.01 99.33 C 196.34 97.98 194.97 95.92 192.62 95.83 M 287.39 102.80 C 286.21 106.24 284.41 109.67 285.05 113.43 C 286.21 111.63 286.73 109.54 287.21 107.48 C 288.29 105.92 289.96 103.86 287.39 102.80 M 198.37 108.69 C 196.97 112.43 193.45 114.78 191.78 118.40 C 190.01 118.49 188.60 119.10 188.52 121.09 C 191.04 120.28 193.86 119.78 195.54 117.51 C 197.66 114.89 200.95 112.66 201.09 108.99 C 200.41 108.91 199.05 108.77 198.37 108.69 M 285.00 114.02 C 285.87 115.25 287.18 115.92 288.60 116.35 C 292.76 121.84 297.04 127.23 301.43 132.53 C 304.23 136.49 308.16 139.42 312.34 141.79 C 316.85 144.12 321.79 145.55 326.62 147.09 C 325.10 145.48 323.02 144.70 320.82 144.71 C 321.68 144.48 323.40 144.02 324.26 143.79 L 324.29 143.00 C 322.23 143.00 320.18 143.01 318.13 142.96 C 317.07 141.96 315.87 141.13 314.45 140.77 C 304.64 136.31 299.71 126.31 292.64 118.83 C 294.72 119.17 296.72 120.02 298.87 120.02 C 297.54 118.88 295.91 118.23 294.25 117.76 C 291.90 115.19 288.60 113.35 285.00 114.02 M 89.42 120.15 C 88.21 120.98 87.05 121.88 86.24 123.11 C 89.64 122.71 92.40 120.42 95.74 119.84 C 94.45 122.46 92.10 124.22 90.22 126.37 C 89.24 127.42 89.57 128.77 90.16 129.91 C 92.80 126.81 95.24 123.54 98.00 120.54 C 97.92 119.91 97.75 118.64 97.67 118.01 C 94.84 118.37 92.05 119.03 89.42 120.15 M 183.66 125.76 C 182.36 126.46 181.16 127.31 179.98 128.20 L 179.99 129.44 C 183.50 126.90 187.22 124.61 190.40 121.66 C 187.59 121.88 185.94 124.43 183.66 125.76 M 191.57 122.84 C 189.37 125.32 186.71 127.36 184.69 129.99 C 187.71 128.37 190.17 125.87 192.07 123.05 L 191.57 122.84 M 102.63 128.83 C 104.99 132.65 109.70 133.46 113.74 134.33 C 118.02 135.18 121.67 137.84 125.95 138.70 C 127.19 139.04 128.00 138.54 128.38 137.21 C 125.25 136.91 122.05 136.12 119.50 134.21 C 116.51 133.00 113.25 132.77 110.20 131.78 C 107.65 130.85 105.41 129.06 102.63 128.83 M 360.88 135.87 C 359.48 138.46 356.49 140.43 356.67 143.66 C 360.20 141.10 362.37 137.22 364.39 133.46 C 365.30 131.98 364.89 130.17 364.99 128.54 C 363.09 130.65 362.65 133.64 360.88 135.87 M 193.00 155.18 C 192.56 155.73 191.70 156.82 191.26 157.37 C 190.50 161.16 188.96 164.72 187.87 168.41 C 190.57 165.62 190.76 161.29 193.87 158.75 C 195.31 157.82 195.07 155.97 195.38 154.51 C 194.93 154.97 194.04 155.87 193.60 156.32 L 194.82 156.96 C 194.15 157.16 192.82 157.57 192.16 157.77 C 192.37 157.12 192.79 155.83 193.00 155.18 M 180.53 167.41 C 177.51 171.24 172.18 171.61 169.00 175.29 C 168.99 175.83 168.98 176.92 168.97 177.46 C 165.63 178.81 164.36 182.42 162.14 184.98 C 161.40 191.26 157.12 197.40 160.10 203.76 C 160.63 204.13 161.68 204.88 162.21 205.25 C 161.94 203.47 161.40 201.75 160.83 200.05 C 162.20 200.42 163.59 200.73 165.00 201.01 C 165.00 201.50 165.00 202.48 165.00 202.97 C 166.65 203.13 168.31 203.37 169.98 203.27 C 174.29 202.47 177.80 205.82 181.50 207.50 C 184.39 210.27 186.70 213.82 190.70 215.19 C 193.28 217.36 195.22 220.37 198.38 221.77 C 203.06 223.92 206.50 228.08 211.45 229.74 C 218.16 232.29 224.72 236.06 232.07 236.15 C 242.35 239.29 253.21 241.30 263.93 239.39 C 269.04 239.29 273.94 237.70 279.06 237.89 C 283.38 237.41 287.60 236.19 291.80 235.08 C 294.55 234.44 296.48 232.25 298.24 230.20 C 302.13 225.19 306.42 220.20 308.23 213.98 C 309.58 210.28 310.68 205.59 314.96 204.27 C 315.00 206.71 315.00 209.16 315.00 211.61 C 315.75 211.90 317.25 212.48 318.00 212.77 C 317.32 213.71 316.65 214.65 315.98 215.59 C 316.56 215.84 317.73 216.34 318.31 216.59 C 319.45 214.05 318.76 211.64 316.76 209.79 C 317.37 209.86 318.61 209.99 319.23 210.05 C 317.22 203.58 317.98 196.77 317.50 190.14 C 316.38 185.21 318.21 178.74 313.52 175.29 C 310.72 173.55 308.81 170.38 305.39 169.79 C 303.33 168.38 302.29 166.08 300.99 164.05 L 301.01 166.69 C 300.01 165.38 299.42 163.83 298.79 162.33 C 298.29 161.96 297.30 161.21 296.81 160.84 C 298.73 165.66 301.47 170.70 306.82 172.27 C 309.26 175.23 313.57 176.51 314.89 180.35 C 315.01 183.57 315.04 186.79 315.65 189.96 C 316.28 193.71 314.51 197.20 314.26 200.88 C 311.82 200.07 309.11 199.64 307.22 197.76 C 299.65 191.27 292.29 184.53 284.64 178.13 C 281.20 177.01 277.87 175.57 274.47 174.32 C 267.75 172.81 260.90 171.52 253.98 172.08 C 247.39 171.40 241.28 174.28 235.10 176.05 C 226.88 179.43 218.75 182.96 210.53 186.33 C 204.96 190.33 198.82 193.71 192.06 195.17 C 188.16 195.76 185.16 199.06 181.08 198.86 C 175.13 199.50 169.50 197.11 163.64 196.73 C 163.75 193.55 163.47 190.36 163.82 187.20 C 164.57 183.87 168.11 182.42 169.34 179.33 C 175.94 176.13 180.00 169.74 185.55 165.17 C 185.78 165.60 186.25 166.47 186.48 166.90 C 186.82 165.33 187.42 163.88 188.30 162.55 C 188.03 162.31 187.50 161.83 187.24 161.59 C 187.46 160.82 187.91 159.28 188.13 158.51 C 185.71 161.59 183.71 165.01 180.53 167.41 M 287.00 159.17 C 285.77 160.71 288.46 162.23 289.45 160.76 C 290.50 159.31 287.97 157.85 287.00 159.17 M 291.82 161.91 C 292.98 162.75 294.40 163.33 295.30 164.47 C 296.04 165.96 296.55 167.67 298.15 168.47 C 297.69 167.42 297.24 166.38 296.79 165.33 C 295.94 163.15 294.41 161.32 291.82 161.91 M 184.10 170.00 C 185.62 170.51 186.69 167.99 186.06 166.80 C 184.64 166.40 183.79 168.88 184.10 170.00 M 157.99 204.98 C 159.72 207.77 161.11 210.73 162.41 213.74 C 162.77 213.91 163.48 214.26 163.84 214.43 C 163.15 212.87 162.37 211.36 161.54 209.88 C 162.07 209.42 162.60 208.97 163.13 208.52 C 160.10 208.04 159.24 205.14 158.59 202.59 C 158.42 203.36 157.35 204.17 157.99 204.98 M 157.66 210.54 C 159.33 212.87 161.42 215.12 161.45 218.17 C 162.05 218.09 163.25 217.91 163.85 217.82 C 162.12 215.81 160.53 213.66 159.76 211.09 C 159.24 210.95 158.19 210.68 157.66 210.54 M 320.44 213.94 C 319.90 216.34 319.32 218.72 318.72 221.11 L 317.90 219.53 C 318.20 221.43 317.74 223.29 317.22 225.11 C 319.33 223.50 319.18 220.64 320.35 218.45 C 321.23 217.04 321.07 215.40 320.44 213.94 M 317.41 216.90 C 316.71 218.02 316.03 219.47 316.16 220.81 C 316.59 220.49 317.46 219.85 317.90 219.53 C 318.49 218.28 318.33 217.40 317.41 216.90 Z" />
<path fill="#fdfdfd" opacity="1.00" d=" M 150.49 86.29 C 156.28 86.81 162.20 88.08 168.11 88.08 C 170.62 88.47 172.84 89.94 175.38 90.31 C 172.49 92.16 169.25 93.63 167.10 96.41 C 166.67 98.81 167.08 101.25 167.78 103.56 C 154.56 103.06 140.77 103.16 128.41 108.50 C 124.12 110.78 119.30 111.74 114.99 113.94 C 111.71 115.97 108.51 118.17 104.87 119.52 C 107.62 114.29 110.18 108.72 114.81 104.82 C 118.62 100.58 123.20 97.17 127.26 93.20 C 131.12 90.85 135.41 89.23 139.68 87.79 C 143.16 86.43 147.00 87.59 150.49 86.29 Z" />
<path fill="#fdfdfd" opacity="1.00" d=" M 312.96 97.19 C 317.34 96.27 322.03 94.68 326.41 96.46 C 331.64 98.43 337.56 99.44 341.63 103.61 C 336.00 103.98 333.24 110.03 334.00 115.05 C 327.49 113.25 320.69 112.54 313.97 111.99 C 307.08 112.48 300.37 110.69 293.50 110.63 C 293.93 109.49 294.44 108.32 295.48 107.59 C 300.70 103.27 306.12 98.56 312.96 97.19 Z" />
<path fill="#fdfdfd" opacity="1.00" d=" M 189.96 103.93 C 188.78 101.55 186.60 99.36 186.56 96.60 C 189.01 99.55 190.96 102.86 193.04 106.07 C 191.64 106.05 190.23 106.03 188.83 106.04 C 189.11 105.51 189.68 104.46 189.96 103.93 Z" />
<path fill="#fdfdfd" opacity="1.00" d=" M 353.78 114.41 C 355.75 116.29 357.53 118.49 358.38 121.12 C 355.67 119.96 354.25 117.19 353.78 114.41 Z" />
<path fill="#fdfdfd" opacity="1.00" d=" M 192.48 158.24 C 192.77 158.57 192.77 158.57 192.48 158.24 Z" />
<path fill="#fdfdfd" opacity="1.00" d=" M 239.63 178.20 C 245.22 173.98 252.80 175.12 259.44 175.00 C 259.58 181.41 259.37 187.87 256.85 193.86 C 252.45 197.01 246.87 194.73 241.92 194.95 C 240.20 189.54 239.52 183.85 239.63 178.20 Z" />
<path fill="#fdfdfd" opacity="1.00" d=" M 260.96 174.79 C 264.42 174.92 267.71 176.11 271.17 176.16 C 273.91 176.87 276.43 178.32 279.12 179.22 C 279.25 186.04 276.91 192.50 274.90 198.91 C 272.98 197.52 270.56 198.24 268.40 197.85 C 266.21 197.03 264.20 195.84 262.12 194.80 C 259.68 188.39 261.44 181.45 260.96 174.79 Z" />
<path fill="#fdfdfd" opacity="1.00" d=" M 228.62 181.98 C 231.54 180.03 234.91 179.03 238.18 177.87 C 237.67 183.73 239.08 189.72 237.52 195.50 C 234.53 196.85 231.17 197.29 228.13 195.87 C 226.80 192.20 226.32 188.30 225.16 184.58 C 225.51 183.94 226.20 182.65 226.55 182.01 C 227.07 182.00 228.10 181.99 228.62 181.98 Z" />
<path fill="#fdfdfd" opacity="1.00" d=" M 280.90 179.73 C 284.90 181.10 287.66 184.77 291.01 187.26 C 288.38 192.99 290.64 200.43 285.71 205.12 C 283.66 203.26 280.84 202.28 279.07 200.16 C 278.59 193.28 279.76 186.48 280.90 179.73 Z" />
<path fill="#fdfdfd" opacity="1.00" d=" M 222.49 184.58 C 222.87 184.23 223.61 183.52 223.98 183.17 C 224.02 184.98 224.24 186.78 224.37 188.59 C 223.25 190.46 222.38 192.46 221.80 194.57 C 220.71 195.97 219.61 197.37 218.52 198.78 C 214.37 197.49 209.80 194.17 209.87 189.39 C 214.28 188.30 218.20 185.98 222.49 184.58 Z" />
<path fill="#fdfdfd" opacity="1.00" d=" M 292.49 188.62 C 295.25 190.63 297.54 193.19 300.19 195.34 C 299.23 199.83 296.06 203.26 293.52 206.92 C 292.33 205.67 290.93 204.57 290.02 203.11 C 289.77 198.15 292.45 193.60 292.49 188.62 Z" />
<path fill="#fdfdfd" opacity="1.00" d=" M 206.53 191.87 C 209.58 192.92 210.73 196.66 212.88 198.90 C 211.75 200.29 210.74 201.77 209.76 203.27 C 208.88 202.53 208.02 201.78 207.16 201.03 L 207.08 202.98 C 204.18 201.14 202.14 198.37 200.91 195.20 C 202.99 194.49 204.86 193.29 206.53 191.87 Z" />
<path fill="#fdfdfd" opacity="1.00" d=" M 191.08 198.18 C 194.02 197.64 196.92 196.90 199.74 195.91 C 200.52 199.65 203.19 203.11 206.89 204.31 C 206.45 205.07 206.02 205.84 205.59 206.62 C 205.05 206.74 203.96 206.99 203.42 207.11 C 202.11 208.06 200.73 208.89 199.34 209.70 C 195.50 206.81 193.78 202.04 191.08 198.18 Z" />
<path fill="#fdfdfd" opacity="1.00" d=" M 301.23 196.53 C 302.48 197.51 303.76 198.44 304.94 199.51 C 305.28 204.06 300.09 205.80 296.85 207.60 C 297.01 203.45 301.15 200.82 301.23 196.53 Z" />
<path fill="#fdfdfd" opacity="1.00" d=" M 184.75 201.13 C 186.27 200.46 187.78 199.74 189.26 198.95 C 191.08 201.77 193.00 204.54 194.72 207.44 C 195.39 208.75 196.41 209.81 197.38 210.91 C 196.48 211.79 195.56 212.74 194.35 213.18 C 191.27 212.17 187.53 211.24 186.07 207.98 C 184.86 205.90 184.99 203.44 184.75 201.13 Z" />
<path fill="#fdfdfd" opacity="1.00" d=" M 165.94 200.61 C 166.81 199.72 169.45 200.49 168.56 201.94 C 167.68 202.98 164.91 202.11 165.94 200.61 Z" />
<path fill="#fdfdfd" opacity="1.00" d=" M 176.28 201.04 C 178.43 201.11 180.59 201.25 182.74 201.35 C 183.06 202.69 183.41 204.04 183.79 205.38 C 181.24 204.02 178.57 202.84 176.28 201.04 Z" />
<path fill="#fdfdfd" opacity="1.00" d=" M 303.70 205.65 C 306.02 204.56 305.82 199.73 309.18 202.07 C 309.09 205.60 306.89 208.53 305.90 211.83 C 304.66 212.48 303.42 213.12 302.19 213.78 C 301.80 211.91 301.19 210.11 300.78 208.26 C 300.92 206.73 302.74 206.52 303.70 205.65 Z" />
<path fill="#fdfdfd" opacity="1.00" d=" M 254.88 238.09 C 256.87 235.68 258.98 231.99 262.60 232.39 C 264.28 233.19 265.29 234.89 266.48 236.26 C 262.65 237.22 258.57 236.53 254.88 238.09 Z" />
<path fill="#fdfdfd" opacity="1.00" d=" M 269.08 234.42 C 270.05 233.61 270.96 232.73 272.00 232.02 C 273.86 231.96 274.96 233.86 276.33 234.85 C 273.71 235.05 271.18 235.77 268.78 236.80 C 268.86 236.21 269.01 235.01 269.08 234.42 Z" />
<path fill="#fdfdfd" opacity="1.00" d=" M 243.61 235.66 C 245.34 234.70 247.08 233.75 248.83 232.83 C 250.04 234.19 251.22 235.58 252.36 237.01 C 249.48 236.74 245.94 237.86 243.61 235.66 Z" />
</g>
<g id="#020202ff">
<path fill="#020202" opacity="1.00" d=" M 198.50 14.11 C 209.21 14.20 219.77 10.66 230.52 12.25 C 234.42 13.42 238.52 12.84 242.53 13.07 C 243.69 14.40 245.59 13.82 247.11 14.17 C 254.75 15.56 262.04 18.37 269.56 20.25 C 270.96 21.35 272.97 20.66 274.39 21.72 C 275.71 22.41 277.09 23.00 278.58 23.26 C 283.78 25.89 289.48 27.51 294.36 30.79 C 301.88 33.26 308.47 37.70 314.97 42.10 C 325.25 48.09 334.39 55.81 342.53 64.46 C 347.73 69.06 351.53 74.87 355.47 80.51 C 360.11 86.22 362.89 93.09 366.47 99.44 C 369.76 107.88 374.48 115.84 376.22 124.81 C 378.29 133.62 382.43 141.94 383.13 151.05 C 383.81 155.45 385.67 159.60 386.05 164.05 C 386.43 169.47 388.80 174.53 388.95 179.98 C 389.08 184.29 388.71 188.65 389.73 192.89 C 390.62 203.90 390.01 214.96 390.23 226.00 C 390.30 233.40 389.24 240.75 387.83 248.00 C 384.94 257.99 382.04 267.97 378.98 277.91 C 376.09 285.17 372.77 292.26 369.15 299.18 C 368.25 300.81 367.94 302.67 367.42 304.44 C 365.84 307.47 362.48 309.09 361.24 312.35 C 360.51 315.88 357.18 317.54 355.50 320.45 C 351.86 322.74 349.41 326.41 345.89 328.85 C 343.39 331.12 340.06 332.25 337.74 334.76 C 334.85 337.77 330.42 338.46 327.37 341.27 C 324.20 344.24 320.04 345.80 315.93 346.94 C 309.22 348.79 302.53 350.68 295.90 352.77 C 285.52 355.33 274.75 353.39 264.22 354.35 C 262.16 355.20 261.07 357.32 259.65 358.91 C 257.08 358.90 254.52 358.90 251.97 358.86 C 252.91 355.48 253.47 351.97 255.23 348.87 C 261.74 350.41 268.44 349.39 275.05 349.72 C 280.41 349.98 285.74 349.39 291.05 348.74 C 296.26 347.64 301.21 345.66 306.39 344.42 C 312.76 342.44 319.71 341.34 325.10 337.11 C 329.52 333.32 335.27 331.60 339.61 327.69 C 342.88 324.57 347.73 322.51 349.30 318.00 C 349.69 318.00 350.47 318.00 350.86 318.00 C 349.81 313.87 355.32 314.25 355.88 310.87 C 357.79 304.93 364.42 301.91 365.70 295.60 C 368.78 288.36 372.42 281.37 374.95 273.90 C 376.89 267.23 378.94 260.60 380.89 253.94 C 384.54 242.36 386.17 230.15 385.78 218.01 C 385.58 210.70 386.30 203.33 385.13 196.07 C 383.93 188.02 384.70 179.78 382.42 171.89 C 381.83 164.09 378.58 156.83 378.00 149.03 C 376.52 142.47 374.34 136.09 372.24 129.72 C 370.94 120.35 366.06 112.13 362.78 103.41 C 361.48 100.10 359.35 97.23 357.81 94.05 C 354.46 86.28 348.74 79.92 344.02 72.99 C 333.86 60.95 321.18 51.24 307.66 43.24 C 303.14 40.32 298.45 37.62 293.37 35.78 C 287.00 32.48 280.52 29.28 273.60 27.30 C 263.37 23.30 252.71 20.41 241.97 18.12 C 238.01 17.99 234.04 18.02 230.17 17.08 C 224.16 16.91 218.14 17.00 212.13 17.01 C 211.70 17.24 210.85 17.70 210.43 17.93 C 206.78 18.08 203.13 17.92 199.49 18.07 C 197.03 20.03 193.69 19.82 190.80 20.66 C 188.07 21.47 184.97 20.21 182.45 21.75 C 177.49 22.76 172.59 24.38 167.46 24.08 C 166.60 24.79 165.59 25.19 164.45 25.27 C 163.15 25.84 161.73 26.12 160.52 26.87 C 158.87 27.13 156.95 26.59 155.55 27.75 C 153.12 27.74 151.84 30.09 149.59 30.58 C 145.00 32.04 140.80 34.42 136.34 36.20 C 127.47 39.86 119.45 45.25 111.64 50.75 C 107.04 54.08 102.08 56.96 97.88 60.81 C 93.28 64.98 88.06 68.39 83.47 72.56 C 78.58 78.36 72.19 82.59 66.27 87.26 C 61.56 92.15 56.26 96.49 52.16 101.95 C 44.12 111.24 36.61 121.16 31.48 132.40 C 27.33 139.01 25.83 146.75 22.82 153.87 C 20.24 160.76 19.85 168.18 17.46 175.11 C 15.51 182.04 15.28 189.31 14.71 196.44 C 12.97 205.66 14.99 214.95 15.42 224.18 C 15.67 232.04 19.11 239.26 20.24 246.97 C 22.29 254.86 26.13 262.12 29.47 269.51 C 35.05 278.64 41.91 287.01 49.83 294.20 C 56.99 299.72 62.64 307.06 70.46 311.72 C 76.05 315.41 81.26 319.68 87.02 323.11 C 91.55 325.35 95.60 328.44 99.41 331.74 C 101.67 333.81 104.85 334.10 107.61 335.15 C 109.92 336.55 112.09 338.20 114.48 339.47 C 117.12 340.81 120.40 341.21 122.33 343.69 C 125.91 348.26 127.80 353.85 130.60 358.89 C 128.73 358.90 126.87 358.91 125.00 358.96 C 122.62 354.88 121.05 350.33 118.35 346.45 C 114.48 344.89 110.48 343.47 107.38 340.52 C 103.34 339.86 99.63 338.25 96.37 335.73 C 92.97 332.56 89.38 329.56 85.02 327.83 C 78.02 323.34 71.43 318.21 64.45 313.67 C 49.90 300.21 33.59 287.73 24.02 269.93 C 20.56 261.76 15.88 253.86 14.85 244.90 C 13.92 240.57 12.06 236.48 11.53 232.05 C 9.42 216.52 8.69 200.69 10.90 185.12 C 10.97 176.86 14.51 169.25 15.66 161.17 C 16.69 154.50 19.73 148.38 21.74 141.99 C 23.44 135.79 27.00 130.38 29.77 124.65 C 35.69 113.45 44.15 103.91 52.24 94.27 C 55.66 90.34 59.92 87.29 63.50 83.54 C 66.88 80.22 70.94 77.75 74.51 74.67 C 79.00 71.12 82.39 66.35 87.16 63.14 C 91.50 60.22 95.20 56.48 99.30 53.25 C 109.05 46.59 118.48 39.39 128.99 33.92 C 136.47 30.37 144.36 27.62 151.60 23.63 C 153.40 23.14 155.16 22.55 156.50 21.19 C 158.64 20.60 161.41 21.83 162.89 19.65 C 164.65 17.98 167.89 20.15 169.45 18.04 C 172.76 17.67 176.38 18.78 179.48 17.27 C 185.65 15.34 192.32 16.04 198.50 14.11 Z" />
<path fill="#020202" opacity="1.00" d=" M 162.05 46.90 C 166.49 44.33 171.71 43.87 176.59 42.61 C 179.34 44.67 182.70 42.38 185.70 44.06 C 188.20 45.90 188.42 49.26 190.45 51.50 C 192.59 54.09 194.28 57.05 194.84 60.40 C 193.65 61.59 192.50 62.80 191.44 64.10 C 184.01 63.46 179.80 56.41 175.67 51.09 C 171.16 50.19 165.49 49.49 161.56 52.21 C 157.75 52.21 154.29 53.83 151.28 56.03 C 150.76 55.16 150.26 54.27 149.78 53.38 C 153.73 50.95 158.14 49.40 162.05 46.90 Z" />
<path fill="#020202" opacity="1.00" d=" M 304.99 54.02 C 307.54 52.44 310.19 54.34 312.90 54.09 C 314.34 55.79 315.80 57.49 317.25 59.19 C 318.07 58.77 318.89 58.36 319.71 57.94 C 320.56 59.03 321.43 60.11 322.29 61.21 C 319.88 62.71 316.94 62.40 314.38 61.49 C 312.04 61.84 309.68 61.95 307.33 61.92 C 304.87 66.60 301.46 71.16 296.50 73.35 C 294.34 74.42 291.77 73.56 290.29 71.77 C 291.11 69.71 289.18 67.52 290.49 65.59 C 293.18 59.67 299.26 56.40 304.99 54.02 Z" />
<path fill="#020202" opacity="1.00" d=" M 122.37 93.35 C 132.63 85.56 146.18 82.07 158.89 84.56 C 163.87 85.48 169.13 85.02 173.89 86.96 C 177.72 88.48 182.07 89.03 185.33 91.72 C 190.22 95.06 192.79 100.58 195.92 105.41 C 195.97 106.11 196.05 107.53 196.10 108.24 C 191.18 110.19 186.10 107.31 181.05 107.99 C 178.60 107.64 175.52 108.92 173.53 107.07 C 161.53 104.78 149.18 106.15 137.26 108.34 C 131.44 110.15 126.04 113.09 120.19 114.83 C 116.37 116.16 113.19 118.77 109.58 120.54 C 106.86 121.93 103.75 122.72 101.53 124.94 C 102.99 125.01 104.45 125.07 105.91 125.10 C 105.63 125.62 105.07 126.68 104.79 127.20 C 102.53 126.97 100.36 126.27 98.14 125.82 C 97.97 125.08 97.62 123.61 97.45 122.87 C 98.71 121.63 100.19 120.69 101.78 119.93 C 104.30 113.07 108.24 106.68 113.80 101.86 C 116.34 98.69 119.98 96.60 122.37 93.35 M 150.49 86.29 C 147.00 87.59 143.16 86.43 139.68 87.79 C 135.41 89.23 131.12 90.85 127.26 93.20 C 123.20 97.17 118.62 100.58 114.81 104.82 C 110.18 108.72 107.62 114.29 104.87 119.52 C 108.51 118.17 111.71 115.97 114.99 113.94 C 119.30 111.74 124.12 110.78 128.41 108.50 C 140.77 103.16 154.56 103.06 167.78 103.56 C 167.08 101.25 166.67 98.81 167.10 96.41 C 169.25 93.63 172.49 92.16 175.38 90.31 C 172.84 89.94 170.62 88.47 168.11 88.08 C 162.20 88.08 156.28 86.81 150.49 86.29 M 189.96 103.93 C 189.68 104.46 189.11 105.51 188.83 106.04 C 190.23 106.03 191.64 106.05 193.04 106.07 C 190.96 102.86 189.01 99.55 186.56 96.60 C 186.60 99.36 188.78 101.55 189.96 103.93 Z" />
<path fill="#020202" opacity="1.00" d=" M 293.65 105.74 C 301.43 97.00 313.44 92.12 325.13 93.06 C 329.36 94.21 333.41 95.98 337.63 97.16 C 347.07 103.09 356.63 109.98 361.41 120.42 C 362.16 122.40 364.76 125.35 361.87 126.89 C 357.96 122.71 352.19 121.61 347.03 119.76 C 339.92 117.30 332.24 117.75 324.98 116.01 C 319.37 114.99 313.65 114.63 307.96 114.87 C 302.19 114.28 296.39 112.71 290.60 114.03 C 289.97 113.52 288.71 112.52 288.08 112.01 C 290.50 110.39 291.28 107.39 293.65 105.74 M 312.96 97.19 C 306.12 98.56 300.70 103.27 295.48 107.59 C 294.44 108.32 293.93 109.49 293.50 110.63 C 300.37 110.69 307.08 112.48 313.97 111.99 C 320.69 112.54 327.49 113.25 334.00 115.05 C 333.24 110.03 336.00 103.98 341.63 103.61 C 337.56 99.44 331.64 98.43 326.41 96.46 C 322.03 94.68 317.34 96.27 312.96 97.19 M 353.78 114.41 C 354.25 117.19 355.67 119.96 358.38 121.12 C 357.53 118.49 355.75 116.29 353.78 114.41 Z" />
<path fill="#020202" opacity="1.00" d=" M 192.62 95.83 C 194.97 95.92 196.34 97.98 198.01 99.33 C 200.49 101.22 199.88 104.61 200.42 107.33 C 197.90 106.58 197.70 104.18 197.98 101.93 C 196.58 99.56 194.32 97.94 192.62 95.83 Z" />
<path fill="#020202" opacity="1.00" d=" M 287.39 102.80 C 289.96 103.86 288.29 105.92 287.21 107.48 C 286.73 109.54 286.21 111.63 285.05 113.43 C 284.41 109.67 286.21 106.24 287.39 102.80 Z" />
<path fill="#020202" opacity="1.00" d=" M 198.37 108.69 C 199.05 108.77 200.41 108.91 201.09 108.99 C 200.95 112.66 197.66 114.89 195.54 117.51 C 193.86 119.78 191.04 120.28 188.52 121.09 C 188.60 119.10 190.01 118.49 191.78 118.40 C 193.45 114.78 196.97 112.43 198.37 108.69 Z" />
<path fill="#020202" opacity="1.00" d=" M 285.00 114.02 C 288.60 113.35 291.90 115.19 294.25 117.76 C 295.91 118.23 297.54 118.88 298.87 120.02 C 296.72 120.02 294.72 119.17 292.64 118.83 C 299.71 126.31 304.64 136.31 314.45 140.77 C 315.87 141.13 317.07 141.96 318.13 142.96 C 320.18 143.01 322.23 143.00 324.29 143.00 L 324.26 143.79 C 323.40 144.02 321.68 144.48 320.82 144.71 C 323.02 144.70 325.10 145.48 326.62 147.09 C 321.79 145.55 316.85 144.12 312.34 141.79 C 308.16 139.42 304.23 136.49 301.43 132.53 C 297.04 127.23 292.76 121.84 288.60 116.35 C 287.18 115.92 285.87 115.25 285.00 114.02 Z" />
<path fill="#020202" opacity="1.00" d=" M 89.42 120.15 C 92.05 119.03 94.84 118.37 97.67 118.01 C 97.75 118.64 97.92 119.91 98.00 120.54 C 95.24 123.54 92.80 126.81 90.16 129.91 C 89.57 128.77 89.24 127.42 90.22 126.37 C 92.10 124.22 94.45 122.46 95.74 119.84 C 92.40 120.42 89.64 122.71 86.24 123.11 C 87.05 121.88 88.21 120.98 89.42 120.15 Z" />
<path fill="#020202" opacity="1.00" d=" M 183.66 125.76 C 185.94 124.43 187.59 121.88 190.40 121.66 C 187.22 124.61 183.50 126.90 179.99 129.44 L 179.98 128.20 C 181.16 127.31 182.36 126.46 183.66 125.76 Z" />
<path fill="#020202" opacity="1.00" d=" M 191.57 122.84 L 192.07 123.05 C 190.17 125.87 187.71 128.37 184.69 129.99 C 186.71 127.36 189.37 125.32 191.57 122.84 Z" />
<path fill="#020202" opacity="1.00" d=" M 102.63 128.83 C 105.41 129.06 107.65 130.85 110.20 131.78 C 113.25 132.77 116.51 133.00 119.50 134.21 C 122.05 136.12 125.25 136.91 128.38 137.21 C 128.00 138.54 127.19 139.04 125.95 138.70 C 121.67 137.84 118.02 135.18 113.74 134.33 C 109.70 133.46 104.99 132.65 102.63 128.83 Z" />
<path fill="#020202" opacity="1.00" d=" M 360.88 135.87 C 362.65 133.64 363.09 130.65 364.99 128.54 C 364.89 130.17 365.30 131.98 364.39 133.46 C 362.37 137.22 360.20 141.10 356.67 143.66 C 356.49 140.43 359.48 138.46 360.88 135.87 Z" />
<path fill="#020202" opacity="1.00" d=" M 193.00 155.18 C 192.79 155.83 192.37 157.12 192.16 157.77 C 192.82 157.57 194.15 157.16 194.82 156.96 L 193.60 156.32 C 194.04 155.87 194.93 154.97 195.38 154.51 C 195.07 155.97 195.31 157.82 193.87 158.75 C 190.76 161.29 190.57 165.62 187.87 168.41 C 188.96 164.72 190.50 161.16 191.26 157.37 C 191.70 156.82 192.56 155.73 193.00 155.18 M 192.48 158.24 C 192.77 158.57 192.77 158.57 192.48 158.24 Z" />
<path fill="#020202" opacity="1.00" d=" M 180.53 167.41 C 183.71 165.01 185.71 161.59 188.13 158.51 C 187.91 159.28 187.46 160.82 187.24 161.59 C 187.50 161.83 188.03 162.31 188.30 162.55 C 187.42 163.88 186.82 165.33 186.48 166.90 C 186.25 166.47 185.78 165.60 185.55 165.17 C 180.00 169.74 175.94 176.13 169.34 179.33 C 168.11 182.42 164.57 183.87 163.82 187.20 C 163.47 190.36 163.75 193.55 163.64 196.73 C 169.50 197.11 175.13 199.50 181.08 198.86 C 185.16 199.06 188.16 195.76 192.06 195.17 C 198.82 193.71 204.96 190.33 210.53 186.33 C 218.75 182.96 226.88 179.43 235.10 176.05 C 241.28 174.28 247.39 171.40 253.98 172.08 C 260.90 171.52 267.75 172.81 274.47 174.32 C 277.87 175.57 281.20 177.01 284.64 178.13 C 292.29 184.53 299.65 191.27 307.22 197.76 C 309.11 199.64 311.82 200.07 314.26 200.88 C 314.51 197.20 316.28 193.71 315.65 189.96 C 315.04 186.79 315.01 183.57 314.89 180.35 C 313.57 176.51 309.26 175.23 306.82 172.27 C 301.47 170.70 298.73 165.66 296.81 160.84 C 297.30 161.21 298.29 161.96 298.79 162.33 C 299.42 163.83 300.01 165.38 301.01 166.69 L 300.99 164.05 C 302.29 166.08 303.33 168.38 305.39 169.79 C 308.81 170.38 310.72 173.55 313.52 175.29 C 318.21 178.74 316.38 185.21 317.50 190.14 C 317.98 196.77 317.22 203.58 319.23 210.05 C 318.61 209.99 317.37 209.86 316.76 209.79 C 318.76 211.64 319.45 214.05 318.31 216.59 C 317.73 216.34 316.56 215.84 315.98 215.59 C 316.65 214.65 317.32 213.71 318.00 212.77 C 317.25 212.48 315.75 211.90 315.00 211.61 C 315.00 209.16 315.00 206.71 314.96 204.27 C 310.68 205.59 309.58 210.28 308.23 213.98 C 306.42 220.20 302.13 225.19 298.24 230.20 C 296.48 232.25 294.55 234.44 291.80 235.08 C 287.60 236.19 283.38 237.41 279.06 237.89 C 273.94 237.70 269.04 239.29 263.93 239.39 C 253.21 241.30 242.35 239.29 232.07 236.15 C 224.72 236.06 218.16 232.29 211.45 229.74 C 206.50 228.08 203.06 223.92 198.38 221.77 C 195.22 220.37 193.28 217.36 190.70 215.19 C 186.70 213.82 184.39 210.27 181.50 207.50 C 177.80 205.82 174.29 202.47 169.98 203.27 C 168.31 203.37 166.65 203.13 165.00 202.97 C 165.00 202.48 165.00 201.50 165.00 201.01 C 163.59 200.73 162.20 200.42 160.83 200.05 C 161.40 201.75 161.94 203.47 162.21 205.25 C 161.68 204.88 160.63 204.13 160.10 203.76 C 157.12 197.40 161.40 191.26 162.14 184.98 C 164.36 182.42 165.63 178.81 168.97 177.46 C 168.98 176.92 168.99 175.83 169.00 175.29 C 172.18 171.61 177.51 171.24 180.53 167.41 M 239.63 178.20 C 239.52 183.85 240.20 189.54 241.92 194.95 C 246.87 194.73 252.45 197.01 256.85 193.86 C 259.37 187.87 259.58 181.41 259.44 175.00 C 252.80 175.12 245.22 173.98 239.63 178.20 M 260.96 174.79 C 261.44 181.45 259.68 188.39 262.12 194.80 C 264.20 195.84 266.21 197.03 268.40 197.85 C 270.56 198.24 272.98 197.52 274.90 198.91 C 276.91 192.50 279.25 186.04 279.12 179.22 C 276.43 178.32 273.91 176.87 271.17 176.16 C 267.71 176.11 264.42 174.92 260.96 174.79 M 228.62 181.98 C 228.10 181.99 227.07 182.00 226.55 182.01 C 226.20 182.65 225.51 183.94 225.16 184.58 C 226.32 188.30 226.80 192.20 228.13 195.87 C 231.17 197.29 234.53 196.85 237.52 195.50 C 239.08 189.72 237.67 183.73 238.18 177.87 C 234.91 179.03 231.54 180.03 228.62 181.98 M 280.90 179.73 C 279.76 186.48 278.59 193.28 279.07 200.16 C 280.84 202.28 283.66 203.26 285.71 205.12 C 290.64 200.43 288.38 192.99 291.01 187.26 C 287.66 184.77 284.90 181.10 280.90 179.73 M 222.49 184.58 C 218.20 185.98 214.28 188.30 209.87 189.39 C 209.80 194.17 214.37 197.49 218.52 198.78 C 219.61 197.37 220.71 195.97 221.80 194.57 C 222.38 192.46 223.25 190.46 224.37 188.59 C 224.24 186.78 224.02 184.98 223.98 183.17 C 223.61 183.52 222.87 184.23 222.49 184.58 M 292.49 188.62 C 292.45 193.60 289.77 198.15 290.02 203.11 C 290.93 204.57 292.33 205.67 293.52 206.92 C 296.06 203.26 299.23 199.83 300.19 195.34 C 297.54 193.19 295.25 190.63 292.49 188.62 M 206.53 191.87 C 204.86 193.29 202.99 194.49 200.91 195.20 C 202.14 198.37 204.18 201.14 207.08 202.98 L 207.16 201.03 C 208.02 201.78 208.88 202.53 209.76 203.27 C 210.74 201.77 211.75 200.29 212.88 198.90 C 210.73 196.66 209.58 192.92 206.53 191.87 M 191.08 198.18 C 193.78 202.04 195.50 206.81 199.34 209.70 C 200.73 208.89 202.11 208.06 203.42 207.11 C 203.96 206.99 205.05 206.74 205.59 206.62 C 206.02 205.84 206.45 205.07 206.89 204.31 C 203.19 203.11 200.52 199.65 199.74 195.91 C 196.92 196.90 194.02 197.64 191.08 198.18 M 301.23 196.53 C 301.15 200.82 297.01 203.45 296.85 207.60 C 300.09 205.80 305.28 204.06 304.94 199.51 C 303.76 198.44 302.48 197.51 301.23 196.53 M 184.75 201.13 C 184.99 203.44 184.86 205.90 186.07 207.98 C 187.53 211.24 191.27 212.17 194.35 213.18 C 195.56 212.74 196.48 211.79 197.38 210.91 C 196.41 209.81 195.39 208.75 194.72 207.44 C 193.00 204.54 191.08 201.77 189.26 198.95 C 187.78 199.74 186.27 200.46 184.75 201.13 M 165.94 200.61 C 164.91 202.11 167.68 202.98 168.56 201.94 C 169.45 200.49 166.81 199.72 165.94 200.61 M 176.28 201.04 C 178.57 202.84 181.24 204.02 183.79 205.38 C 183.41 204.04 183.06 202.69 182.74 201.35 C 180.59 201.25 178.43 201.11 176.28 201.04 M 303.70 205.65 C 302.74 206.52 300.92 206.73 300.78 208.26 C 301.19 210.11 301.80 211.91 302.19 213.78 C 303.42 213.12 304.66 212.48 305.90 211.83 C 306.89 208.53 309.09 205.60 309.18 202.07 C 305.82 199.73 306.02 204.56 303.70 205.65 M 254.88 238.09 C 258.57 236.53 262.65 237.22 266.48 236.26 C 265.29 234.89 264.28 233.19 262.60 232.39 C 258.98 231.99 256.87 235.68 254.88 238.09 M 269.08 234.42 C 269.01 235.01 268.86 236.21 268.78 236.80 C 271.18 235.77 273.71 235.05 276.33 234.85 C 274.96 233.86 273.86 231.96 272.00 232.02 C 270.96 232.73 270.05 233.61 269.08 234.42 M 243.61 235.66 C 245.94 237.86 249.48 236.74 252.36 237.01 C 251.22 235.58 250.04 234.19 248.83 232.83 C 247.08 233.75 245.34 234.70 243.61 235.66 Z" />
<path fill="#020202" opacity="1.00" d=" M 287.00 159.17 C 287.97 157.85 290.50 159.31 289.45 160.76 C 288.46 162.23 285.77 160.71 287.00 159.17 Z" />
<path fill="#020202" opacity="1.00" d=" M 291.82 161.91 C 294.41 161.32 295.94 163.15 296.79 165.33 C 297.24 166.38 297.69 167.42 298.15 168.47 C 296.55 167.67 296.04 165.96 295.30 164.47 C 294.40 163.33 292.98 162.75 291.82 161.91 Z" />
<path fill="#020202" opacity="1.00" d=" M 184.10 170.00 C 183.79 168.88 184.64 166.40 186.06 166.80 C 186.69 167.99 185.62 170.51 184.10 170.00 Z" />
<path fill="#020202" opacity="1.00" d=" M 157.99 204.98 C 157.35 204.17 158.42 203.36 158.59 202.59 C 159.24 205.14 160.10 208.04 163.13 208.52 C 162.60 208.97 162.07 209.42 161.54 209.88 C 162.37 211.36 163.15 212.87 163.84 214.43 C 163.48 214.26 162.77 213.91 162.41 213.74 C 161.11 210.73 159.72 207.77 157.99 204.98 Z" />
<path fill="#020202" opacity="1.00" d=" M 157.66 210.54 C 158.19 210.68 159.24 210.95 159.76 211.09 C 160.53 213.66 162.12 215.81 163.85 217.82 C 163.25 217.91 162.05 218.09 161.45 218.17 C 161.42 215.12 159.33 212.87 157.66 210.54 Z" />
<path fill="#020202" opacity="1.00" d=" M 320.44 213.94 C 321.07 215.40 321.23 217.04 320.35 218.45 C 319.18 220.64 319.33 223.50 317.22 225.11 C 317.74 223.29 318.20 221.43 317.90 219.53 L 318.72 221.11 C 319.32 218.72 319.90 216.34 320.44 213.94 Z" />
<path fill="#020202" opacity="1.00" d=" M 317.41 216.90 C 318.33 217.40 318.49 218.28 317.90 219.53 C 317.46 219.85 316.59 220.49 316.16 220.81 C 316.03 219.47 316.71 218.02 317.41 216.90 Z" />
</g>
</svg>
