<?xml version="1.0" encoding="UTF-8" ?>
<!DOCTYPE svg PUBLIC "-//W3C//DTD SVG 1.1//EN" "http://www.w3.org/Graphics/SVG/1.1/DTD/svg11.dtd">
<svg width="640pt" height="518pt" viewBox="0 0 640 518" version="1.1" xmlns="http://www.w3.org/2000/svg">
<path fill="#ffffff" opacity="1.00" d=" M 0.00 0.00 L 640.00 0.00 L 640.00 518.00 L 0.00 518.00 L 0.00 0.00 M 357.38 30.41 C 293.31 31.77 228.99 36.32 166.23 49.92 C 163.53 50.46 160.76 51.05 158.48 52.69 C 140.69 63.94 121.71 73.76 106.23 88.25 C 104.54 89.86 102.61 91.35 101.58 93.50 C 97.70 104.44 100.61 116.66 96.30 127.47 C 88.11 144.62 67.47 151.15 59.27 168.33 C 56.45 172.80 58.62 178.09 58.33 182.97 C 57.94 196.01 56.24 209.13 57.77 222.15 C 61.12 243.65 78.57 259.18 84.11 279.84 C 87.89 321.93 82.11 364.03 79.56 406.02 C 79.17 417.63 77.86 429.30 78.74 440.89 C 86.38 457.58 99.96 471.25 116.08 479.90 C 133.55 489.19 153.32 493.38 172.95 494.62 C 189.25 496.16 205.66 494.95 221.92 493.40 C 243.69 490.90 264.73 484.51 285.72 478.52 C 302.73 473.73 319.82 468.56 337.51 467.12 C 339.22 466.77 340.87 466.17 342.50 465.56 C 377.39 452.17 408.05 429.09 444.38 419.23 C 448.25 417.88 452.72 417.74 455.99 415.02 C 471.66 402.74 489.50 393.63 507.55 385.40 C 510.48 384.26 512.24 381.53 514.40 379.40 C 521.88 371.55 529.73 364.06 537.38 356.38 C 549.80 343.71 561.48 329.72 567.96 312.99 C 570.20 308.20 570.51 302.36 574.52 298.54 C 591.14 280.04 610.69 263.35 621.59 240.52 C 627.26 221.93 626.76 200.94 617.61 183.52 C 608.84 166.39 593.84 153.87 579.84 141.16 C 574.91 136.73 569.73 132.42 565.64 127.19 C 558.47 110.37 550.71 93.69 540.44 78.50 C 528.44 60.61 512.89 44.69 493.83 34.35 C 490.80 32.85 487.26 33.24 483.99 32.83 C 464.99 31.90 445.98 31.40 426.99 30.61 C 403.79 30.19 380.58 30.16 357.38 30.41 Z" />
<path fill="#010101" opacity="1.00" d=" M 357.38 30.41 C 380.58 30.16 403.79 30.19 426.99 30.61 C 445.98 31.40 464.99 31.90 483.99 32.83 C 487.26 33.24 490.80 32.85 493.83 34.35 C 512.89 44.69 528.44 60.61 540.44 78.50 C 550.71 93.69 558.47 110.37 565.64 127.19 C 569.73 132.42 574.91 136.73 579.84 141.16 C 593.84 153.87 608.84 166.39 617.61 183.52 C 626.76 200.94 627.26 221.93 621.59 240.52 C 610.69 263.35 591.14 280.04 574.52 298.54 C 570.51 302.36 570.20 308.20 567.96 312.99 C 561.48 329.72 549.80 343.71 537.38 356.38 C 529.73 364.06 521.88 371.55 514.40 379.40 C 512.24 381.53 510.48 384.26 507.55 385.40 C 489.50 393.63 471.66 402.74 455.99 415.02 C 452.72 417.74 448.25 417.88 444.38 419.23 C 408.05 429.09 377.39 452.17 342.50 465.56 C 340.87 466.17 339.22 466.77 337.51 467.12 C 319.82 468.56 302.73 473.73 285.72 478.52 C 264.73 484.51 243.69 490.90 221.92 493.40 C 205.66 494.95 189.25 496.16 172.95 494.62 C 153.32 493.38 133.55 489.19 116.08 479.90 C 99.96 471.25 86.38 457.58 78.74 440.89 C 77.86 429.30 79.17 417.63 79.56 406.02 C 82.11 364.03 87.89 321.93 84.11 279.84 C 78.57 259.18 61.12 243.65 57.77 222.15 C 56.24 209.13 57.94 196.01 58.33 182.97 C 58.62 178.09 56.45 172.80 59.27 168.33 C 67.47 151.15 88.11 144.62 96.30 127.47 C 100.61 116.66 97.70 104.44 101.58 93.50 C 102.61 91.35 104.54 89.86 106.23 88.25 C 121.71 73.76 140.69 63.94 158.48 52.69 C 160.76 51.05 163.53 50.46 166.23 49.92 C 228.99 36.32 293.31 31.77 357.38 30.41 M 253.96 48.01 C 248.65 48.33 243.46 49.46 238.25 50.45 C 233.52 51.43 228.70 50.22 223.94 50.62 C 221.31 51.13 220.41 54.27 217.88 54.88 C 214.93 55.72 212.00 56.66 208.96 57.07 C 194.49 56.40 179.98 59.44 166.48 64.58 C 145.06 72.83 126.40 87.19 111.10 104.14 C 112.84 116.67 111.38 130.08 103.93 140.65 C 110.07 138.04 116.21 134.72 123.03 134.54 C 125.82 134.54 127.83 137.07 127.80 139.74 C 126.20 139.30 124.65 138.63 123.00 138.38 C 118.93 139.07 115.21 140.99 111.41 142.52 C 106.76 144.51 101.70 146.34 98.44 150.42 C 96.05 153.07 94.65 156.99 90.95 158.11 C 90.83 156.78 90.71 155.45 90.61 154.13 C 82.97 161.05 74.55 167.71 69.91 177.17 C 69.36 179.72 69.53 182.38 69.37 184.98 C 70.32 198.07 67.56 211.60 71.67 224.34 C 72.90 228.68 76.24 231.81 78.61 235.49 C 80.80 246.78 89.38 255.45 92.53 266.40 C 94.90 275.10 97.44 283.87 97.80 292.94 C 99.00 301.26 97.82 309.66 98.49 318.01 C 99.52 298.64 100.49 279.13 98.01 259.82 C 96.36 245.75 92.72 232.02 90.55 218.04 C 89.88 215.76 93.28 215.39 93.50 217.51 C 96.28 227.08 98.37 236.86 100.60 246.58 C 105.03 266.40 104.78 286.84 104.17 307.03 C 103.21 318.35 102.47 329.77 99.73 340.85 C 98.73 345.25 96.26 349.24 95.98 353.81 C 93.78 380.16 90.02 406.45 90.29 432.95 C 90.17 435.27 92.21 436.82 93.35 438.62 C 98.11 444.81 101.18 452.07 105.50 458.51 C 126.33 474.02 152.21 481.80 177.99 482.83 C 189.42 483.97 200.90 482.82 212.30 482.00 C 252.15 478.54 288.72 459.66 328.45 455.62 C 332.60 454.97 337.17 456.28 340.92 453.95 C 353.60 446.94 366.24 439.84 379.02 433.02 C 388.33 428.55 395.41 420.80 402.64 413.64 C 415.42 400.57 425.54 385.25 437.28 371.28 C 443.79 363.12 451.17 355.65 457.19 347.09 C 457.85 345.82 459.28 345.48 460.48 344.91 C 459.17 347.42 457.95 349.98 456.31 352.30 C 449.36 362.24 441.53 371.53 434.14 381.13 C 423.06 395.58 412.41 410.52 399.01 422.96 C 413.28 416.30 427.97 410.44 443.18 406.32 C 444.41 405.89 445.76 405.59 446.77 404.70 C 453.77 398.44 462.42 394.50 469.89 388.89 C 477.25 382.95 483.57 375.81 489.34 368.34 C 499.67 354.46 509.22 340.00 518.11 325.16 C 523.26 315.51 529.86 304.87 527.13 293.47 C 525.77 293.45 524.42 293.44 523.07 293.44 C 524.69 292.30 526.34 290.33 528.53 291.38 C 531.63 294.79 531.59 299.76 531.19 304.07 C 529.28 316.51 522.21 327.25 515.81 337.81 C 505.86 353.30 496.01 369.01 483.68 382.75 C 493.50 378.11 502.59 371.96 510.60 364.63 C 521.28 355.01 532.23 345.48 540.90 333.94 C 548.49 323.89 553.57 312.22 557.39 300.28 C 560.02 289.99 573.03 286.72 574.69 275.87 C 571.94 276.91 569.17 277.96 566.28 278.53 C 566.48 277.99 566.88 276.92 567.08 276.39 C 573.59 269.24 584.50 269.67 591.87 263.87 C 597.92 254.37 604.07 244.84 608.47 234.42 C 613.39 223.39 615.18 210.54 611.22 198.93 C 606.38 185.01 596.62 172.89 584.19 164.99 C 588.53 175.39 592.70 185.95 594.87 197.05 C 597.15 209.51 598.03 222.54 594.94 234.94 C 594.08 238.01 593.25 241.51 590.45 243.44 C 588.79 244.40 586.91 243.53 585.23 243.17 C 586.23 241.58 587.62 240.18 588.19 238.35 C 592.18 220.64 590.01 202.00 584.05 184.98 C 580.83 175.32 576.27 166.20 571.90 157.03 C 569.66 151.86 563.72 149.80 560.97 145.00 C 556.99 138.18 553.64 131.02 549.95 124.05 C 547.71 119.77 543.58 116.99 539.60 114.51 C 531.34 109.65 522.34 106.25 513.59 102.42 C 511.58 101.55 510.49 98.74 511.99 97.01 C 514.10 94.37 517.96 95.51 520.66 96.50 C 527.47 99.44 534.31 102.35 540.87 105.83 C 533.04 91.32 524.77 76.73 513.16 64.86 C 505.67 56.93 496.84 50.12 486.89 45.59 C 475.25 44.66 463.51 44.46 451.82 44.23 C 460.07 48.60 468.25 53.08 476.45 57.54 C 479.40 59.38 483.39 60.92 483.83 64.88 C 479.49 64.37 476.03 61.47 472.18 59.67 C 462.64 54.98 453.62 49.30 443.94 44.91 C 439.89 42.95 435.31 43.44 430.96 43.26 C 396.67 41.47 362.30 40.67 327.96 41.74 C 303.23 42.93 278.68 46.57 253.96 48.01 Z" />
<path fill="#ffffff" opacity="1.00" d=" M 253.96 48.01 C 278.68 46.57 303.23 42.93 327.96 41.74 C 362.30 40.67 396.67 41.47 430.96 43.26 C 435.31 43.44 439.89 42.95 443.94 44.91 C 453.62 49.30 462.64 54.98 472.18 59.67 C 476.03 61.47 479.49 64.37 483.83 64.88 C 483.39 60.92 479.40 59.38 476.45 57.54 C 468.25 53.08 460.07 48.60 451.82 44.23 C 463.51 44.46 475.25 44.66 486.89 45.59 C 496.84 50.12 505.67 56.93 513.16 64.86 C 524.77 76.73 533.04 91.32 540.87 105.83 C 534.31 102.35 527.47 99.44 520.66 96.50 C 517.96 95.51 514.10 94.37 511.99 97.01 C 510.49 98.74 511.58 101.55 513.59 102.42 C 522.34 106.25 531.34 109.65 539.60 114.51 C 543.58 116.99 547.71 119.77 549.95 124.05 C 553.64 131.02 556.99 138.18 560.97 145.00 C 563.72 149.80 569.66 151.86 571.90 157.03 C 576.27 166.20 580.83 175.32 584.05 184.98 C 590.01 202.00 592.18 220.64 588.19 238.35 C 587.62 240.18 586.23 241.58 585.23 243.17 C 586.91 243.53 588.79 244.40 590.45 243.44 C 593.25 241.51 594.08 238.01 594.94 234.94 C 598.03 222.54 597.15 209.51 594.87 197.05 C 592.70 185.95 588.53 175.39 584.19 164.99 C 596.62 172.89 606.38 185.01 611.22 198.93 C 615.18 210.54 613.39 223.39 608.47 234.42 C 604.07 244.84 597.92 254.37 591.87 263.87 C 584.50 269.67 573.59 269.24 567.08 276.39 C 566.88 276.92 566.48 277.99 566.28 278.53 C 569.17 277.96 571.94 276.91 574.69 275.87 C 573.03 286.72 560.02 289.99 557.39 300.28 C 553.57 312.22 548.49 323.89 540.90 333.94 C 532.23 345.48 521.28 355.01 510.60 364.63 C 502.59 371.96 493.50 378.11 483.68 382.75 C 496.01 369.01 505.86 353.30 515.81 337.81 C 522.21 327.25 529.28 316.51 531.19 304.07 C 531.59 299.76 531.63 294.79 528.53 291.38 C 526.34 290.33 524.69 292.30 523.07 293.44 C 524.42 293.44 525.77 293.45 527.13 293.47 C 529.86 304.87 523.26 315.51 518.11 325.16 C 509.22 340.00 499.67 354.46 489.34 368.34 C 483.57 375.81 477.25 382.95 469.89 388.89 C 462.42 394.50 453.77 398.44 446.77 404.70 C 445.76 405.59 444.41 405.89 443.18 406.32 C 427.97 410.44 413.28 416.30 399.01 422.96 C 412.41 410.52 423.06 395.58 434.14 381.13 C 441.53 371.53 449.36 362.24 456.31 352.30 C 457.95 349.98 459.17 347.42 460.48 344.91 C 459.28 345.48 457.85 345.82 457.19 347.09 C 451.17 355.65 443.79 363.12 437.28 371.28 C 425.54 385.25 415.42 400.57 402.64 413.64 C 395.41 420.80 388.33 428.55 379.02 433.02 C 366.24 439.84 353.60 446.94 340.92 453.95 C 337.17 456.28 332.60 454.97 328.45 455.62 C 288.72 459.66 252.15 478.54 212.30 482.00 C 200.90 482.82 189.42 483.97 177.99 482.83 C 152.21 481.80 126.33 474.02 105.50 458.51 C 101.18 452.07 98.11 444.81 93.35 438.62 C 92.21 436.82 90.17 435.27 90.29 432.95 C 90.02 406.45 93.78 380.16 95.98 353.81 C 96.26 349.24 98.73 345.25 99.73 340.85 C 102.47 329.77 103.21 318.35 104.17 307.03 C 104.78 286.84 105.03 266.40 100.60 246.58 C 98.37 236.86 96.28 227.08 93.50 217.51 C 93.28 215.39 89.88 215.76 90.55 218.04 C 92.72 232.02 96.36 245.75 98.01 259.82 C 100.49 279.13 99.52 298.64 98.49 318.01 C 97.82 309.66 99.00 301.26 97.80 292.94 C 97.44 283.87 94.90 275.10 92.53 266.40 C 89.38 255.45 80.80 246.78 78.61 235.49 C 76.24 231.81 72.90 228.68 71.67 224.34 C 67.56 211.60 70.32 198.07 69.37 184.98 C 69.53 182.38 69.36 179.72 69.91 177.17 C 74.55 167.71 82.97 161.05 90.61 154.13 C 90.71 155.45 90.83 156.78 90.95 158.11 C 94.65 156.99 96.05 153.07 98.44 150.42 C 101.70 146.34 106.76 144.51 111.41 142.52 C 115.21 140.99 118.93 139.07 123.00 138.38 C 124.65 138.63 126.20 139.30 127.80 139.74 C 127.83 137.07 125.82 134.54 123.03 134.54 C 116.21 134.72 110.07 138.04 103.93 140.65 C 111.38 130.08 112.84 116.67 111.10 104.14 C 126.40 87.19 145.06 72.83 166.48 64.58 C 179.98 59.44 194.49 56.40 208.96 57.07 C 212.00 56.66 214.93 55.72 217.88 54.88 C 220.41 54.27 221.31 51.13 223.94 50.62 C 228.70 50.22 233.52 51.43 238.25 50.45 C 243.46 49.46 248.65 48.33 253.96 48.01 M 306.98 48.25 C 308.58 48.86 310.22 49.44 311.97 49.30 C 322.99 49.31 334.04 48.97 345.02 50.12 C 355.34 50.44 365.67 50.74 376.00 50.52 C 383.39 50.35 390.82 51.31 398.18 50.24 C 398.02 49.80 397.71 48.92 397.55 48.48 C 393.87 47.45 390.01 47.91 386.27 47.34 C 377.23 46.00 368.06 46.62 358.96 46.20 C 351.28 45.45 343.54 45.87 335.87 44.89 C 329.57 44.56 323.25 44.73 316.95 44.71 C 313.32 44.67 309.75 45.89 306.98 48.25 M 415.94 51.13 C 420.47 52.66 425.26 53.33 429.68 55.21 C 437.82 58.62 445.18 63.58 452.44 68.53 C 459.69 73.58 467.22 78.29 473.91 84.10 C 476.93 86.66 478.76 90.28 481.68 92.94 C 481.55 84.38 474.23 78.70 467.97 74.06 C 457.91 67.00 448.05 59.48 437.04 53.93 C 430.62 50.51 423.04 49.27 415.94 51.13 M 216.46 63.59 C 207.61 65.62 198.97 68.61 190.92 72.81 C 178.57 79.18 166.37 85.95 155.09 94.08 C 151.11 97.35 146.09 100.84 145.53 106.40 C 149.07 106.84 151.80 104.40 154.42 102.43 C 166.23 93.19 179.40 85.90 192.39 78.48 C 199.43 74.33 207.12 71.42 214.93 69.07 C 203.60 73.77 193.32 81.04 185.48 90.51 C 183.84 92.55 182.66 94.97 182.42 97.60 C 184.13 97.52 185.97 97.48 187.36 96.33 C 195.98 89.93 203.64 82.07 213.49 77.47 C 223.46 71.95 235.19 72.60 246.12 70.82 C 258.19 69.14 269.91 65.55 282.01 64.01 C 292.95 62.74 303.99 63.03 314.96 62.29 C 330.00 61.68 345.15 61.12 360.10 63.26 C 377.84 65.42 394.82 71.18 412.24 74.87 C 424.60 77.98 437.46 80.64 448.29 87.69 C 451.18 89.42 452.64 92.57 454.25 95.38 C 453.40 93.20 453.45 90.86 453.16 88.58 C 450.21 83.85 445.06 81.08 440.11 78.85 C 428.71 73.91 416.48 71.39 404.48 68.37 C 390.61 64.56 376.75 60.47 362.48 58.35 C 346.15 55.69 329.53 55.88 313.05 56.73 C 299.15 57.00 285.14 56.90 271.43 59.54 C 261.78 61.33 252.19 63.54 242.42 64.65 C 236.30 65.39 230.13 65.79 224.04 66.75 C 236.20 63.11 248.08 57.63 260.96 57.17 C 264.76 56.67 268.72 56.87 272.39 55.63 C 272.52 55.21 272.79 54.35 272.92 53.92 C 267.96 53.72 262.99 53.46 258.02 53.43 C 243.53 53.67 230.39 60.51 216.46 63.59 M 414.90 67.49 C 415.09 68.50 415.67 69.13 416.64 69.37 C 427.74 72.65 438.53 77.03 448.88 82.21 C 458.87 87.34 465.28 96.92 472.80 104.88 C 466.89 94.76 459.98 84.25 449.18 78.85 C 441.02 74.60 432.41 71.26 423.73 68.23 C 420.91 67.19 417.85 67.31 414.90 67.49 M 134.43 104.44 C 128.33 111.49 122.92 119.58 121.46 128.97 C 121.26 130.66 121.09 132.49 122.01 134.03 C 125.46 134.12 126.15 129.68 127.38 127.22 C 130.62 116.42 138.46 108.01 145.76 99.76 C 151.19 93.53 157.91 88.58 163.35 82.36 C 164.80 80.79 166.06 76.79 163.02 76.38 C 153.36 85.58 142.61 93.77 134.43 104.44 M 355.74 89.73 C 349.20 94.64 343.40 101.65 343.11 110.17 C 344.99 108.27 346.46 106.03 347.85 103.76 C 352.59 95.90 361.40 92.07 367.45 85.43 C 369.69 82.83 374.15 81.11 373.76 77.09 C 373.33 76.99 372.47 76.80 372.04 76.70 C 365.81 79.95 361.45 85.74 355.74 89.73 M 346.60 82.55 C 343.48 84.21 338.88 85.82 339.10 90.12 C 342.89 88.84 346.01 86.20 349.73 84.73 C 354.26 82.48 359.50 81.19 363.11 77.45 C 357.20 77.10 351.83 80.22 346.60 82.55 M 281.98 80.76 C 277.10 82.11 271.15 83.79 268.90 88.81 C 271.15 88.93 273.50 88.91 275.50 87.69 C 280.21 85.12 285.58 83.84 290.95 84.25 C 294.62 84.09 296.75 87.67 298.87 90.13 C 300.48 91.97 301.80 95.29 304.78 94.70 C 309.05 93.53 312.15 90.03 316.02 88.03 C 318.35 86.64 321.48 85.33 324.01 86.97 C 329.63 90.45 334.30 95.25 340.00 98.63 C 340.56 98.23 341.66 97.43 342.22 97.03 C 335.44 93.24 330.55 86.69 323.47 83.40 C 316.07 81.72 310.59 88.15 304.40 90.88 C 302.12 88.08 300.20 84.91 297.35 82.64 C 293.08 79.07 287.05 80.09 281.98 80.76 M 413.78 79.75 C 414.55 80.83 415.44 81.94 416.81 82.29 C 421.16 84.01 425.82 84.90 430.04 86.94 C 435.05 89.83 438.08 94.96 441.81 99.21 C 443.58 101.60 446.22 103.54 446.77 106.63 C 447.45 109.98 451.49 111.29 454.47 110.27 C 463.27 107.60 471.61 113.53 480.46 112.66 C 476.36 110.59 471.62 110.58 467.28 109.22 C 462.28 107.66 457.03 108.53 451.92 108.68 C 450.52 108.78 449.56 108.18 449.02 106.88 C 445.73 101.03 441.77 95.59 437.81 90.19 C 435.41 86.86 432.10 84.16 428.11 83.00 C 423.43 81.60 418.76 79.43 413.78 79.75 M 379.51 83.56 C 370.92 88.71 364.08 96.40 359.10 105.02 C 354.34 111.82 350.81 119.39 348.33 127.29 C 345.86 134.36 343.22 141.88 344.59 149.45 C 351.54 156.50 358.50 164.00 367.57 168.32 C 372.23 171.43 377.39 173.87 382.99 174.65 C 393.77 176.75 405.52 177.40 415.73 172.68 C 419.08 171.25 421.76 168.10 420.64 164.26 C 419.24 163.85 417.71 163.05 416.33 164.00 C 406.20 169.56 394.03 168.14 383.16 165.89 C 377.60 164.89 373.17 161.19 368.27 158.68 C 365.12 157.13 362.65 154.62 360.19 152.19 C 365.94 153.96 371.81 155.23 377.70 156.45 C 383.91 158.35 390.52 157.42 396.81 156.40 C 399.13 156.05 401.66 154.87 401.93 152.25 C 396.23 151.94 390.66 153.65 384.98 153.70 C 381.89 153.81 378.95 152.73 375.96 152.14 C 369.08 150.80 362.24 149.29 355.35 148.01 C 362.04 142.08 366.86 134.44 373.19 128.19 C 378.12 124.49 381.96 118.79 388.38 117.56 C 397.80 116.33 408.13 118.04 415.30 124.71 C 421.26 130.26 429.42 133.36 434.17 140.15 C 425.11 136.67 416.51 131.83 406.93 129.80 C 401.56 128.40 395.53 128.07 390.80 131.47 C 394.21 131.69 397.65 131.49 401.04 132.00 C 410.07 132.98 418.41 136.86 426.66 140.40 C 433.18 143.47 440.16 145.70 446.06 149.94 C 449.99 152.79 455.32 151.40 459.60 153.23 C 463.45 156.20 466.74 159.98 470.98 162.42 C 473.58 162.50 474.03 159.09 472.49 157.51 C 470.08 154.65 466.60 152.98 464.03 150.29 C 467.17 148.99 470.17 146.83 473.58 146.45 C 475.97 148.35 478.17 151.04 481.56 150.71 C 483.85 146.45 478.72 143.93 476.51 141.08 C 483.58 138.71 491.06 139.36 498.39 139.34 C 498.59 137.06 497.91 134.43 495.49 133.67 C 486.17 132.13 476.46 133.83 468.06 138.12 C 463.10 140.77 457.81 142.71 452.53 144.60 C 452.50 142.95 452.82 141.29 454.03 140.08 C 458.23 135.55 462.48 130.72 468.32 128.29 C 471.77 126.66 476.16 127.38 479.07 124.61 C 473.31 124.84 467.35 126.18 462.76 129.83 C 458.35 132.81 455.41 137.31 452.00 141.28 C 447.18 129.50 443.84 116.97 436.82 106.21 C 432.41 99.49 427.89 92.43 421.00 88.00 C 414.47 83.52 406.32 83.04 398.77 81.64 C 392.38 81.28 385.25 79.94 379.51 83.56 M 206.12 91.07 C 198.15 95.19 193.94 103.79 186.24 108.28 C 179.28 112.42 172.73 117.36 167.54 123.62 C 165.98 118.86 163.65 114.37 160.85 110.22 C 159.23 107.89 155.79 105.64 153.14 107.75 C 156.21 112.01 159.21 116.32 161.56 121.03 C 157.32 117.63 153.19 113.28 147.58 112.41 C 143.38 111.25 140.01 114.75 136.78 116.83 C 135.02 117.65 135.33 120.50 137.31 120.79 C 141.52 122.57 144.60 116.37 148.78 118.12 C 154.36 120.85 159.33 124.89 163.14 129.82 C 159.06 128.74 155.24 126.57 150.98 126.25 C 147.85 126.02 145.41 128.36 143.70 130.70 C 141.45 133.79 138.31 136.71 138.31 140.83 C 139.61 141.22 141.45 142.10 142.47 140.66 C 145.30 137.66 147.39 134.04 150.34 131.13 C 156.07 131.94 161.00 135.43 166.75 136.01 C 170.17 136.59 173.54 137.65 177.04 137.53 C 182.36 137.64 186.96 134.61 191.92 133.15 C 196.70 131.59 202.00 131.45 206.34 128.69 C 206.31 128.46 206.24 127.99 206.21 127.76 C 197.63 127.03 189.40 130.46 181.56 133.51 C 177.81 135.04 173.71 134.72 169.76 134.55 C 176.98 130.24 184.59 126.02 193.01 124.73 C 200.25 123.24 207.20 120.63 214.05 117.87 C 219.38 115.87 226.45 114.57 230.82 119.20 C 235.60 124.04 242.33 126.32 246.79 131.52 C 243.52 132.01 240.26 132.60 237.02 133.22 C 232.30 134.12 227.49 133.51 222.73 133.50 C 223.96 134.84 225.41 136.08 227.24 136.47 C 233.49 138.46 239.78 135.50 246.04 135.10 C 240.64 140.15 235.63 146.62 228.02 148.24 C 215.84 149.80 204.67 141.52 192.45 143.57 C 190.72 143.90 188.74 146.01 189.87 147.80 C 191.26 150.17 194.23 150.56 196.51 151.67 C 191.62 151.28 186.82 152.94 181.95 152.32 C 175.50 150.91 169.67 147.19 162.96 146.80 C 158.38 146.62 154.07 144.92 149.77 143.50 C 151.84 149.36 158.56 150.77 164.05 151.01 C 171.96 151.12 178.82 157.01 186.87 155.49 C 190.95 154.57 195.12 154.68 199.27 154.56 C 199.31 153.94 199.39 152.69 199.43 152.07 C 206.66 153.45 213.59 156.20 220.93 157.05 C 228.34 158.05 236.09 155.66 241.64 150.65 C 246.45 146.81 249.75 141.31 255.04 138.06 C 258.27 136.39 259.09 131.97 258.29 128.72 C 254.17 122.05 250.84 114.93 247.01 108.09 C 244.66 103.94 242.85 99.04 238.61 96.40 C 232.36 92.38 224.98 90.63 217.81 89.09 C 213.81 88.14 209.65 89.11 206.12 91.07 M 275.65 98.91 C 271.52 100.26 266.75 101.26 264.06 105.02 C 265.63 105.64 267.25 106.83 269.00 106.09 C 273.40 104.85 277.65 102.95 282.24 102.49 C 284.86 102.20 288.01 101.86 290.00 103.99 C 292.27 106.66 292.18 110.41 293.58 113.50 C 294.37 115.01 296.54 114.87 297.95 114.43 C 304.16 111.92 309.81 108.17 314.47 103.35 C 316.82 103.09 318.60 104.99 320.39 106.19 C 318.78 106.93 316.55 106.88 315.56 108.58 C 310.51 116.15 308.14 125.05 305.80 133.74 C 304.74 137.99 302.42 142.30 303.44 146.76 C 304.24 148.79 306.50 146.00 306.94 144.87 C 311.26 134.14 312.72 122.37 318.35 112.13 C 318.63 110.86 320.54 110.73 321.18 111.73 C 323.88 114.99 326.08 118.65 328.22 122.30 C 325.96 122.16 323.28 121.71 321.59 123.62 C 317.29 127.90 314.90 133.63 311.50 138.58 C 309.18 141.84 307.80 145.79 308.30 149.83 C 308.98 149.98 310.32 150.28 310.99 150.43 C 313.73 148.64 313.42 144.75 315.28 142.24 C 318.52 137.33 320.95 131.85 324.89 127.43 C 327.46 133.11 330.49 138.67 334.74 143.28 C 335.53 144.25 336.73 144.64 337.85 145.10 C 335.28 140.31 332.17 135.75 330.40 130.58 C 330.24 127.86 331.22 125.10 330.38 122.43 C 328.83 117.78 325.94 113.76 323.91 109.33 C 326.69 110.53 329.47 111.76 332.44 112.47 C 328.54 109.42 324.55 106.49 320.76 103.30 C 318.07 101.14 313.79 98.91 310.78 101.74 C 306.87 105.22 302.17 107.54 297.53 109.86 C 296.15 106.14 295.40 101.59 291.71 99.37 C 286.87 96.49 280.84 97.72 275.65 98.91 M 262.29 119.25 C 262.33 119.88 262.43 121.12 262.48 121.75 C 266.05 123.73 269.02 120.54 272.15 119.29 C 274.03 118.86 274.87 120.89 275.78 122.12 C 276.99 124.29 278.56 126.41 278.93 128.92 C 278.48 130.61 276.37 131.12 275.14 132.17 C 272.89 129.03 269.49 125.28 265.18 126.97 C 261.28 129.25 261.42 134.56 261.72 138.51 C 265.00 137.28 265.69 133.56 267.27 130.84 C 269.43 131.07 270.99 132.53 272.50 133.95 C 270.69 137.82 269.82 142.04 269.12 146.23 C 264.95 145.66 260.31 148.45 261.06 153.13 C 263.60 152.00 265.88 150.37 268.51 149.43 C 268.60 154.59 267.53 159.68 266.47 164.70 C 263.04 166.68 258.82 167.13 254.92 166.69 C 247.29 165.91 239.62 165.67 232.00 164.82 C 219.45 163.52 206.55 162.85 194.24 166.17 C 191.80 166.73 189.67 168.10 188.14 170.09 C 192.62 172.70 197.73 170.15 202.46 169.80 C 217.34 168.02 232.31 170.05 247.13 171.46 C 240.55 172.71 234.48 175.62 228.53 178.57 C 224.76 181.50 222.16 185.70 219.99 189.89 C 219.01 191.59 219.38 193.59 219.47 195.44 C 221.19 195.85 223.01 196.37 224.74 195.64 C 228.13 194.63 229.48 191.00 231.49 188.45 C 233.33 185.44 236.94 184.55 239.83 182.89 C 244.21 180.51 249.21 179.76 253.74 177.75 C 257.33 176.43 260.65 174.00 264.63 174.10 C 264.61 174.72 264.59 175.96 264.57 176.58 C 259.29 180.11 254.13 183.92 248.21 186.33 C 243.44 188.60 244.11 194.67 244.34 199.05 C 244.94 204.05 244.55 209.46 246.96 214.04 C 249.50 216.08 252.96 216.45 255.87 217.81 C 243.01 213.78 229.98 210.30 216.83 207.31 C 210.10 205.69 204.08 202.19 197.84 199.33 C 189.84 195.67 181.42 192.82 173.92 188.13 C 170.54 186.02 166.70 184.81 163.33 182.69 C 157.99 179.32 152.80 175.64 147.01 173.04 C 142.51 171.15 139.08 167.57 135.00 165.00 C 131.88 163.00 131.29 158.82 128.24 156.76 C 126.37 155.86 124.02 155.98 122.53 157.52 C 120.70 159.17 117.75 159.23 116.47 161.52 C 114.55 163.81 115.77 166.80 116.52 169.28 C 118.24 176.89 118.63 184.71 119.91 192.39 C 121.30 199.56 122.80 206.73 123.26 214.03 C 123.72 225.02 123.36 236.03 123.81 247.02 C 124.96 259.34 126.64 271.64 126.57 284.03 C 127.57 309.65 125.74 335.25 123.46 360.74 C 123.57 347.15 123.60 333.47 121.59 319.99 C 120.36 301.66 119.19 283.31 118.19 264.96 C 117.14 254.86 114.67 244.97 112.09 235.17 C 111.48 233.19 111.09 230.97 109.55 229.47 C 108.51 229.31 106.62 228.83 106.39 230.37 C 105.86 233.59 106.54 236.85 107.13 240.02 C 109.32 250.23 111.84 260.48 111.79 270.98 C 112.67 287.98 113.59 304.98 114.69 321.97 C 117.71 340.38 114.68 359.19 117.64 377.59 C 119.53 384.73 118.95 392.24 120.93 399.35 C 122.28 404.56 125.05 409.36 128.64 413.36 C 130.24 415.46 134.24 415.56 135.28 412.83 C 135.97 410.05 133.68 407.86 132.32 405.70 C 129.05 401.49 127.47 396.21 127.13 390.93 C 132.07 397.50 137.37 404.16 144.84 407.98 C 149.76 410.20 154.56 412.77 159.78 414.27 C 164.50 415.58 168.54 418.59 173.32 419.78 C 178.45 421.14 183.33 423.43 188.62 424.17 C 193.50 424.82 197.95 427.39 202.90 427.62 C 211.60 427.76 220.30 429.25 228.99 428.07 C 235.40 427.11 241.88 427.57 248.32 427.15 C 253.79 426.43 259.29 425.98 264.75 425.24 C 271.45 423.48 278.25 422.13 285.08 420.96 C 290.23 420.76 295.27 419.31 299.89 417.06 C 303.78 414.60 308.28 413.42 312.41 411.43 C 322.16 407.49 330.57 401.07 339.27 395.28 C 343.23 392.63 346.11 388.74 349.81 385.79 C 356.76 380.50 363.64 374.97 369.19 368.18 C 372.30 364.63 375.97 361.62 379.06 358.05 C 384.77 351.44 391.86 346.15 397.25 339.25 C 400.82 334.49 405.67 330.95 410.34 327.36 C 417.42 322.56 423.14 316.11 429.80 310.79 C 434.25 307.27 438.19 303.18 442.04 299.02 C 449.46 291.52 454.71 282.28 460.74 273.70 C 464.22 267.37 469.39 262.22 473.09 256.04 C 480.18 246.15 486.56 235.73 494.32 226.33 C 503.75 214.94 511.81 202.42 518.27 189.11 C 521.40 182.41 525.34 176.12 529.13 169.78 C 529.97 180.11 527.45 190.36 524.37 200.15 C 520.62 212.49 515.64 224.41 510.00 235.99 C 507.69 240.92 505.04 245.81 504.08 251.22 C 506.54 249.69 508.54 247.54 510.10 245.12 C 516.23 235.89 520.36 225.53 524.33 215.24 C 529.38 201.39 534.55 186.99 533.72 172.00 C 533.71 168.95 532.36 166.15 530.46 163.84 C 534.43 167.39 538.93 170.79 541.09 175.84 C 543.68 181.63 546.98 187.18 548.33 193.45 C 550.43 203.53 552.62 213.67 553.15 223.97 C 554.06 237.62 549.51 251.43 541.24 262.26 C 538.45 266.24 534.49 269.54 532.69 274.12 C 535.52 273.59 537.69 271.62 539.85 269.86 C 551.03 259.72 558.22 245.17 559.03 230.06 C 559.65 220.86 557.97 211.73 556.46 202.70 C 555.19 195.94 554.18 189.01 551.26 182.71 C 549.86 179.75 548.45 176.81 547.11 173.83 C 544.55 167.58 539.44 162.79 533.99 159.02 C 531.60 157.26 530.22 154.50 527.88 152.69 C 524.52 151.61 523.40 155.99 520.35 156.26 C 508.24 161.11 494.51 161.94 483.54 169.51 C 478.31 173.96 473.96 179.36 469.92 184.88 C 465.07 192.47 456.91 196.87 449.45 201.46 C 444.36 204.75 438.15 205.04 432.38 206.26 C 424.84 207.47 417.64 210.37 409.98 210.86 C 418.95 208.07 427.08 203.13 434.66 197.66 C 440.64 193.37 445.27 187.53 451.15 183.13 C 453.38 181.38 456.41 180.07 457.15 177.06 C 449.83 180.32 443.94 185.76 438.11 191.12 C 431.76 196.84 424.19 200.97 416.47 204.53 C 407.70 208.67 397.92 209.48 388.54 211.38 C 386.41 211.86 383.95 212.10 382.60 214.04 C 390.46 214.81 398.30 213.33 406.04 212.18 C 396.70 215.46 387.13 218.12 377.99 221.96 C 370.90 224.43 363.30 223.22 356.00 224.27 C 335.35 224.10 314.48 226.31 294.02 222.63 C 290.02 222.40 286.00 222.26 282.06 221.42 C 275.81 219.99 269.36 220.41 263.05 219.39 C 269.94 220.09 276.85 219.24 283.73 219.68 C 291.14 221.05 298.45 223.27 306.00 223.70 C 309.46 224.05 311.94 219.15 309.49 216.58 C 307.57 214.30 304.25 214.34 301.56 213.70 C 294.32 212.92 287.40 210.02 280.05 210.26 C 271.51 210.35 262.53 211.37 254.62 207.37 C 254.23 203.13 253.50 198.92 253.36 194.66 C 259.08 191.40 264.75 187.98 270.05 184.05 C 272.89 182.04 273.98 178.56 274.40 175.26 C 275.12 169.38 276.16 163.54 277.19 157.70 C 278.10 151.88 277.70 145.59 280.27 140.19 C 286.53 134.47 294.11 130.23 300.03 124.08 C 301.59 122.32 303.37 119.61 301.93 117.30 C 301.01 115.35 298.06 114.68 296.55 116.30 C 292.07 120.65 286.74 123.92 281.73 127.60 C 279.83 123.54 278.73 118.79 275.35 115.66 C 270.71 112.73 266.29 117.31 262.29 119.25 M 499.09 121.86 C 502.00 122.72 505.03 122.83 508.03 123.08 C 519.38 123.08 529.21 129.65 538.81 134.93 C 533.65 128.91 526.16 125.99 519.17 122.73 C 515.02 120.87 510.47 120.28 505.97 120.44 C 503.63 120.59 500.95 120.12 499.09 121.86 M 314.91 146.97 C 313.29 149.65 310.82 152.36 311.31 155.73 C 312.79 157.17 314.63 155.98 315.68 154.67 C 317.78 152.04 319.14 148.90 321.33 146.34 C 322.31 144.62 324.73 144.88 326.24 145.68 C 327.75 149.39 328.89 153.23 330.30 156.98 C 330.55 152.62 330.36 148.13 328.81 144.00 C 327.72 141.51 324.51 141.42 322.18 141.18 C 318.58 140.88 316.71 144.50 314.91 146.97 M 495.72 143.41 C 493.42 144.15 489.31 143.84 489.09 147.06 C 488.73 150.84 493.50 150.24 495.99 150.13 C 505.61 148.99 515.47 147.80 525.07 149.85 C 529.86 150.81 534.12 153.30 538.28 155.76 C 553.43 163.58 563.76 178.22 570.68 193.41 C 573.10 198.00 574.37 203.29 578.07 207.11 C 580.98 203.39 579.54 198.41 578.57 194.25 C 575.05 180.17 566.20 168.06 555.87 158.13 C 550.46 152.89 543.63 149.57 537.10 145.98 C 532.48 143.43 527.31 141.92 522.06 141.46 C 513.24 140.88 504.31 141.20 495.72 143.41 M 108.84 147.83 C 101.10 158.97 95.92 172.31 96.36 186.03 C 95.96 190.78 98.09 195.13 99.68 199.46 C 103.37 207.88 110.80 213.82 115.17 221.81 C 115.84 223.06 116.98 223.92 118.02 224.85 C 119.44 223.52 120.80 221.96 120.64 219.88 C 121.29 214.33 117.40 209.86 114.16 205.85 C 109.66 200.41 105.77 194.14 104.78 187.03 C 104.08 174.89 108.40 162.97 114.90 152.87 C 116.32 151.01 118.29 148.73 120.90 149.19 C 127.73 150.40 133.84 153.75 139.65 157.40 C 142.07 159.28 144.68 157.62 147.04 156.66 C 148.41 157.36 148.96 158.97 150.02 160.03 C 159.97 171.09 172.97 178.61 185.18 186.85 C 190.32 190.43 196.64 191.28 202.42 193.37 C 208.37 195.43 214.07 198.15 220.09 200.02 C 222.01 200.75 224.09 200.50 226.05 200.11 C 223.90 198.24 220.98 197.86 218.50 196.63 C 210.95 193.20 203.27 190.01 195.25 187.85 C 189.66 186.42 185.06 182.83 180.35 179.70 C 172.71 174.80 165.11 169.74 158.29 163.73 C 154.77 160.84 151.86 156.87 147.16 155.89 C 145.13 151.58 140.35 150.07 136.93 147.15 C 142.53 147.82 147.74 150.34 151.97 154.03 C 161.02 161.61 171.83 166.58 182.50 171.43 C 184.86 172.46 187.34 173.14 189.80 173.90 C 181.77 168.89 173.58 164.18 165.19 159.79 C 156.81 155.57 150.78 147.38 141.50 144.89 C 136.94 143.59 132.03 145.02 127.53 143.36 C 124.22 142.20 120.66 140.64 117.11 141.79 C 113.92 143.07 110.92 145.06 108.84 147.83 M 89.34 170.33 C 85.70 176.02 83.75 182.53 81.99 188.99 C 79.55 197.45 80.72 206.34 81.34 214.97 C 81.60 220.94 81.62 226.93 81.75 232.91 C 81.77 234.67 82.43 236.47 83.94 237.50 C 85.22 234.51 86.27 231.34 86.27 228.05 C 86.32 220.35 86.62 212.61 85.54 204.96 C 84.52 196.91 86.15 188.88 88.20 181.12 C 89.96 174.10 94.09 167.81 94.90 160.53 C 92.65 163.56 91.43 167.19 89.34 170.33 M 425.28 174.27 C 421.64 179.65 415.25 182.38 411.78 187.85 C 416.76 187.84 420.64 184.24 424.04 181.03 C 428.56 176.88 431.50 171.19 436.60 167.63 C 439.48 165.58 443.07 165.13 446.45 164.42 C 446.48 163.83 446.56 162.67 446.59 162.08 C 437.50 160.13 430.17 167.59 425.28 174.27 M 323.04 170.08 C 322.75 172.45 325.05 173.73 327.08 173.95 C 334.32 175.22 341.58 176.72 348.38 179.59 C 349.14 190.36 349.87 201.13 349.70 211.95 C 350.97 216.01 357.46 214.98 357.64 210.92 C 358.24 201.01 357.00 191.11 356.55 181.22 C 360.59 182.41 364.82 183.37 368.47 185.57 C 372.42 188.65 374.49 193.47 378.34 196.67 C 382.11 199.61 386.84 202.22 391.76 201.79 C 392.62 197.61 389.27 194.79 386.07 192.89 C 379.84 189.19 377.55 181.30 370.84 178.19 C 364.05 175.12 356.63 173.83 349.65 171.29 C 342.89 169.29 336.02 167.29 328.95 166.83 C 326.70 166.82 323.01 167.06 323.04 170.08 M 554.08 181.87 C 555.98 188.58 559.49 194.70 561.46 201.39 C 565.71 213.10 566.43 225.65 566.41 238.00 C 566.42 248.97 563.71 259.67 561.22 270.29 C 560.10 274.80 558.68 279.28 558.41 283.95 C 563.58 276.45 564.44 267.08 566.52 258.44 C 569.04 248.15 568.95 237.51 568.58 226.99 C 568.51 216.07 565.59 205.37 561.60 195.27 C 559.47 190.62 557.47 185.77 554.08 181.87 M 296.53 191.40 C 293.87 193.92 292.91 197.91 293.68 201.43 C 294.47 203.09 296.11 204.10 297.98 203.76 C 308.08 202.25 317.76 206.25 327.38 208.66 C 328.45 209.62 329.26 210.82 330.35 211.77 C 334.02 212.79 335.43 208.57 336.51 205.95 C 335.83 202.94 335.20 199.39 332.44 197.56 C 329.55 195.67 326.04 195.29 322.77 194.46 C 317.14 193.29 311.88 190.28 305.98 190.75 C 302.89 190.97 299.13 189.13 296.53 191.40 M 326.69 218.72 C 329.32 223.02 335.00 223.06 339.44 222.56 C 342.43 221.96 345.88 221.88 348.15 219.58 C 343.29 218.55 338.55 221.22 333.73 220.10 C 331.39 219.61 329.04 219.12 326.69 218.72 M 519.66 255.65 C 515.18 261.14 509.97 265.97 505.17 271.18 C 502.91 273.70 500.26 276.17 499.70 279.69 C 504.24 278.44 507.29 274.69 510.48 271.50 C 517.83 264.08 524.66 256.08 530.20 247.20 C 532.55 243.56 533.93 239.42 534.47 235.14 C 531.48 243.22 525.10 249.21 519.66 255.65 M 479.67 276.51 C 475.64 286.46 470.99 296.18 465.34 305.32 C 455.61 321.47 444.70 337.01 431.78 350.79 C 424.32 359.02 417.31 367.64 409.97 375.97 C 408.62 377.46 407.59 379.20 406.72 381.00 C 413.56 376.62 419.12 370.55 424.94 364.94 C 434.10 355.73 443.25 346.43 450.91 335.90 C 463.71 318.57 475.43 300.17 483.09 279.94 C 485.38 274.23 486.92 268.22 489.68 262.69 C 491.17 259.55 493.11 256.54 493.74 253.06 C 486.24 258.80 482.83 267.95 479.67 276.51 M 497.18 298.17 C 492.74 308.91 489.40 320.07 484.79 330.74 C 480.17 342.14 473.74 352.70 466.93 362.91 C 457.25 376.89 446.78 390.40 434.95 402.63 C 444.07 396.00 452.58 388.48 459.48 379.51 C 472.76 362.57 484.54 344.08 491.40 323.56 C 494.42 314.47 497.56 305.43 500.57 296.34 C 501.32 294.24 501.71 292.04 501.82 289.82 C 499.56 292.14 498.41 295.23 497.18 298.17 M 445.03 305.02 C 433.67 316.68 420.64 326.67 410.34 339.36 C 400.41 349.75 390.28 359.96 380.57 370.57 C 377.29 374.32 374.86 378.77 371.21 382.21 C 367.43 385.78 363.21 388.84 359.46 392.44 C 348.43 402.41 333.85 406.68 321.42 414.46 C 319.04 415.96 316.49 418.17 317.36 421.33 C 324.38 421.18 330.93 418.34 337.15 415.35 C 344.65 411.61 352.42 408.23 359.20 403.23 C 364.49 399.22 369.20 394.53 374.36 390.36 C 380.49 385.35 383.87 377.96 389.37 372.39 C 398.55 361.91 408.48 352.12 417.56 341.56 C 424.47 332.54 433.15 325.14 440.73 316.73 C 445.67 311.65 450.13 306.13 455.24 301.23 C 456.69 299.82 458.00 298.24 458.90 296.41 C 453.32 297.25 449.04 301.39 445.03 305.02 M 100.66 373.65 C 99.03 378.95 99.88 384.54 99.70 390.00 C 99.53 397.92 100.92 405.89 103.88 413.24 C 106.20 418.31 109.68 422.74 112.48 427.54 C 115.12 431.98 119.27 435.60 124.35 436.89 C 129.38 438.17 134.97 440.06 140.00 437.90 C 142.37 436.98 142.24 432.92 139.59 432.61 C 134.51 432.33 129.47 431.19 124.79 429.16 C 119.65 426.61 117.76 420.77 114.57 416.38 C 110.71 411.00 108.84 404.52 107.90 398.04 C 107.03 390.61 108.20 383.08 107.25 375.67 C 106.35 372.71 103.08 372.13 100.66 373.65 M 411.94 385.92 C 402.19 391.61 392.29 397.05 382.38 402.46 C 374.09 406.91 365.67 411.40 356.42 413.51 C 348.59 415.83 340.08 416.34 332.88 420.47 C 335.23 420.98 337.62 421.41 340.05 421.23 C 349.05 420.52 357.94 418.52 366.47 415.56 C 375.79 412.08 384.29 406.83 392.97 402.05 C 401.64 397.28 409.81 391.67 417.73 385.75 C 416.45 383.14 413.68 384.93 411.94 385.92 M 138.11 415.13 C 141.41 423.11 149.46 427.93 157.18 430.96 C 166.71 434.57 176.81 437.00 187.03 437.19 C 193.97 436.39 201.29 436.59 207.78 433.71 C 209.36 433.19 208.48 431.42 208.45 430.28 C 198.85 432.26 188.97 431.95 179.23 431.63 C 166.72 429.52 154.13 425.74 143.71 418.27 C 141.94 417.05 140.08 415.97 138.11 415.13 M 318.44 438.65 C 312.58 440.41 306.30 440.73 300.34 439.25 C 294.38 438.16 287.77 435.70 282.06 438.94 C 285.68 443.83 292.17 444.74 297.67 446.22 C 307.70 448.83 318.53 447.29 327.74 442.69 C 335.85 438.26 342.55 431.46 351.32 428.20 C 354.14 426.89 351.72 422.80 349.05 423.77 C 337.67 426.10 329.67 435.90 318.44 438.65 M 276.92 434.86 C 270.98 438.14 264.39 439.88 257.99 442.01 C 245.53 446.02 232.48 447.71 219.91 451.29 C 229.87 453.80 240.00 450.78 249.73 448.62 C 258.27 446.29 266.94 443.96 274.88 439.96 C 278.52 437.80 283.02 435.56 283.93 430.99 C 281.41 431.94 279.28 433.61 276.92 434.86 M 228.04 443.22 C 223.39 443.99 218.65 443.49 213.99 444.10 C 203.35 444.96 193.14 441.48 182.77 439.86 C 180.91 439.51 178.96 439.51 177.24 440.39 C 181.50 442.24 186.11 443.00 190.60 444.06 C 195.34 445.09 200.05 446.44 204.93 446.60 C 218.52 447.25 232.31 446.13 245.33 442.00 C 247.75 441.18 249.87 439.72 252.06 438.43 C 244.17 440.55 236.10 441.98 228.04 443.22 M 136.98 443.99 C 138.74 450.45 144.65 455.04 150.74 457.26 C 163.31 461.74 177.16 461.04 189.95 457.93 C 192.02 457.30 194.65 457.12 195.62 454.84 C 185.85 453.19 176.08 456.08 166.29 455.33 C 159.77 454.90 153.29 453.39 147.36 450.63 C 143.59 448.91 140.51 446.09 136.98 443.99 M 110.23 450.35 C 110.39 452.02 110.71 453.81 112.07 454.98 C 115.65 458.38 120.39 460.13 124.84 462.09 C 135.08 466.13 145.47 469.83 156.07 472.79 C 169.69 476.62 183.91 477.52 197.98 477.46 C 202.76 477.31 207.60 477.45 212.27 476.25 C 218.10 475.17 223.29 472.01 229.18 471.15 C 226.63 468.86 223.07 469.56 220.06 470.33 C 214.17 471.84 208.08 472.50 202.00 472.40 C 188.32 472.16 174.49 471.54 161.22 467.91 C 148.03 464.37 135.20 459.61 122.58 454.43 C 118.54 452.86 114.62 450.71 110.23 450.35 Z" />
<path fill="#010101" opacity="1.00" d=" M 306.98 48.25 C 309.75 45.89 313.32 44.67 316.95 44.71 C 323.25 44.73 329.57 44.56 335.87 44.89 C 343.54 45.87 351.28 45.45 358.96 46.20 C 368.06 46.62 377.23 46.00 386.27 47.34 C 390.01 47.91 393.87 47.45 397.55 48.48 C 397.71 48.92 398.02 49.80 398.18 50.24 C 390.82 51.31 383.39 50.35 376.00 50.52 C 365.67 50.74 355.34 50.44 345.02 50.12 C 334.04 48.97 322.99 49.31 311.97 49.30 C 310.22 49.44 308.58 48.86 306.98 48.25 Z" />
<path fill="#010101" opacity="1.00" d=" M 415.94 51.13 C 423.04 49.27 430.62 50.51 437.04 53.93 C 448.05 59.48 457.91 67.00 467.97 74.06 C 474.23 78.70 481.55 84.38 481.68 92.94 C 478.76 90.28 476.93 86.66 473.91 84.10 C 467.22 78.29 459.69 73.58 452.44 68.53 C 445.18 63.58 437.82 58.62 429.68 55.21 C 425.26 53.33 420.47 52.66 415.94 51.13 Z" />
<path fill="#010101" opacity="1.00" d=" M 216.46 63.59 C 230.39 60.51 243.53 53.67 258.02 53.43 C 262.99 53.46 267.96 53.72 272.92 53.92 C 272.79 54.35 272.52 55.21 272.39 55.63 C 268.72 56.87 264.76 56.67 260.96 57.17 C 248.08 57.63 236.20 63.11 224.04 66.75 C 230.13 65.79 236.30 65.39 242.42 64.65 C 252.19 63.54 261.78 61.33 271.43 59.54 C 285.14 56.90 299.15 57.00 313.05 56.73 C 329.53 55.88 346.15 55.69 362.48 58.35 C 376.75 60.47 390.61 64.56 404.48 68.37 C 416.48 71.39 428.71 73.91 440.11 78.85 C 445.06 81.08 450.21 83.85 453.16 88.58 C 453.45 90.86 453.40 93.20 454.25 95.38 C 452.64 92.57 451.18 89.42 448.29 87.69 C 437.46 80.64 424.60 77.98 412.24 74.87 C 394.82 71.18 377.84 65.42 360.10 63.26 C 345.15 61.12 330.00 61.68 314.96 62.29 C 303.99 63.03 292.95 62.74 282.01 64.01 C 269.91 65.55 258.19 69.14 246.12 70.82 C 235.19 72.60 223.46 71.95 213.49 77.47 C 203.64 82.07 195.98 89.93 187.36 96.33 C 185.97 97.48 184.13 97.52 182.42 97.60 C 182.66 94.97 183.84 92.55 185.48 90.51 C 193.32 81.04 203.60 73.77 214.93 69.07 C 207.12 71.42 199.43 74.33 192.39 78.48 C 179.40 85.90 166.23 93.19 154.42 102.43 C 151.80 104.40 149.07 106.84 145.53 106.40 C 146.09 100.84 151.11 97.35 155.09 94.08 C 166.37 85.95 178.57 79.18 190.92 72.81 C 198.97 68.61 207.61 65.62 216.46 63.59 Z" />
<path fill="#010101" opacity="1.00" d=" M 414.90 67.49 C 417.85 67.31 420.91 67.19 423.73 68.23 C 432.41 71.26 441.02 74.60 449.18 78.85 C 459.98 84.25 466.89 94.76 472.80 104.88 C 465.28 96.92 458.87 87.34 448.88 82.21 C 438.53 77.03 427.74 72.65 416.64 69.37 C 415.67 69.13 415.09 68.50 414.90 67.49 Z" />
<path fill="#010101" opacity="1.00" d=" M 134.43 104.44 C 142.61 93.77 153.36 85.58 163.02 76.38 C 166.06 76.79 164.80 80.79 163.35 82.36 C 157.91 88.58 151.19 93.53 145.76 99.76 C 138.46 108.01 130.62 116.42 127.38 127.22 C 126.15 129.68 125.46 134.12 122.01 134.03 C 121.09 132.49 121.26 130.66 121.46 128.97 C 122.92 119.58 128.33 111.49 134.43 104.44 Z" />
<path fill="#010101" opacity="1.00" d=" M 355.74 89.73 C 361.45 85.74 365.81 79.95 372.04 76.70 C 372.47 76.80 373.33 76.99 373.76 77.09 C 374.15 81.11 369.69 82.83 367.45 85.43 C 361.40 92.07 352.59 95.90 347.85 103.76 C 346.46 106.03 344.99 108.27 343.11 110.17 C 343.40 101.65 349.20 94.64 355.74 89.73 Z" />
<path fill="#010101" opacity="1.00" d=" M 346.60 82.55 C 351.83 80.22 357.20 77.10 363.11 77.45 C 359.50 81.19 354.26 82.48 349.73 84.73 C 346.01 86.20 342.89 88.84 339.10 90.12 C 338.88 85.82 343.48 84.21 346.60 82.55 Z" />
<path fill="#010101" opacity="1.00" d=" M 281.98 80.76 C 287.05 80.09 293.08 79.07 297.35 82.64 C 300.20 84.91 302.12 88.08 304.40 90.88 C 310.59 88.15 316.07 81.72 323.47 83.40 C 330.55 86.69 335.44 93.24 342.22 97.03 C 341.66 97.43 340.56 98.23 340.00 98.63 C 334.30 95.25 329.63 90.45 324.01 86.97 C 321.48 85.33 318.35 86.64 316.02 88.03 C 312.15 90.03 309.05 93.53 304.78 94.70 C 301.80 95.29 300.48 91.97 298.87 90.13 C 296.75 87.67 294.62 84.09 290.95 84.25 C 285.58 83.84 280.21 85.12 275.50 87.69 C 273.50 88.91 271.15 88.93 268.90 88.81 C 271.15 83.79 277.10 82.11 281.98 80.76 Z" />
<path fill="#010101" opacity="1.00" d=" M 413.78 79.75 C 418.76 79.43 423.43 81.60 428.11 83.00 C 432.10 84.16 435.41 86.86 437.81 90.19 C 441.77 95.59 445.73 101.03 449.02 106.88 C 449.56 108.18 450.52 108.78 451.92 108.68 C 457.03 108.53 462.28 107.66 467.28 109.22 C 471.62 110.58 476.36 110.59 480.46 112.66 C 471.61 113.53 463.27 107.60 454.47 110.27 C 451.49 111.29 447.45 109.98 446.77 106.63 C 446.22 103.54 443.58 101.60 441.81 99.21 C 438.08 94.96 435.05 89.83 430.04 86.94 C 425.82 84.90 421.16 84.01 416.81 82.29 C 415.44 81.94 414.55 80.83 413.78 79.75 Z" />
<path fill="#010101" opacity="1.00" d=" M 379.51 83.56 C 385.25 79.94 392.38 81.28 398.77 81.64 C 406.32 83.04 414.47 83.52 421.00 88.00 C 427.89 92.43 432.41 99.49 436.82 106.21 C 443.84 116.97 447.18 129.50 452.00 141.28 C 455.41 137.31 458.35 132.81 462.76 129.83 C 467.35 126.18 473.31 124.84 479.07 124.61 C 476.16 127.38 471.77 126.66 468.32 128.29 C 462.48 130.72 458.23 135.55 454.03 140.08 C 452.82 141.29 452.50 142.95 452.53 144.60 C 457.81 142.71 463.10 140.77 468.06 138.12 C 476.46 133.83 486.17 132.13 495.49 133.67 C 497.91 134.43 498.59 137.06 498.39 139.34 C 491.06 139.36 483.58 138.71 476.51 141.08 C 478.72 143.93 483.85 146.45 481.56 150.71 C 478.17 151.04 475.97 148.35 473.58 146.45 C 470.17 146.83 467.17 148.99 464.03 150.29 C 466.60 152.98 470.08 154.65 472.49 157.51 C 474.03 159.09 473.58 162.50 470.98 162.42 C 466.74 159.98 463.45 156.20 459.60 153.23 C 455.32 151.40 449.99 152.79 446.06 149.94 C 440.16 145.70 433.18 143.47 426.66 140.40 C 418.41 136.86 410.07 132.98 401.04 132.00 C 397.65 131.49 394.21 131.69 390.80 131.47 C 395.53 128.07 401.56 128.40 406.93 129.80 C 416.51 131.83 425.11 136.67 434.17 140.15 C 429.42 133.36 421.26 130.26 415.30 124.71 C 408.13 118.04 397.80 116.33 388.38 117.56 C 381.96 118.79 378.12 124.49 373.19 128.19 C 366.86 134.44 362.04 142.08 355.35 148.01 C 362.24 149.29 369.08 150.80 375.96 152.14 C 378.95 152.73 381.89 153.81 384.98 153.70 C 390.66 153.65 396.23 151.94 401.93 152.25 C 401.66 154.87 399.13 156.05 396.81 156.40 C 390.52 157.42 383.91 158.35 377.70 156.45 C 371.81 155.23 365.94 153.96 360.19 152.19 C 362.65 154.62 365.12 157.13 368.27 158.68 C 373.17 161.19 377.60 164.89 383.16 165.89 C 394.03 168.14 406.20 169.56 416.33 164.00 C 417.71 163.05 419.24 163.85 420.64 164.26 C 421.76 168.10 419.08 171.25 415.73 172.68 C 405.52 177.40 393.77 176.75 382.99 174.65 C 377.39 173.87 372.23 171.43 367.57 168.32 C 358.50 164.00 351.54 156.50 344.59 149.45 C 343.22 141.88 345.86 134.36 348.33 127.29 C 350.81 119.39 354.34 111.82 359.10 105.02 C 364.08 96.40 370.92 88.71 379.51 83.56 M 383.61 90.58 C 376.17 95.39 370.39 102.36 366.07 110.02 C 360.83 117.60 357.48 126.26 355.05 135.09 C 357.40 132.72 359.33 130.00 361.49 127.47 C 365.98 121.97 371.61 117.56 376.92 112.90 C 384.03 107.31 393.42 107.96 401.91 108.53 C 403.47 105.71 405.36 102.85 408.33 101.34 C 412.14 99.53 415.61 96.84 419.92 96.31 C 413.65 91.37 405.55 90.56 397.93 89.44 C 393.19 89.01 387.90 87.84 383.61 90.58 M 430.14 109.04 C 431.85 114.24 431.45 119.73 430.46 125.02 C 435.38 127.81 439.01 132.13 442.81 136.20 C 439.29 126.84 435.51 117.51 430.14 109.04 Z" />
<path fill="#010101" opacity="1.00" d=" M 206.12 91.07 C 209.65 89.11 213.81 88.14 217.81 89.09 C 224.98 90.63 232.36 92.38 238.61 96.40 C 242.85 99.04 244.66 103.94 247.01 108.09 C 250.84 114.93 254.17 122.05 258.29 128.72 C 259.09 131.97 258.27 136.39 255.04 138.06 C 249.75 141.31 246.45 146.81 241.64 150.65 C 236.09 155.66 228.34 158.05 220.93 157.05 C 213.59 156.20 206.66 153.45 199.43 152.07 C 199.39 152.69 199.31 153.94 199.27 154.56 C 195.12 154.68 190.95 154.57 186.87 155.49 C 178.82 157.01 171.96 151.12 164.05 151.01 C 158.56 150.77 151.84 149.36 149.77 143.50 C 154.07 144.92 158.38 146.62 162.96 146.80 C 169.67 147.19 175.50 150.91 181.95 152.32 C 186.82 152.94 191.62 151.28 196.51 151.67 C 194.23 150.56 191.26 150.17 189.87 147.80 C 188.74 146.01 190.72 143.90 192.45 143.57 C 204.67 141.52 215.84 149.80 228.02 148.24 C 235.63 146.62 240.64 140.15 246.04 135.10 C 239.78 135.50 233.49 138.46 227.24 136.47 C 225.41 136.08 223.96 134.84 222.73 133.50 C 227.49 133.51 232.30 134.12 237.02 133.22 C 240.26 132.60 243.52 132.01 246.79 131.52 C 242.33 126.32 235.60 124.04 230.82 119.20 C 226.45 114.57 219.38 115.87 214.05 117.87 C 207.20 120.63 200.25 123.24 193.01 124.73 C 184.59 126.02 176.98 130.24 169.76 134.55 C 173.71 134.72 177.81 135.04 181.56 133.51 C 189.40 130.46 197.63 127.03 206.21 127.76 C 206.24 127.99 206.31 128.46 206.34 128.69 C 202.00 131.45 196.70 131.59 191.92 133.15 C 186.96 134.61 182.36 137.64 177.04 137.53 C 173.54 137.65 170.17 136.59 166.75 136.01 C 161.00 135.43 156.07 131.94 150.34 131.13 C 147.39 134.04 145.30 137.66 142.47 140.66 C 141.45 142.10 139.61 141.22 138.31 140.83 C 138.31 136.71 141.45 133.79 143.70 130.70 C 145.41 128.36 147.85 126.02 150.98 126.25 C 155.24 126.57 159.06 128.74 163.14 129.82 C 159.33 124.89 154.36 120.85 148.78 118.12 C 144.60 116.37 141.52 122.57 137.31 120.79 C 135.33 120.50 135.02 117.65 136.78 116.83 C 140.01 114.75 143.38 111.25 147.58 112.41 C 153.19 113.28 157.32 117.63 161.56 121.03 C 159.21 116.32 156.21 112.01 153.14 107.75 C 155.79 105.64 159.23 107.89 160.85 110.22 C 163.65 114.37 165.98 118.86 167.54 123.62 C 172.73 117.36 179.28 112.42 186.24 108.28 C 193.94 103.79 198.15 95.19 206.12 91.07 M 212.43 96.48 C 206.68 98.56 203.30 104.00 199.10 108.10 C 195.91 111.60 192.07 114.40 188.10 116.94 C 198.64 115.24 208.18 110.23 218.42 107.51 C 218.26 103.71 220.40 100.52 222.82 97.82 C 219.42 97.11 215.94 95.65 212.43 96.48 M 234.12 101.96 C 234.78 105.52 235.64 109.04 236.50 112.55 C 238.73 115.36 241.89 117.19 244.85 119.12 C 241.48 113.31 238.98 106.73 234.12 101.96 Z" />
<path fill="#ffffff" opacity="1.00" d=" M 383.61 90.58 C 387.90 87.84 393.19 89.01 397.93 89.44 C 405.55 90.56 413.65 91.37 419.92 96.31 C 415.61 96.84 412.14 99.53 408.33 101.34 C 405.36 102.85 403.47 105.71 401.91 108.53 C 393.42 107.96 384.03 107.31 376.92 112.90 C 371.61 117.56 365.98 121.97 361.49 127.47 C 359.33 130.00 357.40 132.72 355.05 135.09 C 357.48 126.26 360.83 117.60 366.07 110.02 C 370.39 102.36 376.17 95.39 383.61 90.58 Z" />
<path fill="#ffffff" opacity="1.00" d=" M 212.43 96.48 C 215.94 95.65 219.42 97.11 222.82 97.82 C 220.40 100.52 218.26 103.71 218.42 107.51 C 208.18 110.23 198.64 115.24 188.10 116.94 C 192.07 114.40 195.91 111.60 199.10 108.10 C 203.30 104.00 206.68 98.56 212.43 96.48 Z" />
<path fill="#010101" opacity="1.00" d=" M 275.65 98.91 C 280.84 97.72 286.87 96.49 291.71 99.37 C 295.40 101.59 296.15 106.14 297.53 109.86 C 302.17 107.54 306.87 105.22 310.78 101.74 C 313.79 98.91 318.07 101.14 320.76 103.30 C 324.55 106.49 328.54 109.42 332.44 112.47 C 329.47 111.76 326.69 110.53 323.91 109.33 C 325.94 113.76 328.83 117.78 330.38 122.43 C 331.22 125.10 330.24 127.86 330.40 130.58 C 332.17 135.75 335.28 140.31 337.85 145.10 C 336.73 144.64 335.53 144.25 334.74 143.28 C 330.49 138.67 327.46 133.11 324.89 127.43 C 320.95 131.85 318.52 137.33 315.28 142.24 C 313.42 144.75 313.73 148.64 310.99 150.43 C 310.32 150.28 308.98 149.98 308.30 149.83 C 307.80 145.79 309.18 141.84 311.50 138.58 C 314.90 133.63 317.29 127.90 321.59 123.62 C 323.28 121.71 325.96 122.16 328.22 122.30 C 326.08 118.65 323.88 114.99 321.18 111.73 C 320.54 110.73 318.63 110.86 318.35 112.13 C 312.72 122.37 311.26 134.14 306.94 144.87 C 306.50 146.00 304.24 148.79 303.44 146.76 C 302.42 142.30 304.74 137.99 305.80 133.74 C 308.14 125.05 310.51 116.15 315.56 108.58 C 316.55 106.88 318.78 106.93 320.39 106.19 C 318.60 104.99 316.82 103.09 314.47 103.35 C 309.81 108.17 304.16 111.92 297.95 114.43 C 296.54 114.87 294.37 115.01 293.58 113.50 C 292.18 110.41 292.27 106.66 290.00 103.99 C 288.01 101.86 284.86 102.20 282.24 102.49 C 277.65 102.95 273.40 104.85 269.00 106.09 C 267.25 106.83 265.63 105.64 264.06 105.02 C 266.75 101.26 271.52 100.26 275.65 98.91 Z" />
<path fill="#ffffff" opacity="1.00" d=" M 234.12 101.96 C 238.98 106.73 241.48 113.31 244.85 119.12 C 241.89 117.19 238.73 115.36 236.50 112.55 C 235.64 109.04 234.78 105.52 234.12 101.96 Z" />
<path fill="#ffffff" opacity="1.00" d=" M 430.14 109.04 C 435.51 117.51 439.29 126.84 442.81 136.20 C 439.01 132.13 435.38 127.81 430.46 125.02 C 431.45 119.73 431.85 114.24 430.14 109.04 Z" />
<path fill="#010101" opacity="1.00" d=" M 262.29 119.25 C 266.29 117.31 270.71 112.73 275.35 115.66 C 278.73 118.79 279.83 123.54 281.73 127.60 C 286.74 123.92 292.07 120.65 296.55 116.30 C 298.06 114.68 301.01 115.35 301.93 117.30 C 303.37 119.61 301.59 122.32 300.03 124.08 C 294.11 130.23 286.53 134.47 280.27 140.19 C 277.70 145.59 278.10 151.88 277.19 157.70 C 276.16 163.54 275.12 169.38 274.40 175.26 C 273.98 178.56 272.89 182.04 270.05 184.05 C 264.75 187.98 259.08 191.40 253.36 194.66 C 253.50 198.92 254.23 203.13 254.62 207.37 C 262.53 211.37 271.51 210.35 280.05 210.26 C 287.40 210.02 294.32 212.92 301.56 213.70 C 304.25 214.34 307.57 214.30 309.49 216.58 C 311.94 219.15 309.46 224.05 306.00 223.70 C 298.45 223.27 291.14 221.05 283.73 219.68 C 276.85 219.24 269.94 220.09 263.05 219.39 C 269.36 220.41 275.81 219.99 282.06 221.42 C 286.00 222.26 290.02 222.40 294.02 222.63 C 314.48 226.31 335.35 224.10 356.00 224.27 C 363.30 223.22 370.90 224.43 377.99 221.96 C 387.13 218.12 396.70 215.46 406.04 212.18 C 398.30 213.33 390.46 214.81 382.60 214.04 C 383.95 212.10 386.41 211.86 388.54 211.38 C 397.92 209.48 407.70 208.67 416.47 204.53 C 424.19 200.97 431.76 196.84 438.11 191.12 C 443.94 185.76 449.83 180.32 457.15 177.06 C 456.41 180.07 453.38 181.38 451.15 183.13 C 445.27 187.53 440.64 193.37 434.66 197.66 C 427.08 203.13 418.95 208.07 409.98 210.86 C 417.64 210.37 424.84 207.47 432.38 206.26 C 438.15 205.04 444.36 204.75 449.45 201.46 C 456.91 196.87 465.07 192.47 469.92 184.88 C 473.96 179.36 478.31 173.96 483.54 169.51 C 494.51 161.94 508.24 161.11 520.35 156.26 C 523.40 155.99 524.52 151.61 527.88 152.69 C 530.22 154.50 531.60 157.26 533.99 159.02 C 539.44 162.79 544.55 167.58 547.11 173.83 C 548.45 176.81 549.86 179.75 551.26 182.71 C 554.18 189.01 555.19 195.94 556.46 202.70 C 557.97 211.73 559.65 220.86 559.03 230.06 C 558.22 245.17 551.03 259.72 539.85 269.86 C 537.69 271.62 535.52 273.59 532.69 274.12 C 534.49 269.54 538.45 266.24 541.24 262.26 C 549.51 251.43 554.06 237.62 553.15 223.97 C 552.62 213.67 550.43 203.53 548.33 193.45 C 546.98 187.18 543.68 181.63 541.09 175.84 C 538.93 170.79 534.43 167.39 530.46 163.84 C 532.36 166.15 533.71 168.95 533.72 172.00 C 534.55 186.99 529.38 201.39 524.33 215.24 C 520.36 225.53 516.23 235.89 510.10 245.12 C 508.54 247.54 506.54 249.69 504.08 251.22 C 505.04 245.81 507.69 240.92 510.00 235.99 C 515.64 224.41 520.62 212.49 524.37 200.15 C 527.45 190.36 529.97 180.11 529.13 169.78 C 525.34 176.12 521.40 182.41 518.27 189.11 C 511.81 202.42 503.75 214.94 494.32 226.33 C 486.56 235.73 480.18 246.15 473.09 256.04 C 469.39 262.22 464.22 267.37 460.74 273.70 C 454.71 282.28 449.46 291.52 442.04 299.02 C 438.19 303.18 434.25 307.27 429.80 310.79 C 423.14 316.11 417.42 322.56 410.34 327.36 C 405.67 330.95 400.82 334.49 397.25 339.25 C 391.86 346.15 384.77 351.44 379.06 358.05 C 375.97 361.62 372.30 364.63 369.19 368.18 C 363.64 374.97 356.76 380.50 349.81 385.79 C 346.11 388.74 343.23 392.63 339.27 395.28 C 330.57 401.07 322.16 407.49 312.41 411.43 C 308.28 413.42 303.78 414.60 299.89 417.06 C 295.27 419.31 290.23 420.76 285.08 420.96 C 278.25 422.13 271.45 423.48 264.75 425.24 C 259.29 425.98 253.79 426.43 248.32 427.15 C 241.88 427.57 235.40 427.11 228.99 428.07 C 220.30 429.25 211.60 427.76 202.90 427.62 C 197.95 427.39 193.50 424.82 188.62 424.17 C 183.33 423.43 178.45 421.14 173.32 419.78 C 168.54 418.59 164.50 415.58 159.78 414.27 C 154.56 412.77 149.76 410.20 144.84 407.98 C 137.37 404.16 132.07 397.50 127.13 390.93 C 127.47 396.21 129.05 401.49 132.32 405.70 C 133.68 407.86 135.97 410.05 135.28 412.83 C 134.24 415.56 130.24 415.46 128.64 413.36 C 125.05 409.36 122.28 404.56 120.93 399.35 C 118.95 392.24 119.53 384.73 117.64 377.59 C 114.68 359.19 117.71 340.38 114.69 321.97 C 113.59 304.98 112.67 287.98 111.79 270.98 C 111.84 260.48 109.32 250.23 107.13 240.02 C 106.54 236.85 105.86 233.59 106.39 230.37 C 106.62 228.83 108.51 229.31 109.55 229.47 C 111.09 230.97 111.48 233.19 112.09 235.17 C 114.67 244.97 117.14 254.86 118.19 264.96 C 119.19 283.31 120.36 301.66 121.59 319.99 C 123.60 333.47 123.57 347.15 123.46 360.74 C 125.74 335.25 127.57 309.65 126.57 284.03 C 126.64 271.64 124.96 259.34 123.81 247.02 C 123.36 236.03 123.72 225.02 123.26 214.03 C 122.80 206.73 121.30 199.56 119.91 192.39 C 118.63 184.71 118.24 176.89 116.52 169.28 C 115.77 166.80 114.55 163.81 116.47 161.52 C 117.75 159.23 120.70 159.17 122.53 157.52 C 124.02 155.98 126.37 155.86 128.24 156.76 C 131.29 158.82 131.88 163.00 135.00 165.00 C 139.08 167.57 142.51 171.15 147.01 173.04 C 152.80 175.64 157.99 179.32 163.33 182.69 C 166.70 184.81 170.54 186.02 173.92 188.13 C 181.42 192.82 189.84 195.67 197.84 199.33 C 204.08 202.19 210.10 205.69 216.83 207.31 C 229.98 210.30 243.01 213.78 255.87 217.81 C 252.96 216.45 249.50 216.08 246.96 214.04 C 244.55 209.46 244.94 204.05 244.34 199.05 C 244.11 194.67 243.44 188.60 248.21 186.33 C 254.13 183.92 259.29 180.11 264.57 176.58 C 264.59 175.96 264.61 174.72 264.63 174.10 C 260.65 174.00 257.33 176.43 253.74 177.75 C 249.21 179.76 244.21 180.51 239.83 182.89 C 236.94 184.55 233.33 185.44 231.49 188.45 C 229.48 191.00 228.13 194.63 224.74 195.64 C 223.01 196.37 221.19 195.85 219.47 195.44 C 219.38 193.59 219.01 191.59 219.99 189.89 C 222.16 185.70 224.76 181.50 228.53 178.57 C 234.48 175.62 240.55 172.71 247.13 171.46 C 232.31 170.05 217.34 168.02 202.46 169.80 C 197.73 170.15 192.62 172.70 188.14 170.09 C 189.67 168.10 191.80 166.73 194.24 166.17 C 206.55 162.85 219.45 163.52 232.00 164.82 C 239.62 165.67 247.29 165.91 254.92 166.69 C 258.82 167.13 263.04 166.68 266.47 164.70 C 267.53 159.68 268.60 154.59 268.51 149.43 C 265.88 150.37 263.60 152.00 261.06 153.13 C 260.31 148.45 264.95 145.66 269.12 146.23 C 269.82 142.04 270.69 137.82 272.50 133.95 C 270.99 132.53 269.43 131.07 267.27 130.84 C 265.69 133.56 265.00 137.28 261.72 138.51 C 261.42 134.56 261.28 129.25 265.18 126.97 C 269.49 125.28 272.89 129.03 275.14 132.17 C 276.37 131.12 278.48 130.61 278.93 128.92 C 278.56 126.41 276.99 124.29 275.78 122.12 C 274.87 120.89 274.03 118.86 272.15 119.29 C 269.02 120.54 266.05 123.73 262.48 121.75 C 262.43 121.12 262.33 119.88 262.29 119.25 M 505.58 170.56 C 495.22 177.80 484.93 185.17 475.13 193.16 C 469.31 198.73 463.30 204.26 456.25 208.26 C 450.35 211.83 443.54 213.38 437.49 216.66 C 416.16 225.48 394.02 233.42 370.86 235.37 C 350.89 235.53 330.92 235.57 310.95 235.52 C 300.25 234.85 289.74 232.51 279.08 231.42 C 271.70 230.22 264.21 229.79 256.87 228.32 C 243.84 225.94 230.48 225.19 217.72 221.46 C 210.21 219.28 202.74 216.85 195.73 213.35 C 185.62 208.36 174.93 204.06 166.19 196.78 C 159.05 191.53 150.78 188.30 143.12 183.95 C 138.44 181.75 135.14 177.55 130.62 175.07 C 130.35 178.21 129.10 181.10 126.41 182.89 C 127.38 187.23 126.47 192.48 130.19 195.69 C 133.20 193.55 139.01 192.51 140.26 197.10 C 140.94 203.25 141.94 209.61 140.29 215.71 C 142.62 212.63 146.20 209.12 150.42 210.65 C 155.23 213.65 155.43 220.00 156.33 225.01 C 158.13 223.00 159.77 220.50 162.44 219.59 C 164.99 219.02 167.71 219.22 170.21 219.96 C 173.35 221.11 174.40 224.64 175.36 227.52 C 176.70 232.46 177.86 237.58 177.45 242.73 C 178.58 236.62 182.04 230.16 188.06 227.72 C 191.62 227.04 195.41 228.63 198.19 230.79 C 201.63 234.60 202.18 240.04 203.50 244.81 C 204.82 239.21 206.86 233.25 211.57 229.59 C 215.13 226.68 220.11 226.96 224.37 227.71 C 231.34 230.05 235.80 236.35 239.78 242.16 C 244.28 248.65 249.38 255.01 251.43 262.79 C 253.22 257.57 255.09 252.09 259.13 248.14 C 263.96 243.51 269.95 240.13 276.29 238.04 C 282.80 235.92 289.13 240.07 293.94 244.06 C 301.21 251.24 308.08 259.18 311.95 268.77 C 313.52 261.37 315.15 253.27 320.79 247.78 C 325.47 242.84 332.50 241.13 339.04 240.56 C 344.22 240.38 347.99 244.58 350.33 248.73 C 353.56 254.44 356.71 260.33 358.24 266.76 C 359.42 255.85 366.10 246.19 374.84 239.85 C 379.92 236.51 386.42 237.31 391.95 238.95 C 397.18 240.54 400.66 244.95 404.70 248.32 C 408.02 243.30 411.59 238.07 416.79 234.85 C 424.54 231.30 434.07 230.84 441.65 235.07 C 442.94 229.26 446.63 223.55 452.57 221.74 C 457.43 220.72 462.54 221.11 467.23 222.76 C 467.28 215.07 467.59 206.60 472.05 200.03 C 475.83 196.52 480.28 191.60 485.96 192.72 C 491.24 194.75 494.36 199.90 495.99 205.07 C 498.84 199.95 502.53 195.36 505.35 190.23 C 508.51 182.91 513.22 176.39 518.06 170.10 C 519.88 167.72 521.10 164.96 522.26 162.22 C 516.99 165.61 510.69 166.89 505.58 170.56 M 130.36 203.40 C 130.66 211.66 131.99 219.81 133.54 227.90 C 134.35 225.64 135.87 223.52 135.69 221.02 C 135.60 213.90 136.37 206.72 135.06 199.66 C 133.45 200.85 131.89 202.11 130.36 203.40 M 475.97 207.85 C 473.37 217.11 474.52 226.84 474.62 236.32 C 477.20 233.28 479.24 229.84 481.75 226.75 C 485.07 222.36 489.21 218.24 490.85 212.87 C 490.79 207.70 488.31 202.35 484.09 199.24 C 480.78 201.37 476.88 203.71 475.97 207.85 M 147.13 217.03 C 143.58 220.75 141.44 225.54 138.95 229.99 C 136.88 233.42 137.23 237.55 136.18 241.30 C 135.71 243.01 133.67 243.24 132.30 243.88 C 132.36 245.06 132.37 246.24 132.57 247.42 C 135.31 251.56 139.95 253.68 143.94 256.38 C 144.75 250.49 148.16 245.01 147.20 238.96 C 147.05 232.68 151.51 226.78 149.55 220.50 C 149.01 219.16 149.17 216.79 147.13 217.03 M 155.41 241.21 C 152.45 249.01 149.98 257.18 150.15 265.61 C 152.70 267.51 155.07 269.70 157.83 271.32 C 160.40 272.30 163.17 272.62 165.73 273.62 C 166.58 268.70 168.12 263.91 170.38 259.46 C 171.38 257.15 173.07 254.84 172.54 252.19 C 171.54 245.44 172.35 238.47 170.15 231.90 C 169.32 229.32 168.75 225.12 165.06 225.63 C 159.86 229.18 157.39 235.45 155.41 241.21 M 450.28 233.23 C 447.20 240.85 448.37 249.22 448.30 257.22 C 450.20 257.94 452.10 258.65 453.98 259.43 C 459.51 254.93 464.01 249.40 468.72 244.10 C 465.24 240.12 467.68 233.90 463.89 230.15 C 459.59 227.42 452.49 228.10 450.28 233.23 M 183.73 242.75 C 181.51 249.31 179.35 255.90 176.32 262.14 C 172.79 269.12 171.45 277.01 171.26 284.77 C 175.16 284.95 179.08 284.57 182.98 284.89 C 185.93 285.45 187.61 288.11 189.18 290.40 C 195.38 287.61 199.13 280.72 198.19 273.99 C 198.71 261.99 199.16 249.69 195.81 238.03 C 195.32 235.21 192.72 233.69 190.02 233.55 C 186.59 235.39 185.14 239.35 183.73 242.75 M 215.73 238.84 C 212.48 244.03 211.90 250.29 210.74 256.18 C 209.85 263.98 209.04 271.80 208.38 279.63 C 206.07 284.74 206.62 290.43 206.13 295.89 C 211.87 298.57 218.74 297.37 224.15 300.89 C 228.72 303.79 234.04 305.09 239.19 306.55 C 241.90 299.05 242.82 291.02 243.63 283.12 C 244.01 280.58 246.40 278.44 245.58 275.75 C 243.70 267.72 241.00 259.66 235.94 253.04 C 232.11 247.92 229.11 242.02 224.03 237.97 C 221.70 235.91 217.28 235.77 215.73 238.84 M 420.58 241.92 C 416.75 244.57 413.89 248.56 411.77 252.67 C 409.06 258.14 411.87 264.02 412.00 269.70 C 415.42 270.15 419.16 271.24 422.41 269.47 C 428.40 266.26 434.65 263.35 439.87 258.91 C 439.86 255.03 439.82 251.10 438.73 247.34 C 438.09 244.73 437.04 241.79 434.41 240.61 C 429.89 239.06 424.88 240.21 420.58 241.92 M 379.80 246.93 C 375.70 249.72 372.38 253.70 369.92 258.00 C 366.30 265.46 365.92 273.92 364.58 281.98 C 364.52 283.95 363.57 286.27 364.89 288.01 C 366.59 290.26 368.35 292.59 370.73 294.17 C 373.80 294.88 376.97 295.11 380.03 295.92 C 384.57 297.41 389.09 295.20 393.60 294.69 C 394.72 289.80 395.90 284.82 398.46 280.45 C 404.69 271.87 403.32 258.72 395.48 251.52 C 391.76 247.06 385.30 245.09 379.80 246.93 M 264.78 255.78 C 259.33 263.34 258.96 273.07 259.21 282.05 C 258.11 290.83 256.66 299.62 256.71 308.50 C 259.20 310.06 262.07 310.64 264.98 310.42 C 277.51 310.20 290.39 311.21 302.50 307.54 C 304.62 304.40 305.55 300.67 307.11 297.26 C 308.34 294.85 307.59 292.11 307.14 289.62 C 306.00 284.42 305.70 279.04 304.08 273.95 C 301.92 267.70 298.17 262.12 293.76 257.24 C 289.96 252.90 285.96 247.78 279.98 246.63 C 274.27 248.14 268.70 251.28 264.78 255.78 M 335.34 250.09 C 331.18 250.89 326.95 252.97 324.96 256.90 C 321.58 263.40 320.81 270.79 319.50 277.89 C 318.15 284.53 318.01 291.33 317.53 298.05 C 318.47 300.24 318.92 303.99 322.05 303.80 C 327.36 303.76 332.67 303.24 337.98 303.19 C 342.18 302.95 346.47 303.86 350.56 302.54 C 351.47 299.78 351.57 296.87 351.93 294.01 C 352.29 291.41 354.44 289.16 353.75 286.43 C 351.15 274.13 348.51 261.38 341.03 250.97 C 339.81 248.90 337.22 249.65 335.34 250.09 M 134.54 334.96 C 134.50 344.01 132.69 352.94 132.61 361.98 C 136.48 360.78 140.51 360.29 144.44 359.33 C 146.12 355.42 146.34 351.12 146.67 346.93 C 145.82 343.33 145.44 339.66 145.27 335.96 C 144.61 333.13 143.19 329.51 139.79 329.31 C 136.68 328.71 134.08 332.02 134.54 334.96 M 161.20 341.23 C 158.35 345.71 156.71 350.82 154.74 355.73 C 152.39 361.20 152.95 367.25 152.26 373.03 C 153.68 375.63 155.98 379.57 159.51 378.60 C 162.32 377.51 165.44 376.81 167.78 374.84 C 170.13 372.83 168.83 369.53 169.38 366.89 C 169.56 363.55 171.92 360.51 171.00 357.11 C 170.37 350.67 169.68 344.16 167.25 338.11 C 165.09 338.76 162.39 339.00 161.20 341.23 M 182.33 353.24 C 178.37 360.93 176.69 369.49 175.41 377.96 C 177.57 382.69 179.93 387.35 182.43 391.91 C 186.10 391.53 189.18 389.15 192.05 387.03 C 194.84 382.23 195.69 376.63 197.74 371.51 C 198.96 368.49 199.37 365.18 199.30 361.93 C 197.58 355.67 195.39 349.42 191.75 343.98 C 187.55 345.71 184.59 349.43 182.33 353.24 M 214.17 355.22 C 209.79 360.71 207.80 367.58 204.97 373.90 C 202.89 378.44 202.15 383.42 200.39 388.08 C 201.54 391.41 204.33 393.87 206.47 396.60 C 211.40 397.11 216.08 394.94 220.00 392.14 C 221.59 388.09 221.14 383.45 222.38 379.24 C 223.13 374.43 225.45 369.94 225.85 365.10 C 224.41 361.35 224.05 357.08 222.03 353.62 C 219.38 353.47 216.07 352.87 214.17 355.22 M 243.45 357.39 C 238.94 360.07 234.61 363.82 232.97 368.99 C 230.24 377.00 228.29 385.37 228.17 393.86 C 230.49 398.15 233.53 403.51 239.00 403.76 C 242.25 402.90 244.30 399.81 247.18 398.20 C 249.37 396.57 252.68 395.55 253.59 392.79 C 253.74 386.11 256.08 379.71 256.13 373.02 C 254.31 368.58 251.58 364.56 249.78 360.10 C 248.84 357.62 245.85 356.61 243.45 357.39 M 270.62 362.71 C 267.95 363.97 266.92 366.87 266.17 369.51 C 265.55 371.80 263.26 373.40 263.44 375.94 C 263.17 383.94 259.02 392.31 263.09 399.97 C 264.28 401.48 265.68 402.79 267.02 404.17 C 269.76 401.42 272.47 398.52 274.04 394.91 C 278.23 387.35 278.40 378.46 281.41 370.46 C 281.78 368.57 283.82 365.85 281.50 364.50 C 278.63 361.72 274.24 361.60 270.62 362.71 M 334.45 364.70 C 334.35 365.87 334.08 367.11 334.74 368.19 C 336.26 371.21 336.85 374.54 337.48 377.84 C 341.18 374.71 345.33 372.12 348.83 368.76 C 348.80 368.41 348.72 367.70 348.69 367.35 C 344.80 363.91 339.31 363.54 334.45 364.70 M 132.67 370.52 C 134.41 374.52 137.42 377.80 139.36 381.71 C 143.54 387.72 148.97 392.86 155.02 396.97 C 159.38 399.88 162.45 404.51 167.38 406.59 C 177.82 412.69 190.22 413.36 202.00 413.83 C 211.68 413.64 221.33 414.54 231.01 414.33 C 242.01 413.79 252.79 411.42 263.61 409.53 C 260.80 406.85 257.99 404.10 256.07 400.69 C 252.29 402.94 248.85 405.67 245.49 408.48 C 242.53 410.95 238.27 412.08 234.69 410.27 C 229.31 408.63 225.67 404.07 222.90 399.44 C 217.05 402.67 210.11 405.76 203.40 403.63 C 199.12 400.84 196.23 396.30 193.66 391.99 C 189.76 394.78 185.39 399.04 180.17 397.11 C 174.34 394.00 174.15 386.25 169.90 381.82 C 164.75 382.99 159.59 387.52 154.20 384.68 C 147.88 381.28 144.28 374.10 143.40 367.17 C 139.80 368.22 136.38 369.85 132.67 370.52 M 310.56 370.97 C 310.53 375.00 310.82 379.04 310.81 383.08 C 310.82 386.71 309.36 390.12 308.96 393.71 C 314.45 390.92 320.10 388.44 325.41 385.33 C 328.16 383.85 328.43 380.33 329.47 377.70 C 330.67 373.33 326.98 369.94 324.15 367.24 C 319.44 367.69 314.68 368.52 310.56 370.97 M 287.81 372.82 C 285.43 379.77 284.40 387.16 281.55 393.95 C 283.76 395.82 285.10 399.14 288.16 399.74 C 292.80 400.14 297.78 399.56 301.57 396.62 C 301.96 389.99 304.65 383.65 303.68 376.94 C 303.30 374.16 304.41 369.59 300.98 368.47 C 296.27 368.61 292.37 371.89 287.81 372.82 M 277.20 400.13 C 275.16 403.14 273.36 406.41 270.50 408.73 C 274.55 407.62 278.72 407.04 282.83 406.17 C 280.76 404.34 278.97 402.23 277.20 400.13 Z" />
<path fill="#010101" opacity="1.00" d=" M 499.09 121.86 C 500.95 120.12 503.63 120.59 505.97 120.44 C 510.47 120.28 515.02 120.87 519.17 122.73 C 526.16 125.99 533.65 128.91 538.81 134.93 C 529.21 129.65 519.38 123.08 508.03 123.08 C 505.03 122.83 502.00 122.72 499.09 121.86 Z" />
<path fill="#010101" opacity="1.00" d=" M 314.91 146.97 C 316.71 144.50 318.58 140.88 322.18 141.18 C 324.51 141.42 327.72 141.51 328.81 144.00 C 330.36 148.13 330.55 152.62 330.30 156.98 C 328.89 153.23 327.75 149.39 326.24 145.68 C 324.73 144.88 322.31 144.62 321.33 146.34 C 319.14 148.90 317.78 152.04 315.68 154.67 C 314.63 155.98 312.79 157.17 311.31 155.73 C 310.82 152.36 313.29 149.65 314.91 146.97 Z" />
<path fill="#010101" opacity="1.00" d=" M 495.72 143.41 C 504.31 141.20 513.24 140.88 522.06 141.46 C 527.31 141.92 532.48 143.43 537.10 145.98 C 543.63 149.57 550.46 152.89 555.87 158.13 C 566.20 168.06 575.05 180.17 578.57 194.25 C 579.54 198.41 580.98 203.39 578.07 207.11 C 574.37 203.29 573.10 198.00 570.68 193.41 C 563.76 178.22 553.43 163.58 538.28 155.76 C 534.12 153.30 529.86 150.81 525.07 149.85 C 515.47 147.80 505.61 148.99 495.99 150.13 C 493.50 150.24 488.73 150.84 489.09 147.06 C 489.31 143.84 493.42 144.15 495.72 143.41 Z" />
<path fill="#010101" opacity="1.00" d=" M 108.84 147.83 C 110.92 145.06 113.92 143.07 117.11 141.79 C 120.66 140.64 124.22 142.20 127.53 143.36 C 132.03 145.02 136.94 143.59 141.50 144.89 C 150.78 147.38 156.81 155.57 165.19 159.79 C 173.58 164.18 181.77 168.89 189.80 173.90 C 187.34 173.14 184.86 172.46 182.50 171.43 C 171.83 166.58 161.02 161.61 151.97 154.03 C 147.74 150.34 142.53 147.82 136.93 147.15 C 140.35 150.07 145.13 151.58 147.16 155.89 C 151.86 156.87 154.77 160.84 158.29 163.73 C 165.11 169.74 172.71 174.80 180.35 179.70 C 185.06 182.83 189.66 186.42 195.25 187.85 C 203.27 190.01 210.95 193.20 218.50 196.63 C 220.98 197.86 223.90 198.24 226.05 200.11 C 224.09 200.50 222.01 200.75 220.09 200.02 C 214.07 198.15 208.37 195.43 202.42 193.37 C 196.64 191.28 190.32 190.43 185.18 186.85 C 172.97 178.61 159.97 171.09 150.02 160.03 C 148.96 158.97 148.41 157.36 147.04 156.66 C 144.68 157.62 142.07 159.28 139.65 157.40 C 133.84 153.75 127.73 150.40 120.90 149.19 C 118.29 148.73 116.32 151.01 114.90 152.87 C 108.40 162.97 104.08 174.89 104.78 187.03 C 105.77 194.14 109.66 200.41 114.16 205.85 C 117.40 209.86 121.29 214.33 120.64 219.88 C 120.80 221.96 119.44 223.52 118.02 224.85 C 116.98 223.92 115.84 223.06 115.17 221.81 C 110.80 213.82 103.37 207.88 99.68 199.46 C 98.09 195.13 95.96 190.78 96.36 186.03 C 95.92 172.31 101.10 158.97 108.84 147.83 Z" />
<path fill="#010101" opacity="1.00" d=" M 89.34 170.33 C 91.43 167.19 92.65 163.56 94.90 160.53 C 94.09 167.81 89.96 174.10 88.20 181.12 C 86.15 188.88 84.52 196.91 85.54 204.96 C 86.62 212.61 86.32 220.35 86.27 228.05 C 86.27 231.34 85.22 234.51 83.94 237.50 C 82.43 236.47 81.77 234.67 81.75 232.91 C 81.62 226.93 81.60 220.94 81.34 214.97 C 80.72 206.34 79.55 197.45 81.99 188.99 C 83.75 182.53 85.70 176.02 89.34 170.33 Z" />
<path fill="#010101" opacity="1.00" d=" M 425.28 174.27 C 430.17 167.59 437.50 160.13 446.59 162.08 C 446.56 162.67 446.48 163.83 446.45 164.42 C 443.07 165.13 439.48 165.58 436.60 167.63 C 431.50 171.19 428.56 176.88 424.04 181.03 C 420.64 184.24 416.76 187.84 411.78 187.85 C 415.25 182.38 421.64 179.65 425.28 174.27 Z" />
<path fill="#ffffff" opacity="1.00" d=" M 505.58 170.56 C 510.69 166.89 516.99 165.61 522.26 162.22 C 521.10 164.96 519.88 167.72 518.06 170.10 C 513.22 176.39 508.51 182.91 505.35 190.23 C 502.53 195.36 498.84 199.95 495.99 205.07 C 494.36 199.90 491.24 194.75 485.96 192.72 C 480.28 191.60 475.83 196.52 472.05 200.03 C 467.59 206.60 467.28 215.07 467.23 222.76 C 462.54 221.11 457.43 220.72 452.57 221.74 C 446.63 223.55 442.94 229.26 441.65 235.07 C 434.07 230.84 424.54 231.30 416.79 234.85 C 411.59 238.07 408.02 243.30 404.70 248.32 C 400.66 244.95 397.18 240.54 391.95 238.95 C 386.42 237.31 379.92 236.51 374.84 239.85 C 366.10 246.19 359.42 255.85 358.24 266.76 C 356.71 260.33 353.56 254.44 350.33 248.73 C 347.99 244.58 344.22 240.38 339.04 240.56 C 332.50 241.13 325.47 242.84 320.79 247.78 C 315.15 253.27 313.52 261.37 311.95 268.77 C 308.08 259.18 301.21 251.24 293.94 244.06 C 289.13 240.07 282.80 235.92 276.29 238.04 C 269.95 240.13 263.96 243.51 259.13 248.14 C 255.09 252.09 253.22 257.57 251.43 262.79 C 249.38 255.01 244.28 248.65 239.78 242.16 C 235.80 236.35 231.34 230.05 224.37 227.71 C 220.11 226.96 215.13 226.68 211.57 229.59 C 206.86 233.25 204.82 239.21 203.50 244.81 C 202.18 240.04 201.63 234.60 198.19 230.79 C 195.41 228.63 191.62 227.04 188.06 227.72 C 182.04 230.16 178.58 236.62 177.45 242.73 C 177.86 237.58 176.70 232.46 175.36 227.52 C 174.40 224.64 173.35 221.11 170.21 219.96 C 167.71 219.22 164.99 219.02 162.44 219.59 C 159.77 220.50 158.13 223.00 156.33 225.01 C 155.43 220.00 155.23 213.65 150.42 210.65 C 146.20 209.12 142.62 212.63 140.29 215.71 C 141.94 209.61 140.94 203.25 140.26 197.10 C 139.01 192.51 133.20 193.55 130.19 195.69 C 126.47 192.48 127.38 187.23 126.41 182.89 C 129.10 181.10 130.35 178.21 130.62 175.07 C 135.14 177.55 138.44 181.75 143.12 183.95 C 150.78 188.30 159.05 191.53 166.19 196.78 C 174.93 204.06 185.62 208.36 195.73 213.35 C 202.74 216.85 210.21 219.28 217.72 221.46 C 230.48 225.19 243.84 225.94 256.87 228.32 C 264.21 229.79 271.70 230.22 279.08 231.42 C 289.74 232.51 300.25 234.85 310.95 235.52 C 330.92 235.57 350.89 235.53 370.86 235.37 C 394.02 233.42 416.16 225.48 437.49 216.66 C 443.54 213.38 450.35 211.83 456.25 208.26 C 463.30 204.26 469.31 198.73 475.13 193.16 C 484.93 185.17 495.22 177.80 505.58 170.56 Z" />
<path fill="#010101" opacity="1.00" d=" M 323.04 170.08 C 323.01 167.06 326.70 166.82 328.95 166.83 C 336.02 167.29 342.89 169.29 349.65 171.29 C 356.63 173.83 364.05 175.12 370.84 178.19 C 377.55 181.30 379.84 189.19 386.07 192.89 C 389.27 194.79 392.62 197.61 391.76 201.79 C 386.84 202.22 382.11 199.61 378.34 196.67 C 374.49 193.47 372.42 188.65 368.47 185.57 C 364.82 183.37 360.59 182.41 356.55 181.22 C 357.00 191.11 358.24 201.01 357.64 210.92 C 357.46 214.98 350.97 216.01 349.70 211.95 C 349.87 201.13 349.14 190.36 348.38 179.59 C 341.58 176.72 334.32 175.22 327.08 173.95 C 325.05 173.73 322.75 172.45 323.04 170.08 Z" />
<path fill="#010101" opacity="1.00" d=" M 554.08 181.87 C 557.47 185.77 559.47 190.62 561.60 195.27 C 565.59 205.37 568.51 216.07 568.58 226.99 C 568.95 237.51 569.04 248.15 566.52 258.44 C 564.44 267.08 563.58 276.45 558.41 283.95 C 558.68 279.28 560.10 274.80 561.22 270.29 C 563.71 259.67 566.42 248.97 566.41 238.00 C 566.43 225.65 565.71 213.10 561.46 201.39 C 559.49 194.70 555.98 188.58 554.08 181.87 Z" />
<path fill="#010101" opacity="1.00" d=" M 296.53 191.40 C 299.13 189.13 302.89 190.97 305.98 190.75 C 311.88 190.28 317.14 193.29 322.77 194.46 C 326.04 195.29 329.55 195.67 332.44 197.56 C 335.20 199.39 335.83 202.94 336.51 205.95 C 335.43 208.57 334.02 212.79 330.35 211.77 C 329.26 210.82 328.45 209.62 327.38 208.66 C 317.76 206.25 308.08 202.25 297.98 203.76 C 296.11 204.10 294.47 203.09 293.68 201.43 C 292.91 197.91 293.87 193.92 296.53 191.40 Z" />
<path fill="#ffffff" opacity="1.00" d=" M 130.36 203.40 C 131.89 202.11 133.45 200.85 135.06 199.66 C 136.37 206.72 135.60 213.90 135.69 221.02 C 135.87 223.52 134.35 225.64 133.54 227.90 C 131.99 219.81 130.66 211.66 130.36 203.40 Z" />
<path fill="#ffffff" opacity="1.00" d=" M 475.97 207.85 C 476.88 203.71 480.78 201.37 484.09 199.24 C 488.31 202.35 490.79 207.70 490.85 212.87 C 489.21 218.24 485.07 222.36 481.75 226.75 C 479.24 229.84 477.20 233.28 474.62 236.32 C 474.52 226.84 473.37 217.11 475.97 207.85 Z" />
<path fill="#ffffff" opacity="1.00" d=" M 147.13 217.03 C 149.17 216.79 149.01 219.16 149.55 220.50 C 151.51 226.78 147.05 232.68 147.20 238.96 C 148.16 245.01 144.75 250.49 143.94 256.38 C 139.95 253.68 135.31 251.56 132.57 247.42 C 132.37 246.24 132.36 245.06 132.30 243.88 C 133.67 243.24 135.71 243.01 136.18 241.30 C 137.23 237.55 136.88 233.42 138.95 229.99 C 141.44 225.54 143.58 220.75 147.13 217.03 Z" />
<path fill="#010101" opacity="1.00" d=" M 326.69 218.72 C 329.04 219.12 331.39 219.61 333.73 220.10 C 338.55 221.22 343.29 218.55 348.15 219.58 C 345.88 221.88 342.43 221.96 339.44 222.56 C 335.00 223.06 329.32 223.02 326.69 218.72 Z" />
<path fill="#ffffff" opacity="1.00" d=" M 155.41 241.21 C 157.39 235.45 159.86 229.18 165.06 225.63 C 168.75 225.12 169.32 229.32 170.15 231.90 C 172.35 238.47 171.54 245.44 172.54 252.19 C 173.07 254.84 171.38 257.15 170.38 259.46 C 168.12 263.91 166.58 268.70 165.73 273.62 C 163.17 272.62 160.40 272.30 157.83 271.32 C 155.07 269.70 152.70 267.51 150.15 265.61 C 149.98 257.18 152.45 249.01 155.41 241.21 Z" />
<path fill="#ffffff" opacity="1.00" d=" M 450.28 233.23 C 452.49 228.10 459.59 227.42 463.89 230.15 C 467.68 233.90 465.24 240.12 468.72 244.10 C 464.01 249.40 459.51 254.93 453.98 259.43 C 452.10 258.65 450.20 257.94 448.30 257.22 C 448.37 249.22 447.20 240.85 450.28 233.23 Z" />
<path fill="#ffffff" opacity="1.00" d=" M 183.73 242.75 C 185.14 239.35 186.59 235.39 190.02 233.55 C 192.72 233.69 195.32 235.21 195.81 238.03 C 199.16 249.69 198.71 261.99 198.19 273.99 C 199.13 280.72 195.38 287.61 189.18 290.40 C 187.61 288.11 185.93 285.45 182.98 284.89 C 179.08 284.57 175.16 284.95 171.26 284.77 C 171.45 277.01 172.79 269.12 176.32 262.14 C 179.35 255.90 181.51 249.31 183.73 242.75 Z" />
<path fill="#010101" opacity="1.00" d=" M 519.66 255.65 C 525.10 249.21 531.48 243.22 534.47 235.14 C 533.93 239.42 532.55 243.56 530.20 247.20 C 524.66 256.08 517.83 264.08 510.48 271.50 C 507.29 274.69 504.24 278.44 499.70 279.69 C 500.26 276.17 502.91 273.70 505.17 271.18 C 509.97 265.97 515.18 261.14 519.66 255.65 Z" />
<path fill="#ffffff" opacity="1.00" d=" M 215.73 238.84 C 217.28 235.77 221.70 235.91 224.03 237.97 C 229.11 242.02 232.11 247.92 235.94 253.04 C 241.00 259.66 243.70 267.72 245.58 275.75 C 246.40 278.44 244.01 280.58 243.63 283.12 C 242.82 291.02 241.90 299.05 239.19 306.55 C 234.04 305.09 228.72 303.79 224.15 300.89 C 218.74 297.37 211.87 298.57 206.13 295.89 C 206.62 290.43 206.07 284.74 208.38 279.63 C 209.04 271.80 209.85 263.98 210.74 256.18 C 211.90 250.29 212.48 244.03 215.73 238.84 Z" />
<path fill="#ffffff" opacity="1.00" d=" M 420.58 241.92 C 424.88 240.21 429.89 239.06 434.41 240.61 C 437.04 241.79 438.09 244.73 438.73 247.34 C 439.82 251.10 439.86 255.03 439.87 258.91 C 434.65 263.35 428.40 266.26 422.41 269.47 C 419.16 271.24 415.42 270.15 412.00 269.70 C 411.87 264.02 409.06 258.14 411.77 252.67 C 413.89 248.56 416.75 244.57 420.58 241.92 Z" />
<path fill="#ffffff" opacity="1.00" d=" M 379.80 246.93 C 385.30 245.09 391.76 247.06 395.48 251.52 C 403.32 258.72 404.69 271.87 398.46 280.45 C 395.90 284.82 394.72 289.80 393.60 294.69 C 389.09 295.20 384.57 297.41 380.03 295.92 C 376.97 295.11 373.80 294.88 370.73 294.17 C 368.35 292.59 366.59 290.26 364.89 288.01 C 363.57 286.27 364.52 283.95 364.58 281.98 C 365.92 273.92 366.30 265.46 369.92 258.00 C 372.38 253.70 375.70 249.72 379.80 246.93 Z" />
<path fill="#ffffff" opacity="1.00" d=" M 264.78 255.78 C 268.70 251.28 274.27 248.14 279.98 246.63 C 285.96 247.78 289.96 252.90 293.76 257.24 C 298.17 262.12 301.92 267.70 304.08 273.95 C 305.70 279.04 306.00 284.42 307.14 289.62 C 307.59 292.11 308.34 294.85 307.11 297.26 C 305.55 300.67 304.62 304.40 302.50 307.54 C 290.39 311.21 277.51 310.20 264.98 310.42 C 262.07 310.64 259.20 310.06 256.71 308.50 C 256.66 299.62 258.11 290.83 259.21 282.05 C 258.96 273.07 259.33 263.34 264.78 255.78 Z" />
<path fill="#ffffff" opacity="1.00" d=" M 335.34 250.09 C 337.22 249.65 339.81 248.90 341.03 250.97 C 348.51 261.38 351.15 274.13 353.75 286.43 C 354.44 289.16 352.29 291.41 351.93 294.01 C 351.57 296.87 351.47 299.78 350.56 302.54 C 346.47 303.86 342.18 302.95 337.98 303.19 C 332.67 303.24 327.36 303.76 322.05 303.80 C 318.92 303.99 318.47 300.24 317.53 298.05 C 318.01 291.33 318.15 284.53 319.50 277.89 C 320.81 270.79 321.58 263.40 324.96 256.90 C 326.95 252.97 331.18 250.89 335.34 250.09 Z" />
<path fill="#010101" opacity="1.00" d=" M 479.67 276.51 C 482.83 267.95 486.24 258.80 493.74 253.06 C 493.11 256.54 491.17 259.55 489.68 262.69 C 486.92 268.22 485.38 274.23 483.09 279.94 C 475.43 300.17 463.71 318.57 450.91 335.90 C 443.25 346.43 434.10 355.73 424.94 364.94 C 419.12 370.55 413.56 376.62 406.72 381.00 C 407.59 379.20 408.62 377.46 409.97 375.97 C 417.31 367.64 424.32 359.02 431.78 350.79 C 444.70 337.01 455.61 321.47 465.34 305.32 C 470.99 296.18 475.64 286.46 479.67 276.51 Z" />
<path fill="#010101" opacity="1.00" d=" M 497.18 298.17 C 498.41 295.23 499.56 292.14 501.82 289.82 C 501.71 292.04 501.32 294.24 500.57 296.34 C 497.56 305.43 494.42 314.47 491.40 323.56 C 484.54 344.08 472.76 362.57 459.48 379.51 C 452.58 388.48 444.07 396.00 434.95 402.63 C 446.78 390.40 457.25 376.89 466.93 362.91 C 473.74 352.70 480.17 342.14 484.79 330.74 C 489.40 320.07 492.74 308.91 497.18 298.17 Z" />
<path fill="#010101" opacity="1.00" d=" M 445.03 305.02 C 449.04 301.39 453.32 297.25 458.90 296.41 C 458.00 298.24 456.69 299.82 455.24 301.23 C 450.13 306.13 445.67 311.65 440.73 316.73 C 433.15 325.14 424.47 332.54 417.56 341.56 C 408.48 352.12 398.55 361.91 389.37 372.39 C 383.87 377.96 380.49 385.35 374.36 390.36 C 369.20 394.53 364.49 399.22 359.20 403.23 C 352.42 408.23 344.65 411.61 337.15 415.35 C 330.93 418.34 324.38 421.18 317.36 421.33 C 316.49 418.17 319.04 415.96 321.42 414.46 C 333.85 406.68 348.43 402.41 359.46 392.44 C 363.21 388.84 367.43 385.78 371.21 382.21 C 374.86 378.77 377.29 374.32 380.57 370.57 C 390.28 359.96 400.41 349.75 410.34 339.36 C 420.64 326.67 433.67 316.68 445.03 305.02 Z" />
<path fill="#ffffff" opacity="1.00" d=" M 134.54 334.96 C 134.08 332.02 136.68 328.71 139.79 329.31 C 143.19 329.51 144.61 333.13 145.27 335.96 C 145.44 339.66 145.82 343.33 146.67 346.93 C 146.34 351.12 146.12 355.42 144.44 359.33 C 140.51 360.29 136.48 360.78 132.61 361.98 C 132.69 352.94 134.50 344.01 134.54 334.96 Z" />
<path fill="#ffffff" opacity="1.00" d=" M 161.20 341.23 C 162.39 339.00 165.09 338.76 167.25 338.11 C 169.68 344.16 170.37 350.67 171.00 357.11 C 171.92 360.51 169.56 363.55 169.38 366.89 C 168.83 369.53 170.13 372.83 167.78 374.84 C 165.44 376.81 162.32 377.51 159.51 378.60 C 155.98 379.57 153.68 375.63 152.26 373.03 C 152.95 367.25 152.39 361.20 154.74 355.73 C 156.71 350.82 158.35 345.71 161.20 341.23 Z" />
<path fill="#ffffff" opacity="1.00" d=" M 182.33 353.24 C 184.59 349.43 187.55 345.71 191.75 343.98 C 195.39 349.42 197.58 355.67 199.30 361.93 C 199.37 365.18 198.96 368.49 197.74 371.51 C 195.69 376.63 194.84 382.23 192.05 387.03 C 189.18 389.15 186.10 391.53 182.43 391.91 C 179.93 387.35 177.57 382.69 175.41 377.96 C 176.69 369.49 178.37 360.93 182.33 353.24 Z" />
<path fill="#ffffff" opacity="1.00" d=" M 214.17 355.22 C 216.07 352.87 219.38 353.47 222.03 353.62 C 224.05 357.08 224.41 361.35 225.85 365.10 C 225.45 369.94 223.13 374.43 222.38 379.24 C 221.14 383.45 221.59 388.09 220.00 392.14 C 216.08 394.94 211.40 397.11 206.47 396.60 C 204.33 393.87 201.54 391.41 200.39 388.08 C 202.15 383.42 202.89 378.44 204.97 373.90 C 207.80 367.58 209.79 360.71 214.17 355.22 Z" />
<path fill="#ffffff" opacity="1.00" d=" M 243.45 357.39 C 245.85 356.61 248.84 357.62 249.78 360.10 C 251.58 364.56 254.31 368.58 256.13 373.02 C 256.08 379.71 253.74 386.11 253.59 392.79 C 252.68 395.55 249.37 396.57 247.18 398.20 C 244.30 399.81 242.25 402.90 239.00 403.76 C 233.53 403.51 230.49 398.15 228.17 393.86 C 228.29 385.37 230.24 377.00 232.97 368.99 C 234.61 363.82 238.94 360.07 243.45 357.39 Z" />
<path fill="#ffffff" opacity="1.00" d=" M 270.62 362.71 C 274.24 361.60 278.63 361.72 281.50 364.50 C 283.82 365.85 281.78 368.57 281.41 370.46 C 278.40 378.46 278.23 387.35 274.04 394.91 C 272.47 398.52 269.76 401.42 267.02 404.17 C 265.68 402.79 264.28 401.48 263.09 399.97 C 259.02 392.31 263.17 383.94 263.44 375.94 C 263.26 373.40 265.55 371.80 266.17 369.51 C 266.92 366.87 267.95 363.97 270.62 362.71 Z" />
<path fill="#ffffff" opacity="1.00" d=" M 334.45 364.70 C 339.31 363.54 344.80 363.91 348.69 367.35 C 348.72 367.70 348.80 368.41 348.83 368.76 C 345.33 372.12 341.18 374.71 337.48 377.84 C 336.85 374.54 336.26 371.21 334.74 368.19 C 334.08 367.11 334.35 365.87 334.45 364.70 Z" />
<path fill="#ffffff" opacity="1.00" d=" M 132.67 370.52 C 136.38 369.85 139.80 368.22 143.40 367.17 C 144.28 374.10 147.88 381.28 154.20 384.68 C 159.59 387.52 164.75 382.99 169.90 381.82 C 174.15 386.25 174.34 394.00 180.17 397.11 C 185.39 399.04 189.76 394.78 193.66 391.99 C 196.23 396.30 199.12 400.84 203.40 403.63 C 210.11 405.76 217.05 402.67 222.90 399.44 C 225.67 404.07 229.31 408.63 234.69 410.27 C 238.27 412.08 242.53 410.95 245.49 408.48 C 248.85 405.67 252.29 402.94 256.07 400.69 C 257.99 404.10 260.80 406.85 263.61 409.53 C 252.79 411.42 242.01 413.79 231.01 414.33 C 221.33 414.54 211.68 413.64 202.00 413.83 C 190.22 413.36 177.82 412.69 167.38 406.59 C 162.45 404.51 159.38 399.88 155.02 396.97 C 148.97 392.86 143.54 387.72 139.36 381.71 C 137.42 377.80 134.41 374.52 132.67 370.52 Z" />
<path fill="#ffffff" opacity="1.00" d=" M 310.56 370.97 C 314.68 368.52 319.44 367.69 324.15 367.24 C 326.98 369.94 330.67 373.33 329.47 377.70 C 328.43 380.33 328.16 383.85 325.41 385.33 C 320.10 388.44 314.45 390.92 308.96 393.71 C 309.36 390.12 310.82 386.71 310.81 383.08 C 310.82 379.04 310.53 375.00 310.56 370.97 Z" />
<path fill="#ffffff" opacity="1.00" d=" M 287.81 372.82 C 292.37 371.89 296.27 368.61 300.98 368.47 C 304.41 369.59 303.30 374.16 303.68 376.94 C 304.65 383.65 301.96 389.99 301.57 396.62 C 297.78 399.56 292.80 400.14 288.16 399.74 C 285.10 399.14 283.76 395.82 281.55 393.95 C 284.40 387.16 285.43 379.77 287.81 372.82 Z" />
<path fill="#010101" opacity="1.00" d=" M 100.66 373.65 C 103.08 372.13 106.35 372.71 107.25 375.67 C 108.20 383.08 107.03 390.61 107.90 398.04 C 108.84 404.52 110.71 411.00 114.57 416.38 C 117.76 420.77 119.65 426.61 124.79 429.16 C 129.47 431.19 134.51 432.33 139.59 432.61 C 142.24 432.92 142.37 436.98 140.00 437.90 C 134.97 440.06 129.38 438.17 124.35 436.89 C 119.27 435.60 115.12 431.98 112.48 427.54 C 109.68 422.74 106.20 418.31 103.88 413.24 C 100.92 405.89 99.53 397.92 99.70 390.00 C 99.88 384.54 99.03 378.95 100.66 373.65 Z" />
<path fill="#010101" opacity="1.00" d=" M 411.94 385.92 C 413.68 384.93 416.45 383.14 417.73 385.75 C 409.81 391.67 401.64 397.28 392.97 402.05 C 384.29 406.83 375.79 412.08 366.47 415.56 C 357.94 418.52 349.05 420.52 340.05 421.23 C 337.62 421.41 335.23 420.98 332.88 420.47 C 340.08 416.34 348.59 415.83 356.42 413.51 C 365.67 411.40 374.09 406.91 382.38 402.46 C 392.29 397.05 402.19 391.61 411.94 385.92 Z" />
<path fill="#ffffff" opacity="1.00" d=" M 277.20 400.13 C 278.97 402.23 280.76 404.34 282.83 406.17 C 278.72 407.04 274.55 407.62 270.50 408.73 C 273.36 406.41 275.16 403.14 277.20 400.13 Z" />
<path fill="#010101" opacity="1.00" d=" M 138.11 415.13 C 140.08 415.97 141.94 417.05 143.71 418.27 C 154.13 425.74 166.72 429.52 179.23 431.63 C 188.97 431.95 198.85 432.26 208.45 430.28 C 208.48 431.42 209.36 433.19 207.78 433.71 C 201.29 436.59 193.97 436.39 187.03 437.19 C 176.81 437.00 166.71 434.57 157.18 430.96 C 149.46 427.93 141.41 423.11 138.11 415.13 Z" />
<path fill="#010101" opacity="1.00" d=" M 318.44 438.65 C 329.67 435.90 337.67 426.10 349.05 423.77 C 351.72 422.80 354.14 426.89 351.32 428.20 C 342.55 431.46 335.85 438.26 327.74 442.69 C 318.53 447.29 307.70 448.83 297.67 446.22 C 292.17 444.74 285.68 443.83 282.06 438.94 C 287.77 435.70 294.38 438.16 300.34 439.25 C 306.30 440.73 312.58 440.41 318.44 438.65 Z" />
<path fill="#010101" opacity="1.00" d=" M 276.92 434.86 C 279.28 433.61 281.41 431.94 283.93 430.99 C 283.02 435.56 278.52 437.80 274.88 439.96 C 266.94 443.96 258.27 446.29 249.73 448.62 C 240.00 450.78 229.87 453.80 219.91 451.29 C 232.48 447.71 245.53 446.02 257.99 442.01 C 264.39 439.88 270.98 438.14 276.92 434.86 Z" />
<path fill="#010101" opacity="1.00" d=" M 228.04 443.22 C 236.10 441.98 244.17 440.55 252.06 438.43 C 249.87 439.72 247.75 441.18 245.33 442.00 C 232.31 446.13 218.52 447.25 204.93 446.60 C 200.05 446.44 195.34 445.09 190.60 444.06 C 186.11 443.00 181.50 442.24 177.24 440.39 C 178.96 439.51 180.91 439.51 182.77 439.86 C 193.14 441.48 203.35 444.96 213.99 444.10 C 218.65 443.49 223.39 443.99 228.04 443.22 Z" />
<path fill="#010101" opacity="1.00" d=" M 136.98 443.99 C 140.51 446.09 143.59 448.91 147.36 450.63 C 153.29 453.39 159.77 454.90 166.29 455.33 C 176.08 456.08 185.85 453.19 195.62 454.84 C 194.65 457.12 192.02 457.30 189.95 457.93 C 177.16 461.04 163.31 461.74 150.74 457.26 C 144.65 455.04 138.74 450.45 136.98 443.99 Z" />
<path fill="#010101" opacity="1.00" d=" M 110.23 450.35 C 114.62 450.71 118.54 452.86 122.58 454.43 C 135.20 459.61 148.03 464.37 161.22 467.91 C 174.49 471.54 188.32 472.16 202.00 472.40 C 208.08 472.50 214.17 471.84 220.06 470.33 C 223.07 469.56 226.63 468.86 229.18 471.15 C 223.29 472.01 218.10 475.17 212.27 476.25 C 207.60 477.45 202.76 477.31 197.98 477.46 C 183.91 477.52 169.69 476.62 156.07 472.79 C 145.47 469.83 135.08 466.13 124.84 462.09 C 120.39 460.13 115.65 458.38 112.07 454.98 C 110.71 453.81 110.39 452.02 110.23 450.35 Z" />
</svg>
