<?xml version="1.0" encoding="UTF-8" ?>
<!DOCTYPE svg PUBLIC "-//W3C//DTD SVG 1.1//EN" "http://www.w3.org/Graphics/SVG/1.1/DTD/svg11.dtd">
<svg width="962pt" height="773pt" viewBox="0 0 962 773" version="1.1" xmlns="http://www.w3.org/2000/svg">
<path fill="#ffffff" opacity="1.00" d=" M 0.00 0.00 L 962.00 0.00 L 962.00 773.00 L 0.00 773.00 L 0.00 0.00 M 321.25 17.15 C 318.12 17.83 314.70 20.41 311.74 17.95 C 294.89 19.39 277.85 24.77 264.69 35.70 C 263.06 37.15 260.75 37.08 258.75 37.59 C 227.88 43.43 199.85 59.78 176.94 80.91 C 128.40 125.32 98.30 185.86 49.89 230.38 C 49.05 224.68 49.10 218.91 48.89 213.17 C 48.63 210.27 44.25 209.85 42.93 212.17 C 42.45 217.36 42.88 222.60 43.27 227.79 C 43.37 230.26 44.64 232.91 43.27 235.23 C 37.62 247.35 36.20 260.80 32.51 273.51 C 29.32 276.36 25.30 278.28 22.63 281.69 C 20.26 285.32 22.72 290.83 27.09 291.23 C 29.90 291.84 32.08 289.75 34.15 288.23 C 31.21 331.83 16.44 373.46 10.60 416.62 C 8.26 405.59 7.33 394.27 7.50 383.00 C 7.09 355.68 11.16 328.36 8.57 301.07 C 8.36 299.63 8.31 297.71 6.59 297.27 C 4.13 295.96 1.05 298.27 1.80 301.01 C 3.68 320.86 2.06 340.77 1.18 360.63 C -0.02 382.73 0.12 405.25 5.96 426.76 C 4.20 429.29 2.17 431.90 2.29 435.17 C 2.18 451.45 2.31 467.73 2.23 484.01 C 2.06 486.72 3.03 489.29 3.50 491.93 C 2.60 497.19 1.70 502.53 2.07 507.89 C 2.89 509.99 4.78 511.64 4.87 514.02 C 8.51 538.08 11.96 562.24 18.37 585.76 C 25.24 611.49 36.62 636.55 54.95 656.18 C 57.40 662.65 59.23 669.42 61.62 675.92 C 59.25 705.47 65.61 736.54 83.29 760.75 C 85.91 764.96 92.78 760.52 89.97 756.40 C 74.58 734.95 68.12 708.04 69.22 681.87 C 86.12 700.23 103.01 718.86 122.92 734.05 C 137.28 745.01 153.26 753.93 170.38 759.76 C 172.23 760.37 174.71 760.75 176.19 759.15 C 178.70 757.01 177.63 752.26 174.35 751.54 C 165.30 748.44 156.48 744.62 148.16 739.88 C 118.22 722.95 95.24 696.77 72.30 671.71 C 69.08 665.47 67.78 658.42 65.21 651.90 C 55.88 597.62 43.70 543.25 21.06 492.81 C 22.04 490.68 23.17 488.50 23.01 486.09 C 22.96 468.71 23.06 451.32 22.96 433.94 C 22.87 430.19 20.02 427.45 17.18 425.42 C 22.34 377.50 39.98 331.62 41.94 283.26 C 44.94 279.29 45.54 274.28 46.77 269.60 C 49.20 259.16 51.03 248.42 55.72 238.69 C 58.09 235.76 61.19 233.52 63.82 230.82 C 104.73 190.37 133.06 139.33 173.17 98.18 C 187.43 83.77 203.28 70.70 221.27 61.21 C 235.68 53.52 251.42 48.43 267.56 45.92 C 267.52 46.56 267.44 47.85 267.41 48.49 C 286.02 48.52 304.64 48.49 323.26 48.51 C 323.25 47.54 323.24 45.60 323.23 44.63 C 338.82 55.59 358.47 58.07 377.05 58.43 C 382.72 58.45 383.30 49.10 377.61 48.61 C 362.97 47.98 347.88 46.62 334.60 39.88 C 351.45 36.18 369.04 36.05 386.00 39.14 C 414.11 44.23 440.10 56.74 465.41 69.49 C 485.95 79.88 506.26 90.85 527.64 99.48 C 528.60 100.05 530.07 100.21 530.50 101.41 C 532.73 107.00 537.98 111.04 543.82 112.22 C 547.88 118.13 550.83 124.90 556.05 129.96 C 558.46 132.57 562.01 133.97 563.95 137.04 C 568.65 144.22 569.36 153.13 573.43 160.62 C 580.98 173.78 583.75 189.18 592.06 201.96 C 596.47 208.86 602.81 214.71 610.55 217.61 C 613.72 218.43 615.21 221.57 617.07 223.97 C 628.04 240.15 633.48 259.36 644.53 275.51 C 645.58 277.22 647.17 278.84 647.04 281.01 C 647.95 299.86 652.78 318.27 658.99 336.01 C 665.84 355.60 674.44 374.50 682.33 393.68 C 683.89 396.49 682.08 399.71 683.29 402.62 C 685.77 410.84 685.66 419.48 685.90 427.97 C 685.97 442.07 686.22 457.35 694.53 469.42 C 697.16 472.73 695.52 477.19 696.10 481.04 C 697.51 542.10 695.78 604.01 680.60 663.50 C 672.05 697.02 659.02 729.47 641.22 759.16 C 639.59 761.47 639.06 764.77 640.87 767.16 C 643.17 771.12 649.78 771.03 652.03 767.04 C 665.06 745.55 675.62 722.58 683.88 698.84 C 696.49 662.46 703.49 624.33 706.84 586.03 C 710.24 547.75 710.14 509.28 709.17 470.89 C 708.77 467.65 711.45 465.53 713.19 463.21 C 723.98 449.58 726.61 431.22 738.07 418.05 C 744.40 410.77 754.58 408.88 763.77 409.88 C 766.03 407.18 769.29 405.35 771.28 402.49 C 777.18 350.08 772.87 295.73 753.51 246.35 C 752.29 243.58 754.99 240.88 754.50 238.01 C 753.70 229.53 748.75 222.02 742.67 216.30 C 734.91 208.92 724.11 204.04 713.25 205.48 C 712.76 196.22 713.51 186.82 716.06 177.87 C 718.54 169.50 723.03 161.43 730.05 156.05 C 739.00 149.02 750.95 146.95 762.06 148.03 C 779.67 149.75 796.15 157.48 810.55 167.48 C 828.35 179.88 843.23 196.52 853.23 215.80 C 871.25 253.13 879.16 294.75 880.25 336.01 C 880.65 361.37 878.27 386.93 871.30 411.39 C 866.90 426.57 860.70 441.45 851.23 454.21 C 847.04 459.95 841.84 464.84 837.26 470.25 C 844.27 468.43 851.05 465.66 858.26 464.69 C 877.84 461.92 898.28 468.93 912.76 482.24 C 924.04 492.55 931.58 507.57 930.77 523.07 C 930.34 531.91 928.45 541.48 921.92 547.94 C 911.94 558.80 897.51 563.33 884.74 569.90 C 880.37 566.82 874.95 567.94 869.97 567.71 C 861.89 567.27 853.48 567.66 846.00 571.03 C 842.75 572.44 840.34 575.64 840.05 579.19 C 839.37 584.21 843.18 589.32 848.17 590.14 C 852.65 590.98 856.53 587.74 860.97 587.76 C 868.54 586.76 876.65 589.47 883.84 586.16 C 898.83 594.97 917.01 597.96 930.29 609.69 C 933.43 612.86 937.50 616.22 937.59 621.06 C 937.85 624.95 938.00 629.00 936.82 632.77 C 932.16 638.51 926.63 643.99 919.78 647.00 C 914.00 647.21 908.45 648.79 903.11 650.88 C 896.30 648.67 889.14 647.70 881.99 647.99 C 870.67 647.64 858.95 649.82 847.97 646.12 C 844.53 645.09 841.26 641.80 837.48 643.36 C 833.34 644.96 832.43 651.31 836.24 653.79 C 844.13 658.83 853.78 660.36 863.01 660.27 C 875.91 660.45 889.27 658.35 901.68 662.96 C 911.64 673.97 924.56 681.59 935.54 691.46 C 942.66 697.92 949.12 706.06 950.53 715.84 C 949.16 718.67 948.77 721.76 948.95 724.88 C 942.68 729.31 935.99 733.20 928.79 735.91 C 911.27 742.79 891.95 743.46 873.46 741.19 C 835.28 736.34 799.67 720.74 762.28 712.43 C 763.11 716.27 763.71 720.20 765.10 723.90 C 768.73 734.45 776.04 743.10 781.07 752.95 C 782.17 754.93 782.66 757.33 784.33 758.98 C 787.24 760.93 791.34 757.55 789.72 754.37 C 785.21 743.01 776.90 733.67 772.20 722.40 C 809.94 732.08 846.64 747.80 886.03 749.49 C 908.84 750.72 932.41 745.50 951.25 732.22 C 953.73 730.03 958.39 730.78 959.38 726.98 C 959.54 724.08 959.80 721.08 959.20 718.23 C 956.13 714.73 956.12 709.89 954.19 705.84 C 949.19 694.01 939.03 685.55 929.07 677.96 C 921.12 671.66 912.39 665.99 906.12 657.88 C 910.82 655.24 916.19 654.48 921.49 654.30 C 930.20 650.82 937.20 644.04 943.05 636.87 C 945.88 630.06 945.34 622.20 943.98 615.10 C 939.62 607.04 932.28 601.01 924.39 596.57 C 912.72 590.01 899.60 586.58 887.89 580.08 C 887.94 578.74 887.98 577.40 888.04 576.07 C 896.34 572.04 904.94 568.58 912.95 563.96 C 921.11 559.11 928.64 552.66 933.26 544.26 C 939.90 528.53 939.37 509.81 931.24 494.72 C 917.51 468.65 886.45 453.89 857.51 457.59 C 873.46 435.40 880.89 408.31 884.67 381.57 C 890.44 337.39 886.55 291.99 873.85 249.31 C 868.39 231.91 861.98 214.54 851.68 199.36 C 839.63 181.37 823.44 166.15 804.70 155.28 C 789.61 146.64 772.54 140.60 754.98 140.76 C 741.47 140.97 727.60 146.23 718.99 156.96 C 708.52 169.73 705.82 186.96 706.14 203.02 C 706.55 206.02 705.81 208.97 705.64 211.95 C 707.16 217.90 709.40 223.83 713.55 228.48 C 721.63 237.95 733.46 242.83 744.71 247.41 C 746.79 250.96 747.76 255.02 749.26 258.83 C 764.82 303.48 768.33 351.72 763.39 398.54 C 762.10 400.15 760.36 401.91 758.11 401.50 C 748.22 401.20 738.21 405.18 731.68 412.69 C 719.33 426.40 716.82 445.95 705.10 460.08 C 701.71 453.62 700.50 446.31 700.15 439.10 C 699.38 424.35 700.99 408.99 695.43 394.94 C 699.80 374.48 697.65 353.02 690.92 333.31 C 684.11 312.93 673.16 293.99 659.39 277.53 C 657.67 275.63 657.56 272.90 656.17 270.82 C 643.77 253.28 638.48 231.74 625.42 214.59 C 623.14 211.60 619.88 208.23 621.04 204.14 C 624.91 180.65 614.01 156.38 596.12 141.26 C 599.35 139.95 596.76 137.16 595.89 135.06 C 592.44 128.01 588.94 120.15 581.76 116.15 C 579.97 114.89 577.14 115.07 576.14 112.89 C 572.62 106.65 568.05 101.06 562.93 96.06 C 561.40 94.30 559.31 92.87 558.66 90.51 C 553.30 75.36 541.84 62.02 526.60 56.29 C 522.24 52.67 519.54 47.46 515.47 43.51 C 495.56 21.32 467.00 8.23 437.73 4.19 C 398.56 -1.34 358.74 5.65 321.25 17.15 M 785.91 41.00 C 786.98 52.07 779.44 61.53 779.13 72.46 C 776.98 73.50 774.89 75.20 775.80 77.87 C 778.40 81.42 782.41 77.88 785.48 76.97 C 784.09 63.85 794.63 52.47 791.82 39.27 C 790.44 36.29 785.03 37.54 785.91 41.00 M 664.04 85.21 C 663.43 88.19 665.93 90.45 667.10 92.93 C 673.03 102.73 678.04 113.23 679.82 124.64 C 681.87 125.40 685.20 124.86 684.93 122.04 C 683.40 108.62 676.14 96.86 669.48 85.43 C 668.64 83.12 665.06 83.06 664.04 85.21 M 929.43 119.45 C 923.50 121.28 919.94 126.64 915.79 130.84 C 913.60 133.21 910.31 134.01 907.94 136.13 C 907.38 138.53 909.29 141.27 911.94 140.45 C 918.38 138.84 922.15 132.99 926.59 128.58 C 928.72 126.33 931.79 125.51 934.36 123.92 C 935.68 120.82 932.40 117.69 929.43 119.45 M 200.35 179.31 C 182.58 181.83 166.10 190.17 151.92 200.93 C 133.68 214.95 118.45 233.22 109.19 254.36 C 102.08 270.76 98.62 289.46 102.96 307.05 C 109.59 325.93 119.46 344.06 133.82 358.19 C 147.24 371.79 165.00 381.11 183.92 383.99 C 207.26 387.52 231.38 382.16 252.07 371.14 C 274.24 359.26 293.35 340.75 303.73 317.64 C 311.40 300.65 313.59 280.92 308.09 262.97 C 301.70 241.67 286.18 224.36 268.40 211.62 C 265.63 209.42 262.12 208.00 260.11 204.96 C 254.94 197.54 248.28 191.12 240.45 186.55 C 228.51 179.39 214.02 177.26 200.35 179.31 M 490.36 192.30 C 473.71 193.88 457.96 200.82 444.39 210.39 C 422.17 226.20 404.94 248.18 391.95 271.97 C 384.76 285.65 378.32 299.96 374.95 315.08 C 378.53 327.07 385.46 337.92 393.95 347.05 C 408.82 362.55 429.21 372.04 450.25 375.57 C 474.25 379.57 499.46 376.64 521.72 366.72 C 537.21 359.73 551.30 349.13 561.11 335.14 C 570.91 321.46 576.22 304.77 576.77 288.00 C 577.05 283.32 574.98 278.97 573.49 274.65 C 566.05 254.68 552.46 237.91 543.07 218.93 C 540.10 213.47 539.96 206.84 536.32 201.69 C 522.40 194.11 506.15 190.80 490.36 192.30 M 551.70 435.66 C 548.30 437.66 548.53 443.36 552.08 445.07 C 554.25 446.04 556.56 446.65 558.78 447.52 C 552.28 480.23 548.08 513.41 539.71 545.74 C 533.74 568.63 525.39 591.25 511.92 610.87 C 502.88 624.24 491.22 635.66 478.44 645.44 C 450.65 666.95 416.97 680.47 382.17 684.99 C 335.53 691.33 287.75 681.90 245.01 662.90 C 243.23 662.20 241.84 660.84 240.65 659.39 C 235.85 653.65 231.45 647.34 229.35 640.08 C 233.00 639.45 236.29 641.44 239.80 641.75 C 244.52 641.55 246.48 634.95 242.90 632.04 C 235.60 627.42 225.91 628.52 218.66 632.69 C 213.14 635.62 207.04 639.53 205.54 646.03 C 205.05 650.73 211.29 654.05 214.77 650.80 C 216.66 648.31 218.53 645.76 221.24 644.08 C 224.83 653.74 230.73 662.71 238.42 669.55 C 275.92 686.82 317.22 696.64 358.63 695.64 C 398.14 694.76 437.61 683.43 470.76 661.73 C 487.15 650.93 502.47 638.11 514.39 622.41 C 525.92 607.47 534.42 590.37 540.73 572.64 C 554.78 533.12 558.85 491.12 567.30 450.27 C 572.87 453.63 575.75 459.62 578.93 465.02 C 579.83 466.78 581.89 468.00 583.88 467.32 C 586.83 466.85 587.90 463.02 586.33 460.72 C 582.39 453.72 578.20 445.80 570.37 442.58 C 566.96 441.32 565.05 437.75 561.52 436.67 C 558.41 435.64 554.83 433.63 551.70 435.66 M 882.51 511.45 C 887.02 511.35 891.57 511.78 895.86 513.27 C 899.67 514.35 903.51 516.33 907.57 515.61 C 911.66 514.51 912.63 509.85 914.02 506.45 C 905.09 508.30 896.12 504.30 887.21 506.10 C 884.51 506.58 883.45 509.21 882.51 511.45 M 894.93 523.83 C 892.26 525.67 892.79 529.31 892.97 532.10 C 896.58 532.04 900.42 531.64 903.44 529.44 C 906.22 527.63 907.49 524.43 908.97 521.61 C 904.29 521.96 899.11 521.25 894.93 523.83 M 892.96 607.93 C 892.64 610.13 892.03 612.52 893.17 614.62 C 895.28 617.93 899.39 619.10 903.06 619.66 C 910.16 620.54 917.53 619.85 924.27 617.41 C 926.46 616.71 928.11 615.07 929.59 613.38 C 919.72 612.80 909.62 614.66 899.95 611.91 C 897.30 611.22 895.06 609.60 892.96 607.93 M 887.74 628.53 C 887.09 631.18 886.14 634.53 888.36 636.74 C 891.73 639.83 896.65 640.26 901.03 640.22 C 905.99 639.87 911.95 638.94 914.43 634.00 C 906.92 628.18 896.89 627.04 887.74 628.53 M 897.91 695.01 C 897.99 699.30 898.10 704.34 901.72 707.31 C 906.59 711.11 913.22 710.66 919.03 710.18 C 919.68 706.84 920.17 702.20 916.46 700.45 C 910.50 697.81 902.96 699.92 897.91 695.01 M 893.25 715.00 C 893.25 718.44 893.26 721.88 893.23 725.33 C 900.91 724.07 908.76 727.36 916.34 725.19 C 920.57 723.68 919.95 718.45 918.99 715.00 C 910.41 715.00 901.83 715.00 893.25 715.00 Z" />
<path fill="#000000" opacity="1.00" d=" M 321.25 17.15 C 358.74 5.65 398.56 -1.34 437.73 4.19 C 467.00 8.23 495.56 21.32 515.47 43.51 C 519.54 47.46 522.24 52.67 526.60 56.29 C 541.84 62.02 553.30 75.36 558.66 90.51 C 559.31 92.87 561.40 94.30 562.93 96.06 C 568.05 101.06 572.62 106.65 576.14 112.89 C 577.14 115.07 579.97 114.89 581.76 116.15 C 588.94 120.15 592.44 128.01 595.89 135.06 C 596.76 137.16 599.35 139.95 596.12 141.26 C 614.01 156.38 624.91 180.65 621.04 204.14 C 619.88 208.23 623.14 211.60 625.42 214.59 C 638.48 231.74 643.77 253.28 656.17 270.82 C 657.56 272.90 657.67 275.63 659.39 277.53 C 673.16 293.99 684.11 312.93 690.92 333.31 C 697.65 353.02 699.80 374.48 695.43 394.94 C 700.99 408.99 699.38 424.35 700.15 439.10 C 700.50 446.31 701.71 453.62 705.10 460.08 C 716.82 445.95 719.33 426.40 731.68 412.69 C 738.21 405.18 748.22 401.20 758.11 401.50 C 760.36 401.91 762.10 400.15 763.39 398.54 C 768.33 351.72 764.82 303.48 749.26 258.83 C 747.76 255.02 746.79 250.96 744.71 247.41 C 733.46 242.83 721.63 237.95 713.55 228.48 C 709.40 223.83 707.16 217.90 705.64 211.95 C 705.81 208.97 706.55 206.02 706.14 203.02 C 705.82 186.96 708.52 169.73 718.99 156.96 C 727.60 146.23 741.47 140.97 754.98 140.76 C 772.54 140.60 789.61 146.64 804.70 155.28 C 823.44 166.15 839.63 181.37 851.68 199.36 C 861.98 214.54 868.39 231.91 873.85 249.31 C 886.55 291.99 890.44 337.39 884.67 381.57 C 880.89 408.31 873.46 435.40 857.51 457.59 C 886.45 453.89 917.51 468.65 931.24 494.72 C 939.37 509.81 939.90 528.53 933.26 544.26 C 928.64 552.66 921.11 559.11 912.95 563.96 C 904.94 568.58 896.34 572.04 888.04 576.07 C 887.98 577.40 887.94 578.74 887.89 580.08 C 899.60 586.58 912.72 590.01 924.39 596.57 C 932.28 601.01 939.62 607.04 943.98 615.10 C 945.34 622.20 945.88 630.06 943.05 636.87 C 937.20 644.04 930.20 650.82 921.49 654.30 C 916.19 654.48 910.82 655.24 906.12 657.88 C 912.39 665.99 921.12 671.66 929.07 677.96 C 939.03 685.55 949.19 694.01 954.19 705.84 C 956.12 709.89 956.13 714.73 959.20 718.23 C 959.80 721.08 959.54 724.08 959.38 726.98 C 958.39 730.78 953.73 730.03 951.25 732.22 C 932.41 745.50 908.84 750.72 886.03 749.49 C 846.64 747.80 809.94 732.08 772.20 722.40 C 776.90 733.67 785.21 743.01 789.72 754.37 C 791.34 757.55 787.24 760.93 784.33 758.98 C 782.66 757.33 782.17 754.93 781.07 752.95 C 776.04 743.10 768.73 734.45 765.10 723.90 C 763.71 720.20 763.11 716.27 762.28 712.43 C 799.67 720.74 835.28 736.34 873.46 741.19 C 891.95 743.46 911.27 742.79 928.79 735.91 C 935.99 733.20 942.68 729.31 948.95 724.88 C 948.77 721.76 949.16 718.67 950.53 715.84 C 949.12 706.06 942.66 697.92 935.54 691.46 C 924.56 681.59 911.64 673.97 901.68 662.96 C 889.27 658.35 875.91 660.45 863.01 660.27 C 853.78 660.36 844.13 658.83 836.24 653.79 C 832.43 651.31 833.34 644.96 837.48 643.36 C 841.26 641.80 844.53 645.09 847.97 646.12 C 858.95 649.82 870.67 647.64 881.99 647.99 C 889.14 647.70 896.30 648.67 903.11 650.88 C 908.45 648.79 914.00 647.21 919.78 647.00 C 926.63 643.99 932.16 638.51 936.82 632.77 C 938.00 629.00 937.85 624.95 937.59 621.06 C 937.50 616.22 933.43 612.86 930.29 609.69 C 917.01 597.96 898.83 594.97 883.84 586.16 C 876.65 589.47 868.54 586.76 860.97 587.76 C 856.53 587.74 852.65 590.98 848.17 590.14 C 843.18 589.32 839.37 584.21 840.05 579.19 C 840.34 575.64 842.75 572.44 846.00 571.03 C 853.48 567.66 861.89 567.27 869.97 567.71 C 874.95 567.94 880.37 566.82 884.74 569.90 C 897.51 563.33 911.94 558.80 921.92 547.94 C 928.45 541.48 930.34 531.91 930.77 523.07 C 931.58 507.57 924.04 492.55 912.76 482.24 C 898.28 468.93 877.84 461.92 858.26 464.69 C 851.05 465.66 844.27 468.43 837.26 470.25 C 841.84 464.84 847.04 459.95 851.23 454.21 C 860.70 441.45 866.90 426.57 871.30 411.39 C 878.27 386.93 880.65 361.37 880.25 336.01 C 879.16 294.75 871.25 253.13 853.23 215.80 C 843.23 196.52 828.35 179.88 810.55 167.48 C 796.15 157.48 779.67 149.75 762.06 148.03 C 750.95 146.95 739.00 149.02 730.05 156.05 C 723.03 161.43 718.54 169.50 716.06 177.87 C 713.51 186.82 712.76 196.22 713.25 205.48 C 724.11 204.04 734.91 208.92 742.67 216.30 C 748.75 222.02 753.70 229.53 754.50 238.01 C 754.99 240.88 752.29 243.58 753.51 246.35 C 772.87 295.73 777.18 350.08 771.28 402.49 C 769.29 405.35 766.03 407.18 763.77 409.88 C 754.58 408.88 744.40 410.77 738.07 418.05 C 726.61 431.22 723.98 449.58 713.19 463.21 C 711.45 465.53 708.77 467.65 709.17 470.89 C 710.14 509.28 710.24 547.75 706.84 586.03 C 703.49 624.33 696.49 662.46 683.88 698.84 C 675.62 722.58 665.06 745.55 652.03 767.04 C 649.78 771.03 643.17 771.12 640.87 767.16 C 639.06 764.77 639.59 761.47 641.22 759.16 C 659.02 729.47 672.05 697.02 680.60 663.50 C 695.78 604.01 697.51 542.10 696.10 481.04 C 695.52 477.19 697.16 472.73 694.53 469.42 C 686.22 457.35 685.97 442.07 685.90 427.97 C 685.66 419.48 685.77 410.84 683.29 402.62 C 682.08 399.71 683.89 396.49 682.33 393.68 C 674.44 374.50 665.84 355.60 658.99 336.01 C 652.78 318.27 647.95 299.86 647.04 281.01 C 647.17 278.84 645.58 277.22 644.53 275.51 C 633.48 259.36 628.04 240.15 617.07 223.97 C 615.21 221.57 613.72 218.43 610.55 217.61 C 602.81 214.71 596.47 208.86 592.06 201.96 C 583.75 189.18 580.98 173.78 573.43 160.62 C 569.36 153.13 568.65 144.22 563.95 137.04 C 562.01 133.97 558.46 132.57 556.05 129.96 C 550.83 124.90 547.88 118.13 543.82 112.22 C 537.98 111.04 532.73 107.00 530.50 101.41 C 530.07 100.21 528.60 100.05 527.64 99.48 C 506.26 90.85 485.95 79.88 465.41 69.49 C 440.10 56.74 414.11 44.23 386.00 39.14 C 369.04 36.05 351.45 36.18 334.60 39.88 C 347.88 46.62 362.97 47.98 377.61 48.61 C 383.30 49.10 382.72 58.45 377.05 58.43 C 358.47 58.07 338.82 55.59 323.23 44.63 C 323.24 45.60 323.25 47.54 323.26 48.51 C 304.64 48.49 286.02 48.52 267.41 48.49 C 267.44 47.85 267.52 46.56 267.56 45.92 C 251.42 48.43 235.68 53.52 221.27 61.21 C 203.28 70.70 187.43 83.77 173.17 98.18 C 133.06 139.33 104.73 190.37 63.82 230.82 C 61.19 233.52 58.09 235.76 55.72 238.69 C 51.03 248.42 49.20 259.16 46.77 269.60 C 45.54 274.28 44.94 279.29 41.94 283.26 C 39.98 331.62 22.34 377.50 17.18 425.42 C 20.02 427.45 22.87 430.19 22.96 433.94 C 23.06 451.32 22.96 468.71 23.01 486.09 C 23.17 488.50 22.04 490.68 21.06 492.81 C 43.70 543.25 55.88 597.62 65.21 651.90 C 67.78 658.42 69.08 665.47 72.30 671.71 C 95.24 696.77 118.22 722.95 148.16 739.88 C 156.48 744.62 165.30 748.44 174.35 751.54 C 177.63 752.26 178.70 757.01 176.19 759.15 C 174.71 760.75 172.23 760.37 170.38 759.76 C 153.26 753.93 137.28 745.01 122.92 734.05 C 103.01 718.86 86.12 700.23 69.22 681.87 C 68.12 708.04 74.58 734.95 89.97 756.40 C 92.78 760.52 85.91 764.96 83.29 760.75 C 65.61 736.54 59.25 705.47 61.62 675.92 C 59.23 669.42 57.40 662.65 54.95 656.18 C 36.62 636.55 25.24 611.49 18.37 585.76 C 11.96 562.24 8.51 538.08 4.87 514.02 C 4.78 511.64 2.89 509.99 2.07 507.89 C 1.70 502.53 2.60 497.19 3.50 491.93 C 3.03 489.29 2.06 486.72 2.23 484.01 C 2.31 467.73 2.18 451.45 2.29 435.17 C 2.17 431.90 4.20 429.29 5.96 426.76 C 0.12 405.25 -0.02 382.73 1.18 360.63 C 2.06 340.77 3.68 320.86 1.80 301.01 C 1.05 298.27 4.13 295.96 6.59 297.27 C 8.31 297.71 8.36 299.63 8.57 301.07 C 11.16 328.36 7.09 355.68 7.50 383.00 C 7.33 394.27 8.26 405.59 10.60 416.62 C 16.44 373.46 31.21 331.83 34.15 288.23 C 32.08 289.75 29.90 291.84 27.09 291.23 C 22.72 290.83 20.26 285.32 22.63 281.69 C 25.30 278.28 29.32 276.36 32.51 273.51 C 36.20 260.80 37.62 247.35 43.27 235.23 C 44.64 232.91 43.37 230.26 43.27 227.79 C 42.88 222.60 42.45 217.36 42.93 212.17 C 44.25 209.85 48.63 210.27 48.89 213.17 C 49.10 218.91 49.05 224.68 49.89 230.38 C 98.30 185.86 128.40 125.32 176.94 80.91 C 199.85 59.78 227.88 43.43 258.75 37.59 C 260.75 37.08 263.06 37.15 264.69 35.70 C 277.85 24.77 294.89 19.39 311.74 17.95 C 314.70 20.41 318.12 17.83 321.25 17.15 M 318.23 27.61 C 319.91 27.69 321.59 27.76 323.27 27.81 C 323.25 29.66 323.24 31.51 323.24 33.35 C 343.25 27.66 364.49 26.44 385.01 29.87 C 412.99 34.41 439.15 46.05 464.27 58.77 C 486.57 69.77 508.32 82.03 531.44 91.29 C 527.43 84.12 521.76 77.90 518.81 70.14 C 517.37 66.73 517.10 63.00 516.55 59.38 C 512.57 53.23 507.25 48.06 502.05 42.94 C 482.77 24.88 456.89 15.18 430.88 12.42 C 392.77 8.29 354.42 15.98 318.23 27.61 M 527.02 63.89 C 529.67 72.74 536.43 79.38 540.54 87.48 C 541.85 91.06 545.88 92.07 548.27 94.77 C 549.72 94.34 551.17 93.91 552.63 93.48 C 547.97 81.04 539.33 69.51 527.02 63.89 M 551.81 105.22 C 556.52 112.47 559.99 121.00 567.42 126.00 C 567.42 123.44 567.73 120.88 567.58 118.33 C 564.73 112.96 560.71 108.35 556.64 103.88 C 555.02 104.32 553.41 104.77 551.81 105.22 M 589.48 159.36 C 594.98 170.56 597.75 182.98 604.35 193.64 C 606.37 197.02 609.25 199.76 612.30 202.20 C 615.06 182.86 606.52 162.92 592.17 150.05 C 588.99 151.78 587.76 156.23 589.48 159.36 M 714.64 214.38 C 719.40 227.75 733.33 234.23 745.66 238.99 C 744.40 231.45 739.55 224.96 733.55 220.46 C 728.17 216.42 721.48 213.55 714.64 214.38 M 656.89 287.67 C 657.96 299.31 660.79 310.73 664.16 321.90 C 670.85 343.39 679.92 364.03 688.76 384.69 C 690.85 368.26 688.27 351.53 683.03 335.91 C 677.15 318.49 668.15 302.17 656.89 287.67 M 13.79 499.88 C 13.56 502.81 13.71 505.82 12.87 508.68 C 11.70 511.97 13.11 515.38 13.41 518.71 C 17.40 544.84 21.40 571.15 29.73 596.32 C 35.32 612.97 42.96 629.13 53.94 642.93 C 45.27 594.12 33.60 545.48 13.79 499.88 Z" />
<path fill="#ffffff" opacity="1.00" d=" M 318.23 27.61 C 354.42 15.98 392.77 8.29 430.88 12.42 C 456.89 15.18 482.77 24.88 502.05 42.94 C 507.25 48.06 512.57 53.23 516.55 59.38 C 517.10 63.00 517.37 66.73 518.81 70.14 C 521.76 77.90 527.43 84.12 531.44 91.29 C 508.32 82.03 486.57 69.77 464.27 58.77 C 439.15 46.05 412.99 34.41 385.01 29.87 C 364.49 26.44 343.25 27.66 323.24 33.35 C 323.24 31.51 323.25 29.66 323.27 27.81 C 321.59 27.76 319.91 27.69 318.23 27.61 Z" />
<path fill="#000000" opacity="1.00" d=" M 785.91 41.00 C 785.03 37.54 790.44 36.29 791.82 39.27 C 794.63 52.47 784.09 63.85 785.48 76.97 C 782.41 77.88 778.40 81.42 775.80 77.87 C 774.89 75.20 776.98 73.50 779.13 72.46 C 779.44 61.53 786.98 52.07 785.91 41.00 Z" />
<path fill="#ffffff" opacity="1.00" d=" M 527.02 63.89 C 539.33 69.51 547.97 81.04 552.63 93.48 C 551.17 93.91 549.72 94.34 548.27 94.77 C 545.88 92.07 541.85 91.06 540.54 87.48 C 536.43 79.38 529.67 72.74 527.02 63.89 Z" />
<path fill="#000000" opacity="1.00" d=" M 664.04 85.21 C 665.06 83.06 668.64 83.12 669.48 85.43 C 676.14 96.86 683.40 108.62 684.93 122.04 C 685.20 124.86 681.87 125.40 679.82 124.64 C 678.04 113.23 673.03 102.73 667.10 92.93 C 665.93 90.45 663.43 88.19 664.04 85.21 Z" />
<path fill="#ffffff" opacity="1.00" d=" M 551.81 105.22 C 553.41 104.77 555.02 104.32 556.64 103.88 C 560.71 108.35 564.73 112.96 567.58 118.33 C 567.73 120.88 567.42 123.44 567.42 126.00 C 559.99 121.00 556.52 112.47 551.81 105.22 Z" />
<path fill="#000000" opacity="1.00" d=" M 929.43 119.45 C 932.40 117.69 935.68 120.82 934.36 123.92 C 931.79 125.51 928.72 126.33 926.59 128.58 C 922.15 132.99 918.38 138.84 911.94 140.45 C 909.29 141.27 907.38 138.53 907.94 136.13 C 910.31 134.01 913.60 133.21 915.79 130.84 C 919.94 126.64 923.50 121.28 929.43 119.45 Z" />
<path fill="#ffffff" opacity="1.00" d=" M 589.48 159.36 C 587.76 156.23 588.99 151.78 592.17 150.05 C 606.52 162.92 615.06 182.86 612.30 202.20 C 609.25 199.76 606.37 197.02 604.35 193.64 C 597.75 182.98 594.98 170.56 589.48 159.36 Z" />
<path fill="#000000" opacity="1.00" d=" M 200.35 179.31 C 214.02 177.26 228.51 179.39 240.45 186.55 C 248.28 191.12 254.94 197.54 260.11 204.96 C 262.12 208.00 265.63 209.42 268.40 211.62 C 286.18 224.36 301.70 241.67 308.09 262.97 C 313.59 280.92 311.40 300.65 303.73 317.64 C 293.35 340.75 274.24 359.26 252.07 371.14 C 231.38 382.16 207.26 387.52 183.92 383.99 C 165.00 381.11 147.24 371.79 133.82 358.19 C 119.46 344.06 109.59 325.93 102.96 307.05 C 98.62 289.46 102.08 270.76 109.19 254.36 C 118.45 233.22 133.68 214.95 151.92 200.93 C 166.10 190.17 182.58 181.83 200.35 179.31 M 201.44 187.77 C 192.82 189.02 184.49 191.89 176.67 195.67 C 152.60 207.61 132.69 227.55 120.15 251.26 C 111.96 267.27 106.93 285.95 111.00 303.86 C 115.64 317.48 122.27 330.51 130.97 342.00 C 141.89 356.54 157.18 368.06 174.76 373.13 C 194.13 378.92 215.22 377.01 233.99 369.91 C 256.95 361.25 277.38 345.32 290.45 324.45 C 300.61 308.15 305.63 287.91 300.83 268.99 C 295.76 247.70 280.25 230.59 262.80 218.21 C 259.86 215.83 256.04 214.41 253.93 211.14 C 249.22 204.27 243.27 198.13 236.06 193.89 C 225.72 187.79 213.22 185.92 201.44 187.77 Z" />
<path fill="#ffffff" opacity="1.00" d=" M 201.44 187.77 C 213.22 185.92 225.72 187.79 236.06 193.89 C 243.27 198.13 249.22 204.27 253.93 211.14 C 256.04 214.41 259.86 215.83 262.80 218.21 C 280.25 230.59 295.76 247.70 300.83 268.99 C 305.63 287.91 300.61 308.15 290.45 324.45 C 277.38 345.32 256.95 361.25 233.99 369.91 C 215.22 377.01 194.13 378.92 174.76 373.13 C 157.18 368.06 141.89 356.54 130.97 342.00 C 122.27 330.51 115.64 317.48 111.00 303.86 C 106.93 285.95 111.96 267.27 120.15 251.26 C 132.69 227.55 152.60 207.61 176.67 195.67 C 184.49 191.89 192.82 189.02 201.44 187.77 M 217.42 254.66 C 209.20 256.25 202.08 262.02 198.46 269.52 C 194.43 277.31 194.12 286.43 195.26 294.96 C 195.56 296.12 195.41 297.74 196.68 298.36 C 207.96 305.33 223.87 306.15 234.48 297.47 C 242.72 290.94 245.20 279.48 243.56 269.50 C 242.84 266.27 242.98 262.12 239.80 260.20 C 233.60 255.19 225.23 253.15 217.42 254.66 Z" />
<path fill="#000000" opacity="1.00" d=" M 490.36 192.30 C 506.15 190.80 522.40 194.11 536.32 201.69 C 539.96 206.84 540.10 213.47 543.07 218.93 C 552.46 237.91 566.05 254.68 573.49 274.65 C 574.98 278.97 577.05 283.32 576.77 288.00 C 576.22 304.77 570.91 321.46 561.11 335.14 C 551.30 349.13 537.21 359.73 521.72 366.72 C 499.46 376.64 474.25 379.57 450.25 375.57 C 429.21 372.04 408.82 362.55 393.95 347.05 C 385.46 337.92 378.53 327.07 374.95 315.08 C 378.32 299.96 384.76 285.65 391.95 271.97 C 404.94 248.18 422.17 226.20 444.39 210.39 C 457.96 200.82 473.71 193.88 490.36 192.30 M 481.62 202.66 C 461.86 207.29 444.81 219.51 430.67 233.68 C 409.92 255.23 394.36 281.69 385.25 310.16 C 384.78 312.18 383.46 314.39 384.64 316.42 C 388.21 325.44 393.56 333.73 400.20 340.79 C 411.28 352.39 425.84 360.34 441.24 364.55 C 463.97 370.77 488.60 369.63 510.74 361.65 C 526.88 355.83 541.73 345.92 552.26 332.28 C 562.18 319.40 567.68 303.25 567.99 287.03 C 566.98 280.56 564.00 274.58 561.32 268.67 C 553.10 252.19 542.05 237.30 534.07 220.68 C 526.84 221.58 519.61 223.63 512.28 222.83 C 508.66 221.38 509.14 215.22 513.14 214.75 C 519.38 214.44 525.53 213.42 531.69 212.39 C 530.70 210.74 530.56 208.19 528.47 207.56 C 513.95 200.87 497.20 198.75 481.62 202.66 Z" />
<path fill="#ffffff" opacity="1.00" d=" M 481.62 202.66 C 497.20 198.75 513.95 200.87 528.47 207.56 C 530.56 208.19 530.70 210.74 531.69 212.39 C 525.53 213.42 519.38 214.44 513.14 214.75 C 509.14 215.22 508.66 221.38 512.28 222.83 C 519.61 223.63 526.84 221.58 534.07 220.68 C 542.05 237.30 553.10 252.19 561.32 268.67 C 564.00 274.58 566.98 280.56 567.99 287.03 C 567.68 303.25 562.18 319.40 552.26 332.28 C 541.73 345.92 526.88 355.83 510.74 361.65 C 488.60 369.63 463.97 370.77 441.24 364.55 C 425.84 360.34 411.28 352.39 400.20 340.79 C 393.56 333.73 388.21 325.44 384.64 316.42 C 383.46 314.39 384.78 312.18 385.25 310.16 C 394.36 281.69 409.92 255.23 430.67 233.68 C 444.81 219.51 461.86 207.29 481.62 202.66 M 455.66 249.67 C 451.36 251.51 448.79 255.72 444.69 257.84 C 438.66 261.86 436.20 269.90 437.95 276.80 C 440.27 286.31 446.43 294.19 450.39 303.02 C 464.40 304.77 480.98 303.94 491.16 292.83 C 491.80 285.95 491.74 278.93 490.73 272.09 C 489.82 266.56 487.54 260.49 482.33 257.70 C 478.35 256.21 477.05 251.63 473.56 249.42 C 468.45 245.14 461.11 247.11 455.66 249.67 Z" />
<path fill="#ffffff" opacity="1.00" d=" M 714.64 214.38 C 721.48 213.55 728.17 216.42 733.55 220.46 C 739.55 224.96 744.40 231.45 745.66 238.99 C 733.33 234.23 719.40 227.75 714.64 214.38 Z" />
<path fill="#000000" opacity="1.00" d=" M 455.66 249.67 C 461.11 247.11 468.45 245.14 473.56 249.42 C 477.05 251.63 478.35 256.21 482.33 257.70 C 487.54 260.49 489.82 266.56 490.73 272.09 C 491.74 278.93 491.80 285.95 491.16 292.83 C 480.98 303.94 464.40 304.77 450.39 303.02 C 446.43 294.19 440.27 286.31 437.95 276.80 C 436.20 269.90 438.66 261.86 444.69 257.84 C 448.79 255.72 451.36 251.51 455.66 249.67 M 455.90 262.20 C 455.69 263.86 455.73 265.54 455.69 267.22 C 459.33 267.13 463.09 267.70 466.63 266.65 C 468.80 266.01 471.01 263.90 470.60 261.49 C 469.60 259.80 468.35 258.15 466.59 257.22 C 462.52 257.19 458.79 259.50 455.90 262.20 Z" />
<path fill="#000000" opacity="1.00" d=" M 217.42 254.66 C 225.23 253.15 233.60 255.19 239.80 260.20 C 242.98 262.12 242.84 266.27 243.56 269.50 C 245.20 279.48 242.72 290.94 234.48 297.47 C 223.87 306.15 207.96 305.33 196.68 298.36 C 195.41 297.74 195.56 296.12 195.26 294.96 C 194.12 286.43 194.43 277.31 198.46 269.52 C 202.08 262.02 209.20 256.25 217.42 254.66 Z" />
<path fill="#ffffff" opacity="1.00" d=" M 455.90 262.20 C 458.79 259.50 462.52 257.19 466.59 257.22 C 468.35 258.15 469.60 259.80 470.60 261.49 C 471.01 263.90 468.80 266.01 466.63 266.65 C 463.09 267.70 459.33 267.13 455.69 267.22 C 455.73 265.54 455.69 263.86 455.90 262.20 Z" />
<path fill="#ffffff" opacity="1.00" d=" M 656.89 287.67 C 668.15 302.17 677.15 318.49 683.03 335.91 C 688.27 351.53 690.85 368.26 688.76 384.69 C 679.92 364.03 670.85 343.39 664.16 321.90 C 660.79 310.73 657.96 299.31 656.89 287.67 Z" />
<path fill="#000000" opacity="1.00" d=" M 551.70 435.66 C 554.83 433.63 558.41 435.64 561.52 436.67 C 565.05 437.75 566.96 441.32 570.37 442.58 C 578.20 445.80 582.39 453.72 586.33 460.72 C 587.90 463.02 586.83 466.85 583.88 467.32 C 581.89 468.00 579.83 466.78 578.93 465.02 C 575.75 459.62 572.87 453.63 567.30 450.27 C 558.85 491.12 554.78 533.12 540.73 572.64 C 534.42 590.37 525.92 607.47 514.39 622.41 C 502.47 638.11 487.15 650.93 470.76 661.73 C 437.61 683.43 398.14 694.76 358.63 695.64 C 317.22 696.64 275.92 686.82 238.42 669.55 C 230.73 662.71 224.83 653.74 221.24 644.08 C 218.53 645.76 216.66 648.31 214.77 650.80 C 211.29 654.05 205.05 650.73 205.54 646.03 C 207.04 639.53 213.14 635.62 218.66 632.69 C 225.91 628.52 235.60 627.42 242.90 632.04 C 246.48 634.95 244.52 641.55 239.80 641.75 C 236.29 641.44 233.00 639.45 229.35 640.08 C 231.45 647.34 235.85 653.65 240.65 659.39 C 241.84 660.84 243.23 662.20 245.01 662.90 C 287.75 681.90 335.53 691.33 382.17 684.99 C 416.97 680.47 450.65 666.95 478.44 645.44 C 491.22 635.66 502.88 624.24 511.92 610.87 C 525.39 591.25 533.74 568.63 539.71 545.74 C 548.08 513.41 552.28 480.23 558.78 447.52 C 556.56 446.65 554.25 446.04 552.08 445.07 C 548.53 443.36 548.30 437.66 551.70 435.66 Z" />
<path fill="#ffffff" opacity="1.00" d=" M 13.79 499.88 C 33.60 545.48 45.27 594.12 53.94 642.93 C 42.96 629.13 35.32 612.97 29.73 596.32 C 21.40 571.15 17.40 544.84 13.41 518.71 C 13.11 515.38 11.70 511.97 12.87 508.68 C 13.71 505.82 13.56 502.81 13.79 499.88 Z" />
<path fill="#000000" opacity="1.00" d=" M 882.51 511.45 C 883.45 509.21 884.51 506.58 887.21 506.10 C 896.12 504.30 905.09 508.30 914.02 506.45 C 912.63 509.85 911.66 514.51 907.57 515.61 C 903.51 516.33 899.67 514.35 895.86 513.27 C 891.57 511.78 887.02 511.35 882.51 511.45 Z" />
<path fill="#000000" opacity="1.00" d=" M 894.93 523.83 C 899.11 521.25 904.29 521.96 908.97 521.61 C 907.49 524.43 906.22 527.63 903.44 529.44 C 900.42 531.64 896.58 532.04 892.97 532.10 C 892.79 529.31 892.26 525.67 894.93 523.83 Z" />
<path fill="#000000" opacity="1.00" d=" M 892.96 607.93 C 895.06 609.60 897.30 611.22 899.95 611.91 C 909.62 614.66 919.72 612.80 929.59 613.38 C 928.11 615.07 926.46 616.71 924.27 617.41 C 917.53 619.85 910.16 620.54 903.06 619.66 C 899.39 619.10 895.28 617.93 893.17 614.62 C 892.03 612.52 892.64 610.13 892.96 607.93 Z" />
<path fill="#000000" opacity="1.00" d=" M 887.74 628.53 C 896.89 627.04 906.92 628.18 914.43 634.00 C 911.95 638.94 905.99 639.87 901.03 640.22 C 896.65 640.26 891.73 639.83 888.36 636.74 C 886.14 634.53 887.09 631.18 887.74 628.53 Z" />
<path fill="#000000" opacity="1.00" d=" M 897.91 695.01 C 902.96 699.92 910.50 697.81 916.46 700.45 C 920.17 702.20 919.68 706.84 919.03 710.18 C 913.22 710.66 906.59 711.11 901.72 707.31 C 898.10 704.34 897.99 699.30 897.91 695.01 Z" />
<path fill="#000000" opacity="1.00" d=" M 893.25 715.00 C 901.83 715.00 910.41 715.00 918.99 715.00 C 919.95 718.45 920.57 723.68 916.34 725.19 C 908.76 727.36 900.91 724.07 893.23 725.33 C 893.26 721.88 893.25 718.44 893.25 715.00 Z" />
</svg>
