<?xml version="1.0" encoding="UTF-8" ?>
<!DOCTYPE svg PUBLIC "-//W3C//DTD SVG 1.1//EN" "http://www.w3.org/Graphics/SVG/1.1/DTD/svg11.dtd">
<svg width="435pt" height="435pt" viewBox="0 0 435 435" version="1.1" xmlns="http://www.w3.org/2000/svg">
<g id="#ffffffff">
<path fill="#ffffff" opacity="1.00" d=" M 0.00 0.00 L 435.00 0.00 L 435.00 435.00 L 0.00 435.00 L 0.00 0.00 M 213.51 4.32 C 215.94 7.44 219.36 9.46 222.26 12.07 C 222.46 13.59 222.60 15.11 222.66 16.63 C 219.50 16.91 216.57 15.90 214.33 13.66 C 209.18 10.02 203.17 4.64 196.42 7.38 C 196.43 8.85 196.45 10.31 196.48 11.77 C 200.20 14.03 204.44 15.04 208.50 16.50 C 208.57 17.47 208.65 18.45 208.74 19.42 C 195.13 20.59 182.11 25.15 169.71 30.72 C 161.84 33.07 154.34 36.58 146.17 37.83 C 138.87 36.95 131.15 39.63 126.04 44.94 C 124.98 45.92 123.97 46.95 123.09 48.09 C 119.40 50.72 117.36 54.86 116.02 59.06 C 114.21 61.54 111.63 63.28 108.44 62.76 C 108.43 63.08 108.42 63.72 108.42 64.05 C 107.79 65.29 106.02 66.58 107.12 68.06 C 106.09 69.99 105.48 72.48 103.30 73.46 C 99.39 75.80 94.38 73.11 90.62 75.74 C 89.33 78.41 92.22 80.40 93.47 82.40 C 90.83 82.52 88.20 82.66 85.56 82.66 C 84.77 86.22 84.45 89.83 84.56 93.47 C 80.61 95.68 76.55 98.22 74.38 102.35 C 72.58 105.87 69.66 108.61 66.60 111.02 C 67.85 113.58 67.82 116.56 65.87 118.76 C 61.88 123.85 57.00 128.17 52.85 133.13 C 49.91 128.83 53.67 123.92 51.68 119.38 C 51.04 119.40 49.76 119.44 49.12 119.46 C 51.04 123.85 50.81 128.75 50.43 133.41 C 47.53 143.35 41.68 152.13 38.74 162.06 C 37.94 165.70 38.90 169.31 40.60 172.54 C 41.08 172.61 42.04 172.77 42.52 172.84 C 42.36 169.96 42.72 167.11 43.94 164.47 C 46.85 166.86 44.21 170.00 43.72 172.85 C 43.27 181.80 38.66 189.81 36.58 198.37 C 36.11 203.03 35.44 207.74 33.79 212.15 C 33.60 206.39 32.19 200.81 32.34 195.03 C 30.69 186.54 32.50 177.76 30.37 169.32 C 29.91 169.34 29.00 169.38 28.55 169.40 C 26.87 182.19 27.83 195.14 27.67 208.01 C 29.01 219.29 28.16 230.67 28.55 242.00 C 28.21 247.72 29.68 253.29 29.55 259.00 C 30.09 263.32 31.31 267.58 31.33 271.98 C 31.54 275.44 31.11 279.07 32.51 282.35 C 34.55 287.05 32.63 292.46 35.04 297.09 C 37.12 301.07 35.55 305.88 38.01 309.75 C 39.76 299.20 35.25 288.94 35.49 278.41 C 35.49 274.59 35.42 270.77 34.72 267.01 C 34.46 259.36 34.34 251.70 34.65 244.05 C 35.00 244.56 35.70 245.58 36.06 246.09 C 37.32 252.54 37.38 259.15 37.94 265.69 C 39.46 263.05 40.19 260.09 40.36 257.05 C 40.53 242.36 40.26 227.66 40.75 212.99 C 42.01 207.87 40.82 202.52 42.30 197.45 C 42.78 190.88 43.19 183.75 47.30 178.29 C 51.67 172.08 51.49 164.25 52.45 157.06 C 52.34 149.91 52.52 142.45 55.97 135.98 C 57.69 132.06 62.05 130.70 65.16 128.16 C 72.82 122.21 79.39 114.99 85.52 107.51 C 89.77 102.34 91.22 95.34 96.12 90.65 C 97.83 90.41 99.56 90.43 101.28 90.39 C 100.34 84.46 104.71 80.16 107.85 75.76 C 109.86 72.05 111.27 68.04 113.52 64.47 C 125.33 60.39 130.84 46.80 143.26 43.93 C 147.42 43.41 151.55 42.54 155.75 42.32 C 159.95 43.12 164.26 43.16 168.51 42.72 C 178.30 41.71 188.19 41.42 198.00 42.24 C 203.99 42.63 209.52 46.06 215.63 45.22 C 220.63 46.72 224.08 50.89 228.30 53.58 C 235.12 50.70 242.62 51.33 249.84 51.61 C 260.67 53.76 270.39 59.21 280.47 63.47 C 282.71 64.50 285.59 65.25 286.36 67.94 C 286.72 71.10 286.63 74.30 286.61 77.48 C 287.91 77.53 289.22 77.69 290.53 77.57 C 291.73 76.41 292.84 75.17 294.03 74.01 C 295.23 75.29 296.58 76.46 297.49 77.98 C 297.56 79.50 297.49 81.02 297.48 82.54 C 299.78 84.66 302.06 86.86 303.60 89.62 C 298.41 89.12 293.30 88.21 288.04 88.45 C 278.44 85.82 268.02 89.67 258.67 85.69 C 254.11 83.54 249.10 82.58 244.09 82.42 C 239.79 81.30 235.74 79.28 231.38 78.33 C 229.57 81.67 228.97 85.47 228.55 89.20 C 232.90 88.84 236.94 90.42 240.77 92.28 L 239.67 92.18 C 243.89 94.19 248.69 93.82 253.06 95.24 C 255.06 95.85 255.76 98.00 256.81 99.57 C 246.95 102.45 237.48 106.99 229.44 113.43 C 214.43 125.15 204.04 142.76 201.54 161.68 C 201.25 167.66 201.31 173.65 201.49 179.63 C 202.13 189.70 206.15 199.20 211.16 207.83 C 221.69 225.32 239.42 238.73 259.47 243.01 C 256.53 240.46 253.25 238.02 251.51 234.44 C 249.78 231.40 250.35 227.72 250.50 224.38 C 251.66 219.31 255.85 215.19 260.76 213.62 C 264.77 213.19 269.24 212.78 272.73 215.23 C 280.64 219.61 282.22 231.58 276.05 238.03 C 272.83 241.81 267.71 242.79 263.15 243.98 C 266.73 244.80 270.32 245.72 274.03 245.60 C 281.22 245.60 288.53 246.13 295.60 244.50 C 312.19 241.19 327.93 232.93 339.40 220.40 C 341.87 217.55 344.63 214.63 345.24 210.75 C 345.28 210.67 345.38 210.52 345.42 210.45 C 345.88 210.40 346.79 210.32 347.25 210.27 L 347.30 209.42 C 353.48 201.59 356.35 191.71 358.22 182.06 C 358.95 175.59 358.75 169.04 358.50 162.54 C 356.61 145.41 348.00 129.33 335.46 117.60 C 332.58 114.97 329.36 112.73 326.61 109.95 C 325.83 107.07 327.81 104.56 329.54 102.49 C 330.82 102.24 332.13 102.23 333.43 102.16 C 338.27 110.42 343.75 118.29 348.83 126.41 C 355.87 139.05 363.79 151.44 367.88 165.44 C 368.56 167.12 368.53 168.94 368.57 170.72 C 368.44 177.84 370.74 184.87 374.46 190.91 C 377.00 195.43 380.79 199.25 382.43 204.26 C 384.74 210.95 385.56 218.02 387.23 224.88 C 387.51 230.95 389.59 236.81 389.51 242.91 C 389.58 245.60 389.44 248.32 389.95 250.98 C 391.10 256.59 389.85 262.40 391.26 267.98 C 391.55 280.10 391.47 292.24 391.46 304.36 C 393.16 305.40 394.89 306.39 396.60 307.42 C 396.52 310.70 396.85 314.03 396.23 317.27 C 394.73 322.36 395.66 327.71 395.23 332.92 C 391.43 339.28 386.44 345.10 384.37 352.37 C 377.07 369.76 373.41 388.38 367.00 406.08 C 368.71 406.12 370.43 406.15 372.16 406.17 C 378.13 398.11 377.63 387.12 384.22 379.44 C 386.35 376.95 384.45 373.32 386.22 370.68 C 388.86 365.28 392.27 359.77 391.43 353.50 C 392.70 353.46 393.98 353.43 395.26 353.40 C 398.27 349.29 399.31 344.13 399.89 339.17 C 400.50 335.32 403.29 332.57 405.70 329.76 C 406.17 325.65 405.67 321.44 405.08 317.37 C 404.57 319.66 404.62 322.01 404.42 324.34 C 403.67 324.47 402.17 324.73 401.41 324.86 C 401.42 319.53 401.67 314.19 400.56 308.95 C 399.48 305.26 403.41 302.65 402.62 299.00 C 401.96 292.43 400.50 285.91 400.53 279.25 C 401.01 275.89 401.24 272.49 401.30 269.10 C 400.65 268.83 399.35 268.28 398.70 268.00 C 398.27 264.34 398.55 260.65 398.33 256.98 C 397.53 253.14 397.14 249.24 396.36 245.40 C 394.90 238.24 396.29 230.84 394.71 223.71 C 394.20 216.12 392.19 208.67 392.55 201.02 C 392.98 196.83 390.44 193.13 390.53 188.99 C 390.62 183.44 387.91 178.38 386.01 173.30 C 381.68 162.01 373.90 152.63 366.87 142.96 C 361.65 134.17 356.11 125.25 354.11 115.08 C 353.26 111.78 352.08 108.50 352.36 105.02 C 352.10 102.16 353.24 98.54 350.47 96.59 C 340.85 88.52 336.20 76.39 327.49 67.53 C 324.97 65.47 325.23 61.90 323.49 59.34 C 321.66 56.49 318.95 54.31 317.40 51.26 C 315.88 49.38 316.48 46.83 316.25 44.60 C 312.76 44.60 309.27 44.57 305.92 43.51 C 304.38 40.53 303.05 37.05 299.96 35.33 C 296.22 32.97 292.24 31.01 288.10 29.48 C 284.24 28.20 281.59 24.92 278.84 22.12 C 273.93 16.77 271.48 8.39 263.73 6.37 C 263.65 9.12 263.65 11.87 263.58 14.63 C 258.76 14.43 253.52 15.54 249.13 13.03 C 244.19 10.89 239.23 8.01 233.66 8.45 C 233.55 10.66 233.60 12.95 232.55 14.97 C 229.51 13.76 226.47 12.37 224.05 10.11 C 220.90 7.66 217.83 4.28 213.51 4.32 M 131.96 102.91 C 125.42 106.70 118.35 109.65 112.46 114.48 C 107.70 119.05 102.71 123.36 97.95 127.92 C 94.40 130.17 90.55 131.93 86.96 134.14 C 83.72 134.97 80.24 134.21 76.92 134.64 C 75.43 137.57 74.54 141.39 75.93 144.44 C 79.28 144.52 82.64 144.67 85.97 144.34 C 88.15 143.11 90.11 141.52 92.35 140.40 C 98.77 137.60 103.39 132.10 108.49 127.49 C 116.37 118.64 128.41 115.69 137.55 108.53 C 141.51 105.69 142.78 100.48 142.33 95.84 C 138.77 98.05 135.60 100.84 131.96 102.91 M 107.68 139.99 C 105.20 137.70 106.95 143.33 107.68 139.99 C 109.12 140.49 110.55 140.47 111.98 139.91 C 116.47 138.80 120.96 140.51 125.47 140.56 C 143.75 142.99 160.38 155.18 168.10 171.95 C 178.16 192.08 173.90 218.12 158.06 234.06 C 149.87 242.94 138.62 248.92 126.68 250.72 C 124.60 250.90 123.02 252.32 121.15 253.06 C 129.82 254.01 139.34 255.84 145.75 262.25 C 148.12 264.26 147.80 267.55 147.41 270.33 C 142.42 277.63 133.17 279.60 125.08 281.31 C 115.79 282.12 106.45 281.13 97.16 281.63 C 103.20 283.67 109.35 285.55 115.68 286.43 C 122.55 286.70 129.44 286.74 136.31 286.42 C 150.64 284.45 164.56 278.92 176.00 270.01 C 191.52 258.11 202.28 239.94 204.51 220.46 C 204.79 211.08 205.15 201.53 202.56 192.41 C 196.73 173.63 183.65 157.10 166.36 147.62 C 154.70 141.18 141.44 136.99 128.03 137.36 C 121.16 137.33 114.07 137.00 107.68 139.99 M 93.25 144.23 C 93.80 144.81 93.80 144.81 93.25 144.23 M 72.06 157.21 C 58.66 169.02 49.53 185.75 47.49 203.54 C 47.37 211.78 46.67 220.19 48.85 228.24 C 53.32 246.91 65.26 264.10 81.94 273.82 C 80.62 270.22 78.92 265.29 82.29 262.29 C 90.10 254.22 102.11 254.00 112.44 252.06 C 105.76 250.09 98.77 248.87 92.61 245.45 C 74.03 236.31 61.13 215.83 62.35 194.97 C 61.74 184.14 65.76 173.56 71.57 164.59 C 76.95 156.43 84.86 150.52 92.64 144.84 C 84.87 147.11 78.20 152.08 72.06 157.21 M 209.43 236.81 C 209.08 241.45 214.85 241.84 217.13 244.84 C 220.46 248.92 225.31 251.98 227.01 257.18 C 224.96 258.09 222.89 258.93 220.82 259.77 C 219.85 258.82 218.89 257.86 217.94 256.90 C 214.56 259.86 212.60 264.00 212.41 268.49 C 217.24 270.74 222.48 268.85 227.23 267.38 C 229.15 260.93 233.12 254.69 231.40 247.70 C 225.96 242.09 221.52 235.40 214.96 230.99 C 213.26 228.20 212.20 225.08 210.96 222.08 C 208.53 226.63 209.42 231.88 209.43 236.81 M 320.82 237.62 C 315.88 239.75 310.68 241.89 306.78 245.71 C 303.82 250.50 304.18 256.56 305.19 261.89 C 302.75 264.31 299.89 266.69 299.17 270.23 C 297.81 275.74 296.48 281.35 296.48 287.06 C 296.30 291.43 299.41 294.78 301.56 298.26 C 303.19 300.68 304.39 303.42 306.38 305.58 C 310.34 306.08 314.55 305.08 318.32 306.78 C 323.61 309.24 323.10 317.55 329.20 318.90 C 334.38 320.38 339.61 322.03 345.02 322.37 C 350.88 322.26 354.43 316.94 358.47 313.48 C 363.08 309.74 366.10 304.36 371.18 301.17 C 374.04 299.51 374.35 295.93 375.47 293.13 C 377.00 288.20 379.51 283.37 379.15 278.07 C 378.62 270.61 376.71 262.96 372.18 256.87 C 370.14 253.60 365.88 253.90 362.77 252.33 C 360.65 249.34 360.53 244.90 357.47 242.68 C 350.60 241.09 344.16 237.70 337.01 237.43 C 331.65 236.99 325.99 235.31 320.82 237.62 M 252.70 269.63 C 250.03 276.48 243.65 280.64 238.47 285.45 C 235.18 287.56 231.62 289.23 228.35 291.39 C 223.91 294.29 218.52 294.74 213.71 296.72 C 208.34 299.20 202.45 300.15 196.78 301.70 C 195.00 302.28 192.91 302.40 191.62 303.91 C 190.78 310.46 193.50 317.21 198.34 321.64 C 203.01 325.98 208.44 329.57 212.34 334.70 C 214.17 337.43 217.61 338.62 220.79 338.47 C 223.48 337.65 226.08 336.53 228.82 335.81 C 235.61 333.92 240.74 328.59 247.39 326.37 C 251.83 324.86 254.48 320.62 258.67 318.65 C 261.36 317.40 263.42 314.82 263.52 311.79 C 263.80 305.75 265.87 299.90 265.50 293.81 C 265.29 289.14 266.06 284.53 266.43 279.90 C 266.92 276.76 264.16 274.66 262.93 272.08 C 261.89 269.13 261.24 266.06 260.28 263.08 C 256.55 263.13 253.90 266.37 252.70 269.63 M 40.61 272.06 C 39.47 280.06 43.44 287.51 44.73 295.25 C 48.18 308.67 51.74 322.08 55.49 335.42 C 55.70 336.96 55.59 338.52 55.58 340.09 C 52.22 336.51 49.29 332.58 46.22 328.76 C 43.24 325.26 40.89 321.02 40.59 316.35 C 40.42 312.90 39.89 309.49 39.08 306.14 C 38.57 312.73 37.91 319.49 38.81 326.06 C 43.00 335.91 50.66 343.71 56.33 352.67 C 57.89 356.35 60.86 359.76 60.46 363.97 C 60.23 368.74 60.79 373.51 62.01 378.12 C 63.96 383.46 66.23 388.69 67.83 394.15 C 68.71 396.75 68.08 399.81 69.89 402.09 C 72.12 405.03 73.80 408.32 75.49 411.59 C 76.33 411.50 78.03 411.30 78.88 411.20 C 74.74 400.67 70.25 390.20 67.75 379.13 C 67.53 374.76 66.56 370.46 66.48 366.08 C 67.20 366.24 68.64 366.55 69.35 366.70 C 74.71 373.25 79.36 380.41 85.29 386.49 C 85.59 387.57 86.01 388.59 86.56 389.57 C 93.26 395.91 102.42 399.04 111.55 399.46 C 115.99 405.21 123.15 407.15 129.51 409.95 C 130.71 404.42 125.03 399.84 119.84 400.44 C 116.06 401.24 113.97 397.60 111.22 395.78 C 104.02 390.23 94.52 389.07 87.22 383.71 C 84.24 381.64 83.75 377.76 82.33 374.68 C 79.89 368.27 73.94 364.38 69.51 359.47 C 66.41 356.87 65.81 352.70 64.93 349.00 C 62.03 336.10 57.63 323.62 54.26 310.85 C 49.78 297.90 45.77 284.76 40.61 272.06 M 104.40 296.50 C 99.54 297.76 95.45 300.78 90.97 302.90 C 87.98 304.43 84.53 305.62 82.63 308.58 C 77.77 315.74 74.36 323.83 72.44 332.25 C 71.19 337.95 68.51 343.67 69.58 349.60 C 71.02 354.33 73.81 358.49 76.04 362.86 C 80.12 370.64 87.70 375.69 95.24 379.73 C 100.30 382.42 105.19 386.08 111.12 386.45 C 117.74 386.82 124.67 387.37 131.00 384.93 C 134.46 383.61 138.17 382.53 140.98 380.01 C 145.01 376.00 147.46 370.38 152.48 367.39 C 156.42 365.83 160.63 365.14 164.73 364.13 C 164.06 360.63 162.74 356.88 164.28 353.41 C 165.12 350.53 167.15 347.65 166.19 344.55 C 165.13 340.59 163.50 336.74 163.21 332.61 C 162.65 327.67 162.84 322.26 159.93 317.99 C 156.97 314.31 152.79 311.88 149.63 308.38 C 143.96 302.29 136.71 296.45 128.02 296.15 C 120.18 295.64 112.11 294.33 104.40 296.50 M 252.82 352.96 C 250.26 357.31 244.80 358.66 240.07 358.59 C 235.37 358.56 231.05 355.86 226.35 356.12 C 222.60 356.88 221.59 360.76 221.28 364.05 C 228.26 366.67 235.45 369.54 243.04 369.17 C 247.58 368.92 252.41 368.04 255.93 364.94 C 259.61 361.68 262.55 357.42 263.89 352.66 C 264.96 349.32 262.57 345.13 259.04 344.63 C 255.90 346.43 254.84 350.17 252.82 352.96 Z" />
<path fill="#ffffff" opacity="1.00" d=" M 256.19 18.26 C 262.06 18.08 267.27 21.06 272.30 23.70 C 281.19 29.37 288.70 36.86 297.35 42.85 C 297.78 47.56 297.43 52.42 296.27 57.02 C 289.85 49.21 285.32 40.00 278.47 32.52 C 274.90 28.70 270.85 25.25 266.26 22.70 C 265.09 22.49 263.91 22.43 262.74 22.32 C 262.32 22.74 261.50 23.58 261.08 24.00 C 264.10 34.06 277.79 34.70 281.11 44.74 C 280.11 44.62 278.10 44.37 277.10 44.25 C 268.48 38.78 259.98 31.90 256.59 21.89 C 256.49 20.98 256.29 19.17 256.19 18.26 Z" />
<path fill="#ffffff" opacity="1.00" d=" M 203.60 25.47 C 208.02 24.77 212.36 22.89 216.92 23.59 C 225.35 29.02 234.97 32.62 242.53 39.36 C 243.17 41.50 240.41 42.62 238.70 42.53 C 233.27 42.52 227.72 43.15 222.41 41.78 C 212.16 39.94 202.28 36.25 191.88 35.25 C 184.99 33.78 177.92 34.95 170.95 34.48 C 172.47 33.48 173.96 32.40 175.65 31.70 C 184.70 28.58 194.18 27.01 203.60 25.47 Z" />
<path fill="#ffffff" opacity="1.00" d=" M 303.66 48.13 C 310.70 51.91 314.29 59.48 317.05 66.60 C 318.54 71.20 320.60 76.24 318.95 81.06 C 315.25 77.44 311.21 73.94 308.77 69.28 C 305.29 62.84 302.70 55.55 303.66 48.13 Z" />
<path fill="#ffffff" opacity="1.00" d=" M 262.94 99.59 C 268.74 99.24 274.59 99.15 280.38 99.65 C 289.64 101.23 298.60 104.96 305.96 110.84 C 318.61 120.58 326.70 136.01 327.49 151.95 C 328.23 165.12 323.87 178.42 315.83 188.84 C 312.22 193.39 307.73 197.13 303.65 201.23 C 309.70 199.89 315.51 197.56 321.66 196.64 C 326.35 196.18 331.09 196.25 335.80 196.42 C 340.27 196.65 345.15 198.54 347.34 202.71 C 347.70 204.93 347.45 207.19 347.30 209.42 C 346.83 209.68 345.89 210.19 345.42 210.45 C 345.38 210.52 345.28 210.67 345.24 210.75 C 341.99 214.74 337.82 217.86 333.28 220.23 C 322.74 225.69 310.81 228.73 298.92 228.42 C 294.07 227.89 288.41 226.74 285.58 222.33 C 283.58 215.76 289.52 211.27 293.37 206.98 C 286.91 208.07 280.65 210.43 274.05 210.48 C 256.73 211.31 239.18 203.34 228.42 189.75 C 225.06 182.02 220.53 174.69 218.68 166.38 C 215.57 153.23 217.62 138.93 224.37 127.23 C 227.72 122.01 232.10 117.55 235.59 112.42 C 243.26 105.73 252.82 100.99 262.94 99.59 Z" />
<path fill="#ffffff" opacity="1.00" d=" M 369.80 162.68 C 369.06 160.53 369.33 158.23 369.45 156.02 C 372.51 158.50 376.39 160.63 377.75 164.58 C 380.28 171.34 382.49 178.22 385.57 184.76 C 387.95 189.80 388.88 195.31 390.46 200.61 C 390.80 204.38 390.74 208.18 390.47 211.96 C 388.62 210.54 387.38 208.63 386.87 206.38 C 382.38 191.35 374.40 177.66 369.80 162.68 Z" />
<path fill="#ffffff" opacity="1.00" d=" M 166.36 234.46 C 170.19 234.27 174.38 233.92 177.63 236.37 C 185.54 240.82 187.14 252.63 181.41 259.41 C 178.43 263.01 173.74 265.20 169.03 264.68 C 162.31 265.14 156.11 259.81 154.53 253.46 C 154.39 249.87 153.73 245.91 155.62 242.66 C 157.64 238.47 161.75 235.15 166.36 234.46 Z" />
<path fill="#ffffff" opacity="1.00" d=" M 254.49 278.48 C 255.64 275.86 257.25 273.50 259.24 271.45 C 259.86 272.85 260.81 274.25 260.60 275.87 C 260.05 282.51 260.98 289.16 260.60 295.80 C 260.56 298.12 258.53 299.65 257.53 301.58 C 257.09 304.29 257.49 307.05 257.62 309.77 C 253.26 311.85 250.53 316.33 245.88 317.86 C 238.93 320.03 233.74 325.84 226.63 327.66 C 222.77 329.05 218.61 328.60 214.60 328.55 C 210.00 321.34 202.42 316.99 196.70 310.83 C 202.57 308.77 208.80 307.93 214.55 305.51 C 219.80 303.28 225.77 302.86 230.57 299.54 C 233.56 297.42 236.99 296.04 240.00 293.96 C 245.25 289.26 251.45 285.08 254.49 278.48 Z" />
</g>
<g id="#010101ff">
<path fill="#010101" opacity="1.00" d=" M 213.51 4.32 C 217.83 4.28 220.90 7.66 224.05 10.11 C 226.47 12.37 229.51 13.76 232.55 14.97 C 233.60 12.95 233.55 10.66 233.66 8.45 C 239.23 8.01 244.19 10.89 249.13 13.03 C 253.52 15.54 258.76 14.43 263.58 14.63 C 263.65 11.87 263.65 9.12 263.73 6.37 C 271.48 8.39 273.93 16.77 278.84 22.12 C 281.59 24.92 284.24 28.20 288.10 29.48 C 292.24 31.01 296.22 32.97 299.96 35.33 C 303.05 37.05 304.38 40.53 305.92 43.51 C 309.27 44.57 312.76 44.60 316.25 44.60 C 316.48 46.83 315.88 49.38 317.40 51.26 C 318.95 54.31 321.66 56.49 323.49 59.34 C 325.23 61.90 324.97 65.47 327.49 67.53 C 336.20 76.39 340.85 88.52 350.47 96.59 C 353.24 98.54 352.10 102.16 352.36 105.02 C 352.08 108.50 353.26 111.78 354.11 115.08 C 356.11 125.25 361.65 134.17 366.87 142.96 C 373.90 152.63 381.68 162.01 386.01 173.30 C 387.91 178.38 390.62 183.44 390.53 188.99 C 390.44 193.13 392.98 196.83 392.55 201.02 C 392.19 208.67 394.20 216.12 394.71 223.71 C 396.29 230.84 394.90 238.24 396.36 245.40 C 397.14 249.24 397.53 253.14 398.33 256.98 C 398.55 260.65 398.27 264.34 398.70 268.00 C 399.31 271.75 400.14 275.47 400.53 279.25 C 400.50 285.91 401.96 292.43 402.62 299.00 C 403.41 302.65 399.48 305.26 400.56 308.95 C 401.67 314.19 401.42 319.53 401.41 324.86 C 402.17 324.73 403.67 324.47 404.42 324.34 C 404.62 322.01 404.57 319.66 405.08 317.37 C 405.67 321.44 406.17 325.65 405.70 329.76 C 403.29 332.57 400.50 335.32 399.89 339.17 C 399.31 344.13 398.27 349.29 395.26 353.40 C 393.98 353.43 392.70 353.46 391.43 353.50 C 392.27 359.77 388.86 365.28 386.22 370.68 C 384.45 373.32 386.35 376.95 384.22 379.44 C 377.63 387.12 378.13 398.11 372.16 406.17 C 370.43 406.15 368.71 406.12 367.00 406.08 C 373.41 388.38 377.07 369.76 384.37 352.37 C 386.44 345.10 391.43 339.28 395.23 332.92 C 395.66 327.71 394.73 322.36 396.23 317.27 C 396.85 314.03 396.52 310.70 396.60 307.42 C 394.89 306.39 393.16 305.40 391.46 304.36 C 391.47 292.24 391.55 280.10 391.26 267.98 C 389.85 262.40 391.10 256.59 389.95 250.98 C 389.44 248.32 389.58 245.60 389.51 242.91 C 389.59 236.81 387.51 230.95 387.23 224.88 C 385.56 218.02 384.74 210.95 382.43 204.26 C 380.79 199.25 377.00 195.43 374.46 190.91 C 370.74 184.87 368.44 177.84 368.57 170.72 C 368.53 168.94 368.56 167.12 367.88 165.44 C 363.79 151.44 355.87 139.05 348.83 126.41 C 343.75 118.29 338.27 110.42 333.43 102.16 C 332.13 102.23 330.82 102.24 329.54 102.49 C 327.81 104.56 325.83 107.07 326.61 109.95 C 329.36 112.73 332.58 114.97 335.46 117.60 C 348.00 129.33 356.61 145.41 358.50 162.54 C 358.75 169.04 358.95 175.59 358.22 182.06 C 356.35 191.71 353.48 201.59 347.30 209.42 C 347.45 207.19 347.70 204.93 347.34 202.71 C 345.15 198.54 340.27 196.65 335.80 196.42 C 331.09 196.25 326.35 196.18 321.66 196.64 C 315.51 197.56 309.70 199.89 303.65 201.23 C 307.73 197.13 312.22 193.39 315.83 188.84 C 323.87 178.42 328.23 165.12 327.49 151.95 C 326.70 136.01 318.61 120.58 305.96 110.84 C 298.60 104.96 289.64 101.23 280.38 99.65 C 274.59 99.15 268.74 99.24 262.94 99.59 C 252.82 100.99 243.26 105.73 235.59 112.42 C 222.72 122.94 215.60 139.53 215.63 156.03 C 216.39 168.19 220.36 180.44 228.42 189.75 C 239.18 203.34 256.73 211.31 274.05 210.48 C 280.65 210.43 286.91 208.07 293.37 206.98 C 289.52 211.27 283.58 215.76 285.58 222.33 C 288.41 226.74 294.07 227.89 298.92 228.42 C 310.81 228.73 322.74 225.69 333.28 220.23 C 337.82 217.86 341.99 214.74 345.24 210.75 C 344.63 214.63 341.87 217.55 339.40 220.40 C 327.93 232.93 312.19 241.19 295.60 244.50 C 288.53 246.13 281.22 245.60 274.03 245.60 C 270.32 245.72 266.73 244.80 263.15 243.98 C 267.71 242.79 272.83 241.81 276.05 238.03 C 282.22 231.58 280.64 219.61 272.73 215.23 C 269.24 212.78 264.77 213.19 260.76 213.62 C 255.85 215.19 251.66 219.31 250.50 224.38 C 250.35 227.72 249.78 231.40 251.51 234.44 C 253.25 238.02 256.53 240.46 259.47 243.01 C 239.42 238.73 221.69 225.32 211.16 207.83 C 206.15 199.20 202.13 189.70 201.49 179.63 C 201.31 173.65 201.25 167.66 201.54 161.68 C 204.04 142.76 214.43 125.15 229.44 113.43 C 237.48 106.99 246.95 102.45 256.81 99.57 C 258.72 99.03 260.64 98.50 262.57 97.99 C 255.73 94.72 248.52 91.66 240.77 92.28 C 236.94 90.42 232.90 88.84 228.55 89.20 C 228.97 85.47 229.57 81.67 231.38 78.33 C 235.74 79.28 239.79 81.30 244.09 82.42 C 249.10 82.58 254.11 83.54 258.67 85.69 C 268.02 89.67 278.44 85.82 288.04 88.45 C 293.30 88.21 298.41 89.12 303.60 89.62 C 302.06 86.86 299.78 84.66 297.48 82.54 C 297.49 81.02 297.56 79.50 297.49 77.98 C 296.58 76.46 295.23 75.29 294.03 74.01 C 292.84 75.17 291.73 76.41 290.53 77.57 C 289.22 77.69 287.91 77.53 286.61 77.48 C 286.63 74.30 286.72 71.10 286.36 67.94 C 285.59 65.25 282.71 64.50 280.47 63.47 C 270.39 59.21 260.67 53.76 249.84 51.61 C 242.62 51.33 235.12 50.70 228.30 53.58 C 224.08 50.89 220.63 46.72 215.63 45.22 C 201.94 38.99 186.60 40.45 171.99 40.45 C 166.51 40.32 161.13 41.45 155.75 42.32 C 151.55 42.54 147.42 43.41 143.26 43.93 C 130.84 46.80 125.33 60.39 113.52 64.47 C 111.78 65.26 110.08 66.12 108.38 66.99 C 108.39 66.25 108.41 64.78 108.42 64.05 C 108.42 63.72 108.43 63.08 108.44 62.76 C 111.63 63.28 114.21 61.54 116.02 59.06 C 118.81 55.69 120.59 51.66 123.09 48.09 C 123.97 46.95 124.98 45.92 126.04 44.94 C 131.97 40.78 139.18 39.18 146.17 37.83 C 154.34 36.58 161.84 33.07 169.71 30.72 C 182.11 25.15 195.13 20.59 208.74 19.42 C 208.65 18.45 208.57 17.47 208.50 16.50 C 204.44 15.04 200.20 14.03 196.48 11.77 C 196.45 10.31 196.43 8.85 196.42 7.38 C 203.17 4.64 209.18 10.02 214.33 13.66 C 216.57 15.90 219.50 16.91 222.66 16.63 C 222.60 15.11 222.46 13.59 222.26 12.07 C 219.36 9.46 215.94 7.44 213.51 4.32 M 256.19 18.26 C 256.29 19.17 256.49 20.98 256.59 21.89 C 259.98 31.90 268.48 38.78 277.10 44.25 C 278.10 44.37 280.11 44.62 281.11 44.74 C 277.79 34.70 264.10 34.06 261.08 24.00 C 261.50 23.58 262.32 22.74 262.74 22.32 C 263.91 22.43 265.09 22.49 266.26 22.70 C 270.85 25.25 274.90 28.70 278.47 32.52 C 285.32 40.00 289.85 49.21 296.27 57.02 C 297.43 52.42 297.78 47.56 297.35 42.85 C 288.70 36.86 281.19 29.37 272.30 23.70 C 267.27 21.06 262.06 18.08 256.19 18.26 M 203.60 25.47 C 194.18 27.01 184.70 28.58 175.65 31.70 C 173.96 32.40 172.47 33.48 170.95 34.48 C 177.92 34.95 184.99 33.78 191.88 35.25 C 202.28 36.25 212.16 39.94 222.41 41.78 C 227.72 43.15 233.27 42.52 238.70 42.53 C 240.41 42.62 243.17 41.50 242.53 39.36 C 234.97 32.62 225.35 29.02 216.92 23.59 C 212.36 22.89 208.02 24.77 203.60 25.47 M 303.66 48.13 C 302.70 55.55 305.29 62.84 308.77 69.28 C 311.21 73.94 315.25 77.44 318.95 81.06 C 320.60 76.24 318.54 71.20 317.05 66.60 C 314.29 59.48 310.70 51.91 303.66 48.13 M 369.80 162.68 C 374.40 177.66 382.38 191.35 386.87 206.38 C 387.38 208.63 388.62 210.54 390.47 211.96 C 390.74 208.18 390.80 204.38 390.46 200.61 C 388.88 195.31 387.95 189.80 385.57 184.76 C 382.49 178.22 380.28 171.34 377.75 164.58 C 376.39 160.63 372.51 158.50 369.45 156.02 C 369.33 158.23 369.06 160.53 369.80 162.68 Z" />
<path fill="#010101" opacity="1.00" d=" M 107.12 68.06 C 108.28 70.45 108.85 73.20 107.85 75.76 C 104.71 80.16 100.34 84.46 101.28 90.39 C 99.56 90.43 97.83 90.41 96.12 90.65 C 91.22 95.34 89.77 102.34 85.52 107.51 C 79.39 114.99 72.82 122.21 65.16 128.16 C 62.05 130.70 57.69 132.06 55.97 135.98 C 52.52 142.45 52.34 149.91 52.45 157.06 C 51.49 164.25 51.67 172.08 47.30 178.29 C 43.19 183.75 42.78 190.88 42.30 197.45 C 40.82 202.52 42.01 207.87 40.75 212.99 C 40.26 227.66 40.53 242.36 40.36 257.05 C 40.19 260.09 39.46 263.05 37.94 265.69 C 37.38 259.15 37.32 252.54 36.06 246.09 C 35.70 245.58 35.00 244.56 34.65 244.05 C 34.34 251.70 34.46 259.36 34.72 267.01 C 35.42 270.77 35.49 274.59 35.49 278.41 C 35.25 288.94 39.76 299.20 38.01 309.75 C 35.55 305.88 37.12 301.07 35.04 297.09 C 32.63 292.46 34.55 287.05 32.51 282.35 C 31.11 279.07 31.54 275.44 31.33 271.98 C 31.31 267.58 30.09 263.32 29.55 259.00 C 29.68 253.29 28.21 247.72 28.55 242.00 C 28.16 230.67 29.01 219.29 27.67 208.01 C 27.83 195.14 26.87 182.19 28.55 169.40 C 29.00 169.38 29.91 169.34 30.37 169.32 C 32.50 177.76 30.69 186.54 32.34 195.03 C 32.19 200.81 33.60 206.39 33.79 212.15 C 35.44 207.74 36.11 203.03 36.58 198.37 C 38.66 189.81 43.27 181.80 43.72 172.85 C 44.21 170.00 46.85 166.86 43.94 164.47 C 42.72 167.11 42.36 169.96 42.52 172.84 C 42.04 172.77 41.08 172.61 40.60 172.54 C 38.90 169.31 37.94 165.70 38.74 162.06 C 41.68 152.13 47.53 143.35 50.43 133.41 C 50.81 128.75 51.04 123.85 49.12 119.46 C 49.76 119.44 51.04 119.40 51.68 119.38 C 53.67 123.92 49.91 128.83 52.85 133.13 C 57.00 128.17 61.88 123.85 65.87 118.76 C 67.82 116.56 67.85 113.58 66.60 111.02 C 69.66 108.61 72.58 105.87 74.38 102.35 C 76.55 98.22 80.61 95.68 84.56 93.47 C 84.45 89.83 84.77 86.22 85.56 82.66 C 88.20 82.66 90.83 82.52 93.47 82.40 C 92.22 80.40 89.33 78.41 90.62 75.74 C 94.38 73.11 99.39 75.80 103.30 73.46 C 105.48 72.48 106.09 69.99 107.12 68.06 Z" />
<path fill="#010101" opacity="1.00" d=" M 131.96 102.91 C 135.60 100.84 138.77 98.05 142.33 95.84 C 142.78 100.48 141.51 105.69 137.55 108.53 C 128.41 115.69 116.37 118.64 108.49 127.49 C 103.39 132.10 98.77 137.60 92.35 140.40 C 90.11 141.52 88.15 143.11 85.97 144.34 C 82.64 144.67 79.28 144.52 75.93 144.44 C 74.54 141.39 75.43 137.57 76.92 134.64 C 80.24 134.21 83.72 134.97 86.96 134.14 C 90.55 131.93 94.40 130.17 97.95 127.92 C 102.71 123.36 107.70 119.05 112.46 114.48 C 118.35 109.65 125.42 106.70 131.96 102.91 Z" />
<path fill="#010101" opacity="1.00" d=" M 107.68 139.99 C 114.07 137.00 121.16 137.33 128.03 137.36 C 141.44 136.99 154.70 141.18 166.36 147.62 C 183.65 157.10 196.73 173.63 202.56 192.41 C 205.15 201.53 204.79 211.08 204.51 220.46 C 202.28 239.94 191.52 258.11 176.00 270.01 C 164.56 278.92 150.64 284.45 136.31 286.42 C 129.44 286.74 122.55 286.70 115.68 286.43 C 109.35 285.55 103.20 283.67 97.16 281.63 C 106.45 281.13 115.79 282.12 125.08 281.31 C 133.17 279.60 142.42 277.63 147.41 270.33 C 147.80 267.55 148.12 264.26 145.75 262.25 C 139.34 255.84 129.82 254.01 121.15 253.06 C 123.02 252.32 124.60 250.90 126.68 250.72 C 138.62 248.92 149.87 242.94 158.06 234.06 C 173.90 218.12 178.16 192.08 168.10 171.95 C 160.38 155.18 143.75 142.99 125.47 140.56 C 120.96 140.51 116.47 138.80 111.98 139.91 C 110.55 140.47 109.12 140.49 107.68 139.99 M 166.36 234.46 C 161.75 235.15 157.64 238.47 155.62 242.66 C 153.73 245.91 154.39 249.87 154.53 253.46 C 156.11 259.81 162.31 265.14 169.03 264.68 C 173.74 265.20 178.43 263.01 181.41 259.41 C 187.14 252.63 185.54 240.82 177.63 236.37 C 174.38 233.92 170.19 234.27 166.36 234.46 Z" />
<path fill="#010101" opacity="1.00" d=" M 107.68 139.99 C 106.95 143.33 105.20 137.70 107.68 139.99 Z" />
<path fill="#010101" opacity="1.00" d=" M 93.25 144.23 C 93.80 144.81 93.80 144.81 93.25 144.23 Z" />
<path fill="#010101" opacity="1.00" d=" M 72.06 157.21 C 78.20 152.08 84.87 147.11 92.64 144.84 C 84.86 150.52 76.95 156.43 71.57 164.59 C 65.76 173.56 61.74 184.14 62.35 194.97 C 61.13 215.83 74.03 236.31 92.61 245.45 C 98.77 248.87 105.76 250.09 112.44 252.06 C 102.11 254.00 90.10 254.22 82.29 262.29 C 78.92 265.29 80.62 270.22 81.94 273.82 C 65.26 264.10 53.32 246.91 48.85 228.24 C 46.67 220.19 47.37 211.78 47.49 203.54 C 49.53 185.75 58.66 169.02 72.06 157.21 Z" />
<path fill="#010101" opacity="1.00" d=" M 345.42 210.45 C 345.89 210.19 346.83 209.68 347.30 209.42 L 347.25 210.27 C 346.79 210.32 345.88 210.40 345.42 210.45 Z" />
<path fill="#010101" opacity="1.00" d=" M 345.24 210.75 C 345.28 210.67 345.38 210.52 345.42 210.45 C 345.38 210.52 345.28 210.67 345.24 210.75 Z" />
<path fill="#010101" opacity="1.00" d=" M 209.43 236.81 C 209.42 231.88 208.53 226.63 210.96 222.08 C 212.20 225.08 213.26 228.20 214.96 230.99 C 221.52 235.40 225.96 242.09 231.40 247.70 C 233.12 254.69 229.15 260.93 227.23 267.38 C 222.48 268.85 217.24 270.74 212.41 268.49 C 212.60 264.00 214.56 259.86 217.94 256.90 C 218.89 257.86 219.85 258.82 220.82 259.77 C 222.89 258.93 224.96 258.09 227.01 257.18 C 225.31 251.98 220.46 248.92 217.13 244.84 C 214.85 241.84 209.08 241.45 209.43 236.81 Z" />
<path fill="#010101" opacity="1.00" d=" M 252.70 269.63 C 253.90 266.37 256.55 263.13 260.28 263.08 C 261.24 266.06 261.89 269.13 262.93 272.08 C 264.16 274.66 266.92 276.76 266.43 279.90 C 266.06 284.53 265.29 289.14 265.50 293.81 C 265.87 299.90 263.80 305.75 263.52 311.79 C 263.42 314.82 261.36 317.40 258.67 318.65 C 254.48 320.62 251.83 324.86 247.39 326.37 C 240.74 328.59 235.61 333.92 228.82 335.81 C 226.08 336.53 223.48 337.65 220.79 338.47 C 217.61 338.62 214.17 337.43 212.34 334.70 C 208.44 329.57 203.01 325.98 198.34 321.64 C 193.50 317.21 190.78 310.46 191.62 303.91 C 192.91 302.40 195.00 302.28 196.78 301.70 C 202.45 300.15 208.34 299.20 213.71 296.72 C 218.52 294.74 223.91 294.29 228.35 291.39 C 231.62 289.23 235.18 287.56 238.47 285.45 C 243.65 280.64 250.03 276.48 252.70 269.63 M 254.49 278.48 C 251.45 285.08 245.25 289.26 240.00 293.96 C 236.99 296.04 233.56 297.42 230.57 299.54 C 225.77 302.86 219.80 303.28 214.55 305.51 C 208.80 307.93 202.57 308.77 196.70 310.83 C 202.42 316.99 210.00 321.34 214.60 328.55 C 218.61 328.60 222.77 329.05 226.63 327.66 C 233.74 325.84 238.93 320.03 245.88 317.86 C 250.53 316.33 253.26 311.85 257.62 309.77 C 257.49 307.05 257.09 304.29 257.53 301.58 C 258.53 299.65 260.56 298.12 260.60 295.80 C 260.98 289.16 260.05 282.51 260.60 275.87 C 260.81 274.25 259.86 272.85 259.24 271.45 C 257.25 273.50 255.64 275.86 254.49 278.48 Z" />
<path fill="#010101" opacity="1.00" d=" M 40.61 272.06 C 45.77 284.76 49.78 297.90 54.26 310.85 C 57.63 323.62 62.03 336.10 64.93 349.00 C 65.81 352.70 66.41 356.87 69.51 359.47 C 73.94 364.38 79.89 368.27 82.33 374.68 C 83.75 377.76 84.24 381.64 87.22 383.71 C 94.52 389.07 104.02 390.23 111.22 395.78 C 113.97 397.60 116.06 401.24 119.84 400.44 C 125.03 399.84 130.71 404.42 129.51 409.95 C 123.15 407.15 115.99 405.21 111.55 399.46 C 109.24 396.92 105.52 397.13 102.45 396.30 C 95.76 395.24 89.94 391.25 85.29 386.49 C 79.36 380.41 74.71 373.25 69.35 366.70 C 68.64 366.55 67.20 366.24 66.48 366.08 C 66.56 370.46 67.53 374.76 67.75 379.13 C 70.25 390.20 74.74 400.67 78.88 411.20 C 78.03 411.30 76.33 411.50 75.49 411.59 C 73.80 408.32 72.12 405.03 69.89 402.09 C 68.08 399.81 68.71 396.75 67.83 394.15 C 66.23 388.69 63.96 383.46 62.01 378.12 C 60.79 373.51 60.23 368.74 60.46 363.97 C 60.86 359.76 57.89 356.35 56.33 352.67 C 50.66 343.71 43.00 335.91 38.81 326.06 C 37.91 319.49 38.57 312.73 39.08 306.14 C 39.89 309.49 40.42 312.90 40.59 316.35 C 40.89 321.02 43.24 325.26 46.22 328.76 C 49.29 332.58 52.22 336.51 55.58 340.09 C 55.59 338.52 55.70 336.96 55.49 335.42 C 51.74 322.08 48.18 308.67 44.73 295.25 C 43.44 287.51 39.47 280.06 40.61 272.06 Z" />
<path fill="#010101" opacity="1.00" d=" M 258.01 346.62 C 260.84 345.48 263.04 348.39 262.46 351.02 C 261.29 358.34 255.14 364.31 247.92 365.71 C 239.70 368.07 231.44 365.09 223.43 363.38 C 223.40 362.42 223.33 360.52 223.29 359.56 C 224.51 358.79 225.74 358.03 226.98 357.29 C 234.39 360.28 243.23 362.54 250.65 358.34 C 255.18 356.11 255.69 350.56 258.01 346.62 Z" />
</g>
<g id="#fed8d8ff">
<path fill="#fed8d8" opacity="1.00" d=" M 126.04 44.94 C 131.15 39.63 138.87 36.95 146.17 37.83 C 139.18 39.18 131.97 40.78 126.04 44.94 Z" />
<path fill="#fed8d8" opacity="1.00" d=" M 155.75 42.32 C 161.13 41.45 166.51 40.32 171.99 40.45 C 186.60 40.45 201.94 38.99 215.63 45.22 C 209.52 46.06 203.99 42.63 198.00 42.24 C 188.19 41.42 178.30 41.71 168.51 42.72 C 164.26 43.16 159.95 43.12 155.75 42.32 Z" />
<path fill="#fed8d8" opacity="1.00" d=" M 116.02 59.06 C 117.36 54.86 119.40 50.72 123.09 48.09 C 120.59 51.66 118.81 55.69 116.02 59.06 Z" />
<path fill="#fed8d8" opacity="1.00" d=" M 107.12 68.06 C 106.02 66.58 107.79 65.29 108.42 64.05 C 108.41 64.78 108.39 66.25 108.38 66.99 C 110.08 66.12 111.78 65.26 113.52 64.47 C 111.27 68.04 109.86 72.05 107.85 75.76 C 108.85 73.20 108.28 70.45 107.12 68.06 Z" />
<path fill="#fed8d8" opacity="1.00" d=" M 240.77 92.28 C 248.52 91.66 255.73 94.72 262.57 97.99 C 260.64 98.50 258.72 99.03 256.81 99.57 C 255.76 98.00 255.06 95.85 253.06 95.24 C 248.69 93.82 243.89 94.19 239.67 92.18 L 240.77 92.28 Z" />
<path fill="#fed8d8" opacity="1.00" d=" M 215.63 156.03 C 215.60 139.53 222.72 122.94 235.59 112.42 C 232.10 117.55 227.72 122.01 224.37 127.23 C 217.62 138.93 215.57 153.23 218.68 166.38 C 220.53 174.69 225.06 182.02 228.42 189.75 C 220.36 180.44 216.39 168.19 215.63 156.03 Z" />
<path fill="#fed8d8" opacity="1.00" d=" M 320.82 237.62 C 325.99 235.31 331.65 236.99 337.01 237.43 C 344.16 237.70 350.60 241.09 357.47 242.68 C 360.53 244.90 360.65 249.34 362.77 252.33 C 365.88 253.90 370.14 253.60 372.18 256.87 C 376.71 262.96 378.62 270.61 379.15 278.07 C 379.51 283.37 377.00 288.20 375.47 293.13 C 374.35 295.93 374.04 299.51 371.18 301.17 C 366.10 304.36 363.08 309.74 358.47 313.48 C 354.43 316.94 350.88 322.26 345.02 322.37 C 339.61 322.03 334.38 320.38 329.20 318.90 C 323.10 317.55 323.61 309.24 318.32 306.78 C 314.55 305.08 310.34 306.08 306.38 305.58 C 304.39 303.42 303.19 300.68 301.56 298.26 C 299.41 294.78 296.30 291.43 296.48 287.06 C 296.48 281.35 297.81 275.74 299.17 270.23 C 299.89 266.69 302.75 264.31 305.19 261.89 C 304.18 256.56 303.82 250.50 306.78 245.71 C 310.68 241.89 315.88 239.75 320.82 237.62 Z" />
<path fill="#fed8d8" opacity="1.00" d=" M 398.70 268.00 C 399.35 268.28 400.65 268.83 401.30 269.10 C 401.24 272.49 401.01 275.89 400.53 279.25 C 400.14 275.47 399.31 271.75 398.70 268.00 Z" />
<path fill="#fed8d8" opacity="1.00" d=" M 104.40 296.50 C 112.11 294.33 120.18 295.64 128.02 296.15 C 136.71 296.45 143.96 302.29 149.63 308.38 C 152.79 311.88 156.97 314.31 159.93 317.99 C 162.84 322.26 162.65 327.67 163.21 332.61 C 163.50 336.74 165.13 340.59 166.19 344.55 C 167.15 347.65 165.12 350.53 164.28 353.41 C 162.74 356.88 164.06 360.63 164.73 364.13 C 160.63 365.14 156.42 365.83 152.48 367.39 C 147.46 370.38 145.01 376.00 140.98 380.01 C 138.17 382.53 134.46 383.61 131.00 384.93 C 124.67 387.37 117.74 386.82 111.12 386.45 C 105.19 386.08 100.30 382.42 95.24 379.73 C 87.70 375.69 80.12 370.64 76.04 362.86 C 73.81 358.49 71.02 354.33 69.58 349.60 C 68.51 343.67 71.19 337.95 72.44 332.25 C 74.36 323.83 77.77 315.74 82.63 308.58 C 84.53 305.62 87.98 304.43 90.97 302.90 C 95.45 300.78 99.54 297.76 104.40 296.50 Z" />
<path fill="#fed8d8" opacity="1.00" d=" M 252.82 352.96 C 254.84 350.17 255.90 346.43 259.04 344.63 C 262.57 345.13 264.96 349.32 263.89 352.66 C 262.55 357.42 259.61 361.68 255.93 364.94 C 252.41 368.04 247.58 368.92 243.04 369.17 C 235.45 369.54 228.26 366.67 221.28 364.05 C 221.59 360.76 222.60 356.88 226.35 356.12 C 231.05 355.86 235.37 358.56 240.07 358.59 C 244.80 358.66 250.26 357.31 252.82 352.96 M 258.01 346.62 C 255.69 350.56 255.18 356.11 250.65 358.34 C 243.23 362.54 234.39 360.28 226.98 357.29 C 225.74 358.03 224.51 358.79 223.29 359.56 C 223.33 360.52 223.40 362.42 223.43 363.38 C 231.44 365.09 239.70 368.07 247.92 365.71 C 255.14 364.31 261.29 358.34 262.46 351.02 C 263.04 348.39 260.84 345.48 258.01 346.62 Z" />
<path fill="#fed8d8" opacity="1.00" d=" M 85.29 386.49 C 89.94 391.25 95.76 395.24 102.45 396.30 C 105.52 397.13 109.24 396.92 111.55 399.46 C 102.42 399.04 93.26 395.91 86.56 389.57 C 86.01 388.59 85.59 387.57 85.29 386.49 Z" />
</g>
</svg>
