<?xml version="1.0" encoding="UTF-8" ?>
<!DOCTYPE svg PUBLIC "-//W3C//DTD SVG 1.1//EN" "http://www.w3.org/Graphics/SVG/1.1/DTD/svg11.dtd">
<svg width="957pt" height="1007pt" viewBox="0 0 957 1007" version="1.1" xmlns="http://www.w3.org/2000/svg">
<path fill="#ffffff" opacity="1.00" d=" M 0.00 0.00 L 957.00 0.00 L 957.00 1007.00 L 0.00 1007.00 L 0.00 0.00 M 503.67 18.86 C 466.68 22.18 430.05 28.92 394.03 37.90 C 357.96 47.08 322.22 58.11 288.21 73.34 C 269.09 81.89 254.38 97.56 241.91 113.96 C 228.47 131.44 216.51 150.20 200.82 165.82 C 176.59 188.94 147.19 205.37 118.94 222.93 C 97.97 236.07 76.94 250.82 63.48 272.08 C 65.75 283.18 67.14 294.63 65.67 305.94 C 64.46 316.73 60.53 327.01 55.57 336.60 C 50.05 347.30 43.80 357.77 40.57 369.46 C 37.69 379.32 37.21 389.74 38.09 399.93 C 41.40 400.73 46.38 401.83 48.02 397.79 C 49.78 391.93 48.03 385.73 48.29 379.73 C 54.69 382.44 54.79 390.82 53.71 396.66 C 49.81 417.18 38.11 435.12 32.87 455.24 C 27.77 450.36 24.23 443.94 22.90 437.00 C 20.01 422.47 23.42 407.68 22.48 393.04 C 22.09 386.47 21.05 379.68 17.68 373.91 C 11.48 455.31 6.29 537.01 9.82 618.66 C 12.19 668.44 17.64 718.41 31.38 766.45 C 41.94 802.77 57.66 838.44 82.92 867.01 C 84.14 868.33 83.71 870.26 83.94 871.90 C 83.97 897.92 89.29 923.72 97.84 948.23 C 104.40 967.35 112.44 985.91 119.36 1004.89 L 119.99 1005.47 C 124.99 1005.58 129.99 1005.47 134.99 1005.48 C 125.26 985.94 114.68 966.66 108.15 945.74 C 102.46 927.53 99.11 908.43 99.62 889.32 C 108.70 899.56 117.66 909.97 127.79 919.22 C 154.63 944.67 186.01 965.12 219.61 980.49 C 231.87 985.94 244.25 991.30 257.13 995.12 C 229.51 970.85 196.10 954.79 166.00 934.03 C 147.47 921.29 130.51 905.99 117.27 887.74 C 106.94 873.13 97.60 857.37 93.06 839.93 C 85.67 811.93 83.37 782.82 75.21 754.99 C 68.36 731.68 58.82 709.29 50.39 686.53 C 44.88 671.47 39.40 656.14 37.87 640.07 C 32.34 593.22 34.04 545.74 40.40 499.07 C 50.32 428.02 70.78 358.58 99.36 292.83 C 101.81 293.80 104.96 294.98 105.16 298.09 C 104.57 305.28 97.42 310.76 98.96 318.37 C 110.69 312.12 121.35 304.05 131.61 295.64 C 155.59 275.71 176.39 252.36 199.37 231.34 C 218.64 213.72 240.09 197.49 265.18 189.27 C 269.25 187.77 273.61 187.20 277.59 185.44 C 271.03 180.79 262.78 179.93 254.97 179.74 C 238.82 179.54 222.69 182.45 206.56 180.71 C 221.50 151.96 242.15 125.53 269.01 107.03 C 283.84 96.74 300.41 89.07 317.67 83.87 C 346.89 75.06 377.72 73.04 408.07 74.25 C 442.12 76.21 475.29 84.84 509.08 88.93 C 530.01 91.59 551.31 92.32 572.26 89.37 C 569.88 94.10 565.69 97.66 560.97 99.93 C 551.68 104.48 541.13 105.07 530.97 105.43 C 505.80 105.69 480.63 101.16 455.50 104.11 C 455.73 109.62 460.54 113.49 465.68 114.34 C 479.31 116.99 493.20 112.65 506.88 114.80 C 504.71 120.45 498.03 122.56 495.78 128.08 C 495.84 131.75 500.41 132.70 503.24 133.64 C 518.25 136.94 533.75 135.90 549.00 136.01 C 574.00 135.39 598.99 134.18 624.00 133.74 C 644.40 133.71 664.93 133.48 685.13 136.70 C 693.26 138.10 701.55 139.94 708.68 144.29 C 710.80 145.80 713.55 145.18 715.99 145.25 C 717.33 145.15 720.20 145.19 719.42 143.01 C 717.20 139.06 714.10 135.13 715.01 130.26 C 715.92 130.92 716.80 131.62 717.66 132.36 C 733.35 146.99 748.69 162.04 762.73 178.29 C 786.60 205.67 806.10 237.33 816.80 272.21 C 811.75 271.02 807.37 267.75 804.67 263.34 C 798.47 253.12 797.96 240.52 791.65 230.36 C 788.32 225.04 782.45 221.55 776.16 221.25 C 784.72 250.31 801.19 276.09 815.49 302.55 C 826.36 322.32 836.53 342.56 844.14 363.84 C 857.85 400.70 868.91 438.75 887.16 473.74 C 893.40 485.18 899.91 496.71 908.70 506.41 C 909.20 496.78 908.06 487.03 904.85 477.92 C 899.54 462.33 888.77 449.39 882.97 434.02 C 880.00 426.36 878.53 418.19 878.18 410.01 C 886.35 412.90 893.39 418.55 898.41 425.58 C 906.31 436.81 909.74 450.42 912.14 463.75 C 915.14 481.26 916.44 499.00 918.58 516.63 C 911.21 517.06 905.80 510.05 898.27 511.26 C 902.58 522.34 906.22 533.72 908.40 545.43 C 914.62 577.25 912.69 609.83 911.97 642.02 C 911.14 667.34 911.14 692.76 913.89 717.98 C 916.15 737.22 923.90 755.20 927.79 774.09 C 930.36 786.57 929.92 799.91 924.55 811.63 C 913.70 836.40 896.04 857.51 885.39 882.40 C 876.25 904.33 870.83 927.54 865.35 950.58 C 860.89 969.28 856.10 988.12 847.38 1005.36 C 850.84 1005.56 854.31 1005.48 857.78 1005.55 C 872.45 968.38 890.91 932.89 907.89 896.76 C 925.33 859.80 940.62 821.56 949.48 781.55 C 951.13 781.51 952.79 781.47 954.47 781.45 C 954.54 771.31 954.49 761.17 954.49 751.03 C 951.43 750.21 948.84 748.44 946.26 746.71 C 944.17 745.26 941.54 745.55 939.15 745.31 C 930.83 705.47 928.75 664.56 930.17 623.96 C 930.91 595.42 932.81 566.90 932.67 538.35 C 932.30 507.08 929.51 475.41 919.66 445.56 C 913.09 426.44 903.31 408.59 892.32 391.69 C 874.70 364.34 853.70 339.03 839.47 309.61 C 835.49 300.80 831.18 291.88 830.03 282.17 C 828.88 272.83 829.42 263.39 829.18 254.01 C 828.88 243.62 825.17 233.69 820.46 224.56 C 811.95 208.15 798.87 194.86 787.41 180.56 C 778.81 169.77 770.65 158.16 766.44 144.89 C 773.94 144.22 779.33 151.36 786.87 150.27 C 788.85 142.50 782.90 136.00 777.03 131.92 C 763.03 122.13 746.62 116.74 731.23 109.63 C 731.17 109.26 731.06 108.54 731.00 108.17 C 733.46 104.68 737.98 104.05 741.94 104.00 C 748.59 103.66 755.52 105.25 761.95 102.87 C 766.43 101.36 767.96 94.71 764.33 91.60 C 755.34 81.44 741.68 77.23 728.67 75.29 C 715.91 73.53 702.94 73.08 690.08 73.81 C 680.26 57.00 664.85 43.94 647.34 35.66 C 625.95 25.20 602.22 20.56 578.66 18.32 C 553.72 16.11 528.59 16.72 503.67 18.86 M 603.45 185.98 C 606.86 187.81 610.82 188.09 614.58 187.37 C 628.10 185.10 641.11 179.61 655.00 179.72 C 658.81 179.84 662.97 179.59 666.37 181.64 C 674.40 186.32 681.82 192.01 688.63 198.34 C 713.84 221.88 730.37 252.97 755.37 276.71 C 756.62 277.55 754.90 278.68 754.42 279.40 C 746.45 287.72 735.72 293.30 724.33 295.03 C 709.05 297.41 693.43 293.93 679.46 287.73 C 679.52 270.73 679.54 253.74 679.45 236.75 C 674.69 237.02 669.70 239.14 667.47 243.58 C 663.32 251.35 664.37 260.47 664.28 268.95 C 664.77 276.93 664.82 284.93 664.66 292.91 C 670.44 302.75 681.68 308.40 692.91 308.72 C 710.38 309.32 727.09 302.83 742.75 295.74 C 748.90 293.12 754.61 289.41 761.00 287.42 C 764.95 288.45 768.05 291.32 770.82 294.17 C 776.56 300.36 780.96 307.63 784.89 315.05 C 793.87 332.55 800.14 351.48 803.04 370.94 C 805.03 385.41 805.38 400.61 800.38 414.54 C 795.13 428.66 783.20 439.25 769.94 445.80 C 749.58 455.95 726.50 459.03 703.99 459.50 C 678.44 459.53 652.78 455.85 628.54 447.66 C 612.22 442.05 596.22 434.40 583.43 422.59 C 568.63 408.90 555.69 393.24 544.68 376.36 C 537.26 364.62 530.18 352.23 527.35 338.49 C 525.01 323.33 528.54 307.76 535.01 294.02 C 543.15 276.89 555.41 262.08 568.93 248.93 C 580.72 237.28 593.75 226.97 607.02 217.06 C 617.45 209.09 630.92 206.42 641.22 198.24 C 645.14 195.23 647.77 190.83 648.98 186.07 C 612.32 199.20 576.55 219.02 552.12 250.09 C 528.96 279.08 518.38 316.35 516.90 353.01 C 516.90 354.39 517.64 355.62 518.10 356.90 C 526.22 376.00 539.29 392.57 553.85 407.17 C 568.67 421.70 585.35 434.31 603.30 444.71 C 637.35 464.40 676.40 476.94 716.02 475.74 C 737.97 475.01 759.98 469.85 779.38 459.40 C 792.17 452.47 803.49 442.18 809.90 428.96 C 817.32 414.13 818.03 396.87 815.49 380.74 C 812.12 359.95 804.00 340.26 794.42 321.62 C 776.73 287.80 753.69 257.05 728.34 228.62 C 714.09 211.97 699.86 194.86 681.85 182.10 C 671.02 174.63 658.41 168.71 645.00 168.72 C 629.48 168.35 614.84 175.92 603.45 185.98 M 243.50 311.81 C 210.89 314.76 177.54 327.47 156.09 353.10 C 149.30 364.13 144.81 376.54 142.12 389.19 C 137.40 411.55 140.12 434.54 143.32 456.91 C 146.72 480.02 149.94 503.23 150.37 526.62 C 167.98 547.28 191.44 564.33 218.53 569.48 C 241.14 574.04 264.77 569.26 285.26 559.23 C 316.64 543.73 341.77 517.85 361.06 489.04 C 381.97 457.06 396.83 420.30 399.35 381.92 C 400.00 378.78 397.68 376.29 396.28 373.75 C 383.31 353.05 362.80 338.19 340.86 328.12 C 310.54 314.46 276.62 308.77 243.50 311.81 M 607.07 510.09 C 596.48 515.76 588.97 525.72 578.38 531.41 C 530.71 556.97 482.33 581.27 435.70 608.73 C 403.64 627.82 371.74 647.86 344.37 673.43 C 343.26 674.62 341.47 674.12 340.05 674.27 C 317.34 674.36 294.60 673.18 271.93 675.01 C 254.79 676.48 236.81 679.28 222.41 689.37 C 219.93 691.58 216.06 693.25 215.76 696.98 C 211.55 719.69 209.55 742.89 210.95 765.98 C 213.01 804.54 224.99 842.57 245.88 875.09 C 264.55 904.49 289.82 929.28 318.02 949.52 C 334.81 943.21 353.26 940.60 370.99 944.09 C 387.80 947.10 403.34 954.67 418.15 962.90 C 438.93 974.67 458.93 988.16 481.34 996.73 C 496.17 1002.47 512.05 1005.85 528.00 1005.51 C 547.98 1005.43 567.98 1005.64 587.96 1005.40 C 613.24 997.61 636.05 982.36 653.35 962.38 C 667.30 946.38 677.89 927.73 686.27 908.30 C 695.69 886.36 702.44 863.37 708.03 840.19 C 723.00 777.43 729.61 712.98 745.53 650.43 C 754.40 615.98 766.38 581.75 786.62 552.20 C 778.93 544.33 769.68 538.15 760.04 532.93 C 739.87 522.22 717.88 515.28 695.58 510.60 C 674.03 506.26 651.94 503.79 629.95 505.14 C 622.17 505.75 614.05 506.25 607.07 510.09 Z" />
<path fill="#000000" opacity="1.00" d=" M 503.67 18.86 C 528.59 16.72 553.72 16.11 578.66 18.32 C 602.22 20.56 625.95 25.20 647.34 35.66 C 664.85 43.94 680.26 57.00 690.08 73.81 C 702.94 73.08 715.91 73.53 728.67 75.29 C 741.68 77.23 755.34 81.44 764.33 91.60 C 767.96 94.71 766.43 101.36 761.95 102.87 C 755.52 105.25 748.59 103.66 741.94 104.00 C 737.98 104.05 733.46 104.68 731.00 108.17 C 731.06 108.54 731.17 109.26 731.23 109.63 C 746.62 116.74 763.03 122.13 777.03 131.92 C 782.90 136.00 788.85 142.50 786.87 150.27 C 779.33 151.36 773.94 144.22 766.44 144.89 C 770.65 158.16 778.81 169.77 787.41 180.56 C 798.87 194.86 811.95 208.15 820.46 224.56 C 825.17 233.69 828.88 243.62 829.18 254.01 C 829.42 263.39 828.88 272.83 830.03 282.17 C 831.18 291.88 835.49 300.80 839.47 309.61 C 853.70 339.03 874.70 364.34 892.32 391.69 C 903.31 408.59 913.09 426.44 919.66 445.56 C 929.51 475.41 932.30 507.08 932.67 538.35 C 932.81 566.90 930.91 595.42 930.17 623.96 C 928.75 664.56 930.83 705.47 939.15 745.31 C 941.54 745.55 944.17 745.26 946.26 746.71 C 948.84 748.44 951.43 750.21 954.49 751.03 C 954.49 761.17 954.54 771.31 954.47 781.45 C 952.79 781.47 951.13 781.51 949.48 781.55 C 940.62 821.56 925.33 859.80 907.89 896.76 C 890.91 932.89 872.45 968.38 857.78 1005.55 C 854.31 1005.48 850.84 1005.56 847.38 1005.36 C 856.10 988.12 860.89 969.28 865.35 950.58 C 870.83 927.54 876.25 904.33 885.39 882.40 C 896.04 857.51 913.70 836.40 924.55 811.63 C 929.92 799.91 930.36 786.57 927.79 774.09 C 923.90 755.20 916.15 737.22 913.89 717.98 C 911.14 692.76 911.14 667.34 911.97 642.02 C 912.69 609.83 914.62 577.25 908.40 545.43 C 906.22 533.72 902.58 522.34 898.27 511.26 C 905.80 510.05 911.21 517.06 918.58 516.63 C 916.44 499.00 915.14 481.26 912.14 463.75 C 909.74 450.42 906.31 436.81 898.41 425.58 C 893.39 418.55 886.35 412.90 878.18 410.01 C 878.53 418.19 880.00 426.36 882.97 434.02 C 888.77 449.39 899.54 462.33 904.85 477.92 C 908.06 487.03 909.20 496.78 908.70 506.41 C 899.91 496.71 893.40 485.18 887.16 473.74 C 868.91 438.75 857.85 400.70 844.14 363.84 C 836.53 342.56 826.36 322.32 815.49 302.55 C 801.19 276.09 784.72 250.31 776.16 221.25 C 782.45 221.55 788.32 225.04 791.65 230.36 C 797.96 240.52 798.47 253.12 804.67 263.34 C 807.37 267.75 811.75 271.02 816.80 272.21 C 806.10 237.33 786.60 205.67 762.73 178.29 C 748.69 162.04 733.35 146.99 717.66 132.36 C 716.80 131.62 715.92 130.92 715.01 130.26 C 714.10 135.13 717.20 139.06 719.42 143.01 C 720.20 145.19 717.33 145.15 715.99 145.25 C 713.55 145.18 710.80 145.80 708.68 144.29 C 701.55 139.94 693.26 138.10 685.13 136.70 C 664.93 133.48 644.40 133.71 624.00 133.74 C 598.99 134.18 574.00 135.39 549.00 136.01 C 533.75 135.90 518.25 136.94 503.24 133.64 C 500.41 132.70 495.84 131.75 495.78 128.08 C 498.03 122.56 504.71 120.45 506.88 114.80 C 493.20 112.65 479.31 116.99 465.68 114.34 C 460.54 113.49 455.73 109.62 455.50 104.11 C 480.63 101.16 505.80 105.69 530.97 105.43 C 541.13 105.07 551.68 104.48 560.97 99.93 C 565.69 97.66 569.88 94.10 572.26 89.37 C 551.31 92.32 530.01 91.59 509.08 88.93 C 475.29 84.84 442.12 76.21 408.07 74.25 C 377.72 73.04 346.89 75.06 317.67 83.87 C 300.41 89.07 283.84 96.74 269.01 107.03 C 242.15 125.53 221.50 151.96 206.56 180.71 C 222.69 182.45 238.82 179.54 254.97 179.74 C 262.78 179.93 271.03 180.79 277.59 185.44 C 273.61 187.20 269.25 187.77 265.18 189.27 C 240.09 197.49 218.64 213.72 199.37 231.34 C 176.39 252.36 155.59 275.71 131.61 295.64 C 121.35 304.05 110.69 312.12 98.96 318.37 C 97.42 310.76 104.57 305.28 105.16 298.09 C 104.96 294.98 101.81 293.80 99.36 292.83 C 70.78 358.58 50.32 428.02 40.40 499.07 C 34.04 545.74 32.34 593.22 37.87 640.07 C 39.40 656.14 44.88 671.47 50.39 686.53 C 58.82 709.29 68.36 731.68 75.21 754.99 C 83.37 782.82 85.67 811.93 93.06 839.93 C 97.60 857.37 106.94 873.13 117.27 887.74 C 130.51 905.99 147.47 921.29 166.00 934.03 C 196.10 954.79 229.51 970.85 257.13 995.12 C 244.25 991.30 231.87 985.94 219.61 980.49 C 186.01 965.12 154.63 944.67 127.79 919.22 C 117.66 909.97 108.70 899.56 99.62 889.32 C 99.11 908.43 102.46 927.53 108.15 945.74 C 114.68 966.66 125.26 985.94 134.99 1005.48 C 129.99 1005.47 124.99 1005.58 119.99 1005.47 L 119.36 1004.89 C 112.44 985.91 104.40 967.35 97.84 948.23 C 89.29 923.72 83.97 897.92 83.94 871.90 C 83.71 870.26 84.14 868.33 82.92 867.01 C 57.66 838.44 41.94 802.77 31.38 766.45 C 17.64 718.41 12.19 668.44 9.82 618.66 C 6.29 537.01 11.48 455.31 17.68 373.91 C 21.05 379.68 22.09 386.47 22.48 393.04 C 23.42 407.68 20.01 422.47 22.90 437.00 C 24.23 443.94 27.77 450.36 32.87 455.24 C 38.11 435.12 49.81 417.18 53.71 396.66 C 54.79 390.82 54.69 382.44 48.29 379.73 C 48.03 385.73 49.78 391.93 48.02 397.79 C 46.38 401.83 41.40 400.73 38.09 399.93 C 37.21 389.74 37.69 379.32 40.57 369.46 C 43.80 357.77 50.05 347.30 55.57 336.60 C 60.53 327.01 64.46 316.73 65.67 305.94 C 67.14 294.63 65.75 283.18 63.48 272.08 C 76.94 250.82 97.97 236.07 118.94 222.93 C 147.19 205.37 176.59 188.94 200.82 165.82 C 216.51 150.20 228.47 131.44 241.91 113.96 C 254.38 97.56 269.09 81.89 288.21 73.34 C 322.22 58.11 357.96 47.08 394.03 37.90 C 430.05 28.92 466.68 22.18 503.67 18.86 M 438.84 41.97 C 417.10 47.72 395.44 54.27 374.93 63.57 C 400.32 62.49 425.74 64.65 450.94 67.67 C 500.89 73.61 550.44 85.17 600.99 84.25 C 622.34 83.71 643.78 80.67 664.03 73.70 C 659.77 65.77 653.97 58.69 647.05 52.93 C 633.59 41.60 616.74 35.13 599.74 31.33 C 577.21 26.41 553.95 25.75 530.99 27.04 C 499.87 28.85 469.02 34.27 438.84 41.97 M 640.90 91.16 C 640.79 93.79 644.18 93.53 645.99 94.09 C 658.56 95.42 671.30 92.96 683.27 89.22 C 673.87 88.06 664.37 88.16 654.93 88.32 C 650.18 88.68 645.19 88.87 640.90 91.16 M 84.95 274.86 C 83.10 279.25 84.81 284.87 88.99 287.23 C 97.35 280.46 107.17 273.37 109.33 262.09 C 99.56 259.75 88.54 265.46 84.95 274.86 M 28.16 660.35 C 27.97 664.88 27.58 669.42 27.87 673.95 C 28.38 698.79 31.71 723.56 37.32 747.75 C 42.11 767.74 48.27 787.65 58.34 805.67 C 64.42 816.11 71.97 826.78 83.38 831.79 C 67.76 793.22 59.36 752.33 47.63 712.52 C 42.24 694.77 36.58 676.93 28.16 660.35 Z" />
<path fill="#ffffff" opacity="1.00" d=" M 438.84 41.97 C 469.02 34.27 499.87 28.85 530.99 27.04 C 553.95 25.75 577.21 26.41 599.74 31.33 C 616.74 35.13 633.59 41.60 647.05 52.93 C 653.97 58.69 659.77 65.77 664.03 73.70 C 643.78 80.67 622.34 83.71 600.99 84.25 C 550.44 85.17 500.89 73.61 450.94 67.67 C 425.74 64.65 400.32 62.49 374.93 63.57 C 395.44 54.27 417.10 47.72 438.84 41.97 Z" />
<path fill="#ffffff" opacity="1.00" d=" M 640.90 91.16 C 645.19 88.87 650.18 88.68 654.93 88.32 C 664.37 88.16 673.87 88.06 683.27 89.22 C 671.30 92.96 658.56 95.42 645.99 94.09 C 644.18 93.53 640.79 93.79 640.90 91.16 Z" />
<path fill="#000000" opacity="1.00" d=" M 603.45 185.98 C 614.84 175.92 629.48 168.35 645.00 168.72 C 658.41 168.71 671.02 174.63 681.85 182.10 C 699.86 194.86 714.09 211.97 728.34 228.62 C 753.69 257.05 776.73 287.80 794.42 321.62 C 804.00 340.26 812.12 359.95 815.49 380.74 C 818.03 396.87 817.32 414.13 809.90 428.96 C 803.49 442.18 792.17 452.47 779.38 459.40 C 759.98 469.85 737.97 475.01 716.02 475.74 C 676.40 476.94 637.35 464.40 603.30 444.71 C 585.35 434.31 568.67 421.70 553.85 407.17 C 539.29 392.57 526.22 376.00 518.10 356.90 C 517.64 355.62 516.90 354.39 516.90 353.01 C 518.38 316.35 528.96 279.08 552.12 250.09 C 576.55 219.02 612.32 199.20 648.98 186.07 C 647.77 190.83 645.14 195.23 641.22 198.24 C 630.92 206.42 617.45 209.09 607.02 217.06 C 593.75 226.97 580.72 237.28 568.93 248.93 C 555.41 262.08 543.15 276.89 535.01 294.02 C 528.54 307.76 525.01 323.33 527.35 338.49 C 530.18 352.23 537.26 364.62 544.68 376.36 C 555.69 393.24 568.63 408.90 583.43 422.59 C 596.22 434.40 612.22 442.05 628.54 447.66 C 652.78 455.85 678.44 459.53 703.99 459.50 C 726.50 459.03 749.58 455.95 769.94 445.80 C 783.20 439.25 795.13 428.66 800.38 414.54 C 805.38 400.61 805.03 385.41 803.04 370.94 C 800.14 351.48 793.87 332.55 784.89 315.05 C 780.96 307.63 776.56 300.36 770.82 294.17 C 768.05 291.32 764.95 288.45 761.00 287.42 C 754.61 289.41 748.90 293.12 742.75 295.74 C 727.09 302.83 710.38 309.32 692.91 308.72 C 681.68 308.40 670.44 302.75 664.66 292.91 C 664.82 284.93 664.77 276.93 664.28 268.95 C 664.37 260.47 663.32 251.35 667.47 243.58 C 669.70 239.14 674.69 237.02 679.45 236.75 C 679.54 253.74 679.52 270.73 679.46 287.73 C 693.43 293.93 709.05 297.41 724.33 295.03 C 735.72 293.30 746.45 287.72 754.42 279.40 C 754.90 278.68 756.62 277.55 755.37 276.71 C 730.37 252.97 713.84 221.88 688.63 198.34 C 681.82 192.01 674.40 186.32 666.37 181.64 C 662.97 179.59 658.81 179.84 655.00 179.72 C 641.11 179.61 628.10 185.10 614.58 187.37 C 610.82 188.09 606.86 187.81 603.45 185.98 Z" />
<path fill="#ffffff" opacity="1.00" d=" M 84.95 274.86 C 88.54 265.46 99.56 259.75 109.33 262.09 C 107.17 273.37 97.35 280.46 88.99 287.23 C 84.81 284.87 83.10 279.25 84.95 274.86 Z" />
<path fill="#000000" opacity="1.00" d=" M 243.50 311.81 C 276.62 308.77 310.54 314.46 340.86 328.12 C 362.80 338.19 383.31 353.05 396.28 373.75 C 397.68 376.29 400.00 378.78 399.35 381.92 C 396.83 420.30 381.97 457.06 361.06 489.04 C 341.77 517.85 316.64 543.73 285.26 559.23 C 264.77 569.26 241.14 574.04 218.53 569.48 C 191.44 564.33 167.98 547.28 150.37 526.62 C 149.94 503.23 146.72 480.02 143.32 456.91 C 140.12 434.54 137.40 411.55 142.12 389.19 C 144.81 376.54 149.30 364.13 156.09 353.10 C 177.54 327.47 210.89 314.76 243.50 311.81 M 193.59 340.59 C 177.90 350.77 164.87 366.00 160.12 384.36 C 165.97 385.80 171.97 386.64 177.99 387.04 C 189.05 387.81 200.49 386.56 211.23 389.78 C 217.08 398.55 220.57 409.34 218.99 419.93 C 217.47 430.57 210.68 439.96 201.86 445.86 C 189.69 454.10 174.52 456.47 160.09 455.59 C 157.11 476.55 158.51 498.77 167.98 517.99 C 175.96 534.85 190.62 548.43 208.14 554.89 C 227.58 562.28 249.03 561.90 269.23 558.20 C 273.32 557.72 276.58 555.01 280.03 553.02 C 303.41 538.14 320.98 516.11 336.59 493.59 C 347.41 478.05 357.80 462.21 368.82 446.81 C 377.39 434.25 386.03 421.31 390.27 406.55 C 392.48 398.54 392.82 389.23 387.89 382.12 C 382.63 374.60 373.52 371.08 364.90 369.12 C 362.15 368.43 358.51 371.64 360.67 374.35 C 365.09 380.59 373.01 383.36 377.30 389.71 C 378.45 391.20 377.24 393.11 375.69 393.67 C 372.07 395.30 367.89 395.24 364.01 394.87 C 358.45 394.29 354.03 389.92 352.04 384.90 C 348.48 376.14 348.56 366.44 345.45 357.56 C 343.63 352.25 339.45 348.26 335.63 344.33 C 318.71 328.08 295.00 320.82 271.96 319.89 C 244.62 318.87 216.62 325.57 193.59 340.59 M 155.10 394.53 C 154.04 402.84 151.19 410.76 148.68 418.71 C 145.94 427.34 144.35 436.43 144.96 445.51 C 155.94 444.87 167.01 444.16 177.75 441.59 C 184.99 439.83 192.27 436.96 197.69 431.69 C 203.45 426.07 206.21 417.93 206.25 410.00 C 203.57 403.46 196.59 399.92 190.12 398.05 C 178.72 395.05 166.81 394.86 155.10 394.53 Z" />
<path fill="#ffffff" opacity="1.00" d=" M 193.59 340.59 C 216.62 325.57 244.62 318.87 271.96 319.89 C 295.00 320.82 318.71 328.08 335.63 344.33 C 339.45 348.26 343.63 352.25 345.45 357.56 C 348.56 366.44 348.48 376.14 352.04 384.90 C 354.03 389.92 358.45 394.29 364.01 394.87 C 367.89 395.24 372.07 395.30 375.69 393.67 C 377.24 393.11 378.45 391.20 377.30 389.71 C 373.01 383.36 365.09 380.59 360.67 374.35 C 358.51 371.64 362.15 368.43 364.90 369.12 C 373.52 371.08 382.63 374.60 387.89 382.12 C 392.82 389.23 392.48 398.54 390.27 406.55 C 386.03 421.31 377.39 434.25 368.82 446.81 C 357.80 462.21 347.41 478.05 336.59 493.59 C 320.98 516.11 303.41 538.14 280.03 553.02 C 276.58 555.01 273.32 557.72 269.23 558.20 C 249.03 561.90 227.58 562.28 208.14 554.89 C 190.62 548.43 175.96 534.85 167.98 517.99 C 158.51 498.77 157.11 476.55 160.09 455.59 C 174.52 456.47 189.69 454.10 201.86 445.86 C 210.68 439.96 217.47 430.57 218.99 419.93 C 220.57 409.34 217.08 398.55 211.23 389.78 C 200.49 386.56 189.05 387.81 177.99 387.04 C 171.97 386.64 165.97 385.80 160.12 384.36 C 164.87 366.00 177.90 350.77 193.59 340.59 Z" />
<path fill="#ffffff" opacity="1.00" d=" M 155.10 394.53 C 166.81 394.86 178.72 395.05 190.12 398.05 C 196.59 399.92 203.57 403.46 206.25 410.00 C 206.21 417.93 203.45 426.07 197.69 431.69 C 192.27 436.96 184.99 439.83 177.75 441.59 C 167.01 444.16 155.94 444.87 144.96 445.51 C 144.35 436.43 145.94 427.34 148.68 418.71 C 151.19 410.76 154.04 402.84 155.10 394.53 Z" />
<path fill="#000000" opacity="1.00" d=" M 607.07 510.09 C 614.05 506.25 622.17 505.75 629.95 505.14 C 651.94 503.79 674.03 506.26 695.58 510.60 C 717.88 515.28 739.87 522.22 760.04 532.93 C 769.68 538.15 778.93 544.33 786.62 552.20 C 766.38 581.75 754.40 615.98 745.53 650.43 C 729.61 712.98 723.00 777.43 708.03 840.19 C 702.44 863.37 695.69 886.36 686.27 908.30 C 677.89 927.73 667.30 946.38 653.35 962.38 C 636.05 982.36 613.24 997.61 587.96 1005.40 C 567.98 1005.64 547.98 1005.43 528.00 1005.51 C 512.05 1005.85 496.17 1002.47 481.34 996.73 C 458.93 988.16 438.93 974.67 418.15 962.90 C 403.34 954.67 387.80 947.10 370.99 944.09 C 353.26 940.60 334.81 943.21 318.02 949.52 C 289.82 929.28 264.55 904.49 245.88 875.09 C 224.99 842.57 213.01 804.54 210.95 765.98 C 209.55 742.89 211.55 719.69 215.76 696.98 C 216.06 693.25 219.93 691.58 222.41 689.37 C 236.81 679.28 254.79 676.48 271.93 675.01 C 294.60 673.18 317.34 674.36 340.05 674.27 C 341.47 674.12 343.26 674.62 344.37 673.43 C 371.74 647.86 403.64 627.82 435.70 608.73 C 482.33 581.27 530.71 556.97 578.38 531.41 C 588.97 525.72 596.48 515.76 607.07 510.09 M 618.35 516.95 C 612.56 523.07 605.72 528.11 598.64 532.64 C 568.15 551.61 532.39 559.65 501.55 577.92 C 503.55 585.05 506.03 592.05 509.25 598.72 C 514.74 609.85 523.00 620.36 534.72 625.27 C 546.13 630.25 559.32 628.44 570.40 623.46 C 582.85 617.80 593.56 608.80 602.39 598.44 C 615.89 582.37 625.48 562.79 628.59 541.95 C 649.30 550.83 661.20 572.12 681.65 581.43 C 683.00 581.90 684.62 583.15 685.93 581.91 C 706.22 569.78 722.30 552.19 740.26 537.08 C 722.15 529.55 702.21 528.89 682.92 527.49 C 661.20 525.95 638.71 525.61 618.35 516.95 M 743.18 551.16 C 726.42 561.71 715.46 579.67 697.39 588.41 C 689.05 592.23 678.95 595.24 670.23 590.88 C 659.49 585.87 655.64 573.38 646.21 566.80 C 641.26 563.11 634.90 562.27 628.89 562.46 C 626.23 571.96 623.44 581.46 619.79 590.64 C 613.41 606.81 604.42 622.64 590.42 633.39 C 576.70 644.09 559.14 648.72 541.95 649.10 C 534.07 650.56 528.14 643.71 523.95 638.01 C 517.71 629.05 512.89 617.27 501.57 613.73 C 499.36 641.14 491.86 667.68 486.31 694.50 C 485.50 695.70 483.94 696.06 482.76 696.79 C 467.93 703.96 451.64 709.06 435.02 708.51 C 424.81 708.39 414.39 705.15 406.63 698.36 C 403.92 696.10 402.00 693.09 399.48 690.65 C 394.66 706.28 392.49 723.27 382.99 737.00 C 377.60 744.98 368.59 749.82 359.16 751.08 C 362.59 762.15 368.27 772.49 375.61 781.45 C 386.29 794.28 400.13 804.16 414.93 811.72 C 438.11 798.51 457.59 779.01 470.75 755.79 C 477.52 754.83 484.42 754.71 491.18 755.83 C 503.48 757.67 514.60 764.08 526.90 765.82 C 535.65 763.47 542.61 756.80 547.22 749.20 C 557.27 732.56 559.51 712.42 569.93 695.96 C 575.08 687.69 583.44 681.19 593.16 679.45 C 584.15 702.53 576.03 726.35 562.10 747.05 C 553.16 760.27 540.51 772.20 524.44 775.54 C 507.82 779.24 490.88 773.75 476.05 766.45 C 470.13 781.12 461.68 795.20 449.22 805.23 C 436.78 815.43 420.92 820.81 405.02 822.16 C 401.10 821.14 397.61 818.91 394.14 816.91 C 379.41 807.91 368.76 793.97 358.75 780.23 C 348.29 765.87 337.85 750.86 322.98 740.69 C 321.17 742.08 319.60 743.87 319.15 746.17 C 317.43 754.21 319.81 762.49 318.26 770.55 C 317.72 773.32 315.77 776.08 312.79 776.45 C 296.18 778.91 278.18 778.25 263.31 769.69 C 248.28 761.04 238.65 745.75 231.56 730.39 C 247.14 734.12 256.62 748.02 268.86 757.13 C 278.39 764.50 290.83 767.33 302.70 765.99 C 302.78 750.26 307.40 735.13 310.76 719.91 C 313.20 708.37 314.34 696.44 312.86 684.69 C 300.31 683.86 287.64 684.15 275.26 686.45 C 257.97 689.45 241.62 696.47 226.54 705.29 C 223.86 721.38 222.10 737.68 222.24 754.01 C 222.30 793.58 232.59 833.51 254.12 866.92 C 272.35 895.44 298.35 919.09 328.77 934.00 C 330.24 932.15 331.40 929.58 329.67 927.48 C 323.32 918.61 310.84 914.66 307.65 903.48 C 331.51 907.86 354.22 917.10 375.75 928.12 C 398.38 939.58 419.85 953.21 442.66 964.33 C 468.96 977.60 497.44 987.05 526.85 989.89 C 528.37 977.39 525.27 963.16 514.73 955.26 C 498.86 943.31 475.19 946.31 460.82 959.27 C 464.23 952.25 465.72 944.45 469.48 937.60 C 471.82 933.25 475.95 929.55 480.99 928.97 C 495.96 934.89 511.09 940.66 526.87 944.07 C 528.73 932.03 524.92 919.98 526.24 907.92 C 526.72 904.34 527.96 900.24 531.44 898.51 C 537.09 897.67 543.02 898.47 548.29 900.71 C 555.09 903.61 560.62 908.84 567.56 911.49 C 570.78 912.82 574.25 913.35 577.71 913.68 C 577.78 909.12 577.37 904.56 577.50 900.00 C 577.64 888.70 576.68 877.06 580.24 866.14 C 582.11 860.20 586.36 854.58 592.49 852.69 C 599.54 851.58 606.78 852.05 613.76 853.42 C 622.42 855.14 630.37 859.10 638.47 862.47 C 638.42 856.28 638.24 849.82 640.95 844.09 C 643.70 837.53 649.52 832.83 655.86 829.94 C 669.85 823.55 685.62 822.78 699.78 816.88 C 701.87 762.77 714.25 709.61 731.07 658.32 C 743.14 620.85 758.05 584.38 770.97 547.21 C 761.64 544.56 751.35 545.86 743.18 551.16 M 469.44 602.45 C 436.42 618.97 409.72 645.05 378.86 664.91 C 362.76 675.30 345.34 683.91 326.79 688.91 C 325.63 689.36 324.17 689.33 323.30 690.33 C 322.41 695.51 322.18 700.85 323.16 706.04 C 325.45 720.33 337.47 730.92 338.72 745.55 C 347.79 745.80 357.19 743.20 364.09 737.13 C 374.13 728.31 378.43 715.20 383.13 703.12 C 387.71 691.13 392.53 678.13 403.21 670.20 C 405.19 668.27 407.73 670.35 409.68 671.29 C 419.37 677.41 420.36 690.81 429.76 697.26 C 435.88 701.16 444.22 701.29 450.45 697.55 C 464.16 690.77 473.22 677.35 478.26 663.28 C 486.33 640.80 488.13 616.77 491.06 593.24 C 483.67 595.85 476.44 598.93 469.44 602.45 M 661.37 842.32 C 655.31 847.59 651.37 854.84 649.14 862.48 C 652.72 862.99 656.43 863.49 659.62 865.36 C 666.59 869.38 670.18 876.94 674.63 883.30 C 667.05 885.27 661.47 877.59 654.22 877.28 C 651.28 877.58 650.24 880.59 649.11 882.86 C 661.91 887.99 666.61 903.46 679.53 908.22 C 683.00 895.70 688.33 883.82 692.57 871.56 C 697.52 857.39 700.46 842.38 699.69 827.32 C 686.11 829.51 671.90 832.93 661.37 842.32 M 598.14 862.97 C 593.29 870.80 590.13 879.76 589.73 889.02 C 588.92 903.61 593.66 917.89 600.24 930.73 C 606.65 942.92 614.64 954.29 623.83 964.55 C 632.84 962.22 641.71 957.99 647.70 950.67 C 655.55 941.29 658.05 928.36 656.44 916.44 C 654.10 898.92 644.47 882.27 629.94 872.08 C 620.74 865.61 609.38 862.24 598.14 862.97 M 537.26 913.90 C 537.23 939.25 537.27 964.60 537.24 989.95 C 549.07 992.98 561.52 993.14 573.57 991.45 C 585.66 989.69 597.59 986.03 608.15 979.82 C 605.19 962.29 597.59 944.90 583.96 933.07 C 571.03 921.71 554.11 916.03 537.26 913.90 Z" />
<path fill="#ffffff" opacity="1.00" d=" M 618.35 516.95 C 638.71 525.61 661.20 525.95 682.92 527.49 C 702.21 528.89 722.15 529.55 740.26 537.08 C 722.30 552.19 706.22 569.78 685.93 581.91 C 684.62 583.15 683.00 581.90 681.65 581.43 C 661.20 572.12 649.30 550.83 628.59 541.95 C 625.48 562.79 615.89 582.37 602.39 598.44 C 593.56 608.80 582.85 617.80 570.40 623.46 C 559.32 628.44 546.13 630.25 534.72 625.27 C 523.00 620.36 514.74 609.85 509.25 598.72 C 506.03 592.05 503.55 585.05 501.55 577.92 C 532.39 559.65 568.15 551.61 598.64 532.64 C 605.72 528.11 612.56 523.07 618.35 516.95 Z" />
<path fill="#ffffff" opacity="1.00" d=" M 743.18 551.16 C 751.35 545.86 761.64 544.56 770.97 547.21 C 758.05 584.38 743.14 620.85 731.07 658.32 C 714.25 709.61 701.87 762.77 699.78 816.88 C 685.62 822.78 669.85 823.55 655.86 829.94 C 649.52 832.83 643.70 837.53 640.95 844.09 C 638.24 849.82 638.42 856.28 638.47 862.47 C 630.37 859.10 622.42 855.14 613.76 853.42 C 606.78 852.05 599.54 851.58 592.49 852.69 C 586.36 854.58 582.11 860.20 580.24 866.14 C 576.68 877.06 577.64 888.70 577.50 900.00 C 577.37 904.56 577.78 909.12 577.71 913.68 C 574.25 913.35 570.78 912.82 567.56 911.49 C 560.62 908.84 555.09 903.61 548.29 900.71 C 543.02 898.47 537.09 897.67 531.44 898.51 C 527.96 900.24 526.72 904.34 526.24 907.92 C 524.92 919.98 528.73 932.03 526.87 944.07 C 511.09 940.66 495.96 934.89 480.99 928.97 C 475.95 929.55 471.82 933.25 469.48 937.60 C 465.72 944.45 464.23 952.25 460.82 959.27 C 475.19 946.31 498.86 943.31 514.73 955.26 C 525.27 963.16 528.37 977.39 526.85 989.89 C 497.44 987.05 468.96 977.60 442.66 964.33 C 419.85 953.21 398.38 939.58 375.75 928.12 C 354.22 917.10 331.51 907.86 307.65 903.48 C 310.84 914.66 323.32 918.61 329.67 927.48 C 331.40 929.58 330.24 932.15 328.77 934.00 C 298.35 919.09 272.35 895.44 254.12 866.92 C 232.59 833.51 222.30 793.58 222.24 754.01 C 222.10 737.68 223.86 721.38 226.54 705.29 C 241.62 696.47 257.97 689.45 275.26 686.45 C 287.64 684.15 300.31 683.86 312.86 684.69 C 314.34 696.44 313.20 708.37 310.76 719.91 C 307.40 735.13 302.78 750.26 302.70 765.99 C 290.83 767.33 278.39 764.50 268.86 757.13 C 256.62 748.02 247.14 734.12 231.56 730.39 C 238.65 745.75 248.28 761.04 263.31 769.69 C 278.18 778.25 296.18 778.91 312.79 776.45 C 315.77 776.08 317.72 773.32 318.26 770.55 C 319.81 762.49 317.43 754.21 319.15 746.17 C 319.60 743.87 321.17 742.08 322.98 740.69 C 337.85 750.86 348.29 765.87 358.75 780.23 C 368.76 793.97 379.41 807.91 394.14 816.91 C 397.61 818.91 401.10 821.14 405.02 822.16 C 420.92 820.81 436.78 815.43 449.22 805.23 C 461.68 795.20 470.13 781.12 476.05 766.45 C 490.88 773.75 507.82 779.24 524.44 775.54 C 540.51 772.20 553.16 760.27 562.10 747.05 C 576.03 726.35 584.15 702.53 593.16 679.45 C 583.44 681.19 575.08 687.69 569.93 695.96 C 559.51 712.42 557.27 732.56 547.22 749.20 C 542.61 756.80 535.65 763.47 526.90 765.82 C 514.60 764.08 503.48 757.67 491.18 755.83 C 484.42 754.71 477.52 754.83 470.75 755.79 C 457.59 779.01 438.11 798.51 414.93 811.72 C 400.13 804.16 386.29 794.28 375.61 781.45 C 368.27 772.49 362.59 762.15 359.16 751.08 C 368.59 749.82 377.60 744.98 382.99 737.00 C 392.49 723.27 394.66 706.28 399.48 690.65 C 402.00 693.09 403.92 696.10 406.63 698.36 C 414.39 705.15 424.81 708.39 435.02 708.51 C 451.64 709.06 467.93 703.96 482.76 696.79 C 483.94 696.06 485.50 695.70 486.31 694.50 C 491.86 667.68 499.36 641.14 501.57 613.73 C 512.89 617.27 517.71 629.05 523.95 638.01 C 528.14 643.71 534.07 650.56 541.95 649.10 C 559.14 648.72 576.70 644.09 590.42 633.39 C 604.42 622.64 613.41 606.81 619.79 590.64 C 623.44 581.46 626.23 571.96 628.89 562.46 C 634.90 562.27 641.26 563.11 646.21 566.80 C 655.64 573.38 659.49 585.87 670.23 590.88 C 678.95 595.24 689.05 592.23 697.39 588.41 C 715.46 579.67 726.42 561.71 743.18 551.16 Z" />
<path fill="#ffffff" opacity="1.00" d=" M 469.44 602.45 C 476.44 598.93 483.67 595.85 491.06 593.24 C 488.13 616.77 486.33 640.80 478.26 663.28 C 473.22 677.35 464.16 690.77 450.45 697.55 C 444.22 701.29 435.88 701.16 429.76 697.26 C 420.36 690.81 419.37 677.41 409.68 671.29 C 407.73 670.35 405.19 668.27 403.21 670.20 C 392.53 678.13 387.71 691.13 383.13 703.12 C 378.43 715.20 374.13 728.31 364.09 737.13 C 357.19 743.20 347.79 745.80 338.72 745.55 C 337.47 730.92 325.45 720.33 323.16 706.04 C 322.18 700.85 322.41 695.51 323.30 690.33 C 324.17 689.33 325.63 689.36 326.79 688.91 C 345.34 683.91 362.76 675.30 378.86 664.91 C 409.72 645.05 436.42 618.97 469.44 602.45 Z" />
<path fill="#ffffff" opacity="1.00" d=" M 28.16 660.35 C 36.58 676.93 42.24 694.77 47.63 712.52 C 59.36 752.33 67.76 793.22 83.38 831.79 C 71.97 826.78 64.42 816.11 58.34 805.67 C 48.27 787.65 42.11 767.74 37.32 747.75 C 31.71 723.56 28.38 698.79 27.87 673.95 C 27.58 669.42 27.97 664.88 28.16 660.35 Z" />
<path fill="#ffffff" opacity="1.00" d=" M 661.37 842.32 C 671.90 832.93 686.11 829.51 699.69 827.32 C 700.46 842.38 697.52 857.39 692.57 871.56 C 688.33 883.82 683.00 895.70 679.53 908.22 C 666.61 903.46 661.91 887.99 649.11 882.86 C 650.24 880.59 651.28 877.58 654.22 877.28 C 661.47 877.59 667.05 885.27 674.63 883.30 C 670.18 876.94 666.59 869.38 659.62 865.36 C 656.43 863.49 652.72 862.99 649.14 862.48 C 651.37 854.84 655.31 847.59 661.37 842.32 Z" />
<path fill="#ffffff" opacity="1.00" d=" M 598.14 862.97 C 609.38 862.24 620.74 865.61 629.94 872.08 C 644.47 882.27 654.10 898.92 656.44 916.44 C 658.05 928.36 655.55 941.29 647.70 950.67 C 641.71 957.99 632.84 962.22 623.83 964.55 C 614.64 954.29 606.65 942.92 600.24 930.73 C 593.66 917.89 588.92 903.61 589.73 889.02 C 590.13 879.76 593.29 870.80 598.14 862.97 Z" />
<path fill="#ffffff" opacity="1.00" d=" M 537.26 913.90 C 554.11 916.03 571.03 921.71 583.96 933.07 C 597.59 944.90 605.19 962.29 608.15 979.82 C 597.59 986.03 585.66 989.69 573.57 991.45 C 561.52 993.14 549.07 992.98 537.24 989.95 C 537.27 964.60 537.23 939.25 537.26 913.90 Z" />
</svg>
