<?xml version="1.0" encoding="UTF-8" ?>
<!DOCTYPE svg PUBLIC "-//W3C//DTD SVG 1.1//EN" "http://www.w3.org/Graphics/SVG/1.1/DTD/svg11.dtd">
<svg width="276pt" height="265pt" viewBox="0 0 276 265" version="1.1" xmlns="http://www.w3.org/2000/svg">
<path fill="#ffffff" opacity="1.00" d=" M 0.00 0.00 L 276.00 0.00 L 276.00 265.00 L 0.00 265.00 L 0.00 0.00 M 153.46 8.06 L 152.57 8.85 C 148.54 9.35 144.45 8.68 140.42 9.14 L 139.57 10.02 C 137.24 10.34 134.50 9.31 132.50 10.89 C 131.18 11.17 129.42 10.55 128.56 11.95 C 127.19 12.03 125.83 12.09 124.46 12.14 C 123.96 12.44 122.97 13.05 122.47 13.36 C 121.10 14.25 119.46 14.11 117.91 14.15 L 118.42 15.69 C 117.87 15.57 116.77 15.35 116.21 15.24 C 116.30 15.69 116.46 16.60 116.54 17.06 C 110.79 18.44 105.35 21.14 100.43 24.40 C 98.88 25.13 97.08 24.87 95.53 25.60 C 93.05 26.90 91.34 29.19 89.62 31.32 C 89.31 31.24 88.70 31.06 88.39 30.98 C 85.33 34.02 82.72 37.66 78.87 39.77 C 75.70 41.51 72.95 43.99 71.22 47.20 C 69.01 48.40 67.46 50.67 65.00 51.37 C 65.05 51.81 65.17 52.71 65.23 53.16 C 64.72 53.12 63.70 53.03 63.19 52.98 C 63.10 54.62 62.59 56.16 61.81 57.59 C 61.18 60.59 59.15 63.09 56.38 64.40 C 55.44 65.92 54.33 67.34 53.68 69.02 C 53.30 69.01 52.54 69.00 52.16 68.99 C 51.91 70.48 52.48 72.37 51.13 73.47 C 51.09 74.01 51.01 75.09 50.97 75.63 C 48.97 77.15 47.65 79.26 46.76 81.57 C 45.91 83.15 45.12 84.78 44.76 86.55 C 43.79 87.67 44.14 89.20 43.99 90.54 C 43.13 91.45 42.17 92.33 41.79 93.56 C 40.99 95.21 40.14 96.82 39.26 98.43 C 39.07 101.48 36.26 103.34 35.09 105.99 C 35.07 108.83 35.12 111.67 35.10 114.51 L 35.85 115.43 C 36.34 121.08 35.82 126.80 36.06 132.48 C 37.38 133.43 36.89 135.15 37.17 136.51 C 39.29 138.67 36.63 142.47 38.94 144.44 C 39.29 146.39 38.22 148.93 39.88 150.43 C 40.14 151.77 39.61 153.46 40.85 154.44 C 41.12 155.79 40.69 157.46 41.92 158.45 C 42.12 160.45 41.60 162.63 42.63 164.47 C 43.72 166.06 44.85 167.64 45.71 169.38 C 47.02 171.30 47.98 173.34 48.89 175.46 C 48.94 175.99 49.05 177.05 49.10 177.58 C 49.93 178.36 50.32 179.36 50.27 180.57 C 50.54 181.06 51.09 182.04 51.36 182.53 C 51.79 183.51 52.06 184.53 52.19 185.60 C 53.63 186.99 55.00 188.50 55.75 190.39 C 56.37 193.88 61.77 193.73 61.17 197.63 C 63.70 202.36 68.33 205.65 70.29 210.66 C 72.63 211.20 73.23 213.71 74.72 215.27 C 77.86 219.24 80.78 223.40 84.41 226.96 C 85.83 226.96 87.24 226.96 88.65 226.98 C 89.52 227.95 90.41 228.90 91.30 229.86 C 92.45 229.86 93.51 230.14 94.49 230.72 C 96.01 231.11 97.49 231.66 98.98 232.18 C 98.99 232.63 99.01 233.52 99.02 233.97 C 99.65 234.00 100.92 234.06 101.55 234.09 C 102.86 235.40 104.89 234.77 106.44 235.59 C 107.81 236.52 109.16 237.47 110.54 238.39 C 112.52 239.47 114.83 238.87 116.97 239.01 C 117.00 239.49 117.07 240.47 117.10 240.95 C 117.62 240.94 118.65 240.91 119.17 240.89 C 119.13 241.41 119.05 242.44 119.01 242.96 C 122.73 243.38 127.27 241.73 130.45 243.94 C 131.09 243.95 132.36 243.98 133.00 243.99 C 132.99 244.51 132.97 245.56 132.95 246.09 C 136.17 243.87 140.40 245.45 144.06 245.00 C 143.99 249.84 144.09 254.68 143.98 259.52 C 143.17 260.48 142.79 261.63 142.84 262.95 C 145.49 263.01 148.14 263.01 150.80 262.94 C 150.73 258.43 150.20 253.84 151.40 249.42 L 153.58 249.49 L 153.42 250.58 C 159.47 250.45 165.53 250.45 171.58 250.56 L 171.41 249.45 C 174.48 249.63 177.55 249.49 180.63 249.58 L 180.40 248.38 C 181.77 248.43 183.14 248.49 184.52 248.54 L 184.36 247.10 C 184.88 247.25 185.93 247.56 186.45 247.71 L 186.41 246.16 C 186.92 246.30 187.93 246.57 188.44 246.71 L 188.44 245.59 C 189.37 245.17 190.29 244.74 191.21 244.30 C 191.80 244.09 192.98 243.69 193.57 243.49 L 193.49 242.31 C 194.01 242.41 195.04 242.61 195.56 242.70 L 195.31 241.28 L 196.64 241.68 L 196.44 240.36 L 197.35 240.58 C 198.05 239.62 198.77 238.67 199.51 237.74 C 201.84 237.50 204.18 237.23 206.43 236.51 C 205.82 234.15 208.81 233.14 210.64 233.51 L 210.64 232.68 C 211.28 232.63 212.58 232.53 213.22 232.48 C 214.96 230.62 219.02 230.54 218.91 227.49 L 219.50 227.58 C 220.01 226.23 221.27 226.51 222.35 226.88 C 223.98 224.69 225.99 222.84 228.27 221.37 C 231.86 228.38 233.58 236.19 235.32 243.84 C 237.55 250.12 239.42 256.50 240.81 263.01 C 242.88 263.00 244.95 263.00 247.02 262.99 C 247.10 258.70 246.69 254.42 246.42 250.14 L 245.07 250.18 C 244.96 248.63 245.23 246.97 244.32 245.60 C 243.96 244.88 243.24 243.42 242.89 242.70 C 242.43 243.13 241.98 243.56 241.54 244.00 C 242.65 246.93 243.17 250.03 243.73 253.10 C 242.53 249.44 241.21 245.78 240.45 242.01 C 241.41 239.78 240.11 237.63 238.69 235.95 C 238.35 236.18 237.68 236.65 237.34 236.88 C 237.23 234.72 237.04 232.57 236.87 230.42 C 236.58 229.83 236.00 228.64 235.71 228.04 C 235.28 228.02 234.44 227.99 234.01 227.97 C 233.97 224.11 233.87 220.24 233.96 216.38 C 236.21 214.69 237.69 212.31 239.35 210.11 C 239.92 210.03 241.07 209.87 241.65 209.79 C 241.89 209.24 242.37 208.13 242.61 207.58 C 243.58 204.81 245.84 202.88 247.26 200.39 C 247.77 199.40 248.31 198.42 248.87 197.47 C 248.91 196.94 249.01 195.88 249.05 195.35 C 253.61 191.54 256.53 186.32 259.80 181.49 C 259.98 178.93 259.94 176.33 261.22 174.02 C 261.66 174.00 262.55 173.97 262.99 173.95 C 262.98 171.60 262.89 169.23 263.30 166.90 C 262.76 166.73 261.68 166.40 261.14 166.24 C 261.98 168.24 261.46 170.38 260.29 172.06 C 260.73 170.49 261.83 168.64 260.77 167.11 C 258.75 167.81 258.98 170.39 258.17 172.04 C 257.40 174.91 255.01 177.91 256.78 180.86 C 256.44 180.38 255.76 179.42 255.42 178.94 C 253.74 184.12 249.39 187.92 245.89 191.96 C 245.98 194.15 244.84 196.11 243.83 197.97 C 237.67 209.02 226.83 216.19 218.69 225.61 C 214.23 227.14 211.02 231.00 206.48 232.36 C 203.84 233.21 201.10 234.01 198.97 235.88 C 189.74 241.84 178.60 243.81 167.81 244.42 C 164.84 244.57 161.87 245.61 158.90 244.96 C 152.04 243.66 145.03 243.57 138.14 242.60 C 133.64 242.25 129.69 238.24 125.05 239.81 L 125.46 238.55 C 123.43 238.13 121.38 237.46 119.30 237.91 C 116.07 235.39 111.98 234.54 108.63 232.25 C 105.84 229.98 99.90 231.32 99.99 226.51 C 99.32 226.98 98.64 227.45 97.96 227.91 C 96.65 226.92 95.39 225.87 94.14 224.81 C 93.83 223.53 93.50 222.27 93.18 221.00 C 95.64 222.07 95.68 227.00 99.09 225.54 C 95.37 220.40 90.94 215.76 87.45 210.49 C 86.54 206.67 84.89 202.77 81.57 200.43 C 81.43 199.83 81.14 198.61 80.99 198.00 C 80.65 197.85 79.97 197.56 79.63 197.41 C 79.95 199.77 79.21 201.92 77.87 203.83 L 75.99 202.77 C 77.16 204.74 77.14 206.95 76.62 209.09 C 75.51 206.83 74.72 204.43 73.88 202.07 C 74.10 200.98 74.53 198.81 74.75 197.72 C 71.95 198.20 73.40 201.60 72.20 203.43 C 72.35 204.12 72.66 205.49 72.82 206.17 C 72.18 205.35 71.66 204.47 71.26 203.51 C 70.86 203.22 70.06 202.66 69.67 202.37 C 67.83 198.46 66.46 194.24 67.42 189.88 C 68.51 193.87 69.65 197.88 71.31 201.71 C 73.33 201.32 70.76 196.92 73.25 196.07 L 73.17 198.31 C 76.57 198.25 74.47 194.44 74.47 192.51 C 73.95 192.12 72.90 191.34 72.37 190.95 C 72.38 191.89 72.39 193.77 72.40 194.71 C 72.18 194.72 71.72 194.74 71.50 194.75 C 71.58 193.37 71.04 191.90 71.34 190.56 C 72.03 190.51 72.73 190.50 73.42 190.42 C 70.08 189.18 72.15 187.59 73.12 186.35 L 71.95 186.65 C 72.47 184.18 70.34 182.80 69.13 181.03 C 67.20 178.32 65.89 175.18 65.21 171.92 C 65.46 170.64 65.41 168.37 67.05 168.07 C 69.89 170.03 72.72 172.19 74.77 175.02 C 74.80 174.42 74.88 173.23 74.91 172.63 C 77.54 174.33 80.79 174.47 83.73 173.56 C 85.28 171.66 84.71 168.57 87.39 167.50 C 87.61 168.64 87.84 169.79 88.17 170.91 C 88.53 170.32 89.24 169.16 89.60 168.58 C 90.79 171.77 92.56 174.81 95.66 176.47 C 95.17 179.29 93.62 182.18 94.56 185.07 C 95.07 188.43 97.48 191.07 100.12 193.02 C 98.26 193.67 96.43 194.38 94.55 194.94 C 92.52 192.87 89.35 192.78 87.26 190.82 C 84.49 188.32 81.51 186.04 79.23 183.07 C 75.46 179.61 72.84 174.75 67.89 172.77 C 71.02 176.85 74.32 180.83 76.65 185.45 C 78.35 189.40 81.03 193.21 84.97 195.16 C 83.25 192.19 80.09 190.27 78.83 187.02 C 82.81 190.44 86.51 194.19 90.24 197.86 C 92.50 198.82 94.66 199.98 96.73 201.31 C 96.59 199.98 96.80 198.70 97.11 197.43 L 97.14 200.78 L 99.54 199.56 C 98.66 200.05 97.79 200.57 96.93 201.10 C 99.83 201.06 102.78 200.88 105.54 202.00 C 105.25 201.59 104.68 200.78 104.39 200.37 C 107.94 201.44 111.64 201.91 115.24 202.79 C 115.32 202.41 115.46 201.65 115.53 201.27 C 115.62 202.74 116.44 203.32 117.99 203.03 C 122.47 203.26 126.92 202.81 131.29 201.85 C 131.43 201.42 131.71 200.54 131.85 200.10 C 130.75 199.50 129.41 198.90 128.28 199.79 C 126.75 199.31 125.21 198.86 123.72 198.27 C 124.66 198.31 126.56 198.40 127.51 198.45 C 127.34 198.05 127.01 197.26 126.84 196.86 C 124.08 195.50 120.70 194.88 118.53 192.62 C 117.25 189.11 116.68 185.32 115.32 181.80 C 114.75 185.58 116.52 189.22 115.93 193.02 C 116.00 194.01 117.10 193.51 117.72 193.51 C 117.74 194.29 116.56 195.82 117.93 196.01 C 119.44 196.28 120.93 196.71 122.06 197.82 C 120.19 197.68 118.11 195.23 116.55 197.15 C 116.13 196.19 115.68 195.24 115.16 194.33 C 113.53 195.22 110.68 196.88 113.96 197.76 C 109.41 197.18 104.97 195.96 101.11 193.36 C 105.61 193.19 107.66 189.10 109.64 185.69 C 110.30 183.61 110.19 181.36 110.98 179.32 C 112.54 179.49 114.20 179.74 115.52 178.63 C 118.45 176.34 122.16 175.74 125.61 174.62 C 125.81 172.24 127.36 170.52 128.68 168.69 C 131.46 168.50 134.24 167.19 137.02 167.99 C 141.71 169.27 147.19 169.51 150.69 173.32 C 154.23 177.18 159.79 179.04 164.94 178.68 C 169.62 176.83 172.97 172.78 176.06 168.99 C 179.20 168.13 182.04 166.02 185.39 166.18 C 187.07 168.58 188.85 170.99 189.53 173.90 C 189.69 173.53 190.00 172.78 190.16 172.40 C 190.25 168.79 189.23 165.34 187.02 162.47 C 185.29 163.58 181.48 161.87 181.49 164.76 C 179.13 164.73 176.76 165.36 175.06 167.08 C 173.87 167.77 172.65 169.92 171.26 168.39 C 170.47 169.91 169.71 171.68 167.96 172.30 C 162.92 174.14 157.43 173.00 152.93 170.32 C 153.43 170.86 154.43 171.93 154.94 172.46 L 154.76 173.09 C 150.71 170.18 146.25 167.84 142.45 164.57 C 139.39 163.31 136.70 160.92 133.44 160.37 C 132.23 158.98 131.08 157.55 130.05 156.02 C 130.14 156.84 130.32 158.50 130.41 159.33 C 128.04 157.28 125.20 155.66 122.01 156.92 C 120.59 156.12 119.18 155.32 117.74 154.54 C 117.64 156.45 117.91 158.34 118.22 160.22 C 118.62 159.82 119.43 159.02 119.83 158.61 C 122.05 158.76 124.12 159.50 125.73 161.09 C 125.86 161.88 126.13 163.48 126.26 164.28 C 125.62 164.56 124.33 165.13 123.69 165.41 C 124.22 165.66 125.27 166.15 125.80 166.40 C 125.15 167.74 124.66 169.15 124.30 170.59 C 122.43 170.85 120.55 171.04 118.74 171.61 C 120.45 172.03 122.20 172.27 123.94 172.57 C 123.03 174.47 120.68 173.46 119.09 174.24 C 117.72 174.79 116.40 175.48 115.06 176.11 C 115.00 175.27 114.87 173.58 114.81 172.74 C 114.12 172.95 112.74 173.36 112.05 173.57 C 112.91 173.16 113.77 172.77 114.63 172.37 C 115.30 170.61 116.77 169.43 117.97 168.07 C 118.14 166.65 118.14 165.22 117.98 163.78 C 117.59 164.02 116.81 164.51 116.42 164.75 C 116.56 164.27 116.83 163.32 116.97 162.84 L 115.38 162.90 C 113.03 166.11 111.78 169.95 110.63 173.71 C 109.68 174.31 107.51 174.41 108.19 176.14 C 108.25 178.12 108.13 180.09 107.94 182.07 C 105.80 184.91 102.70 186.67 99.04 186.06 C 97.64 182.86 98.57 179.41 98.12 176.07 C 97.77 171.42 97.07 166.80 96.93 162.14 L 95.65 162.08 C 95.90 165.19 96.16 168.30 96.14 171.43 C 95.35 170.85 94.56 170.27 93.78 169.69 C 93.16 167.82 91.89 165.90 93.26 164.03 C 93.87 161.24 97.13 161.67 99.27 161.09 C 95.38 158.31 94.61 153.60 93.57 149.28 C 94.26 149.46 95.65 149.82 96.34 149.99 C 95.82 147.88 93.97 146.27 94.00 143.99 C 94.37 142.44 95.02 140.99 95.56 139.50 C 97.26 138.36 99.22 137.76 101.18 137.23 C 102.07 137.81 102.98 138.38 103.91 138.93 C 103.05 136.41 99.85 135.56 99.50 132.85 C 99.57 132.11 99.71 130.62 99.78 129.87 C 100.16 129.71 100.92 129.38 101.31 129.22 C 103.01 130.11 104.83 130.73 106.72 131.10 C 107.01 128.71 107.17 128.66 107.19 130.95 C 109.14 130.12 111.12 129.38 113.14 128.73 C 109.80 126.96 105.91 128.80 102.41 127.58 C 100.80 126.27 99.51 124.15 99.95 122.01 C 100.51 118.11 98.85 114.13 100.27 110.34 C 99.05 106.62 98.98 102.67 99.16 98.79 C 100.37 94.21 104.08 89.82 102.46 84.85 C 101.74 87.47 101.48 90.40 99.59 92.52 C 97.58 94.74 97.40 97.92 96.92 100.74 C 95.99 99.55 94.61 99.35 93.20 99.30 C 92.77 98.27 92.12 97.41 91.26 96.73 C 90.41 98.86 92.78 101.22 94.77 99.78 C 95.65 101.87 96.52 103.97 97.24 106.13 C 96.74 106.18 95.74 106.28 95.24 106.33 C 99.83 112.28 96.83 120.27 98.41 127.06 C 90.94 127.70 85.48 120.27 77.99 120.60 C 73.96 120.89 69.93 121.03 65.89 121.08 C 64.02 121.00 62.76 119.37 61.52 118.17 C 60.54 118.20 58.59 118.25 57.61 118.28 C 58.22 117.87 59.46 117.06 60.08 116.65 C 59.61 116.50 58.68 116.21 58.21 116.07 C 57.06 113.15 54.47 109.37 56.86 106.45 C 56.65 106.12 56.23 105.45 56.02 105.12 C 57.65 103.19 59.38 101.33 61.58 100.01 C 60.87 100.02 59.44 100.04 58.73 100.05 C 59.78 98.52 60.84 96.97 61.26 95.14 L 60.44 95.11 C 59.68 97.05 58.07 98.60 57.84 100.74 C 54.91 103.20 53.67 106.86 52.67 110.42 C 51.60 109.68 50.71 108.73 49.76 107.85 C 50.37 109.58 50.82 111.49 52.22 112.78 C 55.71 115.49 52.56 120.54 55.28 123.84 C 55.93 123.47 56.48 122.96 56.93 122.32 C 57.94 124.85 59.10 127.43 58.38 130.22 C 57.77 131.84 59.47 132.72 60.34 133.79 C 61.32 136.71 62.37 139.64 62.05 142.78 L 62.84 142.78 C 62.99 141.36 63.29 139.97 63.75 138.63 C 64.18 140.58 63.95 142.55 62.30 143.86 C 64.63 146.19 67.80 147.44 69.74 150.19 C 69.29 148.73 68.80 147.29 68.27 145.87 L 69.58 146.06 C 69.71 147.96 70.54 149.72 71.90 151.05 C 73.99 151.58 74.19 149.58 74.70 148.11 C 74.59 148.83 74.37 150.29 74.27 151.01 L 75.99 150.97 C 75.99 151.44 75.99 152.37 75.99 152.84 C 76.51 152.74 77.56 152.53 78.09 152.42 C 78.10 153.10 78.13 154.46 78.15 155.14 C 78.51 153.71 79.62 152.82 80.80 152.07 C 80.37 151.64 79.49 150.79 79.06 150.36 C 79.94 150.99 80.81 151.63 81.67 152.28 C 81.24 152.88 80.79 153.47 80.32 154.04 L 83.28 154.49 C 83.06 151.89 85.41 153.61 85.48 154.89 L 82.77 154.57 C 85.28 156.25 85.08 158.66 83.91 161.17 L 85.76 160.30 C 85.72 161.55 85.62 162.80 85.49 164.06 C 85.46 163.29 85.40 161.75 85.38 160.98 L 84.23 161.06 C 84.04 162.64 83.80 164.25 82.99 165.65 C 81.88 166.86 80.96 168.23 79.83 169.44 C 76.81 169.75 73.15 169.36 70.92 167.10 C 67.01 160.66 61.61 154.85 54.79 151.48 C 54.72 152.33 54.63 153.19 54.51 154.04 C 53.46 148.82 53.22 143.52 54.18 138.26 C 55.52 138.04 56.86 137.78 58.19 137.49 C 56.04 135.99 53.12 135.77 50.80 137.04 C 48.90 136.72 47.28 137.64 45.81 138.70 C 46.01 137.58 46.21 136.47 46.41 135.37 C 47.05 135.57 47.71 135.62 48.38 135.56 C 47.50 133.56 48.74 131.76 49.22 129.91 C 47.78 129.79 44.99 129.99 45.13 127.81 C 45.27 126.07 44.53 124.60 43.04 123.70 C 43.52 123.74 44.48 123.81 44.95 123.84 L 44.29 122.11 C 45.27 122.83 46.49 122.68 47.63 122.59 C 47.53 122.90 47.35 123.50 47.26 123.81 C 47.82 123.93 48.94 124.19 49.51 124.31 C 50.52 120.11 47.60 115.95 49.43 111.74 C 47.51 113.18 47.10 115.63 46.72 117.85 L 46.11 117.86 C 46.27 117.03 46.58 115.37 46.74 114.54 L 45.31 114.42 C 45.48 113.52 45.65 112.62 45.82 111.73 C 45.55 110.36 45.37 108.98 45.19 107.60 C 44.61 107.85 43.45 108.36 42.86 108.61 C 43.01 108.08 43.29 107.02 43.43 106.49 C 45.39 104.46 46.43 107.49 47.72 108.61 C 47.76 107.29 47.85 104.66 47.90 103.34 L 46.26 105.26 C 45.60 104.43 44.95 103.60 44.29 102.77 C 44.95 102.66 46.26 102.44 46.92 102.33 C 48.81 100.35 50.36 98.04 52.47 96.27 C 53.01 98.03 51.63 99.34 51.03 100.83 C 53.51 99.62 55.11 96.02 52.81 93.87 C 55.80 89.81 57.77 85.02 58.24 79.99 C 59.49 77.51 62.01 75.89 63.61 73.63 C 65.51 73.89 67.12 73.28 68.42 71.82 C 67.27 71.63 66.13 71.40 65.00 71.14 C 66.80 70.05 68.26 68.54 69.68 67.00 C 69.29 70.15 69.95 73.32 68.22 76.23 C 70.29 75.90 71.23 74.02 72.05 72.32 C 74.11 74.66 77.18 73.67 79.87 73.86 C 82.07 74.88 83.87 76.57 85.89 77.89 C 84.88 73.62 79.32 73.41 77.49 69.62 C 76.98 69.67 75.98 69.76 75.48 69.80 C 75.31 70.37 74.96 71.51 74.79 72.08 C 76.40 70.97 77.83 71.27 79.08 72.98 C 77.28 73.01 75.47 73.04 73.67 73.06 C 73.71 72.35 73.78 70.94 73.82 70.23 C 73.38 69.87 72.48 69.15 72.03 68.79 C 72.00 69.50 71.92 70.92 71.88 71.63 L 70.90 71.73 C 71.02 69.35 71.39 66.97 72.54 64.85 C 72.05 64.48 71.56 64.13 71.05 63.79 C 70.63 64.31 69.79 65.34 69.37 65.86 C 69.96 62.42 71.63 59.02 74.68 57.14 C 74.03 58.69 73.36 60.23 72.63 61.74 C 73.63 62.17 74.62 62.61 75.62 63.06 C 76.02 62.62 76.83 61.76 77.23 61.33 C 77.01 63.24 76.65 65.13 76.13 66.99 C 77.62 65.61 79.37 64.60 81.39 64.29 C 83.03 64.66 84.44 63.53 85.95 63.12 C 89.40 63.98 92.71 65.33 96.08 66.43 C 93.77 62.97 89.40 62.39 85.78 61.06 C 83.01 61.34 80.26 61.92 78.04 63.73 C 78.39 61.65 78.75 59.57 79.09 57.50 C 78.41 58.15 77.05 59.44 76.37 60.09 C 76.65 58.11 76.90 56.13 77.31 54.17 C 77.52 53.47 77.93 51.18 76.40 52.09 C 75.36 53.18 73.11 54.25 74.60 56.04 C 72.19 54.95 73.91 52.32 74.56 50.58 C 77.95 43.08 84.24 37.43 90.35 32.11 C 95.23 27.79 101.64 26.09 107.57 23.77 C 111.90 21.00 116.81 19.17 121.78 17.92 C 121.25 17.47 120.77 16.99 120.32 16.48 C 122.21 15.68 124.03 14.69 126.02 14.17 C 124.95 14.68 122.81 15.70 121.74 16.21 C 125.77 18.48 129.94 14.82 134.04 14.35 C 139.69 13.89 145.21 11.97 150.91 12.27 C 156.93 13.83 162.92 11.26 168.98 11.94 C 177.86 10.34 186.03 14.92 193.98 18.13 C 200.60 20.41 207.53 22.44 213.16 26.79 C 217.08 31.26 221.45 35.42 226.46 38.67 C 230.34 42.06 233.28 46.37 236.98 49.94 C 245.99 59.15 253.10 70.11 258.28 81.88 C 260.76 91.94 264.34 101.70 266.71 111.78 C 267.09 115.11 268.51 118.65 267.12 121.92 C 269.16 127.05 267.69 132.59 267.16 137.87 C 267.06 140.33 265.36 142.26 264.57 144.51 C 263.55 148.28 264.29 152.31 263.01 156.03 C 262.01 159.11 260.97 162.20 259.59 165.14 C 260.43 166.12 261.73 165.94 262.74 165.36 C 262.77 163.17 263.16 161.01 263.66 158.89 C 263.56 160.60 263.34 162.31 263.11 164.02 L 265.00 163.99 C 265.00 162.09 264.99 160.19 265.00 158.28 C 265.41 158.13 266.23 157.83 266.64 157.68 C 267.51 154.32 267.69 150.84 268.44 147.47 C 268.69 145.19 267.77 141.26 270.54 140.48 C 269.96 138.79 270.91 137.28 271.54 135.79 C 271.48 132.54 270.83 129.07 272.53 126.10 C 272.23 122.07 272.59 117.97 271.78 114.01 C 267.59 103.29 265.12 91.95 260.23 81.55 C 259.53 77.14 257.63 73.05 256.10 68.89 C 253.48 61.38 246.36 57.01 241.69 50.93 C 239.56 49.21 237.89 46.75 235.29 45.72 C 232.80 40.17 227.91 36.43 223.31 32.71 C 218.67 28.60 215.16 23.27 209.80 20.01 C 205.75 19.29 201.86 17.86 198.32 15.75 C 196.58 14.64 194.37 15.33 192.56 14.42 C 190.94 13.33 189.49 11.85 187.43 11.77 C 186.09 10.52 184.09 11.25 182.47 10.84 C 179.21 6.74 173.64 10.77 169.41 8.87 C 167.62 7.20 164.79 8.39 162.63 7.75 C 162.66 8.71 162.68 9.66 162.71 10.62 L 165.92 10.18 C 164.32 11.64 162.07 10.50 160.19 10.52 C 160.58 10.28 161.38 9.81 161.77 9.57 C 161.59 9.12 161.23 8.23 161.04 7.79 C 158.52 8.05 155.99 8.00 153.46 8.06 M 159.52 36.60 C 158.27 37.13 156.61 37.02 155.82 38.33 C 154.54 38.18 153.35 38.66 152.22 39.21 C 148.72 40.90 144.76 40.93 140.99 41.48 C 133.33 41.36 125.70 42.19 118.05 42.58 C 114.67 42.32 111.51 40.25 108.05 41.03 C 103.69 41.63 99.34 42.30 94.93 42.41 C 100.13 43.95 105.64 42.13 110.86 43.16 C 115.51 45.86 121.04 44.74 126.11 44.31 C 130.73 43.69 135.40 46.21 139.90 44.22 C 142.70 42.74 145.86 44.05 148.62 42.52 C 150.51 41.51 153.16 42.24 154.56 40.42 C 154.94 40.73 155.68 41.35 156.05 41.66 C 156.07 40.96 156.11 39.56 156.14 38.85 L 157.47 39.69 C 161.82 35.58 168.36 35.42 173.19 32.14 C 168.37 32.59 164.06 35.11 159.52 36.60 M 127.73 57.68 C 121.80 59.47 115.85 63.08 113.09 68.81 C 115.43 66.53 117.43 63.71 120.59 62.50 C 123.43 61.53 125.76 59.57 128.45 58.29 C 130.35 57.80 132.35 57.78 134.30 57.49 C 136.70 55.53 140.19 56.58 143.03 55.63 C 146.42 56.24 149.58 54.61 152.97 55.33 C 151.36 53.10 148.20 54.64 145.92 54.49 C 139.78 54.19 133.17 54.54 127.73 57.68 M 120.30 76.01 C 122.16 74.22 124.45 72.49 125.06 69.86 C 122.85 71.13 120.04 73.16 120.30 76.01 M 193.21 75.91 C 193.59 79.54 194.97 83.14 194.27 86.83 C 193.46 91.26 192.41 95.67 191.66 100.08 C 193.51 101.21 192.39 101.29 191.04 101.25 C 191.27 102.88 191.20 104.49 190.84 106.09 C 191.13 106.51 191.70 107.34 191.99 107.75 C 191.58 107.33 190.74 106.48 190.32 106.06 C 189.06 108.38 187.91 111.00 185.48 112.34 C 182.44 114.16 179.72 116.95 175.98 117.11 C 171.77 117.58 167.70 118.83 163.50 119.31 C 163.52 119.99 163.58 121.34 163.61 122.01 C 163.52 121.42 163.34 120.23 163.25 119.64 C 154.98 121.77 146.43 120.18 138.04 120.85 C 132.14 121.09 127.45 125.05 122.02 126.83 C 120.01 127.09 120.47 129.19 120.08 130.55 C 119.47 129.53 119.20 128.42 119.27 127.21 C 116.88 127.07 114.48 126.94 112.09 126.92 C 114.21 128.72 116.62 131.04 115.99 134.14 C 115.12 137.84 113.27 141.19 111.29 144.39 C 110.38 146.43 111.18 150.44 107.98 150.22 L 108.01 151.57 C 110.45 151.13 112.89 150.66 115.37 150.52 C 116.32 151.72 117.65 152.49 118.92 153.31 C 118.74 151.59 118.86 149.86 119.11 148.16 C 120.05 148.50 120.99 148.85 121.93 149.21 C 123.72 147.71 123.70 144.68 125.96 143.78 C 125.61 144.16 124.92 144.91 124.57 145.29 C 126.33 147.47 127.50 150.02 128.49 152.62 C 129.13 152.16 130.41 151.25 131.05 150.80 C 133.49 151.70 134.18 154.39 134.19 156.74 C 135.02 155.63 135.80 154.48 136.53 153.29 C 136.30 155.22 138.45 155.97 139.75 156.87 C 140.56 158.23 141.36 159.60 142.16 160.96 C 143.91 160.67 145.41 161.78 147.02 162.22 C 146.61 161.59 145.79 160.32 145.38 159.69 C 148.24 159.83 150.47 161.72 152.72 163.26 C 152.79 162.76 152.93 161.76 153.00 161.26 C 154.43 164.52 158.98 163.75 161.89 163.35 C 168.36 162.70 172.30 157.13 176.70 153.04 C 178.18 151.74 179.41 149.18 181.73 149.75 C 181.62 148.28 182.90 147.54 183.85 146.68 L 183.05 149.30 C 185.91 146.50 189.58 144.82 193.21 143.26 C 193.67 143.46 194.60 143.87 195.06 144.08 C 195.18 143.55 195.41 142.49 195.53 141.96 C 196.75 142.77 198.52 143.20 198.75 144.93 C 201.98 150.45 197.70 156.46 198.08 162.28 C 198.74 160.74 199.47 159.25 200.28 157.79 C 200.29 162.20 199.60 166.61 200.14 171.00 L 201.16 171.01 C 200.75 163.29 201.99 155.58 201.21 147.88 C 200.94 145.60 199.97 143.44 198.69 141.55 C 197.19 140.39 195.10 140.52 193.35 139.97 C 193.19 140.53 192.86 141.63 192.69 142.18 L 193.00 139.82 C 188.60 140.64 185.14 143.57 181.08 145.23 C 179.64 146.29 176.97 147.43 177.60 149.58 C 176.48 149.45 175.56 149.86 174.84 150.81 C 171.59 152.85 169.66 156.36 166.35 158.31 C 162.93 160.90 157.86 162.09 154.02 159.75 C 148.96 156.73 142.06 156.15 139.09 150.35 L 139.44 150.27 C 142.42 152.75 145.67 155.02 149.39 156.23 C 146.33 153.70 142.76 151.78 140.13 148.73 C 139.45 146.54 138.28 144.18 139.49 141.94 C 139.73 148.73 145.90 153.22 151.94 154.82 C 157.22 155.39 163.52 155.66 167.36 151.28 C 169.71 147.71 170.10 143.20 170.16 139.03 C 170.34 136.07 168.46 133.21 170.14 130.32 L 167.94 133.44 L 168.08 131.66 L 166.92 132.01 L 167.60 130.51 C 166.98 130.36 165.74 130.07 165.11 129.93 C 165.93 129.32 166.75 128.71 167.55 128.07 C 164.75 127.17 161.87 126.69 158.95 126.51 C 160.60 126.25 162.29 126.18 163.93 125.80 C 166.64 126.41 169.28 127.81 170.51 130.42 C 169.30 134.49 172.69 137.86 172.18 141.93 C 172.37 147.74 168.73 153.19 163.71 155.91 C 160.14 158.28 155.27 155.06 152.02 157.98 C 156.71 157.97 161.92 158.87 166.10 156.14 C 170.95 152.81 173.63 146.93 173.51 141.10 C 172.97 136.35 174.69 131.69 173.96 126.94 C 173.58 125.30 174.96 124.09 175.65 122.77 C 176.60 122.54 177.55 122.29 178.49 122.04 C 180.68 120.69 182.95 119.47 185.39 118.62 C 189.53 117.47 191.56 113.32 193.77 110.02 C 195.70 103.85 196.00 97.26 196.70 90.87 C 195.64 88.30 196.10 85.52 195.90 82.83 C 195.24 80.44 194.30 78.13 193.21 75.91 M 202.41 93.34 C 200.34 95.12 199.06 97.96 199.56 100.71 C 200.31 104.64 203.51 107.32 205.65 110.50 C 210.08 114.62 213.24 120.07 218.16 123.60 L 217.72 122.39 C 213.71 118.29 210.31 113.65 206.61 109.28 C 204.01 104.84 202.29 98.92 205.32 94.24 C 208.09 90.13 211.65 86.58 213.98 82.16 C 210.05 85.81 206.30 89.65 202.41 93.34 M 108.31 95.44 C 107.06 95.93 105.32 97.44 105.99 98.91 C 107.37 99.28 109.79 96.27 108.31 95.44 M 55.13 124.83 C 55.83 125.96 56.34 128.21 57.89 128.22 C 58.13 126.80 56.91 124.04 55.13 124.83 M 168.24 130.24 C 168.57 130.57 168.57 130.57 168.24 130.24 M 97.98 143.61 L 99.01 143.92 C 99.58 142.21 100.87 140.99 102.20 139.85 C 99.82 139.62 98.91 141.89 97.98 143.61 M 103.81 142.07 C 101.62 142.85 99.66 145.48 101.56 147.54 C 101.58 145.44 102.80 143.78 103.81 142.07 M 104.19 148.80 C 105.81 148.72 105.70 145.86 104.15 145.73 C 102.80 146.04 102.88 148.49 104.19 148.80 M 103.65 152.03 C 103.65 155.31 106.71 150.66 103.65 152.03 M 150.58 156.00 L 150.33 156.90 C 151.98 158.45 152.71 154.57 150.58 156.00 M 104.27 159.48 C 105.47 160.06 107.41 158.30 106.75 157.07 C 105.49 156.53 103.64 158.17 104.27 159.48 M 134.99 159.18 C 135.67 159.87 135.67 159.87 134.99 159.18 M 178.77 173.47 C 175.03 177.93 170.71 182.11 165.25 184.37 L 166.04 185.96 C 165.27 185.72 163.73 185.25 162.96 185.01 C 163.70 185.57 164.43 186.13 165.16 186.70 C 164.44 187.03 162.99 187.69 162.27 188.02 C 162.91 188.51 163.44 189.08 163.87 189.74 C 158.82 193.39 153.74 197.14 147.63 198.81 C 146.37 198.40 145.13 197.95 143.90 197.47 C 144.44 197.42 145.51 197.32 146.05 197.27 C 151.59 194.43 157.72 192.85 163.12 189.68 C 162.01 189.25 160.88 189.11 159.72 189.26 C 160.11 187.95 161.30 187.22 162.21 186.29 C 161.04 186.83 159.89 187.38 158.74 187.94 C 158.15 188.71 157.45 189.36 156.63 189.87 L 156.77 190.46 C 149.57 194.16 141.51 195.50 134.18 198.91 L 132.88 198.63 C 132.67 199.76 132.45 200.89 132.22 202.02 C 137.19 201.53 141.82 199.49 146.77 198.93 C 147.61 199.56 148.46 200.20 149.30 200.83 L 149.30 199.58 C 151.89 199.78 153.89 197.85 156.08 196.83 L 155.11 199.20 C 158.45 195.79 162.08 192.69 165.80 189.70 C 167.13 189.03 166.64 187.87 165.50 187.36 C 166.08 186.98 167.24 186.24 167.83 185.86 C 168.02 186.37 168.40 187.40 168.59 187.91 C 168.54 187.08 168.49 186.27 168.44 185.45 C 169.97 185.23 170.76 183.83 171.79 182.86 C 175.63 179.60 179.00 175.83 182.09 171.87 C 180.76 171.90 179.55 172.37 178.77 173.47 M 193.01 182.04 C 189.79 186.71 185.83 190.81 182.45 195.36 C 184.11 196.52 185.75 194.59 185.95 193.00 C 185.79 194.97 184.80 196.63 183.34 197.92 C 182.93 197.34 182.54 196.75 182.14 196.17 C 178.82 203.27 176.18 210.65 173.22 217.90 C 171.47 221.11 173.38 224.71 172.74 228.16 C 176.06 224.43 176.90 219.38 178.95 214.97 C 179.44 214.81 180.43 214.48 180.92 214.31 L 179.70 213.95 C 180.06 212.66 179.90 211.36 179.30 210.20 C 179.96 209.01 180.68 207.84 181.75 206.98 C 181.45 207.42 180.84 208.30 180.53 208.74 C 180.96 209.43 181.39 210.12 181.83 210.81 C 183.56 207.09 187.42 204.87 188.86 200.90 C 188.81 201.88 188.71 203.83 188.67 204.81 C 190.84 203.10 191.40 200.17 193.54 198.44 C 195.31 196.93 195.80 194.39 197.66 192.98 C 195.89 195.46 194.81 198.31 194.30 201.31 C 197.22 199.54 197.78 195.67 199.20 192.79 C 198.69 192.75 197.68 192.67 197.17 192.63 C 198.00 191.50 198.65 190.29 199.12 188.98 C 197.40 189.95 195.96 191.31 194.60 192.71 C 193.67 193.30 192.78 193.96 191.93 194.67 C 194.05 191.70 196.04 188.61 198.81 186.20 L 199.15 188.58 C 200.55 186.85 201.05 184.60 201.08 182.41 C 200.69 183.01 199.92 184.19 199.54 184.78 C 199.17 184.32 198.44 183.40 198.08 182.94 C 197.67 185.01 197.48 187.84 194.85 188.19 C 195.16 187.50 195.79 186.13 196.10 185.44 C 196.06 184.92 195.99 183.88 195.95 183.36 C 194.95 184.07 192.96 185.48 191.97 186.19 C 192.93 183.99 194.26 181.98 195.32 179.83 C 194.41 180.43 193.64 181.17 193.01 182.04 M 75.43 191.14 C 76.32 194.94 76.21 198.86 75.94 202.73 L 77.65 202.79 C 78.29 198.80 77.87 194.77 76.70 190.92 C 76.38 190.97 75.75 191.09 75.43 191.14 M 89.23 199.60 C 88.25 204.29 93.13 207.08 95.08 210.62 C 95.07 209.98 95.05 208.69 95.04 208.05 C 96.28 208.82 97.72 209.32 98.73 210.42 C 102.95 210.49 104.65 215.59 103.34 219.00 C 103.07 220.78 101.95 222.93 103.25 224.55 C 105.35 227.22 107.69 229.74 110.33 231.88 C 108.94 228.58 106.68 225.67 105.71 222.17 C 104.65 219.27 105.22 216.14 105.14 213.13 L 106.99 213.54 C 105.52 211.42 104.28 209.15 102.74 207.09 C 100.52 206.25 98.16 205.85 95.83 205.45 C 94.51 202.74 91.99 200.70 89.23 199.60 M 135.81 204.42 C 130.83 206.74 124.75 206.12 120.34 209.94 C 120.45 210.94 120.68 212.94 120.79 213.94 C 121.90 212.89 122.97 211.78 123.91 210.58 C 125.10 210.55 126.30 210.57 127.50 210.58 C 128.17 211.07 128.83 211.56 129.50 212.05 C 130.50 209.19 134.32 209.42 135.95 206.94 C 137.89 206.03 139.76 204.94 141.33 203.47 C 139.50 203.84 137.65 204.09 135.81 204.42 M 95.23 211.15 C 95.76 211.76 95.76 211.76 95.23 211.15 M 122.31 214.00 C 122.64 214.37 122.64 214.37 122.31 214.00 M 124.52 216.13 C 125.01 217.30 124.61 218.28 123.66 219.08 C 125.77 221.29 128.75 223.49 128.08 226.99 C 128.36 230.33 126.12 234.67 129.06 237.27 C 128.89 236.47 128.55 234.89 128.38 234.10 C 131.95 232.62 131.25 228.16 132.04 225.10 C 131.48 223.64 131.01 222.13 130.25 220.76 C 128.50 219.27 124.93 218.69 125.80 215.65 C 125.48 215.77 124.84 216.01 124.52 216.13 Z" />
<path fill="#040404" opacity="1.00" d=" M 153.46 8.06 C 155.99 8.00 158.52 8.05 161.04 7.79 C 161.23 8.23 161.59 9.12 161.77 9.57 C 161.38 9.81 160.58 10.28 160.19 10.52 C 162.07 10.50 164.32 11.64 165.92 10.18 L 162.71 10.62 C 162.68 9.66 162.66 8.71 162.63 7.75 C 164.79 8.39 167.62 7.20 169.41 8.87 C 173.64 10.77 179.21 6.74 182.47 10.84 C 184.09 11.25 186.09 10.52 187.43 11.77 C 189.49 11.85 190.94 13.33 192.56 14.42 C 194.37 15.33 196.58 14.64 198.32 15.75 C 201.86 17.86 205.75 19.29 209.80 20.01 C 215.16 23.27 218.67 28.60 223.31 32.71 C 227.91 36.43 232.80 40.17 235.29 45.72 C 237.89 46.75 239.56 49.21 241.69 50.93 C 246.36 57.01 253.48 61.38 256.10 68.89 C 257.63 73.05 259.53 77.14 260.23 81.55 C 265.12 91.95 267.59 103.29 271.78 114.01 C 272.59 117.97 272.23 122.07 272.53 126.10 C 270.83 129.07 271.48 132.54 271.54 135.79 C 270.91 137.28 269.96 138.79 270.54 140.48 C 267.77 141.26 268.69 145.19 268.44 147.47 C 267.69 150.84 267.51 154.32 266.64 157.68 C 266.23 157.83 265.41 158.13 265.00 158.28 C 264.99 160.19 265.00 162.09 265.00 163.99 L 263.11 164.02 C 263.34 162.31 263.56 160.60 263.66 158.89 C 263.16 161.01 262.77 163.17 262.74 165.36 C 261.73 165.94 260.43 166.12 259.59 165.14 C 260.97 162.20 262.01 159.11 263.01 156.03 C 264.29 152.31 263.55 148.28 264.57 144.51 C 265.36 142.26 267.06 140.33 267.16 137.87 C 267.69 132.59 269.16 127.05 267.12 121.92 C 268.51 118.65 267.09 115.11 266.71 111.78 C 264.34 101.70 260.76 91.94 258.28 81.88 C 253.10 70.11 245.99 59.15 236.98 49.94 C 233.28 46.37 230.34 42.06 226.46 38.67 C 221.45 35.42 217.08 31.26 213.16 26.79 C 207.53 22.44 200.60 20.41 193.98 18.13 C 186.03 14.92 177.86 10.34 168.98 11.94 C 162.92 11.26 156.93 13.83 150.91 12.27 C 145.21 11.97 139.69 13.89 134.04 14.35 C 129.94 14.82 125.77 18.48 121.74 16.21 C 122.81 15.70 124.95 14.68 126.02 14.17 C 124.03 14.69 122.21 15.68 120.32 16.48 C 120.77 16.99 121.25 17.47 121.78 17.92 C 116.81 19.17 111.90 21.00 107.57 23.77 C 101.64 26.09 95.23 27.79 90.35 32.11 C 84.24 37.43 77.95 43.08 74.56 50.58 C 73.91 52.32 72.19 54.95 74.60 56.04 C 73.11 54.25 75.36 53.18 76.40 52.09 C 77.93 51.18 77.52 53.47 77.31 54.17 C 76.90 56.13 76.65 58.11 76.37 60.09 C 77.05 59.44 78.41 58.15 79.09 57.50 C 78.75 59.57 78.39 61.65 78.04 63.73 C 80.26 61.92 83.01 61.34 85.78 61.06 C 89.40 62.39 93.77 62.97 96.08 66.43 C 92.71 65.33 89.40 63.98 85.95 63.12 C 84.44 63.53 83.03 64.66 81.39 64.29 C 79.37 64.60 77.62 65.61 76.13 66.99 C 76.65 65.13 77.01 63.24 77.23 61.33 C 76.83 61.76 76.02 62.62 75.62 63.06 C 74.62 62.61 73.63 62.17 72.63 61.74 C 73.36 60.23 74.03 58.69 74.68 57.14 C 71.63 59.02 69.96 62.42 69.37 65.86 C 69.79 65.34 70.63 64.31 71.05 63.79 C 71.56 64.13 72.05 64.48 72.54 64.85 C 71.39 66.97 71.02 69.35 70.90 71.73 L 71.88 71.63 C 71.92 70.92 72.00 69.50 72.03 68.79 C 72.48 69.15 73.38 69.87 73.82 70.23 C 73.78 70.94 73.71 72.35 73.67 73.06 C 75.47 73.04 77.28 73.01 79.08 72.98 C 77.83 71.27 76.40 70.97 74.79 72.08 C 74.96 71.51 75.31 70.37 75.48 69.80 C 75.98 69.76 76.98 69.67 77.49 69.62 C 79.32 73.41 84.88 73.62 85.89 77.89 C 83.87 76.57 82.07 74.88 79.87 73.86 C 77.18 73.67 74.11 74.66 72.05 72.32 C 71.23 74.02 70.29 75.90 68.22 76.23 C 69.95 73.32 69.29 70.15 69.68 67.00 C 68.26 68.54 66.80 70.05 65.00 71.14 C 66.13 71.40 67.27 71.63 68.42 71.82 C 67.12 73.28 65.51 73.89 63.61 73.63 C 62.01 75.89 59.49 77.51 58.24 79.99 C 57.77 85.02 55.80 89.81 52.81 93.87 C 55.11 96.02 53.51 99.62 51.03 100.83 C 51.63 99.34 53.01 98.03 52.47 96.27 C 50.36 98.04 48.81 100.35 46.92 102.33 C 46.26 102.44 44.95 102.66 44.29 102.77 C 44.95 103.60 45.60 104.43 46.26 105.26 L 47.90 103.34 C 47.85 104.66 47.76 107.29 47.72 108.61 C 46.43 107.49 45.39 104.46 43.43 106.49 C 43.29 107.02 43.01 108.08 42.86 108.61 C 43.45 108.36 44.61 107.85 45.19 107.60 C 45.37 108.98 45.55 110.36 45.82 111.73 C 45.65 112.62 45.48 113.52 45.31 114.42 L 46.74 114.54 C 46.58 115.37 46.27 117.03 46.11 117.86 L 46.72 117.85 C 47.10 115.63 47.51 113.18 49.43 111.74 C 47.60 115.95 50.52 120.11 49.51 124.31 C 48.94 124.19 47.82 123.93 47.26 123.81 C 47.35 123.50 47.53 122.90 47.63 122.59 C 46.49 122.68 45.27 122.83 44.29 122.11 L 44.95 123.84 C 44.48 123.81 43.52 123.74 43.04 123.70 C 44.53 124.60 45.27 126.07 45.13 127.81 C 44.99 129.99 47.78 129.79 49.22 129.91 C 48.74 131.76 47.50 133.56 48.38 135.56 C 47.71 135.62 47.05 135.57 46.41 135.37 C 46.21 136.47 46.01 137.58 45.81 138.70 C 47.28 137.64 48.90 136.72 50.80 137.04 C 53.12 135.77 56.04 135.99 58.19 137.49 C 56.86 137.78 55.52 138.04 54.18 138.26 C 53.22 143.52 53.46 148.82 54.51 154.04 C 54.63 153.19 54.72 152.33 54.79 151.48 C 61.61 154.85 67.01 160.66 70.92 167.10 C 73.15 169.36 76.81 169.75 79.83 169.44 C 80.96 168.23 81.88 166.86 82.99 165.65 C 83.80 164.25 84.04 162.64 84.23 161.06 L 85.38 160.98 C 85.40 161.75 85.46 163.29 85.49 164.06 C 85.62 162.80 85.72 161.55 85.76 160.30 L 83.91 161.17 C 85.08 158.66 85.28 156.25 82.77 154.57 L 85.48 154.89 C 85.41 153.61 83.06 151.89 83.28 154.49 L 80.32 154.04 C 80.79 153.47 81.24 152.88 81.67 152.28 C 80.81 151.63 79.94 150.99 79.06 150.36 C 79.49 150.79 80.37 151.64 80.80 152.07 C 79.62 152.82 78.51 153.71 78.15 155.14 C 78.13 154.46 78.10 153.10 78.09 152.42 C 77.56 152.53 76.51 152.74 75.99 152.84 C 75.99 152.37 75.99 151.44 75.99 150.97 L 74.27 151.01 C 74.37 150.29 74.59 148.83 74.70 148.11 C 74.19 149.58 73.99 151.58 71.90 151.05 C 70.54 149.72 69.71 147.96 69.58 146.06 L 68.27 145.87 C 68.80 147.29 69.29 148.73 69.74 150.19 C 67.80 147.44 64.63 146.19 62.30 143.86 C 63.95 142.55 64.18 140.58 63.75 138.63 C 63.29 139.97 62.99 141.36 62.84 142.78 L 62.05 142.78 C 62.37 139.64 61.32 136.71 60.34 133.79 C 59.47 132.72 57.77 131.84 58.38 130.22 C 59.10 127.43 57.94 124.85 56.93 122.32 C 56.48 122.96 55.93 123.47 55.28 123.84 C 52.56 120.54 55.71 115.49 52.22 112.78 C 50.82 111.49 50.37 109.58 49.76 107.85 C 50.71 108.73 51.60 109.68 52.67 110.42 C 53.67 106.86 54.91 103.20 57.84 100.74 C 58.07 98.60 59.68 97.05 60.44 95.11 L 61.26 95.14 C 60.84 96.97 59.78 98.52 58.73 100.05 C 59.44 100.04 60.87 100.02 61.58 100.01 C 59.38 101.33 57.65 103.19 56.02 105.12 C 56.23 105.45 56.65 106.12 56.86 106.45 C 54.47 109.37 57.06 113.15 58.21 116.07 C 58.68 116.21 59.61 116.50 60.08 116.65 C 59.46 117.06 58.22 117.87 57.61 118.28 C 58.59 118.25 60.54 118.20 61.52 118.17 C 62.76 119.37 64.02 121.00 65.89 121.08 C 69.93 121.03 73.96 120.89 77.99 120.60 C 85.48 120.27 90.94 127.70 98.41 127.06 C 96.83 120.27 99.83 112.28 95.24 106.33 C 95.74 106.28 96.74 106.18 97.24 106.13 C 96.52 103.97 95.65 101.87 94.77 99.78 C 92.78 101.22 90.41 98.86 91.26 96.73 C 92.12 97.41 92.77 98.27 93.20 99.30 C 94.61 99.35 95.99 99.55 96.92 100.74 C 97.40 97.92 97.58 94.74 99.59 92.52 C 101.48 90.40 101.74 87.47 102.46 84.85 C 104.08 89.82 100.37 94.21 99.16 98.79 C 98.98 102.67 99.05 106.62 100.27 110.34 C 98.85 114.13 100.51 118.11 99.95 122.01 C 99.51 124.15 100.80 126.27 102.41 127.58 C 105.91 128.80 109.80 126.96 113.14 128.73 C 111.12 129.38 109.14 130.12 107.19 130.95 C 107.17 128.66 107.01 128.71 106.72 131.10 C 104.83 130.73 103.01 130.11 101.31 129.22 C 100.92 129.38 100.16 129.71 99.78 129.87 C 99.71 130.62 99.57 132.11 99.50 132.85 C 99.85 135.56 103.05 136.41 103.91 138.93 C 102.98 138.38 102.07 137.81 101.18 137.23 C 99.22 137.76 97.26 138.36 95.56 139.50 C 95.02 140.99 94.37 142.44 94.00 143.99 C 93.97 146.27 95.82 147.88 96.34 149.99 C 95.65 149.82 94.26 149.46 93.57 149.28 C 94.61 153.60 95.38 158.31 99.27 161.09 C 97.13 161.67 93.87 161.24 93.26 164.03 C 91.89 165.90 93.16 167.82 93.78 169.69 C 94.56 170.27 95.35 170.85 96.14 171.43 C 96.16 168.30 95.90 165.19 95.65 162.08 L 96.93 162.14 C 97.07 166.80 97.77 171.42 98.12 176.07 C 98.57 179.41 97.64 182.86 99.04 186.06 C 102.70 186.67 105.80 184.91 107.94 182.07 C 108.13 180.09 108.25 178.12 108.19 176.14 C 107.51 174.41 109.68 174.31 110.63 173.71 C 111.78 169.95 113.03 166.11 115.38 162.90 L 116.97 162.84 C 116.83 163.32 116.56 164.27 116.42 164.75 C 116.81 164.51 117.59 164.02 117.98 163.78 C 118.14 165.22 118.14 166.65 117.97 168.07 C 116.77 169.43 115.30 170.61 114.63 172.37 C 113.77 172.77 112.91 173.16 112.05 173.57 C 112.74 173.36 114.12 172.95 114.81 172.74 C 114.87 173.58 115.00 175.27 115.06 176.11 C 116.40 175.48 117.72 174.79 119.09 174.24 C 120.68 173.46 123.03 174.47 123.94 172.57 C 122.20 172.27 120.45 172.03 118.74 171.61 C 120.55 171.04 122.43 170.85 124.30 170.59 C 124.66 169.15 125.15 167.74 125.80 166.40 C 125.27 166.15 124.22 165.66 123.69 165.41 C 124.33 165.13 125.62 164.56 126.26 164.28 C 126.13 163.48 125.86 161.88 125.73 161.09 C 124.12 159.50 122.05 158.76 119.83 158.61 C 119.43 159.02 118.62 159.82 118.22 160.22 C 117.91 158.34 117.64 156.45 117.74 154.54 C 119.18 155.32 120.59 156.12 122.01 156.92 C 125.20 155.66 128.04 157.28 130.41 159.33 C 130.32 158.50 130.14 156.84 130.05 156.02 C 131.08 157.55 132.23 158.98 133.44 160.37 C 136.70 160.92 139.39 163.31 142.45 164.57 C 146.25 167.84 150.71 170.18 154.76 173.09 L 154.94 172.46 C 154.43 171.93 153.43 170.86 152.93 170.32 C 157.43 173.00 162.92 174.14 167.96 172.30 C 169.71 171.68 170.47 169.91 171.26 168.39 C 172.65 169.92 173.87 167.77 175.06 167.08 C 176.76 165.36 179.13 164.73 181.49 164.76 C 181.48 161.87 185.29 163.58 187.02 162.47 C 189.23 165.34 190.25 168.79 190.16 172.40 C 190.00 172.78 189.69 173.53 189.53 173.90 C 188.85 170.99 187.07 168.58 185.39 166.18 C 182.04 166.02 179.20 168.13 176.06 168.99 C 172.97 172.78 169.62 176.83 164.94 178.68 C 159.79 179.04 154.23 177.18 150.69 173.32 C 147.19 169.51 141.71 169.27 137.02 167.99 C 134.24 167.19 131.46 168.50 128.68 168.69 C 127.36 170.52 125.81 172.24 125.61 174.62 C 122.16 175.74 118.45 176.34 115.52 178.63 C 114.20 179.74 112.54 179.49 110.98 179.32 C 110.19 181.36 110.30 183.61 109.64 185.69 C 107.66 189.10 105.61 193.19 101.11 193.36 C 104.97 195.96 109.41 197.18 113.96 197.76 C 110.68 196.88 113.53 195.22 115.16 194.33 C 115.68 195.24 116.13 196.19 116.55 197.15 C 118.11 195.23 120.19 197.68 122.06 197.82 C 120.93 196.71 119.44 196.28 117.93 196.01 C 116.56 195.82 117.74 194.29 117.72 193.51 C 117.10 193.51 116.00 194.01 115.93 193.02 C 116.52 189.22 114.75 185.58 115.32 181.80 C 116.68 185.32 117.25 189.11 118.53 192.62 C 120.70 194.88 124.08 195.50 126.84 196.86 C 127.01 197.26 127.34 198.05 127.51 198.45 C 126.56 198.40 124.66 198.31 123.72 198.27 C 125.21 198.86 126.75 199.31 128.28 199.79 C 129.41 198.90 130.75 199.50 131.85 200.10 C 131.71 200.54 131.43 201.42 131.29 201.85 C 126.92 202.81 122.47 203.26 117.99 203.03 C 116.44 203.32 115.62 202.74 115.53 201.27 C 115.46 201.65 115.32 202.41 115.24 202.79 C 111.64 201.91 107.94 201.44 104.39 200.37 C 104.68 200.78 105.25 201.59 105.54 202.00 C 102.78 200.88 99.83 201.06 96.93 201.10 C 97.79 200.57 98.66 200.05 99.54 199.56 L 97.14 200.78 L 97.11 197.43 C 96.80 198.70 96.59 199.98 96.73 201.31 C 94.66 199.98 92.50 198.82 90.24 197.86 C 86.51 194.19 82.81 190.44 78.83 187.02 C 80.09 190.27 83.25 192.19 84.97 195.16 C 81.03 193.21 78.35 189.40 76.65 185.45 C 74.32 180.83 71.02 176.85 67.89 172.77 C 72.84 174.75 75.46 179.61 79.23 183.07 C 81.51 186.04 84.49 188.32 87.26 190.82 C 89.35 192.78 92.52 192.87 94.55 194.94 C 96.43 194.38 98.26 193.67 100.12 193.02 C 97.48 191.07 95.07 188.43 94.56 185.07 C 93.62 182.18 95.17 179.29 95.66 176.47 C 92.56 174.81 90.79 171.77 89.60 168.58 C 89.24 169.16 88.53 170.32 88.17 170.91 C 87.84 169.79 87.61 168.64 87.39 167.50 C 84.71 168.57 85.28 171.66 83.73 173.56 C 80.79 174.47 77.54 174.33 74.91 172.63 C 74.88 173.23 74.80 174.42 74.77 175.02 C 72.72 172.19 69.89 170.03 67.05 168.07 C 65.41 168.37 65.46 170.64 65.21 171.92 C 65.89 175.18 67.20 178.32 69.13 181.03 C 70.34 182.80 72.47 184.18 71.95 186.65 L 73.12 186.35 C 72.15 187.59 70.08 189.18 73.42 190.42 C 72.73 190.50 72.03 190.51 71.34 190.56 C 71.04 191.90 71.58 193.37 71.50 194.75 C 71.72 194.74 72.18 194.72 72.40 194.71 C 72.39 193.77 72.38 191.89 72.37 190.95 C 72.90 191.34 73.95 192.12 74.47 192.51 C 74.47 194.44 76.57 198.25 73.17 198.31 L 73.25 196.07 C 70.76 196.92 73.33 201.32 71.31 201.71 C 69.65 197.88 68.51 193.87 67.42 189.88 C 66.46 194.24 67.83 198.46 69.67 202.37 C 70.06 202.66 70.86 203.22 71.26 203.51 C 71.66 204.47 72.18 205.35 72.82 206.17 C 72.66 205.49 72.35 204.12 72.20 203.43 C 73.40 201.60 71.95 198.20 74.75 197.72 C 74.53 198.81 74.10 200.98 73.88 202.07 C 74.72 204.43 75.51 206.83 76.62 209.09 C 77.14 206.95 77.16 204.74 75.99 202.77 L 77.87 203.83 C 79.21 201.92 79.95 199.77 79.63 197.41 C 79.97 197.56 80.65 197.85 80.99 198.00 C 81.14 198.61 81.43 199.83 81.57 200.43 C 84.89 202.77 86.54 206.67 87.45 210.49 C 90.94 215.76 95.37 220.40 99.09 225.54 C 95.68 227.00 95.64 222.07 93.18 221.00 C 93.50 222.27 93.83 223.53 94.14 224.81 C 95.39 225.87 96.65 226.92 97.96 227.91 C 98.64 227.45 99.32 226.98 99.99 226.51 C 99.90 231.32 105.84 229.98 108.63 232.25 C 111.98 234.54 116.07 235.39 119.30 237.91 C 121.38 237.46 123.43 238.13 125.46 238.55 L 125.05 239.81 C 129.69 238.24 133.64 242.25 138.14 242.60 C 145.03 243.57 152.04 243.66 158.90 244.96 C 161.87 245.61 164.84 244.57 167.81 244.42 C 178.60 243.81 189.74 241.84 198.97 235.88 C 201.10 234.01 203.84 233.21 206.48 232.36 C 211.02 231.00 214.23 227.14 218.69 225.61 C 226.83 216.19 237.67 209.02 243.83 197.97 C 244.84 196.11 245.98 194.15 245.89 191.96 C 249.39 187.92 253.74 184.12 255.42 178.94 C 255.76 179.42 256.44 180.38 256.78 180.86 C 255.01 177.91 257.40 174.91 258.17 172.04 C 258.98 170.39 258.75 167.81 260.77 167.11 C 261.83 168.64 260.73 170.49 260.29 172.06 C 261.46 170.38 261.98 168.24 261.14 166.24 C 261.68 166.40 262.76 166.73 263.30 166.90 C 262.89 169.23 262.98 171.60 262.99 173.95 C 262.55 173.97 261.66 174.00 261.22 174.02 C 259.94 176.33 259.98 178.93 259.80 181.49 C 256.53 186.32 253.61 191.54 249.05 195.35 C 249.01 195.88 248.91 196.94 248.87 197.47 C 248.31 198.42 247.77 199.40 247.26 200.39 C 245.84 202.88 243.58 204.81 242.61 207.58 C 242.37 208.13 241.89 209.24 241.65 209.79 C 241.07 209.87 239.92 210.03 239.35 210.11 C 237.69 212.31 236.21 214.69 233.96 216.38 C 233.87 220.24 233.97 224.11 234.01 227.97 C 234.44 227.99 235.28 228.02 235.71 228.04 C 236.00 228.64 236.58 229.83 236.87 230.42 C 237.04 232.57 237.23 234.72 237.34 236.88 C 237.68 236.65 238.35 236.18 238.69 235.95 C 240.11 237.63 241.41 239.78 240.45 242.01 C 241.21 245.78 242.53 249.44 243.73 253.10 C 243.17 250.03 242.65 246.93 241.54 244.00 C 241.98 243.56 242.43 243.13 242.89 242.70 C 243.24 243.42 243.96 244.88 244.32 245.60 C 245.23 246.97 244.96 248.63 245.07 250.18 L 246.42 250.14 C 246.69 254.42 247.10 258.70 247.02 262.99 C 244.95 263.00 242.88 263.00 240.81 263.01 C 239.42 256.50 237.55 250.12 235.32 243.84 C 233.58 236.19 231.86 228.38 228.27 221.37 C 225.99 222.84 223.98 224.69 222.35 226.88 C 221.27 226.51 220.01 226.23 219.50 227.58 L 218.91 227.49 C 219.02 230.54 214.96 230.62 213.22 232.48 C 212.58 232.53 211.28 232.63 210.64 232.68 L 210.64 233.51 C 208.81 233.14 205.82 234.15 206.43 236.51 C 204.18 237.23 201.84 237.50 199.51 237.74 C 198.77 238.67 198.05 239.62 197.35 240.58 L 196.44 240.36 L 196.64 241.68 L 195.31 241.28 L 195.56 242.70 C 195.04 242.61 194.01 242.41 193.49 242.31 L 193.57 243.49 C 192.98 243.69 191.80 244.09 191.21 244.30 C 190.29 244.74 189.37 245.17 188.44 245.59 L 188.44 246.71 C 187.93 246.57 186.92 246.30 186.41 246.16 L 186.45 247.71 C 185.93 247.56 184.88 247.25 184.36 247.10 L 184.52 248.54 C 183.14 248.49 181.77 248.43 180.40 248.38 L 180.63 249.58 C 177.55 249.49 174.48 249.63 171.41 249.45 L 171.58 250.56 C 165.53 250.45 159.47 250.45 153.42 250.58 L 153.58 249.49 L 151.40 249.42 C 150.20 253.84 150.73 258.43 150.80 262.94 C 148.14 263.01 145.49 263.01 142.84 262.95 C 142.79 261.63 143.17 260.48 143.98 259.52 C 144.09 254.68 143.99 249.84 144.06 245.00 C 140.40 245.45 136.17 243.87 132.95 246.09 C 132.97 245.56 132.99 244.51 133.00 243.99 C 132.36 243.98 131.09 243.95 130.45 243.94 C 127.27 241.73 122.73 243.38 119.01 242.96 C 119.05 242.44 119.13 241.41 119.17 240.89 C 118.65 240.91 117.62 240.94 117.10 240.95 C 117.07 240.47 117.00 239.49 116.97 239.01 C 114.83 238.87 112.52 239.47 110.54 238.39 C 109.16 237.47 107.81 236.52 106.44 235.59 C 104.89 234.77 102.86 235.40 101.55 234.09 C 100.92 234.06 99.65 234.00 99.02 233.97 C 99.01 233.52 98.99 232.63 98.98 232.18 C 97.49 231.66 96.01 231.11 94.49 230.72 C 93.51 230.14 92.45 229.86 91.30 229.86 C 90.41 228.90 89.52 227.95 88.65 226.98 C 87.24 226.96 85.83 226.96 84.41 226.96 C 80.78 223.40 77.86 219.24 74.72 215.27 C 73.23 213.71 72.63 211.20 70.29 210.66 C 68.33 205.65 63.70 202.36 61.17 197.63 C 61.77 193.73 56.37 193.88 55.75 190.39 C 55.00 188.50 53.63 186.99 52.19 185.60 C 52.06 184.53 51.79 183.51 51.36 182.53 C 51.09 182.04 50.54 181.06 50.27 180.57 C 50.32 179.36 49.93 178.36 49.10 177.58 C 49.05 177.05 48.94 175.99 48.89 175.46 C 47.98 173.34 47.02 171.30 45.71 169.38 C 44.85 167.64 43.72 166.06 42.63 164.47 C 41.60 162.63 42.12 160.45 41.92 158.45 C 40.69 157.46 41.12 155.79 40.85 154.44 C 39.61 153.46 40.14 151.77 39.88 150.43 C 38.22 148.93 39.29 146.39 38.94 144.44 C 36.63 142.47 39.29 138.67 37.17 136.51 C 36.89 135.15 37.38 133.43 36.06 132.48 C 35.82 126.80 36.34 121.08 35.85 115.43 L 35.10 114.51 C 35.12 111.67 35.07 108.83 35.09 105.99 C 36.26 103.34 39.07 101.48 39.26 98.43 C 40.14 96.82 40.99 95.21 41.79 93.56 C 42.17 92.33 43.13 91.45 43.99 90.54 C 44.14 89.20 43.79 87.67 44.76 86.55 C 45.12 84.78 45.91 83.15 46.76 81.57 C 47.65 79.26 48.97 77.15 50.97 75.63 C 51.01 75.09 51.09 74.01 51.13 73.47 C 52.48 72.37 51.91 70.48 52.16 68.99 C 52.54 69.00 53.30 69.01 53.68 69.02 C 54.33 67.34 55.44 65.92 56.38 64.40 C 59.15 63.09 61.18 60.59 61.81 57.59 C 62.59 56.16 63.10 54.62 63.19 52.98 C 63.70 53.03 64.72 53.12 65.23 53.16 C 65.17 52.71 65.05 51.81 65.00 51.37 C 67.46 50.67 69.01 48.40 71.22 47.20 C 72.95 43.99 75.70 41.51 78.87 39.77 C 82.72 37.66 85.33 34.02 88.39 30.98 C 88.70 31.06 89.31 31.24 89.62 31.32 C 91.34 29.19 93.05 26.90 95.53 25.60 C 97.08 24.87 98.88 25.13 100.43 24.40 C 105.35 21.14 110.79 18.44 116.54 17.06 C 116.46 16.60 116.30 15.69 116.21 15.24 C 116.77 15.35 117.87 15.57 118.42 15.69 L 117.91 14.15 C 119.46 14.11 121.10 14.25 122.47 13.36 C 122.97 13.05 123.96 12.44 124.46 12.14 C 125.83 12.09 127.19 12.03 128.56 11.95 C 129.42 10.55 131.18 11.17 132.50 10.89 C 134.50 9.31 137.24 10.34 139.57 10.02 L 140.42 9.14 C 144.45 8.68 148.54 9.35 152.57 8.85 L 153.46 8.06 M 60.67 69.17 C 61.07 69.46 61.86 70.04 62.25 70.33 C 61.89 71.09 61.16 72.61 60.79 73.37 C 62.30 72.08 65.02 70.09 64.64 68.17 L 64.08 67.76 C 63.40 64.46 61.84 68.26 60.67 69.17 M 42.25 111.46 C 40.92 111.26 39.99 113.75 41.70 113.77 C 42.90 113.82 43.88 111.55 42.25 111.46 M 39.54 123.97 C 39.36 126.96 41.33 129.48 42.71 131.96 C 42.42 128.47 40.68 124.92 42.01 121.47 C 42.41 120.26 42.00 118.18 43.79 118.18 C 44.03 118.69 44.50 119.71 44.74 120.21 L 45.69 119.73 C 45.34 118.96 44.98 118.20 44.61 117.44 C 43.98 117.44 42.72 117.43 42.09 117.42 L 42.17 114.97 C 39.69 117.32 39.87 120.83 39.54 123.97 M 69.32 123.10 C 68.95 124.74 68.55 126.38 68.09 128.01 C 69.10 132.75 72.26 137.55 76.94 139.11 C 76.26 139.63 75.59 140.17 74.93 140.71 C 69.67 138.61 67.49 133.05 65.78 128.10 C 65.07 131.76 66.31 135.52 68.75 138.29 C 71.90 143.42 79.07 143.28 84.10 141.39 C 81.38 140.93 78.61 140.99 75.86 141.00 C 76.66 140.47 77.47 139.96 78.29 139.46 C 80.32 140.05 83.32 140.95 84.57 138.59 C 87.60 135.48 90.00 131.59 89.94 127.10 C 84.18 122.73 76.37 121.48 69.32 123.10 M 97.26 134.98 C 97.14 138.33 100.27 133.64 97.26 134.98 M 48.91 142.63 C 49.90 141.70 50.18 140.58 49.74 139.24 C 48.40 138.91 47.59 142.19 48.91 142.63 M 46.83 148.37 C 46.50 150.06 46.90 151.52 48.06 152.76 C 47.66 152.58 46.87 152.22 46.47 152.04 L 46.42 154.95 L 48.38 154.16 C 47.92 154.49 47.01 155.16 46.56 155.50 C 47.06 156.36 47.56 157.24 48.04 158.12 C 47.00 157.18 44.94 155.30 43.91 154.36 C 45.05 156.94 46.77 159.18 48.49 161.39 C 46.72 162.12 47.56 163.40 48.82 164.08 C 49.35 166.28 48.29 169.26 50.34 170.84 C 51.38 166.86 50.49 162.79 50.07 158.80 L 51.88 159.44 C 52.27 163.66 51.51 167.97 52.64 172.12 C 53.71 176.31 52.95 181.31 56.14 184.68 L 56.89 181.92 C 59.05 183.43 56.87 185.83 58.63 187.49 C 58.90 188.69 59.17 189.89 59.45 191.09 C 61.14 188.57 60.31 185.43 60.09 182.62 C 59.49 182.06 58.89 181.50 58.29 180.94 C 58.73 177.20 60.20 170.71 55.25 169.41 C 54.82 164.08 54.96 157.83 51.02 153.72 C 51.18 155.59 51.39 157.46 51.67 159.32 L 50.08 158.63 C 49.18 155.29 49.50 151.82 49.82 148.44 C 49.07 148.42 47.58 148.39 46.83 148.37 M 88.31 151.32 C 87.59 152.41 87.61 153.51 88.36 154.61 C 89.80 154.77 89.73 151.19 88.31 151.32 M 60.18 170.72 C 60.02 173.21 59.85 175.72 60.08 178.22 C 61.42 180.59 63.55 183.02 62.75 185.95 C 60.92 191.27 63.93 196.95 67.95 200.41 C 66.90 197.61 65.21 194.76 65.87 191.64 C 66.72 188.21 66.97 184.71 66.96 181.18 C 65.94 180.25 64.96 179.28 64.00 178.28 C 64.56 179.10 65.11 179.93 65.66 180.76 C 65.57 181.93 65.40 184.29 65.31 185.46 C 62.81 182.83 61.61 178.97 61.46 175.36 C 62.12 175.64 63.45 176.22 64.11 176.50 C 63.38 175.98 62.60 175.54 61.77 175.18 C 61.87 173.50 61.23 171.99 60.18 170.72 M 67.97 183.22 C 68.74 185.04 69.54 189.77 72.15 187.05 C 70.75 185.78 69.36 184.50 67.97 183.22 M 98.20 196.54 C 99.15 197.09 101.47 197.28 101.80 195.99 C 100.90 195.29 98.35 195.11 98.20 196.54 M 78.72 211.09 C 79.71 211.74 81.42 214.96 81.29 211.06 C 81.78 212.35 82.29 213.63 82.82 214.90 C 84.12 213.92 86.39 214.29 85.08 216.69 C 85.93 217.65 86.79 218.62 87.50 219.70 C 87.54 219.15 87.40 218.56 87.06 217.95 C 87.14 217.53 87.29 216.69 87.37 216.27 C 86.98 215.49 86.58 214.70 86.19 213.92 C 84.08 213.06 83.25 210.89 82.00 209.17 C 83.54 207.62 82.59 206.24 81.36 204.97 C 81.92 206.88 81.62 208.83 81.21 210.74 L 80.17 210.75 C 80.10 208.71 80.00 206.68 79.80 204.65 C 77.35 205.92 78.70 208.94 78.72 211.09 M 161.34 246.25 C 161.39 249.59 164.32 244.74 161.34 246.25 Z" />
<path fill="#040404" opacity="1.00" d=" M 159.52 36.60 C 164.06 35.11 168.37 32.59 173.19 32.14 C 168.36 35.42 161.82 35.58 157.47 39.69 L 156.14 38.85 C 156.11 39.56 156.07 40.96 156.05 41.66 C 155.68 41.35 154.94 40.73 154.56 40.42 C 153.16 42.24 150.51 41.51 148.62 42.52 C 145.86 44.05 142.70 42.74 139.90 44.22 C 135.40 46.21 130.73 43.69 126.11 44.31 C 121.04 44.74 115.51 45.86 110.86 43.16 C 105.64 42.13 100.13 43.95 94.93 42.41 C 99.34 42.30 103.69 41.63 108.05 41.03 C 111.51 40.25 114.67 42.32 118.05 42.58 C 125.70 42.19 133.33 41.36 140.99 41.48 C 144.76 40.93 148.72 40.90 152.22 39.21 C 153.35 38.66 154.54 38.18 155.82 38.33 C 156.61 37.02 158.27 37.13 159.52 36.60 Z" />
<path fill="#040404" opacity="1.00" d=" M 127.73 57.68 C 133.17 54.54 139.78 54.19 145.92 54.49 C 148.20 54.64 151.36 53.10 152.97 55.33 C 149.58 54.61 146.42 56.24 143.03 55.63 C 140.19 56.58 136.70 55.53 134.30 57.49 C 132.35 57.78 130.35 57.80 128.45 58.29 C 125.76 59.57 123.43 61.53 120.59 62.50 C 117.43 63.71 115.43 66.53 113.09 68.81 C 115.85 63.08 121.80 59.47 127.73 57.68 Z" />
<path fill="#ffffff" opacity="1.00" d=" M 60.67 69.17 C 61.84 68.26 63.40 64.46 64.08 67.76 L 64.64 68.17 C 65.02 70.09 62.30 72.08 60.79 73.37 C 61.16 72.61 61.89 71.09 62.25 70.33 C 61.86 70.04 61.07 69.46 60.67 69.17 Z" />
<path fill="#040404" opacity="1.00" d=" M 120.30 76.01 C 120.04 73.16 122.85 71.13 125.06 69.86 C 124.45 72.49 122.16 74.22 120.30 76.01 Z" />
<path fill="#040404" opacity="1.00" d=" M 193.21 75.91 C 194.30 78.13 195.24 80.44 195.90 82.83 C 196.10 85.52 195.64 88.30 196.70 90.87 C 196.00 97.26 195.70 103.85 193.77 110.02 C 191.56 113.32 189.53 117.47 185.39 118.62 C 182.95 119.47 180.68 120.69 178.49 122.04 C 177.55 122.29 176.60 122.54 175.65 122.77 C 174.96 124.09 173.58 125.30 173.96 126.94 C 174.69 131.69 172.97 136.35 173.51 141.10 C 173.63 146.93 170.95 152.81 166.10 156.14 C 161.92 158.87 156.71 157.97 152.02 157.98 C 155.27 155.06 160.14 158.28 163.71 155.91 C 168.73 153.19 172.37 147.74 172.18 141.93 C 172.69 137.86 169.30 134.49 170.51 130.42 C 169.28 127.81 166.64 126.41 163.93 125.80 C 162.29 126.18 160.60 126.25 158.95 126.51 C 161.87 126.69 164.75 127.17 167.55 128.07 C 166.75 128.71 165.93 129.32 165.11 129.93 C 165.74 130.07 166.98 130.36 167.60 130.51 L 166.92 132.01 L 168.08 131.66 L 167.94 133.44 L 170.14 130.32 C 168.46 133.21 170.34 136.07 170.16 139.03 C 170.10 143.20 169.71 147.71 167.36 151.28 C 163.52 155.66 157.22 155.39 151.94 154.82 C 145.90 153.22 139.73 148.73 139.49 141.94 C 138.28 144.18 139.45 146.54 140.13 148.73 C 142.76 151.78 146.33 153.70 149.39 156.23 C 145.67 155.02 142.42 152.75 139.44 150.27 L 139.09 150.35 C 142.06 156.15 148.96 156.73 154.02 159.75 C 157.86 162.09 162.93 160.90 166.35 158.31 C 169.66 156.36 171.59 152.85 174.84 150.81 C 175.56 149.86 176.48 149.45 177.60 149.58 C 176.97 147.43 179.64 146.29 181.08 145.23 C 185.14 143.57 188.60 140.64 193.00 139.82 L 192.69 142.18 C 192.86 141.63 193.19 140.53 193.35 139.97 C 195.10 140.52 197.19 140.39 198.69 141.55 C 199.97 143.44 200.94 145.60 201.21 147.88 C 201.99 155.58 200.75 163.29 201.16 171.01 L 200.14 171.00 C 199.60 166.61 200.29 162.20 200.28 157.79 C 199.47 159.25 198.74 160.74 198.08 162.28 C 197.70 156.46 201.98 150.45 198.75 144.93 C 198.52 143.20 196.75 142.77 195.53 141.96 C 195.41 142.49 195.18 143.55 195.06 144.08 C 194.60 143.87 193.67 143.46 193.21 143.26 C 189.58 144.82 185.91 146.50 183.05 149.30 L 183.85 146.68 C 182.90 147.54 181.62 148.28 181.73 149.75 C 179.41 149.18 178.18 151.74 176.70 153.04 C 172.30 157.13 168.36 162.70 161.89 163.35 C 158.98 163.75 154.43 164.52 153.00 161.26 C 152.93 161.76 152.79 162.76 152.72 163.26 C 150.47 161.72 148.24 159.83 145.38 159.69 C 145.79 160.32 146.61 161.59 147.02 162.22 C 145.41 161.78 143.91 160.67 142.16 160.96 C 141.36 159.60 140.56 158.23 139.75 156.87 C 138.45 155.97 136.30 155.22 136.53 153.29 C 135.80 154.48 135.02 155.63 134.19 156.74 C 134.18 154.39 133.49 151.70 131.05 150.80 C 130.41 151.25 129.13 152.16 128.49 152.62 C 127.50 150.02 126.33 147.47 124.57 145.29 C 124.92 144.91 125.61 144.16 125.96 143.78 C 123.70 144.68 123.72 147.71 121.93 149.21 C 120.99 148.85 120.05 148.50 119.11 148.16 C 118.86 149.86 118.74 151.59 118.92 153.31 C 117.65 152.49 116.32 151.72 115.37 150.52 C 112.89 150.66 110.45 151.13 108.01 151.57 L 107.98 150.22 C 111.18 150.44 110.38 146.43 111.29 144.39 C 113.27 141.19 115.12 137.84 115.99 134.14 C 116.62 131.04 114.21 128.72 112.09 126.92 C 114.48 126.94 116.88 127.07 119.27 127.21 C 119.20 128.42 119.47 129.53 120.08 130.55 C 120.47 129.19 120.01 127.09 122.02 126.83 C 127.45 125.05 132.14 121.09 138.04 120.85 C 146.43 120.18 154.98 121.77 163.25 119.64 C 163.34 120.23 163.52 121.42 163.61 122.01 C 163.58 121.34 163.52 119.99 163.50 119.31 C 167.70 118.83 171.77 117.58 175.98 117.11 C 179.72 116.95 182.44 114.16 185.48 112.34 C 187.91 111.00 189.06 108.38 190.32 106.06 C 190.74 106.48 191.58 107.33 191.99 107.75 C 191.70 107.34 191.13 106.51 190.84 106.09 C 191.20 104.49 191.27 102.88 191.04 101.25 C 192.39 101.29 193.51 101.21 191.66 100.08 C 192.41 95.67 193.46 91.26 194.27 86.83 C 194.97 83.14 193.59 79.54 193.21 75.91 M 176.14 119.05 C 176.14 122.35 179.14 117.57 176.14 119.05 M 149.38 131.31 C 147.66 132.42 145.02 132.90 144.34 135.04 C 143.80 135.16 142.73 135.41 142.20 135.53 C 142.55 136.05 142.90 136.58 143.25 137.11 C 139.64 143.73 145.11 150.80 150.92 153.74 C 155.26 154.26 159.86 154.16 163.96 152.47 C 167.84 148.78 169.60 143.13 168.97 137.86 C 168.60 133.94 165.85 130.26 162.09 129.02 C 157.74 128.20 153.19 129.07 149.38 131.31 Z" />
<path fill="#040404" opacity="1.00" d=" M 202.41 93.34 C 206.30 89.65 210.05 85.81 213.98 82.16 C 211.65 86.58 208.09 90.13 205.32 94.24 C 202.29 98.92 204.01 104.84 206.61 109.28 C 210.31 113.65 213.71 118.29 217.72 122.39 L 218.16 123.60 C 213.24 120.07 210.08 114.62 205.65 110.50 C 203.51 107.32 200.31 104.64 199.56 100.71 C 199.06 97.96 200.34 95.12 202.41 93.34 Z" />
<path fill="#040404" opacity="1.00" d=" M 108.31 95.44 C 109.79 96.27 107.37 99.28 105.99 98.91 C 105.32 97.44 107.06 95.93 108.31 95.44 Z" />
<path fill="#ffffff" opacity="1.00" d=" M 42.25 111.46 C 43.88 111.55 42.90 113.82 41.70 113.77 C 39.99 113.75 40.92 111.26 42.25 111.46 Z" />
<path fill="#ffffff" opacity="1.00" d=" M 39.54 123.97 C 39.87 120.83 39.69 117.32 42.17 114.97 L 42.09 117.42 C 42.72 117.43 43.98 117.44 44.61 117.44 C 44.98 118.20 45.34 118.96 45.69 119.73 L 44.74 120.21 C 44.50 119.71 44.03 118.69 43.79 118.18 C 42.00 118.18 42.41 120.26 42.01 121.47 C 40.68 124.92 42.42 128.47 42.71 131.96 C 41.33 129.48 39.36 126.96 39.54 123.97 Z" />
<path fill="#ffffff" opacity="1.00" d=" M 176.14 119.05 C 179.14 117.57 176.14 122.35 176.14 119.05 Z" />
<path fill="#ffffff" opacity="1.00" d=" M 69.32 123.10 C 76.37 121.48 84.18 122.73 89.94 127.10 C 90.00 131.59 87.60 135.48 84.57 138.59 C 83.32 140.95 80.32 140.05 78.29 139.46 C 77.47 139.96 76.66 140.47 75.86 141.00 C 78.61 140.99 81.38 140.93 84.10 141.39 C 79.07 143.28 71.90 143.42 68.75 138.29 C 66.31 135.52 65.07 131.76 65.78 128.10 C 67.49 133.05 69.67 138.61 74.93 140.71 C 75.59 140.17 76.26 139.63 76.94 139.11 C 72.26 137.55 69.10 132.75 68.09 128.01 C 68.55 126.38 68.95 124.74 69.32 123.10 M 79.51 131.46 C 79.47 132.53 81.50 134.90 81.83 133.04 C 82.85 131.10 80.89 130.38 79.51 131.46 Z" />
<path fill="#040404" opacity="1.00" d=" M 55.13 124.83 C 56.91 124.04 58.13 126.80 57.89 128.22 C 56.34 128.21 55.83 125.96 55.13 124.83 Z" />
<path fill="#ffffff" opacity="1.00" d=" M 149.38 131.31 C 153.19 129.07 157.74 128.20 162.09 129.02 C 165.85 130.26 168.60 133.94 168.97 137.86 C 169.60 143.13 167.84 148.78 163.96 152.47 C 159.86 154.16 155.26 154.26 150.92 153.74 C 145.11 150.80 139.64 143.73 143.25 137.11 C 142.90 136.58 142.55 136.05 142.20 135.53 C 142.73 135.41 143.80 135.16 144.34 135.04 C 145.02 132.90 147.66 132.42 149.38 131.31 M 156.60 134.74 C 149.54 135.58 151.07 147.86 158.04 147.28 C 165.32 147.26 163.90 133.36 156.60 134.74 Z" />
<path fill="#040404" opacity="1.00" d=" M 168.24 130.24 C 168.57 130.57 168.57 130.57 168.24 130.24 Z" />
<path fill="#040404" opacity="1.00" d=" M 79.51 131.46 C 80.89 130.38 82.85 131.10 81.83 133.04 C 81.50 134.90 79.47 132.53 79.51 131.46 Z" />
<path fill="#040404" opacity="1.00" d=" M 156.60 134.74 C 163.90 133.36 165.32 147.26 158.04 147.28 C 151.07 147.86 149.54 135.58 156.60 134.74 M 154.01 137.10 C 153.25 139.05 153.15 141.11 153.34 143.17 C 154.48 144.13 155.15 146.16 156.87 146.11 C 159.33 146.76 160.53 144.33 162.07 142.96 C 161.66 141.38 161.27 139.79 160.79 138.24 C 159.35 135.89 156.12 135.37 154.01 137.10 Z" />
<path fill="#ffffff" opacity="1.00" d=" M 97.26 134.98 C 100.27 133.64 97.14 138.33 97.26 134.98 Z" />
<path fill="#ffffff" opacity="1.00" d=" M 154.01 137.10 C 156.12 135.37 159.35 135.89 160.79 138.24 C 161.27 139.79 161.66 141.38 162.07 142.96 C 160.53 144.33 159.33 146.76 156.87 146.11 C 155.15 146.16 154.48 144.13 153.34 143.17 C 153.15 141.11 153.25 139.05 154.01 137.10 M 156.31 139.01 C 156.21 139.82 156.00 141.44 155.90 142.25 C 156.89 142.55 157.88 142.85 158.88 143.14 C 160.49 140.99 159.17 138.13 156.31 139.01 Z" />
<path fill="#ffffff" opacity="1.00" d=" M 48.91 142.63 C 47.59 142.19 48.40 138.91 49.74 139.24 C 50.18 140.58 49.90 141.70 48.91 142.63 Z" />
<path fill="#040404" opacity="1.00" d=" M 156.31 139.01 C 159.17 138.13 160.49 140.99 158.88 143.14 C 157.88 142.85 156.89 142.55 155.90 142.25 C 156.00 141.44 156.21 139.82 156.31 139.01 Z" />
<path fill="#040404" opacity="1.00" d=" M 97.98 143.61 C 98.91 141.89 99.82 139.62 102.20 139.85 C 100.87 140.99 99.58 142.21 99.01 143.92 L 97.98 143.61 Z" />
<path fill="#040404" opacity="1.00" d=" M 103.81 142.07 C 102.80 143.78 101.58 145.44 101.56 147.54 C 99.66 145.48 101.62 142.85 103.81 142.07 Z" />
<path fill="#040404" opacity="1.00" d=" M 104.19 148.80 C 102.88 148.49 102.80 146.04 104.15 145.73 C 105.70 145.86 105.81 148.72 104.19 148.80 Z" />
<path fill="#ffffff" opacity="1.00" d=" M 46.83 148.37 C 47.58 148.39 49.07 148.42 49.82 148.44 C 49.50 151.82 49.18 155.29 50.08 158.63 L 51.67 159.32 C 51.39 157.46 51.18 155.59 51.02 153.72 C 54.96 157.83 54.82 164.08 55.25 169.41 C 60.20 170.71 58.73 177.20 58.29 180.94 C 58.89 181.50 59.49 182.06 60.09 182.62 C 60.31 185.43 61.14 188.57 59.45 191.09 C 59.17 189.89 58.90 188.69 58.63 187.49 C 56.87 185.83 59.05 183.43 56.89 181.92 L 56.14 184.68 C 52.95 181.31 53.71 176.31 52.64 172.12 C 51.51 167.97 52.27 163.66 51.88 159.44 L 50.07 158.80 C 50.49 162.79 51.38 166.86 50.34 170.84 C 48.29 169.26 49.35 166.28 48.82 164.08 C 47.56 163.40 46.72 162.12 48.49 161.39 C 46.77 159.18 45.05 156.94 43.91 154.36 C 44.94 155.30 47.00 157.18 48.04 158.12 C 47.56 157.24 47.06 156.36 46.56 155.50 C 47.01 155.16 47.92 154.49 48.38 154.16 L 46.42 154.95 L 46.47 152.04 C 46.87 152.22 47.66 152.58 48.06 152.76 C 46.90 151.52 46.50 150.06 46.83 148.37 M 55.20 170.49 C 54.69 174.59 54.95 178.79 56.16 182.75 C 58.03 178.72 55.30 174.12 56.34 169.83 L 55.20 170.49 Z" />
<path fill="#ffffff" opacity="1.00" d=" M 88.31 151.32 C 89.73 151.19 89.80 154.77 88.36 154.61 C 87.61 153.51 87.59 152.41 88.31 151.32 Z" />
<path fill="#040404" opacity="1.00" d=" M 103.65 152.03 C 106.71 150.66 103.65 155.31 103.65 152.03 Z" />
<path fill="#040404" opacity="1.00" d=" M 150.58 156.00 C 152.71 154.57 151.98 158.45 150.33 156.90 L 150.58 156.00 Z" />
<path fill="#040404" opacity="1.00" d=" M 104.27 159.48 C 103.64 158.17 105.49 156.53 106.75 157.07 C 107.41 158.30 105.47 160.06 104.27 159.48 Z" />
<path fill="#040404" opacity="1.00" d=" M 134.99 159.18 C 135.67 159.87 135.67 159.87 134.99 159.18 Z" />
<path fill="#040404" opacity="1.00" d=" M 55.20 170.49 L 56.34 169.83 C 55.30 174.12 58.03 178.72 56.16 182.75 C 54.95 178.79 54.69 174.59 55.20 170.49 Z" />
<path fill="#ffffff" opacity="1.00" d=" M 60.18 170.72 C 61.23 171.99 61.87 173.50 61.77 175.18 C 62.60 175.54 63.38 175.98 64.11 176.50 C 63.45 176.22 62.12 175.64 61.46 175.36 C 61.61 178.97 62.81 182.83 65.31 185.46 C 65.40 184.29 65.57 181.93 65.66 180.76 C 65.11 179.93 64.56 179.10 64.00 178.28 C 64.96 179.28 65.94 180.25 66.96 181.18 C 66.97 184.71 66.72 188.21 65.87 191.64 C 65.21 194.76 66.90 197.61 67.95 200.41 C 63.93 196.95 60.92 191.27 62.75 185.95 C 63.55 183.02 61.42 180.59 60.08 178.22 C 59.85 175.72 60.02 173.21 60.18 170.72 Z" />
<path fill="#040404" opacity="1.00" d=" M 178.77 173.47 C 179.55 172.37 180.76 171.90 182.09 171.87 C 179.00 175.83 175.63 179.60 171.79 182.86 C 170.76 183.83 169.97 185.23 168.44 185.45 C 168.49 186.27 168.54 187.08 168.59 187.91 C 168.40 187.40 168.02 186.37 167.83 185.86 C 167.24 186.24 166.08 186.98 165.50 187.36 C 166.64 187.87 167.13 189.03 165.80 189.70 C 162.08 192.69 158.45 195.79 155.11 199.20 L 156.08 196.83 C 153.89 197.85 151.89 199.78 149.30 199.58 L 149.30 200.83 C 148.46 200.20 147.61 199.56 146.77 198.93 C 141.82 199.49 137.19 201.53 132.22 202.02 C 132.45 200.89 132.67 199.76 132.88 198.63 L 134.18 198.91 C 141.51 195.50 149.57 194.16 156.77 190.46 L 156.63 189.87 C 157.45 189.36 158.15 188.71 158.74 187.94 C 159.89 187.38 161.04 186.83 162.21 186.29 C 161.30 187.22 160.11 187.95 159.72 189.26 C 159.30 189.53 159.30 189.53 159.72 189.26 C 160.88 189.11 162.01 189.25 163.12 189.68 C 157.72 192.85 151.59 194.43 146.05 197.27 C 145.51 197.32 144.44 197.42 143.90 197.47 C 145.13 197.95 146.37 198.40 147.63 198.81 C 153.74 197.14 158.82 193.39 163.87 189.74 C 163.44 189.08 162.91 188.51 162.27 188.02 C 162.99 187.69 164.44 187.03 165.16 186.70 C 164.43 186.13 163.70 185.57 162.96 185.01 C 163.73 185.25 165.27 185.72 166.04 185.96 L 165.25 184.37 C 170.71 182.11 175.03 177.93 178.77 173.47 Z" />
<path fill="#040404" opacity="1.00" d=" M 193.01 182.04 C 193.64 181.17 194.41 180.43 195.32 179.83 C 194.26 181.98 192.93 183.99 191.97 186.19 C 192.96 185.48 194.95 184.07 195.95 183.36 C 195.99 183.88 196.06 184.92 196.10 185.44 C 195.79 186.13 195.16 187.50 194.85 188.19 C 197.48 187.84 197.67 185.01 198.08 182.94 C 198.44 183.40 199.17 184.32 199.54 184.78 C 199.92 184.19 200.69 183.01 201.08 182.41 C 201.05 184.60 200.55 186.85 199.15 188.58 L 198.81 186.20 C 196.04 188.61 194.05 191.70 191.93 194.67 C 192.78 193.96 193.67 193.30 194.60 192.71 C 195.96 191.31 197.40 189.95 199.12 188.98 C 198.65 190.29 198.00 191.50 197.17 192.63 C 197.68 192.67 198.69 192.75 199.20 192.79 C 197.78 195.67 197.22 199.54 194.30 201.31 C 194.81 198.31 195.89 195.46 197.66 192.98 C 195.80 194.39 195.31 196.93 193.54 198.44 C 191.40 200.17 190.84 203.10 188.67 204.81 C 188.71 203.83 188.81 201.88 188.86 200.90 C 187.42 204.87 183.56 207.09 181.83 210.81 C 181.39 210.12 180.96 209.43 180.53 208.74 C 180.84 208.30 181.45 207.42 181.75 206.98 C 180.68 207.84 179.96 209.01 179.30 210.20 C 179.90 211.36 180.06 212.66 179.70 213.95 L 180.92 214.31 C 180.43 214.48 179.44 214.81 178.95 214.97 C 176.90 219.38 176.06 224.43 172.74 228.16 C 173.38 224.71 171.47 221.11 173.22 217.90 C 176.18 210.65 178.82 203.27 182.14 196.17 C 182.54 196.75 182.93 197.34 183.34 197.92 C 184.80 196.63 185.79 194.97 185.95 193.00 C 185.75 194.59 184.11 196.52 182.45 195.36 C 185.83 190.81 189.79 186.71 193.01 182.04 M 188.07 194.17 C 189.41 193.56 189.89 192.59 189.50 191.27 L 190.48 191.71 C 190.49 189.36 192.32 187.57 193.14 185.49 C 190.83 187.91 188.61 190.78 188.07 194.17 M 176.14 213.80 C 176.62 214.58 176.62 214.58 176.14 213.80 Z" />
<path fill="#ffffff" opacity="1.00" d=" M 67.97 183.22 C 69.36 184.50 70.75 185.78 72.15 187.05 C 69.54 189.77 68.74 185.04 67.97 183.22 Z" />
<path fill="#ffffff" opacity="1.00" d=" M 188.07 194.17 C 188.61 190.78 190.83 187.91 193.14 185.49 C 192.32 187.57 190.49 189.36 190.48 191.71 L 189.50 191.27 C 189.89 192.59 189.41 193.56 188.07 194.17 Z" />
<path fill="#ffffff" opacity="1.00" d=" M 159.72 189.26 C 159.30 189.53 159.30 189.53 159.72 189.26 Z" />
<path fill="#040404" opacity="1.00" d=" M 75.43 191.14 C 75.75 191.09 76.38 190.97 76.70 190.92 C 77.87 194.77 78.29 198.80 77.65 202.79 L 75.94 202.73 C 76.21 198.86 76.32 194.94 75.43 191.14 Z" />
<path fill="#ffffff" opacity="1.00" d=" M 98.20 196.54 C 98.35 195.11 100.90 195.29 101.80 195.99 C 101.47 197.28 99.15 197.09 98.20 196.54 Z" />
<path fill="#040404" opacity="1.00" d=" M 89.23 199.60 C 91.99 200.70 94.51 202.74 95.83 205.45 C 98.16 205.85 100.52 206.25 102.74 207.09 C 104.28 209.15 105.52 211.42 106.99 213.54 L 105.14 213.13 C 105.22 216.14 104.65 219.27 105.71 222.17 C 106.68 225.67 108.94 228.58 110.33 231.88 C 107.69 229.74 105.35 227.22 103.25 224.55 C 101.95 222.93 103.07 220.78 103.34 219.00 C 104.65 215.59 102.95 210.49 98.73 210.42 C 97.72 209.32 96.28 208.82 95.04 208.05 C 95.05 208.69 95.07 209.98 95.08 210.62 C 93.13 207.08 88.25 204.29 89.23 199.60 Z" />
<path fill="#040404" opacity="1.00" d=" M 135.81 204.42 C 137.65 204.09 139.50 203.84 141.33 203.47 C 139.76 204.94 137.89 206.03 135.95 206.94 C 134.32 209.42 130.50 209.19 129.50 212.05 C 128.83 211.56 128.17 211.07 127.50 210.58 C 126.30 210.57 125.10 210.55 123.91 210.58 C 122.97 211.78 121.90 212.89 120.79 213.94 C 120.68 212.94 120.45 210.94 120.34 209.94 C 124.75 206.12 130.83 206.74 135.81 204.42 M 131.14 207.13 C 131.55 210.40 134.04 205.39 131.14 207.13 Z" />
<path fill="#ffffff" opacity="1.00" d=" M 78.72 211.09 C 78.70 208.94 77.35 205.92 79.80 204.65 C 80.00 206.68 80.10 208.71 80.17 210.75 L 81.21 210.74 C 81.62 208.83 81.92 206.88 81.36 204.97 C 82.59 206.24 83.54 207.62 82.00 209.17 C 83.25 210.89 84.08 213.06 86.19 213.92 C 86.58 214.70 86.98 215.49 87.37 216.27 C 87.29 216.69 87.14 217.53 87.06 217.95 C 87.40 218.56 87.54 219.15 87.50 219.70 C 86.79 218.62 85.93 217.65 85.08 216.69 C 86.39 214.29 84.12 213.92 82.82 214.90 C 82.29 213.63 81.78 212.35 81.29 211.06 C 81.42 214.96 79.71 211.74 78.72 211.09 Z" />
<path fill="#ffffff" opacity="1.00" d=" M 131.14 207.13 C 134.04 205.39 131.55 210.40 131.14 207.13 Z" />
<path fill="#040404" opacity="1.00" d=" M 95.23 211.15 C 95.76 211.76 95.76 211.76 95.23 211.15 Z" />
<path fill="#040404" opacity="1.00" d=" M 122.31 214.00 C 122.64 214.37 122.64 214.37 122.31 214.00 Z" />
<path fill="#ffffff" opacity="1.00" d=" M 176.14 213.80 C 176.62 214.58 176.62 214.58 176.14 213.80 Z" />
<path fill="#040404" opacity="1.00" d=" M 124.52 216.13 C 124.84 216.01 125.48 215.77 125.80 215.65 C 124.93 218.69 128.50 219.27 130.25 220.76 C 131.01 222.13 131.48 223.64 132.04 225.10 C 131.25 228.16 131.95 232.62 128.38 234.10 C 128.55 234.89 128.89 236.47 129.06 237.27 C 126.12 234.67 128.36 230.33 128.08 226.99 C 128.75 223.49 125.77 221.29 123.66 219.08 C 124.61 218.28 125.01 217.30 124.52 216.13 M 129.59 225.20 C 128.90 225.98 129.35 228.33 130.73 227.65 C 131.91 226.92 130.92 224.54 129.59 225.20 Z" />
<path fill="#ffffff" opacity="1.00" d=" M 129.59 225.20 C 130.92 224.54 131.91 226.92 130.73 227.65 C 129.35 228.33 128.90 225.98 129.59 225.20 Z" />
<path fill="#ffffff" opacity="1.00" d=" M 161.34 246.25 C 164.32 244.74 161.39 249.59 161.34 246.25 Z" />
</svg>
