<?xml version="1.0" encoding="UTF-8" ?>
<!DOCTYPE svg PUBLIC "-//W3C//DTD SVG 1.1//EN" "http://www.w3.org/Graphics/SVG/1.1/DTD/svg11.dtd">
<svg width="507pt" height="550pt" viewBox="0 0 507 550" version="1.1" xmlns="http://www.w3.org/2000/svg">
<g id="#ffffffff">
<path fill="#ffffff" opacity="1.00" d=" M 0.00 0.00 L 507.00 0.00 L 507.00 550.00 L 0.00 550.00 L 0.00 388.80 C 12.99 388.63 25.46 384.62 37.82 381.08 C 45.17 379.63 52.43 377.09 60.00 377.25 C 66.37 377.84 72.60 379.40 78.92 380.38 C 81.75 380.63 84.51 379.72 87.33 379.63 C 83.62 383.19 78.08 383.79 74.42 387.37 C 72.53 389.16 72.46 391.85 72.33 394.27 C 76.08 396.64 80.33 394.49 84.35 394.34 C 79.60 395.66 75.49 398.61 72.65 402.62 C 70.28 405.88 67.36 408.67 64.76 411.73 C 63.30 414.04 64.86 416.69 66.68 418.24 C 71.75 422.91 74.71 429.43 80.27 433.64 C 88.43 439.96 93.21 449.35 100.47 456.53 C 107.59 463.45 113.59 471.43 120.88 478.17 C 122.35 479.92 124.75 478.75 126.67 478.73 C 120.96 473.66 115.86 467.96 110.83 462.23 C 106.62 457.38 101.86 453.05 97.80 448.08 C 94.47 444.10 91.73 439.64 88.08 435.92 C 84.50 432.10 79.91 429.27 76.87 424.93 C 74.58 421.67 72.17 418.49 69.25 415.77 C 67.98 414.87 67.84 412.99 69.22 412.14 C 73.89 407.87 76.69 401.53 82.66 398.79 C 86.58 396.87 90.63 395.23 94.48 393.17 C 94.50 391.95 94.51 390.74 94.52 389.54 C 88.13 388.43 82.10 391.56 75.75 391.53 C 77.40 389.15 79.91 387.76 82.54 386.75 C 86.64 385.17 89.94 382.19 93.52 379.75 C 98.60 376.08 104.83 374.58 110.10 371.22 C 118.92 366.63 126.24 359.54 135.43 355.62 C 140.69 353.61 145.96 351.29 150.15 347.42 C 150.50 350.08 151.66 352.50 153.03 354.78 C 155.40 358.82 157.41 363.05 159.49 367.25 C 161.93 372.24 165.65 376.62 167.11 382.07 C 169.74 392.07 171.50 402.33 175.23 412.01 C 177.65 418.06 178.04 424.62 179.37 430.95 C 183.39 446.75 183.21 463.22 186.73 479.14 C 198.80 479.21 210.87 479.13 222.93 479.12 C 224.32 478.97 226.05 479.48 227.13 478.32 C 229.55 475.85 231.24 472.79 232.92 469.80 C 237.66 461.01 242.97 452.42 246.10 442.88 C 249.56 428.69 260.13 417.94 268.92 406.81 C 273.18 401.52 279.21 398.16 285.02 394.86 C 293.22 390.36 299.40 383.03 307.42 378.26 C 307.47 377.81 307.56 376.92 307.61 376.47 C 310.64 376.58 313.79 376.49 316.69 377.51 C 321.70 379.81 325.17 384.29 329.57 387.47 C 336.98 393.10 345.22 397.51 353.56 401.60 C 355.21 402.40 356.48 403.73 357.78 405.00 C 356.39 406.09 355.17 407.35 355.16 409.25 C 356.28 409.39 357.41 409.53 358.54 409.69 C 357.35 412.57 356.46 415.59 356.17 418.71 C 350.80 421.77 344.16 423.98 338.16 421.40 C 335.17 419.79 332.34 417.88 329.26 416.44 C 323.54 413.60 318.61 408.80 312.01 408.11 C 311.56 410.39 313.70 411.19 315.20 412.05 C 321.15 415.04 326.32 419.37 332.49 421.95 C 332.09 423.01 331.69 424.09 331.31 425.18 C 333.70 425.51 336.54 424.85 338.49 426.67 C 343.72 431.06 349.99 434.13 354.72 439.15 C 352.32 444.42 348.02 448.78 342.45 450.62 C 333.00 453.75 324.68 459.35 315.82 463.79 C 306.81 468.90 297.82 474.05 288.54 478.68 C 291.87 479.21 295.49 479.63 298.48 477.69 C 310.99 470.84 323.38 463.74 336.06 457.17 C 340.85 454.94 346.20 453.75 350.51 450.55 C 353.99 447.80 356.61 444.06 358.40 440.03 C 359.24 437.66 356.72 436.11 355.37 434.60 C 351.44 431.41 347.24 428.55 342.94 425.88 C 348.81 426.41 354.23 423.86 359.35 421.33 C 359.69 417.28 360.89 413.38 362.33 409.59 C 371.24 409.23 379.80 412.16 388.05 415.18 C 398.99 419.27 409.02 425.43 420.08 429.22 C 428.43 432.65 437.69 433.28 445.84 437.30 C 450.16 439.23 454.22 442.33 459.17 442.28 C 459.36 441.40 459.56 440.53 459.76 439.66 C 453.05 437.47 447.23 433.21 440.43 431.26 C 433.27 429.16 425.86 427.84 418.96 424.91 C 407.46 420.65 396.93 414.08 385.19 410.41 C 377.97 407.80 370.44 405.73 362.68 406.36 C 360.79 403.58 359.09 400.38 355.95 398.83 C 346.66 394.23 337.36 389.42 329.31 382.82 C 324.23 378.33 318.79 372.62 311.37 373.36 C 313.25 372.67 315.12 371.96 317.00 371.25 C 318.49 368.29 321.11 366.34 324.07 365.02 C 333.97 358.33 342.98 349.62 347.71 338.45 C 351.19 332.30 354.03 325.81 355.93 318.99 C 356.61 315.41 359.03 312.60 360.58 309.40 C 364.89 300.88 366.91 291.39 371.65 283.08 C 375.85 272.67 379.28 261.83 380.87 250.69 C 381.95 250.60 383.03 250.45 384.11 250.25 C 386.95 248.36 385.97 244.39 388.00 241.95 C 390.21 238.21 394.57 236.24 396.02 231.98 C 397.59 227.72 400.21 224.06 402.61 220.25 C 407.16 213.91 410.77 206.07 409.61 198.08 C 408.33 191.79 407.62 185.40 407.20 179.01 C 406.48 177.92 405.57 176.98 404.70 176.01 C 404.59 170.79 399.77 167.84 397.43 163.60 C 397.17 160.72 397.51 157.85 398.03 155.02 C 397.46 152.34 397.81 149.63 398.16 146.95 C 397.37 143.83 395.16 141.30 394.37 138.16 C 393.71 135.81 391.51 134.47 389.79 132.95 C 390.68 129.37 390.30 124.51 385.80 123.91 C 385.62 122.22 385.59 120.51 385.22 118.85 C 384.32 117.00 382.31 116.11 380.78 114.88 C 380.01 110.92 377.82 107.10 373.58 106.20 C 372.56 104.63 371.47 103.09 370.27 101.66 C 368.34 101.38 366.44 101.03 364.55 100.59 C 363.38 96.90 360.01 94.37 356.12 94.35 C 355.80 93.95 355.15 93.15 354.83 92.76 C 352.82 92.17 350.79 91.65 348.75 91.22 C 346.87 87.82 342.71 88.37 339.80 86.49 C 338.14 85.63 336.77 84.35 335.16 83.42 C 331.09 83.42 327.03 83.40 322.98 83.14 C 321.14 81.27 318.86 78.93 315.95 79.84 C 312.63 80.72 309.28 80.68 305.98 79.79 C 299.45 81.50 292.57 79.78 285.93 80.63 C 283.76 81.01 281.56 82.12 279.36 81.23 C 274.33 79.50 269.45 83.08 265.94 86.35 C 264.31 85.88 262.69 85.21 260.97 85.21 C 257.11 87.41 253.41 89.90 249.73 92.39 C 246.75 93.70 243.63 94.74 241.03 96.75 C 238.12 96.54 234.70 96.06 232.42 98.30 C 229.22 101.58 225.79 104.82 221.48 106.56 C 218.60 107.77 216.31 109.93 214.25 112.23 C 209.93 113.05 206.45 116.05 205.02 120.20 C 200.01 122.14 197.08 126.79 193.01 130.01 C 190.93 132.24 188.99 134.57 186.65 136.53 C 184.08 139.82 183.34 144.10 182.14 148.01 C 178.58 150.23 176.28 153.85 174.49 157.54 C 172.83 160.79 173.26 164.57 172.55 168.06 C 171.75 170.44 170.36 172.59 169.79 175.05 C 168.86 179.50 169.86 184.19 168.23 188.52 C 166.14 194.46 165.10 200.82 166.66 207.02 C 160.78 211.75 156.99 218.67 155.59 226.04 C 154.88 230.08 153.41 233.95 152.74 238.00 C 152.47 242.01 153.01 246.03 153.58 249.99 C 154.10 253.34 157.14 255.51 160.35 255.91 C 159.19 258.26 159.88 260.65 161.01 262.87 C 159.39 267.97 163.47 272.18 164.62 276.89 C 165.22 279.64 167.90 281.94 167.07 284.90 C 165.16 293.20 165.74 302.07 161.69 309.82 C 159.10 315.60 158.93 322.09 159.54 328.29 C 158.60 328.80 157.64 329.28 156.68 329.76 C 153.76 334.05 152.20 339.07 149.52 343.47 C 145.25 347.87 139.41 350.21 133.80 352.40 C 124.55 356.39 117.13 363.48 108.24 368.13 C 103.36 371.10 97.83 372.78 92.91 375.67 C 87.53 374.69 82.32 377.61 76.97 376.42 C 72.24 375.54 67.49 374.77 62.78 373.79 C 58.22 372.91 53.64 373.97 49.19 374.91 C 32.67 378.02 16.88 384.50 0.00 385.70 L 0.00 0.00 M 11.68 15.99 C 14.56 26.03 17.61 36.02 20.27 46.11 C 20.60 51.70 20.35 57.32 20.35 62.92 C 24.15 63.04 27.95 63.01 31.75 62.98 C 32.15 55.73 30.59 48.18 33.12 41.20 C 35.51 33.37 37.71 25.48 40.24 17.70 C 42.80 27.20 45.83 36.59 48.27 46.12 C 48.59 51.71 48.35 57.32 48.35 62.92 C 52.15 63.04 55.96 63.02 59.76 62.96 C 60.11 55.49 58.57 47.72 61.32 40.56 C 63.69 32.37 66.33 24.25 68.54 16.01 C 64.91 15.99 61.28 16.00 57.65 16.00 C 56.50 22.34 55.59 28.74 53.95 34.98 C 52.66 28.69 51.78 22.33 50.72 16.00 C 43.70 16.00 36.68 16.00 29.65 16.00 C 28.49 22.33 27.61 28.74 25.93 34.96 C 24.67 28.68 23.78 22.32 22.72 16.00 C 19.04 16.00 15.36 16.00 11.68 15.99 M 68.79 16.00 C 71.44 26.09 74.68 36.03 77.27 46.13 C 77.59 51.72 77.35 57.33 77.35 62.93 C 81.15 63.04 84.95 63.01 88.75 62.98 C 89.15 55.70 87.59 48.12 90.15 41.11 C 92.55 33.36 94.64 25.49 97.26 17.81 C 99.84 27.27 102.83 36.62 105.27 46.11 C 105.60 51.70 105.34 57.32 105.35 62.93 C 109.15 63.04 112.94 63.01 116.74 62.99 C 116.82 57.31 116.56 51.62 116.84 45.95 C 119.50 35.90 122.81 26.02 125.61 16.00 C 121.96 16.00 118.31 16.00 114.65 16.00 C 113.49 22.33 112.61 28.74 110.94 34.96 C 109.67 28.68 108.77 22.33 107.72 16.01 C 100.70 15.99 93.68 16.00 86.65 16.00 C 85.48 22.32 84.63 28.73 82.93 34.94 C 81.66 28.66 80.78 22.32 79.72 16.00 C 76.08 16.00 72.43 16.00 68.79 16.00 M 128.53 16.00 C 128.53 31.67 128.53 47.33 128.53 63.00 C 135.65 63.00 142.76 63.01 149.87 62.99 C 149.86 59.67 149.86 56.34 149.88 53.02 C 146.83 53.00 143.78 53.00 140.73 53.00 C 140.73 50.00 140.73 47.00 140.73 44.00 C 143.31 44.00 145.89 44.00 148.46 44.00 C 148.47 41.00 148.47 38.00 148.47 35.00 C 145.89 35.00 143.31 35.00 140.73 35.00 C 140.73 32.00 140.73 29.00 140.73 26.00 C 143.49 26.00 146.24 26.00 149.00 26.00 C 149.00 22.67 149.00 19.33 149.00 16.00 C 142.18 16.00 135.36 16.00 128.53 16.00 M 153.53 16.00 C 153.53 31.67 153.53 47.33 153.53 63.00 C 160.65 63.00 167.76 63.01 174.87 62.99 C 174.86 59.67 174.86 56.34 174.87 53.01 C 171.83 53.00 168.78 53.00 165.73 53.00 C 165.73 50.00 165.73 47.00 165.73 44.00 C 168.31 44.00 170.89 44.00 173.47 44.00 C 173.47 41.00 173.47 38.00 173.47 35.00 C 170.89 35.00 168.31 35.00 165.73 35.00 C 165.73 32.00 165.73 29.00 165.73 26.00 C 168.49 26.00 171.24 26.00 174.00 26.00 C 174.00 22.67 174.00 19.33 174.00 16.00 C 167.18 16.00 160.35 16.00 153.53 16.00 M 177.54 16.00 C 177.53 31.67 177.53 47.33 177.53 63.00 C 184.65 63.00 191.76 63.01 198.87 62.99 C 198.86 59.66 198.86 56.34 198.87 53.01 C 195.82 53.00 192.78 53.00 189.73 53.00 C 189.73 50.00 189.73 47.00 189.73 44.00 C 192.31 44.00 194.89 44.00 197.47 44.00 C 197.47 41.00 197.47 38.00 197.47 35.00 C 194.89 35.00 192.31 35.00 189.73 35.00 C 189.73 32.00 189.73 29.00 189.73 26.00 C 192.49 26.00 195.24 26.00 198.00 26.00 C 198.00 22.67 198.00 19.33 198.00 16.00 C 191.18 16.00 184.36 16.00 177.54 16.00 M 202.54 16.00 C 202.53 31.67 202.53 47.33 202.53 63.00 C 209.65 63.00 216.76 63.01 223.87 62.99 C 223.86 59.67 223.86 56.34 223.87 53.01 C 220.83 53.00 217.78 53.00 214.73 53.00 C 214.73 50.00 214.73 47.00 214.73 44.00 C 217.31 44.00 219.89 44.00 222.47 44.00 C 222.47 41.00 222.47 38.00 222.47 35.00 C 219.89 35.00 217.31 35.00 214.73 35.00 C 214.73 32.00 214.73 29.00 214.73 26.00 C 217.49 26.00 220.24 26.00 223.00 26.00 C 223.00 22.67 223.00 19.33 223.00 16.00 C 216.18 16.00 209.36 16.00 202.54 16.00 M 227.53 16.00 C 227.53 31.67 227.53 47.33 227.53 63.00 C 239.11 63.03 250.67 62.91 262.25 63.00 C 262.28 60.35 262.36 57.71 262.38 55.06 C 264.37 55.02 266.35 55.00 268.34 54.98 C 268.40 57.63 268.42 60.27 268.46 62.91 C 276.72 63.09 284.98 62.94 293.24 63.00 C 293.28 60.34 293.36 57.68 293.40 55.03 C 295.38 55.01 297.36 55.00 299.35 54.99 C 299.40 57.62 299.42 60.25 299.44 62.88 C 307.37 63.15 315.31 62.93 323.25 63.00 C 323.28 60.35 323.36 57.70 323.38 55.06 C 325.37 55.02 327.35 55.00 329.34 54.99 C 329.37 57.67 329.41 60.36 329.58 63.04 C 337.80 62.94 346.02 63.01 354.24 63.00 C 354.28 60.34 354.36 57.69 354.40 55.04 C 356.38 55.01 358.36 55.00 360.34 54.99 C 360.40 57.62 360.42 60.25 360.44 62.88 C 368.37 63.14 376.31 62.93 384.25 63.00 C 384.28 60.36 384.35 57.73 384.35 55.10 C 386.35 55.03 388.35 54.99 390.35 54.97 C 390.62 57.56 389.88 60.57 390.86 62.92 C 398.98 63.11 407.12 62.92 415.24 63.00 C 415.28 60.34 415.35 57.69 415.40 55.03 C 417.38 55.01 419.36 55.00 421.35 54.99 C 421.60 57.59 420.90 60.53 421.84 62.93 C 429.64 63.12 437.44 62.94 445.24 63.00 C 445.28 60.34 445.35 57.69 445.40 55.03 C 447.38 55.01 449.35 55.00 451.34 54.99 C 451.37 57.67 451.41 60.35 451.58 63.03 C 459.80 62.95 468.02 63.01 476.25 63.00 C 476.28 60.35 476.35 57.70 476.38 55.05 C 478.37 55.02 480.35 55.00 482.34 54.99 C 482.39 57.63 482.42 60.27 482.46 62.92 C 486.53 63.05 490.61 63.00 494.68 62.99 C 492.35 47.34 489.82 31.71 487.49 16.06 C 481.72 15.95 475.95 16.01 470.19 16.02 C 468.07 31.45 466.04 46.90 463.71 62.30 C 461.13 46.94 458.84 31.52 456.54 16.11 C 450.76 15.89 444.97 16.04 439.19 16.01 C 437.30 30.44 435.14 44.83 433.28 59.26 C 430.77 44.92 428.71 30.49 426.52 16.09 C 420.74 15.91 414.97 16.03 409.19 16.01 C 407.07 31.43 405.03 46.87 402.73 62.27 C 400.08 46.92 397.87 31.48 395.52 16.09 C 389.74 15.91 383.96 16.02 378.19 16.01 C 376.34 30.39 374.08 44.72 372.36 59.11 C 369.62 44.86 367.77 30.43 365.52 16.09 C 359.74 15.90 353.96 16.02 348.18 16.02 C 346.09 31.47 343.99 46.92 341.74 62.34 C 339.03 47.06 337.06 31.65 334.44 16.35 C 328.92 15.51 322.90 16.24 317.19 16.01 C 315.28 30.43 313.17 44.83 311.26 59.24 C 308.72 44.86 306.82 30.37 304.40 15.97 C 298.66 16.04 292.92 15.97 287.19 16.01 C 285.09 31.50 282.96 46.98 280.74 62.44 C 278.06 47.00 275.98 31.44 273.40 15.97 C 267.67 16.03 261.93 15.98 256.19 16.01 C 254.23 30.85 252.03 45.66 250.11 60.50 C 250.04 61.32 249.63 61.89 248.89 62.23 C 248.80 59.16 248.87 56.08 248.88 53.01 C 245.83 53.00 242.78 53.00 239.73 53.00 C 239.73 50.00 239.73 47.00 239.73 44.00 C 242.31 44.00 244.89 44.00 247.47 44.00 C 247.47 41.00 247.47 38.00 247.47 35.00 C 244.89 35.00 242.31 35.00 239.73 35.00 C 239.73 32.00 239.73 29.00 239.73 26.00 C 242.49 26.00 245.24 26.00 248.00 26.00 C 248.00 22.67 248.00 19.33 248.00 16.00 C 241.18 16.00 234.36 16.00 227.53 16.00 M 34.13 483.27 C 30.26 483.86 26.11 486.07 25.09 490.14 C 24.11 494.84 23.81 500.25 26.52 504.46 C 30.02 509.09 35.96 510.94 39.91 515.10 C 41.06 517.16 40.98 519.69 40.72 521.98 C 40.64 524.12 36.92 525.02 36.51 522.66 C 36.06 519.79 36.31 516.88 36.27 514.00 C 32.41 514.00 28.56 513.99 24.70 514.00 C 24.99 518.78 24.11 524.53 27.84 528.23 C 32.11 532.07 38.46 532.75 43.88 531.44 C 47.63 530.53 51.74 528.10 52.23 523.89 C 52.87 519.27 52.94 514.30 51.07 509.94 C 47.90 504.66 41.65 502.62 37.21 498.70 C 35.35 496.49 35.06 490.50 39.10 490.94 C 40.77 492.85 39.92 495.68 40.16 498.00 C 43.98 498.00 47.80 498.00 51.62 498.00 C 51.31 494.20 52.07 489.74 49.29 486.68 C 45.24 483.04 39.30 482.49 34.13 483.27 M 56.28 489.54 C 55.15 493.48 55.08 497.82 56.19 501.78 C 58.58 508.48 66.40 510.24 70.91 515.08 C 72.08 517.35 72.15 520.18 71.51 522.62 C 70.98 524.42 67.64 524.68 67.49 522.55 C 67.07 519.72 67.31 516.84 67.27 514.00 C 63.41 514.00 59.56 513.99 55.70 514.01 C 55.99 518.76 55.12 524.47 58.78 528.18 C 63.04 532.07 69.43 532.76 74.86 531.44 C 78.59 530.53 82.70 528.13 83.22 523.96 C 83.87 519.32 83.94 514.34 82.09 509.97 C 78.93 504.67 72.67 502.63 68.22 498.71 C 66.35 496.51 66.05 490.55 70.07 490.94 C 71.81 492.80 70.91 495.68 71.15 497.99 C 74.98 498.00 78.80 498.00 82.62 498.00 C 82.31 494.21 83.07 489.78 80.32 486.70 C 76.51 483.23 70.95 482.60 66.03 483.13 C 62.07 483.60 57.66 485.48 56.28 489.54 M 88.60 489.49 C 86.70 493.36 87.28 497.84 87.13 502.02 C 87.33 508.99 86.62 516.04 87.79 522.95 C 88.37 527.23 92.09 530.49 96.21 531.32 C 102.88 533.28 111.57 531.53 114.84 524.81 C 116.49 520.43 116.14 515.61 116.29 511.00 C 112.19 510.99 108.09 511.00 104.00 511.00 C 103.86 515.07 104.44 519.27 103.41 523.25 C 102.13 524.94 99.12 523.80 99.50 521.59 C 99.33 512.20 99.34 502.78 99.50 493.38 C 99.37 491.22 101.40 490.87 103.10 490.76 C 104.72 494.97 103.75 499.60 104.00 504.00 C 108.09 504.00 112.18 504.00 116.27 504.00 C 116.21 499.05 116.63 493.87 114.74 489.20 C 112.26 484.69 106.79 483.04 101.95 482.96 C 96.84 482.83 91.14 484.74 88.60 489.49 M 121.60 489.50 C 119.70 493.35 120.28 497.80 120.13 501.96 C 120.33 508.93 119.62 515.99 120.79 522.91 C 121.35 527.19 125.05 530.47 129.17 531.31 C 135.85 533.29 144.58 531.54 147.85 524.79 C 149.49 520.41 149.15 515.60 149.29 511.00 C 145.19 510.99 141.09 511.00 137.00 511.00 C 136.92 514.90 137.30 518.86 136.59 522.73 C 136.00 525.07 132.00 524.08 132.51 521.64 C 132.32 512.21 132.33 502.75 132.51 493.32 C 132.39 491.20 134.42 490.92 136.07 490.76 C 137.74 494.96 136.74 499.59 137.00 504.00 C 141.09 504.00 145.18 504.00 149.27 504.00 C 149.21 499.04 149.64 493.83 147.72 489.15 C 145.21 484.67 139.77 483.05 134.94 482.96 C 129.83 482.82 124.13 484.75 121.60 489.50 M 396.62 489.46 C 394.69 493.33 395.28 497.82 395.13 502.01 C 395.33 508.98 394.62 516.03 395.79 522.94 C 396.36 527.20 400.05 530.46 404.16 531.30 C 410.83 533.29 419.56 531.55 422.84 524.80 C 424.49 520.42 424.14 515.60 424.29 511.00 C 420.19 510.99 416.09 511.00 412.00 511.00 C 411.91 514.89 412.29 518.83 411.60 522.68 C 411.31 524.71 407.61 524.44 407.62 522.34 C 407.12 518.26 407.51 514.14 407.40 510.04 C 407.71 503.73 406.70 497.30 408.04 491.09 C 409.27 491.26 411.19 490.40 411.66 492.08 C 412.32 496.01 411.89 500.03 412.00 504.00 C 416.08 504.00 420.17 504.00 424.27 504.00 C 424.21 499.06 424.62 493.89 422.76 489.22 C 420.29 484.71 414.84 483.06 410.00 482.96 C 404.89 482.81 399.18 484.71 396.62 489.46 M 430.26 488.44 C 427.66 492.07 428.29 496.78 428.12 501.00 C 428.34 508.28 427.60 515.65 428.78 522.88 C 429.33 527.14 432.98 530.42 437.07 531.28 C 443.75 533.29 452.49 531.59 455.82 524.86 C 457.50 520.47 457.14 515.62 457.29 511.00 C 453.19 510.99 449.09 511.00 445.00 511.00 C 444.91 514.92 445.30 518.89 444.58 522.76 C 443.93 525.04 440.00 524.06 440.51 521.64 C 440.32 512.23 440.33 502.80 440.50 493.39 C 440.36 491.20 442.40 490.91 444.11 490.77 C 445.68 494.99 444.77 499.59 445.00 504.00 C 449.09 504.00 453.18 504.00 457.27 504.00 C 457.21 499.07 457.62 493.91 455.76 489.24 C 453.50 485.03 448.55 483.31 444.04 483.00 C 439.00 482.66 433.28 484.08 430.26 488.44 M 154.53 484.00 C 154.53 499.67 154.53 515.33 154.53 531.00 C 158.61 531.00 162.68 531.02 166.76 530.96 C 166.71 515.32 166.73 499.67 166.75 484.02 C 162.68 483.98 158.61 484.00 154.53 484.00 M 171.53 484.00 C 171.53 499.67 171.53 515.33 171.53 531.00 C 175.60 531.00 179.68 531.01 183.75 530.98 C 183.72 515.32 183.72 499.67 183.75 484.02 C 179.68 483.99 175.60 484.00 171.53 484.00 M 188.53 484.00 C 188.53 499.67 188.53 515.33 188.53 531.00 C 192.60 531.00 196.68 531.01 200.75 530.98 C 200.72 515.33 200.71 499.68 200.75 484.03 C 196.68 483.98 192.61 484.00 188.53 484.00 M 205.53 484.00 C 205.53 499.67 205.53 515.33 205.53 531.00 C 209.61 531.00 213.68 531.01 217.76 530.97 C 217.71 515.32 217.72 499.67 217.75 484.02 C 213.68 483.98 209.60 484.00 205.53 484.00 M 223.53 484.00 C 223.53 499.67 223.53 515.33 223.53 531.00 C 230.65 530.99 237.76 531.01 244.87 530.99 C 244.86 527.66 244.86 524.33 244.87 521.01 C 241.82 521.00 238.78 520.99 235.73 521.00 C 235.73 518.00 235.73 515.00 235.73 512.00 C 238.31 512.00 240.89 511.99 243.47 512.00 C 243.47 509.00 243.47 506.00 243.47 503.00 C 240.89 503.00 238.31 503.00 235.73 503.00 C 235.73 499.99 235.73 497.00 235.73 494.00 C 238.49 494.00 241.24 494.00 244.00 494.00 C 244.00 490.66 244.00 487.33 244.00 484.00 C 237.18 484.00 230.35 484.00 223.53 484.00 M 248.54 484.00 C 248.53 499.67 248.53 515.33 248.53 531.00 C 255.65 530.99 262.76 531.01 269.87 530.99 C 269.86 527.66 269.86 524.33 269.87 521.01 C 266.82 521.00 263.78 520.99 260.73 521.00 C 260.73 517.99 260.73 515.00 260.73 512.00 C 263.31 512.00 265.89 511.99 268.47 512.00 C 268.47 509.00 268.47 506.00 268.47 503.00 C 265.89 503.00 263.31 503.00 260.73 503.00 C 260.73 500.00 260.73 497.00 260.73 494.00 C 263.49 494.00 266.24 494.00 269.00 494.00 C 269.00 490.66 269.00 487.33 269.00 484.00 C 262.18 484.00 255.36 484.00 248.54 484.00 M 273.54 484.00 C 273.53 499.67 273.53 515.33 273.53 531.00 C 280.65 531.00 287.76 531.01 294.87 530.99 C 294.86 527.66 294.86 524.33 294.87 521.01 C 291.82 521.00 288.78 520.99 285.73 521.00 C 285.73 518.00 285.73 515.00 285.73 512.00 C 288.31 512.00 290.89 511.99 293.47 512.00 C 293.47 509.00 293.47 506.00 293.47 503.00 C 290.89 503.00 288.31 503.00 285.73 503.00 C 285.73 500.00 285.73 497.00 285.73 494.00 C 288.49 494.00 291.24 494.00 294.00 494.00 C 294.00 490.66 294.00 487.33 294.00 484.00 C 287.18 484.00 280.36 484.00 273.54 484.00 M 297.53 484.00 C 297.53 499.67 297.53 515.33 297.53 531.00 C 300.93 531.00 304.33 531.00 307.73 531.00 C 307.73 523.95 307.75 516.89 307.70 509.84 C 310.10 516.82 312.06 523.94 314.22 531.00 C 317.81 531.00 321.40 531.00 325.00 531.00 C 325.00 515.33 325.00 499.67 325.00 484.00 C 321.53 484.00 318.06 484.00 314.60 484.00 C 314.58 490.82 314.62 497.63 314.60 504.45 C 312.04 497.74 310.01 490.84 307.75 484.03 C 304.34 483.98 300.94 483.99 297.53 484.00 M 330.53 484.00 C 330.53 499.67 330.53 515.33 330.53 531.00 C 333.93 531.00 337.33 531.00 340.73 531.00 C 340.74 523.95 340.74 516.90 340.72 509.85 C 343.09 516.83 345.06 523.95 347.22 531.00 C 350.81 531.00 354.40 531.00 358.00 531.00 C 358.00 515.33 358.00 499.67 358.00 484.00 C 354.53 484.00 351.06 484.00 347.60 484.00 C 347.59 490.89 347.59 497.79 347.62 504.68 C 345.15 497.86 343.01 490.92 340.75 484.03 C 337.34 483.98 333.94 483.99 330.53 484.00 M 362.53 484.00 C 362.53 499.67 362.53 515.33 362.53 531.00 C 365.93 531.00 369.33 531.00 372.73 531.00 C 372.72 523.96 372.78 516.92 372.68 509.88 C 375.14 516.82 377.04 523.96 379.22 531.00 C 382.81 531.00 386.40 531.00 390.00 531.00 C 390.00 515.33 390.00 499.67 390.00 484.00 C 386.53 484.00 383.06 484.00 379.60 484.00 C 379.50 490.76 379.79 497.53 379.45 504.28 C 377.09 497.57 374.95 490.78 372.74 484.02 C 369.33 483.99 365.93 483.99 362.53 484.00 M 461.53 484.00 C 461.53 499.67 461.53 515.33 461.53 531.00 C 468.64 531.00 475.76 531.00 482.87 530.99 C 482.86 527.66 482.86 524.33 482.87 521.01 C 479.82 521.00 476.78 520.99 473.73 521.00 C 473.73 518.00 473.73 515.00 473.73 512.00 C 476.31 512.00 478.88 511.99 481.47 512.00 C 481.47 509.00 481.47 506.00 481.47 503.00 C 478.88 503.00 476.31 503.00 473.73 503.00 C 473.73 500.00 473.73 497.00 473.73 494.00 C 476.48 494.00 479.24 494.00 482.00 494.00 C 482.00 490.66 482.00 487.33 482.00 484.00 C 475.17 484.00 468.35 484.00 461.53 484.00 Z" />
<path fill="#ffffff" opacity="1.00" d=" M 262.48 47.00 C 263.33 39.90 264.10 32.79 265.41 25.75 C 265.98 32.85 266.88 39.92 267.67 46.99 C 265.94 47.00 264.21 47.00 262.48 47.00 Z" />
<path fill="#ffffff" opacity="1.00" d=" M 293.48 47.00 C 294.36 39.94 295.03 32.83 296.46 25.86 C 296.96 32.93 297.90 39.95 298.67 47.00 C 296.93 47.00 295.21 47.00 293.48 47.00 Z" />
<path fill="#ffffff" opacity="1.00" d=" M 323.48 47.00 C 324.35 39.90 325.06 32.76 326.46 25.73 C 326.93 32.85 327.91 39.91 328.66 47.00 C 326.93 47.00 325.20 47.00 323.48 47.00 Z" />
<path fill="#ffffff" opacity="1.00" d=" M 354.48 47.00 C 355.34 39.91 356.08 32.80 357.43 25.78 C 357.97 32.87 358.88 39.92 359.67 46.99 C 357.94 47.00 356.21 47.00 354.48 47.00 Z" />
<path fill="#ffffff" opacity="1.00" d=" M 384.48 47.00 C 385.34 39.91 386.07 32.77 387.44 25.75 C 387.95 32.85 388.89 39.92 389.67 46.99 C 387.94 47.00 386.21 47.00 384.48 47.00 Z" />
<path fill="#ffffff" opacity="1.00" d=" M 415.48 47.00 C 416.34 39.95 417.07 32.86 418.41 25.87 C 419.01 32.93 419.87 39.96 420.67 46.99 C 418.94 47.00 417.21 47.00 415.48 47.00 Z" />
<path fill="#ffffff" opacity="1.00" d=" M 445.48 47.00 C 446.35 39.91 447.05 32.77 448.46 25.76 C 448.94 32.86 449.90 39.92 450.67 46.99 C 448.94 47.00 447.21 47.00 445.48 47.00 Z" />
<path fill="#ffffff" opacity="1.00" d=" M 479.41 25.79 C 480.00 32.88 480.88 39.93 481.67 47.00 C 479.93 47.00 478.21 47.00 476.48 47.00 C 477.33 39.92 478.10 32.81 479.41 25.79 Z" />
<path fill="#ffffff" opacity="1.00" d=" M 271.81 104.03 C 277.00 101.38 282.75 100.46 288.39 99.46 C 288.73 99.96 289.41 100.98 289.75 101.49 C 294.36 99.81 299.19 101.36 303.92 101.37 C 307.22 101.43 306.46 105.95 309.24 106.89 C 307.01 107.40 307.20 109.72 307.50 111.49 C 310.80 111.47 313.97 110.24 317.29 110.57 C 317.43 111.22 317.69 112.52 317.82 113.17 C 318.45 113.25 319.72 113.42 320.35 113.51 C 320.83 114.52 321.33 115.53 321.83 116.55 C 322.52 116.51 323.91 116.43 324.60 116.39 C 324.76 116.98 325.09 118.16 325.25 118.75 C 326.28 120.44 328.11 118.51 329.26 117.99 C 330.16 118.40 331.06 118.82 331.97 119.25 C 333.41 119.39 334.87 119.52 336.32 119.66 C 336.46 120.93 336.59 122.20 336.73 123.47 C 337.39 123.52 338.70 123.61 339.35 123.66 C 339.11 126.85 342.94 125.49 344.90 125.76 C 343.06 127.41 340.48 128.85 341.20 131.76 C 344.34 132.48 346.54 129.95 348.97 128.48 C 350.82 129.96 353.18 129.60 355.38 129.52 C 355.35 130.26 355.28 131.75 355.25 132.50 C 356.54 132.82 357.95 133.58 359.20 132.72 C 359.54 132.92 360.22 133.32 360.56 133.52 C 358.91 135.67 360.56 139.60 363.44 137.64 C 363.54 138.84 363.65 140.04 363.77 141.24 C 365.56 141.42 367.36 141.56 369.16 141.72 C 369.74 142.73 370.20 143.85 370.97 144.75 C 372.41 145.51 374.34 145.38 375.52 146.58 C 375.65 149.15 376.66 151.54 377.01 154.07 C 378.81 154.88 380.46 155.99 381.49 157.72 C 381.68 159.08 381.17 160.72 382.16 161.87 C 383.81 162.51 385.54 162.94 387.15 163.72 C 387.34 166.90 389.14 169.48 391.39 171.59 C 390.32 177.70 391.67 183.72 391.57 189.85 C 391.74 191.72 393.30 193.15 393.49 195.03 C 392.86 197.69 390.82 200.18 392.15 203.00 C 391.01 207.23 391.00 211.86 388.45 215.60 C 386.96 217.72 387.07 221.61 383.64 221.47 C 380.46 229.97 378.01 238.89 377.57 248.01 C 377.42 251.08 376.49 254.03 376.19 257.09 C 375.33 259.70 374.56 262.35 374.17 265.08 C 371.48 272.02 370.05 279.50 366.07 285.90 C 361.15 296.51 359.21 309.12 350.31 317.44 C 345.14 321.54 339.36 326.08 337.42 332.63 C 338.04 332.52 339.28 332.31 339.90 332.20 C 343.79 328.40 346.85 323.62 351.77 321.00 C 350.56 324.59 349.31 328.20 347.44 331.52 C 343.76 337.74 341.32 344.85 336.09 350.04 C 330.93 355.32 325.47 360.62 318.73 363.83 C 315.23 366.83 312.10 370.36 307.96 372.53 C 306.58 372.56 305.23 372.43 303.89 372.14 C 299.74 370.71 295.19 372.39 291.10 370.75 C 288.39 370.31 285.64 370.21 282.90 370.09 C 279.97 369.47 276.97 369.44 274.00 369.23 C 266.03 366.03 258.03 362.93 250.06 359.79 C 246.42 358.79 242.77 357.55 238.96 357.58 C 236.64 357.51 234.15 357.94 232.11 356.56 C 227.41 355.96 222.01 356.43 217.99 353.59 C 212.97 354.32 208.28 356.42 203.97 359.03 C 199.43 361.75 196.34 366.48 191.25 368.36 C 183.62 371.51 178.40 378.15 172.54 383.65 C 171.73 380.94 170.92 378.19 169.33 375.82 C 165.47 369.78 162.97 362.96 158.94 357.03 C 156.77 354.40 155.12 351.41 153.65 348.35 C 154.07 341.49 157.27 335.10 160.78 329.33 C 163.94 331.22 167.76 331.78 170.70 334.13 C 177.57 339.11 186.09 340.86 193.21 345.40 C 196.83 347.78 200.64 349.89 204.76 351.30 C 207.75 352.19 210.18 355.77 213.57 354.51 L 213.76 353.01 C 211.04 350.31 207.52 348.46 203.93 347.18 C 199.40 345.63 195.68 342.50 191.44 340.38 C 185.32 337.17 178.50 335.36 172.80 331.36 C 169.87 329.22 166.49 327.89 163.00 326.96 C 162.05 324.84 164.94 322.27 162.83 320.10 C 163.42 315.16 165.19 310.53 167.23 306.02 C 168.26 301.74 169.25 297.43 169.48 293.03 C 169.67 288.63 171.27 284.43 171.46 280.04 C 171.60 274.82 174.98 270.37 175.35 265.19 C 175.93 260.32 176.74 255.46 176.58 250.53 C 171.31 250.27 165.95 250.39 160.96 252.31 C 158.59 252.10 157.41 250.15 156.72 248.09 C 156.70 244.36 156.24 240.62 156.68 236.91 C 157.40 233.91 158.44 230.99 158.91 227.94 C 159.25 226.62 159.55 225.29 159.86 223.97 C 160.19 222.98 160.51 221.99 160.82 220.99 C 163.57 215.15 167.76 208.22 174.96 207.89 C 179.09 207.42 184.02 207.62 187.47 205.13 C 187.48 204.62 187.52 203.60 187.53 203.09 C 187.86 203.50 188.50 204.32 188.83 204.73 C 193.83 205.03 195.94 199.98 197.21 196.05 C 197.18 200.62 199.18 204.80 199.93 209.25 C 200.74 209.28 201.57 209.31 202.39 209.35 C 202.90 205.08 200.27 201.27 200.40 197.04 C 200.20 194.07 201.30 191.26 202.00 188.43 C 201.56 188.35 200.69 188.20 200.25 188.12 C 202.53 185.20 206.48 183.62 207.53 179.80 C 208.18 176.51 211.18 174.39 211.71 171.06 C 212.43 169.02 212.37 166.07 215.23 166.03 C 215.83 163.23 216.83 160.56 217.73 157.86 C 214.95 156.40 216.84 153.96 219.08 153.47 C 219.80 155.46 221.10 157.28 223.53 156.65 C 223.30 154.93 222.78 153.30 222.26 151.66 C 222.75 151.61 223.74 151.51 224.23 151.46 C 224.15 153.96 225.46 156.71 228.44 155.84 C 227.51 152.60 227.36 149.23 227.73 145.90 C 228.87 148.23 228.50 150.90 228.71 153.41 C 229.58 153.48 231.33 153.62 232.20 153.69 C 232.83 151.73 233.43 149.76 233.91 147.76 C 237.92 147.01 240.34 142.74 239.66 138.86 C 239.70 135.73 234.99 136.05 235.12 132.83 C 236.60 132.69 238.09 132.55 239.57 132.41 C 239.95 130.76 239.60 129.25 238.35 128.07 C 240.21 124.34 243.24 121.20 247.52 120.57 C 247.84 119.63 248.16 118.68 248.49 117.74 C 250.46 117.83 253.65 118.51 253.62 115.50 C 255.57 115.49 257.51 115.47 259.46 115.43 C 259.53 113.96 259.56 112.49 259.61 111.02 C 263.69 110.03 267.78 109.01 271.55 107.11 C 271.63 106.08 271.72 105.06 271.81 104.03 M 258.74 141.42 C 258.27 142.02 257.81 142.63 257.35 143.23 C 263.64 146.23 270.74 145.68 277.47 146.76 C 280.28 147.82 283.15 148.69 286.09 149.31 C 288.95 149.87 290.62 152.50 292.90 154.05 C 295.45 155.96 299.08 156.23 301.01 158.98 C 301.90 160.64 303.79 160.67 305.45 160.50 C 306.31 157.06 303.07 154.98 302.19 151.99 C 299.76 150.93 297.73 149.22 295.46 147.90 C 293.10 146.92 290.44 146.07 289.17 143.64 C 279.46 139.60 268.89 141.89 258.74 141.42 M 282.59 161.85 C 282.33 166.10 286.79 168.57 287.89 172.47 C 288.70 172.51 289.51 172.55 290.32 172.59 C 291.28 170.31 291.65 167.88 291.33 165.42 C 290.20 165.50 289.08 165.59 287.96 165.69 C 286.83 164.29 285.65 162.92 284.41 161.62 C 283.96 161.68 283.04 161.79 282.59 161.85 M 242.74 167.47 C 242.76 167.91 242.80 168.79 242.82 169.23 C 245.18 171.01 248.21 170.46 250.96 170.88 C 255.89 171.95 260.92 172.61 265.96 172.86 C 271.30 174.68 277.13 174.96 282.23 177.43 C 280.14 177.64 278.05 177.67 275.96 177.74 C 272.63 180.06 268.59 178.77 264.94 178.19 C 261.27 177.14 257.64 175.20 253.75 175.53 C 254.04 177.09 254.92 178.40 256.57 178.65 C 260.70 179.86 264.71 181.81 269.09 181.82 C 273.89 182.13 278.61 181.02 283.33 180.32 C 283.74 179.87 284.57 178.95 284.98 178.49 C 286.28 178.60 287.58 178.70 288.89 178.80 C 288.92 174.25 283.01 174.71 280.09 172.78 C 274.05 171.81 268.28 169.31 262.10 169.36 C 255.64 168.76 249.27 166.92 242.74 167.47 M 341.40 177.98 C 341.34 180.68 343.32 182.83 345.38 184.30 C 349.50 187.18 354.71 187.50 359.05 189.97 C 364.34 191.64 370.16 193.62 373.15 198.70 C 376.92 202.88 377.00 208.74 378.40 213.90 C 379.42 213.74 380.44 213.57 381.47 213.40 C 381.42 210.86 381.04 208.35 380.54 205.86 C 379.84 201.14 376.20 197.68 374.29 193.45 C 372.94 190.36 369.64 189.18 367.23 187.11 C 367.34 186.27 367.55 184.58 367.66 183.74 C 364.82 181.31 360.14 182.07 358.05 178.75 C 352.50 178.08 346.81 175.07 341.40 177.98 M 309.23 184.16 C 307.01 184.73 304.24 185.91 304.45 188.64 C 306.74 188.63 308.69 187.35 310.84 186.74 C 313.42 186.96 315.93 188.09 318.56 187.50 C 318.17 186.74 317.78 185.99 317.39 185.24 C 314.78 184.39 311.97 183.26 309.23 184.16 M 326.40 185.40 C 328.99 190.54 330.77 195.97 332.79 201.36 C 333.65 201.71 334.52 202.08 335.39 202.45 C 335.40 201.23 335.61 199.97 335.06 198.84 C 333.28 194.26 332.44 189.13 328.98 185.41 C 328.33 185.41 327.04 185.40 326.40 185.40 M 283.85 192.80 C 281.04 195.05 278.27 198.43 279.47 202.29 C 279.90 202.27 280.77 202.23 281.21 202.21 C 282.13 199.37 283.53 196.37 286.24 194.85 C 288.67 193.77 291.29 193.21 293.82 192.42 C 293.75 191.88 293.61 190.79 293.54 190.24 C 290.14 190.17 286.79 191.13 283.85 192.80 M 260.17 198.85 C 260.25 199.50 260.42 200.80 260.50 201.45 C 263.47 200.78 266.06 199.15 268.51 197.40 C 268.49 196.88 268.45 195.83 268.43 195.30 C 265.27 195.29 262.82 197.45 260.17 198.85 M 326.23 197.32 C 326.57 200.21 327.15 203.08 327.81 205.92 C 328.82 209.02 331.19 211.40 332.95 214.09 C 333.35 214.15 334.16 214.28 334.56 214.35 C 335.80 210.08 330.87 207.89 330.52 203.96 C 329.76 201.49 329.99 196.84 326.23 197.32 M 283.53 202.75 C 283.00 206.22 286.50 209.09 289.64 209.78 C 289.62 210.32 289.58 211.41 289.56 211.95 C 288.67 211.45 287.80 210.94 286.94 210.42 C 285.70 211.07 284.54 211.85 283.44 212.70 C 283.36 213.22 283.21 214.27 283.13 214.80 C 282.41 213.26 280.47 212.84 279.13 213.88 C 275.38 215.92 271.02 214.98 266.97 215.29 C 264.96 215.47 262.83 213.60 261.06 215.25 C 258.81 214.84 256.13 214.31 254.02 215.36 C 251.31 215.36 248.61 215.69 245.90 215.63 C 244.57 216.43 243.19 217.14 241.81 217.84 C 241.73 218.41 241.57 219.56 241.49 220.14 C 239.33 220.60 237.85 222.24 236.36 223.75 C 236.38 225.52 236.48 227.29 236.68 229.06 C 237.35 230.18 238.01 231.30 238.71 232.41 C 239.26 232.75 240.34 233.41 240.89 233.74 C 242.64 233.62 243.82 232.39 244.96 231.21 C 245.29 231.59 245.96 232.34 246.29 232.71 C 248.66 235.32 250.74 238.46 254.12 239.86 C 258.29 240.68 260.40 245.09 264.88 245.16 C 270.70 246.49 276.78 246.01 282.44 248.09 L 283.33 249.43 C 281.68 249.36 280.04 249.31 278.41 249.27 C 278.35 249.81 278.24 250.90 278.19 251.45 C 279.82 251.92 281.46 252.40 283.11 252.83 C 287.56 255.12 292.07 257.30 296.79 259.01 C 301.68 260.85 305.51 265.13 310.71 266.00 L 310.48 263.87 C 303.79 257.79 294.81 255.26 286.87 251.24 C 285.39 250.36 283.10 250.40 282.67 248.32 C 286.67 248.18 290.55 249.18 294.16 250.83 C 299.92 253.03 303.82 258.02 308.59 261.69 L 310.41 261.56 C 310.39 260.67 310.38 259.79 310.37 258.91 C 306.42 253.45 301.45 248.53 295.19 245.81 C 292.39 243.99 288.72 243.40 286.69 240.57 C 281.78 239.81 276.80 239.32 271.82 239.59 C 269.89 240.45 267.88 241.20 265.80 241.56 C 262.23 240.99 257.84 238.16 258.70 233.98 C 258.96 234.40 259.49 235.23 259.75 235.65 C 262.28 236.38 264.50 234.96 266.32 233.37 C 267.21 234.38 267.22 236.74 269.08 236.34 C 270.07 235.15 271.00 233.93 271.93 232.70 C 273.29 232.71 274.65 232.74 276.02 232.79 C 276.91 233.58 277.92 234.18 279.04 234.60 C 279.41 234.06 280.15 233.00 280.52 232.46 C 288.99 234.72 297.03 238.48 304.66 242.76 C 304.57 244.07 304.51 245.38 304.46 246.70 C 306.10 246.77 307.67 246.41 308.97 245.36 C 310.56 247.02 311.39 249.22 309.53 251.02 C 309.54 251.66 309.54 252.94 309.54 253.58 C 311.13 253.77 312.73 253.60 313.94 252.44 C 314.74 254.19 315.69 255.86 316.67 257.51 L 317.26 257.66 C 318.25 259.67 319.43 261.61 320.09 263.77 C 317.52 263.16 315.04 262.11 312.35 262.11 C 312.39 262.72 312.45 263.94 312.48 264.55 L 313.69 264.36 L 313.55 265.33 C 315.34 265.79 317.12 266.30 318.99 266.36 C 319.85 265.94 320.73 265.56 321.62 265.22 C 321.60 265.67 321.57 266.58 321.55 267.04 C 321.86 267.40 322.47 268.13 322.78 268.49 C 324.26 268.50 325.74 268.50 327.23 268.49 C 328.79 267.16 330.45 265.91 332.36 265.11 C 332.63 266.60 332.42 268.55 334.42 268.75 C 334.21 269.38 333.78 270.62 333.57 271.25 C 337.09 270.89 336.41 274.50 336.82 276.78 C 340.81 277.43 343.41 273.52 344.33 270.15 C 344.41 267.53 344.62 264.40 341.85 263.05 C 341.80 260.20 339.92 257.96 337.97 256.09 C 337.57 255.19 337.18 254.29 336.80 253.39 C 336.82 251.51 336.67 249.64 336.38 247.79 C 335.59 246.65 335.43 245.27 335.11 243.97 C 334.19 239.74 332.90 235.40 329.39 232.50 C 328.40 232.07 327.42 231.65 326.44 231.22 C 326.70 230.97 327.22 230.47 327.48 230.22 C 327.07 228.77 326.66 227.34 326.27 225.89 C 326.77 225.46 327.78 224.60 328.28 224.17 C 326.69 222.07 325.45 219.74 324.45 217.32 C 320.31 216.70 316.20 217.48 313.13 220.46 C 309.82 221.53 306.26 221.24 303.05 220.01 C 300.79 218.44 298.95 216.33 296.48 215.06 C 298.54 213.43 297.72 209.95 300.31 209.00 C 300.05 207.73 299.66 206.34 298.25 205.93 C 293.78 203.72 288.58 200.38 283.53 202.75 M 340.39 201.22 C 340.52 201.85 340.79 203.12 340.93 203.76 C 345.27 206.31 348.95 209.82 353.33 212.33 C 356.05 213.82 358.45 215.81 360.68 217.96 C 360.80 218.86 361.05 220.67 361.17 221.57 C 362.56 221.68 363.95 221.78 365.35 221.88 C 365.69 221.34 366.37 220.25 366.71 219.70 C 367.45 218.68 368.15 217.63 368.82 216.56 C 367.12 215.95 365.82 216.28 364.91 217.54 C 361.41 214.46 357.96 211.28 353.83 209.05 C 349.26 206.59 345.84 201.77 340.39 201.22 M 171.79 213.96 C 168.60 215.50 165.87 218.63 165.60 222.25 C 166.02 224.05 167.69 223.60 169.06 223.48 C 171.29 215.99 180.26 215.31 186.75 214.57 C 186.92 212.75 186.44 210.24 184.04 210.54 C 179.86 211.25 175.54 211.86 171.79 213.96 M 342.12 211.39 C 341.73 215.45 345.81 217.64 348.87 219.26 C 351.74 220.19 354.63 221.11 357.63 221.49 C 357.64 220.57 357.66 219.66 357.68 218.75 C 352.79 217.22 347.22 216.12 344.12 211.61 C 343.62 211.55 342.62 211.45 342.12 211.39 M 197.83 212.44 C 194.02 218.54 191.84 225.99 193.78 233.11 C 194.92 235.39 195.36 239.33 198.75 238.79 C 198.71 236.33 197.34 234.26 196.64 231.99 C 195.72 227.70 196.14 223.11 197.91 219.09 C 198.83 216.81 200.26 214.73 200.71 212.27 C 199.74 212.32 198.79 212.38 197.83 212.44 M 174.47 223.33 C 175.87 223.51 177.29 223.70 178.70 223.88 C 177.71 225.58 176.70 227.26 175.60 228.89 C 175.30 230.95 175.28 233.04 175.49 235.12 C 175.85 235.38 176.58 235.88 176.94 236.14 C 177.33 236.19 178.11 236.29 178.50 236.34 C 178.77 233.81 178.17 231.01 179.81 228.84 C 181.41 226.75 182.00 224.20 181.72 221.60 C 179.45 220.69 173.88 219.09 174.47 223.33 M 338.79 221.62 C 338.79 222.02 338.80 222.83 338.81 223.24 C 340.20 228.73 342.46 233.95 343.95 239.41 C 344.88 239.54 345.81 239.66 346.75 239.78 C 346.12 233.43 343.07 227.61 341.17 221.57 C 340.37 221.58 339.58 221.60 338.79 221.62 M 327.81 227.08 C 329.26 230.60 332.87 227.15 334.44 225.45 C 334.47 224.88 334.54 223.73 334.57 223.15 C 332.07 223.38 328.47 224.59 327.81 227.08 M 260.25 250.26 C 260.37 251.18 260.61 253.03 260.73 253.95 C 264.23 256.94 267.80 260.04 272.13 261.77 C 279.02 264.65 285.53 268.50 292.85 270.26 C 295.68 270.65 298.56 270.75 301.41 270.31 C 301.06 269.46 300.71 268.61 300.38 267.77 C 298.24 267.58 296.10 267.40 293.97 267.16 C 286.20 265.32 279.28 261.21 271.95 258.20 C 270.21 255.99 267.30 255.43 265.19 253.70 C 263.59 252.49 262.21 250.89 260.25 250.26 M 189.45 261.44 C 189.18 271.77 195.40 280.65 201.69 288.27 C 203.09 289.66 204.26 291.94 206.63 291.52 C 206.54 290.91 206.36 289.69 206.27 289.07 C 201.37 282.92 196.07 276.70 193.71 269.05 C 192.26 266.53 193.68 260.88 189.45 261.44 M 220.25 268.40 C 220.30 270.60 220.38 272.89 221.45 274.89 C 222.51 277.02 223.57 280.05 226.57 279.66 C 225.84 275.69 223.21 272.31 222.44 268.27 C 221.89 268.30 220.80 268.36 220.25 268.40 M 231.44 286.25 C 231.48 287.44 230.82 288.94 232.00 289.80 C 237.21 295.34 243.13 300.15 248.30 305.73 C 254.05 311.98 261.99 315.38 269.65 318.63 C 277.03 321.72 285.15 322.00 293.03 322.40 C 295.41 322.65 297.60 321.72 299.74 320.81 C 302.62 320.52 305.60 320.49 308.27 319.18 C 308.25 318.32 308.24 317.47 308.24 316.62 C 300.45 317.18 292.77 319.48 284.93 318.61 C 275.57 318.41 266.96 314.26 258.84 310.00 C 251.91 306.23 247.31 299.59 241.35 294.60 C 237.97 291.91 235.42 288.12 231.44 286.25 M 173.70 299.74 C 175.36 308.77 177.75 317.77 182.25 325.84 C 182.41 326.45 182.73 327.68 182.88 328.29 C 183.55 328.51 184.90 328.94 185.57 329.16 C 186.12 326.43 184.68 324.00 183.65 321.59 C 181.69 317.18 179.82 312.70 178.74 307.98 C 178.03 305.12 177.73 302.10 176.28 299.49 C 175.42 299.57 174.56 299.65 173.70 299.74 Z" />
<path fill="#ffffff" opacity="1.00" d=" M 297.47 218.96 C 300.42 223.80 306.53 224.81 311.75 224.38 C 311.64 224.86 311.41 225.82 311.30 226.30 C 309.73 226.39 306.36 225.43 306.40 227.93 C 305.45 230.52 309.24 230.38 310.87 230.49 C 311.33 231.53 312.05 232.31 313.22 232.52 C 314.12 235.27 317.46 235.86 318.76 238.30 C 320.34 240.94 320.20 244.30 322.19 246.73 C 324.18 249.34 325.93 252.12 327.55 254.97 C 326.13 252.93 324.13 251.36 322.91 249.17 C 320.39 244.39 316.48 240.40 312.04 237.38 C 311.53 237.45 310.51 237.58 310.00 237.64 C 310.03 239.92 312.25 240.93 313.62 242.40 C 316.88 245.17 319.33 248.70 321.73 252.20 C 323.84 255.83 327.55 258.67 328.71 262.73 C 327.48 262.01 327.00 260.66 326.46 259.44 L 325.54 259.48 L 325.49 258.65 C 322.89 257.76 321.47 255.03 318.77 254.30 C 316.78 251.71 315.99 248.37 313.63 246.05 C 307.60 238.85 298.33 235.99 290.15 232.06 C 283.93 229.04 276.61 228.57 269.98 230.19 C 267.50 230.33 265.03 230.39 262.56 230.53 C 262.20 230.03 261.48 229.05 261.11 228.55 C 259.71 228.49 258.31 228.43 256.91 228.37 C 257.84 227.75 258.78 227.12 259.71 226.49 C 268.05 225.04 276.59 225.33 285.02 225.41 C 287.34 225.02 288.93 227.04 291.08 227.35 C 292.68 227.08 293.87 225.91 295.06 224.89 C 295.64 224.72 296.81 224.37 297.39 224.20 C 297.91 222.47 297.78 220.70 297.47 218.96 Z" />
<path fill="#ffffff" opacity="1.00" d=" M 236.90 361.38 C 242.75 360.82 248.26 362.95 253.52 365.23 C 261.11 367.46 267.94 371.93 275.82 373.20 C 279.57 373.54 283.34 373.72 287.11 373.83 C 292.54 375.85 298.29 375.18 303.92 375.80 C 300.65 379.05 296.49 381.20 293.18 384.42 C 285.30 391.83 274.41 395.04 267.01 403.05 C 262.25 396.20 257.17 389.54 253.34 382.11 C 255.04 381.24 255.11 378.67 253.54 377.64 C 249.30 374.09 245.48 369.97 240.62 367.23 C 238.77 365.77 238.01 363.38 236.90 361.38 Z" />
<path fill="#ffffff" opacity="1.00" d=" M 183.67 377.62 C 187.03 374.23 191.37 372.20 195.55 370.03 C 194.27 372.48 192.97 375.15 193.47 378.01 C 193.92 381.12 198.51 382.52 197.43 386.00 C 196.24 389.42 194.14 392.46 193.17 395.97 C 190.76 405.24 185.35 413.29 181.67 422.05 C 181.32 419.60 180.72 417.20 180.25 414.77 L 179.82 414.11 C 179.53 413.07 179.23 412.04 178.92 411.02 C 178.55 410.05 178.16 409.10 177.78 408.15 C 177.65 407.58 177.39 406.45 177.27 405.88 L 176.77 405.22 C 175.26 399.52 173.39 393.85 172.65 388.00 C 176.52 384.75 180.09 381.18 183.67 377.62 Z" />
<path fill="#ffffff" opacity="1.00" d=" M 235.95 390.85 C 240.73 388.68 245.63 386.76 250.17 384.09 C 254.24 391.89 259.49 398.98 264.69 406.04 C 261.29 410.85 256.87 414.83 253.66 419.78 C 249.80 425.54 245.45 431.21 243.48 437.96 C 241.35 446.14 237.44 453.73 233.27 461.04 C 235.80 456.02 234.25 450.38 234.20 445.06 C 234.44 440.36 233.51 435.71 233.79 431.01 C 234.05 423.94 232.15 417.07 231.52 410.07 C 231.36 405.01 230.04 399.97 230.77 394.90 C 231.58 392.65 234.04 391.88 235.95 390.85 Z" />
</g>
<g id="#f00101ff">
<path fill="#f00101" opacity="1.00" d=" M 11.68 15.99 C 15.36 16.00 19.04 16.00 22.72 16.00 C 23.78 22.32 24.67 28.68 25.93 34.96 C 27.61 28.74 28.49 22.33 29.65 16.00 C 36.68 16.00 43.70 16.00 50.72 16.00 C 51.78 22.33 52.66 28.69 53.95 34.98 C 55.59 28.74 56.50 22.34 57.65 16.00 C 61.28 16.00 64.91 15.99 68.54 16.01 C 66.33 24.25 63.69 32.37 61.32 40.56 C 58.57 47.72 60.11 55.49 59.76 62.96 C 55.96 63.02 52.15 63.04 48.35 62.92 C 48.35 57.32 48.59 51.71 48.27 46.12 C 45.83 36.59 42.80 27.20 40.24 17.70 C 37.71 25.48 35.51 33.37 33.12 41.20 C 30.59 48.18 32.15 55.73 31.75 62.98 C 27.95 63.01 24.15 63.04 20.35 62.92 C 20.35 57.32 20.60 51.70 20.27 46.11 C 17.61 36.02 14.56 26.03 11.68 15.99 Z" />
<path fill="#f00101" opacity="1.00" d=" M 68.79 16.00 C 72.43 16.00 76.08 16.00 79.72 16.00 C 80.78 22.32 81.66 28.66 82.93 34.94 C 84.63 28.73 85.48 22.32 86.65 16.00 C 93.68 16.00 100.70 15.99 107.72 16.01 C 108.77 22.33 109.67 28.68 110.94 34.96 C 112.61 28.74 113.49 22.33 114.65 16.00 C 118.31 16.00 121.96 16.00 125.61 16.00 C 122.81 26.02 119.50 35.90 116.84 45.95 C 116.56 51.62 116.82 57.31 116.74 62.99 C 112.94 63.01 109.15 63.04 105.35 62.93 C 105.34 57.32 105.60 51.70 105.27 46.11 C 102.83 36.62 99.84 27.27 97.26 17.81 C 94.64 25.49 92.55 33.36 90.15 41.11 C 87.59 48.12 89.15 55.70 88.75 62.98 C 84.95 63.01 81.15 63.04 77.35 62.93 C 77.35 57.33 77.59 51.72 77.27 46.13 C 74.68 36.03 71.44 26.09 68.79 16.00 Z" />
<path fill="#f00101" opacity="1.00" d=" M 128.53 16.00 C 135.36 16.00 142.18 16.00 149.00 16.00 C 149.00 19.33 149.00 22.67 149.00 26.00 C 146.24 26.00 143.49 26.00 140.73 26.00 C 140.73 29.00 140.73 32.00 140.73 35.00 C 143.31 35.00 145.89 35.00 148.47 35.00 C 148.47 38.00 148.47 41.00 148.46 44.00 C 145.89 44.00 143.31 44.00 140.73 44.00 C 140.73 47.00 140.73 50.00 140.73 53.00 C 143.78 53.00 146.83 53.00 149.88 53.02 C 149.86 56.34 149.86 59.67 149.87 62.99 C 142.76 63.01 135.65 63.00 128.53 63.00 C 128.53 47.33 128.53 31.67 128.53 16.00 Z" />
<path fill="#f00101" opacity="1.00" d=" M 153.53 16.00 C 160.35 16.00 167.18 16.00 174.00 16.00 C 174.00 19.33 174.00 22.67 174.00 26.00 C 171.24 26.00 168.49 26.00 165.73 26.00 C 165.73 29.00 165.73 32.00 165.73 35.00 C 168.31 35.00 170.89 35.00 173.47 35.00 C 173.47 38.00 173.47 41.00 173.47 44.00 C 170.89 44.00 168.31 44.00 165.73 44.00 C 165.73 47.00 165.73 50.00 165.73 53.00 C 168.78 53.00 171.83 53.00 174.87 53.01 C 174.86 56.34 174.86 59.67 174.87 62.99 C 167.76 63.01 160.65 63.00 153.53 63.00 C 153.53 47.33 153.53 31.67 153.53 16.00 Z" />
<path fill="#f00101" opacity="1.00" d=" M 177.54 16.00 C 184.36 16.00 191.18 16.00 198.00 16.00 C 198.00 19.33 198.00 22.67 198.00 26.00 C 195.24 26.00 192.49 26.00 189.73 26.00 C 189.73 29.00 189.73 32.00 189.73 35.00 C 192.31 35.00 194.89 35.00 197.47 35.00 C 197.47 38.00 197.47 41.00 197.47 44.00 C 194.89 44.00 192.31 44.00 189.73 44.00 C 189.73 47.00 189.73 50.00 189.73 53.00 C 192.78 53.00 195.82 53.00 198.87 53.01 C 198.86 56.34 198.86 59.66 198.87 62.99 C 191.76 63.01 184.65 63.00 177.53 63.00 C 177.53 47.33 177.53 31.67 177.54 16.00 Z" />
<path fill="#f00101" opacity="1.00" d=" M 202.54 16.00 C 209.36 16.00 216.18 16.00 223.00 16.00 C 223.00 19.33 223.00 22.67 223.00 26.00 C 220.24 26.00 217.49 26.00 214.73 26.00 C 214.73 29.00 214.73 32.00 214.73 35.00 C 217.31 35.00 219.89 35.00 222.47 35.00 C 222.47 38.00 222.47 41.00 222.47 44.00 C 219.89 44.00 217.31 44.00 214.73 44.00 C 214.73 47.00 214.73 50.00 214.73 53.00 C 217.78 53.00 220.83 53.00 223.87 53.01 C 223.86 56.34 223.86 59.67 223.87 62.99 C 216.76 63.01 209.65 63.00 202.53 63.00 C 202.53 47.33 202.53 31.67 202.54 16.00 Z" />
<path fill="#f00101" opacity="1.00" d=" M 227.53 16.00 C 234.36 16.00 241.18 16.00 248.00 16.00 C 248.00 19.33 248.00 22.67 248.00 26.00 C 245.24 26.00 242.49 26.00 239.73 26.00 C 239.73 29.00 239.73 32.00 239.73 35.00 C 242.31 35.00 244.89 35.00 247.47 35.00 C 247.47 38.00 247.47 41.00 247.47 44.00 C 244.89 44.00 242.31 44.00 239.73 44.00 C 239.73 47.00 239.73 50.00 239.73 53.00 C 242.78 53.00 245.83 53.00 248.88 53.01 C 248.87 56.08 248.80 59.16 248.89 62.23 C 249.63 61.89 250.04 61.32 250.11 60.50 C 252.03 45.66 254.23 30.85 256.19 16.01 C 261.93 15.98 267.67 16.03 273.40 15.97 C 275.98 31.44 278.06 47.00 280.74 62.44 C 282.96 46.98 285.09 31.50 287.19 16.01 C 292.92 15.97 298.66 16.04 304.40 15.97 C 306.82 30.37 308.72 44.86 311.26 59.24 C 313.17 44.83 315.28 30.43 317.19 16.01 C 322.90 16.24 328.92 15.51 334.44 16.35 C 337.06 31.65 339.03 47.06 341.74 62.34 C 343.99 46.92 346.09 31.47 348.18 16.02 C 353.96 16.02 359.74 15.90 365.52 16.09 C 367.77 30.43 369.62 44.86 372.36 59.11 C 374.08 44.72 376.34 30.39 378.19 16.01 C 383.96 16.02 389.74 15.91 395.52 16.09 C 397.87 31.48 400.08 46.92 402.73 62.27 C 405.03 46.87 407.07 31.43 409.19 16.01 C 414.97 16.03 420.74 15.91 426.52 16.09 C 428.71 30.49 430.77 44.92 433.28 59.26 C 435.14 44.83 437.30 30.44 439.19 16.01 C 444.97 16.04 450.76 15.89 456.54 16.11 C 458.84 31.52 461.13 46.94 463.71 62.30 C 466.04 46.90 468.07 31.45 470.19 16.02 C 475.95 16.01 481.72 15.95 487.49 16.06 C 489.82 31.71 492.35 47.34 494.68 62.99 C 490.61 63.00 486.53 63.05 482.46 62.92 C 482.42 60.27 482.39 57.63 482.34 54.99 C 480.35 55.00 478.37 55.02 476.38 55.05 C 476.35 57.70 476.28 60.35 476.25 63.00 C 468.02 63.01 459.80 62.95 451.58 63.03 C 451.41 60.35 451.37 57.67 451.34 54.99 C 449.35 55.00 447.38 55.01 445.40 55.03 C 445.35 57.69 445.28 60.34 445.24 63.00 C 437.44 62.94 429.64 63.12 421.84 62.93 C 420.90 60.53 421.60 57.59 421.35 54.99 C 419.36 55.00 417.38 55.01 415.40 55.03 C 415.35 57.69 415.28 60.34 415.24 63.00 C 407.12 62.92 398.98 63.11 390.86 62.92 C 389.88 60.57 390.62 57.56 390.35 54.97 C 388.35 54.99 386.35 55.03 384.35 55.10 C 384.35 57.73 384.28 60.36 384.25 63.00 C 376.31 62.93 368.37 63.14 360.44 62.88 C 360.42 60.25 360.40 57.62 360.34 54.99 C 358.36 55.00 356.38 55.01 354.40 55.04 C 354.36 57.69 354.28 60.34 354.24 63.00 C 346.02 63.01 337.80 62.94 329.58 63.04 C 329.41 60.36 329.37 57.67 329.34 54.99 C 327.35 55.00 325.37 55.02 323.38 55.06 C 323.36 57.70 323.28 60.35 323.25 63.00 C 315.31 62.93 307.37 63.15 299.44 62.88 C 299.42 60.25 299.40 57.62 299.35 54.99 C 297.36 55.00 295.38 55.01 293.40 55.03 C 293.36 57.68 293.28 60.34 293.24 63.00 C 284.98 62.94 276.72 63.09 268.46 62.91 C 268.42 60.27 268.40 57.63 268.34 54.98 C 266.35 55.00 264.37 55.02 262.38 55.06 C 262.36 57.71 262.28 60.35 262.25 63.00 C 250.67 62.91 239.11 63.03 227.53 63.00 C 227.53 47.33 227.53 31.67 227.53 16.00 M 262.48 47.00 C 264.21 47.00 265.94 47.00 267.67 46.99 C 266.88 39.92 265.98 32.85 265.41 25.75 C 264.10 32.79 263.33 39.90 262.48 47.00 M 293.48 47.00 C 295.21 47.00 296.93 47.00 298.67 47.00 C 297.90 39.95 296.96 32.93 296.46 25.86 C 295.03 32.83 294.36 39.94 293.48 47.00 M 323.48 47.00 C 325.20 47.00 326.93 47.00 328.66 47.00 C 327.91 39.91 326.93 32.85 326.46 25.73 C 325.06 32.76 324.35 39.90 323.48 47.00 M 354.48 47.00 C 356.21 47.00 357.94 47.00 359.67 46.99 C 358.88 39.92 357.97 32.87 357.43 25.78 C 356.08 32.80 355.34 39.91 354.48 47.00 M 384.48 47.00 C 386.21 47.00 387.94 47.00 389.67 46.99 C 388.89 39.92 387.95 32.85 387.44 25.75 C 386.07 32.77 385.34 39.91 384.48 47.00 M 415.48 47.00 C 417.21 47.00 418.94 47.00 420.67 46.99 C 419.87 39.96 419.01 32.93 418.41 25.87 C 417.07 32.86 416.34 39.95 415.48 47.00 M 445.48 47.00 C 447.21 47.00 448.94 47.00 450.67 46.99 C 449.90 39.92 448.94 32.86 448.46 25.76 C 447.05 32.77 446.35 39.91 445.48 47.00 M 479.41 25.79 C 478.10 32.81 477.33 39.92 476.48 47.00 C 478.21 47.00 479.93 47.00 481.67 47.00 C 480.88 39.93 480.00 32.88 479.41 25.79 Z" />
<path fill="#f00101" opacity="1.00" d=" M 34.13 483.27 C 39.30 482.49 45.24 483.04 49.29 486.68 C 52.07 489.74 51.31 494.20 51.62 498.00 C 47.80 498.00 43.98 498.00 40.16 498.00 C 39.92 495.68 40.77 492.85 39.10 490.94 C 35.06 490.50 35.35 496.49 37.21 498.70 C 41.65 502.62 47.90 504.66 51.07 509.94 C 52.94 514.30 52.87 519.27 52.23 523.89 C 51.74 528.10 47.63 530.53 43.88 531.44 C 38.46 532.75 32.11 532.07 27.84 528.23 C 24.11 524.53 24.99 518.78 24.70 514.00 C 28.56 513.99 32.41 514.00 36.27 514.00 C 36.31 516.88 36.06 519.79 36.51 522.66 C 36.92 525.02 40.64 524.12 40.72 521.98 C 40.98 519.69 41.06 517.16 39.91 515.10 C 35.96 510.94 30.02 509.09 26.52 504.46 C 23.81 500.25 24.11 494.84 25.09 490.14 C 26.11 486.07 30.26 483.86 34.13 483.27 Z" />
<path fill="#f00101" opacity="1.00" d=" M 56.28 489.54 C 57.66 485.48 62.07 483.60 66.03 483.13 C 70.95 482.60 76.51 483.23 80.32 486.70 C 83.07 489.78 82.31 494.21 82.62 498.00 C 78.80 498.00 74.98 498.00 71.15 497.99 C 70.91 495.68 71.81 492.80 70.07 490.94 C 66.05 490.55 66.35 496.51 68.22 498.71 C 72.67 502.63 78.93 504.67 82.09 509.97 C 83.94 514.34 83.87 519.32 83.22 523.96 C 82.70 528.13 78.59 530.53 74.86 531.44 C 69.43 532.76 63.04 532.07 58.78 528.18 C 55.12 524.47 55.99 518.76 55.70 514.01 C 59.56 513.99 63.41 514.00 67.27 514.00 C 67.31 516.84 67.07 519.72 67.49 522.55 C 67.64 524.68 70.98 524.42 71.51 522.62 C 72.15 520.18 72.08 517.35 70.91 515.08 C 66.40 510.24 58.58 508.48 56.19 501.78 C 55.08 497.82 55.15 493.48 56.28 489.54 Z" />
<path fill="#f00101" opacity="1.00" d=" M 88.60 489.49 C 91.14 484.74 96.84 482.83 101.95 482.96 C 106.79 483.04 112.26 484.69 114.74 489.20 C 116.63 493.87 116.21 499.05 116.27 504.00 C 112.18 504.00 108.09 504.00 104.00 504.00 C 103.75 499.60 104.72 494.97 103.10 490.76 C 101.40 490.87 99.37 491.22 99.50 493.38 C 99.34 502.78 99.33 512.20 99.50 521.59 C 99.12 523.80 102.13 524.94 103.41 523.25 C 104.44 519.27 103.86 515.07 104.00 511.00 C 108.09 511.00 112.19 510.99 116.29 511.00 C 116.14 515.61 116.49 520.43 114.84 524.81 C 111.57 531.53 102.88 533.28 96.21 531.32 C 92.09 530.49 88.37 527.23 87.79 522.95 C 86.62 516.04 87.33 508.99 87.13 502.02 C 87.28 497.84 86.70 493.36 88.60 489.49 Z" />
<path fill="#f00101" opacity="1.00" d=" M 121.60 489.50 C 124.13 484.75 129.83 482.82 134.94 482.96 C 139.77 483.05 145.21 484.67 147.72 489.15 C 149.64 493.83 149.21 499.04 149.27 504.00 C 145.18 504.00 141.09 504.00 137.00 504.00 C 136.74 499.59 137.74 494.96 136.07 490.76 C 134.42 490.92 132.39 491.20 132.51 493.32 C 132.33 502.75 132.32 512.21 132.51 521.64 C 132.00 524.08 136.00 525.07 136.59 522.73 C 137.30 518.86 136.92 514.90 137.00 511.00 C 141.09 511.00 145.19 510.99 149.29 511.00 C 149.15 515.60 149.49 520.41 147.85 524.79 C 144.58 531.54 135.85 533.29 129.17 531.31 C 125.05 530.47 121.35 527.19 120.79 522.91 C 119.62 515.99 120.33 508.93 120.13 501.96 C 120.28 497.80 119.70 493.35 121.60 489.50 Z" />
<path fill="#f00101" opacity="1.00" d=" M 396.62 489.46 C 399.18 484.71 404.89 482.81 410.00 482.96 C 414.84 483.06 420.29 484.71 422.76 489.22 C 424.62 493.89 424.21 499.06 424.27 504.00 C 420.17 504.00 416.08 504.00 412.00 504.00 C 411.89 500.03 412.32 496.01 411.66 492.08 C 411.19 490.40 409.27 491.26 408.04 491.09 C 406.70 497.30 407.71 503.73 407.40 510.04 C 407.51 514.14 407.12 518.26 407.62 522.34 C 407.61 524.44 411.31 524.71 411.60 522.68 C 412.29 518.83 411.91 514.89 412.00 511.00 C 416.09 511.00 420.19 510.99 424.29 511.00 C 424.14 515.60 424.49 520.42 422.84 524.80 C 419.56 531.55 410.83 533.29 404.16 531.30 C 400.05 530.46 396.36 527.20 395.79 522.94 C 394.62 516.03 395.33 508.98 395.13 502.01 C 395.28 497.82 394.69 493.33 396.62 489.46 Z" />
<path fill="#f00101" opacity="1.00" d=" M 430.26 488.44 C 433.28 484.08 439.00 482.66 444.04 483.00 C 448.55 483.31 453.50 485.03 455.76 489.24 C 457.62 493.91 457.21 499.07 457.27 504.00 C 453.18 504.00 449.09 504.00 445.00 504.00 C 444.77 499.59 445.68 494.99 444.11 490.77 C 442.40 490.91 440.36 491.20 440.50 493.39 C 440.33 502.80 440.32 512.23 440.51 521.64 C 440.00 524.06 443.93 525.04 444.58 522.76 C 445.30 518.89 444.91 514.92 445.00 511.00 C 449.09 511.00 453.19 510.99 457.29 511.00 C 457.14 515.62 457.50 520.47 455.82 524.86 C 452.49 531.59 443.75 533.29 437.07 531.28 C 432.98 530.42 429.33 527.14 428.78 522.88 C 427.60 515.65 428.34 508.28 428.12 501.00 C 428.29 496.78 427.66 492.07 430.26 488.44 Z" />
<path fill="#f00101" opacity="1.00" d=" M 154.53 484.00 C 158.61 484.00 162.68 483.98 166.75 484.02 C 166.73 499.67 166.71 515.32 166.76 530.96 C 162.68 531.02 158.61 531.00 154.53 531.00 C 154.53 515.33 154.53 499.67 154.53 484.00 Z" />
<path fill="#f00101" opacity="1.00" d=" M 171.53 484.00 C 175.60 484.00 179.68 483.99 183.75 484.02 C 183.72 499.67 183.72 515.32 183.75 530.98 C 179.68 531.01 175.60 531.00 171.53 531.00 C 171.53 515.33 171.53 499.67 171.53 484.00 Z" />
<path fill="#f00101" opacity="1.00" d=" M 188.53 484.00 C 192.61 484.00 196.68 483.98 200.75 484.03 C 200.71 499.68 200.72 515.33 200.75 530.98 C 196.68 531.01 192.60 531.00 188.53 531.00 C 188.53 515.33 188.53 499.67 188.53 484.00 Z" />
<path fill="#f00101" opacity="1.00" d=" M 205.53 484.00 C 209.60 484.00 213.68 483.98 217.75 484.02 C 217.72 499.67 217.71 515.32 217.76 530.97 C 213.68 531.01 209.61 531.00 205.53 531.00 C 205.53 515.33 205.53 499.67 205.53 484.00 Z" />
<path fill="#f00101" opacity="1.00" d=" M 223.53 484.00 C 230.35 484.00 237.18 484.00 244.00 484.00 C 244.00 487.33 244.00 490.66 244.00 494.00 C 241.24 494.00 238.49 494.00 235.73 494.00 C 235.73 497.00 235.73 499.99 235.73 503.00 C 238.31 503.00 240.89 503.00 243.47 503.00 C 243.47 506.00 243.47 509.00 243.47 512.00 C 240.89 511.99 238.31 512.00 235.73 512.00 C 235.73 515.00 235.73 518.00 235.73 521.00 C 238.78 520.99 241.82 521.00 244.87 521.01 C 244.86 524.33 244.86 527.66 244.87 530.99 C 237.76 531.01 230.65 530.99 223.53 531.00 C 223.53 515.33 223.53 499.67 223.53 484.00 Z" />
<path fill="#f00101" opacity="1.00" d=" M 248.54 484.00 C 255.36 484.00 262.18 484.00 269.00 484.00 C 269.00 487.33 269.00 490.66 269.00 494.00 C 266.24 494.00 263.49 494.00 260.73 494.00 C 260.73 497.00 260.73 500.00 260.73 503.00 C 263.31 503.00 265.89 503.00 268.47 503.00 C 268.47 506.00 268.47 509.00 268.47 512.00 C 265.89 511.99 263.31 512.00 260.73 512.00 C 260.73 515.00 260.73 517.99 260.73 521.00 C 263.78 520.99 266.82 521.00 269.87 521.01 C 269.86 524.33 269.86 527.66 269.87 530.99 C 262.76 531.01 255.65 530.99 248.53 531.00 C 248.53 515.33 248.53 499.67 248.54 484.00 Z" />
<path fill="#f00101" opacity="1.00" d=" M 273.54 484.00 C 280.36 484.00 287.18 484.00 294.00 484.00 C 294.00 487.33 294.00 490.66 294.00 494.00 C 291.24 494.00 288.49 494.00 285.73 494.00 C 285.73 497.00 285.73 500.00 285.73 503.00 C 288.31 503.00 290.89 503.00 293.47 503.00 C 293.47 506.00 293.47 509.00 293.47 512.00 C 290.89 511.99 288.31 512.00 285.73 512.00 C 285.73 515.00 285.73 518.00 285.73 521.00 C 288.78 520.99 291.82 521.00 294.87 521.01 C 294.86 524.33 294.86 527.66 294.87 530.99 C 287.76 531.01 280.65 531.00 273.53 531.00 C 273.53 515.33 273.53 499.67 273.54 484.00 Z" />
<path fill="#f00101" opacity="1.00" d=" M 297.53 484.00 C 300.94 483.99 304.34 483.98 307.75 484.03 C 310.01 490.84 312.04 497.74 314.60 504.45 C 314.62 497.63 314.58 490.82 314.60 484.00 C 318.06 484.00 321.53 484.00 325.00 484.00 C 325.00 499.67 325.00 515.33 325.00 531.00 C 321.40 531.00 317.81 531.00 314.22 531.00 C 312.06 523.94 310.10 516.82 307.70 509.84 C 307.75 516.89 307.73 523.95 307.73 531.00 C 304.33 531.00 300.93 531.00 297.53 531.00 C 297.53 515.33 297.53 499.67 297.53 484.00 Z" />
<path fill="#f00101" opacity="1.00" d=" M 330.53 484.00 C 333.94 483.99 337.34 483.98 340.75 484.03 C 343.01 490.92 345.15 497.86 347.62 504.68 C 347.59 497.79 347.59 490.89 347.60 484.00 C 351.06 484.00 354.53 484.00 358.00 484.00 C 358.00 499.67 358.00 515.33 358.00 531.00 C 354.40 531.00 350.81 531.00 347.22 531.00 C 345.06 523.95 343.09 516.83 340.72 509.85 C 340.74 516.90 340.74 523.95 340.73 531.00 C 337.33 531.00 333.93 531.00 330.53 531.00 C 330.53 515.33 330.53 499.67 330.53 484.00 Z" />
<path fill="#f00101" opacity="1.00" d=" M 362.53 484.00 C 365.93 483.99 369.33 483.99 372.74 484.02 C 374.95 490.78 377.09 497.57 379.45 504.28 C 379.79 497.53 379.50 490.76 379.60 484.00 C 383.06 484.00 386.53 484.00 390.00 484.00 C 390.00 499.67 390.00 515.33 390.00 531.00 C 386.40 531.00 382.81 531.00 379.22 531.00 C 377.04 523.96 375.14 516.82 372.68 509.88 C 372.78 516.92 372.72 523.96 372.73 531.00 C 369.33 531.00 365.93 531.00 362.53 531.00 C 362.53 515.33 362.53 499.67 362.53 484.00 Z" />
<path fill="#f00101" opacity="1.00" d=" M 461.53 484.00 C 468.35 484.00 475.17 484.00 482.00 484.00 C 482.00 487.33 482.00 490.66 482.00 494.00 C 479.24 494.00 476.48 494.00 473.73 494.00 C 473.73 497.00 473.73 500.00 473.73 503.00 C 476.31 503.00 478.88 503.00 481.47 503.00 C 481.47 506.00 481.47 509.00 481.47 512.00 C 478.88 511.99 476.31 512.00 473.73 512.00 C 473.73 515.00 473.73 518.00 473.73 521.00 C 476.78 520.99 479.82 521.00 482.87 521.01 C 482.86 524.33 482.86 527.66 482.87 530.99 C 475.76 531.00 468.64 531.00 461.53 531.00 C 461.53 515.33 461.53 499.67 461.53 484.00 Z" />
</g>
<g id="#000000ff">
<path fill="#000000" opacity="1.00" d=" M 265.94 86.35 C 269.45 83.08 274.33 79.50 279.36 81.23 C 281.56 82.12 283.76 81.01 285.93 80.63 C 292.57 79.78 299.45 81.50 305.98 79.79 C 309.28 80.68 312.63 80.72 315.95 79.84 C 318.86 78.93 321.14 81.27 322.98 83.14 C 327.03 83.40 331.09 83.42 335.16 83.42 C 336.77 84.35 338.14 85.63 339.80 86.49 C 342.71 88.37 346.87 87.82 348.75 91.22 C 350.79 91.65 352.82 92.17 354.83 92.76 C 355.15 93.15 355.80 93.95 356.12 94.35 C 360.01 94.37 363.38 96.90 364.55 100.59 C 366.44 101.03 368.34 101.38 370.27 101.66 C 371.47 103.09 372.56 104.63 373.58 106.20 C 377.82 107.10 380.01 110.92 380.78 114.88 C 382.31 116.11 384.32 117.00 385.22 118.85 C 385.59 120.51 385.62 122.22 385.80 123.91 C 390.30 124.51 390.68 129.37 389.79 132.95 C 391.51 134.47 393.71 135.81 394.37 138.16 C 395.16 141.30 397.37 143.83 398.16 146.95 C 397.81 149.63 397.46 152.34 398.03 155.02 C 397.51 157.85 397.17 160.72 397.43 163.60 C 399.77 167.84 404.59 170.79 404.70 176.01 C 405.57 176.98 406.48 177.92 407.20 179.01 C 407.62 185.40 408.33 191.79 409.61 198.08 C 410.77 206.07 407.16 213.91 402.61 220.25 C 400.21 224.06 397.59 227.72 396.02 231.98 C 394.57 236.24 390.21 238.21 388.00 241.95 C 385.97 244.39 386.95 248.36 384.11 250.25 C 383.03 250.45 381.95 250.60 380.87 250.69 C 379.28 261.83 375.85 272.67 371.65 283.08 C 366.91 291.39 364.89 300.88 360.58 309.40 C 359.03 312.60 356.61 315.41 355.93 318.99 C 354.03 325.81 351.19 332.30 347.71 338.45 C 342.98 349.62 333.97 358.33 324.07 365.02 C 321.11 366.34 318.49 368.29 317.00 371.25 C 315.12 371.96 313.25 372.67 311.37 373.36 C 318.79 372.62 324.23 378.33 329.31 382.82 C 337.36 389.42 346.66 394.23 355.95 398.83 C 359.09 400.38 360.79 403.58 362.68 406.36 C 370.44 405.73 377.97 407.80 385.19 410.41 C 396.93 414.08 407.46 420.65 418.96 424.91 C 425.86 427.84 433.27 429.16 440.43 431.26 C 447.23 433.21 453.05 437.47 459.76 439.66 C 459.56 440.53 459.36 441.40 459.17 442.28 C 454.22 442.33 450.16 439.23 445.84 437.30 C 437.69 433.28 428.43 432.65 420.08 429.22 C 409.02 425.43 398.99 419.27 388.05 415.18 C 379.80 412.16 371.24 409.23 362.33 409.59 C 360.89 413.38 359.69 417.28 359.35 421.33 C 354.23 423.86 348.81 426.41 342.94 425.88 C 347.24 428.55 351.44 431.41 355.37 434.60 C 356.72 436.11 359.24 437.66 358.40 440.03 C 356.61 444.06 353.99 447.80 350.51 450.55 C 346.20 453.75 340.85 454.94 336.06 457.17 C 323.38 463.74 310.99 470.84 298.48 477.69 C 295.49 479.63 291.87 479.21 288.54 478.68 C 297.82 474.05 306.81 468.90 315.82 463.79 C 324.68 459.35 333.00 453.75 342.45 450.62 C 348.02 448.78 352.32 444.42 354.72 439.15 C 349.99 434.13 343.72 431.06 338.49 426.67 C 336.54 424.85 333.70 425.51 331.31 425.18 C 331.69 424.09 332.09 423.01 332.49 421.95 C 326.32 419.37 321.15 415.04 315.20 412.05 C 313.70 411.19 311.56 410.39 312.01 408.11 C 318.61 408.80 323.54 413.60 329.26 416.44 C 332.34 417.88 335.17 419.79 338.16 421.40 C 344.16 423.98 350.80 421.77 356.17 418.71 C 356.46 415.59 357.35 412.57 358.54 409.69 C 357.41 409.53 356.28 409.39 355.16 409.25 C 355.17 407.35 356.39 406.09 357.78 405.00 C 356.48 403.73 355.21 402.40 353.56 401.60 C 345.22 397.51 336.98 393.10 329.57 387.47 C 325.17 384.29 321.70 379.81 316.69 377.51 C 313.79 376.49 310.64 376.58 307.61 376.47 C 307.56 376.92 307.47 377.81 307.42 378.26 C 299.40 383.03 293.22 390.36 285.02 394.86 C 279.21 398.16 273.18 401.52 268.92 406.81 C 260.13 417.94 249.56 428.69 246.10 442.88 C 242.97 452.42 237.66 461.01 232.92 469.80 C 231.24 472.79 229.55 475.85 227.13 478.32 C 226.05 479.48 224.32 478.97 222.93 479.12 C 210.87 479.13 198.80 479.21 186.73 479.14 C 183.21 463.22 183.39 446.75 179.37 430.95 C 178.04 424.62 177.65 418.06 175.23 412.01 C 171.50 402.33 169.74 392.07 167.11 382.07 C 165.65 376.62 161.93 372.24 159.49 367.25 C 157.41 363.05 155.40 358.82 153.03 354.78 C 151.66 352.50 150.50 350.08 150.15 347.42 C 145.96 351.29 140.69 353.61 135.43 355.62 C 126.24 359.54 118.92 366.63 110.10 371.22 C 104.83 374.58 98.60 376.08 93.52 379.75 C 89.94 382.19 86.64 385.17 82.54 386.75 C 79.91 387.76 77.40 389.15 75.75 391.53 C 82.10 391.56 88.13 388.43 94.52 389.54 C 94.51 390.74 94.50 391.95 94.48 393.17 C 90.63 395.23 86.58 396.87 82.66 398.79 C 76.69 401.53 73.89 407.87 69.22 412.14 C 67.84 412.99 67.98 414.87 69.25 415.77 C 72.17 418.49 74.58 421.67 76.87 424.93 C 79.91 429.27 84.50 432.10 88.08 435.92 C 91.73 439.64 94.47 444.10 97.80 448.08 C 101.86 453.05 106.62 457.38 110.83 462.23 C 115.86 467.96 120.96 473.66 126.67 478.73 C 124.75 478.75 122.35 479.92 120.88 478.17 C 113.59 471.43 107.59 463.45 100.47 456.53 C 93.21 449.35 88.43 439.96 80.27 433.64 C 74.71 429.43 71.75 422.91 66.68 418.24 C 64.86 416.69 63.30 414.04 64.76 411.73 C 67.36 408.67 70.28 405.88 72.65 402.62 C 75.49 398.61 79.60 395.66 84.35 394.34 C 80.33 394.49 76.08 396.64 72.33 394.27 C 72.46 391.85 72.53 389.16 74.42 387.37 C 78.08 383.79 83.62 383.19 87.33 379.63 C 84.51 379.72 81.75 380.63 78.92 380.38 C 72.60 379.40 66.37 377.84 60.00 377.25 C 52.43 377.09 45.17 379.63 37.82 381.08 C 25.46 384.62 12.99 388.63 0.00 388.80 L 0.00 385.70 C 16.88 384.50 32.67 378.02 49.19 374.91 C 53.64 373.97 58.22 372.91 62.78 373.79 C 67.49 374.77 72.24 375.54 76.97 376.42 C 82.32 377.61 87.53 374.69 92.91 375.67 C 97.83 372.78 103.36 371.10 108.24 368.13 C 117.13 363.48 124.55 356.39 133.80 352.40 C 139.41 350.21 145.25 347.87 149.52 343.47 C 152.20 339.07 153.76 334.05 156.68 329.76 C 157.64 329.28 158.60 328.80 159.54 328.29 C 158.93 322.09 159.10 315.60 161.69 309.82 C 165.74 302.07 165.16 293.20 167.07 284.90 C 167.90 281.94 165.22 279.64 164.62 276.89 C 163.47 272.18 159.39 267.97 161.01 262.87 C 159.88 260.65 159.19 258.26 160.35 255.91 C 157.14 255.51 154.10 253.34 153.58 249.99 C 153.01 246.03 152.47 242.01 152.74 238.00 C 153.41 233.95 154.88 230.08 155.59 226.04 C 156.99 218.67 160.78 211.75 166.66 207.02 C 165.10 200.82 166.14 194.46 168.23 188.52 C 169.86 184.19 168.86 179.50 169.79 175.05 C 170.36 172.59 171.75 170.44 172.55 168.06 C 173.26 164.57 172.83 160.79 174.49 157.54 C 176.28 153.85 178.58 150.23 182.14 148.01 C 183.34 144.10 184.08 139.82 186.65 136.53 C 188.99 134.57 190.93 132.24 193.01 130.01 C 197.08 126.79 200.01 122.14 205.02 120.20 C 206.45 116.05 209.93 113.05 214.25 112.23 C 216.31 109.93 218.60 107.77 221.48 106.56 C 225.79 104.82 229.22 101.58 232.42 98.30 C 234.70 96.06 238.12 96.54 241.03 96.75 C 243.63 94.74 246.75 93.70 249.73 92.39 C 253.41 89.90 257.11 87.41 260.97 85.21 C 262.69 85.21 264.31 85.88 265.94 86.35 M 271.81 104.03 C 271.72 105.06 271.63 106.08 271.55 107.11 C 267.78 109.01 263.69 110.03 259.61 111.02 C 259.56 112.49 259.53 113.96 259.46 115.43 C 257.51 115.47 255.57 115.49 253.62 115.50 C 253.65 118.51 250.46 117.83 248.49 117.74 C 248.16 118.68 247.84 119.63 247.52 120.57 C 243.24 121.20 240.21 124.34 238.35 128.07 C 239.60 129.25 239.95 130.76 239.57 132.41 C 238.09 132.55 236.60 132.69 235.12 132.83 C 234.99 136.05 239.70 135.73 239.66 138.86 C 240.34 142.74 237.92 147.01 233.91 147.76 C 233.43 149.76 232.83 151.73 232.20 153.69 C 231.33 153.62 229.58 153.48 228.71 153.41 C 228.50 150.90 228.87 148.23 227.73 145.90 C 227.36 149.23 227.51 152.60 228.44 155.84 C 225.46 156.71 224.15 153.96 224.23 151.46 C 223.74 151.51 222.75 151.61 222.26 151.66 C 222.78 153.30 223.30 154.93 223.53 156.65 C 221.10 157.28 219.80 155.46 219.08 153.47 C 216.84 153.96 214.95 156.40 217.73 157.86 C 216.83 160.56 215.83 163.23 215.23 166.03 C 212.37 166.07 212.43 169.02 211.71 171.06 C 211.18 174.39 208.18 176.51 207.53 179.80 C 206.48 183.62 202.53 185.20 200.25 188.12 C 200.69 188.20 201.56 188.35 202.00 188.43 C 201.30 191.26 200.20 194.07 200.40 197.04 C 200.27 201.27 202.90 205.08 202.39 209.35 C 201.57 209.31 200.74 209.28 199.93 209.25 C 199.18 204.80 197.18 200.62 197.21 196.05 C 195.94 199.98 193.83 205.03 188.83 204.73 C 188.50 204.32 187.86 203.50 187.53 203.09 C 187.52 203.60 187.48 204.62 187.47 205.13 C 184.02 207.62 179.09 207.42 174.96 207.89 C 167.76 208.22 163.57 215.15 160.82 220.99 C 160.51 221.99 160.19 222.98 159.86 223.97 C 159.55 225.29 159.25 226.62 158.91 227.94 C 158.44 230.99 157.40 233.91 156.68 236.91 C 156.24 240.62 156.70 244.36 156.72 248.09 C 157.41 250.15 158.59 252.10 160.96 252.31 C 165.95 250.39 171.31 250.27 176.58 250.53 C 176.74 255.46 175.93 260.32 175.35 265.19 C 174.98 270.37 171.60 274.82 171.46 280.04 C 171.27 284.43 169.67 288.63 169.48 293.03 C 169.25 297.43 168.26 301.74 167.23 306.02 C 165.19 310.53 163.42 315.16 162.83 320.10 C 164.94 322.27 162.05 324.84 163.00 326.96 C 166.49 327.89 169.87 329.22 172.80 331.36 C 178.50 335.36 185.32 337.17 191.44 340.38 C 195.68 342.50 199.40 345.63 203.93 347.18 C 207.52 348.46 211.04 350.31 213.76 353.01 L 213.57 354.51 C 210.18 355.77 207.75 352.19 204.76 351.30 C 200.64 349.89 196.83 347.78 193.21 345.40 C 186.09 340.86 177.57 339.11 170.70 334.13 C 167.76 331.78 163.94 331.22 160.78 329.33 C 157.27 335.10 154.07 341.49 153.65 348.35 C 155.12 351.41 156.77 354.40 158.94 357.03 C 162.97 362.96 165.47 369.78 169.33 375.82 C 170.92 378.19 171.73 380.94 172.54 383.65 C 178.40 378.15 183.62 371.51 191.25 368.36 C 196.34 366.48 199.43 361.75 203.97 359.03 C 208.28 356.42 212.97 354.32 217.99 353.59 C 222.01 356.43 227.41 355.96 232.11 356.56 C 234.15 357.94 236.64 357.51 238.96 357.58 C 242.77 357.55 246.42 358.79 250.06 359.79 C 258.03 362.93 266.03 366.03 274.00 369.23 C 276.97 369.44 279.97 369.47 282.90 370.09 C 285.64 370.21 288.39 370.31 291.10 370.75 C 295.19 372.39 299.74 370.71 303.89 372.14 C 305.23 372.43 306.58 372.56 307.96 372.53 C 312.10 370.36 315.23 366.83 318.73 363.83 C 325.47 360.62 330.93 355.32 336.09 350.04 C 341.32 344.85 343.76 337.74 347.44 331.52 C 349.31 328.20 350.56 324.59 351.77 321.00 C 346.85 323.62 343.79 328.40 339.90 332.20 C 339.28 332.31 338.04 332.52 337.42 332.63 C 339.36 326.08 345.14 321.54 350.31 317.44 C 359.21 309.12 361.15 296.51 366.07 285.90 C 370.05 279.50 371.48 272.02 374.17 265.08 C 374.56 262.35 375.33 259.70 376.19 257.09 C 376.49 254.03 377.42 251.08 377.57 248.01 C 378.01 238.89 380.46 229.97 383.64 221.47 C 387.07 221.61 386.96 217.72 388.45 215.60 C 391.00 211.86 391.01 207.23 392.15 203.00 C 390.82 200.18 392.86 197.69 393.49 195.03 C 393.30 193.15 391.74 191.72 391.57 189.85 C 391.67 183.72 390.32 177.70 391.39 171.59 C 389.14 169.48 387.34 166.90 387.15 163.72 C 385.54 162.94 383.81 162.51 382.16 161.87 C 381.17 160.72 381.68 159.08 381.49 157.72 C 380.46 155.99 378.81 154.88 377.01 154.07 C 376.66 151.54 375.65 149.15 375.52 146.58 C 374.34 145.38 372.41 145.51 370.97 144.75 C 370.20 143.85 369.74 142.73 369.16 141.72 C 367.36 141.56 365.56 141.42 363.77 141.24 C 363.65 140.04 363.54 138.84 363.44 137.64 C 360.56 139.60 358.91 135.67 360.56 133.52 C 360.22 133.32 359.54 132.92 359.20 132.72 C 357.95 133.58 356.54 132.82 355.25 132.50 C 355.28 131.75 355.35 130.26 355.38 129.52 C 353.18 129.60 350.82 129.96 348.97 128.48 C 346.54 129.95 344.34 132.48 341.20 131.76 C 340.48 128.85 343.06 127.41 344.90 125.76 C 342.94 125.49 339.11 126.85 339.35 123.66 C 338.70 123.61 337.39 123.52 336.73 123.47 C 336.59 122.20 336.46 120.93 336.32 119.66 C 334.87 119.52 333.41 119.39 331.97 119.25 C 331.06 118.82 330.16 118.40 329.26 117.99 C 328.11 118.51 326.28 120.44 325.25 118.75 C 325.09 118.16 324.76 116.98 324.60 116.39 C 323.91 116.43 322.52 116.51 321.83 116.55 C 321.33 115.53 320.83 114.52 320.35 113.51 C 319.72 113.42 318.45 113.25 317.82 113.17 C 317.69 112.52 317.43 111.22 317.29 110.57 C 313.97 110.24 310.80 111.47 307.50 111.49 C 307.20 109.72 307.01 107.40 309.24 106.89 C 306.46 105.95 307.22 101.43 303.92 101.37 C 299.19 101.36 294.36 99.81 289.75 101.49 C 289.41 100.98 288.73 99.96 288.39 99.46 C 282.75 100.46 277.00 101.38 271.81 104.03 M 236.90 361.38 C 238.01 363.38 238.77 365.77 240.62 367.23 C 245.48 369.97 249.30 374.09 253.54 377.64 C 255.11 378.67 255.04 381.24 253.34 382.11 C 257.17 389.54 262.25 396.20 267.01 403.05 C 274.41 395.04 285.30 391.83 293.18 384.42 C 296.49 381.20 300.65 379.05 303.92 375.80 C 298.29 375.18 292.54 375.85 287.11 373.83 C 283.34 373.72 279.57 373.54 275.82 373.20 C 267.94 371.93 261.11 367.46 253.52 365.23 C 248.26 362.95 242.75 360.82 236.90 361.38 M 183.67 377.62 C 180.09 381.18 176.52 384.75 172.65 388.00 C 173.39 393.85 175.26 399.52 176.77 405.22 L 177.27 405.88 C 177.39 406.45 177.65 407.58 177.78 408.15 C 178.16 409.10 178.55 410.05 178.92 411.02 C 179.23 412.04 179.53 413.07 179.82 414.11 L 180.25 414.77 C 180.72 417.20 181.32 419.60 181.67 422.05 C 185.35 413.29 190.76 405.24 193.17 395.97 C 194.14 392.46 196.24 389.42 197.43 386.00 C 198.51 382.52 193.92 381.12 193.47 378.01 C 192.97 375.15 194.27 372.48 195.55 370.03 C 191.37 372.20 187.03 374.23 183.67 377.62 M 235.95 390.85 C 234.04 391.88 231.58 392.65 230.77 394.90 C 230.04 399.97 231.36 405.01 231.52 410.07 C 232.15 417.07 234.05 423.94 233.79 431.01 C 233.51 435.71 234.44 440.36 234.20 445.06 C 234.25 450.38 235.80 456.02 233.27 461.04 C 237.44 453.73 241.35 446.14 243.48 437.96 C 245.45 431.21 249.80 425.54 253.66 419.78 C 256.87 414.83 261.29 410.85 264.69 406.04 C 259.49 398.98 254.24 391.89 250.17 384.09 C 245.63 386.76 240.73 388.68 235.95 390.85 Z" />
<path fill="#000000" opacity="1.00" d=" M 258.74 141.42 C 268.89 141.89 279.46 139.60 289.17 143.64 C 290.44 146.07 293.10 146.92 295.46 147.90 C 297.73 149.22 299.76 150.93 302.19 151.99 C 303.07 154.98 306.31 157.06 305.45 160.50 C 303.79 160.67 301.90 160.64 301.01 158.98 C 299.08 156.23 295.45 155.96 292.90 154.05 C 290.62 152.50 288.95 149.87 286.09 149.31 C 283.15 148.69 280.28 147.82 277.47 146.76 C 270.74 145.68 263.64 146.23 257.35 143.23 C 257.81 142.63 258.27 142.02 258.74 141.42 Z" />
<path fill="#000000" opacity="1.00" d=" M 282.59 161.85 C 283.04 161.79 283.96 161.68 284.41 161.62 C 285.65 162.92 286.83 164.29 287.96 165.69 C 289.08 165.59 290.20 165.50 291.33 165.42 C 291.65 167.88 291.28 170.31 290.32 172.59 C 289.51 172.55 288.70 172.51 287.89 172.47 C 286.79 168.57 282.33 166.10 282.59 161.85 Z" />
<path fill="#000000" opacity="1.00" d=" M 242.74 167.47 C 249.27 166.92 255.64 168.76 262.10 169.36 C 268.28 169.31 274.05 171.81 280.09 172.78 C 283.01 174.71 288.92 174.25 288.89 178.80 C 287.58 178.70 286.28 178.60 284.98 178.49 C 284.57 178.95 283.74 179.87 283.33 180.32 C 278.61 181.02 273.89 182.13 269.09 181.82 C 264.71 181.81 260.70 179.86 256.57 178.65 C 254.92 178.40 254.04 177.09 253.75 175.53 C 257.64 175.20 261.27 177.14 264.94 178.19 C 268.59 178.77 272.63 180.06 275.96 177.74 C 278.05 177.67 280.14 177.64 282.23 177.43 C 277.13 174.96 271.30 174.68 265.96 172.86 C 260.92 172.61 255.89 171.95 250.96 170.88 C 248.21 170.46 245.18 171.01 242.82 169.23 C 242.80 168.79 242.76 167.91 242.74 167.47 Z" />
<path fill="#000000" opacity="1.00" d=" M 341.40 177.98 C 346.81 175.07 352.50 178.08 358.05 178.75 C 360.14 182.07 364.82 181.31 367.66 183.74 C 367.55 184.58 367.34 186.27 367.23 187.11 C 369.64 189.18 372.94 190.36 374.29 193.45 C 376.20 197.68 379.84 201.14 380.54 205.86 C 381.04 208.35 381.42 210.86 381.47 213.40 C 380.44 213.57 379.42 213.74 378.40 213.90 C 377.00 208.74 376.92 202.88 373.15 198.70 C 370.16 193.62 364.34 191.64 359.05 189.97 C 354.71 187.50 349.50 187.18 345.38 184.30 C 343.32 182.83 341.34 180.68 341.40 177.98 Z" />
<path fill="#000000" opacity="1.00" d=" M 309.23 184.16 C 311.97 183.26 314.78 184.39 317.39 185.24 C 317.78 185.99 318.17 186.74 318.56 187.50 C 315.93 188.09 313.42 186.96 310.84 186.74 C 308.69 187.35 306.74 188.63 304.45 188.64 C 304.24 185.91 307.01 184.73 309.23 184.16 Z" />
<path fill="#000000" opacity="1.00" d=" M 326.40 185.40 C 327.04 185.40 328.33 185.41 328.98 185.41 C 332.44 189.13 333.28 194.26 335.06 198.84 C 335.61 199.97 335.40 201.23 335.39 202.45 C 334.52 202.08 333.65 201.71 332.79 201.36 C 330.77 195.97 328.99 190.54 326.40 185.40 Z" />
<path fill="#000000" opacity="1.00" d=" M 283.85 192.80 C 286.79 191.13 290.14 190.17 293.54 190.24 C 293.61 190.79 293.75 191.88 293.82 192.42 C 291.29 193.21 288.67 193.77 286.24 194.85 C 283.53 196.37 282.13 199.37 281.21 202.21 C 280.77 202.23 279.90 202.27 279.47 202.29 C 278.27 198.43 281.04 195.05 283.85 192.80 Z" />
<path fill="#000000" opacity="1.00" d=" M 260.17 198.85 C 262.82 197.45 265.27 195.29 268.43 195.30 C 268.45 195.83 268.49 196.88 268.51 197.40 C 266.06 199.15 263.47 200.78 260.50 201.45 C 260.42 200.80 260.25 199.50 260.17 198.85 Z" />
<path fill="#000000" opacity="1.00" d=" M 326.23 197.32 C 329.99 196.84 329.76 201.49 330.52 203.96 C 330.87 207.89 335.80 210.08 334.56 214.35 C 334.16 214.28 333.35 214.15 332.95 214.09 C 331.19 211.40 328.82 209.02 327.81 205.92 C 327.15 203.08 326.57 200.21 326.23 197.32 Z" />
<path fill="#000000" opacity="1.00" d=" M 283.53 202.75 C 288.58 200.38 293.78 203.72 298.25 205.93 C 299.66 206.34 300.05 207.73 300.31 209.00 C 297.72 209.95 298.54 213.43 296.48 215.06 C 298.95 216.33 300.79 218.44 303.05 220.01 C 306.26 221.24 309.82 221.53 313.13 220.46 C 316.20 217.48 320.31 216.70 324.45 217.32 C 325.45 219.74 326.69 222.07 328.28 224.17 C 327.78 224.60 326.77 225.46 326.27 225.89 C 326.66 227.34 327.07 228.77 327.48 230.22 C 327.22 230.47 326.70 230.97 326.44 231.22 C 327.42 231.65 328.40 232.07 329.39 232.50 C 332.90 235.40 334.19 239.74 335.11 243.97 C 335.43 245.27 335.59 246.65 336.38 247.79 C 336.67 249.64 336.82 251.51 336.80 253.39 C 337.18 254.29 337.57 255.19 337.97 256.09 C 339.92 257.96 341.80 260.20 341.85 263.05 C 344.62 264.40 344.41 267.53 344.33 270.15 C 343.41 273.52 340.81 277.43 336.82 276.78 C 336.41 274.50 337.09 270.89 333.57 271.25 C 333.78 270.62 334.21 269.38 334.42 268.75 C 332.42 268.55 332.63 266.60 332.36 265.11 C 330.45 265.91 328.79 267.16 327.23 268.49 C 325.74 268.50 324.26 268.50 322.78 268.49 C 322.47 268.13 321.86 267.40 321.55 267.04 C 321.57 266.58 321.60 265.67 321.62 265.22 C 320.73 265.56 319.85 265.94 318.99 266.36 C 317.12 266.30 315.34 265.79 313.55 265.33 L 313.69 264.36 L 312.48 264.55 C 312.45 263.94 312.39 262.72 312.35 262.11 C 315.04 262.11 317.52 263.16 320.09 263.77 C 319.43 261.61 318.25 259.67 317.26 257.66 L 316.67 257.51 C 315.69 255.86 314.74 254.19 313.94 252.44 C 312.73 253.60 311.13 253.77 309.54 253.58 C 309.54 252.94 309.54 251.66 309.53 251.02 C 311.39 249.22 310.56 247.02 308.97 245.36 C 307.67 246.41 306.10 246.77 304.46 246.70 C 304.51 245.38 304.57 244.07 304.66 242.76 C 297.03 238.48 288.99 234.72 280.52 232.46 C 280.15 233.00 279.41 234.06 279.04 234.60 C 277.92 234.18 276.91 233.58 276.02 232.79 C 274.65 232.74 273.29 232.71 271.93 232.70 C 271.00 233.93 270.07 235.15 269.08 236.34 C 267.22 236.74 267.21 234.38 266.32 233.37 C 264.50 234.96 262.28 236.38 259.75 235.65 C 259.49 235.23 258.96 234.40 258.70 233.98 C 257.84 238.16 262.23 240.99 265.80 241.56 C 267.88 241.20 269.89 240.45 271.82 239.59 C 276.80 239.32 281.78 239.81 286.69 240.57 C 288.72 243.40 292.39 243.99 295.19 245.81 C 301.45 248.53 306.42 253.45 310.37 258.91 C 310.38 259.79 310.39 260.67 310.41 261.56 L 308.59 261.69 C 303.82 258.02 299.92 253.03 294.16 250.83 C 290.55 249.18 286.67 248.18 282.67 248.32 C 283.10 250.40 285.39 250.36 286.87 251.24 C 294.81 255.26 303.79 257.79 310.48 263.87 L 310.71 266.00 C 305.51 265.13 301.68 260.85 296.79 259.01 C 292.07 257.30 287.56 255.12 283.11 252.83 C 281.46 252.40 279.82 251.92 278.19 251.45 C 278.24 250.90 278.35 249.81 278.41 249.27 C 280.04 249.31 281.68 249.36 283.33 249.43 L 282.44 248.09 C 276.78 246.01 270.70 246.49 264.88 245.16 C 260.40 245.09 258.29 240.68 254.12 239.86 C 250.74 238.46 248.66 235.32 246.29 232.71 C 245.96 232.34 245.29 231.59 244.96 231.21 C 243.82 232.39 242.64 233.62 240.89 233.74 C 240.34 233.41 239.26 232.75 238.71 232.41 C 238.01 231.30 237.35 230.18 236.68 229.06 C 236.48 227.29 236.38 225.52 236.36 223.75 C 237.85 222.24 239.33 220.60 241.49 220.14 C 241.57 219.56 241.73 218.41 241.81 217.84 C 243.19 217.14 244.57 216.43 245.90 215.63 C 248.61 215.69 251.31 215.36 254.02 215.36 C 256.13 214.31 258.81 214.84 261.06 215.25 C 262.83 213.60 264.96 215.47 266.97 215.29 C 271.02 214.98 275.38 215.92 279.13 213.88 C 280.47 212.84 282.41 213.26 283.13 214.80 C 283.21 214.27 283.36 213.22 283.44 212.70 C 284.54 211.85 285.70 211.07 286.94 210.42 C 287.80 210.94 288.67 211.45 289.56 211.95 C 289.58 211.41 289.62 210.32 289.64 209.78 C 286.50 209.09 283.00 206.22 283.53 202.75 M 297.47 218.96 C 297.78 220.70 297.91 222.47 297.39 224.20 C 296.81 224.37 295.64 224.72 295.06 224.89 C 293.87 225.91 292.68 227.08 291.08 227.35 C 288.93 227.04 287.34 225.02 285.02 225.41 C 276.59 225.33 268.05 225.04 259.71 226.49 C 258.78 227.12 257.84 227.75 256.91 228.37 C 258.31 228.43 259.71 228.49 261.11 228.55 C 261.48 229.05 262.20 230.03 262.56 230.53 C 265.03 230.39 267.50 230.33 269.98 230.19 C 276.61 228.57 283.93 229.04 290.15 232.06 C 298.33 235.99 307.60 238.85 313.63 246.05 C 315.99 248.37 316.78 251.71 318.77 254.30 C 321.47 255.03 322.89 257.76 325.49 258.65 L 325.54 259.48 L 326.46 259.44 C 327.00 260.66 327.48 262.01 328.71 262.73 C 327.55 258.67 323.84 255.83 321.73 252.20 C 319.33 248.70 316.88 245.17 313.62 242.40 C 312.25 240.93 310.03 239.92 310.00 237.64 C 310.51 237.58 311.53 237.45 312.04 237.38 C 316.48 240.40 320.39 244.39 322.91 249.17 C 324.13 251.36 326.13 252.93 327.55 254.97 C 325.93 252.12 324.18 249.34 322.19 246.73 C 320.20 244.30 320.34 240.94 318.76 238.30 C 317.46 235.86 314.12 235.27 313.22 232.52 C 312.05 232.31 311.33 231.53 310.87 230.49 C 309.24 230.38 305.45 230.52 306.40 227.93 C 306.36 225.43 309.73 226.39 311.30 226.30 C 311.41 225.82 311.64 224.86 311.75 224.38 C 306.53 224.81 300.42 223.80 297.47 218.96 Z" />
<path fill="#000000" opacity="1.00" d=" M 340.39 201.22 C 345.84 201.77 349.26 206.59 353.83 209.05 C 357.96 211.28 361.41 214.46 364.91 217.54 C 365.82 216.28 367.12 215.95 368.82 216.56 C 368.15 217.63 367.45 218.68 366.71 219.70 C 366.37 220.25 365.69 221.34 365.35 221.88 C 363.95 221.78 362.56 221.68 361.17 221.57 C 361.05 220.67 360.80 218.86 360.68 217.96 C 358.45 215.81 356.05 213.82 353.33 212.33 C 348.95 209.82 345.27 206.31 340.93 203.76 C 340.79 203.12 340.52 201.85 340.39 201.22 Z" />
<path fill="#000000" opacity="1.00" d=" M 171.79 213.96 C 175.54 211.86 179.86 211.25 184.04 210.54 C 186.44 210.24 186.92 212.75 186.75 214.57 C 180.26 215.31 171.29 215.99 169.06 223.48 C 167.69 223.60 166.02 224.05 165.60 222.25 C 165.87 218.63 168.60 215.50 171.79 213.96 Z" />
<path fill="#000000" opacity="1.00" d=" M 342.12 211.39 C 342.62 211.45 343.62 211.55 344.12 211.61 C 347.22 216.12 352.79 217.22 357.68 218.75 C 357.66 219.66 357.64 220.57 357.63 221.49 C 354.63 221.11 351.74 220.19 348.87 219.26 C 345.81 217.64 341.73 215.45 342.12 211.39 Z" />
<path fill="#000000" opacity="1.00" d=" M 197.83 212.44 C 198.79 212.38 199.74 212.32 200.71 212.27 C 200.26 214.73 198.83 216.81 197.91 219.09 C 196.14 223.11 195.72 227.70 196.64 231.99 C 197.34 234.26 198.71 236.33 198.75 238.79 C 195.36 239.33 194.92 235.39 193.78 233.11 C 191.84 225.99 194.02 218.54 197.83 212.44 Z" />
<path fill="#000000" opacity="1.00" d=" M 174.47 223.33 C 173.88 219.09 179.45 220.69 181.72 221.60 C 182.00 224.20 181.41 226.75 179.81 228.84 C 178.17 231.01 178.77 233.81 178.50 236.34 C 178.11 236.29 177.33 236.19 176.94 236.14 C 176.58 235.88 175.85 235.38 175.49 235.12 C 175.28 233.04 175.30 230.95 175.60 228.89 C 176.70 227.26 177.71 225.58 178.70 223.88 C 177.29 223.70 175.87 223.51 174.47 223.33 Z" />
<path fill="#000000" opacity="1.00" d=" M 338.79 221.62 C 339.58 221.60 340.37 221.58 341.17 221.57 C 343.07 227.61 346.12 233.43 346.75 239.78 C 345.81 239.66 344.88 239.54 343.95 239.41 C 342.46 233.95 340.20 228.73 338.81 223.24 C 338.80 222.83 338.79 222.02 338.79 221.62 Z" />
<path fill="#000000" opacity="1.00" d=" M 327.81 227.08 C 328.47 224.59 332.07 223.38 334.57 223.15 C 334.54 223.73 334.47 224.88 334.44 225.45 C 332.87 227.15 329.26 230.60 327.81 227.08 Z" />
<path fill="#000000" opacity="1.00" d=" M 260.25 250.26 C 262.21 250.89 263.59 252.49 265.19 253.70 C 267.30 255.43 270.21 255.99 271.95 258.20 C 279.28 261.21 286.20 265.32 293.97 267.16 C 296.10 267.40 298.24 267.58 300.38 267.77 C 300.71 268.61 301.06 269.46 301.41 270.31 C 298.56 270.75 295.68 270.65 292.85 270.26 C 285.53 268.50 279.02 264.65 272.13 261.77 C 267.80 260.04 264.23 256.94 260.73 253.95 C 260.61 253.03 260.37 251.18 260.25 250.26 Z" />
<path fill="#000000" opacity="1.00" d=" M 189.45 261.44 C 193.68 260.88 192.26 266.53 193.71 269.05 C 196.07 276.70 201.37 282.92 206.27 289.07 C 206.36 289.69 206.54 290.91 206.63 291.52 C 204.26 291.94 203.09 289.66 201.69 288.27 C 195.40 280.65 189.18 271.77 189.45 261.44 Z" />
<path fill="#000000" opacity="1.00" d=" M 220.25 268.40 C 220.80 268.36 221.89 268.30 222.44 268.27 C 223.21 272.31 225.84 275.69 226.57 279.66 C 223.57 280.05 222.51 277.02 221.45 274.89 C 220.38 272.89 220.30 270.60 220.25 268.40 Z" />
<path fill="#000000" opacity="1.00" d=" M 231.44 286.25 C 235.42 288.12 237.97 291.91 241.35 294.60 C 247.31 299.59 251.91 306.23 258.84 310.00 C 266.96 314.26 275.57 318.41 284.93 318.61 C 292.77 319.48 300.45 317.18 308.24 316.62 C 308.24 317.47 308.25 318.32 308.27 319.18 C 305.60 320.49 302.62 320.52 299.74 320.81 C 297.60 321.72 295.41 322.65 293.03 322.40 C 285.15 322.00 277.03 321.72 269.65 318.63 C 261.99 315.38 254.05 311.98 248.30 305.73 C 243.13 300.15 237.21 295.34 232.00 289.80 C 230.82 288.94 231.48 287.44 231.44 286.25 Z" />
<path fill="#000000" opacity="1.00" d=" M 173.70 299.74 C 174.56 299.65 175.42 299.57 176.28 299.49 C 177.73 302.10 178.03 305.12 178.74 307.98 C 179.82 312.70 181.69 317.18 183.65 321.59 C 184.68 324.00 186.12 326.43 185.57 329.16 C 184.90 328.94 183.55 328.51 182.88 328.29 C 182.73 327.68 182.41 326.45 182.25 325.84 C 177.75 317.77 175.36 308.77 173.70 299.74 Z" />
</g>
</svg>
