<?xml version="1.0" encoding="utf-8"?>
<!-- Generator: Adobe Illustrator 15.0.2, SVG Export Plug-In . SVG Version: 6.00 Build 0)  -->
<!DOCTYPE svg PUBLIC "-//W3C//DTD SVG 1.1//EN" "http://www.w3.org/Graphics/SVG/1.1/DTD/svg11.dtd">
<svg version="1.1" id="Layer_1" xmlns="http://www.w3.org/2000/svg" xmlns:xlink="http://www.w3.org/1999/xlink" x="0px" y="0px"
	 width="118px" height="145px" viewBox="0 0 118 145" enable-background="new 0 0 118 145" xml:space="preserve">
<path fill="#FFFFFF" d="M0,0h118v145H0V0 M28.44,5.61c-6.8,3.9-11.95,9.91-17.84,14.97c-3.98,5.33-6.78,11.75-6.87,18.49
	c0.02,4.11-2.1,7.86-2.01,11.98c0.07,3.65-0.22,7.28-0.3,10.93c-0.36,5.18,2.09,9.99,2.12,15.15c1.68,5.63,3.77,11.17,5.48,16.8
	c3.18,5.94,4.81,12.53,7.73,18.59c2.59,5.051,6.51,9.41,11.19,12.601c4.33,3.2,8.79,6.46,13.97,8.12
	c5.52,1.949,10.47,5.609,16.32,6.5c2.629,1.06,4.95,2.85,7.77,3.4c4.67,0.879,9.35-0.25,14-0.721c1.34-1.63,3.04-3.01,5.16-3.439
	c3.21-0.75,5.949-2.601,8.71-4.311c7.97-2.41,16.22-7.59,18.5-16.09c1.479-8.79,1.159-17.75,1.3-26.63
	c0.24-4.091-2.82-7.79-1.62-11.89c2.21-9.061,6.66-18.5,3.521-27.9c-0.641-3.42-4.08-5.46-4.51-8.94c-0.36-2.76-0.66-5.53-1.44-8.21
	c-0.46-4.86,0.67-9.78-0.33-14.62c2.14,1.03,2.7-0.06,2.41-1.93c-3.95-4.45-10.38-3.79-15.2-6.76c-4.09-2.39-9.15-2.19-13.04-4.96
	c-4.56-2.03-9.14-4.59-14.29-4.41C62.2,0.82,55.06,1.29,47.99,1.21C41.26,1.32,34.57,2.84,28.44,5.61z"/>
<path fill="#050605" d="M28.44,5.61c6.13-2.77,12.82-4.29,19.55-4.4c7.07,0.08,14.21-0.39,21.18,1.12
	c5.15-0.18,9.73,2.38,14.29,4.41c3.89,2.77,8.95,2.57,13.04,4.96c4.82,2.97,11.25,2.31,15.2,6.76c0.29,1.87-0.271,2.96-2.41,1.93
	c1,4.84-0.13,9.76,0.33,14.62c0.78,2.68,1.08,5.45,1.44,8.21c0.43,3.48,3.869,5.521,4.51,8.94c3.14,9.4-1.311,18.84-3.521,27.9
	c-1.2,4.1,1.86,7.799,1.62,11.89c-0.141,8.88,0.18,17.84-1.3,26.63c-2.28,8.5-10.53,13.68-18.5,16.09
	c-2.761,1.71-5.5,3.561-8.71,4.311c-2.12,0.43-3.82,1.81-5.16,3.439c-4.65,0.471-9.33,1.6-14,0.721
	c-2.82-0.551-5.141-2.341-7.77-3.4c-5.85-0.891-10.8-4.551-16.32-6.5c-5.18-1.66-9.64-4.92-13.97-8.12
	c-4.68-3.19-8.6-7.55-11.19-12.601c-2.92-6.06-4.55-12.649-7.73-18.59c-1.71-5.63-3.8-11.17-5.48-16.8
	c-0.03-5.16-2.48-9.97-2.12-15.15c0.08-3.65,0.37-7.28,0.3-10.93c-0.09-4.12,2.03-7.87,2.01-11.98c0.09-6.74,2.89-13.16,6.87-18.49
	C16.49,15.52,21.64,9.51,28.44,5.61 M43.33,5.26l-0.08-0.22c-0.69,0.33-2.06,0.98-2.74,1.31c-4.51-0.26-9.39,1.64-12.37,5.1
	c-1.41,0.2-2.63,1.02-3.74,1.86c-6.49,5.26-13.45,11.1-15.64,19.55C6.04,43.65,4.26,54.8,4.6,65.96
	c2.62,15.17,7.47,30.03,14.63,43.681c3.35,6.689,8.52,12.569,15.17,16.119c6.93,3.65,14.09,6.95,21.61,9.21
	c3.84,1.22,7.141,3.69,10.971,4.921c3.689,0.569,7.569,0.489,11.09-0.841c0.479-1.34,0.939-2.69,1.41-4.03
	c3.609,0.9,7.199,0.461,10.52-1.17c0.21-0.41,0.641-1.25,0.85-1.66c-3.77-0.029-7.32-1.33-10.629-3.029
	c-1.07-2.52-3.141-4.34-5.07-6.19c-2.051-6.61-8.021-11.149-13.67-14.689c-3.75-2.561-8.391-2.8-12.561-4.33
	c2.03-0.54,4.16-1.181,6.24-0.48c7.32,1.69,13.061,6.921,18.33,11.98c0.189-3.19,0.4-6.38,0.619-9.56c0.32-6.25,3.9-11.771,4.271-18
	c0.39-5.971,0.46-12.131-1.34-17.9c-0.86-2.76-1.351-5.771-0.61-8.62c1.141-3.03,3.041-5.69,4.74-8.42
	c-5.01,1.05-10.05,2.47-15.23,2c-3.14-0.26-6.62,0.35-9.35-1.6c5.381-0.9,10.87,0.2,16.25-0.61c5.43-1.19,11.561-3.11,14.26-8.44
	c-3.479-0.83-8.31-0.74-9.899-4.67c-2.31-4.68-1.74-10.73,1.61-14.81c2.359-3.85,6.77-5.36,10.119-8.09
	c1.791,0.09,3.59,0.08,5.381-0.03c-3.92-5.8-12.291-3.74-18.17-3.2c-0.631-3.11,2.889-2.87,4.899-3.74
	c-8.62-4.479-18.5-4.82-28-5.08C49.8,4.68,46.51,4.52,43.33,5.26 M90.52,19.71c-4.899,1.88-8.97,5.76-11.22,10.48
	c-1.521,3.71-0.3,9.68,4.25,10.42c4.78,1.48,9.65-0.14,14.47-0.45c2.78,0.11,4.561-2.38,5.48-4.7c1.76-4.18,3.29-9.62-0.27-13.31
	c-0.07,2.27,0.049,4.82-1.851,6.45c-2.78,1.51-5.899-0.2-7.47-2.61c1.41-2.36,3.59-4.06,5.72-5.73
	C96.641,19.82,93.5,18.62,90.52,19.71 M106.93,36c-1.229,1.8-2.3,3.69-3.25,5.65c1.26,0.5,2.51,1.01,3.771,1.53
	C107.34,40.78,107.24,38.38,106.93,36 M93.561,43.7C85.92,47.91,82.18,56.72,80.21,64.84c-1.28,4.17,1.59,8.01,1.479,12.16
	c0.021,5.46,0.631,11.109-1.189,16.359c-1.54,5.141-3.74,10.201-3.79,15.66c-0.21,5.551-0.06,11.961,4.12,16.17
	c5.63,5,14.609,5.28,21.02,1.641c4.4-2.36,6.78-7.05,8.32-11.59c1.65-5.94,0.67-12.17,0.93-18.24c0.211-5.48-2.89-10.53-2.149-16.03
	c0.979-7.739,5.079-15.02,4.06-22.99C112.9,48.55,102.43,41.24,93.561,43.7z"/>
<path fill="#8A8682" d="M43.33,5.26c3.18-0.74,6.47-0.58,9.71-0.58c9.5,0.26,19.38,0.6,28,5.08c-2.011,0.87-5.53,0.63-4.899,3.74
	c5.879-0.54,14.25-2.6,18.17,3.2c-1.791,0.11-3.59,0.12-5.381,0.03c0.43-0.4,1.291-1.2,1.73-1.59c-2.78-0.57-5.6-1.35-8.46-1
	c-5.13,0.63-9.9,3.26-15.171,2.98c-6.649-0.11-13.349-0.65-19.949,0.51c0.23-0.91,0.71-2.73,0.95-3.64l0.4-1.42
	c7.23,2.43,15.009,2.9,22.58,2.67c3.52-0.021,3.891-4.43,5.801-6.58C66.18,4.95,54.73,5.54,43.68,6.25
	C43.59,6.01,43.42,5.51,43.33,5.26z"/>
<path fill="#FFFFFF" d="M40.51,6.35c0.68-0.33,2.05-0.98,2.74-1.31l0.08,0.22c0.09,0.25,0.26,0.75,0.35,0.99
	c11.05-0.71,22.5-1.3,33.13,2.41c-1.91,2.15-2.281,6.56-5.801,6.58c-7.57,0.229-15.35-0.24-22.58-2.67
	c-0.34-0.13-1.01-0.38-1.35-0.51c-1.46-0.62-2.91-1.27-4.36-1.93c5.79-0.12,11.53,1.16,17.32,0.62c3.31-0.3,6.63,0.14,9.95,0.06
	c0.32-0.34,0.96-1.02,1.289-1.36C63.83,8.82,56.34,9.7,48.91,8.81c-4.13-0.49-8.29-0.46-12.43-0.29
	C37.82,7.78,39.16,7.05,40.51,6.35z"/>
<path fill="#898581" d="M28.14,11.45c2.98-3.46,7.86-5.36,12.37-5.1c-1.35,0.7-2.69,1.43-4.03,2.17c4.14-0.17,8.3-0.2,12.43,0.29
	c7.43,0.89,14.92,0.01,22.369,0.64c-0.329,0.34-0.969,1.02-1.289,1.36c-3.32,0.08-6.641-0.36-9.95-0.06
	c-5.79,0.54-11.53-0.74-17.32-0.62c1.45,0.66,2.9,1.31,4.36,1.93c-3.69,1.22-7.58,1.42-11.41,1.86c1.82-0.95,3.56-2.02,5.32-3.07
	C36.71,11.02,32.42,11.23,28.14,11.45z"/>
<path fill="#FFFFFF" d="M24.4,13.31c1.11-0.84,2.33-1.66,3.74-1.86c4.28-0.22,8.57-0.43,12.85-0.6c-1.76,1.05-3.5,2.12-5.32,3.07
	c-3.69,1.46-8.07,2.08-10.8,5.21c-5.45,2.24-9.05,7.1-13.4,10.84c3.18-1.27,6.62-1.85,10.02-1.28c4.82-4.28,9.39-9.29,15.61-11.5
	c3.54-1.43,7.37-1.84,10.93-3.2c-0.24,0.91-0.72,2.729-0.95,3.64c6.6-1.16,13.3-0.62,19.949-0.51C72.3,17.4,77.07,14.77,82.2,14.14
	c2.86-0.35,5.68,0.43,8.46,1c-0.439,0.39-1.301,1.19-1.73,1.59c-3.35,2.73-7.76,4.24-10.119,8.09c-3.351,4.08-3.92,10.13-1.61,14.81
	c1.59,3.93,6.42,3.84,9.899,4.67c-2.699,5.33-8.83,7.25-14.26,8.44c-5.38,0.81-10.869-0.29-16.25,0.61c2.73,1.95,6.21,1.34,9.35,1.6
	c5.181,0.47,10.221-0.95,15.23-2c-1.699,2.73-3.6,5.39-4.74,8.42c-0.74,2.85-0.25,5.86,0.61,8.62c1.8,5.77,1.729,11.93,1.34,17.9
	c-0.37,6.229-3.95,11.75-4.271,18c-0.219,3.18-0.43,6.369-0.619,9.56c-5.27-5.06-11.01-10.29-18.33-11.98
	c-2.08-0.7-4.21-0.06-6.24,0.48c4.17,1.53,8.81,1.77,12.561,4.33c5.649,3.54,11.619,8.079,13.67,14.689
	c0.16,1.011,0.47,3.04,0.629,4.05c-5.77-1.72-11.699-2.489-17.699-2.489c-5.91-2.101-11.1-5.78-16.25-9.29
	c-3.51-2.44-8.58-3.2-10.52-7.44c-3.23-6.659-6.19-13.479-8.54-20.51c-1.62-4.66-1.95-9.74-4.4-14.09
	c-0.91,5.229,0.44,10.409,1.7,15.45c-5.05-5.2-5.75-12.82-10.21-18.34c0.02,7.16,4.07,13.31,7.44,19.34
	c3.51,5.949,4.14,13.16,8.01,18.93c3.49,5.09,7.57,10.1,13.14,13.01c9,4.811,18.84,7.76,28.7,10.221
	c3.47,0.949,7.08,0.979,10.649,0.89c0.04-0.54,0.11-1.61,0.15-2.14c-5.12-0.391-10.72-0.201-14.95-3.621
	c5.67,1.301,11.41,2.07,17.221,2.221c3.309,1.699,6.859,3,10.629,3.029c-0.209,0.41-0.64,1.25-0.85,1.66
	c-3.32,1.631-6.91,2.07-10.52,1.17c-0.471,1.34-0.931,2.69-1.41,4.03c-3.521,1.33-7.4,1.41-11.09,0.841
	c-3.83-1.23-7.131-3.701-10.971-4.921c-7.52-2.26-14.68-5.56-21.61-9.21c-6.65-3.55-11.82-9.43-15.17-16.119
	C12.07,95.99,7.22,81.13,4.6,65.96C4.26,54.8,6.04,43.65,8.76,32.86C10.95,24.41,17.91,18.57,24.4,13.31 M45.78,19.46
	c-3.96-0.37-8.53-0.24-11.5,2.8c-3.17,3.07-6.92,6.68-6.52,11.49c-0.55,1.24-1.1,2.49-1.65,3.73c-1.37,0.03-2.75,0.05-4.13,0.08
	c0.22,0.62,0.64,1.85,0.86,2.46c-2.23,0.95-4.37,2.14-6.01,3.95c3.5-0.32,6.95-1.06,10.41-1.66c-1.63,2.47-3.22,5.02-3.89,7.94
	c2.91-1.74,4.76-5.45,8.69-4.62c4.82,4.19,11.78,5.53,17.96,4.4c4.32-2.05,8.28-5.67,9.49-10.45c1.119-4.52,0.18-9.32-1.63-13.54
	c-0.85-2.37-4.15-2.86-4.29-5.61c7.79-1.8,16,0.94,23.7-1.8c-4.35-1.11-8.75,0.4-13.14-0.12C58,17.79,51.91,19.29,45.78,19.46
	 M52.36,57.67c0.14,1.5-0.42,3.22,0.34,4.58c5.21,1.9,10.8,3.16,16.37,2.94c2.539-0.03,4.16-2.35,5.97-3.78
	c-5.851,1.26-11.94,1.87-17.72-0.11c6.13-0.73,13.209-0.11,17.97-4.83C67.67,57.24,60.04,58.97,52.36,57.67 M51.74,67.02
	c1.16,1.27,2.24,3.08,4.22,2.95c6.19,0.561,12.42,0.17,18.63,0.21l0.08-1.85C67,68.52,59.34,68.06,51.74,67.02 M23.89,76.641
	c2.04,5.42,6.79,9.06,9.58,14.02c2.08,3.37,0.86,7.48,1.74,11.14c0.86,1.96,2.55,3.37,4,4.89c5.31,5.16,10.64,10.551,17.3,13.971
	c-3.24-5.46-9.25-8.12-13.55-12.561c-2.16-2.209-4.63-4.31-5.97-7.149c-0.61-3.261-0.01-6.681-1.02-9.87
	c-1.89-3.93-5.39-6.76-7.7-10.42C27.01,79.08,26.38,76.4,23.89,76.641 M45.68,87.34c2.76,2.46,7.28,1.16,10.54,2.96
	c-2.52,0.3-5.23,0.36-7.26,2.091c3.59,0.31,7.48-0.011,10.62,2.09c3.41,2.149,6.82,4.359,10.67,5.67
	C65.33,91.88,55.77,84.641,45.68,87.34 M51.56,96.109c3.25,2.091,7.43,2.291,10.31,5.031c3.569,2.489,6.229,7.029,11.03,7.02
	c-3.641-4.41-8.08-8.16-12.93-11.18C57.47,95.359,54.35,95.9,51.56,96.109z"/>
<path fill="#080A07" d="M47.08,12.06c0.34,0.13,1.01,0.38,1.35,0.51l-0.4,1.42c-3.56,1.36-7.39,1.77-10.93,3.2
	c-6.22,2.21-10.79,7.22-15.61,11.5c-3.4-0.57-6.84,0.01-10.02,1.28c4.35-3.74,7.95-8.6,13.4-10.84c2.73-3.13,7.11-3.75,10.8-5.21
	C39.5,13.48,43.39,13.28,47.08,12.06z"/>
<path fill="#888480" d="M45.78,19.46c6.13-0.17,12.22-1.67,18.35-0.95c4.39,0.521,8.79-0.99,13.14,0.12
	c-7.699,2.74-15.91,0-23.7,1.8c-1.03,0.24-2.05,0.5-3.08,0.72C48.93,20.54,47.38,19.94,45.78,19.46z"/>
<path fill="#070806" d="M34.28,22.26c2.97-3.04,7.54-3.17,11.5-2.8c1.6,0.48,3.15,1.08,4.71,1.69c1.03-0.22,2.05-0.48,3.08-0.72
	c0.14,2.75,3.44,3.24,4.29,5.61c1.81,4.22,2.75,9.02,1.63,13.54c-1.21,4.78-5.17,8.4-9.49,10.45c-6.18,1.13-13.14-0.21-17.96-4.4
	c-1.74-1.67-3.38-3.44-5.03-5.18c-0.98,0.22-1.95,0.44-2.92,0.66c2.7-1.57,4.33-4.16,3.67-7.36C27.36,28.94,31.11,25.33,34.28,22.26
	 M39.07,23.06c-5.78,2.3-9.7,8.77-8.95,14.96c0.91,6.04,7.71,8.23,12.92,9.14c6.31,1.33,13.65-3.34,13.72-10.1
	c-0.02-4.01-0.28-8.53-3.05-11.7C49.55,22.4,43.93,21.8,39.07,23.06z"/>
<path fill="#FFFFFF" d="M90.52,19.71c2.98-1.09,6.121,0.11,9.11,0.55c-2.13,1.67-4.31,3.37-5.72,5.73
	c1.57,2.41,4.689,4.12,7.47,2.61c1.899-1.63,1.78-4.18,1.851-6.45c3.56,3.69,2.029,9.13,0.27,13.31c-0.92,2.32-2.7,4.81-5.48,4.7
	c-4.819,0.31-9.689,1.93-14.47,0.45C79,39.87,77.779,33.9,79.3,30.19C81.55,25.47,85.62,21.59,90.52,19.71z"/>
<path fill="#FFFFFF" d="M39.07,23.06c4.86-1.26,10.48-0.66,14.64,2.3c2.77,3.17,3.03,7.69,3.05,11.7
	c-0.07,6.76-7.41,11.43-13.72,10.1c-5.21-0.91-12.01-3.1-12.92-9.14C29.37,31.83,33.29,25.36,39.07,23.06 M34.91,34.28
	c-0.57,2.7-1.95,6.09,0.29,8.39c4.15,1.35,8.17-1.83,9.78-5.47C43.12,33.32,38.49,33.43,34.91,34.28z"/>
<path fill="#898581" d="M26.11,37.48c0.55-1.24,1.1-2.49,1.65-3.73c0.66,3.2-0.97,5.79-3.67,7.36c0.97-0.22,1.94-0.44,2.92-0.66
	c1.65,1.74,3.29,3.51,5.03,5.18c-3.93-0.83-5.78,2.88-8.69,4.62c0.67-2.92,2.26-5.47,3.89-7.94c-3.46,0.6-6.91,1.34-10.41,1.66
	c1.64-1.81,3.78-3,6.01-3.95c-0.22-0.61-0.64-1.84-0.86-2.46C23.36,37.53,24.74,37.51,26.11,37.48z"/>
<path fill="#080A07" d="M34.91,34.28c3.58-0.85,8.21-0.96,10.07,2.92c-1.61,3.64-5.63,6.82-9.78,5.47
	C32.96,40.37,34.34,36.98,34.91,34.28z"/>
<path fill="#FFFFFF" d="M106.93,36c0.311,2.38,0.41,4.78,0.521,7.18c-1.261-0.52-2.511-1.03-3.771-1.53
	C104.63,39.69,105.7,37.8,106.93,36z"/>
<path fill="#FFFFFF" d="M93.561,43.7c8.869-2.46,19.34,4.85,19.449,14.28c1.02,7.97-3.08,15.25-4.06,22.99
	c-0.74,5.5,2.36,10.55,2.149,16.03c-0.26,6.07,0.721,12.3-0.93,18.24c-1.54,4.54-3.92,9.229-8.32,11.59
	c-6.41,3.64-15.39,3.359-21.02-1.641c-4.18-4.209-4.33-10.619-4.12-16.17c0.05-5.459,2.25-10.52,3.79-15.66
	c1.82-5.25,1.21-10.899,1.189-16.359c0.11-4.15-2.76-7.99-1.479-12.16C82.18,56.72,85.92,47.91,93.561,43.7 M93.37,49.5
	c-2.79,1.8-4.79,4.63-6.14,7.61c-4.451,9.75-0.701,20.71-2.73,30.9c-1.68,8.62-3.609,17.58-1.79,26.32
	c1.74,7.561,11.96,10.98,17.96,6.17c4.17-4.79,6.18-11.23,6.561-17.49c0.539-5.22-2.94-9.8-2.36-15.029
	c-0.64-6.061,2.659-11.311,4.28-16.9c1.81-5.33-0.32-10.89-1.94-15.99C105.8,49.44,98.24,47,93.37,49.5z"/>
<path fill="#080907" d="M93.37,49.5c4.87-2.5,12.43-0.06,13.84,5.59c1.62,5.1,3.75,10.66,1.94,15.99
	c-1.621,5.59-4.92,10.84-4.28,16.9c-0.58,5.229,2.899,9.81,2.36,15.029c-0.381,6.26-2.391,12.7-6.561,17.49
	c-6,4.811-16.22,1.391-17.96-6.17c-1.819-8.74,0.11-17.7,1.79-26.32c2.029-10.189-1.721-21.15,2.73-30.9
	C88.58,54.13,90.58,51.3,93.37,49.5 M92.6,55.97c4.03-0.17,8.021,0.49,11.83,1.84c0.59-5.14-5.39-7.13-9.439-5.95
	C93.88,53.02,93.34,54.58,92.6,55.97 M93.15,62.86c1.57,0.22,3.149,0.46,4.72,0.7c-0.229-2.22-0.61-4.41-1.13-6.56
	C95.38,58.85,94.189,60.81,93.15,62.86 M88.52,63.54c1.19-0.06,2.381-0.13,3.57-0.2c-0.05-1.88-0.09-3.75-0.15-5.63
	C89.99,59.14,88.49,61.02,88.52,63.54 M99.05,63.43c0.71,0,2.14,0,2.86,0c-0.43-1.9-0.85-3.79-1.34-5.67
	C99.971,59.62,99.5,61.52,99.05,63.43 M103.68,63.62c1.07-0.11,2.15-0.23,3.221-0.34c-0.58-1.29-1.17-2.58-1.75-3.86
	C104.65,60.81,104.15,62.21,103.68,63.62 M88.02,65.43c0,9.57,0.74,19.28-1.629,28.669c3.43,0.28,7.06,0.49,10.09,2.34
	c3.39,2.07,5.34,5.67,7.68,8.75c0.869-6.609-3.301-12.569-2.551-19.17c0.19-7.229,5.44-13.25,5.16-20.55
	C100.52,65.35,94.27,65.2,88.02,65.43 M86.08,96.12c-0.801,3.1-1.1,6.28-1.32,9.46c5.6,0.1,11.211,0.16,16.801-0.36
	c-1.681-2.819-3.511-5.739-6.49-7.329C92.42,96.1,89.12,96.29,86.08,96.12 M84.391,107.93c0.689,2.141,1.889,4.051,3.389,5.721
	c0.531-1.91,0.851-3.87,1.041-5.84C87.34,107.84,85.87,107.88,84.391,107.93 M90.609,107.8c0.141,1.37,0.281,2.75,0.42,4.12
	c0.631,0.061,1.891,0.17,2.521,0.221c-0.03-1.431-0.05-2.871-0.069-4.301C92.52,107.83,91.561,107.811,90.609,107.8 M99.49,107.49
	c0.13,2.24,0.34,4.59,1.859,6.38c0.95-2.09,1.69-4.261,2.26-6.479C102.23,107.42,100.859,107.45,99.49,107.49 M95.45,108.1
	c0.1,1.9,0.29,3.791,0.61,5.67c0.39,0.34,1.17,1.021,1.56,1.36c0.05-2.43,0.11-4.86,0.149-7.28
	C97.189,107.91,96.029,108.03,95.45,108.1 M86.529,115.29c2.371,5.49,10.74,5.399,14.221,1.09c-2.83-0.021-5.609-0.569-8.12-1.91
	C90.63,113.27,88.51,114.85,86.529,115.29z"/>
<path fill="#FFFFFF" d="M92.6,55.97c0.74-1.39,1.28-2.95,2.391-4.11c4.05-1.18,10.029,0.81,9.439,5.95
	C100.62,56.46,96.63,55.8,92.6,55.97z"/>
<path fill="#898581" d="M52.36,57.67c7.68,1.3,15.31-0.43,22.93-1.2c-4.761,4.72-11.84,4.1-17.97,4.83
	c5.78,1.98,11.87,1.37,17.72,0.11c-1.81,1.43-3.431,3.75-5.97,3.78c-5.57,0.22-11.16-1.04-16.37-2.94
	C51.94,60.89,52.5,59.17,52.36,57.67z"/>
<path fill="#FFFFFF" d="M93.15,62.86c1.039-2.05,2.229-4.01,3.59-5.86c0.52,2.15,0.9,4.34,1.13,6.56
	C96.3,63.32,94.721,63.08,93.15,62.86z"/>
<path fill="#FFFFFF" d="M88.52,63.54c-0.029-2.52,1.471-4.4,3.42-5.83c0.061,1.88,0.101,3.75,0.15,5.63
	C90.9,63.41,89.71,63.48,88.52,63.54z"/>
<path fill="#FEFEFE" d="M99.05,63.43c0.45-1.91,0.921-3.81,1.521-5.67c0.49,1.88,0.91,3.771,1.34,5.67
	C101.189,63.43,99.76,63.43,99.05,63.43z"/>
<path fill="#FEFEFE" d="M103.68,63.62c0.471-1.41,0.971-2.81,1.471-4.2c0.58,1.28,1.17,2.57,1.75,3.86
	C105.83,63.39,104.75,63.51,103.68,63.62z"/>
<path fill="#FFFFFF" d="M88.02,65.43c6.25-0.23,12.5-0.08,18.75,0.04c0.28,7.3-4.97,13.32-5.16,20.55
	c-0.75,6.601,3.42,12.561,2.551,19.17c-2.34-3.08-4.29-6.68-7.68-8.75c-3.03-1.85-6.66-2.06-10.09-2.34
	C88.76,84.71,88.02,75,88.02,65.43z"/>
<path fill="#888480" d="M51.74,67.02c7.6,1.04,15.26,1.5,22.93,1.31l-0.08,1.85c-6.21-0.04-12.439,0.35-18.63-0.21
	C53.98,70.1,52.9,68.29,51.74,67.02z"/>
<path fill="#8A8682" d="M9.86,70.31c4.46,5.52,5.16,13.14,10.21,18.34c-1.26-5.041-2.61-10.221-1.7-15.45
	c2.45,4.35,2.78,9.43,4.4,14.09c2.35,7.03,5.31,13.851,8.54,20.51c1.94,4.24,7.01,5,10.52,7.44c5.15,3.51,10.34,7.189,16.25,9.29
	c6,0,11.93,0.77,17.699,2.489c-0.159-1.01-0.469-3.039-0.629-4.05c1.93,1.851,4,3.671,5.07,6.19
	c-5.811-0.15-11.551-0.92-17.221-2.221c4.23,3.42,9.83,3.23,14.95,3.621c-0.04,0.529-0.11,1.6-0.15,2.14
	c-3.569,0.09-7.18,0.06-10.649-0.89c-9.86-2.461-19.7-5.41-28.7-10.221c-5.57-2.91-9.65-7.92-13.14-13.01
	c-3.87-5.77-4.5-12.98-8.01-18.93C13.93,83.62,9.88,77.47,9.86,70.31 M25.3,101.95c0.09,3.08,1.35,5.97,3.92,7.78
	C28.69,106.82,27.62,103.91,25.3,101.95 M31.64,113.109c3.12,5.08,8.93,7.521,14.52,8.791C42.7,117.141,37.2,114.54,31.64,113.109z"
	/>
<path fill="#888480" d="M23.89,76.641c2.49-0.24,3.12,2.439,4.38,4.02c2.31,3.66,5.81,6.49,7.7,10.42
	c1.01,3.189,0.41,6.609,1.02,9.87c1.34,2.84,3.81,4.94,5.97,7.149c4.3,4.44,10.31,7.101,13.55,12.561
	c-6.66-3.42-11.99-8.811-17.3-13.971c-1.45-1.52-3.14-2.93-4-4.89c-0.88-3.659,0.34-7.77-1.74-11.14
	C30.68,85.7,25.93,82.061,23.89,76.641z"/>
<path fill="#8A8682" d="M45.68,87.34c10.09-2.699,19.65,4.54,24.57,12.811c-3.85-1.311-7.26-3.521-10.67-5.67
	c-3.14-2.101-7.03-1.78-10.62-2.09c2.03-1.73,4.74-1.791,7.26-2.091C52.96,88.5,48.44,89.8,45.68,87.34z"/>
<path fill="#898581" d="M51.56,96.109c2.79-0.209,5.91-0.75,8.411,0.871c4.85,3.02,9.289,6.77,12.93,11.18
	c-4.801,0.01-7.461-4.53-11.03-7.02C58.99,98.4,54.81,98.2,51.56,96.109z"/>
<path fill="#FFFFFF" d="M86.08,96.12c3.04,0.17,6.34-0.021,8.99,1.771c2.979,1.59,4.81,4.51,6.49,7.329
	c-5.59,0.521-11.201,0.46-16.801,0.36C84.98,102.4,85.279,99.22,86.08,96.12z"/>
<path fill="#FEFEFE" d="M25.3,101.95c2.32,1.96,3.39,4.87,3.92,7.78C26.65,107.92,25.39,105.03,25.3,101.95z"/>
<path fill="#FEFEFE" d="M84.391,107.93c1.479-0.05,2.949-0.09,4.43-0.119c-0.19,1.97-0.51,3.93-1.041,5.84
	C86.279,111.98,85.08,110.07,84.391,107.93z"/>
<path fill="#FFFFFF" d="M90.609,107.8c0.951,0.011,1.91,0.03,2.871,0.04c0.02,1.43,0.039,2.87,0.069,4.301
	c-0.63-0.051-1.89-0.16-2.521-0.221C90.891,110.55,90.75,109.17,90.609,107.8z"/>
<path fill="#FFFFFF" d="M99.49,107.49c1.369-0.04,2.74-0.07,4.119-0.1c-0.569,2.219-1.31,4.39-2.26,6.479
	C99.83,112.08,99.62,109.73,99.49,107.49z"/>
<path fill="#FEFEFE" d="M95.45,108.1c0.579-0.069,1.739-0.189,2.319-0.25c-0.039,2.42-0.1,4.851-0.149,7.28
	c-0.39-0.34-1.17-1.021-1.56-1.36C95.74,111.891,95.55,110,95.45,108.1z"/>
<path fill="#FEFEFE" d="M31.64,113.109c5.56,1.431,11.06,4.031,14.52,8.791C40.57,120.63,34.76,118.189,31.64,113.109z"/>
<path fill="#FFFFFF" d="M86.529,115.29c1.98-0.44,4.101-2.021,6.101-0.82c2.511,1.341,5.29,1.89,8.12,1.91
	C97.27,120.689,88.9,120.78,86.529,115.29z"/>
</svg>
