<?xml version="1.0" encoding="UTF-8" ?>
<!DOCTYPE svg PUBLIC "-//W3C//DTD SVG 1.1//EN" "http://www.w3.org/Graphics/SVG/1.1/DTD/svg11.dtd">
<svg width="568pt" height="624pt" viewBox="0 0 568 624" version="1.1" xmlns="http://www.w3.org/2000/svg">
<g id="#fefefeff">
<path fill="#fefefe" opacity="1.00" d=" M 0.00 0.00 L 568.00 0.00 L 568.00 624.00 L 0.00 624.00 L 0.00 0.00 M 266.13 60.04 C 266.14 73.70 266.12 87.35 266.14 101.01 C 269.71 101.02 273.27 101.03 276.84 100.99 C 276.89 95.31 276.90 89.63 276.84 83.95 C 277.62 83.96 279.18 83.98 279.96 83.99 C 280.00 89.66 280.00 95.34 279.99 101.01 C 283.57 101.02 287.15 101.02 290.73 100.99 C 290.75 87.33 290.72 73.68 290.72 60.03 C 287.14 60.00 283.56 59.99 279.98 60.00 C 279.99 65.34 280.00 70.67 279.96 76.01 C 279.18 76.02 277.62 76.04 276.84 76.05 C 276.90 70.70 276.90 65.35 276.83 60.00 C 273.26 59.98 269.69 59.99 266.13 60.04 M 321.82 60.01 C 321.94 73.66 321.92 87.30 321.82 100.95 C 325.26 101.02 328.71 101.04 332.15 101.03 C 332.22 91.77 331.92 82.50 332.34 73.25 C 333.02 73.22 334.38 73.14 335.07 73.11 C 335.49 82.39 335.17 91.69 335.26 100.97 C 338.65 101.01 342.05 101.03 345.45 101.03 C 345.26 91.39 345.86 81.71 345.21 72.10 C 344.01 66.10 336.10 65.91 332.04 69.17 C 332.10 66.12 332.13 63.08 332.16 60.03 C 328.71 59.98 325.27 59.97 321.82 60.01 M 348.76 60.05 C 349.39 70.36 349.92 80.67 350.45 90.98 C 353.11 90.98 355.77 90.98 358.43 90.97 C 358.92 80.65 359.53 70.33 360.06 60.01 C 356.29 59.98 352.53 59.99 348.76 60.05 M 298.72 68.74 C 294.26 71.11 294.24 76.56 294.31 80.95 C 297.52 81.00 300.73 81.02 303.95 81.02 C 304.00 78.41 304.08 75.81 304.24 73.20 C 304.89 73.20 306.20 73.18 306.86 73.17 C 306.98 75.59 307.93 78.32 306.66 80.56 C 302.96 83.03 297.79 83.18 294.87 86.77 C 294.20 90.59 293.81 94.92 295.49 98.53 C 298.76 102.16 304.40 101.45 307.63 98.15 C 307.60 98.87 307.55 100.31 307.52 101.03 C 310.84 101.02 314.16 101.02 317.48 101.02 C 317.06 91.41 318.38 81.62 316.59 72.12 C 313.34 65.88 304.30 65.86 298.72 68.74 M 349.60 92.96 C 349.58 95.65 349.58 98.34 349.58 101.02 C 352.81 101.02 356.04 101.03 359.27 101.06 C 359.26 98.39 359.27 95.71 359.31 93.03 C 356.07 92.98 352.83 92.96 349.60 92.96 M 267.88 129.91 C 259.76 140.67 253.59 152.77 247.77 164.88 C 245.89 165.56 243.42 165.42 242.08 167.04 C 232.61 182.52 220.34 196.40 213.23 213.27 C 208.84 223.55 207.11 235.15 209.79 246.11 C 197.64 257.16 185.81 268.63 173.47 279.50 C 155.15 295.15 131.44 301.77 111.04 313.97 C 90.86 328.56 66.77 338.03 49.73 356.73 C 39.02 368.17 33.56 384.41 35.83 399.98 C 38.27 419.22 53.83 437.65 73.94 438.91 C 92.19 439.83 109.22 431.94 126.22 426.49 C 131.18 425.29 134.82 421.60 138.96 418.89 C 147.37 413.19 155.96 407.77 164.06 401.65 C 162.46 422.44 161.96 443.37 158.17 463.93 C 158.73 463.93 159.84 463.92 160.40 463.91 C 164.27 444.84 164.53 425.32 166.05 405.98 C 166.89 394.65 169.27 383.44 169.15 372.04 C 169.02 361.02 167.62 350.06 167.50 339.04 C 167.73 337.37 166.95 336.08 165.42 335.37 C 165.33 356.24 169.08 377.57 164.02 398.09 C 155.71 405.32 145.99 410.71 137.02 417.07 C 133.44 419.51 130.15 422.63 125.83 423.70 C 113.35 427.62 101.07 432.29 88.29 435.12 C 76.77 437.66 63.89 435.96 54.48 428.47 C 38.21 415.72 33.17 391.45 41.65 372.84 C 53.77 347.09 81.97 336.18 104.50 321.61 C 124.73 306.62 149.58 299.68 170.24 285.36 C 184.78 274.74 195.96 260.26 210.55 249.69 C 211.19 254.58 212.06 259.45 212.72 264.34 C 213.25 264.48 214.30 264.76 214.83 264.90 C 214.36 252.80 209.43 241.02 211.22 228.87 C 214.44 208.69 228.06 192.60 239.19 176.19 C 241.44 173.18 242.85 169.03 246.89 168.02 C 249.50 186.26 236.30 201.41 231.25 218.01 C 231.51 218.93 231.88 219.80 232.36 220.64 C 238.50 203.89 250.08 188.37 249.66 169.85 C 258.05 186.77 242.87 203.79 242.91 220.67 C 245.45 218.42 245.47 214.80 246.58 211.81 C 250.36 199.30 256.32 186.47 253.84 173.11 C 255.05 172.13 256.27 171.14 257.49 170.16 C 265.01 188.55 250.31 206.85 252.80 225.61 C 254.00 225.09 254.63 224.22 254.66 223.01 C 254.78 208.57 261.20 195.18 262.28 180.85 C 264.92 185.78 265.85 191.43 265.48 196.97 C 264.50 215.58 257.80 233.41 257.29 252.07 C 257.40 257.93 261.63 262.91 266.50 265.72 C 271.63 268.11 277.43 264.24 282.62 266.41 C 285.37 267.50 286.46 272.04 283.74 273.75 C 280.82 275.30 277.38 275.12 274.20 275.67 C 266.25 276.75 261.06 284.42 252.99 285.18 C 247.48 286.22 241.35 284.22 236.33 287.33 C 212.13 300.75 187.20 313.20 165.05 329.95 C 148.48 342.62 133.70 357.75 121.84 374.93 C 116.21 385.60 107.10 393.92 101.43 404.56 C 100.41 406.01 100.69 407.78 100.99 409.41 C 106.55 400.69 112.66 392.31 119.08 384.16 C 129.73 365.87 144.34 350.12 160.53 336.60 C 182.28 318.56 207.55 305.62 232.23 292.16 C 236.91 293.27 241.74 292.65 246.42 291.87 C 227.22 311.09 210.27 334.95 206.42 362.42 C 225.63 360.41 242.11 349.22 257.22 338.00 C 255.96 340.90 252.73 343.54 252.59 346.55 C 266.95 356.21 279.82 370.11 284.94 387.03 C 279.14 394.75 274.21 403.30 272.54 412.94 C 269.39 428.78 267.97 444.96 263.44 460.52 C 266.93 460.89 267.04 457.04 267.85 454.65 C 271.93 440.01 272.61 424.72 276.13 409.97 C 279.52 395.60 290.86 385.29 297.32 372.42 C 307.83 355.96 319.91 340.50 333.34 326.31 C 341.28 317.96 346.04 307.41 351.92 297.67 C 355.46 300.71 359.78 302.41 364.07 304.04 C 370.37 310.08 375.32 317.42 379.71 324.93 C 374.27 339.07 377.03 354.46 376.08 369.19 C 358.58 366.43 349.30 349.35 335.24 340.50 C 329.33 344.39 324.13 349.25 319.75 354.80 C 309.71 367.14 300.13 379.93 288.65 390.99 C 288.54 394.59 291.25 391.79 292.59 390.63 C 305.90 378.10 315.75 362.49 328.15 349.15 C 330.75 346.83 334.78 342.70 338.26 345.74 C 349.71 354.57 358.98 367.00 372.99 372.01 C 377.39 373.82 379.23 368.50 378.85 365.05 C 378.37 352.61 377.10 339.72 381.22 327.72 C 389.59 343.73 395.18 361.11 398.63 378.82 C 400.80 389.83 398.96 401.27 401.61 412.20 C 406.23 424.92 410.25 437.88 415.93 450.19 C 410.73 463.76 410.27 478.65 409.81 493.03 C 409.85 494.99 409.27 497.44 411.22 498.78 C 412.01 507.46 412.44 516.18 412.74 524.90 C 416.44 525.02 420.14 525.04 423.84 525.00 C 424.53 510.68 425.33 496.37 426.16 482.06 C 421.55 482.06 416.94 481.80 412.34 482.09 C 413.21 472.26 414.37 462.40 417.14 452.89 C 422.61 463.39 429.15 474.28 439.94 480.03 C 452.23 486.62 467.92 483.01 478.18 474.23 C 490.61 463.47 499.05 447.55 499.27 430.96 C 503.16 421.96 502.10 411.32 497.03 403.00 C 493.49 397.33 487.43 393.88 483.71 388.37 C 479.36 381.98 475.82 375.06 471.11 368.91 C 463.56 359.20 459.05 347.41 450.74 338.25 C 441.48 328.28 429.41 320.68 416.01 317.81 C 411.26 308.19 406.49 298.50 400.20 289.77 C 398.63 287.12 396.36 284.34 396.74 281.09 C 399.68 265.39 392.58 250.33 387.95 235.70 C 390.72 217.47 396.06 198.17 390.44 179.77 C 387.57 171.33 385.17 162.44 379.79 155.18 C 376.69 150.96 370.78 151.28 366.12 151.46 C 364.20 139.80 360.95 127.37 352.00 119.04 C 345.33 112.69 335.71 111.94 327.02 111.05 C 306.03 108.75 282.18 113.10 267.88 129.91 M 283.96 403.07 C 283.50 406.67 288.75 408.33 291.01 405.93 C 294.36 402.77 293.49 395.54 288.00 395.65 C 286.64 398.09 284.40 400.22 283.96 403.07 M 174.99 489.02 C 172.49 496.73 173.90 505.03 173.53 513.00 C 173.85 519.74 172.39 527.07 175.72 533.28 C 180.02 540.73 192.23 542.83 197.43 535.18 C 197.74 536.40 198.05 537.63 198.37 538.87 C 201.56 539.01 204.74 539.03 207.93 539.01 C 207.84 528.67 207.83 518.33 207.95 508.00 C 202.16 507.99 196.38 508.01 190.60 507.99 C 190.60 510.60 190.60 513.21 190.58 515.83 C 191.33 515.93 192.84 516.12 193.60 516.22 C 193.33 520.86 194.26 525.77 192.23 530.15 C 191.40 530.03 189.72 529.80 188.88 529.68 C 188.12 516.89 188.02 503.92 188.92 491.14 C 190.15 491.16 191.38 491.19 192.61 491.23 C 193.13 495.12 193.21 499.06 193.17 502.99 C 198.09 503.01 203.01 503.04 207.94 502.98 C 207.70 497.63 208.34 491.58 204.99 487.01 C 197.43 478.44 180.87 478.57 174.99 489.02 M 219.82 492.89 C 212.95 495.65 212.67 503.79 212.81 510.08 C 217.28 509.99 221.76 510.00 226.23 509.98 C 226.27 506.29 226.27 502.59 226.58 498.91 C 232.48 498.44 230.38 505.58 230.43 509.30 C 225.29 512.31 218.97 513.36 214.53 517.46 C 211.85 522.09 212.87 527.95 213.32 533.05 C 214.63 541.27 227.01 542.24 231.09 535.56 C 231.11 536.42 231.14 538.16 231.16 539.02 C 235.76 539.02 240.36 539.03 244.97 538.98 C 244.86 526.14 245.47 513.23 244.28 500.44 C 242.11 489.95 227.87 489.19 219.82 492.89 M 246.15 492.04 C 249.40 507.49 253.13 522.85 255.98 538.37 C 253.86 538.69 251.73 538.96 249.60 539.21 C 249.60 541.46 249.58 543.71 249.56 545.97 C 255.63 545.76 261.93 546.83 267.79 544.83 C 272.21 543.21 273.58 538.16 274.16 533.97 C 275.81 521.27 277.22 508.53 278.85 495.83 C 282.09 509.96 285.32 524.12 287.98 538.37 C 285.86 538.69 283.73 538.96 281.60 539.21 C 281.60 541.46 281.58 543.71 281.56 545.97 C 287.62 545.76 293.93 546.83 299.79 544.83 C 304.21 543.22 305.58 538.17 306.16 533.98 C 307.81 521.27 309.22 508.53 310.85 495.82 C 314.05 509.97 317.40 524.12 319.94 538.41 C 317.83 538.71 315.71 538.96 313.60 539.20 C 313.60 541.45 313.58 543.71 313.56 545.97 C 319.63 545.76 325.93 546.83 331.79 544.83 C 335.87 543.36 337.40 538.81 338.01 534.91 C 339.97 520.92 341.26 506.84 343.32 492.87 C 346.45 508.08 350.33 523.15 352.88 538.46 C 350.78 538.73 348.68 538.96 346.58 539.17 C 346.59 541.43 346.59 543.69 346.59 545.96 C 352.68 545.82 359.02 546.76 364.91 544.79 C 369.46 543.09 370.59 537.81 371.21 533.53 C 372.85 520.98 374.22 508.38 375.85 495.83 C 379.00 510.00 382.48 524.14 384.88 538.46 C 382.78 538.73 380.68 538.96 378.58 539.17 C 378.59 541.43 378.59 543.69 378.59 545.96 C 384.68 545.82 391.01 546.76 396.91 544.80 C 401.72 542.96 402.68 537.29 403.32 532.80 C 404.99 519.21 406.66 505.62 408.25 492.02 C 404.03 491.97 399.81 491.98 395.59 492.04 C 394.91 502.99 393.89 513.92 393.10 524.87 C 391.42 513.92 389.67 502.99 388.15 492.02 C 379.96 492.00 371.78 491.95 363.59 492.03 C 362.91 502.99 361.90 513.92 361.09 524.87 C 359.42 513.92 357.67 502.99 356.15 492.02 C 347.62 492.01 339.09 491.92 330.56 492.06 C 329.92 503.02 328.88 513.96 328.10 524.92 C 326.44 513.98 324.60 503.07 323.22 492.10 C 315.00 491.92 306.78 491.97 298.56 492.06 C 297.92 503.02 296.88 513.95 296.10 524.91 C 294.43 513.98 292.60 503.07 291.22 492.10 C 283.00 491.92 274.78 491.97 266.56 492.06 C 265.92 503.02 264.88 513.95 264.10 524.91 C 262.43 513.98 260.60 503.07 259.22 492.10 C 254.86 491.96 250.50 491.97 246.15 492.04 M 411.75 527.98 C 411.74 531.62 411.74 535.27 411.72 538.92 C 416.17 539.04 420.62 539.04 425.08 538.96 C 425.01 535.30 425.00 531.65 425.00 528.00 C 420.58 527.98 416.16 527.97 411.75 527.98 Z" />
<path fill="#fefefe" opacity="1.00" d=" M 302.66 131.82 C 320.92 125.67 343.68 132.44 353.70 149.37 C 358.03 158.55 361.21 168.24 363.61 178.10 C 363.47 179.52 363.12 180.90 362.82 182.30 C 358.85 184.97 357.85 190.12 354.00 192.98 C 345.02 203.58 348.50 218.45 349.35 231.07 C 350.19 241.04 349.37 253.07 340.55 259.48 C 332.64 264.64 323.18 260.10 314.93 258.39 C 320.93 256.46 327.22 254.71 332.45 251.07 C 332.50 250.41 332.60 249.10 332.65 248.45 C 322.70 253.12 312.16 257.16 301.00 257.27 C 292.61 257.22 283.33 256.93 276.63 251.16 C 275.42 254.20 278.53 255.98 280.78 257.17 C 287.35 260.42 294.89 260.08 302.02 259.98 C 299.03 262.79 295.26 266.31 296.15 270.86 C 297.54 274.78 302.43 275.22 305.95 275.92 C 322.66 277.49 336.41 288.03 350.43 296.24 C 346.10 301.88 343.31 308.48 339.42 314.41 C 332.26 326.24 321.15 334.89 313.08 346.02 C 305.88 356.08 297.94 365.70 292.15 376.69 C 283.63 363.49 279.63 348.00 271.36 334.66 C 265.70 325.03 258.44 315.54 257.71 303.97 C 256.93 298.47 258.97 291.91 254.77 287.42 C 260.14 286.31 264.36 282.69 269.05 280.13 C 273.89 277.45 279.87 278.45 284.63 275.66 C 288.83 273.25 288.92 265.74 284.18 263.91 C 279.61 262.10 274.72 264.08 270.02 263.65 C 263.41 261.79 258.66 254.94 259.54 248.04 C 261.15 229.19 268.32 211.03 267.88 191.95 C 267.85 187.30 266.40 182.82 264.25 178.75 C 263.65 178.56 262.46 178.19 261.86 178.00 C 268.88 158.31 281.75 138.44 302.66 131.82 M 303.66 137.72 C 312.79 136.72 322.39 134.71 330.89 139.66 C 323.64 132.98 312.24 134.90 303.66 137.72 M 309.32 142.06 C 314.55 141.06 319.85 141.31 325.14 141.45 C 320.53 139.08 313.71 139.05 309.32 142.06 M 277.44 157.53 C 284.47 153.24 292.45 154.95 299.87 156.98 C 302.78 154.52 298.05 149.85 295.09 149.20 C 288.65 148.42 280.11 151.30 277.44 157.53 M 324.94 154.63 C 333.30 153.17 340.25 157.34 346.23 162.61 C 348.84 151.26 329.72 142.77 324.94 154.63 M 278.58 161.59 C 281.26 161.66 283.94 161.53 286.62 161.48 C 286.91 161.19 287.49 160.60 287.78 160.31 C 284.68 160.29 281.32 159.77 278.58 161.59 M 335.63 161.34 C 338.20 162.52 340.90 163.40 343.42 164.69 C 343.78 164.53 344.51 164.20 344.87 164.04 C 342.08 162.34 338.99 160.91 335.63 161.34 M 307.85 161.53 C 305.27 168.35 303.21 175.42 301.70 182.56 C 302.40 182.32 303.81 181.85 304.51 181.61 C 306.67 174.93 308.60 168.16 310.48 161.39 C 309.83 161.43 308.51 161.49 307.85 161.53 M 290.86 162.87 C 291.74 164.55 292.74 166.16 293.71 167.79 C 287.31 165.19 280.18 165.79 274.24 169.26 C 275.27 167.69 276.35 166.15 277.34 164.55 C 272.25 164.09 271.62 169.21 272.03 173.03 C 277.29 178.02 285.10 177.66 291.80 177.55 C 291.16 177.31 289.90 176.84 289.27 176.60 C 296.17 175.90 299.69 162.51 290.86 162.87 M 324.27 167.89 C 324.98 172.78 328.83 176.06 332.91 178.33 C 331.11 178.52 329.34 178.73 327.56 179.03 C 333.27 179.25 338.59 182.11 344.30 181.76 C 342.01 180.91 339.66 180.30 337.30 179.70 C 341.52 179.54 345.97 178.97 349.41 176.28 C 351.36 173.56 350.18 170.09 349.01 167.30 C 348.32 167.82 347.64 168.34 346.96 168.87 C 347.42 170.63 347.86 172.40 348.24 174.18 C 342.58 168.61 334.52 167.05 326.86 168.23 C 328.53 166.46 330.44 164.88 331.68 162.75 C 328.32 162.88 325.82 165.07 324.27 167.89 M 277.13 179.95 C 280.67 180.13 284.30 179.62 287.50 178.03 C 283.98 178.10 280.40 178.56 277.13 179.95 M 323.81 185.79 C 324.02 194.74 330.02 202.57 329.51 211.72 C 330.27 211.44 331.03 211.15 331.79 210.87 C 332.25 202.01 327.66 194.09 325.76 185.66 C 325.27 185.69 324.30 185.76 323.81 185.79 M 300.76 194.78 C 301.34 192.95 301.89 191.12 302.56 189.32 C 303.23 190.86 301.49 194.53 304.13 194.46 C 305.94 191.61 305.07 187.85 302.02 186.31 C 298.73 187.88 297.33 192.50 300.76 194.78 M 311.91 187.86 C 311.83 189.81 311.80 191.77 311.82 193.73 C 313.85 193.27 314.54 191.52 315.08 189.73 C 315.84 190.89 316.59 192.06 317.32 193.26 C 315.90 194.29 314.50 195.37 313.27 196.63 C 316.67 197.46 320.89 194.88 319.57 191.02 C 318.72 187.54 314.75 187.55 311.91 187.86 M 294.31 198.65 C 295.41 196.98 295.28 195.02 295.10 193.14 C 296.11 191.76 298.74 190.53 297.08 188.59 C 291.93 188.92 291.83 195.39 294.31 198.65 M 283.33 219.47 C 285.88 208.87 287.42 197.88 292.74 188.15 C 286.00 196.86 283.95 208.71 283.33 219.47 M 294.86 207.81 C 289.48 211.63 290.24 218.91 286.71 223.97 C 285.08 230.79 293.36 232.83 298.41 233.62 C 294.99 234.31 291.59 235.10 288.28 236.19 C 289.33 238.62 291.92 237.38 293.82 236.96 C 300.38 235.19 307.74 232.92 314.30 235.86 C 316.62 236.70 318.93 239.98 321.18 237.21 C 318.46 234.90 315.25 233.30 311.78 232.49 C 323.02 230.59 324.66 216.33 320.09 207.91 C 313.84 200.55 301.70 201.96 294.86 207.81 M 292.54 297.90 C 289.83 304.61 295.34 311.11 300.36 314.92 C 297.10 309.46 292.04 304.83 292.54 297.90 Z" />
<path fill="#fefefe" opacity="1.00" d=" M 366.42 180.54 C 367.25 177.19 369.50 174.46 372.32 172.54 C 373.81 177.01 368.73 180.27 369.31 184.90 C 369.46 195.42 367.19 206.42 370.86 216.49 C 371.72 222.70 371.05 229.00 371.09 235.24 C 371.57 235.29 372.51 235.38 372.99 235.43 C 375.61 221.76 368.08 205.65 379.09 194.33 C 385.31 204.55 379.79 217.10 383.05 228.13 C 387.51 246.75 400.40 265.19 393.22 284.90 C 410.52 304.56 417.59 330.73 429.11 353.85 C 439.75 372.52 457.04 386.17 473.68 399.26 C 478.32 402.12 479.65 407.69 482.96 411.47 C 483.07 410.60 483.29 408.84 483.40 407.96 C 488.34 412.30 493.10 417.25 495.18 423.64 C 498.71 433.80 495.52 444.85 491.03 454.17 C 484.70 466.81 473.43 478.14 459.03 480.54 C 448.59 482.41 438.42 476.84 431.64 469.25 C 418.29 454.86 412.84 435.50 406.45 417.44 C 400.51 404.01 404.24 388.91 400.76 374.94 C 395.61 352.14 387.83 329.22 373.30 310.59 C 371.02 307.44 367.78 304.92 366.35 301.21 C 362.09 300.85 358.16 298.97 354.95 296.20 C 347.86 290.13 339.23 286.40 331.18 281.83 C 323.96 277.80 316.25 274.20 307.88 273.63 C 304.50 273.07 299.82 272.79 298.51 268.99 C 298.79 262.04 307.24 259.74 312.95 260.71 C 322.16 262.32 332.27 267.58 341.20 262.15 C 351.63 254.92 352.95 240.54 351.79 228.92 C 350.68 217.03 347.71 202.90 356.66 193.16 C 355.13 204.74 355.91 216.44 357.03 228.02 C 357.12 229.35 357.84 230.29 359.18 230.82 C 359.36 216.16 354.77 200.26 361.83 186.56 C 360.22 200.39 360.65 214.34 361.25 228.22 C 361.87 228.24 363.10 228.28 363.72 228.30 C 364.05 212.39 361.96 196.08 366.42 180.54 Z" />
</g>
<g id="#fb0101ff">
<path fill="#fb0101" opacity="1.00" d=" M 266.13 60.04 C 269.69 59.99 273.26 59.98 276.83 60.00 C 276.90 65.35 276.90 70.70 276.84 76.05 C 277.62 76.04 279.18 76.02 279.96 76.01 C 280.00 70.67 279.99 65.34 279.98 60.00 C 283.56 59.99 287.14 60.00 290.72 60.03 C 290.72 73.68 290.75 87.33 290.73 100.99 C 287.15 101.02 283.57 101.02 279.99 101.01 C 280.00 95.34 280.00 89.66 279.96 83.99 C 279.18 83.98 277.62 83.96 276.84 83.95 C 276.90 89.63 276.89 95.31 276.84 100.99 C 273.27 101.03 269.71 101.02 266.14 101.01 C 266.12 87.35 266.14 73.70 266.13 60.04 Z" />
<path fill="#fb0101" opacity="1.00" d=" M 321.82 60.01 C 325.27 59.97 328.71 59.98 332.16 60.03 C 332.13 63.08 332.10 66.12 332.04 69.17 C 336.10 65.91 344.01 66.10 345.21 72.10 C 345.86 81.71 345.26 91.39 345.45 101.03 C 342.05 101.03 338.65 101.01 335.26 100.97 C 335.17 91.69 335.49 82.39 335.07 73.11 C 334.38 73.14 333.02 73.22 332.34 73.25 C 331.92 82.50 332.22 91.77 332.15 101.03 C 328.71 101.04 325.26 101.02 321.82 100.95 C 321.92 87.30 321.94 73.66 321.82 60.01 Z" />
</g>
<g id="#fa0202ff">
<path fill="#fa0202" opacity="1.00" d=" M 348.76 60.05 C 352.53 59.99 356.29 59.98 360.06 60.01 C 359.53 70.33 358.92 80.65 358.43 90.97 C 355.77 90.98 353.11 90.98 350.45 90.98 C 349.92 80.67 349.39 70.36 348.76 60.05 Z" />
<path fill="#fa0202" opacity="1.00" d=" M 174.99 489.02 C 180.87 478.57 197.43 478.44 204.99 487.01 C 208.34 491.58 207.70 497.63 207.94 502.98 C 203.01 503.04 198.09 503.01 193.17 502.99 C 193.21 499.06 193.13 495.12 192.61 491.23 C 191.38 491.19 190.15 491.16 188.92 491.14 C 188.02 503.92 188.12 516.89 188.88 529.68 C 189.72 529.80 191.40 530.03 192.23 530.15 C 194.26 525.77 193.33 520.86 193.60 516.22 C 192.84 516.12 191.33 515.93 190.58 515.83 C 190.60 513.21 190.60 510.60 190.60 507.99 C 196.38 508.01 202.16 507.99 207.95 508.00 C 207.83 518.33 207.84 528.67 207.93 539.01 C 204.74 539.03 201.56 539.01 198.37 538.87 C 198.05 537.63 197.74 536.40 197.43 535.18 C 192.23 542.83 180.02 540.73 175.72 533.28 C 172.39 527.07 173.85 519.74 173.53 513.00 C 173.90 505.03 172.49 496.73 174.99 489.02 Z" />
<path fill="#fa0202" opacity="1.00" d=" M 246.15 492.04 C 250.50 491.97 254.86 491.96 259.22 492.10 C 260.60 503.07 262.43 513.98 264.10 524.91 C 264.88 513.95 265.92 503.02 266.56 492.06 C 274.78 491.97 283.00 491.92 291.22 492.10 C 292.60 503.07 294.43 513.98 296.10 524.91 C 296.88 513.95 297.92 503.02 298.56 492.06 C 306.78 491.97 315.00 491.92 323.22 492.10 C 324.60 503.07 326.44 513.98 328.10 524.92 C 328.88 513.96 329.92 503.02 330.56 492.06 C 339.09 491.92 347.62 492.01 356.15 492.02 C 357.67 502.99 359.42 513.92 361.09 524.87 C 361.90 513.92 362.91 502.99 363.59 492.03 C 371.78 491.95 379.96 492.00 388.15 492.02 C 389.67 502.99 391.42 513.92 393.10 524.87 C 393.89 513.92 394.91 502.99 395.59 492.04 C 399.81 491.98 404.03 491.97 408.25 492.02 C 406.66 505.62 404.99 519.21 403.32 532.80 C 402.68 537.29 401.72 542.96 396.91 544.80 C 391.01 546.76 384.68 545.82 378.59 545.96 C 378.59 543.69 378.59 541.43 378.58 539.17 C 380.68 538.96 382.78 538.73 384.88 538.46 C 382.48 524.14 379.00 510.00 375.85 495.83 C 374.22 508.38 372.85 520.98 371.21 533.53 C 370.59 537.81 369.46 543.09 364.91 544.79 C 359.02 546.76 352.68 545.82 346.59 545.96 C 346.59 543.69 346.59 541.43 346.58 539.17 C 348.68 538.96 350.78 538.73 352.88 538.46 C 350.33 523.15 346.45 508.08 343.32 492.87 C 341.26 506.84 339.97 520.92 338.01 534.91 C 337.40 538.81 335.87 543.36 331.79 544.83 C 325.93 546.83 319.63 545.76 313.56 545.97 C 313.58 543.71 313.60 541.45 313.60 539.20 C 315.71 538.96 317.83 538.71 319.94 538.41 C 317.40 524.12 314.05 509.97 310.85 495.82 C 309.22 508.53 307.81 521.27 306.16 533.98 C 305.58 538.17 304.21 543.22 299.79 544.83 C 293.93 546.83 287.62 545.76 281.56 545.97 C 281.58 543.71 281.60 541.46 281.60 539.21 C 283.73 538.96 285.86 538.69 287.98 538.37 C 285.32 524.12 282.09 509.96 278.85 495.83 C 277.22 508.53 275.81 521.27 274.16 533.97 C 273.58 538.16 272.21 543.21 267.79 544.83 C 261.93 546.83 255.63 545.76 249.56 545.97 C 249.58 543.71 249.60 541.46 249.60 539.21 C 251.73 538.96 253.86 538.69 255.98 538.37 C 253.13 522.85 249.40 507.49 246.15 492.04 Z" />
</g>
<g id="#f90302ff">
<path fill="#f90302" opacity="1.00" d=" M 298.72 68.74 C 304.30 65.86 313.34 65.88 316.59 72.12 C 318.38 81.62 317.06 91.41 317.48 101.02 C 314.16 101.02 310.84 101.02 307.52 101.03 C 307.55 100.31 307.60 98.87 307.63 98.15 C 304.40 101.45 298.76 102.16 295.49 98.53 C 293.81 94.92 294.20 90.59 294.87 86.77 C 297.79 83.18 302.96 83.03 306.66 80.56 C 307.93 78.32 306.98 75.59 306.86 73.17 C 306.20 73.18 304.89 73.20 304.24 73.20 C 304.08 75.81 304.00 78.41 303.95 81.02 C 300.73 81.02 297.52 81.00 294.31 80.95 C 294.24 76.56 294.26 71.11 298.72 68.74 M 304.19 94.71 C 304.92 94.77 306.38 94.90 307.12 94.97 C 307.29 91.87 307.33 88.78 307.28 85.68 C 303.54 87.22 303.77 91.33 304.19 94.71 Z" />
</g>
<g id="#f3f8f6ff">
<path fill="#f3f8f6" opacity="1.00" d=" M 304.19 94.71 C 303.77 91.33 303.54 87.22 307.28 85.68 C 307.33 88.78 307.29 91.87 307.12 94.97 C 306.38 94.90 304.92 94.77 304.19 94.71 Z" />
</g>
<g id="#f80504ff">
<path fill="#f80504" opacity="1.00" d=" M 349.60 92.96 C 352.83 92.96 356.07 92.98 359.31 93.03 C 359.27 95.71 359.26 98.39 359.27 101.06 C 356.04 101.03 352.81 101.02 349.58 101.02 C 349.58 98.34 349.58 95.65 349.60 92.96 Z" />
</g>
<g id="#1d1e19ff">
<path fill="#1d1e19" opacity="1.00" d=" M 267.88 129.91 C 282.18 113.10 306.03 108.75 327.02 111.05 C 335.71 111.94 345.33 112.69 352.00 119.04 C 360.95 127.37 364.20 139.80 366.12 151.46 C 370.78 151.28 376.69 150.96 379.79 155.18 C 385.17 162.44 387.57 171.33 390.44 179.77 C 396.06 198.17 390.72 217.47 387.95 235.70 C 392.58 250.33 399.68 265.39 396.74 281.09 C 396.36 284.34 398.63 287.12 400.20 289.77 C 406.49 298.50 411.26 308.19 416.01 317.81 C 429.41 320.68 441.48 328.28 450.74 338.25 C 459.05 347.41 463.56 359.20 471.11 368.91 C 475.82 375.06 479.36 381.98 483.71 388.37 C 487.43 393.88 493.49 397.33 497.03 403.00 C 502.10 411.32 503.16 421.96 499.27 430.96 C 499.05 447.55 490.61 463.47 478.18 474.23 C 467.92 483.01 452.23 486.62 439.94 480.03 C 429.15 474.28 422.61 463.39 417.14 452.89 C 414.37 462.40 413.21 472.26 412.34 482.09 C 411.89 482.14 411.01 482.23 410.57 482.28 C 410.90 487.77 411.02 493.28 411.22 498.78 C 409.27 497.44 409.85 494.99 409.81 493.03 C 410.27 478.65 410.73 463.76 415.93 450.19 C 410.25 437.88 406.23 424.92 401.61 412.20 C 398.96 401.27 400.80 389.83 398.63 378.82 C 395.18 361.11 389.59 343.73 381.22 327.72 C 377.10 339.72 378.37 352.61 378.85 365.05 C 379.23 368.50 377.39 373.82 372.99 372.01 C 358.98 367.00 349.71 354.57 338.26 345.74 C 334.78 342.70 330.75 346.83 328.15 349.15 C 315.75 362.49 305.90 378.10 292.59 390.63 C 291.25 391.79 288.54 394.59 288.65 390.99 C 300.13 379.93 309.71 367.14 319.75 354.80 C 324.13 349.25 329.33 344.39 335.24 340.50 C 349.30 349.35 358.58 366.43 376.08 369.19 C 377.03 354.46 374.27 339.07 379.71 324.93 C 375.32 317.42 370.37 310.08 364.07 304.04 C 359.78 302.41 355.46 300.71 351.92 297.67 C 346.04 307.41 341.28 317.96 333.34 326.31 C 319.91 340.50 307.83 355.96 297.32 372.42 C 290.86 385.29 279.52 395.60 276.13 409.97 C 272.61 424.72 271.93 440.01 267.85 454.65 C 267.04 457.04 266.93 460.89 263.44 460.52 C 267.97 444.96 269.39 428.78 272.54 412.94 C 274.21 403.30 279.14 394.75 284.94 387.03 C 279.82 370.11 266.95 356.21 252.59 346.55 C 252.73 343.54 255.96 340.90 257.22 338.00 C 242.11 349.22 225.63 360.41 206.42 362.42 C 210.27 334.95 227.22 311.09 246.42 291.87 C 241.74 292.65 236.91 293.27 232.23 292.16 C 207.55 305.62 182.28 318.56 160.53 336.60 C 144.34 350.12 129.73 365.87 119.08 384.16 C 112.66 392.31 106.55 400.69 100.99 409.41 C 100.69 407.78 100.41 406.01 101.43 404.56 C 107.10 393.92 116.21 385.60 121.84 374.93 C 133.70 357.75 148.48 342.62 165.05 329.95 C 187.20 313.20 212.13 300.75 236.33 287.33 C 241.35 284.22 247.48 286.22 252.99 285.18 C 261.06 284.42 266.25 276.75 274.20 275.67 C 277.38 275.12 280.82 275.30 283.74 273.75 C 286.46 272.04 285.37 267.50 282.62 266.41 C 277.43 264.24 271.63 268.11 266.50 265.72 C 261.63 262.91 257.40 257.93 257.29 252.07 C 257.80 233.41 264.50 215.58 265.48 196.97 C 265.85 191.43 264.92 185.78 262.28 180.85 C 261.20 195.18 254.78 208.57 254.66 223.01 C 254.63 224.22 254.00 225.09 252.80 225.61 C 250.31 206.85 265.01 188.55 257.49 170.16 C 256.27 171.14 255.05 172.13 253.84 173.11 C 256.32 186.47 250.36 199.30 246.58 211.81 C 245.47 214.80 245.45 218.42 242.91 220.67 C 242.87 203.79 258.05 186.77 249.66 169.85 C 250.08 188.37 238.50 203.89 232.36 220.64 C 231.88 219.80 231.51 218.93 231.25 218.01 C 236.30 201.41 249.50 186.26 246.89 168.02 C 242.85 169.03 241.44 173.18 239.19 176.19 C 228.06 192.60 214.44 208.69 211.22 228.87 C 209.43 241.02 214.36 252.80 214.83 264.90 C 214.30 264.76 213.25 264.48 212.72 264.34 C 212.06 259.45 211.19 254.58 210.55 249.69 C 195.96 260.26 184.78 274.74 170.24 285.36 C 149.58 299.68 124.73 306.62 104.50 321.61 C 81.97 336.18 53.77 347.09 41.65 372.84 C 33.17 391.45 38.21 415.72 54.48 428.47 C 63.89 435.96 76.77 437.66 88.29 435.12 C 101.07 432.29 113.35 427.62 125.83 423.70 C 130.15 422.63 133.44 419.51 137.02 417.07 C 145.99 410.71 155.71 405.32 164.02 398.09 C 169.08 377.57 165.33 356.24 165.42 335.37 C 166.95 336.08 167.73 337.37 167.50 339.04 C 167.62 350.06 169.02 361.02 169.15 372.04 C 169.27 383.44 166.89 394.65 166.05 405.98 C 164.53 425.32 164.27 444.84 160.40 463.91 C 159.84 463.92 158.73 463.93 158.17 463.93 C 161.96 443.37 162.46 422.44 164.06 401.65 C 155.96 407.77 147.37 413.19 138.96 418.89 C 134.82 421.60 131.18 425.29 126.22 426.49 C 109.22 431.94 92.19 439.83 73.94 438.91 C 53.83 437.65 38.27 419.22 35.83 399.98 C 33.56 384.41 39.02 368.17 49.73 356.73 C 66.77 338.03 90.86 328.56 111.04 313.97 C 131.44 301.77 155.15 295.15 173.47 279.50 C 185.81 268.63 197.64 257.16 209.79 246.11 C 207.11 235.15 208.84 223.55 213.23 213.27 C 220.34 196.40 232.61 182.52 242.08 167.04 C 243.42 165.42 245.89 165.56 247.77 164.88 C 253.59 152.77 259.76 140.67 267.88 129.91 M 302.66 131.82 C 281.75 138.44 268.88 158.31 261.86 178.00 C 262.46 178.19 263.65 178.56 264.25 178.75 C 266.40 182.82 267.85 187.30 267.88 191.95 C 268.32 211.03 261.15 229.19 259.54 248.04 C 258.66 254.94 263.41 261.79 270.02 263.65 C 274.72 264.08 279.61 262.10 284.18 263.91 C 288.92 265.74 288.83 273.25 284.63 275.66 C 279.87 278.45 273.89 277.45 269.05 280.13 C 264.36 282.69 260.14 286.31 254.77 287.42 C 258.97 291.91 256.93 298.47 257.71 303.97 C 258.44 315.54 265.70 325.03 271.36 334.66 C 279.63 348.00 283.63 363.49 292.15 376.69 C 297.94 365.70 305.88 356.08 313.08 346.02 C 321.15 334.89 332.26 326.24 339.42 314.41 C 343.31 308.48 346.10 301.88 350.43 296.24 C 336.41 288.03 322.66 277.49 305.95 275.92 C 302.43 275.22 297.54 274.78 296.15 270.86 C 295.26 266.31 299.03 262.79 302.02 259.98 C 294.89 260.08 287.35 260.42 280.78 257.17 C 278.53 255.98 275.42 254.20 276.63 251.16 C 283.33 256.93 292.61 257.22 301.00 257.27 C 312.16 257.16 322.70 253.12 332.65 248.45 C 332.60 249.10 332.50 250.41 332.45 251.07 C 327.22 254.71 320.93 256.46 314.93 258.39 C 323.18 260.10 332.64 264.64 340.55 259.48 C 349.37 253.07 350.19 241.04 349.35 231.07 C 348.50 218.45 345.02 203.58 354.00 192.98 C 357.85 190.12 358.85 184.97 362.82 182.30 C 363.12 180.90 363.47 179.52 363.61 178.10 C 361.21 168.24 358.03 158.55 353.70 149.37 C 343.68 132.44 320.92 125.67 302.66 131.82 M 366.42 180.54 C 361.96 196.08 364.05 212.39 363.72 228.30 C 363.10 228.28 361.87 228.24 361.25 228.22 C 360.65 214.34 360.22 200.39 361.83 186.56 C 354.77 200.26 359.36 216.16 359.18 230.82 C 357.84 230.29 357.12 229.35 357.03 228.02 C 355.91 216.44 355.13 204.74 356.66 193.16 C 347.71 202.90 350.68 217.03 351.79 228.92 C 352.95 240.54 351.63 254.92 341.20 262.15 C 332.27 267.58 322.16 262.32 312.95 260.71 C 307.24 259.74 298.79 262.04 298.51 268.99 C 299.82 272.79 304.50 273.07 307.88 273.63 C 316.25 274.20 323.96 277.80 331.18 281.83 C 339.23 286.40 347.86 290.13 354.95 296.20 C 358.16 298.97 362.09 300.85 366.35 301.21 C 367.78 304.92 371.02 307.44 373.30 310.59 C 387.83 329.22 395.61 352.14 400.76 374.94 C 404.24 388.91 400.51 404.01 406.45 417.44 C 412.84 435.50 418.29 454.86 431.64 469.25 C 438.42 476.84 448.59 482.41 459.03 480.54 C 473.43 478.14 484.70 466.81 491.03 454.17 C 495.52 444.85 498.71 433.80 495.18 423.64 C 493.10 417.25 488.34 412.30 483.40 407.96 C 483.29 408.84 483.07 410.60 482.96 411.47 C 479.65 407.69 478.32 402.12 473.68 399.26 C 457.04 386.17 439.75 372.52 429.11 353.85 C 417.59 330.73 410.52 304.56 393.22 284.90 C 400.40 265.19 387.51 246.75 383.05 228.13 C 379.79 217.10 385.31 204.55 379.09 194.33 C 368.08 205.65 375.61 221.76 372.99 235.43 C 372.51 235.38 371.57 235.29 371.09 235.24 C 371.05 229.00 371.72 222.70 370.86 216.49 C 367.19 206.42 369.46 195.42 369.31 184.90 C 368.73 180.27 373.81 177.01 372.32 172.54 C 369.50 174.46 367.25 177.19 366.42 180.54 M 374.53 176.95 C 370.23 184.91 372.05 194.25 371.34 202.89 C 372.69 198.78 374.18 194.32 378.06 191.90 C 378.24 187.05 381.49 178.38 374.53 176.95 M 235.95 289.64 C 240.49 290.35 244.99 289.12 249.45 288.37 C 244.92 288.25 240.17 287.61 235.95 289.64 M 208.92 359.38 C 227.82 356.35 243.40 344.66 258.69 334.04 C 260.33 338.28 257.84 342.20 255.27 345.38 C 269.86 354.01 280.76 368.31 287.22 383.82 C 288.28 382.05 289.34 380.27 290.36 378.47 C 282.69 366.52 278.72 352.70 271.65 340.45 C 265.81 329.44 257.49 319.24 255.75 306.54 C 254.84 300.90 256.94 294.41 253.11 289.55 C 232.08 307.70 215.03 331.96 208.92 359.38 M 417.31 320.67 C 422.44 331.43 425.84 342.96 431.58 353.42 C 438.57 364.72 447.78 374.52 457.76 383.23 C 465.49 390.18 474.82 395.27 481.44 403.41 C 489.85 408.43 495.97 416.67 498.64 426.08 C 499.45 417.67 498.01 408.32 492.00 401.97 C 485.46 395.97 480.13 388.87 476.12 380.95 C 469.31 371.01 461.65 361.63 456.25 350.77 C 447.85 336.23 433.39 325.33 417.31 320.67 Z" />
<path fill="#1d1e19" opacity="1.00" d=" M 278.58 161.59 C 281.32 159.77 284.68 160.29 287.78 160.31 C 287.49 160.60 286.91 161.19 286.62 161.48 C 283.94 161.53 281.26 161.66 278.58 161.59 Z" />
</g>
<g id="#1e1e1eff">
<path fill="#1e1e1e" opacity="1.00" d=" M 303.66 137.72 C 312.24 134.90 323.64 132.98 330.89 139.66 C 322.39 134.71 312.79 136.72 303.66 137.72 Z" />
<path fill="#1e1e1e" opacity="1.00" d=" M 309.32 142.06 C 313.71 139.05 320.53 139.08 325.14 141.45 C 319.85 141.31 314.55 141.06 309.32 142.06 Z" />
<path fill="#1e1e1e" opacity="1.00" d=" M 335.63 161.34 C 338.99 160.91 342.08 162.34 344.87 164.04 C 344.51 164.20 343.78 164.53 343.42 164.69 C 340.90 163.40 338.20 162.52 335.63 161.34 Z" />
<path fill="#1e1e1e" opacity="1.00" d=" M 300.76 194.78 C 297.33 192.50 298.73 187.88 302.02 186.31 C 305.07 187.85 305.94 191.61 304.13 194.46 C 301.49 194.53 303.23 190.86 302.56 189.32 C 301.89 191.12 301.34 192.95 300.76 194.78 Z" />
<path fill="#1e1e1e" opacity="1.00" d=" M 294.31 198.65 C 291.83 195.39 291.93 188.92 297.08 188.59 C 298.74 190.53 296.11 191.76 295.10 193.14 C 295.28 195.02 295.41 196.98 294.31 198.65 Z" />
<path fill="#1e1e1e" opacity="1.00" d=" M 283.33 219.47 C 283.95 208.71 286.00 196.86 292.74 188.15 C 287.42 197.88 285.88 208.87 283.33 219.47 Z" />
</g>
<g id="#1d1e1bff">
<path fill="#1d1e1b" opacity="1.00" d=" M 277.44 157.53 C 280.11 151.30 288.65 148.42 295.09 149.20 C 298.05 149.85 302.78 154.52 299.87 156.98 C 292.45 154.95 284.47 153.24 277.44 157.53 Z" />
</g>
<g id="#1d1d1aff">
<path fill="#1d1d1a" opacity="1.00" d=" M 324.94 154.63 C 329.72 142.77 348.84 151.26 346.23 162.61 C 340.25 157.34 333.30 153.17 324.94 154.63 Z" />
</g>
<g id="#1b1c18ff">
<path fill="#1b1c18" opacity="1.00" d=" M 307.85 161.53 C 308.51 161.49 309.83 161.43 310.48 161.39 C 308.60 168.16 306.67 174.93 304.51 181.61 C 303.81 181.85 302.40 182.32 301.70 182.56 C 303.21 175.42 305.27 168.35 307.85 161.53 Z" />
<path fill="#1b1c18" opacity="1.00" d=" M 311.91 187.86 C 314.75 187.55 318.72 187.54 319.57 191.02 C 320.89 194.88 316.67 197.46 313.27 196.63 C 314.50 195.37 315.90 194.29 317.32 193.26 C 316.59 192.06 315.84 190.89 315.08 189.73 C 314.54 191.52 313.85 193.27 311.82 193.73 C 311.80 191.77 311.83 189.81 311.91 187.86 Z" />
</g>
<g id="#1d1e1aff">
<path fill="#1d1e1a" opacity="1.00" d=" M 290.86 162.87 C 299.69 162.51 296.17 175.90 289.27 176.60 C 289.90 176.84 291.16 177.31 291.80 177.55 C 285.10 177.66 277.29 178.02 272.03 173.03 C 271.62 169.21 272.25 164.09 277.34 164.55 C 276.35 166.15 275.27 167.69 274.24 169.26 C 280.18 165.79 287.31 165.19 293.71 167.79 C 292.74 166.16 291.74 164.55 290.86 162.87 M 275.10 172.24 C 276.84 173.44 278.81 174.25 280.81 174.90 C 281.68 172.51 283.30 170.61 285.67 169.65 C 285.97 171.47 286.24 173.30 286.51 175.13 C 289.09 174.21 291.39 172.70 293.24 170.66 C 287.65 166.77 280.00 167.62 275.10 172.24 Z" />
</g>
<g id="#1e1f1cff">
<path fill="#1e1f1c" opacity="1.00" d=" M 324.27 167.89 C 325.82 165.07 328.32 162.88 331.68 162.75 C 330.44 164.88 328.53 166.46 326.86 168.23 C 334.52 167.05 342.58 168.61 348.24 174.18 C 347.86 172.40 347.42 170.63 346.96 168.87 C 347.64 168.34 348.32 167.82 349.01 167.30 C 350.18 170.09 351.36 173.56 349.41 176.28 C 345.97 178.97 341.52 179.54 337.30 179.70 C 339.66 180.30 342.01 180.91 344.30 181.76 C 338.59 182.11 333.27 179.25 327.56 179.03 C 329.34 178.73 331.11 178.52 332.91 178.33 C 328.83 176.06 324.98 172.78 324.27 167.89 M 328.21 171.05 C 329.37 172.14 330.56 173.23 331.75 174.31 C 333.32 173.21 334.75 170.86 336.96 171.86 C 337.12 173.46 336.63 175.02 336.30 176.57 C 339.40 176.87 342.53 176.72 345.53 175.79 C 340.97 171.33 334.35 169.99 328.21 171.05 Z" />
</g>
<g id="#fbfcf7ff">
<path fill="#fbfcf7" opacity="1.00" d=" M 275.10 172.24 C 280.00 167.62 287.65 166.77 293.24 170.66 C 291.39 172.70 289.09 174.21 286.51 175.13 C 286.24 173.30 285.97 171.47 285.67 169.65 C 283.30 170.61 281.68 172.51 280.81 174.90 C 278.81 174.25 276.84 173.44 275.10 172.24 Z" />
<path fill="#fbfcf7" opacity="1.00" d=" M 328.21 171.05 C 334.35 169.99 340.97 171.33 345.53 175.79 C 342.53 176.72 339.40 176.87 336.30 176.57 C 336.63 175.02 337.12 173.46 336.96 171.86 C 334.75 170.86 333.32 173.21 331.75 174.31 C 330.56 173.23 329.37 172.14 328.21 171.05 Z" />
<path fill="#fbfcf7" opacity="1.00" d=" M 235.95 289.64 C 240.17 287.61 244.92 288.25 249.45 288.37 C 244.99 289.12 240.49 290.35 235.95 289.64 Z" />
</g>
<g id="#fdfefdff">
<path fill="#fdfefd" opacity="1.00" d=" M 374.53 176.95 C 381.49 178.38 378.24 187.05 378.06 191.90 C 374.18 194.32 372.69 198.78 371.34 202.89 C 372.05 194.25 370.23 184.91 374.53 176.95 Z" />
</g>
<g id="#1b1b1bff">
<path fill="#1b1b1b" opacity="1.00" d=" M 277.13 179.95 C 280.40 178.56 283.98 178.10 287.50 178.03 C 284.30 179.62 280.67 180.13 277.13 179.95 Z" />
<path fill="#1b1b1b" opacity="1.00" d=" M 323.81 185.79 C 324.30 185.76 325.27 185.69 325.76 185.66 C 327.66 194.09 332.25 202.01 331.79 210.87 C 331.03 211.15 330.27 211.44 329.51 211.72 C 330.02 202.57 324.02 194.74 323.81 185.79 Z" />
<path fill="#1b1b1b" opacity="1.00" d=" M 292.54 297.90 C 292.04 304.83 297.10 309.46 300.36 314.92 C 295.34 311.11 289.83 304.61 292.54 297.90 Z" />
<path fill="#1b1b1b" opacity="1.00" d=" M 283.96 403.07 C 284.40 400.22 286.64 398.09 288.00 395.65 C 293.49 395.54 294.36 402.77 291.01 405.93 C 288.75 408.33 283.50 406.67 283.96 403.07 M 286.08 401.97 C 286.30 402.58 286.76 403.78 286.98 404.38 C 290.50 404.93 291.19 401.39 289.98 398.75 C 288.65 399.79 287.35 400.87 286.08 401.97 Z" />
</g>
<g id="#1e1e1bff">
<path fill="#1e1e1b" opacity="1.00" d=" M 294.86 207.81 C 301.70 201.96 313.84 200.55 320.09 207.91 C 324.66 216.33 323.02 230.59 311.78 232.49 C 315.25 233.30 318.46 234.90 321.18 237.21 C 318.93 239.98 316.62 236.70 314.30 235.86 C 307.74 232.92 300.38 235.19 293.82 236.96 C 291.92 237.38 289.33 238.62 288.28 236.19 C 291.59 235.10 294.99 234.31 298.41 233.62 C 293.36 232.83 285.08 230.79 286.71 223.97 C 290.24 218.91 289.48 211.63 294.86 207.81 M 291.77 219.95 C 290.51 221.79 289.06 223.63 288.70 225.90 C 290.35 230.36 296.05 230.28 300.01 230.54 C 306.33 230.41 313.82 230.50 318.56 225.62 C 320.08 220.82 320.62 215.16 318.47 210.48 C 310.94 200.43 290.88 206.90 291.77 219.95 Z" />
<path fill="#1e1e1b" opacity="1.00" d=" M 296.13 212.08 C 300.05 206.48 308.86 205.02 314.58 208.54 C 318.86 211.77 317.30 217.43 316.15 221.78 C 317.14 222.63 317.73 223.67 317.92 224.90 C 314.54 225.21 311.48 222.82 308.03 223.20 C 301.83 222.76 296.23 226.10 290.14 226.34 C 293.91 222.40 294.32 216.93 296.13 212.08 M 301.07 212.83 C 301.88 212.82 303.50 212.79 304.31 212.77 C 304.52 211.04 304.74 209.32 304.96 207.60 C 302.30 208.21 301.25 210.30 301.07 212.83 M 306.85 207.72 C 306.33 209.23 305.84 210.75 305.36 212.28 C 306.46 212.59 307.56 212.90 308.66 213.21 C 309.10 211.39 309.58 209.59 310.08 207.79 C 309.27 207.77 307.66 207.74 306.85 207.72 M 312.73 213.56 C 313.11 211.97 313.49 210.38 313.86 208.79 C 310.22 207.33 308.40 213.93 312.73 213.56 M 298.74 210.77 C 295.19 215.13 303.81 211.36 298.74 210.77 M 314.41 211.84 C 313.60 215.98 318.29 211.06 314.41 211.84 M 296.50 214.35 C 295.68 217.31 294.91 220.29 294.13 223.26 C 300.81 221.23 307.98 220.06 314.84 221.96 C 315.21 219.61 315.62 217.27 316.05 214.93 C 309.56 214.12 303.02 213.80 296.50 214.35 Z" />
</g>
<g id="#fcfcfbff">
<path fill="#fcfcfb" opacity="1.00" d=" M 291.77 219.95 C 290.88 206.90 310.94 200.43 318.47 210.48 C 320.62 215.16 320.08 220.82 318.56 225.62 C 313.82 230.50 306.33 230.41 300.01 230.54 C 296.05 230.28 290.35 230.36 288.70 225.90 C 289.06 223.63 290.51 221.79 291.77 219.95 M 296.13 212.08 C 294.32 216.93 293.91 222.40 290.14 226.34 C 296.23 226.10 301.83 222.76 308.03 223.20 C 311.48 222.82 314.54 225.21 317.92 224.90 C 317.73 223.67 317.14 222.63 316.15 221.78 C 317.30 217.43 318.86 211.77 314.58 208.54 C 308.86 205.02 300.05 206.48 296.13 212.08 Z" />
<path fill="#fcfcfb" opacity="1.00" d=" M 301.07 212.83 C 301.25 210.30 302.30 208.21 304.96 207.60 C 304.74 209.32 304.52 211.04 304.31 212.77 C 303.50 212.79 301.88 212.82 301.07 212.83 Z" />
</g>
<g id="#fbfbfbff">
<path fill="#fbfbfb" opacity="1.00" d=" M 306.85 207.72 C 307.66 207.74 309.27 207.77 310.08 207.79 C 309.58 209.59 309.10 211.39 308.66 213.21 C 307.56 212.90 306.46 212.59 305.36 212.28 C 305.84 210.75 306.33 209.23 306.85 207.72 Z" />
<path fill="#fbfbfb" opacity="1.00" d=" M 312.73 213.56 C 308.40 213.93 310.22 207.33 313.86 208.79 C 313.49 210.38 313.11 211.97 312.73 213.56 Z" />
</g>
<g id="#fcfcfcff">
<path fill="#fcfcfc" opacity="1.00" d=" M 298.74 210.77 C 303.81 211.36 295.19 215.13 298.74 210.77 Z" />
<path fill="#fcfcfc" opacity="1.00" d=" M 296.50 214.35 C 303.02 213.80 309.56 214.12 316.05 214.93 C 315.62 217.27 315.21 219.61 314.84 221.96 C 307.98 220.06 300.81 221.23 294.13 223.26 C 294.91 220.29 295.68 217.31 296.50 214.35 Z" />
<path fill="#fcfcfc" opacity="1.00" d=" M 286.08 401.97 C 287.35 400.87 288.65 399.79 289.98 398.75 C 291.19 401.39 290.50 404.93 286.98 404.38 C 286.76 403.78 286.30 402.58 286.08 401.97 Z" />
</g>
<g id="#d7d7d7ff">
<path fill="#d7d7d7" opacity="1.00" d=" M 314.41 211.84 C 318.29 211.06 313.60 215.98 314.41 211.84 Z" />
</g>
<g id="#fefefdff">
<path fill="#fefefd" opacity="1.00" d=" M 208.92 359.38 C 215.03 331.96 232.08 307.70 253.11 289.55 C 256.94 294.41 254.84 300.90 255.75 306.54 C 257.49 319.24 265.81 329.44 271.65 340.45 C 278.72 352.70 282.69 366.52 290.36 378.47 C 289.34 380.27 288.28 382.05 287.22 383.82 C 280.76 368.31 269.86 354.01 255.27 345.38 C 257.84 342.20 260.33 338.28 258.69 334.04 C 243.40 344.66 227.82 356.35 208.92 359.38 Z" />
</g>
<g id="#fdfdfdff">
<path fill="#fdfdfd" opacity="1.00" d=" M 417.31 320.67 C 433.39 325.33 447.85 336.23 456.25 350.77 C 461.65 361.63 469.31 371.01 476.12 380.95 C 480.13 388.87 485.46 395.97 492.00 401.97 C 498.01 408.32 499.45 417.67 498.64 426.08 C 495.97 416.67 489.85 408.43 481.44 403.41 C 474.82 395.27 465.49 390.18 457.76 383.23 C 447.78 374.52 438.57 364.72 431.58 353.42 C 425.84 342.96 422.44 331.43 417.31 320.67 Z" />
</g>
<g id="#fc0100ff">
<path fill="#fc0100" opacity="1.00" d=" M 410.57 482.28 C 411.01 482.23 411.89 482.14 412.34 482.09 C 416.94 481.80 421.55 482.06 426.16 482.06 C 425.33 496.37 424.53 510.68 423.84 525.00 C 420.14 525.04 416.44 525.02 412.74 524.90 C 412.44 516.18 412.01 507.46 411.22 498.78 C 411.02 493.28 410.90 487.77 410.57 482.28 Z" />
<path fill="#fc0100" opacity="1.00" d=" M 411.75 527.98 C 416.16 527.97 420.58 527.98 425.00 528.00 C 425.00 531.65 425.01 535.30 425.08 538.96 C 420.62 539.04 416.17 539.04 411.72 538.92 C 411.74 535.27 411.74 531.62 411.75 527.98 Z" />
</g>
<g id="#fb0201ff">
<path fill="#fb0201" opacity="1.00" d=" M 219.82 492.89 C 227.87 489.19 242.11 489.95 244.28 500.44 C 245.47 513.23 244.86 526.14 244.97 538.98 C 240.36 539.03 235.76 539.02 231.16 539.02 C 231.14 538.16 231.11 536.42 231.09 535.56 C 227.01 542.24 214.63 541.27 213.32 533.05 C 212.87 527.95 211.85 522.09 214.53 517.46 C 218.97 513.36 225.29 512.31 230.43 509.30 C 230.38 505.58 232.48 498.44 226.58 498.91 C 226.27 502.59 226.27 506.29 226.23 509.98 C 221.76 510.00 217.28 509.99 212.81 510.08 C 212.67 503.79 212.95 495.65 219.82 492.89 M 226.59 530.57 C 226.88 532.40 229.05 531.66 230.33 531.94 C 230.85 526.69 230.75 521.41 230.67 516.15 C 225.89 519.37 225.61 525.39 226.59 530.57 Z" />
</g>
<g id="#fafdfcff">
<path fill="#fafdfc" opacity="1.00" d=" M 226.59 530.57 C 225.61 525.39 225.89 519.37 230.67 516.15 C 230.75 521.41 230.85 526.69 230.33 531.94 C 229.05 531.66 226.88 532.40 226.59 530.57 Z" />
</g>
</svg>
