<?xml version="1.0" encoding="UTF-8" ?>
<!DOCTYPE svg PUBLIC "-//W3C//DTD SVG 1.1//EN" "http://www.w3.org/Graphics/SVG/1.1/DTD/svg11.dtd">
<svg width="703pt" height="700pt" viewBox="0 0 703 700" version="1.1" xmlns="http://www.w3.org/2000/svg">
<path fill="#000000" opacity="1.00" d=" M 299.85 17.80 C 311.16 14.70 322.62 12.17 334.02 9.42 C 321.20 15.53 306.35 15.28 293.37 20.82 C 303.93 19.86 314.61 19.52 324.92 16.80 C 353.93 19.06 383.33 13.00 412.11 18.76 L 411.01 16.87 C 412.34 16.85 413.68 16.86 415.02 16.91 C 419.07 18.11 423.50 18.57 426.93 21.27 C 428.25 22.37 429.95 21.66 431.41 21.30 C 444.63 24.31 457.80 27.55 470.78 31.49 C 465.09 25.72 457.07 23.53 449.98 20.03 C 446.80 18.65 444.05 16.39 440.67 15.44 C 440.81 15.22 441.08 14.79 441.22 14.58 C 452.62 18.73 462.78 25.47 473.24 31.48 C 491.41 42.16 512.73 46.13 530.58 57.44 C 542.32 65.10 550.58 77.02 562.62 84.26 C 569.28 88.40 575.61 93.35 580.10 99.87 C 585.17 107.19 589.72 114.85 594.26 122.51 C 599.72 132.10 605.93 141.32 610.35 151.47 C 613.75 158.98 614.05 167.43 617.09 175.07 C 622.09 187.44 629.26 198.95 632.79 211.89 C 633.95 215.50 632.82 219.33 633.67 222.99 C 638.20 243.21 643.87 263.16 648.33 283.39 C 653.71 307.25 656.44 331.62 658.18 355.99 C 658.60 360.74 657.99 365.62 659.46 370.23 C 658.95 371.87 656.79 372.07 655.54 373.01 C 658.66 381.66 656.50 390.80 654.73 399.47 C 653.57 404.19 655.27 409.40 652.65 413.76 C 651.49 415.07 649.63 415.93 649.37 417.85 C 643.73 436.25 639.44 455.12 631.97 472.91 C 627.15 484.32 620.71 495.08 612.53 504.40 C 610.34 506.65 609.73 509.82 608.38 512.55 C 602.19 526.10 592.29 537.44 582.32 548.33 C 572.78 558.52 564.14 569.52 554.61 579.73 C 550.29 584.40 546.03 589.18 540.95 593.04 C 537.44 595.79 533.66 598.19 530.31 601.14 C 515.68 614.70 499.43 626.94 480.90 634.63 C 459.88 643.60 437.59 648.99 416.09 656.64 C 394.72 663.98 372.02 665.72 350.09 670.70 C 346.35 671.82 342.17 671.43 338.85 673.76 C 337.06 675.06 334.90 674.59 332.93 674.06 C 335.44 673.46 338.34 673.62 340.40 671.83 C 320.77 673.75 301.38 669.26 282.07 666.47 C 274.75 665.28 267.16 665.93 260.04 663.58 C 248.09 659.68 237.94 652.03 227.11 645.88 C 216.72 639.60 205.23 635.49 193.89 631.29 C 189.33 629.61 184.19 629.09 180.27 625.97 C 174.60 621.64 171.84 614.83 168.01 609.04 C 162.33 600.28 152.31 596.09 144.60 589.48 C 136.74 582.55 129.11 575.35 121.77 567.87 C 121.39 568.02 120.62 568.33 120.23 568.49 C 108.98 554.58 100.70 538.55 93.70 522.17 C 83.97 499.32 76.08 475.73 65.83 453.10 C 57.25 434.32 48.95 415.37 42.13 395.87 C 39.55 388.56 35.53 381.76 33.96 374.12 C 30.56 359.28 32.94 343.84 29.70 328.98 C 35.01 314.79 30.06 298.91 36.29 284.93 C 34.81 280.04 36.21 274.81 34.34 270.01 C 37.16 265.67 37.79 260.43 40.00 255.82 C 41.72 253.10 39.73 250.01 39.79 247.10 C 39.47 233.87 48.61 222.34 47.57 209.00 C 46.86 202.04 50.81 195.96 54.00 190.14 C 58.30 182.82 62.97 175.72 67.44 168.51 C 79.41 149.36 94.45 132.35 110.41 116.45 C 119.81 107.31 125.60 94.95 136.04 86.80 C 139.84 83.66 145.00 83.00 148.88 79.98 C 159.30 72.27 168.87 63.24 180.54 57.38 C 194.51 50.48 209.38 45.67 224.04 40.49 C 229.14 38.58 234.57 37.26 239.07 34.04 C 239.55 34.41 240.50 35.15 240.98 35.52 C 247.38 34.35 254.10 32.87 259.14 28.44 C 259.66 29.09 260.18 29.74 260.70 30.40 C 266.84 30.94 271.16 25.40 277.05 24.82 C 277.42 25.32 278.18 26.31 278.56 26.81 C 282.11 22.10 288.46 20.87 294.02 21.57 C 292.90 21.22 291.80 20.86 290.70 20.48 C 291.33 20.49 292.60 20.51 293.23 20.51 C 295.26 19.24 297.52 18.39 299.85 17.80 M 282.98 36.11 C 273.79 39.12 264.41 41.48 255.06 43.90 C 246.66 46.02 237.98 47.07 229.75 49.86 C 223.45 51.96 218.63 57.11 212.12 58.73 C 208.60 59.60 204.88 59.80 201.55 61.37 C 182.20 70.12 164.29 81.65 146.48 93.14 C 145.75 94.77 144.86 96.33 143.95 97.86 C 143.40 97.11 142.85 96.35 142.30 95.59 C 137.02 97.91 132.71 101.88 129.51 106.63 C 126.05 111.80 120.72 115.14 116.01 119.01 C 112.77 121.51 112.57 125.90 111.27 129.47 C 110.52 129.51 109.03 129.61 108.29 129.65 L 111.02 130.28 C 104.75 134.66 100.15 141.05 97.39 148.14 C 95.67 151.80 95.03 156.08 92.18 159.12 C 77.83 175.48 69.64 195.90 59.64 214.94 C 60.26 216.17 62.48 217.25 61.51 218.86 C 59.11 224.18 57.68 229.85 56.38 235.52 L 55.46 235.32 C 55.59 236.13 55.86 237.75 55.99 238.56 C 55.63 237.92 54.92 236.62 54.56 235.97 C 53.30 238.89 51.77 241.68 50.23 244.47 C 43.17 256.67 43.37 271.25 42.58 284.90 C 44.05 283.25 44.44 281.03 45.06 279.00 C 47.41 270.37 48.15 261.42 48.85 252.55 C 51.70 248.11 53.45 243.17 54.96 238.15 C 54.65 243.56 51.96 248.45 49.31 253.05 C 49.74 261.10 48.48 269.09 46.98 276.97 C 46.22 280.58 45.46 284.63 42.28 286.95 C 41.59 293.36 40.45 299.74 38.21 305.81 C 39.91 310.67 41.13 315.99 40.00 321.12 C 39.01 325.63 40.87 330.64 38.26 334.74 C 38.48 335.33 38.93 336.51 39.15 337.10 L 39.87 336.32 C 39.72 334.60 39.66 332.88 39.87 331.17 C 41.06 348.42 47.85 364.56 52.56 381.03 C 56.58 395.67 60.74 410.28 64.71 424.94 C 55.05 396.52 46.15 367.80 40.01 338.40 L 38.74 337.30 C 35.33 352.27 44.75 365.41 49.18 378.99 C 51.76 385.35 50.38 392.34 51.75 398.94 C 54.91 414.22 61.44 428.74 70.57 441.38 C 73.97 449.56 77.93 457.52 80.73 465.94 C 84.95 478.11 87.72 490.83 93.52 502.41 C 94.02 502.45 95.03 502.51 95.53 502.54 C 97.36 505.78 98.44 509.36 100.07 512.69 C 99.20 512.46 97.45 511.99 96.58 511.75 C 103.35 521.30 109.01 531.69 113.15 542.64 C 113.67 541.80 114.18 540.96 114.69 540.12 C 118.05 548.07 124.23 554.35 128.17 561.98 C 129.23 563.77 129.94 566.05 132.10 566.81 C 147.67 574.44 158.89 588.08 171.38 599.68 C 182.23 610.02 194.15 620.60 209.23 623.88 C 209.72 625.94 210.10 628.04 210.54 630.13 C 217.70 634.65 225.24 638.56 232.93 642.12 C 251.23 650.64 270.46 657.51 290.47 660.63 C 291.66 661.38 292.81 662.23 294.20 662.65 C 294.99 661.92 295.76 661.16 296.49 660.38 C 300.64 662.46 305.62 661.26 309.81 663.50 C 317.40 660.47 325.60 662.42 332.92 665.26 C 342.52 661.52 352.98 663.21 362.93 661.50 C 373.48 660.10 383.81 657.43 394.08 654.69 C 402.09 652.62 409.08 647.82 417.12 645.82 C 424.65 644.06 432.64 644.13 439.82 640.95 C 448.06 637.32 454.69 631.01 462.43 626.51 C 476.97 618.15 493.27 613.26 507.46 604.23 C 516.21 598.57 523.48 590.98 531.85 584.80 C 548.13 573.01 564.49 560.71 577.02 544.81 C 582.98 536.47 588.88 528.08 594.94 519.80 C 605.29 505.27 616.33 491.01 623.83 474.71 C 630.74 459.88 635.66 444.08 638.20 427.91 C 639.65 420.00 638.16 411.97 638.71 404.00 C 639.61 381.36 641.70 358.70 640.42 336.02 C 639.77 320.58 636.85 305.31 632.24 290.57 C 629.05 277.31 624.50 264.42 621.35 251.16 C 618.60 240.77 620.91 229.70 617.43 219.46 C 614.79 210.95 610.87 202.93 607.70 194.62 C 603.10 182.18 599.14 169.51 594.67 157.02 C 588.41 139.88 581.68 122.44 570.12 108.08 C 556.98 93.11 541.48 80.35 525.20 68.95 C 511.85 59.42 496.51 53.18 483.21 43.60 C 481.66 42.60 479.71 42.93 477.98 42.71 C 457.32 41.35 438.03 33.22 418.01 28.71 C 405.22 25.66 391.94 24.89 378.92 26.72 C 370.26 23.52 360.92 25.14 351.96 23.76 C 346.02 23.38 339.97 22.54 334.06 23.59 C 317.22 28.51 299.69 30.71 282.98 36.11 M 200.62 55.89 C 203.44 54.56 206.64 53.44 208.38 50.65 C 205.60 52.02 202.19 52.95 200.62 55.89 M 173.63 67.87 C 176.13 67.31 178.68 66.34 180.03 64.01 C 177.66 64.84 175.32 65.94 173.63 67.87 M 531.31 65.09 C 530.24 67.82 533.41 68.15 535.19 68.79 C 534.64 66.89 532.94 65.95 531.31 65.09 M 625.56 227.59 C 626.69 230.47 627.18 233.62 628.73 236.34 C 628.37 233.35 629.42 228.57 625.56 227.59 M 113.97 543.92 C 117.53 549.53 120.10 555.98 125.13 560.51 C 123.88 553.41 116.54 549.33 114.85 542.37 C 114.55 542.87 114.25 543.39 113.97 543.92 Z" />
<path fill="#505050" opacity="1.00" d=" M 374.55 10.32 C 382.99 11.00 391.37 12.45 399.87 11.88 C 405.01 13.19 410.00 15.16 415.02 16.91 C 413.68 16.86 412.34 16.85 411.01 16.87 L 410.30 16.87 C 400.86 12.30 390.10 13.68 380.03 12.16 C 378.06 12.02 376.21 11.37 374.55 10.32 Z" />
<path fill="#000000" opacity="1.00" d=" M 260.62 27.17 C 267.44 23.89 272.81 18.06 279.95 15.27 C 276.29 20.05 269.96 21.43 265.43 25.18 C 266.67 25.39 269.15 25.83 270.39 26.05 C 267.76 27.41 264.74 27.44 261.97 28.35 C 261.52 27.96 261.06 27.56 260.62 27.17 Z" />
<path fill="#ffffff" opacity="1.00" d=" M 282.98 36.11 C 299.69 30.71 317.22 28.51 334.06 23.59 C 339.97 22.54 346.02 23.38 351.96 23.76 C 360.92 25.14 370.26 23.52 378.92 26.72 C 391.94 24.89 405.22 25.66 418.01 28.71 C 438.03 33.22 457.32 41.35 477.98 42.71 C 479.71 42.93 481.66 42.60 483.21 43.60 C 496.51 53.18 511.85 59.42 525.20 68.95 C 541.48 80.35 556.98 93.11 570.12 108.08 C 581.68 122.44 588.41 139.88 594.67 157.02 C 599.14 169.51 603.10 182.18 607.70 194.62 C 610.87 202.93 614.79 210.95 617.43 219.46 C 620.91 229.70 618.60 240.77 621.35 251.16 C 624.50 264.42 629.05 277.31 632.24 290.57 C 636.85 305.31 639.77 320.58 640.42 336.02 C 641.70 358.70 639.61 381.36 638.71 404.00 C 638.16 411.97 639.65 420.00 638.20 427.91 C 635.66 444.08 630.74 459.88 623.83 474.71 C 616.33 491.01 605.29 505.27 594.94 519.80 C 588.88 528.08 582.98 536.47 577.02 544.81 C 564.49 560.71 548.13 573.01 531.85 584.80 C 523.48 590.98 516.21 598.57 507.46 604.23 C 493.27 613.26 476.97 618.15 462.43 626.51 C 454.69 631.01 448.06 637.32 439.82 640.95 C 432.64 644.13 424.65 644.06 417.12 645.82 C 409.08 647.82 402.09 652.62 394.08 654.69 C 383.81 657.43 373.48 660.10 362.93 661.50 C 352.98 663.21 342.52 661.52 332.92 665.26 C 325.60 662.42 317.40 660.47 309.81 663.50 C 305.62 661.26 300.64 662.46 296.49 660.38 C 295.76 661.16 294.99 661.92 294.20 662.65 C 292.81 662.23 291.66 661.38 290.47 660.63 C 270.46 657.51 251.23 650.64 232.93 642.12 C 225.24 638.56 217.70 634.65 210.54 630.13 C 210.10 628.04 209.72 625.94 209.23 623.88 C 194.15 620.60 182.23 610.02 171.38 599.68 C 158.89 588.08 147.67 574.44 132.10 566.81 C 129.94 566.05 129.23 563.77 128.17 561.98 C 124.23 554.35 118.05 548.07 114.69 540.12 C 114.18 540.96 113.67 541.80 113.15 542.64 C 109.01 531.69 103.35 521.30 96.58 511.75 C 97.45 511.99 99.20 512.46 100.07 512.69 C 98.44 509.36 97.36 505.78 95.53 502.54 C 95.03 502.51 94.02 502.45 93.52 502.41 C 87.72 490.83 84.95 478.11 80.73 465.94 C 77.93 457.52 73.97 449.56 70.57 441.38 C 61.44 428.74 54.91 414.22 51.75 398.94 C 50.38 392.34 51.76 385.35 49.18 378.99 C 44.75 365.41 35.33 352.27 38.74 337.30 L 40.01 338.40 C 46.15 367.80 55.05 396.52 64.71 424.94 C 60.74 410.28 56.58 395.67 52.56 381.03 C 47.85 364.56 41.06 348.42 39.87 331.17 C 39.66 332.88 39.72 334.60 39.87 336.32 L 39.15 337.10 C 38.93 336.51 38.48 335.33 38.26 334.74 C 40.87 330.64 39.01 325.63 40.00 321.12 C 41.13 315.99 39.91 310.67 38.21 305.81 C 40.45 299.74 41.59 293.36 42.28 286.95 C 45.46 284.63 46.22 280.58 46.98 276.97 C 48.48 269.09 49.74 261.10 49.31 253.05 C 51.96 248.45 54.65 243.56 54.96 238.15 C 53.45 243.17 51.70 248.11 48.85 252.55 C 48.15 261.42 47.41 270.37 45.06 279.00 C 44.44 281.03 44.05 283.25 42.58 284.90 C 43.37 271.25 43.17 256.67 50.23 244.47 C 51.77 241.68 53.30 238.89 54.56 235.97 C 54.92 236.62 55.63 237.92 55.99 238.56 C 55.86 237.75 55.59 236.13 55.46 235.32 L 56.38 235.52 C 57.68 229.85 59.11 224.18 61.51 218.86 C 62.48 217.25 60.26 216.17 59.64 214.94 C 69.64 195.90 77.83 175.48 92.18 159.12 C 95.03 156.08 95.67 151.80 97.39 148.14 C 100.15 141.05 104.75 134.66 111.02 130.28 L 108.29 129.65 C 109.03 129.61 110.52 129.51 111.27 129.47 C 112.57 125.90 112.77 121.51 116.01 119.01 C 120.72 115.14 126.05 111.80 129.51 106.63 C 132.71 101.88 137.02 97.91 142.30 95.59 C 142.85 96.35 143.40 97.11 143.95 97.86 C 144.86 96.33 145.75 94.77 146.48 93.14 C 164.29 81.65 182.20 70.12 201.55 61.37 C 204.88 59.80 208.60 59.60 212.12 58.73 C 218.63 57.11 223.45 51.96 229.75 49.86 C 237.98 47.07 246.66 46.02 255.06 43.90 C 264.41 41.48 273.79 39.12 282.98 36.11 M 137.62 100.78 C 139.44 100.31 141.17 99.59 142.90 98.85 C 142.26 98.75 140.99 98.54 140.35 98.44 C 139.41 99.19 138.49 99.95 137.62 100.78 M 279.90 294.32 C 281.61 294.64 283.35 294.90 284.97 295.61 C 282.33 296.28 279.67 295.88 277.06 295.43 C 272.91 296.72 268.58 297.13 264.32 297.89 C 264.54 298.41 264.97 299.44 265.19 299.96 C 262.77 298.80 260.17 298.17 257.50 298.04 C 257.61 298.44 257.83 299.23 257.94 299.63 C 253.68 299.21 249.74 301.16 245.98 302.87 C 240.46 307.34 232.79 307.03 227.14 311.21 C 223.58 314.05 221.59 318.26 218.56 321.58 C 215.89 324.65 214.03 328.27 212.10 331.82 C 209.59 336.21 211.81 341.32 211.76 346.03 C 212.77 351.30 212.29 356.66 212.36 361.98 C 211.77 366.08 213.62 369.91 213.95 373.92 C 214.62 380.84 216.36 387.78 220.02 393.75 C 208.85 395.42 197.65 390.78 186.56 393.52 C 188.06 395.14 190.14 395.94 192.13 396.79 C 188.94 398.18 185.89 395.60 182.63 395.76 C 183.13 399.18 186.69 399.13 189.33 399.75 C 183.55 402.91 176.81 403.03 170.58 404.74 C 176.41 407.66 182.94 405.16 189.01 405.13 C 200.30 408.92 208.88 417.57 216.97 425.92 C 216.56 422.25 213.71 419.78 211.66 416.97 C 215.52 417.39 218.84 419.43 221.64 422.02 C 240.83 416.78 260.77 420.29 280.16 422.07 L 280.44 421.48 L 280.67 420.72 C 281.52 420.82 283.22 421.00 284.07 421.10 C 283.07 419.04 282.28 416.89 281.41 414.79 C 285.68 417.21 290.00 420.11 295.16 419.76 C 291.00 421.29 286.47 421.76 282.49 423.76 C 287.62 423.79 292.70 422.89 297.59 421.35 C 299.53 421.00 301.88 419.70 303.52 421.45 C 305.81 420.60 308.28 420.60 310.62 419.96 L 310.41 419.44 C 306.47 418.02 302.80 416.02 299.74 413.11 C 298.14 413.86 296.04 414.01 295.29 415.89 C 297.04 416.13 298.80 416.36 300.56 416.58 C 297.79 419.34 294.30 416.19 293.08 413.40 C 293.94 413.57 294.80 413.75 295.67 413.94 C 296.79 412.44 298.10 411.10 299.81 410.28 C 303.41 414.17 309.34 415.30 311.93 420.14 C 315.42 420.56 318.98 419.95 322.50 419.79 C 322.42 418.92 322.27 417.16 322.20 416.29 C 320.13 414.81 318.23 413.09 316.86 410.94 C 319.79 412.42 322.36 414.50 324.66 416.83 L 325.28 414.66 C 328.84 413.74 332.63 415.48 336.33 414.95 C 336.36 414.17 336.44 412.62 336.47 411.84 C 338.37 413.23 340.21 414.69 342.25 415.88 C 340.43 415.77 338.62 415.77 336.82 415.86 C 343.08 417.84 349.75 418.01 356.24 418.73 C 352.86 416.47 348.89 415.52 344.87 415.26 C 349.71 412.33 354.23 416.90 358.94 417.71 C 359.64 416.59 360.37 415.50 361.15 414.44 C 360.94 417.45 359.46 420.19 359.24 423.21 C 361.17 422.97 363.11 422.85 365.05 422.72 C 366.38 421.21 365.96 418.96 366.34 417.13 C 367.31 418.78 368.28 420.43 369.42 422.00 C 369.05 419.38 368.33 416.81 368.35 414.17 C 370.22 415.74 369.53 418.32 370.11 420.41 C 370.70 420.10 371.90 419.47 372.50 419.16 C 373.57 419.85 374.65 420.53 375.76 421.19 C 376.28 415.51 376.53 409.64 374.97 404.10 C 374.11 400.78 371.64 397.87 368.10 397.39 C 370.17 397.01 372.20 396.41 373.99 395.26 C 366.19 393.55 358.13 393.71 350.19 393.53 C 353.13 390.51 355.34 386.82 356.21 382.67 C 354.01 381.96 352.29 380.78 353.86 378.14 C 353.11 378.48 351.61 379.15 350.86 379.48 L 351.00 377.47 C 349.32 377.56 347.65 377.66 345.98 377.74 C 346.75 375.94 347.54 374.16 348.19 372.32 C 348.80 374.79 350.88 376.32 352.15 378.41 C 352.63 377.95 353.11 377.50 353.60 377.06 C 353.11 376.52 352.12 375.44 351.62 374.89 C 353.59 375.73 355.53 376.73 357.74 376.64 C 357.04 375.69 355.65 373.78 354.96 372.83 C 355.65 372.79 357.02 372.70 357.71 372.66 C 356.53 371.14 355.37 368.60 353.02 369.47 C 351.48 369.58 350.74 370.45 350.79 372.08 C 351.52 372.19 352.97 372.40 353.70 372.50 C 352.99 373.01 352.24 373.44 351.45 373.80 C 348.07 370.96 347.91 365.98 348.04 361.91 C 348.10 358.42 350.05 354.21 354.29 355.01 C 352.18 353.55 349.86 352.40 347.29 352.06 C 346.82 346.99 347.90 340.82 343.72 337.00 C 341.62 333.00 339.77 328.81 338.87 324.35 C 344.74 328.37 343.50 337.84 350.59 340.59 C 349.37 343.54 349.20 347.58 352.34 349.38 C 351.95 344.56 352.61 339.44 350.51 334.94 C 349.73 335.95 349.07 337.04 348.38 338.12 C 346.04 333.61 343.77 329.07 341.25 324.67 C 339.06 321.04 335.81 317.63 331.56 316.61 C 331.12 315.28 327.65 311.21 328.24 314.71 L 328.58 315.35 L 328.81 316.16 C 327.71 315.39 325.73 314.88 326.08 313.12 C 326.94 308.04 321.48 305.78 317.75 303.96 C 313.25 303.05 309.51 300.56 305.74 298.11 C 305.84 298.82 306.02 300.25 306.12 300.96 L 303.63 300.66 C 304.28 301.36 305.57 302.76 306.22 303.46 C 303.62 303.62 300.96 303.78 298.49 302.81 C 298.26 300.81 297.22 298.91 294.81 299.07 C 296.37 297.97 298.10 297.05 300.07 297.43 C 296.31 299.19 300.39 300.31 301.68 301.11 L 301.55 298.96 C 302.53 298.74 304.49 298.30 305.47 298.08 C 297.64 293.77 288.48 294.52 279.90 294.32 M 484.12 307.97 C 476.83 313.67 470.68 320.68 465.66 328.44 C 464.11 331.86 463.32 335.58 461.59 338.93 C 460.58 341.21 458.73 343.29 458.88 345.93 C 458.90 361.32 462.57 376.54 462.20 391.93 C 461.71 392.20 460.71 392.74 460.21 393.01 C 460.30 393.33 460.46 393.96 460.54 394.28 C 454.50 394.65 448.40 395.56 442.86 398.10 C 449.32 403.51 447.38 412.85 451.21 419.69 C 452.54 418.16 452.64 416.10 453.24 414.26 C 455.44 415.06 454.79 418.95 457.50 419.55 C 457.47 417.17 457.17 414.82 456.96 412.46 C 460.19 412.26 459.76 416.07 460.88 418.12 C 461.22 417.63 461.90 416.63 462.24 416.13 C 463.03 416.44 463.83 416.74 464.64 417.04 C 464.57 416.08 464.44 414.16 464.37 413.20 C 466.17 414.67 467.69 414.73 468.38 412.37 C 471.67 413.14 474.60 410.72 477.87 411.11 C 479.32 411.93 480.41 413.23 481.65 414.32 L 482.18 411.77 C 483.28 413.89 484.04 416.17 484.85 418.43 C 485.97 417.22 486.75 415.80 487.26 414.25 C 489.18 414.49 491.22 414.18 493.08 414.80 C 493.70 415.71 494.28 416.65 494.82 417.62 C 497.53 416.81 500.10 415.18 502.98 415.15 C 504.91 416.01 505.07 418.43 506.06 420.06 C 507.29 417.77 506.52 415.14 506.63 412.68 C 509.33 413.80 508.21 417.90 511.48 418.51 C 512.11 416.42 511.20 414.47 510.51 412.55 C 513.60 411.95 514.13 414.91 514.97 417.07 C 515.11 415.13 515.19 413.20 515.27 411.27 C 515.58 411.56 516.19 412.13 516.50 412.41 C 516.46 414.41 516.41 416.42 516.55 418.43 C 520.00 418.27 518.75 414.61 519.67 412.39 C 519.79 413.34 520.05 415.22 520.17 416.16 C 521.72 414.63 523.15 412.20 525.63 412.35 C 527.13 413.86 527.37 416.20 528.80 417.80 C 528.95 415.47 528.79 413.13 528.72 410.81 C 531.24 412.16 532.06 414.84 532.90 417.36 C 534.93 415.68 533.65 413.20 532.98 411.20 C 533.86 410.62 534.75 410.04 535.64 409.47 C 537.42 411.71 538.11 414.50 538.90 417.20 C 541.35 415.33 539.39 412.42 539.09 410.02 C 541.54 410.12 542.73 411.62 542.68 414.04 C 547.73 410.40 553.65 407.95 559.89 407.44 C 562.78 406.97 565.93 407.53 568.62 406.12 C 566.75 405.75 564.86 405.55 562.98 405.30 C 566.47 403.41 570.29 405.18 573.91 405.63 C 576.44 406.06 579.01 405.71 581.54 405.36 C 580.30 402.19 579.17 397.77 582.54 395.47 C 588.46 391.50 596.22 392.13 602.21 388.23 C 593.73 385.14 584.60 384.57 575.68 385.45 C 576.00 375.80 580.32 366.72 579.91 357.01 C 579.98 353.26 578.91 349.67 577.92 346.11 C 578.58 346.56 579.92 347.48 580.59 347.93 C 580.09 343.97 580.17 339.98 579.89 336.01 C 579.48 334.37 578.93 332.53 577.27 331.75 C 573.90 327.63 569.32 324.76 565.67 320.92 C 565.32 321.19 564.62 321.71 564.27 321.98 C 563.10 320.47 561.91 318.95 561.15 317.20 C 557.24 313.95 553.38 310.67 549.47 307.44 C 546.84 305.06 543.09 305.06 539.86 304.11 C 536.37 303.49 532.74 301.46 529.30 303.45 C 529.35 302.98 529.44 302.06 529.49 301.59 C 525.63 300.91 521.90 299.56 518.00 299.13 C 506.43 300.85 494.92 303.36 484.12 307.97 M 342.52 428.05 C 343.29 429.27 345.02 431.12 343.32 432.37 C 339.43 435.29 334.30 435.47 329.81 436.94 C 333.37 440.10 337.96 435.42 341.87 437.18 C 342.30 438.21 342.60 439.28 342.77 440.40 C 351.47 437.05 361.84 436.45 370.47 440.30 C 363.45 441.15 354.19 441.64 350.91 449.11 C 344.75 449.28 338.55 448.76 332.42 449.52 C 346.85 454.28 362.34 450.48 377.17 452.44 C 381.76 453.20 386.43 452.66 391.06 453.06 C 394.63 453.09 398.39 453.60 401.77 452.16 C 397.24 451.66 392.67 451.79 388.12 451.76 L 388.08 451.25 C 392.70 451.00 397.33 451.37 401.95 451.26 C 407.26 450.55 412.61 451.01 417.95 451.00 C 432.16 451.19 446.47 451.28 460.57 449.27 C 460.19 449.85 459.42 450.99 459.04 451.57 C 464.37 452.43 470.09 450.37 475.13 452.86 C 475.41 452.46 475.96 451.65 476.24 451.24 C 474.96 450.69 473.70 450.18 472.46 449.60 C 481.61 448.46 490.82 449.64 500.00 449.45 C 501.88 449.34 503.94 449.50 505.56 448.31 C 484.44 444.79 462.96 445.46 441.64 445.35 C 446.10 443.47 451.25 444.35 455.61 442.23 C 452.30 441.08 449.23 443.56 445.90 442.96 C 440.44 442.71 434.56 440.00 429.37 442.82 C 432.64 443.10 435.95 443.03 439.21 443.55 C 428.26 444.83 417.36 441.87 406.38 442.69 C 408.84 440.99 411.90 442.21 414.64 441.96 C 412.87 439.10 409.59 439.50 406.78 440.25 C 407.39 439.59 408.62 438.27 409.23 437.61 C 405.43 436.12 401.71 438.58 397.84 438.11 C 399.72 436.76 402.30 435.85 402.29 433.12 C 398.78 435.73 393.90 438.39 389.85 435.27 C 390.01 435.78 390.35 436.80 390.52 437.31 C 387.59 436.41 384.97 437.88 382.58 439.36 C 382.14 437.67 381.75 435.98 381.34 434.29 C 377.35 436.63 372.66 437.39 368.11 436.77 C 369.91 434.61 372.81 436.10 375.15 435.77 C 371.84 432.58 367.09 434.82 363.30 435.74 C 365.08 434.51 364.72 432.90 362.78 432.23 C 356.40 429.47 349.37 428.73 342.52 428.05 M 445.62 437.26 C 447.71 438.19 450.13 437.83 452.19 438.91 C 458.64 438.08 465.17 437.61 471.68 438.00 C 471.68 436.43 471.83 434.88 472.12 433.34 C 463.09 432.86 454.46 436.03 445.62 437.26 M 490.64 436.85 C 484.45 436.97 478.26 436.82 472.07 436.87 L 472.17 437.99 C 479.33 437.95 486.52 438.44 493.68 437.90 C 492.76 437.24 491.78 436.71 490.64 436.85 M 274.91 453.93 C 273.09 456.42 276.61 456.85 278.13 457.61 C 272.84 462.18 265.53 459.59 259.42 461.65 C 254.36 463.83 249.97 467.51 244.51 468.77 C 234.22 470.68 224.08 465.46 213.81 467.50 C 217.44 468.80 221.26 469.45 225.04 470.11 C 249.54 474.16 274.46 472.06 299.10 470.86 C 321.20 469.78 343.59 468.83 365.47 472.76 C 374.95 476.91 385.81 477.58 395.83 475.19 C 395.29 475.61 394.20 476.43 393.66 476.85 C 407.93 479.53 422.55 479.64 437.02 479.25 C 443.19 478.77 449.71 478.90 455.41 476.18 C 454.80 475.92 453.58 475.42 452.96 475.16 C 459.25 473.98 465.76 474.75 471.98 473.07 C 480.54 470.88 489.30 469.74 498.02 468.44 C 495.08 468.32 491.82 468.72 489.40 466.66 C 494.20 466.31 499.02 466.64 503.82 466.39 L 503.35 467.63 C 508.70 467.33 514.37 466.86 519.36 469.24 C 523.26 471.47 527.84 470.19 532.05 470.01 C 538.12 469.37 544.28 469.88 550.17 471.49 C 546.42 467.87 540.91 468.01 536.08 467.48 C 539.25 465.45 543.10 467.01 546.59 466.71 C 545.26 465.56 543.77 464.66 542.12 464.03 C 542.54 463.69 543.38 463.02 543.79 462.68 C 529.58 462.61 515.28 461.92 501.10 463.50 C 495.01 464.06 489.21 466.27 483.11 466.75 C 472.95 467.85 462.76 466.71 452.59 466.47 L 453.18 465.15 C 441.13 465.36 429.08 465.83 417.02 465.75 C 405.34 465.75 393.69 464.56 382.01 464.44 C 361.36 463.86 340.67 465.08 320.05 463.86 C 321.54 463.29 323.06 462.79 324.61 462.36 C 320.72 459.75 317.64 465.22 313.52 463.93 C 314.45 462.54 315.86 461.64 317.16 460.64 C 314.76 460.09 309.67 461.92 311.59 465.02 C 309.63 464.08 307.43 463.46 305.85 461.88 C 305.36 462.22 304.87 462.57 304.39 462.93 L 307.03 463.61 C 305.35 465.23 303.79 463.65 302.47 462.69 C 303.23 462.15 303.99 461.61 304.77 461.09 L 301.82 458.89 C 301.79 461.16 301.92 464.87 299.01 465.39 C 295.88 464.66 292.82 463.61 289.76 462.66 C 291.01 462.69 293.51 462.73 294.76 462.75 C 294.03 462.01 292.56 460.52 291.83 459.78 C 294.82 459.90 297.31 461.43 299.20 463.68 C 299.80 462.93 301.01 461.44 301.62 460.69 C 297.46 458.71 292.47 458.51 288.98 455.09 C 286.74 455.98 284.49 457.19 282.02 457.09 C 279.31 456.93 277.32 454.89 274.91 453.93 Z" />
<path fill="#000000" opacity="1.00" d=" M 247.57 31.91 C 249.89 29.91 252.79 28.42 255.95 28.73 C 254.02 31.43 250.52 31.47 247.57 31.91 Z" />
<path fill="#f4f4f4" opacity="1.00" d=" M 200.62 55.89 C 202.19 52.95 205.60 52.02 208.38 50.65 C 206.64 53.44 203.44 54.56 200.62 55.89 Z" />
<path fill="#000000" opacity="1.00" d=" M 533.07 53.99 C 535.32 53.87 536.78 55.50 538.09 57.09 C 535.98 56.86 534.30 55.64 533.07 53.99 Z" />
<path fill="#f4f4f4" opacity="1.00" d=" M 173.63 67.87 C 175.32 65.94 177.66 64.84 180.03 64.01 C 178.68 66.34 176.13 67.31 173.63 67.87 Z" />
<path fill="#e5e5e5" opacity="1.00" d=" M 547.97 64.00 C 551.36 65.62 553.55 68.83 555.18 72.11 C 551.85 70.38 549.56 67.32 547.97 64.00 Z" />
<path fill="#f4f4f4" opacity="1.00" d=" M 531.31 65.09 C 532.94 65.95 534.64 66.89 535.19 68.79 C 533.41 68.15 530.24 67.82 531.31 65.09 Z" />
<path fill="#000000" opacity="1.00" d=" M 137.62 100.78 C 138.49 99.95 139.41 99.19 140.35 98.44 C 140.99 98.54 142.26 98.75 142.90 98.85 C 141.17 99.59 139.44 100.31 137.62 100.78 Z" />
<path fill="#505050" opacity="1.00" d=" M 639.19 139.94 C 641.75 142.30 642.91 145.62 643.90 148.86 C 642.38 145.86 640.65 142.97 639.19 139.94 Z" />
<path fill="#f4f4f4" opacity="1.00" d=" M 625.56 227.59 C 629.42 228.57 628.37 233.35 628.73 236.34 C 627.18 233.62 626.69 230.47 625.56 227.59 Z" />
<path fill="#000000" opacity="1.00" d=" M 279.90 294.32 C 288.48 294.52 297.64 293.77 305.47 298.08 C 304.49 298.30 302.53 298.74 301.55 298.96 L 301.68 301.11 C 300.39 300.31 296.31 299.19 300.07 297.43 C 298.10 297.05 296.37 297.97 294.81 299.07 C 297.22 298.91 298.26 300.81 298.49 302.81 C 300.96 303.78 303.62 303.62 306.22 303.46 C 305.57 302.76 304.28 301.36 303.63 300.66 L 306.12 300.96 C 306.02 300.25 305.84 298.82 305.74 298.11 C 309.51 300.56 313.25 303.05 317.75 303.96 C 321.48 305.78 326.94 308.04 326.08 313.12 C 325.73 314.88 327.71 315.39 328.81 316.16 L 328.58 315.35 L 328.24 314.71 C 327.65 311.21 331.12 315.28 331.56 316.61 C 335.81 317.63 339.06 321.04 341.25 324.67 C 343.77 329.07 346.04 333.61 348.38 338.12 C 349.07 337.04 349.73 335.95 350.51 334.94 C 352.61 339.44 351.95 344.56 352.34 349.38 C 349.20 347.58 349.37 343.54 350.59 340.59 C 343.50 337.84 344.74 328.37 338.87 324.35 C 339.77 328.81 341.62 333.00 343.72 337.00 C 347.90 340.82 346.82 346.99 347.29 352.06 C 349.86 352.40 352.18 353.55 354.29 355.01 C 350.05 354.21 348.10 358.42 348.04 361.91 C 347.91 365.98 348.07 370.96 351.45 373.80 C 352.24 373.44 352.99 373.01 353.70 372.50 C 352.97 372.40 351.52 372.19 350.79 372.08 C 350.74 370.45 351.48 369.58 353.02 369.47 C 355.37 368.60 356.53 371.14 357.71 372.66 C 357.02 372.70 355.65 372.79 354.96 372.83 C 355.65 373.78 357.04 375.69 357.74 376.64 C 355.53 376.73 353.59 375.73 351.62 374.89 C 352.12 375.44 353.11 376.52 353.60 377.06 C 353.11 377.50 352.63 377.95 352.15 378.41 C 350.88 376.32 348.80 374.79 348.19 372.32 C 347.54 374.16 346.75 375.94 345.98 377.74 C 347.65 377.66 349.32 377.56 351.00 377.47 L 350.86 379.48 C 351.61 379.15 353.11 378.48 353.86 378.14 C 352.29 380.78 354.01 381.96 356.21 382.67 C 355.34 386.82 353.13 390.51 350.19 393.53 C 358.13 393.71 366.19 393.55 373.99 395.26 C 372.20 396.41 370.17 397.01 368.10 397.39 C 371.64 397.87 374.11 400.78 374.97 404.10 C 376.53 409.64 376.28 415.51 375.76 421.19 C 374.65 420.53 373.57 419.85 372.50 419.16 C 371.90 419.47 370.70 420.10 370.11 420.41 C 369.53 418.32 370.22 415.74 368.35 414.17 C 368.33 416.81 369.05 419.38 369.42 422.00 C 368.28 420.43 367.31 418.78 366.34 417.13 C 365.96 418.96 366.38 421.21 365.05 422.72 C 363.11 422.85 361.17 422.97 359.24 423.21 C 359.46 420.19 360.94 417.45 361.15 414.44 C 360.37 415.50 359.64 416.59 358.94 417.71 C 354.23 416.90 349.71 412.33 344.87 415.26 C 348.89 415.52 352.86 416.47 356.24 418.73 C 349.75 418.01 343.08 417.84 336.82 415.86 C 338.62 415.77 340.43 415.77 342.25 415.88 C 340.21 414.69 338.37 413.23 336.47 411.84 C 336.44 412.62 336.36 414.17 336.33 414.95 C 332.63 415.48 328.84 413.74 325.28 414.66 L 324.66 416.83 C 322.36 414.50 319.79 412.42 316.86 410.94 C 318.23 413.09 320.13 414.81 322.20 416.29 C 322.27 417.16 322.42 418.92 322.50 419.79 C 318.98 419.95 315.42 420.56 311.93 420.14 C 309.34 415.30 303.41 414.17 299.81 410.28 C 298.10 411.10 296.79 412.44 295.67 413.94 C 294.80 413.75 293.94 413.57 293.08 413.40 C 294.30 416.19 297.79 419.34 300.56 416.58 C 298.80 416.36 297.04 416.13 295.29 415.89 C 296.04 414.01 298.14 413.86 299.74 413.11 C 302.80 416.02 306.47 418.02 310.41 419.44 L 310.62 419.96 C 308.28 420.60 305.81 420.60 303.52 421.45 C 301.88 419.70 299.53 421.00 297.59 421.35 C 292.70 422.89 287.62 423.79 282.49 423.76 C 286.47 421.76 291.00 421.29 295.16 419.76 C 290.00 420.11 285.68 417.21 281.41 414.79 C 282.28 416.89 283.07 419.04 284.07 421.10 C 283.22 421.00 281.52 420.82 280.67 420.72 L 280.44 421.48 L 280.16 422.07 C 260.77 420.29 240.83 416.78 221.64 422.02 C 218.84 419.43 215.52 417.39 211.66 416.97 C 213.71 419.78 216.56 422.25 216.97 425.92 C 208.88 417.57 200.30 408.92 189.01 405.13 C 182.94 405.16 176.41 407.66 170.58 404.74 C 176.81 403.03 183.55 402.91 189.33 399.75 C 186.69 399.13 183.13 399.18 182.63 395.76 C 185.89 395.60 188.94 398.18 192.13 396.79 C 190.14 395.94 188.06 395.14 186.56 393.52 C 197.65 390.78 208.85 395.42 220.02 393.75 C 216.36 387.78 214.62 380.84 213.95 373.92 C 213.62 369.91 211.77 366.08 212.36 361.98 C 212.29 356.66 212.77 351.30 211.76 346.03 C 211.81 341.32 209.59 336.21 212.10 331.82 C 214.03 328.27 215.89 324.65 218.56 321.58 C 221.59 318.26 223.58 314.05 227.14 311.21 C 232.79 307.03 240.46 307.34 245.98 302.87 C 249.74 301.16 253.68 299.21 257.94 299.63 C 257.83 299.23 257.61 298.44 257.50 298.04 C 260.17 298.17 262.77 298.80 265.19 299.96 C 264.97 299.44 264.54 298.41 264.32 297.89 C 268.58 297.13 272.91 296.72 277.06 295.43 C 279.67 295.88 282.33 296.28 284.97 295.61 C 283.35 294.90 281.61 294.64 279.90 294.32 M 289.31 299.82 C 291.22 302.08 294.22 302.34 296.98 302.26 C 294.79 300.53 292.07 299.83 289.31 299.82 M 241.28 311.58 C 245.82 309.57 249.99 306.75 254.04 303.89 C 249.17 304.65 242.72 306.11 241.28 311.58 M 296.87 304.85 C 299.76 307.05 303.49 307.24 306.98 307.13 C 304.36 304.33 300.36 304.60 296.87 304.85 M 282.10 313.52 C 282.44 314.31 282.77 315.10 283.11 315.90 C 286.63 315.91 290.16 316.00 293.68 315.77 C 290.56 312.68 285.67 315.95 282.10 313.52 M 266.82 317.36 C 267.86 317.96 268.88 318.56 269.90 319.20 C 273.73 316.99 278.16 317.11 282.38 316.53 C 277.22 313.42 272.13 318.09 266.82 317.36 M 259.58 318.44 C 259.11 319.17 258.61 319.88 258.09 320.58 C 252.48 319.58 249.14 324.87 246.09 328.56 C 251.58 328.09 257.95 325.35 259.96 319.85 C 262.07 320.00 264.15 319.59 266.23 319.31 C 264.93 316.34 261.93 317.86 259.58 318.44 M 290.41 317.53 C 293.31 318.95 296.58 318.19 299.60 317.65 C 296.66 316.41 293.44 317.18 290.41 317.53 M 271.33 320.63 C 271.35 321.21 271.39 322.35 271.41 322.93 C 270.12 322.96 268.82 323.00 267.53 323.04 C 267.16 324.79 266.60 326.50 265.77 328.09 C 265.57 327.22 265.17 325.47 264.97 324.60 C 263.68 324.85 262.40 325.10 261.12 325.37 C 262.83 327.67 264.29 330.46 267.28 331.29 C 266.44 332.19 266.07 334.46 264.43 333.59 C 261.66 331.55 260.52 328.11 258.33 325.55 C 257.73 325.76 256.53 326.17 255.93 326.37 L 256.15 326.88 C 256.47 326.99 257.10 327.21 257.41 327.31 L 257.63 327.51 C 254.06 330.27 251.05 335.54 245.85 334.48 C 244.73 336.52 244.67 338.83 245.08 341.09 C 243.85 341.84 242.64 342.62 241.46 343.46 C 240.79 343.55 239.43 343.74 238.76 343.83 C 238.77 344.49 238.80 345.81 238.81 346.47 C 237.17 348.29 235.80 350.32 234.49 352.39 C 237.10 353.63 237.75 349.29 239.41 348.13 C 239.12 349.75 238.76 351.38 238.36 352.99 C 235.80 353.49 235.87 356.14 235.44 358.16 C 238.10 359.25 240.09 361.34 238.90 364.38 C 237.61 362.32 237.11 359.01 233.89 359.73 C 233.87 363.09 233.88 366.46 233.87 369.82 C 237.05 369.64 239.69 371.35 242.10 373.22 C 240.68 374.66 239.34 376.16 238.01 377.67 C 237.14 377.74 235.39 377.87 234.52 377.93 C 235.29 380.29 237.60 381.40 239.46 382.76 C 239.43 381.98 239.37 380.41 239.34 379.63 C 241.10 380.78 242.13 382.50 242.22 384.65 C 245.89 383.80 248.57 387.60 252.16 386.60 C 252.63 387.84 253.08 389.08 253.52 390.34 C 256.14 390.29 258.10 391.62 259.23 393.97 C 259.77 392.09 258.53 390.60 257.34 389.31 C 258.69 388.95 260.03 388.54 261.36 388.10 C 264.51 389.22 268.34 391.43 271.36 388.84 C 269.50 388.00 267.72 386.98 266.85 385.02 C 273.60 385.62 278.36 391.50 279.90 397.72 C 282.99 396.49 280.92 394.15 279.80 392.26 C 281.47 392.87 283.17 393.48 284.91 393.88 C 283.55 392.62 282.06 391.53 280.57 390.44 C 282.07 390.62 283.57 390.59 285.06 390.36 C 286.19 392.35 286.99 394.54 288.38 396.38 C 289.38 397.81 291.09 396.97 292.06 396.01 C 292.51 394.21 290.42 393.67 289.41 392.77 C 289.79 392.07 290.53 390.67 290.91 389.97 C 294.17 391.75 296.47 394.64 298.83 397.42 C 299.57 392.65 294.98 389.89 293.06 386.10 C 296.38 388.28 298.17 391.93 300.39 395.09 C 300.98 394.56 302.15 393.48 302.74 392.94 C 302.03 392.45 301.31 391.97 300.60 391.50 C 300.29 390.61 299.98 389.73 299.67 388.86 C 300.82 388.69 301.98 388.50 303.14 388.30 C 305.11 389.68 306.44 391.65 307.22 393.91 C 309.31 391.36 306.79 388.73 305.75 386.39 C 308.20 387.89 310.02 390.20 312.53 391.62 C 312.85 388.74 310.36 386.95 309.00 384.75 C 313.85 385.09 313.06 391.58 317.37 392.87 L 317.68 391.29 C 318.38 391.25 319.78 391.18 320.48 391.14 C 321.51 388.29 314.92 386.24 319.34 384.53 L 319.46 386.32 C 321.00 386.01 322.52 385.61 323.95 384.93 C 325.97 383.50 323.85 381.36 323.38 379.71 C 326.41 382.06 327.17 385.95 328.95 389.15 C 331.62 386.71 333.45 383.50 335.08 380.32 C 333.43 380.05 331.76 379.97 330.10 379.87 C 331.86 378.07 332.89 375.80 333.73 373.46 C 333.86 375.41 333.89 377.37 333.97 379.33 C 338.14 379.60 336.16 375.11 335.64 372.75 C 338.29 370.34 336.32 366.48 336.70 363.37 C 335.59 363.83 334.52 364.39 333.46 364.95 C 333.05 364.85 332.22 364.66 331.81 364.56 C 332.09 367.65 335.25 369.29 335.75 372.35 C 333.54 372.73 331.23 373.20 329.68 374.97 C 326.62 371.43 321.94 370.08 317.40 370.06 C 318.15 372.48 319.44 374.68 320.50 376.97 C 319.88 378.04 319.27 379.13 318.67 380.21 C 314.96 380.04 311.42 378.85 307.79 378.18 C 311.46 376.23 315.46 380.53 318.88 378.06 C 319.78 375.23 316.99 372.93 316.22 370.35 C 320.07 367.23 324.57 370.93 328.65 371.61 C 329.34 367.37 333.14 362.43 329.18 358.73 C 331.64 359.35 334.02 360.24 336.51 360.80 C 336.63 359.74 336.50 358.73 336.13 357.79 C 333.98 357.60 331.82 357.70 329.68 357.55 C 331.52 356.73 333.53 356.58 335.51 356.35 C 334.01 352.47 329.33 349.98 325.74 352.98 C 327.25 353.63 328.80 354.23 330.32 354.87 C 326.78 355.72 322.50 354.42 319.77 357.40 C 318.59 358.47 317.53 356.24 316.60 355.69 C 319.14 355.37 322.01 355.77 324.11 354.00 C 325.71 352.98 326.07 351.00 326.76 349.37 C 329.47 350.49 332.32 351.35 335.30 351.06 C 333.89 346.64 332.25 341.25 327.82 339.07 C 328.01 340.17 328.41 342.35 328.60 343.44 C 325.38 341.61 327.11 338.33 327.74 335.63 C 323.83 332.68 320.34 327.26 314.72 328.50 C 313.85 327.90 312.98 327.30 312.11 326.71 C 313.65 329.90 312.55 333.35 309.67 335.32 C 309.73 331.77 309.88 328.08 308.02 324.90 C 309.73 324.70 311.44 324.54 313.15 324.38 C 309.94 321.82 305.91 320.87 302.16 319.44 C 302.44 320.79 304.11 322.59 302.62 323.72 C 298.85 326.28 293.95 325.69 289.63 325.66 C 289.92 326.68 290.50 328.72 290.79 329.74 C 289.16 329.03 287.68 328.09 286.21 327.12 L 286.35 329.37 C 285.90 329.30 284.99 329.17 284.54 329.10 C 284.48 326.82 286.31 325.39 287.41 323.64 C 291.92 325.45 296.51 323.23 300.80 321.85 C 296.36 318.56 290.64 318.60 285.37 318.51 L 285.49 319.90 C 284.66 319.59 283.00 318.97 282.17 318.67 C 278.51 319.05 274.90 319.74 271.33 320.63 M 332.02 319.16 C 332.53 324.60 337.08 328.29 339.09 333.15 C 340.95 327.29 334.51 323.70 332.02 319.16 M 247.31 332.38 C 251.09 333.19 253.79 329.84 256.23 327.53 L 256.15 326.88 C 252.51 326.88 250.13 330.47 247.31 332.38 M 237.50 331.74 C 234.99 335.30 232.19 338.89 231.24 343.25 C 233.70 340.52 235.27 337.17 237.24 334.10 C 239.51 332.85 241.88 331.73 244.08 330.33 C 243.49 329.55 242.91 328.78 242.32 328.01 C 240.81 329.38 239.19 330.60 237.50 331.74 M 237.54 336.27 C 238.10 337.45 238.67 338.63 239.24 339.81 C 241.14 337.79 243.04 335.70 244.07 333.09 C 241.30 332.67 240.07 335.76 237.54 336.27 M 339.05 335.46 C 339.94 337.77 340.19 340.52 342.18 342.24 C 342.31 341.58 342.58 340.25 342.72 339.59 C 341.42 338.27 340.33 336.78 339.05 335.46 M 229.31 357.21 C 234.77 353.04 237.87 345.87 237.73 339.06 C 230.73 342.27 232.43 351.33 229.31 357.21 M 232.25 360.65 C 230.41 364.01 230.08 367.98 231.39 371.59 C 233.89 368.47 232.30 364.27 232.25 360.65 M 234.06 373.67 C 234.80 374.59 235.75 375.31 236.63 376.11 C 237.42 374.97 238.23 373.85 239.03 372.72 C 237.29 372.40 235.57 372.76 234.06 373.67 M 231.33 373.50 C 230.49 374.61 230.47 376.43 231.31 377.55 C 232.73 377.33 232.77 373.69 231.33 373.50 M 344.42 380.10 L 346.52 380.89 C 345.78 381.91 345.09 382.95 344.52 384.08 C 345.97 384.45 347.44 384.77 348.92 385.04 C 348.22 384.44 346.82 383.24 346.11 382.64 C 346.86 382.36 347.61 382.09 348.36 381.83 C 349.89 382.21 351.42 382.58 352.97 382.93 C 351.20 385.23 348.39 386.34 346.74 388.77 C 344.70 390.17 342.96 389.12 342.05 387.07 C 341.84 388.49 341.58 389.88 341.34 391.30 C 343.18 391.15 344.96 390.72 346.76 390.31 L 346.60 392.25 C 350.01 390.26 351.11 386.21 353.64 383.40 C 351.39 380.84 347.90 377.30 344.42 380.10 M 238.85 384.57 C 239.30 385.85 239.76 387.14 240.20 388.43 C 243.06 388.00 244.13 390.68 245.76 392.43 C 246.17 388.32 242.96 384.65 238.85 384.57 M 322.66 385.87 C 322.24 387.18 321.83 388.50 321.50 389.85 C 323.20 389.06 324.97 388.50 326.81 388.15 C 325.43 387.37 324.05 386.61 322.66 385.87 M 245.75 386.61 C 245.39 387.91 247.35 389.00 248.44 388.55 C 248.69 387.31 246.87 386.00 245.75 386.61 M 274.18 394.80 C 275.03 394.20 275.89 393.63 276.78 393.08 C 275.66 391.07 274.63 388.84 272.30 387.98 C 272.55 390.34 273.51 392.54 274.18 394.80 M 262.07 389.47 C 263.87 392.70 267.64 398.26 271.61 394.42 C 267.15 395.60 266.28 389.46 262.07 389.47 M 302.76 390.25 C 303.00 390.75 303.49 391.74 303.73 392.24 C 306.38 393.20 304.30 388.39 302.76 390.25 M 237.05 409.13 C 237.14 409.80 237.31 411.14 237.40 411.81 C 236.97 411.99 236.10 412.36 235.67 412.55 C 237.75 412.77 239.82 413.16 241.91 413.38 C 241.09 411.97 239.75 411.13 238.26 410.56 C 237.96 410.20 237.35 409.49 237.05 409.13 M 331.26 409.32 C 329.85 410.53 328.42 411.74 327.15 413.11 C 328.96 412.47 330.60 411.09 332.65 411.66 C 332.18 410.87 331.72 410.09 331.26 409.32 M 305.59 410.57 C 304.19 413.95 308.33 413.98 310.43 414.93 C 309.13 413.16 307.45 411.71 305.59 410.57 M 248.36 413.28 C 248.14 413.65 247.68 414.40 247.45 414.77 C 248.93 415.05 250.41 415.30 251.90 415.55 C 251.68 416.22 251.25 417.56 251.03 418.23 C 253.53 418.58 256.05 418.34 258.55 418.03 C 255.58 415.62 251.86 414.62 248.36 413.28 M 222.73 419.03 C 225.27 420.07 228.01 419.43 230.60 419.01 C 229.85 418.20 229.29 417.28 229.10 416.19 C 230.36 416.77 232.89 417.92 234.15 418.49 C 233.15 417.01 231.72 416.00 230.18 415.20 C 227.86 416.81 223.70 415.83 222.73 419.03 M 277.45 416.64 C 276.34 418.02 274.57 417.65 273.02 417.78 C 274.46 420.16 277.22 420.03 279.70 419.86 C 278.95 418.78 278.17 417.73 277.45 416.64 M 312.19 416.01 C 311.52 417.32 313.65 418.84 314.78 418.03 C 315.46 416.71 313.31 415.18 312.19 416.01 Z" />
<path fill="#000000" opacity="1.00" d=" M 484.12 307.97 C 494.92 303.36 506.43 300.85 518.00 299.13 C 521.90 299.56 525.63 300.91 529.49 301.59 C 529.44 302.06 529.35 302.98 529.30 303.45 C 532.74 301.46 536.37 303.49 539.86 304.11 C 543.09 305.06 546.84 305.06 549.47 307.44 C 553.38 310.67 557.24 313.95 561.15 317.20 C 561.91 318.95 563.10 320.47 564.27 321.98 C 564.62 321.71 565.32 321.19 565.67 320.92 C 569.32 324.76 573.90 327.63 577.27 331.75 C 578.93 332.53 579.48 334.37 579.89 336.01 C 580.17 339.98 580.09 343.97 580.59 347.93 C 579.92 347.48 578.58 346.56 577.92 346.11 C 578.91 349.67 579.98 353.26 579.91 357.01 C 580.32 366.72 576.00 375.80 575.68 385.45 C 584.60 384.57 593.73 385.14 602.21 388.23 C 596.22 392.13 588.46 391.50 582.54 395.47 C 579.17 397.77 580.30 402.19 581.54 405.36 C 579.01 405.71 576.44 406.06 573.91 405.63 C 570.29 405.18 566.47 403.41 562.98 405.30 C 564.86 405.55 566.75 405.75 568.62 406.12 C 565.93 407.53 562.78 406.97 559.89 407.44 C 553.65 407.95 547.73 410.40 542.68 414.04 C 542.73 411.62 541.54 410.12 539.09 410.02 C 539.39 412.42 541.35 415.33 538.90 417.20 C 538.11 414.50 537.42 411.71 535.64 409.47 C 534.75 410.04 533.86 410.62 532.98 411.20 C 533.65 413.20 534.93 415.68 532.90 417.36 C 532.06 414.84 531.24 412.16 528.72 410.81 C 528.79 413.13 528.95 415.47 528.80 417.80 C 527.37 416.20 527.13 413.86 525.63 412.35 C 523.15 412.20 521.72 414.63 520.17 416.16 C 520.05 415.22 519.79 413.34 519.67 412.39 C 518.75 414.61 520.00 418.27 516.55 418.43 C 516.41 416.42 516.46 414.41 516.50 412.41 C 516.19 412.13 515.58 411.56 515.27 411.27 C 515.19 413.20 515.11 415.13 514.97 417.07 C 514.13 414.91 513.60 411.95 510.51 412.55 C 511.20 414.47 512.11 416.42 511.48 418.51 C 508.21 417.90 509.33 413.80 506.63 412.68 C 506.52 415.14 507.29 417.77 506.06 420.06 C 505.07 418.43 504.91 416.01 502.98 415.15 C 500.10 415.18 497.53 416.81 494.82 417.62 C 494.28 416.65 493.70 415.71 493.08 414.80 C 491.22 414.18 489.18 414.49 487.26 414.25 C 486.75 415.80 485.97 417.22 484.85 418.43 C 484.04 416.17 483.28 413.89 482.18 411.77 L 481.65 414.32 C 480.41 413.23 479.32 411.93 477.87 411.11 C 474.60 410.72 471.67 413.14 468.38 412.37 C 467.69 414.73 466.17 414.67 464.37 413.20 C 464.44 414.16 464.57 416.08 464.64 417.04 C 463.83 416.74 463.03 416.44 462.24 416.13 C 461.90 416.63 461.22 417.63 460.88 418.12 C 459.76 416.07 460.19 412.26 456.96 412.46 C 457.17 414.82 457.47 417.17 457.50 419.55 C 454.79 418.95 455.44 415.06 453.24 414.26 C 452.64 416.10 452.54 418.16 451.21 419.69 C 447.38 412.85 449.32 403.51 442.86 398.10 C 448.40 395.56 454.50 394.65 460.54 394.28 C 460.46 393.96 460.30 393.33 460.21 393.01 C 460.71 392.74 461.71 392.20 462.20 391.93 C 462.57 376.54 458.90 361.32 458.88 345.93 C 458.73 343.29 460.58 341.21 461.59 338.93 C 463.32 335.58 464.11 331.86 465.66 328.44 C 470.68 320.68 476.83 313.67 484.12 307.97 M 513.17 314.61 L 515.14 315.15 C 511.76 317.10 507.25 316.58 504.58 319.81 C 507.97 320.97 510.88 318.31 513.96 317.35 C 515.53 315.74 517.90 316.09 519.91 315.50 C 519.43 314.82 518.47 313.46 517.99 312.78 C 516.42 313.50 514.81 314.09 513.17 314.61 M 518.82 318.08 C 517.83 317.68 516.84 317.30 515.86 316.92 C 514.22 320.63 509.09 319.07 506.39 321.46 C 505.23 322.32 505.41 324.00 504.93 325.23 C 507.10 324.67 509.23 323.66 511.51 323.72 C 514.71 324.23 517.56 325.98 520.19 327.80 C 515.00 327.20 509.88 324.17 504.68 326.64 C 504.45 325.44 504.25 324.25 504.06 323.05 C 500.51 326.68 495.29 328.40 492.41 332.67 C 492.60 329.07 489.63 332.43 488.88 333.31 C 485.26 331.78 490.56 329.56 489.89 327.02 C 488.61 327.88 487.39 328.83 486.20 329.79 C 485.92 329.36 485.38 328.50 485.10 328.08 C 483.72 329.95 482.62 332.01 481.91 334.22 C 483.29 333.08 484.58 331.82 485.78 330.50 C 486.90 332.89 488.42 335.26 487.89 338.06 C 488.53 337.45 489.81 336.23 490.45 335.62 C 490.22 336.29 489.76 337.64 489.53 338.31 C 492.47 336.92 495.82 337.36 497.26 340.71 C 495.56 340.32 493.89 339.92 492.23 339.47 C 492.33 340.01 492.54 341.11 492.64 341.65 L 490.38 341.16 C 487.41 343.95 487.81 348.34 487.82 352.04 C 489.96 353.31 491.80 354.99 493.21 357.05 C 490.21 356.84 488.21 354.68 487.35 351.91 C 484.08 356.33 485.82 362.07 488.28 366.42 C 487.04 366.12 485.81 365.83 484.58 365.55 C 484.41 369.88 485.56 374.07 486.57 378.24 C 487.36 378.19 488.94 378.09 489.74 378.04 C 489.57 379.01 489.24 380.95 489.07 381.92 C 489.76 381.01 490.45 380.10 491.15 379.20 C 492.49 379.72 493.79 380.34 495.04 381.07 C 495.62 380.79 496.20 380.51 496.79 380.22 C 496.36 379.64 495.50 378.46 495.07 377.87 C 501.34 377.67 501.71 385.63 506.78 387.70 C 505.39 384.73 503.90 381.80 503.00 378.64 C 504.16 379.96 505.13 381.40 506.12 382.86 C 506.58 382.06 507.50 380.44 507.97 379.63 C 509.05 382.61 507.13 387.72 511.27 388.78 C 511.17 386.88 511.26 384.99 511.49 383.12 C 512.53 384.38 513.51 385.66 514.50 386.97 C 514.05 387.07 513.16 387.25 512.71 387.35 C 513.28 388.43 513.86 389.55 514.43 390.66 C 514.81 389.56 515.22 388.48 515.75 387.45 C 517.22 388.04 518.71 388.60 520.22 389.14 C 520.24 385.78 517.72 383.42 516.18 380.70 C 519.61 382.04 519.96 386.46 523.17 388.21 C 523.87 387.55 524.59 386.92 525.33 386.29 C 526.94 388.70 524.39 390.01 523.13 391.64 C 525.46 390.36 527.73 388.91 530.35 388.26 C 528.97 386.27 527.52 384.35 526.23 382.31 C 528.79 382.96 530.31 385.11 531.76 387.14 C 532.74 386.38 533.82 385.50 535.16 385.80 C 534.39 386.97 533.56 388.08 532.65 389.15 C 533.57 390.11 534.47 391.03 535.41 392.00 C 534.96 389.74 534.92 387.54 537.51 386.85 C 536.64 385.28 535.78 383.72 535.12 382.07 C 538.30 384.91 539.38 389.80 543.85 391.15 C 542.63 388.79 541.38 386.46 540.16 384.10 C 541.96 384.21 543.78 384.19 545.59 384.47 C 546.59 385.62 546.02 387.04 545.77 388.36 C 546.54 388.31 547.33 388.27 548.12 388.24 C 548.92 387.38 549.73 386.52 550.56 385.67 C 550.24 386.88 549.92 388.09 549.61 389.30 C 550.53 389.09 552.37 388.67 553.29 388.46 C 552.60 389.89 551.88 391.32 551.21 392.76 C 552.28 392.17 553.35 391.57 554.42 390.96 C 555.40 391.61 556.41 392.27 557.43 392.89 C 557.08 390.56 556.44 387.64 553.60 387.37 C 552.88 385.80 552.13 384.26 551.35 382.74 C 553.68 384.11 556.32 383.26 558.70 382.62 C 558.51 382.38 558.14 381.89 557.96 381.65 C 556.76 381.86 555.58 382.07 554.40 382.26 C 555.27 381.42 555.23 379.17 556.77 379.14 C 559.90 380.46 562.09 384.62 565.96 383.47 C 565.83 382.78 565.56 381.42 565.43 380.74 C 568.50 380.66 566.29 377.66 565.85 376.04 C 567.22 375.54 568.69 374.86 569.99 375.98 C 570.46 375.01 570.96 374.06 571.49 373.12 C 570.15 372.05 568.94 370.84 568.10 369.35 C 570.06 369.82 571.98 370.40 573.97 370.81 C 573.40 370.14 572.26 368.81 571.69 368.15 C 576.85 355.59 571.44 341.91 565.23 330.80 C 561.39 330.44 558.95 326.69 554.98 326.79 C 550.75 326.53 545.71 326.45 543.52 322.09 C 545.12 323.22 546.75 324.36 548.84 324.27 C 546.92 320.10 541.58 319.71 537.88 317.77 C 538.91 318.96 540.02 320.06 541.10 321.21 C 539.61 320.52 538.14 319.77 536.68 319.05 C 536.76 318.34 536.92 316.92 537.00 316.22 C 535.76 317.45 534.56 318.73 533.34 319.97 C 535.01 322.01 537.36 323.11 539.78 323.99 C 538.81 324.00 536.86 324.02 535.88 324.02 C 532.72 323.21 531.85 319.74 531.93 316.89 C 528.00 316.86 524.03 316.69 520.23 315.61 C 519.76 316.43 519.29 317.25 518.82 318.08 M 545.78 317.03 C 547.53 317.52 549.29 317.97 551.06 318.47 C 549.90 316.37 547.76 315.06 545.78 317.03 M 491.58 328.08 C 495.89 327.55 498.60 323.80 501.85 321.34 C 497.45 321.40 494.23 324.98 491.58 328.08 M 480.39 339.34 C 481.25 337.97 482.05 336.55 482.70 335.07 C 480.70 335.59 479.79 337.38 480.39 339.34 M 474.86 338.01 C 473.38 340.81 471.97 343.83 472.81 347.08 C 474.61 345.07 475.29 342.40 476.71 340.15 C 477.14 340.51 477.99 341.22 478.42 341.57 C 477.31 343.62 475.97 345.64 476.38 348.12 C 478.77 346.77 479.67 344.10 481.00 341.87 C 481.67 341.99 483.00 342.23 483.67 342.35 C 481.88 339.26 477.73 339.56 474.86 338.01 M 483.06 349.16 C 484.38 348.45 486.02 348.07 486.94 346.78 C 488.25 344.64 487.86 342.03 487.69 339.67 C 484.49 341.71 483.35 345.58 483.06 349.16 M 479.99 348.97 C 481.93 349.05 481.92 346.09 481.03 344.98 C 479.48 344.86 478.52 348.23 479.99 348.97 M 476.31 359.48 C 475.66 361.67 476.02 363.95 477.10 365.95 C 476.83 366.49 476.57 367.02 476.30 367.56 C 475.53 367.17 473.99 366.39 473.22 366.00 C 474.09 367.30 475.05 368.57 476.11 369.74 C 477.12 368.34 478.07 366.90 478.67 365.28 C 480.53 360.22 479.73 354.71 480.35 349.44 C 476.51 350.64 477.85 355.03 476.21 357.84 C 475.34 354.26 478.08 350.58 475.91 347.24 C 471.65 349.93 471.28 357.42 476.31 359.48 M 482.44 351.96 C 481.32 356.63 481.58 361.51 481.13 366.28 C 481.64 365.24 482.12 364.20 482.58 363.15 C 483.01 363.38 483.87 363.85 484.30 364.08 C 485.28 359.45 483.73 354.37 486.48 350.17 C 484.98 350.22 482.65 349.89 482.44 351.96 M 472.79 364.65 C 472.58 362.04 472.41 359.41 471.77 356.87 C 470.19 359.40 470.80 362.53 472.79 364.65 M 479.98 367.46 C 478.75 371.64 481.74 375.63 485.25 377.54 C 484.36 374.68 482.26 372.26 482.39 369.13 C 481.79 368.71 480.58 367.88 479.98 367.46 M 495.53 381.92 C 494.84 387.19 500.78 387.97 504.21 389.89 C 503.51 391.01 502.72 392.06 501.96 393.14 C 504.13 393.27 506.30 393.01 508.41 392.46 C 504.70 388.84 500.24 385.94 497.37 381.52 C 496.91 381.62 495.99 381.82 495.53 381.92 M 492.50 387.16 C 492.72 388.53 493.40 388.76 494.56 387.83 C 494.33 386.44 493.64 386.22 492.50 387.16 M 536.66 387.89 C 538.15 390.49 539.67 393.20 542.21 394.95 C 542.72 391.34 539.78 388.81 536.66 387.89 M 562.35 388.14 C 561.72 389.35 563.74 390.58 564.68 389.73 C 565.29 388.51 563.27 387.27 562.35 388.14 M 530.18 390.53 C 530.86 394.63 535.24 394.48 538.46 394.42 C 537.26 393.64 535.98 392.95 534.74 392.26 C 534.10 392.40 532.83 392.67 532.19 392.80 C 532.23 391.52 532.30 390.25 532.39 388.98 L 530.18 390.53 Z" />
<path fill="#ffffff" opacity="1.00" d=" M 289.31 299.82 C 292.07 299.83 294.79 300.53 296.98 302.26 C 294.22 302.34 291.22 302.08 289.31 299.82 Z" />
<path fill="#ffffff" opacity="1.00" d=" M 241.28 311.58 C 242.72 306.11 249.17 304.65 254.04 303.89 C 249.99 306.75 245.82 309.57 241.28 311.58 Z" />
<path fill="#ffffff" opacity="1.00" d=" M 296.87 304.85 C 300.36 304.60 304.36 304.33 306.98 307.13 C 303.49 307.24 299.76 307.05 296.87 304.85 Z" />
<path fill="#f4f4f4" opacity="1.00" d=" M 282.10 313.52 C 285.67 315.95 290.56 312.68 293.68 315.77 C 290.16 316.00 286.63 315.91 283.11 315.90 C 282.77 315.10 282.44 314.31 282.10 313.52 Z" />
<path fill="#ffffff" opacity="1.00" d=" M 513.17 314.61 C 514.81 314.09 516.42 313.50 517.99 312.78 C 518.47 313.46 519.43 314.82 519.91 315.50 C 517.90 316.09 515.53 315.74 513.96 317.35 C 510.88 318.31 507.97 320.97 504.58 319.81 C 507.25 316.58 511.76 317.10 515.14 315.15 L 513.17 314.61 Z" />
<path fill="#ffffff" opacity="1.00" d=" M 266.82 317.36 C 272.13 318.09 277.22 313.42 282.38 316.53 C 278.16 317.11 273.73 316.99 269.90 319.20 C 268.88 318.56 267.86 317.96 266.82 317.36 Z" />
<path fill="#ffffff" opacity="1.00" d=" M 518.82 318.08 C 519.29 317.25 519.76 316.43 520.23 315.61 C 524.03 316.69 528.00 316.86 531.93 316.89 C 531.85 319.74 532.72 323.21 535.88 324.02 C 536.86 324.02 538.81 324.00 539.78 323.99 C 537.36 323.11 535.01 322.01 533.34 319.97 C 534.56 318.73 535.76 317.45 537.00 316.22 C 536.92 316.92 536.76 318.34 536.68 319.05 C 538.14 319.77 539.61 320.52 541.10 321.21 C 540.02 320.06 538.91 318.96 537.88 317.77 C 541.58 319.71 546.92 320.10 548.84 324.27 C 546.75 324.36 545.12 323.22 543.52 322.09 C 545.71 326.45 550.75 326.53 554.98 326.79 C 558.95 326.69 561.39 330.44 565.23 330.80 C 571.44 341.91 576.85 355.59 571.69 368.15 C 572.26 368.81 573.40 370.14 573.97 370.81 C 571.98 370.40 570.06 369.82 568.10 369.35 C 568.94 370.84 570.15 372.05 571.49 373.12 C 570.96 374.06 570.46 375.01 569.99 375.98 C 568.69 374.86 567.22 375.54 565.85 376.04 C 566.29 377.66 568.50 380.66 565.43 380.74 C 565.56 381.42 565.83 382.78 565.96 383.47 C 562.09 384.62 559.90 380.46 556.77 379.14 C 555.23 379.17 555.27 381.42 554.40 382.26 C 555.58 382.07 556.76 381.86 557.96 381.65 C 558.14 381.89 558.51 382.38 558.70 382.62 C 556.32 383.26 553.68 384.11 551.35 382.74 C 552.13 384.26 552.88 385.80 553.60 387.37 C 556.44 387.64 557.08 390.56 557.43 392.89 C 556.41 392.27 555.40 391.61 554.42 390.96 C 553.35 391.57 552.28 392.17 551.21 392.76 C 551.88 391.32 552.60 389.89 553.29 388.46 C 552.37 388.67 550.53 389.09 549.61 389.30 C 549.92 388.09 550.24 386.88 550.56 385.67 C 549.73 386.52 548.92 387.38 548.12 388.24 C 547.33 388.27 546.54 388.31 545.77 388.36 C 546.02 387.04 546.59 385.62 545.59 384.47 C 543.78 384.19 541.96 384.21 540.16 384.10 C 541.38 386.46 542.63 388.79 543.85 391.15 C 539.38 389.80 538.30 384.91 535.12 382.07 C 535.78 383.72 536.64 385.28 537.51 386.85 C 534.92 387.54 534.96 389.74 535.41 392.00 C 534.47 391.03 533.57 390.11 532.65 389.15 C 533.56 388.08 534.39 386.97 535.16 385.80 C 533.82 385.50 532.74 386.38 531.76 387.14 C 530.31 385.11 528.79 382.96 526.23 382.31 C 527.52 384.35 528.97 386.27 530.35 388.26 C 527.73 388.91 525.46 390.36 523.13 391.64 C 524.39 390.01 526.94 388.70 525.33 386.29 C 524.59 386.92 523.87 387.55 523.17 388.21 C 519.96 386.46 519.61 382.04 516.18 380.70 C 517.72 383.42 520.24 385.78 520.22 389.14 C 518.71 388.60 517.22 388.04 515.75 387.45 C 515.22 388.48 514.81 389.56 514.43 390.66 C 513.86 389.55 513.28 388.43 512.71 387.35 C 513.16 387.25 514.05 387.07 514.50 386.97 C 513.51 385.66 512.53 384.38 511.49 383.12 C 511.26 384.99 511.17 386.88 511.27 388.78 C 507.13 387.72 509.05 382.61 507.97 379.63 C 507.50 380.44 506.58 382.06 506.12 382.86 C 505.13 381.40 504.16 379.96 503.00 378.64 C 503.90 381.80 505.39 384.73 506.78 387.70 C 501.71 385.63 501.34 377.67 495.07 377.87 C 495.50 378.46 496.36 379.64 496.79 380.22 C 496.20 380.51 495.62 380.79 495.04 381.07 C 493.79 380.34 492.49 379.72 491.15 379.20 C 490.45 380.10 489.76 381.01 489.07 381.92 C 489.24 380.95 489.57 379.01 489.74 378.04 C 488.94 378.09 487.36 378.19 486.57 378.24 C 485.56 374.07 484.41 369.88 484.58 365.55 C 485.81 365.83 487.04 366.12 488.28 366.42 C 485.82 362.07 484.08 356.33 487.35 351.91 C 488.21 354.68 490.21 356.84 493.21 357.05 C 491.80 354.99 489.96 353.31 487.82 352.04 C 487.81 348.34 487.41 343.95 490.38 341.16 L 492.64 341.65 C 492.54 341.11 492.33 340.01 492.23 339.47 C 493.89 339.92 495.56 340.32 497.26 340.71 C 495.82 337.36 492.47 336.92 489.53 338.31 C 489.76 337.64 490.22 336.29 490.45 335.62 C 491.11 334.64 491.78 333.66 492.41 332.67 C 495.29 328.40 500.51 326.68 504.06 323.05 C 504.25 324.25 504.45 325.44 504.68 326.64 C 509.88 324.17 515.00 327.20 520.19 327.80 C 517.56 325.98 514.71 324.23 511.51 323.72 C 509.23 323.66 507.10 324.67 504.93 325.23 C 505.41 324.00 505.23 322.32 506.39 321.46 C 509.09 319.07 514.22 320.63 515.86 316.92 C 516.84 317.30 517.83 317.68 518.82 318.08 M 506.89 328.21 C 507.46 332.39 512.51 332.75 515.78 333.61 C 514.34 329.87 509.99 329.83 506.89 328.21 M 492.99 342.91 C 494.95 342.87 499.51 345.80 498.63 341.61 C 500.40 341.64 502.18 341.69 503.96 341.74 C 503.91 341.36 503.80 340.59 503.75 340.21 C 500.09 340.80 496.19 340.81 492.99 342.91 M 549.06 353.19 C 541.38 354.29 538.19 364.90 543.72 370.20 C 548.91 377.11 562.14 375.97 564.32 367.01 C 566.65 358.33 557.13 351.05 549.06 353.19 M 562.30 376.19 C 561.87 377.60 563.63 380.06 565.20 379.43 C 565.82 377.88 563.90 375.58 562.30 376.19 M 514.25 382.59 C 513.72 384.48 515.53 387.16 517.42 387.45 C 517.00 385.78 515.89 383.14 514.25 382.59 M 520.46 382.14 C 520.37 383.14 520.77 384.01 521.66 384.74 C 522.05 384.77 522.85 384.83 523.25 384.87 C 523.14 383.58 521.87 381.85 520.46 382.14 Z" />
<path fill="#f4f4f4" opacity="1.00" d=" M 545.78 317.03 C 547.76 315.06 549.90 316.37 551.06 318.47 C 549.29 317.97 547.53 317.52 545.78 317.03 Z" />
<path fill="#ffffff" opacity="1.00" d=" M 259.58 318.44 C 261.93 317.86 264.93 316.34 266.23 319.31 C 264.15 319.59 262.07 320.00 259.96 319.85 C 257.95 325.35 251.58 328.09 246.09 328.56 C 249.14 324.87 252.48 319.58 258.09 320.58 C 258.61 319.88 259.11 319.17 259.58 318.44 Z" />
<path fill="#ffffff" opacity="1.00" d=" M 290.41 317.53 C 293.44 317.18 296.66 316.41 299.60 317.65 C 296.58 318.19 293.31 318.95 290.41 317.53 Z" />
<path fill="#ffffff" opacity="1.00" d=" M 271.33 320.63 C 274.90 319.74 278.51 319.05 282.17 318.67 C 283.00 318.97 284.66 319.59 285.49 319.90 L 285.37 318.51 C 290.64 318.60 296.36 318.56 300.80 321.85 C 296.51 323.23 291.92 325.45 287.41 323.64 C 286.31 325.39 284.48 326.82 284.54 329.10 C 284.99 329.17 285.90 329.30 286.35 329.37 L 286.21 327.12 C 287.68 328.09 289.16 329.03 290.79 329.74 C 290.50 328.72 289.92 326.68 289.63 325.66 C 293.95 325.69 298.85 326.28 302.62 323.72 C 304.11 322.59 302.44 320.79 302.16 319.44 C 305.91 320.87 309.94 321.82 313.15 324.38 C 311.44 324.54 309.73 324.70 308.02 324.90 C 309.88 328.08 309.73 331.77 309.67 335.32 C 312.55 333.35 313.65 329.90 312.11 326.71 C 312.98 327.30 313.85 327.90 314.72 328.50 C 320.34 327.26 323.83 332.68 327.74 335.63 C 327.11 338.33 325.38 341.61 328.60 343.44 C 328.41 342.35 328.01 340.17 327.82 339.07 C 332.25 341.25 333.89 346.64 335.30 351.06 C 332.32 351.35 329.47 350.49 326.76 349.37 C 326.07 351.00 325.71 352.98 324.11 354.00 C 322.01 355.77 319.14 355.37 316.60 355.69 C 317.53 356.24 318.59 358.47 319.77 357.40 C 322.50 354.42 326.78 355.72 330.32 354.87 C 328.80 354.23 327.25 353.63 325.74 352.98 C 329.33 349.98 334.01 352.47 335.51 356.35 C 333.53 356.58 331.52 356.73 329.68 357.55 C 331.82 357.70 333.98 357.60 336.13 357.79 C 336.50 358.73 336.63 359.74 336.51 360.80 C 334.02 360.24 331.64 359.35 329.18 358.73 C 333.14 362.43 329.34 367.37 328.65 371.61 C 324.57 370.93 320.07 367.23 316.22 370.35 C 316.99 372.93 319.78 375.23 318.88 378.06 C 315.46 380.53 311.46 376.23 307.79 378.18 C 311.42 378.85 314.96 380.04 318.67 380.21 C 319.27 379.13 319.88 378.04 320.50 376.97 C 319.44 374.68 318.15 372.48 317.40 370.06 C 321.94 370.08 326.62 371.43 329.68 374.97 C 331.23 373.20 333.54 372.73 335.75 372.35 C 335.25 369.29 332.09 367.65 331.81 364.56 C 332.22 364.66 333.05 364.85 333.46 364.95 C 334.52 364.39 335.59 363.83 336.70 363.37 C 336.32 366.48 338.29 370.34 335.64 372.75 C 336.16 375.11 338.14 379.60 333.97 379.33 C 333.89 377.37 333.86 375.41 333.73 373.46 C 332.89 375.80 331.86 378.07 330.10 379.87 C 331.76 379.97 333.43 380.05 335.08 380.32 C 333.45 383.50 331.62 386.71 328.95 389.15 C 327.17 385.95 326.41 382.06 323.38 379.71 C 323.85 381.36 325.97 383.50 323.95 384.93 C 322.52 385.61 321.00 386.01 319.46 386.32 L 319.34 384.53 C 314.92 386.24 321.51 388.29 320.48 391.14 C 319.78 391.18 318.38 391.25 317.68 391.29 L 317.37 392.87 C 313.06 391.58 313.85 385.09 309.00 384.75 C 310.36 386.95 312.85 388.74 312.53 391.62 C 310.02 390.20 308.20 387.89 305.75 386.39 C 306.79 388.73 309.31 391.36 307.22 393.91 C 306.44 391.65 305.11 389.68 303.14 388.30 C 301.98 388.50 300.82 388.69 299.67 388.86 C 299.98 389.73 300.29 390.61 300.60 391.50 C 301.31 391.97 302.03 392.45 302.74 392.94 C 302.15 393.48 300.98 394.56 300.39 395.09 C 298.17 391.93 296.38 388.28 293.06 386.10 C 294.98 389.89 299.57 392.65 298.83 397.42 C 296.47 394.64 294.17 391.75 290.91 389.97 C 290.53 390.67 289.79 392.07 289.41 392.77 C 290.42 393.67 292.51 394.21 292.06 396.01 C 291.09 396.97 289.38 397.81 288.38 396.38 C 286.99 394.54 286.19 392.35 285.06 390.36 C 283.57 390.59 282.07 390.62 280.57 390.44 C 282.06 391.53 283.55 392.62 284.91 393.88 C 283.17 393.48 281.47 392.87 279.80 392.26 C 280.92 394.15 282.99 396.49 279.90 397.72 C 278.36 391.50 273.60 385.62 266.85 385.02 C 267.72 386.98 269.50 388.00 271.36 388.84 C 268.34 391.43 264.51 389.22 261.36 388.10 C 260.03 388.54 258.69 388.95 257.34 389.31 C 258.53 390.60 259.77 392.09 259.23 393.97 C 258.10 391.62 256.14 390.29 253.52 390.34 C 253.08 389.08 252.63 387.84 252.16 386.60 C 248.57 387.60 245.89 383.80 242.22 384.65 C 242.13 382.50 241.10 380.78 239.34 379.63 C 239.37 380.41 239.43 381.98 239.46 382.76 C 237.60 381.40 235.29 380.29 234.52 377.93 C 235.39 377.87 237.14 377.74 238.01 377.67 C 239.34 376.16 240.68 374.66 242.10 373.22 C 239.69 371.35 237.05 369.64 233.87 369.82 C 233.88 366.46 233.87 363.09 233.89 359.73 C 237.11 359.01 237.61 362.32 238.90 364.38 C 240.09 361.34 238.10 359.25 235.44 358.16 C 235.87 356.14 235.80 353.49 238.36 352.99 C 238.76 351.38 239.12 349.75 239.41 348.13 C 237.75 349.29 237.10 353.63 234.49 352.39 C 235.80 350.32 237.17 348.29 238.81 346.47 C 238.80 345.81 238.77 344.49 238.76 343.83 C 239.43 343.74 240.79 343.55 241.46 343.46 C 242.64 342.62 243.85 341.84 245.08 341.09 C 244.67 338.83 244.73 336.52 245.85 334.48 C 251.05 335.54 254.06 330.27 257.63 327.51 L 257.41 327.31 C 257.10 327.21 256.47 326.99 256.15 326.88 L 255.93 326.37 C 256.53 326.17 257.73 325.76 258.33 325.55 C 260.52 328.11 261.66 331.55 264.43 333.59 C 266.07 334.46 266.44 332.19 267.28 331.29 C 264.29 330.46 262.83 327.67 261.12 325.37 C 262.40 325.10 263.68 324.85 264.97 324.60 C 265.17 325.47 265.57 327.22 265.77 328.09 C 266.60 326.50 267.16 324.79 267.53 323.04 C 268.82 323.00 270.12 322.96 271.41 322.93 C 271.39 322.35 271.35 321.21 271.33 320.63 M 272.38 321.08 C 272.97 321.58 273.62 322.02 274.32 322.39 C 277.75 321.91 281.21 321.34 284.41 319.96 C 280.36 319.27 276.41 320.91 272.38 321.08 M 286.57 329.71 C 285.89 331.44 285.56 333.27 284.99 335.04 C 288.02 332.84 291.51 331.40 295.14 330.51 C 295.82 331.77 296.52 333.02 297.31 334.22 C 297.04 332.68 297.12 330.99 296.30 329.63 C 293.09 328.49 289.77 331.24 286.57 329.71 M 315.44 329.19 C 316.68 331.88 317.95 334.70 320.29 336.65 C 319.57 333.67 317.52 331.32 315.44 329.19 M 309.57 335.87 C 310.23 337.18 310.93 338.48 311.63 339.79 C 306.21 343.09 299.89 344.11 293.67 344.55 C 300.77 346.93 308.60 343.67 313.59 338.49 C 313.66 336.85 310.55 336.91 309.57 335.87 M 250.46 346.76 C 246.17 348.17 241.32 350.23 239.20 354.47 C 238.28 358.97 240.73 363.30 241.60 367.65 C 246.43 373.32 255.66 372.60 261.40 368.63 C 268.92 363.92 267.85 350.76 259.79 347.20 C 256.87 345.89 253.50 345.94 250.46 346.76 M 315.97 388.33 C 314.58 391.38 319.46 388.50 315.97 388.33 Z" />
<path fill="#ffffff" opacity="1.00" d=" M 332.02 319.16 C 334.51 323.70 340.95 327.29 339.09 333.15 C 337.08 328.29 332.53 324.60 332.02 319.16 Z" />
<path fill="#000000" opacity="1.00" d=" M 272.38 321.08 C 276.41 320.91 280.36 319.27 284.41 319.96 C 281.21 321.34 277.75 321.91 274.32 322.39 C 273.62 322.02 272.97 321.58 272.38 321.08 Z" />
<path fill="#ffffff" opacity="1.00" d=" M 491.58 328.08 C 494.23 324.98 497.45 321.40 501.85 321.34 C 498.60 323.80 495.89 327.55 491.58 328.08 Z" />
<path fill="#ffffff" opacity="1.00" d=" M 247.31 332.38 C 250.13 330.47 252.51 326.88 256.15 326.88 L 256.23 327.53 C 253.79 329.84 251.09 333.19 247.31 332.38 Z" />
<path fill="#f4f4f4" opacity="1.00" d=" M 486.20 329.79 C 487.39 328.83 488.61 327.88 489.89 327.02 C 490.56 329.56 485.26 331.78 488.88 333.31 C 489.63 332.43 492.60 329.07 492.41 332.67 C 491.78 333.66 491.11 334.64 490.45 335.62 C 489.81 336.23 488.53 337.45 487.89 338.06 C 488.42 335.26 486.90 332.89 485.78 330.50 C 484.58 331.82 483.29 333.08 481.91 334.22 C 482.62 332.01 483.72 329.95 485.10 328.08 C 485.38 328.50 485.92 329.36 486.20 329.79 Z" />
<path fill="#000000" opacity="1.00" d=" M 506.89 328.21 C 509.99 329.83 514.34 329.87 515.78 333.61 C 512.51 332.75 507.46 332.39 506.89 328.21 Z" />
<path fill="#ffffff" opacity="1.00" d=" M 237.50 331.74 C 239.19 330.60 240.81 329.38 242.32 328.01 C 242.91 328.78 243.49 329.55 244.08 330.33 C 241.88 331.73 239.51 332.85 237.24 334.10 C 235.27 337.17 233.70 340.52 231.24 343.25 C 232.19 338.89 234.99 335.30 237.50 331.74 Z" />
<path fill="#000000" opacity="1.00" d=" M 286.57 329.71 C 289.77 331.24 293.09 328.49 296.30 329.63 C 297.12 330.99 297.04 332.68 297.31 334.22 C 296.52 333.02 295.82 331.77 295.14 330.51 C 291.51 331.40 288.02 332.84 284.99 335.04 C 285.56 333.27 285.89 331.44 286.57 329.71 Z" />
<path fill="#000000" opacity="1.00" d=" M 315.44 329.19 C 317.52 331.32 319.57 333.67 320.29 336.65 C 317.95 334.70 316.68 331.88 315.44 329.19 Z" />
<path fill="#ffffff" opacity="1.00" d=" M 237.54 336.27 C 240.07 335.76 241.30 332.67 244.07 333.09 C 243.04 335.70 241.14 337.79 239.24 339.81 C 238.67 338.63 238.10 337.45 237.54 336.27 Z" />
<path fill="#f4f4f4" opacity="1.00" d=" M 480.39 339.34 C 479.79 337.38 480.70 335.59 482.70 335.07 C 482.05 336.55 481.25 337.97 480.39 339.34 Z" />
<path fill="#000000" opacity="1.00" d=" M 309.57 335.87 C 310.55 336.91 313.66 336.85 313.59 338.49 C 308.60 343.67 300.77 346.93 293.67 344.55 C 299.89 344.11 306.21 343.09 311.63 339.79 C 310.93 338.48 310.23 337.18 309.57 335.87 Z" />
<path fill="#ffffff" opacity="1.00" d=" M 339.05 335.46 C 340.33 336.78 341.42 338.27 342.72 339.59 C 342.58 340.25 342.31 341.58 342.18 342.24 C 340.19 340.52 339.94 337.77 339.05 335.46 Z" />
<path fill="#ffffff" opacity="1.00" d=" M 474.86 338.01 C 477.73 339.56 481.88 339.26 483.67 342.35 C 483.00 342.23 481.67 341.99 481.00 341.87 C 479.67 344.10 478.77 346.77 476.38 348.12 C 475.97 345.64 477.31 343.62 478.42 341.57 C 477.99 341.22 477.14 340.51 476.71 340.15 C 475.29 342.40 474.61 345.07 472.81 347.08 C 471.97 343.83 473.38 340.81 474.86 338.01 Z" />
<path fill="#ffffff" opacity="1.00" d=" M 229.31 357.21 C 232.43 351.33 230.73 342.27 237.73 339.06 C 237.87 345.87 234.77 353.04 229.31 357.21 Z" />
<path fill="#ffffff" opacity="1.00" d=" M 483.06 349.16 C 483.35 345.58 484.49 341.71 487.69 339.67 C 487.86 342.03 488.25 344.64 486.94 346.78 C 486.02 348.07 484.38 348.45 483.06 349.16 Z" />
<path fill="#000000" opacity="1.00" d=" M 492.99 342.91 C 496.19 340.81 500.09 340.80 503.75 340.21 C 503.80 340.59 503.91 341.36 503.96 341.74 C 502.18 341.69 500.40 341.64 498.63 341.61 C 499.51 345.80 494.95 342.87 492.99 342.91 Z" />
<path fill="#ffffff" opacity="1.00" d=" M 479.99 348.97 C 478.52 348.23 479.48 344.86 481.03 344.98 C 481.92 346.09 481.93 349.05 479.99 348.97 Z" />
<path fill="#000000" opacity="1.00" d=" M 250.46 346.76 C 253.50 345.94 256.87 345.89 259.79 347.20 C 267.85 350.76 268.92 363.92 261.40 368.63 C 255.66 372.60 246.43 373.32 241.60 367.65 C 240.73 363.30 238.28 358.97 239.20 354.47 C 241.32 350.23 246.17 348.17 250.46 346.76 M 250.17 357.30 C 248.44 360.05 251.07 363.15 250.34 366.14 C 253.11 367.38 256.42 367.54 259.05 365.84 C 262.38 364.11 263.17 359.05 260.76 356.33 C 257.43 354.97 252.93 354.58 250.17 357.30 Z" />
<path fill="#ffffff" opacity="1.00" d=" M 476.31 359.48 C 471.28 357.42 471.65 349.93 475.91 347.24 C 478.08 350.58 475.34 354.26 476.21 357.84 C 477.85 355.03 476.51 350.64 480.35 349.44 C 479.73 354.71 480.53 360.22 478.67 365.28 C 478.07 366.90 477.12 368.34 476.11 369.74 C 475.05 368.57 474.09 367.30 473.22 366.00 C 473.99 366.39 475.53 367.17 476.30 367.56 C 476.57 367.02 476.83 366.49 477.10 365.95 C 476.02 363.95 475.66 361.67 476.31 359.48 Z" />
<path fill="#ffffff" opacity="1.00" d=" M 482.44 351.96 C 482.65 349.89 484.98 350.22 486.48 350.17 C 483.73 354.37 485.28 359.45 484.30 364.08 C 483.87 363.85 483.01 363.38 482.58 363.15 C 482.12 364.20 481.64 365.24 481.13 366.28 C 481.58 361.51 481.32 356.63 482.44 351.96 Z" />
<path fill="#000000" opacity="1.00" d=" M 549.06 353.19 C 557.13 351.05 566.65 358.33 564.32 367.01 C 562.14 375.97 548.91 377.11 543.72 370.20 C 538.19 364.90 541.38 354.29 549.06 353.19 M 550.55 361.57 C 549.53 364.55 550.19 367.58 551.96 370.13 C 554.87 369.90 558.11 370.25 559.64 367.18 C 558.52 363.08 554.31 361.86 550.55 361.57 Z" />
<path fill="#ffffff" opacity="1.00" d=" M 250.17 357.30 C 252.93 354.58 257.43 354.97 260.76 356.33 C 263.17 359.05 262.38 364.11 259.05 365.84 C 256.42 367.54 253.11 367.38 250.34 366.14 C 251.07 363.15 248.44 360.05 250.17 357.30 Z" />
<path fill="#ffffff" opacity="1.00" d=" M 472.79 364.65 C 470.80 362.53 470.19 359.40 471.77 356.87 C 472.41 359.41 472.58 362.04 472.79 364.65 Z" />
<path fill="#ffffff" opacity="1.00" d=" M 232.25 360.65 C 232.30 364.27 233.89 368.47 231.39 371.59 C 230.08 367.98 230.41 364.01 232.25 360.65 Z" />
<path fill="#ffffff" opacity="1.00" d=" M 550.55 361.57 C 554.31 361.86 558.52 363.08 559.64 367.18 C 558.11 370.25 554.87 369.90 551.96 370.13 C 550.19 367.58 549.53 364.55 550.55 361.57 Z" />
<path fill="#ffffff" opacity="1.00" d=" M 479.98 367.46 C 480.58 367.88 481.79 368.71 482.39 369.13 C 482.26 372.26 484.36 374.68 485.25 377.54 C 481.74 375.63 478.75 371.64 479.98 367.46 Z" />
<path fill="#ffffff" opacity="1.00" d=" M 234.06 373.67 C 235.57 372.76 237.29 372.40 239.03 372.72 C 238.23 373.85 237.42 374.97 236.63 376.11 C 235.75 375.31 234.80 374.59 234.06 373.67 Z" />
<path fill="#212121" opacity="1.00" d=" M 231.33 373.50 C 232.77 373.69 232.73 377.33 231.31 377.55 C 230.47 376.43 230.49 374.61 231.33 373.50 Z" />
<path fill="#000000" opacity="1.00" d=" M 562.30 376.19 C 563.90 375.58 565.82 377.88 565.20 379.43 C 563.63 380.06 561.87 377.60 562.30 376.19 Z" />
<path fill="#ffffff" opacity="1.00" d=" M 344.42 380.10 C 347.90 377.30 351.39 380.84 353.64 383.40 C 351.11 386.21 350.01 390.26 346.60 392.25 L 346.76 390.31 C 344.96 390.72 343.18 391.15 341.34 391.30 C 341.58 389.88 341.84 388.49 342.05 387.07 C 342.96 389.12 344.70 390.17 346.74 388.77 C 348.39 386.34 351.20 385.23 352.97 382.93 C 351.42 382.58 349.89 382.21 348.36 381.83 C 347.61 382.09 346.86 382.36 346.11 382.64 C 346.82 383.24 348.22 384.44 348.92 385.04 C 347.44 384.77 345.97 384.45 344.52 384.08 C 345.09 382.95 345.78 381.91 346.52 380.89 L 344.42 380.10 Z" />
<path fill="#ffffff" opacity="1.00" d=" M 495.53 381.92 C 495.99 381.82 496.91 381.62 497.37 381.52 C 500.24 385.94 504.70 388.84 508.41 392.46 C 506.30 393.01 504.13 393.27 501.96 393.14 C 502.72 392.06 503.51 391.01 504.21 389.89 C 500.78 387.97 494.84 387.19 495.53 381.92 Z" />
<path fill="#000000" opacity="1.00" d=" M 514.25 382.59 C 515.89 383.14 517.00 385.78 517.42 387.45 C 515.53 387.16 513.72 384.48 514.25 382.59 Z" />
<path fill="#000000" opacity="1.00" d=" M 520.46 382.14 C 521.87 381.85 523.14 383.58 523.25 384.87 C 522.85 384.83 522.05 384.77 521.66 384.74 C 520.77 384.01 520.37 383.14 520.46 382.14 Z" />
<path fill="#ffffff" opacity="1.00" d=" M 238.85 384.57 C 242.96 384.65 246.17 388.32 245.76 392.43 C 244.13 390.68 243.06 388.00 240.20 388.43 C 239.76 387.14 239.30 385.85 238.85 384.57 Z" />
<path fill="#ffffff" opacity="1.00" d=" M 322.66 385.87 C 324.05 386.61 325.43 387.37 326.81 388.15 C 324.97 388.50 323.20 389.06 321.50 389.85 C 321.83 388.50 322.24 387.18 322.66 385.87 Z" />
<path fill="#f4f4f4" opacity="1.00" d=" M 245.75 386.61 C 246.87 386.00 248.69 387.31 248.44 388.55 C 247.35 389.00 245.39 387.91 245.75 386.61 Z" />
<path fill="#252525" opacity="1.00" d=" M 492.50 387.16 C 493.64 386.22 494.33 386.44 494.56 387.83 C 493.40 388.76 492.72 388.53 492.50 387.16 Z" />
<path fill="#020202" opacity="1.00" d=" M 315.97 388.33 C 319.46 388.50 314.58 391.38 315.97 388.33 Z" />
<path fill="#ffffff" opacity="1.00" d=" M 536.66 387.89 C 539.78 388.81 542.72 391.34 542.21 394.95 C 539.67 393.20 538.15 390.49 536.66 387.89 Z" />
<path fill="#272727" opacity="1.00" d=" M 562.35 388.14 C 563.27 387.27 565.29 388.51 564.68 389.73 C 563.74 390.58 561.72 389.35 562.35 388.14 Z" />
<path fill="#ffffff" opacity="1.00" d=" M 274.18 394.80 C 273.51 392.54 272.55 390.34 272.30 387.98 C 274.63 388.84 275.66 391.07 276.78 393.08 C 275.89 393.63 275.03 394.20 274.18 394.80 Z" />
<path fill="#ffffff" opacity="1.00" d=" M 262.07 389.47 C 266.28 389.46 267.15 395.60 271.61 394.42 C 267.64 398.26 263.87 392.70 262.07 389.47 Z" />
<path fill="#ffffff" opacity="1.00" d=" M 302.76 390.25 C 304.30 388.39 306.38 393.20 303.73 392.24 C 303.49 391.74 303.00 390.75 302.76 390.25 Z" />
<path fill="#ffffff" opacity="1.00" d=" M 530.18 390.53 L 532.39 388.98 C 532.30 390.25 532.23 391.52 532.19 392.80 C 532.83 392.67 534.10 392.40 534.74 392.26 C 535.98 392.95 537.26 393.64 538.46 394.42 C 535.24 394.48 530.86 394.63 530.18 390.53 Z" />
<path fill="#ffffff" opacity="1.00" d=" M 237.05 409.13 C 237.35 409.49 237.96 410.20 238.26 410.56 C 239.75 411.13 241.09 411.97 241.91 413.38 C 239.82 413.16 237.75 412.77 235.67 412.55 C 236.10 412.36 236.97 411.99 237.40 411.81 C 237.31 411.14 237.14 409.80 237.05 409.13 Z" />
<path fill="#f4f4f4" opacity="1.00" d=" M 331.26 409.32 C 331.72 410.09 332.18 410.87 332.65 411.66 C 330.60 411.09 328.96 412.47 327.15 413.11 C 328.42 411.74 329.85 410.53 331.26 409.32 Z" />
<path fill="#ffffff" opacity="1.00" d=" M 305.59 410.57 C 307.45 411.71 309.13 413.16 310.43 414.93 C 308.33 413.98 304.19 413.95 305.59 410.57 Z" />
<path fill="#ffffff" opacity="1.00" d=" M 248.36 413.28 C 251.86 414.62 255.58 415.62 258.55 418.03 C 256.05 418.34 253.53 418.58 251.03 418.23 C 251.25 417.56 251.68 416.22 251.90 415.55 C 250.41 415.30 248.93 415.05 247.45 414.77 C 247.68 414.40 248.14 413.65 248.36 413.28 Z" />
<path fill="#ffffff" opacity="1.00" d=" M 222.73 419.03 C 223.70 415.83 227.86 416.81 230.18 415.20 C 231.72 416.00 233.15 417.01 234.15 418.49 C 232.89 417.92 230.36 416.77 229.10 416.19 C 229.29 417.28 229.85 418.20 230.60 419.01 C 228.01 419.43 225.27 420.07 222.73 419.03 Z" />
<path fill="#ffffff" opacity="1.00" d=" M 277.45 416.64 C 278.17 417.73 278.95 418.78 279.70 419.86 C 277.22 420.03 274.46 420.16 273.02 417.78 C 274.57 417.65 276.34 418.02 277.45 416.64 Z" />
<path fill="#f4f4f4" opacity="1.00" d=" M 312.19 416.01 C 313.31 415.18 315.46 416.71 314.78 418.03 C 313.65 418.84 311.52 417.32 312.19 416.01 Z" />
<path fill="#000000" opacity="1.00" d=" M 342.52 428.05 C 349.37 428.73 356.40 429.47 362.78 432.23 C 364.72 432.90 365.08 434.51 363.30 435.74 C 367.09 434.82 371.84 432.58 375.15 435.77 C 372.81 436.10 369.91 434.61 368.11 436.77 C 372.66 437.39 377.35 436.63 381.34 434.29 C 381.75 435.98 382.14 437.67 382.58 439.36 C 384.97 437.88 387.59 436.41 390.52 437.31 C 390.35 436.80 390.01 435.78 389.85 435.27 C 393.90 438.39 398.78 435.73 402.29 433.12 C 402.30 435.85 399.72 436.76 397.84 438.11 C 401.71 438.58 405.43 436.12 409.23 437.61 C 408.62 438.27 407.39 439.59 406.78 440.25 C 409.59 439.50 412.87 439.10 414.64 441.96 C 411.90 442.21 408.84 440.99 406.38 442.69 C 417.36 441.87 428.26 444.83 439.21 443.55 C 435.95 443.03 432.64 443.10 429.37 442.82 C 434.56 440.00 440.44 442.71 445.90 442.96 C 449.23 443.56 452.30 441.08 455.61 442.23 C 451.25 444.35 446.10 443.47 441.64 445.35 C 462.96 445.46 484.44 444.79 505.56 448.31 C 503.94 449.50 501.88 449.34 500.00 449.45 C 490.82 449.64 481.61 448.46 472.46 449.60 C 473.70 450.18 474.96 450.69 476.24 451.24 C 475.96 451.65 475.41 452.46 475.13 452.86 C 470.09 450.37 464.37 452.43 459.04 451.57 C 459.42 450.99 460.19 449.85 460.57 449.27 C 446.47 451.28 432.16 451.19 417.95 451.00 C 412.61 451.01 407.26 450.55 401.95 451.26 C 397.33 451.37 392.70 451.00 388.08 451.25 L 388.12 451.76 C 392.67 451.79 397.24 451.66 401.77 452.16 C 398.39 453.60 394.63 453.09 391.06 453.06 C 386.43 452.66 381.76 453.20 377.17 452.44 C 362.34 450.48 346.85 454.28 332.42 449.52 C 338.55 448.76 344.75 449.28 350.91 449.11 C 354.19 441.64 363.45 441.15 370.47 440.30 C 361.84 436.45 351.47 437.05 342.77 440.40 C 342.60 439.28 342.30 438.21 341.87 437.18 C 337.96 435.42 333.37 440.10 329.81 436.94 C 334.30 435.47 339.43 435.29 343.32 432.37 C 345.02 431.12 343.29 429.27 342.52 428.05 M 375.70 438.17 C 376.71 439.01 377.72 439.87 378.70 440.78 C 378.90 439.57 379.12 438.37 379.37 437.18 C 378.15 437.53 376.92 437.84 375.70 438.17 M 388.76 440.72 C 390.85 440.42 392.90 439.77 394.54 438.37 C 392.18 438.01 389.77 438.30 388.76 440.72 M 475.53 447.42 C 478.53 448.59 481.77 447.87 484.84 447.43 C 481.88 446.04 478.58 446.85 475.53 447.42 M 353.15 448.38 C 355.39 449.93 358.23 449.22 360.50 448.14 C 358.05 447.79 355.58 448.01 353.15 448.38 M 373.80 449.44 C 374.89 450.90 376.74 450.58 378.33 450.69 C 377.33 449.01 375.49 449.11 373.80 449.44 Z" />
<path fill="#000000" opacity="1.00" d=" M 445.62 437.26 C 454.46 436.03 463.09 432.86 472.12 433.34 C 471.83 434.88 471.68 436.43 471.68 438.00 C 465.17 437.61 458.64 438.08 452.19 438.91 C 450.13 437.83 447.71 438.19 445.62 437.26 Z" />
<path fill="#000000" opacity="1.00" d=" M 490.64 436.85 C 491.78 436.71 492.76 437.24 493.68 437.90 C 486.52 438.44 479.33 437.95 472.17 437.99 L 472.07 436.87 C 478.26 436.82 484.45 436.97 490.64 436.85 Z" />
<path fill="#ffffff" opacity="1.00" d=" M 375.70 438.17 C 376.92 437.84 378.15 437.53 379.37 437.18 C 379.12 438.37 378.90 439.57 378.70 440.78 C 377.72 439.87 376.71 439.01 375.70 438.17 Z" />
<path fill="#ffffff" opacity="1.00" d=" M 388.76 440.72 C 389.77 438.30 392.18 438.01 394.54 438.37 C 392.90 439.77 390.85 440.42 388.76 440.72 Z" />
<path fill="#ffffff" opacity="1.00" d=" M 475.53 447.42 C 478.58 446.85 481.88 446.04 484.84 447.43 C 481.77 447.87 478.53 448.59 475.53 447.42 Z" />
<path fill="#ffffff" opacity="1.00" d=" M 353.15 448.38 C 355.58 448.01 358.05 447.79 360.50 448.14 C 358.23 449.22 355.39 449.93 353.15 448.38 Z" />
<path fill="#f4f4f4" opacity="1.00" d=" M 373.80 449.44 C 375.49 449.11 377.33 449.01 378.33 450.69 C 376.74 450.58 374.89 450.90 373.80 449.44 Z" />
<path fill="#000000" opacity="1.00" d=" M 274.91 453.93 C 277.32 454.89 279.31 456.93 282.02 457.09 C 284.49 457.19 286.74 455.98 288.98 455.09 C 292.47 458.51 297.46 458.71 301.62 460.69 C 301.01 461.44 299.80 462.93 299.20 463.68 C 297.31 461.43 294.82 459.90 291.83 459.78 C 292.56 460.52 294.03 462.01 294.76 462.75 C 293.51 462.73 291.01 462.69 289.76 462.66 C 292.82 463.61 295.88 464.66 299.01 465.39 C 301.92 464.87 301.79 461.16 301.82 458.89 L 304.77 461.09 C 303.99 461.61 303.23 462.15 302.47 462.69 C 303.79 463.65 305.35 465.23 307.03 463.61 L 304.39 462.93 C 304.87 462.57 305.36 462.22 305.85 461.88 C 307.43 463.46 309.63 464.08 311.59 465.02 C 309.67 461.92 314.76 460.09 317.16 460.64 C 315.86 461.64 314.45 462.54 313.52 463.93 C 317.64 465.22 320.72 459.75 324.61 462.36 C 323.06 462.79 321.54 463.29 320.05 463.86 C 340.67 465.08 361.36 463.86 382.01 464.44 C 393.69 464.56 405.34 465.75 417.02 465.75 C 429.08 465.83 441.13 465.36 453.18 465.15 L 452.59 466.47 C 462.76 466.71 472.95 467.85 483.11 466.75 C 489.21 466.27 495.01 464.06 501.10 463.50 C 515.28 461.92 529.58 462.61 543.79 462.68 C 543.38 463.02 542.54 463.69 542.12 464.03 C 543.77 464.66 545.26 465.56 546.59 466.71 C 543.10 467.01 539.25 465.45 536.08 467.48 C 540.91 468.01 546.42 467.87 550.17 471.49 C 544.28 469.88 538.12 469.37 532.05 470.01 C 527.84 470.19 523.26 471.47 519.36 469.24 C 514.37 466.86 508.70 467.33 503.35 467.63 L 503.82 466.39 C 499.02 466.64 494.20 466.31 489.40 466.66 C 491.82 468.72 495.08 468.32 498.02 468.44 C 489.30 469.74 480.54 470.88 471.98 473.07 C 465.76 474.75 459.25 473.98 452.96 475.16 C 453.58 475.42 454.80 475.92 455.41 476.18 C 449.71 478.90 443.19 478.77 437.02 479.25 C 422.55 479.64 407.93 479.53 393.66 476.85 C 394.20 476.43 395.29 475.61 395.83 475.19 C 385.81 477.58 374.95 476.91 365.47 472.76 C 343.59 468.83 321.20 469.78 299.10 470.86 C 274.46 472.06 249.54 474.16 225.04 470.11 C 221.26 469.45 217.44 468.80 213.81 467.50 C 224.08 465.46 234.22 470.68 244.51 468.77 C 249.97 467.51 254.36 463.83 259.42 461.65 C 265.53 459.59 272.84 462.18 278.13 457.61 C 276.61 456.85 273.09 456.42 274.91 453.93 M 538.31 463.08 L 538.10 463.78 L 539.00 464.26 L 539.90 463.78 L 539.69 463.08 C 539.34 463.08 538.66 463.08 538.31 463.08 M 370.70 466.93 C 373.03 468.56 375.91 467.54 378.51 467.31 C 376.22 465.59 373.26 466.78 370.70 466.93 M 381.90 467.73 C 386.62 469.86 391.86 470.32 396.98 470.48 C 404.77 470.61 412.55 470.31 420.34 470.11 C 414.47 467.15 407.72 469.87 401.49 468.89 C 403.21 467.93 405.19 467.69 407.08 467.23 C 398.67 466.92 390.30 468.76 381.90 467.73 M 430.91 468.53 C 433.69 469.37 436.59 468.89 439.40 468.41 C 436.71 467.12 433.65 467.74 430.91 468.53 M 463.84 471.30 C 465.37 471.48 466.90 471.58 468.45 471.60 C 467.16 469.87 465.28 469.73 463.84 471.30 M 421.28 473.39 C 421.86 474.26 422.63 475.00 423.80 474.99 C 427.36 475.93 431.06 476.17 434.72 476.51 C 434.76 476.21 434.83 475.62 434.86 475.33 C 430.40 474.29 425.80 474.04 421.28 473.39 Z" />
<path fill="#ffffff" opacity="1.00" d=" M 538.31 463.08 C 538.66 463.08 539.34 463.08 539.69 463.08 L 539.90 463.78 L 539.00 464.26 L 538.10 463.78 L 538.31 463.08 Z" />
<path fill="#f4f4f4" opacity="1.00" d=" M 370.70 466.93 C 373.26 466.78 376.22 465.59 378.51 467.31 C 375.91 467.54 373.03 468.56 370.70 466.93 Z" />
<path fill="#ffffff" opacity="1.00" d=" M 381.90 467.73 C 390.30 468.76 398.67 466.92 407.08 467.23 C 405.19 467.69 403.21 467.93 401.49 468.89 C 407.72 469.87 414.47 467.15 420.34 470.11 C 412.55 470.31 404.77 470.61 396.98 470.48 C 391.86 470.32 386.62 469.86 381.90 467.73 Z" />
<path fill="#ffffff" opacity="1.00" d=" M 430.91 468.53 C 433.65 467.74 436.71 467.12 439.40 468.41 C 436.59 468.89 433.69 469.37 430.91 468.53 Z" />
<path fill="#f4f4f4" opacity="1.00" d=" M 463.84 471.30 C 465.28 469.73 467.16 469.87 468.45 471.60 C 466.90 471.58 465.37 471.48 463.84 471.30 Z" />
<path fill="#ffffff" opacity="1.00" d=" M 421.28 473.39 C 425.80 474.04 430.40 474.29 434.86 475.33 C 434.83 475.62 434.76 476.21 434.72 476.51 C 431.06 476.17 427.36 475.93 423.80 474.99 C 422.63 475.00 421.86 474.26 421.28 473.39 Z" />
<path fill="#f4f4f4" opacity="1.00" d=" M 113.97 543.92 C 114.25 543.39 114.55 542.87 114.85 542.37 C 116.54 549.33 123.88 553.41 125.13 560.51 C 120.10 555.98 117.53 549.53 113.97 543.92 Z" />
</svg>
