<?xml version="1.0" encoding="UTF-8" ?>
<!DOCTYPE svg PUBLIC "-//W3C//DTD SVG 1.1//EN" "http://www.w3.org/Graphics/SVG/1.1/DTD/svg11.dtd">
<svg width="527pt" height="422pt" viewBox="0 0 527 422" version="1.1" xmlns="http://www.w3.org/2000/svg">
<g id="#ffffffff">
<path fill="#ffffff" opacity="1.00" d=" M 0.00 0.00 L 527.00 0.00 L 527.00 422.00 L 0.00 422.00 L 0.00 0.00 M 153.01 2.00 C 143.51 2.48 134.37 5.42 125.01 6.85 C 125.35 6.94 126.04 7.13 126.38 7.23 C 118.15 8.90 111.09 13.73 103.06 15.96 C 96.49 18.54 89.95 21.28 83.82 24.79 C 75.23 29.10 67.74 35.24 60.62 41.62 C 54.89 47.66 49.64 54.19 45.05 61.14 C 41.94 66.38 38.32 71.37 36.33 77.18 C 34.27 80.10 33.16 83.53 31.98 86.86 C 30.17 93.41 28.84 100.16 28.99 106.99 C 28.80 111.70 29.77 116.33 29.99 121.02 C 29.97 122.44 30.59 123.73 31.15 124.99 C 31.15 127.42 31.09 129.89 31.81 132.24 C 32.95 136.24 33.08 140.61 35.32 144.23 C 35.57 145.41 35.88 146.58 36.31 147.71 C 37.18 152.88 38.76 157.89 39.96 162.99 C 41.48 167.43 41.47 172.47 44.37 176.36 C 46.83 183.23 50.76 189.50 54.48 195.74 C 57.09 199.37 59.15 203.46 62.44 206.56 C 65.54 209.47 68.30 212.74 71.65 215.39 C 77.16 219.49 82.33 224.08 88.28 227.57 C 94.88 232.18 102.73 234.47 110.44 236.48 C 111.64 236.71 112.91 237.30 114.14 236.93 C 115.90 238.00 117.89 238.51 119.87 238.99 C 125.45 240.65 131.10 242.08 136.78 243.37 C 139.98 244.16 143.13 245.42 146.47 245.36 C 150.03 245.15 153.62 244.86 157.08 243.95 C 165.36 241.80 173.96 240.83 181.98 237.73 C 182.90 237.49 183.81 237.21 184.72 236.89 C 189.18 236.61 193.40 234.97 197.58 233.51 C 201.80 231.81 206.40 230.74 209.99 227.79 C 215.37 225.17 220.83 222.33 225.03 217.96 C 227.68 215.31 230.45 212.77 232.96 209.99 C 237.71 204.04 243.00 198.33 245.88 191.15 C 248.31 188.58 250.91 186.15 253.24 183.49 C 255.37 179.95 254.47 175.63 254.95 171.72 C 255.58 170.50 256.27 169.33 256.85 168.09 C 258.87 166.73 259.60 164.21 260.57 162.10 C 263.56 153.06 265.71 143.40 264.32 133.86 C 263.71 128.27 263.28 122.66 262.44 117.11 C 261.17 111.45 262.51 105.60 261.43 99.91 C 260.48 94.99 260.78 89.93 259.78 85.01 C 259.37 80.83 258.07 76.82 257.09 72.76 C 256.89 72.55 256.47 72.12 256.27 71.91 C 255.16 67.47 253.56 63.07 251.03 59.23 C 244.39 49.86 238.68 39.71 230.48 31.55 C 227.62 28.73 225.63 25.07 222.31 22.72 C 217.24 18.81 211.20 16.50 205.88 12.99 C 202.03 10.48 197.70 8.74 193.22 7.74 C 190.14 5.85 186.35 5.74 182.89 5.07 C 181.79 4.21 180.74 3.31 179.57 2.55 C 177.58 2.09 175.52 2.01 173.52 1.61 C 169.06 0.61 164.50 1.46 159.99 1.07 C 157.61 0.82 155.36 1.85 153.01 2.00 M 294.19 148.41 C 293.63 155.27 294.51 162.14 294.38 169.00 C 294.51 176.20 293.58 183.41 294.23 190.60 L 294.36 189.87 C 297.37 190.04 300.40 190.11 303.41 189.80 L 303.96 190.60 C 304.55 185.73 303.61 180.87 303.65 176.00 C 303.67 171.33 303.67 166.67 303.65 162.00 C 303.61 157.46 304.46 152.93 303.99 148.40 L 303.43 149.20 C 300.45 148.89 297.45 148.91 294.47 149.21 L 294.19 148.41 M 312.22 148.39 C 311.76 151.91 312.18 155.46 312.22 159.00 C 312.28 161.13 312.16 163.34 313.02 165.36 C 313.08 167.45 313.08 169.54 313.02 171.64 C 312.03 173.97 312.35 176.54 312.25 179.00 C 312.21 182.87 311.70 186.74 312.22 190.59 L 312.42 189.80 C 315.02 190.02 317.64 190.03 320.26 190.01 C 320.17 188.76 320.06 187.52 319.93 186.29 C 320.28 177.31 320.00 168.30 319.47 159.33 C 321.05 162.15 322.39 165.12 324.31 167.75 C 325.00 170.10 326.23 172.22 328.17 173.77 C 328.76 174.79 329.41 175.78 330.14 176.71 C 331.11 180.09 333.45 182.91 335.98 185.26 L 336.50 185.96 C 335.16 187.38 336.65 190.68 338.66 189.95 C 341.18 190.01 343.71 190.01 346.24 190.00 C 346.16 189.57 346.02 188.72 345.95 188.30 C 346.12 175.19 345.82 162.08 346.15 148.97 C 343.56 148.97 340.98 148.98 338.41 149.21 L 338.22 148.41 C 337.54 153.60 338.44 158.80 338.30 164.00 C 338.38 166.04 337.95 168.27 339.08 170.11 C 338.94 172.87 338.91 175.66 339.31 178.41 C 338.98 177.88 338.33 176.83 338.00 176.31 C 337.41 172.98 335.56 169.96 333.06 167.72 C 331.77 165.55 330.32 163.49 328.87 161.43 C 328.07 158.41 326.34 155.64 323.94 153.64 C 323.13 152.15 322.43 150.61 321.76 149.07 C 318.66 148.96 315.54 148.92 312.44 149.19 L 312.22 148.39 M 355.25 148.44 C 354.66 152.94 355.25 157.48 355.23 162.00 C 355.22 166.67 355.22 171.34 355.23 176.00 C 355.24 180.86 354.63 185.72 355.26 190.56 L 355.37 189.85 C 359.57 190.11 363.79 189.96 368.00 190.03 C 373.34 190.22 378.93 188.43 382.78 184.62 C 385.02 182.93 386.92 180.77 387.89 178.09 C 390.75 171.14 391.33 162.10 385.94 156.19 C 382.56 151.44 376.60 149.43 371.01 148.99 C 365.79 149.02 360.57 148.88 355.36 149.15 L 355.25 148.44 M 396.21 148.41 C 395.61 155.26 396.60 162.13 396.34 169.00 C 396.60 176.20 395.57 183.40 396.22 190.59 L 396.43 189.79 C 405.31 190.11 414.24 190.18 423.12 189.76 C 424.60 188.34 424.61 185.10 423.72 183.24 C 423.53 183.39 423.17 183.69 422.99 183.83 C 416.97 184.23 410.94 183.79 404.93 184.13 C 405.23 180.07 405.09 175.99 404.72 171.95 C 409.24 172.01 413.75 172.09 418.27 171.89 C 419.66 171.02 419.66 166.98 418.27 166.11 C 413.76 165.91 409.25 165.99 404.75 166.06 C 405.17 162.38 404.93 158.68 404.75 155.00 C 410.23 154.93 415.71 155.16 421.18 154.85 C 422.69 154.04 422.66 150.06 421.35 149.10 C 413.05 149.00 404.73 148.80 396.43 149.21 L 396.21 148.41 M 430.22 148.41 C 429.56 154.93 430.58 161.46 430.34 168.00 C 430.61 175.53 429.60 183.06 430.21 190.59 L 430.44 189.79 C 439.32 190.11 448.24 190.18 457.12 189.76 C 458.60 188.34 458.61 185.10 457.71 183.24 C 457.53 183.39 457.17 183.69 456.99 183.83 C 450.97 184.23 444.94 183.79 438.93 184.12 C 439.22 180.07 439.09 175.99 438.72 171.94 C 443.23 172.01 447.75 172.09 452.27 171.89 C 453.66 171.02 453.65 166.98 452.27 166.11 C 447.76 165.91 443.25 165.99 438.75 166.06 C 439.18 162.38 438.93 158.68 438.75 155.00 C 444.14 154.99 449.54 155.01 454.93 154.99 C 455.10 155.12 455.43 155.37 455.59 155.50 C 456.36 153.72 456.81 150.42 455.42 149.10 C 447.09 148.99 438.74 148.81 430.42 149.21 L 430.22 148.41 M 464.25 148.44 C 463.65 152.95 464.25 157.48 464.23 162.00 C 464.22 166.67 464.22 171.33 464.23 176.00 C 464.24 180.85 463.63 185.72 464.25 190.57 L 464.37 189.85 C 468.57 190.11 472.79 189.96 477.00 190.03 C 482.35 190.22 487.94 188.43 491.79 184.61 C 494.40 182.75 496.43 180.15 496.97 176.92 L 497.29 176.31 C 500.04 169.88 499.76 161.59 494.94 156.20 C 491.57 151.43 485.59 149.43 480.00 148.99 C 474.79 149.02 469.57 148.88 464.36 149.15 L 464.25 148.44 M 140.01 260.52 C 135.53 260.94 131.59 263.74 127.03 263.63 C 125.11 263.96 123.53 265.26 121.80 266.09 C 122.16 266.54 122.88 267.44 123.24 267.89 C 121.02 267.81 118.90 268.87 117.78 270.81 C 116.84 272.43 114.88 273.02 113.76 274.42 C 111.33 280.03 108.64 285.75 108.34 291.95 C 107.42 294.89 107.67 298.05 106.53 300.94 C 106.78 303.65 108.05 307.23 106.04 309.46 C 105.97 312.07 106.00 314.68 106.00 317.30 C 105.57 316.99 104.71 316.36 104.28 316.05 C 105.72 320.65 100.00 322.09 98.90 325.85 C 97.77 329.11 94.76 331.06 92.35 333.32 C 88.50 335.60 85.78 339.23 82.60 342.30 C 81.80 345.59 81.70 349.10 80.22 352.20 C 82.21 355.11 81.22 358.67 81.59 361.94 C 82.61 364.26 84.47 366.11 85.31 368.51 C 85.75 370.96 85.32 373.47 85.61 375.93 C 86.47 378.57 88.83 380.22 90.62 382.19 C 93.29 385.10 96.41 387.55 99.76 389.63 C 104.04 391.34 108.80 390.17 113.29 390.49 C 113.93 389.08 114.65 387.61 116.16 386.99 C 119.07 385.78 119.24 382.17 121.44 380.23 C 126.71 374.90 132.04 369.63 137.33 364.32 C 140.13 361.55 143.60 359.53 147.30 358.20 C 150.55 356.28 152.15 352.43 155.57 350.72 C 157.40 349.88 159.03 348.74 160.56 347.43 C 162.55 346.54 164.37 345.38 166.06 343.99 C 168.92 343.08 172.04 343.64 175.00 343.48 C 181.66 343.06 187.10 347.52 192.99 349.88 C 195.20 349.91 198.00 350.77 199.72 348.92 C 200.29 349.24 201.43 349.88 202.00 350.20 C 202.00 352.09 201.99 354.00 202.02 355.91 C 206.14 358.58 211.03 361.07 213.06 365.84 C 214.71 365.93 216.36 365.99 218.01 366.05 C 218.04 368.69 217.83 371.34 218.14 373.98 C 220.27 378.29 224.22 381.95 224.60 386.94 C 227.98 387.93 231.53 387.33 235.00 387.51 C 238.82 387.77 242.54 386.74 246.27 386.16 C 248.82 384.07 251.33 381.86 254.14 380.14 C 256.10 379.57 257.61 378.23 258.99 376.80 C 258.72 371.89 259.66 366.79 258.29 362.03 C 259.49 360.97 259.76 358.80 258.77 357.53 C 258.89 356.05 258.96 354.57 258.97 353.09 C 256.92 351.76 254.66 350.76 252.69 349.31 C 248.31 343.44 249.24 335.74 246.95 329.10 C 246.39 327.09 245.41 325.16 245.50 323.03 C 245.45 316.70 245.59 310.36 245.46 304.03 C 245.35 301.39 243.35 299.39 242.72 296.92 C 242.44 294.59 240.25 293.25 239.61 291.07 C 238.63 288.40 235.59 287.14 234.68 284.48 C 234.31 281.60 234.54 278.68 234.48 275.78 C 230.31 273.12 225.66 271.21 221.89 267.92 C 221.44 268.25 220.56 268.93 220.11 269.26 C 220.05 268.71 219.91 267.61 219.84 267.06 C 212.40 265.39 205.42 262.17 197.97 260.57 C 194.64 260.39 191.27 260.74 188.01 259.86 C 183.36 259.72 178.65 259.50 174.02 260.03 C 166.35 261.62 158.68 259.27 150.99 259.63 C 147.47 261.01 143.68 260.34 140.01 260.52 Z" />
<path fill="#ffffff" opacity="1.00" d=" M 147.04 7.70 C 152.34 6.82 157.72 7.21 163.05 6.84 C 167.79 6.48 172.55 6.93 177.24 7.60 C 182.20 8.47 186.92 10.27 191.72 11.72 C 200.89 14.91 209.26 20.03 217.20 25.54 C 221.23 28.20 225.42 30.70 228.95 34.03 C 236.33 40.67 241.29 49.43 245.99 58.05 C 247.71 62.01 249.75 65.83 251.43 69.81 C 252.77 72.78 252.18 76.14 252.98 79.23 C 253.51 80.62 254.37 81.84 255.16 83.09 C 255.54 83.95 255.91 84.82 256.25 85.71 C 257.03 91.45 256.50 97.25 256.99 103.00 C 258.47 114.29 260.72 125.57 260.36 137.00 C 260.46 142.85 259.08 148.58 257.86 154.27 C 257.30 155.46 256.77 156.66 256.22 157.87 C 254.88 159.97 253.57 162.11 252.81 164.51 C 250.62 171.04 248.75 177.70 246.00 184.03 C 243.08 189.11 241.09 194.73 237.40 199.35 C 230.70 209.16 220.98 216.35 211.03 222.58 C 206.70 225.30 201.88 227.04 197.10 228.78 C 188.89 230.42 181.30 234.30 172.99 235.53 C 167.78 236.69 162.39 236.50 157.16 237.52 C 154.17 238.06 151.12 238.17 148.10 237.81 C 143.33 237.24 138.55 238.33 133.78 237.79 C 127.80 236.52 121.63 236.82 115.69 235.32 C 115.38 235.26 114.76 235.13 114.44 235.07 C 101.59 230.28 88.17 225.65 77.70 216.44 C 69.44 210.08 63.83 201.09 58.65 192.20 C 54.36 184.12 49.46 176.19 47.12 167.26 C 45.07 158.26 43.49 149.17 41.60 140.14 C 39.19 129.75 37.81 119.16 35.25 108.80 C 34.09 103.64 35.00 98.37 36.52 93.39 C 37.82 90.35 38.88 87.22 39.83 84.05 C 41.35 78.97 43.83 74.24 45.30 69.14 C 49.44 61.38 54.99 54.34 61.60 48.52 C 65.35 45.65 68.67 42.27 72.47 39.45 C 77.22 35.94 81.54 31.85 86.58 28.74 C 93.64 23.94 101.41 20.26 109.57 17.77 C 122.11 14.60 134.18 9.55 147.04 7.70 M 114.34 92.25 L 114.36 92.88 C 114.77 92.99 115.61 93.23 116.03 93.35 L 116.71 92.92 L 116.69 92.28 C 116.28 92.17 115.44 91.94 115.02 91.83 L 114.34 92.25 M 119.46 92.17 L 119.46 92.95 L 120.24 93.32 L 121.02 92.93 L 121.02 92.16 L 120.24 91.78 L 119.46 92.17 M 104.15 98.48 C 102.71 99.20 101.71 100.47 100.89 101.81 C 100.34 103.00 99.76 104.18 99.08 105.30 C 95.13 105.17 91.18 104.99 87.22 105.00 C 87.23 105.50 87.24 106.48 87.24 106.97 C 88.36 106.89 89.49 106.82 90.61 106.74 C 92.82 108.05 95.48 107.35 97.91 107.42 C 97.66 109.37 98.20 111.52 97.33 113.35 C 97.21 112.36 96.97 110.38 96.85 109.39 C 95.04 110.41 95.59 112.20 95.93 113.85 C 95.29 114.08 94.02 114.55 93.38 114.79 C 93.35 116.10 93.33 117.41 93.30 118.73 C 89.31 119.23 85.09 119.24 81.73 121.76 C 79.69 121.29 77.65 120.29 75.67 121.48 C 78.16 121.71 80.54 122.43 82.96 123.00 C 85.67 123.26 88.39 123.26 91.11 123.38 C 91.19 124.92 91.26 126.46 91.34 127.99 C 90.44 129.58 89.60 131.21 88.87 132.88 C 88.30 133.44 87.77 134.03 87.27 134.65 C 89.90 134.27 92.55 134.22 95.20 134.22 C 96.16 133.42 96.75 132.23 97.50 131.24 C 97.93 134.37 97.01 137.98 99.12 140.66 C 99.34 141.30 99.79 142.60 100.02 143.25 C 95.34 143.77 90.23 141.54 85.95 144.11 C 86.35 144.50 87.14 145.27 87.54 145.66 C 86.30 146.02 84.98 146.30 84.00 147.19 C 89.98 147.56 94.29 152.41 99.65 154.48 C 100.77 155.13 101.77 153.95 102.80 153.67 C 103.78 153.77 105.75 153.98 106.74 154.09 C 106.31 153.58 105.46 152.58 105.04 152.08 C 106.35 152.54 107.67 152.98 109.00 153.40 L 109.19 153.94 C 109.62 153.69 110.49 153.19 110.93 152.94 C 111.44 153.12 112.47 153.47 112.99 153.65 C 113.43 153.40 114.31 152.91 114.75 152.67 C 117.70 153.67 120.85 153.36 123.90 153.79 C 124.24 153.54 124.93 153.06 125.27 152.81 C 126.33 153.02 127.39 153.31 128.48 153.42 C 129.85 152.91 130.84 151.76 132.02 150.94 C 133.27 151.99 134.72 152.76 136.11 153.60 C 137.17 152.65 138.23 151.71 139.31 150.78 C 139.49 151.35 139.85 152.48 140.03 153.04 C 141.65 152.38 143.36 152.34 145.07 152.59 C 145.97 152.05 146.87 151.50 147.77 150.94 C 150.93 153.79 155.29 152.68 159.14 153.03 C 158.95 149.44 158.58 145.68 156.37 142.70 C 153.82 142.80 151.27 142.83 148.71 142.83 C 148.48 141.21 148.12 139.62 147.65 138.05 C 148.84 137.19 150.05 136.33 151.03 135.22 C 150.54 135.29 149.55 135.43 149.06 135.50 C 148.33 131.30 149.30 126.97 148.16 122.83 C 148.53 122.79 149.26 122.71 149.62 122.68 C 149.49 120.64 149.63 118.57 149.27 116.55 C 148.26 113.37 145.89 110.87 143.57 108.56 C 142.79 108.53 141.22 108.47 140.44 108.45 C 141.59 109.59 142.74 110.73 143.90 111.88 C 143.54 112.68 142.82 114.29 142.46 115.10 C 141.07 113.62 139.66 112.11 137.87 111.08 C 137.67 110.61 137.27 109.66 137.06 109.19 C 138.81 108.78 140.61 108.39 142.09 107.31 C 140.73 106.01 139.79 103.85 138.03 103.15 C 136.82 104.35 137.71 105.99 137.85 107.41 C 136.34 106.43 134.84 105.47 133.28 104.58 C 132.69 104.47 131.52 104.25 130.94 104.13 C 131.73 103.21 132.52 102.28 133.31 101.36 C 134.43 102.10 135.40 103.49 136.94 102.90 C 136.99 101.56 135.37 101.32 134.54 100.67 C 132.81 99.70 131.57 98.09 129.94 97.00 C 128.63 96.60 127.26 96.45 125.91 96.24 C 124.89 95.07 123.89 93.89 122.89 92.71 C 121.29 93.85 118.14 94.13 119.12 96.73 C 121.19 96.68 123.26 96.64 125.33 96.56 C 127.22 98.03 129.11 99.52 131.04 100.97 C 130.13 101.66 129.22 102.36 128.39 103.15 L 128.54 102.47 C 129.01 102.11 129.94 101.39 130.40 101.03 C 126.35 99.96 122.26 98.58 118.03 98.70 C 118.26 98.08 118.72 96.85 118.96 96.23 C 118.26 96.26 116.88 96.34 116.18 96.38 L 117.88 95.17 C 116.17 94.36 114.47 93.59 112.78 92.76 C 109.91 94.68 107.16 96.77 104.15 98.48 M 202.03 101.06 C 200.20 102.60 198.65 104.43 196.81 105.96 C 197.65 107.28 198.50 108.59 199.35 109.91 C 198.22 111.28 197.10 112.66 196.02 114.08 C 193.58 115.14 192.72 117.62 192.07 119.99 C 189.75 122.32 188.69 125.71 188.75 128.95 C 188.84 133.86 188.50 138.82 189.42 143.68 C 186.92 144.03 184.47 144.65 182.10 145.53 C 183.14 147.82 184.36 150.09 184.52 152.66 C 185.87 153.17 187.40 154.17 188.45 152.47 C 191.83 151.44 195.35 152.00 198.36 153.81 C 198.49 153.26 198.74 152.17 198.87 151.62 C 199.92 152.09 200.96 152.56 202.02 153.02 C 203.41 155.32 206.19 153.09 208.19 152.79 C 209.31 153.14 210.42 153.51 211.54 153.90 L 212.04 152.54 L 212.69 152.23 L 214.21 153.47 L 213.64 153.87 C 215.44 153.36 218.91 154.98 219.03 152.13 C 220.37 152.02 222.34 153.12 223.04 151.42 L 223.93 150.70 C 227.13 150.50 230.34 150.59 233.55 150.66 C 233.88 149.36 234.23 148.07 234.61 146.79 C 237.09 145.95 239.57 145.12 242.12 144.53 C 239.38 143.99 236.69 143.09 233.87 143.11 C 233.54 140.14 233.78 137.17 233.92 134.21 C 235.53 129.91 234.76 125.35 233.79 121.02 C 232.55 118.20 231.04 115.48 230.30 112.47 C 228.84 110.88 227.02 109.30 227.00 106.93 C 229.82 108.70 232.81 110.24 236.10 110.89 C 235.29 109.43 233.99 108.38 232.59 107.51 C 229.92 105.86 227.68 103.58 224.86 102.15 L 223.97 101.90 C 222.00 100.35 219.55 99.48 217.04 99.49 C 212.02 99.35 206.79 99.20 202.03 101.06 M 89.21 169.03 C 88.21 172.30 90.27 175.39 91.99 177.99 C 94.18 179.57 96.33 181.22 98.62 182.67 C 97.11 182.75 95.61 182.74 94.10 182.64 C 95.34 185.39 98.66 184.76 101.07 185.53 C 104.46 186.74 107.61 184.32 110.99 184.63 C 116.99 184.93 123.00 184.54 129.00 184.60 C 132.80 184.58 136.62 184.87 140.40 184.36 C 142.34 184.59 144.29 184.49 146.24 184.51 C 146.94 185.14 147.75 185.46 148.65 185.44 C 152.80 185.71 156.82 187.04 160.99 187.02 C 164.34 186.99 167.65 187.66 171.00 187.57 C 177.08 187.58 182.99 185.98 189.02 185.45 L 188.02 184.74 C 192.21 184.80 196.19 183.19 200.37 183.34 C 202.25 183.39 204.12 183.42 206.00 183.46 L 207.11 183.54 C 208.29 184.97 210.21 184.22 211.73 183.97 C 216.35 184.63 221.41 184.16 225.27 181.33 C 227.34 180.38 228.16 178.17 229.60 176.56 C 231.10 174.96 231.43 172.70 232.22 170.73 C 231.67 170.60 230.55 170.34 230.00 170.22 C 227.35 172.53 226.47 176.37 223.61 178.54 C 219.85 180.90 215.17 181.76 210.98 180.03 C 210.08 180.49 209.17 180.90 208.23 181.26 C 204.83 180.98 201.41 180.81 198.02 181.14 C 194.76 182.19 191.34 182.37 188.00 182.98 C 186.39 183.51 184.82 182.80 183.25 182.52 C 182.66 181.26 181.35 180.84 180.04 181.05 C 176.69 181.37 173.39 182.23 170.01 182.09 C 166.63 182.08 163.40 180.81 160.01 180.95 C 153.43 180.67 146.93 182.01 140.35 181.74 C 138.27 181.15 136.08 181.31 133.96 181.02 C 129.36 180.40 124.66 182.19 120.15 180.59 C 121.73 180.20 123.31 179.80 124.92 179.52 C 122.57 179.49 120.37 178.64 118.20 177.87 C 116.79 178.62 115.36 179.37 114.16 180.44 C 111.35 181.01 107.81 180.15 105.61 182.41 C 101.82 180.69 98.28 178.51 94.91 176.06 C 93.02 173.63 92.26 170.55 91.04 167.76 C 90.59 168.08 89.67 168.71 89.21 169.03 Z" />
<path fill="#ffffff" opacity="1.00" d=" M 363.32 155.13 C 368.02 154.59 373.31 154.96 376.92 158.38 L 377.22 159.22 C 377.60 160.71 378.17 162.53 379.96 162.77 L 379.79 164.33 C 379.43 165.60 380.08 166.81 380.66 167.91 L 381.12 168.93 C 381.01 169.47 380.78 170.54 380.66 171.07 C 380.01 172.16 379.59 173.41 379.82 174.69 C 379.93 178.00 377.30 180.93 374.60 182.55 C 371.34 184.54 367.47 183.95 363.85 184.03 C 364.10 174.41 364.19 164.72 363.32 155.13 Z" />
<path fill="#ffffff" opacity="1.00" d=" M 472.32 155.14 C 477.01 154.58 482.31 154.96 485.92 158.38 L 486.22 159.22 C 486.59 160.71 487.16 162.53 488.96 162.76 L 488.79 164.32 C 488.43 165.60 489.08 166.81 489.66 167.91 L 490.13 168.93 C 490.01 169.47 489.78 170.54 489.66 171.07 C 489.01 172.16 488.59 173.41 488.83 174.69 C 488.93 178.00 486.30 180.93 483.60 182.55 C 480.34 184.54 476.46 183.95 472.85 184.03 C 473.10 174.41 473.18 164.73 472.32 155.14 Z" />
<path fill="#ffffff" opacity="1.00" d=" M 148.05 263.39 C 153.92 261.96 160.02 262.52 165.99 262.59 C 168.93 263.27 172.31 264.40 174.14 266.93 C 174.19 268.64 174.15 270.35 174.13 272.06 C 170.12 275.89 164.15 275.49 159.02 275.63 C 154.91 275.57 151.13 277.58 147.02 277.62 C 143.96 278.09 139.78 278.34 138.73 281.91 L 138.17 282.05 C 137.87 282.07 137.27 282.10 136.98 282.11 C 135.19 283.21 133.28 284.23 131.86 285.82 C 130.17 288.64 129.67 291.99 129.32 295.22 C 130.65 293.50 131.65 291.55 132.71 289.67 C 134.04 287.20 136.34 285.51 138.17 283.46 C 142.17 281.85 146.13 280.15 150.27 278.91 C 150.60 278.84 151.26 278.72 151.59 278.65 C 160.46 278.27 169.32 279.13 178.19 278.80 C 178.75 279.40 179.30 280.01 179.85 280.62 C 181.15 282.22 182.73 283.56 184.09 285.10 C 184.95 287.10 184.23 289.63 182.03 290.36 C 172.98 290.62 163.64 288.90 154.86 291.93 C 152.83 292.47 150.71 292.82 148.85 293.84 C 147.48 294.85 146.98 296.60 145.85 297.84 C 144.28 299.63 142.66 301.37 141.27 303.30 C 139.42 305.80 136.54 307.55 135.49 310.59 C 134.21 313.99 133.65 317.61 132.53 321.06 C 133.69 320.71 134.85 320.35 136.02 320.05 C 138.32 320.21 140.26 318.14 138.79 315.97 C 141.68 312.68 145.94 311.13 148.98 307.99 C 154.85 307.35 160.68 306.26 166.42 304.86 C 170.25 304.38 174.15 304.24 177.99 304.72 C 180.20 304.86 181.34 306.98 182.47 308.57 C 182.36 310.60 182.31 312.62 182.29 314.65 C 178.59 318.37 173.06 319.49 167.99 319.60 C 164.53 319.95 161.29 321.41 157.84 321.84 C 155.76 321.53 153.67 322.65 153.88 324.99 C 153.38 326.53 152.69 328.01 152.02 329.48 C 156.15 327.98 160.42 326.91 164.49 325.23 C 168.88 323.32 173.62 325.28 177.42 327.60 C 179.84 329.27 180.40 333.26 178.42 335.41 C 170.77 340.38 160.94 340.34 153.23 345.16 C 150.63 346.40 147.66 347.20 145.80 349.58 L 145.78 349.60 C 142.90 351.10 140.69 353.48 138.82 356.08 C 136.67 357.85 134.10 359.24 132.72 361.77 C 129.57 366.86 126.20 371.81 122.78 376.73 C 121.53 378.51 119.57 379.55 117.91 380.89 C 115.92 382.83 112.90 382.34 110.64 383.78 C 106.84 385.99 102.30 385.82 98.08 385.52 C 94.74 385.05 93.42 381.47 93.17 378.53 C 89.57 376.37 88.65 372.08 87.36 368.41 C 85.82 364.42 86.92 360.04 85.84 355.97 C 85.20 353.26 83.96 350.73 83.47 347.99 C 83.48 345.98 84.94 343.92 87.02 343.72 C 88.80 343.43 90.60 343.48 92.40 343.44 C 95.08 340.50 97.63 337.44 100.23 334.44 C 103.67 329.92 102.36 323.57 105.88 319.13 C 108.29 315.42 109.10 310.98 111.04 307.04 C 113.23 302.64 114.03 297.73 115.54 293.08 C 117.55 287.69 115.20 281.53 118.34 276.44 C 122.42 271.78 128.67 270.13 134.24 267.95 C 138.87 266.51 143.25 264.27 148.05 263.39 M 112.19 325.22 C 110.96 325.25 110.15 327.71 111.74 327.80 C 112.91 327.71 113.71 325.37 112.19 325.22 M 147.30 337.10 C 147.05 337.39 146.54 337.97 146.28 338.26 C 147.20 341.06 150.83 336.05 147.30 337.10 Z" />
<path fill="#ffffff" opacity="1.00" d=" M 176.69 266.81 C 177.22 265.35 178.34 263.94 180.02 263.86 C 183.24 264.21 186.43 264.83 189.67 264.94 C 195.41 265.90 201.18 266.66 206.99 267.03 C 207.47 267.24 208.42 267.66 208.90 267.87 L 209.14 268.74 C 209.61 268.77 210.55 268.83 211.02 268.86 C 215.41 269.20 219.49 271.38 222.41 274.64 C 223.13 275.06 223.85 275.49 224.57 275.92 C 224.83 275.78 225.34 275.50 225.60 275.36 C 228.20 278.10 230.11 281.34 231.11 284.99 L 229.10 284.98 C 229.76 285.84 230.42 286.71 231.08 287.58 C 232.21 290.20 233.53 292.72 234.95 295.19 L 235.17 295.84 C 235.44 298.80 236.22 301.71 238.05 304.11 C 239.99 306.96 239.51 310.53 240.20 313.76 C 240.23 317.93 239.88 322.17 240.90 326.27 C 241.46 328.95 242.32 331.56 243.04 334.21 C 243.77 336.70 244.15 339.37 245.51 341.61 C 248.07 344.83 249.80 348.59 252.07 352.01 C 252.47 353.87 253.97 355.87 256.11 354.85 C 256.83 355.64 257.56 356.43 258.30 357.21 C 257.53 358.61 258.00 360.25 258.16 361.74 C 258.16 362.54 258.16 364.14 258.16 364.93 C 256.37 368.54 253.73 371.78 250.29 373.92 C 247.11 375.20 245.82 378.46 244.25 381.23 C 242.53 383.64 240.25 386.03 237.03 385.86 C 233.42 386.33 231.16 382.98 229.87 380.12 C 230.55 378.14 228.77 376.01 226.77 377.33 C 225.83 376.28 224.61 375.41 224.03 374.09 C 223.84 371.67 223.25 369.32 221.26 367.75 L 220.95 367.20 C 220.13 364.77 219.53 362.21 218.08 360.06 C 213.42 356.76 210.01 352.03 205.26 348.83 C 200.76 344.69 194.81 342.47 188.93 341.12 C 186.32 339.97 183.41 338.80 181.86 336.24 C 181.63 333.62 181.48 330.99 181.35 328.37 C 182.02 326.74 183.02 324.85 185.01 324.70 C 190.35 323.51 195.31 326.29 200.11 328.18 C 204.36 330.10 208.71 331.79 212.91 333.81 C 212.31 331.54 211.87 329.19 210.86 327.06 C 208.35 322.82 203.90 320.12 199.16 319.05 C 196.00 318.15 192.93 316.27 189.53 316.90 C 188.33 316.95 187.14 317.01 185.95 317.08 C 185.37 316.35 184.81 315.61 184.26 314.86 L 183.83 313.58 C 183.92 312.09 183.98 310.61 184.04 309.12 C 185.32 308.02 186.62 306.93 187.98 305.93 C 188.49 305.63 189.52 305.01 190.03 304.71 C 191.59 305.15 193.15 305.61 194.71 306.07 L 194.05 306.18 C 197.70 306.04 201.33 306.54 204.97 306.54 C 209.20 306.39 212.12 309.91 215.74 311.49 C 218.72 312.68 220.74 315.27 223.06 317.38 C 222.65 318.38 223.55 320.34 224.82 319.56 C 225.91 318.52 225.07 316.99 224.31 316.06 C 222.87 311.45 222.18 306.62 220.51 302.09 C 219.48 299.38 216.69 298.05 214.49 296.45 C 206.31 290.19 195.13 292.27 186.21 287.78 C 185.61 287.09 185.04 286.37 184.51 285.64 C 184.61 283.63 184.68 281.63 184.77 279.63 C 186.20 278.00 188.26 277.33 190.39 277.31 C 194.14 277.88 197.94 278.28 201.73 277.74 C 199.22 276.87 196.56 276.80 193.95 277.01 C 193.68 276.68 193.14 276.02 192.87 275.70 C 188.45 277.01 183.33 277.38 179.24 274.88 C 178.24 273.88 177.26 272.84 176.28 271.83 C 176.38 270.15 176.49 268.47 176.69 266.81 M 203.04 276.06 C 203.14 276.49 203.35 277.34 203.46 277.77 C 208.88 279.02 214.73 278.26 219.78 280.94 C 222.67 282.55 225.51 284.50 228.85 285.02 L 229.32 284.66 L 228.96 284.15 L 228.46 284.50 C 228.23 284.24 227.79 283.72 227.56 283.47 C 225.72 281.03 222.48 280.08 219.59 279.41 C 216.66 278.74 214.12 276.63 211.01 276.76 C 208.29 277.02 205.78 275.47 203.04 276.06 M 211.25 342.32 L 211.25 342.78 L 211.72 342.79 L 211.72 342.32 L 211.25 342.32 M 225.29 342.95 C 225.11 344.97 224.99 346.99 224.87 349.02 C 225.48 349.01 226.69 349.00 227.29 349.00 C 226.90 346.89 226.20 344.87 225.29 342.95 M 225.19 349.69 C 224.92 352.35 225.24 355.03 226.44 357.45 C 227.64 359.78 227.63 362.99 230.09 364.46 C 228.62 359.50 227.51 354.33 225.19 349.69 Z" />
</g>
<g id="#858585ff">
<path fill="#858585" opacity="1.00" d=" M 153.01 2.00 C 155.36 1.85 157.61 0.82 159.99 1.07 C 164.50 1.46 169.06 0.61 173.52 1.61 C 175.52 2.01 177.58 2.09 179.57 2.55 C 180.74 3.31 181.79 4.21 182.89 5.07 C 186.35 5.74 190.14 5.85 193.22 7.74 C 189.52 6.99 185.82 6.24 182.09 5.67 C 180.54 4.53 179.05 3.01 177.01 2.96 C 172.00 2.57 167.04 1.29 162.00 1.56 C 150.06 3.05 138.20 5.07 126.38 7.23 C 126.04 7.13 125.35 6.94 125.01 6.85 C 134.37 5.42 143.51 2.48 153.01 2.00 Z" />
</g>
<g id="#050505ff">
<path fill="#050505" opacity="1.00" d=" M 126.38 7.23 C 138.20 5.07 150.06 3.05 162.00 1.56 C 167.04 1.29 172.00 2.57 177.01 2.96 C 179.05 3.01 180.54 4.53 182.09 5.67 C 185.82 6.24 189.52 6.99 193.22 7.74 C 197.70 8.74 202.03 10.48 205.88 12.99 C 211.20 16.50 217.24 18.81 222.31 22.72 C 225.63 25.07 227.62 28.73 230.48 31.55 C 238.68 39.71 244.39 49.86 251.03 59.23 C 253.56 63.07 255.16 67.47 256.27 71.91 C 259.97 86.97 260.57 102.55 261.53 117.96 C 261.07 117.94 260.15 117.89 259.68 117.87 C 259.99 111.11 257.18 104.73 257.37 98.00 C 257.21 93.90 258.06 89.56 256.25 85.71 C 255.91 84.82 255.54 83.95 255.16 83.09 C 254.22 80.48 253.43 77.79 253.27 75.01 C 252.98 68.69 249.67 63.01 245.99 58.05 C 241.29 49.43 236.33 40.67 228.95 34.03 C 225.42 30.70 221.23 28.20 217.20 25.54 C 209.26 20.03 200.89 14.91 191.72 11.72 C 186.92 10.27 182.20 8.47 177.24 7.60 C 172.54 6.11 167.55 5.12 162.63 6.02 C 158.44 6.81 154.18 6.56 149.95 6.75 C 138.34 8.23 126.98 11.24 115.93 15.04 C 113.74 15.79 111.65 16.76 109.57 17.77 C 101.41 20.26 93.64 23.94 86.58 28.74 C 81.54 31.85 77.22 35.94 72.47 39.45 C 68.67 42.27 65.35 45.65 61.60 48.52 C 54.99 54.34 49.44 61.38 45.30 69.14 C 40.71 76.49 38.18 84.94 36.52 93.39 C 35.00 98.37 34.09 103.64 35.25 108.80 C 37.21 123.37 39.87 137.83 43.05 152.18 C 44.27 157.25 45.32 162.36 47.12 167.26 C 49.46 176.19 54.36 184.12 58.65 192.20 C 63.83 201.09 69.44 210.08 77.70 216.44 C 88.17 225.65 101.59 230.28 114.44 235.07 C 112.54 234.76 110.65 234.36 108.79 233.87 C 108.36 234.08 107.51 234.51 107.08 234.72 C 100.64 232.79 94.54 229.98 88.28 227.57 C 82.33 224.08 77.16 219.49 71.65 215.39 C 68.30 212.74 65.54 209.47 62.44 206.56 C 59.15 203.46 57.09 199.37 54.48 195.74 C 50.76 189.50 46.83 183.23 44.37 176.36 C 41.89 166.77 39.88 156.97 36.31 147.71 C 35.88 146.58 35.57 145.41 35.32 144.23 C 33.74 135.17 31.19 126.24 30.63 117.02 C 30.43 111.93 28.95 106.85 30.13 101.76 C 30.86 93.28 33.49 85.15 36.33 77.18 C 38.32 71.37 41.94 66.38 45.05 61.14 C 49.64 54.19 54.89 47.66 60.62 41.62 C 67.74 35.24 75.23 29.10 83.82 24.79 C 89.95 21.28 96.49 18.54 103.06 15.96 C 111.09 13.73 118.15 8.90 126.38 7.23 Z" />
<path fill="#050505" opacity="1.00" d=" M 260.36 120.24 C 261.01 119.68 261.66 119.13 262.33 118.59 C 262.19 123.09 262.67 127.57 263.44 132.00 C 263.93 138.99 264.17 146.18 262.22 152.99 C 261.05 158.23 259.10 163.23 256.85 168.09 C 256.27 169.33 255.58 170.50 254.95 171.72 C 252.88 174.77 254.29 178.60 253.26 181.93 C 251.26 185.38 247.26 187.27 245.88 191.15 C 243.00 198.33 237.71 204.04 232.96 209.99 C 230.45 212.77 227.68 215.31 225.03 217.96 C 220.83 222.33 215.37 225.17 209.99 227.79 C 201.59 230.91 193.27 234.23 184.72 236.89 C 183.81 237.21 182.90 237.49 181.98 237.73 C 175.23 238.81 168.58 240.42 161.91 241.85 C 157.27 242.79 152.72 244.27 147.98 244.56 C 144.13 244.83 140.49 243.33 136.83 242.36 C 129.30 240.42 121.69 238.82 114.14 236.93 L 115.69 235.32 C 121.63 236.82 127.80 236.52 133.78 237.79 C 137.80 238.52 141.90 238.05 145.95 238.37 C 150.57 238.70 155.26 238.56 159.81 237.66 C 164.15 236.70 168.66 237.17 173.01 236.28 C 178.88 235.64 184.39 233.49 190.00 231.83 C 192.48 231.08 194.81 229.96 197.10 228.78 C 201.88 227.04 206.70 225.30 211.03 222.58 C 220.98 216.35 230.70 209.16 237.40 199.35 C 241.09 194.73 243.08 189.11 246.00 184.03 C 248.95 180.22 250.48 175.61 251.75 171.02 C 252.95 166.54 254.68 162.23 256.22 157.87 C 256.77 156.66 257.30 155.46 257.86 154.27 C 260.85 150.18 260.78 144.82 260.74 139.99 C 260.36 133.41 261.15 126.80 260.36 120.24 Z" />
</g>
<g id="#767676ff">
<path fill="#767676" opacity="1.00" d=" M 162.63 6.02 C 167.55 5.12 172.54 6.11 177.24 7.60 C 172.55 6.93 167.79 6.48 163.05 6.84 C 157.72 7.21 152.34 6.82 147.04 7.70 C 134.18 9.55 122.11 14.60 109.57 17.77 C 111.65 16.76 113.74 15.79 115.93 15.04 C 126.98 11.24 138.34 8.23 149.95 6.75 C 154.18 6.56 158.44 6.81 162.63 6.02 Z" />
<path fill="#767676" opacity="1.00" d=" M 95.93 113.85 C 95.59 112.20 95.04 110.41 96.85 109.39 C 96.97 110.38 97.21 112.36 97.33 113.35 C 96.39 115.22 95.38 117.06 94.47 118.95 C 94.10 117.56 93.74 116.17 93.38 114.79 C 94.02 114.55 95.29 114.08 95.93 113.85 Z" />
<path fill="#767676" opacity="1.00" d=" M 149.06 135.50 C 149.55 135.43 150.54 135.29 151.03 135.22 C 150.05 136.33 148.84 137.19 147.65 138.05 C 148.12 139.62 148.48 141.21 148.71 142.83 C 151.27 142.83 153.82 142.80 156.37 142.70 C 158.58 145.68 158.95 149.44 159.14 153.03 C 155.29 152.68 150.93 153.79 147.77 150.94 C 146.87 151.50 145.97 152.05 145.07 152.59 C 143.36 152.34 141.65 152.38 140.03 153.04 C 139.85 152.48 139.49 151.35 139.31 150.78 C 138.23 151.71 137.17 152.65 136.11 153.60 C 134.72 152.76 133.27 151.99 132.02 150.94 C 130.84 151.76 129.85 152.91 128.48 153.42 C 127.39 153.31 126.33 153.02 125.27 152.81 C 124.93 153.06 124.24 153.54 123.90 153.79 C 120.85 153.36 117.70 153.67 114.75 152.67 C 114.31 152.91 113.43 153.40 112.99 153.65 C 112.47 153.47 111.44 153.12 110.93 152.94 C 110.49 153.19 109.62 153.69 109.19 153.94 L 109.00 153.40 C 108.76 152.81 108.27 151.63 108.03 151.04 L 108.94 150.86 C 115.21 152.32 121.65 151.68 128.01 151.96 C 129.28 151.94 130.17 150.86 131.22 150.29 C 133.41 150.38 135.61 150.54 137.80 150.73 C 138.47 150.23 139.13 149.74 139.80 149.24 C 139.90 149.94 140.09 151.33 140.18 152.02 C 142.71 151.65 145.19 150.98 147.72 150.61 C 151.12 151.66 154.64 152.11 158.18 151.64 C 157.42 148.98 157.88 145.46 155.45 143.60 C 152.72 142.67 149.74 143.03 146.89 142.82 C 146.75 141.93 146.60 141.03 146.47 140.14 C 146.16 139.87 145.55 139.33 145.24 139.06 C 146.50 137.86 147.73 136.62 149.06 135.50 Z" />
</g>
<g id="#888888ff">
<path fill="#888888" opacity="1.00" d=" M 245.99 58.05 C 249.67 63.01 252.98 68.69 253.27 75.01 C 253.43 77.79 254.22 80.48 255.16 83.09 C 254.37 81.84 253.51 80.62 252.98 79.23 C 252.18 76.14 252.77 72.78 251.43 69.81 C 249.75 65.83 247.71 62.01 245.99 58.05 Z" />
</g>
<g id="#919191ff">
<path fill="#919191" opacity="1.00" d=" M 36.52 93.39 C 38.18 84.94 40.71 76.49 45.30 69.14 C 43.83 74.24 41.35 78.97 39.83 84.05 C 38.88 87.22 37.82 90.35 36.52 93.39 Z" />
<path fill="#919191" opacity="1.00" d=" M 119.12 96.73 C 118.14 94.13 121.29 93.85 122.89 92.71 C 123.89 93.89 124.89 95.07 125.91 96.24 C 127.26 96.45 128.63 96.60 129.94 97.00 C 131.57 98.09 132.81 99.70 134.54 100.67 C 135.37 101.32 136.99 101.56 136.94 102.90 C 135.40 103.49 134.43 102.10 133.31 101.36 C 132.52 102.28 131.73 103.21 130.94 104.13 C 130.28 103.99 128.97 103.69 128.31 103.55 L 128.39 103.15 C 129.22 102.36 130.13 101.66 131.04 100.97 C 129.11 99.52 127.22 98.03 125.33 96.56 C 123.26 96.64 121.19 96.68 119.12 96.73 Z" />
</g>
<g id="#777777ff">
<path fill="#777777" opacity="1.00" d=" M 256.27 71.91 C 256.47 72.12 256.89 72.55 257.09 72.76 C 258.07 76.82 259.37 80.83 259.78 85.01 C 260.78 89.93 260.48 94.99 261.43 99.91 C 262.51 105.60 261.17 111.45 262.44 117.11 C 263.28 122.66 263.71 128.27 264.32 133.86 C 265.71 143.40 263.56 153.06 260.57 162.10 C 259.60 164.21 258.87 166.73 256.85 168.09 C 259.10 163.23 261.05 158.23 262.22 152.99 C 264.17 146.18 263.93 138.99 263.44 132.00 C 262.67 127.57 262.19 123.09 262.33 118.59 C 261.66 119.13 261.01 119.68 260.36 120.24 C 261.15 126.80 260.36 133.41 260.74 139.99 C 260.78 144.82 260.85 150.18 257.86 154.27 C 259.08 148.58 260.46 142.85 260.36 137.00 C 260.72 125.57 258.47 114.29 256.99 103.00 C 256.50 97.25 257.03 91.45 256.25 85.71 C 258.06 89.56 257.21 93.90 257.37 98.00 C 257.18 104.73 259.99 111.11 259.68 117.87 C 260.15 117.89 261.07 117.94 261.53 117.96 C 260.57 102.55 259.97 86.97 256.27 71.91 Z" />
</g>
<g id="#838383ff">
<path fill="#838383" opacity="1.00" d=" M 31.98 86.86 C 33.16 83.53 34.27 80.10 36.33 77.18 C 33.49 85.15 30.86 93.28 30.13 101.76 C 28.95 106.85 30.43 111.93 30.63 117.02 C 31.19 126.24 33.74 135.17 35.32 144.23 C 33.08 140.61 32.95 136.24 31.81 132.24 C 31.09 129.89 31.15 127.42 31.15 124.99 C 30.59 123.73 29.97 122.44 29.99 121.02 C 29.77 116.33 28.80 111.70 28.99 106.99 C 28.84 100.16 30.17 93.41 31.98 86.86 Z" />
</g>
<g id="#646464ff">
<path fill="#646464" opacity="1.00" d=" M 114.34 92.25 L 115.02 91.83 C 115.44 91.94 116.28 92.17 116.69 92.28 L 116.71 92.92 L 116.03 93.35 C 115.61 93.23 114.77 92.99 114.36 92.88 L 114.34 92.25 Z" />
</g>
<g id="#686868ff">
<path fill="#686868" opacity="1.00" d=" M 119.46 92.17 L 120.24 91.78 L 121.02 92.16 L 121.02 92.93 L 120.24 93.32 L 119.46 92.95 L 119.46 92.17 Z" />
</g>
<g id="#6c6c6cff">
<path fill="#6c6c6c" opacity="1.00" d=" M 104.15 98.48 C 107.16 96.77 109.91 94.68 112.78 92.76 C 114.47 93.59 116.17 94.36 117.88 95.17 L 116.18 96.38 C 114.85 96.42 113.51 96.44 112.17 96.45 C 110.21 96.06 108.31 97.50 108.30 99.54 C 106.62 99.99 104.89 100.24 103.16 100.38 C 102.40 100.85 101.65 101.33 100.89 101.81 C 101.71 100.47 102.71 99.20 104.15 98.48 Z" />
<path fill="#6c6c6c" opacity="1.00" d=" M 114.33 97.99 C 115.15 96.53 117.87 97.83 116.46 99.24 C 115.61 100.49 113.12 99.42 114.33 97.99 Z" />
<path fill="#6c6c6c" opacity="1.00" d=" M 99.12 140.66 C 99.74 141.63 100.36 142.61 100.97 143.60 C 97.33 143.73 93.68 143.40 90.06 143.74 C 89.15 144.64 88.37 145.66 87.56 146.66 C 90.53 148.20 93.45 149.84 96.19 151.75 C 99.74 154.46 104.26 151.83 107.94 150.70 C 108.19 150.74 108.69 150.82 108.94 150.86 L 108.03 151.04 C 108.27 151.63 108.76 152.81 109.00 153.40 C 107.67 152.98 106.35 152.54 105.04 152.08 C 105.46 152.58 106.31 153.58 106.74 154.09 C 105.75 153.98 103.78 153.77 102.80 153.67 C 101.77 153.95 100.77 155.13 99.65 154.48 C 94.29 152.41 89.98 147.56 84.00 147.19 C 84.98 146.30 86.30 146.02 87.54 145.66 C 87.14 145.27 86.35 144.50 85.95 144.11 C 90.23 141.54 95.34 143.77 100.02 143.25 C 99.79 142.60 99.34 141.30 99.12 140.66 Z" />
</g>
<g id="#a6a6a6ff">
<path fill="#a6a6a6" opacity="1.00" d=" M 108.30 99.54 C 108.31 97.50 110.21 96.06 112.17 96.45 C 112.27 98.54 109.95 99.22 108.30 99.54 Z" />
<path fill="#a6a6a6" opacity="1.00" d=" M 93.30 118.73 C 93.33 117.41 93.35 116.10 93.38 114.79 C 93.74 116.17 94.10 117.56 94.47 118.95 C 94.26 119.39 93.84 120.27 93.63 120.72 C 90.98 120.81 88.28 120.70 85.74 121.57 C 84.44 122.04 83.07 122.00 81.73 121.76 C 85.09 119.24 89.31 119.23 93.30 118.73 Z" />
</g>
<g id="#030303ff">
<path fill="#030303" opacity="1.00" d=" M 112.17 96.45 C 113.51 96.44 114.85 96.42 116.18 96.38 C 116.88 96.34 118.26 96.26 118.96 96.23 C 118.72 96.85 118.26 98.08 118.03 98.70 C 122.26 98.58 126.35 99.96 130.40 101.03 C 129.94 101.39 129.01 102.11 128.54 102.47 L 128.39 103.15 L 128.31 103.55 C 128.97 103.69 130.28 103.99 130.94 104.13 C 131.52 104.25 132.69 104.47 133.28 104.58 C 134.20 107.13 135.17 109.92 137.87 111.08 C 139.66 112.11 141.07 113.62 142.46 115.10 C 142.82 114.29 143.54 112.68 143.90 111.88 C 142.74 110.73 141.59 109.59 140.44 108.45 C 141.22 108.47 142.79 108.53 143.57 108.56 C 145.89 110.87 148.26 113.37 149.27 116.55 C 149.63 118.57 149.49 120.64 149.62 122.68 C 149.26 122.71 148.53 122.79 148.16 122.83 C 149.30 126.97 148.33 131.30 149.06 135.50 C 147.73 136.62 146.50 137.86 145.24 139.06 C 145.55 139.33 146.16 139.87 146.47 140.14 C 146.60 141.03 146.75 141.93 146.89 142.82 C 149.74 143.03 152.72 142.67 155.45 143.60 C 157.88 145.46 157.42 148.98 158.18 151.64 C 154.64 152.11 151.12 151.66 147.72 150.61 C 145.19 150.98 142.71 151.65 140.18 152.02 C 140.09 151.33 139.90 149.94 139.80 149.24 C 139.13 149.74 138.47 150.23 137.80 150.73 C 135.61 150.54 133.41 150.38 131.22 150.29 C 130.17 150.86 129.28 151.94 128.01 151.96 C 121.65 151.68 115.21 152.32 108.94 150.86 C 108.69 150.82 108.19 150.74 107.94 150.70 C 104.26 151.83 99.74 154.46 96.19 151.75 C 93.45 149.84 90.53 148.20 87.56 146.66 C 88.37 145.66 89.15 144.64 90.06 143.74 C 93.68 143.40 97.33 143.73 100.97 143.60 C 100.36 142.61 99.74 141.63 99.12 140.66 C 97.01 137.98 97.93 134.37 97.50 131.24 C 96.75 132.23 96.16 133.42 95.20 134.22 C 92.55 134.22 89.90 134.27 87.27 134.65 C 87.77 134.03 88.30 133.44 88.87 132.88 C 90.32 131.49 91.87 130.20 93.47 128.99 C 93.47 127.84 93.47 126.71 93.47 125.57 C 92.68 124.84 91.90 124.11 91.11 123.38 C 88.39 123.26 85.67 123.26 82.96 123.00 C 80.54 122.43 78.16 121.71 75.67 121.48 C 77.65 120.29 79.69 121.29 81.73 121.76 C 83.07 122.00 84.44 122.04 85.74 121.57 C 88.28 120.70 90.98 120.81 93.63 120.72 C 93.84 120.27 94.26 119.39 94.47 118.95 C 95.38 117.06 96.39 115.22 97.33 113.35 C 98.20 111.52 97.66 109.37 97.91 107.42 C 95.48 107.35 92.82 108.05 90.61 106.74 C 93.14 106.51 95.68 106.57 98.22 106.57 C 98.43 106.25 98.86 105.61 99.08 105.30 C 99.76 104.18 100.34 103.00 100.89 101.81 C 101.65 101.33 102.40 100.85 103.16 100.38 C 104.89 100.24 106.62 99.99 108.30 99.54 C 109.95 99.22 112.27 98.54 112.17 96.45 M 114.33 97.99 C 113.12 99.42 115.61 100.49 116.46 99.24 C 117.87 97.83 115.15 96.53 114.33 97.99 M 110.14 101.59 C 111.08 102.27 113.16 101.28 112.72 100.02 C 111.76 99.18 109.70 100.32 110.14 101.59 M 115.24 114.96 C 115.35 115.77 115.57 117.38 115.69 118.18 C 117.69 118.11 117.92 119.62 117.81 121.26 C 116.11 119.90 115.00 118.02 114.30 115.98 C 112.68 116.20 111.03 116.49 110.04 117.95 C 110.74 118.82 111.44 119.69 112.13 120.57 C 111.05 121.29 109.45 121.63 109.31 123.17 C 109.01 123.27 108.39 123.46 108.09 123.56 L 107.42 124.99 C 107.21 124.57 106.78 123.75 106.56 123.33 C 106.09 123.29 105.14 123.21 104.67 123.17 C 104.60 123.68 104.45 124.70 104.38 125.21 L 103.00 125.05 C 102.82 128.38 104.29 131.52 104.06 134.86 C 104.88 134.90 106.50 134.99 107.31 135.03 C 106.27 135.59 105.23 136.15 104.18 136.70 C 105.42 138.58 106.22 141.18 108.57 141.94 L 109.85 140.82 L 109.86 140.83 C 110.13 141.43 110.67 142.62 110.94 143.21 L 111.60 142.74 C 113.47 143.74 115.55 143.82 117.38 142.66 L 118.39 143.45 C 118.24 142.09 117.83 140.82 117.18 139.62 C 118.21 140.76 119.20 141.93 120.20 143.10 C 119.69 145.03 122.96 144.99 123.09 143.27 L 124.39 144.16 C 124.01 142.77 123.70 141.38 123.46 139.97 C 124.09 140.18 125.35 140.61 125.98 140.83 C 126.54 142.47 127.76 143.63 129.33 144.32 C 129.24 143.24 129.07 141.07 128.98 139.99 L 130.76 141.30 C 130.68 141.07 130.51 140.60 130.43 140.37 C 131.43 140.54 132.24 141.02 132.85 141.80 C 134.62 140.49 136.79 140.37 138.90 140.61 C 138.99 140.21 139.18 139.42 139.27 139.02 C 140.08 139.79 140.82 140.88 142.11 140.54 C 142.25 139.19 142.40 137.85 142.58 136.51 C 140.95 136.11 139.38 135.53 137.80 134.98 C 137.76 136.25 137.70 137.52 137.64 138.79 C 136.83 138.66 135.21 138.39 134.40 138.26 C 136.87 137.34 137.22 135.98 135.44 134.18 C 138.03 134.32 140.59 133.79 143.18 133.87 C 143.34 133.41 143.64 132.48 143.80 132.01 C 142.72 132.30 141.70 132.71 140.73 133.26 C 140.79 131.46 141.77 130.40 143.53 130.15 C 142.55 128.45 141.49 126.67 142.09 124.63 C 141.63 124.50 140.71 124.24 140.25 124.11 C 140.18 123.34 140.04 121.78 139.97 121.00 C 139.14 120.14 138.32 119.28 137.51 118.41 L 137.40 118.43 C 136.42 117.22 135.28 116.11 133.64 115.94 C 133.24 115.72 132.46 115.28 132.06 115.07 C 130.87 115.48 130.27 116.33 130.26 117.60 C 129.45 117.27 128.62 116.97 127.79 116.71 L 129.32 116.48 C 129.44 115.86 129.69 114.61 129.82 113.98 C 129.19 114.10 127.94 114.33 127.31 114.44 C 125.52 113.83 123.60 113.28 121.88 114.43 C 120.03 111.91 117.38 114.12 115.24 114.96 M 144.48 111.47 C 144.06 112.41 143.21 114.29 142.79 115.23 C 145.11 117.31 146.40 120.14 148.15 122.65 C 150.23 118.87 147.86 113.76 144.48 111.47 M 107.31 119.66 C 107.14 120.06 106.81 120.86 106.64 121.26 L 107.09 122.03 C 109.84 123.76 110.08 118.17 107.31 119.66 Z" />
</g>
<g id="#9d9d9dff">
<path fill="#9d9d9d" opacity="1.00" d=" M 202.03 101.06 C 206.79 99.20 212.02 99.35 217.04 99.49 C 219.55 99.48 222.00 100.35 223.97 101.90 C 217.04 99.41 209.49 99.74 202.47 101.61 C 200.24 103.31 199.15 106.24 199.65 109.01 C 200.43 111.62 197.78 112.89 196.02 114.08 C 197.10 112.66 198.22 111.28 199.35 109.91 C 198.50 108.59 197.65 107.28 196.81 105.96 C 198.65 104.43 200.20 102.60 202.03 101.06 Z" />
</g>
<g id="#525252ff">
<path fill="#525252" opacity="1.00" d=" M 110.14 101.59 C 109.70 100.32 111.76 99.18 112.72 100.02 C 113.16 101.28 111.08 102.27 110.14 101.59 Z" />
</g>
<g id="#020202ff">
<path fill="#020202" opacity="1.00" d=" M 202.47 101.61 C 209.49 99.74 217.04 99.41 223.97 101.90 L 224.86 102.15 C 225.43 102.86 226.00 103.56 226.58 104.26 C 226.35 105.52 226.07 106.77 226.00 108.06 C 228.28 112.81 231.21 117.23 233.48 122.00 C 234.62 125.97 233.88 130.14 233.92 134.21 C 233.78 137.17 233.54 140.14 233.87 143.11 C 236.69 143.09 239.38 143.99 242.12 144.53 C 239.57 145.12 237.09 145.95 234.61 146.79 C 234.23 148.07 233.88 149.36 233.55 150.66 C 230.34 150.59 227.13 150.50 223.93 150.70 L 223.04 151.42 C 221.57 151.49 220.17 151.07 218.81 150.58 C 217.27 151.54 215.69 152.42 214.21 153.47 L 212.69 152.23 L 212.04 152.54 L 211.54 153.90 C 210.42 153.51 209.31 153.14 208.19 152.79 C 206.19 153.09 203.41 155.32 202.02 153.02 C 201.13 152.12 200.25 151.23 199.37 150.33 C 198.61 150.77 197.86 151.20 197.10 151.64 C 193.49 151.36 189.76 150.97 186.31 152.36 C 185.09 150.21 184.08 147.95 182.95 145.75 C 185.57 145.20 188.15 144.52 190.70 143.69 C 189.63 138.51 189.86 133.19 189.96 127.94 C 189.98 125.15 191.29 122.62 192.07 119.99 C 192.72 117.62 193.58 115.14 196.02 114.08 C 197.78 112.89 200.43 111.62 199.65 109.01 C 199.15 106.24 200.24 103.31 202.47 101.61 M 208.56 117.20 C 205.37 118.00 202.70 119.89 200.62 122.41 C 200.61 123.80 200.56 125.18 200.52 126.58 C 200.43 127.13 200.25 128.24 200.16 128.79 C 197.17 130.35 195.14 134.16 197.20 137.24 C 199.08 139.21 202.04 140.05 203.27 142.61 L 203.32 142.56 C 203.80 143.12 204.77 144.24 205.26 144.80 C 205.68 144.42 206.53 143.64 206.96 143.25 C 208.84 144.28 210.81 145.17 212.87 145.80 C 212.85 144.94 212.80 143.22 212.78 142.36 L 213.86 142.79 C 214.17 143.36 214.81 144.50 215.12 145.07 C 217.78 145.30 220.43 145.74 222.95 146.67 C 223.01 146.02 223.13 144.70 223.19 144.05 C 223.52 144.24 224.18 144.64 224.51 144.83 C 224.52 144.47 224.55 143.73 224.56 143.37 C 225.27 143.52 226.69 143.83 227.40 143.99 C 227.36 142.64 227.00 140.94 228.89 140.73 C 230.64 140.29 231.38 138.60 231.93 137.06 C 231.40 135.65 232.38 134.40 232.77 133.13 C 232.50 132.66 231.95 131.73 231.68 131.27 C 231.69 129.53 231.84 127.77 231.54 126.06 C 230.48 124.09 229.34 121.95 227.44 120.70 C 225.80 120.52 224.15 120.66 222.51 120.67 C 222.54 120.03 222.60 118.73 222.63 118.08 C 221.35 118.31 222.09 120.29 221.13 120.72 C 220.52 119.75 220.28 118.62 220.10 117.51 C 219.46 117.49 218.16 117.46 217.52 117.45 C 215.24 114.48 211.34 115.94 208.56 117.20 Z" />
</g>
<g id="#8a8a8aff">
<path fill="#8a8a8a" opacity="1.00" d=" M 224.86 102.15 C 227.68 103.58 229.92 105.86 232.59 107.51 C 233.99 108.38 235.29 109.43 236.10 110.89 C 232.81 110.24 229.82 108.70 227.00 106.93 C 227.02 109.30 228.84 110.88 230.30 112.47 C 231.04 115.48 232.55 118.20 233.79 121.02 C 234.76 125.35 235.53 129.91 233.92 134.21 C 233.88 130.14 234.62 125.97 233.48 122.00 C 231.21 117.23 228.28 112.81 226.00 108.06 C 226.07 106.77 226.35 105.52 226.58 104.26 C 226.00 103.56 225.43 102.86 224.86 102.15 Z" />
</g>
<g id="#737373ff">
<path fill="#737373" opacity="1.00" d=" M 138.03 103.15 C 139.79 103.85 140.73 106.01 142.09 107.31 C 140.61 108.39 138.81 108.78 137.06 109.19 C 137.27 109.66 137.67 110.61 137.87 111.08 C 135.17 109.92 134.20 107.13 133.28 104.58 C 134.84 105.47 136.34 106.43 137.85 107.41 C 137.71 105.99 136.82 104.35 138.03 103.15 Z" />
<path fill="#737373" opacity="1.00" d=" M 103.00 125.05 L 104.38 125.21 C 104.30 125.78 104.14 126.93 104.06 127.50 C 104.48 127.49 105.34 127.48 105.76 127.47 C 106.05 127.97 106.62 128.98 106.90 129.48 L 106.25 130.38 C 105.85 130.69 105.07 131.31 104.67 131.63 C 104.54 133.61 106.64 134.08 108.09 134.69 C 107.41 136.06 106.60 137.36 105.80 138.65 C 106.80 139.07 107.80 139.49 108.78 139.97 C 109.05 140.18 109.58 140.61 109.85 140.82 L 108.57 141.94 C 106.22 141.18 105.42 138.58 104.18 136.70 C 105.23 136.15 106.27 135.59 107.31 135.03 C 106.50 134.99 104.88 134.90 104.06 134.86 C 104.29 131.52 102.82 128.38 103.00 125.05 Z" />
<path fill="#737373" opacity="1.00" d=" M 253.26 181.93 C 254.29 178.60 252.88 174.77 254.95 171.72 C 254.47 175.63 255.37 179.95 253.24 183.49 C 250.91 186.15 248.31 188.58 245.88 191.15 C 247.26 187.27 251.26 185.38 253.26 181.93 Z" />
</g>
<g id="#bfbfbfff">
<path fill="#bfbfbf" opacity="1.00" d=" M 87.22 105.00 C 91.18 104.99 95.13 105.17 99.08 105.30 C 98.86 105.61 98.43 106.25 98.22 106.57 C 95.68 106.57 93.14 106.51 90.61 106.74 C 89.49 106.82 88.36 106.89 87.24 106.97 C 87.24 106.48 87.23 105.50 87.22 105.00 Z" />
</g>
<g id="#868686ff">
<path fill="#868686" opacity="1.00" d=" M 35.25 108.80 C 37.81 119.16 39.19 129.75 41.60 140.14 C 43.49 149.17 45.07 158.26 47.12 167.26 C 45.32 162.36 44.27 157.25 43.05 152.18 C 39.87 137.83 37.21 123.37 35.25 108.80 Z" />
</g>
<g id="#707070ff">
<path fill="#707070" opacity="1.00" d=" M 115.24 114.96 C 117.38 114.12 120.03 111.91 121.88 114.43 C 123.60 113.28 125.52 113.83 127.31 114.44 C 123.36 115.45 119.02 117.71 115.24 114.96 Z" />
<path fill="#707070" opacity="1.00" d=" M 148.65 185.44 C 155.15 184.78 161.51 186.78 168.01 186.54 C 174.76 187.08 181.33 185.21 188.02 184.74 L 189.02 185.45 C 182.99 185.98 177.08 187.58 171.00 187.57 C 167.65 187.66 164.34 186.99 160.99 187.02 C 156.82 187.04 152.80 185.71 148.65 185.44 Z" />
</g>
<g id="#e4e4e4ff">
<path fill="#e4e4e4" opacity="1.00" d=" M 144.48 111.47 C 147.86 113.76 150.23 118.87 148.15 122.65 C 146.40 120.14 145.11 117.31 142.79 115.23 C 143.21 114.29 144.06 112.41 144.48 111.47 Z" />
</g>
<g id="#fbfbfbff">
<path fill="#fbfbfb" opacity="1.00" d=" M 127.31 114.44 C 127.94 114.33 129.19 114.10 129.82 113.98 C 129.69 114.61 129.44 115.86 129.32 116.48 L 127.79 116.71 C 127.54 116.75 127.03 116.82 126.78 116.86 C 125.99 116.98 124.42 117.21 123.63 117.33 C 123.90 118.88 124.19 120.43 124.48 121.98 C 124.86 121.75 125.62 121.28 126.00 121.05 C 126.28 120.89 126.85 120.56 127.13 120.40 C 128.07 120.62 129.00 120.85 129.93 121.10 C 130.01 120.23 130.18 118.48 130.26 117.60 C 130.27 116.33 130.87 115.48 132.06 115.07 C 132.59 117.48 133.10 119.90 133.62 122.32 C 131.64 123.46 128.69 123.49 127.68 125.82 C 131.02 125.86 134.20 124.45 136.16 121.70 C 136.66 121.37 137.66 120.72 138.16 120.40 C 138.85 121.63 139.55 122.87 140.25 124.11 C 140.71 124.24 141.63 124.50 142.09 124.63 C 141.49 126.67 142.55 128.45 143.53 130.15 C 141.77 130.40 140.79 131.46 140.73 133.26 C 141.70 132.71 142.72 132.30 143.80 132.01 C 143.64 132.48 143.34 133.41 143.18 133.87 C 140.59 133.79 138.03 134.32 135.44 134.18 C 137.22 135.98 136.87 137.34 134.40 138.26 C 135.21 138.39 136.83 138.66 137.64 138.79 C 137.70 137.52 137.76 136.25 137.80 134.98 C 139.38 135.53 140.95 136.11 142.58 136.51 C 142.40 137.85 142.25 139.19 142.11 140.54 C 140.82 140.88 140.08 139.79 139.27 139.02 C 139.18 139.42 138.99 140.21 138.90 140.61 C 136.79 140.37 134.62 140.49 132.85 141.80 C 132.24 141.02 131.43 140.54 130.43 140.37 C 130.51 140.60 130.68 141.07 130.76 141.30 L 128.98 139.99 C 129.07 141.07 129.24 143.24 129.33 144.32 C 127.76 143.63 126.54 142.47 125.98 140.83 C 125.35 140.61 124.09 140.18 123.46 139.97 C 123.70 141.38 124.01 142.77 124.39 144.16 L 123.09 143.27 C 122.76 142.94 122.09 142.29 121.76 141.96 C 121.37 142.25 120.59 142.82 120.20 143.10 C 119.20 141.93 118.21 140.76 117.18 139.62 C 117.83 140.82 118.24 142.09 118.39 143.45 L 117.38 142.66 C 116.47 141.95 115.57 141.24 114.66 140.54 C 113.05 140.43 111.45 140.63 109.86 140.83 L 109.85 140.82 C 109.58 140.61 109.05 140.18 108.78 139.97 C 107.80 139.49 106.80 139.07 105.80 138.65 C 106.60 137.36 107.41 136.06 108.09 134.69 C 106.64 134.08 104.54 133.61 104.67 131.63 C 105.07 131.31 105.85 130.69 106.25 130.38 C 107.74 132.41 109.32 134.76 112.03 135.16 C 114.06 135.71 115.23 133.54 116.65 132.55 C 116.68 130.53 116.71 128.51 116.75 126.49 C 113.98 125.03 110.94 125.43 108.14 126.55 C 107.83 127.29 107.21 128.75 106.90 129.48 C 106.62 128.98 106.05 127.97 105.76 127.47 C 105.34 127.48 104.48 127.49 104.06 127.50 C 104.14 126.93 104.30 125.78 104.38 125.21 C 104.45 124.70 104.60 123.68 104.67 123.17 C 105.14 123.21 106.09 123.29 106.56 123.33 C 106.78 123.75 107.21 124.57 107.42 124.99 L 108.09 123.56 C 108.39 123.46 109.01 123.27 109.31 123.17 C 109.45 121.63 111.05 121.29 112.13 120.57 C 111.44 119.69 110.74 118.82 110.04 117.95 C 111.03 116.49 112.68 116.20 114.30 115.98 C 115.00 118.02 116.11 119.90 117.81 121.26 C 117.92 119.62 117.69 118.11 115.69 118.18 C 115.57 117.38 115.35 115.77 115.24 114.96 C 119.02 117.71 123.36 115.45 127.31 114.44 M 135.76 129.95 C 137.75 129.52 140.64 130.10 141.81 128.04 C 141.69 127.40 141.46 126.12 141.34 125.49 C 139.34 126.74 136.79 127.62 135.76 129.95 Z" />
</g>
<g id="#949494ff">
<path fill="#949494" opacity="1.00" d=" M 208.56 117.20 C 211.34 115.94 215.24 114.48 217.52 117.45 C 215.07 117.04 212.60 116.80 210.12 116.82 C 210.97 118.25 211.84 119.68 212.72 121.09 C 211.48 120.81 210.24 120.54 209.01 120.20 L 210.14 119.91 C 209.61 119.00 209.08 118.10 208.56 117.20 Z" />
</g>
<g id="#cbcbcbff">
<path fill="#cbcbcb" opacity="1.00" d=" M 126.78 116.86 C 127.03 116.82 127.54 116.75 127.79 116.71 C 128.62 116.97 129.45 117.27 130.26 117.60 C 130.18 118.48 130.01 120.23 129.93 121.10 C 129.00 120.85 128.07 120.62 127.13 120.40 C 126.85 120.56 126.28 120.89 126.00 121.05 C 126.23 119.65 126.48 118.25 126.78 116.86 Z" />
</g>
<g id="#c1c1c1ff">
<path fill="#c1c1c1" opacity="1.00" d=" M 132.06 115.07 C 132.46 115.28 133.24 115.72 133.64 115.94 C 133.68 116.70 133.78 118.23 133.83 118.99 C 135.02 118.80 136.21 118.61 137.40 118.43 L 137.51 118.41 C 138.32 119.28 139.14 120.14 139.97 121.00 C 140.04 121.78 140.18 123.34 140.25 124.11 C 139.55 122.87 138.85 121.63 138.16 120.40 C 137.66 120.72 136.66 121.37 136.16 121.70 C 135.53 121.85 134.26 122.16 133.62 122.32 C 133.10 119.90 132.59 117.48 132.06 115.07 Z" />
</g>
<g id="#626262ff">
<path fill="#626262" opacity="1.00" d=" M 133.64 115.94 C 135.28 116.11 136.42 117.22 137.40 118.43 C 136.21 118.61 135.02 118.80 133.83 118.99 C 133.78 118.23 133.68 116.70 133.64 115.94 Z" />
<path fill="#626262" opacity="1.00" d=" M 200.62 122.41 C 202.70 119.89 205.37 118.00 208.56 117.20 C 209.08 118.10 209.61 119.00 210.14 119.91 L 209.01 120.20 C 207.98 119.79 206.95 119.35 205.93 118.90 C 204.41 120.07 202.90 121.26 201.39 122.45 C 203.02 123.73 204.68 124.97 206.36 126.19 C 204.41 126.32 202.46 126.44 200.52 126.58 C 200.56 125.18 200.61 123.80 200.62 122.41 Z" />
</g>
<g id="#8e8e8eff">
<path fill="#8e8e8e" opacity="1.00" d=" M 123.63 117.33 C 124.42 117.21 125.99 116.98 126.78 116.86 C 126.48 118.25 126.23 119.65 126.00 121.05 C 125.62 121.28 124.86 121.75 124.48 121.98 C 124.19 120.43 123.90 118.88 123.63 117.33 Z" />
<path fill="#8e8e8e" opacity="1.00" d=" M 114.14 236.93 C 121.69 238.82 129.30 240.42 136.83 242.36 C 140.49 243.33 144.13 244.83 147.98 244.56 C 152.72 244.27 157.27 242.79 161.91 241.85 C 168.58 240.42 175.23 238.81 181.98 237.73 C 173.96 240.83 165.36 241.80 157.08 243.95 C 153.62 244.86 150.03 245.15 146.47 245.36 C 143.13 245.42 139.98 244.16 136.78 243.37 C 131.10 242.08 125.45 240.65 119.87 238.99 C 117.89 238.51 115.90 238.00 114.14 236.93 Z" />
</g>
<g id="#fcfcfcff">
<path fill="#fcfcfc" opacity="1.00" d=" M 210.12 116.82 C 212.60 116.80 215.07 117.04 217.52 117.45 C 218.16 117.46 219.46 117.49 220.10 117.51 C 220.28 118.62 220.52 119.75 221.13 120.72 C 222.09 120.29 221.35 118.31 222.63 118.08 C 222.60 118.73 222.54 120.03 222.51 120.67 C 224.15 120.66 225.80 120.52 227.44 120.70 C 229.34 121.95 230.48 124.09 231.54 126.06 C 231.84 127.77 231.69 129.53 231.68 131.27 C 231.95 131.73 232.50 132.66 232.77 133.13 C 232.38 134.40 231.40 135.65 231.93 137.06 C 231.27 136.88 230.61 136.72 229.95 136.57 C 228.11 138.96 225.97 141.59 222.81 142.09 C 219.10 142.59 214.85 143.26 211.73 140.66 C 211.68 141.99 211.62 143.33 211.57 144.66 C 209.31 143.46 207.07 142.24 204.75 141.15 C 204.39 141.50 203.68 142.21 203.32 142.56 L 203.27 142.61 C 202.04 140.05 199.08 139.21 197.20 137.24 C 198.90 134.70 200.11 131.89 200.16 128.79 C 200.25 128.24 200.43 127.13 200.52 126.58 C 202.46 126.44 204.41 126.32 206.36 126.19 C 204.68 124.97 203.02 123.73 201.39 122.45 C 202.90 121.26 204.41 120.07 205.93 118.90 C 206.95 119.35 207.98 119.79 209.01 120.20 C 210.24 120.54 211.48 120.81 212.72 121.09 C 211.84 119.68 210.97 118.25 210.12 116.82 M 208.30 122.06 L 208.30 122.88 L 209.02 123.29 L 209.74 122.88 L 209.74 122.06 L 209.02 121.65 L 208.30 122.06 M 221.43 125.70 C 219.95 126.97 219.41 128.71 219.44 130.62 C 220.71 132.12 222.23 133.38 223.87 134.46 C 224.84 134.11 226.80 133.40 227.77 133.05 C 226.64 131.96 225.11 131.55 223.67 131.03 C 223.65 130.19 223.63 129.34 223.62 128.50 C 224.09 128.50 225.02 128.50 225.49 128.50 C 226.08 129.21 226.70 129.91 227.34 130.59 C 227.58 131.11 228.07 132.16 228.31 132.68 C 228.86 130.05 228.77 127.20 226.34 125.56 C 224.70 125.61 223.06 125.66 221.43 125.70 Z" />
</g>
<g id="#9c9c9cff">
<path fill="#9c9c9c" opacity="1.00" d=" M 107.31 119.66 C 110.08 118.17 109.84 123.76 107.09 122.03 L 106.64 121.26 C 106.81 120.86 107.14 120.06 107.31 119.66 Z" />
<path fill="#9c9c9c" opacity="1.00" d=" M 188.75 128.95 C 188.69 125.71 189.75 122.32 192.07 119.99 C 191.29 122.62 189.98 125.15 189.96 127.94 C 189.86 133.19 189.63 138.51 190.70 143.69 C 188.15 144.52 185.57 145.20 182.95 145.75 C 184.08 147.95 185.09 150.21 186.31 152.36 C 186.84 152.39 187.91 152.45 188.45 152.47 C 187.40 154.17 185.87 153.17 184.52 152.66 C 184.36 150.09 183.14 147.82 182.10 145.53 C 184.47 144.65 186.92 144.03 189.42 143.68 C 188.50 138.82 188.84 133.86 188.75 128.95 Z" />
</g>
<g id="#a0a0a0ff">
<path fill="#a0a0a0" opacity="1.00" d=" M 133.62 122.32 C 134.26 122.16 135.53 121.85 136.16 121.70 C 134.20 124.45 131.02 125.86 127.68 125.82 C 128.69 123.49 131.64 123.46 133.62 122.32 Z" />
</g>
<g id="#d7d7d7ff">
<path fill="#d7d7d7" opacity="1.00" d=" M 208.30 122.06 L 209.02 121.65 L 209.74 122.06 L 209.74 122.88 L 209.02 123.29 L 208.30 122.88 L 208.30 122.06 Z" />
</g>
<g id="#a9a9a9ff">
<path fill="#a9a9a9" opacity="1.00" d=" M 91.11 123.38 C 91.90 124.11 92.68 124.84 93.47 125.57 C 93.47 126.71 93.47 127.84 93.47 128.99 C 91.87 130.20 90.32 131.49 88.87 132.88 C 89.60 131.21 90.44 129.58 91.34 127.99 C 91.26 126.46 91.19 124.92 91.11 123.38 Z" />
</g>
<g id="#323232ff">
<path fill="#323232" opacity="1.00" d=" M 221.43 125.70 C 223.06 125.66 224.70 125.61 226.34 125.56 C 228.77 127.20 228.86 130.05 228.31 132.68 C 228.07 132.16 227.58 131.11 227.34 130.59 C 226.70 129.91 226.08 129.21 225.49 128.50 C 225.02 128.50 224.09 128.50 223.62 128.50 C 223.63 129.34 223.65 130.19 223.67 131.03 C 225.11 131.55 226.64 131.96 227.77 133.05 C 226.80 133.40 224.84 134.11 223.87 134.46 C 222.23 133.38 220.71 132.12 219.44 130.62 C 219.41 128.71 219.95 126.97 221.43 125.70 Z" />
</g>
<g id="#060606ff">
<path fill="#060606" opacity="1.00" d=" M 108.14 126.55 C 110.94 125.43 113.98 125.03 116.75 126.49 C 116.71 128.51 116.68 130.53 116.65 132.55 C 115.23 133.54 114.06 135.71 112.03 135.16 C 109.32 134.76 107.74 132.41 106.25 130.38 L 106.90 129.48 C 107.21 128.75 107.83 127.29 108.14 126.55 M 111.43 128.43 C 111.15 129.46 110.86 130.49 110.57 131.52 C 111.15 131.98 112.30 132.88 112.88 133.33 C 115.14 133.82 116.48 131.91 115.66 129.86 C 115.01 128.11 112.85 128.75 111.43 128.43 Z" />
</g>
<g id="#7b7b7bff">
<path fill="#7b7b7b" opacity="1.00" d=" M 135.76 129.95 C 136.79 127.62 139.34 126.74 141.34 125.49 C 141.46 126.12 141.69 127.40 141.81 128.04 C 140.64 130.10 137.75 129.52 135.76 129.95 Z" />
<path fill="#7b7b7b" opacity="1.00" d=" M 184.72 236.89 C 193.27 234.23 201.59 230.91 209.99 227.79 C 206.40 230.74 201.80 231.81 197.58 233.51 C 193.40 234.97 189.18 236.61 184.72 236.89 Z" />
</g>
<g id="#b1b1b1ff">
<path fill="#b1b1b1" opacity="1.00" d=" M 111.43 128.43 C 112.85 128.75 115.01 128.11 115.66 129.86 C 116.48 131.91 115.14 133.82 112.88 133.33 C 112.30 132.88 111.15 131.98 110.57 131.52 C 110.86 130.49 111.15 129.46 111.43 128.43 Z" />
</g>
<g id="#5a5a5aff">
<path fill="#5a5a5a" opacity="1.00" d=" M 197.20 137.24 C 195.14 134.16 197.17 130.35 200.16 128.79 C 200.11 131.89 198.90 134.70 197.20 137.24 Z" />
<path fill="#5a5a5a" opacity="1.00" d=" M 120.20 143.10 C 120.59 142.82 121.37 142.25 121.76 141.96 C 122.09 142.29 122.76 142.94 123.09 143.27 C 122.96 144.99 119.69 145.03 120.20 143.10 Z" />
</g>
<g id="#8c8c8cff">
<path fill="#8c8c8c" opacity="1.00" d=" M 229.95 136.57 C 230.61 136.72 231.27 136.88 231.93 137.06 C 231.38 138.60 230.64 140.29 228.89 140.73 C 227.00 140.94 227.36 142.64 227.40 143.99 C 226.69 143.83 225.27 143.52 224.56 143.37 C 224.55 143.73 224.52 144.47 224.51 144.83 C 224.18 144.64 223.52 144.24 223.19 144.05 C 222.66 143.74 221.59 143.11 221.06 142.80 C 221.38 143.44 222.02 144.71 222.34 145.35 C 219.45 144.71 216.59 143.92 213.86 142.79 L 212.78 142.36 C 212.80 143.22 212.85 144.94 212.87 145.80 C 210.81 145.17 208.84 144.28 206.96 143.25 C 206.53 143.64 205.68 144.42 205.26 144.80 C 204.77 144.24 203.80 143.12 203.32 142.56 C 203.68 142.21 204.39 141.50 204.75 141.15 C 207.07 142.24 209.31 143.46 211.57 144.66 C 211.62 143.33 211.68 141.99 211.73 140.66 C 214.85 143.26 219.10 142.59 222.81 142.09 C 225.97 141.59 228.11 138.96 229.95 136.57 Z" />
</g>
<g id="#aeaeaeff">
<path fill="#aeaeae" opacity="1.00" d=" M 109.86 140.83 C 111.45 140.63 113.05 140.43 114.66 140.54 C 113.64 141.27 112.62 142.00 111.60 142.74 L 110.94 143.21 C 110.67 142.62 110.13 141.43 109.86 140.83 Z" />
</g>
<g id="#4d4d4dff">
<path fill="#4d4d4d" opacity="1.00" d=" M 111.60 142.74 C 112.62 142.00 113.64 141.27 114.66 140.54 C 115.57 141.24 116.47 141.95 117.38 142.66 C 115.55 143.82 113.47 143.74 111.60 142.74 Z" />
</g>
<g id="#454545ff">
<path fill="#454545" opacity="1.00" d=" M 213.86 142.79 C 216.59 143.92 219.45 144.71 222.34 145.35 C 222.02 144.71 221.38 143.44 221.06 142.80 C 221.59 143.11 222.66 143.74 223.19 144.05 C 223.13 144.70 223.01 146.02 222.95 146.67 C 220.43 145.74 217.78 145.30 215.12 145.07 C 214.81 144.50 214.17 143.36 213.86 142.79 Z" />
</g>
<g id="#6d6d6dff">
<path fill="#6d6d6d" opacity="1.00" d=" M 36.31 147.71 C 39.88 156.97 41.89 166.77 44.37 176.36 C 41.47 172.47 41.48 167.43 39.96 162.99 C 38.76 157.89 37.18 152.88 36.31 147.71 Z" />
</g>
<g id="#ffe19eff">
<path fill="#ffe19e" opacity="1.00" d=" M 294.19 148.41 L 294.47 149.21 C 295.38 157.43 294.85 165.74 295.00 174.00 C 294.87 179.29 295.28 184.63 294.36 189.87 L 294.23 190.60 C 293.58 183.41 294.51 176.20 294.38 169.00 C 294.51 162.14 293.63 155.27 294.19 148.41 Z" />
</g>
<g id="#ed1c24ff">
<path fill="#ed1c24" opacity="1.00" d=" M 294.47 149.21 C 297.45 148.91 300.45 148.89 303.43 149.20 C 303.07 151.32 302.97 153.47 302.82 155.61 C 302.21 158.70 301.92 161.85 302.08 165.01 C 302.36 170.80 301.51 176.68 302.84 182.40 C 302.98 184.87 303.02 187.35 303.41 189.80 C 300.40 190.11 297.37 190.04 294.36 189.87 C 295.28 184.63 294.87 179.29 295.00 174.00 C 294.85 165.74 295.38 157.43 294.47 149.21 Z" />
<path fill="#ed1c24" opacity="1.00" d=" M 312.44 149.19 C 315.54 148.92 318.66 148.96 321.76 149.07 C 322.43 150.61 323.13 152.15 323.94 153.64 C 325.35 156.37 327.04 158.95 328.87 161.43 C 330.32 163.49 331.77 165.55 333.06 167.72 C 334.66 170.61 336.23 173.51 338.00 176.31 C 338.33 176.83 338.98 177.88 339.31 178.41 C 339.47 178.68 339.80 179.22 339.97 179.49 C 340.16 176.33 339.77 173.19 339.08 170.11 C 338.75 163.15 339.46 156.12 338.41 149.21 C 340.98 148.98 343.56 148.97 346.15 148.97 C 344.83 155.56 345.36 162.33 345.03 169.00 C 345.41 175.43 344.90 181.92 345.95 188.30 C 346.02 188.72 346.16 189.57 346.24 190.00 C 343.71 190.01 341.18 190.01 338.66 189.95 C 338.45 188.38 337.50 187.11 336.50 185.96 L 335.98 185.26 C 334.30 182.24 332.35 179.37 330.14 176.71 C 329.41 175.78 328.76 174.79 328.17 173.77 C 327.02 171.68 325.71 169.67 324.31 167.75 C 322.39 165.12 321.05 162.15 319.47 159.33 C 319.37 159.13 319.16 158.72 319.06 158.52 C 318.73 164.68 319.39 170.83 319.28 176.99 C 319.24 180.10 319.51 183.21 319.93 186.29 C 320.06 187.52 320.17 188.76 320.26 190.01 C 317.64 190.03 315.02 190.02 312.42 189.80 C 313.41 183.80 312.83 177.69 313.02 171.64 C 313.08 169.54 313.08 167.45 313.02 165.36 C 312.85 159.97 313.39 154.52 312.44 149.19 Z" />
<path fill="#ed1c24" opacity="1.00" d=" M 355.36 149.15 C 360.57 148.88 365.79 149.02 371.01 148.99 C 376.60 149.43 382.56 151.44 385.94 156.19 C 389.42 162.07 390.26 169.36 388.08 175.85 C 386.89 179.08 384.76 181.84 382.78 184.62 C 378.93 188.43 373.34 190.22 368.00 190.03 C 363.79 189.96 359.57 190.11 355.37 189.85 C 356.35 183.28 355.89 176.61 356.00 169.99 C 355.86 163.05 356.41 156.04 355.36 149.15 M 363.23 154.46 C 362.79 159.31 363.01 164.19 363.08 169.05 C 363.28 174.05 362.84 179.10 363.85 184.03 C 367.47 183.95 371.34 184.54 374.60 182.55 C 377.30 180.93 379.93 178.00 379.82 174.69 C 381.62 175.10 381.77 171.93 380.66 171.07 C 380.78 170.54 381.01 169.47 381.12 168.93 L 380.66 167.91 C 381.74 167.04 381.58 163.88 379.79 164.33 L 379.96 162.77 C 380.75 161.25 378.87 158.71 377.22 159.22 L 376.92 158.38 C 373.31 154.96 368.02 154.59 363.32 155.13 L 363.23 154.46 Z" />
<path fill="#ed1c24" opacity="1.00" d=" M 396.43 149.21 C 404.73 148.80 413.05 149.00 421.35 149.10 C 420.77 150.96 420.67 152.96 421.18 154.85 C 415.71 155.16 410.23 154.93 404.75 155.00 L 403.97 155.00 C 403.91 158.70 404.05 162.41 404.75 166.06 C 409.25 165.99 413.76 165.91 418.27 166.11 C 417.71 167.99 417.71 170.00 418.27 171.89 C 413.75 172.09 409.24 172.01 404.72 171.95 C 404.17 175.99 403.95 180.13 404.93 184.13 C 410.94 183.79 416.97 184.23 422.99 183.83 C 422.84 185.81 422.89 187.79 423.12 189.76 C 414.24 190.18 405.31 190.11 396.43 189.79 C 397.29 184.24 396.87 178.60 397.01 173.00 C 396.83 165.08 397.44 157.09 396.43 149.21 Z" />
<path fill="#ed1c24" opacity="1.00" d=" M 430.42 149.21 C 438.74 148.81 447.09 148.99 455.42 149.10 C 454.84 151.01 454.70 153.01 454.93 154.99 C 449.54 155.01 444.14 154.99 438.75 155.00 L 437.97 155.00 C 437.91 158.70 438.05 162.41 438.75 166.06 C 443.25 165.99 447.76 165.91 452.27 166.11 C 451.71 167.99 451.71 170.00 452.27 171.89 C 447.75 172.09 443.23 172.01 438.72 171.94 C 438.16 175.98 437.95 180.12 438.93 184.12 C 444.94 183.79 450.97 184.23 456.99 183.83 C 456.84 185.81 456.89 187.79 457.12 189.76 C 448.24 190.18 439.32 190.11 430.44 189.79 C 431.28 184.24 430.87 178.59 431.01 173.00 C 430.82 165.07 431.45 157.08 430.42 149.21 Z" />
<path fill="#ed1c24" opacity="1.00" d=" M 464.36 149.15 C 469.57 148.88 474.79 149.02 480.00 148.99 C 485.59 149.43 491.57 151.43 494.94 156.20 C 496.45 159.31 498.03 162.53 498.17 166.05 C 498.36 169.49 497.91 172.93 497.29 176.31 L 496.97 176.92 C 495.30 179.52 493.59 182.10 491.79 184.61 C 487.94 188.43 482.35 190.22 477.00 190.03 C 472.79 189.96 468.57 190.11 464.37 189.85 C 465.35 183.29 464.89 176.62 465.00 170.01 C 464.86 163.06 465.41 156.05 464.36 149.15 M 472.22 154.46 C 471.66 161.63 472.22 168.82 472.15 176.01 C 472.11 178.69 472.36 181.38 472.85 184.03 C 476.46 183.95 480.34 184.54 483.60 182.55 C 486.30 180.93 488.93 178.00 488.83 174.69 C 490.62 175.10 490.77 171.92 489.66 171.07 C 489.78 170.54 490.01 169.47 490.13 168.93 L 489.66 167.91 C 490.73 167.03 490.58 163.88 488.79 164.32 L 488.96 162.76 C 489.75 161.24 487.87 158.70 486.22 159.22 L 485.92 158.38 C 482.31 154.96 477.01 154.58 472.32 155.14 L 472.22 154.46 Z" />
</g>
<g id="#f5cdfcff">
<path fill="#f5cdfc" opacity="1.00" d=" M 303.43 149.20 L 303.99 148.40 C 304.46 152.93 303.61 157.46 303.65 162.00 C 303.67 166.67 303.67 171.33 303.65 176.00 C 303.61 180.87 304.55 185.73 303.96 190.60 L 303.41 189.80 C 303.02 187.35 302.98 184.87 302.84 182.40 C 303.06 173.47 303.09 164.53 302.82 155.61 C 302.97 153.47 303.07 151.32 303.43 149.20 Z" />
</g>
<g id="#ffecaaff">
<path fill="#ffecaa" opacity="1.00" d=" M 312.22 148.39 L 312.44 149.19 C 313.39 154.52 312.85 159.97 313.02 165.36 C 312.16 163.34 312.28 161.13 312.22 159.00 C 312.18 155.46 311.76 151.91 312.22 148.39 Z" />
</g>
<g id="#ffeaa8ff">
<path fill="#ffeaa8" opacity="1.00" d=" M 338.22 148.41 L 338.41 149.21 C 339.46 156.12 338.75 163.15 339.08 170.11 C 337.95 168.27 338.38 166.04 338.30 164.00 C 338.44 158.80 337.54 153.60 338.22 148.41 Z" />
<path fill="#ffeaa8" opacity="1.00" d=" M 312.25 179.00 C 312.35 176.54 312.03 173.97 313.02 171.64 C 312.83 177.69 313.41 183.80 312.42 189.80 L 312.22 190.59 C 311.70 186.74 312.21 182.87 312.25 179.00 Z" />
</g>
<g id="#ee3d87ff">
<path fill="#ee3d87" opacity="1.00" d=" M 346.15 148.97 C 345.82 162.08 346.12 175.19 345.95 188.30 C 344.90 181.92 345.41 175.43 345.03 169.00 C 345.36 162.33 344.83 155.56 346.15 148.97 Z" />
</g>
<g id="#ffca86ff">
<path fill="#ffca86" opacity="1.00" d=" M 355.25 148.44 L 355.36 149.15 C 356.41 156.04 355.86 163.05 356.00 169.99 C 355.89 176.61 356.35 183.28 355.37 189.85 L 355.26 190.56 C 354.63 185.72 355.24 180.86 355.23 176.00 C 355.22 171.34 355.22 166.67 355.23 162.00 C 355.25 157.48 354.66 152.94 355.25 148.44 Z" />
<path fill="#ffca86" opacity="1.00" d=" M 464.25 148.44 L 464.36 149.15 C 465.41 156.05 464.86 163.06 465.00 170.01 C 464.89 176.62 465.35 183.29 464.37 189.85 L 464.25 190.57 C 463.63 185.72 464.24 180.85 464.23 176.00 C 464.22 171.33 464.22 166.67 464.23 162.00 C 464.25 157.48 463.65 152.95 464.25 148.44 Z" />
</g>
<g id="#ffe7a4ff">
<path fill="#ffe7a4" opacity="1.00" d=" M 396.21 148.41 L 396.43 149.21 C 397.44 157.09 396.83 165.08 397.01 173.00 C 396.87 178.60 397.29 184.24 396.43 189.79 L 396.22 190.59 C 395.57 183.40 396.60 176.20 396.34 169.00 C 396.60 162.13 395.61 155.26 396.21 148.41 Z" />
<path fill="#ffe7a4" opacity="1.00" d=" M 430.22 148.41 L 430.42 149.21 C 431.45 157.08 430.82 165.07 431.01 173.00 C 430.87 178.59 431.28 184.24 430.44 189.79 L 430.21 190.59 C 429.60 183.06 430.61 175.53 430.34 168.00 C 430.58 161.46 429.56 154.93 430.22 148.41 Z" />
</g>
<g id="#ed3389ff">
<path fill="#ed3389" opacity="1.00" d=" M 421.35 149.10 C 422.66 150.06 422.69 154.04 421.18 154.85 C 420.67 152.96 420.77 150.96 421.35 149.10 Z" />
</g>
<g id="#f04b95ff">
<path fill="#f04b95" opacity="1.00" d=" M 455.42 149.10 C 456.81 150.42 456.36 153.72 455.59 155.50 C 455.43 155.37 455.10 155.12 454.93 154.99 C 454.70 153.01 454.84 151.01 455.42 149.10 Z" />
</g>
<g id="#6f6f6fff">
<path fill="#6f6f6f" opacity="1.00" d=" M 197.10 151.64 C 197.86 151.20 198.61 150.77 199.37 150.33 C 200.25 151.23 201.13 152.12 202.02 153.02 C 200.96 152.56 199.92 152.09 198.87 151.62 C 198.74 152.17 198.49 153.26 198.36 153.81 C 195.35 152.00 191.83 151.44 188.45 152.47 C 187.91 152.45 186.84 152.39 186.31 152.36 C 189.76 150.97 193.49 151.36 197.10 151.64 Z" />
</g>
<g id="#7a7a7aff">
<path fill="#7a7a7a" opacity="1.00" d=" M 214.21 153.47 C 215.69 152.42 217.27 151.54 218.81 150.58 C 220.17 151.07 221.57 151.49 223.04 151.42 C 222.34 153.12 220.37 152.02 219.03 152.13 C 218.91 154.98 215.44 153.36 213.64 153.87 L 214.21 153.47 Z" />
</g>
<g id="#f396c7ff">
<path fill="#f396c7" opacity="1.00" d=" M 323.94 153.64 C 326.34 155.64 328.07 158.41 328.87 161.43 C 327.04 158.95 325.35 156.37 323.94 153.64 Z" />
</g>
<g id="#ee5cabff">
<path fill="#ee5cab" opacity="1.00" d=" M 363.23 154.46 L 363.32 155.13 C 364.19 164.72 364.10 174.41 363.85 184.03 C 362.84 179.10 363.28 174.05 363.08 169.05 C 363.01 164.19 362.79 159.31 363.23 154.46 Z" />
<path fill="#ee5cab" opacity="1.00" d=" M 472.22 154.46 L 472.32 155.14 C 473.18 164.73 473.10 174.41 472.85 184.03 C 472.36 181.38 472.11 178.69 472.15 176.01 C 472.22 168.82 471.66 161.63 472.22 154.46 Z" />
</g>
<g id="#ed4597ff">
<path fill="#ed4597" opacity="1.00" d=" M 403.97 155.00 L 404.75 155.00 C 404.93 158.68 405.17 162.38 404.75 166.06 C 404.05 162.41 403.91 158.70 403.97 155.00 Z" />
<path fill="#ed4597" opacity="1.00" d=" M 437.97 155.00 L 438.75 155.00 C 438.93 158.68 439.18 162.38 438.75 166.06 C 438.05 162.41 437.91 158.70 437.97 155.00 Z" />
</g>
<g id="#ed1c50ff">
<path fill="#ed1c50" opacity="1.00" d=" M 302.08 165.01 C 301.92 161.85 302.21 158.70 302.82 155.61 C 303.09 164.53 303.06 173.47 302.84 182.40 C 301.51 176.68 302.36 170.80 302.08 165.01 Z" />
</g>
<g id="#f17db6ff">
<path fill="#f17db6" opacity="1.00" d=" M 385.94 156.19 C 391.33 162.10 390.75 171.14 387.89 178.09 C 386.92 180.77 385.02 182.93 382.78 184.62 C 384.76 181.84 386.89 179.08 388.08 175.85 C 390.26 169.36 389.42 162.07 385.94 156.19 Z" />
</g>
<g id="#f074b3ff">
<path fill="#f074b3" opacity="1.00" d=" M 494.94 156.20 C 499.76 161.59 500.04 169.88 497.29 176.31 C 497.91 172.93 498.36 169.49 498.17 166.05 C 498.03 162.53 496.45 159.31 494.94 156.20 Z" />
</g>
<g id="#8b8b8bff">
<path fill="#8b8b8b" opacity="1.00" d=" M 252.81 164.51 C 253.57 162.11 254.88 159.97 256.22 157.87 C 254.68 162.23 252.95 166.54 251.75 171.02 C 250.48 175.61 248.95 180.22 246.00 184.03 C 248.75 177.70 250.62 171.04 252.81 164.51 Z" />
</g>
<g id="#ee3c86ff">
<path fill="#ee3c86" opacity="1.00" d=" M 319.06 158.52 C 319.16 158.72 319.37 159.13 319.47 159.33 C 320.00 168.30 320.28 177.31 319.93 186.29 C 319.51 183.21 319.24 180.10 319.28 176.99 C 319.39 170.83 318.73 164.68 319.06 158.52 Z" />
</g>
<g id="#fbb184ff">
<path fill="#fbb184" opacity="1.00" d=" M 377.22 159.22 C 378.87 158.71 380.75 161.25 379.96 162.77 C 378.17 162.53 377.60 160.71 377.22 159.22 Z" />
<path fill="#fbb184" opacity="1.00" d=" M 486.22 159.22 C 487.87 158.70 489.75 161.24 488.96 162.76 C 487.16 162.53 486.59 160.71 486.22 159.22 Z" />
</g>
<g id="#fedd9dff">
<path fill="#fedd9d" opacity="1.00" d=" M 379.79 164.33 C 381.58 163.88 381.74 167.04 380.66 167.91 C 380.08 166.81 379.43 165.60 379.79 164.33 Z" />
<path fill="#fedd9d" opacity="1.00" d=" M 488.79 164.32 C 490.58 163.88 490.73 167.03 489.66 167.91 C 489.08 166.81 488.43 165.60 488.79 164.32 Z" />
<path fill="#fedd9d" opacity="1.00" d=" M 379.82 174.69 C 379.59 173.41 380.01 172.16 380.66 171.07 C 381.77 171.93 381.62 175.10 379.82 174.69 Z" />
<path fill="#fedd9d" opacity="1.00" d=" M 488.83 174.69 C 488.59 173.41 489.01 172.16 489.66 171.07 C 490.77 171.92 490.62 175.10 488.83 174.69 Z" />
</g>
<g id="#ed1c76ff">
<path fill="#ed1c76" opacity="1.00" d=" M 418.27 166.11 C 419.66 166.98 419.66 171.02 418.27 171.89 C 417.71 170.00 417.71 167.99 418.27 166.11 Z" />
<path fill="#ed1c76" opacity="1.00" d=" M 452.27 166.11 C 453.65 166.98 453.66 171.02 452.27 171.89 C 451.71 170.00 451.71 167.99 452.27 166.11 Z" />
</g>
<g id="#faa275ff">
<path fill="#faa275" opacity="1.00" d=" M 324.31 167.75 C 325.71 169.67 327.02 171.68 328.17 173.77 C 326.23 172.22 325.00 170.10 324.31 167.75 Z" />
</g>
<g id="#f392c2ff">
<path fill="#f392c2" opacity="1.00" d=" M 333.06 167.72 C 335.56 169.96 337.41 172.98 338.00 176.31 C 336.23 173.51 334.66 170.61 333.06 167.72 Z" />
</g>
<g id="#010101ff">
<path fill="#010101" opacity="1.00" d=" M 89.21 169.03 C 89.67 168.71 90.59 168.08 91.04 167.76 C 92.26 170.55 93.02 173.63 94.91 176.06 C 98.28 178.51 101.82 180.69 105.61 182.41 C 104.77 183.34 103.93 184.28 103.12 185.24 C 101.52 184.56 99.99 183.73 98.62 182.67 C 96.33 181.22 94.18 179.57 91.99 177.99 C 90.27 175.39 88.21 172.30 89.21 169.03 Z" />
<path fill="#010101" opacity="1.00" d=" M 223.61 178.54 C 226.47 176.37 227.35 172.53 230.00 170.22 C 230.55 170.34 231.67 170.60 232.22 170.73 C 231.43 172.70 231.10 174.96 229.60 176.56 C 228.16 178.17 227.34 180.38 225.27 181.33 C 221.41 184.16 216.35 184.63 211.73 183.97 C 210.21 184.22 208.29 184.97 207.11 183.54 L 206.00 183.46 C 205.83 183.15 205.48 182.51 205.30 182.19 C 206.28 181.89 207.25 181.58 208.23 181.26 C 209.17 180.90 210.08 180.49 210.98 180.03 C 215.17 181.76 219.85 180.90 223.61 178.54 Z" />
</g>
<g id="#f97940ff">
<path fill="#f97940" opacity="1.00" d=" M 339.08 170.11 C 339.77 173.19 340.16 176.33 339.97 179.49 C 339.80 179.22 339.47 178.68 339.31 178.41 C 338.91 175.66 338.94 172.87 339.08 170.11 Z" />
</g>
<g id="#ef438aff">
<path fill="#ef438a" opacity="1.00" d=" M 404.93 184.13 C 403.95 180.13 404.17 175.99 404.72 171.95 C 405.09 175.99 405.23 180.07 404.93 184.13 Z" />
<path fill="#ef438a" opacity="1.00" d=" M 438.93 184.12 C 437.95 180.12 438.16 175.98 438.72 171.94 C 439.09 175.99 439.22 180.07 438.93 184.12 Z" />
</g>
<g id="#040404ff">
<path fill="#040404" opacity="1.00" d=" M 118.20 177.87 C 120.37 178.64 122.57 179.49 124.92 179.52 C 123.31 179.80 121.73 180.20 120.15 180.59 C 124.66 182.19 129.36 180.40 133.96 181.02 C 136.08 181.31 138.27 181.15 140.35 181.74 C 148.00 184.48 156.09 180.32 163.86 182.10 C 170.26 183.49 176.79 182.00 183.25 182.52 C 184.82 182.80 186.39 183.51 188.00 182.98 C 191.34 182.37 194.76 182.19 198.02 181.14 C 198.80 181.87 199.58 182.60 200.37 183.34 C 196.19 183.19 192.21 184.80 188.02 184.74 C 181.33 185.21 174.76 187.08 168.01 186.54 C 161.51 186.78 155.15 184.78 148.65 185.44 C 147.75 185.46 146.94 185.14 146.24 184.51 C 144.29 184.49 142.34 184.59 140.40 184.36 C 128.61 182.14 116.61 184.75 104.75 184.08 C 106.93 181.59 110.08 181.33 113.17 181.21 C 113.42 181.02 113.91 180.63 114.16 180.44 C 115.36 179.37 116.79 178.62 118.20 177.87 Z" />
</g>
<g id="#fcc69fff">
<path fill="#fcc69f" opacity="1.00" d=" M 330.14 176.71 C 332.35 179.37 334.30 182.24 335.98 185.26 C 333.45 182.91 331.11 180.09 330.14 176.71 Z" />
</g>
<g id="#f27fb1ff">
<path fill="#f27fb1" opacity="1.00" d=" M 491.79 184.61 C 493.59 182.10 495.30 179.52 496.97 176.92 C 496.43 180.15 494.40 182.75 491.79 184.61 Z" />
</g>
<g id="#717171ff">
<path fill="#717171" opacity="1.00" d=" M 105.61 182.41 C 107.81 180.15 111.35 181.01 114.16 180.44 C 113.91 180.63 113.42 181.02 113.17 181.21 C 110.08 181.33 106.93 181.59 104.75 184.08 C 116.61 184.75 128.61 182.14 140.40 184.36 C 136.62 184.87 132.80 184.58 129.00 184.60 C 123.00 184.54 116.99 184.93 110.99 184.63 C 107.61 184.32 104.46 186.74 101.07 185.53 C 98.66 184.76 95.34 185.39 94.10 182.64 C 95.61 182.74 97.11 182.75 98.62 182.67 C 99.99 183.73 101.52 184.56 103.12 185.24 C 103.93 184.28 104.77 183.34 105.61 182.41 Z" />
</g>
<g id="#616161ff">
<path fill="#616161" opacity="1.00" d=" M 140.35 181.74 C 146.93 182.01 153.43 180.67 160.01 180.95 C 163.40 180.81 166.63 182.08 170.01 182.09 C 173.39 182.23 176.69 181.37 180.04 181.05 C 181.35 180.84 182.66 181.26 183.25 182.52 C 176.79 182.00 170.26 183.49 163.86 182.10 C 156.09 180.32 148.00 184.48 140.35 181.74 Z" />
</g>
<g id="#545454ff">
<path fill="#545454" opacity="1.00" d=" M 198.02 181.14 C 201.41 180.81 204.83 180.98 208.23 181.26 C 207.25 181.58 206.28 181.89 205.30 182.19 C 205.48 182.51 205.83 183.15 206.00 183.46 C 204.12 183.42 202.25 183.39 200.37 183.34 C 199.58 182.60 198.80 181.87 198.02 181.14 Z" />
</g>
<g id="#f29de3ff">
<path fill="#f29de3" opacity="1.00" d=" M 422.99 183.83 C 423.17 183.69 423.53 183.39 423.72 183.24 C 424.61 185.10 424.60 188.34 423.12 189.76 C 422.89 187.79 422.84 185.81 422.99 183.83 Z" />
<path fill="#f29de3" opacity="1.00" d=" M 456.99 183.83 C 457.17 183.69 457.53 183.39 457.71 183.24 C 458.61 185.10 458.60 188.34 457.12 189.76 C 456.89 187.79 456.84 185.81 456.99 183.83 Z" />
</g>
<g id="#fed7a9ff">
<path fill="#fed7a9" opacity="1.00" d=" M 336.50 185.96 C 337.50 187.11 338.45 188.38 338.66 189.95 C 336.65 190.68 335.16 187.38 336.50 185.96 Z" />
</g>
<g id="#696969ff">
<path fill="#696969" opacity="1.00" d=" M 88.28 227.57 C 94.54 229.98 100.64 232.79 107.08 234.72 C 107.51 234.51 108.36 234.08 108.79 233.87 C 110.65 234.36 112.54 234.76 114.44 235.07 C 114.76 235.13 115.38 235.26 115.69 235.32 L 114.14 236.93 C 112.91 237.30 111.64 236.71 110.44 236.48 C 102.73 234.47 94.88 232.18 88.28 227.57 Z" />
</g>
<g id="#787878ff">
<path fill="#787878" opacity="1.00" d=" M 172.99 235.53 C 181.30 234.30 188.89 230.42 197.10 228.78 C 194.81 229.96 192.48 231.08 190.00 231.83 C 184.39 233.49 178.88 235.64 173.01 236.28 C 168.66 237.17 164.15 236.70 159.81 237.66 C 155.26 238.56 150.57 238.70 145.95 238.37 C 141.90 238.05 137.80 238.52 133.78 237.79 C 138.55 238.33 143.33 237.24 148.10 237.81 C 151.12 238.17 154.17 238.06 157.16 237.52 C 162.39 236.50 167.78 236.69 172.99 235.53 Z" />
</g>
<g id="#050405ff">
<path fill="#050405" opacity="1.00" d=" M 140.01 260.52 C 143.68 260.34 147.47 261.01 150.99 259.63 C 158.68 259.27 166.35 261.62 174.02 260.03 C 178.65 259.50 183.36 259.72 188.01 259.86 C 191.27 260.74 194.64 260.39 197.97 260.57 C 205.42 262.17 212.40 265.39 219.84 267.06 C 219.91 267.61 220.05 268.71 220.11 269.26 C 220.56 268.93 221.44 268.25 221.89 267.92 C 225.66 271.21 230.31 273.12 234.48 275.78 C 234.54 278.68 234.31 281.60 234.68 284.48 C 235.59 287.14 238.63 288.40 239.61 291.07 C 240.25 293.25 242.44 294.59 242.72 296.92 C 243.35 299.39 245.35 301.39 245.46 304.03 C 245.59 310.36 245.45 316.70 245.50 323.03 C 245.41 325.16 246.39 327.09 246.95 329.10 C 249.24 335.74 248.31 343.44 252.69 349.31 C 254.66 350.76 256.92 351.76 258.97 353.09 C 258.96 354.57 258.89 356.05 258.77 357.53 L 258.30 357.21 C 257.56 356.43 256.83 355.64 256.11 354.85 C 255.10 353.49 253.87 352.11 252.07 352.01 C 249.80 348.59 248.07 344.83 245.51 341.61 C 244.15 339.37 243.77 336.70 243.04 334.21 C 242.48 330.07 241.78 325.94 241.12 321.82 C 241.03 319.11 240.76 316.41 240.20 313.76 C 239.51 310.53 239.99 306.96 238.05 304.11 C 237.21 301.31 236.29 298.54 235.17 295.84 L 234.95 295.19 C 234.46 292.30 233.30 289.56 231.08 287.58 C 230.42 286.71 229.76 285.84 229.10 284.98 L 231.11 284.99 C 230.11 281.34 228.20 278.10 225.60 275.36 C 225.34 275.50 224.83 275.78 224.57 275.92 C 223.85 275.49 223.13 275.06 222.41 274.64 C 219.49 271.38 215.41 269.20 211.02 268.86 C 210.49 268.61 209.43 268.12 208.90 267.87 C 208.42 267.66 207.47 267.24 206.99 267.03 C 201.32 265.83 195.50 264.79 189.67 264.94 C 186.43 264.83 183.24 264.21 180.02 263.86 C 178.34 263.94 177.22 265.35 176.69 266.81 C 176.41 267.46 175.84 268.76 175.55 269.41 C 175.09 268.57 174.62 267.75 174.14 266.93 C 172.31 264.40 168.93 263.27 165.99 262.59 C 160.02 262.52 153.92 261.96 148.05 263.39 C 143.25 264.27 138.87 266.51 134.24 267.95 C 128.67 270.13 122.42 271.78 118.34 276.44 C 115.20 281.53 117.55 287.69 115.54 293.08 C 114.03 297.73 113.23 302.64 111.04 307.04 C 109.10 310.98 108.29 315.42 105.88 319.13 C 102.36 323.57 103.67 329.92 100.23 334.44 C 97.63 337.44 95.08 340.50 92.40 343.44 C 90.60 343.48 88.80 343.43 87.02 343.72 C 84.94 343.92 83.48 345.98 83.47 347.99 C 83.96 350.73 85.20 353.26 85.84 355.97 C 86.92 360.04 85.82 364.42 87.36 368.41 C 88.65 372.08 89.57 376.37 93.17 378.53 C 93.42 381.47 94.74 385.05 98.08 385.52 C 102.30 385.82 106.84 385.99 110.64 383.78 C 112.90 382.34 115.92 382.83 117.91 380.89 C 119.57 379.55 121.53 378.51 122.78 376.73 C 126.20 371.81 129.57 366.86 132.72 361.77 C 134.10 359.24 136.67 357.85 138.82 356.08 C 141.36 354.17 143.68 351.99 145.78 349.60 L 145.80 349.58 C 148.38 348.29 150.86 346.80 153.23 345.16 C 160.94 340.34 170.77 340.38 178.42 335.41 C 180.40 333.26 179.84 329.27 177.42 327.60 C 173.62 325.28 168.88 323.32 164.49 325.23 C 160.42 326.91 156.15 327.98 152.02 329.48 C 152.69 328.01 153.38 326.53 153.88 324.99 C 155.64 324.80 157.36 323.60 157.84 321.84 C 161.29 321.41 164.53 319.95 167.99 319.60 C 173.06 319.49 178.59 318.37 182.29 314.65 C 182.68 314.39 183.45 313.85 183.83 313.58 L 184.26 314.86 C 184.81 315.61 185.37 316.35 185.95 317.08 C 187.14 317.01 188.33 316.95 189.53 316.90 C 192.70 317.78 195.91 318.54 199.16 319.05 C 203.90 320.12 208.35 322.82 210.86 327.06 C 211.87 329.19 212.31 331.54 212.91 333.81 C 208.71 331.79 204.36 330.10 200.11 328.18 C 195.31 326.29 190.35 323.51 185.01 324.70 C 183.02 324.85 182.02 326.74 181.35 328.37 C 180.80 329.80 179.90 331.24 180.02 332.83 C 180.46 334.04 181.16 335.15 181.86 336.24 C 183.41 338.80 186.32 339.97 188.93 341.12 C 194.53 343.35 200.14 345.61 205.26 348.83 C 210.01 352.03 213.42 356.76 218.08 360.06 C 218.71 362.55 219.56 365.01 220.95 367.20 L 221.26 367.75 C 222.28 369.82 223.07 371.99 224.03 374.09 C 224.61 375.41 225.83 376.28 226.77 377.33 C 227.69 378.36 228.75 379.28 229.87 380.12 C 231.16 382.98 233.42 386.33 237.03 385.86 C 240.25 386.03 242.53 383.64 244.25 381.23 C 246.54 379.04 248.58 376.60 250.29 373.92 C 253.73 371.78 256.37 368.54 258.16 364.93 C 258.16 364.14 258.16 362.54 258.16 361.74 L 258.29 362.03 C 259.66 366.79 258.72 371.89 258.99 376.80 C 257.61 378.23 256.10 379.57 254.14 380.14 C 251.33 381.86 248.82 384.07 246.27 386.16 C 242.54 386.74 238.82 387.77 235.00 387.51 C 231.53 387.33 227.98 387.93 224.60 386.94 C 224.22 381.95 220.27 378.29 218.14 373.98 C 217.83 371.34 218.04 368.69 218.01 366.05 C 216.36 365.99 214.71 365.93 213.06 365.84 C 211.03 361.07 206.14 358.58 202.02 355.91 C 201.99 354.00 202.00 352.09 202.00 350.20 C 201.43 349.88 200.29 349.24 199.72 348.92 C 198.00 350.77 195.20 349.91 192.99 349.88 C 187.10 347.52 181.66 343.06 175.00 343.48 C 172.04 343.64 168.92 343.08 166.06 343.99 C 164.37 345.38 162.55 346.54 160.56 347.43 C 159.03 348.74 157.40 349.88 155.57 350.72 C 152.15 352.43 150.55 356.28 147.30 358.20 C 143.60 359.53 140.13 361.55 137.33 364.32 C 132.04 369.63 126.71 374.90 121.44 380.23 C 119.24 382.17 119.07 385.78 116.16 386.99 C 114.65 387.61 113.93 389.08 113.29 390.49 C 108.80 390.17 104.04 391.34 99.76 389.63 C 96.41 387.55 93.29 385.10 90.62 382.19 C 88.83 380.22 86.47 378.57 85.61 375.93 C 85.32 373.47 85.75 370.96 85.31 368.51 C 84.47 366.11 82.61 364.26 81.59 361.94 C 81.22 358.67 82.21 355.11 80.22 352.20 C 81.70 349.10 81.80 345.59 82.60 342.30 C 85.78 339.23 88.50 335.60 92.35 333.32 C 94.76 331.06 97.77 329.11 98.90 325.85 C 100.00 322.09 105.72 320.65 104.28 316.05 C 104.71 316.36 105.57 316.99 106.00 317.30 C 106.00 314.68 105.97 312.07 106.04 309.46 C 108.05 307.23 106.78 303.65 106.53 300.94 C 107.67 298.05 107.42 294.89 108.34 291.95 C 108.64 285.75 111.33 280.03 113.76 274.42 C 114.88 273.02 116.84 272.43 117.78 270.81 C 118.90 268.87 121.02 267.81 123.24 267.89 C 122.88 267.44 122.16 266.54 121.80 266.09 C 123.53 265.26 125.11 263.96 127.03 263.63 C 131.59 263.74 135.53 260.94 140.01 260.52 Z" />
</g>
<g id="#b5ab81ff">
<path fill="#b5ab81" opacity="1.00" d=" M 189.67 264.94 C 195.50 264.79 201.32 265.83 206.99 267.03 C 201.18 266.66 195.41 265.90 189.67 264.94 Z" />
</g>
<g id="#867a51ff">
<path fill="#867a51" opacity="1.00" d=" M 174.14 266.93 C 174.62 267.75 175.09 268.57 175.55 269.41 C 175.84 268.76 176.41 267.46 176.69 266.81 C 176.49 268.47 176.38 270.15 176.28 271.83 C 177.26 272.84 178.24 273.88 179.24 274.88 C 178.70 274.61 177.61 274.08 177.07 273.82 C 176.56 272.87 176.06 271.92 175.56 270.97 C 175.20 271.24 174.49 271.79 174.13 272.06 C 174.15 270.35 174.19 268.64 174.14 266.93 Z" />
</g>
<g id="#5f550cff">
<path fill="#5f550c" opacity="1.00" d=" M 208.90 267.87 C 209.43 268.12 210.49 268.61 211.02 268.86 C 210.55 268.83 209.61 268.77 209.14 268.74 L 208.90 267.87 Z" />
</g>
<g id="#0b0606ff">
<path fill="#0b0606" opacity="1.00" d=" M 174.13 272.06 C 174.49 271.79 175.20 271.24 175.56 270.97 C 176.06 271.92 176.56 272.87 177.07 273.82 C 177.61 274.08 178.70 274.61 179.24 274.88 C 183.33 277.38 188.45 277.01 192.87 275.70 C 193.14 276.02 193.68 276.68 193.95 277.01 C 192.76 277.09 191.57 277.19 190.39 277.31 C 188.26 277.33 186.20 278.00 184.77 279.63 C 184.31 280.91 183.88 282.20 183.47 283.49 C 182.24 282.56 181.04 281.60 179.85 280.62 C 179.30 280.01 178.75 279.40 178.19 278.80 C 174.51 278.17 170.75 278.56 167.05 278.16 C 161.90 277.96 156.66 277.55 151.59 278.65 C 151.26 278.72 150.60 278.84 150.27 278.91 C 146.20 279.05 142.69 281.33 138.73 281.91 C 139.78 278.34 143.96 278.09 147.02 277.62 C 151.13 277.58 154.91 275.57 159.02 275.63 C 164.15 275.49 170.12 275.89 174.13 272.06 Z" />
</g>
<g id="#715c38ff">
<path fill="#715c38" opacity="1.00" d=" M 203.04 276.06 C 205.78 275.47 208.29 277.02 211.01 276.76 C 214.12 276.63 216.66 278.74 219.59 279.41 C 222.48 280.08 225.72 281.03 227.56 283.47 C 224.94 282.72 222.33 281.91 219.78 280.94 C 214.73 278.26 208.88 279.02 203.46 277.77 C 203.35 277.34 203.14 276.49 203.04 276.06 Z" />
</g>
<g id="#e3d79aff">
<path fill="#e3d79a" opacity="1.00" d=" M 190.39 277.31 C 191.57 277.19 192.76 277.09 193.95 277.01 C 196.56 276.80 199.22 276.87 201.73 277.74 C 197.94 278.28 194.14 277.88 190.39 277.31 Z" />
</g>
<g id="#aca480ff">
<path fill="#aca480" opacity="1.00" d=" M 151.59 278.65 C 156.66 277.55 161.90 277.96 167.05 278.16 C 170.75 278.56 174.51 278.17 178.19 278.80 C 169.32 279.13 160.46 278.27 151.59 278.65 Z" />
</g>
<g id="#b7b085ff">
<path fill="#b7b085" opacity="1.00" d=" M 138.73 281.91 C 142.69 281.33 146.20 279.05 150.27 278.91 C 146.13 280.15 142.17 281.85 138.17 283.46 C 138.17 283.11 138.17 282.40 138.17 282.05 L 138.73 281.91 Z" />
</g>
<g id="#a99a62ff">
<path fill="#a99a62" opacity="1.00" d=" M 183.47 283.49 C 183.88 282.20 184.31 280.91 184.77 279.63 C 184.68 281.63 184.61 283.63 184.51 285.64 L 184.09 285.10 C 182.73 283.56 181.15 282.22 179.85 280.62 C 181.04 281.60 182.24 282.56 183.47 283.49 Z" />
</g>
<g id="#b6a449ff">
<path fill="#b6a449" opacity="1.00" d=" M 219.78 280.94 C 222.33 281.91 224.94 282.72 227.56 283.47 C 227.79 283.72 228.23 284.24 228.46 284.50 L 228.85 285.02 C 225.51 284.50 222.67 282.55 219.78 280.94 Z" />
</g>
<g id="#6c5337ff">
<path fill="#6c5337" opacity="1.00" d=" M 136.98 282.11 C 137.27 282.10 137.87 282.07 138.17 282.05 C 138.17 282.40 138.17 283.11 138.17 283.46 C 136.34 285.51 134.04 287.20 132.71 289.67 C 131.65 291.55 130.65 293.50 129.32 295.22 C 129.67 291.99 130.17 288.64 131.86 285.82 C 133.28 284.23 135.19 283.21 136.98 282.11 Z" />
</g>
<g id="#1a1301ff">
<path fill="#1a1301" opacity="1.00" d=" M 228.46 284.50 L 228.96 284.15 L 229.32 284.66 L 228.85 285.02 L 228.46 284.50 Z" />
</g>
<g id="#040405ff">
<path fill="#040405" opacity="1.00" d=" M 184.09 285.10 L 184.51 285.64 C 185.04 286.37 185.61 287.09 186.21 287.78 C 195.13 292.27 206.31 290.19 214.49 296.45 C 216.69 298.05 219.48 299.38 220.51 302.09 C 222.18 306.62 222.87 311.45 224.31 316.06 C 224.00 316.39 223.38 317.05 223.06 317.38 C 220.74 315.27 218.72 312.68 215.74 311.49 C 212.12 309.91 209.20 306.39 204.97 306.54 C 201.33 306.54 197.70 306.04 194.05 306.18 L 194.71 306.07 C 193.15 305.61 191.59 305.15 190.03 304.71 C 189.52 305.01 188.49 305.63 187.98 305.93 C 186.16 306.85 184.32 307.72 182.47 308.57 C 181.34 306.98 180.20 304.86 177.99 304.72 C 174.15 304.24 170.25 304.38 166.42 304.86 C 160.49 305.11 154.68 306.42 148.98 307.99 C 145.94 311.13 141.68 312.68 138.79 315.97 C 137.62 317.13 136.23 318.30 136.02 320.05 C 134.85 320.35 133.69 320.71 132.53 321.06 C 133.65 317.61 134.21 313.99 135.49 310.59 C 136.54 307.55 139.42 305.80 141.27 303.30 C 142.66 301.37 144.28 299.63 145.85 297.84 C 146.98 296.60 147.48 294.85 148.85 293.84 C 150.71 292.82 152.83 292.47 154.86 291.93 C 159.56 291.02 164.36 290.91 169.13 290.64 C 173.43 290.63 177.76 291.04 182.03 290.36 C 184.23 289.63 184.95 287.10 184.09 285.10 Z" />
</g>
<g id="#504227ff">
<path fill="#504227" opacity="1.00" d=" M 231.08 287.58 C 233.30 289.56 234.46 292.30 234.95 295.19 C 233.53 292.72 232.21 290.20 231.08 287.58 Z" />
</g>
<g id="#93896eff">
<path fill="#93896e" opacity="1.00" d=" M 154.86 291.93 C 163.64 288.90 172.98 290.62 182.03 290.36 C 177.76 291.04 173.43 290.63 169.13 290.64 C 164.36 290.91 159.56 291.02 154.86 291.93 Z" />
</g>
<g id="#b3a665ff">
<path fill="#b3a665" opacity="1.00" d=" M 235.17 295.84 C 236.29 298.54 237.21 301.31 238.05 304.11 C 236.22 301.71 235.44 298.80 235.17 295.84 Z" />
</g>
<g id="#afa67dff">
<path fill="#afa67d" opacity="1.00" d=" M 148.98 307.99 C 154.68 306.42 160.49 305.11 166.42 304.86 C 160.68 306.26 154.85 307.35 148.98 307.99 Z" />
</g>
<g id="#756440ff">
<path fill="#756440" opacity="1.00" d=" M 182.47 308.57 C 184.32 307.72 186.16 306.85 187.98 305.93 C 186.62 306.93 185.32 308.02 184.04 309.12 C 183.98 310.61 183.92 312.09 183.83 313.58 C 183.45 313.85 182.68 314.39 182.29 314.65 C 182.31 312.62 182.36 310.60 182.47 308.57 Z" />
</g>
<g id="#d5c993ff">
<path fill="#d5c993" opacity="1.00" d=" M 240.20 313.76 C 240.76 316.41 241.03 319.11 241.12 321.82 C 241.04 323.30 240.96 324.78 240.90 326.27 C 239.88 322.17 240.23 317.93 240.20 313.76 Z" />
</g>
<g id="#c0b46eff">
<path fill="#c0b46e" opacity="1.00" d=" M 136.02 320.05 C 136.23 318.30 137.62 317.13 138.79 315.97 C 140.26 318.14 138.32 320.21 136.02 320.05 Z" />
</g>
<g id="#9f9865ff">
<path fill="#9f9865" opacity="1.00" d=" M 189.53 316.90 C 192.93 316.27 196.00 318.15 199.16 319.05 C 195.91 318.54 192.70 317.78 189.53 316.90 Z" />
</g>
<g id="#bda86dff">
<path fill="#bda86d" opacity="1.00" d=" M 224.31 316.06 C 225.07 316.99 225.91 318.52 224.82 319.56 C 223.55 320.34 222.65 318.38 223.06 317.38 C 223.38 317.05 224.00 316.39 224.31 316.06 Z" />
</g>
<g id="#b6aa69ff">
<path fill="#b6aa69" opacity="1.00" d=" M 153.88 324.99 C 153.67 322.65 155.76 321.53 157.84 321.84 C 157.36 323.60 155.64 324.80 153.88 324.99 Z" />
</g>
<g id="#958945ff">
<path fill="#958945" opacity="1.00" d=" M 241.12 321.82 C 241.78 325.94 242.48 330.07 243.04 334.21 C 242.32 331.56 241.46 328.95 240.90 326.27 C 240.96 324.78 241.04 323.30 241.12 321.82 Z" />
</g>
<g id="#fff4baff">
<path fill="#fff4ba" opacity="1.00" d=" M 112.19 325.22 C 113.71 325.37 112.91 327.71 111.74 327.80 C 110.15 327.71 110.96 325.25 112.19 325.22 Z" />
</g>
<g id="#e1ce7cff">
<path fill="#e1ce7c" opacity="1.00" d=" M 180.02 332.83 C 179.90 331.24 180.80 329.80 181.35 328.37 C 181.48 330.99 181.63 333.62 181.86 336.24 C 181.16 335.15 180.46 334.04 180.02 332.83 Z" />
</g>
<g id="#f4e774ff">
<path fill="#f4e774" opacity="1.00" d=" M 147.30 337.10 C 150.83 336.05 147.20 341.06 146.28 338.26 C 146.54 337.97 147.05 337.39 147.30 337.10 Z" />
</g>
<g id="#7b7149ff">
<path fill="#7b7149" opacity="1.00" d=" M 188.93 341.12 C 194.81 342.47 200.76 344.69 205.26 348.83 C 200.14 345.61 194.53 343.35 188.93 341.12 Z" />
</g>
<g id="#fcf49dff">
<path fill="#fcf49d" opacity="1.00" d=" M 211.25 342.32 L 211.72 342.32 L 211.72 342.79 L 211.25 342.78 L 211.25 342.32 Z" />
</g>
<g id="#feee95ff">
<path fill="#feee95" opacity="1.00" d=" M 225.29 342.95 C 226.20 344.87 226.90 346.89 227.29 349.00 C 226.69 349.00 225.48 349.01 224.87 349.02 C 224.99 346.99 225.11 344.97 225.29 342.95 Z" />
</g>
<g id="#ada06cff">
<path fill="#ada06c" opacity="1.00" d=" M 145.80 349.58 C 147.66 347.20 150.63 346.40 153.23 345.16 C 150.86 346.80 148.38 348.29 145.80 349.58 Z" />
</g>
<g id="#bab48cff">
<path fill="#bab48c" opacity="1.00" d=" M 138.82 356.08 C 140.69 353.48 142.90 351.10 145.78 349.60 C 143.68 351.99 141.36 354.17 138.82 356.08 Z" />
</g>
<g id="#fee973ff">
<path fill="#fee973" opacity="1.00" d=" M 225.19 349.69 C 227.51 354.33 228.62 359.50 230.09 364.46 C 227.63 362.99 227.64 359.78 226.44 357.45 C 225.24 355.03 224.92 352.35 225.19 349.69 Z" />
</g>
<g id="#7b6d42ff">
<path fill="#7b6d42" opacity="1.00" d=" M 252.07 352.01 C 253.87 352.11 255.10 353.49 256.11 354.85 C 253.97 355.87 252.47 353.87 252.07 352.01 Z" />
</g>
<g id="#b7b289ff">
<path fill="#b7b289" opacity="1.00" d=" M 258.30 357.21 L 258.77 357.53 C 259.76 358.80 259.49 360.97 258.29 362.03 L 258.16 361.74 C 258.00 360.25 257.53 358.61 258.30 357.21 Z" />
</g>
<g id="#776640ff">
<path fill="#776640" opacity="1.00" d=" M 218.08 360.06 C 219.53 362.21 220.13 364.77 220.95 367.20 C 219.56 365.01 218.71 362.55 218.08 360.06 Z" />
</g>
<g id="#948a6fff">
<path fill="#948a6f" opacity="1.00" d=" M 221.26 367.75 C 223.25 369.32 223.84 371.67 224.03 374.09 C 223.07 371.99 222.28 369.82 221.26 367.75 Z" />
</g>
<g id="#7d7040ff">
<path fill="#7d7040" opacity="1.00" d=" M 244.25 381.23 C 245.82 378.46 247.11 375.20 250.29 373.92 C 248.58 376.60 246.54 379.04 244.25 381.23 Z" />
</g>
<g id="#cac59fff">
<path fill="#cac59f" opacity="1.00" d=" M 226.77 377.33 C 228.77 376.01 230.55 378.14 229.87 380.12 C 228.75 379.28 227.69 378.36 226.77 377.33 Z" />
</g>
</svg>
