<?xml version="1.0" encoding="UTF-8" ?>
<!DOCTYPE svg PUBLIC "-//W3C//DTD SVG 1.1//EN" "http://www.w3.org/Graphics/SVG/1.1/DTD/svg11.dtd">
<svg width="750pt" height="564pt" viewBox="0 0 750 564" version="1.1" xmlns="http://www.w3.org/2000/svg">
<path fill="#ffffff" opacity="1.00" d=" M 0.00 0.00 L 750.00 0.00 L 750.00 564.00 L 513.70 564.00 C 520.38 550.34 526.28 536.31 532.09 522.25 C 534.41 515.66 536.12 508.78 539.82 502.77 C 542.63 498.28 541.67 492.33 545.12 488.19 C 552.46 478.58 557.90 467.11 558.62 454.89 C 558.66 452.17 561.30 450.62 562.84 448.70 C 562.53 437.27 563.64 425.79 562.35 414.39 C 560.47 414.23 558.59 414.08 556.72 413.93 C 556.54 425.03 557.19 436.14 556.36 447.23 C 554.24 437.95 556.37 428.37 555.14 419.01 C 554.70 415.25 552.73 411.81 552.76 407.98 C 552.54 394.96 552.80 381.94 552.62 368.92 C 552.43 362.47 555.16 356.39 555.33 349.98 C 555.44 346.12 553.78 342.53 553.19 338.77 C 551.70 329.51 553.57 320.09 552.08 310.83 C 549.22 292.97 553.53 274.70 549.63 256.94 C 548.67 249.24 545.36 242.23 543.05 234.92 C 540.62 230.56 536.63 227.35 533.93 223.21 C 533.52 219.07 534.18 214.82 533.23 210.74 C 531.09 206.45 526.57 204.06 524.02 200.07 C 522.04 196.60 521.58 192.27 518.55 189.42 C 514.27 185.18 511.43 179.82 508.35 174.70 C 506.53 171.58 503.91 168.75 503.35 165.06 C 502.55 160.76 502.44 156.05 499.70 152.40 C 498.41 150.19 496.07 148.44 495.75 145.78 C 494.91 138.55 494.50 131.26 493.51 124.05 C 491.93 120.08 488.26 117.45 486.07 113.85 C 484.22 110.42 486.76 105.46 483.19 102.89 C 472.06 92.56 462.17 80.95 453.37 68.59 C 450.28 64.32 447.68 59.71 444.29 55.67 C 437.66 47.62 429.68 40.83 421.56 34.36 C 414.90 29.65 408.91 24.03 401.87 19.85 C 400.17 18.25 398.75 16.40 397.31 14.57 C 401.79 14.12 406.26 13.59 410.72 12.91 C 410.58 11.36 410.45 9.81 410.32 8.27 C 402.03 7.38 393.68 7.97 385.45 9.17 C 381.22 4.79 375.21 2.51 369.13 3.06 C 368.03 2.22 366.93 1.37 365.84 0.52 C 353.91 1.05 341.94 -0.50 330.06 0.94 C 325.31 1.38 320.80 3.32 316.00 3.19 C 287.65 3.46 259.30 3.31 230.95 3.18 C 221.61 2.98 211.98 4.90 204.10 10.11 C 199.55 13.40 193.34 12.49 188.74 15.77 C 183.31 19.46 177.35 22.27 171.95 26.01 C 164.33 31.63 154.71 33.13 146.31 37.21 C 134.61 30.42 123.16 23.12 110.83 17.50 C 108.67 22.02 106.42 26.48 104.18 30.96 C 114.65 35.01 125.17 39.23 136.33 40.99 C 129.72 42.62 123.04 44.55 117.25 48.25 C 114.22 50.16 111.75 52.85 108.57 54.55 C 105.61 56.19 102.40 57.54 99.99 60.00 C 91.34 68.65 82.71 77.34 74.02 85.95 C 70.46 89.34 69.95 94.51 67.52 98.60 C 62.75 106.67 58.05 114.83 52.30 122.26 C 49.76 125.33 49.08 129.46 46.51 132.51 C 40.29 140.32 36.17 149.49 31.11 158.05 C 24.12 169.88 20.59 183.39 18.51 196.88 C 18.21 199.35 17.00 201.54 15.88 203.72 C 12.33 210.59 10.52 218.16 8.41 225.56 C 6.10 232.77 6.77 240.46 6.65 247.92 C 6.92 252.77 6.16 257.92 8.26 262.47 C 10.46 267.59 13.12 272.93 17.97 276.05 C 22.05 278.58 25.51 282.18 30.00 284.02 C 34.40 284.78 38.90 284.25 43.34 284.39 C 43.08 307.24 43.54 330.10 43.25 352.96 C 43.32 360.03 42.74 367.17 43.79 374.20 C 44.23 378.06 46.57 381.28 47.71 384.91 C 48.24 392.38 46.29 400.31 49.51 407.42 C 53.46 416.71 53.81 427.00 53.71 436.95 C 59.05 442.66 62.71 449.61 66.86 456.17 C 71.12 463.84 75.42 471.74 76.81 480.52 C 79.51 482.15 84.12 483.05 84.14 486.93 C 84.42 497.63 84.26 508.54 87.41 518.88 C 89.36 525.06 89.63 531.71 92.47 537.62 C 94.30 541.07 94.15 545.30 96.43 548.50 C 100.12 553.05 103.15 558.19 104.29 564.00 L 0.00 564.00 L 0.00 0.00 M 586.76 258.14 C 586.77 267.24 586.77 276.33 586.76 285.43 C 587.79 285.49 588.83 285.56 589.88 285.64 C 590.15 276.47 589.94 267.29 589.99 258.12 C 589.18 258.13 587.57 258.14 586.76 258.14 M 633.30 259.22 C 631.16 260.74 631.03 263.53 630.69 265.88 C 630.18 265.88 629.15 265.88 628.64 265.88 C 628.64 266.53 628.64 267.82 628.64 268.47 C 629.17 268.54 630.23 268.68 630.76 268.75 C 631.02 274.30 630.83 279.87 630.81 285.43 C 631.93 285.43 633.06 285.43 634.19 285.42 C 634.10 279.81 634.09 274.20 634.19 268.59 C 636.12 268.61 638.06 268.63 640.00 268.64 C 640.00 267.95 640.00 266.56 640.00 265.87 C 637.93 265.87 635.88 265.86 633.82 265.85 C 634.24 264.40 633.94 262.44 635.37 261.50 C 637.14 260.36 639.33 261.13 641.27 261.24 C 641.25 260.48 641.21 258.96 641.19 258.21 C 638.56 258.08 635.58 257.55 633.30 259.22 M 600.89 285.14 C 604.71 286.74 608.94 285.83 612.72 284.59 C 612.80 283.34 612.88 282.10 612.98 280.86 C 609.65 282.59 605.52 284.22 601.93 282.23 C 599.54 281.09 599.00 278.35 598.52 276.03 C 603.45 275.97 608.39 276.02 613.32 275.99 C 613.16 273.42 613.31 270.58 611.69 268.40 C 609.38 265.12 604.62 264.72 601.12 266.07 C 593.54 269.06 593.21 282.07 600.89 285.14 M 643.14 265.87 C 643.21 270.58 642.97 275.31 643.23 280.02 C 643.33 282.66 645.10 285.32 647.81 285.81 C 650.85 286.68 653.73 285.07 656.21 283.50 C 656.26 284.02 656.36 285.06 656.42 285.58 C 657.19 285.55 658.73 285.48 659.51 285.45 C 659.49 278.91 659.51 272.37 659.50 265.84 C 658.68 265.86 657.06 265.92 656.24 265.94 C 656.27 270.90 656.31 275.86 656.21 280.82 C 653.55 282.29 648.94 284.55 646.93 281.06 C 645.72 276.12 646.65 270.91 646.36 265.87 C 645.56 265.87 643.94 265.87 643.14 265.87 M 665.77 272.51 C 665.76 273.54 665.76 274.58 665.76 275.63 C 669.42 275.63 673.07 275.63 676.74 275.63 C 676.72 274.58 676.72 273.54 676.72 272.50 C 673.07 272.50 669.42 272.50 665.77 272.51 Z" />
<path fill="#000000" opacity="1.00" d=" M 316.00 3.19 C 320.80 3.32 325.31 1.38 330.06 0.94 C 341.94 -0.50 353.91 1.05 365.84 0.52 C 366.93 1.37 368.03 2.22 369.13 3.06 C 375.21 2.51 381.22 4.79 385.45 9.17 C 393.68 7.97 402.03 7.38 410.32 8.27 C 410.45 9.81 410.58 11.36 410.72 12.91 C 406.26 13.59 401.79 14.12 397.31 14.57 C 398.75 16.40 400.17 18.25 401.87 19.85 C 400.68 21.95 399.52 24.06 398.49 26.24 C 396.45 30.90 394.63 36.28 389.85 38.83 C 381.77 43.34 374.38 48.96 366.20 53.28 C 358.84 57.30 350.55 59.03 342.73 61.90 C 330.82 66.11 318.57 69.33 306.85 74.07 C 280.86 84.00 254.85 93.86 228.87 103.80 C 213.56 110.70 199.19 119.46 184.17 126.94 C 179.90 129.02 175.96 131.70 171.70 133.80 C 163.75 137.77 155.50 141.34 148.49 146.90 C 149.14 148.71 149.80 150.51 150.46 152.31 C 144.79 156.02 138.51 158.87 133.35 163.31 C 128.72 168.45 125.70 174.80 122.93 181.08 C 120.98 185.57 117.03 188.89 115.38 193.54 C 113.78 198.02 113.02 202.77 111.18 207.18 C 107.78 215.96 100.05 222.31 97.10 231.32 C 94.57 239.42 90.98 247.18 86.56 254.43 C 80.34 263.48 69.49 267.29 59.68 271.07 C 58.87 288.38 60.62 305.79 58.31 323.01 C 57.61 334.65 57.99 346.33 58.17 357.98 C 56.33 359.52 54.34 360.86 52.12 361.79 C 52.72 345.24 51.13 328.59 53.39 312.13 C 54.32 300.10 53.54 288.03 53.57 275.99 C 52.19 277.30 50.64 278.48 49.54 280.06 C 49.11 283.69 49.32 287.37 49.19 291.03 C 49.15 313.69 49.20 336.34 49.17 359.00 C 49.16 362.69 49.19 366.39 49.49 370.07 C 47.71 369.48 45.93 368.90 44.15 368.33 C 44.01 370.28 43.86 372.23 43.79 374.20 C 42.74 367.17 43.32 360.03 43.25 352.96 C 43.54 330.10 43.08 307.24 43.34 284.39 C 38.90 284.25 34.40 284.78 30.00 284.02 C 25.51 282.18 22.05 278.58 17.97 276.05 C 13.12 272.93 10.46 267.59 8.26 262.47 C 6.16 257.92 6.92 252.77 6.65 247.92 C 6.77 240.46 6.10 232.77 8.41 225.56 C 10.52 218.16 12.33 210.59 15.88 203.72 C 17.00 201.54 18.21 199.35 18.51 196.88 C 20.59 183.39 24.12 169.88 31.11 158.05 C 36.17 149.49 40.29 140.32 46.51 132.51 C 49.08 129.46 49.76 125.33 52.30 122.26 C 58.05 114.83 62.75 106.67 67.52 98.60 C 69.95 94.51 70.46 89.34 74.02 85.95 C 82.71 77.34 91.34 68.65 99.99 60.00 C 102.40 57.54 105.61 56.19 108.57 54.55 C 111.75 52.85 114.22 50.16 117.25 48.25 C 123.04 44.55 129.72 42.62 136.33 40.99 C 125.17 39.23 114.65 35.01 104.18 30.96 C 106.42 26.48 108.67 22.02 110.83 17.50 C 123.16 23.12 134.61 30.42 146.31 37.21 C 154.71 33.13 164.33 31.63 171.95 26.01 C 177.35 22.27 183.31 19.46 188.74 15.77 C 193.34 12.49 199.55 13.40 204.10 10.11 C 211.98 4.90 221.61 2.98 230.95 3.18 C 259.30 3.31 287.65 3.46 316.00 3.19 Z" />
<path fill="#0d0d0d" opacity="1.00" d=" M 401.87 19.85 C 408.91 24.03 414.90 29.65 421.56 34.36 C 429.68 40.83 437.66 47.62 444.29 55.67 C 447.68 59.71 450.28 64.32 453.37 68.59 C 462.17 80.95 472.06 92.56 483.19 102.89 C 486.76 105.46 484.22 110.42 486.07 113.85 C 488.26 117.45 491.93 120.08 493.51 124.05 C 494.50 131.26 494.91 138.55 495.75 145.78 C 496.07 148.44 498.41 150.19 499.70 152.40 C 502.44 156.05 502.55 160.76 503.35 165.06 C 503.91 168.75 506.53 171.58 508.35 174.70 C 511.43 179.82 514.27 185.18 518.55 189.42 C 521.58 192.27 522.04 196.60 524.02 200.07 C 526.57 204.06 531.09 206.45 533.23 210.74 C 534.18 214.82 533.52 219.07 533.93 223.21 C 536.63 227.35 540.62 230.56 543.05 234.92 C 545.36 242.23 548.67 249.24 549.63 256.94 C 553.53 274.70 549.22 292.97 552.08 310.83 C 553.57 320.09 551.70 329.51 553.19 338.77 C 553.78 342.53 555.44 346.12 555.33 349.98 C 555.16 356.39 552.43 362.47 552.62 368.92 C 552.80 381.94 552.54 394.96 552.76 407.98 C 552.73 411.81 554.70 415.25 555.14 419.01 C 556.37 428.37 554.24 437.95 556.36 447.23 C 557.19 436.14 556.54 425.03 556.72 413.93 C 558.59 414.08 560.47 414.23 562.35 414.39 C 563.64 425.79 562.53 437.27 562.84 448.70 C 561.30 450.62 558.66 452.17 558.62 454.89 C 557.90 467.11 552.46 478.58 545.12 488.19 C 541.67 492.33 542.63 498.28 539.82 502.77 C 536.12 508.78 534.41 515.66 532.09 522.25 C 526.28 536.31 520.38 550.34 513.70 564.00 L 506.30 564.00 C 508.15 559.51 511.05 555.51 512.58 550.88 C 513.63 547.99 512.92 544.94 512.05 542.12 C 514.62 538.18 517.64 534.42 519.17 529.91 C 520.88 524.95 521.63 519.70 523.62 514.83 C 526.58 507.50 528.07 499.71 530.27 492.14 C 531.20 488.39 535.69 486.86 536.26 482.94 C 537.69 477.55 539.05 472.15 540.65 466.82 C 541.35 461.54 549.21 461.42 549.51 455.89 C 549.75 443.86 549.51 431.82 549.49 419.79 C 548.19 418.08 546.24 416.45 546.68 414.05 C 546.71 391.38 546.66 368.71 546.71 346.04 C 546.61 339.66 545.30 333.37 545.00 327.00 C 544.84 320.17 539.18 314.88 539.35 308.01 C 539.17 304.32 539.60 300.59 539.04 296.92 C 538.00 292.57 535.33 288.68 535.16 284.11 C 535.06 279.47 532.95 275.28 532.10 270.80 C 531.11 265.57 528.54 260.83 527.16 255.71 C 525.85 250.84 522.69 246.82 520.46 242.37 C 518.42 238.46 518.85 233.90 518.57 229.64 C 512.71 224.97 515.77 216.65 512.14 210.85 C 507.20 201.87 505.66 191.59 501.96 182.12 C 500.25 177.67 497.61 173.68 495.30 169.53 C 491.46 162.94 487.76 156.14 482.44 150.60 C 476.53 144.41 472.53 136.73 468.91 129.06 C 466.60 124.03 463.41 119.42 461.62 114.16 C 458.95 106.63 457.66 98.68 454.77 91.22 C 452.88 86.43 451.83 80.90 447.86 77.30 C 444.51 74.80 440.49 73.29 437.48 70.32 C 439.82 68.84 442.33 67.64 444.93 66.65 C 440.99 62.08 437.43 57.17 433.17 52.89 C 425.34 44.92 416.03 38.65 407.50 31.50 C 404.84 29.20 401.65 27.69 398.49 26.24 C 399.52 24.06 400.68 21.95 401.87 19.85 M 463.68 97.55 C 463.36 103.58 462.17 109.93 464.39 115.74 C 465.95 117.43 468.73 117.11 470.70 118.23 C 476.59 128.75 480.51 140.81 489.71 149.11 C 489.66 142.39 487.80 135.82 487.96 129.08 C 485.83 128.16 483.64 127.36 481.57 126.29 C 480.89 124.00 480.98 121.57 480.48 119.24 C 478.92 117.86 476.95 116.91 475.85 115.06 C 473.91 112.10 470.79 110.24 467.46 109.24 C 466.21 104.99 465.97 100.55 465.73 96.16 C 465.04 96.62 464.36 97.08 463.68 97.55 M 471.76 104.11 C 472.85 106.10 475.26 106.26 477.26 106.17 C 477.09 103.84 475.50 101.47 472.99 101.39 C 471.45 101.15 471.03 103.11 471.76 104.11 M 519.87 212.13 C 521.54 215.86 518.50 221.03 522.14 223.82 C 526.08 226.70 524.12 231.97 524.99 236.06 C 526.34 241.97 531.27 246.26 532.96 252.04 C 533.63 254.39 533.81 256.88 534.86 259.11 C 536.14 261.95 537.83 264.74 537.93 267.95 C 537.94 272.24 541.54 275.65 540.91 280.03 C 540.50 284.38 542.38 288.50 545.01 291.85 C 545.20 283.92 545.43 275.98 545.13 268.04 C 545.13 264.17 543.20 260.67 542.65 256.89 C 541.91 253.75 542.38 250.24 540.53 247.45 C 538.83 244.74 537.57 241.74 537.38 238.51 C 534.19 234.39 531.38 229.95 527.67 226.27 C 527.72 221.91 527.67 217.56 527.72 213.20 C 523.99 209.65 519.61 206.54 517.16 201.88 C 515.90 199.70 515.87 197.12 515.27 194.74 C 514.03 193.67 512.44 193.15 511.00 192.43 C 513.89 199.03 516.88 205.58 519.87 212.13 M 544.75 474.25 C 548.01 475.67 550.87 470.02 547.58 468.51 C 544.78 468.72 544.50 472.06 544.75 474.25 Z" />
<path fill="#ffffff" opacity="1.00" d=" M 389.85 38.83 C 394.63 36.28 396.45 30.90 398.49 26.24 C 401.65 27.69 404.84 29.20 407.50 31.50 C 416.03 38.65 425.34 44.92 433.17 52.89 C 437.43 57.17 440.99 62.08 444.93 66.65 C 442.33 67.64 439.82 68.84 437.48 70.32 C 440.49 73.29 444.51 74.80 447.86 77.30 C 451.83 80.90 452.88 86.43 454.77 91.22 C 457.66 98.68 458.95 106.63 461.62 114.16 C 463.41 119.42 466.60 124.03 468.91 129.06 C 472.53 136.73 476.53 144.41 482.44 150.60 C 487.76 156.14 491.46 162.94 495.30 169.53 C 497.61 173.68 500.25 177.67 501.96 182.12 C 505.66 191.59 507.20 201.87 512.14 210.85 C 515.77 216.65 512.71 224.97 518.57 229.64 C 518.85 233.90 518.42 238.46 520.46 242.37 C 522.69 246.82 525.85 250.84 527.16 255.71 C 528.54 260.83 531.11 265.57 532.10 270.80 C 532.95 275.28 535.06 279.47 535.16 284.11 C 535.33 288.68 538.00 292.57 539.04 296.92 C 539.60 300.59 539.17 304.32 539.35 308.01 C 539.18 314.88 544.84 320.17 545.00 327.00 C 545.30 333.37 546.61 339.66 546.71 346.04 C 546.66 368.71 546.71 391.38 546.68 414.05 C 546.24 416.45 548.19 418.08 549.49 419.79 C 549.51 431.82 549.75 443.86 549.51 455.89 C 549.21 461.42 541.35 461.54 540.65 466.82 C 539.05 472.15 537.69 477.55 536.26 482.94 C 535.69 486.86 531.20 488.39 530.27 492.14 C 528.07 499.71 526.58 507.50 523.62 514.83 C 521.63 519.70 520.88 524.95 519.17 529.91 C 517.64 534.42 514.62 538.18 512.05 542.12 C 512.92 544.94 513.63 547.99 512.58 550.88 C 511.05 555.51 508.15 559.51 506.30 564.00 L 112.96 564.00 C 109.22 559.59 108.86 553.39 105.09 549.00 C 101.60 544.96 100.26 539.74 98.55 534.82 C 96.08 528.41 95.15 521.58 93.24 515.01 C 91.14 507.19 90.61 499.06 90.11 491.01 C 93.28 494.85 97.28 497.78 101.28 500.67 C 105.25 506.90 107.80 513.92 111.34 520.39 C 113.93 524.96 118.81 527.36 123.21 529.84 C 127.28 532.05 130.73 535.32 135.07 537.07 C 141.50 539.69 148.31 541.80 153.83 546.20 C 157.27 549.02 161.45 550.62 165.44 552.47 C 169.47 554.30 172.55 557.59 176.39 559.73 C 177.71 557.52 179.24 554.76 177.79 552.24 C 174.60 547.53 168.78 546.19 163.76 544.36 C 159.69 543.02 156.85 539.64 153.17 537.61 C 147.52 534.37 141.20 532.59 135.41 529.66 C 131.44 527.71 128.16 524.67 124.22 522.67 C 121.78 521.23 118.89 520.02 117.46 517.41 C 113.84 510.70 111.08 503.55 107.35 496.90 C 105.73 493.52 101.82 492.64 98.67 491.29 C 98.06 489.22 97.45 487.15 96.85 485.09 C 94.84 484.65 92.83 484.23 90.82 483.80 C 91.04 473.77 88.91 463.93 86.79 454.19 C 84.73 443.92 79.36 434.56 78.21 424.07 C 77.49 415.30 70.11 408.77 69.67 399.94 C 68.82 389.84 67.56 379.73 64.85 369.95 C 63.94 366.14 60.79 363.55 58.35 360.71 C 58.30 360.03 58.21 358.66 58.17 357.98 C 57.99 346.33 57.61 334.65 58.31 323.01 C 60.62 305.79 58.87 288.38 59.68 271.07 C 69.49 267.29 80.34 263.48 86.56 254.43 C 90.98 247.18 94.57 239.42 97.10 231.32 C 100.05 222.31 107.78 215.96 111.18 207.18 C 113.02 202.77 113.78 198.02 115.38 193.54 C 117.03 188.89 120.98 185.57 122.93 181.08 C 125.70 174.80 128.72 168.45 133.35 163.31 C 138.51 158.87 144.79 156.02 150.46 152.31 C 149.80 150.51 149.14 148.71 148.49 146.90 C 155.50 141.34 163.75 137.77 171.70 133.80 C 175.96 131.70 179.90 129.02 184.17 126.94 C 199.19 119.46 213.56 110.70 228.87 103.80 C 254.85 93.86 280.86 84.00 306.85 74.07 C 318.57 69.33 330.82 66.11 342.73 61.90 C 350.55 59.03 358.84 57.30 366.20 53.28 C 374.38 48.96 381.77 43.34 389.85 38.83 M 371.62 95.60 C 370.52 97.75 370.25 100.51 371.32 102.74 C 372.04 104.22 374.49 105.38 375.54 103.54 C 377.91 101.05 380.10 97.44 383.97 97.43 C 391.62 97.32 399.42 96.64 406.93 98.47 C 408.77 98.82 410.09 100.24 411.61 101.22 C 414.05 102.97 416.96 103.91 419.46 105.55 C 423.83 109.04 424.22 115.91 429.52 118.46 C 436.23 121.21 436.27 129.49 439.98 134.75 C 443.60 137.90 448.32 139.31 452.54 141.46 C 455.10 146.41 456.97 151.67 459.27 156.73 C 460.13 159.42 463.74 159.55 464.77 162.10 C 466.88 166.54 469.68 170.65 473.33 173.97 C 473.51 178.62 472.53 183.47 474.03 187.97 C 476.81 191.57 480.69 194.11 483.84 197.37 C 483.57 206.46 483.73 215.56 483.70 224.66 C 480.93 227.32 478.07 230.14 477.05 233.98 C 476.00 238.18 471.85 240.15 468.88 242.82 C 464.09 247.06 457.68 248.91 453.15 253.48 C 439.44 253.41 425.72 253.72 412.02 253.28 C 405.81 252.62 400.10 249.74 393.94 248.81 C 390.20 248.62 387.52 245.59 383.95 244.87 C 381.89 244.36 379.73 244.70 377.69 244.26 C 373.52 239.95 368.78 236.20 363.44 233.43 C 357.40 230.91 354.46 224.61 349.43 220.74 C 349.36 218.58 349.29 216.42 349.23 214.26 C 346.61 212.03 343.95 209.79 341.93 206.98 C 340.02 204.37 339.66 200.94 337.54 198.47 C 335.66 196.16 333.01 194.70 330.44 193.32 C 330.41 187.39 329.75 181.39 330.66 175.50 C 332.57 171.25 335.08 167.10 335.13 162.28 C 337.46 159.85 339.12 156.89 339.73 153.56 C 341.93 149.04 346.49 145.99 348.08 141.08 C 349.55 136.81 354.53 136.20 357.52 133.43 C 361.55 129.82 364.22 124.87 368.68 121.70 C 373.15 118.57 376.01 113.51 381.00 111.09 C 384.05 109.61 387.07 108.07 389.90 106.21 C 392.56 106.07 395.48 106.41 397.89 105.02 C 399.55 104.19 399.16 101.95 398.46 100.60 C 394.76 99.47 390.72 99.75 386.90 100.11 C 383.38 102.26 379.60 103.95 376.01 105.97 C 371.90 109.49 368.46 113.81 363.91 116.84 C 360.46 119.06 358.44 122.73 355.87 125.80 C 352.52 129.94 346.92 131.38 343.57 135.50 C 341.60 138.58 340.09 141.96 337.73 144.79 C 335.90 147.47 332.84 149.61 332.73 153.14 C 332.69 156.40 328.64 157.73 328.68 161.01 C 328.89 166.49 323.83 170.44 324.20 175.94 C 324.25 182.60 323.73 189.30 324.51 195.94 C 324.99 198.96 328.26 200.04 330.53 201.44 C 333.20 202.61 333.55 205.81 334.80 208.12 C 336.44 212.22 340.73 214.41 342.60 218.38 C 343.55 220.10 343.53 222.12 343.59 224.03 C 347.42 227.99 351.44 231.83 354.05 236.75 C 361.89 239.27 368.34 244.45 374.28 249.96 C 379.16 250.58 384.09 251.52 388.18 254.46 C 396.43 254.85 403.68 260.05 412.04 259.52 C 426.36 259.29 440.71 259.91 455.01 259.17 C 464.01 254.18 473.62 249.37 480.28 241.27 C 483.02 238.15 484.00 233.89 486.91 230.91 C 488.08 229.45 489.76 228.05 489.80 226.02 C 489.86 218.02 489.77 210.01 489.82 202.00 C 489.75 199.35 489.95 196.51 488.61 194.11 C 486.52 190.06 482.30 187.73 479.94 183.91 C 478.06 179.04 481.51 172.76 477.34 168.69 C 473.48 164.93 471.79 159.66 468.39 155.57 C 467.09 153.91 464.93 152.94 464.11 150.93 C 462.11 146.11 460.69 140.86 457.25 136.81 C 453.94 133.85 449.40 132.94 445.33 131.46 C 443.56 126.07 441.82 120.41 437.90 116.14 C 436.14 114.14 433.72 112.93 431.78 111.16 C 429.16 108.38 428.04 104.54 425.37 101.80 C 421.94 98.07 416.66 97.15 412.70 94.15 C 405.09 88.95 395.49 91.70 386.94 90.97 C 381.43 90.21 376.13 92.68 371.62 95.60 M 408.14 127.81 C 407.39 139.44 407.11 151.15 408.31 162.77 C 412.71 162.86 417.36 162.53 421.39 164.62 C 429.28 168.58 438.44 167.59 446.92 166.83 C 452.49 164.97 453.73 158.21 452.79 153.09 C 451.35 153.12 449.68 152.26 448.39 152.97 C 447.00 155.61 446.86 159.44 443.84 160.86 C 436.83 161.71 429.07 161.94 422.86 158.04 C 420.17 156.22 416.73 157.27 413.70 156.89 C 413.51 147.72 414.12 138.55 413.52 129.40 C 412.18 127.86 409.95 128.18 408.14 127.81 M 163.21 167.09 C 162.26 169.42 161.30 171.74 160.21 174.00 C 156.95 174.12 153.70 174.41 150.44 174.60 C 147.80 177.80 145.41 181.48 141.64 183.47 C 138.02 185.45 134.08 187.12 131.26 190.25 C 128.83 192.91 125.68 194.67 122.50 196.27 C 122.53 198.97 122.47 201.68 122.31 204.38 C 120.77 205.31 119.22 206.24 117.68 207.17 C 117.69 212.01 117.70 216.84 117.68 221.68 C 115.89 223.18 113.46 224.47 113.05 227.01 C 111.35 233.90 111.67 241.10 112.35 248.11 C 112.86 251.58 116.63 252.84 119.32 254.27 C 119.42 258.50 119.16 262.74 119.34 266.97 C 120.21 268.34 121.31 269.53 122.32 270.79 C 122.19 278.71 121.57 287.07 124.56 294.57 C 132.85 302.52 140.34 312.30 151.55 316.25 C 162.30 317.17 173.11 316.07 183.89 316.64 C 187.97 316.65 192.72 316.96 195.91 313.90 C 199.98 310.23 204.45 306.94 207.90 302.62 C 212.89 296.38 220.31 292.56 224.89 285.94 C 229.25 279.58 232.54 272.47 237.61 266.60 C 239.92 263.90 242.95 261.95 245.35 259.34 C 247.55 256.35 248.03 252.43 250.32 249.49 C 251.44 248.09 252.48 246.61 252.89 244.83 C 254.02 240.69 256.88 237.19 257.43 232.87 C 257.79 229.87 259.21 227.15 259.72 224.19 C 260.98 217.29 259.81 210.28 259.70 203.34 C 255.50 201.19 250.16 201.66 246.83 205.18 C 248.80 207.16 251.30 208.47 254.07 208.94 C 253.71 213.10 254.53 217.46 253.62 221.50 C 250.64 224.83 251.22 229.42 250.43 233.49 C 249.24 236.59 247.43 239.42 246.48 242.62 C 245.67 245.52 243.06 247.42 242.18 250.27 C 240.17 256.29 234.54 259.82 230.63 264.48 C 225.91 270.40 222.55 277.24 218.34 283.51 C 213.44 291.28 202.59 293.63 199.68 302.92 C 198.22 303.16 196.77 303.40 195.32 303.64 C 193.59 306.50 192.05 310.80 187.96 310.48 C 176.22 310.46 164.47 310.67 152.74 310.28 C 149.43 306.68 144.22 305.74 141.05 302.00 C 137.60 298.15 133.28 295.05 130.41 290.70 C 127.40 283.57 128.65 275.66 128.37 268.14 C 126.01 265.30 124.91 261.62 125.21 257.95 C 124.63 253.19 129.70 251.08 133.08 249.11 C 137.66 249.05 142.25 249.39 146.83 248.97 C 149.13 246.22 150.89 242.95 153.84 240.79 C 155.52 239.32 157.58 238.07 158.59 236.02 C 159.69 231.65 159.07 227.11 158.73 222.69 C 154.73 221.80 154.20 217.41 153.51 214.08 C 146.97 213.94 140.33 214.24 133.93 212.60 C 131.32 211.77 127.90 212.24 126.43 214.80 C 126.11 216.98 128.28 217.68 129.85 218.37 C 135.79 220.77 142.33 219.78 148.56 220.03 C 148.74 222.19 148.96 224.34 149.20 226.50 C 150.53 226.95 151.87 227.40 153.22 227.85 C 153.11 229.43 153.01 231.01 152.88 232.60 C 148.47 234.94 145.55 239.11 142.69 243.05 C 138.11 243.14 133.52 243.02 128.94 243.19 C 127.48 244.62 126.08 246.14 124.47 247.42 C 122.85 247.95 121.06 247.60 119.38 247.71 C 117.14 239.92 117.17 230.35 123.67 224.55 C 124.61 220.38 123.32 215.72 124.76 211.53 C 126.61 208.44 129.02 205.40 128.74 201.56 C 131.38 200.05 134.04 198.42 135.92 195.98 C 138.94 192.10 143.66 190.34 147.56 187.58 C 150.22 185.73 151.94 182.69 155.01 181.41 C 158.84 179.75 163.03 179.23 166.97 177.88 C 167.47 176.27 167.97 174.66 168.46 173.05 C 176.00 173.48 183.57 172.68 191.09 173.35 C 201.02 175.38 209.58 181.14 218.64 185.39 C 220.27 186.28 222.31 186.82 223.25 188.58 C 225.54 192.07 227.78 195.61 229.55 199.40 C 230.99 202.47 230.18 206.13 231.81 209.14 C 233.45 212.15 235.08 215.17 236.28 218.39 C 240.51 218.57 244.74 218.45 248.97 218.32 C 249.11 216.52 249.24 214.73 249.37 212.93 C 246.75 212.71 244.14 212.50 241.53 212.28 C 239.22 208.61 237.14 204.77 235.76 200.65 C 240.65 200.90 246.02 202.07 250.41 199.19 C 250.09 198.02 249.79 196.86 249.49 195.70 C 246.82 195.11 243.77 195.25 241.58 193.40 C 235.74 188.21 232.27 180.71 225.65 176.34 C 221.03 172.88 215.00 175.48 209.79 174.26 C 207.98 173.14 206.54 171.53 204.97 170.11 C 203.31 170.08 201.64 170.18 200.01 169.90 C 197.73 168.83 195.72 166.78 193.01 167.06 C 183.08 167.12 173.14 167.08 163.21 167.09 M 332.88 394.81 C 329.34 395.36 326.61 398.01 323.11 398.67 C 316.59 399.83 310.75 403.18 304.23 404.34 C 302.88 413.77 295.74 420.76 292.74 429.55 C 291.51 432.82 292.20 436.54 290.48 439.65 C 287.57 446.09 283.27 451.73 279.29 457.51 C 278.51 462.67 276.13 468.27 278.92 473.22 C 281.02 473.07 283.12 472.94 285.22 472.82 C 288.78 477.15 294.34 478.42 299.05 481.04 C 304.27 483.97 310.41 482.58 316.09 483.24 C 320.41 483.46 324.62 484.62 328.54 486.43 C 328.67 484.92 328.82 483.42 328.97 481.92 C 331.67 480.34 334.09 478.34 336.56 476.41 C 339.03 474.47 342.09 473.53 344.65 471.75 C 350.54 467.67 354.40 461.28 360.56 457.54 C 367.06 453.53 373.55 449.46 379.52 444.68 C 380.73 443.66 382.11 442.87 383.60 442.32 C 389.58 440.07 394.88 435.43 397.24 429.43 C 397.83 424.01 397.85 418.48 397.14 413.08 C 394.83 409.52 389.96 409.75 386.97 407.06 C 379.02 400.00 368.60 396.72 358.44 394.31 C 349.97 393.29 341.27 393.09 332.88 394.81 Z" />
<path fill="#0c0c0c" opacity="1.00" d=" M 371.62 95.60 C 376.13 92.68 381.43 90.21 386.94 90.97 C 395.49 91.70 405.09 88.95 412.70 94.15 C 416.66 97.15 421.94 98.07 425.37 101.80 C 428.04 104.54 429.16 108.38 431.78 111.16 C 433.72 112.93 436.14 114.14 437.90 116.14 C 441.82 120.41 443.56 126.07 445.33 131.46 C 449.40 132.94 453.94 133.85 457.25 136.81 C 460.69 140.86 462.11 146.11 464.11 150.93 C 464.93 152.94 467.09 153.91 468.39 155.57 C 471.79 159.66 473.48 164.93 477.34 168.69 C 481.51 172.76 478.06 179.04 479.94 183.91 C 482.30 187.73 486.52 190.06 488.61 194.11 C 489.95 196.51 489.75 199.35 489.82 202.00 C 489.77 210.01 489.86 218.02 489.80 226.02 C 489.76 228.05 488.08 229.45 486.91 230.91 C 484.00 233.89 483.02 238.15 480.28 241.27 C 473.62 249.37 464.01 254.18 455.01 259.17 C 440.71 259.91 426.36 259.29 412.04 259.52 C 403.68 260.05 396.43 254.85 388.18 254.46 C 384.09 251.52 379.16 250.58 374.28 249.96 C 368.34 244.45 361.89 239.27 354.05 236.75 C 351.44 231.83 347.42 227.99 343.59 224.03 C 343.53 222.12 343.55 220.10 342.60 218.38 C 340.73 214.41 336.44 212.22 334.80 208.12 C 333.55 205.81 333.20 202.61 330.53 201.44 C 328.26 200.04 324.99 198.96 324.51 195.94 C 323.73 189.30 324.25 182.60 324.20 175.94 C 323.83 170.44 328.89 166.49 328.68 161.01 C 328.64 157.73 332.69 156.40 332.73 153.14 C 332.84 149.61 335.90 147.47 337.73 144.79 C 340.09 141.96 341.60 138.58 343.57 135.50 C 346.92 131.38 352.52 129.94 355.87 125.80 C 358.44 122.73 360.46 119.06 363.91 116.84 C 368.46 113.81 371.90 109.49 376.01 105.97 C 379.60 103.95 383.38 102.26 386.90 100.11 C 390.72 99.75 394.76 99.47 398.46 100.60 C 399.16 101.95 399.55 104.19 397.89 105.02 C 395.48 106.41 392.56 106.07 389.90 106.21 C 387.07 108.07 384.05 109.61 381.00 111.09 C 376.01 113.51 373.15 118.57 368.68 121.70 C 364.22 124.87 361.55 129.82 357.52 133.43 C 354.53 136.20 349.55 136.81 348.08 141.08 C 346.49 145.99 341.93 149.04 339.73 153.56 C 339.12 156.89 337.46 159.85 335.13 162.28 C 335.08 167.10 332.57 171.25 330.66 175.50 C 329.75 181.39 330.41 187.39 330.44 193.32 C 333.01 194.70 335.66 196.16 337.54 198.47 C 339.66 200.94 340.02 204.37 341.93 206.98 C 343.95 209.79 346.61 212.03 349.23 214.26 C 349.29 216.42 349.36 218.58 349.43 220.74 C 354.46 224.61 357.40 230.91 363.44 233.43 C 368.78 236.20 373.52 239.95 377.69 244.26 C 379.73 244.70 381.89 244.36 383.95 244.87 C 387.52 245.59 390.20 248.62 393.94 248.81 C 400.10 249.74 405.81 252.62 412.02 253.28 C 425.72 253.72 439.44 253.41 453.15 253.48 C 457.68 248.91 464.09 247.06 468.88 242.82 C 471.85 240.15 476.00 238.18 477.05 233.98 C 478.07 230.14 480.93 227.32 483.70 224.66 C 483.73 215.56 483.57 206.46 483.84 197.37 C 480.69 194.11 476.81 191.57 474.03 187.97 C 472.53 183.47 473.51 178.62 473.33 173.97 C 469.68 170.65 466.88 166.54 464.77 162.10 C 463.74 159.55 460.13 159.42 459.27 156.73 C 456.97 151.67 455.10 146.41 452.54 141.46 C 448.32 139.31 443.60 137.90 439.98 134.75 C 436.27 129.49 436.23 121.21 429.52 118.46 C 424.22 115.91 423.83 109.04 419.46 105.55 C 416.96 103.91 414.05 102.97 411.61 101.22 C 410.09 100.24 408.77 98.82 406.93 98.47 C 399.42 96.64 391.62 97.32 383.97 97.43 C 380.10 97.44 377.91 101.05 375.54 103.54 C 374.49 105.38 372.04 104.22 371.32 102.74 C 370.25 100.51 370.52 97.75 371.62 95.60 Z" />
<path fill="#fdfbfa" opacity="1.00" d=" M 463.68 97.55 C 464.36 97.08 465.04 96.62 465.73 96.16 C 465.97 100.55 466.21 104.99 467.46 109.24 C 470.79 110.24 473.91 112.10 475.85 115.06 C 476.95 116.91 478.92 117.86 480.48 119.24 C 480.98 121.57 480.89 124.00 481.57 126.29 C 483.64 127.36 485.83 128.16 487.96 129.08 C 487.80 135.82 489.66 142.39 489.71 149.11 C 480.51 140.81 476.59 128.75 470.70 118.23 C 468.73 117.11 465.95 117.43 464.39 115.74 C 462.17 109.93 463.36 103.58 463.68 97.55 Z" />
<path fill="#f5f5f5" opacity="1.00" d=" M 471.76 104.11 C 471.03 103.11 471.45 101.15 472.99 101.39 C 475.50 101.47 477.09 103.84 477.26 106.17 C 475.26 106.26 472.85 106.10 471.76 104.11 Z" />
<path fill="#0a0a0a" opacity="1.00" d=" M 408.14 127.81 C 409.95 128.18 412.18 127.86 413.52 129.40 C 414.12 138.55 413.51 147.72 413.70 156.89 C 416.73 157.27 420.17 156.22 422.86 158.04 C 429.07 161.94 436.83 161.71 443.84 160.86 C 446.86 159.44 447.00 155.61 448.39 152.97 C 449.68 152.26 451.35 153.12 452.79 153.09 C 453.73 158.21 452.49 164.97 446.92 166.83 C 438.44 167.59 429.28 168.58 421.39 164.62 C 417.36 162.53 412.71 162.86 408.31 162.77 C 407.11 151.15 407.39 139.44 408.14 127.81 Z" />
<path fill="#0d0d0d" opacity="1.00" d=" M 163.21 167.09 C 173.14 167.08 183.08 167.12 193.01 167.06 C 195.72 166.78 197.73 168.83 200.01 169.90 C 201.64 170.18 203.31 170.08 204.97 170.11 C 206.54 171.53 207.98 173.14 209.79 174.26 C 215.00 175.48 221.03 172.88 225.65 176.34 C 232.27 180.71 235.74 188.21 241.58 193.40 C 243.77 195.25 246.82 195.11 249.49 195.70 C 249.79 196.86 250.09 198.02 250.41 199.19 C 246.02 202.07 240.65 200.90 235.76 200.65 C 237.14 204.77 239.22 208.61 241.53 212.28 C 244.14 212.50 246.75 212.71 249.37 212.93 C 249.24 214.73 249.11 216.52 248.97 218.32 C 244.74 218.45 240.51 218.57 236.28 218.39 C 235.08 215.17 233.45 212.15 231.81 209.14 C 230.18 206.13 230.99 202.47 229.55 199.40 C 227.78 195.61 225.54 192.07 223.25 188.58 C 222.31 186.82 220.27 186.28 218.64 185.39 C 209.58 181.14 201.02 175.38 191.09 173.35 C 183.57 172.68 176.00 173.48 168.46 173.05 C 167.97 174.66 167.47 176.27 166.97 177.88 C 163.03 179.23 158.84 179.75 155.01 181.41 C 151.94 182.69 150.22 185.73 147.56 187.58 C 143.66 190.34 138.94 192.10 135.92 195.98 C 134.04 198.42 131.38 200.05 128.74 201.56 C 129.02 205.40 126.61 208.44 124.76 211.53 C 123.32 215.72 124.61 220.38 123.67 224.55 C 117.17 230.35 117.14 239.92 119.38 247.71 C 121.06 247.60 122.85 247.95 124.47 247.42 C 126.08 246.14 127.48 244.62 128.94 243.19 C 133.52 243.02 138.11 243.14 142.69 243.05 C 145.55 239.11 148.47 234.94 152.88 232.60 C 153.01 231.01 153.11 229.43 153.22 227.85 C 151.87 227.40 150.53 226.95 149.20 226.50 C 148.96 224.34 148.74 222.19 148.56 220.03 C 142.33 219.78 135.79 220.77 129.85 218.37 C 128.28 217.68 126.11 216.98 126.43 214.80 C 127.90 212.24 131.32 211.77 133.93 212.60 C 140.33 214.24 146.97 213.94 153.51 214.08 C 154.20 217.41 154.73 221.80 158.73 222.69 C 159.07 227.11 159.69 231.65 158.59 236.02 C 157.58 238.07 155.52 239.32 153.84 240.79 C 150.89 242.95 149.13 246.22 146.83 248.97 C 142.25 249.39 137.66 249.05 133.08 249.11 C 129.70 251.08 124.63 253.19 125.21 257.95 C 124.91 261.62 126.01 265.30 128.37 268.14 C 128.65 275.66 127.40 283.57 130.41 290.70 C 133.28 295.05 137.60 298.15 141.05 302.00 C 144.22 305.74 149.43 306.68 152.74 310.28 C 164.47 310.67 176.22 310.46 187.96 310.48 C 192.05 310.80 193.59 306.50 195.32 303.64 C 196.77 303.40 198.22 303.16 199.68 302.92 C 202.59 293.63 213.44 291.28 218.34 283.51 C 222.55 277.24 225.91 270.40 230.63 264.48 C 234.54 259.82 240.17 256.29 242.18 250.27 C 243.06 247.42 245.67 245.52 246.48 242.62 C 247.43 239.42 249.24 236.59 250.43 233.49 C 251.22 229.42 250.64 224.83 253.62 221.50 C 254.53 217.46 253.71 213.10 254.07 208.94 C 251.30 208.47 248.80 207.16 246.83 205.18 C 250.16 201.66 255.50 201.19 259.70 203.34 C 259.81 210.28 260.98 217.29 259.72 224.19 C 259.21 227.15 257.79 229.87 257.43 232.87 C 256.88 237.19 254.02 240.69 252.89 244.83 C 252.48 246.61 251.44 248.09 250.32 249.49 C 248.03 252.43 247.55 256.35 245.35 259.34 C 242.95 261.95 239.92 263.90 237.61 266.60 C 232.54 272.47 229.25 279.58 224.89 285.94 C 220.31 292.56 212.89 296.38 207.90 302.62 C 204.45 306.94 199.98 310.23 195.91 313.90 C 192.72 316.96 187.97 316.65 183.89 316.64 C 173.11 316.07 162.30 317.17 151.55 316.25 C 140.34 312.30 132.85 302.52 124.56 294.57 C 121.57 287.07 122.19 278.71 122.32 270.79 C 121.31 269.53 120.21 268.34 119.34 266.97 C 119.16 262.74 119.42 258.50 119.32 254.27 C 116.63 252.84 112.86 251.58 112.35 248.11 C 111.67 241.10 111.35 233.90 113.05 227.01 C 113.46 224.47 115.89 223.18 117.68 221.68 C 117.70 216.84 117.69 212.01 117.68 207.17 C 119.22 206.24 120.77 205.31 122.31 204.38 C 122.47 201.68 122.53 198.97 122.50 196.27 C 125.68 194.67 128.83 192.91 131.26 190.25 C 134.08 187.12 138.02 185.45 141.64 183.47 C 145.41 181.48 147.80 177.80 150.44 174.60 C 153.70 174.41 156.95 174.12 160.21 174.00 C 161.30 171.74 162.26 169.42 163.21 167.09 Z" />
<path fill="#f5f5f5" opacity="1.00" d=" M 519.87 212.13 C 516.88 205.58 513.89 199.03 511.00 192.43 C 512.44 193.15 514.03 193.67 515.27 194.74 C 515.87 197.12 515.90 199.70 517.16 201.88 C 519.61 206.54 523.99 209.65 527.72 213.20 C 527.67 217.56 527.72 221.91 527.67 226.27 C 531.38 229.95 534.19 234.39 537.38 238.51 C 537.57 241.74 538.83 244.74 540.53 247.45 C 542.38 250.24 541.91 253.75 542.65 256.89 C 543.20 260.67 545.13 264.17 545.13 268.04 C 545.43 275.98 545.20 283.92 545.01 291.85 C 542.38 288.50 540.50 284.38 540.91 280.03 C 541.54 275.65 537.94 272.24 537.93 267.95 C 537.83 264.74 536.14 261.95 534.86 259.11 C 533.81 256.88 533.63 254.39 532.96 252.04 C 531.27 246.26 526.34 241.97 524.99 236.06 C 524.12 231.97 526.08 226.70 522.14 223.82 C 518.50 221.03 521.54 215.86 519.87 212.13 Z" />
<path fill="#d01b27" opacity="1.00" d=" M 586.76 258.14 C 587.57 258.14 589.18 258.13 589.99 258.12 C 589.94 267.29 590.15 276.47 589.88 285.64 C 588.83 285.56 587.79 285.49 586.76 285.43 C 586.77 276.33 586.77 267.24 586.76 258.14 Z" />
<path fill="#d01b27" opacity="1.00" d=" M 633.30 259.22 C 635.58 257.55 638.56 258.08 641.19 258.21 C 641.21 258.96 641.25 260.48 641.27 261.24 C 639.33 261.13 637.14 260.36 635.37 261.50 C 633.94 262.44 634.24 264.40 633.82 265.85 C 635.88 265.86 637.93 265.87 640.00 265.87 C 640.00 266.56 640.00 267.95 640.00 268.64 C 638.06 268.63 636.12 268.61 634.19 268.59 C 634.09 274.20 634.10 279.81 634.19 285.42 C 633.06 285.43 631.93 285.43 630.81 285.43 C 630.83 279.87 631.02 274.30 630.76 268.75 C 630.23 268.68 629.17 268.54 628.64 268.47 C 628.64 267.82 628.64 266.53 628.64 265.88 C 629.15 265.88 630.18 265.88 630.69 265.88 C 631.03 263.53 631.16 260.74 633.30 259.22 Z" />
<path fill="#d01b27" opacity="1.00" d=" M 600.89 285.14 C 593.21 282.07 593.54 269.06 601.12 266.07 C 604.62 264.72 609.38 265.12 611.69 268.40 C 613.31 270.58 613.16 273.42 613.32 275.99 C 608.39 276.02 603.45 275.97 598.52 276.03 C 599.00 278.35 599.54 281.09 601.93 282.23 C 605.52 284.22 609.65 282.59 612.98 280.86 C 612.88 282.10 612.80 283.34 612.72 284.59 C 608.94 285.83 604.71 286.74 600.89 285.14 M 598.48 273.45 C 602.39 273.53 606.31 273.51 610.24 273.47 C 609.84 271.14 608.83 268.32 606.08 268.09 C 602.38 267.13 599.24 270.01 598.48 273.45 Z" />
<path fill="#d01b27" opacity="1.00" d=" M 643.14 265.87 C 643.94 265.87 645.56 265.87 646.36 265.87 C 646.65 270.91 645.72 276.12 646.93 281.06 C 648.94 284.55 653.55 282.29 656.21 280.82 C 656.31 275.86 656.27 270.90 656.24 265.94 C 657.06 265.92 658.68 265.86 659.50 265.84 C 659.51 272.37 659.49 278.91 659.51 285.45 C 658.73 285.48 657.19 285.55 656.42 285.58 C 656.36 285.06 656.26 284.02 656.21 283.50 C 653.73 285.07 650.85 286.68 647.81 285.81 C 645.10 285.32 643.33 282.66 643.23 280.02 C 642.97 275.31 643.21 270.58 643.14 265.87 Z" />
<path fill="#ffffff" opacity="1.00" d=" M 598.48 273.45 C 599.24 270.01 602.38 267.13 606.08 268.09 C 608.83 268.32 609.84 271.14 610.24 273.47 C 606.31 273.51 602.39 273.53 598.48 273.45 Z" />
<path fill="#d01b27" opacity="1.00" d=" M 665.77 272.51 C 669.42 272.50 673.07 272.50 676.72 272.50 C 676.72 273.54 676.72 274.58 676.74 275.63 C 673.07 275.63 669.42 275.63 665.76 275.63 C 665.76 274.58 665.76 273.54 665.77 272.51 Z" />
<path fill="#ffffff" opacity="1.00" d=" M 49.54 280.06 C 50.64 278.48 52.19 277.30 53.57 275.99 C 53.54 288.03 54.32 300.10 53.39 312.13 C 51.13 328.59 52.72 345.24 52.12 361.79 C 52.10 362.30 52.07 363.34 52.05 363.86 C 54.59 366.71 57.94 369.28 58.77 373.21 C 59.65 377.46 60.84 381.64 61.74 385.89 C 62.83 392.81 62.89 399.88 64.23 406.78 C 65.63 412.71 69.80 417.53 71.36 423.42 C 72.36 427.23 72.59 431.20 73.66 435.00 C 76.05 443.42 80.05 451.40 81.29 460.14 C 82.00 465.24 83.33 470.23 84.77 475.18 C 84.08 475.29 82.70 475.51 82.01 475.62 C 81.55 472.74 81.21 469.80 80.05 467.10 C 75.32 456.31 69.17 446.20 62.22 436.72 C 61.28 435.27 59.93 433.90 59.91 432.07 C 59.34 424.51 59.81 416.74 57.46 409.42 C 56.37 405.94 54.33 402.74 53.95 399.05 C 53.46 393.09 54.19 387.09 53.63 381.14 C 52.26 377.45 50.28 373.97 49.49 370.07 C 49.19 366.39 49.16 362.69 49.17 359.00 C 49.20 336.34 49.15 313.69 49.19 291.03 C 49.32 287.37 49.11 283.69 49.54 280.06 Z" />
<path fill="#0d0d0d" opacity="1.00" d=" M 52.12 361.79 C 54.34 360.86 56.33 359.52 58.17 357.98 C 58.21 358.66 58.30 360.03 58.35 360.71 C 60.79 363.55 63.94 366.14 64.85 369.95 C 67.56 379.73 68.82 389.84 69.67 399.94 C 70.11 408.77 77.49 415.30 78.21 424.07 C 79.36 434.56 84.73 443.92 86.79 454.19 C 88.91 463.93 91.04 473.77 90.82 483.80 C 92.83 484.23 94.84 484.65 96.85 485.09 C 97.45 487.15 98.06 489.22 98.67 491.29 C 101.82 492.64 105.73 493.52 107.35 496.90 C 111.08 503.55 113.84 510.70 117.46 517.41 C 118.89 520.02 121.78 521.23 124.22 522.67 C 128.16 524.67 131.44 527.71 135.41 529.66 C 141.20 532.59 147.52 534.37 153.17 537.61 C 156.85 539.64 159.69 543.02 163.76 544.36 C 168.78 546.19 174.60 547.53 177.79 552.24 C 179.24 554.76 177.71 557.52 176.39 559.73 C 172.55 557.59 169.47 554.30 165.44 552.47 C 161.45 550.62 157.27 549.02 153.83 546.20 C 148.31 541.80 141.50 539.69 135.07 537.07 C 130.73 535.32 127.28 532.05 123.21 529.84 C 118.81 527.36 113.93 524.96 111.34 520.39 C 107.80 513.92 105.25 506.90 101.28 500.67 C 97.28 497.78 93.28 494.85 90.11 491.01 C 90.61 499.06 91.14 507.19 93.24 515.01 C 95.15 521.58 96.08 528.41 98.55 534.82 C 100.26 539.74 101.60 544.96 105.09 549.00 C 108.86 553.39 109.22 559.59 112.96 564.00 L 104.29 564.00 C 103.15 558.19 100.12 553.05 96.43 548.50 C 94.15 545.30 94.30 541.07 92.47 537.62 C 89.63 531.71 89.36 525.06 87.41 518.88 C 84.26 508.54 84.42 497.63 84.14 486.93 C 84.12 483.05 79.51 482.15 76.81 480.52 C 75.42 471.74 71.12 463.84 66.86 456.17 C 62.71 449.61 59.05 442.66 53.71 436.95 C 53.81 427.00 53.46 416.71 49.51 407.42 C 46.29 400.31 48.24 392.38 47.71 384.91 C 46.57 381.28 44.23 378.06 43.79 374.20 C 43.86 372.23 44.01 370.28 44.15 368.33 C 45.93 368.90 47.71 369.48 49.49 370.07 C 50.28 373.97 52.26 377.45 53.63 381.14 C 54.19 387.09 53.46 393.09 53.95 399.05 C 54.33 402.74 56.37 405.94 57.46 409.42 C 59.81 416.74 59.34 424.51 59.91 432.07 C 59.93 433.90 61.28 435.27 62.22 436.72 C 69.17 446.20 75.32 456.31 80.05 467.10 C 81.21 469.80 81.55 472.74 82.01 475.62 C 82.70 475.51 84.08 475.29 84.77 475.18 C 83.33 470.23 82.00 465.24 81.29 460.14 C 80.05 451.40 76.05 443.42 73.66 435.00 C 72.59 431.20 72.36 427.23 71.36 423.42 C 69.80 417.53 65.63 412.71 64.23 406.78 C 62.89 399.88 62.83 392.81 61.74 385.89 C 60.84 381.64 59.65 377.46 58.77 373.21 C 57.94 369.28 54.59 366.71 52.05 363.86 C 52.07 363.34 52.10 362.30 52.12 361.79 Z" />
<path fill="#050505" opacity="1.00" d=" M 332.88 394.81 C 341.27 393.09 349.97 393.29 358.44 394.31 C 368.60 396.72 379.02 400.00 386.97 407.06 C 389.96 409.75 394.83 409.52 397.14 413.08 C 397.85 418.48 397.83 424.01 397.24 429.43 C 394.88 435.43 389.58 440.07 383.60 442.32 C 382.11 442.87 380.73 443.66 379.52 444.68 C 373.55 449.46 367.06 453.53 360.56 457.54 C 354.40 461.28 350.54 467.67 344.65 471.75 C 342.09 473.53 339.03 474.47 336.56 476.41 C 334.09 478.34 331.67 480.34 328.97 481.92 C 328.82 483.42 328.67 484.92 328.54 486.43 C 324.62 484.62 320.41 483.46 316.09 483.24 C 310.41 482.58 304.27 483.97 299.05 481.04 C 294.34 478.42 288.78 477.15 285.22 472.82 C 283.12 472.94 281.02 473.07 278.92 473.22 C 276.13 468.27 278.51 462.67 279.29 457.51 C 283.27 451.73 287.57 446.09 290.48 439.65 C 292.20 436.54 291.51 432.82 292.74 429.55 C 295.74 420.76 302.88 413.77 304.23 404.34 C 310.75 403.18 316.59 399.83 323.11 398.67 C 326.61 398.01 329.34 395.36 332.88 394.81 M 329.07 401.55 C 329.26 402.71 328.95 404.10 329.91 405.02 C 332.35 407.82 333.75 411.27 335.22 414.64 C 345.34 410.49 355.98 407.75 365.99 403.32 C 354.57 397.35 341.22 399.56 329.07 401.55 M 315.07 408.38 C 313.45 408.42 311.83 408.47 310.21 408.51 C 307.40 418.12 300.76 425.93 297.22 435.22 C 300.63 433.38 304.19 431.72 307.22 429.25 C 314.02 423.65 322.28 420.35 330.21 416.71 C 328.54 413.68 327.02 410.58 325.28 407.60 C 323.89 404.77 320.19 405.97 317.69 405.49 C 316.81 406.44 315.94 407.41 315.07 408.38 M 373.32 405.91 C 370.88 407.65 368.40 409.41 365.53 410.36 C 345.65 417.20 324.81 423.00 307.68 435.69 C 305.13 437.48 302.15 438.61 299.84 440.74 C 294.06 445.86 290.84 453.06 286.04 459.00 C 284.00 460.94 285.03 463.92 284.79 466.41 C 290.89 467.36 294.89 472.66 300.64 474.48 C 309.25 478.45 319.33 478.13 328.19 475.20 C 331.37 472.68 334.49 469.98 338.32 468.47 C 347.46 464.82 352.10 455.23 360.61 450.65 C 368.29 446.57 374.60 440.41 382.25 436.30 C 385.00 434.76 388.48 433.95 390.09 430.97 C 392.45 426.54 391.55 421.35 391.57 416.55 C 385.00 413.78 380.48 407.45 373.32 405.91 Z" />
<path fill="#ffffff" opacity="1.00" d=" M 329.07 401.55 C 341.22 399.56 354.57 397.35 365.99 403.32 C 355.98 407.75 345.34 410.49 335.22 414.64 C 333.75 411.27 332.35 407.82 329.91 405.02 C 328.95 404.10 329.26 402.71 329.07 401.55 Z" />
<path fill="#ffffff" opacity="1.00" d=" M 315.07 408.38 C 315.94 407.41 316.81 406.44 317.69 405.49 C 320.19 405.97 323.89 404.77 325.28 407.60 C 327.02 410.58 328.54 413.68 330.21 416.71 C 322.28 420.35 314.02 423.65 307.22 429.25 C 304.19 431.72 300.63 433.38 297.22 435.22 C 300.76 425.93 307.40 418.12 310.21 408.51 C 311.83 408.47 313.45 408.42 315.07 408.38 Z" />
<path fill="#ffffff" opacity="1.00" d=" M 373.32 405.91 C 380.48 407.45 385.00 413.78 391.57 416.55 C 391.55 421.35 392.45 426.54 390.09 430.97 C 388.48 433.95 385.00 434.76 382.25 436.30 C 374.60 440.41 368.29 446.57 360.61 450.65 C 352.10 455.23 347.46 464.82 338.32 468.47 C 334.49 469.98 331.37 472.68 328.19 475.20 C 319.33 478.13 309.25 478.45 300.64 474.48 C 294.89 472.66 290.89 467.36 284.79 466.41 C 285.03 463.92 284.00 460.94 286.04 459.00 C 290.84 453.06 294.06 445.86 299.84 440.74 C 302.15 438.61 305.13 437.48 307.68 435.69 C 324.81 423.00 345.65 417.20 365.53 410.36 C 368.40 409.41 370.88 407.65 373.32 405.91 Z" />
<path fill="#f5f5f5" opacity="1.00" d=" M 544.75 474.25 C 544.50 472.06 544.78 468.72 547.58 468.51 C 550.87 470.02 548.01 475.67 544.75 474.25 Z" />
</svg>
