<?xml version="1.0" encoding="UTF-8" ?>
<!DOCTYPE svg PUBLIC "-//W3C//DTD SVG 1.1//EN" "http://www.w3.org/Graphics/SVG/1.1/DTD/svg11.dtd">
<svg width="303pt" height="234pt" viewBox="0 0 303 234" version="1.1" xmlns="http://www.w3.org/2000/svg">
<path fill="#ffffff" opacity="1.00" d=" M 0.00 0.00 L 303.00 0.00 L 303.00 234.00 L 0.00 234.00 L 0.00 0.00 M 74.25 5.19 C 69.74 6.89 64.50 6.72 60.56 9.79 C 58.50 10.16 56.30 10.37 54.53 11.60 C 51.75 13.10 50.76 16.45 48.12 18.13 C 42.83 21.35 40.61 28.04 40.98 33.99 C 41.32 38.55 40.10 43.44 42.17 47.72 C 43.23 49.51 42.64 51.81 43.87 53.52 C 43.96 54.83 44.04 56.14 44.15 57.45 C 44.92 59.09 45.33 60.87 45.98 62.56 C 46.60 61.84 47.20 61.11 47.81 60.38 C 48.62 61.15 49.34 62.02 49.94 62.97 C 51.16 60.48 50.43 57.78 50.97 55.17 C 54.40 54.77 57.42 52.80 60.92 52.60 C 64.59 50.98 68.46 49.89 72.13 48.26 C 76.72 47.44 81.35 46.84 85.94 46.04 C 92.31 45.94 98.68 46.00 105.05 46.01 C 109.46 45.99 112.55 49.43 115.92 51.75 C 117.36 51.75 118.80 51.75 120.24 51.75 C 120.35 51.26 120.57 50.29 120.68 49.80 C 120.88 52.14 120.96 54.49 121.22 56.83 C 123.02 58.93 126.23 57.38 128.55 58.54 C 131.00 59.81 132.70 61.98 133.99 64.36 C 134.02 65.01 134.09 66.31 134.12 66.95 C 135.40 67.68 136.90 68.12 137.93 69.22 C 138.08 71.20 138.01 73.18 137.98 75.17 C 139.71 73.69 141.43 72.15 143.44 71.05 C 143.98 71.04 145.06 71.01 145.60 70.99 C 146.73 72.75 147.74 74.57 148.80 76.37 C 150.07 80.70 150.18 85.17 150.00 89.65 C 149.05 91.18 148.04 92.67 146.87 94.04 C 144.04 93.97 141.14 94.27 138.42 93.31 C 139.97 96.60 141.33 99.98 142.24 103.51 C 142.50 103.98 143.01 104.94 143.27 105.42 C 142.35 106.76 141.39 108.08 140.35 109.33 C 140.16 109.97 139.79 111.26 139.60 111.90 C 138.34 106.73 139.30 101.31 138.98 96.04 L 137.92 96.35 C 137.99 95.39 138.13 93.47 138.20 92.50 C 137.89 92.90 137.27 93.68 136.96 94.08 C 138.96 101.03 137.67 108.40 137.93 115.55 C 136.42 119.02 133.99 122.04 132.68 125.57 C 130.71 130.45 128.88 135.49 125.84 139.82 C 122.57 143.39 120.99 148.12 117.59 151.59 C 115.04 153.74 112.21 155.56 109.67 157.74 C 108.35 158.03 107.11 158.54 106.01 159.34 C 105.97 158.08 105.92 156.82 105.88 155.57 C 104.12 153.82 103.22 151.22 101.02 149.93 C 96.59 151.55 92.23 154.48 90.61 159.22 C 88.47 158.99 86.32 159.03 84.18 158.99 C 80.87 156.25 79.88 151.93 77.30 148.66 C 76.95 147.47 76.64 146.23 75.70 145.36 C 73.34 142.88 72.51 139.45 71.58 136.26 C 71.15 135.96 70.29 135.37 69.86 135.07 C 70.26 136.03 71.08 137.93 71.48 138.88 C 69.94 137.65 68.06 136.72 67.14 134.88 C 63.58 129.46 58.31 124.87 56.64 118.39 C 56.29 118.00 55.57 117.21 55.21 116.82 C 54.93 115.69 54.59 114.59 54.19 113.50 C 53.96 111.80 54.19 109.92 53.08 108.47 C 52.90 105.47 53.38 102.37 52.32 99.49 C 51.30 95.55 52.95 91.23 51.16 87.45 C 51.05 86.08 50.96 84.71 50.83 83.34 C 51.49 83.01 52.80 82.37 53.46 82.05 C 58.46 81.55 63.21 83.86 68.24 82.86 C 68.22 80.13 65.25 79.48 63.12 79.05 C 59.14 78.85 55.00 78.71 51.28 80.39 C 51.14 80.93 50.84 82.01 50.70 82.55 L 50.00 82.54 C 50.20 78.08 49.51 73.53 50.48 69.13 C 50.06 68.86 49.23 68.32 48.82 68.05 C 48.99 67.40 49.34 66.11 49.51 65.47 C 49.28 63.81 48.32 62.55 46.66 62.12 C 46.90 63.20 47.37 65.38 47.60 66.46 C 47.99 67.53 48.48 68.54 49.06 69.52 C 49.04 71.02 49.00 72.52 48.96 74.03 C 48.15 73.99 46.53 73.92 45.72 73.89 C 41.89 77.90 43.14 83.93 43.06 88.96 C 43.25 89.34 43.63 90.12 43.82 90.50 C 43.91 90.99 44.08 91.97 44.16 92.46 C 46.12 95.00 47.12 99.54 51.10 99.15 C 51.71 100.32 52.12 101.58 51.99 102.92 C 51.85 107.17 52.49 111.53 53.84 115.51 C 53.91 115.99 54.05 116.96 54.13 117.44 C 56.49 120.07 57.60 123.49 59.34 126.51 C 60.67 128.28 61.56 130.48 63.68 131.49 C 65.01 131.99 64.88 133.45 65.19 134.60 C 68.74 137.79 71.50 141.73 74.62 145.32 C 76.62 149.53 79.20 153.43 81.26 157.61 C 81.99 158.42 82.73 159.22 83.49 160.00 C 85.75 160.03 88.02 160.03 90.27 159.75 C 87.76 163.87 89.56 168.97 88.94 173.54 C 87.47 176.65 85.70 179.62 83.16 181.98 C 81.38 186.01 78.71 189.51 75.91 192.88 C 72.97 196.43 67.83 197.46 65.83 201.84 C 60.72 205.66 55.57 209.51 51.41 214.40 C 50.89 216.39 50.38 218.37 49.97 220.39 C 51.33 219.00 51.83 217.11 52.26 215.28 C 52.91 214.28 53.71 213.37 54.50 212.48 C 56.61 210.95 58.11 208.64 60.58 207.62 C 61.87 205.52 64.20 204.50 66.20 203.22 C 67.50 200.92 69.06 198.79 71.52 197.65 C 72.56 197.00 73.59 196.34 74.62 195.69 C 77.68 193.02 79.82 189.54 82.42 186.45 C 82.61 185.92 83.00 184.86 83.19 184.33 C 84.46 181.47 87.28 179.66 88.44 176.75 L 89.13 176.72 C 89.42 179.36 87.48 181.93 88.71 184.48 C 89.47 188.26 89.07 192.19 88.07 195.89 C 88.00 204.08 87.81 212.29 88.20 220.47 C 88.37 220.10 88.72 219.36 88.89 218.99 C 89.51 208.81 87.92 198.46 90.35 188.45 C 90.19 186.29 89.61 184.20 89.30 182.07 C 89.73 179.54 90.29 177.00 90.22 174.42 C 89.95 173.39 90.16 172.41 90.60 171.47 C 89.41 168.51 90.09 165.16 90.10 162.04 C 90.94 159.34 93.63 157.55 94.33 154.74 L 95.06 154.95 C 95.04 155.74 95.02 157.30 95.01 158.08 C 96.05 159.27 97.04 160.53 97.41 162.10 C 98.83 161.91 100.67 162.29 101.36 160.67 C 102.30 160.78 104.16 161.01 105.10 161.13 C 104.14 162.75 103.39 164.49 102.72 166.25 C 105.56 165.51 107.88 163.70 110.31 162.16 C 114.37 160.93 118.52 159.91 122.43 158.24 C 124.50 157.73 126.51 157.03 128.48 156.23 C 129.11 156.10 130.36 155.85 130.99 155.73 C 131.99 156.59 133.00 157.44 134.01 158.30 C 134.52 160.58 132.63 164.51 135.53 165.40 C 132.97 167.89 129.67 169.29 126.54 170.90 C 126.02 170.95 124.98 171.07 124.46 171.12 C 124.06 171.54 123.26 172.39 122.86 172.81 C 119.08 173.49 115.38 175.03 112.90 178.07 C 115.00 177.78 116.57 176.20 118.32 175.14 C 119.47 175.07 120.53 174.74 121.51 174.15 C 122.00 174.09 122.99 173.97 123.49 173.91 C 124.46 172.50 125.88 171.76 127.58 171.66 C 128.53 171.24 129.47 170.80 130.40 170.34 C 131.84 169.31 133.34 168.36 134.92 167.56 C 137.64 169.95 138.27 174.22 138.05 177.79 C 136.14 179.69 133.98 181.31 131.69 182.74 C 127.21 184.32 123.45 187.59 118.71 188.61 C 122.35 189.84 125.12 186.18 128.62 185.66 C 129.02 185.25 129.83 184.43 130.23 184.02 C 130.79 184.01 131.92 183.98 132.49 183.96 C 133.54 182.06 135.42 181.66 137.45 182.00 C 138.29 183.88 141.64 186.06 138.89 187.92 C 135.80 190.16 132.99 192.75 130.00 195.13 C 126.80 196.76 125.88 200.50 124.66 203.58 C 123.77 206.21 122.74 208.82 122.92 211.65 C 121.67 214.43 119.49 216.71 116.64 217.84 C 113.06 218.60 109.52 219.47 105.82 219.40 C 109.81 220.85 114.00 219.14 118.01 218.64 L 118.05 219.98 L 118.96 220.02 C 118.83 219.65 118.57 218.90 118.45 218.52 C 120.41 217.15 122.15 215.49 123.48 213.48 C 124.07 211.72 123.92 209.84 124.16 208.03 C 124.73 206.10 125.77 204.33 126.20 202.35 C 126.75 201.43 127.24 200.48 127.66 199.49 C 128.79 196.13 133.05 195.60 134.40 192.33 C 136.84 190.98 139.71 189.72 140.94 187.03 C 141.79 183.96 138.37 182.38 136.61 180.51 C 137.53 179.48 139.31 178.74 139.01 177.05 C 139.34 173.29 138.10 169.44 135.82 166.46 C 137.66 163.82 139.28 160.91 139.31 157.60 C 139.01 155.64 138.98 153.65 139.04 151.68 C 136.16 148.51 130.92 149.85 127.61 151.74 C 124.51 152.58 121.58 154.05 119.22 156.25 C 117.82 157.59 115.28 157.67 114.71 159.76 C 110.99 160.55 107.64 162.31 104.63 164.62 C 105.04 163.52 105.85 161.32 106.26 160.21 C 107.98 159.29 109.88 158.76 111.55 157.74 C 113.99 156.15 116.04 153.96 118.64 152.66 C 119.22 150.96 120.46 149.74 121.77 148.57 C 122.59 143.58 127.47 140.88 129.38 136.42 C 130.27 132.84 132.25 129.67 133.87 126.40 C 133.92 125.85 134.01 124.74 134.05 124.18 C 134.48 123.80 135.32 123.03 135.74 122.65 C 136.58 120.46 137.59 118.37 138.91 116.42 C 138.95 115.31 139.00 114.20 139.07 113.09 C 139.35 112.94 139.92 112.65 140.21 112.50 C 141.18 109.91 142.97 107.79 144.58 105.59 C 143.79 103.92 143.05 102.24 142.25 100.58 C 141.62 98.74 141.14 96.87 140.56 95.02 C 142.88 94.99 145.20 95.10 147.51 94.91 C 149.11 93.45 149.83 91.29 151.32 89.72 C 150.49 86.03 151.80 82.02 150.25 78.51 C 150.23 75.22 147.87 72.82 146.48 70.04 C 145.29 70.03 144.11 70.01 142.93 70.01 C 141.72 71.00 140.45 71.92 139.05 72.64 C 138.37 69.63 139.97 66.85 139.96 63.94 C 138.37 59.09 139.09 53.91 139.06 48.89 C 139.71 46.57 140.50 44.18 139.05 41.97 C 140.66 36.78 139.82 31.29 139.99 25.94 C 140.17 21.41 136.28 18.40 133.88 15.04 C 132.42 12.71 129.87 11.65 127.41 10.72 C 123.01 7.65 117.78 6.14 112.48 5.70 C 105.26 3.05 97.52 4.21 90.00 4.04 C 84.76 4.32 79.26 3.18 74.25 5.19 M 109.46 73.08 C 108.20 73.69 106.89 74.19 105.61 74.75 C 101.69 75.90 97.08 77.83 95.82 82.11 C 98.89 81.19 101.71 79.40 104.97 79.11 C 106.82 78.83 108.93 79.36 110.53 78.09 C 113.03 78.00 115.54 78.06 118.03 77.78 C 117.74 75.87 116.13 74.56 114.87 73.23 C 113.10 72.81 111.26 73.05 109.46 73.08 M 140.12 76.73 C 140.09 77.42 140.01 78.82 139.98 79.52 C 141.16 80.68 142.34 81.86 143.54 83.01 C 142.19 85.78 140.18 88.15 138.69 90.83 C 139.19 90.57 140.18 90.06 140.68 89.80 C 141.86 87.34 143.92 85.42 145.04 82.91 C 142.64 81.54 141.21 79.20 140.12 76.73 M 106.50 85.88 C 104.97 85.95 103.43 85.96 101.91 86.10 C 99.82 87.02 98.41 89.27 99.21 91.57 C 102.80 93.81 107.16 92.91 111.16 92.92 C 114.47 91.83 116.93 88.63 117.12 85.14 C 113.62 85.24 109.76 84.29 106.50 85.88 M 88.37 85.72 C 88.03 88.16 87.74 90.62 87.03 92.99 C 87.89 95.09 87.34 98.17 89.55 99.41 C 89.39 97.13 88.55 94.99 88.09 92.77 C 88.68 90.45 89.62 88.00 88.37 85.72 M 57.47 89.38 C 56.72 90.18 54.09 89.95 55.27 91.54 C 57.97 94.92 62.66 96.69 66.95 95.91 C 69.02 95.05 70.75 93.54 72.80 92.62 C 73.08 91.46 73.31 90.30 73.46 89.11 C 73.14 88.83 72.50 88.26 72.18 87.97 C 67.24 88.31 62.12 87.23 57.47 89.38 M 75.79 98.29 C 76.12 95.44 76.13 92.55 75.77 89.70 C 74.57 92.37 74.55 95.63 75.79 98.29 M 73.81 102.72 C 71.49 105.61 72.01 109.28 71.95 112.72 C 70.78 113.99 69.81 115.43 69.18 117.05 C 70.35 115.89 71.51 114.71 72.64 113.51 C 73.08 114.18 73.97 115.53 74.42 116.20 C 79.14 114.61 83.98 116.76 88.82 115.94 C 89.63 114.87 90.45 113.81 91.27 112.75 C 94.22 112.79 97.09 114.84 100.01 113.68 C 101.40 112.44 100.84 110.36 101.14 108.73 C 102.59 108.91 103.68 109.80 104.61 110.86 C 105.23 110.91 106.46 111.01 107.07 111.06 C 105.07 109.54 103.03 107.69 100.32 107.99 C 98.34 106.11 96.54 103.80 93.81 103.00 C 92.36 102.51 91.86 104.40 90.91 105.06 C 92.05 104.70 93.33 103.89 94.55 104.26 C 96.54 105.76 98.19 107.67 99.98 109.39 C 99.99 110.59 99.99 111.79 99.98 113.00 C 98.82 112.97 97.66 112.95 96.50 112.91 C 94.00 111.27 89.30 111.30 88.71 114.95 C 85.98 115.03 83.24 115.04 80.50 114.92 C 78.96 112.99 77.18 114.97 75.34 114.95 C 74.54 114.24 73.75 113.53 72.96 112.81 C 72.98 110.71 73.01 108.61 73.09 106.51 C 73.99 105.40 73.93 104.04 73.81 102.72 M 144.71 103.28 C 148.44 105.07 152.81 102.98 156.57 104.62 C 160.66 105.78 163.31 109.46 167.19 110.95 C 169.51 110.72 171.56 109.25 173.91 109.08 C 177.94 109.12 181.47 106.66 185.53 106.82 C 182.78 110.44 181.82 115.16 178.54 118.41 C 176.99 120.63 175.26 122.88 174.77 125.61 C 173.62 128.34 171.50 130.84 171.97 134.01 C 172.28 136.48 171.15 139.48 172.98 141.53 C 173.50 144.07 171.97 146.44 172.09 148.88 C 173.65 151.50 172.95 154.63 172.88 157.51 C 171.25 160.04 172.26 163.20 171.99 166.02 C 172.29 169.15 171.19 172.67 172.92 175.50 C 173.09 178.68 172.85 181.88 173.11 185.06 C 173.93 187.06 175.60 188.52 176.78 190.30 C 176.84 191.58 177.28 192.69 178.12 193.64 C 175.95 198.19 170.96 200.65 168.42 205.00 C 168.54 205.89 168.79 207.65 168.91 208.54 C 168.26 207.74 167.65 206.92 167.08 206.07 C 165.58 212.00 159.35 214.85 157.01 220.36 C 159.74 219.38 160.49 216.33 162.65 214.63 C 164.70 212.80 166.15 210.47 167.95 208.43 C 168.02 210.10 167.97 211.79 167.94 213.48 C 166.38 215.47 167.05 218.17 167.18 220.48 C 168.85 216.67 168.24 212.16 169.84 208.41 C 169.91 207.91 170.04 206.91 170.11 206.42 C 171.66 202.56 174.50 199.54 177.46 196.72 C 177.98 196.82 179.03 197.03 179.55 197.13 C 179.14 194.56 178.47 192.02 177.70 189.54 C 176.70 188.33 175.88 186.99 175.08 185.65 C 175.57 183.38 173.46 181.01 174.87 178.98 C 177.26 174.99 181.49 172.68 185.56 170.72 C 187.11 169.97 188.45 168.92 189.56 167.60 C 189.89 168.02 190.56 168.87 190.89 169.30 C 190.88 170.90 191.27 172.40 191.96 173.84 C 189.55 176.23 187.09 179.20 183.36 179.18 C 184.44 179.69 185.53 180.17 186.63 180.67 C 185.99 181.60 183.24 181.45 183.29 182.73 C 183.83 182.86 184.93 183.11 185.48 183.24 C 185.87 182.73 186.66 181.70 187.06 181.18 C 187.90 180.88 189.60 180.26 190.45 179.95 C 189.85 179.48 189.25 179.01 188.65 178.55 C 189.56 177.64 190.51 176.77 191.51 175.94 L 192.29 176.09 C 192.05 176.73 191.56 178.01 191.31 178.65 C 193.30 176.22 196.11 175.69 199.06 175.90 C 199.87 177.48 200.05 179.23 200.12 180.98 C 198.78 181.02 197.44 181.06 196.11 181.12 C 195.97 183.99 196.02 186.86 195.96 189.74 C 194.85 190.63 193.73 191.53 192.73 192.55 C 192.14 192.91 190.96 193.62 190.37 193.98 C 189.22 192.85 188.05 191.75 186.86 190.66 C 187.08 189.55 187.32 188.45 187.45 187.33 C 186.29 186.59 185.18 185.80 184.02 185.09 C 182.17 184.77 180.44 185.88 178.67 186.26 C 179.04 185.72 179.79 184.65 180.17 184.11 C 181.39 184.11 182.34 183.52 183.02 182.36 C 180.21 182.50 177.46 183.86 177.84 187.01 C 179.44 186.78 181.57 187.60 182.62 185.85 C 184.01 186.21 184.93 187.25 185.88 188.27 C 185.87 191.81 188.57 194.55 191.91 195.29 C 191.83 197.62 192.38 199.87 193.26 202.01 C 195.17 202.01 197.09 202.06 199.00 201.92 C 200.64 201.09 201.70 199.44 203.02 198.21 C 203.03 197.29 203.03 195.44 203.03 194.52 C 205.76 197.26 206.84 201.11 208.81 204.37 C 210.18 208.46 212.04 212.39 213.23 216.54 C 213.91 217.86 214.57 219.21 215.46 220.42 C 215.29 217.94 214.35 215.72 213.30 213.52 C 212.70 211.85 212.09 210.19 211.30 208.60 C 210.90 207.62 210.60 206.62 210.40 205.59 C 209.33 201.98 206.35 199.26 205.66 195.50 C 204.70 194.31 203.91 192.99 203.16 191.66 C 202.94 189.37 201.70 187.42 200.29 185.67 C 199.96 184.46 199.47 183.30 199.02 182.14 C 202.79 181.91 200.56 177.09 199.63 174.96 C 197.49 174.99 195.35 175.06 193.22 175.22 C 193.02 173.96 192.72 172.72 192.30 171.52 C 191.98 169.35 190.46 167.14 191.63 165.00 C 191.31 165.03 190.68 165.09 190.37 165.12 C 189.65 163.62 188.91 162.13 188.29 160.59 C 187.86 159.60 187.52 158.58 187.28 157.53 C 186.78 153.91 184.46 150.72 184.96 146.94 C 183.44 141.10 184.11 135.00 183.99 129.00 C 183.81 127.04 184.64 125.24 185.31 123.45 C 185.70 122.44 185.98 121.40 186.16 120.34 C 188.57 114.88 194.22 112.39 198.15 108.31 C 205.35 103.07 214.57 105.77 222.77 104.77 C 225.35 105.86 227.50 107.67 229.41 109.68 C 232.50 111.52 235.37 113.70 238.55 115.38 C 239.66 115.59 240.75 115.87 241.83 116.21 C 243.35 117.75 244.87 119.27 246.40 120.79 C 249.34 121.01 251.08 123.61 253.23 125.29 C 253.12 122.39 249.93 121.61 248.00 120.13 C 245.12 118.77 243.79 115.12 240.44 114.69 C 239.36 114.40 238.30 114.07 237.25 113.70 C 232.48 110.69 228.19 107.06 223.73 103.63 C 216.90 104.79 209.81 102.91 203.11 104.96 C 199.61 105.48 195.66 104.01 192.49 105.92 C 188.52 106.25 184.44 105.44 180.57 106.62 C 176.26 108.01 171.61 108.12 167.48 110.13 C 163.60 107.37 159.81 104.08 155.05 103.03 C 151.61 102.96 148.14 102.82 144.71 103.28 M 111.02 115.85 C 112.83 118.51 115.72 120.30 116.99 123.35 C 117.04 124.04 117.13 125.42 117.18 126.11 C 117.96 127.82 118.13 129.69 118.22 131.55 C 118.87 132.43 119.52 133.32 120.17 134.21 C 119.53 131.14 118.50 128.15 118.04 125.04 C 117.86 120.91 114.61 117.47 111.02 115.85 M 89.73 118.36 C 90.31 118.66 91.47 119.26 92.05 119.57 C 91.20 119.46 89.52 119.25 88.68 119.15 L 89.31 120.68 C 93.59 121.80 98.15 120.52 102.55 121.06 C 104.13 121.64 105.18 122.91 106.45 123.94 C 102.67 124.05 98.83 124.38 95.16 123.25 C 90.20 124.99 84.79 123.03 79.81 124.80 C 77.55 124.82 75.73 126.25 75.79 128.61 C 77.23 128.97 78.49 129.65 79.57 130.67 C 79.07 130.84 78.07 131.18 77.57 131.34 C 79.24 134.38 78.94 137.78 79.13 141.10 C 80.07 143.61 81.60 145.81 83.27 147.88 C 87.77 149.58 92.85 149.30 97.51 148.52 C 99.78 146.45 102.11 144.41 104.70 142.75 C 108.59 138.38 106.08 132.43 107.48 127.31 C 107.41 124.10 111.07 125.64 112.28 123.46 C 110.77 122.03 109.33 120.43 107.52 119.38 C 105.29 118.76 103.10 118.05 100.95 117.20 C 97.18 116.47 93.34 117.26 89.73 118.36 M 74.43 119.20 C 72.94 120.73 71.19 122.12 70.06 123.94 C 69.92 125.93 70.00 127.92 70.06 129.92 C 70.78 129.93 72.20 129.94 72.92 129.95 C 72.95 128.74 72.98 127.53 73.01 126.32 C 74.10 125.25 75.18 124.19 76.29 123.15 C 77.38 123.01 78.45 122.75 79.49 122.38 C 81.99 122.01 84.55 121.97 86.78 120.62 C 86.46 120.01 85.81 118.79 85.48 118.18 C 81.73 117.31 78.11 118.65 74.43 119.20 M 63.95 127.86 C 64.38 127.91 65.23 128.02 65.66 128.07 C 65.52 127.69 65.24 126.93 65.10 126.55 C 65.67 125.17 65.91 123.69 66.20 122.24 C 66.95 121.21 67.66 120.15 68.24 119.01 C 64.68 120.59 64.84 124.64 63.95 127.86 M 116.31 141.48 C 115.87 143.21 115.39 144.94 114.82 146.64 C 113.98 148.42 113.11 150.18 112.32 151.99 C 112.63 151.99 113.25 152.00 113.56 152.00 C 115.09 147.49 117.24 143.18 118.63 138.59 C 117.66 139.37 116.86 140.35 116.31 141.48 M 175.60 183.79 C 177.46 182.40 179.70 182.24 181.83 181.68 C 180.31 179.79 176.43 181.64 175.60 183.79 M 200.38 219.20 C 200.66 220.49 201.41 220.69 202.62 219.79 C 202.33 218.50 201.59 218.31 200.38 219.20 Z" />
<path fill="#000000" opacity="1.00" d=" M 74.25 5.19 C 79.26 3.18 84.76 4.32 90.00 4.04 C 97.52 4.21 105.26 3.05 112.48 5.70 C 117.78 6.14 123.01 7.65 127.41 10.72 C 129.87 11.65 132.42 12.71 133.88 15.04 C 136.28 18.40 140.17 21.41 139.99 25.94 C 139.82 31.29 140.66 36.78 139.05 41.97 C 140.50 44.18 139.71 46.57 139.06 48.89 C 139.09 53.91 138.37 59.09 139.96 63.94 C 139.97 66.85 138.37 69.63 139.05 72.64 C 140.45 71.92 141.72 71.00 142.93 70.01 C 144.11 70.01 145.29 70.03 146.48 70.04 C 147.87 72.82 150.23 75.22 150.25 78.51 C 151.80 82.02 150.49 86.03 151.32 89.72 C 149.83 91.29 149.11 93.45 147.51 94.91 C 145.20 95.10 142.88 94.99 140.56 95.02 C 141.14 96.87 141.62 98.74 142.25 100.58 C 143.05 102.24 143.79 103.92 144.58 105.59 C 142.97 107.79 141.18 109.91 140.21 112.50 C 139.92 112.65 139.35 112.94 139.07 113.09 C 139.00 114.20 138.95 115.31 138.91 116.42 C 137.59 118.37 136.58 120.46 135.74 122.65 C 135.32 123.03 134.48 123.80 134.05 124.18 C 134.01 124.74 133.92 125.85 133.87 126.40 C 132.25 129.67 130.27 132.84 129.38 136.42 C 127.47 140.88 122.59 143.58 121.77 148.57 C 120.46 149.74 119.22 150.96 118.64 152.66 C 116.04 153.96 113.99 156.15 111.55 157.74 C 109.88 158.76 107.98 159.29 106.26 160.21 C 105.85 161.32 105.04 163.52 104.63 164.62 C 107.64 162.31 110.99 160.55 114.71 159.76 C 115.28 157.67 117.82 157.59 119.22 156.25 C 121.58 154.05 124.51 152.58 127.61 151.74 C 130.92 149.85 136.16 148.51 139.04 151.68 C 138.98 153.65 139.01 155.64 139.31 157.60 C 139.28 160.91 137.66 163.82 135.82 166.46 C 138.10 169.44 139.34 173.29 139.01 177.05 C 139.31 178.74 137.53 179.48 136.61 180.51 C 138.37 182.38 141.79 183.96 140.94 187.03 C 139.71 189.72 136.84 190.98 134.40 192.33 C 133.05 195.60 128.79 196.13 127.66 199.49 C 127.24 200.48 126.75 201.43 126.20 202.35 C 125.77 204.33 124.73 206.10 124.16 208.03 C 123.92 209.84 124.07 211.72 123.48 213.48 C 122.15 215.49 120.41 217.15 118.45 218.52 C 118.57 218.90 118.83 219.65 118.96 220.02 L 118.05 219.98 L 118.01 218.64 C 114.00 219.14 109.81 220.85 105.82 219.40 C 109.52 219.47 113.06 218.60 116.64 217.84 C 119.49 216.71 121.67 214.43 122.92 211.65 C 122.74 208.82 123.77 206.21 124.66 203.58 C 125.88 200.50 126.80 196.76 130.00 195.13 C 132.99 192.75 135.80 190.16 138.89 187.92 C 141.64 186.06 138.29 183.88 137.45 182.00 C 135.42 181.66 133.54 182.06 132.49 183.96 C 131.92 183.98 130.79 184.01 130.23 184.02 C 129.83 184.43 129.02 185.25 128.62 185.66 C 125.12 186.18 122.35 189.84 118.71 188.61 C 123.45 187.59 127.21 184.32 131.69 182.74 C 133.98 181.31 136.14 179.69 138.05 177.79 C 138.27 174.22 137.64 169.95 134.92 167.56 C 133.34 168.36 131.84 169.31 130.40 170.34 C 129.47 170.80 128.53 171.24 127.58 171.66 C 125.88 171.76 124.46 172.50 123.49 173.91 C 122.99 173.97 122.00 174.09 121.51 174.15 C 120.53 174.74 119.47 175.07 118.32 175.14 C 116.57 176.20 115.00 177.78 112.90 178.07 C 115.38 175.03 119.08 173.49 122.86 172.81 C 123.26 172.39 124.06 171.54 124.46 171.12 C 124.98 171.07 126.02 170.95 126.54 170.90 C 129.67 169.29 132.97 167.89 135.53 165.40 C 132.63 164.51 134.52 160.58 134.01 158.30 C 133.00 157.44 131.99 156.59 130.99 155.73 C 130.36 155.85 129.11 156.10 128.48 156.23 C 126.51 157.03 124.50 157.73 122.43 158.24 C 118.52 159.91 114.37 160.93 110.31 162.16 C 107.88 163.70 105.56 165.51 102.72 166.25 C 103.39 164.49 104.14 162.75 105.10 161.13 C 104.16 161.01 102.30 160.78 101.36 160.67 C 100.67 162.29 98.83 161.91 97.41 162.10 C 97.04 160.53 96.05 159.27 95.01 158.08 C 95.02 157.30 95.04 155.74 95.06 154.95 C 98.33 154.64 100.01 157.92 101.96 159.99 C 102.74 159.99 104.31 160.00 105.10 160.00 C 105.04 158.73 104.99 157.46 104.93 156.20 C 104.56 155.81 103.80 155.04 103.43 154.66 C 102.69 153.31 101.72 152.11 100.78 150.90 C 98.73 152.08 96.82 153.50 94.70 154.55 L 95.06 154.95 L 94.33 154.74 C 93.63 157.55 90.94 159.34 90.10 162.04 C 90.09 165.16 89.41 168.51 90.60 171.47 C 90.16 172.41 89.95 173.39 90.22 174.42 C 90.29 177.00 89.73 179.54 89.30 182.07 C 89.61 184.20 90.19 186.29 90.35 188.45 C 87.92 198.46 89.51 208.81 88.89 218.99 C 88.72 219.36 88.37 220.10 88.20 220.47 C 87.81 212.29 88.00 204.08 88.07 195.89 C 89.07 192.19 89.47 188.26 88.71 184.48 C 87.48 181.93 89.42 179.36 89.13 176.72 L 88.44 176.75 C 87.28 179.66 84.46 181.47 83.19 184.33 C 83.00 184.86 82.61 185.92 82.42 186.45 C 79.82 189.54 77.68 193.02 74.62 195.69 C 73.59 196.34 72.56 197.00 71.52 197.65 C 69.06 198.79 67.50 200.92 66.20 203.22 C 64.20 204.50 61.87 205.52 60.58 207.62 C 58.11 208.64 56.61 210.95 54.50 212.48 C 53.71 213.37 52.91 214.28 52.26 215.28 C 51.83 217.11 51.33 219.00 49.97 220.39 C 50.38 218.37 50.89 216.39 51.41 214.40 C 55.57 209.51 60.72 205.66 65.83 201.84 C 67.83 197.46 72.97 196.43 75.91 192.88 C 78.71 189.51 81.38 186.01 83.16 181.98 C 85.70 179.62 87.47 176.65 88.94 173.54 C 89.56 168.97 87.76 163.87 90.27 159.75 C 88.02 160.03 85.75 160.03 83.49 160.00 C 82.73 159.22 81.99 158.42 81.26 157.61 C 79.20 153.43 76.62 149.53 74.62 145.32 C 71.50 141.73 68.74 137.79 65.19 134.60 C 64.88 133.45 65.01 131.99 63.68 131.49 C 61.56 130.48 60.67 128.28 59.34 126.51 C 57.60 123.49 56.49 120.07 54.13 117.44 C 54.05 116.96 53.91 115.99 53.84 115.51 C 52.49 111.53 51.85 107.17 51.99 102.92 C 52.12 101.58 51.71 100.32 51.10 99.15 C 47.12 99.54 46.12 95.00 44.16 92.46 C 44.08 91.97 43.91 90.99 43.82 90.50 C 43.63 90.12 43.25 89.34 43.06 88.96 C 43.14 83.93 41.89 77.90 45.72 73.89 C 46.53 73.92 48.15 73.99 48.96 74.03 C 49.00 72.52 49.04 71.02 49.06 69.52 C 48.48 68.54 47.99 67.53 47.60 66.46 C 47.37 65.38 46.90 63.20 46.66 62.12 C 48.32 62.55 49.28 63.81 49.51 65.47 C 49.34 66.11 48.99 67.40 48.82 68.05 C 49.23 68.32 50.06 68.86 50.48 69.13 C 49.51 73.53 50.20 78.08 50.00 82.54 L 50.70 82.55 C 50.84 82.01 51.14 80.93 51.28 80.39 C 55.00 78.71 59.14 78.85 63.12 79.05 C 65.25 79.48 68.22 80.13 68.24 82.86 C 63.21 83.86 58.46 81.55 53.46 82.05 C 52.80 82.37 51.49 83.01 50.83 83.34 C 50.96 84.71 51.05 86.08 51.16 87.45 C 52.95 91.23 51.30 95.55 52.32 99.49 C 53.38 102.37 52.90 105.47 53.08 108.47 C 54.19 109.92 53.96 111.80 54.19 113.50 C 54.59 114.59 54.93 115.69 55.21 116.82 C 55.57 117.21 56.29 118.00 56.64 118.39 C 58.31 124.87 63.58 129.46 67.14 134.88 C 68.06 136.72 69.94 137.65 71.48 138.88 C 71.08 137.93 70.26 136.03 69.86 135.07 C 70.29 135.37 71.15 135.96 71.58 136.26 C 72.51 139.45 73.34 142.88 75.70 145.36 C 76.64 146.23 76.95 147.47 77.30 148.66 C 79.88 151.93 80.87 156.25 84.18 158.99 C 86.32 159.03 88.47 158.99 90.61 159.22 C 92.23 154.48 96.59 151.55 101.02 149.93 C 103.22 151.22 104.12 153.82 105.88 155.57 C 105.92 156.82 105.97 158.08 106.01 159.34 C 107.11 158.54 108.35 158.03 109.67 157.74 C 112.21 155.56 115.04 153.74 117.59 151.59 C 120.99 148.12 122.57 143.39 125.84 139.82 C 128.88 135.49 130.71 130.45 132.68 125.57 C 133.99 122.04 136.42 119.02 137.93 115.55 C 137.67 108.40 138.96 101.03 136.96 94.08 C 137.27 93.68 137.89 92.90 138.20 92.50 C 138.13 93.47 137.99 95.39 137.92 96.35 L 138.98 96.04 C 139.30 101.31 138.34 106.73 139.60 111.90 C 139.79 111.26 140.16 109.97 140.35 109.33 C 141.39 108.08 142.35 106.76 143.27 105.42 C 143.01 104.94 142.50 103.98 142.24 103.51 C 141.33 99.98 139.97 96.60 138.42 93.31 C 141.14 94.27 144.04 93.97 146.87 94.04 C 148.04 92.67 149.05 91.18 150.00 89.65 C 150.18 85.17 150.07 80.70 148.80 76.37 C 147.74 74.57 146.73 72.75 145.60 70.99 C 145.06 71.01 143.98 71.04 143.44 71.05 C 141.43 72.15 139.71 73.69 137.98 75.17 C 138.01 73.18 138.08 71.20 137.93 69.22 C 136.90 68.12 135.40 67.68 134.12 66.95 C 134.09 66.31 134.02 65.01 133.99 64.36 C 132.70 61.98 131.00 59.81 128.55 58.54 C 126.23 57.38 123.02 58.93 121.22 56.83 C 120.96 54.49 120.88 52.14 120.68 49.80 C 120.57 50.29 120.35 51.26 120.24 51.75 C 118.80 51.75 117.36 51.75 115.92 51.75 C 112.55 49.43 109.46 45.99 105.05 46.01 C 98.68 46.00 92.31 45.94 85.94 46.04 C 81.35 46.84 76.72 47.44 72.13 48.26 C 68.46 49.89 64.59 50.98 60.92 52.60 C 57.42 52.80 54.40 54.77 50.97 55.17 C 50.43 57.78 51.16 60.48 49.94 62.97 C 49.34 62.02 48.62 61.15 47.81 60.38 C 47.20 61.11 46.60 61.84 45.98 62.56 C 45.33 60.87 44.92 59.09 44.15 57.45 C 44.04 56.14 43.96 54.83 43.87 53.52 C 42.64 51.81 43.23 49.51 42.17 47.72 C 40.10 43.44 41.32 38.55 40.98 33.99 C 40.61 28.04 42.83 21.35 48.12 18.13 C 50.76 16.45 51.75 13.10 54.53 11.60 C 56.30 10.37 58.50 10.16 60.56 9.79 C 64.50 6.72 69.74 6.89 74.25 5.19 M 45.26 76.28 C 43.50 80.13 43.84 84.43 44.13 88.53 C 44.50 89.55 44.90 90.57 45.33 91.57 C 46.45 94.26 47.59 97.87 50.97 98.30 C 51.00 96.30 51.00 94.30 51.00 92.30 C 48.65 92.25 48.36 89.69 48.01 87.90 C 48.93 89.16 49.87 90.44 51.04 91.49 C 51.30 89.92 50.79 88.48 50.14 87.10 C 50.07 86.45 49.92 85.15 49.84 84.50 C 48.25 82.60 50.28 78.81 47.07 78.45 C 46.80 81.12 47.96 84.68 44.89 86.09 C 45.14 85.45 45.63 84.18 45.88 83.54 C 45.97 81.03 45.36 77.03 48.99 76.98 C 48.99 76.46 48.99 75.41 49.00 74.89 C 47.71 75.10 45.70 74.56 45.26 76.28 M 55.23 80.14 L 55.23 80.85 L 55.94 80.86 L 55.94 80.15 L 55.23 80.14 M 131.46 151.06 C 129.86 151.99 128.21 152.85 126.39 153.28 C 125.89 153.52 124.88 154.01 124.38 154.26 C 122.35 154.86 120.84 156.27 119.53 157.88 C 122.27 157.41 124.95 156.68 127.43 155.42 C 130.16 154.08 133.07 155.78 135.03 157.66 C 135.11 160.02 135.13 162.38 135.14 164.74 C 136.14 163.41 137.19 162.10 137.98 160.61 C 138.01 157.82 138.14 155.02 137.92 152.24 C 136.54 150.01 133.60 151.30 131.46 151.06 M 95.75 155.61 C 96.11 158.09 97.71 160.58 100.06 161.58 C 100.63 158.66 97.75 157.03 95.75 155.61 M 118.50 158.44 C 118.56 158.51 118.56 158.51 118.50 158.44 Z" />
<path fill="#000000" opacity="1.00" d=" M 109.46 73.08 C 111.26 73.05 113.10 72.81 114.87 73.23 C 116.13 74.56 117.74 75.87 118.03 77.78 C 115.54 78.06 113.03 78.00 110.53 78.09 C 108.93 79.36 106.82 78.83 104.97 79.11 C 101.71 79.40 98.89 81.19 95.82 82.11 C 97.08 77.83 101.69 75.90 105.61 74.75 C 106.89 74.19 108.20 73.69 109.46 73.08 M 100.02 78.17 L 100.03 78.88 L 100.75 78.87 L 100.74 78.15 L 100.02 78.17 Z" />
<path fill="#ffffff" opacity="1.00" d=" M 45.26 76.28 C 45.70 74.56 47.71 75.10 49.00 74.89 C 48.99 75.41 48.99 76.46 48.99 76.98 C 45.36 77.03 45.97 81.03 45.88 83.54 C 45.63 84.18 45.14 85.45 44.89 86.09 C 47.96 84.68 46.80 81.12 47.07 78.45 C 50.28 78.81 48.25 82.60 49.84 84.50 C 49.92 85.15 50.07 86.45 50.14 87.10 C 50.79 88.48 51.30 89.92 51.04 91.49 C 49.87 90.44 48.93 89.16 48.01 87.90 C 48.36 89.69 48.65 92.25 51.00 92.30 C 51.00 94.30 51.00 96.30 50.97 98.30 C 47.59 97.87 46.45 94.26 45.33 91.57 C 44.90 90.57 44.50 89.55 44.13 88.53 C 43.84 84.43 43.50 80.13 45.26 76.28 Z" />
<path fill="#000000" opacity="1.00" d=" M 140.12 76.73 C 141.21 79.20 142.64 81.54 145.04 82.91 C 143.92 85.42 141.86 87.34 140.68 89.80 C 140.18 90.06 139.19 90.57 138.69 90.83 C 140.18 88.15 142.19 85.78 143.54 83.01 C 142.34 81.86 141.16 80.68 139.98 79.52 C 140.01 78.82 140.09 77.42 140.12 76.73 Z" />
<path fill="#ffffff" opacity="1.00" d=" M 100.02 78.17 L 100.74 78.15 L 100.75 78.87 L 100.03 78.88 L 100.02 78.17 Z" />
<path fill="#ffffff" opacity="1.00" d=" M 55.23 80.14 L 55.94 80.15 L 55.94 80.86 L 55.23 80.85 L 55.23 80.14 Z" />
<path fill="#000000" opacity="1.00" d=" M 106.50 85.88 C 109.76 84.29 113.62 85.24 117.12 85.14 C 116.93 88.63 114.47 91.83 111.16 92.92 C 107.16 92.91 102.80 93.81 99.21 91.57 C 98.41 89.27 99.82 87.02 101.91 86.10 C 103.43 85.96 104.97 85.95 106.50 85.88 M 112.74 86.00 C 111.89 87.37 110.98 88.70 110.09 90.04 C 109.44 89.10 107.93 87.34 108.30 89.75 L 105.39 90.21 C 105.98 89.41 106.66 88.56 106.40 87.51 C 105.46 88.07 104.57 88.72 103.82 89.52 L 104.15 86.70 C 102.10 87.40 100.48 88.68 99.32 90.51 C 100.12 90.86 101.71 91.55 102.51 91.90 C 105.59 92.06 108.67 92.00 111.76 91.99 C 113.65 90.31 115.15 88.31 116.20 86.01 C 115.34 86.01 113.61 86.00 112.74 86.00 Z" />
<path fill="#000000" opacity="1.00" d=" M 88.37 85.72 C 89.62 88.00 88.68 90.45 88.09 92.77 C 88.55 94.99 89.39 97.13 89.55 99.41 C 87.34 98.17 87.89 95.09 87.03 92.99 C 87.74 90.62 88.03 88.16 88.37 85.72 Z" />
<path fill="#ffffff" opacity="1.00" d=" M 112.74 86.00 C 113.61 86.00 115.34 86.01 116.20 86.01 C 115.15 88.31 113.65 90.31 111.76 91.99 C 108.67 92.00 105.59 92.06 102.51 91.90 C 101.71 91.55 100.12 90.86 99.32 90.51 C 100.48 88.68 102.10 87.40 104.15 86.70 L 103.82 89.52 C 104.57 88.72 105.46 88.07 106.40 87.51 C 106.66 88.56 105.98 89.41 105.39 90.21 L 108.30 89.75 C 107.93 87.34 109.44 89.10 110.09 90.04 C 110.98 88.70 111.89 87.37 112.74 86.00 Z" />
<path fill="#000000" opacity="1.00" d=" M 57.47 89.38 C 62.12 87.23 67.24 88.31 72.18 87.97 C 72.50 88.26 73.14 88.83 73.46 89.11 C 73.31 90.30 73.08 91.46 72.80 92.62 C 70.75 93.54 69.02 95.05 66.95 95.91 C 62.66 96.69 57.97 94.92 55.27 91.54 C 54.09 89.95 56.72 90.18 57.47 89.38 M 68.97 89.01 C 68.54 90.33 68.12 91.66 67.78 93.01 C 66.01 93.01 64.24 93.00 62.48 92.99 C 61.89 91.92 61.39 90.81 60.96 89.67 C 59.33 89.92 57.80 90.51 56.37 91.31 C 57.32 92.12 58.25 92.94 59.20 93.75 C 60.33 94.05 61.44 94.44 62.53 94.89 C 63.88 94.96 65.25 95.00 66.61 95.01 C 68.32 93.77 70.15 92.72 71.95 91.61 C 72.00 90.96 72.10 89.65 72.15 89.00 C 71.36 89.00 69.77 89.01 68.97 89.01 Z" />
<path fill="#ffffff" opacity="1.00" d=" M 68.97 89.01 C 69.77 89.01 71.36 89.00 72.15 89.00 C 72.10 89.65 72.00 90.96 71.95 91.61 C 70.15 92.72 68.32 93.77 66.61 95.01 C 65.25 95.00 63.88 94.96 62.53 94.89 C 61.44 94.44 60.33 94.05 59.20 93.75 C 58.25 92.94 57.32 92.12 56.37 91.31 C 57.80 90.51 59.33 89.92 60.96 89.67 C 61.39 90.81 61.89 91.92 62.48 92.99 C 64.24 93.00 66.01 93.01 67.78 93.01 C 68.12 91.66 68.54 90.33 68.97 89.01 Z" />
<path fill="#000000" opacity="1.00" d=" M 75.79 98.29 C 74.55 95.63 74.57 92.37 75.77 89.70 C 76.13 92.55 76.12 95.44 75.79 98.29 Z" />
<path fill="#000000" opacity="1.00" d=" M 73.81 102.72 C 73.93 104.04 73.99 105.40 73.09 106.51 C 73.01 108.61 72.98 110.71 72.96 112.81 C 73.75 113.53 74.54 114.24 75.34 114.95 C 77.18 114.97 78.96 112.99 80.50 114.92 C 83.24 115.04 85.98 115.03 88.71 114.95 C 89.30 111.30 94.00 111.27 96.50 112.91 C 97.66 112.95 98.82 112.97 99.98 113.00 C 99.99 111.79 99.99 110.59 99.98 109.39 C 98.19 107.67 96.54 105.76 94.55 104.26 C 93.33 103.89 92.05 104.70 90.91 105.06 C 91.86 104.40 92.36 102.51 93.81 103.00 C 96.54 103.80 98.34 106.11 100.32 107.99 C 103.03 107.69 105.07 109.54 107.07 111.06 C 106.46 111.01 105.23 110.91 104.61 110.86 C 103.68 109.80 102.59 108.91 101.14 108.73 C 100.84 110.36 101.40 112.44 100.01 113.68 C 97.09 114.84 94.22 112.79 91.27 112.75 C 90.45 113.81 89.63 114.87 88.82 115.94 C 83.98 116.76 79.14 114.61 74.42 116.20 C 73.97 115.53 73.08 114.18 72.64 113.51 C 71.51 114.71 70.35 115.89 69.18 117.05 C 69.81 115.43 70.78 113.99 71.95 112.72 C 72.01 109.28 71.49 105.61 73.81 102.72 Z" />
<path fill="#000000" opacity="1.00" d=" M 144.71 103.28 C 148.14 102.82 151.61 102.96 155.05 103.03 C 159.81 104.08 163.60 107.37 167.48 110.13 C 171.61 108.12 176.26 108.01 180.57 106.62 C 184.44 105.44 188.52 106.25 192.49 105.92 C 195.66 104.01 199.61 105.48 203.11 104.96 C 209.81 102.91 216.90 104.79 223.73 103.63 C 228.19 107.06 232.48 110.69 237.25 113.70 C 238.30 114.07 239.36 114.40 240.44 114.69 C 243.79 115.12 245.12 118.77 248.00 120.13 C 249.93 121.61 253.12 122.39 253.23 125.29 C 251.08 123.61 249.34 121.01 246.40 120.79 C 244.87 119.27 243.35 117.75 241.83 116.21 C 240.75 115.87 239.66 115.59 238.55 115.38 C 235.37 113.70 232.50 111.52 229.41 109.68 C 227.50 107.67 225.35 105.86 222.77 104.77 C 214.57 105.77 205.35 103.07 198.15 108.31 C 194.22 112.39 188.57 114.88 186.16 120.34 C 185.98 121.40 185.70 122.44 185.31 123.45 C 184.64 125.24 183.81 127.04 183.99 129.00 C 184.11 135.00 183.44 141.10 184.96 146.94 C 184.46 150.72 186.78 153.91 187.28 157.53 C 187.52 158.58 187.86 159.60 188.29 160.59 C 188.91 162.13 189.65 163.62 190.37 165.12 C 190.68 165.09 191.31 165.03 191.63 165.00 C 190.46 167.14 191.98 169.35 192.30 171.52 C 192.72 172.72 193.02 173.96 193.22 175.22 C 195.35 175.06 197.49 174.99 199.63 174.96 C 200.56 177.09 202.79 181.91 199.02 182.14 C 199.47 183.30 199.96 184.46 200.29 185.67 C 201.70 187.42 202.94 189.37 203.16 191.66 C 203.91 192.99 204.70 194.31 205.66 195.50 C 206.35 199.26 209.33 201.98 210.40 205.59 C 210.60 206.62 210.90 207.62 211.30 208.60 C 212.09 210.19 212.70 211.85 213.30 213.52 C 214.35 215.72 215.29 217.94 215.46 220.42 C 214.57 219.21 213.91 217.86 213.23 216.54 C 212.04 212.39 210.18 208.46 208.81 204.37 C 206.84 201.11 205.76 197.26 203.03 194.52 C 203.03 195.44 203.03 197.29 203.02 198.21 C 201.70 199.44 200.64 201.09 199.00 201.92 C 197.09 202.06 195.17 202.01 193.26 202.01 C 192.38 199.87 191.83 197.62 191.91 195.29 C 188.57 194.55 185.87 191.81 185.88 188.27 C 184.93 187.25 184.01 186.21 182.62 185.85 C 181.57 187.60 179.44 186.78 177.84 187.01 C 177.46 183.86 180.21 182.50 183.02 182.36 C 182.34 183.52 181.39 184.11 180.17 184.11 C 179.79 184.65 179.04 185.72 178.67 186.26 C 180.44 185.88 182.17 184.77 184.02 185.09 C 185.18 185.80 186.29 186.59 187.45 187.33 C 187.32 188.45 187.08 189.55 186.86 190.66 C 188.05 191.75 189.22 192.85 190.37 193.98 C 190.96 193.62 192.14 192.91 192.73 192.55 C 193.73 191.53 194.85 190.63 195.96 189.74 C 196.02 186.86 195.97 183.99 196.11 181.12 C 197.44 181.06 198.78 181.02 200.12 180.98 C 200.05 179.23 199.87 177.48 199.06 175.90 C 196.11 175.69 193.30 176.22 191.31 178.65 C 191.56 178.01 192.05 176.73 192.29 176.09 L 191.51 175.94 C 190.51 176.77 189.56 177.64 188.65 178.55 C 189.25 179.01 189.85 179.48 190.45 179.95 C 189.60 180.26 187.90 180.88 187.06 181.18 C 186.66 181.70 185.87 182.73 185.48 183.24 C 184.93 183.11 183.83 182.86 183.29 182.73 C 183.24 181.45 185.99 181.60 186.63 180.67 C 185.53 180.17 184.44 179.69 183.36 179.18 C 187.09 179.20 189.55 176.23 191.96 173.84 C 191.27 172.40 190.88 170.90 190.89 169.30 C 190.56 168.87 189.89 168.02 189.56 167.60 C 188.45 168.92 187.11 169.97 185.56 170.72 C 181.49 172.68 177.26 174.99 174.87 178.98 C 173.46 181.01 175.57 183.38 175.08 185.65 C 175.88 186.99 176.70 188.33 177.70 189.54 C 178.47 192.02 179.14 194.56 179.55 197.13 C 179.03 197.03 177.98 196.82 177.46 196.72 C 174.50 199.54 171.66 202.56 170.11 206.42 C 170.04 206.91 169.91 207.91 169.84 208.41 C 168.24 212.16 168.85 216.67 167.18 220.48 C 167.05 218.17 166.38 215.47 167.94 213.48 C 167.97 211.79 168.02 210.10 167.95 208.43 C 166.15 210.47 164.70 212.80 162.65 214.63 C 160.49 216.33 159.74 219.38 157.01 220.36 C 159.35 214.85 165.58 212.00 167.08 206.07 C 167.65 206.92 168.26 207.74 168.91 208.54 C 168.79 207.65 168.54 205.89 168.42 205.00 C 170.96 200.65 175.95 198.19 178.12 193.64 C 177.28 192.69 176.84 191.58 176.78 190.30 C 175.60 188.52 173.93 187.06 173.11 185.06 C 172.85 181.88 173.09 178.68 172.92 175.50 C 171.19 172.67 172.29 169.15 171.99 166.02 C 172.26 163.20 171.25 160.04 172.88 157.51 C 172.95 154.63 173.65 151.50 172.09 148.88 C 171.97 146.44 173.50 144.07 172.98 141.53 C 171.15 139.48 172.28 136.48 171.97 134.01 C 171.50 130.84 173.62 128.34 174.77 125.61 C 175.26 122.88 176.99 120.63 178.54 118.41 C 181.82 115.16 182.78 110.44 185.53 106.82 C 181.47 106.66 177.94 109.12 173.91 109.08 C 171.56 109.25 169.51 110.72 167.19 110.95 C 163.31 109.46 160.66 105.78 156.57 104.62 C 152.81 102.98 148.44 105.07 144.71 103.28 M 187.29 107.08 C 185.53 108.45 184.78 110.65 183.67 112.50 C 182.72 113.70 181.97 115.02 181.76 116.56 C 179.28 118.70 177.73 121.62 176.12 124.43 C 176.06 124.93 175.92 125.93 175.86 126.43 C 175.08 127.78 174.32 129.14 173.54 130.48 C 172.48 134.21 172.75 138.32 173.99 141.98 C 174.35 143.99 173.47 145.86 173.07 147.78 C 174.39 151.73 174.42 156.10 173.16 160.07 C 172.91 165.88 172.47 171.86 174.21 177.51 C 178.17 172.10 185.29 170.78 189.78 166.02 C 188.49 163.95 187.45 161.76 186.63 159.47 C 186.14 157.81 185.90 156.08 185.29 154.45 C 184.04 151.63 183.90 148.56 183.89 145.52 C 183.68 145.13 183.26 144.35 183.05 143.96 C 183.00 138.27 182.95 132.58 183.04 126.89 C 183.62 124.40 184.65 122.04 185.30 119.57 C 188.57 113.53 194.65 110.27 199.65 105.93 C 195.43 105.61 191.51 107.46 187.29 107.08 M 187.25 179.14 L 187.26 179.86 L 187.97 179.86 L 187.97 179.14 L 187.25 179.14 M 197.04 181.54 C 196.92 185.01 197.23 188.52 196.51 191.95 C 198.46 192.00 200.40 192.08 202.35 192.18 C 200.98 188.47 199.21 184.85 197.04 181.54 M 192.86 194.29 C 192.94 195.71 193.03 197.14 193.08 198.57 C 193.39 199.18 194.01 200.40 194.32 201.01 C 195.79 201.00 197.25 200.99 198.72 201.00 C 199.84 199.90 200.96 198.79 202.08 197.70 C 201.91 196.03 202.47 193.04 199.96 193.04 C 197.62 193.21 194.53 192.08 192.86 194.29 Z" />
<path fill="#ffffff" opacity="1.00" d=" M 187.29 107.08 C 191.51 107.46 195.43 105.61 199.65 105.93 C 194.65 110.27 188.57 113.53 185.30 119.57 C 184.65 122.04 183.62 124.40 183.04 126.89 C 182.95 132.58 183.00 138.27 183.05 143.96 C 183.26 144.35 183.68 145.13 183.89 145.52 C 183.90 148.56 184.04 151.63 185.29 154.45 C 185.90 156.08 186.14 157.81 186.63 159.47 C 187.45 161.76 188.49 163.95 189.78 166.02 C 185.29 170.78 178.17 172.10 174.21 177.51 C 172.47 171.86 172.91 165.88 173.16 160.07 C 174.42 156.10 174.39 151.73 173.07 147.78 C 173.47 145.86 174.35 143.99 173.99 141.98 C 172.75 138.32 172.48 134.21 173.54 130.48 C 174.32 129.14 175.08 127.78 175.86 126.43 C 175.92 125.93 176.06 124.93 176.12 124.43 C 177.73 121.62 179.28 118.70 181.76 116.56 C 181.97 115.02 182.72 113.70 183.67 112.50 C 184.78 110.65 185.53 108.45 187.29 107.08 Z" />
<path fill="#000000" opacity="1.00" d=" M 111.02 115.85 C 114.61 117.47 117.86 120.91 118.04 125.04 C 118.50 128.15 119.53 131.14 120.17 134.21 C 119.52 133.32 118.87 132.43 118.22 131.55 C 118.13 129.69 117.96 127.82 117.18 126.11 C 117.13 125.42 117.04 124.04 116.99 123.35 C 115.72 120.30 112.83 118.51 111.02 115.85 Z" />
<path fill="#000000" opacity="1.00" d=" M 89.73 118.36 C 93.34 117.26 97.18 116.47 100.95 117.20 C 103.10 118.05 105.29 118.76 107.52 119.38 C 109.33 120.43 110.77 122.03 112.28 123.46 C 111.07 125.64 107.41 124.10 107.48 127.31 C 106.08 132.43 108.59 138.38 104.70 142.75 C 102.11 144.41 99.78 146.45 97.51 148.52 C 92.85 149.30 87.77 149.58 83.27 147.88 C 81.60 145.81 80.07 143.61 79.13 141.10 C 78.94 137.78 79.24 134.38 77.57 131.34 C 78.07 131.18 79.07 130.84 79.57 130.67 C 78.49 129.65 77.23 128.97 75.79 128.61 C 75.73 126.25 77.55 124.82 79.81 124.80 C 84.79 123.03 90.20 124.99 95.16 123.25 C 98.83 124.38 102.67 124.05 106.45 123.94 C 105.18 122.91 104.13 121.64 102.55 121.06 C 98.15 120.52 93.59 121.80 89.31 120.68 L 88.68 119.15 C 89.52 119.25 91.20 119.46 92.05 119.57 C 91.47 119.26 90.31 118.66 89.73 118.36 M 82.52 125.09 C 80.56 126.54 76.83 125.15 76.70 128.72 C 78.14 128.27 79.35 127.09 80.91 127.08 C 84.28 127.12 87.42 125.33 90.82 126.12 C 88.29 127.38 85.29 127.04 82.70 128.23 L 82.78 129.14 C 88.48 128.99 94.09 127.78 99.62 126.48 C 100.75 126.11 101.86 125.65 102.86 125.00 C 100.74 124.96 98.62 124.95 96.51 125.08 C 94.64 126.77 91.95 125.98 89.78 125.42 C 87.43 124.67 84.94 125.03 82.52 125.09 M 103.10 125.26 C 102.79 126.43 101.80 126.99 100.72 127.31 C 99.36 127.81 97.93 128.03 96.50 128.23 C 94.72 129.43 92.50 128.86 90.50 129.12 C 88.12 130.63 85.17 129.91 82.54 129.82 C 81.63 129.11 80.76 128.37 79.92 127.58 C 79.60 131.29 82.34 134.24 83.64 137.52 C 84.10 139.37 85.91 140.06 87.34 141.00 C 88.70 141.04 90.06 141.06 91.42 141.05 C 91.01 137.29 89.66 131.80 93.77 129.61 C 93.27 130.92 92.72 132.22 92.09 133.48 C 91.97 135.73 92.00 137.98 92.00 140.23 C 93.22 140.13 94.45 140.03 95.67 139.94 C 99.04 138.01 102.45 135.33 103.50 131.41 C 104.01 129.38 105.69 128.05 107.01 126.55 C 107.00 126.10 106.98 125.20 106.98 124.75 C 106.01 124.88 104.07 125.13 103.10 125.26 M 97.49 140.50 C 95.30 141.02 92.98 140.96 90.91 141.92 C 89.10 141.92 87.23 142.18 85.50 141.48 C 82.63 139.79 81.76 136.33 80.68 133.41 C 79.31 135.91 80.19 138.86 80.09 141.57 C 80.85 142.55 81.67 143.53 82.01 144.76 C 83.30 146.06 84.78 147.14 86.39 148.00 C 89.48 147.99 92.56 148.00 95.65 148.01 C 99.37 145.22 103.95 143.03 106.00 138.62 C 105.97 135.48 106.08 132.34 105.92 129.20 C 103.83 133.48 101.73 137.91 97.49 140.50 Z" />
<path fill="#000000" opacity="1.00" d=" M 74.43 119.20 C 78.11 118.65 81.73 117.31 85.48 118.18 C 85.81 118.79 86.46 120.01 86.78 120.62 C 84.55 121.97 81.99 122.01 79.49 122.38 C 78.45 122.75 77.38 123.01 76.29 123.15 C 75.18 124.19 74.10 125.25 73.01 126.32 C 72.98 127.53 72.95 128.74 72.92 129.95 C 72.20 129.94 70.78 129.93 70.06 129.92 C 70.00 127.92 69.92 125.93 70.06 123.94 C 71.19 122.12 72.94 120.73 74.43 119.20 Z" />
<path fill="#000000" opacity="1.00" d=" M 63.95 127.86 C 64.84 124.64 64.68 120.59 68.24 119.01 C 67.66 120.15 66.95 121.21 66.20 122.24 C 65.91 123.69 65.67 125.17 65.10 126.55 C 65.24 126.93 65.52 127.69 65.66 128.07 C 65.23 128.02 64.38 127.91 63.95 127.86 Z" />
<path fill="#ffffff" opacity="1.00" d=" M 82.52 125.09 C 84.94 125.03 87.43 124.67 89.78 125.42 C 91.95 125.98 94.64 126.77 96.51 125.08 C 98.62 124.95 100.74 124.96 102.86 125.00 C 101.86 125.65 100.75 126.11 99.62 126.48 C 94.09 127.78 88.48 128.99 82.78 129.14 L 82.70 128.23 C 85.29 127.04 88.29 127.38 90.82 126.12 C 87.42 125.33 84.28 127.12 80.91 127.08 C 79.35 127.09 78.14 128.27 76.70 128.72 C 76.83 125.15 80.56 126.54 82.52 125.09 Z" />
<path fill="#ffffff" opacity="1.00" d=" M 103.10 125.26 C 104.07 125.13 106.01 124.88 106.98 124.75 C 106.98 125.20 107.00 126.10 107.01 126.55 C 105.69 128.05 104.01 129.38 103.50 131.41 C 102.45 135.33 99.04 138.01 95.67 139.94 C 94.45 140.03 93.22 140.13 92.00 140.23 C 92.00 137.98 91.97 135.73 92.09 133.48 C 92.72 132.22 93.27 130.92 93.77 129.61 C 89.66 131.80 91.01 137.29 91.42 141.05 C 90.06 141.06 88.70 141.04 87.34 141.00 C 85.91 140.06 84.10 139.37 83.64 137.52 C 82.34 134.24 79.60 131.29 79.92 127.58 C 80.76 128.37 81.63 129.11 82.54 129.82 C 85.17 129.91 88.12 130.63 90.50 129.12 C 92.50 128.86 94.72 129.43 96.50 128.23 C 97.93 128.03 99.36 127.81 100.72 127.31 C 101.80 126.99 102.79 126.43 103.10 125.26 Z" />
<path fill="#ffffff" opacity="1.00" d=" M 97.49 140.50 C 101.73 137.91 103.83 133.48 105.92 129.20 C 106.08 132.34 105.97 135.48 106.00 138.62 C 103.95 143.03 99.37 145.22 95.65 148.01 C 92.56 148.00 89.48 147.99 86.39 148.00 C 84.78 147.14 83.30 146.06 82.01 144.76 C 81.67 143.53 80.85 142.55 80.09 141.57 C 80.19 138.86 79.31 135.91 80.68 133.41 C 81.76 136.33 82.63 139.79 85.50 141.48 C 87.23 142.18 89.10 141.92 90.91 141.92 C 92.98 140.96 95.30 141.02 97.49 140.50 Z" />
<path fill="#000000" opacity="1.00" d=" M 116.31 141.48 C 116.86 140.35 117.66 139.37 118.63 138.59 C 117.24 143.18 115.09 147.49 113.56 152.00 C 113.25 152.00 112.63 151.99 112.32 151.99 C 113.11 150.18 113.98 148.42 114.82 146.64 C 115.39 144.94 115.87 143.21 116.31 141.48 Z" />
<path fill="#ffffff" opacity="1.00" d=" M 100.78 150.90 C 101.72 152.11 102.69 153.31 103.43 154.66 C 103.80 155.04 104.56 155.81 104.93 156.20 C 104.99 157.46 105.04 158.73 105.10 160.00 C 104.31 160.00 102.74 159.99 101.96 159.99 C 100.01 157.92 98.33 154.64 95.06 154.95 L 94.70 154.55 C 96.82 153.50 98.73 152.08 100.78 150.90 Z" />
<path fill="#ffffff" opacity="1.00" d=" M 131.46 151.06 C 133.60 151.30 136.54 150.01 137.92 152.24 C 138.14 155.02 138.01 157.82 137.98 160.61 C 137.19 162.10 136.14 163.41 135.14 164.74 C 135.13 162.38 135.11 160.02 135.03 157.66 C 133.07 155.78 130.16 154.08 127.43 155.42 C 124.95 156.68 122.27 157.41 119.53 157.88 C 120.84 156.27 122.35 154.86 124.38 154.26 C 124.88 154.01 125.89 153.52 126.39 153.28 C 128.21 152.85 129.86 151.99 131.46 151.06 Z" />
<path fill="#ffffff" opacity="1.00" d=" M 95.75 155.61 C 97.75 157.03 100.63 158.66 100.06 161.58 C 97.71 160.58 96.11 158.09 95.75 155.61 Z" />
<path fill="#ffffff" opacity="1.00" d=" M 118.50 158.44 C 118.56 158.51 118.56 158.51 118.50 158.44 Z" />
<path fill="#ffffff" opacity="1.00" d=" M 187.25 179.14 L 187.97 179.14 L 187.97 179.86 L 187.26 179.86 L 187.25 179.14 Z" />
<path fill="#000000" opacity="1.00" d=" M 175.60 183.79 C 176.43 181.64 180.31 179.79 181.83 181.68 C 179.70 182.24 177.46 182.40 175.60 183.79 Z" />
<path fill="#ffffff" opacity="1.00" d=" M 197.04 181.54 C 199.21 184.85 200.98 188.47 202.35 192.18 C 200.40 192.08 198.46 192.00 196.51 191.95 C 197.23 188.52 196.92 185.01 197.04 181.54 Z" />
<path fill="#ffffff" opacity="1.00" d=" M 192.86 194.29 C 194.53 192.08 197.62 193.21 199.96 193.04 C 202.47 193.04 201.91 196.03 202.08 197.70 C 200.96 198.79 199.84 199.90 198.72 201.00 C 197.25 200.99 195.79 201.00 194.32 201.01 C 194.01 200.40 193.39 199.18 193.08 198.57 C 193.03 197.14 192.94 195.71 192.86 194.29 Z" />
<path fill="#000000" opacity="1.00" d=" M 200.38 219.20 C 201.59 218.31 202.33 218.50 202.62 219.79 C 201.41 220.69 200.66 220.49 200.38 219.20 Z" />
</svg>
