<?xml version="1.0" encoding="utf-8"?>
<!-- Generator: Adobe Illustrator 15.0.2, SVG Export Plug-In . SVG Version: 6.00 Build 0)  -->
<!DOCTYPE svg PUBLIC "-//W3C//DTD SVG 1.1//EN" "http://www.w3.org/Graphics/SVG/1.1/DTD/svg11.dtd">
<svg version="1.1" id="Layer_1" xmlns="http://www.w3.org/2000/svg" xmlns:xlink="http://www.w3.org/1999/xlink" x="0px" y="0px"
	 width="130px" height="128px" viewBox="0 0 130 128" enable-background="new 0 0 130 128" xml:space="preserve">
<path fill="#FFFFFF" d="M0,0h130v128H37.48c1.43-4.48,2.61-9.061,4.67-13.32c8.68,0.32,17.23,2.631,25.95,2.09
	c4.43-0.369,8.73-1.64,12.971-2.92c5.49-1.81,11.18-3.479,15.9-6.949c8.399-5.92,13.949-14.76,20.209-22.711
	c4.551-6.59,9.711-13.199,11.6-21.14c0.74-9.21,0.91-18.97-3.639-27.33c-7.65-13.9-21.061-24.06-35.971-29.13
	C78.98,2.44,67.891,2,57.06,1.16c-7.54-0.15-15.33-0.89-22.62,1.52c-7.07,2.3-13.93,6.19-18.4,12.27
	c-4.13,5.76-8.21,11.71-10.53,18.46c-4.1,11.38-5.53,23.55-5.33,35.6c0.68,6.79,3.96,12.92,6.95,18.93
	c3.07,6.19,6.96,12.211,12.66,16.28c5.97,4.82,13.25,7.45,20.41,9.94c-1.9,4.42-4.12,8.91-4.04,13.84H0V0z"/>
<path d="M34.44,2.68c7.29-2.41,15.08-1.67,22.62-1.52C67.891,2,78.98,2.44,89.17,6.59c14.91,5.07,28.32,15.23,35.971,29.13
	c4.549,8.36,4.379,18.12,3.639,27.33c-1.889,7.94-7.049,14.55-11.6,21.14c-6.26,7.951-11.81,16.791-20.209,22.711
	c-4.721,3.47-10.41,5.14-15.9,6.949c-4.24,1.28-8.541,2.551-12.971,2.92c-8.72,0.541-17.27-1.77-25.95-2.09
	c-2.06,4.26-3.24,8.84-4.67,13.32h-1.32c-0.08-4.93,2.14-9.42,4.04-13.84c-7.16-2.49-14.44-5.12-20.41-9.94
	c-5.7-4.069-9.59-10.09-12.66-16.28C4.14,81.93,0.86,75.8,0.18,69.01c-0.2-12.05,1.23-24.22,5.33-35.6
	c2.32-6.75,6.4-12.7,10.53-18.46C20.51,8.87,27.37,4.98,34.44,2.68 M42.1,3.2C32.01,4.5,21.66,9.38,16.19,18.29
	c-4.68,7.05-9.27,14.46-10.96,22.87C2.9,49.91,2.13,59,2.3,68.03c0.19,5.909,2.89,11.29,5.38,16.52
	c2.78,5.81,5.99,11.61,10.85,15.95c8.23,7.391,19.06,11.52,29.97,12.68c7.58,0.98,15.32,2.54,22.939,1.061
	c6.791-1.271,13.271-3.74,19.721-6.141c6.15-3.16,11.23-8.13,15.43-13.569c5.6-7.13,11.26-14.271,15.92-22.07
	c1.94-3.59,4.24-7.25,4.44-11.43c0.29-4.73,0.28-9.49-0.24-14.19c-1.26-7.88-5.61-14.88-10.931-20.68
	C105.529,14.75,90.96,8.01,76.08,5.1C64.84,3.62,53.44,2.47,42.1,3.2z"/>
<path fill="#FFFFFF" d="M42.1,3.2c11.34-0.73,22.74,0.42,33.98,1.9c14.88,2.91,29.449,9.65,39.699,21.06
	c5.32,5.8,9.671,12.8,10.931,20.68c0.521,4.7,0.53,9.46,0.24,14.19c-0.2,4.18-2.5,7.84-4.44,11.43
	c-4.66,7.8-10.32,14.94-15.92,22.07c-4.199,5.439-9.279,10.409-15.43,13.569c-6.45,2.4-12.93,4.87-19.721,6.141
	c-7.62,1.479-15.359-0.08-22.939-1.061c-10.91-1.16-21.74-5.289-29.97-12.68c-4.86-4.34-8.07-10.141-10.85-15.95
	C5.19,79.32,2.49,73.939,2.3,68.03C2.13,59,2.9,49.91,5.23,41.16c1.69-8.41,6.28-15.82,10.96-22.87C21.66,9.38,32.01,4.5,42.1,3.2
	 M66.5,43.87c0.971,5.58-4.5,12.5-10.45,10.24c-10.56-1.85-20.88-5-31.54-6.23c0.92,0.78,1.87,1.54,2.83,2.28
	c-0.15,1.99-0.44,4-0.21,6.01c2.06,5.13,7.46,8.1,12.89,7.84c6.65,0.5,11.94-3.92,17.02-7.46c5.04-0.02,9.601-3.7,10.96-8.49
	C68.23,46.6,68.65,43.9,66.5,43.87 M114.811,60.56c-2.201,2.48-5.291,5.39-8.91,4.37c-6.74-1.149-13.2-3.45-19.891-4.79
	c-3.99-0.8-7.88-2.01-11.6-3.65c-0.04,0.29-0.131,0.89-0.17,1.18c0.859,0.49,1.72,0.97,2.59,1.46c0.08,3.1-0.109,6.65,2.48,8.88
	c5.64,5.5,14.1,6.86,21.67,6.19c3.34-1.851,7.1-3.851,8.619-7.591c2.65-1.529,5.41-3.219,6.961-5.979
	c1.64-2.61,1.379-5.84,0.92-8.75C115.93,54.58,117,58.16,114.811,60.56 M22.3,85.939c-0.56,2.971,1.72,7.36,5.26,6.261
	c-1.62-1.71-3.63-3.591-3.2-6.21c-0.04-3.67,2.31-6.61,3.35-9.95C23.88,77.68,22.8,82.2,22.3,85.939 M37.79,88.12
	c1.39-0.89,2.74-1.86,4.09-2.81c5.89,0.81,11.83,1.449,17.6,2.93c5.46,1.41,10.85,3.06,16.4,4.08c0.25,1.39,0.45,2.789,0.8,4.17
	c2.18-0.471,0.791-3.69,1-5.271c-11.77-3.05-23.49-6.909-35.729-7.39C39.42,83.37,37.75,85.859,37.79,88.12 M45.9,89.85
	c3.42,1.7,7.34,1.131,11,1.721c4.13,0.939,7.93,3.46,12.26,3.32C62.15,90.99,53.93,89.13,45.9,89.85 M87.609,90.45
	c0.371,1.5,0.871,3,0.871,4.569c-0.9,4.92-7.49,6.561-8.49,11.17c3.43-1.859,6.369-4.539,8.689-7.659
	c2.08-2.601,1.51-6.421,0.11-9.2C88.4,89.7,88,90.08,87.609,90.45z"/>
<path d="M66.5,43.87c2.15,0.03,1.73,2.73,1.5,4.19c-1.359,4.79-5.92,8.47-10.96,8.49c-5.08,3.54-10.37,7.96-17.02,7.46
	c-5.43,0.26-10.83-2.71-12.89-7.84c-0.23-2.01,0.06-4.02,0.21-6.01c-0.96-0.74-1.91-1.5-2.83-2.28c10.66,1.23,20.98,4.38,31.54,6.23
	C62,56.37,67.471,49.45,66.5,43.87 M28.72,50.44c-0.14,2.36-1.02,5.18,0.82,7.14c4.1,5.99,13,6.2,18.88,2.93
	c2.48-1.58,5.62-2.7,6.98-5.5c-3.92-1.21-6.38,3.64-10.33,2.61c-3.57-0.2-4.75-4.07-7.24-5.95C34.93,50.61,31.79,50.21,28.72,50.44z
	"/>
<path fill="#FFFFFF" d="M28.72,50.44c3.07-0.23,6.21,0.17,9.11,1.23c2.49,1.88,3.67,5.75,7.24,5.95c3.95,1.03,6.41-3.82,10.33-2.61
	c-1.36,2.8-4.5,3.92-6.98,5.5c-5.88,3.271-14.78,3.06-18.88-2.93C27.7,55.62,28.58,52.8,28.72,50.44z"/>
<path d="M114.811,60.56c2.189-2.4,1.119-5.98,2.67-8.68c0.459,2.91,0.72,6.14-0.92,8.75c-1.551,2.76-4.311,4.45-6.961,5.979
	c-1.52,3.74-5.279,5.74-8.619,7.591c-7.57,0.67-16.03-0.69-21.67-6.19c-2.59-2.229-2.4-5.78-2.48-8.88
	c-0.87-0.49-1.73-0.97-2.59-1.46c0.039-0.29,0.13-0.89,0.17-1.18c3.72,1.64,7.609,2.85,11.6,3.65c6.69,1.34,13.15,3.64,19.891,4.79
	C109.52,65.95,112.609,63.04,114.811,60.56 M78.27,59.82c0.061,2.19-0.33,4.71,1.4,6.411c5.141,6.129,13.78,7.01,21.26,6.539
	c2.541-1.709,5.141-3.399,7.11-5.789c-1.97-0.431-4.319-1.74-6.03,0c-2.26,1.979-5.5,2.039-8.25,1.22
	c-2.47-0.851-3.38-3.53-4.449-5.64C85.65,61.57,81.96,60.67,78.27,59.82z"/>
<path fill="#FFFFFF" d="M78.27,59.82c3.69,0.85,7.381,1.75,11.041,2.74c1.069,2.11,1.979,4.79,4.449,5.64
	c2.75,0.819,5.99,0.76,8.25-1.22c1.711-1.74,4.061-0.431,6.03,0c-1.97,2.39-4.569,4.08-7.11,5.789
	c-7.479,0.471-16.119-0.41-21.26-6.539C77.939,64.53,78.33,62.01,78.27,59.82z"/>
<path d="M22.3,85.939c0.5-3.739,1.58-8.26,5.41-9.899c-1.04,3.34-3.39,6.28-3.35,9.95c-0.43,2.619,1.58,4.5,3.2,6.21
	C24.02,93.3,21.74,88.91,22.3,85.939z"/>
<path d="M37.79,88.12c-0.04-2.261,1.63-4.75,4.16-4.29c12.24,0.48,23.96,4.34,35.729,7.39c-0.209,1.58,1.18,4.8-1,5.271
	c-0.35-1.381-0.55-2.78-0.8-4.17c-5.55-1.021-10.94-2.67-16.4-4.08c-5.77-1.48-11.71-2.12-17.6-2.93
	C40.53,86.26,39.18,87.23,37.79,88.12z"/>
<path d="M45.9,89.85c8.03-0.72,16.25,1.141,23.26,5.041c-4.33,0.14-8.13-2.381-12.26-3.32C53.24,90.98,49.32,91.55,45.9,89.85z"/>
<path d="M87.609,90.45C88,90.08,88.4,89.7,88.79,89.33c1.399,2.779,1.97,6.6-0.11,9.2c-2.32,3.12-5.26,5.8-8.689,7.659
	c1-4.609,7.59-6.25,8.49-11.17C88.48,93.45,87.98,91.95,87.609,90.45z"/>
</svg>
