<?xml version="1.0" encoding="UTF-8" ?>
<!DOCTYPE svg PUBLIC "-//W3C//DTD SVG 1.1//EN" "http://www.w3.org/Graphics/SVG/1.1/DTD/svg11.dtd">
<svg width="375pt" height="258pt" viewBox="0 0 375 258" version="1.1" xmlns="http://www.w3.org/2000/svg">
<g id="#fefefdff">
<path fill="#fefefd" opacity="1.00" d=" M 0.00 0.00 L 375.00 0.00 L 375.00 258.00 L 358.37 258.00 C 358.58 253.22 356.44 248.74 356.68 243.97 C 356.41 240.14 360.44 238.21 362.46 235.49 C 365.88 232.88 365.96 228.25 366.94 224.42 C 367.72 221.80 368.10 218.95 367.26 216.30 C 365.23 210.49 367.36 204.20 365.82 198.31 C 363.92 191.84 365.55 185.04 364.64 178.47 C 362.24 175.27 357.85 175.47 354.36 176.29 C 352.15 176.90 352.85 179.30 352.64 181.01 C 352.77 185.24 349.81 188.76 349.58 192.96 C 344.99 192.94 339.96 192.13 336.17 195.32 C 332.05 191.48 325.29 192.10 321.83 196.50 C 318.38 190.79 315.25 184.73 314.48 177.99 C 314.48 174.21 311.05 171.62 307.95 170.08 C 311.17 162.02 306.69 153.96 305.03 146.12 C 304.27 141.63 301.44 137.67 301.51 133.04 C 301.68 129.07 299.58 125.59 298.81 121.80 C 297.86 116.37 295.30 111.34 294.74 105.82 C 294.40 99.25 290.53 93.43 290.47 86.81 C 290.85 82.37 286.13 79.91 285.55 75.74 C 284.96 73.60 285.19 71.07 283.60 69.35 C 278.53 64.09 278.41 56.25 274.71 50.18 C 269.81 41.97 262.04 36.03 254.31 30.66 C 251.39 28.76 248.07 27.66 244.93 26.19 C 238.94 23.21 233.19 19.77 227.27 16.64 C 225.30 15.61 223.23 14.62 220.97 14.52 C 212.62 13.85 204.35 12.01 195.94 12.34 C 191.41 12.70 187.42 10.12 183.02 9.62 C 175.35 8.45 167.33 7.82 159.79 10.04 C 155.25 11.13 150.19 9.71 146.03 12.35 C 136.86 17.86 126.32 20.29 115.92 22.25 C 109.62 23.25 104.68 27.52 99.14 30.32 C 92.99 33.43 86.93 36.76 80.70 39.72 C 74.91 42.29 71.94 48.33 66.92 51.93 C 63.91 54.26 60.31 55.83 57.78 58.77 C 53.03 64.00 46.78 67.73 42.67 73.57 C 40.38 77.06 38.82 81.00 37.86 85.05 C 36.82 89.75 33.45 93.51 32.46 98.22 C 30.47 105.27 31.90 112.64 31.21 119.81 C 29.97 125.86 27.24 131.52 26.33 137.65 C 25.20 146.27 23.53 155.00 24.85 163.70 C 25.95 169.43 27.66 175.11 27.36 181.00 C 27.10 185.88 30.59 190.02 30.26 194.91 C 29.97 200.98 30.95 206.96 31.66 212.96 C 32.38 216.65 34.34 220.06 34.27 223.91 C 34.11 229.06 35.95 233.94 36.44 239.01 C 36.76 245.42 37.81 251.78 39.33 258.00 L 0.00 258.00 L 0.00 0.00 Z" />
<path fill="#fefefd" opacity="1.00" d=" M 200.42 19.22 C 206.00 19.84 211.48 21.72 216.19 24.78 C 210.80 23.55 205.81 20.71 200.22 20.43 C 200.27 20.13 200.37 19.52 200.42 19.22 Z" />
<path fill="#fefefd" opacity="1.00" d=" M 123.81 31.76 C 130.14 31.10 135.59 27.86 141.36 25.47 C 136.54 29.49 130.21 32.46 123.81 31.76 Z" />
<path fill="#fefefd" opacity="1.00" d=" M 189.24 31.12 C 193.63 30.89 198.17 30.30 202.46 31.58 C 198.05 32.01 193.61 31.74 189.19 31.81 L 189.24 31.12 Z" />
<path fill="#fefefd" opacity="1.00" d=" M 234.87 32.05 C 239.66 32.03 242.67 36.58 247.34 36.88 C 247.44 37.39 247.64 38.41 247.74 38.93 C 243.30 36.94 238.93 34.74 234.87 32.05 Z" />
<path fill="#fefefd" opacity="1.00" d=" M 130.92 39.92 C 133.08 38.21 135.60 37.05 138.21 36.20 C 136.31 38.30 133.81 39.83 130.92 39.92 Z" />
<path fill="#fefefd" opacity="1.00" d=" M 160.49 37.50 C 164.19 37.14 168.01 36.02 171.67 37.23 C 184.19 40.56 197.22 39.17 210.00 39.40 C 216.66 39.21 223.14 40.91 229.65 42.02 C 233.83 42.80 237.53 44.99 241.45 46.51 C 244.69 47.86 248.27 48.66 250.99 51.02 C 255.30 54.57 259.84 57.93 263.37 62.30 C 261.52 62.70 259.68 63.13 257.82 63.46 C 252.42 63.34 247.41 65.53 242.16 66.36 C 238.72 66.92 235.43 68.13 232.02 68.79 C 226.00 70.27 219.70 70.04 213.72 71.67 C 210.75 72.54 207.64 72.48 204.59 72.67 C 205.53 73.98 206.43 75.32 207.54 76.50 C 214.63 75.32 221.84 74.87 228.97 73.78 C 235.57 73.86 242.23 73.44 248.60 71.52 C 253.60 69.68 259.22 70.32 264.03 67.85 C 265.27 67.63 266.50 67.63 267.72 67.85 C 270.23 70.58 271.76 74.01 274.02 76.93 C 277.57 81.19 276.38 87.29 279.19 91.96 C 280.56 98.83 283.90 105.13 284.65 112.13 C 286.74 123.87 289.90 135.54 289.69 147.55 C 282.41 149.74 281.10 158.35 281.24 164.88 C 281.44 168.22 278.13 169.84 275.89 171.59 C 275.51 174.28 274.75 176.89 273.58 179.34 C 271.89 182.90 272.80 186.94 272.83 190.71 C 270.90 190.54 268.96 190.39 267.06 190.05 C 266.03 189.61 265.01 189.16 264.00 188.70 C 256.94 185.61 248.54 189.57 241.66 186.45 C 241.03 181.68 241.87 176.84 241.32 172.07 C 240.06 169.39 237.97 166.86 238.74 163.68 C 240.03 165.92 241.27 168.20 242.70 170.37 C 244.07 170.58 245.46 170.58 246.85 170.65 C 243.98 165.20 241.38 159.43 237.03 154.95 C 234.22 151.77 231.78 148.09 227.98 145.98 C 226.23 144.70 224.02 145.48 222.10 145.76 C 225.57 149.06 229.97 151.25 233.20 154.81 C 235.24 156.95 236.64 159.58 237.96 162.20 C 232.75 160.18 228.94 154.53 222.88 155.29 C 222.26 154.26 221.69 153.20 220.95 152.25 C 214.94 150.73 208.27 153.20 202.62 150.12 C 209.06 148.66 215.58 146.56 220.62 142.12 C 220.30 140.47 219.98 138.82 219.62 137.18 C 218.73 132.23 213.96 129.03 213.29 124.00 C 212.46 119.94 210.85 116.05 210.43 111.92 C 209.88 106.22 215.47 101.83 214.28 96.07 C 213.05 89.33 207.17 84.96 201.68 81.63 C 200.72 81.59 199.76 81.59 198.81 81.64 C 200.88 86.90 207.51 88.06 209.70 93.33 C 212.85 99.09 207.73 104.54 206.67 110.07 C 206.43 114.92 208.89 119.36 209.47 124.10 C 209.80 129.90 215.88 133.33 216.42 139.00 C 216.82 141.33 214.59 142.83 212.76 143.68 C 208.35 145.46 203.79 146.81 199.26 148.20 C 194.83 149.53 190.19 149.27 185.62 149.23 C 180.54 147.64 175.40 146.22 170.34 144.56 C 170.60 140.09 172.41 135.70 171.32 131.19 C 167.90 131.93 164.56 133.13 161.07 133.50 C 159.51 132.84 158.17 131.81 156.77 130.89 C 160.00 128.19 165.62 128.99 167.44 124.74 C 163.52 124.56 159.63 125.63 156.07 127.17 C 153.69 128.22 154.32 131.29 154.64 133.34 C 156.06 134.66 157.76 135.67 159.56 136.40 C 162.33 136.92 165.10 135.93 167.84 135.55 C 167.66 138.88 166.23 142.15 166.62 145.48 C 168.49 148.48 172.71 148.19 175.73 149.27 C 176.56 149.59 177.39 149.93 178.21 150.28 C 175.73 150.88 173.27 151.56 170.91 152.54 C 167.97 151.81 165.35 152.67 163.69 155.26 C 161.34 154.52 159.04 152.95 156.48 153.41 C 155.25 154.64 154.36 156.16 153.40 157.61 C 151.57 157.54 149.73 157.46 147.90 157.40 C 147.07 158.56 146.26 159.73 145.45 160.90 C 144.45 160.60 143.45 160.29 142.46 159.98 C 144.44 158.10 146.23 155.99 148.48 154.42 C 151.11 152.52 154.35 151.41 156.41 148.79 C 151.37 148.16 147.26 151.71 143.53 154.55 C 141.13 157.52 138.44 160.40 136.72 163.83 C 133.49 173.70 138.26 183.84 137.69 193.88 C 137.20 193.98 136.23 194.18 135.74 194.29 C 130.93 193.64 126.39 191.99 121.81 190.49 C 115.97 189.44 110.09 188.57 104.18 188.05 C 101.63 187.49 99.09 186.88 96.56 186.29 C 96.57 184.66 96.57 183.04 96.57 181.43 C 95.80 180.94 95.03 180.46 94.27 179.99 C 93.38 176.71 91.90 173.66 90.41 170.63 C 88.09 169.87 85.69 169.24 83.56 168.03 C 83.12 163.96 83.41 159.85 83.33 155.77 C 81.65 154.40 80.04 152.95 78.47 151.45 C 80.28 146.85 81.78 141.99 81.57 136.99 C 81.18 129.09 84.68 121.83 86.86 114.45 C 87.61 109.58 89.15 104.90 90.88 100.30 C 91.29 100.45 92.11 100.77 92.52 100.93 C 94.58 102.14 96.99 101.54 98.61 99.89 C 98.85 98.88 99.08 97.88 99.30 96.87 C 100.21 96.65 101.14 96.42 102.06 96.20 C 105.83 95.34 109.57 94.37 113.29 93.33 C 113.34 92.76 113.46 91.62 113.52 91.04 C 109.58 91.12 105.82 92.33 101.98 93.05 C 99.47 93.33 96.95 93.19 94.43 93.14 C 98.30 85.94 99.51 76.95 105.97 71.43 C 108.33 74.56 112.59 73.97 116.04 74.55 C 124.40 75.52 133.08 75.44 141.05 78.43 C 144.40 78.93 147.82 78.58 151.19 79.07 C 146.65 79.68 141.77 78.45 137.54 80.59 C 133.25 82.39 130.07 85.93 126.33 88.59 C 126.61 91.08 125.43 94.47 127.87 96.16 C 131.07 97.52 134.64 97.49 138.01 98.24 C 141.80 98.78 145.32 100.39 149.06 101.14 C 155.63 102.13 162.12 100.21 168.56 99.22 C 172.10 98.65 172.74 94.01 172.17 91.10 C 170.81 88.25 169.05 85.34 166.49 83.43 C 162.68 81.81 158.50 81.27 154.69 79.64 C 157.62 79.31 160.50 79.82 163.33 80.51 C 168.15 81.07 173.03 80.74 177.87 80.59 C 177.74 79.28 177.61 77.98 177.47 76.68 C 161.82 75.46 146.30 73.24 130.78 70.97 C 124.84 70.06 118.69 71.57 112.85 69.88 C 111.47 69.43 110.10 68.94 108.73 68.45 C 110.80 66.64 112.87 64.76 114.39 62.44 C 116.20 60.05 117.23 56.61 120.34 55.57 C 125.89 53.60 131.02 50.47 136.81 49.17 C 142.01 47.96 147.46 47.53 152.40 45.37 C 155.82 43.62 158.29 40.56 160.49 37.50 M 197.05 50.74 C 190.89 51.84 184.36 50.93 178.48 53.46 C 175.18 55.19 171.40 53.96 167.88 54.53 C 170.16 58.09 175.18 58.32 178.71 56.66 C 183.16 54.52 188.17 54.54 192.99 54.39 C 198.52 53.48 204.12 52.95 209.71 52.56 C 210.82 52.59 211.29 51.36 212.06 50.78 C 207.27 48.41 202.01 50.17 197.05 50.74 M 213.53 56.69 C 207.53 59.76 200.65 57.80 194.23 58.46 C 188.18 59.21 182.09 59.40 176.04 60.16 C 172.32 60.14 168.59 60.23 165.02 61.40 C 160.01 61.60 154.92 61.84 149.99 60.71 C 145.74 60.30 141.45 60.52 137.20 60.71 C 137.21 61.45 137.25 62.91 137.26 63.64 C 146.90 63.08 156.42 65.28 166.04 64.28 C 174.50 61.46 183.59 63.36 192.28 62.00 C 199.33 60.19 207.04 63.10 213.79 59.90 C 219.62 57.38 226.01 56.79 232.26 56.19 C 232.28 55.42 232.25 54.65 232.17 53.89 C 225.83 52.86 219.50 54.75 213.53 56.69 M 234.02 58.41 C 230.56 58.58 227.48 60.59 224.01 60.52 C 217.09 60.49 210.65 63.35 203.93 64.48 C 199.18 64.52 194.48 65.16 189.81 65.95 C 185.86 66.68 181.77 65.79 177.87 66.89 C 174.00 68.03 169.91 67.37 166.00 68.21 C 159.64 69.12 153.35 67.43 146.99 67.58 C 140.21 67.41 133.60 64.55 126.80 65.71 C 126.61 66.55 126.46 67.40 126.33 68.26 C 131.00 68.24 135.62 68.86 140.18 69.89 C 145.43 71.12 150.90 69.99 156.14 71.22 C 161.08 72.24 166.05 71.16 170.96 70.63 C 175.38 70.94 179.56 69.09 183.98 69.32 C 187.81 69.55 191.54 68.59 195.33 68.28 C 195.62 70.11 195.46 72.55 197.48 73.43 C 199.50 73.85 201.58 73.63 203.63 73.60 C 203.60 73.09 203.56 72.06 203.53 71.55 C 202.35 71.08 201.16 70.62 199.97 70.16 C 200.94 69.31 201.50 67.66 202.96 67.63 C 210.12 66.88 216.82 63.65 224.08 63.65 C 227.27 63.73 230.13 62.13 233.21 61.61 C 238.03 60.93 242.90 60.38 247.53 58.81 C 247.56 58.17 247.60 56.88 247.62 56.24 C 243.03 56.59 238.61 58.04 234.02 58.41 M 237.37 78.22 C 232.76 79.84 227.66 78.90 223.21 81.08 C 221.02 82.15 217.77 83.54 218.35 86.54 C 222.11 89.78 226.30 92.75 231.18 94.02 C 238.51 95.30 245.68 92.65 252.94 92.14 C 255.55 91.67 259.02 91.75 260.28 88.89 C 259.73 84.15 257.38 78.51 251.97 77.95 C 247.15 77.44 242.14 77.26 237.37 78.22 M 227.30 95.12 C 227.26 95.75 227.18 97.02 227.14 97.66 C 229.98 98.03 232.84 98.29 235.70 98.54 C 234.53 99.38 233.37 100.24 232.23 101.12 C 232.99 103.37 235.40 102.44 237.07 101.98 C 241.13 100.63 245.44 101.77 249.62 101.64 C 249.50 100.49 249.37 99.35 249.24 98.21 C 253.37 98.27 257.53 98.40 261.60 97.58 C 261.61 97.05 261.61 96.00 261.62 95.48 C 258.44 94.91 255.22 94.58 251.99 94.72 C 243.77 94.90 235.44 93.89 227.30 95.12 M 117.14 96.02 C 117.28 97.10 117.48 98.17 117.74 99.23 C 122.33 101.58 127.54 102.32 132.10 104.72 C 136.95 107.38 142.59 108.27 148.06 108.40 C 152.93 105.99 158.46 106.24 163.73 105.49 C 163.72 104.86 163.69 103.60 163.68 102.98 C 158.78 101.91 154.01 104.41 149.06 103.49 C 141.89 102.18 134.51 101.84 127.53 99.57 C 123.94 98.76 120.72 96.85 117.14 96.02 M 243.05 104.19 C 243.28 105.21 243.50 106.22 243.73 107.24 C 246.58 107.41 249.46 107.70 252.30 107.31 C 252.51 106.41 252.69 105.51 252.83 104.60 C 249.57 104.38 246.31 104.29 243.05 104.19 M 137.16 111.39 C 141.76 113.25 146.86 112.82 151.62 111.83 C 151.61 111.05 151.60 109.48 151.59 108.69 C 147.32 108.97 142.99 110.60 138.88 108.49 C 136.89 107.42 137.22 110.30 137.16 111.39 M 187.19 110.56 C 188.31 112.42 188.23 115.55 190.67 116.25 C 194.73 117.02 198.89 116.67 202.99 116.41 C 203.29 115.42 203.59 114.42 203.88 113.42 C 201.00 113.48 198.11 113.61 195.23 113.62 C 195.86 112.32 196.47 111.01 197.08 109.70 C 193.76 109.53 190.40 109.60 187.19 110.56 M 138.07 121.20 C 132.73 123.47 128.57 127.61 123.94 130.95 C 120.34 134.24 117.64 138.50 115.61 142.91 C 115.90 143.59 116.48 144.96 116.76 145.65 C 117.38 145.35 118.60 144.76 119.22 144.47 C 120.74 137.85 126.05 132.84 131.50 129.15 C 131.45 130.61 131.44 132.07 131.47 133.53 C 132.04 133.46 133.17 133.32 133.74 133.25 C 136.04 130.59 138.55 128.07 141.78 126.56 C 141.23 125.58 140.66 124.62 140.11 123.65 C 146.06 120.25 153.02 120.47 159.43 118.59 C 159.46 118.05 159.52 116.97 159.55 116.43 C 152.12 116.16 144.79 118.16 138.07 121.20 M 227.28 119.28 C 227.27 119.90 227.25 121.14 227.24 121.77 C 234.82 122.91 241.28 127.40 247.45 131.62 C 250.38 135.42 252.69 139.85 253.60 144.61 C 255.03 145.13 256.59 145.80 257.50 144.07 C 257.17 139.19 252.54 135.78 252.33 130.89 C 252.51 127.10 249.53 124.19 246.86 121.91 C 244.23 120.54 241.57 121.54 239.11 122.69 C 235.39 120.88 231.59 118.87 227.28 119.28 M 197.64 125.62 C 197.66 126.53 197.68 127.44 197.70 128.35 C 199.26 128.36 200.82 128.40 202.38 128.29 C 202.44 127.40 202.44 126.51 202.38 125.62 C 200.80 125.52 199.22 125.58 197.64 125.62 M 230.01 129.37 C 232.03 132.53 235.09 134.75 237.78 137.30 C 238.70 137.35 239.62 137.41 240.55 137.46 C 240.50 136.55 240.44 135.65 240.38 134.74 C 237.10 132.63 234.48 128.22 230.01 129.37 M 96.44 157.12 C 96.80 157.54 97.53 158.39 97.89 158.81 C 101.95 156.31 104.00 151.59 106.76 147.84 C 106.07 147.54 104.68 146.94 103.98 146.64 C 101.40 150.09 98.50 153.33 96.44 157.12 Z" />
<path fill="#fefefd" opacity="1.00" d=" M 256.01 35.92 C 258.81 36.91 259.76 39.88 260.76 42.38 C 258.66 40.66 257.12 38.38 256.01 35.92 Z" />
<path fill="#fefefd" opacity="1.00" d=" M 107.33 50.53 C 111.86 47.23 116.99 44.88 122.23 42.95 C 120.21 45.32 117.14 46.18 114.36 47.29 C 111.24 48.57 108.98 51.18 107.11 53.89 C 107.18 52.77 107.25 51.65 107.33 50.53 Z" />
<path fill="#fefefd" opacity="1.00" d=" M 92.67 49.78 C 94.88 48.59 96.80 46.89 99.16 45.97 C 95.26 50.99 87.91 53.08 81.82 51.83 C 85.43 51.12 89.12 50.79 92.67 49.78 Z" />
<path fill="#fefefd" opacity="1.00" d=" M 66.28 82.25 C 69.64 76.80 72.26 70.39 78.20 67.19 C 77.03 69.29 75.22 70.88 73.66 72.66 C 71.28 75.92 69.63 79.83 66.28 82.25 Z" />
<path fill="#fefefd" opacity="1.00" d=" M 233.96 82.37 C 239.75 80.64 245.88 81.21 251.83 81.40 C 255.07 81.96 255.91 85.57 255.87 88.39 C 247.46 89.14 239.03 92.04 230.56 90.39 C 227.71 89.00 223.63 88.16 223.02 84.51 C 226.46 82.91 230.23 82.62 233.96 82.37 M 239.01 85.41 C 239.75 85.43 241.24 85.47 241.98 85.49 C 241.92 84.85 241.78 83.58 241.71 82.95 C 239.61 81.40 239.24 83.80 239.01 85.41 Z" />
<path fill="#fefefd" opacity="1.00" d=" M 129.70 91.08 C 133.41 86.99 138.00 82.38 143.96 82.59 C 147.25 82.62 150.61 82.34 153.83 83.16 C 158.17 84.46 163.13 85.00 166.16 88.78 C 168.38 90.32 169.80 94.64 166.97 96.11 C 160.55 97.68 153.81 98.35 147.25 97.44 C 141.90 95.46 136.23 94.34 130.52 94.22 C 130.22 93.18 129.95 92.14 129.70 91.08 M 147.51 89.71 C 147.60 90.86 147.67 92.00 147.85 93.14 C 150.16 93.47 152.51 93.37 154.84 93.37 C 154.60 92.06 154.36 90.75 154.08 89.45 C 151.88 89.40 149.69 89.48 147.51 89.71 Z" />
<path fill="#fefefd" opacity="1.00" d=" M 59.18 106.10 C 60.53 100.43 64.14 95.37 68.74 91.84 C 66.61 95.34 63.66 98.30 61.97 102.07 C 61.30 103.58 60.28 104.89 59.18 106.10 Z" />
<path fill="#fefefd" opacity="1.00" d=" M 73.84 108.67 C 74.21 107.54 75.03 106.69 75.86 105.88 C 74.24 110.95 72.40 116.22 68.97 120.37 C 69.91 116.20 72.34 112.62 73.84 108.67 Z" />
<path fill="#fefefd" opacity="1.00" d=" M 292.31 130.99 C 292.51 131.30 292.91 131.91 293.12 132.22 C 293.52 143.79 294.05 155.53 292.67 167.05 C 292.62 166.47 292.53 165.30 292.48 164.72 C 293.30 153.48 293.42 142.20 292.31 130.99 Z" />
<path fill="#fefefd" opacity="1.00" d=" M 192.31 153.03 C 192.77 153.08 193.69 153.18 194.15 153.23 C 194.48 154.67 193.93 156.78 195.70 157.42 C 199.85 159.38 204.54 159.30 208.98 158.58 C 214.14 159.39 219.26 160.95 224.12 162.87 C 227.34 165.21 232.09 166.80 232.86 171.24 C 234.37 177.69 235.75 184.19 236.63 190.76 C 232.01 195.28 234.03 201.96 232.63 207.58 C 230.14 207.72 227.64 207.79 225.15 207.84 C 226.15 204.86 227.00 201.68 226.30 198.54 C 224.61 195.81 221.77 193.72 218.51 193.44 C 216.96 191.47 214.92 189.98 212.30 190.17 C 212.11 188.20 211.89 186.23 211.67 184.26 C 206.90 185.33 202.02 184.99 197.22 184.38 C 196.27 181.33 195.43 178.22 194.00 175.34 C 196.67 175.37 199.34 175.24 201.98 174.75 C 201.74 174.28 201.26 173.34 201.03 172.87 C 200.87 172.62 200.55 172.12 200.39 171.87 C 197.71 171.62 195.02 171.43 192.37 170.95 C 188.02 170.16 183.57 170.49 179.18 170.52 L 179.26 171.17 C 179.25 171.79 179.25 173.02 179.25 173.63 C 182.13 173.70 185.02 173.78 187.90 173.87 C 185.84 176.62 184.31 179.71 182.56 182.66 C 180.75 185.93 176.87 186.95 174.00 189.03 C 172.50 188.06 171.00 187.11 169.47 186.20 C 168.57 188.06 167.70 189.93 166.77 191.78 C 164.49 191.65 162.22 191.44 159.95 191.20 C 159.43 192.00 158.92 192.80 158.41 193.61 C 157.09 192.16 155.42 191.13 153.41 191.06 C 153.24 193.61 153.73 196.13 154.49 198.56 C 154.12 198.78 153.39 199.23 153.02 199.45 C 150.41 198.56 147.81 197.63 145.15 196.91 C 144.76 196.73 143.97 196.37 143.58 196.19 C 144.66 191.42 143.35 186.59 142.76 181.85 C 143.69 176.28 146.04 171.06 149.61 166.68 C 156.78 164.77 163.90 161.32 171.44 161.76 C 164.61 165.31 157.60 170.94 156.01 178.79 C 158.01 178.49 160.59 178.89 161.89 176.97 C 165.29 171.34 171.01 167.47 176.85 164.72 C 184.86 163.82 192.96 164.22 200.97 164.87 C 207.41 166.13 214.09 166.99 220.00 170.07 C 222.61 172.33 223.29 175.99 225.39 178.65 C 226.71 178.53 229.27 179.12 228.50 176.95 C 227.38 172.73 225.37 168.09 221.73 165.47 C 207.55 160.64 192.29 159.52 177.40 160.48 C 177.01 160.00 176.23 159.04 175.83 158.56 C 178.20 158.66 180.54 159.05 182.87 159.42 C 183.93 158.31 184.99 157.21 186.06 156.11 C 188.51 157.38 191.07 158.63 193.85 157.59 C 193.35 156.06 192.83 154.54 192.31 153.03 Z" />
<path fill="#fefefd" opacity="1.00" d=" M 286.45 166.03 C 286.27 162.24 286.68 158.18 289.79 155.59 C 287.93 164.63 287.25 174.11 282.91 182.43 C 282.58 180.35 282.04 178.29 281.89 176.19 C 283.47 172.83 286.85 170.07 286.45 166.03 Z" />
<path fill="#fefefd" opacity="1.00" d=" M 74.68 160.54 C 75.05 160.50 75.80 160.43 76.18 160.40 C 76.38 165.21 77.78 169.91 79.89 174.22 C 81.31 175.41 83.31 175.47 85.02 176.03 C 85.31 180.32 87.63 183.91 91.13 186.32 C 85.67 186.30 80.13 185.81 74.73 186.79 C 73.52 187.03 72.31 187.27 71.10 187.50 C 71.25 183.84 71.42 180.16 72.37 176.60 C 73.76 171.34 73.38 165.82 74.68 160.54 Z" />
<path fill="#fefefd" opacity="1.00" d=" M 300.86 174.20 C 302.57 171.74 305.80 172.78 308.31 172.44 C 311.74 176.84 312.45 182.34 313.38 187.67 C 315.46 191.21 317.49 194.78 319.43 198.40 C 321.65 201.25 323.41 204.44 324.35 207.94 C 322.50 209.43 319.90 209.57 318.00 211.00 C 316.46 212.16 315.09 213.52 313.67 214.83 C 312.72 210.78 309.56 207.56 310.23 203.15 C 307.23 197.56 303.83 192.02 302.39 185.78 C 302.49 181.80 299.97 178.20 300.86 174.20 Z" />
<path fill="#fefefd" opacity="1.00" d=" M 355.53 178.11 C 357.83 178.39 360.93 177.55 362.19 180.12 C 362.68 186.25 361.78 192.46 362.59 198.57 C 364.36 203.53 363.18 208.83 363.73 213.94 C 364.14 216.50 365.39 219.04 364.62 221.67 C 363.52 226.09 363.45 231.42 359.54 234.47 C 356.55 237.08 353.27 240.47 354.17 244.83 C 355.13 249.16 355.75 253.54 355.47 258.00 L 321.49 258.00 C 320.22 255.16 319.71 252.08 319.80 248.98 C 317.10 246.70 314.39 244.43 311.65 242.20 C 311.70 239.21 311.70 236.21 311.72 233.22 C 316.14 229.10 320.92 225.37 326.52 223.00 C 326.65 225.09 326.72 227.19 326.80 229.29 C 330.95 229.53 335.03 228.92 339.09 228.16 C 341.79 227.49 344.00 229.21 346.08 230.63 C 346.91 230.00 347.75 229.37 348.59 228.75 C 348.52 225.41 348.28 221.95 349.81 218.86 C 351.23 215.88 351.32 212.60 351.64 209.39 C 353.33 204.40 352.46 199.09 352.65 193.94 C 352.50 190.38 354.63 187.31 355.32 183.93 C 355.52 181.99 355.48 180.05 355.53 178.11 Z" />
<path fill="#fefefd" opacity="1.00" d=" M 298.21 182.45 C 299.60 182.60 299.83 183.27 298.90 184.46 C 297.50 184.29 297.27 183.62 298.21 182.45 Z" />
<path fill="#fefefd" opacity="1.00" d=" M 278.49 186.36 C 279.42 186.64 280.36 186.93 281.30 187.22 C 280.41 188.43 279.58 189.69 278.64 190.86 C 278.35 190.80 277.77 190.67 277.48 190.60 C 277.78 189.18 278.14 187.77 278.49 186.36 Z" />
<path fill="#fefefd" opacity="1.00" d=" M 187.20 191.80 C 191.92 190.09 197.10 190.68 201.47 193.07 C 196.29 192.87 191.11 192.11 185.93 192.58 C 186.25 192.38 186.89 191.99 187.20 191.80 Z" />
<path fill="#fefefd" opacity="1.00" d=" M 204.07 190.31 C 207.47 190.35 202.58 193.26 204.07 190.31 Z" />
<path fill="#fefefd" opacity="1.00" d=" M 78.58 192.65 C 86.77 191.80 94.94 193.11 102.99 194.50 C 114.39 194.86 125.96 197.43 136.01 202.95 C 139.05 204.41 142.49 204.94 145.37 206.74 C 147.36 208.11 147.16 210.86 147.74 212.95 C 148.03 215.11 149.72 216.65 150.94 218.32 C 149.19 219.97 147.29 221.44 145.21 222.64 C 145.25 218.25 147.18 213.78 145.26 209.52 C 142.11 209.39 138.80 209.35 136.06 211.15 C 131.60 213.09 129.53 219.01 124.17 218.92 C 124.84 213.96 128.64 209.82 127.67 204.60 C 122.40 202.73 117.05 204.71 112.40 207.25 C 110.51 204.40 110.16 200.97 109.63 197.68 C 106.20 197.61 103.16 196.08 100.05 194.86 C 98.85 195.20 97.68 195.58 96.52 196.02 C 98.25 199.31 100.76 202.08 103.70 204.33 C 105.95 206.03 106.00 209.09 106.70 211.59 C 105.72 211.51 103.76 211.36 102.77 211.29 C 95.17 208.85 87.48 206.67 79.94 204.09 C 79.30 201.65 78.47 199.26 77.49 196.94 C 77.85 195.50 78.23 194.08 78.58 192.65 Z" />
<path fill="#fefefd" opacity="1.00" d=" M 171.81 194.61 C 174.17 193.99 176.61 193.62 179.06 193.64 C 177.74 193.99 176.43 194.35 175.12 194.72 C 174.29 194.69 172.64 194.64 171.81 194.61 Z" />
<path fill="#fefefd" opacity="1.00" d=" M 323.93 198.20 C 325.80 195.59 328.79 194.79 331.87 195.16 C 333.97 198.22 336.82 201.29 336.50 205.27 C 333.42 205.17 330.49 206.02 327.57 206.86 C 326.23 204.06 323.27 201.60 323.93 198.20 Z" />
<path fill="#fefefd" opacity="1.00" d=" M 338.13 197.53 C 340.71 194.44 344.75 195.26 348.32 195.24 C 349.79 199.55 351.42 205.19 348.29 209.08 C 345.70 206.93 342.60 205.17 339.13 205.23 C 339.22 202.62 339.19 199.96 338.13 197.53 Z" />
<path fill="#fefefd" opacity="1.00" d=" M 159.36 199.12 C 158.85 197.98 159.26 196.03 160.82 196.15 C 162.37 196.32 161.82 198.32 160.87 198.89 C 160.50 198.95 159.74 199.06 159.36 199.12 Z" />
<path fill="#fefefd" opacity="1.00" d=" M 272.01 201.08 C 275.93 198.95 280.87 197.27 285.00 199.91 C 287.11 200.30 286.97 202.83 286.18 204.34 C 284.20 209.00 282.34 214.00 278.45 217.46 C 276.32 219.44 274.31 221.56 272.06 223.42 C 266.04 224.42 260.27 221.92 255.21 218.92 C 257.38 215.90 259.64 212.90 262.50 210.49 C 265.91 207.59 268.35 203.69 272.01 201.08 Z" />
<path fill="#fefefd" opacity="1.00" d=" M 186.63 203.65 C 190.89 199.61 197.17 200.21 202.55 200.61 C 204.59 201.74 205.79 203.89 205.59 206.22 C 201.51 209.27 198.97 213.96 194.57 216.60 C 191.73 218.43 188.88 220.22 185.90 221.81 C 180.81 224.26 176.57 228.37 170.95 229.68 C 170.14 228.62 169.43 227.47 168.46 226.56 C 165.75 225.93 162.95 226.31 160.21 226.35 C 161.11 223.87 161.94 221.36 162.97 218.93 C 170.31 213.02 180.00 210.55 186.63 203.65 Z" />
<path fill="#fefefd" opacity="1.00" d=" M 76.78 208.22 C 77.54 207.83 78.31 207.47 79.08 207.12 C 80.88 207.71 82.61 208.48 84.39 209.13 C 81.83 209.05 79.30 208.69 76.78 208.22 Z" />
<path fill="#fefefd" opacity="1.00" d=" M 114.14 210.04 C 117.23 208.35 120.60 207.16 124.16 207.15 C 121.15 213.40 120.01 220.27 118.60 226.99 C 118.17 228.60 119.87 229.64 120.62 230.84 C 125.22 225.70 130.17 220.90 135.05 216.03 C 136.89 214.26 139.29 213.29 141.51 212.11 C 142.10 214.52 142.22 216.99 141.37 219.36 C 140.13 223.10 140.07 227.06 140.53 230.94 C 141.93 230.64 143.62 230.86 144.63 229.63 C 148.15 226.14 151.54 222.52 154.88 218.86 C 155.79 217.70 157.25 217.30 158.54 216.73 C 159.42 222.41 154.39 226.89 155.35 232.63 C 159.15 232.18 161.97 229.07 165.85 228.84 C 162.90 233.23 159.35 237.22 157.09 242.05 C 155.21 246.45 150.39 248.06 147.08 251.10 C 144.74 253.32 142.65 255.79 140.30 258.00 L 81.47 258.00 C 81.96 257.95 82.93 257.84 83.42 257.79 C 84.20 257.70 85.77 257.52 86.56 257.44 C 86.60 253.72 86.27 249.98 86.70 246.28 C 88.35 239.00 91.09 231.74 96.07 226.06 C 100.60 221.47 104.65 216.28 110.35 213.04 C 111.65 212.08 112.88 211.04 114.14 210.04 Z" />
<path fill="#fefefd" opacity="1.00" d=" M 323.98 211.09 C 328.48 209.34 332.92 206.72 337.95 207.80 C 335.85 209.33 334.44 211.35 334.65 214.06 C 336.99 215.35 339.30 216.89 341.96 217.46 C 343.83 217.40 345.66 216.97 347.52 216.71 C 347.40 217.27 347.17 218.38 347.05 218.94 C 340.81 219.69 334.32 218.05 328.24 219.93 C 328.10 219.38 327.83 218.27 327.69 217.72 C 324.53 221.52 319.72 222.95 315.69 225.57 C 313.71 227.95 311.65 230.29 308.94 231.87 C 307.94 227.45 310.76 223.61 310.47 219.28 C 312.47 217.77 314.71 216.68 317.03 215.75 C 319.69 214.74 321.35 212.16 323.98 211.09 Z" />
<path fill="#fefefd" opacity="1.00" d=" M 337.02 212.07 C 338.83 210.71 340.69 209.27 342.96 208.78 C 344.87 209.69 346.65 210.90 348.66 211.63 C 348.64 212.24 348.60 213.45 348.57 214.05 C 344.57 214.96 340.37 214.65 337.02 212.07 Z" />
<path fill="#fefefd" opacity="1.00" d=" M 88.83 212.59 C 89.40 212.11 90.54 211.16 91.11 210.68 C 92.20 211.13 93.31 211.56 94.42 211.97 C 92.70 213.14 90.75 213.31 88.83 212.59 Z" />
<path fill="#fefefd" opacity="1.00" d=" M 98.70 213.25 C 99.73 213.56 100.76 213.88 101.79 214.20 C 99.98 216.66 98.04 219.02 96.15 221.43 C 95.98 220.96 95.64 220.02 95.48 219.55 C 96.78 217.57 97.85 215.46 98.70 213.25 Z" />
<path fill="#fefefd" opacity="1.00" d=" M 220.41 216.61 C 223.98 216.59 227.56 216.53 231.12 216.81 C 227.13 218.65 222.87 219.75 218.54 220.42 C 219.14 219.13 219.77 217.87 220.41 216.61 Z" />
<path fill="#fefefd" opacity="1.00" d=" M 227.27 221.80 C 229.74 220.90 232.20 219.84 234.82 219.50 C 237.50 221.01 239.65 223.32 242.34 224.83 C 242.31 230.03 241.77 235.30 242.76 240.45 C 244.32 246.28 241.54 252.08 242.09 258.00 L 233.85 258.00 C 234.56 251.86 230.12 247.37 226.86 242.76 C 226.46 238.25 226.13 233.63 227.24 229.19 C 227.83 226.76 227.56 224.25 227.27 221.80 Z" />
<path fill="#fefefd" opacity="1.00" d=" M 307.58 222.65 C 304.55 224.10 305.85 219.30 307.84 221.92 L 307.58 222.65 Z" />
<path fill="#fefefd" opacity="1.00" d=" M 331.06 221.26 C 332.83 221.29 334.60 221.31 336.37 221.35 C 336.37 222.78 336.38 224.22 336.41 225.66 C 334.30 227.17 331.74 227.07 329.27 226.86 C 329.29 224.82 329.66 222.83 331.06 221.26 Z" />
<path fill="#fefefd" opacity="1.00" d=" M 338.58 221.47 C 341.00 221.32 343.42 221.30 345.84 221.29 C 345.81 223.30 345.77 225.31 345.70 227.32 C 342.35 226.81 340.21 224.21 338.58 221.47 Z" />
<path fill="#fefefd" opacity="1.00" d=" M 217.55 224.61 C 219.51 222.90 222.07 222.37 224.58 222.17 C 225.47 227.95 220.49 232.98 222.39 238.62 C 215.59 238.94 208.51 237.58 201.93 239.63 C 204.04 246.90 210.53 251.55 214.10 258.00 L 196.03 258.00 C 197.24 254.13 198.84 250.16 198.30 246.03 C 196.98 242.65 191.53 240.04 193.87 235.96 C 198.15 233.86 203.21 233.89 207.30 231.34 C 210.79 229.22 214.40 227.24 217.55 224.61 Z" />
<path fill="#fefefd" opacity="1.00" d=" M 305.69 238.58 C 305.26 234.06 304.87 229.31 306.21 224.91 C 306.26 229.02 306.28 233.14 306.16 237.25 C 309.03 238.23 309.25 241.11 309.29 243.70 C 311.95 245.82 314.55 248.02 317.20 250.16 C 317.25 252.90 316.69 256.03 319.08 258.00 L 306.67 258.00 C 306.53 251.52 307.32 244.93 305.69 238.58 Z" />
<path fill="#fefefd" opacity="1.00" d=" M 159.33 243.44 C 160.83 241.66 162.46 239.90 163.21 237.64 C 164.99 240.84 166.77 244.08 169.29 246.78 C 165.63 246.95 162.28 245.44 159.33 243.44 Z" />
<path fill="#fefefd" opacity="1.00" d=" M 179.13 243.55 C 182.76 243.25 185.50 240.38 189.13 240.01 C 189.19 241.58 190.77 243.83 188.66 244.65 C 182.90 245.81 177.17 248.17 171.21 247.17 C 172.70 244.17 176.32 244.29 179.13 243.55 Z" />
<path fill="#fefefd" opacity="1.00" d=" M 55.67 246.66 C 57.41 250.68 58.86 255.01 62.24 258.00 L 55.14 258.00 C 53.46 254.29 54.82 250.37 55.67 246.66 Z" />
<path fill="#fefefd" opacity="1.00" d=" M 154.12 248.31 C 158.11 246.23 162.37 248.27 165.97 250.18 C 168.87 251.96 170.05 255.38 172.04 258.00 L 155.28 258.00 C 158.41 255.16 154.76 251.48 154.12 248.31 Z" />
<path fill="#fefefd" opacity="1.00" d=" M 278.65 250.48 C 280.47 252.76 281.86 255.33 283.02 258.00 L 278.39 258.00 C 278.42 255.49 278.48 252.98 278.65 250.48 Z" />
<path fill="#fefefd" opacity="1.00" d=" M 43.25 251.37 C 45.55 253.35 47.51 255.68 49.46 258.00 L 44.41 258.00 C 43.93 255.80 43.54 253.59 43.25 251.37 Z" />
<path fill="#fefefd" opacity="1.00" d=" M 69.98 251.95 C 72.23 253.78 74.34 255.78 76.22 258.00 L 71.34 258.00 C 70.67 256.03 70.30 253.99 69.98 251.95 Z" />
<path fill="#fefefd" opacity="1.00" d=" M 190.41 252.24 C 193.31 249.41 193.32 256.65 190.35 254.00 C 190.36 253.56 190.39 252.68 190.41 252.24 Z" />
<path fill="#fefefd" opacity="1.00" d=" M 288.34 258.00 C 289.26 256.21 289.92 254.30 290.64 252.42 C 290.67 254.28 290.57 256.14 290.55 258.00 L 288.34 258.00 Z" />
<path fill="#fefefd" opacity="1.00" d=" M 297.50 252.96 C 298.43 254.65 299.34 256.35 300.36 258.00 L 297.48 258.00 C 297.49 256.32 297.49 254.63 297.50 252.96 Z" />
</g>
<g id="#80601bff">
<path fill="#80601b" opacity="1.00" d=" M 159.79 10.04 C 167.33 7.82 175.35 8.45 183.02 9.62 C 187.42 10.12 191.41 12.70 195.94 12.34 C 204.35 12.01 212.62 13.85 220.97 14.52 C 223.23 14.62 225.30 15.61 227.27 16.64 C 233.19 19.77 238.94 23.21 244.93 26.19 C 248.07 27.66 251.39 28.76 254.31 30.66 C 262.04 36.03 269.81 41.97 274.71 50.18 C 278.41 56.25 278.53 64.09 283.60 69.35 C 285.19 71.07 284.96 73.60 285.55 75.74 C 286.13 79.91 290.85 82.37 290.47 86.81 C 290.53 93.43 294.40 99.25 294.74 105.82 C 295.30 111.34 297.86 116.37 298.81 121.80 C 299.58 125.59 301.68 129.07 301.51 133.04 C 301.44 137.67 304.27 141.63 305.03 146.12 C 306.69 153.96 311.17 162.02 307.95 170.08 C 304.96 170.40 300.43 169.62 299.10 173.15 C 297.13 177.29 299.89 181.52 300.17 185.70 C 300.98 194.00 306.85 200.57 308.37 208.68 C 309.90 213.02 309.08 217.62 307.84 221.92 C 305.85 219.30 304.55 224.10 307.58 222.65 C 307.12 223.40 306.66 224.16 306.21 224.91 C 304.87 229.31 305.26 234.06 305.69 238.58 C 307.32 244.93 306.53 251.52 306.67 258.00 L 300.36 258.00 C 299.34 256.35 298.43 254.65 297.50 252.96 C 297.49 254.63 297.49 256.32 297.48 258.00 L 290.55 258.00 C 290.57 256.14 290.67 254.28 290.64 252.42 C 289.92 254.30 289.26 256.21 288.34 258.00 L 283.02 258.00 C 281.86 255.33 280.47 252.76 278.65 250.48 C 278.48 252.98 278.42 255.49 278.39 258.00 L 242.09 258.00 C 241.54 252.08 244.32 246.28 242.76 240.45 C 241.77 235.30 242.31 230.03 242.34 224.83 C 244.41 225.44 246.53 225.83 248.54 226.62 C 257.11 230.91 266.11 235.22 275.85 235.70 C 281.09 236.25 286.43 238.11 291.69 236.72 C 295.68 235.15 297.98 231.09 299.24 227.20 C 300.86 222.20 303.41 217.37 303.48 212.00 C 304.17 205.66 299.57 198.90 293.12 197.93 C 288.73 197.15 284.66 195.24 281.35 192.25 C 283.91 186.81 286.50 181.38 288.50 175.71 C 289.59 171.96 290.56 168.15 292.48 164.72 C 292.53 165.30 292.62 166.47 292.67 167.05 C 294.05 155.53 293.52 143.79 293.12 132.22 C 292.91 131.91 292.51 131.30 292.31 130.99 C 291.31 129.06 290.56 127.01 290.14 124.88 C 288.98 119.24 287.34 113.70 286.58 107.99 C 285.83 102.46 283.33 97.40 281.96 92.03 C 280.80 87.51 279.39 83.06 277.47 78.80 C 277.73 83.22 278.15 87.65 279.19 91.96 C 276.38 87.29 277.57 81.19 274.02 76.93 C 271.76 74.01 270.23 70.58 267.72 67.85 C 266.50 67.63 265.27 67.63 264.03 67.85 C 264.83 67.33 265.63 66.80 266.42 66.27 C 266.01 65.67 265.20 64.48 264.79 63.88 C 262.47 63.72 260.15 63.54 257.82 63.46 C 259.68 63.13 261.52 62.70 263.37 62.30 C 259.84 57.93 255.30 54.57 250.99 51.02 C 248.27 48.66 244.69 47.86 241.45 46.51 C 237.53 44.99 233.83 42.80 229.65 42.02 C 223.14 40.91 216.66 39.21 210.00 39.40 C 197.22 39.17 184.19 40.56 171.67 37.23 C 168.01 36.02 164.19 37.14 160.49 37.50 C 158.29 40.56 155.82 43.62 152.40 45.37 C 147.46 47.53 142.01 47.96 136.81 49.17 C 131.02 50.47 125.89 53.60 120.34 55.57 C 117.23 56.61 116.20 60.05 114.39 62.44 C 112.87 64.76 110.80 66.64 108.73 68.45 C 110.10 68.94 111.47 69.43 112.85 69.88 C 110.45 69.69 107.75 69.46 105.97 71.43 C 99.51 76.95 98.30 85.94 94.43 93.14 C 96.95 93.19 99.47 93.33 101.98 93.05 C 98.77 93.52 95.58 94.19 92.59 95.47 C 95.73 95.87 98.89 96.18 102.06 96.20 C 101.14 96.42 100.21 96.65 99.30 96.87 C 99.08 97.88 98.85 98.88 98.61 99.89 C 97.24 96.67 93.97 99.22 92.52 100.93 C 92.11 100.77 91.29 100.45 90.88 100.30 C 89.15 104.90 87.61 109.58 86.86 114.45 C 84.68 121.83 81.18 129.09 81.57 136.99 C 81.78 141.99 80.28 146.85 78.47 151.45 C 80.04 152.95 81.65 154.40 83.33 155.77 C 83.41 159.85 83.12 163.96 83.56 168.03 C 85.69 169.24 88.09 169.87 90.41 170.63 C 91.90 173.66 93.38 176.71 94.27 179.99 C 95.03 180.46 95.80 180.94 96.57 181.43 C 96.57 183.04 96.57 184.66 96.56 186.29 C 99.09 186.88 101.63 187.49 104.18 188.05 C 99.80 187.73 95.38 187.50 91.13 186.32 C 87.63 183.91 85.31 180.32 85.02 176.03 C 83.31 175.47 81.31 175.41 79.89 174.22 C 77.78 169.91 76.38 165.21 76.18 160.40 C 75.80 160.43 75.05 160.50 74.68 160.54 C 73.38 165.82 73.76 171.34 72.37 176.60 C 71.42 180.16 71.25 183.84 71.10 187.50 C 72.31 187.27 73.52 187.03 74.73 186.79 C 72.47 188.52 70.52 190.62 68.23 192.32 C 66.36 193.66 63.93 193.45 61.75 193.77 C 60.79 196.14 59.76 198.49 58.64 200.79 C 61.68 202.94 64.21 205.78 67.48 207.61 C 71.36 208.32 75.27 205.37 79.08 207.12 C 78.31 207.47 77.54 207.83 76.78 208.22 C 79.30 208.69 81.83 209.05 84.39 209.13 C 86.69 209.32 88.98 209.77 91.11 210.68 C 90.54 211.16 89.40 212.11 88.83 212.59 C 90.75 213.31 92.70 213.14 94.42 211.97 C 95.84 212.41 97.27 212.81 98.70 213.25 C 97.85 215.46 96.78 217.57 95.48 219.55 C 95.64 220.02 95.98 220.96 96.15 221.43 C 92.03 226.61 87.96 231.95 85.19 237.99 C 82.91 244.34 84.15 251.21 83.42 257.79 C 82.93 257.84 81.96 257.95 81.47 258.00 L 76.22 258.00 C 74.34 255.78 72.23 253.78 69.98 251.95 C 70.30 253.99 70.67 256.03 71.34 258.00 L 62.24 258.00 C 58.86 255.01 57.41 250.68 55.67 246.66 C 54.82 250.37 53.46 254.29 55.14 258.00 L 49.46 258.00 C 47.51 255.68 45.55 253.35 43.25 251.37 C 43.54 253.59 43.93 255.80 44.41 258.00 L 39.33 258.00 C 37.81 251.78 36.76 245.42 36.44 239.01 C 35.95 233.94 34.11 229.06 34.27 223.91 C 34.34 220.06 32.38 216.65 31.66 212.96 C 30.95 206.96 29.97 200.98 30.26 194.91 C 30.59 190.02 27.10 185.88 27.36 181.00 C 27.66 175.11 25.95 169.43 24.85 163.70 C 23.53 155.00 25.20 146.27 26.33 137.65 C 27.24 131.52 29.97 125.86 31.21 119.81 C 31.90 112.64 30.47 105.27 32.46 98.22 C 33.45 93.51 36.82 89.75 37.86 85.05 C 38.82 81.00 40.38 77.06 42.67 73.57 C 46.78 67.73 53.03 64.00 57.78 58.77 C 60.31 55.83 63.91 54.26 66.92 51.93 C 71.94 48.33 74.91 42.29 80.70 39.72 C 86.93 36.76 92.99 33.43 99.14 30.32 C 104.68 27.52 109.62 23.25 115.92 22.25 C 126.32 20.29 136.86 17.86 146.03 12.35 C 150.19 9.71 155.25 11.13 159.79 10.04 M 200.42 19.22 C 200.37 19.52 200.27 20.13 200.22 20.43 C 205.81 20.71 210.80 23.55 216.19 24.78 C 211.48 21.72 206.00 19.84 200.42 19.22 M 123.81 31.76 C 130.21 32.46 136.54 29.49 141.36 25.47 C 135.59 27.86 130.14 31.10 123.81 31.76 M 189.24 31.12 L 189.19 31.81 C 193.61 31.74 198.05 32.01 202.46 31.58 C 198.17 30.30 193.63 30.89 189.24 31.12 M 234.87 32.05 C 238.93 34.74 243.30 36.94 247.74 38.93 C 247.64 38.41 247.44 37.39 247.34 36.88 C 242.67 36.58 239.66 32.03 234.87 32.05 M 130.92 39.92 C 133.81 39.83 136.31 38.30 138.21 36.20 C 135.60 37.05 133.08 38.21 130.92 39.92 M 256.01 35.92 C 257.12 38.38 258.66 40.66 260.76 42.38 C 259.76 39.88 258.81 36.91 256.01 35.92 M 107.33 50.53 C 107.25 51.65 107.18 52.77 107.11 53.89 C 108.98 51.18 111.24 48.57 114.36 47.29 C 117.14 46.18 120.21 45.32 122.23 42.95 C 116.99 44.88 111.86 47.23 107.33 50.53 M 92.67 49.78 C 89.12 50.79 85.43 51.12 81.82 51.83 C 87.91 53.08 95.26 50.99 99.16 45.97 C 96.80 46.89 94.88 48.59 92.67 49.78 M 66.28 82.25 C 69.63 79.83 71.28 75.92 73.66 72.66 C 75.22 70.88 77.03 69.29 78.20 67.19 C 72.26 70.39 69.64 76.80 66.28 82.25 M 59.18 106.10 C 60.28 104.89 61.30 103.58 61.97 102.07 C 63.66 98.30 66.61 95.34 68.74 91.84 C 64.14 95.37 60.53 100.43 59.18 106.10 M 73.84 108.67 C 72.34 112.62 69.91 116.20 68.97 120.37 C 72.40 116.22 74.24 110.95 75.86 105.88 C 75.03 106.69 74.21 107.54 73.84 108.67 M 298.21 182.45 C 297.27 183.62 297.50 184.29 298.90 184.46 C 299.83 183.27 299.60 182.60 298.21 182.45 Z" />
<path fill="#80601b" opacity="1.00" d=" M 185.62 149.23 C 190.19 149.27 194.83 149.53 199.26 148.20 C 196.08 149.30 192.79 149.99 189.51 150.73 C 193.59 153.28 198.31 150.55 202.62 150.12 C 208.27 153.20 214.94 150.73 220.95 152.25 C 221.69 153.20 222.26 154.26 222.88 155.29 C 228.94 154.53 232.75 160.18 237.96 162.20 C 238.16 162.57 238.54 163.31 238.74 163.68 C 237.97 166.86 240.06 169.39 241.32 172.07 C 241.87 176.84 241.03 181.68 241.66 186.45 C 248.54 189.57 256.94 185.61 264.00 188.70 C 258.99 188.40 253.96 188.45 248.95 188.47 C 244.71 188.48 240.87 190.68 236.63 190.76 C 235.75 184.19 234.37 177.69 232.86 171.24 C 232.09 166.80 227.34 165.21 224.12 162.87 C 219.26 160.95 214.14 159.39 208.98 158.58 C 204.54 159.30 199.85 159.38 195.70 157.42 C 193.93 156.78 194.48 154.67 194.15 153.23 C 193.69 153.18 192.77 153.08 192.31 153.03 C 192.83 154.54 193.35 156.06 193.85 157.59 C 191.07 158.63 188.51 157.38 186.06 156.11 C 184.99 157.21 183.93 158.31 182.87 159.42 C 180.54 159.05 178.20 158.66 175.83 158.56 C 176.23 159.04 177.01 160.00 177.40 160.48 C 175.42 160.94 173.45 161.42 171.44 161.76 C 163.90 161.32 156.78 164.77 149.61 166.68 C 146.04 171.06 143.69 176.28 142.76 181.85 C 143.35 186.59 144.66 191.42 143.58 196.19 C 143.97 196.37 144.76 196.73 145.15 196.91 C 142.00 196.09 138.88 195.14 135.74 194.29 C 136.23 194.18 137.20 193.98 137.69 193.88 C 138.26 183.84 133.49 173.70 136.72 163.83 C 136.77 165.95 136.92 168.08 137.05 170.20 C 137.81 166.32 139.23 162.47 142.46 159.98 C 143.45 160.29 144.45 160.60 145.45 160.90 C 146.26 159.73 147.07 158.56 147.90 157.40 C 149.73 157.46 151.57 157.54 153.40 157.61 C 154.36 156.16 155.25 154.64 156.48 153.41 C 159.04 152.95 161.34 154.52 163.69 155.26 C 165.35 152.67 167.97 151.81 170.91 152.54 C 173.27 151.56 175.73 150.88 178.21 150.28 C 177.39 149.93 176.56 149.59 175.73 149.27 C 179.00 149.94 182.55 151.29 185.62 149.23 Z" />
<path fill="#80601b" opacity="1.00" d=" M 289.69 147.55 C 289.97 150.22 290.21 152.92 289.79 155.59 C 286.68 158.18 286.27 162.24 286.45 166.03 C 286.85 170.07 283.47 172.83 281.89 176.19 C 282.04 178.29 282.58 180.35 282.91 182.43 C 282.96 183.02 283.06 184.19 283.11 184.77 C 282.50 185.58 281.90 186.40 281.30 187.22 C 280.36 186.93 279.42 186.64 278.49 186.36 C 278.14 187.77 277.78 189.18 277.48 190.60 C 277.77 190.67 278.35 190.80 278.64 190.86 C 274.99 192.74 270.75 190.98 267.06 190.05 C 268.96 190.39 270.90 190.54 272.83 190.71 C 272.80 186.94 271.89 182.90 273.58 179.34 C 274.75 176.89 275.51 174.28 275.89 171.59 C 278.13 169.84 281.44 168.22 281.24 164.88 C 281.10 158.35 282.41 149.74 289.69 147.55 Z" />
<path fill="#80601b" opacity="1.00" d=" M 176.85 164.72 C 184.57 161.85 193.12 163.24 200.97 164.87 C 192.96 164.22 184.86 163.82 176.85 164.72 Z" />
<path fill="#80601b" opacity="1.00" d=" M 179.26 171.17 C 179.38 171.74 179.63 172.87 179.76 173.44 C 184.11 173.64 188.58 173.29 192.37 170.95 C 195.02 171.43 197.71 171.62 200.39 171.87 C 200.55 172.12 200.87 172.62 201.03 172.87 C 198.10 172.62 195.19 172.36 192.28 172.02 C 192.86 173.12 193.44 174.22 194.00 175.34 C 195.43 178.22 196.27 181.33 197.22 184.38 C 202.02 184.99 206.90 185.33 211.67 184.26 C 211.89 186.23 212.11 188.20 212.30 190.17 C 214.92 189.98 216.96 191.47 218.51 193.44 C 212.83 193.29 207.12 193.80 201.47 193.07 C 197.10 190.68 191.92 190.09 187.20 191.80 C 186.89 191.99 186.25 192.38 185.93 192.58 C 183.74 193.43 181.38 193.54 179.06 193.64 C 176.61 193.62 174.17 193.99 171.81 194.61 C 172.64 194.64 174.29 194.69 175.12 194.72 C 170.63 196.88 165.79 198.14 160.87 198.89 C 161.82 198.32 162.37 196.32 160.82 196.15 C 159.26 196.03 158.85 197.98 159.36 199.12 C 157.27 199.28 155.08 200.22 153.02 199.45 C 153.39 199.23 154.12 198.78 154.49 198.56 C 153.73 196.13 153.24 193.61 153.41 191.06 C 155.42 191.13 157.09 192.16 158.41 193.61 C 158.92 192.80 159.43 192.00 159.95 191.20 C 162.22 191.44 164.49 191.65 166.77 191.78 C 167.70 189.93 168.57 188.06 169.47 186.20 C 171.00 187.11 172.50 188.06 174.00 189.03 C 176.87 186.95 180.75 185.93 182.56 182.66 C 184.31 179.71 185.84 176.62 187.90 173.87 C 185.02 173.78 182.13 173.70 179.25 173.63 C 179.25 173.02 179.25 171.79 179.26 171.17 M 204.07 190.31 C 202.58 193.26 207.47 190.35 204.07 190.31 Z" />
<path fill="#80601b" opacity="1.00" d=" M 78.58 203.39 C 77.54 199.94 75.92 195.80 78.58 192.65 C 78.23 194.08 77.85 195.50 77.49 196.94 C 78.47 199.26 79.30 201.65 79.94 204.09 C 79.60 203.91 78.92 203.56 78.58 203.39 Z" />
<path fill="#80601b" opacity="1.00" d=" M 96.52 196.02 C 97.68 195.58 98.85 195.20 100.05 194.86 C 103.16 196.08 106.20 197.61 109.63 197.68 C 110.16 200.97 110.51 204.40 112.40 207.25 C 111.95 208.44 111.49 209.62 111.03 210.81 C 112.07 210.56 113.11 210.31 114.14 210.04 C 112.88 211.04 111.65 212.08 110.35 213.04 C 107.81 212.51 105.27 211.98 102.77 211.29 C 103.76 211.36 105.72 211.51 106.70 211.59 C 106.00 209.09 105.95 206.03 103.70 204.33 C 100.76 202.08 98.25 199.31 96.52 196.02 Z" />
</g>
<g id="#040304ff">
<path fill="#040304" opacity="1.00" d=" M 197.05 50.74 C 202.01 50.17 207.27 48.41 212.06 50.78 C 211.29 51.36 210.82 52.59 209.71 52.56 C 204.12 52.95 198.52 53.48 192.99 54.39 C 188.17 54.54 183.16 54.52 178.71 56.66 C 175.18 58.32 170.16 58.09 167.88 54.53 C 171.40 53.96 175.18 55.19 178.48 53.46 C 184.36 50.93 190.89 51.84 197.05 50.74 Z" />
<path fill="#040304" opacity="1.00" d=" M 213.53 56.69 C 219.50 54.75 225.83 52.86 232.17 53.89 C 232.25 54.65 232.28 55.42 232.26 56.19 C 226.01 56.79 219.62 57.38 213.79 59.90 C 207.04 63.10 199.33 60.19 192.28 62.00 C 183.59 63.36 174.50 61.46 166.04 64.28 C 156.42 65.28 146.90 63.08 137.26 63.64 C 137.25 62.91 137.21 61.45 137.20 60.71 C 141.45 60.52 145.74 60.30 149.99 60.71 C 154.92 61.84 160.01 61.60 165.02 61.40 C 168.59 60.23 172.32 60.14 176.04 60.16 C 182.09 59.40 188.18 59.21 194.23 58.46 C 200.65 57.80 207.53 59.76 213.53 56.69 Z" />
<path fill="#040304" opacity="1.00" d=" M 234.02 58.41 C 238.61 58.04 243.03 56.59 247.62 56.24 C 247.60 56.88 247.56 58.17 247.53 58.81 C 242.90 60.38 238.03 60.93 233.21 61.61 C 230.13 62.13 227.27 63.73 224.08 63.65 C 216.82 63.65 210.12 66.88 202.96 67.63 C 201.50 67.66 200.94 69.31 199.97 70.16 C 201.16 70.62 202.35 71.08 203.53 71.55 C 203.56 72.06 203.60 73.09 203.63 73.60 C 201.58 73.63 199.50 73.85 197.48 73.43 C 195.46 72.55 195.62 70.11 195.33 68.28 C 191.54 68.59 187.81 69.55 183.98 69.32 C 179.56 69.09 175.38 70.94 170.96 70.63 C 166.05 71.16 161.08 72.24 156.14 71.22 C 150.90 69.99 145.43 71.12 140.18 69.89 C 135.62 68.86 131.00 68.24 126.33 68.26 C 126.46 67.40 126.61 66.55 126.80 65.71 C 133.60 64.55 140.21 67.41 146.99 67.58 C 153.35 67.43 159.64 69.12 166.00 68.21 C 169.91 67.37 174.00 68.03 177.87 66.89 C 181.77 65.79 185.86 66.68 189.81 65.95 C 194.48 65.16 199.18 64.52 203.93 64.48 C 210.65 63.35 217.09 60.49 224.01 60.52 C 227.48 60.59 230.56 58.58 234.02 58.41 Z" />
<path fill="#040304" opacity="1.00" d=" M 242.16 66.36 C 247.41 65.53 252.42 63.34 257.82 63.46 C 260.15 63.54 262.47 63.72 264.79 63.88 C 265.20 64.48 266.01 65.67 266.42 66.27 C 265.63 66.80 264.83 67.33 264.03 67.85 C 259.22 70.32 253.60 69.68 248.60 71.52 C 242.23 73.44 235.57 73.86 228.97 73.78 C 221.84 74.87 214.63 75.32 207.54 76.50 C 206.43 75.32 205.53 73.98 204.59 72.67 C 207.64 72.48 210.75 72.54 213.72 71.67 C 219.70 70.04 226.00 70.27 232.02 68.79 C 235.43 68.13 238.72 66.92 242.16 66.36 Z" />
<path fill="#040304" opacity="1.00" d=" M 105.97 71.43 C 107.75 69.46 110.45 69.69 112.85 69.88 C 118.69 71.57 124.84 70.06 130.78 70.97 C 146.30 73.24 161.82 75.46 177.47 76.68 C 177.61 77.98 177.74 79.28 177.87 80.59 C 173.03 80.74 168.15 81.07 163.33 80.51 C 160.50 79.82 157.62 79.31 154.69 79.64 C 158.50 81.27 162.68 81.81 166.49 83.43 C 169.05 85.34 170.81 88.25 172.17 91.10 C 172.74 94.01 172.10 98.65 168.56 99.22 C 162.12 100.21 155.63 102.13 149.06 101.14 C 145.32 100.39 141.80 98.78 138.01 98.24 C 134.64 97.49 131.07 97.52 127.87 96.16 C 125.43 94.47 126.61 91.08 126.33 88.59 C 130.07 85.93 133.25 82.39 137.54 80.59 C 141.77 78.45 146.65 79.68 151.19 79.07 C 147.82 78.58 144.40 78.93 141.05 78.43 C 133.08 75.44 124.40 75.52 116.04 74.55 C 112.59 73.97 108.33 74.56 105.97 71.43 M 129.70 91.08 C 129.95 92.14 130.22 93.18 130.52 94.22 C 136.23 94.34 141.90 95.46 147.25 97.44 C 153.81 98.35 160.55 97.68 166.97 96.11 C 169.80 94.64 168.38 90.32 166.16 88.78 C 163.13 85.00 158.17 84.46 153.83 83.16 C 150.61 82.34 147.25 82.62 143.96 82.59 C 138.00 82.38 133.41 86.99 129.70 91.08 Z" />
<path fill="#040304" opacity="1.00" d=" M 237.37 78.22 C 242.14 77.26 247.15 77.44 251.97 77.95 C 257.38 78.51 259.73 84.15 260.28 88.89 C 259.02 91.75 255.55 91.67 252.94 92.14 C 245.68 92.65 238.51 95.30 231.18 94.02 C 226.30 92.75 222.11 89.78 218.35 86.54 C 217.77 83.54 221.02 82.15 223.21 81.08 C 227.66 78.90 232.76 79.84 237.37 78.22 M 233.96 82.37 C 230.23 82.62 226.46 82.91 223.02 84.51 C 223.63 88.16 227.71 89.00 230.56 90.39 C 239.03 92.04 247.46 89.14 255.87 88.39 C 255.91 85.57 255.07 81.96 251.83 81.40 C 245.88 81.21 239.75 80.64 233.96 82.37 Z" />
<path fill="#040304" opacity="1.00" d=" M 277.47 78.80 C 279.39 83.06 280.80 87.51 281.96 92.03 C 283.33 97.40 285.83 102.46 286.58 107.99 C 287.34 113.70 288.98 119.24 290.14 124.88 C 290.56 127.01 291.31 129.06 292.31 130.99 C 293.42 142.20 293.30 153.48 292.48 164.72 C 290.56 168.15 289.59 171.96 288.50 175.71 C 286.50 181.38 283.91 186.81 281.35 192.25 C 284.66 195.24 288.73 197.15 293.12 197.93 C 299.57 198.90 304.17 205.66 303.48 212.00 C 303.41 217.37 300.86 222.20 299.24 227.20 C 297.98 231.09 295.68 235.15 291.69 236.72 C 286.43 238.11 281.09 236.25 275.85 235.70 C 266.11 235.22 257.11 230.91 248.54 226.62 C 246.53 225.83 244.41 225.44 242.34 224.83 C 239.65 223.32 237.50 221.01 234.82 219.50 C 232.20 219.84 229.74 220.90 227.27 221.80 C 227.56 224.25 227.83 226.76 227.24 229.19 C 226.13 233.63 226.46 238.25 226.86 242.76 C 230.12 247.37 234.56 251.86 233.85 258.00 L 214.10 258.00 C 210.53 251.55 204.04 246.90 201.93 239.63 C 208.51 237.58 215.59 238.94 222.39 238.62 C 220.49 232.98 225.47 227.95 224.58 222.17 C 222.07 222.37 219.51 222.90 217.55 224.61 C 214.40 227.24 210.79 229.22 207.30 231.34 C 203.21 233.89 198.15 233.86 193.87 235.96 C 191.53 240.04 196.98 242.65 198.30 246.03 C 198.84 250.16 197.24 254.13 196.03 258.00 L 172.04 258.00 C 170.05 255.38 168.87 251.96 165.97 250.18 C 162.37 248.27 158.11 246.23 154.12 248.31 C 154.76 251.48 158.41 255.16 155.28 258.00 L 140.30 258.00 C 142.65 255.79 144.74 253.32 147.08 251.10 C 150.39 248.06 155.21 246.45 157.09 242.05 C 159.35 237.22 162.90 233.23 165.85 228.84 C 161.97 229.07 159.15 232.18 155.35 232.63 C 154.39 226.89 159.42 222.41 158.54 216.73 C 157.25 217.30 155.79 217.70 154.88 218.86 C 151.54 222.52 148.15 226.14 144.63 229.63 C 143.62 230.86 141.93 230.64 140.53 230.94 C 140.07 227.06 140.13 223.10 141.37 219.36 C 142.22 216.99 142.10 214.52 141.51 212.11 C 139.29 213.29 136.89 214.26 135.05 216.03 C 130.17 220.90 125.22 225.70 120.62 230.84 C 119.87 229.64 118.17 228.60 118.60 226.99 C 120.01 220.27 121.15 213.40 124.16 207.15 C 120.60 207.16 117.23 208.35 114.14 210.04 C 113.11 210.31 112.07 210.56 111.03 210.81 C 111.49 209.62 111.95 208.44 112.40 207.25 C 117.05 204.71 122.40 202.73 127.67 204.60 C 128.64 209.82 124.84 213.96 124.17 218.92 C 129.53 219.01 131.60 213.09 136.06 211.15 C 138.80 209.35 142.11 209.39 145.26 209.52 C 147.18 213.78 145.25 218.25 145.21 222.64 C 147.29 221.44 149.19 219.97 150.94 218.32 C 149.72 216.65 148.03 215.11 147.74 212.95 C 147.16 210.86 147.36 208.11 145.37 206.74 C 142.49 204.94 139.05 204.41 136.01 202.95 C 125.96 197.43 114.39 194.86 102.99 194.50 C 94.94 193.11 86.77 191.80 78.58 192.65 C 75.92 195.80 77.54 199.94 78.58 203.39 C 78.92 203.56 79.60 203.91 79.94 204.09 C 87.48 206.67 95.17 208.85 102.77 211.29 C 105.27 211.98 107.81 212.51 110.35 213.04 C 104.65 216.28 100.60 221.47 96.07 226.06 C 91.09 231.74 88.35 239.00 86.70 246.28 C 86.27 249.98 86.60 253.72 86.56 257.44 C 85.77 257.52 84.20 257.70 83.42 257.79 C 84.15 251.21 82.91 244.34 85.19 237.99 C 87.96 231.95 92.03 226.61 96.15 221.43 C 98.04 219.02 99.98 216.66 101.79 214.20 C 100.76 213.88 99.73 213.56 98.70 213.25 C 97.27 212.81 95.84 212.41 94.42 211.97 C 93.31 211.56 92.20 211.13 91.11 210.68 C 88.98 209.77 86.69 209.32 84.39 209.13 C 82.61 208.48 80.88 207.71 79.08 207.12 C 75.27 205.37 71.36 208.32 67.48 207.61 C 64.21 205.78 61.68 202.94 58.64 200.79 C 59.76 198.49 60.79 196.14 61.75 193.77 C 63.93 193.45 66.36 193.66 68.23 192.32 C 70.52 190.62 72.47 188.52 74.73 186.79 C 80.13 185.81 85.67 186.30 91.13 186.32 C 95.38 187.50 99.80 187.73 104.18 188.05 C 110.09 188.57 115.97 189.44 121.81 190.49 C 126.39 191.99 130.93 193.64 135.74 194.29 C 138.88 195.14 142.00 196.09 145.15 196.91 C 147.81 197.63 150.41 198.56 153.02 199.45 C 155.08 200.22 157.27 199.28 159.36 199.12 C 159.74 199.06 160.50 198.95 160.87 198.89 C 165.79 198.14 170.63 196.88 175.12 194.72 C 176.43 194.35 177.74 193.99 179.06 193.64 C 181.38 193.54 183.74 193.43 185.93 192.58 C 191.11 192.11 196.29 192.87 201.47 193.07 C 207.12 193.80 212.83 193.29 218.51 193.44 C 221.77 193.72 224.61 195.81 226.30 198.54 C 227.00 201.68 226.15 204.86 225.15 207.84 C 227.64 207.79 230.14 207.72 232.63 207.58 C 234.03 201.96 232.01 195.28 236.63 190.76 C 240.87 190.68 244.71 188.48 248.95 188.47 C 253.96 188.45 258.99 188.40 264.00 188.70 C 265.01 189.16 266.03 189.61 267.06 190.05 C 270.75 190.98 274.99 192.74 278.64 190.86 C 279.58 189.69 280.41 188.43 281.30 187.22 C 281.90 186.40 282.50 185.58 283.11 184.77 C 283.06 184.19 282.96 183.02 282.91 182.43 C 287.25 174.11 287.93 164.63 289.79 155.59 C 290.21 152.92 289.97 150.22 289.69 147.55 C 289.90 135.54 286.74 123.87 284.65 112.13 C 283.90 105.13 280.56 98.83 279.19 91.96 C 278.15 87.65 277.73 83.22 277.47 78.80 M 272.01 201.08 C 268.35 203.69 265.91 207.59 262.50 210.49 C 259.64 212.90 257.38 215.90 255.21 218.92 C 260.27 221.92 266.04 224.42 272.06 223.42 C 274.31 221.56 276.32 219.44 278.45 217.46 C 282.34 214.00 284.20 209.00 286.18 204.34 C 286.97 202.83 287.11 200.30 285.00 199.91 C 280.87 197.27 275.93 198.95 272.01 201.08 M 186.63 203.65 C 180.00 210.55 170.31 213.02 162.97 218.93 C 161.94 221.36 161.11 223.87 160.21 226.35 C 162.95 226.31 165.75 225.93 168.46 226.56 C 169.43 227.47 170.14 228.62 170.95 229.68 C 176.57 228.37 180.81 224.26 185.90 221.81 C 188.88 220.22 191.73 218.43 194.57 216.60 C 198.97 213.96 201.51 209.27 205.59 206.22 C 205.79 203.89 204.59 201.74 202.55 200.61 C 197.17 200.21 190.89 199.61 186.63 203.65 M 220.41 216.61 C 219.77 217.87 219.14 219.13 218.54 220.42 C 222.87 219.75 227.13 218.65 231.12 216.81 C 227.56 216.53 223.98 216.59 220.41 216.61 M 159.33 243.44 C 162.28 245.44 165.63 246.95 169.29 246.78 C 166.77 244.08 164.99 240.84 163.21 237.64 C 162.46 239.90 160.83 241.66 159.33 243.44 M 179.13 243.55 C 176.32 244.29 172.70 244.17 171.21 247.17 C 177.17 248.17 182.90 245.81 188.66 244.65 C 190.77 243.83 189.19 241.58 189.13 240.01 C 185.50 240.38 182.76 243.25 179.13 243.55 M 190.41 252.24 C 190.39 252.68 190.36 253.56 190.35 254.00 C 193.32 256.65 193.31 249.41 190.41 252.24 Z" />
<path fill="#040304" opacity="1.00" d=" M 198.81 81.64 C 199.76 81.59 200.72 81.59 201.68 81.63 C 207.17 84.96 213.05 89.33 214.28 96.07 C 215.47 101.83 209.88 106.22 210.43 111.92 C 210.85 116.05 212.46 119.94 213.29 124.00 C 213.96 129.03 218.73 132.23 219.62 137.18 C 219.98 138.82 220.30 140.47 220.62 142.12 C 215.58 146.56 209.06 148.66 202.62 150.12 C 198.31 150.55 193.59 153.28 189.51 150.73 C 192.79 149.99 196.08 149.30 199.26 148.20 C 203.79 146.81 208.35 145.46 212.76 143.68 C 214.59 142.83 216.82 141.33 216.42 139.00 C 215.88 133.33 209.80 129.90 209.47 124.10 C 208.89 119.36 206.43 114.92 206.67 110.07 C 207.73 104.54 212.85 99.09 209.70 93.33 C 207.51 88.06 200.88 86.90 198.81 81.64 Z" />
<path fill="#040304" opacity="1.00" d=" M 239.01 85.41 C 239.24 83.80 239.61 81.40 241.71 82.95 C 241.78 83.58 241.92 84.85 241.98 85.49 C 241.24 85.47 239.75 85.43 239.01 85.41 Z" />
<path fill="#040304" opacity="1.00" d=" M 147.51 89.71 C 149.69 89.48 151.88 89.40 154.08 89.45 C 154.36 90.75 154.60 92.06 154.84 93.37 C 152.51 93.37 150.16 93.47 147.85 93.14 C 147.67 92.00 147.60 90.86 147.51 89.71 Z" />
<path fill="#040304" opacity="1.00" d=" M 101.98 93.05 C 105.82 92.33 109.58 91.12 113.52 91.04 C 113.46 91.62 113.34 92.76 113.29 93.33 C 109.57 94.37 105.83 95.34 102.06 96.20 C 98.89 96.18 95.73 95.87 92.59 95.47 C 95.58 94.19 98.77 93.52 101.98 93.05 Z" />
<path fill="#040304" opacity="1.00" d=" M 227.30 95.12 C 235.44 93.89 243.77 94.90 251.99 94.72 C 255.22 94.58 258.44 94.91 261.62 95.48 C 261.61 96.00 261.61 97.05 261.60 97.58 C 257.53 98.40 253.37 98.27 249.24 98.21 C 249.37 99.35 249.50 100.49 249.62 101.64 C 245.44 101.77 241.13 100.63 237.07 101.98 C 235.40 102.44 232.99 103.37 232.23 101.12 C 233.37 100.24 234.53 99.38 235.70 98.54 C 232.84 98.29 229.98 98.03 227.14 97.66 C 227.18 97.02 227.26 95.75 227.30 95.12 Z" />
<path fill="#040304" opacity="1.00" d=" M 117.14 96.02 C 120.72 96.85 123.94 98.76 127.53 99.57 C 134.51 101.84 141.89 102.18 149.06 103.49 C 154.01 104.41 158.78 101.91 163.68 102.98 C 163.69 103.60 163.72 104.86 163.73 105.49 C 158.46 106.24 152.93 105.99 148.06 108.40 C 142.59 108.27 136.95 107.38 132.10 104.72 C 127.54 102.32 122.33 101.58 117.74 99.23 C 117.48 98.17 117.28 97.10 117.14 96.02 Z" />
<path fill="#040304" opacity="1.00" d=" M 92.52 100.93 C 93.97 99.22 97.24 96.67 98.61 99.89 C 96.99 101.54 94.58 102.14 92.52 100.93 Z" />
<path fill="#040304" opacity="1.00" d=" M 243.05 104.19 C 246.31 104.29 249.57 104.38 252.83 104.60 C 252.69 105.51 252.51 106.41 252.30 107.31 C 249.46 107.70 246.58 107.41 243.73 107.24 C 243.50 106.22 243.28 105.21 243.05 104.19 Z" />
<path fill="#040304" opacity="1.00" d=" M 137.16 111.39 C 137.22 110.30 136.89 107.42 138.88 108.49 C 142.99 110.60 147.32 108.97 151.59 108.69 C 151.60 109.48 151.61 111.05 151.62 111.83 C 146.86 112.82 141.76 113.25 137.16 111.39 Z" />
<path fill="#040304" opacity="1.00" d=" M 187.19 110.56 C 190.40 109.60 193.76 109.53 197.08 109.70 C 196.47 111.01 195.86 112.32 195.23 113.62 C 198.11 113.61 201.00 113.48 203.88 113.42 C 203.59 114.42 203.29 115.42 202.99 116.41 C 198.89 116.67 194.73 117.02 190.67 116.25 C 188.23 115.55 188.31 112.42 187.19 110.56 Z" />
<path fill="#040304" opacity="1.00" d=" M 138.07 121.20 C 144.79 118.16 152.12 116.16 159.55 116.43 C 159.52 116.97 159.46 118.05 159.43 118.59 C 153.02 120.47 146.06 120.25 140.11 123.65 C 140.66 124.62 141.23 125.58 141.78 126.56 C 138.55 128.07 136.04 130.59 133.74 133.25 C 133.17 133.32 132.04 133.46 131.47 133.53 C 131.44 132.07 131.45 130.61 131.50 129.15 C 126.05 132.84 120.74 137.85 119.22 144.47 C 118.60 144.76 117.38 145.35 116.76 145.65 C 116.48 144.96 115.90 143.59 115.61 142.91 C 117.64 138.50 120.34 134.24 123.94 130.95 C 128.57 127.61 132.73 123.47 138.07 121.20 Z" />
<path fill="#040304" opacity="1.00" d=" M 227.28 119.28 C 231.59 118.87 235.39 120.88 239.11 122.69 C 241.57 121.54 244.23 120.54 246.86 121.91 C 249.53 124.19 252.51 127.10 252.33 130.89 C 252.54 135.78 257.17 139.19 257.50 144.07 C 256.59 145.80 255.03 145.13 253.60 144.61 C 252.69 139.85 250.38 135.42 247.45 131.62 C 241.28 127.40 234.82 122.91 227.24 121.77 C 227.25 121.14 227.27 119.90 227.28 119.28 Z" />
<path fill="#040304" opacity="1.00" d=" M 156.07 127.17 C 159.63 125.63 163.52 124.56 167.44 124.74 C 165.62 128.99 160.00 128.19 156.77 130.89 C 158.17 131.81 159.51 132.84 161.07 133.50 C 164.56 133.13 167.90 131.93 171.32 131.19 C 172.41 135.70 170.60 140.09 170.34 144.56 C 175.40 146.22 180.54 147.64 185.62 149.23 C 182.55 151.29 179.00 149.94 175.73 149.27 C 172.71 148.19 168.49 148.48 166.62 145.48 C 166.23 142.15 167.66 138.88 167.84 135.55 C 165.10 135.93 162.33 136.92 159.56 136.40 C 157.76 135.67 156.06 134.66 154.64 133.34 C 154.32 131.29 153.69 128.22 156.07 127.17 Z" />
<path fill="#040304" opacity="1.00" d=" M 197.64 125.62 C 199.22 125.58 200.80 125.52 202.38 125.62 C 202.44 126.51 202.44 127.40 202.38 128.29 C 200.82 128.40 199.26 128.36 197.70 128.35 C 197.68 127.44 197.66 126.53 197.64 125.62 Z" />
<path fill="#040304" opacity="1.00" d=" M 230.01 129.37 C 234.48 128.22 237.10 132.63 240.38 134.74 C 240.44 135.65 240.50 136.55 240.55 137.46 C 239.62 137.41 238.70 137.35 237.78 137.30 C 235.09 134.75 232.03 132.53 230.01 129.37 Z" />
<path fill="#040304" opacity="1.00" d=" M 222.10 145.76 C 224.02 145.48 226.23 144.70 227.98 145.98 C 231.78 148.09 234.22 151.77 237.03 154.95 C 241.38 159.43 243.98 165.20 246.85 170.65 C 245.46 170.58 244.07 170.58 242.70 170.37 C 241.27 168.20 240.03 165.92 238.74 163.68 C 238.54 163.31 238.16 162.57 237.96 162.20 C 236.64 159.58 235.24 156.95 233.20 154.81 C 229.97 151.25 225.57 149.06 222.10 145.76 Z" />
<path fill="#040304" opacity="1.00" d=" M 96.44 157.12 C 98.50 153.33 101.40 150.09 103.98 146.64 C 104.68 146.94 106.07 147.54 106.76 147.84 C 104.00 151.59 101.95 156.31 97.89 158.81 C 97.53 158.39 96.80 157.54 96.44 157.12 Z" />
<path fill="#040304" opacity="1.00" d=" M 143.53 154.55 C 147.26 151.71 151.37 148.16 156.41 148.79 C 154.35 151.41 151.11 152.52 148.48 154.42 C 146.23 155.99 144.44 158.10 142.46 159.98 C 139.23 162.47 137.81 166.32 137.05 170.20 C 136.92 168.08 136.77 165.95 136.72 163.83 C 138.44 160.40 141.13 157.52 143.53 154.55 Z" />
<path fill="#040304" opacity="1.00" d=" M 177.40 160.48 C 192.29 159.52 207.55 160.64 221.73 165.47 C 225.37 168.09 227.38 172.73 228.50 176.95 C 229.27 179.12 226.71 178.53 225.39 178.65 C 223.29 175.99 222.61 172.33 220.00 170.07 C 214.09 166.99 207.41 166.13 200.97 164.87 C 193.12 163.24 184.57 161.85 176.85 164.72 C 171.01 167.47 165.29 171.34 161.89 176.97 C 160.59 178.89 158.01 178.49 156.01 178.79 C 157.60 170.94 164.61 165.31 171.44 161.76 C 173.45 161.42 175.42 160.94 177.40 160.48 Z" />
<path fill="#040304" opacity="1.00" d=" M 179.18 170.52 C 183.57 170.49 188.02 170.16 192.37 170.95 C 188.58 173.29 184.11 173.64 179.76 173.44 C 179.63 172.87 179.38 171.74 179.26 171.17 L 179.18 170.52 Z" />
<path fill="#040304" opacity="1.00" d=" M 299.10 173.15 C 300.43 169.62 304.96 170.40 307.95 170.08 C 311.05 171.62 314.48 174.21 314.48 177.99 C 315.25 184.73 318.38 190.79 321.83 196.50 C 325.29 192.10 332.05 191.48 336.17 195.32 C 339.96 192.13 344.99 192.94 349.58 192.96 C 349.81 188.76 352.77 185.24 352.64 181.01 C 352.85 179.30 352.15 176.90 354.36 176.29 C 357.85 175.47 362.24 175.27 364.64 178.47 C 365.55 185.04 363.92 191.84 365.82 198.31 C 367.36 204.20 365.23 210.49 367.26 216.30 C 368.10 218.95 367.72 221.80 366.94 224.42 C 365.96 228.25 365.88 232.88 362.46 235.49 C 360.44 238.21 356.41 240.14 356.68 243.97 C 356.44 248.74 358.58 253.22 358.37 258.00 L 355.47 258.00 C 355.75 253.54 355.13 249.16 354.17 244.83 C 353.27 240.47 356.55 237.08 359.54 234.47 C 363.45 231.42 363.52 226.09 364.62 221.67 C 365.39 219.04 364.14 216.50 363.73 213.94 C 363.18 208.83 364.36 203.53 362.59 198.57 C 361.78 192.46 362.68 186.25 362.19 180.12 C 360.93 177.55 357.83 178.39 355.53 178.11 C 355.48 180.05 355.52 181.99 355.32 183.93 C 354.63 187.31 352.50 190.38 352.65 193.94 C 352.46 199.09 353.33 204.40 351.64 209.39 C 351.32 212.60 351.23 215.88 349.81 218.86 C 348.28 221.95 348.52 225.41 348.59 228.75 C 347.75 229.37 346.91 230.00 346.08 230.63 C 344.00 229.21 341.79 227.49 339.09 228.16 C 335.03 228.92 330.95 229.53 326.80 229.29 C 326.72 227.19 326.65 225.09 326.52 223.00 C 320.92 225.37 316.14 229.10 311.72 233.22 C 311.70 236.21 311.70 239.21 311.65 242.20 C 314.39 244.43 317.10 246.70 319.80 248.98 C 319.71 252.08 320.22 255.16 321.49 258.00 L 319.08 258.00 C 316.69 256.03 317.25 252.90 317.20 250.16 C 314.55 248.02 311.95 245.82 309.29 243.70 C 309.25 241.11 309.03 238.23 306.16 237.25 C 306.28 233.14 306.26 229.02 306.21 224.91 C 306.66 224.16 307.12 223.40 307.58 222.65 L 307.84 221.92 C 309.08 217.62 309.90 213.02 308.37 208.68 C 306.85 200.57 300.98 194.00 300.17 185.70 C 299.89 181.52 297.13 177.29 299.10 173.15 M 300.86 174.20 C 299.97 178.20 302.49 181.80 302.39 185.78 C 303.83 192.02 307.23 197.56 310.23 203.15 C 309.56 207.56 312.72 210.78 313.67 214.83 C 315.09 213.52 316.46 212.16 318.00 211.00 C 319.90 209.57 322.50 209.43 324.35 207.94 C 323.41 204.44 321.65 201.25 319.43 198.40 C 317.49 194.78 315.46 191.21 313.38 187.67 C 312.45 182.34 311.74 176.84 308.31 172.44 C 305.80 172.78 302.57 171.74 300.86 174.20 M 323.93 198.20 C 323.27 201.60 326.23 204.06 327.57 206.86 C 330.49 206.02 333.42 205.17 336.50 205.27 C 336.82 201.29 333.97 198.22 331.87 195.16 C 328.79 194.79 325.80 195.59 323.93 198.20 M 338.13 197.53 C 339.19 199.96 339.22 202.62 339.13 205.23 C 342.60 205.17 345.70 206.93 348.29 209.08 C 351.42 205.19 349.79 199.55 348.32 195.24 C 344.75 195.26 340.71 194.44 338.13 197.53 M 323.98 211.09 C 321.35 212.16 319.69 214.74 317.03 215.75 C 314.71 216.68 312.47 217.77 310.47 219.28 C 310.76 223.61 307.94 227.45 308.94 231.87 C 311.65 230.29 313.71 227.95 315.69 225.57 C 319.72 222.95 324.53 221.52 327.69 217.72 C 327.83 218.27 328.10 219.38 328.24 219.93 C 334.32 218.05 340.81 219.69 347.05 218.94 C 347.17 218.38 347.40 217.27 347.52 216.71 C 345.66 216.97 343.83 217.40 341.96 217.46 C 339.30 216.89 336.99 215.35 334.65 214.06 C 334.44 211.35 335.85 209.33 337.95 207.80 C 332.92 206.72 328.48 209.34 323.98 211.09 M 337.02 212.07 C 340.37 214.65 344.57 214.96 348.57 214.05 C 348.60 213.45 348.64 212.24 348.66 211.63 C 346.65 210.90 344.87 209.69 342.96 208.78 C 340.69 209.27 338.83 210.71 337.02 212.07 M 331.06 221.26 C 329.66 222.83 329.29 224.82 329.27 226.86 C 331.74 227.07 334.30 227.17 336.41 225.66 C 336.38 224.22 336.37 222.78 336.37 221.35 C 334.60 221.31 332.83 221.29 331.06 221.26 M 338.58 221.47 C 340.21 224.21 342.35 226.81 345.70 227.32 C 345.77 225.31 345.81 223.30 345.84 221.29 C 343.42 221.30 341.00 221.32 338.58 221.47 Z" />
<path fill="#040304" opacity="1.00" d=" M 192.28 172.02 C 195.19 172.36 198.10 172.62 201.03 172.87 C 201.26 173.34 201.74 174.28 201.98 174.75 C 199.34 175.24 196.67 175.37 194.00 175.34 C 193.44 174.22 192.86 173.12 192.28 172.02 Z" />
</g>
</svg>
