<?xml version="1.0" encoding="UTF-8" ?>
<!DOCTYPE svg PUBLIC "-//W3C//DTD SVG 1.1//EN" "http://www.w3.org/Graphics/SVG/1.1/DTD/svg11.dtd">
<svg width="700pt" height="509pt" viewBox="0 0 700 509" version="1.1" xmlns="http://www.w3.org/2000/svg">
<g id="#fefefeff">
<path fill="#fefefe" opacity="1.00" d=" M 0.00 0.00 L 700.00 0.00 L 700.00 509.00 L 0.00 509.00 L 0.00 0.00 M 328.01 17.23 C 321.84 17.95 313.51 14.23 309.20 20.31 C 295.22 22.12 281.85 27.98 267.81 28.22 C 256.14 31.01 247.77 40.93 241.17 50.36 C 237.92 56.74 232.69 61.90 229.99 68.58 C 228.30 68.36 226.59 68.24 224.97 68.83 C 224.64 70.17 224.28 71.51 224.00 72.87 C 222.20 81.16 215.24 86.68 210.68 93.54 C 206.96 98.48 205.40 104.72 201.35 109.43 C 193.54 117.86 193.83 130.68 186.10 139.19 C 178.72 147.66 175.27 158.47 170.51 168.43 C 168.32 173.24 164.50 177.37 163.44 182.64 C 160.59 188.46 157.48 194.37 151.90 198.10 C 144.62 202.93 140.01 210.43 134.23 216.73 C 130.08 212.82 124.55 214.48 119.49 213.99 C 122.88 217.28 128.51 213.34 132.06 216.89 C 131.00 218.01 129.95 219.15 128.90 220.28 C 125.72 217.77 121.99 216.06 118.05 215.14 C 115.87 217.32 113.89 219.69 112.12 222.21 C 105.48 220.96 100.24 225.68 96.24 230.26 C 84.72 249.86 77.79 272.21 62.90 289.76 C 55.96 298.83 45.56 305.90 42.59 317.44 C 38.16 321.78 33.46 327.41 35.23 334.08 C 37.73 325.99 47.40 322.69 48.23 314.01 C 51.30 305.63 57.29 298.73 63.58 292.56 C 72.57 283.44 80.43 273.05 85.34 261.14 C 89.58 253.59 90.26 244.03 97.10 238.08 C 102.72 239.27 106.61 243.95 112.37 244.92 C 122.45 253.19 136.02 253.15 147.82 257.41 C 153.94 259.91 160.80 259.45 166.77 262.32 C 155.68 291.18 143.18 319.48 131.29 347.99 C 128.91 361.75 123.67 375.07 115.47 386.41 C 111.22 390.88 106.06 395.93 106.74 402.70 C 119.09 391.13 126.31 374.79 132.07 359.07 C 135.84 343.41 142.29 328.59 149.20 314.08 C 156.74 312.98 164.60 316.64 171.82 313.38 C 174.65 312.31 176.36 309.27 179.48 308.84 C 190.82 306.38 202.56 307.38 213.96 305.25 C 222.49 304.59 230.78 302.46 239.24 301.33 C 229.56 313.29 225.87 328.73 220.13 342.76 C 217.11 346.71 216.33 351.72 215.67 356.51 L 216.24 356.24 C 221.63 360.69 226.71 365.78 233.12 368.76 C 234.56 369.67 236.51 370.38 236.62 372.37 C 229.61 375.42 224.06 380.88 217.60 384.87 C 212.96 387.52 214.05 393.77 214.92 398.15 C 217.72 408.08 220.64 418.01 224.39 427.63 C 224.05 432.91 226.72 437.83 229.60 442.07 C 229.96 436.02 231.48 429.02 227.85 423.68 C 225.36 414.02 221.92 404.27 222.21 394.16 C 225.15 389.81 227.95 385.24 232.60 382.49 C 236.75 378.65 243.28 377.24 245.33 371.49 C 245.69 369.06 243.92 367.27 241.96 366.22 C 234.71 362.38 226.92 359.58 219.83 355.42 C 219.11 355.54 217.66 355.79 216.93 355.92 C 221.54 353.87 223.03 348.39 224.14 343.89 L 223.13 344.28 C 229.68 328.39 235.26 311.68 245.95 297.93 C 248.44 295.43 251.14 293.12 254.16 291.28 C 259.49 289.54 263.35 284.25 268.97 282.59 C 270.64 284.28 272.26 286.03 273.79 287.85 C 272.91 290.62 271.85 293.35 271.42 296.24 L 271.01 296.26 C 263.54 317.83 269.38 341.05 277.44 361.54 C 278.32 363.34 280.49 363.72 282.10 364.59 L 282.82 363.87 C 283.98 363.55 285.14 363.24 286.31 362.93 C 288.26 369.84 286.95 377.10 288.09 384.12 C 293.29 384.94 291.27 375.72 292.29 372.17 L 291.54 372.34 C 291.59 369.48 291.62 366.63 291.63 363.77 C 291.80 366.21 292.21 368.62 292.63 371.03 C 292.79 365.27 292.08 359.27 294.02 353.74 C 299.99 354.67 307.67 357.81 312.43 352.41 C 316.51 347.89 321.37 343.78 327.48 342.45 C 327.50 348.90 324.04 354.71 324.07 361.16 C 316.83 374.54 317.85 390.34 317.67 405.07 C 319.20 437.51 318.33 470.20 323.74 502.33 C 335.72 502.34 347.71 502.38 359.69 502.31 C 364.25 502.41 368.82 502.45 373.39 502.16 C 371.82 494.58 368.29 487.55 367.07 479.88 C 362.07 466.21 363.48 451.33 361.73 437.09 C 360.79 431.72 358.34 426.39 359.52 420.84 C 360.54 415.98 361.80 411.07 361.33 406.06 C 359.72 391.09 360.72 376.01 360.44 360.99 C 360.72 354.47 367.10 351.33 372.14 348.69 C 375.09 352.56 377.95 356.55 381.61 359.82 C 381.67 360.19 381.79 360.92 381.85 361.29 C 384.93 361.23 387.33 359.21 388.77 356.62 C 395.84 345.41 404.26 334.97 409.60 322.75 C 409.88 347.35 401.89 371.30 402.48 395.96 C 399.78 407.92 397.71 420.68 399.65 432.94 C 405.25 424.58 403.14 413.78 405.80 404.49 C 407.26 401.50 410.28 399.39 410.90 395.98 C 415.81 389.75 415.63 380.64 417.11 372.99 C 419.03 355.08 424.30 337.83 428.84 320.48 C 430.28 316.32 433.25 311.79 437.90 310.98 C 448.89 310.92 460.38 312.31 470.00 318.05 C 472.68 319.47 473.41 322.65 474.67 325.18 C 478.04 333.60 481.21 342.10 484.75 350.45 C 477.16 355.28 467.45 357.28 461.28 364.02 C 470.90 372.05 480.59 380.45 489.84 389.11 C 489.33 400.90 484.59 411.73 481.56 422.96 C 479.48 428.81 485.12 432.75 487.42 437.47 C 487.97 437.54 489.05 437.66 489.60 437.72 C 494.27 433.03 496.42 426.61 499.78 421.03 C 503.88 420.66 507.55 418.67 511.39 417.35 C 511.62 416.67 512.09 415.32 512.33 414.64 C 516.72 413.63 520.84 410.71 523.41 406.98 C 524.30 402.41 519.45 405.88 517.77 407.18 C 517.57 407.08 517.17 406.87 516.97 406.77 C 520.24 404.30 522.37 400.35 523.72 396.49 C 518.98 396.95 517.31 401.83 514.44 404.86 C 514.64 402.07 517.20 397.56 513.08 396.73 C 511.80 398.37 511.23 400.71 509.56 401.98 C 504.87 401.25 506.81 394.89 503.02 393.16 C 502.89 392.68 502.62 391.71 502.49 391.22 C 502.84 387.85 503.83 384.43 503.20 381.04 C 501.77 376.04 496.87 373.45 493.37 370.04 C 496.35 366.47 501.82 367.41 505.21 364.39 C 506.28 362.08 506.92 359.33 509.51 358.24 C 511.36 351.82 508.03 343.69 501.17 342.21 C 501.81 333.81 496.40 326.38 496.99 318.02 C 500.74 317.35 504.54 317.07 508.33 316.66 C 514.29 323.81 514.90 333.87 521.41 340.64 C 529.37 350.25 536.52 363.24 550.21 364.91 C 550.79 374.66 558.96 382.11 558.72 391.99 C 558.89 393.93 558.34 396.11 559.64 397.81 C 559.26 399.19 559.03 400.60 558.76 402.00 C 558.67 402.72 558.49 404.14 558.40 404.86 C 555.89 417.37 555.22 430.21 556.47 442.91 C 557.53 446.20 560.77 447.99 563.40 449.93 C 562.28 442.24 571.24 440.49 574.11 434.56 C 573.56 434.40 572.48 434.08 571.93 433.92 C 572.66 433.63 573.40 433.35 574.15 433.08 C 574.34 434.17 574.62 435.24 575.00 436.28 C 572.82 438.94 570.21 441.60 569.61 445.13 C 572.50 444.92 574.58 442.89 576.85 441.36 C 576.88 442.28 576.94 444.11 576.98 445.02 C 574.65 445.34 572.50 446.29 570.50 447.46 C 570.39 448.10 570.19 449.37 570.08 450.00 C 573.28 450.89 578.55 449.99 578.28 445.72 C 580.93 454.80 580.83 464.83 584.74 473.75 C 586.75 473.50 588.18 471.88 587.01 469.93 C 584.74 462.28 583.77 454.34 582.49 446.52 C 577.80 436.28 576.00 424.88 570.23 415.13 C 568.39 412.00 567.28 408.53 565.63 405.32 C 565.41 403.81 564.63 402.47 563.55 401.43 C 566.23 400.26 568.95 399.06 571.85 398.52 C 582.83 397.92 593.58 401.45 603.60 405.60 C 604.50 409.01 604.97 412.80 607.35 415.57 C 609.52 416.09 611.80 415.77 614.03 415.89 L 613.80 415.65 C 616.34 407.40 618.84 399.12 621.83 391.00 C 623.76 387.01 624.70 382.59 625.79 378.31 C 627.12 375.35 627.01 372.00 627.89 368.90 C 628.37 368.84 629.34 368.73 629.82 368.68 C 634.66 375.25 637.97 382.84 642.91 389.40 C 647.42 396.37 649.42 404.54 652.88 412.00 C 659.36 422.17 665.14 432.85 669.17 444.23 C 669.77 444.37 670.98 444.64 671.58 444.77 C 667.36 429.70 660.58 415.15 652.25 401.89 C 648.28 389.26 638.16 379.86 631.62 368.53 C 631.08 367.73 630.52 366.96 629.95 366.21 C 625.90 360.74 626.47 351.79 618.55 350.21 C 617.96 337.20 627.75 326.79 627.92 313.95 C 630.48 308.24 628.44 301.75 630.39 295.84 C 631.91 288.12 640.16 285.29 644.70 279.71 C 649.06 275.46 648.31 268.90 649.69 263.42 C 653.52 254.69 654.02 244.72 651.09 235.64 C 649.66 235.69 648.23 235.74 646.83 235.83 C 648.05 236.04 649.26 236.33 650.51 236.48 C 651.75 242.19 651.88 248.06 651.52 253.88 C 651.01 248.90 652.05 243.73 650.27 238.92 C 649.75 236.47 646.17 235.71 644.38 237.10 C 634.37 243.30 636.16 257.04 630.51 266.24 C 627.20 269.43 622.94 271.52 618.24 270.67 C 620.98 255.72 617.13 240.62 614.52 225.97 C 613.66 219.51 614.77 211.44 609.68 206.53 C 604.43 203.14 599.76 208.90 596.72 212.57 C 598.13 228.68 599.49 244.92 597.19 261.02 C 595.57 260.26 595.56 258.31 594.91 256.89 C 593.59 249.30 593.15 241.57 591.35 234.07 C 588.41 224.09 583.04 214.69 582.72 204.07 C 582.48 200.06 582.43 194.71 578.18 192.77 C 574.32 191.91 568.98 191.82 566.78 195.77 C 563.97 200.03 565.81 205.36 566.67 209.94 C 565.61 204.73 566.15 198.12 571.38 195.34 C 574.83 193.06 578.76 195.53 581.32 197.98 C 579.87 215.09 589.84 230.25 591.16 247.02 C 591.76 254.26 591.48 263.50 598.74 267.65 C 598.55 266.40 598.37 265.17 598.18 263.93 C 605.47 261.66 613.28 266.63 615.80 273.51 C 617.73 273.52 619.66 273.44 621.60 273.23 L 622.09 273.52 C 624.60 272.00 627.75 271.05 629.49 268.57 C 631.84 267.23 634.51 267.21 637.14 267.38 C 636.16 266.36 635.08 265.41 634.00 264.52 C 636.31 261.68 636.47 257.10 639.28 255.15 C 636.34 249.94 640.49 244.54 642.98 240.07 C 644.90 238.70 647.08 237.76 649.51 238.15 C 650.08 244.75 650.10 251.41 649.33 258.00 C 647.43 264.77 644.88 271.32 642.80 278.03 C 642.21 276.66 641.60 275.31 640.98 273.97 C 640.02 275.56 640.62 277.40 640.79 279.10 C 637.58 282.86 634.07 286.35 629.69 288.70 C 625.74 302.24 629.08 317.66 621.45 330.21 C 616.94 337.33 615.60 345.94 618.30 353.99 C 618.56 357.43 619.25 360.81 619.56 364.24 C 617.52 368.84 613.83 372.47 611.69 377.02 C 607.01 377.67 602.54 379.31 597.92 380.24 C 586.35 381.68 574.20 382.25 563.11 378.04 C 561.15 377.48 559.79 375.96 558.92 374.19 L 558.79 374.81 C 555.79 369.28 551.77 362.54 544.98 361.41 C 533.13 356.94 529.34 343.43 520.12 335.77 C 513.42 317.37 496.29 303.98 493.63 283.92 C 502.86 278.05 518.58 283.96 519.99 295.15 C 527.38 296.55 527.41 305.39 532.52 309.32 C 538.96 312.96 545.35 306.92 548.86 301.93 C 552.21 296.91 557.42 295.31 563.29 296.32 C 564.48 296.52 565.67 296.70 566.88 296.87 C 567.16 297.35 567.72 298.29 568.00 298.76 C 572.15 310.90 568.79 323.97 563.18 335.03 C 573.31 325.83 572.69 310.06 570.01 297.68 L 571.44 296.92 C 577.04 296.52 581.11 300.41 584.82 303.98 C 584.68 300.13 580.99 297.79 577.84 296.35 C 570.06 293.39 561.48 293.58 553.40 295.00 C 550.66 293.02 551.47 289.61 551.59 286.73 C 552.53 283.84 553.48 280.96 554.30 278.03 C 549.56 266.15 546.10 253.57 545.46 240.75 C 547.08 239.92 548.71 239.01 549.78 237.49 C 547.67 237.21 545.88 238.63 543.84 238.62 C 538.99 233.75 540.68 226.22 540.88 220.08 C 542.76 217.72 546.44 215.04 549.32 217.39 C 553.28 220.41 554.55 225.57 556.30 230.00 C 559.70 241.46 566.37 251.49 571.62 262.12 C 571.89 262.62 572.43 263.61 572.69 264.11 C 572.89 264.92 573.29 266.55 573.49 267.37 C 571.66 267.44 569.86 267.50 568.05 267.52 C 568.13 268.02 568.30 269.03 568.38 269.53 C 570.52 270.34 573.18 270.58 574.94 268.82 C 579.12 258.75 569.99 249.12 571.49 238.81 C 574.01 238.04 576.60 237.52 579.22 237.11 C 579.35 236.66 579.60 235.75 579.73 235.30 C 576.70 235.17 573.88 236.80 570.84 236.37 C 569.49 230.11 567.58 223.84 568.46 217.35 C 571.26 217.53 574.08 217.71 576.90 217.50 C 575.35 214.51 571.21 215.40 568.45 214.40 C 567.58 213.08 566.70 211.76 565.76 210.49 C 566.47 225.54 569.69 240.36 572.49 255.14 C 572.72 256.61 572.76 258.13 572.30 259.57 C 567.89 249.38 561.14 240.26 558.05 229.50 C 556.06 223.97 555.11 216.90 549.34 213.95 C 543.53 212.94 538.60 218.62 537.84 224.00 C 536.91 233.27 544.50 240.80 543.86 250.05 C 546.99 259.18 547.47 269.12 551.58 277.94 C 550.78 284.74 549.20 291.52 548.17 298.32 C 547.56 299.60 546.93 300.89 546.20 302.11 C 545.77 302.34 544.91 302.79 544.48 303.02 C 539.49 301.09 534.69 298.72 529.79 296.58 C 528.25 295.93 526.69 295.35 525.14 294.78 C 519.28 287.28 511.77 278.25 501.30 278.84 C 497.27 279.97 489.81 281.58 491.79 287.26 L 491.25 286.47 L 491.12 285.84 C 479.54 281.04 467.75 276.62 456.14 272.04 C 451.83 268.03 444.52 269.95 441.07 264.77 C 437.10 259.04 434.51 252.48 430.53 246.74 C 426.36 238.36 416.91 235.44 409.60 230.66 C 409.32 226.64 409.55 222.61 409.44 218.59 C 411.28 218.62 413.17 218.90 414.97 218.40 C 416.78 212.81 415.63 206.69 417.44 201.07 C 417.13 204.81 417.14 208.57 417.64 212.30 C 419.70 212.72 421.17 211.45 421.92 209.67 C 423.01 209.64 424.10 209.61 425.20 209.59 C 427.72 203.53 429.84 197.31 431.82 191.06 C 432.86 190.85 433.92 190.63 434.97 190.42 C 438.67 181.86 436.40 172.28 440.70 163.87 C 441.61 163.39 442.49 162.87 443.34 162.29 C 447.88 151.78 450.08 139.87 447.33 128.58 C 446.43 128.14 445.54 127.70 444.65 127.26 C 445.64 114.30 442.77 101.30 444.00 88.43 C 442.31 83.46 440.16 77.11 434.99 74.93 C 431.52 62.44 422.44 52.97 416.17 41.98 C 409.18 32.79 396.21 33.16 385.91 33.93 C 382.73 32.21 378.33 31.95 376.56 28.40 C 371.20 19.49 360.47 13.55 350.01 15.66 C 342.49 14.46 335.52 18.37 328.01 17.23 M 575.42 242.33 C 577.74 241.42 582.02 241.93 582.51 238.67 C 580.15 239.63 575.41 238.99 575.42 242.33 M 549.96 255.73 C 553.39 255.66 556.62 254.33 559.39 252.38 C 559.47 251.82 559.63 250.69 559.70 250.13 C 556.75 252.51 552.33 252.71 549.96 255.73 M 578.22 260.10 C 581.04 260.06 583.63 261.05 585.85 262.79 C 584.26 264.86 581.54 264.91 579.24 265.59 C 582.75 271.14 585.45 262.85 588.88 263.39 C 587.67 259.15 581.60 257.03 578.22 260.10 M 556.00 276.85 C 559.71 276.00 562.50 273.14 564.84 270.30 C 561.25 271.27 557.94 273.67 556.00 276.85 M 573.06 277.89 C 577.11 282.38 580.43 288.22 586.42 290.35 C 595.00 291.62 603.45 286.65 611.96 289.45 C 603.54 282.53 591.93 291.30 582.76 286.47 C 578.67 284.49 578.46 278.86 574.41 276.82 C 573.59 276.25 572.03 276.93 573.06 277.89 M 597.06 302.98 C 601.03 301.47 603.54 297.28 603.82 293.15 C 601.01 295.99 598.46 299.19 597.06 302.98 M 506.20 304.98 C 509.45 303.31 512.04 300.12 511.76 296.31 C 509.80 299.12 507.04 301.52 506.20 304.98 M 555.24 315.28 C 555.41 315.71 555.76 316.58 555.93 317.01 C 557.85 317.93 559.85 318.81 562.05 318.74 C 560.68 316.27 557.68 315.96 555.24 315.28 M 593.03 364.51 C 599.30 362.67 605.92 359.48 608.46 353.00 C 604.14 357.90 597.31 359.76 593.03 364.51 M 302.51 407.00 C 301.70 425.42 301.14 444.40 306.97 462.14 C 307.14 463.21 307.77 463.86 308.85 464.10 C 313.54 440.32 310.56 415.92 312.13 391.90 C 313.05 386.80 316.30 380.06 310.96 376.28 C 301.99 383.79 304.00 396.64 302.51 407.00 Z" />
<path fill="#fefefe" opacity="1.00" d=" M 238.69 86.65 C 239.82 83.57 242.49 81.62 244.97 79.70 C 247.14 80.89 249.30 82.10 251.43 83.36 C 251.15 86.27 250.81 89.18 250.31 92.06 C 248.06 93.72 246.08 95.71 244.01 97.58 C 243.74 97.48 243.19 97.30 242.92 97.21 C 240.77 100.22 237.57 102.22 235.13 104.98 C 228.86 112.66 217.13 115.15 213.95 125.42 C 216.86 122.42 218.57 118.34 222.09 115.93 C 231.50 110.28 239.50 102.78 249.17 97.49 C 249.07 99.48 249.58 101.39 251.69 102.02 C 254.52 100.27 258.05 98.39 257.41 94.39 C 256.25 95.91 255.47 97.67 254.79 99.44 C 253.17 99.34 251.45 99.64 249.92 99.02 C 250.09 94.70 254.96 93.67 258.46 94.36 C 259.63 97.07 259.79 100.03 259.51 102.94 C 252.44 108.76 244.96 114.12 239.56 121.63 C 233.32 125.63 230.61 132.39 228.06 139.00 C 225.20 147.00 215.69 149.33 211.79 156.81 C 216.27 152.28 220.51 147.26 226.71 145.05 C 235.08 142.20 240.90 134.96 249.42 132.39 L 250.09 132.28 C 251.20 137.76 256.32 137.81 260.48 135.88 C 260.88 137.86 259.93 139.66 259.07 141.38 C 259.71 142.69 260.35 144.00 260.99 145.32 C 256.50 147.11 251.93 149.18 246.96 148.81 C 248.77 145.18 252.87 144.20 256.08 142.25 C 246.12 145.89 239.32 154.68 232.07 162.11 C 233.27 161.12 234.46 160.11 235.66 159.11 C 237.74 159.58 239.82 160.07 241.92 160.48 C 246.82 161.27 252.33 162.42 256.78 159.52 C 266.67 153.79 276.82 147.61 288.17 145.60 C 284.66 151.13 276.27 150.83 272.39 156.20 C 279.84 156.34 285.60 149.80 293.04 149.45 C 298.72 149.49 304.04 151.97 308.84 154.81 C 307.40 153.45 305.97 152.08 304.47 150.80 C 307.72 147.14 312.89 148.11 317.25 147.56 C 315.06 143.39 309.23 142.15 305.21 144.28 C 298.55 143.14 291.70 143.97 285.02 144.56 C 274.44 147.53 265.07 153.52 255.57 158.84 C 251.48 161.37 246.65 159.92 242.28 159.18 C 240.28 158.69 238.29 158.15 236.36 157.45 C 238.75 154.97 241.35 152.70 244.12 150.66 C 252.12 150.46 260.18 148.30 267.41 144.99 C 266.68 144.28 265.95 143.57 265.23 142.87 C 265.52 141.53 265.80 140.20 266.09 138.86 C 267.55 139.44 270.52 139.96 269.63 142.18 C 268.82 142.91 268.07 143.69 267.38 144.53 C 273.99 142.75 279.96 139.27 286.43 137.14 C 295.17 135.40 304.19 136.21 312.11 140.34 C 305.96 134.76 297.35 134.86 289.58 135.17 C 282.91 135.62 277.46 140.12 271.05 141.47 C 270.68 139.31 272.95 137.39 273.36 135.21 C 281.88 134.19 289.45 128.74 298.23 129.83 C 306.95 130.35 315.42 132.76 323.29 136.50 C 314.55 129.07 301.77 126.59 290.58 128.22 C 287.59 128.95 284.79 130.27 281.87 131.23 C 281.92 130.41 282.01 128.75 282.06 127.92 C 291.67 122.18 303.95 122.58 314.18 126.63 C 307.82 120.91 298.81 122.55 291.02 122.67 C 291.63 120.62 290.68 117.32 292.92 116.20 C 297.03 115.88 301.11 116.71 305.19 117.15 C 302.14 113.98 297.62 114.10 293.56 114.17 C 294.23 112.26 294.90 110.35 295.56 108.44 C 304.49 106.11 306.91 96.31 311.41 89.48 C 311.79 92.40 312.06 95.32 312.34 98.25 C 314.79 93.08 317.18 87.25 323.09 85.27 C 321.30 87.78 319.32 90.19 317.91 92.95 C 315.68 100.54 313.64 108.24 312.56 116.09 C 315.41 124.16 323.82 128.48 327.56 135.99 C 327.90 140.15 326.96 144.37 327.72 148.51 C 331.06 151.57 336.11 151.45 339.92 153.74 C 342.67 155.90 344.22 159.15 346.07 162.04 C 350.88 163.13 353.93 167.08 356.21 171.16 C 357.83 173.87 359.76 176.37 361.99 178.61 C 361.72 180.40 361.45 182.20 361.15 183.99 C 357.81 182.37 354.39 179.03 350.42 180.40 C 348.31 182.56 346.62 185.68 347.23 188.78 C 349.53 194.42 355.62 197.39 357.98 203.02 C 361.05 209.88 364.34 217.58 361.05 225.02 C 358.53 240.27 350.00 253.24 342.02 266.11 C 338.32 263.89 335.00 260.48 330.45 260.29 C 329.53 265.33 330.04 270.47 331.28 275.41 C 329.42 276.74 327.72 278.29 326.19 279.99 C 318.26 281.95 310.54 286.22 302.11 283.91 C 302.61 279.27 305.02 275.26 307.23 271.26 C 309.85 266.58 309.37 261.04 308.70 255.92 C 307.50 256.21 306.30 256.48 305.13 256.85 C 301.03 260.02 296.90 263.26 291.85 264.80 C 290.85 262.90 289.86 261.01 288.85 259.12 C 295.34 255.55 301.90 252.09 308.14 248.10 C 311.21 246.13 314.94 244.57 318.63 245.52 C 322.35 246.66 324.31 250.35 327.32 252.55 C 326.95 248.94 325.30 245.68 323.59 242.55 C 325.43 241.92 327.29 241.34 329.20 240.96 C 331.04 240.80 332.89 240.66 334.74 240.53 C 333.60 229.53 322.13 223.74 312.92 220.18 C 307.35 216.57 301.09 220.75 296.27 223.70 C 291.03 219.50 285.15 214.67 278.00 215.18 C 272.64 215.57 266.47 219.05 266.10 224.97 C 270.71 222.10 274.85 216.01 281.00 218.99 C 287.44 221.15 283.22 228.70 281.31 232.87 C 279.69 232.84 278.07 232.80 276.46 232.72 C 274.43 232.58 272.41 232.42 270.38 232.28 C 268.73 234.05 267.10 235.83 265.55 237.69 C 264.18 239.29 262.90 240.97 261.66 242.68 C 256.33 242.86 251.02 241.10 247.01 237.56 C 247.97 233.29 247.99 228.90 248.69 224.59 L 249.18 223.72 C 253.45 218.55 251.45 211.42 251.62 205.30 C 250.94 202.17 247.23 204.37 247.83 206.93 C 247.76 208.48 247.77 210.03 247.78 211.59 C 244.72 216.64 243.33 222.91 244.75 228.71 C 243.96 230.81 242.89 232.79 241.75 234.72 C 239.59 232.37 237.56 229.89 235.61 227.36 C 235.84 223.19 235.79 219.03 235.73 214.86 C 235.81 210.33 235.67 205.79 235.48 201.26 C 234.62 200.92 233.76 200.59 232.91 200.26 C 231.46 208.68 230.30 217.36 231.67 225.86 C 235.76 235.79 246.29 240.90 254.50 247.02 C 253.96 248.08 253.43 249.14 252.91 250.21 C 251.40 247.67 250.08 244.68 247.02 243.70 C 246.83 249.66 251.46 254.17 251.87 259.97 C 251.85 261.57 253.76 262.00 254.69 262.98 C 259.27 268.02 264.21 273.10 267.00 279.42 C 261.61 282.71 256.57 286.51 251.53 290.31 C 247.28 291.27 243.78 293.93 240.24 296.31 C 231.13 300.35 220.85 301.06 211.06 302.40 C 199.34 303.53 186.73 301.21 175.89 306.95 C 168.73 312.20 159.42 308.21 151.25 309.88 C 155.82 299.85 160.37 289.81 164.45 279.57 C 167.44 272.70 170.15 264.89 176.72 260.63 C 177.67 256.55 175.19 252.13 171.63 249.93 C 175.38 247.03 179.97 244.12 179.45 238.70 C 178.69 238.51 177.16 238.13 176.39 237.94 C 178.71 232.89 181.36 227.95 184.83 223.58 C 190.27 220.54 197.08 219.47 201.02 214.21 C 209.45 204.87 215.20 192.70 215.98 180.09 C 216.81 178.60 218.22 177.55 219.38 176.32 C 221.42 179.95 223.89 183.32 226.93 186.19 C 230.73 189.68 230.89 196.06 235.92 198.37 C 240.79 198.75 245.62 197.73 250.43 197.13 C 251.02 192.63 248.97 188.13 245.20 185.63 C 237.93 180.50 231.52 174.32 225.03 168.28 C 223.23 171.88 221.09 175.43 217.59 177.63 C 213.87 180.04 215.37 185.11 214.01 188.73 C 210.61 198.74 206.08 208.89 198.03 216.06 C 193.97 219.94 187.69 220.06 183.74 224.10 C 180.18 227.94 178.35 233.05 175.97 237.66 C 159.55 237.03 142.18 233.43 130.21 221.31 C 138.19 214.45 143.16 204.68 152.07 198.82 C 158.22 194.75 162.19 188.33 164.48 181.45 C 174.17 168.02 177.56 151.07 188.48 138.47 C 193.79 132.11 194.63 123.57 198.09 116.28 C 199.99 112.04 203.76 109.04 205.87 104.92 C 208.48 99.98 210.06 94.16 214.74 90.64 C 220.88 96.07 225.71 86.91 227.09 81.73 C 228.04 82.53 229.00 83.33 229.96 84.14 C 229.70 85.83 229.56 87.54 229.41 89.25 C 225.49 93.08 221.87 97.34 217.17 100.26 C 213.45 102.69 209.38 105.18 207.47 109.39 C 202.73 119.23 199.40 129.88 192.86 138.76 C 189.90 142.87 185.61 145.76 182.72 149.93 C 193.73 141.54 200.66 129.30 205.51 116.58 C 207.50 111.32 210.07 105.84 215.37 103.20 C 223.15 99.03 228.26 91.58 235.06 86.17 C 239.62 90.05 246.42 89.66 249.25 83.95 C 246.03 85.89 242.59 87.68 238.69 86.65 M 242.31 94.25 C 242.81 94.76 242.81 94.76 242.31 94.25 M 206.73 135.60 C 203.86 140.81 199.18 144.69 196.25 149.84 C 203.44 142.65 209.72 134.19 214.54 125.23 C 210.91 127.64 209.32 132.17 206.73 135.60 M 283.20 162.66 C 277.30 162.96 273.55 169.58 275.69 174.92 C 269.21 172.92 264.20 178.47 260.31 182.80 L 261.13 183.16 C 260.99 184.01 260.69 185.70 260.55 186.54 C 255.97 191.38 262.28 197.82 262.43 203.52 C 262.88 203.45 263.78 203.31 264.24 203.24 C 264.34 202.87 264.56 202.14 264.67 201.78 C 272.83 204.31 278.96 195.80 276.45 188.40 C 278.92 187.13 281.99 183.98 284.54 186.82 C 282.79 187.98 281.06 189.19 279.65 190.77 C 290.23 195.79 303.82 196.46 312.96 188.13 C 314.72 189.26 316.57 190.23 318.50 191.05 C 318.75 193.77 320.54 196.21 323.50 195.98 C 323.92 194.88 324.35 193.79 324.79 192.69 C 327.38 192.39 330.00 191.99 332.35 190.75 C 333.99 190.90 335.64 190.96 337.30 190.93 C 335.17 189.62 332.70 189.06 330.27 188.67 C 329.26 183.25 323.84 180.19 319.21 178.12 C 320.49 181.98 319.47 185.81 318.23 189.52 C 316.79 188.49 315.40 187.37 313.91 186.40 C 313.33 181.62 307.61 181.69 304.01 180.81 C 297.35 179.11 290.20 178.90 283.88 181.93 C 284.43 180.47 285.07 179.04 285.82 177.67 C 294.53 175.84 304.28 178.15 312.20 173.20 C 315.03 168.98 312.11 163.98 309.69 160.33 C 301.12 163.28 292.05 162.16 283.20 162.66 M 228.32 163.69 C 232.27 165.89 236.58 167.25 240.87 168.62 C 237.57 166.47 234.07 164.64 230.84 162.38 C 230.00 162.82 229.16 163.25 228.32 163.69 M 253.37 169.41 C 253.13 172.62 253.16 175.85 253.20 179.07 C 254.41 180.37 255.98 180.46 257.28 179.18 C 256.05 176.02 256.68 172.54 255.62 169.33 C 255.06 169.35 253.94 169.39 253.37 169.41 M 278.24 196.58 C 283.42 204.66 295.11 203.66 303.63 203.45 C 303.71 202.89 303.86 201.77 303.93 201.21 C 297.87 201.25 291.50 201.96 285.79 199.45 C 283.23 198.59 281.11 196.28 278.24 196.58 Z" />
<path fill="#fefefe" opacity="1.00" d=" M 285.03 191.84 C 286.88 189.24 290.31 188.80 292.80 190.83 C 291.91 191.45 291.03 192.08 290.14 192.70 C 288.43 192.44 286.72 192.15 285.03 191.84 Z" />
<path fill="#fefefe" opacity="1.00" d=" M 107.45 238.49 C 109.40 231.40 113.93 225.38 118.99 220.18 C 130.22 224.33 139.66 232.17 150.77 236.52 C 158.12 237.94 165.22 240.09 172.08 243.05 C 170.49 248.59 167.11 254.56 161.04 255.73 C 146.48 254.57 132.11 251.02 118.57 245.55 C 114.87 243.20 111.55 240.22 107.45 238.49 Z" />
<path fill="#fefefe" opacity="1.00" d=" M 287.84 224.37 C 289.76 225.41 291.69 226.47 293.61 227.52 C 292.60 229.15 291.34 230.62 289.76 231.71 C 288.96 230.36 288.16 229.01 287.36 227.67 C 287.48 226.85 287.72 225.20 287.84 224.37 Z" />
<path fill="#fefefe" opacity="1.00" d=" M 322.14 367.78 C 322.88 367.43 324.35 366.72 325.09 366.36 C 329.11 378.74 327.62 392.23 330.49 404.89 C 334.79 424.93 340.40 444.71 347.48 463.96 C 346.84 464.40 345.55 465.29 344.91 465.74 C 334.39 455.02 335.76 439.39 330.79 426.24 C 324.56 407.34 323.53 387.44 322.14 367.78 Z" />
</g>
<g id="#000000ff">
<path fill="#000000" opacity="1.00" d=" M 328.01 17.23 C 335.52 18.37 342.49 14.46 350.01 15.66 C 360.47 13.55 371.20 19.49 376.56 28.40 C 378.33 31.95 382.73 32.21 385.91 33.93 C 396.21 33.16 409.18 32.79 416.17 41.98 C 422.44 52.97 431.52 62.44 434.99 74.93 C 440.16 77.11 442.31 83.46 444.00 88.43 C 442.77 101.30 445.64 114.30 444.65 127.26 C 445.54 127.70 446.43 128.14 447.33 128.58 C 450.08 139.87 447.88 151.78 443.34 162.29 C 442.49 162.87 441.61 163.39 440.70 163.87 C 436.40 172.28 438.67 181.86 434.97 190.42 C 433.92 190.63 432.86 190.85 431.82 191.06 C 429.84 197.31 427.72 203.53 425.20 209.59 C 424.10 209.61 423.01 209.64 421.92 209.67 C 421.17 211.45 419.70 212.72 417.64 212.30 C 417.14 208.57 417.13 204.81 417.44 201.07 C 415.63 206.69 416.78 212.81 414.97 218.40 C 413.17 218.90 411.28 218.62 409.44 218.59 C 409.55 222.61 409.32 226.64 409.60 230.66 C 416.91 235.44 426.36 238.36 430.53 246.74 C 434.51 252.48 437.10 259.04 441.07 264.77 C 444.52 269.95 451.83 268.03 456.14 272.04 C 467.75 276.62 479.54 281.04 491.12 285.84 L 491.25 286.47 C 492.08 292.11 494.61 297.25 496.90 302.40 C 490.52 303.93 484.38 306.23 478.06 307.94 C 483.03 317.35 479.72 329.94 488.57 337.41 C 490.80 340.43 493.36 343.19 495.79 346.06 C 498.37 349.58 500.86 353.19 503.97 356.29 C 503.89 358.57 505.72 361.84 503.19 363.28 C 498.41 366.13 492.92 367.44 487.90 369.78 C 484.97 370.79 482.02 371.72 479.06 372.62 C 483.45 376.40 488.68 379.44 491.84 384.45 C 494.21 388.80 498.58 391.33 503.02 393.16 C 506.81 394.89 504.87 401.25 509.56 401.98 C 511.23 400.71 511.80 398.37 513.08 396.73 C 517.20 397.56 514.64 402.07 514.44 404.86 C 517.31 401.83 518.98 396.95 523.72 396.49 C 522.37 400.35 520.24 404.30 516.97 406.77 C 511.94 405.93 507.65 408.68 504.89 412.69 C 502.78 415.19 501.21 418.09 499.78 421.03 C 496.42 426.61 494.27 433.03 489.60 437.72 C 489.05 437.66 487.97 437.54 487.42 437.47 C 485.12 432.75 479.48 428.81 481.56 422.96 C 484.59 411.73 489.33 400.90 489.84 389.11 C 480.59 380.45 470.90 372.05 461.28 364.02 C 467.45 357.28 477.16 355.28 484.75 350.45 C 481.21 342.10 478.04 333.60 474.67 325.18 C 473.41 322.65 472.68 319.47 470.00 318.05 C 460.38 312.31 448.89 310.92 437.90 310.98 C 433.25 311.79 430.28 316.32 428.84 320.48 C 424.30 337.83 419.03 355.08 417.11 372.99 C 415.63 380.64 415.81 389.75 410.90 395.98 C 408.12 396.52 405.27 396.30 402.48 395.96 C 401.89 371.30 409.88 347.35 409.60 322.75 C 404.26 334.97 395.84 345.41 388.77 356.62 C 387.33 359.21 384.93 361.23 381.85 361.29 C 381.79 360.92 381.67 360.19 381.61 359.82 C 382.79 358.55 383.96 357.27 384.88 355.80 C 387.67 350.28 391.06 345.09 394.77 340.15 C 403.02 329.03 407.29 315.70 413.53 303.47 C 420.22 291.03 417.68 276.50 419.14 263.01 C 419.18 253.23 419.21 240.05 408.93 235.14 C 408.61 236.53 408.32 237.93 408.05 239.34 C 404.64 228.05 409.03 216.24 406.04 205.00 C 405.08 205.66 404.13 206.33 403.16 206.97 C 399.26 209.69 393.87 210.98 389.57 208.41 C 386.86 206.39 387.18 202.52 389.08 200.05 C 391.11 203.41 393.54 208.34 398.27 205.73 C 403.20 203.90 404.07 198.25 406.42 194.20 C 408.49 189.99 413.01 186.94 412.92 181.84 C 413.44 180.25 414.01 178.69 414.63 177.14 C 415.19 176.58 415.77 176.03 416.36 175.49 C 416.23 169.09 417.68 162.84 419.76 156.84 C 418.34 155.32 416.91 153.82 415.49 152.31 C 415.17 155.58 414.73 158.86 413.94 162.05 C 413.37 162.66 412.79 163.27 412.21 163.86 C 412.11 162.53 412.04 161.20 412.00 159.87 C 412.67 156.15 414.20 150.28 409.24 148.90 C 404.23 148.19 398.69 146.90 393.92 149.28 C 392.74 149.85 391.59 150.46 390.45 151.10 C 387.34 152.70 384.91 155.24 383.23 158.30 C 382.34 157.70 381.45 157.10 380.57 156.51 C 380.31 154.51 380.02 152.53 379.70 150.55 C 376.47 154.14 378.95 159.64 376.58 163.72 C 374.70 166.91 374.74 170.55 375.64 174.05 C 368.84 179.51 362.79 171.62 356.21 171.16 C 353.93 167.08 350.88 163.13 346.07 162.04 C 344.22 159.15 342.67 155.90 339.92 153.74 C 336.11 151.45 331.06 151.57 327.72 148.51 C 326.96 144.37 327.90 140.15 327.56 135.99 C 323.82 128.48 315.41 124.16 312.56 116.09 C 313.64 108.24 315.68 100.54 317.91 92.95 C 321.03 91.71 324.29 90.44 326.54 87.83 C 329.25 84.35 331.36 80.39 332.03 75.99 C 328.06 76.73 323.74 77.56 320.89 80.69 C 318.43 84.34 314.84 86.84 311.41 89.48 C 306.91 96.31 304.49 106.11 295.56 108.44 C 294.90 110.35 294.23 112.26 293.56 114.17 C 297.62 114.10 302.14 113.98 305.19 117.15 C 301.11 116.71 297.03 115.88 292.92 116.20 C 290.68 117.32 291.63 120.62 291.02 122.67 C 298.81 122.55 307.82 120.91 314.18 126.63 C 303.95 122.58 291.67 122.18 282.06 127.92 C 281.61 128.74 281.17 129.56 280.73 130.38 C 277.90 131.18 273.48 131.34 273.36 135.21 C 272.95 137.39 270.68 139.31 271.05 141.47 C 277.46 140.12 282.91 135.62 289.58 135.17 C 297.35 134.86 305.96 134.76 312.11 140.34 C 304.19 136.21 295.17 135.40 286.43 137.14 C 279.96 139.27 273.99 142.75 267.38 144.53 C 268.07 143.69 268.82 142.91 269.63 142.18 C 270.52 139.96 267.55 139.44 266.09 138.86 C 265.80 140.20 265.52 141.53 265.23 142.87 C 265.95 143.57 266.68 144.28 267.41 144.99 C 260.18 148.30 252.12 150.46 244.12 150.66 C 241.35 152.70 238.75 154.97 236.36 157.45 C 238.29 158.15 240.28 158.69 242.28 159.18 C 242.19 159.50 242.01 160.15 241.92 160.48 C 239.82 160.07 237.74 159.58 235.66 159.11 C 234.46 160.11 233.27 161.12 232.07 162.11 C 239.32 154.68 246.12 145.89 256.08 142.25 C 252.87 144.20 248.77 145.18 246.96 148.81 C 251.93 149.18 256.50 147.11 260.99 145.32 C 260.35 144.00 259.71 142.69 259.07 141.38 C 259.93 139.66 260.88 137.86 260.48 135.88 C 256.32 137.81 251.20 137.76 250.09 132.28 L 249.42 132.39 C 245.32 132.51 241.96 135.17 237.99 135.87 C 237.40 138.04 235.30 138.36 233.37 138.64 C 231.94 140.37 230.43 142.17 228.14 142.72 C 229.00 138.84 231.49 135.60 232.48 131.77 C 234.39 125.89 240.95 123.56 244.13 118.59 C 247.25 111.54 256.41 110.03 259.51 102.94 C 259.79 100.03 259.63 97.07 258.46 94.36 C 254.96 93.67 250.09 94.70 249.92 99.02 C 251.45 99.64 253.17 99.34 254.79 99.44 C 255.47 97.67 256.25 95.91 257.41 94.39 C 258.05 98.39 254.52 100.27 251.69 102.02 C 249.58 101.39 249.07 99.48 249.17 97.49 C 239.50 102.78 231.50 110.28 222.09 115.93 C 218.57 118.34 216.86 122.42 213.95 125.42 C 217.13 115.15 228.86 112.66 235.13 104.98 C 237.57 102.22 240.77 100.22 242.92 97.21 C 243.19 97.30 243.74 97.48 244.01 97.58 C 246.08 95.71 248.06 93.72 250.31 92.06 C 250.92 91.86 252.13 91.45 252.73 91.25 C 252.88 88.92 252.99 86.59 252.95 84.26 C 252.94 83.09 252.93 81.93 252.93 80.76 C 249.46 79.79 245.34 77.22 242.06 79.95 C 238.60 82.70 234.88 85.14 230.51 86.16 C 230.16 87.19 229.85 88.25 229.41 89.25 C 229.56 87.54 229.70 85.83 229.96 84.14 C 230.09 83.45 230.23 82.76 230.38 82.08 C 228.09 80.83 225.72 79.73 223.32 78.73 C 223.52 76.77 223.71 74.81 224.00 72.87 C 224.28 71.51 224.64 70.17 224.97 68.83 C 226.59 68.24 228.30 68.36 229.99 68.58 C 232.69 61.90 237.92 56.74 241.17 50.36 C 247.77 40.93 256.14 31.01 267.81 28.22 C 281.85 27.98 295.22 22.12 309.20 20.31 C 313.51 14.23 321.84 17.95 328.01 17.23 M 431.10 110.27 C 429.55 113.24 434.43 110.42 431.10 110.27 M 250.54 132.62 C 251.14 133.34 252.32 134.76 252.91 135.48 C 255.87 135.69 258.83 135.69 261.80 135.69 C 262.01 133.57 261.02 131.83 259.73 130.27 C 256.44 129.96 253.37 131.02 250.54 132.62 M 432.00 137.90 C 431.93 140.88 431.95 143.87 432.07 146.85 L 432.93 146.85 C 433.05 143.88 433.08 140.91 433.01 137.94 L 432.00 137.90 M 409.57 213.00 C 411.06 207.47 410.11 201.69 410.50 196.04 C 407.38 200.50 409.36 207.61 409.57 213.00 Z" />
<path fill="#000000" opacity="1.00" d=" M 283.20 162.66 C 292.05 162.16 301.12 163.28 309.69 160.33 C 312.11 163.98 315.03 168.98 312.20 173.20 C 304.28 178.15 294.53 175.84 285.82 177.67 C 281.84 179.54 277.44 179.63 275.69 174.92 C 273.55 169.58 277.30 162.96 283.20 162.66 Z" />
<path fill="#000000" opacity="1.00" d=" M 253.37 169.41 C 253.94 169.39 255.06 169.35 255.62 169.33 C 256.68 172.54 256.05 176.02 257.28 179.18 C 255.98 180.46 254.41 180.37 253.20 179.07 C 253.16 175.85 253.13 172.62 253.37 169.41 Z" />
<path fill="#000000" opacity="1.00" d=" M 284.54 186.82 C 293.09 180.61 304.56 184.09 313.91 186.40 C 315.40 187.37 316.79 188.49 318.23 189.52 C 318.30 189.90 318.43 190.67 318.50 191.05 C 316.57 190.23 314.72 189.26 312.96 188.13 C 303.82 196.46 290.23 195.79 279.65 190.77 C 281.06 189.19 282.79 187.98 284.54 186.82 M 285.03 191.84 C 286.72 192.15 288.43 192.44 290.14 192.70 C 291.03 192.08 291.91 191.45 292.80 190.83 C 290.31 188.80 286.88 189.24 285.03 191.84 Z" />
<path fill="#000000" opacity="1.00" d=" M 278.24 196.58 C 281.11 196.28 283.23 198.59 285.79 199.45 C 291.50 201.96 297.87 201.25 303.93 201.21 C 303.86 201.77 303.71 202.89 303.63 203.45 C 295.11 203.66 283.42 204.66 278.24 196.58 Z" />
<path fill="#000000" opacity="1.00" d=" M 232.91 200.26 C 233.76 200.59 234.62 200.92 235.48 201.26 C 235.67 205.79 235.81 210.33 235.73 214.86 C 234.62 218.94 231.73 223.80 235.61 227.36 C 237.56 229.89 239.59 232.37 241.75 234.72 C 242.89 232.79 243.96 230.81 244.75 228.71 C 246.86 223.27 248.18 217.45 247.78 211.59 C 247.77 210.03 247.76 208.48 247.83 206.93 C 248.94 207.69 250.06 208.45 251.19 209.22 C 250.20 214.02 248.93 218.77 249.18 223.72 L 248.69 224.59 C 247.63 228.61 243.98 233.80 247.01 237.56 C 251.02 241.10 256.33 242.86 261.66 242.68 C 264.02 243.58 266.05 245.10 268.13 246.51 C 268.71 244.09 268.35 240.52 271.49 239.89 C 277.88 237.90 284.26 235.64 289.76 231.71 C 291.34 230.62 292.60 229.15 293.61 227.52 C 294.46 226.22 295.30 224.92 296.27 223.70 C 301.09 220.75 307.35 216.57 312.92 220.18 C 322.13 223.74 333.60 229.53 334.74 240.53 C 332.89 240.66 331.04 240.80 329.20 240.96 C 314.40 239.73 303.55 250.75 290.68 255.80 C 284.61 258.65 277.83 259.19 271.56 261.44 C 268.69 262.46 265.68 261.48 262.85 260.89 C 261.31 260.47 259.64 260.20 258.28 261.22 C 257.08 261.80 255.88 262.39 254.69 262.98 C 253.76 262.00 251.85 261.57 251.87 259.97 C 251.46 254.17 246.83 249.66 247.02 243.70 C 250.08 244.68 251.40 247.67 252.91 250.21 C 253.43 249.14 253.96 248.08 254.50 247.02 C 246.29 240.90 235.76 235.79 231.67 225.86 C 230.30 217.36 231.46 208.68 232.91 200.26 Z" />
<path fill="#000000" opacity="1.00" d=" M 601.01 249.58 C 604.31 249.85 599.43 252.53 601.01 249.58 Z" />
<path fill="#000000" opacity="1.00" d=" M 273.11 262.35 C 278.60 261.80 284.24 259.27 289.70 261.38 C 291.16 264.04 289.70 267.25 289.00 269.98 C 283.80 271.31 278.31 271.02 273.07 270.07 L 272.09 269.75 C 268.13 268.18 271.43 264.37 273.11 262.35 Z" />
<path fill="#000000" opacity="1.00" d=" M 337.25 310.64 C 340.30 311.33 343.41 311.00 346.35 309.93 C 348.05 312.14 348.57 314.89 348.74 317.61 C 349.48 318.34 350.24 319.07 351.01 319.80 C 351.91 320.77 352.78 321.76 353.63 322.77 C 353.63 323.53 353.64 325.04 353.64 325.80 C 349.87 329.35 346.69 333.48 342.83 336.93 C 340.46 332.32 334.83 333.55 330.98 335.21 C 330.36 335.61 329.13 336.40 328.51 336.79 C 328.32 330.42 328.97 323.97 327.54 317.70 C 322.22 320.80 318.83 326.15 314.10 329.98 C 313.40 329.59 312.70 329.19 312.01 328.80 C 312.66 328.61 313.96 328.23 314.61 328.03 C 317.87 322.09 322.65 317.19 327.50 312.52 C 330.03 309.89 333.95 310.31 337.25 310.64 Z" />
<path fill="#000000" opacity="1.00" d=" M 328.61 337.09 C 330.41 339.63 333.29 340.93 336.29 339.78 C 338.75 339.26 341.16 338.59 343.62 338.06 C 349.90 347.53 347.11 359.40 348.05 370.04 C 349.62 387.45 350.47 404.93 352.11 422.30 C 353.21 422.56 354.30 422.81 355.40 423.08 C 355.90 439.00 354.48 454.89 353.68 470.77 C 350.82 481.74 357.50 491.83 359.69 502.31 C 347.71 502.38 335.72 502.34 323.74 502.33 C 318.33 470.20 319.20 437.51 317.67 405.07 C 317.85 390.34 316.83 374.54 324.07 361.16 C 325.97 353.23 329.02 345.39 328.61 337.09 M 322.14 367.78 C 323.53 387.44 324.56 407.34 330.79 426.24 C 335.76 439.39 334.39 455.02 344.91 465.74 C 345.55 465.29 346.84 464.40 347.48 463.96 C 340.40 444.71 334.79 424.93 330.49 404.89 C 327.62 392.23 329.11 378.74 325.09 366.36 C 324.35 366.72 322.88 367.43 322.14 367.78 Z" />
<path fill="#000000" opacity="1.00" d=" M 558.76 402.00 C 559.38 401.36 560.01 400.73 560.64 400.09 C 563.14 404.47 563.70 409.92 567.35 413.59 C 566.81 410.82 566.12 408.09 565.63 405.32 C 567.28 408.53 568.39 412.00 570.23 415.13 C 576.00 424.88 577.80 436.28 582.49 446.52 C 583.77 454.34 584.74 462.28 587.01 469.93 C 588.18 471.88 586.75 473.50 584.74 473.75 C 580.83 464.83 580.93 454.80 578.28 445.72 L 578.08 444.80 C 577.62 441.77 576.47 438.94 575.00 436.28 C 574.62 435.24 574.34 434.17 574.15 433.08 C 573.40 433.35 572.66 433.63 571.93 433.92 C 566.33 435.37 563.74 442.29 557.79 442.47 C 555.77 430.02 557.70 417.36 558.40 404.86 C 558.49 404.14 558.67 402.72 558.76 402.00 Z" />
</g>
<g id="#464646ff">
<path fill="#464646" opacity="1.00" d=" M 210.68 93.54 C 215.24 86.68 222.20 81.16 224.00 72.87 C 223.71 74.81 223.52 76.77 223.32 78.73 C 225.72 79.73 228.09 80.83 230.38 82.08 C 230.23 82.76 230.09 83.45 229.96 84.14 C 229.00 83.33 228.04 82.53 227.09 81.73 C 225.71 86.91 220.88 96.07 214.74 90.64 C 210.06 94.16 208.48 99.98 205.87 104.92 C 203.76 109.04 199.99 112.04 198.09 116.28 C 194.63 123.57 193.79 132.11 188.48 138.47 C 177.56 151.07 174.17 168.02 164.48 181.45 C 164.22 181.74 163.70 182.34 163.44 182.64 C 164.50 177.37 168.32 173.24 170.51 168.43 C 175.27 158.47 178.72 147.66 186.10 139.19 C 193.83 130.68 193.54 117.86 201.35 109.43 C 205.40 104.72 206.96 98.48 210.68 93.54 M 215.01 89.22 C 216.21 90.28 217.55 91.15 218.94 91.94 C 221.67 88.73 228.59 83.87 223.03 79.91 C 219.88 82.58 216.96 85.54 215.01 89.22 Z" />
<path fill="#464646" opacity="1.00" d=" M 280.73 130.38 C 281.17 129.56 281.61 128.74 282.06 127.92 C 282.01 128.75 281.92 130.41 281.87 131.23 C 284.79 130.27 287.59 128.95 290.58 128.22 C 293.12 128.76 295.64 129.45 298.23 129.83 C 289.45 128.74 281.88 134.19 273.36 135.21 C 273.48 131.34 277.90 131.18 280.73 130.38 Z" />
<path fill="#464646" opacity="1.00" d=" M 612.74 255.01 C 609.59 254.96 607.10 250.73 610.92 249.40 C 610.59 250.54 610.25 251.67 609.91 252.81 C 610.89 252.59 611.88 252.37 612.88 252.17 C 612.85 252.88 612.78 254.30 612.74 255.01 Z" />
<path fill="#464646" opacity="1.00" d=" M 555.24 315.28 C 557.68 315.96 560.68 316.27 562.05 318.74 C 559.85 318.81 557.85 317.93 555.93 317.01 C 555.76 316.58 555.41 315.71 555.24 315.28 Z" />
<path fill="#464646" opacity="1.00" d=" M 491.84 384.45 C 493.21 384.29 494.60 384.13 495.98 383.98 C 498.40 386.14 500.80 388.41 502.49 391.22 C 502.62 391.71 502.89 392.68 503.02 393.16 C 498.58 391.33 494.21 388.80 491.84 384.45 Z" />
<path fill="#464646" opacity="1.00" d=" M 565.58 384.27 C 569.49 384.73 573.36 385.41 577.16 386.44 C 573.08 387.66 569.14 386.27 565.58 384.27 Z" />
</g>
<g id="#2b2b2bff">
<path fill="#2b2b2b" opacity="1.00" d=" M 320.89 80.69 C 323.74 77.56 328.06 76.73 332.03 75.99 C 331.36 80.39 329.25 84.35 326.54 87.83 C 325.53 84.84 323.19 82.71 320.89 80.69 Z" />
<path fill="#2b2b2b" opacity="1.00" d=" M 431.10 110.27 C 434.43 110.42 429.55 113.24 431.10 110.27 Z" />
</g>
<g id="#333333ff">
<path fill="#333333" opacity="1.00" d=" M 242.06 79.95 C 245.34 77.22 249.46 79.79 252.93 80.76 C 252.93 81.93 252.94 83.09 252.95 84.26 C 252.57 84.03 251.81 83.58 251.43 83.36 C 249.30 82.10 247.14 80.89 244.97 79.70 C 242.49 81.62 239.82 83.57 238.69 86.65 C 242.59 87.68 246.03 85.89 249.25 83.95 C 246.42 89.66 239.62 90.05 235.06 86.17 C 228.26 91.58 223.15 99.03 215.37 103.20 C 210.07 105.84 207.50 111.32 205.51 116.58 C 200.66 129.30 193.73 141.54 182.72 149.93 C 185.61 145.76 189.90 142.87 192.86 138.76 C 199.40 129.88 202.73 119.23 207.47 109.39 C 209.38 105.18 213.45 102.69 217.17 100.26 C 221.87 97.34 225.49 93.08 229.41 89.25 C 229.85 88.25 230.16 87.19 230.51 86.16 C 234.88 85.14 238.60 82.70 242.06 79.95 Z" />
</g>
<g id="#f5f5f5ff">
<path fill="#f5f5f5" opacity="1.00" d=" M 215.01 89.22 C 216.96 85.54 219.88 82.58 223.03 79.91 C 228.59 83.87 221.67 88.73 218.94 91.94 C 217.55 91.15 216.21 90.28 215.01 89.22 Z" />
</g>
<g id="#585858ff">
<path fill="#585858" opacity="1.00" d=" M 311.41 89.48 C 314.84 86.84 318.43 84.34 320.89 80.69 C 323.19 82.71 325.53 84.84 326.54 87.83 C 324.29 90.44 321.03 91.71 317.91 92.95 C 319.32 90.19 321.30 87.78 323.09 85.27 C 317.18 87.25 314.79 93.08 312.34 98.25 C 312.06 95.32 311.79 92.40 311.41 89.48 Z" />
</g>
<g id="#737373ff">
<path fill="#737373" opacity="1.00" d=" M 251.43 83.36 C 251.81 83.58 252.57 84.03 252.95 84.26 C 252.99 86.59 252.88 88.92 252.73 91.25 C 252.13 91.45 250.92 91.86 250.31 92.06 C 250.81 89.18 251.15 86.27 251.43 83.36 Z" />
</g>
<g id="#c5c5c5ff">
<path fill="#c5c5c5" opacity="1.00" d=" M 242.31 94.25 C 242.81 94.76 242.81 94.76 242.31 94.25 Z" />
<path fill="#c5c5c5" opacity="1.00" d=" M 619.11 354.55 C 619.79 354.07 620.48 353.59 621.17 353.10 C 624.34 355.66 626.48 359.76 625.16 363.87 C 621.78 375.60 610.05 382.67 606.53 394.37 C 614.60 388.32 617.12 377.88 623.46 370.38 C 625.36 368.55 628.18 368.45 630.63 368.01 C 630.46 367.56 630.12 366.66 629.95 366.21 C 630.52 366.96 631.08 367.73 631.62 368.53 C 631.17 368.56 630.27 368.64 629.82 368.68 C 629.34 368.73 628.37 368.84 627.89 368.90 C 627.01 372.00 627.12 375.35 625.79 378.31 C 626.22 375.46 626.51 372.59 626.65 369.71 C 624.92 370.68 625.06 372.79 624.64 374.45 C 623.27 385.78 616.21 395.16 612.76 405.84 C 613.85 408.45 613.31 411.22 612.51 413.83 C 610.70 412.70 608.87 411.65 606.88 410.90 C 602.06 402.34 604.63 392.19 609.46 384.25 C 613.74 377.29 619.08 370.94 622.48 363.46 C 623.95 360.30 623.30 355.56 619.37 354.64 C 619.51 357.83 619.82 361.04 619.56 364.24 C 619.25 360.81 618.56 357.43 618.30 353.99 C 618.50 354.13 618.90 354.41 619.11 354.55 Z" />
<path fill="#c5c5c5" opacity="1.00" d=" M 602.50 381.79 C 604.24 381.60 605.99 381.69 607.74 381.79 C 607.60 382.89 607.49 384.00 607.32 385.11 C 606.31 386.59 605.09 387.90 603.81 389.15 C 603.77 389.56 603.71 390.38 603.68 390.79 C 601.36 393.51 600.85 397.07 601.03 400.53 C 600.48 400.79 599.37 401.29 598.82 401.54 C 592.47 398.79 585.92 396.54 578.98 396.23 C 574.14 393.87 568.74 395.60 563.90 397.02 C 562.91 395.95 561.92 394.88 560.93 393.83 C 560.66 389.90 559.76 386.05 559.01 382.20 C 559.72 382.29 561.14 382.48 561.85 382.58 C 563.08 383.15 564.32 383.72 565.58 384.27 C 569.14 386.27 573.08 387.66 577.16 386.44 C 585.97 386.86 593.76 381.99 602.50 381.79 M 578.29 387.04 C 579.19 390.69 582.02 384.84 578.29 387.04 Z" />
</g>
<g id="#838383ff">
<path fill="#838383" opacity="1.00" d=" M 239.56 121.63 C 244.96 114.12 252.44 108.76 259.51 102.94 C 256.41 110.03 247.25 111.54 244.13 118.59 C 240.95 123.56 234.39 125.89 232.48 131.77 C 231.49 135.60 229.00 138.84 228.14 142.72 C 230.43 142.17 231.94 140.37 233.37 138.64 C 235.30 138.36 237.40 138.04 237.99 135.87 C 241.96 135.17 245.32 132.51 249.42 132.39 C 240.90 134.96 235.08 142.20 226.71 145.05 L 226.24 143.65 L 226.19 143.44 C 226.78 141.94 227.41 140.47 228.06 139.00 C 230.61 132.39 233.32 125.63 239.56 121.63 Z" />
</g>
<g id="#626262ff">
<path fill="#626262" opacity="1.00" d=" M 206.73 135.60 C 209.32 132.17 210.91 127.64 214.54 125.23 C 209.72 134.19 203.44 142.65 196.25 149.84 C 199.18 144.69 203.86 140.81 206.73 135.60 Z" />
<path fill="#626262" opacity="1.00" d=" M 495.79 346.06 C 496.90 345.41 498.02 344.76 499.15 344.12 C 502.51 347.65 505.55 351.50 507.88 355.80 C 506.57 355.96 505.26 356.12 503.97 356.29 C 500.86 353.19 498.37 349.58 495.79 346.06 Z" />
</g>
<g id="#141414ff">
<path fill="#141414" opacity="1.00" d=" M 290.58 128.22 C 301.77 126.59 314.55 129.07 323.29 136.50 C 315.42 132.76 306.95 130.35 298.23 129.83 C 295.64 129.45 293.12 128.76 290.58 128.22 Z" />
<path fill="#141414" opacity="1.00" d=" M 537.84 224.00 C 538.60 218.62 543.53 212.94 549.34 213.95 C 555.11 216.90 556.06 223.97 558.05 229.50 C 561.14 240.26 567.89 249.38 572.30 259.57 C 572.13 260.21 571.79 261.48 571.62 262.12 C 566.37 251.49 559.70 241.46 556.30 230.00 C 554.55 225.57 553.28 220.41 549.32 217.39 C 546.44 215.04 542.76 217.72 540.88 220.08 C 540.68 226.22 538.99 233.75 543.84 238.62 C 545.88 238.63 547.67 237.21 549.78 237.49 C 548.71 239.01 547.08 239.92 545.46 240.75 C 546.10 253.57 549.56 266.15 554.30 278.03 C 553.48 280.96 552.53 283.84 551.59 286.73 C 551.19 288.05 550.85 289.38 550.60 290.73 C 550.12 293.36 549.37 295.93 548.17 298.32 C 549.20 291.52 550.78 284.74 551.58 277.94 C 547.47 269.12 546.99 259.18 543.86 250.05 C 544.50 240.80 536.91 233.27 537.84 224.00 Z" />
<path fill="#141414" opacity="1.00" d=" M 593.03 364.51 C 597.31 359.76 604.14 357.90 608.46 353.00 C 605.92 359.48 599.30 362.67 593.03 364.51 Z" />
</g>
<g id="#fcfcfcff">
<path fill="#fcfcfc" opacity="1.00" d=" M 250.54 132.62 C 253.37 131.02 256.44 129.96 259.73 130.27 C 261.02 131.83 262.01 133.57 261.80 135.69 C 258.83 135.69 255.87 135.69 252.91 135.48 C 252.32 134.76 251.14 133.34 250.54 132.62 Z" />
</g>
<g id="#484848ff">
<path fill="#484848" opacity="1.00" d=" M 432.00 137.90 L 433.01 137.94 C 433.08 140.91 433.05 143.88 432.93 146.85 L 432.07 146.85 C 431.95 143.87 431.93 140.88 432.00 137.90 Z" />
</g>
<g id="#262626ff">
<path fill="#262626" opacity="1.00" d=" M 211.79 156.81 C 215.69 149.33 225.20 147.00 228.06 139.00 C 227.41 140.47 226.78 141.94 226.19 143.44 L 226.16 143.51 C 226.18 143.55 226.22 143.61 226.24 143.65 L 226.71 145.05 C 220.51 147.26 216.27 152.28 211.79 156.81 Z" />
<path fill="#262626" opacity="1.00" d=" M 549.96 255.73 C 552.33 252.71 556.75 252.51 559.70 250.13 C 559.63 250.69 559.47 251.82 559.39 252.38 C 556.62 254.33 553.39 255.66 549.96 255.73 Z" />
<path fill="#262626" opacity="1.00" d=" M 642.80 278.03 C 644.88 271.32 647.43 264.77 649.33 258.00 C 649.40 259.81 649.58 261.61 649.69 263.42 C 648.31 268.90 649.06 275.46 644.70 279.71 C 640.16 285.29 631.91 288.12 630.39 295.84 C 628.44 301.75 630.48 308.24 627.92 313.95 C 627.75 326.79 617.96 337.20 618.55 350.21 C 626.47 351.79 625.90 360.74 629.95 366.21 C 630.12 366.66 630.46 367.56 630.63 368.01 C 628.18 368.45 625.36 368.55 623.46 370.38 C 617.12 377.88 614.60 388.32 606.53 394.37 C 610.05 382.67 621.78 375.60 625.16 363.87 C 626.48 359.76 624.34 355.66 621.17 353.10 C 620.48 353.59 619.79 354.07 619.11 354.55 C 618.90 354.41 618.50 354.13 618.30 353.99 C 615.60 345.94 616.94 337.33 621.45 330.21 C 629.08 317.66 625.74 302.24 629.69 288.70 C 634.07 286.35 637.58 282.86 640.79 279.10 C 640.62 277.40 640.02 275.56 640.98 273.97 C 641.60 275.31 642.21 276.66 642.80 278.03 Z" />
</g>
<g id="#fbfbfbff">
<path fill="#fbfbfb" opacity="1.00" d=" M 226.16 143.51 L 226.19 143.44 L 226.24 143.65 C 226.22 143.61 226.18 143.55 226.16 143.51 Z" />
</g>
<g id="#090909ff">
<path fill="#090909" opacity="1.00" d=" M 285.02 144.56 C 291.70 143.97 298.55 143.14 305.21 144.28 C 306.14 144.70 307.07 145.13 308.00 145.57 C 303.17 145.12 298.31 145.04 293.47 145.36 C 294.38 150.37 300.77 149.19 304.47 150.80 C 305.97 152.08 307.40 153.45 308.84 154.81 C 304.04 151.97 298.72 149.49 293.04 149.45 C 285.60 149.80 279.84 156.34 272.39 156.20 C 276.27 150.83 284.66 151.13 288.17 145.60 C 276.82 147.61 266.67 153.79 256.78 159.52 C 252.33 162.42 246.82 161.27 241.92 160.48 C 242.01 160.15 242.19 159.50 242.28 159.18 C 246.65 159.92 251.48 161.37 255.57 158.84 C 265.07 153.52 274.44 147.53 285.02 144.56 Z" />
<path fill="#090909" opacity="1.00" d=" M 491.79 287.26 C 489.81 281.58 497.27 279.97 501.30 278.84 C 511.77 278.25 519.28 287.28 525.14 294.78 C 528.63 299.47 531.87 304.38 535.95 308.60 C 539.90 307.55 544.29 306.09 546.20 302.11 C 546.93 300.89 547.56 299.60 548.17 298.32 C 549.37 295.93 550.12 293.36 550.60 290.73 C 550.50 292.98 551.36 295.06 552.41 297.00 C 551.22 298.64 550.04 300.29 548.86 301.93 C 545.35 306.92 538.96 312.96 532.52 309.32 C 527.41 305.39 527.38 296.55 519.99 295.15 C 518.58 283.96 502.86 278.05 493.63 283.92 C 496.29 303.98 513.42 317.37 520.12 335.77 C 529.34 343.43 533.13 356.94 544.98 361.41 C 551.77 362.54 555.79 369.28 558.79 374.81 C 558.72 375.25 558.59 376.13 558.52 376.57 C 557.23 375.41 556.00 374.18 554.71 373.02 C 555.55 376.69 558.68 378.90 561.60 380.91 L 561.85 382.58 C 561.14 382.48 559.72 382.29 559.01 382.20 C 559.76 386.05 560.66 389.90 560.93 393.83 C 560.53 395.17 560.07 396.48 559.64 397.81 C 558.34 396.11 558.89 393.93 558.72 391.99 C 558.96 382.11 550.79 374.66 550.21 364.91 C 536.52 363.24 529.37 350.25 521.41 340.64 C 514.90 333.87 514.29 323.81 508.33 316.66 C 501.00 307.96 494.58 298.46 491.79 287.26 Z" />
<path fill="#090909" opacity="1.00" d=" M 597.06 302.98 C 598.46 299.19 601.01 295.99 603.82 293.15 C 603.54 297.28 601.03 301.47 597.06 302.98 Z" />
<path fill="#090909" opacity="1.00" d=" M 558.85 295.39 C 562.87 295.64 568.81 293.00 571.44 296.92 L 570.01 297.68 C 569.33 298.03 568.66 298.40 568.00 298.76 C 567.72 298.29 567.16 297.35 566.88 296.87 C 565.67 296.70 564.48 296.52 563.29 296.32 C 561.80 296.04 560.32 295.71 558.85 295.39 Z" />
</g>
<g id="#d5d5d5ff">
<path fill="#d5d5d5" opacity="1.00" d=" M 305.21 144.28 C 309.23 142.15 315.06 143.39 317.25 147.56 C 312.89 148.11 307.72 147.14 304.47 150.80 C 300.77 149.19 294.38 150.37 293.47 145.36 C 298.31 145.04 303.17 145.12 308.00 145.57 C 307.07 145.13 306.14 144.70 305.21 144.28 Z" />
<path fill="#d5d5d5" opacity="1.00" d=" M 383.31 159.81 C 383.46 161.46 383.71 163.10 383.96 164.74 C 384.47 165.06 385.49 165.68 386.00 165.99 C 386.28 167.51 386.55 169.04 386.80 170.58 C 382.95 175.26 387.64 180.97 387.75 186.14 C 388.61 193.46 389.34 204.02 398.27 205.73 C 393.54 208.34 391.11 203.41 389.08 200.05 C 387.18 202.52 386.86 206.39 389.57 208.41 C 393.87 210.98 399.26 209.69 403.16 206.97 C 403.77 206.80 404.99 206.45 405.60 206.27 C 405.32 220.20 406.03 234.19 404.42 248.06 C 396.50 257.21 387.57 265.43 379.59 274.53 C 367.26 287.45 353.35 299.76 336.07 305.34 C 324.49 302.51 312.22 303.47 300.85 299.63 C 308.59 298.86 314.97 294.27 321.49 290.49 C 327.77 286.45 331.13 279.51 335.00 273.39 C 333.75 274.04 332.50 274.70 331.28 275.41 C 330.04 270.47 329.53 265.33 330.45 260.29 C 335.00 260.48 338.32 263.89 342.02 266.11 C 350.00 253.24 358.53 240.27 361.05 225.02 C 364.34 217.58 361.05 209.88 357.98 203.02 C 355.62 197.39 349.53 194.42 347.23 188.78 C 346.62 185.68 348.31 182.56 350.42 180.40 C 354.39 179.03 357.81 182.37 361.15 183.99 C 361.45 182.20 361.72 180.40 361.99 178.61 C 365.58 178.48 369.15 179.00 372.66 179.72 C 378.44 174.60 381.44 167.05 383.31 159.81 Z" />
<path fill="#d5d5d5" opacity="1.00" d=" M 247.83 206.93 C 247.23 204.37 250.94 202.17 251.62 205.30 C 251.45 211.42 253.45 218.55 249.18 223.72 C 248.93 218.77 250.20 214.02 251.19 209.22 C 250.06 208.45 248.94 207.69 247.83 206.93 Z" />
<path fill="#d5d5d5" opacity="1.00" d=" M 244.75 228.71 C 243.33 222.91 244.72 216.64 247.78 211.59 C 248.18 217.45 246.86 223.27 244.75 228.71 Z" />
<path fill="#d5d5d5" opacity="1.00" d=" M 305.13 256.85 C 306.30 256.48 307.50 256.21 308.70 255.92 C 309.37 261.04 309.85 266.58 307.23 271.26 C 305.02 275.26 302.61 279.27 302.11 283.91 C 310.54 286.22 318.26 281.95 326.19 279.99 C 322.22 285.55 316.16 288.90 310.41 292.29 C 301.40 299.20 288.41 295.22 280.26 288.77 C 282.41 281.56 275.67 276.16 273.07 270.07 C 278.31 271.02 283.80 271.31 289.00 269.98 C 296.10 267.64 304.12 264.38 307.24 257.00 C 306.71 256.96 305.66 256.88 305.13 256.85 Z" />
</g>
<g id="#d6d6d6ff">
<path fill="#d6d6d6" opacity="1.00" d=" M 393.92 149.28 C 398.69 146.90 404.23 148.19 409.24 148.90 C 414.20 150.28 412.67 156.15 412.00 159.87 C 411.53 162.39 411.14 164.92 410.78 167.46 C 405.95 162.59 398.96 161.61 392.48 160.86 C 392.31 158.57 392.14 156.28 392.00 153.99 C 393.24 153.89 394.49 153.79 395.75 153.70 C 395.13 152.23 394.51 150.76 393.92 149.28 Z" />
<path fill="#d6d6d6" opacity="1.00" d=" M 390.91 191.31 C 393.45 187.31 393.70 182.53 394.11 177.95 C 394.31 178.87 394.71 180.72 394.91 181.64 C 395.61 181.54 397.01 181.33 397.71 181.23 C 400.98 185.40 402.90 191.46 398.71 195.77 C 395.51 198.81 391.88 194.28 390.91 191.31 Z" />
</g>
<g id="#080808ff">
<path fill="#080808" opacity="1.00" d=" M 390.45 151.10 C 391.59 150.46 392.74 149.85 393.92 149.28 C 394.51 150.76 395.13 152.23 395.75 153.70 C 394.49 153.79 393.24 153.89 392.00 153.99 C 392.14 156.28 392.31 158.57 392.48 160.86 C 398.96 161.61 405.95 162.59 410.78 167.46 C 411.14 164.92 411.53 162.39 412.00 159.87 C 412.04 161.20 412.11 162.53 412.21 163.86 C 412.79 163.27 413.37 162.66 413.94 162.05 C 413.96 167.09 414.91 172.09 414.63 177.14 C 414.01 178.69 413.44 180.25 412.92 181.84 C 411.78 184.66 409.32 186.59 406.19 186.63 C 407.10 182.73 411.15 180.51 411.77 176.49 C 412.35 174.05 412.17 171.52 411.89 169.05 C 411.17 170.88 410.51 172.74 409.96 174.63 C 409.20 180.83 402.28 180.14 397.71 181.23 C 397.01 181.33 395.61 181.54 394.91 181.64 C 394.71 180.72 394.31 178.87 394.11 177.95 C 393.70 182.53 393.45 187.31 390.91 191.31 C 389.61 185.01 390.77 178.56 389.89 172.25 C 392.98 170.01 390.44 165.94 389.51 163.21 C 388.99 159.16 389.31 155.03 390.45 151.10 M 393.50 165.49 C 393.28 170.08 395.29 174.28 398.76 177.19 C 401.23 177.57 403.92 177.46 406.18 176.26 C 408.75 171.96 406.34 165.50 400.85 165.61 C 398.39 165.55 395.94 165.48 393.50 165.49 Z" />
<path fill="#080808" opacity="1.00" d=" M 266.10 224.97 C 266.47 219.05 272.64 215.57 278.00 215.18 C 285.15 214.67 291.03 219.50 296.27 223.70 C 295.30 224.92 294.46 226.22 293.61 227.52 C 291.69 226.47 289.76 225.41 287.84 224.37 C 287.72 225.20 287.48 226.85 287.36 227.67 C 286.19 230.14 284.61 233.39 281.31 232.87 C 283.22 228.70 287.44 221.15 281.00 218.99 C 274.85 216.01 270.71 222.10 266.10 224.97 Z" />
<path fill="#080808" opacity="1.00" d=" M 270.38 232.28 C 272.41 232.42 274.43 232.58 276.46 232.72 C 273.60 235.58 269.75 237.03 266.46 239.30 C 266.23 238.90 265.78 238.09 265.55 237.69 C 267.10 235.83 268.73 234.05 270.38 232.28 Z" />
</g>
<g id="#0c0c0cff">
<path fill="#0c0c0c" opacity="1.00" d=" M 376.58 163.72 C 378.95 159.64 376.47 154.14 379.70 150.55 C 380.02 152.53 380.31 154.51 380.57 156.51 C 381.45 157.10 382.34 157.70 383.23 158.30 C 383.25 158.67 383.29 159.43 383.31 159.81 C 381.44 167.05 378.44 174.60 372.66 179.72 C 369.15 179.00 365.58 178.48 361.99 178.61 C 359.76 176.37 357.83 173.87 356.21 171.16 C 362.79 171.62 368.84 179.51 375.64 174.05 C 374.74 170.55 374.70 166.91 376.58 163.72 Z" />
<path fill="#0c0c0c" opacity="1.00" d=" M 646.83 235.83 C 648.23 235.74 649.66 235.69 651.09 235.64 C 654.02 244.72 653.52 254.69 649.69 263.42 C 649.58 261.61 649.40 259.81 649.33 258.00 C 650.10 251.41 650.08 244.75 649.51 238.15 C 647.08 237.76 644.90 238.70 642.98 240.07 C 643.44 239.07 643.91 238.08 644.38 237.10 C 646.17 235.71 649.75 236.47 650.27 238.92 C 652.05 243.73 651.01 248.90 651.52 253.88 C 651.88 248.06 651.75 242.19 650.51 236.48 C 649.26 236.33 648.05 236.04 646.83 235.83 Z" />
<path fill="#0c0c0c" opacity="1.00" d=" M 216.93 355.92 C 217.66 355.79 219.11 355.54 219.83 355.42 C 226.92 359.58 234.71 362.38 241.96 366.22 C 243.92 367.27 245.69 369.06 245.33 371.49 C 241.15 371.19 237.03 370.28 233.12 368.76 C 226.71 365.78 221.63 360.69 216.24 356.24 L 216.93 355.92 Z" />
</g>
<g id="#f8f8f8ff">
<path fill="#f8f8f8" opacity="1.00" d=" M 383.23 158.30 C 384.91 155.24 387.34 152.70 390.45 151.10 C 389.31 155.03 388.99 159.16 389.51 163.21 C 388.33 164.13 387.16 165.05 386.00 165.99 C 385.49 165.68 384.47 165.06 383.96 164.74 C 383.71 163.10 383.46 161.46 383.31 159.81 C 383.29 159.43 383.25 158.67 383.23 158.30 Z" />
</g>
<g id="#fdfdfdff">
<path fill="#fdfdfd" opacity="1.00" d=" M 415.49 152.31 C 416.91 153.82 418.34 155.32 419.76 156.84 C 417.68 162.84 416.23 169.09 416.36 175.49 C 415.77 176.03 415.19 176.58 414.63 177.14 C 414.91 172.09 413.96 167.09 413.94 162.05 C 414.73 158.86 415.17 155.58 415.49 152.31 Z" />
<path fill="#fdfdfd" opacity="1.00" d=" M 599.46 212.02 C 601.98 210.06 604.65 207.46 608.16 208.23 C 612.66 212.60 611.81 219.59 612.57 225.33 C 611.00 226.15 608.42 226.11 608.10 228.31 C 609.89 228.29 611.71 228.23 613.51 228.17 C 613.76 229.54 614.00 230.93 614.24 232.31 C 614.91 237.11 615.62 241.90 616.30 246.70 C 616.41 248.21 616.52 249.73 616.62 251.25 C 615.90 251.56 614.46 252.16 613.73 252.47 C 614.67 254.30 616.51 255.52 616.85 257.68 C 613.05 256.91 609.20 256.30 605.31 256.47 C 605.25 255.24 605.19 254.00 605.14 252.77 C 603.84 252.64 602.56 252.38 601.28 252.40 C 601.70 253.98 603.95 254.73 605.02 255.98 C 603.45 256.40 601.94 256.93 600.34 257.15 C 600.74 253.59 599.28 249.23 601.84 246.28 C 605.73 244.99 609.90 245.74 613.86 246.30 C 613.71 245.89 613.41 245.06 613.27 244.65 C 609.42 243.18 605.35 244.21 601.44 244.65 C 601.06 239.55 598.19 233.88 601.63 229.26 C 598.82 223.94 599.50 217.81 599.46 212.02 M 601.01 249.58 C 599.43 252.53 604.31 249.85 601.01 249.58 M 612.74 255.01 C 612.78 254.30 612.85 252.88 612.88 252.17 C 611.88 252.37 610.89 252.59 609.91 252.81 C 610.25 251.67 610.59 250.54 610.92 249.40 C 607.10 250.73 609.59 254.96 612.74 255.01 Z" />
<path fill="#fdfdfd" opacity="1.00" d=" M 102.44 228.58 C 104.50 228.11 106.56 227.65 108.63 227.24 C 106.58 230.29 104.91 233.56 103.61 236.99 C 98.37 236.29 99.78 231.50 102.44 228.58 Z" />
<path fill="#fdfdfd" opacity="1.00" d=" M 258.28 261.22 C 259.64 260.20 261.31 260.47 262.85 260.89 C 267.19 261.51 269.45 264.91 269.96 269.04 C 270.49 269.21 271.55 269.57 272.09 269.75 L 273.07 270.07 C 275.67 276.16 282.41 281.56 280.26 288.77 C 272.26 284.11 270.40 274.89 267.11 267.01 C 266.63 268.10 266.15 269.20 265.67 270.29 C 261.99 268.50 260.39 264.46 258.28 261.22 Z" />
<path fill="#fdfdfd" opacity="1.00" d=" M 276.29 290.06 C 281.36 292.54 285.74 296.48 291.29 297.89 C 292.83 302.11 290.41 307.05 293.20 310.86 C 297.82 317.98 305.38 322.29 311.18 328.19 C 311.83 333.80 307.09 337.89 302.31 339.80 C 297.31 343.59 292.47 347.83 289.22 353.27 C 287.44 356.40 284.97 359.71 280.95 359.62 C 273.76 339.46 267.81 317.13 274.86 296.06 C 275.33 294.06 275.80 292.05 276.29 290.06 Z" />
<path fill="#fdfdfd" opacity="1.00" d=" M 351.01 319.80 C 358.21 322.39 364.31 327.37 371.78 329.32 C 380.02 331.64 387.15 336.45 394.77 340.15 C 391.06 345.09 387.67 350.28 384.88 355.80 C 383.38 355.16 381.67 354.71 380.64 353.37 C 373.40 343.88 366.51 334.05 358.44 325.23 C 358.26 325.04 357.89 324.65 357.71 324.46 C 356.98 325.92 356.25 327.38 355.49 328.83 C 354.34 327.00 354.44 324.74 353.63 322.77 C 352.78 321.76 351.91 320.77 351.01 319.80 Z" />
</g>
<g id="#121212ff">
<path fill="#121212" opacity="1.00" d=" M 228.32 163.69 C 229.16 163.25 230.00 162.82 230.84 162.38 C 234.07 164.64 237.57 166.47 240.87 168.62 C 236.58 167.25 232.27 165.89 228.32 163.69 Z" />
<path fill="#121212" opacity="1.00" d=" M 630.51 266.24 C 636.16 257.04 634.37 243.30 644.38 237.10 C 643.91 238.08 643.44 239.07 642.98 240.07 C 640.49 244.54 636.34 249.94 639.28 255.15 C 636.47 257.10 636.31 261.68 634.00 264.52 C 635.08 265.41 636.16 266.36 637.14 267.38 C 634.51 267.21 631.84 267.23 629.49 268.57 C 629.75 267.99 630.25 266.83 630.51 266.24 Z" />
</g>
<g id="#7b7b7bff">
<path fill="#7b7b7b" opacity="1.00" d=" M 386.00 165.99 C 387.16 165.05 388.33 164.13 389.51 163.21 C 390.44 165.94 392.98 170.01 389.89 172.25 C 389.12 171.83 387.57 171.00 386.80 170.58 C 386.55 169.04 386.28 167.51 386.00 165.99 Z" />
<path fill="#7b7b7b" opacity="1.00" d=" M 226.77 180.75 C 227.73 180.07 228.69 179.39 229.68 178.76 C 231.91 179.17 230.66 181.90 230.24 183.28 C 229.79 183.37 228.89 183.53 228.43 183.62 C 227.88 182.66 227.33 181.70 226.77 180.75 Z" />
<path fill="#7b7b7b" opacity="1.00" d=" M 409.57 213.00 C 409.36 207.61 407.38 200.50 410.50 196.04 C 410.11 201.69 411.06 207.47 409.57 213.00 Z" />
<path fill="#7b7b7b" opacity="1.00" d=" M 556.47 442.91 C 555.22 430.21 555.89 417.37 558.40 404.86 C 557.70 417.36 555.77 430.02 557.79 442.47 C 563.74 442.29 566.33 435.37 571.93 433.92 C 572.48 434.08 573.56 434.40 574.11 434.56 C 571.24 440.49 562.28 442.24 563.40 449.93 C 560.77 447.99 557.53 446.20 556.47 442.91 Z" />
</g>
<g id="#5f5f5fff">
<path fill="#5f5f5f" opacity="1.00" d=" M 393.50 165.49 C 395.94 165.48 398.39 165.55 400.85 165.61 C 402.49 168.48 403.74 171.61 403.29 174.99 C 401.66 174.60 400.02 174.21 398.40 173.83 C 398.49 174.67 398.67 176.35 398.76 177.19 C 395.29 174.28 393.28 170.08 393.50 165.49 Z" />
</g>
<g id="#e5e5e5ff">
<path fill="#e5e5e5" opacity="1.00" d=" M 400.85 165.61 C 406.34 165.50 408.75 171.96 406.18 176.26 C 403.92 177.46 401.23 177.57 398.76 177.19 C 398.67 176.35 398.49 174.67 398.40 173.83 C 400.02 174.21 401.66 174.60 403.29 174.99 C 403.74 171.61 402.49 168.48 400.85 165.61 Z" />
</g>
<g id="#0a0a0aff">
<path fill="#0a0a0a" opacity="1.00" d=" M 225.03 168.28 C 231.52 174.32 237.93 180.50 245.20 185.63 C 248.97 188.13 251.02 192.63 250.43 197.13 C 245.62 197.73 240.79 198.75 235.92 198.37 C 230.89 196.06 230.73 189.68 226.93 186.19 C 223.89 183.32 221.42 179.95 219.38 176.32 C 218.22 177.55 216.81 178.60 215.98 180.09 C 215.20 192.70 209.45 204.87 201.02 214.21 C 197.08 219.47 190.27 220.54 184.83 223.58 L 183.74 224.10 C 187.69 220.06 193.97 219.94 198.03 216.06 C 206.08 208.89 210.61 198.74 214.01 188.73 C 215.37 185.11 213.87 180.04 217.59 177.63 C 221.09 175.43 223.23 171.88 225.03 168.28 M 224.28 176.24 C 223.44 178.34 225.46 179.55 226.77 180.75 C 227.33 181.70 227.88 182.66 228.43 183.62 C 228.89 183.53 229.79 183.37 230.24 183.28 C 230.66 181.90 231.91 179.17 229.68 178.76 C 227.85 177.99 226.07 177.09 224.28 176.24 M 230.36 186.69 C 235.18 187.34 240.02 187.89 244.81 188.75 C 242.28 185.43 236.72 184.10 235.44 180.59 C 233.64 182.54 231.39 184.16 230.36 186.69 M 234.47 189.42 C 233.79 189.85 233.10 190.27 232.42 190.70 C 234.10 192.31 235.43 196.22 238.25 195.26 C 238.75 193.40 237.34 191.64 236.90 189.88 C 236.09 189.73 235.28 189.57 234.47 189.42 Z" />
<path fill="#0a0a0a" opacity="1.00" d=" M 619.37 354.64 C 623.30 355.56 623.95 360.30 622.48 363.46 C 619.08 370.94 613.74 377.29 609.46 384.25 C 608.92 384.47 607.86 384.89 607.32 385.11 C 607.49 384.00 607.60 382.89 607.74 381.79 C 610.50 381.87 611.11 379.17 611.69 377.02 C 613.83 372.47 617.52 368.84 619.56 364.24 C 619.82 361.04 619.51 357.83 619.37 354.64 Z" />
</g>
<g id="#bcbcbcff">
<path fill="#bcbcbc" opacity="1.00" d=" M 411.89 169.05 C 412.17 171.52 412.35 174.05 411.77 176.49 C 411.32 176.03 410.41 175.10 409.96 174.63 C 410.51 172.74 411.17 170.88 411.89 169.05 Z" />
<path fill="#bcbcbc" opacity="1.00" d=" M 227.85 423.68 C 231.48 429.02 229.96 436.02 229.60 442.07 C 226.72 437.83 224.05 432.91 224.39 427.63 C 225.33 428.81 226.33 429.94 227.33 431.08 C 227.57 428.62 227.76 426.15 227.85 423.68 Z" />
</g>
<g id="#fafafaff">
<path fill="#fafafa" opacity="1.00" d=" M 387.75 186.14 C 387.64 180.97 382.95 175.26 386.80 170.58 C 387.57 171.00 389.12 171.83 389.89 172.25 C 390.77 178.56 389.61 185.01 390.91 191.31 C 391.88 194.28 395.51 198.81 398.71 195.77 C 402.90 191.46 400.98 185.40 397.71 181.23 C 402.28 180.14 409.20 180.83 409.96 174.63 C 410.41 175.10 411.32 176.03 411.77 176.49 C 411.15 180.51 407.10 182.73 406.19 186.63 C 409.32 186.59 411.78 184.66 412.92 181.84 C 413.01 186.94 408.49 189.99 406.42 194.20 C 404.07 198.25 403.20 203.90 398.27 205.73 C 389.34 204.02 388.61 193.46 387.75 186.14 Z" />
<path fill="#fafafa" opacity="1.00" d=" M 230.36 186.69 C 231.39 184.16 233.64 182.54 235.44 180.59 C 236.72 184.10 242.28 185.43 244.81 188.75 C 240.02 187.89 235.18 187.34 230.36 186.69 Z" />
</g>
<g id="#cbcbcbff">
<path fill="#cbcbcb" opacity="1.00" d=" M 260.31 182.80 C 264.20 178.47 269.21 172.92 275.69 174.92 C 277.44 179.63 281.84 179.54 285.82 177.67 C 285.07 179.04 284.43 180.47 283.88 181.93 C 290.20 178.90 297.35 179.11 304.01 180.81 C 307.61 181.69 313.33 181.62 313.91 186.40 C 304.56 184.09 293.09 180.61 284.54 186.82 C 281.99 183.98 278.92 187.13 276.45 188.40 C 278.96 195.80 272.83 204.31 264.67 201.78 C 265.03 197.80 263.45 194.05 261.46 190.72 C 262.55 189.42 263.63 188.13 264.74 186.85 C 264.09 185.14 263.02 183.60 261.13 183.16 L 260.31 182.80 Z" />
<path fill="#cbcbcb" opacity="1.00" d=" M 319.21 178.12 C 323.84 180.19 329.26 183.25 330.27 188.67 C 327.90 188.77 325.19 188.71 323.55 190.73 C 326.48 190.58 329.42 190.41 332.35 190.75 C 330.00 191.99 327.38 192.39 324.79 192.69 C 324.35 193.79 323.92 194.88 323.50 195.98 C 320.54 196.21 318.75 193.77 318.50 191.05 C 318.43 190.67 318.30 189.90 318.23 189.52 C 319.47 185.81 320.49 181.98 319.21 178.12 M 322.58 187.32 C 323.63 188.55 327.53 188.62 328.51 187.23 C 326.74 186.29 324.33 186.43 322.58 187.32 Z" />
<path fill="#cbcbcb" opacity="1.00" d=" M 235.61 227.36 C 231.73 223.80 234.62 218.94 235.73 214.86 C 235.79 219.03 235.84 223.19 235.61 227.36 Z" />
<path fill="#cbcbcb" opacity="1.00" d=" M 247.01 237.56 C 243.98 233.80 247.63 228.61 248.69 224.59 C 247.99 228.90 247.97 233.29 247.01 237.56 Z" />
</g>
<g id="#f9f9f9ff">
<path fill="#f9f9f9" opacity="1.00" d=" M 224.28 176.24 C 226.07 177.09 227.85 177.99 229.68 178.76 C 228.69 179.39 227.73 180.07 226.77 180.75 C 225.46 179.55 223.44 178.34 224.28 176.24 Z" />
<path fill="#f9f9f9" opacity="1.00" d=" M 602.48 260.48 C 603.90 258.71 605.63 257.35 607.92 258.91 C 607.52 260.12 607.13 261.33 606.73 262.54 C 605.29 261.84 603.90 261.17 602.48 260.48 Z" />
<path fill="#f9f9f9" opacity="1.00" d=" M 608.61 258.51 C 611.94 257.71 613.83 260.57 616.55 261.69 C 616.12 262.04 615.71 262.39 615.30 262.75 C 616.21 264.15 616.68 265.71 616.46 267.40 C 613.89 265.11 610.46 264.31 607.54 262.62 C 608.04 261.29 608.44 259.93 608.61 258.51 Z" />
</g>
<g id="#010101ff">
<path fill="#010101" opacity="1.00" d=" M 163.44 182.64 C 163.70 182.34 164.22 181.74 164.48 181.45 C 162.19 188.33 158.22 194.75 152.07 198.82 C 143.16 204.68 138.19 214.45 130.21 221.31 C 142.18 233.43 159.55 237.03 175.97 237.66 C 178.35 233.05 180.18 227.94 183.74 224.10 L 184.83 223.58 C 181.36 227.95 178.71 232.89 176.39 237.94 C 177.16 238.13 178.69 238.51 179.45 238.70 C 179.97 244.12 175.38 247.03 171.63 249.93 C 175.19 252.13 177.67 256.55 176.72 260.63 C 170.15 264.89 167.44 272.70 164.45 279.57 C 160.37 289.81 155.82 299.85 151.25 309.88 C 159.42 308.21 168.73 312.20 175.89 306.95 C 186.73 301.21 199.34 303.53 211.06 302.40 C 220.85 301.06 231.13 300.35 240.24 296.31 C 242.67 297.97 241.84 300.52 239.24 301.33 C 230.78 302.46 222.49 304.59 213.96 305.25 C 202.56 307.38 190.82 306.38 179.48 308.84 C 176.36 309.27 174.65 312.31 171.82 313.38 C 164.60 316.64 156.74 312.98 149.20 314.08 C 142.29 328.59 135.84 343.41 132.07 359.07 C 126.31 374.79 119.09 391.13 106.74 402.70 C 106.06 395.93 111.22 390.88 115.47 386.41 C 123.67 375.07 128.91 361.75 131.29 347.99 C 143.18 319.48 155.68 291.18 166.77 262.32 C 160.80 259.45 153.94 259.91 147.82 257.41 C 136.02 253.15 122.45 253.19 112.37 244.92 C 106.61 243.95 102.72 239.27 97.10 238.08 C 90.26 244.03 89.58 253.59 85.34 261.14 C 80.43 273.05 72.57 283.44 63.58 292.56 C 57.29 298.73 51.30 305.63 48.23 314.01 C 47.40 322.69 37.73 325.99 35.23 334.08 C 33.46 327.41 38.16 321.78 42.59 317.44 C 45.56 305.90 55.96 298.83 62.90 289.76 C 77.79 272.21 84.72 249.86 96.24 230.26 C 100.24 225.68 105.48 220.96 112.12 222.21 C 113.89 219.69 115.87 217.32 118.05 215.14 C 121.99 216.06 125.72 217.77 128.90 220.28 C 129.95 219.15 131.00 218.01 132.06 216.89 C 128.51 213.34 122.88 217.28 119.49 213.99 C 124.55 214.48 130.08 212.82 134.23 216.73 C 140.01 210.43 144.62 202.93 151.90 198.10 C 157.48 194.37 160.59 188.46 163.44 182.64 M 107.45 238.49 C 111.55 240.22 114.87 243.20 118.57 245.55 C 132.11 251.02 146.48 254.57 161.04 255.73 C 167.11 254.56 170.49 248.59 172.08 243.05 C 165.22 240.09 158.12 237.94 150.77 236.52 C 139.66 232.17 130.22 224.33 118.99 220.18 C 113.93 225.38 109.40 231.40 107.45 238.49 M 102.44 228.58 C 99.78 231.50 98.37 236.29 103.61 236.99 C 104.91 233.56 106.58 230.29 108.63 227.24 C 106.56 227.65 104.50 228.11 102.44 228.58 M 167.37 256.61 C 168.81 256.65 170.25 256.70 171.70 256.74 C 170.80 255.77 169.93 254.78 169.03 253.82 C 168.48 254.75 167.93 255.68 167.37 256.61 Z" />
<path fill="#010101" opacity="1.00" d=" M 261.13 183.16 C 263.02 183.60 264.09 185.14 264.74 186.85 C 263.63 188.13 262.55 189.42 261.46 190.72 C 263.45 194.05 265.03 197.80 264.67 201.78 C 264.56 202.14 264.34 202.87 264.24 203.24 C 263.78 203.31 262.88 203.45 262.43 203.52 C 262.28 197.82 255.97 191.38 260.55 186.54 C 260.69 185.70 260.99 184.01 261.13 183.16 Z" />
</g>
<g id="#b3b3b3ff">
<path fill="#b3b3b3" opacity="1.00" d=" M 322.58 187.32 C 324.33 186.43 326.74 186.29 328.51 187.23 C 327.53 188.62 323.63 188.55 322.58 187.32 Z" />
</g>
<g id="#f4f4f4ff">
<path fill="#f4f4f4" opacity="1.00" d=" M 234.47 189.42 C 235.28 189.57 236.09 189.73 236.90 189.88 C 237.34 191.64 238.75 193.40 238.25 195.26 C 235.43 196.22 234.10 192.31 232.42 190.70 C 233.10 190.27 233.79 189.85 234.47 189.42 Z" />
<path fill="#f4f4f4" opacity="1.00" d=" M 167.37 256.61 C 167.93 255.68 168.48 254.75 169.03 253.82 C 169.93 254.78 170.80 255.77 171.70 256.74 C 170.25 256.70 168.81 256.65 167.37 256.61 Z" />
</g>
<g id="#b2b2b2ff">
<path fill="#b2b2b2" opacity="1.00" d=" M 323.55 190.73 C 325.19 188.71 327.90 188.77 330.27 188.67 C 332.70 189.06 335.17 189.62 337.30 190.93 C 335.64 190.96 333.99 190.90 332.35 190.75 C 329.42 190.41 326.48 190.58 323.55 190.73 Z" />
</g>
<g id="#060606ff">
<path fill="#060606" opacity="1.00" d=" M 566.78 195.77 C 568.98 191.82 574.32 191.91 578.18 192.77 C 582.43 194.71 582.48 200.06 582.72 204.07 C 583.04 214.69 588.41 224.09 591.35 234.07 C 593.15 241.57 593.59 249.30 594.91 256.89 C 595.44 258.89 594.77 262.54 597.82 262.39 C 597.95 260.44 598.08 258.50 598.21 256.56 C 598.74 256.71 599.81 257.00 600.34 257.15 C 601.94 256.93 603.45 256.40 605.02 255.98 C 603.95 254.73 601.70 253.98 601.28 252.40 C 602.56 252.38 603.84 252.64 605.14 252.77 C 605.19 254.00 605.25 255.24 605.31 256.47 C 609.20 256.30 613.05 256.91 616.85 257.68 C 616.51 255.52 614.67 254.30 613.73 252.47 C 614.46 252.16 615.90 251.56 616.62 251.25 C 616.52 249.73 616.41 248.21 616.30 246.70 C 618.97 254.38 618.35 262.63 617.28 270.54 C 618.74 271.39 620.15 272.33 621.60 273.23 C 619.66 273.44 617.73 273.52 615.80 273.51 C 613.28 266.63 605.47 261.66 598.18 263.93 C 598.37 265.17 598.55 266.40 598.74 267.65 C 591.48 263.50 591.76 254.26 591.16 247.02 C 589.84 230.25 579.87 215.09 581.32 197.98 C 578.76 195.53 574.83 193.06 571.38 195.34 C 566.15 198.12 565.61 204.73 566.67 209.94 C 565.81 205.36 563.97 200.03 566.78 195.77 M 602.48 260.48 C 603.90 261.17 605.29 261.84 606.73 262.54 C 607.13 261.33 607.52 260.12 607.92 258.91 C 605.63 257.35 603.90 258.71 602.48 260.48 M 608.61 258.51 C 608.44 259.93 608.04 261.29 607.54 262.62 C 610.46 264.31 613.89 265.11 616.46 267.40 C 616.68 265.71 616.21 264.15 615.30 262.75 C 615.71 262.39 616.12 262.04 616.55 261.69 C 613.83 260.57 611.94 257.71 608.61 258.51 Z" />
<path fill="#060606" opacity="1.00" d=" M 271.42 296.24 C 272.28 296.19 274.00 296.10 274.86 296.06 C 267.81 317.13 273.76 339.46 280.95 359.62 C 284.97 359.71 287.44 356.40 289.22 353.27 C 293.40 354.42 290.88 360.41 291.63 363.77 C 291.62 366.63 291.59 369.48 291.54 372.34 C 290.85 372.49 289.49 372.79 288.81 372.94 C 288.80 368.69 288.78 364.43 288.53 360.19 C 285.96 360.03 284.48 362.32 282.82 363.87 L 282.10 364.59 C 280.49 363.72 278.32 363.34 277.44 361.54 C 269.38 341.05 263.54 317.83 271.01 296.26 L 271.42 296.24 Z" />
<path fill="#060606" opacity="1.00" d=" M 527.92 297.70 C 528.39 297.42 529.32 296.86 529.79 296.58 C 534.69 298.72 539.49 301.09 544.48 303.02 C 543.34 303.82 542.69 306.36 540.97 305.59 C 536.16 304.01 530.70 302.30 527.92 297.70 Z" />
<path fill="#060606" opacity="1.00" d=" M 217.60 384.87 C 224.06 380.88 229.61 375.42 236.62 372.37 C 237.72 373.15 238.89 373.82 240.06 374.51 C 233.57 378.45 226.80 382.20 221.79 388.07 C 221.97 390.09 222.15 392.12 222.21 394.16 C 221.92 404.27 225.36 414.02 227.85 423.68 C 227.76 426.15 227.57 428.62 227.33 431.08 C 226.33 429.94 225.33 428.81 224.39 427.63 C 220.64 418.01 217.72 408.08 214.92 398.15 C 214.05 393.77 212.96 387.52 217.60 384.87 Z" />
<path fill="#060606" opacity="1.00" d=" M 615.61 400.71 C 617.35 397.27 619.58 394.11 621.83 391.00 C 618.84 399.12 616.34 407.40 613.80 415.65 C 613.53 415.36 613.00 414.80 612.73 414.52 C 615.18 410.19 612.93 404.90 615.61 400.71 Z" />
</g>
<g id="#5e5e5eff">
<path fill="#5e5e5e" opacity="1.00" d=" M 403.16 206.97 C 404.13 206.33 405.08 205.66 406.04 205.00 C 409.03 216.24 404.64 228.05 408.05 239.34 C 408.27 241.81 408.48 244.29 408.53 246.77 C 407.15 247.19 405.78 247.62 404.42 248.06 C 406.03 234.19 405.32 220.20 405.60 206.27 C 404.99 206.45 403.77 206.80 403.16 206.97 Z" />
</g>
<g id="#1d1d1dff">
<path fill="#1d1d1d" opacity="1.00" d=" M 596.72 212.57 C 599.76 208.90 604.43 203.14 609.68 206.53 C 614.77 211.44 613.66 219.51 614.52 225.97 C 614.44 228.08 614.28 230.19 614.24 232.31 C 614.00 230.93 613.76 229.54 613.51 228.17 C 611.71 228.23 609.89 228.29 608.10 228.31 C 608.42 226.11 611.00 226.15 612.57 225.33 C 611.81 219.59 612.66 212.60 608.16 208.23 C 604.65 207.46 601.98 210.06 599.46 212.02 C 599.50 217.81 598.82 223.94 601.63 229.26 C 598.19 233.88 601.06 239.55 601.44 244.65 C 605.35 244.21 609.42 243.18 613.27 244.65 C 613.41 245.06 613.71 245.89 613.86 246.30 C 609.90 245.74 605.73 244.99 601.84 246.28 C 599.28 249.23 600.74 253.59 600.34 257.15 C 599.81 257.00 598.74 256.71 598.21 256.56 C 598.08 258.50 597.95 260.44 597.82 262.39 C 594.77 262.54 595.44 258.89 594.91 256.89 C 595.56 258.31 595.57 260.26 597.19 261.02 C 599.49 244.92 598.13 228.68 596.72 212.57 Z" />
<path fill="#1d1d1d" opacity="1.00" d=" M 556.00 276.85 C 557.94 273.67 561.25 271.27 564.84 270.30 C 562.50 273.14 559.71 276.00 556.00 276.85 Z" />
</g>
<g id="#2e2e2eff">
<path fill="#2e2e2e" opacity="1.00" d=" M 565.76 210.49 C 566.70 211.76 567.58 213.08 568.45 214.40 C 571.21 215.40 575.35 214.51 576.90 217.50 C 574.08 217.71 571.26 217.53 568.46 217.35 C 567.58 223.84 569.49 230.11 570.84 236.37 C 573.88 236.80 576.70 235.17 579.73 235.30 C 579.60 235.75 579.35 236.66 579.22 237.11 C 576.60 237.52 574.01 238.04 571.49 238.81 C 569.99 249.12 579.12 258.75 574.94 268.82 C 575.20 265.38 575.16 261.93 574.96 258.49 C 573.76 260.15 573.04 262.10 572.69 264.11 C 572.43 263.61 571.89 262.62 571.62 262.12 C 571.79 261.48 572.13 260.21 572.30 259.57 C 572.76 258.13 572.72 256.61 572.49 255.14 C 569.69 240.36 566.47 225.54 565.76 210.49 Z" />
</g>
<g id="#545454ff">
<path fill="#545454" opacity="1.00" d=" M 614.52 225.97 C 617.13 240.62 620.98 255.72 618.24 270.67 C 622.94 271.52 627.20 269.43 630.51 266.24 C 630.25 266.83 629.75 267.99 629.49 268.57 C 627.75 271.05 624.60 272.00 622.09 273.52 L 621.60 273.23 C 620.15 272.33 618.74 271.39 617.28 270.54 C 618.35 262.63 618.97 254.38 616.30 246.70 C 615.62 241.90 614.91 237.11 614.24 232.31 C 614.28 230.19 614.44 228.08 614.52 225.97 Z" />
</g>
<g id="#dededeff">
<path fill="#dedede" opacity="1.00" d=" M 281.31 232.87 C 284.61 233.39 286.19 230.14 287.36 227.67 C 288.16 229.01 288.96 230.36 289.76 231.71 C 284.26 235.64 277.88 237.90 271.49 239.89 C 268.35 240.52 268.71 244.09 268.13 246.51 C 266.05 245.10 264.02 243.58 261.66 242.68 C 262.90 240.97 264.18 239.29 265.55 237.69 C 265.78 238.09 266.23 238.90 266.46 239.30 C 269.75 237.03 273.60 235.58 276.46 232.72 C 278.07 232.80 279.69 232.84 281.31 232.87 Z" />
<path fill="#dedede" opacity="1.00" d=" M 554.71 373.02 C 556.00 374.18 557.23 375.41 558.52 376.57 C 567.22 383.94 579.40 383.99 590.18 383.26 C 580.70 385.96 570.86 383.21 561.60 380.91 C 558.68 378.90 555.55 376.69 554.71 373.02 Z" />
</g>
<g id="#c2c2c2ff">
<path fill="#c2c2c2" opacity="1.00" d=" M 408.93 235.14 C 419.21 240.05 419.18 253.23 419.14 263.01 C 417.68 276.50 420.22 291.03 413.53 303.47 C 407.29 315.70 403.02 329.03 394.77 340.15 C 387.15 336.45 380.02 331.64 371.78 329.32 C 364.31 327.37 358.21 322.39 351.01 319.80 C 350.24 319.07 349.48 318.34 348.74 317.61 C 348.57 314.89 348.05 312.14 346.35 309.93 C 345.39 308.51 344.39 307.13 343.40 305.74 C 351.02 301.77 359.15 298.43 365.52 292.50 C 377.24 281.22 388.46 269.44 399.39 257.39 C 402.42 253.84 406.79 251.29 408.53 246.77 C 408.48 244.29 408.27 241.81 408.05 239.34 C 408.32 237.93 408.61 236.53 408.93 235.14 Z" />
<path fill="#c2c2c2" opacity="1.00" d=" M 491.25 286.47 L 491.79 287.26 C 494.58 298.46 501.00 307.96 508.33 316.66 C 504.54 317.07 500.74 317.35 496.99 318.02 C 496.40 326.38 501.81 333.81 501.17 342.21 C 496.44 342.16 492.57 339.54 488.57 337.41 C 479.72 329.94 483.03 317.35 478.06 307.94 C 484.38 306.23 490.52 303.93 496.90 302.40 C 494.61 297.25 492.08 292.11 491.25 286.47 Z" />
<path fill="#c2c2c2" opacity="1.00" d=" M 291.29 297.89 C 296.56 298.53 298.89 304.35 304.00 305.26 C 314.66 307.47 325.78 306.00 336.39 308.59 C 336.60 309.10 337.03 310.13 337.25 310.64 C 333.95 310.31 330.03 309.89 327.50 312.52 C 322.65 317.19 317.87 322.09 314.61 328.03 C 313.96 328.23 312.66 328.61 312.01 328.80 C 312.70 329.19 313.40 329.59 314.10 329.98 C 318.83 326.15 322.22 320.80 327.54 317.70 C 328.97 323.97 328.32 330.42 328.51 336.79 C 329.13 336.40 330.36 335.61 330.98 335.21 C 330.94 336.44 330.90 337.67 330.88 338.90 C 332.68 339.21 334.48 339.53 336.29 339.78 C 333.29 340.93 330.41 339.63 328.61 337.09 C 329.02 345.39 325.97 353.23 324.07 361.16 C 324.04 354.71 327.50 348.90 327.48 342.45 C 321.37 343.78 316.51 347.89 312.43 352.41 C 307.67 357.81 299.99 354.67 294.02 353.74 C 296.79 350.28 300.54 347.65 302.88 343.84 C 303.51 342.51 304.54 340.10 302.31 339.80 C 307.09 337.89 311.83 333.80 311.18 328.19 C 305.38 322.29 297.82 317.98 293.20 310.86 C 290.41 307.05 292.83 302.11 291.29 297.89 Z" />
<path fill="#c2c2c2" opacity="1.00" d=" M 479.06 372.62 C 482.02 371.72 484.97 370.79 487.90 369.78 C 489.72 369.82 491.54 369.94 493.37 370.04 C 496.87 373.45 501.77 376.04 503.20 381.04 C 503.83 384.43 502.84 387.85 502.49 391.22 C 500.80 388.41 498.40 386.14 495.98 383.98 C 494.60 384.13 493.21 384.29 491.84 384.45 C 488.68 379.44 483.45 376.40 479.06 372.62 Z" />
</g>
<g id="#202020ff">
<path fill="#202020" opacity="1.00" d=" M 575.42 242.33 C 575.41 238.99 580.15 239.63 582.51 238.67 C 582.02 241.93 577.74 241.42 575.42 242.33 Z" />
<path fill="#202020" opacity="1.00" d=" M 624.64 374.45 C 625.06 372.79 624.92 370.68 626.65 369.71 C 626.51 372.59 626.22 375.46 625.79 378.31 C 624.70 382.59 623.76 387.01 621.83 391.00 C 619.58 394.11 617.35 397.27 615.61 400.71 C 612.93 404.90 615.18 410.19 612.73 414.52 C 613.00 414.80 613.53 415.36 613.80 415.65 L 614.03 415.89 C 611.80 415.77 609.52 416.09 607.35 415.57 C 604.97 412.80 604.50 409.01 603.60 405.60 C 593.58 401.45 582.83 397.92 571.85 398.52 C 574.50 398.14 577.18 397.96 579.85 397.76 C 579.74 397.57 579.52 397.19 579.42 397.00 L 578.98 396.23 C 585.92 396.54 592.47 398.79 598.82 401.54 C 600.10 402.08 601.38 402.63 602.68 403.16 C 602.75 402.28 602.89 400.51 602.96 399.62 C 603.26 396.68 603.49 393.74 603.68 390.79 C 603.71 390.38 603.77 389.56 603.81 389.15 C 605.09 387.90 606.31 386.59 607.32 385.11 C 607.86 384.89 608.92 384.47 609.46 384.25 C 604.63 392.19 602.06 402.34 606.88 410.90 C 608.87 411.65 610.70 412.70 612.51 413.83 C 613.31 411.22 613.85 408.45 612.76 405.84 C 616.21 395.16 623.27 385.78 624.64 374.45 Z" />
</g>
<g id="#979797ff">
<path fill="#979797" opacity="1.00" d=" M 290.68 255.80 C 303.55 250.75 314.40 239.73 329.20 240.96 C 327.29 241.34 325.43 241.92 323.59 242.55 C 325.30 245.68 326.95 248.94 327.32 252.55 C 324.31 250.35 322.35 246.66 318.63 245.52 C 314.94 244.57 311.21 246.13 308.14 248.10 C 301.90 252.09 295.34 255.55 288.85 259.12 C 289.86 261.01 290.85 262.90 291.85 264.80 C 296.90 263.26 301.03 260.02 305.13 256.85 C 305.66 256.88 306.71 256.96 307.24 257.00 C 304.12 264.38 296.10 267.64 289.00 269.98 C 289.70 267.25 291.16 264.04 289.70 261.38 C 284.24 259.27 278.60 261.80 273.11 262.35 C 271.43 264.37 268.13 268.18 272.09 269.75 C 271.55 269.57 270.49 269.21 269.96 269.04 C 269.45 264.91 267.19 261.51 262.85 260.89 C 265.68 261.48 268.69 262.46 271.56 261.44 C 277.83 259.19 284.61 258.65 290.68 255.80 Z" />
</g>
<g id="#0b0b0bff">
<path fill="#0b0b0b" opacity="1.00" d=" M 404.42 248.06 C 405.78 247.62 407.15 247.19 408.53 246.77 C 406.79 251.29 402.42 253.84 399.39 257.39 C 388.46 269.44 377.24 281.22 365.52 292.50 C 359.15 298.43 351.02 301.77 343.40 305.74 C 344.39 307.13 345.39 308.51 346.35 309.93 C 343.41 311.00 340.30 311.33 337.25 310.64 C 337.03 310.13 336.60 309.10 336.39 308.59 C 325.78 306.00 314.66 307.47 304.00 305.26 C 298.89 304.35 296.56 298.53 291.29 297.89 C 285.74 296.48 281.36 292.54 276.29 290.06 C 275.80 292.05 275.33 294.06 274.86 296.06 C 274.00 296.10 272.28 296.19 271.42 296.24 C 271.85 293.35 272.91 290.62 273.79 287.85 C 272.26 286.03 270.64 284.28 268.97 282.59 C 263.35 284.25 259.49 289.54 254.16 291.28 C 253.50 291.03 252.19 290.55 251.53 290.31 C 256.57 286.51 261.61 282.71 267.00 279.42 C 264.21 273.10 259.27 268.02 254.69 262.98 C 255.88 262.39 257.08 261.80 258.28 261.22 C 260.39 264.46 261.99 268.50 265.67 270.29 C 266.15 269.20 266.63 268.10 267.11 267.01 C 270.40 274.89 272.26 284.11 280.26 288.77 C 288.41 295.22 301.40 299.20 310.41 292.29 C 316.16 288.90 322.22 285.55 326.19 279.99 C 327.72 278.29 329.42 276.74 331.28 275.41 C 332.50 274.70 333.75 274.04 335.00 273.39 C 331.13 279.51 327.77 286.45 321.49 290.49 C 314.97 294.27 308.59 298.86 300.85 299.63 C 312.22 303.47 324.49 302.51 336.07 305.34 C 353.35 299.76 367.26 287.45 379.59 274.53 C 387.57 265.43 396.50 257.21 404.42 248.06 Z" />
</g>
<g id="#101010ff">
<path fill="#101010" opacity="1.00" d=" M 572.69 264.11 C 573.04 262.10 573.76 260.15 574.96 258.49 C 575.16 261.93 575.20 265.38 574.94 268.82 C 573.18 270.58 570.52 270.34 568.38 269.53 C 568.30 269.03 568.13 268.02 568.05 267.52 C 569.86 267.50 571.66 267.44 573.49 267.37 C 573.29 266.55 572.89 264.92 572.69 264.11 Z" />
</g>
<g id="#1a1a1aff">
<path fill="#1a1a1a" opacity="1.00" d=" M 578.22 260.10 C 581.60 257.03 587.67 259.15 588.88 263.39 C 585.45 262.85 582.75 271.14 579.24 265.59 C 581.54 264.91 584.26 264.86 585.85 262.79 C 583.63 261.05 581.04 260.06 578.22 260.10 Z" />
<path fill="#1a1a1a" opacity="1.00" d=" M 506.20 304.98 C 507.04 301.52 509.80 299.12 511.76 296.31 C 512.04 300.12 509.45 303.31 506.20 304.98 Z" />
</g>
<g id="#4d4d4dff">
<path fill="#4d4d4d" opacity="1.00" d=" M 573.06 277.89 C 572.03 276.93 573.59 276.25 574.41 276.82 C 578.46 278.86 578.67 284.49 582.76 286.47 C 591.93 291.30 603.54 282.53 611.96 289.45 C 603.45 286.65 595.00 291.62 586.42 290.35 C 580.43 288.22 577.11 282.38 573.06 277.89 Z" />
</g>
<g id="#363636ff">
<path fill="#363636" opacity="1.00" d=" M 550.60 290.73 C 550.85 289.38 551.19 288.05 551.59 286.73 C 551.47 289.61 550.66 293.02 553.40 295.00 C 561.48 293.58 570.06 293.39 577.84 296.35 C 580.99 297.79 584.68 300.13 584.82 303.98 C 581.11 300.41 577.04 296.52 571.44 296.92 C 568.81 293.00 562.87 295.64 558.85 295.39 C 560.32 295.71 561.80 296.04 563.29 296.32 C 557.42 295.31 552.21 296.91 548.86 301.93 C 550.04 300.29 551.22 298.64 552.41 297.00 C 551.36 295.06 550.50 292.98 550.60 290.73 Z" />
</g>
<g id="#181818ff">
<path fill="#181818" opacity="1.00" d=" M 240.24 296.31 C 243.78 293.93 247.28 291.27 251.53 290.31 C 252.19 290.55 253.50 291.03 254.16 291.28 C 251.14 293.12 248.44 295.43 245.95 297.93 C 235.26 311.68 229.68 328.39 223.13 344.28 C 222.14 345.46 221.18 346.68 220.23 347.89 C 220.18 346.18 220.12 344.47 220.13 342.76 C 225.87 328.73 229.56 313.29 239.24 301.33 C 241.84 300.52 242.67 297.97 240.24 296.31 Z" />
</g>
<g id="#bababaff">
<path fill="#bababa" opacity="1.00" d=" M 525.14 294.78 C 526.69 295.35 528.25 295.93 529.79 296.58 C 529.32 296.86 528.39 297.42 527.92 297.70 C 530.70 302.30 536.16 304.01 540.97 305.59 C 542.69 306.36 543.34 303.82 544.48 303.02 C 544.91 302.79 545.77 302.34 546.20 302.11 C 544.29 306.09 539.90 307.55 535.95 308.60 C 531.87 304.38 528.63 299.47 525.14 294.78 Z" />
</g>
<g id="#353535ff">
<path fill="#353535" opacity="1.00" d=" M 568.00 298.76 C 568.66 298.40 569.33 298.03 570.01 297.68 C 572.69 310.06 573.31 325.83 563.18 335.03 C 568.79 323.97 572.15 310.90 568.00 298.76 Z" />
<path fill="#353535" opacity="1.00" d=" M 578.29 387.04 C 582.02 384.84 579.19 390.69 578.29 387.04 Z" />
</g>
<g id="#c3c3c3ff">
<path fill="#c3c3c3" opacity="1.00" d=" M 353.63 322.77 C 354.44 324.74 354.34 327.00 355.49 328.83 C 356.25 327.38 356.98 325.92 357.71 324.46 C 357.89 324.65 358.26 325.04 358.44 325.23 C 358.18 325.92 357.67 327.29 357.41 327.97 C 360.51 335.99 367.02 341.97 372.14 348.69 C 367.10 351.33 360.72 354.47 360.44 360.99 C 360.72 376.01 359.72 391.09 361.33 406.06 C 361.80 411.07 360.54 415.98 359.52 420.84 C 358.34 426.39 360.79 431.72 361.73 437.09 C 363.48 451.33 362.07 466.21 367.07 479.88 C 368.29 487.55 371.82 494.58 373.39 502.16 C 368.82 502.45 364.25 502.41 359.69 502.31 C 357.50 491.83 350.82 481.74 353.68 470.77 C 354.48 454.89 355.90 439.00 355.40 423.08 C 353.23 401.08 353.86 378.88 350.65 356.97 C 350.31 351.60 348.86 346.38 348.51 341.03 C 348.30 335.37 353.75 331.41 353.64 325.80 C 353.64 325.04 353.63 323.53 353.63 322.77 Z" />
<path fill="#c3c3c3" opacity="1.00" d=" M 302.51 407.00 C 304.00 396.64 301.99 383.79 310.96 376.28 C 316.30 380.06 313.05 386.80 312.13 391.90 C 310.56 415.92 313.54 440.32 308.85 464.10 C 307.77 463.86 307.14 463.21 306.97 462.14 C 301.14 444.40 301.70 425.42 302.51 407.00 Z" />
</g>
<g id="#151515ff">
<path fill="#151515" opacity="1.00" d=" M 342.83 336.93 C 346.69 333.48 349.87 329.35 353.64 325.80 C 353.75 331.41 348.30 335.37 348.51 341.03 C 348.86 346.38 350.31 351.60 350.65 356.97 C 353.86 378.88 353.23 401.08 355.40 423.08 C 354.30 422.81 353.21 422.56 352.11 422.30 C 350.47 404.93 349.62 387.45 348.05 370.04 C 347.11 359.40 349.90 347.53 343.62 338.06 C 343.36 337.67 343.10 337.30 342.83 336.93 Z" />
</g>
<g id="#595959ff">
<path fill="#595959" opacity="1.00" d=" M 357.41 327.97 C 357.67 327.29 358.18 325.92 358.44 325.23 C 366.51 334.05 373.40 343.88 380.64 353.37 C 381.67 354.71 383.38 355.16 384.88 355.80 C 383.96 357.27 382.79 358.55 381.61 359.82 C 377.95 356.55 375.09 352.56 372.14 348.69 C 367.02 341.97 360.51 335.99 357.41 327.97 Z" />
<path fill="#595959" opacity="1.00" d=" M 597.92 380.24 C 602.54 379.31 607.01 377.67 611.69 377.02 C 611.11 379.17 610.50 381.87 607.74 381.79 C 605.99 381.69 604.24 381.60 602.50 381.79 C 602.12 379.38 599.61 380.27 597.92 380.24 Z" />
</g>
<g id="#ffffffff">
<path fill="#ffffff" opacity="1.00" d=" M 330.98 335.21 C 334.83 333.55 340.46 332.32 342.83 336.93 C 343.10 337.30 343.36 337.67 343.62 338.06 C 341.16 338.59 338.75 339.26 336.29 339.78 C 334.48 339.53 332.68 339.21 330.88 338.90 C 330.90 337.67 330.94 336.44 330.98 335.21 Z" />
</g>
<g id="#868686ff">
<path fill="#868686" opacity="1.00" d=" M 488.57 337.41 C 492.57 339.54 496.44 342.16 501.17 342.21 C 508.03 343.69 511.36 351.82 509.51 358.24 C 506.92 359.33 506.28 362.08 505.21 364.39 C 501.82 367.41 496.35 366.47 493.37 370.04 C 491.54 369.94 489.72 369.82 487.90 369.78 C 492.92 367.44 498.41 366.13 503.19 363.28 C 505.72 361.84 503.89 358.57 503.97 356.29 C 505.26 356.12 506.57 355.96 507.88 355.80 C 505.55 351.50 502.51 347.65 499.15 344.12 C 498.02 344.76 496.90 345.41 495.79 346.06 C 493.36 343.19 490.80 340.43 488.57 337.41 Z" />
</g>
<g id="#878787ff">
<path fill="#878787" opacity="1.00" d=" M 289.22 353.27 C 292.47 347.83 297.31 343.59 302.31 339.80 C 304.54 340.10 303.51 342.51 302.88 343.84 C 300.54 347.65 296.79 350.28 294.02 353.74 C 292.08 359.27 292.79 365.27 292.63 371.03 C 292.21 368.62 291.80 366.21 291.63 363.77 C 290.88 360.41 293.40 354.42 289.22 353.27 Z" />
<path fill="#878787" opacity="1.00" d=" M 282.82 363.87 C 284.48 362.32 285.96 360.03 288.53 360.19 C 288.78 364.43 288.80 368.69 288.81 372.94 C 289.49 372.79 290.85 372.49 291.54 372.34 L 292.29 372.17 C 291.27 375.72 293.29 384.94 288.09 384.12 C 286.95 377.10 288.26 369.84 286.31 362.93 C 285.14 363.24 283.98 363.55 282.82 363.87 Z" />
</g>
<g id="#9f9f9fff">
<path fill="#9f9f9f" opacity="1.00" d=" M 215.67 356.51 C 216.33 351.72 217.11 346.71 220.13 342.76 C 220.12 344.47 220.18 346.18 220.23 347.89 C 221.18 346.68 222.14 345.46 223.13 344.28 L 224.14 343.89 C 223.03 348.39 221.54 353.87 216.93 355.92 L 216.24 356.24 L 215.67 356.51 Z" />
</g>
<g id="#555555ff">
<path fill="#555555" opacity="1.00" d=" M 233.12 368.76 C 237.03 370.28 241.15 371.19 245.33 371.49 C 243.28 377.24 236.75 378.65 232.60 382.49 C 227.95 385.24 225.15 389.81 222.21 394.16 C 222.15 392.12 221.97 390.09 221.79 388.07 C 226.80 382.20 233.57 378.45 240.06 374.51 C 238.89 373.82 237.72 373.15 236.62 372.37 C 236.51 370.38 234.56 369.67 233.12 368.76 Z" />
</g>
<g id="#040404ff">
<path fill="#040404" opacity="1.00" d=" M 629.82 368.68 C 630.27 368.64 631.17 368.56 631.62 368.53 C 638.16 379.86 648.28 389.26 652.25 401.89 C 660.58 415.15 667.36 429.70 671.58 444.77 C 670.98 444.64 669.77 444.37 669.17 444.23 C 665.14 432.85 659.36 422.17 652.88 412.00 C 649.42 404.54 647.42 396.37 642.91 389.40 C 637.97 382.84 634.66 375.25 629.82 368.68 Z" />
</g>
<g id="#323232ff">
<path fill="#323232" opacity="1.00" d=" M 558.79 374.81 L 558.92 374.19 C 559.79 375.96 561.15 377.48 563.11 378.04 C 574.20 382.25 586.35 381.68 597.92 380.24 C 599.61 380.27 602.12 379.38 602.50 381.79 C 593.76 381.99 585.97 386.86 577.16 386.44 C 573.36 385.41 569.49 384.73 565.58 384.27 C 564.32 383.72 563.08 383.15 561.85 382.58 L 561.60 380.91 C 570.86 383.21 580.70 385.96 590.18 383.26 C 579.40 383.99 567.22 383.94 558.52 376.57 C 558.59 376.13 558.72 375.25 558.79 374.81 Z" />
</g>
<g id="#676767ff">
<path fill="#676767" opacity="1.00" d=" M 601.03 400.53 C 600.85 397.07 601.36 393.51 603.68 390.79 C 603.49 393.74 603.26 396.68 602.96 399.62 C 602.48 399.85 601.51 400.30 601.03 400.53 Z" />
</g>
<g id="#616161ff">
<path fill="#616161" opacity="1.00" d=" M 560.93 393.83 C 561.92 394.88 562.91 395.95 563.90 397.02 C 568.74 395.60 574.14 393.87 578.98 396.23 L 579.42 397.00 C 573.33 396.57 567.10 396.79 561.38 399.10 C 562.09 399.87 562.82 400.65 563.55 401.43 C 564.63 402.47 565.41 403.81 565.63 405.32 C 566.12 408.09 566.81 410.82 567.35 413.59 C 563.70 409.92 563.14 404.47 560.64 400.09 C 560.01 400.73 559.38 401.36 558.76 402.00 C 559.03 400.60 559.26 399.19 559.64 397.81 C 560.07 396.48 560.53 395.17 560.93 393.83 Z" />
</g>
<g id="#191919ff">
<path fill="#191919" opacity="1.00" d=" M 402.48 395.96 C 405.27 396.30 408.12 396.52 410.90 395.98 C 410.28 399.39 407.26 401.50 405.80 404.49 C 403.14 413.78 405.25 424.58 399.65 432.94 C 397.71 420.68 399.78 407.92 402.48 395.96 Z" />
</g>
<g id="#0d0d0dff">
<path fill="#0d0d0d" opacity="1.00" d=" M 561.38 399.10 C 567.10 396.79 573.33 396.57 579.42 397.00 C 579.52 397.19 579.74 397.57 579.85 397.76 C 577.18 397.96 574.50 398.14 571.85 398.52 C 568.95 399.06 566.23 400.26 563.55 401.43 C 562.82 400.65 562.09 399.87 561.38 399.10 Z" />
</g>
<g id="#7f7f7fff">
<path fill="#7f7f7f" opacity="1.00" d=" M 601.03 400.53 C 601.51 400.30 602.48 399.85 602.96 399.62 C 602.89 400.51 602.75 402.28 602.68 403.16 C 601.38 402.63 600.10 402.08 598.82 401.54 C 599.37 401.29 600.48 400.79 601.03 400.53 Z" />
</g>
<g id="#2c2c2cff">
<path fill="#2c2c2c" opacity="1.00" d=" M 517.77 407.18 C 519.45 405.88 524.30 402.41 523.41 406.98 C 520.84 410.71 516.72 413.63 512.33 414.64 C 509.83 414.05 507.37 413.33 504.89 412.69 C 507.65 408.68 511.94 405.93 516.97 406.77 C 517.17 406.87 517.57 407.08 517.77 407.18 Z" />
</g>
<g id="#969696ff">
<path fill="#969696" opacity="1.00" d=" M 499.78 421.03 C 501.21 418.09 502.78 415.19 504.89 412.69 C 507.37 413.33 509.83 414.05 512.33 414.64 C 512.09 415.32 511.62 416.67 511.39 417.35 C 507.55 418.67 503.88 420.66 499.78 421.03 Z" />
</g>
<g id="#6d6d6dff">
<path fill="#6d6d6d" opacity="1.00" d=" M 569.61 445.13 C 570.21 441.60 572.82 438.94 575.00 436.28 C 576.47 438.94 577.62 441.77 578.08 444.80 L 576.98 445.02 C 576.94 444.11 576.88 442.28 576.85 441.36 C 574.58 442.89 572.50 444.92 569.61 445.13 Z" />
</g>
<g id="#a9a9a9ff">
<path fill="#a9a9a9" opacity="1.00" d=" M 570.50 447.46 C 572.50 446.29 574.65 445.34 576.98 445.02 L 578.08 444.80 L 578.28 445.72 C 578.55 449.99 573.28 450.89 570.08 450.00 C 570.19 449.37 570.39 448.10 570.50 447.46 Z" />
</g>
</svg>
