<?xml version="1.0" encoding="UTF-8" ?>
<!DOCTYPE svg PUBLIC "-//W3C//DTD SVG 1.1//EN" "http://www.w3.org/Graphics/SVG/1.1/DTD/svg11.dtd">
<svg width="1171pt" height="1373pt" viewBox="0 0 1171 1373" version="1.1" xmlns="http://www.w3.org/2000/svg">
<path fill="#ffffff" opacity="1.00" d=" M 0.00 0.00 L 1171.00 0.00 L 1171.00 1373.00 L 0.00 1373.00 L 0.00 0.00 M 441.00 2.00 C 400.71 4.93 360.89 12.47 320.61 15.51 C 308.44 16.58 296.18 15.89 283.98 15.86 C 276.35 14.73 268.62 15.13 260.99 14.04 C 254.29 14.09 247.71 12.56 241.01 12.90 C 214.34 10.28 186.10 12.14 162.01 24.93 C 160.97 25.66 159.10 26.05 159.31 27.73 C 155.04 29.45 150.76 31.31 146.91 33.87 C 136.13 41.65 126.95 51.48 119.24 62.27 C 100.07 93.85 90.46 130.02 82.83 165.84 C 74.42 206.22 69.17 247.17 63.14 287.95 C 56.72 335.79 62.31 384.01 63.70 431.99 C 64.57 452.32 64.95 472.69 63.78 493.01 C 62.82 511.20 60.74 529.32 59.14 547.45 C 55.87 573.91 52.80 600.42 49.65 626.90 C 48.44 647.42 46.56 667.96 46.39 688.51 C 45.42 695.95 45.80 703.60 45.32 711.12 C 44.36 726.04 44.47 741.00 44.07 755.93 C 43.70 773.61 44.29 791.32 43.72 808.99 C 43.91 829.01 43.40 849.01 43.49 869.02 C 42.83 881.98 43.76 894.94 43.80 907.91 C 44.58 934.29 44.37 960.72 42.92 987.09 C 42.15 1003.85 39.87 1020.49 37.45 1037.08 C 33.29 1065.56 28.85 1094.10 28.10 1122.93 C 27.31 1150.28 27.79 1177.66 28.27 1205.01 C 28.32 1232.01 28.20 1259.21 23.31 1285.87 C 19.91 1304.20 13.95 1322.27 4.13 1338.21 C 2.85 1339.87 3.36 1342.04 3.24 1343.99 C 3.38 1351.99 2.99 1360.02 3.50 1368.02 C 3.74 1367.66 4.22 1366.94 4.45 1366.58 C 20.23 1350.41 29.03 1328.79 34.15 1307.11 C 39.78 1283.15 41.42 1258.49 42.17 1233.96 C 43.79 1173.05 38.58 1111.80 46.54 1051.15 C 54.33 981.05 52.47 910.42 52.76 840.01 C 52.84 814.32 53.19 788.64 53.79 762.96 C 54.72 740.31 55.25 717.61 57.58 695.06 C 59.55 678.64 63.35 662.51 65.58 646.14 C 67.16 635.20 67.65 624.16 68.41 613.15 L 69.49 612.59 C 74.59 572.48 79.56 532.29 82.02 491.94 C 82.21 474.94 82.16 457.94 82.00 440.94 C 82.12 434.28 80.77 427.70 81.01 421.04 C 81.23 414.33 79.73 407.72 80.04 401.02 C 80.27 394.99 78.80 389.05 79.05 383.02 C 79.28 377.66 78.45 372.35 78.11 367.02 C 78.01 351.66 77.95 336.30 78.11 320.94 C 79.11 311.64 79.39 302.27 80.80 293.00 C 89.95 230.47 100.14 167.66 120.55 107.65 C 121.41 104.68 123.41 101.71 122.38 98.52 C 128.14 83.60 134.27 68.79 141.41 54.48 C 153.16 43.61 168.55 37.38 184.14 34.50 C 201.23 31.31 218.72 31.22 236.04 31.76 C 260.33 32.67 284.61 34.45 308.94 34.04 C 350.67 33.15 391.58 23.72 433.05 19.99 C 454.79 18.00 476.87 17.67 498.39 21.76 C 518.19 25.25 536.77 33.16 555.44 40.32 C 576.89 48.58 599.52 53.19 622.15 56.85 C 646.33 60.68 670.73 62.95 695.03 65.85 C 717.55 68.60 740.18 71.69 761.91 78.44 C 776.85 83.05 791.14 89.96 803.51 99.58 L 803.58 99.83 C 808.42 103.56 812.43 108.14 816.17 112.95 C 819.16 115.77 817.44 120.29 818.57 123.86 C 820.65 136.04 831.61 144.06 834.61 155.85 C 835.73 159.67 835.87 163.68 835.65 167.62 C 846.82 171.15 858.83 171.12 869.94 174.99 C 875.71 176.87 881.42 180.36 884.10 186.02 C 887.27 192.53 886.54 200.08 885.28 206.97 C 876.53 201.91 867.06 198.27 857.66 194.66 C 857.67 193.13 855.79 192.83 854.87 191.97 C 851.18 189.45 847.28 187.12 842.94 185.91 C 832.77 183.51 822.44 181.78 812.02 180.94 C 808.29 180.86 804.56 180.87 800.87 180.28 C 793.58 179.57 786.24 180.01 778.99 180.80 C 767.35 180.73 755.86 182.86 744.36 184.39 C 725.05 187.96 705.70 192.52 687.85 200.86 C 685.68 202.03 682.03 201.77 681.15 204.45 C 672.88 207.03 665.16 211.18 658.24 216.36 C 653.43 230.27 641.42 239.54 632.80 250.94 C 630.42 253.81 628.69 257.14 626.39 260.06 C 619.75 251.33 611.85 243.59 603.39 236.63 C 597.66 232.56 591.68 228.86 585.94 224.80 C 576.65 218.52 567.77 211.59 557.77 206.45 C 556.51 203.17 552.33 202.47 550.10 199.91 C 527.25 183.73 503.87 168.19 479.34 154.64 C 474.87 152.55 470.63 150.01 466.32 147.61 C 453.62 141.86 441.07 135.67 427.88 131.07 C 418.48 128.14 409.31 124.48 399.67 122.37 C 372.78 115.17 344.84 112.16 317.03 112.87 C 300.95 112.63 284.96 114.64 269.04 116.75 C 261.34 118.35 253.39 119.02 245.98 121.82 C 238.17 124.54 230.18 127.45 223.70 132.74 C 223.60 133.21 223.41 134.14 223.31 134.61 C 199.20 151.32 187.06 179.29 166.37 199.37 C 152.94 213.27 137.41 224.87 123.46 238.21 C 122.94 238.27 121.90 238.40 121.38 238.47 C 116.08 242.45 112.29 248.02 108.13 253.11 C 103.20 259.23 99.68 266.30 96.28 273.34 C 86.44 296.17 86.10 321.56 87.15 345.99 C 90.23 380.17 103.65 412.24 118.09 442.99 C 118.58 443.30 119.57 443.93 120.07 444.24 C 121.41 447.04 123.05 449.69 124.75 452.29 C 135.26 468.15 147.52 482.77 159.72 497.35 C 172.71 512.61 186.05 527.59 199.99 542.00 C 209.75 551.54 220.84 559.87 233.18 565.77 C 234.44 566.56 235.79 567.19 237.16 567.78 C 240.60 569.52 244.26 570.80 247.78 572.36 C 249.24 572.81 250.71 573.29 252.16 573.80 C 254.62 574.88 257.36 575.17 259.77 576.38 C 260.38 576.47 261.61 576.67 262.22 576.76 C 263.39 577.56 264.82 577.57 266.17 577.83 C 267.40 578.56 268.83 578.61 270.22 578.76 C 271.69 579.70 273.48 579.51 275.13 579.79 C 276.55 580.95 278.55 580.37 280.23 580.77 C 285.78 582.34 291.75 582.35 297.45 583.39 C 300.51 583.92 303.90 583.02 306.77 584.25 C 319.90 584.72 333.05 584.67 346.19 584.23 C 347.54 583.20 349.44 583.86 351.02 583.62 C 357.16 583.70 363.15 582.34 369.27 582.26 C 371.25 581.09 373.80 581.89 376.00 581.37 C 379.02 580.71 382.11 580.50 385.19 580.20 C 389.57 578.96 394.52 579.23 398.83 577.77 C 400.80 577.35 403.08 577.93 404.84 576.76 C 406.50 576.46 408.41 576.89 409.87 575.82 C 411.63 575.61 413.41 575.48 415.17 575.22 C 416.84 574.00 419.21 575.08 420.81 573.78 C 422.48 573.49 424.32 573.75 425.82 572.80 C 427.47 572.52 429.27 572.68 430.78 571.80 C 433.81 571.27 436.96 570.93 439.83 569.84 C 442.82 569.20 446.01 568.97 448.84 567.79 C 450.20 567.56 451.69 567.67 452.90 566.87 C 457.23 566.03 461.60 565.11 465.80 563.77 C 470.45 562.95 475.24 562.73 479.81 561.76 C 487.31 561.69 494.73 560.80 502.19 560.21 C 503.92 559.10 506.21 560.08 507.90 558.87 C 509.21 558.55 510.66 558.58 511.84 557.82 C 513.50 557.12 515.42 556.92 516.85 555.76 C 539.85 546.29 558.85 529.59 576.93 512.91 C 596.47 494.16 615.66 474.93 637.07 458.27 C 641.91 469.07 651.84 476.11 658.69 485.47 C 662.04 490.01 664.30 495.28 665.50 500.78 L 665.84 500.72 C 665.71 502.42 665.47 504.22 666.46 505.74 L 666.23 505.18 C 679.70 535.50 681.07 569.34 691.62 600.58 C 695.61 612.14 700.77 623.73 709.44 632.58 C 713.43 636.86 718.75 639.47 723.72 642.37 C 725.17 642.82 726.60 643.44 727.87 644.31 C 731.88 645.92 735.90 647.60 739.86 649.33 C 741.55 649.91 743.37 650.32 744.87 651.37 C 750.49 653.41 755.95 655.95 761.25 658.74 C 769.20 663.08 776.95 669.04 780.35 677.74 C 783.71 686.75 782.54 697.05 778.74 705.73 C 776.32 705.63 774.12 704.61 771.78 704.18 C 770.84 703.66 769.85 703.34 768.79 703.20 C 767.60 702.62 766.32 702.26 765.16 701.68 C 762.97 701.10 760.99 700.00 758.88 699.24 C 755.69 697.60 752.26 696.49 749.17 694.70 C 748.00 694.29 746.98 693.58 745.79 693.31 C 742.78 691.39 739.24 690.55 736.21 688.68 C 733.32 687.80 730.74 686.13 727.86 685.27 C 726.76 684.50 725.35 684.42 724.25 683.71 C 721.38 682.98 718.71 681.62 715.77 681.20 C 714.28 680.25 712.46 680.47 710.80 680.25 C 706.89 678.64 702.11 679.60 697.91 679.76 C 696.77 680.61 695.17 680.32 694.06 681.21 C 685.64 684.38 680.67 692.78 677.91 700.92 C 671.56 717.34 677.88 734.96 676.33 751.91 C 673.04 788.22 664.11 823.69 655.13 858.92 C 642.61 907.82 627.62 956.16 618.45 1005.85 C 616.52 1014.12 617.12 1023.19 612.61 1030.68 C 607.00 1040.42 596.50 1046.07 590.77 1055.71 C 586.98 1061.94 586.78 1070.02 589.73 1076.62 C 592.23 1081.99 598.47 1083.57 602.34 1087.64 C 606.35 1091.41 607.93 1096.87 609.15 1102.07 C 601.03 1112.92 585.89 1113.87 573.52 1112.04 C 575.61 1111.37 577.74 1110.85 579.89 1110.44 C 568.57 1108.57 558.82 1102.18 548.64 1097.30 C 535.79 1090.37 521.14 1088.27 506.86 1086.39 C 498.29 1085.07 489.61 1085.11 481.02 1084.14 C 474.30 1083.81 467.54 1084.24 460.85 1083.41 C 452.91 1082.74 444.92 1083.36 436.99 1082.74 C 433.65 1082.51 430.20 1081.38 426.94 1082.59 C 428.92 1082.86 430.93 1083.06 432.93 1083.25 C 431.94 1083.67 430.96 1084.10 429.99 1084.55 C 420.60 1083.10 411.25 1081.48 401.87 1080.06 C 368.84 1074.25 335.94 1067.68 302.87 1062.07 C 274.06 1056.69 245.03 1052.46 215.91 1049.19 C 199.27 1069.69 193.13 1098.87 202.23 1123.93 C 206.22 1134.60 212.61 1144.92 221.90 1151.69 C 224.85 1154.72 228.66 1156.75 232.37 1158.71 C 251.29 1168.57 273.91 1167.70 293.98 1162.10 C 294.99 1162.08 296.01 1162.15 297.02 1162.12 C 304.69 1162.20 312.72 1161.76 319.88 1165.09 C 328.13 1168.47 333.64 1176.54 335.45 1185.09 C 337.33 1193.83 337.52 1203.20 335.75 1211.87 C 309.49 1223.44 280.28 1225.36 251.97 1226.33 C 225.66 1226.63 199.34 1225.07 173.18 1222.31 C 163.38 1229.99 158.69 1242.14 156.01 1253.92 C 150.27 1279.64 151.72 1306.46 144.89 1331.98 C 137.67 1327.66 131.25 1321.52 122.87 1319.52 C 117.84 1318.28 112.57 1320.56 109.60 1324.70 C 109.16 1326.44 110.23 1328.25 111.49 1329.42 C 115.61 1333.01 121.88 1332.29 125.93 1336.01 C 128.99 1339.01 128.13 1343.96 126.53 1347.49 C 123.67 1352.10 117.73 1352.83 112.87 1353.83 C 107.78 1354.89 101.32 1355.57 98.62 1360.72 C 101.67 1366.13 108.05 1368.56 114.02 1368.50 C 121.23 1368.40 128.79 1366.17 133.97 1360.95 C 137.10 1358.12 138.25 1353.89 138.20 1349.80 C 140.59 1350.74 142.88 1353.01 141.81 1355.81 C 140.23 1360.83 135.70 1365.66 137.93 1371.25 C 142.67 1371.24 147.41 1371.25 152.15 1371.24 C 163.20 1327.04 163.93 1280.85 176.85 1237.05 C 184.90 1237.49 192.89 1238.66 200.93 1239.20 C 230.86 1241.38 261.03 1241.71 290.88 1238.29 C 311.26 1235.79 331.72 1231.62 350.38 1222.77 C 349.37 1225.14 351.23 1226.76 352.65 1228.35 C 355.29 1232.84 353.36 1238.92 356.81 1243.11 C 359.00 1245.02 362.10 1244.44 364.67 1243.83 C 365.70 1238.28 366.15 1232.63 366.26 1226.99 C 366.52 1204.32 363.81 1181.45 368.01 1158.98 C 366.50 1156.80 363.75 1155.91 361.58 1154.51 C 351.06 1148.47 339.62 1144.16 327.94 1140.94 C 302.85 1134.17 275.32 1134.00 251.13 1144.26 C 251.21 1145.61 251.28 1146.99 251.34 1148.38 C 249.71 1147.68 247.92 1147.88 246.21 1147.71 C 237.59 1147.04 228.85 1143.57 223.16 1136.87 C 217.65 1130.50 215.13 1122.13 214.14 1113.91 C 212.28 1098.63 215.14 1083.31 218.14 1068.38 L 218.46 1068.11 C 218.63 1066.49 218.81 1064.85 219.03 1063.27 C 229.00 1062.96 238.96 1063.84 248.85 1064.92 C 297.63 1070.31 343.87 1088.18 392.17 1096.11 C 413.93 1099.78 436.03 1100.23 458.04 1100.90 C 464.98 1101.65 472.15 1100.77 478.96 1102.22 C 479.41 1102.14 480.32 1101.97 480.78 1101.89 C 500.67 1103.63 521.09 1105.49 539.62 1113.49 C 546.95 1117.57 554.77 1120.58 562.70 1123.26 C 564.29 1123.62 565.96 1124.90 567.62 1124.14 L 567.05 1124.96 C 571.99 1125.75 576.81 1127.32 581.83 1127.60 C 589.50 1128.82 597.33 1127.88 604.96 1126.86 C 613.88 1122.69 620.04 1113.53 621.31 1103.85 C 621.97 1098.22 621.52 1092.43 619.58 1087.10 L 619.55 1088.02 C 617.39 1078.79 610.24 1070.70 601.55 1066.94 C 607.86 1053.73 620.31 1045.35 629.93 1034.81 C 638.21 982.72 650.73 931.42 663.23 880.21 C 669.22 855.24 675.79 830.40 680.59 805.17 C 688.16 770.03 693.86 734.44 697.20 698.65 L 697.21 698.08 C 697.33 697.36 697.56 695.93 697.68 695.21 C 707.87 695.21 717.70 698.31 727.16 701.80 C 730.48 703.10 733.81 704.36 737.08 705.79 C 738.97 706.66 740.98 707.28 742.85 708.24 C 745.04 708.71 746.89 710.53 749.17 710.41 C 749.34 710.60 749.67 710.99 749.84 711.19 C 750.86 711.47 751.88 711.82 752.88 712.24 C 755.29 713.60 758.75 713.40 760.58 715.46 C 762.97 715.35 765.72 715.94 767.72 717.28 C 772.54 717.78 777.42 718.08 782.23 717.36 C 787.61 715.40 791.75 710.98 793.60 705.59 C 797.15 695.61 797.23 684.76 796.66 674.31 C 797.54 674.42 799.30 674.64 800.18 674.75 C 801.63 675.77 803.52 675.41 805.20 675.78 C 806.68 676.74 808.51 676.46 810.19 676.77 C 811.84 678.02 814.17 676.97 815.83 678.22 C 817.61 678.42 819.39 678.54 821.19 678.77 C 823.20 680.07 825.82 678.92 827.86 680.20 C 829.97 680.46 832.09 680.54 834.21 680.79 C 839.36 682.00 844.87 682.37 850.21 682.83 C 853.41 683.91 856.90 683.32 860.21 683.83 C 864.40 684.92 868.88 684.41 873.19 684.79 C 879.75 686.17 886.76 685.24 893.48 685.79 L 894.01 687.09 C 894.77 684.29 898.95 686.40 901.20 685.77 C 904.77 686.80 909.15 686.62 912.82 685.78 C 919.89 685.82 926.95 685.61 934.02 685.42 C 935.58 685.21 937.42 685.72 938.82 684.77 C 942.76 684.33 946.98 685.06 950.78 683.82 C 956.29 683.80 961.64 682.49 967.13 682.19 C 969.15 680.90 971.81 682.13 973.80 680.77 C 975.77 680.40 977.99 680.84 979.81 679.77 C 981.24 679.56 982.73 679.45 984.19 679.25 C 985.89 678.14 988.12 678.91 989.82 677.79 C 995.04 677.10 1000.02 675.26 1005.17 674.18 C 1007.68 673.27 1010.29 672.72 1012.80 671.78 C 1013.84 671.59 1014.84 671.26 1015.81 670.79 C 1016.85 670.57 1017.86 670.25 1018.84 669.80 C 1021.53 668.85 1024.26 668.00 1026.87 666.81 C 1028.57 666.21 1030.28 665.59 1031.88 664.71 C 1043.54 659.83 1054.69 653.58 1064.65 645.75 C 1077.56 635.31 1089.07 622.00 1094.21 606.02 C 1094.24 538.53 1084.94 470.33 1060.58 407.11 C 1043.64 363.00 1019.18 321.76 988.29 285.98 C 988.51 283.66 988.74 280.82 986.83 279.13 C 982.44 275.18 979.12 270.20 974.59 266.39 C 969.05 261.16 962.50 257.03 955.34 254.42 C 950.84 251.86 946.37 249.09 941.28 247.84 C 940.05 247.38 938.52 247.39 937.58 246.43 C 934.70 242.15 928.62 240.48 927.56 234.92 C 920.14 233.63 912.55 231.25 906.82 226.17 C 901.37 221.32 899.11 213.91 898.46 206.86 C 897.57 196.22 898.53 185.53 899.49 174.93 C 883.75 166.03 867.04 158.89 849.79 153.53 C 849.02 150.04 848.42 146.40 846.82 143.19 C 840.77 135.45 837.25 126.18 833.73 117.11 C 832.65 114.41 831.74 111.57 829.79 109.36 C 829.57 107.71 829.18 106.08 828.32 104.64 C 826.00 100.43 824.12 95.77 820.29 92.64 C 801.98 73.50 776.13 64.43 751.14 57.70 C 710.70 47.60 668.99 44.54 627.93 38.00 C 613.15 35.71 598.66 31.93 584.36 27.57 C 574.59 24.38 564.90 20.91 555.04 18.00 C 531.16 9.78 506.38 3.38 481.08 2.01 C 473.36 2.50 465.73 0.25 458.03 1.31 C 452.38 2.12 446.68 1.94 441.00 2.00 M 595.02 543.34 C 605.30 560.39 617.12 576.44 627.68 593.32 C 637.27 608.75 646.04 625.10 649.95 642.99 C 652.87 656.90 652.64 671.88 647.11 685.14 C 640.75 704.03 629.30 720.53 619.75 737.85 C 609.68 753.78 601.43 770.74 592.01 787.05 C 584.20 801.16 576.16 815.21 569.95 830.12 C 565.04 841.81 564.99 854.68 562.95 867.01 C 561.06 880.08 553.42 891.35 545.43 901.50 C 534.84 914.86 521.65 926.16 512.77 940.85 C 511.40 943.39 509.41 945.93 509.72 948.99 C 509.67 959.56 506.93 970.76 499.34 978.51 C 488.34 978.96 477.25 977.87 466.83 974.14 C 452.07 968.82 438.81 959.31 429.13 946.96 C 421.01 936.61 414.93 924.24 413.87 910.99 C 412.78 900.26 417.09 889.30 425.06 882.06 C 435.23 872.59 448.02 866.71 460.16 860.24 C 472.26 853.44 484.45 846.18 493.74 835.68 C 506.57 821.40 511.76 801.83 512.68 783.04 C 513.01 763.70 511.29 744.32 513.00 725.01 C 513.34 723.61 512.34 722.48 511.74 721.36 C 503.04 707.52 497.58 692.01 490.78 677.22 C 484.37 662.95 476.63 648.65 464.29 638.63 C 460.83 636.15 457.40 633.28 453.23 632.13 C 455.88 644.64 460.70 656.65 467.26 667.62 C 476.36 683.47 488.28 697.80 494.91 714.99 C 499.24 725.78 500.48 737.48 501.54 748.97 C 503.23 769.88 500.96 791.89 490.37 810.39 C 486.38 816.53 484.05 823.66 479.30 829.33 C 472.90 836.79 464.84 842.68 456.15 847.22 C 448.79 850.37 442.68 855.68 436.07 860.10 C 420.60 871.04 405.32 883.59 396.54 900.76 C 403.32 921.91 411.04 943.38 425.05 960.94 C 432.69 970.78 442.72 978.60 453.85 984.13 C 463.70 988.68 474.35 991.32 485.12 992.43 C 487.35 992.69 489.72 992.27 491.85 993.14 C 498.99 993.58 506.07 992.79 513.19 992.37 C 516.72 973.14 524.00 954.67 534.00 937.90 C 545.01 919.15 559.29 902.64 573.32 886.14 C 574.56 866.35 579.37 846.70 588.28 828.94 L 588.21 828.74 C 599.62 805.99 615.79 786.08 627.63 763.58 C 633.29 752.43 638.63 741.13 643.94 729.82 C 651.82 712.30 659.99 694.72 664.51 675.97 C 668.50 655.95 663.82 635.30 656.53 616.58 C 650.62 602.22 643.25 588.34 633.90 575.94 C 631.54 571.84 628.26 568.29 625.46 564.47 C 620.84 557.86 615.27 551.92 609.03 546.81 C 607.61 545.71 606.73 543.84 604.93 543.34 C 601.63 543.15 598.32 543.30 595.02 543.34 M 1130.74 575.36 C 1128.17 584.42 1128.13 594.49 1132.24 603.10 C 1133.67 607.65 1136.64 611.49 1138.67 615.69 C 1139.68 616.43 1140.69 617.25 1140.53 618.67 C 1141.58 619.47 1142.71 620.26 1142.51 621.78 C 1143.12 622.19 1143.75 622.60 1144.40 623.03 C 1144.41 623.45 1144.41 624.31 1144.42 624.74 C 1144.87 625.03 1145.77 625.61 1146.22 625.91 C 1146.34 626.49 1146.47 627.08 1146.63 627.68 C 1147.97 628.71 1149.89 629.68 1149.39 631.73 C 1150.64 632.35 1151.61 633.28 1151.55 634.78 C 1152.14 635.19 1152.75 635.61 1153.39 636.04 C 1153.42 636.45 1153.49 637.26 1153.53 637.66 C 1154.11 638.14 1154.71 638.63 1155.32 639.13 C 1155.41 639.52 1155.59 640.31 1155.68 640.70 C 1156.20 641.15 1156.74 641.62 1157.29 642.09 C 1157.50 644.31 1159.24 645.87 1160.27 647.73 C 1164.11 654.10 1166.35 661.28 1168.06 668.46 C 1169.49 665.50 1168.69 662.11 1168.88 658.97 C 1168.68 649.11 1169.27 639.21 1168.66 629.37 C 1166.25 626.11 1161.30 624.71 1160.35 620.40 C 1156.87 616.93 1155.25 612.21 1153.18 607.87 C 1149.37 598.31 1146.44 588.32 1141.14 579.45 C 1138.46 576.85 1135.93 574.08 1132.97 571.79 C 1132.14 572.92 1131.10 573.97 1130.74 575.36 M 346.41 1279.17 C 342.43 1291.40 342.96 1304.83 346.78 1317.03 C 349.28 1324.58 353.46 1332.42 360.96 1335.99 C 363.50 1332.52 365.10 1328.29 365.04 1323.97 C 365.29 1315.05 360.56 1307.15 358.28 1298.77 C 356.34 1292.36 355.92 1285.51 357.59 1279.01 C 353.86 1279.05 350.12 1278.82 346.41 1279.17 Z" />
<path fill="#f5f5f5" opacity="1.00" d=" M 441.00 2.00 C 446.68 1.94 452.38 2.12 458.03 1.31 C 465.73 0.25 473.36 2.50 481.08 2.01 C 506.38 3.38 531.16 9.78 555.04 18.00 C 564.90 20.91 574.59 24.38 584.36 27.57 C 598.66 31.93 613.15 35.71 627.93 38.00 C 668.99 44.54 710.70 47.60 751.14 57.70 C 776.13 64.43 801.98 73.50 820.29 92.64 C 824.12 95.77 826.00 100.43 828.32 104.64 C 829.18 106.08 829.57 107.71 829.79 109.36 C 820.93 98.09 809.70 88.81 797.28 81.72 C 777.58 70.37 755.57 63.83 733.54 58.75 C 708.29 53.05 682.64 49.40 657.06 45.57 C 638.13 42.53 618.94 40.62 600.48 35.24 C 576.05 28.32 552.58 18.37 528.01 11.89 C 502.02 4.76 474.80 3.53 448.00 5.00 C 400.78 7.62 354.35 18.28 307.04 19.92 C 278.68 20.82 250.33 18.84 221.96 18.74 C 200.86 19.09 179.24 20.09 159.31 27.73 C 159.10 26.05 160.97 25.66 162.01 24.93 C 186.10 12.14 214.34 10.28 241.01 12.90 C 247.71 12.56 254.29 14.09 260.99 14.04 C 268.62 15.13 276.35 14.73 283.98 15.86 C 296.18 15.89 308.44 16.58 320.61 15.51 C 360.89 12.47 400.71 4.93 441.00 2.00 Z" />
<path fill="#000000" opacity="1.00" d=" M 307.04 19.92 C 354.35 18.28 400.78 7.62 448.00 5.00 C 474.80 3.53 502.02 4.76 528.01 11.89 C 552.58 18.37 576.05 28.32 600.48 35.24 C 618.94 40.62 638.13 42.53 657.06 45.57 C 682.64 49.40 708.29 53.05 733.54 58.75 C 755.57 63.83 777.58 70.37 797.28 81.72 C 809.70 88.81 820.93 98.09 829.79 109.36 C 831.74 111.57 832.65 114.41 833.73 117.11 C 837.25 126.18 840.77 135.45 846.82 143.19 C 848.42 146.40 849.02 150.04 849.79 153.53 C 867.04 158.89 883.75 166.03 899.49 174.93 C 898.53 185.53 897.57 196.22 898.46 206.86 C 899.11 213.91 901.37 221.32 906.82 226.17 C 912.55 231.25 920.14 233.63 927.56 234.92 C 928.62 240.48 934.70 242.15 937.58 246.43 C 938.52 247.39 940.05 247.38 941.28 247.84 C 946.37 249.09 950.84 251.86 955.34 254.42 C 962.50 257.03 969.05 261.16 974.59 266.39 C 979.12 270.20 982.44 275.18 986.83 279.13 C 988.74 280.82 988.51 283.66 988.29 285.98 C 1019.18 321.76 1043.64 363.00 1060.58 407.11 C 1084.94 470.33 1094.24 538.53 1094.21 606.02 C 1089.07 622.00 1077.56 635.31 1064.65 645.75 C 1054.69 653.58 1043.54 659.83 1031.88 664.71 C 1030.28 665.59 1028.57 666.21 1026.87 666.81 C 1024.26 668.00 1021.53 668.85 1018.84 669.80 C 1017.86 670.25 1016.85 670.57 1015.81 670.79 C 1014.84 671.26 1013.84 671.59 1012.80 671.78 C 1010.29 672.72 1007.68 673.27 1005.17 674.18 C 1000.02 675.26 995.04 677.10 989.82 677.79 C 988.12 678.91 985.89 678.14 984.19 679.25 C 982.73 679.45 981.24 679.56 979.81 679.77 C 977.99 680.84 975.77 680.40 973.80 680.77 C 971.81 682.13 969.15 680.90 967.13 682.19 C 961.64 682.49 956.29 683.80 950.78 683.82 C 946.98 685.06 942.76 684.33 938.82 684.77 C 937.42 685.72 935.58 685.21 934.02 685.42 C 926.95 685.61 919.89 685.82 912.82 685.78 C 909.15 686.62 904.77 686.80 901.20 685.77 C 898.95 686.40 894.77 684.29 894.01 687.09 L 893.48 685.79 C 886.76 685.24 879.75 686.17 873.19 684.79 C 868.88 684.41 864.40 684.92 860.21 683.83 C 856.90 683.32 853.41 683.91 850.21 682.83 C 844.87 682.37 839.36 682.00 834.21 680.79 C 832.09 680.54 829.97 680.46 827.86 680.20 C 825.82 678.92 823.20 680.07 821.19 678.77 C 819.39 678.54 817.61 678.42 815.83 678.22 C 814.17 676.97 811.84 678.02 810.19 676.77 C 808.51 676.46 806.68 676.74 805.20 675.78 C 803.52 675.41 801.63 675.77 800.18 674.75 C 799.30 674.64 797.54 674.42 796.66 674.31 C 797.23 684.76 797.15 695.61 793.60 705.59 C 791.75 710.98 787.61 715.40 782.23 717.36 C 777.42 718.08 772.54 717.78 767.72 717.28 C 765.72 715.94 762.97 715.35 760.58 715.46 C 758.75 713.40 755.29 713.60 752.88 712.24 C 751.88 711.82 750.86 711.47 749.84 711.19 C 749.67 710.99 749.34 710.60 749.17 710.41 C 746.74 707.27 743.37 705.10 740.30 702.68 C 734.63 698.38 728.69 694.01 721.62 692.45 C 713.54 690.40 703.94 689.45 696.96 694.93 C 697.02 695.72 697.15 697.30 697.21 698.08 L 697.20 698.65 C 689.41 712.83 687.18 729.23 685.22 745.07 C 683.02 762.76 682.53 780.62 680.43 798.32 C 680.08 800.59 680.32 802.89 680.59 805.17 C 675.79 830.40 669.22 855.24 663.23 880.21 C 650.73 931.42 638.21 982.72 629.93 1034.81 C 620.31 1045.35 607.86 1053.73 601.55 1066.94 C 610.24 1070.70 617.39 1078.79 619.55 1088.02 C 619.23 1092.07 620.68 1096.21 619.32 1100.18 C 616.99 1108.58 609.65 1114.56 601.97 1118.00 C 594.71 1121.04 586.95 1123.37 579.00 1123.15 C 575.20 1123.21 571.19 1122.44 567.62 1124.14 C 565.96 1124.90 564.29 1123.62 562.70 1123.26 C 554.77 1120.58 546.95 1117.57 539.62 1113.49 C 521.09 1105.49 500.67 1103.63 480.78 1101.89 C 480.32 1101.97 479.41 1102.14 478.96 1102.22 C 472.15 1100.77 464.98 1101.65 458.04 1100.90 C 436.03 1100.23 413.93 1099.78 392.17 1096.11 C 343.87 1088.18 297.63 1070.31 248.85 1064.92 C 238.96 1063.84 229.00 1062.96 219.03 1063.27 C 218.81 1064.85 218.63 1066.49 218.46 1068.11 L 218.14 1068.38 C 216.05 1069.82 215.37 1072.39 214.51 1074.64 C 212.40 1080.92 210.50 1087.37 210.00 1094.02 C 209.53 1105.52 209.35 1117.46 213.73 1128.32 C 216.84 1135.82 221.32 1143.37 228.66 1147.38 C 233.16 1149.01 238.11 1147.42 242.72 1148.52 C 247.50 1149.91 251.26 1153.60 256.05 1154.91 C 265.46 1155.46 275.25 1153.98 284.34 1157.23 C 278.78 1158.67 272.98 1158.58 267.33 1159.50 C 255.03 1160.83 242.02 1160.81 230.63 1155.36 C 227.80 1153.95 225.27 1151.50 221.90 1151.69 C 212.61 1144.92 206.22 1134.60 202.23 1123.93 C 193.13 1098.87 199.27 1069.69 215.91 1049.19 C 245.03 1052.46 274.06 1056.69 302.87 1062.07 C 335.94 1067.68 368.84 1074.25 401.87 1080.06 C 411.25 1081.48 420.60 1083.10 429.99 1084.55 C 464.45 1089.91 499.18 1093.64 534.02 1095.31 C 545.62 1103.86 559.27 1109.69 573.52 1112.04 C 585.89 1113.87 601.03 1112.92 609.15 1102.07 C 607.93 1096.87 606.35 1091.41 602.34 1087.64 C 598.47 1083.57 592.23 1081.99 589.73 1076.62 C 586.78 1070.02 586.98 1061.94 590.77 1055.71 C 596.50 1046.07 607.00 1040.42 612.61 1030.68 C 617.12 1023.19 616.52 1014.12 618.45 1005.85 C 627.62 956.16 642.61 907.82 655.13 858.92 C 664.11 823.69 673.04 788.22 676.33 751.91 C 677.88 734.96 671.56 717.34 677.91 700.92 C 680.67 692.78 685.64 684.38 694.06 681.21 C 695.17 680.32 696.77 680.61 697.91 679.76 C 702.11 679.60 706.89 678.64 710.80 680.25 C 712.46 680.47 714.28 680.25 715.77 681.20 C 718.71 681.62 721.38 682.98 724.25 683.71 C 725.35 684.42 726.76 684.50 727.86 685.27 C 730.74 686.13 733.32 687.80 736.21 688.68 C 739.24 690.55 742.78 691.39 745.79 693.31 C 746.98 693.58 748.00 694.29 749.17 694.70 C 752.26 696.49 755.69 697.60 758.88 699.24 C 760.99 700.00 762.97 701.10 765.16 701.68 C 766.32 702.26 767.60 702.62 768.79 703.20 C 769.85 703.34 770.84 703.66 771.78 704.18 C 774.12 704.61 776.32 705.63 778.74 705.73 C 782.54 697.05 783.71 686.75 780.35 677.74 C 776.95 669.04 769.20 663.08 761.25 658.74 C 755.95 655.95 750.49 653.41 744.87 651.37 C 743.37 650.32 741.55 649.91 739.86 649.33 C 735.90 647.60 731.88 645.92 727.87 644.31 C 726.60 643.44 725.17 642.82 723.72 642.37 C 718.75 639.47 713.43 636.86 709.44 632.58 C 700.77 623.73 695.61 612.14 691.62 600.58 C 681.07 569.34 679.70 535.50 666.23 505.18 L 665.93 504.47 C 671.63 503.26 677.43 503.79 683.17 504.25 C 684.49 511.30 686.31 518.23 688.06 525.19 C 687.66 527.11 687.32 529.10 687.78 531.05 C 690.83 547.53 690.00 564.53 694.16 580.83 C 695.67 587.16 697.71 593.37 700.36 599.32 C 700.82 599.35 701.73 599.41 702.19 599.44 C 709.36 613.96 722.22 624.65 735.75 633.04 C 747.05 639.41 758.52 645.64 770.77 650.06 C 785.44 655.66 800.70 659.64 816.06 662.81 L 816.74 663.27 C 825.47 664.90 834.17 666.77 842.95 668.15 C 851.19 669.40 859.46 670.48 867.74 671.40 C 890.35 674.05 913.18 673.98 935.92 673.49 C 958.10 672.19 980.36 669.68 1001.83 663.73 C 1018.62 659.11 1035.21 652.62 1049.23 642.10 C 1055.05 637.62 1060.34 632.37 1064.54 626.32 C 1065.82 626.20 1067.33 626.43 1068.25 625.28 C 1073.56 620.11 1077.75 613.86 1081.35 607.41 C 1083.91 603.02 1083.00 597.78 1083.12 592.95 C 1083.26 574.57 1081.84 556.24 1080.03 537.96 C 1075.45 492.66 1064.36 448.05 1047.20 405.88 C 1043.04 395.25 1037.86 385.08 1033.30 374.63 C 1031.20 370.49 1028.56 366.64 1026.67 362.39 C 1025.25 359.68 1024.40 356.12 1021.09 355.16 C 1009.08 332.63 994.98 310.99 977.51 292.32 C 970.14 290.40 962.56 288.18 956.56 283.25 C 951.14 279.07 947.25 273.08 945.43 266.50 C 941.68 264.19 937.47 262.92 933.27 261.75 C 930.62 261.06 929.26 258.48 928.63 256.04 C 911.86 244.53 895.73 232.02 878.04 221.91 C 863.68 213.63 848.22 207.14 832.05 203.36 C 812.52 198.80 792.24 197.92 772.31 199.88 C 765.18 199.88 758.04 199.85 750.92 199.89 C 750.79 200.47 750.54 201.64 750.41 202.23 C 749.97 202.49 749.08 203.03 748.64 203.29 C 731.39 206.54 714.07 210.03 697.42 215.71 C 683.37 220.65 668.86 228.39 662.04 242.34 C 659.80 242.35 657.57 242.36 655.35 242.35 C 653.68 244.46 652.07 246.65 651.25 249.25 C 646.63 254.58 645.89 262.10 641.07 267.30 C 650.68 286.05 661.28 304.52 667.36 324.83 C 673.59 345.00 674.97 366.44 672.78 387.38 C 670.46 387.47 668.14 387.53 665.83 387.57 C 664.35 389.66 662.55 391.66 662.08 394.27 C 665.67 394.28 669.25 394.44 672.84 394.56 C 671.60 401.35 669.61 408.04 666.37 414.17 C 661.39 423.64 654.44 431.85 647.99 440.33 C 648.73 446.69 651.23 452.76 654.89 457.99 C 661.28 467.18 670.65 474.06 675.88 484.10 C 677.94 488.02 679.14 492.32 679.88 496.68 C 676.44 496.89 673.01 497.49 669.55 497.26 C 669.15 498.26 668.76 499.26 668.38 500.28 C 667.75 500.39 666.47 500.61 665.84 500.72 L 665.50 500.78 C 664.30 495.28 662.04 490.01 658.69 485.47 C 651.84 476.11 641.91 469.07 637.07 458.27 C 615.66 474.93 596.47 494.16 576.93 512.91 C 558.85 529.59 539.85 546.29 516.85 555.76 C 515.42 556.92 513.50 557.12 511.84 557.82 C 510.66 558.58 509.21 558.55 507.90 558.87 C 506.21 560.08 503.92 559.10 502.19 560.21 C 494.73 560.80 487.31 561.69 479.81 561.76 C 475.24 562.73 470.45 562.95 465.80 563.77 C 461.60 565.11 457.23 566.03 452.90 566.87 C 451.69 567.67 450.20 567.56 448.84 567.79 C 446.01 568.97 442.82 569.20 439.83 569.84 C 436.96 570.93 433.81 571.27 430.78 571.80 C 429.27 572.68 427.47 572.52 425.82 572.80 C 424.32 573.75 422.48 573.49 420.81 573.78 C 419.21 575.08 416.84 574.00 415.17 575.22 C 413.41 575.48 411.63 575.61 409.87 575.82 C 408.41 576.89 406.50 576.46 404.84 576.76 C 403.08 577.93 400.80 577.35 398.83 577.77 C 394.52 579.23 389.57 578.96 385.19 580.20 C 382.11 580.50 379.02 580.71 376.00 581.37 C 373.80 581.89 371.25 581.09 369.27 582.26 C 363.15 582.34 357.16 583.70 351.02 583.62 C 349.44 583.86 347.54 583.20 346.19 584.23 C 333.05 584.67 319.90 584.72 306.77 584.25 C 303.90 583.02 300.51 583.92 297.45 583.39 C 291.75 582.35 285.78 582.34 280.23 580.77 C 278.55 580.37 276.55 580.95 275.13 579.79 C 273.48 579.51 271.69 579.70 270.22 578.76 C 268.83 578.61 267.40 578.56 266.17 577.83 C 264.82 577.57 263.39 577.56 262.22 576.76 C 261.61 576.67 260.38 576.47 259.77 576.38 C 257.36 575.17 254.62 574.88 252.16 573.80 C 250.71 573.29 249.24 572.81 247.78 572.36 C 244.26 570.80 240.60 569.52 237.16 567.78 C 235.79 567.19 234.44 566.56 233.18 565.77 C 220.84 559.87 209.75 551.54 199.99 542.00 C 186.05 527.59 172.71 512.61 159.72 497.35 C 147.52 482.77 135.26 468.15 124.75 452.29 C 123.05 449.69 121.41 447.04 120.07 444.24 C 117.27 436.96 116.78 429.09 115.26 421.49 C 113.66 412.21 109.82 403.56 106.40 394.86 C 101.15 382.13 95.90 369.29 93.09 355.76 C 89.08 337.18 89.65 317.90 92.64 299.22 C 94.96 285.33 99.03 271.52 106.41 259.43 C 111.04 251.57 117.06 244.66 123.46 238.21 C 137.41 224.87 152.94 213.27 166.37 199.37 C 187.06 179.29 199.20 151.32 223.31 134.61 C 232.07 128.71 241.94 124.52 252.27 122.29 C 277.79 116.93 304.05 115.25 330.05 117.02 C 367.52 119.53 404.17 129.68 438.67 144.26 C 460.86 153.68 482.24 164.88 503.24 176.68 C 513.95 182.77 524.87 188.49 535.76 194.27 C 542.90 198.67 550.43 202.39 557.77 206.45 C 567.77 211.59 576.65 218.52 585.94 224.80 C 591.68 228.86 597.66 232.56 603.39 236.63 C 611.85 243.59 619.75 251.33 626.39 260.06 C 628.69 257.14 630.42 253.81 632.80 250.94 C 641.42 239.54 653.43 230.27 658.24 216.36 C 665.16 211.18 672.88 207.03 681.15 204.45 C 722.74 190.33 767.07 183.83 810.94 186.46 C 826.75 187.53 842.49 190.05 857.66 194.66 C 867.06 198.27 876.53 201.91 885.28 206.97 C 886.54 200.08 887.27 192.53 884.10 186.02 C 881.42 180.36 875.71 176.87 869.94 174.99 C 858.83 171.12 846.82 171.15 835.65 167.62 C 835.87 163.68 835.73 159.67 834.61 155.85 C 831.61 144.06 820.65 136.04 818.57 123.86 C 817.44 120.29 819.16 115.77 816.17 112.95 C 812.43 108.14 808.42 103.56 803.58 99.83 L 803.51 99.58 C 803.28 96.92 800.72 95.63 798.92 94.05 C 783.10 80.26 763.18 72.03 743.00 66.97 C 701.66 57.19 658.87 58.06 616.98 52.17 C 596.56 49.31 576.04 45.36 557.03 37.13 C 545.50 32.23 534.16 26.85 522.29 22.78 C 512.22 19.18 501.51 18.04 490.96 16.74 C 482.32 15.52 473.59 16.10 464.91 15.53 C 456.95 16.01 448.96 15.62 441.01 16.29 C 396.83 19.43 353.36 29.62 309.02 30.94 C 297.02 30.72 284.98 31.47 273.02 30.12 C 264.36 29.78 255.67 30.21 247.05 29.13 C 222.11 28.77 196.64 27.74 172.36 34.48 C 160.22 37.77 148.84 44.00 139.77 52.73 C 128.93 64.76 121.11 79.20 115.28 94.24 C 105.37 119.10 98.73 145.14 93.42 171.33 C 85.15 210.57 79.87 250.35 74.04 290.00 C 70.75 312.19 70.64 334.65 71.01 357.03 C 70.53 366.70 72.37 376.28 71.98 385.96 C 72.79 393.10 72.91 400.30 73.75 407.45 C 74.26 430.94 73.71 454.44 73.38 477.94 C 72.94 500.77 72.52 523.63 71.48 546.45 C 70.56 548.52 70.01 550.72 69.85 552.99 C 63.21 612.58 53.91 672.00 51.66 731.97 C 50.33 742.93 51.48 754.01 50.14 764.98 C 49.59 804.31 49.95 843.67 49.80 883.01 C 48.36 897.62 49.38 912.31 49.08 926.96 C 48.74 942.63 49.58 958.36 48.06 973.98 C 47.69 981.37 48.35 988.80 47.34 996.15 C 46.41 1015.68 44.96 1035.21 42.54 1054.63 C 40.58 1069.35 40.05 1084.18 39.03 1098.97 C 38.50 1141.63 39.32 1184.30 38.99 1226.97 C 39.15 1241.27 37.81 1255.52 36.60 1269.75 C 34.33 1290.47 30.68 1311.30 22.57 1330.61 C 18.52 1339.71 13.80 1348.66 7.15 1356.14 C 6.11 1357.38 4.89 1358.55 4.23 1360.08 C 3.79 1362.21 4.36 1364.41 4.45 1366.58 C 4.22 1366.94 3.74 1367.66 3.50 1368.02 C 2.99 1360.02 3.38 1351.99 3.24 1343.99 C 3.36 1342.04 2.85 1339.87 4.13 1338.21 C 13.95 1322.27 19.91 1304.20 23.31 1285.87 C 28.20 1259.21 28.32 1232.01 28.27 1205.01 C 27.79 1177.66 27.31 1150.28 28.10 1122.93 C 28.85 1094.10 33.29 1065.56 37.45 1037.08 C 39.87 1020.49 42.15 1003.85 42.92 987.09 C 44.37 960.72 44.58 934.29 43.80 907.91 C 43.76 894.94 42.83 881.98 43.49 869.02 C 43.40 849.01 43.91 829.01 43.72 808.99 C 44.29 791.32 43.70 773.61 44.07 755.93 C 44.47 741.00 44.36 726.04 45.32 711.12 C 45.80 703.60 45.42 695.95 46.39 688.51 C 48.36 685.35 48.26 681.54 48.94 678.01 C 51.80 661.06 55.16 644.15 56.24 626.97 C 57.13 615.33 57.93 603.70 58.34 592.05 C 59.53 583.74 58.59 575.32 59.72 567.00 C 60.00 560.50 60.83 553.83 59.14 547.45 C 60.74 529.32 62.82 511.20 63.78 493.01 C 64.95 472.69 64.57 452.32 63.70 431.99 C 62.31 384.01 56.72 335.79 63.14 287.95 C 69.17 247.17 74.42 206.22 82.83 165.84 C 90.46 130.02 100.07 93.85 119.24 62.27 C 126.95 51.48 136.13 41.65 146.91 33.87 C 150.76 31.31 155.04 29.45 159.31 27.73 C 179.24 20.09 200.86 19.09 221.96 18.74 C 250.33 18.84 278.68 20.82 307.04 19.92 M 293.99 128.65 C 282.61 129.47 271.25 130.81 260.05 133.03 C 248.27 135.29 237.46 140.96 227.55 147.55 C 226.06 148.59 224.16 149.59 224.19 151.70 C 222.41 152.32 220.69 153.07 218.97 153.82 C 218.94 154.61 218.88 156.19 218.86 156.98 C 219.40 160.88 223.99 161.22 226.33 163.60 C 228.14 166.31 227.48 170.90 224.54 172.58 C 212.50 181.25 200.18 189.53 188.12 198.16 C 162.94 216.08 137.95 235.79 121.38 262.33 C 106.02 286.41 100.24 315.85 103.22 344.09 C 104.31 353.83 105.06 363.92 109.38 372.88 C 116.44 387.97 126.87 401.57 131.28 417.83 C 134.04 425.36 134.26 433.66 137.91 440.89 C 144.56 454.26 154.09 465.97 164.38 476.70 C 172.37 486.29 180.63 495.67 189.38 504.58 C 201.92 518.12 215.26 531.04 226.15 546.01 C 226.86 547.00 228.11 547.29 229.15 547.81 C 229.65 548.06 230.66 548.57 231.16 548.82 C 234.16 550.13 237.05 551.74 240.18 552.72 C 242.84 554.35 245.99 554.95 248.77 556.34 C 250.24 556.82 251.72 557.32 253.20 557.78 C 256.50 558.84 259.74 560.14 263.14 560.86 C 267.00 562.23 271.06 563.13 275.09 563.90 C 276.32 564.63 277.77 564.58 279.15 564.78 C 280.60 565.84 282.52 565.42 284.18 565.80 C 288.14 567.31 292.75 566.95 296.71 568.28 C 298.86 568.49 301.04 568.56 303.20 568.78 C 306.33 570.01 309.80 569.16 313.02 570.00 C 318.19 571.11 323.83 569.89 328.80 571.25 C 338.26 571.46 347.72 571.41 357.18 571.27 C 362.72 569.86 368.96 571.15 374.70 569.87 C 378.01 569.06 381.75 570.20 384.86 568.75 C 390.03 568.78 395.04 567.50 400.19 567.21 C 406.12 566.08 412.23 565.10 418.26 564.30 C 423.26 562.70 428.87 562.53 433.85 560.79 C 435.19 560.50 436.77 560.80 437.90 559.84 C 440.91 559.41 443.93 558.85 446.79 557.83 C 448.11 557.47 449.61 557.57 450.82 556.83 C 453.15 556.16 455.65 555.91 457.85 554.82 C 459.20 554.61 460.56 554.41 461.81 553.82 C 462.94 553.78 463.98 553.46 464.90 552.87 C 466.20 552.58 467.54 552.38 468.77 551.83 C 469.82 551.61 470.82 551.26 471.78 550.78 C 472.37 550.65 473.55 550.39 474.14 550.26 C 475.21 549.43 476.68 549.58 477.82 548.85 C 478.87 548.67 479.88 548.34 480.82 547.85 C 482.58 547.31 484.36 546.79 486.12 546.23 C 487.30 545.67 488.54 545.24 489.78 544.82 C 492.48 543.89 495.24 543.08 497.82 541.83 C 499.50 541.23 501.30 540.81 502.84 539.86 C 504.54 539.29 506.25 538.71 507.85 537.87 C 513.09 536.01 518.02 533.41 523.17 531.33 C 529.22 528.43 535.24 525.43 541.18 522.31 C 557.36 513.40 573.09 503.39 586.70 490.83 C 602.57 477.25 615.60 460.75 627.86 443.94 C 638.61 428.98 648.59 413.46 658.54 397.96 C 659.45 380.67 659.44 363.22 657.04 346.03 C 654.66 329.46 649.97 312.73 640.04 299.00 C 638.08 296.46 636.26 293.62 633.48 291.90 C 634.65 295.51 634.73 300.85 630.51 302.46 C 627.30 303.03 622.54 303.58 621.33 299.61 C 617.25 290.39 620.52 280.08 622.98 270.85 C 597.49 250.90 571.60 231.40 544.57 213.57 C 544.60 212.37 544.15 211.45 543.23 210.81 C 537.84 206.84 532.18 203.27 526.87 199.19 C 505.10 185.12 482.84 171.67 459.31 160.71 C 442.53 153.32 425.64 145.91 407.90 141.10 C 385.63 134.36 362.58 129.94 339.35 128.50 C 333.61 127.55 327.78 127.97 321.99 127.84 C 312.66 128.03 303.27 127.39 293.99 128.65 Z" />
<path fill="#0a0a0a" opacity="1.00" d=" M 441.01 16.29 C 448.96 15.62 456.95 16.01 464.91 15.53 C 473.59 16.10 482.32 15.52 490.96 16.74 C 501.51 18.04 512.22 19.18 522.29 22.78 C 534.16 26.85 545.50 32.23 557.03 37.13 C 576.04 45.36 596.56 49.31 616.98 52.17 C 658.87 58.06 701.66 57.19 743.00 66.97 C 763.18 72.03 783.10 80.26 798.92 94.05 C 800.72 95.63 803.28 96.92 803.51 99.58 C 791.14 89.96 776.85 83.05 761.91 78.44 C 740.18 71.69 717.55 68.60 695.03 65.85 C 670.73 62.95 646.33 60.68 622.15 56.85 C 599.52 53.19 576.89 48.58 555.44 40.32 C 536.77 33.16 518.19 25.25 498.39 21.76 C 476.87 17.67 454.79 18.00 433.05 19.99 C 391.58 23.72 350.67 33.15 308.94 34.04 C 284.61 34.45 260.33 32.67 236.04 31.76 C 218.72 31.22 201.23 31.31 184.14 34.50 C 168.55 37.38 153.16 43.61 141.41 54.48 C 134.27 68.79 128.14 83.60 122.38 98.52 C 103.45 147.68 90.16 198.96 82.01 250.98 C 77.92 277.47 75.27 304.18 74.33 330.97 C 73.47 356.45 74.50 381.97 73.75 407.45 C 72.91 400.30 72.79 393.10 71.98 385.96 C 72.37 376.28 70.53 366.70 71.01 357.03 C 70.64 334.65 70.75 312.19 74.04 290.00 C 79.87 250.35 85.15 210.57 93.42 171.33 C 98.73 145.14 105.37 119.10 115.28 94.24 C 121.11 79.20 128.93 64.76 139.77 52.73 C 148.84 44.00 160.22 37.77 172.36 34.48 C 196.64 27.74 222.11 28.77 247.05 29.13 C 255.67 30.21 264.36 29.78 273.02 30.12 C 284.98 31.47 297.02 30.72 309.02 30.94 C 353.36 29.62 396.83 19.43 441.01 16.29 Z" />
<path fill="#f5f5f5" opacity="1.00" d=" M 82.01 250.98 C 90.16 198.96 103.45 147.68 122.38 98.52 C 123.41 101.71 121.41 104.68 120.55 107.65 C 100.14 167.66 89.95 230.47 80.80 293.00 C 79.39 302.27 79.11 311.64 78.11 320.94 C 77.95 336.30 78.01 351.66 78.11 367.02 C 78.45 372.35 79.28 377.66 79.05 383.02 C 78.80 389.05 80.27 394.99 80.04 401.02 C 79.73 407.72 81.23 414.33 81.01 421.04 C 80.77 427.70 82.12 434.28 82.00 440.94 C 82.16 457.94 82.21 474.94 82.02 491.94 C 79.56 532.29 74.59 572.48 69.49 612.59 L 68.41 613.15 C 69.66 590.93 70.95 568.70 71.48 546.45 C 72.52 523.63 72.94 500.77 73.38 477.94 C 73.71 454.44 74.26 430.94 73.75 407.45 C 74.50 381.97 73.47 356.45 74.33 330.97 C 75.27 304.18 77.92 277.47 82.01 250.98 Z" />
<path fill="#f5f5f5" opacity="1.00" d=" M 269.04 116.75 C 284.96 114.64 300.95 112.63 317.03 112.87 C 344.84 112.16 372.78 115.17 399.67 122.37 C 409.31 124.48 418.48 128.14 427.88 131.07 C 441.07 135.67 453.62 141.86 466.32 147.61 C 470.63 150.01 474.87 152.55 479.34 154.64 C 503.87 168.19 527.25 183.73 550.10 199.91 C 552.33 202.47 556.51 203.17 557.77 206.45 C 550.43 202.39 542.90 198.67 535.76 194.27 C 524.87 188.49 513.95 182.77 503.24 176.68 C 482.24 164.88 460.86 153.68 438.67 144.26 C 404.17 129.68 367.52 119.53 330.05 117.02 C 304.05 115.25 277.79 116.93 252.27 122.29 C 241.94 124.52 232.07 128.71 223.31 134.61 C 223.41 134.14 223.60 133.21 223.70 132.74 C 230.18 127.45 238.17 124.54 245.98 121.82 C 253.39 119.02 261.34 118.35 269.04 116.75 Z" />
<path fill="#0a0a0a" opacity="1.00" d=" M 293.99 128.65 C 303.27 127.39 312.66 128.03 321.99 127.84 C 327.78 127.97 333.61 127.55 339.35 128.50 C 362.58 129.94 385.63 134.36 407.90 141.10 C 425.64 145.91 442.53 153.32 459.31 160.71 C 482.84 171.67 505.10 185.12 526.87 199.19 C 532.18 203.27 537.84 206.84 543.23 210.81 C 544.15 211.45 544.60 212.37 544.57 213.57 C 506.19 188.24 465.37 166.03 421.59 151.57 C 409.05 146.87 396.03 143.61 383.04 140.42 C 341.76 130.83 298.34 130.82 257.01 140.10 C 252.75 141.12 249.27 144.09 244.99 145.07 C 237.95 146.93 231.08 149.38 224.19 151.70 C 224.16 149.59 226.06 148.59 227.55 147.55 C 237.46 140.96 248.27 135.29 260.05 133.03 C 271.25 130.81 282.61 129.47 293.99 128.65 Z" />
<path fill="#ffffff" opacity="1.00" d=" M 257.01 140.10 C 298.34 130.82 341.76 130.83 383.04 140.42 C 396.03 143.61 409.05 146.87 421.59 151.57 C 465.37 166.03 506.19 188.24 544.57 213.57 C 571.60 231.40 597.49 250.90 622.98 270.85 C 620.52 280.08 617.25 290.39 621.33 299.61 C 622.54 303.58 627.30 303.03 630.51 302.46 C 634.73 300.85 634.65 295.51 633.48 291.90 C 636.26 293.62 638.08 296.46 640.04 299.00 C 649.97 312.73 654.66 329.46 657.04 346.03 C 659.44 363.22 659.45 380.67 658.54 397.96 C 648.59 413.46 638.61 428.98 627.86 443.94 C 615.60 460.75 602.57 477.25 586.70 490.83 C 573.09 503.39 557.36 513.40 541.18 522.31 C 535.24 525.43 529.22 528.43 523.17 531.33 C 518.02 533.41 513.09 536.01 507.85 537.87 C 506.25 538.71 504.54 539.29 502.84 539.86 C 501.30 540.81 499.50 541.23 497.82 541.83 C 495.24 543.08 492.48 543.89 489.78 544.82 C 488.54 545.24 487.30 545.67 486.12 546.23 C 484.36 546.79 482.58 547.31 480.82 547.85 C 479.88 548.34 478.87 548.67 477.82 548.85 C 476.68 549.58 475.21 549.43 474.14 550.26 C 473.55 550.39 472.37 550.65 471.78 550.78 C 470.82 551.26 469.82 551.61 468.77 551.83 C 467.54 552.38 466.20 552.58 464.90 552.87 C 463.98 553.46 462.94 553.78 461.81 553.82 C 460.56 554.41 459.20 554.61 457.85 554.82 C 455.65 555.91 453.15 556.16 450.82 556.83 C 449.61 557.57 448.11 557.47 446.79 557.83 C 443.93 558.85 440.91 559.41 437.90 559.84 C 436.77 560.80 435.19 560.50 433.85 560.79 C 428.87 562.53 423.26 562.70 418.26 564.30 C 412.23 565.10 406.12 566.08 400.19 567.21 C 395.04 567.50 390.03 568.78 384.86 568.75 C 381.75 570.20 378.01 569.06 374.70 569.87 C 368.96 571.15 362.72 569.86 357.18 571.27 C 347.72 571.41 338.26 571.46 328.80 571.25 C 323.83 569.89 318.19 571.11 313.02 570.00 C 309.80 569.16 306.33 570.01 303.20 568.78 C 301.04 568.56 298.86 568.49 296.71 568.28 C 292.75 566.95 288.14 567.31 284.18 565.80 C 282.52 565.42 280.60 565.84 279.15 564.78 C 277.77 564.58 276.32 564.63 275.09 563.90 C 271.06 563.13 267.00 562.23 263.14 560.86 C 259.74 560.14 256.50 558.84 253.20 557.78 C 251.72 557.32 250.24 556.82 248.77 556.34 C 245.99 554.95 242.84 554.35 240.18 552.72 C 237.05 551.74 234.16 550.13 231.16 548.82 C 230.66 548.57 229.65 548.06 229.15 547.81 C 228.11 547.29 226.86 547.00 226.15 546.01 C 215.26 531.04 201.92 518.12 189.38 504.58 C 180.63 495.67 172.37 486.29 164.38 476.70 C 154.09 465.97 144.56 454.26 137.91 440.89 C 134.26 433.66 134.04 425.36 131.28 417.83 C 126.87 401.57 116.44 387.97 109.38 372.88 C 105.06 363.92 104.31 353.83 103.22 344.09 C 100.24 315.85 106.02 286.41 121.38 262.33 C 137.95 235.79 162.94 216.08 188.12 198.16 C 200.18 189.53 212.50 181.25 224.54 172.58 C 227.48 170.90 228.14 166.31 226.33 163.60 C 223.99 161.22 219.40 160.88 218.86 156.98 C 218.88 156.19 218.94 154.61 218.97 153.82 C 220.69 153.07 222.41 152.32 224.19 151.70 C 231.08 149.38 237.95 146.93 244.99 145.07 C 249.27 144.09 252.75 141.12 257.01 140.10 M 268.03 148.86 C 266.76 149.32 266.04 150.55 265.14 151.47 C 266.00 154.52 268.90 156.26 272.00 156.23 C 283.78 155.96 295.54 150.33 307.31 153.74 C 308.81 161.13 311.67 169.29 318.40 173.57 C 322.00 176.02 326.96 174.71 329.43 171.29 C 324.16 161.97 316.04 154.23 306.30 149.75 C 294.45 143.97 280.14 143.70 268.03 148.86 M 175.93 249.87 C 175.78 250.28 175.49 251.11 175.34 251.52 C 171.02 255.41 170.24 262.22 173.32 267.10 C 175.73 261.60 180.12 257.20 185.37 254.39 C 198.41 247.41 213.69 246.22 226.63 238.99 C 239.15 252.18 247.48 268.88 261.04 281.14 C 265.50 285.15 271.96 288.56 277.95 285.82 C 277.72 284.41 277.07 283.13 275.75 282.46 C 275.26 279.36 273.61 276.68 272.07 274.02 C 265.71 262.50 256.50 252.67 245.78 245.09 C 244.79 244.51 243.71 244.21 242.55 244.19 C 237.06 238.31 229.26 235.38 221.64 233.44 C 219.95 233.09 218.01 232.25 216.51 233.53 C 211.78 232.43 206.86 232.67 202.08 233.24 C 191.56 235.03 182.57 241.79 175.93 249.87 M 465.85 268.35 C 459.48 269.00 453.20 270.34 446.83 270.95 C 442.52 272.56 437.95 273.14 433.54 274.39 C 413.26 279.64 393.28 287.03 375.60 298.42 C 367.47 303.81 359.63 310.09 354.36 318.43 C 350.37 324.52 349.22 331.88 348.26 338.95 C 346.34 352.96 349.05 367.59 356.15 379.85 C 363.37 392.54 374.20 402.60 385.24 411.92 C 399.47 423.52 413.98 434.94 426.12 448.80 C 435.01 458.24 443.21 468.54 453.89 476.07 C 457.25 479.50 461.82 481.01 466.11 482.86 C 467.74 483.63 469.44 484.26 471.15 484.83 C 472.39 485.40 473.74 485.62 475.08 485.93 C 480.29 487.59 485.77 488.56 491.24 488.82 C 494.69 489.84 498.38 489.42 501.95 489.66 C 508.22 489.57 514.69 490.20 520.82 488.83 C 523.15 488.52 525.60 488.77 527.81 487.81 C 529.47 487.61 531.21 487.57 532.77 486.84 C 534.14 486.63 535.57 486.49 536.85 485.88 C 539.21 485.39 541.55 484.78 543.80 483.90 C 545.80 483.22 547.85 482.66 549.79 481.81 C 551.51 481.27 553.26 480.72 554.86 479.85 C 565.25 475.63 575.05 469.95 583.94 463.10 C 595.26 454.28 605.27 443.27 611.13 430.04 C 616.26 418.59 618.00 404.97 612.93 393.19 C 605.93 376.40 593.44 362.80 581.84 349.08 C 569.14 335.37 558.42 320.00 546.18 305.89 C 534.82 292.54 521.90 280.46 507.45 270.50 C 505.42 269.23 503.65 267.32 501.23 266.88 C 489.41 266.58 477.57 266.74 465.85 268.35 M 175.63 361.07 C 173.10 361.73 170.47 361.63 167.92 362.14 C 175.34 364.45 183.32 363.62 190.95 363.06 C 212.51 361.02 232.58 352.00 253.92 348.89 C 263.77 347.42 274.24 348.83 282.54 354.61 C 280.38 349.68 276.30 345.70 271.34 343.63 C 263.65 340.35 255.08 340.46 246.95 341.65 C 222.46 345.21 199.61 355.36 175.63 361.07 M 310.49 516.30 C 299.53 521.84 287.18 524.22 274.99 524.82 C 266.38 525.81 257.61 525.64 249.00 524.69 C 240.25 524.46 231.57 523.17 222.93 521.88 C 227.54 527.02 234.42 529.24 240.92 530.95 C 261.46 535.39 283.04 533.82 303.20 528.19 C 309.92 525.91 317.11 523.34 321.73 517.65 C 323.54 515.52 323.80 512.65 323.37 510.00 C 318.29 510.19 314.84 514.25 310.49 516.30 Z" />
<path fill="#eb6e3b" opacity="1.00" d=" M 268.03 148.86 C 280.14 143.70 294.45 143.97 306.30 149.75 C 316.04 154.23 324.16 161.97 329.43 171.29 C 326.96 174.71 322.00 176.02 318.40 173.57 C 311.67 169.29 308.81 161.13 307.31 153.74 C 295.54 150.33 283.78 155.96 272.00 156.23 C 268.90 156.26 266.00 154.52 265.14 151.47 C 266.04 150.55 266.76 149.32 268.03 148.86 Z" />
<path fill="#f5f5f5" opacity="1.00" d=" M 778.99 180.80 C 786.24 180.01 793.58 179.57 800.87 180.28 C 804.56 180.87 808.29 180.86 812.02 180.94 C 822.44 181.78 832.77 183.51 842.94 185.91 C 847.28 187.12 851.18 189.45 854.87 191.97 C 855.79 192.83 857.67 193.13 857.66 194.66 C 842.49 190.05 826.75 187.53 810.94 186.46 C 767.07 183.83 722.74 190.33 681.15 204.45 C 682.03 201.77 685.68 202.03 687.85 200.86 C 705.70 192.52 725.05 187.96 744.36 184.39 C 755.86 182.86 767.35 180.73 778.99 180.80 Z" />
<path fill="#ffffff" opacity="1.00" d=" M 772.31 199.88 C 792.24 197.92 812.52 198.80 832.05 203.36 C 848.22 207.14 863.68 213.63 878.04 221.91 C 895.73 232.02 911.86 244.53 928.63 256.04 C 929.26 258.48 930.62 261.06 933.27 261.75 C 937.47 262.92 941.68 264.19 945.43 266.50 C 947.25 273.08 951.14 279.07 956.56 283.25 C 962.56 288.18 970.14 290.40 977.51 292.32 C 994.98 310.99 1009.08 332.63 1021.09 355.16 C 1043.03 397.12 1057.24 442.75 1066.44 489.10 C 1071.62 515.84 1075.37 542.89 1077.15 570.08 C 1077.85 581.09 1076.42 592.04 1076.11 603.02 C 1074.48 606.53 1072.43 609.86 1071.20 613.56 C 1067.79 615.63 1065.61 619.05 1062.81 621.78 C 1052.07 631.92 1039.43 639.89 1025.99 645.94 C 1005.07 655.55 982.56 661.03 959.98 665.04 C 946.73 667.04 933.41 668.87 920.01 669.26 C 902.64 671.20 885.07 668.88 867.74 671.40 C 859.46 670.48 851.19 669.40 842.95 668.15 C 834.17 666.77 825.47 664.90 816.74 663.27 L 816.06 662.81 C 800.70 659.64 785.44 655.66 770.77 650.06 C 758.52 645.64 747.05 639.41 735.75 633.04 C 722.22 624.65 709.36 613.96 702.19 599.44 C 701.38 597.75 700.63 595.97 700.76 594.06 C 700.65 570.53 694.33 547.67 688.06 525.19 C 686.31 518.23 684.49 511.30 683.17 504.25 C 688.76 503.26 694.48 502.13 700.15 503.15 C 710.93 503.96 721.12 508.00 731.84 509.16 C 734.61 509.58 737.33 508.65 740.04 508.14 C 738.84 505.33 735.95 503.92 733.46 502.45 C 725.69 498.17 716.64 497.56 707.99 496.72 C 698.62 496.47 689.25 496.69 679.88 496.68 C 679.14 492.32 677.94 488.02 675.88 484.10 C 670.65 474.06 661.28 467.18 654.89 457.99 C 651.23 452.76 648.73 446.69 647.99 440.33 C 654.44 431.85 661.39 423.64 666.37 414.17 C 669.61 408.04 671.60 401.35 672.84 394.56 C 677.71 394.19 684.82 396.69 687.38 390.96 C 683.34 387.52 677.87 386.93 672.78 387.38 C 674.97 366.44 673.59 345.00 667.36 324.83 C 661.28 304.52 650.68 286.05 641.07 267.30 C 645.89 262.10 646.63 254.58 651.25 249.25 C 662.87 249.18 675.36 248.32 685.88 254.17 C 689.88 256.79 694.35 260.76 693.97 266.00 C 693.90 282.01 693.97 298.03 693.92 314.05 C 693.73 315.45 694.13 316.86 695.43 317.60 C 735.09 348.47 778.22 374.46 820.86 400.93 C 813.98 388.64 802.89 379.31 791.11 371.90 C 774.20 361.31 755.53 353.90 738.63 343.28 C 727.22 336.10 716.47 327.16 709.60 315.38 C 708.25 313.05 706.32 311.16 704.56 309.16 C 704.99 304.92 702.90 301.10 701.98 297.09 C 698.62 283.81 699.05 269.90 700.79 256.41 C 694.05 251.84 687.24 247.08 679.37 244.66 C 673.80 242.74 667.89 242.21 662.04 242.34 C 668.86 228.39 683.37 220.65 697.42 215.71 C 714.07 210.03 731.39 206.54 748.64 203.29 C 766.44 205.20 783.99 211.61 797.84 223.13 C 803.56 228.05 809.51 232.97 813.59 239.41 C 814.67 240.99 815.79 242.54 816.94 244.08 C 815.84 248.75 818.29 253.19 819.28 257.65 C 821.31 265.12 824.44 273.81 832.44 276.63 C 834.02 277.66 835.52 276.14 835.71 274.57 C 834.90 258.78 829.46 242.96 818.94 231.00 C 806.56 216.60 789.33 207.64 772.31 199.88 M 733.17 240.24 C 730.51 241.16 725.20 240.93 725.69 244.93 C 725.71 246.81 726.55 249.67 728.98 249.28 C 733.79 248.22 737.96 244.99 743.03 244.85 C 747.86 245.33 751.60 249.00 754.18 252.85 C 761.83 265.35 760.51 281.61 769.65 293.37 C 770.96 295.11 772.33 292.25 772.02 291.03 C 772.48 275.75 769.52 258.92 758.36 247.65 C 751.91 241.15 742.11 238.25 733.17 240.24 M 882.87 387.86 C 881.28 388.47 879.58 388.67 877.92 388.93 C 871.86 390.70 865.74 392.44 860.08 395.30 C 836.21 406.28 818.29 427.48 807.47 451.03 C 809.77 475.88 808.30 500.82 807.06 525.68 C 806.41 538.42 806.43 551.27 808.47 563.89 C 810.70 577.51 815.34 591.06 823.98 601.99 C 833.26 614.13 846.24 622.93 859.92 629.44 C 860.99 629.82 862.04 630.31 863.13 630.70 C 864.64 631.76 866.47 632.17 868.18 632.81 C 872.22 634.70 876.59 635.77 880.80 637.24 C 882.96 637.65 885.01 638.47 887.19 638.85 C 888.63 639.65 890.46 639.29 891.85 640.24 C 893.48 640.51 895.35 640.22 896.79 641.28 C 898.55 641.46 900.33 641.58 902.12 641.81 C 907.10 643.48 912.86 642.89 917.79 644.27 C 929.93 644.76 942.07 644.80 954.21 644.26 C 956.92 643.00 960.28 643.83 963.24 643.24 C 965.30 642.07 967.94 642.70 970.24 642.28 C 973.29 641.02 976.94 640.99 980.24 640.28 C 984.33 638.87 988.87 638.54 992.88 636.81 C 993.69 636.65 995.31 636.32 996.12 636.16 L 995.26 636.04 C 998.33 635.48 1001.21 634.21 1004.18 633.28 C 1008.48 631.62 1012.67 629.73 1016.86 627.80 C 1030.15 621.03 1042.97 612.13 1051.31 599.55 C 1060.28 552.42 1050.92 501.79 1024.66 461.49 C 1023.43 459.65 1022.22 457.81 1020.95 456.02 C 1008.03 436.09 990.16 419.57 970.11 406.96 C 946.10 391.83 917.20 384.14 888.84 386.88 C 886.91 387.54 884.87 387.62 882.87 387.86 Z" />
<path fill="#eb6e3b" opacity="1.00" d=" M 750.92 199.89 C 758.04 199.85 765.18 199.88 772.31 199.88 C 789.33 207.64 806.56 216.60 818.94 231.00 C 829.46 242.96 834.90 258.78 835.71 274.57 C 829.92 264.13 824.19 253.59 816.94 244.08 C 815.79 242.54 814.67 240.99 813.59 239.41 C 809.51 232.97 803.56 228.05 797.84 223.13 C 783.99 211.61 766.44 205.20 748.64 203.29 C 749.08 203.03 749.97 202.49 750.41 202.23 C 750.54 201.64 750.79 200.47 750.92 199.89 Z" />
<path fill="#f5f5f5" opacity="1.00" d=" M 175.93 249.87 C 182.57 241.79 191.56 235.03 202.08 233.24 C 206.86 232.67 211.78 232.43 216.51 233.53 C 203.66 241.46 187.32 241.97 175.34 251.52 C 175.49 251.11 175.78 250.28 175.93 249.87 Z" />
<path fill="#eb6e3b" opacity="1.00" d=" M 216.51 233.53 C 218.01 232.25 219.95 233.09 221.64 233.44 C 229.26 235.38 237.06 238.31 242.55 244.19 C 254.17 256.46 261.03 273.24 275.75 282.46 C 277.07 283.13 277.72 284.41 277.95 285.82 C 271.96 288.56 265.50 285.15 261.04 281.14 C 247.48 268.88 239.15 252.18 226.63 238.99 C 213.69 246.22 198.41 247.41 185.37 254.39 C 180.12 257.20 175.73 261.60 173.32 267.10 C 170.24 262.22 171.02 255.41 175.34 251.52 C 187.32 241.97 203.66 241.46 216.51 233.53 Z" />
<path fill="#f5f5f5" opacity="1.00" d=" M 121.38 238.47 C 121.90 238.40 122.94 238.27 123.46 238.21 C 117.06 244.66 111.04 251.57 106.41 259.43 C 99.03 271.52 94.96 285.33 92.64 299.22 C 89.65 317.90 89.08 337.18 93.09 355.76 C 95.90 369.29 101.15 382.13 106.40 394.86 C 109.82 403.56 113.66 412.21 115.26 421.49 C 116.78 429.09 117.27 436.96 120.07 444.24 C 119.57 443.93 118.58 443.30 118.09 442.99 C 103.65 412.24 90.23 380.17 87.15 345.99 C 86.10 321.56 86.44 296.17 96.28 273.34 C 99.68 266.30 103.20 259.23 108.13 253.11 C 112.29 248.02 116.08 242.45 121.38 238.47 Z" />
<path fill="#eb6e3b" opacity="1.00" d=" M 733.17 240.24 C 742.11 238.25 751.91 241.15 758.36 247.65 C 769.52 258.92 772.48 275.75 772.02 291.03 C 772.33 292.25 770.96 295.11 769.65 293.37 C 760.51 281.61 761.83 265.35 754.18 252.85 C 751.60 249.00 747.86 245.33 743.03 244.85 C 737.96 244.99 733.79 248.22 728.98 249.28 C 726.55 249.67 725.71 246.81 725.69 244.93 C 725.20 240.93 730.51 241.16 733.17 240.24 Z" />
<path fill="#eb6e3b" opacity="1.00" d=" M 655.35 242.35 C 657.57 242.36 659.80 242.35 662.04 242.34 C 667.89 242.21 673.80 242.74 679.37 244.66 C 687.24 247.08 694.05 251.84 700.79 256.41 C 699.05 269.90 698.62 283.81 701.98 297.09 C 702.90 301.10 704.99 304.92 704.56 309.16 C 706.32 311.16 708.25 313.05 709.60 315.38 C 716.47 327.16 727.22 336.10 738.63 343.28 C 755.53 353.90 774.20 361.31 791.11 371.90 C 802.89 379.31 813.98 388.64 820.86 400.93 C 778.22 374.46 735.09 348.47 695.43 317.60 C 694.13 316.86 693.73 315.45 693.92 314.05 C 693.97 298.03 693.90 282.01 693.97 266.00 C 694.35 260.76 689.88 256.79 685.88 254.17 C 675.36 248.32 662.87 249.18 651.25 249.25 C 652.07 246.65 653.68 244.46 655.35 242.35 Z" />
<path fill="#f5f5f5" opacity="1.00" d=" M 242.55 244.19 C 243.71 244.21 244.79 244.51 245.78 245.09 C 256.50 252.67 265.71 262.50 272.07 274.02 C 273.61 276.68 275.26 279.36 275.75 282.46 C 261.03 273.24 254.17 256.46 242.55 244.19 Z" />
<path fill="#f5f5f5" opacity="1.00" d=" M 819.28 257.65 C 818.29 253.19 815.84 248.75 816.94 244.08 C 824.19 253.59 829.92 264.13 835.71 274.57 C 835.52 276.14 834.02 277.66 832.44 276.63 C 824.44 273.81 821.31 265.12 819.28 257.65 Z" />
<path fill="#000000" opacity="1.00" d=" M 465.85 268.35 C 477.57 266.74 489.41 266.58 501.23 266.88 C 503.65 267.32 505.42 269.23 507.45 270.50 C 521.90 280.46 534.82 292.54 546.18 305.89 C 558.42 320.00 569.14 335.37 581.84 349.08 C 593.44 362.80 605.93 376.40 612.93 393.19 C 618.00 404.97 616.26 418.59 611.13 430.04 C 605.27 443.27 595.26 454.28 583.94 463.10 C 575.05 469.95 565.25 475.63 554.86 479.85 C 553.26 480.72 551.51 481.27 549.79 481.81 C 547.85 482.66 545.80 483.22 543.80 483.90 C 541.55 484.78 539.21 485.39 536.85 485.88 C 535.57 486.49 534.14 486.63 532.77 486.84 C 531.21 487.57 529.47 487.61 527.81 487.81 C 525.60 488.77 523.15 488.52 520.82 488.83 C 514.69 490.20 508.22 489.57 501.95 489.66 C 498.38 489.42 494.69 489.84 491.24 488.82 C 485.77 488.56 480.29 487.59 475.08 485.93 C 473.74 485.62 472.39 485.40 471.15 484.83 C 469.44 484.26 467.74 483.63 466.11 482.86 C 461.82 481.01 457.25 479.50 453.89 476.07 C 443.21 468.54 435.01 458.24 426.12 448.80 C 413.98 434.94 399.47 423.52 385.24 411.92 C 374.20 402.60 363.37 392.54 356.15 379.85 C 349.05 367.59 346.34 352.96 348.26 338.95 C 349.22 331.88 350.37 324.52 354.36 318.43 C 359.63 310.09 367.47 303.81 375.60 298.42 C 393.28 287.03 413.26 279.64 433.54 274.39 C 437.95 273.14 442.52 272.56 446.83 270.95 C 453.20 270.34 459.48 269.00 465.85 268.35 M 432.36 291.59 C 439.10 290.88 446.56 291.56 451.96 296.06 C 458.10 301.15 460.82 308.92 463.72 316.08 C 467.04 310.22 473.40 306.75 479.98 306.05 C 493.58 304.65 506.85 308.79 519.98 311.69 C 524.59 312.55 529.29 313.86 534.01 313.14 C 532.26 306.25 526.55 301.18 521.38 296.65 C 507.37 285.89 489.55 280.81 472.05 280.35 C 458.16 280.21 443.75 283.30 432.36 291.59 M 378.93 314.01 C 371.17 321.90 367.09 333.00 367.21 344.01 C 367.18 361.14 374.43 377.34 383.46 391.55 C 393.22 406.36 405.47 419.63 419.96 429.91 C 419.81 430.27 419.50 430.99 419.35 431.36 C 422.43 435.61 426.82 438.73 430.17 442.78 C 434.96 448.97 440.82 454.18 446.26 459.77 C 451.76 465.02 458.93 470.37 467.00 468.77 C 466.61 467.60 466.30 466.39 465.58 465.39 C 460.69 458.72 455.31 452.42 449.29 446.73 C 444.86 442.80 441.60 437.78 437.26 433.77 C 434.64 431.37 433.09 427.92 430.02 426.03 L 429.78 427.24 C 426.05 420.20 419.02 415.43 415.99 408.00 C 414.47 404.68 415.63 400.93 417.71 398.16 C 429.28 404.53 438.34 414.44 446.25 424.83 C 455.94 437.27 464.66 450.90 477.44 460.49 C 479.72 462.12 481.94 464.12 484.77 464.71 C 474.76 447.82 460.81 433.47 452.18 415.71 C 443.24 398.32 440.59 378.25 442.62 358.94 C 437.00 355.74 430.47 354.29 424.03 354.53 C 411.59 354.53 399.40 360.24 386.94 357.57 C 382.65 356.77 378.81 354.52 375.35 351.97 C 376.31 342.23 378.68 332.34 384.03 324.01 C 386.60 319.96 390.32 316.45 394.97 315.00 C 400.18 313.30 405.91 314.46 410.69 316.90 C 408.82 313.13 409.03 308.22 412.49 305.45 C 415.49 301.86 420.72 300.83 423.39 297.07 C 421.61 295.04 418.52 295.32 416.09 295.49 C 402.53 298.56 388.74 303.77 378.93 314.01 M 421.72 316.10 C 423.05 317.71 424.91 318.85 427.04 318.95 C 433.50 319.45 439.45 316.43 445.40 314.41 C 446.54 313.90 447.93 313.70 448.83 312.75 C 450.25 307.73 445.46 301.38 439.98 303.06 C 432.50 304.56 425.52 309.48 421.72 316.10 M 396.23 323.56 C 394.46 330.07 390.46 336.07 390.48 342.98 C 390.37 347.40 396.28 350.30 399.61 347.29 C 405.13 343.27 408.47 335.78 406.82 329.04 C 405.50 324.61 400.40 323.04 396.23 323.56 M 431.80 330.88 C 428.65 334.26 427.60 339.49 429.22 343.83 C 430.68 347.51 435.13 349.67 438.87 348.18 C 442.30 344.52 443.40 338.53 440.90 334.08 C 439.09 331.03 435.10 329.85 431.80 330.88 Z" />
<path fill="#97d6e7" opacity="1.00" d=" M 432.36 291.59 C 443.75 283.30 458.16 280.21 472.05 280.35 C 489.55 280.81 507.37 285.89 521.38 296.65 C 526.55 301.18 532.26 306.25 534.01 313.14 C 529.29 313.86 524.59 312.55 519.98 311.69 C 506.85 308.79 493.58 304.65 479.98 306.05 C 473.40 306.75 467.04 310.22 463.72 316.08 C 460.82 308.92 458.10 301.15 451.96 296.06 C 446.56 291.56 439.10 290.88 432.36 291.59 Z" />
<path fill="#97d6e7" opacity="1.00" d=" M 378.93 314.01 C 388.74 303.77 402.53 298.56 416.09 295.49 C 418.52 295.32 421.61 295.04 423.39 297.07 C 420.72 300.83 415.49 301.86 412.49 305.45 C 409.03 308.22 408.82 313.13 410.69 316.90 C 405.91 314.46 400.18 313.30 394.97 315.00 C 390.32 316.45 386.60 319.96 384.03 324.01 C 378.68 332.34 376.31 342.23 375.35 351.97 C 378.81 354.52 382.65 356.77 386.94 357.57 C 399.40 360.24 411.59 354.53 424.03 354.53 C 430.47 354.29 437.00 355.74 442.62 358.94 C 440.59 378.25 443.24 398.32 452.18 415.71 C 460.81 433.47 474.76 447.82 484.77 464.71 C 481.94 464.12 479.72 462.12 477.44 460.49 C 464.66 450.90 455.94 437.27 446.25 424.83 C 438.34 414.44 429.28 404.53 417.71 398.16 C 415.63 400.93 414.47 404.68 415.99 408.00 C 419.02 415.43 426.05 420.20 429.78 427.24 C 431.27 430.31 432.13 433.65 432.04 437.08 C 427.76 435.14 423.82 432.55 419.96 429.91 C 405.47 419.63 393.22 406.36 383.46 391.55 C 374.43 377.34 367.18 361.14 367.21 344.01 C 367.09 333.00 371.17 321.90 378.93 314.01 Z" />
<path fill="#0a0a0a" opacity="1.00" d=" M 421.72 316.10 C 425.52 309.48 432.50 304.56 439.98 303.06 C 445.46 301.38 450.25 307.73 448.83 312.75 C 447.93 313.70 446.54 313.90 445.40 314.41 C 439.45 316.43 433.50 319.45 427.04 318.95 C 424.91 318.85 423.05 317.71 421.72 316.10 Z" />
<path fill="#f5f5f5" opacity="1.00" d=" M 396.23 323.56 C 400.40 323.04 405.50 324.61 406.82 329.04 C 408.47 335.78 405.13 343.27 399.61 347.29 C 396.28 350.30 390.37 347.40 390.48 342.98 C 390.46 336.07 394.46 330.07 396.23 323.56 Z" />
<path fill="#f5f5f5" opacity="1.00" d=" M 431.80 330.88 C 435.10 329.85 439.09 331.03 440.90 334.08 C 443.40 338.53 442.30 344.52 438.87 348.18 C 435.13 349.67 430.68 347.51 429.22 343.83 C 427.60 339.49 428.65 334.26 431.80 330.88 Z" />
<path fill="#eb6e3b" opacity="1.00" d=" M 175.63 361.07 C 199.61 355.36 222.46 345.21 246.95 341.65 C 255.08 340.46 263.65 340.35 271.34 343.63 C 276.30 345.70 280.38 349.68 282.54 354.61 C 274.24 348.83 263.77 347.42 253.92 348.89 C 232.58 352.00 212.51 361.02 190.95 363.06 C 183.32 363.62 175.34 364.45 167.92 362.14 C 170.47 361.63 173.10 361.73 175.63 361.07 Z" />
<path fill="#0a0a0a" opacity="1.00" d=" M 1021.09 355.16 C 1024.40 356.12 1025.25 359.68 1026.67 362.39 C 1028.56 366.64 1031.20 370.49 1033.30 374.63 C 1037.86 385.08 1043.04 395.25 1047.20 405.88 C 1064.36 448.05 1075.45 492.66 1080.03 537.96 C 1081.84 556.24 1083.26 574.57 1083.12 592.95 C 1083.00 597.78 1083.91 603.02 1081.35 607.41 C 1077.75 613.86 1073.56 620.11 1068.25 625.28 C 1067.33 626.43 1065.82 626.20 1064.54 626.32 C 1067.15 622.29 1069.50 618.06 1071.20 613.56 C 1072.43 609.86 1074.48 606.53 1076.11 603.02 C 1076.42 592.04 1077.85 581.09 1077.15 570.08 C 1075.37 542.89 1071.62 515.84 1066.44 489.10 C 1057.24 442.75 1043.03 397.12 1021.09 355.16 Z" />
<path fill="#eb6e3b" opacity="1.00" d=" M 665.83 387.57 C 668.14 387.53 670.46 387.47 672.78 387.38 C 677.87 386.93 683.34 387.52 687.38 390.96 C 684.82 396.69 677.71 394.19 672.84 394.56 C 669.25 394.44 665.67 394.28 662.08 394.27 C 662.55 391.66 664.35 389.66 665.83 387.57 Z" />
<path fill="#000000" opacity="1.00" d=" M 882.87 387.86 C 884.87 387.62 886.91 387.54 888.84 386.88 C 917.20 384.14 946.10 391.83 970.11 406.96 C 990.16 419.57 1008.03 436.09 1020.95 456.02 C 1022.22 457.81 1023.43 459.65 1024.66 461.49 C 1024.38 461.83 1023.83 462.51 1023.55 462.85 C 1039.44 497.28 1044.30 535.50 1046.94 572.96 C 1046.80 581.33 1048.46 589.65 1047.88 598.02 C 1047.98 599.88 1046.44 601.10 1045.32 602.35 C 1032.92 614.95 1017.68 624.62 1001.32 631.22 C 997.24 632.91 992.91 633.95 988.91 635.83 C 991.00 636.28 993.13 636.20 995.26 636.04 L 996.12 636.16 C 995.31 636.32 993.69 636.65 992.88 636.81 C 988.87 638.54 984.33 638.87 980.24 640.28 C 976.94 640.99 973.29 641.02 970.24 642.28 C 967.94 642.70 965.30 642.07 963.24 643.24 C 960.28 643.83 956.92 643.00 954.21 644.26 C 942.07 644.80 929.93 644.76 917.79 644.27 C 912.86 642.89 907.10 643.48 902.12 641.81 C 900.33 641.58 898.55 641.46 896.79 641.28 C 895.35 640.22 893.48 640.51 891.85 640.24 C 890.46 639.29 888.63 639.65 887.19 638.85 C 885.01 638.47 882.96 637.65 880.80 637.24 C 876.59 635.77 872.22 634.70 868.18 632.81 C 866.47 632.17 864.64 631.76 863.13 630.70 C 862.04 630.31 860.99 629.82 859.92 629.44 C 860.34 628.95 861.18 627.96 861.60 627.46 C 856.36 623.36 850.84 619.57 846.23 614.75 C 829.89 597.57 819.49 575.62 813.01 553.03 C 810.53 544.02 809.32 534.73 807.06 525.68 C 808.30 500.82 809.77 475.88 807.47 451.03 C 818.29 427.48 836.21 406.28 860.08 395.30 C 865.74 392.44 871.86 390.70 877.92 388.93 C 879.58 388.67 881.28 388.47 882.87 387.86 M 899.09 402.53 C 888.13 404.11 877.67 407.91 867.46 412.06 C 869.51 414.81 872.72 416.39 875.97 417.25 C 882.68 417.70 889.39 416.38 895.92 414.94 C 902.21 414.28 910.13 414.17 914.25 419.89 C 918.82 426.92 917.81 435.81 917.20 443.76 C 910.49 443.30 903.88 444.66 897.39 446.20 C 892.06 447.40 886.51 446.70 881.61 444.36 C 882.07 449.02 882.41 454.07 880.32 458.41 C 878.39 462.19 873.66 461.67 870.14 462.55 C 863.50 462.73 856.14 463.80 850.34 459.75 C 840.81 453.57 841.30 439.87 832.08 433.35 C 822.02 461.95 818.65 492.68 820.78 522.87 C 822.38 542.60 826.42 562.34 834.62 580.45 C 839.25 590.51 845.07 600.20 852.92 608.09 C 862.21 617.94 874.51 625.29 887.92 627.63 C 901.31 627.30 914.70 627.46 928.10 627.73 C 928.52 627.85 929.37 628.09 929.80 628.21 C 941.56 628.39 953.35 628.67 965.11 628.16 C 970.32 627.27 975.73 627.32 980.87 625.86 C 982.21 625.57 983.57 625.29 984.88 624.81 C 985.44 624.67 986.57 624.39 987.13 624.24 C 988.91 623.21 991.63 623.32 992.70 621.33 C 975.49 622.82 960.07 612.83 943.05 612.62 C 938.91 612.52 934.89 613.72 930.77 613.74 C 925.63 608.33 920.09 603.33 914.45 598.46 C 898.78 584.58 882.27 570.55 872.53 551.62 C 864.86 536.91 863.28 519.10 868.58 503.36 C 872.99 491.70 883.47 483.62 894.44 478.47 C 916.43 468.30 941.20 466.38 965.11 467.87 C 979.78 469.84 995.33 472.32 1007.54 481.39 C 1015.68 487.50 1018.51 497.69 1022.42 506.59 C 1024.66 511.41 1027.88 516.94 1033.62 517.89 C 1023.72 487.90 1009.10 458.91 987.46 435.64 C 971.31 418.24 949.84 405.10 926.07 401.88 C 917.09 401.14 907.98 400.92 899.09 402.53 M 842.30 426.28 C 848.04 428.56 853.60 432.39 860.06 431.82 C 863.51 432.02 866.30 429.25 867.55 426.27 C 863.55 421.01 856.22 418.74 849.77 418.76 C 845.91 419.50 842.98 422.39 842.30 426.28 M 857.27 440.43 C 853.80 441.01 849.17 443.51 850.26 447.69 C 854.50 451.63 861.01 451.70 866.31 450.32 C 869.16 449.41 872.60 444.97 869.24 442.66 C 865.69 440.65 861.31 439.64 857.27 440.43 Z" />
<path fill="#97d6e7" opacity="1.00" d=" M 899.09 402.53 C 907.98 400.92 917.09 401.14 926.07 401.88 C 949.84 405.10 971.31 418.24 987.46 435.64 C 1009.10 458.91 1023.72 487.90 1033.62 517.89 C 1027.88 516.94 1024.66 511.41 1022.42 506.59 C 1018.51 497.69 1015.68 487.50 1007.54 481.39 C 995.33 472.32 979.78 469.84 965.11 467.87 C 941.20 466.38 916.43 468.30 894.44 478.47 C 883.47 483.62 872.99 491.70 868.58 503.36 C 863.28 519.10 864.86 536.91 872.53 551.62 C 882.27 570.55 898.78 584.58 914.45 598.46 C 920.09 603.33 925.63 608.33 930.77 613.74 C 934.89 613.72 938.91 612.52 943.05 612.62 C 960.07 612.83 975.49 622.82 992.70 621.33 C 991.63 623.32 988.91 623.21 987.13 624.24 C 986.57 624.39 985.44 624.67 984.88 624.81 C 983.57 625.29 982.21 625.57 980.87 625.86 C 975.73 627.32 970.32 627.27 965.11 628.16 C 953.35 628.67 941.56 628.39 929.80 628.21 C 929.37 628.09 928.52 627.85 928.10 627.73 C 914.70 627.46 901.31 627.30 887.92 627.63 C 874.51 625.29 862.21 617.94 852.92 608.09 C 845.07 600.20 839.25 590.51 834.62 580.45 C 826.42 562.34 822.38 542.60 820.78 522.87 C 818.65 492.68 822.02 461.95 832.08 433.35 C 841.30 439.87 840.81 453.57 850.34 459.75 C 856.14 463.80 863.50 462.73 870.14 462.55 C 873.66 461.67 878.39 462.19 880.32 458.41 C 882.41 454.07 882.07 449.02 881.61 444.36 C 886.51 446.70 892.06 447.40 897.39 446.20 C 903.88 444.66 910.49 443.30 917.20 443.76 C 917.81 435.81 918.82 426.92 914.25 419.89 C 910.13 414.17 902.21 414.28 895.92 414.94 C 889.39 416.38 882.68 417.70 875.97 417.25 C 872.72 416.39 869.51 414.81 867.46 412.06 C 877.67 407.91 888.13 404.11 899.09 402.53 Z" />
<path fill="#f5f5f5" opacity="1.00" d=" M 842.30 426.28 C 842.98 422.39 845.91 419.50 849.77 418.76 C 856.22 418.74 863.55 421.01 867.55 426.27 C 866.30 429.25 863.51 432.02 860.06 431.82 C 853.60 432.39 848.04 428.56 842.30 426.28 Z" />
<path fill="#0a0a0a" opacity="1.00" d=" M 430.02 426.03 C 433.09 427.92 434.64 431.37 437.26 433.77 C 441.60 437.78 444.86 442.80 449.29 446.73 C 455.31 452.42 460.69 458.72 465.58 465.39 C 466.30 466.39 466.61 467.60 467.00 468.77 C 458.93 470.37 451.76 465.02 446.26 459.77 C 440.82 454.18 434.96 448.97 430.17 442.78 C 426.82 438.73 422.43 435.61 419.35 431.36 C 419.50 430.99 419.81 430.27 419.96 429.91 C 423.82 432.55 427.76 435.14 432.04 437.08 C 432.13 433.65 431.27 430.31 429.78 427.24 L 430.02 426.03 Z" />
<path fill="#0a0a0a" opacity="1.00" d=" M 857.27 440.43 C 861.31 439.64 865.69 440.65 869.24 442.66 C 872.60 444.97 869.16 449.41 866.31 450.32 C 861.01 451.70 854.50 451.63 850.26 447.69 C 849.17 443.51 853.80 441.01 857.27 440.43 Z" />
<path fill="#0a0a0a" opacity="1.00" d=" M 1023.55 462.85 C 1023.83 462.51 1024.38 461.83 1024.66 461.49 C 1050.92 501.79 1060.28 552.42 1051.31 599.55 C 1042.97 612.13 1030.15 621.03 1016.86 627.80 C 1012.67 629.73 1008.48 631.62 1004.18 633.28 C 1001.21 634.21 998.33 635.48 995.26 636.04 C 993.13 636.20 991.00 636.28 988.91 635.83 C 992.91 633.95 997.24 632.91 1001.32 631.22 C 1017.68 624.62 1032.92 614.95 1045.32 602.35 C 1046.44 601.10 1047.98 599.88 1047.88 598.02 C 1048.46 589.65 1046.80 581.33 1046.94 572.96 C 1044.30 535.50 1039.44 497.28 1023.55 462.85 Z" />
<path fill="#eb6e3b" opacity="1.00" d=" M 669.55 497.26 C 673.01 497.49 676.44 496.89 679.88 496.68 C 689.25 496.69 698.62 496.47 707.99 496.72 C 716.64 497.56 725.69 498.17 733.46 502.45 C 735.95 503.92 738.84 505.33 740.04 508.14 C 737.33 508.65 734.61 509.58 731.84 509.16 C 721.12 508.00 710.93 503.96 700.15 503.15 C 694.48 502.13 688.76 503.26 683.17 504.25 C 677.43 503.79 671.63 503.26 665.93 504.47 L 666.23 505.18 L 666.46 505.74 C 665.47 504.22 665.71 502.42 665.84 500.72 C 666.47 500.61 667.75 500.39 668.38 500.28 C 668.76 499.26 669.15 498.26 669.55 497.26 Z" />
<path fill="#eb6e3b" opacity="1.00" d=" M 310.49 516.30 C 314.84 514.25 318.29 510.19 323.37 510.00 C 323.80 512.65 323.54 515.52 321.73 517.65 C 317.11 523.34 309.92 525.91 303.20 528.19 C 283.04 533.82 261.46 535.39 240.92 530.95 C 234.42 529.24 227.54 527.02 222.93 521.88 C 231.57 523.17 240.25 524.46 249.00 524.69 C 257.61 525.64 266.38 525.81 274.99 524.82 C 287.18 524.22 299.53 521.84 310.49 516.30 Z" />
<path fill="#0a0a0a" opacity="1.00" d=" M 687.78 531.05 C 687.32 529.10 687.66 527.11 688.06 525.19 C 694.33 547.67 700.65 570.53 700.76 594.06 C 700.63 595.97 701.38 597.75 702.19 599.44 C 701.73 599.41 700.82 599.35 700.36 599.32 C 697.71 593.37 695.67 587.16 694.16 580.83 C 690.00 564.53 690.83 547.53 687.78 531.05 Z" />
<path fill="#0a0a0a" opacity="1.00" d=" M 807.06 525.68 C 809.32 534.73 810.53 544.02 813.01 553.03 C 819.49 575.62 829.89 597.57 846.23 614.75 C 850.84 619.57 856.36 623.36 861.60 627.46 C 861.18 627.96 860.34 628.95 859.92 629.44 C 846.24 622.93 833.26 614.13 823.98 601.99 C 815.34 591.06 810.70 577.51 808.47 563.89 C 806.43 551.27 806.41 538.42 807.06 525.68 Z" />
<path fill="#000000" opacity="1.00" d=" M 595.02 543.34 C 598.32 543.30 601.63 543.15 604.93 543.34 C 606.73 543.84 607.61 545.71 609.03 546.81 C 615.27 551.92 620.84 557.86 625.46 564.47 C 628.26 568.29 631.54 571.84 633.90 575.94 C 633.90 577.66 633.95 579.45 634.88 580.98 C 641.59 593.77 648.22 606.72 652.30 620.63 C 655.64 632.44 658.22 644.64 658.03 656.97 C 658.54 677.81 652.90 698.41 644.12 717.19 C 632.18 743.43 616.89 767.94 603.31 793.32 C 598.17 803.89 592.50 814.23 588.01 825.11 C 587.27 826.28 587.73 827.55 588.21 828.74 L 588.28 828.94 C 579.37 846.70 574.56 866.35 573.32 886.14 C 559.29 902.64 545.01 919.15 534.00 937.90 C 524.00 954.67 516.72 973.14 513.19 992.37 C 506.07 992.79 498.99 993.58 491.85 993.14 C 489.72 992.27 487.35 992.69 485.12 992.43 C 474.35 991.32 463.70 988.68 453.85 984.13 C 442.72 978.60 432.69 970.78 425.05 960.94 C 411.04 943.38 403.32 921.91 396.54 900.76 C 405.32 883.59 420.60 871.04 436.07 860.10 C 442.68 855.68 448.79 850.37 456.15 847.22 C 464.84 842.68 472.90 836.79 479.30 829.33 C 484.05 823.66 486.38 816.53 490.37 810.39 C 500.96 791.89 503.23 769.88 501.54 748.97 C 500.48 737.48 499.24 725.78 494.91 714.99 C 488.28 697.80 476.36 683.47 467.26 667.62 C 460.70 656.65 455.88 644.64 453.23 632.13 C 457.40 633.28 460.83 636.15 464.29 638.63 C 476.63 648.65 484.37 662.95 490.78 677.22 C 497.58 692.01 503.04 707.52 511.74 721.36 C 512.34 722.48 513.34 723.61 513.00 725.01 C 511.29 744.32 513.01 763.70 512.68 783.04 C 511.76 801.83 506.57 821.40 493.74 835.68 C 484.45 846.18 472.26 853.44 460.16 860.24 C 448.02 866.71 435.23 872.59 425.06 882.06 C 417.09 889.30 412.78 900.26 413.87 910.99 C 414.93 924.24 421.01 936.61 429.13 946.96 C 438.81 959.31 452.07 968.82 466.83 974.14 C 477.25 977.87 488.34 978.96 499.34 978.51 C 506.93 970.76 509.67 959.56 509.72 948.99 C 509.41 945.93 511.40 943.39 512.77 940.85 C 521.65 926.16 534.84 914.86 545.43 901.50 C 553.42 891.35 561.06 880.08 562.95 867.01 C 564.99 854.68 565.04 841.81 569.95 830.12 C 576.16 815.21 584.20 801.16 592.01 787.05 C 601.43 770.74 609.68 753.78 619.75 737.85 C 629.30 720.53 640.75 704.03 647.11 685.14 C 652.64 671.88 652.87 656.90 649.95 642.99 C 646.04 625.10 637.27 608.75 627.68 593.32 C 617.12 576.44 605.30 560.39 595.02 543.34 Z" />
<path fill="#0a0a0a" opacity="1.00" d=" M 69.85 552.99 C 70.01 550.72 70.56 548.52 71.48 546.45 C 70.95 568.70 69.66 590.93 68.41 613.15 C 67.65 624.16 67.16 635.20 65.58 646.14 C 63.35 662.51 59.55 678.64 57.58 695.06 C 55.25 717.61 54.72 740.31 53.79 762.96 C 53.19 788.64 52.84 814.32 52.76 840.01 C 52.47 910.42 54.33 981.05 46.54 1051.15 C 38.58 1111.80 43.79 1173.05 42.17 1233.96 C 41.42 1258.49 39.78 1283.15 34.15 1307.11 C 29.03 1328.79 20.23 1350.41 4.45 1366.58 C 4.36 1364.41 3.79 1362.21 4.23 1360.08 C 4.89 1358.55 6.11 1357.38 7.15 1356.14 C 13.80 1348.66 18.52 1339.71 22.57 1330.61 C 30.68 1311.30 34.33 1290.47 36.60 1269.75 C 37.81 1255.52 39.15 1241.27 38.99 1226.97 C 39.32 1184.30 38.50 1141.63 39.03 1098.97 C 40.05 1084.18 40.58 1069.35 42.54 1054.63 C 44.96 1035.21 46.41 1015.68 47.34 996.15 C 48.35 988.80 47.69 981.37 48.06 973.98 C 49.58 958.36 48.74 942.63 49.08 926.96 C 49.38 912.31 48.36 897.62 49.80 883.01 C 49.95 843.67 49.59 804.31 50.14 764.98 C 51.48 754.01 50.33 742.93 51.66 731.97 C 53.91 672.00 63.21 612.58 69.85 552.99 Z" />
<path fill="#0a0a0a" opacity="1.00" d=" M 59.14 547.45 C 60.83 553.83 60.00 560.50 59.72 567.00 C 58.59 575.32 59.53 583.74 58.34 592.05 C 57.93 603.70 57.13 615.33 56.24 626.97 C 55.16 644.15 51.80 661.06 48.94 678.01 C 48.26 681.54 48.36 685.35 46.39 688.51 C 46.56 667.96 48.44 647.42 49.65 626.90 C 52.80 600.42 55.87 573.91 59.14 547.45 Z" />
<path fill="#f5f5f5" opacity="1.00" d=" M 1130.74 575.36 C 1131.10 573.97 1132.14 572.92 1132.97 571.79 C 1135.93 574.08 1138.46 576.85 1141.14 579.45 C 1146.44 588.32 1149.37 598.31 1153.18 607.87 C 1155.25 612.21 1156.87 616.93 1160.35 620.40 C 1161.30 624.71 1166.25 626.11 1168.66 629.37 C 1169.27 639.21 1168.68 649.11 1168.88 658.97 C 1168.69 662.11 1169.49 665.50 1168.06 668.46 C 1166.35 661.28 1164.11 654.10 1160.27 647.73 C 1159.24 645.87 1157.50 644.31 1157.29 642.09 C 1156.74 641.62 1156.20 641.15 1155.68 640.70 C 1155.59 640.31 1155.41 639.52 1155.32 639.13 C 1154.71 638.63 1154.11 638.14 1153.53 637.66 C 1153.49 637.26 1153.42 636.45 1153.39 636.04 C 1152.75 635.61 1152.14 635.19 1151.55 634.78 C 1151.61 633.28 1150.64 632.35 1149.39 631.73 C 1149.89 629.68 1147.97 628.71 1146.63 627.68 C 1146.47 627.08 1146.34 626.49 1146.22 625.91 C 1145.77 625.61 1144.87 625.03 1144.42 624.74 C 1144.41 624.31 1144.41 623.45 1144.40 623.03 C 1143.75 622.60 1143.12 622.19 1142.51 621.78 C 1142.71 620.26 1141.58 619.47 1140.53 618.67 C 1140.69 617.25 1139.68 616.43 1138.67 615.69 C 1136.64 611.49 1133.67 607.65 1132.24 603.10 C 1128.13 594.49 1128.17 584.42 1130.74 575.36 Z" />
<path fill="#0a0a0a" opacity="1.00" d=" M 634.88 580.98 C 633.95 579.45 633.90 577.66 633.90 575.94 C 643.25 588.34 650.62 602.22 656.53 616.58 C 663.82 635.30 668.50 655.95 664.51 675.97 C 659.99 694.72 651.82 712.30 643.94 729.82 C 638.63 741.13 633.29 752.43 627.63 763.58 C 615.79 786.08 599.62 805.99 588.21 828.74 C 587.73 827.55 587.27 826.28 588.01 825.11 C 592.50 814.23 598.17 803.89 603.31 793.32 C 616.89 767.94 632.18 743.43 644.12 717.19 C 652.90 698.41 658.54 677.81 658.03 656.97 C 658.22 644.64 655.64 632.44 652.30 620.63 C 648.22 606.72 641.59 593.77 634.88 580.98 Z" />
<path fill="#f5f5f5" opacity="1.00" d=" M 1062.81 621.78 C 1065.61 619.05 1067.79 615.63 1071.20 613.56 C 1069.50 618.06 1067.15 622.29 1064.54 626.32 C 1060.34 632.37 1055.05 637.62 1049.23 642.10 C 1035.21 652.62 1018.62 659.11 1001.83 663.73 C 980.36 669.68 958.10 672.19 935.92 673.49 C 913.18 673.98 890.35 674.05 867.74 671.40 C 885.07 668.88 902.64 671.20 920.01 669.26 C 933.41 668.87 946.73 667.04 959.98 665.04 C 982.56 661.03 1005.07 655.55 1025.99 645.94 C 1039.43 639.89 1052.07 631.92 1062.81 621.78 Z" />
<path fill="#0a0a0a" opacity="1.00" d=" M 696.96 694.93 C 703.94 689.45 713.54 690.40 721.62 692.45 C 728.69 694.01 734.63 698.38 740.30 702.68 C 743.37 705.10 746.74 707.27 749.17 710.41 C 746.89 710.53 745.04 708.71 742.85 708.24 C 740.98 707.28 738.97 706.66 737.08 705.79 C 733.81 704.36 730.48 703.10 727.16 701.80 C 717.70 698.31 707.87 695.21 697.68 695.21 C 697.56 695.93 697.33 697.36 697.21 698.08 C 697.15 697.30 697.02 695.72 696.96 694.93 Z" />
<path fill="#0a0a0a" opacity="1.00" d=" M 685.22 745.07 C 687.18 729.23 689.41 712.83 697.20 698.65 C 693.86 734.44 688.16 770.03 680.59 805.17 C 680.32 802.89 680.08 800.59 680.43 798.32 C 682.53 780.62 683.02 762.76 685.22 745.07 Z" />
<path fill="#0a0a0a" opacity="1.00" d=" M 214.51 1074.64 C 215.37 1072.39 216.05 1069.82 218.14 1068.38 C 215.14 1083.31 212.28 1098.63 214.14 1113.91 C 215.13 1122.13 217.65 1130.50 223.16 1136.87 C 228.85 1143.57 237.59 1147.04 246.21 1147.71 C 247.92 1147.88 249.71 1147.68 251.34 1148.38 C 262.83 1155.67 277.39 1147.94 289.40 1153.50 C 292.67 1155.03 293.75 1158.77 293.98 1162.10 C 273.91 1167.70 251.29 1168.57 232.37 1158.71 C 228.66 1156.75 224.85 1154.72 221.90 1151.69 C 225.27 1151.50 227.80 1153.95 230.63 1155.36 C 242.02 1160.81 255.03 1160.83 267.33 1159.50 C 272.98 1158.58 278.78 1158.67 284.34 1157.23 C 275.25 1153.98 265.46 1155.46 256.05 1154.91 C 251.26 1153.60 247.50 1149.91 242.72 1148.52 C 238.11 1147.42 233.16 1149.01 228.66 1147.38 C 221.32 1143.37 216.84 1135.82 213.73 1128.32 C 209.35 1117.46 209.53 1105.52 210.00 1094.02 C 210.50 1087.37 212.40 1080.92 214.51 1074.64 Z" />
<path fill="#f5f5f5" opacity="1.00" d=" M 426.94 1082.59 C 430.20 1081.38 433.65 1082.51 436.99 1082.74 C 444.92 1083.36 452.91 1082.74 460.85 1083.41 C 467.54 1084.24 474.30 1083.81 481.02 1084.14 C 489.61 1085.11 498.29 1085.07 506.86 1086.39 C 521.14 1088.27 535.79 1090.37 548.64 1097.30 C 558.82 1102.18 568.57 1108.57 579.89 1110.44 C 577.74 1110.85 575.61 1111.37 573.52 1112.04 C 559.27 1109.69 545.62 1103.86 534.02 1095.31 C 499.18 1093.64 464.45 1089.91 429.99 1084.55 C 430.96 1084.10 431.94 1083.67 432.93 1083.25 C 430.93 1083.06 428.92 1082.86 426.94 1082.59 Z" />
<path fill="#0a0a0a" opacity="1.00" d=" M 619.55 1088.02 L 619.58 1087.10 C 621.52 1092.43 621.97 1098.22 621.31 1103.85 C 620.04 1113.53 613.88 1122.69 604.96 1126.86 C 597.33 1127.88 589.50 1128.82 581.83 1127.60 C 576.81 1127.32 571.99 1125.75 567.05 1124.96 L 567.62 1124.14 C 571.19 1122.44 575.20 1123.21 579.00 1123.15 C 586.95 1123.37 594.71 1121.04 601.97 1118.00 C 609.65 1114.56 616.99 1108.58 619.32 1100.18 C 620.68 1096.21 619.23 1092.07 619.55 1088.02 Z" />
<path fill="#97d6e7" opacity="1.00" d=" M 251.13 1144.26 C 275.32 1134.00 302.85 1134.17 327.94 1140.94 C 339.62 1144.16 351.06 1148.47 361.58 1154.51 C 363.75 1155.91 366.50 1156.80 368.01 1158.98 C 363.81 1181.45 366.52 1204.32 366.26 1226.99 C 366.15 1232.63 365.70 1238.28 364.67 1243.83 C 362.10 1244.44 359.00 1245.02 356.81 1243.11 C 353.36 1238.92 355.29 1232.84 352.65 1228.35 C 351.23 1226.76 349.37 1225.14 350.38 1222.77 C 352.66 1209.79 352.13 1196.29 348.61 1183.58 C 345.95 1174.33 341.56 1165.19 334.11 1158.84 C 328.70 1154.05 321.03 1151.83 313.93 1153.40 C 307.55 1154.57 302.12 1158.33 297.02 1162.12 C 296.01 1162.15 294.99 1162.08 293.98 1162.10 C 293.75 1158.77 292.67 1155.03 289.40 1153.50 C 277.39 1147.94 262.83 1155.67 251.34 1148.38 C 251.28 1146.99 251.21 1145.61 251.13 1144.26 Z" />
<path fill="#000000" opacity="1.00" d=" M 313.93 1153.40 C 321.03 1151.83 328.70 1154.05 334.11 1158.84 C 341.56 1165.19 345.95 1174.33 348.61 1183.58 C 352.13 1196.29 352.66 1209.79 350.38 1222.77 C 331.72 1231.62 311.26 1235.79 290.88 1238.29 C 261.03 1241.71 230.86 1241.38 200.93 1239.20 C 192.89 1238.66 184.90 1237.49 176.85 1237.05 C 163.93 1280.85 163.20 1327.04 152.15 1371.24 C 147.41 1371.25 142.67 1371.24 137.93 1371.25 C 135.70 1365.66 140.23 1360.83 141.81 1355.81 C 142.88 1353.01 140.59 1350.74 138.20 1349.80 C 138.25 1353.89 137.10 1358.12 133.97 1360.95 C 128.79 1366.17 121.23 1368.40 114.02 1368.50 C 108.05 1368.56 101.67 1366.13 98.62 1360.72 C 101.32 1355.57 107.78 1354.89 112.87 1353.83 C 117.73 1352.83 123.67 1352.10 126.53 1347.49 C 128.13 1343.96 128.99 1339.01 125.93 1336.01 C 121.88 1332.29 115.61 1333.01 111.49 1329.42 C 110.23 1328.25 109.16 1326.44 109.60 1324.70 C 112.57 1320.56 117.84 1318.28 122.87 1319.52 C 131.25 1321.52 137.67 1327.66 144.89 1331.98 C 151.72 1306.46 150.27 1279.64 156.01 1253.92 C 158.69 1242.14 163.38 1229.99 173.18 1222.31 C 199.34 1225.07 225.66 1226.63 251.97 1226.33 C 280.28 1225.36 309.49 1223.44 335.75 1211.87 C 337.52 1203.20 337.33 1193.83 335.45 1185.09 C 333.64 1176.54 328.13 1168.47 319.88 1165.09 C 312.72 1161.76 304.69 1162.20 297.02 1162.12 C 302.12 1158.33 307.55 1154.57 313.93 1153.40 Z" />
<path fill="#97d6e7" opacity="1.00" d=" M 346.41 1279.17 C 350.12 1278.82 353.86 1279.05 357.59 1279.01 C 355.92 1285.51 356.34 1292.36 358.28 1298.77 C 360.56 1307.15 365.29 1315.05 365.04 1323.97 C 365.10 1328.29 363.50 1332.52 360.96 1335.99 C 353.46 1332.42 349.28 1324.58 346.78 1317.03 C 342.96 1304.83 342.43 1291.40 346.41 1279.17 Z" />
</svg>
