<?xml version="1.0" encoding="UTF-8" ?>
<!DOCTYPE svg PUBLIC "-//W3C//DTD SVG 1.1//EN" "http://www.w3.org/Graphics/SVG/1.1/DTD/svg11.dtd">
<svg width="667pt" height="692pt" viewBox="0 0 667 692" version="1.1" xmlns="http://www.w3.org/2000/svg">
<path fill="#ffffff" opacity="1.00" d=" M 0.00 0.00 L 667.00 0.00 L 667.00 692.00 L 0.00 692.00 L 0.00 0.00 M 433.48 17.55 C 402.52 28.18 372.65 43.21 347.69 64.61 C 345.50 66.14 345.19 68.98 344.23 71.28 C 331.52 106.86 317.81 142.15 307.42 178.51 C 295.39 219.77 287.92 262.32 284.98 305.19 C 266.13 293.44 243.36 285.69 221.02 290.06 C 198.62 294.15 180.12 309.85 167.60 328.26 C 149.76 354.56 140.71 386.35 139.80 417.98 C 139.42 433.56 141.88 449.18 147.36 463.78 C 150.61 467.28 153.78 471.06 158.23 473.10 C 164.72 476.23 168.75 483.00 169.91 489.95 C 170.78 494.26 169.62 498.65 170.40 502.98 C 171.26 508.78 168.54 514.21 168.08 519.91 C 166.32 535.72 171.65 551.18 171.51 566.95 C 171.47 569.65 172.18 572.28 172.64 574.93 C 175.05 588.50 176.49 602.29 180.27 615.58 C 182.77 623.87 186.24 632.28 192.67 638.33 C 196.81 642.50 202.26 645.25 207.95 646.58 C 213.27 647.37 219.14 645.86 222.84 641.80 C 229.79 634.23 230.47 622.42 239.17 616.21 C 243.12 619.40 247.08 622.95 252.08 624.35 C 258.12 625.79 264.15 623.58 269.72 621.43 C 269.18 637.22 274.16 652.44 279.86 666.95 C 281.27 666.94 282.68 666.99 284.10 667.11 C 287.85 667.75 290.16 671.59 294.00 672.01 C 298.03 672.58 301.73 674.68 305.87 674.73 C 313.81 675.44 321.30 671.21 326.48 665.47 C 329.50 662.51 331.62 658.71 334.96 656.08 C 336.31 656.78 337.23 658.07 338.33 659.09 C 345.93 655.90 355.09 655.32 362.25 659.94 C 369.50 664.04 371.76 672.88 378.48 677.59 C 384.26 681.83 390.72 685.81 397.91 686.92 C 403.20 687.29 408.10 690.13 413.47 689.40 C 413.45 688.92 413.41 687.96 413.39 687.48 C 418.12 689.00 423.34 688.76 427.99 687.05 C 433.69 684.84 437.81 680.04 443.15 677.19 C 446.75 664.15 447.88 649.80 442.58 637.06 C 436.01 620.91 421.88 609.72 412.74 595.20 C 408.59 588.91 405.94 581.84 402.99 574.96 C 398.04 562.89 393.47 550.64 390.04 538.05 C 385.89 522.47 382.74 506.16 385.01 490.01 C 386.20 480.80 389.79 471.93 395.67 464.71 C 396.42 459.95 396.13 454.80 398.26 450.28 C 400.95 445.07 400.78 438.97 403.34 433.69 C 403.17 433.33 402.82 432.60 402.64 432.23 C 404.73 421.32 405.97 410.18 405.39 399.05 C 404.66 376.98 398.52 355.65 394.22 334.12 C 391.56 320.16 389.75 304.84 396.49 291.71 C 396.70 293.75 396.53 296.23 398.41 297.58 C 401.53 300.13 406.82 300.80 407.39 305.62 C 422.62 307.87 436.25 315.40 449.90 322.04 C 459.04 326.46 468.77 329.62 478.78 331.30 C 492.48 337.69 506.89 342.93 521.94 344.90 C 538.80 347.23 556.46 345.13 571.82 337.60 C 586.07 330.81 598.04 319.96 607.69 307.60 C 620.30 291.43 629.35 272.78 636.40 253.61 C 643.77 233.38 648.95 212.39 652.56 191.18 C 654.82 176.56 657.48 161.86 657.00 147.01 C 656.91 123.39 657.18 99.75 656.87 76.13 C 650.47 62.99 641.88 50.87 631.35 40.71 C 618.97 28.62 603.89 19.44 587.76 13.26 C 565.61 4.79 541.68 1.71 518.06 2.24 C 489.28 2.71 460.73 8.44 433.48 17.55 M 0.71 465.24 C 0.32 466.65 0.83 467.05 2.25 466.44 C 2.61 465.06 2.10 464.66 0.71 465.24 Z" />
<path fill="#000000" opacity="1.00" d=" M 433.48 17.55 C 460.73 8.44 489.28 2.71 518.06 2.24 C 541.68 1.71 565.61 4.79 587.76 13.26 C 603.89 19.44 618.97 28.62 631.35 40.71 C 641.88 50.87 650.47 62.99 656.87 76.13 C 657.18 99.75 656.91 123.39 657.00 147.01 C 657.48 161.86 654.82 176.56 652.56 191.18 C 648.95 212.39 643.77 233.38 636.40 253.61 C 629.35 272.78 620.30 291.43 607.69 307.60 C 598.04 319.96 586.07 330.81 571.82 337.60 C 556.46 345.13 538.80 347.23 521.94 344.90 C 506.89 342.93 492.48 337.69 478.78 331.30 C 468.77 329.62 459.04 326.46 449.90 322.04 C 436.25 315.40 422.62 307.87 407.39 305.62 C 406.82 300.80 401.53 300.13 398.41 297.58 C 396.53 296.23 396.70 293.75 396.49 291.71 C 389.75 304.84 391.56 320.16 394.22 334.12 C 398.52 355.65 404.66 376.98 405.39 399.05 C 405.97 410.18 404.73 421.32 402.64 432.23 C 402.82 432.60 403.17 433.33 403.34 433.69 C 400.78 438.97 400.95 445.07 398.26 450.28 C 396.13 454.80 396.42 459.95 395.67 464.71 C 389.79 471.93 386.20 480.80 385.01 490.01 C 382.74 506.16 385.89 522.47 390.04 538.05 C 393.47 550.64 398.04 562.89 402.99 574.96 C 405.94 581.84 408.59 588.91 412.74 595.20 C 421.88 609.72 436.01 620.91 442.58 637.06 C 447.88 649.80 446.75 664.15 443.15 677.19 C 437.81 680.04 433.69 684.84 427.99 687.05 C 423.34 688.76 418.12 689.00 413.39 687.48 C 413.41 687.96 413.45 688.92 413.47 689.40 C 408.10 690.13 403.20 687.29 397.91 686.92 C 390.72 685.81 384.26 681.83 378.48 677.59 C 371.76 672.88 369.50 664.04 362.25 659.94 C 355.09 655.32 345.93 655.90 338.33 659.09 C 337.23 658.07 336.31 656.78 334.96 656.08 C 331.62 658.71 329.50 662.51 326.48 665.47 C 321.30 671.21 313.81 675.44 305.87 674.73 C 301.73 674.68 298.03 672.58 294.00 672.01 C 290.16 671.59 287.85 667.75 284.10 667.11 C 282.68 666.99 281.27 666.94 279.86 666.95 C 274.16 652.44 269.18 637.22 269.72 621.43 C 264.15 623.58 258.12 625.79 252.08 624.35 C 247.08 622.95 243.12 619.40 239.17 616.21 C 230.47 622.42 229.79 634.23 222.84 641.80 C 219.14 645.86 213.27 647.37 207.95 646.58 C 202.26 645.25 196.81 642.50 192.67 638.33 C 186.24 632.28 182.77 623.87 180.27 615.58 C 176.49 602.29 175.05 588.50 172.64 574.93 C 172.18 572.28 171.47 569.65 171.51 566.95 C 171.65 551.18 166.32 535.72 168.08 519.91 C 168.54 514.21 171.26 508.78 170.40 502.98 C 169.62 498.65 170.78 494.26 169.91 489.95 C 168.75 483.00 164.72 476.23 158.23 473.10 C 153.78 471.06 150.61 467.28 147.36 463.78 C 141.88 449.18 139.42 433.56 139.80 417.98 C 140.71 386.35 149.76 354.56 167.60 328.26 C 180.12 309.85 198.62 294.15 221.02 290.06 C 243.36 285.69 266.13 293.44 284.98 305.19 C 287.92 262.32 295.39 219.77 307.42 178.51 C 317.81 142.15 331.52 106.86 344.23 71.28 C 345.19 68.98 345.50 66.14 347.69 64.61 C 372.65 43.21 402.52 28.18 433.48 17.55 M 468.49 25.62 C 450.72 30.82 434.13 40.99 422.89 55.88 C 440.72 62.00 454.88 76.14 463.24 92.79 C 475.49 117.02 478.35 145.19 474.86 171.88 C 471.45 196.34 462.33 220.89 444.84 238.81 C 432.62 251.48 415.52 259.27 397.90 259.82 C 398.38 260.68 398.87 261.54 399.56 262.27 C 413.37 277.93 430.86 290.00 449.49 299.25 C 486.65 317.24 528.89 324.85 569.98 320.62 C 593.74 288.51 612.93 252.66 624.14 214.20 C 636.20 173.36 639.27 130.28 636.41 87.93 C 636.17 85.44 634.83 83.25 633.78 81.04 C 626.03 66.19 613.15 54.72 599.14 45.89 C 580.52 34.33 559.54 26.81 538.01 22.97 C 515.03 18.91 490.99 18.98 468.49 25.62 M 371.36 80.68 C 367.68 82.30 363.79 84.08 361.25 87.31 C 352.93 100.59 350.08 116.59 350.26 132.07 C 351.08 157.11 358.78 182.10 373.04 202.78 C 380.34 213.04 389.76 222.75 402.10 226.57 C 410.64 229.36 420.28 227.57 427.60 222.48 C 436.73 216.31 443.49 207.02 448.36 197.30 C 450.97 192.92 451.73 187.77 452.66 182.85 C 454.69 169.30 454.76 155.48 453.21 141.88 C 452.28 135.38 451.37 128.64 448.16 122.81 C 447.83 116.73 447.20 110.58 444.90 104.89 C 441.05 94.38 432.73 86.46 427.71 76.60 C 421.81 76.37 415.92 76.14 410.02 76.25 C 397.06 76.16 383.66 76.04 371.36 80.68 M 316.76 201.18 C 313.65 230.41 318.65 259.81 315.95 289.06 C 314.91 299.13 312.89 309.49 307.15 318.03 C 302.20 325.41 293.77 330.29 284.93 330.99 C 267.45 328.85 254.45 315.03 237.48 311.30 C 230.16 309.52 222.52 309.51 215.09 310.54 C 213.85 310.51 213.14 311.56 212.37 312.35 C 195.54 330.37 179.95 349.97 169.23 372.30 C 163.13 385.32 158.66 399.53 159.30 414.05 C 159.84 426.39 164.78 438.47 173.04 447.66 C 180.88 423.68 192.81 400.69 209.80 381.91 C 217.22 374.02 226.02 366.80 236.61 363.78 C 244.39 361.59 252.82 362.73 259.98 366.39 C 256.74 368.41 253.28 370.06 250.09 372.16 C 232.29 383.42 218.23 400.00 208.57 418.61 C 195.59 443.34 189.53 471.22 188.07 498.98 C 186.11 540.86 194.30 583.63 213.85 620.89 C 220.96 612.51 225.85 602.04 226.47 590.98 C 227.55 573.63 220.80 557.25 217.22 540.57 C 213.58 525.21 213.01 508.65 218.79 493.73 C 232.42 489.75 246.33 494.32 259.67 497.22 C 266.36 498.81 273.91 498.81 279.60 494.42 C 277.13 493.32 274.40 492.69 272.27 490.95 C 266.48 486.47 263.39 479.54 261.10 472.79 C 256.77 459.31 255.66 445.04 255.49 430.96 C 255.75 419.90 256.35 408.70 259.46 398.03 C 260.50 394.97 261.56 391.54 264.39 389.67 C 266.23 388.40 268.51 389.86 269.69 391.35 C 272.23 394.67 273.81 398.59 275.20 402.50 C 276.44 417.04 273.69 431.52 274.06 446.05 C 274.50 451.99 274.95 458.99 279.83 463.13 C 288.17 470.99 293.33 481.88 295.39 493.07 C 298.50 510.70 295.27 528.60 292.00 545.96 C 288.11 566.76 283.02 587.87 285.36 609.17 C 286.92 624.79 293.85 639.84 305.00 650.94 C 301.53 630.51 302.37 609.62 304.70 589.11 C 307.02 570.87 310.60 552.63 317.49 535.52 C 320.81 527.73 324.74 519.92 330.92 513.99 C 337.97 518.00 344.07 523.61 348.82 530.17 C 358.22 543.22 363.12 558.78 367.42 574.10 C 373.60 596.04 377.70 619.01 388.95 639.11 C 396.12 652.12 408.00 662.87 422.52 666.80 C 424.52 656.81 424.60 645.74 419.14 636.78 C 412.34 625.12 399.03 619.39 391.74 608.13 C 389.22 604.48 387.66 600.26 386.86 595.92 C 383.26 575.71 379.15 555.54 372.89 535.97 C 367.60 519.45 360.80 503.26 351.12 488.80 C 363.95 478.83 373.17 464.58 377.41 448.93 C 384.17 424.46 381.82 398.70 378.73 373.85 C 375.10 344.93 369.07 316.19 369.01 286.94 C 369.33 270.47 371.86 253.17 381.60 239.42 C 368.70 237.17 358.45 227.45 352.77 216.03 C 344.49 200.55 340.93 182.82 330.92 168.22 C 321.42 176.39 318.17 189.22 316.76 201.18 M 233.97 514.08 C 239.77 534.52 240.47 556.02 246.41 576.43 C 249.11 585.43 252.95 594.49 259.81 601.14 C 259.27 593.80 259.23 586.37 260.56 579.12 C 263.98 558.15 278.10 540.54 280.23 519.22 C 275.83 519.95 271.32 520.35 266.89 519.72 C 260.07 518.88 253.86 515.62 247.13 514.38 C 242.80 513.45 238.34 513.63 233.97 514.08 M 331.20 555.33 C 331.99 561.21 332.38 567.20 331.51 573.11 C 330.40 582.05 326.60 590.30 323.81 598.77 C 321.44 605.89 320.41 613.42 320.79 620.91 C 325.52 621.32 330.33 622.11 334.54 624.44 C 344.93 629.87 350.72 641.10 361.22 646.38 C 361.28 629.15 359.46 611.80 354.81 595.18 C 350.60 580.14 342.99 565.78 331.20 555.33 Z" />
<path fill="#ffffff" opacity="1.00" d=" M 468.49 25.62 C 490.99 18.98 515.03 18.91 538.01 22.97 C 559.54 26.81 580.52 34.33 599.14 45.89 C 613.15 54.72 626.03 66.19 633.78 81.04 C 634.83 83.25 636.17 85.44 636.41 87.93 C 639.27 130.28 636.20 173.36 624.14 214.20 C 612.93 252.66 593.74 288.51 569.98 320.62 C 528.89 324.85 486.65 317.24 449.49 299.25 C 430.86 290.00 413.37 277.93 399.56 262.27 C 398.87 261.54 398.38 260.68 397.90 259.82 C 415.52 259.27 432.62 251.48 444.84 238.81 C 462.33 220.89 471.45 196.34 474.86 171.88 C 478.35 145.19 475.49 117.02 463.24 92.79 C 454.88 76.14 440.72 62.00 422.89 55.88 C 434.13 40.99 450.72 30.82 468.49 25.62 M 521.96 67.38 C 510.86 70.31 500.18 74.86 488.73 76.36 C 488.33 81.23 488.65 86.12 488.28 90.99 C 488.24 109.20 487.32 127.71 491.69 145.56 C 493.82 153.97 497.49 162.32 504.05 168.22 C 520.71 170.09 538.39 165.38 550.69 153.69 C 563.83 141.69 571.05 123.71 570.52 105.99 C 570.37 92.80 565.77 79.76 557.76 69.30 C 556.66 68.10 555.92 66.16 554.14 65.91 C 543.46 64.10 532.41 64.55 521.96 67.38 M 488.83 193.13 C 487.47 219.68 497.44 244.74 503.94 270.00 C 520.99 270.01 538.04 269.98 555.09 270.01 C 562.98 262.96 568.93 253.53 570.86 243.04 C 576.21 215.90 556.48 186.30 529.12 181.45 C 514.72 178.63 499.99 184.14 488.83 193.13 Z" />
<path fill="#000000" opacity="1.00" d=" M 521.96 67.38 C 532.41 64.55 543.46 64.10 554.14 65.91 C 555.92 66.16 556.66 68.10 557.76 69.30 C 565.77 79.76 570.37 92.80 570.52 105.99 C 571.05 123.71 563.83 141.69 550.69 153.69 C 538.39 165.38 520.71 170.09 504.05 168.22 C 497.49 162.32 493.82 153.97 491.69 145.56 C 487.32 127.71 488.24 109.20 488.28 90.99 C 488.65 86.12 488.33 81.23 488.73 76.36 C 500.18 74.86 510.86 70.31 521.96 67.38 M 510.88 96.76 C 507.79 101.76 509.15 109.00 514.30 112.08 C 514.68 109.53 516.38 107.05 519.04 106.54 C 523.75 105.54 528.59 107.83 532.07 110.90 C 536.68 114.86 534.51 122.86 529.46 125.42 C 522.77 128.72 514.45 126.76 508.95 122.04 C 510.11 128.47 511.89 135.51 517.23 139.78 C 521.01 142.82 526.40 142.35 530.55 140.35 C 542.93 133.57 550.67 119.10 550.12 105.08 C 549.72 97.69 545.86 90.46 539.63 86.39 C 529.26 83.32 516.51 87.21 510.88 96.76 Z" />
<path fill="#ffffff" opacity="1.00" d=" M 371.36 80.68 C 383.66 76.04 397.06 76.16 410.02 76.25 C 415.92 76.14 421.81 76.37 427.71 76.60 C 432.73 86.46 441.05 94.38 444.90 104.89 C 447.20 110.58 447.83 116.73 448.16 122.81 C 448.44 147.64 448.04 172.47 448.36 197.30 C 443.49 207.02 436.73 216.31 427.60 222.48 C 420.28 227.57 410.64 229.36 402.10 226.57 C 389.76 222.75 380.34 213.04 373.04 202.78 C 358.78 182.10 351.08 157.11 350.26 132.07 C 350.08 116.59 352.93 100.59 361.25 87.31 C 363.79 84.08 367.68 82.30 371.36 80.68 M 376.62 132.24 C 383.64 148.81 387.81 166.56 396.51 182.41 C 401.35 191.08 408.08 199.09 417.10 203.59 C 420.96 204.20 425.12 203.59 428.40 201.37 C 432.96 198.24 435.34 193.04 438.04 188.41 C 427.53 178.95 424.37 164.62 418.23 152.43 C 414.83 145.12 409.78 138.17 402.42 134.48 C 394.44 130.57 385.18 130.76 376.62 132.24 Z" />
<path fill="#ffffff" opacity="1.00" d=" M 510.88 96.76 C 516.51 87.21 529.26 83.32 539.63 86.39 C 545.86 90.46 549.72 97.69 550.12 105.08 C 550.67 119.10 542.93 133.57 530.55 140.35 C 526.40 142.35 521.01 142.82 517.23 139.78 C 511.89 135.51 510.11 128.47 508.95 122.04 C 514.45 126.76 522.77 128.72 529.46 125.42 C 534.51 122.86 536.68 114.86 532.07 110.90 C 528.59 107.83 523.75 105.54 519.04 106.54 C 516.38 107.05 514.68 109.53 514.30 112.08 C 509.15 109.00 507.79 101.76 510.88 96.76 Z" />
<path fill="#b76e2a" opacity="1.00" d=" M 448.16 122.81 C 451.37 128.64 452.28 135.38 453.21 141.88 C 454.76 155.48 454.69 169.30 452.66 182.85 C 451.73 187.77 450.97 192.92 448.36 197.30 C 448.04 172.47 448.44 147.64 448.16 122.81 Z" />
<path fill="#000000" opacity="1.00" d=" M 376.62 132.24 C 385.18 130.76 394.44 130.57 402.42 134.48 C 409.78 138.17 414.83 145.12 418.23 152.43 C 424.37 164.62 427.53 178.95 438.04 188.41 C 435.34 193.04 432.96 198.24 428.40 201.37 C 425.12 203.59 420.96 204.20 417.10 203.59 C 408.08 199.09 401.35 191.08 396.51 182.41 C 387.81 166.56 383.64 148.81 376.62 132.24 Z" />
<path fill="#ffffff" opacity="1.00" d=" M 316.76 201.18 C 318.17 189.22 321.42 176.39 330.92 168.22 C 340.93 182.82 344.49 200.55 352.77 216.03 C 358.45 227.45 368.70 237.17 381.60 239.42 C 371.86 253.17 369.33 270.47 369.01 286.94 C 369.07 316.19 375.10 344.93 378.73 373.85 C 381.82 398.70 384.17 424.46 377.41 448.93 C 373.17 464.58 363.95 478.83 351.12 488.80 C 360.80 503.26 367.60 519.45 372.89 535.97 C 379.15 555.54 383.26 575.71 386.86 595.92 C 387.66 600.26 389.22 604.48 391.74 608.13 C 399.03 619.39 412.34 625.12 419.14 636.78 C 424.60 645.74 424.52 656.81 422.52 666.80 C 408.00 662.87 396.12 652.12 388.95 639.11 C 377.70 619.01 373.60 596.04 367.42 574.10 C 363.12 558.78 358.22 543.22 348.82 530.17 C 344.07 523.61 337.97 518.00 330.92 513.99 C 324.74 519.92 320.81 527.73 317.49 535.52 C 310.60 552.63 307.02 570.87 304.70 589.11 C 302.37 609.62 301.53 630.51 305.00 650.94 C 293.85 639.84 286.92 624.79 285.36 609.17 C 283.02 587.87 288.11 566.76 292.00 545.96 C 295.27 528.60 298.50 510.70 295.39 493.07 C 293.33 481.88 288.17 470.99 279.83 463.13 C 278.59 449.06 281.05 435.06 280.99 421.01 C 280.69 414.56 280.32 407.16 275.20 402.50 C 273.81 398.59 272.23 394.67 269.69 391.35 C 268.51 389.86 266.23 388.40 264.39 389.67 C 261.56 391.54 260.50 394.97 259.46 398.03 C 256.35 408.70 255.75 419.90 255.49 430.96 C 255.66 445.04 256.77 459.31 261.10 472.79 C 263.39 479.54 266.48 486.47 272.27 490.95 C 274.40 492.69 277.13 493.32 279.60 494.42 C 273.91 498.81 266.36 498.81 259.67 497.22 C 246.33 494.32 232.42 489.75 218.79 493.73 C 213.01 508.65 213.58 525.21 217.22 540.57 C 220.80 557.25 227.55 573.63 226.47 590.98 C 225.85 602.04 220.96 612.51 213.85 620.89 C 194.30 583.63 186.11 540.86 188.07 498.98 C 189.53 471.22 195.59 443.34 208.57 418.61 C 218.23 400.00 232.29 383.42 250.09 372.16 C 253.28 370.06 256.74 368.41 259.98 366.39 C 252.82 362.73 244.39 361.59 236.61 363.78 C 226.02 366.80 217.22 374.02 209.80 381.91 C 192.81 400.69 180.88 423.68 173.04 447.66 C 164.78 438.47 159.84 426.39 159.30 414.05 C 158.66 399.53 163.13 385.32 169.23 372.30 C 179.95 349.97 195.54 330.37 212.37 312.35 C 213.14 311.56 213.85 310.51 215.09 310.54 C 222.52 309.51 230.16 309.52 237.48 311.30 C 254.45 315.03 267.45 328.85 284.93 330.99 C 293.77 330.29 302.20 325.41 307.15 318.03 C 312.89 309.49 314.91 299.13 315.95 289.06 C 318.65 259.81 313.65 230.41 316.76 201.18 M 290.08 335.80 C 286.79 340.60 284.86 346.72 286.69 352.46 C 289.51 361.45 297.58 367.71 305.89 371.42 C 315.35 375.54 326.90 377.22 336.25 371.93 C 334.64 366.21 331.37 361.00 327.02 356.97 C 316.36 347.28 302.07 343.43 290.08 335.80 Z" />
<path fill="#000000" opacity="1.00" d=" M 488.83 193.13 C 499.99 184.14 514.72 178.63 529.12 181.45 C 556.48 186.30 576.21 215.90 570.86 243.04 C 568.93 253.53 562.98 262.96 555.09 270.01 C 538.04 269.98 520.99 270.01 503.94 270.00 C 497.44 244.74 487.47 219.68 488.83 193.13 M 511.90 206.93 C 509.92 211.85 511.40 217.29 513.13 222.06 C 513.61 222.96 513.74 224.72 515.11 224.53 C 513.17 223.00 513.51 220.21 513.55 218.02 C 513.66 215.29 516.62 213.91 519.01 213.79 C 524.18 213.53 529.35 214.14 534.53 214.13 C 534.12 219.61 536.47 224.78 539.49 229.20 C 532.60 236.80 520.92 236.79 513.96 244.32 C 519.21 248.27 525.29 251.87 532.05 252.02 C 538.61 251.86 544.60 248.46 549.73 244.63 C 552.26 239.61 552.83 233.68 552.36 228.12 C 551.03 213.87 538.18 202.10 524.09 201.01 C 519.39 200.58 514.00 202.40 511.90 206.93 Z" />
<path fill="#ffffff" opacity="1.00" d=" M 511.90 206.93 C 514.00 202.40 519.39 200.58 524.09 201.01 C 538.18 202.10 551.03 213.87 552.36 228.12 C 552.83 233.68 552.26 239.61 549.73 244.63 C 544.60 248.46 538.61 251.86 532.05 252.02 C 525.29 251.87 519.21 248.27 513.96 244.32 C 520.92 236.79 532.60 236.80 539.49 229.20 C 536.47 224.78 534.12 219.61 534.53 214.13 C 529.35 214.14 524.18 213.53 519.01 213.79 C 516.62 213.91 513.66 215.29 513.55 218.02 C 513.51 220.21 513.17 223.00 515.11 224.53 C 513.74 224.72 513.61 222.96 513.13 222.06 C 511.40 217.29 509.92 211.85 511.90 206.93 Z" />
<path fill="#000000" opacity="1.00" d=" M 290.08 335.80 C 302.07 343.43 316.36 347.28 327.02 356.97 C 331.37 361.00 334.64 366.21 336.25 371.93 C 326.90 377.22 315.35 375.54 305.89 371.42 C 297.58 367.71 289.51 361.45 286.69 352.46 C 284.86 346.72 286.79 340.60 290.08 335.80 Z" />
<path fill="#a19e9c" opacity="1.00" d=" M 275.20 402.50 C 280.32 407.16 280.69 414.56 280.99 421.01 C 281.05 435.06 278.59 449.06 279.83 463.13 C 274.95 458.99 274.50 451.99 274.06 446.05 C 273.69 431.52 276.44 417.04 275.20 402.50 Z" />
<path fill="#000000" opacity="1.00" d=" M 0.71 465.24 C 2.10 464.66 2.61 465.06 2.25 466.44 C 0.83 467.05 0.32 466.65 0.71 465.24 Z" />
<path fill="#ffffff" opacity="1.00" d=" M 233.97 514.08 C 238.34 513.63 242.80 513.45 247.13 514.38 C 253.86 515.62 260.07 518.88 266.89 519.72 C 271.32 520.35 275.83 519.95 280.23 519.22 C 278.10 540.54 263.98 558.15 260.56 579.12 C 259.23 586.37 259.27 593.80 259.81 601.14 C 252.95 594.49 249.11 585.43 246.41 576.43 C 240.47 556.02 239.77 534.52 233.97 514.08 Z" />
<path fill="#ffffff" opacity="1.00" d=" M 331.20 555.33 C 342.99 565.78 350.60 580.14 354.81 595.18 C 359.46 611.80 361.28 629.15 361.22 646.38 C 350.72 641.10 344.93 629.87 334.54 624.44 C 330.33 622.11 325.52 621.32 320.79 620.91 C 320.41 613.42 321.44 605.89 323.81 598.77 C 326.60 590.30 330.40 582.05 331.51 573.11 C 332.38 567.20 331.99 561.21 331.20 555.33 Z" />
</svg>
