<?xml version="1.0" encoding="UTF-8" ?>
<!DOCTYPE svg PUBLIC "-//W3C//DTD SVG 1.1//EN" "http://www.w3.org/Graphics/SVG/1.1/DTD/svg11.dtd">
<svg width="782pt" height="638pt" viewBox="0 0 782 638" version="1.1" xmlns="http://www.w3.org/2000/svg">
<g id="#ffffffff">
<path fill="#ffffff" opacity="1.00" d=" M 0.00 0.00 L 782.00 0.00 L 782.00 638.00 L 0.00 638.00 L 0.00 0.00 M 139.13 26.07 C 136.74 28.07 133.88 29.99 132.83 33.06 C 130.93 37.83 131.02 43.66 134.23 47.86 C 136.03 50.12 137.68 53.44 141.03 53.31 C 145.46 53.46 150.42 54.05 154.16 51.14 C 156.61 48.73 158.69 45.51 158.37 41.92 C 158.56 37.06 158.45 30.97 153.83 28.06 C 149.81 24.57 143.97 25.48 139.13 26.07 M 234.42 26.36 C 230.46 29.95 228.28 35.68 228.70 41.02 C 229.81 45.60 231.31 51.25 236.49 52.62 C 241.27 53.92 246.71 53.88 251.41 52.17 C 251.32 50.63 251.23 49.08 251.14 47.54 C 247.33 49.92 242.80 50.20 238.45 49.48 C 235.27 47.10 233.60 43.29 234.29 39.33 C 239.95 39.24 245.61 39.52 251.26 39.21 C 251.23 36.97 251.90 34.43 250.38 32.52 C 249.14 30.72 248.97 28.10 246.83 27.04 C 243.17 24.87 238.35 25.27 234.42 26.36 M 451.07 72.16 C 446.14 73.22 441.11 74.50 436.95 77.49 C 430.52 81.00 423.83 84.59 416.55 85.85 C 412.64 83.95 408.00 85.29 404.00 86.38 C 390.12 91.06 378.09 99.75 366.40 108.34 C 361.91 111.73 357.46 115.23 353.77 119.50 C 350.33 124.40 347.78 130.15 342.90 133.87 C 337.29 138.13 330.26 139.66 323.96 142.59 C 318.72 144.99 310.96 146.53 310.58 153.63 C 306.05 155.89 302.84 160.26 301.67 165.15 C 299.80 172.98 299.54 181.06 298.92 189.05 C 298.55 194.02 297.41 198.94 297.77 203.94 C 298.19 210.59 298.46 217.89 294.65 223.70 C 287.91 235.89 281.15 248.53 279.39 262.52 C 275.96 268.26 271.50 273.35 267.73 278.88 C 268.08 282.66 267.29 286.54 268.41 290.24 C 269.33 294.37 271.87 297.88 272.95 301.95 C 272.18 309.34 269.54 316.54 269.97 324.07 C 269.61 328.01 270.96 332.38 274.60 334.40 C 270.26 342.78 267.04 351.67 263.60 360.45 C 260.94 367.23 258.30 374.03 256.03 380.95 C 255.06 383.73 258.35 385.47 258.75 388.02 C 257.27 399.39 252.05 409.97 251.23 421.45 C 250.85 424.72 250.02 427.91 249.13 431.08 C 247.35 438.01 248.65 445.16 249.39 452.13 C 249.86 456.14 251.44 459.91 253.50 463.36 C 257.10 475.65 259.78 488.31 265.01 500.06 C 263.93 510.02 261.33 519.93 261.77 530.03 C 262.07 531.60 261.07 532.79 260.30 534.02 C 259.85 536.43 260.89 538.75 261.59 541.01 C 264.26 548.49 266.44 556.28 270.66 563.09 C 271.59 564.18 271.58 565.27 270.63 566.35 C 271.94 569.63 271.97 573.37 273.43 576.66 C 276.24 583.67 280.15 590.29 285.13 596.00 C 291.25 604.51 293.73 615.30 300.84 623.15 C 302.36 625.13 304.90 624.99 307.03 624.25 C 307.43 622.27 307.88 620.11 306.80 618.26 C 304.34 613.55 299.53 610.59 297.07 605.87 C 295.27 601.50 295.64 596.60 294.02 592.19 C 291.18 587.13 286.70 582.18 287.26 575.99 C 288.12 569.62 284.29 562.96 278.27 560.60 C 278.42 554.69 277.89 548.71 276.11 543.07 C 274.52 540.02 271.98 537.49 269.16 535.56 C 270.30 522.72 270.54 509.82 270.96 496.95 C 271.19 494.35 269.95 492.08 268.68 489.95 C 268.04 485.97 267.03 482.00 267.03 477.96 C 267.78 473.39 269.20 468.77 268.24 464.11 C 266.63 460.80 262.97 459.54 259.53 459.34 C 257.86 455.24 255.47 451.39 254.69 446.98 C 253.54 441.96 255.05 436.93 255.92 432.00 C 258.99 416.17 262.87 400.52 266.33 384.77 C 265.09 382.89 262.36 381.02 263.59 378.47 C 268.22 363.81 274.40 349.71 279.75 335.32 C 284.14 335.15 288.67 335.61 292.91 334.17 C 294.13 333.11 294.03 331.35 294.27 329.91 C 289.26 328.42 283.96 329.35 278.91 328.32 C 277.15 328.16 276.33 326.63 275.77 325.18 C 279.73 315.64 285.40 306.94 289.73 297.59 C 285.86 294.23 277.48 295.89 277.42 288.91 C 282.76 287.63 284.53 281.57 285.97 276.96 C 287.45 269.54 288.61 262.02 289.16 254.47 C 296.86 250.36 303.75 244.87 311.10 240.17 C 316.01 236.64 321.48 233.88 326.06 229.89 C 326.18 227.78 325.78 225.72 324.10 224.29 C 320.21 224.38 317.50 227.31 314.23 228.98 C 315.32 227.51 316.61 226.18 317.49 224.57 C 317.85 223.17 317.64 221.58 318.61 220.42 C 316.43 220.14 314.03 218.14 311.91 219.77 C 308.94 223.49 306.03 227.26 303.13 231.02 C 301.76 233.00 299.16 233.30 297.03 233.95 C 299.14 228.38 302.03 223.04 302.81 217.05 C 304.57 208.48 302.85 199.65 304.70 191.10 C 307.35 177.71 314.58 165.68 323.19 155.28 C 326.17 155.00 329.06 154.12 331.17 151.91 C 337.18 148.40 343.85 145.82 349.08 141.06 C 353.20 137.41 355.89 132.54 359.22 128.23 C 364.42 122.29 371.22 118.13 377.58 113.57 C 388.85 106.16 400.03 98.56 411.61 91.66 C 416.42 91.12 421.38 92.13 426.07 90.51 C 432.64 88.74 436.47 82.12 443.03 80.39 C 452.41 77.32 462.29 76.56 471.97 75.01 C 488.27 73.87 504.61 73.28 520.96 73.51 C 530.96 73.10 540.96 73.28 550.97 73.25 C 555.83 73.46 560.83 73.66 565.43 75.40 C 567.36 76.75 568.64 78.85 570.46 80.36 C 574.03 83.48 576.51 88.12 581.22 89.72 C 584.87 91.19 588.97 90.90 592.60 92.44 C 597.17 94.58 600.63 98.35 604.44 101.55 C 606.74 103.55 610.19 104.44 611.37 107.51 C 613.56 106.73 615.73 108.57 617.99 108.57 C 622.62 109.30 628.96 110.34 630.58 115.47 C 635.89 120.23 642.29 123.65 647.53 128.49 C 649.71 131.73 651.45 135.26 653.19 138.76 C 654.59 141.47 655.04 144.64 657.03 147.04 C 663.60 155.43 671.90 162.26 678.64 170.51 C 687.88 181.17 689.79 195.69 695.57 208.16 C 699.88 217.15 704.32 226.19 710.34 234.19 C 710.36 234.75 710.40 235.88 710.42 236.44 C 714.89 245.88 721.14 254.67 723.51 264.98 C 723.65 275.66 726.76 285.97 730.17 296.00 C 728.85 301.23 728.19 306.62 728.24 312.01 C 728.26 322.68 728.24 333.35 728.25 344.02 C 728.27 347.33 728.89 350.99 726.99 353.93 C 724.92 356.79 721.20 357.23 718.06 358.14 C 721.93 338.20 718.11 317.27 708.76 299.39 C 701.65 292.39 693.49 286.12 683.93 282.94 C 677.68 280.69 670.92 280.55 664.36 280.86 C 662.37 276.83 657.04 276.45 653.17 277.25 C 648.11 279.18 647.05 285.20 645.23 289.69 C 639.36 293.57 634.55 298.75 629.81 303.89 C 628.64 305.09 628.13 306.71 627.48 308.21 C 628.32 310.14 630.27 310.55 632.17 310.60 C 637.32 304.40 642.76 297.91 650.38 294.72 C 664.58 287.84 681.76 290.85 694.76 299.02 C 698.06 301.37 702.50 303.03 704.06 307.07 C 711.56 328.87 709.94 352.97 702.44 374.54 C 697.94 387.70 691.36 400.05 684.08 411.84 C 684.78 429.95 686.28 448.83 680.09 466.22 C 675.69 472.44 669.05 476.96 661.96 479.63 C 650.73 483.84 638.43 482.43 626.95 480.18 C 624.45 479.54 623.71 481.95 624.02 483.91 C 633.67 487.30 643.70 491.22 654.14 489.81 C 657.20 489.46 659.78 487.17 662.95 487.50 C 670.23 487.97 676.87 483.56 680.96 477.81 C 686.61 477.86 689.14 471.49 691.12 467.09 C 696.64 449.54 693.44 430.80 690.29 413.11 C 701.94 399.37 710.89 383.35 716.29 366.16 C 718.48 372.69 722.11 378.87 722.16 385.97 C 722.69 402.50 717.71 418.55 716.52 434.96 C 716.25 438.02 716.42 441.16 715.46 444.13 C 716.68 449.46 718.66 454.60 719.73 459.96 C 718.59 466.81 716.10 473.33 714.07 479.95 C 707.44 499.13 701.57 518.81 691.29 536.45 C 686.54 545.48 681.05 554.49 672.96 560.93 C 665.44 566.24 657.39 570.72 649.59 575.57 C 645.66 578.42 640.79 581.70 640.64 587.09 C 640.54 591.36 639.97 595.79 641.14 599.96 C 641.73 601.70 643.89 604.31 645.75 602.41 C 654.45 594.20 663.21 586.06 671.87 577.80 C 675.62 573.93 679.80 570.44 683.03 566.09 C 685.75 562.67 690.18 561.30 693.12 558.14 C 695.28 555.19 695.14 551.23 696.96 548.11 C 701.30 541.04 705.21 533.72 709.29 526.49 C 714.41 516.42 715.39 504.98 718.30 494.20 C 719.56 487.80 723.07 482.20 725.16 476.09 C 726.60 471.86 725.44 467.28 726.74 463.03 C 727.44 460.29 729.45 458.20 730.83 455.81 C 733.09 451.92 733.55 446.89 731.19 442.93 C 729.12 439.30 730.01 435.05 729.62 431.09 C 731.49 426.93 733.26 422.65 733.85 418.09 C 734.44 410.40 734.20 402.69 734.25 395.00 C 734.19 389.48 734.50 383.94 733.74 378.46 C 732.80 372.04 731.75 365.59 731.74 359.08 C 731.63 356.21 733.81 353.93 733.97 351.11 C 734.54 344.75 734.12 338.34 734.24 331.96 C 733.98 322.62 735.97 313.42 736.38 304.11 C 736.43 300.36 737.37 296.46 735.98 292.84 C 733.23 292.87 734.21 289.71 734.18 287.98 C 734.01 278.41 736.07 268.16 731.79 259.17 C 727.70 252.54 723.86 245.75 719.38 239.36 C 722.57 237.44 723.16 232.89 720.87 230.05 C 708.73 211.34 694.68 193.05 688.87 171.15 C 687.18 167.70 684.61 164.77 682.16 161.86 C 676.07 154.89 669.74 148.08 662.53 142.24 C 659.06 139.51 657.72 135.10 655.42 131.49 C 650.98 123.71 646.31 114.85 637.47 111.43 C 629.26 102.70 620.67 94.21 612.91 85.05 C 604.39 80.16 594.62 78.02 585.06 76.23 C 581.16 75.71 577.23 73.67 575.96 69.70 C 563.23 66.79 550.02 67.13 537.04 67.00 C 525.66 67.19 514.24 66.49 502.90 67.66 C 485.60 68.83 468.22 69.47 451.07 72.16 M 488.09 100.23 C 475.75 102.29 464.30 107.98 454.16 115.17 C 438.53 126.65 424.26 139.94 411.42 154.47 C 410.72 155.44 409.98 156.73 410.34 157.96 C 411.33 159.04 413.32 159.70 414.29 158.22 C 423.58 147.75 433.46 137.77 444.07 128.64 C 446.57 126.62 448.95 124.35 451.89 122.97 C 463.62 117.77 475.32 112.51 487.03 107.26 C 492.69 104.86 499.78 107.16 504.95 103.69 C 505.11 101.51 503.15 100.09 501.15 100.04 C 496.80 99.96 492.42 99.83 488.09 100.23 M 408.12 115.77 C 398.12 119.94 391.21 128.91 386.05 138.09 C 384.97 139.53 385.82 141.27 386.17 142.80 C 387.47 142.91 388.79 142.97 390.11 142.97 C 396.21 135.50 404.20 129.84 411.07 123.11 C 412.56 121.90 413.79 119.91 415.96 120.00 C 419.20 119.46 423.16 120.18 425.53 117.33 C 425.09 116.03 424.66 114.73 424.22 113.44 C 418.82 113.78 413.14 113.39 408.12 115.77 M 506.14 115.53 C 491.30 117.79 476.57 123.59 465.56 134.04 C 465.76 135.93 466.54 138.31 468.94 137.10 C 482.11 125.41 499.71 120.08 516.99 118.75 C 524.34 118.74 531.69 118.77 539.04 118.76 C 551.48 118.41 563.76 120.98 575.97 123.01 C 578.64 123.58 578.39 120.37 577.94 118.72 C 577.28 118.68 575.95 118.60 575.29 118.56 C 575.20 117.25 575.11 115.95 575.02 114.64 C 566.06 113.71 557.02 114.57 548.04 114.17 C 539.05 113.36 530.01 113.93 521.01 113.74 C 515.96 113.40 511.11 114.99 506.14 115.53 M 591.33 114.39 C 588.81 115.33 590.42 119.23 593.01 118.50 C 600.38 117.79 607.85 119.92 613.71 124.45 C 615.01 125.41 616.87 127.04 618.37 125.42 C 619.90 122.54 616.68 120.59 614.61 119.37 C 607.86 114.83 599.38 112.39 591.33 114.39 M 355.62 140.71 C 353.71 143.28 355.68 147.01 354.94 150.03 C 351.98 153.53 347.67 155.98 345.38 159.94 C 347.43 164.31 353.65 162.22 356.26 159.33 C 359.97 154.42 359.86 147.72 359.15 141.90 C 359.23 140.09 356.73 139.74 355.62 140.71 M 512.12 146.36 C 503.23 147.85 494.50 150.34 485.99 153.30 C 484.90 153.53 483.72 154.78 484.43 155.92 C 484.70 157.69 486.70 157.32 487.97 157.04 C 494.54 155.06 501.10 152.84 507.94 152.03 C 523.71 152.15 539.46 153.81 555.24 153.63 C 555.44 152.94 555.85 151.55 556.05 150.85 C 554.85 149.87 553.60 148.87 552.04 148.57 C 539.02 145.32 525.42 145.12 512.12 146.36 M 385.12 151.95 C 378.42 157.95 376.63 167.43 376.52 176.02 C 376.95 185.92 378.44 195.90 381.83 205.24 C 383.47 205.11 385.81 205.79 386.75 203.98 C 387.41 201.59 386.25 199.23 385.78 196.93 C 383.39 187.21 381.76 176.91 383.97 167.00 C 385.21 161.14 389.10 156.01 394.36 153.16 C 395.30 151.66 395.18 150.04 394.56 148.44 C 390.91 146.92 387.69 149.70 385.12 151.95 M 436.02 167.01 C 433.57 169.12 430.94 171.19 429.44 174.12 C 430.22 175.22 431.39 177.00 433.02 176.05 C 445.51 170.23 457.90 164.15 470.32 158.19 C 472.44 157.46 472.18 154.23 470.03 153.95 C 457.64 154.23 445.56 159.19 436.02 167.01 M 575.31 155.05 C 574.89 156.77 575.87 159.12 577.92 158.99 C 582.02 159.54 585.74 161.43 589.69 162.52 C 604.75 167.72 619.84 172.84 634.93 177.97 C 638.24 179.03 640.85 181.43 643.78 183.21 C 653.36 189.78 662.26 197.33 670.45 205.57 C 675.62 210.74 680.86 215.93 685.19 221.84 C 687.90 222.92 691.61 220.27 689.47 217.39 C 674.80 199.40 657.03 183.90 637.13 171.94 C 619.61 161.86 600.03 155.26 579.90 153.26 C 578.26 153.15 576.00 153.27 575.31 155.05 M 354.37 173.71 C 359.21 178.24 363.86 182.99 368.87 187.36 C 370.61 188.46 373.21 185.79 371.55 184.26 C 366.93 179.54 361.77 175.33 357.35 170.41 C 355.43 170.14 352.78 171.62 354.37 173.71 M 460.65 179.85 C 460.40 181.71 460.42 184.37 463.10 183.75 C 473.57 181.15 484.17 178.17 495.06 178.51 C 505.07 178.69 515.05 178.05 525.06 178.25 C 534.41 177.75 543.58 180.08 552.58 182.30 C 555.40 182.94 556.07 177.87 553.16 177.77 C 540.12 174.30 526.56 172.18 513.03 172.50 C 495.33 172.09 477.58 174.77 460.65 179.85 M 337.91 177.80 C 341.53 180.43 345.44 182.65 348.79 185.64 C 348.72 189.93 347.32 194.41 348.70 198.57 C 353.63 199.16 359.35 194.17 357.07 189.05 C 353.52 182.57 347.06 178.18 340.88 174.43 C 338.49 173.02 336.51 175.76 337.91 177.80 M 582.06 186.21 C 581.63 187.11 581.22 188.03 580.81 188.94 C 581.20 189.34 581.98 190.14 582.37 190.54 C 596.16 191.52 609.32 197.34 620.10 205.85 C 621.26 206.64 622.35 207.86 623.88 207.82 C 625.93 207.61 625.23 205.42 625.36 204.02 C 613.06 194.17 598.09 186.56 582.06 186.21 M 321.16 197.80 C 325.00 200.79 329.45 202.88 333.52 205.54 C 335.40 206.62 337.35 208.38 339.70 207.63 C 340.64 206.79 340.42 205.44 340.63 204.33 C 335.22 201.14 329.93 197.75 324.47 194.68 C 322.29 193.59 320.18 195.51 321.16 197.80 M 491.73 202.07 C 492.67 202.82 493.48 204.19 494.91 203.96 C 507.97 204.58 521.43 203.76 534.00 207.99 C 545.24 210.84 556.10 215.50 565.53 222.31 C 580.61 233.02 592.69 248.70 597.25 266.79 C 598.32 269.65 604.05 268.40 602.98 264.95 C 599.30 249.29 591.54 234.32 579.66 223.32 C 569.45 213.63 556.58 207.04 543.03 203.45 C 527.86 198.45 511.68 198.35 495.88 198.01 C 493.33 197.80 492.00 199.80 491.73 202.07 M 400.25 215.15 C 389.61 221.44 382.28 232.71 380.46 244.90 C 380.07 248.54 378.93 252.33 379.90 255.96 C 381.27 256.84 383.25 256.90 383.85 255.09 C 384.39 251.02 384.22 246.70 385.80 242.87 C 392.51 234.28 399.59 225.99 406.39 217.47 C 407.47 215.79 409.70 215.58 410.98 214.14 C 410.95 213.39 410.87 211.91 410.84 211.16 C 406.82 210.49 403.53 213.32 400.25 215.15 M 494.28 220.91 C 495.16 225.33 500.04 225.74 503.35 227.52 C 510.39 230.33 516.31 235.17 522.24 239.78 C 537.43 251.48 551.19 265.17 562.25 280.88 C 566.51 286.97 568.70 294.16 571.47 300.97 C 572.76 303.49 575.92 303.09 578.16 302.28 C 581.10 299.03 578.89 294.93 577.59 291.50 C 571.18 274.71 561.19 259.30 548.43 246.64 C 535.15 233.75 519.13 223.80 501.97 216.94 C 498.85 215.43 493.99 216.82 494.28 220.91 M 443.59 218.50 C 436.22 221.72 429.20 225.87 423.07 231.09 C 419.06 235.15 414.40 238.60 411.16 243.36 C 408.63 247.04 405.78 250.69 404.35 254.96 C 403.30 257.20 407.45 258.38 408.26 256.40 C 411.54 250.57 415.03 244.61 420.11 240.17 C 429.15 234.25 437.86 227.81 447.08 222.17 C 449.09 221.47 448.40 219.25 448.20 217.69 C 446.63 217.79 445.02 217.78 443.59 218.50 M 620.14 232.05 C 623.12 234.96 626.56 237.58 628.71 241.20 C 631.04 248.16 632.73 255.32 635.02 262.29 C 635.79 262.35 637.33 262.46 638.10 262.52 C 640.28 258.71 639.67 254.07 638.48 250.05 C 635.80 241.78 630.13 234.81 623.78 229.03 C 623.04 229.02 621.55 229.01 620.81 229.00 C 620.58 230.01 620.36 231.03 620.14 232.05 M 321.28 238.13 C 320.47 239.80 319.58 242.14 321.43 243.51 C 325.28 247.05 329.58 250.06 333.47 253.56 C 334.82 255.03 336.96 254.58 338.74 254.76 C 339.71 253.18 341.19 251.07 339.87 249.30 C 335.39 245.08 330.26 241.58 325.83 237.31 C 324.33 237.54 322.30 236.61 321.28 238.13 M 454.56 247.77 C 442.92 249.26 431.73 254.17 422.80 261.80 C 420.48 263.86 417.45 265.82 416.89 269.10 C 417.24 270.64 419.10 271.44 420.32 270.29 C 429.02 263.80 438.96 258.97 449.46 256.22 C 465.43 252.19 482.40 253.14 498.22 257.41 C 499.56 256.51 500.08 254.60 499.03 253.28 C 496.48 251.76 493.49 251.35 490.68 250.55 C 478.92 247.51 466.64 246.34 454.56 247.77 M 352.42 249.60 C 350.04 250.06 349.03 253.66 351.90 254.21 C 357.46 254.66 362.99 255.77 368.03 258.26 C 380.51 264.48 389.73 275.51 397.26 286.97 C 399.01 289.47 400.21 292.36 402.36 294.57 C 403.08 297.84 401.46 300.80 401.53 304.01 C 399.66 300.23 397.39 296.61 393.90 294.12 C 386.70 284.74 378.85 275.40 368.28 269.70 C 356.46 262.70 342.16 261.60 328.80 263.42 C 327.45 263.67 325.77 263.85 324.98 265.17 C 323.82 266.59 325.41 268.64 327.04 268.65 C 337.19 269.49 347.19 271.46 357.15 273.51 C 346.90 274.77 336.46 273.22 326.21 274.70 C 325.33 275.57 324.29 276.00 323.07 275.96 C 317.51 275.80 312.05 277.62 307.19 280.19 C 303.44 282.15 300.83 286.22 301.42 290.54 C 303.18 291.16 305.11 291.22 306.40 289.67 C 311.02 289.72 312.38 284.15 316.63 283.42 C 319.61 282.46 322.63 281.29 324.93 279.08 C 336.78 278.24 348.67 278.48 360.54 278.57 C 367.46 280.51 374.12 283.30 381.02 285.33 C 382.68 287.43 385.26 289.05 385.89 291.79 C 383.40 289.52 380.18 288.56 377.07 287.50 C 374.63 286.21 372.35 284.48 369.50 284.29 C 367.11 282.34 363.91 282.10 361.04 281.36 C 355.42 280.08 349.62 280.08 343.89 280.34 C 342.51 280.45 341.58 281.61 340.47 282.31 C 332.12 281.17 324.45 286.04 318.53 291.44 C 318.54 291.99 318.56 293.09 318.57 293.64 C 321.79 293.73 325.16 293.16 326.88 290.12 C 338.39 287.29 350.35 288.96 362.08 288.48 C 366.28 288.01 369.85 290.63 373.88 291.23 C 376.88 292.07 380.28 293.27 381.78 296.24 C 383.10 298.98 386.13 300.16 389.02 300.27 C 390.87 302.51 394.07 303.67 395.60 306.00 C 390.89 302.57 384.53 303.58 379.03 303.14 C 372.58 299.58 366.71 294.73 359.51 292.71 C 353.52 290.83 347.09 290.50 340.90 291.45 C 331.84 293.32 324.17 299.40 318.67 306.62 C 317.47 307.85 318.20 309.50 318.45 310.95 C 319.62 316.38 322.85 321.34 327.58 324.34 C 335.64 329.62 345.66 330.01 355.00 329.75 C 362.73 330.06 370.25 327.72 377.92 327.37 C 377.83 327.68 377.66 328.29 377.57 328.60 C 374.88 330.76 371.85 332.46 369.07 334.51 C 366.26 336.93 362.33 335.57 358.99 336.43 C 357.44 337.89 356.68 339.76 356.81 341.90 C 351.28 343.59 345.39 342.83 340.08 340.80 C 337.63 339.94 337.19 342.54 337.44 344.24 C 343.94 347.02 351.27 348.04 358.12 345.94 C 358.12 348.69 358.06 351.53 356.32 353.81 C 349.72 352.25 342.66 351.29 336.04 353.19 C 333.82 353.55 334.70 356.01 334.59 357.57 C 342.06 357.07 349.85 356.07 357.00 359.06 C 357.36 360.20 357.71 361.34 358.06 362.49 C 351.04 362.42 344.93 366.24 338.92 369.35 C 332.77 378.73 327.11 389.34 327.91 400.94 C 327.75 404.11 329.46 407.32 328.44 410.43 C 316.55 409.83 305.03 415.38 297.05 424.01 C 284.69 437.21 278.81 454.92 274.53 472.13 C 274.91 497.76 284.19 523.02 300.00 543.15 C 300.63 547.35 300.91 551.69 300.07 555.89 C 299.58 562.70 302.82 569.10 306.19 574.80 C 311.28 584.06 318.18 592.13 325.06 600.09 C 327.50 600.65 329.73 598.50 327.81 596.30 C 321.26 588.43 314.47 580.63 309.54 571.60 C 308.30 567.50 307.52 563.25 306.76 559.03 C 307.27 555.73 308.24 552.51 309.13 549.29 C 311.39 548.14 311.73 544.79 309.85 543.13 C 295.68 527.21 286.36 507.08 283.38 485.99 C 284.63 475.61 286.37 465.27 287.90 454.92 C 290.61 445.47 295.91 436.83 302.50 429.58 C 309.51 422.01 319.67 417.43 330.05 417.88 C 333.65 421.00 336.59 425.15 341.02 427.14 C 341.96 426.19 343.56 424.86 342.31 423.45 C 336.92 416.48 331.96 408.16 332.59 399.02 C 333.87 389.04 339.85 380.49 345.91 372.75 C 352.09 371.42 358.29 369.59 364.69 370.37 C 366.43 372.65 368.75 374.47 370.30 376.90 C 371.33 380.01 371.62 383.31 372.35 386.50 C 373.03 386.68 374.39 387.05 375.06 387.23 C 380.47 381.06 387.78 376.32 395.96 374.95 C 402.65 374.04 409.62 374.24 416.13 376.19 C 418.74 377.25 420.67 379.53 423.23 380.74 C 424.92 384.98 427.41 389.21 427.41 393.94 C 427.51 397.81 428.74 401.81 427.44 405.60 C 423.05 420.12 418.60 434.62 414.31 449.16 C 413.93 450.30 413.92 451.45 414.29 452.61 C 415.46 452.64 416.64 452.67 417.82 452.71 C 420.72 447.23 423.49 441.68 426.05 436.04 C 426.74 434.39 428.38 433.34 429.95 432.66 C 434.26 432.25 438.83 431.21 442.96 433.03 C 448.96 435.67 453.56 440.77 456.62 446.46 C 466.92 464.04 471.54 484.16 475.82 503.88 C 475.96 505.17 476.77 506.67 475.88 507.89 C 471.42 515.74 467.15 523.91 465.39 532.84 C 464.37 537.19 465.42 542.35 469.33 544.96 C 464.90 550.64 460.55 556.42 456.79 562.58 C 455.54 564.54 456.22 567.15 458.33 568.18 C 458.00 571.49 456.15 574.65 455.22 577.91 C 453.46 584.39 448.56 589.26 445.37 595.02 C 445.01 597.82 447.82 598.73 450.07 598.58 C 455.44 591.01 460.37 583.14 465.64 575.50 C 467.62 573.32 465.32 570.52 465.71 568.00 C 466.02 559.38 471.48 552.28 475.30 544.91 C 475.31 544.20 475.32 542.77 475.33 542.05 C 473.32 541.60 470.82 541.09 470.03 538.90 C 468.78 534.77 470.20 530.39 471.73 526.54 C 475.83 521.02 480.58 516.01 484.74 510.53 C 486.51 508.56 483.41 507.02 483.64 504.95 C 480.71 489.30 476.82 473.76 471.08 458.89 C 466.57 447.77 461.21 436.16 451.39 428.73 C 445.45 423.92 437.22 423.29 430.03 425.10 C 433.98 412.26 436.04 397.70 430.12 385.13 C 429.85 378.40 428.07 371.80 428.36 365.04 C 428.67 360.69 428.31 356.35 428.19 352.01 C 427.92 347.65 426.47 343.35 426.87 338.96 C 427.84 335.97 430.69 334.18 432.60 331.82 C 435.64 334.15 439.59 334.52 443.06 335.94 C 452.19 338.41 461.49 341.16 471.05 340.77 C 479.12 340.92 488.14 339.02 493.52 332.52 C 497.00 327.44 498.72 320.89 497.53 314.80 C 489.32 305.26 478.03 297.10 464.96 296.99 C 453.16 296.16 442.00 301.17 432.11 307.10 C 427.88 309.18 425.04 313.45 420.53 315.02 C 419.28 312.51 417.74 310.17 416.16 307.87 C 426.07 301.20 436.95 295.77 448.51 292.62 C 462.70 288.80 478.29 289.23 491.80 295.31 C 508.85 302.85 521.59 317.17 532.19 332.08 C 533.32 332.06 534.43 331.92 535.53 331.66 C 537.96 331.28 537.91 327.84 536.94 326.14 C 528.39 313.65 518.06 302.13 505.36 293.74 C 493.09 285.04 477.72 281.21 462.77 282.28 C 461.31 280.38 459.30 278.74 458.83 276.28 C 461.24 274.96 466.30 275.38 465.85 271.53 C 463.86 270.62 461.85 269.71 460.01 268.53 C 455.21 268.26 450.64 269.86 446.03 270.87 C 435.15 271.81 423.97 275.25 415.71 282.67 C 413.62 284.81 411.16 287.02 410.71 290.15 C 411.15 291.77 413.55 292.27 414.75 291.27 C 418.05 288.94 421.16 286.15 424.99 284.72 C 426.81 288.05 422.48 291.13 421.05 293.98 C 418.89 298.59 413.95 300.32 409.99 303.01 C 407.40 300.54 409.87 296.80 407.76 294.24 C 408.13 284.16 405.20 274.28 401.49 265.02 C 400.72 262.81 396.78 264.31 397.56 266.47 C 399.90 273.10 402.40 279.83 402.76 286.92 C 400.05 281.51 396.69 276.48 393.20 271.55 C 387.37 263.55 380.76 255.63 371.76 251.10 C 365.88 247.95 358.73 247.72 352.42 249.60 M 569.33 251.51 C 569.29 252.62 569.26 253.73 569.24 254.85 C 575.83 258.24 582.48 261.93 587.52 267.49 C 591.64 271.99 594.35 277.96 594.03 284.15 C 593.61 286.38 596.39 287.24 597.93 286.00 C 599.50 283.18 598.48 279.86 597.92 276.91 C 595.54 267.31 587.67 260.28 579.49 255.39 C 576.28 253.69 573.20 250.98 569.33 251.51 M 676.97 311.37 C 665.45 313.95 653.52 317.52 644.61 325.64 C 643.07 326.05 641.16 326.19 640.79 328.10 C 635.13 337.05 629.56 346.09 623.93 355.06 C 623.06 356.54 622.44 358.20 622.50 359.94 C 622.50 368.98 622.51 378.02 622.49 387.05 C 622.40 389.10 623.60 390.85 624.41 392.64 C 626.16 396.00 627.25 399.66 629.07 402.99 C 632.40 407.86 634.30 413.53 636.17 419.09 C 637.42 426.01 638.10 433.03 638.94 440.02 C 638.94 449.31 638.70 459.18 643.32 467.58 C 645.91 472.29 651.63 476.06 657.10 474.36 C 659.95 473.42 659.28 469.42 657.52 467.70 C 654.22 467.38 651.21 465.54 649.71 462.56 C 646.81 456.85 646.41 450.25 646.50 443.95 C 646.77 437.67 645.45 431.49 644.73 425.28 C 646.55 423.91 648.82 426.50 650.81 426.93 C 657.64 435.93 656.02 447.94 655.44 458.50 C 656.83 458.78 658.96 459.71 659.80 458.00 C 660.93 448.85 661.04 439.34 658.46 430.41 C 656.30 423.21 650.97 415.93 642.97 415.06 C 641.04 410.30 639.60 405.23 636.53 401.04 C 632.47 395.01 631.41 387.02 634.40 380.30 C 638.50 379.19 642.86 378.82 647.05 379.63 C 649.67 380.08 651.03 382.70 651.69 385.03 C 652.81 390.80 650.90 396.50 649.42 402.01 C 649.50 402.56 649.67 403.67 649.75 404.23 C 651.09 404.01 653.60 404.88 653.95 402.89 C 656.54 394.76 659.33 384.23 652.62 377.31 C 647.77 373.61 640.93 374.47 635.31 375.50 C 633.88 373.15 634.32 370.30 634.60 367.71 C 637.12 364.21 640.85 361.84 644.54 359.72 C 645.92 358.84 647.58 359.26 649.13 359.23 C 649.99 358.72 650.85 358.21 651.72 357.71 C 655.97 357.74 660.25 357.58 664.41 358.60 C 666.06 363.63 667.00 368.85 668.45 373.94 C 670.86 380.75 665.04 386.64 663.70 393.01 C 663.73 394.93 666.55 394.90 667.64 394.01 C 671.31 387.15 674.22 379.76 675.07 371.98 C 675.90 368.01 676.74 363.47 673.87 360.06 C 670.01 354.78 665.51 349.95 662.12 344.34 C 657.21 344.18 651.54 343.42 647.84 347.42 C 646.77 345.42 645.72 343.41 644.86 341.32 C 653.96 337.14 663.89 332.98 674.12 334.86 C 677.46 336.11 680.30 338.64 682.13 341.69 C 686.14 348.20 686.02 356.08 686.50 363.44 C 688.39 364.04 691.38 363.70 690.75 360.96 C 690.82 354.40 690.05 347.68 687.43 341.60 C 685.16 336.40 680.65 332.21 675.15 330.67 C 666.31 329.13 657.29 331.27 649.15 334.71 C 649.91 332.12 652.49 330.87 654.48 329.33 C 659.72 325.66 664.71 321.62 670.05 318.11 C 675.20 316.09 680.76 315.35 686.17 314.23 C 688.32 314.06 687.59 311.77 687.62 310.33 C 684.04 309.53 680.47 310.71 676.97 311.37 M 576.94 334.86 C 576.81 337.27 577.25 339.71 576.80 342.09 C 574.74 345.23 570.69 345.36 567.49 346.49 C 566.04 347.87 566.97 350.16 568.95 350.19 C 573.46 350.50 578.24 348.40 580.71 344.54 C 582.17 341.91 581.95 338.64 581.12 335.85 C 580.45 334.13 578.29 334.90 576.94 334.86 M 534.15 345.18 C 533.18 346.15 531.49 347.36 532.76 348.86 C 534.47 351.73 535.65 355.63 538.95 357.03 C 543.85 358.00 544.83 351.28 543.02 348.09 C 541.32 344.82 537.24 345.24 534.15 345.18 M 278.09 362.75 C 278.88 362.85 280.47 363.05 281.26 363.15 C 281.57 362.09 281.88 361.04 282.18 360.00 C 289.38 358.38 296.85 359.73 304.16 359.16 C 304.48 357.77 304.51 356.36 304.13 354.99 C 296.73 354.73 289.25 354.36 281.89 355.17 C 278.34 355.19 275.64 359.91 278.09 362.75 M 553.54 362.95 C 554.90 365.12 556.72 366.96 558.30 368.98 C 572.16 386.11 583.53 405.46 590.36 426.48 C 594.69 439.11 596.75 452.34 598.14 465.57 C 599.59 465.34 601.96 466.38 602.29 464.26 C 600.93 442.66 595.05 421.39 585.40 402.03 C 577.78 386.94 568.02 372.99 557.00 360.21 C 555.31 360.10 552.55 360.56 553.54 362.95 M 284.47 393.08 C 282.06 397.79 279.05 402.62 278.94 408.05 C 280.17 408.34 282.10 409.64 282.85 407.91 C 292.45 393.74 304.60 380.97 319.56 372.42 C 320.77 371.77 322.25 370.67 321.76 369.09 C 320.97 367.09 318.52 367.76 316.96 368.09 C 303.28 371.46 291.13 380.62 284.47 393.08 M 502.29 379.90 C 503.08 381.80 505.33 381.72 506.98 382.36 C 522.42 387.19 537.24 396.06 546.19 409.87 C 548.08 416.28 551.79 421.93 554.89 427.80 C 556.35 427.82 557.81 428.19 557.95 429.92 C 563.61 445.76 572.00 460.46 577.66 476.30 C 576.47 477.55 574.64 478.89 575.30 480.89 C 576.23 484.76 576.78 488.81 578.65 492.38 C 579.33 492.44 580.67 492.56 581.34 492.62 C 581.66 495.19 581.95 497.77 582.36 500.34 C 581.46 502.09 580.47 504.00 581.23 506.02 C 582.62 511.65 583.63 517.37 585.08 522.99 C 586.02 526.87 592.95 526.08 592.50 521.84 C 591.04 514.91 589.77 507.90 587.71 501.12 C 588.10 493.00 588.71 484.34 584.95 476.84 C 577.35 459.83 572.88 441.31 562.59 425.59 C 562.52 421.31 559.45 417.95 557.98 414.10 C 557.11 411.49 554.68 410.01 553.46 407.62 C 545.00 393.61 531.06 383.69 515.98 377.85 C 512.06 376.44 508.13 374.44 503.86 374.71 C 501.69 375.35 501.03 378.13 502.29 379.90 M 347.97 394.08 C 345.73 394.40 344.32 396.78 344.26 398.90 C 344.22 403.27 344.21 407.65 344.29 412.02 C 344.50 413.99 344.59 416.34 346.30 417.69 C 347.73 418.15 349.83 417.75 350.06 415.97 C 350.44 412.87 349.69 409.69 350.68 406.65 C 356.47 407.03 362.31 408.10 367.60 410.58 C 370.07 411.64 370.53 414.80 369.59 417.07 C 367.58 422.08 368.03 427.64 367.82 432.94 C 367.78 436.04 371.15 438.54 374.01 436.87 C 376.69 434.41 376.42 430.36 376.53 427.02 C 376.82 418.19 374.84 408.98 369.34 401.89 C 364.31 395.62 355.74 393.22 347.97 394.08 M 474.31 394.23 C 471.50 394.50 470.78 398.86 472.99 400.34 C 474.36 401.56 476.30 401.52 477.99 401.97 C 481.04 402.40 483.51 404.38 486.12 405.85 C 500.06 414.09 512.07 425.38 521.72 438.34 C 523.89 441.07 523.26 445.54 527.00 447.01 C 530.83 457.79 535.01 468.45 538.83 479.23 C 541.02 489.85 541.42 500.74 541.60 511.55 C 542.23 511.74 543.49 512.12 544.12 512.31 C 546.23 512.00 545.96 509.49 546.02 507.94 C 545.74 489.12 543.58 469.85 535.39 452.66 C 536.13 451.33 536.06 449.81 535.29 448.52 C 532.18 441.82 529.22 435.06 526.10 428.37 C 524.34 427.25 523.54 425.26 522.42 423.61 C 513.49 409.18 498.50 398.97 482.06 395.08 C 479.52 394.58 476.91 393.60 474.31 394.23 M 395.87 399.51 C 390.43 402.38 386.42 407.47 384.06 413.07 C 380.84 419.74 378.74 427.82 381.21 434.99 C 381.70 435.18 382.69 435.56 383.18 435.74 C 386.52 432.02 389.37 427.85 393.01 424.38 C 396.11 421.95 395.54 417.07 398.93 414.96 C 401.71 412.89 405.16 412.09 408.48 411.30 C 408.84 413.47 409.31 415.64 410.35 417.61 C 412.35 417.61 415.02 418.40 416.40 416.47 C 419.45 412.97 417.55 408.09 418.15 403.96 C 418.73 400.80 416.89 397.25 413.68 396.47 C 407.62 395.67 401.25 396.49 395.87 399.51 M 268.94 423.94 C 265.15 427.68 263.28 433.79 266.03 438.67 C 266.78 438.71 268.27 438.80 269.01 438.84 C 270.86 436.83 269.06 434.19 269.74 431.88 C 270.65 427.11 274.86 424.22 278.38 421.38 C 279.85 420.49 278.47 418.86 278.11 417.77 C 274.16 418.10 271.62 421.43 268.94 423.94 M 331.43 462.81 C 332.95 468.10 335.68 472.99 338.28 477.83 C 341.47 483.10 345.07 488.71 350.83 491.42 C 352.77 492.42 356.07 492.60 356.62 489.90 C 349.63 480.31 341.93 471.23 335.12 461.53 C 333.71 461.41 331.95 461.01 331.43 462.81 M 410.43 467.30 C 408.88 468.12 408.11 469.76 407.20 471.16 C 402.52 478.82 397.57 486.31 392.96 494.01 C 391.78 495.15 392.20 497.74 393.96 497.88 C 397.21 498.75 399.86 496.08 401.90 493.94 C 407.33 487.28 410.30 479.02 412.99 470.96 C 414.01 469.39 412.28 466.55 410.43 467.30 M 297.95 477.08 C 295.02 483.32 298.19 490.24 301.66 495.54 C 303.19 495.82 304.45 495.38 305.45 494.24 C 303.96 489.78 301.67 484.20 304.95 480.00 C 309.31 476.03 315.72 477.28 321.06 477.67 C 322.93 477.69 322.90 474.43 321.67 473.61 C 317.58 472.19 313.18 472.88 308.94 472.75 C 305.04 472.96 300.40 473.67 297.95 477.08 M 442.00 480.94 C 444.80 486.40 447.89 491.72 450.87 497.09 C 452.54 500.12 452.90 503.66 453.25 507.05 C 451.84 509.39 448.98 509.87 446.59 510.60 C 446.23 512.00 445.82 514.39 447.93 514.58 C 453.43 514.74 459.23 509.92 458.36 504.09 C 457.21 499.10 459.42 493.45 456.34 488.97 C 453.25 484.25 448.63 480.81 444.19 477.44 C 442.75 477.85 440.63 479.20 442.00 480.94 M 316.19 482.97 C 314.70 484.52 316.53 486.33 317.23 487.78 C 322.84 495.77 332.28 499.73 341.11 503.07 C 351.11 506.15 361.63 506.97 371.98 508.15 C 395.27 509.94 419.39 508.73 441.32 500.27 C 442.47 499.21 441.29 497.87 440.98 496.76 C 437.62 496.53 434.37 497.37 431.10 497.97 C 410.26 501.47 389.09 502.86 367.97 502.50 C 360.43 502.88 352.95 501.30 345.70 499.45 C 337.20 494.23 328.88 488.72 320.47 483.35 C 319.25 482.54 317.40 481.50 316.19 482.97 M 312.57 495.54 C 311.30 496.82 310.78 498.91 311.63 500.57 C 325.52 519.06 347.48 532.35 370.98 532.51 C 392.55 533.46 413.50 526.19 432.59 516.77 C 432.83 516.99 433.32 517.42 433.56 517.64 C 435.32 515.34 437.30 511.14 433.55 509.65 C 428.87 509.29 424.52 511.62 420.00 512.46 C 403.05 516.88 385.41 518.57 367.95 517.05 C 349.63 515.12 331.64 508.17 317.65 496.03 C 316.30 494.67 314.23 495.22 312.57 495.54 Z" />
<path fill="#ffffff" opacity="1.00" d=" M 144.51 28.24 C 146.04 27.72 146.48 30.31 145.78 31.26 L 145.27 31.19 C 144.37 30.32 144.11 29.34 144.51 28.24 Z" />
<path fill="#ffffff" opacity="1.00" d=" M 148.07 30.22 C 147.43 29.55 147.43 29.55 148.07 30.22 Z" />
<path fill="#ffffff" opacity="1.00" d=" M 148.07 30.22 C 148.24 30.40 148.57 30.75 148.73 30.93 L 148.09 30.83 L 148.07 30.22 Z" />
<path fill="#ffffff" opacity="1.00" d=" M 145.24 31.69 C 145.25 31.56 145.26 31.31 145.27 31.19 L 145.24 31.69 Z" />
<path fill="#ffffff" opacity="1.00" d=" M 145.78 31.26 C 146.36 31.15 147.52 30.94 148.09 30.83 C 148.12 32.44 147.73 34.15 148.32 35.70 C 149.93 37.01 151.94 38.01 152.47 40.25 C 152.05 40.12 151.20 39.87 150.78 39.75 C 150.68 39.66 150.49 39.47 150.40 39.38 C 150.49 39.47 150.68 39.66 150.78 39.75 C 150.87 40.46 151.07 41.87 151.17 42.58 C 150.05 41.38 148.63 40.62 147.10 40.14 C 147.40 39.18 147.70 38.22 148.00 37.26 C 146.93 37.61 145.85 37.96 144.78 38.33 C 144.92 36.11 145.07 33.90 145.24 31.69 L 145.68 31.96 C 145.87 33.07 145.27 35.50 146.84 35.63 C 147.96 34.18 146.49 32.51 145.78 31.26 Z" />
<path fill="#ffffff" opacity="1.00" d=" M 148.73 30.93 C 149.44 31.56 149.44 31.56 148.73 30.93 Z" />
<path fill="#ffffff" opacity="1.00" d=" M 150.26 35.35 C 150.76 35.75 150.76 35.75 150.26 35.35 Z" />
<path fill="#ffffff" opacity="1.00" d=" M 144.93 42.70 C 143.40 42.33 143.34 38.75 144.78 38.33 C 145.46 39.61 145.51 41.36 144.93 42.70 Z" />
<path fill="#ffffff" opacity="1.00" d=" M 144.93 42.70 C 146.23 42.53 147.54 42.35 148.85 42.15 C 148.40 44.28 147.99 46.41 147.60 48.54 C 147.24 47.01 146.83 45.50 146.43 43.98 C 146.09 45.99 145.75 47.99 145.37 49.99 C 142.99 48.44 145.86 45.04 144.93 42.70 Z" />
<path fill="#ffffff" opacity="1.00" d=" M 150.28 44.30 C 150.71 44.79 150.71 44.79 150.28 44.30 Z" />
<path fill="#ffffff" opacity="1.00" d=" M 142.29 47.25 C 142.75 47.72 142.75 47.72 142.29 47.25 Z" />
<path fill="#ffffff" opacity="1.00" d=" M 147.60 48.54 L 148.14 48.36 C 148.04 48.54 147.83 48.92 147.73 49.10 L 147.60 48.54 Z" />
<path fill="#ffffff" opacity="1.00" d=" M 147.00 49.27 C 147.19 49.23 147.55 49.14 147.73 49.10 C 147.55 49.14 147.19 49.23 147.00 49.27 Z" />
<path fill="#ffffff" opacity="1.00" d=" M 145.37 49.99 C 145.78 49.81 146.59 49.45 147.00 49.27 C 146.81 49.67 146.43 50.46 146.23 50.86 L 145.43 50.70 L 145.37 49.99 Z" />
<path fill="#ffffff" opacity="1.00" d=" M 472.98 302.93 C 480.29 305.04 486.50 309.87 491.71 315.29 C 492.58 316.31 493.94 317.39 493.46 318.94 C 493.06 324.29 491.07 330.36 485.93 332.92 C 482.15 335.41 477.57 335.61 473.30 336.64 C 478.08 329.93 479.76 320.92 477.43 312.98 C 476.58 309.37 474.68 306.17 472.98 302.93 Z" />
<path fill="#ffffff" opacity="1.00" d=" M 446.49 309.30 C 448.36 310.18 450.19 311.12 452.04 312.05 C 451.53 313.36 451.02 314.67 450.52 315.99 C 447.93 314.99 444.83 312.36 446.49 309.30 Z" />
<path fill="#ffffff" opacity="1.00" d=" M 382.92 316.00 C 389.31 316.41 395.69 316.87 402.07 317.34 C 406.77 317.65 411.22 319.29 415.83 320.11 C 416.93 322.02 418.33 323.83 418.95 325.98 C 420.04 331.48 417.64 337.47 420.52 342.64 L 420.48 343.00 C 418.66 340.89 417.25 337.39 413.94 337.67 C 412.47 337.72 410.94 338.48 410.78 340.10 C 413.03 344.67 415.94 348.89 418.55 353.26 C 418.41 353.27 418.13 353.31 418.00 353.33 C 414.93 350.26 410.54 347.62 406.01 348.32 C 404.69 348.21 404.46 349.86 403.83 350.66 C 407.30 353.03 411.16 354.89 414.23 357.80 C 415.95 362.62 417.08 367.67 419.20 372.35 C 416.34 370.61 413.54 368.75 410.47 367.40 C 400.83 364.18 390.35 367.62 382.60 373.69 C 380.12 375.16 378.42 377.89 375.82 379.00 C 374.74 374.11 372.42 369.50 369.04 365.79 C 367.22 363.98 364.03 363.75 362.99 361.20 C 361.78 359.16 361.10 356.87 360.46 354.61 C 364.31 355.00 368.20 355.20 372.03 355.86 C 374.41 355.79 375.92 358.79 378.42 357.48 C 379.90 355.39 380.12 352.59 378.63 350.45 C 373.52 348.26 367.87 349.20 362.49 349.03 C 362.53 346.16 362.56 343.27 362.12 340.43 C 368.15 340.14 374.08 341.02 379.99 342.01 C 381.97 341.98 381.74 339.61 381.67 338.25 C 379.28 337.11 376.63 336.84 374.04 336.54 C 377.14 334.00 380.57 331.93 383.88 329.68 C 386.61 330.50 389.35 331.31 392.18 331.70 C 392.47 330.50 393.99 328.51 392.24 327.74 C 389.70 326.43 386.70 325.45 385.16 322.84 C 383.69 320.86 383.39 318.35 382.92 316.00 Z" />
</g>
<g id="#fdfdffff">
<path fill="#fdfdff" opacity="1.00" d=" M 139.13 26.07 C 143.97 25.48 149.81 24.57 153.83 28.06 C 158.45 30.97 158.56 37.06 158.37 41.92 C 158.69 45.51 156.61 48.73 154.16 51.14 C 150.42 54.05 145.46 53.46 141.03 53.31 C 137.68 53.44 136.03 50.12 134.23 47.86 C 131.02 43.66 130.93 37.83 132.83 33.06 C 133.88 29.99 136.74 28.07 139.13 26.07 M 144.51 28.24 C 144.11 29.34 144.37 30.32 145.27 31.19 C 145.26 31.31 145.25 31.56 145.24 31.69 C 145.07 33.90 144.92 36.11 144.78 38.33 C 145.85 37.96 146.93 37.61 148.00 37.26 C 147.70 38.22 147.40 39.18 147.10 40.14 C 148.63 40.62 150.05 41.38 151.17 42.58 C 151.07 41.87 150.87 40.46 150.78 39.75 C 151.20 39.87 152.05 40.12 152.47 40.25 C 151.94 38.01 149.93 37.01 148.32 35.70 C 147.73 34.15 148.12 32.44 148.09 30.83 C 147.52 30.94 146.36 31.15 145.78 31.26 C 146.48 30.31 146.04 27.72 144.51 28.24 M 148.07 30.22 L 148.09 30.83 L 148.73 30.93 C 148.57 30.75 148.24 30.40 148.07 30.22 C 147.43 29.55 147.43 29.55 148.07 30.22 M 148.73 30.93 C 149.44 31.56 149.44 31.56 148.73 30.93 M 150.26 35.35 C 150.76 35.75 150.76 35.75 150.26 35.35 M 144.93 42.70 C 145.86 45.04 142.99 48.44 145.37 49.99 L 145.43 50.70 L 146.23 50.86 C 146.43 50.46 146.81 49.67 147.00 49.27 C 147.19 49.23 147.55 49.14 147.73 49.10 C 147.83 48.92 148.04 48.54 148.14 48.36 L 147.60 48.54 C 147.99 46.41 148.40 44.28 148.85 42.15 C 147.54 42.35 146.23 42.53 144.93 42.70 C 145.51 41.36 145.46 39.61 144.78 38.33 C 143.34 38.75 143.40 42.33 144.93 42.70 M 150.28 44.30 C 150.71 44.79 150.71 44.79 150.28 44.30 M 142.29 47.25 C 142.75 47.72 142.75 47.72 142.29 47.25 Z" />
<path fill="#fdfdff" opacity="1.00" d=" M 145.27 31.19 L 145.78 31.26 L 145.68 31.96 L 145.24 31.69 L 145.27 31.19 Z" />
<path fill="#fdfdff" opacity="1.00" d=" M 145.78 31.26 C 146.49 32.51 147.96 34.18 146.84 35.63 C 145.27 35.50 145.87 33.07 145.68 31.96 Z" />
<path fill="#fdfdff" opacity="1.00" d=" M 150.40 39.38 C 150.49 39.47 150.68 39.66 150.78 39.75 C 150.68 39.66 150.49 39.47 150.40 39.38 Z" />
<path fill="#fdfdff" opacity="1.00" d=" M 146.43 43.98 C 146.83 45.50 147.24 47.01 147.60 48.54 L 147.73 49.10 C 147.55 49.14 147.19 49.23 147.00 49.27 C 146.59 49.45 145.78 49.81 145.37 49.99 C 145.75 47.99 146.09 45.99 146.43 43.98 Z" />
</g>
<g id="#fcfdffff">
<path fill="#fcfdff" opacity="1.00" d=" M 234.42 26.36 C 238.35 25.27 243.17 24.87 246.83 27.04 C 248.97 28.10 249.14 30.72 250.38 32.52 C 251.90 34.43 251.23 36.97 251.26 39.21 C 245.61 39.52 239.95 39.24 234.29 39.33 C 233.60 43.29 235.27 47.10 238.45 49.48 C 242.80 50.20 247.33 49.92 251.14 47.54 C 251.23 49.08 251.32 50.63 251.41 52.17 C 246.71 53.88 241.27 53.92 236.49 52.62 C 231.31 51.25 229.81 45.60 228.70 41.02 C 228.28 35.68 230.46 29.95 234.42 26.36 Z" />
</g>
<g id="#000000ff">
<path fill="#000000" opacity="1.00" d=" M 451.07 72.16 C 468.22 69.47 485.60 68.83 502.90 67.66 C 514.24 66.49 525.66 67.19 537.04 67.00 C 550.02 67.13 563.23 66.79 575.96 69.70 C 577.23 73.67 581.16 75.71 585.06 76.23 C 594.62 78.02 604.39 80.16 612.91 85.05 C 620.67 94.21 629.26 102.70 637.47 111.43 C 646.31 114.85 650.98 123.71 655.42 131.49 C 657.72 135.10 659.06 139.51 662.53 142.24 C 669.74 148.08 676.07 154.89 682.16 161.86 C 684.61 164.77 687.18 167.70 688.87 171.15 C 694.68 193.05 708.73 211.34 720.87 230.05 C 723.16 232.89 722.57 237.44 719.38 239.36 C 723.86 245.75 727.70 252.54 731.79 259.17 C 736.07 268.16 734.01 278.41 734.18 287.98 C 734.21 289.71 733.23 292.87 735.98 292.84 C 737.37 296.46 736.43 300.36 736.38 304.11 C 735.97 313.42 733.98 322.62 734.24 331.96 C 734.12 338.34 734.54 344.75 733.97 351.11 C 733.81 353.93 731.63 356.21 731.74 359.08 C 731.75 365.59 732.80 372.04 733.74 378.46 C 734.50 383.94 734.19 389.48 734.25 395.00 C 734.20 402.69 734.44 410.40 733.85 418.09 C 733.26 422.65 731.49 426.93 729.62 431.09 C 730.01 435.05 729.12 439.30 731.19 442.93 C 733.55 446.89 733.09 451.92 730.83 455.81 C 729.45 458.20 727.44 460.29 726.74 463.03 C 725.44 467.28 726.60 471.86 725.16 476.09 C 723.07 482.20 719.56 487.80 718.30 494.20 C 715.39 504.98 714.41 516.42 709.29 526.49 C 705.21 533.72 701.30 541.04 696.96 548.11 C 695.14 551.23 695.28 555.19 693.12 558.14 C 690.18 561.30 685.75 562.67 683.03 566.09 C 679.80 570.44 675.62 573.93 671.87 577.80 C 663.21 586.06 654.45 594.20 645.75 602.41 C 643.89 604.31 641.73 601.70 641.14 599.96 C 639.97 595.79 640.54 591.36 640.64 587.09 C 640.79 581.70 645.66 578.42 649.59 575.57 C 657.39 570.72 665.44 566.24 672.96 560.93 C 681.05 554.49 686.54 545.48 691.29 536.45 C 701.57 518.81 707.44 499.13 714.07 479.95 C 716.10 473.33 718.59 466.81 719.73 459.96 C 718.66 454.60 716.68 449.46 715.46 444.13 C 716.42 441.16 716.25 438.02 716.52 434.96 C 717.71 418.55 722.69 402.50 722.16 385.97 C 722.11 378.87 718.48 372.69 716.29 366.16 C 710.89 383.35 701.94 399.37 690.29 413.11 C 693.44 430.80 696.64 449.54 691.12 467.09 C 689.14 471.49 686.61 477.86 680.96 477.81 C 676.87 483.56 670.23 487.97 662.95 487.50 C 659.78 487.17 657.20 489.46 654.14 489.81 C 643.70 491.22 633.67 487.30 624.02 483.91 C 623.71 481.95 624.45 479.54 626.95 480.18 C 638.43 482.43 650.73 483.84 661.96 479.63 C 669.05 476.96 675.69 472.44 680.09 466.22 C 686.28 448.83 684.78 429.95 684.08 411.84 C 691.36 400.05 697.94 387.70 702.44 374.54 C 709.94 352.97 711.56 328.87 704.06 307.07 C 702.50 303.03 698.06 301.37 694.76 299.02 C 681.76 290.85 664.58 287.84 650.38 294.72 C 642.76 297.91 637.32 304.40 632.17 310.60 C 630.27 310.55 628.32 310.14 627.48 308.21 C 628.13 306.71 628.64 305.09 629.81 303.89 C 634.55 298.75 639.36 293.57 645.23 289.69 C 647.05 285.20 648.11 279.18 653.17 277.25 C 657.04 276.45 662.37 276.83 664.36 280.86 C 670.92 280.55 677.68 280.69 683.93 282.94 C 693.49 286.12 701.65 292.39 708.76 299.39 C 718.11 317.27 721.93 338.20 718.06 358.14 C 721.20 357.23 724.92 356.79 726.99 353.93 C 728.89 350.99 728.27 347.33 728.25 344.02 C 728.24 333.35 728.26 322.68 728.24 312.01 C 728.19 306.62 728.85 301.23 730.17 296.00 C 726.76 285.97 723.65 275.66 723.51 264.98 C 721.14 254.67 714.89 245.88 710.42 236.44 C 710.40 235.88 710.36 234.75 710.34 234.19 C 704.32 226.19 699.88 217.15 695.57 208.16 C 689.79 195.69 687.88 181.17 678.64 170.51 C 671.90 162.26 663.60 155.43 657.03 147.04 C 655.04 144.64 654.59 141.47 653.19 138.76 C 651.45 135.26 649.71 131.73 647.53 128.49 C 642.29 123.65 635.89 120.23 630.58 115.47 C 628.96 110.34 622.62 109.30 617.99 108.57 C 615.73 108.57 613.56 106.73 611.37 107.51 C 610.19 104.44 606.74 103.55 604.44 101.55 C 600.63 98.35 597.17 94.58 592.60 92.44 C 588.97 90.90 584.87 91.19 581.22 89.72 C 576.51 88.12 574.03 83.48 570.46 80.36 C 568.64 78.85 567.36 76.75 565.43 75.40 C 560.83 73.66 555.83 73.46 550.97 73.25 C 540.96 73.28 530.96 73.10 520.96 73.51 C 504.61 73.28 488.27 73.87 471.97 75.01 C 462.29 76.56 452.41 77.32 443.03 80.39 C 436.47 82.12 432.64 88.74 426.07 90.51 C 421.38 92.13 416.42 91.12 411.61 91.66 C 400.03 98.56 388.85 106.16 377.58 113.57 C 371.22 118.13 364.42 122.29 359.22 128.23 C 355.89 132.54 353.20 137.41 349.08 141.06 C 343.85 145.82 337.18 148.40 331.17 151.91 C 329.06 154.12 326.17 155.00 323.19 155.28 C 314.58 165.68 307.35 177.71 304.70 191.10 C 302.85 199.65 304.57 208.48 302.81 217.05 C 302.03 223.04 299.14 228.38 297.03 233.95 C 299.16 233.30 301.76 233.00 303.13 231.02 C 306.03 227.26 308.94 223.49 311.91 219.77 C 314.03 218.14 316.43 220.14 318.61 220.42 C 317.64 221.58 317.85 223.17 317.49 224.57 C 316.61 226.18 315.32 227.51 314.23 228.98 C 317.50 227.31 320.21 224.38 324.10 224.29 C 325.78 225.72 326.18 227.78 326.06 229.89 C 321.48 233.88 316.01 236.64 311.10 240.17 C 303.75 244.87 296.86 250.36 289.16 254.47 C 288.61 262.02 287.45 269.54 285.97 276.96 C 284.53 281.57 282.76 287.63 277.42 288.91 C 277.48 295.89 285.86 294.23 289.73 297.59 C 285.40 306.94 279.73 315.64 275.77 325.18 C 276.33 326.63 277.15 328.16 278.91 328.32 C 283.96 329.35 289.26 328.42 294.27 329.91 C 294.03 331.35 294.13 333.11 292.91 334.17 C 288.67 335.61 284.14 335.15 279.75 335.32 C 274.40 349.71 268.22 363.81 263.59 378.47 C 262.36 381.02 265.09 382.89 266.33 384.77 C 262.87 400.52 258.99 416.17 255.92 432.00 C 255.05 436.93 253.54 441.96 254.69 446.98 C 255.47 451.39 257.86 455.24 259.53 459.34 C 262.97 459.54 266.63 460.80 268.24 464.11 C 269.20 468.77 267.78 473.39 267.03 477.96 C 267.03 482.00 268.04 485.97 268.68 489.95 C 269.95 492.08 271.19 494.35 270.96 496.95 C 270.54 509.82 270.30 522.72 269.16 535.56 C 271.98 537.49 274.52 540.02 276.11 543.07 C 277.89 548.71 278.42 554.69 278.27 560.60 C 284.29 562.96 288.12 569.62 287.26 575.99 C 286.70 582.18 291.18 587.13 294.02 592.19 C 295.64 596.60 295.27 601.50 297.07 605.87 C 299.53 610.59 304.34 613.55 306.80 618.26 C 307.88 620.11 307.43 622.27 307.03 624.25 C 304.90 624.99 302.36 625.13 300.84 623.15 C 293.73 615.30 291.25 604.51 285.13 596.00 C 280.15 590.29 276.24 583.67 273.43 576.66 C 271.97 573.37 271.94 569.63 270.63 566.35 C 271.58 565.27 271.59 564.18 270.66 563.09 C 266.44 556.28 264.26 548.49 261.59 541.01 C 260.89 538.75 259.85 536.43 260.30 534.02 C 261.07 532.79 262.07 531.60 261.77 530.03 C 261.33 519.93 263.93 510.02 265.01 500.06 C 259.78 488.31 257.10 475.65 253.50 463.36 C 251.44 459.91 249.86 456.14 249.39 452.13 C 248.65 445.16 247.35 438.01 249.13 431.08 C 250.02 427.91 250.85 424.72 251.23 421.45 C 252.05 409.97 257.27 399.39 258.75 388.02 C 258.35 385.47 255.06 383.73 256.03 380.95 C 258.30 374.03 260.94 367.23 263.60 360.45 C 267.04 351.67 270.26 342.78 274.60 334.40 C 270.96 332.38 269.61 328.01 269.97 324.07 C 269.54 316.54 272.18 309.34 272.95 301.95 C 271.87 297.88 269.33 294.37 268.41 290.24 C 267.29 286.54 268.08 282.66 267.73 278.88 C 271.50 273.35 275.96 268.26 279.39 262.52 C 281.15 248.53 287.91 235.89 294.65 223.70 C 298.46 217.89 298.19 210.59 297.77 203.94 C 297.41 198.94 298.55 194.02 298.92 189.05 C 299.54 181.06 299.80 172.98 301.67 165.15 C 302.84 160.26 306.05 155.89 310.58 153.63 C 310.96 146.53 318.72 144.99 323.96 142.59 C 330.26 139.66 337.29 138.13 342.90 133.87 C 347.78 130.15 350.33 124.40 353.77 119.50 C 357.46 115.23 361.91 111.73 366.40 108.34 C 378.09 99.75 390.12 91.06 404.00 86.38 C 408.00 85.29 412.64 83.95 416.55 85.85 C 423.83 84.59 430.52 81.00 436.95 77.49 C 441.11 74.50 446.14 73.22 451.07 72.16 Z" />
<path fill="#000000" opacity="1.00" d=" M 488.09 100.23 C 492.42 99.83 496.80 99.96 501.15 100.04 C 503.15 100.09 505.11 101.51 504.95 103.69 C 499.78 107.16 492.69 104.86 487.03 107.26 C 475.32 112.51 463.62 117.77 451.89 122.97 C 448.95 124.35 446.57 126.62 444.07 128.64 C 433.46 137.77 423.58 147.75 414.29 158.22 C 413.32 159.70 411.33 159.04 410.34 157.96 C 409.98 156.73 410.72 155.44 411.42 154.47 C 424.26 139.94 438.53 126.65 454.16 115.17 C 464.30 107.98 475.75 102.29 488.09 100.23 Z" />
<path fill="#000000" opacity="1.00" d=" M 408.12 115.77 C 413.14 113.39 418.82 113.78 424.22 113.44 C 424.66 114.73 425.09 116.03 425.53 117.33 C 423.16 120.18 419.20 119.46 415.96 120.00 C 413.79 119.91 412.56 121.90 411.07 123.11 C 404.20 129.84 396.21 135.50 390.11 142.97 C 388.79 142.97 387.47 142.91 386.17 142.80 C 385.82 141.27 384.97 139.53 386.05 138.09 C 391.21 128.91 398.12 119.94 408.12 115.77 Z" />
<path fill="#000000" opacity="1.00" d=" M 506.14 115.53 C 511.11 114.99 515.96 113.40 521.01 113.74 C 530.01 113.93 539.05 113.36 548.04 114.17 C 557.02 114.57 566.06 113.71 575.02 114.64 C 575.11 115.95 575.20 117.25 575.29 118.56 C 575.95 118.60 577.28 118.68 577.94 118.72 C 578.39 120.37 578.64 123.58 575.97 123.01 C 563.76 120.98 551.48 118.41 539.04 118.76 C 531.69 118.77 524.34 118.74 516.99 118.75 C 499.71 120.08 482.11 125.41 468.94 137.10 C 466.54 138.31 465.76 135.93 465.56 134.04 C 476.57 123.59 491.30 117.79 506.14 115.53 Z" />
<path fill="#000000" opacity="1.00" d=" M 591.33 114.39 C 599.38 112.39 607.86 114.83 614.61 119.37 C 616.68 120.59 619.90 122.54 618.37 125.42 C 616.87 127.04 615.01 125.41 613.71 124.45 C 607.85 119.92 600.38 117.79 593.01 118.50 C 590.42 119.23 588.81 115.33 591.33 114.39 Z" />
<path fill="#000000" opacity="1.00" d=" M 355.62 140.71 C 356.73 139.74 359.23 140.09 359.15 141.90 C 359.86 147.72 359.97 154.42 356.26 159.33 C 353.65 162.22 347.43 164.31 345.38 159.94 C 347.67 155.98 351.98 153.53 354.94 150.03 C 355.68 147.01 353.71 143.28 355.62 140.71 Z" />
<path fill="#000000" opacity="1.00" d=" M 512.12 146.36 C 525.42 145.12 539.02 145.32 552.04 148.57 C 553.60 148.87 554.85 149.87 556.05 150.85 C 555.85 151.55 555.44 152.94 555.24 153.63 C 539.46 153.81 523.71 152.15 507.94 152.03 C 501.10 152.84 494.54 155.06 487.97 157.04 C 486.70 157.32 484.70 157.69 484.43 155.92 C 483.72 154.78 484.90 153.53 485.99 153.30 C 494.50 150.34 503.23 147.85 512.12 146.36 Z" />
<path fill="#000000" opacity="1.00" d=" M 385.12 151.95 C 387.69 149.70 390.91 146.92 394.56 148.44 C 395.18 150.04 395.30 151.66 394.36 153.16 C 389.10 156.01 385.21 161.14 383.97 167.00 C 381.76 176.91 383.39 187.21 385.78 196.93 C 386.25 199.23 387.41 201.59 386.75 203.98 C 385.81 205.79 383.47 205.11 381.83 205.24 C 378.44 195.90 376.95 185.92 376.52 176.02 C 376.63 167.43 378.42 157.95 385.12 151.95 Z" />
<path fill="#000000" opacity="1.00" d=" M 436.02 167.01 C 445.56 159.19 457.64 154.23 470.03 153.95 C 472.18 154.23 472.44 157.46 470.32 158.19 C 457.90 164.15 445.51 170.23 433.02 176.05 C 431.39 177.00 430.22 175.22 429.44 174.12 C 430.94 171.19 433.57 169.12 436.02 167.01 Z" />
<path fill="#000000" opacity="1.00" d=" M 575.31 155.05 C 576.00 153.27 578.26 153.15 579.90 153.26 C 600.03 155.26 619.61 161.86 637.13 171.94 C 657.03 183.90 674.80 199.40 689.47 217.39 C 691.61 220.27 687.90 222.92 685.19 221.84 C 680.86 215.93 675.62 210.74 670.45 205.57 C 662.26 197.33 653.36 189.78 643.78 183.21 C 640.85 181.43 638.24 179.03 634.93 177.97 C 619.84 172.84 604.75 167.72 589.69 162.52 C 585.74 161.43 582.02 159.54 577.92 158.99 C 575.87 159.12 574.89 156.77 575.31 155.05 Z" />
<path fill="#000000" opacity="1.00" d=" M 460.65 179.85 C 477.58 174.77 495.33 172.09 513.03 172.50 C 526.56 172.18 540.12 174.30 553.16 177.77 C 556.07 177.87 555.40 182.94 552.58 182.30 C 543.58 180.08 534.41 177.75 525.06 178.25 C 515.05 178.05 505.07 178.69 495.06 178.51 C 484.17 178.17 473.57 181.15 463.10 183.75 C 460.42 184.37 460.40 181.71 460.65 179.85 Z" />
<path fill="#000000" opacity="1.00" d=" M 337.91 177.80 C 336.51 175.76 338.49 173.02 340.88 174.43 C 347.06 178.18 353.52 182.57 357.07 189.05 C 359.35 194.17 353.63 199.16 348.70 198.57 C 347.32 194.41 348.72 189.93 348.79 185.64 C 345.44 182.65 341.53 180.43 337.91 177.80 M 352.31 191.22 C 352.82 191.79 352.82 191.79 352.31 191.22 Z" />
<path fill="#000000" opacity="1.00" d=" M 582.06 186.21 C 598.09 186.56 613.06 194.17 625.36 204.02 C 625.23 205.42 625.93 207.61 623.88 207.82 C 622.35 207.86 621.26 206.64 620.10 205.85 C 609.32 197.34 596.16 191.52 582.37 190.54 C 581.98 190.14 581.20 189.34 580.81 188.94 C 581.22 188.03 581.63 187.11 582.06 186.21 Z" />
<path fill="#000000" opacity="1.00" d=" M 321.16 197.80 C 320.18 195.51 322.29 193.59 324.47 194.68 C 329.93 197.75 335.22 201.14 340.63 204.33 C 340.42 205.44 340.64 206.79 339.70 207.63 C 337.35 208.38 335.40 206.62 333.52 205.54 C 329.45 202.88 325.00 200.79 321.16 197.80 Z" />
<path fill="#000000" opacity="1.00" d=" M 491.73 202.07 C 492.00 199.80 493.33 197.80 495.88 198.01 C 511.68 198.35 527.86 198.45 543.03 203.45 C 556.58 207.04 569.45 213.63 579.66 223.32 C 591.54 234.32 599.30 249.29 602.98 264.95 C 604.05 268.40 598.32 269.65 597.25 266.79 C 592.69 248.70 580.61 233.02 565.53 222.31 C 556.10 215.50 545.24 210.84 534.00 207.99 C 521.43 203.76 507.97 204.58 494.91 203.96 C 493.48 204.19 492.67 202.82 491.73 202.07 Z" />
<path fill="#000000" opacity="1.00" d=" M 400.25 215.15 C 403.53 213.32 406.82 210.49 410.84 211.16 C 410.87 211.91 410.95 213.39 410.98 214.14 C 409.70 215.58 407.47 215.79 406.39 217.47 C 399.59 225.99 392.51 234.28 385.80 242.87 C 384.22 246.70 384.39 251.02 383.85 255.09 C 383.25 256.90 381.27 256.84 379.90 255.96 C 378.93 252.33 380.07 248.54 380.46 244.90 C 382.28 232.71 389.61 221.44 400.25 215.15 Z" />
<path fill="#000000" opacity="1.00" d=" M 494.28 220.91 C 493.99 216.82 498.85 215.43 501.97 216.94 C 519.13 223.80 535.15 233.75 548.43 246.64 C 561.19 259.30 571.18 274.71 577.59 291.50 C 578.89 294.93 581.10 299.03 578.16 302.28 C 575.92 303.09 572.76 303.49 571.47 300.97 C 568.70 294.16 566.51 286.97 562.25 280.88 C 551.19 265.17 537.43 251.48 522.24 239.78 C 516.31 235.17 510.39 230.33 503.35 227.52 C 500.04 225.74 495.16 225.33 494.28 220.91 Z" />
<path fill="#000000" opacity="1.00" d=" M 443.59 218.50 C 445.02 217.78 446.63 217.79 448.20 217.69 C 448.40 219.25 449.09 221.47 447.08 222.17 C 437.86 227.81 429.15 234.25 420.11 240.17 C 415.03 244.61 411.54 250.57 408.26 256.40 C 407.45 258.38 403.30 257.20 404.35 254.96 C 405.78 250.69 408.63 247.04 411.16 243.36 C 414.40 238.60 419.06 235.15 423.07 231.09 C 429.20 225.87 436.22 221.72 443.59 218.50 Z" />
<path fill="#000000" opacity="1.00" d=" M 620.14 232.05 C 620.36 231.03 620.58 230.01 620.81 229.00 C 621.55 229.01 623.04 229.02 623.78 229.03 C 630.13 234.81 635.80 241.78 638.48 250.05 C 639.67 254.07 640.28 258.71 638.10 262.52 C 637.33 262.46 635.79 262.35 635.02 262.29 C 632.73 255.32 631.04 248.16 628.71 241.20 C 626.56 237.58 623.12 234.96 620.14 232.05 Z" />
<path fill="#000000" opacity="1.00" d=" M 321.28 238.13 C 322.30 236.61 324.33 237.54 325.83 237.31 C 330.26 241.58 335.39 245.08 339.87 249.30 C 341.19 251.07 339.71 253.18 338.74 254.76 C 336.96 254.58 334.82 255.03 333.47 253.56 C 329.58 250.06 325.28 247.05 321.43 243.51 C 319.58 242.14 320.47 239.80 321.28 238.13 Z" />
<path fill="#000000" opacity="1.00" d=" M 454.56 247.77 C 466.64 246.34 478.92 247.51 490.68 250.55 C 493.49 251.35 496.48 251.76 499.03 253.28 C 500.08 254.60 499.56 256.51 498.22 257.41 C 482.40 253.14 465.43 252.19 449.46 256.22 C 438.96 258.97 429.02 263.80 420.32 270.29 C 419.10 271.44 417.24 270.64 416.89 269.10 C 417.45 265.82 420.48 263.86 422.80 261.80 C 431.73 254.17 442.92 249.26 454.56 247.77 Z" />
<path fill="#000000" opacity="1.00" d=" M 352.42 249.60 C 358.73 247.72 365.88 247.95 371.76 251.10 C 380.76 255.63 387.37 263.55 393.20 271.55 C 396.69 276.48 400.05 281.51 402.76 286.92 C 402.40 279.83 399.90 273.10 397.56 266.47 C 396.78 264.31 400.72 262.81 401.49 265.02 C 405.20 274.28 408.13 284.16 407.76 294.24 C 409.87 296.80 407.40 300.54 409.99 303.01 C 413.95 300.32 418.89 298.59 421.05 293.98 C 422.48 291.13 426.81 288.05 424.99 284.72 C 421.16 286.15 418.05 288.94 414.75 291.27 C 413.55 292.27 411.15 291.77 410.71 290.15 C 411.16 287.02 413.62 284.81 415.71 282.67 C 423.97 275.25 435.15 271.81 446.03 270.87 C 450.64 269.86 455.21 268.26 460.01 268.53 C 461.85 269.71 463.86 270.62 465.85 271.53 C 466.30 275.38 461.24 274.96 458.83 276.28 C 459.30 278.74 461.31 280.38 462.77 282.28 C 477.72 281.21 493.09 285.04 505.36 293.74 C 518.06 302.13 528.39 313.65 536.94 326.14 C 537.91 327.84 537.96 331.28 535.53 331.66 C 534.43 331.92 533.32 332.06 532.19 332.08 C 521.59 317.17 508.85 302.85 491.80 295.31 C 478.29 289.23 462.70 288.80 448.51 292.62 C 436.95 295.77 426.07 301.20 416.16 307.87 C 417.74 310.17 419.28 312.51 420.53 315.02 C 425.04 313.45 427.88 309.18 432.11 307.10 C 442.00 301.17 453.16 296.16 464.96 296.99 C 478.03 297.10 489.32 305.26 497.53 314.80 C 498.72 320.89 497.00 327.44 493.52 332.52 C 488.14 339.02 479.12 340.92 471.05 340.77 C 461.49 341.16 452.19 338.41 443.06 335.94 C 439.59 334.52 435.64 334.15 432.60 331.82 C 430.69 334.18 427.84 335.97 426.87 338.96 C 426.47 343.35 427.92 347.65 428.19 352.01 C 428.31 356.35 428.67 360.69 428.36 365.04 C 428.07 371.80 429.85 378.40 430.12 385.13 C 436.04 397.70 433.98 412.26 430.03 425.10 C 437.22 423.29 445.45 423.92 451.39 428.73 C 461.21 436.16 466.57 447.77 471.08 458.89 C 476.82 473.76 480.71 489.30 483.64 504.95 C 483.41 507.02 486.51 508.56 484.74 510.53 C 480.58 516.01 475.83 521.02 471.73 526.54 C 470.20 530.39 468.78 534.77 470.03 538.90 C 470.82 541.09 473.32 541.60 475.33 542.05 C 475.32 542.77 475.31 544.20 475.30 544.91 C 471.48 552.28 466.02 559.38 465.71 568.00 C 465.32 570.52 467.62 573.32 465.64 575.50 C 460.37 583.14 455.44 591.01 450.07 598.58 C 447.82 598.73 445.01 597.82 445.37 595.02 C 448.56 589.26 453.46 584.39 455.22 577.91 C 456.15 574.65 458.00 571.49 458.33 568.18 C 456.22 567.15 455.54 564.54 456.79 562.58 C 460.55 556.42 464.90 550.64 469.33 544.96 C 465.42 542.35 464.37 537.19 465.39 532.84 C 467.15 523.91 471.42 515.74 475.88 507.89 C 476.77 506.67 475.96 505.17 475.82 503.88 C 471.54 484.16 466.92 464.04 456.62 446.46 C 453.56 440.77 448.96 435.67 442.96 433.03 C 438.83 431.21 434.26 432.25 429.95 432.66 C 428.38 433.34 426.74 434.39 426.05 436.04 C 423.49 441.68 420.72 447.23 417.82 452.71 C 416.64 452.67 415.46 452.64 414.29 452.61 C 413.92 451.45 413.93 450.30 414.31 449.16 C 418.60 434.62 423.05 420.12 427.44 405.60 C 428.74 401.81 427.51 397.81 427.41 393.94 C 427.41 389.21 424.92 384.98 423.23 380.74 C 420.67 379.53 418.74 377.25 416.13 376.19 C 409.62 374.24 402.65 374.04 395.96 374.95 C 387.78 376.32 380.47 381.06 375.06 387.23 C 374.39 387.05 373.03 386.68 372.35 386.50 C 371.62 383.31 371.33 380.01 370.30 376.90 C 368.75 374.47 366.43 372.65 364.69 370.37 C 358.29 369.59 352.09 371.42 345.91 372.75 C 339.85 380.49 333.87 389.04 332.59 399.02 C 331.96 408.16 336.92 416.48 342.31 423.45 C 343.56 424.86 341.96 426.19 341.02 427.14 C 336.59 425.15 333.65 421.00 330.05 417.88 C 319.67 417.43 309.51 422.01 302.50 429.58 C 295.91 436.83 290.61 445.47 287.90 454.92 C 286.37 465.27 284.63 475.61 283.38 485.99 C 286.36 507.08 295.68 527.21 309.85 543.13 C 311.73 544.79 311.39 548.14 309.13 549.29 C 308.24 552.51 307.27 555.73 306.76 559.03 C 307.52 563.25 308.30 567.50 309.54 571.60 C 314.47 580.63 321.26 588.43 327.81 596.30 C 329.73 598.50 327.50 600.65 325.06 600.09 C 318.18 592.13 311.28 584.06 306.19 574.80 C 302.82 569.10 299.58 562.70 300.07 555.89 C 300.91 551.69 300.63 547.35 300.00 543.15 C 284.19 523.02 274.91 497.76 274.53 472.13 C 278.81 454.92 284.69 437.21 297.05 424.01 C 305.03 415.38 316.55 409.83 328.44 410.43 C 329.46 407.32 327.75 404.11 327.91 400.94 C 327.11 389.34 332.77 378.73 338.92 369.35 C 344.93 366.24 351.04 362.42 358.06 362.49 C 357.71 361.34 357.36 360.20 357.00 359.06 C 349.85 356.07 342.06 357.07 334.59 357.57 C 334.70 356.01 333.82 353.55 336.04 353.19 C 342.66 351.29 349.72 352.25 356.32 353.81 C 358.06 351.53 358.12 348.69 358.12 345.94 C 351.27 348.04 343.94 347.02 337.44 344.24 C 337.19 342.54 337.63 339.94 340.08 340.80 C 345.39 342.83 351.28 343.59 356.81 341.90 C 356.68 339.76 357.44 337.89 358.99 336.43 C 362.33 335.57 366.26 336.93 369.07 334.51 C 371.85 332.46 374.88 330.76 377.57 328.60 C 377.66 328.29 377.83 327.68 377.92 327.37 C 370.25 327.72 362.73 330.06 355.00 329.75 C 345.66 330.01 335.64 329.62 327.58 324.34 C 322.85 321.34 319.62 316.38 318.45 310.95 C 318.20 309.50 317.47 307.85 318.67 306.62 C 324.17 299.40 331.84 293.32 340.90 291.45 C 347.09 290.50 353.52 290.83 359.51 292.71 C 366.71 294.73 372.58 299.58 379.03 303.14 C 384.53 303.58 390.89 302.57 395.60 306.00 C 394.07 303.67 390.87 302.51 389.02 300.27 C 386.13 300.16 383.10 298.98 381.78 296.24 C 380.28 293.27 376.88 292.07 373.88 291.23 C 369.85 290.63 366.28 288.01 362.08 288.48 C 350.35 288.96 338.39 287.29 326.88 290.12 C 325.16 293.16 321.79 293.73 318.57 293.64 C 318.56 293.09 318.54 291.99 318.53 291.44 C 324.45 286.04 332.12 281.17 340.47 282.31 C 341.58 281.61 342.51 280.45 343.89 280.34 C 349.62 280.08 355.42 280.08 361.04 281.36 C 363.91 282.10 367.11 282.34 369.50 284.29 C 372.35 284.48 374.63 286.21 377.07 287.50 C 380.18 288.56 383.40 289.52 385.89 291.79 C 385.26 289.05 382.68 287.43 381.02 285.33 C 374.12 283.30 367.46 280.51 360.54 278.57 C 348.67 278.48 336.78 278.24 324.93 279.08 C 322.63 281.29 319.61 282.46 316.63 283.42 C 312.38 284.15 311.02 289.72 306.40 289.67 C 305.11 291.22 303.18 291.16 301.42 290.54 C 300.83 286.22 303.44 282.15 307.19 280.19 C 312.05 277.62 317.51 275.80 323.07 275.96 C 324.29 276.00 325.33 275.57 326.21 274.70 C 336.46 273.22 346.90 274.77 357.15 273.51 C 347.19 271.46 337.19 269.49 327.04 268.65 C 325.41 268.64 323.82 266.59 324.98 265.17 C 325.77 263.85 327.45 263.67 328.80 263.42 C 342.16 261.60 356.46 262.70 368.28 269.70 C 378.85 275.40 386.70 284.74 393.90 294.12 C 397.39 296.61 399.66 300.23 401.53 304.01 C 401.46 300.80 403.08 297.84 402.36 294.57 C 400.21 292.36 399.01 289.47 397.26 286.97 C 389.73 275.51 380.51 264.48 368.03 258.26 C 362.99 255.77 357.46 254.66 351.90 254.21 C 349.03 253.66 350.04 250.06 352.42 249.60 M 367.34 301.15 C 368.91 309.10 368.55 317.68 363.98 324.64 C 366.11 324.27 368.26 324.00 370.42 323.80 C 369.68 320.06 369.14 316.02 370.54 312.36 C 370.99 311.03 372.48 310.92 373.59 310.45 C 373.88 308.51 374.35 306.53 373.47 304.68 C 371.38 303.57 369.37 302.33 367.34 301.15 M 472.98 302.93 C 474.68 306.17 476.58 309.37 477.43 312.98 C 479.76 320.92 478.08 329.93 473.30 336.64 C 477.57 335.61 482.15 335.41 485.93 332.92 C 491.07 330.36 493.06 324.29 493.46 318.94 C 493.94 317.39 492.58 316.31 491.71 315.29 C 486.50 309.87 480.29 305.04 472.98 302.93 M 446.49 309.30 C 444.83 312.36 447.93 314.99 450.52 315.99 C 451.02 314.67 451.53 313.36 452.04 312.05 C 450.19 311.12 448.36 310.18 446.49 309.30 M 382.92 316.00 C 383.39 318.35 383.69 320.86 385.16 322.84 C 386.70 325.45 389.70 326.43 392.24 327.74 C 393.99 328.51 392.47 330.50 392.18 331.70 C 389.35 331.31 386.61 330.50 383.88 329.68 C 380.57 331.93 377.14 334.00 374.04 336.54 C 376.63 336.84 379.28 337.11 381.67 338.25 C 381.74 339.61 381.97 341.98 379.99 342.01 C 374.08 341.02 368.15 340.14 362.12 340.43 C 362.56 343.27 362.53 346.16 362.49 349.03 C 367.87 349.20 373.52 348.26 378.63 350.45 C 380.12 352.59 379.90 355.39 378.42 357.48 C 375.92 358.79 374.41 355.79 372.03 355.86 C 368.20 355.20 364.31 355.00 360.46 354.61 C 361.10 356.87 361.78 359.16 362.99 361.20 C 364.03 363.75 367.22 363.98 369.04 365.79 C 372.42 369.50 374.74 374.11 375.82 379.00 C 378.42 377.89 380.12 375.16 382.60 373.69 C 390.35 367.62 400.83 364.18 410.47 367.40 C 413.54 368.75 416.34 370.61 419.20 372.35 C 417.08 367.67 415.95 362.62 414.23 357.80 C 411.16 354.89 407.30 353.03 403.83 350.66 C 404.46 349.86 404.69 348.21 406.01 348.32 C 410.54 347.62 414.93 350.26 418.00 353.33 C 418.13 353.31 418.41 353.27 418.55 353.26 C 415.94 348.89 413.03 344.67 410.78 340.10 C 410.94 338.48 412.47 337.72 413.94 337.67 C 417.25 337.39 418.66 340.89 420.48 343.00 L 420.52 342.64 C 417.64 337.47 420.04 331.48 418.95 325.98 C 418.33 323.83 416.93 322.02 415.83 320.11 C 411.22 319.29 406.77 317.65 402.07 317.34 C 395.69 316.87 389.31 316.41 382.92 316.00 M 425.07 318.86 C 424.85 321.55 427.00 324.45 426.96 327.41 C 428.37 326.96 428.75 325.60 429.26 324.40 C 431.83 323.68 434.30 322.68 436.77 321.70 C 436.62 320.54 436.49 319.38 436.36 318.23 C 432.59 318.08 428.80 318.38 425.07 318.86 Z" />
<path fill="#000000" opacity="1.00" d=" M 569.33 251.51 C 573.20 250.98 576.28 253.69 579.49 255.39 C 587.67 260.28 595.54 267.31 597.92 276.91 C 598.48 279.86 599.50 283.18 597.93 286.00 C 596.39 287.24 593.61 286.38 594.03 284.15 C 594.35 277.96 591.64 271.99 587.52 267.49 C 582.48 261.93 575.83 258.24 569.24 254.85 C 569.26 253.73 569.29 252.62 569.33 251.51 Z" />
<path fill="#000000" opacity="1.00" d=" M 676.97 311.37 C 680.47 310.71 684.04 309.53 687.62 310.33 C 687.59 311.77 688.32 314.06 686.17 314.23 C 680.76 315.35 675.20 316.09 670.05 318.11 C 664.71 321.62 659.72 325.66 654.48 329.33 C 652.49 330.87 649.91 332.12 649.15 334.71 C 657.29 331.27 666.31 329.13 675.15 330.67 C 680.65 332.21 685.16 336.40 687.43 341.60 C 690.05 347.68 690.82 354.40 690.75 360.96 C 691.38 363.70 688.39 364.04 686.50 363.44 C 686.02 356.08 686.14 348.20 682.13 341.69 C 680.30 338.64 677.46 336.11 674.12 334.86 C 663.89 332.98 653.96 337.14 644.86 341.32 C 645.72 343.41 646.77 345.42 647.84 347.42 C 651.54 343.42 657.21 344.18 662.12 344.34 C 665.51 349.95 670.01 354.78 673.87 360.06 C 676.74 363.47 675.90 368.01 675.07 371.98 C 674.22 379.76 671.31 387.15 667.64 394.01 C 666.55 394.90 663.73 394.93 663.70 393.01 C 665.04 386.64 670.86 380.75 668.45 373.94 C 667.00 368.85 666.06 363.63 664.41 358.60 C 660.25 357.58 655.97 357.74 651.72 357.71 C 650.85 358.21 649.99 358.72 649.13 359.23 C 647.58 359.26 645.92 358.84 644.54 359.72 C 640.85 361.84 637.12 364.21 634.60 367.71 C 634.32 370.30 633.88 373.15 635.31 375.50 C 640.93 374.47 647.77 373.61 652.62 377.31 C 659.33 384.23 656.54 394.76 653.95 402.89 C 653.60 404.88 651.09 404.01 649.75 404.23 C 649.67 403.67 649.50 402.56 649.42 402.01 C 650.90 396.50 652.81 390.80 651.69 385.03 C 651.03 382.70 649.67 380.08 647.05 379.63 C 642.86 378.82 638.50 379.19 634.40 380.30 C 631.41 387.02 632.47 395.01 636.53 401.04 C 639.60 405.23 641.04 410.30 642.97 415.06 C 650.97 415.93 656.30 423.21 658.46 430.41 C 661.04 439.34 660.93 448.85 659.80 458.00 C 658.96 459.71 656.83 458.78 655.44 458.50 C 656.02 447.94 657.64 435.93 650.81 426.93 C 648.82 426.50 646.55 423.91 644.73 425.28 C 645.45 431.49 646.77 437.67 646.50 443.95 C 646.41 450.25 646.81 456.85 649.71 462.56 C 651.21 465.54 654.22 467.38 657.52 467.70 C 659.28 469.42 659.95 473.42 657.10 474.36 C 651.63 476.06 645.91 472.29 643.32 467.58 C 638.70 459.18 638.94 449.31 638.94 440.02 C 638.10 433.03 637.42 426.01 636.17 419.09 C 634.30 413.53 632.40 407.86 629.07 402.99 C 627.25 399.66 626.16 396.00 624.41 392.64 C 623.60 390.85 622.40 389.10 622.49 387.05 C 622.51 378.02 622.50 368.98 622.50 359.94 C 622.44 358.20 623.06 356.54 623.93 355.06 C 629.56 346.09 635.13 337.05 640.79 328.10 C 641.16 326.19 643.07 326.05 644.61 325.64 C 653.52 317.52 665.45 313.95 676.97 311.37 Z" />
<path fill="#000000" opacity="1.00" d=" M 278.09 362.75 C 275.64 359.91 278.34 355.19 281.89 355.17 C 289.25 354.36 296.73 354.73 304.13 354.99 C 304.51 356.36 304.48 357.77 304.16 359.16 C 296.85 359.73 289.38 358.38 282.18 360.00 C 281.88 361.04 281.57 362.09 281.26 363.15 C 280.47 363.05 278.88 362.85 278.09 362.75 Z" />
<path fill="#000000" opacity="1.00" d=" M 553.54 362.95 C 552.55 360.56 555.31 360.10 557.00 360.21 C 568.02 372.99 577.78 386.94 585.40 402.03 C 595.05 421.39 600.93 442.66 602.29 464.26 C 601.96 466.38 599.59 465.34 598.14 465.57 C 596.75 452.34 594.69 439.11 590.36 426.48 C 583.53 405.46 572.16 386.11 558.30 368.98 C 556.72 366.96 554.90 365.12 553.54 362.95 Z" />
<path fill="#000000" opacity="1.00" d=" M 284.47 393.08 C 291.13 380.62 303.28 371.46 316.96 368.09 C 318.52 367.76 320.97 367.09 321.76 369.09 C 322.25 370.67 320.77 371.77 319.56 372.42 C 304.60 380.97 292.45 393.74 282.85 407.91 C 282.10 409.64 280.17 408.34 278.94 408.05 C 279.05 402.62 282.06 397.79 284.47 393.08 Z" />
<path fill="#000000" opacity="1.00" d=" M 502.29 379.90 C 501.03 378.13 501.69 375.35 503.86 374.71 C 508.13 374.44 512.06 376.44 515.98 377.85 C 531.06 383.69 545.00 393.61 553.46 407.62 C 554.68 410.01 557.11 411.49 557.98 414.10 C 559.45 417.95 562.52 421.31 562.59 425.59 C 572.88 441.31 577.35 459.83 584.95 476.84 C 588.71 484.34 588.10 493.00 587.71 501.12 C 589.77 507.90 591.04 514.91 592.50 521.84 C 592.95 526.08 586.02 526.87 585.08 522.99 C 583.63 517.37 582.62 511.65 581.23 506.02 C 580.47 504.00 581.46 502.09 582.36 500.34 C 581.95 497.77 581.66 495.19 581.34 492.62 C 580.67 492.56 579.33 492.44 578.65 492.38 C 576.78 488.81 576.23 484.76 575.30 480.89 C 574.64 478.89 576.47 477.55 577.66 476.30 C 572.00 460.46 563.61 445.76 557.95 429.92 C 557.81 428.19 556.35 427.82 554.89 427.80 C 551.79 421.93 548.08 416.28 546.19 409.87 C 537.24 396.06 522.42 387.19 506.98 382.36 C 505.33 381.72 503.08 381.80 502.29 379.90 Z" />
<path fill="#000000" opacity="1.00" d=" M 347.97 394.08 C 355.74 393.22 364.31 395.62 369.34 401.89 C 374.84 408.98 376.82 418.19 376.53 427.02 C 376.42 430.36 376.69 434.41 374.01 436.87 C 371.15 438.54 367.78 436.04 367.82 432.94 C 368.03 427.64 367.58 422.08 369.59 417.07 C 370.53 414.80 370.07 411.64 367.60 410.58 C 362.31 408.10 356.47 407.03 350.68 406.65 C 349.69 409.69 350.44 412.87 350.06 415.97 C 349.83 417.75 347.73 418.15 346.30 417.69 C 344.59 416.34 344.50 413.99 344.29 412.02 C 344.21 407.65 344.22 403.27 344.26 398.90 C 344.32 396.78 345.73 394.40 347.97 394.08 Z" />
<path fill="#000000" opacity="1.00" d=" M 474.31 394.23 C 476.91 393.60 479.52 394.58 482.06 395.08 C 498.50 398.97 513.49 409.18 522.42 423.61 C 523.54 425.26 524.34 427.25 526.10 428.37 C 529.22 435.06 532.18 441.82 535.29 448.52 C 536.06 449.81 536.13 451.33 535.39 452.66 C 543.58 469.85 545.74 489.12 546.02 507.94 C 545.96 509.49 546.23 512.00 544.12 512.31 C 543.49 512.12 542.23 511.74 541.60 511.55 C 541.42 500.74 541.02 489.85 538.83 479.23 C 535.01 468.45 530.83 457.79 527.00 447.01 C 523.26 445.54 523.89 441.07 521.72 438.34 C 512.07 425.38 500.06 414.09 486.12 405.85 C 483.51 404.38 481.04 402.40 477.99 401.97 C 476.30 401.52 474.36 401.56 472.99 400.34 C 470.78 398.86 471.50 394.50 474.31 394.23 Z" />
<path fill="#000000" opacity="1.00" d=" M 395.87 399.51 C 401.25 396.49 407.62 395.67 413.68 396.47 C 416.89 397.25 418.73 400.80 418.15 403.96 C 417.55 408.09 419.45 412.97 416.40 416.47 C 415.02 418.40 412.35 417.61 410.35 417.61 C 409.31 415.64 408.84 413.47 408.48 411.30 C 405.16 412.09 401.71 412.89 398.93 414.96 C 395.54 417.07 396.11 421.95 393.01 424.38 C 389.37 427.85 386.52 432.02 383.18 435.74 C 382.69 435.56 381.70 435.18 381.21 434.99 C 378.74 427.82 380.84 419.74 384.06 413.07 C 386.42 407.47 390.43 402.38 395.87 399.51 Z" />
<path fill="#000000" opacity="1.00" d=" M 268.94 423.94 C 271.62 421.43 274.16 418.10 278.11 417.77 C 278.47 418.86 279.85 420.49 278.38 421.38 C 274.86 424.22 270.65 427.11 269.74 431.88 C 269.06 434.19 270.86 436.83 269.01 438.84 C 268.27 438.80 266.78 438.71 266.03 438.67 C 263.28 433.79 265.15 427.68 268.94 423.94 Z" />
<path fill="#000000" opacity="1.00" d=" M 331.43 462.81 C 331.95 461.01 333.71 461.41 335.12 461.53 C 341.93 471.23 349.63 480.31 356.62 489.90 C 356.07 492.60 352.77 492.42 350.83 491.42 C 345.07 488.71 341.47 483.10 338.28 477.83 C 335.68 472.99 332.95 468.10 331.43 462.81 Z" />
<path fill="#000000" opacity="1.00" d=" M 410.43 467.30 C 412.28 466.55 414.01 469.39 412.99 470.96 C 410.30 479.02 407.33 487.28 401.90 493.94 C 399.86 496.08 397.21 498.75 393.96 497.88 C 392.20 497.74 391.78 495.15 392.96 494.01 C 397.57 486.31 402.52 478.82 407.20 471.16 C 408.11 469.76 408.88 468.12 410.43 467.30 Z" />
<path fill="#000000" opacity="1.00" d=" M 297.95 477.08 C 300.40 473.67 305.04 472.96 308.94 472.75 C 313.18 472.88 317.58 472.19 321.67 473.61 C 322.90 474.43 322.93 477.69 321.06 477.67 C 315.72 477.28 309.31 476.03 304.95 480.00 C 301.67 484.20 303.96 489.78 305.45 494.24 C 304.45 495.38 303.19 495.82 301.66 495.54 C 298.19 490.24 295.02 483.32 297.95 477.08 Z" />
<path fill="#000000" opacity="1.00" d=" M 316.19 482.97 C 317.40 481.50 319.25 482.54 320.47 483.35 C 328.88 488.72 337.20 494.23 345.70 499.45 C 352.95 501.30 360.43 502.88 367.97 502.50 C 389.09 502.86 410.26 501.47 431.10 497.97 C 434.37 497.37 437.62 496.53 440.98 496.76 C 441.29 497.87 442.47 499.21 441.32 500.27 C 419.39 508.73 395.27 509.94 371.98 508.15 C 361.63 506.97 351.11 506.15 341.11 503.07 C 332.28 499.73 322.84 495.77 317.23 487.78 C 316.53 486.33 314.70 484.52 316.19 482.97 Z" />
<path fill="#000000" opacity="1.00" d=" M 312.57 495.54 C 314.23 495.22 316.30 494.67 317.65 496.03 C 331.64 508.17 349.63 515.12 367.95 517.05 C 385.41 518.57 403.05 516.88 420.00 512.46 C 424.52 511.62 428.87 509.29 433.55 509.65 C 437.30 511.14 435.32 515.34 433.56 517.64 C 433.32 517.42 432.83 516.99 432.59 516.77 C 413.50 526.19 392.55 533.46 370.98 532.51 C 347.48 532.35 325.52 519.06 311.63 500.57 C 310.78 498.91 311.30 496.82 312.57 495.54 Z" />
</g>
<g id="#030303ff">
<path fill="#030303" opacity="1.00" d=" M 354.37 173.71 C 352.78 171.62 355.43 170.14 357.35 170.41 C 361.77 175.33 366.93 179.54 371.55 184.26 C 373.21 185.79 370.61 188.46 368.87 187.36 C 363.86 182.99 359.21 178.24 354.37 173.71 Z" />
</g>
<g id="#484848ff">
<path fill="#484848" opacity="1.00" d=" M 352.31 191.22 C 352.82 191.79 352.82 191.79 352.31 191.22 Z" />
</g>
<g id="#fdfdfdff">
<path fill="#fdfdfd" opacity="1.00" d=" M 367.34 301.15 C 369.37 302.33 371.38 303.57 373.47 304.68 C 374.35 306.53 373.88 308.51 373.59 310.45 C 372.48 310.92 370.99 311.03 370.54 312.36 C 369.14 316.02 369.68 320.06 370.42 323.80 C 368.26 324.00 366.11 324.27 363.98 324.64 C 368.55 317.68 368.91 309.10 367.34 301.15 Z" />
</g>
<g id="#fefefeff">
<path fill="#fefefe" opacity="1.00" d=" M 425.07 318.86 C 428.80 318.38 432.59 318.08 436.36 318.23 C 436.49 319.38 436.62 320.54 436.77 321.70 C 434.30 322.68 431.83 323.68 429.26 324.40 C 428.75 325.60 428.37 326.96 426.96 327.41 C 427.00 324.45 424.85 321.55 425.07 318.86 Z" />
</g>
<g id="#010101ff">
<path fill="#010101" opacity="1.00" d=" M 576.94 334.86 C 578.29 334.90 580.45 334.13 581.12 335.85 C 581.95 338.64 582.17 341.91 580.71 344.54 C 578.24 348.40 573.46 350.50 568.95 350.19 C 566.97 350.16 566.04 347.87 567.49 346.49 C 570.69 345.36 574.74 345.23 576.80 342.09 C 577.25 339.71 576.81 337.27 576.94 334.86 Z" />
<path fill="#010101" opacity="1.00" d=" M 534.15 345.18 C 537.24 345.24 541.32 344.82 543.02 348.09 C 544.83 351.28 543.85 358.00 538.95 357.03 C 535.65 355.63 534.47 351.73 532.76 348.86 C 531.49 347.36 533.18 346.15 534.15 345.18 Z" />
<path fill="#010101" opacity="1.00" d=" M 442.00 480.94 C 440.63 479.20 442.75 477.85 444.19 477.44 C 448.63 480.81 453.25 484.25 456.34 488.97 C 459.42 493.45 457.21 499.10 458.36 504.09 C 459.23 509.92 453.43 514.74 447.93 514.58 C 445.82 514.39 446.23 512.00 446.59 510.60 C 448.98 509.87 451.84 509.39 453.25 507.05 C 452.90 503.66 452.54 500.12 450.87 497.09 C 447.89 491.72 444.80 486.40 442.00 480.94 Z" />
</g>
</svg>
