<?xml version="1.0" encoding="utf-8"?>
<!-- Generator: Adobe Illustrator 15.0.2, SVG Export Plug-In . SVG Version: 6.00 Build 0)  -->
<!DOCTYPE svg PUBLIC "-//W3C//DTD SVG 1.1//EN" "http://www.w3.org/Graphics/SVG/1.1/DTD/svg11.dtd">
<svg version="1.1" id="Layer_1" xmlns="http://www.w3.org/2000/svg" xmlns:xlink="http://www.w3.org/1999/xlink" x="0px" y="0px"
	 width="247px" height="240px" viewBox="0 0 247 240" enable-background="new 0 0 247 240" xml:space="preserve">
<path fill="#FFFFFF" d="M0,0h132.141C115.52,0.55,98.66,5.17,85.23,15.24c-7.01,5.11-11.15,12.93-16.69,19.41
	c-4.45,7.31-5.91,16.01-7.33,24.33c-1.75,12.21-4.29,24.57-2.75,36.95c0.13,6.17,1.24,12.3,3.36,18.1
	c4.05,11.43,4.12,24.13,1.12,35.819c-1.26,4.69-3.78,10.051-8.9,11.36c-9.05,0.91-18.61-0.87-27.23,2.71
	c-10.26,4.53-15.48,15.33-19.38,25.189C2.78,199.53,0.63,210.9,0,222.24V0z"/>
<path d="M132.141,0h5.699c5.471,0.28,11.01,0.85,16.23,2.62c3.8,1.23,6.52,4.32,9.52,6.81c5.35,4.97,11.25,9.62,14.939,16.05
	c6.301,10.74,11.191,22.3,14.631,34.25c0.369,2.33,2.68,3.23,4.09,4.82c1.98,4.78-0.98,9.63-0.85,14.48
	c0.06,7.31-0.811,14.59-0.74,21.9c2.14,18.73-2.131,37.39-6.551,55.48c1.65,1.439,3.281,3.01,5.351,3.84
	c11.101,4.311,23.91-2.37,34.53,3.87c11.07,6.25,16.189,19.09,18.01,31.1v21.44c-1.12,7.88-1.7,16.15-5.391,23.34h-0.359
	c-0.27-7.21,3.18-13.859,3.32-21.01c0.789-10.67,0.76-21.54-1.62-32.021c-2.14-7.97-6.22-16.149-13.729-20.26
	c-6.16-3.75-13.66-2.78-20.531-2.83c0.08,8.36-0.529,16.761,0.471,25.09c0.55,9.04,3.43,17.681,5,26.561
	c1.43,8.12,4.13,15.97,7.83,23.34c2.71-4.431,4.22-9.45,6.869-13.9c1.611-1.3,3.111-2.72,4.771-3.96
	c-1.88,2.95-4.62,5.221-6.69,8.03c-0.859,3.95-2.619,7.601-4.83,10.96H45.95c1.69-3.8,2.9-7.78,3.91-11.8
	c3.07-12.74,5.87-25.591,7.03-38.67c0.72-8.4,0.34-17.47-4.13-24.88c-8.74,0.5-18.22-2.74-26.36,1.709
	c-7.74,3.871-11.96,11.881-15.67,19.291c-5.46,12.63-8.02,26.369-8.39,40.09c-0.79,1.21-1.59,2.439-2.34,3.689v-7.189
	c0.63-11.34,2.78-22.71,7.43-33.131c3.9-9.859,9.12-20.659,19.38-25.189c8.62-3.58,18.18-1.8,27.23-2.71
	c5.12-1.31,7.64-6.67,8.9-11.36c3-11.689,2.93-24.39-1.12-35.819c-2.12-5.8-3.23-11.93-3.36-18.1c-1.54-12.38,1-24.74,2.75-36.95
	c1.42-8.32,2.88-17.02,7.33-24.33c5.54-6.48,9.68-14.3,16.69-19.41C98.66,5.17,115.52,0.55,132.141,0 M162.939,30.05
	c-4.039,9.74-14.899,12.96-22.56,19.08l-0.62-1.67c-13.14,8.28-23.89,19.66-35.62,29.71c-0.89,0.86-2.06,1.53-2.57,2.7
	c-2.36,5.46-2.35,11.58-1.71,17.39c6.1-0.87,12.25-1.22,18.37-1.92c-1.06-4.9,3.91-7.57,7.879-8.57
	c6.631-1.73,13.361-3.04,20.091-4.36c-7.05,0.03-14.99-3.17-21.31,1.28c1.75-2.33,4.279-3.97,7.149-4.54
	c7-1.52,14.21-1.24,21.31-1.87c-0.649,2.2-2.34,3.64-4.369,4.49c3.979-0.54,9.069-0.55,10.91,3.81c3.119-0.73,5.989-2.22,8.5-4.21
	c-1.17-2.67-1.641-6.19,0.409-8.55c3.45-4.51,8.38-7.86,13.83-9.44c-2.11-6.5-3.44-13.32-6.71-19.39
	C173.05,38.26,169,32.66,162.939,30.05 M178.779,69.01c1.83-1.09,4.851-1.479,5.281-3.93C181.98,65.88,179.6,66.69,178.779,69.01
	 M195.12,65.31C193.66,68.41,198.37,65.63,195.12,65.31 M183.3,68.39c-0.44,0.44-1.34,1.31-1.78,1.74
	c-1.22,0.49-2.42,1.01-3.56,1.65c1.49-0.07,2.729-0.9,4.011-1.57l-0.041,1.7c0.66-0.07,1.99-0.2,2.65-0.26
	c0.05-0.58,0.16-1.75,0.22-2.33C184.42,69.09,183.68,68.62,183.3,68.39 M170.29,78.72c2.66-0.78,3.79-3.97,5.681-5.84
	C173.6,74.28,171.609,76.28,170.29,78.72 M177.84,74.4c-1.3,1.73-2.54,3.5-3.779,5.26c0.779,0.11,2.33,0.33,3.109,0.44
	c-0.6,1.99-3.62,0.96-5.18,1.66c1.18,1.021,2.33,2.21,3.89,2.63c4.41-0.96,8.41-3.17,12.71-4.51c-0.699-1.83-1.55-3.59-2.619-5.23
	c-0.201,0.62-0.601,1.88-0.791,2.51c-0.539-0.59-1.619-1.78-2.15-2.37c0.111,1.31,1.881,3.46-0.1,4.15
	c-1.24,0.2-2.979,2.21-4.05,1.09C178.641,78.13,178.54,76.2,177.84,74.4 M176.93,85.82c-3.31,0.61-5.51-2.22-7.459-4.35l0.35,2.48
	c-3.37,0.96-6.24,3.17-9.711,3.86c-0.029,3.49-1.609,7.4-5.109,8.68c-6.04,2.14-11.939,4.65-18.01,6.7
	c-6.221,2.94-13.04-1.51-17.37-5.89c-6.5,0.53-12.95,1.5-19.44,2.09c1.65,9.07,4.85,18.05,11.27,24.87
	c-9.16-3.34-15.2-11.3-22.45-17.36c-1.96-2.01-3.64-4.39-6.18-5.71c-3.39-1.87-8.17-0.55-9.72,3.11c-1.79,4.4-0.52,9.58,2.18,13.34
	c4.6,6.469,12.14,9.54,18.46,13.93c0.08-1.7-0.58-5.021,2.19-4.45c2.54,0.319,1.72,3.2,1.64,4.93c1.29-0.45,2.84-0.61,3.59-1.92
	c2.31-3.3,0.49-7.31-0.03-10.85c5.59,9.55,11.72,19.04,20.17,26.329c2.44,2.351,5.56,3.801,8.03,6.101
	c-7.74-1.92-13.64-7.979-17.69-14.58c-1.79,2.75-2.89,5.88-4.69,8.61c-3.51,4.64-9.86,4.81-14.44,7.89
	c-3.15,1.761-5.17,5.19-8.74,6.24c-6.05,1.81-12.28,3-18.54,3.85c1.98,6.601,4.75,12.97,8.69,18.64
	c16.4,4.641,33.06,8.531,48.91,14.9c2.23,0.94,3.6,3.09,5.63,4.35c5.2,3.271,11.33,4.711,17.399,5.211
	c-4.25,1.729-8.229-1.87-12.539-1.26c-3.57-2.28-7.62-3.57-11.3-5.621c-2.17-1.17-3.69-3.25-5.88-4.34
	c-6.77-2.619-14.01-3.569-21.03-5.279c-7.01-1.771-13.65-4.721-20.44-7.16c5.75,9.06,14.64,15.58,23.33,21.64
	c12.13,8.24,25.38,14.58,38.09,21.82c6.91,4.5,15.71,5.01,22.12,10.41c5.88-1.841,10.011-6.87,13.44-11.73
	c8.459-12.97,12.609-28.03,17.97-42.39c1.979-6.71,4.36-13.29,7.34-19.62c-3.38-0.94-6.71-2.3-9.13-4.931
	c-2.43,3.461-6.7,4.4-10.57,5.25c-0.73-0.52-1.439-1.039-2.16-1.56c3.601-0.21,7.66-0.93,10.08-3.88
	c2.43-2.939,4.36-6.41,5.36-10.09c1.97-15.67,3.649-31.41,4.41-47.19c-0.91-6.69-3.28-13.11-5.511-19.46
	C185.29,82.92,181.25,84.87,176.93,85.82 M138.91,85.83c3.359,0.7,7.09-0.49,10.449-1.09c-1.049,1.15-1.26,2.45-0.649,3.89
	c-2.649-0.04-5.29-0.38-7.91-0.76c0.851,1.33,1.49,3.07,3.431,2.89c-5.61,3.28-13.771,6.1-19.221,1.14
	c2.54-1.11,4.971-2.49,7.061-4.32c-3.86,1.02-8.21,1.52-11.28,4.31c-1.11,1.61-0.15,3.72,1.21,4.85c3.1,2.66,6.76,5.08,10.88,5.64
	c7.06-2.29,13.88-5.27,20.92-7.63c4.14-1.44,4.49-6.46,3.33-10.05c-1.351-0.36-2.67-1.04-4.101-0.95
	C148.311,84.4,143.59,84.97,138.91,85.83 M129.939,92.48c2.281,0.35,4.58,0.21,6.83-0.26c0.211-1.33,0.44-2.66,0.67-3.99
	C134.891,89.53,131.84,90.21,129.939,92.48z"/>
<path fill="#FFFFFF" d="M137.84,0H247v195.22c-1.82-12.01-6.939-24.85-18.01-31.1c-10.62-6.24-23.43,0.44-34.53-3.87
	c-2.069-0.83-3.7-2.4-5.351-3.84c4.42-18.09,8.69-36.75,6.551-55.48c-0.07-7.31,0.8-14.59,0.74-21.9
	c-0.131-4.85,2.83-9.7,0.85-14.48c-1.41-1.59-3.721-2.49-4.09-4.82c-3.439-11.95-8.33-23.51-14.631-34.25
	c-3.689-6.43-9.59-11.08-14.939-16.05c-3-2.49-5.72-5.58-9.52-6.81C148.85,0.85,143.311,0.28,137.84,0z"/>
<path fill="#FFFFFF" d="M162.939,30.05c6.061,2.61,10.11,8.21,12.98,13.94c3.27,6.07,4.6,12.89,6.71,19.39
	c-5.45,1.58-10.38,4.93-13.83,9.44c-2.05,2.36-1.579,5.88-0.409,8.55c-2.511,1.99-5.381,3.48-8.5,4.21
	c-1.841-4.36-6.931-4.35-10.91-3.81c2.029-0.85,3.72-2.29,4.369-4.49c-7.1,0.63-14.31,0.35-21.31,1.87
	c-2.87,0.57-5.399,2.21-7.149,4.54c6.319-4.45,14.26-1.25,21.31-1.28c-6.729,1.32-13.46,2.63-20.091,4.36
	c-3.969,1-8.939,3.67-7.879,8.57c-6.12,0.7-12.27,1.05-18.37,1.92c-0.64-5.81-0.65-11.93,1.71-17.39c0.51-1.17,1.68-1.84,2.57-2.7
	c11.73-10.05,22.48-21.43,35.62-29.71l0.62,1.67C148.04,43.01,158.9,39.79,162.939,30.05z"/>
<path fill="#FFFFFF" d="M178.779,69.01c0.82-2.32,3.201-3.13,5.281-3.93C183.63,67.53,180.609,67.92,178.779,69.01z"/>
<path fill="#D3D3D3" d="M195.12,65.31C198.37,65.63,193.66,68.41,195.12,65.31z"/>
<path fill="#FFFFFF" d="M183.3,68.39c0.38,0.23,1.12,0.7,1.5,0.93c-0.06,0.58-0.17,1.75-0.22,2.33c-0.66,0.06-1.99,0.19-2.65,0.26
	l0.041-1.7c-1.281,0.67-2.521,1.5-4.011,1.57c1.14-0.64,2.34-1.16,3.56-1.65C181.96,69.7,182.859,68.83,183.3,68.39z"/>
<path fill="#FFFFFF" d="M170.29,78.72c1.319-2.439,3.31-4.439,5.681-5.84C174.08,74.75,172.95,77.94,170.29,78.72z"/>
<path fill="#FFFFFF" d="M177.84,74.4c0.7,1.8,0.801,3.73,1.04,5.63c1.07,1.12,2.81-0.89,4.05-1.09c1.98-0.69,0.211-2.84,0.1-4.15
	c0.531,0.59,1.611,1.78,2.15,2.37c0.19-0.63,0.59-1.89,0.791-2.51c1.069,1.64,1.92,3.4,2.619,5.23c-4.3,1.34-8.3,3.55-12.71,4.51
	c-1.56-0.42-2.71-1.61-3.89-2.63c1.56-0.7,4.58,0.33,5.18-1.66c-0.779-0.11-2.33-0.33-3.109-0.44
	C175.3,77.9,176.54,76.13,177.84,74.4z"/>
<path fill="#FFFFFF" d="M176.93,85.82c4.32-0.95,8.36-2.9,12.51-4.39c2.23,6.35,4.601,12.77,5.511,19.46
	c-0.761,15.78-2.44,31.52-4.41,47.19c-1,3.68-2.931,7.15-5.36,10.09c-2.42,2.95-6.479,3.67-10.08,3.88
	c0.721,0.521,1.43,1.04,2.16,1.56c3.87-0.85,8.141-1.789,10.57-5.25c2.42,2.631,5.75,3.99,9.13,4.931
	c-2.979,6.33-5.36,12.91-7.34,19.62c-5.36,14.359-9.511,29.42-17.97,42.39c-3.43,4.86-7.561,9.89-13.44,11.73
	c-6.41-5.4-15.21-5.91-22.12-10.41c-12.71-7.24-25.96-13.58-38.09-21.82c-8.69-6.06-17.58-12.58-23.33-21.64
	c6.79,2.439,13.43,5.39,20.44,7.16c7.02,1.71,14.26,2.66,21.03,5.279c2.19,1.09,3.71,3.17,5.88,4.34
	c3.68,2.051,7.73,3.341,11.3,5.621c4.31-0.61,8.289,2.989,12.539,1.26c-6.069-0.5-12.199-1.94-17.399-5.211
	c-2.03-1.26-3.399-3.409-5.63-4.35c-15.85-6.369-32.51-10.26-48.91-14.9c-3.94-5.67-6.71-12.039-8.69-18.64
	c6.26-0.85,12.49-2.04,18.54-3.85c3.57-1.05,5.59-4.479,8.74-6.24c4.58-3.08,10.93-3.25,14.44-7.89c1.8-2.73,2.9-5.86,4.69-8.61
	c4.05,6.601,9.95,12.66,17.69,14.58c-2.471-2.3-5.59-3.75-8.03-6.101c-8.45-7.289-14.58-16.779-20.17-26.329
	c0.52,3.54,2.34,7.55,0.03,10.85c-0.75,1.31-2.3,1.47-3.59,1.92c0.08-1.729,0.9-4.61-1.64-4.93c-2.77-0.57-2.11,2.75-2.19,4.45
	c-6.32-4.391-13.86-7.461-18.46-13.93c-2.7-3.76-3.97-8.94-2.18-13.34c1.55-3.66,6.33-4.98,9.72-3.11c2.54,1.32,4.22,3.7,6.18,5.71
	c7.25,6.06,13.29,14.02,22.45,17.36c-6.42-6.82-9.62-15.8-11.27-24.87c6.49-0.59,12.94-1.56,19.44-2.09
	c4.33,4.38,11.149,8.83,17.37,5.89c6.07-2.05,11.97-4.56,18.01-6.7c3.5-1.28,5.08-5.19,5.109-8.68c3.471-0.69,6.341-2.9,9.711-3.86
	l-0.35-2.48C171.42,83.6,173.62,86.43,176.93,85.82 M180.57,100.65c1.67,5.11-3.381,7.74-6.9,10.03c-0.109,0.22-0.32,0.66-0.43,0.88
	c2.3-1.05,4.91-1.72,6.77-3.54C181.82,106.07,182.98,102.6,180.57,100.65 M76.53,103.45c-0.56,1.48-1.05,2.98-1.49,4.5
	c0.89-1.27,1.49-2.86,2.91-3.65c3.11,0.26,5.04,3.17,6.33,5.71c-1.74,1.67-3.73,3.59-3.56,6.23c-0.14,2.17,1.49,3.79,3.15,4.93
	c-1.44-3.06-3.06-7.37,0.97-9.3c1.62,1.31,3.31,2.53,5,3.76c-0.05,1.57,0.2,3.13,0.73,4.61c2.28,0.27,4.68,0.33,6.73,1.49
	c0.07,1.55,0.03,3.1-0.12,4.64c2.42-1.351,1.54-4.28,1.06-6.44c-2.21-0.4-4.41-0.87-6.6-1.36c-0.01-1.29-0.02-2.57-0.03-3.86
	c-3.88-1.44-5.48-5.36-7.87-8.37C82.04,104.1,79.15,103.61,76.53,103.45 M167.311,111.16c0.729,1.13,4.279,0.47,3.77-1.18
	C169.891,109.1,167.71,109.69,167.311,111.16 M178.33,122.23c-3.54,2.06-8.33,0.709-11.4,3.689c-3.26,3-5.57,6.85-8.709,9.96
	c5.6,0.931,10.389,4.181,15.799,5.7c3.61,0.939,8.24,0.45,10.351-3.03c2.68-5.2,1.79-11.239,2.101-16.87
	C184.061,119.21,180.8,120.8,178.33,122.23 M138.75,156.391c4.77,3.17,10.98,2.93,15.73,6.129c2.549,1.58,2.699,5.03,1.619,7.541
	c-2.58,6.01-8.17,10.43-9.76,16.899c-0.58,3.31,2.91,4.931,5.41,5.931c-2.9-3.25-3.471-8.16-0.91-11.781
	c3.11-4.449,6.689-8.629,8.66-13.77c4.891-2.97,11.061-3,16.62-3.38c-1.229-0.64-2.44-1.72-3.95-1.319
	C160.6,163.3,150.05,157.53,138.75,156.391 M168.529,191.7c-3.26,2.1-4.049,6.34-7.199,8.569c-1.08,1.121-3.141,1.65-3.13,3.5
	c5.31-1.59,6.7-7.58,10.81-10.689c5.41-3.91,11.141-8.2,14.2-14.24C178.46,183.28,173.84,187.91,168.529,191.7z"/>
<path fill="#FFFFFF" d="M138.91,85.83c4.68-0.86,9.4-1.43,14.119-2.08c1.431-0.09,2.75,0.59,4.101,0.95
	c1.16,3.59,0.81,8.61-3.33,10.05c-7.04,2.36-13.86,5.34-20.92,7.63c-4.12-0.56-7.78-2.98-10.88-5.64c-1.36-1.13-2.32-3.24-1.21-4.85
	c3.07-2.79,7.42-3.29,11.28-4.31c-2.09,1.83-4.521,3.21-7.061,4.32c5.45,4.96,13.61,2.14,19.221-1.14
	c-1.94,0.18-2.58-1.56-3.431-2.89c2.62,0.38,5.261,0.72,7.91,0.76c-0.61-1.44-0.399-2.74,0.649-3.89
	C146,85.34,142.27,86.53,138.91,85.83z"/>
<path fill="#FFFFFF" d="M129.939,92.48c1.9-2.27,4.951-2.95,7.5-4.25c-0.229,1.33-0.459,2.66-0.67,3.99
	C134.52,92.69,132.221,92.83,129.939,92.48z"/>
<path fill="#030303" d="M180.57,100.65c2.41,1.95,1.25,5.42-0.561,7.37c-1.859,1.82-4.47,2.49-6.77,3.54
	c0.109-0.22,0.32-0.66,0.43-0.88C177.189,108.39,182.24,105.76,180.57,100.65z"/>
<path fill="#030303" d="M76.53,103.45c2.62,0.16,5.51,0.65,7.21,2.89c2.39,3.01,3.99,6.93,7.87,8.37c0.01,1.29,0.02,2.57,0.03,3.86
	c2.19,0.49,4.39,0.96,6.6,1.36c0.48,2.16,1.36,5.089-1.06,6.44c0.15-1.54,0.19-3.09,0.12-4.64c-2.05-1.16-4.45-1.221-6.73-1.49
	c-0.53-1.48-0.78-3.04-0.73-4.61c-1.69-1.23-3.38-2.45-5-3.76c-4.03,1.93-2.41,6.24-0.97,9.3c-1.66-1.14-3.29-2.76-3.15-4.93
	c-0.17-2.64,1.82-4.56,3.56-6.23c-1.29-2.54-3.22-5.45-6.33-5.71c-1.42,0.79-2.02,2.38-2.91,3.65
	C75.48,106.43,75.97,104.93,76.53,103.45z"/>
<path fill="#030303" d="M167.311,111.16c0.399-1.47,2.58-2.06,3.77-1.18C171.59,111.63,168.04,112.29,167.311,111.16z"/>
<path d="M178.33,122.23c2.47-1.431,5.73-3.021,8.141-0.551c-0.311,5.631,0.579,11.67-2.101,16.87c-2.11,3.48-6.74,3.97-10.351,3.03
	c-5.41-1.52-10.199-4.77-15.799-5.7c3.139-3.11,5.449-6.96,8.709-9.96C170,122.939,174.79,124.29,178.33,122.23 M166.87,130.51
	c5.08,0.6,11.479-0.43,14.19-5.31C176.59,127.66,171.38,128.141,166.87,130.51 M170.73,135.73
	c4.109,0.379,11.039,0.609,12.209-4.431C178.82,132.63,174.73,134.061,170.73,135.73 M173.24,138.87
	c1.25,3.46,5.01,1.729,6.939-0.19c-1.49-0.3-2.97-0.58-4.449-0.89C174.891,138.141,174.07,138.5,173.24,138.87z"/>
<path fill="#FFFFFF" d="M166.87,130.51c4.51-2.369,9.72-2.85,14.19-5.31C178.35,130.08,171.95,131.109,166.87,130.51z"/>
<path fill="#FFFFFF" d="M170.73,135.73c4-1.67,8.09-3.101,12.209-4.431C181.77,136.34,174.84,136.109,170.73,135.73z"/>
<path fill="#FFFFFF" d="M173.24,138.87c0.83-0.37,1.65-0.729,2.49-1.08c1.479,0.31,2.959,0.59,4.449,0.89
	C178.25,140.6,174.49,142.33,173.24,138.87z"/>
<path d="M138.75,156.391c11.3,1.14,21.85,6.909,33.42,6.25c1.51-0.4,2.721,0.68,3.95,1.319c-5.56,0.38-11.729,0.41-16.62,3.38
	c-1.971,5.141-5.55,9.32-8.66,13.77c-2.561,3.621-1.99,8.531,0.91,11.781c-2.5-1-5.99-2.621-5.41-5.931
	c1.59-6.47,7.18-10.89,9.76-16.899c1.08-2.511,0.93-5.961-1.619-7.541C149.73,159.32,143.52,159.561,138.75,156.391z"/>
<path fill="#FFFFFF" d="M26.4,166.359c8.14-4.449,17.62-1.209,26.36-1.709c4.47,7.41,4.85,16.479,4.13,24.88
	c-1.16,13.079-3.96,25.93-7.03,38.67c-1.01,4.02-2.22,8-3.91,11.8H0v-2.21c0.52,0.55,1.56,1.649,2.08,2.2
	c0.11-4.75,0.1-9.5,0.26-14.25c0.37-13.721,2.93-27.46,8.39-40.09C14.44,178.24,18.66,170.23,26.4,166.359z"/>
<path fill="#FFFFFF" d="M208.689,163.88c6.871,0.05,14.371-0.92,20.531,2.83c7.51,4.11,11.59,12.29,13.729,20.26
	c2.38,10.48,2.409,21.351,1.62,32.021c-0.141,7.15-3.59,13.8-3.32,21.01h-19.141c2.211-3.359,3.971-7.01,4.83-10.96
	c2.07-2.81,4.811-5.08,6.69-8.03c-1.659,1.24-3.159,2.66-4.771,3.96c-2.649,4.45-4.159,9.47-6.869,13.9
	c-3.7-7.37-6.4-15.22-7.83-23.34c-1.57-8.88-4.45-17.521-5-26.561C208.16,180.641,208.77,172.24,208.689,163.88z"/>
<path fill="#030303" d="M168.529,191.7c5.311-3.79,9.931-8.42,14.681-12.86c-3.06,6.04-8.79,10.33-14.2,14.24
	c-4.109,3.109-5.5,9.1-10.81,10.689c-0.011-1.85,2.05-2.379,3.13-3.5C164.48,198.04,165.27,193.8,168.529,191.7z"/>
<path fill="#FFFFFF" d="M241.609,240c3.69-7.189,4.271-15.46,5.391-23.34V240H241.609z"/>
<path fill="#1C1C1C" d="M0,229.43c0.75-1.25,1.55-2.479,2.34-3.689c-0.16,4.75-0.15,9.5-0.26,14.25c-0.52-0.551-1.56-1.65-2.08-2.2
	V229.43z"/>
</svg>
