<?xml version="1.0" encoding="UTF-8" ?>
<!DOCTYPE svg PUBLIC "-//W3C//DTD SVG 1.1//EN" "http://www.w3.org/Graphics/SVG/1.1/DTD/svg11.dtd">
<svg width="214pt" height="224pt" viewBox="0 0 214 224" version="1.1" xmlns="http://www.w3.org/2000/svg">
<path fill="#020303" opacity="1.00" d=" M 0.00 0.00 L 0.18 0.00 C 0.14 0.04 0.05 0.13 0.00 0.17 L 0.00 0.00 Z" />
<path fill="#ffffff" opacity="1.00" d=" M 0.18 0.00 L 214.00 0.00 L 214.00 224.00 L 0.00 224.00 L 0.00 0.17 C 0.05 0.13 0.14 0.04 0.18 0.00 M 141.54 6.80 C 141.19 10.66 141.35 14.65 142.70 18.32 C 145.03 25.06 143.09 33.83 136.13 37.01 C 133.27 37.94 132.05 43.06 128.58 41.44 C 125.51 36.12 120.05 32.01 114.02 30.77 C 110.69 30.11 107.32 30.89 103.99 30.39 C 99.18 30.61 94.64 28.76 89.87 28.24 C 84.51 26.63 80.80 22.00 78.86 16.94 C 78.53 14.47 78.95 11.95 78.42 9.50 C 77.86 9.46 76.74 9.39 76.17 9.36 C 69.15 16.36 68.14 26.88 69.67 36.17 C 72.77 40.29 74.56 46.31 80.06 47.79 C 81.34 48.72 84.15 47.89 83.84 50.31 C 81.31 52.00 77.99 51.62 75.42 53.29 C 70.01 57.09 63.76 60.37 57.06 60.64 C 54.03 62.20 50.09 62.98 48.34 66.22 C 46.25 70.07 42.58 72.71 38.92 74.94 C 35.42 76.02 33.92 79.40 34.34 82.85 C 31.86 86.70 26.54 87.35 24.75 91.73 C 21.15 98.81 15.69 104.88 12.90 112.34 C 12.02 118.46 10.51 124.84 12.44 130.98 C 12.58 138.33 12.34 145.68 12.54 153.03 C 13.69 156.92 13.51 161.02 14.14 165.00 C 12.31 173.51 17.06 181.32 20.13 188.87 C 24.08 193.53 28.55 197.75 33.19 201.72 C 36.72 204.98 41.76 205.09 45.83 207.36 C 50.54 210.32 56.50 209.94 61.27 212.76 C 63.60 214.17 66.29 214.91 68.96 215.37 C 74.60 215.18 80.17 216.31 85.65 217.48 C 94.22 218.28 102.46 215.77 111.01 215.70 C 118.35 216.26 125.69 216.72 133.01 217.41 C 137.42 218.11 141.56 215.87 145.98 216.23 C 151.06 216.82 155.54 213.97 159.99 212.00 C 165.62 209.67 170.42 205.50 176.50 204.28 C 182.31 201.04 186.50 195.36 188.30 189.00 C 190.50 183.23 192.32 177.18 195.82 172.11 C 196.28 167.58 199.25 163.68 198.70 159.02 C 198.51 146.00 199.12 132.96 198.22 119.97 C 197.58 115.22 195.91 110.68 194.86 106.01 C 196.28 93.00 196.17 78.89 189.80 67.05 C 183.46 57.73 173.02 52.36 162.78 48.35 C 155.14 44.84 146.60 47.34 138.60 47.46 C 138.52 47.47 138.36 47.49 138.27 47.50 L 137.11 47.68 C 136.92 47.30 136.56 46.55 136.38 46.17 C 141.57 40.89 149.50 37.57 151.60 29.90 C 152.95 22.26 152.72 14.43 152.42 6.68 C 150.31 4.23 146.85 4.44 143.92 4.55 C 143.12 5.30 142.33 6.05 141.54 6.80 Z" />
<path fill="#020202" opacity="1.00" d=" M 141.54 6.80 C 142.33 6.05 143.12 5.30 143.92 4.55 C 146.85 4.44 150.31 4.23 152.42 6.68 C 152.72 14.43 152.95 22.26 151.60 29.90 C 149.50 37.57 141.57 40.89 136.38 46.17 C 136.19 46.48 135.81 47.11 135.62 47.42 C 135.99 47.48 136.73 47.62 137.11 47.68 L 138.27 47.50 C 138.36 47.49 138.52 47.47 138.60 47.46 C 146.60 47.34 155.14 44.84 162.78 48.35 C 173.02 52.36 183.46 57.73 189.80 67.05 C 196.17 78.89 196.28 93.00 194.86 106.01 C 195.91 110.68 197.58 115.22 198.22 119.97 C 199.12 132.96 198.51 146.00 198.70 159.02 C 199.25 163.68 196.28 167.58 195.82 172.11 C 192.32 177.18 190.50 183.23 188.30 189.00 C 186.50 195.36 182.31 201.04 176.50 204.28 C 170.42 205.50 165.62 209.67 159.99 212.00 C 155.54 213.97 151.06 216.82 145.98 216.23 C 141.56 215.87 137.42 218.11 133.01 217.41 C 125.69 216.72 118.35 216.26 111.01 215.70 C 102.46 215.77 94.22 218.28 85.65 217.48 C 80.17 216.31 74.60 215.18 68.96 215.37 C 66.29 214.91 63.60 214.17 61.27 212.76 C 56.50 209.94 50.54 210.32 45.83 207.36 C 41.76 205.09 36.72 204.98 33.19 201.72 C 28.55 197.75 24.08 193.53 20.13 188.87 C 17.06 181.32 12.31 173.51 14.14 165.00 C 13.51 161.02 13.69 156.92 12.54 153.03 C 12.34 145.68 12.58 138.33 12.44 130.98 C 10.51 124.84 12.02 118.46 12.90 112.34 C 15.69 104.88 21.15 98.81 24.75 91.73 C 26.54 87.35 31.86 86.70 34.34 82.85 C 35.69 80.06 35.91 76.72 38.92 74.94 C 42.58 72.71 46.25 70.07 48.34 66.22 C 50.09 62.98 54.03 62.20 57.06 60.64 C 63.76 60.37 70.01 57.09 75.42 53.29 C 77.99 51.62 81.31 52.00 83.84 50.31 C 84.15 47.89 81.34 48.72 80.06 47.79 C 74.56 46.31 72.77 40.29 69.67 36.17 C 68.14 26.88 69.15 16.36 76.17 9.36 C 76.74 9.39 77.86 9.46 78.42 9.50 C 78.95 11.95 78.53 14.47 78.86 16.94 C 80.80 22.00 84.51 26.63 89.87 28.24 C 94.64 28.76 99.18 30.61 103.99 30.39 C 107.32 30.89 110.69 30.11 114.02 30.77 C 120.05 32.01 125.51 36.12 128.58 41.44 C 132.05 43.06 133.27 37.94 136.13 37.01 C 143.09 33.83 145.03 25.06 142.70 18.32 C 141.35 14.65 141.19 10.66 141.54 6.80 M 144.82 6.79 C 144.38 8.50 144.47 10.26 144.58 12.01 C 145.02 11.30 145.46 10.59 145.89 9.88 C 147.52 9.75 149.14 9.60 150.77 9.41 C 149.80 7.17 147.03 6.60 144.82 6.79 M 144.17 12.27 C 146.10 19.61 147.37 28.30 143.04 35.05 C 138.26 39.78 128.59 42.89 129.89 51.11 C 130.24 51.18 130.95 51.33 131.31 51.40 C 133.34 48.65 134.00 44.99 136.80 42.81 C 140.26 39.25 145.34 37.27 147.29 32.36 C 149.42 26.20 151.08 19.55 150.02 12.99 C 148.09 12.61 146.13 12.41 144.17 12.27 M 75.22 14.19 C 71.71 20.50 70.50 27.94 71.91 34.95 C 73.50 37.76 74.85 40.72 76.61 43.43 C 79.58 45.82 83.39 47.32 87.18 47.79 L 87.25 48.63 C 97.50 48.60 107.76 48.33 118.01 48.65 C 121.28 49.28 124.19 51.20 127.51 51.75 C 127.41 48.41 128.07 44.77 126.11 41.82 C 122.44 36.25 115.46 32.68 108.73 33.58 L 108.90 32.84 C 100.31 32.45 91.33 31.51 83.68 27.29 C 81.32 24.22 77.67 21.91 76.78 17.91 C 76.31 16.66 76.44 15.03 75.22 14.19 M 134.58 51.24 L 133.78 50.90 C 133.90 51.59 134.14 52.96 134.27 53.64 C 137.98 53.54 141.65 52.95 145.34 52.63 C 149.86 55.24 150.28 61.19 154.22 64.38 C 155.58 66.32 157.16 68.78 159.45 69.55 C 162.94 74.01 167.00 77.97 170.95 82.00 C 173.96 85.68 177.46 89.02 181.45 91.63 C 184.06 95.19 187.53 98.02 190.92 100.80 C 191.62 100.79 193.02 100.78 193.71 100.77 C 193.61 95.79 194.02 90.52 192.73 85.74 C 192.63 82.41 192.24 79.08 191.11 75.93 C 190.82 74.20 190.65 72.29 189.13 71.15 C 187.98 68.76 186.62 66.47 184.90 64.45 C 182.86 65.76 178.02 66.18 178.54 62.65 C 179.44 62.59 181.22 62.49 182.12 62.44 C 178.78 58.04 173.14 55.86 168.33 53.54 C 162.39 50.47 155.83 47.83 149.00 48.50 C 144.19 48.80 138.69 48.35 134.58 51.24 M 84.78 53.15 C 83.71 53.37 82.64 53.63 81.58 53.93 C 79.71 52.45 77.28 56.51 80.04 56.56 C 83.55 64.52 91.13 70.40 99.35 72.52 C 99.58 70.15 99.47 67.60 101.01 65.61 C 102.16 68.65 101.14 72.04 101.46 75.22 C 98.65 76.31 95.64 76.50 92.65 76.58 C 92.69 80.83 89.29 83.91 86.30 86.46 C 83.24 86.38 80.01 86.94 77.11 85.65 C 73.86 84.63 72.07 81.46 70.38 78.75 C 71.28 76.76 71.43 73.94 70.09 72.11 C 70.62 69.08 72.40 66.56 73.80 63.90 C 76.96 62.48 76.83 59.11 76.59 56.16 C 75.18 56.27 73.48 56.39 73.16 58.10 C 68.42 60.09 63.85 62.69 58.70 63.48 C 54.72 64.29 51.36 66.70 49.11 70.06 C 47.19 70.41 46.27 72.21 45.98 73.97 C 47.00 74.34 48.03 74.66 49.07 74.95 C 50.03 76.17 51.85 77.18 51.55 79.00 C 51.56 82.51 47.21 84.76 44.32 82.55 C 43.50 80.35 45.81 79.21 46.87 77.67 C 44.08 76.99 39.54 78.09 40.45 81.83 C 42.13 86.18 47.81 85.89 51.70 85.76 C 52.64 87.16 54.55 86.57 55.95 86.78 C 62.04 86.47 68.11 87.14 74.20 86.93 C 77.85 88.20 81.56 89.32 85.21 90.58 C 85.47 91.91 85.75 93.23 86.07 94.55 L 85.78 94.55 L 85.72 94.78 C 81.20 94.86 77.38 91.96 73.05 91.50 C 72.89 91.27 72.56 90.81 72.40 90.58 C 67.79 90.15 63.14 90.53 58.52 90.56 C 58.07 90.61 57.17 90.72 56.71 90.77 C 50.53 90.04 44.02 89.96 38.78 86.16 C 38.12 85.40 36.95 83.28 35.91 84.85 C 34.08 87.43 31.29 88.94 28.90 90.90 C 24.96 96.59 21.74 102.78 17.43 108.20 C 15.76 113.27 14.13 118.62 14.43 124.03 C 15.96 130.91 15.00 138.00 15.25 144.99 C 15.44 149.12 14.74 153.66 16.82 157.41 L 16.78 157.54 C 16.40 159.35 16.40 161.22 16.97 162.99 C 18.05 166.61 16.05 170.32 16.95 173.95 C 18.06 178.05 19.82 181.99 22.54 185.27 C 24.46 190.81 29.90 193.65 33.91 197.50 C 34.80 197.47 36.59 197.41 37.49 197.38 C 37.57 197.69 37.72 198.32 37.80 198.63 L 38.82 198.47 C 40.55 200.18 43.61 199.82 44.81 202.16 C 46.60 204.92 49.56 207.31 52.99 207.31 C 56.94 207.41 60.75 208.81 64.01 211.01 C 67.51 213.20 71.85 212.41 75.75 213.20 C 83.58 214.46 91.57 216.11 99.47 214.32 C 99.64 214.10 99.98 213.66 100.14 213.44 C 105.09 213.29 110.05 213.41 115.00 213.37 C 123.15 212.90 131.30 216.07 139.41 214.01 C 142.67 212.96 146.11 213.65 149.45 213.24 C 158.04 209.95 166.37 205.93 174.36 201.36 C 177.62 197.98 181.69 195.34 184.30 191.36 C 186.94 185.34 188.67 178.89 192.05 173.21 C 193.68 170.55 191.17 166.94 193.57 164.53 C 196.59 160.71 196.28 155.58 196.23 151.00 C 196.06 144.33 196.71 137.60 195.55 130.99 C 195.65 121.93 194.30 112.85 191.78 104.16 C 186.93 100.76 182.50 96.86 178.50 92.48 C 174.84 89.55 171.05 86.67 168.35 82.78 C 162.70 76.65 156.45 71.03 151.18 64.55 L 151.24 63.96 C 149.76 61.26 147.09 59.75 144.18 59.02 C 138.09 54.36 129.76 55.38 122.69 53.28 C 121.21 52.69 119.72 52.14 118.22 51.62 C 116.94 50.03 114.75 50.69 112.99 50.57 C 103.59 51.06 93.64 48.96 84.78 53.15 M 75.67 66.14 C 76.40 67.06 77.33 67.77 78.39 68.28 C 78.47 68.46 78.63 68.80 78.72 68.97 L 78.51 69.99 L 77.75 69.84 L 76.84 69.74 C 76.61 69.59 76.14 69.28 75.91 69.13 L 75.12 69.13 C 74.96 69.26 74.64 69.51 74.48 69.64 L 74.31 70.15 L 72.97 72.26 C 74.85 72.83 77.34 72.96 77.13 75.59 L 78.49 75.42 C 78.64 75.51 78.94 75.68 79.09 75.77 C 79.91 77.44 78.16 79.06 77.99 80.73 C 77.63 80.39 76.91 79.72 76.55 79.39 C 76.68 77.62 77.99 73.10 74.50 74.83 C 74.42 74.89 74.27 75.01 74.19 75.07 L 73.36 75.74 C 73.56 76.52 73.96 78.08 74.15 78.86 L 74.12 79.24 C 74.27 79.31 74.57 79.43 74.72 79.49 C 75.64 80.49 76.57 81.49 77.50 82.48 C 77.67 82.53 78.01 82.62 78.19 82.67 C 78.67 82.62 79.65 82.53 80.14 82.48 C 80.51 82.63 81.24 82.94 81.61 83.09 C 82.32 83.01 83.75 82.86 84.47 82.78 C 84.53 82.75 84.66 82.67 84.72 82.63 C 87.06 82.57 87.66 78.90 84.73 79.82 C 85.08 78.20 84.68 78.04 83.52 79.32 L 83.08 79.63 C 83.15 78.65 83.29 76.69 83.36 75.71 C 83.46 75.59 83.67 75.36 83.77 75.24 C 84.84 74.56 85.96 73.97 87.12 73.46 C 86.53 74.76 85.98 76.08 85.48 77.42 C 85.84 79.04 86.38 79.10 87.11 77.60 C 87.45 77.55 88.14 77.46 88.48 77.42 C 88.34 75.73 89.50 73.42 87.83 72.22 C 85.37 70.35 82.99 68.33 81.42 65.61 C 80.45 65.73 79.48 65.86 78.51 65.98 C 78.44 65.38 78.30 64.18 78.23 63.58 C 77.42 64.48 76.56 65.32 75.67 66.14 Z" />
<path fill="#46eb00" opacity="1.00" d=" M 144.82 6.79 C 147.03 6.60 149.80 7.17 150.77 9.41 C 149.14 9.60 147.52 9.75 145.89 9.88 C 145.46 10.59 145.02 11.30 144.58 12.01 C 144.47 10.26 144.38 8.50 144.82 6.79 Z" />
<path fill="#44e901" opacity="1.00" d=" M 144.17 12.27 C 146.13 12.41 148.09 12.61 150.02 12.99 C 151.08 19.55 149.42 26.20 147.29 32.36 C 145.34 37.27 140.26 39.25 136.80 42.81 C 134.00 44.99 133.34 48.65 131.31 51.40 C 130.95 51.33 130.24 51.18 129.89 51.11 C 128.59 42.89 138.26 39.78 143.04 35.05 C 147.37 28.30 146.10 19.61 144.17 12.27 Z" />
<path fill="#40db00" opacity="1.00" d=" M 75.22 14.19 C 76.44 15.03 76.31 16.66 76.78 17.91 C 77.67 21.91 81.32 24.22 83.68 27.29 C 81.23 28.75 78.44 29.35 75.62 29.52 C 76.69 36.58 82.32 43.86 89.79 44.80 C 91.35 45.47 92.90 46.25 94.11 47.48 C 91.80 47.70 89.49 47.82 87.18 47.79 C 83.39 47.32 79.58 45.82 76.61 43.43 C 74.85 40.72 73.50 37.76 71.91 34.95 C 70.50 27.94 71.71 20.50 75.22 14.19 Z" />
<path fill="#2a9b01" opacity="1.00" d=" M 83.68 27.29 C 91.33 31.51 100.31 32.45 108.90 32.84 L 108.73 33.58 C 108.42 33.77 107.80 34.15 107.49 34.34 C 109.64 36.24 112.31 37.79 113.63 40.43 C 114.20 42.68 112.92 44.88 112.45 47.05 C 117.13 47.77 121.75 48.76 126.24 50.26 C 126.39 47.45 126.36 44.62 126.11 41.82 C 128.07 44.77 127.41 48.41 127.51 51.75 C 124.19 51.20 121.28 49.28 118.01 48.65 C 107.76 48.33 97.50 48.60 87.25 48.63 L 87.18 47.79 C 89.49 47.82 91.80 47.70 94.11 47.48 C 92.90 46.25 91.35 45.47 89.79 44.80 C 91.14 44.74 92.49 44.67 93.84 44.58 C 93.71 43.64 93.57 42.70 93.44 41.76 C 89.48 41.56 84.98 41.03 82.56 37.46 C 80.10 34.94 79.29 30.61 75.62 29.52 C 78.44 29.35 81.23 28.75 83.68 27.29 Z" />
<path fill="#020404" opacity="1.00" d=" M 75.62 29.52 C 79.29 30.61 80.10 34.94 82.56 37.46 C 84.98 41.03 89.48 41.56 93.44 41.76 C 93.57 42.70 93.71 43.64 93.84 44.58 C 92.49 44.67 91.14 44.74 89.79 44.80 C 82.32 43.86 76.69 36.58 75.62 29.52 Z" />
<path fill="#31df01" opacity="1.00" d=" M 107.49 34.34 C 107.80 34.15 108.42 33.77 108.73 33.58 C 115.46 32.68 122.44 36.25 126.11 41.82 C 126.36 44.62 126.39 47.45 126.24 50.26 C 121.75 48.76 117.13 47.77 112.45 47.05 C 112.92 44.88 114.20 42.68 113.63 40.43 C 112.31 37.79 109.64 36.24 107.49 34.34 M 114.22 36.32 C 114.27 36.83 114.36 37.84 114.41 38.35 C 117.86 39.84 118.77 43.41 119.40 46.77 C 119.89 46.61 120.87 46.30 121.36 46.15 C 122.14 41.89 119.12 35.88 114.22 36.32 Z" />
<path fill="#030606" opacity="1.00" d=" M 114.22 36.32 C 119.12 35.88 122.14 41.89 121.36 46.15 C 120.87 46.30 119.89 46.61 119.40 46.77 C 118.77 43.41 117.86 39.84 114.41 38.35 C 114.36 37.84 114.27 36.83 114.22 36.32 Z" />
<path fill="#32d801" opacity="1.00" d=" M 135.62 47.42 C 135.81 47.11 136.19 46.48 136.38 46.17 C 136.56 46.55 136.92 47.30 137.11 47.68 C 136.73 47.62 135.99 47.48 135.62 47.42 Z" />
<path fill="#32d801" opacity="1.00" d=" M 138.27 47.50 C 138.36 47.49 138.52 47.47 138.60 47.46 C 138.52 47.47 138.36 47.49 138.27 47.50 Z" />
<path fill="#32d801" opacity="1.00" d=" M 134.58 51.24 C 138.69 48.35 144.19 48.80 149.00 48.50 C 155.83 47.83 162.39 50.47 168.33 53.54 C 167.93 53.82 167.13 54.37 166.73 54.64 C 164.15 54.02 161.20 52.86 158.85 54.74 C 155.25 56.56 154.66 60.80 154.22 64.38 C 150.28 61.19 149.86 55.24 145.34 52.63 C 141.89 50.96 137.89 53.31 134.58 51.24 Z" />
<path fill="#6f080b" opacity="1.00" d=" M 84.78 53.15 C 93.64 48.96 103.59 51.06 112.99 50.57 C 114.75 50.69 116.94 50.03 118.22 51.62 C 107.07 51.90 95.74 50.44 84.78 53.15 Z" />
<path fill="#236c18" opacity="1.00" d=" M 133.78 50.90 L 134.58 51.24 C 137.89 53.31 141.89 50.96 145.34 52.63 C 141.65 52.95 137.98 53.54 134.27 53.64 C 134.14 52.96 133.90 51.59 133.78 50.90 Z" />
<path fill="#fd0101" opacity="1.00" d=" M 84.78 53.15 C 95.74 50.44 107.07 51.90 118.22 51.62 C 119.72 52.14 121.21 52.69 122.69 53.28 C 124.64 54.12 126.57 55.03 128.58 55.74 C 127.65 56.45 126.72 57.16 125.78 57.85 C 123.96 57.97 122.13 58.12 120.31 58.28 C 119.31 59.71 118.36 61.18 117.48 62.68 C 115.68 58.66 109.73 56.40 105.96 58.03 C 108.52 59.83 111.57 60.73 114.17 62.47 C 113.07 62.25 111.98 62.01 110.90 61.75 C 107.35 60.68 105.06 56.77 101.39 56.55 C 102.85 59.89 106.11 61.77 108.89 63.87 C 103.63 63.02 99.55 59.67 95.16 56.99 C 95.21 57.63 95.32 58.92 95.38 59.57 C 99.50 63.15 104.55 65.52 109.93 66.43 C 113.65 66.56 117.37 66.59 121.08 66.33 C 121.25 67.46 121.41 68.59 121.56 69.73 C 125.88 72.74 129.35 67.77 133.55 67.50 C 126.69 77.33 113.34 73.11 103.79 77.82 C 103.04 76.93 102.26 76.07 101.46 75.22 C 101.14 72.04 102.16 68.65 101.01 65.61 C 100.56 65.51 99.65 65.31 99.19 65.22 C 99.11 67.65 99.20 70.09 99.35 72.52 C 91.13 70.40 83.55 64.52 80.04 56.56 C 80.62 55.73 81.14 54.85 81.58 53.93 C 82.64 53.63 83.71 53.37 84.78 53.15 M 90.05 54.88 C 88.39 56.32 86.85 58.93 87.91 61.12 C 92.03 64.38 95.08 52.70 90.05 54.88 M 103.55 74.36 C 106.91 75.27 107.90 70.16 107.28 67.74 C 103.28 66.37 104.84 72.16 103.55 74.36 M 112.04 69.77 C 110.89 71.60 108.34 72.56 108.15 74.89 C 110.29 75.05 111.83 73.48 113.42 72.32 C 113.36 71.50 113.29 70.67 113.21 69.85 C 112.92 69.83 112.33 69.79 112.04 69.77 Z" />
<path fill="#8a0f10" opacity="1.00" d=" M 122.69 53.28 C 129.76 55.38 138.09 54.36 144.18 59.02 C 139.78 57.80 135.51 55.76 130.85 55.89 C 130.28 55.85 129.14 55.78 128.58 55.74 C 126.57 55.03 124.64 54.12 122.69 53.28 Z" />
<path fill="#8c1d1d" opacity="1.00" d=" M 80.04 56.56 C 77.28 56.51 79.71 52.45 81.58 53.93 C 81.14 54.85 80.62 55.73 80.04 56.56 Z" />
<path fill="#2a9800" opacity="1.00" d=" M 158.85 54.74 C 161.20 52.86 164.15 54.02 166.73 54.64 C 168.37 55.69 170.01 56.76 171.56 57.94 C 171.04 58.20 170.00 58.72 169.48 58.98 C 172.43 63.84 176.82 67.67 179.39 72.78 L 177.97 72.28 C 173.73 69.75 173.17 76.30 173.00 79.05 C 170.65 75.72 167.02 73.66 164.13 70.85 C 162.95 69.42 161.13 69.50 159.45 69.55 C 157.16 68.78 155.58 66.32 154.22 64.38 C 154.66 60.80 155.25 56.56 158.85 54.74 M 167.44 62.42 C 166.58 64.05 166.25 65.87 166.29 67.71 C 166.90 67.72 168.14 67.73 168.76 67.74 C 169.61 66.04 169.87 64.16 169.68 62.28 C 169.12 62.31 168.00 62.38 167.44 62.42 Z" />
<path fill="#3cce01" opacity="1.00" d=" M 166.73 54.64 C 167.13 54.37 167.93 53.82 168.33 53.54 C 173.14 55.86 178.78 58.04 182.12 62.44 C 181.22 62.49 179.44 62.59 178.54 62.65 C 178.02 66.18 182.86 65.76 184.90 64.45 C 186.62 66.47 187.98 68.76 189.13 71.15 C 189.03 71.56 188.82 72.37 188.72 72.78 C 187.22 72.72 185.73 72.80 184.29 73.20 C 183.43 72.48 182.58 71.74 181.76 70.99 C 178.80 66.31 175.05 62.21 171.56 57.94 C 170.01 56.76 168.37 55.69 166.73 54.64 Z" />
<path fill="#e6e801" opacity="1.00" d=" M 90.05 54.88 C 95.08 52.70 92.03 64.38 87.91 61.12 C 86.85 58.93 88.39 56.32 90.05 54.88 Z" />
<path fill="#851111" opacity="1.00" d=" M 73.16 58.10 C 73.48 56.39 75.18 56.27 76.59 56.16 C 76.83 59.11 76.96 62.48 73.80 63.90 C 74.79 61.97 75.55 59.92 75.65 57.74 C 75.03 57.83 73.78 58.01 73.16 58.10 Z" />
<path fill="#e75a09" opacity="1.00" d=" M 128.58 55.74 C 129.14 55.78 130.28 55.85 130.85 55.89 C 130.98 57.18 131.11 58.48 131.25 59.78 C 130.91 60.32 130.22 61.42 129.87 61.97 C 130.01 60.51 130.11 59.04 130.20 57.57 C 127.01 56.55 125.97 60.37 126.12 62.79 C 126.82 62.95 128.22 63.28 128.92 63.45 C 128.65 63.79 128.11 64.48 127.84 64.82 C 127.29 64.70 126.21 64.47 125.66 64.35 C 124.88 62.22 125.35 60.00 125.78 57.85 C 126.72 57.16 127.65 56.45 128.58 55.74 Z" />
<path fill="#fc0101" opacity="1.00" d=" M 130.85 55.89 C 135.51 55.76 139.78 57.80 144.18 59.02 C 147.09 59.75 149.76 61.26 151.24 63.96 C 149.24 64.17 147.24 64.41 145.26 64.71 C 140.92 62.26 136.36 59.89 131.25 59.78 C 131.11 58.48 130.98 57.18 130.85 55.89 Z" />
<path fill="#051212" opacity="1.00" d=" M 95.16 56.99 C 99.55 59.67 103.63 63.02 108.89 63.87 C 106.11 61.77 102.85 59.89 101.39 56.55 C 105.06 56.77 107.35 60.68 110.90 61.75 C 110.58 63.31 110.25 64.87 109.93 66.43 C 104.55 65.52 99.50 63.15 95.38 59.57 C 95.32 58.92 95.21 57.63 95.16 56.99 Z" />
<path fill="#172222" opacity="1.00" d=" M 105.96 58.03 C 109.73 56.40 115.68 58.66 117.48 62.68 L 118.10 63.54 C 119.98 63.58 121.85 63.53 123.73 63.50 C 123.62 63.91 123.39 64.75 123.28 65.16 C 122.73 65.46 121.63 66.04 121.08 66.33 C 117.37 66.59 113.65 66.56 109.93 66.43 C 110.25 64.87 110.58 63.31 110.90 61.75 C 111.98 62.01 113.07 62.25 114.17 62.47 C 111.57 60.73 108.52 59.83 105.96 58.03 Z" />
<path fill="#fd0101" opacity="1.00" d=" M 73.16 58.10 C 73.78 58.01 75.03 57.83 75.65 57.74 C 75.55 59.92 74.79 61.97 73.80 63.90 C 72.40 66.56 70.62 69.08 70.09 72.11 C 69.45 74.25 69.10 76.76 70.38 78.75 C 72.07 81.46 73.86 84.63 77.11 85.65 C 80.01 86.94 83.24 86.38 86.30 86.46 C 86.72 86.89 87.14 87.33 87.56 87.76 C 86.78 88.70 86.00 89.64 85.21 90.58 C 81.56 89.32 77.85 88.20 74.20 86.93 C 66.77 85.68 59.22 85.21 51.70 85.76 C 47.81 85.89 42.13 86.18 40.45 81.83 C 39.54 78.09 44.08 76.99 46.87 77.67 C 45.81 79.21 43.50 80.35 44.32 82.55 C 47.21 84.76 51.56 82.51 51.55 79.00 C 51.85 77.18 50.03 76.17 49.07 74.95 C 48.64 74.47 47.77 73.51 47.34 73.04 C 47.92 72.03 48.51 71.04 49.11 70.06 C 51.36 66.70 54.72 64.29 58.70 63.48 C 63.85 62.69 68.42 60.09 73.16 58.10 M 53.44 69.92 C 53.28 71.54 53.15 73.16 53.25 74.78 C 55.43 75.10 57.75 74.55 58.19 72.07 C 58.41 70.56 58.50 69.04 58.46 67.51 C 56.22 66.66 54.52 68.16 53.44 69.92 M 63.78 69.70 C 63.67 70.04 63.44 70.74 63.33 71.08 C 61.61 72.09 62.73 74.90 62.16 76.64 C 60.95 76.78 59.88 77.20 58.94 77.88 C 57.45 79.78 57.13 82.15 57.51 84.49 C 59.11 84.80 60.42 84.34 61.43 83.12 C 62.51 81.49 63.22 79.63 63.36 77.67 C 64.97 79.73 66.66 82.92 69.80 81.55 C 69.10 80.25 68.09 79.15 67.35 77.88 C 66.94 75.02 68.03 71.93 66.67 69.26 C 65.69 69.33 64.73 69.47 63.78 69.70 Z" />
<path fill="#e90000" opacity="1.00" d=" M 120.31 58.28 C 122.13 58.12 123.96 57.97 125.78 57.85 C 125.35 60.00 124.88 62.22 125.66 64.35 C 126.21 64.47 127.29 64.70 127.84 64.82 C 128.11 64.48 128.65 63.79 128.92 63.45 C 129.15 63.08 129.63 62.34 129.87 61.97 C 130.22 61.42 130.91 60.32 131.25 59.78 C 136.36 59.89 140.92 62.26 145.26 64.71 C 144.39 67.64 142.24 70.95 144.00 73.96 C 145.86 76.46 149.00 74.10 150.06 72.05 C 150.86 69.64 150.82 67.04 151.18 64.55 C 156.45 71.03 162.70 76.65 168.35 82.78 C 171.05 86.67 174.84 89.55 178.50 92.48 C 182.50 96.86 186.93 100.76 191.78 104.16 C 194.30 112.85 195.65 121.93 195.55 130.99 C 196.71 137.60 196.06 144.33 196.23 151.00 C 196.28 155.58 196.59 160.71 193.57 164.53 C 191.17 166.94 193.68 170.55 192.05 173.21 C 188.67 178.89 186.94 185.34 184.30 191.36 C 181.69 195.34 177.62 197.98 174.36 201.36 C 166.37 205.93 158.04 209.95 149.45 213.24 C 146.11 213.65 142.67 212.96 139.41 214.01 C 131.30 216.07 123.15 212.90 115.00 213.37 C 110.05 213.41 105.09 213.29 100.14 213.44 C 88.03 215.54 76.06 211.90 64.01 211.01 C 60.75 208.81 56.94 207.41 52.99 207.31 C 49.56 207.31 46.60 204.92 44.81 202.16 C 43.61 199.82 40.55 200.18 38.82 198.47 C 43.05 197.23 45.46 192.15 44.03 188.07 C 39.62 184.57 37.00 191.79 37.00 195.26 C 30.75 192.50 28.76 185.74 24.96 180.67 C 25.34 179.77 25.71 178.87 26.07 177.97 C 26.55 176.80 27.14 175.68 27.84 174.64 C 28.95 175.02 30.05 175.42 31.15 175.84 C 32.74 176.97 34.43 178.04 36.47 177.51 L 36.57 176.06 C 32.88 173.02 28.08 171.23 25.40 167.06 C 25.61 164.45 27.93 161.22 26.02 158.99 C 22.56 160.91 22.39 165.33 22.82 168.80 C 21.56 164.70 20.02 160.52 16.78 157.54 L 16.82 157.41 C 17.56 154.81 18.37 152.24 19.26 149.69 C 19.36 151.31 19.50 152.93 19.63 154.54 C 20.51 154.44 21.39 154.34 22.28 154.24 C 23.66 152.21 24.62 149.92 24.53 147.43 C 22.56 147.02 20.86 147.98 19.28 149.03 C 19.29 146.19 19.84 143.38 20.65 140.66 C 21.32 138.62 22.08 136.60 22.79 134.57 L 23.86 134.95 C 26.45 140.85 28.19 147.43 32.87 152.12 C 36.18 154.85 39.84 157.16 43.73 158.98 C 45.75 161.09 48.42 162.29 51.28 162.78 C 55.64 164.50 60.29 164.86 64.93 164.88 C 72.54 166.44 80.37 164.90 88.02 166.03 C 91.85 167.10 96.51 165.35 98.61 161.99 C 98.66 159.39 95.96 161.09 94.86 161.74 C 91.23 164.30 86.66 163.01 82.59 162.62 C 78.06 161.13 73.15 161.54 68.55 162.46 C 68.18 162.51 67.46 162.61 67.09 162.66 L 67.29 161.39 C 67.58 161.37 68.16 161.32 68.45 161.30 C 79.60 161.65 91.16 161.14 101.43 156.39 C 106.15 153.22 109.49 148.44 112.91 143.99 C 116.95 137.30 118.72 128.36 126.19 124.42 C 128.42 122.91 133.43 124.46 132.61 120.31 C 127.76 120.04 122.49 121.93 118.02 119.29 C 113.95 117.14 109.28 116.17 105.62 113.28 C 98.36 107.51 89.34 104.78 80.93 101.16 C 73.47 98.73 65.64 96.91 57.73 97.75 C 58.53 95.80 59.22 93.81 59.78 91.77 C 64.19 91.35 68.62 91.33 73.05 91.50 C 77.38 91.96 81.20 94.86 85.72 94.78 C 85.15 97.02 84.63 99.28 84.49 101.59 C 85.71 101.52 86.92 101.44 88.14 101.33 C 89.21 99.23 89.78 96.95 89.55 94.59 C 88.39 94.58 87.23 94.57 86.07 94.55 C 85.75 93.23 85.47 91.91 85.21 90.58 C 86.00 89.64 86.78 88.70 87.56 87.76 C 87.14 87.33 86.72 86.89 86.30 86.46 C 89.29 83.91 92.69 80.83 92.65 76.58 C 95.64 76.50 98.65 76.31 101.46 75.22 C 102.26 76.07 103.04 76.93 103.79 77.82 C 104.15 78.59 104.50 79.37 104.84 80.15 C 106.69 80.58 108.53 81.04 110.37 81.54 C 110.55 83.55 110.69 85.58 111.40 87.49 C 107.24 87.99 105.59 91.57 105.48 95.36 C 103.67 94.75 101.84 94.25 99.99 93.79 C 96.82 93.18 89.78 91.91 91.52 97.36 C 98.29 96.83 104.25 100.33 110.19 103.00 C 111.77 103.69 112.97 104.95 114.23 106.08 C 109.96 105.95 108.70 110.10 109.46 113.60 C 110.45 113.53 111.44 113.47 112.43 113.41 C 113.74 111.31 114.35 108.91 114.84 106.51 C 119.76 110.23 124.05 114.98 130.13 116.91 C 132.42 117.94 133.93 119.93 134.80 122.24 C 134.83 122.68 134.88 123.56 134.91 124.01 C 133.79 125.11 132.59 126.18 132.01 127.68 C 133.79 127.82 135.59 127.79 137.32 127.33 C 140.03 125.74 138.26 122.29 138.16 119.86 C 140.48 119.51 142.85 119.22 144.99 118.21 C 149.24 115.75 150.80 110.08 147.93 105.98 C 145.80 101.43 138.01 99.40 135.31 104.43 C 133.73 106.34 134.53 108.84 135.77 110.68 C 138.48 112.20 139.58 109.07 140.37 107.12 C 141.03 107.00 142.33 106.77 142.98 106.65 C 144.43 108.45 145.46 110.98 144.12 113.15 C 141.24 115.03 137.56 114.41 134.34 113.98 C 131.63 112.40 128.85 110.93 125.89 109.85 C 121.82 106.02 117.61 102.31 113.04 99.10 C 111.66 98.21 110.21 97.42 108.73 96.72 C 111.01 94.50 112.19 91.50 111.82 88.31 C 116.03 93.45 123.18 92.52 129.07 92.35 C 134.91 90.83 140.43 85.41 139.49 78.98 C 139.91 76.20 137.95 74.13 136.47 72.06 C 136.93 70.49 137.58 68.95 137.65 67.30 C 136.41 65.71 134.92 66.81 133.55 67.50 C 129.35 67.77 125.88 72.74 121.56 69.73 C 121.41 68.59 121.25 67.46 121.08 66.33 C 121.63 66.04 122.73 65.46 123.28 65.16 C 123.39 64.75 123.62 63.91 123.73 63.50 C 121.85 63.53 119.98 63.58 118.10 63.54 L 117.48 62.68 C 118.36 61.18 119.31 59.71 120.31 58.28 M 93.68 87.34 C 97.92 88.96 99.10 83.47 98.55 80.41 C 94.48 79.46 92.93 84.14 93.68 87.34 M 154.48 88.63 C 159.25 90.12 161.44 81.48 158.10 79.34 C 154.78 80.41 152.51 85.51 154.48 88.63 M 140.85 83.67 C 140.23 89.04 135.36 91.65 131.17 94.07 C 130.82 96.90 134.85 95.05 136.17 94.28 C 140.51 92.74 143.49 88.18 143.24 83.72 C 142.65 83.71 141.45 83.68 140.85 83.67 M 147.36 91.36 C 144.45 93.55 142.51 99.52 146.37 101.60 C 149.93 101.55 151.36 96.96 151.54 93.97 C 152.14 91.75 149.06 89.59 147.36 91.36 M 124.49 94.48 C 124.08 94.87 123.24 95.64 122.83 96.02 C 122.49 96.37 121.81 97.06 121.47 97.41 C 121.33 98.84 121.30 100.28 121.34 101.72 C 122.55 102.24 123.85 102.20 125.05 101.64 C 126.10 99.50 127.66 97.33 127.22 94.81 C 126.31 94.70 125.40 94.59 124.49 94.48 M 162.17 94.24 C 162.20 94.52 162.28 95.09 162.32 95.37 C 161.18 96.20 160.29 97.30 159.92 98.67 C 158.67 100.45 159.11 102.66 159.37 104.66 C 165.79 108.44 170.27 93.20 162.17 94.24 M 174.36 109.66 C 180.26 111.53 182.51 103.53 180.76 99.26 C 174.75 96.71 172.92 105.51 174.36 109.66 M 163.16 120.82 C 167.99 120.10 168.19 114.17 167.60 110.34 C 162.00 107.47 157.18 119.15 163.16 120.82 M 187.35 125.60 C 193.17 128.12 195.14 119.37 193.69 115.28 C 188.09 113.10 184.62 121.58 187.35 125.60 M 177.79 117.99 L 178.18 119.00 C 177.96 119.27 177.53 119.79 177.31 120.05 C 174.15 121.26 174.34 125.95 175.27 128.71 C 181.27 130.87 183.05 122.51 181.66 118.29 C 180.37 118.12 179.08 118.01 177.79 117.99 M 150.87 120.03 L 151.40 120.29 L 150.33 121.13 C 147.20 122.72 147.06 128.23 149.34 130.68 C 153.77 131.16 155.64 125.51 155.27 121.93 C 155.24 119.84 152.15 118.21 150.87 120.03 M 147.02 142.80 C 143.28 151.22 140.53 161.48 144.64 170.23 C 145.10 170.29 146.01 170.40 146.47 170.46 C 147.18 166.60 145.17 162.85 146.05 159.00 C 146.27 152.46 147.66 145.28 152.61 140.59 C 156.78 136.29 162.59 134.49 168.23 133.06 C 168.24 132.31 168.24 131.57 168.25 130.83 C 159.83 130.28 151.56 135.90 147.02 142.80 M 134.02 142.01 C 133.63 143.97 135.94 146.21 137.74 144.80 C 141.15 142.69 141.23 138.10 140.28 134.64 C 136.05 133.14 134.03 138.69 134.02 142.01 M 171.43 137.53 C 168.84 139.76 167.66 143.60 168.64 146.89 C 170.70 150.12 174.38 146.54 174.65 143.89 C 175.76 141.40 175.27 136.17 171.43 137.53 M 183.69 147.36 C 184.30 149.65 187.66 149.70 188.90 147.98 C 191.36 145.41 191.25 141.56 190.70 138.29 C 185.42 136.11 182.35 143.22 183.69 147.36 M 120.35 139.45 C 118.14 141.66 116.74 145.14 117.73 148.23 C 118.59 149.54 120.12 150.06 121.60 149.51 C 124.18 147.27 125.06 143.65 124.56 140.36 C 123.72 138.84 121.74 138.24 120.35 139.45 M 152.96 157.63 C 156.34 155.76 158.30 149.84 155.05 147.23 C 151.53 148.87 148.60 155.39 152.96 157.63 M 169.41 159.44 C 167.18 161.29 165.84 164.10 165.74 166.99 C 165.59 169.01 167.33 171.42 169.54 170.47 C 172.77 168.34 173.57 163.81 172.45 160.34 C 171.90 159.07 170.48 159.51 169.41 159.44 M 37.43 160.42 C 35.22 162.16 34.17 164.66 34.64 167.47 C 38.60 168.76 40.59 164.00 40.23 160.78 C 39.30 160.65 38.36 160.53 37.43 160.42 M 130.13 160.26 C 130.16 160.54 130.22 161.09 130.26 161.36 C 129.15 162.22 128.28 163.31 127.89 164.67 C 126.77 166.49 127.15 168.65 127.39 170.64 C 133.90 174.38 138.26 159.01 130.13 160.26 M 184.37 162.41 C 181.55 164.55 179.90 169.66 182.73 172.31 C 186.83 174.17 188.81 168.20 188.69 165.04 C 189.31 162.70 186.14 160.54 184.37 162.41 M 106.28 173.66 C 112.17 176.23 114.05 167.44 112.66 163.32 C 106.95 161.15 103.60 169.53 106.28 173.66 M 65.66 175.35 C 69.99 177.13 72.94 171.06 71.31 167.59 C 66.93 166.05 64.42 171.80 65.66 175.35 M 53.48 168.56 C 51.38 170.36 51.16 173.10 51.41 175.67 C 55.59 176.65 56.85 171.89 56.32 168.68 C 55.37 168.64 54.43 168.60 53.48 168.56 M 38.39 176.01 C 37.95 179.64 40.04 183.58 43.76 184.45 C 46.17 184.64 48.64 185.02 51.04 184.49 C 54.77 184.88 58.13 183.15 61.04 181.00 C 62.29 180.15 61.61 178.57 61.58 177.37 C 57.84 178.31 55.44 182.56 51.08 181.51 C 47.85 181.29 44.39 181.65 41.79 179.33 C 40.09 176.30 42.94 173.10 41.69 170.34 C 38.84 170.22 38.09 173.78 38.39 176.01 M 82.31 170.23 C 78.97 171.54 77.94 176.28 79.57 179.28 C 81.65 180.73 83.79 179.05 84.67 177.12 L 84.42 175.94 C 84.61 175.46 84.99 174.50 85.19 174.02 C 85.06 173.15 84.80 171.41 84.67 170.54 C 84.58 170.49 84.40 170.38 84.32 170.32 L 82.71 170.25 C 82.61 170.25 82.41 170.24 82.31 170.23 M 152.35 175.28 C 150.33 177.25 149.25 180.26 149.68 183.07 C 149.81 184.95 152.27 185.78 153.62 184.54 C 156.30 182.67 156.71 179.00 156.36 176.00 C 155.69 174.27 153.58 174.02 152.35 175.28 M 93.82 181.99 C 91.49 184.46 90.79 188.57 92.37 191.63 C 96.84 193.28 98.92 187.51 98.67 184.02 C 99.35 181.26 95.41 180.05 93.82 181.99 M 131.93 182.97 C 129.17 184.94 129.79 188.78 130.31 191.68 C 131.62 191.91 132.94 192.11 134.27 192.28 L 133.86 191.67 C 136.40 189.86 137.52 186.52 137.38 183.51 C 136.85 180.68 133.15 180.59 131.93 182.97 M 114.38 182.45 C 112.07 184.88 109.72 189.85 113.03 192.40 C 117.17 193.40 119.11 188.36 118.68 185.03 C 119.30 182.64 116.18 180.60 114.38 182.45 M 171.36 192.63 C 172.43 192.62 173.50 192.59 174.57 192.56 C 174.80 192.05 175.26 191.03 175.49 190.52 L 175.54 189.86 C 178.37 188.73 178.77 180.67 174.08 181.95 C 170.78 184.12 169.38 189.11 171.36 192.63 M 61.42 196.62 C 66.93 198.96 69.83 190.00 66.92 186.61 C 61.77 185.58 60.29 192.83 61.42 196.62 M 78.98 195.83 C 78.77 196.09 78.35 196.62 78.14 196.88 C 75.42 198.89 75.32 202.74 76.31 205.70 C 82.28 207.87 84.16 199.54 82.64 195.31 C 81.50 195.48 79.36 194.20 78.98 195.83 M 156.44 196.47 C 153.25 198.33 151.29 202.74 152.85 206.18 C 154.67 209.37 158.20 206.39 158.96 203.95 C 160.12 201.45 160.40 196.11 156.44 196.47 M 136.35 197.39 C 133.05 199.14 131.33 204.28 133.24 207.62 C 135.94 209.46 138.67 206.78 139.03 204.10 C 140.07 201.74 140.10 196.73 136.35 197.39 M 98.91 197.99 L 99.37 198.56 C 99.09 198.95 98.55 199.73 98.28 200.12 C 95.31 201.55 95.62 205.91 96.34 208.68 C 98.84 209.70 101.76 208.58 101.85 205.61 L 102.11 205.17 C 103.98 203.45 103.04 200.46 102.70 198.26 C 101.44 198.10 100.18 198.01 98.91 197.99 M 111.26 210.76 C 117.25 213.29 119.21 204.50 117.66 200.31 C 111.65 198.36 109.65 206.52 111.26 210.76 Z" />
<path fill="#e9e800" opacity="1.00" d=" M 126.12 62.79 C 125.97 60.37 127.01 56.55 130.20 57.57 C 130.11 59.04 130.01 60.51 129.87 61.97 C 129.63 62.34 129.15 63.08 128.92 63.45 C 128.22 63.28 126.82 62.95 126.12 62.79 Z" />
<path fill="#030606" opacity="1.00" d=" M 169.48 58.98 C 170.00 58.72 171.04 58.20 171.56 57.94 C 175.05 62.21 178.80 66.31 181.76 70.99 C 182.46 72.95 183.30 74.86 184.52 76.56 C 186.05 79.45 189.17 82.45 188.14 85.96 C 187.22 85.58 186.31 85.20 185.40 84.83 C 183.79 80.63 181.73 76.62 179.39 72.78 C 176.82 67.67 172.43 63.84 169.48 58.98 Z" />
<path fill="#020405" opacity="1.00" d=" M 167.44 62.42 C 168.00 62.38 169.12 62.31 169.68 62.28 C 169.87 64.16 169.61 66.04 168.76 67.74 C 168.14 67.73 166.90 67.72 166.29 67.71 C 166.25 65.87 166.58 64.05 167.44 62.42 Z" />
<path fill="#feffff" opacity="1.00" d=" M 75.67 66.14 C 76.56 65.32 77.42 64.48 78.23 63.58 C 78.30 64.18 78.44 65.38 78.51 65.98 C 79.48 65.86 80.45 65.73 81.42 65.61 C 82.99 68.33 85.37 70.35 87.83 72.22 C 89.50 73.42 88.34 75.73 88.48 77.42 C 88.14 77.46 87.45 77.55 87.11 77.60 C 86.70 77.56 85.88 77.46 85.48 77.42 C 85.98 76.08 86.53 74.76 87.12 73.46 C 85.96 73.97 84.84 74.56 83.77 75.24 C 83.67 75.36 83.46 75.59 83.36 75.71 C 83.29 76.69 83.15 78.65 83.08 79.63 L 83.32 80.24 C 82.71 80.48 81.49 80.94 80.88 81.18 C 80.71 81.32 80.37 81.61 80.20 81.75 C 79.66 81.84 78.56 82.03 78.01 82.12 C 78.00 81.77 77.99 81.07 77.99 80.73 C 78.16 79.06 79.91 77.44 79.09 75.77 C 78.94 75.68 78.64 75.51 78.49 75.42 L 77.13 75.59 C 77.34 72.96 74.85 72.83 72.97 72.26 L 74.31 70.15 C 74.50 70.04 74.86 69.82 75.05 69.71 L 75.93 69.71 L 76.84 69.74 C 77.07 69.91 77.53 70.25 77.76 70.42 L 78.40 70.56 L 78.51 69.99 L 78.72 68.97 L 78.81 68.52 L 78.39 68.28 C 77.33 67.77 76.40 67.06 75.67 66.14 Z" />
<path fill="#ee4734" opacity="1.00" d=" M 145.26 64.71 C 147.24 64.41 149.24 64.17 151.24 63.96 L 151.18 64.55 C 150.82 67.04 150.86 69.64 150.06 72.05 C 149.00 74.10 145.86 76.46 144.00 73.96 C 142.24 70.95 144.39 67.64 145.26 64.71 M 147.00 64.64 L 146.98 65.42 C 144.85 67.52 142.66 75.17 147.95 73.24 L 148.21 72.31 C 150.40 70.63 149.72 67.57 149.74 65.18 C 149.06 65.04 147.68 64.77 147.00 64.64 Z" />
<path fill="#7c0b0b" opacity="1.00" d=" M 99.19 65.22 C 99.65 65.31 100.56 65.51 101.01 65.61 C 99.47 67.60 99.58 70.15 99.35 72.52 C 99.20 70.09 99.11 67.65 99.19 65.22 Z" />
<path fill="#eca339" opacity="1.00" d=" M 147.00 64.64 C 147.68 64.77 149.06 65.04 149.74 65.18 C 149.72 67.57 150.40 70.63 148.21 72.31 C 148.22 69.99 150.35 66.15 146.98 65.42 L 147.00 64.64 Z" />
<path fill="#e7e403" opacity="1.00" d=" M 147.95 73.24 C 142.66 75.17 144.85 67.52 146.98 65.42 C 150.35 66.15 148.22 69.99 148.21 72.31 L 147.95 73.24 Z" />
<path fill="#020303" opacity="1.00" d=" M 133.55 67.50 C 134.92 66.81 136.41 65.71 137.65 67.30 C 137.58 68.95 136.93 70.49 136.47 72.06 C 137.95 74.13 139.91 76.20 139.49 78.98 C 140.43 85.41 134.91 90.83 129.07 92.35 C 123.18 92.52 116.03 93.45 111.82 88.31 L 111.40 87.49 C 110.69 85.58 110.55 83.55 110.37 81.54 C 108.53 81.04 106.69 80.58 104.84 80.15 C 104.50 79.37 104.15 78.59 103.79 77.82 C 113.34 73.11 126.69 77.33 133.55 67.50 M 129.73 75.53 C 129.53 75.65 129.11 75.89 128.90 76.01 C 128.44 76.31 127.53 76.90 127.07 77.20 C 125.99 76.15 123.17 76.27 122.88 77.93 L 121.51 78.66 C 120.76 77.29 117.39 78.03 117.26 79.29 C 115.64 78.33 114.49 78.66 113.80 80.27 C 111.81 80.32 111.80 84.79 113.77 84.75 L 114.81 86.41 C 114.91 86.56 115.12 86.87 115.23 87.02 C 115.39 87.19 115.71 87.52 115.87 87.69 C 115.49 89.26 119.07 90.08 118.74 88.26 L 120.09 88.45 C 119.98 90.72 123.19 89.31 122.79 87.68 C 124.73 88.22 126.28 90.80 127.80 88.09 L 127.00 87.55 L 128.17 87.70 C 128.23 87.98 128.34 88.53 128.40 88.81 C 129.92 88.80 131.26 88.13 132.51 87.30 C 132.55 86.88 132.64 86.03 132.68 85.61 C 130.98 85.56 128.65 85.40 129.18 83.04 C 131.46 82.98 134.92 86.45 135.78 82.67 C 134.29 82.46 132.81 82.24 131.33 82.00 C 131.32 81.59 131.30 80.75 131.29 80.33 C 131.90 80.30 133.12 80.22 133.73 80.18 C 134.78 81.31 135.59 81.15 136.17 79.70 C 136.08 79.56 135.90 79.28 135.80 79.14 C 135.36 78.83 134.49 78.20 134.05 77.89 C 134.37 77.70 135.00 77.31 135.32 77.11 L 135.08 76.58 L 134.84 75.38 C 134.44 75.07 133.63 74.44 133.23 74.13 L 131.85 74.58 C 131.32 74.82 130.26 75.29 129.73 75.53 Z" />
<path fill="#e7e701" opacity="1.00" d=" M 53.44 69.92 C 54.52 68.16 56.22 66.66 58.46 67.51 C 58.50 69.04 58.41 70.56 58.19 72.07 C 57.07 72.61 55.96 73.17 54.85 73.75 C 54.12 72.58 53.65 71.31 53.44 69.92 Z" />
<path fill="#7ab6b6" opacity="1.00" d=" M 78.39 68.28 L 78.81 68.52 L 78.72 68.97 C 78.63 68.80 78.47 68.46 78.39 68.28 Z" />
<path fill="#251c1c" opacity="1.00" d=" M 103.55 74.36 C 104.84 72.16 103.28 66.37 107.28 67.74 C 107.90 70.16 106.91 75.27 103.55 74.36 Z" />
<path fill="#030c0c" opacity="1.00" d=" M 63.78 69.70 C 64.73 69.47 65.69 69.33 66.67 69.26 C 68.03 71.93 66.94 75.02 67.35 77.88 C 68.09 79.15 69.10 80.25 69.80 81.55 C 66.66 82.92 64.97 79.73 63.36 77.67 C 63.36 75.47 63.23 73.28 63.33 71.08 C 63.44 70.74 63.67 70.04 63.78 69.70 Z" />
<path fill="#7ab6b6" opacity="1.00" d=" M 74.48 69.64 C 74.64 69.51 74.96 69.26 75.12 69.13 L 75.05 69.71 L 74.48 69.64 Z" />
<path fill="#9edada" opacity="1.00" d=" M 75.12 69.13 L 75.91 69.13 L 75.93 69.71 L 75.05 69.71 L 75.12 69.13 Z" />
<path fill="#7ab6b6" opacity="1.00" d=" M 75.91 69.13 C 76.14 69.28 76.61 69.59 76.84 69.74 L 75.93 69.71 L 75.91 69.13 Z" />
<path fill="#051212" opacity="1.00" d=" M 112.04 69.77 C 112.33 69.79 112.92 69.83 113.21 69.85 C 113.29 70.67 113.36 71.50 113.42 72.32 C 111.83 73.48 110.29 75.05 108.15 74.89 C 108.34 72.56 110.89 71.60 112.04 69.77 Z" />
<path fill="#2ac101" opacity="1.00" d=" M 159.45 69.55 C 161.13 69.50 162.95 69.42 164.13 70.85 C 167.02 73.66 170.65 75.72 173.00 79.05 L 173.55 79.86 C 175.00 81.94 176.64 84.05 178.98 85.17 C 181.08 85.77 183.28 85.00 185.40 84.83 C 186.31 85.20 187.22 85.58 188.14 85.96 C 187.94 86.52 187.56 87.65 187.37 88.21 C 185.34 89.25 183.37 90.41 181.45 91.63 C 177.46 89.02 173.96 85.68 170.95 82.00 C 167.00 77.97 162.94 74.01 159.45 69.55 Z" />
<path fill="#6e1818" opacity="1.00" d=" M 45.98 73.97 C 46.27 72.21 47.19 70.41 49.11 70.06 C 48.51 71.04 47.92 72.03 47.34 73.04 C 47.77 73.51 48.64 74.47 49.07 74.95 C 48.03 74.66 47.00 74.34 45.98 73.97 Z" />
<path fill="#f0620e" opacity="1.00" d=" M 53.25 74.78 C 53.15 73.16 53.28 71.54 53.44 69.92 C 53.65 71.31 54.12 72.58 54.85 73.75 C 55.96 73.17 57.07 72.61 58.19 72.07 C 57.75 74.55 55.43 75.10 53.25 74.78 Z" />
<path fill="#9edada" opacity="1.00" d=" M 74.48 69.64 L 75.05 69.71 C 74.86 69.82 74.50 70.04 74.31 70.15 L 74.48 69.64 Z" />
<path fill="#9edada" opacity="1.00" d=" M 76.84 69.74 L 77.75 69.84 L 77.76 70.42 C 77.53 70.25 77.07 69.91 76.84 69.74 Z" />
<path fill="#7ab6b6" opacity="1.00" d=" M 77.75 69.84 L 78.51 69.99 L 78.40 70.56 L 77.76 70.42 L 77.75 69.84 Z" />
<path fill="#da4b07" opacity="1.00" d=" M 62.16 76.64 C 62.73 74.90 61.61 72.09 63.33 71.08 C 63.23 73.28 63.36 75.47 63.36 77.67 C 63.22 79.63 62.51 81.49 61.43 83.12 C 61.53 80.97 62.34 77.41 58.94 77.88 C 59.88 77.20 60.95 76.78 62.16 76.64 Z" />
<path fill="#050408" opacity="1.00" d=" M 173.00 79.05 C 173.17 76.30 173.73 69.75 177.97 72.28 C 177.08 74.63 176.25 77.00 175.41 79.37 C 174.95 79.49 174.02 79.74 173.55 79.86 L 173.00 79.05 Z" />
<path fill="#276310" opacity="1.00" d=" M 181.76 70.99 C 182.58 71.74 183.43 72.48 184.29 73.20 C 185.49 74.39 186.97 75.20 188.65 75.49 C 188.66 74.81 188.70 73.46 188.72 72.78 C 188.82 72.37 189.03 71.56 189.13 71.15 C 190.65 72.29 190.82 74.20 191.11 75.93 C 188.90 76.03 186.70 76.20 184.52 76.56 C 183.30 74.86 182.46 72.95 181.76 70.99 Z" />
<path fill="#351616" opacity="1.00" d=" M 70.38 78.75 C 69.10 76.76 69.45 74.25 70.09 72.11 C 71.43 73.94 71.28 76.76 70.38 78.75 Z" />
<path fill="#030606" opacity="1.00" d=" M 184.29 73.20 C 185.73 72.80 187.22 72.72 188.72 72.78 C 188.70 73.46 188.66 74.81 188.65 75.49 C 186.97 75.20 185.49 74.39 184.29 73.20 Z" />
<path fill="#2aa100" opacity="1.00" d=" M 177.97 72.28 L 179.39 72.78 C 181.73 76.62 183.79 80.63 185.40 84.83 C 183.28 85.00 181.08 85.77 178.98 85.17 C 176.64 84.05 175.00 81.94 173.55 79.86 C 174.02 79.74 174.95 79.49 175.41 79.37 C 176.25 77.00 177.08 74.63 177.97 72.28 Z" />
<path fill="#031b1b" opacity="1.00" d=" M 129.73 75.53 C 130.26 75.29 131.32 74.82 131.85 74.58 C 131.32 74.82 130.26 75.29 129.73 75.53 Z" />
<path fill="#f2fefe" opacity="1.00" d=" M 131.85 74.58 L 133.23 74.13 C 133.63 74.44 134.44 75.07 134.84 75.38 L 135.08 76.58 C 134.29 76.33 132.72 75.82 131.94 75.57 C 131.67 76.04 131.14 76.97 130.87 77.44 C 130.27 77.30 129.06 77.03 128.46 76.89 L 128.90 76.01 C 129.11 75.89 129.53 75.65 129.73 75.53 C 130.26 75.29 131.32 74.82 131.85 74.58 Z" />
<path fill="#031b1b" opacity="1.00" d=" M 133.23 74.13 C 133.63 74.44 134.44 75.07 134.84 75.38 C 134.44 75.07 133.63 74.44 133.23 74.13 Z" />
<path fill="#7d7d7d" opacity="1.00" d=" M 34.34 82.85 C 33.92 79.40 35.42 76.02 38.92 74.94 C 35.91 76.72 35.69 80.06 34.34 82.85 Z" />
<path fill="#9edada" opacity="1.00" d=" M 74.19 75.07 C 74.27 75.01 74.42 74.89 74.50 74.83 C 74.42 74.89 74.27 75.01 74.19 75.07 Z" />
<path fill="#f8ffff" opacity="1.00" d=" M 74.50 74.83 C 77.99 73.10 76.68 77.62 76.55 79.39 C 76.91 79.72 77.63 80.39 77.99 80.73 C 77.99 81.07 78.00 81.77 78.01 82.12 L 77.50 82.48 C 76.57 81.49 75.64 80.49 74.72 79.49 L 74.42 79.16 C 74.35 79.09 74.22 78.94 74.15 78.86 C 73.96 78.08 73.56 76.52 73.36 75.74 L 74.19 75.07 C 74.27 75.01 74.42 74.89 74.50 74.83 Z" />
<path fill="#f8ffff" opacity="1.00" d=" M 78.49 75.42 C 78.64 75.51 78.94 75.68 79.09 75.77 C 78.94 75.68 78.64 75.51 78.49 75.42 Z" />
<path fill="#7ab6b6" opacity="1.00" d=" M 83.36 75.71 C 83.46 75.59 83.67 75.36 83.77 75.24 C 83.67 75.36 83.46 75.59 83.36 75.71 Z" />
<path fill="#031b1b" opacity="1.00" d=" M 128.90 76.01 C 129.11 75.89 129.53 75.65 129.73 75.53 C 129.53 75.65 129.11 75.89 128.90 76.01 Z" />
<path fill="#031b1b" opacity="1.00" d=" M 127.07 77.20 C 127.53 76.90 128.44 76.31 128.90 76.01 L 128.46 76.89 L 127.56 77.38 L 127.07 77.20 Z" />
<path fill="#031b1b" opacity="1.00" d=" M 130.87 77.44 C 131.14 76.97 131.67 76.04 131.94 75.57 C 132.72 75.82 134.29 76.33 135.08 76.58 L 135.32 77.11 C 135.00 77.31 134.37 77.70 134.05 77.89 C 133.25 77.78 131.67 77.55 130.87 77.44 Z" />
<path fill="#3bcb00" opacity="1.00" d=" M 184.52 76.56 C 186.70 76.20 188.90 76.03 191.11 75.93 C 192.24 79.08 192.63 82.41 192.73 85.74 C 190.93 86.54 189.13 87.33 187.37 88.21 C 187.56 87.65 187.94 86.52 188.14 85.96 C 189.17 82.45 186.05 79.45 184.52 76.56 Z" />
<path fill="#020303" opacity="1.00" d=" M 85.48 77.42 C 85.88 77.46 86.70 77.56 87.11 77.60 C 86.38 79.10 85.84 79.04 85.48 77.42 Z" />
<path fill="#031b1b" opacity="1.00" d=" M 122.88 77.93 C 123.17 76.27 125.99 76.15 127.07 77.20 L 127.01 77.69 C 125.63 77.70 124.25 77.78 122.88 77.93 Z" />
<path fill="#f2fefe" opacity="1.00" d=" M 127.07 77.20 L 127.56 77.38 C 127.43 77.46 127.15 77.61 127.01 77.69 L 127.07 77.20 Z" />
<path fill="#fdfefe" opacity="1.00" d=" M 127.56 77.38 L 128.46 76.89 C 129.06 77.03 130.27 77.30 130.87 77.44 C 131.67 77.55 133.25 77.78 134.05 77.89 C 134.28 78.22 134.75 78.89 134.99 79.22 C 134.67 79.46 134.04 79.94 133.73 80.18 C 133.12 80.22 131.90 80.30 131.29 80.33 C 129.87 80.82 129.89 81.38 131.33 82.00 C 132.81 82.24 134.29 82.46 135.78 82.67 C 134.92 86.45 131.46 82.98 129.18 83.04 C 128.65 85.40 130.98 85.56 132.68 85.61 C 132.64 86.03 132.55 86.88 132.51 87.30 C 131.26 88.13 129.92 88.80 128.40 88.81 C 128.34 88.53 128.23 87.98 128.17 87.70 C 130.04 86.16 125.90 84.00 126.34 86.58 C 126.51 86.82 126.84 87.31 127.00 87.55 L 127.80 88.09 C 126.28 90.80 124.73 88.22 122.79 87.68 C 122.70 87.61 122.53 87.47 122.45 87.41 C 122.53 87.47 122.70 87.61 122.79 87.68 C 123.19 89.31 119.98 90.72 120.09 88.45 C 120.42 87.99 121.07 87.06 121.40 86.60 C 122.05 85.38 124.13 84.49 123.28 82.85 L 121.99 82.70 C 121.55 82.70 120.67 82.70 120.23 82.70 L 120.44 81.28 C 120.43 81.21 120.41 81.07 120.41 81.00 L 119.45 79.98 C 119.56 79.88 119.76 79.69 119.87 79.60 L 120.37 79.47 C 120.46 79.46 120.63 79.42 120.72 79.40 L 121.22 79.28 C 123.26 79.31 125.34 78.94 127.01 77.69 C 127.15 77.61 127.43 77.46 127.56 77.38 Z" />
<path fill="#e8e701" opacity="1.00" d=" M 57.51 84.49 C 57.13 82.15 57.45 79.78 58.94 77.88 C 62.34 77.41 61.53 80.97 61.43 83.12 C 60.42 84.34 59.11 84.80 57.51 84.49 Z" />
<path fill="#9edada" opacity="1.00" d=" M 74.15 78.86 C 74.22 78.94 74.35 79.09 74.42 79.16 L 74.12 79.24 L 74.15 78.86 Z" />
<path fill="#020303" opacity="1.00" d=" M 83.52 79.32 C 84.68 78.04 85.08 78.20 84.73 79.82 L 83.86 79.91 L 83.52 79.32 Z" />
<path fill="#031b1b" opacity="1.00" d=" M 117.26 79.29 C 117.39 78.03 120.76 77.29 121.51 78.66 L 121.22 79.28 L 120.72 79.40 L 120.37 79.47 L 119.87 79.60 C 119.22 79.52 117.91 79.36 117.26 79.29 Z" />
<path fill="#f2fefe" opacity="1.00" d=" M 121.51 78.66 L 122.88 77.93 C 124.25 77.78 125.63 77.70 127.01 77.69 C 125.34 78.94 123.26 79.31 121.22 79.28 L 121.51 78.66 Z" />
<path fill="#5b9a9a" opacity="1.00" d=" M 134.05 77.89 C 134.49 78.20 135.36 78.83 135.80 79.14 L 134.99 79.22 C 134.75 78.89 134.28 78.22 134.05 77.89 Z" />
<path fill="#7ab6b6" opacity="1.00" d=" M 74.12 79.24 L 74.42 79.16 L 74.72 79.49 C 74.57 79.43 74.27 79.31 74.12 79.24 Z" />
<path fill="#fdfefe" opacity="1.00" d=" M 83.08 79.63 L 83.52 79.32 L 83.86 79.91 L 83.32 80.24 L 83.08 79.63 Z" />
<path fill="#031b1b" opacity="1.00" d=" M 113.80 80.27 C 114.49 78.66 115.64 78.33 117.26 79.29 C 116.16 79.88 115.01 80.21 113.80 80.27 Z" />
<path fill="#f2fefe" opacity="1.00" d=" M 117.26 79.29 C 117.91 79.36 119.22 79.52 119.87 79.60 C 119.76 79.69 119.56 79.88 119.45 79.98 C 117.56 81.23 116.66 83.25 117.39 85.43 C 118.66 86.04 120.00 86.43 121.40 86.60 C 121.07 87.06 120.42 87.99 120.09 88.45 L 118.74 88.26 C 118.02 88.12 116.59 87.83 115.87 87.69 C 115.71 87.52 115.39 87.19 115.23 87.02 C 115.12 86.87 114.91 86.56 114.81 86.41 L 113.77 84.75 C 113.69 83.25 113.74 81.76 113.80 80.27 C 115.01 80.21 116.16 79.88 117.26 79.29 Z" />
<path fill="#f2fefe" opacity="1.00" d=" M 120.37 79.47 L 120.72 79.40 C 120.63 79.42 120.46 79.46 120.37 79.47 Z" />
<path fill="#ade7e7" opacity="1.00" d=" M 134.99 79.22 L 135.80 79.14 L 136.17 79.70 C 135.59 81.15 134.78 81.31 133.73 80.18 C 134.04 79.94 134.67 79.46 134.99 79.22 Z" />
<path fill="#5b9a9a" opacity="1.00" d=" M 135.80 79.14 C 135.90 79.28 136.08 79.56 136.17 79.70 L 135.80 79.14 Z" />
<path fill="#020202" opacity="1.00" d=" M 80.88 81.18 C 81.49 80.94 82.71 80.48 83.32 80.24 C 82.94 80.75 82.17 81.78 81.79 82.29 L 80.96 81.75 L 80.88 81.18 Z" />
<path fill="#feffff" opacity="1.00" d=" M 83.32 80.24 L 83.86 79.91 L 84.73 79.82 C 87.66 78.90 87.06 82.57 84.72 82.63 C 84.66 82.67 84.53 82.75 84.47 82.78 C 83.75 82.86 82.32 83.01 81.61 83.09 L 81.79 82.29 C 82.17 81.78 82.94 80.75 83.32 80.24 Z" />
<path fill="#e8d800" opacity="1.00" d=" M 93.68 87.34 C 92.93 84.14 94.48 79.46 98.55 80.41 C 99.10 83.47 97.92 88.96 93.68 87.34 Z" />
<path fill="#031b1b" opacity="1.00" d=" M 113.77 84.75 C 111.80 84.79 111.81 80.32 113.80 80.27 C 113.74 81.76 113.69 83.25 113.77 84.75 Z" />
<path fill="#ade7e7" opacity="1.00" d=" M 131.33 82.00 C 129.89 81.38 129.87 80.82 131.29 80.33 C 131.30 80.75 131.32 81.59 131.33 82.00 Z" />
<path fill="#e7e009" opacity="1.00" d=" M 154.48 88.63 C 152.51 85.51 154.78 80.41 158.10 79.34 C 161.44 81.48 159.25 90.12 154.48 88.63 Z" />
<path fill="#7ab6b6" opacity="1.00" d=" M 80.20 81.75 C 80.37 81.61 80.71 81.32 80.88 81.18 L 80.96 81.75 L 80.20 81.75 Z" />
<path fill="#031b1b" opacity="1.00" d=" M 117.39 85.43 C 116.66 83.25 117.56 81.23 119.45 79.98 L 120.41 81.00 L 120.44 81.28 L 120.23 82.70 C 120.47 84.22 121.05 84.22 121.99 82.70 L 123.28 82.85 C 124.13 84.49 122.05 85.38 121.40 86.60 C 120.00 86.43 118.66 86.04 117.39 85.43 Z" />
<path fill="#f2fefe" opacity="1.00" d=" M 120.41 81.00 C 120.41 81.07 120.43 81.21 120.44 81.28 L 120.41 81.00 Z" />
<path fill="#020303" opacity="1.00" d=" M 77.50 82.48 L 78.01 82.12 L 78.19 82.67 C 78.01 82.62 77.67 82.53 77.50 82.48 Z" />
<path fill="#f8ffff" opacity="1.00" d=" M 78.01 82.12 C 78.56 82.03 79.66 81.84 80.20 81.75 L 80.14 82.48 C 79.65 82.53 78.67 82.62 78.19 82.67 L 78.01 82.12 Z" />
<path fill="#020303" opacity="1.00" d=" M 80.20 81.75 L 80.96 81.75 L 81.79 82.29 L 81.61 83.09 C 81.24 82.94 80.51 82.63 80.14 82.48 L 80.20 81.75 Z" />
<path fill="#7ab6b6" opacity="1.00" d=" M 84.47 82.78 C 84.53 82.75 84.66 82.67 84.72 82.63 C 84.66 82.67 84.53 82.75 84.47 82.78 Z" />
<path fill="#f2fefe" opacity="1.00" d=" M 120.23 82.70 C 120.67 82.70 121.55 82.70 121.99 82.70 C 121.05 84.22 120.47 84.22 120.23 82.70 Z" />
<path fill="#fb0101" opacity="1.00" d=" M 35.91 84.85 C 36.95 83.28 38.12 85.40 38.78 86.16 C 42.46 91.33 49.44 90.38 54.89 91.85 C 54.60 93.82 54.39 95.80 54.25 97.79 C 50.72 97.47 46.37 98.28 44.01 94.95 C 42.15 93.06 40.51 90.98 38.86 88.92 C 38.44 89.10 37.60 89.48 37.18 89.66 C 34.60 91.87 32.51 94.91 33.48 98.46 C 33.93 98.45 34.85 98.42 35.30 98.41 C 36.02 96.31 36.64 94.11 38.18 92.43 C 38.48 93.05 39.08 94.29 39.39 94.91 C 39.14 101.55 36.41 107.85 32.13 112.89 C 26.66 119.68 27.85 129.58 30.80 137.16 C 32.63 140.75 34.82 144.22 37.77 147.02 C 39.13 149.16 40.74 151.18 43.18 152.15 C 50.78 157.18 59.73 159.18 68.45 161.30 C 68.16 161.32 67.58 161.37 67.29 161.39 C 64.37 161.56 61.45 161.56 58.53 161.69 C 54.74 160.65 50.82 159.76 47.50 157.56 C 41.98 154.23 34.96 152.10 32.01 145.83 C 29.18 140.27 26.06 134.36 26.33 127.96 C 26.77 126.03 24.58 126.29 23.41 126.25 C 22.14 129.09 22.88 132.16 23.86 134.95 L 22.79 134.57 C 21.61 134.37 20.12 132.97 19.07 134.10 C 16.66 135.79 17.38 139.01 17.55 141.51 C 18.58 141.22 19.61 140.94 20.65 140.66 C 19.84 143.38 19.29 146.19 19.28 149.03 L 19.26 149.69 C 18.37 152.24 17.56 154.81 16.82 157.41 C 14.74 153.66 15.44 149.12 15.25 144.99 C 15.00 138.00 15.96 130.91 14.43 124.03 C 14.13 118.62 15.76 113.27 17.43 108.20 C 21.74 102.78 24.96 96.59 28.90 90.90 C 31.29 88.94 34.08 87.43 35.91 84.85 M 27.50 101.66 C 24.70 103.27 23.91 106.29 24.73 109.29 C 25.56 109.29 26.39 109.30 27.22 109.30 C 28.91 107.17 30.16 104.53 29.22 101.79 C 28.79 101.75 27.93 101.69 27.50 101.66 M 20.37 116.42 C 18.42 118.28 18.34 120.92 18.63 123.43 C 19.58 123.38 20.52 123.32 21.47 123.27 C 23.15 121.33 23.74 118.83 23.57 116.31 C 22.51 116.34 21.44 116.38 20.37 116.42 Z" />
<path fill="#030d0d" opacity="1.00" d=" M 140.85 83.67 C 141.45 83.68 142.65 83.71 143.24 83.72 C 143.49 88.18 140.51 92.74 136.17 94.28 C 134.85 95.05 130.82 96.90 131.17 94.07 C 135.36 91.65 140.23 89.04 140.85 83.67 Z" />
<path fill="#143434" opacity="1.00" d=" M 126.34 86.58 C 125.90 84.00 130.04 86.16 128.17 87.70 L 127.00 87.55 C 126.84 87.31 126.51 86.82 126.34 86.58 Z" />
<path fill="#7f0907" opacity="1.00" d=" M 38.78 86.16 C 44.02 89.96 50.53 90.04 56.71 90.77 C 56.26 91.04 55.35 91.58 54.89 91.85 C 49.44 90.38 42.46 91.33 38.78 86.16 Z" />
<path fill="#601214" opacity="1.00" d=" M 51.70 85.76 C 59.22 85.21 66.77 85.68 74.20 86.93 C 68.11 87.14 62.04 86.47 55.95 86.78 C 54.55 86.57 52.64 87.16 51.70 85.76 Z" />
<path fill="#031b1b" opacity="1.00" d=" M 114.81 86.41 C 114.91 86.56 115.12 86.87 115.23 87.02 C 115.12 86.87 114.91 86.56 114.81 86.41 Z" />
<path fill="#020303" opacity="1.00" d=" M 126.34 86.58 C 126.51 86.82 126.84 87.31 127.00 87.55 C 126.84 87.31 126.51 86.82 126.34 86.58 Z" />
<path fill="#2cdb00" opacity="1.00" d=" M 187.37 88.21 C 189.13 87.33 190.93 86.54 192.73 85.74 C 194.02 90.52 193.61 95.79 193.71 100.77 C 193.02 100.78 191.62 100.79 190.92 100.80 C 187.53 98.02 184.06 95.19 181.45 91.63 C 183.37 90.41 185.34 89.25 187.37 88.21 Z" />
<path fill="#031b1b" opacity="1.00" d=" M 115.23 87.02 C 115.39 87.19 115.71 87.52 115.87 87.69 C 115.71 87.52 115.39 87.19 115.23 87.02 Z" />
<path fill="#020303" opacity="1.00" d=" M 122.45 87.41 C 122.53 87.47 122.70 87.61 122.79 87.68 C 122.70 87.61 122.53 87.47 122.45 87.41 Z" />
<path fill="#e46d07" opacity="1.00" d=" M 105.48 95.36 C 105.59 91.57 107.24 87.99 111.40 87.49 L 111.82 88.31 C 112.19 91.50 111.01 94.50 108.73 96.72 C 107.66 96.23 106.57 95.78 105.48 95.36 M 106.99 95.06 C 110.23 96.08 111.14 91.22 110.19 88.93 C 107.61 89.48 106.23 92.67 106.99 95.06 Z" />
<path fill="#031b1b" opacity="1.00" d=" M 115.87 87.69 C 116.59 87.83 118.02 88.12 118.74 88.26 C 119.07 90.08 115.49 89.26 115.87 87.69 Z" />
<path fill="#981717" opacity="1.00" d=" M 37.18 89.66 C 37.60 89.48 38.44 89.10 38.86 88.92 C 40.51 90.98 42.15 93.06 44.01 94.95 C 43.09 94.39 42.14 93.90 41.15 93.48 C 40.71 93.84 39.83 94.55 39.39 94.91 C 39.08 94.29 38.48 93.05 38.18 92.43 C 38.52 92.00 39.20 91.13 39.54 90.70 C 38.95 90.44 37.77 89.92 37.18 89.66 Z" />
<path fill="#e8de01" opacity="1.00" d=" M 106.99 95.06 C 106.23 92.67 107.61 89.48 110.19 88.93 C 111.14 91.22 110.23 96.08 106.99 95.06 Z" />
<path fill="#060505" opacity="1.00" d=" M 33.48 98.46 C 32.51 94.91 34.60 91.87 37.18 89.66 C 37.77 89.92 38.95 90.44 39.54 90.70 C 39.20 91.13 38.52 92.00 38.18 92.43 C 36.64 94.11 36.02 96.31 35.30 98.41 C 34.85 98.42 33.93 98.45 33.48 98.46 Z" />
<path fill="#ece001" opacity="1.00" d=" M 56.71 90.77 C 57.17 90.72 58.07 90.61 58.52 90.56 C 58.84 90.86 59.46 91.47 59.78 91.77 C 59.22 93.81 58.53 95.80 57.73 97.75 C 56.57 97.82 55.41 97.85 54.25 97.79 C 54.39 95.80 54.60 93.82 54.89 91.85 C 55.35 91.58 56.26 91.04 56.71 90.77 Z" />
<path fill="#800606" opacity="1.00" d=" M 58.52 90.56 C 63.14 90.53 67.79 90.15 72.40 90.58 C 72.56 90.81 72.89 91.27 73.05 91.50 C 68.62 91.33 64.19 91.35 59.78 91.77 C 59.46 91.47 58.84 90.86 58.52 90.56 Z" />
<path fill="#eb6c39" opacity="1.00" d=" M 147.36 91.36 C 149.06 89.59 152.14 91.75 151.54 93.97 C 151.36 96.96 149.93 101.55 146.37 101.60 C 142.51 99.52 144.45 93.55 147.36 91.36 M 146.99 100.42 C 149.96 99.05 149.65 95.31 150.06 92.59 C 146.44 91.52 143.82 98.58 146.99 100.42 Z" />
<path fill="#020303" opacity="1.00" d=" M 91.52 97.36 C 89.78 91.91 96.82 93.18 99.99 93.79 C 104.02 96.26 108.49 97.89 113.04 99.10 C 117.61 102.31 121.82 106.02 125.89 109.85 C 128.11 112.21 131.12 113.65 134.34 113.98 C 137.56 114.41 141.24 115.03 144.12 113.15 C 145.46 110.98 144.43 108.45 142.98 106.65 C 139.15 104.34 138.97 110.02 135.77 110.68 C 134.53 108.84 133.73 106.34 135.31 104.43 C 138.01 99.40 145.80 101.43 147.93 105.98 C 150.80 110.08 149.24 115.75 144.99 118.21 C 139.99 118.85 135.03 117.80 130.13 116.91 C 124.05 114.98 119.76 110.23 114.84 106.51 C 114.68 106.41 114.38 106.19 114.23 106.08 C 112.97 104.95 111.77 103.69 110.19 103.00 C 104.25 100.33 98.29 96.83 91.52 97.36 Z" />
<path fill="#e7e00b" opacity="1.00" d=" M 146.99 100.42 C 143.82 98.58 146.44 91.52 150.06 92.59 C 149.65 95.31 149.96 99.05 146.99 100.42 Z" />
<path fill="#010101" opacity="1.00" d=" M 39.39 94.91 C 39.83 94.55 40.71 93.84 41.15 93.48 C 42.14 93.90 43.09 94.39 44.01 94.95 C 46.37 98.28 50.72 97.47 54.25 97.79 C 55.41 97.85 56.57 97.82 57.73 97.75 C 65.64 96.91 73.47 98.73 80.93 101.16 C 89.34 104.78 98.36 107.51 105.62 113.28 C 109.28 116.17 113.95 117.14 118.02 119.29 C 122.49 121.93 127.76 120.04 132.61 120.31 C 133.43 124.46 128.42 122.91 126.19 124.42 C 118.72 128.36 116.95 137.30 112.91 143.99 C 109.49 148.44 106.15 153.22 101.43 156.39 C 91.16 161.14 79.60 161.65 68.45 161.30 C 59.73 159.18 50.78 157.18 43.18 152.15 C 41.61 150.20 39.87 148.39 37.77 147.02 C 34.82 144.22 32.63 140.75 30.80 137.16 C 29.34 129.07 28.58 120.58 32.13 112.89 C 36.41 107.85 39.14 101.55 39.39 94.91 M 41.64 97.17 C 42.00 103.10 38.74 108.28 35.46 112.91 C 35.14 114.54 36.82 115.45 37.53 116.69 C 42.85 116.20 43.93 110.50 45.47 106.40 C 46.05 104.19 47.84 102.24 47.45 99.85 C 45.29 99.50 43.49 98.24 41.64 97.17 M 50.29 100.41 C 49.16 101.35 49.20 103.10 48.55 104.36 C 48.53 104.43 48.47 104.58 48.45 104.66 C 47.00 108.08 45.96 111.64 44.54 115.07 C 45.53 116.65 46.55 118.22 47.82 119.59 C 49.65 118.14 51.71 117.09 54.09 117.10 C 57.27 111.91 58.90 105.90 61.84 100.55 C 58.02 100.10 54.13 100.30 50.29 100.41 M 63.92 101.20 L 63.39 102.25 C 63.36 102.32 63.30 102.45 63.27 102.52 C 63.02 103.21 62.51 104.58 62.26 105.27 C 62.24 105.32 62.20 105.42 62.18 105.47 C 60.53 110.83 55.29 116.18 58.69 121.92 C 60.03 120.78 61.48 119.77 63.07 119.01 C 65.01 114.54 67.94 110.36 68.97 105.60 C 69.27 105.13 69.87 104.20 70.17 103.74 C 72.77 103.09 69.88 99.58 68.23 100.95 C 67.52 99.82 64.23 99.69 63.92 101.20 M 73.55 102.28 C 71.51 106.98 69.43 111.67 67.18 116.27 C 65.16 119.23 67.99 122.47 67.46 125.68 C 69.96 125.74 72.35 124.63 74.51 123.49 C 77.62 117.67 79.96 111.40 83.63 105.87 C 81.12 103.19 77.09 102.38 73.55 102.28 M 85.44 106.31 C 82.80 112.69 79.83 118.92 76.55 125.00 C 77.17 126.78 77.69 128.61 77.50 130.52 C 80.01 130.55 82.52 130.44 85.01 130.12 C 88.89 124.92 91.73 119.01 95.54 113.75 C 95.59 113.69 95.67 113.57 95.72 113.51 C 97.25 112.37 97.16 109.63 94.74 110.18 C 94.27 109.91 93.33 109.37 92.86 109.10 C 92.37 108.85 91.39 108.36 90.90 108.11 C 90.41 107.89 89.42 107.45 88.93 107.23 C 88.20 106.02 86.59 106.58 85.44 106.31 M 98.82 113.10 C 98.70 113.27 98.45 113.59 98.32 113.76 C 98.06 114.29 97.53 115.34 97.26 115.87 C 93.89 120.44 91.40 125.68 88.08 130.33 C 86.08 132.86 89.05 135.72 88.78 138.50 C 91.35 138.46 93.85 137.84 96.37 137.40 C 100.27 131.60 104.47 126.00 108.68 120.42 C 108.73 120.26 108.82 119.94 108.87 119.78 C 108.86 119.58 108.83 119.18 108.82 118.97 C 108.65 118.77 108.31 118.37 108.13 118.17 C 107.96 118.05 107.60 117.81 107.42 117.70 L 105.52 116.49 C 105.37 116.39 105.08 116.19 104.93 116.09 C 104.79 115.98 104.49 115.77 104.34 115.66 L 102.50 114.32 C 102.34 114.21 102.02 113.99 101.86 113.88 C 101.63 113.75 101.17 113.48 100.94 113.35 C 100.23 111.80 99.52 111.72 98.82 113.10 M 97.46 139.86 C 97.75 140.63 98.33 142.16 98.62 142.92 C 101.62 142.38 104.82 141.14 106.26 138.23 C 109.51 132.64 113.91 127.71 116.90 122.00 C 115.44 120.79 113.64 120.13 111.91 119.39 C 107.55 126.52 102.29 133.04 97.46 139.86 M 35.61 122.78 C 35.57 123.54 35.50 125.07 35.47 125.84 C 34.06 126.46 33.90 127.50 35.01 128.95 C 33.94 131.23 34.51 133.88 34.01 136.29 C 33.99 136.45 33.95 136.76 33.93 136.92 C 34.20 137.41 34.74 138.39 35.01 138.87 C 35.36 139.42 36.05 140.52 36.40 141.07 C 36.55 141.30 36.84 141.75 36.99 141.97 C 37.16 142.14 37.50 142.49 37.68 142.67 C 37.99 143.18 38.62 144.20 38.93 144.71 C 39.27 147.22 42.74 144.74 41.08 143.21 C 42.47 137.13 43.53 130.83 45.28 124.80 C 44.12 123.11 42.66 121.66 41.14 120.30 C 39.26 121.05 37.24 121.53 35.61 122.78 M 49.48 122.64 C 48.79 123.42 47.61 123.96 47.51 125.12 C 46.00 131.84 44.90 138.68 42.80 145.26 C 40.88 149.05 46.08 151.66 49.18 151.80 C 51.21 144.16 52.77 136.39 55.26 128.87 C 56.21 126.78 54.88 124.71 54.02 122.87 C 52.62 122.23 50.98 122.72 49.48 122.64 M 118.52 123.79 L 117.31 125.38 C 117.23 125.49 117.06 125.72 116.98 125.83 C 116.88 125.96 116.70 126.22 116.60 126.35 C 114.75 128.95 113.05 131.64 111.34 134.34 C 111.30 134.41 111.21 134.56 111.16 134.63 L 110.14 136.29 C 110.06 136.41 109.89 136.67 109.80 136.80 C 109.72 136.91 109.56 137.13 109.47 137.24 C 109.00 137.99 108.05 139.48 107.58 140.23 C 106.12 141.17 107.92 144.56 109.59 143.14 L 109.71 142.58 C 110.24 142.11 111.30 141.19 111.83 140.72 C 111.86 140.65 111.93 140.51 111.96 140.44 L 112.49 138.87 C 112.66 138.35 113.00 137.29 113.17 136.77 C 113.28 136.67 113.50 136.48 113.61 136.38 L 114.65 134.92 C 114.67 134.81 114.72 134.60 114.75 134.49 L 115.00 132.68 C 115.30 132.20 115.89 131.23 116.18 130.74 C 116.30 130.65 116.52 130.47 116.64 130.37 L 117.84 128.55 C 117.95 128.39 118.17 128.06 118.28 127.90 C 118.42 127.72 118.70 127.37 118.84 127.19 C 118.96 127.07 119.20 126.82 119.31 126.69 C 119.84 126.12 120.89 124.98 121.41 124.41 L 121.80 124.05 C 121.81 122.37 118.29 122.04 118.52 123.79 M 57.71 128.89 C 55.81 137.07 53.03 145.15 51.33 153.29 C 52.80 153.67 54.85 155.94 56.11 154.11 C 58.40 146.76 61.33 139.63 64.32 132.54 C 65.43 130.02 63.56 127.69 62.17 125.74 C 60.91 127.09 59.33 128.04 57.71 128.89 M 66.97 131.89 C 64.37 139.15 61.66 146.39 58.47 153.41 C 58.02 154.39 58.07 155.36 58.62 156.31 C 60.52 156.31 62.21 157.52 64.10 157.34 C 66.81 150.43 69.73 143.61 73.01 136.95 C 74.07 135.03 73.32 132.75 73.15 130.70 C 70.96 130.05 69.06 131.54 66.97 131.89 M 75.89 136.67 C 72.57 143.37 69.98 150.42 66.39 156.99 L 66.48 158.34 C 69.51 158.26 72.52 158.62 75.54 158.72 C 78.00 153.09 82.92 148.73 85.03 143.07 C 82.39 141.53 83.85 138.47 82.64 136.22 C 80.38 136.25 78.15 136.68 75.89 136.67 M 85.82 147.08 C 83.43 151.09 79.99 154.54 78.07 158.77 C 81.68 157.94 86.02 159.47 89.08 157.11 C 91.31 154.03 93.67 151.04 95.80 147.89 C 95.85 142.48 87.69 143.32 85.82 147.08 M 92.97 156.39 C 98.77 156.47 104.18 151.93 104.93 146.18 C 98.95 146.02 94.68 151.22 92.97 156.39 Z" />
<path fill="#e8e401" opacity="1.00" d=" M 86.07 94.55 C 87.23 94.57 88.39 94.58 89.55 94.59 C 89.78 96.95 89.21 99.23 88.14 101.33 C 86.92 101.44 85.71 101.52 84.49 101.59 C 84.63 99.28 85.15 97.02 85.72 94.78 L 85.78 94.55 L 86.07 94.55 Z" />
<path fill="#771516" opacity="1.00" d=" M 99.99 93.79 C 101.84 94.25 103.67 94.75 105.48 95.36 C 106.57 95.78 107.66 96.23 108.73 96.72 C 110.21 97.42 111.66 98.21 113.04 99.10 C 108.49 97.89 104.02 96.26 99.99 93.79 Z" />
<path fill="#e8e600" opacity="1.00" d=" M 124.49 94.48 C 125.40 94.59 126.31 94.70 127.22 94.81 C 127.66 97.33 126.10 99.50 125.05 101.64 C 122.01 101.18 122.51 98.26 122.83 96.02 C 123.24 95.64 124.08 94.87 124.49 94.48 Z" />
<path fill="#eb5338" opacity="1.00" d=" M 162.17 94.24 C 170.27 93.20 165.79 108.44 159.37 104.66 C 159.11 102.66 158.67 100.45 159.92 98.67 C 159.94 100.51 160.04 102.34 160.14 104.18 C 161.21 104.13 162.28 104.07 163.35 104.00 C 164.42 101.56 164.94 98.95 164.88 96.29 C 164.24 96.06 162.96 95.60 162.32 95.37 C 162.28 95.09 162.20 94.52 162.17 94.24 Z" />
<path fill="#e3640a" opacity="1.00" d=" M 121.47 97.41 C 121.81 97.06 122.49 96.37 122.83 96.02 C 122.51 98.26 122.01 101.18 125.05 101.64 C 123.85 102.20 122.55 102.24 121.34 101.72 C 121.30 100.28 121.33 98.84 121.47 97.41 Z" />
<path fill="#ea993f" opacity="1.00" d=" M 159.92 98.67 C 160.29 97.30 161.18 96.20 162.32 95.37 C 161.75 98.17 158.86 103.15 163.35 104.00 C 162.28 104.07 161.21 104.13 160.14 104.18 C 160.04 102.34 159.94 100.51 159.92 98.67 Z" />
<path fill="#e7e504" opacity="1.00" d=" M 162.32 95.37 C 162.96 95.60 164.24 96.06 164.88 96.29 C 164.94 98.95 164.42 101.56 163.35 104.00 C 158.86 103.15 161.75 98.17 162.32 95.37 Z" />
<path fill="#feffff" opacity="1.00" d=" M 41.64 97.17 C 43.49 98.24 45.29 99.50 47.45 99.85 C 47.84 102.24 46.05 104.19 45.47 106.40 C 43.93 110.50 42.85 116.20 37.53 116.69 C 36.82 115.45 35.14 114.54 35.46 112.91 C 38.74 108.28 42.00 103.10 41.64 97.17 Z" />
<path fill="#eb4433" opacity="1.00" d=" M 174.36 109.66 C 172.92 105.51 174.75 96.71 180.76 99.26 C 182.51 103.53 180.26 111.53 174.36 109.66 M 175.50 103.06 L 175.44 104.37 C 173.46 105.23 174.90 110.18 177.48 108.76 L 177.54 108.44 C 177.97 107.91 178.82 106.86 179.25 106.33 C 180.22 104.34 181.31 101.02 179.01 99.56 C 177.03 99.61 176.38 101.68 175.50 103.06 Z" />
<path fill="#fefefe" opacity="1.00" d=" M 50.29 100.41 C 54.13 100.30 58.02 100.10 61.84 100.55 C 58.90 105.90 57.27 111.91 54.09 117.10 C 51.71 117.09 49.65 118.14 47.82 119.59 C 46.55 118.22 45.53 116.65 44.54 115.07 C 45.96 111.64 47.00 108.08 48.45 104.66 C 48.47 104.58 48.53 104.43 48.55 104.36 C 49.20 103.10 49.16 101.35 50.29 100.41 Z" />
<path fill="#fefefe" opacity="1.00" d=" M 63.92 101.20 C 64.23 99.69 67.52 99.82 68.23 100.95 C 66.81 101.45 65.38 101.53 63.92 101.20 Z" />
<path fill="#e9b731" opacity="1.00" d=" M 175.50 103.06 C 176.38 101.68 177.03 99.61 179.01 99.56 C 181.31 101.02 180.22 104.34 179.25 106.33 C 179.16 104.50 179.11 102.67 179.06 100.83 C 177.88 101.58 176.69 102.33 175.50 103.06 Z" />
<path fill="#e8e400" opacity="1.00" d=" M 27.50 101.66 C 27.93 101.69 28.79 101.75 29.22 101.79 C 30.16 104.53 28.91 107.17 27.22 109.30 C 26.39 109.30 25.56 109.29 24.73 109.29 C 23.91 106.29 24.70 103.27 27.50 101.66 Z" />
<path fill="#ffffff" opacity="1.00" d=" M 63.92 101.20 C 65.38 101.53 66.81 101.45 68.23 100.95 C 68.85 101.89 69.50 102.82 70.17 103.74 C 69.87 104.20 69.27 105.13 68.97 105.60 C 67.94 110.36 65.01 114.54 63.07 119.01 C 61.48 119.77 60.03 120.78 58.69 121.92 C 55.29 116.18 60.53 110.83 62.18 105.47 C 62.20 105.42 62.24 105.32 62.26 105.27 C 62.51 104.58 63.02 103.21 63.27 102.52 C 63.30 102.45 63.36 102.32 63.39 102.25 L 63.92 101.20 Z" />
<path fill="#fefefe" opacity="1.00" d=" M 68.23 100.95 C 69.88 99.58 72.77 103.09 70.17 103.74 C 69.50 102.82 68.85 101.89 68.23 100.95 Z" />
<path fill="#e7e108" opacity="1.00" d=" M 175.50 103.06 C 176.69 102.33 177.88 101.58 179.06 100.83 C 179.11 102.67 179.16 104.50 179.25 106.33 C 178.82 106.86 177.97 107.91 177.54 108.44 C 176.55 107.25 175.76 105.89 175.44 104.37 L 175.50 103.06 Z" />
<path fill="#fefefe" opacity="1.00" d=" M 63.27 102.52 C 63.30 102.45 63.36 102.32 63.39 102.25 C 63.36 102.32 63.30 102.45 63.27 102.52 Z" />
<path fill="#fefefe" opacity="1.00" d=" M 73.55 102.28 C 77.09 102.38 81.12 103.19 83.63 105.87 C 79.96 111.40 77.62 117.67 74.51 123.49 C 72.35 124.63 69.96 125.74 67.46 125.68 C 67.99 122.47 65.16 119.23 67.18 116.27 C 69.43 111.67 71.51 106.98 73.55 102.28 Z" />
<path fill="#ece001" opacity="1.00" d=" M 48.45 104.66 C 48.47 104.58 48.53 104.43 48.55 104.36 C 48.53 104.43 48.47 104.58 48.45 104.66 Z" />
<path fill="#fefefe" opacity="1.00" d=" M 68.97 105.60 C 69.27 105.13 69.87 104.20 70.17 103.74 C 69.87 104.20 69.27 105.13 68.97 105.60 Z" />
<path fill="#eba743" opacity="1.00" d=" M 177.48 108.76 C 174.90 110.18 173.46 105.23 175.44 104.37 C 175.76 105.89 176.55 107.25 177.54 108.44 L 177.48 108.76 Z" />
<path fill="#fefefe" opacity="1.00" d=" M 62.18 105.47 C 62.20 105.42 62.24 105.32 62.26 105.27 C 62.24 105.32 62.20 105.42 62.18 105.47 Z" />
<path fill="#fefefe" opacity="1.00" d=" M 85.44 106.31 C 86.59 106.58 88.20 106.02 88.93 107.23 C 89.42 107.45 90.41 107.89 90.90 108.11 C 91.39 108.36 92.37 108.85 92.86 109.10 C 93.33 109.37 94.27 109.91 94.74 110.18 C 97.16 109.63 97.25 112.37 95.72 113.51 C 95.67 113.57 95.59 113.69 95.54 113.75 C 91.73 119.01 88.89 124.92 85.01 130.12 C 82.52 130.44 80.01 130.55 77.50 130.52 C 77.69 128.61 77.17 126.78 76.55 125.00 C 79.83 118.92 82.80 112.69 85.44 106.31 Z" />
<path fill="#e8e301" opacity="1.00" d=" M 109.46 113.60 C 108.70 110.10 109.96 105.95 114.23 106.08 C 114.38 106.19 114.68 106.41 114.84 106.51 C 114.35 108.91 113.74 111.31 112.43 113.41 C 111.44 113.47 110.45 113.53 109.46 113.60 Z" />
<path fill="#761313" opacity="1.00" d=" M 135.77 110.68 C 138.97 110.02 139.15 104.34 142.98 106.65 C 142.33 106.77 141.03 107.00 140.37 107.12 C 139.58 109.07 138.48 112.20 135.77 110.68 Z" />
<path fill="#878888" opacity="1.00" d=" M 88.93 107.23 C 89.42 107.45 90.41 107.89 90.90 108.11 C 90.41 107.89 89.42 107.45 88.93 107.23 Z" />
<path fill="#878888" opacity="1.00" d=" M 90.90 108.11 C 91.39 108.36 92.37 108.85 92.86 109.10 C 92.37 108.85 91.39 108.36 90.90 108.11 Z" />
<path fill="#878888" opacity="1.00" d=" M 92.86 109.10 C 93.33 109.37 94.27 109.91 94.74 110.18 C 94.27 109.91 93.33 109.37 92.86 109.10 Z" />
<path fill="#531616" opacity="1.00" d=" M 125.89 109.85 C 128.85 110.93 131.63 112.40 134.34 113.98 C 131.12 113.65 128.11 112.21 125.89 109.85 Z" />
<path fill="#eb5d33" opacity="1.00" d=" M 163.16 120.82 C 157.18 119.15 162.00 107.47 167.60 110.34 C 168.19 114.17 167.99 120.10 163.16 120.82 M 164.29 111.39 C 162.60 113.72 161.75 116.57 162.46 119.43 C 166.55 119.44 166.79 114.36 166.57 111.32 C 166.00 111.33 164.86 111.37 164.29 111.39 Z" />
<path fill="#e7e303" opacity="1.00" d=" M 164.29 111.39 C 164.86 111.37 166.00 111.33 166.57 111.32 C 166.79 114.36 166.55 119.44 162.46 119.43 C 161.75 116.57 162.60 113.72 164.29 111.39 Z" />
<path fill="#878888" opacity="1.00" d=" M 98.82 113.10 C 99.52 111.72 100.23 111.80 100.94 113.35 C 100.41 113.29 99.35 113.17 98.82 113.10 Z" />
<path fill="#771313" opacity="1.00" d=" M 30.80 137.16 C 27.85 129.58 26.66 119.68 32.13 112.89 C 28.58 120.58 29.34 129.07 30.80 137.16 Z" />
<path fill="#878888" opacity="1.00" d=" M 95.54 113.75 C 95.59 113.69 95.67 113.57 95.72 113.51 C 95.67 113.57 95.59 113.69 95.54 113.75 Z" />
<path fill="#878888" opacity="1.00" d=" M 98.32 113.76 C 98.45 113.59 98.70 113.27 98.82 113.10 C 98.70 113.27 98.45 113.59 98.32 113.76 Z" />
<path fill="#fefefe" opacity="1.00" d=" M 98.82 113.10 C 99.35 113.17 100.41 113.29 100.94 113.35 C 101.17 113.48 101.63 113.75 101.86 113.88 C 102.02 113.99 102.34 114.21 102.50 114.32 L 104.34 115.66 C 104.49 115.77 104.79 115.98 104.93 116.09 C 105.08 116.19 105.37 116.39 105.52 116.49 L 107.42 117.70 C 107.60 117.81 107.96 118.05 108.13 118.17 C 108.31 118.37 108.65 118.77 108.82 118.97 L 108.87 119.78 C 108.82 119.94 108.73 120.26 108.68 120.42 C 104.47 126.00 100.27 131.60 96.37 137.40 C 93.85 137.84 91.35 138.46 88.78 138.50 C 89.05 135.72 86.08 132.86 88.08 130.33 C 91.40 125.68 93.89 120.44 97.26 115.87 C 97.53 115.34 98.06 114.29 98.32 113.76 C 98.45 113.59 98.70 113.27 98.82 113.10 Z" />
<path fill="#878888" opacity="1.00" d=" M 100.94 113.35 C 101.17 113.48 101.63 113.75 101.86 113.88 C 101.63 113.75 101.17 113.48 100.94 113.35 Z" />
<path fill="#878888" opacity="1.00" d=" M 97.26 115.87 C 97.53 115.34 98.06 114.29 98.32 113.76 C 98.06 114.29 97.53 115.34 97.26 115.87 Z" />
<path fill="#878888" opacity="1.00" d=" M 101.86 113.88 C 102.02 113.99 102.34 114.21 102.50 114.32 C 102.34 114.21 102.02 113.99 101.86 113.88 Z" />
<path fill="#878888" opacity="1.00" d=" M 104.34 115.66 C 104.49 115.77 104.79 115.98 104.93 116.09 C 104.79 115.98 104.49 115.77 104.34 115.66 Z" />
<path fill="#ec3f32" opacity="1.00" d=" M 187.35 125.60 C 184.62 121.58 188.09 113.10 193.69 115.28 C 195.14 119.37 193.17 128.12 187.35 125.60 M 188.28 119.01 L 188.33 120.40 C 186.34 121.26 187.81 126.37 190.41 124.82 L 190.44 124.47 C 190.85 123.91 191.67 122.79 192.09 122.23 C 193.16 120.38 192.97 118.20 192.81 116.17 C 190.53 115.29 188.86 116.93 188.28 119.01 Z" />
<path fill="#e8e401" opacity="1.00" d=" M 20.37 116.42 C 21.44 116.38 22.51 116.34 23.57 116.31 C 23.74 118.83 23.15 121.33 21.47 123.27 C 20.52 123.32 19.58 123.38 18.63 123.43 C 18.34 120.92 18.42 118.28 20.37 116.42 Z" />
<path fill="#878888" opacity="1.00" d=" M 104.93 116.09 C 105.08 116.19 105.37 116.39 105.52 116.49 C 105.37 116.39 105.08 116.19 104.93 116.09 Z" />
<path fill="#efa837" opacity="1.00" d=" M 188.28 119.01 C 188.86 116.93 190.53 115.29 192.81 116.17 C 192.97 118.20 193.16 120.38 192.09 122.23 C 192.09 120.44 192.04 118.64 192.00 116.85 C 190.76 117.57 189.52 118.29 188.28 119.01 Z" />
<path fill="#878888" opacity="1.00" d=" M 107.42 117.70 C 107.60 117.81 107.96 118.05 108.13 118.17 C 107.96 118.05 107.60 117.81 107.42 117.70 Z" />
<path fill="#730e0e" opacity="1.00" d=" M 130.13 116.91 C 135.03 117.80 139.99 118.85 144.99 118.21 C 142.85 119.22 140.48 119.51 138.16 119.86 C 138.26 122.29 140.03 125.74 137.32 127.33 C 138.64 124.50 138.57 120.27 134.75 119.63 C 134.76 120.29 134.79 121.59 134.80 122.24 C 133.93 119.93 132.42 117.94 130.13 116.91 Z" />
<path fill="#e8e00a" opacity="1.00" d=" M 188.28 119.01 C 189.52 118.29 190.76 117.57 192.00 116.85 C 192.04 118.64 192.09 120.44 192.09 122.23 C 191.67 122.79 190.85 123.91 190.44 124.47 C 189.39 123.32 188.56 121.97 188.33 120.40 L 188.28 119.01 Z" />
<path fill="#878888" opacity="1.00" d=" M 108.13 118.17 C 108.31 118.37 108.65 118.77 108.82 118.97 C 108.65 118.77 108.31 118.37 108.13 118.17 Z" />
<path fill="#eb4835" opacity="1.00" d=" M 177.79 117.99 C 179.08 118.01 180.37 118.12 181.66 118.29 C 183.05 122.51 181.27 130.87 175.27 128.71 C 174.34 125.95 174.15 121.26 177.31 120.05 C 176.38 122.55 176.02 125.21 176.27 127.87 C 180.64 128.09 180.89 122.78 180.65 119.61 C 180.03 119.46 178.80 119.16 178.18 119.00 L 177.79 117.99 Z" />
<path fill="#878888" opacity="1.00" d=" M 108.82 118.97 C 108.83 119.18 108.86 119.58 108.87 119.78 L 108.82 118.97 Z" />
<path fill="#eb4b36" opacity="1.00" d=" M 150.87 120.03 C 152.15 118.21 155.24 119.84 155.27 121.93 C 155.64 125.51 153.77 131.16 149.34 130.68 C 147.06 128.23 147.20 122.72 150.33 121.13 C 149.50 123.76 147.65 127.32 149.85 129.69 C 153.63 128.81 153.83 124.61 153.77 121.45 C 153.18 121.16 152.00 120.58 151.40 120.29 L 150.87 120.03 Z" />
<path fill="#e7e405" opacity="1.00" d=" M 178.18 119.00 C 178.80 119.16 180.03 119.46 180.65 119.61 C 180.89 122.78 180.64 128.09 176.27 127.87 C 176.02 125.21 176.38 122.55 177.31 120.05 C 177.53 119.79 177.96 119.27 178.18 119.00 Z" />
<path fill="#878888" opacity="1.00" d=" M 108.68 120.42 C 108.73 120.26 108.82 119.94 108.87 119.78 C 108.82 119.94 108.73 120.26 108.68 120.42 Z" />
<path fill="#fefefe" opacity="1.00" d=" M 97.46 139.86 C 102.29 133.04 107.55 126.52 111.91 119.39 C 113.64 120.13 115.44 120.79 116.90 122.00 C 113.91 127.71 109.51 132.64 106.26 138.23 C 104.82 141.14 101.62 142.38 98.62 142.92 C 98.33 142.16 97.75 140.63 97.46 139.86 Z" />
<path fill="#030d0d" opacity="1.00" d=" M 134.75 119.63 C 138.57 120.27 138.64 124.50 137.32 127.33 C 135.59 127.79 133.79 127.82 132.01 127.68 C 132.59 126.18 133.79 125.11 134.91 124.01 C 134.88 123.56 134.83 122.68 134.80 122.24 C 134.79 121.59 134.76 120.29 134.75 119.63 Z" />
<path fill="#eac031" opacity="1.00" d=" M 190.41 124.82 C 187.81 126.37 186.34 121.26 188.33 120.40 C 188.56 121.97 189.39 123.32 190.44 124.47 L 190.41 124.82 Z" />
<path fill="#fefefe" opacity="1.00" d=" M 35.61 122.78 C 37.24 121.53 39.26 121.05 41.14 120.30 C 42.66 121.66 44.12 123.11 45.28 124.80 C 43.53 130.83 42.47 137.13 41.08 143.21 C 40.34 143.67 39.62 144.17 38.93 144.71 C 38.62 144.20 37.99 143.18 37.68 142.67 C 37.50 142.49 37.16 142.14 36.99 141.97 C 36.84 141.75 36.55 141.30 36.40 141.07 C 36.05 140.52 35.36 139.42 35.01 138.87 C 34.74 138.39 34.20 137.41 33.93 136.92 L 34.01 136.29 C 34.51 133.88 33.94 131.23 35.01 128.95 C 35.67 127.99 35.82 126.95 35.47 125.84 C 35.50 125.07 35.57 123.54 35.61 122.78 Z" />
<path fill="#eaa43b" opacity="1.00" d=" M 150.33 121.13 L 151.40 120.29 C 150.37 123.32 149.72 126.47 149.85 129.69 C 147.65 127.32 149.50 123.76 150.33 121.13 Z" />
<path fill="#e7e404" opacity="1.00" d=" M 151.40 120.29 C 152.00 120.58 153.18 121.16 153.77 121.45 C 153.83 124.61 153.63 128.81 149.85 129.69 C 149.72 126.47 150.37 123.32 151.40 120.29 Z" />
<path fill="#fefefe" opacity="1.00" d=" M 49.48 122.64 C 50.98 122.72 52.62 122.23 54.02 122.87 C 54.88 124.71 56.21 126.78 55.26 128.87 C 52.77 136.39 51.21 144.16 49.18 151.80 C 46.08 151.66 40.88 149.05 42.80 145.26 C 44.90 138.68 46.00 131.84 47.51 125.12 C 47.61 123.96 48.79 123.42 49.48 122.64 Z" />
<path fill="#fefefe" opacity="1.00" d=" M 118.52 123.79 C 118.29 122.04 121.81 122.37 121.80 124.05 L 121.41 124.41 C 120.69 124.25 119.25 123.94 118.52 123.79 Z" />
<path fill="#feffff" opacity="1.00" d=" M 118.52 123.79 C 119.25 123.94 120.69 124.25 121.41 124.41 C 120.89 124.98 119.84 126.12 119.31 126.69 C 119.20 126.82 118.96 127.07 118.84 127.19 C 118.70 127.37 118.42 127.72 118.28 127.90 C 118.17 128.06 117.95 128.39 117.84 128.55 L 116.64 130.37 C 116.52 130.47 116.30 130.65 116.18 130.74 C 115.89 131.23 115.30 132.20 115.00 132.68 L 114.75 134.49 C 114.72 134.60 114.67 134.81 114.65 134.92 L 113.61 136.38 C 113.50 136.48 113.28 136.67 113.17 136.77 C 113.00 137.29 112.66 138.35 112.49 138.87 L 111.96 140.44 C 111.93 140.51 111.86 140.65 111.83 140.72 C 111.30 141.19 110.24 142.11 109.71 142.58 C 109.06 141.73 108.35 140.95 107.58 140.23 C 108.05 139.48 109.00 137.99 109.47 137.24 C 109.56 137.13 109.72 136.91 109.80 136.80 C 109.89 136.67 110.06 136.41 110.14 136.29 L 111.16 134.63 C 111.21 134.56 111.30 134.41 111.34 134.34 C 113.05 131.64 114.75 128.95 116.60 126.35 C 116.70 126.22 116.88 125.96 116.98 125.83 C 117.06 125.72 117.23 125.49 117.31 125.38 L 118.52 123.79 Z" />
<path fill="#fefefe" opacity="1.00" d=" M 57.71 128.89 C 59.33 128.04 60.91 127.09 62.17 125.74 C 63.56 127.69 65.43 130.02 64.32 132.54 C 61.33 139.63 58.40 146.76 56.11 154.11 C 54.85 155.94 52.80 153.67 51.33 153.29 C 53.03 145.15 55.81 137.07 57.71 128.89 Z" />
<path fill="#8ccbcb" opacity="1.00" d=" M 116.98 125.83 C 117.06 125.72 117.23 125.49 117.31 125.38 C 117.23 125.49 117.06 125.72 116.98 125.83 Z" />
<path fill="#030c0c" opacity="1.00" d=" M 23.41 126.25 C 24.58 126.29 26.77 126.03 26.33 127.96 C 26.06 134.36 29.18 140.27 32.01 145.83 C 34.96 152.10 41.98 154.23 47.50 157.56 C 50.82 159.76 54.74 160.65 58.53 161.69 C 61.16 163.22 64.18 163.33 67.09 162.66 C 67.46 162.61 68.18 162.51 68.55 162.46 C 73.16 163.61 77.94 163.37 82.59 162.62 C 86.66 163.01 91.23 164.30 94.86 161.74 C 95.96 161.09 98.66 159.39 98.61 161.99 C 96.51 165.35 91.85 167.10 88.02 166.03 C 80.37 164.90 72.54 166.44 64.93 164.88 C 60.29 164.86 55.64 164.50 51.28 162.78 C 48.88 161.29 46.37 159.97 43.73 158.98 C 39.84 157.16 36.18 154.85 32.87 152.12 C 28.19 147.43 26.45 140.85 23.86 134.95 C 22.88 132.16 22.14 129.09 23.41 126.25 Z" />
<path fill="#7dd0d0" opacity="1.00" d=" M 35.01 128.95 C 33.90 127.50 34.06 126.46 35.47 125.84 C 35.82 126.95 35.67 127.99 35.01 128.95 Z" />
<path fill="#549b9b" opacity="1.00" d=" M 116.60 126.35 C 116.70 126.22 116.88 125.96 116.98 125.83 C 116.88 125.96 116.70 126.22 116.60 126.35 Z" />
<path fill="#fefefe" opacity="1.00" d=" M 118.84 127.19 C 118.96 127.07 119.20 126.82 119.31 126.69 C 119.20 126.82 118.96 127.07 118.84 127.19 Z" />
<path fill="#fefefe" opacity="1.00" d=" M 118.28 127.90 C 118.42 127.72 118.70 127.37 118.84 127.19 C 118.70 127.37 118.42 127.72 118.28 127.90 Z" />
<path fill="#fefefe" opacity="1.00" d=" M 117.84 128.55 C 117.95 128.39 118.17 128.06 118.28 127.90 C 118.17 128.06 117.95 128.39 117.84 128.55 Z" />
<path fill="#fefefe" opacity="1.00" d=" M 66.97 131.89 C 69.06 131.54 70.96 130.05 73.15 130.70 C 73.32 132.75 74.07 135.03 73.01 136.95 C 69.73 143.61 66.81 150.43 64.10 157.34 C 62.21 157.52 60.52 156.31 58.62 156.31 C 58.07 155.36 58.02 154.39 58.47 153.41 C 61.66 146.39 64.37 139.15 66.97 131.89 Z" />
<path fill="#fefefe" opacity="1.00" d=" M 116.18 130.74 C 116.30 130.65 116.52 130.47 116.64 130.37 C 116.52 130.47 116.30 130.65 116.18 130.74 Z" />
<path fill="#051212" opacity="1.00" d=" M 147.02 142.80 C 151.56 135.90 159.83 130.28 168.25 130.83 C 168.24 131.57 168.24 132.31 168.23 133.06 C 162.59 134.49 156.78 136.29 152.61 140.59 C 147.66 145.28 146.27 152.46 146.05 159.00 C 145.17 162.85 147.18 166.60 146.47 170.46 C 146.01 170.40 145.10 170.29 144.64 170.23 C 140.53 161.48 143.28 151.22 147.02 142.80 Z" />
<path fill="#fefefe" opacity="1.00" d=" M 115.00 132.68 C 115.30 132.20 115.89 131.23 116.18 130.74 C 115.89 131.23 115.30 132.20 115.00 132.68 Z" />
<path fill="#e8e201" opacity="1.00" d=" M 19.07 134.10 C 20.12 132.97 21.61 134.37 22.79 134.57 C 22.08 136.60 21.32 138.62 20.65 140.66 C 19.61 140.94 18.58 141.22 17.55 141.51 C 17.38 139.01 16.66 135.79 19.07 134.10 Z" />
<path fill="#fefefe" opacity="1.00" d=" M 111.16 134.63 C 111.21 134.56 111.30 134.41 111.34 134.34 C 111.30 134.41 111.21 134.56 111.16 134.63 Z" />
<path fill="#fefefe" opacity="1.00" d=" M 114.65 134.92 C 114.67 134.81 114.72 134.60 114.75 134.49 C 114.72 134.60 114.67 134.81 114.65 134.92 Z" />
<path fill="#eb763a" opacity="1.00" d=" M 134.02 142.01 C 134.03 138.69 136.05 133.14 140.28 134.64 C 141.23 138.10 141.15 142.69 137.74 144.80 C 135.94 146.21 133.63 143.97 134.02 142.01 M 135.57 143.50 C 139.66 144.17 139.74 138.56 139.27 135.78 C 135.66 136.04 135.08 140.66 135.57 143.50 Z" />
<path fill="#7dd0d0" opacity="1.00" d=" M 33.93 136.92 C 33.95 136.76 33.99 136.45 34.01 136.29 L 33.93 136.92 Z" />
<path fill="#fefefe" opacity="1.00" d=" M 75.89 136.67 C 78.15 136.68 80.38 136.25 82.64 136.22 C 83.85 138.47 82.39 141.53 85.03 143.07 C 82.92 148.73 78.00 153.09 75.54 158.72 C 72.52 158.62 69.51 158.26 66.48 158.34 L 66.39 156.99 C 69.98 150.42 72.57 143.37 75.89 136.67 Z" />
<path fill="#fefefe" opacity="1.00" d=" M 109.80 136.80 C 109.89 136.67 110.06 136.41 110.14 136.29 C 110.06 136.41 109.89 136.67 109.80 136.80 Z" />
<path fill="#fefefe" opacity="1.00" d=" M 113.17 136.77 C 113.28 136.67 113.50 136.48 113.61 136.38 C 113.50 136.48 113.28 136.67 113.17 136.77 Z" />
<path fill="#e7e109" opacity="1.00" d=" M 135.57 143.50 C 135.08 140.66 135.66 136.04 139.27 135.78 C 139.74 138.56 139.66 144.17 135.57 143.50 Z" />
<path fill="#7dd0d0" opacity="1.00" d=" M 33.93 136.92 C 34.20 137.41 34.74 138.39 35.01 138.87 C 34.74 138.39 34.20 137.41 33.93 136.92 Z" />
<path fill="#fefefe" opacity="1.00" d=" M 109.47 137.24 C 109.56 137.13 109.72 136.91 109.80 136.80 C 109.72 136.91 109.56 137.13 109.47 137.24 Z" />
<path fill="#fefefe" opacity="1.00" d=" M 112.49 138.87 C 112.66 138.35 113.00 137.29 113.17 136.77 C 113.00 137.29 112.66 138.35 112.49 138.87 Z" />
<path fill="#eb733c" opacity="1.00" d=" M 171.43 137.53 C 175.27 136.17 175.76 141.40 174.65 143.89 C 174.38 146.54 170.70 150.12 168.64 146.89 C 167.66 143.60 168.84 139.76 171.43 137.53 M 169.67 146.43 C 173.81 147.42 173.65 141.89 173.72 139.18 C 170.09 137.96 169.10 143.84 169.67 146.43 Z" />
<path fill="#eb3c30" opacity="1.00" d=" M 183.69 147.36 C 182.35 143.22 185.42 136.11 190.70 138.29 C 191.25 141.56 191.36 145.41 188.90 147.98 C 187.66 149.70 184.30 149.65 183.69 147.36 M 184.66 146.94 C 184.99 148.73 186.95 148.18 187.99 147.49 C 188.26 146.92 188.79 145.79 189.06 145.22 C 190.21 143.41 189.90 141.21 189.79 139.18 C 185.62 137.91 184.00 143.82 184.66 146.94 Z" />
<path fill="#7dd0d0" opacity="1.00" d=" M 35.01 138.87 C 35.36 139.42 36.05 140.52 36.40 141.07 C 36.05 140.52 35.36 139.42 35.01 138.87 Z" />
<path fill="#eb6539" opacity="1.00" d=" M 120.35 139.45 C 121.74 138.24 123.72 138.84 124.56 140.36 C 125.06 143.65 124.18 147.27 121.60 149.51 C 120.12 150.06 118.59 149.54 117.73 148.23 C 116.74 145.14 118.14 141.66 120.35 139.45 M 119.96 148.59 C 123.13 147.48 123.04 143.38 123.31 140.60 C 119.50 139.34 117.36 146.38 119.96 148.59 Z" />
<path fill="#e7e504" opacity="1.00" d=" M 169.67 146.43 C 169.10 143.84 170.09 137.96 173.72 139.18 C 173.65 141.89 173.81 147.42 169.67 146.43 Z" />
<path fill="#eab533" opacity="1.00" d=" M 184.66 146.94 C 184.00 143.82 185.62 137.91 189.79 139.18 C 189.90 141.21 190.21 143.41 189.06 145.22 C 189.06 143.38 188.97 141.53 188.87 139.69 C 186.15 141.10 183.72 146.56 187.99 147.49 C 186.95 148.18 184.99 148.73 184.66 146.94 Z" />
<path fill="#fefefe" opacity="1.00" d=" M 109.59 143.14 C 107.92 144.56 106.12 141.17 107.58 140.23 C 108.35 140.95 109.06 141.73 109.71 142.58 L 109.59 143.14 Z" />
<path fill="#fefefe" opacity="1.00" d=" M 111.83 140.72 C 111.86 140.65 111.93 140.51 111.96 140.44 C 111.93 140.51 111.86 140.65 111.83 140.72 Z" />
<path fill="#e7e10a" opacity="1.00" d=" M 187.99 147.49 C 183.72 146.56 186.15 141.10 188.87 139.69 C 188.97 141.53 189.06 143.38 189.06 145.22 C 188.79 145.79 188.26 146.92 187.99 147.49 Z" />
<path fill="#7dd0d0" opacity="1.00" d=" M 36.40 141.07 C 36.55 141.30 36.84 141.75 36.99 141.97 C 36.84 141.75 36.55 141.30 36.40 141.07 Z" />
<path fill="#e7e604" opacity="1.00" d=" M 119.96 148.59 C 117.36 146.38 119.50 139.34 123.31 140.60 C 123.04 143.38 123.13 147.48 119.96 148.59 Z" />
<path fill="#7dd0d0" opacity="1.00" d=" M 36.99 141.97 C 37.16 142.14 37.50 142.49 37.68 142.67 C 37.50 142.49 37.16 142.14 36.99 141.97 Z" />
<path fill="#7dd0d0" opacity="1.00" d=" M 37.68 142.67 C 37.99 143.18 38.62 144.20 38.93 144.71 C 38.62 144.20 37.99 143.18 37.68 142.67 Z" />
<path fill="#7dd0d0" opacity="1.00" d=" M 38.93 144.71 C 39.62 144.17 40.34 143.67 41.08 143.21 C 42.74 144.74 39.27 147.22 38.93 144.71 Z" />
<path fill="#fefefe" opacity="1.00" d=" M 85.82 147.08 C 87.69 143.32 95.85 142.48 95.80 147.89 C 93.67 151.04 91.31 154.03 89.08 157.11 C 86.02 159.47 81.68 157.94 78.07 158.77 C 79.99 154.54 83.43 151.09 85.82 147.08 Z" />
<path fill="#fefefe" opacity="1.00" d=" M 92.97 156.39 C 94.68 151.22 98.95 146.02 104.93 146.18 C 104.18 151.93 98.77 156.47 92.97 156.39 Z" />
<path fill="#e8e200" opacity="1.00" d=" M 19.28 149.03 C 20.86 147.98 22.56 147.02 24.53 147.43 C 24.62 149.92 23.66 152.21 22.28 154.24 C 21.39 154.34 20.51 154.44 19.63 154.54 C 19.50 152.93 19.36 151.31 19.26 149.69 L 19.28 149.03 Z" />
<path fill="#6f1414" opacity="1.00" d=" M 37.77 147.02 C 39.87 148.39 41.61 150.20 43.18 152.15 C 40.74 151.18 39.13 149.16 37.77 147.02 Z" />
<path fill="#e7e104" opacity="1.00" d=" M 152.96 157.63 C 148.60 155.39 151.53 148.87 155.05 147.23 C 158.30 149.84 156.34 155.76 152.96 157.63 Z" />
<path fill="#fd0000" opacity="1.00" d=" M 16.78 157.54 C 20.02 160.52 21.56 164.70 22.82 168.80 C 23.92 170.05 25.07 171.26 26.31 172.36 C 25.12 172.99 23.91 173.62 22.80 174.40 C 21.45 176.50 21.32 178.97 21.76 181.37 C 22.83 181.14 23.89 180.90 24.96 180.67 C 28.76 185.74 30.75 192.50 37.00 195.26 C 37.12 195.79 37.37 196.85 37.49 197.38 C 36.59 197.41 34.80 197.47 33.91 197.50 C 29.90 193.65 24.46 190.81 22.54 185.27 C 19.82 181.99 18.06 178.05 16.95 173.95 C 16.05 170.32 18.05 166.61 16.97 162.99 C 16.40 161.22 16.40 159.35 16.78 157.54 Z" />
<path fill="#8a1919" opacity="1.00" d=" M 43.73 158.98 C 46.37 159.97 48.88 161.29 51.28 162.78 C 48.42 162.29 45.75 161.09 43.73 158.98 Z" />
<path fill="#eb6237" opacity="1.00" d=" M 169.41 159.44 C 170.48 159.51 171.90 159.07 172.45 160.34 C 173.57 163.81 172.77 168.34 169.54 170.47 C 167.33 171.42 165.59 169.01 165.74 166.99 C 165.84 164.10 167.18 161.29 169.41 159.44 M 167.78 169.08 C 171.73 168.95 171.91 163.77 171.23 160.90 C 167.39 161.13 166.73 166.15 167.78 169.08 Z" />
<path fill="#040808" opacity="1.00" d=" M 22.82 168.80 C 22.39 165.33 22.56 160.91 26.02 158.99 C 27.93 161.22 25.61 164.45 25.40 167.06 C 28.08 171.23 32.88 173.02 36.57 176.06 L 36.47 177.51 C 34.43 178.04 32.74 176.97 31.15 175.84 C 29.54 174.68 27.90 173.55 26.31 172.36 C 25.07 171.26 23.92 170.05 22.82 168.80 Z" />
<path fill="#e8e001" opacity="1.00" d=" M 37.43 160.42 C 38.36 160.53 39.30 160.65 40.23 160.78 C 40.59 164.00 38.60 168.76 34.64 167.47 C 34.17 164.66 35.22 162.16 37.43 160.42 Z" />
<path fill="#eb5438" opacity="1.00" d=" M 130.13 160.26 C 138.26 159.01 133.90 174.38 127.39 170.64 C 127.15 168.65 126.77 166.49 127.89 164.67 C 127.93 166.49 128.04 168.30 128.16 170.12 C 129.21 170.08 130.27 170.02 131.32 169.96 C 132.42 167.52 132.94 164.89 132.91 162.23 C 132.25 162.01 130.92 161.58 130.26 161.36 C 130.22 161.09 130.16 160.54 130.13 160.26 Z" />
<path fill="#e7e604" opacity="1.00" d=" M 167.78 169.08 C 166.73 166.15 167.39 161.13 171.23 160.90 C 171.91 163.77 171.73 168.95 167.78 169.08 Z" />
<path fill="#292929" opacity="1.00" d=" M 58.53 161.69 C 61.45 161.56 64.37 161.56 67.29 161.39 L 67.09 162.66 C 64.18 163.33 61.16 163.22 58.53 161.69 Z" />
<path fill="#7e2727" opacity="1.00" d=" M 68.55 162.46 C 73.15 161.54 78.06 161.13 82.59 162.62 C 77.94 163.37 73.16 163.61 68.55 162.46 Z" />
<path fill="#eb9840" opacity="1.00" d=" M 127.89 164.67 C 128.28 163.31 129.15 162.22 130.26 161.36 C 129.78 164.17 126.89 169.07 131.32 169.96 C 130.27 170.02 129.21 170.08 128.16 170.12 C 128.04 168.30 127.93 166.49 127.89 164.67 Z" />
<path fill="#e7e604" opacity="1.00" d=" M 130.26 161.36 C 130.92 161.58 132.25 162.01 132.91 162.23 C 132.94 164.89 132.42 167.52 131.32 169.96 C 126.89 169.07 129.78 164.17 130.26 161.36 Z" />
<path fill="#eb5c38" opacity="1.00" d=" M 184.37 162.41 C 186.14 160.54 189.31 162.70 188.69 165.04 C 188.81 168.20 186.83 174.17 182.73 172.31 C 179.90 169.66 181.55 164.55 184.37 162.41 M 185.21 163.27 C 183.26 165.32 181.20 169.47 183.95 171.64 C 186.73 170.73 186.80 167.40 187.35 165.01 C 187.44 163.44 186.72 162.86 185.21 163.27 Z" />
<path fill="#eb3c30" opacity="1.00" d=" M 106.28 173.66 C 103.60 169.53 106.95 161.15 112.66 163.32 C 114.05 167.44 112.17 176.23 106.28 173.66 M 107.18 172.84 C 111.73 173.37 111.83 167.50 111.56 164.34 C 107.49 163.79 105.74 169.80 107.18 172.84 Z" />
<path fill="#e7e506" opacity="1.00" d=" M 185.21 163.27 C 186.72 162.86 187.44 163.44 187.35 165.01 C 186.80 167.40 186.73 170.73 183.95 171.64 C 181.20 169.47 183.26 165.32 185.21 163.27 Z" />
<path fill="#e7e404" opacity="1.00" d=" M 107.18 172.84 C 105.74 169.80 107.49 163.79 111.56 164.34 C 111.83 167.50 111.73 173.37 107.18 172.84 Z" />
<path fill="#e35e08" opacity="1.00" d=" M 65.66 175.35 C 64.42 171.80 66.93 166.05 71.31 167.59 C 72.94 171.06 69.99 177.13 65.66 175.35 M 66.80 174.24 C 70.05 175.38 70.96 170.78 70.45 168.49 C 67.29 167.85 65.97 171.80 66.80 174.24 Z" />
<path fill="#e8de01" opacity="1.00" d=" M 53.48 168.56 C 54.43 168.60 55.37 168.64 56.32 168.68 C 56.85 171.89 55.59 176.65 51.41 175.67 C 51.16 173.10 51.38 170.36 53.48 168.56 Z" />
<path fill="#e8df00" opacity="1.00" d=" M 66.80 174.24 C 65.97 171.80 67.29 167.85 70.45 168.49 C 70.96 170.78 70.05 175.38 66.80 174.24 Z" />
<path fill="#070202" opacity="1.00" d=" M 38.39 176.01 C 38.09 173.78 38.84 170.22 41.69 170.34 C 42.94 173.10 40.09 176.30 41.79 179.33 C 42.56 180.55 43.65 181.50 44.76 182.40 C 44.51 182.91 44.01 183.94 43.76 184.45 C 40.04 183.58 37.95 179.64 38.39 176.01 Z" />
<path fill="#eb5940" opacity="1.00" d=" M 82.31 170.23 C 82.41 170.24 82.61 170.25 82.71 170.25 C 82.61 170.25 82.41 170.24 82.31 170.23 Z" />
<path fill="#e7e207" opacity="1.00" d=" M 82.71 170.25 L 84.32 170.32 C 84.40 170.38 84.58 170.49 84.67 170.54 C 84.80 171.41 85.06 173.15 85.19 174.02 C 84.99 174.50 84.61 175.46 84.42 175.94 L 84.67 177.12 C 83.38 177.50 82.08 177.89 80.79 178.28 C 80.65 176.78 80.55 175.28 80.47 173.78 C 81.05 172.57 81.66 171.39 82.31 170.23 C 82.41 170.24 82.61 170.25 82.71 170.25 Z" />
<path fill="#eb5940" opacity="1.00" d=" M 84.32 170.32 C 84.40 170.38 84.58 170.49 84.67 170.54 C 84.58 170.49 84.40 170.38 84.32 170.32 Z" />
<path fill="#eb5940" opacity="1.00" d=" M 79.57 179.28 C 77.94 176.28 78.97 171.54 82.31 170.23 C 81.66 171.39 81.05 172.57 80.47 173.78 C 79.93 175.56 79.80 177.43 79.57 179.28 Z" />
<path fill="#c0470b" opacity="1.00" d=" M 22.80 174.40 C 23.91 173.62 25.12 172.99 26.31 172.36 C 27.90 173.55 29.54 174.68 31.15 175.84 C 30.05 175.42 28.95 175.02 27.84 174.64 C 27.14 175.68 26.55 176.80 26.07 177.97 C 26.14 177.13 26.30 175.45 26.38 174.61 C 25.48 174.56 23.69 174.45 22.80 174.40 Z" />
<path fill="#ea983a" opacity="1.00" d=" M 79.57 179.28 C 79.80 177.43 79.93 175.56 80.47 173.78 C 80.55 175.28 80.65 176.78 80.79 178.28 C 82.08 177.89 83.38 177.50 84.67 177.12 C 83.79 179.05 81.65 180.73 79.57 179.28 Z" />
<path fill="#eb5940" opacity="1.00" d=" M 84.42 175.94 C 84.61 175.46 84.99 174.50 85.19 174.02 C 84.99 174.50 84.61 175.46 84.42 175.94 Z" />
<path fill="#e7e600" opacity="1.00" d=" M 21.76 181.37 C 21.32 178.97 21.45 176.50 22.80 174.40 C 23.69 174.45 25.48 174.56 26.38 174.61 C 26.30 175.45 26.14 177.13 26.07 177.97 C 25.71 178.87 25.34 179.77 24.96 180.67 C 23.89 180.90 22.83 181.14 21.76 181.37 Z" />
<path fill="#eb803e" opacity="1.00" d=" M 152.35 175.28 C 153.58 174.02 155.69 174.27 156.36 176.00 C 156.71 179.00 156.30 182.67 153.62 184.54 C 152.27 185.78 149.81 184.95 149.68 183.07 C 149.25 180.26 150.33 177.25 152.35 175.28 M 151.92 183.79 C 155.19 182.88 154.93 178.63 155.09 175.91 C 151.54 175.57 149.90 181.50 151.92 183.79 Z" />
<path fill="#e7e204" opacity="1.00" d=" M 151.92 183.79 C 149.90 181.50 151.54 175.57 155.09 175.91 C 154.93 178.63 155.19 182.88 151.92 183.79 Z" />
<path fill="#060a0a" opacity="1.00" d=" M 51.08 181.51 C 55.44 182.56 57.84 178.31 61.58 177.37 C 61.61 178.57 62.29 180.15 61.04 181.00 C 58.13 183.15 54.77 184.88 51.04 184.49 C 51.05 183.96 51.07 182.91 51.08 182.39 L 51.08 181.51 Z" />
<path fill="#6a1d1d" opacity="1.00" d=" M 41.79 179.33 C 44.39 181.65 47.85 181.29 51.08 181.51 L 51.08 182.39 C 48.97 182.38 46.87 182.37 44.76 182.40 C 43.65 181.50 42.56 180.55 41.79 179.33 Z" />
<path fill="#eb5d39" opacity="1.00" d=" M 93.82 181.99 C 95.41 180.05 99.35 181.26 98.67 184.02 C 98.92 187.51 96.84 193.28 92.37 191.63 C 90.79 188.57 91.49 184.46 93.82 181.99 M 94.42 183.37 C 92.95 185.19 92.31 187.86 92.98 190.12 C 97.43 192.88 99.45 179.29 94.42 183.37 Z" />
<path fill="#eb7f3a" opacity="1.00" d=" M 131.93 182.97 C 133.15 180.59 136.85 180.68 137.38 183.51 C 137.52 186.52 136.40 189.86 133.86 191.67 C 133.15 191.44 131.74 190.99 131.03 190.77 C 130.22 188.14 131.14 185.47 131.93 182.97 M 131.82 190.23 C 135.61 191.12 136.72 184.44 134.93 182.36 C 132.24 183.86 131.15 187.33 131.82 190.23 Z" />
<path fill="#071c1c" opacity="1.00" d=" M 44.76 182.40 C 46.87 182.37 48.97 182.38 51.08 182.39 C 51.07 182.91 51.05 183.96 51.04 184.49 C 48.64 185.02 46.17 184.64 43.76 184.45 C 44.01 183.94 44.51 182.91 44.76 182.40 Z" />
<path fill="#eb6338" opacity="1.00" d=" M 114.38 182.45 C 116.18 180.60 119.30 182.64 118.68 185.03 C 119.11 188.36 117.17 193.40 113.03 192.40 C 109.72 189.85 112.07 184.88 114.38 182.45 M 113.99 191.55 C 117.16 190.48 117.10 186.33 117.35 183.56 C 113.30 182.32 111.89 189.33 113.99 191.55 Z" />
<path fill="#eb6c39" opacity="1.00" d=" M 171.36 192.63 C 169.38 189.11 170.78 184.12 174.08 181.95 C 178.77 180.67 178.37 188.73 175.54 189.86 C 175.70 187.76 175.85 185.67 176.01 183.58 C 172.18 182.73 171.46 188.31 171.77 191.11 C 173.01 190.91 174.25 190.71 175.49 190.52 C 175.26 191.03 174.80 192.05 174.57 192.56 C 173.50 192.59 172.43 192.62 171.36 192.63 Z" />
<path fill="#e7e402" opacity="1.00" d=" M 94.42 183.37 C 99.45 179.29 97.43 192.88 92.98 190.12 C 92.31 187.86 92.95 185.19 94.42 183.37 Z" />
<path fill="#eb342f" opacity="1.00" d=" M 130.31 191.68 C 129.79 188.78 129.17 184.94 131.93 182.97 C 131.14 185.47 130.22 188.14 131.03 190.77 C 131.74 190.99 133.15 191.44 133.86 191.67 L 134.27 192.28 C 132.94 192.11 131.62 191.91 130.31 191.68 Z" />
<path fill="#e7e109" opacity="1.00" d=" M 131.82 190.23 C 131.15 187.33 132.24 183.86 134.93 182.36 C 136.72 184.44 135.61 191.12 131.82 190.23 Z" />
<path fill="#e7e704" opacity="1.00" d=" M 113.99 191.55 C 111.89 189.33 113.30 182.32 117.35 183.56 C 117.10 186.33 117.16 190.48 113.99 191.55 Z" />
<path fill="#e7e304" opacity="1.00" d=" M 171.77 191.11 C 171.46 188.31 172.18 182.73 176.01 183.58 C 175.85 185.67 175.70 187.76 175.54 189.86 L 175.49 190.52 C 174.25 190.71 173.01 190.91 171.77 191.11 Z" />
<path fill="#ec693b" opacity="1.00" d=" M 37.00 195.26 C 37.00 191.79 39.62 184.57 44.03 188.07 C 45.46 192.15 43.05 197.23 38.82 198.47 L 37.80 198.63 C 37.72 198.32 37.57 197.69 37.49 197.38 C 37.37 196.85 37.12 195.79 37.00 195.26 M 38.81 196.20 C 42.57 197.34 43.82 190.33 42.05 188.38 C 39.03 189.18 38.05 193.41 38.81 196.20 Z" />
<path fill="#eb6c39" opacity="1.00" d=" M 61.42 196.62 C 60.29 192.83 61.77 185.58 66.92 186.61 C 69.83 190.00 66.93 198.96 61.42 196.62 M 62.39 195.69 C 62.95 195.67 64.08 195.63 64.64 195.61 C 66.50 193.41 66.90 190.40 66.33 187.64 C 62.68 188.36 61.99 192.58 62.39 195.69 Z" />
<path fill="#e7e403" opacity="1.00" d=" M 62.39 195.69 C 61.99 192.58 62.68 188.36 66.33 187.64 C 66.90 190.40 66.50 193.41 64.64 195.61 C 64.08 195.63 62.95 195.67 62.39 195.69 Z" />
<path fill="#e7e303" opacity="1.00" d=" M 38.81 196.20 C 38.05 193.41 39.03 189.18 42.05 188.38 C 43.82 190.33 42.57 197.34 38.81 196.20 Z" />
<path fill="#eb4a36" opacity="1.00" d=" M 78.98 195.83 C 79.36 194.20 81.50 195.48 82.64 195.31 C 84.16 199.54 82.28 207.87 76.31 205.70 C 75.32 202.74 75.42 198.89 78.14 196.88 C 77.98 197.43 77.66 198.55 77.50 199.11 L 77.19 200.25 C 75.85 202.06 77.01 206.58 79.61 204.55 C 80.05 203.97 80.91 202.82 81.34 202.25 C 82.18 200.35 82.34 198.29 81.95 196.27 C 81.21 196.16 79.72 195.94 78.98 195.83 Z" />
<path fill="#eaa23c" opacity="1.00" d=" M 78.14 196.88 C 78.35 196.62 78.77 196.09 78.98 195.83 C 79.72 195.94 81.21 196.16 81.95 196.27 C 82.34 198.29 82.18 200.35 81.34 202.25 C 81.26 200.37 81.17 198.50 81.05 196.63 C 79.83 197.40 78.63 198.20 77.50 199.11 C 77.66 198.55 77.98 197.43 78.14 196.88 Z" />
<path fill="#eb5e38" opacity="1.00" d=" M 156.44 196.47 C 160.40 196.11 160.12 201.45 158.96 203.95 C 158.20 206.39 154.67 209.37 152.85 206.18 C 151.29 202.74 153.25 198.33 156.44 196.47 M 156.22 198.20 C 154.38 200.06 152.74 203.33 154.22 205.81 C 157.69 207.52 160.43 197.23 156.22 198.20 Z" />
<path fill="#e7e308" opacity="1.00" d=" M 77.50 199.11 C 78.63 198.20 79.83 197.40 81.05 196.63 C 81.17 198.50 81.26 200.37 81.34 202.25 C 80.91 202.82 80.05 203.97 79.61 204.55 C 78.66 203.20 77.76 201.80 77.19 200.25 L 77.50 199.11 Z" />
<path fill="#eb623b" opacity="1.00" d=" M 136.35 197.39 C 140.10 196.73 140.07 201.74 139.03 204.10 C 138.67 206.78 135.94 209.46 133.24 207.62 C 131.33 204.28 133.05 199.14 136.35 197.39 M 134.20 206.86 C 138.19 207.26 139.41 200.39 137.00 198.27 C 134.55 200.23 132.77 203.80 134.20 206.86 Z" />
<path fill="#eb4536" opacity="1.00" d=" M 98.91 197.99 C 100.18 198.01 101.44 198.10 102.70 198.26 C 103.04 200.46 103.98 203.45 102.11 205.17 C 102.21 203.26 102.18 201.35 101.93 199.45 C 101.29 199.23 100.01 198.78 99.37 198.56 L 98.91 197.99 Z" />
<path fill="#e7e205" opacity="1.00" d=" M 156.22 198.20 C 160.43 197.23 157.69 207.52 154.22 205.81 C 152.74 203.33 154.38 200.06 156.22 198.20 Z" />
<path fill="#eaaa38" opacity="1.00" d=" M 99.37 198.56 C 100.01 198.78 101.29 199.23 101.93 199.45 C 102.18 201.35 102.21 203.26 102.11 205.17 L 101.85 205.61 L 101.03 206.27 C 101.10 204.11 101.12 201.96 101.13 199.81 C 99.94 200.57 98.75 201.34 97.60 202.16 C 97.77 201.65 98.11 200.63 98.28 200.12 C 98.55 199.73 99.09 198.95 99.37 198.56 Z" />
<path fill="#e7e405" opacity="1.00" d=" M 134.20 206.86 C 132.77 203.80 134.55 200.23 137.00 198.27 C 139.41 200.39 138.19 207.26 134.20 206.86 Z" />
<path fill="#eaba3a" opacity="1.00" d=" M 79.61 204.55 C 77.01 206.58 75.85 202.06 77.19 200.25 C 77.76 201.80 78.66 203.20 79.61 204.55 Z" />
<path fill="#eb4b36" opacity="1.00" d=" M 96.34 208.68 C 95.62 205.91 95.31 201.55 98.28 200.12 C 98.11 200.63 97.77 201.65 97.60 202.16 L 97.26 203.22 C 95.92 204.95 96.89 209.55 99.53 207.47 C 99.90 207.17 100.66 206.57 101.03 206.27 L 101.85 205.61 C 101.76 208.58 98.84 209.70 96.34 208.68 Z" />
<path fill="#e7e206" opacity="1.00" d=" M 97.60 202.16 C 98.75 201.34 99.94 200.57 101.13 199.81 C 101.12 201.96 101.10 204.11 101.03 206.27 C 100.66 206.57 99.90 207.17 99.53 207.47 C 98.69 206.10 97.86 204.71 97.26 203.22 L 97.60 202.16 Z" />
<path fill="#ec4333" opacity="1.00" d=" M 111.26 210.76 C 109.65 206.52 111.65 198.36 117.66 200.31 C 119.21 204.50 117.25 213.29 111.26 210.76 M 112.27 209.84 C 112.87 209.79 114.07 209.71 114.67 209.66 C 116.98 207.46 116.75 204.15 116.58 201.23 C 112.23 201.14 111.94 206.62 112.27 209.84 Z" />
<path fill="#e7e304" opacity="1.00" d=" M 112.27 209.84 C 111.94 206.62 112.23 201.14 116.58 201.23 C 116.75 204.15 116.98 207.46 114.67 209.66 C 114.07 209.71 112.87 209.79 112.27 209.84 Z" />
<path fill="#eab53d" opacity="1.00" d=" M 99.53 207.47 C 96.89 209.55 95.92 204.95 97.26 203.22 C 97.86 204.71 98.69 206.10 99.53 207.47 Z" />
<path fill="#800b0b" opacity="1.00" d=" M 64.01 211.01 C 76.06 211.90 88.03 215.54 100.14 213.44 C 99.98 213.66 99.64 214.10 99.47 214.32 C 91.57 216.11 83.58 214.46 75.75 213.20 C 71.85 212.41 67.51 213.20 64.01 211.01 Z" />
</svg>
