<?xml version="1.0" encoding="UTF-8"?>
<!-- Generator: Adobe Illustrator 15.0.2, SVG Export Plug-In . SVG Version: 6.00 Build 0)  -->
<!DOCTYPE svg PUBLIC "-//W3C//DTD SVG 1.1//EN" "http://www.w3.org/Graphics/SVG/1.1/DTD/svg11.dtd">
<svg version="1.1" id="Layer_1" xmlns="http://www.w3.org/2000/svg" xmlns:xlink="http://www.w3.org/1999/xlink" x="0px" y="0px" width="500px" height="378px" viewBox="0 0 500 378" enable-background="new 0 0 500 378" xml:space="preserve">
<path fill="#FFFFFF" d="M0,0h500v378H0V0 M238.16,34.18c-4.88,0.07-8.35,3.82-12.45,5.87c-5.14,0.52-8.88,4.59-13.7,6.12  c-6.15,3.47-9.15,10.26-11.03,16.73c-1.19,2.62-4.74,3.55-5.09,6.58c-0.17,3.46,0.03,6.96-0.63,10.39  c-3.39,3.07-5.21,9.86-1.25,13.1c-0.88,0.62-1.76,1.24-2.63,1.85c-0.35,2.99,0.36,5.84,1.97,8.35c0.02,3.2,0.14,6.49,2.77,8.73  c0.01,2.07-0.02,4.28,1.58,5.84c-0.27,10.76-1.56,21.85,1.48,32.33c0.5,2.95,0.29,5.99,0.97,8.92c1.66,8.22,0.83,16.81,3.4,24.87  c-1.93,6.14-6.32,11.41-12.63,13.32c-7.1,4.03-15.43,0.881-22.94,3.15c-4.86,0.83-8.86,3.9-13.2,6.029  c-0.8-1.899,0.13-3.34,1.56-4.539c0.13-4.271,0.73-8.7-0.76-12.8c1.81-2.68,0.99-6.03,1.08-9.05c0.51-5.2-4.07-9.41-8.76-10.57  c-3.69,5.62-3.53,12.53-6.18,18.55c0.48,4.38-1.2,8.25-2.93,12.14c-2.81-1.6-1.94-5.41-2.02-8.09c0.68-4.36,1.01-8.76,0.9-13.17  c3.06-4.33,1.54-9.89,2.12-14.87c1.25-7.03-7.86-10.75-13.45-8.62c-0.16,4.97-1.22,9.86-0.18,14.79c-4,5.95-2.75,13.64-5.72,20.08  c-2.12,3.61-0.94,7.94-1.34,11.89c-5.22-4.91,0.82-12.449-2.7-18.109c-0.4-3.91,2.57-8.19,0.69-12.2c-1.9-3.36-4.77-6.05-6.71-9.39  c-5.31,0.11-8.42,5.67-7.96,10.53c-0.22,12.22-0.54,24.419-0.74,36.64c-1.79-1.1-3.51-2.32-5.22-3.551  c0.12-2.93-1.66-5.299-4.12-6.699c1.14-3.1,1.73-6.57,1.05-9.811c-2.48-3.01-4.75-6.34-7.82-8.77c-4.99-0.88-5.69,5.06-6.95,8.45  c-1.15,6.93,4.29,12.46,5.42,18.99c1.04,5.85,2.84,11.521,6.87,16.03c-2.48,0.17-4.99,0.03-7.45,0.47  c-2.2,1.541-1.61,4.68-2.78,6.83c-4.66,8.23-9.94,16.12-14,24.67c-0.83,3.961,0.29,8.18-1.15,12.041  c-1.12,3.639-3.3,6.799-4.69,10.319c-0.97,5.79,0.29,11.67-0.17,17.479c-1.75,3.631-4.74,6.791-5.3,10.92  c-0.87,3.65-0.52,7.42-0.8,11.131c-2.31,4.41-6.67,8.449-5.21,13.99c1.28-1.631,1.17-3.791,1.83-5.66c1.23-3.2,4.24-5.49,4.97-8.9  c0.27-3.48-0.03-7,0.53-10.46c0.81-4.2,4.08-7.34,5.53-11.25c0.24-4.92-0.27-9.851-0.06-14.78c-0.16-3.96,2.88-6.98,4.06-10.58  c1.91-3.9,1.25-8.32,1.53-12.5c3.73-11.39,13.41-20.229,16.01-32.07c3.04-0.119,6.07-0.34,9.11-0.5c1.37,2.031,3.33,3.49,5.65,4.281  c0.2,3.5,1.68,6.83,1.32,10.379c-0.39,5.28,2.67,9.91,3.57,14.98c2.34,5.57-0.61,11.971,2.08,17.46c1.64,2.72,2.28,7.21-1.05,8.95  c-4.77,3.1-8.07,9.79-4.78,15.08c3.4,4.949,6.03,10.41,9.84,15.08c4.04,4.72,6.37,10.66,10.82,15.07  c3.14,4.799,8.71,8.719,8.5,15.029c0.41-0.04,1.22-0.1,1.63-0.141c-0.39-2.949-1.13-5.969-3.18-8.25  c-9.69-11.85-18.33-24.469-26.38-37.469c-2.34-3.9-0.34-8.49,2.08-11.811c1.81,3.41,4.75,5.95,7.78,8.24  c2.89,2.029,4.4,5.609,7.7,7.119c9.36,5.061,20.13,6.221,30.37,8.49c-1.95,6.2,1.93,11.86,1.93,18.08  c-3.05,5.23-6.93,10.32-8.7,16.07c4.48-3.24,5.3-10.62,9.78-14.26c1.38,2.119,2.92,4.119,4.22,6.289  c1.56,2.681-1.04,7.101,1.71,8.91c0.01-2.899,0.16-5.81-0.09-8.709c-1.4-2.971-3.62-5.461-5.45-8.17  c2.02-4.33,4.45-8.42,6.68-12.621c2.73-5.279,1.9-11.709-1.51-16.459c6.55-6.48,14.47-12.141,18.32-20.92  c4.21-5.811,6.03-12.971,5.77-20.101c0.77-2.86,1.52-6.56,4.18-8.16c-1.42,8.271-1.01,16.74-0.65,25.08  c0.49-0.75,0.97-1.489,1.46-2.239c-0.45-8.891,0.03-17.801,0.43-26.681c1.27-5.54,3.33-11.069,2.73-16.851  c-0.98-2.949-3.7-4.959-6.49-6.1c2.32-2.439,5.34-5.15,5.12-8.83c-1.54-2.47-4.34-3.75-7.18-3.939c0.88-3.9,4.12-7.221,7.92-8.461  c6.01-2.6,12.55-5.959,14.67-12.689c1.1,1.56,2.77,2.93,2.83,4.99c0.81,5.73,3.76,10.891,4.53,16.63  c0.93,6.761,1.49,13.55,2.34,20.319c1.57,7.921,0.4,16.16,2.84,23.941c0.48,11.659-0.25,23.35,0.01,35.029  c0.37,3.32-2.06,7.17,0.73,9.859c0.77-14.939,0.65-29.939,0.64-44.899c-2.38-8.84-1.55-18.08-3.18-27.03  c3.22,4.51,5.54,9.58,8.53,14.24c2.04,2.859,1.74,7.109,4.72,9.23c-1.95-9.881-8.61-17.771-13.24-26.461  c-1.31-5.619-1.19-11.479-2.56-17.1c-0.88-4.74-3.43-9.029-3.78-13.869c3.25,2.639,4.36,6.799,6.94,9.949  c6.46,6.37,13.94,13.24,23.73,12.75c-3.35,9.58-6.21,19.359-9.62,28.891c3.38,1.119,8.28,0.14,9.59,4.439  c-1.89,5.58-8.82,2.57-12.39,0.73c2.29,6.459,3.26,13.299,5.5,19.77c2.58,6.21,6.97,11.65,8.15,18.42  c2.68,6.221,1.73,13.54,5.57,19.29c2.45,4.17,3.89,9.47,8.41,11.92c-3.34,7.32-10.93,13.521-9.26,22.39  c5.43,2.051,10.13-5.399,15.21-0.91c-0.21-1.899-1.939-3.489-3.91-3.109c-3.65-0.109-6.14,3.529-9.85,3.15  c-1.16-8.41,6.071-14.121,9.28-21.09c4.24-8.15,10.11-15.73,11.391-25.07c2.15-14.26,13.92-25.29,14.56-39.94  c-0.159-4.26,4.45-6.489,5.29-10.521c-0.48,0.031-1.43,0.08-1.91,0.111c-0.31,2.899-2.93,4.649-4.17,7.109  c-1.4,3.279-0.35,7.02-1.79,10.29c-2.18,5.271-3.54,11.21-7.579,15.431c-2.181-4.421-3.391-9.23-4.721-13.951  c-1.52-3.819,2.561-6.22,4.08-9.22c5.279-8.97,11.04-17.739,18.05-25.46c-0.71,5.02-3.979,10.75-1.729,15.7  c0.82-7.681,2.75-15.11,6.49-21.91c2.399-3.46,0.029-7.76,1.729-11.409c1.649-4.051,1.659-8.451,1.79-12.75  c2.199,1.68,2.99,4.399,4.05,6.829c0.17-0.59,0.34-1.17,0.521-1.75c-0.701,5.15,0.68,10.57-1.621,15.46  c-0.43,2.93-3.34,5.95-1.909,8.82c0.84-1.859,1.62-3.75,2.479-5.6c0.09,7.729,0.521,15.529-0.84,23.18  c-0.4,8.689-0.34,17.42-1.949,26.01c-0.91,11.439-0.9,22.96-1.291,34.42c-4.05-0.939-7.83,2.21-6.89,6.4  c7.97,5.63,6.63,16.74,4.87,25.08c-1.551-0.82-3.061-1.67-4.54-2.59c-4.649,1.479-5.24,6.74-3.45,10.689  c1.891-2.51-0.89-6.07,1.82-8.061c2.34-2.52,6.75,4.17,7.72-0.459c1.41-8.471,2.89-19.93-5.36-25.461  c0.17-3.85,3.711-4.27,6.771-4.67c1.989-13.34,0.09-26.99,2.38-40.319c1.46-7.89,0.311-15.96,1.74-23.851  c0.98-8.25-0.24-16.6,0.85-24.85c0.66-6.92,1.2-14.65-3.869-20.189c0.01-3.451,0.359-6.88,1.02-10.261  c3.49,3.24,5.91,7.71,9.84,10.41c4.27,0.601,7.91,2.649,10.24,6.351c0.85-0.201,1.71-0.391,2.58-0.59  c5.63,7.149,14.989,10.829,20.04,18.229c-2.74,2.649-5.471,5.3-8.15,8.01c2.771,1.511,5.71,2.7,8.24,4.62  c-0.82,3.46-3.13,6.22-4.73,9.3c0.53,9.431-5.17,17.55-6.359,26.761c-2.681,6.109-5.511,12.18-7.301,18.649  c-2.38,4.899-0.069,10.569-2.199,15.51c-1.67,4.171-3.36,8.511-2.83,13.101c0.87-3.83,0.88-7.86,2.79-11.43  c2.77-5.361,0.47-11.611,2.779-17.041c1.33-3.729,2.271-7.619,3.95-11.229c4.48-7.87,4.98-17.181,8.71-25.39  c5.7,8.039,10.62,16.629,16.19,24.77c1.25,1.93,1.66,4.26,2.77,6.27c1.811,3.771,5.87,5.711,7.83,9.381  c2.15,3.869,5.29,7.279,9.391,9.1c3.63,2.08,8.43,3.49,10.04,7.75c2.319,4.279,0.289,9.37,2.069,13.8  c1.05,2.56,0.74,5.72,2.84,7.771c3.101,3.439,2.601,9.52,6.66,12.06c-2.149-4.41-3.91-8.979-5.76-13.51  c9.32,0.26,18.95,0.271,27.8,3.5c3.65,2.329,4.771,6.76,7.17,10.12c2.931,1.57,4.98-2.12,6.16-4.28  c1.311-7.16,1.88-15.04,6.561-20.97c2.39-3.49,1.64-7.9,1.81-11.86c2.52,1.899,2.65,5.45,4.86,7.601  c8.54,6.799,12.08,18.02,13.05,28.529c0.05,1.27,1.399,1.86,2.149,2.71c-2.59-7.18-2.729-15.03-5.01-22.35  c-3.35,0.079-3.52-4.55-5.89-6.29c-4.32-3.26-7.21-8.23-8.45-13.42c-0.43-0.12-1.28-0.36-1.71-0.48  c-0.87,9.03-9.81,13.971-15.04,20.52l-0.01-1.85l1.58-0.859c-0.32-0.631-0.63-1.25-0.931-1.86c-2.359,4.49-4.68,9.24-4.71,14.44  c-4.529-2.061-9.47-3.26-14.449-3.17c-5.28-0.961-10.631-1.311-16-1.01c-1.73-4.48-2.971-9.121-2.681-13.961  c4.79,4.44,11.72,3.4,17.67,4.17c7.12,2.03,14.91,0.32,21.37-3.01c-0.09,0.891-0.27,2.65-0.359,3.54  c3.529-4.739,4.619-10.94,9.46-14.67c1.18-5.63-3.57-10.83-1.931-16.59c1.84-6.261,4.19-12.46,7.79-17.95  c0.87,3.609,2.78,6.83,3.88,10.35c1.391,6.84-0.739,14.141,1.95,20.76c1.75,3.91,2.48,8.32,5.36,11.66c2.21,2.551,1.56,6.141,2,9.23  c0.689-3.33,0.95-7.439-1.45-10.17c-2.67-3.17-3.34-7.35-4.99-11.04c-3.24-7.63,0.58-16.36-3.109-23.899  c-4.7-8.541-2.171-18.591-1.011-27.681c1.891-5.771,8.7-6.67,11.34-11.681c0.971-5.529,3.711-10.809,3.12-16.549  c-0.34-4.131-0.109-8.28-0.069-12.42c-2.61-0.271-5.66-0.141-7.59,1.859c-0.131,0.109-0.391,0.32-0.511,0.43  c-1.47,2.971-4.34,5.49-3.479,9.121c0.74,3.909-1.83,7.049-3.41,10.369c-3.51,0.09-6.1,3.09-9.7,2.67c-0.03-4-0.18-8.02,0.19-12.01  c1.56-7,0.02-14.65-3.48-20.82c0.01-5.15,1.53-11.709-3.26-15.31c-3.09-1.01-6.1,0.98-8.521,2.7c-3.05,2.14-2.189,6.36-1.81,9.52  c1.54,5.01-0.28,10.6,2.11,15.41c1.64,4.3-1.061,9.439,1.63,13.45c-1.07,1.159-2.34,1.739-3.811,1.76  c-0.439-4.13-0.89-8.29-2.17-12.271c-0.34-7.149-0.92-14.859-5.569-20.68c-1.261-3.82,0.159-8.08-0.78-12  c-0.9-3.07-2.76-5.71-4.601-8.26c-4.619-0.9-8.59,2.31-10.869,6.02c-0.23,2.44,0.939,4.81,1.229,7.23  c1.11,4.75-0.49,9.76,1.11,14.42c1.52,3.54-1.46,8.971,3.38,10.58c-0.03,3.221-0.021,6.43,0.03,9.65  c-2.671-3.93-7.181-7.2-7.131-12.4c-0.42-5.27-4.17-9.3-5.489-14.27c-0.99-5-7.681-3.98-10.79-1.74  c-1.69,3.439,0.479,7.529-1.36,11.02c0.68,4.36,2.89,8.49,3.811,12.74c-4.2,0.71-7.53-2.439-11.461-3.16  c-3.109-0.699-5.76-2.58-8.6-3.939c-3.12-1.621-7.07,0.039-10.05-1.76c-4.73-4.94-12.271-3.451-18.4-3.141  c-2.34,0.561-3.239-2-4.46-3.42c-0.689,0.141-2.05,0.42-2.74,0.55c-1.38-1.45-2.63-3.04-4.18-4.319c-2.71-1.461-6.479-1-8.399-3.761  c-2.331-2.68-4.681-5.34-6.88-8.13c-2-0.03-4-0.05-6-0.08c-0.561-3.11,1.77-5.46,2.799-8.17c1.74-4.05,1.75-9.12,4.801-12.44  c3.32-0.99,3.14-4.73,3.55-7.5c7.04-5.62,9.36-14.96,9.99-23.52c-0.33-1.67,0.64-4.31-1.48-5.03c-0.6,1.27-1.2,2.55-1.77,3.84  c4.49,8.11-0.641,18.95-7.4,24.52c-0.94-0.19-1.87-0.37-2.81-0.55c-0.94,2.65-1.9,5.37-1.391,8.23c-0.97,3.37-2.67,6.52-3.26,10.02  c-0.72,4.17-5.25,7.42-3.1,11.9c-8.95,12.69-23.08,20.86-37.391,26.25c-10.459,1.6-22.32,2.709-31.76-3.041  c-4.06-4.01-9.45-6.89-12.02-12.189c-2.01-3.95-4.93-7.4-8.41-10.13c-2.74-12.78-3.26-25.92-5.17-38.85  c-2.74-10.16-1.68-20.83-1.25-31.21c0.67-0.76,1.34-1.51,2.01-2.27c-0.19-4.41-0.52-9.71,3.24-12.83c2.38-1.49,4.62-3.81,7.57-3.93  c2.97,0.83,5.56,3.06,8.72,3.15c2.05-0.47,2.06-2.8,2.69-4.39c0.47-0.34,1.4-1.02,1.87-1.35c-4.22-2.04-8.37-5.92-13.38-4.48  c-3.37,2.41-7.95,3.51-10.03,7.26c-0.7-5.07-0.54-11.42,0.27-16.88c0.47-4.68,5.8-6.29,7.15-10.56c4.18-0.94,8.3-4.37,12.66-2.13  c2.69,1.38,5.6,1.25,8.5,0.81c0.63,1.83,0.23,4.51,2.4,5.36c3.26,0.77,6.01-1.44,7.78-3.93c5.85,3.16,12.22,1.4,18.339-0.03  c2.931,1.13,6.451,0.71,8.011-2.32c1.38,1.54,3.229,3.06,5.09,1.14c1.341,1.16,2.99,1.61,4.75,1.59c1.14-1.67,3.521-2.44,4.55-0.17  c3.78,3.12,5.24,7.95,8.92,11.17c-0.979,3.41,2.51,6.47,0.41,9.6c-2.13,6.07,1.93,11.53,5.141,16.3  c-0.91,7.28-1.4,14.62-1.021,21.96c0.03,1.38,1.341,2.19,2.21,3.07c-0.54,1.4-1.15,2.76-1.77,4.13c0.609,1.25,1.22,2.52,1.76,3.81  c0.689-1.28,1.47-2.5,2.27-3.71c-0.64-1.04-1.199-2.12-1.439-3.32c2.33-0.9,3.199-3.27,4.71-5.02c2.31-1.77,4.83-3.26,7.399-4.62  c2.761-0.34,3.881,3.05,6.021,4.22c3.41-4.06,4.79-9.81,1.6-14.43c1.021-2.96,3.551-5.01,4.74-7.89c-0.99-1.3-1.96-2.6-2.899-3.93  c5.59-6.84-0.79-14.78-1.19-22.12c-2-5.03-3.48-10.36-5.84-15.33c-0.771-5.5-6.38-8.02-8.41-12.81c-0.69-1.34-2.33-1.16-3.569-1.45  c-0.061-1.84-0.07-4.44-2.531-4.57c-3.039,0.13-4.41-2.65-6.359-4.41c-1.82-1.93-5,0.74-6.67-1.37c-1.77-2.62-5.12-2.07-7.85-2.29  c-3.48-4.81-9.65-6.19-15.07-4.03C253.529,33.32,245.76,33.77,238.16,34.18 M249.73,83.12c2.75,1.37,5.95,0.37,8.89,0.46  c1.01-2.93,5.47-0.36,6.26-3.12C259.689,80.2,254.3,80.3,249.73,83.12 M206.92,85.9c5.1-4.64,11.04-0.21,16.7-0.31  c0.05-0.5,0.15-1.5,0.2-2c-1.99-0.69-3.94-1.48-5.86-2.34C214.24,82.74,208.51,80.82,206.92,85.9 M247.47,92.97  c0.72,0.35,2.17,1.06,2.89,1.41c-1.45,1.41-1.87,4.27-4.24,4.41c3.2,0.23,6.229-0.52,8.93-2.26c3.99-0.55,7.94,1.46,11.89,1.88  c3.031-0.65,6.101-1.04,9.201-0.85c0.359,0.43,1.08,1.28,1.439,1.71c1.939,0.5,3.66,1.54,5.359,2.57  c-0.899-5.11-5.399-8.82-10.379-9.7c-5.051-2.54-10.36,0.62-15.59,0.04c-2.281-0.24-4.521,0.21-6.651,1.02  c0.661-1.29,1.98-3.87,2.63-5.16C251.58,89.27,248.84,91.74,247.47,92.97 M245.73,117.47c1.62-0.74,2.97-1.83,4.05-3.28  c-1.01,3.41,2.98,3.45,5.07,4.44c4.471-0.36,9.621,2.36,13.471-0.87c1.35,0,2.58-0.51,3.49-1.51c-1.201-0.75-2.431-1.46-3.561-2.31  C261.83,107.7,249.99,109.56,245.73,117.47 M211.96,111.75c-2.52,0.89-6.53,1.92-6.36,5.31c0.36,0,1.08,0,1.44,0.01l0.12,0.76  l0.06-1.77l1.86-0.81c0.7,1.02,2.1,3.08,2.8,4.11c-0.12,0.69-0.35,2.07-0.47,2.76c3.07,0.16,6.14-0.1,9.16-0.63  c0.05-0.6,0.13-1.8,0.18-2.4c-1.93,0.81-3.87,1.66-5.95,1.97c3-1.87,2.91-4.97,1.34-7.64c1.37-0.04,2.73-0.08,4.11-0.12  c1.68,2.02,3.74,4.31,6.67,3.36C224.57,110.86,217.16,110.84,211.96,111.75 M272.939,119.35c0.641,0.02,1.931,0.08,2.58,0.11  c0.24-1.36,0.15-2.72-0.289-4.07C275.46,117.28,273.3,118.01,272.939,119.35 M268.08,120.13c1.029,1.3,4.84,1.52,4.859-0.78  C271.32,119.16,269.57,119.57,268.08,120.13 M220.26,130.94c2.57-1.08,3.58-3.89,4.83-6.16  C223.24,126.64,222.03,129.01,220.26,130.94 M246.95,129.28c2.62,3.47,5.76,7.66,4.63,12.23c-5.49,4.1-9.14-4.36-14.64-2.57  c-1.29,1.68-2.28,4.6-4.98,3.86c-2.15-1.57-3.93-4.22-6.86-4.24c-2.38-0.11-5.81-0.91-5.56,2.84c-0.56-0.27-1.69-0.79-2.25-1.05  c0.23,1.1,0.7,2.12,1.16,3.15c1.02,0.11,2.04,0.23,3.06,0.35c-0.97-0.92-1.39-2.11-1.23-3.56c2.59,0.34,5.37,1.4,7.82-0.1  c2.03,2.67,5.66,4.98,8.08,1.28c2.06-0.06,4.14-0.22,6.05-1.06c0.77,0.72,1.55,1.43,2.32,2.16c2.5-0.07,6.06,1.13,7.841-1.07  C252.79,136.92,250.65,132.06,246.95,129.28 M305.7,130.2c-1.351,4.06,2.83,6.64,4.27,9.89C310.21,136.65,307.18,133.32,305.7,130.2   M301.41,136.54c3.25,3.51,1.15,8.18,1.25,12.33c1.6-0.04,2.369-0.97,2.311-2.81c1.069-0.96,2.149-1.91,3.239-2.86  C306.3,140.66,305.58,135.6,301.41,136.54 M208.58,158.66c-1.3,4.49,1.26,8.92,3.65,12.58c2.02,1.57,2.93-1.24,3.91-2.47  c2.29,1.45,4.71,2.92,6.31,5.15c0.85,2.19,2.19,4.85,4.72,5.23c4.26-1.13,8.41-2.79,12.83-3.27c2.6-0.27,6.09-0.62,6.89-3.63  c-0.28-0.41-0.84-1.23-1.12-1.64c-6.79,3.31-14.88,3.34-22.12,1.57c-2.38-1.69-4.39-3.86-6.24-6.1c3.37-0.44,6.42-1.92,9.5-3.25  c2.98-1.24,4.89,3.03,7.81,1.67c2.31-1.06,4.75-1.76,7.23-2.29c2.28,2.34,5.5,2.96,8.6,3.51c-1.31,1.51-2.65,2.98-4.07,4.38  c0.47,0.45,0.94,0.9,1.42,1.35c1.73-3.02,4.1-5.79,7.209-7.45c3.101,1.81,3.551,7.95,8.07,6.31c0.891-4.43,5.59-9.31,1.92-13.6  c-6.1-6.36-15.81-4.91-22.54-10.06c-3.55-1.52-7.41,0.96-9.15,4.03c-0.56,0.02-1.67,0.04-2.22,0.06c-1.84-2.25-3.74-5.56-7.2-4.48  C217.46,148.22,213.59,154.43,208.58,158.66 M281.439,180.29c2.521-1.81,3.9-4.73,4.931-7.57  C284.65,175.19,283.18,177.83,281.439,180.29 M257.16,192.26c-6.53,5.98-16.06,9.051-24.77,6.711  c-9.77-1.211-15.71-10.211-20.3-17.991c2.75,7.1,8.1,13.37,14.77,17.049c5.78,1.871,12.13,3.361,18.12,1.5  c10.79-3.35,19.831-11.609,25.081-21.5C266.09,183.05,262.689,188.75,257.16,192.26 M295.23,230.141  c1.5-1.111,3.319-3.461,1.85-5.25C296.13,226.51,295.18,228.2,295.23,230.141 M185.57,275.811c-0.08,11.31,3.95,22.02,4.57,33.219  c1.76,5.771-1.31,12.57,2.04,17.781c0.42-12.041-0.65-24.17-3.58-35.851c-1.02-6.21-1.64-12.489-1.68-18.78  C186.29,273.311,185.06,274.33,185.57,275.811 M215.31,298.25c0.58,6.3-1.38,12.46-0.53,18.74c0.61,7.859-2.04,15.55-1.17,23.4  c0.27,0.149,0.81,0.43,1.09,0.58c-0.06-6.361,0.89-12.641,1.63-18.931c0.24-7.61-0.59-15.351,0.82-22.851  C216.69,298.95,215.77,298.49,215.31,298.25 M133.02,320.939c0.12,0.371,0.36,1.121,0.48,1.49c1.53-0.199,3.46,0.471,4.65-0.789  C136.43,321.45,134.71,321.3,133.02,320.939 M137.03,332c1.31,0.5,2.78,0.21,4.16,0.27c0.31-2.02,0.42-4.06,0.43-6.09  C137.94,323.609,134.87,329.12,137.03,332z"/>
<path d="M238.16,34.18c7.6-0.41,15.369-0.86,22.83,0.54c5.42-2.16,11.59-0.78,15.07,4.03c2.729,0.22,6.08-0.33,7.85,2.29  c1.67,2.11,4.85-0.56,6.67,1.37c1.949,1.76,3.32,4.54,6.359,4.41c2.461,0.13,2.471,2.73,2.531,4.57  c1.239,0.29,2.879,0.11,3.569,1.45c2.03,4.79,7.64,7.31,8.41,12.81c2.359,4.97,3.84,10.3,5.84,15.33c0.4,7.34,6.78,15.28,1.19,22.12  c0.939,1.33,1.909,2.63,2.899,3.93c-1.189,2.88-3.72,4.93-4.74,7.89c3.19,4.62,1.811,10.37-1.6,14.43  c-2.14-1.17-3.26-4.56-6.021-4.22c-2.569,1.36-5.09,2.85-7.399,4.62c-1.511,1.75-2.38,4.12-4.71,5.02c0.24,1.2,0.8,2.28,1.439,3.32  c-0.8,1.21-1.58,2.43-2.27,3.71c-0.54-1.29-1.15-2.56-1.76-3.81c0.619-1.37,1.229-2.73,1.77-4.13c-0.869-0.88-2.18-1.69-2.21-3.07  c-0.38-7.34,0.11-14.68,1.021-21.96c-3.211-4.77-7.271-10.23-5.141-16.3c2.1-3.13-1.39-6.19-0.41-9.6  c-3.68-3.22-5.14-8.05-8.92-11.17c-1.029-2.27-3.41-1.5-4.55,0.17c-1.76,0.02-3.409-0.43-4.75-1.59c-1.86,1.92-3.71,0.4-5.09-1.14  c-1.56,3.03-5.08,3.45-8.011,2.32c-6.119,1.43-12.489,3.19-18.339,0.03c-1.77,2.49-4.52,4.7-7.78,3.93  c-2.17-0.85-1.77-3.53-2.4-5.36c-2.9,0.44-5.81,0.57-8.5-0.81c-4.36-2.24-8.48,1.19-12.66,2.13c-1.35,4.27-6.68,5.88-7.15,10.56  c-0.81,5.46-0.97,11.81-0.27,16.88c2.08-3.75,6.66-4.85,10.03-7.26c5.01-1.44,9.16,2.44,13.38,4.48c-0.47,0.33-1.4,1.01-1.87,1.35  c-0.63,1.59-0.64,3.92-2.69,4.39c-3.16-0.09-5.75-2.32-8.72-3.15c-2.95,0.12-5.19,2.44-7.57,3.93c-3.76,3.12-3.43,8.42-3.24,12.83  c-0.67,0.76-1.34,1.51-2.01,2.27c-0.43,10.38-1.49,21.05,1.25,31.21c1.91,12.93,2.43,26.07,5.17,38.85  c3.48,2.73,6.4,6.18,8.41,10.13c2.57,5.3,7.96,8.18,12.02,12.189c9.44,5.75,21.3,4.641,31.76,3.041  c14.311-5.391,28.44-13.561,37.391-26.25c-2.15-4.48,2.38-7.73,3.1-11.9c0.59-3.5,2.29-6.65,3.26-10.02  c-0.51-2.86,0.45-5.58,1.391-8.23c0.939,0.18,1.869,0.36,2.81,0.55c6.76-5.57,11.891-16.41,7.4-24.52  c0.569-1.29,1.17-2.57,1.77-3.84c2.12,0.72,1.15,3.36,1.48,5.03c-0.63,8.56-2.95,17.9-9.99,23.52c-0.41,2.77-0.229,6.51-3.55,7.5  c-3.051,3.32-3.061,8.39-4.801,12.44c-1.029,2.71-3.359,5.06-2.799,8.17c2,0.03,4,0.05,6,0.08c2.199,2.79,4.549,5.45,6.88,8.13  c1.92,2.761,5.689,2.3,8.399,3.761c1.55,1.279,2.8,2.869,4.18,4.319c0.69-0.13,2.051-0.409,2.74-0.55  c1.221,1.42,2.12,3.98,4.46,3.42c6.13-0.311,13.67-1.8,18.4,3.141c2.979,1.799,6.93,0.139,10.05,1.76  c2.84,1.359,5.49,3.24,8.6,3.939c3.931,0.721,7.261,3.87,11.461,3.16c-0.921-4.25-3.131-8.38-3.811-12.74  c1.84-3.49-0.33-7.58,1.36-11.02c3.109-2.24,9.8-3.26,10.79,1.74c1.319,4.97,5.069,9,5.489,14.27c-0.05,5.2,4.46,8.471,7.131,12.4  c-0.051-3.221-0.061-6.43-0.03-9.65c-4.84-1.609-1.86-7.04-3.38-10.58c-1.601-4.66,0-9.67-1.11-14.42  c-0.29-2.42-1.46-4.79-1.229-7.23c2.279-3.71,6.25-6.92,10.869-6.02c1.841,2.55,3.7,5.19,4.601,8.26c0.939,3.92-0.48,8.18,0.78,12  c4.649,5.82,5.229,13.53,5.569,20.68c1.28,3.98,1.73,8.141,2.17,12.271c1.471-0.021,2.74-0.601,3.811-1.76  c-2.69-4.011,0.01-9.15-1.63-13.45c-2.391-4.811-0.57-10.4-2.11-15.41c-0.38-3.16-1.24-7.38,1.81-9.52  c2.421-1.72,5.431-3.71,8.521-2.7c4.79,3.6,3.27,10.159,3.26,15.31c3.5,6.17,5.04,13.82,3.48,20.82  c-0.37,3.99-0.221,8.01-0.19,12.01c3.601,0.42,6.19-2.58,9.7-2.67c1.58-3.32,4.15-6.46,3.41-10.369  c-0.86-3.631,2.01-6.15,3.479-9.121c-1.33,6.851-2.89,13.561-5.18,20.18c-3.59,1.691-7.21,3.631-11.15,4.341  c-3.06-1.69-5.819-3.91-9.02-5.38c-0.17-0.5-0.53-1.51-0.71-2.01c3.1,0.789,5.93,2.289,8.63,3.99c-0.14-2.41-0.85-4.711-1.94-6.851  l-0.08-0.521c0.391,0.141,1.16,0.42,1.551,0.561c0.59-3.1,0.989-6.221,1.1-9.36c-4.229-2.069-8.8-0.12-13.22-0.239  c0.069,3.459-0.69,7.219,1.43,10.26c-1.22,1.189-2.42,2.39-3.62,3.58c-0.8-0.601-1.59-1.211-2.37-1.811  c0.32-5.71-2.609-10.91-2.3-16.59c-0.05-5.95-2.33-11.62-5.57-16.52c-0.88-3.951,0.19-8.101-0.609-12.081  c-1.03-2.51-2.59-4.74-4-7.02c-4.16-0.56-7.561,2.22-9.62,5.57c0.46,3.79,1.49,7.5,2.01,11.3c2.16,0.05,4.33,0.141,6.5,0.32  c-1.76,2.35-4.62,1.68-7.04,0.99c-0.39,5.02,1.78,9.719,1.63,14.719c3.91-0.469,8.99,0.15,9.511,5  c-1.141-1.17-2.181-2.42-3.19-3.689c-2.2-0.25-4.43-0.33-6.64-0.34c4.76,2.8,2.35,8.35,3.279,12.74  c0.771,3.24,2.32,6.26,3.011,9.539c-1.75,1.541-3.891,2.441-6.13,3c-0.08-0.409-0.23-1.219-0.311-1.619  c1.43-0.12,2.87-0.24,4.311-0.36c2.329-8.909-9.391-13.2-9.95-21.53c-0.311-5.709-4.38-10.149-5.8-15.539  c-1.351-4.03-6.58-2-9.381-0.82c0.841,5.779-1.609,11.48,0.82,17.04c0.83-0.41,1.66-0.83,2.48-1.261c1.3,0.011,2.6-0.02,3.899-0.01  c-1.67,1-3.35,1.971-5.1,2.82c2.04,2.45,1.33,6.33,3.67,8.51c2.979-0.84,5.78-2.55,8.91-3.13c-0.46,0.591-0.92,1.19-1.37,1.79  c-2.4,0.66-5.25,1.051-6.43,3.58c0.069,3.311,0.59,6.6,0.43,9.91c0.83,1.279,1.649,2.57,2.47,3.869c2.03-1.109,4.01-2.279,5.97-3.51  c0.41,0.121,1.221,0.36,1.62,0.48c-2.85,2.311-6.21,4.029-8.83,6.57c-0.479,3.75-0.77,7.52-1.35,11.25  c6.79,0.109,13.81-2.44,20.3,0.63c2.48,1.85,4.91,3.89,6.7,6.45c-4.021-1.95-6.43-6.961-11.44-6.45  c0.181,10.399,2.86,22.68-5.52,30.79c-0.01-0.391-0.04-1.16-0.05-1.54c2.92-3.49,5.25-7.71,4.979-12.4  c-0.229-5.86,0.7-11.92-1.06-17.6c-4.181-0.08-8.28,0.86-12.42,1.25c-3.021,3.01-5.49,6.899-9.29,8.92  c-4.891,0.18-7.54-4.771-10.58-7.8c-3.91-3.26-4.55-9.51-9.82-11.24c-4.05-1.33-9.08-3.551-13.07-1.38  c-1.539,4.39-1.699,10.079,1.511,13.899c4.56,5.92,7.76,12.74,12.319,18.66c2.79,3.26,2.71,8.15,6.051,11.061  c2.84,2.539,5.239,5.49,7.17,8.779c3.979,6.53,12.64,7.11,17.42,12.78c2.34,2.12,1.359,6.16,4.18,7.899  c4.99,3.021,11.11,1.391,16.521,2.781c7.409,1.76,14.85-0.91,21.569-3.83c1.23-2.681,2.07-5.69,4.3-7.76  c1.07-1.301,3.061-2.461,2.45-4.451c-0.96-5.109-3.62-10.24-1.89-15.52c1.68-4.48,3.02-9.16,5.52-13.279  c6.23-8.631,0.141-21.271,7.82-29.141c2.33-2.77,6.97-3.301,8.15-7.13c1.05-4.95,3.449-9.71,3.109-14.88  c-0.149-4.24-0.189-8.49-0.12-12.74c-2.22,0.33-4.42,0.73-6.619,1.09c1.93-2,4.979-2.13,7.59-1.859  c-0.04,4.14-0.271,8.289,0.069,12.42c0.591,5.74-2.149,11.02-3.12,16.549c-2.64,5.011-9.449,5.91-11.34,11.681  c-1.16,9.09-3.689,19.14,1.011,27.681c3.689,7.539-0.131,16.27,3.109,23.899c1.65,3.69,2.32,7.87,4.99,11.04  c2.4,2.73,2.14,6.84,1.45,10.17c-0.44-3.09,0.21-6.68-2-9.23c-2.88-3.34-3.61-7.75-5.36-11.66c-2.689-6.619-0.56-13.92-1.95-20.76  c-1.1-3.52-3.01-6.74-3.88-10.35c-3.6,5.49-5.95,11.689-7.79,17.95c-1.64,5.76,3.11,10.96,1.931,16.59  c-4.841,3.729-5.931,9.931-9.46,14.67c0.09-0.89,0.27-2.649,0.359-3.54c-6.46,3.33-14.25,5.04-21.37,3.01  c-5.95-0.77-12.88,0.271-17.67-4.17c-0.29,4.84,0.95,9.48,2.681,13.961c5.369-0.301,10.72,0.049,16,1.01  c4.979-0.09,9.92,1.109,14.449,3.17c0.03-5.2,2.351-9.95,4.71-14.44c0.301,0.61,0.61,1.229,0.931,1.86l-1.58,0.859l0.01,1.85  c5.23-6.549,14.17-11.489,15.04-20.52c0.43,0.12,1.28,0.36,1.71,0.48c1.24,5.189,4.13,10.16,8.45,13.42  c2.37,1.74,2.54,6.369,5.89,6.29c2.28,7.319,2.42,15.17,5.01,22.35c-0.75-0.85-2.1-1.44-2.149-2.71  c-0.97-10.51-4.51-21.73-13.05-28.529c-2.21-2.15-2.341-5.701-4.86-7.601c-0.17,3.96,0.58,8.37-1.81,11.86  c-4.681,5.93-5.25,13.81-6.561,20.97c-1.18,2.16-3.229,5.851-6.16,4.28c-2.399-3.36-3.52-7.791-7.17-10.12  c-8.85-3.229-18.479-3.24-27.8-3.5c1.85,4.53,3.61,9.1,5.76,13.51c-4.06-2.54-3.56-8.62-6.66-12.06  c-2.1-2.051-1.79-5.211-2.84-7.771c-1.78-4.43,0.25-9.521-2.069-13.8c-1.61-4.26-6.41-5.67-10.04-7.75  c-4.101-1.82-7.24-5.23-9.391-9.1c-1.96-3.67-6.02-5.61-7.83-9.381c-1.109-2.01-1.52-4.34-2.77-6.27  c-5.57-8.141-10.49-16.73-16.19-24.77c-3.729,8.209-4.229,17.52-8.71,25.39c-1.68,3.61-2.62,7.5-3.95,11.229  c-2.31,5.43-0.01,11.68-2.779,17.041c-1.91,3.569-1.92,7.6-2.79,11.43c-0.53-4.59,1.16-8.93,2.83-13.101  c2.13-4.94-0.181-10.61,2.199-15.51c1.79-6.47,4.62-12.54,7.301-18.649c1.189-9.211,6.89-17.33,6.359-26.761  c1.601-3.08,3.91-5.84,4.73-9.3c-2.53-1.92-5.47-3.109-8.24-4.62c2.68-2.71,5.41-5.36,8.15-8.01  c-5.051-7.4-14.41-11.08-20.04-18.229c-0.87,0.199-1.73,0.389-2.58,0.59c-2.33-3.701-5.971-5.75-10.24-6.351  c-3.93-2.7-6.35-7.17-9.84-10.41c-0.66,3.38-1.01,6.81-1.02,10.261c5.069,5.539,4.529,13.27,3.869,20.189  c-1.09,8.25,0.131,16.6-0.85,24.85c-1.43,7.891-0.28,15.961-1.74,23.851c-2.29,13.329-0.391,26.979-2.38,40.319  c-3.06,0.4-6.601,0.82-6.771,4.67c8.25,5.531,6.771,16.99,5.36,25.461c-0.97,4.629-5.38-2.061-7.72,0.459  c-2.71,1.99,0.07,5.551-1.82,8.061c-1.79-3.949-1.199-9.21,3.45-10.689c1.479,0.92,2.989,1.77,4.54,2.59  c1.76-8.34,3.1-19.45-4.87-25.08c-0.94-4.19,2.84-7.34,6.89-6.4c0.391-11.46,0.381-22.98,1.291-34.42  c1.609-8.59,1.549-17.32,1.949-26.01c1.36-7.65,0.93-15.45,0.84-23.18c-0.859,1.85-1.64,3.74-2.479,5.6  c-1.431-2.87,1.479-5.891,1.909-8.82c2.301-4.89,0.92-10.31,1.621-15.46c-0.181,0.58-0.351,1.16-0.521,1.75  c-1.06-2.43-1.851-5.149-4.05-6.829c-0.131,4.299-0.141,8.699-1.79,12.75c-1.7,3.649,0.67,7.949-1.729,11.409  c-3.74,6.8-5.67,14.229-6.49,21.91c-2.25-4.95,1.02-10.681,1.729-15.7c-7.01,7.721-12.771,16.49-18.05,25.46  c-1.52,3-5.6,5.4-4.08,9.22c1.33,4.721,2.54,9.53,4.721,13.951c4.039-4.221,5.399-10.16,7.579-15.431  c1.44-3.271,0.39-7.011,1.79-10.29c1.24-2.46,3.86-4.21,4.17-7.109c0.48-0.031,1.43-0.08,1.91-0.111  c-0.84,4.031-5.449,6.261-5.29,10.521c-0.64,14.65-12.409,25.681-14.56,39.94c-1.28,9.34-7.15,16.92-11.391,25.07  c-3.209,6.969-10.439,12.68-9.28,21.09c3.71,0.379,6.2-3.26,9.85-3.15c1.971-0.38,3.7,1.21,3.91,3.109  c-5.08-4.489-9.78,2.961-15.21,0.91c-1.67-8.869,5.92-15.069,9.26-22.39c-4.52-2.45-5.96-7.75-8.41-11.92  c-3.84-5.75-2.89-13.069-5.57-19.29c-1.18-6.77-5.57-12.21-8.15-18.42c-2.24-6.471-3.21-13.311-5.5-19.77  c3.57,1.84,10.5,4.85,12.39-0.73c-1.31-4.3-6.21-3.32-9.59-4.439c3.41-9.531,6.27-19.311,9.62-28.891  c-9.79,0.49-17.27-6.38-23.73-12.75c-2.58-3.15-3.69-7.311-6.94-9.949c0.35,4.84,2.9,9.129,3.78,13.869  c1.37,5.62,1.25,11.48,2.56,17.1c4.63,8.69,11.29,16.58,13.24,26.461c-2.98-2.121-2.68-6.371-4.72-9.23  c-2.99-4.66-5.31-9.73-8.53-14.24c1.63,8.95,0.8,18.19,3.18,27.03c0.01,14.96,0.13,29.96-0.64,44.899  c-2.79-2.689-0.36-6.539-0.73-9.859c-0.26-11.68,0.47-23.37-0.01-35.029c-2.44-7.781-1.27-16.021-2.84-23.941  c-0.85-6.77-1.41-13.559-2.34-20.319c-0.77-5.739-3.72-10.899-4.53-16.63c-0.06-2.061-1.73-3.43-2.83-4.99  c-2.12,6.73-8.66,10.09-14.67,12.689c-3.8,1.24-7.04,4.561-7.92,8.461c2.84,0.189,5.64,1.47,7.18,3.939  c0.22,3.68-2.8,6.391-5.12,8.83c2.79,1.141,5.51,3.15,6.49,6.1c0.6,5.781-1.46,11.311-2.73,16.851c-0.4,8.88-0.88,17.79-0.43,26.681  c-0.49,0.75-0.97,1.489-1.46,2.239c-0.36-8.34-0.77-16.81,0.65-25.08c-2.66,1.601-3.41,5.3-4.18,8.16  c0.26,7.13-1.56,14.29-5.77,20.101c-3.85,8.779-11.77,14.439-18.32,20.92c3.41,4.75,4.24,11.18,1.51,16.459  c-2.23,4.201-4.66,8.291-6.68,12.621c1.83,2.709,4.05,5.199,5.45,8.17c0.25,2.899,0.1,5.81,0.09,8.709  c-2.75-1.81-0.15-6.229-1.71-8.91c-1.3-2.17-2.84-4.17-4.22-6.289c-4.48,3.64-5.3,11.02-9.78,14.26c1.77-5.75,5.65-10.84,8.7-16.07  c0-6.22-3.88-11.88-1.93-18.08c-10.24-2.27-21.01-3.43-30.37-8.49c-3.3-1.51-4.81-5.09-7.7-7.119c-3.03-2.29-5.97-4.83-7.78-8.24  c-2.42,3.32-4.42,7.91-2.08,11.811c8.05,13,16.69,25.619,26.38,37.469c2.05,2.281,2.79,5.301,3.18,8.25  c-0.41,0.041-1.22,0.101-1.63,0.141c0.21-6.311-5.36-10.23-8.5-15.029c-4.45-4.41-6.78-10.351-10.82-15.07  c-3.81-4.67-6.44-10.131-9.84-15.08c-3.29-5.29,0.01-11.98,4.78-15.08c3.33-1.74,2.69-6.23,1.05-8.95  c-2.69-5.489,0.26-11.89-2.08-17.46c-0.9-5.07-3.96-9.7-3.57-14.98c0.36-3.549-1.12-6.879-1.32-10.379  c-2.32-0.791-4.28-2.25-5.65-4.281c-3.04,0.16-6.07,0.381-9.11,0.5c-2.6,11.841-12.28,20.681-16.01,32.07  c-0.28,4.18,0.38,8.6-1.53,12.5c-1.18,3.6-4.22,6.62-4.06,10.58c-0.21,4.93,0.3,9.86,0.06,14.78c-1.45,3.91-4.72,7.05-5.53,11.25  c-0.56,3.46-0.26,6.979-0.53,10.46c-0.73,3.41-3.74,5.7-4.97,8.9c-0.66,1.869-0.55,4.029-1.83,5.66c-1.46-5.541,2.9-9.58,5.21-13.99  c0.28-3.711-0.07-7.48,0.8-11.131c0.56-4.129,3.55-7.289,5.3-10.92c0.46-5.81-0.8-11.689,0.17-17.479  c1.39-3.521,3.57-6.681,4.69-10.319c1.44-3.861,0.32-8.08,1.15-12.041c4.06-8.55,9.34-16.439,14-24.67  c1.17-2.15,0.58-5.289,2.78-6.83c2.46-0.439,4.97-0.3,7.45-0.47c-4.03-4.51-5.83-10.181-6.87-16.03  c-1.13-6.529-6.57-12.06-5.42-18.99c1.26-3.39,1.96-9.33,6.95-8.45c3.07,2.43,5.34,5.76,7.82,8.77c0.68,3.24,0.09,6.711-1.05,9.811  c2.46,1.4,4.24,3.77,4.12,6.699c1.71,1.23,3.43,2.451,5.22,3.551c0.2-12.221,0.52-24.42,0.74-36.64  c-0.46-4.86,2.65-10.42,7.96-10.53c1.94,3.34,4.81,6.03,6.71,9.39c1.88,4.01-1.09,8.29-0.69,12.2c3.52,5.66-2.52,13.199,2.7,18.109  c0.4-3.949-0.78-8.279,1.34-11.89c2.97-6.44,1.72-14.13,5.72-20.08c-1.04-4.93,0.02-9.82,0.18-14.79c5.59-2.13,14.7,1.59,13.45,8.62  c-0.58,4.98,0.94,10.54-2.12,14.87c0.11,4.41-0.22,8.81-0.9,13.17c0.08,2.68-0.79,6.49,2.02,8.09c1.73-3.89,3.41-7.76,2.93-12.14  c2.65-6.02,2.49-12.93,6.18-18.55c4.69,1.16,9.27,5.37,8.76,10.57c-0.09,3.02,0.73,6.37-1.08,9.05c1.49,4.1,0.89,8.53,0.76,12.8  c-1.43,1.199-2.36,2.64-1.56,4.539c4.34-2.129,8.34-5.199,13.2-6.029c7.51-2.27,15.84,0.88,22.94-3.15  c6.31-1.91,10.7-7.18,12.63-13.32c-2.57-8.06-1.74-16.65-3.4-24.87c-0.68-2.93-0.47-5.97-0.97-8.92  c-3.04-10.48-1.75-21.57-1.48-32.33c-1.6-1.56-1.57-3.77-1.58-5.84c-2.63-2.24-2.75-5.53-2.77-8.73c-1.61-2.51-2.32-5.36-1.97-8.35  c0.87-0.61,1.75-1.23,2.63-1.85c-3.96-3.24-2.14-10.03,1.25-13.1c0.66-3.43,0.46-6.93,0.63-10.39c0.35-3.03,3.9-3.96,5.09-6.58  c1.88-6.47,4.88-13.26,11.03-16.73c4.82-1.53,8.56-5.6,13.7-6.12C229.81,38,233.28,34.25,238.16,34.18 M127.51,156.36  c-0.21,5,0.03,10.01-0.1,15.01c-3.52,3.14-2.04,8.11-3.72,12.03c-0.51,3.35-1.47,6.59-2.95,9.65c-1.3,5.91,0.56,11.82,0.89,17.72  c-0.42-0.109-1.25-0.31-1.66-0.41c-0.21-4.389-2.29-8.239-4.99-11.58c-0.91-0.359-1.82-0.729-2.72-1.1  c1.09-0.35,2.18-0.699,3.28-1.039c0.3-3.631,0.34-7.271,0.4-10.911c-2.13-1.4-4.54-2.35-6.46-4.05c0.23-0.35,0.46-0.7,0.7-1.04  c1.32,0.92,2.71,1.72,4.17,2.4c1.5-3.44,2.08-7.34,1.27-11.04c-1.89-3.01-4.35-5.63-6.46-8.49c-1.63,1.35-3.88,2.36-4.57,4.51  c-1.79,7.2-1.05,14.65-1.2,21.98c0.14,6.98-0.43,13.99,0.09,20.95c1.43,2.1,3.25,3.899,5.06,5.68c0.1,0.49,0.31,1.47,0.41,1.96  c-5.64-2.79-8.53-12.15-15.69-10.33c3.35-3.47,0.4-7.73-3.74-8.18c2.57-2.52,3.32-6.57,2.54-9.95c-2.09-2.89-4.5-5.54-6.93-8.15  c-0.56,0.16-1.69,0.47-2.26,0.62c-3.55,4.92-3.51,11.679-0.61,16.91c2.8,4.86,3.54,10.471,4.99,15.79  c1.38,5.31,6.29,8.37,9.65,12.351c1.09,0.05,2.18,0.119,3.27,0.18c0.03,1.72-0.03,3.439,0.26,5.141  c1.98,5.379-0.11,11.43,2.94,16.559c3.18,6.591,1.61,13.881,2.79,20.791c2.74,4.13,3.49,10.539-1.87,12.979  c1.69,3.671,5.05,6.05,8.1,8.5c2.45,1.9,3.8,5,6.71,6.341c9.01,4.949,19.46,5.77,29.22,8.399c2.37,1,5.72,1.69,7.59-0.601  c2.42-2.14,1.89-6.049-0.4-8.08c1.24-2.069,2.46-4.33,4.57-5.649c8.31-5.72,13.61-14.55,18.03-23.38c2.66-5.87,0.41-12.7,3.8-18.34  c-0.52-0.34-1.55-1.04-2.07-1.391c1.02-0.57,2.02-1.16,3.03-1.75c-2.72-6.26-9.77-6.75-14.97-9.83c-3.53,3.36,0.51,9.99-3.96,13.53  c-2.69,0.091-4.6-1.771-5.94-3.89c-6.03-7.68-5.3-18.02-6.02-27.21c-0.42-3.37-3.79-5.03-6.66-5.96c3.01-1.79,5.6,1.27,7.91,2.85  c0.9-4.93,0.67-10.029-0.99-14.77c-1.01-0.87-2-1.73-2.96-2.631c2.18-0.629,3.47,1.32,4.81,2.641c2.19-2.57,0.93-6.83,0.88-10.061  c0.05-2.819-2.64-3.45-4.92-3.609c1-1.88,3.6-0.54,5.26-0.88c0.78-6.27,0.47-14.03-6.5-16.61c-3.31,4.43-2.76,10.18-4.94,15.04  c-1.37,2.99,0.11,6.521-1.61,9.41c-2.81,5.09-2.82,11.08-4.93,16.43c-3.24-0.97-6.44-1.979-9.89-1.37  c-0.02-0.39-0.05-1.15-0.07-1.529c2.71-0.19,5.49-0.391,8.03,0.82c1.19-2.621,2.85-5.681,1.7-8.57  c-3.86-6.551-0.07-14.21-0.79-21.25c-1.06-2.94-4.65-3.77-5.96-6.6c2.97-0.24,4.17,4.09,7.3,3.41c0.82-5.21,0.99-10.54,0.76-15.8  C136.48,156.9,131.55,155.92,127.51,156.36 M415.52,188.83c-0.13,2.75-0.09,5.5,0.12,8.24c0.65,0.75,1.96,2.25,2.61,3l-2.68-0.9  c0.399,4.95,0.33,10.18,3.01,14.57c4.34-1.12,8.8-1.36,13.13-0.04c-0.4-5.181-2.61-9.91-3.729-14.89  c-0.091,0.64-0.271,1.92-0.37,2.549l-2.41,0.49c-0.51-1.81,1.35-2.58,2.28-3.67c-0.16-4.52,1.17-9.91-2.62-13.35  C421.18,183.64,418.16,186.76,415.52,188.83 M295.09,186.64c-9.561,14-25.23,22.49-40.869,28.07c1.149,2.69,2.579,5.24,4,7.79  c5.25,10.82,4.75,23.15,7.379,34.66c7.76-10.471,13.68-22.35,22.871-31.78c2.549-3.86,4.409-8.44,4.489-13.12  c1.399-4.65,2.89-9.35,2.601-14.279c-0.391-4.19,2.039-7.84,2.359-11.911C297.21,186.21,295.8,186.5,295.09,186.64 M155.39,207.689  c-0.16,2.461,0.17,4.98-0.52,7.371c-2.58,6.569-1.36,13.869,0.16,20.549c-0.02,5.361,3.1,10.181,6.84,13.791  c3.69-0.141,2.88-4.891,2.91-7.45c-0.51-4.05,2.87-7.021,3.84-10.72c1.88-5.681,6.5-12.34,13.4-10.811c2.02-2.58,5.04-4.85,4.76-8.5  c-2.17-1.5-4.72-2.17-7.25-2.74c-0.46-3.529,2.81-5.84,4.56-8.47C173.98,199.859,163.73,201.67,155.39,207.689 M326.31,205.55  c4.811,3.921,9.7,7.729,14.561,11.591c1.16,0.729,1.49,2.08,1.88,3.299c-2.71,2.48-5.3,5.08-7.86,7.711  c2.54,1.379,5.5,2.229,7.561,4.359c0.46,2.52-1.79,4.59-2.54,6.87c4.3-0.659,8.26,1.261,12.479,1.56  c4.44,2.221,6.391,6.84,8.971,10.74c3.96,2.91,6,9.24,11.689,8.91c2.681-2.88,7.48-5.311,6.771-9.869  c0.609-4.07,0.54-8.271,1.84-12.211c0.99-2.18-1.13-3.949-2.23-5.59c1.46-5.439-1.52-10.21-3.229-15.13  c-7.82-1.21-15.141-4.5-22.12-8.17c-3.07-0.66-6.73,0.64-9.33-1.55C339.84,203.5,332.4,204.82,326.31,205.55 M244.91,221.79  c-0.76-2.38-3.41-3.21-5.13-4.74C237.47,220.18,242.54,221.7,244.91,221.79 M175.34,223.26c-4.09,3.29-5.23,8.66-7.42,13.17  c2.26,1.721,5.22,1.061,7.86,1.45c-0.12,0.45-0.35,1.351-0.46,1.8c4.6-1.859,6.49,3.67,8.7,6.541c2.73-5.66,4.37-12.041,4.36-18.341  C186.79,223.01,179.63,219.471,175.34,223.26 M248.69,231.721c1.42,0.189,2.01-1.291,2.88-2.111c-0.16-1.84-0.521-3.659-1.25-5.359  C247.08,225.33,246.79,229.27,248.69,231.721 M237.12,237.689c3.36-0.149,8.75-2.739,8.56-6.42  C242.46,232.689,238.51,234.17,237.12,237.689 M244.44,241.49c0.91-0.09,1.83-0.17,2.74-0.26c0.02-1.19,0.03-2.371,0.04-3.551  C244.45,236.5,244.17,239.45,244.44,241.49 M256.87,239.49c-1.38,2.199-2.69,4.439-3.82,6.789c-1.11,0.461-2.229,0.931-3.33,1.41  c-0.57,1.09-1.13,2.19-1.69,3.301c-3.86,1.67-6.81,5.609-5.54,9.97c-6.41,2.61-3.34,12.521,2.95,12.54  c0.66-0.63,1.31-1.25,1.98-1.87c-0.73-3.44,2.88-5.03,3.6-8.03c0.551-1.92,0.431-3.949,0.561-5.92c1.6-0.459,3.18-0.959,4.76-1.47  c0.42-2.05,0.57-4.33-0.89-6.021c1.149,0.881,2.329,1.701,3.53,2.521C264.891,250.98,264.07,237.82,256.87,239.49 M254.42,276.859  c1.38,2.271,1.051,6.92,4.6,6.75c5.49-0.139,4.57-10.949-1.1-10.049C256.01,273.471,255.2,275.48,254.42,276.859 M247.78,293.38  c-3.14,2.601-2.26,11.351,3.38,9.19C254.29,299.93,253.38,291.38,247.78,293.38 M254.45,300.77c0,0.871,0,2.61,0,3.48  c1.01,1.76,2.95,2.91,4.96,2.02c2.48-1.81,2.46-5.75,0.08-7.629C257.42,297.811,255.4,298.85,254.45,300.77 M149.41,310.82  c-0.33,4.33,2.97,7.88,2.28,12.33c3.52-5.881,8.34-12.09,7.55-19.45C157.43,307.98,153.02,308.75,149.41,310.82 M419.45,332.12  c1.77,3.239,3.62,6.43,5.46,9.63c1.939-0.55,3.13-2.32,4.17-3.92c1.76-7.18,1.85-15.27,6.67-21.311c2.13-2.859,1.8-6.58,1.7-9.92  C431.96,315.6,420.88,320.811,419.45,332.12z"/>
<path d="M249.73,83.12c4.57-2.82,9.959-2.92,15.15-2.66c-0.79,2.76-5.25,0.19-6.26,3.12C255.68,83.49,252.48,84.49,249.73,83.12z"/>
<path d="M206.92,85.9c1.59-5.08,7.32-3.16,11.04-4.65c1.92,0.86,3.87,1.65,5.86,2.34c-0.05,0.5-0.15,1.5-0.2,2  C217.96,85.69,212.02,81.26,206.92,85.9z"/>
<path d="M247.47,92.97c1.37-1.23,4.11-3.7,5.48-4.93c-0.65,1.29-1.97,3.87-2.63,5.16c2.13-0.81,4.37-1.26,6.651-1.02  c5.229,0.58,10.539-2.58,15.59-0.04c4.979,0.88,9.479,4.59,10.379,9.7c-1.699-1.03-3.42-2.07-5.359-2.57  c-0.359-0.43-1.08-1.28-1.439-1.71c-3.101-0.19-6.17,0.2-9.201,0.85c-3.949-0.42-7.899-2.43-11.89-1.88  c-2.7,1.74-5.73,2.49-8.93,2.26c2.37-0.14,2.79-3,4.24-4.41C249.64,94.03,248.19,93.32,247.47,92.97z"/>
<path d="M245.73,117.47c4.26-7.91,16.1-9.77,22.52-3.53c1.13,0.85,2.359,1.56,3.561,2.31c-0.91,1-2.141,1.51-3.49,1.51  c-3.85,3.23-9,0.51-13.471,0.87c-2.09-0.99-6.08-1.03-5.07-4.44C248.7,115.64,247.35,116.73,245.73,117.47 M259.407,117.282  c2.771,0.03,5.872,1.138,8.393-0.502c0.88-1.85-1.925-2.924-2.925-3.874c-1.125-0.578-4.332-1.951-3.859-1.484  C262.344,112.734,260.944,116.649,259.407,117.282z"/>
<path d="M211.96,111.75c5.2-0.91,12.61-0.89,14.96,4.91c-2.93,0.95-4.99-1.34-6.67-3.36c-1.38,0.04-2.74,0.08-4.11,0.12  c1.57,2.67,1.66,5.77-1.34,7.64c2.08-0.31,4.02-1.16,5.95-1.97c-0.05,0.6-0.13,1.8-0.18,2.4c-3.02,0.53-6.09,0.79-9.16,0.63  c0.12-0.69-1.03,0.236-0.91-0.454c-0.7-1.03-3.208-2.306-3.208-2.306l-0.917-1.652c-0.36-0.01-0.415-0.648-0.775-0.648  C205.43,113.67,209.44,112.64,211.96,111.75z"/>
<path fill="#FFFFFF" d="M264.66,113.56c1,0.95,4.02,1.37,3.14,3.22"/>
<path d="M272.939,119.35c0.36-1.34,2.521-2.07,2.291-3.96c0.439,1.35,0.529,2.71,0.289,4.07  C274.87,119.43,273.58,119.37,272.939,119.35z"/>
<path d="M268.08,120.13c1.49-0.56,3.24-0.97,4.859-0.78C272.92,121.65,269.109,121.43,268.08,120.13z"/>
<path d="M220.26,130.94c1.77-1.93,2.98-4.3,4.83-6.16C223.84,127.05,222.83,129.86,220.26,130.94z"/>
<path d="M246.95,129.28c3.7,2.78,5.84,7.64,5.44,12.22c-1.781,2.2-5.341,1-7.841,1.07c-0.77-0.73-1.55-1.44-2.32-2.16  c-1.91,0.84-3.99,1-6.05,1.06c-2.42,3.7-6.05,1.39-8.08-1.28c-2.45,1.5-5.23,0.44-7.82,0.1c-0.16,1.45,0.26,2.64,1.23,3.56  c-1.02-0.12-2.04-0.24-3.06-0.35c-0.46-1.03-0.93-2.05-1.16-3.15c0.56,0.26,1.69,0.78,2.25,1.05c-0.25-3.75,3.18-2.95,5.56-2.84  c2.93,0.02,4.71,2.67,6.86,4.24c2.7,0.74,3.69-2.18,4.98-3.86c5.5-1.79,9.15,6.67,14.64,2.57  C252.71,136.94,249.57,132.75,246.95,129.28z"/>
<path d="M305.7,130.2c1.479,3.12,4.51,6.45,4.27,9.89C308.53,136.84,304.35,134.26,305.7,130.2z"/>
<path d="M301.41,136.54c4.17-0.94,4.89,4.12,6.8,6.66c-1.09,0.95-2.17,1.9-3.239,2.86c0.059,1.84-0.711,2.77-2.311,2.81  C302.561,144.72,304.66,140.05,301.41,136.54z"/>
<path d="M208.58,158.66c5.01-4.23,8.88-10.44,15.41-12.4c3.46-1.08,5.36,2.23,7.2,4.48c0.55-0.02,1.66-0.04,2.22-0.06  c1.74-3.07,5.6-5.55,9.15-4.03c6.73,5.15,16.44,3.7,22.54,10.06c3.67,4.29-1.029,9.17-1.92,13.6c-4.52,1.64-4.97-4.5-8.07-6.31  c-3.109,1.66-5.479,4.43-7.209,7.45c-0.48-0.45-0.95-0.9-1.42-1.35c1.42-1.4,2.76-2.87,4.07-4.38c-3.1-0.55-6.32-1.17-8.6-3.51  c-2.48,0.53-4.92,1.23-7.23,2.29c-2.92,1.36-4.83-2.91-7.81-1.67c-3.08,1.33-6.13,2.81-9.5,3.25c1.85,2.24,3.86,4.41,6.24,6.1  c7.24,1.77,15.33,1.74,22.12-1.57c0.28,0.41,0.84,1.23,1.12,1.64c-0.8,3.01-4.29,3.36-6.89,3.63c-4.42,0.48-8.57,2.14-12.83,3.27  c-2.53-0.38-3.87-3.04-4.72-5.23c-1.6-2.23-4.02-3.7-6.31-5.15c-0.98,1.23-1.89,4.04-3.91,2.47  C209.84,167.58,207.28,163.15,208.58,158.66 M219.9,164.26c3.03-0.94,5.76-3.3,9.11-2.81c1.95-0.21,3.05,2.22,4.97,1.92  c2.47-1.64,5.43-2.2,8.32-2.54c3.15,2.95,7.47,3.5,11.62,2.92c-2.279-4.41-8.16-6.68-13.02-7.78c-1.02,0.28-2.04,0.55-3.07,0.82  c-0.67-1.05-1.33-2.1-1.98-3.15c-1.37-0.01-2.74,0.01-4.11,0.04C228.06,157.38,220.56,157.71,219.9,164.26z"/>
<path fill="#FFFFFF" d="M219.9,164.26c0.66-6.55,8.16-6.88,11.84-10.58c1.37-0.03,2.74-0.05,4.11-0.04c0.65,1.05,1.31,2.1,1.98,3.15  c1.03-0.27,2.05-0.54,3.07-0.82c4.86,1.1,10.741,3.37,13.02,7.78c-4.15,0.58-8.47,0.03-11.62-2.92c-2.89,0.34-5.85,0.9-8.32,2.54  c-1.92,0.3-3.02-2.13-4.97-1.92C225.66,160.96,222.93,163.32,219.9,164.26z"/>
<path fill="#FFFFFF" d="M127.51,156.36c4.04-0.44,8.97,0.54,10.9,4.55c0.23,5.26,0.06,10.59-0.76,15.8  c-3.13,0.68-4.33-3.65-7.3-3.41c1.31,2.83,4.9,3.66,5.96,6.6c0.72,7.04-3.07,14.7,0.79,21.25c1.15,2.89-0.51,5.949-1.7,8.57  c-2.54-1.211-5.32-1.011-8.03-0.82c0.02,0.379,0.05,1.14,0.07,1.529c3.45-0.609,6.65,0.4,9.89,1.37c2.11-5.35,2.12-11.34,4.93-16.43  c1.72-2.89,0.24-6.42,1.61-9.41c2.18-4.86,1.63-10.61,4.94-15.04c6.97,2.58,7.28,10.34,6.5,16.61c-1.66,0.34-4.26-1-5.26,0.88  c2.28,0.16,4.97,0.79,4.92,3.609c0.05,3.23,1.31,7.49-0.88,10.061c-1.34-1.32-2.63-3.27-4.81-2.641c0.96,0.9,1.95,1.761,2.96,2.631  c1.66,4.74,1.89,9.84,0.99,14.77c-2.31-1.58-4.9-4.64-7.91-2.85c2.87,0.93,6.24,2.59,6.66,5.96c0.72,9.19-0.01,19.53,6.02,27.21  c1.34,2.119,3.25,3.98,5.94,3.89c4.47-3.54,0.43-10.17,3.96-13.53c5.2,3.08,12.25,3.57,14.97,9.83c-1.01,0.59-2.01,1.18-3.03,1.75  c0.52,0.351,1.55,1.051,2.07,1.391c-3.39,5.64-1.14,12.47-3.8,18.34c-4.42,8.83-9.72,17.66-18.03,23.38  c-2.11,1.319-3.33,3.58-4.57,5.649c2.29,2.031,2.82,5.94,0.4,8.08c-1.87,2.291-5.22,1.601-7.59,0.601  c-9.76-2.63-20.21-3.45-29.22-8.399c-2.91-1.341-4.26-4.44-6.71-6.341c-3.05-2.45-6.41-4.829-8.1-8.5  c5.36-2.44,4.61-8.85,1.87-12.979c-1.18-6.91,0.39-14.2-2.79-20.791c-3.05-5.129-0.96-11.18-2.94-16.559  c-0.29-1.701-0.23-3.421-0.26-5.141c-1.09-0.061-2.18-0.13-3.27-0.18c-3.36-3.98-8.27-7.041-9.65-12.351  c-1.45-5.319-2.19-10.93-4.99-15.79c-2.9-5.23-2.94-11.99,0.61-16.91c0.57-0.15,1.7-0.46,2.26-0.62c2.43,2.61,4.84,5.26,6.93,8.15  c0.78,3.38,0.03,7.431-2.54,9.95c4.14,0.449,7.09,4.71,3.74,8.18c7.16-1.82,10.05,7.54,15.69,10.33c-0.1-0.49-0.31-1.47-0.41-1.96  c-1.81-1.78-3.63-3.58-5.06-5.68c-0.52-6.96,0.05-13.97-0.09-20.95c0.15-7.33-0.59-14.78,1.2-21.98c0.69-2.15,2.94-3.16,4.57-4.51  c2.11,2.86,4.57,5.48,6.46,8.49c0.81,3.7,0.23,7.6-1.27,11.04c-1.46-0.68-2.85-1.48-4.17-2.4c-0.24,0.34-0.47,0.69-0.7,1.04  c1.92,1.7,4.33,2.65,6.46,4.05c-0.06,3.64-0.1,7.28-0.4,10.911c-1.1,0.34-2.19,0.689-3.28,1.039c0.9,0.37,1.81,0.74,2.72,1.1  c2.7,3.341,4.78,7.191,4.99,11.58c0.41,0.101,1.24,0.301,1.66,0.41c-0.33-5.899-2.19-11.81-0.89-17.72c1.48-3.06,2.44-6.3,2.95-9.65  c1.68-3.92,0.2-8.89,3.72-12.03C127.54,166.37,127.3,161.36,127.51,156.36 M133.96,228.971c-2.05,3.17-6.46,0.559-9.15,2.939  c-3.58-1.48-7.64-5.32-11.56-2.58c4.41,0.26,9.03,1.949,11.95,5.359c1.47,4.24,3.5,8.25,6.52,11.61c0.47,0.021,1.41,0.05,1.89,0.07  c-3.49-4.04-6.59-8.67-7.35-14.07c2.71-0.42,6.33,0.88,8.2-1.79c2.15-2.949,5.6-5.619,5.44-9.59  C137.85,223.55,136.17,226.46,133.96,228.971 M136.44,237.75c-0.02,0.41-0.04,1.24-0.06,1.65c0.51-0.021,1.52-0.051,2.02-0.07  c0-0.391-0.02-1.16-0.02-1.551C137.89,237.77,136.92,237.76,136.44,237.75 M142.68,243.21c-0.45,3.5-1.17,7-0.88,10.55  c3.05-2.33,0.93-6.99,2.27-10.3C143.72,243.4,143.03,243.279,142.68,243.21 M149.72,280.359c0.46,4.451,2.24,9.391,6.33,11.66  c-2.22-3.689-5.62-7-5.02-11.689C150.7,280.33,150.05,280.35,149.72,280.359 M130.29,288.51c-2.68,1.311-6.09,0.141-8.43,2.2  c7.41-0.17,15.84-2.8,19.89-9.39C138.05,283.9,134.74,287.221,130.29,288.51z"/>
<path d="M281.439,180.29c1.74-2.46,3.211-5.1,4.931-7.57C285.34,175.56,283.96,178.48,281.439,180.29z"/>
<path fill="#FFFFFF" d="M391.54,179.95c2.06-3.35,5.46-6.13,9.62-5.57c1.41,2.28,2.97,4.51,4,7.02  c0.8,3.98-0.271,8.129,0.609,12.081c3.24,4.899,5.521,10.569,5.57,16.52c-0.31,5.68,2.62,10.88,2.3,16.59  c0.78,0.6,1.57,1.21,2.37,1.811c1.2-1.19,2.4-2.391,3.62-3.58c-2.12-3.041-1.36-6.801-1.43-10.26c4.42,0.119,8.99-1.83,13.22,0.239  c-0.11,3.14-0.51,6.261-1.1,9.36c-0.391-0.141-1.16-0.42-1.551-0.561c-0.149-0.07-0.449-0.22-0.6-0.3  c-0.96-1.13-2.04-1.319-3.24-0.569c0.7,0.99,1.78,1.18,3.24,0.569c0.15,0.08,0.45,0.229,0.6,0.3l0.08,0.521  c1.091,2.14,1.801,4.44,1.94,6.851c-2.7-1.701-5.53-3.201-8.63-3.99c0.18,0.5,0.54,1.51,0.71,2.01c3.2,1.47,5.96,3.689,9.02,5.38  c3.94-0.71,7.561-2.649,11.15-4.341c2.29-6.619,3.85-13.329,5.18-20.18c0.12-0.109,0.38-0.32,0.511-0.43  c2.199-0.359,4.399-0.76,6.619-1.09c-0.069,4.25-0.029,8.5,0.12,12.74c0.34,5.17-2.06,9.93-3.109,14.88  c-1.181,3.829-5.82,4.36-8.15,7.13c-7.68,7.87-1.59,20.51-7.82,29.141c-2.5,4.119-3.84,8.799-5.52,13.279  c-1.73,5.279,0.93,10.41,1.89,15.52c0.61,1.99-1.38,3.15-2.45,4.451c-2.229,2.069-3.069,5.079-4.3,7.76  c-6.72,2.92-14.16,5.59-21.569,3.83c-5.41-1.391-11.53,0.239-16.521-2.781c-2.82-1.739-1.84-5.779-4.18-7.899  c-4.78-5.67-13.44-6.25-17.42-12.78c-1.931-3.289-4.33-6.24-7.17-8.779c-3.341-2.91-3.261-7.801-6.051-11.061  c-4.56-5.92-7.76-12.74-12.319-18.66c-3.21-3.82-3.05-9.51-1.511-13.899c3.99-2.171,9.021,0.05,13.07,1.38  c5.271,1.73,5.91,7.98,9.82,11.24c3.04,3.029,5.689,7.979,10.58,7.8c3.8-2.021,6.27-5.91,9.29-8.92c4.14-0.39,8.239-1.33,12.42-1.25  c1.76,5.68,0.83,11.739,1.06,17.6c0.271,4.69-2.06,8.91-4.979,12.4c0.01,0.38,0.04,1.149,0.05,1.54c8.38-8.11,5.7-20.391,5.52-30.79  c5.011-0.511,7.42,4.5,11.44,6.45c-1.79-2.561-4.22-4.601-6.7-6.45c-6.49-3.07-13.51-0.521-20.3-0.63c0.58-3.73,0.87-7.5,1.35-11.25  c2.62-2.541,5.98-4.26,8.83-6.57c-0.399-0.12-1.21-0.359-1.62-0.48c-1.96,1.23-3.939,2.4-5.97,3.51  c-0.82-1.299-1.64-2.59-2.47-3.869c0.16-3.311-0.36-6.6-0.43-9.91c1.18-2.529,4.029-2.92,6.43-3.58c0.45-0.6,0.91-1.199,1.37-1.79  c-3.13,0.58-5.931,2.29-8.91,3.13c-2.34-2.18-1.63-6.06-3.67-8.51c1.75-0.85,3.43-1.82,5.1-2.82c-1.3-0.01-2.6,0.021-3.899,0.01  c-0.82,0.431-1.65,0.851-2.48,1.261c-2.43-5.56,0.021-11.261-0.82-17.04c2.801-1.18,8.03-3.21,9.381,0.82  c1.42,5.39,5.489,9.83,5.8,15.539c0.56,8.33,12.279,12.621,9.95,21.53c-1.44,0.12-2.881,0.24-4.311,0.36  c0.08,0.4,0.23,1.21,0.311,1.619c2.239-0.559,4.38-1.459,6.13-3c-0.69-3.279-2.24-6.299-3.011-9.539  c-0.93-4.391,1.48-9.94-3.279-12.74c2.21,0.01,4.439,0.09,6.64,0.34c1.01,1.27,2.05,2.52,3.19,3.689  c-0.521-4.85-5.601-5.469-9.511-5c0.15-5-2.02-9.699-1.63-14.719c2.42,0.689,5.28,1.359,7.04-0.99c-2.17-0.18-4.34-0.271-6.5-0.32  C393.03,187.45,392,183.74,391.54,179.95 M402.17,224.37c1.16,0.55,3.48,1.67,4.65,2.229c-1.04,1.73-2.49,3.121-4.2,4.18  c0.14,0.111,0.399,0.341,0.53,0.451c2.54-0.73,3.899-2.871,4.869-5.17C406.61,224.471,404.25,222.34,402.17,224.37 M397.24,238.17  c3.83,5.53,9.319,11.471,16.779,10.37c4.58-1.979,10.271-3.729,14.82-0.71c-0.16-0.51-0.479-1.53-0.64-2.04  c-3.97-0.81-8.181-0.75-11.94,0.899c-4.74,2.23-10.29,0.061-13.7-3.5C400.89,241.42,399.87,238.66,397.24,238.17 M415.45,257.73  c2.05-2.471,3.96-5.051,6.149-7.4C418.39,251.37,416.27,254.58,415.45,257.73 M347.65,259.79c1.659-2.41,3.39-4.78,5.34-6.979  C350.01,253.82,347.97,256.71,347.65,259.79 M419.94,298.91c-2.091,2.029-5.881,2.66-6.57,5.811  c4.85-2.781,10.399-5.391,13.399-10.33C423.92,294.63,422.31,297.58,419.94,298.91z"/>
<path d="M257.16,192.26c5.529-3.51,8.93-9.21,12.9-14.23c-5.25,9.89-14.291,18.15-25.081,21.5c-5.99,1.861-12.34,0.371-18.12-1.5  c-6.67-3.68-12.02-9.949-14.77-17.049c4.59,7.78,10.53,16.78,20.3,17.991C241.1,201.311,250.63,198.24,257.16,192.26z"/>
<path fill="#FFFFFF" d="M415.52,188.83c2.641-2.07,5.66-5.19,9.341-4c3.79,3.44,2.46,8.83,2.62,13.35  c-0.931,1.09-2.79,1.86-2.28,3.67l2.41-0.49c0.1-0.629,0.279-1.909,0.37-2.549c1.119,4.979,3.329,9.709,3.729,14.89  c-4.33-1.32-8.79-1.08-13.13,0.04c-2.68-4.391-2.61-9.62-3.01-14.57l2.68,0.9c-0.65-0.75-1.96-2.25-2.61-3  C415.43,194.33,415.39,191.58,415.52,188.83z"/>
<path fill="#FFFFFF" d="M295.09,186.64c0.71-0.14,2.12-0.43,2.83-0.57c-0.32,4.071-2.75,7.72-2.359,11.911  c0.289,4.93-1.201,9.629-2.601,14.279c-0.08,4.68-1.94,9.26-4.489,13.12c-9.191,9.431-15.111,21.31-22.871,31.78  c-2.629-11.51-2.129-23.84-7.379-34.66c-1.421-2.55-2.851-5.1-4-7.79C269.859,209.13,285.529,200.641,295.09,186.64z"/>
<path fill="#FFFFFF" d="M155.39,207.689c8.34-6.02,18.59-7.83,28.7-6.979c-1.75,2.63-5.02,4.94-4.56,8.47  c2.53,0.57,5.08,1.24,7.25,2.74c0.28,3.65-2.74,5.92-4.76,8.5c-6.9-1.529-11.52,5.13-13.4,10.811c-0.97,3.699-4.35,6.67-3.84,10.72  c-0.03,2.56,0.78,7.31-2.91,7.45c-3.74-3.61-6.86-8.43-6.84-13.791c-1.52-6.68-2.74-13.979-0.16-20.549  C155.56,212.67,155.23,210.15,155.39,207.689z"/>
<path fill="#FFFFFF" d="M326.31,205.55c6.091-0.729,13.53-2.05,18.44,2.521c2.6,2.189,6.26,0.89,9.33,1.55  c6.979,3.67,14.3,6.96,22.12,8.17c1.71,4.92,4.689,9.69,3.229,15.13c1.101,1.641,3.221,3.41,2.23,5.59  c-1.3,3.94-1.23,8.141-1.84,12.211c0.71,4.559-4.09,6.989-6.771,9.869c-5.689,0.33-7.729-6-11.689-8.91  c-2.58-3.9-4.53-8.52-8.971-10.74c-4.22-0.299-8.18-2.219-12.479-1.56c0.75-2.28,3-4.351,2.54-6.87  c-2.061-2.13-5.021-2.98-7.561-4.359c2.561-2.631,5.15-5.23,7.86-7.711c-0.39-1.219-0.72-2.569-1.88-3.299  C336.01,213.279,331.12,209.471,326.31,205.55z"/>
<path d="M448.22,209.85c0.12-0.109,0.38-0.32,0.511-0.43C448.6,209.529,448.34,209.74,448.22,209.85z"/>
<path fill="#FFFFFF" d="M244.91,221.79c-2.37-0.09-7.44-1.61-5.13-4.74C241.5,218.58,244.15,219.41,244.91,221.79z"/>
<path d="M133.96,228.971c2.21-2.511,3.89-5.421,5.94-8.051c0.16,3.971-3.29,6.641-5.44,9.59c-1.87,2.67-5.49,1.37-8.2,1.79  c0.76,5.4,3.86,10.03,7.35,14.07c-0.48-0.021-1.42-0.05-1.89-0.07c-3.02-3.36-5.05-7.37-6.52-11.61c-2.92-3.41-7.54-5.1-11.95-5.359  c3.92-2.74,7.98,1.1,11.56,2.58C127.5,229.529,131.91,232.141,133.96,228.971z"/>
<path fill="#FFFFFF" d="M175.34,223.26c4.29-3.789,11.45-0.25,13.04,4.62c0.01,6.3-1.63,12.681-4.36,18.341  c-2.21-2.871-4.1-8.4-8.7-6.541c0.11-0.449,0.34-1.35,0.46-1.8c-2.64-0.39-5.6,0.271-7.86-1.45  C170.11,231.92,171.25,226.55,175.34,223.26z"/>
<path d="M424.93,222.73c1.2-0.75,2.28-0.561,3.24,0.569C426.71,223.91,425.63,223.721,424.93,222.73z"/>
<path d="M402.17,224.37c2.08-2.03,4.44,0.101,5.85,1.69c-0.97,2.299-2.329,4.439-4.869,5.17c-0.131-0.11-0.391-0.34-0.53-0.451  c1.71-1.059,3.16-2.449,4.2-4.18C405.65,226.04,403.33,224.92,402.17,224.37z"/>
<path d="M428.17,223.3c0.15,0.08,0.45,0.229,0.6,0.3C428.62,223.529,428.32,223.38,428.17,223.3z"/>
<path fill="#FFFFFF" d="M248.69,231.721c-1.9-2.451-1.61-6.391,1.63-7.471c0.73,1.7,1.09,3.52,1.25,5.359  C250.7,230.43,250.11,231.91,248.69,231.721z"/>
<path d="M295.23,230.141c-0.051-1.94,0.899-3.631,1.85-5.25C298.55,226.68,296.73,229.029,295.23,230.141z"/>
<path fill="#FFFFFF" d="M237.12,237.689c1.39-3.52,5.34-5,8.56-6.42C245.87,234.95,240.48,237.54,237.12,237.689z"/>
<path d="M136.44,237.75c0.48,0.01,1.45,0.02,1.94,0.029c0,0.391,0.02,1.16,0.02,1.551c-0.5,0.02-1.51,0.05-2.02,0.07  C136.4,238.99,136.42,238.16,136.44,237.75z"/>
<path fill="#FFFFFF" d="M244.44,241.49c-0.27-2.04,0.01-4.99,2.78-3.811c-0.01,1.18-0.02,2.36-0.04,3.551  C246.27,241.32,245.35,241.4,244.44,241.49z"/>
<path d="M397.24,238.17c2.63,0.49,3.649,3.25,5.319,5.02c3.41,3.561,8.96,5.73,13.7,3.5c3.76-1.649,7.971-1.709,11.94-0.899  c0.16,0.51,0.479,1.53,0.64,2.04c-4.55-3.02-10.24-1.27-14.82,0.71C406.56,249.641,401.07,243.7,397.24,238.17z"/>
<path fill="#FFFFFF" d="M256.87,239.49c7.2-1.67,8.021,11.49,2.11,13.22c-1.201-0.819-2.381-1.64-3.53-2.521  c1.46,1.69,1.31,3.971,0.89,6.021c-1.58,0.511-3.16,1.011-4.76,1.47c-0.13,1.971-0.01,4-0.561,5.92c-0.72,3-4.33,4.59-3.6,8.03  c-0.67,0.62-1.32,1.24-1.98,1.87c-6.29-0.02-9.36-9.93-2.95-12.54c-1.27-4.36,1.68-8.3,5.54-9.97c0.56-1.11,1.12-2.211,1.69-3.301  c1.1-0.479,2.219-0.949,3.33-1.41C254.18,243.93,255.49,241.689,256.87,239.49z"/>
<path d="M142.68,243.21c0.35,0.069,1.04,0.19,1.39,0.25c-1.34,3.31,0.78,7.97-2.27,10.3C141.51,250.21,142.23,246.71,142.68,243.21z  "/>
<path d="M415.45,257.73c0.819-3.15,2.939-6.36,6.149-7.4C419.41,252.68,417.5,255.26,415.45,257.73z"/>
<path d="M347.65,259.79c0.319-3.08,2.359-5.97,5.34-6.979C351.04,255.01,349.31,257.38,347.65,259.79z"/>
<path d="M185.57,275.811c-0.51-1.48,0.72-2.5,1.35-3.631c0.04,6.291,0.66,12.57,1.68,18.78c2.93,11.681,4,23.81,3.58,35.851  c-3.35-5.211-0.28-12.011-2.04-17.781C189.52,297.83,185.49,287.12,185.57,275.811z"/>
<path fill="#FFFFFF" d="M254.42,276.859c0.78-1.379,1.59-3.389,3.5-3.299c5.67-0.9,6.59,9.91,1.1,10.049  C255.471,283.779,255.8,279.13,254.42,276.859z"/>
<path d="M149.72,280.359c0.33-0.01,0.98-0.029,1.31-0.029c-0.6,4.689,2.8,8,5.02,11.689  C151.96,289.75,150.18,284.811,149.72,280.359z"/>
<path d="M130.29,288.51c4.45-1.289,7.76-4.609,11.46-7.189c-4.05,6.59-12.48,9.22-19.89,9.39  C124.2,288.65,127.61,289.82,130.29,288.51z"/>
<path fill="#FFFFFF" d="M247.78,293.38c5.6-2,6.51,6.55,3.38,9.19C245.52,304.73,244.64,295.98,247.78,293.38z"/>
<path d="M419.94,298.91c2.369-1.33,3.979-4.28,6.829-4.52c-3,4.939-8.55,7.549-13.399,10.33  C414.06,301.57,417.85,300.939,419.94,298.91z"/>
<path fill="#FFFFFF" d="M254.45,300.77c0.95-1.92,2.97-2.959,5.04-2.129c2.38,1.879,2.4,5.819-0.08,7.629  c-2.01,0.891-3.95-0.26-4.96-2.02C254.45,303.38,254.45,301.641,254.45,300.77z"/>
<path d="M215.31,298.25c0.46,0.24,1.38,0.7,1.84,0.939c-1.41,7.5-0.58,15.24-0.82,22.851c-0.74,6.29-1.69,12.569-1.63,18.931  c-0.28-0.15-0.82-0.431-1.09-0.58c-0.87-7.851,1.78-15.541,1.17-23.4C213.93,310.71,215.89,304.55,215.31,298.25z"/>
<path fill="#FFFFFF" d="M149.41,310.82c3.61-2.07,8.02-2.84,9.83-7.12c0.79,7.36-4.03,13.569-7.55,19.45  C152.38,318.7,149.08,315.15,149.41,310.82z"/>
<path fill="#FFFFFF" d="M419.45,332.12c1.43-11.31,12.51-16.521,18-25.521c0.1,3.34,0.43,7.061-1.7,9.92  c-4.82,6.041-4.91,14.131-6.67,21.311c-1.04,1.6-2.23,3.37-4.17,3.92C423.07,338.55,421.22,335.359,419.45,332.12z"/>
<path d="M133.02,320.939c1.69,0.36,3.41,0.511,5.13,0.701c-1.19,1.26-3.12,0.59-4.65,0.789  C133.38,322.061,133.14,321.311,133.02,320.939z"/>
<path d="M137.03,332c-2.16-2.88,0.91-8.391,4.59-5.82c-0.01,2.03-0.12,4.07-0.43,6.09C139.81,332.21,138.34,332.5,137.03,332   M139.06,327.13c-1.21,0.181-2.04,2.63-0.35,2.69C139.88,329.7,140.44,327.25,139.06,327.13z"/>
<path fill="#FFFFFF" d="M139.06,327.13c1.38,0.12,0.82,2.57-0.35,2.69C137.02,329.76,137.85,327.311,139.06,327.13z"/>
</svg>