<?xml version="1.0" encoding="UTF-8" ?>
<!DOCTYPE svg PUBLIC "-//W3C//DTD SVG 1.1//EN" "http://www.w3.org/Graphics/SVG/1.1/DTD/svg11.dtd">
<svg width="911pt" height="910pt" viewBox="0 0 911 910" version="1.1" xmlns="http://www.w3.org/2000/svg">
<path fill="#ffffff" opacity="1.00" d=" M 0.00 0.00 L 911.00 0.00 L 911.00 910.00 L 827.08 910.00 C 832.78 889.00 840.82 868.71 850.08 849.04 C 865.48 816.20 883.09 784.11 893.14 749.08 C 898.89 729.52 902.26 709.29 903.38 688.95 C 903.54 684.64 906.37 680.51 904.98 676.18 C 902.90 671.69 897.27 672.00 893.23 670.73 C 890.45 670.22 887.54 668.19 887.81 665.05 C 888.45 657.03 887.34 649.03 887.25 641.02 C 886.12 608.35 887.38 575.67 888.00 543.00 C 888.43 507.32 889.16 471.44 884.33 435.99 C 881.80 417.68 877.81 399.43 870.65 382.33 C 869.03 378.37 867.05 374.56 865.49 370.57 C 862.52 363.19 860.51 355.38 856.51 348.44 C 843.63 325.43 822.29 308.52 809.71 285.31 C 800.28 267.73 796.21 248.00 792.13 228.66 C 788.81 213.05 784.91 197.22 776.59 183.42 C 755.83 149.52 731.33 117.90 703.59 89.43 C 683.78 69.33 662.29 50.77 638.63 35.33 C 639.84 33.67 641.19 31.85 643.37 31.48 C 648.61 30.28 654.03 30.86 659.36 30.71 C 658.24 25.79 655.75 19.71 649.90 19.35 C 638.88 18.81 629.17 27.24 618.01 25.20 C 607.61 22.79 599.85 14.57 589.76 11.37 C 579.11 8.27 567.94 10.92 557.24 12.44 C 543.97 14.87 530.48 15.93 517.00 15.74 C 468.60 16.34 420.32 9.12 371.92 12.32 C 358.66 13.38 345.14 14.65 332.69 19.68 C 313.96 27.08 297.52 38.91 280.60 49.60 C 271.31 55.43 261.79 61.22 251.24 64.43 C 243.76 66.77 235.58 66.38 228.24 63.74 C 217.51 60.06 208.77 52.59 199.22 46.75 C 194.02 43.65 188.23 40.83 182.03 41.22 C 177.75 41.34 173.92 43.41 170.28 45.44 C 169.71 51.85 171.22 59.24 177.04 62.90 C 186.99 69.19 199.32 68.24 210.34 71.18 C 207.86 74.15 204.46 76.10 201.37 78.37 C 181.68 91.99 160.92 104.13 142.37 119.33 C 130.99 128.62 120.15 139.09 113.12 152.16 C 102.25 172.35 93.66 193.79 80.91 212.94 C 69.06 231.72 57.12 250.55 47.70 270.70 C 34.15 299.35 26.00 330.17 19.25 361.02 C 15.64 378.11 12.37 395.51 13.10 413.05 C 13.66 425.63 17.12 438.69 25.88 448.12 C 36.76 460.03 52.91 465.25 68.40 467.71 C 67.11 515.28 67.26 563.02 72.74 610.35 C 77.26 649.50 85.12 688.55 99.67 725.30 C 108.19 746.79 119.11 767.43 133.09 785.89 C 133.99 787.09 134.92 788.41 134.73 790.02 C 134.75 804.99 136.36 819.95 139.66 834.56 C 145.34 860.61 156.35 885.00 165.30 910.00 L 0.00 910.00 L 0.00 0.00 Z" />
<path fill="#000000" opacity="1.00" d=" M 557.24 12.44 C 567.94 10.92 579.11 8.27 589.76 11.37 C 599.85 14.57 607.61 22.79 618.01 25.20 C 629.17 27.24 638.88 18.81 649.90 19.35 C 655.75 19.71 658.24 25.79 659.36 30.71 C 654.03 30.86 648.61 30.28 643.37 31.48 C 641.19 31.85 639.84 33.67 638.63 35.33 C 662.29 50.77 683.78 69.33 703.59 89.43 C 731.33 117.90 755.83 149.52 776.59 183.42 C 784.91 197.22 788.81 213.05 792.13 228.66 C 796.21 248.00 800.28 267.73 809.71 285.31 C 822.29 308.52 843.63 325.43 856.51 348.44 C 860.51 355.38 862.52 363.19 865.49 370.57 C 867.05 374.56 869.03 378.37 870.65 382.33 C 877.81 399.43 881.80 417.68 884.33 435.99 C 889.16 471.44 888.43 507.32 888.00 543.00 C 887.38 575.67 886.12 608.35 887.25 641.02 C 887.34 649.03 888.45 657.03 887.81 665.05 C 887.54 668.19 890.45 670.22 893.23 670.73 C 897.27 672.00 902.90 671.69 904.98 676.18 C 906.37 680.51 903.54 684.64 903.38 688.95 C 902.26 709.29 898.89 729.52 893.14 749.08 C 883.09 784.11 865.48 816.20 850.08 849.04 C 840.82 868.71 832.78 889.00 827.08 910.00 L 811.87 910.00 C 828.62 869.10 838.66 825.84 854.78 784.71 C 860.76 769.62 867.37 754.70 875.89 740.84 C 876.93 739.07 878.23 737.24 878.02 735.07 C 876.56 679.04 876.09 622.93 871.87 567.01 C 868.87 528.42 864.00 489.83 854.57 452.24 C 849.73 432.56 843.26 413.34 836.80 394.16 C 830.86 377.03 825.17 359.81 819.32 342.65 C 806.48 306.03 785.92 272.92 766.24 239.71 C 749.70 211.67 734.83 182.29 726.32 150.72 C 723.57 139.30 714.30 131.37 708.19 121.81 C 705.09 117.25 704.72 111.68 704.67 106.35 C 694.02 91.47 679.73 79.60 664.83 69.17 C 657.97 64.60 651.17 59.89 643.92 55.95 C 640.78 57.69 638.11 60.15 635.16 62.18 C 603.42 85.05 567.94 102.09 531.85 116.84 C 479.40 138.20 425.21 154.88 372.43 175.36 C 335.95 189.59 299.89 205.57 266.97 226.94 C 262.24 230.15 257.11 232.96 253.34 237.36 C 239.40 252.06 226.31 268.33 208.27 278.25 C 205.20 279.47 204.88 283.05 203.78 285.73 C 190.05 324.13 167.28 358.44 152.21 396.26 C 149.11 403.06 147.57 410.56 144.25 417.20 C 131.54 428.88 115.85 437.35 99.24 441.99 C 102.17 463.61 100.12 485.45 97.23 506.95 C 94.39 529.77 90.70 552.97 94.26 575.92 C 97.72 592.69 110.94 605.42 114.80 622.07 C 117.05 632.38 112.73 642.70 113.95 653.05 C 114.67 659.07 116.68 664.82 118.64 670.53 C 125.33 688.94 134.68 706.26 141.27 724.71 C 144.09 732.81 146.66 741.35 145.44 750.02 C 145.03 756.64 142.57 763.81 145.91 770.05 C 152.53 783.67 163.99 793.93 173.78 805.21 C 181.04 813.55 187.95 822.95 190.01 834.06 C 190.58 836.26 190.26 839.09 192.44 840.50 C 205.80 851.66 222.72 856.92 238.66 863.23 C 252.28 868.60 266.39 874.51 276.56 885.45 C 281.56 890.80 285.27 897.37 287.21 904.45 C 254.41 889.90 224.75 868.96 191.20 856.00 C 188.68 854.94 185.76 854.27 184.04 851.98 C 174.27 840.41 171.25 824.87 162.14 812.88 C 158.98 808.72 154.91 805.18 150.12 803.04 C 147.61 816.74 150.49 830.76 154.18 843.99 C 160.82 866.79 171.19 888.23 180.52 910.00 L 165.30 910.00 C 156.35 885.00 145.34 860.61 139.66 834.56 C 136.36 819.95 134.75 804.99 134.73 790.02 C 134.92 788.41 133.99 787.09 133.09 785.89 C 119.11 767.43 108.19 746.79 99.67 725.30 C 85.12 688.55 77.26 649.50 72.74 610.35 C 67.26 563.02 67.11 515.28 68.40 467.71 C 52.91 465.25 36.76 460.03 25.88 448.12 C 17.12 438.69 13.66 425.63 13.10 413.05 C 12.37 395.51 15.64 378.11 19.25 361.02 C 26.00 330.17 34.15 299.35 47.70 270.70 C 57.12 250.55 69.06 231.72 80.91 212.94 C 93.66 193.79 102.25 172.35 113.12 152.16 C 120.15 139.09 130.99 128.62 142.37 119.33 C 160.92 104.13 181.68 91.99 201.37 78.37 C 204.46 76.10 207.86 74.15 210.34 71.18 C 199.32 68.24 186.99 69.19 177.04 62.90 C 171.22 59.24 169.71 51.85 170.28 45.44 C 173.92 43.41 177.75 41.34 182.03 41.22 C 188.23 40.83 194.02 43.65 199.22 46.75 C 208.77 52.59 217.51 60.06 228.24 63.74 C 235.58 66.38 243.76 66.77 251.24 64.43 C 261.79 61.22 271.31 55.43 280.60 49.60 C 297.52 38.91 313.96 27.08 332.69 19.68 C 345.14 14.65 358.66 13.38 371.92 12.32 C 420.32 9.12 468.60 16.34 517.00 15.74 C 530.48 15.93 543.97 14.87 557.24 12.44 M 745.86 182.92 C 757.61 195.56 762.76 212.48 772.57 226.43 C 775.75 230.83 780.39 235.68 786.41 234.31 C 781.48 224.62 777.16 214.60 771.94 205.04 C 766.38 194.83 757.53 185.64 745.86 182.92 M 837.11 345.48 C 837.62 350.97 836.55 356.63 838.03 362.01 C 838.55 364.14 840.20 365.62 842.29 366.16 C 842.45 360.94 845.30 356.30 845.78 351.19 C 844.76 347.41 840.23 346.74 837.11 345.48 M 842.16 371.00 C 842.54 375.27 843.42 379.47 844.51 383.60 C 849.76 403.54 863.38 420.27 867.25 440.67 C 868.16 447.24 866.30 454.21 869.11 460.48 C 871.91 458.63 872.40 455.17 873.01 452.14 C 874.06 445.29 874.27 438.14 872.70 431.35 C 868.17 417.85 866.12 403.58 860.54 390.43 C 856.94 382.12 850.97 374.16 842.16 371.00 M 80.21 460.83 C 79.89 461.15 79.26 461.80 78.94 462.12 C 79.42 476.41 77.87 490.71 78.71 505.00 C 79.16 507.08 79.00 510.80 81.98 510.67 C 83.28 509.86 84.41 508.63 83.94 506.99 C 83.14 492.99 85.54 478.94 83.98 464.97 C 83.80 462.94 83.06 459.04 80.21 460.83 M 79.10 600.80 C 92.26 636.48 93.07 675.33 105.80 711.14 C 110.88 724.74 117.98 738.47 129.84 747.35 C 124.60 722.92 115.56 699.55 108.27 675.71 C 101.79 654.98 96.81 633.70 95.01 612.03 C 94.56 607.93 94.70 603.77 93.97 599.70 C 90.79 598.78 88.01 596.94 84.95 595.72 C 82.01 594.44 78.33 597.85 79.10 600.80 Z" />
<path fill="#ffffff" opacity="1.00" d=" M 635.16 62.18 C 638.11 60.15 640.78 57.69 643.92 55.95 C 651.17 59.89 657.97 64.60 664.83 69.17 C 679.73 79.60 694.02 91.47 704.67 106.35 C 704.72 111.68 705.09 117.25 708.19 121.81 C 714.30 131.37 723.57 139.30 726.32 150.72 C 734.83 182.29 749.70 211.67 766.24 239.71 C 785.92 272.92 806.48 306.03 819.32 342.65 C 825.17 359.81 830.86 377.03 836.80 394.16 C 843.26 413.34 849.73 432.56 854.57 452.24 C 864.00 489.83 868.87 528.42 871.87 567.01 C 876.09 622.93 876.56 679.04 878.02 735.07 C 878.23 737.24 876.93 739.07 875.89 740.84 C 867.37 754.70 860.76 769.62 854.78 784.71 C 838.66 825.84 828.62 869.10 811.87 910.00 L 180.52 910.00 C 171.19 888.23 160.82 866.79 154.18 843.99 C 150.49 830.76 147.61 816.74 150.12 803.04 C 154.91 805.18 158.98 808.72 162.14 812.88 C 171.25 824.87 174.27 840.41 184.04 851.98 C 185.76 854.27 188.68 854.94 191.20 856.00 C 224.75 868.96 254.41 889.90 287.21 904.45 C 285.27 897.37 281.56 890.80 276.56 885.45 C 266.39 874.51 252.28 868.60 238.66 863.23 C 222.72 856.92 205.80 851.66 192.44 840.50 C 190.26 839.09 190.58 836.26 190.01 834.06 C 187.95 822.95 181.04 813.55 173.78 805.21 C 163.99 793.93 152.53 783.67 145.91 770.05 C 142.57 763.81 145.03 756.64 145.44 750.02 C 146.66 741.35 144.09 732.81 141.27 724.71 C 134.68 706.26 125.33 688.94 118.64 670.53 C 116.68 664.82 114.67 659.07 113.95 653.05 C 112.73 642.70 117.05 632.38 114.80 622.07 C 110.94 605.42 97.72 592.69 94.26 575.92 C 90.70 552.97 94.39 529.77 97.23 506.95 C 100.12 485.45 102.17 463.61 99.24 441.99 C 115.85 437.35 131.54 428.88 144.25 417.20 C 147.57 410.56 149.11 403.06 152.21 396.26 C 167.28 358.44 190.05 324.13 203.78 285.73 C 204.88 283.05 205.20 279.47 208.27 278.25 C 226.31 268.33 239.40 252.06 253.34 237.36 C 257.11 232.96 262.24 230.15 266.97 226.94 C 299.89 205.57 335.95 189.59 372.43 175.36 C 425.21 154.88 479.40 138.20 531.85 116.84 C 567.94 102.09 603.42 85.05 635.16 62.18 M 607.70 153.81 C 605.53 154.33 603.98 155.96 602.38 157.38 C 599.15 158.86 594.55 159.82 593.92 164.00 C 593.15 170.66 597.40 176.59 597.76 183.16 C 569.13 203.44 543.57 229.54 528.68 261.67 C 520.42 279.55 516.00 299.30 516.50 319.02 C 516.51 321.50 518.52 323.31 519.69 325.34 C 536.41 350.58 555.34 374.93 579.59 393.39 C 608.20 415.49 644.06 427.22 680.01 428.70 C 696.79 430.30 713.69 428.85 730.40 427.15 C 740.51 420.90 750.26 414.01 759.45 406.45 C 769.71 397.65 779.63 387.90 786.31 376.06 C 783.60 361.02 789.03 346.04 787.78 330.95 C 787.23 326.27 787.49 321.12 785.02 316.96 C 781.64 314.27 776.49 313.96 774.11 309.90 C 765.10 298.84 771.89 283.10 764.59 271.37 C 759.73 262.23 754.27 253.36 747.64 245.38 C 735.23 230.15 718.72 218.90 706.33 203.64 C 696.91 192.48 689.74 179.66 681.02 167.99 C 677.42 163.20 673.10 158.47 667.19 156.66 C 656.80 153.31 645.82 152.26 634.96 151.68 C 625.86 151.57 616.53 151.22 607.70 153.81 M 227.53 298.49 C 208.12 312.20 193.16 332.17 186.02 354.88 C 180.74 371.40 179.13 389.06 180.86 406.29 C 184.05 413.51 189.08 419.97 191.21 427.69 C 194.41 439.52 193.67 451.90 194.23 464.01 C 194.45 468.68 194.37 473.54 196.14 477.95 C 199.09 483.96 203.60 489.01 208.18 493.83 C 215.38 501.07 223.29 507.63 231.84 513.24 C 235.99 515.85 240.31 518.50 245.24 519.25 C 250.48 519.87 255.77 520.84 261.03 519.84 C 275.34 519.06 289.66 516.19 304.01 517.98 C 305.51 518.04 307.33 518.88 308.64 517.76 C 332.80 500.09 352.36 477.06 370.24 453.26 C 380.80 439.44 389.98 424.58 401.46 411.47 C 406.75 404.91 412.63 398.37 415.03 390.10 C 418.38 379.05 421.28 367.66 421.20 356.04 C 420.97 347.83 418.87 339.10 412.78 333.20 C 409.59 329.42 402.90 328.85 399.29 332.27 C 398.25 338.97 404.44 344.55 402.79 351.17 C 399.32 352.11 398.62 348.20 396.48 346.53 C 392.87 343.97 387.81 343.68 384.92 340.08 C 382.69 337.34 383.48 333.54 384.08 330.38 C 388.11 330.27 392.27 330.29 396.13 328.99 C 399.55 327.72 400.24 323.63 399.50 320.47 C 384.51 303.18 364.97 289.78 343.21 282.58 C 305.03 269.46 260.60 275.08 227.53 298.49 M 534.52 638.84 C 520.29 640.80 506.23 644.39 493.01 650.04 C 491.17 650.50 490.69 652.48 489.97 653.98 C 481.51 674.72 469.29 693.63 459.95 713.97 C 452.94 729.20 447.64 745.36 445.57 762.05 C 447.27 764.73 450.59 766.05 453.17 767.86 C 471.61 778.29 492.96 781.00 513.03 786.81 C 514.51 787.10 516.06 787.94 517.59 787.45 C 526.75 784.60 535.00 779.40 542.39 773.37 C 555.16 762.86 565.82 750.02 578.88 739.83 C 587.60 732.53 598.36 728.53 608.29 723.23 C 617.56 718.35 626.85 712.67 633.11 704.06 C 640.02 694.61 641.57 681.76 638.22 670.71 C 627.69 656.41 611.40 647.43 594.57 642.63 C 575.10 637.10 554.53 636.32 534.52 638.84 Z" />
<path fill="#000000" opacity="1.00" d=" M 607.70 153.81 C 616.53 151.22 625.86 151.57 634.96 151.68 C 645.82 152.26 656.80 153.31 667.19 156.66 C 673.10 158.47 677.42 163.20 681.02 167.99 C 689.74 179.66 696.91 192.48 706.33 203.64 C 718.72 218.90 735.23 230.15 747.64 245.38 C 754.27 253.36 759.73 262.23 764.59 271.37 C 771.89 283.10 765.10 298.84 774.11 309.90 C 776.49 313.96 781.64 314.27 785.02 316.96 C 787.49 321.12 787.23 326.27 787.78 330.95 C 789.03 346.04 783.60 361.02 786.31 376.06 C 779.63 387.90 769.71 397.65 759.45 406.45 C 750.26 414.01 740.51 420.90 730.40 427.15 C 713.69 428.85 696.79 430.30 680.01 428.70 C 644.06 427.22 608.20 415.49 579.59 393.39 C 555.34 374.93 536.41 350.58 519.69 325.34 C 518.52 323.31 516.51 321.50 516.50 319.02 C 516.00 299.30 520.42 279.55 528.68 261.67 C 543.57 229.54 569.13 203.44 597.76 183.16 C 597.40 176.59 593.15 170.66 593.92 164.00 C 594.55 159.82 599.15 158.86 602.38 157.38 C 603.98 155.96 605.53 154.33 607.70 153.81 M 643.42 168.35 C 621.61 185.67 597.57 200.15 577.00 219.03 C 563.93 230.89 552.48 244.77 544.74 260.71 C 536.61 277.56 532.51 296.26 532.07 314.92 C 537.35 324.05 543.60 332.63 549.87 341.12 C 567.51 364.85 589.77 385.83 616.83 398.32 C 636.29 407.41 657.60 412.15 678.97 413.53 C 685.00 413.38 690.98 414.46 697.00 414.18 C 704.33 413.26 711.77 413.99 719.08 412.83 C 723.59 412.23 728.47 412.76 732.60 410.49 C 742.46 405.25 751.77 398.54 758.65 389.64 C 767.60 378.51 771.93 364.18 772.02 350.00 C 772.08 332.83 767.28 316.03 760.72 300.30 C 752.39 280.39 741.12 261.85 728.79 244.19 C 727.12 241.90 725.75 239.16 723.00 237.98 C 714.18 233.19 707.22 225.69 701.31 217.69 C 692.56 205.81 685.52 192.51 674.74 182.25 C 667.31 175.21 657.87 170.34 647.79 168.52 C 646.34 168.37 644.82 167.81 643.42 168.35 Z" />
<path fill="#ffffff" opacity="1.00" d=" M 643.42 168.35 C 644.82 167.81 646.34 168.37 647.79 168.52 C 657.87 170.34 667.31 175.21 674.74 182.25 C 685.52 192.51 692.56 205.81 701.31 217.69 C 707.22 225.69 714.18 233.19 723.00 237.98 C 725.75 239.16 727.12 241.90 728.79 244.19 C 741.12 261.85 752.39 280.39 760.72 300.30 C 767.28 316.03 772.08 332.83 772.02 350.00 C 771.93 364.18 767.60 378.51 758.65 389.64 C 751.77 398.54 742.46 405.25 732.60 410.49 C 728.47 412.76 723.59 412.23 719.08 412.83 C 711.77 413.99 704.33 413.26 697.00 414.18 C 690.98 414.46 685.00 413.38 678.97 413.53 C 657.60 412.15 636.29 407.41 616.83 398.32 C 589.77 385.83 567.51 364.85 549.87 341.12 C 543.60 332.63 537.35 324.05 532.07 314.92 C 532.51 296.26 536.61 277.56 544.74 260.71 C 552.48 244.77 563.93 230.89 577.00 219.03 C 597.57 200.15 621.61 185.67 643.42 168.35 M 653.68 222.43 C 650.88 238.05 657.35 253.78 654.38 269.42 C 672.25 270.64 688.90 279.55 706.99 278.82 C 715.41 279.15 723.84 275.57 729.74 269.62 C 731.20 265.72 730.58 261.17 729.65 257.17 C 728.63 252.88 724.69 250.22 720.66 249.09 C 719.77 252.16 719.16 255.49 717.06 258.03 C 714.17 261.64 709.71 263.62 705.26 264.46 C 693.65 265.96 681.42 263.85 671.47 257.50 C 668.31 255.43 665.08 252.74 664.09 248.94 C 663.83 237.17 664.14 225.37 663.95 213.59 C 658.89 213.72 654.53 217.43 653.68 222.43 Z" />
<path fill="#ffffff" opacity="1.00" d=" M 745.86 182.92 C 757.53 185.64 766.38 194.83 771.94 205.04 C 777.16 214.60 781.48 224.62 786.41 234.31 C 780.39 235.68 775.75 230.83 772.57 226.43 C 762.76 212.48 757.61 195.56 745.86 182.92 Z" />
<path fill="#000000" opacity="1.00" d=" M 653.68 222.43 C 654.53 217.43 658.89 213.72 663.95 213.59 C 664.14 225.37 663.83 237.17 664.09 248.94 C 665.08 252.74 668.31 255.43 671.47 257.50 C 681.42 263.85 693.65 265.96 705.26 264.46 C 709.71 263.62 714.17 261.64 717.06 258.03 C 719.16 255.49 719.77 252.16 720.66 249.09 C 724.69 250.22 728.63 252.88 729.65 257.17 C 730.58 261.17 731.20 265.72 729.74 269.62 C 723.84 275.57 715.41 279.15 706.99 278.82 C 688.90 279.55 672.25 270.64 654.38 269.42 C 657.35 253.78 650.88 238.05 653.68 222.43 Z" />
<path fill="#000000" opacity="1.00" d=" M 227.53 298.49 C 260.60 275.08 305.03 269.46 343.21 282.58 C 364.97 289.78 384.51 303.18 399.50 320.47 C 400.24 323.63 399.55 327.72 396.13 328.99 C 392.27 330.29 388.11 330.27 384.08 330.38 C 383.48 333.54 382.69 337.34 384.92 340.08 C 387.81 343.68 392.87 343.97 396.48 346.53 C 398.62 348.20 399.32 352.11 402.79 351.17 C 404.44 344.55 398.25 338.97 399.29 332.27 C 402.90 328.85 409.59 329.42 412.78 333.20 C 418.87 339.10 420.97 347.83 421.20 356.04 C 421.28 367.66 418.38 379.05 415.03 390.10 C 412.63 398.37 406.75 404.91 401.46 411.47 C 389.98 424.58 380.80 439.44 370.24 453.26 C 352.36 477.06 332.80 500.09 308.64 517.76 C 307.33 518.88 305.51 518.04 304.01 517.98 C 289.66 516.19 275.34 519.06 261.03 519.84 C 255.77 520.84 250.48 519.87 245.24 519.25 C 240.31 518.50 235.99 515.85 231.84 513.24 C 223.29 507.63 215.38 501.07 208.18 493.83 C 203.60 489.01 199.09 483.96 196.14 477.95 C 194.37 473.54 194.45 468.68 194.23 464.01 C 193.67 451.90 194.41 439.52 191.21 427.69 C 189.08 419.97 184.05 413.51 180.86 406.29 C 179.13 389.06 180.74 371.40 186.02 354.88 C 193.16 332.17 208.12 312.20 227.53 298.49 M 224.30 316.28 C 213.93 324.70 205.46 337.02 205.93 350.88 C 207.74 349.43 209.65 347.81 212.05 347.58 C 223.50 346.18 234.81 349.66 245.51 353.34 C 248.12 354.58 251.77 354.96 252.90 358.05 C 256.66 365.48 259.07 374.27 256.46 382.47 C 253.84 390.91 246.65 396.90 239.32 401.28 C 227.41 408.15 214.18 412.22 201.17 416.47 C 200.59 426.43 201.73 436.44 203.47 446.25 C 206.37 461.84 212.83 477.41 224.73 488.28 C 237.96 500.46 256.35 505.49 274.01 505.73 C 283.01 505.84 292.06 505.81 300.98 504.47 C 303.93 503.99 307.62 504.31 309.57 501.59 C 333.98 473.32 362.99 448.67 382.50 416.45 C 393.71 398.35 400.43 377.28 399.88 355.87 C 398.71 358.14 397.43 360.94 394.64 361.47 C 387.46 362.51 380.32 359.68 374.31 355.96 C 374.20 348.97 373.66 341.92 371.75 335.17 C 368.27 321.94 359.59 310.17 347.86 303.10 C 330.10 292.12 308.35 290.05 287.95 291.90 C 265.18 294.43 242.33 301.78 224.30 316.28 M 201.02 355.89 C 201.01 359.01 201.15 362.20 200.27 365.24 C 198.43 372.60 192.15 377.83 190.22 385.16 C 188.57 390.57 189.37 396.33 190.72 401.71 C 198.36 398.19 206.88 397.72 215.14 397.19 C 222.39 396.19 230.53 396.28 236.57 391.61 C 238.15 387.92 239.09 383.98 239.87 380.06 C 241.18 373.46 238.52 367.06 236.82 360.80 C 231.86 360.40 226.94 361.08 222.00 361.27 C 214.83 360.65 206.76 361.03 201.02 355.89 Z" />
<path fill="#ffffff" opacity="1.00" d=" M 224.30 316.28 C 242.33 301.78 265.18 294.43 287.95 291.90 C 308.35 290.05 330.10 292.12 347.86 303.10 C 359.59 310.17 368.27 321.94 371.75 335.17 C 373.66 341.92 374.20 348.97 374.31 355.96 C 380.32 359.68 387.46 362.51 394.64 361.47 C 397.43 360.94 398.71 358.14 399.88 355.87 C 400.43 377.28 393.71 398.35 382.50 416.45 C 362.99 448.67 333.98 473.32 309.57 501.59 C 307.62 504.31 303.93 503.99 300.98 504.47 C 292.06 505.81 283.01 505.84 274.01 505.73 C 256.35 505.49 237.96 500.46 224.73 488.28 C 212.83 477.41 206.37 461.84 203.47 446.25 C 201.73 436.44 200.59 426.43 201.17 416.47 C 214.18 412.22 227.41 408.15 239.32 401.28 C 246.65 396.90 253.84 390.91 256.46 382.47 C 259.07 374.27 256.66 365.48 252.90 358.05 C 251.77 354.96 248.12 354.58 245.51 353.34 C 234.81 349.66 223.50 346.18 212.05 347.58 C 209.65 347.81 207.74 349.43 205.93 350.88 C 205.46 337.02 213.93 324.70 224.30 316.28 Z" />
<path fill="#ffffff" opacity="1.00" d=" M 837.11 345.48 C 840.23 346.74 844.76 347.41 845.78 351.19 C 845.30 356.30 842.45 360.94 842.29 366.16 C 840.20 365.62 838.55 364.14 838.03 362.01 C 836.55 356.63 837.62 350.97 837.11 345.48 Z" />
<path fill="#ffffff" opacity="1.00" d=" M 201.02 355.89 C 206.76 361.03 214.83 360.65 222.00 361.27 C 226.94 361.08 231.86 360.40 236.82 360.80 C 238.52 367.06 241.18 373.46 239.87 380.06 C 239.09 383.98 238.15 387.92 236.57 391.61 C 230.53 396.28 222.39 396.19 215.14 397.19 C 206.88 397.72 198.36 398.19 190.72 401.71 C 189.37 396.33 188.57 390.57 190.22 385.16 C 192.15 377.83 198.43 372.60 200.27 365.24 C 201.15 362.20 201.01 359.01 201.02 355.89 Z" />
<path fill="#ffffff" opacity="1.00" d=" M 842.16 371.00 C 850.97 374.16 856.94 382.12 860.54 390.43 C 866.12 403.58 868.17 417.85 872.70 431.35 C 874.27 438.14 874.06 445.29 873.01 452.14 C 872.40 455.17 871.91 458.63 869.11 460.48 C 866.30 454.21 868.16 447.24 867.25 440.67 C 863.38 420.27 849.76 403.54 844.51 383.60 C 843.42 379.47 842.54 375.27 842.16 371.00 Z" />
<path fill="#ffffff" opacity="1.00" d=" M 80.21 460.83 C 83.06 459.04 83.80 462.94 83.98 464.97 C 85.54 478.94 83.14 492.99 83.94 506.99 C 84.41 508.63 83.28 509.86 81.98 510.67 C 79.00 510.80 79.16 507.08 78.71 505.00 C 77.87 490.71 79.42 476.41 78.94 462.12 C 79.26 461.80 79.89 461.15 80.21 460.83 Z" />
<path fill="#ffffff" opacity="1.00" d=" M 79.10 600.80 C 78.33 597.85 82.01 594.44 84.95 595.72 C 88.01 596.94 90.79 598.78 93.97 599.70 C 94.70 603.77 94.56 607.93 95.01 612.03 C 96.81 633.70 101.79 654.98 108.27 675.71 C 115.56 699.55 124.60 722.92 129.84 747.35 C 117.98 738.47 110.88 724.74 105.80 711.14 C 93.07 675.33 92.26 636.48 79.10 600.80 Z" />
<path fill="#000000" opacity="1.00" d=" M 534.52 638.84 C 554.53 636.32 575.10 637.10 594.57 642.63 C 611.40 647.43 627.69 656.41 638.22 670.71 C 641.57 681.76 640.02 694.61 633.11 704.06 C 626.85 712.67 617.56 718.35 608.29 723.23 C 598.36 728.53 587.60 732.53 578.88 739.83 C 565.82 750.02 555.16 762.86 542.39 773.37 C 535.00 779.40 526.75 784.60 517.59 787.45 C 516.06 787.94 514.51 787.10 513.03 786.81 C 492.96 781.00 471.61 778.29 453.17 767.86 C 450.59 766.05 447.27 764.73 445.57 762.05 C 447.64 745.36 452.94 729.20 459.95 713.97 C 469.29 693.63 481.51 674.72 489.97 653.98 C 490.69 652.48 491.17 650.50 493.01 650.04 C 506.23 644.39 520.29 640.80 534.52 638.84 M 531.61 650.53 C 531.71 656.08 533.79 662.43 539.36 664.68 C 547.73 668.03 556.93 665.11 564.93 662.05 C 571.33 659.14 578.20 656.19 582.74 650.61 C 565.70 650.35 548.65 650.49 531.61 650.53 M 506.41 663.41 C 498.75 667.95 492.65 675.07 489.26 683.29 C 487.48 687.65 487.08 693.37 490.96 696.76 C 493.15 693.44 495.41 690.05 498.68 687.70 C 506.90 681.33 517.24 678.97 527.01 676.10 C 525.99 670.98 524.66 665.15 519.98 662.11 C 515.69 659.65 510.42 661.10 506.41 663.41 M 591.44 661.50 C 574.47 670.71 556.23 677.18 538.39 684.42 C 520.39 691.75 502.22 699.67 487.07 712.10 C 474.53 722.35 464.88 736.27 460.57 751.96 C 460.86 753.32 462.34 753.89 463.28 754.79 C 473.35 762.52 485.08 768.84 497.93 769.97 C 510.24 771.20 522.45 767.10 532.96 760.94 C 550.07 750.90 564.18 736.74 580.28 725.30 C 592.76 716.48 607.34 710.95 619.21 701.24 C 625.11 696.49 629.59 689.13 628.65 681.32 C 621.88 672.01 612.67 663.22 600.82 661.40 C 597.74 661.12 594.31 659.79 591.44 661.50 Z" />
<path fill="#ffffff" opacity="1.00" d=" M 531.61 650.53 C 548.65 650.49 565.70 650.35 582.74 650.61 C 578.20 656.19 571.33 659.14 564.93 662.05 C 556.93 665.11 547.73 668.03 539.36 664.68 C 533.79 662.43 531.71 656.08 531.61 650.53 Z" />
<path fill="#ffffff" opacity="1.00" d=" M 506.41 663.41 C 510.42 661.10 515.69 659.65 519.98 662.11 C 524.66 665.15 525.99 670.98 527.01 676.10 C 517.24 678.97 506.90 681.33 498.68 687.70 C 495.41 690.05 493.15 693.44 490.96 696.76 C 487.08 693.37 487.48 687.65 489.26 683.29 C 492.65 675.07 498.75 667.95 506.41 663.41 Z" />
<path fill="#ffffff" opacity="1.00" d=" M 591.44 661.50 C 594.31 659.79 597.74 661.12 600.82 661.40 C 612.67 663.22 621.88 672.01 628.65 681.32 C 629.59 689.13 625.11 696.49 619.21 701.24 C 607.34 710.95 592.76 716.48 580.28 725.30 C 564.18 736.74 550.07 750.90 532.96 760.94 C 522.45 767.10 510.24 771.20 497.93 769.97 C 485.08 768.84 473.35 762.52 463.28 754.79 C 462.34 753.89 460.86 753.32 460.57 751.96 C 464.88 736.27 474.53 722.35 487.07 712.10 C 502.22 699.67 520.39 691.75 538.39 684.42 C 556.23 677.18 574.47 670.71 591.44 661.50 Z" />
</svg>
