<?xml version="1.0" encoding="UTF-8" ?>
<!DOCTYPE svg PUBLIC "-//W3C//DTD SVG 1.1//EN" "http://www.w3.org/Graphics/SVG/1.1/DTD/svg11.dtd">
<svg width="148pt" height="184pt" viewBox="0 0 148 184" version="1.1" xmlns="http://www.w3.org/2000/svg">
<path fill="#ffffff" opacity="1.00" d=" M 0.00 0.00 L 148.00 0.00 L 148.00 184.00 L 0.00 184.00 L 0.00 0.00 M 66.68 3.04 C 56.92 5.02 47.25 8.36 39.24 14.42 C 36.44 16.87 33.74 19.44 30.93 21.89 C 27.68 24.70 25.31 28.32 22.81 31.77 C 20.02 35.69 18.88 40.43 17.53 44.96 C 15.01 54.80 17.57 64.95 16.71 74.92 C 16.55 76.47 15.41 77.53 14.10 78.20 C 10.84 80.56 14.27 86.02 10.59 87.91 C 11.13 89.25 11.58 90.62 11.44 92.10 C 11.06 95.04 12.98 98.11 15.87 98.92 C 19.67 100.89 19.28 105.45 19.28 109.09 C 20.62 115.31 20.35 121.71 21.07 128.01 C 22.34 136.89 28.66 143.69 33.03 151.17 C 37.19 156.55 40.92 162.34 45.98 166.95 C 48.29 169.07 50.84 171.21 54.03 171.75 C 53.00 169.78 50.76 169.16 49.12 167.87 C 42.87 163.01 38.62 156.22 33.88 150.01 C 31.24 145.23 27.51 141.14 25.26 136.14 C 22.57 131.49 21.86 126.01 22.28 120.72 L 23.84 121.41 C 26.15 127.21 27.32 133.41 30.07 139.04 C 31.70 142.54 33.99 145.68 36.45 148.64 C 38.38 150.99 39.96 153.66 42.27 155.68 C 44.08 157.28 46.19 158.66 47.36 160.85 C 49.57 164.78 52.87 167.93 55.01 171.90 C 58.66 175.01 63.82 174.65 67.91 176.89 C 72.21 179.27 77.24 178.32 81.92 178.82 C 85.76 179.40 89.01 176.80 92.14 174.99 C 95.80 172.33 99.82 170.10 102.99 166.82 C 105.65 164.13 108.34 161.46 111.42 159.26 C 116.81 154.39 123.83 151.39 128.26 145.47 C 132.55 139.96 133.66 132.78 134.23 126.02 C 134.16 119.96 134.67 113.93 134.75 107.88 C 136.06 106.31 138.05 105.10 138.43 102.93 C 139.50 99.34 137.63 95.72 138.18 92.10 C 138.43 89.75 138.33 87.39 138.55 85.05 C 139.04 83.02 139.86 81.08 140.20 79.02 C 140.14 76.15 139.67 73.18 138.14 70.70 C 136.87 68.88 135.16 67.45 133.62 65.89 C 132.72 57.36 135.28 48.29 131.65 40.19 C 129.22 33.85 126.52 27.33 121.70 22.41 C 118.09 17.94 113.45 14.19 108.01 12.21 C 103.78 10.55 99.73 8.47 95.59 6.59 C 92.74 5.50 89.82 4.62 86.99 3.46 C 83.23 1.73 78.98 2.79 74.99 2.45 C 72.20 2.16 69.40 2.33 66.68 3.04 Z" />
<path fill="#000000" opacity="1.00" d=" M 66.68 3.04 C 69.40 2.33 72.20 2.16 74.99 2.45 C 78.98 2.79 83.23 1.73 86.99 3.46 C 89.82 4.62 92.74 5.50 95.59 6.59 C 99.73 8.47 103.78 10.55 108.01 12.21 C 113.45 14.19 118.09 17.94 121.70 22.41 C 126.52 27.33 129.22 33.85 131.65 40.19 C 135.28 48.29 132.72 57.36 133.62 65.89 C 135.16 67.45 136.87 68.88 138.14 70.70 C 139.67 73.18 140.14 76.15 140.20 79.02 C 139.86 81.08 139.04 83.02 138.55 85.05 C 138.33 87.39 138.43 89.75 138.18 92.10 C 137.63 95.72 139.50 99.34 138.43 102.93 C 138.05 105.10 136.06 106.31 134.75 107.88 C 134.67 113.93 134.16 119.96 134.23 126.02 C 133.66 132.78 132.55 139.96 128.26 145.47 C 123.83 151.39 116.81 154.39 111.42 159.26 C 108.34 161.46 105.65 164.13 102.99 166.82 C 99.82 170.10 95.80 172.33 92.14 174.99 C 89.01 176.80 85.76 179.40 81.92 178.82 C 77.24 178.32 72.21 179.27 67.91 176.89 C 63.82 174.65 58.66 175.01 55.01 171.90 C 52.87 167.93 49.57 164.78 47.36 160.85 C 46.19 158.66 44.08 157.28 42.27 155.68 C 39.96 153.66 38.38 150.99 36.45 148.64 C 33.99 145.68 31.70 142.54 30.07 139.04 C 27.32 133.41 26.15 127.21 23.84 121.41 L 22.28 120.72 C 21.86 126.01 22.57 131.49 25.26 136.14 C 27.51 141.14 31.24 145.23 33.88 150.01 C 38.62 156.22 42.87 163.01 49.12 167.87 C 50.76 169.16 53.00 169.78 54.03 171.75 C 50.84 171.21 48.29 169.07 45.98 166.95 C 40.92 162.34 37.19 156.55 33.03 151.17 C 28.66 143.69 22.34 136.89 21.07 128.01 C 20.35 121.71 20.62 115.31 19.28 109.09 C 19.28 105.45 19.67 100.89 15.87 98.92 C 12.98 98.11 11.06 95.04 11.44 92.10 C 11.58 90.62 11.13 89.25 10.59 87.91 C 14.27 86.02 10.84 80.56 14.10 78.20 C 15.41 77.53 16.55 76.47 16.71 74.92 C 17.57 64.95 15.01 54.80 17.53 44.96 C 18.88 40.43 20.02 35.69 22.81 31.77 C 25.31 28.32 27.68 24.70 30.93 21.89 C 33.74 19.44 36.44 16.87 39.24 14.42 C 47.25 8.36 56.92 5.02 66.68 3.04 M 71.02 3.95 C 63.15 4.48 55.63 7.11 48.47 10.28 C 44.87 12.31 41.10 14.22 38.17 17.21 C 34.20 20.98 29.52 24.15 26.61 28.89 C 19.11 37.98 16.66 50.46 18.00 61.96 C 18.98 65.62 18.44 69.42 18.63 73.15 C 24.39 72.52 30.20 72.13 36.00 72.35 C 38.01 73.27 39.90 74.43 41.89 75.39 C 45.40 77.15 47.76 80.41 49.95 83.55 C 51.47 83.82 53.23 83.38 54.52 84.46 C 51.64 84.17 49.35 85.63 46.94 86.90 C 39.03 77.47 25.40 75.40 14.03 78.69 C 13.27 81.17 12.98 83.77 12.73 86.35 C 14.75 84.78 13.94 80.84 16.48 79.43 C 22.47 78.42 29.04 77.56 34.68 80.36 C 37.07 81.52 39.74 82.21 41.73 84.06 C 44.03 85.35 43.88 88.90 46.86 89.27 C 46.12 89.83 45.38 90.40 44.65 90.96 C 45.30 91.58 45.96 92.19 46.61 92.81 C 44.79 94.91 43.64 97.44 42.71 100.04 C 41.56 101.26 42.80 102.44 43.44 103.43 C 42.44 103.17 40.93 101.38 40.38 103.26 C 38.05 105.66 37.85 109.72 39.93 112.34 C 41.91 112.61 43.90 112.76 45.88 113.01 C 45.49 110.99 45.18 108.96 45.31 106.91 C 47.28 108.14 45.30 111.31 46.88 112.91 C 48.41 114.59 50.63 116.13 53.03 115.69 C 54.93 114.90 56.70 113.80 58.39 112.63 C 60.90 112.24 57.65 109.94 59.12 109.21 C 59.30 109.76 59.65 110.85 59.83 111.40 C 62.81 110.71 66.12 110.63 68.62 108.65 C 70.53 107.38 70.90 104.95 71.45 102.91 C 69.96 101.75 68.45 100.62 66.87 99.59 C 64.30 101.60 60.91 101.54 58.35 103.61 C 59.36 102.71 60.22 101.47 61.61 101.16 C 63.11 100.56 65.44 101.10 66.02 99.12 C 63.91 95.90 59.91 94.89 57.56 91.99 C 58.36 92.51 59.96 93.55 60.76 94.08 C 60.28 92.39 59.80 90.70 59.38 88.99 C 58.10 88.92 57.52 89.66 57.65 91.21 C 57.19 90.04 57.26 88.44 55.97 87.80 C 54.48 86.70 52.46 87.37 50.78 87.48 C 49.54 89.22 49.61 91.58 48.22 93.26 C 48.27 91.48 48.22 89.64 48.78 87.93 C 50.98 86.38 54.38 85.58 56.55 87.59 C 58.19 89.15 60.65 88.19 62.65 88.42 C 61.98 87.62 61.31 86.81 60.65 86.01 C 61.32 85.49 62.00 84.98 62.68 84.47 C 62.10 84.14 60.95 83.46 60.38 83.12 C 61.34 80.32 63.37 78.10 65.85 76.55 C 69.26 74.37 72.80 71.85 76.92 71.39 C 80.94 71.73 85.39 70.30 88.98 72.71 C 91.21 74.01 91.24 76.89 92.71 78.77 C 93.47 78.56 94.99 78.16 95.75 77.95 C 96.25 76.08 93.54 76.45 92.86 75.16 C 91.67 73.45 90.71 71.39 88.57 70.68 C 82.57 68.71 75.63 68.92 70.14 72.26 C 65.98 74.79 61.04 77.21 59.35 82.14 C 58.43 83.48 57.48 86.03 55.49 85.57 C 56.24 83.59 56.07 81.45 56.53 79.42 C 58.51 75.88 60.73 72.29 64.13 69.94 C 68.21 66.74 73.27 65.30 78.15 63.81 C 81.66 63.31 85.53 62.59 88.84 64.30 C 92.66 65.79 96.10 68.38 98.27 71.87 C 98.45 73.95 97.74 75.94 97.36 77.95 C 103.52 77.56 108.11 72.80 113.87 71.09 C 120.40 69.21 126.54 66.25 132.48 62.98 C 132.27 60.81 131.97 58.51 130.57 56.75 C 131.07 55.58 132.41 54.53 131.96 52.96 C 131.96 49.97 132.11 46.94 131.54 43.99 C 129.60 38.34 127.44 32.72 124.26 27.64 C 119.87 21.94 114.92 16.13 107.94 13.60 C 102.27 11.62 97.11 8.48 91.43 6.54 C 87.74 5.21 84.01 3.46 79.99 3.71 C 77.00 3.76 73.99 3.57 71.02 3.95 M 130.38 65.47 C 127.26 66.60 124.47 68.53 121.18 69.20 C 113.63 71.25 106.83 75.15 99.88 78.61 C 99.21 78.51 97.88 78.32 97.21 78.23 C 98.46 80.56 96.91 82.39 94.88 83.38 C 96.12 81.84 97.22 80.23 96.61 78.12 C 95.78 78.37 94.11 78.87 93.28 79.12 C 92.45 81.72 94.71 83.66 95.98 85.62 C 97.65 83.81 98.92 81.64 100.74 79.98 C 103.45 78.53 106.56 78.01 109.23 76.43 C 114.08 74.25 118.80 71.64 123.98 70.32 C 126.83 68.68 129.78 67.07 132.31 64.97 C 131.83 65.09 130.86 65.35 130.38 65.47 M 130.88 67.68 C 128.26 69.06 125.86 70.89 124.08 73.27 C 122.32 75.28 120.97 78.21 122.05 80.86 C 123.44 80.44 124.07 79.37 123.94 77.65 C 125.51 79.89 128.79 78.51 130.26 80.78 C 132.54 83.26 133.37 87.25 130.84 89.88 C 128.79 91.67 126.78 93.75 124.33 94.95 C 122.89 91.42 122.14 87.69 122.30 83.87 C 121.33 82.02 119.66 80.17 120.30 77.90 C 120.13 75.33 121.97 73.50 123.30 71.54 L 122.16 71.36 C 116.26 73.62 110.72 76.74 104.79 78.95 C 101.56 79.96 99.05 82.44 97.28 85.24 C 96.66 86.89 96.77 88.70 96.35 90.40 C 94.70 92.95 92.81 95.42 90.48 97.38 C 84.79 100.45 78.05 99.97 71.84 101.04 C 73.54 103.06 75.90 104.37 77.77 106.23 C 82.78 111.00 88.80 114.47 94.37 118.48 C 96.28 121.67 95.93 125.57 96.81 129.08 C 97.11 131.56 98.98 133.42 100.93 134.79 L 102.10 134.54 C 105.14 128.89 104.57 122.20 104.66 116.00 C 104.81 112.63 104.21 109.27 104.44 105.92 C 106.40 114.64 105.57 123.68 104.23 132.41 C 102.59 138.34 100.96 144.28 99.99 150.36 C 98.18 156.61 94.55 162.42 89.40 166.45 C 83.24 170.68 76.39 174.46 68.74 174.73 L 69.35 176.09 C 74.43 177.38 79.79 177.54 85.00 177.13 C 92.53 173.40 98.37 166.41 100.66 158.32 C 103.39 148.15 107.50 138.36 109.52 128.00 C 110.92 122.39 110.68 116.55 111.55 110.85 C 112.03 112.17 112.21 113.58 111.87 114.97 C 110.99 119.97 111.26 125.13 109.65 130.00 C 107.34 140.45 103.51 150.47 100.46 160.72 C 99.23 164.60 96.68 167.83 94.44 171.16 C 100.44 169.13 103.70 163.16 108.74 159.67 C 111.85 157.48 114.41 154.55 117.79 152.71 C 122.81 149.54 127.68 145.49 129.94 139.82 C 131.13 136.31 132.53 132.75 132.63 128.99 C 132.54 121.92 133.78 114.90 133.24 107.82 C 131.41 106.26 128.82 105.65 127.38 103.65 C 125.97 101.09 125.07 98.30 124.22 95.52 C 127.33 96.16 128.91 92.22 132.09 93.28 C 131.33 94.58 129.52 94.38 128.58 95.48 C 127.77 96.23 126.99 97.01 126.24 97.83 C 127.24 100.06 128.20 102.42 129.88 104.24 C 131.66 105.46 134.13 106.86 136.03 105.03 C 138.05 101.95 137.30 98.34 136.71 94.97 C 136.74 90.66 136.46 86.19 137.94 82.07 C 138.22 81.02 138.72 79.90 138.32 78.81 C 137.28 75.95 135.99 73.14 134.16 70.70 C 132.28 69.91 129.39 70.80 129.08 72.94 C 132.02 75.21 133.45 78.57 134.53 82.02 C 136.71 81.51 134.08 77.70 136.81 78.08 C 137.02 80.81 136.63 83.54 135.77 86.13 C 134.56 90.20 135.11 94.65 133.24 98.55 C 132.85 99.70 131.36 99.55 130.41 99.75 C 128.94 97.80 132.60 98.20 132.74 96.54 C 133.92 92.16 133.38 87.53 133.27 83.05 C 132.69 79.63 131.20 75.78 127.77 74.31 C 127.27 75.16 126.28 76.85 125.79 77.69 C 125.32 76.81 124.42 75.57 125.64 74.75 C 126.70 73.14 127.81 71.48 129.38 70.32 C 130.92 69.12 132.98 69.43 134.79 69.20 C 134.34 67.61 132.31 66.83 130.88 67.68 M 123.28 71.05 L 123.30 71.54 L 123.79 71.57 L 123.79 71.06 L 123.28 71.05 M 136.24 71.26 L 136.25 71.75 L 136.75 71.75 L 136.74 71.25 L 136.24 71.26 M 79.26 75.33 C 77.79 76.94 79.95 78.21 81.49 77.40 C 82.02 75.64 80.87 75.11 79.26 75.33 M 83.32 75.36 C 84.51 77.03 86.09 78.47 86.72 80.49 C 87.21 81.27 87.22 82.82 88.50 82.60 C 88.73 79.76 87.39 76.69 84.90 75.21 C 84.51 75.25 83.71 75.33 83.32 75.36 M 71.67 79.71 C 69.64 81.07 67.03 81.57 65.52 83.64 C 65.26 86.06 66.55 89.84 69.40 89.71 C 69.05 87.44 68.17 85.23 68.31 82.90 C 69.51 81.30 71.29 80.33 72.80 79.07 C 72.52 79.23 71.95 79.55 71.67 79.71 M 124.03 83.51 C 125.48 83.57 127.84 82.37 128.36 84.43 C 129.73 86.83 128.08 89.35 126.68 91.26 C 127.67 90.75 128.62 90.17 129.54 89.54 C 131.79 86.70 130.89 81.94 127.61 80.30 C 125.76 80.20 125.01 82.30 124.03 83.51 M 21.48 82.62 C 21.93 83.59 22.49 84.52 23.15 85.37 C 23.98 84.99 24.79 84.57 25.57 84.10 C 24.59 82.84 23.07 81.10 21.48 82.62 M 124.62 85.64 C 123.20 87.01 123.49 89.53 124.80 90.90 C 126.76 89.39 128.03 87.07 127.25 84.56 C 126.59 84.83 125.28 85.37 124.62 85.64 M 20.52 86.18 C 20.27 87.33 20.19 88.49 20.27 89.67 C 20.84 89.60 21.96 89.45 22.53 89.38 C 23.29 87.83 21.70 86.78 20.52 86.18 M 95.40 85.78 C 94.30 88.92 93.21 92.36 90.40 94.41 C 84.73 99.12 76.86 97.89 70.04 98.27 C 70.31 99.21 70.76 100.05 71.37 100.79 C 77.57 98.72 84.82 100.22 90.53 96.52 C 93.43 93.55 97.07 90.18 96.38 85.59 L 95.40 85.78 M 39.27 86.82 C 39.39 89.20 39.23 91.59 39.31 93.97 C 42.82 93.00 42.33 88.09 39.27 86.82 M 12.15 87.88 L 11.75 88.59 L 12.02 89.28 C 14.10 90.81 14.37 86.28 12.15 87.88 M 125.32 91.25 L 125.26 92.10 L 125.92 92.53 L 126.62 92.10 L 126.68 91.26 L 126.01 90.82 L 125.32 91.25 M 12.30 92.35 C 10.73 94.03 14.73 94.41 13.28 92.48 L 12.30 92.35 M 13.47 96.40 C 14.80 98.50 17.50 98.99 19.03 100.90 C 20.42 102.32 21.60 104.61 23.93 104.40 C 27.78 104.49 31.62 104.50 35.47 104.36 L 35.54 103.31 C 31.68 103.46 27.89 102.59 24.03 102.53 C 19.92 102.15 17.40 98.63 14.87 95.78 C 14.43 92.41 12.39 95.53 13.47 96.40 M 40.09 100.95 L 40.21 101.53 L 40.82 101.37 L 40.67 100.80 L 40.09 100.95 M 38.53 101.75 L 38.40 102.52 L 39.25 102.73 L 40.14 102.26 L 40.21 101.53 L 39.40 101.28 L 38.53 101.75 M 35.54 103.31 C 36.22 103.26 37.58 103.18 38.26 103.14 L 38.40 102.52 C 36.94 101.88 35.99 102.14 35.54 103.31 M 38.26 103.14 L 38.46 103.71 L 38.96 103.55 L 38.79 103.01 L 38.26 103.14 M 20.54 104.31 C 20.19 108.93 21.15 113.59 23.09 117.79 C 26.19 124.62 27.40 132.15 30.73 138.88 C 33.09 144.03 37.02 148.19 40.34 152.71 C 42.36 155.60 45.85 157.08 47.68 160.14 C 50.11 164.00 52.60 168.33 56.93 170.30 C 58.94 171.35 60.80 172.68 62.88 173.58 C 69.56 174.29 76.55 173.61 82.38 170.03 C 83.32 167.55 84.43 165.11 84.79 162.46 C 84.91 162.48 85.16 162.52 85.28 162.54 C 85.73 165.02 84.02 167.03 83.03 169.13 C 91.18 166.48 96.49 158.66 99.28 150.91 C 100.10 145.71 101.41 140.58 102.80 135.49 C 100.31 135.44 98.34 133.93 96.97 131.97 C 96.07 129.13 95.79 126.13 95.00 123.26 L 93.87 123.45 C 92.88 126.64 94.16 129.95 94.44 133.17 C 94.49 135.35 96.17 136.83 97.48 138.36 C 93.20 143.07 91.74 149.99 86.31 153.68 C 90.20 149.05 93.16 143.79 96.14 138.55 C 95.38 136.82 94.35 135.22 93.69 133.44 C 92.87 130.73 93.92 127.51 91.97 125.16 C 91.34 128.84 88.67 131.60 86.45 134.42 C 83.35 137.54 80.94 141.26 77.65 144.19 C 77.13 145.55 77.44 147.06 77.17 148.48 C 75.91 151.64 74.23 154.60 72.87 157.70 C 75.04 157.70 77.37 157.58 79.02 159.23 C 75.07 158.15 70.94 158.70 66.90 158.70 C 62.58 158.99 59.02 161.53 55.65 164.01 C 57.40 161.30 60.41 159.47 63.59 159.01 C 63.01 156.32 60.19 155.54 58.12 154.30 C 56.06 153.61 55.80 150.89 53.77 150.16 C 51.66 149.09 49.06 148.51 47.62 146.48 C 46.53 145.24 46.09 143.32 44.30 142.85 C 44.88 144.68 45.64 146.45 46.09 148.32 C 44.34 146.31 44.07 143.46 42.96 141.09 C 43.17 140.84 43.59 140.33 43.80 140.08 C 43.14 136.72 40.33 134.28 38.84 131.25 C 37.62 128.82 34.21 127.31 34.72 124.21 C 35.80 120.32 38.87 117.18 39.50 113.12 C 38.70 111.97 38.61 109.95 37.18 109.43 C 35.70 114.12 32.74 118.23 31.40 122.94 C 32.34 127.66 35.11 131.78 36.81 136.26 C 38.14 139.81 39.16 143.51 41.03 146.83 C 42.49 149.61 44.63 151.98 45.93 154.85 C 41.41 150.11 38.68 143.97 36.67 137.82 C 35.04 132.70 31.88 128.19 30.59 122.95 C 32.75 116.41 37.24 110.55 38.46 103.71 C 32.70 105.62 26.44 105.50 20.54 104.31 M 72.26 103.70 C 71.52 105.19 70.97 106.78 70.18 108.25 C 66.95 111.47 61.86 110.74 58.32 113.37 C 56.49 114.60 54.66 116.02 52.42 116.35 C 50.08 116.42 48.14 114.86 46.22 113.75 C 44.25 113.67 42.06 112.84 40.20 113.70 C 38.93 117.27 37.05 120.55 35.31 123.89 C 35.32 124.60 35.32 126.02 35.33 126.73 C 40.44 126.01 45.04 122.93 50.16 121.94 C 52.39 121.72 54.67 122.10 56.88 121.64 C 63.95 119.04 71.62 120.64 78.97 120.29 C 84.14 119.67 87.88 124.55 92.80 124.59 C 93.53 122.92 95.30 120.96 94.14 119.08 C 90.66 116.28 86.58 114.33 83.18 111.42 C 79.42 108.89 76.32 105.56 72.77 102.77 L 72.26 103.70 M 22.28 119.18 L 21.91 119.94 L 22.36 120.71 L 23.18 120.72 L 23.52 119.96 L 23.06 119.20 L 22.28 119.18 M 60.32 121.28 C 57.04 122.69 53.46 122.38 49.99 122.58 C 46.00 123.78 42.04 125.20 38.22 126.86 L 38.22 128.31 C 41.81 128.85 44.51 125.58 47.98 125.32 C 50.95 125.06 53.98 125.56 56.91 124.86 C 60.57 124.00 64.13 122.36 67.96 122.56 C 71.59 122.62 75.23 122.44 78.85 122.63 C 81.31 122.75 83.70 124.23 86.17 123.41 C 82.31 119.96 76.79 120.66 72.03 120.75 C 68.13 121.04 64.12 120.16 60.32 121.28 M 60.06 124.66 C 55.81 126.43 51.11 125.47 46.65 125.85 C 46.54 126.67 46.32 128.33 46.22 129.16 C 48.74 129.11 51.62 130.42 53.92 128.87 C 55.22 127.74 56.68 129.07 58.05 129.32 C 59.10 128.71 60.07 127.96 61.13 127.36 C 62.99 126.70 64.82 128.84 66.55 127.65 C 67.89 126.68 69.41 127.65 70.84 127.75 C 72.20 127.04 73.25 125.43 74.94 125.56 C 78.06 125.21 81.63 126.17 84.35 124.23 C 79.64 123.10 74.78 123.52 69.99 123.44 C 66.65 123.39 63.21 123.38 60.06 124.66 M 84.83 124.88 C 84.30 126.20 84.62 127.26 85.81 128.08 C 87.92 127.69 86.87 123.53 84.83 124.88 M 76.83 126.13 C 76.29 127.83 76.41 129.65 76.52 131.41 C 79.34 132.40 81.33 128.49 79.79 126.24 C 79.05 126.21 77.57 126.16 76.83 126.13 M 80.53 125.97 C 80.64 126.81 80.86 128.48 80.97 129.32 C 82.88 129.12 85.55 127.47 83.44 125.48 C 82.71 125.60 81.26 125.85 80.53 125.97 M 73.06 126.89 C 72.22 127.48 71.44 128.15 70.72 128.88 C 70.76 130.47 70.72 132.19 71.70 133.55 C 73.24 133.73 74.48 133.24 75.43 132.08 C 75.92 130.16 75.85 128.15 75.81 126.20 C 75.13 126.37 73.75 126.72 73.06 126.89 M 89.46 127.25 C 86.83 129.72 83.83 131.75 81.22 134.26 C 77.61 137.19 74.36 140.91 69.87 142.51 C 64.40 142.41 58.96 142.96 53.53 143.67 C 50.61 143.58 48.57 141.13 46.69 139.20 C 44.78 137.20 44.02 134.09 41.35 132.92 C 41.86 135.54 43.84 137.55 44.65 140.08 C 46.26 144.21 49.12 148.58 53.87 149.21 C 60.82 148.76 68.42 149.52 74.54 145.53 C 78.35 143.47 80.85 139.85 83.60 136.64 C 86.24 133.95 88.48 130.90 90.59 127.78 L 90.44 126.37 L 89.46 127.25 M 53.92 128.87 C 52.85 131.21 53.33 133.85 53.34 136.34 C 54.42 136.32 56.56 136.29 57.64 136.28 C 57.97 133.49 58.04 128.29 53.92 128.87 M 60.04 128.69 C 57.59 129.98 58.79 133.18 58.48 135.41 C 60.46 135.34 62.44 135.16 64.37 134.70 C 64.49 132.58 64.51 130.46 64.46 128.35 C 62.91 128.04 61.43 128.15 60.04 128.69 M 65.64 128.50 C 65.50 130.48 64.45 132.84 65.46 134.64 C 67.28 134.93 69.04 134.30 70.51 133.27 C 70.49 131.78 70.36 130.30 70.14 128.83 C 68.69 128.08 67.19 127.97 65.64 128.50 M 46.38 130.19 C 45.38 132.55 46.52 135.32 49.01 136.06 C 49.68 133.84 48.70 130.75 46.70 129.37 L 46.38 130.19 M 49.57 129.84 C 49.47 132.10 48.89 137.03 52.49 136.36 C 52.69 134.51 52.71 132.64 52.50 130.80 C 51.77 130.56 50.30 130.08 49.57 129.84 M 82.42 130.55 C 79.57 131.81 77.49 134.21 75.08 136.11 C 74.16 136.83 73.78 137.80 73.95 139.01 C 76.24 138.64 77.11 136.15 79.08 135.18 C 80.43 134.54 80.84 132.89 82.14 132.22 C 83.17 131.78 83.86 131.02 84.22 129.95 C 83.77 130.10 82.87 130.40 82.42 130.55 M 71.21 136.98 C 69.38 138.01 68.63 139.70 69.27 141.77 C 72.00 141.86 74.60 139.54 73.23 136.71 L 72.03 136.35 L 71.21 136.98 M 50.61 138.53 C 49.64 139.26 50.16 142.88 51.41 140.79 C 51.91 140.11 51.98 136.83 50.61 138.53 M 64.30 138.52 C 64.14 139.30 63.83 140.85 63.67 141.63 C 65.30 141.76 66.93 141.77 68.56 141.68 C 68.53 140.75 68.49 138.90 68.47 137.98 C 67.06 138.07 65.68 138.25 64.30 138.52 M 53.01 138.94 C 51.87 139.85 51.79 142.60 53.27 143.25 C 55.15 142.86 54.56 139.40 53.01 138.94 M 55.41 139.37 C 54.62 140.26 54.65 142.37 55.98 142.74 C 58.25 142.63 57.73 138.05 55.41 139.37 M 58.34 138.95 C 58.37 139.92 58.45 141.86 58.49 142.84 C 60.43 142.01 64.06 142.22 63.28 139.12 C 61.64 138.97 59.99 138.91 58.34 138.95 Z" />
<path fill="#ffffff" opacity="1.00" d=" M 71.02 3.95 C 73.99 3.57 77.00 3.76 79.99 3.71 C 84.01 3.46 87.74 5.21 91.43 6.54 C 97.11 8.48 102.27 11.62 107.94 13.60 C 114.92 16.13 119.87 21.94 124.26 27.64 C 127.44 32.72 129.60 38.34 131.54 43.99 C 132.11 46.94 131.96 49.97 131.96 52.96 C 132.41 54.53 131.07 55.58 130.57 56.75 C 131.97 58.51 132.27 60.81 132.48 62.98 C 126.54 66.25 120.40 69.21 113.87 71.09 C 108.11 72.80 103.52 77.56 97.36 77.95 C 97.74 75.94 98.45 73.95 98.27 71.87 C 96.10 68.38 92.66 65.79 88.84 64.30 C 85.53 62.59 81.66 63.31 78.15 63.81 C 73.27 65.30 68.21 66.74 64.13 69.94 C 60.73 72.29 58.51 75.88 56.53 79.42 C 56.07 81.45 56.24 83.59 55.49 85.57 C 57.48 86.03 58.43 83.48 59.35 82.14 C 61.04 77.21 65.98 74.79 70.14 72.26 C 75.63 68.92 82.57 68.71 88.57 70.68 C 90.71 71.39 91.67 73.45 92.86 75.16 C 93.54 76.45 96.25 76.08 95.75 77.95 C 94.99 78.16 93.47 78.56 92.71 78.77 C 91.24 76.89 91.21 74.01 88.98 72.71 C 85.39 70.30 80.94 71.73 76.92 71.39 C 72.80 71.85 69.26 74.37 65.85 76.55 C 63.37 78.10 61.34 80.32 60.38 83.12 C 60.95 83.46 62.10 84.14 62.68 84.47 C 62.00 84.98 61.32 85.49 60.65 86.01 C 61.31 86.81 61.98 87.62 62.65 88.42 C 60.65 88.19 58.19 89.15 56.55 87.59 C 54.38 85.58 50.98 86.38 48.78 87.93 C 48.22 89.64 48.27 91.48 48.22 93.26 C 49.61 91.58 49.54 89.22 50.78 87.48 C 52.46 87.37 54.48 86.70 55.97 87.80 C 57.26 88.44 57.19 90.04 57.65 91.21 C 57.52 89.66 58.10 88.92 59.38 88.99 C 59.80 90.70 60.28 92.39 60.76 94.08 C 59.96 93.55 58.36 92.51 57.56 91.99 C 59.91 94.89 63.91 95.90 66.02 99.12 C 65.44 101.10 63.11 100.56 61.61 101.16 C 60.22 101.47 59.36 102.71 58.35 103.61 C 60.91 101.54 64.30 101.60 66.87 99.59 C 68.45 100.62 69.96 101.75 71.45 102.91 C 70.90 104.95 70.53 107.38 68.62 108.65 C 66.12 110.63 62.81 110.71 59.83 111.40 C 59.65 110.85 59.30 109.76 59.12 109.21 C 57.65 109.94 60.90 112.24 58.39 112.63 C 56.70 113.80 54.93 114.90 53.03 115.69 C 50.63 116.13 48.41 114.59 46.88 112.91 C 45.30 111.31 47.28 108.14 45.31 106.91 C 45.18 108.96 45.49 110.99 45.88 113.01 C 43.90 112.76 41.91 112.61 39.93 112.34 C 37.85 109.72 38.05 105.66 40.38 103.26 C 40.93 101.38 42.44 103.17 43.44 103.43 C 42.80 102.44 41.56 101.26 42.71 100.04 C 43.64 97.44 44.79 94.91 46.61 92.81 C 45.96 92.19 45.30 91.58 44.65 90.96 C 45.38 90.40 46.12 89.83 46.86 89.27 C 43.88 88.90 44.03 85.35 41.73 84.06 C 39.74 82.21 37.07 81.52 34.68 80.36 C 29.04 77.56 22.47 78.42 16.48 79.43 C 13.94 80.84 14.75 84.78 12.73 86.35 C 12.98 83.77 13.27 81.17 14.03 78.69 C 25.40 75.40 39.03 77.47 46.94 86.90 C 49.35 85.63 51.64 84.17 54.52 84.46 C 53.23 83.38 51.47 83.82 49.95 83.55 C 47.76 80.41 45.40 77.15 41.89 75.39 C 39.90 74.43 38.01 73.27 36.00 72.35 C 30.20 72.13 24.39 72.52 18.63 73.15 C 18.44 69.42 18.98 65.62 18.00 61.96 C 16.66 50.46 19.11 37.98 26.61 28.89 C 29.52 24.15 34.20 20.98 38.17 17.21 C 41.10 14.22 44.87 12.31 48.47 10.28 C 55.63 7.11 63.15 4.48 71.02 3.95 M 53.16 57.46 C 52.39 58.85 52.63 60.48 52.58 62.00 C 52.66 65.97 52.45 69.94 52.50 73.91 C 52.87 72.58 53.19 71.23 53.64 69.93 C 55.52 68.62 57.60 67.65 59.52 66.41 C 60.95 65.17 62.14 63.63 63.77 62.61 C 66.08 61.25 68.67 60.46 71.02 59.18 C 66.86 59.83 62.97 62.02 59.97 64.96 C 57.96 66.73 55.63 68.09 53.27 69.34 C 53.00 65.24 53.14 61.13 53.36 57.03 L 53.16 57.46 M 78.51 57.81 C 77.78 58.04 77.23 58.55 76.87 59.33 C 79.13 58.66 81.42 58.08 83.71 57.48 C 81.98 57.20 80.22 57.61 78.51 57.81 M 24.53 65.72 C 23.13 65.97 21.92 66.74 20.93 67.72 C 23.61 66.95 26.22 65.63 29.08 65.73 C 30.77 66.03 32.41 66.60 34.12 66.83 C 31.36 64.93 27.67 65.08 24.53 65.72 M 44.55 65.23 C 45.18 66.43 45.82 67.62 46.49 68.80 C 44.82 68.76 43.15 68.75 41.48 68.79 C 41.53 68.93 41.62 69.21 41.67 69.35 C 43.48 69.43 45.31 69.23 47.11 69.52 C 47.97 70.98 48.81 72.46 49.72 73.90 C 50.21 70.02 47.02 67.62 44.55 65.23 Z" />
<path fill="#000000" opacity="1.00" d=" M 53.16 57.46 L 53.36 57.03 C 53.14 61.13 53.00 65.24 53.27 69.34 C 55.63 68.09 57.96 66.73 59.97 64.96 C 62.97 62.02 66.86 59.83 71.02 59.18 C 68.67 60.46 66.08 61.25 63.77 62.61 C 62.14 63.63 60.95 65.17 59.52 66.41 C 57.60 67.65 55.52 68.62 53.64 69.93 C 53.19 71.23 52.87 72.58 52.50 73.91 C 52.45 69.94 52.66 65.97 52.58 62.00 C 52.63 60.48 52.39 58.85 53.16 57.46 Z" />
<path fill="#000000" opacity="1.00" d=" M 78.51 57.81 C 80.22 57.61 81.98 57.20 83.71 57.48 C 81.42 58.08 79.13 58.66 76.87 59.33 C 77.23 58.55 77.78 58.04 78.51 57.81 Z" />
<path fill="#000000" opacity="1.00" d=" M 24.53 65.72 C 27.67 65.08 31.36 64.93 34.12 66.83 C 32.41 66.60 30.77 66.03 29.08 65.73 C 26.22 65.63 23.61 66.95 20.93 67.72 C 21.92 66.74 23.13 65.97 24.53 65.72 Z" />
<path fill="#000000" opacity="1.00" d=" M 44.55 65.23 C 47.02 67.62 50.21 70.02 49.72 73.90 C 48.81 72.46 47.97 70.98 47.11 69.52 C 45.31 69.23 43.48 69.43 41.67 69.35 C 41.62 69.21 41.53 68.93 41.48 68.79 C 43.15 68.75 44.82 68.76 46.49 68.80 C 45.82 67.62 45.18 66.43 44.55 65.23 Z" />
<path fill="#ffffff" opacity="1.00" d=" M 130.38 65.47 C 130.86 65.35 131.83 65.09 132.31 64.97 C 129.78 67.07 126.83 68.68 123.98 70.32 C 118.80 71.64 114.08 74.25 109.23 76.43 C 106.56 78.01 103.45 78.53 100.74 79.98 C 98.92 81.64 97.65 83.81 95.98 85.62 C 94.71 83.66 92.45 81.72 93.28 79.12 C 94.11 78.87 95.78 78.37 96.61 78.12 C 97.22 80.23 96.12 81.84 94.88 83.38 C 96.91 82.39 98.46 80.56 97.21 78.23 C 97.88 78.32 99.21 78.51 99.88 78.61 C 106.83 75.15 113.63 71.25 121.18 69.20 C 124.47 68.53 127.26 66.60 130.38 65.47 Z" />
<path fill="#ffffff" opacity="1.00" d=" M 130.88 67.68 C 132.31 66.83 134.34 67.61 134.79 69.20 C 132.98 69.43 130.92 69.12 129.38 70.32 C 127.81 71.48 126.70 73.14 125.64 74.75 C 124.42 75.57 125.32 76.81 125.79 77.69 C 126.28 76.85 127.27 75.16 127.77 74.31 C 131.20 75.78 132.69 79.63 133.27 83.05 C 133.38 87.53 133.92 92.16 132.74 96.54 C 132.60 98.20 128.94 97.80 130.41 99.75 C 131.36 99.55 132.85 99.70 133.24 98.55 C 135.11 94.65 134.56 90.20 135.77 86.13 C 136.63 83.54 137.02 80.81 136.81 78.08 C 134.08 77.70 136.71 81.51 134.53 82.02 C 133.45 78.57 132.02 75.21 129.08 72.94 C 129.39 70.80 132.28 69.91 134.16 70.70 C 135.99 73.14 137.28 75.95 138.32 78.81 C 138.72 79.90 138.22 81.02 137.94 82.07 C 136.46 86.19 136.74 90.66 136.71 94.97 C 137.30 98.34 138.05 101.95 136.03 105.03 C 134.13 106.86 131.66 105.46 129.88 104.24 C 128.20 102.42 127.24 100.06 126.24 97.83 C 126.99 97.01 127.77 96.23 128.58 95.48 C 129.52 94.38 131.33 94.58 132.09 93.28 C 128.91 92.22 127.33 96.16 124.22 95.52 C 125.07 98.30 125.97 101.09 127.38 103.65 C 128.82 105.65 131.41 106.26 133.24 107.82 C 133.78 114.90 132.54 121.92 132.63 128.99 C 132.53 132.75 131.13 136.31 129.94 139.82 C 127.68 145.49 122.81 149.54 117.79 152.71 C 114.41 154.55 111.85 157.48 108.74 159.67 C 103.70 163.16 100.44 169.13 94.44 171.16 C 96.68 167.83 99.23 164.60 100.46 160.72 C 103.51 150.47 107.34 140.45 109.65 130.00 C 111.26 125.13 110.99 119.97 111.87 114.97 C 112.21 113.58 112.03 112.17 111.55 110.85 C 110.68 116.55 110.92 122.39 109.52 128.00 C 107.50 138.36 103.39 148.15 100.66 158.32 C 98.37 166.41 92.53 173.40 85.00 177.13 C 79.79 177.54 74.43 177.38 69.35 176.09 L 68.74 174.73 C 76.39 174.46 83.24 170.68 89.40 166.45 C 94.55 162.42 98.18 156.61 99.99 150.36 C 100.96 144.28 102.59 138.34 104.23 132.41 C 105.57 123.68 106.40 114.64 104.44 105.92 C 104.21 109.27 104.81 112.63 104.66 116.00 C 104.57 122.20 105.14 128.89 102.10 134.54 L 100.93 134.79 C 98.98 133.42 97.11 131.56 96.81 129.08 C 95.93 125.57 96.28 121.67 94.37 118.48 C 88.80 114.47 82.78 111.00 77.77 106.23 C 75.90 104.37 73.54 103.06 71.84 101.04 C 78.05 99.97 84.79 100.45 90.48 97.38 C 92.81 95.42 94.70 92.95 96.35 90.40 C 96.77 88.70 96.66 86.89 97.28 85.24 C 99.05 82.44 101.56 79.96 104.79 78.95 C 110.72 76.74 116.26 73.62 122.16 71.36 L 123.30 71.54 C 121.97 73.50 120.13 75.33 120.30 77.90 C 119.66 80.17 121.33 82.02 122.30 83.87 C 122.14 87.69 122.89 91.42 124.33 94.95 C 126.78 93.75 128.79 91.67 130.84 89.88 C 133.37 87.25 132.54 83.26 130.26 80.78 C 128.79 78.51 125.51 79.89 123.94 77.65 C 124.07 79.37 123.44 80.44 122.05 80.86 C 120.97 78.21 122.32 75.28 124.08 73.27 C 125.86 70.89 128.26 69.06 130.88 67.68 M 98.14 101.75 C 96.69 103.45 94.98 104.89 93.24 106.28 C 94.50 105.83 95.79 105.43 97.05 104.95 C 97.93 103.74 98.43 102.30 98.96 100.92 C 98.76 101.13 98.35 101.54 98.14 101.75 Z" />
<path fill="#ffffff" opacity="1.00" d=" M 123.28 71.05 L 123.79 71.06 L 123.79 71.57 L 123.30 71.54 L 123.28 71.05 Z" />
<path fill="#ffffff" opacity="1.00" d=" M 136.24 71.26 L 136.74 71.25 L 136.75 71.75 L 136.25 71.75 L 136.24 71.26 Z" />
<path fill="#ffffff" opacity="1.00" d=" M 79.26 75.33 C 80.87 75.11 82.02 75.64 81.49 77.40 C 79.95 78.21 77.79 76.94 79.26 75.33 Z" />
<path fill="#ffffff" opacity="1.00" d=" M 83.32 75.36 C 83.71 75.33 84.51 75.25 84.90 75.21 C 87.39 76.69 88.73 79.76 88.50 82.60 C 87.22 82.82 87.21 81.27 86.72 80.49 C 86.09 78.47 84.51 77.03 83.32 75.36 Z" />
<path fill="#ffffff" opacity="1.00" d=" M 71.67 79.71 C 71.95 79.55 72.52 79.23 72.80 79.07 C 71.29 80.33 69.51 81.30 68.31 82.90 C 68.17 85.23 69.05 87.44 69.40 89.71 C 66.55 89.84 65.26 86.06 65.52 83.64 C 67.03 81.57 69.64 81.07 71.67 79.71 Z" />
<path fill="#ffffff" opacity="1.00" d=" M 124.03 83.51 C 125.01 82.30 125.76 80.20 127.61 80.30 C 130.89 81.94 131.79 86.70 129.54 89.54 C 128.62 90.17 127.67 90.75 126.68 91.26 C 128.08 89.35 129.73 86.83 128.36 84.43 C 127.84 82.37 125.48 83.57 124.03 83.51 Z" />
<path fill="#ffffff" opacity="1.00" d=" M 21.48 82.62 C 23.07 81.10 24.59 82.84 25.57 84.10 C 24.79 84.57 23.98 84.99 23.15 85.37 C 22.49 84.52 21.93 83.59 21.48 82.62 Z" />
<path fill="#ffffff" opacity="1.00" d=" M 124.62 85.64 C 125.28 85.37 126.59 84.83 127.25 84.56 C 128.03 87.07 126.76 89.39 124.80 90.90 C 123.49 89.53 123.20 87.01 124.62 85.64 Z" />
<path fill="#ffffff" opacity="1.00" d=" M 20.52 86.18 C 21.70 86.78 23.29 87.83 22.53 89.38 C 21.96 89.45 20.84 89.60 20.27 89.67 C 20.19 88.49 20.27 87.33 20.52 86.18 Z" />
<path fill="#ffffff" opacity="1.00" d=" M 95.40 85.78 L 96.38 85.59 C 97.07 90.18 93.43 93.55 90.53 96.52 C 84.82 100.22 77.57 98.72 71.37 100.79 C 70.76 100.05 70.31 99.21 70.04 98.27 C 76.86 97.89 84.73 99.12 90.40 94.41 C 93.21 92.36 94.30 88.92 95.40 85.78 Z" />
<path fill="#ffffff" opacity="1.00" d=" M 39.27 86.82 C 42.33 88.09 42.82 93.00 39.31 93.97 C 39.23 91.59 39.39 89.20 39.27 86.82 Z" />
<path fill="#ffffff" opacity="1.00" d=" M 12.15 87.88 C 14.37 86.28 14.10 90.81 12.02 89.28 L 11.75 88.59 L 12.15 87.88 Z" />
<path fill="#ffffff" opacity="1.00" d=" M 125.32 91.25 L 126.01 90.82 L 126.68 91.26 L 126.62 92.10 L 125.92 92.53 L 125.26 92.10 L 125.32 91.25 Z" />
<path fill="#ffffff" opacity="1.00" d=" M 12.30 92.35 L 13.28 92.48 C 14.73 94.41 10.73 94.03 12.30 92.35 Z" />
<path fill="#ffffff" opacity="1.00" d=" M 13.47 96.40 C 12.39 95.53 14.43 92.41 14.87 95.78 C 17.40 98.63 19.92 102.15 24.03 102.53 C 27.89 102.59 31.68 103.46 35.54 103.31 L 35.47 104.36 C 31.62 104.50 27.78 104.49 23.93 104.40 C 21.60 104.61 20.42 102.32 19.03 100.90 C 17.50 98.99 14.80 98.50 13.47 96.40 Z" />
<path fill="#ffffff" opacity="1.00" d=" M 40.09 100.95 L 40.67 100.80 L 40.82 101.37 L 40.21 101.53 L 40.09 100.95 Z" />
<path fill="#ffffff" opacity="1.00" d=" M 38.53 101.75 L 39.40 101.28 L 40.21 101.53 L 40.14 102.26 L 39.25 102.73 L 38.40 102.52 L 38.53 101.75 Z" />
<path fill="#000000" opacity="1.00" d=" M 98.14 101.75 C 98.35 101.54 98.76 101.13 98.96 100.92 C 98.43 102.30 97.93 103.74 97.05 104.95 C 95.79 105.43 94.50 105.83 93.24 106.28 C 94.98 104.89 96.69 103.45 98.14 101.75 Z" />
<path fill="#ffffff" opacity="1.00" d=" M 35.54 103.31 C 35.99 102.14 36.94 101.88 38.40 102.52 L 38.26 103.14 C 37.58 103.18 36.22 103.26 35.54 103.31 Z" />
<path fill="#ffffff" opacity="1.00" d=" M 38.26 103.14 L 38.79 103.01 L 38.96 103.55 L 38.46 103.71 L 38.26 103.14 Z" />
<path fill="#ffffff" opacity="1.00" d=" M 20.54 104.31 C 26.44 105.50 32.70 105.62 38.46 103.71 C 37.24 110.55 32.75 116.41 30.59 122.95 C 31.88 128.19 35.04 132.70 36.67 137.82 C 38.68 143.97 41.41 150.11 45.93 154.85 C 44.63 151.98 42.49 149.61 41.03 146.83 C 39.16 143.51 38.14 139.81 36.81 136.26 C 35.11 131.78 32.34 127.66 31.40 122.94 C 32.74 118.23 35.70 114.12 37.18 109.43 C 38.61 109.95 38.70 111.97 39.50 113.12 C 38.87 117.18 35.80 120.32 34.72 124.21 C 34.21 127.31 37.62 128.82 38.84 131.25 C 40.33 134.28 43.14 136.72 43.80 140.08 C 43.59 140.33 43.17 140.84 42.96 141.09 C 44.07 143.46 44.34 146.31 46.09 148.32 C 45.64 146.45 44.88 144.68 44.30 142.85 C 46.09 143.32 46.53 145.24 47.62 146.48 C 49.06 148.51 51.66 149.09 53.77 150.16 C 55.80 150.89 56.06 153.61 58.12 154.30 C 60.19 155.54 63.01 156.32 63.59 159.01 C 60.41 159.47 57.40 161.30 55.65 164.01 C 59.02 161.53 62.58 158.99 66.90 158.70 C 70.94 158.70 75.07 158.15 79.02 159.23 C 77.37 157.58 75.04 157.70 72.87 157.70 C 74.23 154.60 75.91 151.64 77.17 148.48 C 77.44 147.06 77.13 145.55 77.65 144.19 C 80.94 141.26 83.35 137.54 86.45 134.42 C 88.67 131.60 91.34 128.84 91.97 125.16 C 93.92 127.51 92.87 130.73 93.69 133.44 C 94.35 135.22 95.38 136.82 96.14 138.55 C 93.16 143.79 90.20 149.05 86.31 153.68 C 91.74 149.99 93.20 143.07 97.48 138.36 C 96.17 136.83 94.49 135.35 94.44 133.17 C 94.16 129.95 92.88 126.64 93.87 123.45 L 95.00 123.26 C 95.79 126.13 96.07 129.13 96.97 131.97 C 98.34 133.93 100.31 135.44 102.80 135.49 C 101.41 140.58 100.10 145.71 99.28 150.91 C 96.49 158.66 91.18 166.48 83.03 169.13 C 84.02 167.03 85.73 165.02 85.28 162.54 C 85.16 162.52 84.91 162.48 84.79 162.46 C 84.43 165.11 83.32 167.55 82.38 170.03 C 76.55 173.61 69.56 174.29 62.88 173.58 C 60.80 172.68 58.94 171.35 56.93 170.30 C 52.60 168.33 50.11 164.00 47.68 160.14 C 45.85 157.08 42.36 155.60 40.34 152.71 C 37.02 148.19 33.09 144.03 30.73 138.88 C 27.40 132.15 26.19 124.62 23.09 117.79 C 21.15 113.59 20.19 108.93 20.54 104.31 M 24.32 111.42 C 25.36 113.13 26.94 114.11 29.01 113.92 C 27.47 113.06 25.90 112.23 24.32 111.42 M 45.91 148.87 C 47.07 151.02 48.90 152.70 50.29 154.70 C 51.60 156.46 52.63 158.53 54.50 159.78 C 51.90 155.99 49.54 151.77 45.91 148.87 M 68.64 165.84 C 66.88 166.43 64.66 166.55 63.77 168.46 C 65.59 167.68 67.37 166.78 69.29 166.26 C 69.58 166.83 70.15 167.97 70.44 168.54 C 71.48 168.32 72.02 166.73 72.54 165.76 C 71.24 165.69 69.92 165.58 68.64 165.84 Z" />
<path fill="#ffffff" opacity="1.00" d=" M 72.26 103.70 L 72.77 102.77 C 76.32 105.56 79.42 108.89 83.18 111.42 C 86.58 114.33 90.66 116.28 94.14 119.08 C 95.30 120.96 93.53 122.92 92.80 124.59 C 87.88 124.55 84.14 119.67 78.97 120.29 C 71.62 120.64 63.95 119.04 56.88 121.64 C 54.67 122.10 52.39 121.72 50.16 121.94 C 45.04 122.93 40.44 126.01 35.33 126.73 C 35.32 126.02 35.32 124.60 35.31 123.89 C 37.05 120.55 38.93 117.27 40.20 113.70 C 42.06 112.84 44.25 113.67 46.22 113.75 C 48.14 114.86 50.08 116.42 52.42 116.35 C 54.66 116.02 56.49 114.60 58.32 113.37 C 61.86 110.74 66.95 111.47 70.18 108.25 C 70.97 106.78 71.52 105.19 72.26 103.70 Z" />
<path fill="#000000" opacity="1.00" d=" M 24.32 111.42 C 25.90 112.23 27.47 113.06 29.01 113.92 C 26.94 114.11 25.36 113.13 24.32 111.42 Z" />
<path fill="#ffffff" opacity="1.00" d=" M 22.28 119.18 L 23.06 119.20 L 23.52 119.96 L 23.18 120.72 L 22.36 120.71 L 21.91 119.94 L 22.28 119.18 Z" />
<path fill="#ffffff" opacity="1.00" d=" M 60.32 121.28 C 64.12 120.16 68.13 121.04 72.03 120.75 C 76.79 120.66 82.31 119.96 86.17 123.41 C 83.70 124.23 81.31 122.75 78.85 122.63 C 75.23 122.44 71.59 122.62 67.96 122.56 C 64.13 122.36 60.57 124.00 56.91 124.86 C 53.98 125.56 50.95 125.06 47.98 125.32 C 44.51 125.58 41.81 128.85 38.22 128.31 L 38.22 126.86 C 42.04 125.20 46.00 123.78 49.99 122.58 C 53.46 122.38 57.04 122.69 60.32 121.28 Z" />
<path fill="#ffffff" opacity="1.00" d=" M 60.06 124.66 C 63.21 123.38 66.65 123.39 69.99 123.44 C 74.78 123.52 79.64 123.10 84.35 124.23 C 81.63 126.17 78.06 125.21 74.94 125.56 C 73.25 125.43 72.20 127.04 70.84 127.75 C 69.41 127.65 67.89 126.68 66.55 127.65 C 64.82 128.84 62.99 126.70 61.13 127.36 C 60.07 127.96 59.10 128.71 58.05 129.32 C 56.68 129.07 55.22 127.74 53.92 128.87 C 51.62 130.42 48.74 129.11 46.22 129.16 C 46.32 128.33 46.54 126.67 46.65 125.85 C 51.11 125.47 55.81 126.43 60.06 124.66 Z" />
<path fill="#ffffff" opacity="1.00" d=" M 84.83 124.88 C 86.87 123.53 87.92 127.69 85.81 128.08 C 84.62 127.26 84.30 126.20 84.83 124.88 Z" />
<path fill="#ffffff" opacity="1.00" d=" M 76.83 126.13 C 77.57 126.16 79.05 126.21 79.79 126.24 C 81.33 128.49 79.34 132.40 76.52 131.41 C 76.41 129.65 76.29 127.83 76.83 126.13 Z" />
<path fill="#ffffff" opacity="1.00" d=" M 80.53 125.97 C 81.26 125.85 82.71 125.60 83.44 125.48 C 85.55 127.47 82.88 129.12 80.97 129.32 C 80.86 128.48 80.64 126.81 80.53 125.97 Z" />
<path fill="#ffffff" opacity="1.00" d=" M 73.06 126.89 C 73.75 126.72 75.13 126.37 75.81 126.20 C 75.85 128.15 75.92 130.16 75.43 132.08 C 74.48 133.24 73.24 133.73 71.70 133.55 C 70.72 132.19 70.76 130.47 70.72 128.88 C 71.44 128.15 72.22 127.48 73.06 126.89 Z" />
<path fill="#ffffff" opacity="1.00" d=" M 89.46 127.25 L 90.44 126.37 L 90.59 127.78 C 88.48 130.90 86.24 133.95 83.60 136.64 C 80.85 139.85 78.35 143.47 74.54 145.53 C 68.42 149.52 60.82 148.76 53.87 149.21 C 49.12 148.58 46.26 144.21 44.65 140.08 C 43.84 137.55 41.86 135.54 41.35 132.92 C 44.02 134.09 44.78 137.20 46.69 139.20 C 48.57 141.13 50.61 143.58 53.53 143.67 C 58.96 142.96 64.40 142.41 69.87 142.51 C 74.36 140.91 77.61 137.19 81.22 134.26 C 83.83 131.75 86.83 129.72 89.46 127.25 Z" />
<path fill="#ffffff" opacity="1.00" d=" M 53.92 128.87 C 58.04 128.29 57.97 133.49 57.64 136.28 C 56.56 136.29 54.42 136.32 53.34 136.34 C 53.33 133.85 52.85 131.21 53.92 128.87 Z" />
<path fill="#ffffff" opacity="1.00" d=" M 60.04 128.69 C 61.43 128.15 62.91 128.04 64.46 128.35 C 64.51 130.46 64.49 132.58 64.37 134.70 C 62.44 135.16 60.46 135.34 58.48 135.41 C 58.79 133.18 57.59 129.98 60.04 128.69 Z" />
<path fill="#ffffff" opacity="1.00" d=" M 65.64 128.50 C 67.19 127.97 68.69 128.08 70.14 128.83 C 70.36 130.30 70.49 131.78 70.51 133.27 C 69.04 134.30 67.28 134.93 65.46 134.64 C 64.45 132.84 65.50 130.48 65.64 128.50 Z" />
<path fill="#ffffff" opacity="1.00" d=" M 46.38 130.19 L 46.70 129.37 C 48.70 130.75 49.68 133.84 49.01 136.06 C 46.52 135.32 45.38 132.55 46.38 130.19 Z" />
<path fill="#ffffff" opacity="1.00" d=" M 49.57 129.84 C 50.30 130.08 51.77 130.56 52.50 130.80 C 52.71 132.64 52.69 134.51 52.49 136.36 C 48.89 137.03 49.47 132.10 49.57 129.84 Z" />
<path fill="#ffffff" opacity="1.00" d=" M 82.42 130.55 C 82.87 130.40 83.77 130.10 84.22 129.95 C 83.86 131.02 83.17 131.78 82.14 132.22 C 80.84 132.89 80.43 134.54 79.08 135.18 C 77.11 136.15 76.24 138.64 73.95 139.01 C 73.78 137.80 74.16 136.83 75.08 136.11 C 77.49 134.21 79.57 131.81 82.42 130.55 Z" />
<path fill="#ffffff" opacity="1.00" d=" M 71.21 136.98 L 72.03 136.35 L 73.23 136.71 C 74.60 139.54 72.00 141.86 69.27 141.77 C 68.63 139.70 69.38 138.01 71.21 136.98 Z" />
<path fill="#ffffff" opacity="1.00" d=" M 50.61 138.53 C 51.98 136.83 51.91 140.11 51.41 140.79 C 50.16 142.88 49.64 139.26 50.61 138.53 Z" />
<path fill="#ffffff" opacity="1.00" d=" M 64.30 138.52 C 65.68 138.25 67.06 138.07 68.47 137.98 C 68.49 138.90 68.53 140.75 68.56 141.68 C 66.93 141.77 65.30 141.76 63.67 141.63 C 63.83 140.85 64.14 139.30 64.30 138.52 Z" />
<path fill="#ffffff" opacity="1.00" d=" M 53.01 138.94 C 54.56 139.40 55.15 142.86 53.27 143.25 C 51.79 142.60 51.87 139.85 53.01 138.94 Z" />
<path fill="#ffffff" opacity="1.00" d=" M 55.41 139.37 C 57.73 138.05 58.25 142.63 55.98 142.74 C 54.65 142.37 54.62 140.26 55.41 139.37 Z" />
<path fill="#ffffff" opacity="1.00" d=" M 58.34 138.95 C 59.99 138.91 61.64 138.97 63.28 139.12 C 64.06 142.22 60.43 142.01 58.49 142.84 C 58.45 141.86 58.37 139.92 58.34 138.95 Z" />
<path fill="#000000" opacity="1.00" d=" M 45.91 148.87 C 49.54 151.77 51.90 155.99 54.50 159.78 C 52.63 158.53 51.60 156.46 50.29 154.70 C 48.90 152.70 47.07 151.02 45.91 148.87 Z" />
<path fill="#000000" opacity="1.00" d=" M 68.64 165.84 C 69.92 165.58 71.24 165.69 72.54 165.76 C 72.02 166.73 71.48 168.32 70.44 168.54 C 70.15 167.97 69.58 166.83 69.29 166.26 C 67.37 166.78 65.59 167.68 63.77 168.46 C 64.66 166.55 66.88 166.43 68.64 165.84 Z" />
</svg>
