<?xml version="1.0" encoding="UTF-8" ?>
<!DOCTYPE svg PUBLIC "-//W3C//DTD SVG 1.1//EN" "http://www.w3.org/Graphics/SVG/1.1/DTD/svg11.dtd">
<svg width="308pt" height="177pt" viewBox="0 0 308 177" version="1.1" xmlns="http://www.w3.org/2000/svg">
<g id="#ffffffff">
<path fill="#ffffff" opacity="1.00" d=" M 0.00 0.00 L 308.00 0.00 L 308.00 177.00 L 0.00 177.00 L 0.00 0.00 M 138.21 10.34 C 133.07 16.01 131.50 23.78 130.01 31.05 C 128.29 40.41 126.99 49.84 126.04 59.31 C 125.85 61.32 123.46 61.29 121.96 61.24 C 119.23 60.91 116.76 63.04 114.07 62.08 C 110.65 61.21 107.05 61.79 103.80 62.96 C 97.31 67.75 98.00 76.77 96.75 83.87 C 95.71 85.58 93.64 86.30 92.13 87.52 C 90.71 87.91 89.31 88.32 87.92 88.77 C 84.85 89.77 81.70 90.31 78.52 90.73 C 72.70 93.55 66.22 94.92 60.68 98.31 C 56.41 100.69 54.55 105.40 52.31 109.48 C 50.53 113.92 48.12 118.06 46.33 122.48 C 45.22 123.01 44.12 123.52 43.02 124.05 C 35.28 128.37 27.26 132.62 20.95 138.96 C 15.98 143.96 14.60 151.20 13.62 157.91 C 13.13 161.32 14.42 165.03 12.71 168.20 C 13.14 168.66 13.57 169.13 14.00 169.61 C 14.63 162.70 14.41 155.38 17.10 148.91 C 17.26 146.67 17.90 144.48 19.43 142.78 C 26.31 134.13 36.52 129.16 45.93 123.81 C 50.19 121.21 54.07 118.04 58.18 115.22 C 68.12 107.79 78.56 100.99 88.02 92.96 C 91.12 91.01 93.83 88.52 96.54 86.07 C 96.70 88.32 95.67 91.10 97.30 93.05 C 97.99 89.52 98.52 85.94 98.46 82.33 C 102.03 79.70 103.71 75.35 105.56 71.48 C 107.31 68.95 103.81 67.58 102.38 66.15 C 105.95 62.54 111.40 63.22 115.99 63.64 C 118.72 63.71 121.16 65.03 123.64 66.01 C 123.91 69.76 123.64 73.51 123.74 77.26 C 122.13 79.29 120.67 81.44 118.96 83.39 C 117.59 83.51 116.87 82.81 116.82 81.30 C 117.88 79.51 118.99 77.75 120.20 76.05 C 119.82 74.47 119.63 72.86 119.53 71.24 C 116.81 71.09 113.37 68.28 111.14 70.81 L 112.02 71.05 C 110.52 75.71 111.55 80.69 114.44 84.58 C 116.07 86.30 114.96 88.97 116.15 90.74 C 117.87 89.35 118.89 87.34 120.06 85.52 C 120.78 85.97 121.50 86.44 122.21 86.92 C 124.57 84.61 126.68 82.07 128.24 79.14 C 128.28 78.23 128.36 76.39 128.39 75.47 C 129.20 77.81 130.59 80.30 130.36 82.77 C 127.23 84.62 124.92 87.45 122.38 89.98 L 122.48 90.61 C 120.21 92.98 117.84 95.27 115.28 97.33 C 112.38 98.84 109.47 100.47 106.19 100.98 C 104.71 102.74 101.72 103.56 101.25 105.90 L 100.91 105.16 C 100.48 105.63 99.62 106.57 99.19 107.03 C 88.09 117.67 78.50 129.99 71.57 143.75 C 66.77 152.22 62.97 162.08 54.49 167.61 C 52.36 169.44 49.58 170.11 47.12 171.35 C 50.53 171.74 53.96 171.58 57.38 171.64 C 61.45 169.47 64.83 166.22 68.50 163.46 C 70.45 162.13 72.27 159.31 74.95 160.48 C 76.51 163.61 76.28 166.95 75.22 170.20 L 74.34 170.22 C 74.75 170.42 75.57 170.82 75.98 171.02 C 89.33 171.15 102.71 171.39 116.04 170.94 C 121.80 169.56 128.18 171.89 133.62 169.64 C 137.49 168.23 141.25 166.55 145.00 164.85 C 147.74 164.02 150.52 163.32 153.41 163.39 C 153.46 164.01 153.57 165.25 153.63 165.87 C 151.73 165.79 149.83 165.76 147.94 165.75 C 146.17 166.43 144.07 166.44 142.65 167.83 C 146.82 167.70 151.24 166.13 155.20 168.18 C 158.92 171.62 164.27 171.49 169.00 171.72 C 174.79 171.76 181.69 172.14 185.71 167.12 C 186.09 165.76 184.79 163.20 186.45 162.63 C 200.95 168.20 216.24 162.03 229.97 157.09 C 237.61 154.37 245.42 152.09 252.87 148.85 C 259.24 147.74 265.46 145.49 272.00 145.59 C 279.16 145.54 286.68 148.25 291.21 153.99 C 294.60 157.90 296.60 162.74 298.54 167.48 C 298.88 167.63 299.55 167.95 299.89 168.10 C 297.96 159.82 293.12 151.69 285.71 147.26 C 285.41 145.54 284.01 144.55 282.70 143.64 C 279.35 137.12 276.61 130.00 271.01 125.00 C 269.26 122.17 265.88 121.57 262.97 120.61 C 261.56 121.17 260.15 121.73 258.77 122.34 C 256.58 123.20 254.81 124.81 252.84 126.05 C 252.60 126.57 252.13 127.61 251.89 128.13 L 251.73 126.99 L 250.92 127.83 C 245.25 126.13 244.80 119.61 240.87 116.15 C 236.54 114.41 232.42 112.17 228.87 109.12 C 225.39 105.61 220.68 103.48 215.89 102.51 C 214.21 102.32 213.19 100.86 212.13 99.73 C 210.19 98.11 207.61 98.14 205.25 97.65 C 203.81 95.77 202.99 93.36 201.04 91.90 C 196.67 91.30 192.24 91.80 187.90 92.33 C 185.70 91.76 184.45 89.57 182.81 88.14 C 182.02 86.81 180.83 85.79 179.81 84.64 C 180.07 84.48 180.60 84.15 180.86 83.98 C 188.48 70.65 192.41 55.33 201.64 42.92 C 202.21 41.34 201.05 39.79 200.86 38.25 C 200.50 36.38 200.22 34.50 200.00 32.61 L 199.62 33.13 C 199.41 31.25 199.36 29.35 199.53 27.47 L 200.23 28.12 C 200.20 27.46 200.12 26.14 200.09 25.49 C 200.64 23.98 201.20 22.48 201.77 20.97 C 196.33 19.42 191.29 16.74 186.20 14.32 C 185.68 13.23 184.42 12.97 183.47 12.42 C 182.71 10.49 182.05 8.52 181.40 6.54 C 179.25 6.82 176.69 5.99 174.79 7.20 C 171.10 7.35 167.01 7.06 163.99 9.60 C 160.85 8.37 157.79 6.89 154.49 6.12 L 154.31 5.78 L 153.92 5.95 C 148.52 4.83 141.93 5.85 138.21 10.34 M 85.65 103.59 C 79.97 108.23 74.45 113.14 69.92 118.95 C 64.83 124.17 59.59 129.26 54.48 134.48 C 51.99 137.14 48.31 138.45 46.27 141.57 C 49.78 140.83 52.03 137.89 54.67 135.73 C 58.74 132.47 62.44 128.77 65.99 124.95 C 70.14 119.57 75.47 115.30 80.10 110.35 C 83.56 106.64 87.86 103.91 92.09 101.18 C 89.84 101.61 87.48 102.12 85.65 103.59 Z" />
</g>
<g id="#252525ff">
<path fill="#252525" opacity="1.00" d=" M 138.21 10.34 C 141.93 5.85 148.52 4.83 153.92 5.95 C 151.43 7.11 148.78 7.89 146.08 8.36 C 149.42 10.77 151.85 14.19 152.41 18.33 C 153.33 18.87 154.26 19.40 155.18 19.94 C 153.23 20.25 151.27 20.57 149.30 20.82 C 148.53 20.80 147.76 20.79 146.99 20.78 C 146.50 25.70 145.84 30.78 143.36 35.15 C 141.42 37.51 138.23 38.80 137.02 41.77 C 134.51 47.22 133.96 53.31 133.64 59.23 C 137.37 59.22 141.10 59.21 144.82 59.42 C 144.00 61.16 143.73 63.73 141.49 64.21 C 138.51 64.60 135.49 64.32 132.49 64.28 C 132.07 65.15 131.64 66.02 131.22 66.90 C 131.60 67.26 132.36 67.99 132.74 68.36 C 134.14 67.97 135.57 67.68 137.02 67.50 C 138.21 68.51 138.80 69.97 139.52 71.32 C 141.60 72.09 143.66 72.92 145.70 73.78 C 144.72 78.49 143.53 83.42 144.89 88.19 C 146.11 90.51 148.24 92.51 150.91 92.94 C 155.70 93.72 160.76 94.33 165.34 92.30 C 165.85 91.34 166.35 90.36 166.84 89.39 C 167.18 89.84 167.86 90.74 168.20 91.19 C 167.56 92.02 166.92 92.86 166.28 93.69 C 166.75 93.79 167.68 94.00 168.14 94.11 C 167.88 94.60 167.35 95.59 167.09 96.09 C 163.69 97.52 160.10 98.48 156.41 98.70 C 155.20 102.07 154.39 105.56 153.55 109.04 C 153.58 105.45 154.83 102.07 156.10 98.77 C 148.92 98.19 142.27 94.35 137.40 89.16 C 135.94 87.56 134.68 85.78 133.09 84.32 C 129.77 83.58 127.69 87.12 125.46 88.97 C 126.25 93.00 127.28 97.04 129.30 100.65 C 135.13 113.33 152.85 116.80 164.20 109.78 C 164.69 109.83 165.68 109.93 166.18 109.98 C 159.70 114.99 150.90 115.75 143.18 113.68 C 142.56 114.12 141.94 114.56 141.32 115.02 C 145.55 116.51 149.98 117.33 154.24 118.70 C 147.10 118.31 139.99 115.79 133.93 112.04 C 133.46 112.78 133.01 113.53 132.55 114.27 C 134.64 116.25 136.50 118.48 138.83 120.20 C 140.93 121.72 143.89 122.27 145.17 124.74 C 137.20 123.10 132.12 116.06 128.09 109.56 C 129.63 110.38 130.98 111.46 132.13 112.80 C 132.50 112.21 132.86 111.63 133.23 111.05 C 129.29 109.39 127.83 104.93 124.61 102.35 C 125.21 101.86 125.79 101.36 126.37 100.85 C 129.45 107.14 134.53 112.58 141.26 114.94 C 141.23 114.37 141.18 113.24 141.15 112.67 C 131.30 110.35 126.14 99.90 124.42 90.69 C 124.16 93.02 123.83 95.36 123.91 97.72 C 123.24 95.39 122.85 92.99 122.48 90.61 L 122.38 89.98 C 124.92 87.45 127.23 84.62 130.36 82.77 C 130.59 80.30 129.20 77.81 128.39 75.47 C 128.36 76.39 128.28 78.23 128.24 79.14 C 126.68 82.07 124.57 84.61 122.21 86.92 C 121.50 86.44 120.78 85.97 120.06 85.52 C 119.09 85.18 118.11 84.87 117.13 84.58 C 116.68 84.28 115.80 83.68 115.36 83.38 C 115.76 82.24 116.17 81.10 116.58 79.96 C 116.64 80.29 116.76 80.96 116.82 81.30 C 116.87 82.81 117.59 83.51 118.96 83.39 C 120.67 81.44 122.13 79.29 123.74 77.26 C 123.64 73.51 123.91 69.76 123.64 66.01 C 121.16 65.03 118.72 63.71 115.99 63.64 C 111.40 63.22 105.95 62.54 102.38 66.15 C 99.39 70.91 98.74 76.82 98.46 82.33 C 98.52 85.94 97.99 89.52 97.30 93.05 C 95.67 91.10 96.70 88.32 96.54 86.07 C 93.83 88.52 91.12 91.01 88.02 92.96 C 89.06 91.70 90.04 90.39 91.02 89.09 C 90.25 89.01 88.70 88.85 87.92 88.77 C 89.31 88.32 90.71 87.91 92.13 87.52 C 93.64 86.30 95.71 85.58 96.75 83.87 C 98.00 76.77 97.31 67.75 103.80 62.96 C 107.05 61.79 110.65 61.21 114.07 62.08 C 116.76 63.04 119.23 60.91 121.96 61.24 C 123.46 61.29 125.85 61.32 126.04 59.31 C 126.99 49.84 128.29 40.41 130.01 31.05 C 131.50 23.78 133.07 16.01 138.21 10.34 M 126.74 60.80 C 127.79 61.80 128.85 62.80 129.91 63.79 C 133.83 60.87 140.30 65.16 143.03 60.78 C 137.60 60.65 132.17 60.68 126.74 60.80 M 121.76 62.47 C 124.03 65.77 126.97 68.59 129.01 72.06 C 130.73 75.77 131.20 79.91 132.74 83.70 C 134.79 82.45 134.06 79.95 134.19 77.99 C 134.34 73.15 131.56 68.99 129.20 64.99 C 127.75 62.39 124.30 62.57 121.76 62.47 M 134.27 69.57 C 134.05 71.59 135.24 73.53 135.56 75.50 C 137.58 73.89 137.95 71.20 137.10 68.86 C 136.39 69.04 134.98 69.39 134.27 69.57 M 125.40 69.42 C 125.22 72.03 125.23 74.65 125.31 77.26 C 123.87 79.89 121.09 81.94 121.02 85.15 C 126.65 82.63 128.48 74.67 125.40 69.42 Z" />
<path fill="#252525" opacity="1.00" d=" M 154.49 6.12 C 157.79 6.89 160.85 8.37 163.99 9.60 C 167.01 7.06 171.10 7.35 174.79 7.20 C 172.46 9.47 171.42 12.56 170.52 15.60 C 169.90 18.03 167.63 19.38 165.91 20.97 C 172.85 22.18 179.32 24.99 186.09 26.82 C 188.51 27.48 190.22 29.43 192.01 31.06 C 191.82 31.57 191.43 32.61 191.23 33.13 C 182.73 24.34 169.59 23.92 158.26 21.99 C 157.50 21.80 155.96 21.41 155.20 21.21 C 158.09 19.17 161.75 20.80 164.96 20.82 C 163.92 20.51 162.89 20.20 161.85 19.89 C 161.69 16.89 162.01 13.79 161.21 10.86 C 159.36 9.65 157.30 8.84 155.39 7.75 C 155.16 7.35 154.71 6.53 154.49 6.12 Z" />
</g>
<g id="#373737ff">
<path fill="#373737" opacity="1.00" d=" M 153.92 5.95 L 154.31 5.78 L 154.49 6.12 C 154.71 6.53 155.16 7.35 155.39 7.75 C 157.30 8.84 159.36 9.65 161.21 10.86 C 162.01 13.79 161.69 16.89 161.85 19.89 C 162.89 20.20 163.92 20.51 164.96 20.82 C 161.75 20.80 158.09 19.17 155.20 21.21 C 153.23 21.06 151.27 20.93 149.30 20.82 C 151.27 20.57 153.23 20.25 155.18 19.94 C 154.26 19.40 153.33 18.87 152.41 18.33 C 151.85 14.19 149.42 10.77 146.08 8.36 C 148.78 7.89 151.43 7.11 153.92 5.95 Z" />
<path fill="#373737" opacity="1.00" d=" M 174.79 7.20 C 176.69 5.99 179.25 6.82 181.40 6.54 C 182.05 8.52 182.71 10.49 183.47 12.42 C 184.42 12.97 185.68 13.23 186.20 14.32 C 186.47 14.73 187.00 15.56 187.27 15.97 C 191.03 18.39 195.22 20.02 199.37 21.64 C 199.62 22.92 199.88 24.20 200.09 25.49 C 200.12 26.14 200.20 27.46 200.23 28.12 L 199.53 27.47 C 199.14 27.11 198.36 26.38 197.97 26.01 C 197.84 29.03 197.90 32.05 198.19 35.06 C 198.55 34.57 199.26 33.61 199.62 33.13 L 200.00 32.61 C 200.22 34.50 200.50 36.38 200.86 38.25 C 199.50 43.80 195.90 48.28 192.97 53.05 C 193.20 50.31 193.38 47.57 193.42 44.82 C 192.05 49.28 191.21 53.93 189.03 58.10 C 189.25 57.35 189.68 55.83 189.90 55.08 C 189.14 54.48 188.38 53.91 187.61 53.34 L 187.69 54.74 C 184.64 47.77 175.99 49.31 169.87 48.18 C 170.54 46.33 173.19 44.28 171.88 42.25 C 171.68 42.23 171.27 42.19 171.06 42.17 C 169.87 44.37 168.76 46.64 167.33 48.70 C 168.37 45.99 169.72 43.41 170.98 40.79 C 171.91 40.56 172.86 40.34 173.80 40.14 C 173.30 42.38 172.55 44.56 171.77 46.71 C 177.18 48.04 185.26 46.26 187.81 52.78 C 188.69 53.03 189.58 53.27 190.47 53.50 C 191.73 46.81 194.81 39.71 191.23 33.13 C 191.43 32.61 191.82 31.57 192.01 31.06 C 190.22 29.43 188.51 27.48 186.09 26.82 C 179.32 24.99 172.85 22.18 165.91 20.97 C 167.63 19.38 169.90 18.03 170.52 15.60 C 171.42 12.56 172.46 9.47 174.79 7.20 Z" />
</g>
<g id="#000000ff">
<path fill="#000000" opacity="1.00" d=" M 186.20 14.32 C 191.29 16.74 196.33 19.42 201.77 20.97 C 201.20 22.48 200.64 23.98 200.09 25.49 C 199.88 24.20 199.62 22.92 199.37 21.64 C 195.22 20.02 191.03 18.39 187.27 15.97 C 187.00 15.56 186.47 14.73 186.20 14.32 Z" />
<path fill="#000000" opacity="1.00" d=" M 170.48 93.89 C 171.98 89.61 176.33 87.18 179.81 84.64 C 180.83 85.79 182.02 86.81 182.81 88.14 C 184.08 89.99 184.86 92.99 187.53 93.14 C 192.00 93.16 196.48 92.04 200.94 92.86 C 202.58 94.41 203.47 96.53 204.56 98.47 C 207.08 98.90 209.60 99.33 212.13 99.73 C 213.19 100.86 214.21 102.32 215.89 102.51 C 220.68 103.48 225.39 105.61 228.87 109.12 C 232.42 112.17 236.54 114.41 240.87 116.15 C 244.80 119.61 245.25 126.13 250.92 127.83 C 244.58 135.08 234.45 136.38 226.20 140.47 C 222.89 142.35 219.17 145.60 220.54 149.88 C 221.90 152.81 224.62 154.83 226.72 157.22 C 217.87 160.90 208.58 163.59 199.00 164.36 C 194.95 164.30 191.08 162.94 187.09 162.39 C 186.14 161.61 185.23 160.79 184.36 159.92 C 187.21 157.95 190.33 155.90 191.41 152.40 C 195.24 141.93 196.36 130.68 200.11 120.18 C 201.82 115.51 205.49 112.06 208.70 108.42 C 207.26 108.44 205.67 108.47 204.60 109.59 C 199.19 113.76 197.79 120.79 196.00 126.99 C 193.60 135.33 192.63 144.11 189.13 152.12 C 188.35 154.13 186.75 155.62 185.27 157.12 C 185.09 156.26 184.71 154.54 184.52 153.67 C 187.86 149.60 188.50 143.63 186.06 138.96 C 184.71 136.50 184.68 133.65 184.52 130.93 C 184.46 129.66 184.41 128.40 184.36 127.13 C 174.30 125.63 163.60 124.85 153.77 127.95 C 152.96 130.20 153.32 132.66 153.25 135.01 C 153.51 142.58 152.90 150.16 153.62 157.71 C 154.01 157.36 154.81 156.65 155.21 156.30 C 156.66 156.40 158.11 156.58 159.56 156.73 C 158.52 156.98 156.42 157.50 155.38 157.75 C 157.06 158.38 158.76 158.97 160.45 159.60 C 158.51 159.57 156.56 159.50 154.62 159.44 C 154.62 162.08 154.62 164.73 154.58 167.37 C 155.20 167.59 156.43 168.03 157.05 168.25 C 156.59 168.24 155.66 168.20 155.20 168.18 C 151.24 166.13 146.82 167.70 142.65 167.83 C 144.07 166.44 146.17 166.43 147.94 165.75 C 149.83 165.76 151.73 165.79 153.63 165.87 C 153.57 165.25 153.46 164.01 153.41 163.39 C 150.52 163.32 147.74 164.02 145.00 164.85 C 141.25 166.55 137.49 168.23 133.62 169.64 C 126.74 169.62 119.86 169.52 113.00 170.10 C 100.41 170.28 87.81 170.10 75.22 170.20 C 76.28 166.95 76.51 163.61 74.95 160.48 C 74.68 159.67 74.40 158.85 74.13 158.04 C 82.64 150.47 87.08 139.69 90.56 129.11 C 90.22 128.90 89.52 128.47 89.18 128.26 C 87.57 132.90 86.50 137.76 84.35 142.19 C 80.61 148.92 75.45 154.70 70.20 160.27 C 65.54 163.58 60.97 167.15 57.38 171.64 C 53.96 171.58 50.53 171.74 47.12 171.35 C 49.58 170.11 52.36 169.44 54.49 167.61 C 62.97 162.08 66.77 152.22 71.57 143.75 C 78.50 129.99 88.09 117.67 99.19 107.03 C 102.72 109.92 103.72 114.52 105.75 118.38 C 109.68 125.90 111.08 134.62 110.11 143.01 C 109.68 147.72 108.52 152.66 110.36 157.22 C 110.72 150.57 110.68 143.90 111.24 137.26 C 111.71 125.92 106.00 115.78 101.25 105.90 C 101.72 103.56 104.71 102.74 106.19 100.98 C 109.47 100.47 112.38 98.84 115.28 97.33 C 117.84 95.27 120.21 92.98 122.48 90.61 C 122.85 92.99 123.24 95.39 123.91 97.72 C 124.38 98.47 125.32 99.97 125.80 100.72 C 125.22 100.97 124.07 101.47 123.49 101.72 C 123.77 101.88 124.33 102.19 124.61 102.35 C 125.25 106.29 126.61 110.05 128.92 113.33 C 132.79 121.84 137.60 130.17 138.79 139.61 C 139.87 146.42 139.75 153.31 139.91 160.18 C 140.42 157.79 141.07 155.42 142.17 153.23 C 142.99 147.95 144.77 142.87 145.87 137.64 C 147.96 133.15 150.00 128.11 154.52 125.52 C 157.31 123.63 161.10 123.29 163.21 120.45 C 168.26 114.11 174.26 107.57 174.52 98.97 C 172.16 102.95 170.00 107.17 166.18 109.98 C 165.68 109.93 164.69 109.83 164.20 109.78 C 170.17 105.96 174.35 99.19 173.36 91.92 C 172.64 92.41 171.20 93.39 170.48 93.89 M 189.86 106.02 C 188.54 111.61 186.89 117.20 186.74 122.98 C 186.65 128.06 185.47 133.14 186.36 138.21 C 187.13 136.91 187.92 135.55 187.90 133.97 C 188.27 128.29 188.26 122.57 189.32 116.96 C 189.97 112.20 192.01 107.68 191.88 102.81 C 190.90 103.67 190.04 104.68 189.86 106.02 M 135.68 166.80 C 136.37 166.75 137.76 166.63 138.45 166.57 C 138.85 166.16 139.65 165.32 140.05 164.90 C 144.60 164.53 148.68 161.86 153.33 162.20 C 153.42 161.74 153.61 160.81 153.71 160.34 C 147.11 159.94 141.42 164.10 135.68 166.80 Z" />
<path fill="#000000" opacity="1.00" d=" M 164.59 155.29 C 171.03 155.36 177.53 154.95 183.91 156.09 L 183.82 157.08 C 177.43 156.15 170.97 156.78 164.54 156.47 L 164.59 155.29 Z" />
</g>
<g id="#e0e0e0ff">
<path fill="#e0e0e0" opacity="1.00" d=" M 146.99 20.78 C 147.76 20.79 148.53 20.80 149.30 20.82 C 151.27 20.93 153.23 21.06 155.20 21.21 C 155.96 21.41 157.50 21.80 158.26 21.99 C 156.61 21.96 154.96 21.98 153.31 21.99 C 153.42 27.26 152.49 32.47 150.73 37.43 C 149.66 37.44 148.60 37.46 147.53 37.49 C 146.88 38.97 146.22 40.45 145.58 41.94 C 146.02 41.97 146.91 42.02 147.35 42.05 C 145.88 49.02 149.27 55.56 149.64 62.42 C 148.39 63.28 147.07 64.09 146.05 65.23 C 146.81 68.71 149.68 71.28 151.55 74.21 L 151.09 74.90 C 150.36 76.00 149.73 77.17 149.15 78.36 C 146.66 81.08 145.52 84.62 144.89 88.19 C 143.53 83.42 144.72 78.49 145.70 73.78 C 143.66 72.92 141.60 72.09 139.52 71.32 C 138.80 69.97 138.21 68.51 137.02 67.50 C 135.57 67.68 134.14 67.97 132.74 68.36 C 132.36 67.99 131.60 67.26 131.22 66.90 C 131.64 66.02 132.07 65.15 132.49 64.28 C 135.49 64.32 138.51 64.60 141.49 64.21 C 143.73 63.73 144.00 61.16 144.82 59.42 C 141.10 59.21 137.37 59.22 133.64 59.23 C 133.96 53.31 134.51 47.22 137.02 41.77 C 138.23 38.80 141.42 37.51 143.36 35.15 C 145.84 30.78 146.50 25.70 146.99 20.78 Z" />
<path fill="#e0e0e0" opacity="1.00" d=" M 112.02 71.05 C 113.96 71.59 115.93 71.95 117.91 72.29 C 117.95 74.91 117.53 77.51 116.58 79.96 C 116.17 81.10 115.76 82.24 115.36 83.38 C 115.80 83.68 116.68 84.28 117.13 84.58 C 118.11 84.87 119.09 85.18 120.06 85.52 C 118.89 87.34 117.87 89.35 116.15 90.74 C 114.96 88.97 116.07 86.30 114.44 84.58 C 111.55 80.69 110.52 75.71 112.02 71.05 Z" />
<path fill="#e0e0e0" opacity="1.00" d=" M 125.46 88.97 C 127.69 87.12 129.77 83.58 133.09 84.32 C 134.68 85.78 135.94 87.56 137.40 89.16 C 133.51 92.05 131.37 96.41 129.30 100.65 C 127.28 97.04 126.25 93.00 125.46 88.97 Z" />
</g>
<g id="#fcfcfcff">
<path fill="#fcfcfc" opacity="1.00" d=" M 153.31 21.99 C 154.96 21.98 156.61 21.96 158.26 21.99 C 169.59 23.92 182.73 24.34 191.23 33.13 C 194.81 39.71 191.73 46.81 190.47 53.50 C 189.58 53.27 188.69 53.03 187.81 52.78 C 185.26 46.26 177.18 48.04 171.77 46.71 C 172.55 44.56 173.30 42.38 173.80 40.14 C 172.86 40.34 171.91 40.56 170.98 40.79 C 169.72 43.41 168.37 45.99 167.33 48.70 C 168.76 46.64 169.87 44.37 171.06 42.17 C 171.27 42.19 171.68 42.23 171.88 42.25 C 173.19 44.28 170.54 46.33 169.87 48.18 C 175.99 49.31 184.64 47.77 187.69 54.74 L 187.61 53.34 C 188.38 53.91 189.14 54.48 189.90 55.08 C 189.68 55.83 189.25 57.35 189.03 58.10 C 186.85 63.76 185.59 69.90 181.89 74.85 C 178.52 78.64 173.45 80.11 168.58 80.69 C 168.12 82.96 167.65 85.24 167.24 87.53 C 167.14 87.99 166.94 88.92 166.84 89.39 C 166.35 90.36 165.85 91.34 165.34 92.30 C 160.76 94.33 155.70 93.72 150.91 92.94 C 148.24 92.51 146.11 90.51 144.89 88.19 C 145.52 84.62 146.66 81.08 149.15 78.36 C 150.05 80.85 152.21 81.73 154.76 81.38 C 155.45 81.89 156.15 82.41 156.85 82.92 C 155.59 83.34 154.33 83.78 153.07 84.22 C 156.19 85.04 159.34 85.73 162.49 86.41 C 162.79 86.10 163.41 85.47 163.72 85.16 C 161.03 83.99 158.29 82.85 156.02 80.96 C 159.45 80.46 162.92 80.18 166.39 80.24 C 165.62 78.94 164.77 77.69 163.75 76.58 C 164.34 73.83 164.96 71.08 165.44 68.30 C 167.61 67.66 169.83 67.26 172.10 67.23 C 171.79 66.85 171.18 66.08 170.88 65.70 C 168.50 66.10 166.18 66.76 163.87 67.40 C 163.66 67.29 163.24 67.07 163.03 66.96 C 162.78 66.32 162.27 65.06 162.02 64.42 C 162.10 61.68 163.34 59.25 164.73 56.96 C 166.34 54.79 166.89 52.15 166.10 49.54 C 163.60 52.58 161.47 55.90 158.71 58.72 C 157.27 60.10 156.33 61.87 155.73 63.76 C 155.58 64.16 155.28 64.97 155.12 65.37 C 156.95 66.10 158.77 66.82 160.60 67.54 C 159.41 69.80 158.22 72.04 156.97 74.27 C 154.43 72.07 152.54 69.07 153.67 65.61 C 152.77 66.72 151.88 67.82 150.98 68.93 C 151.11 67.40 151.25 65.88 151.39 64.35 C 150.95 63.87 150.08 62.91 149.64 62.42 C 149.27 55.56 145.88 49.02 147.35 42.05 C 147.51 41.49 147.83 40.38 147.99 39.82 C 152.14 37.68 155.46 42.05 158.75 43.89 C 155.15 44.37 151.54 44.83 147.94 45.37 C 148.14 45.62 148.54 46.13 148.74 46.38 C 150.20 48.12 151.57 50.07 153.58 51.22 C 156.11 51.72 158.52 50.20 161.01 49.87 C 160.63 49.82 159.86 49.72 159.48 49.67 C 160.03 48.24 160.58 46.82 161.13 45.39 C 162.76 45.97 164.46 46.27 166.16 46.54 C 167.19 43.94 168.26 41.35 168.91 38.62 C 167.74 40.48 166.95 42.53 166.29 44.61 C 160.18 44.38 156.46 38.68 150.73 37.43 C 152.49 32.47 153.42 27.26 153.31 21.99 M 174.14 53.26 C 174.21 53.95 174.35 55.33 174.41 56.02 L 174.86 55.07 C 177.66 59.15 183.17 58.72 186.93 56.30 C 186.64 56.26 186.05 56.17 185.76 56.13 C 185.88 53.72 183.13 53.22 181.44 52.47 C 179.00 51.37 176.44 52.31 174.14 53.26 Z" />
<path fill="#fcfcfc" opacity="1.00" d=" M 129.30 100.65 C 131.37 96.41 133.51 92.05 137.40 89.16 C 142.27 94.35 148.92 98.19 156.10 98.77 C 154.83 102.07 153.58 105.45 153.55 109.04 C 154.39 105.56 155.20 102.07 156.41 98.70 C 160.10 98.48 163.69 97.52 167.09 96.09 C 168.25 95.40 169.37 94.65 170.48 93.89 C 171.20 93.39 172.64 92.41 173.36 91.92 C 174.35 99.19 170.17 105.96 164.20 109.78 C 152.85 116.80 135.13 113.33 129.30 100.65 Z" />
</g>
<g id="#1b1b1bff">
<path fill="#1b1b1b" opacity="1.00" d=" M 197.97 26.01 C 198.36 26.38 199.14 27.11 199.53 27.47 C 199.36 29.35 199.41 31.25 199.62 33.13 C 199.26 33.61 198.55 34.57 198.19 35.06 C 197.90 32.05 197.84 29.03 197.97 26.01 Z" />
</g>
<g id="#4a4a4aff">
<path fill="#4a4a4a" opacity="1.00" d=" M 147.53 37.49 C 148.60 37.46 149.66 37.44 150.73 37.43 C 156.46 38.68 160.18 44.38 166.29 44.61 C 166.95 42.53 167.74 40.48 168.91 38.62 C 168.26 41.35 167.19 43.94 166.16 46.54 C 164.46 46.27 162.76 45.97 161.13 45.39 C 160.32 44.91 159.53 44.41 158.75 43.89 C 155.46 42.05 152.14 37.68 147.99 39.82 C 147.83 40.38 147.51 41.49 147.35 42.05 C 146.91 42.02 146.02 41.97 145.58 41.94 C 146.22 40.45 146.88 38.97 147.53 37.49 Z" />
</g>
<g id="#202020ff">
<path fill="#202020" opacity="1.00" d=" M 192.97 53.05 C 195.90 48.28 199.50 43.80 200.86 38.25 C 201.05 39.79 202.21 41.34 201.64 42.92 C 192.41 55.33 188.48 70.65 180.86 83.98 C 178.92 81.79 181.16 79.28 182.00 77.17 C 178.82 80.26 174.55 81.60 170.32 82.54 C 169.71 84.66 169.10 86.77 168.47 88.88 C 168.16 88.54 167.55 87.87 167.24 87.53 C 167.65 85.24 168.12 82.96 168.58 80.69 C 173.45 80.11 178.52 78.64 181.89 74.85 C 185.59 69.90 186.85 63.76 189.03 58.10 C 191.21 53.93 192.05 49.28 193.42 44.82 C 193.38 47.57 193.20 50.31 192.97 53.05 Z" />
</g>
<g id="#e3e3e3ff">
<path fill="#e3e3e3" opacity="1.00" d=" M 147.94 45.37 C 151.54 44.83 155.15 44.37 158.75 43.89 C 159.53 44.41 160.32 44.91 161.13 45.39 C 160.58 46.82 160.03 48.24 159.48 49.67 C 155.74 49.17 152.12 48.04 148.74 46.38 C 148.54 46.13 148.14 45.62 147.94 45.37 Z" />
</g>
<g id="#0b0b0bff">
<path fill="#0b0b0b" opacity="1.00" d=" M 148.74 46.38 C 152.12 48.04 155.74 49.17 159.48 49.67 C 159.86 49.72 160.63 49.82 161.01 49.87 C 158.52 50.20 156.11 51.72 153.58 51.22 C 151.57 50.07 150.20 48.12 148.74 46.38 Z" />
</g>
<g id="#e1e1e1ff">
<path fill="#e1e1e1" opacity="1.00" d=" M 158.71 58.72 C 161.47 55.90 163.60 52.58 166.10 49.54 C 166.89 52.15 166.34 54.79 164.73 56.96 C 164.79 56.42 164.89 55.34 164.94 54.80 C 163.44 57.76 160.54 60.90 162.02 64.42 C 162.27 65.06 162.78 66.32 163.03 66.96 C 160.71 65.65 158.29 64.51 155.73 63.76 C 156.33 61.87 157.27 60.10 158.71 58.72 Z" />
<path fill="#e1e1e1" opacity="1.00" d=" M 174.14 53.26 C 176.44 52.31 179.00 51.37 181.44 52.47 C 183.13 53.22 185.88 53.72 185.76 56.13 C 182.21 55.71 178.62 55.44 175.24 54.23 C 175.14 54.44 174.95 54.86 174.86 55.07 L 174.41 56.02 C 174.35 55.33 174.21 53.95 174.14 53.26 Z" />
<path fill="#e1e1e1" opacity="1.00" d=" M 98.46 82.33 C 98.74 76.82 99.39 70.91 102.38 66.15 C 103.81 67.58 107.31 68.95 105.56 71.48 C 103.71 75.35 102.03 79.70 98.46 82.33 Z" />
</g>
<g id="#545454ff">
<path fill="#545454" opacity="1.00" d=" M 175.24 54.23 C 178.62 55.44 182.21 55.71 185.76 56.13 C 186.05 56.17 186.64 56.26 186.93 56.30 C 183.17 58.72 177.66 59.15 174.86 55.07 C 174.95 54.86 175.14 54.44 175.24 54.23 Z" />
<path fill="#545454" opacity="1.00" d=" M 162.02 64.42 C 160.54 60.90 163.44 57.76 164.94 54.80 C 164.89 55.34 164.79 56.42 164.73 56.96 C 163.34 59.25 162.10 61.68 162.02 64.42 Z" />
</g>
<g id="#f1f1f1ff">
<path fill="#f1f1f1" opacity="1.00" d=" M 126.74 60.80 C 132.17 60.68 137.60 60.65 143.03 60.78 C 140.30 65.16 133.83 60.87 129.91 63.79 C 128.85 62.80 127.79 61.80 126.74 60.80 Z" />
</g>
<g id="#f9f9f9ff">
<path fill="#f9f9f9" opacity="1.00" d=" M 121.76 62.47 C 124.30 62.57 127.75 62.39 129.20 64.99 C 131.56 68.99 134.34 73.15 134.19 77.99 C 134.06 79.95 134.79 82.45 132.74 83.70 C 131.20 79.91 130.73 75.77 129.01 72.06 C 126.97 68.59 124.03 65.77 121.76 62.47 Z" />
<path fill="#f9f9f9" opacity="1.00" d=" M 134.27 69.57 C 134.98 69.39 136.39 69.04 137.10 68.86 C 137.95 71.20 137.58 73.89 135.56 75.50 C 135.24 73.53 134.05 71.59 134.27 69.57 Z" />
<path fill="#f9f9f9" opacity="1.00" d=" M 125.40 69.42 C 128.48 74.67 126.65 82.63 121.02 85.15 C 121.09 81.94 123.87 79.89 125.31 77.26 C 125.23 74.65 125.22 72.03 125.40 69.42 Z" />
<path fill="#f9f9f9" opacity="1.00" d=" M 135.68 166.80 C 141.42 164.10 147.11 159.94 153.71 160.34 C 153.61 160.81 153.42 161.74 153.33 162.20 C 148.68 161.86 144.60 164.53 140.05 164.90 C 139.65 165.32 138.85 166.16 138.45 166.57 C 137.76 166.63 136.37 166.75 135.68 166.80 Z" />
</g>
<g id="#adacabff">
<path fill="#adacab" opacity="1.00" d=" M 146.05 65.23 C 147.07 64.09 148.39 63.28 149.64 62.42 C 150.08 62.91 150.95 63.87 151.39 64.35 C 151.25 65.88 151.11 67.40 150.98 68.93 C 151.88 67.82 152.77 66.72 153.67 65.61 C 152.54 69.07 154.43 72.07 156.97 74.27 C 158.22 72.04 159.41 69.80 160.60 67.54 C 158.77 66.82 156.95 66.10 155.12 65.37 C 155.28 64.97 155.58 64.16 155.73 63.76 C 158.29 64.51 160.71 65.65 163.03 66.96 C 163.24 67.07 163.66 67.29 163.87 67.40 C 166.18 66.76 168.50 66.10 170.88 65.70 C 171.18 66.08 171.79 66.85 172.10 67.23 C 169.83 67.26 167.61 67.66 165.44 68.30 C 164.96 71.08 164.34 73.83 163.75 76.58 C 161.55 75.11 158.95 74.55 156.38 74.16 C 155.04 73.85 153.73 73.45 152.42 73.05 C 152.20 73.34 151.77 73.92 151.55 74.21 C 149.68 71.28 146.81 68.71 146.05 65.23 M 148.12 65.31 C 146.59 68.31 151.44 65.45 148.12 65.31 M 158.15 73.30 C 159.69 73.88 161.24 74.47 162.78 75.06 C 163.12 73.10 163.58 71.16 163.76 69.18 C 161.03 67.54 160.06 72.08 158.15 73.30 Z" />
</g>
<g id="#dbdfdcff">
<path fill="#dbdfdc" opacity="1.00" d=" M 148.12 65.31 C 151.44 65.45 146.59 68.31 148.12 65.31 Z" />
</g>
<g id="#4b4b4bff">
<path fill="#4b4b4b" opacity="1.00" d=" M 111.14 70.81 C 113.37 68.28 116.81 71.09 119.53 71.24 C 119.63 72.86 119.82 74.47 120.20 76.05 C 118.99 77.75 117.88 79.51 116.82 81.30 C 116.76 80.96 116.64 80.29 116.58 79.96 C 117.53 77.51 117.95 74.91 117.91 72.29 C 115.93 71.95 113.96 71.59 112.02 71.05 L 111.14 70.81 Z" />
</g>
<g id="#f8fbfaff">
<path fill="#f8fbfa" opacity="1.00" d=" M 158.15 73.30 C 160.06 72.08 161.03 67.54 163.76 69.18 C 163.58 71.16 163.12 73.10 162.78 75.06 C 161.24 74.47 159.69 73.88 158.15 73.30 Z" />
</g>
<g id="#140d09ff">
<path fill="#140d09" opacity="1.00" d=" M 152.42 73.05 C 153.73 73.45 155.04 73.85 156.38 74.16 C 156.44 76.07 156.51 77.97 156.58 79.88 C 154.58 79.87 152.57 79.87 150.57 79.87 C 150.61 78.20 150.73 76.53 151.09 74.90 L 151.55 74.21 C 151.77 73.92 152.20 73.34 152.42 73.05 Z" />
</g>
<g id="#291d19ff">
<path fill="#291d19" opacity="1.00" d=" M 149.15 78.36 C 149.73 77.17 150.36 76.00 151.09 74.90 C 150.73 76.53 150.61 78.20 150.57 79.87 C 152.57 79.87 154.58 79.87 156.58 79.88 C 156.51 77.97 156.44 76.07 156.38 74.16 C 158.95 74.55 161.55 75.11 163.75 76.58 C 164.77 77.69 165.62 78.94 166.39 80.24 C 162.92 80.18 159.45 80.46 156.02 80.96 C 158.29 82.85 161.03 83.99 163.72 85.16 C 163.41 85.47 162.79 86.10 162.49 86.41 C 159.34 85.73 156.19 85.04 153.07 84.22 C 154.33 83.78 155.59 83.34 156.85 82.92 C 156.15 82.41 155.45 81.89 154.76 81.38 C 152.21 81.73 150.05 80.85 149.15 78.36 Z" />
<path fill="#291d19" opacity="1.00" d=" M 165.37 159.52 C 165.61 159.44 166.09 159.28 166.33 159.20 C 170.29 159.02 174.26 159.22 178.23 159.19 C 180.03 159.17 181.83 159.13 183.64 159.14 L 184.25 159.80 C 183.48 159.92 181.93 160.17 181.16 160.29 C 175.92 159.45 170.48 160.81 165.37 159.52 Z" />
<path fill="#291d19" opacity="1.00" d=" M 184.25 159.80 L 184.36 159.92 C 185.23 160.79 186.14 161.61 187.09 162.39 L 186.45 162.63 C 184.79 163.20 186.09 165.76 185.71 167.12 C 181.69 172.14 174.79 171.76 169.00 171.72 C 164.27 171.49 158.92 171.62 155.20 168.18 C 155.66 168.20 156.59 168.24 157.05 168.25 L 157.13 168.28 C 164.47 171.11 172.76 172.63 180.25 169.41 C 184.91 168.55 184.63 163.43 184.25 159.80 Z" />
</g>
<g id="#363636ff">
<path fill="#363636" opacity="1.00" d=" M 170.32 82.54 C 174.55 81.60 178.82 80.26 182.00 77.17 C 181.16 79.28 178.92 81.79 180.86 83.98 C 180.60 84.15 180.07 84.48 179.81 84.64 C 176.33 87.18 171.98 89.61 170.48 93.89 C 169.37 94.65 168.25 95.40 167.09 96.09 C 167.35 95.59 167.88 94.60 168.14 94.11 C 167.68 94.00 166.75 93.79 166.28 93.69 C 166.92 92.86 167.56 92.02 168.20 91.19 C 167.86 90.74 167.18 89.84 166.84 89.39 C 166.94 88.92 167.14 87.99 167.24 87.53 C 167.55 87.87 168.16 88.54 168.47 88.88 C 169.10 86.77 169.71 84.66 170.32 82.54 Z" />
<path fill="#363636" opacity="1.00" d=" M 252.87 148.85 C 263.05 144.06 275.09 143.86 285.71 147.26 C 293.12 151.69 297.96 159.82 299.89 168.10 C 299.55 167.95 298.88 167.63 298.54 167.48 C 296.60 162.74 294.60 157.90 291.21 153.99 C 286.68 148.25 279.16 145.54 272.00 145.59 C 265.46 145.49 259.24 147.74 252.87 148.85 Z" />
</g>
<g id="#808080ff">
<path fill="#808080" opacity="1.00" d=" M 182.81 88.14 C 184.45 89.57 185.70 91.76 187.90 92.33 C 192.24 91.80 196.67 91.30 201.04 91.90 C 202.99 93.36 203.81 95.77 205.25 97.65 C 207.61 98.14 210.19 98.11 212.13 99.73 C 209.60 99.33 207.08 98.90 204.56 98.47 C 203.47 96.53 202.58 94.41 200.94 92.86 C 196.48 92.04 192.00 93.16 187.53 93.14 C 184.86 92.99 184.08 89.99 182.81 88.14 Z" />
</g>
<g id="#030303ff">
<path fill="#030303" opacity="1.00" d=" M 78.52 90.73 C 81.70 90.31 84.85 89.77 87.92 88.77 C 88.70 88.85 90.25 89.01 91.02 89.09 C 90.04 90.39 89.06 91.70 88.02 92.96 C 78.56 100.99 68.12 107.79 58.18 115.22 C 54.07 118.04 50.19 121.21 45.93 123.81 C 36.52 129.16 26.31 134.13 19.43 142.78 C 17.90 144.48 17.26 146.67 17.10 148.91 C 14.41 155.38 14.63 162.70 14.00 169.61 C 13.57 169.13 13.14 168.66 12.71 168.20 C 14.42 165.03 13.13 161.32 13.62 157.91 C 14.60 151.20 15.98 143.96 20.95 138.96 C 27.26 132.62 35.28 128.37 43.02 124.05 C 44.12 123.52 45.22 123.01 46.33 122.48 C 48.12 118.06 50.53 113.92 52.31 109.48 C 54.55 105.40 56.41 100.69 60.68 98.31 C 66.22 94.92 72.70 93.55 78.52 90.73 Z" />
</g>
<g id="#fbfbfbff">
<path fill="#fbfbfb" opacity="1.00" d=" M 123.91 97.72 C 123.83 95.36 124.16 93.02 124.42 90.69 C 126.14 99.90 131.30 110.35 141.15 112.67 C 141.18 113.24 141.23 114.37 141.26 114.94 C 134.53 112.58 129.45 107.14 126.37 100.85 C 125.79 101.36 125.21 101.86 124.61 102.35 C 124.33 102.19 123.77 101.88 123.49 101.72 C 124.07 101.47 125.22 100.97 125.80 100.72 C 125.32 99.97 124.38 98.47 123.91 97.72 Z" />
<path fill="#fbfbfb" opacity="1.00" d=" M 166.18 109.98 C 170.00 107.17 172.16 102.95 174.52 98.97 C 174.26 107.57 168.26 114.11 163.21 120.45 C 161.10 123.29 157.31 123.63 154.52 125.52 C 150.00 128.11 147.96 133.15 145.87 137.64 C 143.63 141.20 142.61 145.29 141.42 149.28 C 140.42 146.09 139.57 142.86 138.79 139.61 C 137.60 130.17 132.79 121.84 128.92 113.33 C 126.61 110.05 125.25 106.29 124.61 102.35 C 127.83 104.93 129.29 109.39 133.23 111.05 C 132.86 111.63 132.50 112.21 132.13 112.80 C 130.98 111.46 129.63 110.38 128.09 109.56 L 128.46 109.41 L 128.25 109.04 L 127.87 109.23 L 128.09 109.56 C 132.12 116.06 137.20 123.10 145.17 124.74 C 143.89 122.27 140.93 121.72 138.83 120.20 C 136.50 118.48 134.64 116.25 132.55 114.27 C 133.01 113.53 133.46 112.78 133.93 112.04 C 139.99 115.79 147.10 118.31 154.24 118.70 C 149.98 117.33 145.55 116.51 141.32 115.02 C 141.94 114.56 142.56 114.12 143.18 113.68 C 150.90 115.75 159.70 114.99 166.18 109.98 Z" />
</g>
<g id="#2d2d2cff">
<path fill="#2d2d2c" opacity="1.00" d=" M 85.65 103.59 C 87.48 102.12 89.84 101.61 92.09 101.18 C 87.86 103.91 83.56 106.64 80.10 110.35 C 75.47 115.30 70.14 119.57 65.99 124.95 C 62.44 128.77 58.74 132.47 54.67 135.73 C 52.03 137.89 49.78 140.83 46.27 141.57 C 48.31 138.45 51.99 137.14 54.48 134.48 C 59.59 129.26 64.83 124.17 69.92 118.95 C 74.45 113.14 79.97 108.23 85.65 103.59 Z" />
<path fill="#2d2d2c" opacity="1.00" d=" M 164.63 131.84 C 171.26 132.21 178.00 132.51 184.52 130.93 C 183.60 138.73 184.10 146.60 184.06 154.43 C 184.02 154.85 183.95 155.67 183.91 156.09 C 177.53 154.95 171.03 155.36 164.59 155.29 C 164.65 147.47 164.57 139.66 164.63 131.84 Z" />
</g>
<g id="#171717ff">
<path fill="#171717" opacity="1.00" d=" M 189.86 106.02 C 190.04 104.68 190.90 103.67 191.88 102.81 C 192.01 107.68 189.97 112.20 189.32 116.96 C 188.26 122.57 188.27 128.29 187.90 133.97 C 187.92 135.55 187.13 136.91 186.36 138.21 C 185.47 133.14 186.65 128.06 186.74 122.98 C 186.89 117.20 188.54 111.61 189.86 106.02 Z" />
<path fill="#171717" opacity="1.00" d=" M 204.60 109.59 C 205.67 108.47 207.26 108.44 208.70 108.42 C 205.49 112.06 201.82 115.51 200.11 120.18 C 196.36 130.68 195.24 141.93 191.41 152.40 C 190.33 155.90 187.21 157.95 184.36 159.92 L 184.25 159.80 L 183.64 159.14 C 183.69 158.62 183.78 157.59 183.82 157.08 L 183.91 156.09 C 183.95 155.67 184.02 154.85 184.06 154.43 L 184.52 153.67 C 184.71 154.54 185.09 156.26 185.27 157.12 C 186.75 155.62 188.35 154.13 189.13 152.12 C 192.63 144.11 193.60 135.33 196.00 126.99 C 197.79 120.79 199.19 113.76 204.60 109.59 Z" />
</g>
<g id="#2d2d2dff">
<path fill="#2d2d2d" opacity="1.00" d=" M 99.19 107.03 C 99.62 106.57 100.48 105.63 100.91 105.16 L 101.25 105.90 C 106.00 115.78 111.71 125.92 111.24 137.26 C 110.68 143.90 110.72 150.57 110.36 157.22 C 108.52 152.66 109.68 147.72 110.11 143.01 C 111.08 134.62 109.68 125.90 105.75 118.38 C 103.72 114.52 102.72 109.92 99.19 107.03 Z" />
<path fill="#2d2d2d" opacity="1.00" d=" M 155.15 131.01 C 156.81 131.24 158.47 131.48 160.13 131.73 C 160.12 140.07 160.05 148.42 160.18 156.77 L 159.56 156.73 C 158.11 156.58 156.66 156.40 155.21 156.30 C 154.99 147.87 155.04 139.44 155.15 131.01 Z" />
</g>
<g id="#5f5f5fff">
<path fill="#5f5f5f" opacity="1.00" d=" M 128.25 109.04 L 128.46 109.41 L 128.09 109.56 L 127.87 109.23 L 128.25 109.04 Z" />
</g>
<g id="#888888ff">
<path fill="#888888" opacity="1.00" d=" M 258.77 122.34 C 260.15 121.73 261.56 121.17 262.97 120.61 C 265.88 121.57 269.26 122.17 271.01 125.00 C 267.45 122.47 263.09 121.20 258.77 122.34 Z" />
</g>
<g id="#010101ff">
<path fill="#010101" opacity="1.00" d=" M 252.84 126.05 C 254.81 124.81 256.58 123.20 258.77 122.34 C 263.09 121.20 267.45 122.47 271.01 125.00 C 276.61 130.00 279.35 137.12 282.70 143.64 C 284.01 144.55 285.41 145.54 285.71 147.26 C 275.09 143.86 263.05 144.06 252.87 148.85 C 245.42 152.09 237.61 154.37 229.97 157.09 C 226.67 155.03 223.44 152.52 221.65 148.97 C 220.78 146.65 222.88 144.73 224.57 143.52 C 230.16 139.87 236.52 137.62 242.81 135.49 C 246.51 134.15 250.40 132.00 251.89 128.13 C 252.13 127.61 252.60 126.57 252.84 126.05 Z" />
</g>
<g id="#5a5a5aff">
<path fill="#5a5a5a" opacity="1.00" d=" M 153.77 127.95 C 163.60 124.85 174.30 125.63 184.36 127.13 C 184.41 128.40 184.46 129.66 184.52 130.93 C 178.00 132.51 171.26 132.21 164.63 131.84 C 163.47 131.77 162.32 131.71 161.16 131.64 C 161.13 140.04 161.33 148.44 161.07 156.83 L 160.18 156.77 C 160.05 148.42 160.12 140.07 160.13 131.73 C 158.47 131.48 156.81 131.24 155.15 131.01 C 155.04 139.44 154.99 147.87 155.21 156.30 C 154.81 156.65 154.01 157.36 153.62 157.71 C 152.90 150.16 153.51 142.58 153.25 135.01 C 153.32 132.66 152.96 130.20 153.77 127.95 M 155.96 129.39 C 164.93 130.79 174.21 130.73 183.20 129.46 C 182.69 128.71 182.00 128.30 181.13 128.22 C 176.11 127.62 171.04 127.96 166.00 127.89 C 162.62 127.97 159.01 127.64 155.96 129.39 Z" />
</g>
<g id="#2e2e2eff">
<path fill="#2e2e2e" opacity="1.00" d=" M 89.18 128.26 C 89.52 128.47 90.22 128.90 90.56 129.11 C 87.08 139.69 82.64 150.47 74.13 158.04 C 74.40 158.85 74.68 159.67 74.95 160.48 C 72.27 159.31 70.45 162.13 68.50 163.46 C 64.83 166.22 61.45 169.47 57.38 171.64 C 60.97 167.15 65.54 163.58 70.20 160.27 C 75.45 154.70 80.61 148.92 84.35 142.19 C 86.50 137.76 87.57 132.90 89.18 128.26 Z" />
</g>
<g id="#313131ff">
<path fill="#313131" opacity="1.00" d=" M 155.96 129.39 C 159.01 127.64 162.62 127.97 166.00 127.89 C 171.04 127.96 176.11 127.62 181.13 128.22 C 182.00 128.30 182.69 128.71 183.20 129.46 C 174.21 130.73 164.93 130.79 155.96 129.39 Z" />
</g>
<g id="#343434ff">
<path fill="#343434" opacity="1.00" d=" M 250.92 127.83 L 251.73 126.99 L 251.89 128.13 C 250.40 132.00 246.51 134.15 242.81 135.49 C 236.52 137.62 230.16 139.87 224.57 143.52 C 222.88 144.73 220.78 146.65 221.65 148.97 C 223.44 152.52 226.67 155.03 229.97 157.09 C 216.24 162.03 200.95 168.20 186.45 162.63 L 187.09 162.39 C 191.08 162.94 194.95 164.30 199.00 164.36 C 208.58 163.59 217.87 160.90 226.72 157.22 C 224.62 154.83 221.90 152.81 220.54 149.88 C 219.17 145.60 222.89 142.35 226.20 140.47 C 234.45 136.38 244.58 135.08 250.92 127.83 Z" />
</g>
<g id="#121312ff">
<path fill="#121312" opacity="1.00" d=" M 184.52 130.93 C 184.68 133.65 184.71 136.50 186.06 138.96 C 188.50 143.63 187.86 149.60 184.52 153.67 L 184.06 154.43 C 184.10 146.60 183.60 138.73 184.52 130.93 Z" />
</g>
<g id="#fefefeff">
<path fill="#fefefe" opacity="1.00" d=" M 161.16 131.64 C 162.32 131.71 163.47 131.77 164.63 131.84 C 164.57 139.66 164.65 147.47 164.59 155.29 L 164.54 156.47 C 164.52 156.88 164.47 157.69 164.44 158.10 C 163.32 157.68 162.19 157.25 161.07 156.83 C 161.33 148.44 161.13 140.04 161.16 131.64 Z" />
</g>
<g id="#e8e8e8ff">
<path fill="#e8e8e8" opacity="1.00" d=" M 141.42 149.28 C 142.61 145.29 143.63 141.20 145.87 137.64 C 144.77 142.87 142.99 147.95 142.17 153.23 C 141.07 155.42 140.42 157.79 139.91 160.18 C 139.75 153.31 139.87 146.42 138.79 139.61 C 139.57 142.86 140.42 146.09 141.42 149.28 Z" />
</g>
<g id="#916046ff">
<path fill="#916046" opacity="1.00" d=" M 164.54 156.47 C 170.97 156.78 177.43 156.15 183.82 157.08 C 183.78 157.59 183.69 158.62 183.64 159.14 C 181.83 159.13 180.03 159.17 178.23 159.19 C 178.45 158.66 178.89 157.59 179.10 157.06 C 174.58 156.78 170.05 156.79 165.52 156.91 C 165.72 157.48 166.13 158.63 166.33 159.20 C 166.09 159.28 165.61 159.44 165.37 159.52 C 170.48 160.81 175.92 159.45 181.16 160.29 C 175.80 161.31 170.33 160.81 164.91 160.89 C 164.99 162.19 165.07 163.50 165.16 164.80 C 170.53 164.27 175.99 164.69 181.08 166.57 C 180.10 167.40 179.11 168.22 178.14 169.06 C 178.66 169.14 179.72 169.32 180.25 169.41 C 172.76 172.63 164.47 171.11 157.13 168.28 C 158.66 167.17 160.24 166.13 161.85 165.14 C 162.72 165.75 163.60 166.36 164.48 166.96 C 164.65 164.00 164.33 161.05 164.44 158.10 C 164.47 157.69 164.52 156.88 164.54 156.47 Z" />
</g>
<g id="#a87b63ff">
<path fill="#a87b63" opacity="1.00" d=" M 155.38 157.75 C 156.42 157.50 158.52 156.98 159.56 156.73 L 160.18 156.77 L 161.07 156.83 C 160.95 159.59 160.10 162.69 161.85 165.14 C 160.24 166.13 158.66 167.17 157.13 168.28 L 157.05 168.25 C 156.43 168.03 155.20 167.59 154.58 167.37 C 154.62 164.73 154.62 162.08 154.62 159.44 C 156.56 159.50 158.51 159.57 160.45 159.60 C 158.76 158.97 157.06 158.38 155.38 157.75 Z" />
</g>
<g id="#fef4e8ff">
<path fill="#fef4e8" opacity="1.00" d=" M 161.07 156.83 C 162.19 157.25 163.32 157.68 164.44 158.10 C 164.33 161.05 164.65 164.00 164.48 166.96 C 163.60 166.36 162.72 165.75 161.85 165.14 C 160.10 162.69 160.95 159.59 161.07 156.83 Z" />
</g>
<g id="#b59b92ff">
<path fill="#b59b92" opacity="1.00" d=" M 165.52 156.91 C 170.05 156.79 174.58 156.78 179.10 157.06 C 178.89 157.59 178.45 158.66 178.23 159.19 C 174.26 159.22 170.29 159.02 166.33 159.20 C 166.13 158.63 165.72 157.48 165.52 156.91 Z" />
</g>
<g id="#ae7a5eff">
<path fill="#ae7a5e" opacity="1.00" d=" M 181.16 160.29 C 181.93 160.17 183.48 159.92 184.25 159.80 C 184.63 163.43 184.91 168.55 180.25 169.41 C 179.72 169.32 178.66 169.14 178.14 169.06 C 179.11 168.22 180.10 167.40 181.08 166.57 C 175.99 164.69 170.53 164.27 165.16 164.80 C 165.07 163.50 164.99 162.19 164.91 160.89 C 170.33 160.81 175.80 161.31 181.16 160.29 Z" />
</g>
<g id="#504e50ff">
<path fill="#504e50" opacity="1.00" d=" M 113.00 170.10 C 119.86 169.52 126.74 169.62 133.62 169.64 C 128.18 171.89 121.80 169.56 116.04 170.94 C 102.71 171.39 89.33 171.15 75.98 171.02 C 75.57 170.82 74.75 170.42 74.34 170.22 L 75.22 170.20 C 87.81 170.10 100.41 170.28 113.00 170.10 Z" />
</g>
</svg>
