<?xml version="1.0" encoding="UTF-8" ?>
<!DOCTYPE svg PUBLIC "-//W3C//DTD SVG 1.1//EN" "http://www.w3.org/Graphics/SVG/1.1/DTD/svg11.dtd">
<svg width="275pt" height="365pt" viewBox="0 0 275 365" version="1.1" xmlns="http://www.w3.org/2000/svg">
<path fill="#000000" opacity="1.00" d=" M 0.00 0.00 L 0.07 0.00 C 0.06 0.00 0.02 0.01 0.00 0.01 L 0.00 0.00 Z" />
<path fill="#ffffff" opacity="1.00" d=" M 0.07 0.00 L 275.00 0.00 L 275.00 286.59 C 261.75 285.07 251.50 275.55 238.85 272.25 C 236.02 271.78 234.68 269.03 232.82 267.18 C 225.25 259.01 215.38 253.57 205.72 248.26 C 205.00 244.89 203.85 241.63 202.84 238.34 C 202.50 238.94 202.16 239.54 201.83 240.15 C 209.29 256.21 212.16 273.90 218.58 290.35 C 220.40 295.56 223.39 300.30 224.75 305.66 C 228.82 320.14 233.05 334.57 237.32 348.99 C 228.48 344.91 219.89 339.54 213.82 331.80 C 213.88 321.50 220.22 312.33 219.84 301.98 C 219.85 299.14 218.89 296.46 217.67 293.95 C 213.54 294.88 211.35 290.95 208.01 289.61 C 203.84 289.71 200.18 292.13 196.29 293.38 C 190.21 295.36 185.39 300.18 179.01 301.36 C 176.21 301.38 173.84 298.87 170.94 299.58 C 166.92 300.08 163.05 302.39 158.93 301.52 C 151.52 299.14 143.68 300.57 136.07 299.77 C 131.07 299.82 126.11 297.47 121.16 298.83 C 116.80 302.26 119.22 308.38 119.75 312.94 C 121.90 321.98 118.86 331.38 121.22 340.37 C 115.75 348.57 110.64 357.01 104.85 364.99 C 102.98 364.78 102.14 363.09 101.23 361.69 C 97.37 355.32 94.43 348.46 91.16 341.79 C 88.97 337.04 86.43 332.29 85.73 327.05 C 85.35 316.52 79.24 307.35 77.78 297.02 C 76.85 289.17 72.43 282.03 72.76 274.00 C 72.93 262.85 78.38 252.67 79.13 241.60 C 81.43 246.24 83.54 251.06 87.03 254.96 C 95.29 264.57 106.79 270.50 118.02 275.92 C 128.50 280.77 138.48 286.65 148.25 292.80 C 152.38 295.12 156.92 297.95 161.87 297.11 C 168.58 295.15 172.65 288.98 176.73 283.76 C 184.95 273.76 193.94 263.86 198.48 251.52 C 200.18 248.20 202.90 243.65 199.74 240.33 C 200.37 249.08 196.00 257.17 191.37 264.28 C 182.52 275.80 173.96 287.92 162.14 296.66 C 148.16 293.34 136.80 284.18 124.22 277.78 C 110.07 271.40 96.16 263.60 85.33 252.31 C 81.68 245.89 80.13 238.56 78.57 231.41 C 78.36 238.81 77.78 246.19 76.40 253.48 C 69.56 255.98 66.33 262.90 62.59 268.56 C 55.77 274.42 50.80 282.20 43.35 287.36 C 30.01 296.96 14.15 302.06 0.00 310.24 L 0.00 0.01 C 0.02 0.01 0.06 0.00 0.07 0.00 M 115.99 3.89 C 99.29 2.62 82.86 8.92 69.41 18.48 C 65.98 21.04 62.29 23.25 59.03 26.02 C 56.97 27.65 56.73 30.69 54.50 32.15 C 51.20 34.18 49.95 38.01 48.22 41.25 C 46.53 44.74 44.08 47.78 42.19 51.15 C 40.65 53.86 40.92 57.10 40.07 60.02 C 39.29 62.74 38.24 65.38 37.59 68.14 C 36.01 74.31 36.67 80.74 36.49 87.04 C 36.08 90.30 38.27 93.01 38.83 96.10 C 40.15 101.14 39.04 106.49 40.59 111.49 C 42.45 118.06 43.48 124.85 43.85 131.66 C 40.84 133.52 41.80 137.13 41.50 140.08 C 41.35 142.74 39.58 145.54 41.00 148.14 C 43.72 153.32 46.68 158.46 47.95 164.23 C 50.10 170.46 49.34 177.91 53.80 183.18 C 55.82 185.84 59.28 185.64 62.24 185.39 C 63.62 194.23 64.36 203.41 68.39 211.56 C 70.97 216.30 75.08 220.15 76.79 225.38 C 79.76 227.40 83.05 228.86 86.02 230.86 C 81.04 226.96 76.24 222.60 73.03 217.08 C 67.32 207.23 63.66 196.19 62.44 184.87 C 62.04 180.83 63.57 176.40 61.33 172.69 C 59.91 170.18 58.64 167.58 56.92 165.26 L 56.70 164.88 C 58.43 163.64 60.14 164.78 61.48 166.05 C 62.38 157.15 56.68 148.81 59.23 139.95 C 57.41 128.88 59.96 117.53 64.49 107.42 C 63.81 107.65 62.46 108.12 61.78 108.35 C 59.31 102.80 59.97 96.25 63.33 91.21 C 62.58 91.65 61.08 92.52 60.34 92.95 C 61.12 87.63 59.76 82.41 59.44 77.14 C 63.02 75.15 67.22 73.72 71.21 75.49 C 73.39 70.59 75.82 65.58 79.94 62.00 C 83.54 58.69 88.58 57.20 93.42 57.77 C 85.63 61.29 77.66 67.09 76.28 76.14 C 78.29 70.47 82.25 65.53 87.47 62.51 C 95.86 57.56 105.73 56.35 115.16 54.73 C 121.92 54.03 128.13 50.47 135.02 50.61 C 137.10 50.58 139.07 49.85 141.12 49.56 C 149.04 48.48 157.14 50.74 164.95 48.56 C 172.20 46.83 177.16 53.02 182.32 56.86 C 182.56 61.26 181.35 65.67 182.41 70.02 C 181.85 70.21 180.71 70.58 180.14 70.76 C 180.94 72.55 181.86 74.32 182.31 76.24 C 182.94 79.01 182.10 82.02 183.52 84.61 C 184.83 87.37 185.01 90.44 185.58 93.39 C 189.93 99.33 198.04 102.89 199.16 110.85 C 199.24 115.62 198.61 120.61 201.30 124.87 C 200.81 126.56 200.28 128.29 200.55 130.08 C 200.84 136.40 200.79 142.73 200.47 149.05 C 201.75 149.51 203.03 149.96 204.31 150.43 C 205.92 147.22 206.32 143.62 206.92 140.13 C 211.17 142.56 209.54 147.90 208.89 151.80 C 212.89 149.92 215.88 145.38 214.05 140.96 C 213.67 144.02 213.54 147.46 210.66 149.34 C 211.57 145.48 210.81 141.26 207.18 139.13 C 209.01 136.21 209.36 132.82 209.72 129.49 C 212.27 124.62 215.09 119.42 214.57 113.73 C 215.70 113.66 216.84 113.60 217.97 113.54 C 217.87 114.33 217.66 115.93 217.56 116.73 C 217.72 117.00 218.03 117.52 218.18 117.79 C 217.87 123.56 218.68 129.30 219.88 134.94 C 219.25 135.59 218.63 136.24 218.02 136.91 C 217.81 134.61 216.72 132.67 215.20 131.02 C 218.13 136.12 217.99 142.26 216.95 147.87 C 219.69 144.21 216.84 139.12 219.99 135.75 C 220.95 143.35 220.36 151.34 217.42 158.46 C 215.44 163.13 211.18 168.16 205.48 166.60 C 204.20 162.48 204.65 158.14 204.35 153.91 C 203.78 157.54 203.34 161.22 203.48 164.91 C 203.60 170.35 205.82 175.53 205.50 181.01 C 205.89 191.80 203.54 202.81 198.12 212.19 C 195.95 216.23 191.64 218.33 188.62 221.64 C 183.16 227.61 177.94 233.82 171.98 239.32 C 176.86 235.08 181.67 230.72 185.96 225.88 C 187.88 223.81 189.15 221.02 191.74 219.66 C 195.00 217.93 197.01 214.69 199.67 212.25 C 199.40 221.05 199.16 229.86 199.00 238.66 C 200.00 238.47 201.00 238.32 202.01 238.21 C 201.59 237.48 200.74 236.01 200.32 235.27 C 201.39 227.09 199.46 218.90 200.22 210.72 C 203.63 205.00 205.25 198.43 205.95 191.86 C 207.05 183.49 206.43 174.91 204.56 166.70 C 207.71 168.35 211.77 167.92 214.19 165.23 C 218.96 160.07 220.62 152.85 221.21 146.03 C 221.87 139.27 219.26 132.77 219.28 126.05 C 219.08 122.42 219.55 118.77 218.98 115.16 C 218.58 114.27 218.18 113.37 217.78 112.48 C 217.10 112.47 215.75 112.44 215.07 112.43 C 215.47 104.77 215.54 97.04 214.78 89.40 C 215.45 89.36 216.78 89.29 217.44 89.25 C 216.60 87.27 215.75 85.29 214.97 83.29 C 215.78 83.62 217.40 84.29 218.21 84.62 C 217.94 84.05 217.40 82.91 217.12 82.34 C 217.54 82.34 218.38 82.35 218.80 82.36 C 213.14 73.60 212.34 62.88 208.75 53.28 C 206.78 46.93 201.93 42.17 198.13 36.90 C 191.40 28.08 181.07 20.95 169.54 21.65 C 164.50 9.13 150.19 4.32 137.83 2.95 C 130.53 1.81 123.28 3.79 115.99 3.89 M 139.02 79.12 C 141.97 79.74 145.00 79.41 147.95 79.00 C 144.98 78.78 141.98 78.63 139.02 79.12 M 98.52 85.38 L 98.60 86.22 C 99.79 86.78 100.46 86.46 100.62 85.24 C 100.27 85.12 99.57 84.89 99.22 84.77 L 98.52 85.38 M 92.22 87.40 C 93.27 87.89 94.30 87.82 95.32 87.21 C 95.25 86.79 95.10 85.97 95.03 85.56 C 93.95 85.29 91.81 86.02 92.22 87.40 M 139.49 114.41 C 140.66 114.94 141.86 115.41 143.08 115.81 C 146.57 114.37 150.37 114.96 154.03 114.54 C 160.65 113.94 167.28 111.81 173.95 113.11 C 177.89 113.54 181.56 115.14 184.78 117.41 C 184.07 115.79 183.25 114.22 182.42 112.67 C 177.42 111.21 172.24 110.56 167.17 109.44 C 163.35 108.65 159.98 106.23 155.99 106.23 C 150.99 105.65 146.15 107.09 141.43 108.54 C 141.28 109.24 140.99 110.63 140.84 111.32 C 140.08 109.21 140.72 107.01 140.84 104.86 C 138.34 107.40 139.53 111.24 139.49 114.41 M 108.22 111.41 C 108.30 112.14 108.45 113.59 108.53 114.32 C 103.04 113.51 96.28 112.40 92.24 117.19 C 83.84 118.09 76.24 122.81 70.88 129.22 C 76.91 130.41 81.85 126.39 86.80 123.74 C 90.48 121.64 94.97 121.87 98.89 123.12 C 102.45 121.67 106.26 121.17 110.08 121.25 C 112.56 117.98 111.16 113.85 108.22 111.41 M 144.18 126.86 C 147.19 124.40 150.64 122.66 154.42 121.72 L 154.45 123.20 C 154.30 123.33 154.00 123.60 153.85 123.73 C 150.66 125.12 148.12 127.59 145.40 129.69 C 147.42 128.82 149.39 127.85 151.30 126.77 C 158.27 129.78 167.62 129.67 173.23 124.01 C 177.94 125.41 182.24 129.73 187.44 127.79 C 182.47 128.74 179.25 124.34 174.86 123.11 C 169.16 121.25 163.13 120.24 157.13 120.66 C 152.22 120.90 146.99 122.55 144.18 126.86 M 137.97 131.86 C 138.14 129.48 138.19 127.08 137.94 124.71 C 137.26 127.05 137.59 129.50 137.97 131.86 M 121.29 134.98 C 121.64 132.18 120.86 129.46 119.69 126.94 C 119.77 129.69 120.47 132.37 121.29 134.98 M 79.82 139.41 C 82.39 139.47 84.41 137.52 86.89 137.18 C 90.23 136.49 93.63 136.89 96.99 137.21 C 101.86 137.63 106.55 135.39 110.09 132.17 C 111.28 132.87 112.48 133.54 113.70 134.19 C 113.14 133.38 112.03 131.75 111.47 130.94 C 112.54 131.37 114.67 132.23 115.73 132.66 C 113.59 130.51 110.81 129.24 108.15 127.87 C 108.62 128.54 109.55 129.87 110.02 130.54 C 106.98 129.83 103.96 129.02 101.07 127.83 C 92.84 128.45 84.37 132.27 79.82 139.41 M 187.32 129.66 C 187.20 131.31 190.02 132.20 191.34 131.53 C 191.75 129.70 188.63 128.94 187.32 129.66 M 164.04 136.52 C 159.99 137.03 156.04 135.44 152.00 135.39 C 159.60 140.29 168.42 135.22 176.36 134.06 C 172.04 132.10 168.10 135.54 164.04 136.52 M 189.43 133.12 C 190.63 134.41 191.90 135.63 193.17 136.85 C 193.35 136.66 193.70 136.26 193.87 136.06 C 192.40 135.06 190.94 134.04 189.43 133.12 M 182.72 134.85 C 185.57 136.16 188.41 137.51 191.07 139.20 C 188.97 136.67 185.86 135.45 182.72 134.85 M 107.93 142.05 C 101.25 144.40 94.08 143.50 87.15 143.77 C 82.62 144.00 79.12 147.20 75.99 150.14 C 81.00 146.80 86.82 143.73 93.06 144.91 C 91.47 146.83 89.26 147.79 86.87 148.30 C 89.17 148.76 91.27 147.59 93.44 147.06 C 93.55 146.69 93.75 145.96 93.85 145.60 C 98.78 144.46 103.76 143.52 108.70 142.41 C 111.63 141.85 113.75 139.64 115.20 137.16 C 112.95 139.02 110.78 141.16 107.93 142.05 M 73.74 137.78 C 73.76 138.29 73.80 139.31 73.82 139.82 C 73.17 140.13 71.85 140.76 71.19 141.07 C 72.22 141.22 73.24 141.38 74.27 141.56 C 74.67 140.59 75.11 139.66 75.58 138.74 C 74.97 138.43 74.35 138.11 73.74 137.78 M 71.58 155.66 C 70.09 157.40 68.29 159.36 68.50 161.83 C 69.82 159.77 70.63 157.21 72.76 155.79 C 76.39 153.11 80.90 152.19 85.07 150.71 C 80.21 150.58 75.22 152.44 71.58 155.66 M 138.35 151.40 C 138.02 153.01 138.64 153.60 140.21 153.17 C 140.57 151.58 139.95 150.99 138.35 151.40 M 120.65 153.68 C 120.30 154.39 119.95 155.11 119.61 155.83 C 120.93 154.70 122.22 153.54 123.44 152.32 C 122.51 152.76 121.58 153.22 120.65 153.68 M 150.47 154.78 C 153.39 157.45 153.78 163.44 150.16 165.71 C 147.58 164.55 144.58 163.72 141.82 164.78 C 137.59 166.61 134.97 170.67 132.92 174.61 C 129.79 174.39 128.50 171.27 126.21 169.64 C 122.86 167.15 118.37 165.79 114.29 167.14 C 114.43 167.90 114.70 169.42 114.84 170.18 C 112.59 168.98 110.33 167.76 108.54 165.91 C 109.33 164.35 110.09 162.79 110.76 161.19 C 109.44 162.26 108.33 163.55 107.52 165.05 C 108.60 168.44 111.54 170.61 114.84 171.62 C 115.15 170.87 115.78 169.36 116.09 168.61 C 115.86 169.41 115.41 171.01 115.19 171.82 C 118.40 171.73 121.61 171.24 124.83 171.34 C 126.69 171.31 127.47 173.29 128.76 174.30 C 130.13 175.96 132.40 175.76 134.32 175.57 C 135.30 173.85 136.07 171.92 137.59 170.59 C 138.81 169.39 140.81 168.67 140.71 166.65 C 141.26 166.40 142.36 165.91 142.92 165.66 C 145.14 166.25 147.39 167.71 149.75 167.03 C 153.97 165.22 154.77 159.26 152.23 155.79 C 152.85 155.40 153.46 155.01 154.08 154.62 C 154.81 155.41 155.62 156.12 156.51 156.74 C 155.67 155.13 154.41 153.80 152.74 153.05 C 151.99 153.63 151.23 154.21 150.47 154.78 M 102.80 161.41 C 104.99 160.58 107.29 159.79 109.00 158.11 C 106.68 158.64 104.49 159.72 102.80 161.41 M 177.58 181.13 C 176.17 177.14 172.63 174.62 169.04 172.76 C 171.34 176.04 174.74 178.33 177.58 181.13 M 188.67 173.00 C 189.31 175.95 189.42 179.02 190.32 181.90 C 190.49 178.85 189.72 175.84 188.67 173.00 M 91.33 182.53 C 88.23 183.94 86.75 187.57 86.57 190.81 C 88.18 188.36 89.54 185.72 91.55 183.56 C 93.24 181.64 95.63 180.44 97.06 178.27 C 95.19 179.75 93.54 181.53 91.33 182.53 M 94.30 187.39 C 94.20 188.24 94.09 189.08 93.97 189.94 C 94.40 190.58 94.83 191.22 95.26 191.87 C 94.99 188.85 95.37 185.83 95.62 182.82 C 95.12 184.32 94.67 185.85 94.30 187.39 M 154.04 187.29 C 138.36 188.20 123.08 192.19 107.55 194.26 C 106.97 194.17 105.83 193.98 105.26 193.89 C 105.35 193.51 105.52 192.74 105.60 192.36 C 103.56 192.29 101.48 192.42 99.76 193.66 C 100.07 193.97 100.69 194.58 101.00 194.88 C 101.30 194.54 101.91 193.85 102.22 193.51 L 104.67 192.91 C 104.56 193.53 104.35 194.76 104.24 195.38 C 115.64 202.55 130.00 204.09 142.96 200.94 C 149.01 199.09 154.64 196.09 159.97 192.73 C 159.63 192.33 158.93 191.54 158.59 191.14 C 158.60 190.50 158.63 189.22 158.64 188.58 C 160.61 189.15 161.10 190.55 160.12 192.78 C 163.12 190.00 167.11 188.43 169.82 185.37 C 164.73 187.08 159.37 187.38 154.04 187.29 M 126.58 187.46 C 130.74 187.72 134.99 187.82 139.04 186.69 C 134.88 186.32 130.68 186.73 126.58 187.46 M 105.34 203.27 C 113.29 211.16 125.23 213.05 135.99 212.50 C 143.88 211.76 152.44 209.59 157.74 203.25 C 147.76 210.80 134.59 212.94 122.41 211.08 C 116.20 209.79 111.36 205.12 105.34 203.27 M 142.18 216.74 C 137.83 217.62 133.36 217.10 128.99 217.79 C 135.01 219.10 141.37 218.36 147.11 216.22 C 148.24 215.89 149.03 215.02 149.80 214.18 C 147.21 214.92 144.90 216.48 142.18 216.74 M 92.13 235.28 C 103.22 242.42 115.19 248.39 127.95 251.92 C 130.90 252.93 133.94 251.66 136.92 251.48 C 141.50 250.85 146.15 251.62 150.71 250.82 C 159.02 251.18 165.08 244.82 170.93 239.88 C 166.20 243.35 161.86 247.73 156.07 249.38 C 149.78 250.60 143.31 249.11 137.03 250.34 C 133.87 250.82 130.61 251.92 127.44 250.91 C 122.39 249.48 117.65 247.20 112.75 245.36 C 105.62 242.53 99.15 238.33 92.13 235.28 Z" />
<path fill="#000000" opacity="1.00" d=" M 115.99 3.89 C 123.28 3.79 130.53 1.81 137.83 2.95 C 150.19 4.32 164.50 9.13 169.54 21.65 C 181.07 20.95 191.40 28.08 198.13 36.90 C 201.93 42.17 206.78 46.93 208.75 53.28 C 212.34 62.88 213.14 73.60 218.80 82.36 C 218.38 82.35 217.54 82.34 217.12 82.34 C 217.40 82.91 217.94 84.05 218.21 84.62 C 217.40 84.29 215.78 83.62 214.97 83.29 C 215.75 85.29 216.60 87.27 217.44 89.25 C 216.78 89.29 215.45 89.36 214.78 89.40 C 215.54 97.04 215.47 104.77 215.07 112.43 C 215.75 112.44 217.10 112.47 217.78 112.48 C 218.18 113.37 218.58 114.27 218.98 115.16 C 219.55 118.77 219.08 122.42 219.28 126.05 C 219.26 132.77 221.87 139.27 221.21 146.03 C 220.62 152.85 218.96 160.07 214.19 165.23 C 211.77 167.92 207.71 168.35 204.56 166.70 C 206.43 174.91 207.05 183.49 205.95 191.86 C 205.25 198.43 203.63 205.00 200.22 210.72 C 199.46 218.90 201.39 227.09 200.32 235.27 C 200.74 236.01 201.59 237.48 202.01 238.21 C 201.00 238.32 200.00 238.47 199.00 238.66 C 199.16 229.86 199.40 221.05 199.67 212.25 C 197.01 214.69 195.00 217.93 191.74 219.66 C 189.15 221.02 187.88 223.81 185.96 225.88 C 181.67 230.72 176.86 235.08 171.98 239.32 C 177.94 233.82 183.16 227.61 188.62 221.64 C 191.64 218.33 195.95 216.23 198.12 212.19 C 203.54 202.81 205.89 191.80 205.50 181.01 C 205.82 175.53 203.60 170.35 203.48 164.91 C 203.34 161.22 203.78 157.54 204.35 153.91 C 204.65 158.14 204.20 162.48 205.48 166.60 C 211.18 168.16 215.44 163.13 217.42 158.46 C 220.36 151.34 220.95 143.35 219.99 135.75 C 216.84 139.12 219.69 144.21 216.95 147.87 C 217.99 142.26 218.13 136.12 215.20 131.02 C 216.72 132.67 217.81 134.61 218.02 136.91 C 218.63 136.24 219.25 135.59 219.88 134.94 C 218.68 129.30 217.87 123.56 218.18 117.79 C 218.03 117.52 217.72 117.00 217.56 116.73 C 217.66 115.93 217.87 114.33 217.97 113.54 C 216.84 113.60 215.70 113.66 214.57 113.73 C 215.09 119.42 212.27 124.62 209.72 129.49 C 209.36 132.82 209.01 136.21 207.18 139.13 C 210.81 141.26 211.57 145.48 210.66 149.34 C 213.54 147.46 213.67 144.02 214.05 140.96 C 215.88 145.38 212.89 149.92 208.89 151.80 C 209.54 147.90 211.17 142.56 206.92 140.13 C 206.32 143.62 205.92 147.22 204.31 150.43 C 203.03 149.96 201.75 149.51 200.47 149.05 C 200.79 142.73 200.84 136.40 200.55 130.08 C 200.28 128.29 200.81 126.56 201.30 124.87 C 198.61 120.61 199.24 115.62 199.16 110.85 C 198.04 102.89 189.93 99.33 185.58 93.39 C 185.01 90.44 184.83 87.37 183.52 84.61 C 182.10 82.02 182.94 79.01 182.31 76.24 C 181.86 74.32 180.94 72.55 180.14 70.76 C 180.71 70.58 181.85 70.21 182.41 70.02 C 181.35 65.67 182.56 61.26 182.32 56.86 C 177.16 53.02 172.20 46.83 164.95 48.56 C 157.14 50.74 149.04 48.48 141.12 49.56 C 139.07 49.85 137.10 50.58 135.02 50.61 C 128.13 50.47 121.92 54.03 115.16 54.73 C 105.73 56.35 95.86 57.56 87.47 62.51 C 82.25 65.53 78.29 70.47 76.28 76.14 C 77.66 67.09 85.63 61.29 93.42 57.77 C 88.58 57.20 83.54 58.69 79.94 62.00 C 75.82 65.58 73.39 70.59 71.21 75.49 C 67.22 73.72 63.02 75.15 59.44 77.14 C 59.76 82.41 61.12 87.63 60.34 92.95 C 61.08 92.52 62.58 91.65 63.33 91.21 C 59.97 96.25 59.31 102.80 61.78 108.35 C 62.46 108.12 63.81 107.65 64.49 107.42 C 59.96 117.53 57.41 128.88 59.23 139.95 C 56.68 148.81 62.38 157.15 61.48 166.05 C 60.14 164.78 58.43 163.64 56.70 164.88 L 55.88 165.02 L 55.70 162.57 C 56.90 162.56 58.12 162.56 59.33 162.53 C 57.06 161.68 57.17 159.23 56.55 157.36 C 55.96 154.83 54.46 152.67 53.14 150.50 C 52.54 152.23 52.00 154.02 51.02 155.60 C 50.99 153.14 52.16 150.99 53.28 148.90 C 52.37 146.82 51.48 144.72 50.56 142.63 C 48.80 147.35 49.56 152.43 49.03 157.33 C 47.21 152.26 49.36 147.06 49.99 141.99 C 47.54 140.31 45.38 138.26 43.38 136.07 C 45.18 136.98 46.91 138.01 48.71 138.91 C 46.87 136.79 44.87 134.76 43.60 132.22 C 41.86 134.35 42.94 137.23 42.17 139.68 C 41.29 142.62 40.55 145.94 42.06 148.82 C 43.94 152.61 46.12 156.29 47.42 160.35 C 48.49 163.22 48.84 166.34 50.08 169.14 C 51.06 169.53 52.04 169.90 53.03 170.25 C 53.19 170.54 53.51 171.12 53.66 171.42 C 52.81 171.18 51.95 171.09 51.09 171.15 C 49.79 172.70 50.94 174.72 51.27 176.43 C 51.98 179.49 53.55 182.41 56.25 184.15 C 57.99 184.67 59.85 184.46 61.64 184.60 C 61.74 181.32 61.91 177.98 61.09 174.77 C 60.17 171.41 58.18 168.49 56.92 165.26 C 58.64 167.58 59.91 170.18 61.33 172.69 C 63.57 176.40 62.04 180.83 62.44 184.87 C 63.66 196.19 67.32 207.23 73.03 217.08 C 76.24 222.60 81.04 226.96 86.02 230.86 C 83.05 228.86 79.76 227.40 76.79 225.38 C 75.08 220.15 70.97 216.30 68.39 211.56 C 64.36 203.41 63.62 194.23 62.24 185.39 C 59.28 185.64 55.82 185.84 53.80 183.18 C 49.34 177.91 50.10 170.46 47.95 164.23 C 46.68 158.46 43.72 153.32 41.00 148.14 C 39.58 145.54 41.35 142.74 41.50 140.08 C 41.80 137.13 40.84 133.52 43.85 131.66 C 43.48 124.85 42.45 118.06 40.59 111.49 C 39.04 106.49 40.15 101.14 38.83 96.10 C 38.27 93.01 36.08 90.30 36.49 87.04 C 36.67 80.74 36.01 74.31 37.59 68.14 C 38.24 65.38 39.29 62.74 40.07 60.02 C 40.92 57.10 40.65 53.86 42.19 51.15 C 44.08 47.78 46.53 44.74 48.22 41.25 C 49.95 38.01 51.20 34.18 54.50 32.15 C 56.73 30.69 56.97 27.65 59.03 26.02 C 62.29 23.25 65.98 21.04 69.41 18.48 C 82.86 8.92 99.29 2.62 115.99 3.89 Z" />
<path fill="#000000" opacity="1.00" d=" M 139.02 79.12 C 141.98 78.63 144.98 78.78 147.95 79.00 C 145.00 79.41 141.97 79.74 139.02 79.12 Z" />
<path fill="#000000" opacity="1.00" d=" M 98.52 85.38 L 99.22 84.77 C 99.57 84.89 100.27 85.12 100.62 85.24 C 100.46 86.46 99.79 86.78 98.60 86.22 L 98.52 85.38 Z" />
<path fill="#000000" opacity="1.00" d=" M 92.22 87.40 C 91.81 86.02 93.95 85.29 95.03 85.56 C 95.10 85.97 95.25 86.79 95.32 87.21 C 94.30 87.82 93.27 87.89 92.22 87.40 Z" />
<path fill="#000000" opacity="1.00" d=" M 139.49 114.41 C 139.53 111.24 138.34 107.40 140.84 104.86 C 140.72 107.01 140.08 109.21 140.84 111.32 C 140.99 110.63 141.28 109.24 141.43 108.54 C 146.15 107.09 150.99 105.65 155.99 106.23 C 159.98 106.23 163.35 108.65 167.17 109.44 C 172.24 110.56 177.42 111.21 182.42 112.67 C 183.25 114.22 184.07 115.79 184.78 117.41 C 181.56 115.14 177.89 113.54 173.95 113.11 C 167.28 111.81 160.65 113.94 154.03 114.54 C 150.37 114.96 146.57 114.37 143.08 115.81 C 141.86 115.41 140.66 114.94 139.49 114.41 Z" />
<path fill="#000000" opacity="1.00" d=" M 108.22 111.41 C 111.16 113.85 112.56 117.98 110.08 121.25 C 106.26 121.17 102.45 121.67 98.89 123.12 C 94.97 121.87 90.48 121.64 86.80 123.74 C 81.85 126.39 76.91 130.41 70.88 129.22 C 76.24 122.81 83.84 118.09 92.24 117.19 C 96.28 112.40 103.04 113.51 108.53 114.32 C 108.45 113.59 108.30 112.14 108.22 111.41 Z" />
<path fill="#000000" opacity="1.00" d=" M 144.18 126.86 C 146.99 122.55 152.22 120.90 157.13 120.66 C 163.13 120.24 169.16 121.25 174.86 123.11 C 179.25 124.34 182.47 128.74 187.44 127.79 C 182.24 129.73 177.94 125.41 173.23 124.01 C 167.62 129.67 158.27 129.78 151.30 126.77 C 149.39 127.85 147.42 128.82 145.40 129.69 C 148.12 127.59 150.66 125.12 153.85 123.73 C 153.37 124.32 152.42 125.49 151.94 126.08 C 152.94 126.67 154.02 126.93 155.18 126.83 C 155.49 125.57 154.75 124.38 154.45 123.20 L 154.42 121.72 C 150.64 122.66 147.19 124.40 144.18 126.86 M 161.66 123.01 C 161.50 124.61 164.40 125.68 164.91 123.92 C 165.37 122.05 162.21 121.22 161.66 123.01 M 168.73 123.16 C 168.48 123.89 167.99 125.34 167.74 126.07 C 169.32 125.67 170.83 125.05 172.09 123.97 C 170.97 123.70 169.84 123.43 168.73 123.16 Z" />
<path fill="#ffffff" opacity="1.00" d=" M 161.66 123.01 C 162.21 121.22 165.37 122.05 164.91 123.92 C 164.40 125.68 161.50 124.61 161.66 123.01 Z" />
<path fill="#000000" opacity="1.00" d=" M 153.85 123.73 C 154.00 123.60 154.30 123.33 154.45 123.20 C 154.30 123.33 154.00 123.60 153.85 123.73 Z" />
<path fill="#ffffff" opacity="1.00" d=" M 154.45 123.20 C 154.75 124.38 155.49 125.57 155.18 126.83 C 154.02 126.93 152.94 126.67 151.94 126.08 C 152.42 125.49 153.37 124.32 153.85 123.73 C 154.00 123.60 154.30 123.33 154.45 123.20 Z" />
<path fill="#ffffff" opacity="1.00" d=" M 168.73 123.16 C 169.84 123.43 170.97 123.70 172.09 123.97 C 170.83 125.05 169.32 125.67 167.74 126.07 C 167.99 125.34 168.48 123.89 168.73 123.16 Z" />
<path fill="#000000" opacity="1.00" d=" M 137.97 131.86 C 137.59 129.50 137.26 127.05 137.94 124.71 C 138.19 127.08 138.14 129.48 137.97 131.86 Z" />
<path fill="#000000" opacity="1.00" d=" M 121.29 134.98 C 120.47 132.37 119.77 129.69 119.69 126.94 C 120.86 129.46 121.64 132.18 121.29 134.98 Z" />
<path fill="#000000" opacity="1.00" d=" M 79.82 139.41 C 84.37 132.27 92.84 128.45 101.07 127.83 C 103.96 129.02 106.98 129.83 110.02 130.54 C 109.55 129.87 108.62 128.54 108.15 127.87 C 110.81 129.24 113.59 130.51 115.73 132.66 C 114.67 132.23 112.54 131.37 111.47 130.94 C 112.03 131.75 113.14 133.38 113.70 134.19 C 112.48 133.54 111.28 132.87 110.09 132.17 C 106.55 135.39 101.86 137.63 96.99 137.21 C 93.63 136.89 90.23 136.49 86.89 137.18 C 84.41 137.52 82.39 139.47 79.82 139.41 M 99.19 129.70 C 97.72 130.70 99.38 133.32 100.84 132.04 C 102.24 131.03 100.63 128.54 99.19 129.70 M 104.48 132.51 C 104.63 134.84 107.71 133.17 108.25 131.97 C 107.28 131.23 103.81 130.13 104.48 132.51 M 82.02 138.16 C 83.61 137.49 86.79 136.16 88.39 135.49 L 88.68 136.56 C 89.35 136.24 90.69 135.58 91.36 135.26 C 91.32 134.25 91.23 132.25 91.19 131.25 C 87.56 132.66 84.36 135.02 82.02 138.16 Z" />
<path fill="#ffffff" opacity="1.00" d=" M 99.19 129.70 C 100.63 128.54 102.24 131.03 100.84 132.04 C 99.38 133.32 97.72 130.70 99.19 129.70 Z" />
<path fill="#000000" opacity="1.00" d=" M 187.32 129.66 C 188.63 128.94 191.75 129.70 191.34 131.53 C 190.02 132.20 187.20 131.31 187.32 129.66 Z" />
<path fill="#ffffff" opacity="1.00" d=" M 104.48 132.51 C 103.81 130.13 107.28 131.23 108.25 131.97 C 107.71 133.17 104.63 134.84 104.48 132.51 Z" />
<path fill="#ffffff" opacity="1.00" d=" M 82.02 138.16 C 84.36 135.02 87.56 132.66 91.19 131.25 C 91.23 132.25 91.32 134.25 91.36 135.26 C 90.69 135.58 89.35 136.24 88.68 136.56 L 88.39 135.49 C 86.79 136.16 83.61 137.49 82.02 138.16 Z" />
<path fill="#ffffff" opacity="1.00" d=" M 42.17 139.68 C 42.94 137.23 41.86 134.35 43.60 132.22 C 44.87 134.76 46.87 136.79 48.71 138.91 C 46.91 138.01 45.18 136.98 43.38 136.07 C 45.38 138.26 47.54 140.31 49.99 141.99 C 49.36 147.06 47.21 152.26 49.03 157.33 C 49.56 152.43 48.80 147.35 50.56 142.63 C 51.48 144.72 52.37 146.82 53.28 148.90 C 52.16 150.99 50.99 153.14 51.02 155.60 C 52.00 154.02 52.54 152.23 53.14 150.50 C 54.46 152.67 55.96 154.83 56.55 157.36 C 57.17 159.23 57.06 161.68 59.33 162.53 C 58.12 162.56 56.90 162.56 55.70 162.57 L 55.88 165.02 L 56.70 164.88 C 56.71 165.03 56.73 165.33 56.74 165.48 L 56.92 165.26 C 58.18 168.49 60.17 171.41 61.09 174.77 C 61.91 177.98 61.74 181.32 61.64 184.60 C 59.85 184.46 57.99 184.67 56.25 184.15 C 53.55 182.41 51.98 179.49 51.27 176.43 C 50.94 174.72 49.79 172.70 51.09 171.15 C 51.95 171.09 52.81 171.18 53.66 171.42 C 53.51 171.12 53.19 170.54 53.03 170.25 C 52.04 169.90 51.06 169.53 50.08 169.14 C 48.84 166.34 48.49 163.22 47.42 160.35 C 46.12 156.29 43.94 152.61 42.06 148.82 C 40.55 145.94 41.29 142.62 42.17 139.68 Z" />
<path fill="#000000" opacity="1.00" d=" M 164.04 136.52 C 168.10 135.54 172.04 132.10 176.36 134.06 C 168.42 135.22 159.60 140.29 152.00 135.39 C 156.04 135.44 159.99 137.03 164.04 136.52 Z" />
<path fill="#000000" opacity="1.00" d=" M 189.43 133.12 C 190.94 134.04 192.40 135.06 193.87 136.06 C 193.70 136.26 193.35 136.66 193.17 136.85 C 191.90 135.63 190.63 134.41 189.43 133.12 Z" />
<path fill="#000000" opacity="1.00" d=" M 182.72 134.85 C 185.86 135.45 188.97 136.67 191.07 139.20 C 188.41 137.51 185.57 136.16 182.72 134.85 Z" />
<path fill="#000000" opacity="1.00" d=" M 107.93 142.05 C 110.78 141.16 112.95 139.02 115.20 137.16 C 113.75 139.64 111.63 141.85 108.70 142.41 C 103.76 143.52 98.78 144.46 93.85 145.60 C 93.75 145.96 93.55 146.69 93.44 147.06 C 91.27 147.59 89.17 148.76 86.87 148.30 C 89.26 147.79 91.47 146.83 93.06 144.91 C 86.82 143.73 81.00 146.80 75.99 150.14 C 79.12 147.20 82.62 144.00 87.15 143.77 C 94.08 143.50 101.25 144.40 107.93 142.05 Z" />
<path fill="#000000" opacity="1.00" d=" M 73.74 137.78 C 74.35 138.11 74.97 138.43 75.58 138.74 C 75.11 139.66 74.67 140.59 74.27 141.56 C 73.24 141.38 72.22 141.22 71.19 141.07 C 71.85 140.76 73.17 140.13 73.82 139.82 C 73.80 139.31 73.76 138.29 73.74 137.78 Z" />
<path fill="#000000" opacity="1.00" d=" M 71.58 155.66 C 75.22 152.44 80.21 150.58 85.07 150.71 C 80.90 152.19 76.39 153.11 72.76 155.79 C 70.63 157.21 69.82 159.77 68.50 161.83 C 68.29 159.36 70.09 157.40 71.58 155.66 Z" />
<path fill="#000000" opacity="1.00" d=" M 138.35 151.40 C 139.95 150.99 140.57 151.58 140.21 153.17 C 138.64 153.60 138.02 153.01 138.35 151.40 Z" />
<path fill="#000000" opacity="1.00" d=" M 120.65 153.68 C 121.58 153.22 122.51 152.76 123.44 152.32 C 122.22 153.54 120.93 154.70 119.61 155.83 C 119.95 155.11 120.30 154.39 120.65 153.68 Z" />
<path fill="#000000" opacity="1.00" d=" M 150.47 154.78 C 151.23 154.21 151.99 153.63 152.74 153.05 C 154.41 153.80 155.67 155.13 156.51 156.74 C 155.62 156.12 154.81 155.41 154.08 154.62 C 153.46 155.01 152.85 155.40 152.23 155.79 C 154.77 159.26 153.97 165.22 149.75 167.03 C 147.39 167.71 145.14 166.25 142.92 165.66 C 142.36 165.91 141.26 166.40 140.71 166.65 C 140.81 168.67 138.81 169.39 137.59 170.59 C 136.07 171.92 135.30 173.85 134.32 175.57 C 132.40 175.76 130.13 175.96 128.76 174.30 C 127.47 173.29 126.69 171.31 124.83 171.34 C 121.61 171.24 118.40 171.73 115.19 171.82 C 115.41 171.01 115.86 169.41 116.09 168.61 C 115.78 169.36 115.15 170.87 114.84 171.62 C 111.54 170.61 108.60 168.44 107.52 165.05 C 108.33 163.55 109.44 162.26 110.76 161.19 C 110.09 162.79 109.33 164.35 108.54 165.91 C 110.33 167.76 112.59 168.98 114.84 170.18 C 114.70 169.42 114.43 167.90 114.29 167.14 C 118.37 165.79 122.86 167.15 126.21 169.64 C 128.50 171.27 129.79 174.39 132.92 174.61 C 134.97 170.67 137.59 166.61 141.82 164.78 C 144.58 163.72 147.58 164.55 150.16 165.71 C 153.78 163.44 153.39 157.45 150.47 154.78 Z" />
<path fill="#000000" opacity="1.00" d=" M 102.80 161.41 C 104.49 159.72 106.68 158.64 109.00 158.11 C 107.29 159.79 104.99 160.58 102.80 161.41 Z" />
<path fill="#000000" opacity="1.00" d=" M 56.74 165.48 C 56.73 165.33 56.71 165.03 56.70 164.88 L 56.92 165.26 L 56.74 165.48 Z" />
<path fill="#000000" opacity="1.00" d=" M 177.58 181.13 C 174.74 178.33 171.34 176.04 169.04 172.76 C 172.63 174.62 176.17 177.14 177.58 181.13 Z" />
<path fill="#000000" opacity="1.00" d=" M 188.67 173.00 C 189.72 175.84 190.49 178.85 190.32 181.90 C 189.42 179.02 189.31 175.95 188.67 173.00 Z" />
<path fill="#000000" opacity="1.00" d=" M 91.33 182.53 C 93.54 181.53 95.19 179.75 97.06 178.27 C 95.63 180.44 93.24 181.64 91.55 183.56 C 89.54 185.72 88.18 188.36 86.57 190.81 C 86.75 187.57 88.23 183.94 91.33 182.53 Z" />
<path fill="#000000" opacity="1.00" d=" M 94.30 187.39 C 94.67 185.85 95.12 184.32 95.62 182.82 C 95.37 185.83 94.99 188.85 95.26 191.87 C 94.83 191.22 94.40 190.58 93.97 189.94 C 94.09 189.08 94.20 188.24 94.30 187.39 Z" />
<path fill="#000000" opacity="1.00" d=" M 154.04 187.29 C 159.37 187.38 164.73 187.08 169.82 185.37 C 167.11 188.43 163.12 190.00 160.12 192.78 C 161.10 190.55 160.61 189.15 158.64 188.58 C 158.63 189.22 158.60 190.50 158.59 191.14 C 158.93 191.54 159.63 192.33 159.97 192.73 C 154.64 196.09 149.01 199.09 142.96 200.94 C 130.00 204.09 115.64 202.55 104.24 195.38 C 104.35 194.76 104.56 193.53 104.67 192.91 L 102.22 193.51 C 101.91 193.85 101.30 194.54 101.00 194.88 C 100.69 194.58 100.07 193.97 99.76 193.66 C 101.48 192.42 103.56 192.29 105.60 192.36 C 105.52 192.74 105.35 193.51 105.26 193.89 C 105.83 193.98 106.97 194.17 107.55 194.26 C 123.08 192.19 138.36 188.20 154.04 187.29 M 151.46 195.95 C 152.27 195.55 153.90 194.75 154.71 194.35 C 154.27 192.61 154.85 190.35 153.32 189.07 C 149.69 189.37 151.54 193.66 151.46 195.95 M 144.87 190.96 C 144.41 193.51 145.48 195.98 145.91 198.46 C 147.35 197.76 149.18 197.45 150.07 195.96 C 151.16 194.31 150.52 192.26 150.53 190.44 C 148.72 190.38 146.28 189.52 144.87 190.96 M 155.97 190.05 C 155.22 191.24 155.19 192.44 155.89 193.65 C 158.24 194.37 158.43 188.79 155.97 190.05 M 136.31 192.53 C 136.61 194.85 136.90 197.17 137.24 199.48 C 139.65 199.33 142.05 199.19 144.46 199.06 C 144.45 196.22 144.24 193.37 143.26 190.68 C 140.81 190.67 138.41 191.26 136.31 192.53 M 127.42 193.61 C 127.55 195.93 127.68 198.26 127.87 200.58 C 130.55 200.74 133.23 200.56 135.88 200.24 C 135.72 197.65 136.08 194.76 134.55 192.50 C 132.36 190.78 129.54 192.61 127.42 193.61 M 120.65 194.31 C 121.05 196.08 121.41 197.86 121.72 199.65 C 123.27 200.18 124.89 200.46 126.53 200.58 C 126.74 198.33 127.15 195.92 126.04 193.82 C 124.31 192.83 122.36 193.78 120.65 194.31 M 112.28 195.25 C 113.07 197.05 114.20 199.54 116.57 198.35 C 117.19 198.78 118.42 199.64 119.04 200.07 C 121.19 199.22 121.42 193.57 118.23 194.81 C 116.35 195.90 114.30 195.88 112.28 195.25 Z" />
<path fill="#000000" opacity="1.00" d=" M 126.58 187.46 C 130.68 186.73 134.88 186.32 139.04 186.69 C 134.99 187.82 130.74 187.72 126.58 187.46 Z" />
<path fill="#ffffff" opacity="1.00" d=" M 151.46 195.95 C 151.54 193.66 149.69 189.37 153.32 189.07 C 154.85 190.35 154.27 192.61 154.71 194.35 C 153.90 194.75 152.27 195.55 151.46 195.95 Z" />
<path fill="#ffffff" opacity="1.00" d=" M 144.87 190.96 C 146.28 189.52 148.72 190.38 150.53 190.44 C 150.52 192.26 151.16 194.31 150.07 195.96 C 149.18 197.45 147.35 197.76 145.91 198.46 C 145.48 195.98 144.41 193.51 144.87 190.96 Z" />
<path fill="#ffffff" opacity="1.00" d=" M 155.97 190.05 C 158.43 188.79 158.24 194.37 155.89 193.65 C 155.19 192.44 155.22 191.24 155.97 190.05 Z" />
<path fill="#ffffff" opacity="1.00" d=" M 136.31 192.53 C 138.41 191.26 140.81 190.67 143.26 190.68 C 144.24 193.37 144.45 196.22 144.46 199.06 C 142.05 199.19 139.65 199.33 137.24 199.48 C 136.90 197.17 136.61 194.85 136.31 192.53 Z" />
<path fill="#ffffff" opacity="1.00" d=" M 127.42 193.61 C 129.54 192.61 132.36 190.78 134.55 192.50 C 136.08 194.76 135.72 197.65 135.88 200.24 C 133.23 200.56 130.55 200.74 127.87 200.58 C 127.68 198.26 127.55 195.93 127.42 193.61 Z" />
<path fill="#ffffff" opacity="1.00" d=" M 120.65 194.31 C 122.36 193.78 124.31 192.83 126.04 193.82 C 127.15 195.92 126.74 198.33 126.53 200.58 C 124.89 200.46 123.27 200.18 121.72 199.65 C 121.41 197.86 121.05 196.08 120.65 194.31 Z" />
<path fill="#ffffff" opacity="1.00" d=" M 112.28 195.25 C 114.30 195.88 116.35 195.90 118.23 194.81 C 121.42 193.57 121.19 199.22 119.04 200.07 C 118.42 199.64 117.19 198.78 116.57 198.35 C 114.20 199.54 113.07 197.05 112.28 195.25 Z" />
<path fill="#000000" opacity="1.00" d=" M 105.34 203.27 C 111.36 205.12 116.20 209.79 122.41 211.08 C 134.59 212.94 147.76 210.80 157.74 203.25 C 152.44 209.59 143.88 211.76 135.99 212.50 C 125.23 213.05 113.29 211.16 105.34 203.27 Z" />
<path fill="#000000" opacity="1.00" d=" M 142.18 216.74 C 144.90 216.48 147.21 214.92 149.80 214.18 C 149.03 215.02 148.24 215.89 147.11 216.22 C 141.37 218.36 135.01 219.10 128.99 217.79 C 133.36 217.10 137.83 217.62 142.18 216.74 Z" />
<path fill="#000000" opacity="1.00" d=" M 76.40 253.48 C 77.78 246.19 78.36 238.81 78.57 231.41 C 80.13 238.56 81.68 245.89 85.33 252.31 C 96.16 263.60 110.07 271.40 124.22 277.78 C 136.80 284.18 148.16 293.34 162.14 296.66 C 173.96 287.92 182.52 275.80 191.37 264.28 C 196.00 257.17 200.37 249.08 199.74 240.33 C 202.90 243.65 200.18 248.20 198.48 251.52 C 193.94 263.86 184.95 273.76 176.73 283.76 C 172.65 288.98 168.58 295.15 161.87 297.11 C 156.92 297.95 152.38 295.12 148.25 292.80 C 138.48 286.65 128.50 280.77 118.02 275.92 C 106.79 270.50 95.29 264.57 87.03 254.96 C 83.54 251.06 81.43 246.24 79.13 241.60 C 78.38 252.67 72.93 262.85 72.76 274.00 C 72.43 282.03 76.85 289.17 77.78 297.02 C 79.24 307.35 85.35 316.52 85.73 327.05 C 86.43 332.29 88.97 337.04 91.16 341.79 C 94.43 348.46 97.37 355.32 101.23 361.69 C 102.14 363.09 102.98 364.78 104.85 364.99 C 110.64 357.01 115.75 348.57 121.22 340.37 C 118.86 331.38 121.90 321.98 119.75 312.94 C 119.22 308.38 116.80 302.26 121.16 298.83 C 126.11 297.47 131.07 299.82 136.07 299.77 C 143.68 300.57 151.52 299.14 158.93 301.52 C 163.05 302.39 166.92 300.08 170.94 299.58 C 173.84 298.87 176.21 301.38 179.01 301.36 C 185.39 300.18 190.21 295.36 196.29 293.38 C 200.18 292.13 203.84 289.71 208.01 289.61 C 211.35 290.95 213.54 294.88 217.67 293.95 C 218.89 296.46 219.85 299.14 219.84 301.98 C 220.22 312.33 213.88 321.50 213.82 331.80 C 219.89 339.54 228.48 344.91 237.32 348.99 C 233.05 334.57 228.82 320.14 224.75 305.66 C 223.39 300.30 220.40 295.56 218.58 290.35 C 212.16 273.90 209.29 256.21 201.83 240.15 C 202.16 239.54 202.50 238.94 202.84 238.34 C 203.85 241.63 205.00 244.89 205.72 248.26 C 215.38 253.57 225.25 259.01 232.82 267.18 C 234.68 269.03 236.02 271.78 238.85 272.25 C 251.50 275.55 261.75 285.07 275.00 286.59 L 275.00 365.00 L 257.68 365.00 C 257.16 353.41 253.89 342.14 249.59 331.43 C 242.63 314.55 236.03 297.36 226.06 281.97 C 221.77 275.58 218.70 267.59 211.21 264.24 C 220.21 292.82 231.34 320.78 238.30 349.98 C 228.33 347.57 220.24 340.77 213.35 333.50 C 211.66 336.68 208.01 335.36 205.19 335.12 C 198.93 334.21 192.32 335.21 186.35 332.77 C 182.16 330.72 178.90 326.91 174.07 326.22 C 175.01 332.54 177.33 338.65 177.36 345.11 C 175.52 339.20 175.01 332.99 173.40 327.02 C 167.65 326.55 162.60 330.28 156.83 329.58 C 154.55 332.84 151.10 335.23 149.13 338.68 C 149.03 346.93 152.36 354.79 152.28 363.05 C 149.61 355.27 148.38 347.03 148.24 338.83 C 139.49 343.41 132.44 350.68 123.36 354.72 C 120.29 351.39 121.84 346.38 121.44 342.32 C 115.41 349.32 112.10 358.21 105.80 365.00 L 101.66 365.00 C 96.97 357.09 93.27 348.66 89.26 340.40 C 90.89 348.69 92.85 356.93 95.37 365.00 L 0.00 365.00 L 0.00 310.24 C 14.15 302.06 30.01 296.96 43.35 287.36 C 50.80 282.20 55.77 274.42 62.59 268.56 C 66.33 262.90 69.56 255.98 76.40 253.48 Z" />
<path fill="#000000" opacity="1.00" d=" M 92.13 235.28 C 99.15 238.33 105.62 242.53 112.75 245.36 C 117.65 247.20 122.39 249.48 127.44 250.91 C 130.61 251.92 133.87 250.82 137.03 250.34 C 143.31 249.11 149.78 250.60 156.07 249.38 C 161.86 247.73 166.20 243.35 170.93 239.88 C 165.08 244.82 159.02 251.18 150.71 250.82 C 146.15 251.62 141.50 250.85 136.92 251.48 C 133.94 251.66 130.90 252.93 127.95 251.92 C 115.19 248.39 103.22 242.42 92.13 235.28 Z" />
<path fill="#ffffff" opacity="1.00" d=" M 211.21 264.24 C 218.70 267.59 221.77 275.58 226.06 281.97 C 236.03 297.36 242.63 314.55 249.59 331.43 C 253.89 342.14 257.16 353.41 257.68 365.00 L 105.80 365.00 C 112.10 358.21 115.41 349.32 121.44 342.32 C 121.84 346.38 120.29 351.39 123.36 354.72 C 132.44 350.68 139.49 343.41 148.24 338.83 C 148.38 347.03 149.61 355.27 152.28 363.05 C 152.36 354.79 149.03 346.93 149.13 338.68 C 151.10 335.23 154.55 332.84 156.83 329.58 C 162.60 330.28 167.65 326.55 173.40 327.02 C 175.01 332.99 175.52 339.20 177.36 345.11 C 177.33 338.65 175.01 332.54 174.07 326.22 C 178.90 326.91 182.16 330.72 186.35 332.77 C 192.32 335.21 198.93 334.21 205.19 335.12 C 208.01 335.36 211.66 336.68 213.35 333.50 C 220.24 340.77 228.33 347.57 238.30 349.98 C 231.34 320.78 220.21 292.82 211.21 264.24 Z" />
<path fill="#ffffff" opacity="1.00" d=" M 89.26 340.40 C 93.27 348.66 96.97 357.09 101.66 365.00 L 95.37 365.00 C 92.85 356.93 90.89 348.69 89.26 340.40 Z" />
</svg>
