<?xml version="1.0" encoding="UTF-8" ?>
<!DOCTYPE svg PUBLIC "-//W3C//DTD SVG 1.1//EN" "http://www.w3.org/Graphics/SVG/1.1/DTD/svg11.dtd">
<svg width="250pt" height="314pt" viewBox="0 0 250 314" version="1.1" xmlns="http://www.w3.org/2000/svg">
<path fill="#ffffff" opacity="1.00" d=" M 0.00 0.00 L 250.00 0.00 L 250.00 260.35 C 245.98 255.51 238.70 253.66 236.88 247.09 C 238.51 243.93 240.31 240.66 240.28 237.00 C 241.22 227.95 238.57 219.04 238.91 210.00 C 239.25 202.11 240.27 194.00 237.74 186.33 C 234.77 176.57 231.70 166.00 223.81 158.97 C 219.01 153.73 213.15 149.61 207.15 145.85 C 198.04 140.33 188.48 135.55 178.50 131.82 C 169.32 128.71 160.35 124.84 151.94 120.04 C 149.40 117.00 148.93 112.72 146.32 109.70 C 144.99 108.28 143.21 107.42 141.58 106.42 C 141.41 103.50 141.28 100.58 141.28 97.66 C 145.36 92.61 146.72 86.13 149.23 80.29 C 151.62 75.82 153.64 71.06 154.42 66.02 C 154.86 61.29 153.87 55.32 158.15 52.07 C 157.97 46.98 158.71 41.44 155.90 36.88 C 153.73 33.64 152.24 29.99 149.89 26.86 C 149.17 22.19 147.05 17.61 143.04 14.89 C 139.57 11.90 134.87 11.33 131.01 9.09 C 127.56 7.08 126.21 3.09 123.74 0.16 C 123.68 0.89 123.57 2.36 123.51 3.09 C 119.33 2.86 115.15 2.86 110.98 2.80 C 104.79 2.82 98.42 4.66 92.39 2.56 C 88.45 1.72 84.37 0.81 80.33 1.54 C 80.94 2.16 82.17 3.39 82.78 4.01 C 74.65 5.03 66.69 7.93 60.27 13.09 C 62.37 13.25 64.48 13.35 66.60 13.46 C 65.01 13.93 63.41 14.38 61.82 14.84 C 61.55 15.34 61.01 16.34 60.74 16.84 C 60.99 17.64 61.49 19.24 61.73 20.04 C 59.98 20.66 58.24 21.32 56.53 22.04 C 57.47 22.35 59.35 22.97 60.30 23.28 C 59.65 23.75 58.35 24.68 57.71 25.14 C 59.10 29.87 62.75 33.16 66.40 36.20 C 63.45 39.96 58.64 44.42 61.56 49.61 C 63.97 53.22 63.48 57.48 63.10 61.58 C 61.12 62.43 57.56 62.89 58.11 65.91 C 59.38 70.25 62.15 73.96 64.85 77.51 C 64.78 81.00 64.74 84.63 66.21 87.87 C 69.15 95.56 73.11 102.78 77.18 109.91 C 80.34 115.08 78.56 122.49 84.07 126.26 C 77.78 128.95 72.36 133.19 66.41 136.51 C 54.74 143.01 42.73 149.03 31.89 156.90 C 27.14 160.21 25.64 166.07 24.14 171.32 C 23.29 174.71 20.67 177.17 19.01 180.14 C 17.32 183.47 18.52 187.31 17.88 190.84 C 16.64 195.42 12.54 199.02 12.68 204.01 C 12.63 205.89 13.45 207.63 14.02 209.39 C 13.07 211.75 12.04 214.09 11.36 216.55 C 9.75 221.85 10.41 227.56 8.58 232.83 C 7.07 238.25 2.49 242.27 1.47 247.88 C 0.74 250.31 1.19 252.82 1.81 255.22 C 0.91 257.17 0.26 259.29 1.13 261.39 C 0.86 262.24 0.58 263.09 0.29 263.94 C 0.88 264.41 2.04 265.37 2.63 265.84 C 2.26 266.13 1.52 266.70 1.15 266.98 C 2.39 273.35 1.08 279.86 2.39 286.21 C 2.71 292.82 6.83 298.24 9.80 303.86 C 9.99 307.26 9.99 310.72 11.06 314.00 L 0.00 314.00 L 0.00 0.00 Z" />
<path fill="#000000" opacity="1.00" d=" M 123.74 0.16 C 126.21 3.09 127.56 7.08 131.01 9.09 C 134.87 11.33 139.57 11.90 143.04 14.89 C 147.05 17.61 149.17 22.19 149.89 26.86 C 152.24 29.99 153.73 33.64 155.90 36.88 C 158.71 41.44 157.97 46.98 158.15 52.07 C 153.87 55.32 154.86 61.29 154.42 66.02 C 153.64 71.06 151.62 75.82 149.23 80.29 C 146.72 86.13 145.36 92.61 141.28 97.66 C 141.28 100.58 141.41 103.50 141.58 106.42 C 143.21 107.42 144.99 108.28 146.32 109.70 C 148.93 112.72 149.40 117.00 151.94 120.04 C 160.35 124.84 169.32 128.71 178.50 131.82 C 188.48 135.55 198.04 140.33 207.15 145.85 C 213.15 149.61 219.01 153.73 223.81 158.97 C 231.70 166.00 234.77 176.57 237.74 186.33 C 240.27 194.00 239.25 202.11 238.91 210.00 C 238.57 219.04 241.22 227.95 240.28 237.00 C 240.31 240.66 238.51 243.93 236.88 247.09 C 238.70 253.66 245.98 255.51 250.00 260.35 L 250.00 261.79 L 249.58 262.04 C 248.29 267.31 245.08 271.80 243.59 276.98 C 243.61 280.24 245.90 282.90 246.38 286.05 C 245.24 288.26 241.84 287.27 239.84 288.03 C 241.47 289.91 243.08 291.83 244.41 293.94 C 243.11 294.82 241.80 295.68 240.47 296.51 C 238.48 298.82 236.26 300.93 233.82 302.77 C 234.54 307.72 229.44 310.40 226.99 314.00 L 11.06 314.00 C 9.99 310.72 9.99 307.26 9.80 303.86 C 6.83 298.24 2.71 292.82 2.39 286.21 C 1.08 279.86 2.39 273.35 1.15 266.98 C 1.52 266.70 2.26 266.13 2.63 265.84 C 2.04 265.37 0.88 264.41 0.29 263.94 C 0.58 263.09 0.86 262.24 1.13 261.39 C 0.26 259.29 0.91 257.17 1.81 255.22 C 1.19 252.82 0.74 250.31 1.47 247.88 C 2.49 242.27 7.07 238.25 8.58 232.83 C 10.41 227.56 9.75 221.85 11.36 216.55 C 12.04 214.09 13.07 211.75 14.02 209.39 C 13.45 207.63 12.63 205.89 12.68 204.01 C 12.54 199.02 16.64 195.42 17.88 190.84 C 18.52 187.31 17.32 183.47 19.01 180.14 C 20.67 177.17 23.29 174.71 24.14 171.32 C 25.64 166.07 27.14 160.21 31.89 156.90 C 42.73 149.03 54.74 143.01 66.41 136.51 C 72.36 133.19 77.78 128.95 84.07 126.26 C 78.56 122.49 80.34 115.08 77.18 109.91 C 73.11 102.78 69.15 95.56 66.21 87.87 C 64.74 84.63 64.78 81.00 64.85 77.51 C 62.15 73.96 59.38 70.25 58.11 65.91 C 57.56 62.89 61.12 62.43 63.10 61.58 C 63.48 57.48 63.97 53.22 61.56 49.61 C 58.64 44.42 63.45 39.96 66.40 36.20 C 62.75 33.16 59.10 29.87 57.71 25.14 C 58.35 24.68 59.65 23.75 60.30 23.28 C 59.35 22.97 57.47 22.35 56.53 22.04 C 58.24 21.32 59.98 20.66 61.73 20.04 C 61.49 19.24 60.99 17.64 60.74 16.84 C 61.01 16.34 61.55 15.34 61.82 14.84 C 63.41 14.38 65.01 13.93 66.60 13.46 C 64.48 13.35 62.37 13.25 60.27 13.09 C 66.69 7.93 74.65 5.03 82.78 4.01 C 82.17 3.39 80.94 2.16 80.33 1.54 C 84.37 0.81 88.45 1.72 92.39 2.56 C 98.42 4.66 104.79 2.82 110.98 2.80 C 115.15 2.86 119.33 2.86 123.51 3.09 C 123.57 2.36 123.68 0.89 123.74 0.16 M 132.61 17.14 C 131.26 17.47 129.92 17.85 128.61 18.29 C 130.81 18.46 133.01 18.27 135.21 18.40 C 135.55 18.21 136.21 17.83 136.54 17.64 C 138.44 17.94 140.34 18.25 142.23 18.62 C 140.91 17.76 139.62 16.88 138.30 16.02 C 136.41 16.46 134.47 16.25 132.56 16.09 C 132.57 16.35 132.60 16.88 132.61 17.14 M 107.49 27.38 C 103.96 30.75 99.08 35.05 93.89 32.81 C 94.54 32.39 95.83 31.55 96.48 31.13 C 87.68 33.41 78.75 36.18 69.58 35.90 C 68.76 38.25 67.94 40.59 66.87 42.83 C 65.32 48.16 64.99 53.70 64.17 59.16 C 65.59 57.49 66.18 54.38 68.69 53.91 C 73.88 52.04 77.75 56.97 80.83 60.38 C 76.87 59.30 73.97 55.13 69.56 55.84 C 67.36 57.23 66.17 59.69 64.64 61.70 C 70.63 61.53 76.93 59.74 82.69 62.21 C 84.43 63.01 86.36 63.25 88.25 63.04 C 89.89 62.13 91.00 60.23 92.98 60.00 C 99.89 58.25 107.07 58.76 114.06 59.68 C 125.13 58.83 136.03 56.07 147.20 56.48 C 142.69 56.30 138.13 55.85 133.68 56.79 C 132.65 54.27 131.53 51.69 129.32 49.97 C 129.55 49.65 130.00 49.01 130.23 48.68 C 129.75 48.09 128.79 46.90 128.32 46.31 C 131.83 42.50 132.70 37.32 131.69 32.36 C 130.06 33.77 128.40 35.52 126.03 35.28 C 122.31 35.14 117.60 34.53 115.53 31.00 C 119.11 31.66 122.80 33.40 126.47 32.27 C 128.25 31.87 127.49 29.62 127.91 28.31 C 124.42 26.88 120.85 25.34 117.02 25.22 C 113.73 25.09 109.93 24.66 107.49 27.38 M 146.88 30.20 C 146.58 31.17 146.31 32.15 146.08 33.14 C 144.28 31.85 142.21 31.08 140.11 30.46 C 141.15 33.96 143.01 37.12 144.68 40.34 C 144.71 38.73 144.73 37.13 144.76 35.52 C 146.58 34.94 148.48 33.45 150.45 34.34 C 151.86 35.35 153.07 36.62 154.39 37.74 C 153.12 35.21 151.84 32.69 150.62 30.15 C 149.37 30.11 148.12 30.13 146.88 30.20 M 140.47 65.58 C 139.51 69.48 138.03 73.34 135.62 76.58 C 134.66 78.05 133.03 78.51 131.35 78.24 C 132.65 72.50 133.27 66.65 133.35 60.77 C 127.21 61.88 120.64 61.47 114.88 64.14 C 114.83 67.50 114.62 70.94 113.44 74.11 C 111.61 77.47 107.35 77.42 104.03 77.20 C 100.82 76.93 97.20 77.70 94.36 75.78 C 91.55 73.18 90.03 69.55 88.28 66.22 C 86.68 66.24 85.02 66.02 83.47 66.54 C 82.61 69.30 83.13 72.25 82.54 75.06 C 82.16 77.79 81.01 80.31 80.19 82.91 C 79.47 85.87 83.61 87.69 85.81 86.20 C 87.95 84.92 90.42 84.50 92.86 85.07 C 93.02 85.52 93.35 86.42 93.52 86.87 C 89.59 88.02 85.36 88.24 81.34 87.58 C 76.91 85.86 79.05 80.38 80.11 77.06 C 75.65 78.37 71.03 78.74 66.42 78.08 C 65.99 89.74 73.22 99.62 78.43 109.46 C 80.59 113.68 80.76 118.61 82.87 122.84 C 89.17 127.01 97.36 126.40 104.27 124.21 C 100.27 127.71 94.72 127.31 89.79 127.42 C 94.28 129.36 99.06 131.70 104.05 131.43 C 112.57 128.42 119.17 121.99 126.23 116.63 C 121.19 122.46 115.08 127.56 108.15 130.98 C 101.81 134.13 94.66 131.47 88.99 128.16 C 86.59 134.75 89.96 141.69 94.33 146.58 C 100.84 149.30 108.27 149.36 115.14 148.21 C 122.55 136.59 130.88 125.44 140.73 115.74 C 140.59 106.74 139.58 97.77 139.89 88.76 C 138.12 88.02 136.43 87.05 135.37 85.39 C 137.50 85.88 139.63 86.70 141.84 86.39 C 146.73 82.08 150.74 76.48 152.11 70.00 C 152.37 68.38 153.14 66.55 151.95 65.11 C 151.61 64.90 150.93 64.48 150.59 64.27 C 149.12 62.88 147.14 63.61 145.37 63.65 C 146.36 62.99 147.23 61.79 148.54 61.81 C 150.16 62.39 151.58 63.42 153.25 63.91 C 153.35 60.27 150.02 58.67 146.96 58.66 C 144.64 60.78 143.97 65.33 140.47 65.58 M 91.18 64.07 C 89.50 67.55 92.36 70.90 94.01 73.81 C 99.34 75.57 105.59 76.16 110.80 73.81 C 112.26 70.35 112.00 66.47 112.75 62.83 C 112.05 64.45 111.26 66.04 110.40 67.58 C 106.75 68.10 102.98 68.91 99.36 67.79 C 100.99 67.29 102.69 67.05 104.38 66.87 C 104.10 65.28 103.82 63.70 103.57 62.11 C 101.48 62.10 99.44 62.68 98.62 64.83 C 98.48 63.81 98.34 62.79 98.22 61.77 C 95.89 62.27 92.20 61.17 91.18 64.07 M 72.12 63.78 C 71.22 64.73 70.31 65.68 69.38 66.60 C 69.49 65.87 69.72 64.40 69.84 63.66 C 68.17 63.83 66.50 63.99 64.84 64.14 C 65.51 68.39 66.44 72.59 67.50 76.76 C 71.58 76.94 75.70 76.76 79.52 75.17 C 81.52 72.14 81.50 68.46 81.46 64.97 C 80.77 64.65 80.06 64.40 79.32 64.24 C 79.80 64.95 80.30 65.65 80.82 66.34 C 80.01 71.28 74.02 69.86 70.51 69.63 C 71.82 68.83 73.33 68.71 74.82 68.71 C 73.68 67.10 73.84 65.15 74.37 63.38 C 73.62 63.52 72.87 63.65 72.12 63.78 M 65.19 74.46 C 64.67 71.20 63.96 67.98 63.29 64.75 C 60.69 67.94 63.11 71.72 65.19 74.46 M 141.70 108.42 C 142.37 110.82 144.67 113.45 142.96 115.92 C 140.87 119.71 137.07 122.07 134.42 125.41 C 128.85 132.23 123.37 139.16 118.27 146.34 C 116.24 149.79 114.04 153.13 111.60 156.31 C 113.02 155.25 114.35 154.04 115.94 153.25 C 124.37 155.51 131.69 162.61 140.88 161.21 C 145.81 151.20 150.47 140.97 153.35 130.15 C 153.90 128.11 154.04 125.99 154.20 123.89 C 150.46 121.39 148.19 117.41 146.95 113.18 C 146.30 110.65 143.76 109.58 141.70 108.42 M 155.86 123.58 C 155.90 130.16 153.40 136.31 151.27 142.41 L 150.73 142.53 C 147.75 149.07 145.69 156.31 140.81 161.75 C 135.73 164.19 130.25 160.94 125.41 159.31 C 121.07 162.16 116.02 163.32 111.04 164.43 C 109.76 166.63 110.52 169.55 109.13 171.76 C 107.51 174.99 105.29 177.87 103.57 181.03 C 102.02 186.53 102.54 192.33 101.12 197.87 C 100.84 205.48 100.61 213.14 101.07 220.76 C 105.85 223.57 110.11 227.16 114.47 230.58 C 119.61 234.47 123.86 239.88 130.26 241.79 C 138.47 244.38 144.11 251.18 150.97 255.96 C 158.05 261.92 166.42 266.02 174.41 270.57 C 174.38 267.70 174.70 264.84 174.73 261.97 C 174.46 262.27 173.90 262.87 173.63 263.17 C 173.32 262.93 172.71 262.46 172.40 262.22 C 170.84 263.15 169.25 264.04 167.65 264.90 C 169.69 262.19 172.17 259.79 173.88 256.85 C 173.97 254.79 173.64 252.74 173.56 250.69 C 170.67 255.14 167.61 259.62 163.74 263.27 C 166.23 257.97 170.02 253.40 172.75 248.22 C 172.63 247.39 172.38 245.72 172.26 244.89 C 171.32 243.49 170.40 242.08 169.47 240.67 C 169.56 239.91 169.75 238.40 169.84 237.64 C 164.81 239.90 160.09 242.78 155.01 244.94 C 160.04 241.52 165.01 237.62 171.05 236.21 C 171.20 233.67 170.14 231.34 169.05 229.13 C 169.25 228.62 169.65 227.60 169.85 227.09 C 169.30 226.84 168.21 226.35 167.66 226.10 C 167.10 221.02 168.72 216.00 170.10 211.16 C 171.92 205.90 173.65 200.02 178.46 196.68 C 173.91 205.71 169.98 215.23 169.12 225.42 L 170.72 225.64 C 171.46 222.87 171.91 219.87 173.81 217.58 C 173.93 218.17 174.16 219.35 174.28 219.94 C 172.42 225.69 172.48 231.74 172.50 237.71 C 172.85 237.80 173.55 237.98 173.90 238.08 C 173.44 239.31 172.98 240.55 172.52 241.80 C 175.81 249.18 175.69 257.44 176.64 265.33 C 178.54 261.22 181.45 257.74 183.97 254.03 C 181.35 259.32 179.07 264.75 176.36 270.00 C 179.90 270.60 183.48 270.94 187.07 271.07 C 196.07 271.87 204.99 273.46 213.78 275.57 C 215.09 275.90 215.83 276.91 216.02 278.22 C 219.51 278.56 223.01 278.68 226.52 278.80 C 230.90 280.14 234.37 283.31 237.98 286.00 C 240.24 285.91 242.50 285.91 244.77 285.90 C 243.53 283.05 241.21 280.27 241.93 276.97 C 243.06 271.37 247.27 266.67 247.47 260.85 C 244.43 256.19 237.57 254.75 235.91 249.01 C 234.32 245.15 237.52 241.72 238.08 238.02 C 239.78 231.40 238.56 224.60 237.91 217.94 C 237.32 209.28 236.96 200.61 236.70 191.94 C 235.33 182.46 232.08 173.24 227.14 165.02 C 221.24 157.43 213.33 151.81 205.38 146.54 C 190.24 136.13 171.93 132.19 155.86 123.58 M 73.11 134.11 C 59.78 143.46 43.89 148.81 31.56 159.65 C 27.65 163.16 27.17 168.68 25.25 173.28 C 23.99 176.81 20.89 179.35 19.99 183.04 C 18.77 186.30 21.02 189.99 19.15 193.06 C 17.01 196.76 14.58 200.59 14.41 204.99 C 14.98 206.98 15.86 208.86 16.38 210.87 C 10.82 217.44 13.02 226.51 10.37 234.12 C 9.20 237.79 6.67 240.80 4.94 244.19 C 4.49 246.77 4.15 249.38 3.26 251.86 C 3.96 254.09 5.28 256.65 3.46 258.73 C 3.95 258.79 4.94 258.92 5.44 258.99 C 4.51 260.50 3.51 261.97 2.51 263.44 C 3.19 263.75 4.55 264.36 5.23 264.67 C 4.82 266.17 4.15 267.57 3.41 268.93 C 5.05 273.17 3.51 277.57 3.72 281.92 C 6.73 276.04 10.03 270.27 14.12 265.07 C 17.05 260.98 20.49 257.00 21.63 251.97 C 22.96 246.71 24.66 241.47 24.86 236.02 C 24.80 233.49 26.15 231.29 26.93 228.97 C 25.02 225.68 26.15 221.38 28.77 218.82 C 31.28 216.77 34.90 216.34 37.81 217.85 C 36.06 216.13 37.75 214.23 38.37 212.54 C 37.16 208.65 32.98 205.86 33.31 201.54 C 34.60 201.68 36.29 202.09 35.56 203.73 C 43.44 201.75 51.66 203.04 59.42 205.01 C 61.81 208.43 63.75 212.21 66.72 215.18 C 64.98 211.21 62.35 207.73 59.84 204.22 C 52.59 202.54 45.00 201.55 37.57 202.52 C 37.49 202.19 37.34 201.51 37.26 201.17 C 38.17 201.04 39.97 200.79 40.88 200.67 C 38.51 194.61 36.95 188.27 35.22 182.01 C 37.81 188.15 39.81 194.52 42.29 200.70 C 47.18 200.23 52.17 200.54 56.93 201.75 C 58.43 202.22 60.22 202.52 61.17 203.92 C 65.65 209.53 68.58 216.22 73.28 221.67 C 75.32 221.76 77.30 221.17 79.27 220.78 C 81.59 211.28 85.57 202.29 88.30 192.92 C 90.56 183.16 91.13 173.11 93.33 163.34 C 91.48 160.73 90.16 157.79 88.28 155.21 C 83.64 157.15 80.26 162.93 74.79 162.27 C 75.09 156.88 79.17 152.52 79.56 147.12 C 79.93 140.33 81.55 133.57 84.93 127.64 C 80.87 129.55 76.76 131.46 73.11 134.11 M 81.09 146.03 C 81.12 151.68 78.12 156.66 75.74 161.59 C 81.13 159.83 84.31 154.96 88.43 151.47 C 92.98 150.15 95.81 155.83 100.29 156.00 C 99.02 151.26 94.20 149.11 91.39 145.46 C 89.43 142.88 87.59 140.10 86.66 136.96 C 86.21 133.65 86.51 130.26 87.21 127.01 C 83.85 132.80 80.94 139.18 81.09 146.03 M 97.37 148.74 C 99.01 150.44 100.59 152.21 102.10 154.04 C 105.11 153.35 108.18 153.64 111.05 154.78 C 112.38 153.08 113.69 151.37 114.96 149.63 C 109.13 150.55 103.01 150.76 97.37 148.74 M 102.40 158.61 C 99.83 159.39 96.67 159.89 95.68 162.80 C 100.26 161.61 105.01 161.61 109.70 161.96 C 109.86 161.28 110.19 159.91 110.35 159.23 C 107.79 158.45 105.05 157.84 102.40 158.61 M 93.61 171.72 C 93.54 173.26 94.10 174.83 95.79 175.12 C 98.74 175.97 101.85 175.71 104.87 175.81 C 105.87 174.39 106.81 172.93 107.71 171.43 C 103.01 171.43 98.32 171.91 93.61 171.72 M 92.99 175.45 C 92.81 177.20 92.16 178.98 92.49 180.76 C 94.82 185.65 97.26 190.50 99.76 195.32 C 99.60 192.22 100.90 188.80 99.20 185.96 C 97.21 182.42 95.35 178.77 92.99 175.45 M 89.93 193.93 C 89.39 195.86 88.83 197.79 88.28 199.73 C 91.61 206.03 94.73 212.50 96.81 219.33 C 97.32 219.58 98.35 220.07 98.86 220.31 C 98.88 217.82 99.00 215.33 98.80 212.85 C 97.58 205.85 93.33 200.01 89.93 193.93 M 82.94 215.65 C 83.46 216.75 83.96 217.86 84.46 218.98 C 85.52 218.88 86.59 218.79 87.65 218.70 C 86.35 216.24 85.15 213.72 84.04 211.16 C 83.66 212.65 83.29 214.14 82.94 215.65 M 38.28 215.52 C 47.80 217.61 57.61 216.95 67.24 217.98 C 68.47 218.79 69.56 219.78 70.74 220.66 C 69.46 219.16 68.33 217.47 66.72 216.31 C 63.99 215.14 60.93 215.56 58.04 215.27 C 52.05 215.11 46.09 214.09 40.10 214.29 C 39.65 214.60 38.74 215.21 38.28 215.52 M 28.02 226.11 C 27.93 228.80 31.29 228.74 33.15 229.40 C 28.58 229.46 25.08 234.72 26.97 238.91 C 28.26 241.53 31.60 241.49 34.03 242.40 C 32.14 242.61 30.21 242.57 28.34 242.97 C 27.37 244.21 25.59 246.20 27.13 247.71 C 29.08 249.63 31.94 250.05 34.43 250.96 C 34.65 252.90 35.51 254.75 37.38 255.61 C 42.67 258.86 49.13 256.44 54.03 253.60 C 52.05 253.47 50.06 253.33 48.10 252.97 C 47.19 252.75 45.36 252.32 44.44 252.10 C 49.11 250.97 53.96 250.75 58.75 250.79 C 55.75 249.62 50.83 246.49 54.92 243.21 C 49.15 243.53 43.38 243.15 37.66 242.43 C 43.86 241.24 50.16 242.45 56.40 241.83 C 52.30 240.75 46.97 238.84 46.37 233.95 C 46.19 231.42 48.59 230.63 50.57 230.07 C 45.64 230.62 40.65 231.22 35.82 229.76 C 39.78 229.27 43.76 228.93 47.67 228.08 C 47.79 226.67 47.93 225.25 48.09 223.85 C 43.37 222.29 39.05 219.39 34.02 218.90 C 30.25 218.29 27.73 222.83 28.02 226.11 M 83.03 221.36 C 79.51 222.55 75.83 223.13 72.16 223.70 C 66.11 224.52 60.04 223.01 53.99 223.36 C 51.57 223.41 48.16 224.80 49.23 227.81 C 51.87 230.58 56.17 230.46 59.61 231.56 C 55.92 232.33 51.01 230.58 48.41 234.04 C 49.33 238.94 55.57 239.26 59.19 241.48 C 57.37 242.88 55.61 244.36 54.10 246.10 C 58.52 249.73 64.48 249.86 69.79 251.23 C 73.55 252.24 77.55 252.67 81.19 253.95 C 83.44 255.10 79.52 255.80 78.96 255.11 L 79.70 253.94 C 76.13 253.31 72.54 252.85 68.91 252.75 C 71.39 256.81 75.57 259.24 79.43 261.78 C 83.75 264.38 88.81 266.70 93.95 265.53 C 98.97 265.42 103.88 263.55 108.89 263.89 C 119.69 268.86 127.50 278.14 137.08 284.92 C 146.24 292.66 154.44 301.48 163.52 309.31 C 165.43 310.77 167.30 312.98 169.94 312.76 C 188.77 312.75 207.61 312.76 226.44 312.75 C 223.67 310.48 220.53 308.61 218.16 305.89 C 212.71 299.15 206.74 292.59 203.44 284.45 C 199.49 282.47 195.66 280.25 191.60 278.48 C 186.54 276.24 180.95 275.50 175.98 273.02 C 167.80 269.12 159.71 264.91 152.30 259.68 C 148.19 255.72 143.47 252.49 139.16 248.76 C 136.28 246.38 132.97 244.53 129.39 243.44 C 124.96 242.07 121.54 238.84 118.19 235.80 C 112.21 230.69 105.95 225.84 99.19 221.79 C 94.19 219.57 88.13 219.19 83.03 221.36 M 70.19 221.20 C 70.82 221.78 70.82 221.78 70.19 221.20 M 19.32 261.39 C 13.48 267.82 8.37 275.08 5.32 283.27 C 3.30 289.16 7.61 294.51 10.45 299.29 C 10.41 299.85 10.33 300.97 10.29 301.53 C 10.76 300.76 11.68 299.24 12.14 298.48 C 12.58 303.11 10.24 308.03 12.66 312.41 C 20.63 313.23 28.83 312.54 36.88 312.72 C 39.84 306.61 42.43 300.34 45.11 294.11 C 46.05 291.84 47.16 289.54 47.10 287.02 C 47.11 281.60 46.88 276.04 45.02 270.89 C 43.97 267.82 43.47 264.54 44.04 261.33 C 45.23 260.16 46.41 259.00 47.60 257.85 C 42.14 259.27 35.04 258.28 32.46 252.56 C 29.60 251.77 26.81 250.50 24.94 248.10 C 23.52 252.69 22.66 257.70 19.32 261.39 M 46.00 262.97 C 46.37 270.34 50.08 277.15 49.72 284.65 C 51.08 281.11 51.63 277.18 53.79 273.99 C 53.31 278.54 51.66 282.85 50.09 287.12 C 46.74 295.78 43.23 304.40 39.22 312.78 C 48.08 312.72 56.94 312.76 65.80 312.76 C 68.07 302.52 69.56 292.13 71.49 281.83 C 72.25 274.48 73.89 267.21 73.77 259.80 C 71.15 257.69 68.97 255.12 66.47 252.88 C 64.25 252.46 62.07 251.86 59.91 251.21 C 55.18 254.95 48.14 256.78 46.00 262.97 M 74.68 260.32 C 74.98 261.90 74.98 263.62 75.85 265.05 C 79.20 271.12 81.44 277.80 85.48 283.48 C 87.54 286.63 89.09 290.06 90.86 293.37 C 91.17 290.63 91.65 287.89 91.64 285.13 C 87.38 278.05 83.07 270.94 79.63 263.40 C 77.99 262.36 76.35 261.32 74.68 260.32 M 95.23 266.99 C 94.79 270.94 94.68 274.91 94.48 278.88 C 92.90 290.11 93.03 301.49 91.87 312.75 C 101.25 312.73 110.64 312.80 120.02 312.71 C 125.54 304.16 132.21 296.46 138.69 288.64 C 132.49 283.62 126.28 278.62 120.02 273.68 C 114.00 282.43 108.48 291.53 102.16 300.06 C 107.54 290.86 112.94 281.66 118.76 272.73 C 115.39 270.12 112.07 267.23 107.99 265.80 C 103.76 266.40 99.53 267.17 95.23 266.99 M 179.75 272.26 C 194.65 277.00 209.62 281.95 223.25 289.76 C 216.61 287.77 210.47 284.48 203.98 282.13 C 206.58 289.72 211.62 296.13 216.83 302.11 C 219.85 305.61 223.60 308.49 227.92 310.19 C 229.43 308.53 230.86 306.81 232.33 305.12 C 231.39 299.89 225.95 297.74 222.89 293.94 C 226.61 295.84 229.72 298.64 232.88 301.32 C 235.28 299.56 237.32 297.35 239.05 294.94 C 240.18 294.53 241.31 294.11 242.43 293.68 C 240.34 291.35 237.66 289.43 236.48 286.42 C 233.38 284.16 230.43 281.58 226.90 279.99 C 222.31 280.09 217.79 279.47 213.32 278.49 C 213.37 277.86 213.48 276.61 213.54 275.99 C 202.30 274.48 190.99 273.71 179.75 272.26 M 73.07 279.67 C 72.74 281.51 72.49 283.36 72.32 285.22 C 75.85 293.51 80.33 301.34 85.11 308.96 C 86.29 310.67 87.88 312.03 89.46 313.36 C 89.65 311.52 89.78 309.69 89.90 307.85 C 88.35 306.13 86.95 304.26 85.82 302.23 C 81.54 294.73 76.69 287.53 73.07 279.67 M 133.49 298.39 C 128.56 302.64 124.77 307.97 120.39 312.75 C 135.37 312.79 150.35 312.66 165.33 312.81 C 156.72 306.05 148.98 298.26 141.09 290.70 C 138.51 293.21 136.11 295.91 133.49 298.39 M 70.37 300.52 C 70.12 303.60 69.73 306.68 69.15 309.72 C 69.75 310.72 70.34 311.73 70.94 312.74 C 72.70 312.75 74.45 312.76 76.21 312.79 C 73.73 308.97 71.86 304.81 70.37 300.52 Z" />
<path fill="#ffffff" opacity="1.00" d=" M 132.61 17.14 C 132.60 16.88 132.57 16.35 132.56 16.09 C 134.47 16.25 136.41 16.46 138.30 16.02 C 139.62 16.88 140.91 17.76 142.23 18.62 C 140.34 18.25 138.44 17.94 136.54 17.64 C 136.21 17.83 135.55 18.21 135.21 18.40 C 133.01 18.27 130.81 18.46 128.61 18.29 C 129.92 17.85 131.26 17.47 132.61 17.14 Z" />
<path fill="#ffffff" opacity="1.00" d=" M 107.49 27.38 C 109.93 24.66 113.73 25.09 117.02 25.22 C 120.85 25.34 124.42 26.88 127.91 28.31 C 127.49 29.62 128.25 31.87 126.47 32.27 C 122.80 33.40 119.11 31.66 115.53 31.00 C 117.60 34.53 122.31 35.14 126.03 35.28 C 128.40 35.52 130.06 33.77 131.69 32.36 C 132.70 37.32 131.83 42.50 128.32 46.31 C 128.79 46.90 129.75 48.09 130.23 48.68 C 130.00 49.01 129.55 49.65 129.32 49.97 C 131.53 51.69 132.65 54.27 133.68 56.79 C 138.13 55.85 142.69 56.30 147.20 56.48 C 136.03 56.07 125.13 58.83 114.06 59.68 C 107.07 58.76 99.89 58.25 92.98 60.00 C 91.00 60.23 89.89 62.13 88.25 63.04 C 86.36 63.25 84.43 63.01 82.69 62.21 C 76.93 59.74 70.63 61.53 64.64 61.70 C 66.17 59.69 67.36 57.23 69.56 55.84 C 73.97 55.13 76.87 59.30 80.83 60.38 C 77.75 56.97 73.88 52.04 68.69 53.91 C 66.18 54.38 65.59 57.49 64.17 59.16 C 64.99 53.70 65.32 48.16 66.87 42.83 C 67.94 40.59 68.76 38.25 69.58 35.90 C 78.75 36.18 87.68 33.41 96.48 31.13 C 95.83 31.55 94.54 32.39 93.89 32.81 C 99.08 35.05 103.96 30.75 107.49 27.38 M 93.75 57.52 C 94.39 58.04 95.03 58.56 95.68 59.07 C 101.25 54.71 109.14 53.38 115.72 56.14 C 116.06 56.66 116.75 57.69 117.10 58.21 C 117.70 57.68 118.89 56.63 119.48 56.10 C 111.97 50.92 100.54 51.24 93.75 57.52 Z" />
<path fill="#ffffff" opacity="1.00" d=" M 146.88 30.20 C 148.12 30.13 149.37 30.11 150.62 30.15 C 151.84 32.69 153.12 35.21 154.39 37.74 C 153.07 36.62 151.86 35.35 150.45 34.34 C 148.48 33.45 146.58 34.94 144.76 35.52 C 144.73 37.13 144.71 38.73 144.68 40.34 C 143.01 37.12 141.15 33.96 140.11 30.46 C 142.21 31.08 144.28 31.85 146.08 33.14 C 146.31 32.15 146.58 31.17 146.88 30.20 Z" />
<path fill="#000000" opacity="1.00" d=" M 93.75 57.52 C 100.54 51.24 111.97 50.92 119.48 56.10 C 118.89 56.63 117.70 57.68 117.10 58.21 C 116.75 57.69 116.06 56.66 115.72 56.14 C 109.14 53.38 101.25 54.71 95.68 59.07 C 95.03 58.56 94.39 58.04 93.75 57.52 Z" />
<path fill="#ffffff" opacity="1.00" d=" M 140.47 65.58 C 143.97 65.33 144.64 60.78 146.96 58.66 C 150.02 58.67 153.35 60.27 153.25 63.91 C 151.58 63.42 150.16 62.39 148.54 61.81 C 147.23 61.79 146.36 62.99 145.37 63.65 C 147.14 63.61 149.12 62.88 150.59 64.27 C 150.93 64.48 151.61 64.90 151.95 65.11 C 153.14 66.55 152.37 68.38 152.11 70.00 C 150.74 76.48 146.73 82.08 141.84 86.39 C 139.63 86.70 137.50 85.88 135.37 85.39 C 136.43 87.05 138.12 88.02 139.89 88.76 C 139.58 97.77 140.59 106.74 140.73 115.74 C 130.88 125.44 122.55 136.59 115.14 148.21 C 108.27 149.36 100.84 149.30 94.33 146.58 C 89.96 141.69 86.59 134.75 88.99 128.16 C 94.66 131.47 101.81 134.13 108.15 130.98 C 115.08 127.56 121.19 122.46 126.23 116.63 C 119.17 121.99 112.57 128.42 104.05 131.43 C 99.06 131.70 94.28 129.36 89.79 127.42 C 94.72 127.31 100.27 127.71 104.27 124.21 C 97.36 126.40 89.17 127.01 82.87 122.84 C 80.76 118.61 80.59 113.68 78.43 109.46 C 73.22 99.62 65.99 89.74 66.42 78.08 C 71.03 78.74 75.65 78.37 80.11 77.06 C 79.05 80.38 76.91 85.86 81.34 87.58 C 85.36 88.24 89.59 88.02 93.52 86.87 C 93.35 86.42 93.02 85.52 92.86 85.07 C 90.42 84.50 87.95 84.92 85.81 86.20 C 83.61 87.69 79.47 85.87 80.19 82.91 C 81.01 80.31 82.16 77.79 82.54 75.06 C 83.13 72.25 82.61 69.30 83.47 66.54 C 85.02 66.02 86.68 66.24 88.28 66.22 C 90.03 69.55 91.55 73.18 94.36 75.78 C 97.20 77.70 100.82 76.93 104.03 77.20 C 107.35 77.42 111.61 77.47 113.44 74.11 C 114.62 70.94 114.83 67.50 114.88 64.14 C 120.64 61.47 127.21 61.88 133.35 60.77 C 133.27 66.65 132.65 72.50 131.35 78.24 C 133.03 78.51 134.66 78.05 135.62 76.58 C 138.03 73.34 139.51 69.48 140.47 65.58 M 141.01 74.72 C 139.98 75.85 138.91 76.96 138.19 78.32 C 137.09 79.64 138.24 82.43 140.07 81.79 C 142.57 82.22 140.34 79.41 140.40 78.28 C 141.45 77.03 142.47 75.76 143.44 74.45 C 144.65 74.35 145.87 74.23 147.08 74.11 C 147.41 71.59 147.64 67.30 143.96 67.45 C 139.97 67.26 140.89 72.15 141.01 74.72 M 92.99 77.46 C 95.45 79.92 97.26 82.84 96.81 86.47 C 98.34 82.86 96.07 79.32 92.99 77.46 M 81.57 99.73 C 81.42 100.17 81.11 101.06 80.96 101.50 C 88.05 103.20 96.13 104.36 102.55 100.05 C 95.68 98.08 88.58 100.49 81.57 99.73 M 87.88 109.28 C 90.00 109.54 92.18 109.41 94.10 108.41 C 92.00 108.24 89.60 107.73 87.88 109.28 Z" />
<path fill="#ffffff" opacity="1.00" d=" M 91.18 64.07 C 92.20 61.17 95.89 62.27 98.22 61.77 C 98.34 62.79 98.48 63.81 98.62 64.83 C 99.44 62.68 101.48 62.10 103.57 62.11 C 103.82 63.70 104.10 65.28 104.38 66.87 C 102.69 67.05 100.99 67.29 99.36 67.79 C 102.98 68.91 106.75 68.10 110.40 67.58 C 111.26 66.04 112.05 64.45 112.75 62.83 C 112.00 66.47 112.26 70.35 110.80 73.81 C 105.59 76.16 99.34 75.57 94.01 73.81 C 92.36 70.90 89.50 67.55 91.18 64.07 Z" />
<path fill="#ffffff" opacity="1.00" d=" M 72.12 63.78 C 72.87 63.65 73.62 63.52 74.37 63.38 C 73.84 65.15 73.68 67.10 74.82 68.71 C 73.33 68.71 71.82 68.83 70.51 69.63 C 74.02 69.86 80.01 71.28 80.82 66.34 C 80.30 65.65 79.80 64.95 79.32 64.24 C 80.06 64.40 80.77 64.65 81.46 64.97 C 81.50 68.46 81.52 72.14 79.52 75.17 C 75.70 76.76 71.58 76.94 67.50 76.76 C 66.44 72.59 65.51 68.39 64.84 64.14 C 66.50 63.99 68.17 63.83 69.84 63.66 C 69.72 64.40 69.49 65.87 69.38 66.60 C 70.31 65.68 71.22 64.73 72.12 63.78 Z" />
<path fill="#ffffff" opacity="1.00" d=" M 65.19 74.46 C 63.11 71.72 60.69 67.94 63.29 64.75 C 63.96 67.98 64.67 71.20 65.19 74.46 Z" />
<path fill="#000000" opacity="1.00" d=" M 141.01 74.72 C 140.89 72.15 139.97 67.26 143.96 67.45 C 147.64 67.30 147.41 71.59 147.08 74.11 C 145.87 74.23 144.65 74.35 143.44 74.45 C 142.47 75.76 141.45 77.03 140.40 78.28 C 140.34 79.41 142.57 82.22 140.07 81.79 C 138.24 82.43 137.09 79.64 138.19 78.32 C 138.91 76.96 139.98 75.85 141.01 74.72 Z" />
<path fill="#000000" opacity="1.00" d=" M 92.99 77.46 C 96.07 79.32 98.34 82.86 96.81 86.47 C 97.26 82.84 95.45 79.92 92.99 77.46 Z" />
<path fill="#000000" opacity="1.00" d=" M 81.57 99.73 C 88.58 100.49 95.68 98.08 102.55 100.05 C 96.13 104.36 88.05 103.20 80.96 101.50 C 81.11 101.06 81.42 100.17 81.57 99.73 Z" />
<path fill="#000000" opacity="1.00" d=" M 87.88 109.28 C 89.60 107.73 92.00 108.24 94.10 108.41 C 92.18 109.41 90.00 109.54 87.88 109.28 Z" />
<path fill="#ffffff" opacity="1.00" d=" M 141.70 108.42 C 143.76 109.58 146.30 110.65 146.95 113.18 C 148.19 117.41 150.46 121.39 154.20 123.89 C 154.04 125.99 153.90 128.11 153.35 130.15 C 150.47 140.97 145.81 151.20 140.88 161.21 C 131.69 162.61 124.37 155.51 115.94 153.25 C 114.35 154.04 113.02 155.25 111.60 156.31 C 114.04 153.13 116.24 149.79 118.27 146.34 C 123.37 139.16 128.85 132.23 134.42 125.41 C 137.07 122.07 140.87 119.71 142.96 115.92 C 144.67 113.45 142.37 110.82 141.70 108.42 Z" />
<path fill="#ffffff" opacity="1.00" d=" M 155.86 123.58 C 171.93 132.19 190.24 136.13 205.38 146.54 C 213.33 151.81 221.24 157.43 227.14 165.02 C 232.08 173.24 235.33 182.46 236.70 191.94 C 236.96 200.61 237.32 209.28 237.91 217.94 C 238.56 224.60 239.78 231.40 238.08 238.02 C 237.52 241.72 234.32 245.15 235.91 249.01 C 237.57 254.75 244.43 256.19 247.47 260.85 C 247.27 266.67 243.06 271.37 241.93 276.97 C 241.21 280.27 243.53 283.05 244.77 285.90 C 242.50 285.91 240.24 285.91 237.98 286.00 C 234.37 283.31 230.90 280.14 226.52 278.80 C 223.01 278.68 219.51 278.56 216.02 278.22 C 215.83 276.91 215.09 275.90 213.78 275.57 C 204.99 273.46 196.07 271.87 187.07 271.07 C 183.48 270.94 179.90 270.60 176.36 270.00 C 179.07 264.75 181.35 259.32 183.97 254.03 C 181.45 257.74 178.54 261.22 176.64 265.33 C 175.69 257.44 175.81 249.18 172.52 241.80 C 172.98 240.55 173.44 239.31 173.90 238.08 C 173.55 237.98 172.85 237.80 172.50 237.71 C 172.48 231.74 172.42 225.69 174.28 219.94 C 174.16 219.35 173.93 218.17 173.81 217.58 C 171.91 219.87 171.46 222.87 170.72 225.64 L 169.12 225.42 C 169.98 215.23 173.91 205.71 178.46 196.68 C 173.65 200.02 171.92 205.90 170.10 211.16 C 168.72 216.00 167.10 221.02 167.66 226.10 C 168.21 226.35 169.30 226.84 169.85 227.09 C 169.65 227.60 169.25 228.62 169.05 229.13 C 170.14 231.34 171.20 233.67 171.05 236.21 C 165.01 237.62 160.04 241.52 155.01 244.94 C 160.09 242.78 164.81 239.90 169.84 237.64 C 169.75 238.40 169.56 239.91 169.47 240.67 C 170.40 242.08 171.32 243.49 172.26 244.89 C 172.38 245.72 172.63 247.39 172.75 248.22 C 170.02 253.40 166.23 257.97 163.74 263.27 C 167.61 259.62 170.67 255.14 173.56 250.69 C 173.64 252.74 173.97 254.79 173.88 256.85 C 172.17 259.79 169.69 262.19 167.65 264.90 C 169.25 264.04 170.84 263.15 172.40 262.22 C 172.71 262.46 173.32 262.93 173.63 263.17 C 173.90 262.87 174.46 262.27 174.73 261.97 C 174.70 264.84 174.38 267.70 174.41 270.57 C 166.42 266.02 158.05 261.92 150.97 255.96 C 144.11 251.18 138.47 244.38 130.26 241.79 C 123.86 239.88 119.61 234.47 114.47 230.58 C 110.11 227.16 105.85 223.57 101.07 220.76 C 100.61 213.14 100.84 205.48 101.12 197.87 C 102.54 192.33 102.02 186.53 103.57 181.03 C 105.29 177.87 107.51 174.99 109.13 171.76 C 110.52 169.55 109.76 166.63 111.04 164.43 C 116.02 163.32 121.07 162.16 125.41 159.31 C 130.25 160.94 135.73 164.19 140.81 161.75 C 145.69 156.31 147.75 149.07 150.73 142.53 L 151.27 142.41 C 153.40 136.31 155.90 130.16 155.86 123.58 M 194.43 193.31 C 190.14 201.99 185.05 210.26 181.05 219.08 C 179.17 224.04 176.63 229.01 176.72 234.43 C 178.45 231.09 179.11 227.34 180.51 223.88 C 184.15 214.00 190.68 205.57 195.02 196.02 C 198.59 188.01 203.13 180.46 206.20 172.23 C 206.84 170.75 206.79 169.14 206.59 167.58 C 202.09 175.91 198.44 184.72 194.43 193.31 M 220.23 187.53 C 227.62 198.89 232.30 211.68 236.92 224.34 C 236.30 217.84 233.60 211.78 231.14 205.81 C 228.20 199.36 225.26 192.66 220.23 187.53 M 189.80 221.37 C 196.12 215.28 199.94 207.16 204.59 199.83 C 199.42 206.83 194.02 213.75 189.80 221.37 M 186.37 227.61 C 185.35 230.09 184.57 232.66 184.14 235.30 C 185.25 233.38 186.13 231.34 187.16 229.38 C 188.87 228.73 190.76 228.75 192.53 228.33 C 190.51 227.85 188.43 227.73 186.37 227.61 M 200.59 241.10 C 198.38 245.54 194.86 249.17 192.79 253.71 C 190.78 258.17 187.47 261.80 184.66 265.74 C 187.93 265.53 191.17 264.94 194.25 263.80 C 192.01 263.77 189.77 263.85 187.54 263.94 C 193.59 257.23 196.06 247.93 202.65 241.70 C 208.51 239.44 214.40 237.21 220.04 234.44 C 213.54 236.61 206.97 238.58 200.59 241.10 M 212.10 266.08 C 212.85 266.52 213.61 266.95 214.37 267.38 C 218.69 265.76 223.16 264.59 227.52 263.10 C 222.30 263.67 217.33 265.53 212.10 266.08 M 207.44 267.48 C 207.67 267.76 208.15 268.33 208.39 268.61 C 212.79 270.31 217.63 270.56 222.31 270.71 C 218.75 269.87 215.16 269.12 211.54 268.52 L 213.14 267.75 C 211.33 266.82 209.35 266.81 207.44 267.48 Z" />
<path fill="#ffffff" opacity="1.00" d=" M 73.11 134.11 C 76.76 131.46 80.87 129.55 84.93 127.64 C 81.55 133.57 79.93 140.33 79.56 147.12 C 79.17 152.52 75.09 156.88 74.79 162.27 C 80.26 162.93 83.64 157.15 88.28 155.21 C 90.16 157.79 91.48 160.73 93.33 163.34 C 91.13 173.11 90.56 183.16 88.30 192.92 C 85.57 202.29 81.59 211.28 79.27 220.78 C 77.30 221.17 75.32 221.76 73.28 221.67 C 68.58 216.22 65.65 209.53 61.17 203.92 C 60.22 202.52 58.43 202.22 56.93 201.75 C 52.17 200.54 47.18 200.23 42.29 200.70 C 39.81 194.52 37.81 188.15 35.22 182.01 C 36.95 188.27 38.51 194.61 40.88 200.67 C 39.97 200.79 38.17 201.04 37.26 201.17 C 37.34 201.51 37.49 202.19 37.57 202.52 C 45.00 201.55 52.59 202.54 59.84 204.22 C 62.35 207.73 64.98 211.21 66.72 215.18 C 63.75 212.21 61.81 208.43 59.42 205.01 C 51.66 203.04 43.44 201.75 35.56 203.73 C 36.29 202.09 34.60 201.68 33.31 201.54 C 32.98 205.86 37.16 208.65 38.37 212.54 C 37.75 214.23 36.06 216.13 37.81 217.85 C 34.90 216.34 31.28 216.77 28.77 218.82 C 26.15 221.38 25.02 225.68 26.93 228.97 C 26.15 231.29 24.80 233.49 24.86 236.02 C 24.66 241.47 22.96 246.71 21.63 251.97 C 20.49 257.00 17.05 260.98 14.12 265.07 C 10.03 270.27 6.73 276.04 3.72 281.92 C 3.51 277.57 5.05 273.17 3.41 268.93 C 4.15 267.57 4.82 266.17 5.23 264.67 C 4.55 264.36 3.19 263.75 2.51 263.44 C 3.51 261.97 4.51 260.50 5.44 258.99 C 4.94 258.92 3.95 258.79 3.46 258.73 C 5.28 256.65 3.96 254.09 3.26 251.86 C 4.15 249.38 4.49 246.77 4.94 244.19 C 6.67 240.80 9.20 237.79 10.37 234.12 C 13.02 226.51 10.82 217.44 16.38 210.87 C 15.86 208.86 14.98 206.98 14.41 204.99 C 14.58 200.59 17.01 196.76 19.15 193.06 C 21.02 189.99 18.77 186.30 19.99 183.04 C 20.89 179.35 23.99 176.81 25.25 173.28 C 27.17 168.68 27.65 163.16 31.56 159.65 C 43.89 148.81 59.78 143.46 73.11 134.11 Z" />
<path fill="#ffffff" opacity="1.00" d=" M 81.09 146.03 C 80.94 139.18 83.85 132.80 87.21 127.01 C 86.51 130.26 86.21 133.65 86.66 136.96 C 87.59 140.10 89.43 142.88 91.39 145.46 C 94.20 149.11 99.02 151.26 100.29 156.00 C 95.81 155.83 92.98 150.15 88.43 151.47 C 84.31 154.96 81.13 159.83 75.74 161.59 C 78.12 156.66 81.12 151.68 81.09 146.03 Z" />
<path fill="#ffffff" opacity="1.00" d=" M 97.37 148.74 C 103.01 150.76 109.13 150.55 114.96 149.63 C 113.69 151.37 112.38 153.08 111.05 154.78 C 108.18 153.64 105.11 153.35 102.10 154.04 C 100.59 152.21 99.01 150.44 97.37 148.74 Z" />
<path fill="#ffffff" opacity="1.00" d=" M 102.40 158.61 C 105.05 157.84 107.79 158.45 110.35 159.23 C 110.19 159.91 109.86 161.28 109.70 161.96 C 105.01 161.61 100.26 161.61 95.68 162.80 C 96.67 159.89 99.83 159.39 102.40 158.61 Z" />
<path fill="#000000" opacity="1.00" d=" M 194.43 193.31 C 198.44 184.72 202.09 175.91 206.59 167.58 C 206.79 169.14 206.84 170.75 206.20 172.23 C 203.13 180.46 198.59 188.01 195.02 196.02 C 190.68 205.57 184.15 214.00 180.51 223.88 C 179.11 227.34 178.45 231.09 176.72 234.43 C 176.63 229.01 179.17 224.04 181.05 219.08 C 185.05 210.26 190.14 201.99 194.43 193.31 Z" />
<path fill="#ffffff" opacity="1.00" d=" M 93.61 171.72 C 98.32 171.91 103.01 171.43 107.71 171.43 C 106.81 172.93 105.87 174.39 104.87 175.81 C 101.85 175.71 98.74 175.97 95.79 175.12 C 94.10 174.83 93.54 173.26 93.61 171.72 Z" />
<path fill="#ffffff" opacity="1.00" d=" M 92.99 175.45 C 95.35 178.77 97.21 182.42 99.20 185.96 C 100.90 188.80 99.60 192.22 99.76 195.32 C 97.26 190.50 94.82 185.65 92.49 180.76 C 92.16 178.98 92.81 177.20 92.99 175.45 Z" />
<path fill="#000000" opacity="1.00" d=" M 220.23 187.53 C 225.26 192.66 228.20 199.36 231.14 205.81 C 233.60 211.78 236.30 217.84 236.92 224.34 C 232.30 211.68 227.62 198.89 220.23 187.53 Z" />
<path fill="#ffffff" opacity="1.00" d=" M 89.93 193.93 C 93.33 200.01 97.58 205.85 98.80 212.85 C 99.00 215.33 98.88 217.82 98.86 220.31 C 98.35 220.07 97.32 219.58 96.81 219.33 C 94.73 212.50 91.61 206.03 88.28 199.73 C 88.83 197.79 89.39 195.86 89.93 193.93 Z" />
<path fill="#000000" opacity="1.00" d=" M 189.80 221.37 C 194.02 213.75 199.42 206.83 204.59 199.83 C 199.94 207.16 196.12 215.28 189.80 221.37 Z" />
<path fill="#ffffff" opacity="1.00" d=" M 82.94 215.65 C 83.29 214.14 83.66 212.65 84.04 211.16 C 85.15 213.72 86.35 216.24 87.65 218.70 C 86.59 218.79 85.52 218.88 84.46 218.98 C 83.96 217.86 83.46 216.75 82.94 215.65 Z" />
<path fill="#ffffff" opacity="1.00" d=" M 38.28 215.52 C 38.74 215.21 39.65 214.60 40.10 214.29 C 46.09 214.09 52.05 215.11 58.04 215.27 C 60.93 215.56 63.99 215.14 66.72 216.31 C 68.33 217.47 69.46 219.16 70.74 220.66 C 69.56 219.78 68.47 218.79 67.24 217.98 C 57.61 216.95 47.80 217.61 38.28 215.52 Z" />
<path fill="#ffffff" opacity="1.00" d=" M 28.02 226.11 C 27.73 222.83 30.25 218.29 34.02 218.90 C 39.05 219.39 43.37 222.29 48.09 223.85 C 47.93 225.25 47.79 226.67 47.67 228.08 C 43.76 228.93 39.78 229.27 35.82 229.76 C 40.65 231.22 45.64 230.62 50.57 230.07 C 48.59 230.63 46.19 231.42 46.37 233.95 C 46.97 238.84 52.30 240.75 56.40 241.83 C 50.16 242.45 43.86 241.24 37.66 242.43 C 43.38 243.15 49.15 243.53 54.92 243.21 C 50.83 246.49 55.75 249.62 58.75 250.79 C 53.96 250.75 49.11 250.97 44.44 252.10 C 45.36 252.32 47.19 252.75 48.10 252.97 C 50.06 253.33 52.05 253.47 54.03 253.60 C 49.13 256.44 42.67 258.86 37.38 255.61 C 35.51 254.75 34.65 252.90 34.43 250.96 C 31.94 250.05 29.08 249.63 27.13 247.71 C 25.59 246.20 27.37 244.21 28.34 242.97 C 30.21 242.57 32.14 242.61 34.03 242.40 C 31.60 241.49 28.26 241.53 26.97 238.91 C 25.08 234.72 28.58 229.46 33.15 229.40 C 31.29 228.74 27.93 228.80 28.02 226.11 Z" />
<path fill="#ffffff" opacity="1.00" d=" M 83.03 221.36 C 88.13 219.19 94.19 219.57 99.19 221.79 C 105.95 225.84 112.21 230.69 118.19 235.80 C 121.54 238.84 124.96 242.07 129.39 243.44 C 132.97 244.53 136.28 246.38 139.16 248.76 C 143.47 252.49 148.19 255.72 152.30 259.68 C 159.71 264.91 167.80 269.12 175.98 273.02 C 180.95 275.50 186.54 276.24 191.60 278.48 C 195.66 280.25 199.49 282.47 203.44 284.45 C 206.74 292.59 212.71 299.15 218.16 305.89 C 220.53 308.61 223.67 310.48 226.44 312.75 C 207.61 312.76 188.77 312.75 169.94 312.76 C 167.30 312.98 165.43 310.77 163.52 309.31 C 154.44 301.48 146.24 292.66 137.08 284.92 C 127.50 278.14 119.69 268.86 108.89 263.89 C 103.88 263.55 98.97 265.42 93.95 265.53 C 88.81 266.70 83.75 264.38 79.43 261.78 C 75.57 259.24 71.39 256.81 68.91 252.75 C 72.54 252.85 76.13 253.31 79.70 253.94 L 78.96 255.11 C 79.52 255.80 83.44 255.10 81.19 253.95 C 77.55 252.67 73.55 252.24 69.79 251.23 C 64.48 249.86 58.52 249.73 54.10 246.10 C 55.61 244.36 57.37 242.88 59.19 241.48 C 55.57 239.26 49.33 238.94 48.41 234.04 C 51.01 230.58 55.92 232.33 59.61 231.56 C 56.17 230.46 51.87 230.58 49.23 227.81 C 48.16 224.80 51.57 223.41 53.99 223.36 C 60.04 223.01 66.11 224.52 72.16 223.70 C 75.83 223.13 79.51 222.55 83.03 221.36 M 61.66 231.37 C 70.77 233.77 80.33 234.26 89.60 232.81 C 89.47 232.36 89.19 231.45 89.06 230.99 C 84.81 232.35 80.31 232.25 75.91 232.62 C 71.15 232.42 66.46 231.04 61.66 231.37 M 65.80 242.36 C 72.49 244.04 79.41 244.28 86.09 245.96 C 85.15 245.24 84.28 244.21 82.98 244.24 C 77.30 243.26 71.60 242.09 65.80 242.36 Z" />
<path fill="#ffffff" opacity="1.00" d=" M 70.19 221.20 C 70.82 221.78 70.82 221.78 70.19 221.20 Z" />
<path fill="#000000" opacity="1.00" d=" M 186.37 227.61 C 188.43 227.73 190.51 227.85 192.53 228.33 C 190.76 228.75 188.87 228.73 187.16 229.38 C 186.13 231.34 185.25 233.38 184.14 235.30 C 184.57 232.66 185.35 230.09 186.37 227.61 Z" />
<path fill="#000000" opacity="1.00" d=" M 61.66 231.37 C 66.46 231.04 71.15 232.42 75.91 232.62 C 80.31 232.25 84.81 232.35 89.06 230.99 C 89.19 231.45 89.47 232.36 89.60 232.81 C 80.33 234.26 70.77 233.77 61.66 231.37 Z" />
<path fill="#000000" opacity="1.00" d=" M 200.59 241.10 C 206.97 238.58 213.54 236.61 220.04 234.44 C 214.40 237.21 208.51 239.44 202.65 241.70 C 196.06 247.93 193.59 257.23 187.54 263.94 C 189.77 263.85 192.01 263.77 194.25 263.80 C 191.17 264.94 187.93 265.53 184.66 265.74 C 187.47 261.80 190.78 258.17 192.79 253.71 C 194.86 249.17 198.38 245.54 200.59 241.10 Z" />
<path fill="#000000" opacity="1.00" d=" M 65.80 242.36 C 71.60 242.09 77.30 243.26 82.98 244.24 C 84.28 244.21 85.15 245.24 86.09 245.96 C 79.41 244.28 72.49 244.04 65.80 242.36 Z" />
<path fill="#ffffff" opacity="1.00" d=" M 19.32 261.39 C 22.66 257.70 23.52 252.69 24.94 248.10 C 26.81 250.50 29.60 251.77 32.46 252.56 C 35.04 258.28 42.14 259.27 47.60 257.85 C 46.41 259.00 45.23 260.16 44.04 261.33 C 43.47 264.54 43.97 267.82 45.02 270.89 C 46.88 276.04 47.11 281.60 47.10 287.02 C 47.16 289.54 46.05 291.84 45.11 294.11 C 42.43 300.34 39.84 306.61 36.88 312.72 C 28.83 312.54 20.63 313.23 12.66 312.41 C 10.24 308.03 12.58 303.11 12.14 298.48 C 11.68 299.24 10.76 300.76 10.29 301.53 C 10.33 300.97 10.41 299.85 10.45 299.29 C 7.61 294.51 3.30 289.16 5.32 283.27 C 8.37 275.08 13.48 267.82 19.32 261.39 Z" />
<path fill="#ffffff" opacity="1.00" d=" M 46.00 262.97 C 48.14 256.78 55.18 254.95 59.91 251.21 C 62.07 251.86 64.25 252.46 66.47 252.88 C 68.97 255.12 71.15 257.69 73.77 259.80 C 73.89 267.21 72.25 274.48 71.49 281.83 C 69.56 292.13 68.07 302.52 65.80 312.76 C 56.94 312.76 48.08 312.72 39.22 312.78 C 43.23 304.40 46.74 295.78 50.09 287.12 C 51.66 282.85 53.31 278.54 53.79 273.99 C 51.63 277.18 51.08 281.11 49.72 284.65 C 50.08 277.15 46.37 270.34 46.00 262.97 Z" />
<path fill="#ffffff" opacity="1.00" d=" M 74.68 260.32 C 76.35 261.32 77.99 262.36 79.63 263.40 C 83.07 270.94 87.38 278.05 91.64 285.13 C 91.65 287.89 91.17 290.63 90.86 293.37 C 89.09 290.06 87.54 286.63 85.48 283.48 C 81.44 277.80 79.20 271.12 75.85 265.05 C 74.98 263.62 74.98 261.90 74.68 260.32 Z" />
<path fill="#ffffff" opacity="1.00" d=" M 249.58 262.04 L 250.00 261.79 L 250.00 314.00 L 226.99 314.00 C 229.44 310.40 234.54 307.72 233.82 302.77 C 236.26 300.93 238.48 298.82 240.47 296.51 C 241.80 295.68 243.11 294.82 244.41 293.94 C 243.08 291.83 241.47 289.91 239.84 288.03 C 241.84 287.27 245.24 288.26 246.38 286.05 C 245.90 282.90 243.61 280.24 243.59 276.98 C 245.08 271.80 248.29 267.31 249.58 262.04 Z" />
<path fill="#000000" opacity="1.00" d=" M 212.10 266.08 C 217.33 265.53 222.30 263.67 227.52 263.10 C 223.16 264.59 218.69 265.76 214.37 267.38 C 213.61 266.95 212.85 266.52 212.10 266.08 Z" />
<path fill="#ffffff" opacity="1.00" d=" M 95.23 266.99 C 99.53 267.17 103.76 266.40 107.99 265.80 C 112.07 267.23 115.39 270.12 118.76 272.73 C 112.94 281.66 107.54 290.86 102.16 300.06 C 108.48 291.53 114.00 282.43 120.02 273.68 C 126.28 278.62 132.49 283.62 138.69 288.64 C 132.21 296.46 125.54 304.16 120.02 312.71 C 110.64 312.80 101.25 312.73 91.87 312.75 C 93.03 301.49 92.90 290.11 94.48 278.88 C 94.68 274.91 94.79 270.94 95.23 266.99 Z" />
<path fill="#000000" opacity="1.00" d=" M 207.44 267.48 C 209.35 266.81 211.33 266.82 213.14 267.75 L 211.54 268.52 C 215.16 269.12 218.75 269.87 222.31 270.71 C 217.63 270.56 212.79 270.31 208.39 268.61 C 208.15 268.33 207.67 267.76 207.44 267.48 Z" />
<path fill="#ffffff" opacity="1.00" d=" M 179.75 272.26 C 190.99 273.71 202.30 274.48 213.54 275.99 C 213.48 276.61 213.37 277.86 213.32 278.49 C 217.79 279.47 222.31 280.09 226.90 279.99 C 230.43 281.58 233.38 284.16 236.48 286.42 C 237.66 289.43 240.34 291.35 242.43 293.68 C 241.31 294.11 240.18 294.53 239.05 294.94 C 237.32 297.35 235.28 299.56 232.88 301.32 C 229.72 298.64 226.61 295.84 222.89 293.94 C 225.95 297.74 231.39 299.89 232.33 305.12 C 230.86 306.81 229.43 308.53 227.92 310.19 C 223.60 308.49 219.85 305.61 216.83 302.11 C 211.62 296.13 206.58 289.72 203.98 282.13 C 210.47 284.48 216.61 287.77 223.25 289.76 C 209.62 281.95 194.65 277.00 179.75 272.26 Z" />
<path fill="#ffffff" opacity="1.00" d=" M 73.07 279.67 C 76.69 287.53 81.54 294.73 85.82 302.23 C 86.95 304.26 88.35 306.13 89.90 307.85 C 89.78 309.69 89.65 311.52 89.46 313.36 C 87.88 312.03 86.29 310.67 85.11 308.96 C 80.33 301.34 75.85 293.51 72.32 285.22 C 72.49 283.36 72.74 281.51 73.07 279.67 Z" />
<path fill="#ffffff" opacity="1.00" d=" M 133.49 298.39 C 136.11 295.91 138.51 293.21 141.09 290.70 C 148.98 298.26 156.72 306.05 165.33 312.81 C 150.35 312.66 135.37 312.79 120.39 312.75 C 124.77 307.97 128.56 302.64 133.49 298.39 Z" />
<path fill="#ffffff" opacity="1.00" d=" M 70.37 300.52 C 71.86 304.81 73.73 308.97 76.21 312.79 C 74.45 312.76 72.70 312.75 70.94 312.74 C 70.34 311.73 69.75 310.72 69.15 309.72 C 69.73 306.68 70.12 303.60 70.37 300.52 Z" />
</svg>
