<?xml version="1.0" encoding="UTF-8" ?>
<!DOCTYPE svg PUBLIC "-//W3C//DTD SVG 1.1//EN" "http://www.w3.org/Graphics/SVG/1.1/DTD/svg11.dtd">
<svg width="769pt" height="800pt" viewBox="0 0 769 800" version="1.1" xmlns="http://www.w3.org/2000/svg">
<path fill="#ffffff" opacity="1.00" d=" M 0.00 0.00 L 184.42 0.00 C 182.95 0.41 181.48 0.84 180.03 1.29 C 177.91 1.44 175.77 1.37 173.68 1.79 C 172.43 2.64 171.96 4.17 171.18 5.40 C 169.84 5.50 168.49 5.61 167.15 5.73 C 164.79 12.05 156.15 7.76 152.93 13.22 C 146.70 15.58 139.95 17.18 134.65 21.39 C 132.11 22.77 129.30 23.52 126.65 24.66 C 126.02 26.60 126.05 29.25 123.74 30.02 C 120.12 32.12 115.04 34.64 115.11 39.43 C 111.60 41.71 108.69 44.72 105.85 47.77 C 104.83 49.12 103.16 49.55 101.63 50.06 C 101.49 51.03 101.35 52.00 101.21 52.97 C 99.24 54.37 97.38 55.90 95.66 57.60 C 93.72 59.67 90.70 59.74 88.16 60.63 C 89.03 62.25 89.90 63.87 90.79 65.48 C 88.80 65.50 86.81 65.53 84.82 65.58 C 84.67 66.20 84.36 67.44 84.21 68.07 C 83.30 68.16 81.49 68.34 80.58 68.44 C 80.43 70.61 82.09 72.24 83.06 74.02 C 83.34 74.69 83.88 76.01 84.16 76.68 C 78.13 74.96 71.78 75.72 65.77 77.08 C 65.37 77.18 64.58 77.37 64.19 77.47 C 64.28 80.15 64.11 83.00 65.50 85.41 C 70.31 93.90 74.05 102.96 77.78 111.96 C 79.24 118.08 81.49 123.96 83.24 130.00 C 84.31 133.78 80.95 136.52 79.41 139.60 C 75.48 145.70 74.38 153.03 71.26 159.50 C 69.06 164.24 67.41 169.21 65.17 173.93 C 61.77 181.96 64.94 190.69 64.44 199.03 C 64.15 204.27 64.54 209.51 64.48 214.75 C 65.23 220.82 62.32 226.28 60.73 231.95 C 58.36 238.49 57.15 245.37 54.95 251.97 C 52.02 259.34 54.36 267.37 53.05 275.00 C 52.30 277.84 53.66 280.74 52.91 283.56 C 51.87 288.18 50.31 292.66 49.09 297.24 C 48.00 301.03 48.81 305.03 48.02 308.86 C 47.07 313.62 46.10 318.50 46.68 323.37 C 48.36 325.44 50.55 327.04 52.35 329.01 C 56.04 332.34 54.69 337.85 57.49 341.58 C 60.04 342.95 63.03 343.68 64.97 345.99 C 69.20 350.80 75.68 353.51 78.51 359.51 C 79.81 362.20 81.22 364.99 81.47 368.02 C 80.61 371.50 78.65 374.61 77.62 378.06 C 75.36 385.27 73.09 392.62 69.08 399.09 C 62.82 408.54 54.17 416.78 51.18 428.05 C 49.36 433.23 49.26 438.72 49.54 444.13 C 51.01 447.34 52.55 450.55 54.84 453.27 C 56.99 456.05 59.63 458.39 62.45 460.46 C 66.52 463.44 70.30 466.91 74.89 469.10 C 79.15 471.18 83.68 472.69 88.28 473.81 C 88.76 479.93 89.38 486.08 91.07 492.00 C 92.70 498.38 90.02 504.69 89.48 511.02 C 89.31 516.03 89.55 521.05 89.22 526.07 C 88.73 531.90 91.52 537.27 93.82 542.44 C 96.15 545.40 98.99 547.93 101.35 550.88 C 106.25 556.28 111.11 561.96 113.79 568.85 C 107.27 571.41 104.91 578.47 102.77 584.50 C 100.87 590.05 100.62 596.73 104.79 601.33 C 105.37 601.45 106.52 601.69 107.10 601.81 C 109.00 609.67 113.00 616.88 114.24 624.94 C 114.46 627.00 114.66 629.09 115.10 631.14 C 116.02 635.39 117.09 639.62 117.69 643.94 C 119.66 654.55 118.07 665.40 118.88 676.10 C 120.75 687.25 129.85 695.20 138.44 701.65 C 145.65 705.92 152.36 712.22 161.12 712.81 L 161.89 713.25 C 165.66 713.47 169.38 714.22 173.02 715.23 C 180.12 715.87 187.12 714.36 194.06 713.10 C 206.02 711.24 218.14 711.58 230.21 711.47 C 236.27 710.90 242.35 710.53 248.40 709.83 C 254.22 709.23 260.09 709.64 265.94 709.50 C 270.66 708.87 274.82 712.72 276.18 716.99 C 279.25 725.56 280.39 734.64 282.34 743.49 C 283.86 750.98 286.25 758.35 286.57 766.04 C 286.66 770.36 287.64 774.63 287.43 778.97 C 287.04 786.16 285.53 793.27 282.97 800.00 L 0.00 800.00 L 0.00 0.00 Z" />
<path fill="#000000" opacity="1.00" d=" M 184.42 0.00 L 188.31 0.00 L 188.20 0.24 C 188.32 0.18 188.55 0.06 188.66 0.00 L 518.18 0.00 C 520.73 2.18 523.99 2.78 527.26 2.60 C 527.86 4.63 528.47 6.67 529.09 8.70 C 529.55 7.53 530.02 6.36 530.50 5.20 C 530.97 5.19 531.92 5.19 532.40 5.19 C 532.93 6.88 533.45 8.58 534.16 10.21 C 534.39 8.69 534.60 7.17 534.80 5.65 C 535.38 5.54 536.53 5.33 537.11 5.22 C 537.35 5.63 537.84 6.46 538.08 6.87 C 538.53 8.98 539.18 11.04 539.95 13.05 C 540.42 12.39 541.38 11.05 541.85 10.38 C 542.25 10.36 543.05 10.31 543.45 10.29 C 543.93 11.64 544.42 12.98 544.90 14.34 C 546.49 14.53 548.09 14.68 549.69 14.84 C 552.00 17.78 555.55 19.28 558.16 21.91 C 561.10 24.88 564.18 27.71 567.03 30.76 C 568.72 29.60 570.41 28.43 572.10 27.26 C 572.84 28.92 573.59 30.58 574.44 32.19 C 574.46 32.96 574.49 34.50 574.51 35.27 C 574.97 35.64 575.90 36.39 576.36 36.76 C 576.31 38.04 576.27 39.31 576.24 40.59 C 577.02 40.55 578.58 40.46 579.36 40.41 C 579.82 42.22 578.67 44.99 580.33 46.15 C 580.69 46.22 581.42 46.37 581.79 46.44 C 580.95 46.67 580.11 46.89 579.29 47.11 C 580.45 48.81 581.65 50.47 582.89 52.12 C 583.49 50.29 583.98 48.42 584.39 46.54 C 584.33 48.72 584.44 50.90 584.59 53.08 C 585.83 51.60 587.18 50.07 589.29 50.20 C 589.27 51.99 589.27 53.78 589.24 55.56 C 589.94 55.60 591.33 55.68 592.03 55.72 C 592.33 57.77 592.29 60.02 593.73 61.68 C 595.92 64.58 594.98 69.18 598.38 71.22 C 598.53 73.98 598.59 76.75 598.70 79.51 C 599.30 79.47 600.52 79.39 601.12 79.35 C 601.89 84.38 605.43 88.20 607.39 92.74 C 610.46 98.86 608.54 106.62 612.85 112.23 C 613.77 113.99 613.86 116.06 614.45 117.95 C 617.71 120.62 616.05 125.33 616.84 128.96 C 619.19 132.24 620.61 136.10 621.00 140.11 C 623.93 143.06 623.17 147.19 623.46 150.95 C 625.57 153.06 625.61 155.93 625.50 158.73 C 627.49 161.22 627.42 164.40 627.44 167.41 C 627.93 167.71 628.89 168.30 629.38 168.59 C 629.31 171.59 629.42 174.59 629.66 177.59 C 631.06 175.61 631.98 173.01 634.45 172.07 C 634.93 177.65 633.52 183.40 635.29 188.85 C 636.47 192.30 635.32 195.90 633.49 198.89 C 638.87 206.61 633.91 216.19 636.55 224.50 C 636.82 228.97 636.94 233.84 633.95 237.52 C 634.74 238.48 635.51 239.45 636.30 240.43 C 637.19 248.24 636.43 256.09 635.55 263.86 C 634.80 266.68 633.52 269.35 632.81 272.19 C 632.29 273.81 634.00 275.18 633.61 276.83 C 632.94 279.22 631.07 281.32 631.35 283.93 C 631.50 287.94 630.75 291.93 631.15 295.93 C 631.44 299.70 629.45 303.55 631.07 307.21 C 629.39 313.02 629.90 319.09 629.50 325.05 C 629.40 328.21 630.77 331.36 629.85 334.49 C 628.01 341.92 626.01 349.32 624.87 356.90 C 623.93 362.01 621.62 366.76 621.18 371.98 C 620.78 376.87 616.96 381.43 618.65 386.40 L 619.11 387.13 L 618.62 387.63 C 617.95 388.26 617.27 388.87 616.59 389.49 C 616.48 390.84 616.42 392.21 616.43 393.58 C 616.87 392.72 617.32 391.86 617.75 390.99 C 618.23 391.34 619.20 392.05 619.68 392.41 C 619.77 393.01 619.94 394.21 620.02 394.81 C 618.85 396.61 617.65 398.39 616.46 400.17 C 616.80 400.60 617.48 401.45 617.82 401.87 C 617.11 404.19 616.31 406.48 615.45 408.75 C 616.22 408.77 617.76 408.79 618.53 408.80 C 619.38 412.41 616.07 415.41 616.61 419.02 C 616.77 422.58 615.13 425.86 614.20 429.22 C 614.87 429.31 616.21 429.51 616.89 429.61 C 616.80 433.84 613.17 437.69 615.04 441.94 C 614.00 447.58 613.99 453.48 615.20 459.09 C 614.70 463.84 617.26 468.48 615.53 473.13 C 616.47 473.85 617.41 474.59 618.34 475.36 C 617.93 478.36 619.09 481.14 620.04 483.91 C 620.57 487.00 620.23 490.16 620.42 493.28 C 620.87 493.65 621.78 494.39 622.23 494.76 C 622.38 498.84 624.37 503.07 622.69 507.06 C 621.56 509.96 620.96 513.02 620.45 516.09 C 622.25 518.29 623.91 520.61 625.60 522.91 C 625.58 526.49 627.89 529.42 629.71 532.32 C 637.90 544.17 641.79 558.63 651.32 569.61 C 655.74 574.91 660.15 580.25 665.66 584.48 C 679.07 597.64 691.48 612.25 707.59 622.26 C 715.69 628.02 724.25 633.05 732.57 638.49 C 738.77 641.69 743.83 646.62 749.90 650.02 C 753.42 652.07 756.71 654.45 760.09 656.72 C 762.16 658.17 764.65 659.24 765.93 661.58 C 760.09 661.08 756.24 655.94 751.26 653.39 C 743.94 649.37 737.76 643.65 730.41 639.70 C 715.18 629.73 699.14 620.66 685.96 607.94 C 680.64 602.62 675.30 597.32 670.01 591.98 C 664.67 585.65 657.45 581.23 652.60 574.45 C 642.94 564.57 638.07 551.48 631.65 539.52 C 628.80 534.10 624.17 529.45 623.11 523.22 C 621.77 521.35 620.39 519.51 618.87 517.79 C 618.39 516.38 617.88 514.98 617.37 513.58 C 613.97 512.98 609.96 513.14 607.42 510.41 C 603.96 506.73 602.76 501.69 601.15 497.06 C 596.97 495.37 595.85 490.58 593.29 487.29 C 592.70 487.65 591.53 488.38 590.94 488.74 C 588.71 486.73 588.37 483.39 587.18 480.72 C 586.60 480.67 585.44 480.57 584.86 480.52 C 583.77 477.88 582.32 475.43 581.12 472.86 C 579.96 469.69 579.29 466.37 578.15 463.20 C 577.77 462.78 577.03 461.95 576.65 461.53 C 577.33 458.58 576.54 455.76 574.72 453.41 C 575.24 450.08 574.85 446.15 571.25 444.79 C 570.87 444.53 570.12 444.02 569.74 443.77 C 569.50 441.98 569.42 440.18 569.29 438.40 C 568.16 437.56 566.85 436.67 566.81 435.11 C 566.09 430.61 566.20 425.93 564.53 421.63 C 563.85 417.73 562.85 413.76 563.38 409.79 C 561.86 408.02 561.53 405.95 562.39 403.77 C 561.91 403.57 560.96 403.16 560.49 402.96 C 560.01 398.99 561.03 394.97 560.42 391.00 C 558.43 382.83 560.20 374.26 557.90 366.12 C 557.76 364.12 557.79 362.06 556.96 360.20 C 556.41 359.07 555.88 357.94 555.35 356.81 C 555.72 354.51 556.44 352.16 555.75 349.85 C 555.45 348.42 555.12 347.01 554.77 345.61 C 553.94 346.39 553.11 347.19 552.31 348.00 C 552.60 339.20 553.33 330.37 555.62 321.83 C 556.54 316.57 559.14 311.45 558.25 306.00 C 557.11 298.40 558.76 290.49 556.32 283.06 C 553.85 275.25 552.55 266.90 548.22 259.82 C 544.59 254.38 539.02 250.70 533.53 247.37 C 527.65 243.80 520.27 243.37 513.75 245.27 C 506.28 247.12 498.91 249.90 492.79 254.67 C 488.59 258.19 482.79 258.51 478.36 261.61 C 472.62 265.39 467.35 269.85 461.53 273.50 C 460.24 274.43 458.64 274.61 457.12 274.84 C 458.55 270.01 464.39 268.78 468.22 266.29 C 465.54 267.36 462.64 267.15 459.86 267.63 C 453.01 270.38 448.27 276.28 442.37 280.46 C 437.10 283.90 434.97 290.24 430.04 294.09 C 429.02 294.90 427.79 295.30 426.54 295.59 C 426.32 296.77 426.13 297.97 425.76 299.13 C 425.07 298.79 423.70 298.10 423.01 297.76 C 421.11 298.50 419.20 299.21 417.36 300.08 C 416.67 302.61 416.26 305.46 413.88 307.02 C 412.89 308.64 411.93 310.27 410.95 311.89 C 410.42 313.05 409.89 314.21 409.29 315.34 L 407.72 315.33 C 408.69 311.94 409.72 308.56 410.49 305.12 C 410.88 306.31 411.28 307.49 411.71 308.68 C 412.53 306.31 413.18 303.90 413.64 301.44 C 412.96 302.05 412.28 302.66 411.61 303.28 C 409.50 301.36 409.08 304.20 408.31 305.71 C 407.39 305.96 406.48 306.24 405.58 306.53 L 405.34 306.95 C 405.31 307.72 405.26 309.28 405.23 310.05 C 405.86 311.82 406.52 313.58 407.23 315.32 C 406.03 315.60 404.84 315.91 403.66 316.27 C 403.35 314.76 403.04 313.26 402.71 311.76 C 402.28 313.84 403.87 317.65 400.54 317.85 C 400.47 312.45 400.82 307.04 400.45 301.64 C 399.67 304.92 399.47 308.29 399.37 311.65 L 397.46 311.64 C 396.94 307.57 398.89 303.57 397.94 299.57 C 397.39 303.02 397.57 307.45 393.66 309.00 C 393.36 305.23 394.30 301.49 393.97 297.73 C 393.74 299.45 393.60 301.18 393.47 302.91 C 392.41 303.83 391.36 304.75 390.34 305.70 C 390.36 301.42 392.45 296.27 388.95 292.82 C 388.56 297.38 389.59 302.04 388.43 306.55 C 386.85 301.44 389.56 295.44 386.22 290.92 C 386.01 295.06 386.30 299.21 386.67 303.34 C 386.19 303.05 385.24 302.46 384.76 302.16 C 384.52 297.33 384.58 292.45 383.50 287.71 C 383.59 290.47 383.82 293.22 383.90 295.98 C 381.33 294.35 381.46 291.35 381.25 288.68 C 380.63 288.62 379.39 288.51 378.78 288.46 C 377.07 281.24 376.05 273.76 372.75 267.03 C 373.55 267.39 375.16 268.10 375.96 268.46 C 375.09 267.47 374.27 266.46 373.48 265.43 C 373.21 265.04 372.67 264.27 372.40 263.88 C 369.20 270.87 370.75 278.52 370.77 285.91 C 370.14 283.57 368.92 281.49 367.28 279.73 C 367.49 274.66 368.79 269.60 367.97 264.53 C 367.29 268.69 367.50 272.97 366.03 276.98 C 364.02 275.95 364.57 273.69 364.72 271.93 C 365.41 267.22 366.41 262.26 364.67 257.64 C 364.57 258.63 364.35 260.62 364.24 261.61 C 363.58 261.68 362.26 261.81 361.60 261.88 C 362.54 257.66 363.09 253.19 361.50 249.05 C 361.40 250.87 361.32 252.69 361.28 254.51 C 360.28 254.60 359.28 254.69 358.29 254.77 C 358.71 250.96 359.64 247.21 359.52 243.35 C 359.30 243.34 358.87 243.32 358.66 243.31 C 358.53 244.87 358.40 246.44 358.25 248.00 C 355.67 247.43 356.60 244.68 356.85 242.95 C 357.31 241.01 357.45 239.03 357.44 237.05 C 356.69 237.52 355.18 238.47 354.43 238.95 C 354.77 236.81 355.29 234.70 355.63 232.57 C 354.10 228.59 351.52 225.12 350.07 221.11 C 348.43 216.67 346.71 212.24 344.19 208.21 C 344.08 209.10 343.85 210.89 343.73 211.78 C 343.04 210.64 342.36 209.49 341.68 208.35 C 342.65 205.40 342.41 202.36 339.81 200.35 C 339.22 202.93 338.72 205.54 338.01 208.10 C 336.64 205.44 337.28 202.50 337.44 199.69 C 336.96 200.81 336.49 201.94 336.04 203.08 C 335.83 203.72 335.41 204.99 335.20 205.63 C 334.71 205.60 333.75 205.54 333.27 205.52 C 333.69 202.80 335.04 200.32 335.42 197.61 C 332.14 197.66 329.27 199.59 326.16 200.43 C 324.84 198.24 322.38 197.49 320.10 196.76 C 319.79 197.39 319.17 198.63 318.86 199.25 C 317.09 199.96 315.94 198.23 314.78 197.25 C 312.07 194.55 309.26 191.95 306.64 189.16 C 305.87 188.46 305.42 187.51 305.50 186.45 C 307.99 186.87 309.64 189.02 311.70 190.30 C 309.16 186.40 305.40 183.58 301.55 181.09 C 301.45 180.64 301.24 179.72 301.14 179.26 C 302.09 179.38 303.99 179.61 304.93 179.73 C 302.96 177.08 300.82 174.57 298.62 172.11 C 298.92 171.00 299.62 169.86 299.15 168.69 C 297.69 163.91 295.79 159.25 295.01 154.29 C 294.54 147.10 291.50 140.28 291.84 133.01 C 291.86 130.81 291.94 128.60 291.98 126.40 C 290.41 125.60 288.86 124.76 287.36 123.86 C 288.44 123.73 290.60 123.48 291.68 123.35 C 290.56 122.59 289.44 121.84 288.32 121.10 C 288.29 120.73 288.24 119.99 288.22 119.62 C 288.83 119.61 290.05 119.60 290.66 119.59 L 290.54 117.59 C 289.33 117.03 286.50 118.16 286.48 116.13 C 286.71 115.58 287.17 114.47 287.40 113.91 C 285.89 111.97 284.69 109.78 282.97 108.01 C 279.74 106.27 275.89 105.99 272.85 103.84 C 270.21 101.74 267.22 100.13 263.90 99.43 C 262.08 99.14 260.89 97.66 260.32 96.01 C 259.85 95.87 258.91 95.61 258.44 95.47 C 253.30 94.73 248.17 93.36 242.96 93.50 C 241.25 94.01 239.56 94.58 237.87 95.12 C 238.74 94.39 239.62 93.66 240.50 92.93 C 237.98 93.29 235.45 93.64 232.91 93.71 C 230.02 93.49 227.22 94.10 225.29 96.39 C 221.52 96.47 217.76 96.10 213.99 95.95 C 212.90 96.44 211.91 97.15 210.90 97.78 C 209.25 98.90 207.35 99.48 205.37 99.55 C 206.53 97.86 207.70 96.17 208.88 94.48 C 203.48 94.50 198.16 95.64 193.02 97.21 C 191.58 97.58 188.29 95.79 188.38 98.14 C 188.85 98.53 189.81 99.30 190.29 99.68 C 189.88 99.93 189.07 100.43 188.66 100.68 C 187.16 101.36 185.08 102.58 184.08 100.51 C 181.10 101.45 177.76 101.89 174.80 100.64 C 172.20 100.92 169.75 101.78 167.90 103.70 C 167.21 103.62 165.84 103.46 165.15 103.38 C 164.23 102.90 163.30 102.43 162.37 101.98 C 159.62 104.19 156.33 105.51 153.37 107.38 C 152.38 107.41 151.40 107.45 150.42 107.48 C 150.43 106.69 150.45 105.11 150.46 104.33 C 148.50 104.27 146.19 104.98 144.77 103.13 C 143.87 103.86 142.98 104.60 142.08 105.34 C 141.27 105.39 140.46 105.45 139.65 105.50 C 138.13 106.72 136.44 107.67 134.43 107.66 C 134.50 105.28 135.00 102.96 135.67 100.69 C 133.70 102.45 131.89 104.37 130.13 106.34 C 125.46 106.72 123.17 111.52 120.21 114.55 C 119.47 114.15 117.98 113.35 117.24 112.95 C 117.32 110.93 117.44 108.91 117.57 106.89 C 117.17 107.06 116.36 107.40 115.95 107.57 C 114.54 109.41 112.88 111.06 110.84 112.20 C 110.35 110.90 109.87 109.61 109.39 108.31 C 107.78 108.64 105.68 108.49 105.15 110.47 C 104.27 109.60 103.40 108.72 102.53 107.84 C 100.11 110.12 98.49 113.04 97.45 116.18 C 97.39 116.27 97.26 116.46 97.19 116.55 C 95.90 117.68 94.59 118.80 93.30 119.92 C 93.78 120.51 94.74 121.68 95.23 122.27 C 92.69 125.30 89.95 128.15 87.27 131.05 C 83.80 136.42 80.26 141.82 77.79 147.75 C 76.08 153.98 73.53 159.92 70.85 165.78 C 69.76 169.35 67.96 172.64 66.64 176.12 C 65.86 180.74 66.48 185.46 66.26 190.11 C 65.46 192.32 64.78 194.60 64.91 196.98 C 65.01 202.65 64.87 208.33 65.17 214.00 C 64.99 214.19 64.65 214.57 64.48 214.75 C 64.54 209.51 64.15 204.27 64.44 199.03 C 64.94 190.69 61.77 181.96 65.17 173.93 C 67.41 169.21 69.06 164.24 71.26 159.50 C 74.38 153.03 75.48 145.70 79.41 139.60 C 80.95 136.52 84.31 133.78 83.24 130.00 C 81.49 123.96 79.24 118.08 77.78 111.96 C 74.05 102.96 70.31 93.90 65.50 85.41 C 64.11 83.00 64.28 80.15 64.19 77.47 C 64.58 77.37 65.37 77.18 65.77 77.08 C 69.86 76.46 73.90 77.83 78.01 77.57 C 80.72 77.38 83.43 77.77 86.03 78.54 C 85.06 77.02 84.07 75.52 83.06 74.02 C 82.09 72.24 80.43 70.61 80.58 68.44 C 81.49 68.34 83.30 68.16 84.21 68.07 C 84.36 67.44 84.67 66.20 84.82 65.58 C 86.81 65.53 88.80 65.50 90.79 65.48 C 89.90 63.87 89.03 62.25 88.16 60.63 C 90.70 59.74 93.72 59.67 95.66 57.60 C 97.38 55.90 99.24 54.37 101.21 52.97 C 101.35 52.00 101.49 51.03 101.63 50.06 C 103.16 49.55 104.83 49.12 105.85 47.77 C 108.69 44.72 111.60 41.71 115.11 39.43 C 115.04 34.64 120.12 32.12 123.74 30.02 C 126.05 29.25 126.02 26.60 126.65 24.66 C 129.30 23.52 132.11 22.77 134.65 21.39 C 139.95 17.18 146.70 15.58 152.93 13.22 C 156.15 7.76 164.79 12.05 167.15 5.73 C 168.49 5.61 169.84 5.50 171.18 5.40 C 171.96 4.17 172.43 2.64 173.68 1.79 C 175.77 1.37 177.91 1.44 180.03 1.29 C 181.48 0.84 182.95 0.41 184.42 0.00 M 183.52 2.10 C 183.79 3.59 186.24 2.53 186.88 1.76 C 186.58 0.38 184.15 1.31 183.52 2.10 M 174.70 3.62 C 174.67 4.85 174.61 6.08 174.51 7.31 C 175.08 6.21 175.62 5.10 176.16 3.98 C 178.17 3.83 180.23 3.87 182.19 3.30 C 179.69 3.06 177.19 3.45 174.70 3.62 M 169.91 7.52 C 168.26 10.52 164.44 10.46 161.70 11.91 C 164.73 11.52 168.27 10.61 170.06 7.92 C 170.75 7.88 172.14 7.82 172.83 7.79 L 172.92 7.09 C 171.91 7.23 170.91 7.38 169.91 7.52 M 536.06 9.48 C 535.18 10.69 535.43 11.40 536.79 11.60 C 537.65 10.39 537.41 9.68 536.06 9.48 M 160.13 12.22 C 160.67 12.78 160.67 12.78 160.13 12.22 M 156.16 13.10 C 156.37 16.35 159.20 11.55 156.16 13.10 M 153.00 15.22 C 153.57 15.78 153.57 15.78 153.00 15.22 M 149.55 16.06 C 149.83 19.30 152.60 14.46 149.55 16.06 M 147.24 17.20 C 147.83 17.76 147.83 17.76 147.24 17.20 M 145.26 18.13 C 145.79 18.67 145.79 18.67 145.26 18.13 M 569.30 31.00 C 567.86 31.01 567.17 33.72 568.93 33.77 C 570.34 33.75 571.07 31.02 569.30 31.00 M 572.09 34.14 C 570.54 37.11 575.42 34.29 572.09 34.14 M 151.77 104.76 C 152.34 104.70 153.49 104.57 154.06 104.51 C 155.24 102.59 157.14 101.40 159.04 100.32 C 158.27 100.30 156.71 100.27 155.93 100.25 C 154.29 101.51 152.29 102.59 151.77 104.76 M 114.71 105.17 C 114.20 105.30 113.16 105.55 112.65 105.67 C 112.56 106.31 112.39 107.58 112.30 108.21 C 114.02 106.68 115.69 105.05 116.93 103.10 C 116.18 103.77 115.44 104.47 114.71 105.17 M 123.98 104.41 C 122.54 105.43 120.88 106.19 119.68 107.51 C 119.43 109.04 119.53 110.60 119.57 112.15 C 120.29 110.70 120.58 109.10 120.69 107.49 L 121.37 107.54 C 122.23 106.49 123.11 105.45 123.98 104.41 M 632.17 177.10 C 630.67 177.91 631.64 181.02 632.88 181.55 C 633.55 180.26 633.66 177.82 632.17 177.10 M 328.17 196.29 C 326.90 197.77 329.75 198.61 330.56 197.47 C 331.84 196.00 328.97 195.16 328.17 196.29 M 403.05 306.33 C 402.26 307.56 402.17 309.41 402.96 310.67 C 404.34 310.32 404.40 306.70 403.05 306.33 M 614.40 415.16 C 613.22 415.65 612.57 417.38 613.26 418.49 C 614.71 418.98 615.95 415.56 614.40 415.16 M 589.05 480.44 C 588.28 481.79 589.70 484.71 591.40 484.07 C 591.68 482.70 590.39 480.67 589.05 480.44 Z" />
<path fill="#a5a5a5" opacity="1.00" d=" M 188.31 0.00 L 188.66 0.00 C 188.55 0.06 188.32 0.18 188.20 0.24 L 188.31 0.00 Z" />
<path fill="#ffffff" opacity="1.00" d=" M 518.18 0.00 L 769.00 0.00 L 769.00 800.00 L 285.36 800.00 C 293.06 781.18 289.09 760.23 284.08 741.26 C 283.01 734.80 281.61 728.41 280.17 722.03 C 278.89 717.48 277.44 712.78 273.77 709.55 C 283.41 709.01 292.96 710.16 302.44 711.81 L 302.92 711.94 C 308.42 714.13 313.78 716.80 319.64 717.94 C 324.88 718.91 329.75 721.16 334.87 722.60 C 339.83 724.06 344.35 726.73 349.38 727.98 C 349.44 727.43 349.55 726.31 349.61 725.76 C 340.50 722.07 331.28 718.58 321.79 716.01 C 316.26 715.11 311.23 712.57 305.89 711.01 C 305.46 710.71 304.59 710.12 304.16 709.82 C 302.43 709.57 300.71 709.34 299.01 709.04 C 293.70 708.29 288.37 707.27 282.99 707.43 C 271.16 707.48 259.33 707.36 247.50 707.53 C 241.22 707.65 234.97 708.47 228.73 709.17 C 216.94 710.01 204.97 708.53 193.28 710.87 C 185.13 712.53 176.65 713.62 168.41 711.90 C 162.71 710.66 156.56 710.58 151.54 707.25 C 144.70 702.97 137.58 698.94 131.86 693.17 C 127.04 688.44 122.00 682.95 121.37 675.89 C 121.10 667.95 121.56 659.99 121.15 652.05 C 120.55 649.22 120.40 646.33 120.11 643.47 C 120.94 643.46 122.60 643.45 123.43 643.44 C 126.27 638.38 128.43 632.65 133.14 628.94 C 136.92 625.33 143.60 623.64 147.90 627.24 C 150.03 628.87 151.95 630.74 153.95 632.51 C 154.34 631.96 154.73 631.41 155.12 630.88 C 151.76 627.38 148.16 623.42 143.07 622.75 C 136.15 622.44 130.51 627.40 126.73 632.69 C 124.18 636.14 123.10 640.51 119.97 643.56 C 118.78 636.35 117.09 629.25 115.77 622.07 C 115.35 619.91 114.75 617.80 114.24 615.68 C 113.11 612.72 111.96 609.76 110.59 606.91 C 110.40 605.30 110.25 603.69 110.16 602.08 C 112.83 600.77 115.41 599.26 118.21 598.24 C 129.07 594.45 141.12 595.79 151.77 591.22 C 159.65 587.47 167.65 583.88 174.83 578.88 C 181.24 574.32 188.52 571.26 195.44 567.59 C 200.04 565.11 204.02 561.68 208.39 558.83 C 208.65 555.93 208.74 552.79 206.63 550.51 C 205.74 547.87 205.51 544.70 203.47 542.65 C 195.18 537.38 185.29 535.83 176.35 532.06 C 167.49 529.34 158.67 526.50 150.03 523.16 C 141.97 519.99 133.02 519.81 125.18 516.04 C 121.24 514.39 117.39 511.77 112.90 512.38 C 110.29 512.17 108.48 514.31 106.50 515.64 C 106.37 516.09 106.12 516.99 105.99 517.44 C 102.96 515.67 99.61 514.35 96.03 514.60 C 94.53 517.04 93.00 519.46 91.58 521.96 C 91.60 518.20 91.35 514.43 91.88 510.70 C 91.91 510.54 91.98 510.23 92.01 510.07 C 92.71 506.03 93.45 501.98 93.75 497.89 L 94.56 497.09 C 93.67 489.55 90.04 482.43 90.78 474.66 C 96.90 474.42 103.26 475.18 109.10 472.88 C 113.62 470.76 118.33 469.02 123.15 467.70 C 128.39 466.94 133.69 466.59 138.90 465.61 C 144.31 465.46 149.69 464.92 155.06 464.22 C 159.36 462.93 162.88 460.00 166.58 457.59 C 170.68 454.84 174.13 450.18 173.61 445.03 C 173.73 440.79 171.63 437.00 169.25 433.65 C 174.58 437.70 178.31 443.29 182.76 448.19 C 190.24 457.05 194.76 467.84 199.88 478.12 C 200.21 479.55 201.54 479.66 202.76 479.78 C 198.94 470.76 194.68 461.85 189.41 453.59 C 186.18 448.26 181.66 443.92 177.88 439.01 C 175.45 436.40 173.14 433.53 170.02 431.70 C 167.48 430.24 164.78 431.89 162.38 432.81 C 165.82 438.05 167.80 444.68 165.97 450.84 C 164.23 455.45 159.05 456.82 156.15 460.40 C 154.75 461.08 153.35 461.76 151.95 462.46 C 148.95 462.50 145.98 462.02 143.00 461.88 C 132.14 464.63 120.51 464.59 110.21 469.40 C 105.85 471.23 101.14 473.13 96.32 472.24 C 93.17 471.58 89.94 471.57 86.79 470.99 C 81.01 469.41 75.22 467.29 70.42 463.60 C 65.56 459.90 60.46 456.39 56.49 451.68 C 54.30 449.21 52.62 446.28 51.69 443.11 C 50.73 437.55 52.32 432.09 53.71 426.76 C 56.88 418.52 62.37 411.57 67.79 404.73 C 74.50 396.28 77.38 385.73 80.77 375.70 C 84.74 364.42 93.66 355.98 98.72 345.30 C 101.35 341.28 101.56 336.43 101.77 331.80 C 101.81 331.33 101.89 330.39 101.94 329.92 C 98.42 327.01 95.67 323.33 93.92 319.12 C 88.05 308.44 84.18 296.83 78.55 286.05 C 78.34 279.66 78.83 273.27 79.94 266.98 C 83.44 254.22 92.53 243.89 95.55 230.95 C 94.88 231.15 93.55 231.54 92.89 231.74 C 89.67 244.26 80.67 254.32 77.61 266.89 C 76.35 272.86 76.25 279.00 76.51 285.07 C 76.54 286.88 77.40 288.52 78.14 290.12 C 81.21 295.87 83.21 302.09 86.15 307.90 C 88.38 313.51 91.35 318.77 94.06 324.15 C 95.65 327.33 99.00 329.30 100.13 332.75 C 99.16 332.50 97.22 332.00 96.24 331.76 C 91.71 324.72 88.19 317.07 84.09 309.78 C 81.66 305.62 80.79 300.72 78.05 296.75 C 79.41 306.28 85.53 314.21 89.29 322.88 C 87.37 321.48 85.14 320.33 83.80 318.28 C 80.73 313.82 76.82 309.61 75.87 304.08 C 74.61 297.18 72.52 290.41 72.16 283.37 C 71.54 283.52 70.32 283.81 69.71 283.96 C 70.32 288.30 71.27 292.57 72.20 296.85 C 72.81 300.14 73.37 303.45 74.25 306.68 C 75.72 311.81 79.70 315.61 82.25 320.18 C 78.80 321.16 75.60 322.80 72.32 324.21 C 68.80 325.70 64.93 325.53 61.24 326.26 C 59.00 326.59 57.48 328.42 55.70 329.65 C 55.16 329.06 54.65 328.45 54.16 327.83 C 52.60 325.72 50.64 323.96 48.68 322.23 C 49.43 315.12 50.60 308.04 50.69 300.87 C 51.73 293.46 55.79 286.61 55.47 278.99 C 55.66 271.67 55.37 264.34 55.66 257.02 C 58.01 251.16 59.34 244.96 60.94 238.88 C 62.59 233.49 64.32 228.13 66.15 222.80 C 67.01 214.91 67.99 206.88 66.87 198.95 C 66.50 196.02 66.47 193.06 66.26 190.11 C 66.48 185.46 65.86 180.74 66.64 176.12 C 67.96 172.64 69.76 169.35 70.85 165.78 C 73.53 159.92 76.08 153.98 77.79 147.75 C 80.26 141.82 83.80 136.42 87.27 131.05 C 89.95 128.15 92.69 125.30 95.23 122.27 C 97.68 119.73 99.90 116.98 101.71 113.94 C 104.15 114.20 105.00 112.63 105.15 110.47 C 105.68 108.49 107.78 108.64 109.39 108.31 C 109.87 109.61 110.35 110.90 110.84 112.20 C 112.88 111.06 114.54 109.41 115.95 107.57 C 116.36 107.40 117.17 107.06 117.57 106.89 C 117.44 108.91 117.32 110.93 117.24 112.95 C 117.98 113.35 119.47 114.15 120.21 114.55 C 123.17 111.52 125.46 106.72 130.13 106.34 C 131.89 104.37 133.70 102.45 135.67 100.69 C 135.00 102.96 134.50 105.28 134.43 107.66 C 136.44 107.67 138.13 106.72 139.65 105.50 C 140.46 105.45 141.27 105.39 142.08 105.34 C 142.98 104.60 143.87 103.86 144.77 103.13 C 146.19 104.98 148.50 104.27 150.46 104.33 C 150.45 105.11 150.43 106.69 150.42 107.48 C 151.40 107.45 152.38 107.41 153.37 107.38 C 156.33 105.51 159.62 104.19 162.37 101.98 C 163.30 102.43 164.23 102.90 165.15 103.38 C 165.84 103.46 167.21 103.62 167.90 103.70 C 169.75 101.78 172.20 100.92 174.80 100.64 C 177.76 101.89 181.10 101.45 184.08 100.51 C 185.08 102.58 187.16 101.36 188.66 100.68 C 191.48 100.73 194.28 101.18 197.10 101.12 C 197.48 101.02 198.23 100.81 198.61 100.70 C 200.87 100.37 203.11 99.92 205.37 99.55 C 207.35 99.48 209.25 98.90 210.90 97.78 C 215.17 96.89 219.65 97.40 223.93 98.01 C 227.98 96.98 232.09 98.20 236.08 98.91 C 242.19 98.40 248.32 98.55 254.45 98.47 C 254.81 98.76 255.55 99.36 255.91 99.65 C 257.61 99.49 259.31 99.33 261.02 99.17 C 261.69 99.60 263.02 100.46 263.69 100.89 C 263.67 101.52 263.65 102.80 263.64 103.44 C 266.71 103.53 269.82 103.24 272.85 103.84 C 275.89 105.99 279.74 106.27 282.97 108.01 C 284.69 109.78 285.89 111.97 287.40 113.91 C 287.17 114.47 286.71 115.58 286.48 116.13 C 286.50 118.16 289.33 117.03 290.54 117.59 L 290.66 119.59 C 290.05 119.60 288.83 119.61 288.22 119.62 C 288.24 119.99 288.29 120.73 288.32 121.10 C 289.44 121.84 290.56 122.59 291.68 123.35 C 290.60 123.48 288.44 123.73 287.36 123.86 C 287.52 124.52 287.68 125.19 287.84 125.86 C 289.38 125.97 290.05 126.58 289.86 127.68 C 287.39 128.93 288.40 131.24 290.75 131.81 C 290.84 139.53 293.04 146.90 295.01 154.29 C 295.79 159.25 297.69 163.91 299.15 168.69 C 299.62 169.86 298.92 171.00 298.62 172.11 C 300.82 174.57 302.96 177.08 304.93 179.73 C 303.99 179.61 302.09 179.38 301.14 179.26 C 301.24 179.72 301.45 180.64 301.55 181.09 C 305.40 183.58 309.16 186.40 311.70 190.30 C 309.64 189.02 307.99 186.87 305.50 186.45 C 305.42 187.51 305.87 188.46 306.64 189.16 C 309.26 191.95 312.07 194.55 314.78 197.25 C 315.94 198.23 317.09 199.96 318.86 199.25 C 319.17 198.63 319.79 197.39 320.10 196.76 C 322.38 197.49 324.84 198.24 326.16 200.43 C 329.27 199.59 332.14 197.66 335.42 197.61 C 335.04 200.32 333.69 202.80 333.27 205.52 C 333.75 205.54 334.71 205.60 335.20 205.63 C 335.41 204.99 335.83 203.72 336.04 203.08 C 336.49 201.94 336.96 200.81 337.44 199.69 C 337.28 202.50 336.64 205.44 338.01 208.10 C 338.72 205.54 339.22 202.93 339.81 200.35 C 339.76 203.92 338.00 209.07 342.10 210.99 C 342.68 212.93 343.49 214.78 344.60 216.47 C 345.25 216.11 346.55 215.40 347.20 215.04 C 348.34 220.36 351.29 225.22 350.74 230.81 C 352.15 231.88 353.95 232.15 355.63 232.57 C 355.29 234.70 354.77 236.81 354.43 238.95 C 355.18 238.47 356.69 237.52 357.44 237.05 C 357.45 239.03 357.31 241.01 356.85 242.95 C 356.60 244.68 355.67 247.43 358.25 248.00 C 358.40 246.44 358.53 244.87 358.66 243.31 C 358.87 243.32 359.30 243.34 359.52 243.35 C 359.64 247.21 358.71 250.96 358.29 254.77 C 359.28 254.69 360.28 254.60 361.28 254.51 C 361.32 252.69 361.40 250.87 361.50 249.05 C 363.09 253.19 362.54 257.66 361.60 261.88 C 362.26 261.81 363.58 261.68 364.24 261.61 C 364.35 260.62 364.57 258.63 364.67 257.64 C 366.41 262.26 365.41 267.22 364.72 271.93 C 364.57 273.69 364.02 275.95 366.03 276.98 C 367.50 272.97 367.29 268.69 367.97 264.53 C 368.79 269.60 367.49 274.66 367.28 279.73 C 367.14 280.39 366.87 281.71 366.73 282.37 C 367.56 282.82 368.41 283.27 369.26 283.70 C 369.16 285.76 369.12 287.83 369.15 289.89 C 369.89 289.38 370.64 288.88 371.39 288.38 C 371.50 284.29 371.65 280.20 372.00 276.13 C 373.21 279.21 372.43 283.38 375.27 285.59 C 376.87 279.39 373.12 273.88 372.24 267.93 C 372.67 267.10 373.08 266.27 373.48 265.43 C 374.27 266.46 375.09 267.47 375.96 268.46 C 375.16 268.10 373.55 267.39 372.75 267.03 C 376.05 273.76 377.07 281.24 378.78 288.46 C 379.39 288.51 380.63 288.62 381.25 288.68 C 381.46 291.35 381.33 294.35 383.90 295.98 C 383.82 293.22 383.59 290.47 383.50 287.71 C 384.58 292.45 384.52 297.33 384.76 302.16 C 385.24 302.46 386.19 303.05 386.67 303.34 C 387.12 304.86 387.67 306.35 388.23 307.84 C 388.76 307.30 389.81 306.24 390.34 305.70 C 391.36 304.75 392.41 303.83 393.47 302.91 C 393.60 301.18 393.74 299.45 393.97 297.73 C 394.30 301.49 393.36 305.23 393.66 309.00 C 397.57 307.45 397.39 303.02 397.94 299.57 C 398.89 303.57 396.94 307.57 397.46 311.64 L 399.37 311.65 C 399.47 308.29 399.67 304.92 400.45 301.64 C 400.82 307.04 400.47 312.45 400.54 317.85 C 403.87 317.65 402.28 313.84 402.71 311.76 C 403.04 313.26 403.35 314.76 403.66 316.27 C 404.84 315.91 406.03 315.60 407.23 315.32 L 407.72 315.33 L 409.29 315.34 C 409.89 314.21 410.42 313.05 410.95 311.89 C 411.93 310.27 412.89 308.64 413.88 307.02 C 416.26 305.46 416.67 302.61 417.36 300.08 C 417.49 301.97 417.63 303.86 417.80 305.76 C 419.62 305.70 420.55 304.55 420.92 302.90 C 423.12 302.35 425.75 302.00 425.76 299.13 C 426.13 297.97 426.32 296.77 426.54 295.59 C 427.79 295.30 429.02 294.90 430.04 294.09 C 434.97 290.24 437.10 283.90 442.37 280.46 C 448.27 276.28 453.01 270.38 459.86 267.63 C 462.64 267.15 465.54 267.36 468.22 266.29 C 464.39 268.78 458.55 270.01 457.12 274.84 C 458.64 274.61 460.24 274.43 461.53 273.50 C 467.35 269.85 472.62 265.39 478.36 261.61 C 482.79 258.51 488.59 258.19 492.79 254.67 C 498.91 249.90 506.28 247.12 513.75 245.27 C 520.27 243.37 527.65 243.80 533.53 247.37 C 539.02 250.70 544.59 254.38 548.22 259.82 C 552.55 266.90 553.85 275.25 556.32 283.06 C 558.76 290.49 557.11 298.40 558.25 306.00 C 559.14 311.45 556.54 316.57 555.62 321.83 C 553.33 330.37 552.60 339.20 552.31 348.00 C 550.35 355.36 547.23 362.39 546.01 369.94 C 545.04 374.42 543.01 378.56 541.52 382.88 C 538.08 393.22 531.41 402.15 524.07 410.07 C 518.14 417.40 512.60 425.14 505.27 431.19 C 500.53 435.00 496.73 441.36 489.99 441.43 C 484.32 440.58 479.36 437.36 474.64 434.30 C 469.94 430.88 464.14 429.18 459.93 425.06 C 457.49 422.51 452.99 422.79 450.77 425.49 C 450.01 419.18 448.42 413.02 447.42 406.75 C 446.09 398.88 446.62 390.90 446.50 382.96 C 446.46 380.64 446.59 378.31 447.18 376.05 C 447.29 371.88 447.47 367.69 447.17 363.52 C 446.56 363.36 445.34 363.04 444.73 362.89 C 444.74 375.78 444.21 388.67 444.54 401.57 C 444.69 404.91 445.35 408.20 445.90 411.49 C 446.43 417.35 449.64 423.32 447.67 429.14 C 448.08 429.52 448.90 430.27 449.31 430.65 C 449.57 441.85 452.50 452.70 455.81 463.32 C 457.85 468.80 457.55 474.71 458.78 480.36 C 459.69 480.47 460.60 480.58 461.51 480.70 C 460.63 477.59 460.37 474.36 460.09 471.16 C 458.80 463.48 456.02 456.17 454.03 448.68 C 452.94 442.05 451.86 435.40 451.25 428.70 C 452.77 427.36 454.13 424.75 456.55 425.67 C 459.54 427.48 461.95 430.16 465.19 431.60 C 472.35 434.95 478.35 440.42 485.89 443.01 C 490.14 444.28 495.17 443.79 498.52 440.64 C 506.83 433.25 515.17 425.72 521.78 416.71 C 526.52 410.12 532.81 404.79 536.82 397.65 C 541.72 391.07 543.81 383.07 546.83 375.57 C 548.61 370.89 548.95 365.81 550.67 361.11 C 551.93 357.82 552.24 353.90 555.13 351.50 C 555.28 351.09 555.59 350.26 555.75 349.85 C 556.44 352.16 555.72 354.51 555.35 356.81 C 555.88 357.94 556.41 359.07 556.96 360.20 C 557.79 362.06 557.76 364.12 557.90 366.12 C 560.20 374.26 558.43 382.83 560.42 391.00 C 561.03 394.97 560.01 398.99 560.49 402.96 C 560.96 403.16 561.91 403.57 562.39 403.77 C 561.53 405.95 561.86 408.02 563.38 409.79 C 562.85 413.76 563.85 417.73 564.53 421.63 C 566.20 425.93 566.09 430.61 566.81 435.11 C 566.85 436.67 568.16 437.56 569.29 438.40 C 569.42 440.18 569.50 441.98 569.74 443.77 C 570.12 444.02 570.87 444.53 571.25 444.79 C 571.86 448.31 572.38 451.85 572.78 455.41 C 573.40 455.50 574.62 455.68 575.23 455.77 C 575.56 457.71 575.84 459.71 576.65 461.53 C 577.03 461.95 577.77 462.78 578.15 463.20 C 579.29 466.37 579.96 469.69 581.12 472.86 C 582.32 475.43 583.77 477.88 584.86 480.52 C 585.44 480.57 586.60 480.67 587.18 480.72 C 588.37 483.39 588.71 486.73 590.94 488.74 C 591.53 488.38 592.70 487.65 593.29 487.29 C 595.85 490.58 596.97 495.37 601.15 497.06 C 602.76 501.69 603.96 506.73 607.42 510.41 C 609.96 513.14 613.97 512.98 617.37 513.58 C 617.88 514.98 618.39 516.38 618.87 517.79 C 620.39 519.51 621.77 521.35 623.11 523.22 C 624.17 529.45 628.80 534.10 631.65 539.52 C 638.07 551.48 642.94 564.57 652.60 574.45 C 657.45 581.23 664.67 585.65 670.01 591.98 C 675.30 597.32 680.64 602.62 685.96 607.94 C 699.14 620.66 715.18 629.73 730.41 639.70 C 737.76 643.65 743.94 649.37 751.26 653.39 C 756.24 655.94 760.09 661.08 765.93 661.58 C 764.65 659.24 762.16 658.17 760.09 656.72 C 756.71 654.45 753.42 652.07 749.90 650.02 C 743.83 646.62 738.77 641.69 732.57 638.49 C 724.25 633.05 715.69 628.02 707.59 622.26 C 691.48 612.25 679.07 597.64 665.66 584.48 C 660.15 580.25 655.74 574.91 651.32 569.61 C 641.79 558.63 637.90 544.17 629.71 532.32 C 627.89 529.42 625.58 526.49 625.60 522.91 C 623.91 520.61 622.25 518.29 620.45 516.09 C 620.96 513.02 621.56 509.96 622.69 507.06 C 624.37 503.07 622.38 498.84 622.23 494.76 C 621.78 494.39 620.87 493.65 620.42 493.28 C 620.23 490.16 620.57 487.00 620.04 483.91 C 619.09 481.14 617.93 478.36 618.34 475.36 C 617.41 474.59 616.47 473.85 615.53 473.13 C 617.26 468.48 614.70 463.84 615.20 459.09 C 613.99 453.48 614.00 447.58 615.04 441.94 C 613.17 437.69 616.80 433.84 616.89 429.61 C 616.21 429.51 614.87 429.31 614.20 429.22 C 615.13 425.86 616.77 422.58 616.61 419.02 C 616.07 415.41 619.38 412.41 618.53 408.80 C 617.76 408.79 616.22 408.77 615.45 408.75 C 616.31 406.48 617.11 404.19 617.82 401.87 C 617.48 401.45 616.80 400.60 616.46 400.17 C 617.65 398.39 618.85 396.61 620.02 394.81 C 621.05 389.93 621.56 384.91 621.96 379.92 C 622.18 376.40 624.77 373.52 624.64 369.97 C 624.50 366.18 626.49 362.42 625.03 358.72 C 624.99 358.27 624.91 357.36 624.87 356.90 C 626.01 349.32 628.01 341.92 629.85 334.49 C 630.77 331.36 629.40 328.21 629.50 325.05 C 629.90 319.09 629.39 313.02 631.07 307.21 C 629.45 303.55 631.44 299.70 631.15 295.93 C 630.75 291.93 631.50 287.94 631.35 283.93 C 631.07 281.32 632.94 279.22 633.61 276.83 C 634.00 275.18 632.29 273.81 632.81 272.19 C 633.52 269.35 634.80 266.68 635.55 263.86 C 636.43 256.09 637.19 248.24 636.30 240.43 C 635.85 235.08 639.08 229.64 636.55 224.50 C 633.91 216.19 638.87 206.61 633.49 198.89 C 635.32 195.90 636.47 192.30 635.29 188.85 C 633.52 183.40 634.93 177.65 634.45 172.07 C 631.98 173.01 631.06 175.61 629.66 177.59 C 629.42 174.59 629.31 171.59 629.38 168.59 C 628.89 168.30 627.93 167.71 627.44 167.41 C 627.42 164.40 627.49 161.22 625.50 158.73 C 625.61 155.93 625.57 153.06 623.46 150.95 C 623.17 147.19 623.93 143.06 621.00 140.11 C 620.61 136.10 619.19 132.24 616.84 128.96 C 616.05 125.33 617.71 120.62 614.45 117.95 C 613.86 116.06 613.77 113.99 612.85 112.23 C 608.54 106.62 610.46 98.86 607.39 92.74 C 605.43 88.20 601.89 84.38 601.12 79.35 C 600.52 79.39 599.30 79.47 598.70 79.51 C 598.59 76.75 598.53 73.98 598.38 71.22 C 594.98 69.18 595.92 64.58 593.73 61.68 C 592.29 60.02 592.33 57.77 592.03 55.72 C 591.33 55.68 589.94 55.60 589.24 55.56 C 589.27 53.78 589.27 51.99 589.29 50.20 C 587.18 50.07 585.83 51.60 584.59 53.08 C 584.44 50.90 584.33 48.72 584.39 46.54 C 583.74 46.52 582.44 46.46 581.79 46.44 C 581.42 46.37 580.69 46.22 580.33 46.15 C 578.67 44.99 579.82 42.22 579.36 40.41 C 578.58 40.46 577.02 40.55 576.24 40.59 C 576.27 39.31 576.31 38.04 576.36 36.76 C 575.90 36.39 574.97 35.64 574.51 35.27 C 574.49 34.50 574.46 32.96 574.44 32.19 C 573.59 30.58 572.84 28.92 572.10 27.26 C 570.41 28.43 568.72 29.60 567.03 30.76 C 564.18 27.71 561.10 24.88 558.16 21.91 C 555.55 19.28 552.00 17.78 549.69 14.84 C 548.09 14.68 546.49 14.53 544.90 14.34 C 544.42 12.98 543.93 11.64 543.45 10.29 C 543.05 10.31 542.25 10.36 541.85 10.38 C 541.38 11.05 540.42 12.39 539.95 13.05 C 539.18 11.04 538.53 8.98 538.08 6.87 C 537.84 6.46 537.35 5.63 537.11 5.22 C 536.53 5.33 535.38 5.54 534.80 5.65 C 534.60 7.17 534.39 8.69 534.16 10.21 C 533.45 8.58 532.93 6.88 532.40 5.19 C 531.92 5.19 530.97 5.19 530.50 5.20 C 530.02 6.36 529.55 7.53 529.09 8.70 C 528.47 6.67 527.86 4.63 527.26 2.60 C 523.99 2.78 520.73 2.18 518.18 0.00 M 105.59 128.10 C 103.80 137.15 99.74 145.70 99.00 154.99 C 98.29 163.73 97.07 172.45 95.01 180.98 C 92.55 190.13 93.44 199.75 94.39 209.06 C 94.76 214.98 96.63 220.67 98.63 226.22 C 97.88 228.00 97.22 229.82 96.88 231.73 C 98.29 229.83 100.40 227.28 99.23 224.83 C 94.33 212.91 94.07 199.71 94.66 187.02 C 96.76 177.12 99.21 167.25 99.84 157.10 C 100.31 147.14 104.14 137.82 106.82 128.33 C 106.51 128.27 105.90 128.15 105.59 128.10 M 115.11 236.18 C 109.71 236.98 104.30 237.79 98.94 238.84 C 98.82 239.35 98.57 240.36 98.44 240.87 C 105.66 240.45 112.73 238.83 119.86 237.71 C 124.26 237.22 128.69 236.83 133.00 235.82 C 144.63 234.86 156.40 235.10 168.00 236.37 C 174.85 236.55 180.91 240.53 187.73 240.84 C 187.69 240.32 187.62 239.28 187.58 238.76 C 182.25 237.73 177.22 235.61 171.92 234.47 C 167.71 233.26 163.29 233.76 158.99 233.33 C 152.38 232.23 145.64 232.73 138.97 232.75 C 131.04 234.01 123.02 234.77 115.11 236.18 M 500.10 269.30 C 493.41 272.35 489.19 278.70 485.64 284.86 C 485.44 285.40 485.04 286.47 484.84 287.00 C 484.50 288.29 484.19 289.58 483.81 290.86 C 483.28 292.95 482.70 295.02 482.26 297.13 C 481.76 298.40 481.30 299.68 480.83 300.96 C 480.81 301.15 480.78 301.55 480.76 301.74 C 479.75 304.04 478.68 306.36 478.33 308.88 C 477.58 313.86 476.08 318.81 476.81 323.90 C 478.60 329.08 477.15 334.64 477.41 339.98 C 477.72 343.21 475.48 346.71 477.93 349.52 C 478.52 349.05 479.12 348.59 479.72 348.13 C 479.75 343.44 479.15 338.70 480.08 334.06 C 480.49 331.71 480.35 329.32 480.23 326.96 C 479.62 325.03 479.34 323.03 479.13 321.04 C 482.39 321.44 485.46 322.89 488.04 324.89 C 485.73 327.51 485.31 330.86 484.66 334.15 L 484.76 334.37 C 484.26 338.51 484.22 342.80 485.26 346.88 C 485.66 348.36 486.18 351.01 488.36 350.49 C 488.69 348.92 488.56 347.38 487.97 345.87 C 487.36 343.02 487.87 340.15 488.29 337.32 C 488.48 334.96 489.39 332.62 491.09 330.93 C 492.86 329.88 494.91 329.49 496.94 329.21 C 498.64 331.90 501.36 333.88 502.43 336.96 C 504.60 341.99 506.95 347.83 504.58 353.20 L 504.77 353.68 C 502.99 356.27 502.29 359.85 499.14 361.20 C 495.07 363.21 490.62 364.36 486.46 366.19 C 481.64 367.63 477.93 371.12 474.08 374.16 C 472.76 375.06 472.60 376.58 473.13 377.99 C 472.26 379.73 472.05 381.64 472.35 383.55 C 472.77 383.44 473.60 383.22 474.01 383.11 C 476.78 377.80 481.83 373.60 487.90 372.88 C 492.41 372.27 496.40 369.85 500.07 367.28 C 503.80 365.16 504.39 360.54 505.98 356.94 C 506.30 355.97 506.63 355.01 506.96 354.05 C 507.91 350.15 507.75 346.00 506.99 342.08 C 504.32 333.98 499.11 325.91 490.54 323.27 C 487.68 321.41 483.81 320.66 482.02 317.51 C 483.46 317.35 484.58 316.32 485.84 315.71 C 487.05 316.04 488.51 316.75 489.53 315.55 C 492.11 313.44 494.73 311.36 497.53 309.55 C 502.19 306.60 506.15 302.72 510.80 299.75 C 515.37 298.15 520.17 297.25 525.03 297.58 C 529.80 297.29 534.92 298.83 537.58 303.06 C 537.76 306.99 539.64 311.06 537.83 314.87 C 536.39 318.97 535.20 323.18 534.18 327.41 L 533.75 327.37 C 532.79 336.01 531.18 344.64 531.71 353.36 C 531.38 354.53 531.12 355.72 530.79 356.89 C 530.63 358.05 530.48 359.21 530.33 360.38 C 527.31 365.29 525.23 370.91 520.71 374.72 C 517.88 377.29 514.24 381.79 510.02 379.29 C 509.02 380.17 508.06 381.08 507.13 382.03 C 507.59 382.57 508.50 383.66 508.96 384.20 C 512.97 385.06 517.29 383.78 520.73 381.69 C 526.22 375.43 532.49 368.68 533.49 360.05 C 534.40 358.11 534.81 356.00 535.22 353.91 C 536.92 344.24 538.76 334.42 538.18 324.57 C 539.14 321.38 539.77 318.09 541.15 315.04 C 541.69 313.65 542.26 312.27 542.83 310.89 C 544.61 306.31 544.50 301.44 543.21 296.76 C 542.18 294.09 541.15 291.42 540.19 288.74 C 539.41 286.50 538.64 284.27 537.91 282.03 C 536.20 277.52 533.08 273.33 528.61 271.26 C 525.55 270.01 523.49 266.49 519.95 266.63 C 513.27 266.64 506.17 265.89 500.10 269.30 M 91.00 269.00 C 90.98 273.68 90.84 278.37 91.47 283.02 C 91.92 287.13 90.50 291.67 92.87 295.39 C 94.44 297.85 96.33 300.14 97.38 302.90 C 97.92 306.63 96.88 310.56 98.40 314.15 C 99.36 316.83 99.82 319.64 100.29 322.44 C 102.74 324.84 102.40 328.76 104.87 331.13 C 104.31 328.20 103.09 325.46 102.01 322.70 C 101.39 319.36 100.04 316.23 98.98 313.03 C 97.53 309.16 99.59 304.71 97.44 301.04 C 96.03 297.56 92.41 295.04 92.49 291.01 C 92.70 283.66 91.68 276.35 92.00 269.00 L 91.00 269.00 M 152.92 294.35 C 141.97 295.06 132.60 301.95 121.66 302.76 C 120.34 303.40 119.02 304.05 117.70 304.70 C 116.98 306.10 116.27 307.51 115.54 308.92 C 115.51 310.66 115.50 312.40 115.52 314.15 C 117.21 317.28 119.82 319.68 122.87 321.47 C 125.60 321.76 128.36 321.71 131.00 320.93 C 136.60 322.83 142.37 319.91 148.02 321.52 C 153.03 318.59 158.51 316.57 164.02 314.81 C 170.63 310.34 179.08 307.71 186.95 310.10 C 192.16 311.59 197.61 311.63 202.98 311.66 C 207.29 311.83 211.74 310.90 215.94 312.18 C 222.26 312.69 228.63 312.67 234.96 312.58 C 236.90 312.47 237.13 309.73 239.06 309.55 C 241.14 308.82 244.44 308.87 243.60 305.72 C 238.01 305.96 232.48 304.62 227.22 302.83 C 218.38 298.58 209.22 294.59 199.38 293.50 C 190.25 290.75 180.63 294.10 171.45 291.76 C 165.03 290.14 159.21 294.00 152.92 294.35 M 454.30 323.15 C 454.29 323.66 454.26 324.69 454.24 325.21 C 456.49 325.91 458.50 327.16 459.84 329.16 C 462.04 332.17 465.69 334.85 465.58 338.94 C 466.94 347.51 466.69 356.92 471.85 364.34 C 472.76 364.36 474.58 364.41 475.49 364.43 C 476.02 359.43 473.76 354.78 473.15 349.90 C 472.58 345.38 469.99 341.33 470.22 336.68 C 469.63 336.56 468.45 336.32 467.85 336.20 C 465.05 331.73 461.70 327.59 457.87 323.95 C 456.68 323.67 455.49 323.40 454.30 323.15 M 158.46 326.19 C 160.73 328.81 162.13 332.07 164.57 334.56 C 165.06 334.63 166.04 334.78 166.53 334.86 C 164.03 335.30 161.50 335.55 158.98 335.91 C 156.92 336.87 154.77 336.10 152.75 335.49 C 150.93 336.02 152.82 338.19 153.92 338.28 C 158.42 339.08 162.88 337.57 167.15 336.31 C 170.02 334.28 173.47 334.38 176.81 334.45 C 176.34 334.84 175.41 335.62 174.94 336.02 C 176.64 340.13 178.57 344.14 180.63 348.08 C 181.68 349.95 182.26 352.65 184.91 352.66 C 184.25 352.67 182.94 352.69 182.29 352.70 C 182.75 353.89 183.32 355.04 184.00 356.14 C 189.77 357.34 196.85 356.17 200.79 351.41 C 198.00 352.52 194.95 352.58 192.02 352.93 C 192.99 352.11 194.92 350.46 195.89 349.63 C 200.89 347.00 204.39 342.10 209.62 339.70 C 212.46 338.07 215.32 336.47 218.37 335.26 C 218.51 334.98 218.78 334.41 218.92 334.13 C 223.54 335.07 227.55 337.67 231.88 339.35 C 238.91 340.09 245.46 336.90 252.35 336.18 C 252.52 335.52 252.87 334.22 253.04 333.57 C 246.00 334.12 239.30 337.76 232.16 336.43 C 228.04 335.11 224.17 333.15 220.11 331.69 C 213.37 328.13 205.31 327.45 198.00 329.28 C 194.02 329.68 189.95 329.18 186.05 330.20 C 184.99 330.39 183.93 330.59 182.88 330.80 C 178.87 332.71 174.23 332.96 169.94 331.98 C 165.39 333.40 162.74 328.14 159.67 325.72 C 159.37 325.84 158.76 326.07 158.46 326.19 M 106.69 329.86 C 105.35 332.01 108.64 332.59 110.05 332.48 C 116.48 332.56 122.56 336.59 125.65 342.16 C 127.48 344.74 128.95 348.68 132.60 348.85 C 129.63 341.69 125.54 334.28 118.28 330.72 C 114.50 330.42 110.02 326.51 106.69 329.86 M 171.72 334.70 C 171.58 337.71 172.08 341.24 169.49 343.42 C 167.82 345.65 164.92 345.62 162.41 345.73 C 162.56 346.53 162.73 347.33 162.93 348.13 C 167.68 349.26 171.61 345.42 173.96 341.75 C 173.78 345.04 173.34 348.32 172.57 351.53 C 173.45 351.53 174.33 351.52 175.22 351.53 C 175.86 347.89 176.64 344.26 176.84 340.57 C 175.86 340.39 174.88 340.30 173.90 340.20 C 174.76 338.89 174.86 337.57 174.21 336.26 L 174.62 335.00 C 173.90 334.92 172.45 334.78 171.72 334.70 M 225.46 344.62 C 222.48 347.08 217.86 347.60 216.24 351.51 C 220.51 350.64 224.28 348.24 227.82 345.79 C 229.79 344.24 232.14 342.80 232.98 340.28 C 229.76 340.07 228.00 343.21 225.46 344.62 M 486.97 403.62 C 485.36 405.28 483.36 406.52 481.85 408.28 C 479.82 408.25 477.82 407.91 475.89 407.32 C 473.55 405.69 470.67 405.56 468.01 404.85 C 464.79 404.41 461.34 403.96 458.40 405.68 C 458.32 406.70 458.25 407.72 458.18 408.75 C 458.91 408.67 460.36 408.52 461.08 408.44 C 464.24 410.83 468.39 410.43 472.08 411.18 C 475.67 411.48 479.88 412.40 482.94 409.91 C 485.18 408.06 488.27 406.61 488.95 403.51 C 488.45 403.54 487.47 403.59 486.97 403.62 M 103.15 448.13 C 100.72 449.78 98.74 452.02 96.16 453.46 C 94.03 455.34 92.39 458.07 92.48 461.00 C 95.47 463.66 99.19 465.27 103.25 464.48 C 105.82 462.29 108.00 459.69 110.70 457.64 C 112.81 457.35 114.93 457.08 117.05 456.81 C 121.53 458.43 126.35 458.07 130.90 459.20 C 135.39 459.54 139.99 459.75 144.33 458.29 C 144.86 456.87 145.64 455.43 145.30 453.87 C 143.99 450.44 139.80 451.49 136.97 450.79 C 132.10 451.30 128.94 446.18 124.10 446.63 C 121.10 446.67 118.10 446.80 115.10 446.94 C 111.11 447.28 106.85 446.08 103.15 448.13 M 230.04 449.70 C 231.80 453.06 234.68 455.58 237.07 458.47 C 243.73 467.45 247.91 477.96 250.59 488.75 C 250.81 488.67 251.25 488.49 251.47 488.40 C 249.69 482.59 248.59 476.49 245.62 471.11 C 241.85 463.10 236.95 455.27 230.04 449.70 M 169.92 464.45 C 171.69 467.23 174.66 468.81 176.98 471.05 C 178.83 472.54 180.50 474.51 182.92 475.04 C 179.32 471.09 174.31 468.52 171.20 464.16 C 170.88 464.23 170.24 464.38 169.92 464.45 M 101.67 486.99 C 101.01 493.64 101.91 500.38 100.51 506.99 C 99.72 508.71 101.87 510.58 103.35 509.34 C 105.76 504.27 105.67 498.49 105.38 493.02 C 105.17 490.39 105.88 487.57 104.59 485.13 C 103.86 485.60 102.40 486.52 101.67 486.99 M 195.30 491.98 C 197.08 497.11 200.89 501.13 203.44 505.86 C 207.84 513.31 210.60 521.60 212.66 529.97 C 213.19 531.65 213.51 533.55 214.95 534.76 C 212.08 522.80 208.52 510.71 201.30 500.56 C 199.11 497.83 198.03 494.25 195.30 491.98 M 108.45 499.60 C 107.89 502.59 107.92 506.05 109.85 508.58 C 110.27 508.27 111.13 507.65 111.55 507.33 C 111.56 504.68 111.12 502.06 110.35 499.53 C 109.88 499.54 108.93 499.58 108.45 499.60 M 485.77 570.56 C 486.18 572.55 486.82 574.53 487.92 576.27 C 493.64 584.88 500.24 593.07 508.47 599.42 C 514.09 603.44 519.15 608.16 524.71 612.27 C 532.37 618.24 538.71 625.66 545.43 632.62 C 552.07 638.31 557.76 645.02 564.65 650.43 C 570.80 655.72 577.96 659.60 585.04 663.46 C 593.90 668.75 602.40 674.60 611.17 680.02 C 617.60 684.87 623.98 689.95 631.03 693.84 C 628.41 690.72 624.74 688.78 621.44 686.49 C 617.25 683.82 613.72 680.24 609.42 677.73 C 603.61 674.21 598.00 670.35 592.23 666.76 C 583.48 660.91 573.54 656.87 565.53 649.90 C 558.53 644.44 552.77 637.62 546.05 631.86 C 538.80 624.33 531.93 616.29 523.45 610.08 C 519.17 606.84 515.23 603.19 510.90 600.03 C 501.94 593.60 494.84 584.94 488.80 575.80 C 487.64 574.12 487.61 571.68 485.77 570.56 M 220.95 587.96 C 215.66 597.36 211.76 608.09 203.39 615.32 C 197.31 619.26 190.37 622.25 183.19 623.38 C 183.60 623.61 184.41 624.07 184.82 624.30 C 191.27 622.48 197.72 620.19 203.36 616.49 C 210.98 610.51 214.91 601.32 219.35 593.00 C 221.19 587.87 225.45 584.30 228.28 579.82 C 225.17 581.85 223.02 584.96 220.95 587.96 M 381.51 673.72 C 378.67 676.08 375.12 677.29 372.06 679.30 C 369.40 680.99 366.83 682.80 364.07 684.31 C 356.50 688.05 349.74 693.94 341.09 695.03 C 338.33 695.74 333.64 696.27 333.79 700.00 L 334.78 700.00 C 334.74 697.17 338.04 696.96 340.08 696.24 C 349.63 695.18 357.12 688.74 365.44 684.60 C 369.90 681.91 374.12 678.80 378.89 676.65 C 382.46 674.20 386.12 671.67 388.88 668.29 C 386.05 669.54 383.98 671.92 381.51 673.72 M 458.96 710.08 C 449.65 713.59 439.83 715.73 430.85 720.10 C 427.26 721.67 424.12 724.09 420.51 725.64 C 417.92 726.68 415.86 728.87 413.00 729.24 L 413.00 730.23 C 415.73 730.14 417.58 727.94 419.98 726.95 C 425.09 724.61 429.64 721.20 434.94 719.26 C 446.87 714.60 459.44 711.69 471.03 706.14 C 471.39 705.81 472.11 705.15 472.46 704.82 C 467.80 706.15 463.58 708.65 458.96 710.08 M 294.89 718.74 C 295.94 719.87 297.00 721.15 298.53 721.67 C 306.83 725.03 312.68 732.14 319.97 737.07 C 326.37 741.23 331.93 746.48 337.78 751.34 C 340.71 753.71 342.40 757.19 343.82 760.61 C 344.27 760.58 345.17 760.53 345.62 760.51 C 345.51 756.59 342.92 753.34 340.48 750.51 C 334.57 745.72 329.10 740.38 322.77 736.12 C 315.13 731.27 309.19 724.01 300.93 720.08 C 298.99 719.33 297.04 717.52 294.89 718.74 M 300.09 747.78 C 305.61 751.06 311.18 754.37 317.14 756.79 C 322.28 759.01 326.59 762.68 330.74 766.36 C 332.70 767.97 334.61 770.27 337.46 769.66 C 337.35 769.29 337.14 768.56 337.03 768.19 C 330.86 764.09 325.90 758.20 319.04 755.14 C 312.04 752.31 305.59 748.33 299.08 744.57 C 295.98 744.29 298.00 748.16 300.09 747.78 M 407.65 757.74 C 401.61 761.12 394.60 761.59 387.99 763.17 L 388.01 764.21 C 393.38 762.77 398.99 762.20 404.20 760.24 C 409.01 758.03 413.99 756.28 418.93 754.40 C 420.19 753.86 421.66 753.46 422.38 752.16 C 417.50 754.09 412.52 755.79 407.65 757.74 M 411.66 775.30 C 413.05 774.54 414.19 773.00 415.92 773.05 C 421.65 772.94 427.46 772.62 433.08 773.97 C 449.20 777.17 465.70 777.08 481.92 779.63 C 493.81 781.61 506.54 783.93 518.14 779.35 C 521.46 777.92 525.44 778.22 528.45 776.07 C 521.96 776.39 516.07 779.38 509.79 780.65 C 495.73 782.56 481.99 777.75 468.03 777.07 C 457.03 775.91 445.95 775.42 435.08 773.20 C 428.42 771.80 421.59 771.76 414.83 772.13 C 413.26 772.45 411.87 773.61 411.66 775.30 Z" />
<path fill="#ffffff" opacity="1.00" d=" M 183.52 2.10 C 184.15 1.31 186.58 0.38 186.88 1.76 C 186.24 2.53 183.79 3.59 183.52 2.10 Z" />
<path fill="#ffffff" opacity="1.00" d=" M 174.70 3.62 C 177.19 3.45 179.69 3.06 182.19 3.30 C 180.23 3.87 178.17 3.83 176.16 3.98 C 175.62 5.10 175.08 6.21 174.51 7.31 C 174.61 6.08 174.67 4.85 174.70 3.62 Z" />
<path fill="#ffffff" opacity="1.00" d=" M 169.91 7.52 C 170.91 7.38 171.91 7.23 172.92 7.09 L 172.83 7.79 C 172.14 7.82 170.75 7.88 170.06 7.92 C 168.27 10.61 164.73 11.52 161.70 11.91 C 164.44 10.46 168.26 10.52 169.91 7.52 Z" />
<path fill="#494949" opacity="1.00" d=" M 536.06 9.48 C 537.41 9.68 537.65 10.39 536.79 11.60 C 535.43 11.40 535.18 10.69 536.06 9.48 Z" />
<path fill="#737373" opacity="1.00" d=" M 160.13 12.22 C 160.67 12.78 160.67 12.78 160.13 12.22 Z" />
<path fill="#7d7d7d" opacity="1.00" d=" M 156.16 13.10 C 159.20 11.55 156.37 16.35 156.16 13.10 Z" />
<path fill="#898989" opacity="1.00" d=" M 153.00 15.22 C 153.57 15.78 153.57 15.78 153.00 15.22 Z" />
<path fill="#868686" opacity="1.00" d=" M 149.55 16.06 C 152.60 14.46 149.83 19.30 149.55 16.06 Z" />
<path fill="#8e8e8e" opacity="1.00" d=" M 147.24 17.20 C 147.83 17.76 147.83 17.76 147.24 17.20 Z" />
<path fill="#686868" opacity="1.00" d=" M 145.26 18.13 C 145.79 18.67 145.79 18.67 145.26 18.13 Z" />
<path fill="#474747" opacity="1.00" d=" M 569.30 31.00 C 571.07 31.02 570.34 33.75 568.93 33.77 C 567.17 33.72 567.86 31.01 569.30 31.00 Z" />
<path fill="#393939" opacity="1.00" d=" M 572.09 34.14 C 575.42 34.29 570.54 37.11 572.09 34.14 Z" />
<path fill="#383838" opacity="1.00" d=" M 581.79 46.44 C 582.44 46.46 583.74 46.52 584.39 46.54 C 583.98 48.42 583.49 50.29 582.89 52.12 C 581.65 50.47 580.45 48.81 579.29 47.11 C 580.11 46.89 580.95 46.67 581.79 46.44 Z" />
<path fill="#373737" opacity="1.00" d=" M 83.06 74.02 C 84.07 75.52 85.06 77.02 86.03 78.54 C 83.43 77.77 80.72 77.38 78.01 77.57 C 73.90 77.83 69.86 76.46 65.77 77.08 C 71.78 75.72 78.13 74.96 84.16 76.68 C 83.88 76.01 83.34 74.69 83.06 74.02 Z" />
<path fill="#464646" opacity="1.00" d=" M 232.91 93.71 C 235.45 93.64 237.98 93.29 240.50 92.93 C 239.62 93.66 238.74 94.39 237.87 95.12 C 239.56 94.58 241.25 94.01 242.96 93.50 C 243.48 93.77 244.54 94.32 245.07 94.59 C 242.80 95.34 240.55 96.10 238.29 96.87 C 237.92 96.47 237.17 95.68 236.79 95.29 C 235.12 95.59 233.45 95.90 231.78 96.20 C 232.06 95.58 232.63 94.33 232.91 93.71 Z" />
<path fill="#101010" opacity="1.00" d=" M 242.96 93.50 C 248.17 93.36 253.30 94.73 258.44 95.47 C 258.45 96.58 258.46 97.69 258.47 98.80 C 250.87 96.92 243.03 98.04 235.31 97.70 C 231.93 97.59 228.63 96.80 225.29 96.39 C 227.22 94.10 230.02 93.49 232.91 93.71 C 232.63 94.33 232.06 95.58 231.78 96.20 C 233.45 95.90 235.12 95.59 236.79 95.29 C 237.17 95.68 237.92 96.47 238.29 96.87 C 240.55 96.10 242.80 95.34 245.07 94.59 C 244.54 94.32 243.48 93.77 242.96 93.50 Z" />
<path fill="#161616" opacity="1.00" d=" M 193.02 97.21 C 198.16 95.64 203.48 94.50 208.88 94.48 C 207.70 96.17 206.53 97.86 205.37 99.55 C 203.11 99.92 200.87 100.37 198.61 100.70 C 195.83 100.38 193.07 99.94 190.29 99.68 C 189.81 99.30 188.85 98.53 188.38 98.14 C 188.29 95.79 191.58 97.58 193.02 97.21 Z" />
<path fill="#0f0f0f" opacity="1.00" d=" M 210.90 97.78 C 211.91 97.15 212.90 96.44 213.99 95.95 C 217.76 96.10 221.52 96.47 225.29 96.39 C 228.63 96.80 231.93 97.59 235.31 97.70 C 243.03 98.04 250.87 96.92 258.47 98.80 C 258.46 97.69 258.45 96.58 258.44 95.47 C 258.91 95.61 259.85 95.87 260.32 96.01 C 260.89 97.66 262.08 99.14 263.90 99.43 C 267.22 100.13 270.21 101.74 272.85 103.84 C 269.82 103.24 266.71 103.53 263.64 103.44 C 263.65 102.80 263.67 101.52 263.69 100.89 C 263.02 100.46 261.69 99.60 261.02 99.17 C 259.31 99.33 257.61 99.49 255.91 99.65 C 255.55 99.36 254.81 98.76 254.45 98.47 C 248.32 98.55 242.19 98.40 236.08 98.91 C 232.09 98.20 227.98 96.98 223.93 98.01 C 219.65 97.40 215.17 96.89 210.90 97.78 Z" />
<path fill="#8e8e8e" opacity="1.00" d=" M 190.29 99.68 C 193.07 99.94 195.83 100.38 198.61 100.70 C 198.23 100.81 197.48 101.02 197.10 101.12 C 194.28 101.18 191.48 100.73 188.66 100.68 C 189.07 100.43 189.88 99.93 190.29 99.68 Z" />
<path fill="#ffffff" opacity="1.00" d=" M 151.77 104.76 C 152.29 102.59 154.29 101.51 155.93 100.25 C 156.71 100.27 158.27 100.30 159.04 100.32 C 157.14 101.40 155.24 102.59 154.06 104.51 C 153.49 104.57 152.34 104.70 151.77 104.76 Z" />
<path fill="#ffffff" opacity="1.00" d=" M 114.71 105.17 C 115.44 104.47 116.18 103.77 116.93 103.10 C 115.69 105.05 114.02 106.68 112.30 108.21 C 112.39 107.58 112.56 106.31 112.65 105.67 C 113.16 105.55 114.20 105.30 114.71 105.17 Z" />
<path fill="#ffffff" opacity="1.00" d=" M 123.98 104.41 C 123.11 105.45 122.23 106.49 121.37 107.54 L 120.69 107.49 C 120.58 109.10 120.29 110.70 119.57 112.15 C 119.53 110.60 119.43 109.04 119.68 107.51 C 120.88 106.19 122.54 105.43 123.98 104.41 Z" />
<path fill="#111111" opacity="1.00" d=" M 97.45 116.18 C 98.49 113.04 100.11 110.12 102.53 107.84 C 103.40 108.72 104.27 109.60 105.15 110.47 C 105.00 112.63 104.15 114.20 101.71 113.94 C 99.90 116.98 97.68 119.73 95.23 122.27 C 94.74 121.68 93.78 120.51 93.30 119.92 C 94.59 118.80 95.90 117.68 97.19 116.55 L 97.36 116.41 L 97.45 116.18 Z" />
<path fill="#545454" opacity="1.00" d=" M 97.19 116.55 C 97.26 116.46 97.39 116.27 97.45 116.18 L 97.36 116.41 L 97.19 116.55 Z" />
<path fill="#373737" opacity="1.00" d=" M 287.84 125.86 C 287.68 125.19 287.52 124.52 287.36 123.86 C 288.86 124.76 290.41 125.60 291.98 126.40 C 291.94 128.60 291.86 130.81 291.84 133.01 C 291.50 140.28 294.54 147.10 295.01 154.29 C 293.04 146.90 290.84 139.53 290.75 131.81 C 288.40 131.24 287.39 128.93 289.86 127.68 C 290.05 126.58 289.38 125.97 287.84 125.86 Z" />
<path fill="#111111" opacity="1.00" d=" M 105.59 128.10 C 105.90 128.15 106.51 128.27 106.82 128.33 C 104.14 137.82 100.31 147.14 99.84 157.10 C 99.21 167.25 96.76 177.12 94.66 187.02 C 94.07 199.71 94.33 212.91 99.23 224.83 C 100.40 227.28 98.29 229.83 96.88 231.73 C 97.22 229.82 97.88 228.00 98.63 226.22 C 96.63 220.67 94.76 214.98 94.39 209.06 C 93.44 199.75 92.55 190.13 95.01 180.98 C 97.07 172.45 98.29 163.73 99.00 154.99 C 99.74 145.70 103.80 137.15 105.59 128.10 Z" />
<path fill="#3c3c3c" opacity="1.00" d=" M 632.17 177.10 C 633.66 177.82 633.55 180.26 632.88 181.55 C 631.64 181.02 630.67 177.91 632.17 177.10 Z" />
<path fill="#111111" opacity="1.00" d=" M 64.91 196.98 C 64.78 194.60 65.46 192.32 66.26 190.11 C 66.47 193.06 66.50 196.02 66.87 198.95 C 67.99 206.88 67.01 214.91 66.15 222.80 C 64.32 228.13 62.59 233.49 60.94 238.88 C 59.34 244.96 58.01 251.16 55.66 257.02 C 55.37 264.34 55.66 271.67 55.47 278.99 C 55.79 286.61 51.73 293.46 50.69 300.87 C 50.60 308.04 49.43 315.12 48.68 322.23 C 50.64 323.96 52.60 325.72 54.16 327.83 C 53.71 328.13 52.80 328.72 52.35 329.01 C 50.55 327.04 48.36 325.44 46.68 323.37 C 46.10 318.50 47.07 313.62 48.02 308.86 C 48.81 305.03 48.00 301.03 49.09 297.24 C 50.31 292.66 51.87 288.18 52.91 283.56 C 53.66 280.74 52.30 277.84 53.05 275.00 C 54.36 267.37 52.02 259.34 54.95 251.97 C 57.15 245.37 58.36 238.49 60.73 231.95 C 62.32 226.28 65.23 220.82 64.48 214.75 C 64.65 214.57 64.99 214.19 65.17 214.00 C 64.87 208.33 65.01 202.65 64.91 196.98 Z" />
<path fill="#434343" opacity="1.00" d=" M 328.17 196.29 C 328.97 195.16 331.84 196.00 330.56 197.47 C 329.75 198.61 326.90 197.77 328.17 196.29 Z" />
<path fill="#232323" opacity="1.00" d=" M 339.81 200.35 C 342.41 202.36 342.65 205.40 341.68 208.35 C 342.36 209.49 343.04 210.64 343.73 211.78 C 343.85 210.89 344.08 209.10 344.19 208.21 C 346.71 212.24 348.43 216.67 350.07 221.11 C 351.52 225.12 354.10 228.59 355.63 232.57 C 353.95 232.15 352.15 231.88 350.74 230.81 C 351.29 225.22 348.34 220.36 347.20 215.04 C 346.55 215.40 345.25 216.11 344.60 216.47 C 343.49 214.78 342.68 212.93 342.10 210.99 C 338.00 209.07 339.76 203.92 339.81 200.35 Z" />
<path fill="#585858" opacity="1.00" d=" M 636.55 224.50 C 639.08 229.64 635.85 235.08 636.30 240.43 C 635.51 239.45 634.74 238.48 633.95 237.52 C 636.94 233.84 636.82 228.97 636.55 224.50 Z" />
<path fill="#141414" opacity="1.00" d=" M 92.89 231.74 C 93.55 231.54 94.88 231.15 95.55 230.95 C 92.53 243.89 83.44 254.22 79.94 266.98 C 78.83 273.27 78.34 279.66 78.55 286.05 C 78.28 286.22 77.73 286.56 77.46 286.73 C 77.68 287.86 77.90 288.99 78.14 290.12 C 77.40 288.52 76.54 286.88 76.51 285.07 C 76.25 279.00 76.35 272.86 77.61 266.89 C 80.67 254.32 89.67 244.26 92.89 231.74 Z" />
<path fill="#1b1b1b" opacity="1.00" d=" M 115.11 236.18 C 123.02 234.77 131.04 234.01 138.97 232.75 C 145.64 232.73 152.38 232.23 158.99 233.33 C 163.29 233.76 167.71 233.26 171.92 234.47 C 177.22 235.61 182.25 237.73 187.58 238.76 C 187.62 239.28 187.69 240.32 187.73 240.84 C 180.91 240.53 174.85 236.55 168.00 236.37 C 156.40 235.10 144.63 234.86 133.00 235.82 C 128.69 236.83 124.26 237.22 119.86 237.71 C 112.73 238.83 105.66 240.45 98.44 240.87 C 98.57 240.36 98.82 239.35 98.94 238.84 C 104.30 237.79 109.71 236.98 115.11 236.18 Z" />
<path fill="#272727" opacity="1.00" d=" M 372.40 263.88 C 372.67 264.27 373.21 265.04 373.48 265.43 C 373.08 266.27 372.67 267.10 372.24 267.93 C 373.12 273.88 376.87 279.39 375.27 285.59 C 372.43 283.38 373.21 279.21 372.00 276.13 C 371.65 280.20 371.50 284.29 371.39 288.38 C 370.64 288.88 369.89 289.38 369.15 289.89 C 369.12 287.83 369.16 285.76 369.26 283.70 C 368.41 283.27 367.56 282.82 366.73 282.37 C 366.87 281.71 367.14 280.39 367.28 279.73 C 368.92 281.49 370.14 283.57 370.77 285.91 C 370.75 278.52 369.20 270.87 372.40 263.88 Z" />
<path fill="#000000" opacity="1.00" d=" M 500.10 269.30 C 506.17 265.89 513.27 266.64 519.95 266.63 C 523.49 266.49 525.55 270.01 528.61 271.26 C 533.08 273.33 536.20 277.52 537.91 282.03 C 538.64 284.27 539.41 286.50 540.19 288.74 C 541.15 291.42 542.18 294.09 543.21 296.76 C 544.50 301.44 544.61 306.31 542.83 310.89 C 542.26 312.27 541.69 313.65 541.15 315.04 C 539.77 318.09 539.14 321.38 538.18 324.57 C 537.65 325.58 537.10 326.58 536.55 327.59 C 535.76 327.52 534.96 327.46 534.18 327.41 C 535.20 323.18 536.39 318.97 537.83 314.87 C 539.64 311.06 537.76 306.99 537.58 303.06 C 538.61 298.54 533.79 296.28 530.01 296.87 C 523.61 297.51 516.22 295.26 510.80 299.75 C 506.15 302.72 502.19 306.60 497.53 309.55 C 494.73 311.36 492.11 313.44 489.53 315.55 C 488.51 316.75 487.05 316.04 485.84 315.71 C 484.58 316.32 483.46 317.35 482.02 317.51 C 480.64 317.24 479.27 316.95 477.91 316.65 C 478.24 311.56 480.24 306.79 480.76 301.74 C 480.78 301.55 480.81 301.15 480.83 300.96 C 481.30 299.68 481.76 298.40 482.26 297.13 C 482.70 295.02 483.28 292.95 483.81 290.86 C 484.19 289.58 484.50 288.29 484.84 287.00 C 485.04 286.47 485.44 285.40 485.64 284.86 C 489.19 278.70 493.41 272.35 500.10 269.30 Z" />
<path fill="#010101" opacity="1.00" d=" M 91.00 269.00 L 92.00 269.00 C 91.68 276.35 92.70 283.66 92.49 291.01 C 92.41 295.04 96.03 297.56 97.44 301.04 C 99.59 304.71 97.53 309.16 98.98 313.03 C 100.04 316.23 101.39 319.36 102.01 322.70 C 103.09 325.46 104.31 328.20 104.87 331.13 C 102.40 328.76 102.74 324.84 100.29 322.44 C 99.82 319.64 99.36 316.83 98.40 314.15 C 96.88 310.56 97.92 306.63 97.38 302.90 C 96.33 300.14 94.44 297.85 92.87 295.39 C 90.50 291.67 91.92 287.13 91.47 283.02 C 90.84 278.37 90.98 273.68 91.00 269.00 Z" />
<path fill="#000000" opacity="1.00" d=" M 69.71 283.96 C 70.32 283.81 71.54 283.52 72.16 283.37 C 72.52 290.41 74.61 297.18 75.87 304.08 C 76.82 309.61 80.73 313.82 83.80 318.28 C 85.14 320.33 87.37 321.48 89.29 322.88 C 85.53 314.21 79.41 306.28 78.05 296.75 C 80.79 300.72 81.66 305.62 84.09 309.78 C 88.19 317.07 91.71 324.72 96.24 331.76 C 97.22 332.00 99.16 332.50 100.13 332.75 C 99.00 329.30 95.65 327.33 94.06 324.15 C 91.35 318.77 88.38 313.51 86.15 307.90 C 83.21 302.09 81.21 295.87 78.14 290.12 C 77.90 288.99 77.68 287.86 77.46 286.73 C 77.73 286.56 78.28 286.22 78.55 286.05 C 84.18 296.83 88.05 308.44 93.92 319.12 C 95.67 323.33 98.42 327.01 101.94 329.92 C 101.89 330.39 101.81 331.33 101.77 331.80 C 101.38 333.75 101.19 336.13 99.10 337.03 C 98.86 336.53 98.38 335.53 98.14 335.03 C 95.80 333.78 93.56 332.31 91.12 331.25 C 83.49 331.42 77.49 336.64 71.02 339.99 C 69.05 340.91 67.55 342.52 66.01 344.02 C 68.78 347.35 73.09 349.19 75.09 353.16 C 79.71 355.36 84.75 353.36 88.65 350.63 C 91.70 347.28 94.15 343.42 96.40 339.50 C 97.07 340.01 97.71 340.56 98.34 341.14 C 98.53 340.21 98.92 338.34 99.11 337.41 C 99.29 340.04 99.16 342.69 98.72 345.30 C 93.66 355.98 84.74 364.42 80.77 375.70 C 77.38 385.73 74.50 396.28 67.79 404.73 C 62.37 411.57 56.88 418.52 53.71 426.76 C 52.32 432.09 50.73 437.55 51.69 443.11 C 52.62 446.28 54.30 449.21 56.49 451.68 C 56.08 452.08 55.25 452.87 54.84 453.27 C 52.55 450.55 51.01 447.34 49.54 444.13 C 49.26 438.72 49.36 433.23 51.18 428.05 C 54.17 416.78 62.82 408.54 69.08 399.09 C 73.09 392.62 75.36 385.27 77.62 378.06 C 78.65 374.61 80.61 371.50 81.47 368.02 C 81.22 364.99 79.81 362.20 78.51 359.51 C 75.68 353.51 69.20 350.80 64.97 345.99 C 63.03 343.68 60.04 342.95 57.49 341.58 C 54.69 337.85 56.04 332.34 52.35 329.01 C 52.80 328.72 53.71 328.13 54.16 327.83 C 54.65 328.45 55.16 329.06 55.70 329.65 C 57.48 328.42 59.00 326.59 61.24 326.26 C 64.93 325.53 68.80 325.70 72.32 324.21 C 75.60 322.80 78.80 321.16 82.25 320.18 C 79.70 315.61 75.72 311.81 74.25 306.68 C 73.37 303.45 72.81 300.14 72.20 296.85 C 71.27 292.57 70.32 288.30 69.71 283.96 Z" />
<path fill="#000000" opacity="1.00" d=" M 152.92 294.35 C 159.21 294.00 165.03 290.14 171.45 291.76 C 180.63 294.10 190.25 290.75 199.38 293.50 C 209.22 294.59 218.38 298.58 227.22 302.83 C 232.48 304.62 238.01 305.96 243.60 305.72 C 244.44 308.87 241.14 308.82 239.06 309.55 C 237.13 309.73 236.90 312.47 234.96 312.58 C 228.63 312.67 222.26 312.69 215.94 312.18 C 211.74 310.90 207.29 311.83 202.98 311.66 C 197.61 311.63 192.16 311.59 186.95 310.10 C 179.08 307.71 170.63 310.34 164.02 314.81 C 158.51 316.57 153.03 318.59 148.02 321.52 C 142.37 319.91 136.60 322.83 131.00 320.93 C 128.36 321.71 125.60 321.76 122.87 321.47 C 119.82 319.68 117.21 317.28 115.52 314.15 C 115.50 312.40 115.51 310.66 115.54 308.92 C 116.27 307.51 116.98 306.10 117.70 304.70 C 119.02 304.05 120.34 303.40 121.66 302.76 C 132.60 301.95 141.97 295.06 152.92 294.35 Z" />
<path fill="#6e6e6e" opacity="1.00" d=" M 386.22 290.92 C 389.56 295.44 386.85 301.44 388.43 306.55 C 389.59 302.04 388.56 297.38 388.95 292.82 C 392.45 296.27 390.36 301.42 390.34 305.70 C 389.81 306.24 388.76 307.30 388.23 307.84 C 387.67 306.35 387.12 304.86 386.67 303.34 C 386.30 299.21 386.01 295.06 386.22 290.92 Z" />
<path fill="#2f2f2f" opacity="1.00" d=" M 530.01 296.87 C 533.79 296.28 538.61 298.54 537.58 303.06 C 534.92 298.83 529.80 297.29 525.03 297.58 C 520.17 297.25 515.37 298.15 510.80 299.75 C 516.22 295.26 523.61 297.51 530.01 296.87 Z" />
<path fill="#2c2c2c" opacity="1.00" d=" M 417.36 300.08 C 419.20 299.21 421.11 298.50 423.01 297.76 C 423.70 298.10 425.07 298.79 425.76 299.13 C 425.75 302.00 423.12 302.35 420.92 302.90 C 420.55 304.55 419.62 305.70 417.80 305.76 C 417.63 303.86 417.49 301.97 417.36 300.08 Z" />
<path fill="#313131" opacity="1.00" d=" M 408.31 305.71 C 409.08 304.20 409.50 301.36 411.61 303.28 C 412.28 302.66 412.96 302.05 413.64 301.44 C 413.18 303.90 412.53 306.31 411.71 308.68 C 411.28 307.49 410.88 306.31 410.49 305.12 C 409.72 308.56 408.69 311.94 407.72 315.33 L 407.23 315.32 C 406.52 313.58 405.86 311.82 405.23 310.05 C 407.63 310.84 407.89 305.86 405.34 306.95 L 405.58 306.53 C 406.48 306.24 407.39 305.96 408.31 305.71 Z" />
<path fill="#222222" opacity="1.00" d=" M 480.76 301.74 C 480.24 306.79 478.24 311.56 477.91 316.65 C 479.27 316.95 480.64 317.24 482.02 317.51 C 483.81 320.66 487.68 321.41 490.54 323.27 C 489.24 326.28 487.42 329.03 486.00 331.98 C 486.29 333.92 487.42 335.59 488.29 337.32 C 487.87 340.15 487.36 343.02 487.97 345.87 C 487.13 341.97 486.75 337.90 484.76 334.37 L 484.66 334.15 C 485.31 330.86 485.73 327.51 488.04 324.89 C 485.46 322.89 482.39 321.44 479.13 321.04 C 479.34 323.03 479.62 325.03 480.23 326.96 C 480.35 329.32 480.49 331.71 480.08 334.06 C 479.15 338.70 479.75 343.44 479.72 348.13 C 479.12 348.59 478.52 349.05 477.93 349.52 C 475.48 346.71 477.72 343.21 477.41 339.98 C 477.15 334.64 478.60 329.08 476.81 323.90 C 476.08 318.81 477.58 313.86 478.33 308.88 C 478.68 306.36 479.75 304.04 480.76 301.74 Z" />
<path fill="#505050" opacity="1.00" d=" M 403.05 306.33 C 404.40 306.70 404.34 310.32 402.96 310.67 C 402.17 309.41 402.26 307.56 403.05 306.33 Z" />
<path fill="#787878" opacity="1.00" d=" M 405.34 306.95 C 407.89 305.86 407.63 310.84 405.23 310.05 C 405.26 309.28 405.31 307.72 405.34 306.95 Z" />
<path fill="#050505" opacity="1.00" d=" M 454.30 323.15 C 455.49 323.40 456.68 323.67 457.87 323.95 C 461.70 327.59 465.05 331.73 467.85 336.20 C 468.45 336.32 469.63 336.56 470.22 336.68 C 469.99 341.33 472.58 345.38 473.15 349.90 C 473.76 354.78 476.02 359.43 475.49 364.43 C 474.58 364.41 472.76 364.36 471.85 364.34 C 466.69 356.92 466.94 347.51 465.58 338.94 C 465.69 334.85 462.04 332.17 459.84 329.16 C 458.50 327.16 456.49 325.91 454.24 325.21 C 454.26 324.69 454.29 323.66 454.30 323.15 Z" />
<path fill="#0d0d0d" opacity="1.00" d=" M 490.54 323.27 C 499.11 325.91 504.32 333.98 506.99 342.08 C 507.75 346.00 507.91 350.15 506.96 354.05 C 506.63 355.01 506.30 355.97 505.98 356.94 C 505.59 355.84 505.18 354.76 504.77 353.68 L 504.58 353.20 C 506.95 347.83 504.60 341.99 502.43 336.96 C 501.36 333.88 498.64 331.90 496.94 329.21 C 494.91 329.49 492.86 329.88 491.09 330.93 C 489.39 332.62 488.48 334.96 488.29 337.32 C 487.42 335.59 486.29 333.92 486.00 331.98 C 487.42 329.03 489.24 326.28 490.54 323.27 Z" />
<path fill="#000000" opacity="1.00" d=" M 158.46 326.19 C 158.76 326.07 159.37 325.84 159.67 325.72 C 162.74 328.14 165.39 333.40 169.94 331.98 C 174.23 332.96 178.87 332.71 182.88 330.80 C 183.93 330.59 184.99 330.39 186.05 330.20 C 189.95 329.18 194.02 329.68 198.00 329.28 C 205.31 327.45 213.37 328.13 220.11 331.69 C 219.81 332.30 219.22 333.52 218.92 334.13 C 218.78 334.41 218.51 334.98 218.37 335.26 C 215.32 336.47 212.46 338.07 209.62 339.70 C 204.39 342.10 200.89 347.00 195.89 349.63 C 193.40 350.41 191.07 351.63 189.04 353.27 C 190.50 353.77 191.96 354.28 193.42 354.80 C 190.34 355.56 187.18 356.02 184.00 356.14 C 183.32 355.04 182.75 353.89 182.29 352.70 C 182.94 352.69 184.25 352.67 184.91 352.66 C 182.26 352.65 181.68 349.95 180.63 348.08 C 178.57 344.14 176.64 340.13 174.94 336.02 C 175.41 335.62 176.34 334.84 176.81 334.45 C 173.47 334.38 170.02 334.28 167.15 336.31 C 162.88 337.57 158.42 339.08 153.92 338.28 C 152.82 338.19 150.93 336.02 152.75 335.49 C 154.77 336.10 156.92 336.87 158.98 335.91 C 161.50 335.55 164.03 335.30 166.53 334.86 C 166.04 334.78 165.06 334.63 164.57 334.56 C 162.13 332.07 160.73 328.81 158.46 326.19 M 190.93 331.69 C 189.08 332.46 187.05 332.35 185.10 332.51 C 188.55 336.25 190.05 341.42 193.88 344.81 C 200.14 341.68 205.39 336.91 211.71 333.91 C 209.70 332.90 207.70 331.86 205.83 330.60 C 200.83 330.37 195.97 331.99 190.93 331.69 M 180.47 336.52 C 182.45 337.72 183.33 333.51 181.13 333.44 C 179.92 334.17 179.70 335.19 180.47 336.52 Z" />
<path fill="#2f2f2f" opacity="1.00" d=" M 536.55 327.59 C 537.10 326.58 537.65 325.58 538.18 324.57 C 538.76 334.42 536.92 344.24 535.22 353.91 C 534.81 356.00 534.40 358.11 533.49 360.05 C 533.74 356.19 534.39 352.38 534.71 348.53 C 533.57 350.05 532.51 351.64 531.71 353.36 C 531.18 344.64 532.79 336.01 533.75 327.37 L 534.18 327.41 C 534.96 327.46 535.76 327.52 536.55 327.59 M 535.43 330.55 C 534.87 333.43 534.77 336.38 535.26 339.27 C 536.23 336.44 536.16 333.42 535.43 330.55 Z" />
<path fill="#010101" opacity="1.00" d=" M 106.69 329.86 C 110.02 326.51 114.50 330.42 118.28 330.72 C 125.54 334.28 129.63 341.69 132.60 348.85 C 128.95 348.68 127.48 344.74 125.65 342.16 C 122.56 336.59 116.48 332.56 110.05 332.48 C 108.64 332.59 105.35 332.01 106.69 329.86 Z" />
<path fill="#ffffff" opacity="1.00" d=" M 71.02 339.99 C 77.49 336.64 83.49 331.42 91.12 331.25 C 93.56 332.31 95.80 333.78 98.14 335.03 C 98.38 335.53 98.86 336.53 99.10 337.03 C 99.10 337.12 99.11 337.31 99.11 337.41 C 98.92 338.34 98.53 340.21 98.34 341.14 C 97.71 340.56 97.07 340.01 96.40 339.50 C 94.15 343.42 91.70 347.28 88.65 350.63 C 84.75 353.36 79.71 355.36 75.09 353.16 C 73.09 349.19 68.78 347.35 66.01 344.02 C 67.55 342.52 69.05 340.91 71.02 339.99 Z" />
<path fill="#ffffff" opacity="1.00" d=" M 190.93 331.69 C 195.97 331.99 200.83 330.37 205.83 330.60 C 207.70 331.86 209.70 332.90 211.71 333.91 C 205.39 336.91 200.14 341.68 193.88 344.81 C 190.05 341.42 188.55 336.25 185.10 332.51 C 187.05 332.35 189.08 332.46 190.93 331.69 Z" />
<path fill="#585858" opacity="1.00" d=" M 535.43 330.55 C 536.16 333.42 536.23 336.44 535.26 339.27 C 534.77 336.38 534.87 333.43 535.43 330.55 Z" />
<path fill="#686868" opacity="1.00" d=" M 99.10 337.03 C 101.19 336.13 101.38 333.75 101.77 331.80 C 101.56 336.43 101.35 341.28 98.72 345.30 C 99.16 342.69 99.29 340.04 99.11 337.41 C 99.11 337.31 99.10 337.12 99.10 337.03 Z" />
<path fill="#242424" opacity="1.00" d=" M 220.11 331.69 C 224.17 333.15 228.04 335.11 232.16 336.43 C 239.30 337.76 246.00 334.12 253.04 333.57 C 252.87 334.22 252.52 335.52 252.35 336.18 C 245.46 336.90 238.91 340.09 231.88 339.35 C 227.55 337.67 223.54 335.07 218.92 334.13 C 219.22 333.52 219.81 332.30 220.11 331.69 Z" />
<path fill="#ffffff" opacity="1.00" d=" M 180.47 336.52 C 179.70 335.19 179.92 334.17 181.13 333.44 C 183.33 333.51 182.45 337.72 180.47 336.52 Z" />
<path fill="#343434" opacity="1.00" d=" M 171.72 334.70 C 172.45 334.78 173.90 334.92 174.62 335.00 L 174.21 336.26 C 173.37 337.37 172.74 338.85 173.38 340.23 L 173.90 340.20 C 174.88 340.30 175.86 340.39 176.84 340.57 C 176.64 344.26 175.86 347.89 175.22 351.53 C 174.33 351.52 173.45 351.53 172.57 351.53 C 173.34 348.32 173.78 345.04 173.96 341.75 C 171.61 345.42 167.68 349.26 162.93 348.13 C 162.73 347.33 162.56 346.53 162.41 345.73 C 164.92 345.62 167.82 345.65 169.49 343.42 C 172.08 341.24 171.58 337.71 171.72 334.70 Z" />
<path fill="#0b0b0b" opacity="1.00" d=" M 484.76 334.37 C 486.75 337.90 487.13 341.97 487.97 345.87 C 488.56 347.38 488.69 348.92 488.36 350.49 C 486.18 351.01 485.66 348.36 485.26 346.88 C 484.22 342.80 484.26 338.51 484.76 334.37 Z" />
<path fill="#020202" opacity="1.00" d=" M 173.38 340.23 C 172.74 338.85 173.37 337.37 174.21 336.26 C 174.86 337.57 174.76 338.89 173.90 340.20 L 173.38 340.23 Z" />
<path fill="#161616" opacity="1.00" d=" M 225.46 344.62 C 228.00 343.21 229.76 340.07 232.98 340.28 C 232.14 342.80 229.79 344.24 227.82 345.79 C 224.28 348.24 220.51 350.64 216.24 351.51 C 217.86 347.60 222.48 347.08 225.46 344.62 Z" />
<path fill="#1d1d1d" opacity="1.00" d=" M 552.31 348.00 C 553.11 347.19 553.94 346.39 554.77 345.61 C 555.12 347.01 555.45 348.42 555.75 349.85 C 555.59 350.26 555.28 351.09 555.13 351.50 C 552.24 353.90 551.93 357.82 550.67 361.11 C 548.95 365.81 548.61 370.89 546.83 375.57 C 543.81 383.07 541.72 391.07 536.82 397.65 C 532.81 404.79 526.52 410.12 521.78 416.71 C 515.17 425.72 506.83 433.25 498.52 440.64 C 495.17 443.79 490.14 444.28 485.89 443.01 C 478.35 440.42 472.35 434.95 465.19 431.60 C 461.95 430.16 459.54 427.48 456.55 425.67 C 454.13 424.75 452.77 427.36 451.25 428.70 C 451.86 435.40 452.94 442.05 454.03 448.68 C 456.02 456.17 458.80 463.48 460.09 471.16 C 460.37 474.36 460.63 477.59 461.51 480.70 C 460.60 480.58 459.69 480.47 458.78 480.36 C 457.55 474.71 457.85 468.80 455.81 463.32 C 452.50 452.70 449.57 441.85 449.31 430.65 C 448.90 430.27 448.08 429.52 447.67 429.14 C 449.64 423.32 446.43 417.35 445.90 411.49 C 446.43 409.92 446.97 408.34 447.42 406.75 C 448.42 413.02 450.01 419.18 450.77 425.49 C 452.99 422.79 457.49 422.51 459.93 425.06 C 464.14 429.18 469.94 430.88 474.64 434.30 C 479.36 437.36 484.32 440.58 489.99 441.43 C 496.73 441.36 500.53 435.00 505.27 431.19 C 512.60 425.14 518.14 417.40 524.07 410.07 C 531.41 402.15 538.08 393.22 541.52 382.88 C 543.01 378.56 545.04 374.42 546.01 369.94 C 547.23 362.39 550.35 355.36 552.31 348.00 Z" />
<path fill="#010101" opacity="1.00" d=" M 531.71 353.36 C 532.51 351.64 533.57 350.05 534.71 348.53 C 534.39 352.38 533.74 356.19 533.49 360.05 C 532.49 368.68 526.22 375.43 520.73 381.69 C 517.29 383.78 512.97 385.06 508.96 384.20 C 508.50 383.66 507.59 382.57 507.13 382.03 C 508.06 381.08 509.02 380.17 510.02 379.29 C 514.24 381.79 517.88 377.29 520.71 374.72 C 525.23 370.91 527.31 365.29 530.33 360.38 C 530.48 359.21 530.63 358.05 530.79 356.89 C 531.12 355.72 531.38 354.53 531.71 353.36 Z" />
<path fill="#343434" opacity="1.00" d=" M 189.04 353.27 C 191.07 351.63 193.40 350.41 195.89 349.63 C 194.92 350.46 192.99 352.11 192.02 352.93 C 194.95 352.58 198.00 352.52 200.79 351.41 C 196.85 356.17 189.77 357.34 184.00 356.14 C 187.18 356.02 190.34 355.56 193.42 354.80 C 191.96 354.28 190.50 353.77 189.04 353.27 Z" />
<path fill="#000000" opacity="1.00" d=" M 504.77 353.68 C 505.18 354.76 505.59 355.84 505.98 356.94 C 504.39 360.54 503.80 365.16 500.07 367.28 C 496.40 369.85 492.41 372.27 487.90 372.88 C 481.83 373.60 476.78 377.80 474.01 383.11 C 473.60 383.22 472.77 383.44 472.35 383.55 C 472.05 381.64 472.26 379.73 473.13 377.99 C 472.60 376.58 472.76 375.06 474.08 374.16 C 477.93 371.12 481.64 367.63 486.46 366.19 C 490.62 364.36 495.07 363.21 499.14 361.20 C 502.29 359.85 502.99 356.27 504.77 353.68 Z" />
<path fill="#111111" opacity="1.00" d=" M 621.18 371.98 C 621.62 366.76 623.93 362.01 624.87 356.90 C 624.91 357.36 624.99 358.27 625.03 358.72 C 626.49 362.42 624.50 366.18 624.64 369.97 C 624.77 373.52 622.18 376.40 621.96 379.92 C 621.56 384.91 621.05 389.93 620.02 394.81 C 619.94 394.21 619.77 393.01 619.68 392.41 C 619.20 392.05 618.23 391.34 617.75 390.99 L 616.93 389.99 C 617.35 389.40 618.20 388.22 618.62 387.63 L 619.11 387.13 C 620.14 386.73 620.84 383.88 619.12 384.48 C 619.00 384.96 618.77 385.92 618.65 386.40 C 616.96 381.43 620.78 376.87 621.18 371.98 Z" />
<path fill="#030303" opacity="1.00" d=" M 444.73 362.89 C 445.34 363.04 446.56 363.36 447.17 363.52 C 447.47 367.69 447.29 371.88 447.18 376.05 C 446.59 378.31 446.46 380.64 446.50 382.96 C 446.62 390.90 446.09 398.88 447.42 406.75 C 446.97 408.34 446.43 409.92 445.90 411.49 C 445.35 408.20 444.69 404.91 444.54 401.57 C 444.21 388.67 444.74 375.78 444.73 362.89 Z" />
<path fill="#3f3f3f" opacity="1.00" d=" M 619.12 384.48 C 620.84 383.88 620.14 386.73 619.11 387.13 L 618.65 386.40 C 618.77 385.92 619.00 384.96 619.12 384.48 Z" />
<path fill="#ffffff" opacity="1.00" d=" M 616.59 389.49 C 617.27 388.87 617.95 388.26 618.62 387.63 C 618.20 388.22 617.35 389.40 616.93 389.99 L 617.75 390.99 C 617.32 391.86 616.87 392.72 616.43 393.58 C 616.42 392.21 616.48 390.84 616.59 389.49 Z" />
<path fill="#010101" opacity="1.00" d=" M 486.97 403.62 C 487.47 403.59 488.45 403.54 488.95 403.51 C 488.27 406.61 485.18 408.06 482.94 409.91 C 479.88 412.40 475.67 411.48 472.08 411.18 C 468.39 410.43 464.24 410.83 461.08 408.44 C 460.36 408.52 458.91 408.67 458.18 408.75 C 458.25 407.72 458.32 406.70 458.40 405.68 C 461.34 403.96 464.79 404.41 468.01 404.85 C 470.67 405.56 473.55 405.69 475.89 407.32 C 477.82 407.91 479.82 408.25 481.85 408.28 C 483.36 406.52 485.36 405.28 486.97 403.62 Z" />
<path fill="#454545" opacity="1.00" d=" M 614.40 415.16 C 615.95 415.56 614.71 418.98 613.26 418.49 C 612.57 417.38 613.22 415.65 614.40 415.16 Z" />
<path fill="#020202" opacity="1.00" d=" M 162.38 432.81 C 164.78 431.89 167.48 430.24 170.02 431.70 C 173.14 433.53 175.45 436.40 177.88 439.01 C 181.66 443.92 186.18 448.26 189.41 453.59 C 194.68 461.85 198.94 470.76 202.76 479.78 C 201.54 479.66 200.21 479.55 199.88 478.12 C 194.76 467.84 190.24 457.05 182.76 448.19 C 178.31 443.29 174.58 437.70 169.25 433.65 C 171.63 437.00 173.73 440.79 173.61 445.03 C 174.13 450.18 170.68 454.84 166.58 457.59 C 162.88 460.00 159.36 462.93 155.06 464.22 C 149.69 464.92 144.31 465.46 138.90 465.61 C 133.69 466.59 128.39 466.94 123.15 467.70 C 118.33 469.02 113.62 470.76 109.10 472.88 C 103.26 475.18 96.90 474.42 90.78 474.66 L 90.96 474.13 C 92.30 474.04 93.65 473.97 94.99 473.92 C 95.32 473.50 95.99 472.66 96.32 472.24 C 101.14 473.13 105.85 471.23 110.21 469.40 C 120.51 464.59 132.14 464.63 143.00 461.88 C 145.98 462.02 148.95 462.50 151.95 462.46 C 153.35 461.76 154.75 461.08 156.15 460.40 C 159.05 456.82 164.23 455.45 165.97 450.84 C 167.80 444.68 165.82 438.05 162.38 432.81 Z" />
<path fill="#1e1e1e" opacity="1.00" d=" M 571.25 444.79 C 574.85 446.15 575.24 450.08 574.72 453.41 C 576.54 455.76 577.33 458.58 576.65 461.53 C 575.84 459.71 575.56 457.71 575.23 455.77 C 574.62 455.68 573.40 455.50 572.78 455.41 C 572.38 451.85 571.86 448.31 571.25 444.79 Z" />
<path fill="#000000" opacity="1.00" d=" M 103.15 448.13 C 106.85 446.08 111.11 447.28 115.10 446.94 C 118.10 446.80 121.10 446.67 124.10 446.63 C 128.94 446.18 132.10 451.30 136.97 450.79 C 139.80 451.49 143.99 450.44 145.30 453.87 C 145.64 455.43 144.86 456.87 144.33 458.29 C 139.99 459.75 135.39 459.54 130.90 459.20 C 126.35 458.07 121.53 458.43 117.05 456.81 C 114.93 457.08 112.81 457.35 110.70 457.64 C 108.00 459.69 105.82 462.29 103.25 464.48 C 99.19 465.27 95.47 463.66 92.48 461.00 C 92.39 458.07 94.03 455.34 96.16 453.46 C 98.74 452.02 100.72 449.78 103.15 448.13 Z" />
<path fill="#222222" opacity="1.00" d=" M 230.04 449.70 C 236.95 455.27 241.85 463.10 245.62 471.11 C 248.59 476.49 249.69 482.59 251.47 488.40 C 251.25 488.49 250.81 488.67 250.59 488.75 C 247.91 477.96 243.73 467.45 237.07 458.47 C 234.68 455.58 231.80 453.06 230.04 449.70 Z" />
<path fill="#181818" opacity="1.00" d=" M 56.49 451.68 C 60.46 456.39 65.56 459.90 70.42 463.60 C 75.22 467.29 81.01 469.41 86.79 470.99 C 89.94 471.57 93.17 471.58 96.32 472.24 C 95.99 472.66 95.32 473.50 94.99 473.92 C 93.65 473.97 92.30 474.04 90.96 474.13 L 90.78 474.66 C 90.04 482.43 93.67 489.55 94.56 497.09 L 93.75 497.89 C 93.45 501.98 92.71 506.03 92.01 510.07 C 91.98 510.23 91.91 510.54 91.88 510.70 C 91.28 510.78 90.08 510.94 89.48 511.02 C 90.02 504.69 92.70 498.38 91.07 492.00 C 89.38 486.08 88.76 479.93 88.28 473.81 C 83.68 472.69 79.15 471.18 74.89 469.10 C 70.30 466.91 66.52 463.44 62.45 460.46 C 59.63 458.39 56.99 456.05 54.84 453.27 C 55.25 452.87 56.08 452.08 56.49 451.68 Z" />
<path fill="#161616" opacity="1.00" d=" M 169.92 464.45 C 170.24 464.38 170.88 464.23 171.20 464.16 C 174.31 468.52 179.32 471.09 182.92 475.04 C 180.50 474.51 178.83 472.54 176.98 471.05 C 174.66 468.81 171.69 467.23 169.92 464.45 Z" />
<path fill="#434343" opacity="1.00" d=" M 589.05 480.44 C 590.39 480.67 591.68 482.70 591.40 484.07 C 589.70 484.71 588.28 481.79 589.05 480.44 Z" />
<path fill="#0e0e0e" opacity="1.00" d=" M 101.67 486.99 C 102.40 486.52 103.86 485.60 104.59 485.13 C 104.19 492.55 105.59 500.15 103.42 507.40 C 103.01 507.71 102.18 508.33 101.77 508.64 C 100.98 506.84 101.63 504.86 101.62 503.00 C 102.01 497.66 101.66 492.32 101.67 486.99 Z" />
<path fill="#8c8c8c" opacity="1.00" d=" M 104.59 485.13 C 105.88 487.57 105.17 490.39 105.38 493.02 C 105.67 498.49 105.76 504.27 103.35 509.34 C 101.87 510.58 99.72 508.71 100.51 506.99 C 101.91 500.38 101.01 493.64 101.67 486.99 C 101.66 492.32 102.01 497.66 101.62 503.00 C 101.63 504.86 100.98 506.84 101.77 508.64 C 102.18 508.33 103.01 507.71 103.42 507.40 C 105.59 500.15 104.19 492.55 104.59 485.13 Z" />
<path fill="#222222" opacity="1.00" d=" M 195.30 491.98 C 198.03 494.25 199.11 497.83 201.30 500.56 C 208.52 510.71 212.08 522.80 214.95 534.76 C 213.51 533.55 213.19 531.65 212.66 529.97 C 210.60 521.60 207.84 513.31 203.44 505.86 C 200.89 501.13 197.08 497.11 195.30 491.98 Z" />
<path fill="#080808" opacity="1.00" d=" M 108.45 499.60 C 108.93 499.58 109.88 499.54 110.35 499.53 C 111.12 502.06 111.56 504.68 111.55 507.33 C 111.13 507.65 110.27 508.27 109.85 508.58 C 107.92 506.05 107.89 502.59 108.45 499.60 Z" />
<path fill="#191919" opacity="1.00" d=" M 89.48 511.02 C 90.08 510.94 91.28 510.78 91.88 510.70 C 91.35 514.43 91.60 518.20 91.58 521.96 C 93.00 519.46 94.53 517.04 96.03 514.60 C 99.61 514.35 102.96 515.67 105.99 517.44 C 106.12 516.99 106.37 516.09 106.50 515.64 C 108.48 514.31 110.29 512.17 112.90 512.38 C 117.39 511.77 121.24 514.39 125.18 516.04 C 133.02 519.81 141.97 519.99 150.03 523.16 C 158.67 526.50 167.49 529.34 176.35 532.06 C 185.29 535.83 195.18 537.38 203.47 542.65 C 205.51 544.70 205.74 547.87 206.63 550.51 C 205.77 550.17 204.90 549.86 204.04 549.57 C 203.16 547.68 202.99 545.15 201.02 544.01 C 193.22 539.32 184.08 537.83 175.75 534.35 C 166.97 531.65 158.21 528.85 149.64 525.50 C 141.72 522.38 132.94 522.20 125.19 518.60 C 120.84 516.79 116.63 514.11 111.72 514.39 C 109.37 516.46 107.35 518.85 105.46 521.34 C 103.40 518.59 100.55 516.66 96.95 517.32 C 94.58 521.49 91.19 525.71 91.74 530.81 C 93.00 534.54 94.24 538.37 96.21 541.80 C 100.59 545.04 106.89 547.05 112.06 544.46 C 115.34 542.78 118.92 541.86 122.52 541.18 C 122.04 541.79 121.10 543.02 120.62 543.63 C 119.64 543.50 118.67 543.37 117.70 543.25 C 115.98 547.30 115.93 551.74 115.87 556.07 C 114.60 552.55 114.81 548.85 115.74 545.29 C 113.00 546.72 110.08 547.71 107.06 548.33 C 105.47 547.94 103.87 547.56 102.28 547.21 L 102.32 548.74 C 102.01 549.45 101.68 550.16 101.35 550.88 C 98.99 547.93 96.15 545.40 93.82 542.44 C 91.52 537.27 88.73 531.90 89.22 526.07 C 89.55 521.05 89.31 516.03 89.48 511.02 Z" />
<path fill="#ffffff" opacity="1.00" d=" M 105.46 521.34 C 107.35 518.85 109.37 516.46 111.72 514.39 C 116.63 514.11 120.84 516.79 125.19 518.60 C 132.94 522.20 141.72 522.38 149.64 525.50 C 158.21 528.85 166.97 531.65 175.75 534.35 C 184.08 537.83 193.22 539.32 201.02 544.01 C 202.99 545.15 203.16 547.68 204.04 549.57 C 196.68 546.73 188.70 547.60 181.00 547.11 C 177.33 546.83 173.65 546.91 169.97 546.96 C 164.77 547.12 160.13 544.38 155.06 543.67 C 144.32 542.13 133.41 538.74 122.52 541.18 C 118.92 541.86 115.34 542.78 112.06 544.46 C 106.89 547.05 100.59 545.04 96.21 541.80 C 94.24 538.37 93.00 534.54 91.74 530.81 C 91.19 525.71 94.58 521.49 96.95 517.32 C 100.55 516.66 103.40 518.59 105.46 521.34 Z" />
<path fill="#000000" opacity="1.00" d=" M 122.52 541.18 C 133.41 538.74 144.32 542.13 155.06 543.67 C 160.13 544.38 164.77 547.12 169.97 546.96 C 173.65 546.91 177.33 546.83 181.00 547.11 C 188.70 547.60 196.68 546.73 204.04 549.57 C 204.90 549.86 205.77 550.17 206.63 550.51 C 208.74 552.79 208.65 555.93 208.39 558.83 C 204.02 561.68 200.04 565.11 195.44 567.59 C 188.52 571.26 181.24 574.32 174.83 578.88 C 167.65 583.88 159.65 587.47 151.77 591.22 C 141.12 595.79 129.07 594.45 118.21 598.24 C 115.41 599.26 112.83 600.77 110.16 602.08 C 110.25 603.69 110.40 605.30 110.59 606.91 C 111.96 609.76 113.11 612.72 114.24 615.68 C 114.75 617.80 115.35 619.91 115.77 622.07 C 115.65 625.09 115.24 628.10 115.10 631.14 C 114.66 629.09 114.46 627.00 114.24 624.94 C 113.00 616.88 109.00 609.67 107.10 601.81 C 106.52 601.69 105.37 601.45 104.79 601.33 C 100.62 596.73 100.87 590.05 102.77 584.50 C 104.91 578.47 107.27 571.41 113.79 568.85 C 111.11 561.96 106.25 556.28 101.35 550.88 C 101.68 550.16 102.01 549.45 102.32 548.74 C 107.70 554.68 113.16 560.84 116.00 568.47 C 118.00 568.02 120.00 567.58 122.01 567.21 C 120.00 563.47 117.68 559.91 115.87 556.07 C 115.93 551.74 115.98 547.30 117.70 543.25 C 118.67 543.37 119.64 543.50 120.62 543.63 C 121.10 543.02 122.04 541.79 122.52 541.18 M 194.01 557.76 C 190.13 559.10 185.95 558.31 181.97 559.08 C 176.60 559.71 171.30 558.27 165.94 558.49 C 158.63 559.55 152.09 563.18 145.81 566.86 C 139.77 570.53 132.51 567.81 125.94 568.74 C 121.48 569.50 117.04 570.29 112.73 571.69 C 111.68 572.62 110.65 573.57 109.63 574.53 C 108.76 576.02 107.91 577.52 107.19 579.09 C 106.52 580.75 105.82 582.39 105.11 584.04 C 104.54 586.29 104.20 588.59 103.68 590.86 C 103.67 591.66 103.65 593.27 103.64 594.08 C 103.99 595.08 104.33 596.10 104.65 597.13 C 104.97 597.71 105.60 598.87 105.92 599.45 C 109.31 600.56 112.33 598.89 115.05 597.05 C 117.03 596.33 119.01 595.63 121.06 595.15 C 123.02 594.67 125.02 594.33 126.97 593.80 C 131.63 593.24 136.33 592.76 140.93 591.82 C 142.33 591.64 143.74 591.49 145.15 591.33 C 147.12 590.61 149.10 589.93 151.09 589.25 C 152.03 588.76 152.97 588.28 153.92 587.80 C 155.68 586.95 157.43 586.06 159.18 585.20 C 160.35 584.68 161.53 584.19 162.70 583.69 C 164.99 582.28 167.30 580.91 169.68 579.68 C 173.34 577.38 176.79 574.76 180.59 572.69 C 182.80 571.60 185.00 570.47 187.16 569.28 C 192.15 567.11 196.85 564.38 201.31 561.27 C 203.03 559.88 204.79 558.55 206.61 557.30 C 206.51 555.53 206.08 553.83 205.38 552.21 C 201.69 554.25 198.07 556.52 194.01 557.76 Z" />
<path fill="#ffffff" opacity="1.00" d=" M 107.06 548.33 C 110.08 547.71 113.00 546.72 115.74 545.29 C 114.81 548.85 114.60 552.55 115.87 556.07 C 117.68 559.91 120.00 563.47 122.01 567.21 C 120.00 567.58 118.00 568.02 116.00 568.47 C 113.16 560.84 107.70 554.68 102.32 548.74 L 102.28 547.21 C 103.87 547.56 105.47 547.94 107.06 548.33 Z" />
<path fill="#ffffff" opacity="1.00" d=" M 194.01 557.76 C 198.07 556.52 201.69 554.25 205.38 552.21 C 206.08 553.83 206.51 555.53 206.61 557.30 C 204.79 558.55 203.03 559.88 201.31 561.27 C 196.85 564.38 192.15 567.11 187.16 569.28 C 185.00 570.47 182.80 571.60 180.59 572.69 C 176.79 574.76 173.34 577.38 169.68 579.68 C 167.30 580.91 164.99 582.28 162.70 583.69 C 161.53 584.19 160.35 584.68 159.18 585.20 C 157.43 586.06 155.68 586.95 153.92 587.80 C 152.97 588.28 152.03 588.76 151.09 589.25 C 149.10 589.93 147.12 590.61 145.15 591.33 C 143.74 591.49 142.33 591.64 140.93 591.82 C 136.33 592.76 131.63 593.24 126.97 593.80 C 125.02 594.33 123.02 594.67 121.06 595.15 C 119.01 595.63 117.03 596.33 115.05 597.05 C 112.33 598.89 109.31 600.56 105.92 599.45 C 105.60 598.87 104.97 597.71 104.65 597.13 C 104.33 596.10 103.99 595.08 103.64 594.08 C 103.65 593.27 103.67 591.66 103.68 590.86 C 104.20 588.59 104.54 586.29 105.11 584.04 C 105.82 582.39 106.52 580.75 107.19 579.09 C 107.91 577.52 108.76 576.02 109.63 574.53 C 110.65 573.57 111.68 572.62 112.73 571.69 C 117.04 570.29 121.48 569.50 125.94 568.74 C 132.51 567.81 139.77 570.53 145.81 566.86 C 152.09 563.18 158.63 559.55 165.94 558.49 C 171.30 558.27 176.60 559.71 181.97 559.08 C 185.95 558.31 190.13 559.10 194.01 557.76 Z" />
<path fill="#1b1b1b" opacity="1.00" d=" M 485.77 570.56 C 487.61 571.68 487.64 574.12 488.80 575.80 C 494.84 584.94 501.94 593.60 510.90 600.03 C 515.23 603.19 519.17 606.84 523.45 610.08 C 531.93 616.29 538.80 624.33 546.05 631.86 C 552.77 637.62 558.53 644.44 565.53 649.90 C 573.54 656.87 583.48 660.91 592.23 666.76 C 598.00 670.35 603.61 674.21 609.42 677.73 C 613.72 680.24 617.25 683.82 621.44 686.49 C 624.74 688.78 628.41 690.72 631.03 693.84 C 623.98 689.95 617.60 684.87 611.17 680.02 C 602.40 674.60 593.90 668.75 585.04 663.46 C 577.96 659.60 570.80 655.72 564.65 650.43 C 557.76 645.02 552.07 638.31 545.43 632.62 C 538.71 625.66 532.37 618.24 524.71 612.27 C 519.15 608.16 514.09 603.44 508.47 599.42 C 500.24 593.07 493.64 584.88 487.92 576.27 C 486.82 574.53 486.18 572.55 485.77 570.56 Z" />
<path fill="#141414" opacity="1.00" d=" M 220.95 587.96 C 223.02 584.96 225.17 581.85 228.28 579.82 C 225.45 584.30 221.19 587.87 219.35 593.00 C 214.91 601.32 210.98 610.51 203.36 616.49 C 197.72 620.19 191.27 622.48 184.82 624.30 C 184.41 624.07 183.60 623.61 183.19 623.38 C 190.37 622.25 197.31 619.26 203.39 615.32 C 211.76 608.09 215.66 597.36 220.95 587.96 Z" />
<path fill="#141414" opacity="1.00" d=" M 115.77 622.07 C 117.09 629.25 118.78 636.35 119.97 643.56 C 123.10 640.51 124.18 636.14 126.73 632.69 C 130.51 627.40 136.15 622.44 143.07 622.75 C 148.16 623.42 151.76 627.38 155.12 630.88 C 154.73 631.41 154.34 631.96 153.95 632.51 C 151.95 630.74 150.03 628.87 147.90 627.24 C 143.60 623.64 136.92 625.33 133.14 628.94 C 128.43 632.65 126.27 638.38 123.43 643.44 C 122.60 643.45 120.94 643.46 120.11 643.47 C 120.40 646.33 120.55 649.22 121.15 652.05 C 121.56 659.99 121.10 667.95 121.37 675.89 C 122.00 682.95 127.04 688.44 131.86 693.17 C 137.58 698.94 144.70 702.97 151.54 707.25 C 156.56 710.58 162.71 710.66 168.41 711.90 C 176.65 713.62 185.13 712.53 193.28 710.87 C 204.97 708.53 216.94 710.01 228.73 709.17 C 229.22 709.93 229.71 710.69 230.21 711.47 C 218.14 711.58 206.02 711.24 194.06 713.10 C 187.12 714.36 180.12 715.87 173.02 715.23 C 169.38 714.22 165.66 713.47 161.89 713.25 L 161.12 712.81 C 152.36 712.22 145.65 705.92 138.44 701.65 C 129.85 695.20 120.75 687.25 118.88 676.10 C 118.07 665.40 119.66 654.55 117.69 643.94 C 117.09 639.62 116.02 635.39 115.10 631.14 C 115.24 628.10 115.65 625.09 115.77 622.07 Z" />
<path fill="#111111" opacity="1.00" d=" M 381.51 673.72 C 383.98 671.92 386.05 669.54 388.88 668.29 C 386.12 671.67 382.46 674.20 378.89 676.65 C 374.12 678.80 369.90 681.91 365.44 684.60 C 357.12 688.74 349.63 695.18 340.08 696.24 C 338.04 696.96 334.74 697.17 334.78 700.00 L 333.79 700.00 C 333.64 696.27 338.33 695.74 341.09 695.03 C 349.74 693.94 356.50 688.05 364.07 684.31 C 366.83 682.80 369.40 680.99 372.06 679.30 C 375.12 677.29 378.67 676.08 381.51 673.72 Z" />
<path fill="#0d0d0d" opacity="1.00" d=" M 458.96 710.08 C 463.58 708.65 467.80 706.15 472.46 704.82 C 472.11 705.15 471.39 705.81 471.03 706.14 C 459.44 711.69 446.87 714.60 434.94 719.26 C 429.64 721.20 425.09 724.61 419.98 726.95 C 417.58 727.94 415.73 730.14 413.00 730.23 L 413.00 729.24 C 415.86 728.87 417.92 726.68 420.51 725.64 C 424.12 724.09 427.26 721.67 430.85 720.10 C 439.83 715.73 449.65 713.59 458.96 710.08 Z" />
<path fill="#0b0b0b" opacity="1.00" d=" M 247.50 707.53 C 259.33 707.36 271.16 707.48 282.99 707.43 C 288.37 707.27 293.70 708.29 299.01 709.04 C 300.17 709.93 301.28 710.89 302.44 711.81 C 292.96 710.16 283.41 709.01 273.77 709.55 C 277.44 712.78 278.89 717.48 280.17 722.03 C 281.61 728.41 283.01 734.80 284.08 741.26 C 283.65 741.82 282.78 742.94 282.34 743.49 C 280.39 734.64 279.25 725.56 276.18 716.99 C 274.82 712.72 270.66 708.87 265.94 709.50 C 260.09 709.64 254.22 709.23 248.40 709.83 C 248.17 709.25 247.72 708.11 247.50 707.53 Z" />
<path fill="#363636" opacity="1.00" d=" M 228.73 709.17 C 234.97 708.47 241.22 707.65 247.50 707.53 C 247.72 708.11 248.17 709.25 248.40 709.83 C 242.35 710.53 236.27 710.90 230.21 711.47 C 229.71 710.69 229.22 709.93 228.73 709.17 Z" />
<path fill="#1e1e1e" opacity="1.00" d=" M 299.01 709.04 C 300.71 709.34 302.43 709.57 304.16 709.82 C 304.59 710.12 305.46 710.71 305.89 711.01 C 311.23 712.57 316.26 715.11 321.79 716.01 C 331.28 718.58 340.50 722.07 349.61 725.76 C 349.55 726.31 349.44 727.43 349.38 727.98 C 344.35 726.73 339.83 724.06 334.87 722.60 C 329.75 721.16 324.88 718.91 319.64 717.94 C 313.78 716.80 308.42 714.13 302.92 711.94 L 302.44 711.81 C 301.28 710.89 300.17 709.93 299.01 709.04 Z" />
<path fill="#1f1f1f" opacity="1.00" d=" M 294.89 718.74 C 297.04 717.52 298.99 719.33 300.93 720.08 C 309.19 724.01 315.13 731.27 322.77 736.12 C 329.10 740.38 334.57 745.72 340.48 750.51 C 342.92 753.34 345.51 756.59 345.62 760.51 C 345.17 760.53 344.27 760.58 343.82 760.61 C 342.40 757.19 340.71 753.71 337.78 751.34 C 331.93 746.48 326.37 741.23 319.97 737.07 C 312.68 732.14 306.83 725.03 298.53 721.67 C 297.00 721.15 295.94 719.87 294.89 718.74 Z" />
<path fill="#1d1d1d" opacity="1.00" d=" M 282.34 743.49 C 282.78 742.94 283.65 741.82 284.08 741.26 C 289.09 760.23 293.06 781.18 285.36 800.00 L 282.97 800.00 C 285.53 793.27 287.04 786.16 287.43 778.97 C 287.64 774.63 286.66 770.36 286.57 766.04 C 286.25 758.35 283.86 750.98 282.34 743.49 Z" />
<path fill="#141414" opacity="1.00" d=" M 300.09 747.78 C 298.00 748.16 295.98 744.29 299.08 744.57 C 305.59 748.33 312.04 752.31 319.04 755.14 C 325.90 758.20 330.86 764.09 337.03 768.19 C 337.14 768.56 337.35 769.29 337.46 769.66 C 334.61 770.27 332.70 767.97 330.74 766.36 C 326.59 762.68 322.28 759.01 317.14 756.79 C 311.18 754.37 305.61 751.06 300.09 747.78 Z" />
<path fill="#050505" opacity="1.00" d=" M 407.65 757.74 C 412.52 755.79 417.50 754.09 422.38 752.16 C 421.66 753.46 420.19 753.86 418.93 754.40 C 413.99 756.28 409.01 758.03 404.20 760.24 C 398.99 762.20 393.38 762.77 388.01 764.21 L 387.99 763.17 C 394.60 761.59 401.61 761.12 407.65 757.74 Z" />
<path fill="#1f1f1f" opacity="1.00" d=" M 411.66 775.30 C 411.87 773.61 413.26 772.45 414.83 772.13 C 421.59 771.76 428.42 771.80 435.08 773.20 C 445.95 775.42 457.03 775.91 468.03 777.07 C 481.99 777.75 495.73 782.56 509.79 780.65 C 516.07 779.38 521.96 776.39 528.45 776.07 C 525.44 778.22 521.46 777.92 518.14 779.35 C 506.54 783.93 493.81 781.61 481.92 779.63 C 465.70 777.08 449.20 777.17 433.08 773.97 C 427.46 772.62 421.65 772.94 415.92 773.05 C 414.19 773.00 413.05 774.54 411.66 775.30 Z" />
</svg>
