<?xml version="1.0" encoding="UTF-8" ?>
<!DOCTYPE svg PUBLIC "-//W3C//DTD SVG 1.1//EN" "http://www.w3.org/Graphics/SVG/1.1/DTD/svg11.dtd">
<svg width="376pt" height="538pt" viewBox="0 0 376 538" version="1.1" xmlns="http://www.w3.org/2000/svg">
<g id="#ffffffff">
<path fill="#ffffff" opacity="1.00" d=" M 202.77 89.47 C 208.70 88.81 214.46 90.78 220.37 90.60 C 223.57 92.60 224.13 96.82 222.39 100.00 C 215.14 115.77 218.70 133.49 220.99 149.94 C 221.56 154.95 222.69 159.93 222.36 165.01 C 222.23 168.47 223.16 173.36 219.35 175.22 C 215.58 176.51 211.05 175.44 207.98 172.99 C 204.94 170.13 208.62 166.47 209.17 163.30 C 211.94 150.63 204.93 138.97 199.58 128.05 C 204.82 115.77 198.64 101.93 202.77 89.47 Z" />
<path fill="#ffffff" opacity="1.00" d=" M 97.91 252.26 C 106.59 252.45 115.38 250.27 123.97 252.28 C 128.23 253.13 132.16 255.04 136.11 256.76 C 138.86 258.33 141.54 260.17 143.29 262.88 C 143.54 263.38 144.06 264.39 144.31 264.89 C 144.95 266.56 145.60 268.22 146.29 269.88 C 146.47 271.26 146.73 272.63 147.20 273.96 C 147.66 278.09 147.40 282.25 147.36 286.40 L 146.68 286.55 C 146.59 289.14 146.07 291.77 144.54 293.93 C 144.53 294.22 144.50 294.80 144.49 295.09 C 141.91 299.42 139.67 304.42 135.23 307.18 C 125.91 310.78 115.78 310.74 105.94 311.30 C 104.63 311.33 103.34 311.19 102.08 310.86 C 94.38 310.30 85.52 310.03 79.71 304.24 C 78.75 302.89 77.72 301.58 76.68 300.29 C 76.21 299.45 75.74 298.62 75.26 297.80 C 73.55 294.33 71.27 290.60 71.84 286.60 C 72.01 287.29 72.35 288.67 72.52 289.37 C 74.35 290.21 76.33 290.57 78.35 290.59 C 79.92 287.73 79.89 284.52 78.42 281.63 C 77.24 281.21 76.06 280.78 74.88 280.35 C 73.70 281.23 72.37 281.98 71.50 283.21 L 70.70 284.14 C 70.19 275.33 72.42 266.04 78.19 259.20 C 83.08 253.67 90.86 252.23 97.91 252.26 M 117.42 253.69 C 121.65 258.05 128.03 259.35 132.35 263.62 C 136.03 267.34 138.04 272.29 139.89 277.09 C 140.28 278.38 141.12 279.44 142.17 280.28 C 143.05 275.44 141.90 270.49 140.02 266.03 C 138.10 261.36 133.28 258.99 128.95 257.03 C 125.24 255.55 121.55 253.45 117.42 253.69 Z" />
<path fill="#ffffff" opacity="1.00" d=" M 289.04 257.50 C 297.32 257.89 305.91 257.08 313.51 253.57 C 313.77 255.53 314.17 257.47 314.58 259.40 C 322.78 266.20 325.11 277.75 323.59 287.86 C 321.31 295.60 313.52 299.65 306.58 302.49 C 288.81 309.15 269.13 310.55 250.50 307.14 C 239.75 304.09 228.99 300.49 219.34 294.75 C 216.13 293.13 215.16 289.35 215.34 286.03 C 215.54 280.68 214.53 274.98 217.00 269.99 C 218.84 265.75 222.16 262.40 225.53 259.34 C 227.10 258.16 228.85 256.98 230.92 257.13 C 245.31 257.02 259.70 257.40 274.08 257.00 C 279.06 257.39 284.05 257.31 289.04 257.50 M 303.91 263.99 C 303.61 266.60 305.00 269.02 306.00 271.34 C 309.21 271.74 312.48 271.65 315.60 270.76 C 316.17 268.31 316.45 265.79 316.43 263.27 C 315.96 261.28 313.51 261.57 311.97 261.32 C 309.12 261.11 305.43 261.06 303.91 263.99 Z" />
<path fill="#ffffff" opacity="1.00" d=" M 318.42 257.98 C 324.96 260.39 327.31 267.97 326.72 274.35 C 323.04 269.43 321.86 263.09 318.42 257.98 Z" />
</g>
<g id="#000000ff">
<path fill="#000000" opacity="1.00" d=" M 166.50 82.68 C 169.33 78.86 174.68 78.40 178.88 76.84 C 191.36 75.70 203.90 77.82 215.93 81.12 C 220.34 81.34 224.67 82.24 229.02 82.92 C 233.66 84.04 238.41 84.62 243.00 85.93 C 245.58 86.73 248.21 87.32 250.81 88.06 C 256.38 89.63 261.68 91.91 267.15 93.74 C 272.21 95.60 276.87 98.54 282.19 99.64 C 283.99 100.56 285.80 101.59 286.95 103.32 C 288.58 103.98 290.25 104.57 291.93 105.12 C 295.39 106.36 298.09 108.90 301.05 110.97 C 302.94 112.39 305.13 113.59 306.35 115.71 C 306.67 119.26 302.48 120.33 301.20 123.22 C 298.47 125.78 297.01 129.29 295.26 132.52 C 293.19 136.57 289.26 139.54 288.31 144.17 C 284.91 149.58 281.38 155.00 279.24 161.09 C 278.77 162.04 278.28 162.99 277.79 163.93 C 276.30 166.51 275.17 169.26 274.18 172.06 C 272.11 175.61 270.66 179.47 268.94 183.20 C 268.42 184.49 267.74 186.13 268.69 187.39 C 274.02 192.24 281.20 194.55 288.15 195.87 C 289.40 196.31 290.66 196.73 291.93 197.17 C 294.00 197.69 296.05 198.33 298.12 198.90 C 300.08 199.72 302.10 200.43 304.20 200.82 C 306.56 201.43 308.97 201.84 311.29 202.60 C 312.47 203.54 313.83 204.19 315.23 204.73 C 318.46 206.23 321.79 207.89 323.76 211.01 C 322.00 211.69 320.41 212.71 318.90 213.82 C 315.84 215.39 312.32 214.61 309.06 214.38 C 306.52 214.44 304.79 212.32 302.84 211.06 C 297.39 207.64 291.21 205.74 285.07 203.98 C 276.99 201.21 268.55 199.40 260.00 199.10 C 254.80 197.46 249.10 197.97 244.08 195.69 C 238.67 195.49 233.42 194.06 228.09 193.19 C 223.04 192.11 217.67 191.50 213.20 188.71 C 211.22 187.58 208.97 187.08 206.91 186.13 C 203.48 184.35 199.33 186.20 195.93 184.32 C 192.04 182.62 187.99 181.33 184.05 179.77 C 182.36 179.53 180.67 179.26 179.03 178.77 C 172.68 178.72 166.33 178.22 159.98 178.52 C 156.97 178.45 155.05 182.37 151.93 180.89 C 147.23 180.76 143.86 177.17 140.50 174.37 C 138.71 172.91 138.47 169.32 141.06 168.59 C 151.61 164.25 163.09 167.89 174.05 167.75 C 176.51 168.97 179.20 168.20 181.64 167.39 C 181.56 167.01 181.38 166.25 181.30 165.87 C 178.63 160.65 178.70 154.61 177.60 148.96 C 176.92 140.36 175.93 131.77 175.30 123.16 C 174.23 118.06 173.31 112.83 171.24 108.03 C 169.84 104.35 168.91 100.53 166.84 97.13 C 166.70 95.41 166.52 93.66 165.77 92.08 C 165.70 90.36 165.72 88.63 165.83 86.91 C 166.20 85.53 166.37 84.11 166.50 82.68 M 202.77 89.47 C 198.64 101.93 204.82 115.77 199.58 128.05 C 204.93 138.97 211.94 150.63 209.17 163.30 C 208.62 166.47 204.94 170.13 207.98 172.99 C 211.05 175.44 215.58 176.51 219.35 175.22 C 223.16 173.36 222.23 168.47 222.36 165.01 C 222.69 159.93 221.56 154.95 220.99 149.94 C 218.70 133.49 215.14 115.77 222.39 100.00 C 224.13 96.82 223.57 92.60 220.37 90.60 C 214.46 90.78 208.70 88.81 202.77 89.47 Z" />
<path fill="#000000" opacity="1.00" d=" M 69.84 236.49 C 71.76 236.34 73.47 237.13 75.05 238.13 C 73.29 239.96 71.38 241.64 69.43 243.26 C 66.86 245.40 64.14 247.84 63.87 251.41 L 64.42 251.18 C 65.05 251.49 66.30 252.11 66.92 252.41 C 70.18 251.04 73.64 251.13 77.05 251.77 C 91.81 249.41 106.88 245.27 121.89 248.07 C 127.68 249.33 133.36 251.17 139.27 251.82 L 140.47 250.62 C 140.05 251.71 139.66 252.82 139.25 253.92 L 137.86 253.68 C 142.64 255.14 146.57 258.73 148.86 263.13 C 152.84 271.13 153.61 280.32 152.15 289.06 C 151.26 291.57 150.55 294.16 150.04 296.78 C 152.37 295.29 154.74 293.60 155.86 290.96 C 157.75 286.76 159.51 282.44 160.68 277.99 C 160.41 272.99 157.78 268.53 156.24 263.85 C 155.73 262.60 155.26 261.35 154.82 260.09 C 153.87 258.69 152.57 257.60 151.29 256.53 C 149.73 255.99 148.15 255.51 146.51 255.31 L 146.58 254.59 C 144.28 254.68 141.98 254.44 139.73 253.98 C 140.92 253.29 142.24 252.87 143.60 252.64 C 146.27 253.74 149.18 254.12 151.83 255.26 C 152.91 255.44 153.98 255.63 155.06 255.83 C 157.78 257.03 160.84 256.44 163.72 256.73 L 163.30 255.24 L 164.92 255.90 L 164.41 254.23 C 165.01 254.42 166.20 254.78 166.80 254.97 L 166.31 253.57 C 168.43 254.03 169.85 252.20 171.59 251.38 C 172.58 253.73 170.79 256.14 170.29 258.42 C 166.61 259.07 162.90 259.53 159.17 259.73 C 163.78 266.60 162.61 275.27 162.18 283.07 C 160.63 289.59 156.77 295.56 151.16 299.27 C 150.14 299.62 149.46 300.45 148.96 301.37 C 148.70 301.82 148.18 302.72 147.92 303.17 C 147.67 304.51 147.49 305.87 147.29 307.22 C 141.47 310.61 136.27 315.03 130.16 317.91 C 121.88 321.32 112.89 322.94 103.94 321.92 C 98.30 321.59 92.93 319.77 87.74 317.66 C 80.92 313.07 75.35 306.79 71.19 299.73 C 67.49 298.93 64.06 296.52 62.75 292.87 C 61.65 288.62 61.95 284.18 61.51 279.84 C 61.18 284.65 61.32 289.48 61.16 294.30 L 60.41 295.56 C 60.26 290.44 60.27 285.32 60.33 280.21 C 60.56 279.67 61.01 278.60 61.24 278.06 C 62.04 279.46 62.83 280.84 63.64 282.24 C 63.84 283.74 64.05 285.25 64.26 286.76 C 64.71 286.64 65.62 286.40 66.08 286.27 C 65.41 289.22 64.98 292.39 66.49 295.17 C 67.11 295.52 68.35 296.21 68.97 296.56 C 69.64 297.01 70.30 297.47 70.96 297.95 C 69.00 292.98 67.86 287.76 66.60 282.59 C 66.68 280.07 66.68 277.55 66.58 275.04 C 68.51 269.97 69.61 264.53 72.81 260.03 C 74.44 258.31 76.15 256.67 77.86 255.03 C 73.78 257.03 67.92 257.18 65.91 261.91 C 65.01 263.56 65.80 265.42 66.08 267.12 C 64.96 269.37 64.41 271.82 63.73 274.22 C 63.27 274.66 62.36 275.55 61.90 275.99 C 62.30 268.94 63.76 262.02 65.73 255.25 C 63.90 255.77 62.07 256.29 60.23 256.80 C 59.66 252.67 59.32 248.15 61.74 244.50 C 63.62 241.08 66.94 238.94 69.84 236.49 M 97.91 252.26 C 90.86 252.23 83.08 253.67 78.19 259.20 C 72.42 266.04 70.19 275.33 70.70 284.14 L 71.50 283.21 C 71.48 284.35 71.59 285.48 71.84 286.60 C 71.27 290.60 73.55 294.33 75.26 297.80 C 75.74 298.62 76.21 299.45 76.68 300.29 C 77.72 301.58 78.75 302.89 79.71 304.24 C 85.52 310.03 94.38 310.30 102.08 310.86 C 103.34 311.19 104.63 311.33 105.94 311.30 C 115.78 310.74 125.91 310.78 135.23 307.18 C 139.67 304.42 141.91 299.42 144.49 295.09 C 144.50 294.80 144.53 294.22 144.54 293.93 C 146.07 291.77 146.59 289.14 146.68 286.55 L 147.36 286.40 C 147.40 282.25 147.66 278.09 147.20 273.96 C 146.73 272.63 146.47 271.26 146.29 269.88 C 145.60 268.22 144.95 266.56 144.31 264.89 C 144.06 264.39 143.54 263.38 143.29 262.88 C 141.54 260.17 138.86 258.33 136.11 256.76 C 132.16 255.04 128.23 253.13 123.97 252.28 C 115.38 250.27 106.59 252.45 97.91 252.26 M 119.54 314.86 C 120.14 313.00 119.66 312.03 118.09 311.94 C 113.21 311.77 108.73 313.87 104.17 315.21 C 98.68 314.82 93.65 311.90 88.06 312.10 C 100.92 319.86 118.39 319.79 130.93 311.32 C 127.31 313.05 123.29 313.52 119.54 314.86 Z" />
<path fill="#000000" opacity="1.00" d=" M 314.27 251.76 C 319.76 250.23 325.63 248.71 331.31 250.17 C 327.82 251.05 324.29 251.87 321.03 253.43 C 322.28 257.66 327.86 258.90 328.32 263.48 C 330.13 272.53 331.58 282.35 327.52 291.03 C 329.38 290.02 331.24 288.99 333.19 288.14 C 330.16 294.15 323.81 297.27 318.00 300.01 C 312.24 302.51 306.96 306.13 300.86 307.79 C 286.95 311.85 272.31 310.00 258.05 310.73 C 250.70 311.53 244.00 306.82 236.64 307.97 C 234.92 307.77 233.40 306.91 231.90 306.14 C 226.79 303.39 221.19 301.70 215.64 300.12 C 217.77 305.25 221.74 309.36 226.56 312.05 C 234.62 317.01 238.74 326.52 247.20 330.97 C 248.84 332.00 251.31 331.78 252.28 333.69 C 250.18 333.43 248.12 332.99 246.10 332.37 C 252.61 340.45 261.06 346.65 269.90 351.94 C 273.86 353.12 277.55 355.06 281.48 356.29 C 287.04 356.53 292.70 357.26 298.22 356.14 C 304.32 354.54 310.32 352.55 316.15 350.15 C 320.42 347.92 324.96 344.66 330.05 345.81 C 334.99 348.05 340.23 353.09 338.15 359.04 C 336.05 362.82 332.00 364.92 329.03 367.95 C 325.36 371.63 320.84 374.40 315.88 375.96 C 309.19 376.88 302.85 379.85 295.98 379.55 C 290.91 379.36 285.80 379.89 280.79 378.99 C 276.47 378.45 272.44 376.60 268.07 376.41 C 261.34 374.65 254.78 372.19 248.40 369.42 C 240.10 366.89 232.44 362.71 224.45 359.38 C 220.66 357.99 218.60 353.04 214.11 353.58 C 205.72 353.46 197.41 352.08 189.01 352.20 C 177.31 352.38 165.60 351.95 153.90 352.31 C 148.74 352.39 145.01 356.30 140.99 358.96 C 141.41 359.50 142.24 360.57 142.65 361.11 C 141.85 360.48 141.05 359.85 140.25 359.22 C 136.40 362.07 131.93 363.84 127.45 365.42 C 119.15 370.01 109.93 372.53 100.99 375.56 C 97.78 376.59 94.58 377.75 91.23 378.21 C 84.46 378.54 77.79 379.82 71.05 380.50 C 66.45 380.98 61.89 380.10 57.32 379.69 C 55.72 379.55 54.13 379.45 52.53 379.37 L 52.46 378.66 C 47.87 376.14 42.43 375.13 38.45 371.56 C 34.89 368.43 31.19 365.45 27.81 362.12 C 25.28 359.85 26.02 355.99 26.42 353.02 C 28.99 348.85 34.01 345.49 39.06 347.07 C 46.65 349.62 53.52 354.09 61.37 355.92 C 61.94 352.32 62.53 348.72 62.90 345.09 L 62.98 345.45 C 63.09 346.01 63.32 347.12 63.43 347.67 C 62.96 350.41 62.47 353.15 62.17 355.92 C 64.74 356.91 67.17 358.62 70.02 358.66 C 73.15 358.82 75.91 357.00 78.97 356.67 C 86.31 356.28 93.41 353.45 99.62 349.65 C 105.36 344.61 111.38 339.84 116.72 334.37 C 119.27 330.96 122.63 328.33 125.62 325.34 C 126.50 324.53 127.42 323.77 128.34 323.02 C 130.86 320.95 133.36 318.79 136.33 317.38 C 141.01 315.11 145.46 312.12 150.64 311.14 C 156.77 310.81 162.95 310.80 169.06 311.37 C 174.00 311.79 177.96 316.20 183.08 315.39 C 186.93 313.69 190.75 311.55 194.99 311.03 C 201.36 310.94 207.74 311.02 214.12 311.00 C 216.57 310.79 218.83 312.24 220.34 314.06 L 220.82 311.35 C 220.64 311.76 220.28 312.58 220.10 312.99 C 215.64 309.42 209.35 306.47 208.00 300.44 C 210.50 302.49 212.93 304.62 215.45 306.66 C 214.76 303.43 215.17 300.16 215.02 296.91 C 214.01 294.27 212.27 291.90 211.92 289.03 C 211.00 283.05 211.93 276.99 211.69 270.97 C 206.59 272.52 200.44 271.35 196.57 275.81 C 195.42 273.44 197.63 271.26 199.01 269.58 C 199.41 269.63 200.22 269.75 200.62 269.81 C 205.78 272.04 212.38 269.88 215.08 264.92 C 215.63 263.91 216.18 262.90 216.71 261.89 C 214.10 262.00 211.49 262.12 208.89 262.24 C 209.46 261.75 210.59 260.76 211.16 260.27 L 211.80 259.72 C 215.35 259.88 218.87 259.34 222.36 258.72 C 223.42 258.90 224.47 259.11 225.53 259.34 C 222.16 262.40 218.84 265.75 217.00 269.99 C 214.53 274.98 215.54 280.68 215.34 286.03 C 215.16 289.35 216.13 293.13 219.34 294.75 C 228.99 300.49 239.75 304.09 250.50 307.14 C 269.13 310.55 288.81 309.15 306.58 302.49 C 313.52 299.65 321.31 295.60 323.59 287.86 C 325.11 277.75 322.78 266.20 314.58 259.40 C 314.17 257.47 313.77 255.53 313.51 253.57 C 313.70 253.12 314.08 252.21 314.27 251.76 M 318.42 257.98 C 321.86 263.09 323.04 269.43 326.72 274.35 C 327.31 267.97 324.96 260.39 318.42 257.98 M 156.61 348.35 C 169.12 348.55 181.69 348.01 194.14 349.40 C 199.74 349.61 205.30 350.23 210.89 350.51 C 209.10 349.23 207.50 347.69 205.61 346.55 C 201.53 345.80 197.27 345.37 193.27 346.75 L 193.43 347.22 C 189.66 347.40 185.89 347.38 182.15 346.94 C 177.77 347.46 173.35 347.36 168.95 347.28 C 166.90 347.27 165.20 345.53 163.15 345.76 C 160.97 346.60 158.84 347.61 156.61 348.35 Z" />
<path fill="#000000" opacity="1.00" d=" M 252.78 251.76 C 260.89 251.69 269.01 251.85 277.12 251.81 L 277.72 252.07 C 281.49 253.89 285.94 254.46 289.04 257.50 C 284.05 257.31 279.06 257.39 274.08 257.00 C 272.67 256.35 271.27 255.65 269.88 254.97 C 269.83 254.24 269.72 252.79 269.66 252.07 C 264.48 252.05 259.28 252.36 254.11 251.94 C 253.78 251.90 253.11 251.81 252.78 251.76 Z" />
<path fill="#000000" opacity="1.00" d=" M 303.91 263.99 C 305.43 261.06 309.12 261.11 311.97 261.32 C 313.51 261.57 315.96 261.28 316.43 263.27 C 316.45 265.79 316.17 268.31 315.60 270.76 C 312.48 271.65 309.21 271.74 306.00 271.34 C 305.00 269.02 303.61 266.60 303.91 263.99 M 306.35 265.97 C 307.57 268.44 311.02 270.06 313.31 267.98 C 313.78 265.93 312.35 264.06 311.00 262.68 C 309.36 263.65 307.76 264.68 306.35 265.97 Z" />
<path fill="#000000" opacity="1.00" d=" M 236.33 311.62 C 240.28 309.98 244.38 311.58 248.32 312.32 C 248.46 312.57 248.75 313.08 248.89 313.33 C 246.96 313.76 242.86 314.18 244.50 317.17 C 248.75 317.45 253.67 314.81 257.49 317.42 C 251.19 317.63 244.85 318.09 238.57 317.49 C 240.13 316.81 241.71 316.17 243.30 315.57 C 241.75 312.99 236.23 315.83 236.33 312.01 L 236.33 311.62 Z" />
<path fill="#000000" opacity="1.00" d=" M 268.20 321.22 C 274.95 321.12 281.61 322.08 288.24 323.22 C 281.80 323.31 275.38 323.92 268.95 323.83 C 268.71 322.95 268.46 322.08 268.20 321.22 Z" />
<path fill="#000000" opacity="1.00" d=" M 150.77 410.06 C 153.67 407.89 157.61 408.70 161.01 408.35 C 164.86 408.63 169.25 407.91 172.72 409.80 C 170.80 412.73 166.63 410.91 163.68 411.63 C 163.23 420.61 164.33 429.65 163.05 438.59 C 162.37 438.23 161.01 437.50 160.33 437.14 C 159.30 428.78 160.75 420.35 159.84 411.98 C 156.89 410.68 153.31 412.40 150.77 410.06 Z" />
<path fill="#000000" opacity="1.00" d=" M 217.87 410.89 C 217.84 407.64 222.60 407.91 223.85 410.25 C 227.03 415.42 228.53 421.43 230.77 427.03 C 231.34 428.48 232.56 429.49 233.65 430.54 C 236.93 423.71 239.14 416.40 242.76 409.74 C 243.97 407.62 246.73 408.61 248.44 409.47 C 248.61 419.07 248.75 428.68 248.34 438.28 C 247.70 438.22 246.41 438.10 245.76 438.04 C 244.62 430.09 245.97 422.02 244.98 414.06 C 238.97 421.21 238.22 431.15 233.04 438.72 C 230.42 436.64 230.12 432.91 228.69 430.06 C 226.31 424.70 225.09 418.70 221.54 413.96 C 219.68 421.68 222.37 429.86 220.40 437.65 C 220.16 439.54 217.48 438.37 217.61 437.00 C 217.62 428.30 216.63 419.54 217.87 410.89 Z" />
<path fill="#000000" opacity="1.00" d=" M 256.57 409.50 C 261.60 407.70 267.05 408.38 272.23 408.98 C 271.48 412.98 266.81 411.07 264.01 411.27 C 258.49 410.28 259.16 417.77 260.75 420.96 C 263.50 420.84 266.26 420.59 269.01 420.90 C 270.21 421.47 270.55 422.39 270.05 423.65 C 266.84 424.32 263.54 424.07 260.28 424.15 C 259.84 427.49 259.14 431.26 260.77 434.38 C 264.06 434.61 267.46 433.56 270.67 434.55 C 272.12 435.07 271.75 436.95 272.10 438.13 C 267.05 437.97 261.74 439.31 256.91 437.28 C 256.01 428.04 256.68 418.76 256.57 409.50 Z" />
<path fill="#000000" opacity="1.00" d=" M 308.31 432.40 C 311.55 430.70 312.85 435.95 310.70 437.71 C 307.60 440.78 306.36 434.00 308.31 432.40 Z" />
</g>
<g id="#3a3a3aff">
<path fill="#3a3a3a" opacity="1.00" d=" M 225.65 234.69 C 226.74 233.64 228.41 234.02 229.28 235.16 C 229.33 235.58 229.42 236.42 229.47 236.85 C 224.35 240.06 218.89 243.01 215.18 247.95 C 216.17 249.55 217.17 251.18 218.51 252.53 C 223.68 253.02 228.85 252.19 234.02 252.14 C 237.39 252.08 240.63 253.47 244.01 253.29 C 246.84 252.31 249.69 250.97 252.78 251.76 C 253.11 251.81 253.78 251.90 254.11 251.94 C 254.06 252.75 253.96 254.37 253.91 255.18 C 243.74 255.61 233.55 255.43 223.38 256.01 C 217.92 256.43 211.35 259.71 206.74 255.19 C 209.47 254.89 210.93 252.41 209.81 249.86 C 213.44 243.34 219.55 238.73 225.65 234.69 Z" />
<path fill="#3a3a3a" opacity="1.00" d=" M 103.94 321.92 C 112.89 322.94 121.88 321.32 130.16 317.91 C 129.95 318.48 129.52 319.61 129.30 320.17 C 128.18 320.65 127.05 321.13 125.92 321.60 C 122.80 322.86 119.48 323.56 116.16 324.06 C 112.57 324.53 108.94 324.24 105.36 323.83 C 105.00 323.35 104.30 322.40 103.94 321.92 Z" />
</g>
<g id="#b8b8b8ff">
<path fill="#b8b8b8" opacity="1.00" d=" M 229.28 235.16 C 229.70 235.99 230.11 236.82 230.53 237.66 C 234.58 239.34 240.80 239.14 241.86 244.49 C 238.99 244.72 236.11 244.85 233.24 244.93 C 234.05 246.05 234.85 247.17 235.65 248.30 C 230.53 249.53 225.23 249.45 220.04 250.19 C 219.66 250.78 218.89 251.94 218.51 252.53 C 217.17 251.18 216.17 249.55 215.18 247.95 C 218.89 243.01 224.35 240.06 229.47 236.85 C 229.42 236.42 229.33 235.58 229.28 235.16 Z" />
</g>
<g id="#535353ff">
<path fill="#535353" opacity="1.00" d=" M 200.69 240.73 C 201.52 238.22 204.06 237.02 206.45 236.42 C 205.77 237.92 205.39 239.61 204.34 240.92 C 201.93 244.54 203.74 249.29 204.42 253.23 C 204.60 254.09 204.96 255.80 205.15 256.66 C 200.61 256.59 195.84 254.35 193.78 250.14 C 192.70 247.96 193.40 245.52 194.37 243.44 C 194.74 247.27 196.48 250.81 199.80 252.90 C 199.97 248.85 199.40 244.65 200.69 240.73 Z" />
<path fill="#535353" opacity="1.00" d=" M 71.05 380.50 C 77.79 379.82 84.46 378.54 91.23 378.21 C 85.28 380.15 78.91 379.78 72.92 381.47 C 69.05 381.93 65.13 381.64 61.27 381.26 C 60.03 389.76 61.28 398.46 60.12 407.01 C 58.85 415.75 58.25 424.56 57.46 433.36 C 57.26 432.89 56.86 431.97 56.66 431.51 C 57.10 423.67 57.88 415.86 58.83 408.07 C 59.73 399.73 59.67 391.33 59.62 382.95 C 60.26 380.56 57.44 380.53 55.94 380.26 C 56.29 380.11 56.97 379.83 57.32 379.69 C 61.89 380.10 66.45 380.98 71.05 380.50 Z" />
</g>
<g id="#959595ff">
<path fill="#959595" opacity="1.00" d=" M 77.82 240.75 C 79.68 240.71 82.15 239.68 82.85 242.19 C 81.02 242.84 79.08 242.88 77.16 242.75 C 77.32 242.25 77.66 241.25 77.82 240.75 Z" />
<path fill="#959595" opacity="1.00" d=" M 60.23 256.80 C 62.07 256.29 63.90 255.77 65.73 255.25 C 63.76 262.02 62.30 268.94 61.90 275.99 C 62.36 275.55 63.27 274.66 63.73 274.22 C 64.34 274.32 65.56 274.50 66.17 274.60 C 66.18 277.06 66.13 279.53 66.14 282.00 C 65.52 282.06 64.26 282.18 63.64 282.24 C 62.83 280.84 62.04 279.46 61.24 278.06 L 61.07 277.76 C 61.70 270.86 62.15 263.87 64.42 257.26 C 63.02 257.12 61.62 256.98 60.23 256.80 Z" />
<path fill="#959595" opacity="1.00" d=" M 65.91 261.91 C 67.92 257.18 73.78 257.03 77.86 255.03 C 76.15 256.67 74.44 258.31 72.81 260.03 C 73.02 259.34 73.45 257.96 73.66 257.28 C 69.44 258.97 68.17 263.53 66.08 267.12 C 65.80 265.42 65.01 263.56 65.91 261.91 Z" />
</g>
<g id="#bcbcbcff">
<path fill="#bcbcbc" opacity="1.00" d=" M 204.34 240.92 C 206.01 241.61 207.65 240.61 209.23 240.12 C 207.32 244.39 203.80 248.21 204.42 253.23 C 203.74 249.29 201.93 244.54 204.34 240.92 Z" />
</g>
<g id="#c2c2c2ff">
<path fill="#c2c2c2" opacity="1.00" d=" M 63.87 251.41 C 64.14 247.84 66.86 245.40 69.43 243.26 C 71.31 245.24 74.16 243.94 76.49 244.66 C 78.01 245.18 79.42 245.95 80.85 246.67 C 75.62 249.06 69.59 248.71 64.42 251.18 L 63.87 251.41 Z" />
</g>
<g id="#848484ff">
<path fill="#848484" opacity="1.00" d=" M 171.31 250.69 C 172.48 251.24 173.72 251.79 174.42 252.95 C 174.43 254.59 173.84 256.14 173.48 257.71 C 177.04 260.56 180.00 267.48 174.69 270.11 C 174.16 267.84 173.62 265.57 172.95 263.34 C 169.34 265.56 169.17 271.48 164.14 271.53 C 163.93 275.44 163.54 279.37 162.18 283.07 C 162.61 275.27 163.78 266.60 159.17 259.73 C 162.90 259.53 166.61 259.07 170.29 258.42 C 170.79 256.14 172.58 253.73 171.59 251.38 L 171.31 250.69 Z" />
<path fill="#848484" opacity="1.00" d=" M 56.66 431.51 C 56.86 431.97 57.26 432.89 57.46 433.36 C 57.76 442.23 57.76 451.17 57.62 460.07 C 55.20 459.76 56.25 456.71 55.99 455.03 C 56.69 447.20 55.37 439.30 56.66 431.51 Z" />
</g>
<g id="#5b5b5bff">
<path fill="#5b5b5b" opacity="1.00" d=" M 277.72 252.07 C 279.41 251.68 281.15 251.52 282.89 251.58 C 293.35 251.65 303.81 251.32 314.27 251.76 C 314.08 252.21 313.70 253.12 313.51 253.57 C 305.91 257.08 297.32 257.89 289.04 257.50 C 285.94 254.46 281.49 253.89 277.72 252.07 Z" />
</g>
<g id="#595959ff">
<path fill="#595959" opacity="1.00" d=" M 254.11 251.94 C 259.28 252.36 264.48 252.05 269.66 252.07 C 269.72 252.79 269.83 254.24 269.88 254.97 C 271.27 255.65 272.67 256.35 274.08 257.00 C 259.70 257.40 245.31 257.02 230.92 257.13 C 228.85 256.98 227.10 258.16 225.53 259.34 C 224.47 259.11 223.42 258.90 222.36 258.72 C 222.98 257.93 223.32 257.02 223.38 256.01 C 233.55 255.43 243.74 255.61 253.91 255.18 C 253.96 254.37 254.06 252.75 254.11 251.94 Z" />
</g>
<g id="#d5d5d5ff">
<path fill="#d5d5d5" opacity="1.00" d=" M 117.42 253.69 C 121.55 253.45 125.24 255.55 128.95 257.03 C 133.28 258.99 138.10 261.36 140.02 266.03 C 141.90 270.49 143.05 275.44 142.17 280.28 C 141.12 279.44 140.28 278.38 139.89 277.09 C 138.04 272.29 136.03 267.34 132.35 263.62 C 128.03 259.35 121.65 258.05 117.42 253.69 Z" />
</g>
<g id="#515151ff">
<path fill="#515151" opacity="1.00" d=" M 187.23 254.26 C 191.09 256.39 194.56 259.15 198.50 261.14 C 198.55 260.19 198.64 258.31 198.69 257.36 C 201.48 261.67 206.80 261.04 211.16 260.27 C 210.59 260.76 209.46 261.75 208.89 262.24 C 211.49 262.12 214.10 262.00 216.71 261.89 C 216.18 262.90 215.63 263.91 215.08 264.92 C 215.41 264.21 216.05 262.78 216.38 262.07 C 211.42 262.35 206.26 263.06 202.48 266.60 C 201.90 264.98 201.34 263.37 200.61 261.82 C 199.05 264.00 196.96 265.74 194.28 266.34 C 192.80 269.57 191.31 273.23 187.74 274.64 C 188.98 269.52 191.46 264.73 195.23 261.02 C 192.11 259.41 188.58 257.76 187.23 254.26 Z" />
</g>
<g id="#f9f9f9ff">
<path fill="#f9f9f9" opacity="1.00" d=" M 66.08 267.12 C 68.17 263.53 69.44 258.97 73.66 257.28 C 73.45 257.96 73.02 259.34 72.81 260.03 C 69.61 264.53 68.51 269.97 66.58 275.04 C 66.68 277.55 66.68 280.07 66.60 282.59 C 65.73 287.45 68.41 291.84 68.97 296.56 C 68.35 296.21 67.11 295.52 66.49 295.17 C 64.98 292.39 65.41 289.22 66.08 286.27 C 65.62 286.40 64.71 286.64 64.26 286.76 C 64.05 285.25 63.84 283.74 63.64 282.24 C 64.26 282.18 65.52 282.06 66.14 282.00 C 66.13 279.53 66.18 277.06 66.17 274.60 C 65.56 274.50 64.34 274.32 63.73 274.22 C 64.41 271.82 64.96 269.37 66.08 267.12 Z" />
</g>
<g id="#cfcfcfff">
<path fill="#cfcfcf" opacity="1.00" d=" M 202.48 266.60 C 206.26 263.06 211.42 262.35 216.38 262.07 C 216.05 262.78 215.41 264.21 215.08 264.92 C 212.38 269.88 205.78 272.04 200.62 269.81 C 201.21 268.73 201.51 267.40 202.48 266.60 Z" />
</g>
<g id="#fefefeff">
<path fill="#fefefe" opacity="1.00" d=" M 306.35 265.97 C 307.76 264.68 309.36 263.65 311.00 262.68 C 312.35 264.06 313.78 265.93 313.31 267.98 C 311.02 270.06 307.57 268.44 306.35 265.97 Z" />
<path fill="#fefefe" opacity="1.00" d=" M 74.55 283.60 C 75.02 283.63 75.94 283.68 76.40 283.70 C 76.42 284.99 76.42 286.27 76.42 287.56 C 75.96 287.49 75.05 287.33 74.60 287.25 C 74.57 286.03 74.55 284.81 74.55 283.60 Z" />
<path fill="#fefefe" opacity="1.00" d=" M 193.27 346.75 C 197.27 345.37 201.53 345.80 205.61 346.55 C 207.50 347.69 209.10 349.23 210.89 350.51 C 205.30 350.23 199.74 349.61 194.14 349.40 C 193.97 348.86 193.61 347.77 193.43 347.22 L 193.27 346.75 Z" />
</g>
<g id="#929292ff">
<path fill="#929292" opacity="1.00" d=" M 175.45 277.98 C 177.03 275.49 179.07 273.30 181.69 271.89 C 181.65 274.40 181.47 276.91 181.16 279.41 C 179.20 279.16 177.29 278.66 175.45 277.98 Z" />
</g>
<g id="#010101ff">
<path fill="#010101" opacity="1.00" d=" M 71.50 283.21 C 72.37 281.98 73.70 281.23 74.88 280.35 C 76.06 280.78 77.24 281.21 78.42 281.63 C 79.89 284.52 79.92 287.73 78.35 290.59 C 76.33 290.57 74.35 290.21 72.52 289.37 C 72.35 288.67 72.01 287.29 71.84 286.60 C 71.59 285.48 71.48 284.35 71.50 283.21 M 74.55 283.60 C 74.55 284.81 74.57 286.03 74.60 287.25 C 75.05 287.33 75.96 287.49 76.42 287.56 C 76.42 286.27 76.42 284.99 76.40 283.70 C 75.94 283.68 75.02 283.63 74.55 283.60 Z" />
<path fill="#010101" opacity="1.00" d=" M 189.07 363.32 C 193.78 362.03 198.71 361.36 203.61 361.44 C 207.02 362.36 209.53 364.97 212.60 366.56 L 212.98 367.36 C 211.11 367.34 209.25 367.33 207.39 367.33 C 207.52 366.72 207.79 365.51 207.93 364.90 C 207.48 364.86 206.59 364.78 206.15 364.74 C 200.17 364.14 194.18 364.84 188.20 364.77 C 188.41 364.41 188.85 363.68 189.07 363.32 Z" />
<path fill="#010101" opacity="1.00" d=" M 196.29 409.01 C 200.58 408.63 204.99 407.60 209.24 408.77 C 210.35 409.02 211.04 409.72 211.31 410.88 C 207.39 411.81 203.37 411.12 199.41 411.61 C 198.77 414.63 199.19 417.76 199.19 420.83 C 202.71 421.34 208.27 418.93 209.73 423.48 C 206.23 423.94 202.71 424.13 199.18 424.22 C 199.07 427.58 199.04 430.94 199.28 434.30 C 203.33 434.23 207.37 434.31 211.42 434.30 C 211.37 435.27 211.26 437.21 211.21 438.18 C 206.32 438.32 201.43 438.29 196.54 438.25 C 195.07 428.59 195.27 418.71 196.29 409.01 Z" />
<path fill="#010101" opacity="1.00" d=" M 73.13 421.89 C 73.47 414.73 79.73 408.43 86.99 408.48 C 91.03 408.06 94.99 410.05 96.87 413.67 C 92.53 413.57 88.46 409.96 83.99 411.83 C 74.88 414.53 74.10 429.28 82.46 433.40 C 85.45 434.58 89.34 435.09 92.04 432.96 C 93.45 430.51 92.74 427.52 92.32 424.89 C 89.90 424.59 85.13 425.81 85.66 421.77 C 89.00 421.62 92.37 421.57 95.69 422.14 C 96.15 425.43 96.41 428.77 96.10 432.09 C 96.21 435.77 92.12 437.58 89.05 438.14 C 80.30 439.08 72.05 430.63 73.13 421.89 Z" />
</g>
<g id="#545454ff">
<path fill="#545454" opacity="1.00" d=" M 66.60 282.59 C 67.86 287.76 69.00 292.98 70.96 297.95 C 70.30 297.47 69.64 297.01 68.97 296.56 C 68.41 291.84 65.73 287.45 66.60 282.59 Z" />
</g>
<g id="#7c7c7cff">
<path fill="#7c7c7c" opacity="1.00" d=" M 60.41 295.56 L 61.16 294.30 C 62.33 300.85 62.84 307.49 64.01 314.04 C 65.95 325.14 65.88 336.65 63.43 347.67 C 63.32 347.12 63.09 346.01 62.98 345.45 C 62.63 340.30 64.25 335.23 64.00 330.07 C 64.12 318.61 60.87 307.43 60.14 296.04 L 60.41 295.56 Z" />
</g>
<g id="#c3c3c3ff">
<path fill="#c3c3c3" opacity="1.00" d=" M 215.64 300.12 C 221.19 301.70 226.79 303.39 231.90 306.14 C 233.40 306.91 234.92 307.77 236.64 307.97 C 236.48 308.41 236.18 309.29 236.02 309.74 C 236.10 310.21 236.25 311.15 236.33 311.62 L 236.33 312.01 C 236.29 312.32 236.20 312.94 236.16 313.25 C 232.88 311.81 229.81 309.18 225.98 309.98 C 226.12 310.49 226.41 311.53 226.56 312.05 C 221.74 309.36 217.77 305.25 215.64 300.12 Z" />
</g>
<g id="#b3b3b3ff">
<path fill="#b3b3b3" opacity="1.00" d=" M 147.92 303.17 C 148.18 302.72 148.70 301.82 148.96 301.37 C 149.71 303.65 149.23 305.97 148.66 308.22 C 149.85 308.59 151.05 308.97 152.25 309.34 C 151.85 309.79 151.04 310.69 150.64 311.14 C 145.46 312.12 141.01 315.11 136.33 317.38 C 133.36 318.79 130.86 320.95 128.34 323.02 C 127.73 322.66 126.52 321.95 125.92 321.60 C 127.05 321.13 128.18 320.65 129.30 320.17 C 129.52 319.61 129.95 318.48 130.16 317.91 C 136.27 315.03 141.47 310.61 147.29 307.22 C 147.49 305.87 147.67 304.51 147.92 303.17 Z" />
<path fill="#b3b3b3" opacity="1.00" d=" M 87.74 317.66 C 92.93 319.77 98.30 321.59 103.94 321.92 C 104.30 322.40 105.00 323.35 105.36 323.83 C 108.94 324.24 112.57 324.53 116.16 324.06 C 113.47 324.46 110.81 325.17 108.46 326.58 C 114.27 327.72 119.90 325.78 125.62 325.34 C 122.63 328.33 119.27 330.96 116.72 334.37 C 114.39 334.18 112.26 335.21 110.21 336.17 C 109.83 337.34 109.44 338.51 109.06 339.69 C 106.10 339.61 103.13 339.48 100.18 339.26 C 104.60 334.08 112.34 334.19 116.73 329.00 C 105.12 328.34 93.52 329.74 81.95 330.47 C 82.96 329.49 83.40 327.50 85.11 327.53 C 91.58 326.92 98.91 327.93 104.16 323.21 C 98.56 321.98 92.20 321.71 87.74 317.66 Z" />
</g>
<g id="#b2b2b2ff">
<path fill="#b2b2b2" opacity="1.00" d=" M 119.54 314.86 C 123.29 313.52 127.31 313.05 130.93 311.32 C 118.39 319.79 100.92 319.86 88.06 312.10 C 93.65 311.90 98.68 314.82 104.17 315.21 C 108.73 313.87 113.21 311.77 118.09 311.94 C 119.66 312.03 120.14 313.00 119.54 314.86 Z" />
</g>
<g id="#adadadff">
<path fill="#adadad" opacity="1.00" d=" M 248.32 312.32 C 252.64 314.16 257.26 315.03 261.76 316.29 C 264.30 317.17 267.31 318.43 268.20 321.22 C 268.46 322.08 268.71 322.95 268.95 323.83 C 264.27 323.82 259.61 323.29 254.94 323.13 C 254.86 321.67 254.77 320.22 254.69 318.77 C 249.21 318.43 243.09 320.72 238.15 317.45 L 238.57 317.49 C 244.85 318.09 251.19 317.63 257.49 317.42 C 253.67 314.81 248.75 317.45 244.50 317.17 C 242.86 314.18 246.96 313.76 248.89 313.33 C 248.75 313.08 248.46 312.57 248.32 312.32 Z" />
</g>
<g id="#fbfbfbff">
<path fill="#fbfbfb" opacity="1.00" d=" M 116.16 324.06 C 119.48 323.56 122.80 322.86 125.92 321.60 C 126.52 321.95 127.73 322.66 128.34 323.02 C 127.42 323.77 126.50 324.53 125.62 325.34 C 119.90 325.78 114.27 327.72 108.46 326.58 C 110.81 325.17 113.47 324.46 116.16 324.06 Z" />
<path fill="#fbfbfb" opacity="1.00" d=" M 156.61 348.35 C 158.84 347.61 160.97 346.60 163.15 345.76 C 165.20 345.53 166.90 347.27 168.95 347.28 C 173.35 347.36 177.77 347.46 182.15 346.94 C 185.89 347.38 189.66 347.40 193.43 347.22 C 193.61 347.77 193.97 348.86 194.14 349.40 C 181.69 348.01 169.12 348.55 156.61 348.35 Z" />
</g>
<g id="#585858ff">
<path fill="#585858" opacity="1.00" d=" M 261.12 335.77 C 263.49 335.34 265.52 333.05 268.05 333.99 C 270.70 334.66 273.36 335.23 276.06 335.65 C 275.53 336.15 274.92 336.49 274.21 336.64 C 267.55 337.85 260.95 339.39 254.21 340.12 C 254.65 336.71 258.57 336.61 261.12 335.77 Z" />
</g>
<g id="#909090ff">
<path fill="#909090" opacity="1.00" d=" M 160.08 360.44 C 164.11 360.91 168.12 360.42 172.06 359.60 C 182.73 358.98 193.60 358.68 204.02 361.45 L 203.61 361.44 C 198.71 361.36 193.78 362.03 189.07 363.32 C 188.85 363.68 188.41 364.41 188.20 364.77 C 187.11 363.81 186.04 362.82 184.77 362.12 C 182.41 362.11 180.90 365.52 178.35 364.61 C 176.89 363.70 175.73 362.31 174.09 361.72 C 170.47 362.24 166.82 363.57 164.21 366.23 C 156.30 373.72 145.23 377.27 134.45 377.09 C 138.72 369.26 150.08 374.47 155.15 367.69 C 148.95 368.02 143.07 370.15 137.03 371.36 C 139.00 368.15 142.89 367.04 145.18 364.13 C 148.72 359.66 155.00 360.16 160.08 360.44 Z" />
</g>
<g id="#b4b4b4ff">
<path fill="#b4b4b4" opacity="1.00" d=" M 212.09 365.37 C 216.22 364.02 220.58 363.07 224.91 363.97 C 225.33 365.87 225.49 367.89 226.42 369.64 C 228.74 371.82 234.24 369.62 234.13 374.13 C 226.64 375.34 219.24 373.25 211.94 371.87 C 209.03 371.49 206.94 369.02 203.97 368.80 C 201.69 368.42 198.49 367.86 198.63 364.84 C 201.13 364.75 203.64 364.65 206.15 364.74 C 206.59 364.78 207.48 364.86 207.93 364.90 C 207.79 365.51 207.52 366.72 207.39 367.33 C 209.25 367.33 211.11 367.34 212.98 367.36 L 212.60 366.56 L 212.09 365.37 Z" />
</g>
<g id="#010000ff">
<path fill="#010000" opacity="1.00" d=" M 296.72 408.87 C 297.68 408.80 298.64 408.74 299.61 408.69 C 300.44 417.11 299.96 425.57 299.82 434.02 C 299.90 435.86 298.98 437.49 297.94 438.94 C 293.07 434.55 290.70 428.17 287.45 422.61 C 285.74 419.99 284.97 416.51 282.23 414.74 C 281.28 422.75 282.92 430.88 281.30 438.87 C 277.01 437.48 278.64 432.41 278.48 429.03 C 279.11 422.16 276.80 414.85 279.78 408.33 C 281.52 408.45 283.58 408.62 284.45 410.41 C 288.33 416.89 291.32 423.90 295.62 430.13 C 297.47 423.14 295.33 415.90 296.72 408.87 Z" />
</g>
<g id="#020204ff">
<path fill="#020204" opacity="1.00" d=" M 103.81 408.95 C 108.86 408.33 114.07 407.87 119.06 409.14 C 119.19 409.65 119.44 410.68 119.57 411.19 C 115.49 411.34 111.40 411.39 107.32 411.58 C 106.73 414.63 106.71 417.75 107.30 420.81 C 110.20 420.90 113.11 420.55 116.01 420.87 C 117.27 421.37 117.28 422.65 117.31 423.78 C 114.00 423.95 110.69 424.15 107.38 424.16 C 106.94 427.47 105.99 431.23 107.93 434.26 C 111.15 434.65 114.44 433.68 117.62 434.45 C 119.23 434.86 119.27 436.83 119.55 438.16 C 114.34 438.33 109.12 438.34 103.91 438.17 C 103.51 428.44 103.59 418.69 103.81 408.95 Z" />
</g>
<g id="#000003ff">
<path fill="#000003" opacity="1.00" d=" M 125.77 408.81 C 127.32 408.67 129.36 407.98 130.51 409.49 C 135.75 415.58 137.23 424.12 143.15 429.75 C 143.82 422.89 143.23 416.01 143.42 409.14 C 144.48 409.09 145.55 409.06 146.62 409.03 C 146.59 418.77 147.18 428.53 146.15 438.24 C 145.44 438.12 144.01 437.90 143.30 437.78 C 137.71 430.69 135.55 421.32 128.98 414.92 C 128.45 422.73 129.07 430.56 128.63 438.38 C 127.69 438.35 126.75 438.33 125.81 438.31 C 125.50 428.48 125.52 418.64 125.77 408.81 Z" />
</g>
<g id="#020202ff">
<path fill="#020202" opacity="1.00" d=" M 177.14 409.97 C 176.97 407.79 180.05 407.91 180.22 409.94 C 180.58 417.98 180.10 426.04 180.32 434.08 C 183.41 434.47 186.56 433.85 189.63 434.41 C 191.50 434.69 191.54 436.73 191.56 438.20 C 186.88 438.29 182.20 438.31 177.53 438.23 C 176.08 428.89 176.17 419.34 177.14 409.97 Z" />
</g>
</svg>
