<?xml version="1.0" encoding="UTF-8" ?>
<!DOCTYPE svg PUBLIC "-//W3C//DTD SVG 1.1//EN" "http://www.w3.org/Graphics/SVG/1.1/DTD/svg11.dtd">
<svg width="809pt" height="799pt" viewBox="0 0 809 799" version="1.1" xmlns="http://www.w3.org/2000/svg">
<path fill="#ffffff" opacity="1.00" d=" M 0.00 0.00 L 809.00 0.00 L 809.00 597.96 C 802.01 589.26 792.63 582.94 783.95 576.08 C 768.71 564.37 752.84 553.38 738.93 540.06 C 735.32 536.30 731.56 532.46 729.45 527.63 C 728.35 525.01 728.18 521.43 730.61 519.48 C 733.34 516.88 737.91 517.42 740.17 514.19 C 752.79 499.17 767.58 486.22 781.77 472.75 C 784.00 470.59 786.43 468.59 788.30 466.09 C 789.09 464.10 789.41 461.96 790.10 459.93 C 792.82 451.37 799.21 444.57 802.03 436.06 C 803.30 432.59 803.73 428.90 804.08 425.25 C 795.09 420.57 787.62 413.61 780.09 406.96 C 765.85 394.29 751.18 381.29 733.18 374.27 C 732.88 371.87 731.98 369.29 729.37 368.62 C 722.25 366.57 714.69 370.99 707.67 368.37 C 706.70 366.07 706.97 363.49 706.88 361.06 C 707.03 354.75 706.71 348.41 707.35 342.12 C 708.43 332.78 707.96 323.36 708.08 313.98 C 708.09 306.53 707.00 298.58 702.24 292.57 C 693.00 256.71 679.00 221.99 659.54 190.43 C 638.88 156.60 612.28 126.64 582.38 100.72 C 537.03 61.45 484.69 31.32 431.24 4.59 C 429.26 3.63 427.28 2.36 425.00 2.49 C 363.96 2.50 302.92 2.51 241.88 2.49 C 240.39 2.46 238.92 2.75 237.53 3.30 C 187.29 22.21 137.37 43.47 92.98 74.06 C 58.17 97.96 27.27 128.29 5.67 164.77 C 4.70 166.33 5.08 168.24 4.97 169.98 C 5.13 195.68 4.81 221.39 5.13 247.09 C 5.20 269.72 11.73 291.76 20.47 312.46 C 34.84 346.44 54.78 377.63 71.48 410.44 C 77.20 421.75 82.46 433.30 86.71 445.25 C 67.54 482.86 38.19 514.01 17.88 550.93 C 13.33 559.18 9.22 567.69 5.70 576.43 C 4.93 578.18 4.99 580.12 4.97 581.99 C 5.03 591.33 5.00 600.67 4.98 610.01 C 4.77 613.56 6.81 616.64 8.04 619.83 C 22.95 654.43 43.33 687.09 70.51 713.39 C 96.56 739.18 128.67 758.36 162.81 771.38 C 197.13 784.55 233.39 791.94 269.80 796.34 C 273.21 796.64 276.63 796.47 280.04 796.50 C 330.03 796.51 380.02 796.48 430.00 796.52 C 433.12 796.75 435.43 794.29 437.97 792.90 C 466.44 774.97 494.41 754.86 514.88 727.76 C 529.31 708.98 539.11 686.92 544.56 663.92 C 546.12 663.56 548.50 664.06 549.10 662.06 C 552.20 653.73 547.31 644.87 549.40 636.42 C 550.44 633.09 554.75 633.51 557.29 634.68 C 564.37 637.82 572.27 639.47 579.99 638.27 C 591.10 637.37 601.88 634.31 612.95 633.14 C 619.96 632.59 627.00 631.38 634.04 632.24 C 636.81 632.57 639.60 632.62 642.40 632.55 C 643.63 632.84 644.86 633.15 646.11 633.45 C 648.22 631.93 650.31 630.10 652.98 629.66 C 657.34 631.47 661.61 634.09 666.57 633.51 C 677.35 633.01 688.17 632.65 698.96 633.28 C 707.29 634.31 715.70 633.72 724.07 634.20 C 733.00 635.23 742.04 635.17 750.98 634.21 C 760.01 633.73 769.37 632.79 777.57 628.69 C 781.67 626.68 785.16 623.65 788.77 620.89 C 795.77 615.17 802.55 609.16 809.00 602.83 L 809.00 799.00 L 0.00 799.00 L 0.00 0.00 Z" />
<path fill="#000000" opacity="1.00" d=" M 237.53 3.30 C 238.92 2.75 240.39 2.46 241.88 2.49 C 302.92 2.51 363.96 2.50 425.00 2.49 C 427.28 2.36 429.26 3.63 431.24 4.59 C 484.69 31.32 537.03 61.45 582.38 100.72 C 612.28 126.64 638.88 156.60 659.54 190.43 C 679.00 221.99 693.00 256.71 702.24 292.57 C 702.28 319.72 702.21 346.87 702.27 374.02 C 701.79 376.69 704.64 378.18 706.93 377.30 C 715.44 375.23 724.41 370.35 733.18 374.27 C 751.18 381.29 765.85 394.29 780.09 406.96 C 787.62 413.61 795.09 420.57 804.08 425.25 C 803.73 428.90 803.30 432.59 802.03 436.06 C 799.21 444.57 792.82 451.37 790.10 459.93 C 789.41 461.96 789.09 464.10 788.30 466.09 C 786.43 468.59 784.00 470.59 781.77 472.75 C 767.58 486.22 752.79 499.17 740.17 514.19 C 737.91 517.42 733.34 516.88 730.61 519.48 C 728.18 521.43 728.35 525.01 729.45 527.63 C 731.56 532.46 735.32 536.30 738.93 540.06 C 752.84 553.38 768.71 564.37 783.95 576.08 C 792.63 582.94 802.01 589.26 809.00 597.96 L 809.00 602.83 C 802.55 609.16 795.77 615.17 788.77 620.89 C 785.16 623.65 781.67 626.68 777.57 628.69 C 754.03 629.90 730.52 627.76 707.00 627.48 C 693.38 627.76 679.28 628.07 666.57 633.51 C 661.61 634.09 657.34 631.47 652.98 629.66 C 650.31 630.10 648.22 631.93 646.11 633.45 C 644.86 633.15 643.63 632.84 642.40 632.55 C 625.85 626.85 607.99 627.62 590.94 630.32 C 575.65 632.74 559.65 633.92 544.75 628.82 C 544.62 640.52 545.01 652.23 544.56 663.92 C 539.11 686.92 529.31 708.98 514.88 727.76 C 494.41 754.86 466.44 774.97 437.97 792.90 C 435.43 794.29 433.12 796.75 430.00 796.52 C 380.02 796.48 330.03 796.51 280.04 796.50 C 276.63 796.47 273.21 796.64 269.80 796.34 C 233.39 791.94 197.13 784.55 162.81 771.38 C 128.67 758.36 96.56 739.18 70.51 713.39 C 43.33 687.09 22.95 654.43 8.04 619.83 C 6.81 616.64 4.77 613.56 4.98 610.01 C 5.00 600.67 5.03 591.33 4.97 581.99 C 4.99 580.12 4.93 578.18 5.70 576.43 C 9.22 567.69 13.33 559.18 17.88 550.93 C 38.19 514.01 67.54 482.86 86.71 445.25 C 82.46 433.30 77.20 421.75 71.48 410.44 C 54.78 377.63 34.84 346.44 20.47 312.46 C 11.73 291.76 5.20 269.72 5.13 247.09 C 4.81 221.39 5.13 195.68 4.97 169.98 C 5.08 168.24 4.70 166.33 5.67 164.77 C 27.27 128.29 58.17 97.96 92.98 74.06 C 137.37 43.47 187.29 22.21 237.53 3.30 M 249.13 18.77 C 195.85 30.84 145.73 53.52 97.51 78.70 C 95.61 80.15 94.70 82.52 93.24 84.35 C 83.78 97.36 71.76 108.16 60.25 119.30 C 44.82 134.13 29.14 149.91 21.06 170.14 C 13.12 189.38 13.93 211.34 20.48 230.85 C 24.07 220.09 27.33 208.68 34.90 199.94 C 38.99 195.08 44.82 192.30 50.75 190.39 C 50.67 190.66 50.51 191.21 50.43 191.49 C 43.07 198.14 38.94 207.45 35.56 216.58 C 28.66 236.28 25.91 257.23 25.53 278.03 C 25.79 291.11 26.66 304.45 31.13 316.86 C 33.72 324.06 38.06 331.61 45.58 334.47 C 50.66 336.52 56.20 335.17 61.06 333.21 C 60.21 343.75 59.90 354.59 63.16 364.79 C 66.75 377.08 75.55 387.42 86.41 394.01 C 87.27 390.64 88.45 387.34 90.28 384.38 C 96.01 374.63 106.07 368.76 113.40 360.42 C 117.72 355.61 120.87 349.69 121.99 343.30 C 117.21 337.04 108.98 334.94 104.04 328.88 C 100.42 324.29 100.52 318.02 101.68 312.57 C 105.18 312.93 108.89 313.09 111.95 315.03 C 118.64 318.97 121.22 327.14 127.75 331.28 C 132.21 333.98 138.04 334.56 142.93 332.80 C 152.49 327.01 161.18 319.11 166.56 309.21 C 167.75 308.96 168.94 308.73 170.14 308.53 C 175.36 311.58 178.56 317.21 178.08 323.33 C 188.35 327.07 199.03 323.01 208.85 319.85 C 213.89 318.04 220.58 317.97 223.73 323.09 C 220.16 324.02 214.38 323.16 213.55 327.99 C 206.36 327.90 199.17 328.13 191.99 328.35 C 183.72 328.47 174.49 328.56 167.73 323.03 C 162.31 332.81 153.99 340.50 145.97 348.12 C 144.82 348.16 143.67 348.31 142.53 348.42 C 141.56 350.59 140.53 352.79 138.77 354.45 C 128.48 362.87 118.22 371.48 109.40 381.48 C 102.05 389.87 95.88 399.77 93.94 410.91 C 91.48 424.55 95.25 438.58 101.76 450.58 C 118.67 450.37 135.59 450.62 152.50 450.45 C 159.90 453.49 166.60 458.10 172.20 463.80 C 184.41 475.56 192.91 490.91 206.73 501.06 C 214.66 507.02 224.26 510.65 234.13 511.59 C 235.22 506.81 237.28 502.19 240.61 498.55 C 248.97 489.16 261.92 485.46 270.00 475.75 C 286.74 475.74 303.47 475.78 320.21 475.73 C 327.70 487.69 345.61 487.86 351.19 501.51 C 352.83 501.51 354.49 501.55 356.14 501.48 C 356.72 508.82 358.51 518.22 366.11 521.36 C 365.87 525.21 365.19 529.07 365.62 532.94 C 366.20 541.38 370.18 549.07 371.46 557.38 C 390.27 555.95 409.20 559.65 427.96 557.05 C 431.08 556.47 436.30 555.24 435.47 551.01 C 434.32 547.45 431.33 544.86 428.42 542.69 C 425.81 539.29 428.10 533.10 423.03 531.43 L 422.53 531.95 C 420.73 516.92 419.32 501.53 413.55 487.39 C 409.68 477.75 402.36 468.91 392.20 465.69 C 391.65 461.99 391.05 458.19 389.15 454.91 C 384.41 446.57 375.57 441.33 371.51 432.52 C 367.50 421.84 367.41 410.25 367.50 399.00 C 367.43 387.29 367.88 375.45 365.79 363.87 C 364.43 356.81 361.57 349.23 355.13 345.32 L 355.08 345.17 C 353.85 344.58 352.62 343.99 351.39 343.42 C 351.22 340.17 350.92 336.78 349.09 333.99 C 347.42 331.08 344.35 329.50 341.44 328.11 L 340.87 327.67 C 340.25 321.41 337.53 315.34 333.17 310.80 C 328.64 306.20 322.38 303.72 316.09 302.77 L 315.79 302.98 C 309.00 291.94 298.64 282.68 286.02 279.06 C 270.09 274.31 253.12 277.20 237.47 281.65 C 214.09 288.39 192.25 299.38 169.26 307.24 C 167.79 307.21 166.54 308.69 164.96 308.50 C 155.80 309.44 146.24 308.93 137.67 305.34 C 134.23 303.79 130.60 301.58 129.28 297.85 C 127.83 294.08 129.86 290.05 132.39 287.27 C 139.47 294.55 150.00 297.96 160.04 296.76 C 175.43 295.14 189.21 287.54 203.51 282.20 C 202.86 278.56 201.15 275.12 198.32 272.71 C 190.81 266.00 180.59 263.96 171.99 259.10 C 168.54 257.18 164.93 254.24 164.79 249.95 C 164.97 247.07 165.75 243.79 168.00 241.84 C 180.06 251.66 194.76 257.84 209.90 261.09 C 226.21 264.59 243.91 264.33 259.19 257.05 C 249.79 246.54 244.38 232.17 245.85 218.03 C 246.61 211.60 249.06 204.72 254.60 200.90 C 255.10 218.99 259.77 237.55 271.02 252.04 C 282.18 266.43 298.41 276.38 315.56 282.00 C 317.10 267.67 314.25 253.38 314.59 239.05 C 314.76 232.61 315.96 225.84 320.41 220.89 C 321.55 223.09 322.53 225.38 323.31 227.74 C 332.61 254.20 333.04 283.00 343.62 309.08 C 348.77 321.89 358.27 334.01 371.89 338.24 C 380.34 328.46 376.27 314.17 382.24 303.34 C 384.20 299.74 388.08 297.88 392.00 297.32 C 388.47 319.48 384.38 341.58 382.52 363.96 C 380.91 385.59 380.24 407.93 386.82 428.87 C 390.86 441.98 399.36 454.45 412.14 460.27 C 414.49 450.23 414.14 439.64 417.70 429.88 C 419.40 425.49 422.65 420.83 427.58 419.97 C 427.34 450.71 427.04 481.76 433.06 512.05 C 436.43 528.19 441.65 544.74 452.98 557.17 C 480.90 560.86 508.94 553.47 536.88 556.68 C 545.39 557.86 554.80 560.37 560.12 567.68 C 554.09 571.36 546.97 572.79 539.97 572.53 C 523.46 571.96 507.52 566.57 490.99 566.28 C 483.21 566.30 474.94 567.66 468.67 572.59 C 497.28 582.97 528.72 581.08 557.26 591.67 C 569.59 596.19 581.10 605.09 585.30 617.96 C 617.54 614.73 649.92 617.59 682.18 619.17 C 705.71 620.08 729.51 621.19 752.85 617.30 C 767.76 614.68 783.20 609.52 793.62 597.97 C 764.51 572.75 729.34 554.46 704.47 524.48 C 692.33 509.84 683.41 492.02 681.50 472.94 C 680.96 455.65 689.77 439.38 688.23 422.03 C 687.55 413.42 683.33 405.22 676.70 399.70 C 690.56 366.76 691.82 330.06 687.80 294.98 C 685.56 271.20 676.67 248.69 666.76 227.18 C 650.84 193.91 631.16 162.05 605.72 135.18 C 602.15 131.45 598.46 127.70 593.92 125.17 C 584.77 119.99 574.23 118.02 565.01 113.00 C 560.79 110.70 557.12 107.57 553.34 104.64 C 537.70 92.36 522.73 79.24 507.49 66.47 C 489.52 51.44 470.97 36.70 449.89 26.24 C 435.22 19.01 419.36 14.18 403.11 12.33 C 351.94 5.37 299.48 7.05 249.13 18.77 M 707.29 389.19 C 700.74 417.92 694.81 447.49 697.89 477.08 C 699.31 488.66 702.57 500.60 710.42 509.55 C 711.32 510.42 712.45 512.28 713.88 510.91 C 726.92 503.99 739.92 496.76 751.51 487.53 C 762.12 479.02 771.52 468.27 775.80 455.14 C 780.71 440.29 778.74 424.03 773.58 409.52 C 763.56 405.79 754.86 399.40 745.24 394.84 C 733.55 389.07 720.14 387.35 707.29 389.19 M 85.76 478.85 C 76.14 488.89 72.15 503.40 73.49 517.07 C 74.42 528.52 77.54 540.64 86.43 548.58 C 101.45 562.53 122.80 566.68 142.64 567.55 C 138.94 554.27 135.30 540.48 137.60 526.60 C 142.53 522.78 148.76 520.49 155.05 521.33 C 166.18 522.57 175.47 529.70 183.40 537.12 C 186.26 527.72 188.24 517.88 187.49 508.01 C 186.83 495.60 181.21 483.43 171.77 475.26 C 160.13 465.05 144.27 460.65 128.98 460.99 C 113.10 461.37 96.74 467.01 85.76 478.85 M 274.73 490.94 C 266.23 492.19 257.68 495.19 251.28 501.12 C 244.14 507.52 240.57 516.87 239.04 526.15 C 237.53 526.30 235.70 526.39 234.90 527.94 C 232.66 531.53 232.79 535.99 233.07 540.07 C 233.38 543.39 234.71 548.22 239.02 547.57 C 239.47 544.89 241.08 542.30 243.96 541.84 C 252.55 540.29 261.18 544.04 269.78 542.26 C 271.77 546.54 274.37 550.52 276.25 554.86 C 280.65 564.49 281.83 575.75 278.91 585.95 C 274.00 595.96 258.51 592.49 254.11 603.08 C 260.21 607.50 266.77 611.38 273.90 613.88 C 285.73 618.24 299.00 618.61 310.98 614.64 C 327.54 609.25 341.05 596.58 349.51 581.59 C 358.20 566.15 362.08 547.30 357.03 530.03 C 353.80 518.46 346.07 508.40 336.13 501.75 C 332.83 499.30 328.88 497.95 325.60 495.48 C 325.50 491.21 321.35 488.64 317.80 487.26 C 308.31 483.92 297.93 484.04 288.10 485.56 C 283.39 486.48 278.32 487.51 274.73 490.94 M 38.34 541.37 C 28.02 559.04 19.69 578.02 15.10 598.02 C 18.80 600.91 22.15 604.26 24.83 608.13 C 34.86 622.55 38.65 640.05 46.54 655.56 C 51.76 665.97 59.80 675.79 71.21 679.54 C 70.83 681.62 70.89 685.16 68.10 685.51 C 63.80 684.54 61.31 679.87 56.89 679.39 C 55.27 680.33 56.02 682.68 55.59 684.24 C 63.01 690.99 68.18 699.70 74.73 707.23 C 80.32 713.63 87.77 718.94 96.37 720.08 C 123.64 744.37 158.77 757.18 193.60 766.27 C 197.23 770.26 202.85 771.24 207.97 771.72 C 223.22 772.81 238.44 769.32 253.70 770.82 C 255.30 773.12 256.85 776.08 260.03 776.27 C 263.69 776.40 267.37 776.41 271.03 776.56 L 271.94 776.30 L 271.86 776.70 C 305.48 780.17 339.22 783.65 373.05 783.69 C 390.65 783.33 408.49 782.55 425.50 777.65 C 431.78 775.69 438.20 773.49 443.47 769.42 L 443.84 769.40 C 445.82 767.83 447.70 766.06 450.04 765.03 C 470.84 754.89 490.68 741.33 504.29 722.30 C 515.49 706.83 521.99 688.28 524.28 669.40 C 528.09 666.98 529.53 662.37 529.92 658.10 C 531.28 644.85 527.24 631.58 529.35 618.36 C 539.53 616.31 549.84 620.85 559.99 618.55 C 562.67 618.02 564.39 615.81 565.22 613.35 C 560.49 612.09 557.45 608.16 554.03 604.99 C 550.06 601.36 544.22 601.57 539.35 602.88 C 512.30 596.69 484.06 594.20 458.47 582.78 C 458.26 582.38 457.84 581.58 457.62 581.17 C 454.61 573.41 445.77 570.56 438.46 568.36 C 425.92 565.08 412.79 564.44 399.90 565.37 C 391.65 566.05 383.34 567.36 375.66 570.54 C 372.02 572.02 368.57 574.22 366.25 577.46 C 363.22 587.74 357.26 597.10 349.43 604.40 C 338.09 614.90 323.22 621.10 308.00 623.17 C 287.36 626.02 265.43 621.71 248.18 609.77 C 236.52 601.81 227.82 589.83 223.59 576.38 C 221.33 561.89 226.52 547.47 224.96 532.97 C 224.64 527.41 220.80 521.43 214.64 521.62 C 213.23 519.85 212.24 517.59 210.08 516.58 C 206.25 514.54 201.50 514.32 198.31 511.13 C 198.09 529.48 189.72 547.80 175.00 559.01 C 146.64 580.78 101.67 578.30 77.16 551.76 C 65.74 539.56 60.74 522.51 61.16 506.04 C 53.26 517.61 45.39 529.24 38.34 541.37 M 152.28 531.63 C 150.00 534.61 148.35 538.15 148.47 541.99 C 148.70 549.75 152.33 557.22 157.77 562.70 C 162.62 558.57 166.82 552.69 166.28 546.01 C 166.04 538.49 159.10 533.19 152.28 531.63 M 249.29 551.96 C 245.13 556.04 241.45 561.00 240.46 566.88 C 239.01 574.12 241.36 581.39 244.13 588.02 C 248.29 588.11 252.59 587.48 256.17 585.23 C 260.63 582.44 264.83 579.11 269.90 577.46 C 268.00 570.37 267.33 562.40 262.30 556.65 C 259.13 552.89 253.98 551.85 249.29 551.96 Z" />
<path fill="#c0c0c0" opacity="1.00" d=" M 249.13 18.77 C 299.48 7.05 351.94 5.37 403.11 12.33 C 419.36 14.18 435.22 19.01 449.89 26.24 C 470.97 36.70 489.52 51.44 507.49 66.47 C 522.73 79.24 537.70 92.36 553.34 104.64 C 557.12 107.57 560.79 110.70 565.01 113.00 C 574.23 118.02 584.77 119.99 593.92 125.17 C 598.46 127.70 602.15 131.45 605.72 135.18 C 631.16 162.05 650.84 193.91 666.76 227.18 C 676.67 248.69 685.56 271.20 687.80 294.98 C 691.82 330.06 690.56 366.76 676.70 399.70 C 683.33 405.22 687.55 413.42 688.23 422.03 C 689.77 439.38 680.96 455.65 681.50 472.94 C 683.41 492.02 692.33 509.84 704.47 524.48 C 729.34 554.46 764.51 572.75 793.62 597.97 C 783.20 609.52 767.76 614.68 752.85 617.30 C 729.51 621.19 705.71 620.08 682.18 619.17 C 649.92 617.59 617.54 614.73 585.30 617.96 C 581.10 605.09 569.59 596.19 557.26 591.67 C 528.72 581.08 497.28 582.97 468.67 572.59 C 474.94 567.66 483.21 566.30 490.99 566.28 C 507.52 566.57 523.46 571.96 539.97 572.53 C 546.97 572.79 554.09 571.36 560.12 567.68 C 554.80 560.37 545.39 557.86 536.88 556.68 C 508.94 553.47 480.90 560.86 452.98 557.17 C 441.65 544.74 436.43 528.19 433.06 512.05 C 427.04 481.76 427.34 450.71 427.58 419.97 C 422.65 420.83 419.40 425.49 417.70 429.88 C 414.14 439.64 414.49 450.23 412.14 460.27 C 399.36 454.45 390.86 441.98 386.82 428.87 C 380.24 407.93 380.91 385.59 382.52 363.96 C 384.38 341.58 388.47 319.48 392.00 297.32 C 388.08 297.88 384.20 299.74 382.24 303.34 C 376.27 314.17 380.34 328.46 371.89 338.24 C 358.27 334.01 348.77 321.89 343.62 309.08 C 333.04 283.00 332.61 254.20 323.31 227.74 C 322.53 225.38 321.55 223.09 320.41 220.89 C 315.96 225.84 314.76 232.61 314.59 239.05 C 314.25 253.38 317.10 267.67 315.56 282.00 C 298.41 276.38 282.18 266.43 271.02 252.04 C 259.77 237.55 255.10 218.99 254.60 200.90 C 249.06 204.72 246.61 211.60 245.85 218.03 C 244.38 232.17 249.79 246.54 259.19 257.05 C 243.91 264.33 226.21 264.59 209.90 261.09 C 194.76 257.84 180.06 251.66 168.00 241.84 C 165.75 243.79 164.97 247.07 164.79 249.95 C 164.93 254.24 168.54 257.18 171.99 259.10 C 180.59 263.96 190.81 266.00 198.32 272.71 C 201.15 275.12 202.86 278.56 203.51 282.20 C 189.21 287.54 175.43 295.14 160.04 296.76 C 150.00 297.96 139.47 294.55 132.39 287.27 C 129.86 290.05 127.83 294.08 129.28 297.85 C 130.60 301.58 134.23 303.79 137.67 305.34 C 146.24 308.93 155.80 309.44 164.96 308.50 C 166.54 308.69 167.79 307.21 169.26 307.24 C 169.48 307.56 169.92 308.21 170.14 308.53 C 168.94 308.73 167.75 308.96 166.56 309.21 C 161.18 319.11 152.49 327.01 142.93 332.80 C 138.04 334.56 132.21 333.98 127.75 331.28 C 121.22 327.14 118.64 318.97 111.95 315.03 C 108.89 313.09 105.18 312.93 101.68 312.57 C 100.52 318.02 100.42 324.29 104.04 328.88 C 108.98 334.94 117.21 337.04 121.99 343.30 C 120.87 349.69 117.72 355.61 113.40 360.42 C 106.07 368.76 96.01 374.63 90.28 384.38 C 88.45 387.34 87.27 390.64 86.41 394.01 C 75.55 387.42 66.75 377.08 63.16 364.79 C 59.90 354.59 60.21 343.75 61.06 333.21 C 56.20 335.17 50.66 336.52 45.58 334.47 C 38.06 331.61 33.72 324.06 31.13 316.86 C 26.66 304.45 25.79 291.11 25.53 278.03 C 25.91 257.23 28.66 236.28 35.56 216.58 C 38.94 207.45 43.07 198.14 50.43 191.49 C 50.51 191.21 50.67 190.66 50.75 190.39 C 44.82 192.30 38.99 195.08 34.90 199.94 C 27.33 208.68 24.07 220.09 20.48 230.85 C 13.93 211.34 13.12 189.38 21.06 170.14 C 29.14 149.91 44.82 134.13 60.25 119.30 C 71.76 108.16 83.78 97.36 93.24 84.35 C 94.70 82.52 95.61 80.15 97.51 78.70 C 145.73 53.52 195.85 30.84 249.13 18.77 M 397.53 71.96 C 397.22 70.25 396.84 68.56 396.31 66.91 C 395.91 69.17 395.85 71.49 396.43 73.72 C 395.54 76.72 395.07 79.82 394.82 82.93 C 387.03 162.34 391.30 242.65 403.72 321.37 C 402.24 325.79 403.21 330.46 402.93 335.00 C 401.29 347.27 402.17 359.70 401.97 372.04 C 402.42 380.14 404.50 389.87 412.04 394.26 C 416.81 390.95 418.88 385.36 421.30 380.33 C 423.42 373.42 425.07 366.30 425.22 359.04 C 427.34 347.75 424.97 336.37 424.95 325.04 C 419.52 274.69 411.94 224.53 407.64 174.06 C 406.75 169.29 407.39 164.40 406.42 159.64 C 405.56 155.48 406.42 151.23 405.85 147.04 C 404.03 137.46 405.97 127.60 404.19 118.01 C 404.00 111.36 403.89 104.67 404.24 98.03 C 405.44 91.74 404.82 85.34 405.06 78.99 C 405.94 72.31 406.36 65.59 406.88 58.88 C 402.74 62.40 400.41 67.46 397.53 71.96 M 235.42 123.38 C 224.24 129.63 216.05 140.22 210.68 151.66 C 206.93 160.32 204.13 170.37 207.39 179.62 C 209.16 184.86 213.57 188.63 218.56 190.71 C 216.91 179.94 216.87 168.50 221.50 158.42 C 227.96 143.62 242.59 134.43 249.16 119.69 C 244.33 119.58 239.62 121.07 235.42 123.38 M 112.85 160.77 C 103.56 167.72 97.46 178.19 93.81 189.05 C 89.97 200.77 88.50 214.02 93.26 225.71 C 96.15 233.09 102.51 238.82 110.04 241.18 C 109.56 237.36 109.23 233.37 107.27 229.95 C 103.48 222.89 100.24 215.19 100.48 207.01 C 100.66 202.12 100.48 196.67 103.60 192.58 C 108.93 184.70 117.13 179.51 123.34 172.43 C 127.21 167.23 131.38 161.89 132.20 155.24 C 125.32 154.37 118.33 156.62 112.85 160.77 M 544.64 272.50 C 546.07 291.52 547.57 310.92 554.41 328.90 C 559.09 341.36 567.68 352.96 580.06 358.56 C 579.51 353.91 578.68 349.29 577.19 344.85 C 572.95 331.22 564.23 319.45 560.56 305.61 C 557.55 294.84 557.76 283.44 559.60 272.49 C 554.61 272.48 549.63 272.47 544.64 272.50 M 631.06 558.94 C 640.68 573.04 655.32 584.10 672.19 587.68 C 685.22 590.70 698.88 588.42 711.11 583.37 C 708.12 582.87 705.08 582.96 702.08 582.93 C 691.24 582.61 680.33 580.36 670.66 575.34 C 659.10 569.54 650.00 559.79 643.11 549.00 C 631.67 531.15 625.26 510.77 615.90 491.87 C 613.08 515.02 617.71 539.55 631.06 558.94 Z" />
<path fill="#b9b9b9" opacity="1.00" d=" M 397.53 71.96 C 400.41 67.46 402.74 62.40 406.88 58.88 C 406.36 65.59 405.94 72.31 405.06 78.99 C 404.82 85.34 405.44 91.74 404.24 98.03 C 403.89 104.67 404.00 111.36 404.19 118.01 C 405.97 127.60 404.03 137.46 405.85 147.04 C 406.42 151.23 405.56 155.48 406.42 159.64 C 407.39 164.40 406.75 169.29 407.64 174.06 C 411.94 224.53 419.52 274.69 424.95 325.04 C 424.97 336.37 427.34 347.75 425.22 359.04 C 425.07 366.30 423.42 373.42 421.30 380.33 C 418.88 385.36 416.81 390.95 412.04 394.26 C 404.50 389.87 402.42 380.14 401.97 372.04 C 402.17 359.70 401.29 347.27 402.93 335.00 C 403.21 330.46 402.24 325.79 403.72 321.37 C 407.24 343.43 411.91 365.26 416.66 387.07 C 417.31 379.46 416.40 371.83 416.21 364.22 C 411.49 273.39 401.55 182.91 397.66 92.03 C 397.19 85.93 397.76 79.73 396.43 73.72 C 395.85 71.49 395.91 69.17 396.31 66.91 C 396.84 68.56 397.22 70.25 397.53 71.96 Z" />
<path fill="#000000" opacity="1.00" d=" M 396.43 73.72 C 397.76 79.73 397.19 85.93 397.66 92.03 C 401.55 182.91 411.49 273.39 416.21 364.22 C 416.40 371.83 417.31 379.46 416.66 387.07 C 411.91 365.26 407.24 343.43 403.72 321.37 C 391.30 242.65 387.03 162.34 394.82 82.93 C 395.07 79.82 395.54 76.72 396.43 73.72 Z" />
<path fill="#000000" opacity="1.00" d=" M 235.42 123.38 C 239.62 121.07 244.33 119.58 249.16 119.69 C 242.59 134.43 227.96 143.62 221.50 158.42 C 216.87 168.50 216.91 179.94 218.56 190.71 C 213.57 188.63 209.16 184.86 207.39 179.62 C 204.13 170.37 206.93 160.32 210.68 151.66 C 216.05 140.22 224.24 129.63 235.42 123.38 Z" />
<path fill="#000000" opacity="1.00" d=" M 112.85 160.77 C 118.33 156.62 125.32 154.37 132.20 155.24 C 131.38 161.89 127.21 167.23 123.34 172.43 C 117.13 179.51 108.93 184.70 103.60 192.58 C 100.48 196.67 100.66 202.12 100.48 207.01 C 100.24 215.19 103.48 222.89 107.27 229.95 C 109.23 233.37 109.56 237.36 110.04 241.18 C 102.51 238.82 96.15 233.09 93.26 225.71 C 88.50 214.02 89.97 200.77 93.81 189.05 C 97.46 178.19 103.56 167.72 112.85 160.77 Z" />
<path fill="#000000" opacity="1.00" d=" M 544.64 272.50 C 549.63 272.47 554.61 272.48 559.60 272.49 C 557.76 283.44 557.55 294.84 560.56 305.61 C 564.23 319.45 572.95 331.22 577.19 344.85 C 578.68 349.29 579.51 353.91 580.06 358.56 C 567.68 352.96 559.09 341.36 554.41 328.90 C 547.57 310.92 546.07 291.52 544.64 272.50 Z" />
<path fill="#ffffff" opacity="1.00" d=" M 237.47 281.65 C 253.12 277.20 270.09 274.31 286.02 279.06 C 298.64 282.68 309.00 291.94 315.79 302.98 C 311.67 306.64 305.89 304.55 301.03 304.15 C 291.62 303.18 281.91 300.79 272.59 303.58 C 268.71 304.49 265.35 307.83 265.04 311.90 C 265.65 314.50 268.68 315.24 270.83 316.18 C 284.19 321.04 298.75 318.18 311.86 313.92 C 316.51 312.57 320.60 309.90 325.08 308.15 C 326.69 308.69 327.54 310.30 328.49 311.59 C 332.25 317.19 335.12 323.75 340.87 327.67 L 341.44 328.11 C 344.35 329.50 347.42 331.08 349.09 333.99 C 350.92 336.78 351.22 340.17 351.39 343.42 C 352.62 343.99 353.85 344.58 355.08 345.17 L 355.13 345.32 C 356.26 349.46 358.58 353.16 359.62 357.33 C 363.56 372.16 364.25 388.09 359.75 402.88 C 358.98 405.50 357.61 407.88 356.07 410.12 C 351.37 400.31 341.63 393.96 331.88 389.87 C 319.88 385.11 305.35 383.83 293.86 390.61 C 286.92 394.58 282.48 401.67 280.08 409.13 C 290.00 403.35 301.41 398.93 313.08 400.59 C 326.98 402.27 338.63 411.11 348.30 420.66 C 352.90 425.18 357.08 430.08 361.40 434.86 C 362.45 433.67 363.52 432.49 364.51 431.24 C 366.90 431.22 369.34 431.41 371.51 432.52 C 375.57 441.33 384.41 446.57 389.15 454.91 C 391.05 458.19 391.65 461.99 392.20 465.69 C 392.85 472.79 399.49 476.60 404.63 480.43 C 409.47 483.89 412.55 489.68 412.02 495.70 C 406.31 494.89 399.72 493.89 394.88 497.81 C 392.10 500.33 389.06 502.81 387.14 506.08 C 386.46 509.27 390.13 510.78 392.60 511.48 C 399.69 513.08 407.41 510.54 414.20 513.78 C 417.61 515.51 417.22 519.81 417.16 523.04 C 416.99 524.85 417.08 527.30 415.04 528.11 C 411.88 529.47 408.31 529.05 404.99 528.76 C 396.75 527.75 388.45 526.08 380.14 527.21 C 377.26 527.59 374.78 529.18 372.32 530.60 C 371.68 526.76 370.57 522.21 366.11 521.36 C 365.30 516.38 367.41 511.43 371.19 508.20 C 373.87 505.53 377.51 503.82 379.65 500.64 C 381.43 497.32 379.07 493.60 376.57 491.42 C 373.90 490.20 370.56 490.55 368.00 491.89 C 365.02 493.96 363.83 497.71 361.03 499.98 C 359.56 500.89 357.80 501.13 356.14 501.48 C 354.49 501.55 352.83 501.51 351.19 501.51 C 345.61 487.86 327.70 487.69 320.21 475.73 C 318.15 473.05 314.73 472.26 311.65 471.37 C 303.98 469.09 295.90 470.11 288.03 469.99 C 281.78 470.43 274.77 471.29 270.00 475.75 C 261.92 485.46 248.97 489.16 240.61 498.55 C 237.28 502.19 235.22 506.81 234.13 511.59 C 224.26 510.65 214.66 507.02 206.73 501.06 C 192.91 490.91 184.41 475.56 172.20 463.80 C 166.60 458.10 159.90 453.49 152.50 450.45 C 150.29 444.06 142.42 444.83 137.00 444.83 C 127.66 444.25 118.43 446.88 109.11 445.80 C 107.58 445.73 106.46 444.60 105.63 443.44 C 99.03 433.60 94.38 421.09 98.30 409.30 C 101.08 399.04 108.37 391.01 115.27 383.27 C 119.52 378.82 124.18 374.75 127.98 369.87 C 131.90 365.04 137.44 360.85 138.77 354.45 C 140.53 352.79 141.56 350.59 142.53 348.42 C 143.67 348.31 144.82 348.16 145.97 348.12 C 151.02 348.88 154.35 352.82 157.73 356.22 C 161.50 360.06 167.81 361.43 172.40 358.22 C 188.50 364.96 206.42 364.19 223.52 363.78 C 240.71 364.09 257.91 364.28 275.09 363.67 C 280.46 363.80 285.72 362.70 290.92 361.51 C 295.72 360.30 300.47 362.16 305.02 363.50 C 310.55 364.64 316.35 363.53 321.57 361.59 C 323.98 360.86 324.80 357.64 323.22 355.75 C 320.19 351.73 315.34 349.73 310.67 348.31 C 305.25 346.48 299.34 346.59 293.78 347.71 C 289.90 348.36 287.12 351.34 284.09 353.55 C 277.61 351.64 270.80 351.15 264.08 351.38 C 242.65 352.04 221.44 357.08 199.93 355.56 C 192.37 354.89 184.53 353.32 178.24 348.82 C 177.44 347.12 176.91 344.70 174.69 344.40 C 170.81 343.72 166.84 343.98 162.93 343.79 C 162.78 339.61 165.32 335.66 169.36 334.39 C 179.34 331.13 189.78 334.62 199.98 334.07 C 204.92 334.10 211.51 333.27 213.55 327.99 C 214.38 323.16 220.16 324.02 223.73 323.09 C 220.58 317.97 213.89 318.04 208.85 319.85 C 199.03 323.01 188.35 327.07 178.08 323.33 C 178.56 317.21 175.36 311.58 170.14 308.53 C 169.92 308.21 169.48 307.56 169.26 307.24 C 192.25 299.38 214.09 288.39 237.47 281.65 M 143.42 377.32 C 138.84 379.69 133.60 383.25 133.27 388.92 C 133.74 393.88 138.23 397.25 142.48 399.12 C 144.66 393.50 147.52 387.02 153.59 384.75 C 158.55 383.07 163.56 385.74 167.49 388.58 C 177.33 396.01 184.20 406.50 193.35 414.66 C 195.61 411.39 196.06 407.20 194.65 403.49 C 190.97 392.70 182.50 384.46 177.91 374.11 C 166.53 371.09 154.04 372.23 143.42 377.32 Z" />
<path fill="#f5f5f5" opacity="1.00" d=" M 702.24 292.57 C 707.00 298.58 708.09 306.53 708.08 313.98 C 707.96 323.36 708.43 332.78 707.35 342.12 C 706.71 348.41 707.03 354.75 706.88 361.06 C 706.97 363.49 706.70 366.07 707.67 368.37 C 714.69 370.99 722.25 366.57 729.37 368.62 C 731.98 369.29 732.88 371.87 733.18 374.27 C 724.41 370.35 715.44 375.23 706.93 377.30 C 704.64 378.18 701.79 376.69 702.27 374.02 C 702.21 346.87 702.28 319.72 702.24 292.57 Z" />
<path fill="#f5f5f5" opacity="1.00" d=" M 272.59 303.58 C 281.91 300.79 291.62 303.18 301.03 304.15 C 305.89 304.55 311.67 306.64 315.79 302.98 L 316.09 302.77 C 322.38 303.72 328.64 306.20 333.17 310.80 C 337.53 315.34 340.25 321.41 340.87 327.67 C 335.12 323.75 332.25 317.19 328.49 311.59 C 327.54 310.30 326.69 308.69 325.08 308.15 C 320.60 309.90 316.51 312.57 311.86 313.92 C 298.75 318.18 284.19 321.04 270.83 316.18 C 268.68 315.24 265.65 314.50 265.04 311.90 C 265.35 307.83 268.71 304.49 272.59 303.58 Z" />
<path fill="#f5f5f5" opacity="1.00" d=" M 167.73 323.03 C 174.49 328.56 183.72 328.47 191.99 328.35 C 199.17 328.13 206.36 327.90 213.55 327.99 C 211.51 333.27 204.92 334.10 199.98 334.07 C 189.78 334.62 179.34 331.13 169.36 334.39 C 165.32 335.66 162.78 339.61 162.93 343.79 C 166.84 343.98 170.81 343.72 174.69 344.40 C 176.91 344.70 177.44 347.12 178.24 348.82 C 172.36 349.09 165.93 347.59 160.49 350.39 C 164.17 353.43 168.41 355.65 172.40 358.22 C 167.81 361.43 161.50 360.06 157.73 356.22 C 154.35 352.82 151.02 348.88 145.97 348.12 C 153.99 340.50 162.31 332.81 167.73 323.03 Z" />
<path fill="#f5f5f5" opacity="1.00" d=" M 355.13 345.32 C 361.57 349.23 364.43 356.81 365.79 363.87 C 367.88 375.45 367.43 387.29 367.50 399.00 C 367.41 410.25 367.50 421.84 371.51 432.52 C 369.34 431.41 366.90 431.22 364.51 431.24 C 367.11 426.91 362.13 424.09 359.61 421.40 C 356.49 418.53 355.60 414.19 356.07 410.12 C 357.61 407.88 358.98 405.50 359.75 402.88 C 364.25 388.09 363.56 372.16 359.62 357.33 C 358.58 353.16 356.26 349.46 355.13 345.32 Z" />
<path fill="#f5f5f5" opacity="1.00" d=" M 293.78 347.71 C 299.34 346.59 305.25 346.48 310.67 348.31 C 315.34 349.73 320.19 351.73 323.22 355.75 C 324.80 357.64 323.98 360.86 321.57 361.59 C 316.35 363.53 310.55 364.64 305.02 363.50 C 307.89 356.55 319.02 361.75 320.85 353.81 C 308.60 353.54 296.33 354.06 284.09 353.55 C 287.12 351.34 289.90 348.36 293.78 347.71 Z" />
<path fill="#000000" opacity="1.00" d=" M 160.49 350.39 C 165.93 347.59 172.36 349.09 178.24 348.82 C 184.53 353.32 192.37 354.89 199.93 355.56 C 221.44 357.08 242.65 352.04 264.08 351.38 C 270.80 351.15 277.61 351.64 284.09 353.55 C 296.33 354.06 308.60 353.54 320.85 353.81 C 319.02 361.75 307.89 356.55 305.02 363.50 C 300.47 362.16 295.72 360.30 290.92 361.51 C 285.72 362.70 280.46 363.80 275.09 363.67 C 273.11 361.91 270.86 360.44 268.27 359.77 C 259.46 357.20 250.12 357.14 241.04 357.81 C 234.94 358.54 228.14 359.26 223.52 363.78 C 206.42 364.19 188.50 364.96 172.40 358.22 C 168.41 355.65 164.17 353.43 160.49 350.39 Z" />
<path fill="#f5f5f5" opacity="1.00" d=" M 109.40 381.48 C 118.22 371.48 128.48 362.87 138.77 354.45 C 137.44 360.85 131.90 365.04 127.98 369.87 C 124.18 374.75 119.52 378.82 115.27 383.27 C 108.37 391.01 101.08 399.04 98.30 409.30 C 94.38 421.09 99.03 433.60 105.63 443.44 C 106.46 444.60 107.58 445.73 109.11 445.80 C 118.43 446.88 127.66 444.25 137.00 444.83 C 142.42 444.83 150.29 444.06 152.50 450.45 C 135.59 450.62 118.67 450.37 101.76 450.58 C 95.25 438.58 91.48 424.55 93.94 410.91 C 95.88 399.77 102.05 389.87 109.40 381.48 Z" />
<path fill="#f5f5f5" opacity="1.00" d=" M 223.52 363.78 C 228.14 359.26 234.94 358.54 241.04 357.81 C 250.12 357.14 259.46 357.20 268.27 359.77 C 270.86 360.44 273.11 361.91 275.09 363.67 C 257.91 364.28 240.71 364.09 223.52 363.78 Z" />
<path fill="#000000" opacity="1.00" d=" M 143.42 377.32 C 154.04 372.23 166.53 371.09 177.91 374.11 C 182.50 384.46 190.97 392.70 194.65 403.49 C 196.06 407.20 195.61 411.39 193.35 414.66 C 184.20 406.50 177.33 396.01 167.49 388.58 C 163.56 385.74 158.55 383.07 153.59 384.75 C 147.52 387.02 144.66 393.50 142.48 399.12 C 138.23 397.25 133.74 393.88 133.27 388.92 C 133.60 383.25 138.84 379.69 143.42 377.32 Z" />
<path fill="#000000" opacity="1.00" d=" M 293.86 390.61 C 305.35 383.83 319.88 385.11 331.88 389.87 C 341.63 393.96 351.37 400.31 356.07 410.12 C 355.60 414.19 356.49 418.53 359.61 421.40 C 362.13 424.09 367.11 426.91 364.51 431.24 C 363.52 432.49 362.45 433.67 361.40 434.86 C 357.08 430.08 352.90 425.18 348.30 420.66 C 338.63 411.11 326.98 402.27 313.08 400.59 C 301.41 398.93 290.00 403.35 280.08 409.13 C 282.48 401.67 286.92 394.58 293.86 390.61 Z" />
<path fill="#c0c0c0" opacity="1.00" d=" M 707.29 389.19 C 720.14 387.35 733.55 389.07 745.24 394.84 C 754.86 399.40 763.56 405.79 773.58 409.52 C 778.74 424.03 780.71 440.29 775.80 455.14 C 771.52 468.27 762.12 479.02 751.51 487.53 C 739.92 496.76 726.92 503.99 713.88 510.91 C 712.45 512.28 711.32 510.42 710.42 509.55 C 702.57 500.60 699.31 488.66 697.89 477.08 C 694.81 447.49 700.74 417.92 707.29 389.19 M 733.30 414.95 C 735.12 420.11 735.13 425.74 733.78 431.01 C 732.41 437.42 729.04 443.36 728.69 449.97 C 728.63 453.79 732.92 455.42 736.13 455.32 C 738.79 455.81 740.28 453.09 741.29 451.10 C 746.15 439.60 741.53 426.10 747.60 414.95 C 742.83 414.97 738.06 414.97 733.30 414.95 Z" />
<path fill="#000000" opacity="1.00" d=" M 733.30 414.95 C 738.06 414.97 742.83 414.97 747.60 414.95 C 741.53 426.10 746.15 439.60 741.29 451.10 C 740.28 453.09 738.79 455.81 736.13 455.32 C 732.92 455.42 728.63 453.79 728.69 449.97 C 729.04 443.36 732.41 437.42 733.78 431.01 C 735.13 425.74 735.12 420.11 733.30 414.95 Z" />
<path fill="#ffffff" opacity="1.00" d=" M 85.76 478.85 C 96.74 467.01 113.10 461.37 128.98 460.99 C 144.27 460.65 160.13 465.05 171.77 475.26 C 181.21 483.43 186.83 495.60 187.49 508.01 C 188.24 517.88 186.26 527.72 183.40 537.12 C 175.47 529.70 166.18 522.57 155.05 521.33 C 148.76 520.49 142.53 522.78 137.60 526.60 C 135.30 540.48 138.94 554.27 142.64 567.55 C 122.80 566.68 101.45 562.53 86.43 548.58 C 77.54 540.64 74.42 528.52 73.49 517.07 C 72.15 503.40 76.14 488.89 85.76 478.85 Z" />
<path fill="#f5f5f5" opacity="1.00" d=" M 392.20 465.69 C 402.36 468.91 409.68 477.75 413.55 487.39 C 419.32 501.53 420.73 516.92 422.53 531.95 C 417.68 537.44 410.43 540.14 403.41 541.53 C 392.51 542.84 380.71 542.94 371.07 536.92 C 371.15 539.52 370.61 542.48 372.39 544.68 C 375.33 549.12 380.29 551.65 385.38 552.72 C 392.12 554.15 399.11 555.38 405.99 554.20 C 411.70 553.48 417.69 552.81 422.64 549.62 C 425.23 547.96 426.79 545.21 428.42 542.69 C 431.33 544.86 434.32 547.45 435.47 551.01 C 436.30 555.24 431.08 556.47 427.96 557.05 C 409.20 559.65 390.27 555.95 371.46 557.38 C 370.18 549.07 366.20 541.38 365.62 532.94 C 365.19 529.07 365.87 525.21 366.11 521.36 C 370.57 522.21 371.68 526.76 372.32 530.60 C 374.78 529.18 377.26 527.59 380.14 527.21 C 388.45 526.08 396.75 527.75 404.99 528.76 C 408.31 529.05 411.88 529.47 415.04 528.11 C 417.08 527.30 416.99 524.85 417.16 523.04 C 417.22 519.81 417.61 515.51 414.20 513.78 C 407.41 510.54 399.69 513.08 392.60 511.48 C 390.13 510.78 386.46 509.27 387.14 506.08 C 389.06 502.81 392.10 500.33 394.88 497.81 C 399.72 493.89 406.31 494.89 412.02 495.70 C 412.55 489.68 409.47 483.89 404.63 480.43 C 399.49 476.60 392.85 472.79 392.20 465.69 Z" />
<path fill="#f5f5f5" opacity="1.00" d=" M 270.00 475.75 C 274.77 471.29 281.78 470.43 288.03 469.99 C 295.90 470.11 303.98 469.09 311.65 471.37 C 314.73 472.26 318.15 473.05 320.21 475.73 C 303.47 475.78 286.74 475.74 270.00 475.75 Z" />
<path fill="#f5f5f5" opacity="1.00" d=" M 274.73 490.94 C 278.32 487.51 283.39 486.48 288.10 485.56 C 297.93 484.04 308.31 483.92 317.80 487.26 C 321.35 488.64 325.50 491.21 325.60 495.48 C 321.22 492.82 316.20 490.97 311.03 490.93 C 298.93 490.80 286.83 491.24 274.73 490.94 Z" />
<path fill="#ffffff" opacity="1.00" d=" M 251.28 501.12 C 257.68 495.19 266.23 492.19 274.73 490.94 C 286.83 491.24 298.93 490.80 311.03 490.93 C 316.20 490.97 321.22 492.82 325.60 495.48 C 328.88 497.95 332.83 499.30 336.13 501.75 C 346.07 508.40 353.80 518.46 357.03 530.03 C 362.08 547.30 358.20 566.15 349.51 581.59 C 341.05 596.58 327.54 609.25 310.98 614.64 C 299.00 618.61 285.73 618.24 273.90 613.88 C 266.77 611.38 260.21 607.50 254.11 603.08 C 258.51 592.49 274.00 595.96 278.91 585.95 C 281.83 575.75 280.65 564.49 276.25 554.86 C 274.37 550.52 271.77 546.54 269.78 542.26 C 268.77 540.39 268.42 537.43 265.83 537.13 C 258.98 535.63 252.04 537.91 245.16 537.72 C 242.55 537.29 239.18 536.50 238.25 533.66 C 237.73 531.14 238.60 528.61 239.04 526.15 C 240.57 516.87 244.14 507.52 251.28 501.12 Z" />
<path fill="#ececec" opacity="1.00" d=" M 368.00 491.89 C 370.56 490.55 373.90 490.20 376.57 491.42 C 379.07 493.60 381.43 497.32 379.65 500.64 C 377.51 503.82 373.87 505.53 371.19 508.20 C 367.41 511.43 365.30 516.38 366.11 521.36 C 358.51 518.22 356.72 508.82 356.14 501.48 C 357.80 501.13 359.56 500.89 361.03 499.98 C 363.83 497.71 365.02 493.96 368.00 491.89 Z" />
<path fill="#000000" opacity="1.00" d=" M 631.06 558.94 C 617.71 539.55 613.08 515.02 615.90 491.87 C 625.26 510.77 631.67 531.15 643.11 549.00 C 650.00 559.79 659.10 569.54 670.66 575.34 C 680.33 580.36 691.24 582.61 702.08 582.93 C 705.08 582.96 708.12 582.87 711.11 583.37 C 698.88 588.42 685.22 590.70 672.19 587.68 C 655.32 584.10 640.68 573.04 631.06 558.94 Z" />
<path fill="#ffffff" opacity="1.00" d=" M 38.34 541.37 C 45.39 529.24 53.26 517.61 61.16 506.04 C 60.74 522.51 65.74 539.56 77.16 551.76 C 101.67 578.30 146.64 580.78 175.00 559.01 C 189.72 547.80 198.09 529.48 198.31 511.13 C 201.50 514.32 206.25 514.54 210.08 516.58 C 212.24 517.59 213.23 519.85 214.64 521.62 C 217.36 524.76 218.73 528.81 218.94 532.92 C 219.27 539.67 219.26 546.46 218.40 553.17 C 217.76 559.74 217.65 566.64 220.12 572.88 C 220.63 574.56 222.34 575.32 223.59 576.38 C 227.82 589.83 236.52 601.81 248.18 609.77 C 265.43 621.71 287.36 626.02 308.00 623.17 C 323.22 621.10 338.09 614.90 349.43 604.40 C 357.26 597.10 363.22 587.74 366.25 577.46 C 369.56 579.11 372.44 581.78 376.24 582.25 C 380.97 586.87 389.81 585.62 392.33 592.71 C 392.63 592.73 393.23 592.77 393.53 592.79 C 397.65 595.68 402.45 597.24 407.14 598.89 C 414.04 601.42 421.52 602.87 428.86 601.78 C 432.13 600.96 435.58 598.98 436.78 595.66 C 437.00 594.49 437.36 592.59 435.94 592.04 C 423.86 586.46 410.14 586.21 397.85 581.23 C 393.36 579.39 388.98 576.60 386.70 572.17 C 395.14 573.20 403.56 571.81 412.01 572.08 C 424.26 572.00 436.90 571.08 448.63 575.34 C 451.96 576.71 454.78 579.01 457.62 581.17 C 457.84 581.58 458.26 582.38 458.47 582.78 C 484.06 594.20 512.30 596.69 539.35 602.88 C 542.02 610.06 552.99 605.30 555.24 612.82 C 545.41 613.48 534.78 611.60 525.91 617.01 C 523.52 618.03 524.23 620.95 524.04 623.02 C 524.28 638.48 523.83 653.95 524.28 669.40 C 521.99 688.28 515.49 706.83 504.29 722.30 C 490.68 741.33 470.84 754.89 450.04 765.03 C 447.70 766.06 445.82 767.83 443.84 769.40 L 443.47 769.42 C 439.19 769.18 435.35 771.26 431.34 772.34 C 420.42 775.09 409.19 776.47 397.96 777.08 C 380.62 777.10 363.26 777.35 345.92 776.82 C 335.99 775.53 325.95 776.57 316.03 775.38 C 303.71 774.71 291.36 775.13 279.02 775.06 C 276.60 775.01 274.12 775.14 271.94 776.30 L 271.03 776.56 C 267.37 776.41 263.69 776.40 260.03 776.27 C 256.85 776.08 255.30 773.12 253.70 770.82 C 252.58 769.43 251.39 767.96 249.65 767.36 C 241.55 764.01 232.59 765.13 224.06 765.17 C 213.95 766.50 203.75 765.96 193.60 766.27 C 158.77 757.18 123.64 744.37 96.37 720.08 C 90.38 713.81 82.80 709.38 76.62 703.32 C 72.49 699.28 68.13 695.15 66.04 689.63 C 69.61 687.62 75.00 685.54 74.13 680.47 C 73.40 680.24 71.94 679.77 71.21 679.54 C 59.80 675.79 51.76 665.97 46.54 655.56 C 38.65 640.05 34.86 622.55 24.83 608.13 C 22.15 604.26 18.80 600.91 15.10 598.02 C 19.69 578.02 28.02 559.04 38.34 541.37 M 188.55 562.24 C 188.75 567.83 189.31 573.44 188.71 579.03 C 188.04 587.37 185.55 596.22 178.97 601.85 C 171.85 608.09 161.79 608.99 152.73 608.33 C 153.10 615.77 151.64 623.17 149.24 630.18 C 146.42 639.01 141.71 647.51 141.71 657.00 C 141.63 663.28 144.29 669.18 147.72 674.31 C 151.55 678.62 157.64 679.13 163.00 679.84 C 167.56 680.05 172.11 681.48 176.68 680.55 C 183.90 679.32 192.83 680.25 198.18 674.30 C 198.82 668.76 204.91 665.25 203.64 659.24 C 194.06 662.39 184.07 664.46 173.97 664.76 C 166.47 664.88 158.39 663.97 152.33 659.13 C 163.40 648.90 164.76 632.40 162.66 618.32 C 169.00 619.11 175.81 618.02 180.81 613.78 C 186.11 609.40 191.14 604.03 198.26 602.82 C 196.30 591.16 199.23 579.54 200.44 567.98 C 200.43 565.16 201.23 561.49 198.63 559.52 C 195.03 558.36 191.75 560.99 188.55 562.24 M 408.66 679.45 C 403.18 696.33 392.33 711.33 378.25 722.11 C 362.76 734.00 343.51 741.01 323.97 741.59 C 305.88 742.30 287.37 737.04 273.00 725.87 C 262.30 717.49 253.75 706.25 248.90 693.54 C 251.70 688.21 251.35 681.90 250.79 676.09 C 249.94 670.14 243.08 666.58 237.59 668.58 C 234.11 669.81 230.58 671.27 227.73 673.69 C 224.65 676.46 221.93 680.86 224.00 685.01 C 225.93 692.82 229.04 700.42 234.08 706.78 C 249.57 726.66 275.99 734.49 290.29 755.58 L 290.77 755.57 C 291.53 756.67 292.30 757.91 293.69 758.31 C 300.69 761.39 308.48 762.12 316.05 762.01 C 323.28 762.06 330.65 761.13 337.38 758.36 C 338.76 757.97 339.45 756.68 340.16 755.56 L 340.58 755.57 C 341.24 753.53 342.07 751.16 344.41 750.58 C 353.24 747.87 362.58 752.94 371.36 750.39 C 386.76 727.68 408.72 709.45 419.96 683.98 C 426.93 668.67 428.00 650.80 422.59 634.85 C 422.30 638.80 422.44 642.81 421.59 646.71 C 421.27 646.78 420.62 646.94 420.30 647.01 C 417.62 642.73 416.15 637.67 412.50 634.01 C 414.34 649.20 413.59 664.88 408.66 679.45 Z" />
<path fill="#f5f5f5" opacity="1.00" d=" M 214.64 521.62 C 220.80 521.43 224.64 527.41 224.96 532.97 C 226.52 547.47 221.33 561.89 223.59 576.38 C 222.34 575.32 220.63 574.56 220.12 572.88 C 217.65 566.64 217.76 559.74 218.40 553.17 C 219.26 546.46 219.27 539.67 218.94 532.92 C 218.73 528.81 217.36 524.76 214.64 521.62 Z" />
<path fill="#f5f5f5" opacity="1.00" d=" M 234.90 527.94 C 235.70 526.39 237.53 526.30 239.04 526.15 C 238.60 528.61 237.73 531.14 238.25 533.66 C 239.18 536.50 242.55 537.29 245.16 537.72 C 252.04 537.91 258.98 535.63 265.83 537.13 C 268.42 537.43 268.77 540.39 269.78 542.26 C 261.18 544.04 252.55 540.29 243.96 541.84 C 241.08 542.30 239.47 544.89 239.02 547.57 C 234.71 548.22 233.38 543.39 233.07 540.07 C 232.79 535.99 232.66 531.53 234.90 527.94 Z" />
<path fill="#ffffff" opacity="1.00" d=" M 152.28 531.63 C 159.10 533.19 166.04 538.49 166.28 546.01 C 166.82 552.69 162.62 558.57 157.77 562.70 C 152.33 557.22 148.70 549.75 148.47 541.99 C 148.35 538.15 150.00 534.61 152.28 531.63 Z" />
<path fill="#ffffff" opacity="1.00" d=" M 422.53 531.95 L 423.03 531.43 C 428.10 533.10 425.81 539.29 428.42 542.69 C 426.79 545.21 425.23 547.96 422.64 549.62 C 417.69 552.81 411.70 553.48 405.99 554.20 C 399.11 555.38 392.12 554.15 385.38 552.72 C 380.29 551.65 375.33 549.12 372.39 544.68 C 370.61 542.48 371.15 539.52 371.07 536.92 C 380.71 542.94 392.51 542.84 403.41 541.53 C 410.43 540.14 417.68 537.44 422.53 531.95 Z" />
<path fill="#ffffff" opacity="1.00" d=" M 249.29 551.96 C 253.98 551.85 259.13 552.89 262.30 556.65 C 267.33 562.40 268.00 570.37 269.90 577.46 C 264.83 579.11 260.63 582.44 256.17 585.23 C 252.59 587.48 248.29 588.11 244.13 588.02 C 241.36 581.39 239.01 574.12 240.46 566.88 C 241.45 561.00 245.13 556.04 249.29 551.96 Z" />
<path fill="#000000" opacity="1.00" d=" M 188.55 562.24 C 191.75 560.99 195.03 558.36 198.63 559.52 C 201.23 561.49 200.43 565.16 200.44 567.98 C 199.23 579.54 196.30 591.16 198.26 602.82 C 191.14 604.03 186.11 609.40 180.81 613.78 C 175.81 618.02 169.00 619.11 162.66 618.32 C 164.76 632.40 163.40 648.90 152.33 659.13 C 158.39 663.97 166.47 664.88 173.97 664.76 C 184.07 664.46 194.06 662.39 203.64 659.24 C 204.91 665.25 198.82 668.76 198.18 674.30 C 181.36 674.22 164.54 674.20 147.72 674.31 C 144.29 669.18 141.63 663.28 141.71 657.00 C 141.71 647.51 146.42 639.01 149.24 630.18 C 151.64 623.17 153.10 615.77 152.73 608.33 C 161.79 608.99 171.85 608.09 178.97 601.85 C 185.55 596.22 188.04 587.37 188.71 579.03 C 189.31 573.44 188.75 567.83 188.55 562.24 Z" />
<path fill="#f5f5f5" opacity="1.00" d=" M 375.66 570.54 C 383.34 567.36 391.65 566.05 399.90 565.37 C 412.79 564.44 425.92 565.08 438.46 568.36 C 445.77 570.56 454.61 573.41 457.62 581.17 C 454.78 579.01 451.96 576.71 448.63 575.34 C 436.90 571.08 424.26 572.00 412.01 572.08 C 403.56 571.81 395.14 573.20 386.70 572.17 C 388.98 576.60 393.36 579.39 397.85 581.23 C 410.14 586.21 423.86 586.46 435.94 592.04 C 437.36 592.59 437.00 594.49 436.78 595.66 C 435.58 598.98 432.13 600.96 428.86 601.78 C 421.52 602.87 414.04 601.42 407.14 598.89 C 402.45 597.24 397.65 595.68 393.53 592.79 C 398.44 592.62 403.50 593.66 408.29 592.21 C 410.26 591.73 411.26 589.83 412.38 588.33 C 408.33 589.21 403.99 589.88 400.09 588.09 C 392.23 585.22 387.41 577.73 379.92 574.28 C 377.81 576.26 377.21 579.06 376.67 581.78 L 376.24 582.25 C 372.44 581.78 369.56 579.11 366.25 577.46 C 368.57 574.22 372.02 572.02 375.66 570.54 Z" />
<path fill="#000000" opacity="1.00" d=" M 376.67 581.78 C 377.21 579.06 377.81 576.26 379.92 574.28 C 387.41 577.73 392.23 585.22 400.09 588.09 C 403.99 589.88 408.33 589.21 412.38 588.33 C 411.26 589.83 410.26 591.73 408.29 592.21 C 403.50 593.66 398.44 592.62 393.53 592.79 C 393.23 592.77 392.63 592.73 392.33 592.71 C 389.81 585.62 380.97 586.87 376.24 582.25 L 376.67 581.78 Z" />
<path fill="#f5f5f5" opacity="1.00" d=" M 539.35 602.88 C 544.22 601.57 550.06 601.36 554.03 604.99 C 557.45 608.16 560.49 612.09 565.22 613.35 C 564.39 615.81 562.67 618.02 559.99 618.55 C 549.84 620.85 539.53 616.31 529.35 618.36 C 527.24 631.58 531.28 644.85 529.92 658.10 C 529.53 662.37 528.09 666.98 524.28 669.40 C 523.83 653.95 524.28 638.48 524.04 623.02 C 524.23 620.95 523.52 618.03 525.91 617.01 C 534.78 611.60 545.41 613.48 555.24 612.82 C 552.99 605.30 542.02 610.06 539.35 602.88 Z" />
<path fill="#f5f5f5" opacity="1.00" d=" M 590.94 630.32 C 607.99 627.62 625.85 626.85 642.40 632.55 C 639.60 632.62 636.81 632.57 634.04 632.24 C 627.00 631.38 619.96 632.59 612.95 633.14 C 601.88 634.31 591.10 637.37 579.99 638.27 C 572.27 639.47 564.37 637.82 557.29 634.68 C 554.75 633.51 550.44 633.09 549.40 636.42 C 547.31 644.87 552.20 653.73 549.10 662.06 C 548.50 664.06 546.12 663.56 544.56 663.92 C 545.01 652.23 544.62 640.52 544.75 628.82 C 559.65 633.92 575.65 632.74 590.94 630.32 Z" />
<path fill="#f5f5f5" opacity="1.00" d=" M 666.57 633.51 C 679.28 628.07 693.38 627.76 707.00 627.48 C 730.52 627.76 754.03 629.90 777.57 628.69 C 769.37 632.79 760.01 633.73 750.98 634.21 C 742.04 635.17 733.00 635.23 724.07 634.20 C 715.70 633.72 707.29 634.31 698.96 633.28 C 688.17 632.65 677.35 633.01 666.57 633.51 Z" />
<path fill="#000000" opacity="1.00" d=" M 408.66 679.45 C 413.59 664.88 414.34 649.20 412.50 634.01 C 416.15 637.67 417.62 642.73 420.30 647.01 C 420.62 646.94 421.27 646.78 421.59 646.71 C 422.44 642.81 422.30 638.80 422.59 634.85 C 428.00 650.80 426.93 668.67 419.96 683.98 C 408.72 709.45 386.76 727.68 371.36 750.39 C 362.58 752.94 353.24 747.87 344.41 750.58 C 342.07 751.16 341.24 753.53 340.58 755.57 L 340.16 755.56 C 323.70 755.46 307.23 755.45 290.77 755.57 L 290.29 755.58 C 275.99 734.49 249.57 726.66 234.08 706.78 C 229.04 700.42 225.93 692.82 224.00 685.01 C 227.16 685.36 230.61 686.15 233.59 684.57 C 237.20 682.67 238.97 678.74 241.90 676.05 C 245.60 681.25 246.90 687.59 248.90 693.54 C 253.75 706.25 262.30 717.49 273.00 725.87 C 287.37 737.04 305.88 742.30 323.97 741.59 C 343.51 741.01 362.76 734.00 378.25 722.11 C 392.33 711.33 403.18 696.33 408.66 679.45 Z" />
<path fill="#f5f5f5" opacity="1.00" d=" M 237.59 668.58 C 243.08 666.58 249.94 670.14 250.79 676.09 C 251.35 681.90 251.70 688.21 248.90 693.54 C 246.90 687.59 245.60 681.25 241.90 676.05 C 238.97 678.74 237.20 682.67 233.59 684.57 C 230.61 686.15 227.16 685.36 224.00 685.01 C 221.93 680.86 224.65 676.46 227.73 673.69 C 230.58 671.27 234.11 669.81 237.59 668.58 Z" />
<path fill="#f5f5f5" opacity="1.00" d=" M 147.72 674.31 C 164.54 674.20 181.36 674.22 198.18 674.30 C 192.83 680.25 183.90 679.32 176.68 680.55 C 172.11 681.48 167.56 680.05 163.00 679.84 C 157.64 679.13 151.55 678.62 147.72 674.31 Z" />
<path fill="#ececec" opacity="1.00" d=" M 55.59 684.24 C 56.02 682.68 55.27 680.33 56.89 679.39 C 61.31 679.87 63.80 684.54 68.10 685.51 C 70.89 685.16 70.83 681.62 71.21 679.54 C 71.94 679.77 73.40 680.24 74.13 680.47 C 75.00 685.54 69.61 687.62 66.04 689.63 C 68.13 695.15 72.49 699.28 76.62 703.32 C 82.80 709.38 90.38 713.81 96.37 720.08 C 87.77 718.94 80.32 713.63 74.73 707.23 C 68.18 699.70 63.01 690.99 55.59 684.24 Z" />
<path fill="#f5f5f5" opacity="1.00" d=" M 290.77 755.57 C 307.23 755.45 323.70 755.46 340.16 755.56 C 339.45 756.68 338.76 757.97 337.38 758.36 C 330.65 761.13 323.28 762.06 316.05 762.01 C 308.48 762.12 300.69 761.39 293.69 758.31 C 292.30 757.91 291.53 756.67 290.77 755.57 Z" />
<path fill="#f5f5f5" opacity="1.00" d=" M 193.60 766.27 C 203.75 765.96 213.95 766.50 224.06 765.17 C 232.59 765.13 241.55 764.01 249.65 767.36 C 251.39 767.96 252.58 769.43 253.70 770.82 C 238.44 769.32 223.22 772.81 207.97 771.72 C 202.85 771.24 197.23 770.26 193.60 766.27 Z" />
<path fill="#f5f5f5" opacity="1.00" d=" M 431.34 772.34 C 435.35 771.26 439.19 769.18 443.47 769.42 C 438.20 773.49 431.78 775.69 425.50 777.65 C 408.49 782.55 390.65 783.33 373.05 783.69 C 339.22 783.65 305.48 780.17 271.86 776.70 L 271.94 776.30 C 274.12 775.14 276.60 775.01 279.02 775.06 C 291.36 775.13 303.71 774.71 316.03 775.38 C 325.95 776.57 335.99 775.53 345.92 776.82 C 363.26 777.35 380.62 777.10 397.96 777.08 C 409.19 776.47 420.42 775.09 431.34 772.34 Z" />
</svg>
