<?xml version="1.0" encoding="UTF-8" ?>
<!DOCTYPE svg PUBLIC "-//W3C//DTD SVG 1.1//EN" "http://www.w3.org/Graphics/SVG/1.1/DTD/svg11.dtd">
<svg width="800pt" height="600pt" viewBox="0 0 800 600" version="1.1" xmlns="http://www.w3.org/2000/svg">
<path fill="#ffffff" opacity="1.00" d=" M 0.00 0.00 L 800.00 0.00 L 800.00 600.00 L 589.00 600.00 C 589.01 580.33 588.97 560.67 589.03 541.00 C 589.14 536.75 587.94 532.62 587.75 528.39 C 584.69 512.26 581.11 496.23 576.83 480.39 C 572.36 465.22 569.28 449.69 565.32 434.39 C 564.76 432.55 565.71 430.73 565.86 428.91 C 566.13 426.08 566.17 423.20 565.82 420.38 C 564.62 415.27 563.58 410.06 561.28 405.31 C 559.29 397.47 557.22 389.58 553.34 382.42 C 552.73 380.01 550.65 378.52 549.14 376.70 C 548.51 373.99 547.90 371.28 546.96 368.66 C 547.64 367.93 548.32 367.20 549.01 366.48 C 549.00 365.85 549.00 364.60 548.99 363.97 C 548.55 364.00 547.67 364.07 547.23 364.10 C 547.78 362.10 548.03 360.04 548.21 357.99 C 545.87 357.99 543.54 358.01 541.22 358.04 C 542.36 354.81 541.96 351.35 542.02 347.99 C 541.94 343.52 542.36 338.98 541.24 334.59 C 540.61 329.44 541.28 324.24 540.94 319.07 C 540.10 313.12 536.55 308.10 534.74 302.48 C 530.96 296.20 527.33 289.83 523.65 283.49 C 521.65 282.12 519.89 280.44 518.13 278.80 C 519.16 276.12 520.19 273.42 520.86 270.63 C 521.15 267.56 521.17 264.44 520.84 261.37 C 520.29 259.03 519.43 256.79 518.83 254.47 C 516.50 250.25 513.55 246.31 509.66 243.43 C 507.64 242.18 505.46 241.25 503.37 240.16 C 497.89 238.60 492.11 238.59 486.63 240.17 C 482.11 242.76 476.75 244.18 473.21 248.20 C 470.32 250.96 468.20 254.40 466.52 258.00 C 464.15 258.00 461.76 257.87 459.41 258.23 C 452.84 259.85 446.04 258.42 439.39 259.22 C 434.61 260.12 429.77 260.75 425.00 261.75 C 425.44 257.75 423.82 254.05 422.79 250.29 C 419.42 246.41 414.89 243.84 411.49 240.00 C 411.01 240.00 410.03 240.00 409.55 240.00 C 408.17 239.10 406.81 238.19 405.48 237.24 C 399.64 235.84 394.18 232.43 388.00 232.97 C 382.99 233.16 377.84 232.39 372.99 233.98 C 367.29 235.57 361.36 236.03 355.61 237.39 C 352.00 238.43 348.40 239.54 344.70 240.24 C 338.56 243.14 331.68 244.66 326.27 248.95 C 325.14 248.98 324.02 249.00 322.90 249.04 C 323.26 250.94 322.14 253.74 324.40 254.71 C 327.02 255.39 329.69 255.93 332.39 256.18 C 337.37 259.01 343.11 260.70 347.35 264.70 C 349.41 266.38 351.88 267.46 354.02 269.03 C 358.11 271.97 361.96 275.27 366.34 277.79 C 364.32 278.17 362.34 278.68 360.33 279.06 C 357.60 280.79 356.37 283.91 354.25 286.21 C 352.70 287.91 351.02 289.49 349.42 291.13 C 344.29 289.24 338.77 289.89 333.58 291.13 C 327.13 293.95 321.95 299.13 319.13 305.58 C 317.62 311.11 317.61 316.89 319.13 322.41 C 320.24 324.48 321.26 326.62 322.71 328.49 C 322.95 328.79 323.44 329.40 323.68 329.71 C 326.36 332.90 330.05 335.04 333.68 336.99 C 334.55 337.01 335.42 337.02 336.30 337.04 C 336.94 337.37 338.21 338.02 338.85 338.35 C 340.20 343.24 339.40 348.53 341.63 353.18 C 342.90 356.08 343.84 359.10 344.99 362.05 C 344.49 362.03 343.49 362.00 343.00 361.98 C 343.00 364.09 343.00 366.20 343.02 368.31 C 345.45 371.28 347.34 374.62 349.12 378.01 C 351.58 381.93 353.74 386.06 355.35 390.41 C 356.47 393.49 358.52 396.07 359.97 398.99 C 361.14 401.31 362.31 403.66 363.93 405.73 C 363.95 406.18 363.99 407.10 364.01 407.56 C 365.67 409.18 367.32 410.82 368.99 412.45 C 369.01 413.35 369.04 414.26 369.08 415.18 C 371.13 419.78 372.89 424.56 376.00 428.60 C 376.00 429.10 376.00 430.09 376.00 430.58 C 377.00 431.52 377.99 432.47 379.00 433.42 C 379.00 433.91 379.00 434.91 379.00 435.41 C 380.73 438.14 382.37 440.99 384.75 443.24 C 386.71 445.14 388.58 447.15 390.05 449.48 C 390.02 449.99 389.98 451.01 389.96 451.52 C 391.14 453.26 392.43 454.93 393.82 456.51 C 394.90 466.23 399.34 475.02 403.79 483.57 C 404.07 484.52 404.35 485.47 404.66 486.43 C 403.43 487.78 402.24 489.17 400.95 490.47 C 400.97 491.78 400.99 493.10 401.02 494.43 C 400.10 495.81 399.18 497.19 398.22 498.55 C 395.02 513.47 390.03 527.94 385.84 542.61 C 383.50 551.94 381.20 561.29 378.84 570.62 C 377.14 577.08 374.48 583.50 374.97 590.31 C 374.32 591.42 373.67 592.53 373.01 593.65 C 373.00 594.86 372.99 596.09 372.98 597.32 C 372.60 597.99 371.84 599.33 371.46 600.00 L 358.36 600.00 C 352.96 593.35 347.60 586.64 341.86 580.29 C 343.48 579.10 345.16 578.00 346.72 576.73 C 348.81 575.08 349.71 572.48 351.00 570.25 C 351.00 565.38 351.00 560.51 351.00 555.65 C 349.65 553.94 348.42 552.15 347.10 550.44 C 346.93 548.25 347.34 545.86 345.95 543.99 C 343.08 539.55 340.59 534.83 339.09 529.75 C 337.91 525.77 335.35 522.42 332.66 519.35 C 329.73 517.06 327.06 514.43 323.99 512.33 C 323.99 511.85 324.01 510.90 324.01 510.42 C 321.37 507.76 318.45 505.38 315.90 502.64 C 315.94 501.44 315.99 500.25 316.04 499.06 C 315.46 499.03 314.28 498.96 313.69 498.93 C 305.78 493.92 298.09 488.03 292.76 480.21 C 288.98 479.64 285.34 478.49 281.60 477.75 C 279.16 475.60 276.11 474.60 272.88 474.84 C 272.62 478.87 273.93 482.69 275.28 486.43 C 273.19 485.56 271.15 484.59 269.09 483.67 C 269.24 487.79 268.66 491.85 267.83 495.87 C 266.68 496.58 265.52 497.27 264.38 498.00 C 263.05 497.99 261.73 497.99 260.41 497.99 C 259.95 498.50 259.05 499.50 258.59 500.01 C 257.05 500.00 255.51 499.99 253.97 500.00 C 254.00 500.46 254.05 501.39 254.08 501.86 C 252.59 501.40 251.09 501.04 249.58 500.72 C 246.94 498.29 243.50 497.59 240.01 497.91 C 240.03 501.34 239.82 504.78 240.12 508.20 C 241.33 511.11 243.69 513.32 245.32 516.00 C 243.55 515.99 241.78 515.99 240.01 516.00 C 240.01 516.75 239.99 518.25 239.99 519.00 C 238.27 518.99 236.56 519.00 234.85 519.01 C 234.96 521.49 235.27 523.96 235.72 526.41 C 236.20 528.98 235.58 531.80 236.99 534.15 C 237.53 535.41 239.01 535.84 240.02 536.67 C 240.00 537.59 239.98 538.52 239.97 539.46 C 241.58 541.86 243.40 544.10 245.00 546.51 C 245.01 546.97 245.03 547.89 245.04 548.35 C 246.08 549.69 247.04 551.09 247.99 552.50 C 248.01 552.95 248.05 553.85 248.07 554.30 C 249.58 556.27 250.77 558.46 251.98 560.63 C 251.99 561.09 252.00 562.00 252.01 562.46 C 254.28 564.49 256.04 566.95 257.50 569.62 C 260.88 573.59 263.99 577.81 267.83 581.36 C 268.24 583.10 268.73 584.82 269.15 586.56 C 271.81 587.80 274.12 589.66 276.81 590.85 C 278.32 590.98 279.84 591.05 281.37 591.07 C 282.54 591.76 283.73 592.44 284.91 593.14 C 286.08 592.97 287.25 592.78 288.42 592.59 C 298.82 593.50 309.30 592.78 319.73 592.98 C 321.56 595.38 323.22 597.93 325.46 600.00 L 0.00 600.00 L 0.00 284.32 C 1.58 278.32 0.94 272.11 0.99 266.00 C 1.00 257.33 1.00 248.67 1.00 240.00 C 0.55 233.63 2.07 226.98 0.00 220.83 L 0.00 0.00 M 85.08 25.40 C 84.86 28.70 84.99 32.01 85.09 35.31 C 86.17 36.65 86.00 38.38 86.03 39.98 C 86.00 47.92 85.96 55.87 86.01 63.81 C 86.04 66.94 91.95 66.94 91.99 63.81 C 91.98 54.44 92.09 45.06 91.91 35.69 C 90.05 32.60 91.48 28.80 90.93 25.41 C 89.76 23.33 86.24 23.32 85.08 25.40 M 60.35 28.77 C 59.34 28.87 58.33 28.99 57.33 29.14 C 55.40 31.28 54.63 34.18 53.10 36.59 C 53.02 37.84 52.95 39.08 52.86 40.32 C 52.66 40.80 52.27 41.74 52.07 42.21 C 51.88 47.60 52.03 53.01 52.04 58.40 C 53.32 60.68 54.45 63.09 56.28 65.00 C 56.79 65.04 57.80 65.10 58.31 65.13 C 61.52 66.82 65.34 65.75 68.82 66.00 C 70.41 66.24 70.67 64.12 71.41 63.15 C 73.95 63.57 74.89 61.19 76.06 59.46 C 76.00 57.84 76.31 55.97 74.60 55.07 C 73.26 54.95 71.91 54.98 70.56 54.98 C 68.73 56.92 66.46 58.34 64.39 59.98 C 63.92 59.99 62.97 60.00 62.50 60.01 C 60.94 58.98 59.40 57.92 57.97 56.71 C 58.09 52.21 57.85 47.71 58.06 43.21 C 58.26 42.74 58.67 41.79 58.87 41.32 C 58.93 40.37 58.99 39.43 59.05 38.48 C 60.38 36.70 61.95 32.26 64.66 34.87 C 66.68 35.10 68.95 34.60 70.69 35.93 C 72.32 35.99 73.96 36.09 75.59 35.95 C 77.37 35.03 77.13 33.07 76.98 31.40 C 76.01 29.86 74.22 29.97 72.65 29.75 C 71.08 29.01 69.34 28.97 67.66 28.79 C 65.43 27.59 62.59 27.61 60.35 28.77 M 132.40 30.08 C 130.32 31.24 130.33 34.76 132.41 35.93 C 136.13 36.52 140.26 35.00 143.69 36.90 C 145.13 36.97 146.56 37.00 148.00 37.04 C 148.00 40.69 148.00 44.35 148.00 48.00 C 146.47 48.00 144.95 48.00 143.43 47.99 C 140.73 50.40 138.54 53.24 137.11 56.56 C 137.02 57.48 136.93 58.41 136.84 59.33 C 135.29 62.23 136.17 65.67 136.00 68.82 C 135.87 70.57 138.11 70.96 139.40 71.39 C 142.02 72.39 144.88 71.93 147.61 72.01 C 148.61 70.90 149.62 69.81 150.62 68.70 C 151.65 69.09 152.67 69.49 153.69 69.91 C 155.32 69.98 156.96 70.10 158.59 69.95 C 160.37 69.02 160.13 67.05 159.98 65.37 C 158.91 64.46 157.66 63.79 156.50 63.01 C 155.87 63.01 154.61 63.00 153.98 63.00 L 154.01 62.45 C 155.10 62.01 156.09 61.41 156.98 60.65 C 157.14 58.86 157.18 56.97 156.24 55.36 C 156.12 54.93 155.87 54.07 155.74 53.64 C 155.28 52.33 154.97 50.98 154.68 49.63 C 153.17 44.42 154.38 38.82 154.00 33.46 C 153.17 32.64 152.35 31.82 151.54 31.00 C 149.13 30.85 146.43 31.60 144.31 30.09 C 140.34 29.99 136.36 29.87 132.40 30.08 M 286.42 33.05 C 284.28 34.18 284.68 37.03 285.91 38.69 C 286.14 44.56 285.85 50.44 286.09 56.31 C 286.30 56.78 286.72 57.73 286.94 58.21 C 287.22 63.00 286.77 67.81 287.07 72.60 C 288.24 74.67 291.76 74.67 292.93 72.60 C 293.10 66.97 293.02 61.32 292.91 55.69 C 292.70 55.22 292.28 54.27 292.06 53.79 C 291.80 47.33 292.21 40.86 291.93 34.40 C 290.81 32.32 288.33 33.00 286.42 33.05 M 101.45 37.00 C 99.99 38.51 98.51 39.99 97.00 41.45 C 97.33 45.17 96.15 49.19 97.83 52.66 C 97.88 53.14 98.00 54.08 98.06 54.55 C 98.95 55.95 99.88 57.32 100.96 58.60 C 100.97 59.08 101.00 60.05 101.02 60.53 C 101.93 61.92 102.87 63.30 103.94 64.59 C 103.97 65.05 104.05 65.99 104.08 66.46 C 104.66 67.45 105.23 68.44 105.80 69.45 C 105.60 71.67 107.29 73.16 109.40 73.38 C 111.49 74.24 113.80 73.99 116.00 74.02 C 119.87 73.92 123.74 74.15 127.60 73.93 C 129.67 72.76 129.67 69.24 127.60 68.07 C 122.86 67.85 118.11 68.06 113.37 68.02 C 111.74 66.34 110.21 64.55 109.02 62.53 C 109.01 62.02 108.98 61.00 108.97 60.49 C 108.09 59.14 107.22 57.80 106.27 56.51 C 105.92 55.29 105.47 54.11 104.97 52.95 C 108.81 53.03 112.66 53.00 116.50 52.99 C 117.64 52.21 118.88 51.56 119.94 50.65 C 120.13 46.92 119.94 43.19 120.00 39.46 C 119.17 38.64 118.35 37.82 117.54 37.00 C 112.18 37.00 106.82 37.00 101.45 37.00 M 176.49 38.00 C 174.46 39.20 172.67 40.74 170.98 42.37 C 170.99 43.58 171.00 44.79 171.01 46.00 C 170.53 46.00 169.57 46.00 169.09 46.00 C 168.94 44.24 169.47 42.08 167.60 41.04 C 166.20 40.90 164.80 40.90 163.41 41.05 C 161.72 41.94 161.97 43.75 161.98 45.35 C 163.02 47.03 163.90 48.81 164.87 50.53 C 164.96 50.99 165.13 51.90 165.22 52.35 C 166.12 54.35 165.89 56.63 166.74 58.64 C 166.87 59.07 167.12 59.93 167.25 60.35 C 168.86 62.71 166.78 66.25 169.41 67.97 C 171.07 68.13 173.03 68.38 173.93 66.60 C 174.57 62.21 172.95 57.44 174.86 53.32 C 174.93 52.39 175.01 51.45 175.08 50.51 C 175.70 49.49 176.32 48.48 176.95 47.47 C 176.97 46.85 177.01 45.61 177.03 44.99 C 177.66 44.99 178.90 45.00 179.52 45.00 C 181.07 46.03 182.60 47.08 184.02 48.28 C 184.03 48.82 184.05 49.88 184.06 50.41 C 185.05 52.10 185.92 53.86 186.90 55.55 C 186.95 56.04 187.03 57.01 187.07 57.49 C 187.69 58.50 188.31 59.51 188.93 60.52 C 189.02 62.58 188.73 64.76 189.75 66.65 C 189.97 68.22 189.86 70.01 191.40 70.98 C 192.46 71.08 193.52 71.08 194.58 70.97 C 196.88 69.65 195.79 66.84 195.93 64.69 C 194.55 62.91 195.10 60.60 194.93 58.53 C 194.32 57.52 193.71 56.51 193.11 55.50 C 193.02 55.04 192.86 54.11 192.78 53.65 C 192.42 52.57 192.08 51.49 191.78 50.40 C 191.01 48.97 190.10 47.61 189.04 46.39 C 189.03 45.91 189.00 44.96 188.99 44.48 C 186.86 42.63 185.20 40.37 183.63 38.06 C 181.25 37.89 178.86 38.00 176.49 38.00 M 234.40 38.07 C 232.33 39.24 232.33 42.76 234.40 43.93 C 238.57 44.15 242.75 43.93 246.92 44.00 C 246.98 44.58 247.10 45.75 247.16 46.33 C 248.09 47.84 247.98 49.65 248.22 51.34 C 248.70 52.62 249.05 53.94 249.28 55.29 C 247.99 54.55 246.69 53.82 245.43 53.04 C 242.38 52.99 239.33 53.01 236.28 52.97 C 233.65 55.99 232.01 59.76 229.06 62.52 C 229.00 62.97 228.88 63.88 228.82 64.33 C 227.93 65.86 228.00 67.65 227.79 69.34 C 226.80 71.64 226.00 75.29 228.40 76.93 C 232.39 77.15 236.39 76.94 240.39 76.98 C 241.82 75.79 243.42 74.82 244.87 73.64 C 245.00 72.62 245.10 71.61 245.19 70.59 C 245.99 69.03 246.70 67.42 247.38 65.80 C 248.56 67.04 249.77 68.26 251.00 69.46 C 251.00 69.98 251.00 71.02 251.00 71.55 C 251.82 72.35 252.63 73.16 253.44 73.97 C 253.91 74.01 254.85 74.10 255.32 74.15 C 256.59 75.01 258.10 75.22 259.59 74.98 C 261.29 73.98 261.00 72.01 261.16 70.34 C 259.91 69.42 258.71 68.45 257.43 67.58 C 256.69 66.59 255.96 65.60 255.24 64.60 C 255.41 64.15 255.76 63.24 255.93 62.79 C 255.89 59.33 256.66 55.63 255.25 52.36 C 255.12 51.93 254.87 51.07 254.74 50.64 C 253.85 48.62 254.21 46.28 253.15 44.32 C 253.07 43.37 253.00 42.42 252.95 41.48 C 252.19 40.33 251.55 39.10 250.66 38.05 C 245.24 37.95 239.81 37.92 234.40 38.07 M 267.42 39.05 C 265.27 40.19 265.70 43.01 266.89 44.69 C 267.08 47.02 266.62 49.49 267.76 51.64 C 267.88 52.07 268.12 52.93 268.24 53.36 C 269.61 56.14 268.78 59.33 269.08 62.30 C 271.02 65.72 269.47 69.87 270.07 73.60 C 271.18 75.68 273.66 75.00 275.58 74.95 C 277.72 73.82 277.31 70.98 276.09 69.31 C 275.99 66.77 276.01 64.23 275.91 61.69 C 273.96 58.91 275.95 55.25 274.24 52.36 C 274.12 51.93 273.88 51.07 273.76 50.64 C 272.23 47.44 273.39 43.80 272.93 40.40 C 271.81 38.32 269.34 39.00 267.42 39.05 M 366.41 42.11 C 364.23 43.18 364.72 46.06 365.91 47.70 C 366.03 50.56 365.97 53.44 366.09 56.31 C 367.97 58.78 366.03 62.22 367.92 64.70 C 368.01 67.00 367.89 69.30 368.08 71.60 C 368.97 73.40 370.95 73.11 372.63 72.98 C 374.39 71.60 373.86 69.16 374.81 67.33 C 374.87 66.83 374.99 65.84 375.05 65.34 C 376.89 64.55 378.70 63.66 380.51 62.77 C 380.86 63.48 381.56 64.91 381.91 65.63 C 381.97 67.20 382.02 68.78 382.09 70.36 C 383.19 71.45 383.19 72.55 382.09 73.65 C 382.04 74.60 382.00 75.56 381.97 76.51 C 382.82 77.37 383.67 78.23 384.52 79.10 C 386.13 79.00 388.01 79.30 388.93 77.61 C 388.95 74.53 389.59 71.22 388.23 68.34 C 387.97 66.70 387.97 65.00 387.38 63.43 C 387.04 62.38 386.62 61.36 386.12 60.38 C 386.08 59.90 386.01 58.93 385.98 58.44 C 384.81 57.31 383.66 56.16 382.54 54.98 C 380.80 54.98 379.06 54.92 377.33 55.05 C 376.68 55.88 376.11 56.75 375.60 57.67 C 374.76 58.20 373.89 58.69 373.01 59.12 C 372.96 57.98 372.93 56.84 372.91 55.70 C 371.05 52.30 372.37 48.18 372.00 44.47 C 371.15 43.62 370.31 42.76 369.48 41.89 C 368.45 41.93 367.42 42.00 366.41 42.11 M 338.07 44.40 C 337.85 48.26 338.06 52.14 338.00 56.00 C 333.80 56.07 329.60 55.85 325.40 56.07 C 323.33 57.24 323.33 60.76 325.40 61.93 C 329.92 62.15 334.44 61.92 338.96 62.00 C 338.99 63.43 339.03 64.87 339.10 66.31 C 341.00 69.74 339.48 73.87 340.07 77.59 C 341.24 79.67 344.75 79.68 345.92 77.60 C 346.14 73.97 346.01 70.32 345.91 66.69 C 344.86 65.33 345.04 63.58 344.85 61.99 C 347.76 61.97 350.68 62.14 353.60 61.93 C 355.67 60.76 355.67 57.24 353.60 56.07 C 350.40 55.86 347.19 56.04 344.00 56.01 C 343.93 52.14 344.15 48.27 343.93 44.40 C 342.75 42.33 339.24 42.33 338.07 44.40 M 471.07 45.39 C 470.91 47.12 470.98 48.87 470.97 50.61 C 471.47 51.05 472.47 51.93 472.97 52.37 C 473.02 52.86 473.10 53.83 473.15 54.32 C 474.59 56.63 473.84 59.44 474.01 62.00 C 469.47 62.07 464.93 61.85 460.40 62.07 C 458.32 63.24 458.32 66.76 460.40 67.93 C 465.60 68.15 470.80 67.92 476.01 68.00 C 476.01 70.53 475.87 73.07 476.07 75.60 C 477.24 77.67 480.75 77.67 481.93 75.60 C 482.15 72.07 481.94 68.54 481.99 65.01 C 484.55 64.81 487.43 65.66 489.70 64.09 C 491.99 63.98 494.30 64.10 496.60 63.92 C 498.68 62.82 497.99 60.33 497.95 58.42 C 496.81 56.27 494.03 56.73 492.32 57.86 C 491.10 57.96 489.88 58.04 488.68 58.15 C 486.04 59.93 482.49 58.00 479.98 60.08 C 479.85 57.82 480.57 55.28 479.09 53.31 C 479.00 51.36 478.99 49.41 479.00 47.47 C 477.80 46.30 476.63 45.11 475.48 43.90 C 473.86 44.00 471.98 43.70 471.07 45.39 M 498.42 46.05 C 496.26 47.18 496.78 49.89 497.77 51.64 C 497.89 52.07 498.12 52.93 498.24 53.36 C 499.61 56.14 498.77 59.33 499.10 62.30 C 499.81 63.55 500.00 64.99 500.31 66.37 C 501.81 69.30 500.09 72.83 501.83 75.67 C 502.09 77.53 501.47 79.84 503.41 80.97 C 504.48 81.08 505.56 81.08 506.65 80.98 C 507.52 79.94 508.15 78.73 508.86 77.57 C 509.00 76.13 509.08 74.65 509.80 73.34 C 509.87 72.90 510.02 72.01 510.09 71.57 C 511.82 69.34 513.24 66.83 515.47 65.04 C 517.48 64.40 517.83 67.39 518.94 68.48 C 519.00 69.43 519.07 70.37 519.15 71.32 C 520.26 73.29 519.75 75.69 520.82 77.67 C 521.09 79.53 520.47 81.84 522.41 82.97 C 523.46 83.08 524.52 83.08 525.58 82.97 C 528.07 81.38 526.70 78.12 526.91 75.69 C 525.34 73.52 526.58 70.61 525.21 68.35 C 525.12 67.90 524.95 67.00 524.86 66.55 C 523.93 64.90 523.10 63.19 522.23 61.52 C 522.05 60.21 521.79 58.88 520.63 58.06 C 518.58 57.91 516.53 57.99 514.49 58.00 C 511.18 59.86 508.75 62.82 506.04 65.42 C 505.99 64.17 505.94 62.93 505.88 61.68 C 504.36 59.29 505.20 56.35 504.91 53.70 C 503.54 51.85 504.21 49.49 503.88 47.39 C 502.81 45.29 500.31 46.02 498.42 46.05 M 633.47 49.00 C 632.61 49.85 631.75 50.69 630.89 51.52 C 630.92 52.54 631.00 53.57 631.11 54.60 C 632.18 56.76 635.05 56.28 636.69 55.09 C 639.12 54.98 641.56 54.99 644.00 54.99 C 643.99 56.99 643.99 59.00 644.00 61.00 C 642.81 61.00 641.63 61.00 640.46 61.00 C 639.64 61.82 638.82 62.64 638.00 63.46 C 638.02 72.57 637.96 81.69 638.01 90.81 C 638.04 93.93 643.94 93.94 643.99 90.81 C 644.04 82.90 643.97 74.99 644.00 67.08 C 645.21 67.07 646.43 67.02 647.66 66.92 C 648.56 65.87 649.21 64.64 650.00 63.50 C 650.00 59.83 650.00 56.17 650.00 52.50 C 649.21 51.35 648.55 50.12 647.65 49.06 C 642.93 48.87 638.19 49.07 633.47 49.00 M 530.42 52.03 C 528.65 52.95 528.84 54.90 529.03 56.58 C 529.95 58.34 531.89 58.16 533.58 57.97 C 535.34 57.04 535.15 55.10 534.97 53.42 C 534.04 51.65 532.10 51.84 530.42 52.03 M 613.46 53.00 C 612.31 54.17 611.16 55.32 610.00 56.46 C 610.03 59.50 609.86 62.56 610.07 65.60 C 611.20 67.71 613.69 66.84 615.63 67.01 C 616.07 67.51 616.94 68.50 617.38 69.00 C 618.42 69.00 619.47 69.00 620.53 69.00 C 621.12 70.35 622.01 71.51 622.98 72.61 C 622.99 74.59 622.99 76.56 623.00 78.54 C 621.82 79.69 620.65 80.85 619.52 82.04 C 618.57 81.99 617.62 81.94 616.69 81.88 C 614.99 80.71 612.18 80.27 611.05 82.42 C 610.99 84.33 610.31 86.82 612.40 87.93 C 616.09 88.15 619.80 87.94 623.50 88.00 C 625.46 87.01 627.00 85.53 627.94 83.54 C 628.00 83.07 628.12 82.13 628.18 81.66 C 629.89 77.84 628.63 73.44 629.00 69.38 C 628.50 68.94 627.49 68.06 626.99 67.61 C 626.99 67.08 627.00 66.00 627.00 65.46 C 626.17 64.64 625.35 63.82 624.54 63.00 C 624.00 63.00 622.92 63.01 622.39 63.01 C 621.94 62.51 621.06 61.50 620.62 60.99 C 619.07 61.00 617.53 61.00 615.99 61.00 L 616.00 60.28 C 617.18 59.96 618.38 59.67 619.60 59.39 C 620.84 59.06 622.10 58.65 622.98 57.63 C 623.11 55.96 623.39 53.98 621.60 53.07 C 618.88 52.87 616.16 53.02 613.46 53.00 M 546.07 58.40 C 545.93 65.13 545.93 71.87 546.07 78.60 C 546.96 80.38 548.92 80.14 550.58 79.97 C 552.88 78.58 551.76 75.69 552.03 73.50 C 553.01 71.99 553.80 70.22 555.46 69.32 C 558.39 67.58 560.98 65.37 563.82 63.51 C 563.92 64.78 564.03 66.05 564.15 67.32 C 566.10 70.47 563.96 74.44 565.76 77.65 C 565.97 79.22 565.85 81.01 567.40 81.98 C 568.45 82.08 569.51 82.08 570.58 81.97 C 572.88 80.65 571.79 77.84 571.93 75.69 C 569.73 72.61 572.24 68.43 570.11 65.32 C 570.03 64.04 569.99 62.76 569.96 61.48 C 569.19 60.34 568.55 59.11 567.66 58.06 C 564.55 57.90 561.43 57.92 558.33 58.05 C 557.68 58.88 557.10 59.75 556.60 60.67 C 555.10 61.59 553.63 62.55 552.13 63.46 C 551.73 61.29 552.86 58.41 550.59 57.03 C 548.92 56.86 546.96 56.62 546.07 58.40 M 584.35 57.05 C 583.30 57.90 582.95 59.17 582.61 60.40 C 581.37 64.31 582.24 68.51 582.00 72.54 C 582.82 73.36 583.64 74.17 584.46 75.00 C 587.81 75.00 591.17 75.00 594.54 75.00 C 595.33 74.19 596.14 73.39 596.96 72.59 C 596.99 73.83 597.05 75.07 597.12 76.32 C 598.12 77.81 597.97 79.64 598.21 81.34 C 599.63 84.11 598.77 87.32 599.08 90.30 C 600.79 93.01 599.74 96.37 599.97 99.38 C 599.15 100.43 598.34 101.49 597.57 102.57 C 596.50 103.34 595.45 104.13 594.42 104.91 C 593.96 104.97 593.06 105.09 592.60 105.15 C 591.62 105.65 590.61 106.05 589.56 106.36 C 586.41 107.53 582.96 106.90 579.69 106.91 C 578.01 105.69 575.18 105.28 574.05 107.42 C 574.00 109.33 573.31 111.82 575.40 112.93 C 578.59 113.14 581.80 112.95 585.00 113.02 C 586.90 112.99 588.91 113.25 590.64 112.23 C 591.09 112.12 591.98 111.92 592.42 111.81 C 593.82 111.28 595.20 110.71 596.60 110.15 C 597.08 110.10 598.05 109.99 598.53 109.94 C 602.03 108.53 603.37 104.86 606.00 102.45 C 605.97 98.20 606.08 93.94 605.91 89.69 C 603.90 86.91 606.05 83.16 604.15 80.32 C 604.03 79.11 603.94 77.89 603.84 76.68 C 602.80 74.71 603.14 72.38 602.26 70.36 C 602.13 69.93 601.88 69.07 601.75 68.65 C 600.85 67.03 600.99 65.19 600.95 63.42 C 599.46 61.97 597.99 60.49 596.55 59.00 C 596.01 59.00 594.93 59.00 594.39 59.01 C 593.94 58.51 593.06 57.50 592.62 57.00 C 589.86 57.02 587.10 56.88 584.35 57.05 M 400.49 58.00 C 397.52 59.30 396.07 62.25 394.57 64.92 C 392.91 65.00 390.98 64.69 390.03 66.41 C 390.11 67.67 389.38 69.46 390.72 70.28 C 391.72 71.57 393.61 70.78 395.00 71.09 C 394.99 73.53 394.99 75.97 395.04 78.40 C 396.05 80.11 396.94 81.88 397.94 83.59 C 397.95 84.12 397.97 85.18 397.98 85.71 C 399.80 87.20 401.78 88.49 403.60 89.99 C 408.93 89.93 414.27 90.14 419.60 89.93 C 421.68 88.82 421.00 86.34 420.95 84.42 C 419.81 82.28 416.97 82.68 415.31 83.91 C 412.30 84.04 409.29 84.00 406.29 84.03 C 404.31 81.67 402.68 79.06 401.02 76.47 C 401.01 75.32 400.99 74.16 400.99 73.00 C 403.82 73.00 406.66 73.00 409.50 73.00 C 410.62 72.23 411.85 71.59 412.86 70.67 C 413.00 69.66 413.12 68.66 413.23 67.65 C 414.31 65.77 413.96 63.58 414.01 61.51 C 413.22 60.36 412.55 59.12 411.65 58.06 C 407.93 57.87 404.21 58.05 400.49 58.00 M 531.42 63.03 C 531.08 63.37 530.41 64.06 530.07 64.40 C 529.93 69.79 529.93 75.20 530.07 80.60 C 531.24 82.67 534.75 82.67 535.93 80.60 C 536.07 75.20 536.07 69.79 535.93 64.40 C 535.02 62.62 533.07 62.86 531.42 63.03 M 264.69 83.09 C 262.51 84.58 259.69 83.55 257.37 84.68 C 255.99 84.98 254.60 85.23 253.32 85.83 C 252.83 85.88 251.86 85.98 251.37 86.03 C 250.93 86.53 250.05 87.51 249.62 88.00 C 248.25 88.00 246.90 88.01 245.55 88.03 C 244.53 88.66 243.51 89.29 242.49 89.93 C 241.55 89.99 240.61 90.06 239.68 90.14 C 237.45 91.67 234.48 90.29 232.30 91.92 C 229.34 92.07 226.36 91.87 223.40 92.07 C 221.33 93.24 221.32 96.76 223.40 97.92 C 227.03 98.14 230.67 98.01 234.31 97.91 C 236.49 96.29 239.48 97.69 241.68 96.12 C 242.95 96.04 244.21 95.99 245.48 95.94 C 246.50 95.31 247.51 94.67 248.53 94.04 C 249.82 94.01 251.10 93.99 252.40 93.97 C 253.67 92.89 255.04 91.95 256.45 91.06 C 256.92 91.00 257.86 90.88 258.34 90.82 C 260.57 89.37 263.51 90.68 265.69 89.09 C 269.46 88.93 273.23 89.03 277.00 88.98 C 279.21 89.03 281.55 88.70 283.63 89.69 C 285.00 89.98 286.39 90.23 287.68 90.84 C 288.59 90.92 289.50 91.00 290.42 91.08 C 291.72 92.14 293.11 93.09 294.50 94.02 C 295.87 94.02 297.24 94.05 298.61 93.93 C 300.33 92.97 299.98 91.00 300.15 89.36 C 298.28 87.86 296.28 86.55 294.42 85.06 C 292.37 84.93 290.14 85.37 288.32 84.15 C 287.10 84.04 285.89 83.96 284.68 83.85 C 282.99 82.68 280.91 83.03 279.00 82.98 C 274.23 83.05 269.46 82.90 264.69 83.09 M 640.42 102.03 C 638.65 102.95 638.84 104.90 639.03 106.58 C 639.95 108.34 641.89 108.15 643.58 107.97 C 645.34 107.04 645.15 105.10 644.97 103.42 C 644.04 101.65 642.10 101.84 640.42 102.03 M 603.00 429.00 C 602.99 433.00 602.99 437.00 603.00 441.00 L 604.00 441.00 C 604.00 437.00 604.00 433.00 604.00 429.00 L 603.00 429.00 M 292.19 450.19 L 292.19 450.81 L 292.80 450.81 L 292.80 450.19 L 292.19 450.19 M 354.19 540.20 L 354.19 540.81 L 354.80 540.81 L 354.80 540.20 L 354.19 540.20 Z" />
<path fill="#000000" opacity="1.00" d=" M 85.08 25.40 C 86.24 23.32 89.76 23.33 90.93 25.41 C 91.48 28.80 90.05 32.60 91.91 35.69 C 92.09 45.06 91.98 54.44 91.99 63.81 C 91.95 66.94 86.04 66.94 86.01 63.81 C 85.96 55.87 86.00 47.92 86.03 39.98 C 86.00 38.38 86.17 36.65 85.09 35.31 C 84.99 32.01 84.86 28.70 85.08 25.40 Z" />
<path fill="#000000" opacity="1.00" d=" M 60.35 28.77 C 62.59 27.61 65.43 27.59 67.66 28.79 C 69.34 28.97 71.08 29.01 72.65 29.75 C 74.22 29.97 76.01 29.86 76.98 31.40 C 77.13 33.07 77.37 35.03 75.59 35.95 C 73.96 36.09 72.32 35.99 70.69 35.93 C 68.95 34.60 66.68 35.10 64.66 34.87 C 61.95 32.26 60.38 36.70 59.05 38.48 C 58.99 39.43 58.93 40.37 58.87 41.32 C 58.67 41.79 58.26 42.74 58.06 43.21 C 57.85 47.71 58.09 52.21 57.97 56.71 C 59.40 57.92 60.94 58.98 62.50 60.01 C 62.97 60.00 63.92 59.99 64.39 59.98 C 66.46 58.34 68.73 56.92 70.56 54.98 C 71.91 54.98 73.26 54.95 74.60 55.07 C 76.31 55.97 76.00 57.84 76.06 59.46 C 74.89 61.19 73.95 63.57 71.41 63.15 C 70.67 64.12 70.41 66.24 68.82 66.00 C 65.34 65.75 61.52 66.82 58.31 65.13 C 57.80 65.10 56.79 65.04 56.28 65.00 C 54.45 63.09 53.32 60.68 52.04 58.40 C 52.03 53.01 51.88 47.60 52.07 42.21 C 52.27 41.74 52.66 40.80 52.86 40.32 C 52.95 39.08 53.02 37.84 53.10 36.59 C 54.63 34.18 55.40 31.28 57.33 29.14 C 58.33 28.99 59.34 28.87 60.35 28.77 Z" />
<path fill="#000000" opacity="1.00" d=" M 132.40 30.08 C 136.36 29.87 140.34 29.99 144.31 30.09 C 146.43 31.60 149.13 30.85 151.54 31.00 C 152.35 31.82 153.17 32.64 154.00 33.46 C 154.38 38.82 153.17 44.42 154.68 49.63 C 154.97 50.98 155.28 52.33 155.74 53.64 C 155.87 54.07 156.12 54.93 156.24 55.36 C 157.18 56.97 157.14 58.86 156.98 60.65 C 156.09 61.41 155.10 62.01 154.01 62.45 L 153.98 63.00 C 154.61 63.00 155.87 63.01 156.50 63.01 C 157.66 63.79 158.91 64.46 159.98 65.37 C 160.13 67.05 160.37 69.02 158.59 69.95 C 156.96 70.10 155.32 69.98 153.69 69.91 C 152.67 69.49 151.65 69.09 150.62 68.70 C 149.62 69.81 148.61 70.90 147.61 72.01 C 144.88 71.93 142.02 72.39 139.40 71.39 C 138.11 70.96 135.87 70.57 136.00 68.82 C 136.17 65.67 135.29 62.23 136.84 59.33 C 136.93 58.41 137.02 57.48 137.11 56.56 C 138.54 53.24 140.73 50.40 143.43 47.99 C 144.95 48.00 146.47 48.00 148.00 48.00 C 148.00 44.35 148.00 40.69 148.00 37.04 C 146.56 37.00 145.13 36.97 143.69 36.90 C 140.26 35.00 136.13 36.52 132.41 35.93 C 130.33 34.76 130.32 31.24 132.40 30.08 M 143.05 58.47 C 142.98 59.42 142.92 60.38 142.86 61.33 C 142.47 62.36 142.09 63.38 141.70 64.40 C 142.20 64.86 143.21 65.76 143.71 66.21 C 143.96 65.52 144.45 64.13 144.69 63.43 C 144.91 62.17 145.28 60.90 146.35 60.08 C 147.63 59.98 148.90 59.92 150.18 59.90 C 150.68 57.07 148.04 56.00 146.10 54.69 C 144.77 55.67 143.87 57.06 143.05 58.47 Z" />
<path fill="#000000" opacity="1.00" d=" M 286.42 33.05 C 288.33 33.00 290.81 32.32 291.93 34.40 C 292.21 40.86 291.80 47.33 292.06 53.79 C 292.28 54.27 292.70 55.22 292.91 55.69 C 293.02 61.32 293.10 66.97 292.93 72.60 C 291.76 74.67 288.24 74.67 287.07 72.60 C 286.77 67.81 287.22 63.00 286.94 58.21 C 286.72 57.73 286.30 56.78 286.09 56.31 C 285.85 50.44 286.14 44.56 285.91 38.69 C 284.68 37.03 284.28 34.18 286.42 33.05 Z" />
<path fill="#000000" opacity="1.00" d=" M 101.45 37.00 C 106.82 37.00 112.18 37.00 117.54 37.00 C 118.35 37.82 119.17 38.64 120.00 39.46 C 119.94 43.19 120.13 46.92 119.94 50.65 C 118.88 51.56 117.64 52.21 116.50 52.99 C 112.66 53.00 108.81 53.03 104.97 52.95 C 105.47 54.11 105.92 55.29 106.27 56.51 C 107.22 57.80 108.09 59.14 108.97 60.49 C 108.98 61.00 109.01 62.02 109.02 62.53 C 110.21 64.55 111.74 66.34 113.37 68.02 C 118.11 68.06 122.86 67.85 127.60 68.07 C 129.67 69.24 129.67 72.76 127.60 73.93 C 123.74 74.15 119.87 73.92 116.00 74.02 C 113.80 73.99 111.49 74.24 109.40 73.38 C 107.29 73.16 105.60 71.67 105.80 69.45 C 105.23 68.44 104.66 67.45 104.08 66.46 C 104.05 65.99 103.97 65.05 103.94 64.59 C 102.87 63.30 101.93 61.92 101.02 60.53 C 101.00 60.05 100.97 59.08 100.96 58.60 C 99.88 57.32 98.95 55.95 98.06 54.55 C 98.00 54.08 97.88 53.14 97.83 52.66 C 96.15 49.19 97.33 45.17 97.00 41.45 C 98.51 39.99 99.99 38.51 101.45 37.00 M 105.48 43.00 C 104.79 44.48 103.77 45.75 102.76 47.02 C 106.04 46.94 109.34 47.14 112.62 46.94 C 114.04 46.08 114.06 44.48 114.19 43.02 C 111.28 42.99 108.38 43.00 105.48 43.00 Z" />
<path fill="#000000" opacity="1.00" d=" M 176.49 38.00 C 178.86 38.00 181.25 37.89 183.63 38.06 C 185.20 40.37 186.86 42.63 188.99 44.48 C 189.00 44.96 189.03 45.91 189.04 46.39 C 190.10 47.61 191.01 48.97 191.78 50.40 C 192.08 51.49 192.42 52.57 192.78 53.65 C 192.86 54.11 193.02 55.04 193.11 55.50 C 193.71 56.51 194.32 57.52 194.93 58.53 C 195.10 60.60 194.55 62.91 195.93 64.69 C 195.79 66.84 196.88 69.65 194.58 70.97 C 193.52 71.08 192.46 71.08 191.40 70.98 C 189.86 70.01 189.97 68.22 189.75 66.65 C 188.73 64.76 189.02 62.58 188.93 60.52 C 188.31 59.51 187.69 58.50 187.07 57.49 C 187.03 57.01 186.95 56.04 186.90 55.55 C 185.92 53.86 185.05 52.10 184.06 50.41 C 184.05 49.88 184.03 48.82 184.02 48.28 C 182.60 47.08 181.07 46.03 179.52 45.00 C 178.90 45.00 177.66 44.99 177.03 44.99 C 177.01 45.61 176.97 46.85 176.95 47.47 C 176.32 48.48 175.70 49.49 175.08 50.51 C 175.01 51.45 174.93 52.39 174.86 53.32 C 172.95 57.44 174.57 62.21 173.93 66.60 C 173.03 68.38 171.07 68.13 169.41 67.97 C 166.78 66.25 168.86 62.71 167.25 60.35 C 167.12 59.93 166.87 59.07 166.74 58.64 C 165.89 56.63 166.12 54.35 165.22 52.35 C 165.13 51.90 164.96 50.99 164.87 50.53 C 163.90 48.81 163.02 47.03 161.98 45.35 C 161.97 43.75 161.72 41.94 163.41 41.05 C 164.80 40.90 166.20 40.90 167.60 41.04 C 169.47 42.08 168.94 44.24 169.09 46.00 C 169.57 46.00 170.53 46.00 171.01 46.00 C 171.00 44.79 170.99 43.58 170.98 42.37 C 172.67 40.74 174.46 39.20 176.49 38.00 Z" />
<path fill="#000000" opacity="1.00" d=" M 234.40 38.07 C 239.81 37.92 245.24 37.95 250.66 38.05 C 251.55 39.10 252.19 40.33 252.95 41.48 C 253.00 42.42 253.07 43.37 253.15 44.32 C 254.21 46.28 253.85 48.62 254.74 50.64 C 254.87 51.07 255.12 51.93 255.25 52.36 C 256.66 55.63 255.89 59.33 255.93 62.79 C 255.76 63.24 255.41 64.15 255.24 64.60 C 255.96 65.60 256.69 66.59 257.43 67.58 C 258.71 68.45 259.91 69.42 261.16 70.34 C 261.00 72.01 261.29 73.98 259.59 74.98 C 258.10 75.22 256.59 75.01 255.32 74.15 C 254.85 74.10 253.91 74.01 253.44 73.97 C 252.63 73.16 251.82 72.35 251.00 71.55 C 251.00 71.02 251.00 69.98 251.00 69.46 C 249.77 68.26 248.56 67.04 247.38 65.80 C 246.70 67.42 245.99 69.03 245.19 70.59 C 245.10 71.61 245.00 72.62 244.87 73.64 C 243.42 74.82 241.82 75.79 240.39 76.98 C 236.39 76.94 232.39 77.15 228.40 76.93 C 226.00 75.29 226.80 71.64 227.79 69.34 C 228.00 67.65 227.93 65.86 228.82 64.33 C 228.88 63.88 229.00 62.97 229.06 62.52 C 232.01 59.76 233.65 55.99 236.28 52.97 C 239.33 53.01 242.38 52.99 245.43 53.04 C 246.69 53.82 247.99 54.55 249.28 55.29 C 249.05 53.94 248.70 52.62 248.22 51.34 C 247.98 49.65 248.09 47.84 247.16 46.33 C 247.10 45.75 246.98 44.58 246.92 44.00 C 242.75 43.93 238.57 44.15 234.40 43.93 C 232.33 42.76 232.33 39.24 234.40 38.07 M 240.29 58.95 C 238.31 61.56 236.51 64.33 234.00 66.49 C 234.00 67.99 234.00 69.49 234.00 70.99 C 234.66 71.00 235.97 71.02 236.62 71.03 C 238.26 69.34 239.79 67.54 241.00 65.51 C 241.00 64.98 241.00 63.91 241.00 63.38 C 241.50 62.94 242.51 62.06 243.01 61.62 C 243.01 60.97 243.00 59.67 243.00 59.03 C 242.32 59.01 240.97 58.97 240.29 58.95 Z" />
<path fill="#000000" opacity="1.00" d=" M 267.42 39.05 C 269.34 39.00 271.81 38.32 272.93 40.40 C 273.39 43.80 272.23 47.44 273.76 50.64 C 273.88 51.07 274.12 51.93 274.24 52.36 C 275.95 55.25 273.96 58.91 275.91 61.69 C 276.01 64.23 275.99 66.77 276.09 69.31 C 277.31 70.98 277.72 73.82 275.58 74.95 C 273.66 75.00 271.18 75.68 270.07 73.60 C 269.47 69.87 271.02 65.72 269.08 62.30 C 268.78 59.33 269.61 56.14 268.24 53.36 C 268.12 52.93 267.88 52.07 267.76 51.64 C 266.62 49.49 267.08 47.02 266.89 44.69 C 265.70 43.01 265.27 40.19 267.42 39.05 Z" />
<path fill="#000000" opacity="1.00" d=" M 366.41 42.11 C 367.42 42.00 368.45 41.93 369.48 41.89 C 370.31 42.76 371.15 43.62 372.00 44.47 C 372.37 48.18 371.05 52.30 372.91 55.70 C 372.93 56.84 372.96 57.98 373.01 59.12 C 373.89 58.69 374.76 58.20 375.60 57.67 C 376.11 56.75 376.68 55.88 377.33 55.05 C 379.06 54.92 380.80 54.98 382.54 54.98 C 383.66 56.16 384.81 57.31 385.98 58.44 C 386.01 58.93 386.08 59.90 386.12 60.38 C 386.62 61.36 387.04 62.38 387.38 63.43 C 387.97 65.00 387.97 66.70 388.23 68.34 C 389.59 71.22 388.95 74.53 388.93 77.61 C 388.01 79.30 386.13 79.00 384.52 79.10 C 383.67 78.23 382.82 77.37 381.97 76.51 C 382.00 75.56 382.04 74.60 382.09 73.65 C 383.19 72.55 383.19 71.45 382.09 70.36 C 382.02 68.78 381.97 67.20 381.91 65.63 C 381.56 64.91 380.86 63.48 380.51 62.77 C 378.70 63.66 376.89 64.55 375.05 65.34 C 374.99 65.84 374.87 66.83 374.81 67.33 C 373.86 69.16 374.39 71.60 372.63 72.98 C 370.95 73.11 368.97 73.40 368.08 71.60 C 367.89 69.30 368.01 67.00 367.92 64.70 C 366.03 62.22 367.97 58.78 366.09 56.31 C 365.97 53.44 366.03 50.56 365.91 47.70 C 364.72 46.06 364.23 43.18 366.41 42.11 Z" />
<path fill="#ffffff" opacity="1.00" d=" M 105.48 43.00 C 108.38 43.00 111.28 42.99 114.19 43.02 C 114.06 44.48 114.04 46.08 112.62 46.94 C 109.34 47.14 106.04 46.94 102.76 47.02 C 103.77 45.75 104.79 44.48 105.48 43.00 Z" />
<path fill="#000000" opacity="1.00" d=" M 338.07 44.40 C 339.24 42.33 342.75 42.33 343.93 44.40 C 344.15 48.27 343.93 52.14 344.00 56.01 C 347.19 56.04 350.40 55.86 353.60 56.07 C 355.67 57.24 355.67 60.76 353.60 61.93 C 350.68 62.14 347.76 61.97 344.85 61.99 C 345.04 63.58 344.86 65.33 345.91 66.69 C 346.01 70.32 346.14 73.97 345.92 77.60 C 344.75 79.68 341.24 79.67 340.07 77.59 C 339.48 73.87 341.00 69.74 339.10 66.31 C 339.03 64.87 338.99 63.43 338.96 62.00 C 334.44 61.92 329.92 62.15 325.40 61.93 C 323.33 60.76 323.33 57.24 325.40 56.07 C 329.60 55.85 333.80 56.07 338.00 56.00 C 338.06 52.14 337.85 48.26 338.07 44.40 Z" />
<path fill="#000000" opacity="1.00" d=" M 471.07 45.39 C 471.98 43.70 473.86 44.00 475.48 43.90 C 476.63 45.11 477.80 46.30 479.00 47.47 C 478.99 49.41 479.00 51.36 479.09 53.31 C 480.57 55.28 479.85 57.82 479.98 60.08 C 482.49 58.00 486.04 59.93 488.68 58.15 C 489.88 58.04 491.10 57.96 492.32 57.86 C 494.03 56.73 496.81 56.27 497.95 58.42 C 497.99 60.33 498.68 62.82 496.60 63.92 C 494.30 64.10 491.99 63.98 489.70 64.09 C 487.43 65.66 484.55 64.81 481.99 65.01 C 481.94 68.54 482.15 72.07 481.93 75.60 C 480.75 77.67 477.24 77.67 476.07 75.60 C 475.87 73.07 476.01 70.53 476.01 68.00 C 470.80 67.92 465.60 68.15 460.40 67.93 C 458.32 66.76 458.32 63.24 460.40 62.07 C 464.93 61.85 469.47 62.07 474.01 62.00 C 473.84 59.44 474.59 56.63 473.15 54.32 C 473.10 53.83 473.02 52.86 472.97 52.37 C 472.47 51.93 471.47 51.05 470.97 50.61 C 470.98 48.87 470.91 47.12 471.07 45.39 Z" />
<path fill="#000000" opacity="1.00" d=" M 498.42 46.05 C 500.31 46.02 502.81 45.29 503.88 47.39 C 504.21 49.49 503.54 51.85 504.91 53.70 C 505.20 56.35 504.36 59.29 505.88 61.68 C 505.94 62.93 505.99 64.17 506.04 65.42 C 508.75 62.82 511.18 59.86 514.49 58.00 C 516.53 57.99 518.58 57.91 520.63 58.06 C 521.79 58.88 522.05 60.21 522.23 61.52 C 523.10 63.19 523.93 64.90 524.86 66.55 C 524.95 67.00 525.12 67.90 525.21 68.35 C 526.58 70.61 525.34 73.52 526.91 75.69 C 526.70 78.12 528.07 81.38 525.58 82.97 C 524.52 83.08 523.46 83.08 522.41 82.97 C 520.47 81.84 521.09 79.53 520.82 77.67 C 519.75 75.69 520.26 73.29 519.15 71.32 C 519.07 70.37 519.00 69.43 518.94 68.48 C 517.83 67.39 517.48 64.40 515.47 65.04 C 513.24 66.83 511.82 69.34 510.09 71.57 C 510.02 72.01 509.87 72.90 509.80 73.34 C 509.08 74.65 509.00 76.13 508.86 77.57 C 508.15 78.73 507.52 79.94 506.65 80.98 C 505.56 81.08 504.48 81.08 503.41 80.97 C 501.47 79.84 502.09 77.53 501.83 75.67 C 500.09 72.83 501.81 69.30 500.31 66.37 C 500.00 64.99 499.81 63.55 499.10 62.30 C 498.77 59.33 499.61 56.14 498.24 53.36 C 498.12 52.93 497.89 52.07 497.77 51.64 C 496.78 49.89 496.26 47.18 498.42 46.05 Z" />
<path fill="#000000" opacity="1.00" d=" M 633.47 49.00 C 638.19 49.07 642.93 48.87 647.65 49.06 C 648.55 50.12 649.21 51.35 650.00 52.50 C 650.00 56.17 650.00 59.83 650.00 63.50 C 649.21 64.64 648.56 65.87 647.66 66.92 C 646.43 67.02 645.21 67.07 644.00 67.08 C 643.97 74.99 644.04 82.90 643.99 90.81 C 643.94 93.94 638.04 93.93 638.01 90.81 C 637.96 81.69 638.02 72.57 638.00 63.46 C 638.82 62.64 639.64 61.82 640.46 61.00 C 641.63 61.00 642.81 61.00 644.00 61.00 C 643.99 59.00 643.99 56.99 644.00 54.99 C 641.56 54.99 639.12 54.98 636.69 55.09 C 635.05 56.28 632.18 56.76 631.11 54.60 C 631.00 53.57 630.92 52.54 630.89 51.52 C 631.75 50.69 632.61 49.85 633.47 49.00 Z" />
<path fill="#000000" opacity="1.00" d=" M 530.42 52.03 C 532.10 51.84 534.04 51.65 534.97 53.42 C 535.15 55.10 535.34 57.04 533.58 57.97 C 531.89 58.16 529.95 58.34 529.03 56.58 C 528.84 54.90 528.65 52.95 530.42 52.03 Z" />
<path fill="#000000" opacity="1.00" d=" M 613.46 53.00 C 616.16 53.02 618.88 52.87 621.60 53.07 C 623.39 53.98 623.11 55.96 622.98 57.63 C 622.10 58.65 620.84 59.06 619.60 59.39 C 618.38 59.67 617.18 59.96 616.00 60.28 L 615.99 61.00 C 617.53 61.00 619.07 61.00 620.62 60.99 C 621.06 61.50 621.94 62.51 622.39 63.01 C 622.92 63.01 624.00 63.00 624.54 63.00 C 625.35 63.82 626.17 64.64 627.00 65.46 C 627.00 66.00 626.99 67.08 626.99 67.61 C 627.49 68.06 628.50 68.94 629.00 69.38 C 628.63 73.44 629.89 77.84 628.18 81.66 C 628.12 82.13 628.00 83.07 627.94 83.54 C 627.00 85.53 625.46 87.01 623.50 88.00 C 619.80 87.94 616.09 88.15 612.40 87.93 C 610.31 86.82 610.99 84.33 611.05 82.42 C 612.18 80.27 614.99 80.71 616.69 81.88 C 617.62 81.94 618.57 81.99 619.52 82.04 C 620.65 80.85 621.82 79.69 623.00 78.54 C 622.99 76.56 622.99 74.59 622.98 72.61 C 622.01 71.51 621.12 70.35 620.53 69.00 C 619.47 69.00 618.42 69.00 617.38 69.00 C 616.94 68.50 616.07 67.51 615.63 67.01 C 613.69 66.84 611.20 67.71 610.07 65.60 C 609.86 62.56 610.03 59.50 610.00 56.46 C 611.16 55.32 612.31 54.17 613.46 53.00 Z" />
<path fill="#ffffff" opacity="1.00" d=" M 143.05 58.47 C 143.87 57.06 144.77 55.67 146.10 54.69 C 148.04 56.00 150.68 57.07 150.18 59.90 C 148.90 59.92 147.63 59.98 146.35 60.08 C 145.28 60.90 144.91 62.17 144.69 63.43 C 144.45 64.13 143.96 65.52 143.71 66.21 C 143.21 65.76 142.20 64.86 141.70 64.40 C 142.09 63.38 142.47 62.36 142.86 61.33 C 142.92 60.38 142.98 59.42 143.05 58.47 Z" />
<path fill="#000000" opacity="1.00" d=" M 546.07 58.40 C 546.96 56.62 548.92 56.86 550.59 57.03 C 552.86 58.41 551.73 61.29 552.13 63.46 C 553.63 62.55 555.10 61.59 556.60 60.67 C 557.10 59.75 557.68 58.88 558.33 58.05 C 561.43 57.92 564.55 57.90 567.66 58.06 C 568.55 59.11 569.19 60.34 569.96 61.48 C 569.99 62.76 570.03 64.04 570.11 65.32 C 572.24 68.43 569.73 72.61 571.93 75.69 C 571.79 77.84 572.88 80.65 570.58 81.97 C 569.51 82.08 568.45 82.08 567.40 81.98 C 565.85 81.01 565.97 79.22 565.76 77.65 C 563.96 74.44 566.10 70.47 564.15 67.32 C 564.03 66.05 563.92 64.78 563.82 63.51 C 560.98 65.37 558.39 67.58 555.46 69.32 C 553.80 70.22 553.01 71.99 552.03 73.50 C 551.76 75.69 552.88 78.58 550.58 79.97 C 548.92 80.14 546.96 80.38 546.07 78.60 C 545.93 71.87 545.93 65.13 546.07 58.40 Z" />
<path fill="#000000" opacity="1.00" d=" M 584.35 57.05 C 587.10 56.88 589.86 57.02 592.62 57.00 C 593.06 57.50 593.94 58.51 594.39 59.01 C 594.93 59.00 596.01 59.00 596.55 59.00 C 597.99 60.49 599.46 61.97 600.95 63.42 C 600.99 65.19 600.85 67.03 601.75 68.65 C 601.88 69.07 602.13 69.93 602.26 70.36 C 603.14 72.38 602.80 74.71 603.84 76.68 C 603.94 77.89 604.03 79.11 604.15 80.32 C 606.05 83.16 603.90 86.91 605.91 89.69 C 606.08 93.94 605.97 98.20 606.00 102.45 C 603.37 104.86 602.03 108.53 598.53 109.94 C 598.05 109.99 597.08 110.10 596.60 110.15 C 595.20 110.71 593.82 111.28 592.42 111.81 C 591.98 111.92 591.09 112.12 590.64 112.23 C 588.91 113.25 586.90 112.99 585.00 113.02 C 581.80 112.95 578.59 113.14 575.40 112.93 C 573.31 111.82 574.00 109.33 574.05 107.42 C 575.18 105.28 578.01 105.69 579.69 106.91 C 582.96 106.90 586.41 107.53 589.56 106.36 C 590.61 106.05 591.62 105.65 592.60 105.15 C 593.06 105.09 593.96 104.97 594.42 104.91 C 595.45 104.13 596.50 103.34 597.57 102.57 C 598.34 101.49 599.15 100.43 599.97 99.38 C 599.74 96.37 600.79 93.01 599.08 90.30 C 598.77 87.32 599.63 84.11 598.21 81.34 C 597.97 79.64 598.12 77.81 597.12 76.32 C 597.05 75.07 596.99 73.83 596.96 72.59 C 596.14 73.39 595.33 74.19 594.54 75.00 C 591.17 75.00 587.81 75.00 584.46 75.00 C 583.64 74.17 582.82 73.36 582.00 72.54 C 582.24 68.51 581.37 64.31 582.61 60.40 C 582.95 59.17 583.30 57.90 584.35 57.05 M 588.06 62.59 C 588.00 64.75 587.99 66.92 587.99 69.09 C 589.19 69.07 590.41 69.01 591.62 68.91 C 592.83 68.15 593.07 66.82 593.18 65.51 C 591.38 64.68 589.83 63.45 588.06 62.59 Z" />
<path fill="#000000" opacity="1.00" d=" M 400.49 58.00 C 404.21 58.05 407.93 57.87 411.65 58.06 C 412.55 59.12 413.22 60.36 414.01 61.51 C 413.96 63.58 414.31 65.77 413.23 67.65 C 413.12 68.66 413.00 69.66 412.86 70.67 C 411.85 71.59 410.62 72.23 409.50 73.00 C 406.66 73.00 403.82 73.00 400.99 73.00 C 400.99 74.16 401.01 75.32 401.02 76.47 C 402.68 79.06 404.31 81.67 406.29 84.03 C 409.29 84.00 412.30 84.04 415.31 83.91 C 416.97 82.68 419.81 82.28 420.95 84.42 C 421.00 86.34 421.68 88.82 419.60 89.93 C 414.27 90.14 408.93 89.93 403.60 89.99 C 401.78 88.49 399.80 87.20 397.98 85.71 C 397.97 85.18 397.95 84.12 397.94 83.59 C 396.94 81.88 396.05 80.11 395.04 78.40 C 394.99 75.97 394.99 73.53 395.00 71.09 C 393.61 70.78 391.72 71.57 390.72 70.28 C 389.38 69.46 390.11 67.67 390.03 66.41 C 390.98 64.69 392.91 65.00 394.57 64.92 C 396.07 62.25 397.52 59.30 400.49 58.00 M 404.62 64.08 C 403.97 64.41 402.66 65.07 402.01 65.40 C 402.00 65.82 401.99 66.66 401.99 67.08 C 403.21 67.07 404.43 67.02 405.66 66.93 C 406.45 66.08 407.04 65.10 407.42 63.99 C 406.72 64.01 405.32 64.06 404.62 64.08 Z" />
<path fill="#ffffff" opacity="1.00" d=" M 240.29 58.95 C 240.97 58.97 242.32 59.01 243.00 59.03 C 243.00 59.67 243.01 60.97 243.01 61.62 C 242.51 62.06 241.50 62.94 241.00 63.38 C 241.00 63.91 241.00 64.98 241.00 65.51 C 239.79 67.54 238.26 69.34 236.62 71.03 C 235.97 71.02 234.66 71.00 234.00 70.99 C 234.00 69.49 234.00 67.99 234.00 66.49 C 236.51 64.33 238.31 61.56 240.29 58.95 Z" />
<path fill="#000000" opacity="1.00" d=" M 531.42 63.03 C 533.07 62.86 535.02 62.62 535.93 64.40 C 536.07 69.79 536.07 75.20 535.93 80.60 C 534.75 82.67 531.24 82.67 530.07 80.60 C 529.93 75.20 529.93 69.79 530.07 64.40 C 530.41 64.06 531.08 63.37 531.42 63.03 Z" />
<path fill="#ffffff" opacity="1.00" d=" M 588.06 62.59 C 589.83 63.45 591.38 64.68 593.18 65.51 C 593.07 66.82 592.83 68.15 591.62 68.91 C 590.41 69.01 589.19 69.07 587.99 69.09 C 587.99 66.92 588.00 64.75 588.06 62.59 Z" />
<path fill="#ffffff" opacity="1.00" d=" M 404.62 64.08 C 405.32 64.06 406.72 64.01 407.42 63.99 C 407.04 65.10 406.45 66.08 405.66 66.93 C 404.43 67.02 403.21 67.07 401.99 67.08 C 401.99 66.66 402.00 65.82 402.01 65.40 C 402.66 65.07 403.97 64.41 404.62 64.08 Z" />
<path fill="#000000" opacity="1.00" d=" M 264.69 83.09 C 269.46 82.90 274.23 83.05 279.00 82.98 C 280.91 83.03 282.99 82.68 284.68 83.85 C 285.89 83.96 287.10 84.04 288.32 84.15 C 290.14 85.37 292.37 84.93 294.42 85.06 C 296.28 86.55 298.28 87.86 300.15 89.36 C 299.98 91.00 300.33 92.97 298.61 93.93 C 297.24 94.05 295.87 94.02 294.50 94.02 C 293.11 93.09 291.72 92.14 290.42 91.08 C 289.50 91.00 288.59 90.92 287.68 90.84 C 286.39 90.23 285.00 89.98 283.63 89.69 C 281.55 88.70 279.21 89.03 277.00 88.98 C 273.23 89.03 269.46 88.93 265.69 89.09 C 263.51 90.68 260.57 89.37 258.34 90.82 C 257.86 90.88 256.92 91.00 256.45 91.06 C 255.04 91.95 253.67 92.89 252.40 93.97 C 251.10 93.99 249.82 94.01 248.53 94.04 C 247.51 94.67 246.50 95.31 245.48 95.94 C 244.21 95.99 242.95 96.04 241.68 96.12 C 239.48 97.69 236.49 96.29 234.31 97.91 C 230.67 98.01 227.03 98.14 223.40 97.92 C 221.32 96.76 221.33 93.24 223.40 92.07 C 226.36 91.87 229.34 92.07 232.30 91.92 C 234.48 90.29 237.45 91.67 239.68 90.14 C 240.61 90.06 241.55 89.99 242.49 89.93 C 243.51 89.29 244.53 88.66 245.55 88.03 C 246.90 88.01 248.25 88.00 249.62 88.00 C 250.05 87.51 250.93 86.53 251.37 86.03 C 251.86 85.98 252.83 85.88 253.32 85.83 C 254.60 85.23 255.99 84.98 257.37 84.68 C 259.69 83.55 262.51 84.58 264.69 83.09 Z" />
<path fill="#000000" opacity="1.00" d=" M 640.42 102.03 C 642.10 101.84 644.04 101.65 644.97 103.42 C 645.15 105.10 645.34 107.04 643.58 107.97 C 641.89 108.15 639.95 108.34 639.03 106.58 C 638.84 104.90 638.65 102.95 640.42 102.03 Z" />
<path fill="#000000" opacity="1.00" d=" M 0.00 220.83 C 2.07 226.98 0.55 233.63 1.00 240.00 L 0.00 240.00 L 0.00 220.83 Z" />
<path fill="#000000" opacity="1.00" d=" M 372.99 233.98 C 377.84 232.39 382.99 233.16 388.00 232.97 C 394.18 232.43 399.64 235.84 405.48 237.24 C 406.81 238.19 408.17 239.10 409.55 240.00 C 410.03 240.00 411.01 240.00 411.49 240.00 C 414.89 243.84 419.42 246.41 422.79 250.29 C 423.82 254.05 425.44 257.75 425.00 261.75 C 429.77 260.75 434.61 260.12 439.39 259.22 C 446.04 258.42 452.84 259.85 459.41 258.23 C 461.76 257.87 464.15 258.00 466.52 258.00 C 468.20 254.40 470.32 250.96 473.21 248.20 C 476.75 244.18 482.11 242.76 486.63 240.17 C 492.11 238.59 497.89 238.60 503.37 240.16 C 505.46 241.25 507.64 242.18 509.66 243.43 C 513.55 246.31 516.50 250.25 518.83 254.47 C 519.43 256.79 520.29 259.03 520.84 261.37 C 521.17 264.44 521.15 267.56 520.86 270.63 C 520.19 273.42 519.16 276.12 518.13 278.80 C 519.89 280.44 521.65 282.12 523.65 283.49 C 527.33 289.83 530.96 296.20 534.74 302.48 C 536.55 308.10 540.10 313.12 540.94 319.07 C 541.28 324.24 540.61 329.44 541.24 334.59 C 542.36 338.98 541.94 343.52 542.02 347.99 C 541.96 351.35 542.36 354.81 541.22 358.04 C 543.54 358.01 545.87 357.99 548.21 357.99 C 548.03 360.04 547.78 362.10 547.23 364.10 C 547.67 364.07 548.55 364.00 548.99 363.97 C 549.00 364.60 549.00 365.85 549.01 366.48 C 548.32 367.20 547.64 367.93 546.96 368.66 C 547.90 371.28 548.51 373.99 549.14 376.70 C 550.65 378.52 552.73 380.01 553.34 382.42 C 557.22 389.58 559.29 397.47 561.28 405.31 C 563.58 410.06 564.62 415.27 565.82 420.38 C 566.17 423.20 566.13 426.08 565.86 428.91 C 565.71 430.73 564.76 432.55 565.32 434.39 C 569.28 449.69 572.36 465.22 576.83 480.39 C 581.11 496.23 584.69 512.26 587.75 528.39 C 587.94 532.62 589.14 536.75 589.03 541.00 C 588.97 560.67 589.01 580.33 589.00 600.00 L 585.00 600.00 C 585.01 583.00 584.99 566.00 585.01 549.00 C 585.63 533.38 581.56 518.12 578.11 503.02 C 574.61 486.19 568.85 469.92 565.71 453.00 L 565.00 452.96 C 564.99 464.64 565.03 476.32 564.96 488.00 C 564.83 492.70 566.17 497.29 566.04 502.00 C 565.94 514.00 566.04 526.02 566.01 538.02 C 566.20 539.58 565.40 540.84 564.27 541.82 C 563.63 545.85 562.87 549.89 562.97 554.00 C 563.02 567.33 562.99 580.67 563.00 594.00 C 561.66 593.99 560.33 593.99 559.00 594.00 C 558.98 579.67 559.04 565.33 558.97 551.00 C 558.90 546.57 559.81 542.21 560.24 537.82 C 562.59 536.29 561.93 533.36 562.05 531.00 C 561.95 522.00 562.00 513.00 562.04 504.00 C 562.17 499.29 560.83 494.70 560.96 490.00 C 561.07 473.33 560.93 456.67 561.04 440.00 C 561.45 431.06 557.83 422.66 555.79 414.11 C 551.79 396.96 545.23 380.53 541.51 363.31 C 540.70 363.99 539.94 364.72 539.25 365.51 C 538.68 369.00 539.22 372.57 538.82 376.08 C 537.75 384.12 535.88 392.09 532.63 399.55 C 527.60 405.00 526.54 412.63 522.80 418.83 C 521.19 421.49 520.39 424.51 519.32 427.40 C 518.21 430.48 516.13 433.13 515.24 436.30 C 514.51 438.86 513.69 441.43 512.29 443.72 C 512.19 444.24 512.00 445.29 511.90 445.81 C 503.06 448.16 494.78 452.20 486.99 456.93 C 484.06 458.67 480.65 459.21 477.56 460.53 C 473.77 462.18 469.96 463.89 465.90 464.74 C 461.29 465.33 456.63 464.91 452.00 464.99 C 445.65 464.88 439.24 465.47 432.94 464.35 C 427.77 463.48 422.27 464.88 417.34 462.66 C 411.67 460.27 406.03 457.79 400.25 455.64 C 399.11 454.54 397.98 453.42 396.86 452.32 C 397.78 454.81 398.63 457.35 399.00 460.00 C 400.06 467.24 404.08 473.52 406.88 480.16 C 410.48 488.75 414.40 497.26 416.67 506.33 C 418.59 512.13 420.33 517.99 422.31 523.77 C 423.66 527.97 426.78 532.03 425.58 536.64 C 424.94 540.07 425.03 543.55 424.91 547.02 C 423.82 559.06 422.50 571.09 420.10 582.95 C 418.84 588.60 418.49 594.43 416.86 600.00 L 412.78 600.00 C 414.99 588.91 416.84 577.75 418.75 566.60 C 418.96 561.73 419.95 556.95 420.19 552.08 C 421.60 545.43 420.84 538.60 420.96 531.86 C 419.10 528.46 417.97 524.73 417.00 521.00 C 415.67 515.79 413.55 510.82 412.18 505.62 C 410.96 500.76 409.01 496.12 406.79 491.65 C 406.38 492.07 405.57 492.93 405.16 493.36 C 404.74 495.12 404.25 496.87 403.84 498.64 C 403.42 499.07 402.58 499.93 402.16 500.37 C 399.62 511.18 396.26 521.77 393.29 532.47 C 388.98 545.57 386.12 559.07 382.62 572.39 C 381.07 578.19 378.75 583.96 378.98 590.06 C 379.13 593.53 377.47 596.70 376.67 600.00 L 371.46 600.00 C 371.84 599.33 372.60 597.99 372.98 597.32 C 372.99 596.09 373.00 594.86 373.01 593.65 C 373.67 592.53 374.32 591.42 374.97 590.31 C 374.48 583.50 377.14 577.08 378.84 570.62 C 381.20 561.29 383.50 551.94 385.84 542.61 C 390.03 527.94 395.02 513.47 398.22 498.55 C 399.18 497.19 400.10 495.81 401.02 494.43 C 400.99 493.10 400.97 491.78 400.95 490.47 C 402.24 489.17 403.43 487.78 404.66 486.43 C 404.35 485.47 404.07 484.52 403.79 483.57 C 399.34 475.02 394.90 466.23 393.82 456.51 C 392.43 454.93 391.14 453.26 389.96 451.52 C 389.98 451.01 390.02 449.99 390.05 449.48 C 388.58 447.15 386.71 445.14 384.75 443.24 C 382.37 440.99 380.73 438.14 379.00 435.41 C 379.00 434.91 379.00 433.91 379.00 433.42 C 377.99 432.47 377.00 431.52 376.00 430.58 C 376.00 430.09 376.00 429.10 376.00 428.60 C 372.89 424.56 371.13 419.78 369.08 415.18 C 369.04 414.26 369.01 413.35 368.99 412.45 C 367.32 410.82 365.67 409.18 364.01 407.56 C 363.99 407.10 363.95 406.18 363.93 405.73 C 362.31 403.66 361.14 401.31 359.97 398.99 C 358.52 396.07 356.47 393.49 355.35 390.41 C 353.74 386.06 351.58 381.93 349.12 378.01 C 347.34 374.62 345.45 371.28 343.02 368.31 C 343.00 366.20 343.00 364.09 343.00 361.98 C 343.49 362.00 344.49 362.03 344.99 362.05 C 343.84 359.10 342.90 356.08 341.63 353.18 C 339.40 348.53 340.20 343.24 338.85 338.35 C 338.21 338.02 336.94 337.37 336.30 337.04 C 335.42 337.02 334.55 337.01 333.68 336.99 C 330.05 335.04 326.36 332.90 323.68 329.71 C 327.83 332.83 333.16 331.96 338.00 332.08 C 341.34 332.01 344.83 332.34 348.01 331.07 C 350.97 329.94 353.86 328.64 356.84 327.56 C 358.47 324.28 359.63 320.79 360.41 317.21 C 353.04 315.11 344.41 315.52 338.28 320.55 L 338.11 320.44 C 336.76 319.37 335.41 318.32 333.99 317.36 C 333.99 316.77 333.99 315.59 333.99 315.00 C 332.65 315.00 331.32 315.00 329.99 315.00 C 329.99 317.07 330.00 319.15 330.03 321.23 C 331.03 322.18 331.97 323.19 332.84 324.28 C 329.67 324.94 326.43 325.02 323.22 325.15 C 323.09 325.98 322.84 327.65 322.71 328.49 C 321.26 326.62 320.24 324.48 319.13 322.41 C 317.61 316.89 317.62 311.11 319.13 305.58 C 321.95 299.13 327.13 293.95 333.58 291.13 C 338.77 289.89 344.29 289.24 349.42 291.13 C 351.02 289.49 352.70 287.91 354.25 286.21 C 356.37 283.91 357.60 280.79 360.33 279.06 C 362.34 278.68 364.32 278.17 366.34 277.79 C 361.96 275.27 358.11 271.97 354.02 269.03 C 351.88 267.46 349.41 266.38 347.35 264.70 C 343.11 260.70 337.37 259.01 332.39 256.18 C 329.69 255.93 327.02 255.39 324.40 254.71 C 322.14 253.74 323.26 250.94 322.90 249.04 C 324.02 249.00 325.14 248.98 326.27 248.95 C 331.68 244.66 338.56 243.14 344.70 240.24 C 348.40 239.54 352.00 238.43 355.61 237.39 C 361.36 236.03 367.29 235.57 372.99 233.98 M 375.32 237.77 C 374.44 237.92 373.55 238.08 372.67 238.24 C 371.33 238.64 369.99 239.00 368.65 239.38 C 365.95 240.40 362.96 239.53 360.33 240.73 C 358.64 240.93 356.95 241.14 355.34 241.71 C 354.92 241.85 354.06 242.14 353.63 242.28 C 351.90 242.80 350.14 243.15 348.42 243.66 C 347.40 244.03 346.39 244.41 345.38 244.81 C 344.93 244.89 344.03 245.04 343.58 245.12 C 341.83 246.01 340.14 246.99 338.41 247.91 C 337.95 247.95 337.03 248.04 336.57 248.08 C 334.53 249.21 332.47 250.30 330.50 251.55 C 331.88 251.96 333.26 252.36 334.66 252.75 C 335.10 252.85 335.98 253.04 336.42 253.14 C 340.04 255.11 343.78 256.84 347.46 258.71 C 350.03 259.90 351.49 262.55 353.94 263.92 C 357.46 265.79 360.63 268.29 363.56 270.99 C 364.87 270.99 366.19 270.99 367.51 271.00 C 367.96 272.48 369.29 273.19 370.48 274.01 C 371.51 274.03 372.56 274.02 373.60 274.00 C 374.05 273.50 374.95 272.49 375.40 271.99 C 376.46 271.99 377.52 272.00 378.60 272.01 C 379.04 271.52 379.94 270.53 380.38 270.04 C 380.86 269.98 381.83 269.86 382.31 269.80 C 383.64 269.35 385.00 268.97 386.36 268.62 C 388.45 268.24 390.54 267.76 392.63 267.37 C 393.95 266.99 395.28 266.67 396.63 266.36 C 397.97 266.00 399.30 265.65 400.65 265.29 C 401.07 265.15 401.92 264.86 402.35 264.71 C 405.61 263.14 409.44 264.90 412.68 263.23 C 413.55 263.07 414.43 262.92 415.32 262.77 C 417.14 261.84 419.20 261.98 421.18 261.89 C 421.01 260.33 420.93 258.71 420.15 257.29 C 420.08 256.34 420.02 255.39 419.97 254.44 C 417.33 251.95 415.00 249.09 412.00 247.00 C 410.33 245.87 408.91 244.44 407.50 243.02 C 407.03 243.00 406.09 242.96 405.61 242.95 C 404.30 241.90 402.93 240.95 401.53 240.03 C 401.06 239.99 400.10 239.90 399.62 239.86 C 398.62 239.41 397.61 239.00 396.58 238.62 C 395.27 238.26 393.95 237.98 392.63 237.68 C 389.90 236.54 386.86 237.11 384.00 236.98 C 381.11 237.14 378.03 236.46 375.32 237.77 M 505.99 258.00 C 505.99 259.49 506.00 260.99 506.02 262.48 C 506.71 263.56 507.41 264.63 508.12 265.70 C 507.77 267.10 507.33 268.49 506.98 269.90 C 502.44 269.91 498.01 271.15 493.74 272.59 C 491.55 273.90 489.76 275.75 487.87 277.43 C 487.01 276.27 486.15 275.11 485.31 273.95 C 483.07 274.08 480.13 273.31 479.30 276.13 C 478.76 274.73 478.19 273.35 477.64 271.97 C 475.98 271.99 474.32 272.01 472.68 272.04 C 473.08 274.66 474.03 277.14 475.42 279.39 C 478.45 280.60 479.94 283.86 482.94 285.11 C 485.45 286.29 488.30 285.98 491.00 286.06 C 494.20 285.97 497.46 286.28 500.64 285.72 C 505.23 282.61 509.06 278.54 512.89 274.58 C 512.86 273.23 512.84 271.89 512.82 270.55 L 513.08 270.23 C 513.03 268.95 512.99 267.68 512.95 266.40 C 513.47 265.96 514.49 265.07 515.01 264.63 C 515.00 262.41 514.99 260.21 515.00 258.00 C 511.99 258.00 508.99 258.00 505.99 258.00 M 483.61 259.02 C 483.04 259.34 481.88 259.98 481.31 260.31 C 480.98 260.88 480.34 262.04 480.02 262.61 C 480.06 263.53 480.06 264.46 480.02 265.39 C 480.34 265.96 480.98 267.12 481.31 267.69 C 481.88 268.02 483.04 268.66 483.61 268.98 C 484.53 268.93 485.46 268.93 486.39 268.98 C 486.96 268.66 488.12 268.02 488.69 267.69 C 489.02 267.12 489.66 265.96 489.98 265.39 C 489.92 264.46 489.92 263.53 489.98 262.61 C 489.66 262.04 489.02 260.88 488.69 260.31 C 488.12 259.98 486.96 259.34 486.39 259.02 C 485.46 259.07 484.53 259.07 483.61 259.02 M 460.30 262.90 C 453.61 263.19 446.90 262.81 440.21 263.07 C 439.74 263.26 438.80 263.65 438.32 263.85 C 437.10 263.95 435.88 264.04 434.68 264.15 C 432.45 265.62 429.54 264.37 427.32 265.85 C 426.75 265.90 425.60 266.01 425.03 266.06 C 425.01 266.54 424.98 267.51 424.97 268.00 C 423.32 268.00 421.68 268.00 420.05 268.00 C 420.01 267.43 419.94 266.28 419.91 265.70 C 418.69 266.00 417.50 266.37 416.34 266.80 C 415.44 266.93 414.55 267.06 413.67 267.19 C 410.80 268.87 407.30 267.21 404.37 268.68 C 403.01 268.97 401.66 269.28 400.36 269.74 C 399.93 269.87 399.07 270.13 398.64 270.25 C 397.08 270.99 395.34 271.02 393.66 271.23 C 391.65 272.19 389.28 271.76 387.32 272.86 C 386.36 272.92 385.41 272.99 384.46 273.04 C 383.05 273.95 381.66 274.89 380.38 275.98 C 379.38 275.98 378.38 275.99 377.38 276.00 C 376.94 276.50 376.06 277.50 375.62 278.00 C 375.09 278.00 374.03 278.01 373.50 278.02 C 372.15 278.90 370.80 279.77 369.51 280.73 C 368.44 281.08 367.39 281.45 366.34 281.82 C 365.86 281.88 364.90 281.98 364.43 282.04 C 360.84 285.14 358.36 289.19 355.07 292.56 C 354.43 293.89 356.16 294.44 356.89 295.22 C 360.62 297.63 362.82 301.73 364.90 305.55 C 364.98 306.47 365.06 307.40 365.16 308.33 C 365.35 308.80 365.74 309.74 365.93 310.21 C 365.89 313.34 366.69 316.78 365.16 319.67 C 365.06 320.59 364.98 321.52 364.90 322.45 C 363.40 325.61 361.34 328.43 359.14 331.14 C 356.43 333.34 353.61 335.40 350.45 336.90 C 349.52 336.98 348.59 337.06 347.67 337.16 C 346.14 338.08 344.32 338.00 342.62 338.23 C 342.96 338.83 343.62 340.02 343.95 340.62 C 344.14 343.30 343.44 346.19 344.81 348.66 C 344.88 349.12 345.03 350.03 345.10 350.49 C 345.69 351.50 346.30 352.50 346.91 353.50 C 346.97 353.98 347.09 354.93 347.16 355.41 C 347.71 356.79 348.28 358.18 348.81 359.58 C 348.91 360.02 349.12 360.91 349.23 361.36 C 350.65 364.19 349.80 367.46 350.00 370.51 C 352.35 372.55 354.10 375.12 355.96 377.59 C 355.98 378.07 356.01 379.05 356.02 379.53 C 356.93 380.91 357.86 382.28 358.90 383.57 C 358.98 384.02 359.14 384.91 359.22 385.36 C 359.57 386.42 359.91 387.49 360.25 388.57 C 360.80 389.57 361.36 390.57 361.93 391.57 C 361.95 392.09 361.98 393.13 361.99 393.65 C 364.49 396.30 368.36 397.70 369.26 401.58 C 369.78 402.57 370.32 403.55 370.88 404.53 C 370.96 405.00 371.11 405.94 371.19 406.41 C 371.79 407.73 372.11 409.18 372.71 410.52 C 373.05 411.56 373.41 412.60 373.81 413.63 C 373.88 414.08 374.02 414.98 374.09 415.43 C 374.87 416.42 375.65 417.43 376.35 418.49 C 376.78 419.48 377.23 420.48 377.67 421.47 C 378.73 423.10 379.82 424.72 380.75 426.44 C 381.54 427.83 382.45 429.16 383.26 430.56 C 385.83 435.22 389.07 439.47 392.25 443.73 C 393.31 445.14 394.87 446.02 396.48 446.70 C 399.27 448.63 402.08 450.59 404.53 452.97 C 405.01 453.00 405.96 453.06 406.44 453.09 C 407.43 453.64 408.43 454.20 409.44 454.75 C 410.50 455.08 411.57 455.42 412.64 455.78 C 413.09 455.86 413.98 456.02 414.43 456.10 C 415.70 457.13 417.06 458.05 418.45 458.94 C 418.92 459.00 419.87 459.12 420.34 459.17 C 420.81 459.36 421.74 459.74 422.21 459.93 C 426.57 460.17 430.94 459.85 435.31 460.09 C 436.64 461.18 438.38 461.00 439.98 461.03 C 447.33 460.97 454.68 461.00 462.03 461.02 C 463.27 461.04 464.47 460.81 465.63 460.32 C 466.99 460.02 468.36 459.74 469.66 459.19 C 470.13 459.13 471.07 459.00 471.54 458.93 C 472.90 458.06 474.25 457.16 475.53 456.18 C 476.93 456.00 478.36 455.85 479.65 455.21 C 480.11 455.13 481.02 454.96 481.47 454.88 C 482.44 454.32 483.42 453.77 484.41 453.23 C 484.93 453.01 485.97 452.56 486.48 452.33 C 487.84 451.47 489.15 450.52 490.53 449.68 C 491.87 449.03 493.22 448.38 494.59 447.76 C 495.57 447.21 496.55 446.66 497.54 446.10 C 498.01 446.05 498.97 445.94 499.44 445.89 C 501.08 444.93 502.80 444.11 504.48 443.23 C 506.67 443.33 508.34 441.71 508.21 439.51 C 509.18 438.22 510.07 436.88 510.95 435.54 C 510.99 435.05 511.07 434.07 511.11 433.58 C 511.64 432.56 512.16 431.54 512.67 430.52 C 513.35 429.45 514.11 428.42 514.90 427.42 C 514.98 426.98 515.14 426.09 515.22 425.64 C 515.57 424.57 515.91 423.50 516.26 422.44 C 516.79 421.43 517.34 420.44 517.90 419.45 C 517.94 418.98 518.02 418.05 518.07 417.58 C 519.12 416.30 520.06 414.92 520.98 413.53 C 521.00 413.03 521.02 412.01 521.04 411.51 C 522.32 409.48 523.68 407.51 524.96 405.49 C 524.98 404.49 525.01 403.50 525.03 402.51 C 526.58 400.10 528.09 397.65 529.92 395.43 C 529.98 394.98 530.10 394.06 530.15 393.61 C 530.64 392.62 531.03 391.60 531.32 390.55 C 531.90 388.84 532.14 387.03 532.78 385.35 C 532.91 384.45 533.05 383.55 533.20 382.66 C 534.60 380.40 533.33 377.48 534.92 375.31 C 535.42 371.34 534.10 367.06 535.81 363.33 C 535.93 362.44 536.06 361.55 536.19 360.67 C 537.61 358.41 536.33 355.48 537.91 353.31 C 538.10 347.53 537.95 341.75 538.00 335.97 C 538.52 336.00 539.56 336.06 540.08 336.09 C 538.94 334.49 538.97 332.52 538.79 330.66 C 537.05 327.50 538.84 323.68 537.36 320.44 C 537.05 319.39 536.64 318.38 536.15 317.41 C 536.09 316.94 535.95 316.00 535.88 315.53 C 535.33 314.55 534.79 313.57 534.26 312.58 C 533.59 311.17 532.88 309.78 532.12 308.43 C 532.07 307.96 531.96 307.01 531.90 306.53 C 531.33 305.55 530.77 304.57 530.23 303.59 C 530.00 303.07 529.55 302.04 529.33 301.52 C 528.26 299.89 527.16 298.28 526.25 296.56 C 525.45 295.16 524.54 293.84 523.74 292.44 C 521.88 288.91 519.58 285.56 516.48 283.02 C 516.24 283.02 515.77 283.02 515.53 283.01 C 513.46 284.81 511.78 287.04 509.58 288.69 C 507.91 289.63 506.15 290.43 504.42 291.26 C 502.75 292.13 501.06 292.96 499.43 293.88 C 498.49 293.99 497.55 294.06 496.61 294.11 C 495.96 294.43 494.66 295.08 494.01 295.40 L 493.98 295.99 C 494.58 296.01 495.79 296.06 496.40 296.08 C 498.40 297.26 500.54 298.19 502.58 299.30 C 505.00 300.55 505.24 304.58 508.50 304.20 C 514.84 308.29 519.45 314.41 525.00 319.44 C 525.00 328.96 525.00 338.48 525.00 348.00 C 523.66 348.00 522.33 348.00 521.00 348.00 C 521.00 339.48 521.00 330.95 521.00 322.43 C 517.99 319.61 514.98 316.75 512.74 313.26 C 510.45 311.39 507.79 310.05 505.49 308.21 C 502.06 308.44 501.74 304.14 499.11 302.77 C 496.41 301.16 494.49 298.46 491.53 297.30 C 490.41 296.63 489.38 295.83 488.38 295.02 C 486.09 295.00 483.81 295.00 481.54 294.98 C 480.51 294.32 479.48 293.67 478.46 293.03 C 475.87 293.00 473.28 293.02 470.69 292.91 C 469.34 291.81 467.60 292.00 466.01 291.97 C 456.00 292.02 445.98 292.00 435.96 291.98 C 434.66 291.88 433.44 292.17 432.32 292.85 C 431.10 292.95 429.88 293.04 428.68 293.15 C 426.79 294.42 424.49 293.92 422.37 294.01 C 421.93 294.51 421.05 295.51 420.61 296.01 C 420.06 296.01 418.94 295.99 418.39 295.99 C 417.95 296.49 417.06 297.50 416.62 298.00 C 416.10 298.01 415.05 298.03 414.53 298.04 C 413.51 298.68 412.49 299.32 411.47 299.96 C 410.95 299.97 409.91 299.99 409.39 300.00 C 408.95 300.49 408.07 301.48 407.63 301.97 C 407.14 302.02 406.17 302.11 405.68 302.15 C 403.82 303.38 401.56 302.93 399.48 303.04 C 396.65 304.72 393.83 306.86 392.54 310.00 C 391.91 310.00 390.66 310.00 390.03 310.00 C 390.02 310.50 389.99 311.50 389.97 312.00 C 389.27 312.00 387.87 312.00 387.17 312.00 C 387.10 312.66 386.94 313.99 386.87 314.66 C 385.15 316.04 383.03 316.99 381.77 318.88 C 380.02 321.51 378.05 324.26 375.01 325.46 C 374.99 325.96 374.96 326.97 374.95 327.47 C 374.32 328.47 373.71 329.48 373.10 330.49 C 373.02 330.96 372.86 331.89 372.78 332.36 C 372.26 334.11 371.72 335.85 371.26 337.62 C 371.13 338.06 370.88 338.92 370.75 339.36 C 369.84 340.98 370.00 342.85 369.96 344.64 C 369.47 345.08 368.49 345.95 368.00 346.39 C 367.99 347.79 368.00 349.20 368.01 350.61 C 367.51 351.05 366.52 351.93 366.02 352.37 C 365.99 352.87 365.91 353.87 365.88 354.37 C 365.39 355.36 364.97 356.38 364.62 357.43 C 363.66 359.83 364.06 362.47 363.97 365.00 C 364.10 367.23 363.53 369.68 364.85 371.68 C 364.95 372.89 365.04 374.10 365.15 375.32 C 366.37 377.16 365.93 379.41 366.06 381.48 C 366.69 382.50 367.32 383.52 367.97 384.54 C 367.98 385.71 368.00 386.89 368.02 388.08 C 366.79 388.06 365.56 388.01 364.34 387.93 C 363.43 386.88 362.78 385.64 362.02 384.50 C 361.87 382.10 362.52 379.48 361.15 377.32 C 361.04 376.10 360.95 374.89 360.85 373.68 C 359.40 371.36 360.16 368.55 359.99 366.00 C 360.19 362.79 359.41 359.42 360.69 356.37 C 360.97 354.99 361.23 353.60 361.83 352.32 C 361.88 351.83 361.98 350.86 362.03 350.37 C 362.53 349.93 363.51 349.05 364.00 348.61 C 364.00 347.20 363.99 345.80 364.00 344.40 C 364.47 343.97 365.42 343.10 365.89 342.67 C 365.99 341.20 366.08 339.70 366.75 338.35 C 366.88 337.93 367.13 337.07 367.26 336.64 C 368.08 334.62 367.90 332.37 368.76 330.36 C 368.86 329.92 369.08 329.03 369.19 328.59 C 369.68 327.61 370.05 326.60 370.30 325.54 C 370.71 324.53 371.00 323.49 371.18 322.42 C 375.79 319.73 378.90 315.14 382.87 311.64 C 382.44 309.22 384.48 308.01 386.46 307.31 C 387.75 306.72 388.84 305.75 389.39 304.42 C 391.90 302.82 393.85 300.49 396.46 299.03 C 398.55 298.93 400.82 299.39 402.68 298.15 C 403.16 298.11 404.13 298.01 404.61 297.97 C 405.04 297.50 405.91 296.58 406.34 296.11 C 407.81 295.98 409.34 295.97 410.66 295.19 C 411.12 295.12 412.05 294.98 412.51 294.92 C 414.95 293.40 417.40 291.87 419.60 290.03 C 421.96 289.88 424.55 290.51 426.68 289.15 C 427.88 289.04 429.10 288.95 430.32 288.85 C 431.70 287.87 433.38 287.97 434.98 287.97 C 446.68 288.04 458.39 287.98 470.09 288.00 C 471.70 287.91 473.18 288.57 474.71 289.00 C 472.36 286.94 469.52 285.57 467.07 283.66 C 466.94 282.27 466.96 280.89 466.94 279.51 C 466.30 278.48 465.66 277.46 465.02 276.45 C 464.73 273.42 465.78 270.04 464.10 267.31 C 464.01 265.44 463.98 263.58 463.94 261.72 C 462.67 261.96 461.46 262.35 460.30 262.90 M 342.61 303.02 C 342.03 303.34 340.88 303.98 340.30 304.30 C 339.97 304.88 339.33 306.03 339.00 306.61 C 339.06 307.86 339.06 309.13 339.00 310.39 C 339.33 310.97 339.97 312.12 340.30 312.70 C 340.88 313.02 342.03 313.66 342.61 313.98 C 343.53 313.93 344.46 313.93 345.39 313.98 C 345.97 313.66 347.12 313.02 347.70 312.70 C 348.03 312.12 348.67 310.97 349.00 310.39 C 348.93 309.13 348.93 307.86 349.00 306.61 C 348.67 306.03 348.03 304.88 347.70 304.30 C 347.12 303.98 345.97 303.34 345.39 303.02 C 344.46 303.06 343.53 303.06 342.61 303.02 Z" />
<path fill="#feff9a" opacity="1.00" d=" M 375.32 237.77 C 378.03 236.46 381.11 237.14 384.00 236.98 C 386.86 237.11 389.90 236.54 392.63 237.68 C 393.95 237.98 395.27 238.26 396.58 238.62 C 397.61 239.00 398.62 239.41 399.62 239.86 C 400.10 239.90 401.06 239.99 401.53 240.03 C 402.93 240.95 404.30 241.90 405.61 242.95 C 406.09 242.96 407.03 243.00 407.50 243.02 C 408.91 244.44 410.33 245.87 412.00 247.00 C 415.00 249.09 417.33 251.95 419.97 254.44 C 420.02 255.39 420.08 256.34 420.15 257.29 C 420.93 258.71 421.01 260.33 421.18 261.89 C 419.20 261.98 417.14 261.84 415.32 262.77 C 414.43 262.92 413.55 263.07 412.68 263.23 C 409.44 264.90 405.61 263.14 402.35 264.71 C 401.92 264.86 401.07 265.15 400.65 265.29 C 399.30 265.65 397.97 266.00 396.63 266.36 C 395.28 266.67 393.95 266.99 392.63 267.37 C 390.54 267.76 388.45 268.24 386.36 268.62 C 385.00 268.97 383.64 269.35 382.31 269.80 C 381.83 269.86 380.86 269.98 380.38 270.04 C 379.94 270.53 379.04 271.52 378.60 272.01 C 377.52 272.00 376.46 271.99 375.40 271.99 C 374.95 272.49 374.05 273.50 373.60 274.00 C 372.56 274.02 371.51 274.03 370.48 274.01 C 369.29 273.19 367.96 272.48 367.51 271.00 C 366.19 270.99 364.87 270.99 363.56 270.99 C 360.63 268.29 357.46 265.79 353.94 263.92 C 351.49 262.55 350.03 259.90 347.46 258.71 C 343.78 256.84 340.04 255.11 336.42 253.14 C 335.98 253.04 335.10 252.85 334.66 252.75 C 333.26 252.36 331.88 251.96 330.50 251.55 C 332.47 250.30 334.53 249.21 336.57 248.08 C 337.03 248.04 337.95 247.95 338.41 247.91 C 340.14 246.99 341.83 246.01 343.58 245.12 C 344.03 245.04 344.93 244.89 345.38 244.81 C 346.39 244.41 347.40 244.03 348.42 243.66 C 350.14 243.15 351.90 242.80 353.63 242.28 C 354.06 242.14 354.92 241.85 355.34 241.71 C 356.95 241.14 358.64 240.93 360.33 240.73 C 362.96 239.53 365.95 240.40 368.65 239.38 C 369.99 239.00 371.33 238.64 372.67 238.24 C 373.55 238.08 374.44 237.92 375.32 237.77 Z" />
<path fill="#feff7c" opacity="1.00" d=" M 0.00 240.00 L 1.00 240.00 C 1.00 248.67 1.00 257.33 0.99 266.00 C 0.94 272.11 1.58 278.32 0.00 284.32 L 0.00 240.00 Z" />
<path fill="#ffffff" opacity="1.00" d=" M 505.99 258.00 C 508.99 258.00 511.99 258.00 515.00 258.00 C 514.99 260.21 515.00 262.41 515.01 264.63 C 514.49 265.07 513.47 265.96 512.95 266.40 C 512.99 267.68 513.03 268.95 513.08 270.23 C 511.04 270.12 509.01 270.02 506.98 269.90 C 507.33 268.49 507.77 267.10 508.12 265.70 C 507.41 264.63 506.71 263.56 506.02 262.48 C 506.00 260.99 505.99 259.49 505.99 258.00 Z" />
<path fill="#ffffff" opacity="1.00" d=" M 483.61 259.02 C 484.53 259.07 485.46 259.07 486.39 259.02 C 486.96 259.34 488.12 259.98 488.69 260.31 C 489.02 260.88 489.66 262.04 489.98 262.61 C 489.92 263.53 489.92 264.46 489.98 265.39 C 489.66 265.96 489.02 267.12 488.69 267.69 C 488.12 268.02 486.96 268.66 486.39 268.98 C 485.46 268.93 484.53 268.93 483.61 268.98 C 483.04 268.66 481.88 268.02 481.31 267.69 C 480.98 267.12 480.34 265.96 480.02 265.39 C 480.06 264.46 480.06 263.53 480.02 262.61 C 480.34 262.04 480.98 260.88 481.31 260.31 C 481.88 259.98 483.04 259.34 483.61 259.02 Z" />
<path fill="#ffffff" opacity="1.00" d=" M 460.30 262.90 C 461.46 262.35 462.67 261.96 463.94 261.72 C 463.98 263.58 464.01 265.44 464.10 267.31 C 465.78 270.04 464.73 273.42 465.02 276.45 C 465.66 277.46 466.30 278.48 466.94 279.51 C 466.96 280.89 466.94 282.27 467.07 283.66 C 469.52 285.57 472.36 286.94 474.71 289.00 C 473.18 288.57 471.70 287.91 470.09 288.00 C 458.39 287.98 446.68 288.04 434.98 287.97 C 433.38 287.97 431.70 287.87 430.32 288.85 C 429.10 288.95 427.88 289.04 426.68 289.15 C 424.55 290.51 421.96 289.88 419.60 290.03 C 417.40 291.87 414.95 293.40 412.51 294.92 C 412.05 294.98 411.12 295.12 410.66 295.19 C 409.34 295.97 407.81 295.98 406.34 296.11 C 405.91 296.58 405.04 297.50 404.61 297.97 C 404.13 298.01 403.16 298.11 402.68 298.15 C 400.82 299.39 398.55 298.93 396.46 299.03 C 393.85 300.49 391.90 302.82 389.39 304.42 C 388.84 305.75 387.75 306.72 386.46 307.31 C 384.48 308.01 382.44 309.22 382.87 311.64 C 378.90 315.14 375.79 319.73 371.18 322.42 C 371.00 323.49 370.71 324.53 370.30 325.54 C 370.05 326.60 369.68 327.61 369.19 328.59 C 369.08 329.03 368.86 329.92 368.76 330.36 C 367.90 332.37 368.08 334.62 367.26 336.64 C 367.13 337.07 366.88 337.93 366.75 338.35 C 366.08 339.70 365.99 341.20 365.89 342.67 C 365.42 343.10 364.47 343.97 364.00 344.40 C 363.99 345.80 364.00 347.20 364.00 348.61 C 363.51 349.05 362.53 349.93 362.03 350.37 C 361.98 350.86 361.88 351.83 361.83 352.32 C 361.23 353.60 360.97 354.99 360.69 356.37 C 359.41 359.42 360.19 362.79 359.99 366.00 C 360.16 368.55 359.40 371.36 360.85 373.68 C 360.95 374.89 361.04 376.10 361.15 377.32 C 362.52 379.48 361.87 382.10 362.02 384.50 C 362.78 385.64 363.43 386.88 364.34 387.93 C 365.56 388.01 366.79 388.06 368.02 388.08 C 368.00 386.89 367.98 385.71 367.97 384.54 C 367.32 383.52 366.69 382.50 366.06 381.48 C 365.93 379.41 366.37 377.16 365.15 375.32 C 365.04 374.10 364.95 372.89 364.85 371.68 C 363.53 369.68 364.10 367.23 363.97 365.00 C 364.06 362.47 363.66 359.83 364.62 357.43 C 364.97 356.38 365.39 355.36 365.88 354.37 C 365.91 353.87 365.99 352.87 366.02 352.37 C 366.52 351.93 367.51 351.05 368.01 350.61 C 368.00 349.20 367.99 347.79 368.00 346.39 C 368.49 345.95 369.47 345.08 369.96 344.64 C 370.00 342.85 369.84 340.98 370.75 339.36 C 370.88 338.92 371.13 338.06 371.26 337.62 C 371.72 335.85 372.26 334.11 372.78 332.36 C 372.86 331.89 373.02 330.96 373.10 330.49 C 373.71 329.48 374.32 328.47 374.95 327.47 C 374.96 326.97 374.99 325.96 375.01 325.46 C 378.05 324.26 380.02 321.51 381.77 318.88 C 383.03 316.99 385.15 316.04 386.87 314.66 C 386.94 313.99 387.10 312.66 387.17 312.00 C 387.87 312.00 389.27 312.00 389.97 312.00 C 389.99 311.50 390.02 310.50 390.03 310.00 C 390.66 310.00 391.91 310.00 392.54 310.00 C 393.83 306.86 396.65 304.72 399.48 303.04 C 401.56 302.93 403.82 303.38 405.68 302.15 C 406.17 302.11 407.14 302.02 407.63 301.97 C 408.07 301.48 408.95 300.49 409.39 300.00 C 409.91 299.99 410.95 299.97 411.47 299.96 C 412.49 299.32 413.51 298.68 414.53 298.04 C 415.05 298.03 416.10 298.01 416.62 298.00 C 417.06 297.50 417.95 296.49 418.39 295.99 C 418.94 295.99 420.06 296.01 420.61 296.01 C 421.05 295.51 421.93 294.51 422.37 294.01 C 424.49 293.92 426.79 294.42 428.68 293.15 C 429.88 293.04 431.10 292.95 432.32 292.85 C 433.44 292.17 434.66 291.88 435.96 291.98 C 445.98 292.00 456.00 292.02 466.01 291.97 C 467.60 292.00 469.34 291.81 470.69 292.91 C 473.28 293.02 475.87 293.00 478.46 293.03 C 479.48 293.67 480.51 294.32 481.54 294.98 C 483.81 295.00 486.09 295.00 488.38 295.02 C 489.38 295.83 490.41 296.63 491.53 297.30 C 494.49 298.46 496.41 301.16 499.11 302.77 C 501.74 304.14 502.06 308.44 505.49 308.21 C 507.79 310.05 510.45 311.39 512.74 313.26 C 514.98 316.75 517.99 319.61 521.00 322.43 C 521.00 330.95 521.00 339.48 521.00 348.00 C 522.33 348.00 523.66 348.00 525.00 348.00 C 525.00 338.48 525.00 328.96 525.00 319.44 C 519.45 314.41 514.84 308.29 508.50 304.20 C 505.24 304.58 505.00 300.55 502.58 299.30 C 500.54 298.19 498.40 297.26 496.40 296.08 C 495.79 296.06 494.58 296.01 493.98 295.99 L 494.01 295.40 C 494.66 295.08 495.96 294.43 496.61 294.11 C 497.55 294.06 498.49 293.99 499.43 293.88 C 501.06 292.96 502.75 292.13 504.42 291.26 C 506.15 290.43 507.91 289.63 509.58 288.69 C 511.78 287.04 513.46 284.81 515.53 283.01 C 515.77 283.02 516.24 283.02 516.48 283.02 C 519.58 285.56 521.88 288.91 523.74 292.44 C 524.54 293.84 525.45 295.16 526.25 296.56 C 527.16 298.28 528.26 299.89 529.33 301.52 C 529.55 302.04 530.00 303.07 530.23 303.59 C 530.77 304.57 531.33 305.55 531.90 306.53 C 531.96 307.01 532.07 307.96 532.12 308.43 C 532.88 309.78 533.59 311.17 534.26 312.58 C 534.79 313.57 535.33 314.55 535.88 315.53 C 535.95 316.00 536.09 316.94 536.15 317.41 C 536.64 318.38 537.05 319.39 537.36 320.44 C 538.84 323.68 537.05 327.50 538.79 330.66 C 538.97 332.52 538.94 334.49 540.08 336.09 C 539.56 336.06 538.52 336.00 538.00 335.97 C 537.95 341.75 538.10 347.53 537.91 353.31 C 536.33 355.48 537.61 358.41 536.19 360.67 C 536.06 361.55 535.93 362.44 535.81 363.33 C 534.10 367.06 535.42 371.34 534.92 375.31 C 533.33 377.48 534.60 380.40 533.20 382.66 C 533.05 383.55 532.91 384.45 532.78 385.35 C 532.14 387.03 531.90 388.84 531.32 390.55 C 531.03 391.60 530.64 392.62 530.15 393.61 C 530.10 394.06 529.98 394.98 529.92 395.43 C 528.09 397.65 526.58 400.10 525.03 402.51 C 525.01 403.50 524.98 404.49 524.96 405.49 C 523.68 407.51 522.32 409.48 521.04 411.51 C 521.02 412.01 521.00 413.03 520.98 413.53 C 520.06 414.92 519.12 416.30 518.07 417.58 C 518.02 418.05 517.94 418.98 517.90 419.45 C 517.34 420.44 516.79 421.43 516.26 422.44 C 515.91 423.50 515.57 424.57 515.22 425.64 C 515.14 426.09 514.98 426.98 514.90 427.42 C 514.11 428.42 513.35 429.45 512.67 430.52 C 512.16 431.54 511.64 432.56 511.11 433.58 C 511.07 434.07 510.99 435.05 510.95 435.54 C 510.07 436.88 509.18 438.22 508.21 439.51 C 508.34 441.71 506.67 443.33 504.48 443.23 C 502.80 444.11 501.08 444.93 499.44 445.89 C 498.97 445.94 498.01 446.05 497.54 446.10 C 496.55 446.66 495.57 447.21 494.59 447.76 C 493.22 448.38 491.87 449.03 490.53 449.68 C 489.15 450.52 487.84 451.47 486.48 452.33 C 485.97 452.56 484.93 453.01 484.41 453.23 C 483.42 453.77 482.44 454.32 481.47 454.88 C 481.02 454.96 480.11 455.13 479.65 455.21 C 478.36 455.85 476.93 456.00 475.53 456.18 C 474.25 457.16 472.90 458.06 471.54 458.93 C 471.07 459.00 470.13 459.13 469.66 459.19 C 468.36 459.74 466.99 460.02 465.63 460.32 C 464.47 460.81 463.27 461.04 462.03 461.02 C 454.68 461.00 447.33 460.97 439.98 461.03 C 438.38 461.00 436.64 461.18 435.31 460.09 C 430.94 459.85 426.57 460.17 422.21 459.93 C 421.74 459.74 420.81 459.36 420.34 459.17 C 419.87 459.12 418.92 459.00 418.45 458.94 C 417.06 458.05 415.70 457.13 414.43 456.10 C 413.98 456.02 413.09 455.86 412.64 455.78 C 411.57 455.42 410.50 455.08 409.44 454.75 C 408.43 454.20 407.43 453.64 406.44 453.09 C 405.96 453.06 405.01 453.00 404.53 452.97 C 402.08 450.59 399.27 448.63 396.48 446.70 C 394.87 446.02 393.31 445.14 392.25 443.73 C 389.07 439.47 385.83 435.22 383.26 430.56 C 382.45 429.16 381.54 427.83 380.75 426.44 C 379.82 424.72 378.73 423.10 377.67 421.47 C 377.23 420.48 376.78 419.48 376.35 418.49 C 375.65 417.43 374.87 416.42 374.09 415.43 C 374.02 414.98 373.88 414.08 373.81 413.63 C 373.41 412.60 373.05 411.56 372.71 410.52 C 372.11 409.18 371.79 407.73 371.19 406.41 C 371.11 405.94 370.96 405.00 370.88 404.53 C 370.32 403.55 369.78 402.57 369.26 401.58 C 368.36 397.70 364.49 396.30 361.99 393.65 C 361.98 393.13 361.95 392.09 361.93 391.57 C 361.36 390.57 360.80 389.57 360.25 388.57 C 359.91 387.49 359.57 386.42 359.22 385.36 C 359.14 384.91 358.98 384.02 358.90 383.57 C 357.86 382.28 356.93 380.91 356.02 379.53 C 356.01 379.05 355.98 378.07 355.96 377.59 C 354.10 375.12 352.35 372.55 350.00 370.51 C 349.80 367.46 350.65 364.19 349.23 361.36 C 349.12 360.91 348.91 360.02 348.81 359.58 C 348.28 358.18 347.71 356.79 347.16 355.41 C 347.09 354.93 346.97 353.98 346.91 353.50 C 346.30 352.50 345.69 351.50 345.10 350.49 C 345.03 350.03 344.88 349.12 344.81 348.66 C 343.44 346.19 344.14 343.30 343.95 340.62 C 343.62 340.02 342.96 338.83 342.62 338.23 C 344.32 338.00 346.14 338.08 347.67 337.16 C 348.59 337.06 349.52 336.98 350.45 336.90 C 353.61 335.40 356.43 333.34 359.14 331.14 C 361.34 328.43 363.40 325.61 364.90 322.45 C 364.98 321.52 365.06 320.59 365.16 319.67 C 366.69 316.78 365.89 313.34 365.93 310.21 C 365.74 309.74 365.35 308.80 365.16 308.33 C 365.06 307.40 364.98 306.47 364.90 305.55 C 362.82 301.73 360.62 297.63 356.89 295.22 C 356.16 294.44 354.43 293.89 355.07 292.56 C 358.36 289.19 360.84 285.14 364.43 282.04 C 364.90 281.98 365.86 281.88 366.34 281.82 C 367.39 281.45 368.44 281.08 369.51 280.73 C 370.80 279.77 372.15 278.90 373.50 278.02 C 374.03 278.01 375.09 278.00 375.62 278.00 C 376.06 277.50 376.94 276.50 377.38 276.00 C 378.38 275.99 379.38 275.98 380.38 275.98 C 381.66 274.89 383.05 273.95 384.46 273.04 C 385.41 272.99 386.36 272.92 387.32 272.86 C 389.28 271.76 391.65 272.19 393.66 271.23 C 395.34 271.02 397.08 270.99 398.64 270.25 C 399.07 270.13 399.93 269.87 400.36 269.74 C 401.66 269.28 403.01 268.97 404.37 268.68 C 407.30 267.21 410.80 268.87 413.67 267.19 C 414.55 267.06 415.44 266.93 416.34 266.80 C 417.50 266.37 418.69 266.00 419.91 265.70 C 419.94 266.28 420.01 267.43 420.05 268.00 C 421.68 268.00 423.32 268.00 424.97 268.00 C 424.98 267.51 425.01 266.54 425.03 266.06 C 425.60 266.01 426.75 265.90 427.32 265.85 C 429.54 264.37 432.45 265.62 434.68 264.15 C 435.88 264.04 437.10 263.95 438.32 263.85 C 438.80 263.65 439.74 263.26 440.21 263.07 C 446.90 262.81 453.61 263.19 460.30 262.90 M 421.19 302.19 L 421.19 302.81 L 421.80 302.81 L 421.80 302.19 L 421.19 302.19 M 406.19 310.19 L 406.19 310.81 L 406.81 310.81 L 406.81 310.19 L 406.19 310.19 Z" />
<path fill="#005454" opacity="1.00" d=" M 493.74 272.59 C 498.01 271.15 502.44 269.91 506.98 269.90 C 506.61 272.36 506.15 274.81 505.78 277.28 C 507.07 277.15 508.36 276.97 509.65 276.74 C 511.17 275.86 510.87 273.87 511.29 272.42 C 511.67 271.96 512.44 271.02 512.82 270.55 C 512.84 271.89 512.86 273.23 512.89 274.58 C 509.06 278.54 505.23 282.61 500.64 285.72 C 497.46 286.28 494.20 285.97 491.00 286.06 C 488.30 285.98 485.45 286.29 482.94 285.11 C 479.94 283.86 478.45 280.60 475.42 279.39 C 474.03 277.14 473.08 274.66 472.68 272.04 C 474.32 272.01 475.98 271.99 477.64 271.97 C 478.19 273.35 478.76 274.73 479.30 276.13 C 480.13 273.31 483.07 274.08 485.31 273.95 C 486.15 275.11 487.01 276.27 487.87 277.43 C 489.76 275.75 491.55 273.90 493.74 272.59 M 500.27 279.26 L 500.27 279.73 L 500.74 279.72 L 500.73 279.26 L 500.27 279.26 Z" />
<path fill="#abffff" opacity="1.00" d=" M 506.98 269.90 C 509.01 270.02 511.04 270.12 513.08 270.23 L 512.82 270.55 C 512.44 271.02 511.67 271.96 511.29 272.42 C 510.87 273.87 511.17 275.86 509.65 276.74 C 508.36 276.97 507.07 277.15 505.78 277.28 C 506.15 274.81 506.61 272.36 506.98 269.90 Z" />
<path fill="#000000" opacity="1.00" d=" M 500.27 279.26 L 500.73 279.26 L 500.74 279.72 L 500.27 279.73 L 500.27 279.26 Z" />
<path fill="#000000" opacity="1.00" d=" M 421.19 302.19 L 421.80 302.19 L 421.80 302.81 L 421.19 302.81 L 421.19 302.19 Z" />
<path fill="#ffffff" opacity="1.00" d=" M 342.61 303.02 C 343.53 303.06 344.46 303.06 345.39 303.02 C 345.97 303.34 347.12 303.98 347.70 304.30 C 348.03 304.88 348.67 306.03 349.00 306.61 C 348.93 307.86 348.93 309.13 349.00 310.39 C 348.67 310.97 348.03 312.12 347.70 312.70 C 347.12 313.02 345.97 313.66 345.39 313.98 C 344.46 313.93 343.53 313.93 342.61 313.98 C 342.03 313.66 340.88 313.02 340.30 312.70 C 339.97 312.12 339.33 310.97 339.00 310.39 C 339.06 309.13 339.06 307.86 339.00 306.61 C 339.33 306.03 339.97 304.88 340.30 304.30 C 340.88 303.98 342.03 303.34 342.61 303.02 Z" />
<path fill="#000000" opacity="1.00" d=" M 406.19 310.19 L 406.81 310.19 L 406.81 310.81 L 406.19 310.81 L 406.19 310.19 Z" />
<path fill="#ffffff" opacity="1.00" d=" M 329.99 315.00 C 331.32 315.00 332.65 315.00 333.99 315.00 C 333.99 315.59 333.99 316.77 333.99 317.36 C 335.41 318.32 336.76 319.37 338.11 320.44 C 336.54 321.71 334.97 322.97 333.31 324.12 C 333.19 324.16 332.96 324.24 332.84 324.28 C 331.97 323.19 331.03 322.18 330.03 321.23 C 330.00 319.15 329.99 317.07 329.99 315.00 Z" />
<path fill="#005454" opacity="1.00" d=" M 338.28 320.55 C 344.41 315.52 353.04 315.11 360.41 317.21 C 359.63 320.79 358.47 324.28 356.84 327.56 C 353.86 328.64 350.97 329.94 348.01 331.07 C 344.83 332.34 341.34 332.01 338.00 332.08 C 333.16 331.96 327.83 332.83 323.68 329.71 C 323.44 329.40 322.95 328.79 322.71 328.49 C 322.84 327.65 323.09 325.98 323.22 325.15 C 326.43 325.02 329.67 324.94 332.84 324.28 C 332.96 324.24 333.19 324.16 333.31 324.12 C 335.15 324.84 337.00 325.53 338.87 326.20 C 339.46 327.50 341.25 327.72 341.91 326.32 C 342.40 326.19 343.37 325.93 343.86 325.80 C 344.28 325.81 345.12 325.83 345.54 325.85 L 345.71 325.16 L 345.04 324.72 L 344.14 324.93 C 344.11 324.47 344.05 323.55 344.02 323.09 L 343.99 322.42 C 342.03 321.98 340.04 321.55 338.28 320.55 M 350.16 320.97 C 349.65 322.44 349.15 323.91 348.65 325.39 C 350.26 323.93 351.88 322.48 353.49 321.02 C 352.66 321.01 350.99 320.98 350.16 320.97 Z" />
<path fill="#abffff" opacity="1.00" d=" M 338.11 320.44 L 338.28 320.55 C 340.04 321.55 342.03 321.98 343.99 322.42 L 344.02 323.09 C 342.69 323.41 340.66 324.09 341.14 325.87 C 340.57 325.95 339.43 326.12 338.87 326.20 C 337.00 325.53 335.15 324.84 333.31 324.12 C 334.97 322.97 336.54 321.71 338.11 320.44 Z" />
<path fill="#000b0b" opacity="1.00" d=" M 350.16 320.97 C 350.99 320.98 352.66 321.01 353.49 321.02 C 351.88 322.48 350.26 323.93 348.65 325.39 C 349.15 323.91 349.65 322.44 350.16 320.97 Z" />
<path fill="#ffffff" opacity="1.00" d=" M 341.14 325.87 C 340.66 324.09 342.69 323.41 344.02 323.09 C 344.05 323.55 344.11 324.47 344.14 324.93 L 343.86 325.80 C 343.37 325.93 342.40 326.19 341.91 326.32 L 341.14 325.87 Z" />
<path fill="#000000" opacity="1.00" d=" M 344.14 324.93 L 345.04 324.72 L 345.71 325.16 L 345.54 325.85 C 345.12 325.83 344.28 325.81 343.86 325.80 L 344.14 324.93 Z" />
<path fill="#000000" opacity="1.00" d=" M 338.87 326.20 C 339.43 326.12 340.57 325.95 341.14 325.87 L 341.91 326.32 C 341.25 327.72 339.46 327.50 338.87 326.20 Z" />
<path fill="#ff007f" opacity="1.00" d=" M 539.25 365.51 C 539.94 364.72 540.70 363.99 541.51 363.31 C 545.23 380.53 551.79 396.96 555.79 414.11 C 557.83 422.66 561.45 431.06 561.04 440.00 C 560.93 456.67 561.07 473.33 560.96 490.00 C 560.83 494.70 562.17 499.29 562.04 504.00 C 562.00 513.00 561.95 522.00 562.05 531.00 C 561.93 533.36 562.59 536.29 560.24 537.82 C 559.81 542.21 558.90 546.57 558.97 551.00 C 559.04 565.33 558.98 579.67 559.00 594.00 C 560.33 593.99 561.66 593.99 563.00 594.00 C 562.99 580.67 563.02 567.33 562.97 554.00 C 562.87 549.89 563.63 545.85 564.27 541.82 C 565.40 540.84 566.20 539.58 566.01 538.02 C 566.04 526.02 565.94 514.00 566.04 502.00 C 566.17 497.29 564.83 492.70 564.96 488.00 C 565.03 476.32 564.99 464.64 565.00 452.96 L 565.71 453.00 C 568.85 469.92 574.61 486.19 578.11 503.02 C 581.56 518.12 585.63 533.38 585.01 549.00 C 584.99 566.00 585.01 583.00 585.00 600.00 L 416.86 600.00 C 418.49 594.43 418.84 588.60 420.10 582.95 C 422.50 571.09 423.82 559.06 424.91 547.02 C 425.03 543.55 424.94 540.07 425.58 536.64 C 426.78 532.03 423.66 527.97 422.31 523.77 C 420.33 517.99 418.59 512.13 416.67 506.33 C 414.40 497.26 410.48 488.75 406.88 480.16 C 404.08 473.52 400.06 467.24 399.00 460.00 C 398.63 457.35 397.78 454.81 396.86 452.32 C 397.98 453.42 399.11 454.54 400.25 455.64 C 406.03 457.79 411.67 460.27 417.34 462.66 C 422.27 464.88 427.77 463.48 432.94 464.35 C 439.24 465.47 445.65 464.88 452.00 464.99 C 456.63 464.91 461.29 465.33 465.90 464.74 C 469.96 463.89 473.77 462.18 477.56 460.53 C 480.65 459.21 484.06 458.67 486.99 456.93 C 494.78 452.20 503.06 448.16 511.90 445.81 C 512.00 445.29 512.19 444.24 512.29 443.72 C 513.69 441.43 514.51 438.86 515.24 436.30 C 516.13 433.13 518.21 430.48 519.32 427.40 C 520.39 424.51 521.19 421.49 522.80 418.83 C 526.54 412.63 527.60 405.00 532.63 399.55 C 535.88 392.09 537.75 384.12 538.82 376.08 C 539.22 372.57 538.68 369.00 539.25 365.51 Z" />
<path fill="#fdff00" opacity="1.00" d=" M 603.00 429.00 L 604.00 429.00 C 604.00 433.00 604.00 437.00 604.00 441.00 L 603.00 441.00 C 602.99 437.00 602.99 433.00 603.00 429.00 Z" />
<path fill="#000000" opacity="1.00" d=" M 292.19 450.19 L 292.80 450.19 L 292.80 450.81 L 292.19 450.81 L 292.19 450.19 Z" />
<path fill="#000000" opacity="1.00" d=" M 272.88 474.84 C 276.11 474.60 279.16 475.60 281.60 477.75 C 285.34 478.49 288.98 479.64 292.76 480.21 C 298.09 488.03 305.78 493.92 313.69 498.93 C 314.28 498.96 315.46 499.03 316.04 499.06 C 315.99 500.25 315.94 501.44 315.90 502.64 C 318.45 505.38 321.37 507.76 324.01 510.42 C 324.01 510.90 323.99 511.85 323.99 512.33 C 327.06 514.43 329.73 517.06 332.66 519.35 C 335.35 522.42 337.91 525.77 339.09 529.75 C 340.59 534.83 343.08 539.55 345.95 543.99 C 347.34 545.86 346.93 548.25 347.10 550.44 C 348.42 552.15 349.65 553.94 351.00 555.65 C 351.00 560.51 351.00 565.38 351.00 570.25 C 349.71 572.48 348.81 575.08 346.72 576.73 C 345.16 578.00 343.48 579.10 341.86 580.29 C 347.60 586.64 352.96 593.35 358.36 600.00 L 352.59 600.00 C 348.04 594.32 343.19 588.89 338.80 583.09 C 333.96 586.04 329.40 589.56 324.05 591.56 C 326.35 594.53 328.68 597.50 331.51 600.00 L 325.46 600.00 C 323.22 597.93 321.56 595.38 319.73 592.98 C 309.30 592.78 298.82 593.50 288.42 592.59 C 287.25 592.78 286.08 592.97 284.91 593.14 C 283.73 592.44 282.54 591.76 281.37 591.07 C 279.84 591.05 278.32 590.98 276.81 590.85 C 274.12 589.66 271.81 587.80 269.15 586.56 C 268.73 584.82 268.24 583.10 267.83 581.36 C 263.99 577.81 260.88 573.59 257.50 569.62 C 256.04 566.95 254.28 564.49 252.01 562.46 C 252.00 562.00 251.99 561.09 251.98 560.63 C 250.77 558.46 249.58 556.27 248.07 554.30 C 248.05 553.85 248.01 552.95 247.99 552.50 C 247.04 551.09 246.08 549.69 245.04 548.35 C 245.03 547.89 245.01 546.97 245.00 546.51 C 243.40 544.10 241.58 541.86 239.97 539.46 C 239.98 538.52 240.00 537.59 240.02 536.67 C 239.01 535.84 237.53 535.41 236.99 534.15 C 235.58 531.80 236.20 528.98 235.72 526.41 C 235.27 523.96 234.96 521.49 234.85 519.01 C 236.56 519.00 238.27 518.99 239.99 519.00 C 239.99 518.25 240.01 516.75 240.01 516.00 C 241.78 515.99 243.55 515.99 245.32 516.00 C 243.69 513.32 241.33 511.11 240.12 508.20 C 239.82 504.78 240.03 501.34 240.01 497.91 C 243.50 497.59 246.94 498.29 249.58 500.72 C 251.09 501.04 252.59 501.40 254.08 501.86 C 254.05 501.39 254.00 500.46 253.97 500.00 C 255.51 499.99 257.05 500.00 258.59 500.01 C 259.05 499.50 259.95 498.50 260.41 497.99 C 261.73 497.99 263.05 497.99 264.38 498.00 C 265.52 497.27 266.68 496.58 267.83 495.87 C 268.66 491.85 269.24 487.79 269.09 483.67 C 271.15 484.59 273.19 485.56 275.28 486.43 C 273.93 482.69 272.62 478.87 272.88 474.84 M 278.70 481.69 C 278.96 483.06 279.34 484.40 279.86 485.71 C 279.95 487.13 280.00 488.56 280.05 489.99 C 276.90 490.00 273.75 489.97 270.60 490.05 C 270.93 490.70 271.61 491.99 271.94 492.64 C 271.95 495.00 272.42 497.51 271.20 499.68 C 271.12 500.26 270.98 501.42 270.91 502.00 C 268.40 502.00 265.90 502.00 263.39 501.99 C 262.95 502.50 262.05 503.50 261.61 504.01 C 260.41 504.00 259.21 503.99 258.01 504.00 C 258.01 504.75 257.99 506.26 257.99 507.01 C 256.51 506.99 255.04 506.99 253.56 506.98 C 252.52 506.33 251.49 505.68 250.45 505.04 C 249.50 505.00 248.55 504.97 247.61 504.95 C 246.29 503.89 244.91 502.93 243.51 502.00 C 242.80 502.00 241.38 501.99 240.66 501.99 C 243.82 504.63 244.84 508.84 247.94 511.52 C 247.99 511.99 248.09 512.92 248.14 513.38 C 248.58 514.37 249.01 515.38 249.42 516.40 C 250.00 518.20 250.01 520.11 250.11 522.00 C 248.09 521.99 246.07 522.00 244.05 522.00 C 244.02 521.50 243.98 520.50 243.95 520.00 L 243.00 520.00 C 243.00 520.74 243.00 522.21 243.00 522.95 C 242.50 522.98 241.50 523.02 241.00 523.05 C 241.00 525.56 241.00 528.08 240.99 530.61 C 241.50 531.05 242.50 531.95 243.01 532.39 C 243.00 533.77 243.00 535.16 243.00 536.56 C 244.66 538.16 246.30 539.80 247.95 541.42 C 248.02 541.90 248.14 542.85 248.21 543.32 C 248.54 544.43 248.88 545.55 249.24 546.66 C 249.68 547.11 250.56 548.00 251.00 548.45 C 251.00 548.95 251.01 549.96 251.02 550.46 C 252.32 552.49 253.67 554.49 254.97 556.53 C 254.99 557.01 255.01 557.97 255.02 558.45 C 258.26 561.50 259.93 565.78 263.21 568.79 C 265.84 572.27 268.74 575.52 272.00 578.44 C 272.00 580.27 272.00 582.12 272.00 583.97 C 272.61 583.99 273.83 584.02 274.44 584.04 C 275.47 584.66 276.50 585.28 277.53 585.91 C 277.98 585.99 278.89 586.15 279.34 586.23 C 280.45 586.55 281.56 586.88 282.67 587.23 C 283.60 588.15 284.53 589.06 285.46 590.00 C 291.07 589.94 296.68 590.13 302.29 589.88 C 306.69 587.98 311.72 589.44 316.38 589.00 C 315.46 587.99 314.53 587.00 313.62 586.00 C 315.56 585.99 317.50 586.00 319.44 586.00 C 319.97 586.49 321.02 587.47 321.55 587.96 C 324.61 587.26 327.16 584.90 330.22 584.09 C 331.95 583.91 333.70 583.97 335.44 583.96 C 338.74 580.91 342.96 578.72 345.00 574.50 C 345.00 573.51 345.01 572.53 345.02 571.56 C 345.67 570.51 346.33 569.47 346.99 568.44 C 347.01 564.45 346.99 560.47 347.01 556.49 C 345.70 554.20 343.81 552.38 342.09 550.44 C 342.32 549.13 343.42 547.76 342.29 546.58 C 340.40 543.62 338.67 540.56 337.13 537.40 C 337.04 536.96 336.87 536.07 336.78 535.63 C 336.40 534.59 336.07 533.54 335.78 532.48 C 335.20 531.45 334.63 530.42 334.07 529.40 C 334.05 528.91 334.01 527.94 333.99 527.46 C 331.71 525.25 329.61 522.82 327.00 521.00 C 324.52 519.33 322.75 516.76 320.00 515.48 C 320.00 514.97 320.00 513.96 320.00 513.46 C 317.88 511.38 315.91 509.07 313.32 507.57 C 313.01 507.03 312.38 505.96 312.07 505.43 C 312.05 504.95 311.99 504.00 311.97 503.52 C 303.94 497.83 295.20 492.42 289.53 484.19 C 288.10 484.00 286.67 483.74 285.32 483.25 C 284.43 483.07 283.55 482.91 282.68 482.75 C 281.36 482.35 280.03 482.00 278.70 481.69 Z" />
<path fill="#feff7c" opacity="1.00" d=" M 278.70 481.69 C 280.03 482.00 281.36 482.35 282.68 482.75 C 283.55 482.91 284.43 483.07 285.32 483.25 C 286.67 483.74 288.10 484.00 289.53 484.19 C 295.20 492.42 303.94 497.83 311.97 503.52 C 311.99 504.00 312.05 504.95 312.07 505.43 C 312.38 505.96 313.01 507.03 313.32 507.57 C 315.91 509.07 317.88 511.38 320.00 513.46 C 320.00 513.96 320.00 514.97 320.00 515.48 C 322.75 516.76 324.52 519.33 327.00 521.00 C 329.61 522.82 331.71 525.25 333.99 527.46 C 334.01 527.94 334.05 528.91 334.07 529.40 C 334.63 530.42 335.20 531.45 335.78 532.48 C 336.07 533.54 336.40 534.59 336.78 535.63 C 336.87 536.07 337.04 536.96 337.13 537.40 C 338.67 540.56 340.40 543.62 342.29 546.58 C 343.42 547.76 342.32 549.13 342.09 550.44 C 343.81 552.38 345.70 554.20 347.01 556.49 C 346.99 560.47 347.01 564.45 346.99 568.44 C 346.33 569.47 345.67 570.51 345.02 571.56 C 345.01 572.53 345.00 573.51 345.00 574.50 C 342.96 578.72 338.74 580.91 335.44 583.96 C 333.70 583.97 331.95 583.91 330.22 584.09 C 327.16 584.90 324.61 587.26 321.55 587.96 C 321.02 587.47 319.97 586.49 319.44 586.00 C 317.50 586.00 315.56 585.99 313.62 586.00 C 314.53 587.00 315.46 587.99 316.38 589.00 C 311.72 589.44 306.69 587.98 302.29 589.88 C 296.68 590.13 291.07 589.94 285.46 590.00 C 284.53 589.06 283.60 588.15 282.67 587.23 C 281.56 586.88 280.45 586.55 279.34 586.23 C 278.89 586.15 277.98 585.99 277.53 585.91 C 276.50 585.28 275.47 584.66 274.44 584.04 C 273.83 584.02 272.61 583.99 272.00 583.97 C 272.00 582.12 272.00 580.27 272.00 578.44 C 268.74 575.52 265.84 572.27 263.21 568.79 C 259.93 565.78 258.26 561.50 255.02 558.45 C 255.01 557.97 254.99 557.01 254.97 556.53 C 253.67 554.49 252.32 552.49 251.02 550.46 C 251.01 549.96 251.00 548.95 251.00 548.45 C 250.56 548.00 249.68 547.11 249.24 546.66 C 248.88 545.55 248.54 544.43 248.21 543.32 C 248.14 542.85 248.02 541.90 247.95 541.42 C 246.30 539.80 244.66 538.16 243.00 536.56 C 243.00 535.16 243.00 533.77 243.01 532.39 C 242.50 531.95 241.50 531.05 240.99 530.61 C 241.00 528.08 241.00 525.56 241.00 523.05 C 241.50 523.02 242.50 522.98 243.00 522.95 C 243.00 522.21 243.00 520.74 243.00 520.00 L 243.95 520.00 C 243.98 520.50 244.02 521.50 244.05 522.00 C 246.07 522.00 248.09 521.99 250.11 522.00 C 250.01 520.11 250.00 518.20 249.42 516.40 C 249.01 515.38 248.58 514.37 248.14 513.38 C 248.09 512.92 247.99 511.99 247.94 511.52 C 244.84 508.84 243.82 504.63 240.66 501.99 C 241.38 501.99 242.80 502.00 243.51 502.00 C 244.91 502.93 246.29 503.89 247.61 504.95 C 248.55 504.97 249.50 505.00 250.45 505.04 C 251.49 505.68 252.52 506.33 253.56 506.98 C 255.04 506.99 256.51 506.99 257.99 507.01 C 257.99 506.26 258.01 504.75 258.01 504.00 C 259.21 503.99 260.41 504.00 261.61 504.01 C 262.05 503.50 262.95 502.50 263.39 501.99 C 265.90 502.00 268.40 502.00 270.91 502.00 C 270.98 501.42 271.12 500.26 271.20 499.68 C 272.42 497.51 271.95 495.00 271.94 492.64 C 271.61 491.99 270.93 490.70 270.60 490.05 C 273.75 489.97 276.90 490.00 280.05 489.99 C 280.00 488.56 279.95 487.13 279.86 485.71 C 279.34 484.40 278.96 483.06 278.70 481.69 M 316.20 568.20 L 316.20 568.79 L 316.79 568.79 L 316.79 568.20 L 316.20 568.20 M 331.20 568.21 L 331.21 568.80 L 331.79 568.79 L 331.79 568.21 L 331.20 568.21 M 335.21 572.20 L 335.21 572.79 L 335.79 572.78 L 335.79 572.20 L 335.21 572.20 Z" />
<path fill="#ffffff" opacity="1.00" d=" M 405.16 493.36 C 405.57 492.93 406.38 492.07 406.79 491.65 C 409.01 496.12 410.96 500.76 412.18 505.62 C 413.55 510.82 415.67 515.79 417.00 521.00 C 417.97 524.73 419.10 528.46 420.96 531.86 C 420.84 538.60 421.60 545.43 420.19 552.08 C 419.95 556.95 418.96 561.73 418.75 566.60 C 416.84 577.75 414.99 588.91 412.78 600.00 L 376.67 600.00 C 377.47 596.70 379.13 593.53 378.98 590.06 C 378.75 583.96 381.07 578.19 382.62 572.39 C 386.12 559.07 388.98 545.57 393.29 532.47 C 396.26 521.77 399.62 511.18 402.16 500.37 C 402.58 499.93 403.42 499.07 403.84 498.64 C 404.25 496.87 404.74 495.12 405.16 493.36 Z" />
<path fill="#000000" opacity="1.00" d=" M 354.19 540.20 L 354.80 540.20 L 354.80 540.81 L 354.19 540.81 L 354.19 540.20 Z" />
<path fill="#000000" opacity="1.00" d=" M 316.20 568.20 L 316.79 568.20 L 316.79 568.79 L 316.20 568.79 L 316.20 568.20 Z" />
<path fill="#000000" opacity="1.00" d=" M 331.20 568.21 L 331.79 568.21 L 331.79 568.79 L 331.21 568.80 L 331.20 568.21 Z" />
<path fill="#000000" opacity="1.00" d=" M 335.21 572.20 L 335.79 572.20 L 335.79 572.78 L 335.21 572.79 L 335.21 572.20 Z" />
<path fill="#903d00" opacity="1.00" d=" M 324.05 591.56 C 329.40 589.56 333.96 586.04 338.80 583.09 C 343.19 588.89 348.04 594.32 352.59 600.00 L 331.51 600.00 C 328.68 597.50 326.35 594.53 324.05 591.56 Z" />
</svg>
