<?xml version="1.0" encoding="UTF-8" ?>
<!DOCTYPE svg PUBLIC "-//W3C//DTD SVG 1.1//EN" "http://www.w3.org/Graphics/SVG/1.1/DTD/svg11.dtd">
<svg width="1415pt" height="1500pt" viewBox="0 0 1415 1500" version="1.1" xmlns="http://www.w3.org/2000/svg">
<path fill="#ffffff" opacity="1.00" d=" M 0.00 0.00 L 1415.00 0.00 L 1415.00 1500.00 L 0.00 1500.00 L 0.00 0.00 M 500.76 11.89 C 491.57 14.81 487.55 25.07 478.79 28.59 C 461.93 32.48 446.77 20.20 430.05 21.28 C 425.65 21.47 421.71 23.66 418.30 26.29 C 418.35 31.02 417.93 35.79 418.49 40.50 C 425.80 45.49 436.01 40.19 442.99 46.03 C 398.18 84.02 349.72 118.30 310.60 162.53 C 297.57 177.48 288.12 195.14 275.17 210.14 C 266.47 220.05 254.85 226.56 244.40 234.36 C 236.61 240.13 229.03 246.73 224.43 255.42 C 217.32 268.95 216.11 284.67 209.21 298.29 C 207.34 301.85 205.16 305.41 201.91 307.89 C 197.01 311.67 191.21 314.30 187.06 319.01 C 190.48 327.21 191.72 336.40 189.91 345.14 C 186.37 364.18 171.67 378.85 167.98 397.84 C 165.77 407.15 169.94 416.81 167.06 426.04 C 164.33 434.39 157.74 440.64 151.40 446.38 C 146.31 450.62 141.82 455.51 136.67 459.67 C 131.79 464.11 126.46 468.13 122.38 473.38 C 118.90 477.43 116.07 482.44 116.26 487.95 C 116.44 492.84 117.27 498.15 114.55 502.56 C 106.86 515.67 90.92 521.11 83.15 534.17 C 76.89 546.89 78.96 561.97 72.70 574.70 C 68.68 582.38 60.18 586.63 56.63 594.65 C 54.67 599.66 55.73 605.22 54.28 610.35 C 51.71 619.43 47.21 627.76 43.25 636.28 C 36.94 649.09 34.12 663.27 32.27 677.33 C 29.48 700.44 29.70 723.78 30.53 747.00 C 31.40 772.34 33.65 797.69 31.82 823.04 C 30.89 847.99 26.43 872.92 29.06 897.89 C 31.57 931.22 33.69 964.70 31.43 998.10 C 28.77 1034.47 24.52 1070.69 20.87 1106.97 C 20.58 1109.74 20.49 1112.58 19.60 1115.25 C 15.13 1098.74 19.41 1081.68 18.70 1064.92 C 18.32 1057.42 17.05 1049.14 11.25 1043.80 C 9.41 1047.54 7.40 1051.22 6.09 1055.21 C 1.59 1068.00 2.09 1081.99 4.69 1095.14 C 7.74 1111.23 13.34 1126.75 15.77 1142.97 C 17.68 1152.65 14.07 1162.78 17.70 1172.23 C 24.88 1193.33 44.73 1207.15 51.91 1228.30 C 53.45 1233.50 53.55 1238.99 54.59 1244.30 C 55.78 1250.65 58.85 1256.43 61.96 1262.02 C 67.41 1271.48 73.87 1280.34 78.94 1290.03 C 93.57 1318.03 106.76 1346.78 119.09 1375.86 C 123.23 1385.43 126.95 1395.34 133.22 1403.78 C 137.45 1409.46 143.05 1414.49 149.98 1416.50 C 152.94 1414.57 153.89 1410.38 154.47 1407.04 C 154.79 1399.26 148.98 1393.27 144.12 1387.92 C 139.36 1382.55 133.70 1376.64 133.72 1368.98 C 133.59 1364.54 136.45 1360.98 138.02 1357.10 C 121.78 1322.91 109.25 1287.15 96.48 1251.57 C 90.29 1233.75 83.22 1216.23 77.82 1198.14 C 74.77 1188.77 71.87 1179.07 66.02 1170.99 C 59.58 1162.42 48.75 1159.11 41.30 1151.68 C 38.02 1148.47 36.36 1144.07 35.18 1139.74 C 32.33 1129.06 31.99 1117.92 32.31 1106.93 C 33.05 1091.65 35.20 1076.34 39.73 1061.70 C 41.93 1054.55 47.72 1049.35 50.63 1042.58 C 53.04 1035.33 54.01 1027.68 54.62 1020.09 C 56.24 994.98 53.09 969.94 51.67 944.90 C 49.00 909.78 42.64 874.37 48.09 839.20 C 52.10 812.57 62.19 787.47 69.68 761.74 C 74.94 743.70 78.27 724.99 78.02 706.16 C 81.69 702.52 84.28 697.93 86.07 693.12 C 92.41 675.99 90.77 656.89 98.14 640.07 C 103.73 630.28 114.96 625.47 120.94 616.00 C 125.09 609.28 119.50 601.60 121.37 594.48 C 123.84 584.79 130.40 576.75 133.05 567.11 C 135.81 557.32 134.26 546.98 136.21 537.07 C 137.97 529.05 143.58 522.74 148.17 516.19 C 152.64 510.18 155.52 503.21 158.37 496.34 C 168.30 471.92 173.16 445.44 186.36 422.38 C 187.40 420.81 188.11 418.74 190.00 418.02 C 193.82 416.40 198.15 416.54 201.94 414.83 C 203.24 414.45 203.54 413.03 203.97 411.95 C 206.34 404.55 209.76 397.50 213.94 390.97 C 226.35 371.45 245.03 356.79 256.80 336.81 C 263.10 326.50 266.98 314.82 268.64 302.88 C 262.92 300.28 256.24 299.58 250.14 301.17 C 248.51 301.39 247.92 303.02 247.17 304.25 C 239.32 319.09 235.25 335.78 225.94 349.87 C 221.55 356.48 215.25 362.72 207.14 364.09 C 208.37 349.32 211.81 334.65 218.19 321.23 C 228.33 299.59 246.84 282.72 268.07 272.19 C 269.51 271.34 271.33 270.88 272.38 269.50 C 272.75 264.51 270.06 259.95 269.77 255.04 C 269.61 252.79 271.62 251.47 273.09 250.15 C 274.64 252.15 275.93 254.45 276.25 257.00 C 277.60 265.52 274.03 273.88 274.72 282.39 C 279.82 276.28 283.10 268.87 285.33 261.29 C 289.51 246.90 291.10 231.93 294.32 217.32 C 310.59 208.36 325.18 195.72 334.64 179.60 C 336.10 176.72 333.83 173.98 331.56 172.43 C 329.50 171.03 327.42 167.90 329.75 165.77 C 335.17 159.30 337.12 150.78 342.03 143.99 C 345.31 141.79 349.21 140.61 352.63 138.58 C 381.92 123.04 403.36 96.59 431.73 79.70 C 444.94 71.73 459.62 66.20 474.85 63.66 C 475.02 69.73 477.55 75.84 482.43 79.61 C 491.35 86.70 503.31 87.94 512.63 94.35 C 517.73 97.85 521.46 103.70 521.47 109.99 C 520.70 112.30 517.97 113.24 515.85 113.93 C 506.53 115.74 496.90 112.50 487.62 114.68 C 483.80 115.51 481.47 119.02 480.93 122.70 C 505.32 127.15 530.31 128.32 554.99 126.07 C 569.66 124.61 582.35 115.50 597.11 114.58 C 607.10 113.60 617.12 114.88 627.09 115.57 C 639.69 116.82 652.36 116.38 665.00 116.46 C 685.73 115.94 706.84 115.78 726.92 109.97 C 737.01 107.31 744.37 98.88 754.52 96.36 C 778.71 89.78 804.05 88.90 828.97 89.74 C 856.32 90.81 883.56 94.13 910.42 99.31 C 930.20 103.10 950.02 106.72 969.58 111.52 C 983.59 115.09 997.55 119.20 1010.69 125.30 C 1022.76 130.99 1034.58 138.61 1041.92 150.05 C 1065.46 182.36 1093.16 211.61 1123.92 237.14 C 1131.86 244.11 1140.57 251.39 1144.09 261.72 C 1146.65 268.83 1143.67 276.50 1138.92 281.94 C 1136.95 283.60 1139.07 285.47 1140.02 287.01 C 1145.25 294.55 1150.45 302.89 1158.95 307.10 C 1165.10 310.22 1172.25 308.81 1178.64 307.34 C 1203.36 333.41 1224.01 363.11 1249.85 388.15 C 1256.91 395.15 1264.30 401.93 1272.71 407.29 C 1279.72 411.87 1287.04 416.06 1293.34 421.64 C 1301.04 428.82 1306.12 438.38 1309.73 448.16 C 1317.42 469.95 1318.55 493.27 1320.30 516.11 C 1321.86 536.08 1322.67 556.33 1327.30 575.88 C 1330.75 577.17 1334.52 578.06 1337.25 580.73 C 1341.86 585.01 1342.95 591.57 1343.68 597.53 C 1344.78 607.39 1345.22 617.83 1350.47 626.57 C 1354.16 633.39 1359.75 639.12 1362.48 646.46 C 1366.36 659.26 1366.30 672.80 1365.89 686.04 C 1364.56 712.08 1360.01 737.92 1360.24 764.04 C 1360.50 779.49 1362.37 794.85 1364.63 810.11 C 1367.66 830.95 1371.60 851.83 1371.23 872.97 C 1370.89 883.22 1369.53 893.53 1366.17 903.26 C 1363.35 911.09 1356.37 916.33 1352.62 923.61 C 1349.63 930.64 1350.05 938.51 1350.01 946.00 C 1350.36 956.61 1347.85 967.00 1345.42 977.24 C 1334.90 1020.77 1313.87 1060.80 1301.94 1103.89 C 1296.79 1122.01 1293.67 1140.68 1292.52 1159.47 C 1289.25 1163.84 1284.32 1166.65 1281.00 1171.00 C 1277.08 1176.09 1275.89 1182.71 1276.22 1189.01 C 1276.17 1197.64 1278.22 1207.37 1272.90 1214.94 C 1267.48 1222.41 1260.21 1228.26 1253.33 1234.32 C 1245.33 1240.93 1237.97 1248.29 1231.05 1256.01 C 1220.27 1268.19 1212.51 1283.25 1210.30 1299.46 C 1183.71 1317.06 1156.86 1334.62 1127.64 1347.60 C 1108.26 1356.26 1087.91 1362.79 1067.05 1366.76 C 1065.89 1366.86 1064.96 1367.37 1064.27 1368.30 C 1059.86 1373.24 1054.10 1376.72 1049.56 1381.54 C 1044.91 1386.23 1042.84 1392.85 1042.90 1399.36 C 1055.31 1397.81 1067.37 1393.99 1078.67 1388.67 C 1095.77 1380.73 1111.23 1369.82 1127.73 1360.79 C 1143.79 1351.78 1161.33 1345.08 1179.68 1342.80 C 1182.06 1338.35 1185.36 1334.40 1189.44 1331.42 C 1197.97 1325.13 1208.44 1322.22 1216.97 1315.93 C 1224.11 1311.00 1229.02 1303.57 1232.91 1295.96 C 1239.65 1282.99 1243.60 1268.43 1252.89 1256.90 C 1258.18 1250.50 1265.86 1245.13 1274.38 1244.95 C 1275.51 1262.11 1275.19 1279.42 1272.34 1296.42 C 1268.62 1320.04 1260.45 1342.74 1250.24 1364.29 C 1242.81 1380.34 1234.06 1395.73 1226.29 1411.61 C 1236.24 1410.57 1246.19 1406.55 1252.96 1398.98 C 1259.56 1391.99 1263.15 1382.80 1265.84 1373.73 C 1271.42 1353.92 1273.48 1333.17 1280.86 1313.86 C 1287.68 1295.24 1296.77 1277.33 1300.87 1257.81 C 1303.44 1245.68 1303.28 1233.05 1300.59 1220.96 C 1299.99 1219.16 1301.85 1217.96 1302.83 1216.77 C 1308.46 1210.89 1317.08 1208.86 1322.29 1202.54 C 1323.93 1190.79 1327.01 1179.18 1332.45 1168.59 C 1342.00 1148.99 1357.51 1133.24 1368.64 1114.63 C 1377.80 1099.71 1383.23 1082.50 1383.97 1065.00 C 1383.91 1057.38 1381.36 1049.83 1382.57 1042.22 C 1384.43 1034.77 1392.65 1031.33 1395.10 1024.15 C 1398.25 1015.08 1399.20 1005.44 1400.20 995.94 C 1402.26 971.62 1404.82 947.34 1406.18 922.96 C 1407.85 895.00 1408.81 867.00 1409.24 839.00 C 1410.01 812.34 1409.50 785.67 1410.01 759.01 C 1409.64 749.34 1409.76 739.67 1409.75 730.00 C 1409.89 705.00 1409.46 679.98 1410.01 654.99 C 1410.68 629.34 1412.39 603.69 1411.32 578.04 C 1410.33 558.77 1408.47 538.61 1398.66 521.55 C 1397.91 525.17 1397.72 528.87 1397.38 532.54 C 1394.99 559.97 1393.64 587.48 1393.00 615.00 C 1392.18 642.32 1392.61 669.66 1392.51 697.00 C 1393.19 778.54 1396.42 860.10 1393.50 941.64 C 1389.29 944.90 1386.10 949.34 1384.46 954.41 C 1380.33 966.48 1380.74 979.49 1381.30 992.07 C 1381.36 996.33 1382.43 1000.63 1382.03 1004.88 C 1369.85 1024.33 1366.66 1047.50 1362.32 1069.60 C 1358.71 1087.96 1355.25 1107.00 1345.17 1123.10 C 1339.73 1131.67 1331.70 1138.65 1322.17 1142.26 C 1319.59 1161.23 1311.65 1179.16 1301.47 1195.21 C 1300.80 1172.62 1306.83 1150.57 1314.50 1129.54 C 1322.47 1107.73 1329.25 1084.93 1328.48 1061.46 C 1338.23 1056.99 1345.52 1048.24 1349.25 1038.29 C 1355.08 1023.27 1356.06 1006.99 1357.49 991.10 C 1359.36 969.77 1360.45 947.57 1370.04 928.02 C 1373.16 921.18 1380.48 917.11 1382.76 909.83 C 1384.16 899.94 1382.40 889.95 1382.51 880.02 C 1383.86 851.37 1383.77 822.67 1383.00 794.00 C 1382.68 769.32 1380.31 744.68 1381.26 719.99 C 1381.59 708.32 1382.16 696.66 1382.50 685.00 C 1382.79 673.34 1383.01 661.56 1381.04 650.03 C 1379.10 639.22 1369.72 632.17 1365.51 622.43 C 1361.77 613.90 1366.81 604.82 1365.36 596.00 C 1363.37 583.85 1356.09 573.54 1349.74 563.30 C 1345.93 556.98 1341.67 550.49 1340.78 543.00 C 1340.19 536.42 1345.11 530.65 1350.92 528.25 C 1353.94 535.85 1351.77 544.22 1353.93 551.97 C 1354.84 555.23 1358.29 558.59 1361.85 557.37 C 1366.66 552.70 1370.58 546.71 1371.64 539.98 C 1372.68 534.20 1371.28 528.31 1369.24 522.91 C 1364.61 511.22 1356.97 500.82 1353.74 488.58 C 1352.22 483.18 1352.87 477.09 1349.78 472.21 C 1344.21 464.57 1333.85 462.36 1328.34 454.66 C 1325.05 449.05 1324.00 442.42 1323.85 436.00 C 1323.85 422.80 1327.80 410.07 1329.50 397.07 C 1331.02 386.08 1330.74 374.48 1326.08 364.23 C 1323.07 365.63 1320.03 367.48 1318.65 370.66 C 1315.32 377.67 1316.66 385.69 1317.33 393.12 C 1318.14 401.87 1319.72 411.17 1316.10 419.52 C 1304.06 409.78 1293.35 398.49 1283.21 386.80 C 1258.63 358.32 1238.45 326.49 1216.79 295.83 C 1222.57 293.56 1228.85 293.01 1235.02 293.17 C 1248.81 293.67 1262.18 297.37 1275.74 299.54 C 1283.97 300.78 1292.52 301.71 1300.72 299.83 C 1308.36 298.07 1314.57 292.23 1317.40 285.01 C 1314.51 281.75 1309.67 280.71 1305.58 279.48 C 1279.56 273.79 1252.49 282.89 1226.63 275.94 C 1227.04 271.11 1232.49 267.96 1231.77 262.64 C 1221.18 260.54 1210.27 261.34 1199.66 262.78 C 1190.47 263.90 1181.47 266.40 1172.22 266.99 C 1170.10 260.32 1166.72 254.07 1162.44 248.55 C 1149.95 232.26 1131.36 222.37 1117.37 207.60 C 1108.51 198.43 1101.94 186.78 1099.95 174.11 C 1093.17 172.12 1086.55 169.37 1080.82 165.19 C 1068.46 156.52 1060.00 143.75 1051.27 131.72 C 1043.95 121.58 1036.06 111.20 1024.82 105.16 C 1009.33 96.85 992.11 92.67 975.44 87.42 C 968.28 85.41 961.78 81.58 954.57 79.74 C 949.82 78.54 944.93 79.51 940.18 80.16 C 928.42 82.12 916.77 77.72 906.43 72.52 C 889.32 63.63 873.76 51.32 854.93 46.09 C 833.36 39.84 810.62 42.47 788.61 39.31 C 779.73 37.97 770.79 35.00 764.01 28.90 C 753.64 33.04 742.38 30.27 732.27 26.81 C 722.80 23.70 712.75 21.21 702.73 22.76 C 700.86 18.73 697.88 14.90 693.56 13.35 C 687.98 11.30 681.89 11.39 676.03 11.57 C 655.05 12.67 634.16 9.76 613.33 7.66 C 592.28 5.61 571.12 2.74 549.94 4.12 C 533.50 6.23 516.57 6.50 500.76 11.89 M 495.39 295.39 C 485.51 301.26 478.94 310.99 470.23 318.24 C 462.44 325.03 452.91 329.32 443.61 333.58 C 416.76 344.97 388.38 352.08 360.24 359.44 C 332.14 366.40 303.77 372.75 274.89 375.40 C 266.94 376.39 258.75 373.08 251.00 375.83 C 246.05 377.61 243.98 383.11 243.72 387.97 C 268.52 384.98 293.29 381.75 318.01 378.20 C 359.39 371.96 401.07 364.59 440.06 348.89 C 461.34 340.18 481.90 328.64 498.17 312.17 C 502.58 307.53 507.37 302.99 510.16 297.13 C 511.21 295.14 511.23 292.86 511.16 290.68 C 505.63 290.99 500.14 292.51 495.39 295.39 M 853.72 302.04 C 854.16 307.95 859.14 312.17 863.75 315.24 C 872.44 320.58 880.87 326.38 889.91 331.14 C 921.12 348.01 955.28 358.63 989.75 366.51 C 1017.07 372.68 1044.76 377.12 1072.54 380.64 C 1080.49 381.81 1088.56 382.26 1096.46 383.81 C 1091.82 378.39 1084.92 375.46 1078.74 372.15 C 1051.66 359.55 1021.59 356.39 992.60 350.64 C 961.34 344.34 930.00 337.06 900.63 324.38 C 892.38 320.38 883.37 316.85 877.33 309.63 C 873.68 305.70 870.42 300.55 864.80 299.38 C 861.02 298.75 856.70 299.55 853.72 302.04 M 488.82 433.89 C 484.23 435.25 479.69 436.99 475.70 439.66 C 469.16 444.15 469.05 454.05 461.76 457.72 C 455.08 459.89 447.91 458.30 441.13 457.36 C 432.08 455.59 422.87 457.39 413.88 458.67 C 393.17 462.25 372.90 467.93 352.45 472.72 C 335.47 477.11 317.89 481.90 303.72 492.70 C 293.70 500.53 286.77 511.69 282.39 523.49 C 275.44 542.18 273.41 562.23 272.50 582.01 C 271.80 603.79 272.40 625.58 273.23 647.35 C 306.80 643.40 340.55 647.23 374.05 650.02 C 390.86 651.54 407.70 652.81 424.54 654.04 C 452.59 655.74 481.19 657.01 508.78 650.54 C 526.54 646.56 542.68 637.19 556.49 625.52 C 565.96 617.11 575.30 607.26 578.40 594.61 C 579.50 586.78 577.96 578.87 578.23 571.01 C 578.71 559.85 581.02 548.88 583.15 537.95 C 587.48 517.59 590.52 496.85 590.26 475.99 C 590.24 466.80 589.82 457.28 586.32 448.66 C 583.70 442.21 577.42 438.35 571.28 435.76 C 560.44 431.31 548.67 429.79 537.06 429.18 C 530.72 428.50 524.32 428.71 517.98 429.32 C 508.13 429.70 498.33 431.28 488.82 433.89 M 940.78 430.88 C 937.39 432.91 936.78 437.32 935.04 440.58 C 905.76 438.33 875.95 438.45 847.21 445.12 C 828.04 449.45 809.59 456.76 792.56 466.55 C 776.80 475.60 761.36 485.56 748.29 498.29 C 743.81 502.97 739.43 508.00 737.04 514.12 C 734.59 520.45 733.45 527.19 732.59 533.90 C 730.24 555.22 727.67 576.80 730.70 598.20 C 754.76 607.36 777.31 619.97 800.99 630.01 C 824.83 640.38 850.20 647.79 876.21 649.58 C 887.06 650.24 897.93 648.63 908.76 649.69 C 914.85 650.65 920.47 653.37 926.11 655.75 C 937.99 661.12 951.19 662.27 964.01 663.41 C 974.32 664.17 984.57 662.97 994.83 662.35 C 994.26 662.11 993.71 661.87 993.18 661.64 C 995.80 661.78 998.44 661.51 1001.00 660.88 C 1019.26 657.17 1037.08 649.58 1051.05 637.06 C 1052.32 636.27 1051.46 634.76 1051.31 633.66 C 1048.22 621.64 1048.92 609.01 1051.08 596.90 C 1053.82 580.86 1059.06 565.28 1060.58 549.04 C 1061.87 536.90 1060.40 524.22 1054.82 513.25 C 1046.12 495.27 1031.15 481.61 1018.37 466.62 C 1007.53 454.35 995.76 442.06 980.39 435.59 C 968.01 430.11 954.07 429.29 940.78 430.88 M 586.56 765.44 C 578.81 776.56 580.50 791.49 572.49 802.47 C 564.70 813.92 550.34 819.49 544.21 832.26 C 541.47 837.39 541.99 843.32 542.21 848.90 C 534.76 859.48 525.89 869.03 519.04 880.04 C 510.91 892.72 506.11 907.51 505.64 922.59 C 511.89 922.86 518.64 920.57 522.07 915.04 C 526.62 907.57 526.64 898.47 526.83 890.00 C 527.63 887.69 529.76 886.12 531.16 884.15 C 560.64 848.23 581.59 806.42 601.95 764.92 C 597.10 762.94 591.08 762.51 586.56 765.44 M 750.39 814.96 C 751.44 829.79 757.51 843.65 764.41 856.62 C 770.90 868.88 777.40 881.53 779.34 895.45 C 780.28 900.68 779.80 906.00 780.20 911.28 C 787.97 891.15 785.41 868.42 777.20 848.85 C 771.62 834.81 763.45 822.06 755.64 809.21 C 754.08 811.30 751.85 812.82 750.39 814.96 M 685.97 915.99 C 682.71 919.04 680.08 923.80 681.77 928.32 C 683.45 932.65 687.56 935.59 691.76 937.24 C 693.51 931.66 694.38 925.82 693.99 919.98 C 696.26 918.17 698.95 916.38 702.01 916.73 C 706.58 917.32 710.71 919.48 714.91 921.27 C 719.27 923.28 724.53 924.27 728.71 921.23 C 727.80 917.61 726.62 913.81 723.72 911.27 C 720.17 907.64 714.85 906.75 710.00 906.59 C 701.29 907.05 692.47 910.02 685.97 915.99 M 616.65 908.91 C 608.11 910.10 599.01 913.43 594.21 921.05 C 596.01 923.93 599.75 924.87 602.98 924.77 C 608.95 924.97 614.36 922.12 619.65 919.75 C 622.54 918.38 625.67 919.95 628.49 920.78 C 639.90 924.57 649.62 932.11 660.92 936.11 C 661.45 928.69 657.90 921.42 651.99 916.99 C 642.02 909.46 628.81 907.54 616.65 908.91 M 374.03 977.64 C 340.23 1029.87 300.17 1078.19 271.92 1133.89 C 269.94 1137.01 272.22 1140.58 272.01 1143.97 C 272.38 1154.21 265.59 1162.46 261.11 1171.07 C 257.89 1176.95 257.04 1183.82 258.27 1190.38 C 262.52 1188.58 265.81 1185.21 268.88 1181.88 C 275.50 1174.19 279.01 1164.45 281.80 1154.84 C 285.72 1141.09 288.29 1126.77 295.10 1114.05 C 306.08 1092.47 323.78 1075.56 339.23 1057.28 C 340.76 1053.57 340.65 1049.24 342.55 1045.60 C 348.24 1032.35 362.24 1025.61 369.43 1013.43 C 371.97 1009.13 371.52 1003.62 374.60 999.60 C 379.86 994.25 387.98 992.65 392.70 986.65 C 395.68 983.02 395.26 976.80 391.96 973.68 C 385.58 973.22 380.52 978.81 374.03 977.64 M 473.38 1091.55 C 450.59 1096.56 429.41 1107.14 410.19 1120.18 C 395.86 1130.02 381.74 1140.24 368.57 1151.62 C 362.81 1156.34 356.92 1161.11 350.06 1164.14 C 343.33 1167.12 335.55 1165.70 328.87 1168.86 C 313.06 1175.21 301.24 1187.94 287.45 1197.46 C 284.52 1199.21 284.07 1202.86 282.68 1205.70 C 273.53 1227.88 265.32 1251.85 268.80 1276.19 C 269.81 1284.99 273.51 1293.21 278.53 1300.44 C 284.25 1308.87 290.87 1316.71 298.13 1323.87 C 309.38 1335.35 325.30 1340.27 337.56 1350.44 C 347.19 1358.06 355.51 1367.28 365.71 1374.19 C 373.15 1379.30 382.25 1381.02 391.03 1382.16 C 403.63 1383.80 416.34 1383.20 429.00 1383.31 C 453.50 1383.45 477.70 1379.09 502.09 1377.43 C 531.05 1375.54 560.04 1378.17 589.02 1377.81 C 607.62 1377.82 626.41 1374.93 643.61 1367.63 C 663.36 1359.53 680.33 1346.18 696.31 1332.29 C 709.17 1321.07 721.88 1309.61 735.95 1299.90 C 753.57 1287.16 771.40 1274.10 785.01 1256.92 C 783.75 1250.56 783.69 1243.29 787.94 1237.98 C 794.04 1230.21 804.74 1228.52 811.39 1221.39 C 812.18 1220.28 814.02 1218.88 812.49 1217.58 C 790.04 1192.26 762.91 1171.80 738.35 1148.66 C 724.92 1136.33 711.54 1123.69 695.95 1114.07 C 684.90 1107.21 672.21 1103.27 659.31 1101.87 C 623.81 1098.33 588.48 1109.16 553.01 1104.48 C 543.36 1103.01 533.38 1101.34 524.92 1096.19 C 518.48 1092.45 511.65 1088.76 504.07 1088.29 C 493.75 1087.72 483.45 1089.41 473.38 1091.55 M 846.21 1162.94 C 849.33 1173.53 855.63 1182.75 860.42 1192.60 C 867.05 1205.68 871.07 1219.95 873.32 1234.41 C 876.42 1254.89 876.12 1276.03 870.97 1296.16 C 882.41 1283.49 885.65 1265.57 885.26 1249.00 C 885.06 1224.77 877.52 1201.42 869.06 1178.98 C 866.42 1172.83 863.46 1166.05 857.39 1162.59 C 853.89 1160.47 849.75 1161.61 846.21 1162.94 M 218.89 1324.11 C 246.45 1345.40 266.62 1374.22 286.74 1402.23 C 290.96 1407.73 294.60 1413.77 299.27 1418.88 C 306.17 1420.01 313.23 1421.75 318.86 1426.15 C 324.24 1430.01 327.41 1436.00 329.87 1441.99 C 339.47 1444.19 348.52 1448.26 357.95 1451.10 C 362.88 1452.44 368.19 1453.87 373.27 1452.44 C 377.35 1451.16 379.26 1446.10 377.88 1442.25 C 376.97 1440.13 374.77 1439.02 372.73 1438.27 C 363.53 1435.14 353.44 1436.84 344.25 1433.80 C 342.31 1431.31 341.92 1427.73 339.65 1425.34 C 332.74 1416.91 321.48 1414.57 311.59 1411.40 C 304.17 1396.88 292.34 1385.42 281.46 1373.53 C 270.50 1361.79 260.45 1348.50 256.09 1332.80 C 255.44 1331.23 255.50 1329.02 253.68 1328.32 C 245.91 1324.13 238.18 1318.45 229.01 1318.33 C 224.77 1318.17 221.34 1320.92 218.89 1324.11 M 226.14 1421.36 C 227.77 1429.02 233.33 1434.94 235.35 1442.42 C 243.01 1443.92 249.54 1448.58 255.09 1453.86 C 264.62 1463.02 272.24 1474.19 282.97 1482.08 C 290.17 1487.56 299.18 1489.57 307.93 1490.98 C 330.46 1494.23 353.29 1493.30 375.97 1493.53 C 400.64 1494.25 425.31 1495.43 450.00 1495.25 C 477.68 1495.35 505.36 1495.14 533.03 1494.55 C 559.69 1494.40 586.36 1493.50 613.02 1494.30 C 640.36 1495.30 667.64 1497.82 695.01 1497.75 C 704.60 1497.33 714.32 1497.51 723.75 1495.49 C 733.46 1493.05 739.17 1483.57 748.49 1480.32 C 769.08 1472.80 790.84 1469.43 812.04 1464.17 C 827.56 1460.25 843.39 1455.85 856.82 1446.82 C 865.03 1441.22 871.94 1433.30 874.88 1423.68 C 860.10 1431.07 844.00 1435.21 828.92 1441.86 C 817.10 1447.35 806.73 1455.61 794.54 1460.35 C 774.38 1468.49 752.87 1472.60 731.42 1475.66 C 679.59 1482.61 627.18 1482.30 575.00 1482.76 C 562.99 1482.94 551.00 1482.35 539.00 1482.51 C 484.98 1482.05 430.99 1480.07 376.96 1480.25 C 356.34 1480.43 335.54 1484.75 315.02 1480.95 C 305.80 1479.14 297.27 1474.77 289.73 1469.25 C 273.69 1457.49 261.89 1440.95 245.93 1429.10 C 240.03 1425.25 233.56 1420.57 226.14 1421.36 Z" />
<path fill="#000000" opacity="1.00" d=" M 500.76 11.89 C 516.57 6.50 533.50 6.23 549.94 4.12 C 571.12 2.74 592.28 5.61 613.33 7.66 C 634.16 9.76 655.05 12.67 676.03 11.57 C 681.89 11.39 687.98 11.30 693.56 13.35 C 697.88 14.90 700.86 18.73 702.73 22.76 C 712.75 21.21 722.80 23.70 732.27 26.81 C 742.38 30.27 753.64 33.04 764.01 28.90 C 770.79 35.00 779.73 37.97 788.61 39.31 C 810.62 42.47 833.36 39.84 854.93 46.09 C 873.76 51.32 889.32 63.63 906.43 72.52 C 916.77 77.72 928.42 82.12 940.18 80.16 C 944.93 79.51 949.82 78.54 954.57 79.74 C 961.78 81.58 968.28 85.41 975.44 87.42 C 992.11 92.67 1009.33 96.85 1024.82 105.16 C 1036.06 111.20 1043.95 121.58 1051.27 131.72 C 1060.00 143.75 1068.46 156.52 1080.82 165.19 C 1086.55 169.37 1093.17 172.12 1099.95 174.11 C 1101.94 186.78 1108.51 198.43 1117.37 207.60 C 1131.36 222.37 1149.95 232.26 1162.44 248.55 C 1166.72 254.07 1170.10 260.32 1172.22 266.99 C 1181.47 266.40 1190.47 263.90 1199.66 262.78 C 1210.27 261.34 1221.18 260.54 1231.77 262.64 C 1232.49 267.96 1227.04 271.11 1226.63 275.94 C 1252.49 282.89 1279.56 273.79 1305.58 279.48 C 1309.67 280.71 1314.51 281.75 1317.40 285.01 C 1314.57 292.23 1308.36 298.07 1300.72 299.83 C 1292.52 301.71 1283.97 300.78 1275.74 299.54 C 1262.18 297.37 1248.81 293.67 1235.02 293.17 C 1228.85 293.01 1222.57 293.56 1216.79 295.83 C 1238.45 326.49 1258.63 358.32 1283.21 386.80 C 1293.35 398.49 1304.06 409.78 1316.10 419.52 C 1319.72 411.17 1318.14 401.87 1317.33 393.12 C 1316.66 385.69 1315.32 377.67 1318.65 370.66 C 1320.03 367.48 1323.07 365.63 1326.08 364.23 C 1330.74 374.48 1331.02 386.08 1329.50 397.07 C 1327.80 410.07 1323.85 422.80 1323.85 436.00 C 1324.00 442.42 1325.05 449.05 1328.34 454.66 C 1333.85 462.36 1344.21 464.57 1349.78 472.21 C 1352.87 477.09 1352.22 483.18 1353.74 488.58 C 1356.97 500.82 1364.61 511.22 1369.24 522.91 C 1371.28 528.31 1372.68 534.20 1371.64 539.98 C 1370.58 546.71 1366.66 552.70 1361.85 557.37 C 1358.29 558.59 1354.84 555.23 1353.93 551.97 C 1351.77 544.22 1353.94 535.85 1350.92 528.25 C 1345.11 530.65 1340.19 536.42 1340.78 543.00 C 1341.67 550.49 1345.93 556.98 1349.74 563.30 C 1356.09 573.54 1363.37 583.85 1365.36 596.00 C 1366.81 604.82 1361.77 613.90 1365.51 622.43 C 1369.72 632.17 1379.10 639.22 1381.04 650.03 C 1383.01 661.56 1382.79 673.34 1382.50 685.00 C 1382.16 696.66 1381.59 708.32 1381.26 719.99 C 1380.31 744.68 1382.68 769.32 1383.00 794.00 C 1383.77 822.67 1383.86 851.37 1382.51 880.02 C 1382.40 889.95 1384.16 899.94 1382.76 909.83 C 1380.48 917.11 1373.16 921.18 1370.04 928.02 C 1360.45 947.57 1359.36 969.77 1357.49 991.10 C 1356.06 1006.99 1355.08 1023.27 1349.25 1038.29 C 1345.52 1048.24 1338.23 1056.99 1328.48 1061.46 C 1329.25 1084.93 1322.47 1107.73 1314.50 1129.54 C 1306.83 1150.57 1300.80 1172.62 1301.47 1195.21 C 1311.65 1179.16 1319.59 1161.23 1322.17 1142.26 C 1331.70 1138.65 1339.73 1131.67 1345.17 1123.10 C 1355.25 1107.00 1358.71 1087.96 1362.32 1069.60 C 1366.66 1047.50 1369.85 1024.33 1382.03 1004.88 C 1382.43 1000.63 1381.36 996.33 1381.30 992.07 C 1380.74 979.49 1380.33 966.48 1384.46 954.41 C 1386.10 949.34 1389.29 944.90 1393.50 941.64 C 1396.42 860.10 1393.19 778.54 1392.51 697.00 C 1392.61 669.66 1392.18 642.32 1393.00 615.00 C 1393.64 587.48 1394.99 559.97 1397.38 532.54 C 1397.72 528.87 1397.91 525.17 1398.66 521.55 C 1408.47 538.61 1410.33 558.77 1411.32 578.04 C 1412.39 603.69 1410.68 629.34 1410.01 654.99 C 1409.46 679.98 1409.89 705.00 1409.75 730.00 C 1409.76 739.67 1409.64 749.34 1410.01 759.01 C 1409.50 785.67 1410.01 812.34 1409.24 839.00 C 1408.81 867.00 1407.85 895.00 1406.18 922.96 C 1404.82 947.34 1402.26 971.62 1400.20 995.94 C 1399.20 1005.44 1398.25 1015.08 1395.10 1024.15 C 1392.65 1031.33 1384.43 1034.77 1382.57 1042.22 C 1381.36 1049.83 1383.91 1057.38 1383.97 1065.00 C 1383.23 1082.50 1377.80 1099.71 1368.64 1114.63 C 1357.51 1133.24 1342.00 1148.99 1332.45 1168.59 C 1327.01 1179.18 1323.93 1190.79 1322.29 1202.54 C 1317.08 1208.86 1308.46 1210.89 1302.83 1216.77 C 1301.85 1217.96 1299.99 1219.16 1300.59 1220.96 C 1303.28 1233.05 1303.44 1245.68 1300.87 1257.81 C 1296.77 1277.33 1287.68 1295.24 1280.86 1313.86 C 1273.48 1333.17 1271.42 1353.92 1265.84 1373.73 C 1263.15 1382.80 1259.56 1391.99 1252.96 1398.98 C 1246.19 1406.55 1236.24 1410.57 1226.29 1411.61 C 1234.06 1395.73 1242.81 1380.34 1250.24 1364.29 C 1260.45 1342.74 1268.62 1320.04 1272.34 1296.42 C 1275.19 1279.42 1275.51 1262.11 1274.38 1244.95 C 1265.86 1245.13 1258.18 1250.50 1252.89 1256.90 C 1243.60 1268.43 1239.65 1282.99 1232.91 1295.96 C 1229.02 1303.57 1224.11 1311.00 1216.97 1315.93 C 1208.44 1322.22 1197.97 1325.13 1189.44 1331.42 C 1185.36 1334.40 1182.06 1338.35 1179.68 1342.80 C 1161.33 1345.08 1143.79 1351.78 1127.73 1360.79 C 1111.23 1369.82 1095.77 1380.73 1078.67 1388.67 C 1067.37 1393.99 1055.31 1397.81 1042.90 1399.36 C 1042.84 1392.85 1044.91 1386.23 1049.56 1381.54 C 1054.10 1376.72 1059.86 1373.24 1064.27 1368.30 C 1064.96 1367.37 1065.89 1366.86 1067.05 1366.76 C 1087.91 1362.79 1108.26 1356.26 1127.64 1347.60 C 1156.86 1334.62 1183.71 1317.06 1210.30 1299.46 C 1212.51 1283.25 1220.27 1268.19 1231.05 1256.01 C 1237.97 1248.29 1245.33 1240.93 1253.33 1234.32 C 1260.21 1228.26 1267.48 1222.41 1272.90 1214.94 C 1278.22 1207.37 1276.17 1197.64 1276.22 1189.01 C 1275.89 1182.71 1277.08 1176.09 1281.00 1171.00 C 1284.32 1166.65 1289.25 1163.84 1292.52 1159.47 C 1293.67 1140.68 1296.79 1122.01 1301.94 1103.89 C 1313.87 1060.80 1334.90 1020.77 1345.42 977.24 C 1347.85 967.00 1350.36 956.61 1350.01 946.00 C 1350.05 938.51 1349.63 930.64 1352.62 923.61 C 1356.37 916.33 1363.35 911.09 1366.17 903.26 C 1369.53 893.53 1370.89 883.22 1371.23 872.97 C 1371.60 851.83 1367.66 830.95 1364.63 810.11 C 1362.37 794.85 1360.50 779.49 1360.24 764.04 C 1360.01 737.92 1364.56 712.08 1365.89 686.04 C 1366.30 672.80 1366.36 659.26 1362.48 646.46 C 1359.75 639.12 1354.16 633.39 1350.47 626.57 C 1345.22 617.83 1344.78 607.39 1343.68 597.53 C 1342.95 591.57 1341.86 585.01 1337.25 580.73 C 1334.52 578.06 1330.75 577.17 1327.30 575.88 C 1322.67 556.33 1321.86 536.08 1320.30 516.11 C 1318.55 493.27 1317.42 469.95 1309.73 448.16 C 1306.12 438.38 1301.04 428.82 1293.34 421.64 C 1287.04 416.06 1279.72 411.87 1272.71 407.29 C 1264.30 401.93 1256.91 395.15 1249.85 388.15 C 1224.01 363.11 1203.36 333.41 1178.64 307.34 C 1172.25 308.81 1165.10 310.22 1158.95 307.10 C 1150.45 302.89 1145.25 294.55 1140.02 287.01 C 1139.07 285.47 1136.95 283.60 1138.92 281.94 C 1143.67 276.50 1146.65 268.83 1144.09 261.72 C 1140.57 251.39 1131.86 244.11 1123.92 237.14 C 1093.16 211.61 1065.46 182.36 1041.92 150.05 C 1034.58 138.61 1022.76 130.99 1010.69 125.30 C 997.55 119.20 983.59 115.09 969.58 111.52 C 950.02 106.72 930.20 103.10 910.42 99.31 C 883.56 94.13 856.32 90.81 828.97 89.74 C 804.05 88.90 778.71 89.78 754.52 96.36 C 744.37 98.88 737.01 107.31 726.92 109.97 C 706.84 115.78 685.73 115.94 665.00 116.46 C 652.36 116.38 639.69 116.82 627.09 115.57 C 617.12 114.88 607.10 113.60 597.11 114.58 C 582.35 115.50 569.66 124.61 554.99 126.07 C 530.31 128.32 505.32 127.15 480.93 122.70 C 481.47 119.02 483.80 115.51 487.62 114.68 C 496.90 112.50 506.53 115.74 515.85 113.93 C 517.97 113.24 520.70 112.30 521.47 109.99 C 521.46 103.70 517.73 97.85 512.63 94.35 C 503.31 87.94 491.35 86.70 482.43 79.61 C 477.55 75.84 475.02 69.73 474.85 63.66 C 459.62 66.20 444.94 71.73 431.73 79.70 C 403.36 96.59 381.92 123.04 352.63 138.58 C 349.21 140.61 345.31 141.79 342.03 143.99 C 337.12 150.78 335.17 159.30 329.75 165.77 C 327.42 167.90 329.50 171.03 331.56 172.43 C 333.83 173.98 336.10 176.72 334.64 179.60 C 325.18 195.72 310.59 208.36 294.32 217.32 C 291.10 231.93 289.51 246.90 285.33 261.29 C 283.10 268.87 279.82 276.28 274.72 282.39 C 274.03 273.88 277.60 265.52 276.25 257.00 C 275.93 254.45 274.64 252.15 273.09 250.15 C 271.62 251.47 269.61 252.79 269.77 255.04 C 270.06 259.95 272.75 264.51 272.38 269.50 C 271.33 270.88 269.51 271.34 268.07 272.19 C 246.84 282.72 228.33 299.59 218.19 321.23 C 211.81 334.65 208.37 349.32 207.14 364.09 C 215.25 362.72 221.55 356.48 225.94 349.87 C 235.25 335.78 239.32 319.09 247.17 304.25 C 247.92 303.02 248.51 301.39 250.14 301.17 C 256.24 299.58 262.92 300.28 268.64 302.88 C 266.98 314.82 263.10 326.50 256.80 336.81 C 245.03 356.79 226.35 371.45 213.94 390.97 C 209.76 397.50 206.34 404.55 203.97 411.95 C 203.54 413.03 203.24 414.45 201.94 414.83 C 198.15 416.54 193.82 416.40 190.00 418.02 C 188.11 418.74 187.40 420.81 186.36 422.38 C 173.16 445.44 168.30 471.92 158.37 496.34 C 155.52 503.21 152.64 510.18 148.17 516.19 C 143.58 522.74 137.97 529.05 136.21 537.07 C 134.26 546.98 135.81 557.32 133.05 567.11 C 130.40 576.75 123.84 584.79 121.37 594.48 C 119.50 601.60 125.09 609.28 120.94 616.00 C 114.96 625.47 103.73 630.28 98.14 640.07 C 90.77 656.89 92.41 675.99 86.07 693.12 C 84.28 697.93 81.69 702.52 78.02 706.16 C 78.27 724.99 74.94 743.70 69.68 761.74 C 62.19 787.47 52.10 812.57 48.09 839.20 C 42.64 874.37 49.00 909.78 51.67 944.90 C 53.09 969.94 56.24 994.98 54.62 1020.09 C 54.01 1027.68 53.04 1035.33 50.63 1042.58 C 47.72 1049.35 41.93 1054.55 39.73 1061.70 C 35.20 1076.34 33.05 1091.65 32.31 1106.93 C 31.99 1117.92 32.33 1129.06 35.18 1139.74 C 36.36 1144.07 38.02 1148.47 41.30 1151.68 C 48.75 1159.11 59.58 1162.42 66.02 1170.99 C 71.87 1179.07 74.77 1188.77 77.82 1198.14 C 83.22 1216.23 90.29 1233.75 96.48 1251.57 C 109.25 1287.15 121.78 1322.91 138.02 1357.10 C 136.45 1360.98 133.59 1364.54 133.72 1368.98 C 133.70 1376.64 139.36 1382.55 144.12 1387.92 C 148.98 1393.27 154.79 1399.26 154.47 1407.04 C 153.89 1410.38 152.94 1414.57 149.98 1416.50 C 143.05 1414.49 137.45 1409.46 133.22 1403.78 C 126.95 1395.34 123.23 1385.43 119.09 1375.86 C 106.76 1346.78 93.57 1318.03 78.94 1290.03 C 73.87 1280.34 67.41 1271.48 61.96 1262.02 C 58.85 1256.43 55.78 1250.65 54.59 1244.30 C 53.55 1238.99 53.45 1233.50 51.91 1228.30 C 44.73 1207.15 24.88 1193.33 17.70 1172.23 C 14.07 1162.78 17.68 1152.65 15.77 1142.97 C 13.34 1126.75 7.74 1111.23 4.69 1095.14 C 2.09 1081.99 1.59 1068.00 6.09 1055.21 C 7.40 1051.22 9.41 1047.54 11.25 1043.80 C 17.05 1049.14 18.32 1057.42 18.70 1064.92 C 19.41 1081.68 15.13 1098.74 19.60 1115.25 C 20.49 1112.58 20.58 1109.74 20.87 1106.97 C 24.52 1070.69 28.77 1034.47 31.43 998.10 C 33.69 964.70 31.57 931.22 29.06 897.89 C 26.43 872.92 30.89 847.99 31.82 823.04 C 33.65 797.69 31.40 772.34 30.53 747.00 C 29.70 723.78 29.48 700.44 32.27 677.33 C 34.12 663.27 36.94 649.09 43.25 636.28 C 47.21 627.76 51.71 619.43 54.28 610.35 C 55.73 605.22 54.67 599.66 56.63 594.65 C 60.18 586.63 68.68 582.38 72.70 574.70 C 78.96 561.97 76.89 546.89 83.15 534.17 C 90.92 521.11 106.86 515.67 114.55 502.56 C 117.27 498.15 116.44 492.84 116.26 487.95 C 116.07 482.44 118.90 477.43 122.38 473.38 C 126.46 468.13 131.79 464.11 136.67 459.67 C 141.82 455.51 146.31 450.62 151.40 446.38 C 157.74 440.64 164.33 434.39 167.06 426.04 C 169.94 416.81 165.77 407.15 167.98 397.84 C 171.67 378.85 186.37 364.18 189.91 345.14 C 191.72 336.40 190.48 327.21 187.06 319.01 C 191.21 314.30 197.01 311.67 201.91 307.89 C 205.16 305.41 207.34 301.85 209.21 298.29 C 216.11 284.67 217.32 268.95 224.43 255.42 C 229.03 246.73 236.61 240.13 244.40 234.36 C 254.85 226.56 266.47 220.05 275.17 210.14 C 288.12 195.14 297.57 177.48 310.60 162.53 C 349.72 118.30 398.18 84.02 442.99 46.03 C 436.01 40.19 425.80 45.49 418.49 40.50 C 417.93 35.79 418.35 31.02 418.30 26.29 C 421.71 23.66 425.65 21.47 430.05 21.28 C 446.77 20.20 461.93 32.48 478.79 28.59 C 487.55 25.07 491.57 14.81 500.76 11.89 M 504.04 32.61 C 512.61 35.63 519.93 41.34 525.94 48.05 C 538.04 60.91 546.53 77.52 561.83 87.12 C 571.84 93.51 584.46 93.91 595.65 90.75 C 594.84 69.32 597.20 47.78 594.48 26.43 C 585.53 24.02 576.26 22.84 567.00 22.98 C 545.64 22.84 524.74 27.92 504.04 32.61 M 617.49 26.45 C 621.05 47.72 631.40 66.87 639.31 86.69 C 640.47 89.24 640.91 92.20 642.60 94.48 C 655.35 99.71 669.61 100.23 683.09 98.01 C 705.36 94.40 725.99 84.57 748.04 80.04 C 768.84 75.70 790.13 78.80 811.06 80.35 C 829.84 81.90 849.42 82.64 867.37 75.92 C 856.97 70.51 845.75 66.83 834.67 63.05 C 812.05 55.76 788.81 50.56 765.44 46.32 C 716.43 37.57 666.83 32.87 617.49 26.45 M 485.90 48.68 C 486.25 52.67 486.97 56.67 488.61 60.36 C 491.87 67.71 498.61 72.84 505.68 76.28 C 514.97 80.75 524.92 83.67 534.21 88.15 C 533.31 78.99 528.54 70.28 521.03 64.91 C 510.53 57.20 497.82 53.57 485.90 48.68 M 619.26 83.89 C 618.40 86.07 617.44 88.23 617.07 90.56 C 618.98 90.66 620.90 90.70 622.83 90.73 C 622.93 87.91 622.99 84.07 619.26 83.89 M 128.38 502.76 C 128.24 504.84 130.96 505.45 132.25 504.26 C 133.43 502.38 133.69 500.11 134.06 497.98 C 131.33 497.87 127.57 499.40 128.38 502.76 M 117.95 524.97 C 110.85 530.01 102.44 534.05 97.82 541.78 C 92.32 551.66 95.49 563.99 89.81 573.82 C 86.79 579.28 81.39 582.79 77.87 587.86 C 65.70 605.33 57.58 625.49 53.61 646.38 C 49.16 669.38 49.55 693.09 52.94 716.21 C 53.37 718.94 53.56 721.76 54.64 724.35 C 56.64 714.82 59.17 705.40 62.25 696.16 C 74.87 657.11 96.79 621.90 110.20 583.15 C 116.99 563.54 121.88 543.15 123.37 522.41 C 121.37 522.81 119.54 523.71 117.95 524.97 Z" />
<path fill="#ffffff" opacity="1.00" d=" M 504.04 32.61 C 524.74 27.92 545.64 22.84 567.00 22.98 C 576.26 22.84 585.53 24.02 594.48 26.43 C 597.20 47.78 594.84 69.32 595.65 90.75 C 584.46 93.91 571.84 93.51 561.83 87.12 C 546.53 77.52 538.04 60.91 525.94 48.05 C 519.93 41.34 512.61 35.63 504.04 32.61 Z" />
<path fill="#ffffff" opacity="1.00" d=" M 617.49 26.45 C 666.83 32.87 716.43 37.57 765.44 46.32 C 788.81 50.56 812.05 55.76 834.67 63.05 C 845.75 66.83 856.97 70.51 867.37 75.92 C 849.42 82.64 829.84 81.90 811.06 80.35 C 790.13 78.80 768.84 75.70 748.04 80.04 C 725.99 84.57 705.36 94.40 683.09 98.01 C 669.61 100.23 655.35 99.71 642.60 94.48 C 640.91 92.20 640.47 89.24 639.31 86.69 C 631.40 66.87 621.05 47.72 617.49 26.45 Z" />
<path fill="#ffffff" opacity="1.00" d=" M 485.90 48.68 C 497.82 53.57 510.53 57.20 521.03 64.91 C 528.54 70.28 533.31 78.99 534.21 88.15 C 524.92 83.67 514.97 80.75 505.68 76.28 C 498.61 72.84 491.87 67.71 488.61 60.36 C 486.97 56.67 486.25 52.67 485.90 48.68 Z" />
<path fill="#fefefe" opacity="1.00" d=" M 619.26 83.89 C 622.99 84.07 622.93 87.91 622.83 90.73 C 620.90 90.70 618.98 90.66 617.07 90.56 C 617.44 88.23 618.40 86.07 619.26 83.89 Z" />
<path fill="#000000" opacity="1.00" d=" M 495.39 295.39 C 500.14 292.51 505.63 290.99 511.16 290.68 C 511.23 292.86 511.21 295.14 510.16 297.13 C 507.37 302.99 502.58 307.53 498.17 312.17 C 481.90 328.64 461.34 340.18 440.06 348.89 C 401.07 364.59 359.39 371.96 318.01 378.20 C 293.29 381.75 268.52 384.98 243.72 387.97 C 243.98 383.11 246.05 377.61 251.00 375.83 C 258.75 373.08 266.94 376.39 274.89 375.40 C 303.77 372.75 332.14 366.40 360.24 359.44 C 388.38 352.08 416.76 344.97 443.61 333.58 C 452.91 329.32 462.44 325.03 470.23 318.24 C 478.94 310.99 485.51 301.26 495.39 295.39 Z" />
<path fill="#000000" opacity="1.00" d=" M 853.72 302.04 C 856.70 299.55 861.02 298.75 864.80 299.38 C 870.42 300.55 873.68 305.70 877.33 309.63 C 883.37 316.85 892.38 320.38 900.63 324.38 C 930.00 337.06 961.34 344.34 992.60 350.64 C 1021.59 356.39 1051.66 359.55 1078.74 372.15 C 1084.92 375.46 1091.82 378.39 1096.46 383.81 C 1088.56 382.26 1080.49 381.81 1072.54 380.64 C 1044.76 377.12 1017.07 372.68 989.75 366.51 C 955.28 358.63 921.12 348.01 889.91 331.14 C 880.87 326.38 872.44 320.58 863.75 315.24 C 859.14 312.17 854.16 307.95 853.72 302.04 Z" />
<path fill="#000000" opacity="1.00" d=" M 488.82 433.89 C 498.33 431.28 508.13 429.70 517.98 429.32 C 524.32 428.71 530.72 428.50 537.06 429.18 C 548.67 429.79 560.44 431.31 571.28 435.76 C 577.42 438.35 583.70 442.21 586.32 448.66 C 589.82 457.28 590.24 466.80 590.26 475.99 C 590.52 496.85 587.48 517.59 583.15 537.95 C 581.02 548.88 578.71 559.85 578.23 571.01 C 577.96 578.87 579.50 586.78 578.40 594.61 C 575.30 607.26 565.96 617.11 556.49 625.52 C 542.68 637.19 526.54 646.56 508.78 650.54 C 481.19 657.01 452.59 655.74 424.54 654.04 C 407.70 652.81 390.86 651.54 374.05 650.02 C 340.55 647.23 306.80 643.40 273.23 647.35 C 272.40 625.58 271.80 603.79 272.50 582.01 C 273.41 562.23 275.44 542.18 282.39 523.49 C 286.77 511.69 293.70 500.53 303.72 492.70 C 317.89 481.90 335.47 477.11 352.45 472.72 C 372.90 467.93 393.17 462.25 413.88 458.67 C 422.87 457.39 432.08 455.59 441.13 457.36 C 447.91 458.30 455.08 459.89 461.76 457.72 C 469.05 454.05 469.16 444.15 475.70 439.66 C 479.69 436.99 484.23 435.25 488.82 433.89 M 522.94 443.89 C 502.98 452.19 482.06 457.87 461.07 462.84 C 415.03 473.66 367.93 480.16 322.77 494.56 C 320.85 495.21 318.65 495.64 317.48 497.49 C 302.43 516.73 291.93 539.37 286.22 563.10 C 280.27 587.41 279.18 612.66 280.51 637.58 C 291.01 637.69 301.55 637.26 312.02 638.21 C 332.72 638.50 353.33 640.23 374.02 640.77 C 384.31 641.98 394.70 641.15 405.00 642.20 C 429.74 642.69 454.54 642.74 479.17 640.11 C 499.25 637.70 519.92 634.00 537.45 623.35 C 550.98 615.33 559.86 601.36 564.77 586.72 C 571.36 566.86 572.63 545.77 573.68 525.02 C 574.56 503.05 575.05 481.03 577.09 459.13 C 574.44 454.27 570.04 450.51 565.33 447.70 C 554.65 441.62 541.96 440.96 529.97 441.66 C 527.44 441.69 525.22 443.00 522.94 443.89 Z" />
<path fill="#000000" opacity="1.00" d=" M 940.78 430.88 C 954.07 429.29 968.01 430.11 980.39 435.59 C 995.76 442.06 1007.53 454.35 1018.37 466.62 C 1031.15 481.61 1046.12 495.27 1054.82 513.25 C 1060.40 524.22 1061.87 536.90 1060.58 549.04 C 1059.06 565.28 1053.82 580.86 1051.08 596.90 C 1048.92 609.01 1048.22 621.64 1051.31 633.66 C 1051.46 634.76 1052.32 636.27 1051.05 637.06 C 1037.08 649.58 1019.26 657.17 1001.00 660.88 C 998.44 661.51 995.80 661.78 993.18 661.64 C 993.71 661.87 994.26 662.11 994.83 662.35 C 984.57 662.97 974.32 664.17 964.01 663.41 C 951.19 662.27 937.99 661.12 926.11 655.75 C 920.47 653.37 914.85 650.65 908.76 649.69 C 897.93 648.63 887.06 650.24 876.21 649.58 C 850.20 647.79 824.83 640.38 800.99 630.01 C 777.31 619.97 754.76 607.36 730.70 598.20 C 727.67 576.80 730.24 555.22 732.59 533.90 C 733.45 527.19 734.59 520.45 737.04 514.12 C 739.43 508.00 743.81 502.97 748.29 498.29 C 761.36 485.56 776.80 475.60 792.56 466.55 C 809.59 456.76 828.04 449.45 847.21 445.12 C 875.95 438.45 905.76 438.33 935.04 440.58 C 936.78 437.32 937.39 432.91 940.78 430.88 M 944.66 444.21 C 945.32 450.66 952.50 452.51 956.27 456.73 C 958.16 458.75 957.85 461.59 957.05 464.01 C 947.70 459.60 937.71 456.65 927.61 454.60 C 893.32 447.92 857.43 452.56 824.89 464.75 C 805.57 472.19 786.94 482.47 772.27 497.27 C 764.91 505.56 755.68 512.10 749.13 521.13 C 744.49 527.80 743.27 536.14 742.59 544.05 C 741.84 556.31 742.57 568.62 741.90 580.89 C 745.35 585.77 750.02 589.60 754.57 593.41 C 766.12 602.63 779.47 609.26 793.11 614.77 C 813.15 622.66 834.07 627.99 855.05 632.68 C 879.08 637.81 903.19 642.50 927.30 647.19 C 952.17 651.41 977.99 655.49 1002.95 649.68 C 1018.27 646.23 1032.65 636.48 1039.29 621.95 C 1039.62 619.59 1038.83 617.23 1038.68 614.88 C 1036.39 593.70 1042.41 572.96 1044.86 552.09 C 1045.63 543.59 1046.39 534.64 1043.58 526.42 C 1038.75 516.71 1031.66 508.37 1025.39 499.58 C 1013.31 482.66 999.48 466.41 981.71 455.27 C 970.63 448.38 957.80 444.03 944.66 444.21 Z" />
<path fill="#ffffff" opacity="1.00" d=" M 522.94 443.89 C 525.22 443.00 527.44 441.69 529.97 441.66 C 541.96 440.96 554.65 441.62 565.33 447.70 C 570.04 450.51 574.44 454.27 577.09 459.13 C 575.05 481.03 574.56 503.05 573.68 525.02 C 572.63 545.77 571.36 566.86 564.77 586.72 C 559.86 601.36 550.98 615.33 537.45 623.35 C 519.92 634.00 499.25 637.70 479.17 640.11 C 454.54 642.74 429.74 642.69 405.00 642.20 C 394.70 641.15 384.31 641.98 374.02 640.77 C 353.33 640.23 332.72 638.50 312.02 638.21 C 301.55 637.26 291.01 637.69 280.51 637.58 C 279.18 612.66 280.27 587.41 286.22 563.10 C 291.93 539.37 302.43 516.73 317.48 497.49 C 318.65 495.64 320.85 495.21 322.77 494.56 C 367.93 480.16 415.03 473.66 461.07 462.84 C 482.06 457.87 502.98 452.19 522.94 443.89 M 393.80 540.81 C 384.24 546.80 377.17 556.81 375.47 568.04 C 373.92 579.05 375.89 590.49 380.41 600.59 C 382.62 602.19 385.27 603.06 387.77 604.11 C 402.20 609.55 417.74 610.88 433.02 611.59 C 446.35 611.57 459.73 611.96 473.02 610.70 C 481.91 610.78 490.70 609.31 499.59 609.44 C 505.29 599.99 509.59 589.18 509.02 577.96 C 508.90 565.60 501.75 554.18 492.07 546.88 C 476.46 534.86 456.39 530.18 437.00 529.70 C 422.05 529.88 406.55 532.57 393.80 540.81 Z" />
<path fill="#ffffff" opacity="1.00" d=" M 944.66 444.21 C 957.80 444.03 970.63 448.38 981.71 455.27 C 999.48 466.41 1013.31 482.66 1025.39 499.58 C 1031.66 508.37 1038.75 516.71 1043.58 526.42 C 1046.39 534.64 1045.63 543.59 1044.86 552.09 C 1042.41 572.96 1036.39 593.70 1038.68 614.88 C 1038.83 617.23 1039.62 619.59 1039.29 621.95 C 1032.65 636.48 1018.27 646.23 1002.95 649.68 C 977.99 655.49 952.17 651.41 927.30 647.19 C 903.19 642.50 879.08 637.81 855.05 632.68 C 834.07 627.99 813.15 622.66 793.11 614.77 C 779.47 609.26 766.12 602.63 754.57 593.41 C 750.02 589.60 745.35 585.77 741.90 580.89 C 742.57 568.62 741.84 556.31 742.59 544.05 C 743.27 536.14 744.49 527.80 749.13 521.13 C 755.68 512.10 764.91 505.56 772.27 497.27 C 786.94 482.47 805.57 472.19 824.89 464.75 C 857.43 452.56 893.32 447.92 927.61 454.60 C 937.71 456.65 947.70 459.60 957.05 464.01 C 957.85 461.59 958.16 458.75 956.27 456.73 C 952.50 452.51 945.32 450.66 944.66 444.21 M 849.40 518.36 C 847.82 518.90 847.72 520.87 847.27 522.22 C 841.97 543.80 844.77 566.18 846.01 588.07 C 846.21 589.85 845.81 592.28 847.88 593.14 C 857.72 599.43 869.57 601.45 881.02 602.42 C 897.97 603.32 915.18 601.35 931.30 595.92 C 941.90 592.24 952.92 586.95 959.16 577.19 C 965.00 565.96 965.12 551.11 957.17 540.83 C 949.47 530.52 937.10 524.98 924.96 521.79 C 906.25 517.28 886.05 517.90 868.06 525.04 C 868.17 525.38 868.39 526.05 868.50 526.38 C 877.52 529.96 887.36 530.72 896.94 531.64 C 911.03 533.24 925.59 533.62 938.93 538.94 C 945.20 541.37 951.26 546.24 952.52 553.19 C 953.30 558.59 952.75 564.73 949.01 569.01 C 943.63 575.29 936.15 579.25 928.74 582.65 C 912.94 589.51 895.49 593.40 878.25 591.25 C 872.46 590.19 866.57 587.94 862.52 583.52 C 857.77 578.28 857.06 570.80 857.56 564.06 C 858.75 549.65 863.21 535.54 862.47 520.98 C 858.99 518.36 853.64 516.89 849.40 518.36 Z" />
<path fill="#ffffff" opacity="1.00" d=" M 128.38 502.76 C 127.57 499.40 131.33 497.87 134.06 497.98 C 133.69 500.11 133.43 502.38 132.25 504.26 C 130.96 505.45 128.24 504.84 128.38 502.76 Z" />
<path fill="#000000" opacity="1.00" d=" M 849.40 518.36 C 853.64 516.89 858.99 518.36 862.47 520.98 C 863.21 535.54 858.75 549.65 857.56 564.06 C 857.06 570.80 857.77 578.28 862.52 583.52 C 866.57 587.94 872.46 590.19 878.25 591.25 C 895.49 593.40 912.94 589.51 928.74 582.65 C 936.15 579.25 943.63 575.29 949.01 569.01 C 952.75 564.73 953.30 558.59 952.52 553.19 C 951.26 546.24 945.20 541.37 938.93 538.94 C 925.59 533.62 911.03 533.24 896.94 531.64 C 887.36 530.72 877.52 529.96 868.50 526.38 C 868.39 526.05 868.17 525.38 868.06 525.04 C 886.05 517.90 906.25 517.28 924.96 521.79 C 937.10 524.98 949.47 530.52 957.17 540.83 C 965.12 551.11 965.00 565.96 959.16 577.19 C 952.92 586.95 941.90 592.24 931.30 595.92 C 915.18 601.35 897.97 603.32 881.02 602.42 C 869.57 601.45 857.72 599.43 847.88 593.14 C 845.81 592.28 846.21 589.85 846.01 588.07 C 844.77 566.18 841.97 543.80 847.27 522.22 C 847.72 520.87 847.82 518.90 849.40 518.36 Z" />
<path fill="#ffffff" opacity="1.00" d=" M 117.95 524.97 C 119.54 523.71 121.37 522.81 123.37 522.41 C 121.88 543.15 116.99 563.54 110.20 583.15 C 96.79 621.90 74.87 657.11 62.25 696.16 C 59.17 705.40 56.64 714.82 54.64 724.35 C 53.56 721.76 53.37 718.94 52.94 716.21 C 49.55 693.09 49.16 669.38 53.61 646.38 C 57.58 625.49 65.70 605.33 77.87 587.86 C 81.39 582.79 86.79 579.28 89.81 573.82 C 95.49 563.99 92.32 551.66 97.82 541.78 C 102.44 534.05 110.85 530.01 117.95 524.97 Z" />
<path fill="#000000" opacity="1.00" d=" M 393.80 540.81 C 406.55 532.57 422.05 529.88 437.00 529.70 C 456.39 530.18 476.46 534.86 492.07 546.88 C 501.75 554.18 508.90 565.60 509.02 577.96 C 509.59 589.18 505.29 599.99 499.59 609.44 C 490.70 609.31 481.91 610.78 473.02 610.70 C 459.73 611.96 446.35 611.57 433.02 611.59 C 417.74 610.88 402.20 609.55 387.77 604.11 C 385.27 603.06 382.62 602.19 380.41 600.59 C 375.89 590.49 373.92 579.05 375.47 568.04 C 377.17 556.81 384.24 546.80 393.80 540.81 M 423.40 541.53 C 414.68 542.42 405.87 544.66 398.43 549.44 C 393.08 552.83 388.95 558.30 387.83 564.60 C 385.85 573.83 389.61 583.06 394.08 590.96 C 395.10 592.43 395.72 594.72 397.80 594.93 C 424.97 601.68 453.16 603.25 481.05 602.20 C 482.85 601.88 485.27 602.10 486.26 600.20 C 490.89 593.99 494.79 586.85 495.42 578.99 C 496.05 571.89 493.07 564.87 488.33 559.68 C 480.17 551.17 468.84 546.55 457.59 543.75 C 446.40 541.31 434.81 539.97 423.40 541.53 Z" />
<path fill="#ffffff" opacity="1.00" d=" M 423.40 541.53 C 434.81 539.97 446.40 541.31 457.59 543.75 C 468.84 546.55 480.17 551.17 488.33 559.68 C 493.07 564.87 496.05 571.89 495.42 578.99 C 494.79 586.85 490.89 593.99 486.26 600.20 C 485.27 602.10 482.85 601.88 481.05 602.20 C 453.16 603.25 424.97 601.68 397.80 594.93 C 395.72 594.72 395.10 592.43 394.08 590.96 C 389.61 583.06 385.85 573.83 387.83 564.60 C 388.95 558.30 393.08 552.83 398.43 549.44 C 405.87 544.66 414.68 542.42 423.40 541.53 Z" />
<path fill="#000000" opacity="1.00" d=" M 586.56 765.44 C 591.08 762.51 597.10 762.94 601.95 764.92 C 581.59 806.42 560.64 848.23 531.16 884.15 C 529.76 886.12 527.63 887.69 526.83 890.00 C 526.64 898.47 526.62 907.57 522.07 915.04 C 518.64 920.57 511.89 922.86 505.64 922.59 C 506.11 907.51 510.91 892.72 519.04 880.04 C 525.89 869.03 534.76 859.48 542.21 848.90 C 541.99 843.32 541.47 837.39 544.21 832.26 C 550.34 819.49 564.70 813.92 572.49 802.47 C 580.50 791.49 578.81 776.56 586.56 765.44 Z" />
<path fill="#000000" opacity="1.00" d=" M 750.39 814.96 C 751.85 812.82 754.08 811.30 755.64 809.21 C 763.45 822.06 771.62 834.81 777.20 848.85 C 785.41 868.42 787.97 891.15 780.20 911.28 C 779.80 906.00 780.28 900.68 779.34 895.45 C 777.40 881.53 770.90 868.88 764.41 856.62 C 757.51 843.65 751.44 829.79 750.39 814.96 Z" />
<path fill="#000000" opacity="1.00" d=" M 685.97 915.99 C 692.47 910.02 701.29 907.05 710.00 906.59 C 714.85 906.75 720.17 907.64 723.72 911.27 C 726.62 913.81 727.80 917.61 728.71 921.23 C 724.53 924.27 719.27 923.28 714.91 921.27 C 710.71 919.48 706.58 917.32 702.01 916.73 C 698.95 916.38 696.26 918.17 693.99 919.98 C 694.38 925.82 693.51 931.66 691.76 937.24 C 687.56 935.59 683.45 932.65 681.77 928.32 C 680.08 923.80 682.71 919.04 685.97 915.99 Z" />
<path fill="#000000" opacity="1.00" d=" M 616.65 908.91 C 628.81 907.54 642.02 909.46 651.99 916.99 C 657.90 921.42 661.45 928.69 660.92 936.11 C 649.62 932.11 639.90 924.57 628.49 920.78 C 625.67 919.95 622.54 918.38 619.65 919.75 C 614.36 922.12 608.95 924.97 602.98 924.77 C 599.75 924.87 596.01 923.93 594.21 921.05 C 599.01 913.43 608.11 910.10 616.65 908.91 Z" />
<path fill="#000000" opacity="1.00" d=" M 374.03 977.64 C 380.52 978.81 385.58 973.22 391.96 973.68 C 395.26 976.80 395.68 983.02 392.70 986.65 C 387.98 992.65 379.86 994.25 374.60 999.60 C 371.52 1003.62 371.97 1009.13 369.43 1013.43 C 362.24 1025.61 348.24 1032.35 342.55 1045.60 C 340.65 1049.24 340.76 1053.57 339.23 1057.28 C 323.78 1075.56 306.08 1092.47 295.10 1114.05 C 288.29 1126.77 285.72 1141.09 281.80 1154.84 C 279.01 1164.45 275.50 1174.19 268.88 1181.88 C 265.81 1185.21 262.52 1188.58 258.27 1190.38 C 257.04 1183.82 257.89 1176.95 261.11 1171.07 C 265.59 1162.46 272.38 1154.21 272.01 1143.97 C 272.22 1140.58 269.94 1137.01 271.92 1133.89 C 300.17 1078.19 340.23 1029.87 374.03 977.64 Z" />
<path fill="#000000" opacity="1.00" d=" M 473.38 1091.55 C 483.45 1089.41 493.75 1087.72 504.07 1088.29 C 511.65 1088.76 518.48 1092.45 524.92 1096.19 C 533.38 1101.34 543.36 1103.01 553.01 1104.48 C 588.48 1109.16 623.81 1098.33 659.31 1101.87 C 672.21 1103.27 684.90 1107.21 695.95 1114.07 C 711.54 1123.69 724.92 1136.33 738.35 1148.66 C 762.91 1171.80 790.04 1192.26 812.49 1217.58 C 814.02 1218.88 812.18 1220.28 811.39 1221.39 C 804.74 1228.52 794.04 1230.21 787.94 1237.98 C 783.69 1243.29 783.75 1250.56 785.01 1256.92 C 771.40 1274.10 753.57 1287.16 735.95 1299.90 C 721.88 1309.61 709.17 1321.07 696.31 1332.29 C 680.33 1346.18 663.36 1359.53 643.61 1367.63 C 626.41 1374.93 607.62 1377.82 589.02 1377.81 C 560.04 1378.17 531.05 1375.54 502.09 1377.43 C 477.70 1379.09 453.50 1383.45 429.00 1383.31 C 416.34 1383.20 403.63 1383.80 391.03 1382.16 C 382.25 1381.02 373.15 1379.30 365.71 1374.19 C 355.51 1367.28 347.19 1358.06 337.56 1350.44 C 325.30 1340.27 309.38 1335.35 298.13 1323.87 C 290.87 1316.71 284.25 1308.87 278.53 1300.44 C 273.51 1293.21 269.81 1284.99 268.80 1276.19 C 265.32 1251.85 273.53 1227.88 282.68 1205.70 C 284.07 1202.86 284.52 1199.21 287.45 1197.46 C 301.24 1187.94 313.06 1175.21 328.87 1168.86 C 335.55 1165.70 343.33 1167.12 350.06 1164.14 C 356.92 1161.11 362.81 1156.34 368.57 1151.62 C 381.74 1140.24 395.86 1130.02 410.19 1120.18 C 429.41 1107.14 450.59 1096.56 473.38 1091.55 M 455.79 1107.96 C 428.14 1119.08 408.04 1142.58 381.41 1155.50 C 376.11 1158.23 370.41 1159.96 364.80 1161.88 C 362.18 1165.65 364.63 1173.19 359.22 1175.35 C 349.46 1177.80 339.69 1180.44 330.43 1184.47 C 314.53 1191.11 299.76 1201.80 290.85 1216.81 C 280.50 1233.79 278.15 1254.38 279.29 1273.89 C 279.19 1275.16 280.25 1276.07 280.95 1277.03 C 294.43 1292.63 306.13 1309.70 320.00 1324.99 C 332.36 1338.87 346.73 1351.36 363.63 1359.39 C 379.19 1367.09 396.69 1370.42 414.00 1370.08 C 442.31 1369.70 469.83 1362.19 497.82 1358.87 C 538.74 1354.12 579.91 1359.50 620.93 1357.39 C 640.01 1356.13 660.08 1353.35 676.12 1342.12 C 683.69 1336.97 687.06 1328.18 691.68 1320.69 C 696.51 1312.53 705.01 1307.72 712.81 1302.84 C 718.96 1299.17 724.95 1295.13 729.99 1290.00 C 737.41 1283.22 744.44 1275.42 754.05 1271.77 C 753.14 1264.70 752.86 1257.06 756.76 1250.76 C 764.83 1237.42 782.00 1233.45 790.27 1220.31 C 792.06 1218.28 789.73 1216.03 788.73 1214.25 C 783.41 1206.92 776.24 1200.96 772.35 1192.62 C 755.19 1185.35 742.04 1171.82 728.63 1159.36 C 716.78 1148.27 702.93 1138.43 686.81 1134.96 C 685.95 1130.70 685.45 1125.85 682.54 1122.48 C 669.38 1116.81 655.12 1114.03 640.91 1112.58 C 613.79 1110.14 586.49 1111.89 559.48 1114.78 C 547.79 1115.86 535.72 1117.47 524.28 1113.96 C 513.37 1110.32 503.79 1102.74 492.01 1101.84 C 479.68 1101.05 467.23 1103.39 455.79 1107.96 Z" />
<path fill="#ffffff" opacity="1.00" d=" M 455.79 1107.96 C 467.23 1103.39 479.68 1101.05 492.01 1101.84 C 503.79 1102.74 513.37 1110.32 524.28 1113.96 C 535.72 1117.47 547.79 1115.86 559.48 1114.78 C 586.49 1111.89 613.79 1110.14 640.91 1112.58 C 655.12 1114.03 669.38 1116.81 682.54 1122.48 C 685.45 1125.85 685.95 1130.70 686.81 1134.96 C 702.93 1138.43 716.78 1148.27 728.63 1159.36 C 742.04 1171.82 755.19 1185.35 772.35 1192.62 C 776.24 1200.96 783.41 1206.92 788.73 1214.25 C 789.73 1216.03 792.06 1218.28 790.27 1220.31 C 782.00 1233.45 764.83 1237.42 756.76 1250.76 C 752.86 1257.06 753.14 1264.70 754.05 1271.77 C 744.44 1275.42 737.41 1283.22 729.99 1290.00 C 724.95 1295.13 718.96 1299.17 712.81 1302.84 C 705.01 1307.72 696.51 1312.53 691.68 1320.69 C 687.06 1328.18 683.69 1336.97 676.12 1342.12 C 660.08 1353.35 640.01 1356.13 620.93 1357.39 C 579.91 1359.50 538.74 1354.12 497.82 1358.87 C 469.83 1362.19 442.31 1369.70 414.00 1370.08 C 396.69 1370.42 379.19 1367.09 363.63 1359.39 C 346.73 1351.36 332.36 1338.87 320.00 1324.99 C 306.13 1309.70 294.43 1292.63 280.95 1277.03 C 280.25 1276.07 279.19 1275.16 279.29 1273.89 C 278.15 1254.38 280.50 1233.79 290.85 1216.81 C 299.76 1201.80 314.53 1191.11 330.43 1184.47 C 339.69 1180.44 349.46 1177.80 359.22 1175.35 C 364.63 1173.19 362.18 1165.65 364.80 1161.88 C 370.41 1159.96 376.11 1158.23 381.41 1155.50 C 408.04 1142.58 428.14 1119.08 455.79 1107.96 M 432.99 1171.00 C 418.31 1176.93 404.87 1187.04 397.36 1201.24 C 385.69 1203.99 376.76 1212.40 367.78 1219.79 C 360.66 1225.68 352.27 1230.36 343.02 1231.68 C 339.34 1231.83 340.40 1236.49 339.81 1238.99 C 338.41 1253.90 345.56 1267.49 349.55 1281.42 C 368.10 1291.45 384.47 1304.98 402.91 1315.19 C 418.81 1324.18 436.44 1330.30 454.65 1332.14 C 473.82 1334.07 493.14 1332.37 512.19 1330.02 C 539.81 1326.29 566.95 1319.54 593.58 1311.41 C 615.01 1304.43 637.25 1300.18 658.52 1292.68 C 671.88 1287.83 685.39 1281.81 695.40 1271.41 C 703.03 1263.63 707.49 1252.86 707.50 1241.96 C 707.01 1238.27 710.24 1235.73 712.98 1233.95 C 721.85 1228.90 732.80 1229.74 741.67 1224.70 C 745.79 1222.44 746.97 1217.31 746.78 1212.96 C 746.46 1206.60 742.67 1201.05 738.34 1196.65 C 730.20 1188.18 719.78 1182.54 710.37 1175.69 C 704.44 1171.35 701.25 1163.78 694.35 1160.75 C 687.25 1159.31 680.14 1162.01 673.01 1162.11 C 631.62 1162.98 590.35 1159.25 549.00 1158.20 C 533.99 1158.17 518.98 1158.04 503.98 1158.27 C 479.96 1159.43 455.43 1161.76 432.99 1171.00 Z" />
<path fill="#000000" opacity="1.00" d=" M 432.99 1171.00 C 455.43 1161.76 479.96 1159.43 503.98 1158.27 C 518.98 1158.04 533.99 1158.17 549.00 1158.20 C 590.35 1159.25 631.62 1162.98 673.01 1162.11 C 680.14 1162.01 687.25 1159.31 694.35 1160.75 C 701.25 1163.78 704.44 1171.35 710.37 1175.69 C 719.78 1182.54 730.20 1188.18 738.34 1196.65 C 742.67 1201.05 746.46 1206.60 746.78 1212.96 C 746.97 1217.31 745.79 1222.44 741.67 1224.70 C 732.80 1229.74 721.85 1228.90 712.98 1233.95 C 710.24 1235.73 707.01 1238.27 707.50 1241.96 C 707.49 1252.86 703.03 1263.63 695.40 1271.41 C 685.39 1281.81 671.88 1287.83 658.52 1292.68 C 637.25 1300.18 615.01 1304.43 593.58 1311.41 C 566.95 1319.54 539.81 1326.29 512.19 1330.02 C 493.14 1332.37 473.82 1334.07 454.65 1332.14 C 436.44 1330.30 418.81 1324.18 402.91 1315.19 C 384.47 1304.98 368.10 1291.45 349.55 1281.42 C 345.56 1267.49 338.41 1253.90 339.81 1238.99 C 340.40 1236.49 339.34 1231.83 343.02 1231.68 C 352.27 1230.36 360.66 1225.68 367.78 1219.79 C 376.76 1212.40 385.69 1203.99 397.36 1201.24 C 404.87 1187.04 418.31 1176.93 432.99 1171.00 M 622.54 1170.70 C 620.37 1182.35 619.98 1194.90 623.72 1206.25 C 627.25 1208.13 631.30 1208.79 635.23 1209.37 C 659.02 1211.90 681.51 1198.00 705.37 1202.46 C 704.73 1203.41 704.08 1204.40 703.13 1205.09 C 694.07 1212.16 683.13 1216.37 672.07 1219.17 C 650.13 1224.53 627.45 1225.42 605.00 1226.93 C 582.89 1228.46 560.45 1229.70 539.17 1236.36 C 538.29 1236.68 537.43 1236.68 536.58 1236.36 C 515.53 1228.71 493.04 1226.82 471.02 1223.66 C 450.83 1220.82 430.14 1217.47 412.06 1207.47 C 393.38 1217.92 376.54 1232.04 355.98 1238.89 C 354.22 1239.63 352.11 1239.77 350.65 1241.09 C 349.53 1252.82 353.20 1265.13 361.02 1274.02 C 364.59 1278.12 370.12 1281.71 375.75 1279.92 C 381.70 1278.00 384.40 1271.79 386.86 1266.59 C 380.03 1264.03 372.25 1264.00 366.02 1259.92 C 363.28 1258.24 362.73 1254.95 362.91 1252.00 C 371.53 1247.48 381.54 1249.67 390.62 1251.28 C 408.00 1255.23 426.22 1252.63 443.45 1257.40 C 452.74 1259.71 458.05 1268.53 466.28 1272.75 C 477.76 1278.69 490.48 1281.69 503.13 1283.96 C 525.67 1287.84 548.56 1288.97 571.28 1291.39 C 583.22 1292.69 594.92 1297.17 607.05 1295.88 C 616.16 1294.10 624.77 1290.45 633.66 1287.87 C 649.94 1282.81 667.33 1278.06 680.01 1266.00 C 689.23 1257.39 693.19 1244.51 692.85 1232.14 C 701.89 1230.42 710.84 1225.92 716.28 1218.29 C 720.48 1212.57 720.93 1204.58 717.89 1198.25 C 714.39 1190.50 707.72 1184.75 700.61 1180.38 C 685.59 1171.46 668.29 1166.51 650.87 1165.69 C 641.29 1165.50 631.16 1166.14 622.54 1170.70 M 487.18 1169.21 C 484.34 1183.21 487.93 1197.45 486.12 1211.53 C 494.91 1214.54 503.45 1218.40 512.62 1220.18 C 520.97 1222.00 529.65 1221.76 537.99 1220.03 C 537.69 1204.00 538.80 1187.99 540.22 1172.04 C 538.30 1170.19 535.38 1169.81 532.92 1168.97 C 517.87 1165.38 502.36 1168.15 487.18 1169.21 M 549.28 1170.40 C 548.29 1171.67 548.92 1173.46 548.73 1174.97 C 549.01 1189.99 547.56 1205.10 549.89 1220.03 C 568.76 1220.98 588.35 1223.70 606.67 1217.63 C 608.65 1202.31 607.53 1186.80 608.92 1171.43 C 600.30 1168.34 591.14 1166.82 581.99 1167.14 C 571.02 1166.87 559.91 1167.45 549.28 1170.40 M 460.90 1170.01 C 451.11 1171.33 442.76 1177.17 435.32 1183.30 C 429.80 1188.00 424.10 1192.46 418.30 1196.80 C 423.26 1199.45 428.44 1201.74 433.91 1203.13 C 448.23 1206.95 463.02 1208.47 477.58 1211.08 C 477.36 1197.90 477.59 1184.73 477.46 1171.56 C 472.07 1170.17 466.46 1169.00 460.90 1170.01 M 400.06 1271.10 C 394.72 1273.90 389.86 1278.75 388.92 1284.92 C 404.13 1298.22 419.83 1312.51 439.78 1318.03 C 441.64 1316.80 443.46 1315.43 445.82 1315.54 C 448.74 1303.03 449.28 1289.96 454.02 1277.91 C 453.90 1277.57 453.66 1276.87 453.54 1276.53 C 447.63 1270.73 439.37 1268.01 431.33 1266.83 C 420.82 1265.42 409.61 1266.17 400.06 1271.10 M 466.32 1284.91 C 464.00 1295.33 460.68 1306.15 463.55 1316.84 C 467.95 1317.91 472.50 1318.22 477.02 1318.34 C 487.84 1318.45 498.66 1318.09 509.48 1317.97 C 509.71 1314.10 510.20 1309.90 512.92 1306.92 C 514.60 1304.88 518.00 1303.74 519.99 1306.02 C 522.87 1309.14 523.98 1313.42 526.20 1316.98 C 536.92 1312.61 548.87 1316.34 559.74 1312.79 C 563.43 1311.66 565.89 1308.17 566.19 1304.40 C 532.24 1302.39 498.34 1296.57 466.32 1284.91 Z" />
<path fill="#000000" opacity="1.00" d=" M 846.21 1162.94 C 849.75 1161.61 853.89 1160.47 857.39 1162.59 C 863.46 1166.05 866.42 1172.83 869.06 1178.98 C 877.52 1201.42 885.06 1224.77 885.26 1249.00 C 885.65 1265.57 882.41 1283.49 870.97 1296.16 C 876.12 1276.03 876.42 1254.89 873.32 1234.41 C 871.07 1219.95 867.05 1205.68 860.42 1192.60 C 855.63 1182.75 849.33 1173.53 846.21 1162.94 Z" />
<path fill="#ffffff" opacity="1.00" d=" M 622.54 1170.70 C 631.16 1166.14 641.29 1165.50 650.87 1165.69 C 668.29 1166.51 685.59 1171.46 700.61 1180.38 C 707.72 1184.75 714.39 1190.50 717.89 1198.25 C 720.93 1204.58 720.48 1212.57 716.28 1218.29 C 710.84 1225.92 701.89 1230.42 692.85 1232.14 C 693.19 1244.51 689.23 1257.39 680.01 1266.00 C 667.33 1278.06 649.94 1282.81 633.66 1287.87 C 624.77 1290.45 616.16 1294.10 607.05 1295.88 C 594.92 1297.17 583.22 1292.69 571.28 1291.39 C 548.56 1288.97 525.67 1287.84 503.13 1283.96 C 490.48 1281.69 477.76 1278.69 466.28 1272.75 C 458.05 1268.53 452.74 1259.71 443.45 1257.40 C 426.22 1252.63 408.00 1255.23 390.62 1251.28 C 381.54 1249.67 371.53 1247.48 362.91 1252.00 C 362.73 1254.95 363.28 1258.24 366.02 1259.92 C 372.25 1264.00 380.03 1264.03 386.86 1266.59 C 384.40 1271.79 381.70 1278.00 375.75 1279.92 C 370.12 1281.71 364.59 1278.12 361.02 1274.02 C 353.20 1265.13 349.53 1252.82 350.65 1241.09 C 352.11 1239.77 354.22 1239.63 355.98 1238.89 C 376.54 1232.04 393.38 1217.92 412.06 1207.47 C 430.14 1217.47 450.83 1220.82 471.02 1223.66 C 493.04 1226.82 515.53 1228.71 536.58 1236.36 C 537.43 1236.68 538.29 1236.68 539.17 1236.36 C 560.45 1229.70 582.89 1228.46 605.00 1226.93 C 627.45 1225.42 650.13 1224.53 672.07 1219.17 C 683.13 1216.37 694.07 1212.16 703.13 1205.09 C 704.08 1204.40 704.73 1203.41 705.37 1202.46 C 681.51 1198.00 659.02 1211.90 635.23 1209.37 C 631.30 1208.79 627.25 1208.13 623.72 1206.25 C 619.98 1194.90 620.37 1182.35 622.54 1170.70 Z" />
<path fill="#ffffff" opacity="1.00" d=" M 487.18 1169.21 C 502.36 1168.15 517.87 1165.38 532.92 1168.97 C 535.38 1169.81 538.30 1170.19 540.22 1172.04 C 538.80 1187.99 537.69 1204.00 537.99 1220.03 C 529.65 1221.76 520.97 1222.00 512.62 1220.18 C 503.45 1218.40 494.91 1214.54 486.12 1211.53 C 487.93 1197.45 484.34 1183.21 487.18 1169.21 Z" />
<path fill="#ffffff" opacity="1.00" d=" M 549.28 1170.40 C 559.91 1167.45 571.02 1166.87 581.99 1167.14 C 591.14 1166.82 600.30 1168.34 608.92 1171.43 C 607.53 1186.80 608.65 1202.31 606.67 1217.63 C 588.35 1223.70 568.76 1220.98 549.89 1220.03 C 547.56 1205.10 549.01 1189.99 548.73 1174.97 C 548.92 1173.46 548.29 1171.67 549.28 1170.40 Z" />
<path fill="#ffffff" opacity="1.00" d=" M 460.90 1170.01 C 466.46 1169.00 472.07 1170.17 477.46 1171.56 C 477.59 1184.73 477.36 1197.90 477.58 1211.08 C 463.02 1208.47 448.23 1206.95 433.91 1203.13 C 428.44 1201.74 423.26 1199.45 418.30 1196.80 C 424.10 1192.46 429.80 1188.00 435.32 1183.30 C 442.76 1177.17 451.11 1171.33 460.90 1170.01 Z" />
<path fill="#ffffff" opacity="1.00" d=" M 400.06 1271.10 C 409.61 1266.17 420.82 1265.42 431.33 1266.83 C 439.37 1268.01 447.63 1270.73 453.54 1276.53 C 453.66 1276.87 453.90 1277.57 454.02 1277.91 C 449.28 1289.96 448.74 1303.03 445.82 1315.54 C 443.46 1315.43 441.64 1316.80 439.78 1318.03 C 419.83 1312.51 404.13 1298.22 388.92 1284.92 C 389.86 1278.75 394.72 1273.90 400.06 1271.10 Z" />
<path fill="#ffffff" opacity="1.00" d=" M 466.32 1284.91 C 498.34 1296.57 532.24 1302.39 566.19 1304.40 C 565.89 1308.17 563.43 1311.66 559.74 1312.79 C 548.87 1316.34 536.92 1312.61 526.20 1316.98 C 523.98 1313.42 522.87 1309.14 519.99 1306.02 C 518.00 1303.74 514.60 1304.88 512.92 1306.92 C 510.20 1309.90 509.71 1314.10 509.48 1317.97 C 498.66 1318.09 487.84 1318.45 477.02 1318.34 C 472.50 1318.22 467.95 1317.91 463.55 1316.84 C 460.68 1306.15 464.00 1295.33 466.32 1284.91 Z" />
<path fill="#000000" opacity="1.00" d=" M 218.89 1324.11 C 221.34 1320.92 224.77 1318.17 229.01 1318.33 C 238.18 1318.45 245.91 1324.13 253.68 1328.32 C 255.50 1329.02 255.44 1331.23 256.09 1332.80 C 260.45 1348.50 270.50 1361.79 281.46 1373.53 C 292.34 1385.42 304.17 1396.88 311.59 1411.40 C 321.48 1414.57 332.74 1416.91 339.65 1425.34 C 341.92 1427.73 342.31 1431.31 344.25 1433.80 C 353.44 1436.84 363.53 1435.14 372.73 1438.27 C 374.77 1439.02 376.97 1440.13 377.88 1442.25 C 379.26 1446.10 377.35 1451.16 373.27 1452.44 C 368.19 1453.87 362.88 1452.44 357.95 1451.10 C 348.52 1448.26 339.47 1444.19 329.87 1441.99 C 327.41 1436.00 324.24 1430.01 318.86 1426.15 C 313.23 1421.75 306.17 1420.01 299.27 1418.88 C 294.60 1413.77 290.96 1407.73 286.74 1402.23 C 266.62 1374.22 246.45 1345.40 218.89 1324.11 Z" />
<path fill="#000000" opacity="1.00" d=" M 226.14 1421.36 C 233.56 1420.57 240.03 1425.25 245.93 1429.10 C 261.89 1440.95 273.69 1457.49 289.73 1469.25 C 297.27 1474.77 305.80 1479.14 315.02 1480.95 C 335.54 1484.75 356.34 1480.43 376.96 1480.25 C 430.99 1480.07 484.98 1482.05 539.00 1482.51 C 551.00 1482.35 562.99 1482.94 575.00 1482.76 C 627.18 1482.30 679.59 1482.61 731.42 1475.66 C 752.87 1472.60 774.38 1468.49 794.54 1460.35 C 806.73 1455.61 817.10 1447.35 828.92 1441.86 C 844.00 1435.21 860.10 1431.07 874.88 1423.68 C 871.94 1433.30 865.03 1441.22 856.82 1446.82 C 843.39 1455.85 827.56 1460.25 812.04 1464.17 C 790.84 1469.43 769.08 1472.80 748.49 1480.32 C 739.17 1483.57 733.46 1493.05 723.75 1495.49 C 714.32 1497.51 704.60 1497.33 695.01 1497.75 C 667.64 1497.82 640.36 1495.30 613.02 1494.30 C 586.36 1493.50 559.69 1494.40 533.03 1494.55 C 505.36 1495.14 477.68 1495.35 450.00 1495.25 C 425.31 1495.43 400.64 1494.25 375.97 1493.53 C 353.29 1493.30 330.46 1494.23 307.93 1490.98 C 299.18 1489.57 290.17 1487.56 282.97 1482.08 C 272.24 1474.19 264.62 1463.02 255.09 1453.86 C 249.54 1448.58 243.01 1443.92 235.35 1442.42 C 233.33 1434.94 227.77 1429.02 226.14 1421.36 Z" />
</svg>
