<?xml version="1.0" encoding="UTF-8" ?>
<!DOCTYPE svg PUBLIC "-//W3C//DTD SVG 1.1//EN" "http://www.w3.org/Graphics/SVG/1.1/DTD/svg11.dtd">
<svg width="106pt" height="353pt" viewBox="0 0 106 353" version="1.1" xmlns="http://www.w3.org/2000/svg">
<g id="#ffffffff">
<path fill="#ffffff" opacity="1.00" d=" M 0.00 0.00 L 106.00 0.00 L 106.00 353.00 L 12.55 353.00 C 15.99 346.20 19.26 339.31 22.17 332.27 C 23.08 329.50 23.63 326.60 24.99 324.00 C 27.48 319.20 28.50 313.80 31.00 309.00 C 35.68 300.34 37.51 290.56 40.29 281.21 C 41.24 278.17 42.76 275.26 42.93 272.03 C 43.27 266.96 43.92 261.91 44.94 256.94 C 47.05 248.27 45.41 239.29 46.15 230.49 C 52.80 248.01 55.19 266.76 57.77 285.21 C 60.13 293.39 58.04 301.96 59.71 310.22 C 60.45 314.16 59.09 318.05 59.04 321.98 C 58.92 326.85 58.23 331.75 56.35 336.28 C 55.02 340.63 53.70 345.18 54.08 349.78 C 54.86 350.37 55.70 350.88 56.59 351.32 C 57.53 346.20 58.09 340.96 60.12 336.13 C 62.34 330.25 61.64 323.87 62.70 317.78 C 63.25 314.07 63.12 310.28 62.44 306.59 C 61.34 300.24 62.66 293.75 61.58 287.41 C 59.75 279.10 59.34 270.56 57.71 262.21 C 55.86 252.96 54.38 243.59 51.37 234.62 C 50.12 231.37 50.45 227.53 48.17 224.72 C 46.82 222.74 46.83 220.22 45.90 218.06 C 43.71 212.75 42.50 207.09 40.22 201.82 C 38.33 197.06 36.04 192.26 36.00 187.04 C 35.93 182.86 35.89 178.68 36.12 174.51 C 39.07 178.77 39.15 184.40 42.65 188.36 C 47.05 193.72 50.29 199.92 54.78 205.21 C 57.46 208.34 58.93 212.28 61.55 215.46 C 63.91 218.28 64.96 221.91 67.25 224.78 C 69.00 226.93 69.93 229.58 71.32 231.96 C 73.64 232.13 73.95 228.80 76.04 228.05 C 73.33 225.39 70.49 222.65 68.93 219.12 C 67.92 216.89 66.83 214.66 65.24 212.77 C 62.57 209.64 61.08 205.70 58.32 202.63 C 53.82 197.33 50.71 191.02 46.28 185.66 C 43.62 182.52 42.93 178.35 41.32 174.68 C 37.75 165.47 39.94 155.43 38.22 145.91 C 37.46 138.55 38.77 131.08 37.29 123.78 C 36.35 120.20 38.64 116.35 36.55 113.04 C 44.95 114.83 53.48 115.85 61.99 116.93 C 64.82 117.20 67.65 116.88 70.45 116.44 C 73.16 115.87 75.78 117.08 78.40 117.57 C 82.52 118.60 86.79 117.76 90.84 116.81 C 91.95 116.44 93.38 116.19 93.94 115.03 C 96.88 109.76 99.30 104.22 101.71 98.69 C 103.95 94.13 102.74 88.88 103.00 84.00 C 103.25 74.98 102.32 65.88 103.77 56.92 C 104.15 52.55 103.81 48.11 104.71 43.78 C 105.70 38.55 104.02 33.36 102.54 28.39 C 101.00 24.85 97.93 22.23 96.40 18.66 C 95.26 16.83 95.08 13.98 92.67 13.31 C 89.96 12.82 87.17 13.20 84.46 12.66 C 81.98 10.78 80.06 8.17 77.19 6.80 C 72.64 4.55 68.42 0.73 63.04 0.97 C 52.35 1.00 41.67 1.02 30.98 0.97 C 23.21 0.83 15.56 4.73 10.95 10.95 C 9.24 13.26 7.29 15.48 6.25 18.20 C 4.02 25.40 2.93 32.87 1.29 40.21 C 0.63 45.45 1.13 50.74 1.00 56.00 C 1.11 60.87 0.62 65.79 1.35 70.62 C 2.33 77.04 7.25 81.88 8.84 88.08 C 9.26 91.70 8.80 95.36 9.14 98.99 C 9.79 98.99 11.11 98.99 11.77 98.99 C 12.01 96.88 12.04 94.76 12.22 92.65 C 16.15 97.40 19.78 102.41 24.28 106.67 C 26.86 110.15 31.44 110.66 34.76 113.14 C 34.54 115.62 34.24 118.13 33.54 120.52 C 32.61 121.54 31.50 122.36 30.58 123.39 C 30.47 124.77 30.65 126.17 30.47 127.56 C 26.33 138.72 20.80 149.85 20.82 162.01 C 20.56 165.01 19.96 167.97 19.99 170.99 C 20.00 190.99 20.02 211.00 19.98 231.00 C 20.03 234.23 19.73 237.50 20.26 240.71 C 20.80 242.47 23.21 242.47 23.74 240.71 C 24.24 237.84 23.99 234.90 24.02 232.00 C 23.95 212.67 24.05 193.33 23.97 174.00 C 23.85 169.97 24.81 166.03 24.95 162.02 C 25.03 151.63 30.13 142.30 32.89 132.51 C 33.16 151.01 32.92 169.52 32.99 188.02 C 33.09 193.56 34.47 199.07 36.95 204.03 C 39.95 210.27 40.61 217.24 42.13 223.93 C 43.43 229.19 42.94 234.64 43.02 240.00 C 42.99 244.41 43.30 248.88 42.28 253.22 C 41.11 258.76 40.29 264.37 39.93 270.03 C 39.74 273.53 37.98 276.66 37.05 279.99 C 35.24 286.47 33.64 293.03 31.40 299.39 C 29.78 304.21 26.83 308.48 25.38 313.37 C 23.82 318.94 20.59 323.88 19.41 329.57 C 16.27 337.59 12.40 345.31 8.53 353.00 L 0.00 353.00 L 0.00 0.00 Z" />
<path fill="#ffffff" opacity="1.00" d=" M 27.41 4.40 C 28.88 3.88 30.47 4.02 31.99 3.96 C 42.00 4.05 52.02 3.96 62.03 4.00 C 65.24 3.93 68.06 5.66 70.68 7.30 C 73.82 9.33 77.40 10.61 80.34 12.96 C 67.23 13.07 54.11 12.98 41.00 12.98 C 37.96 12.93 35.00 13.68 32.01 14.09 C 25.90 15.02 20.99 19.10 15.39 21.40 C 13.61 23.68 11.35 25.44 9.18 27.31 C 8.82 29.45 8.85 31.66 9.10 33.82 C 10.13 35.50 12.20 36.79 11.98 39.00 C 12.21 46.62 11.71 54.27 12.14 61.88 C 13.32 64.77 14.74 67.57 15.48 70.63 C 16.52 72.08 17.86 73.28 18.91 74.73 C 16.00 77.17 13.31 79.88 10.21 82.07 C 7.91 77.15 4.49 72.58 4.09 66.98 C 3.83 59.99 4.10 52.99 3.97 46.00 C 3.74 42.20 5.31 38.66 5.85 34.97 C 6.41 30.50 7.76 26.19 8.75 21.81 C 9.59 16.28 14.53 12.90 18.21 9.22 C 20.65 6.59 24.20 5.69 27.41 4.40 Z" />
<path fill="#ffffff" opacity="1.00" d=" M 38.39 16.38 C 40.24 16.03 42.13 15.97 44.00 15.97 C 58.35 16.04 72.69 15.99 87.03 15.98 C 89.94 15.69 92.42 17.92 93.71 20.33 C 95.87 24.17 99.05 27.56 100.03 31.98 C 100.77 35.74 102.77 39.55 101.43 43.41 C 100.32 50.50 101.48 57.73 100.88 64.87 C 100.61 65.94 100.22 66.98 99.71 67.97 C 94.85 68.77 91.76 64.05 87.90 62.07 C 87.42 62.03 86.46 61.94 85.98 61.90 C 85.88 63.10 85.96 64.29 86.22 65.46 C 88.92 67.79 92.06 69.47 95.11 71.29 C 94.77 71.67 94.09 72.45 93.76 72.83 C 89.52 73.20 85.25 73.03 81.00 72.97 C 78.05 73.03 76.30 70.23 73.90 68.99 C 71.12 68.32 68.99 70.46 66.97 71.97 C 64.87 74.19 62.70 76.61 59.89 77.89 C 55.94 78.04 51.65 78.70 48.04 76.72 C 46.83 72.36 52.58 70.15 52.09 65.91 C 50.42 65.89 48.71 66.21 47.45 67.39 C 46.35 68.98 45.74 70.94 44.26 72.24 C 42.11 73.08 39.92 73.82 37.82 74.79 C 35.24 75.22 32.61 74.88 30.01 75.10 C 30.01 75.80 30.01 77.20 30.01 77.90 C 32.96 78.13 35.93 77.81 38.88 78.13 C 41.56 79.07 43.97 80.72 46.80 81.28 C 50.90 82.54 55.23 81.73 59.44 82.11 C 56.35 84.14 52.63 84.79 49.30 86.32 C 45.65 87.98 41.66 86.50 37.95 85.93 C 37.99 86.62 38.08 87.99 38.12 88.68 C 39.73 89.88 41.50 90.83 43.22 91.85 C 53.04 92.35 62.91 91.67 72.74 92.13 C 72.97 92.68 73.44 93.80 73.67 94.35 C 73.25 97.77 72.51 101.24 73.18 104.69 C 74.72 106.56 76.88 107.72 78.62 109.37 C 79.58 110.87 80.33 112.51 81.06 114.14 C 74.66 112.76 67.99 111.96 62.10 108.93 C 53.83 105.16 46.04 100.42 38.29 95.71 C 32.52 90.61 28.37 84.03 24.53 77.43 C 20.03 72.42 17.78 65.96 15.15 59.88 C 14.75 55.26 15.10 50.62 15.01 46.00 C 14.91 41.20 15.60 36.10 13.51 31.61 C 13.14 31.26 12.41 30.54 12.04 30.19 C 16.11 30.45 15.26 24.78 18.65 23.74 C 22.37 22.24 25.67 19.92 29.37 18.36 C 32.24 17.16 35.36 16.95 38.39 16.38 M 85.39 32.38 C 82.36 32.96 79.22 33.16 76.32 34.30 C 74.50 35.86 73.25 37.97 71.77 39.84 C 70.47 41.25 71.06 43.29 71.03 45.01 C 72.22 45.11 73.41 45.04 74.58 44.82 C 77.01 41.86 79.77 39.21 82.30 36.34 C 86.04 35.65 89.87 34.49 93.70 35.15 C 95.34 36.24 95.81 38.21 96.51 39.92 C 97.13 39.95 98.36 40.00 98.97 40.03 C 99.19 37.72 99.16 35.24 97.68 33.31 C 94.04 31.03 89.42 32.01 85.39 32.38 M 25.56 34.21 C 23.81 37.42 20.08 39.99 20.98 44.10 C 21.60 44.02 22.84 43.86 23.46 43.78 C 25.17 41.64 26.60 39.29 28.33 37.17 C 32.87 36.73 37.45 37.12 42.01 36.98 C 46.62 36.85 51.53 37.04 55.64 39.36 C 58.92 42.33 62.31 46.06 67.10 46.11 C 67.16 43.95 66.35 41.77 64.74 40.30 C 61.47 37.27 57.80 33.89 53.03 34.00 C 43.88 34.13 34.69 33.70 25.56 34.21 M 78.27 45.13 C 77.63 46.48 76.86 47.88 77.00 49.43 C 79.97 50.03 81.79 53.34 84.97 53.01 C 89.35 53.01 93.73 53.13 98.11 52.89 C 98.19 48.98 94.98 45.18 91.00 45.03 C 86.76 44.95 82.51 44.84 78.27 45.13 M 37.35 47.27 C 34.30 48.44 32.41 51.26 30.35 53.62 C 29.22 54.86 30.48 57.05 32.09 56.93 C 36.33 57.05 40.60 57.22 44.83 56.81 C 47.55 55.60 50.41 54.98 53.35 54.61 C 54.58 53.36 55.98 52.24 57.02 50.82 C 57.32 49.27 56.89 47.02 54.91 47.06 C 49.07 47.04 43.16 46.67 37.35 47.27 M 76.02 65.04 C 76.02 65.77 76.02 67.23 76.02 67.96 C 77.34 68.05 78.66 68.05 79.98 67.96 C 79.98 67.23 79.98 65.77 79.98 65.03 C 78.66 64.95 77.34 64.95 76.02 65.04 M 61.02 67.06 C 61.02 67.78 61.02 69.22 61.02 69.94 C 62.67 70.07 64.33 70.07 65.99 69.94 C 65.99 69.22 65.98 67.78 65.98 67.06 C 64.33 66.93 62.67 66.93 61.02 67.06 Z" />
<path fill="#ffffff" opacity="1.00" d=" M 100.48 69.42 L 100.97 68.65 C 101.03 72.40 101.15 76.16 100.90 79.91 C 98.24 80.12 95.56 80.07 92.89 79.98 C 95.20 76.29 98.46 73.29 100.48 69.42 Z" />
<path fill="#ffffff" opacity="1.00" d=" M 72.35 76.52 C 73.37 76.18 74.28 77.47 75.22 77.78 C 77.43 79.22 80.11 79.62 82.40 80.90 C 76.81 81.11 71.20 81.08 65.61 80.89 C 67.59 79.05 70.00 77.79 72.35 76.52 Z" />
<path fill="#ffffff" opacity="1.00" d=" M 20.43 78.30 C 20.71 78.21 21.25 78.02 21.53 77.93 C 22.86 80.48 23.97 83.14 25.32 85.68 C 26.59 88.29 28.75 90.28 30.44 92.60 C 32.87 95.49 35.36 98.58 38.85 100.24 C 41.16 101.54 43.24 103.22 45.66 104.34 C 49.88 106.37 53.66 109.21 58.00 110.98 C 60.14 111.91 62.61 112.08 64.47 113.61 C 56.47 112.88 48.45 112.23 40.60 110.46 C 36.40 109.91 32.57 108.01 28.81 106.18 C 25.34 101.68 20.67 98.23 17.60 93.41 C 16.14 91.21 14.14 89.39 12.93 87.03 C 14.42 83.39 17.20 80.47 20.43 78.30 Z" />
<path fill="#ffffff" opacity="1.00" d=" M 65.38 84.33 C 68.21 83.76 71.13 84.04 74.00 83.99 C 79.47 84.10 84.94 83.81 90.40 84.13 C 88.37 86.13 85.47 86.71 83.01 88.01 C 80.57 89.41 77.69 88.96 75.00 89.03 C 67.54 88.87 60.06 89.20 52.60 88.89 C 53.97 87.95 55.62 87.66 57.18 87.18 C 59.99 86.46 62.50 84.85 65.38 84.33 Z" />
<path fill="#ffffff" opacity="1.00" d=" M 99.36 84.33 C 99.77 84.22 100.59 84.00 101.00 83.89 C 101.71 93.17 96.29 101.12 93.57 109.61 C 92.56 111.25 91.12 112.58 89.64 113.79 C 88.16 114.17 86.60 114.04 85.09 113.98 C 84.77 110.03 85.27 106.06 84.87 102.12 C 83.65 98.87 81.77 95.88 80.98 92.47 C 84.44 91.22 87.87 89.83 91.14 88.12 C 93.75 86.59 96.43 85.13 99.36 84.33 Z" />
<path fill="#ffffff" opacity="1.00" d=" M 77.36 93.65 C 78.92 98.13 82.05 102.24 82.12 107.11 C 80.03 105.78 77.84 104.52 76.14 102.69 C 75.60 99.63 76.88 96.63 77.36 93.65 Z" />
</g>
<g id="#000000ff">
<path fill="#000000" opacity="1.00" d=" M 10.95 10.95 C 15.56 4.73 23.21 0.83 30.98 0.97 C 41.67 1.02 52.35 1.00 63.04 0.97 C 68.42 0.73 72.64 4.55 77.19 6.80 C 80.06 8.17 81.98 10.78 84.46 12.66 C 87.17 13.20 89.96 12.82 92.67 13.31 C 95.08 13.98 95.26 16.83 96.40 18.66 C 97.93 22.23 101.00 24.85 102.54 28.39 C 104.02 33.36 105.70 38.55 104.71 43.78 C 103.81 48.11 104.15 52.55 103.77 56.92 C 102.32 65.88 103.25 74.98 103.00 84.00 C 102.74 88.88 103.95 94.13 101.71 98.69 C 99.30 104.22 96.88 109.76 93.94 115.03 C 93.38 116.19 91.95 116.44 90.84 116.81 C 86.79 117.76 82.52 118.60 78.40 117.57 C 75.78 117.08 73.16 115.87 70.45 116.44 C 67.65 116.88 64.82 117.20 61.99 116.93 C 53.48 115.85 44.95 114.83 36.55 113.04 C 38.64 116.35 36.35 120.20 37.29 123.78 C 38.77 131.08 37.46 138.55 38.22 145.91 C 39.94 155.43 37.75 165.47 41.32 174.68 C 42.93 178.35 43.62 182.52 46.28 185.66 C 50.71 191.02 53.82 197.33 58.32 202.63 C 61.08 205.70 62.57 209.64 65.24 212.77 C 66.83 214.66 67.92 216.89 68.93 219.12 C 70.49 222.65 73.33 225.39 76.04 228.05 C 73.95 228.80 73.64 232.13 71.32 231.96 C 69.93 229.58 69.00 226.93 67.25 224.78 C 64.96 221.91 63.91 218.28 61.55 215.46 C 58.93 212.28 57.46 208.34 54.78 205.21 C 50.29 199.92 47.05 193.72 42.65 188.36 C 39.15 184.40 39.07 178.77 36.12 174.51 C 35.89 178.68 35.93 182.86 36.00 187.04 C 36.04 192.26 38.33 197.06 40.22 201.82 C 42.50 207.09 43.71 212.75 45.90 218.06 C 46.83 220.22 46.82 222.74 48.17 224.72 C 50.45 227.53 50.12 231.37 51.37 234.62 C 54.38 243.59 55.86 252.96 57.71 262.21 C 59.34 270.56 59.75 279.10 61.58 287.41 C 62.66 293.75 61.34 300.24 62.44 306.59 C 63.12 310.28 63.25 314.07 62.70 317.78 C 61.64 323.87 62.34 330.25 60.12 336.13 C 58.09 340.96 57.53 346.20 56.59 351.32 C 55.70 350.88 54.86 350.37 54.08 349.78 C 53.70 345.18 55.02 340.63 56.35 336.28 C 58.23 331.75 58.92 326.85 59.04 321.98 C 59.09 318.05 60.45 314.16 59.71 310.22 C 58.04 301.96 60.13 293.39 57.77 285.21 C 55.19 266.76 52.80 248.01 46.15 230.49 C 45.41 239.29 47.05 248.27 44.94 256.94 C 43.92 261.91 43.27 266.96 42.93 272.03 C 42.76 275.26 41.24 278.17 40.29 281.21 C 37.51 290.56 35.68 300.34 31.00 309.00 C 28.50 313.80 27.48 319.20 24.99 324.00 C 23.63 326.60 23.08 329.50 22.17 332.27 C 19.26 339.31 15.99 346.20 12.55 353.00 L 8.53 353.00 C 12.40 345.31 16.27 337.59 19.41 329.57 C 20.59 323.88 23.82 318.94 25.38 313.37 C 26.83 308.48 29.78 304.21 31.40 299.39 C 33.64 293.03 35.24 286.47 37.05 279.99 C 37.98 276.66 39.74 273.53 39.93 270.03 C 40.29 264.37 41.11 258.76 42.28 253.22 C 43.30 248.88 42.99 244.41 43.02 240.00 C 42.94 234.64 43.43 229.19 42.13 223.93 C 40.61 217.24 39.95 210.27 36.95 204.03 C 34.47 199.07 33.09 193.56 32.99 188.02 C 32.92 169.52 33.16 151.01 32.89 132.51 C 30.13 142.30 25.03 151.63 24.95 162.02 C 24.81 166.03 23.85 169.97 23.97 174.00 C 24.05 193.33 23.95 212.67 24.02 232.00 C 23.99 234.90 24.24 237.84 23.74 240.71 C 23.21 242.47 20.80 242.47 20.26 240.71 C 19.73 237.50 20.03 234.23 19.98 231.00 C 20.02 211.00 20.00 190.99 19.99 170.99 C 19.96 167.97 20.56 165.01 20.82 162.01 C 20.80 149.85 26.33 138.72 30.47 127.56 C 30.65 126.17 30.47 124.77 30.58 123.39 C 31.50 122.36 32.61 121.54 33.54 120.52 C 34.24 118.13 34.54 115.62 34.76 113.14 C 31.44 110.66 26.86 110.15 24.28 106.67 C 19.78 102.41 16.15 97.40 12.22 92.65 C 12.04 94.76 12.01 96.88 11.77 98.99 C 11.11 98.99 9.79 98.99 9.14 98.99 C 8.80 95.36 9.26 91.70 8.84 88.08 C 7.25 81.88 2.33 77.04 1.35 70.62 C 0.62 65.79 1.11 60.87 1.00 56.00 C 1.13 50.74 0.63 45.45 1.29 40.21 C 2.93 32.87 4.02 25.40 6.25 18.20 C 7.29 15.48 9.24 13.26 10.95 10.95 M 27.41 4.40 C 24.20 5.69 20.65 6.59 18.21 9.22 C 14.53 12.90 9.59 16.28 8.75 21.81 C 7.76 26.19 6.41 30.50 5.85 34.97 C 5.31 38.66 3.74 42.20 3.97 46.00 C 4.10 52.99 3.83 59.99 4.09 66.98 C 4.49 72.58 7.91 77.15 10.21 82.07 C 13.31 79.88 16.00 77.17 18.91 74.73 C 17.86 73.28 16.52 72.08 15.48 70.63 C 14.74 67.57 13.32 64.77 12.14 61.88 C 11.71 54.27 12.21 46.62 11.98 39.00 C 12.20 36.79 10.13 35.50 9.10 33.82 C 8.85 31.66 8.82 29.45 9.18 27.31 C 11.35 25.44 13.61 23.68 15.39 21.40 C 20.99 19.10 25.90 15.02 32.01 14.09 C 35.00 13.68 37.96 12.93 41.00 12.98 C 54.11 12.98 67.23 13.07 80.34 12.96 C 77.40 10.61 73.82 9.33 70.68 7.30 C 68.06 5.66 65.24 3.93 62.03 4.00 C 52.02 3.96 42.00 4.05 31.99 3.96 C 30.47 4.02 28.88 3.88 27.41 4.40 M 38.39 16.38 C 35.36 16.95 32.24 17.16 29.37 18.36 C 25.67 19.92 22.37 22.24 18.65 23.74 C 15.26 24.78 16.11 30.45 12.04 30.19 C 12.41 30.54 13.14 31.26 13.51 31.61 C 15.60 36.10 14.91 41.20 15.01 46.00 C 15.10 50.62 14.75 55.26 15.15 59.88 C 17.78 65.96 20.03 72.42 24.53 77.43 C 28.37 84.03 32.52 90.61 38.29 95.71 C 46.04 100.42 53.83 105.16 62.10 108.93 C 67.99 111.96 74.66 112.76 81.06 114.14 C 80.33 112.51 79.58 110.87 78.62 109.37 C 76.88 107.72 74.72 106.56 73.18 104.69 C 72.51 101.24 73.25 97.77 73.67 94.35 C 73.44 93.80 72.97 92.68 72.74 92.13 C 62.91 91.67 53.04 92.35 43.22 91.85 C 41.50 90.83 39.73 89.88 38.12 88.68 C 38.08 87.99 37.99 86.62 37.95 85.93 C 41.66 86.50 45.65 87.98 49.30 86.32 C 52.63 84.79 56.35 84.14 59.44 82.11 C 55.23 81.73 50.90 82.54 46.80 81.28 C 43.97 80.72 41.56 79.07 38.88 78.13 C 35.93 77.81 32.96 78.13 30.01 77.90 C 30.01 77.20 30.01 75.80 30.01 75.10 C 32.61 74.88 35.24 75.22 37.82 74.79 C 39.92 73.82 42.11 73.08 44.26 72.24 C 45.74 70.94 46.35 68.98 47.45 67.39 C 48.71 66.21 50.42 65.89 52.09 65.91 C 52.58 70.15 46.83 72.36 48.04 76.72 C 51.65 78.70 55.94 78.04 59.89 77.89 C 62.70 76.61 64.87 74.19 66.97 71.97 C 68.99 70.46 71.12 68.32 73.90 68.99 C 76.30 70.23 78.05 73.03 81.00 72.97 C 85.25 73.03 89.52 73.20 93.76 72.83 C 94.09 72.45 94.77 71.67 95.11 71.29 C 92.06 69.47 88.92 67.79 86.22 65.46 C 85.96 64.29 85.88 63.10 85.98 61.90 C 86.46 61.94 87.42 62.03 87.90 62.07 C 91.76 64.05 94.85 68.77 99.71 67.97 C 100.22 66.98 100.61 65.94 100.88 64.87 C 101.48 57.73 100.32 50.50 101.43 43.41 C 102.77 39.55 100.77 35.74 100.03 31.98 C 99.05 27.56 95.87 24.17 93.71 20.33 C 92.42 17.92 89.94 15.69 87.03 15.98 C 72.69 15.99 58.35 16.04 44.00 15.97 C 42.13 15.97 40.24 16.03 38.39 16.38 M 100.48 69.42 C 98.46 73.29 95.20 76.29 92.89 79.98 C 95.56 80.07 98.24 80.12 100.90 79.91 C 101.15 76.16 101.03 72.40 100.97 68.65 L 100.48 69.42 M 72.35 76.52 C 70.00 77.79 67.59 79.05 65.61 80.89 C 71.20 81.08 76.81 81.11 82.40 80.90 C 80.11 79.62 77.43 79.22 75.22 77.78 C 74.28 77.47 73.37 76.18 72.35 76.52 M 20.43 78.30 C 17.20 80.47 14.42 83.39 12.93 87.03 C 14.14 89.39 16.14 91.21 17.60 93.41 C 20.67 98.23 25.34 101.68 28.81 106.18 C 32.57 108.01 36.40 109.91 40.60 110.46 C 48.45 112.23 56.47 112.88 64.47 113.61 C 62.61 112.08 60.14 111.91 58.00 110.98 C 53.66 109.21 49.88 106.37 45.66 104.34 C 43.24 103.22 41.16 101.54 38.85 100.24 C 35.36 98.58 32.87 95.49 30.44 92.60 C 28.75 90.28 26.59 88.29 25.32 85.68 C 23.97 83.14 22.86 80.48 21.53 77.93 C 21.25 78.02 20.71 78.21 20.43 78.30 M 65.38 84.33 C 62.50 84.85 59.99 86.46 57.18 87.18 C 55.62 87.66 53.97 87.95 52.60 88.89 C 60.06 89.20 67.54 88.87 75.00 89.03 C 77.69 88.96 80.57 89.41 83.01 88.01 C 85.47 86.71 88.37 86.13 90.40 84.13 C 84.94 83.81 79.47 84.10 74.00 83.99 C 71.13 84.04 68.21 83.76 65.38 84.33 M 99.36 84.33 C 96.43 85.13 93.75 86.59 91.14 88.12 C 87.87 89.83 84.44 91.22 80.98 92.47 C 81.77 95.88 83.65 98.87 84.87 102.12 C 85.27 106.06 84.77 110.03 85.09 113.98 C 86.60 114.04 88.16 114.17 89.64 113.79 C 91.12 112.58 92.56 111.25 93.57 109.61 C 96.29 101.12 101.71 93.17 101.00 83.89 C 100.59 84.00 99.77 84.22 99.36 84.33 M 77.36 93.65 C 76.88 96.63 75.60 99.63 76.14 102.69 C 77.84 104.52 80.03 105.78 82.12 107.11 C 82.05 102.24 78.92 98.13 77.36 93.65 Z" />
<path fill="#000000" opacity="1.00" d=" M 85.39 32.38 C 89.42 32.01 94.04 31.03 97.68 33.31 C 99.16 35.24 99.19 37.72 98.97 40.03 C 98.36 40.00 97.13 39.95 96.51 39.92 C 95.81 38.21 95.34 36.24 93.70 35.15 C 89.87 34.49 86.04 35.65 82.30 36.34 C 79.77 39.21 77.01 41.86 74.58 44.82 C 73.41 45.04 72.22 45.11 71.03 45.01 C 71.06 43.29 70.47 41.25 71.77 39.84 C 73.25 37.97 74.50 35.86 76.32 34.30 C 79.22 33.16 82.36 32.96 85.39 32.38 Z" />
<path fill="#000000" opacity="1.00" d=" M 25.56 34.21 C 34.69 33.70 43.88 34.13 53.03 34.00 C 57.80 33.89 61.47 37.27 64.74 40.30 C 66.35 41.77 67.16 43.95 67.10 46.11 C 62.31 46.06 58.92 42.33 55.64 39.36 C 51.53 37.04 46.62 36.85 42.01 36.98 C 37.45 37.12 32.87 36.73 28.33 37.17 C 26.60 39.29 25.17 41.64 23.46 43.78 C 22.84 43.86 21.60 44.02 20.98 44.10 C 20.08 39.99 23.81 37.42 25.56 34.21 Z" />
<path fill="#000000" opacity="1.00" d=" M 78.27 45.13 C 82.51 44.84 86.76 44.95 91.00 45.03 C 94.98 45.18 98.19 48.98 98.11 52.89 C 93.73 53.13 89.35 53.01 84.97 53.01 C 81.79 53.34 79.97 50.03 77.00 49.43 C 76.86 47.88 77.63 46.48 78.27 45.13 Z" />
<path fill="#000000" opacity="1.00" d=" M 37.35 47.27 C 43.16 46.67 49.07 47.04 54.91 47.06 C 56.89 47.02 57.32 49.27 57.02 50.82 C 55.98 52.24 54.58 53.36 53.35 54.61 C 50.41 54.98 47.55 55.60 44.83 56.81 C 40.60 57.22 36.33 57.05 32.09 56.93 C 30.48 57.05 29.22 54.86 30.35 53.62 C 32.41 51.26 34.30 48.44 37.35 47.27 Z" />
<path fill="#000000" opacity="1.00" d=" M 76.02 65.04 C 77.34 64.95 78.66 64.95 79.98 65.03 C 79.98 65.77 79.98 67.23 79.98 67.96 C 78.66 68.05 77.34 68.05 76.02 67.96 C 76.02 67.23 76.02 65.77 76.02 65.04 Z" />
<path fill="#000000" opacity="1.00" d=" M 61.02 67.06 C 62.67 66.93 64.33 66.93 65.98 67.06 C 65.98 67.78 65.99 69.22 65.99 69.94 C 64.33 70.07 62.67 70.07 61.02 69.94 C 61.02 69.22 61.02 67.78 61.02 67.06 Z" />
</g>
</svg>
