<?xml version="1.0" encoding="UTF-8" ?>
<!DOCTYPE svg PUBLIC "-//W3C//DTD SVG 1.1//EN" "http://www.w3.org/Graphics/SVG/1.1/DTD/svg11.dtd">
<svg width="389pt" height="502pt" viewBox="0 0 389 502" version="1.1" xmlns="http://www.w3.org/2000/svg">
<g id="#ffffffff">
<path fill="#ffffff" opacity="1.00" d=" M 141.60 81.33 C 141.90 81.01 142.50 80.37 142.80 80.05 C 145.37 83.50 148.18 86.77 151.34 89.69 C 155.65 93.63 161.31 95.60 166.82 97.19 C 174.41 99.22 182.23 100.19 190.03 101.08 C 194.05 101.47 198.10 102.09 202.14 101.54 C 205.51 101.18 208.80 100.32 212.17 99.93 C 213.09 103.58 210.00 105.96 208.74 108.95 C 209.04 112.88 211.30 116.26 214.18 118.82 C 217.34 121.67 218.59 125.89 219.60 129.88 C 221.52 138.07 221.80 146.56 221.33 154.94 C 221.05 158.58 220.87 162.28 219.87 165.82 C 218.70 169.86 215.10 172.40 212.24 175.22 C 208.55 178.94 203.60 181.22 200.34 185.40 C 200.33 185.98 200.29 187.15 200.28 187.73 C 204.19 184.38 207.69 179.89 213.02 178.84 C 219.15 177.14 224.71 173.81 230.92 172.33 C 238.22 170.41 246.42 170.18 253.26 173.76 C 260.55 177.86 264.21 186.84 263.04 194.96 C 262.75 196.85 260.86 198.06 259.03 198.02 C 255.14 197.96 251.59 196.14 248.14 194.55 C 242.55 191.86 236.79 189.53 231.14 186.97 C 230.91 185.65 232.87 185.31 233.54 184.40 C 235.73 183.07 235.05 180.24 235.17 178.11 C 239.39 177.52 243.72 177.10 247.96 177.71 C 252.11 178.08 255.41 182.70 253.80 186.68 C 252.97 188.01 255.79 188.56 255.67 186.98 C 257.41 181.92 253.33 176.35 248.15 175.89 C 238.35 174.96 228.48 177.02 219.33 180.44 C 219.21 180.86 218.95 181.70 218.83 182.12 C 223.68 181.68 228.05 178.47 233.03 178.99 C 233.67 180.45 233.71 182.29 232.07 183.08 C 230.49 184.09 229.53 185.83 228.02 186.86 C 223.22 187.08 218.59 188.33 213.96 189.51 C 211.84 187.53 209.44 183.41 206.04 184.94 C 206.74 186.51 208.86 186.75 210.05 187.93 C 213.06 190.33 212.69 194.53 212.98 197.97 C 213.01 202.36 213.74 206.77 213.34 211.15 C 209.77 211.82 206.15 212.20 202.57 212.78 C 196.64 213.60 190.91 215.55 184.95 216.26 C 175.10 217.48 165.22 218.48 155.37 219.78 C 154.91 217.03 155.47 213.78 153.44 211.55 C 151.71 209.27 148.68 208.65 145.97 208.95 C 141.48 209.12 137.87 212.05 133.84 213.66 C 128.08 215.96 122.99 219.58 117.73 222.80 C 116.52 223.29 115.84 224.38 116.46 225.63 C 119.57 224.14 122.30 221.97 125.27 220.24 C 130.47 216.87 136.30 214.71 141.77 211.84 C 145.15 210.37 150.28 209.71 152.52 213.36 C 153.47 215.38 153.64 217.79 153.37 219.99 C 151.89 223.44 148.43 225.33 145.57 227.50 C 138.30 231.95 130.45 235.58 122.06 237.30 C 119.53 237.72 118.69 240.56 116.73 241.88 C 114.79 243.24 112.80 244.54 110.77 245.78 C 108.68 247.04 106.13 246.96 103.91 247.87 C 101.40 250.13 99.32 253.25 95.89 254.16 C 90.05 255.88 84.00 256.81 77.95 257.47 C 74.76 257.73 71.33 257.94 68.37 256.51 C 66.37 255.35 66.23 252.79 65.36 250.88 C 63.01 245.91 64.23 240.32 64.76 235.10 C 67.09 218.67 71.09 202.54 73.69 186.16 C 75.08 179.62 75.24 172.18 79.93 166.94 C 85.68 160.68 91.20 154.19 97.38 148.34 C 98.96 146.73 100.94 145.64 102.93 144.62 C 103.15 142.13 99.75 143.80 98.78 144.72 C 91.14 151.22 84.77 159.04 77.92 166.33 L 77.11 166.21 C 74.86 161.33 75.20 155.81 75.28 150.59 C 78.49 151.48 82.15 151.78 85.20 150.19 C 89.11 147.93 90.86 143.34 91.49 139.08 C 91.87 135.99 92.05 132.50 90.20 129.81 C 88.55 127.36 85.69 126.28 83.26 124.80 C 84.56 121.77 87.07 119.49 89.41 117.27 C 91.79 114.81 95.55 115.81 98.52 116.25 C 101.26 116.57 103.34 118.39 105.60 119.76 C 105.90 118.57 105.52 117.42 104.48 116.75 C 100.92 114.04 96.21 114.14 91.96 113.89 C 91.74 111.06 93.47 108.66 94.04 105.98 C 94.57 103.38 94.75 100.72 95.38 98.14 C 99.79 96.91 104.40 96.52 108.95 96.17 C 113.93 95.73 119.03 97.02 123.91 95.49 C 131.35 93.28 137.47 87.78 141.60 81.33 M 186.18 121.23 C 186.22 121.59 186.31 122.30 186.35 122.66 C 188.67 124.95 192.05 125.46 194.77 127.09 C 198.52 129.65 201.40 133.61 202.30 138.10 C 203.27 142.33 202.16 146.72 200.65 150.68 C 197.99 157.06 193.73 162.74 188.51 167.24 L 188.51 168.55 L 189.83 168.61 C 195.08 164.53 199.14 158.99 201.89 152.95 C 204.17 148.02 205.38 142.37 204.14 137.00 C 203.39 132.83 200.69 129.32 197.56 126.60 C 195.29 124.56 192.18 123.98 189.66 122.36 C 188.55 121.94 187.44 120.37 186.18 121.23 M 174.44 135.63 C 172.06 137.01 170.31 139.34 168.56 141.45 C 165.09 145.89 163.96 152.70 167.42 157.44 C 169.65 158.54 172.18 158.70 174.59 159.17 C 177.70 159.63 181.06 160.51 184.07 159.12 C 187.87 157.20 190.03 153.13 190.90 149.11 C 191.58 145.92 192.00 142.42 190.72 139.32 C 186.61 135.11 179.95 134.17 174.44 135.63 Z" />
<path fill="#ffffff" opacity="1.00" d=" M 120.45 252.62 C 126.35 252.12 132.28 252.29 138.18 252.00 C 138.44 256.01 137.89 260.06 136.97 263.96 C 135.71 265.71 133.53 266.55 131.82 267.82 C 127.12 271.43 120.82 271.15 115.22 270.83 C 116.47 265.90 117.81 261.00 119.02 256.06 C 119.35 254.86 119.62 253.58 120.45 252.62 Z" />
<path fill="#ffffff" opacity="1.00" d=" M 104.19 253.11 C 108.73 253.21 113.28 253.90 117.82 253.17 C 115.62 261.26 113.86 269.47 111.62 277.55 C 106.01 277.12 100.49 278.27 94.92 278.74 C 93.00 279.29 91.95 277.38 91.14 276.03 C 90.59 272.61 91.55 269.17 92.34 265.86 C 92.67 263.99 94.36 262.87 95.55 261.56 C 98.48 258.79 101.14 255.74 104.19 253.11 Z" />
<path fill="#ffffff" opacity="1.00" d=" M 164.13 252.75 C 165.66 252.06 167.38 252.69 168.96 252.87 C 177.97 254.35 185.14 260.51 193.55 263.60 C 194.34 261.97 192.93 260.55 192.64 259.00 C 194.12 257.25 196.46 258.21 198.27 258.79 C 202.00 260.24 205.69 261.89 209.06 264.05 C 208.75 267.19 208.24 270.50 206.40 273.15 C 203.02 278.19 199.20 282.96 196.29 288.31 C 192.19 296.46 186.47 303.67 180.50 310.52 C 177.91 313.26 175.38 316.19 172.02 318.03 C 161.23 324.39 150.01 329.99 139.02 336.00 C 130.61 340.96 122.14 345.82 113.85 350.98 C 104.41 356.97 93.18 360.22 81.98 360.00 C 75.59 359.73 68.64 357.69 64.66 352.34 C 62.08 349.09 61.71 344.31 63.76 340.69 C 65.86 336.66 69.54 333.80 73.24 331.32 C 73.93 330.03 73.76 328.45 73.94 327.04 C 74.15 320.21 75.23 313.29 78.05 307.03 C 78.12 306.36 78.27 305.01 78.34 304.34 C 85.83 305.19 93.45 305.35 100.93 304.41 C 101.99 304.39 102.71 303.50 102.71 302.49 C 94.80 303.39 86.78 303.61 78.87 302.63 C 76.97 302.39 75.60 300.85 74.19 299.71 C 72.51 296.77 75.11 293.33 78.02 292.54 C 81.47 291.96 84.55 294.36 88.00 294.01 C 99.67 294.01 111.33 293.57 122.99 293.77 C 132.61 294.22 141.95 290.77 150.16 286.01 C 152.31 284.70 154.79 283.37 155.66 280.84 C 159.48 271.81 161.81 262.25 164.13 252.75 M 81.86 330.95 C 81.74 333.02 84.01 333.59 85.42 334.42 C 89.93 336.72 95.13 335.86 100.00 335.99 C 101.58 335.91 104.12 336.40 104.14 334.07 C 99.26 333.70 94.33 334.41 89.48 333.71 C 86.75 333.29 84.72 330.74 81.86 330.95 Z" />
<path fill="#ffffff" opacity="1.00" d=" M 134.29 268.38 L 134.89 268.00 C 135.30 275.37 135.84 282.74 136.20 290.12 C 129.79 292.62 122.76 291.97 116.03 291.94 C 116.34 285.57 116.60 279.20 116.85 272.83 C 120.75 272.66 124.74 272.86 128.51 271.68 C 130.60 270.89 132.43 269.59 134.29 268.38 Z" />
<path fill="#ffffff" opacity="1.00" d=" M 114.54 273.02 C 115.36 276.99 114.61 281.04 114.57 285.05 C 114.38 287.33 114.72 289.72 114.04 291.93 C 109.73 292.07 105.41 292.04 101.10 291.95 C 100.73 287.96 100.69 283.94 100.68 279.94 C 104.80 278.99 109.02 279.43 113.18 279.30 C 113.77 277.23 114.07 275.11 114.54 273.02 Z" />
<path fill="#ffffff" opacity="1.00" d=" M 206.31 276.56 L 206.59 276.18 C 206.96 284.46 206.71 292.74 206.25 301.01 C 205.78 306.34 207.59 311.52 209.85 316.26 C 212.51 321.63 215.58 326.90 219.80 331.22 C 221.65 333.08 223.92 334.46 225.75 336.35 C 225.86 337.52 224.89 338.43 224.43 339.43 C 220.08 346.24 215.36 352.97 208.89 357.96 C 205.36 360.58 202.05 365.24 197.07 364.12 C 193.83 361.94 190.74 359.55 187.56 357.29 C 184.76 355.02 181.58 353.03 179.64 349.91 C 181.24 347.74 183.34 345.84 184.16 343.19 C 186.26 337.07 185.69 330.38 184.41 324.14 C 183.72 320.15 181.43 316.54 181.34 312.45 C 187.40 305.43 193.28 298.13 197.57 289.87 C 200.03 285.15 203.28 280.92 206.31 276.56 Z" />
<path fill="#ffffff" opacity="1.00" d=" M 217.31 325.15 C 224.98 325.03 232.13 329.47 236.75 335.37 C 240.27 339.82 242.37 345.88 240.67 351.49 C 238.52 358.16 234.74 364.13 230.98 369.99 C 225.48 378.17 219.53 386.06 212.88 393.34 L 212.07 393.56 C 209.24 384.23 206.07 375.00 202.73 365.85 L 202.91 365.17 C 207.83 361.37 212.68 357.41 217.00 352.93 C 220.95 348.14 224.53 343.00 227.58 337.59 C 228.58 336.18 227.41 334.64 226.37 333.69 C 223.38 330.82 220.31 328.02 217.31 325.15 Z" />
<path fill="#ffffff" opacity="1.00" d=" M 172.17 340.97 L 173.06 340.34 C 175.01 342.49 175.52 345.56 176.80 348.12 C 178.84 353.99 184.54 357.17 189.17 360.79 C 191.30 362.56 194.06 363.75 195.76 365.93 C 192.32 374.02 187.78 381.58 184.16 389.59 C 183.95 389.86 183.53 390.40 183.33 390.67 C 183.03 388.90 183.50 386.97 182.46 385.40 C 179.75 380.92 176.06 377.16 172.91 373.01 C 170.65 370.01 168.08 366.95 167.48 363.12 C 166.65 357.09 167.88 351.05 168.72 345.09 C 168.64 342.96 170.81 342.13 172.17 340.97 Z" />
</g>
<g id="#010101ff">
<path fill="#010101" opacity="1.00" d=" M 129.25 29.69 L 129.96 29.72 C 131.55 31.61 132.72 33.81 134.23 35.77 C 136.12 34.61 136.87 31.85 138.48 30.19 C 139.69 35.40 140.81 40.63 142.14 45.81 L 142.75 45.73 C 144.04 43.52 144.95 41.11 146.29 38.93 C 147.55 39.16 148.74 39.64 149.97 40.00 C 151.22 39.54 151.33 37.93 152.11 37.00 C 153.56 37.27 154.65 38.38 155.94 39.04 C 157.38 38.58 158.18 37.12 159.41 36.29 C 160.05 38.03 161.10 39.58 162.54 40.76 C 162.95 38.60 163.27 36.42 163.77 34.27 C 165.57 36.44 166.69 39.05 168.24 41.39 L 169.11 41.58 C 170.20 40.01 170.83 38.21 171.62 36.49 C 173.23 38.24 174.61 40.21 176.30 41.90 C 178.20 41.96 178.94 39.40 180.30 38.34 C 182.06 38.84 183.00 40.99 184.80 41.32 C 185.53 40.62 186.27 39.92 187.01 39.21 C 188.05 39.79 188.98 40.54 189.97 41.19 C 190.09 39.09 190.15 36.98 190.34 34.88 C 192.32 36.10 193.35 38.30 195.06 39.83 C 195.95 39.61 196.85 39.38 197.75 39.14 C 199.46 41.18 199.89 44.48 202.03 45.93 C 205.24 43.18 206.72 38.51 210.49 36.21 C 210.82 36.18 211.48 36.11 211.81 36.08 C 214.08 38.49 214.01 42.03 214.92 45.03 C 217.47 43.66 218.00 40.06 220.67 38.79 C 222.23 41.94 223.55 45.20 225.12 48.34 L 225.84 48.23 C 228.12 44.54 230.24 40.75 232.59 37.11 C 233.56 42.38 234.28 47.70 234.98 53.02 C 235.30 54.44 235.16 56.77 237.05 57.10 C 238.57 55.78 238.57 51.11 241.45 52.47 C 243.25 55.42 244.15 58.79 245.42 61.98 C 248.20 58.67 250.07 54.74 252.53 51.20 C 252.72 56.81 252.97 62.42 253.05 68.03 C 253.42 74.60 254.54 81.10 255.21 87.64 C 255.19 91.90 253.90 96.04 252.50 100.03 C 252.46 104.05 253.47 107.99 253.91 111.98 C 254.75 117.34 254.02 122.77 253.48 128.12 C 252.11 139.80 249.12 151.63 242.40 161.44 C 240.60 164.20 238.28 166.57 236.42 169.28 C 242.58 169.06 249.13 169.15 254.58 172.43 C 262.39 176.85 265.98 186.54 264.84 195.18 C 264.72 197.39 263.01 199.07 260.92 199.56 C 257.59 200.24 254.22 199.19 251.16 197.96 C 243.97 194.69 236.86 191.21 229.46 188.47 C 229.25 194.40 229.01 200.52 226.20 205.91 C 228.68 205.78 230.36 203.57 232.74 203.03 C 229.89 206.23 226.98 209.39 224.28 212.73 C 229.13 210.77 233.97 208.74 238.96 207.17 C 234.86 211.47 230.13 215.20 225.83 219.33 L 225.54 220.26 C 229.67 221.48 233.88 222.47 237.90 224.03 C 239.17 224.46 240.08 225.46 240.80 226.56 C 236.15 226.57 231.48 226.21 226.88 226.94 C 229.13 230.09 232.95 231.62 235.83 234.13 C 236.24 236.08 232.06 235.52 232.02 237.72 C 233.60 239.17 235.30 240.49 236.82 242.00 C 235.21 243.78 232.34 244.49 231.18 246.51 C 234.07 247.79 237.08 248.78 239.93 250.15 C 241.31 250.21 241.35 252.73 239.98 252.70 C 233.97 254.67 227.52 255.33 221.76 257.99 C 221.14 260.26 222.72 262.64 222.25 265.01 C 221.90 266.72 221.54 268.98 219.97 269.95 C 216.65 269.02 214.16 265.88 210.74 265.35 C 210.19 267.83 209.99 270.44 208.77 272.73 C 207.59 274.66 208.40 276.95 208.41 279.05 C 208.75 286.70 208.33 294.35 207.99 301.99 C 207.64 307.25 209.94 312.18 212.18 316.79 C 213.40 318.84 214.27 321.23 216.02 322.88 C 224.20 322.75 231.84 326.79 237.52 332.45 C 240.02 334.58 241.73 337.53 244.39 339.47 C 252.79 342.46 262.18 339.88 270.46 343.36 C 288.58 349.94 304.60 363.38 312.54 381.14 C 315.35 387.12 316.73 393.61 318.62 399.91 C 319.44 403.29 320.84 406.57 320.96 410.08 C 319.32 410.40 319.13 408.59 318.79 407.52 C 316.82 400.50 315.09 393.42 312.77 386.52 C 305.73 366.82 288.70 351.73 269.21 344.86 C 261.08 341.68 251.96 344.18 243.79 341.18 C 242.79 340.75 242.04 339.95 241.20 339.31 C 243.26 343.58 243.68 348.66 242.02 353.13 C 239.41 360.34 235.34 366.91 231.06 373.24 C 225.79 380.79 220.25 388.20 213.85 394.85 C 212.97 395.65 212.19 396.68 211.02 397.09 C 208.29 386.54 204.61 376.25 200.77 366.06 C 200.45 366.15 199.82 366.32 199.51 366.41 C 199.54 379.65 200.31 392.91 200.15 406.14 C 199.86 406.34 199.26 406.73 198.96 406.93 C 198.13 405.44 198.65 403.60 198.49 401.99 C 198.09 390.02 198.12 378.03 197.57 366.07 C 193.20 377.36 186.06 387.41 182.28 398.95 C 180.84 394.19 183.16 388.44 179.61 384.39 C 177.22 381.15 174.55 378.13 172.11 374.94 C 169.55 371.60 166.59 368.25 165.82 363.98 C 164.70 357.23 166.24 350.47 167.06 343.78 C 164.27 343.52 161.63 344.66 159.10 345.67 C 147.43 350.64 136.66 357.72 127.57 366.57 C 122.39 371.87 117.78 377.86 114.77 384.68 C 112.67 389.51 110.46 394.60 110.81 399.99 C 110.93 402.84 112.27 405.41 113.09 408.09 C 112.64 407.95 111.74 407.67 111.29 407.52 C 107.47 401.52 109.02 393.67 111.60 387.48 C 117.57 371.58 130.63 359.53 144.85 350.88 C 151.76 346.91 158.93 342.73 166.97 341.74 C 170.21 340.81 172.32 337.93 174.83 335.87 C 177.45 333.62 180.53 331.99 183.33 329.98 C 183.60 324.58 180.71 319.70 179.77 314.48 C 177.75 315.85 176.13 317.76 174.00 318.99 C 162.83 325.72 151.09 331.43 139.71 337.76 C 132.97 341.71 126.22 345.62 119.54 349.67 C 115.39 352.15 111.35 354.88 106.88 356.79 C 98.74 360.29 89.83 362.16 80.96 361.71 C 75.12 361.41 69.11 359.52 64.79 355.45 C 60.98 351.81 59.62 345.96 61.54 341.05 C 63.45 336.33 67.48 332.95 71.58 330.17 C 72.61 327.22 72.06 323.98 72.57 320.93 C 73.28 316.14 74.06 311.26 76.18 306.86 C 76.20 303.98 73.79 301.97 72.14 299.90 C 71.42 296.97 72.28 293.64 74.96 292.00 C 77.14 290.13 80.11 290.96 82.71 290.79 C 84.05 287.16 83.93 283.19 83.57 279.40 C 79.08 277.04 74.40 274.97 70.25 272.02 C 70.10 267.53 72.54 263.65 73.88 259.53 C 70.96 259.14 67.42 259.16 65.62 256.38 C 64.23 254.83 64.61 252.12 62.97 250.93 C 61.42 251.79 60.69 253.45 59.77 254.88 C 57.55 253.91 55.66 251.85 52.97 251.95 C 48.36 252.78 45.10 256.52 42.14 259.85 C 42.57 256.53 44.69 253.66 44.87 250.30 C 43.24 250.61 41.66 251.32 39.98 251.25 C 40.34 247.81 41.45 244.48 41.54 241.01 C 37.84 240.92 34.08 241.25 30.43 240.41 C 30.17 239.52 30.37 238.76 31.02 238.13 C 34.05 235.04 37.15 232.01 39.92 228.68 L 39.95 227.98 C 37.99 226.87 35.32 227.64 33.23 226.61 C 33.08 225.58 33.46 224.83 34.38 224.36 C 39.15 221.75 44.68 221.04 50.03 220.66 C 48.72 215.16 44.82 210.83 42.16 205.98 C 50.06 210.36 57.88 214.89 65.60 219.57 C 67.82 207.66 70.33 195.81 72.27 183.85 C 73.10 178.51 74.21 173.21 76.26 168.19 C 73.07 163.04 73.41 156.80 73.56 150.98 C 73.82 149.21 72.01 148.25 71.35 146.82 C 69.76 143.15 70.18 139.02 70.70 135.17 C 71.30 131.53 72.41 127.66 75.25 125.13 C 77.01 123.88 79.24 124.46 81.24 124.24 C 82.78 122.12 83.98 119.71 85.94 117.92 C 87.24 116.54 88.99 115.57 90.03 113.96 C 90.57 108.83 93.35 104.22 93.26 98.96 C 91.00 96.41 88.25 94.23 86.71 91.11 C 82.08 83.22 82.41 73.73 83.16 64.94 C 83.28 56.88 84.83 48.88 87.55 41.30 C 89.18 41.47 89.11 44.87 90.74 44.71 C 92.36 41.47 94.08 38.26 96.36 35.42 C 97.31 36.90 97.59 38.97 99.07 40.01 C 100.36 39.79 101.61 39.38 102.89 39.07 C 102.27 42.33 100.81 45.52 101.09 48.88 C 102.81 50.35 105.20 49.07 106.79 48.01 C 109.50 45.58 110.75 42.04 112.13 38.77 C 113.41 38.74 114.20 40.04 115.30 40.53 C 116.54 40.27 117.66 39.43 118.98 39.60 C 121.26 40.93 122.73 43.23 124.83 44.78 C 126.48 39.81 127.75 34.71 129.25 29.69 M 129.78 34.54 C 128.32 39.08 127.18 43.73 125.79 48.29 C 122.84 46.61 121.33 43.03 118.22 41.67 C 116.59 43.05 114.77 42.85 113.09 41.69 C 111.20 45.27 109.35 49.72 105.08 50.93 C 103.22 51.75 100.68 51.37 99.48 49.64 C 98.79 47.36 99.73 45.03 100.00 42.76 C 97.81 42.72 97.10 40.77 96.16 39.16 C 93.69 41.89 92.75 45.54 90.90 48.64 C 89.25 49.17 89.76 45.42 87.99 45.91 C 86.47 51.13 85.29 56.49 85.08 61.95 C 84.79 68.98 83.73 76.16 85.47 83.09 C 86.72 88.28 89.54 93.26 93.87 96.48 C 98.88 95.63 103.87 94.55 108.96 94.38 C 114.01 93.88 119.25 95.41 124.12 93.49 C 133.22 90.38 139.66 82.50 143.55 73.99 C 143.36 79.20 147.44 82.84 150.60 86.43 C 154.67 90.87 160.30 93.41 166.00 95.04 C 175.42 97.72 185.21 98.82 194.94 99.79 C 200.68 100.54 206.35 99.00 211.97 97.99 C 213.14 97.83 213.97 96.90 214.94 96.32 C 214.42 99.07 214.07 101.86 213.45 104.60 C 212.71 106.15 211.59 107.49 210.78 109.00 C 210.72 113.85 215.14 116.74 217.77 120.23 C 220.32 124.23 221.39 128.96 222.22 133.57 C 223.64 143.01 223.58 152.64 222.49 162.11 C 222.09 165.05 221.43 168.10 219.55 170.48 C 218.15 172.37 216.17 173.81 215.04 175.91 C 219.41 174.55 223.55 172.54 227.92 171.16 C 229.90 170.43 232.01 170.01 233.87 168.97 C 235.90 166.98 237.60 164.67 239.39 162.46 C 246.80 152.84 250.11 140.75 251.54 128.86 C 252.17 123.27 253.03 117.59 252.08 111.98 C 251.57 108.00 250.65 104.03 250.78 100.00 C 251.91 95.77 253.54 91.54 253.37 87.09 C 252.55 79.74 251.19 72.41 251.24 64.99 C 251.23 62.57 251.15 60.14 250.84 57.74 C 248.69 60.13 247.46 63.16 245.51 65.71 L 244.97 65.75 C 243.35 62.36 242.56 58.56 240.82 55.19 L 240.14 55.17 C 239.36 56.85 238.92 58.69 237.94 60.27 C 236.12 59.63 234.57 58.22 233.72 56.50 C 232.90 52.12 232.56 47.66 231.89 43.26 L 230.88 43.61 C 228.93 46.22 227.61 49.25 225.67 51.87 L 224.97 52.02 C 222.92 48.94 222.05 45.25 220.03 42.16 C 217.97 44.30 216.56 46.94 214.77 49.28 L 213.88 49.45 C 213.03 45.78 212.82 41.90 211.19 38.45 C 206.96 41.05 205.18 46.20 201.93 49.83 C 199.71 47.44 198.85 44.15 196.84 41.60 C 194.73 42.27 193.20 41.25 191.90 39.62 C 191.73 41.38 191.65 43.15 191.47 44.91 C 190.11 44.22 189.04 43.10 187.84 42.18 C 186.41 41.82 185.68 43.77 184.30 43.82 C 183.19 42.92 182.17 41.91 181.03 41.06 C 178.93 41.44 178.56 44.95 176.31 44.93 C 174.72 43.60 173.95 41.05 171.91 40.48 C 170.69 41.92 170.56 44.77 168.32 44.96 C 167.07 42.98 166.03 40.86 164.44 39.13 C 164.15 41.02 163.92 42.92 163.59 44.80 C 161.91 43.34 160.69 41.45 159.04 39.96 C 158.46 40.31 157.30 41.01 156.72 41.37 C 155.33 41.72 154.30 40.20 153.07 39.77 C 152.40 40.70 151.72 41.63 151.04 42.55 C 149.77 42.15 148.54 41.62 147.27 41.20 C 145.36 44.14 144.12 47.45 142.29 50.44 C 142.09 50.57 141.68 50.84 141.48 50.97 C 140.16 45.66 139.06 40.30 137.69 35.01 C 136.60 36.22 135.75 37.63 134.81 38.96 C 132.50 38.53 132.26 34.27 129.98 34.13 L 129.78 34.54 M 141.60 81.33 C 137.47 87.78 131.35 93.28 123.91 95.49 C 119.03 97.02 113.93 95.73 108.95 96.17 C 104.40 96.52 99.79 96.91 95.38 98.14 C 94.75 100.72 94.57 103.38 94.04 105.98 C 93.47 108.66 91.74 111.06 91.96 113.89 C 96.21 114.14 100.92 114.04 104.48 116.75 C 105.52 117.42 105.90 118.57 105.60 119.76 C 103.34 118.39 101.26 116.57 98.52 116.25 C 95.55 115.81 91.79 114.81 89.41 117.27 C 87.07 119.49 84.56 121.77 83.26 124.80 C 85.69 126.28 88.55 127.36 90.20 129.81 C 92.05 132.50 91.87 135.99 91.49 139.08 C 90.86 143.34 89.11 147.93 85.20 150.19 C 82.15 151.78 78.49 151.48 75.28 150.59 C 75.20 155.81 74.86 161.33 77.11 166.21 L 77.92 166.33 C 84.77 159.04 91.14 151.22 98.78 144.72 C 99.75 143.80 103.15 142.13 102.93 144.62 C 100.94 145.64 98.96 146.73 97.38 148.34 C 91.20 154.19 85.68 160.68 79.93 166.94 C 75.24 172.18 75.08 179.62 73.69 186.16 C 71.09 202.54 67.09 218.67 64.76 235.10 C 64.23 240.32 63.01 245.91 65.36 250.88 C 66.23 252.79 66.37 255.35 68.37 256.51 C 71.33 257.94 74.76 257.73 77.95 257.47 C 84.00 256.81 90.05 255.88 95.89 254.16 C 99.32 253.25 101.40 250.13 103.91 247.87 C 106.13 246.96 108.68 247.04 110.77 245.78 C 112.80 244.54 114.79 243.24 116.73 241.88 C 118.69 240.56 119.53 237.72 122.06 237.30 C 130.45 235.58 138.30 231.95 145.57 227.50 C 148.43 225.33 151.89 223.44 153.37 219.99 C 153.64 217.79 153.47 215.38 152.52 213.36 C 150.28 209.71 145.15 210.37 141.77 211.84 C 136.30 214.71 130.47 216.87 125.27 220.24 C 122.30 221.97 119.57 224.14 116.46 225.63 C 115.84 224.38 116.52 223.29 117.73 222.80 C 122.99 219.58 128.08 215.96 133.84 213.66 C 137.87 212.05 141.48 209.12 145.97 208.95 C 148.68 208.65 151.71 209.27 153.44 211.55 C 155.47 213.78 154.91 217.03 155.37 219.78 C 165.22 218.48 175.10 217.48 184.95 216.26 C 190.91 215.55 196.64 213.60 202.57 212.78 C 206.15 212.20 209.77 211.82 213.34 211.15 C 213.74 206.77 213.01 202.36 212.98 197.97 C 212.69 194.53 213.06 190.33 210.05 187.93 C 208.86 186.75 206.74 186.51 206.04 184.94 C 209.44 183.41 211.84 187.53 213.96 189.51 C 218.59 188.33 223.22 187.08 228.02 186.86 C 229.53 185.83 230.49 184.09 232.07 183.08 C 233.71 182.29 233.67 180.45 233.03 178.99 C 228.05 178.47 223.68 181.68 218.83 182.12 C 218.95 181.70 219.21 180.86 219.33 180.44 C 228.48 177.02 238.35 174.96 248.15 175.89 C 253.33 176.35 257.41 181.92 255.67 186.98 C 255.79 188.56 252.97 188.01 253.80 186.68 C 255.41 182.70 252.11 178.08 247.96 177.71 C 243.72 177.10 239.39 177.52 235.17 178.11 C 235.05 180.24 235.73 183.07 233.54 184.40 C 232.87 185.31 230.91 185.65 231.14 186.97 C 236.79 189.53 242.55 191.86 248.14 194.55 C 251.59 196.14 255.14 197.96 259.03 198.02 C 260.86 198.06 262.75 196.85 263.04 194.96 C 264.21 186.84 260.55 177.86 253.26 173.76 C 246.42 170.18 238.22 170.41 230.92 172.33 C 224.71 173.81 219.15 177.14 213.02 178.84 C 207.69 179.89 204.19 184.38 200.28 187.73 C 200.29 187.15 200.33 185.98 200.34 185.40 C 203.60 181.22 208.55 178.94 212.24 175.22 C 215.10 172.40 218.70 169.86 219.87 165.82 C 220.87 162.28 221.05 158.58 221.33 154.94 C 221.80 146.56 221.52 138.07 219.60 129.88 C 218.59 125.89 217.34 121.67 214.18 118.82 C 211.30 116.26 209.04 112.88 208.74 108.95 C 210.00 105.96 213.09 103.58 212.17 99.93 C 208.80 100.32 205.51 101.18 202.14 101.54 C 198.10 102.09 194.05 101.47 190.03 101.08 C 182.23 100.19 174.41 99.22 166.82 97.19 C 161.31 95.60 155.65 93.63 151.34 89.69 C 148.18 86.77 145.37 83.50 142.80 80.05 C 142.50 80.37 141.90 81.01 141.60 81.33 M 77.10 126.25 C 74.63 127.54 73.72 130.53 72.98 133.03 C 72.03 137.24 71.34 141.85 72.96 145.98 C 74.95 149.79 80.18 150.28 83.81 148.85 C 87.37 146.96 89.10 142.95 89.65 139.13 C 90.13 136.07 90.45 132.27 87.91 129.99 C 85.04 127.43 81.01 125.33 77.10 126.25 M 223.13 189.19 C 220.19 189.86 217.03 190.26 214.51 192.01 C 214.65 198.31 215.13 204.60 215.34 210.90 C 218.43 210.31 221.97 209.51 223.63 206.53 C 226.89 201.30 227.92 194.88 227.37 188.81 C 225.94 188.79 224.53 188.92 223.13 189.19 M 222.56 210.53 C 216.43 213.24 209.64 213.40 203.14 214.52 C 197.35 215.30 191.78 217.23 185.98 217.94 C 176.82 219.13 167.61 219.98 158.44 221.22 C 156.91 221.56 155.02 221.39 153.99 222.81 C 150.70 226.29 146.99 229.50 142.60 231.50 C 138.84 233.28 135.22 235.34 131.53 237.28 C 128.67 238.98 125.18 238.12 122.12 239.13 C 120.23 240.08 119.73 242.51 117.88 243.54 C 114.39 245.54 111.21 248.42 107.06 248.89 C 105.95 249.23 103.96 249.29 103.99 250.91 C 109.93 252.48 116.06 251.43 122.04 250.73 C 133.34 250.26 144.66 250.11 155.97 250.30 C 161.01 250.62 166.13 250.32 171.09 251.45 C 176.87 252.77 182.00 255.85 187.17 258.62 C 188.27 259.07 189.33 259.99 190.60 259.80 C 191.29 258.85 191.49 257.48 192.45 256.76 C 195.12 255.55 198.01 256.71 200.55 257.69 C 206.99 260.37 212.96 264.04 219.02 267.47 C 220.94 267.26 220.25 264.44 220.50 263.06 C 220.32 261.09 218.98 259.03 220.12 257.13 C 220.72 256.05 222.06 255.81 223.10 255.36 C 227.96 253.79 232.98 252.77 237.92 251.48 C 234.55 249.46 230.66 248.60 227.18 246.80 C 229.05 244.80 231.74 243.76 233.73 241.87 C 232.11 240.02 230.09 238.62 228.30 236.95 C 229.02 235.68 231.09 235.52 232.28 234.64 C 230.37 231.41 226.13 230.31 224.11 227.04 C 224.25 226.72 224.54 226.07 224.68 225.74 C 227.60 224.57 230.85 224.90 233.93 224.62 C 230.01 223.20 225.91 222.42 221.95 221.14 L 222.18 220.26 C 224.87 217.35 228.13 215.02 230.85 212.13 C 226.61 213.61 222.50 215.45 218.23 216.85 C 220.09 214.55 222.18 212.44 223.92 210.04 C 223.58 210.17 222.90 210.41 222.56 210.53 M 48.03 211.30 C 49.11 214.99 52.86 218.48 51.54 222.46 C 46.59 222.66 41.19 222.83 36.91 225.59 C 38.78 226.03 42.20 225.29 42.48 227.96 C 40.20 232.32 35.96 235.14 32.95 238.94 C 36.53 239.51 40.16 239.10 43.76 239.29 C 43.44 242.52 42.67 245.69 42.20 248.91 C 44.14 248.64 46.06 248.29 48.00 247.97 C 47.58 249.49 47.05 250.98 46.59 252.50 C 48.98 251.48 51.35 249.82 54.08 250.26 C 55.73 250.62 57.26 251.33 58.87 251.80 C 60.10 251.00 61.23 250.05 62.31 249.06 C 62.48 245.68 61.98 242.27 62.52 238.89 C 62.98 232.95 64.56 227.12 64.91 221.20 C 59.30 217.88 53.58 214.73 48.03 211.30 M 120.45 252.62 C 119.62 253.58 119.35 254.86 119.02 256.06 C 117.81 261.00 116.47 265.90 115.22 270.83 C 120.82 271.15 127.12 271.43 131.82 267.82 C 133.53 266.55 135.71 265.71 136.97 263.96 C 137.89 260.06 138.44 256.01 138.18 252.00 C 132.28 252.29 126.35 252.12 120.45 252.62 M 140.08 252.05 C 140.22 256.31 139.19 260.48 139.07 264.72 C 145.80 265.68 153.14 266.86 159.42 263.53 C 160.70 259.87 161.40 256.03 162.45 252.31 C 155.00 251.96 147.53 251.91 140.08 252.05 M 104.19 253.11 C 101.14 255.74 98.48 258.79 95.55 261.56 C 94.36 262.87 92.67 263.99 92.34 265.86 C 91.55 269.17 90.59 272.61 91.14 276.03 C 91.95 277.38 93.00 279.29 94.92 278.74 C 100.49 278.27 106.01 277.12 111.62 277.55 C 113.86 269.47 115.62 261.26 117.82 253.17 C 113.28 253.90 108.73 253.21 104.19 253.11 M 164.13 252.75 C 161.81 262.25 159.48 271.81 155.66 280.84 C 154.79 283.37 152.31 284.70 150.16 286.01 C 141.95 290.77 132.61 294.22 122.99 293.77 C 111.33 293.57 99.67 294.01 88.00 294.01 C 84.55 294.36 81.47 291.96 78.02 292.54 C 75.11 293.33 72.51 296.77 74.19 299.71 C 75.60 300.85 76.97 302.39 78.87 302.63 C 86.78 303.61 94.80 303.39 102.71 302.49 C 102.71 303.50 101.99 304.39 100.93 304.41 C 93.45 305.35 85.83 305.19 78.34 304.34 C 78.27 305.01 78.12 306.36 78.05 307.03 C 75.23 313.29 74.15 320.21 73.94 327.04 C 73.76 328.45 73.93 330.03 73.24 331.32 C 69.54 333.80 65.86 336.66 63.76 340.69 C 61.71 344.31 62.08 349.09 64.66 352.34 C 68.64 357.69 75.59 359.73 81.98 360.00 C 93.18 360.22 104.41 356.97 113.85 350.98 C 122.14 345.82 130.61 340.96 139.02 336.00 C 150.01 329.99 161.23 324.39 172.02 318.03 C 175.38 316.19 177.91 313.26 180.50 310.52 C 186.47 303.67 192.19 296.46 196.29 288.31 C 199.20 282.96 203.02 278.19 206.40 273.15 C 208.24 270.50 208.75 267.19 209.06 264.05 C 205.69 261.89 202.00 260.24 198.27 258.79 C 196.46 258.21 194.12 257.25 192.64 259.00 C 192.93 260.55 194.34 261.97 193.55 263.60 C 185.14 260.51 177.97 254.35 168.96 252.87 C 167.38 252.69 165.66 252.06 164.13 252.75 M 95.19 256.17 C 93.38 256.73 91.40 256.88 89.76 257.87 C 90.47 259.30 91.27 260.68 92.19 262.00 C 94.85 260.39 96.86 257.73 98.87 255.37 C 97.95 255.57 96.11 255.97 95.19 256.17 M 86.17 258.18 C 82.91 258.68 79.62 259.02 76.34 259.46 C 74.41 263.05 72.41 266.91 72.16 271.03 C 75.77 273.48 79.73 275.40 83.67 277.29 C 85.28 278.20 87.23 277.70 88.74 276.81 C 89.43 274.22 89.14 271.47 89.77 268.87 C 90.06 266.40 91.56 263.59 89.68 261.39 C 88.70 260.20 88.20 257.63 86.17 258.18 M 156.49 266.57 C 150.04 268.73 143.27 266.48 136.75 266.60 C 136.84 274.17 137.50 281.73 138.03 289.29 C 141.19 289.04 143.93 287.01 146.78 285.73 C 149.40 284.09 152.93 283.05 154.06 279.87 C 155.99 275.39 157.49 270.74 158.84 266.06 C 158.25 266.19 157.07 266.44 156.49 266.57 M 134.29 268.38 C 132.43 269.59 130.60 270.89 128.51 271.68 C 124.74 272.86 120.75 272.66 116.85 272.83 C 116.60 279.20 116.34 285.57 116.03 291.94 C 122.76 291.97 129.79 292.62 136.20 290.12 C 135.84 282.74 135.30 275.37 134.89 268.00 L 134.29 268.38 M 114.54 273.02 C 114.07 275.11 113.77 277.23 113.18 279.30 C 109.02 279.43 104.80 278.99 100.68 279.94 C 100.69 283.94 100.73 287.96 101.10 291.95 C 105.41 292.04 109.73 292.07 114.04 291.93 C 114.72 289.72 114.38 287.33 114.57 285.05 C 114.61 281.04 115.36 276.99 114.54 273.02 M 206.31 276.56 C 203.28 280.92 200.03 285.15 197.57 289.87 C 193.28 298.13 187.40 305.43 181.34 312.45 C 181.43 316.54 183.72 320.15 184.41 324.14 C 185.69 330.38 186.26 337.07 184.16 343.19 C 183.34 345.84 181.24 347.74 179.64 349.91 C 181.58 353.03 184.76 355.02 187.56 357.29 C 190.74 359.55 193.83 361.94 197.07 364.12 C 202.05 365.24 205.36 360.58 208.89 357.96 C 215.36 352.97 220.08 346.24 224.43 339.43 C 224.89 338.43 225.86 337.52 225.75 336.35 C 223.92 334.46 221.65 333.08 219.80 331.22 C 215.58 326.90 212.51 321.63 209.85 316.26 C 207.59 311.52 205.78 306.34 206.25 301.01 C 206.71 292.74 206.96 284.46 206.59 276.18 L 206.31 276.56 M 89.55 278.53 C 88.19 278.86 86.85 279.24 85.55 279.75 C 85.37 282.14 85.62 284.55 85.47 286.94 C 85.43 288.66 84.37 290.30 84.74 292.02 C 89.54 292.44 94.38 292.27 99.18 292.16 C 98.97 288.20 99.38 284.13 98.54 280.25 C 96.72 280.29 94.90 280.59 93.08 280.46 C 91.66 280.36 91.01 278.14 89.55 278.53 M 217.31 325.15 C 220.31 328.02 223.38 330.82 226.37 333.69 C 227.41 334.64 228.58 336.18 227.58 337.59 C 224.53 343.00 220.95 348.14 217.00 352.93 C 212.68 357.41 207.83 361.37 202.91 365.17 L 202.73 365.85 C 206.07 375.00 209.24 384.23 212.07 393.56 L 212.88 393.34 C 219.53 386.06 225.48 378.17 230.98 369.99 C 234.74 364.13 238.52 358.16 240.67 351.49 C 242.37 345.88 240.27 339.82 236.75 335.37 C 232.13 329.47 224.98 325.03 217.31 325.15 M 182.30 332.97 C 179.76 334.53 177.22 336.15 174.99 338.14 L 174.80 338.96 C 176.25 341.86 177.25 344.99 178.91 347.78 C 183.18 343.86 184.09 337.66 183.69 332.15 L 182.30 332.97 M 172.17 340.97 C 170.81 342.13 168.64 342.96 168.72 345.09 C 167.88 351.05 166.65 357.09 167.48 363.12 C 168.08 366.95 170.65 370.01 172.91 373.01 C 176.06 377.16 179.75 380.92 182.46 385.40 C 183.50 386.97 183.03 388.90 183.33 390.67 C 183.53 390.40 183.95 389.86 184.16 389.59 C 187.78 381.58 192.32 374.02 195.76 365.93 C 194.06 363.75 191.30 362.56 189.17 360.79 C 184.54 357.17 178.84 353.99 176.80 348.12 C 175.52 345.56 175.01 342.49 173.06 340.34 L 172.17 340.97 Z" />
<path fill="#010101" opacity="1.00" d=" M 80.30 136.31 C 82.29 134.76 86.36 136.20 85.93 139.03 C 85.89 142.19 81.22 142.75 79.56 140.60 C 78.35 139.34 79.02 137.25 80.30 136.31 Z" />
<path fill="#010101" opacity="1.00" d=" M 173.20 145.30 C 174.36 144.65 175.61 144.50 176.95 144.87 C 178.75 146.14 178.43 148.77 177.44 150.47 C 176.15 150.85 174.75 150.92 173.47 150.50 C 172.26 149.05 172.05 146.84 173.20 145.30 Z" />
</g>
<g id="#d0d1d3ff">
<path fill="#d0d1d3" opacity="1.00" d=" M 129.78 34.54 L 129.98 34.13 C 132.26 34.27 132.50 38.53 134.81 38.96 C 135.75 37.63 136.60 36.22 137.69 35.01 C 139.06 40.30 140.16 45.66 141.48 50.97 C 141.68 50.84 142.09 50.57 142.29 50.44 C 144.12 47.45 145.36 44.14 147.27 41.20 C 148.54 41.62 149.77 42.15 151.04 42.55 C 151.72 41.63 152.40 40.70 153.07 39.77 C 154.30 40.20 155.33 41.72 156.72 41.37 C 157.30 41.01 158.46 40.31 159.04 39.96 C 160.69 41.45 161.91 43.34 163.59 44.80 C 163.92 42.92 164.15 41.02 164.44 39.13 C 166.03 40.86 167.07 42.98 168.32 44.96 C 170.56 44.77 170.69 41.92 171.91 40.48 C 173.95 41.05 174.72 43.60 176.31 44.93 C 178.56 44.95 178.93 41.44 181.03 41.06 C 182.17 41.91 183.19 42.92 184.30 43.82 C 185.68 43.77 186.41 41.82 187.84 42.18 C 189.04 43.10 190.11 44.22 191.47 44.91 C 191.65 43.15 191.73 41.38 191.90 39.62 C 193.20 41.25 194.73 42.27 196.84 41.60 C 198.85 44.15 199.71 47.44 201.93 49.83 C 205.18 46.20 206.96 41.05 211.19 38.45 C 212.82 41.90 213.03 45.78 213.88 49.45 L 214.77 49.28 C 216.56 46.94 217.97 44.30 220.03 42.16 C 222.05 45.25 222.92 48.94 224.97 52.02 L 225.67 51.87 C 227.61 49.25 228.93 46.22 230.88 43.61 L 231.89 43.26 C 232.56 47.66 232.90 52.12 233.72 56.50 C 234.57 58.22 236.12 59.63 237.94 60.27 C 238.92 58.69 239.36 56.85 240.14 55.17 L 240.82 55.19 C 242.56 58.56 243.35 62.36 244.97 65.75 L 245.51 65.71 C 247.46 63.16 248.69 60.13 250.84 57.74 C 251.15 60.14 251.23 62.57 251.24 64.99 C 251.19 72.41 252.55 79.74 253.37 87.09 C 253.54 91.54 251.91 95.77 250.78 100.00 C 250.65 104.03 251.57 108.00 252.08 111.98 C 253.03 117.59 252.17 123.27 251.54 128.86 C 250.11 140.75 246.80 152.84 239.39 162.46 C 237.60 164.67 235.90 166.98 233.87 168.97 C 232.01 170.01 229.90 170.43 227.92 171.16 C 223.55 172.54 219.41 174.55 215.04 175.91 C 216.17 173.81 218.15 172.37 219.55 170.48 C 221.43 168.10 222.09 165.05 222.49 162.11 C 223.58 152.64 223.64 143.01 222.22 133.57 C 221.39 128.96 220.32 124.23 217.77 120.23 C 215.14 116.74 210.72 113.85 210.78 109.00 C 211.59 107.49 212.71 106.15 213.45 104.60 C 214.07 101.86 214.42 99.07 214.94 96.32 C 213.97 96.90 213.14 97.83 211.97 97.99 C 206.35 99.00 200.68 100.54 194.94 99.79 C 185.21 98.82 175.42 97.72 166.00 95.04 C 160.30 93.41 154.67 90.87 150.60 86.43 C 147.44 82.84 143.36 79.20 143.55 73.99 C 139.66 82.50 133.22 90.38 124.12 93.49 C 119.25 95.41 114.01 93.88 108.96 94.38 C 103.87 94.55 98.88 95.63 93.87 96.48 C 89.54 93.26 86.72 88.28 85.47 83.09 C 83.73 76.16 84.79 68.98 85.08 61.95 C 85.29 56.49 86.47 51.13 87.99 45.91 C 89.76 45.42 89.25 49.17 90.90 48.64 C 92.75 45.54 93.69 41.89 96.16 39.16 C 97.10 40.77 97.81 42.72 100.00 42.76 C 99.73 45.03 98.79 47.36 99.48 49.64 C 100.68 51.37 103.22 51.75 105.08 50.93 C 109.35 49.72 111.20 45.27 113.09 41.69 C 114.77 42.85 116.59 43.05 118.22 41.67 C 121.33 43.03 122.84 46.61 125.79 48.29 C 127.18 43.73 128.32 39.08 129.78 34.54 Z" />
<path fill="#d0d1d3" opacity="1.00" d=" M 223.13 189.19 C 224.53 188.92 225.94 188.79 227.37 188.81 C 227.92 194.88 226.89 201.30 223.63 206.53 C 221.97 209.51 218.43 210.31 215.34 210.90 C 215.13 204.60 214.65 198.31 214.51 192.01 C 217.03 190.26 220.19 189.86 223.13 189.19 Z" />
</g>
<g id="#383838ff">
<path fill="#383838" opacity="1.00" d=" M 186.18 121.23 C 187.44 120.37 188.55 121.94 189.66 122.36 C 192.18 123.98 195.29 124.56 197.56 126.60 C 200.69 129.32 203.39 132.83 204.14 137.00 C 205.38 142.37 204.17 148.02 201.89 152.95 C 199.14 158.99 195.08 164.53 189.83 168.61 L 188.51 168.55 L 188.51 167.24 C 193.73 162.74 197.99 157.06 200.65 150.68 C 202.16 146.72 203.27 142.33 202.30 138.10 C 201.40 133.61 198.52 129.65 194.77 127.09 C 192.05 125.46 188.67 124.95 186.35 122.66 C 186.31 122.30 186.22 121.59 186.18 121.23 Z" />
</g>
<g id="#fefefeff">
<path fill="#fefefe" opacity="1.00" d=" M 77.10 126.25 C 81.01 125.33 85.04 127.43 87.91 129.99 C 90.45 132.27 90.13 136.07 89.65 139.13 C 89.10 142.95 87.37 146.96 83.81 148.85 C 80.18 150.28 74.95 149.79 72.96 145.98 C 71.34 141.85 72.03 137.24 72.98 133.03 C 73.72 130.53 74.63 127.54 77.10 126.25 M 80.30 136.31 C 79.02 137.25 78.35 139.34 79.56 140.60 C 81.22 142.75 85.89 142.19 85.93 139.03 C 86.36 136.20 82.29 134.76 80.30 136.31 Z" />
<path fill="#fefefe" opacity="1.00" d=" M 176.08 137.04 C 180.56 136.20 185.55 137.20 189.05 140.21 C 190.43 143.25 189.58 146.72 188.84 149.82 C 187.84 152.83 186.26 156.11 183.17 157.42 C 181.21 158.49 178.94 157.99 176.85 157.74 C 174.01 157.20 171.04 156.99 168.37 155.79 C 167.54 153.61 166.73 151.22 167.24 148.87 C 168.14 144.25 171.30 140.42 174.83 137.48 C 175.14 137.37 175.77 137.15 176.08 137.04 M 173.20 145.30 C 172.05 146.84 172.26 149.05 173.47 150.50 C 174.75 150.92 176.15 150.85 177.44 150.47 C 178.43 148.77 178.75 146.14 176.95 144.87 C 175.61 144.50 174.36 144.65 173.20 145.30 Z" />
<path fill="#fefefe" opacity="1.00" d=" M 86.17 258.18 C 88.20 257.63 88.70 260.20 89.68 261.39 C 91.56 263.59 90.06 266.40 89.77 268.87 C 89.14 271.47 89.43 274.22 88.74 276.81 C 87.23 277.70 85.28 278.20 83.67 277.29 C 79.73 275.40 75.77 273.48 72.16 271.03 C 72.41 266.91 74.41 263.05 76.34 259.46 C 79.62 259.02 82.91 258.68 86.17 258.18 Z" />
<path fill="#fefefe" opacity="1.00" d=" M 156.49 266.57 C 157.07 266.44 158.25 266.19 158.84 266.06 C 157.49 270.74 155.99 275.39 154.06 279.87 C 152.93 283.05 149.40 284.09 146.78 285.73 C 143.93 287.01 141.19 289.04 138.03 289.29 C 137.50 281.73 136.84 274.17 136.75 266.60 C 143.27 266.48 150.04 268.73 156.49 266.57 Z" />
<path fill="#fefefe" opacity="1.00" d=" M 89.55 278.53 C 91.01 278.14 91.66 280.36 93.08 280.46 C 94.90 280.59 96.72 280.29 98.54 280.25 C 99.38 284.13 98.97 288.20 99.18 292.16 C 94.38 292.27 89.54 292.44 84.74 292.02 C 84.37 290.30 85.43 288.66 85.47 286.94 C 85.62 284.55 85.37 282.14 85.55 279.75 C 86.85 279.24 88.19 278.86 89.55 278.53 Z" />
<path fill="#fefefe" opacity="1.00" d=" M 182.30 332.97 L 183.69 332.15 C 184.09 337.66 183.18 343.86 178.91 347.78 C 177.25 344.99 176.25 341.86 174.80 338.96 L 174.99 338.14 C 177.22 336.15 179.76 334.53 182.30 332.97 Z" />
</g>
<g id="#020202ff">
<path fill="#020202" opacity="1.00" d=" M 174.44 135.63 C 179.95 134.17 186.61 135.11 190.72 139.32 C 192.00 142.42 191.58 145.92 190.90 149.11 C 190.03 153.13 187.87 157.20 184.07 159.12 C 181.06 160.51 177.70 159.63 174.59 159.17 C 172.18 158.70 169.65 158.54 167.42 157.44 C 163.96 152.70 165.09 145.89 168.56 141.45 C 170.31 139.34 172.06 137.01 174.44 135.63 M 176.08 137.04 C 175.77 137.15 175.14 137.37 174.83 137.48 C 171.30 140.42 168.14 144.25 167.24 148.87 C 166.73 151.22 167.54 153.61 168.37 155.79 C 171.04 156.99 174.01 157.20 176.85 157.74 C 178.94 157.99 181.21 158.49 183.17 157.42 C 186.26 156.11 187.84 152.83 188.84 149.82 C 189.58 146.72 190.43 143.25 189.05 140.21 C 185.55 137.20 180.56 136.20 176.08 137.04 Z" />
</g>
<g id="#e6e7e9ff">
<path fill="#e6e7e9" opacity="1.00" d=" M 222.56 210.53 C 222.90 210.41 223.58 210.17 223.92 210.04 C 222.18 212.44 220.09 214.55 218.23 216.85 C 222.50 215.45 226.61 213.61 230.85 212.13 C 228.13 215.02 224.87 217.35 222.18 220.26 L 221.95 221.14 C 225.91 222.42 230.01 223.20 233.93 224.62 C 230.85 224.90 227.60 224.57 224.68 225.74 C 224.54 226.07 224.25 226.72 224.11 227.04 C 226.13 230.31 230.37 231.41 232.28 234.64 C 231.09 235.52 229.02 235.68 228.30 236.95 C 230.09 238.62 232.11 240.02 233.73 241.87 C 231.74 243.76 229.05 244.80 227.18 246.80 C 230.66 248.60 234.55 249.46 237.92 251.48 C 232.98 252.77 227.96 253.79 223.10 255.36 C 222.06 255.81 220.72 256.05 220.12 257.13 C 218.98 259.03 220.32 261.09 220.50 263.06 C 220.25 264.44 220.94 267.26 219.02 267.47 C 212.96 264.04 206.99 260.37 200.55 257.69 C 198.01 256.71 195.12 255.55 192.45 256.76 C 191.49 257.48 191.29 258.85 190.60 259.80 C 189.33 259.99 188.27 259.07 187.17 258.62 C 182.00 255.85 176.87 252.77 171.09 251.45 C 166.13 250.32 161.01 250.62 155.97 250.30 C 144.66 250.11 133.34 250.26 122.04 250.73 C 116.06 251.43 109.93 252.48 103.99 250.91 C 103.96 249.29 105.95 249.23 107.06 248.89 C 111.21 248.42 114.39 245.54 117.88 243.54 C 119.73 242.51 120.23 240.08 122.12 239.13 C 125.18 238.12 128.67 238.98 131.53 237.28 C 135.22 235.34 138.84 233.28 142.60 231.50 C 146.99 229.50 150.70 226.29 153.99 222.81 C 155.02 221.39 156.91 221.56 158.44 221.22 C 167.61 219.98 176.82 219.13 185.98 217.94 C 191.78 217.23 197.35 215.30 203.14 214.52 C 209.64 213.40 216.43 213.24 222.56 210.53 Z" />
<path fill="#e6e7e9" opacity="1.00" d=" M 48.03 211.30 C 53.58 214.73 59.30 217.88 64.91 221.20 C 64.56 227.12 62.98 232.95 62.52 238.89 C 61.98 242.27 62.48 245.68 62.31 249.06 C 61.23 250.05 60.10 251.00 58.87 251.80 C 57.26 251.33 55.73 250.62 54.08 250.26 C 51.35 249.82 48.98 251.48 46.59 252.50 C 47.05 250.98 47.58 249.49 48.00 247.97 C 46.06 248.29 44.14 248.64 42.20 248.91 C 42.67 245.69 43.44 242.52 43.76 239.29 C 40.16 239.10 36.53 239.51 32.95 238.94 C 35.96 235.14 40.20 232.32 42.48 227.96 C 42.20 225.29 38.78 226.03 36.91 225.59 C 41.19 222.83 46.59 222.66 51.54 222.46 C 52.86 218.48 49.11 214.99 48.03 211.30 Z" />
</g>
<g id="#fffffeff">
<path fill="#fffffe" opacity="1.00" d=" M 140.08 252.05 C 147.53 251.91 155.00 251.96 162.45 252.31 C 161.40 256.03 160.70 259.87 159.42 263.53 C 153.14 266.86 145.80 265.68 139.07 264.72 C 139.19 260.48 140.22 256.31 140.08 252.05 Z" />
</g>
<g id="#fdfdfdff">
<path fill="#fdfdfd" opacity="1.00" d=" M 95.19 256.17 C 96.11 255.97 97.95 255.57 98.87 255.37 C 96.86 257.73 94.85 260.39 92.19 262.00 C 91.27 260.68 90.47 259.30 89.76 257.87 C 91.40 256.88 93.38 256.73 95.19 256.17 Z" />
</g>
<g id="#353535ff">
<path fill="#353535" opacity="1.00" d=" M 81.86 330.95 C 84.72 330.74 86.75 333.29 89.48 333.71 C 94.33 334.41 99.26 333.70 104.14 334.07 C 104.12 336.40 101.58 335.91 100.00 335.99 C 95.13 335.86 89.93 336.72 85.42 334.42 C 84.01 333.59 81.74 333.02 81.86 330.95 Z" />
</g>
<g id="#ee3224ff">
<path fill="#ee3224" opacity="1.00" d=" M 80.17 429.26 C 85.54 428.42 91.85 429.08 95.69 433.34 C 97.96 435.56 98.70 438.81 98.91 441.87 C 96.31 442.09 93.67 442.17 91.08 441.82 C 90.42 439.35 89.01 436.50 86.15 436.19 C 83.20 435.77 79.30 435.67 77.44 438.49 C 76.29 440.33 77.64 442.60 79.42 443.41 C 84.05 445.43 89.21 445.92 93.77 448.13 C 97.48 449.86 100.02 453.85 99.98 457.95 C 100.41 462.92 97.16 467.91 92.50 469.61 C 87.09 471.58 80.93 471.56 75.57 469.45 C 71.13 467.54 68.30 462.89 68.00 458.14 C 70.46 457.56 73.00 457.12 75.53 457.24 C 76.39 459.30 77.00 461.74 79.17 462.85 C 82.33 464.58 86.48 464.43 89.64 462.76 C 92.31 461.62 93.01 457.19 90.26 455.76 C 85.55 453.40 79.99 453.36 75.42 450.61 C 68.82 447.59 67.40 437.58 72.69 432.72 C 74.64 430.62 77.44 429.76 80.17 429.26 Z" />
<path fill="#ee3224" opacity="1.00" d=" M 201.19 429.26 C 206.54 428.43 212.85 429.11 216.68 433.35 C 218.96 435.57 219.68 438.81 219.93 441.87 C 217.32 442.08 214.67 442.16 212.06 441.83 C 211.45 440.49 211.31 438.87 210.17 437.85 C 208.10 435.54 204.57 435.80 201.81 436.27 C 199.73 436.59 197.46 438.52 198.13 440.81 C 198.48 442.22 199.79 443.22 201.11 443.72 C 205.58 445.45 210.44 446.05 214.78 448.14 C 218.47 449.90 221.04 453.84 220.98 457.96 C 221.44 463.18 217.89 468.38 212.88 469.86 C 207.62 471.48 201.70 471.60 196.58 469.43 C 192.15 467.53 189.26 462.89 189.01 458.14 C 191.47 457.57 194.00 457.11 196.54 457.24 C 197.38 459.02 197.70 461.27 199.51 462.40 C 203.09 464.84 208.38 464.63 211.75 461.89 C 213.79 460.13 213.26 456.30 210.61 455.43 C 205.74 453.47 200.28 453.07 195.76 450.23 C 189.91 447.05 188.71 438.16 193.15 433.34 C 195.16 430.96 198.22 429.84 201.19 429.26 Z" />
<path fill="#ee3224" opacity="1.00" d=" M 333.49 429.61 C 338.32 428.46 343.54 428.79 348.10 430.79 C 352.29 432.85 355.12 437.21 355.89 441.75 C 353.39 442.36 350.83 442.77 348.26 442.85 C 347.26 441.19 346.65 439.22 345.05 438.02 C 342.47 435.64 338.56 435.59 335.36 436.51 C 331.25 437.70 328.46 441.74 328.07 445.90 C 327.66 449.55 327.71 453.36 328.92 456.86 C 329.97 460.13 332.79 462.70 336.06 463.69 C 340.26 464.70 344.75 463.44 348.19 460.93 C 348.67 459.34 348.41 457.66 348.25 456.06 C 345.26 455.90 342.27 456.16 339.29 455.84 C 339.17 453.61 339.17 451.39 339.30 449.17 C 344.95 448.81 350.64 449.00 356.30 449.06 C 356.48 454.33 356.73 459.70 356.19 464.95 C 348.28 471.66 335.58 473.42 326.94 467.05 C 320.39 461.76 318.50 452.36 320.21 444.43 C 321.30 437.54 326.55 431.14 333.49 429.61 Z" />
<path fill="#ee3224" opacity="1.00" d=" M 105.82 430.07 C 109.82 429.95 113.83 429.80 117.82 430.18 C 120.08 439.01 122.54 447.79 124.69 456.66 C 124.84 456.64 125.14 456.59 125.29 456.57 C 127.18 447.68 129.79 438.95 131.97 430.13 C 135.95 429.87 139.95 429.95 143.94 430.06 C 144.04 443.35 144.06 456.65 143.93 469.93 C 141.53 470.10 139.12 470.09 136.72 469.94 C 136.38 459.76 136.30 449.57 136.27 439.39 C 136.15 439.40 135.90 439.44 135.77 439.45 C 133.61 449.61 131.12 459.70 128.72 469.79 C 126.18 470.15 123.59 470.13 121.04 469.87 C 118.86 460.54 116.62 451.21 114.56 441.85 C 114.37 440.87 113.92 439.97 113.49 439.09 C 113.56 449.36 113.45 459.65 113.15 469.92 C 110.72 470.10 108.27 470.10 105.83 469.93 C 105.64 456.65 105.66 443.35 105.82 430.07 Z" />
<path fill="#ee3224" opacity="1.00" d=" M 163.46 430.51 L 163.94 430.06 C 166.42 430.11 169.32 429.39 171.57 430.48 C 175.54 440.11 179.29 449.85 183.30 459.47 C 184.68 462.95 186.28 466.35 187.34 469.96 C 184.54 470.07 181.73 470.11 178.93 469.91 C 177.49 467.21 176.93 464.15 175.65 461.38 C 170.57 460.57 165.24 461.08 160.08 461.10 C 157.83 463.43 158.22 467.58 156.00 469.89 C 153.37 470.16 150.71 470.05 148.08 469.90 C 152.93 456.67 158.41 443.65 163.46 430.51 M 167.12 441.10 C 165.57 445.34 163.42 449.52 162.68 453.97 C 165.89 454.05 169.10 454.05 172.31 453.97 C 172.49 452.50 171.62 451.22 171.19 449.90 C 169.94 446.94 169.05 443.84 167.80 440.89 L 167.12 441.10 Z" />
<path fill="#ee3224" opacity="1.00" d=" M 227.07 430.06 C 229.69 429.89 232.32 429.89 234.94 430.07 C 235.19 435.35 234.82 440.64 235.07 445.92 C 240.23 445.90 245.50 446.41 250.59 445.65 C 250.68 440.45 250.30 435.24 250.70 430.05 C 253.23 429.91 255.77 429.91 258.30 430.06 C 258.55 443.34 258.55 456.66 258.31 469.94 C 255.77 470.09 253.23 470.09 250.70 469.94 C 250.30 464.45 250.69 458.93 250.58 453.43 L 250.05 453.12 C 245.07 452.87 240.06 452.98 235.07 453.07 C 234.82 458.68 235.19 464.31 234.94 469.92 C 232.32 470.09 229.68 470.10 227.07 469.93 C 226.95 456.64 226.94 443.34 227.07 430.06 Z" />
<path fill="#ee3224" opacity="1.00" d=" M 282.19 430.13 C 284.72 429.94 287.33 429.73 289.84 430.28 C 295.25 438.80 300.23 447.59 305.72 456.06 C 306.12 447.40 305.67 438.73 305.93 430.08 C 308.34 429.90 310.76 429.90 313.17 430.07 C 313.34 443.35 313.34 456.65 313.17 469.93 C 310.53 470.01 307.79 470.33 305.22 469.65 C 299.85 461.21 294.94 452.46 289.42 444.11 C 289.35 452.72 289.67 461.35 289.29 469.95 C 286.92 470.10 284.54 470.10 282.19 469.87 C 282.08 456.63 282.08 443.37 282.19 430.13 Z" />
</g>
<g id="#ef3224ff">
<path fill="#ef3224" opacity="1.00" d=" M 266.83 430.07 C 269.45 429.88 272.10 429.88 274.72 430.18 C 274.74 443.39 274.75 456.60 274.71 469.81 C 272.10 470.11 269.45 470.11 266.83 469.92 C 266.66 456.64 266.66 443.35 266.83 430.07 Z" />
</g>
<g id="#fcfdfdff">
<path fill="#fcfdfd" opacity="1.00" d=" M 167.12 441.10 L 167.80 440.89 C 169.05 443.84 169.94 446.94 171.19 449.90 C 171.62 451.22 172.49 452.50 172.31 453.97 C 169.10 454.05 165.89 454.05 162.68 453.97 C 163.42 449.52 165.57 445.34 167.12 441.10 Z" />
</g>
</svg>
