<?xml version="1.0" encoding="UTF-8" ?>
<!DOCTYPE svg PUBLIC "-//W3C//DTD SVG 1.1//EN" "http://www.w3.org/Graphics/SVG/1.1/DTD/svg11.dtd">
<svg width="458pt" height="262pt" viewBox="0 0 458 262" version="1.1" xmlns="http://www.w3.org/2000/svg">
<g id="#ffffffff">
<path fill="#ffffff" opacity="1.00" d=" M 0.00 0.00 L 458.00 0.00 L 458.00 262.00 L 0.00 262.00 L 0.00 0.00 M 244.02 10.44 C 239.64 10.34 235.15 10.06 230.90 11.35 C 227.76 12.18 225.16 14.24 222.14 15.35 C 219.72 15.54 217.26 15.31 214.89 15.93 C 206.67 17.90 198.60 21.52 192.61 27.61 C 188.36 31.90 185.50 37.39 183.73 43.12 C 182.02 50.44 179.64 57.92 174.75 63.78 C 171.16 68.08 169.30 73.53 168.52 79.01 C 167.88 84.05 168.32 89.24 166.89 94.17 C 165.31 100.00 164.45 105.98 163.17 111.88 C 161.51 118.56 157.83 124.57 153.18 129.60 C 154.69 128.76 156.15 127.82 157.62 126.92 C 155.16 135.04 154.82 143.55 154.47 151.97 C 153.96 156.82 153.52 161.83 151.34 166.28 C 131.58 169.32 112.45 175.67 94.15 183.61 C 82.78 187.21 71.72 192.70 63.16 201.16 C 59.41 205.40 55.80 209.85 53.19 214.91 C 47.25 225.65 44.55 237.88 43.61 250.03 C 43.59 250.91 43.81 251.73 44.29 252.50 C 45.00 237.46 48.74 222.24 57.17 209.59 C 60.26 205.59 63.22 201.39 67.30 198.33 C 73.17 192.97 80.44 189.55 87.66 186.42 C 89.91 185.58 92.63 184.34 94.84 185.96 C 100.73 190.06 102.96 197.28 104.80 203.85 C 109.55 219.46 112.39 235.67 112.59 252.00 C 135.24 251.99 157.90 252.02 180.55 251.99 C 179.65 247.19 178.09 242.56 177.05 237.80 C 181.19 238.72 185.52 239.46 189.10 241.92 C 192.42 244.14 196.38 243.03 200.03 242.66 C 203.34 245.36 205.37 249.17 207.95 252.47 C 207.47 248.25 203.84 245.52 201.35 242.42 C 204.71 241.49 207.88 239.84 210.26 237.25 C 207.19 237.24 204.81 239.36 202.13 240.53 C 199.37 241.95 196.16 242.88 193.08 241.97 C 190.36 240.96 188.15 238.97 185.50 237.83 C 181.36 236.31 176.68 236.63 172.78 234.43 C 167.39 230.71 163.85 224.47 163.41 217.93 C 162.82 210.63 163.72 203.32 163.57 196.01 C 163.71 185.63 162.67 175.27 160.85 165.06 C 159.87 152.38 158.27 139.55 160.33 126.89 C 161.08 121.94 162.55 116.80 166.19 113.17 C 169.08 110.45 172.55 108.04 174.01 104.17 C 178.41 93.76 180.60 82.57 184.65 72.03 C 186.13 68.58 189.25 66.28 191.21 63.15 C 195.50 56.30 201.21 50.51 206.48 44.43 C 209.34 40.81 214.11 39.88 218.01 37.80 C 220.18 37.66 222.25 38.80 224.21 39.63 C 228.82 43.00 233.10 46.85 237.02 51.02 C 239.19 53.21 239.98 56.30 241.11 59.09 C 242.90 64.11 244.74 69.14 247.21 73.88 C 249.57 78.30 251.21 83.04 253.00 87.71 C 249.76 87.63 243.73 87.52 244.27 92.22 C 247.45 94.24 251.37 93.17 254.92 93.41 C 256.92 100.21 260.34 107.23 266.76 110.84 C 265.38 108.06 263.43 105.62 262.03 102.86 C 260.76 99.83 260.32 96.53 260.22 93.27 C 261.96 93.82 263.66 94.52 265.29 95.34 C 267.24 100.54 268.94 105.83 271.31 110.86 C 273.51 115.30 274.92 120.15 275.42 125.08 C 276.00 131.01 277.67 136.75 279.27 142.47 C 279.91 144.76 280.34 147.16 281.54 149.25 C 281.69 142.15 280.29 135.11 280.70 128.01 C 281.16 119.61 281.54 111.13 283.50 102.92 C 283.75 110.25 283.73 117.84 286.53 124.75 C 289.37 131.11 289.88 138.19 290.47 145.04 C 291.00 148.22 289.64 151.21 288.65 154.15 C 289.99 152.86 291.28 151.50 292.53 150.12 C 290.75 160.89 285.78 170.94 285.18 181.93 C 284.91 186.76 284.23 191.70 285.14 196.48 L 286.58 192.42 C 287.18 195.68 289.53 198.77 293.13 198.58 C 291.73 197.00 290.13 195.59 288.80 193.95 C 287.04 190.75 289.56 187.50 290.34 184.41 C 289.68 185.01 288.36 186.22 287.70 186.82 C 289.77 176.74 293.13 166.86 298.15 157.85 C 304.99 153.98 312.02 149.01 320.23 149.30 C 324.67 151.87 324.62 157.45 324.26 161.95 C 323.42 170.89 321.09 180.20 315.03 187.10 C 312.67 189.61 310.27 192.37 306.92 193.54 C 302.64 195.12 298.32 196.69 294.51 199.25 C 293.63 202.60 292.65 206.03 290.53 208.84 C 287.66 212.74 283.81 215.77 280.85 219.61 C 270.70 232.55 257.42 242.54 243.89 251.70 C 245.55 251.88 247.41 252.32 248.87 251.21 C 256.06 246.46 262.91 241.11 268.93 234.91 C 273.86 229.55 278.65 224.05 283.79 218.88 C 281.65 229.97 278.85 240.91 276.28 251.90 C 301.31 252.15 326.34 251.91 351.37 252.02 C 352.25 240.96 353.18 229.78 356.41 219.11 C 360.38 207.40 366.05 196.29 372.74 185.91 C 384.74 188.10 396.66 191.92 406.72 198.98 C 415.51 205.08 422.94 213.60 426.52 223.78 C 426.20 224.05 425.55 224.59 425.23 224.86 C 425.66 224.68 426.53 224.33 426.96 224.15 C 429.73 233.09 431.97 242.35 431.64 251.79 C 431.86 251.81 432.29 251.86 432.51 251.88 C 432.47 241.20 430.41 230.41 426.04 220.64 C 421.01 209.30 411.72 200.15 400.75 194.51 C 390.82 188.98 379.55 186.60 368.46 184.64 C 368.90 181.56 369.25 178.48 369.73 175.41 C 371.97 177.87 372.43 181.29 373.69 184.26 C 373.96 176.72 371.93 169.40 371.16 161.95 C 370.59 158.00 370.59 153.99 370.09 150.03 C 369.02 142.76 368.93 135.35 367.31 128.16 C 366.48 122.42 366.00 116.61 364.87 110.92 C 361.55 99.62 358.19 88.28 353.08 77.63 C 350.41 72.40 348.98 66.63 345.99 61.56 C 346.70 61.49 348.10 61.34 348.81 61.27 L 348.76 59.94 C 344.85 56.52 342.46 51.82 339.02 47.99 C 336.56 45.14 333.58 42.77 331.25 39.80 C 327.21 34.78 323.25 29.52 317.83 25.90 C 312.95 22.79 307.92 19.65 302.23 18.32 C 296.53 17.57 290.73 17.41 285.13 16.05 C 275.15 12.44 264.72 9.34 254.00 9.67 C 250.65 9.67 247.37 10.58 244.02 10.44 M 188.41 69.56 C 192.68 69.91 197.33 69.47 201.04 72.04 C 206.44 74.50 207.90 82.62 214.57 82.61 C 214.79 80.75 214.81 78.87 214.54 77.01 C 209.86 73.93 205.58 69.74 199.88 68.66 C 196.04 68.30 192.12 68.50 188.41 69.56 M 215.13 84.51 C 216.62 86.45 218.31 88.43 218.56 90.98 C 219.02 95.14 217.81 99.23 216.80 103.22 C 215.81 107.27 213.52 110.86 212.60 114.92 C 215.69 108.58 218.13 101.83 219.10 94.82 C 219.59 91.01 218.56 86.67 215.13 84.51 M 192.56 86.77 C 190.14 87.60 187.77 88.61 185.22 88.95 C 183.66 90.08 182.11 91.23 180.58 92.40 C 180.48 93.03 180.29 94.30 180.19 94.93 C 182.00 97.36 183.83 99.82 186.22 101.71 C 187.35 102.82 189.10 103.55 189.14 105.43 C 189.67 104.54 190.17 103.64 190.69 102.75 C 193.33 102.88 196.73 102.77 197.71 99.76 C 199.60 96.49 196.58 92.26 192.99 92.34 C 189.01 91.90 186.12 96.12 186.65 99.81 C 185.30 98.86 183.96 97.91 182.61 96.96 C 185.15 92.74 188.86 88.69 194.00 87.98 C 200.41 86.37 206.55 92.85 206.06 99.04 C 203.37 103.30 197.79 105.12 192.95 104.60 L 191.60 103.31 C 191.10 104.31 190.85 105.93 192.34 106.18 C 195.08 106.32 198.03 106.78 200.58 105.45 C 203.13 104.24 205.56 102.56 207.28 100.29 C 208.62 96.83 206.73 93.14 204.63 90.43 C 201.90 86.80 196.83 85.36 192.56 86.77 M 244.52 104.81 C 240.08 106.47 236.84 110.14 234.20 113.93 C 237.08 118.57 241.73 121.78 246.79 123.65 C 246.90 123.30 247.12 122.60 247.23 122.25 C 250.47 123.13 254.58 120.58 254.78 117.09 C 255.32 114.30 252.94 111.24 250.05 111.28 C 247.30 110.82 244.37 112.28 243.38 114.94 C 242.87 117.11 243.47 119.25 244.49 121.17 C 241.50 118.86 238.45 116.60 235.87 113.83 C 239.80 109.66 244.72 104.69 251.01 105.70 C 258.40 107.81 261.48 115.59 265.42 121.41 C 260.45 124.49 254.37 123.91 248.85 123.18 C 248.51 123.74 248.17 124.30 247.82 124.86 C 252.23 124.65 256.72 126.28 261.11 124.92 C 264.61 124.32 267.30 121.72 269.00 118.73 C 268.18 118.77 266.55 118.83 265.73 118.87 C 266.22 118.57 267.19 117.98 267.68 117.68 C 267.69 116.05 266.88 115.29 265.26 115.39 C 265.42 114.92 265.73 113.98 265.89 113.50 C 265.31 113.52 264.15 113.54 263.57 113.55 C 263.61 113.21 263.68 112.54 263.72 112.20 C 260.88 110.09 258.44 107.47 255.33 105.74 C 252.10 103.84 248.04 103.74 244.52 104.81 M 193.79 137.19 C 192.99 138.75 193.20 140.76 194.17 142.21 C 196.53 142.47 198.77 143.23 201.02 143.92 C 200.81 142.76 200.59 141.60 200.36 140.45 C 198.65 140.44 196.90 140.55 195.79 142.10 C 194.11 140.89 194.45 138.81 194.51 137.05 C 196.30 135.48 198.11 133.91 199.80 132.22 C 197.64 133.66 195.48 135.20 193.79 137.19 M 221.39 145.61 C 221.76 145.63 222.48 145.66 222.84 145.67 C 222.72 146.81 222.47 149.09 222.34 150.23 C 220.43 150.89 218.52 151.56 216.72 152.47 C 219.12 152.61 221.25 151.48 223.30 150.39 C 223.94 147.93 224.34 145.40 223.51 142.93 C 222.81 143.83 221.92 144.62 221.39 145.61 M 211.30 146.67 C 211.36 147.62 211.43 148.58 211.50 149.54 C 213.19 149.72 214.90 149.68 216.57 149.33 C 216.06 148.44 215.54 147.56 215.04 146.67 C 213.79 146.67 212.54 146.67 211.30 146.67 M 307.77 158.00 C 311.00 156.96 314.06 154.39 317.62 155.81 C 318.42 159.13 318.72 162.58 318.04 165.95 C 317.09 171.26 315.87 176.98 312.01 181.00 C 308.48 184.20 303.67 187.20 298.73 185.75 C 297.79 184.10 296.81 182.47 295.82 180.85 C 296.11 183.41 296.64 185.94 297.50 188.36 C 301.62 188.26 305.91 187.83 309.51 185.67 C 314.31 183.11 316.79 177.88 318.17 172.86 C 319.78 167.36 319.65 161.58 320.27 155.93 C 318.29 155.26 316.29 154.17 314.14 154.65 C 311.78 155.19 309.57 156.38 307.77 158.00 M 180.73 162.11 C 182.54 162.53 184.27 161.69 186.04 161.44 C 189.00 160.90 192.35 160.96 194.85 162.85 C 195.77 163.90 196.23 165.25 196.85 166.49 C 200.20 167.51 203.73 167.42 207.20 167.55 C 209.96 169.33 212.58 171.34 215.44 172.97 C 213.05 170.60 210.57 168.05 207.31 166.93 C 204.58 166.50 201.80 166.61 199.05 166.41 C 197.77 164.87 196.58 163.23 195.10 161.88 C 190.66 159.28 185.33 160.81 180.73 162.11 M 179.53 164.27 C 179.81 171.13 181.19 178.19 185.01 184.01 C 186.35 186.08 188.91 186.78 190.64 188.43 L 186.78 189.06 C 188.56 189.36 190.37 189.61 191.96 188.48 C 190.45 187.60 188.87 186.73 187.89 185.23 C 188.21 183.58 190.22 184.11 191.04 184.96 C 193.86 187.08 197.53 187.20 200.86 187.85 C 199.44 190.59 195.72 188.76 193.25 189.17 L 193.29 189.83 C 201.88 189.71 211.15 190.49 218.87 185.93 C 220.15 184.99 222.17 183.98 221.89 182.08 C 219.80 179.06 216.58 177.10 213.26 175.68 C 213.29 175.31 213.36 174.57 213.39 174.20 L 213.16 175.49 C 209.55 174.14 205.91 172.87 202.19 171.85 C 194.50 169.73 187.46 165.59 179.53 164.27 M 306.26 164.10 C 307.27 168.92 310.21 173.55 308.72 178.64 C 305.89 179.70 302.86 179.63 299.92 180.07 C 302.90 181.09 306.55 182.42 309.46 180.53 C 311.61 175.20 311.40 167.68 306.26 164.10 M 178.51 173.84 C 178.01 177.57 179.22 181.22 179.79 184.86 C 180.73 188.64 181.88 193.11 185.62 195.06 C 189.92 196.92 194.70 197.58 199.35 197.09 C 202.62 196.68 205.55 195.09 208.58 193.92 C 208.45 193.80 208.18 193.55 208.04 193.43 C 202.80 196.81 196.10 197.92 190.15 195.90 C 186.54 194.92 183.15 192.42 181.98 188.75 C 180.00 183.98 180.37 178.63 178.51 173.84 M 179.63 200.71 C 181.05 201.77 182.39 202.97 183.89 203.92 C 185.68 205.11 187.92 204.68 189.94 204.79 C 187.05 203.56 184.24 202.14 181.28 201.07 C 181.31 200.71 181.37 199.99 181.40 199.63 C 180.81 199.99 180.22 200.35 179.63 200.71 M 250.19 210.21 C 243.17 215.33 235.32 219.41 229.15 225.64 C 232.04 224.05 234.36 221.66 237.06 219.80 C 243.93 214.58 251.93 210.78 257.97 204.51 C 255.29 206.28 252.82 208.36 250.19 210.21 Z" />
<path fill="#ffffff" opacity="1.00" d=" M 258.76 81.91 C 260.58 84.94 262.14 88.12 263.73 91.27 C 262.34 90.59 260.92 89.95 259.51 89.32 C 259.29 86.84 258.95 84.38 258.76 81.91 Z" />
<path fill="#ffffff" opacity="1.00" d=" M 182.38 167.06 C 194.70 169.73 206.16 175.27 218.18 178.92 C 217.80 182.02 214.36 181.96 211.98 181.83 C 204.05 181.37 196.40 178.74 189.14 175.65 C 185.57 174.23 182.04 171.31 182.38 167.06 Z" />
</g>
<g id="#19171cff">
<path fill="#19171c" opacity="1.00" d=" M 244.02 10.44 C 247.37 10.58 250.65 9.67 254.00 9.67 C 264.72 9.34 275.15 12.44 285.13 16.05 C 290.73 17.41 296.53 17.57 302.23 18.32 C 307.92 19.65 312.95 22.79 317.83 25.90 C 323.25 29.52 327.21 34.78 331.25 39.80 C 333.58 42.77 336.56 45.14 339.02 47.99 C 342.46 51.82 344.85 56.52 348.76 59.94 L 348.81 61.27 C 348.10 61.34 346.70 61.49 345.99 61.56 C 348.98 66.63 350.41 72.40 353.08 77.63 C 358.19 88.28 361.55 99.62 364.87 110.92 C 366.00 116.61 366.48 122.42 367.31 128.16 C 368.93 135.35 369.02 142.76 370.09 150.03 C 370.59 153.99 370.59 158.00 371.16 161.95 C 371.93 169.40 373.96 176.72 373.69 184.26 C 372.43 181.29 371.97 177.87 369.73 175.41 C 369.25 178.48 368.90 181.56 368.46 184.64 C 379.55 186.60 390.82 188.98 400.75 194.51 C 411.72 200.15 421.01 209.30 426.04 220.64 C 430.41 230.41 432.47 241.20 432.51 251.88 C 432.29 251.86 431.86 251.81 431.64 251.79 C 431.97 242.35 429.73 233.09 426.96 224.15 C 426.53 224.33 425.66 224.68 425.23 224.86 C 425.55 224.59 426.20 224.05 426.52 223.78 C 422.94 213.60 415.51 205.08 406.72 198.98 C 396.66 191.92 384.74 188.10 372.74 185.91 C 366.05 196.29 360.38 207.40 356.41 219.11 C 353.18 229.78 352.25 240.96 351.37 252.02 C 326.34 251.91 301.31 252.15 276.28 251.90 C 278.85 240.91 281.65 229.97 283.79 218.88 C 278.65 224.05 273.86 229.55 268.93 234.91 C 262.91 241.11 256.06 246.46 248.87 251.21 C 247.41 252.32 245.55 251.88 243.89 251.70 C 257.42 242.54 270.70 232.55 280.85 219.61 C 283.81 215.77 287.66 212.74 290.53 208.84 C 292.65 206.03 293.63 202.60 294.51 199.25 C 298.32 196.69 302.64 195.12 306.92 193.54 C 310.27 192.37 312.67 189.61 315.03 187.10 C 321.09 180.20 323.42 170.89 324.26 161.95 C 324.62 157.45 324.67 151.87 320.23 149.30 C 312.02 149.01 304.99 153.98 298.15 157.85 C 293.13 166.86 289.77 176.74 287.70 186.82 C 288.36 186.22 289.68 185.01 290.34 184.41 C 289.56 187.50 287.04 190.75 288.80 193.95 C 290.13 195.59 291.73 197.00 293.13 198.58 C 289.53 198.77 287.18 195.68 286.58 192.42 L 285.14 196.48 C 284.23 191.70 284.91 186.76 285.18 181.93 C 285.78 170.94 290.75 160.89 292.53 150.12 C 291.28 151.50 289.99 152.86 288.65 154.15 C 289.64 151.21 291.00 148.22 290.47 145.04 C 289.88 138.19 289.37 131.11 286.53 124.75 C 283.73 117.84 283.75 110.25 283.50 102.92 C 281.54 111.13 281.16 119.61 280.70 128.01 C 280.29 135.11 281.69 142.15 281.54 149.25 C 280.34 147.16 279.91 144.76 279.27 142.47 C 277.67 136.75 276.00 131.01 275.42 125.08 C 274.92 120.15 273.51 115.30 271.31 110.86 C 268.94 105.83 267.24 100.54 265.29 95.34 C 263.66 94.52 261.96 93.82 260.22 93.27 C 260.32 96.53 260.76 99.83 262.03 102.86 C 263.43 105.62 265.38 108.06 266.76 110.84 C 260.34 107.23 256.92 100.21 254.92 93.41 C 251.37 93.17 247.45 94.24 244.27 92.22 C 243.73 87.52 249.76 87.63 253.00 87.71 C 251.21 83.04 249.57 78.30 247.21 73.88 C 244.74 69.14 242.90 64.11 241.11 59.09 C 239.98 56.30 239.19 53.21 237.02 51.02 C 233.10 46.85 228.82 43.00 224.21 39.63 C 222.25 38.80 220.18 37.66 218.01 37.80 C 214.11 39.88 209.34 40.81 206.48 44.43 C 201.21 50.51 195.50 56.30 191.21 63.15 C 189.25 66.28 186.13 68.58 184.65 72.03 C 180.60 82.57 178.41 93.76 174.01 104.17 C 172.55 108.04 169.08 110.45 166.19 113.17 C 162.55 116.80 161.08 121.94 160.33 126.89 C 158.27 139.55 159.87 152.38 160.85 165.06 C 162.67 175.27 163.71 185.63 163.57 196.01 C 163.72 203.32 162.82 210.63 163.41 217.93 C 163.85 224.47 167.39 230.71 172.78 234.43 C 176.68 236.63 181.36 236.31 185.50 237.83 C 188.15 238.97 190.36 240.96 193.08 241.97 C 196.16 242.88 199.37 241.95 202.13 240.53 C 204.81 239.36 207.19 237.24 210.26 237.25 C 207.88 239.84 204.71 241.49 201.35 242.42 C 203.84 245.52 207.47 248.25 207.95 252.47 C 205.37 249.17 203.34 245.36 200.03 242.66 C 196.38 243.03 192.42 244.14 189.10 241.92 C 185.52 239.46 181.19 238.72 177.05 237.80 C 178.09 242.56 179.65 247.19 180.55 251.99 C 157.90 252.02 135.24 251.99 112.59 252.00 C 112.39 235.67 109.55 219.46 104.80 203.85 C 102.96 197.28 100.73 190.06 94.84 185.96 C 92.63 184.34 89.91 185.58 87.66 186.42 C 80.44 189.55 73.17 192.97 67.30 198.33 C 63.22 201.39 60.26 205.59 57.17 209.59 C 48.74 222.24 45.00 237.46 44.29 252.50 C 43.81 251.73 43.59 250.91 43.61 250.03 C 44.55 237.88 47.25 225.65 53.19 214.91 C 55.80 209.85 59.41 205.40 63.16 201.16 C 71.72 192.70 82.78 187.21 94.15 183.61 C 112.45 175.67 131.58 169.32 151.34 166.28 C 153.52 161.83 153.96 156.82 154.47 151.97 C 154.82 143.55 155.16 135.04 157.62 126.92 C 156.15 127.82 154.69 128.76 153.18 129.60 C 157.83 124.57 161.51 118.56 163.17 111.88 C 164.45 105.98 165.31 100.00 166.89 94.17 C 168.32 89.24 167.88 84.05 168.52 79.01 C 169.30 73.53 171.16 68.08 174.75 63.78 C 179.64 57.92 182.02 50.44 183.73 43.12 C 185.50 37.39 188.36 31.90 192.61 27.61 C 198.60 21.52 206.67 17.90 214.89 15.93 C 217.26 15.31 219.72 15.54 222.14 15.35 C 225.16 14.24 227.76 12.18 230.90 11.35 C 235.15 10.06 239.64 10.34 244.02 10.44 M 258.76 81.91 C 258.95 84.38 259.29 86.84 259.51 89.32 C 260.92 89.95 262.34 90.59 263.73 91.27 C 262.14 88.12 260.58 84.94 258.76 81.91 Z" />
<path fill="#19171c" opacity="1.00" d=" M 188.41 69.56 C 192.12 68.50 196.04 68.30 199.88 68.66 C 205.58 69.74 209.86 73.93 214.54 77.01 C 214.81 78.87 214.79 80.75 214.57 82.61 C 207.90 82.62 206.44 74.50 201.04 72.04 C 197.33 69.47 192.68 69.91 188.41 69.56 Z" />
<path fill="#19171c" opacity="1.00" d=" M 215.13 84.51 C 218.56 86.67 219.59 91.01 219.10 94.82 C 218.13 101.83 215.69 108.58 212.60 114.92 C 213.52 110.86 215.81 107.27 216.80 103.22 C 217.81 99.23 219.02 95.14 218.56 90.98 C 218.31 88.43 216.62 86.45 215.13 84.51 Z" />
<path fill="#19171c" opacity="1.00" d=" M 192.56 86.77 C 196.83 85.36 201.90 86.80 204.63 90.43 C 206.73 93.14 208.62 96.83 207.28 100.29 C 205.56 102.56 203.13 104.24 200.58 105.45 C 198.03 106.78 195.08 106.32 192.34 106.18 C 190.85 105.93 191.10 104.31 191.60 103.31 L 192.95 104.60 C 197.79 105.12 203.37 103.30 206.06 99.04 C 206.55 92.85 200.41 86.37 194.00 87.98 C 188.86 88.69 185.15 92.74 182.61 96.96 C 183.96 97.91 185.30 98.86 186.65 99.81 C 186.12 96.12 189.01 91.90 192.99 92.34 C 196.58 92.26 199.60 96.49 197.71 99.76 C 196.73 102.77 193.33 102.88 190.69 102.75 C 190.17 103.64 189.67 104.54 189.14 105.43 C 189.10 103.55 187.35 102.82 186.22 101.71 C 183.83 99.82 182.00 97.36 180.19 94.93 C 180.29 94.30 180.48 93.03 180.58 92.40 C 182.11 91.23 183.66 90.08 185.22 88.95 C 187.77 88.61 190.14 87.60 192.56 86.77 Z" />
<path fill="#19171c" opacity="1.00" d=" M 244.52 104.81 C 248.04 103.74 252.10 103.84 255.33 105.74 C 258.44 107.47 260.88 110.09 263.72 112.20 C 263.68 112.54 263.61 113.21 263.57 113.55 C 264.15 113.54 265.31 113.52 265.89 113.50 C 265.73 113.98 265.42 114.92 265.26 115.39 C 266.88 115.29 267.69 116.05 267.68 117.68 C 267.19 117.98 266.22 118.57 265.73 118.87 C 266.55 118.83 268.18 118.77 269.00 118.73 C 267.30 121.72 264.61 124.32 261.11 124.92 C 256.72 126.28 252.23 124.65 247.82 124.86 C 248.17 124.30 248.51 123.74 248.85 123.18 C 254.37 123.91 260.45 124.49 265.42 121.41 C 261.48 115.59 258.40 107.81 251.01 105.70 C 244.72 104.69 239.80 109.66 235.87 113.83 C 238.45 116.60 241.50 118.86 244.49 121.17 C 243.47 119.25 242.87 117.11 243.38 114.94 C 244.37 112.28 247.30 110.82 250.05 111.28 C 252.94 111.24 255.32 114.30 254.78 117.09 C 254.58 120.58 250.47 123.13 247.23 122.25 C 247.12 122.60 246.90 123.30 246.79 123.65 C 241.73 121.78 237.08 118.57 234.20 113.93 C 236.84 110.14 240.08 106.47 244.52 104.81 Z" />
<path fill="#19171c" opacity="1.00" d=" M 193.79 137.19 C 195.48 135.20 197.64 133.66 199.80 132.22 C 198.11 133.91 196.30 135.48 194.51 137.05 C 194.45 138.81 194.11 140.89 195.79 142.10 C 196.90 140.55 198.65 140.44 200.36 140.45 C 200.59 141.60 200.81 142.76 201.02 143.92 C 198.77 143.23 196.53 142.47 194.17 142.21 C 193.20 140.76 192.99 138.75 193.79 137.19 Z" />
<path fill="#19171c" opacity="1.00" d=" M 221.39 145.61 C 221.92 144.62 222.81 143.83 223.51 142.93 C 224.34 145.40 223.94 147.93 223.30 150.39 C 221.25 151.48 219.12 152.61 216.72 152.47 C 218.52 151.56 220.43 150.89 222.34 150.23 C 222.47 149.09 222.72 146.81 222.84 145.67 C 222.48 145.66 221.76 145.63 221.39 145.61 Z" />
<path fill="#19171c" opacity="1.00" d=" M 211.30 146.67 C 212.54 146.67 213.79 146.67 215.04 146.67 C 215.54 147.56 216.06 148.44 216.57 149.33 C 214.90 149.68 213.19 149.72 211.50 149.54 C 211.43 148.58 211.36 147.62 211.30 146.67 Z" />
<path fill="#19171c" opacity="1.00" d=" M 307.77 158.00 C 309.57 156.38 311.78 155.19 314.14 154.65 C 316.29 154.17 318.29 155.26 320.27 155.93 C 319.65 161.58 319.78 167.36 318.17 172.86 C 316.79 177.88 314.31 183.11 309.51 185.67 C 305.91 187.83 301.62 188.26 297.50 188.36 C 296.64 185.94 296.11 183.41 295.82 180.85 C 296.81 182.47 297.79 184.10 298.73 185.75 C 303.67 187.20 308.48 184.20 312.01 181.00 C 315.87 176.98 317.09 171.26 318.04 165.95 C 318.72 162.58 318.42 159.13 317.62 155.81 C 314.06 154.39 311.00 156.96 307.77 158.00 Z" />
<path fill="#19171c" opacity="1.00" d=" M 180.73 162.11 C 185.33 160.81 190.66 159.28 195.10 161.88 C 196.58 163.23 197.77 164.87 199.05 166.41 C 201.80 166.61 204.58 166.50 207.31 166.93 C 210.57 168.05 213.05 170.60 215.44 172.97 C 212.58 171.34 209.96 169.33 207.20 167.55 C 203.73 167.42 200.20 167.51 196.85 166.49 C 196.23 165.25 195.77 163.90 194.85 162.85 C 192.35 160.96 189.00 160.90 186.04 161.44 C 184.27 161.69 182.54 162.53 180.73 162.11 Z" />
<path fill="#19171c" opacity="1.00" d=" M 179.53 164.27 C 187.46 165.59 194.50 169.73 202.19 171.85 C 205.91 172.87 209.55 174.14 213.16 175.49 L 213.39 174.20 C 213.36 174.57 213.29 175.31 213.26 175.68 C 216.58 177.10 219.80 179.06 221.89 182.08 C 222.17 183.98 220.15 184.99 218.87 185.93 C 211.15 190.49 201.88 189.71 193.29 189.83 L 193.25 189.17 C 195.72 188.76 199.44 190.59 200.86 187.85 C 197.53 187.20 193.86 187.08 191.04 184.96 C 190.22 184.11 188.21 183.58 187.89 185.23 C 188.87 186.73 190.45 187.60 191.96 188.48 C 190.37 189.61 188.56 189.36 186.78 189.06 L 190.64 188.43 C 188.91 186.78 186.35 186.08 185.01 184.01 C 181.19 178.19 179.81 171.13 179.53 164.27 M 182.38 167.06 C 182.04 171.31 185.57 174.23 189.14 175.65 C 196.40 178.74 204.05 181.37 211.98 181.83 C 214.36 181.96 217.80 182.02 218.18 178.92 C 206.16 175.27 194.70 169.73 182.38 167.06 Z" />
<path fill="#19171c" opacity="1.00" d=" M 306.26 164.10 C 311.40 167.68 311.61 175.20 309.46 180.53 C 306.55 182.42 302.90 181.09 299.92 180.07 C 302.86 179.63 305.89 179.70 308.72 178.64 C 310.21 173.55 307.27 168.92 306.26 164.10 Z" />
<path fill="#19171c" opacity="1.00" d=" M 178.51 173.84 C 180.37 178.63 180.00 183.98 181.98 188.75 C 183.15 192.42 186.54 194.92 190.15 195.90 C 196.10 197.92 202.80 196.81 208.04 193.43 C 208.18 193.55 208.45 193.80 208.58 193.92 C 205.55 195.09 202.62 196.68 199.35 197.09 C 194.70 197.58 189.92 196.92 185.62 195.06 C 181.88 193.11 180.73 188.64 179.79 184.86 C 179.22 181.22 178.01 177.57 178.51 173.84 Z" />
<path fill="#19171c" opacity="1.00" d=" M 179.63 200.71 C 180.22 200.35 180.81 199.99 181.40 199.63 C 181.37 199.99 181.31 200.71 181.28 201.07 C 184.24 202.14 187.05 203.56 189.94 204.79 C 187.92 204.68 185.68 205.11 183.89 203.92 C 182.39 202.97 181.05 201.77 179.63 200.71 Z" />
<path fill="#19171c" opacity="1.00" d=" M 250.19 210.21 C 252.82 208.36 255.29 206.28 257.97 204.51 C 251.93 210.78 243.93 214.58 237.06 219.80 C 234.36 221.66 232.04 224.05 229.15 225.64 C 235.32 219.41 243.17 215.33 250.19 210.21 Z" />
</g>
</svg>
