<?xml version="1.0" encoding="UTF-8" ?>
<!DOCTYPE svg PUBLIC "-//W3C//DTD SVG 1.1//EN" "http://www.w3.org/Graphics/SVG/1.1/DTD/svg11.dtd">
<svg width="180pt" height="199pt" viewBox="0 0 180 199" version="1.1" xmlns="http://www.w3.org/2000/svg">
<path fill="#ffffff" opacity="1.00" d=" M 0.00 0.00 L 180.00 0.00 L 180.00 199.00 L 0.00 199.00 L 0.00 0.00 M 59.12 5.89 C 63.81 7.68 68.27 4.73 72.93 4.50 C 84.67 3.56 96.60 3.93 108.13 6.46 C 111.30 7.08 114.34 8.22 117.03 10.03 C 122.80 13.79 129.34 16.13 135.21 19.73 C 141.55 23.45 146.99 28.60 151.30 34.54 C 157.42 42.81 165.41 50.21 168.32 60.39 C 173.56 77.68 175.66 96.11 173.40 114.08 C 171.91 123.72 168.82 134.58 159.89 139.89 C 153.35 143.77 146.77 148.52 138.94 149.07 C 127.24 150.17 115.65 147.36 103.96 147.80 C 101.16 147.75 98.07 149.01 95.57 147.24 C 88.02 142.86 80.56 138.33 73.09 133.81 C 67.09 130.13 63.79 123.70 59.79 118.16 C 53.74 109.46 47.91 99.91 47.23 89.05 C 46.25 75.34 49.12 61.72 49.03 48.01 C 49.39 40.79 49.11 33.31 51.68 26.44 C 55.28 18.32 65.08 14.90 67.80 6.18 C 62.09 7.97 56.90 11.44 53.24 16.19 C 47.25 23.74 44.87 33.49 44.24 42.94 C 43.03 58.91 41.55 74.97 42.91 90.98 C 43.51 99.34 46.80 107.30 51.59 114.13 C 56.25 121.23 62.64 127.35 65.46 135.54 C 76.80 138.07 83.62 149.08 94.70 152.20 C 99.39 153.66 104.30 152.50 109.07 152.15 C 112.50 151.80 115.95 152.09 119.39 152.19 C 118.90 155.79 118.26 159.39 118.47 163.04 C 118.54 167.40 120.24 171.47 121.04 175.71 C 121.29 175.53 121.79 175.18 122.04 175.01 C 120.97 180.65 118.28 185.81 116.53 191.26 C 118.03 191.25 119.54 191.25 121.05 191.25 C 121.43 190.08 121.81 188.92 122.19 187.76 C 122.68 187.76 123.67 187.76 124.17 187.76 C 124.26 189.38 123.66 191.17 124.41 192.69 C 125.40 194.66 127.80 193.31 129.41 193.13 C 129.33 191.73 129.25 190.33 129.16 188.94 C 129.50 189.78 129.85 190.61 130.22 191.45 C 131.34 191.37 133.59 191.23 134.71 191.16 C 132.55 185.29 130.34 179.43 128.20 173.54 L 126.75 173.64 C 124.21 166.86 122.52 159.02 125.86 152.20 C 132.85 152.81 139.94 152.50 146.96 152.38 C 154.98 148.93 162.56 144.06 168.34 137.44 C 176.61 128.07 179.20 115.19 179.32 103.02 C 179.06 88.38 175.55 74.09 172.65 59.82 C 172.10 57.62 172.14 55.17 170.82 53.24 C 164.59 43.66 158.09 34.17 150.24 25.83 C 143.89 19.04 135.59 14.58 127.24 10.75 C 116.64 5.18 105.13 0.56 92.97 0.64 C 83.34 0.80 73.69 0.32 64.07 0.81 C 61.09 0.58 59.56 3.35 59.12 5.89 M 110.12 41.11 C 108.61 43.07 109.10 45.67 109.29 47.95 C 113.31 49.24 117.54 48.54 121.67 48.46 C 122.16 45.73 124.39 41.44 120.87 39.94 C 117.64 37.92 112.49 37.66 110.12 41.11 M 71.70 46.66 C 69.35 49.11 69.77 52.77 70.27 55.84 C 74.27 57.11 78.80 57.29 82.53 55.12 C 82.44 52.39 82.70 49.64 82.34 46.93 C 79.59 44.05 74.51 43.68 71.70 46.66 M 90.02 106.54 C 99.65 105.69 109.32 105.43 118.98 105.51 C 124.36 105.56 129.76 106.56 135.12 105.77 C 137.16 105.56 138.57 103.97 139.97 102.64 C 126.34 102.25 112.76 99.46 99.12 100.70 C 95.57 101.27 89.82 101.61 90.02 106.54 M 3.00 173.76 C 3.00 179.59 3.00 185.42 3.00 191.25 C 4.50 191.25 6.00 191.25 7.50 191.25 C 7.50 189.36 7.50 187.47 7.50 185.58 C 9.86 185.46 12.43 185.74 14.51 184.39 C 18.03 182.44 18.39 176.24 14.49 174.52 C 10.84 173.14 6.81 173.93 3.00 173.76 M 24.35 174.36 C 19.39 176.61 18.50 183.57 21.17 187.87 C 23.76 191.88 29.58 192.38 33.60 190.44 C 38.23 187.81 38.97 181.02 36.14 176.82 C 33.55 173.18 28.22 172.73 24.35 174.36 M 41.00 173.75 C 41.00 179.58 41.00 185.42 41.00 191.25 C 42.49 191.25 43.97 191.25 45.45 191.25 C 45.43 188.86 45.45 186.44 46.06 184.12 C 48.04 186.40 49.84 188.84 51.64 191.26 C 53.51 191.25 55.39 191.25 57.26 191.24 C 54.86 188.13 52.48 184.99 50.13 181.84 C 52.42 179.14 54.71 176.43 57.02 173.74 C 55.27 173.74 53.52 173.74 51.78 173.75 C 49.66 176.36 47.57 178.99 45.49 181.63 C 45.50 179.00 45.50 176.37 45.50 173.75 C 44.00 173.75 42.50 173.75 41.00 173.75 M 59.50 191.25 C 63.75 191.25 68.00 191.25 72.25 191.25 C 72.25 190.37 72.25 188.62 72.25 187.75 C 69.50 187.75 66.75 187.74 64.01 187.75 C 64.00 186.42 64.00 185.09 64.00 183.76 C 66.58 183.76 69.17 183.75 71.75 183.75 C 71.75 182.58 71.75 181.41 71.75 180.25 C 69.17 180.25 66.58 180.24 64.00 180.24 C 64.00 179.50 64.00 178.00 64.00 177.25 C 66.75 177.25 69.50 177.25 72.25 177.25 C 72.25 176.38 72.25 174.62 72.25 173.75 C 68.00 173.75 63.75 173.75 59.50 173.75 C 59.49 179.58 59.50 185.42 59.50 191.25 M 76.00 173.76 C 76.00 179.59 76.00 185.42 76.00 191.25 C 77.50 191.25 79.00 191.25 80.50 191.25 C 80.50 189.08 80.50 186.92 80.51 184.75 C 80.96 184.75 81.85 184.74 82.30 184.73 C 83.89 186.91 85.51 189.08 87.11 191.25 C 88.99 191.25 90.87 191.25 92.74 191.27 C 90.86 188.80 89.00 186.31 87.08 183.87 C 90.21 182.25 92.11 177.48 88.88 175.01 C 85.00 172.76 80.26 174.07 76.00 173.76 M 103.00 173.75 C 103.00 179.58 103.00 185.42 103.00 191.25 C 104.50 191.25 106.00 191.25 107.51 191.25 C 107.50 188.85 107.49 186.44 107.48 184.04 C 109.92 184.02 112.35 183.99 114.79 183.98 C 114.76 182.81 114.72 181.64 114.69 180.47 C 112.29 180.49 109.90 180.50 107.51 180.50 C 107.50 179.42 107.50 178.34 107.49 177.26 C 110.08 177.25 112.66 177.25 115.25 177.25 C 115.25 176.37 115.25 174.62 115.25 173.75 C 111.17 173.75 107.08 173.75 103.00 173.75 M 141.15 190.82 C 144.36 192.25 147.86 191.28 151.00 190.17 C 151.00 188.67 151.01 187.17 151.02 185.68 C 149.16 186.63 147.36 188.39 145.11 187.97 C 139.92 187.47 139.48 178.83 144.14 177.21 C 146.70 176.30 148.98 178.16 151.03 179.39 C 151.01 177.86 151.01 176.34 151.01 174.82 C 148.12 173.81 144.98 172.84 141.96 173.93 C 134.64 175.91 134.16 188.12 141.15 190.82 M 154.50 191.25 C 158.75 191.25 163.00 191.25 167.25 191.25 C 167.25 190.38 167.25 188.62 167.25 187.75 C 164.50 187.75 161.75 187.74 159.01 187.75 C 159.00 186.42 159.00 185.08 159.00 183.75 C 161.58 183.76 164.17 183.75 166.75 183.75 C 166.75 182.58 166.75 181.41 166.75 180.25 C 164.17 180.25 161.58 180.24 159.00 180.24 C 159.00 179.50 159.00 178.00 159.00 177.25 C 161.75 177.25 164.50 177.25 167.25 177.25 C 167.25 176.38 167.25 174.63 167.25 173.75 C 163.00 173.75 158.75 173.75 154.50 173.75 C 154.49 179.58 154.49 185.42 154.50 191.25 Z" />
<path fill="#000000" opacity="1.00" d=" M 59.12 5.89 C 59.56 3.35 61.09 0.58 64.07 0.81 C 73.69 0.32 83.34 0.80 92.97 0.64 C 105.13 0.56 116.64 5.18 127.24 10.75 C 135.59 14.58 143.89 19.04 150.24 25.83 C 158.09 34.17 164.59 43.66 170.82 53.24 C 172.14 55.17 172.10 57.62 172.65 59.82 C 175.55 74.09 179.06 88.38 179.32 103.02 C 179.20 115.19 176.61 128.07 168.34 137.44 C 162.56 144.06 154.98 148.93 146.96 152.38 C 139.94 152.50 132.85 152.81 125.86 152.20 C 123.72 151.66 121.48 151.30 119.39 152.19 C 115.95 152.09 112.50 151.80 109.07 152.15 C 104.30 152.50 99.39 153.66 94.70 152.20 C 83.62 149.08 76.80 138.07 65.46 135.54 C 62.64 127.35 56.25 121.23 51.59 114.13 C 46.80 107.30 43.51 99.34 42.91 90.98 C 41.55 74.97 43.03 58.91 44.24 42.94 C 44.87 33.49 47.25 23.74 53.24 16.19 C 56.90 11.44 62.09 7.97 67.80 6.18 C 65.08 14.90 55.28 18.32 51.68 26.44 C 49.11 33.31 49.39 40.79 49.03 48.01 C 49.12 61.72 46.25 75.34 47.23 89.05 C 47.91 99.91 53.74 109.46 59.79 118.16 C 63.79 123.70 67.09 130.13 73.09 133.81 C 80.56 138.33 88.02 142.86 95.57 147.24 C 98.07 149.01 101.16 147.75 103.96 147.80 C 115.65 147.36 127.24 150.17 138.94 149.07 C 146.77 148.52 153.35 143.77 159.89 139.89 C 168.82 134.58 171.91 123.72 173.40 114.08 C 175.66 96.11 173.56 77.68 168.32 60.39 C 165.41 50.21 157.42 42.81 151.30 34.54 C 146.99 28.60 141.55 23.45 135.21 19.73 C 129.34 16.13 122.80 13.79 117.03 10.03 C 114.34 8.22 111.30 7.08 108.13 6.46 C 96.60 3.93 84.67 3.56 72.93 4.50 C 68.27 4.73 63.81 7.68 59.12 5.89 Z" />
<path fill="#000000" opacity="1.00" d=" M 110.12 41.11 C 112.49 37.66 117.64 37.92 120.87 39.94 C 124.39 41.44 122.16 45.73 121.67 48.46 C 117.54 48.54 113.31 49.24 109.29 47.95 C 109.10 45.67 108.61 43.07 110.12 41.11 M 113.39 41.45 C 112.23 44.50 116.20 44.88 118.25 44.87 C 118.26 43.89 118.35 42.91 118.18 41.93 C 116.68 41.53 114.80 40.33 113.39 41.45 Z" />
<path fill="#ffffff" opacity="1.00" d=" M 113.39 41.45 C 114.80 40.33 116.68 41.53 118.18 41.93 C 118.35 42.91 118.26 43.89 118.25 44.87 C 116.20 44.88 112.23 44.50 113.39 41.45 Z" />
<path fill="#000000" opacity="1.00" d=" M 71.70 46.66 C 74.51 43.68 79.59 44.05 82.34 46.93 C 82.70 49.64 82.44 52.39 82.53 55.12 C 78.80 57.29 74.27 57.11 70.27 55.84 C 69.77 52.77 69.35 49.11 71.70 46.66 M 74.34 48.89 C 74.33 50.21 74.31 51.53 74.30 52.85 C 75.39 52.72 76.49 52.59 77.58 52.45 C 77.92 52.00 78.59 51.09 78.92 50.64 C 77.44 49.94 75.91 49.36 74.34 48.89 Z" />
<path fill="#ffffff" opacity="1.00" d=" M 74.34 48.89 C 75.91 49.36 77.44 49.94 78.92 50.64 C 78.59 51.09 77.92 52.00 77.58 52.45 C 76.49 52.59 75.39 52.72 74.30 52.85 C 74.31 51.53 74.33 50.21 74.34 48.89 Z" />
<path fill="#000000" opacity="1.00" d=" M 90.02 106.54 C 89.82 101.61 95.57 101.27 99.12 100.70 C 112.76 99.46 126.34 102.25 139.97 102.64 C 138.57 103.97 137.16 105.56 135.12 105.77 C 129.76 106.56 124.36 105.56 118.98 105.51 C 109.32 105.43 99.65 105.69 90.02 106.54 Z" />
<path fill="#333333" opacity="1.00" d=" M 119.39 152.19 C 121.48 151.30 123.72 151.66 125.86 152.20 C 122.52 159.02 124.21 166.86 126.75 173.64 C 125.12 173.81 123.28 173.73 122.04 175.01 C 121.79 175.18 121.29 175.53 121.04 175.71 C 120.24 171.47 118.54 167.40 118.47 163.04 C 118.26 159.39 118.90 155.79 119.39 152.19 Z" />
<path fill="#ed1c24" opacity="1.00" d=" M 3.00 173.76 C 6.81 173.93 10.84 173.14 14.49 174.52 C 18.39 176.24 18.03 182.44 14.51 184.39 C 12.43 185.74 9.86 185.46 7.50 185.58 C 7.50 187.47 7.50 189.36 7.50 191.25 C 6.00 191.25 4.50 191.25 3.00 191.25 C 3.00 185.42 3.00 179.59 3.00 173.76 M 7.51 176.79 C 7.51 178.68 7.51 180.56 7.52 182.45 C 9.25 182.10 12.48 182.48 12.49 179.90 C 13.18 176.88 9.41 177.07 7.51 176.79 Z" />
<path fill="#ed1c24" opacity="1.00" d=" M 24.35 174.36 C 28.22 172.73 33.55 173.18 36.14 176.82 C 38.97 181.02 38.23 187.81 33.60 190.44 C 29.58 192.38 23.76 191.88 21.17 187.87 C 18.50 183.57 19.39 176.61 24.35 174.36 M 26.35 177.53 C 23.17 180.41 23.78 188.18 28.93 188.29 C 33.00 187.97 33.72 182.69 32.55 179.59 C 31.89 176.98 28.42 175.78 26.35 177.53 Z" />
<path fill="#ed1c24" opacity="1.00" d=" M 41.00 173.75 C 42.50 173.75 44.00 173.75 45.50 173.75 C 45.50 176.37 45.50 179.00 45.49 181.63 C 47.57 178.99 49.66 176.36 51.78 173.75 C 53.52 173.74 55.27 173.74 57.02 173.74 C 54.71 176.43 52.42 179.14 50.13 181.84 C 52.48 184.99 54.86 188.13 57.26 191.24 C 55.39 191.25 53.51 191.25 51.64 191.26 C 49.84 188.84 48.04 186.40 46.06 184.12 C 45.45 186.44 45.43 188.86 45.45 191.25 C 43.97 191.25 42.49 191.25 41.00 191.25 C 41.00 185.42 41.00 179.58 41.00 173.75 Z" />
<path fill="#ed1c24" opacity="1.00" d=" M 59.50 191.25 C 59.50 185.42 59.49 179.58 59.50 173.75 C 63.75 173.75 68.00 173.75 72.25 173.75 C 72.25 174.62 72.25 176.38 72.25 177.25 C 69.50 177.25 66.75 177.25 64.00 177.25 C 64.00 178.00 64.00 179.50 64.00 180.24 C 66.58 180.24 69.17 180.25 71.75 180.25 C 71.75 181.41 71.75 182.58 71.75 183.75 C 69.17 183.75 66.58 183.76 64.00 183.76 C 64.00 185.09 64.00 186.42 64.01 187.75 C 66.75 187.74 69.50 187.75 72.25 187.75 C 72.25 188.62 72.25 190.37 72.25 191.25 C 68.00 191.25 63.75 191.25 59.50 191.25 Z" />
<path fill="#ed1c24" opacity="1.00" d=" M 76.00 173.76 C 80.26 174.07 85.00 172.76 88.88 175.01 C 92.11 177.48 90.21 182.25 87.08 183.87 C 89.00 186.31 90.86 188.80 92.74 191.27 C 90.87 191.25 88.99 191.25 87.11 191.25 C 85.51 189.08 83.89 186.91 82.30 184.73 C 81.85 184.74 80.96 184.75 80.51 184.75 C 80.50 186.92 80.50 189.08 80.50 191.25 C 79.00 191.25 77.50 191.25 76.00 191.25 C 76.00 185.42 76.00 179.59 76.00 173.76 M 80.49 176.87 C 80.50 178.46 80.51 180.05 80.52 181.65 C 82.00 181.46 83.55 181.52 84.95 180.95 C 85.94 180.10 85.53 178.60 85.78 177.47 C 84.02 177.22 82.26 177.03 80.49 176.87 Z" />
<path fill="#ed1c24" opacity="1.00" d=" M 103.00 173.75 C 107.08 173.75 111.17 173.75 115.25 173.75 C 115.25 174.62 115.25 176.37 115.25 177.25 C 112.66 177.25 110.08 177.25 107.49 177.26 C 107.50 178.34 107.50 179.42 107.51 180.50 C 109.90 180.50 112.29 180.49 114.69 180.47 C 114.72 181.64 114.76 182.81 114.79 183.98 C 112.35 183.99 109.92 184.02 107.48 184.04 C 107.49 186.44 107.50 188.85 107.51 191.25 C 106.00 191.25 104.50 191.25 103.00 191.25 C 103.00 185.42 103.00 179.58 103.00 173.75 Z" />
<path fill="#ed1c24" opacity="1.00" d=" M 122.04 175.01 C 123.28 173.73 125.12 173.81 126.75 173.64 L 128.20 173.54 C 130.34 179.43 132.55 185.29 134.71 191.16 C 133.59 191.23 131.34 191.37 130.22 191.45 C 129.85 190.61 129.50 189.78 129.16 188.94 L 128.78 187.77 C 127.24 187.77 125.70 187.76 124.17 187.76 C 123.67 187.76 122.68 187.76 122.19 187.76 C 121.81 188.92 121.43 190.08 121.05 191.25 C 119.54 191.25 118.03 191.25 116.53 191.26 C 118.28 185.81 120.97 180.65 122.04 175.01 M 123.44 184.44 C 124.85 184.44 126.25 184.47 127.66 184.51 C 126.93 182.49 126.19 180.46 125.43 178.45 C 124.75 180.44 124.09 182.44 123.44 184.44 Z" />
<path fill="#ed1c24" opacity="1.00" d=" M 141.15 190.82 C 134.16 188.12 134.64 175.91 141.96 173.93 C 144.98 172.84 148.12 173.81 151.01 174.82 C 151.01 176.34 151.01 177.86 151.03 179.39 C 148.98 178.16 146.70 176.30 144.14 177.21 C 139.48 178.83 139.92 187.47 145.11 187.97 C 147.36 188.39 149.16 186.63 151.02 185.68 C 151.01 187.17 151.00 188.67 151.00 190.17 C 147.86 191.28 144.36 192.25 141.15 190.82 Z" />
<path fill="#ed1c24" opacity="1.00" d=" M 154.50 191.25 C 154.49 185.42 154.49 179.58 154.50 173.75 C 158.75 173.75 163.00 173.75 167.25 173.75 C 167.25 174.63 167.25 176.38 167.25 177.25 C 164.50 177.25 161.75 177.25 159.00 177.25 C 159.00 178.00 159.00 179.50 159.00 180.24 C 161.58 180.24 164.17 180.25 166.75 180.25 C 166.75 181.41 166.75 182.58 166.75 183.75 C 164.17 183.75 161.58 183.76 159.00 183.75 C 159.00 185.08 159.00 186.42 159.01 187.75 C 161.75 187.74 164.50 187.75 167.25 187.75 C 167.25 188.62 167.25 190.38 167.25 191.25 C 163.00 191.25 158.75 191.25 154.50 191.25 Z" />
<path fill="#ffffff" opacity="1.00" d=" M 7.51 176.79 C 9.41 177.07 13.18 176.88 12.49 179.90 C 12.48 182.48 9.25 182.10 7.52 182.45 C 7.51 180.56 7.51 178.68 7.51 176.79 Z" />
<path fill="#ffffff" opacity="1.00" d=" M 26.35 177.53 C 28.42 175.78 31.89 176.98 32.55 179.59 C 33.72 182.69 33.00 187.97 28.93 188.29 C 23.78 188.18 23.17 180.41 26.35 177.53 Z" />
<path fill="#ffffff" opacity="1.00" d=" M 80.49 176.87 C 82.26 177.03 84.02 177.22 85.78 177.47 C 85.53 178.60 85.94 180.10 84.95 180.95 C 83.55 181.52 82.00 181.46 80.52 181.65 C 80.51 180.05 80.50 178.46 80.49 176.87 Z" />
<path fill="#333333" opacity="1.00" d=" M 123.44 184.44 C 124.09 182.44 124.75 180.44 125.43 178.45 C 126.19 180.46 126.93 182.49 127.66 184.51 C 126.25 184.47 124.85 184.44 123.44 184.44 Z" />
<path fill="#333333" opacity="1.00" d=" M 124.17 187.76 C 125.70 187.76 127.24 187.77 128.78 187.77 L 129.16 188.94 C 129.25 190.33 129.33 191.73 129.41 193.13 C 127.80 193.31 125.40 194.66 124.41 192.69 C 123.66 191.17 124.26 189.38 124.17 187.76 Z" />
</svg>
