<?xml version="1.0" encoding="UTF-8" ?>
<!DOCTYPE svg PUBLIC "-//W3C//DTD SVG 1.1//EN" "http://www.w3.org/Graphics/SVG/1.1/DTD/svg11.dtd">
<svg width="672pt" height="1042pt" viewBox="0 0 672 1042" version="1.1" xmlns="http://www.w3.org/2000/svg">
<path fill="#ffffff" opacity="1.00" d=" M 0.00 0.00 L 672.00 0.00 L 672.00 1042.00 L 300.41 1042.00 C 297.99 931.21 295.60 820.43 293.19 709.64 C 319.25 716.07 346.02 718.66 372.71 720.81 C 392.80 722.24 412.99 722.87 433.10 721.52 C 444.33 720.63 455.60 718.97 466.28 715.22 C 481.83 709.54 495.45 699.72 507.65 688.69 C 515.81 681.49 523.63 673.89 532.36 667.37 C 550.72 653.66 570.40 641.72 587.95 626.92 C 601.83 615.16 613.60 600.54 620.49 583.60 C 626.37 568.63 629.80 552.83 633.05 537.12 C 637.63 513.63 640.04 489.78 641.95 465.95 C 643.57 440.32 643.89 414.59 642.68 388.94 C 640.25 341.72 628.81 295.48 614.29 250.65 C 608.10 232.25 601.40 214.03 593.84 196.15 C 585.89 177.20 577.51 158.39 567.64 140.35 C 559.16 125.08 550.11 109.78 537.37 97.62 C 521.19 81.12 499.63 71.66 482.07 56.90 C 473.28 49.37 465.10 41.10 455.71 34.30 C 446.05 27.22 434.98 22.10 423.27 19.55 C 401.52 14.85 379.08 15.61 356.97 16.08 C 333.77 17.04 310.60 18.80 287.53 21.40 C 272.13 23.16 256.91 26.42 242.17 31.21 C 229.46 35.07 217.14 40.27 204.07 42.87 C 191.13 45.86 177.55 45.59 164.92 50.00 C 156.37 53.04 147.52 55.33 139.36 59.37 C 124.77 66.64 113.49 78.74 102.56 90.52 C 85.31 109.59 68.71 129.56 56.11 152.06 C 42.58 176.75 38.46 205.11 36.44 232.81 C 36.44 235.22 37.40 237.52 37.37 239.95 C 37.01 285.98 36.56 332.03 36.31 378.06 C 35.26 378.37 34.21 378.68 33.17 378.99 C 33.45 401.71 33.04 424.63 37.12 447.07 C 40.07 464.07 47.41 479.82 54.39 495.45 C 63.95 516.68 70.71 539.01 79.49 560.55 C 85.81 576.08 92.53 591.74 102.98 605.01 C 113.91 619.68 128.07 631.64 143.23 641.73 C 159.64 653.12 176.70 663.59 194.70 672.29 C 219.97 684.46 246.06 695.02 272.86 703.34 C 274.83 752.19 276.04 801.07 277.72 849.94 C 279.75 913.96 281.82 977.98 283.84 1042.00 L 0.00 1042.00 L 0.00 0.00 Z" />
<path fill="#000000" opacity="1.00" d=" M 287.53 21.40 C 310.60 18.80 333.77 17.04 356.97 16.08 C 379.08 15.61 401.52 14.85 423.27 19.55 C 434.98 22.10 446.05 27.22 455.71 34.30 C 465.10 41.10 473.28 49.37 482.07 56.90 C 499.63 71.66 521.19 81.12 537.37 97.62 C 550.11 109.78 559.16 125.08 567.64 140.35 C 577.51 158.39 585.89 177.20 593.84 196.15 C 601.40 214.03 608.10 232.25 614.29 250.65 C 628.81 295.48 640.25 341.72 642.68 388.94 C 643.89 414.59 643.57 440.32 641.95 465.95 C 640.04 489.78 637.63 513.63 633.05 537.12 C 629.80 552.83 626.37 568.63 620.49 583.60 C 613.60 600.54 601.83 615.16 587.95 626.92 C 570.40 641.72 550.72 653.66 532.36 667.37 C 523.63 673.89 515.81 681.49 507.65 688.69 C 495.45 699.72 481.83 709.54 466.28 715.22 C 455.60 718.97 444.33 720.63 433.10 721.52 C 412.99 722.87 392.80 722.24 372.71 720.81 C 346.02 718.66 319.25 716.07 293.19 709.64 C 295.60 820.43 297.99 931.21 300.41 1042.00 L 283.84 1042.00 C 281.82 977.98 279.75 913.96 277.72 849.94 C 276.04 801.07 274.83 752.19 272.86 703.34 C 246.06 695.02 219.97 684.46 194.70 672.29 C 176.70 663.59 159.64 653.12 143.23 641.73 C 128.07 631.64 113.91 619.68 102.98 605.01 C 92.53 591.74 85.81 576.08 79.49 560.55 C 70.71 539.01 63.95 516.68 54.39 495.45 C 47.41 479.82 40.07 464.07 37.12 447.07 C 33.04 424.63 33.45 401.71 33.17 378.99 C 34.21 378.68 35.26 378.37 36.31 378.06 C 36.56 332.03 37.01 285.98 37.37 239.95 C 37.40 237.52 36.44 235.22 36.44 232.81 C 38.46 205.11 42.58 176.75 56.11 152.06 C 68.71 129.56 85.31 109.59 102.56 90.52 C 113.49 78.74 124.77 66.64 139.36 59.37 C 147.52 55.33 156.37 53.04 164.92 50.00 C 177.55 45.59 191.13 45.86 204.07 42.87 C 217.14 40.27 229.46 35.07 242.17 31.21 C 256.91 26.42 272.13 23.16 287.53 21.40 M 354.23 32.10 C 337.56 32.97 320.91 34.10 304.30 35.77 C 289.00 37.16 273.64 38.88 258.81 43.01 C 239.36 48.06 220.88 56.69 200.91 59.77 C 190.96 61.61 180.65 61.70 170.97 64.90 C 159.68 68.78 147.65 71.54 137.95 78.87 C 125.60 88.10 115.66 100.03 105.35 111.39 C 91.76 127.42 78.38 143.93 68.65 162.66 C 58.12 183.34 54.63 206.63 52.77 229.51 C 51.56 238.30 51.86 247.17 51.63 256.01 C 50.93 306.33 50.00 356.66 49.52 406.98 C 49.99 423.81 51.02 440.83 55.95 457.03 C 61.40 473.81 69.84 489.38 76.09 505.84 C 80.71 517.97 85.05 530.20 89.56 542.37 C 96.63 560.47 103.43 579.11 115.23 594.77 C 129.52 614.39 150.34 627.58 170.44 640.52 C 188.30 651.85 207.43 661.00 226.81 669.40 C 246.35 677.30 266.01 685.03 286.35 690.69 C 302.00 696.16 318.46 698.85 334.86 700.97 C 363.09 704.32 391.50 706.93 419.96 706.14 C 437.24 705.61 455.23 704.16 470.73 695.78 C 488.34 686.55 501.88 671.62 517.01 659.05 C 529.48 648.99 543.06 640.45 556.05 631.11 C 571.09 620.46 586.33 609.23 596.79 593.79 C 608.04 578.05 611.91 558.69 616.05 540.17 C 621.35 516.11 623.68 491.55 625.85 467.05 C 627.52 443.07 627.73 419.01 627.02 394.99 C 625.92 372.69 623.30 350.45 618.70 328.59 C 609.68 284.45 595.53 241.46 578.10 199.96 C 568.98 178.36 559.22 156.96 547.16 136.82 C 540.65 125.44 532.79 114.76 523.02 105.96 C 507.01 91.48 486.96 82.48 470.73 68.27 C 460.48 59.51 451.20 49.36 439.32 42.73 C 429.55 36.91 418.28 34.25 407.07 33.09 C 389.53 31.04 371.84 31.78 354.23 32.10 Z" />
<path fill="#ffffff" opacity="1.00" d=" M 354.23 32.10 C 371.84 31.78 389.53 31.04 407.07 33.09 C 418.28 34.25 429.55 36.91 439.32 42.73 C 451.20 49.36 460.48 59.51 470.73 68.27 C 486.96 82.48 507.01 91.48 523.02 105.96 C 532.79 114.76 540.65 125.44 547.16 136.82 C 559.22 156.96 568.98 178.36 578.10 199.96 C 595.53 241.46 609.68 284.45 618.70 328.59 C 623.30 350.45 625.92 372.69 627.02 394.99 C 627.73 419.01 627.52 443.07 625.85 467.05 C 623.68 491.55 621.35 516.11 616.05 540.17 C 611.91 558.69 608.04 578.05 596.79 593.79 C 586.33 609.23 571.09 620.46 556.05 631.11 C 543.06 640.45 529.48 648.99 517.01 659.05 C 501.88 671.62 488.34 686.55 470.73 695.78 C 455.23 704.16 437.24 705.61 419.96 706.14 C 391.50 706.93 363.09 704.32 334.86 700.97 C 318.46 698.85 302.00 696.16 286.35 690.69 C 266.01 685.03 246.35 677.30 226.81 669.40 C 207.43 661.00 188.30 651.85 170.44 640.52 C 150.34 627.58 129.52 614.39 115.23 594.77 C 103.43 579.11 96.63 560.47 89.56 542.37 C 85.05 530.20 80.71 517.97 76.09 505.84 C 69.84 489.38 61.40 473.81 55.95 457.03 C 51.02 440.83 49.99 423.81 49.52 406.98 C 50.00 356.66 50.93 306.33 51.63 256.01 C 51.86 247.17 51.56 238.30 52.77 229.51 C 54.63 206.63 58.12 183.34 68.65 162.66 C 78.38 143.93 91.76 127.42 105.35 111.39 C 115.66 100.03 125.60 88.10 137.95 78.87 C 147.65 71.54 159.68 68.78 170.97 64.90 C 180.65 61.70 190.96 61.61 200.91 59.77 C 220.88 56.69 239.36 48.06 258.81 43.01 C 273.64 38.88 289.00 37.16 304.30 35.77 C 320.91 34.10 337.56 32.97 354.23 32.10 M 493.22 233.19 C 490.91 236.96 490.02 241.61 490.75 245.97 C 491.50 249.84 495.37 251.83 498.73 253.09 C 509.45 256.82 520.80 258.14 532.04 259.14 C 536.29 259.21 540.93 259.98 544.75 257.62 C 544.94 254.56 543.83 251.51 541.65 249.35 C 537.25 245.60 530.45 245.52 526.72 240.90 C 525.98 237.25 528.86 233.97 528.87 230.29 C 522.47 226.90 514.91 228.27 507.96 228.03 C 502.88 228.61 496.34 228.31 493.22 233.19 M 150.66 271.66 C 146.27 275.69 143.82 281.46 142.51 287.17 C 141.47 293.29 140.89 300.19 144.21 305.74 C 146.70 309.85 151.87 310.65 156.17 311.62 C 164.03 312.83 172.15 313.35 180.02 312.21 C 185.57 310.86 185.61 304.16 186.69 299.68 C 188.86 306.41 186.08 313.85 188.50 320.58 C 189.79 323.03 192.10 325.33 194.99 325.56 C 197.43 325.00 197.76 322.19 198.19 320.15 C 199.83 309.25 200.75 298.15 199.73 287.15 C 199.06 282.41 198.16 277.01 193.95 274.06 C 186.98 269.30 178.22 268.34 170.01 267.99 C 163.49 268.08 156.03 267.12 150.66 271.66 M 580.33 337.34 C 561.23 338.37 542.18 341.02 523.60 345.63 C 498.52 351.67 473.86 359.38 448.63 364.82 C 425.04 370.10 400.86 371.64 376.88 374.22 C 357.47 376.34 338.22 379.73 319.05 383.39 C 291.34 388.42 263.78 394.24 236.00 398.86 C 209.47 403.40 182.60 406.02 156.36 412.21 C 147.32 414.40 137.99 416.25 129.75 420.77 C 124.64 423.44 122.62 430.97 126.60 435.43 C 129.42 438.67 134.17 438.64 138.05 437.83 C 144.83 436.35 151.37 433.96 158.07 432.17 C 175.94 427.17 194.36 424.68 212.58 421.31 C 239.91 416.62 267.24 411.95 294.59 407.42 C 319.37 403.10 344.04 398.26 368.80 393.82 C 391.31 389.74 414.00 386.70 436.68 383.74 C 461.17 380.35 485.89 377.63 509.74 370.87 C 526.54 366.08 542.99 359.41 560.53 357.81 C 572.32 356.21 584.31 356.32 596.01 354.06 C 600.76 353.13 606.32 350.28 606.99 344.97 C 607.43 341.26 603.97 338.69 600.69 338.11 C 594.00 336.69 587.11 337.33 580.33 337.34 M 383.95 417.94 C 369.53 419.47 354.96 420.37 340.80 423.67 C 335.37 424.84 330.29 429.27 329.85 435.04 C 329.55 437.43 331.11 439.79 333.36 440.59 C 337.05 441.87 341.03 441.07 344.79 440.57 C 359.65 437.95 374.28 434.16 389.10 431.33 C 396.98 429.84 405.08 429.56 413.04 430.58 C 418.29 430.98 423.54 432.01 428.81 431.52 C 432.27 431.25 435.57 428.84 436.30 425.35 C 437.49 419.19 435.49 413.06 434.04 407.14 C 417.34 410.71 400.66 414.44 383.95 417.94 Z" />
<path fill="#000000" opacity="1.00" d=" M 493.22 233.19 C 496.34 228.31 502.88 228.61 507.96 228.03 C 514.91 228.27 522.47 226.90 528.87 230.29 C 528.86 233.97 525.98 237.25 526.72 240.90 C 530.45 245.52 537.25 245.60 541.65 249.35 C 543.83 251.51 544.94 254.56 544.75 257.62 C 540.93 259.98 536.29 259.21 532.04 259.14 C 520.80 258.14 509.45 256.82 498.73 253.09 C 495.37 251.83 491.50 249.84 490.75 245.97 C 490.02 241.61 490.91 236.96 493.22 233.19 Z" />
<path fill="#000000" opacity="1.00" d=" M 150.66 271.66 C 156.03 267.12 163.49 268.08 170.01 267.99 C 178.22 268.34 186.98 269.30 193.95 274.06 C 198.16 277.01 199.06 282.41 199.73 287.15 C 200.75 298.15 199.83 309.25 198.19 320.15 C 197.76 322.19 197.43 325.00 194.99 325.56 C 192.10 325.33 189.79 323.03 188.50 320.58 C 186.08 313.85 188.86 306.41 186.69 299.68 C 185.61 304.16 185.57 310.86 180.02 312.21 C 172.15 313.35 164.03 312.83 156.17 311.62 C 151.87 310.65 146.70 309.85 144.21 305.74 C 140.89 300.19 141.47 293.29 142.51 287.17 C 143.82 281.46 146.27 275.69 150.66 271.66 Z" />
<path fill="#000000" opacity="1.00" d=" M 580.33 337.34 C 587.11 337.33 594.00 336.69 600.69 338.11 C 603.97 338.69 607.43 341.26 606.99 344.97 C 606.32 350.28 600.76 353.13 596.01 354.06 C 584.31 356.32 572.32 356.21 560.53 357.81 C 542.99 359.41 526.54 366.08 509.74 370.87 C 485.89 377.63 461.17 380.35 436.68 383.74 C 414.00 386.70 391.31 389.74 368.80 393.82 C 344.04 398.26 319.37 403.10 294.59 407.42 C 267.24 411.95 239.91 416.62 212.58 421.31 C 194.36 424.68 175.94 427.17 158.07 432.17 C 151.37 433.96 144.83 436.35 138.05 437.83 C 134.17 438.64 129.42 438.67 126.60 435.43 C 122.62 430.97 124.64 423.44 129.75 420.77 C 137.99 416.25 147.32 414.40 156.36 412.21 C 182.60 406.02 209.47 403.40 236.00 398.86 C 263.78 394.24 291.34 388.42 319.05 383.39 C 338.22 379.73 357.47 376.34 376.88 374.22 C 400.86 371.64 425.04 370.10 448.63 364.82 C 473.86 359.38 498.52 351.67 523.60 345.63 C 542.18 341.02 561.23 338.37 580.33 337.34 Z" />
<path fill="#000000" opacity="1.00" d=" M 383.95 417.94 C 400.66 414.44 417.34 410.71 434.04 407.14 C 435.49 413.06 437.49 419.19 436.30 425.35 C 435.57 428.84 432.27 431.25 428.81 431.52 C 423.54 432.01 418.29 430.98 413.04 430.58 C 405.08 429.56 396.98 429.84 389.10 431.33 C 374.28 434.16 359.65 437.95 344.79 440.57 C 341.03 441.07 337.05 441.87 333.36 440.59 C 331.11 439.79 329.55 437.43 329.85 435.04 C 330.29 429.27 335.37 424.84 340.80 423.67 C 354.96 420.37 369.53 419.47 383.95 417.94 Z" />
</svg>
