<?xml version="1.0" encoding="UTF-8" ?>
<!DOCTYPE svg PUBLIC "-//W3C//DTD SVG 1.1//EN" "http://www.w3.org/Graphics/SVG/1.1/DTD/svg11.dtd">
<svg width="413pt" height="379pt" viewBox="0 0 413 379" version="1.1" xmlns="http://www.w3.org/2000/svg">
<path fill="#ffffff" opacity="1.00" d=" M 0.00 0.00 L 413.00 0.00 L 413.00 379.00 L 0.00 379.00 L 0.00 0.00 M 107.72 21.97 C 89.86 28.97 72.20 38.27 59.46 52.95 C 77.30 72.97 88.59 97.61 103.87 119.45 C 97.71 122.44 91.32 124.93 84.89 127.26 C 74.38 130.99 63.86 134.76 53.89 139.78 C 53.03 145.11 55.02 150.20 57.58 154.75 C 74.43 151.72 89.24 142.46 105.71 138.17 C 103.37 151.90 98.50 165.11 96.78 178.97 C 95.17 191.66 98.05 204.69 104.00 215.94 C 112.45 230.37 128.24 237.49 141.63 246.40 C 149.11 251.46 157.20 258.24 157.68 268.00 C 157.09 274.43 152.59 279.51 150.10 285.26 C 146.36 292.78 146.58 301.50 143.42 309.23 C 142.47 311.42 141.04 313.56 138.86 314.68 C 136.50 316.18 133.66 315.45 131.05 315.47 C 138.34 316.43 145.72 316.49 153.05 316.92 C 195.71 318.62 238.34 315.12 281.00 315.70 C 297.65 315.43 314.41 316.40 330.96 314.09 C 318.53 310.73 305.61 313.45 292.99 313.85 C 284.97 314.62 276.89 314.42 268.88 313.67 C 268.69 304.67 266.82 295.74 263.76 287.28 C 259.27 274.32 251.91 262.47 248.40 249.15 C 252.59 249.28 256.66 250.67 260.18 252.93 C 264.81 255.71 268.66 259.91 273.96 261.48 C 280.61 263.50 288.05 260.69 292.47 255.50 C 299.24 247.67 302.63 237.69 307.80 228.85 C 311.12 222.87 315.51 217.05 321.89 214.13 C 322.99 215.58 323.88 217.47 325.78 218.02 C 329.35 219.29 333.15 219.92 336.51 221.75 C 334.47 220.17 334.37 217.51 334.01 215.17 C 335.76 215.21 337.51 215.29 339.27 215.37 C 339.91 214.22 340.55 213.07 341.17 211.91 C 335.69 208.76 329.44 205.77 322.94 206.97 C 317.45 207.78 313.26 211.85 309.94 216.00 C 304.53 222.94 301.00 231.07 296.35 238.49 C 292.39 245.05 287.45 251.70 280.00 254.47 C 269.33 247.82 256.08 247.15 245.52 240.30 C 241.91 238.04 239.33 234.57 237.33 230.88 C 247.24 221.26 255.12 209.37 258.95 196.02 C 262.47 184.61 263.54 172.57 263.25 160.67 C 265.99 162.00 268.87 163.33 271.99 163.26 C 278.78 163.08 284.88 159.82 290.81 156.85 C 290.94 151.52 291.53 146.10 290.21 140.87 C 287.67 139.38 284.16 138.50 281.84 140.88 C 279.76 144.68 283.74 147.98 285.16 151.20 C 280.84 153.69 275.58 154.52 270.77 153.11 C 266.69 151.82 262.89 149.73 259.50 147.15 C 259.22 134.24 253.88 121.43 244.35 112.62 C 237.53 106.08 229.13 101.60 220.89 97.15 C 232.03 91.00 245.01 90.22 257.04 86.72 C 262.64 85.03 268.32 82.75 272.47 78.47 C 275.71 75.03 277.77 70.48 277.92 65.73 C 263.54 65.79 249.58 69.97 236.27 75.11 C 231.12 77.14 225.80 78.71 220.63 80.69 L 220.50 80.39 C 218.22 81.16 215.90 81.85 213.55 82.36 C 211.41 80.04 210.00 77.17 208.35 74.51 C 197.99 56.42 191.57 36.35 180.75 18.50 C 177.40 12.87 173.37 7.66 168.94 2.83 C 148.45 8.95 127.67 14.21 107.72 21.97 M 195.55 332.70 C 195.42 345.09 195.56 357.47 195.48 369.86 C 198.25 369.90 201.02 369.93 203.79 369.96 C 203.88 366.01 203.55 362.03 203.95 358.09 C 204.68 356.52 205.86 355.23 206.90 353.87 C 209.82 359.28 213.04 364.51 215.92 369.94 C 219.16 369.96 222.41 369.92 225.66 369.86 C 221.62 363.22 217.63 356.55 213.65 349.87 C 212.41 348.45 214.34 347.02 214.98 345.84 C 218.34 341.49 221.78 337.21 225.00 332.76 C 221.62 332.70 218.24 332.74 214.86 332.70 C 211.22 338.17 207.40 343.51 203.94 349.08 C 203.62 343.62 203.87 338.14 203.74 332.68 C 201.01 332.71 198.28 332.71 195.55 332.70 M 323.57 332.93 C 318.56 334.43 314.74 339.83 316.01 345.08 C 316.69 348.68 319.55 351.50 322.80 352.97 C 325.31 354.65 328.28 355.55 330.69 357.37 C 332.62 358.79 331.99 362.14 329.77 362.92 C 325.45 364.53 320.88 362.79 316.82 361.21 C 316.12 363.78 315.04 366.42 315.65 369.13 C 322.16 370.85 329.63 372.05 335.74 368.43 C 341.56 365.11 342.48 355.94 337.57 351.44 C 334.36 348.20 329.55 347.69 325.88 345.23 C 323.94 343.89 323.70 340.73 325.96 339.58 C 329.53 337.42 333.85 339.15 337.39 340.51 C 338.09 338.38 338.77 336.25 339.47 334.12 C 334.57 331.73 328.78 331.44 323.57 332.93 M 25.70 332.71 C 25.70 345.11 25.69 357.51 25.71 369.91 C 28.51 369.96 31.32 369.97 34.13 369.90 C 34.09 364.91 34.04 359.92 34.12 354.93 C 38.56 354.92 43.01 354.91 47.46 354.85 C 47.44 352.69 47.44 350.53 47.45 348.37 C 43.06 348.24 38.68 348.25 34.29 348.40 C 34.10 345.47 34.05 342.54 34.04 339.61 C 38.78 339.68 43.54 339.49 48.27 339.90 C 48.36 337.48 48.38 335.06 48.36 332.64 C 40.81 332.83 33.25 332.73 25.70 332.71 M 54.29 332.85 C 54.46 345.21 54.40 357.59 54.31 369.96 C 62.16 370.13 70.01 369.98 77.86 370.02 C 77.85 367.72 77.84 365.43 77.85 363.14 C 72.76 363.11 67.67 363.40 62.59 362.92 C 62.64 360.11 62.64 357.30 62.59 354.50 C 67.19 354.50 71.78 354.50 76.38 354.49 C 76.36 352.28 76.53 350.04 76.12 347.87 C 71.61 347.67 67.08 347.82 62.57 347.76 C 62.63 345.05 62.65 342.34 62.67 339.64 C 67.52 339.67 72.37 339.65 77.22 339.60 C 77.23 337.38 77.25 335.16 77.31 332.95 C 69.65 332.54 61.96 332.75 54.29 332.85 M 83.64 332.70 C 83.67 345.09 83.69 357.47 83.61 369.86 C 91.52 370.21 99.44 369.97 107.35 369.90 C 107.33 367.65 107.31 365.40 107.31 363.16 C 102.24 363.16 97.17 363.15 92.11 363.21 C 92.02 360.29 92.03 357.38 92.12 354.47 C 96.62 354.50 101.12 354.49 105.62 354.50 C 105.63 352.25 105.63 350.01 105.62 347.78 C 101.06 347.81 96.50 347.83 91.93 347.77 C 91.97 345.06 92.03 342.34 92.08 339.63 C 96.88 339.67 101.69 339.66 106.50 339.64 C 106.46 337.31 106.43 334.99 106.38 332.67 C 98.80 332.80 91.22 332.74 83.64 332.70 M 113.15 332.70 C 113.22 345.15 113.13 357.61 113.21 370.07 C 120.78 370.10 128.37 369.81 135.94 370.25 C 137.02 368.09 136.93 365.60 136.50 363.29 C 136.28 363.12 135.85 362.78 135.63 362.61 C 130.89 362.40 126.08 362.24 121.39 363.08 C 121.22 352.97 121.34 342.85 121.33 332.74 C 118.60 332.72 115.88 332.71 113.15 332.70 M 151.74 332.75 C 151.80 345.12 151.82 357.48 151.71 369.85 C 159.37 370.08 167.03 369.99 174.68 370.08 C 174.71 367.76 174.71 365.44 174.68 363.12 C 169.87 363.18 165.05 363.20 160.24 363.11 C 160.17 352.97 160.17 342.83 160.25 332.69 C 157.41 332.70 154.57 332.72 151.74 332.75 M 180.47 369.88 C 183.21 369.96 185.95 369.99 188.68 369.99 C 188.79 357.59 188.65 345.20 188.76 332.80 C 186.02 332.75 183.28 332.71 180.54 332.64 C 180.39 345.06 180.49 357.47 180.47 369.88 M 229.64 332.75 C 229.56 345.18 229.57 357.61 229.63 370.04 C 237.52 369.96 245.42 370.21 253.32 369.85 C 253.28 367.62 253.26 365.40 253.25 363.18 C 248.16 363.19 243.07 363.15 237.98 363.16 C 237.91 360.27 237.91 357.38 237.95 354.50 C 242.47 354.49 246.99 354.50 251.52 354.52 C 251.55 352.30 251.59 350.09 251.63 347.87 C 247.08 347.72 242.53 347.81 237.98 347.82 C 237.93 345.10 237.91 342.38 237.93 339.66 C 242.77 339.66 247.61 339.65 252.45 339.63 C 252.40 337.32 252.36 335.01 252.32 332.71 C 244.76 332.76 237.20 332.74 229.64 332.75 M 278.34 332.84 C 274.79 345.22 271.01 357.54 267.24 369.86 C 270.15 369.91 273.06 369.93 275.97 369.90 C 276.79 366.79 277.62 363.69 278.30 360.55 C 281.89 360.48 285.48 360.48 289.08 360.50 C 289.95 363.61 290.92 366.70 291.76 369.82 C 294.90 369.98 298.05 369.99 301.19 369.77 C 296.72 357.61 293.43 345.05 289.42 332.73 C 285.73 332.72 282.03 332.71 278.34 332.84 M 346.28 370.08 C 349.02 370.03 351.75 369.94 354.49 369.90 C 354.44 357.50 354.47 345.11 354.49 332.71 C 351.79 332.72 349.09 332.72 346.40 332.66 C 346.14 345.13 346.33 357.60 346.28 370.08 M 362.18 333.48 C 362.19 345.61 362.16 357.73 362.20 369.86 C 364.90 369.93 367.61 370.04 370.31 370.15 C 370.36 365.29 370.32 360.42 370.31 355.56 C 372.64 355.86 375.81 355.24 377.32 357.54 C 379.21 361.28 379.89 365.50 380.91 369.54 C 383.84 370.05 386.82 370.13 389.80 370.08 C 388.51 365.71 387.71 361.18 385.97 356.96 C 385.36 355.12 383.71 354.02 382.29 352.86 C 383.98 351.71 385.82 350.64 386.98 348.90 C 389.39 345.26 389.10 340.05 386.33 336.69 C 384.40 334.43 381.35 333.65 378.56 333.11 C 373.12 332.25 367.60 332.87 362.18 333.48 Z" />
<path fill="#000000" opacity="1.00" d=" M 107.72 21.97 C 127.67 14.21 148.45 8.95 168.94 2.83 C 173.37 7.66 177.40 12.87 180.75 18.50 C 191.57 36.35 197.99 56.42 208.35 74.51 C 210.00 77.17 211.41 80.04 213.55 82.36 C 215.90 81.85 218.22 81.16 220.50 80.39 L 220.63 80.69 C 221.20 82.03 221.79 83.37 222.37 84.70 C 221.77 84.99 220.58 85.55 219.99 85.84 C 221.90 86.60 223.86 87.26 225.83 87.86 C 225.81 88.24 225.76 89.00 225.74 89.38 C 224.67 89.78 223.60 90.18 222.54 90.59 C 222.20 91.81 221.86 93.03 221.52 94.25 C 219.26 94.72 217.01 95.25 214.78 95.84 C 214.63 98.96 213.81 102.30 215.53 105.16 C 206.07 104.70 196.70 106.84 187.80 109.90 C 172.87 115.27 158.10 121.12 143.68 127.76 C 138.16 126.88 132.39 126.48 126.93 127.90 C 126.10 130.22 125.81 132.69 125.10 135.05 C 122.57 135.48 119.99 135.31 117.44 135.34 C 117.37 137.31 117.30 139.27 117.24 141.24 C 115.20 142.75 113.14 144.24 111.07 145.71 C 110.67 145.47 109.87 144.97 109.47 144.72 C 109.41 141.70 111.18 137.68 108.70 135.34 C 105.34 134.96 101.97 135.58 98.68 136.21 C 97.78 136.81 96.92 137.46 95.95 137.93 C 92.62 137.79 89.37 136.26 86.88 134.08 C 85.53 132.09 85.44 129.54 84.89 127.26 C 91.32 124.93 97.71 122.44 103.87 119.45 C 88.59 97.61 77.30 72.97 59.46 52.95 C 72.20 38.27 89.86 28.97 107.72 21.97 Z" />
<path fill="#020202" opacity="1.00" d=" M 236.27 75.11 C 249.58 69.97 263.54 65.79 277.92 65.73 C 277.77 70.48 275.71 75.03 272.47 78.47 C 268.32 82.75 262.64 85.03 257.04 86.72 C 245.01 90.22 232.03 91.00 220.89 97.15 C 229.13 101.60 237.53 106.08 244.35 112.62 C 253.88 121.43 259.22 134.24 259.50 147.15 C 262.89 149.73 266.69 151.82 270.77 153.11 C 275.58 154.52 280.84 153.69 285.16 151.20 C 283.74 147.98 279.76 144.68 281.84 140.88 C 284.16 138.50 287.67 139.38 290.21 140.87 C 291.53 146.10 290.94 151.52 290.81 156.85 C 284.88 159.82 278.78 163.08 271.99 163.26 C 268.87 163.33 265.99 162.00 263.25 160.67 C 263.54 172.57 262.47 184.61 258.95 196.02 C 255.12 209.37 247.24 221.26 237.33 230.88 C 239.33 234.57 241.91 238.04 245.52 240.30 C 256.08 247.15 269.33 247.82 280.00 254.47 C 287.45 251.70 292.39 245.05 296.35 238.49 C 301.00 231.07 304.53 222.94 309.94 216.00 C 313.26 211.85 317.45 207.78 322.94 206.97 C 329.44 205.77 335.69 208.76 341.17 211.91 C 340.55 213.07 339.91 214.22 339.27 215.37 C 337.51 215.29 335.76 215.21 334.01 215.17 C 334.37 217.51 334.47 220.17 336.51 221.75 C 333.15 219.92 329.35 219.29 325.78 218.02 C 323.88 217.47 322.99 215.58 321.89 214.13 C 315.51 217.05 311.12 222.87 307.80 228.85 C 302.63 237.69 299.24 247.67 292.47 255.50 C 288.05 260.69 280.61 263.50 273.96 261.48 C 268.66 259.91 264.81 255.71 260.18 252.93 C 256.66 250.67 252.59 249.28 248.40 249.15 C 251.91 262.47 259.27 274.32 263.76 287.28 C 266.82 295.74 268.69 304.67 268.88 313.67 C 276.89 314.42 284.97 314.62 292.99 313.85 C 305.61 313.45 318.53 310.73 330.96 314.09 C 314.41 316.40 297.65 315.43 281.00 315.70 C 238.34 315.12 195.71 318.62 153.05 316.92 C 145.72 316.49 138.34 316.43 131.05 315.47 C 133.66 315.45 136.50 316.18 138.86 314.68 C 141.04 313.56 142.47 311.42 143.42 309.23 C 146.58 301.50 146.36 292.78 150.10 285.26 C 152.59 279.51 157.09 274.43 157.68 268.00 C 157.20 258.24 149.11 251.46 141.63 246.40 C 128.24 237.49 112.45 230.37 104.00 215.94 C 98.05 204.69 95.17 191.66 96.78 178.97 C 98.50 165.11 103.37 151.90 105.71 138.17 C 89.24 142.46 74.43 151.72 57.58 154.75 C 55.02 150.20 53.03 145.11 53.89 139.78 C 63.86 134.76 74.38 130.99 84.89 127.26 C 85.44 129.54 85.53 132.09 86.88 134.08 C 89.37 136.26 92.62 137.79 95.95 137.93 C 96.92 137.46 97.78 136.81 98.68 136.21 C 101.97 135.58 105.34 134.96 108.70 135.34 C 111.18 137.68 109.41 141.70 109.47 144.72 C 109.87 144.97 110.67 145.47 111.07 145.71 C 113.14 144.24 115.20 142.75 117.24 141.24 C 117.30 139.27 117.37 137.31 117.44 135.34 C 119.99 135.31 122.57 135.48 125.10 135.05 C 125.81 132.69 126.10 130.22 126.93 127.90 C 132.39 126.48 138.16 126.88 143.68 127.76 C 136.33 131.47 128.78 134.97 122.22 140.02 C 118.39 142.97 115.88 147.22 113.73 151.46 C 109.70 159.38 108.05 168.25 107.61 177.06 C 107.17 192.54 111.67 208.79 122.75 220.04 C 120.64 202.59 120.87 184.68 115.48 167.77 C 122.46 160.18 126.96 150.60 134.50 143.49 C 139.78 138.50 146.69 135.31 153.90 134.48 C 158.14 134.04 162.40 134.37 166.65 134.32 C 166.95 131.33 165.92 128.49 165.60 125.56 L 166.89 125.66 C 168.97 128.17 170.31 131.18 171.75 134.07 C 176.61 144.59 179.89 156.31 178.35 167.97 C 177.55 174.02 174.54 180.05 169.24 183.33 C 162.40 187.49 153.50 188.08 146.21 184.74 C 136.60 180.52 129.67 172.20 120.57 167.14 C 120.58 182.90 125.59 198.19 125.59 213.95 C 125.60 217.13 124.96 220.26 124.31 223.36 C 133.35 229.07 142.00 235.91 152.50 238.76 C 163.41 241.62 174.80 241.80 186.01 241.38 C 202.88 240.20 219.95 234.99 233.18 224.15 C 247.97 212.43 256.36 193.93 257.78 175.33 C 258.65 169.54 258.86 163.61 257.63 157.86 C 253.86 157.67 249.77 157.04 246.33 159.03 C 241.76 161.66 239.61 166.74 237.16 171.16 C 230.31 172.45 223.37 174.44 216.33 173.48 C 213.15 173.11 210.21 171.63 207.03 171.33 C 204.78 172.09 203.02 173.80 201.38 175.44 C 195.47 181.72 191.75 189.67 185.97 196.04 C 183.40 198.84 179.91 201.46 175.90 201.06 C 171.20 200.31 168.03 196.46 165.07 193.09 C 167.18 190.58 169.73 187.33 173.43 187.82 C 175.83 189.87 175.82 193.66 177.84 196.12 C 181.40 186.04 185.47 175.83 192.63 167.70 C 197.31 162.46 203.82 158.36 211.02 158.19 C 216.36 158.01 221.40 160.04 226.23 162.08 C 228.15 157.39 231.26 153.07 235.78 150.62 C 241.37 147.43 248.01 147.14 254.29 147.37 C 253.51 137.39 251.38 127.06 245.07 119.02 C 238.20 109.93 226.71 105.36 215.53 105.16 C 213.81 102.30 214.63 98.96 214.78 95.84 C 217.01 95.25 219.26 94.72 221.52 94.25 C 221.86 93.03 222.20 91.81 222.54 90.59 C 223.60 90.18 224.67 89.78 225.74 89.38 C 225.76 89.00 225.81 88.24 225.83 87.86 C 223.86 87.26 221.90 86.60 219.99 85.84 C 220.58 85.55 221.77 84.99 222.37 84.70 C 221.79 83.37 221.20 82.03 220.63 80.69 C 225.80 78.71 231.12 77.14 236.27 75.11 M 135.38 172.87 C 137.91 174.53 139.77 176.94 141.96 178.99 C 142.70 178.94 144.18 178.83 144.92 178.78 C 150.79 165.53 161.31 154.30 163.58 139.57 C 160.09 137.39 155.95 137.65 152.02 137.76 C 148.00 150.15 140.79 161.10 135.38 172.87 M 131.86 157.80 C 132.02 160.00 132.65 162.15 133.19 164.28 C 137.64 156.96 143.47 149.98 144.95 141.31 C 137.65 143.31 132.42 150.36 131.86 157.80 M 151.84 169.87 C 150.08 173.65 147.98 177.26 146.31 181.07 C 153.90 175.32 158.34 166.59 162.41 158.21 C 164.68 153.16 167.11 148.17 169.10 143.00 C 161.15 150.34 156.66 160.40 151.84 169.87 M 163.57 159.83 C 159.34 167.28 154.55 174.54 151.95 182.77 C 161.78 181.52 169.31 173.45 172.76 164.56 C 175.19 158.83 175.32 151.57 170.87 146.76 C 168.41 151.11 166.19 155.58 163.57 159.83 M 174.64 163.77 C 172.19 168.36 168.26 172.20 166.88 177.31 C 172.64 176.35 177.27 169.21 174.64 163.77 M 227.56 236.34 C 227.22 239.33 227.50 242.37 228.20 245.29 C 228.48 250.37 229.72 255.42 231.98 259.99 C 234.38 264.42 238.31 268.25 243.26 269.64 C 243.84 266.91 244.53 263.80 242.89 261.28 C 240.43 257.55 236.54 255.16 233.29 252.21 C 234.11 248.57 237.15 245.93 237.64 242.20 C 236.02 241.22 234.82 239.80 233.95 238.14 C 233.42 237.09 233.26 235.59 231.93 235.22 C 230.41 235.08 228.29 234.51 227.56 236.34 M 223.10 237.17 C 222.72 237.68 221.97 238.71 221.59 239.22 C 219.82 239.74 218.06 240.28 216.33 240.91 C 219.26 242.85 221.28 245.82 224.17 247.81 C 223.88 244.30 226.11 239.91 223.10 237.17 M 172.16 245.33 C 173.05 249.36 174.15 253.66 177.30 256.57 C 179.98 259.52 183.70 261.14 187.46 262.23 C 187.97 267.02 183.54 270.21 183.31 274.84 C 187.00 277.40 189.56 281.18 192.99 284.03 C 194.02 285.04 195.56 284.57 196.84 284.72 C 190.72 274.54 193.54 262.04 189.68 251.18 C 188.87 248.99 187.48 247.11 186.09 245.27 C 181.45 245.27 176.80 245.22 172.16 245.33 M 190.37 245.39 C 191.19 248.10 192.32 250.71 193.28 253.37 C 194.57 252.96 195.91 252.64 197.15 252.06 C 198.91 250.29 198.57 247.61 198.78 245.34 C 195.98 245.26 193.17 245.26 190.37 245.39 M 209.41 244.85 C 209.56 249.62 208.40 254.84 210.70 259.25 C 211.78 261.65 214.55 261.81 216.79 262.31 C 216.06 258.29 218.36 254.81 218.97 250.98 C 216.37 249.98 215.07 247.47 213.16 245.65 C 212.23 245.45 210.35 245.05 209.41 244.85 M 153.64 248.84 C 158.30 255.98 163.47 262.85 167.12 270.60 C 172.47 281.65 174.11 294.34 172.35 306.45 C 175.71 306.41 179.09 306.28 182.42 306.84 C 186.65 307.55 190.74 308.95 195.04 309.27 C 198.09 309.54 201.09 308.79 204.11 308.48 C 202.69 310.16 201.20 311.79 199.77 313.47 C 202.97 313.80 206.18 314.26 209.41 314.23 C 209.42 312.84 209.69 311.36 208.99 310.09 C 205.88 302.92 199.80 297.75 194.63 292.12 C 189.75 286.98 184.34 281.67 182.65 274.53 C 181.87 271.47 182.73 268.36 183.80 265.50 C 181.09 265.99 177.78 266.60 175.62 264.40 C 172.81 261.05 173.79 256.31 172.41 252.42 C 167.28 248.49 159.75 244.89 153.64 248.84 M 223.97 252.21 C 223.43 256.08 222.98 260.05 223.91 263.90 C 226.02 273.09 231.65 280.97 234.07 290.06 C 234.94 293.09 235.20 296.23 235.51 299.36 C 237.25 297.14 239.23 294.91 239.82 292.07 C 241.00 286.97 239.87 281.62 237.92 276.86 C 234.18 268.15 228.67 260.39 223.97 252.21 M 198.42 259.62 C 194.87 269.41 196.15 280.44 199.89 289.98 C 201.96 295.10 205.56 300.92 211.73 301.16 C 209.69 299.15 207.63 296.96 207.00 294.05 C 204.72 285.18 207.89 275.98 206.17 267.06 C 205.66 265.15 204.94 263.11 203.35 261.83 C 201.82 260.86 200.09 260.29 198.42 259.62 M 243.60 276.05 C 243.02 285.39 244.14 294.76 243.58 304.11 C 243.35 307.50 242.18 310.73 240.83 313.83 C 248.97 313.91 257.11 313.82 265.25 313.86 C 262.27 296.81 256.46 280.28 248.13 265.11 C 245.77 268.33 243.81 271.98 243.60 276.05 M 216.72 270.96 C 214.57 278.79 214.29 287.41 217.10 295.12 C 218.74 299.47 221.89 303.27 226.30 305.00 C 231.11 298.50 230.66 289.65 227.95 282.41 C 226.01 277.30 222.48 272.03 216.72 270.96 M 148.25 314.21 C 151.06 314.28 154.03 314.65 156.63 313.31 C 159.63 311.76 162.27 309.61 165.30 308.11 C 165.08 300.70 165.99 293.14 164.06 285.89 C 163.47 283.42 161.65 281.58 159.86 279.91 C 153.90 290.49 151.08 302.50 148.25 314.21 M 229.02 307.04 C 227.30 308.91 227.78 311.60 227.60 313.92 C 230.90 314.20 234.37 314.82 237.60 313.85 C 237.73 313.12 237.98 311.67 238.11 310.94 C 239.17 308.07 239.95 304.98 239.30 301.92 C 238.24 301.26 237.15 300.66 236.02 300.14 C 233.99 302.74 231.21 304.60 229.02 307.04 M 211.42 309.36 C 211.43 309.65 211.44 310.22 211.45 310.51 C 215.43 314.37 221.36 314.51 226.56 314.15 C 226.17 312.72 226.36 310.92 225.01 309.96 C 221.19 307.01 215.51 306.84 211.42 309.36 Z" />
<path fill="#ffffff" opacity="1.00" d=" M 187.80 109.90 C 196.70 106.84 206.07 104.70 215.53 105.16 C 226.71 105.36 238.20 109.93 245.07 119.02 C 251.38 127.06 253.51 137.39 254.29 147.37 C 248.01 147.14 241.37 147.43 235.78 150.62 C 231.26 153.07 228.15 157.39 226.23 162.08 C 221.40 160.04 216.36 158.01 211.02 158.19 C 203.82 158.36 197.31 162.46 192.63 167.70 C 185.47 175.83 181.40 186.04 177.84 196.12 C 175.82 193.66 175.83 189.87 173.43 187.82 C 169.73 187.33 167.18 190.58 165.07 193.09 C 168.03 196.46 171.20 200.31 175.90 201.06 C 179.91 201.46 183.40 198.84 185.97 196.04 C 191.75 189.67 195.47 181.72 201.38 175.44 C 203.02 173.80 204.78 172.09 207.03 171.33 C 210.21 171.63 213.15 173.11 216.33 173.48 C 223.37 174.44 230.31 172.45 237.16 171.16 C 239.61 166.74 241.76 161.66 246.33 159.03 C 249.77 157.04 253.86 157.67 257.63 157.86 C 257.84 163.68 257.98 169.50 257.78 175.33 C 256.36 193.93 247.97 212.43 233.18 224.15 C 219.95 234.99 202.88 240.20 186.01 241.38 C 174.80 241.80 163.41 241.62 152.50 238.76 C 142.00 235.91 133.35 229.07 124.31 223.36 C 124.96 220.26 125.60 217.13 125.59 213.95 C 125.59 198.19 120.58 182.90 120.57 167.14 C 129.67 172.20 136.60 180.52 146.21 184.74 C 153.50 188.08 162.40 187.49 169.24 183.33 C 174.54 180.05 177.55 174.02 178.35 167.97 C 179.89 156.31 176.61 144.59 171.75 134.07 C 170.31 131.18 168.97 128.17 166.89 125.66 L 165.60 125.56 C 165.92 128.49 166.95 131.33 166.65 134.32 C 162.40 134.37 158.14 134.04 153.90 134.48 C 146.69 135.31 139.78 138.50 134.50 143.49 C 126.96 150.60 122.46 160.18 115.48 167.77 C 120.87 184.68 120.64 202.59 122.75 220.04 C 111.67 208.79 107.17 192.54 107.61 177.06 C 108.05 168.25 109.70 159.38 113.73 151.46 C 115.88 147.22 118.39 142.97 122.22 140.02 C 128.78 134.97 136.33 131.47 143.68 127.76 C 158.10 121.12 172.87 115.27 187.80 109.90 M 183.46 117.29 C 183.55 118.73 183.47 120.26 184.27 121.54 C 187.19 127.60 194.36 129.93 197.42 135.88 C 199.32 139.42 198.87 143.59 198.41 147.43 C 203.18 151.06 208.01 155.03 213.94 156.55 C 218.60 157.25 223.67 157.13 227.80 154.60 C 232.85 151.61 235.27 145.68 235.88 140.07 C 237.06 133.23 236.06 126.22 237.35 119.39 C 226.58 120.38 215.85 122.58 204.99 122.10 C 198.62 121.65 191.39 120.04 187.68 114.31 C 186.31 115.35 184.89 116.33 183.46 117.29 M 240.89 171.34 C 241.99 176.80 242.39 184.07 248.48 186.39 C 248.92 181.25 248.10 176.14 246.53 171.25 C 244.65 171.28 242.77 171.31 240.89 171.34 M 205.76 180.78 C 205.93 185.64 204.61 191.06 207.37 195.41 C 209.99 195.67 212.63 195.52 215.26 195.53 C 214.36 192.50 213.03 189.62 212.12 186.60 C 211.19 183.83 212.43 181.02 212.91 178.30 C 210.52 179.10 208.16 179.99 205.76 180.78 M 220.97 181.04 C 218.20 182.14 217.59 185.12 217.87 187.80 C 219.84 186.66 221.58 184.75 223.99 184.64 C 228.71 184.07 234.51 185.04 237.74 180.68 C 232.53 178.34 226.12 178.72 220.97 181.04 M 223.03 187.07 C 220.51 188.19 220.20 191.14 220.27 193.56 C 222.91 193.49 225.66 193.37 228.02 192.05 C 230.63 190.89 232.19 188.35 233.79 186.12 C 230.20 186.01 226.45 185.77 223.03 187.07 Z" />
<path fill="#030303" opacity="1.00" d=" M 183.46 117.29 C 184.89 116.33 186.31 115.35 187.68 114.31 C 191.39 120.04 198.62 121.65 204.99 122.10 C 215.85 122.58 226.58 120.38 237.35 119.39 C 236.06 126.22 237.06 133.23 235.88 140.07 C 235.27 145.68 232.85 151.61 227.80 154.60 C 223.67 157.13 218.60 157.25 213.94 156.55 C 208.01 155.03 203.18 151.06 198.41 147.43 C 198.87 143.59 199.32 139.42 197.42 135.88 C 194.36 129.93 187.19 127.60 184.27 121.54 C 183.47 120.26 183.55 118.73 183.46 117.29 M 211.76 128.82 C 208.20 129.68 204.10 131.24 202.70 134.96 C 202.41 136.74 203.22 138.46 203.56 140.18 C 205.00 138.14 206.39 135.86 208.80 134.86 C 214.52 131.86 221.34 132.03 226.94 128.83 C 221.97 127.76 216.74 127.79 211.76 128.82 M 214.35 136.18 C 211.53 138.22 207.75 138.79 205.45 141.52 C 204.10 142.98 203.74 145.10 203.83 147.02 C 205.11 149.08 207.23 150.47 209.50 151.24 C 217.35 153.50 226.91 150.62 231.22 143.43 C 233.03 140.29 232.00 136.70 229.98 133.96 C 229.33 136.04 228.63 138.14 227.25 139.86 C 224.50 138.05 222.31 135.13 219.03 134.27 C 217.14 133.62 215.81 135.35 214.35 136.18 Z" />
<path fill="#fcfcfc" opacity="1.00" d=" M 211.76 128.82 C 216.74 127.79 221.97 127.76 226.94 128.83 C 221.34 132.03 214.52 131.86 208.80 134.86 C 206.39 135.86 205.00 138.14 203.56 140.18 C 203.22 138.46 202.41 136.74 202.70 134.96 C 204.10 131.24 208.20 129.68 211.76 128.82 Z" />
<path fill="#fdfdfd" opacity="1.00" d=" M 214.35 136.18 C 215.81 135.35 217.14 133.62 219.03 134.27 C 222.31 135.13 224.50 138.05 227.25 139.86 C 228.63 138.14 229.33 136.04 229.98 133.96 C 232.00 136.70 233.03 140.29 231.22 143.43 C 226.91 150.62 217.35 153.50 209.50 151.24 C 207.23 150.47 205.11 149.08 203.83 147.02 C 203.74 145.10 204.10 142.98 205.45 141.52 C 207.75 138.79 211.53 138.22 214.35 136.18 Z" />
<path fill="#fcfcfc" opacity="1.00" d=" M 135.38 172.87 C 140.79 161.10 148.00 150.15 152.02 137.76 C 155.95 137.65 160.09 137.39 163.58 139.57 C 161.31 154.30 150.79 165.53 144.92 178.78 C 144.18 178.83 142.70 178.94 141.96 178.99 C 139.77 176.94 137.91 174.53 135.38 172.87 Z" />
<path fill="#fbfbfb" opacity="1.00" d=" M 131.86 157.80 C 132.42 150.36 137.65 143.31 144.95 141.31 C 143.47 149.98 137.64 156.96 133.19 164.28 C 132.65 162.15 132.02 160.00 131.86 157.80 Z" />
<path fill="#fcfcfc" opacity="1.00" d=" M 151.84 169.87 C 156.66 160.40 161.15 150.34 169.10 143.00 C 167.11 148.17 164.68 153.16 162.41 158.21 C 158.34 166.59 153.90 175.32 146.31 181.07 C 147.98 177.26 150.08 173.65 151.84 169.87 Z" />
<path fill="#fdfdfd" opacity="1.00" d=" M 163.57 159.83 C 166.19 155.58 168.41 151.11 170.87 146.76 C 175.32 151.57 175.19 158.83 172.76 164.56 C 169.31 173.45 161.78 181.52 151.95 182.77 C 154.55 174.54 159.34 167.28 163.57 159.83 Z" />
<path fill="#898989" opacity="1.00" d=" M 257.63 157.86 C 258.86 163.61 258.65 169.54 257.78 175.33 C 257.98 169.50 257.84 163.68 257.63 157.86 Z" />
<path fill="#fcfcfc" opacity="1.00" d=" M 174.64 163.77 C 177.27 169.21 172.64 176.35 166.88 177.31 C 168.26 172.20 172.19 168.36 174.64 163.77 Z" />
<path fill="#020202" opacity="1.00" d=" M 240.89 171.34 C 242.77 171.31 244.65 171.28 246.53 171.25 C 248.10 176.14 248.92 181.25 248.48 186.39 C 242.39 184.07 241.99 176.80 240.89 171.34 Z" />
<path fill="#020202" opacity="1.00" d=" M 205.76 180.78 C 208.16 179.99 210.52 179.10 212.91 178.30 C 212.43 181.02 211.19 183.83 212.12 186.60 C 213.03 189.62 214.36 192.50 215.26 195.53 C 212.63 195.52 209.99 195.67 207.37 195.41 C 204.61 191.06 205.93 185.64 205.76 180.78 Z" />
<path fill="#020202" opacity="1.00" d=" M 220.97 181.04 C 226.12 178.72 232.53 178.34 237.74 180.68 C 234.51 185.04 228.71 184.07 223.99 184.64 C 221.58 184.75 219.84 186.66 217.87 187.80 C 217.59 185.12 218.20 182.14 220.97 181.04 Z" />
<path fill="#020202" opacity="1.00" d=" M 223.03 187.07 C 226.45 185.77 230.20 186.01 233.79 186.12 C 232.19 188.35 230.63 190.89 228.02 192.05 C 225.66 193.37 222.91 193.49 220.27 193.56 C 220.20 191.14 220.51 188.19 223.03 187.07 Z" />
<path fill="#676767" opacity="1.00" d=" M 227.56 236.34 C 228.29 234.51 230.41 235.08 231.93 235.22 C 233.26 235.59 233.42 237.09 233.95 238.14 C 232.75 236.95 230.97 234.59 229.24 236.30 C 227.07 238.69 228.48 242.36 228.20 245.29 C 227.50 242.37 227.22 239.33 227.56 236.34 Z" />
<path fill="#fcfcfc" opacity="1.00" d=" M 229.24 236.30 C 230.97 234.59 232.75 236.95 233.95 238.14 C 234.82 239.80 236.02 241.22 237.64 242.20 C 237.15 245.93 234.11 248.57 233.29 252.21 C 236.54 255.16 240.43 257.55 242.89 261.28 C 244.53 263.80 243.84 266.91 243.26 269.64 C 238.31 268.25 234.38 264.42 231.98 259.99 C 229.72 255.42 228.48 250.37 228.20 245.29 C 228.48 242.36 227.07 238.69 229.24 236.30 Z" />
<path fill="#fcfcfc" opacity="1.00" d=" M 223.10 237.17 C 226.11 239.91 223.88 244.30 224.17 247.81 C 221.28 245.82 219.26 242.85 216.33 240.91 C 218.06 240.28 219.82 239.74 221.59 239.22 C 221.97 238.71 222.72 237.68 223.10 237.17 Z" />
<path fill="#fcfcfc" opacity="1.00" d=" M 172.16 245.33 C 176.80 245.22 181.45 245.27 186.09 245.27 C 187.48 247.11 188.87 248.99 189.68 251.18 C 193.54 262.04 190.72 274.54 196.84 284.72 C 195.56 284.57 194.02 285.04 192.99 284.03 C 189.56 281.18 187.00 277.40 183.31 274.84 C 183.54 270.21 187.97 267.02 187.46 262.23 C 183.70 261.14 179.98 259.52 177.30 256.57 C 174.15 253.66 173.05 249.36 172.16 245.33 Z" />
<path fill="#fdfdfd" opacity="1.00" d=" M 190.37 245.39 C 193.17 245.26 195.98 245.26 198.78 245.34 C 198.57 247.61 198.91 250.29 197.15 252.06 C 195.91 252.64 194.57 252.96 193.28 253.37 C 192.32 250.71 191.19 248.10 190.37 245.39 Z" />
<path fill="#fcfcfc" opacity="1.00" d=" M 209.41 244.85 C 210.35 245.05 212.23 245.45 213.16 245.65 C 215.07 247.47 216.37 249.98 218.97 250.98 C 218.36 254.81 216.06 258.29 216.79 262.31 C 214.55 261.81 211.78 261.65 210.70 259.25 C 208.40 254.84 209.56 249.62 209.41 244.85 Z" />
<path fill="#fefefe" opacity="1.00" d=" M 153.64 248.84 C 159.75 244.89 167.28 248.49 172.41 252.42 C 173.79 256.31 172.81 261.05 175.62 264.40 C 177.78 266.60 181.09 265.99 183.80 265.50 C 182.73 268.36 181.87 271.47 182.65 274.53 C 184.34 281.67 189.75 286.98 194.63 292.12 C 199.80 297.75 205.88 302.92 208.99 310.09 C 209.69 311.36 209.42 312.84 209.41 314.23 C 206.18 314.26 202.97 313.80 199.77 313.47 C 201.20 311.79 202.69 310.16 204.11 308.48 C 201.09 308.79 198.09 309.54 195.04 309.27 C 190.74 308.95 186.65 307.55 182.42 306.84 C 179.09 306.28 175.71 306.41 172.35 306.45 C 174.11 294.34 172.47 281.65 167.12 270.60 C 163.47 262.85 158.30 255.98 153.64 248.84 Z" />
<path fill="#fdfdfd" opacity="1.00" d=" M 223.97 252.21 C 228.67 260.39 234.18 268.15 237.92 276.86 C 239.87 281.62 241.00 286.97 239.82 292.07 C 239.23 294.91 237.25 297.14 235.51 299.36 C 235.20 296.23 234.94 293.09 234.07 290.06 C 231.65 280.97 226.02 273.09 223.91 263.90 C 222.98 260.05 223.43 256.08 223.97 252.21 Z" />
<path fill="#fefefe" opacity="1.00" d=" M 198.42 259.62 C 200.09 260.29 201.82 260.86 203.35 261.83 C 204.94 263.11 205.66 265.15 206.17 267.06 C 207.89 275.98 204.72 285.18 207.00 294.05 C 207.63 296.96 209.69 299.15 211.73 301.16 C 205.56 300.92 201.96 295.10 199.89 289.98 C 196.15 280.44 194.87 269.41 198.42 259.62 Z" />
<path fill="#ffffff" opacity="1.00" d=" M 243.60 276.05 C 243.81 271.98 245.77 268.33 248.13 265.11 C 256.46 280.28 262.27 296.81 265.25 313.86 C 257.11 313.82 248.97 313.91 240.83 313.83 C 242.18 310.73 243.35 307.50 243.58 304.11 C 244.14 294.76 243.02 285.39 243.60 276.05 Z" />
<path fill="#fdfdfd" opacity="1.00" d=" M 216.72 270.96 C 222.48 272.03 226.01 277.30 227.95 282.41 C 230.66 289.65 231.11 298.50 226.30 305.00 C 221.89 303.27 218.74 299.47 217.10 295.12 C 214.29 287.41 214.57 278.79 216.72 270.96 Z" />
<path fill="#fdfdfd" opacity="1.00" d=" M 148.25 314.21 C 151.08 302.50 153.90 290.49 159.86 279.91 C 161.65 281.58 163.47 283.42 164.06 285.89 C 165.99 293.14 165.08 300.70 165.30 308.11 C 162.27 309.61 159.63 311.76 156.63 313.31 C 154.03 314.65 151.06 314.28 148.25 314.21 Z" />
<path fill="#fcfcfc" opacity="1.00" d=" M 229.02 307.04 C 231.21 304.60 233.99 302.74 236.02 300.14 C 237.15 300.66 238.24 301.26 239.30 301.92 C 239.95 304.98 239.17 308.07 238.11 310.94 C 237.86 311.60 237.35 312.93 237.10 313.60 C 233.93 313.69 230.76 313.77 227.60 313.92 C 227.78 311.60 227.30 308.91 229.02 307.04 Z" />
<path fill="#fdfdfd" opacity="1.00" d=" M 211.42 309.36 C 215.51 306.84 221.19 307.01 225.01 309.96 C 226.36 310.92 226.17 312.72 226.56 314.15 C 221.36 314.51 215.43 314.37 211.45 310.51 C 211.44 310.22 211.43 309.65 211.42 309.36 Z" />
<path fill="#848484" opacity="1.00" d=" M 237.10 313.60 C 237.35 312.93 237.86 311.60 238.11 310.94 C 237.98 311.67 237.73 313.12 237.60 313.85 C 234.37 314.82 230.90 314.20 227.60 313.92 C 230.76 313.77 233.93 313.69 237.10 313.60 Z" />
<path fill="#ed1b23" opacity="1.00" d=" M 195.55 332.70 C 198.28 332.71 201.01 332.71 203.74 332.68 C 203.87 338.14 203.62 343.62 203.94 349.08 C 207.40 343.51 211.22 338.17 214.86 332.70 C 218.24 332.74 221.62 332.70 225.00 332.76 C 221.78 337.21 218.34 341.49 214.98 345.84 C 214.34 347.02 212.41 348.45 213.65 349.87 C 217.63 356.55 221.62 363.22 225.66 369.86 C 222.41 369.92 219.16 369.96 215.92 369.94 C 213.04 364.51 209.82 359.28 206.90 353.87 C 205.86 355.23 204.68 356.52 203.95 358.09 C 203.55 362.03 203.88 366.01 203.79 369.96 C 201.02 369.93 198.25 369.90 195.48 369.86 C 195.56 357.47 195.42 345.09 195.55 332.70 Z" />
<path fill="#ee1b23" opacity="1.00" d=" M 323.57 332.93 C 328.78 331.44 334.57 331.73 339.47 334.12 C 338.77 336.25 338.09 338.38 337.39 340.51 C 333.85 339.15 329.53 337.42 325.96 339.58 C 323.70 340.73 323.94 343.89 325.88 345.23 C 329.55 347.69 334.36 348.20 337.57 351.44 C 342.48 355.94 341.56 365.11 335.74 368.43 C 329.63 372.05 322.16 370.85 315.65 369.13 C 316.20 366.92 316.67 364.69 317.12 362.46 C 321.27 363.41 325.64 364.91 329.89 363.67 C 332.84 362.89 333.51 358.60 331.21 356.76 C 328.76 354.81 325.63 354.13 322.80 352.97 C 319.55 351.50 316.69 348.68 316.01 345.08 C 314.74 339.83 318.56 334.43 323.57 332.93 Z" />
<path fill="#ed1c23" opacity="1.00" d=" M 25.70 332.71 C 33.25 332.73 40.81 332.83 48.36 332.64 C 48.38 335.06 48.36 337.48 48.27 339.90 C 43.54 339.49 38.78 339.68 34.04 339.61 C 34.05 342.54 34.10 345.47 34.29 348.40 C 38.68 348.25 43.06 348.24 47.45 348.37 C 47.44 350.53 47.44 352.69 47.46 354.85 C 43.01 354.91 38.56 354.92 34.12 354.93 C 34.04 359.92 34.09 364.91 34.13 369.90 C 31.32 369.97 28.51 369.96 25.71 369.91 C 25.69 357.51 25.70 345.11 25.70 332.71 Z" />
<path fill="#ed1b23" opacity="1.00" d=" M 54.29 332.85 C 61.96 332.75 69.65 332.54 77.31 332.95 C 77.25 335.16 77.23 337.38 77.22 339.60 C 72.37 339.65 67.52 339.67 62.67 339.64 C 62.65 342.34 62.63 345.05 62.57 347.76 C 67.08 347.82 71.61 347.67 76.12 347.87 C 76.53 350.04 76.36 352.28 76.38 354.49 C 71.78 354.50 67.19 354.50 62.59 354.50 C 62.64 357.30 62.64 360.11 62.59 362.92 C 67.67 363.40 72.76 363.11 77.85 363.14 C 77.84 365.43 77.85 367.72 77.86 370.02 C 70.01 369.98 62.16 370.13 54.31 369.96 C 54.40 357.59 54.46 345.21 54.29 332.85 Z" />
<path fill="#ed1d23" opacity="1.00" d=" M 83.64 332.70 C 91.22 332.74 98.80 332.80 106.38 332.67 C 106.43 334.99 106.46 337.31 106.50 339.64 C 101.69 339.66 96.88 339.67 92.08 339.63 C 92.03 342.34 91.97 345.06 91.93 347.77 C 96.50 347.83 101.06 347.81 105.62 347.78 C 105.63 350.01 105.63 352.25 105.62 354.50 C 101.12 354.49 96.62 354.50 92.12 354.47 C 92.03 357.38 92.02 360.29 92.11 363.21 C 97.17 363.15 102.24 363.16 107.31 363.16 C 107.31 365.40 107.33 367.65 107.35 369.90 C 99.44 369.97 91.52 370.21 83.61 369.86 C 83.69 357.47 83.67 345.09 83.64 332.70 Z" />
<path fill="#ed1c24" opacity="1.00" d=" M 113.15 332.70 C 115.88 332.71 118.60 332.72 121.33 332.74 C 121.34 342.85 121.22 352.97 121.39 363.08 C 126.10 363.32 130.82 363.25 135.53 363.13 C 135.64 365.50 135.75 367.87 135.94 370.25 C 128.37 369.81 120.78 370.10 113.21 370.07 C 113.13 357.61 113.22 345.15 113.15 332.70 Z" />
<path fill="#ed1c23" opacity="1.00" d=" M 151.74 332.75 C 154.57 332.72 157.41 332.70 160.25 332.69 C 160.17 342.83 160.17 352.97 160.24 363.11 C 165.05 363.20 169.87 363.18 174.68 363.12 C 174.71 365.44 174.71 367.76 174.68 370.08 C 167.03 369.99 159.37 370.08 151.71 369.85 C 151.82 357.48 151.80 345.12 151.74 332.75 Z" />
<path fill="#ee1a24" opacity="1.00" d=" M 180.47 369.88 C 180.49 357.47 180.39 345.06 180.54 332.64 C 183.28 332.71 186.02 332.75 188.76 332.80 C 188.65 345.20 188.79 357.59 188.68 369.99 C 185.95 369.99 183.21 369.96 180.47 369.88 Z" />
<path fill="#ed1c25" opacity="1.00" d=" M 229.64 332.75 C 237.20 332.74 244.76 332.76 252.32 332.71 C 252.36 335.01 252.40 337.32 252.45 339.63 C 247.61 339.65 242.77 339.66 237.93 339.66 C 237.91 342.38 237.93 345.10 237.98 347.82 C 242.53 347.81 247.08 347.72 251.63 347.87 C 251.59 350.09 251.55 352.30 251.52 354.52 C 246.99 354.50 242.47 354.49 237.95 354.50 C 237.91 357.38 237.91 360.27 237.98 363.16 C 243.07 363.15 248.16 363.19 253.25 363.18 C 253.26 365.40 253.28 367.62 253.32 369.85 C 245.42 370.21 237.52 369.96 229.63 370.04 C 229.57 357.61 229.56 345.18 229.64 332.75 Z" />
<path fill="#ed1b23" opacity="1.00" d=" M 278.34 332.84 C 282.03 332.71 285.73 332.72 289.42 332.73 C 293.43 345.05 296.72 357.61 301.19 369.77 C 298.05 369.99 294.90 369.98 291.76 369.82 C 290.92 366.70 289.95 363.61 289.08 360.50 C 285.48 360.48 281.89 360.48 278.30 360.55 C 277.62 363.69 276.79 366.79 275.97 369.90 C 273.06 369.93 270.15 369.91 267.24 369.86 C 271.01 357.54 274.79 345.22 278.34 332.84 M 283.63 338.88 C 282.35 344.05 281.24 349.26 279.68 354.35 C 282.38 354.37 285.10 354.38 287.81 354.39 C 286.41 349.22 284.98 344.06 283.63 338.88 Z" />
<path fill="#ed1b22" opacity="1.00" d=" M 346.28 370.08 C 346.33 357.60 346.14 345.13 346.40 332.66 C 349.09 332.72 351.79 332.72 354.49 332.71 C 354.47 345.11 354.44 357.50 354.49 369.90 C 351.75 369.94 349.02 370.03 346.28 370.08 Z" />
<path fill="#ec1b22" opacity="1.00" d=" M 362.18 333.48 C 367.60 332.87 373.12 332.25 378.56 333.11 C 381.35 333.65 384.40 334.43 386.33 336.69 C 389.10 340.05 389.39 345.26 386.98 348.90 C 385.82 350.64 383.98 351.71 382.29 352.86 C 383.71 354.02 385.36 355.12 385.97 356.96 C 387.71 361.18 388.51 365.71 389.80 370.08 C 386.82 370.13 383.84 370.05 380.91 369.54 C 379.89 365.50 379.21 361.28 377.32 357.54 C 375.81 355.24 372.64 355.86 370.31 355.56 C 370.32 360.42 370.36 365.29 370.31 370.15 C 367.61 370.04 364.90 369.93 362.20 369.86 C 362.16 357.73 362.19 345.61 362.18 333.48 M 370.39 338.72 C 370.30 342.41 370.31 346.10 370.34 349.79 C 373.20 349.51 376.74 350.27 378.90 347.86 C 381.14 345.72 380.80 341.68 378.22 339.98 C 375.89 338.51 373.01 338.87 370.39 338.72 Z" />
<path fill="#fafbf9" opacity="1.00" d=" M 283.63 338.88 C 284.98 344.06 286.41 349.22 287.81 354.39 C 285.10 354.38 282.38 354.37 279.68 354.35 C 281.24 349.26 282.35 344.05 283.63 338.88 Z" />
<path fill="#f8fbfa" opacity="1.00" d=" M 370.39 338.72 C 373.01 338.87 375.89 338.51 378.22 339.98 C 380.80 341.68 381.14 345.72 378.90 347.86 C 376.74 350.27 373.20 349.51 370.34 349.79 C 370.31 346.10 370.30 342.41 370.39 338.72 Z" />
<path fill="#f39194" opacity="1.00" d=" M 322.80 352.97 C 325.63 354.13 328.76 354.81 331.21 356.76 C 333.51 358.60 332.84 362.89 329.89 363.67 C 325.64 364.91 321.27 363.41 317.12 362.46 C 316.67 364.69 316.20 366.92 315.65 369.13 C 315.04 366.42 316.12 363.78 316.82 361.21 C 320.88 362.79 325.45 364.53 329.77 362.92 C 331.99 362.14 332.62 358.79 330.69 357.37 C 328.28 355.55 325.31 354.65 322.80 352.97 Z" />
<path fill="#f6c0be" opacity="1.00" d=" M 121.39 363.08 C 126.08 362.24 130.89 362.40 135.63 362.61 C 135.85 362.78 136.28 363.12 136.50 363.29 C 136.93 365.60 137.02 368.09 135.94 370.25 C 135.75 367.87 135.64 365.50 135.53 363.13 C 130.82 363.25 126.10 363.32 121.39 363.08 Z" />
</svg>
