<?xml version="1.0" encoding="UTF-8" ?>
<!DOCTYPE svg PUBLIC "-//W3C//DTD SVG 1.1//EN" "http://www.w3.org/Graphics/SVG/1.1/DTD/svg11.dtd">
<svg width="306pt" height="400pt" viewBox="0 0 306 400" version="1.1" xmlns="http://www.w3.org/2000/svg">
<g id="#ffffffff">
<path fill="#ffffff" opacity="1.00" d=" M 0.00 0.00 L 306.00 0.00 L 306.00 400.00 L 0.00 400.00 L 0.00 0.00 M 111.88 12.25 C 74.89 20.84 38.88 35.61 8.40 58.54 C 8.39 58.88 8.37 59.55 8.36 59.89 C 13.68 66.21 19.23 72.38 24.36 78.86 C 32.85 92.37 41.03 106.07 49.57 119.56 C 50.38 120.92 51.41 122.27 51.40 123.93 C 51.23 126.75 53.67 128.52 54.81 130.84 C 37.54 136.76 20.61 143.62 3.50 149.99 C 3.13 153.37 2.62 157.51 5.18 160.19 C 5.78 161.85 6.29 164.19 8.07 164.89 C 11.17 164.40 13.95 162.83 16.84 161.72 C 24.71 158.56 32.60 155.43 40.52 152.40 C 46.58 150.39 52.28 147.41 58.44 145.69 C 57.63 149.55 55.53 153.04 54.60 156.91 C 53.74 160.38 52.10 163.96 52.61 167.55 C 50.89 169.26 51.69 172.01 51.29 174.19 C 50.19 184.05 50.86 193.98 51.80 203.82 C 53.07 209.73 54.40 215.67 56.75 221.25 C 60.88 231.52 68.28 240.59 78.01 245.98 C 80.73 247.63 83.81 248.69 86.35 250.64 C 94.99 258.88 102.66 268.19 108.56 278.59 L 109.23 278.93 C 109.17 281.67 109.70 284.61 108.30 287.12 C 101.94 300.15 96.68 313.80 93.76 328.03 C 93.38 330.63 91.79 333.49 92.89 336.03 C 95.39 336.73 99.08 339.04 100.99 336.25 C 105.07 333.87 109.29 331.73 113.34 329.29 C 114.84 328.27 116.68 328.12 118.44 327.91 C 118.93 331.32 117.60 334.60 117.33 337.97 C 116.79 342.59 114.80 347.01 115.20 351.73 C 114.96 355.03 114.15 358.56 115.06 361.77 C 118.84 362.30 122.61 362.82 126.34 363.64 L 126.27 364.43 C 128.97 364.43 131.94 365.80 134.49 364.67 C 135.39 366.01 136.53 367.26 137.12 368.80 C 137.68 376.08 139.26 383.27 141.01 390.35 C 141.25 391.83 141.38 393.64 142.98 394.32 C 145.32 394.59 147.72 394.59 150.05 394.13 C 150.89 390.65 149.66 387.02 149.39 383.50 C 148.81 380.96 149.25 377.99 147.56 375.84 C 147.42 372.76 147.64 369.66 147.29 366.59 C 163.12 368.22 179.10 368.21 194.98 367.25 C 196.53 367.12 198.07 367.36 199.62 367.49 C 200.98 372.98 201.89 378.59 203.63 383.97 L 203.43 385.04 L 203.86 385.95 C 204.09 387.10 204.36 388.25 204.65 389.40 C 205.21 390.39 205.16 392.00 206.33 392.51 C 208.74 392.78 211.18 392.72 213.60 392.58 C 213.63 390.04 214.21 387.29 213.15 384.90 C 212.93 383.87 212.69 382.85 212.45 381.83 C 212.19 380.85 211.89 379.88 211.53 378.94 C 210.88 374.32 209.08 369.89 209.28 365.16 C 213.53 366.17 217.72 364.52 221.96 364.26 C 223.70 364.04 225.61 364.05 227.11 362.98 C 228.32 347.76 225.58 332.60 222.23 317.81 C 218.51 301.28 212.27 285.37 204.50 270.34 L 203.73 269.95 C 202.83 265.79 198.88 262.73 198.47 258.55 C 201.47 258.44 204.39 259.49 207.39 259.13 C 216.62 263.36 225.73 267.87 234.98 272.07 C 236.46 272.74 238.40 272.78 239.75 271.76 C 243.24 269.33 247.05 267.22 249.95 264.03 C 253.83 259.80 257.86 255.59 260.60 250.48 C 263.40 246.08 264.57 240.85 267.70 236.63 C 270.20 232.29 273.92 228.89 277.40 225.35 C 278.87 225.24 280.23 226.01 281.56 226.54 C 281.93 227.81 281.88 229.16 281.80 230.48 C 278.20 231.49 274.57 232.39 270.89 232.98 L 270.18 233.99 L 270.87 235.05 C 274.88 235.66 278.99 235.24 283.00 234.83 C 287.58 234.48 292.17 234.92 296.74 234.54 C 296.70 233.44 296.15 232.87 295.09 232.82 C 291.78 232.27 288.46 231.68 285.31 230.52 C 285.23 229.45 285.29 228.38 285.49 227.33 C 286.40 226.61 287.42 226.05 288.36 225.37 C 289.09 223.26 288.30 221.11 287.98 219.01 C 288.06 217.59 288.46 216.18 288.33 214.75 C 287.40 214.00 286.40 213.35 285.51 212.58 C 285.28 208.42 285.49 204.24 285.47 200.08 C 285.28 198.79 286.44 198.02 287.18 197.19 C 291.65 192.71 296.15 188.25 300.45 183.61 C 300.92 177.08 300.59 170.52 300.74 163.97 C 300.94 161.44 299.11 159.07 297.07 157.76 C 288.36 157.68 279.63 157.66 270.92 157.79 C 270.61 158.09 270.00 158.70 269.69 159.00 C 269.50 167.69 269.59 176.39 269.72 185.08 C 273.10 190.02 278.31 193.43 282.04 198.11 C 282.67 201.62 282.22 205.29 282.16 208.86 C 281.04 208.74 279.93 208.53 278.81 208.45 C 277.04 212.14 275.61 216.01 273.52 219.54 C 271.46 221.81 268.98 223.68 267.22 226.21 C 264.36 229.92 262.44 234.20 260.54 238.45 C 258.55 242.89 255.94 247.01 253.43 251.16 C 250.36 256.69 244.82 260.10 240.47 264.51 C 239.27 266.07 237.14 265.99 235.49 265.28 C 222.07 259.06 208.47 253.22 195.04 247.03 C 193.41 246.08 191.56 245.89 189.79 246.55 C 187.98 245.09 186.89 242.92 185.65 240.99 C 203.35 225.69 215.48 203.55 216.91 180.02 C 217.72 176.49 217.17 172.83 217.47 169.25 C 220.31 170.61 222.91 172.54 225.99 173.35 C 229.85 173.75 233.80 173.38 237.53 172.33 C 241.39 170.90 244.76 168.26 247.30 165.05 C 247.59 164.68 248.16 163.95 248.44 163.58 C 248.88 160.31 249.06 156.71 247.30 153.77 C 246.22 151.47 244.28 149.55 242.00 148.46 C 237.68 149.42 236.08 156.14 240.04 158.36 C 241.39 157.88 242.48 156.91 243.69 156.18 C 243.87 159.65 240.12 161.13 238.02 163.24 C 234.00 163.48 229.96 163.56 225.95 163.11 C 222.80 161.38 219.47 159.91 215.90 159.33 C 215.08 150.44 210.76 142.35 206.07 134.93 C 197.90 123.51 186.94 113.73 173.87 108.35 C 172.62 107.63 170.55 107.71 170.10 106.06 C 175.09 104.68 179.80 102.42 184.86 101.26 C 199.64 96.53 214.33 91.50 229.26 87.24 C 230.25 86.94 231.16 86.47 231.97 85.82 C 233.90 82.21 233.89 77.83 233.13 73.91 L 232.74 73.41 C 229.82 73.12 227.02 74.22 224.27 75.02 C 212.75 78.01 201.20 80.90 189.88 84.57 C 183.93 86.42 177.78 87.71 172.06 90.21 C 170.67 90.41 169.28 90.44 167.90 90.33 C 167.30 87.13 165.76 83.83 162.98 82.00 L 162.24 82.42 C 150.01 59.69 137.88 36.90 125.73 14.13 C 124.83 12.85 124.62 10.69 122.94 10.20 C 119.16 10.16 115.54 11.44 111.88 12.25 Z" />
</g>
<g id="#1e1a19ff">
<path fill="#1e1a19" opacity="1.00" d=" M 111.88 12.25 C 115.54 11.44 119.16 10.16 122.94 10.20 C 124.62 10.69 124.83 12.85 125.73 14.13 C 137.88 36.90 150.01 59.69 162.24 82.42 C 160.56 83.48 158.74 84.31 156.82 84.81 C 148.89 86.95 141.04 89.39 133.32 92.19 C 121.24 95.82 109.51 100.44 97.68 104.76 C 82.97 110.06 68.46 115.96 54.11 122.17 C 51.54 123.43 53.88 126.54 54.77 128.23 C 55.65 130.14 57.94 129.05 59.43 128.72 C 68.03 126.06 76.31 122.46 84.86 119.66 C 111.39 109.87 138.19 100.83 165.07 92.10 C 166.65 91.45 165.89 89.09 166.39 87.75 C 166.65 89.14 166.82 90.56 167.42 91.86 C 169.12 91.86 170.58 90.92 172.06 90.21 C 177.78 87.71 183.93 86.42 189.88 84.57 C 201.20 80.90 212.75 78.01 224.27 75.02 C 227.02 74.22 229.82 73.12 232.74 73.41 L 233.13 73.91 C 233.89 77.83 233.90 82.21 231.97 85.82 C 231.16 86.47 230.25 86.94 229.26 87.24 C 214.33 91.50 199.64 96.53 184.86 101.26 C 179.80 102.42 175.09 104.68 170.10 106.06 C 170.55 107.71 172.62 107.63 173.87 108.35 C 186.94 113.73 197.90 123.51 206.07 134.93 C 210.76 142.35 215.08 150.44 215.90 159.33 C 214.55 159.08 213.21 158.76 211.89 158.41 C 212.38 158.27 213.35 157.99 213.84 157.85 C 211.20 143.26 202.07 130.56 190.94 121.08 C 184.41 115.56 176.91 111.13 168.85 108.25 C 167.38 107.60 165.73 107.45 164.21 108.06 C 136.46 117.44 108.77 126.99 81.28 137.13 C 74.91 139.39 68.53 141.64 62.34 144.36 C 61.13 144.79 60.81 146.19 60.23 147.18 C 57.09 153.78 55.11 160.85 53.89 168.05 L 52.61 167.55 C 52.10 163.96 53.74 160.38 54.60 156.91 C 55.53 153.04 57.63 149.55 58.44 145.69 C 52.28 147.41 46.58 150.39 40.52 152.40 C 32.60 155.43 24.71 158.56 16.84 161.72 C 13.95 162.83 11.17 164.40 8.07 164.89 C 6.29 164.19 5.78 161.85 5.18 160.19 C 4.47 156.81 3.92 153.41 3.50 149.99 C 20.61 143.62 37.54 136.76 54.81 130.84 C 53.67 128.52 51.23 126.75 51.40 123.93 C 51.41 122.27 50.38 120.92 49.57 119.56 C 41.03 106.07 32.85 92.37 24.36 78.86 C 19.23 72.38 13.68 66.21 8.36 59.89 C 8.37 59.55 8.39 58.88 8.40 58.54 C 38.88 35.61 74.89 20.84 111.88 12.25 Z" />
</g>
<g id="#515459ff">
<path fill="#515459" opacity="1.00" d=" M 162.24 82.42 L 162.98 82.00 C 165.76 83.83 167.30 87.13 167.90 90.33 C 169.28 90.44 170.67 90.41 172.06 90.21 C 170.58 90.92 169.12 91.86 167.42 91.86 C 166.82 90.56 166.65 89.14 166.39 87.75 C 165.89 89.09 166.65 91.45 165.07 92.10 C 138.19 100.83 111.39 109.87 84.86 119.66 C 76.31 122.46 68.03 126.06 59.43 128.72 C 57.94 129.05 55.65 130.14 54.77 128.23 C 53.88 126.54 51.54 123.43 54.11 122.17 C 68.46 115.96 82.97 110.06 97.68 104.76 C 109.51 100.44 121.24 95.82 133.32 92.19 C 141.04 89.39 148.89 86.95 156.82 84.81 C 158.74 84.31 160.56 83.48 162.24 82.42 Z" />
<path fill="#515459" opacity="1.00" d=" M 137.12 368.80 C 139.08 374.33 139.13 380.30 140.89 385.88 C 141.03 386.28 141.33 387.08 141.47 387.48 C 144.17 387.75 146.96 387.65 149.45 388.91 C 147.28 391.07 143.80 390.14 141.01 390.35 C 139.26 383.27 137.68 376.08 137.12 368.80 Z" />
</g>
<g id="#fefefeff">
<path fill="#fefefe" opacity="1.00" d=" M 164.21 108.06 C 165.73 107.45 167.38 107.60 168.85 108.25 C 176.91 111.13 184.41 115.56 190.94 121.08 C 202.07 130.56 211.20 143.26 213.84 157.85 C 213.35 157.99 212.38 158.27 211.89 158.41 C 207.38 157.00 202.65 158.01 198.09 158.54 C 190.96 159.02 185.58 164.59 181.59 169.99 C 181.05 173.96 182.35 177.87 183.36 181.66 C 186.47 182.81 189.91 182.41 193.14 182.08 C 194.82 178.56 194.99 173.99 198.50 171.62 C 203.35 168.56 209.89 166.63 215.35 168.99 C 215.84 172.64 215.50 176.34 215.35 180.01 C 214.49 189.18 212.07 198.12 208.72 206.68 C 200.35 225.83 185.40 242.54 166.09 251.04 C 158.58 254.51 150.40 256.19 142.25 257.32 C 137.17 257.25 132.09 257.25 127.01 257.28 C 121.89 257.31 116.87 256.08 111.74 256.12 C 98.56 253.74 85.59 249.19 74.58 241.45 C 65.60 235.07 59.67 225.21 56.44 214.83 C 52.16 199.66 51.93 183.61 53.89 168.05 C 55.11 160.85 57.09 153.78 60.23 147.18 C 60.81 146.19 61.13 144.79 62.34 144.36 C 68.53 141.64 74.91 139.39 81.28 137.13 C 108.77 126.99 136.46 117.44 164.21 108.06 M 139.46 125.59 C 138.02 126.83 135.81 128.91 137.17 130.93 C 140.90 137.15 147.16 141.16 152.52 145.82 C 152.31 149.03 152.07 152.42 153.77 155.32 C 156.59 160.07 161.60 163.58 167.09 164.40 C 172.69 165.14 178.77 164.81 183.66 161.71 C 188.34 159.13 192.45 154.63 192.85 149.09 C 192.96 146.18 193.14 142.95 191.39 140.45 C 189.96 138.45 188.03 136.88 186.49 134.97 C 188.19 134.14 189.97 133.50 191.65 132.63 C 192.32 130.72 190.66 129.11 189.09 128.37 C 186.38 129.29 183.83 130.70 181.02 131.32 C 176.35 131.48 171.66 131.37 166.99 131.18 C 160.70 130.35 154.26 130.79 148.07 129.22 C 146.30 128.34 145.17 126.64 143.62 125.46 C 142.29 125.05 140.73 124.97 139.46 125.59 M 118.35 142.06 C 118.29 143.60 116.48 144.01 115.41 144.70 C 110.76 144.43 106.06 144.12 101.42 144.56 C 101.06 144.87 100.33 145.50 99.97 145.81 C 95.15 146.47 91.13 149.49 87.62 152.64 C 84.66 155.61 82.21 159.21 81.20 163.33 C 78.21 165.09 74.71 164.14 71.45 164.47 C 71.23 164.78 70.80 165.39 70.58 165.70 C 71.33 167.53 73.08 169.08 75.05 169.39 C 76.37 169.89 79.43 168.90 79.04 171.27 C 76.02 172.22 71.76 170.58 69.76 173.75 C 69.25 174.85 67.64 175.86 68.39 177.22 C 67.51 178.09 66.70 179.02 65.98 180.02 C 66.76 181.05 67.74 181.90 68.61 182.86 C 68.54 183.60 68.40 185.07 68.32 185.81 L 68.77 185.30 C 69.28 185.66 70.29 186.39 70.80 186.76 C 71.14 187.88 70.52 189.08 70.96 190.19 C 71.74 191.59 69.50 192.97 71.08 194.20 C 72.62 195.52 69.83 196.83 70.74 198.35 C 71.40 199.84 69.97 201.46 71.03 202.86 C 72.27 205.01 73.04 207.35 72.25 209.80 C 73.61 211.67 75.46 210.42 76.70 209.15 C 76.11 208.46 75.52 207.78 74.94 207.09 C 75.11 206.55 75.47 205.47 75.64 204.93 C 74.21 202.75 72.92 199.88 74.43 197.40 C 74.15 196.97 73.58 196.10 73.29 195.67 C 72.86 194.49 74.94 193.72 74.32 192.59 C 73.31 191.36 74.11 190.15 74.66 188.93 C 73.91 188.16 73.06 187.50 72.31 186.74 C 71.90 185.67 72.55 184.55 72.59 183.47 C 72.15 183.40 71.28 183.26 70.84 183.19 C 68.29 182.14 70.42 179.40 71.06 177.67 C 74.39 178.13 77.82 178.35 81.21 178.55 C 81.36 179.25 81.66 180.66 81.81 181.37 C 85.28 188.67 91.83 194.88 99.95 196.46 C 104.85 198.00 110.06 197.28 114.96 196.15 C 122.99 193.14 129.68 186.50 132.04 178.17 C 135.11 169.51 131.70 159.80 125.79 153.18 C 124.66 148.78 125.01 143.99 123.06 139.79 C 122.21 137.72 120.47 135.39 117.97 135.63 C 114.67 137.13 119.20 139.73 118.35 142.06 M 151.58 173.46 C 147.13 176.66 143.23 180.64 140.17 185.20 C 139.37 186.31 139.22 187.71 138.90 189.01 C 137.79 195.08 135.83 201.15 132.20 206.21 C 130.16 208.96 125.62 209.31 123.32 206.71 C 121.74 206.00 121.84 203.65 123.48 203.10 C 123.24 205.18 124.12 206.85 126.02 207.77 C 127.23 207.04 128.46 206.23 129.25 205.03 C 128.76 202.48 127.23 198.79 124.00 199.49 C 119.71 199.98 116.84 205.26 118.86 209.10 C 119.75 210.26 120.82 211.26 121.96 212.16 C 124.44 214.37 128.02 213.59 131.06 213.58 C 133.00 213.24 135.38 213.31 136.87 211.86 C 139.51 210.66 141.96 208.69 142.89 205.85 C 145.63 197.64 149.74 189.25 157.12 184.26 C 160.14 182.40 164.07 180.64 167.54 182.32 C 169.88 183.33 171.35 185.82 173.97 186.31 C 175.94 186.57 178.06 186.75 179.97 186.05 C 180.96 185.19 181.78 184.15 182.48 183.04 C 182.94 179.33 181.63 175.54 179.33 172.65 C 177.96 170.92 176.32 169.06 174.02 168.71 C 170.06 168.13 166.02 168.16 162.04 168.49 C 158.03 168.71 154.72 171.21 151.58 173.46 M 194.21 183.97 C 195.72 186.10 197.81 187.78 199.22 190.01 C 199.34 192.55 199.33 195.10 199.55 197.65 C 199.83 199.43 201.92 198.49 203.12 198.55 C 203.68 195.33 204.10 191.68 202.20 188.80 C 200.73 186.37 198.89 184.13 196.66 182.37 C 195.51 181.59 193.56 182.39 194.21 183.97 M 162.49 190.49 C 161.75 191.52 161.17 192.66 160.65 193.82 C 158.96 196.34 158.89 199.75 160.85 202.15 C 162.09 204.31 163.93 206.06 165.94 207.50 C 167.43 207.62 168.73 207.19 169.86 206.21 C 167.74 203.76 164.57 201.57 164.57 197.99 C 164.18 195.14 166.49 192.99 166.90 190.30 C 165.43 190.25 163.93 190.16 162.49 190.49 M 186.55 191.74 C 181.46 192.97 176.35 194.20 171.28 195.50 C 171.31 197.22 173.45 197.82 174.81 198.21 C 175.19 197.78 175.95 196.90 176.33 196.46 C 180.66 195.08 185.17 194.36 189.60 193.40 C 189.62 192.88 189.66 191.83 189.68 191.30 C 188.62 191.38 187.58 191.53 186.55 191.74 M 187.59 197.70 C 183.44 199.54 179.01 200.79 175.02 202.94 C 175.26 203.22 175.76 203.80 176.01 204.08 C 180.34 202.84 184.50 201.06 188.68 199.42 C 188.69 198.43 189.07 196.62 187.59 197.70 M 73.14 212.06 C 70.85 213.20 73.13 215.31 74.33 216.20 C 73.65 217.54 73.04 218.92 74.27 220.21 C 75.42 221.48 71.91 223.14 73.94 224.17 C 75.11 225.30 76.69 224.51 77.63 223.53 C 77.58 222.46 76.55 221.78 76.10 220.87 C 76.43 219.86 77.17 219.07 77.68 218.15 C 76.70 217.40 75.64 216.75 74.65 216.02 C 75.08 215.04 75.51 214.04 75.92 213.05 C 75.45 212.65 74.49 211.86 74.02 211.46 L 73.14 212.06 M 73.26 226.36 C 73.17 227.84 73.93 229.03 75.17 229.80 C 76.68 229.27 77.90 228.15 77.65 226.42 C 76.20 226.23 74.72 226.20 73.26 226.36 M 73.25 231.41 C 73.27 232.60 73.98 233.59 74.66 234.52 C 76.11 234.36 77.66 233.03 77.69 231.51 C 76.46 230.20 74.52 230.07 73.25 231.41 Z" />
<path fill="#fefefe" opacity="1.00" d=" M 191.10 263.25 C 192.64 262.00 194.20 259.64 196.23 259.63 C 198.56 263.12 200.54 266.84 202.56 270.53 C 203.79 273.53 205.35 276.37 206.81 279.27 C 207.99 281.16 206.38 283.48 207.54 285.41 C 208.60 288.43 211.77 290.07 212.79 293.12 C 213.91 295.87 213.26 298.94 214.03 301.77 C 214.78 304.78 215.38 307.84 216.36 310.78 C 217.64 311.86 219.26 312.78 219.39 314.66 C 222.96 330.04 226.28 345.82 224.93 361.69 C 199.21 365.90 172.96 366.82 146.99 364.65 C 144.70 364.49 142.42 364.34 140.16 363.97 C 136.13 362.72 131.95 362.12 127.73 362.21 C 126.61 362.03 125.51 361.79 124.43 361.49 C 124.14 353.00 124.39 344.50 124.58 336.00 C 124.47 332.10 127.43 328.80 126.38 324.81 C 126.93 324.23 127.50 323.68 128.09 323.15 C 130.81 323.32 133.52 323.56 136.23 323.75 C 136.62 324.68 137.68 326.59 135.98 326.89 C 133.22 327.96 130.32 328.65 127.62 329.87 C 126.13 333.73 126.99 337.97 126.74 342.00 C 126.89 344.57 126.25 347.33 127.20 349.78 C 127.56 349.75 128.27 349.67 128.63 349.63 C 131.48 344.80 129.34 338.30 132.86 333.88 C 137.49 333.25 141.99 331.94 146.55 330.93 C 151.10 330.05 155.17 327.61 158.83 324.86 C 158.27 321.51 153.62 322.25 151.20 323.07 C 149.54 323.21 147.84 323.55 146.18 323.22 C 145.41 322.53 144.65 321.84 143.91 321.14 C 142.45 319.82 140.72 318.86 139.10 317.79 C 135.63 314.97 130.94 316.78 126.94 317.03 C 126.45 313.22 127.27 309.23 125.79 305.58 C 125.64 303.21 125.68 300.83 125.24 298.49 C 123.85 293.52 121.97 288.69 120.35 283.79 C 119.54 281.66 119.03 279.31 117.41 277.61 C 113.87 273.74 110.00 270.15 106.63 266.12 C 106.67 264.67 106.79 263.24 106.97 261.82 C 110.33 261.34 113.74 261.45 117.12 261.64 L 117.72 262.30 C 118.73 264.27 121.20 263.40 122.97 263.74 C 125.41 268.09 127.14 272.91 130.19 276.88 C 132.51 277.65 135.36 276.55 137.42 277.83 C 136.45 279.97 135.17 281.95 134.07 284.03 C 133.55 285.04 132.87 286.38 133.61 287.46 C 135.83 290.51 138.67 293.02 141.44 295.57 C 144.35 298.08 145.70 301.86 148.44 304.54 C 150.58 306.77 153.52 308.21 155.15 310.93 C 161.24 320.45 168.18 329.99 178.04 335.90 C 180.90 337.75 184.27 338.44 187.47 339.46 C 190.27 340.47 189.07 346.08 192.74 345.67 C 192.19 342.97 190.64 340.64 189.66 338.10 C 194.69 331.08 197.61 322.59 197.73 313.93 C 197.57 312.13 199.34 311.21 200.28 309.98 C 200.10 306.19 199.17 302.50 198.64 298.76 C 198.59 298.37 198.49 297.61 198.44 297.23 C 198.47 293.93 195.14 291.43 195.77 288.13 C 198.42 284.79 201.91 282.23 204.60 278.92 C 200.67 273.43 195.08 269.35 191.07 263.95 L 191.10 263.25 Z" />
</g>
<g id="#1b1918ff">
<path fill="#1b1918" opacity="1.00" d=" M 139.46 125.59 C 140.73 124.97 142.29 125.05 143.62 125.46 C 145.17 126.64 146.30 128.34 148.07 129.22 C 154.26 130.79 160.70 130.35 166.99 131.18 C 171.66 131.37 176.35 131.48 181.02 131.32 C 183.83 130.70 186.38 129.29 189.09 128.37 C 190.66 129.11 192.32 130.72 191.65 132.63 C 189.97 133.50 188.19 134.14 186.49 134.97 C 188.03 136.88 189.96 138.45 191.39 140.45 C 193.14 142.95 192.96 146.18 192.85 149.09 C 192.45 154.63 188.34 159.13 183.66 161.71 C 178.77 164.81 172.69 165.14 167.09 164.40 C 161.60 163.58 156.59 160.07 153.77 155.32 C 152.07 152.42 152.31 149.03 152.52 145.82 C 147.16 141.16 140.90 137.15 137.17 130.93 C 135.81 128.91 138.02 126.83 139.46 125.59 M 170.05 134.91 C 164.00 136.03 157.91 139.08 154.86 144.66 C 153.96 147.26 152.75 150.32 154.88 152.69 C 161.09 148.70 167.26 144.61 173.51 140.69 C 178.60 140.32 183.72 140.69 188.82 140.60 L 188.62 139.20 C 183.94 134.09 176.46 133.54 170.05 134.91 M 174.35 142.46 C 169.48 144.43 165.40 148.06 160.90 150.75 C 158.99 152.07 156.56 152.88 155.28 154.92 C 158.08 159.27 162.89 162.25 168.06 162.64 C 172.66 162.91 177.51 162.98 181.74 160.88 C 186.62 158.84 190.45 154.26 191.42 149.06 C 191.32 146.89 192.12 144.23 190.36 142.54 C 185.03 142.25 179.68 142.60 174.35 142.46 Z" />
</g>
<g id="#fbfafbff">
<path fill="#fbfafb" opacity="1.00" d=" M 170.05 134.91 C 176.46 133.54 183.94 134.09 188.62 139.20 L 188.82 140.60 C 183.72 140.69 178.60 140.32 173.51 140.69 C 167.26 144.61 161.09 148.70 154.88 152.69 C 152.75 150.32 153.96 147.26 154.86 144.66 C 157.91 139.08 164.00 136.03 170.05 134.91 Z" />
<path fill="#fbfafb" opacity="1.00" d=" M 183.45 242.54 C 183.72 242.51 184.25 242.45 184.52 242.42 C 186.03 243.95 187.27 245.76 188.05 247.78 C 186.10 247.11 184.19 246.34 182.35 245.44 C 182.47 244.51 182.09 242.58 183.45 242.54 Z" />
</g>
<g id="#1c1919ff">
<path fill="#1c1919" opacity="1.00" d=" M 118.35 142.06 C 119.20 139.73 114.67 137.13 117.97 135.63 C 120.47 135.39 122.21 137.72 123.06 139.79 C 125.01 143.99 124.66 148.78 125.79 153.18 C 131.70 159.80 135.11 169.51 132.04 178.17 C 129.68 186.50 122.99 193.14 114.96 196.15 C 110.06 197.28 104.85 198.00 99.95 196.46 C 91.83 194.88 85.28 188.67 81.81 181.37 C 81.66 180.66 81.36 179.25 81.21 178.55 C 81.14 178.21 80.98 177.54 80.90 177.20 C 76.75 176.73 72.55 176.94 68.39 177.22 C 67.64 175.86 69.25 174.85 69.76 173.75 C 71.76 170.58 76.02 172.22 79.04 171.27 C 79.43 168.90 76.37 169.89 75.05 169.39 C 73.08 169.08 71.33 167.53 70.58 165.70 C 73.84 165.61 77.13 165.85 80.37 165.38 C 80.57 164.87 80.99 163.84 81.20 163.33 C 82.21 159.21 84.66 155.61 87.62 152.64 C 91.13 149.49 95.15 146.47 99.97 145.81 C 103.63 145.21 107.33 145.39 111.01 145.63 C 112.55 145.80 114.04 145.35 115.41 144.70 C 116.48 144.01 118.29 143.60 118.35 142.06 M 101.40 147.43 C 97.81 154.51 94.22 161.60 90.76 168.74 C 89.42 171.47 87.70 174.08 87.06 177.10 C 88.71 175.61 89.50 173.50 90.52 171.59 C 94.55 163.42 99.41 155.63 102.87 147.20 C 102.50 147.26 101.77 147.37 101.40 147.43 M 105.27 147.27 C 99.00 158.75 93.28 170.54 86.96 181.99 C 86.45 183.08 85.31 184.47 86.34 185.63 C 88.66 188.48 91.57 191.21 95.04 192.53 C 98.05 188.19 100.16 183.30 102.69 178.68 C 107.64 169.60 112.43 160.44 117.29 151.32 C 118.21 150.15 117.29 148.51 115.91 148.37 C 112.53 147.31 108.73 146.61 105.27 147.27 M 97.40 148.49 C 94.38 149.41 91.82 151.41 89.52 153.51 C 82.56 159.57 79.71 170.15 83.07 178.80 L 83.76 178.68 C 88.69 168.47 94.15 158.48 98.87 148.17 C 98.50 148.25 97.77 148.41 97.40 148.49 M 119.42 151.37 C 112.36 164.66 105.17 177.89 98.09 191.17 C 97.82 192.07 96.36 193.84 98.03 194.24 C 99.65 195.16 100.55 193.12 101.25 192.08 C 108.30 179.87 115.71 167.88 122.85 155.74 C 124.69 153.64 121.59 150.64 119.42 151.37 M 125.10 156.29 C 123.48 157.29 122.94 159.41 121.89 160.95 C 116.31 170.30 110.83 179.73 105.14 189.03 C 104.01 190.89 102.79 192.75 102.17 194.86 C 105.57 196.02 109.36 195.43 112.79 194.66 C 114.10 194.45 114.48 193.01 115.12 192.07 C 118.02 186.67 121.28 181.48 124.10 176.04 C 126.02 172.32 128.55 168.90 130.11 165.00 C 129.68 161.66 127.91 158.66 125.73 156.17 L 125.10 156.29 M 130.22 169.31 L 129.75 169.66 C 125.77 177.18 121.40 184.51 117.26 191.94 L 117.81 192.59 C 126.65 188.62 132.13 178.38 130.95 168.82 L 130.22 169.31 Z" />
</g>
<g id="#fbfbfbff">
<path fill="#fbfbfb" opacity="1.00" d=" M 174.35 142.46 C 179.68 142.60 185.03 142.25 190.36 142.54 C 192.12 144.23 191.32 146.89 191.42 149.06 C 190.45 154.26 186.62 158.84 181.74 160.88 C 177.51 162.98 172.66 162.91 168.06 162.64 C 162.89 162.25 158.08 159.27 155.28 154.92 C 156.56 152.88 158.99 152.07 160.90 150.75 C 165.40 148.06 169.48 144.43 174.35 142.46 M 177.44 144.31 C 176.72 146.47 178.37 148.34 179.87 149.65 C 182.28 149.42 184.50 146.98 184.62 144.56 C 182.69 143.11 180.18 143.26 177.92 143.58 L 177.44 144.31 Z" />
<path fill="#fbfbfb" opacity="1.00" d=" M 196.44 312.52 L 196.59 312.44 C 195.49 316.86 195.50 321.51 193.94 325.82 C 192.80 329.69 190.86 333.28 188.46 336.51 C 188.16 336.61 187.56 336.82 187.26 336.92 C 184.18 332.61 182.15 327.26 182.62 321.91 C 183.39 320.57 184.86 319.94 186.08 319.11 C 189.59 317.00 192.84 314.48 196.44 312.52 Z" />
<path fill="#fbfbfb" opacity="1.00" d=" M 164.98 321.34 C 170.24 321.19 175.50 321.28 180.76 321.29 C 181.01 324.06 180.92 326.88 181.55 329.60 C 182.29 332.02 183.71 334.15 184.69 336.47 C 179.50 335.72 175.25 332.07 171.43 328.70 C 169.15 326.39 166.44 324.30 164.98 321.34 Z" />
</g>
<g id="#a7a6a6ff">
<path fill="#a7a6a6" opacity="1.00" d=" M 101.42 144.56 C 106.06 144.12 110.76 144.43 115.41 144.70 C 114.04 145.35 112.55 145.80 111.01 145.63 C 107.33 145.39 103.63 145.21 99.97 145.81 C 100.33 145.50 101.06 144.87 101.42 144.56 Z" />
</g>
<g id="#1f1f1fff">
<path fill="#1f1f1f" opacity="1.00" d=" M 177.44 144.31 L 177.92 143.58 C 180.18 143.26 182.69 143.11 184.62 144.56 C 184.50 146.98 182.28 149.42 179.87 149.65 C 178.37 148.34 176.72 146.47 177.44 144.31 Z" />
<path fill="#1f1f1f" opacity="1.00" d=" M 187.59 197.70 C 189.07 196.62 188.69 198.43 188.68 199.42 C 184.50 201.06 180.34 202.84 176.01 204.08 C 175.76 203.80 175.26 203.22 175.02 202.94 C 179.01 200.79 183.44 199.54 187.59 197.70 Z" />
</g>
<g id="#898b91ff">
<path fill="#898b91" opacity="1.00" d=" M 101.40 147.43 C 101.77 147.37 102.50 147.26 102.87 147.20 C 99.41 155.63 94.55 163.42 90.52 171.59 C 89.50 173.50 88.71 175.61 87.06 177.10 C 87.70 174.08 89.42 171.47 90.76 168.74 C 94.22 161.60 97.81 154.51 101.40 147.43 Z" />
<path fill="#898b91" opacity="1.00" d=" M 97.40 148.49 C 97.77 148.41 98.50 148.25 98.87 148.17 C 94.15 158.48 88.69 168.47 83.76 178.68 L 83.07 178.80 C 79.71 170.15 82.56 159.57 89.52 153.51 C 91.82 151.41 94.38 149.41 97.40 148.49 Z" />
</g>
<g id="#8a8b91ff">
<path fill="#8a8b91" opacity="1.00" d=" M 105.27 147.27 C 108.73 146.61 112.53 147.31 115.91 148.37 C 117.29 148.51 118.21 150.15 117.29 151.32 C 112.43 160.44 107.64 169.60 102.69 178.68 C 100.16 183.30 98.05 188.19 95.04 192.53 C 91.57 191.21 88.66 188.48 86.34 185.63 C 85.31 184.47 86.45 183.08 86.96 181.99 C 93.28 170.54 99.00 158.75 105.27 147.27 Z" />
</g>
<g id="#2b2b2bff">
<path fill="#2b2b2b" opacity="1.00" d=" M 240.04 158.36 C 236.08 156.14 237.68 149.42 242.00 148.46 C 244.28 149.55 246.22 151.47 247.30 153.77 C 247.49 157.52 247.54 161.29 247.30 165.05 C 244.76 168.26 241.39 170.90 237.53 172.33 C 233.80 173.38 229.85 173.75 225.99 173.35 C 222.91 172.54 220.31 170.61 217.47 169.25 C 217.17 172.83 217.72 176.49 216.91 180.02 C 216.52 180.02 215.74 180.01 215.35 180.01 C 215.50 176.34 215.84 172.64 215.35 168.99 C 209.89 166.63 203.35 168.56 198.50 171.62 C 194.99 173.99 194.82 178.56 193.14 182.08 C 189.91 182.41 186.47 182.81 183.36 181.66 C 182.35 177.87 181.05 173.96 181.59 169.99 C 185.58 164.59 190.96 159.02 198.09 158.54 C 202.65 158.01 207.38 157.00 211.89 158.41 C 213.21 158.76 214.55 159.08 215.90 159.33 C 219.47 159.91 222.80 161.38 225.95 163.11 C 229.64 165.09 234.28 165.11 238.02 163.24 C 240.12 161.13 243.87 159.65 243.69 156.18 C 242.48 156.91 241.39 157.88 240.04 158.36 Z" />
<path fill="#2b2b2b" opacity="1.00" d=" M 51.29 174.19 C 51.69 172.01 50.89 169.26 52.61 167.55 L 53.89 168.05 C 51.93 183.61 52.16 199.66 56.44 214.83 C 59.67 225.21 65.60 235.07 74.58 241.45 C 85.59 249.19 98.56 253.74 111.74 256.12 C 116.33 257.99 121.34 257.57 126.17 258.03 C 125.01 258.48 123.87 258.98 122.76 259.54 C 124.30 262.79 126.27 265.81 127.73 269.11 C 128.75 271.15 129.49 273.42 131.10 275.11 C 133.94 275.76 136.90 275.26 139.78 275.53 C 139.51 279.70 135.72 282.67 135.20 286.74 C 137.72 290.52 141.61 293.05 144.59 296.43 C 147.06 299.41 148.58 303.32 152.08 305.32 C 150.83 300.32 148.75 295.53 148.06 290.38 C 148.40 289.95 149.06 289.10 149.40 288.67 C 151.24 299.47 155.43 310.10 162.49 318.58 C 163.93 320.48 166.73 319.36 168.78 319.56 C 165.39 314.19 162.26 308.48 160.99 302.19 C 159.57 294.78 160.42 287.16 162.48 279.97 C 158.82 276.78 154.53 274.06 152.36 269.53 L 152.89 268.50 C 155.89 271.05 158.10 274.45 161.44 276.59 C 162.46 277.44 163.81 278.03 164.49 279.20 C 164.45 281.21 163.74 283.14 163.37 285.11 C 160.70 296.55 163.30 309.19 170.58 318.46 C 172.04 319.33 173.90 318.98 175.53 319.28 C 177.68 319.45 179.86 319.72 182.02 319.44 C 184.02 318.73 185.83 317.53 187.31 316.01 C 187.14 305.63 183.24 295.68 178.40 286.62 C 176.66 283.28 174.09 280.43 172.48 277.02 C 173.63 272.07 176.13 267.24 175.44 262.01 C 172.48 258.96 168.72 256.84 165.71 253.84 C 166.31 253.37 166.92 252.92 167.54 252.49 C 167.97 253.64 168.88 254.48 169.83 255.22 C 173.08 257.66 176.02 260.80 180.16 261.66 C 181.00 262.08 181.83 262.51 182.66 262.96 C 186.89 270.42 190.51 278.23 194.48 285.84 C 197.73 284.71 199.78 281.35 202.10 278.91 C 201.71 277.74 200.86 276.81 200.00 275.96 C 196.64 272.67 193.44 269.22 189.99 266.03 C 188.85 265.18 188.82 263.55 189.37 262.37 C 190.63 261.15 192.08 260.17 193.37 259.00 C 192.97 257.56 192.39 256.17 191.84 254.79 C 194.03 254.92 195.43 256.66 197.14 257.79 C 200.50 258.63 204.17 257.64 207.39 259.13 C 204.39 259.49 201.47 258.44 198.47 258.55 C 198.88 262.73 202.83 265.79 203.73 269.95 L 202.56 270.53 C 200.54 266.84 198.56 263.12 196.23 259.63 C 194.20 259.64 192.64 262.00 191.10 263.25 L 191.07 263.95 C 195.08 269.35 200.67 273.43 204.60 278.92 C 201.91 282.23 198.42 284.79 195.77 288.13 C 195.14 291.43 198.47 293.93 198.44 297.23 C 197.72 295.98 196.93 294.78 196.09 293.61 C 195.88 295.02 195.70 296.43 195.54 297.86 C 194.66 293.47 194.46 288.79 192.16 284.84 C 188.28 277.98 185.26 270.66 181.19 263.91 C 180.38 261.63 176.93 262.82 177.27 265.02 C 176.89 269.15 175.28 272.99 174.41 277.00 C 176.43 280.49 178.86 283.74 180.67 287.36 C 185.32 295.59 188.05 304.83 188.98 314.21 L 189.90 314.43 C 192.18 313.31 194.66 312.10 196.19 310.00 C 196.61 306.56 196.28 303.09 195.82 299.68 C 196.38 301.15 196.99 302.62 197.64 304.07 C 198.00 302.30 198.33 300.53 198.64 298.76 C 199.17 302.50 200.10 306.19 200.28 309.98 C 199.34 311.21 197.57 312.13 197.73 313.93 C 197.61 322.59 194.69 331.08 189.66 338.10 C 190.64 340.64 192.19 342.97 192.74 345.67 C 189.07 346.08 190.27 340.47 187.47 339.46 C 184.27 338.44 180.90 337.75 178.04 335.90 C 168.18 329.99 161.24 320.45 155.15 310.93 C 153.52 308.21 150.58 306.77 148.44 304.54 C 145.70 301.86 144.35 298.08 141.44 295.57 C 138.67 293.02 135.83 290.51 133.61 287.46 C 132.87 286.38 133.55 285.04 134.07 284.03 C 135.17 281.95 136.45 279.97 137.42 277.83 C 135.36 276.55 132.51 277.65 130.19 276.88 C 127.14 272.91 125.41 268.09 122.97 263.74 C 121.98 261.83 119.43 262.77 117.72 262.30 L 117.12 261.64 C 116.09 259.77 113.70 260.56 111.98 260.35 C 110.11 260.50 108.00 260.10 106.35 261.20 C 106.14 262.84 106.33 264.50 106.63 266.12 C 110.00 270.15 113.87 273.74 117.41 277.61 C 119.03 279.31 119.54 281.66 120.35 283.79 C 121.97 288.69 123.85 293.52 125.24 298.49 C 122.61 305.00 124.98 312.13 123.76 318.86 C 123.14 318.92 121.90 319.04 121.28 319.10 C 120.16 312.39 120.45 305.46 118.66 298.85 C 118.26 299.45 117.46 300.63 117.05 301.22 C 116.30 298.14 115.25 295.13 114.82 291.98 C 116.03 291.16 117.58 290.46 117.95 288.90 C 118.18 287.01 117.04 285.38 116.26 283.77 C 115.01 281.59 114.00 279.21 112.31 277.33 C 111.25 277.80 110.24 278.37 109.23 278.93 L 108.56 278.59 C 102.66 268.19 94.99 258.88 86.35 250.64 C 83.81 248.69 80.73 247.63 78.01 245.98 C 68.28 240.59 60.88 231.52 56.75 221.25 C 54.40 215.67 53.07 209.73 51.80 203.82 C 50.86 193.98 50.19 184.05 51.29 174.19 M 196.44 312.52 C 192.84 314.48 189.59 317.00 186.08 319.11 C 184.86 319.94 183.39 320.57 182.62 321.91 C 182.15 327.26 184.18 332.61 187.26 336.92 C 187.56 336.82 188.16 336.61 188.46 336.51 C 190.86 333.28 192.80 329.69 193.94 325.82 C 195.50 321.51 195.49 316.86 196.59 312.44 L 196.44 312.52 M 164.98 321.34 C 166.44 324.30 169.15 326.39 171.43 328.70 C 175.25 332.07 179.50 335.72 184.69 336.47 C 183.71 334.15 182.29 332.02 181.55 329.60 C 180.92 326.88 181.01 324.06 180.76 321.29 C 175.50 321.28 170.24 321.19 164.98 321.34 Z" />
<path fill="#2b2b2b" opacity="1.00" d=" M 151.58 173.46 C 154.72 171.21 158.03 168.71 162.04 168.49 C 166.02 168.16 170.06 168.13 174.02 168.71 C 176.32 169.06 177.96 170.92 179.33 172.65 C 181.63 175.54 182.94 179.33 182.48 183.04 C 181.78 184.15 180.96 185.19 179.97 186.05 C 178.06 186.75 175.94 186.57 173.97 186.31 C 171.35 185.82 169.88 183.33 167.54 182.32 C 164.07 180.64 160.14 182.40 157.12 184.26 C 149.74 189.25 145.63 197.64 142.89 205.85 C 141.96 208.69 139.51 210.66 136.87 211.86 C 131.93 212.56 126.92 212.81 121.96 212.16 C 120.82 211.26 119.75 210.26 118.86 209.10 C 116.84 205.26 119.71 199.98 124.00 199.49 C 127.23 198.79 128.76 202.48 129.25 205.03 C 128.46 206.23 127.23 207.04 126.02 207.77 C 124.12 206.85 123.24 205.18 123.48 203.10 C 121.84 203.65 121.74 206.00 123.32 206.71 C 125.62 209.31 130.16 208.96 132.20 206.21 C 135.83 201.15 137.79 195.08 138.90 189.01 C 139.22 187.71 139.37 186.31 140.17 185.20 C 143.23 180.64 147.13 176.66 151.58 173.46 Z" />
<path fill="#2b2b2b" opacity="1.00" d=" M 120.53 328.51 C 122.00 326.67 124.45 326.03 126.38 324.81 C 127.43 328.80 124.47 332.10 124.58 336.00 C 124.39 344.50 124.14 353.00 124.43 361.49 C 125.51 361.79 126.61 362.03 127.73 362.21 C 129.93 362.61 132.12 363.01 134.29 363.58 C 131.85 364.93 128.95 363.70 126.34 363.64 C 122.61 362.82 118.84 362.30 115.06 361.77 C 114.15 358.56 114.96 355.03 115.20 351.73 C 115.62 353.17 116.10 354.59 116.63 356.01 C 116.89 352.01 116.96 347.96 118.15 344.10 C 119.64 339.01 119.83 333.71 120.53 328.51 Z" />
</g>
<g id="#9e9e9eff">
<path fill="#9e9e9e" opacity="1.00" d=" M 5.18 160.19 C 2.62 157.51 3.13 153.37 3.50 149.99 C 3.92 153.41 4.47 156.81 5.18 160.19 Z" />
</g>
<g id="#8c8d91ff">
<path fill="#8c8d91" opacity="1.00" d=" M 119.42 151.37 C 121.59 150.64 124.69 153.64 122.85 155.74 C 115.71 167.88 108.30 179.87 101.25 192.08 C 100.55 193.12 99.65 195.16 98.03 194.24 C 96.36 193.84 97.82 192.07 98.09 191.17 C 105.17 177.89 112.36 164.66 119.42 151.37 Z" />
</g>
<g id="#878787ff">
<path fill="#878787" opacity="1.00" d=" M 247.30 153.77 C 249.06 156.71 248.88 160.31 248.44 163.58 C 248.16 163.95 247.59 164.68 247.30 165.05 C 247.54 161.29 247.49 157.52 247.30 153.77 Z" />
</g>
<g id="#898b90ff">
<path fill="#898b90" opacity="1.00" d=" M 125.10 156.29 L 125.73 156.17 C 127.91 158.66 129.68 161.66 130.11 165.00 C 128.55 168.90 126.02 172.32 124.10 176.04 C 121.28 181.48 118.02 186.67 115.12 192.07 C 114.48 193.01 114.10 194.45 112.79 194.66 C 109.36 195.43 105.57 196.02 102.17 194.86 C 102.79 192.75 104.01 190.89 105.14 189.03 C 110.83 179.73 116.31 170.30 121.89 160.95 C 122.94 159.41 123.48 157.29 125.10 156.29 Z" />
</g>
<g id="#1a1918ff">
<path fill="#1a1918" opacity="1.00" d=" M 269.69 159.00 C 270.00 158.70 270.61 158.09 270.92 157.79 C 279.63 157.66 288.36 157.68 297.07 157.76 C 299.11 159.07 300.94 161.44 300.74 163.97 C 300.59 170.52 300.92 177.08 300.45 183.61 C 296.15 188.25 291.65 192.71 287.18 197.19 C 286.44 198.02 285.28 198.79 285.47 200.08 C 285.49 204.24 285.28 208.42 285.51 212.58 C 286.40 213.35 287.40 214.00 288.33 214.75 C 288.46 216.18 288.06 217.59 287.98 219.01 C 288.30 221.11 289.09 223.26 288.36 225.37 C 287.42 226.05 286.40 226.61 285.49 227.33 C 285.29 228.38 285.23 229.45 285.31 230.52 C 288.46 231.68 291.78 232.27 295.09 232.82 C 296.15 232.87 296.70 233.44 296.74 234.54 C 292.17 234.92 287.58 234.48 283.00 234.83 C 278.99 235.24 274.88 235.66 270.87 235.05 L 270.18 233.99 L 270.89 232.98 C 274.57 232.39 278.20 231.49 281.80 230.48 C 281.88 229.16 281.93 227.81 281.56 226.54 C 280.23 226.01 278.87 225.24 277.40 225.35 C 273.92 228.89 270.20 232.29 267.70 236.63 C 264.57 240.85 263.40 246.08 260.60 250.48 C 257.86 255.59 253.83 259.80 249.95 264.03 C 247.05 267.22 243.24 269.33 239.75 271.76 C 238.40 272.78 236.46 272.74 234.98 272.07 C 225.73 267.87 216.62 263.36 207.39 259.13 C 204.17 257.64 200.50 258.63 197.14 257.79 C 195.43 256.66 194.03 254.92 191.84 254.79 C 190.68 253.11 189.71 251.29 188.38 249.74 C 186.63 248.48 184.50 247.93 182.48 247.30 C 182.33 252.51 182.31 257.75 182.66 262.96 C 181.83 262.51 181.00 262.08 180.16 261.66 C 181.31 256.22 180.52 250.61 180.54 245.10 C 176.19 247.52 172.07 250.37 167.54 252.49 C 166.92 252.92 166.31 253.37 165.71 253.84 C 165.25 253.97 164.34 254.23 163.88 254.36 C 161.92 255.02 159.36 255.27 158.33 257.33 C 156.43 261.01 154.21 264.56 152.89 268.50 L 152.36 269.53 C 151.35 270.45 150.12 271.30 149.74 272.71 C 148.21 277.90 148.84 283.37 149.40 288.67 C 149.06 289.10 148.40 289.95 148.06 290.38 C 146.86 284.66 147.88 278.79 147.37 273.03 C 146.19 270.21 144.55 267.61 143.29 264.84 C 142.34 263.03 141.63 261.01 140.12 259.57 C 134.34 259.50 128.55 259.69 122.76 259.54 C 123.87 258.98 125.01 258.48 126.17 258.03 C 131.54 258.47 136.95 258.25 142.25 257.32 C 150.40 256.19 158.58 254.51 166.09 251.04 C 185.40 242.54 200.35 225.83 208.72 206.68 C 212.07 198.12 214.49 189.18 215.35 180.01 C 215.74 180.01 216.52 180.02 216.91 180.02 C 215.48 203.55 203.35 225.69 185.65 240.99 C 186.89 242.92 187.98 245.09 189.79 246.55 C 191.56 245.89 193.41 246.08 195.04 247.03 C 208.47 253.22 222.07 259.06 235.49 265.28 C 237.14 265.99 239.27 266.07 240.47 264.51 C 244.82 260.10 250.36 256.69 253.43 251.16 C 255.94 247.01 258.55 242.89 260.54 238.45 C 262.44 234.20 264.36 229.92 267.22 226.21 C 268.98 223.68 271.46 221.81 273.52 219.54 C 275.61 216.01 277.04 212.14 278.81 208.45 C 279.93 208.53 281.04 208.74 282.16 208.86 C 282.22 205.29 282.67 201.62 282.04 198.11 C 278.31 193.43 273.10 190.02 269.72 185.08 C 269.59 176.39 269.50 167.69 269.69 159.00 M 271.55 159.56 C 271.31 166.11 271.47 172.67 271.46 179.22 C 273.19 180.10 275.16 179.74 277.02 179.76 C 284.45 179.69 291.89 179.11 299.25 178.29 C 299.31 173.18 299.59 168.07 299.35 162.97 C 298.69 161.75 297.88 160.63 296.98 159.60 C 288.52 159.34 280.02 159.40 271.55 159.56 M 294.18 180.16 C 286.84 181.27 279.33 180.27 271.95 181.03 C 271.55 182.78 271.19 184.97 272.59 186.40 C 274.44 188.54 276.63 190.36 278.58 192.41 C 280.45 194.27 282.27 196.43 284.92 197.14 C 287.18 196.07 288.19 193.61 289.97 191.98 C 292.74 189.36 295.50 186.72 297.94 183.79 C 298.72 182.84 298.77 181.55 298.75 180.39 C 297.35 179.37 295.70 179.74 294.18 180.16 M 183.45 242.54 C 182.09 242.58 182.47 244.51 182.35 245.44 C 184.19 246.34 186.10 247.11 188.05 247.78 C 187.27 245.76 186.03 243.95 184.52 242.42 C 184.25 242.45 183.72 242.51 183.45 242.54 M 155.47 256.61 C 152.61 257.52 149.67 258.17 146.69 258.50 C 145.24 258.82 143.38 258.42 142.35 259.73 C 144.31 263.40 146.04 267.20 148.21 270.75 C 148.47 270.66 148.98 270.47 149.24 270.38 C 151.52 265.52 155.02 261.27 156.88 256.22 C 156.53 256.32 155.82 256.52 155.47 256.61 Z" />
</g>
<g id="#fefeffff">
<path fill="#fefeff" opacity="1.00" d=" M 271.55 159.56 C 280.02 159.40 288.52 159.34 296.98 159.60 C 297.88 160.63 298.69 161.75 299.35 162.97 C 299.59 168.07 299.31 173.18 299.25 178.29 C 290.00 178.59 280.62 177.61 271.46 179.22 C 271.47 172.67 271.31 166.11 271.55 159.56 Z" />
</g>
<g id="#a19fa1ff">
<path fill="#a19fa1" opacity="1.00" d=" M 71.45 164.47 C 74.71 164.14 78.21 165.09 81.20 163.33 C 80.99 163.84 80.57 164.87 80.37 165.38 C 77.13 165.85 73.84 165.61 70.58 165.70 C 70.80 165.39 71.23 164.78 71.45 164.47 Z" />
</g>
<g id="#929292ff">
<path fill="#929292" opacity="1.00" d=" M 225.95 163.11 C 229.96 163.56 234.00 163.48 238.02 163.24 C 234.28 165.11 229.64 165.09 225.95 163.11 Z" />
</g>
<g id="#8c8c91ff">
<path fill="#8c8c91" opacity="1.00" d=" M 130.22 169.31 L 130.95 168.82 C 132.13 178.38 126.65 188.62 117.81 192.59 L 117.26 191.94 C 121.40 184.51 125.77 177.18 129.75 169.66 L 130.22 169.31 Z" />
</g>
<g id="#3b3b3fff">
<path fill="#3b3b3f" opacity="1.00" d=" M 68.39 177.22 C 72.55 176.94 76.75 176.73 80.90 177.20 C 80.98 177.54 81.14 178.21 81.21 178.55 C 77.82 178.35 74.39 178.13 71.06 177.67 C 70.42 179.40 68.29 182.14 70.84 183.19 C 70.12 183.86 69.42 184.55 68.77 185.30 L 68.32 185.81 C 68.40 185.07 68.54 183.60 68.61 182.86 C 67.74 181.90 66.76 181.05 65.98 180.02 C 66.70 179.02 67.51 178.09 68.39 177.22 Z" />
<path fill="#3b3b3f" opacity="1.00" d=" M 148.85 383.96 C 149.15 385.59 149.34 387.24 149.45 388.91 C 146.96 387.65 144.17 387.75 141.47 387.48 C 141.33 387.08 141.03 386.28 140.89 385.88 C 143.10 384.95 145.45 385.14 147.77 385.29 C 148.04 384.96 148.58 384.29 148.85 383.96 Z" />
</g>
<g id="#a69d9aff">
<path fill="#a69d9a" opacity="1.00" d=" M 271.46 179.22 C 280.62 177.61 290.00 178.59 299.25 178.29 C 291.89 179.11 284.45 179.69 277.02 179.76 C 275.16 179.74 273.19 180.10 271.46 179.22 Z" />
</g>
<g id="#7d2d2aff">
<path fill="#7d2d2a" opacity="1.00" d=" M 294.18 180.16 C 295.70 179.74 297.35 179.37 298.75 180.39 C 298.77 181.55 298.72 182.84 297.94 183.79 C 295.50 186.72 292.74 189.36 289.97 191.98 C 288.19 193.61 287.18 196.07 284.92 197.14 C 282.27 196.43 280.45 194.27 278.58 192.41 C 276.63 190.36 274.44 188.54 272.59 186.40 C 271.19 184.97 271.55 182.78 271.95 181.03 C 279.33 180.27 286.84 181.27 294.18 180.16 Z" />
</g>
<g id="#0e0e0eff">
<path fill="#0e0e0e" opacity="1.00" d=" M 194.21 183.97 C 193.56 182.39 195.51 181.59 196.66 182.37 C 198.89 184.13 200.73 186.37 202.20 188.80 C 204.10 191.68 203.68 195.33 203.12 198.55 C 202.55 198.40 201.42 198.11 200.86 197.97 C 200.52 195.28 200.91 192.33 199.22 190.01 C 197.81 187.78 195.72 186.10 194.21 183.97 Z" />
<path fill="#0e0e0e" opacity="1.00" d=" M 73.26 226.36 C 74.72 226.20 76.20 226.23 77.65 226.42 C 77.90 228.15 76.68 229.27 75.17 229.80 C 73.93 229.03 73.17 227.84 73.26 226.36 Z" />
</g>
<g id="#1c1c1cff">
<path fill="#1c1c1c" opacity="1.00" d=" M 68.77 185.30 C 69.42 184.55 70.12 183.86 70.84 183.19 C 71.28 183.26 72.15 183.40 72.59 183.47 C 72.55 184.55 71.90 185.67 72.31 186.74 C 73.06 187.50 73.91 188.16 74.66 188.93 C 74.11 190.15 73.31 191.36 74.32 192.59 C 74.94 193.72 72.86 194.49 73.29 195.67 C 73.58 196.10 74.15 196.97 74.43 197.40 C 72.92 199.88 74.21 202.75 75.64 204.93 C 75.47 205.47 75.11 206.55 74.94 207.09 C 75.52 207.78 76.11 208.46 76.70 209.15 C 75.46 210.42 73.61 211.67 72.25 209.80 C 73.04 207.35 72.27 205.01 71.03 202.86 C 69.97 201.46 71.40 199.84 70.74 198.35 C 69.83 196.83 72.62 195.52 71.08 194.20 C 69.50 192.97 71.74 191.59 70.96 190.19 C 70.52 189.08 71.14 187.88 70.80 186.76 C 70.29 186.39 69.28 185.66 68.77 185.30 Z" />
</g>
<g id="#171717ff">
<path fill="#171717" opacity="1.00" d=" M 162.49 190.49 C 163.93 190.16 165.43 190.25 166.90 190.30 C 166.49 192.99 164.18 195.14 164.57 197.99 C 164.57 201.57 167.74 203.76 169.86 206.21 C 168.73 207.19 167.43 207.62 165.94 207.50 C 163.93 206.06 162.09 204.31 160.85 202.15 C 160.58 199.38 160.51 196.59 160.65 193.82 C 161.17 192.66 161.75 191.52 162.49 190.49 Z" />
<path fill="#171717" opacity="1.00" d=" M 73.14 212.06 L 74.02 211.46 C 74.49 211.86 75.45 212.65 75.92 213.05 C 75.51 214.04 75.08 215.04 74.65 216.02 C 75.64 216.75 76.70 217.40 77.68 218.15 C 77.17 219.07 76.43 219.86 76.10 220.87 C 76.55 221.78 77.58 222.46 77.63 223.53 C 76.69 224.51 75.11 225.30 73.94 224.17 C 71.91 223.14 75.42 221.48 74.27 220.21 C 73.04 218.92 73.65 217.54 74.33 216.20 C 73.13 215.31 70.85 213.20 73.14 212.06 Z" />
</g>
<g id="#949494ff">
<path fill="#949494" opacity="1.00" d=" M 199.22 190.01 C 200.91 192.33 200.52 195.28 200.86 197.97 C 201.42 198.11 202.55 198.40 203.12 198.55 C 201.92 198.49 199.83 199.43 199.55 197.65 C 199.33 195.10 199.34 192.55 199.22 190.01 Z" />
</g>
<g id="#363636ff">
<path fill="#363636" opacity="1.00" d=" M 186.55 191.74 C 187.58 191.53 188.62 191.38 189.68 191.30 C 189.66 191.83 189.62 192.88 189.60 193.40 C 185.17 194.36 180.66 195.08 176.33 196.46 C 175.95 196.90 175.19 197.78 174.81 198.21 C 173.45 197.82 171.31 197.22 171.28 195.50 C 176.35 194.20 181.46 192.97 186.55 191.74 Z" />
</g>
<g id="#838383ff">
<path fill="#838383" opacity="1.00" d=" M 160.85 202.15 C 158.89 199.75 158.96 196.34 160.65 193.82 C 160.51 196.59 160.58 199.38 160.85 202.15 Z" />
<path fill="#838383" opacity="1.00" d=" M 106.35 261.20 C 108.00 260.10 110.11 260.50 111.98 260.35 C 113.70 260.56 116.09 259.77 117.12 261.64 C 113.74 261.45 110.33 261.34 106.97 261.82 C 106.79 263.24 106.67 264.67 106.63 266.12 C 106.33 264.50 106.14 262.84 106.35 261.20 Z" />
</g>
<g id="#8e8e8eff">
<path fill="#8e8e8e" opacity="1.00" d=" M 121.96 212.16 C 126.92 212.81 131.93 212.56 136.87 211.86 C 135.38 213.31 133.00 213.24 131.06 213.58 C 128.02 213.59 124.44 214.37 121.96 212.16 Z" />
</g>
<g id="#1a1919ff">
<path fill="#1a1919" opacity="1.00" d=" M 73.25 231.41 C 74.52 230.07 76.46 230.20 77.69 231.51 C 77.66 233.03 76.11 234.36 74.66 234.52 C 73.98 233.59 73.27 232.60 73.25 231.41 Z" />
<path fill="#1a1919" opacity="1.00" d=" M 112.31 277.33 C 114.00 279.21 115.01 281.59 116.26 283.77 C 117.04 285.38 118.18 287.01 117.95 288.90 C 117.58 290.46 116.03 291.16 114.82 291.98 C 113.01 291.15 111.28 292.85 110.82 294.52 C 107.74 303.14 104.90 311.86 101.63 320.42 C 100.81 323.05 99.42 325.61 99.43 328.43 C 103.08 328.20 106.17 326.02 109.38 324.48 C 112.29 322.80 115.47 321.74 118.59 320.54 C 119.14 314.08 118.49 307.54 117.05 301.22 C 117.46 300.63 118.26 299.45 118.66 298.85 C 120.45 305.46 120.16 312.39 121.28 319.10 C 121.90 319.04 123.14 318.92 123.76 318.86 C 124.98 312.13 122.61 305.00 125.24 298.49 C 125.68 300.83 125.64 303.21 125.79 305.58 C 125.60 309.68 125.42 313.83 126.05 317.91 C 130.40 317.87 134.75 317.38 139.10 317.79 C 140.72 318.86 142.45 319.82 143.91 321.14 C 144.12 322.34 144.35 323.55 144.59 324.75 C 146.85 324.46 149.02 323.70 151.20 323.07 C 153.62 322.25 158.27 321.51 158.83 324.86 C 155.17 327.61 151.10 330.05 146.55 330.93 C 141.99 331.94 137.49 333.25 132.86 333.88 C 131.71 334.04 130.10 334.48 130.24 335.98 C 129.79 339.68 129.93 343.49 128.83 347.09 L 127.84 347.42 C 127.45 341.58 127.84 335.72 127.62 329.87 C 130.32 328.65 133.22 327.96 135.98 326.89 C 137.68 326.59 136.62 324.68 136.23 323.75 C 133.96 322.28 130.34 321.23 128.09 323.15 C 127.50 323.68 126.93 324.23 126.38 324.81 C 124.45 326.03 122.00 326.67 120.53 328.51 C 119.83 333.71 119.64 339.01 118.15 344.10 C 116.96 347.96 116.89 352.01 116.63 356.01 C 116.10 354.59 115.62 353.17 115.20 351.73 C 114.80 347.01 116.79 342.59 117.33 337.97 C 117.60 334.60 118.93 331.32 118.44 327.91 C 116.68 328.12 114.84 328.27 113.34 329.29 C 109.29 331.73 105.07 333.87 100.99 336.25 C 98.29 336.41 95.58 336.24 92.89 336.03 C 91.79 333.49 93.38 330.63 93.76 328.03 C 96.68 313.80 101.94 300.15 108.30 287.12 C 109.70 284.61 109.17 281.67 109.23 278.93 C 110.24 278.37 111.25 277.80 112.31 277.33 Z" />
</g>
<g id="#f1f1f1ff">
<path fill="#f1f1f1" opacity="1.00" d=" M 167.54 252.49 C 172.07 250.37 176.19 247.52 180.54 245.10 C 180.52 250.61 181.31 256.22 180.16 261.66 C 176.02 260.80 173.08 257.66 169.83 255.22 C 168.88 254.48 167.97 253.64 167.54 252.49 Z" />
<path fill="#f1f1f1" opacity="1.00" d=" M 155.47 256.61 C 155.82 256.52 156.53 256.32 156.88 256.22 C 155.02 261.27 151.52 265.52 149.24 270.38 C 148.98 270.47 148.47 270.66 148.21 270.75 C 146.04 267.20 144.31 263.40 142.35 259.73 C 143.38 258.42 145.24 258.82 146.69 258.50 C 149.67 258.17 152.61 257.52 155.47 256.61 Z" />
</g>
<g id="#f1f1f0ff">
<path fill="#f1f1f0" opacity="1.00" d=" M 182.48 247.30 C 184.50 247.93 186.63 248.48 188.38 249.74 C 189.71 251.29 190.68 253.11 191.84 254.79 C 192.39 256.17 192.97 257.56 193.37 259.00 C 192.08 260.17 190.63 261.15 189.37 262.37 C 188.82 263.55 188.85 265.18 189.99 266.03 C 193.44 269.22 196.64 272.67 200.00 275.96 C 200.86 276.81 201.71 277.74 202.10 278.91 C 199.78 281.35 197.73 284.71 194.48 285.84 C 190.51 278.23 186.89 270.42 182.66 262.96 C 182.31 257.75 182.33 252.51 182.48 247.30 Z" />
</g>
<g id="#515357ff">
<path fill="#515357" opacity="1.00" d=" M 158.33 257.33 C 159.36 255.27 161.92 255.02 163.88 254.36 C 163.68 258.57 163.62 262.80 163.71 267.02 C 163.26 272.51 169.95 275.46 169.35 280.99 C 169.42 287.76 169.06 294.64 170.85 301.25 C 171.89 307.39 173.76 313.32 175.53 319.28 C 173.90 318.98 172.04 319.33 170.58 318.46 C 163.30 309.19 160.70 296.55 163.37 285.11 C 163.74 283.14 164.45 281.21 164.49 279.20 C 163.81 278.03 162.46 277.44 161.44 276.59 C 158.10 274.45 155.89 271.05 152.89 268.50 C 154.21 264.56 156.43 261.01 158.33 257.33 Z" />
</g>
<g id="#fcfcfcff">
<path fill="#fcfcfc" opacity="1.00" d=" M 163.88 254.36 C 164.34 254.23 165.25 253.97 165.71 253.84 C 168.72 256.84 172.48 258.96 175.44 262.01 C 176.13 267.24 173.63 272.07 172.48 277.02 C 174.09 280.43 176.66 283.28 178.40 286.62 C 183.24 295.68 187.14 305.63 187.31 316.01 C 185.83 317.53 184.02 318.73 182.02 319.44 C 179.86 319.72 177.68 319.45 175.53 319.28 C 173.76 313.32 171.89 307.39 170.85 301.25 C 169.06 294.64 169.42 287.76 169.35 280.99 C 169.95 275.46 163.26 272.51 163.71 267.02 C 163.62 262.80 163.68 258.57 163.88 254.36 Z" />
<path fill="#fcfcfc" opacity="1.00" d=" M 110.82 294.52 C 111.28 292.85 113.01 291.15 114.82 291.98 C 115.25 295.13 116.30 298.14 117.05 301.22 C 118.49 307.54 119.14 314.08 118.59 320.54 C 115.47 321.74 112.29 322.80 109.38 324.48 C 106.17 326.02 103.08 328.20 99.43 328.43 C 99.42 325.61 100.81 323.05 101.63 320.42 C 104.90 311.86 107.74 303.14 110.82 294.52 Z" />
</g>
<g id="#8d8d8dff">
<path fill="#8d8d8d" opacity="1.00" d=" M 111.74 256.12 C 116.87 256.08 121.89 257.31 127.01 257.28 C 132.09 257.25 137.17 257.25 142.25 257.32 C 136.95 258.25 131.54 258.47 126.17 258.03 C 121.34 257.57 116.33 257.99 111.74 256.12 Z" />
</g>
<g id="#f1f1efff">
<path fill="#f1f1ef" opacity="1.00" d=" M 122.76 259.54 C 128.55 259.69 134.34 259.50 140.12 259.57 C 141.63 261.01 142.34 263.03 143.29 264.84 C 144.55 267.61 146.19 270.21 147.37 273.03 C 147.88 278.79 146.86 284.66 148.06 290.38 C 148.75 295.53 150.83 300.32 152.08 305.32 C 148.58 303.32 147.06 299.41 144.59 296.43 C 141.61 293.05 137.72 290.52 135.20 286.74 C 135.72 282.67 139.51 279.70 139.78 275.53 C 136.90 275.26 133.94 275.76 131.10 275.11 C 129.49 273.42 128.75 271.15 127.73 269.11 C 126.27 265.81 124.30 262.79 122.76 259.54 Z" />
<path fill="#f1f1ef" opacity="1.00" d=" M 177.27 265.02 C 176.93 262.82 180.38 261.63 181.19 263.91 C 185.26 270.66 188.28 277.98 192.16 284.84 C 194.46 288.79 194.66 293.47 195.54 297.86 C 195.61 298.31 195.75 299.23 195.82 299.68 C 196.28 303.09 196.61 306.56 196.19 310.00 C 194.66 312.10 192.18 313.31 189.90 314.43 L 188.98 314.21 C 188.05 304.83 185.32 295.59 180.67 287.36 C 178.86 283.74 176.43 280.49 174.41 277.00 C 175.28 272.99 176.89 269.15 177.27 265.02 Z" />
</g>
<g id="#919191ff">
<path fill="#919191" opacity="1.00" d=" M 117.72 262.30 C 119.43 262.77 121.98 261.83 122.97 263.74 C 121.20 263.40 118.73 264.27 117.72 262.30 Z" />
</g>
<g id="#e9ebe9ff">
<path fill="#e9ebe9" opacity="1.00" d=" M 149.74 272.71 C 150.12 271.30 151.35 270.45 152.36 269.53 C 154.53 274.06 158.82 276.78 162.48 279.97 C 160.42 287.16 159.57 294.78 160.99 302.19 C 162.26 308.48 165.39 314.19 168.78 319.56 C 166.73 319.36 163.93 320.48 162.49 318.58 C 155.43 310.10 151.24 299.47 149.40 288.67 C 148.84 283.37 148.21 277.90 149.74 272.71 Z" />
</g>
<g id="#535353ff">
<path fill="#535353" opacity="1.00" d=" M 202.56 270.53 L 203.73 269.95 L 204.50 270.34 C 212.27 285.37 218.51 301.28 222.23 317.81 C 225.58 332.60 228.32 347.76 227.11 362.98 C 225.61 364.05 223.70 364.04 221.96 364.26 C 217.72 364.52 213.53 366.17 209.28 365.16 C 206.26 364.53 203.04 364.83 200.23 366.08 C 200.08 366.43 199.77 367.14 199.62 367.49 C 198.07 367.36 196.53 367.12 194.98 367.25 C 179.10 368.21 163.12 368.22 147.29 366.59 C 147.22 366.10 147.06 365.13 146.99 364.65 C 172.96 366.82 199.21 365.90 224.93 361.69 C 226.28 345.82 222.96 330.04 219.39 314.66 C 219.26 312.78 217.64 311.86 216.36 310.78 C 215.38 307.84 214.78 304.78 214.03 301.77 C 213.26 298.94 213.91 295.87 212.79 293.12 C 211.77 290.07 208.60 288.43 207.54 285.41 C 206.38 283.48 207.99 281.16 206.81 279.27 C 205.35 276.37 203.79 273.53 202.56 270.53 Z" />
<path fill="#535353" opacity="1.00" d=" M 126.74 342.00 C 126.99 337.97 126.13 333.73 127.62 329.87 C 127.84 335.72 127.45 341.58 127.84 347.42 L 128.83 347.09 C 129.93 343.49 129.79 339.68 130.24 335.98 C 130.10 334.48 131.71 334.04 132.86 333.88 C 129.34 338.30 131.48 344.80 128.63 349.63 C 128.27 349.67 127.56 349.75 127.20 349.78 C 126.25 347.33 126.89 344.57 126.74 342.00 Z" />
</g>
<g id="#141414ff">
<path fill="#141414" opacity="1.00" d=" M 196.09 293.61 C 196.93 294.78 197.72 295.98 198.44 297.23 C 198.49 297.61 198.59 298.37 198.64 298.76 C 198.33 300.53 198.00 302.30 197.64 304.07 C 196.99 302.62 196.38 301.15 195.82 299.68 C 195.75 299.23 195.61 298.31 195.54 297.86 C 195.70 296.43 195.88 295.02 196.09 293.61 Z" />
</g>
<g id="#bab8b9ff">
<path fill="#bab8b9" opacity="1.00" d=" M 125.79 305.58 C 127.27 309.23 126.45 313.22 126.94 317.03 C 130.94 316.78 135.63 314.97 139.10 317.79 C 134.75 317.38 130.40 317.87 126.05 317.91 C 125.42 313.83 125.60 309.68 125.79 305.58 Z" />
</g>
<g id="#7c7b7aff">
<path fill="#7c7b7a" opacity="1.00" d=" M 143.91 321.14 C 144.65 321.84 145.41 322.53 146.18 323.22 C 147.84 323.55 149.54 323.21 151.20 323.07 C 149.02 323.70 146.85 324.46 144.59 324.75 C 144.35 323.55 144.12 322.34 143.91 321.14 Z" />
</g>
<g id="#888687ff">
<path fill="#888687" opacity="1.00" d=" M 128.09 323.15 C 130.34 321.23 133.96 322.28 136.23 323.75 C 133.52 323.56 130.81 323.32 128.09 323.15 Z" />
</g>
<g id="#9d9d9dff">
<path fill="#9d9d9d" opacity="1.00" d=" M 92.89 336.03 C 95.58 336.24 98.29 336.41 100.99 336.25 C 99.08 339.04 95.39 336.73 92.89 336.03 Z" />
</g>
<g id="#b5b5b5ff">
<path fill="#b5b5b5" opacity="1.00" d=" M 127.73 362.21 C 131.95 362.12 136.13 362.72 140.16 363.97 C 138.26 363.97 136.15 363.46 134.49 364.67 C 131.94 365.80 128.97 364.43 126.27 364.43 L 126.34 363.64 C 128.95 363.70 131.85 364.93 134.29 363.58 C 132.12 363.01 129.93 362.61 127.73 362.21 Z" />
</g>
<g id="#1c1a19ff">
<path fill="#1c1a19" opacity="1.00" d=" M 134.49 364.67 C 136.15 363.46 138.26 363.97 140.16 363.97 C 142.42 364.34 144.70 364.49 146.99 364.65 C 147.06 365.13 147.22 366.10 147.29 366.59 C 147.64 369.66 147.42 372.76 147.56 375.84 C 147.56 378.60 148.32 381.27 148.85 383.96 C 148.58 384.29 148.04 384.96 147.77 385.29 C 145.45 385.14 143.10 384.95 140.89 385.88 C 139.13 380.30 139.08 374.33 137.12 368.80 C 136.53 367.26 135.39 366.01 134.49 364.67 Z" />
</g>
<g id="#1b191aff">
<path fill="#1b191a" opacity="1.00" d=" M 200.23 366.08 C 203.04 364.83 206.26 364.53 209.28 365.16 C 209.08 369.89 210.88 374.32 211.53 378.94 C 211.40 380.31 211.20 381.68 210.94 383.04 C 208.53 383.51 206.07 383.66 203.63 383.97 C 201.89 378.59 200.98 372.98 199.62 367.49 C 199.77 367.14 200.08 366.43 200.23 366.08 Z" />
</g>
<g id="#98999cff">
<path fill="#98999c" opacity="1.00" d=" M 147.56 375.84 C 149.25 377.99 148.81 380.96 149.39 383.50 C 149.66 387.02 150.89 390.65 150.05 394.13 C 147.72 394.59 145.32 394.59 142.98 394.32 C 141.38 393.64 141.25 391.83 141.01 390.35 C 143.80 390.14 147.28 391.07 149.45 388.91 C 149.34 387.24 149.15 385.59 148.85 383.96 C 148.32 381.27 147.56 378.60 147.56 375.84 Z" />
</g>
<g id="#434343ff">
<path fill="#434343" opacity="1.00" d=" M 211.53 378.94 C 211.89 379.88 212.19 380.85 212.45 381.83 C 212.45 383.23 212.38 384.62 212.25 386.01 C 209.75 385.96 207.25 386.21 204.84 386.86 C 204.59 386.63 204.10 386.18 203.86 385.95 L 203.43 385.04 L 203.63 383.97 C 206.07 383.66 208.53 383.51 210.94 383.04 C 211.20 381.68 211.40 380.31 211.53 378.94 Z" />
</g>
<g id="#8a8a8bff">
<path fill="#8a8a8b" opacity="1.00" d=" M 212.45 381.83 C 212.69 382.85 212.93 383.87 213.15 384.90 C 213.11 386.48 213.07 388.06 212.87 389.63 C 210.19 390.01 207.10 391.09 204.65 389.40 C 204.36 388.25 204.09 387.10 203.86 385.95 C 204.10 386.18 204.59 386.63 204.84 386.86 C 206.47 389.05 209.47 387.93 211.73 387.64 C 211.86 387.23 212.12 386.42 212.25 386.01 C 212.38 384.62 212.45 383.23 212.45 381.83 Z" />
</g>
<g id="#aeaeb0ff">
<path fill="#aeaeb0" opacity="1.00" d=" M 213.15 384.90 C 214.21 387.29 213.63 390.04 213.60 392.58 C 211.18 392.72 208.74 392.78 206.33 392.51 C 205.16 392.00 205.21 390.39 204.65 389.40 C 207.10 391.09 210.19 390.01 212.87 389.63 C 213.07 388.06 213.11 386.48 213.15 384.90 Z" />
</g>
<g id="#656565ff">
<path fill="#656565" opacity="1.00" d=" M 204.84 386.86 C 207.25 386.21 209.75 385.96 212.25 386.01 C 212.12 386.42 211.86 387.23 211.73 387.64 C 209.47 387.93 206.47 389.05 204.84 386.86 Z" />
</g>
</svg>
