<?xml version="1.0" encoding="UTF-8" ?>
<!DOCTYPE svg PUBLIC "-//W3C//DTD SVG 1.1//EN" "http://www.w3.org/Graphics/SVG/1.1/DTD/svg11.dtd">
<svg width="204pt" height="219pt" viewBox="0 0 204 219" version="1.1" xmlns="http://www.w3.org/2000/svg">
<g id="#ffffffff">
<path fill="#ffffff" opacity="1.00" d=" M 0.00 0.00 L 105.53 0.00 C 93.71 0.98 82.32 4.54 71.16 8.33 C 65.67 10.26 59.49 10.24 54.53 13.54 C 47.85 17.76 43.24 24.37 38.77 30.73 C 34.28 37.15 27.84 41.79 22.69 47.61 C 19.02 51.58 17.90 57.45 13.36 60.68 C 13.18 58.01 13.88 55.15 12.47 52.70 C 11.71 58.05 10.83 63.42 8.64 68.40 C 7.28 72.49 4.58 76.50 5.17 80.97 C 6.17 80.77 8.17 80.38 9.17 80.18 C 6.78 86.21 4.73 92.46 4.04 98.94 C 3.50 103.45 3.88 107.99 3.71 112.51 C 2.90 110.80 1.96 109.05 2.01 107.10 C 1.99 98.44 2.88 89.78 2.38 81.12 C 2.40 79.02 1.08 77.35 0.00 75.68 L 0.00 0.00 Z" />
<path fill="#ffffff" opacity="1.00" d=" M 115.42 0.00 L 204.00 0.00 L 204.00 219.00 L 0.00 219.00 L 0.00 138.28 C 3.87 146.47 1.20 156.18 5.57 164.18 C 8.03 168.99 10.59 173.77 13.75 178.15 C 15.88 180.65 15.06 184.17 15.59 187.18 C 16.35 195.15 18.26 204.16 25.36 208.94 C 23.87 200.25 18.06 192.73 18.19 183.68 C 22.51 185.69 22.32 191.35 25.92 194.10 C 30.47 197.90 36.62 199.03 41.20 202.80 C 43.88 205.06 47.00 206.83 50.59 206.97 C 48.01 198.85 38.80 197.33 32.12 194.05 C 29.12 193.03 28.11 189.89 26.64 187.42 C 24.44 183.39 21.62 179.72 18.39 176.47 C 18.87 164.81 10.24 155.37 9.72 143.90 C 9.41 139.55 9.84 134.62 6.42 131.30 C 7.44 119.80 5.61 108.23 7.28 96.78 C 8.00 91.43 11.57 87.08 13.00 81.96 C 14.46 76.88 11.77 71.48 13.67 66.48 C 17.66 57.29 29.94 54.16 31.57 43.57 C 41.31 38.35 45.15 27.19 53.22 20.19 C 59.79 14.74 68.80 13.86 77.01 13.72 C 86.40 13.47 95.53 15.78 104.65 17.61 C 104.34 15.89 103.96 14.19 103.57 12.48 C 106.10 12.34 108.71 12.02 111.16 12.86 C 116.59 14.57 120.53 18.98 125.58 21.44 C 131.85 24.86 138.99 26.78 144.63 31.28 C 153.42 39.02 152.87 52.62 161.53 60.44 C 163.20 62.17 166.04 63.01 166.61 65.58 C 171.90 82.44 179.76 98.52 183.02 115.99 C 185.55 127.20 183.40 138.70 184.13 150.03 C 184.55 156.28 186.29 162.68 184.47 168.86 C 182.57 175.09 179.07 180.66 176.89 186.78 C 174.28 194.07 170.94 201.20 169.98 208.96 C 173.42 207.67 175.98 204.91 177.30 201.53 C 180.23 194.08 182.97 186.55 185.95 179.12 C 186.79 176.78 188.48 174.62 188.27 172.01 C 188.21 162.59 188.34 153.17 188.17 143.76 C 186.58 141.71 186.53 139.27 188.18 137.24 C 188.21 131.50 188.63 125.72 187.65 120.03 C 186.27 110.71 188.90 100.74 185.09 91.83 C 184.27 90.89 183.32 87.93 181.76 89.86 C 181.53 92.97 183.62 95.96 183.65 99.19 C 180.85 94.19 178.33 88.98 177.00 83.38 C 178.03 84.71 179.07 86.02 180.16 87.30 C 181.52 80.40 178.85 72.83 172.52 69.34 C 171.87 63.39 167.28 58.98 165.99 53.25 C 164.74 48.48 164.75 43.25 162.04 38.96 C 154.85 27.49 145.01 17.92 134.48 9.52 C 131.72 7.32 129.43 4.57 126.53 2.56 C 123.16 0.66 119.19 0.42 115.42 0.00 M 50.53 48.68 C 39.22 51.57 29.47 60.73 26.48 72.09 C 24.87 78.97 25.62 87.07 30.58 92.46 C 39.21 101.81 53.38 107.66 65.79 102.77 C 72.96 100.14 80.49 95.07 82.02 87.06 C 83.75 78.61 83.48 69.31 79.40 61.55 C 78.08 58.83 75.07 57.83 72.67 56.34 C 69.13 54.36 67.72 49.79 63.70 48.51 C 59.45 47.04 54.83 47.85 50.53 48.68 M 151.10 49.08 C 151.08 51.70 149.89 57.59 154.33 56.60 C 154.96 53.63 154.07 50.33 151.10 49.08 M 125.49 51.76 C 121.78 52.24 118.90 54.87 116.12 57.14 C 109.74 62.93 103.95 69.65 100.51 77.62 C 98.63 81.86 98.23 87.10 100.96 91.07 C 105.23 97.35 112.70 100.55 119.88 102.13 C 127.78 103.71 136.80 103.56 143.60 98.73 C 149.94 93.40 153.90 85.29 154.50 77.05 C 154.69 71.84 150.62 67.98 148.44 63.61 C 146.33 59.99 145.94 55.24 142.52 52.50 C 137.22 50.00 131.09 51.17 125.49 51.76 M 113.10 146.36 C 105.34 149.06 97.03 148.83 88.94 148.73 C 73.81 148.13 58.77 145.40 43.59 146.28 C 43.90 147.53 43.85 149.17 45.41 149.55 C 47.89 150.08 50.48 149.24 52.96 149.87 C 64.48 152.12 76.20 153.12 87.91 153.49 C 100.61 153.69 113.78 153.00 125.42 147.42 C 129.59 145.34 134.27 142.91 136.00 138.26 C 127.87 139.42 120.85 143.99 113.10 146.36 Z" />
<path fill="#ffffff" opacity="1.00" d=" M 85.72 7.67 C 95.96 5.00 106.52 2.55 117.17 3.37 C 122.34 3.86 127.86 5.58 131.08 9.93 C 134.29 14.18 136.43 19.22 140.40 22.89 C 130.30 20.17 121.95 13.49 112.11 10.13 C 103.70 7.06 94.56 6.45 85.72 7.67 Z" />
<path fill="#ffffff" opacity="1.00" d=" M 157.86 43.08 C 160.71 45.60 164.06 48.54 163.26 52.83 C 160.05 50.56 158.98 46.63 157.86 43.08 Z" />
<path fill="#ffffff" opacity="1.00" d=" M 46.41 53.42 C 51.44 50.77 57.47 50.05 62.99 51.38 C 65.35 53.83 66.61 57.80 70.26 58.77 C 71.59 59.35 73.64 58.98 74.21 60.66 C 75.95 63.85 76.63 67.48 78.36 70.68 C 62.58 72.81 46.64 71.43 30.82 70.67 C 34.74 63.96 39.35 57.15 46.41 53.42 Z" />
<path fill="#ffffff" opacity="1.00" d=" M 122.99 56.92 C 128.37 53.93 134.93 53.87 140.74 55.52 C 138.40 57.56 135.00 57.77 132.88 60.13 C 135.39 63.05 138.97 59.91 142.10 60.09 C 143.71 64.17 146.89 67.36 148.50 71.45 C 135.29 71.07 122.14 72.69 108.95 72.48 C 112.52 66.47 116.75 60.42 122.99 56.92 Z" />
<path fill="#ffffff" opacity="1.00" d=" M 50.28 75.47 C 59.96 75.53 69.65 75.48 79.33 75.50 C 80.20 83.37 77.32 92.10 70.36 96.43 C 59.88 102.91 45.12 101.01 36.27 92.57 C 32.60 89.07 30.55 84.21 29.87 79.24 C 35.45 85.43 47.99 84.17 50.28 75.47 Z" />
<path fill="#ffffff" opacity="1.00" d=" M 124.58 76.35 C 133.35 74.11 142.53 75.10 151.38 76.36 C 148.93 83.32 146.58 90.85 140.93 95.93 C 137.77 99.03 133.03 98.98 128.92 98.98 C 121.41 98.61 113.52 97.13 107.43 92.45 C 104.12 89.94 102.12 85.46 103.49 81.38 C 104.31 79.26 105.05 76.14 107.83 75.99 C 107.59 77.43 107.59 78.86 107.86 80.26 C 111.13 80.76 114.47 80.43 117.78 80.47 C 119.66 78.54 121.91 76.95 124.58 76.35 Z" />
<path fill="#ffffff" opacity="1.00" d=" M 3.05 134.89 C 8.12 145.23 9.93 156.76 12.24 167.94 C 6.78 162.90 6.24 155.04 5.31 148.14 C 4.88 143.67 3.97 139.28 3.05 134.89 Z" />
</g>
<g id="#000000ff">
<path fill="#000000" opacity="1.00" d=" M 105.53 0.00 L 115.42 0.00 C 119.19 0.42 123.16 0.66 126.53 2.56 C 129.43 4.57 131.72 7.32 134.48 9.52 C 145.01 17.92 154.85 27.49 162.04 38.96 C 164.75 43.25 164.74 48.48 165.99 53.25 C 167.28 58.98 171.87 63.39 172.52 69.34 C 178.85 72.83 181.52 80.40 180.16 87.30 C 179.07 86.02 178.03 84.71 177.00 83.38 C 178.33 88.98 180.85 94.19 183.65 99.19 C 183.62 95.96 181.53 92.97 181.76 89.86 C 183.32 87.93 184.27 90.89 185.09 91.83 C 188.90 100.74 186.27 110.71 187.65 120.03 C 188.63 125.72 188.21 131.50 188.18 137.24 C 186.53 139.27 186.58 141.71 188.17 143.76 C 188.34 153.17 188.21 162.59 188.27 172.01 C 188.48 174.62 186.79 176.78 185.95 179.12 C 182.97 186.55 180.23 194.08 177.30 201.53 C 175.98 204.91 173.42 207.67 169.98 208.96 C 170.94 201.20 174.28 194.07 176.89 186.78 C 179.07 180.66 182.57 175.09 184.47 168.86 C 186.29 162.68 184.55 156.28 184.13 150.03 C 183.40 138.70 185.55 127.20 183.02 115.99 C 179.76 98.52 171.90 82.44 166.61 65.58 C 166.04 63.01 163.20 62.17 161.53 60.44 C 152.87 52.62 153.42 39.02 144.63 31.28 C 138.99 26.78 131.85 24.86 125.58 21.44 C 120.53 18.98 116.59 14.57 111.16 12.86 C 108.71 12.02 106.10 12.34 103.57 12.48 C 103.96 14.19 104.34 15.89 104.65 17.61 C 95.53 15.78 86.40 13.47 77.01 13.72 C 68.80 13.86 59.79 14.74 53.22 20.19 C 45.15 27.19 41.31 38.35 31.57 43.57 C 29.94 54.16 17.66 57.29 13.67 66.48 C 11.77 71.48 14.46 76.88 13.00 81.96 C 11.57 87.08 8.00 91.43 7.28 96.78 C 5.61 108.23 7.44 119.80 6.42 131.30 C 9.84 134.62 9.41 139.55 9.72 143.90 C 10.24 155.37 18.87 164.81 18.39 176.47 C 21.62 179.72 24.44 183.39 26.64 187.42 C 28.11 189.89 29.12 193.03 32.12 194.05 C 38.80 197.33 48.01 198.85 50.59 206.97 C 47.00 206.83 43.88 205.06 41.20 202.80 C 36.62 199.03 30.47 197.90 25.92 194.10 C 22.32 191.35 22.51 185.69 18.19 183.68 C 18.06 192.73 23.87 200.25 25.36 208.94 C 18.26 204.16 16.35 195.15 15.59 187.18 C 15.06 184.17 15.88 180.65 13.75 178.15 C 10.59 173.77 8.03 168.99 5.57 164.18 C 1.20 156.18 3.87 146.47 0.00 138.28 L 0.00 75.68 C 1.08 77.35 2.40 79.02 2.38 81.12 C 2.88 89.78 1.99 98.44 2.01 107.10 C 1.96 109.05 2.90 110.80 3.71 112.51 C 3.88 107.99 3.50 103.45 4.04 98.94 C 4.73 92.46 6.78 86.21 9.17 80.18 C 8.17 80.38 6.17 80.77 5.17 80.97 C 4.58 76.50 7.28 72.49 8.64 68.40 C 10.83 63.42 11.71 58.05 12.47 52.70 C 13.88 55.15 13.18 58.01 13.36 60.68 C 17.90 57.45 19.02 51.58 22.69 47.61 C 27.84 41.79 34.28 37.15 38.77 30.73 C 43.24 24.37 47.85 17.76 54.53 13.54 C 59.49 10.24 65.67 10.26 71.16 8.33 C 82.32 4.54 93.71 0.98 105.53 0.00 M 85.72 7.67 C 94.56 6.45 103.70 7.06 112.11 10.13 C 121.95 13.49 130.30 20.17 140.40 22.89 C 136.43 19.22 134.29 14.18 131.08 9.93 C 127.86 5.58 122.34 3.86 117.17 3.37 C 106.52 2.55 95.96 5.00 85.72 7.67 M 157.86 43.08 C 158.98 46.63 160.05 50.56 163.26 52.83 C 164.06 48.54 160.71 45.60 157.86 43.08 M 3.05 134.89 C 3.97 139.28 4.88 143.67 5.31 148.14 C 6.24 155.04 6.78 162.90 12.24 167.94 C 9.93 156.76 8.12 145.23 3.05 134.89 Z" />
<path fill="#000000" opacity="1.00" d=" M 50.53 48.68 C 54.83 47.85 59.45 47.04 63.70 48.51 C 67.72 49.79 69.13 54.36 72.67 56.34 C 75.07 57.83 78.08 58.83 79.40 61.55 C 83.48 69.31 83.75 78.61 82.02 87.06 C 80.49 95.07 72.96 100.14 65.79 102.77 C 53.38 107.66 39.21 101.81 30.58 92.46 C 25.62 87.07 24.87 78.97 26.48 72.09 C 29.47 60.73 39.22 51.57 50.53 48.68 M 46.41 53.42 C 39.35 57.15 34.74 63.96 30.82 70.67 C 46.64 71.43 62.58 72.81 78.36 70.68 C 76.63 67.48 75.95 63.85 74.21 60.66 C 73.64 58.98 71.59 59.35 70.26 58.77 C 66.61 57.80 65.35 53.83 62.99 51.38 C 57.47 50.05 51.44 50.77 46.41 53.42 M 50.28 75.47 C 47.99 84.17 35.45 85.43 29.87 79.24 C 30.55 84.21 32.60 89.07 36.27 92.57 C 45.12 101.01 59.88 102.91 70.36 96.43 C 77.32 92.10 80.20 83.37 79.33 75.50 C 69.65 75.48 59.96 75.53 50.28 75.47 Z" />
<path fill="#000000" opacity="1.00" d=" M 151.10 49.08 C 154.07 50.33 154.96 53.63 154.33 56.60 C 149.89 57.59 151.08 51.70 151.10 49.08 Z" />
<path fill="#000000" opacity="1.00" d=" M 125.49 51.76 C 131.09 51.17 137.22 50.00 142.52 52.50 C 145.94 55.24 146.33 59.99 148.44 63.61 C 150.62 67.98 154.69 71.84 154.50 77.05 C 153.90 85.29 149.94 93.40 143.60 98.73 C 136.80 103.56 127.78 103.71 119.88 102.13 C 112.70 100.55 105.23 97.35 100.96 91.07 C 98.23 87.10 98.63 81.86 100.51 77.62 C 103.95 69.65 109.74 62.93 116.12 57.14 C 118.90 54.87 121.78 52.24 125.49 51.76 M 122.99 56.92 C 116.75 60.42 112.52 66.47 108.95 72.48 C 122.14 72.69 135.29 71.07 148.50 71.45 C 146.89 67.36 143.71 64.17 142.10 60.09 C 138.97 59.91 135.39 63.05 132.88 60.13 C 135.00 57.77 138.40 57.56 140.74 55.52 C 134.93 53.87 128.37 53.93 122.99 56.92 M 124.58 76.35 C 121.91 76.95 119.66 78.54 117.78 80.47 C 114.47 80.43 111.13 80.76 107.86 80.26 C 107.59 78.86 107.59 77.43 107.83 75.99 C 105.05 76.14 104.31 79.26 103.49 81.38 C 102.12 85.46 104.12 89.94 107.43 92.45 C 113.52 97.13 121.41 98.61 128.92 98.98 C 133.03 98.98 137.77 99.03 140.93 95.93 C 146.58 90.85 148.93 83.32 151.38 76.36 C 142.53 75.10 133.35 74.11 124.58 76.35 Z" />
<path fill="#000000" opacity="1.00" d=" M 113.10 146.36 C 120.85 143.99 127.87 139.42 136.00 138.26 C 134.27 142.91 129.59 145.34 125.42 147.42 C 113.78 153.00 100.61 153.69 87.91 153.49 C 76.20 153.12 64.48 152.12 52.96 149.87 C 50.48 149.24 47.89 150.08 45.41 149.55 C 43.85 149.17 43.90 147.53 43.59 146.28 C 58.77 145.40 73.81 148.13 88.94 148.73 C 97.03 148.83 105.34 149.06 113.10 146.36 Z" />
</g>
</svg>
