<?xml version="1.0" encoding="UTF-8" ?>
<!DOCTYPE svg PUBLIC "-//W3C//DTD SVG 1.1//EN" "http://www.w3.org/Graphics/SVG/1.1/DTD/svg11.dtd">
<svg width="815pt" height="381pt" viewBox="0 0 815 381" version="1.1" xmlns="http://www.w3.org/2000/svg">
<g id="#ffffffff">
<path fill="#ffffff" opacity="1.00" d=" M 0.00 0.00 L 815.00 0.00 L 815.00 381.00 L 0.00 381.00 L 0.00 0.00 M 655.22 8.30 C 649.68 9.81 644.10 11.17 638.54 12.57 C 633.49 15.32 628.37 17.96 622.95 19.89 C 621.43 22.35 619.90 24.81 618.03 27.02 C 613.89 31.89 610.37 37.33 605.47 41.50 C 603.15 51.51 600.45 61.46 597.28 71.24 C 596.26 80.82 597.98 90.58 596.21 100.12 C 595.57 109.07 596.68 118.10 595.05 126.98 C 594.94 167.00 595.01 207.03 595.02 247.05 C 595.13 249.84 593.66 252.29 593.05 254.94 C 593.12 256.43 594.82 257.55 596.20 257.79 C 603.88 258.96 611.51 260.49 619.15 261.90 C 621.05 261.94 623.69 262.76 624.83 260.69 C 625.33 256.95 624.59 253.14 625.29 249.42 C 628.80 245.24 633.04 241.74 636.71 237.71 C 638.32 236.29 639.69 234.08 642.07 234.08 C 652.06 232.86 662.06 231.65 672.04 230.35 C 671.97 257.60 672.00 284.85 672.01 312.09 C 667.03 311.89 662.05 312.00 657.07 312.08 C 657.00 330.69 657.00 349.31 657.07 367.92 C 661.02 368.04 664.97 368.04 668.93 367.92 C 669.10 358.90 668.80 349.88 669.04 340.87 C 670.56 341.00 672.09 341.13 673.62 341.33 C 673.66 341.79 673.74 342.71 673.79 343.17 C 673.53 342.79 673.03 342.03 672.77 341.65 C 671.71 344.91 670.69 349.96 673.99 352.24 C 673.89 357.41 674.59 362.55 675.50 367.64 C 679.30 368.11 683.14 368.09 686.97 367.91 C 685.49 360.39 686.34 352.72 685.73 345.15 C 685.58 341.22 682.09 339.01 679.13 337.15 C 681.68 335.45 684.85 333.81 685.52 330.51 C 686.30 326.44 686.50 321.99 684.99 318.06 C 683.34 314.00 678.56 313.04 674.74 312.23 C 675.27 312.25 676.32 312.29 676.85 312.31 C 677.23 284.90 676.85 257.49 677.03 230.09 C 681.25 228.51 685.91 228.61 690.23 229.76 C 705.66 233.74 721.15 237.46 736.59 241.43 C 746.92 244.66 757.11 248.32 767.42 251.63 C 769.79 252.54 772.58 252.11 773.78 249.64 C 774.64 241.04 773.12 232.30 774.68 223.74 C 775.72 215.11 774.10 206.34 775.68 197.75 C 776.70 189.44 775.12 181.00 776.68 172.74 C 777.71 163.82 776.07 154.75 777.79 145.88 C 778.23 136.94 778.00 127.97 777.92 119.03 C 775.86 104.43 772.78 89.99 770.61 75.41 C 769.93 68.54 765.36 63.04 763.35 56.59 C 759.88 51.20 757.16 45.39 754.37 39.64 C 751.90 34.11 746.72 30.61 742.75 26.25 C 737.08 20.25 730.61 14.95 725.68 8.29 C 720.38 7.97 715.37 5.75 710.03 5.96 C 699.01 6.09 687.99 5.88 676.98 6.05 C 669.72 6.81 662.49 7.79 655.22 8.30 M 199.37 311.22 C 195.78 311.63 191.72 312.33 189.38 315.39 C 186.95 318.34 186.98 322.36 186.98 325.97 C 187.11 336.34 186.97 346.70 187.03 357.07 C 187.00 360.88 188.15 365.37 192.02 366.99 C 198.33 369.67 206.09 369.68 212.02 366.00 C 215.32 363.88 216.09 359.71 216.00 356.07 C 215.96 345.36 215.96 334.65 216.00 323.95 C 216.13 319.84 214.85 315.16 210.98 313.10 C 207.40 311.39 203.30 310.89 199.37 311.22 M 373.87 312.81 C 369.76 314.40 368.06 318.91 368.08 323.03 C 367.93 334.04 368.09 345.05 368.00 356.06 C 367.99 359.90 368.55 364.65 372.38 366.61 C 377.40 369.07 383.46 369.65 388.79 367.82 C 391.74 366.85 394.98 364.96 395.58 361.64 C 396.41 356.50 395.89 351.25 395.92 346.07 C 392.30 345.96 388.68 345.96 385.06 346.08 C 385.00 351.04 385.11 356.00 384.90 360.96 C 383.30 360.96 381.70 360.96 380.12 360.97 C 379.86 346.99 379.87 333.01 380.11 319.04 C 381.70 319.03 383.29 319.03 384.89 319.03 C 385.03 323.00 385.05 326.96 385.07 330.93 C 388.69 331.03 392.30 331.03 395.92 330.92 C 395.69 325.32 397.45 318.39 392.99 313.99 C 387.47 310.25 379.91 310.41 373.87 312.81 M 580.37 311.22 C 576.78 311.64 572.71 312.32 570.38 315.39 C 567.95 318.34 567.98 322.36 567.98 325.97 C 568.08 336.00 568.01 346.03 568.00 356.06 C 567.98 359.91 568.58 364.63 572.37 366.64 C 578.57 369.66 586.31 369.72 592.41 366.40 C 595.74 364.58 597.05 360.67 596.97 357.07 C 597.00 346.03 596.94 334.99 597.00 323.95 C 597.13 319.85 595.85 315.17 591.98 313.11 C 588.41 311.39 584.30 310.89 580.37 311.22 M 754.87 312.81 C 750.76 314.40 749.06 318.91 749.08 323.03 C 748.93 334.03 749.10 345.04 749.00 356.05 C 748.99 359.89 749.55 364.64 753.38 366.61 C 758.40 369.07 764.46 369.65 769.79 367.82 C 772.74 366.85 775.98 364.97 776.58 361.64 C 777.41 356.50 776.89 351.25 776.92 346.07 C 773.29 345.96 769.67 345.96 766.06 346.08 C 766.00 351.04 766.10 356.00 765.90 360.97 C 764.29 360.96 762.70 360.96 761.12 360.96 C 760.86 346.99 760.86 333.01 761.11 319.04 C 762.70 319.03 764.29 319.03 765.89 319.03 C 766.02 322.99 766.05 326.96 766.07 330.93 C 769.68 331.03 773.30 331.03 776.92 330.93 C 776.70 325.32 778.45 318.39 773.99 313.99 C 768.47 310.26 760.91 310.41 754.87 312.81 M 13.07 312.08 C 13.00 330.69 13.00 349.31 13.07 367.92 C 17.02 368.04 20.98 368.04 24.93 367.92 C 25.10 360.99 24.80 354.07 25.05 347.15 C 29.64 346.38 35.23 347.23 38.85 343.79 C 42.27 338.55 40.58 331.87 41.01 325.98 C 40.95 321.70 41.28 315.46 36.31 313.73 C 28.82 311.32 20.81 312.10 13.07 312.08 M 61.07 312.08 C 61.00 330.69 61.00 349.31 61.07 367.92 C 65.02 368.04 68.98 368.04 72.93 367.92 C 73.10 361.00 72.80 354.07 73.05 347.15 C 77.63 346.38 83.22 347.22 86.84 343.79 C 90.29 338.56 88.58 331.87 89.01 325.99 C 88.95 321.70 89.29 315.47 84.32 313.73 C 76.83 311.31 68.82 312.10 61.07 312.08 M 109.07 312.08 C 109.00 330.69 109.01 349.31 109.07 367.92 C 113.02 368.04 116.97 368.04 120.93 367.92 C 121.10 361.00 120.80 354.07 121.05 347.15 C 125.64 346.38 131.22 347.22 134.85 343.79 C 138.28 338.56 136.58 331.87 137.02 325.98 C 136.95 321.70 137.28 315.46 132.31 313.73 C 124.82 311.32 116.81 312.10 109.07 312.08 M 157.07 312.08 C 157.00 330.69 157.00 349.31 157.07 367.92 C 161.02 368.04 164.98 368.04 168.93 367.92 C 169.10 360.99 168.81 354.07 169.05 347.15 C 173.63 346.38 179.22 347.22 182.85 343.79 C 186.28 338.56 184.58 331.87 185.01 325.99 C 184.94 321.70 185.28 315.47 180.32 313.73 C 172.83 311.32 164.81 312.10 157.07 312.08 M 218.07 312.08 C 218.01 330.69 218.00 349.31 218.07 367.92 C 222.02 368.04 225.98 368.04 229.93 367.92 C 230.16 360.22 229.65 352.51 230.24 344.82 C 232.48 352.45 233.50 360.40 235.97 367.97 C 239.89 368.02 243.81 368.04 247.73 367.91 C 245.15 358.97 242.54 350.05 239.86 341.14 C 239.03 338.77 239.12 336.22 239.95 333.86 C 242.19 326.60 244.53 319.36 246.75 312.09 C 243.16 311.97 239.57 311.97 235.98 312.04 C 233.51 317.63 232.70 323.77 230.21 329.34 C 229.75 323.59 230.08 317.83 229.93 312.08 C 225.98 311.96 222.02 311.96 218.07 312.08 M 250.07 312.07 C 250.00 330.69 250.00 349.31 250.07 367.93 C 258.04 368.01 266.00 368.01 273.97 367.93 C 273.98 365.64 273.98 363.35 273.98 361.07 C 269.99 361.04 266.01 361.02 262.03 360.98 C 261.90 354.33 261.91 347.68 262.02 341.03 C 265.45 340.99 268.88 340.95 272.31 340.91 C 272.36 338.63 272.36 336.36 272.32 334.09 C 268.89 334.04 265.46 334.01 262.04 333.97 C 261.89 328.99 261.89 324.00 262.03 319.03 C 265.79 318.98 269.55 318.95 273.32 318.91 C 273.36 316.63 273.36 314.36 273.32 312.08 C 265.57 311.98 257.82 311.99 250.07 312.07 M 276.07 312.08 C 276.00 330.69 276.00 349.31 276.07 367.92 C 280.02 368.04 283.98 368.04 287.93 367.92 C 288.13 358.90 287.76 349.88 288.08 340.86 C 289.58 341.07 291.09 341.29 292.60 341.52 C 293.55 350.20 292.41 359.05 294.50 367.64 C 298.30 368.13 302.14 368.09 305.96 367.90 C 304.48 360.39 305.34 352.72 304.73 345.15 C 304.59 341.23 301.10 339.03 298.14 337.16 C 300.26 335.66 302.87 334.43 304.00 331.95 C 305.33 328.83 305.12 325.32 304.95 322.01 C 304.82 318.45 302.79 314.90 299.29 313.72 C 291.90 310.89 283.79 312.32 276.07 312.08 M 308.07 312.07 C 308.00 330.68 308.00 349.30 308.07 367.92 C 312.02 368.04 315.98 368.04 319.93 367.92 C 320.10 358.96 319.82 350.00 320.02 341.04 C 323.34 340.99 326.66 340.95 329.98 340.91 C 329.98 338.63 329.98 336.36 329.98 334.09 C 326.66 334.04 323.35 334.01 320.03 333.97 C 319.89 328.99 319.89 324.00 320.03 319.02 C 323.68 318.98 327.33 318.95 330.98 318.92 C 330.98 316.63 330.98 314.35 330.97 312.07 C 323.34 311.98 315.70 311.99 308.07 312.07 M 341.95 312.10 C 339.96 322.38 338.76 332.80 337.01 343.13 C 335.92 351.41 334.10 359.60 333.58 367.95 C 337.36 368.04 341.14 368.04 344.92 367.87 C 345.68 362.59 346.11 357.25 347.08 352.00 C 348.69 351.99 350.31 351.99 351.93 351.99 C 352.90 357.25 353.31 362.58 354.07 367.87 C 357.85 368.04 361.64 368.05 365.42 367.95 C 364.89 359.60 363.08 351.41 361.99 343.13 C 360.23 332.80 359.05 322.38 357.04 312.09 C 352.01 311.95 346.98 311.95 341.95 312.10 M 398.07 312.07 C 398.00 330.69 398.00 349.31 398.07 367.93 C 406.04 368.00 414.01 368.02 421.98 367.93 C 421.98 365.64 421.98 363.35 421.98 361.07 C 417.99 361.04 414.01 361.02 410.03 360.98 C 409.90 354.33 409.90 347.68 410.02 341.03 C 413.45 340.99 416.89 340.95 420.32 340.90 C 420.36 338.63 420.36 336.36 420.32 334.09 C 416.89 334.04 413.46 334.01 410.04 333.97 C 409.89 328.99 409.89 324.00 410.04 319.02 C 413.79 318.98 417.55 318.95 421.32 318.91 C 421.36 316.63 421.36 314.36 421.32 312.08 C 413.57 311.98 405.82 311.99 398.07 312.07 M 442.07 312.08 C 442.00 330.69 442.01 349.31 442.07 367.92 C 446.02 368.04 449.97 368.04 453.93 367.92 C 454.10 361.00 453.80 354.07 454.05 347.15 C 458.08 346.68 462.30 346.74 466.11 345.18 C 469.36 343.46 469.83 339.35 469.96 336.07 C 470.00 331.06 470.15 326.03 469.83 321.03 C 469.61 318.08 468.46 314.64 465.32 313.73 C 457.83 311.31 449.82 312.10 442.07 312.08 M 490.07 312.08 C 490.00 330.69 490.00 349.31 490.07 367.92 C 494.02 368.04 497.97 368.04 501.93 367.92 C 502.10 361.00 501.80 354.07 502.05 347.15 C 506.08 346.68 510.30 346.74 514.11 345.18 C 517.35 343.46 517.83 339.35 517.96 336.07 C 518.00 331.06 518.15 326.03 517.84 321.03 C 517.61 318.09 516.47 314.64 513.32 313.73 C 505.83 311.32 497.82 312.10 490.07 312.08 M 538.07 312.08 C 538.00 330.69 538.00 349.31 538.07 367.92 C 542.02 368.04 545.97 368.04 549.93 367.92 C 550.10 361.00 549.80 354.07 550.05 347.15 C 554.08 346.68 558.31 346.74 562.11 345.18 C 565.36 343.46 565.82 339.35 565.96 336.06 C 566.00 331.05 566.15 326.03 565.84 321.03 C 565.62 318.08 564.46 314.65 561.31 313.73 C 553.82 311.31 545.81 312.10 538.07 312.08 M 599.07 312.08 C 599.00 330.69 599.00 349.31 599.07 367.92 C 603.02 368.04 606.97 368.04 610.93 367.92 C 611.15 360.22 610.66 352.51 611.24 344.83 C 613.47 352.46 614.51 360.39 616.97 367.97 C 620.88 368.02 624.81 368.04 628.73 367.91 C 626.15 358.97 623.54 350.05 620.86 341.15 C 620.03 338.77 620.11 336.22 620.95 333.86 C 623.19 326.60 625.53 319.36 627.75 312.09 C 624.15 311.97 620.56 311.97 616.98 312.04 C 614.52 317.63 613.69 323.77 611.21 329.34 C 610.75 323.60 611.08 317.83 610.93 312.08 C 606.98 311.96 603.02 311.96 599.07 312.08 M 631.07 312.07 C 631.01 330.69 631.00 349.31 631.07 367.93 C 639.04 368.00 647.00 368.02 654.97 367.92 C 654.98 365.64 654.98 363.35 654.97 361.07 C 650.99 361.04 647.01 361.02 643.03 360.98 C 642.90 354.33 642.90 347.68 643.02 341.03 C 646.45 340.99 649.88 340.95 653.32 340.90 C 653.35 338.63 653.35 336.36 653.32 334.10 C 649.89 334.05 646.46 334.01 643.03 333.97 C 642.89 328.98 642.89 324.00 643.04 319.02 C 646.79 318.98 650.55 318.95 654.32 318.92 C 654.35 316.63 654.36 314.35 654.32 312.08 C 646.57 311.98 638.82 311.99 631.07 312.07 M 689.07 312.07 C 689.00 330.69 689.01 349.30 689.07 367.92 C 693.02 368.04 696.97 368.04 700.93 367.92 C 701.10 358.96 700.82 349.99 701.03 341.03 C 704.34 340.99 707.65 340.95 710.97 340.91 C 710.98 338.63 710.98 336.36 710.98 334.09 C 707.66 334.04 704.34 334.01 701.03 333.97 C 700.89 328.99 700.89 324.00 701.03 319.03 C 704.68 318.98 708.32 318.95 711.97 318.92 C 711.98 316.64 711.98 314.35 711.97 312.08 C 704.34 311.98 696.70 311.99 689.07 312.07 M 722.95 312.10 C 720.96 322.38 719.76 332.80 718.01 343.13 C 716.91 351.41 715.10 359.60 714.58 367.95 C 718.36 368.05 722.14 368.04 725.93 367.87 C 726.68 362.58 727.11 357.26 728.08 352.01 C 729.69 352.00 731.30 351.99 732.92 351.99 C 733.91 357.25 734.31 362.58 735.07 367.87 C 738.85 368.04 742.63 368.05 746.42 367.95 C 745.90 359.60 744.08 351.40 742.99 343.12 C 741.23 332.80 740.04 322.38 738.05 312.09 C 733.01 311.95 727.98 311.95 722.95 312.10 M 779.07 312.07 C 779.01 330.69 779.00 349.31 779.07 367.93 C 787.04 368.01 795.01 368.02 802.97 367.92 C 802.98 365.64 802.98 363.35 802.98 361.07 C 798.99 361.04 795.00 361.02 791.02 360.98 C 790.90 354.33 790.91 347.68 791.02 341.03 C 794.45 340.99 797.88 340.95 801.32 340.91 C 801.35 338.63 801.35 336.36 801.32 334.09 C 797.88 334.04 794.46 334.01 791.04 333.97 C 790.89 328.99 790.89 324.00 791.04 319.02 C 794.79 318.98 798.55 318.95 802.32 318.91 C 802.35 316.63 802.35 314.36 802.32 312.08 C 794.57 311.98 786.82 311.99 779.07 312.07 M 43.02 342.09 C 43.02 344.02 43.02 345.97 43.02 347.91 C 48.34 348.04 53.66 348.04 58.98 347.91 C 58.98 345.97 58.98 344.02 58.98 342.09 C 53.66 341.96 48.34 341.96 43.02 342.09 M 91.02 342.09 C 91.02 344.03 91.02 345.97 91.02 347.91 C 96.34 348.04 101.66 348.04 106.98 347.91 C 106.98 345.97 106.98 344.03 106.98 342.09 C 101.66 341.96 96.34 341.96 91.02 342.09 M 139.02 342.09 C 139.02 344.03 139.02 345.97 139.02 347.91 C 144.34 348.04 149.66 348.04 154.98 347.91 C 154.98 345.97 154.98 344.02 154.98 342.09 C 149.66 341.96 144.34 341.96 139.02 342.09 M 424.02 342.09 C 424.02 344.02 424.01 345.97 424.02 347.91 C 429.34 348.04 434.66 348.04 439.98 347.91 C 439.98 345.97 439.98 344.02 439.98 342.09 C 434.66 341.96 429.34 341.96 424.02 342.09 M 472.02 342.09 C 472.01 344.03 472.01 345.97 472.02 347.91 C 477.34 348.04 482.66 348.04 487.98 347.91 C 487.97 345.97 487.98 344.03 487.98 342.09 C 482.66 341.96 477.34 341.96 472.02 342.09 M 520.02 342.09 C 520.01 344.03 520.01 345.97 520.02 347.91 C 525.34 348.04 530.66 348.04 535.98 347.91 C 535.97 345.97 535.97 344.02 535.98 342.08 C 530.66 341.96 525.34 341.96 520.02 342.09 Z" />
<path fill="#ffffff" opacity="1.00" d=" M 199.16 319.07 C 200.72 319.06 202.28 319.06 203.84 319.07 C 204.16 333.02 204.16 346.99 203.84 360.93 C 202.28 360.93 200.72 360.93 199.16 360.93 C 198.84 346.98 198.84 333.01 199.16 319.07 Z" />
<path fill="#ffffff" opacity="1.00" d=" M 288.09 318.86 C 289.58 319.07 291.08 319.29 292.58 319.51 C 293.30 324.14 293.30 328.86 292.58 333.49 C 291.08 333.70 289.58 333.92 288.09 334.14 C 287.87 329.05 287.86 323.95 288.09 318.86 Z" />
<path fill="#ffffff" opacity="1.00" d=" M 580.16 319.08 C 581.71 319.06 583.27 319.06 584.84 319.07 C 585.17 333.01 585.17 346.99 584.84 360.93 C 583.27 360.93 581.71 360.93 580.16 360.93 C 579.83 346.99 579.84 333.02 580.16 319.08 Z" />
<path fill="#ffffff" opacity="1.00" d=" M 669.05 318.81 C 670.81 319.28 673.92 318.44 673.95 321.10 C 673.56 320.66 672.78 319.79 672.39 319.35 C 671.79 324.09 671.79 328.89 672.38 333.64 C 672.78 333.20 673.56 332.34 673.95 331.91 C 673.92 334.56 670.81 333.71 669.05 334.19 C 668.88 329.06 668.88 323.93 669.05 318.81 Z" />
<path fill="#ffffff" opacity="1.00" d=" M 25.11 319.72 C 26.51 320.27 29.01 319.96 28.87 322.12 C 29.23 327.02 29.21 331.98 28.88 336.89 C 29.00 338.99 26.47 338.72 25.12 339.30 C 24.85 332.78 24.86 326.24 25.11 319.72 Z" />
<path fill="#ffffff" opacity="1.00" d=" M 73.12 319.71 C 74.49 320.27 77.01 319.98 76.88 322.11 C 77.22 327.02 77.21 331.98 76.89 336.89 C 77.00 338.98 74.46 338.72 73.12 339.30 C 72.85 332.77 72.85 326.23 73.12 319.71 Z" />
<path fill="#ffffff" opacity="1.00" d=" M 121.12 319.70 C 122.47 320.27 125.00 320.00 124.88 322.11 C 125.20 327.01 125.25 331.97 124.85 336.87 C 125.05 339.07 122.54 338.72 121.11 339.27 C 120.86 332.75 120.85 326.22 121.12 319.70 Z" />
<path fill="#ffffff" opacity="1.00" d=" M 169.11 319.73 C 170.54 320.27 173.05 319.92 172.85 322.13 C 173.25 327.03 173.20 331.98 172.88 336.89 C 173.01 339.01 170.48 338.72 169.11 339.30 C 168.85 332.78 168.86 326.25 169.11 319.73 Z" />
<path fill="#ffffff" opacity="1.00" d=" M 454.12 319.70 C 455.46 320.27 458.00 320.01 457.89 322.11 C 458.20 327.01 458.23 331.97 457.88 336.88 C 458.01 339.03 455.50 338.72 454.11 339.29 C 453.85 332.76 453.85 326.22 454.12 319.70 Z" />
<path fill="#ffffff" opacity="1.00" d=" M 502.12 319.71 C 503.48 320.27 506.00 319.98 505.88 322.12 C 506.22 327.02 506.21 331.98 505.88 336.89 C 506.00 339.01 503.48 338.72 502.12 339.30 C 501.85 332.77 501.85 326.23 502.12 319.71 Z" />
<path fill="#ffffff" opacity="1.00" d=" M 550.12 319.71 C 551.48 320.27 554.00 319.98 553.88 322.11 C 554.21 327.02 554.23 331.97 553.86 336.88 C 554.01 339.04 551.52 338.72 550.11 339.28 C 549.85 332.76 549.85 326.23 550.12 319.71 Z" />
<path fill="#ffffff" opacity="1.00" d=" M 349.39 329.77 C 350.70 334.74 350.84 339.91 351.03 345.02 C 350.27 345.02 348.76 345.01 348.00 345.01 C 348.16 339.91 348.52 334.80 349.39 329.77 Z" />
<path fill="#ffffff" opacity="1.00" d=" M 730.40 329.75 C 731.64 334.74 731.88 339.89 732.02 345.02 C 731.27 345.02 729.75 345.01 729.00 345.01 C 729.14 339.90 729.54 334.79 730.40 329.75 Z" />
</g>
<g id="#000000ff">
<path fill="#000000" opacity="1.00" d=" M 655.22 8.30 C 662.49 7.79 669.72 6.81 676.98 6.05 C 687.99 5.88 699.01 6.09 710.03 5.96 C 715.37 5.75 720.38 7.97 725.68 8.29 C 730.61 14.95 737.08 20.25 742.75 26.25 C 746.72 30.61 751.90 34.11 754.37 39.64 C 757.16 45.39 759.88 51.20 763.35 56.59 C 765.36 63.04 769.93 68.54 770.61 75.41 C 772.78 89.99 775.86 104.43 777.92 119.03 C 778.00 127.97 778.23 136.94 777.79 145.88 C 776.07 154.75 777.71 163.82 776.68 172.74 C 775.12 181.00 776.70 189.44 775.68 197.75 C 774.10 206.34 775.72 215.11 774.68 223.74 C 773.12 232.30 774.64 241.04 773.78 249.64 C 772.58 252.11 769.79 252.54 767.42 251.63 C 757.11 248.32 746.92 244.66 736.59 241.43 C 721.15 237.46 705.66 233.74 690.23 229.76 C 685.91 228.61 681.25 228.51 677.03 230.09 C 676.85 257.49 677.23 284.90 676.85 312.31 C 676.32 312.29 675.27 312.25 674.74 312.23 C 674.06 312.20 672.69 312.13 672.01 312.09 C 672.00 284.85 671.97 257.60 672.04 230.35 C 662.06 231.65 652.06 232.86 642.07 234.08 C 639.69 234.08 638.32 236.29 636.71 237.71 C 633.04 241.74 628.80 245.24 625.29 249.42 C 624.59 253.14 625.33 256.95 624.83 260.69 C 623.69 262.76 621.05 261.94 619.15 261.90 C 611.51 260.49 603.88 258.96 596.20 257.79 C 594.82 257.55 593.12 256.43 593.05 254.94 C 593.66 252.29 595.13 249.84 595.02 247.05 C 595.01 207.03 594.94 167.00 595.05 126.98 C 596.68 118.10 595.57 109.07 596.21 100.12 C 597.98 90.58 596.26 80.82 597.28 71.24 C 600.45 61.46 603.15 51.51 605.47 41.50 C 610.37 37.33 613.89 31.89 618.03 27.02 C 619.90 24.81 621.43 22.35 622.95 19.89 C 628.37 17.96 633.49 15.32 638.54 12.57 C 644.10 11.17 649.68 9.81 655.22 8.30 M 660.01 12.99 C 654.67 13.41 649.58 15.21 644.39 16.36 C 637.75 17.99 631.62 21.27 625.84 24.84 C 621.89 28.60 619.03 33.36 615.43 37.45 C 613.48 40.16 610.39 42.28 609.77 45.75 C 607.48 54.68 604.98 63.55 602.44 72.40 C 601.21 80.49 602.63 88.74 601.77 96.88 C 599.97 107.50 602.02 118.36 600.05 128.98 C 599.91 167.99 600.03 207.01 600.00 246.03 C 599.96 248.34 599.77 250.65 599.47 252.95 C 606.02 254.54 612.73 255.28 619.29 256.84 C 621.04 250.11 619.22 243.08 620.33 236.26 C 621.90 228.10 620.15 219.75 621.57 211.58 C 622.73 204.24 621.28 196.76 622.45 189.42 C 623.92 180.54 622.09 171.47 623.57 162.59 C 624.58 156.57 623.43 150.43 624.44 144.42 C 625.85 136.53 624.17 128.47 625.57 120.59 C 626.69 113.52 625.38 106.34 626.33 99.26 C 627.71 90.97 626.64 82.55 627.07 74.21 C 630.31 71.05 634.69 70.74 638.98 70.86 C 671.31 66.61 703.62 62.21 735.95 57.97 C 740.63 57.35 745.25 56.13 749.99 56.06 C 752.09 56.05 754.18 55.78 756.18 55.08 C 754.96 51.67 753.99 48.10 751.90 45.09 C 749.52 41.46 748.09 37.16 744.78 34.20 C 738.19 27.80 731.80 21.20 725.27 14.75 C 723.55 12.88 720.88 12.90 718.60 12.32 C 708.23 9.88 697.52 11.42 687.00 10.98 C 677.93 10.46 669.00 12.26 660.01 12.99 M 640.88 75.79 C 638.13 76.16 635.23 75.66 632.60 76.61 C 631.00 83.48 632.85 90.76 631.69 97.75 C 630.16 105.86 631.84 114.17 630.44 122.30 C 629.35 129.41 630.64 136.63 629.69 143.75 C 628.49 151.36 629.10 159.09 629.10 166.76 C 633.17 169.29 637.25 171.88 640.45 175.50 C 644.25 177.59 647.11 180.88 650.57 183.42 C 655.29 186.28 660.69 187.67 665.98 189.10 C 673.79 192.32 682.31 192.89 690.25 195.66 C 696.79 196.49 703.43 195.70 710.01 196.03 C 716.61 196.77 722.35 192.89 727.95 189.99 C 731.99 188.11 734.81 184.27 739.28 183.22 C 745.33 178.33 749.85 171.68 756.52 167.51 C 758.72 163.61 760.58 159.52 762.47 155.46 C 764.43 151.25 763.33 146.39 765.12 142.13 C 766.70 138.02 765.55 133.51 766.30 129.25 C 768.06 120.34 766.22 111.16 763.32 102.70 C 762.59 99.60 763.13 96.38 762.75 93.23 C 762.17 88.38 759.69 84.05 758.52 79.35 C 756.12 73.25 754.97 66.69 751.85 60.89 C 714.88 66.00 677.86 70.78 640.88 75.79 M 758.86 60.69 C 760.36 66.27 761.39 71.98 763.42 77.40 C 764.48 80.14 764.58 83.44 766.99 85.46 C 766.32 76.77 764.75 67.51 758.86 60.69 M 767.27 88.27 C 767.77 88.78 767.77 88.78 767.27 88.27 M 768.10 93.52 C 767.91 95.62 767.84 97.73 767.81 99.83 C 768.38 100.19 769.52 100.92 770.09 101.28 C 769.67 98.64 769.39 95.91 768.10 93.52 M 770.09 105.28 C 768.53 108.26 773.41 105.44 770.09 105.28 M 771.19 111.69 C 770.08 112.23 770.36 114.66 771.81 114.32 C 772.89 113.77 772.61 111.34 771.19 111.69 M 772.00 116.93 C 772.10 124.34 770.41 131.64 770.85 139.05 C 771.14 143.39 768.87 147.29 768.41 151.53 C 767.90 156.39 765.66 160.78 764.14 165.37 C 760.85 173.89 750.96 176.83 746.33 184.40 C 744.40 188.22 739.45 187.83 736.56 190.54 C 731.62 195.03 725.51 197.87 719.32 200.16 C 715.32 201.35 711.09 200.73 707.00 200.83 C 701.04 200.63 695.06 201.20 689.12 200.64 C 684.68 199.64 680.46 197.51 675.79 197.77 C 677.16 206.74 676.77 215.80 676.86 224.85 C 680.54 224.34 684.33 222.95 688.03 224.01 C 700.45 227.50 713.04 230.36 725.53 233.57 C 740.47 236.59 754.55 242.62 769.11 247.00 C 769.50 239.22 768.58 231.38 769.73 223.64 C 770.96 215.02 769.35 206.26 770.73 197.65 C 771.91 189.63 770.45 181.50 771.62 173.48 C 772.63 167.02 772.05 160.48 772.14 153.98 C 772.13 148.96 773.37 144.03 773.22 139.00 C 773.10 131.65 773.34 124.30 773.05 116.95 L 772.00 116.93 M 627.97 172.67 C 627.62 178.56 628.20 184.50 627.28 190.36 C 626.11 197.98 627.57 205.74 626.27 213.36 C 625.15 220.42 626.45 227.61 625.47 234.68 C 625.03 237.55 624.84 240.44 624.87 243.34 C 629.73 239.39 634.57 235.07 637.43 229.38 C 646.40 228.98 655.25 227.33 664.18 226.46 C 666.85 226.24 669.50 225.77 672.09 225.04 C 672.12 215.43 673.06 205.39 669.89 196.17 C 664.02 192.54 656.55 192.89 650.62 189.34 C 645.86 186.96 642.38 182.81 637.93 179.98 C 635.85 178.74 634.78 176.47 633.10 174.83 C 631.54 173.79 629.70 173.31 627.97 172.67 Z" />
<path fill="#000000" opacity="1.00" d=" M 730.08 69.99 L 730.93 70.04 C 733.10 70.18 735.29 70.32 737.48 70.43 C 738.10 72.54 738.72 74.65 739.35 76.76 C 740.55 76.98 741.76 77.19 742.98 77.41 L 744.00 77.59 C 743.85 78.95 743.72 80.30 743.60 81.67 C 739.22 81.82 734.86 81.39 730.63 80.27 C 729.90 76.89 729.88 73.42 730.08 69.99 Z" />
<path fill="#000000" opacity="1.00" d=" M 638.44 80.55 C 642.66 79.99 646.79 81.03 650.76 82.36 C 651.13 86.53 651.13 90.72 650.95 94.90 C 646.11 94.38 641.23 94.56 636.38 94.66 C 636.17 91.24 635.40 87.67 636.51 84.33 L 637.25 83.97 C 637.54 83.55 638.13 82.71 638.42 82.28 C 638.43 81.85 638.44 80.99 638.44 80.55 Z" />
<path fill="#000000" opacity="1.00" d=" M 739.74 100.69 C 745.82 97.54 752.97 99.06 759.47 99.73 C 759.02 101.18 758.58 102.63 758.13 104.08 C 754.45 104.01 750.74 103.64 747.08 104.16 C 744.32 104.87 741.92 106.64 739.05 106.97 C 731.05 107.95 723.39 110.57 715.61 112.52 C 710.36 113.53 704.93 112.47 699.71 113.73 C 688.70 116.51 677.43 118.07 666.32 120.37 C 661.00 121.90 655.53 122.91 650.00 122.94 C 643.73 122.87 637.87 125.33 631.79 126.45 C 630.98 124.24 630.41 121.46 633.12 120.35 C 635.44 119.94 637.80 119.61 640.11 119.06 C 646.54 117.43 653.28 118.02 659.76 116.63 C 672.70 113.63 685.88 111.77 698.83 108.83 C 704.21 107.64 709.81 108.55 715.15 107.16 C 719.88 105.99 724.64 104.94 729.24 103.30 C 732.65 102.11 736.43 102.26 739.74 100.69 Z" />
<path fill="#000000" opacity="1.00" d=" M 706.03 120.93 C 708.91 120.91 711.36 119.08 714.19 118.74 C 713.82 120.49 713.39 122.23 712.94 123.96 C 708.65 123.98 704.26 123.73 700.14 125.12 C 695.89 126.50 691.38 126.07 687.00 125.95 C 687.00 125.24 686.99 123.81 686.99 123.10 C 693.51 123.76 699.55 120.66 706.03 120.93 Z" />
<path fill="#000000" opacity="1.00" d=" M 672.38 333.64 C 671.79 328.89 671.79 324.09 672.39 319.35 C 672.78 319.79 673.56 320.66 673.95 321.10 C 674.23 324.69 674.22 328.31 673.95 331.91 C 673.56 332.34 672.78 333.20 672.38 333.64 Z" />
<path fill="#000000" opacity="1.00" d=" M 673.99 352.24 C 670.69 349.96 671.71 344.91 672.77 341.65 C 673.03 342.03 673.53 342.79 673.79 343.17 C 674.11 346.18 674.02 349.21 673.99 352.24 Z" />
</g>
<g id="#f1f0b0ff">
<path fill="#f1f0b0" opacity="1.00" d=" M 660.01 12.99 C 669.00 12.26 677.93 10.46 687.00 10.98 C 697.52 11.42 708.23 9.88 718.60 12.32 C 720.88 12.90 723.55 12.88 725.27 14.75 C 731.80 21.20 738.19 27.80 744.78 34.20 C 748.09 37.16 749.52 41.46 751.90 45.09 C 753.99 48.10 754.96 51.67 756.18 55.08 C 754.18 55.78 752.09 56.05 749.99 56.06 C 745.25 56.13 740.63 57.35 735.95 57.97 C 703.62 62.21 671.31 66.61 638.98 70.86 C 634.69 70.74 630.31 71.05 627.07 74.21 C 626.64 82.55 627.71 90.97 626.33 99.26 C 625.38 106.34 626.69 113.52 625.57 120.59 C 624.17 128.47 625.85 136.53 624.44 144.42 C 623.43 150.43 624.58 156.57 623.57 162.59 C 622.09 171.47 623.92 180.54 622.45 189.42 C 621.28 196.76 622.73 204.24 621.57 211.58 C 620.15 219.75 621.90 228.10 620.33 236.26 C 619.22 243.08 621.04 250.11 619.29 256.84 C 612.73 255.28 606.02 254.54 599.47 252.95 C 599.77 250.65 599.96 248.34 600.00 246.03 C 600.03 207.01 599.91 167.99 600.05 128.98 C 602.02 118.36 599.97 107.50 601.77 96.88 C 602.63 88.74 601.21 80.49 602.44 72.40 C 604.98 63.55 607.48 54.68 609.77 45.75 C 610.39 42.28 613.48 40.16 615.43 37.45 C 619.03 33.36 621.89 28.60 625.84 24.84 C 631.62 21.27 637.75 17.99 644.39 16.36 C 649.58 15.21 654.67 13.41 660.01 12.99 Z" />
</g>
<g id="#fddaa2ff">
<path fill="#fddaa2" opacity="1.00" d=" M 640.88 75.79 C 677.86 70.78 714.88 66.00 751.85 60.89 C 754.97 66.69 756.12 73.25 758.52 79.35 C 759.69 84.05 762.17 88.38 762.75 93.23 C 763.13 96.38 762.59 99.60 763.32 102.70 C 766.22 111.16 768.06 120.34 766.30 129.25 C 765.55 133.51 766.70 138.02 765.12 142.13 C 763.33 146.39 764.43 151.25 762.47 155.46 C 760.58 159.52 758.72 163.61 756.52 167.51 C 749.85 171.68 745.33 178.33 739.28 183.22 C 734.81 184.27 731.99 188.11 727.95 189.99 C 722.35 192.89 716.61 196.77 710.01 196.03 C 703.43 195.70 696.79 196.49 690.25 195.66 C 682.31 192.89 673.79 192.32 665.98 189.10 C 660.69 187.67 655.29 186.28 650.57 183.42 C 647.11 180.88 644.25 177.59 640.45 175.50 C 637.25 171.88 633.17 169.29 629.10 166.76 C 629.10 159.09 628.49 151.36 629.69 143.75 C 630.64 136.63 629.35 129.41 630.44 122.30 C 631.84 114.17 630.16 105.86 631.69 97.75 C 632.85 90.76 631.00 83.48 632.60 76.61 C 635.23 75.66 638.13 76.16 640.88 75.79 M 730.93 70.04 L 730.08 69.99 C 729.88 73.42 729.90 76.89 730.63 80.27 C 734.86 81.39 739.22 81.82 743.60 81.67 C 743.72 80.30 743.85 78.95 744.00 77.59 L 742.98 77.41 C 739.89 75.82 739.46 72.30 738.63 69.29 C 736.06 69.34 733.25 68.62 730.93 70.04 M 638.44 80.55 C 638.44 80.99 638.43 81.85 638.42 82.28 L 637.53 82.28 C 637.46 82.71 637.32 83.55 637.25 83.97 L 636.51 84.33 C 635.40 87.67 636.17 91.24 636.38 94.66 C 641.23 94.56 646.11 94.38 650.95 94.90 C 651.13 90.72 651.13 86.53 650.76 82.36 C 646.79 81.03 642.66 79.99 638.44 80.55 M 735.57 98.15 C 729.68 98.99 723.83 100.07 718.20 102.05 C 712.46 104.14 706.91 99.94 701.15 100.81 C 698.86 101.18 697.21 102.93 695.48 104.28 C 692.55 102.90 689.46 100.81 686.09 101.74 C 682.42 103.25 679.64 106.22 676.37 108.36 C 672.45 111.23 667.34 111.11 662.95 112.86 C 658.17 114.69 652.99 114.28 647.99 114.72 C 643.83 115.03 639.77 116.18 635.89 117.68 C 634.53 118.04 633.57 119.05 633.12 120.35 C 630.41 121.46 630.98 124.24 631.79 126.45 C 634.08 127.34 636.41 128.69 638.96 128.27 C 642.02 127.86 644.94 126.71 648.02 126.41 C 652.32 126.01 656.65 126.71 660.95 126.13 C 664.41 125.65 667.58 124.05 670.93 123.13 C 673.87 122.32 676.94 122.49 679.94 122.02 C 682.77 121.55 685.27 119.95 688.11 119.50 C 691.04 119.16 694.02 119.49 696.97 119.13 C 700.84 118.48 703.99 115.51 708.00 115.34 C 711.99 115.09 716.00 115.66 719.99 115.17 C 729.17 113.90 737.91 110.73 746.62 107.70 C 749.84 106.48 753.31 106.23 756.72 105.99 C 757.07 105.51 757.78 104.56 758.13 104.08 C 758.58 102.63 759.02 101.18 759.47 99.73 C 759.34 99.04 759.08 97.67 758.94 96.98 C 751.16 96.59 743.13 95.76 735.57 98.15 M 706.03 120.93 C 699.55 120.66 693.51 123.76 686.99 123.10 C 686.99 123.81 687.00 125.24 687.00 125.95 C 691.38 126.07 695.89 126.50 700.14 125.12 C 704.26 123.73 708.65 123.98 712.94 123.96 C 713.39 122.23 713.82 120.49 714.19 118.74 C 711.36 119.08 708.91 120.91 706.03 120.93 Z" />
</g>
<g id="#b0ac86ff">
<path fill="#b0ac86" opacity="1.00" d=" M 758.86 60.69 C 764.75 67.51 766.32 76.77 766.99 85.46 C 764.58 83.44 764.48 80.14 763.42 77.40 C 761.39 71.98 760.36 66.27 758.86 60.69 Z" />
<path fill="#b0ac86" opacity="1.00" d=" M 767.27 88.27 C 767.77 88.78 767.77 88.78 767.27 88.27 Z" />
<path fill="#b0ac86" opacity="1.00" d=" M 768.10 93.52 C 769.39 95.91 769.67 98.64 770.09 101.28 C 769.52 100.92 768.38 100.19 767.81 99.83 C 767.84 97.73 767.91 95.62 768.10 93.52 Z" />
<path fill="#b0ac86" opacity="1.00" d=" M 770.09 105.28 C 773.41 105.44 768.53 108.26 770.09 105.28 Z" />
<path fill="#b0ac86" opacity="1.00" d=" M 771.19 111.69 C 772.61 111.34 772.89 113.77 771.81 114.32 C 770.36 114.66 770.08 112.23 771.19 111.69 Z" />
<path fill="#b0ac86" opacity="1.00" d=" M 772.00 116.93 L 773.05 116.95 C 773.34 124.30 773.10 131.65 773.22 139.00 C 773.37 144.03 772.13 148.96 772.14 153.98 C 772.05 160.48 772.63 167.02 771.62 173.48 C 770.45 181.50 771.91 189.63 770.73 197.65 C 769.35 206.26 770.96 215.02 769.73 223.64 C 768.58 231.38 769.50 239.22 769.11 247.00 C 754.55 242.62 740.47 236.59 725.53 233.57 C 713.04 230.36 700.45 227.50 688.03 224.01 C 684.33 222.95 680.54 224.34 676.86 224.85 C 676.77 215.80 677.16 206.74 675.79 197.77 C 680.46 197.51 684.68 199.64 689.12 200.64 C 695.06 201.20 701.04 200.63 707.00 200.83 C 711.09 200.73 715.32 201.35 719.32 200.16 C 725.51 197.87 731.62 195.03 736.56 190.54 C 739.45 187.83 744.40 188.22 746.33 184.40 C 750.96 176.83 760.85 173.89 764.14 165.37 C 765.66 160.78 767.90 156.39 768.41 151.53 C 768.87 147.29 771.14 143.39 770.85 139.05 C 770.41 131.64 772.10 124.34 772.00 116.93 Z" />
<path fill="#b0ac86" opacity="1.00" d=" M 627.97 172.67 C 629.70 173.31 631.54 173.79 633.10 174.83 C 634.78 176.47 635.85 178.74 637.93 179.98 C 642.38 182.81 645.86 186.96 650.62 189.34 C 656.55 192.89 664.02 192.54 669.89 196.17 C 673.06 205.39 672.12 215.43 672.09 225.04 C 669.50 225.77 666.85 226.24 664.18 226.46 C 655.25 227.33 646.40 228.98 637.43 229.38 C 634.57 235.07 629.73 239.39 624.87 243.34 C 624.84 240.44 625.03 237.55 625.47 234.68 C 626.45 227.61 625.15 220.42 626.27 213.36 C 627.57 205.74 626.11 197.98 627.28 190.36 C 628.20 184.50 627.62 178.56 627.97 172.67 Z" />
</g>
<g id="#4c483eff">
<path fill="#4c483e" opacity="1.00" d=" M 730.93 70.04 C 733.25 68.62 736.06 69.34 738.63 69.29 C 739.46 72.30 739.89 75.82 742.98 77.41 C 741.76 77.19 740.55 76.98 739.35 76.76 C 738.72 74.65 738.10 72.54 737.48 70.43 C 735.29 70.32 733.10 70.18 730.93 70.04 Z" />
<path fill="#4c483e" opacity="1.00" d=" M 637.53 82.28 L 638.42 82.28 C 638.13 82.71 637.54 83.55 637.25 83.97 C 637.32 83.55 637.46 82.71 637.53 82.28 Z" />
</g>
<g id="#ffb7a1ff">
<path fill="#ffb7a1" opacity="1.00" d=" M 735.57 98.15 C 743.13 95.76 751.16 96.59 758.94 96.98 C 759.08 97.67 759.34 99.04 759.47 99.73 C 752.97 99.06 745.82 97.54 739.74 100.69 C 736.43 102.26 732.65 102.11 729.24 103.30 C 724.64 104.94 719.88 105.99 715.15 107.16 C 709.81 108.55 704.21 107.64 698.83 108.83 C 685.88 111.77 672.70 113.63 659.76 116.63 C 653.28 118.02 646.54 117.43 640.11 119.06 C 637.80 119.61 635.44 119.94 633.12 120.35 C 633.57 119.05 634.53 118.04 635.89 117.68 C 639.77 116.18 643.83 115.03 647.99 114.72 C 652.99 114.28 658.17 114.69 662.95 112.86 C 667.34 111.11 672.45 111.23 676.37 108.36 C 679.64 106.22 682.42 103.25 686.09 101.74 C 689.46 100.81 692.55 102.90 695.48 104.28 C 697.21 102.93 698.86 101.18 701.15 100.81 C 706.91 99.94 712.46 104.14 718.20 102.05 C 723.83 100.07 729.68 98.99 735.57 98.15 Z" />
<path fill="#ffb7a1" opacity="1.00" d=" M 739.05 106.97 C 741.92 106.64 744.32 104.87 747.08 104.16 C 750.74 103.64 754.45 104.01 758.13 104.08 C 757.78 104.56 757.07 105.51 756.72 105.99 C 753.31 106.23 749.84 106.48 746.62 107.70 C 737.91 110.73 729.17 113.90 719.99 115.17 C 716.00 115.66 711.99 115.09 708.00 115.34 C 703.99 115.51 700.84 118.48 696.97 119.13 C 694.02 119.49 691.04 119.16 688.11 119.50 C 685.27 119.95 682.77 121.55 679.94 122.02 C 676.94 122.49 673.87 122.32 670.93 123.13 C 667.58 124.05 664.41 125.65 660.95 126.13 C 656.65 126.71 652.32 126.01 648.02 126.41 C 644.94 126.71 642.02 127.86 638.96 128.27 C 636.41 128.69 634.08 127.34 631.79 126.45 C 637.87 125.33 643.73 122.87 650.00 122.94 C 655.53 122.91 661.00 121.90 666.32 120.37 C 677.43 118.07 688.70 116.51 699.71 113.73 C 704.93 112.47 710.36 113.53 715.61 112.52 C 723.39 110.57 731.05 107.95 739.05 106.97 Z" />
</g>
<g id="#ff0000ff">
<path fill="#ff0000" opacity="1.00" d=" M 199.37 311.22 C 203.30 310.89 207.40 311.39 210.98 313.10 C 214.85 315.16 216.13 319.84 216.00 323.95 C 215.96 334.65 215.96 345.36 216.00 356.07 C 216.09 359.71 215.32 363.88 212.02 366.00 C 206.09 369.68 198.33 369.67 192.02 366.99 C 188.15 365.37 187.00 360.88 187.03 357.07 C 186.97 346.70 187.11 336.34 186.98 325.97 C 186.98 322.36 186.95 318.34 189.38 315.39 C 191.72 312.33 195.78 311.63 199.37 311.22 M 199.16 319.07 C 198.84 333.01 198.84 346.98 199.16 360.93 C 200.72 360.93 202.28 360.93 203.84 360.93 C 204.16 346.99 204.16 333.02 203.84 319.07 C 202.28 319.06 200.72 319.06 199.16 319.07 Z" />
<path fill="#ff0000" opacity="1.00" d=" M 373.87 312.81 C 379.91 310.41 387.47 310.25 392.99 313.99 C 397.45 318.39 395.69 325.32 395.92 330.92 C 392.30 331.03 388.69 331.03 385.07 330.93 C 385.05 326.96 385.03 323.00 384.89 319.03 C 383.29 319.03 381.70 319.03 380.11 319.04 C 379.87 333.01 379.86 346.99 380.12 360.97 C 381.70 360.96 383.30 360.96 384.90 360.96 C 385.11 356.00 385.00 351.04 385.06 346.08 C 388.68 345.96 392.30 345.96 395.92 346.07 C 395.89 351.25 396.41 356.50 395.58 361.64 C 394.98 364.96 391.74 366.85 388.79 367.82 C 383.46 369.65 377.40 369.07 372.38 366.61 C 368.55 364.65 367.99 359.90 368.00 356.06 C 368.09 345.05 367.93 334.04 368.08 323.03 C 368.06 318.91 369.76 314.40 373.87 312.81 Z" />
<path fill="#ff0000" opacity="1.00" d=" M 580.37 311.22 C 584.30 310.89 588.41 311.39 591.98 313.11 C 595.85 315.17 597.13 319.85 597.00 323.95 C 596.94 334.99 597.00 346.03 596.97 357.07 C 597.05 360.67 595.74 364.58 592.41 366.40 C 586.31 369.72 578.57 369.66 572.37 366.64 C 568.58 364.63 567.98 359.91 568.00 356.06 C 568.01 346.03 568.08 336.00 567.98 325.97 C 567.98 322.36 567.95 318.34 570.38 315.39 C 572.71 312.32 576.78 311.64 580.37 311.22 M 580.16 319.08 C 579.84 333.02 579.83 346.99 580.16 360.93 C 581.71 360.93 583.27 360.93 584.84 360.93 C 585.17 346.99 585.17 333.01 584.84 319.07 C 583.27 319.06 581.71 319.06 580.16 319.08 Z" />
<path fill="#ff0000" opacity="1.00" d=" M 754.87 312.81 C 760.91 310.41 768.47 310.26 773.99 313.99 C 778.45 318.39 776.70 325.32 776.92 330.93 C 773.30 331.03 769.68 331.03 766.07 330.93 C 766.05 326.96 766.02 322.99 765.89 319.03 C 764.29 319.03 762.70 319.03 761.11 319.04 C 760.86 333.01 760.86 346.99 761.12 360.96 C 762.70 360.96 764.29 360.96 765.90 360.97 C 766.10 356.00 766.00 351.04 766.06 346.08 C 769.67 345.96 773.29 345.96 776.92 346.07 C 776.89 351.25 777.41 356.50 776.58 361.64 C 775.98 364.97 772.74 366.85 769.79 367.82 C 764.46 369.65 758.40 369.07 753.38 366.61 C 749.55 364.64 748.99 359.89 749.00 356.05 C 749.10 345.04 748.93 334.03 749.08 323.03 C 749.06 318.91 750.76 314.40 754.87 312.81 Z" />
<path fill="#ff0000" opacity="1.00" d=" M 13.07 312.08 C 20.81 312.10 28.82 311.32 36.31 313.73 C 41.28 315.46 40.95 321.70 41.01 325.98 C 40.58 331.87 42.27 338.55 38.85 343.79 C 35.23 347.23 29.64 346.38 25.05 347.15 C 24.80 354.07 25.10 360.99 24.93 367.92 C 20.98 368.04 17.02 368.04 13.07 367.92 C 13.00 349.31 13.00 330.69 13.07 312.08 M 25.11 319.72 C 24.86 326.24 24.85 332.78 25.12 339.30 C 26.47 338.72 29.00 338.99 28.88 336.89 C 29.21 331.98 29.23 327.02 28.87 322.12 C 29.01 319.96 26.51 320.27 25.11 319.72 Z" />
<path fill="#ff0000" opacity="1.00" d=" M 61.07 312.08 C 68.82 312.10 76.83 311.31 84.32 313.73 C 89.29 315.47 88.95 321.70 89.01 325.99 C 88.58 331.87 90.29 338.56 86.84 343.79 C 83.22 347.22 77.63 346.38 73.05 347.15 C 72.80 354.07 73.10 361.00 72.93 367.92 C 68.98 368.04 65.02 368.04 61.07 367.92 C 61.00 349.31 61.00 330.69 61.07 312.08 M 73.12 319.71 C 72.85 326.23 72.85 332.77 73.12 339.30 C 74.46 338.72 77.00 338.98 76.89 336.89 C 77.21 331.98 77.22 327.02 76.88 322.11 C 77.01 319.98 74.49 320.27 73.12 319.71 Z" />
<path fill="#ff0000" opacity="1.00" d=" M 109.07 312.08 C 116.81 312.10 124.82 311.32 132.31 313.73 C 137.28 315.46 136.95 321.70 137.02 325.98 C 136.58 331.87 138.28 338.56 134.85 343.79 C 131.22 347.22 125.64 346.38 121.05 347.15 C 120.80 354.07 121.10 361.00 120.93 367.92 C 116.97 368.04 113.02 368.04 109.07 367.92 C 109.01 349.31 109.00 330.69 109.07 312.08 M 121.12 319.70 C 120.85 326.22 120.86 332.75 121.11 339.27 C 122.54 338.72 125.05 339.07 124.85 336.87 C 125.25 331.97 125.20 327.01 124.88 322.11 C 125.00 320.00 122.47 320.27 121.12 319.70 Z" />
<path fill="#ff0000" opacity="1.00" d=" M 157.07 312.08 C 164.81 312.10 172.83 311.32 180.32 313.73 C 185.28 315.47 184.94 321.70 185.01 325.99 C 184.58 331.87 186.28 338.56 182.85 343.79 C 179.22 347.22 173.63 346.38 169.05 347.15 C 168.81 354.07 169.10 360.99 168.93 367.92 C 164.98 368.04 161.02 368.04 157.07 367.92 C 157.00 349.31 157.00 330.69 157.07 312.08 M 169.11 319.73 C 168.86 326.25 168.85 332.78 169.11 339.30 C 170.48 338.72 173.01 339.01 172.88 336.89 C 173.20 331.98 173.25 327.03 172.85 322.13 C 173.05 319.92 170.54 320.27 169.11 319.73 Z" />
<path fill="#ff0000" opacity="1.00" d=" M 218.07 312.08 C 222.02 311.96 225.98 311.96 229.93 312.08 C 230.08 317.83 229.75 323.59 230.21 329.34 C 232.70 323.77 233.51 317.63 235.98 312.04 C 239.57 311.97 243.16 311.97 246.75 312.09 C 244.53 319.36 242.19 326.60 239.95 333.86 C 239.12 336.22 239.03 338.77 239.86 341.14 C 242.54 350.05 245.15 358.97 247.73 367.91 C 243.81 368.04 239.89 368.02 235.97 367.97 C 233.50 360.40 232.48 352.45 230.24 344.82 C 229.65 352.51 230.16 360.22 229.93 367.92 C 225.98 368.04 222.02 368.04 218.07 367.92 C 218.00 349.31 218.01 330.69 218.07 312.08 Z" />
<path fill="#ff0000" opacity="1.00" d=" M 250.07 312.07 C 257.82 311.99 265.57 311.98 273.32 312.08 C 273.36 314.36 273.36 316.63 273.32 318.91 C 269.55 318.95 265.79 318.98 262.03 319.03 C 261.89 324.00 261.89 328.99 262.04 333.97 C 265.46 334.01 268.89 334.04 272.32 334.09 C 272.36 336.36 272.36 338.63 272.31 340.91 C 268.88 340.95 265.45 340.99 262.02 341.03 C 261.91 347.68 261.90 354.33 262.03 360.98 C 266.01 361.02 269.99 361.04 273.98 361.07 C 273.98 363.35 273.98 365.64 273.97 367.93 C 266.00 368.01 258.04 368.01 250.07 367.93 C 250.00 349.31 250.00 330.69 250.07 312.07 Z" />
<path fill="#ff0000" opacity="1.00" d=" M 276.07 312.08 C 283.79 312.32 291.90 310.89 299.29 313.72 C 302.79 314.90 304.82 318.45 304.95 322.01 C 305.12 325.32 305.33 328.83 304.00 331.95 C 302.87 334.43 300.26 335.66 298.14 337.16 C 301.10 339.03 304.59 341.23 304.73 345.15 C 305.34 352.72 304.48 360.39 305.96 367.90 C 302.14 368.09 298.30 368.13 294.50 367.64 C 292.41 359.05 293.55 350.20 292.60 341.52 C 291.09 341.29 289.58 341.07 288.08 340.86 C 287.76 349.88 288.13 358.90 287.93 367.92 C 283.98 368.04 280.02 368.04 276.07 367.92 C 276.00 349.31 276.00 330.69 276.07 312.08 M 288.09 318.86 C 287.86 323.95 287.87 329.05 288.09 334.14 C 289.58 333.92 291.08 333.70 292.58 333.49 C 293.30 328.86 293.30 324.14 292.58 319.51 C 291.08 319.29 289.58 319.07 288.09 318.86 Z" />
<path fill="#ff0000" opacity="1.00" d=" M 308.07 312.07 C 315.70 311.99 323.34 311.98 330.97 312.07 C 330.98 314.35 330.98 316.63 330.98 318.92 C 327.33 318.95 323.68 318.98 320.03 319.02 C 319.89 324.00 319.89 328.99 320.03 333.97 C 323.35 334.01 326.66 334.04 329.98 334.09 C 329.98 336.36 329.98 338.63 329.98 340.91 C 326.66 340.95 323.34 340.99 320.02 341.04 C 319.82 350.00 320.10 358.96 319.93 367.92 C 315.98 368.04 312.02 368.04 308.07 367.92 C 308.00 349.30 308.00 330.68 308.07 312.07 Z" />
<path fill="#ff0000" opacity="1.00" d=" M 341.95 312.10 C 346.98 311.95 352.01 311.95 357.04 312.09 C 359.05 322.38 360.23 332.80 361.99 343.13 C 363.08 351.41 364.89 359.60 365.42 367.95 C 361.64 368.05 357.85 368.04 354.07 367.87 C 353.31 362.58 352.90 357.25 351.93 351.99 C 350.31 351.99 348.69 351.99 347.08 352.00 C 346.11 357.25 345.68 362.59 344.92 367.87 C 341.14 368.04 337.36 368.04 333.58 367.95 C 334.10 359.60 335.92 351.41 337.01 343.13 C 338.76 332.80 339.96 322.38 341.95 312.10 M 349.39 329.77 C 348.52 334.80 348.16 339.91 348.00 345.01 C 348.76 345.01 350.27 345.02 351.03 345.02 C 350.84 339.91 350.70 334.74 349.39 329.77 Z" />
<path fill="#ff0000" opacity="1.00" d=" M 398.07 312.07 C 405.82 311.99 413.57 311.98 421.32 312.08 C 421.36 314.36 421.36 316.63 421.32 318.91 C 417.55 318.95 413.79 318.98 410.04 319.02 C 409.89 324.00 409.89 328.99 410.04 333.97 C 413.46 334.01 416.89 334.04 420.32 334.09 C 420.36 336.36 420.36 338.63 420.32 340.90 C 416.89 340.95 413.45 340.99 410.02 341.03 C 409.90 347.68 409.90 354.33 410.03 360.98 C 414.01 361.02 417.99 361.04 421.98 361.07 C 421.98 363.35 421.98 365.64 421.98 367.93 C 414.01 368.02 406.04 368.00 398.07 367.93 C 398.00 349.31 398.00 330.69 398.07 312.07 Z" />
<path fill="#ff0000" opacity="1.00" d=" M 442.07 312.08 C 449.82 312.10 457.83 311.31 465.32 313.73 C 468.46 314.64 469.61 318.08 469.83 321.03 C 470.15 326.03 470.00 331.06 469.96 336.07 C 469.83 339.35 469.36 343.46 466.11 345.18 C 462.30 346.74 458.08 346.68 454.05 347.15 C 453.80 354.07 454.10 361.00 453.93 367.92 C 449.97 368.04 446.02 368.04 442.07 367.92 C 442.01 349.31 442.00 330.69 442.07 312.08 M 454.12 319.70 C 453.85 326.22 453.85 332.76 454.11 339.29 C 455.50 338.72 458.01 339.03 457.88 336.88 C 458.23 331.97 458.20 327.01 457.89 322.11 C 458.00 320.01 455.46 320.27 454.12 319.70 Z" />
<path fill="#ff0000" opacity="1.00" d=" M 490.07 312.08 C 497.82 312.10 505.83 311.32 513.32 313.73 C 516.47 314.64 517.61 318.09 517.84 321.03 C 518.15 326.03 518.00 331.06 517.96 336.07 C 517.83 339.35 517.35 343.46 514.11 345.18 C 510.30 346.74 506.08 346.68 502.05 347.15 C 501.80 354.07 502.10 361.00 501.93 367.92 C 497.97 368.04 494.02 368.04 490.07 367.92 C 490.00 349.31 490.00 330.69 490.07 312.08 M 502.12 319.71 C 501.85 326.23 501.85 332.77 502.12 339.30 C 503.48 338.72 506.00 339.01 505.88 336.89 C 506.21 331.98 506.22 327.02 505.88 322.12 C 506.00 319.98 503.48 320.27 502.12 319.71 Z" />
<path fill="#ff0000" opacity="1.00" d=" M 538.07 312.08 C 545.81 312.10 553.82 311.31 561.31 313.73 C 564.46 314.65 565.62 318.08 565.84 321.03 C 566.15 326.03 566.00 331.05 565.96 336.06 C 565.82 339.35 565.36 343.46 562.11 345.18 C 558.31 346.74 554.08 346.68 550.05 347.15 C 549.80 354.07 550.10 361.00 549.93 367.92 C 545.97 368.04 542.02 368.04 538.07 367.92 C 538.00 349.31 538.00 330.69 538.07 312.08 M 550.12 319.71 C 549.85 326.23 549.85 332.76 550.11 339.28 C 551.52 338.72 554.01 339.04 553.86 336.88 C 554.23 331.97 554.21 327.02 553.88 322.11 C 554.00 319.98 551.48 320.27 550.12 319.71 Z" />
<path fill="#ff0000" opacity="1.00" d=" M 599.07 312.08 C 603.02 311.96 606.98 311.96 610.93 312.08 C 611.08 317.83 610.75 323.60 611.21 329.34 C 613.69 323.77 614.52 317.63 616.98 312.04 C 620.56 311.97 624.15 311.97 627.75 312.09 C 625.53 319.36 623.19 326.60 620.95 333.86 C 620.11 336.22 620.03 338.77 620.86 341.15 C 623.54 350.05 626.15 358.97 628.73 367.91 C 624.81 368.04 620.88 368.02 616.97 367.97 C 614.51 360.39 613.47 352.46 611.24 344.83 C 610.66 352.51 611.15 360.22 610.93 367.92 C 606.97 368.04 603.02 368.04 599.07 367.92 C 599.00 349.31 599.00 330.69 599.07 312.08 Z" />
<path fill="#ff0000" opacity="1.00" d=" M 631.07 312.07 C 638.82 311.99 646.57 311.98 654.32 312.08 C 654.36 314.35 654.35 316.63 654.32 318.92 C 650.55 318.95 646.79 318.98 643.04 319.02 C 642.89 324.00 642.89 328.98 643.03 333.97 C 646.46 334.01 649.89 334.05 653.32 334.10 C 653.35 336.36 653.35 338.63 653.32 340.90 C 649.88 340.95 646.45 340.99 643.02 341.03 C 642.90 347.68 642.90 354.33 643.03 360.98 C 647.01 361.02 650.99 361.04 654.97 361.07 C 654.98 363.35 654.98 365.64 654.97 367.92 C 647.00 368.02 639.04 368.00 631.07 367.93 C 631.00 349.31 631.01 330.69 631.07 312.07 Z" />
<path fill="#ff0000" opacity="1.00" d=" M 657.07 312.08 C 662.05 312.00 667.03 311.89 672.01 312.09 C 672.69 312.13 674.06 312.20 674.74 312.23 C 678.56 313.04 683.34 314.00 684.99 318.06 C 686.50 321.99 686.30 326.44 685.52 330.51 C 684.85 333.81 681.68 335.45 679.13 337.15 C 682.09 339.01 685.58 341.22 685.73 345.15 C 686.34 352.72 685.49 360.39 686.97 367.91 C 683.14 368.09 679.30 368.11 675.50 367.64 C 674.59 362.55 673.89 357.41 673.99 352.24 C 674.02 349.21 674.11 346.18 673.79 343.17 C 673.74 342.71 673.66 341.79 673.62 341.33 C 672.09 341.13 670.56 341.00 669.04 340.87 C 668.80 349.88 669.10 358.90 668.93 367.92 C 664.97 368.04 661.02 368.04 657.07 367.92 C 657.00 349.31 657.00 330.69 657.07 312.08 M 669.05 318.81 C 668.88 323.93 668.88 329.06 669.05 334.19 C 670.81 333.71 673.92 334.56 673.95 331.91 C 674.22 328.31 674.23 324.69 673.95 321.10 C 673.92 318.44 670.81 319.28 669.05 318.81 Z" />
<path fill="#ff0000" opacity="1.00" d=" M 689.07 312.07 C 696.70 311.99 704.34 311.98 711.97 312.08 C 711.98 314.35 711.98 316.64 711.97 318.92 C 708.32 318.95 704.68 318.98 701.03 319.03 C 700.89 324.00 700.89 328.99 701.03 333.97 C 704.34 334.01 707.66 334.04 710.98 334.09 C 710.98 336.36 710.98 338.63 710.97 340.91 C 707.65 340.95 704.34 340.99 701.03 341.03 C 700.82 349.99 701.10 358.96 700.93 367.92 C 696.97 368.04 693.02 368.04 689.07 367.92 C 689.01 349.30 689.00 330.69 689.07 312.07 Z" />
<path fill="#ff0000" opacity="1.00" d=" M 722.95 312.10 C 727.98 311.95 733.01 311.95 738.05 312.09 C 740.04 322.38 741.23 332.80 742.99 343.12 C 744.08 351.40 745.90 359.60 746.42 367.95 C 742.63 368.05 738.85 368.04 735.07 367.87 C 734.31 362.58 733.91 357.25 732.92 351.99 C 731.30 351.99 729.69 352.00 728.08 352.01 C 727.11 357.26 726.68 362.58 725.93 367.87 C 722.14 368.04 718.36 368.05 714.58 367.95 C 715.10 359.60 716.91 351.41 718.01 343.13 C 719.76 332.80 720.96 322.38 722.95 312.10 M 730.40 329.75 C 729.54 334.79 729.14 339.90 729.00 345.01 C 729.75 345.01 731.27 345.02 732.02 345.02 C 731.88 339.89 731.64 334.74 730.40 329.75 Z" />
<path fill="#ff0000" opacity="1.00" d=" M 779.07 312.07 C 786.82 311.99 794.57 311.98 802.32 312.08 C 802.35 314.36 802.35 316.63 802.32 318.91 C 798.55 318.95 794.79 318.98 791.04 319.02 C 790.89 324.00 790.89 328.99 791.04 333.97 C 794.46 334.01 797.88 334.04 801.32 334.09 C 801.35 336.36 801.35 338.63 801.32 340.91 C 797.88 340.95 794.45 340.99 791.02 341.03 C 790.91 347.68 790.90 354.33 791.02 360.98 C 795.00 361.02 798.99 361.04 802.98 361.07 C 802.98 363.35 802.98 365.64 802.97 367.92 C 795.01 368.02 787.04 368.01 779.07 367.93 C 779.00 349.31 779.01 330.69 779.07 312.07 Z" />
<path fill="#ff0000" opacity="1.00" d=" M 43.02 342.09 C 48.34 341.96 53.66 341.96 58.98 342.09 C 58.98 344.02 58.98 345.97 58.98 347.91 C 53.66 348.04 48.34 348.04 43.02 347.91 C 43.02 345.97 43.02 344.02 43.02 342.09 Z" />
<path fill="#ff0000" opacity="1.00" d=" M 91.02 342.09 C 96.34 341.96 101.66 341.96 106.98 342.09 C 106.98 344.03 106.98 345.97 106.98 347.91 C 101.66 348.04 96.34 348.04 91.02 347.91 C 91.02 345.97 91.02 344.03 91.02 342.09 Z" />
<path fill="#ff0000" opacity="1.00" d=" M 139.02 342.09 C 144.34 341.96 149.66 341.96 154.98 342.09 C 154.98 344.02 154.98 345.97 154.98 347.91 C 149.66 348.04 144.34 348.04 139.02 347.91 C 139.02 345.97 139.02 344.03 139.02 342.09 Z" />
<path fill="#ff0000" opacity="1.00" d=" M 424.02 342.09 C 429.34 341.96 434.66 341.96 439.98 342.09 C 439.98 344.02 439.98 345.97 439.98 347.91 C 434.66 348.04 429.34 348.04 424.02 347.91 C 424.01 345.97 424.02 344.02 424.02 342.09 Z" />
<path fill="#ff0000" opacity="1.00" d=" M 472.02 342.09 C 477.34 341.96 482.66 341.96 487.98 342.09 C 487.98 344.03 487.97 345.97 487.98 347.91 C 482.66 348.04 477.34 348.04 472.02 347.91 C 472.01 345.97 472.01 344.03 472.02 342.09 Z" />
<path fill="#ff0000" opacity="1.00" d=" M 520.02 342.09 C 525.34 341.96 530.66 341.96 535.98 342.08 C 535.97 344.02 535.97 345.97 535.98 347.91 C 530.66 348.04 525.34 348.04 520.02 347.91 C 520.01 345.97 520.01 344.03 520.02 342.09 Z" />
</g>
</svg>
