<?xml version="1.0" encoding="UTF-8" ?>
<!DOCTYPE svg PUBLIC "-//W3C//DTD SVG 1.1//EN" "http://www.w3.org/Graphics/SVG/1.1/DTD/svg11.dtd">
<svg width="896pt" height="941pt" viewBox="0 0 896 941" version="1.1" xmlns="http://www.w3.org/2000/svg">
<path fill="#ffffff" opacity="1.00" d=" M 0.00 0.00 L 488.47 0.00 C 456.70 11.69 423.72 19.66 390.65 26.72 C 354.49 34.63 317.85 41.62 283.29 55.25 C 273.75 59.11 264.27 63.24 255.33 68.36 C 241.13 76.60 229.33 88.29 218.59 100.56 C 204.91 116.24 192.15 132.71 178.10 148.07 C 164.05 163.67 149.21 178.53 134.44 193.43 C 112.21 215.53 91.00 239.15 75.63 266.65 C 74.09 269.34 72.63 272.08 71.08 274.76 C 68.47 272.87 65.73 270.71 64.80 267.48 C 63.08 261.40 65.76 255.16 64.84 249.02 C 64.56 246.79 62.61 245.42 61.16 243.94 C 57.99 261.29 56.16 278.90 52.09 296.09 C 48.92 309.29 44.65 322.56 36.66 333.70 C 34.84 336.32 32.48 338.52 30.64 341.13 C 29.89 355.53 35.97 369.03 38.19 383.03 C 39.96 393.29 36.82 404.18 30.22 412.16 C 26.84 413.70 22.08 413.45 19.67 410.31 C 17.31 407.43 16.97 403.53 16.62 399.97 C 15.83 385.32 19.77 370.56 16.92 356.00 C 16.20 351.74 13.63 348.09 10.13 345.64 C 10.09 405.15 5.59 464.53 3.30 523.97 C 1.80 569.48 1.52 615.31 8.45 660.44 C 12.09 684.11 17.71 707.53 26.03 730.01 C 36.43 756.85 57.78 777.57 69.02 803.98 C 82.53 837.99 82.69 875.39 93.98 910.01 C 97.85 921.20 103.20 932.10 111.12 941.00 L 0.00 941.00 L 0.00 0.00 Z" />
<path fill="#000000" opacity="1.00" d=" M 488.47 0.00 L 570.18 0.00 C 570.23 1.62 570.24 3.25 570.26 4.87 C 603.43 22.95 634.08 45.53 661.49 71.51 C 703.96 111.53 738.84 158.80 770.22 207.79 C 771.69 210.38 774.12 212.76 774.00 215.94 C 774.50 237.62 780.57 258.84 789.70 278.40 C 806.79 315.17 832.79 346.85 850.91 383.05 C 857.71 396.40 863.30 410.40 867.09 424.90 C 870.80 439.09 872.24 453.73 873.25 468.33 C 874.95 494.19 874.59 520.13 875.45 546.02 C 876.36 562.77 876.01 579.55 875.11 596.29 C 873.99 623.84 871.86 652.06 879.15 679.00 C 882.39 691.18 888.09 702.71 896.00 712.53 L 896.00 733.04 C 894.06 733.46 890.66 732.41 890.37 735.25 C 878.21 775.23 863.80 814.56 846.70 852.70 C 832.97 883.07 817.70 912.83 799.85 941.00 L 794.17 941.00 C 801.63 902.66 815.37 865.92 829.69 829.71 C 837.83 809.59 848.88 790.85 858.51 771.45 C 862.91 762.24 867.44 752.94 869.68 742.92 C 871.92 732.22 869.56 721.16 865.84 711.07 C 861.79 699.85 856.31 688.92 855.11 676.90 C 850.87 636.06 852.54 594.96 853.01 554.00 C 852.79 526.57 852.23 498.85 845.88 472.02 C 843.66 461.35 837.21 452.34 832.11 442.92 C 823.83 428.89 819.20 413.15 814.29 397.73 C 806.54 372.67 799.63 347.35 791.43 322.44 C 786.09 307.30 781.21 291.56 771.48 278.56 C 759.31 261.87 742.09 249.35 731.48 231.46 C 725.50 221.51 722.55 209.93 722.71 198.35 C 728.63 198.64 734.68 200.78 738.60 205.39 C 746.92 214.87 747.90 228.45 755.79 238.21 C 757.81 240.86 760.67 242.68 763.56 244.27 C 761.94 229.28 753.55 216.20 744.25 204.77 C 732.66 190.34 719.12 177.35 709.66 161.33 C 700.28 145.63 693.55 128.52 684.23 112.80 C 675.56 98.02 663.34 85.71 650.41 74.63 C 634.47 61.09 617.07 49.27 598.68 39.30 C 583.71 31.36 568.07 24.27 551.40 20.81 C 524.89 15.71 497.56 16.96 471.01 21.14 C 431.84 27.28 394.05 39.63 355.82 49.82 C 364.55 49.41 373.29 48.53 382.04 49.22 C 410.38 50.37 437.59 60.24 465.98 60.92 C 477.11 61.08 488.24 59.39 498.82 55.94 C 504.09 64.22 514.00 67.45 523.25 68.60 C 540.25 70.90 557.51 68.97 574.49 71.45 C 582.38 72.61 590.51 75.22 596.00 81.33 C 572.54 88.84 547.42 91.00 522.99 87.99 C 497.83 84.95 473.55 77.36 448.75 72.42 C 434.00 69.36 419.07 67.19 404.05 66.04 C 371.59 63.35 338.77 60.80 306.35 65.33 C 293.12 67.35 279.68 70.21 267.97 76.98 C 254.12 84.93 242.16 95.68 230.69 106.68 C 192.06 145.23 160.07 189.65 126.63 232.60 C 120.49 240.41 114.44 248.36 107.43 255.44 C 96.80 266.80 85.03 277.16 75.56 289.58 C 70.78 295.94 66.37 302.91 64.88 310.86 C 62.73 322.46 64.32 334.29 64.00 346.00 C 64.29 360.35 63.04 375.07 57.46 388.45 C 51.21 404.41 40.53 418.50 36.29 435.26 C 33.03 453.32 32.13 471.72 31.84 490.04 C 31.76 538.66 38.62 587.03 48.29 634.60 C 56.29 673.00 65.93 711.09 77.67 748.53 C 83.99 768.16 91.21 787.52 99.80 806.28 C 108.74 825.42 118.90 844.22 132.52 860.48 C 141.20 870.97 151.85 880.04 164.37 885.60 C 180.98 893.46 199.61 896.21 215.69 905.30 C 226.21 911.13 234.80 920.49 239.36 931.66 C 206.46 921.81 174.64 907.42 146.69 887.32 C 129.23 874.72 113.47 859.72 100.43 842.56 C 97.52 838.79 94.94 834.78 91.94 831.08 C 91.03 849.22 93.75 867.49 99.24 884.77 C 105.66 904.79 116.21 923.12 127.07 941.00 L 111.12 941.00 C 103.20 932.10 97.85 921.20 93.98 910.01 C 82.69 875.39 82.53 837.99 69.02 803.98 C 57.78 777.57 36.43 756.85 26.03 730.01 C 17.71 707.53 12.09 684.11 8.45 660.44 C 1.52 615.31 1.80 569.48 3.30 523.97 C 5.59 464.53 10.09 405.15 10.13 345.64 C 13.63 348.09 16.20 351.74 16.92 356.00 C 19.77 370.56 15.83 385.32 16.62 399.97 C 16.97 403.53 17.31 407.43 19.67 410.31 C 22.08 413.45 26.84 413.70 30.22 412.16 C 36.82 404.18 39.96 393.29 38.19 383.03 C 35.97 369.03 29.89 355.53 30.64 341.13 C 32.48 338.52 34.84 336.32 36.66 333.70 C 44.65 322.56 48.92 309.29 52.09 296.09 C 56.16 278.90 57.99 261.29 61.16 243.94 C 62.61 245.42 64.56 246.79 64.84 249.02 C 65.76 255.16 63.08 261.40 64.80 267.48 C 65.73 270.71 68.47 272.87 71.08 274.76 C 72.63 272.08 74.09 269.34 75.63 266.65 C 91.00 239.15 112.21 215.53 134.44 193.43 C 149.21 178.53 164.05 163.67 178.10 148.07 C 192.15 132.71 204.91 116.24 218.59 100.56 C 229.33 88.29 241.13 76.60 255.33 68.36 C 264.27 63.24 273.75 59.11 283.29 55.25 C 317.85 41.62 354.49 34.63 390.65 26.72 C 423.72 19.66 456.70 11.69 488.47 0.00 M 824.98 382.04 C 830.16 407.20 843.51 429.45 854.91 452.13 C 854.10 437.40 852.44 422.50 847.65 408.48 C 843.77 397.25 836.23 386.72 824.98 382.04 M 25.44 617.55 C 24.39 630.03 24.92 642.59 26.05 655.04 C 28.16 676.17 32.15 697.16 38.53 717.43 C 42.66 730.15 47.60 742.80 55.12 753.94 C 59.19 759.78 64.11 765.48 70.81 768.34 C 55.00 730.87 45.02 691.35 34.86 652.07 C 31.69 640.58 29.22 628.86 25.44 617.55 Z" />
<path fill="#ffffff" opacity="1.00" d=" M 570.18 0.00 L 896.00 0.00 L 896.00 712.53 C 888.09 702.71 882.39 691.18 879.15 679.00 C 871.86 652.06 873.99 623.84 875.11 596.29 C 876.01 579.55 876.36 562.77 875.45 546.02 C 874.59 520.13 874.95 494.19 873.25 468.33 C 872.24 453.73 870.80 439.09 867.09 424.90 C 863.30 410.40 857.71 396.40 850.91 383.05 C 832.79 346.85 806.79 315.17 789.70 278.40 C 780.57 258.84 774.50 237.62 774.00 215.94 C 774.12 212.76 771.69 210.38 770.22 207.79 C 738.84 158.80 703.96 111.53 661.49 71.51 C 634.08 45.53 603.43 22.95 570.26 4.87 C 570.24 3.25 570.23 1.62 570.18 0.00 Z" />
<path fill="#ffffff" opacity="1.00" d=" M 471.01 21.14 C 497.56 16.96 524.89 15.71 551.40 20.81 C 568.07 24.27 583.71 31.36 598.68 39.30 C 617.07 49.27 634.47 61.09 650.41 74.63 C 663.34 85.71 675.56 98.02 684.23 112.80 C 693.55 128.52 700.28 145.63 709.66 161.33 C 719.12 177.35 732.66 190.34 744.25 204.77 C 753.55 216.20 761.94 229.28 763.56 244.27 C 760.67 242.68 757.81 240.86 755.79 238.21 C 747.90 228.45 746.92 214.87 738.60 205.39 C 734.68 200.78 728.63 198.64 722.71 198.35 C 722.55 209.93 725.50 221.51 731.48 231.46 C 742.09 249.35 759.31 261.87 771.48 278.56 C 781.21 291.56 786.09 307.30 791.43 322.44 C 799.63 347.35 806.54 372.67 814.29 397.73 C 819.20 413.15 823.83 428.89 832.11 442.92 C 837.21 452.34 843.66 461.35 845.88 472.02 C 852.23 498.85 852.79 526.57 853.01 554.00 C 852.54 594.96 850.87 636.06 855.11 676.90 C 856.31 688.92 861.79 699.85 865.84 711.07 C 869.56 721.16 871.92 732.22 869.68 742.92 C 867.44 752.94 862.91 762.24 858.51 771.45 C 848.88 790.85 837.83 809.59 829.69 829.71 C 815.37 865.92 801.63 902.66 794.17 941.00 L 127.07 941.00 C 116.21 923.12 105.66 904.79 99.24 884.77 C 93.75 867.49 91.03 849.22 91.94 831.08 C 94.94 834.78 97.52 838.79 100.43 842.56 C 113.47 859.72 129.23 874.72 146.69 887.32 C 174.64 907.42 206.46 921.81 239.36 931.66 C 234.80 920.49 226.21 911.13 215.69 905.30 C 199.61 896.21 180.98 893.46 164.37 885.60 C 151.85 880.04 141.20 870.97 132.52 860.48 C 118.90 844.22 108.74 825.42 99.80 806.28 C 91.21 787.52 83.99 768.16 77.67 748.53 C 65.93 711.09 56.29 673.00 48.29 634.60 C 38.62 587.03 31.76 538.66 31.84 490.04 C 32.13 471.72 33.03 453.32 36.29 435.26 C 40.53 418.50 51.21 404.41 57.46 388.45 C 63.04 375.07 64.29 360.35 64.00 346.00 C 64.32 334.29 62.73 322.46 64.88 310.86 C 66.37 302.91 70.78 295.94 75.56 289.58 C 85.03 277.16 96.80 266.80 107.43 255.44 C 114.44 248.36 120.49 240.41 126.63 232.60 C 160.07 189.65 192.06 145.23 230.69 106.68 C 242.16 95.68 254.12 84.93 267.97 76.98 C 279.68 70.21 293.12 67.35 306.35 65.33 C 338.77 60.80 371.59 63.35 404.05 66.04 C 419.07 67.19 434.00 69.36 448.75 72.42 C 473.55 77.36 497.83 84.95 522.99 87.99 C 547.42 91.00 572.54 88.84 596.00 81.33 C 590.51 75.22 582.38 72.61 574.49 71.45 C 557.51 68.97 540.25 70.90 523.25 68.60 C 514.00 67.45 504.09 64.22 498.82 55.94 C 488.24 59.39 477.11 61.08 465.98 60.92 C 437.59 60.24 410.38 50.37 382.04 49.22 C 373.29 48.53 364.55 49.41 355.82 49.82 C 394.05 39.63 431.84 27.28 471.01 21.14 M 565.46 157.41 C 564.58 160.56 562.81 163.30 560.99 165.96 C 559.39 168.12 559.78 170.89 559.74 173.40 C 566.99 174.71 572.39 168.62 579.08 167.28 C 582.56 166.61 584.32 170.24 585.35 172.90 C 561.36 188.92 536.17 204.03 516.61 225.59 C 502.98 240.39 492.84 258.46 487.85 277.98 C 483.45 295.17 482.16 313.14 483.60 330.79 C 486.11 338.47 490.35 345.49 494.69 352.27 C 506.86 370.40 522.85 385.72 540.43 398.56 C 568.52 418.99 601.07 433.63 635.34 439.72 C 661.80 444.26 689.65 443.32 715.01 433.98 C 727.42 429.72 737.31 420.43 745.58 410.55 C 755.57 398.24 763.74 384.09 767.48 368.59 C 769.45 360.40 769.07 351.80 767.23 343.62 C 763.10 324.38 756.04 305.89 748.03 287.97 C 739.00 268.23 728.40 249.11 715.15 231.88 C 706.76 220.06 692.35 214.83 682.85 204.12 C 675.73 195.93 668.75 187.60 660.94 180.06 C 647.75 166.65 631.58 155.06 612.78 151.47 C 596.84 148.32 580.36 151.45 565.46 157.41 M 210.23 284.26 C 181.84 291.31 155.82 307.76 137.55 330.62 C 130.78 343.36 126.72 357.58 125.53 371.96 C 123.70 395.24 129.28 418.13 133.07 440.93 C 135.89 458.38 138.06 476.10 137.22 493.80 C 150.85 509.69 169.34 521.23 189.57 526.60 C 212.32 532.79 236.38 532.59 259.60 529.53 C 281.13 505.71 307.17 486.52 329.03 463.03 C 342.36 448.70 353.90 432.42 361.15 414.15 C 369.55 393.55 372.50 371.03 371.86 348.89 C 372.22 345.40 369.58 342.85 367.81 340.18 C 351.48 317.33 327.95 300.01 301.77 290.04 C 272.78 278.95 240.37 276.62 210.23 284.26 M 612.62 667.66 C 585.48 686.65 559.27 706.94 532.58 726.56 C 518.30 736.92 502.94 746.37 485.68 750.74 C 462.93 756.60 439.13 755.43 415.93 753.64 C 388.26 751.02 360.36 748.77 333.38 741.76 C 318.06 737.64 302.75 731.84 290.41 721.62 C 279.51 712.80 272.00 699.89 269.81 686.04 C 269.36 675.85 273.94 665.47 270.52 655.42 C 268.94 650.60 264.41 647.68 259.77 646.27 C 253.46 656.28 250.14 668.17 250.23 680.00 C 250.30 695.80 256.48 710.93 264.96 724.04 C 273.31 736.79 283.63 748.18 294.92 758.40 C 280.83 775.89 274.27 798.11 271.05 820.01 C 268.06 841.94 268.66 864.61 274.78 885.97 C 287.62 891.80 301.74 895.71 315.94 894.41 C 328.42 893.42 340.36 887.99 349.71 879.73 C 362.59 868.50 371.26 853.28 377.57 837.59 C 386.14 815.71 390.68 792.36 392.04 768.94 C 409.63 773.52 427.93 773.99 446.00 774.26 C 465.35 774.39 484.70 773.19 504.04 774.06 C 541.75 736.22 592.47 715.50 632.27 680.27 C 646.30 667.75 658.85 653.18 667.13 636.18 C 647.97 644.81 629.89 655.71 612.62 667.66 Z" />
<path fill="#000000" opacity="1.00" d=" M 565.46 157.41 C 580.36 151.45 596.84 148.32 612.78 151.47 C 631.58 155.06 647.75 166.65 660.94 180.06 C 668.75 187.60 675.73 195.93 682.85 204.12 C 692.35 214.83 706.76 220.06 715.15 231.88 C 728.40 249.11 739.00 268.23 748.03 287.97 C 756.04 305.89 763.10 324.38 767.23 343.62 C 769.07 351.80 769.45 360.40 767.48 368.59 C 763.74 384.09 755.57 398.24 745.58 410.55 C 737.31 420.43 727.42 429.72 715.01 433.98 C 689.65 443.32 661.80 444.26 635.34 439.72 C 601.07 433.63 568.52 418.99 540.43 398.56 C 522.85 385.72 506.86 370.40 494.69 352.27 C 490.35 345.49 486.11 338.47 483.60 330.79 C 482.16 313.14 483.45 295.17 487.85 277.98 C 492.84 258.46 502.98 240.39 516.61 225.59 C 536.17 204.03 561.36 188.92 585.35 172.90 C 584.32 170.24 582.56 166.61 579.08 167.28 C 572.39 168.62 566.99 174.71 559.74 173.40 C 559.78 170.89 559.39 168.12 560.99 165.96 C 562.81 163.30 564.58 160.56 565.46 157.41 M 540.59 222.61 C 524.90 236.86 510.34 252.98 501.13 272.26 C 494.00 287.11 490.75 304.37 494.66 320.58 C 498.29 334.12 508.59 344.24 518.37 353.66 C 530.29 364.89 542.81 376.38 549.52 391.66 C 552.27 392.56 555.29 391.01 557.91 390.08 C 567.43 386.04 572.09 375.97 580.65 370.63 C 585.15 367.73 590.71 366.24 596.05 366.91 C 603.67 368.90 610.51 373.42 615.79 379.21 C 626.59 391.44 631.28 407.48 636.24 422.67 C 656.37 424.12 676.84 423.97 696.60 419.43 C 711.03 416.03 725.40 409.73 735.39 398.42 C 745.18 387.51 749.45 372.48 749.02 358.00 C 748.97 337.03 741.84 316.78 733.02 298.00 C 724.33 279.86 713.42 262.81 700.90 247.07 C 686.32 228.45 671.83 209.67 655.33 192.67 C 645.24 182.81 634.50 172.83 621.07 167.81 C 592.51 183.31 564.90 200.94 540.59 222.61 M 585.53 386.83 C 585.31 391.94 580.50 394.23 577.02 397.00 C 573.91 399.53 574.26 403.90 575.10 407.41 C 587.91 407.73 598.21 417.34 611.03 417.59 C 611.24 411.01 610.26 404.07 606.38 398.58 C 601.66 391.72 593.46 388.29 585.53 386.83 Z" />
<path fill="#ffffff" opacity="1.00" d=" M 540.59 222.61 C 564.90 200.94 592.51 183.31 621.07 167.81 C 634.50 172.83 645.24 182.81 655.33 192.67 C 671.83 209.67 686.32 228.45 700.90 247.07 C 713.42 262.81 724.33 279.86 733.02 298.00 C 741.84 316.78 748.97 337.03 749.02 358.00 C 749.45 372.48 745.18 387.51 735.39 398.42 C 725.40 409.73 711.03 416.03 696.60 419.43 C 676.84 423.97 656.37 424.12 636.24 422.67 C 631.28 407.48 626.59 391.44 615.79 379.21 C 610.51 373.42 603.67 368.90 596.05 366.91 C 590.71 366.24 585.15 367.73 580.65 370.63 C 572.09 375.97 567.43 386.04 557.91 390.08 C 555.29 391.01 552.27 392.56 549.52 391.66 C 542.81 376.38 530.29 364.89 518.37 353.66 C 508.59 344.24 498.29 334.12 494.66 320.58 C 490.75 304.37 494.00 287.11 501.13 272.26 C 510.34 252.98 524.90 236.86 540.59 222.61 Z" />
<path fill="#000000" opacity="1.00" d=" M 210.23 284.26 C 240.37 276.62 272.78 278.95 301.77 290.04 C 327.95 300.01 351.48 317.33 367.81 340.18 C 369.58 342.85 372.22 345.40 371.86 348.89 C 372.50 371.03 369.55 393.55 361.15 414.15 C 353.90 432.42 342.36 448.70 329.03 463.03 C 307.17 486.52 281.13 505.71 259.60 529.53 C 236.38 532.59 212.32 532.79 189.57 526.60 C 169.34 521.23 150.85 509.69 137.22 493.80 C 138.06 476.10 135.89 458.38 133.07 440.93 C 129.28 418.13 123.70 395.24 125.53 371.96 C 126.72 357.58 130.78 343.36 137.55 330.62 C 155.82 307.76 181.84 291.31 210.23 284.26 M 210.27 296.30 C 200.28 300.44 190.94 306.02 181.84 311.85 C 171.98 318.40 162.02 325.15 154.05 334.01 C 144.66 345.78 142.02 361.31 141.36 375.96 C 140.68 395.34 143.61 414.67 147.65 433.58 C 150.27 446.24 149.87 459.23 150.55 472.08 C 150.86 476.19 151.05 480.47 152.86 484.26 C 158.84 497.00 170.31 506.68 183.39 511.60 C 202.80 519.05 224.38 518.56 244.47 514.34 C 244.72 500.96 243.53 487.24 247.39 474.24 C 249.24 467.87 253.01 461.68 259.08 458.60 C 262.05 458.32 265.04 458.91 268.02 458.76 C 277.07 458.71 285.65 455.54 294.40 453.66 C 301.44 452.06 308.74 452.24 315.86 453.16 C 323.05 444.52 330.19 435.82 336.65 426.62 C 346.59 412.44 356.04 397.47 360.82 380.69 C 363.20 371.59 363.96 360.86 358.14 352.86 C 352.96 345.72 344.16 342.56 335.84 340.84 C 334.95 344.47 333.89 349.09 337.03 351.96 C 341.88 355.88 348.98 354.36 354.03 357.91 C 356.75 359.77 356.50 363.31 356.59 366.21 C 347.49 368.70 335.97 368.41 329.52 360.54 C 320.52 349.36 320.94 333.75 312.94 322.02 C 310.75 318.89 307.72 316.32 304.14 314.92 C 287.12 308.15 270.61 299.82 252.76 295.36 C 238.88 291.95 223.89 291.50 210.27 296.30 M 265.03 478.37 C 265.87 485.63 263.32 492.79 264.17 500.04 C 264.34 502.79 266.92 503.98 269.23 504.64 C 270.92 501.60 272.24 498.26 274.82 495.83 C 281.10 489.75 290.19 487.60 296.21 481.19 C 298.35 479.10 299.52 476.29 300.73 473.61 C 295.67 472.16 290.29 472.30 285.14 473.14 C 278.31 474.37 271.91 477.35 265.03 478.37 Z" />
<path fill="#ffffff" opacity="1.00" d=" M 210.27 296.30 C 223.89 291.50 238.88 291.95 252.76 295.36 C 270.61 299.82 287.12 308.15 304.14 314.92 C 307.72 316.32 310.75 318.89 312.94 322.02 C 320.94 333.75 320.52 349.36 329.52 360.54 C 335.97 368.41 347.49 368.70 356.59 366.21 C 356.50 363.31 356.75 359.77 354.03 357.91 C 348.98 354.36 341.88 355.88 337.03 351.96 C 333.89 349.09 334.95 344.47 335.84 340.84 C 344.16 342.56 352.96 345.72 358.14 352.86 C 363.96 360.86 363.20 371.59 360.82 380.69 C 356.04 397.47 346.59 412.44 336.65 426.62 C 330.19 435.82 323.05 444.52 315.86 453.16 C 308.74 452.24 301.44 452.06 294.40 453.66 C 285.65 455.54 277.07 458.71 268.02 458.76 C 265.04 458.91 262.05 458.32 259.08 458.60 C 253.01 461.68 249.24 467.87 247.39 474.24 C 243.53 487.24 244.72 500.96 244.47 514.34 C 224.38 518.56 202.80 519.05 183.39 511.60 C 170.31 506.68 158.84 497.00 152.86 484.26 C 151.05 480.47 150.86 476.19 150.55 472.08 C 149.87 459.23 150.27 446.24 147.65 433.58 C 143.61 414.67 140.68 395.34 141.36 375.96 C 142.02 361.31 144.66 345.78 154.05 334.01 C 162.02 325.15 171.98 318.40 181.84 311.85 C 190.94 306.02 200.28 300.44 210.27 296.30 Z" />
<path fill="#ffffff" opacity="1.00" d=" M 824.98 382.04 C 836.23 386.72 843.77 397.25 847.65 408.48 C 852.44 422.50 854.10 437.40 854.91 452.13 C 843.51 429.45 830.16 407.20 824.98 382.04 Z" />
<path fill="#ffffff" opacity="1.00" d=" M 585.53 386.83 C 593.46 388.29 601.66 391.72 606.38 398.58 C 610.26 404.07 611.24 411.01 611.03 417.59 C 598.21 417.34 587.91 407.73 575.10 407.41 C 574.26 403.90 573.91 399.53 577.02 397.00 C 580.50 394.23 585.31 391.94 585.53 386.83 Z" />
<path fill="#ffffff" opacity="1.00" d=" M 265.03 478.37 C 271.91 477.35 278.31 474.37 285.14 473.14 C 290.29 472.30 295.67 472.16 300.73 473.61 C 299.52 476.29 298.35 479.10 296.21 481.19 C 290.19 487.60 281.10 489.75 274.82 495.83 C 272.24 498.26 270.92 501.60 269.23 504.64 C 266.92 503.98 264.34 502.79 264.17 500.04 C 263.32 492.79 265.87 485.63 265.03 478.37 Z" />
<path fill="#ffffff" opacity="1.00" d=" M 25.44 617.55 C 29.22 628.86 31.69 640.58 34.86 652.07 C 45.02 691.35 55.00 730.87 70.81 768.34 C 64.11 765.48 59.19 759.78 55.12 753.94 C 47.60 742.80 42.66 730.15 38.53 717.43 C 32.15 697.16 28.16 676.17 26.05 655.04 C 24.92 642.59 24.39 630.03 25.44 617.55 Z" />
<path fill="#000000" opacity="1.00" d=" M 612.62 667.66 C 629.89 655.71 647.97 644.81 667.13 636.18 C 658.85 653.18 646.30 667.75 632.27 680.27 C 592.47 715.50 541.75 736.22 504.04 774.06 C 484.70 773.19 465.35 774.39 446.00 774.26 C 427.93 773.99 409.63 773.52 392.04 768.94 C 390.68 792.36 386.14 815.71 377.57 837.59 C 371.26 853.28 362.59 868.50 349.71 879.73 C 340.36 887.99 328.42 893.42 315.94 894.41 C 301.74 895.71 287.62 891.80 274.78 885.97 C 268.66 864.61 268.06 841.94 271.05 820.01 C 274.27 798.11 280.83 775.89 294.92 758.40 C 283.63 748.18 273.31 736.79 264.96 724.04 C 256.48 710.93 250.30 695.80 250.23 680.00 C 250.14 668.17 253.46 656.28 259.77 646.27 C 264.41 647.68 268.94 650.60 270.52 655.42 C 273.94 665.47 269.36 675.85 269.81 686.04 C 272.00 699.89 279.51 712.80 290.41 721.62 C 302.75 731.84 318.06 737.64 333.38 741.76 C 360.36 748.77 388.26 751.02 415.93 753.64 C 439.13 755.43 462.93 756.60 485.68 750.74 C 502.94 746.37 518.30 736.92 532.58 726.56 C 559.27 706.94 585.48 686.65 612.62 667.66 M 313.13 770.16 C 302.99 779.41 297.23 792.42 293.66 805.45 C 287.59 828.33 287.36 852.43 290.11 875.83 C 306.10 875.39 322.58 872.15 336.00 863.01 C 349.25 854.28 358.16 840.30 363.33 825.52 C 369.61 807.23 371.57 787.72 371.69 768.47 C 362.68 764.10 353.10 760.44 343.01 759.93 C 332.19 759.10 321.14 762.82 313.13 770.16 Z" />
<path fill="#ffffff" opacity="1.00" d=" M 890.37 735.25 C 890.66 732.41 894.06 733.46 896.00 733.04 L 896.00 941.00 L 799.85 941.00 C 817.70 912.83 832.97 883.07 846.70 852.70 C 863.80 814.56 878.21 775.23 890.37 735.25 Z" />
<path fill="#ffffff" opacity="1.00" d=" M 313.13 770.16 C 321.14 762.82 332.19 759.10 343.01 759.93 C 353.10 760.44 362.68 764.10 371.69 768.47 C 371.57 787.72 369.61 807.23 363.33 825.52 C 358.16 840.30 349.25 854.28 336.00 863.01 C 322.58 872.15 306.10 875.39 290.11 875.83 C 287.36 852.43 287.59 828.33 293.66 805.45 C 297.23 792.42 302.99 779.41 313.13 770.16 Z" />
</svg>
