<?xml version="1.0" encoding="UTF-8" ?>
<!DOCTYPE svg PUBLIC "-//W3C//DTD SVG 1.1//EN" "http://www.w3.org/Graphics/SVG/1.1/DTD/svg11.dtd">
<svg width="198pt" height="237pt" viewBox="0 0 198 237" version="1.1" xmlns="http://www.w3.org/2000/svg">
<path fill="#fbfbfb" opacity="1.00" d=" M 0.00 0.00 L 0.17 0.00 C 0.13 0.04 0.04 0.13 0.00 0.17 L 0.00 0.00 Z" />
<path fill="#ffffff" opacity="1.00" d=" M 0.17 0.00 L 198.00 0.00 L 198.00 237.00 L 113.69 237.00 C 113.48 226.33 113.72 215.66 113.52 204.99 C 113.59 203.10 113.39 201.13 114.06 199.32 C 118.32 196.86 122.22 193.50 127.12 192.35 C 131.73 191.15 135.87 188.56 139.47 185.51 C 139.87 183.24 137.52 182.19 135.93 181.24 C 130.84 178.47 125.38 175.95 121.53 171.48 C 118.81 168.32 115.98 165.23 113.60 161.80 C 120.99 160.76 128.61 161.63 135.91 159.66 C 144.34 157.25 152.58 153.13 158.42 146.43 C 161.61 142.65 165.05 138.97 167.27 134.50 C 169.60 129.79 172.10 125.14 173.99 120.22 C 175.98 116.14 178.46 112.22 179.46 107.73 C 180.81 101.58 181.98 95.32 181.80 88.99 C 181.53 82.22 182.48 75.25 180.20 68.72 C 179.98 66.90 179.80 65.08 179.57 63.26 C 179.21 58.19 177.58 53.35 176.36 48.44 C 175.71 45.84 174.77 43.24 172.98 41.19 C 167.78 35.92 161.76 31.39 155.28 27.81 C 149.97 25.01 143.97 23.98 138.47 21.66 C 129.90 18.22 120.50 17.65 111.39 18.48 C 104.60 19.18 97.72 19.31 91.05 20.88 C 83.91 22.61 77.06 25.35 70.44 28.50 C 64.88 31.15 58.64 32.69 53.93 36.84 C 50.30 39.93 47.17 43.58 44.42 47.46 C 41.87 51.01 40.88 55.59 37.64 58.65 C 34.38 60.21 29.83 59.26 27.53 62.64 C 26.02 64.13 27.15 66.31 27.18 68.10 C 27.62 70.67 26.61 73.15 26.40 75.69 C 27.75 77.65 30.53 78.22 31.86 80.25 C 32.60 84.14 32.10 88.14 32.30 92.07 C 32.69 102.61 36.36 112.61 39.74 122.48 C 41.89 128.82 44.97 134.79 48.62 140.38 C 50.71 143.44 52.34 147.19 55.84 148.89 C 64.64 153.35 73.23 159.07 83.32 159.97 C 90.46 160.47 97.59 160.96 104.73 161.49 C 103.88 165.07 102.36 168.49 101.91 172.17 C 101.13 181.33 99.57 190.41 99.45 199.62 C 95.90 203.15 91.56 205.88 87.42 208.69 C 87.13 208.18 86.56 207.17 86.27 206.67 C 87.81 202.83 90.64 199.78 92.89 196.39 C 90.05 195.21 87.15 194.02 84.09 193.59 C 82.30 193.81 80.67 194.70 79.01 195.35 C 76.49 195.43 73.84 195.66 71.49 194.56 C 67.90 193.12 64.31 190.81 60.28 191.40 C 58.05 192.28 56.53 194.30 55.01 196.07 C 54.08 196.91 54.12 198.24 54.78 199.24 C 56.41 201.85 58.62 204.09 61.04 205.98 C 62.25 206.65 63.51 207.22 64.78 207.76 L 64.47 208.57 C 62.87 212.31 64.30 216.60 65.69 220.21 C 65.94 220.73 66.45 221.77 66.71 222.30 C 67.39 223.55 68.06 224.82 68.99 225.92 C 70.94 226.73 73.07 227.00 75.12 227.49 C 78.60 228.70 82.31 229.69 86.02 229.03 C 87.17 228.80 88.67 228.49 88.70 227.04 C 88.21 226.27 87.62 225.58 86.99 224.93 C 85.85 223.72 84.65 222.56 83.46 221.41 C 84.33 219.37 85.02 217.18 86.48 215.45 C 88.27 213.67 90.75 212.87 92.94 211.71 C 95.56 210.46 97.84 208.66 100.25 207.08 C 100.53 210.73 100.38 214.41 99.97 218.05 C 99.26 224.36 98.79 230.71 97.83 237.00 L 0.00 237.00 L 0.00 0.17 C 0.04 0.13 0.13 0.04 0.17 0.00 Z" />
<path fill="#010101" opacity="1.00" d=" M 111.39 18.48 C 120.50 17.65 129.90 18.22 138.47 21.66 C 143.97 23.98 149.97 25.01 155.28 27.81 C 161.76 31.39 167.78 35.92 172.98 41.19 C 175.71 48.39 176.48 56.18 179.57 63.26 C 179.80 65.08 179.98 66.90 180.20 68.72 C 180.12 77.97 182.72 87.29 180.51 96.45 C 179.27 101.58 178.99 106.97 176.87 111.85 C 175.70 114.57 174.78 117.38 173.99 120.22 C 172.10 125.14 169.60 129.79 167.27 134.50 C 165.05 138.97 161.61 142.65 158.42 146.43 C 152.58 153.13 144.34 157.25 135.91 159.66 C 128.61 161.63 120.99 160.76 113.60 161.80 C 115.98 165.23 118.81 168.32 121.53 171.48 C 125.38 175.95 130.84 178.47 135.93 181.24 C 137.52 182.19 139.87 183.24 139.47 185.51 C 135.87 188.56 131.73 191.15 127.12 192.35 C 122.22 193.50 118.32 196.86 114.06 199.32 C 113.39 201.13 113.59 203.10 113.52 204.99 C 113.72 215.66 113.48 226.33 113.69 237.00 L 108.31 237.00 C 108.41 225.53 108.79 214.02 108.08 202.57 C 107.44 202.73 106.16 203.05 105.51 203.21 C 105.07 209.03 105.83 214.88 105.22 220.69 C 104.56 226.11 104.49 231.60 103.62 237.00 L 97.83 237.00 C 98.79 230.71 99.26 224.36 99.97 218.05 C 100.38 214.41 100.53 210.73 100.25 207.08 C 97.84 208.66 95.56 210.46 92.94 211.71 C 90.75 212.87 88.27 213.67 86.48 215.45 C 85.02 217.18 84.33 219.37 83.46 221.41 C 81.18 221.99 78.90 222.54 76.62 223.08 C 73.29 223.52 69.96 222.99 66.71 222.30 C 66.45 221.77 65.94 220.73 65.69 220.21 C 65.59 216.30 65.20 212.41 64.47 208.57 L 64.78 207.76 C 68.04 208.00 71.24 208.66 74.33 209.71 C 76.29 210.22 78.67 211.13 80.52 209.85 C 82.08 208.19 83.14 205.70 85.77 205.73 L 86.27 206.67 C 86.56 207.17 87.13 208.18 87.42 208.69 C 91.56 205.88 95.90 203.15 99.45 199.62 C 99.57 190.41 101.13 181.33 101.91 172.17 C 102.36 168.49 103.88 165.07 104.73 161.49 C 97.59 160.96 90.46 160.47 83.32 159.97 C 73.23 159.07 64.64 153.35 55.84 148.89 C 52.34 147.19 50.71 143.44 48.62 140.38 C 44.97 134.79 41.89 128.82 39.74 122.48 C 36.36 112.61 32.69 102.61 32.30 92.07 C 32.10 88.14 32.60 84.14 31.86 80.25 C 30.53 78.22 27.75 77.65 26.40 75.69 C 26.61 73.15 27.62 70.67 27.18 68.10 C 27.15 66.31 26.02 64.13 27.53 62.64 C 29.83 59.26 34.38 60.21 37.64 58.65 C 40.88 55.59 41.87 51.01 44.42 47.46 C 47.17 43.58 50.30 39.93 53.93 36.84 C 58.64 32.69 64.88 31.15 70.44 28.50 C 77.06 25.35 83.91 22.61 91.05 20.88 C 97.72 19.31 104.60 19.18 111.39 18.48 M 85.97 24.86 C 80.56 25.86 76.08 29.24 70.91 30.91 C 67.29 32.19 63.87 33.98 60.30 35.40 C 56.82 37.00 53.25 38.84 50.86 41.93 C 47.98 45.53 44.99 49.18 43.33 53.54 C 42.20 56.18 41.35 59.22 38.94 61.03 C 36.43 61.34 33.88 60.98 31.39 61.45 C 29.63 61.97 28.56 63.57 27.75 65.11 C 33.79 65.60 39.88 64.54 45.89 65.39 C 48.09 65.52 49.14 67.58 50.48 69.01 C 49.56 70.22 48.71 71.49 47.62 72.57 C 41.24 73.31 34.80 73.01 28.41 73.50 L 27.83 74.09 C 27.97 74.44 28.27 75.16 28.42 75.51 C 34.62 76.60 40.81 74.58 47.01 75.22 L 46.73 76.01 L 47.14 76.82 C 42.07 76.88 37.03 77.73 31.93 77.49 C 32.28 77.79 32.96 78.37 33.30 78.66 C 37.13 79.39 40.91 77.25 44.73 78.17 C 44.71 78.50 44.68 79.15 44.66 79.47 C 41.74 80.01 38.76 80.20 35.88 80.95 C 34.34 86.53 34.33 92.47 35.59 98.10 C 36.40 101.37 36.14 104.96 37.66 108.01 C 37.57 110.54 38.65 112.92 39.49 115.26 C 42.21 121.66 43.39 128.72 47.26 134.61 C 49.98 138.76 52.12 143.97 57.00 146.01 C 60.81 147.61 63.67 150.76 67.46 152.40 C 71.81 154.30 76.22 156.29 80.97 156.96 C 85.27 157.70 89.65 157.31 93.97 157.79 C 101.59 158.93 109.32 158.20 117.00 158.41 C 127.27 158.64 138.20 157.73 147.01 151.92 C 150.71 149.36 154.61 146.86 157.37 143.23 C 159.53 140.45 162.34 138.11 163.69 134.78 C 165.58 130.40 168.03 126.29 169.81 121.88 C 172.27 119.32 173.03 115.73 174.54 112.62 C 176.12 109.25 177.10 105.63 177.55 101.94 C 178.07 96.97 180.35 92.17 179.48 87.10 C 178.50 80.76 178.71 74.31 177.78 67.96 C 177.64 62.31 175.12 57.14 174.17 51.64 C 173.50 49.26 173.55 46.26 171.29 44.73 C 167.57 39.75 162.32 36.36 157.35 32.78 C 153.27 30.15 148.55 28.80 144.05 27.08 C 134.23 23.21 123.63 20.90 113.03 21.48 C 103.95 21.99 94.69 21.95 85.97 24.86 M 30.75 66.92 C 30.53 68.40 32.73 68.36 32.90 69.77 C 31.54 69.52 30.19 69.18 28.84 68.91 C 28.91 69.43 29.04 70.48 29.11 71.00 C 33.73 71.85 38.47 71.38 43.07 70.65 C 44.66 70.27 46.64 70.39 47.72 68.94 C 46.73 67.87 45.44 67.05 43.94 67.03 C 39.56 66.69 35.14 66.74 30.75 66.92 M 112.16 169.20 C 112.57 172.45 113.39 175.65 113.48 178.94 C 113.62 183.48 113.20 188.03 113.70 192.55 C 115.89 191.91 117.84 190.71 119.84 189.64 C 123.39 187.67 127.62 187.34 131.05 185.11 C 126.90 182.67 122.29 180.68 119.13 176.90 C 116.93 174.23 114.74 171.53 112.16 169.20 M 107.41 170.67 C 106.75 173.38 106.50 176.16 106.39 178.94 C 106.18 184.77 104.87 190.59 105.62 196.44 C 106.11 196.28 107.10 195.98 107.59 195.82 C 108.09 187.25 107.61 178.64 107.54 170.06 L 107.41 170.67 Z" />
<path fill="#fbfbfb" opacity="1.00" d=" M 85.97 24.86 C 94.69 21.95 103.95 21.99 113.03 21.48 C 123.63 20.90 134.23 23.21 144.05 27.08 C 148.55 28.80 153.27 30.15 157.35 32.78 C 162.32 36.36 167.57 39.75 171.29 44.73 C 175.72 60.94 179.99 77.75 177.87 94.68 C 176.87 100.69 176.14 106.87 173.51 112.44 C 172.09 115.51 170.88 118.67 169.81 121.88 C 168.03 126.29 165.58 130.40 163.69 134.78 C 162.34 138.11 159.53 140.45 157.37 143.23 C 154.61 146.86 150.71 149.36 147.01 151.92 C 138.20 157.73 127.27 158.64 117.00 158.41 C 109.32 158.20 101.59 158.93 93.97 157.79 C 89.65 157.31 85.27 157.70 80.97 156.96 C 76.22 156.29 71.81 154.30 67.46 152.40 C 63.67 150.76 60.81 147.61 57.00 146.01 C 52.12 143.97 49.98 138.76 47.26 134.61 C 43.39 128.72 42.21 121.66 39.49 115.26 C 38.65 112.92 37.57 110.54 37.66 108.01 C 41.75 106.91 42.73 102.23 45.84 99.86 C 48.46 97.94 51.60 96.91 54.46 95.42 C 58.22 93.57 61.47 90.89 64.91 88.55 C 67.29 88.64 69.67 88.70 72.04 88.68 C 70.28 87.68 68.52 86.53 68.28 84.33 C 66.96 82.15 65.15 80.33 63.47 78.44 C 61.13 75.85 57.76 74.66 54.75 73.09 C 53.76 70.16 54.07 64.96 49.76 65.10 C 49.96 65.60 50.37 66.61 50.58 67.12 C 50.63 67.23 50.73 67.47 50.78 67.58 L 51.06 68.21 L 50.48 69.01 C 49.14 67.58 48.09 65.52 45.89 65.39 C 39.88 64.54 33.79 65.60 27.75 65.11 C 28.56 63.57 29.63 61.97 31.39 61.45 C 33.88 60.98 36.43 61.34 38.94 61.03 C 41.35 59.22 42.20 56.18 43.33 53.54 C 44.99 49.18 47.98 45.53 50.86 41.93 C 53.25 38.84 56.82 37.00 60.30 35.40 C 63.87 33.98 67.29 32.19 70.91 30.91 C 76.08 29.24 80.56 25.86 85.97 24.86 M 103.61 59.19 C 102.78 58.00 101.33 58.60 100.75 59.69 C 99.47 62.28 99.25 65.36 100.18 68.09 C 100.50 70.30 101.60 72.31 103.12 73.94 C 103.19 75.28 103.00 76.88 104.17 77.85 C 106.16 79.30 108.76 79.37 111.09 79.88 C 114.09 80.30 116.96 81.42 119.97 81.69 C 127.67 81.39 135.28 79.47 142.29 76.30 C 143.84 75.62 144.49 73.95 145.20 72.55 C 147.03 73.03 149.09 73.90 150.81 72.66 C 148.84 71.55 146.81 70.54 144.67 69.78 C 146.15 69.50 147.63 69.26 149.12 69.01 C 151.33 69.44 150.85 66.42 148.95 66.65 C 148.88 66.39 148.74 65.86 148.67 65.60 C 150.23 65.03 151.71 64.26 153.10 63.35 C 150.98 63.28 148.85 63.34 146.73 63.46 C 145.51 62.34 144.37 59.63 142.43 61.14 C 138.59 59.15 134.19 59.66 130.05 59.15 C 122.91 58.30 115.73 59.16 108.58 58.88 C 110.28 57.94 112.09 57.22 113.85 56.41 C 110.39 54.13 105.82 56.06 103.61 59.19 M 55.42 99.59 C 53.72 100.26 52.06 101.33 51.17 102.99 C 51.75 104.16 52.76 105.43 54.21 105.40 C 57.36 105.61 60.52 105.34 63.67 105.53 C 63.57 106.11 63.36 107.28 63.25 107.87 C 61.33 110.24 57.94 109.26 55.39 110.38 C 53.64 113.36 54.75 117.28 57.90 118.74 C 59.72 116.62 56.17 115.06 56.58 112.85 C 64.65 112.14 72.82 112.85 80.86 111.76 C 81.74 106.31 75.75 102.95 71.05 102.76 C 65.56 101.91 60.15 103.98 54.68 103.18 C 55.89 101.75 58.21 101.10 58.81 99.27 C 57.66 99.19 56.53 99.30 55.42 99.59 M 80.08 99.28 C 81.61 101.02 83.69 102.25 84.95 104.22 C 86.43 107.22 84.71 110.36 83.87 113.27 C 85.13 112.54 86.70 111.97 87.37 110.57 C 88.07 108.34 87.87 105.87 87.13 103.68 C 85.74 101.15 83.08 99.14 80.08 99.28 M 59.36 124.10 C 59.23 125.92 59.08 127.80 59.54 129.60 C 62.84 132.80 67.82 132.44 72.06 132.34 C 75.24 132.17 78.96 130.01 79.32 126.59 C 76.34 127.56 74.51 131.05 71.08 130.76 C 67.92 130.72 64.28 131.39 61.56 129.37 C 59.72 128.21 61.53 124.88 59.36 124.10 Z" />
<path fill="#818181" opacity="1.00" d=" M 172.98 41.19 C 174.77 43.24 175.71 45.84 176.36 48.44 C 177.58 53.35 179.21 58.19 179.57 63.26 C 176.48 56.18 175.71 48.39 172.98 41.19 Z" />
<path fill="#7d7d7d" opacity="1.00" d=" M 171.29 44.73 C 173.55 46.26 173.50 49.26 174.17 51.64 C 175.12 57.14 177.64 62.31 177.78 67.96 C 178.71 74.31 178.50 80.76 179.48 87.10 C 180.35 92.17 178.07 96.97 177.55 101.94 C 177.10 105.63 176.12 109.25 174.54 112.62 C 173.03 115.73 172.27 119.32 169.81 121.88 C 170.88 118.67 172.09 115.51 173.51 112.44 C 176.14 106.87 176.87 100.69 177.87 94.68 C 179.99 77.75 175.72 60.94 171.29 44.73 Z" />
<path fill="#020202" opacity="1.00" d=" M 103.61 59.19 C 105.82 56.06 110.39 54.13 113.85 56.41 C 112.09 57.22 110.28 57.94 108.58 58.88 C 115.73 59.16 122.91 58.30 130.05 59.15 C 134.19 59.66 138.59 59.15 142.43 61.14 C 140.15 62.16 137.63 62.23 135.22 62.71 C 133.57 65.26 135.79 67.84 136.39 70.36 C 127.44 69.61 118.40 69.86 109.50 68.48 C 110.06 66.31 110.89 64.22 111.42 62.04 C 108.82 61.07 105.81 61.04 103.61 59.19 M 113.44 61.49 C 112.57 62.89 112.03 64.60 112.62 66.22 C 118.21 68.20 124.24 67.35 130.03 67.15 C 133.21 67.89 134.55 61.65 131.00 61.62 C 125.16 61.50 119.27 61.02 113.44 61.49 Z" />
<path fill="#f6f6f6" opacity="1.00" d=" M 100.75 59.69 C 101.33 58.60 102.78 58.00 103.61 59.19 C 105.81 61.04 108.82 61.07 111.42 62.04 C 110.89 64.22 110.06 66.31 109.50 68.48 C 118.40 69.86 127.44 69.61 136.39 70.36 C 135.79 67.84 133.57 65.26 135.22 62.71 C 137.63 62.23 140.15 62.16 142.43 61.14 C 144.37 59.63 145.51 62.34 146.73 63.46 C 147.37 64.18 148.01 64.89 148.67 65.60 C 148.74 65.86 148.88 66.39 148.95 66.65 C 147.85 66.70 146.97 67.08 146.30 67.77 C 147.13 68.39 148.07 68.80 149.12 69.01 C 147.63 69.26 146.15 69.50 144.67 69.78 C 143.99 69.92 142.63 70.21 141.95 70.36 C 142.92 71.23 144.06 71.91 145.20 72.55 C 144.49 73.95 143.84 75.62 142.29 76.30 C 135.28 79.47 127.67 81.39 119.97 81.69 C 116.96 81.42 114.09 80.30 111.09 79.88 C 108.76 79.37 106.16 79.30 104.17 77.85 C 103.00 76.88 103.19 75.28 103.12 73.94 C 105.08 74.57 107.07 75.14 109.07 75.64 C 107.18 73.94 105.00 72.53 103.35 70.58 C 102.86 69.18 102.59 67.73 102.20 66.32 C 101.50 66.88 100.84 67.49 100.18 68.09 C 99.25 65.36 99.47 62.28 100.75 59.69 M 112.28 71.48 C 112.32 71.71 112.40 72.16 112.44 72.38 C 116.53 73.38 120.76 73.34 124.94 73.51 C 127.74 73.61 130.62 74.03 133.35 73.18 L 132.82 72.41 C 126.09 70.90 119.12 71.21 112.28 71.48 Z" />
<path fill="#fcfcfc" opacity="1.00" d=" M 113.44 61.49 C 119.27 61.02 125.16 61.50 131.00 61.62 C 134.55 61.65 133.21 67.89 130.03 67.15 C 124.24 67.35 118.21 68.20 112.62 66.22 C 112.03 64.60 112.57 62.89 113.44 61.49 M 115.28 63.13 C 115.23 63.61 115.13 64.57 115.08 65.05 C 116.29 65.04 117.49 64.94 118.68 64.76 C 119.50 62.40 116.64 63.29 115.28 63.13 Z" />
<path fill="#010101" opacity="1.00" d=" M 115.28 63.13 C 116.64 63.29 119.50 62.40 118.68 64.76 C 117.49 64.94 116.29 65.04 115.08 65.05 C 115.13 64.57 115.23 63.61 115.28 63.13 Z" />
<path fill="#040404" opacity="1.00" d=" M 146.73 63.46 C 148.85 63.34 150.98 63.28 153.10 63.35 C 151.71 64.26 150.23 65.03 148.67 65.60 C 148.01 64.89 147.37 64.18 146.73 63.46 Z" />
<path fill="#010101" opacity="1.00" d=" M 49.76 65.10 C 54.07 64.96 53.76 70.16 54.75 73.09 C 53.00 74.58 51.20 76.21 48.86 76.64 L 49.17 76.00 C 50.23 73.56 53.15 70.89 51.06 68.21 L 50.78 67.58 C 50.73 67.47 50.63 67.23 50.58 67.12 C 50.37 66.61 49.96 65.60 49.76 65.10 Z" />
<path fill="#040404" opacity="1.00" d=" M 100.18 68.09 C 100.84 67.49 101.50 66.88 102.20 66.32 C 102.59 67.73 102.86 69.18 103.35 70.58 C 105.00 72.53 107.18 73.94 109.07 75.64 C 107.07 75.14 105.08 74.57 103.12 73.94 C 101.60 72.31 100.50 70.30 100.18 68.09 Z" />
<path fill="#fbfbfb" opacity="1.00" d=" M 30.75 66.92 C 35.14 66.74 39.56 66.69 43.94 67.03 C 45.44 67.05 46.73 67.87 47.72 68.94 C 46.64 70.39 44.66 70.27 43.07 70.65 C 38.47 71.38 33.73 71.85 29.11 71.00 C 29.04 70.48 28.91 69.43 28.84 68.91 C 30.19 69.18 31.54 69.52 32.90 69.77 C 32.73 68.36 30.53 68.40 30.75 66.92 Z" />
<path fill="#ffffff" opacity="1.00" d=" M 50.58 67.12 C 50.63 67.23 50.73 67.47 50.78 67.58 C 50.73 67.47 50.63 67.23 50.58 67.12 Z" />
<path fill="#020202" opacity="1.00" d=" M 146.30 67.77 C 146.97 67.08 147.85 66.70 148.95 66.65 C 150.85 66.42 151.33 69.44 149.12 69.01 C 148.07 68.80 147.13 68.39 146.30 67.77 Z" />
<path fill="#ffffff" opacity="1.00" d=" M 50.48 69.01 L 51.06 68.21 C 53.15 70.89 50.23 73.56 49.17 76.00 C 48.63 75.81 47.55 75.41 47.01 75.22 C 40.81 74.58 34.62 76.60 28.42 75.51 C 28.27 75.16 27.97 74.44 27.83 74.09 L 28.41 73.50 C 34.80 73.01 41.24 73.31 47.62 72.57 C 48.71 71.49 49.56 70.22 50.48 69.01 Z" />
<path fill="#888888" opacity="1.00" d=" M 180.20 68.72 C 182.48 75.25 181.53 82.22 181.80 88.99 C 181.98 95.32 180.81 101.58 179.46 107.73 C 178.46 112.22 175.98 116.14 173.99 120.22 C 174.78 117.38 175.70 114.57 176.87 111.85 C 178.99 106.97 179.27 101.58 180.51 96.45 C 182.72 87.29 180.12 77.97 180.20 68.72 Z" />
<path fill="#040404" opacity="1.00" d=" M 141.95 70.36 C 142.63 70.21 143.99 69.92 144.67 69.78 C 146.81 70.54 148.84 71.55 150.81 72.66 C 149.09 73.90 147.03 73.03 145.20 72.55 C 144.06 71.91 142.92 71.23 141.95 70.36 Z" />
<path fill="#252525" opacity="1.00" d=" M 112.28 71.48 C 119.12 71.21 126.09 70.90 132.82 72.41 L 133.35 73.18 C 130.62 74.03 127.74 73.61 124.94 73.51 C 120.76 73.34 116.53 73.38 112.44 72.38 C 112.40 72.16 112.32 71.71 112.28 71.48 Z" />
<path fill="#f6f6f6" opacity="1.00" d=" M 48.86 76.64 C 51.20 76.21 53.00 74.58 54.75 73.09 C 57.76 74.66 61.13 75.85 63.47 78.44 C 65.15 80.33 66.96 82.15 68.28 84.33 C 67.25 85.81 66.11 87.20 64.91 88.55 C 61.47 90.89 58.22 93.57 54.46 95.42 C 51.60 96.91 48.46 97.94 45.84 99.86 C 42.73 102.23 41.75 106.91 37.66 108.01 C 36.14 104.96 36.40 101.37 35.59 98.10 C 34.33 92.47 34.34 86.53 35.88 80.95 C 38.76 80.20 41.74 80.01 44.66 79.47 C 44.68 79.15 44.71 78.50 44.73 78.17 C 40.91 77.25 37.13 79.39 33.30 78.66 C 32.96 78.37 32.28 77.79 31.93 77.49 C 37.03 77.73 42.07 76.88 47.14 76.82 C 47.57 76.78 48.43 76.69 48.86 76.64 Z" />
<path fill="#fbfbfb" opacity="1.00" d=" M 47.01 75.22 C 47.55 75.41 48.63 75.81 49.17 76.00 L 48.86 76.64 C 48.43 76.69 47.57 76.78 47.14 76.82 L 46.73 76.01 L 47.01 75.22 Z" />
<path fill="#252525" opacity="1.00" d=" M 64.91 88.55 C 66.11 87.20 67.25 85.81 68.28 84.33 C 68.52 86.53 70.28 87.68 72.04 88.68 C 69.67 88.70 67.29 88.64 64.91 88.55 Z" />
<path fill="#040404" opacity="1.00" d=" M 55.42 99.59 C 56.53 99.30 57.66 99.19 58.81 99.27 C 58.21 101.10 55.89 101.75 54.68 103.18 C 60.15 103.98 65.56 101.91 71.05 102.76 C 75.75 102.95 81.74 106.31 80.86 111.76 C 72.82 112.85 64.65 112.14 56.58 112.85 C 56.17 115.06 59.72 116.62 57.90 118.74 C 54.75 117.28 53.64 113.36 55.39 110.38 C 57.94 109.26 61.33 110.24 63.25 107.87 C 63.36 107.28 63.57 106.11 63.67 105.53 C 60.52 105.34 57.36 105.61 54.21 105.40 C 52.76 105.43 51.75 104.16 51.17 102.99 C 52.06 101.33 53.72 100.26 55.42 99.59 M 66.14 104.97 C 65.62 106.49 63.81 108.25 64.82 109.84 C 69.30 110.23 73.83 110.22 78.32 109.96 C 78.05 108.44 77.38 106.75 75.73 106.28 C 72.73 105.12 69.36 104.08 66.14 104.97 Z" />
<path fill="#010101" opacity="1.00" d=" M 80.08 99.28 C 83.08 99.14 85.74 101.15 87.13 103.68 C 87.87 105.87 88.07 108.34 87.37 110.57 C 86.70 111.97 85.13 112.54 83.87 113.27 C 84.71 110.36 86.43 107.22 84.95 104.22 C 83.69 102.25 81.61 101.02 80.08 99.28 Z" />
<path fill="#fafafa" opacity="1.00" d=" M 66.14 104.97 C 69.36 104.08 72.73 105.12 75.73 106.28 C 77.38 106.75 78.05 108.44 78.32 109.96 C 73.83 110.22 69.30 110.23 64.82 109.84 C 63.81 108.25 65.62 106.49 66.14 104.97 Z" />
<path fill="#010101" opacity="1.00" d=" M 59.36 124.10 C 61.53 124.88 59.72 128.21 61.56 129.37 C 64.28 131.39 67.92 130.72 71.08 130.76 C 74.51 131.05 76.34 127.56 79.32 126.59 C 78.96 130.01 75.24 132.17 72.06 132.34 C 67.82 132.44 62.84 132.80 59.54 129.60 C 59.08 127.80 59.23 125.92 59.36 124.10 Z" />
<path fill="#fefefe" opacity="1.00" d=" M 112.16 169.20 C 114.74 171.53 116.93 174.23 119.13 176.90 C 122.29 180.68 126.90 182.67 131.05 185.11 C 127.62 187.34 123.39 187.67 119.84 189.64 C 117.84 190.71 115.89 191.91 113.70 192.55 C 113.20 188.03 113.62 183.48 113.48 178.94 C 113.39 175.65 112.57 172.45 112.16 169.20 Z" />
<path fill="#fcfcfc" opacity="1.00" d=" M 107.41 170.67 L 107.54 170.06 C 107.61 178.64 108.09 187.25 107.59 195.82 C 107.10 195.98 106.11 196.28 105.62 196.44 C 104.87 190.59 106.18 184.77 106.39 178.94 C 106.50 176.16 106.75 173.38 107.41 170.67 Z" />
<path fill="#eb8889" opacity="1.00" d=" M 55.01 196.07 C 56.53 194.30 58.05 192.28 60.28 191.40 C 64.31 190.81 67.90 193.12 71.49 194.56 C 73.84 195.66 76.49 195.43 79.01 195.35 C 79.05 195.75 79.13 196.55 79.18 196.94 C 77.02 197.54 74.61 198.34 72.44 197.34 C 68.95 195.81 65.92 192.91 61.95 192.75 C 59.64 192.49 59.59 195.26 58.72 196.73 C 57.48 196.50 56.25 196.28 55.01 196.07 Z" />
<path fill="#d70101" opacity="1.00" d=" M 58.72 196.73 C 59.59 195.26 59.64 192.49 61.95 192.75 C 65.92 192.91 68.95 195.81 72.44 197.34 C 74.61 198.34 77.02 197.54 79.18 196.94 C 80.71 196.53 82.23 196.00 83.83 195.85 C 84.67 196.42 85.50 197.03 86.30 197.67 C 84.70 199.51 83.32 202.09 80.68 202.52 C 76.64 203.17 72.40 203.37 68.38 202.43 C 64.86 201.10 61.95 198.61 58.72 196.73 Z" />
<path fill="#df7a7a" opacity="1.00" d=" M 79.01 195.35 C 80.67 194.70 82.30 193.81 84.09 193.59 C 87.15 194.02 90.05 195.21 92.89 196.39 C 90.64 199.78 87.81 202.83 86.27 206.67 L 85.77 205.73 C 85.85 205.05 86.01 203.71 86.09 203.03 C 88.01 200.82 90.63 198.90 91.27 195.89 C 89.53 196.23 87.89 196.89 86.30 197.67 C 85.50 197.03 84.67 196.42 83.83 195.85 C 82.23 196.00 80.71 196.53 79.18 196.94 C 79.13 196.55 79.05 195.75 79.01 195.35 Z" />
<path fill="#9c0001" opacity="1.00" d=" M 54.78 199.24 C 54.12 198.24 54.08 196.91 55.01 196.07 C 56.25 196.28 57.48 196.50 58.72 196.73 C 61.95 198.61 64.86 201.10 68.38 202.43 C 72.40 203.37 76.64 203.17 80.68 202.52 C 83.32 202.09 84.70 199.51 86.30 197.67 C 87.89 196.89 89.53 196.23 91.27 195.89 C 90.63 198.90 88.01 200.82 86.09 203.03 C 77.93 205.14 69.53 207.20 61.04 205.98 C 58.62 204.09 56.41 201.85 54.78 199.24 Z" />
<path fill="#d60001" opacity="1.00" d=" M 61.04 205.98 C 69.53 207.20 77.93 205.14 86.09 203.03 C 86.01 203.71 85.85 205.05 85.77 205.73 C 83.14 205.70 82.08 208.19 80.52 209.85 C 78.67 211.13 76.29 210.22 74.33 209.71 C 71.24 208.66 68.04 208.00 64.78 207.76 C 63.51 207.22 62.25 206.65 61.04 205.98 Z" />
<path fill="#fefefe" opacity="1.00" d=" M 105.51 203.21 C 106.16 203.05 107.44 202.73 108.08 202.57 C 108.79 214.02 108.41 225.53 108.31 237.00 L 103.62 237.00 C 104.49 231.60 104.56 226.11 105.22 220.69 C 105.83 214.88 105.07 209.03 105.51 203.21 Z" />
<path fill="#8a8a8a" opacity="1.00" d=" M 65.69 220.21 C 64.30 216.60 62.87 212.31 64.47 208.57 C 65.20 212.41 65.59 216.30 65.69 220.21 Z" />
<path fill="#d70202" opacity="1.00" d=" M 66.71 222.30 C 69.96 222.99 73.29 223.52 76.62 223.08 C 75.90 224.47 75.47 225.97 75.12 227.49 C 73.07 227.00 70.94 226.73 68.99 225.92 C 68.06 224.82 67.39 223.55 66.71 222.30 Z" />
<path fill="#990101" opacity="1.00" d=" M 76.62 223.08 C 78.90 222.54 81.18 221.99 83.46 221.41 C 84.65 222.56 85.85 223.72 86.99 224.93 C 84.35 228.87 79.08 226.99 75.12 227.49 C 75.47 225.97 75.90 224.47 76.62 223.08 Z" />
<path fill="#d98281" opacity="1.00" d=" M 86.99 224.93 C 87.62 225.58 88.21 226.27 88.70 227.04 C 88.67 228.49 87.17 228.80 86.02 229.03 C 82.31 229.69 78.60 228.70 75.12 227.49 C 79.08 226.99 84.35 228.87 86.99 224.93 Z" />
</svg>
