<?xml version="1.0" encoding="UTF-8" ?>
<!DOCTYPE svg PUBLIC "-//W3C//DTD SVG 1.1//EN" "http://www.w3.org/Graphics/SVG/1.1/DTD/svg11.dtd">
<svg width="266pt" height="219pt" viewBox="0 0 266 219" version="1.1" xmlns="http://www.w3.org/2000/svg">
<g id="#ffffffff">
</g>
<g id="#040404ff">
<path fill="#040404" opacity="1.00" d=" M 194.98 20.12 C 200.65 19.83 206.34 20.08 212.01 19.99 C 214.36 20.05 216.75 19.75 219.07 20.31 C 221.23 23.92 223.50 27.48 225.59 31.12 C 227.12 35.97 228.51 40.89 230.60 45.55 C 232.50 54.24 231.92 63.25 230.94 72.04 C 230.72 74.87 229.02 77.26 228.32 79.97 C 227.12 84.04 223.69 86.95 222.40 90.98 C 220.36 96.56 215.64 100.55 211.05 104.05 C 209.08 105.71 206.41 105.72 204.08 106.55 C 205.26 110.27 205.58 114.12 205.36 118.01 C 205.07 121.27 207.19 123.94 208.14 126.89 C 208.73 130.57 207.90 134.40 209.16 137.99 C 209.16 142.34 209.98 146.78 212.10 150.63 C 212.98 155.53 215.66 160.00 215.82 165.06 C 215.95 169.74 221.23 171.80 222.76 175.87 C 223.88 179.55 226.55 182.43 228.10 185.91 L 229.28 185.52 C 231.30 181.04 232.17 176.14 233.77 171.52 C 235.38 168.28 236.91 165.01 238.58 161.81 C 239.71 159.70 239.67 157.21 240.57 155.01 C 242.29 151.24 243.85 147.39 245.99 143.83 C 246.49 143.52 247.48 142.89 247.98 142.58 C 250.44 144.35 252.97 146.00 255.90 146.94 L 255.87 148.32 C 252.86 149.60 250.26 146.62 247.87 145.26 C 245.23 150.47 242.26 155.65 241.20 161.46 C 239.49 165.36 237.37 169.07 235.67 172.98 C 234.45 177.09 233.18 181.19 231.91 185.29 C 231.06 187.11 230.08 189.30 228.03 190.02 C 227.01 189.35 226.67 188.10 226.04 187.14 C 224.04 183.33 221.61 179.73 220.11 175.68 C 218.32 173.46 216.59 170.95 213.93 169.73 C 211.46 168.29 209.04 166.77 206.65 165.22 C 203.24 163.08 199.05 163.03 195.48 161.28 C 190.64 158.95 185.81 156.60 181.15 153.93 C 177.06 151.54 172.34 150.77 167.98 149.06 C 164.74 147.91 161.27 147.56 158.08 146.25 C 154.56 144.84 150.95 143.62 147.18 143.06 C 144.33 141.89 141.44 140.75 138.74 139.27 C 138.37 138.10 138.05 136.93 137.78 135.74 C 139.35 133.68 141.15 131.61 141.46 128.92 C 141.53 127.30 142.49 125.41 144.36 125.56 C 144.58 129.84 142.43 133.91 139.73 137.11 C 143.01 138.73 146.21 140.77 149.89 141.31 C 153.78 141.96 157.38 143.68 161.09 144.95 C 163.90 145.70 166.81 146.11 169.50 147.27 C 173.03 148.68 176.93 149.06 180.28 150.97 C 185.50 153.74 190.73 156.52 196.06 159.09 C 199.40 160.71 203.21 160.99 206.57 162.54 C 208.92 163.94 211.20 165.47 213.69 166.61 C 213.43 161.20 210.92 156.26 209.70 151.06 C 207.09 146.12 207.19 140.44 206.27 135.08 C 206.11 133.02 206.27 130.95 206.12 128.88 C 205.31 125.21 202.83 121.92 203.21 118.01 C 203.06 114.65 203.89 110.42 201.27 107.84 C 196.16 107.44 191.11 108.52 186.00 108.25 C 180.96 108.01 175.47 109.24 170.89 106.50 C 166.78 103.98 161.39 103.83 157.96 100.21 C 155.09 97.70 152.07 95.19 150.08 91.89 C 146.99 82.56 148.01 72.66 147.85 63.01 C 147.61 57.93 148.55 52.89 149.78 47.98 C 150.45 44.96 152.67 42.73 154.13 40.10 C 155.69 37.71 156.99 34.95 159.49 33.38 C 164.18 29.93 169.62 27.68 174.36 24.30 C 174.87 22.95 175.23 21.55 175.70 20.19 C 176.65 21.76 178.03 22.53 179.85 22.41 C 179.89 25.39 176.95 27.78 174.07 27.60 C 171.65 28.66 169.63 30.49 167.18 31.52 C 164.32 32.66 161.69 34.36 159.39 36.39 C 156.76 39.60 154.97 43.39 152.62 46.79 C 149.05 56.13 150.49 66.26 150.17 76.01 C 149.84 80.82 150.92 85.53 151.86 90.22 C 154.05 94.20 157.86 96.92 161.09 100.01 C 164.31 101.43 167.74 102.34 170.89 103.93 C 172.52 104.67 174.08 105.83 175.97 105.74 C 184.24 105.86 192.52 105.84 200.78 105.47 C 200.53 103.30 199.97 101.18 199.58 99.04 C 196.85 100.29 194.06 101.44 191.15 102.25 C 185.53 100.89 179.82 99.80 174.37 97.81 C 170.74 97.28 166.28 97.61 164.01 94.07 C 161.31 89.10 157.88 83.91 158.46 77.99 C 158.71 74.21 157.73 70.15 159.49 66.61 C 161.14 62.55 163.65 58.86 167.00 56.00 C 170.27 52.32 174.05 48.71 179.02 47.60 C 185.31 46.78 191.64 46.05 198.01 46.14 C 201.06 45.95 203.80 47.48 206.53 48.60 C 209.97 52.85 214.41 56.26 217.35 60.91 C 218.18 63.49 217.31 66.32 218.13 68.93 C 219.20 73.56 219.14 78.88 216.04 82.76 C 214.69 85.27 211.89 86.45 210.39 88.83 C 208.39 91.61 205.80 93.88 203.45 96.35 C 203.30 98.87 203.38 101.39 203.33 103.92 C 205.64 103.66 208.11 103.58 209.99 102.02 C 214.27 98.70 218.74 94.97 220.50 89.64 C 221.67 86.11 224.62 83.56 225.86 80.07 C 226.64 77.66 227.75 75.38 228.47 72.95 C 229.79 64.07 230.47 54.87 228.35 46.06 C 227.31 43.29 226.27 40.53 225.22 37.77 C 224.35 35.60 224.48 33.09 223.07 31.14 C 220.94 28.07 219.37 24.63 216.95 21.77 C 211.64 21.59 206.32 21.78 201.00 21.69 C 197.92 21.43 194.98 22.57 191.92 22.69 C 189.06 22.94 186.58 25.33 183.65 24.32 C 183.09 23.11 182.97 21.73 183.82 20.62 C 185.52 20.52 187.12 21.88 188.82 21.09 C 190.80 20.38 192.90 20.27 194.98 20.12 M 185.99 49.09 C 183.09 49.63 179.99 49.11 177.33 50.62 C 172.43 52.61 169.32 57.08 165.54 60.53 C 163.68 63.51 161.77 66.50 160.74 69.89 C 160.58 73.64 160.62 77.41 160.69 81.17 C 161.63 85.39 164.03 89.05 166.02 92.82 C 167.15 95.05 169.89 94.99 172.02 95.24 C 175.56 95.27 178.62 97.25 182.06 97.80 C 185.63 98.49 189.31 100.14 192.97 98.97 C 199.41 97.45 204.16 92.40 208.35 87.60 C 209.60 84.84 212.81 83.89 214.23 81.27 C 216.72 78.11 216.94 73.76 215.99 69.99 C 215.29 67.53 215.79 64.95 215.40 62.47 C 213.17 57.67 208.39 54.81 205.26 50.65 C 199.51 46.97 192.37 48.53 185.99 49.09 Z" />
<path fill="#040404" opacity="1.00" d=" M 27.37 165.65 C 28.47 165.59 29.57 165.58 30.68 165.62 C 30.81 167.98 30.62 170.35 30.33 172.70 C 29.36 172.81 28.38 172.87 27.41 172.88 C 26.81 170.54 26.41 168.13 26.62 165.71 L 27.37 165.65 Z" />
<path fill="#040404" opacity="1.00" d=" M 143.80 165.67 C 144.71 165.65 146.53 165.62 147.43 165.61 C 147.65 167.92 147.53 170.24 147.53 172.56 C 148.50 172.20 149.47 171.84 150.44 171.48 C 151.05 172.15 151.66 172.83 152.27 173.51 C 150.78 173.99 149.24 174.32 147.81 174.95 C 146.28 177.80 147.01 181.19 146.37 184.25 C 145.74 184.64 144.46 185.42 143.83 185.81 C 143.65 179.10 143.72 172.38 143.80 165.67 Z" />
<path fill="#040404" opacity="1.00" d=" M 137.08 166.79 L 138.09 166.27 C 138.22 167.89 138.21 169.52 138.42 171.14 C 139.07 171.25 140.35 171.49 140.99 171.60 C 140.92 172.24 140.78 173.52 140.71 174.17 C 140.09 174.29 138.86 174.55 138.24 174.67 C 138.18 177.29 138.19 179.92 138.23 182.54 C 138.85 182.65 140.09 182.89 140.70 183.00 C 140.96 184.06 140.89 185.11 140.51 186.17 C 138.48 186.51 136.33 186.39 134.79 184.86 C 134.08 181.60 134.39 178.25 134.17 174.95 C 132.40 174.50 131.81 172.34 133.35 171.23 C 134.22 170.44 134.27 169.22 134.65 168.19 C 135.26 167.84 136.47 167.14 137.08 166.79 Z" />
<path fill="#040404" opacity="1.00" d=" M 36.30 171.45 C 39.59 170.79 45.12 170.45 45.90 174.77 C 45.14 174.90 43.63 175.17 42.87 175.30 C 41.59 174.65 40.54 173.17 38.93 173.57 C 37.93 173.66 37.29 174.54 36.49 175.05 C 39.50 176.82 43.31 176.70 46.08 178.96 C 46.69 180.78 46.66 182.84 45.35 184.37 C 43.43 185.53 41.27 186.65 38.95 186.31 C 36.45 186.04 33.25 184.57 33.23 181.63 C 36.46 179.80 37.94 184.44 41.04 183.38 C 42.55 183.06 43.17 182.14 42.13 180.92 C 39.77 180.12 37.25 179.79 35.06 178.55 C 32.26 177.04 33.28 171.97 36.30 171.45 Z" />
<path fill="#040404" opacity="1.00" d=" M 59.67 171.88 C 63.32 170.09 68.34 170.64 70.55 174.36 C 69.89 174.62 68.56 175.13 67.90 175.38 C 66.00 174.43 64.07 173.08 61.83 173.78 C 61.69 174.20 61.40 175.04 61.26 175.46 C 64.17 176.73 67.56 176.86 70.16 178.84 C 70.70 180.29 70.89 181.98 70.29 183.44 C 67.05 187.90 58.84 187.03 57.04 181.64 C 58.79 181.51 60.93 180.87 62.13 182.58 C 63.40 184.31 67.61 183.60 66.72 180.98 C 64.24 180.05 61.38 180.01 59.17 178.45 C 56.92 176.97 57.33 173.01 59.67 171.88 Z" />
<path fill="#040404" opacity="1.00" d=" M 92.24 171.29 C 93.66 171.16 95.17 171.21 96.00 172.58 C 98.47 170.50 101.94 170.72 104.35 172.75 C 107.01 170.60 111.82 170.09 113.32 173.85 C 113.49 177.77 113.39 181.69 113.32 185.61 C 112.09 185.76 110.82 185.83 109.60 185.61 C 109.46 181.95 109.94 178.26 109.32 174.63 C 107.72 173.19 105.65 173.96 104.87 175.88 C 104.43 179.12 104.80 182.42 104.61 185.68 C 103.34 185.73 102.06 185.72 100.80 185.58 C 100.65 181.85 101.21 178.07 100.43 174.39 C 99.21 174.10 97.90 173.96 96.72 174.50 C 94.93 177.95 96.15 181.99 95.76 185.70 C 94.61 185.76 93.47 185.76 92.32 185.71 C 91.40 182.54 92.02 179.25 91.90 176.02 C 91.89 174.43 91.59 172.79 92.24 171.29 Z" />
<path fill="#040404" opacity="1.00" d=" M 122.06 171.18 C 124.64 170.44 127.59 171.40 129.26 173.50 C 130.38 175.33 130.55 177.49 130.63 179.59 C 127.40 179.79 124.15 179.52 120.92 179.79 C 121.26 181.09 121.39 182.71 122.98 183.05 C 124.51 184.41 125.76 181.97 127.09 181.46 C 128.26 181.46 129.42 181.57 130.57 181.78 C 129.77 183.29 128.89 185.02 127.12 185.54 C 123.14 187.78 117.15 184.88 117.11 180.11 C 116.42 176.48 118.11 171.96 122.06 171.18 M 122.88 174.15 C 121.38 174.52 121.21 175.98 121.03 177.29 C 123.01 177.35 124.99 177.39 126.97 177.20 C 126.87 175.34 124.79 172.85 122.88 174.15 Z" />
<path fill="#040404" opacity="1.00" d=" M 150.86 171.14 L 151.12 171.31 C 151.04 171.33 150.89 171.37 150.81 171.38 L 150.86 171.14 Z" />
<path fill="#040404" opacity="1.00" d=" M 10.01 172.18 C 10.82 172.15 12.43 172.09 13.23 172.06 C 13.72 176.29 13.68 180.75 13.24 184.99 C 12.42 184.96 10.79 184.91 9.98 184.88 C 9.44 180.76 9.46 176.29 10.01 172.18 Z" />
<path fill="#040404" opacity="1.00" d=" M 152.27 173.51 C 155.36 176.16 153.59 180.66 154.53 184.15 C 155.08 184.53 156.18 185.27 156.72 185.64 L 157.08 185.87 C 155.84 185.83 154.61 185.76 153.38 185.67 C 152.97 181.61 153.92 177.38 152.27 173.51 Z" />
</g>
<g id="#fefefeff">
<path fill="#fefefe" opacity="1.00" d=" M 185.99 49.09 C 192.37 48.53 199.51 46.97 205.26 50.65 C 208.39 54.81 213.17 57.67 215.40 62.47 C 215.79 64.95 215.29 67.53 215.99 69.99 C 216.94 73.76 216.72 78.11 214.23 81.27 C 212.81 83.89 209.60 84.84 208.35 87.60 C 204.16 92.40 199.41 97.45 192.97 98.97 C 189.31 100.14 185.63 98.49 182.06 97.80 C 178.62 97.25 175.56 95.27 172.02 95.24 C 169.89 94.99 167.15 95.05 166.02 92.82 C 164.03 89.05 161.63 85.39 160.69 81.17 C 160.62 77.41 160.58 73.64 160.74 69.89 C 161.77 66.50 163.68 63.51 165.54 60.53 C 169.32 57.08 172.43 52.61 177.33 50.62 C 179.99 49.11 183.09 49.63 185.99 49.09 M 178.57 52.75 C 176.51 52.82 175.69 54.59 176.71 56.32 C 177.85 56.66 179.09 56.76 180.17 56.17 C 180.48 54.87 180.35 52.49 178.57 52.75 M 193.36 52.75 C 192.95 52.98 192.13 53.45 191.73 53.69 C 190.99 55.89 193.36 57.18 195.24 56.40 C 195.36 55.12 195.11 52.42 193.36 52.75 M 175.22 59.32 C 173.82 59.50 172.43 59.68 171.05 59.93 C 171.09 60.39 171.18 61.32 171.22 61.79 C 181.64 61.04 192.10 61.48 202.55 61.32 C 202.59 60.83 202.67 59.86 202.71 59.37 C 200.80 59.14 198.88 59.00 196.97 58.93 C 189.73 59.46 182.45 58.80 175.22 59.32 M 184.58 64.94 C 183.26 64.99 182.88 65.69 183.43 67.05 C 185.82 67.44 188.23 67.11 190.43 66.09 C 190.50 65.65 190.66 64.75 190.73 64.30 C 188.66 63.76 186.61 64.60 184.58 64.94 Z" />
</g>
<g id="#030303ff">
<path fill="#030303" opacity="1.00" d=" M 178.57 52.75 C 180.35 52.49 180.48 54.87 180.17 56.17 C 179.09 56.76 177.85 56.66 176.71 56.32 C 175.69 54.59 176.51 52.82 178.57 52.75 Z" />
<path fill="#030303" opacity="1.00" d=" M 150.44 171.48 C 150.54 171.39 150.75 171.22 150.86 171.14 L 150.81 171.38 L 150.44 171.48 Z" />
<path fill="#030303" opacity="1.00" d=" M 169.63 171.37 C 171.23 171.08 172.84 171.12 173.82 172.66 C 175.83 170.90 178.76 170.53 181.15 171.72 C 182.27 172.83 182.90 174.34 182.83 175.92 C 182.88 179.18 182.93 182.45 182.78 185.71 C 181.59 185.77 180.41 185.78 179.22 185.73 C 178.82 182.06 179.75 178.22 178.48 174.67 C 177.16 173.20 175.33 174.02 173.97 174.94 C 173.00 178.45 173.52 182.14 173.33 185.73 C 172.08 185.77 170.84 185.75 169.60 185.65 C 169.60 180.89 169.52 176.12 169.63 171.37 Z" />
<path fill="#030303" opacity="1.00" d=" M 146.37 184.25 C 147.01 181.19 146.28 177.80 147.81 174.95 C 147.54 178.52 147.58 182.09 147.49 185.66 C 146.27 185.74 145.05 185.76 143.83 185.81 C 144.46 185.42 145.74 184.64 146.37 184.25 Z" />
</g>
<g id="#181818ff">
<path fill="#181818" opacity="1.00" d=" M 193.36 52.75 C 195.11 52.42 195.36 55.12 195.24 56.40 C 193.36 57.18 190.99 55.89 191.73 53.69 C 192.13 53.45 192.95 52.98 193.36 52.75 Z" />
</g>
<g id="#0e0e0eff">
<path fill="#0e0e0e" opacity="1.00" d=" M 175.22 59.32 C 182.45 58.80 189.73 59.46 196.97 58.93 C 198.88 59.00 200.80 59.14 202.71 59.37 C 202.67 59.86 202.59 60.83 202.55 61.32 C 192.10 61.48 181.64 61.04 171.22 61.79 C 171.18 61.32 171.09 60.39 171.05 59.93 C 172.43 59.68 173.82 59.50 175.22 59.32 Z" />
</g>
<g id="#070707ff">
<path fill="#070707" opacity="1.00" d=" M 184.58 64.94 C 186.61 64.60 188.66 63.76 190.73 64.30 C 190.66 64.75 190.50 65.65 190.43 66.09 C 188.23 67.11 185.82 67.44 183.43 67.05 C 182.88 65.69 183.26 64.99 184.58 64.94 Z" />
<path fill="#070707" opacity="1.00" d=" M 161.47 165.65 C 162.77 165.58 164.07 165.58 165.37 165.68 C 165.45 166.89 165.43 168.11 165.33 169.32 C 164.05 169.43 162.76 169.44 161.48 169.38 C 161.40 168.13 161.40 166.89 161.47 165.65 Z" />
</g>
<g id="#060606ff">
<path fill="#060606" opacity="1.00" d=" M 9.69 165.64 C 10.64 165.64 12.53 165.64 13.47 165.64 C 13.48 166.57 13.49 168.42 13.49 169.34 C 12.56 169.34 10.69 169.33 9.75 169.33 C 9.74 168.41 9.71 166.56 9.69 165.64 Z" />
<path fill="#060606" opacity="1.00" d=" M 21.25 166.32 L 21.58 166.13 C 21.84 167.75 21.93 169.40 22.25 171.02 C 22.83 171.19 24.00 171.52 24.58 171.69 C 24.54 172.30 24.46 173.51 24.42 174.11 C 23.82 174.24 22.61 174.49 22.01 174.62 C 21.75 177.23 21.81 179.87 21.95 182.49 C 23.70 182.61 24.97 183.49 24.69 185.35 C 22.98 186.89 20.52 186.41 18.74 185.26 C 17.19 182.00 18.10 178.31 17.79 174.84 C 16.41 174.44 15.57 173.08 16.43 171.78 C 17.50 170.86 17.84 169.49 18.33 168.24 C 19.25 167.53 20.24 166.90 21.25 166.32 Z" />
<path fill="#060606" opacity="1.00" d=" M 9.99 171.62 L 10.87 171.17 C 11.44 171.26 12.58 171.43 13.14 171.51 L 13.23 172.06 C 12.43 172.09 10.82 172.15 10.01 172.18 L 9.99 171.62 Z" />
<path fill="#060606" opacity="1.00" d=" M 78.29 171.44 C 81.51 170.19 85.39 171.28 87.39 174.13 C 89.22 176.81 89.11 180.65 87.17 183.25 C 86.04 184.97 83.93 185.61 82.12 186.32 C 78.01 186.80 73.39 183.39 73.65 179.02 C 73.44 175.93 75.14 172.34 78.29 171.44 M 78.48 175.35 C 77.22 177.13 76.94 179.94 78.47 181.64 C 79.36 183.38 81.62 182.84 83.18 182.64 C 84.70 180.91 85.08 178.49 84.45 176.30 C 83.58 173.98 79.92 173.37 78.48 175.35 Z" />
<path fill="#060606" opacity="1.00" d=" M 9.98 184.88 C 10.79 184.91 12.42 184.96 13.24 184.99 L 13.17 185.54 C 12.60 185.62 11.46 185.79 10.88 185.87 L 9.97 185.43 L 9.98 184.88 Z" />
</g>
<g id="#020202ff">
<path fill="#020202" opacity="1.00" d=" M 151.12 171.31 C 152.95 170.49 155.06 171.44 156.35 172.78 C 157.40 176.95 156.89 181.38 156.72 185.64 C 156.18 185.27 155.08 184.53 154.53 184.15 C 153.59 180.66 155.36 176.16 152.27 173.51 C 151.66 172.83 151.05 172.15 150.44 171.48 L 150.81 171.38 C 150.89 171.37 151.04 171.33 151.12 171.31 Z" />
</g>
<g id="#050505ff">
<path fill="#050505" opacity="1.00" d=" M 161.49 171.39 C 162.77 171.30 164.07 171.29 165.37 171.35 C 165.43 176.13 165.40 180.92 165.36 185.70 C 164.07 185.76 162.78 185.76 161.49 185.68 C 161.38 180.92 161.38 176.15 161.49 171.39 Z" />
<path fill="#050505" opacity="1.00" d=" M 191.12 171.22 C 192.96 170.62 194.75 171.41 196.25 172.43 C 197.46 171.46 198.90 171.06 200.47 171.26 C 200.71 175.17 200.56 179.08 200.59 183.00 C 200.48 185.45 200.79 188.24 199.04 190.23 C 196.10 192.26 192.26 192.07 188.98 191.06 C 188.36 190.00 185.48 188.28 187.10 187.27 C 187.58 187.24 188.53 187.17 189.01 187.13 C 190.97 186.61 192.06 189.19 193.96 188.76 C 194.53 188.63 195.65 188.38 196.22 188.26 C 196.59 186.90 196.75 185.49 196.91 184.09 C 195.28 184.70 193.79 186.08 191.93 185.73 C 188.54 185.65 186.24 182.13 186.46 178.97 C 186.14 175.82 187.47 171.62 191.12 171.22 M 192.67 173.94 C 189.22 175.31 189.79 180.16 191.88 182.53 C 193.01 182.68 194.19 182.70 195.31 182.42 C 196.93 180.53 197.15 177.74 196.27 175.49 C 195.58 174.37 193.96 173.32 192.67 173.94 Z" />
</g>
<g id="#fafafaff">
</g>
<g id="#fbfbfbff">
</g>
</svg>
