<?xml version="1.0" encoding="UTF-8" ?>
<!DOCTYPE svg PUBLIC "-//W3C//DTD SVG 1.1//EN" "http://www.w3.org/Graphics/SVG/1.1/DTD/svg11.dtd">
<svg width="245pt" height="184pt" viewBox="0 0 245 184" version="1.1" xmlns="http://www.w3.org/2000/svg">
<path fill="#000000" opacity="1.00" d=" M 88.52 33.42 C 103.01 26.42 120.07 27.41 135.17 31.77 C 145.78 35.75 151.64 46.41 155.42 56.50 C 160.08 56.40 164.73 56.43 169.39 56.43 C 164.75 57.88 160.04 59.14 155.32 60.29 C 158.49 63.20 163.42 65.28 164.04 70.02 C 164.63 79.79 157.04 86.93 154.81 95.95 C 152.53 103.62 147.57 110.28 141.22 115.07 C 154.93 119.84 169.63 119.20 183.92 118.88 C 181.72 113.95 178.77 109.43 176.21 104.69 C 184.26 100.42 193.52 101.18 202.25 102.34 C 202.01 102.98 201.55 104.26 201.31 104.89 C 197.15 106.20 192.42 106.96 189.63 110.71 C 186.07 113.57 186.33 118.39 185.39 122.45 C 175.77 122.99 166.10 123.25 156.50 122.33 C 150.11 121.67 144.11 118.89 137.70 118.40 C 130.27 119.26 123.15 121.93 115.67 122.57 C 107.01 123.16 98.44 121.63 89.99 119.97 C 98.91 133.00 107.12 146.60 117.43 158.62 C 124.27 152.70 131.60 147.32 138.07 140.99 C 141.91 137.22 142.56 131.71 144.62 127.00 C 151.92 125.88 159.34 126.18 166.70 126.10 C 166.66 127.06 166.61 128.02 166.57 128.99 C 163.26 129.94 159.79 130.49 156.70 132.03 C 144.82 140.20 133.87 149.62 122.77 158.81 C 120.81 159.87 118.90 162.76 116.37 161.65 C 113.58 160.75 111.81 158.13 110.14 155.92 C 101.44 144.11 93.70 131.63 85.17 119.70 C 73.74 139.30 67.97 161.71 64.70 184.00 L 60.56 184.00 C 62.42 176.40 63.11 168.58 65.05 161.00 C 68.61 145.37 74.83 130.46 82.55 116.45 C 70.78 107.80 61.55 94.15 62.32 79.07 C 61.87 60.62 71.60 41.68 88.52 33.42 M 81.37 42.49 C 72.19 50.45 67.84 62.44 65.95 74.14 C 75.62 72.51 85.15 70.20 94.59 67.58 C 103.82 64.99 113.50 66.25 122.94 65.91 C 123.96 67.67 124.97 69.43 125.97 71.21 C 132.73 64.34 142.99 64.39 151.94 63.58 C 151.98 62.48 152.02 61.38 152.07 60.28 C 144.97 61.95 137.82 63.74 130.49 63.85 C 129.87 62.48 128.64 59.74 128.02 58.36 C 129.37 57.84 130.73 57.33 132.09 56.81 C 131.81 58.28 131.53 59.74 131.25 61.20 C 137.96 60.32 144.62 59.05 151.28 57.82 C 149.22 52.50 148.25 46.21 143.85 42.14 C 137.02 35.05 126.94 32.79 117.47 32.29 C 104.64 30.95 91.96 35.54 81.37 42.49 M 135.14 69.11 C 133.82 69.80 133.81 70.47 135.11 71.14 C 136.43 70.46 136.44 69.78 135.14 69.11 M 90.14 71.11 C 88.82 71.80 88.81 72.47 90.11 73.14 C 91.43 72.46 91.44 71.78 90.14 71.11 M 65.55 77.03 C 66.77 84.89 67.57 93.15 71.98 100.01 C 78.41 111.86 92.17 117.84 105.12 118.83 C 117.95 118.97 131.85 117.57 142.19 109.16 C 148.83 104.21 151.07 95.93 153.12 88.33 C 148.22 87.74 142.99 88.40 138.34 86.62 C 133.75 83.45 131.42 77.97 129.06 73.08 C 127.62 73.45 126.19 73.84 124.77 74.23 C 123.19 80.54 120.69 87.31 114.94 90.99 C 107.63 93.44 99.03 93.33 91.99 89.99 C 87.03 86.10 86.56 78.87 85.11 73.19 C 78.61 74.59 72.10 75.92 65.55 77.03 Z" />
<path fill="#ffffff" opacity="1.00" d=" M 81.37 42.49 C 91.96 35.54 104.64 30.95 117.47 32.29 C 126.94 32.79 137.02 35.05 143.85 42.14 C 148.25 46.21 149.22 52.50 151.28 57.82 C 144.62 59.05 137.96 60.32 131.25 61.20 C 131.53 59.74 131.81 58.28 132.09 56.81 C 130.73 57.33 129.37 57.84 128.02 58.36 C 128.64 59.74 129.87 62.48 130.49 63.85 C 137.82 63.74 144.97 61.95 152.07 60.28 C 152.02 61.38 151.98 62.48 151.94 63.58 C 142.99 64.39 132.73 64.34 125.97 71.21 C 124.97 69.43 123.96 67.67 122.94 65.91 C 113.50 66.25 103.82 64.99 94.59 67.58 C 85.15 70.20 75.62 72.51 65.95 74.14 C 67.84 62.44 72.19 50.45 81.37 42.49 M 110.75 39.97 C 112.89 41.39 115.15 42.63 117.48 43.71 C 115.36 42.25 113.10 41.02 110.75 39.97 M 97.59 40.93 C 102.96 42.28 108.28 43.80 113.62 45.28 C 108.75 42.42 103.40 40.16 97.59 40.93 M 119.53 47.16 C 119.86 49.90 120.31 52.63 120.78 55.36 C 112.60 53.16 104.76 48.89 96.12 49.09 C 89.33 50.07 81.64 52.51 78.15 58.95 C 85.47 56.10 92.44 50.38 100.81 52.40 C 108.75 54.21 116.56 58.41 124.93 56.51 C 123.60 53.14 121.95 49.87 119.53 47.16 M 137.65 56.90 C 141.00 56.50 144.29 55.69 147.42 54.43 C 144.13 55.13 140.86 55.92 137.65 56.90 Z" />
<path fill="#000000" opacity="1.00" d=" M 110.75 39.97 C 113.10 41.02 115.36 42.25 117.48 43.71 C 115.15 42.63 112.89 41.39 110.75 39.97 Z" />
<path fill="#000000" opacity="1.00" d=" M 97.59 40.93 C 103.40 40.16 108.75 42.42 113.62 45.28 C 108.28 43.80 102.96 42.28 97.59 40.93 Z" />
<path fill="#000000" opacity="1.00" d=" M 119.53 47.16 C 121.95 49.87 123.60 53.14 124.93 56.51 C 116.56 58.41 108.75 54.21 100.81 52.40 C 92.44 50.38 85.47 56.10 78.15 58.95 C 81.64 52.51 89.33 50.07 96.12 49.09 C 104.76 48.89 112.60 53.16 120.78 55.36 C 120.31 52.63 119.86 49.90 119.53 47.16 Z" />
<path fill="#000000" opacity="1.00" d=" M 137.65 56.90 C 140.86 55.92 144.13 55.13 147.42 54.43 C 144.29 55.69 141.00 56.50 137.65 56.90 Z" />
<path fill="#ffffff" opacity="1.00" d=" M 135.14 69.11 C 136.44 69.78 136.43 70.46 135.11 71.14 C 133.81 70.47 133.82 69.80 135.14 69.11 Z" />
<path fill="#ffffff" opacity="1.00" d=" M 90.14 71.11 C 91.44 71.78 91.43 72.46 90.11 73.14 C 88.81 72.47 88.82 71.80 90.14 71.11 Z" />
<path fill="#ffffff" opacity="1.00" d=" M 65.55 77.03 C 72.10 75.92 78.61 74.59 85.11 73.19 C 86.56 78.87 87.03 86.10 91.99 89.99 C 99.03 93.33 107.63 93.44 114.94 90.99 C 120.69 87.31 123.19 80.54 124.77 74.23 C 126.19 73.84 127.62 73.45 129.06 73.08 C 131.42 77.97 133.75 83.45 138.34 86.62 C 142.99 88.40 148.22 87.74 153.12 88.33 C 151.07 95.93 148.83 104.21 142.19 109.16 C 131.85 117.57 117.95 118.97 105.12 118.83 C 92.17 117.84 78.41 111.86 71.98 100.01 C 67.57 93.15 66.77 84.89 65.55 77.03 M 88.57 99.63 C 86.67 102.88 90.09 105.34 92.17 107.32 C 91.81 104.89 91.37 102.47 90.94 100.05 C 93.50 98.68 96.07 97.34 98.58 95.90 C 94.84 94.89 89.99 95.38 88.57 99.63 M 95.58 99.71 C 95.30 100.91 95.03 102.12 94.76 103.32 C 102.69 105.51 110.80 106.97 118.92 108.22 C 119.32 107.26 119.72 106.31 120.12 105.35 C 111.81 104.17 103.39 102.91 95.58 99.71 Z" />
<path fill="#000000" opacity="1.00" d=" M 88.57 99.63 C 89.99 95.38 94.84 94.89 98.58 95.90 C 96.07 97.34 93.50 98.68 90.94 100.05 C 91.37 102.47 91.81 104.89 92.17 107.32 C 90.09 105.34 86.67 102.88 88.57 99.63 Z" />
<path fill="#000000" opacity="1.00" d=" M 95.58 99.71 C 103.39 102.91 111.81 104.17 120.12 105.35 C 119.72 106.31 119.32 107.26 118.92 108.22 C 110.80 106.97 102.69 105.51 94.76 103.32 C 95.03 102.12 95.30 100.91 95.58 99.71 Z" />
</svg>
