<?xml version="1.0" encoding="UTF-8" ?>
<!DOCTYPE svg PUBLIC "-//W3C//DTD SVG 1.1//EN" "http://www.w3.org/Graphics/SVG/1.1/DTD/svg11.dtd">
<svg width="1278pt" height="1246pt" viewBox="0 0 1278 1246" version="1.1" xmlns="http://www.w3.org/2000/svg">
<path fill="#ffffff" opacity="1.00" d=" M 0.00 0.00 L 1278.00 0.00 L 1278.00 1246.00 L 0.00 1246.00 L 0.00 0.00 M 618.04 18.10 C 570.89 26.75 524.44 38.78 478.21 51.38 C 448.12 59.74 418.08 68.54 389.01 80.05 C 374.35 86.03 359.67 92.46 346.81 101.83 C 336.58 109.09 327.52 117.84 319.00 127.01 C 295.36 152.60 277.61 183.20 252.19 207.20 C 245.05 213.89 237.21 219.93 228.57 224.54 C 217.05 229.86 204.16 230.68 192.07 234.13 C 185.83 235.92 179.48 238.17 174.59 242.59 C 171.75 245.09 170.10 248.58 168.72 252.04 C 158.83 248.79 148.37 247.68 138.00 247.59 C 120.50 247.34 103.03 249.31 85.81 252.28 C 90.49 260.28 100.23 263.63 109.03 264.39 C 132.20 266.01 154.46 257.00 177.51 256.84 C 168.57 284.27 150.72 307.56 132.28 329.30 C 112.34 352.76 91.04 375.24 74.14 401.08 C 56.32 427.88 43.91 458.89 41.91 491.21 C 43.21 491.42 44.79 492.07 45.82 490.86 C 52.17 485.45 55.49 477.08 62.48 472.37 C 64.59 470.33 69.19 472.44 67.65 475.47 C 57.63 512.90 41.59 548.65 35.01 587.00 C 30.27 612.91 30.02 639.45 32.87 665.58 C 24.01 657.62 20.25 645.56 18.85 634.07 C 16.35 612.06 20.08 590.02 20.26 568.00 C 20.79 543.22 16.33 518.71 15.15 494.01 C 13.96 484.62 15.88 475.25 15.68 465.85 C 14.42 475.17 14.39 484.63 14.07 494.03 C 9.25 579.28 1.71 664.50 2.84 749.96 C 3.62 795.46 6.75 841.13 16.03 885.77 C 20.76 909.88 23.91 934.32 29.97 958.16 C 31.77 965.33 33.67 972.52 36.72 979.27 C 43.46 994.60 53.67 1008.02 63.66 1021.32 C 77.31 1039.35 91.76 1057.22 100.78 1078.15 C 107.54 1094.67 111.47 1112.20 114.43 1129.75 C 118.36 1152.82 120.27 1176.28 126.16 1198.99 C 130.33 1215.08 136.95 1230.71 147.01 1244.03 C 151.50 1243.96 155.98 1244.03 160.47 1243.96 C 152.86 1222.79 143.02 1202.47 135.96 1181.10 C 128.57 1159.17 124.79 1136.02 125.25 1112.87 C 135.22 1111.16 143.82 1118.06 149.52 1125.47 C 161.05 1140.64 168.21 1158.75 180.75 1173.22 C 187.40 1181.18 196.34 1186.72 205.37 1191.57 C 225.44 1202.20 247.37 1208.42 268.55 1216.35 C 284.36 1222.22 300.12 1229.07 313.35 1239.75 C 313.45 1241.15 313.52 1242.56 313.61 1244.00 C 320.94 1243.95 328.27 1244.08 335.61 1243.93 C 327.07 1231.91 314.88 1223.03 302.20 1215.81 C 280.70 1203.78 257.18 1196.14 234.61 1186.46 C 219.52 1179.97 204.46 1172.77 191.68 1162.31 C 188.62 1157.90 186.75 1152.71 183.86 1148.17 C 165.71 1116.50 139.69 1090.22 121.31 1058.70 C 115.76 1049.63 111.68 1039.81 107.21 1030.21 C 105.79 1031.08 103.73 1031.48 103.23 1033.33 C 101.14 1039.98 105.09 1047.02 102.96 1053.66 C 101.49 1056.86 97.45 1055.95 94.70 1055.42 C 91.42 1040.87 85.46 1027.01 77.69 1014.31 C 70.06 1001.61 60.73 990.06 51.63 978.41 C 49.77 975.22 49.95 971.28 49.01 967.78 C 40.19 923.01 29.97 878.45 23.93 833.18 C 18.45 792.52 16.05 751.15 21.20 710.33 C 22.97 697.74 24.84 685.07 28.57 672.90 C 26.11 711.25 27.19 749.82 31.82 787.97 C 36.77 829.63 46.26 870.59 56.87 911.12 C 67.25 948.73 82.25 985.40 104.09 1017.87 C 105.17 1019.51 106.34 1021.10 107.78 1022.45 C 106.48 988.81 95.13 956.66 83.54 925.39 C 68.94 886.41 52.15 847.91 43.87 806.93 C 38.75 781.97 38.17 756.38 37.74 730.99 C 38.03 689.94 40.49 648.90 44.76 608.06 C 45.97 597.30 46.70 586.39 49.90 575.98 C 57.49 549.06 75.75 526.49 82.36 499.22 C 88.73 472.91 79.53 445.35 87.26 419.24 C 92.94 398.33 105.72 380.06 120.95 364.94 C 142.59 343.06 168.98 326.54 190.28 304.29 C 200.01 294.17 208.22 282.38 212.94 269.09 C 243.59 274.70 274.14 280.93 304.96 285.52 C 304.42 280.66 303.00 275.84 300.32 271.72 C 296.47 265.54 290.30 261.24 283.90 258.01 C 270.86 251.30 256.09 248.30 243.76 240.16 C 277.90 201.83 306.10 157.93 345.57 124.56 C 374.64 100.56 412.36 90.31 449.18 86.16 C 494.38 81.26 539.98 84.16 585.10 88.48 C 636.22 93.40 687.04 101.08 738.25 105.07 C 738.93 116.48 734.88 128.45 726.00 135.95 C 717.13 143.79 705.45 146.90 694.40 150.23 C 686.49 158.71 679.08 167.66 671.03 176.01 C 657.92 189.87 643.08 202.50 625.74 210.75 C 623.94 211.38 623.62 213.43 622.86 214.94 C 606.23 254.50 597.32 296.72 589.39 338.73 C 598.47 338.89 608.99 336.20 613.82 327.78 C 617.94 320.84 615.62 312.28 611.78 305.78 C 616.73 304.77 620.56 308.20 624.69 310.17 C 627.43 310.92 631.25 311.36 633.48 309.46 C 637.87 291.39 644.68 273.93 653.46 257.54 C 663.45 238.53 675.36 220.63 686.04 202.01 C 692.76 190.51 698.49 178.48 703.86 166.31 C 711.23 168.41 709.32 178.08 714.86 182.12 C 719.47 185.53 725.67 184.63 730.97 183.74 C 732.31 183.36 734.33 183.42 734.70 181.69 C 739.38 169.08 741.90 155.81 746.01 143.02 C 749.39 132.54 754.20 121.99 762.84 114.81 C 765.02 112.80 768.11 112.55 770.89 112.04 C 784.20 110.06 797.66 111.83 810.97 112.92 C 823.28 114.10 835.69 114.31 848.03 113.42 C 848.43 107.54 844.82 101.83 839.35 99.66 C 829.69 95.60 818.97 96.95 808.77 96.67 C 811.55 87.27 824.70 85.52 826.06 75.46 C 815.74 74.01 805.21 77.27 794.93 74.89 C 791.70 74.13 788.31 72.42 786.94 69.21 C 785.53 66.21 786.17 62.87 786.70 59.75 C 775.58 64.39 771.20 77.33 760.37 82.36 C 755.02 84.99 748.93 84.88 743.14 84.55 C 741.47 65.65 736.52 46.50 740.47 27.56 C 741.33 24.80 741.44 21.45 743.39 19.24 C 766.86 22.35 790.11 27.32 812.81 34.08 C 851.00 45.55 887.77 62.97 919.02 87.95 C 947.12 110.11 970.29 138.31 987.20 169.80 C 1001.85 197.05 1012.14 226.54 1018.66 256.75 C 1021.65 257.42 1025.59 257.36 1027.34 254.38 C 1029.65 251.04 1029.79 245.63 1034.19 244.18 C 1039.12 242.51 1043.52 246.04 1047.34 248.65 C 1061.98 258.91 1072.40 274.02 1080.09 289.94 C 1085.05 300.41 1089.45 311.18 1093.03 322.22 C 1086.72 323.57 1080.32 320.49 1076.64 315.38 C 1067.44 303.10 1064.38 287.31 1054.71 275.30 C 1050.23 269.46 1043.53 265.30 1036.14 264.57 C 1037.86 278.59 1042.80 292.05 1049.67 304.34 C 1061.43 325.50 1077.64 343.64 1091.93 363.05 C 1102.35 376.85 1111.28 391.72 1118.61 407.38 C 1137.99 448.24 1149.89 492.04 1165.74 534.29 C 1180.59 573.66 1196.81 612.57 1209.35 652.78 C 1221.29 691.41 1230.58 731.36 1230.95 771.98 C 1231.30 823.02 1223.99 874.10 1229.04 925.08 C 1230.87 944.77 1238.22 963.40 1240.69 982.96 C 1242.04 993.59 1241.13 1004.53 1237.65 1014.69 C 1230.76 1034.75 1221.12 1053.69 1211.51 1072.55 C 1193.45 1107.36 1173.95 1141.50 1158.79 1177.72 C 1150.17 1198.90 1142.52 1220.98 1141.39 1244.00 C 1148.81 1243.93 1156.25 1244.14 1163.67 1243.88 C 1169.51 1223.61 1177.95 1204.20 1187.17 1185.26 C 1206.95 1145.20 1231.37 1107.39 1247.65 1065.63 C 1264.05 1024.62 1271.17 980.05 1268.82 935.96 C 1268.45 932.03 1269.88 927.79 1267.62 924.22 C 1261.60 923.64 1256.98 928.78 1251.08 928.85 C 1248.51 928.87 1246.89 926.32 1246.81 924.00 C 1246.35 885.99 1247.36 848.00 1248.58 810.03 C 1251.14 734.53 1253.46 658.44 1241.63 583.54 C 1237.48 560.07 1228.53 537.69 1217.20 516.81 C 1198.30 481.86 1173.37 450.78 1150.52 418.44 C 1138.95 401.89 1127.66 384.97 1119.47 366.45 C 1108.45 340.91 1115.37 311.45 1103.79 286.07 C 1094.61 265.92 1082.33 247.36 1069.70 229.24 C 1053.94 207.01 1036.45 186.05 1017.80 166.20 C 974.90 120.65 925.86 81.44 875.64 44.31 C 873.14 42.91 874.45 39.47 875.51 37.51 C 879.97 31.49 888.99 33.20 894.19 28.19 C 895.63 26.84 895.99 24.81 896.42 22.96 C 881.38 24.73 866.09 24.91 851.09 22.60 C 831.30 19.85 812.40 13.07 792.92 8.87 C 782.11 6.51 771.04 5.78 760.02 5.26 C 712.37 3.45 664.82 9.55 618.04 18.10 M 850.50 199.70 C 836.52 200.54 822.70 203.26 809.25 207.08 C 806.12 207.88 804.61 211.19 803.98 214.07 C 801.89 225.28 806.03 236.65 804.12 247.86 C 802.65 249.81 800.53 251.13 798.70 252.70 C 788.84 260.87 778.83 268.85 769.01 277.08 C 743.95 298.24 719.10 320.89 702.61 349.64 C 691.97 368.09 685.98 389.59 687.78 410.96 C 689.15 429.99 696.41 448.01 705.37 464.66 C 723.07 496.87 749.98 523.42 780.72 543.27 C 837.95 580.06 907.99 595.13 975.43 588.93 C 995.38 587.36 1015.11 582.07 1032.97 572.96 C 1049.93 564.24 1065.26 551.93 1076.24 536.22 C 1089.48 517.67 1095.80 494.69 1095.51 472.01 C 1095.22 449.57 1089.70 427.42 1081.26 406.71 C 1064.00 364.90 1034.05 330.16 1003.84 297.15 C 984.89 277.12 967.04 256.01 946.91 237.11 C 935.60 226.74 923.26 217.27 909.35 210.64 C 891.22 201.66 870.59 198.40 850.50 199.70 M 262.23 399.12 C 240.47 409.12 219.84 421.91 202.19 438.18 C 198.30 441.33 196.82 446.32 194.61 450.63 C 182.00 477.82 179.06 508.49 181.38 538.09 C 184.59 578.72 195.82 618.08 203.97 657.87 C 209.89 670.46 219.90 680.85 231.25 688.75 C 247.86 700.13 267.55 706.11 287.28 709.23 C 315.38 713.32 344.02 711.94 372.03 707.79 C 376.00 707.77 377.93 703.87 380.53 701.52 C 407.79 674.07 437.97 649.69 464.54 621.54 C 489.09 595.91 510.51 566.16 521.07 531.92 C 528.73 507.95 530.59 482.42 528.43 457.43 C 513.34 454.39 501.23 443.91 491.28 432.73 C 478.13 418.59 466.06 402.58 448.64 393.40 C 430.64 384.45 410.92 379.28 391.01 376.82 C 347.08 371.82 302.29 380.94 262.23 399.12 M 736.57 891.52 C 727.41 894.23 717.35 896.45 710.32 903.35 C 706.75 906.56 706.29 911.68 707.39 916.11 C 719.56 911.32 732.37 908.54 744.92 904.95 C 753.96 902.07 763.70 899.47 770.72 892.70 C 774.36 889.25 775.09 883.91 773.99 879.21 C 762.32 885.50 749.23 888.05 736.57 891.52 Z" />
<path fill="#000000" opacity="1.00" d=" M 618.04 18.10 C 664.82 9.55 712.37 3.45 760.02 5.26 C 771.04 5.78 782.11 6.51 792.92 8.87 C 812.40 13.07 831.30 19.85 851.09 22.60 C 866.09 24.91 881.38 24.73 896.42 22.96 C 895.99 24.81 895.63 26.84 894.19 28.19 C 888.99 33.20 879.97 31.49 875.51 37.51 C 874.45 39.47 873.14 42.91 875.64 44.31 C 925.86 81.44 974.90 120.65 1017.80 166.20 C 1036.45 186.05 1053.94 207.01 1069.70 229.24 C 1082.33 247.36 1094.61 265.92 1103.79 286.07 C 1115.37 311.45 1108.45 340.91 1119.47 366.45 C 1127.66 384.97 1138.95 401.89 1150.52 418.44 C 1173.37 450.78 1198.30 481.86 1217.20 516.81 C 1228.53 537.69 1237.48 560.07 1241.63 583.54 C 1253.46 658.44 1251.14 734.53 1248.58 810.03 C 1247.36 848.00 1246.35 885.99 1246.81 924.00 C 1246.89 926.32 1248.51 928.87 1251.08 928.85 C 1256.98 928.78 1261.60 923.64 1267.62 924.22 C 1269.88 927.79 1268.45 932.03 1268.82 935.96 C 1271.17 980.05 1264.05 1024.62 1247.65 1065.63 C 1231.37 1107.39 1206.95 1145.20 1187.17 1185.26 C 1177.95 1204.20 1169.51 1223.61 1163.67 1243.88 C 1156.25 1244.14 1148.81 1243.93 1141.39 1244.00 C 1142.52 1220.98 1150.17 1198.90 1158.79 1177.72 C 1173.95 1141.50 1193.45 1107.36 1211.51 1072.55 C 1221.12 1053.69 1230.76 1034.75 1237.65 1014.69 C 1241.13 1004.53 1242.04 993.59 1240.69 982.96 C 1238.22 963.40 1230.87 944.77 1229.04 925.08 C 1223.99 874.10 1231.30 823.02 1230.95 771.98 C 1230.58 731.36 1221.29 691.41 1209.35 652.78 C 1196.81 612.57 1180.59 573.66 1165.74 534.29 C 1149.89 492.04 1137.99 448.24 1118.61 407.38 C 1111.28 391.72 1102.35 376.85 1091.93 363.05 C 1077.64 343.64 1061.43 325.50 1049.67 304.34 C 1042.80 292.05 1037.86 278.59 1036.14 264.57 C 1043.53 265.30 1050.23 269.46 1054.71 275.30 C 1064.38 287.31 1067.44 303.10 1076.64 315.38 C 1080.32 320.49 1086.72 323.57 1093.03 322.22 C 1089.45 311.18 1085.05 300.41 1080.09 289.94 C 1072.40 274.02 1061.98 258.91 1047.34 248.65 C 1043.52 246.04 1039.12 242.51 1034.19 244.18 C 1029.79 245.63 1029.65 251.04 1027.34 254.38 C 1025.59 257.36 1021.65 257.42 1018.66 256.75 C 1012.14 226.54 1001.85 197.05 987.20 169.80 C 970.29 138.31 947.12 110.11 919.02 87.95 C 887.77 62.97 851.00 45.55 812.81 34.08 C 790.11 27.32 766.86 22.35 743.39 19.24 C 741.44 21.45 741.33 24.80 740.47 27.56 C 736.52 46.50 741.47 65.65 743.14 84.55 C 748.93 84.88 755.02 84.99 760.37 82.36 C 771.20 77.33 775.58 64.39 786.70 59.75 C 786.17 62.87 785.53 66.21 786.94 69.21 C 788.31 72.42 791.70 74.13 794.93 74.89 C 805.21 77.27 815.74 74.01 826.06 75.46 C 824.70 85.52 811.55 87.27 808.77 96.67 C 818.97 96.95 829.69 95.60 839.35 99.66 C 844.82 101.83 848.43 107.54 848.03 113.42 C 835.69 114.31 823.28 114.10 810.97 112.92 C 797.66 111.83 784.20 110.06 770.89 112.04 C 768.11 112.55 765.02 112.80 762.84 114.81 C 754.20 121.99 749.39 132.54 746.01 143.02 C 741.90 155.81 739.38 169.08 734.70 181.69 C 734.33 183.42 732.31 183.36 730.97 183.74 C 725.67 184.63 719.47 185.53 714.86 182.12 C 709.32 178.08 711.23 168.41 703.86 166.31 C 698.49 178.48 692.76 190.51 686.04 202.01 C 675.36 220.63 663.45 238.53 653.46 257.54 C 644.68 273.93 637.87 291.39 633.48 309.46 C 631.25 311.36 627.43 310.92 624.69 310.17 C 620.56 308.20 616.73 304.77 611.78 305.78 C 615.62 312.28 617.94 320.84 613.82 327.78 C 608.99 336.20 598.47 338.89 589.39 338.73 C 597.32 296.72 606.23 254.50 622.86 214.94 C 623.62 213.43 623.94 211.38 625.74 210.75 C 643.08 202.50 657.92 189.87 671.03 176.01 C 679.08 167.66 686.49 158.71 694.40 150.23 C 705.45 146.90 717.13 143.79 726.00 135.95 C 734.88 128.45 738.93 116.48 738.25 105.07 C 687.04 101.08 636.22 93.40 585.10 88.48 C 539.98 84.16 494.38 81.26 449.18 86.16 C 412.36 90.31 374.64 100.56 345.57 124.56 C 306.10 157.93 277.90 201.83 243.76 240.16 C 256.09 248.30 270.86 251.30 283.90 258.01 C 290.30 261.24 296.47 265.54 300.32 271.72 C 303.00 275.84 304.42 280.66 304.96 285.52 C 274.14 280.93 243.59 274.70 212.94 269.09 C 208.22 282.38 200.01 294.17 190.28 304.29 C 168.98 326.54 142.59 343.06 120.95 364.94 C 105.72 380.06 92.94 398.33 87.26 419.24 C 79.53 445.35 88.73 472.91 82.36 499.22 C 75.75 526.49 57.49 549.06 49.90 575.98 C 46.70 586.39 45.97 597.30 44.76 608.06 C 40.49 648.90 38.03 689.94 37.74 730.99 C 38.17 756.38 38.75 781.97 43.87 806.93 C 52.15 847.91 68.94 886.41 83.54 925.39 C 95.13 956.66 106.48 988.81 107.78 1022.45 C 106.34 1021.10 105.17 1019.51 104.09 1017.87 C 82.25 985.40 67.25 948.73 56.87 911.12 C 46.26 870.59 36.77 829.63 31.82 787.97 C 27.19 749.82 26.11 711.25 28.57 672.90 C 24.84 685.07 22.97 697.74 21.20 710.33 C 16.05 751.15 18.45 792.52 23.93 833.18 C 29.97 878.45 40.19 923.01 49.01 967.78 C 49.95 971.28 49.77 975.22 51.63 978.41 C 60.73 990.06 70.06 1001.61 77.69 1014.31 C 85.46 1027.01 91.42 1040.87 94.70 1055.42 C 97.45 1055.95 101.49 1056.86 102.96 1053.66 C 105.09 1047.02 101.14 1039.98 103.23 1033.33 C 103.73 1031.48 105.79 1031.08 107.21 1030.21 C 111.68 1039.81 115.76 1049.63 121.31 1058.70 C 139.69 1090.22 165.71 1116.50 183.86 1148.17 C 186.75 1152.71 188.62 1157.90 191.68 1162.31 C 204.46 1172.77 219.52 1179.97 234.61 1186.46 C 257.18 1196.14 280.70 1203.78 302.20 1215.81 C 314.88 1223.03 327.07 1231.91 335.61 1243.93 C 328.27 1244.08 320.94 1243.95 313.61 1244.00 C 313.52 1242.56 313.45 1241.15 313.35 1239.75 C 300.12 1229.07 284.36 1222.22 268.55 1216.35 C 247.37 1208.42 225.44 1202.20 205.37 1191.57 C 196.34 1186.72 187.40 1181.18 180.75 1173.22 C 168.21 1158.75 161.05 1140.64 149.52 1125.47 C 143.82 1118.06 135.22 1111.16 125.25 1112.87 C 124.79 1136.02 128.57 1159.17 135.96 1181.10 C 143.02 1202.47 152.86 1222.79 160.47 1243.96 C 155.98 1244.03 151.50 1243.96 147.01 1244.03 C 136.95 1230.71 130.33 1215.08 126.16 1198.99 C 120.27 1176.28 118.36 1152.82 114.43 1129.75 C 111.47 1112.20 107.54 1094.67 100.78 1078.15 C 91.76 1057.22 77.31 1039.35 63.66 1021.32 C 53.67 1008.02 43.46 994.60 36.72 979.27 C 33.67 972.52 31.77 965.33 29.97 958.16 C 23.91 934.32 20.76 909.88 16.03 885.77 C 6.75 841.13 3.62 795.46 2.84 749.96 C 1.71 664.50 9.25 579.28 14.07 494.03 C 14.39 484.63 14.42 475.17 15.68 465.85 C 15.88 475.25 13.96 484.62 15.15 494.01 C 16.33 518.71 20.79 543.22 20.26 568.00 C 20.08 590.02 16.35 612.06 18.85 634.07 C 20.25 645.56 24.01 657.62 32.87 665.58 C 30.02 639.45 30.27 612.91 35.01 587.00 C 41.59 548.65 57.63 512.90 67.65 475.47 C 69.19 472.44 64.59 470.33 62.48 472.37 C 55.49 477.08 52.17 485.45 45.82 490.86 C 44.79 492.07 43.21 491.42 41.91 491.21 C 43.91 458.89 56.32 427.88 74.14 401.08 C 91.04 375.24 112.34 352.76 132.28 329.30 C 150.72 307.56 168.57 284.27 177.51 256.84 C 154.46 257.00 132.20 266.01 109.03 264.39 C 100.23 263.63 90.49 260.28 85.81 252.28 C 103.03 249.31 120.50 247.34 138.00 247.59 C 148.37 247.68 158.83 248.79 168.72 252.04 C 170.10 248.58 171.75 245.09 174.59 242.59 C 179.48 238.17 185.83 235.92 192.07 234.13 C 204.16 230.68 217.05 229.86 228.57 224.54 C 237.21 219.93 245.05 213.89 252.19 207.20 C 277.61 183.20 295.36 152.60 319.00 127.01 C 327.52 117.84 336.58 109.09 346.81 101.83 C 359.67 92.46 374.35 86.03 389.01 80.05 C 418.08 68.54 448.12 59.74 478.21 51.38 C 524.44 38.78 570.89 26.75 618.04 18.10 M 603.87 37.67 C 580.73 42.78 556.93 44.18 533.92 49.88 C 520.26 53.51 505.54 59.21 497.91 71.91 C 516.34 68.14 535.24 66.80 554.01 68.04 C 582.54 69.78 610.27 77.17 638.45 81.42 C 658.38 84.52 678.62 85.74 698.76 84.48 C 702.98 71.33 709.14 58.86 712.63 45.47 C 714.89 36.90 716.07 27.39 712.15 19.12 C 676.26 26.44 639.87 30.94 603.87 37.67 M 1163.85 466.64 C 1170.05 507.05 1187.89 544.27 1205.01 580.98 C 1214.05 600.03 1221.99 619.59 1228.87 639.51 C 1229.38 615.81 1226.84 592.00 1221.23 568.96 C 1211.77 530.55 1191.92 494.56 1163.85 466.64 Z" />
<path fill="#ffffff" opacity="1.00" d=" M 603.87 37.67 C 639.87 30.94 676.26 26.44 712.15 19.12 C 716.07 27.39 714.89 36.90 712.63 45.47 C 709.14 58.86 702.98 71.33 698.76 84.48 C 678.62 85.74 658.38 84.52 638.45 81.42 C 610.27 77.17 582.54 69.78 554.01 68.04 C 535.24 66.80 516.34 68.14 497.91 71.91 C 505.54 59.21 520.26 53.51 533.92 49.88 C 556.93 44.18 580.73 42.78 603.87 37.67 Z" />
<path fill="#000000" opacity="1.00" d=" M 850.50 199.70 C 870.59 198.40 891.22 201.66 909.35 210.64 C 923.26 217.27 935.60 226.74 946.91 237.11 C 967.04 256.01 984.89 277.12 1003.84 297.15 C 1034.05 330.16 1064.00 364.90 1081.26 406.71 C 1089.70 427.42 1095.22 449.57 1095.51 472.01 C 1095.80 494.69 1089.48 517.67 1076.24 536.22 C 1065.26 551.93 1049.93 564.24 1032.97 572.96 C 1015.11 582.07 995.38 587.36 975.43 588.93 C 907.99 595.13 837.95 580.06 780.72 543.27 C 749.98 523.42 723.07 496.87 705.37 464.66 C 696.41 448.01 689.15 429.99 687.78 410.96 C 685.98 389.59 691.97 368.09 702.61 349.64 C 719.10 320.89 743.95 298.24 769.01 277.08 C 778.83 268.85 788.84 260.87 798.70 252.70 C 800.53 251.13 802.65 249.81 804.12 247.86 C 806.03 236.65 801.89 225.28 803.98 214.07 C 804.61 211.19 806.12 207.88 809.25 207.08 C 822.70 203.26 836.52 200.54 850.50 199.70 M 878.16 219.60 C 874.08 225.61 873.10 233.02 873.96 240.11 C 842.68 246.78 813.28 261.39 788.55 281.59 C 760.78 304.47 737.85 333.95 725.05 367.74 C 731.84 359.99 739.15 352.69 746.98 345.99 C 776.08 320.52 811.96 303.51 849.43 294.52 C 886.10 285.70 924.11 283.55 961.68 285.34 C 959.77 282.62 957.39 280.28 955.23 277.79 C 945.73 267.27 937.14 255.92 926.92 246.08 C 913.70 232.80 896.79 222.69 878.16 219.60 M 834.22 314.19 C 811.54 322.96 789.85 334.24 769.37 347.35 C 753.41 357.67 738.07 369.14 724.77 382.77 C 715.99 392.03 707.48 402.37 704.12 414.93 C 701.59 424.17 704.39 434.28 710.59 441.45 C 721.51 454.09 737.45 460.99 748.54 473.49 C 755.95 481.28 760.10 491.84 760.37 502.56 C 795.54 509.11 831.22 513.29 867.00 513.83 C 878.64 514.64 890.36 514.37 902.00 513.70 C 912.85 513.77 923.65 512.81 934.46 512.05 C 980.86 508.21 1026.82 499.33 1071.47 486.13 C 1071.74 469.24 1069.68 452.28 1065.21 435.98 C 1059.29 414.04 1048.56 393.75 1036.25 374.77 C 1023.09 354.58 1008.75 335.11 997.04 314.01 C 988.03 311.10 978.41 310.79 969.04 309.90 C 950.50 309.21 931.95 309.69 913.42 309.92 C 913.68 322.12 913.30 334.34 913.59 346.54 C 916.58 350.60 921.11 353.31 925.62 355.42 C 933.55 359.00 942.44 359.08 950.97 358.56 C 965.77 357.35 979.83 352.13 994.42 349.72 C 998.11 349.53 1002.67 348.49 1005.68 351.27 C 1006.93 356.82 1006.48 363.19 1002.71 367.72 C 997.58 374.12 989.32 376.70 981.56 378.17 C 963.57 381.09 945.18 379.00 927.43 375.46 C 915.22 372.75 902.79 369.57 892.00 363.02 C 892.00 342.54 891.99 322.06 892.01 301.58 C 872.06 301.04 852.71 307.32 834.22 314.19 M 930.96 525.91 C 923.67 526.91 916.28 526.26 909.00 527.17 C 889.01 527.94 869.00 527.64 849.00 527.71 C 835.51 527.55 822.00 527.62 808.54 526.73 C 810.09 529.33 812.32 531.42 814.53 533.45 C 826.07 543.59 840.24 550.22 854.71 555.03 C 891.44 567.03 930.74 569.49 969.07 566.40 C 991.00 564.10 1013.15 560.02 1033.16 550.38 C 1043.86 545.08 1054.17 537.69 1060.01 527.03 C 1064.13 519.52 1064.49 510.62 1062.97 502.36 C 1020.43 516.72 975.64 523.29 930.96 525.91 Z" />
<path fill="#ffffff" opacity="1.00" d=" M 878.16 219.60 C 896.79 222.69 913.70 232.80 926.92 246.08 C 937.14 255.92 945.73 267.27 955.23 277.79 C 957.39 280.28 959.77 282.62 961.68 285.34 C 924.11 283.55 886.10 285.70 849.43 294.52 C 811.96 303.51 776.08 320.52 746.98 345.99 C 739.15 352.69 731.84 359.99 725.05 367.74 C 737.85 333.95 760.78 304.47 788.55 281.59 C 813.28 261.39 842.68 246.78 873.96 240.11 C 873.10 233.02 874.08 225.61 878.16 219.60 Z" />
<path fill="#ffffff" opacity="1.00" d=" M 834.22 314.19 C 852.71 307.32 872.06 301.04 892.01 301.58 C 891.99 322.06 892.00 342.54 892.00 363.02 C 902.79 369.57 915.22 372.75 927.43 375.46 C 945.18 379.00 963.57 381.09 981.56 378.17 C 989.32 376.70 997.58 374.12 1002.71 367.72 C 1006.48 363.19 1006.93 356.82 1005.68 351.27 C 1002.67 348.49 998.11 349.53 994.42 349.72 C 979.83 352.13 965.77 357.35 950.97 358.56 C 942.44 359.08 933.55 359.00 925.62 355.42 C 921.11 353.31 916.58 350.60 913.59 346.54 C 913.30 334.34 913.68 322.12 913.42 309.92 C 931.95 309.69 950.50 309.21 969.04 309.90 C 978.41 310.79 988.03 311.10 997.04 314.01 C 1008.75 335.11 1023.09 354.58 1036.25 374.77 C 1048.56 393.75 1059.29 414.04 1065.21 435.98 C 1069.68 452.28 1071.74 469.24 1071.47 486.13 C 1026.82 499.33 980.86 508.21 934.46 512.05 C 923.65 512.81 912.85 513.77 902.00 513.70 C 890.36 514.37 878.64 514.64 867.00 513.83 C 831.22 513.29 795.54 509.11 760.37 502.56 C 760.10 491.84 755.95 481.28 748.54 473.49 C 737.45 460.99 721.51 454.09 710.59 441.45 C 704.39 434.28 701.59 424.17 704.12 414.93 C 707.48 402.37 715.99 392.03 724.77 382.77 C 738.07 369.14 753.41 357.67 769.37 347.35 C 789.85 334.24 811.54 322.96 834.22 314.19 Z" />
<path fill="#000000" opacity="1.00" d=" M 262.23 399.12 C 302.29 380.94 347.08 371.82 391.01 376.82 C 410.92 379.28 430.64 384.45 448.64 393.40 C 466.06 402.58 478.13 418.59 491.28 432.73 C 501.23 443.91 513.34 454.39 528.43 457.43 C 530.59 482.42 528.73 507.95 521.07 531.92 C 510.51 566.16 489.09 595.91 464.54 621.54 C 437.97 649.69 407.79 674.07 380.53 701.52 C 377.93 703.87 376.00 707.77 372.03 707.79 C 344.02 711.94 315.38 713.32 287.28 709.23 C 267.55 706.11 247.86 700.13 231.25 688.75 C 219.90 680.85 209.89 670.46 203.97 657.87 C 195.82 618.08 184.59 578.72 181.38 538.09 C 179.06 508.49 182.00 477.82 194.61 450.63 C 196.82 446.32 198.30 441.33 202.19 438.18 C 219.84 421.91 240.47 409.12 262.23 399.12 M 333.61 390.63 C 313.86 392.51 294.49 398.03 276.59 406.56 C 253.88 417.32 233.04 432.61 217.33 452.34 C 205.02 467.85 195.78 486.71 195.18 506.80 C 231.70 488.43 266.60 466.96 303.58 449.49 C 340.14 432.04 378.77 418.09 419.02 412.41 C 400.03 398.41 376.51 391.02 353.03 390.22 C 346.56 389.17 340.09 390.49 333.61 390.63 M 323.88 449.89 C 306.54 456.23 289.45 463.70 273.95 473.81 C 282.77 486.64 288.50 502.63 285.50 518.30 C 282.83 533.01 272.58 545.30 260.21 553.18 C 243.53 563.72 223.48 568.12 203.90 567.72 C 203.28 576.17 203.37 584.66 204.22 593.10 C 206.04 612.46 212.34 630.95 217.04 649.72 C 222.02 650.08 227.00 650.60 232.01 650.26 C 241.31 649.26 250.74 650.10 260.02 648.79 C 309.74 645.46 358.28 629.98 401.76 605.82 C 436.64 586.84 468.77 563.37 502.22 542.07 C 503.87 540.81 506.35 540.07 506.88 537.84 C 512.04 520.74 517.88 503.63 519.53 485.73 C 503.48 485.75 487.43 485.70 471.38 485.75 C 470.71 479.54 469.52 473.37 467.57 467.43 C 462.83 451.81 453.61 438.19 445.12 424.42 C 404.05 429.01 362.94 436.01 323.88 449.89 M 488.34 453.21 C 485.58 456.84 483.34 461.25 483.86 465.96 C 484.35 472.07 489.37 477.18 495.21 478.61 C 500.14 480.14 505.39 479.42 510.30 478.15 C 512.38 473.37 511.82 467.25 509.33 462.63 C 504.88 455.71 496.01 453.79 488.34 453.21 M 233.46 499.36 C 220.02 505.67 208.33 515.51 199.11 527.10 C 193.37 534.33 188.45 542.46 186.30 551.54 C 206.69 550.31 227.48 548.72 246.85 541.70 C 258.07 537.53 269.43 530.43 274.16 518.94 C 272.91 510.62 268.98 501.77 261.25 497.62 C 252.48 493.19 241.99 495.44 233.46 499.36 M 367.70 633.45 C 324.60 648.82 279.66 658.29 234.64 666.03 C 237.69 674.32 244.59 680.70 252.25 684.79 C 267.30 692.47 284.54 694.13 301.18 694.74 C 312.75 695.85 324.39 695.08 336.00 695.31 C 342.69 695.64 349.32 694.44 356.01 694.78 C 358.53 694.53 361.59 695.57 363.64 693.60 C 382.13 678.52 400.54 663.29 417.95 646.95 C 431.17 634.10 444.64 621.05 454.12 605.08 C 457.59 598.81 461.00 591.23 458.22 584.07 C 431.59 606.21 400.12 621.74 367.70 633.45 Z" />
<path fill="#ffffff" opacity="1.00" d=" M 333.61 390.63 C 340.09 390.49 346.56 389.17 353.03 390.22 C 376.51 391.02 400.03 398.41 419.02 412.41 C 378.77 418.09 340.14 432.04 303.58 449.49 C 266.60 466.96 231.70 488.43 195.18 506.80 C 195.78 486.71 205.02 467.85 217.33 452.34 C 233.04 432.61 253.88 417.32 276.59 406.56 C 294.49 398.03 313.86 392.51 333.61 390.63 Z" />
<path fill="#ffffff" opacity="1.00" d=" M 323.88 449.89 C 362.94 436.01 404.05 429.01 445.12 424.42 C 453.61 438.19 462.83 451.81 467.57 467.43 C 469.52 473.37 470.71 479.54 471.38 485.75 C 487.43 485.70 503.48 485.75 519.53 485.73 C 517.88 503.63 512.04 520.74 506.88 537.84 C 506.35 540.07 503.87 540.81 502.22 542.07 C 468.77 563.37 436.64 586.84 401.76 605.82 C 358.28 629.98 309.74 645.46 260.02 648.79 C 250.74 650.10 241.31 649.26 232.01 650.26 C 227.00 650.60 222.02 650.08 217.04 649.72 C 212.34 630.95 206.04 612.46 204.22 593.10 C 203.37 584.66 203.28 576.17 203.90 567.72 C 223.48 568.12 243.53 563.72 260.21 553.18 C 272.58 545.30 282.83 533.01 285.50 518.30 C 288.50 502.63 282.77 486.64 273.95 473.81 C 289.45 463.70 306.54 456.23 323.88 449.89 Z" />
<path fill="#ffffff" opacity="1.00" d=" M 488.34 453.21 C 496.01 453.79 504.88 455.71 509.33 462.63 C 511.82 467.25 512.38 473.37 510.30 478.15 C 505.39 479.42 500.14 480.14 495.21 478.61 C 489.37 477.18 484.35 472.07 483.86 465.96 C 483.34 461.25 485.58 456.84 488.34 453.21 Z" />
<path fill="#ffffff" opacity="1.00" d=" M 1163.85 466.64 C 1191.92 494.56 1211.77 530.55 1221.23 568.96 C 1226.84 592.00 1229.38 615.81 1228.87 639.51 C 1221.99 619.59 1214.05 600.03 1205.01 580.98 C 1187.89 544.27 1170.05 507.05 1163.85 466.64 Z" />
<path fill="#ffffff" opacity="1.00" d=" M 233.46 499.36 C 241.99 495.44 252.48 493.19 261.25 497.62 C 268.98 501.77 272.91 510.62 274.16 518.94 C 269.43 530.43 258.07 537.53 246.85 541.70 C 227.48 548.72 206.69 550.31 186.30 551.54 C 188.45 542.46 193.37 534.33 199.11 527.10 C 208.33 515.51 220.02 505.67 233.46 499.36 Z" />
<path fill="#ffffff" opacity="1.00" d=" M 930.96 525.91 C 975.64 523.29 1020.43 516.72 1062.97 502.36 C 1064.49 510.62 1064.13 519.52 1060.01 527.03 C 1054.17 537.69 1043.86 545.08 1033.16 550.38 C 1013.15 560.02 991.00 564.10 969.07 566.40 C 930.74 569.49 891.44 567.03 854.71 555.03 C 840.24 550.22 826.07 543.59 814.53 533.45 C 812.32 531.42 810.09 529.33 808.54 526.73 C 822.00 527.62 835.51 527.55 849.00 527.71 C 869.00 527.64 889.01 527.94 909.00 527.17 C 916.28 526.26 923.67 526.91 930.96 525.91 Z" />
<path fill="#ffffff" opacity="1.00" d=" M 367.70 633.45 C 400.12 621.74 431.59 606.21 458.22 584.07 C 461.00 591.23 457.59 598.81 454.12 605.08 C 444.64 621.05 431.17 634.10 417.95 646.95 C 400.54 663.29 382.13 678.52 363.64 693.60 C 361.59 695.57 358.53 694.53 356.01 694.78 C 349.32 694.44 342.69 695.64 336.00 695.31 C 324.39 695.08 312.75 695.85 301.18 694.74 C 284.54 694.13 267.30 692.47 252.25 684.79 C 244.59 680.70 237.69 674.32 234.64 666.03 C 279.66 658.29 324.60 648.82 367.70 633.45 Z" />
<path fill="#000000" opacity="1.00" d=" M 736.57 891.52 C 749.23 888.05 762.32 885.50 773.99 879.21 C 775.09 883.91 774.36 889.25 770.72 892.70 C 763.70 899.47 753.96 902.07 744.92 904.95 C 732.37 908.54 719.56 911.32 707.39 916.11 C 706.29 911.68 706.75 906.56 710.32 903.35 C 717.35 896.45 727.41 894.23 736.57 891.52 Z" />
</svg>
