<?xml version="1.0" encoding="UTF-8" ?>
<!DOCTYPE svg PUBLIC "-//W3C//DTD SVG 1.1//EN" "http://www.w3.org/Graphics/SVG/1.1/DTD/svg11.dtd">
<svg width="1008pt" height="1088pt" viewBox="0 0 1008 1088" version="1.1" xmlns="http://www.w3.org/2000/svg">
<path fill="#ffffff" opacity="1.00" d=" M 0.00 0.00 L 1008.00 0.00 L 1008.00 1088.00 L 0.00 1088.00 L 0.00 0.00 M 574.28 6.10 C 521.42 18.45 466.85 21.86 414.22 35.38 C 408.68 36.95 402.91 38.02 397.81 40.82 C 388.01 46.15 379.89 54.35 369.30 58.27 C 350.17 65.32 329.51 65.53 309.74 69.72 C 300.93 71.50 292.89 75.71 285.21 80.23 C 267.62 90.67 252.97 105.34 240.20 121.18 C 218.06 148.65 200.41 180.11 173.43 203.41 C 168.95 208.34 161.47 206.11 156.12 203.95 C 149.62 200.71 141.88 198.27 134.79 201.06 C 133.71 205.48 133.04 211.01 136.28 214.71 C 139.45 218.21 144.59 216.33 148.67 217.04 C 145.04 219.75 140.37 220.20 136.00 220.38 C 118.89 220.06 102.26 213.60 85.06 215.44 C 78.15 216.11 71.63 220.00 68.37 226.23 C 75.44 232.15 85.23 232.42 94.00 232.37 C 109.23 232.64 124.53 229.29 139.70 231.67 C 123.93 265.02 96.24 290.66 78.69 322.93 C 75.12 323.15 71.27 321.53 70.17 317.86 C 67.01 307.97 71.19 297.36 68.46 287.39 C 67.83 284.90 66.05 282.88 63.53 282.18 C 64.39 298.33 62.63 314.61 58.46 330.23 C 53.30 349.93 44.66 368.48 39.12 388.06 C 34.79 403.27 32.47 419.13 33.07 434.96 C 37.99 435.25 43.34 433.36 45.48 428.60 C 49.55 419.91 48.18 410.01 48.54 400.72 C 54.18 411.91 53.60 425.27 50.02 437.01 C 43.01 459.85 27.85 479.55 23.25 503.24 C 20.89 517.31 19.46 531.54 18.44 545.76 C 18.20 542.18 18.49 538.59 18.69 535.02 C 20.10 506.34 22.75 477.71 23.00 448.98 C 22.62 436.89 22.46 424.59 19.12 412.86 C 18.15 410.24 17.65 406.81 14.99 405.37 C 10.34 404.55 6.71 408.35 2.51 409.62 C 2.48 512.39 2.52 615.16 2.49 717.93 C 2.31 719.76 3.27 721.38 4.08 722.95 C 9.77 733.61 12.75 745.49 14.40 757.40 C 17.78 781.24 15.54 805.66 20.72 829.29 C 26.48 853.66 40.86 874.69 55.16 894.82 C 65.51 909.49 76.30 924.17 82.92 941.01 C 84.46 944.48 83.51 948.36 83.53 952.02 C 83.20 973.54 86.11 995.12 92.32 1015.73 C 99.34 1039.85 110.59 1062.41 119.37 1085.88 C 124.53 1086.09 129.69 1086.00 134.85 1085.95 C 128.65 1059.98 114.88 1036.77 106.55 1011.55 C 100.33 992.90 97.86 973.05 99.12 953.44 C 117.44 966.04 128.26 986.73 134.44 1007.58 C 134.87 1010.17 137.48 1011.24 139.33 1012.71 C 156.14 1024.08 175.14 1031.52 193.08 1040.83 C 206.52 1047.13 218.14 1056.47 230.69 1064.28 C 238.00 1068.62 245.42 1073.61 254.02 1074.77 C 257.33 1075.36 260.37 1073.62 262.20 1070.95 C 256.69 1058.30 244.96 1049.95 233.06 1043.85 C 207.23 1030.73 177.69 1024.01 155.35 1004.68 C 141.10 992.52 133.71 974.92 125.47 958.60 C 119.50 946.64 111.56 934.76 99.37 928.48 C 99.16 916.21 97.78 903.96 94.84 892.04 C 85.38 853.12 66.13 817.28 57.84 778.03 C 54.74 761.17 57.96 743.73 53.86 727.00 C 50.01 709.43 34.37 696.66 32.86 678.32 C 29.86 645.41 30.63 612.31 31.81 579.34 C 33.02 554.07 34.31 528.71 38.48 503.73 C 44.49 476.27 62.71 453.20 68.40 425.62 C 71.15 411.26 71.28 396.55 70.74 381.99 C 70.71 370.06 70.53 357.36 76.68 346.69 C 86.75 328.63 104.54 317.15 119.06 303.06 C 133.13 289.56 143.53 272.91 156.18 258.17 C 161.72 251.91 167.80 245.92 175.11 241.76 C 178.62 241.27 182.19 241.86 185.70 242.15 C 206.58 244.08 226.96 250.59 245.30 260.73 C 272.80 276.06 295.81 299.06 311.88 326.08 C 314.13 330.04 316.58 333.92 318.14 338.23 C 299.55 331.88 279.86 327.81 260.14 329.05 C 239.11 330.17 218.34 336.40 200.28 347.26 C 177.88 360.66 159.63 380.82 148.37 404.36 C 137.60 426.48 132.98 451.54 135.11 476.05 C 136.48 488.17 147.79 495.82 150.74 507.36 C 156.78 526.56 154.15 546.90 155.42 566.65 C 163.88 581.26 176.15 593.73 190.56 602.57 C 217.33 618.89 250.03 621.59 280.59 618.54 C 283.57 618.29 287.04 618.66 289.29 616.26 C 300.99 605.30 313.02 594.69 324.72 583.72 C 351.42 558.90 377.10 532.19 395.25 500.29 C 406.98 479.88 415.45 457.62 420.36 434.60 C 422.33 424.64 424.33 414.56 424.70 404.41 C 397.16 382.01 367.71 361.67 343.05 335.94 C 329.26 321.39 316.66 305.35 307.96 287.22 C 314.70 285.77 321.51 284.38 327.96 281.87 C 334.86 279.34 341.19 274.31 343.48 267.10 C 332.71 257.82 319.43 252.11 306.03 247.79 C 282.02 240.19 256.97 236.55 232.91 229.14 C 219.77 225.07 206.72 219.77 195.83 211.18 C 216.77 191.22 230.08 165.17 247.11 142.12 C 261.05 122.94 278.14 105.27 299.71 94.80 C 329.43 80.10 363.23 76.59 395.96 76.76 C 445.52 77.66 494.43 87.27 542.40 99.10 C 541.69 105.64 538.47 112.34 532.29 115.27 C 522.82 119.80 512.02 118.22 501.91 119.42 C 501.78 122.97 502.41 126.49 502.50 130.03 C 503.12 143.48 501.48 156.98 498.20 170.03 C 492.98 191.41 483.72 211.46 476.09 232.02 C 470.57 247.10 465.75 262.80 465.73 279.01 C 465.39 295.91 471.07 312.61 480.41 326.58 C 482.56 329.51 486.58 332.58 484.81 336.69 C 482.08 342.10 475.83 344.54 472.73 349.69 C 470.99 353.09 473.67 356.63 476.44 358.45 C 492.11 360.97 508.59 357.29 521.67 348.29 C 520.32 331.57 520.71 314.59 524.19 298.13 C 527.86 280.07 535.44 262.93 545.60 247.60 C 555.89 231.88 568.46 217.86 580.53 203.52 C 581.25 202.38 582.74 201.52 582.68 200.03 C 581.72 178.95 580.90 157.50 585.69 136.79 C 588.74 123.86 594.88 110.82 606.14 103.13 C 609.07 101.29 612.13 98.58 615.85 99.26 C 627.63 100.75 639.06 104.72 651.01 104.93 C 658.56 105.35 667.25 101.99 669.38 94.03 C 659.94 89.16 648.80 91.80 639.05 88.14 C 636.83 87.42 635.13 85.79 633.66 84.06 C 637.15 82.93 640.74 81.91 643.85 79.87 C 653.38 73.89 658.70 63.17 668.34 57.30 C 671.73 55.11 675.66 53.99 679.59 53.20 C 694.02 69.41 713.61 79.46 731.01 91.99 C 742.83 100.55 755.42 109.67 761.70 123.31 C 765.74 131.69 764.98 141.55 761.44 149.97 C 774.75 155.15 785.33 165.98 791.12 178.93 C 801.06 200.53 803.00 224.65 810.88 246.94 C 815.99 261.93 824.64 275.39 833.80 288.19 C 847.20 306.82 862.69 324.06 873.72 344.30 C 880.52 357.02 885.82 370.48 891.19 383.85 C 908.70 428.89 922.68 475.18 936.45 521.47 C 958.34 592.27 969.90 666.85 964.81 741.01 C 962.61 780.47 978.11 818.54 976.07 858.00 C 975.35 874.98 968.29 890.77 960.60 905.63 C 949.99 926.13 937.57 945.83 929.72 967.64 C 916.04 1006.56 906.87 1046.89 893.68 1085.97 C 898.73 1086.03 903.80 1085.99 908.86 1085.99 C 937.90 1010.85 972.61 938.00 1000.38 862.35 C 1002.09 862.19 1003.82 862.09 1005.55 861.90 C 1005.46 841.67 1005.49 821.44 1005.54 801.21 C 1000.37 801.14 995.21 801.19 990.06 801.16 C 989.54 804.35 989.63 807.76 988.08 810.68 C 986.32 806.68 985.91 802.15 983.59 798.41 C 982.67 796.66 979.92 796.21 980.01 793.98 C 978.61 773.02 978.46 751.99 979.00 731.00 C 980.23 676.97 986.47 623.06 984.96 568.98 C 984.05 540.52 980.97 511.97 973.37 484.47 C 964.67 454.04 947.58 426.99 929.95 401.03 C 914.25 377.62 897.71 354.46 886.49 328.46 C 876.44 304.39 873.13 278.33 866.63 253.23 C 862.50 236.93 856.81 220.74 847.21 206.80 C 836.37 190.93 822.31 177.67 810.17 162.85 C 796.36 146.31 783.11 129.30 769.20 112.84 C 746.48 85.71 720.90 60.16 689.67 42.95 C 689.81 40.76 689.77 38.15 691.76 36.71 C 695.96 33.78 701.44 34.69 706.09 33.00 C 708.47 32.37 709.94 30.23 710.46 27.92 C 671.69 22.25 633.28 14.06 595.66 3.10 C 588.36 0.86 581.34 4.78 574.28 6.10 M 633.96 190.95 C 633.98 199.25 634.11 207.57 633.91 215.87 C 630.96 219.82 626.82 222.82 623.32 226.31 C 606.41 242.06 589.15 257.56 574.25 275.27 C 562.32 289.50 551.85 305.34 545.98 323.08 C 540.60 338.80 539.39 355.84 542.04 372.21 C 543.09 379.13 546.34 385.43 549.48 391.60 C 555.49 402.92 562.59 413.61 569.89 424.13 C 580.00 438.16 590.16 452.33 602.52 464.49 C 617.16 477.10 634.68 486.04 652.91 492.25 C 672.09 498.75 692.12 502.47 712.23 504.54 C 739.06 507.44 766.11 506.84 793.05 506.28 C 797.44 506.43 800.82 503.31 804.41 501.28 C 827.49 486.95 849.29 468.83 862.64 444.80 C 862.85 426.26 862.76 407.71 862.69 389.17 C 861.20 376.05 848.10 369.28 843.14 357.87 C 839.59 350.08 840.56 341.24 842.27 333.11 C 827.53 314.05 813.31 294.59 798.00 275.97 C 787.73 263.01 775.63 251.65 765.24 238.78 C 751.87 222.92 739.17 206.13 722.66 193.33 C 711.79 184.84 698.77 178.64 684.88 177.56 C 666.98 176.15 649.37 182.31 633.96 190.95 M 530.14 762.13 C 514.40 773.63 500.76 787.65 486.64 801.03 C 505.17 809.78 526.76 811.18 546.55 806.26 C 561.40 802.47 575.99 794.65 584.71 781.66 C 592.06 771.10 594.42 757.71 592.89 745.08 C 586.00 743.89 578.94 742.87 571.96 744.01 C 556.58 745.75 542.51 753.17 530.14 762.13 Z" />
<path fill="#000000" opacity="1.00" d=" M 574.28 6.10 C 581.34 4.78 588.36 0.86 595.66 3.10 C 633.28 14.06 671.69 22.25 710.46 27.92 C 709.94 30.23 708.47 32.37 706.09 33.00 C 701.44 34.69 695.96 33.78 691.76 36.71 C 689.77 38.15 689.81 40.76 689.67 42.95 C 720.90 60.16 746.48 85.71 769.20 112.84 C 783.11 129.30 796.36 146.31 810.17 162.85 C 822.31 177.67 836.37 190.93 847.21 206.80 C 856.81 220.74 862.50 236.93 866.63 253.23 C 873.13 278.33 876.44 304.39 886.49 328.46 C 897.71 354.46 914.25 377.62 929.95 401.03 C 947.58 426.99 964.67 454.04 973.37 484.47 C 980.97 511.97 984.05 540.52 984.96 568.98 C 986.47 623.06 980.23 676.97 979.00 731.00 C 978.46 751.99 978.61 773.02 980.01 793.98 C 979.92 796.21 982.67 796.66 983.59 798.41 C 985.91 802.15 986.32 806.68 988.08 810.68 C 989.63 807.76 989.54 804.35 990.06 801.16 C 995.21 801.19 1000.37 801.14 1005.54 801.21 C 1005.49 821.44 1005.46 841.67 1005.55 861.90 C 1003.82 862.09 1002.09 862.19 1000.38 862.35 C 972.61 938.00 937.90 1010.85 908.86 1085.99 C 903.80 1085.99 898.73 1086.03 893.68 1085.97 C 906.87 1046.89 916.04 1006.56 929.72 967.64 C 937.57 945.83 949.99 926.13 960.60 905.63 C 968.29 890.77 975.35 874.98 976.07 858.00 C 978.11 818.54 962.61 780.47 964.81 741.01 C 969.90 666.85 958.34 592.27 936.45 521.47 C 922.68 475.18 908.70 428.89 891.19 383.85 C 885.82 370.48 880.52 357.02 873.72 344.30 C 862.69 324.06 847.20 306.82 833.80 288.19 C 824.64 275.39 815.99 261.93 810.88 246.94 C 803.00 224.65 801.06 200.53 791.12 178.93 C 785.33 165.98 774.75 155.15 761.44 149.97 C 764.98 141.55 765.74 131.69 761.70 123.31 C 755.42 109.67 742.83 100.55 731.01 91.99 C 713.61 79.46 694.02 69.41 679.59 53.20 C 675.66 53.99 671.73 55.11 668.34 57.30 C 658.70 63.17 653.38 73.89 643.85 79.87 C 640.74 81.91 637.15 82.93 633.66 84.06 C 635.13 85.79 636.83 87.42 639.05 88.14 C 648.80 91.80 659.94 89.16 669.38 94.03 C 667.25 101.99 658.56 105.35 651.01 104.93 C 639.06 104.72 627.63 100.75 615.85 99.26 C 612.13 98.58 609.07 101.29 606.14 103.13 C 594.88 110.82 588.74 123.86 585.69 136.79 C 580.90 157.50 581.72 178.95 582.68 200.03 C 582.74 201.52 581.25 202.38 580.53 203.52 C 568.46 217.86 555.89 231.88 545.60 247.60 C 535.44 262.93 527.86 280.07 524.19 298.13 C 520.71 314.59 520.32 331.57 521.67 348.29 C 508.59 357.29 492.11 360.97 476.44 358.45 C 473.67 356.63 470.99 353.09 472.73 349.69 C 475.83 344.54 482.08 342.10 484.81 336.69 C 486.58 332.58 482.56 329.51 480.41 326.58 C 471.07 312.61 465.39 295.91 465.73 279.01 C 465.75 262.80 470.57 247.10 476.09 232.02 C 483.72 211.46 492.98 191.41 498.20 170.03 C 501.48 156.98 503.12 143.48 502.50 130.03 C 502.41 126.49 501.78 122.97 501.91 119.42 C 512.02 118.22 522.82 119.80 532.29 115.27 C 538.47 112.34 541.69 105.64 542.40 99.10 C 494.43 87.27 445.52 77.66 395.96 76.76 C 363.23 76.59 329.43 80.10 299.71 94.80 C 278.14 105.27 261.05 122.94 247.11 142.12 C 230.08 165.17 216.77 191.22 195.83 211.18 C 206.72 219.77 219.77 225.07 232.91 229.14 C 256.97 236.55 282.02 240.19 306.03 247.79 C 319.43 252.11 332.71 257.82 343.48 267.10 C 341.19 274.31 334.86 279.34 327.96 281.87 C 321.51 284.38 314.70 285.77 307.96 287.22 C 316.66 305.35 329.26 321.39 343.05 335.94 C 367.71 361.67 397.16 382.01 424.70 404.41 C 424.33 414.56 422.33 424.64 420.36 434.60 C 415.45 457.62 406.98 479.88 395.25 500.29 C 377.10 532.19 351.42 558.90 324.72 583.72 C 313.02 594.69 300.99 605.30 289.29 616.26 C 287.04 618.66 283.57 618.29 280.59 618.54 C 250.03 621.59 217.33 618.89 190.56 602.57 C 176.15 593.73 163.88 581.26 155.42 566.65 C 154.15 546.90 156.78 526.56 150.74 507.36 C 147.79 495.82 136.48 488.17 135.11 476.05 C 132.98 451.54 137.60 426.48 148.37 404.36 C 159.63 380.82 177.88 360.66 200.28 347.26 C 218.34 336.40 239.11 330.17 260.14 329.05 C 279.86 327.81 299.55 331.88 318.14 338.23 C 316.58 333.92 314.13 330.04 311.88 326.08 C 295.81 299.06 272.80 276.06 245.30 260.73 C 226.96 250.59 206.58 244.08 185.70 242.15 C 182.19 241.86 178.62 241.27 175.11 241.76 C 167.80 245.92 161.72 251.91 156.18 258.17 C 143.53 272.91 133.13 289.56 119.06 303.06 C 104.54 317.15 86.75 328.63 76.68 346.69 C 70.53 357.36 70.71 370.06 70.74 381.99 C 71.28 396.55 71.15 411.26 68.40 425.62 C 62.71 453.20 44.49 476.27 38.48 503.73 C 34.31 528.71 33.02 554.07 31.81 579.34 C 30.63 612.31 29.86 645.41 32.86 678.32 C 34.37 696.66 50.01 709.43 53.86 727.00 C 57.96 743.73 54.74 761.17 57.84 778.03 C 66.13 817.28 85.38 853.12 94.84 892.04 C 97.78 903.96 99.16 916.21 99.37 928.48 C 111.56 934.76 119.50 946.64 125.47 958.60 C 133.71 974.92 141.10 992.52 155.35 1004.68 C 177.69 1024.01 207.23 1030.73 233.06 1043.85 C 244.96 1049.95 256.69 1058.30 262.20 1070.95 C 260.37 1073.62 257.33 1075.36 254.02 1074.77 C 245.42 1073.61 238.00 1068.62 230.69 1064.28 C 218.14 1056.47 206.52 1047.13 193.08 1040.83 C 175.14 1031.52 156.14 1024.08 139.33 1012.71 C 137.48 1011.24 134.87 1010.17 134.44 1007.58 C 128.26 986.73 117.44 966.04 99.12 953.44 C 97.86 973.05 100.33 992.90 106.55 1011.55 C 114.88 1036.77 128.65 1059.98 134.85 1085.95 C 129.69 1086.00 124.53 1086.09 119.37 1085.88 C 110.59 1062.41 99.34 1039.85 92.32 1015.73 C 86.11 995.12 83.20 973.54 83.53 952.02 C 83.51 948.36 84.46 944.48 82.92 941.01 C 76.30 924.17 65.51 909.49 55.16 894.82 C 40.86 874.69 26.48 853.66 20.72 829.29 C 15.54 805.66 17.78 781.24 14.40 757.40 C 12.75 745.49 9.77 733.61 4.08 722.95 C 3.27 721.38 2.31 719.76 2.49 717.93 C 2.52 615.16 2.48 512.39 2.51 409.62 C 6.71 408.35 10.34 404.55 14.99 405.37 C 17.65 406.81 18.15 410.24 19.12 412.86 C 22.46 424.59 22.62 436.89 23.00 448.98 C 22.75 477.71 20.10 506.34 18.69 535.02 C 18.49 538.59 18.20 542.18 18.44 545.76 C 19.46 531.54 20.89 517.31 23.25 503.24 C 27.85 479.55 43.01 459.85 50.02 437.01 C 53.60 425.27 54.18 411.91 48.54 400.72 C 48.18 410.01 49.55 419.91 45.48 428.60 C 43.34 433.36 37.99 435.25 33.07 434.96 C 32.47 419.13 34.79 403.27 39.12 388.06 C 44.66 368.48 53.30 349.93 58.46 330.23 C 62.63 314.61 64.39 298.33 63.53 282.18 C 66.05 282.88 67.83 284.90 68.46 287.39 C 71.19 297.36 67.01 307.97 70.17 317.86 C 71.27 321.53 75.12 323.15 78.69 322.93 C 96.24 290.66 123.93 265.02 139.70 231.67 C 124.53 229.29 109.23 232.64 94.00 232.37 C 85.23 232.42 75.44 232.15 68.37 226.23 C 71.63 220.00 78.15 216.11 85.06 215.44 C 102.26 213.60 118.89 220.06 136.00 220.38 C 140.37 220.20 145.04 219.75 148.67 217.04 C 144.59 216.33 139.45 218.21 136.28 214.71 C 133.04 211.01 133.71 205.48 134.79 201.06 C 141.88 198.27 149.62 200.71 156.12 203.95 C 161.47 206.11 168.95 208.34 173.43 203.41 C 200.41 180.11 218.06 148.65 240.20 121.18 C 252.97 105.34 267.62 90.67 285.21 80.23 C 292.89 75.71 300.93 71.50 309.74 69.72 C 329.51 65.53 350.17 65.32 369.30 58.27 C 379.89 54.35 388.01 46.15 397.81 40.82 C 402.91 38.02 408.68 36.95 414.22 35.38 C 466.85 21.86 521.42 18.45 574.28 6.10 M 583.02 23.00 C 583.02 41.61 582.92 60.22 583.07 78.83 C 592.10 76.99 600.67 72.75 607.27 66.27 C 619.13 54.82 626.24 39.42 638.27 28.10 C 620.04 24.98 601.63 20.59 583.02 23.00 M 556.49 23.40 C 528.35 32.03 499.10 36.00 470.19 41.07 C 442.93 46.01 415.11 51.01 390.12 63.51 C 417.02 60.10 444.33 62.12 470.94 66.89 C 496.18 71.35 521.26 77.32 546.93 78.70 C 546.72 67.96 552.54 58.52 557.29 49.30 C 560.16 43.43 563.84 37.64 564.41 30.98 C 564.78 26.78 560.63 22.63 556.49 23.40 M 629.54 64.52 C 627.95 66.36 626.28 68.24 625.62 70.64 C 628.76 69.29 630.91 66.48 633.92 64.91 C 640.28 61.04 647.85 58.50 652.63 52.51 C 655.20 48.96 652.18 44.86 649.03 43.01 C 642.46 50.11 635.79 57.14 629.54 64.52 M 557.61 93.95 C 557.53 97.61 557.51 101.30 556.74 104.90 C 555.11 113.71 550.40 121.45 547.37 129.78 C 554.71 130.70 559.98 124.15 567.17 124.24 C 566.43 117.11 567.94 110.05 568.21 102.95 C 568.15 100.02 567.89 96.55 565.35 94.63 C 563.05 93.09 560.16 93.85 557.61 93.95 M 578.02 94.17 C 577.99 97.50 577.99 100.84 578.03 104.18 C 581.34 104.19 584.65 104.19 587.97 104.18 C 588.00 100.84 588.00 97.50 587.98 94.17 C 584.66 94.20 581.34 94.20 578.02 94.17 M 547.03 160.02 C 541.54 169.05 540.33 180.05 541.92 190.35 C 538.44 190.59 535.41 193.36 536.01 197.04 C 536.53 200.47 537.55 205.74 541.81 206.00 C 543.29 202.48 542.13 198.66 542.74 195.07 C 548.23 182.61 555.00 170.57 558.32 157.27 C 559.39 153.12 559.60 148.67 557.89 144.66 C 553.80 149.42 550.33 154.70 547.03 160.02 M 522.57 145.03 C 523.00 147.91 523.77 150.95 522.62 153.78 C 521.27 158.18 517.55 161.47 516.53 165.97 C 516.73 168.61 519.80 169.49 521.91 170.29 C 525.13 164.77 527.69 158.58 527.73 152.11 C 527.78 148.89 525.68 145.95 522.57 145.03 M 559.02 197.00 C 558.50 200.46 560.42 203.57 562.28 206.30 C 565.09 201.23 568.32 195.20 566.49 189.29 C 562.17 188.83 559.35 193.16 559.02 197.00 M 520.42 190.33 C 517.77 192.91 515.45 196.96 517.19 200.67 C 518.09 202.77 519.20 205.71 521.84 205.94 C 523.92 204.44 523.88 201.39 524.03 199.06 C 523.94 196.01 524.28 192.21 521.84 189.95 C 521.49 190.05 520.78 190.24 520.42 190.33 M 812.79 216.84 C 815.85 223.07 819.55 228.97 822.96 235.02 C 832.74 251.61 843.12 268.27 857.36 281.44 C 855.55 269.75 851.72 258.35 846.06 247.96 C 838.65 234.42 826.95 223.11 812.79 216.84 M 490.19 243.08 C 487.99 247.50 486.32 252.17 484.75 256.84 C 483.36 261.15 481.82 265.55 482.04 270.15 C 486.02 269.40 487.46 265.12 488.91 261.88 C 491.76 254.31 495.37 246.66 495.42 238.43 C 492.81 238.64 491.34 241.02 490.19 243.08 M 281.99 261.19 C 285.17 263.11 288.78 264.14 292.03 265.94 C 297.77 268.67 303.55 271.86 310.01 272.33 C 313.66 272.35 316.75 270.12 318.50 267.03 C 310.50 263.22 301.75 261.22 293.04 259.82 C 289.34 259.56 285.16 258.75 281.99 261.19 M 487.98 304.84 C 489.07 311.45 494.85 315.99 500.96 317.85 C 499.73 306.87 502.91 295.97 501.75 285.02 C 501.50 281.73 499.45 279.03 496.86 277.16 C 490.23 284.48 486.21 294.95 487.98 304.84 M 169.85 400.83 C 157.06 419.58 150.16 442.21 150.03 464.89 C 154.05 469.98 158.63 474.93 160.75 481.26 C 168.67 501.94 163.70 524.46 166.41 545.92 C 168.07 562.61 177.07 578.57 190.92 588.14 C 203.95 597.06 219.87 600.34 235.34 601.82 C 245.16 603.19 255.13 602.25 264.97 603.31 C 270.85 602.71 276.77 602.82 282.68 602.67 C 289.21 597.61 295.20 591.87 301.41 586.41 C 315.07 573.41 328.55 560.18 341.05 546.04 C 353.00 532.86 363.88 518.77 374.36 504.40 C 381.07 495.40 388.49 486.84 394.01 477.02 C 399.00 466.00 402.95 454.45 405.34 442.58 C 407.20 432.60 408.01 422.03 404.68 412.26 C 401.65 403.25 393.58 396.05 384.26 394.23 C 381.12 395.91 378.24 400.04 380.46 403.52 C 385.19 410.30 394.41 412.24 398.81 419.34 C 401.11 423.39 397.27 427.04 394.62 429.68 C 385.92 430.03 376.84 426.56 371.67 419.35 C 361.35 405.33 361.39 386.60 351.75 372.23 C 349.31 368.30 345.19 365.99 341.44 363.52 C 327.64 354.67 312.01 348.68 295.81 346.10 C 247.99 338.23 196.78 360.57 169.85 400.83 M 915.15 399.71 C 914.34 403.31 913.20 407.14 914.13 410.82 C 923.46 438.13 934.07 464.98 943.85 492.13 C 951.70 513.51 958.61 535.23 964.78 557.15 C 967.62 537.96 966.54 518.06 960.50 499.56 C 955.80 484.50 948.08 470.68 941.62 456.36 C 935.60 443.28 930.87 429.44 929.32 415.06 C 924.25 414.43 921.51 409.76 919.49 405.60 C 918.27 403.49 917.67 400.66 915.15 399.71 M 21.31 684.05 C 22.36 704.05 24.16 724.04 27.09 743.86 C 30.33 762.88 33.60 781.90 37.07 800.88 C 41.29 823.29 45.90 845.87 55.11 866.86 C 62.40 883.24 72.15 898.53 83.79 912.16 C 82.94 903.90 81.29 895.74 79.16 887.72 C 69.02 850.57 51.09 815.94 42.59 778.29 C 39.62 761.80 42.78 744.56 37.56 728.42 C 34.65 719.05 28.48 711.19 24.90 702.12 C 22.54 696.38 22.30 690.10 21.31 684.05 Z" />
<path fill="#ffffff" opacity="1.00" d=" M 583.02 23.00 C 601.63 20.59 620.04 24.98 638.27 28.10 C 626.24 39.42 619.13 54.82 607.27 66.27 C 600.67 72.75 592.10 76.99 583.07 78.83 C 582.92 60.22 583.02 41.61 583.02 23.00 Z" />
<path fill="#ffffff" opacity="1.00" d=" M 556.49 23.40 C 560.63 22.63 564.78 26.78 564.41 30.98 C 563.84 37.64 560.16 43.43 557.29 49.30 C 552.54 58.52 546.72 67.96 546.93 78.70 C 521.26 77.32 496.18 71.35 470.94 66.89 C 444.33 62.12 417.02 60.10 390.12 63.51 C 415.11 51.01 442.93 46.01 470.19 41.07 C 499.10 36.00 528.35 32.03 556.49 23.40 Z" />
<path fill="#ffffff" opacity="1.00" d=" M 629.54 64.52 C 635.79 57.14 642.46 50.11 649.03 43.01 C 652.18 44.86 655.20 48.96 652.63 52.51 C 647.85 58.50 640.28 61.04 633.92 64.91 C 630.91 66.48 628.76 69.29 625.62 70.64 C 626.28 68.24 627.95 66.36 629.54 64.52 Z" />
<path fill="#ffffff" opacity="1.00" d=" M 557.61 93.95 C 560.16 93.85 563.05 93.09 565.35 94.63 C 567.89 96.55 568.15 100.02 568.21 102.95 C 567.94 110.05 566.43 117.11 567.17 124.24 C 559.98 124.15 554.71 130.70 547.37 129.78 C 550.40 121.45 555.11 113.71 556.74 104.90 C 557.51 101.30 557.53 97.61 557.61 93.95 Z" />
<path fill="#ffffff" opacity="1.00" d=" M 578.02 94.17 C 581.34 94.20 584.66 94.20 587.98 94.17 C 588.00 97.50 588.00 100.84 587.97 104.18 C 584.65 104.19 581.34 104.19 578.03 104.18 C 577.99 100.84 577.99 97.50 578.02 94.17 Z" />
<path fill="#ffffff" opacity="1.00" d=" M 547.03 160.02 C 550.33 154.70 553.80 149.42 557.89 144.66 C 559.60 148.67 559.39 153.12 558.32 157.27 C 555.00 170.57 548.23 182.61 542.74 195.07 C 542.13 198.66 543.29 202.48 541.81 206.00 C 537.55 205.74 536.53 200.47 536.01 197.04 C 535.41 193.36 538.44 190.59 541.92 190.35 C 540.33 180.05 541.54 169.05 547.03 160.02 Z" />
<path fill="#ffffff" opacity="1.00" d=" M 522.57 145.03 C 525.68 145.95 527.78 148.89 527.73 152.11 C 527.69 158.58 525.13 164.77 521.91 170.29 C 519.80 169.49 516.73 168.61 516.53 165.97 C 517.55 161.47 521.27 158.18 522.62 153.78 C 523.77 150.95 523.00 147.91 522.57 145.03 Z" />
<path fill="#000000" opacity="1.00" d=" M 633.96 190.95 C 649.37 182.31 666.98 176.15 684.88 177.56 C 698.77 178.64 711.79 184.84 722.66 193.33 C 739.17 206.13 751.87 222.92 765.24 238.78 C 775.63 251.65 787.73 263.01 798.00 275.97 C 813.31 294.59 827.53 314.05 842.27 333.11 C 840.56 341.24 839.59 350.08 843.14 357.87 C 848.10 369.28 861.20 376.05 862.69 389.17 C 862.76 407.71 862.85 426.26 862.64 444.80 C 849.29 468.83 827.49 486.95 804.41 501.28 C 800.82 503.31 797.44 506.43 793.05 506.28 C 766.11 506.84 739.06 507.44 712.23 504.54 C 692.12 502.47 672.09 498.75 652.91 492.25 C 634.68 486.04 617.16 477.10 602.52 464.49 C 590.16 452.33 580.00 438.16 569.89 424.13 C 562.59 413.61 555.49 402.92 549.48 391.60 C 546.34 385.43 543.09 379.13 542.04 372.21 C 539.39 355.84 540.60 338.80 545.98 323.08 C 551.85 305.34 562.32 289.50 574.25 275.27 C 589.15 257.56 606.41 242.06 623.32 226.31 C 626.82 222.82 630.96 219.82 633.91 215.87 C 634.11 207.57 633.98 199.25 633.96 190.95 M 649.36 197.39 C 645.94 198.86 644.03 202.38 643.81 205.98 C 650.09 204.67 656.51 203.75 662.57 201.56 C 665.25 200.38 668.53 198.79 669.14 195.62 C 662.54 195.51 655.57 194.66 649.36 197.39 M 679.81 201.21 C 682.55 201.78 685.55 201.65 688.07 203.03 C 689.06 203.73 690.64 205.67 688.71 206.37 C 673.86 214.43 659.13 222.75 645.01 232.04 C 618.74 249.31 593.47 269.35 575.46 295.45 C 563.88 312.33 556.14 332.33 556.13 352.99 C 556.31 360.75 556.19 368.96 560.03 375.97 C 568.61 392.91 578.88 408.93 589.09 424.93 C 595.02 433.54 600.09 442.97 608.01 449.99 C 623.43 464.09 642.76 473.16 662.58 479.26 C 703.46 491.73 746.68 492.69 789.07 491.24 C 790.50 491.21 791.93 490.82 793.19 490.11 C 808.51 481.10 823.29 470.42 834.08 456.10 C 843.77 443.23 848.83 427.11 848.76 411.04 C 848.80 404.07 848.66 396.99 846.92 390.22 C 842.89 377.38 830.25 369.76 825.65 357.24 C 823.29 350.98 824.73 344.16 827.27 338.21 C 822.53 336.15 818.32 332.91 815.25 328.75 C 805.91 316.80 801.91 301.91 795.55 288.37 C 793.78 285.02 791.99 281.26 788.42 279.50 C 779.24 274.54 767.41 274.10 760.20 265.79 C 752.63 256.70 747.77 245.74 740.75 236.25 C 731.66 224.49 724.37 210.72 711.84 202.16 C 702.49 195.87 689.52 195.88 679.81 201.21 Z" />
<path fill="#ffffff" opacity="1.00" d=" M 559.02 197.00 C 559.35 193.16 562.17 188.83 566.49 189.29 C 568.32 195.20 565.09 201.23 562.28 206.30 C 560.42 203.57 558.50 200.46 559.02 197.00 Z" />
<path fill="#ffffff" opacity="1.00" d=" M 520.42 190.33 C 520.78 190.24 521.49 190.05 521.84 189.95 C 524.28 192.21 523.94 196.01 524.03 199.06 C 523.88 201.39 523.92 204.44 521.84 205.94 C 519.20 205.71 518.09 202.77 517.19 200.67 C 515.45 196.96 517.77 192.91 520.42 190.33 Z" />
<path fill="#ffffff" opacity="1.00" d=" M 649.36 197.39 C 655.57 194.66 662.54 195.51 669.14 195.62 C 668.53 198.79 665.25 200.38 662.57 201.56 C 656.51 203.75 650.09 204.67 643.81 205.98 C 644.03 202.38 645.94 198.86 649.36 197.39 Z" />
<path fill="#ffffff" opacity="1.00" d=" M 679.81 201.21 C 689.52 195.88 702.49 195.87 711.84 202.16 C 724.37 210.72 731.66 224.49 740.75 236.25 C 747.77 245.74 752.63 256.70 760.20 265.79 C 767.41 274.10 779.24 274.54 788.42 279.50 C 791.99 281.26 793.78 285.02 795.55 288.37 C 801.91 301.91 805.91 316.80 815.25 328.75 C 818.32 332.91 822.53 336.15 827.27 338.21 C 824.73 344.16 823.29 350.98 825.65 357.24 C 830.25 369.76 842.89 377.38 846.92 390.22 C 848.66 396.99 848.80 404.07 848.76 411.04 C 848.83 427.11 843.77 443.23 834.08 456.10 C 823.29 470.42 808.51 481.10 793.19 490.11 C 791.93 490.82 790.50 491.21 789.07 491.24 C 746.68 492.69 703.46 491.73 662.58 479.26 C 642.76 473.16 623.43 464.09 608.01 449.99 C 600.09 442.97 595.02 433.54 589.09 424.93 C 578.88 408.93 568.61 392.91 560.03 375.97 C 556.19 368.96 556.31 360.75 556.13 352.99 C 556.14 332.33 563.88 312.33 575.46 295.45 C 593.47 269.35 618.74 249.31 645.01 232.04 C 659.13 222.75 673.86 214.43 688.71 206.37 C 690.64 205.67 689.06 203.73 688.07 203.03 C 685.55 201.65 682.55 201.78 679.81 201.21 M 673.90 311.85 C 656.06 317.76 638.43 325.63 624.27 338.25 C 610.82 350.08 601.56 366.52 598.09 384.08 C 605.29 381.64 611.60 377.18 617.45 372.43 C 630.49 361.19 640.88 347.12 654.55 336.56 C 663.54 329.71 673.83 324.48 684.80 321.67 C 708.20 316.00 733.10 319.79 756.07 311.86 C 767.66 308.01 777.57 299.03 781.59 287.37 C 745.79 295.93 709.05 300.65 673.90 311.85 M 768.12 360.12 C 756.99 371.70 743.67 381.12 729.21 388.06 C 711.87 396.55 692.97 401.38 673.96 404.35 C 662.01 405.75 649.93 400.19 638.13 403.92 C 632.41 405.76 626.47 409.27 623.82 414.86 C 636.43 417.03 649.16 418.84 662.00 418.72 C 701.00 419.59 741.15 407.73 770.85 381.84 C 786.18 368.50 798.29 351.44 805.52 332.42 C 806.17 330.32 807.94 327.85 806.15 325.83 C 804.20 322.62 800.17 322.57 796.87 322.63 C 788.45 335.95 779.52 349.14 768.12 360.12 M 684.44 343.33 C 683.72 347.77 683.49 352.48 685.33 356.70 C 688.55 364.75 696.38 369.84 704.28 372.59 C 715.58 376.43 728.62 376.84 739.49 371.42 C 746.40 368.04 751.43 360.82 751.28 353.01 C 751.85 346.13 747.84 339.29 741.77 336.13 C 735.70 333.01 728.67 332.33 721.96 332.82 C 708.97 334.11 696.26 337.83 684.44 343.33 Z" />
<path fill="#ffffff" opacity="1.00" d=" M 812.79 216.84 C 826.95 223.11 838.65 234.42 846.06 247.96 C 851.72 258.35 855.55 269.75 857.36 281.44 C 843.12 268.27 832.74 251.61 822.96 235.02 C 819.55 228.97 815.85 223.07 812.79 216.84 Z" />
<path fill="#ffffff" opacity="1.00" d=" M 490.19 243.08 C 491.34 241.02 492.81 238.64 495.42 238.43 C 495.37 246.66 491.76 254.31 488.91 261.88 C 487.46 265.12 486.02 269.40 482.04 270.15 C 481.82 265.55 483.36 261.15 484.75 256.84 C 486.32 252.17 487.99 247.50 490.19 243.08 Z" />
<path fill="#ffffff" opacity="1.00" d=" M 281.99 261.19 C 285.16 258.75 289.34 259.56 293.04 259.82 C 301.75 261.22 310.50 263.22 318.50 267.03 C 316.75 270.12 313.66 272.35 310.01 272.33 C 303.55 271.86 297.77 268.67 292.03 265.94 C 288.78 264.14 285.17 263.11 281.99 261.19 Z" />
<path fill="#ffffff" opacity="1.00" d=" M 487.98 304.84 C 486.21 294.95 490.23 284.48 496.86 277.16 C 499.45 279.03 501.50 281.73 501.75 285.02 C 502.91 295.97 499.73 306.87 500.96 317.85 C 494.85 315.99 489.07 311.45 487.98 304.84 Z" />
<path fill="#000000" opacity="1.00" d=" M 673.90 311.85 C 709.05 300.65 745.79 295.93 781.59 287.37 C 777.57 299.03 767.66 308.01 756.07 311.86 C 733.10 319.79 708.20 316.00 684.80 321.67 C 673.83 324.48 663.54 329.71 654.55 336.56 C 640.88 347.12 630.49 361.19 617.45 372.43 C 611.60 377.18 605.29 381.64 598.09 384.08 C 601.56 366.52 610.82 350.08 624.27 338.25 C 638.43 325.63 656.06 317.76 673.90 311.85 Z" />
<path fill="#000000" opacity="1.00" d=" M 768.12 360.12 C 779.52 349.14 788.45 335.95 796.87 322.63 C 800.17 322.57 804.20 322.62 806.15 325.83 C 807.94 327.85 806.17 330.32 805.52 332.42 C 798.29 351.44 786.18 368.50 770.85 381.84 C 741.15 407.73 701.00 419.59 662.00 418.72 C 649.16 418.84 636.43 417.03 623.82 414.86 C 626.47 409.27 632.41 405.76 638.13 403.92 C 649.93 400.19 662.01 405.75 673.96 404.35 C 692.97 401.38 711.87 396.55 729.21 388.06 C 743.67 381.12 756.99 371.70 768.12 360.12 Z" />
<path fill="#000000" opacity="1.00" d=" M 684.44 343.33 C 696.26 337.83 708.97 334.11 721.96 332.82 C 728.67 332.33 735.70 333.01 741.77 336.13 C 747.84 339.29 751.85 346.13 751.28 353.01 C 751.43 360.82 746.40 368.04 739.49 371.42 C 728.62 376.84 715.58 376.43 704.28 372.59 C 696.38 369.84 688.55 364.75 685.33 356.70 C 683.49 352.48 683.72 347.77 684.44 343.33 Z" />
<path fill="#ffffff" opacity="1.00" d=" M 169.85 400.83 C 196.78 360.57 247.99 338.23 295.81 346.10 C 312.01 348.68 327.64 354.67 341.44 363.52 C 345.19 365.99 349.31 368.30 351.75 372.23 C 361.39 386.60 361.35 405.33 371.67 419.35 C 376.84 426.56 385.92 430.03 394.62 429.68 C 397.27 427.04 401.11 423.39 398.81 419.34 C 394.41 412.24 385.19 410.30 380.46 403.52 C 378.24 400.04 381.12 395.91 384.26 394.23 C 393.58 396.05 401.65 403.25 404.68 412.26 C 408.01 422.03 407.20 432.60 405.34 442.58 C 402.95 454.45 399.00 466.00 394.01 477.02 C 388.49 486.84 381.07 495.40 374.36 504.40 C 363.88 518.77 353.00 532.86 341.05 546.04 C 328.55 560.18 315.07 573.41 301.41 586.41 C 295.20 591.87 289.21 597.61 282.68 602.67 C 276.77 602.82 270.85 602.71 264.97 603.31 C 255.13 602.25 245.16 603.19 235.34 601.82 C 219.87 600.34 203.95 597.06 190.92 588.14 C 177.07 578.57 168.07 562.61 166.41 545.92 C 163.70 524.46 168.67 501.94 160.75 481.26 C 158.63 474.93 154.05 469.98 150.03 464.89 C 150.16 442.21 157.06 419.58 169.85 400.83 M 261.85 397.71 C 244.93 405.26 229.27 415.24 212.98 424.02 C 210.56 424.92 211.37 427.90 210.76 429.89 C 207.09 447.29 196.90 462.97 195.75 480.97 C 195.12 488.86 198.94 497.04 206.07 500.80 C 215.73 478.45 217.50 453.71 225.95 430.97 C 226.24 429.55 227.63 429.11 228.77 428.56 C 251.58 417.98 276.78 413.59 299.25 402.17 C 305.96 398.57 312.71 394.60 317.89 388.93 C 298.82 384.65 279.26 389.83 261.85 397.71 M 332.90 426.90 C 323.08 436.52 315.98 449.66 302.83 455.28 C 302.97 448.39 303.47 441.41 302.23 434.59 C 301.46 431.16 300.40 427.47 297.76 425.00 C 284.63 423.11 269.62 423.93 259.12 433.07 C 255.95 435.32 256.79 439.70 257.04 443.04 C 258.07 451.57 265.17 457.46 267.58 465.48 C 269.64 466.24 271.82 466.91 274.04 466.50 C 279.25 465.46 283.07 461.35 288.01 459.64 C 291.01 459.79 291.94 462.92 293.09 465.16 C 276.70 474.88 256.51 475.86 240.52 486.47 C 233.70 490.84 228.66 497.82 226.77 505.71 C 243.21 500.78 259.40 494.92 275.19 488.18 C 293.83 480.02 311.98 469.93 326.69 455.70 C 338.58 444.40 347.91 430.38 353.42 414.93 C 345.49 416.52 338.49 421.17 332.90 426.90 Z" />
<path fill="#000000" opacity="1.00" d=" M 261.85 397.71 C 279.26 389.83 298.82 384.65 317.89 388.93 C 312.71 394.60 305.96 398.57 299.25 402.17 C 276.78 413.59 251.58 417.98 228.77 428.56 C 227.63 429.11 226.24 429.55 225.95 430.97 C 217.50 453.71 215.73 478.45 206.07 500.80 C 198.94 497.04 195.12 488.86 195.75 480.97 C 196.90 462.97 207.09 447.29 210.76 429.89 C 211.37 427.90 210.56 424.92 212.98 424.02 C 229.27 415.24 244.93 405.26 261.85 397.71 Z" />
<path fill="#ffffff" opacity="1.00" d=" M 915.15 399.71 C 917.67 400.66 918.27 403.49 919.49 405.60 C 921.51 409.76 924.25 414.43 929.32 415.06 C 930.87 429.44 935.60 443.28 941.62 456.36 C 948.08 470.68 955.80 484.50 960.50 499.56 C 966.54 518.06 967.62 537.96 964.78 557.15 C 958.61 535.23 951.70 513.51 943.85 492.13 C 934.07 464.98 923.46 438.13 914.13 410.82 C 913.20 407.14 914.34 403.31 915.15 399.71 Z" />
<path fill="#000000" opacity="1.00" d=" M 332.90 426.90 C 338.49 421.17 345.49 416.52 353.42 414.93 C 347.91 430.38 338.58 444.40 326.69 455.70 C 311.98 469.93 293.83 480.02 275.19 488.18 C 259.40 494.92 243.21 500.78 226.77 505.71 C 228.66 497.82 233.70 490.84 240.52 486.47 C 256.51 475.86 276.70 474.88 293.09 465.16 C 291.94 462.92 291.01 459.79 288.01 459.64 C 283.07 461.35 279.25 465.46 274.04 466.50 C 271.82 466.91 269.64 466.24 267.58 465.48 C 265.17 457.46 258.07 451.57 257.04 443.04 C 256.79 439.70 255.95 435.32 259.12 433.07 C 269.62 423.93 284.63 423.11 297.76 425.00 C 300.40 427.47 301.46 431.16 302.23 434.59 C 303.47 441.41 302.97 448.39 302.83 455.28 C 315.98 449.66 323.08 436.52 332.90 426.90 Z" />
<path fill="#ffffff" opacity="1.00" d=" M 21.31 684.05 C 22.30 690.10 22.54 696.38 24.90 702.12 C 28.48 711.19 34.65 719.05 37.56 728.42 C 42.78 744.56 39.62 761.80 42.59 778.29 C 51.09 815.94 69.02 850.57 79.16 887.72 C 81.29 895.74 82.94 903.90 83.79 912.16 C 72.15 898.53 62.40 883.24 55.11 866.86 C 45.90 845.87 41.29 823.29 37.07 800.88 C 33.60 781.90 30.33 762.88 27.09 743.86 C 24.16 724.04 22.36 704.05 21.31 684.05 Z" />
<path fill="#000000" opacity="1.00" d=" M 530.14 762.13 C 542.51 753.17 556.58 745.75 571.96 744.01 C 578.94 742.87 586.00 743.89 592.89 745.08 C 594.42 757.71 592.06 771.10 584.71 781.66 C 575.99 794.65 561.40 802.47 546.55 806.26 C 526.76 811.18 505.17 809.78 486.64 801.03 C 500.76 787.65 514.40 773.63 530.14 762.13 M 551.39 768.45 C 538.44 775.56 525.68 783.96 516.70 795.91 C 525.55 794.21 534.35 792.21 543.10 790.03 C 552.87 787.35 563.09 783.83 570.04 776.06 C 575.40 770.43 577.58 762.61 578.03 755.02 C 569.11 759.41 560.11 763.66 551.39 768.45 Z" />
<path fill="#ffffff" opacity="1.00" d=" M 551.39 768.45 C 560.11 763.66 569.11 759.41 578.03 755.02 C 577.58 762.61 575.40 770.43 570.04 776.06 C 563.09 783.83 552.87 787.35 543.10 790.03 C 534.35 792.21 525.55 794.21 516.70 795.91 C 525.68 783.96 538.44 775.56 551.39 768.45 Z" />
</svg>
