<?xml version="1.0" encoding="UTF-8" ?>
<!DOCTYPE svg PUBLIC "-//W3C//DTD SVG 1.1//EN" "http://www.w3.org/Graphics/SVG/1.1/DTD/svg11.dtd">
<svg width="886pt" height="941pt" viewBox="0 0 886 941" version="1.1" xmlns="http://www.w3.org/2000/svg">
<path fill="#ffffff" opacity="1.00" d=" M 0.00 0.00 L 886.00 0.00 L 886.00 941.00 L 0.00 941.00 L 0.00 0.00 M 359.14 25.39 C 323.41 39.49 289.63 58.24 257.92 79.86 C 250.82 85.21 242.20 87.94 234.82 92.82 C 232.30 95.36 231.21 99.07 228.34 101.29 C 195.39 126.30 164.05 153.64 136.45 184.51 C 134.05 188.04 129.20 187.36 125.57 188.64 C 123.68 191.05 121.74 193.42 119.52 195.53 C 116.92 197.87 115.70 201.31 113.13 203.70 C 115.17 204.00 117.18 204.46 119.17 204.97 C 100.28 228.66 83.84 254.39 71.05 281.89 C 70.19 283.82 68.17 284.81 66.87 286.41 C 64.21 286.74 62.32 284.92 60.86 282.96 C 59.62 285.75 58.43 288.57 57.59 291.50 L 57.15 291.53 C 55.80 294.85 56.57 298.47 56.05 301.93 C 55.21 309.59 52.36 316.92 48.40 323.49 C 47.75 324.61 47.05 325.74 46.86 327.06 C 45.05 337.22 42.56 347.27 39.43 357.11 C 41.71 357.20 43.56 358.59 45.34 359.87 C 42.42 372.74 40.41 385.80 38.57 398.87 C 36.92 403.78 33.82 408.09 32.25 413.05 C 30.21 417.78 30.84 422.99 30.77 427.98 C 30.72 446.80 30.87 465.62 30.69 484.43 L 30.83 484.53 C 32.41 497.70 28.93 510.82 29.96 523.99 C 30.06 527.54 31.70 530.71 33.01 533.93 C 33.51 543.33 33.00 552.82 33.96 562.19 C 34.41 586.40 35.45 610.60 35.41 634.81 C 33.33 635.46 32.82 637.81 32.06 639.57 C 25.62 568.89 28.29 497.71 21.03 427.08 C 19.60 416.09 20.62 405.00 20.18 393.96 C 20.84 391.92 20.43 389.70 20.49 387.60 C 14.87 388.53 11.22 394.56 5.05 393.30 C 5.00 394.47 4.95 395.64 4.89 396.81 C 3.19 398.70 2.21 401.31 2.68 403.86 C 3.89 412.42 5.09 420.99 5.51 429.64 C 5.23 431.38 4.99 433.14 4.98 434.92 C 5.05 463.33 4.95 491.75 5.03 520.16 C 7.74 519.89 9.78 521.35 11.31 523.45 C 11.34 527.90 11.30 532.35 11.51 536.80 L 10.50 536.28 C 10.52 540.18 10.57 544.09 10.36 548.00 L 11.51 545.65 C 12.71 554.70 12.50 563.85 12.94 572.95 C 13.04 579.68 13.92 586.44 12.97 593.15 C 11.29 610.49 12.75 627.93 15.21 645.12 C 15.86 649.20 15.20 653.35 15.66 657.44 C 16.89 660.59 19.05 663.44 19.43 666.89 C 21.00 679.23 22.68 691.58 25.16 703.77 C 25.64 707.83 25.43 711.95 26.07 716.00 C 26.91 722.74 25.51 729.46 25.25 736.18 C 26.07 740.20 27.94 743.98 29.90 747.57 C 33.45 756.91 39.54 765.06 44.19 773.87 C 50.50 783.24 56.57 792.80 62.77 802.25 C 64.18 804.49 66.69 805.74 68.13 807.97 C 70.26 810.79 70.52 814.51 72.48 817.42 C 76.99 824.50 81.21 831.76 85.22 839.12 C 85.66 837.85 86.10 836.59 86.55 835.34 C 89.80 838.01 92.82 840.95 95.83 843.89 C 91.62 846.41 89.39 852.63 93.03 856.56 C 123.61 891.17 162.81 917.31 204.62 936.46 C 208.83 938.26 213.05 941.13 217.86 940.32 C 221.77 940.11 224.34 936.21 224.70 932.61 C 226.41 932.53 228.12 932.44 229.84 932.36 C 218.32 919.05 201.73 911.97 185.95 905.10 C 168.80 897.80 150.80 890.46 137.90 876.45 C 135.49 876.22 133.88 874.27 132.11 872.86 C 129.48 870.48 126.55 868.39 124.26 865.67 C 122.75 862.14 122.15 858.26 120.36 854.84 C 119.24 852.35 116.94 850.71 115.52 848.43 C 98.81 822.41 75.49 801.54 58.02 776.11 C 59.35 773.94 59.83 771.27 58.81 768.88 C 48.71 741.04 41.67 712.11 37.33 682.83 C 42.46 696.35 48.78 709.38 54.08 722.84 C 60.74 739.40 65.37 756.92 66.18 774.81 C 67.71 778.35 69.92 782.54 74.09 783.30 C 76.16 783.05 76.70 780.74 76.58 779.01 C 76.59 769.10 76.52 759.18 76.60 749.27 C 75.18 749.02 73.76 748.77 72.35 748.52 C 72.08 748.93 71.56 749.73 71.29 750.14 C 71.68 747.83 72.18 745.44 71.47 743.16 C 70.43 739.01 66.65 736.18 65.78 731.96 C 65.09 729.22 65.91 726.44 66.41 723.76 C 59.95 721.76 62.50 713.68 61.25 708.72 C 53.43 696.47 46.04 683.09 45.82 668.15 C 46.26 664.41 45.85 660.64 46.16 656.90 C 46.44 653.14 50.34 651.09 51.07 647.48 L 51.37 647.30 C 51.19 631.22 51.36 615.15 51.29 599.08 C 49.93 587.46 50.67 575.74 50.51 564.06 C 50.56 562.97 49.98 562.01 49.59 561.06 C 48.44 498.00 47.72 434.38 59.16 372.09 C 59.64 369.88 60.42 367.75 60.75 365.52 L 61.35 365.49 C 61.45 358.52 63.27 351.76 64.88 345.03 C 70.29 323.30 78.13 302.20 87.98 282.11 C 88.66 280.78 89.45 279.51 90.38 278.34 C 115.95 247.32 147.58 221.28 169.09 186.98 C 171.15 183.61 173.04 180.13 175.67 177.16 C 176.75 176.83 177.77 176.35 178.71 175.73 C 191.21 166.13 202.13 154.66 211.93 142.34 L 210.75 141.98 C 211.09 141.80 211.77 141.44 212.11 141.27 C 214.62 139.11 214.49 135.40 216.80 133.08 C 218.52 131.26 219.13 128.58 221.22 127.11 C 226.61 123.03 231.84 118.74 237.00 114.37 C 254.06 101.19 271.54 88.42 290.05 77.34 C 301.07 76.42 312.16 80.12 323.13 77.62 C 332.81 77.04 342.46 78.75 352.11 79.33 C 380.02 81.54 408.03 81.96 436.02 81.95 C 437.86 81.86 439.24 83.45 441.07 83.53 C 447.56 83.93 454.02 81.53 460.50 82.73 C 463.01 83.21 464.01 85.53 463.72 87.88 C 476.55 88.68 490.11 88.25 501.93 94.11 C 509.30 97.69 514.36 105.33 514.84 113.51 C 517.99 113.49 521.28 112.79 523.66 110.57 C 529.26 106.06 530.45 97.83 536.77 94.05 C 540.94 91.39 546.02 92.22 550.60 93.06 C 550.64 94.72 550.68 96.38 550.73 98.04 C 559.48 97.76 568.23 98.00 576.99 97.89 C 581.16 97.67 585.75 99.98 589.60 97.51 C 592.64 95.54 592.00 91.24 590.37 88.55 C 587.73 84.02 581.90 80.21 576.65 82.74 C 573.79 82.60 570.93 82.59 568.08 82.35 C 567.57 80.31 566.49 78.42 564.70 77.26 C 554.03 69.56 540.87 66.19 527.93 64.97 C 505.29 62.84 482.66 66.52 460.00 66.20 C 442.04 66.19 424.04 66.94 406.12 65.85 C 393.49 62.86 380.48 60.03 367.46 62.22 C 367.37 62.77 367.17 63.86 367.08 64.40 C 358.56 64.76 349.93 63.59 341.44 62.69 C 354.79 49.65 374.47 46.59 392.39 47.38 C 392.51 45.09 393.55 42.55 396.04 42.03 C 403.37 40.57 410.73 44.06 418.05 42.41 C 418.43 40.10 420.13 38.16 422.42 37.61 C 427.63 36.27 433.02 37.48 438.31 37.24 C 438.82 34.82 440.37 32.44 442.94 31.88 C 451.54 30.13 460.25 34.11 468.84 32.19 C 482.67 29.67 496.65 34.44 510.51 32.40 C 513.79 31.75 517.87 30.87 519.27 27.39 C 528.89 28.37 538.45 26.51 548.06 26.20 C 551.27 25.91 554.08 27.73 556.81 29.14 C 561.75 32.15 566.63 35.33 570.79 39.39 C 570.77 40.08 570.75 41.45 570.74 42.14 C 571.50 43.96 572.07 46.11 573.92 47.16 C 575.98 48.55 579.02 48.10 580.69 50.13 C 589.82 61.33 597.11 73.87 605.52 85.61 C 614.26 98.22 625.01 109.36 636.98 118.94 C 652.91 131.82 670.88 141.86 689.26 150.79 C 702.07 182.53 718.66 212.54 735.87 242.05 C 740.71 251.05 745.41 260.22 751.63 268.37 C 764.83 290.41 778.55 312.21 789.63 335.42 C 791.03 339.31 790.21 343.53 790.41 347.57 C 796.83 350.89 799.38 358.34 800.05 365.11 C 799.87 368.12 802.92 369.52 804.25 371.85 C 810.29 381.03 811.07 392.51 810.77 403.20 C 815.69 404.94 815.16 410.80 815.39 415.02 C 815.39 416.82 815.34 418.87 817.08 419.97 C 820.09 422.70 822.70 426.04 823.86 429.99 C 831.37 458.90 836.47 488.37 840.82 517.91 C 846.96 557.47 853.72 597.00 857.29 636.90 C 856.62 658.09 855.87 679.52 859.81 700.47 C 860.57 705.25 860.19 710.13 860.07 714.95 C 859.13 741.29 855.49 767.57 848.79 793.07 C 846.41 802.85 842.07 812.13 836.46 820.47 C 834.66 825.13 833.93 830.15 832.56 834.96 C 830.60 842.77 827.96 851.32 820.99 856.13 C 818.88 868.18 819.28 881.87 810.90 891.69 C 810.75 897.00 812.46 904.97 805.94 907.19 C 806.33 909.72 807.05 912.33 806.46 914.90 C 805.87 918.83 802.69 921.57 801.18 925.10 C 800.15 927.41 800.47 929.99 800.46 932.45 C 803.85 932.52 807.25 932.49 810.66 932.53 C 812.16 928.56 813.51 924.55 815.02 920.59 C 818.70 921.01 822.55 918.76 823.20 914.95 C 828.74 894.32 835.75 874.14 842.89 854.03 C 846.26 843.81 851.19 834.23 855.46 824.37 C 862.71 807.81 870.37 791.39 876.94 774.56 C 878.70 774.58 880.47 774.60 882.26 774.63 C 882.26 764.45 882.22 754.27 882.28 744.09 C 882.50 740.56 880.81 737.37 879.79 734.10 C 879.10 734.13 877.72 734.18 877.04 734.21 C 877.38 728.40 874.96 722.84 875.52 717.05 C 876.54 696.69 875.90 676.29 874.46 655.98 C 873.76 643.94 871.95 632.00 871.52 619.95 C 871.32 600.26 873.06 580.31 869.86 560.82 C 869.52 551.83 868.05 542.92 867.05 533.99 C 865.52 520.85 863.44 507.79 861.26 494.76 L 860.99 494.67 C 860.43 488.02 858.57 481.57 857.77 474.95 C 857.64 473.42 856.94 472.05 856.31 470.70 C 856.46 476.31 858.76 481.86 857.12 487.46 C 855.38 487.47 853.64 487.45 851.91 487.40 C 851.61 486.27 851.33 485.14 851.06 484.02 C 846.90 458.82 841.70 433.77 834.83 409.17 C 830.51 393.19 824.93 377.60 819.34 362.04 C 821.92 365.05 823.45 368.92 826.93 371.13 C 826.00 367.81 825.20 364.46 824.67 361.06 C 825.10 358.30 825.70 355.56 826.77 352.97 C 807.62 332.30 794.86 306.74 783.77 281.09 C 767.45 243.43 755.35 203.76 734.60 168.15 C 739.70 165.28 740.52 157.02 735.45 153.72 C 730.94 151.31 725.89 150.09 721.39 147.67 C 714.53 139.18 707.43 130.79 699.03 123.77 C 698.14 119.43 695.19 115.87 692.26 112.72 C 688.58 110.36 685.65 106.79 681.57 105.13 C 678.82 101.75 675.58 98.81 672.85 95.41 C 666.92 88.26 660.05 81.98 653.88 75.05 C 640.72 63.47 626.99 52.22 611.20 44.39 C 612.31 40.89 614.48 37.88 615.96 34.54 C 613.96 33.87 611.98 33.17 609.95 32.65 C 605.24 31.81 601.02 29.64 597.02 27.12 C 591.42 26.60 585.76 27.49 580.19 26.54 L 580.87 27.16 C 577.57 27.31 575.66 24.38 573.18 22.75 C 558.48 11.43 540.25 5.92 522.09 3.43 C 510.15 1.68 498.09 0.30 486.01 0.63 C 477.30 0.88 468.57 0.27 459.90 1.22 C 425.30 3.89 391.38 12.73 359.14 25.39 M 559.05 127.49 C 539.08 131.49 519.41 139.65 504.56 153.91 C 504.80 158.69 504.38 163.48 504.82 168.24 C 505.28 170.94 506.83 174.20 509.99 174.23 C 523.14 169.71 533.78 160.45 545.58 153.44 C 555.32 147.50 566.54 143.94 577.98 143.63 C 584.14 143.33 590.25 144.50 596.43 144.17 C 596.37 136.89 605.40 136.13 607.53 130.06 C 607.50 127.88 607.41 125.71 607.27 123.53 C 591.13 123.11 574.89 124.36 559.05 127.49 M 135.20 162.37 C 136.91 159.80 135.79 156.49 135.68 153.63 C 134.66 156.44 134.85 159.46 135.20 162.37 M 577.62 159.42 C 573.24 160.83 566.15 162.88 566.68 168.59 C 565.42 169.34 564.06 170.00 562.96 170.97 C 561.29 173.79 561.59 177.23 561.20 180.37 L 562.63 180.26 L 562.12 181.88 L 563.78 180.77 C 564.23 184.45 560.05 184.99 557.84 186.78 C 528.58 205.40 508.80 235.28 493.80 265.89 C 490.05 274.17 486.20 282.41 482.81 290.84 C 481.46 294.52 480.20 298.23 478.89 301.92 C 478.52 302.90 478.15 303.87 477.78 304.85 C 475.70 310.83 473.87 316.91 471.67 322.86 C 471.49 325.08 470.82 327.70 472.39 329.59 C 473.83 331.87 476.48 332.76 478.98 333.29 C 480.42 332.93 481.88 332.63 483.35 332.38 C 483.46 333.06 483.68 334.40 483.79 335.07 C 484.59 337.34 485.34 339.63 486.19 341.90 C 487.04 343.99 487.92 346.07 488.78 348.16 C 494.77 360.79 503.31 372.03 513.06 381.98 C 527.20 396.47 543.25 409.03 556.66 424.24 C 559.48 424.76 562.27 425.45 565.11 425.88 C 569.00 426.78 573.03 427.55 576.56 429.51 C 578.66 430.67 580.07 432.69 582.01 434.06 C 586.14 435.88 590.69 436.43 595.15 436.85 C 597.12 437.30 599.14 437.56 601.17 437.79 C 605.52 438.81 610.03 440.49 612.51 444.48 C 620.72 445.55 628.80 442.73 637.00 443.63 C 640.05 443.92 641.94 446.53 642.81 449.24 C 647.19 449.21 651.59 449.20 655.98 449.24 C 657.62 449.05 659.60 449.70 661.00 448.55 L 661.79 449.06 C 670.52 449.48 679.29 449.05 688.05 449.20 C 691.09 445.13 696.13 443.71 700.89 442.77 C 703.23 442.55 705.60 442.39 707.91 441.87 C 710.71 441.53 713.48 440.98 716.23 440.33 C 717.55 439.67 718.92 439.05 720.11 438.15 C 734.72 426.82 747.89 413.67 759.21 399.05 C 761.43 395.55 762.22 391.39 763.20 387.42 C 766.14 372.50 765.96 356.78 761.68 342.13 C 759.29 335.94 758.06 329.39 755.64 323.21 C 746.55 298.05 728.65 277.52 717.38 253.45 C 715.98 250.56 715.03 247.44 713.17 244.80 C 712.99 244.71 712.65 244.52 712.47 244.42 C 711.66 241.59 709.34 239.63 707.64 237.35 C 698.21 225.64 687.13 215.37 675.21 206.24 L 674.98 207.48 C 665.25 192.65 652.56 179.86 638.11 169.60 C 636.21 169.57 634.28 169.76 632.41 169.39 C 629.00 168.39 626.70 165.02 623.10 164.54 C 618.68 161.39 613.42 159.77 608.12 158.90 C 598.05 157.29 587.59 156.98 577.62 159.42 M 34.94 174.88 L 34.84 176.16 C 37.60 176.10 40.37 175.93 43.09 175.47 C 40.40 175.06 37.67 174.90 34.94 174.88 M 4.78 176.64 C 13.51 177.47 22.34 177.09 31.09 176.57 C 25.77 175.79 20.39 176.01 15.03 175.93 C 11.61 175.92 8.11 175.63 4.78 176.64 M 824.98 204.01 L 824.87 205.00 C 828.28 204.90 831.70 204.91 835.12 205.01 L 835.00 203.99 C 831.65 204.12 828.31 204.13 824.98 204.01 M 94.52 211.14 C 94.74 212.48 95.45 212.71 96.67 211.83 C 96.45 210.48 95.74 210.25 94.52 211.14 M 61.47 222.37 C 61.81 223.70 65.51 223.72 65.71 222.26 C 64.48 221.47 62.67 221.59 61.47 222.37 M 48.51 223.23 C 48.45 224.65 50.92 224.58 51.64 223.76 C 51.73 222.33 49.24 222.40 48.51 223.23 M 39.55 224.61 C 41.08 225.36 43.21 225.61 44.73 224.70 C 44.10 223.18 40.39 223.44 39.55 224.61 M 24.96 225.44 C 28.64 225.99 32.36 226.13 36.08 226.07 L 36.13 224.92 C 32.40 224.93 28.67 225.04 24.96 225.44 M 213.76 230.37 C 210.41 230.33 207.06 230.31 203.72 230.40 C 184.34 245.57 158.21 247.87 138.64 262.69 C 129.47 269.54 123.40 280.22 122.25 291.61 C 134.91 291.30 145.14 282.03 157.73 281.42 C 161.04 271.65 171.68 267.48 181.12 266.31 C 184.66 266.28 186.06 262.46 188.87 260.90 C 200.42 253.38 215.09 253.87 227.12 247.42 C 230.11 245.75 232.85 243.52 234.73 240.63 C 241.12 239.21 240.62 230.59 239.66 225.60 C 232.69 226.71 225.82 224.33 218.88 224.88 C 215.91 225.05 214.18 227.64 213.76 230.37 M 4.53 226.84 C 9.47 226.69 14.84 227.99 19.51 226.18 C 14.58 226.31 9.16 224.99 4.53 226.84 M 37.90 229.01 L 38.03 229.98 C 40.70 229.97 43.37 229.98 46.05 230.00 L 46.12 229.00 C 43.38 229.01 40.64 229.02 37.90 229.01 M 5.38 237.24 C 5.39 238.64 7.87 238.50 8.64 237.73 C 8.63 236.31 6.15 236.46 5.38 237.24 M 840.85 279.97 L 840.87 281.06 C 844.58 280.85 848.31 280.83 852.03 281.01 L 852.09 280.00 C 848.34 280.15 844.59 280.13 840.85 279.97 M 217.17 290.99 C 214.72 291.86 212.08 291.63 209.54 291.58 C 209.50 292.19 209.43 293.42 209.40 294.03 C 191.92 301.08 176.06 311.66 161.49 323.52 C 153.77 329.03 146.38 334.98 139.20 341.17 C 136.48 343.09 138.64 347.02 136.54 349.32 C 128.39 360.88 124.59 374.98 123.77 388.98 C 123.38 392.92 124.04 396.95 122.94 400.81 C 121.24 406.12 120.78 411.73 122.21 417.15 C 123.48 420.88 120.70 425.28 123.61 428.42 C 124.27 428.47 125.60 428.57 126.27 428.62 C 128.57 444.11 132.47 459.33 137.50 474.14 C 137.42 485.48 139.52 497.23 145.95 506.79 C 151.53 515.32 159.94 521.38 168.50 526.63 C 177.65 536.65 188.57 545.72 201.77 549.68 C 209.59 552.24 217.99 552.10 226.08 551.17 C 234.45 549.37 242.62 546.41 249.89 541.82 C 253.21 540.30 256.89 540.49 260.45 540.53 C 260.29 538.89 260.11 537.25 259.91 535.63 C 261.69 535.49 263.48 535.60 265.27 535.62 L 265.68 534.99 C 267.00 534.26 268.31 533.50 269.50 532.58 C 281.85 522.98 293.02 511.88 302.66 499.56 C 303.40 498.71 303.82 497.73 303.91 496.61 C 305.45 495.81 306.43 494.33 307.16 492.81 C 321.05 465.86 346.74 447.01 359.19 419.15 C 360.55 415.79 361.90 412.43 363.07 409.01 C 363.97 405.72 365.06 402.47 365.57 399.10 C 367.34 395.76 367.04 391.78 367.75 388.15 C 369.28 388.20 370.81 388.25 372.35 388.31 C 372.40 376.30 372.53 364.29 372.29 352.28 C 366.45 350.74 364.18 343.86 358.24 342.54 C 357.51 342.35 356.78 342.16 356.06 341.96 C 352.33 341.57 348.71 340.35 345.54 338.36 C 337.43 333.46 333.05 324.73 327.19 317.65 C 322.78 315.01 316.90 312.65 316.08 306.85 C 309.63 304.26 302.68 303.50 295.89 302.29 C 289.67 299.15 283.29 296.22 276.62 294.18 C 271.29 290.82 265.46 288.15 259.25 286.93 C 245.20 283.93 230.60 286.44 217.17 290.99 M 38.06 358.01 L 39.24 358.40 C 37.67 363.57 36.30 368.87 33.50 373.54 C 35.46 373.06 37.92 372.87 38.98 370.84 C 41.52 366.88 39.84 361.82 41.72 357.72 C 40.50 357.83 39.28 357.92 38.06 358.01 M 832.64 385.89 C 832.00 383.46 831.23 381.06 830.14 378.81 C 830.24 381.37 831.43 383.68 832.64 385.89 M 8.32 382.19 C 8.59 383.52 9.31 383.72 10.50 382.81 C 10.23 381.47 9.50 381.27 8.32 382.19 M 17.50 382.17 C 17.71 383.50 18.43 383.73 19.65 382.85 C 19.44 381.51 18.72 381.28 17.50 382.17 M 835.65 397.09 C 835.35 398.12 836.22 399.93 837.47 399.53 C 837.88 398.58 837.76 397.67 837.12 396.80 C 836.75 396.87 836.02 397.02 835.65 397.09 M 247.52 618.42 C 231.78 631.00 219.45 647.46 210.39 665.38 C 206.43 671.87 204.96 679.55 204.65 687.05 C 204.00 705.32 210.76 722.62 216.22 739.72 C 217.46 742.92 217.94 746.42 219.54 749.46 C 238.90 763.33 259.90 775.98 274.90 794.85 C 267.90 802.66 256.16 804.22 249.28 812.33 C 244.48 817.17 244.08 824.36 244.48 830.78 C 258.11 826.46 271.16 820.41 283.53 813.24 C 317.58 793.66 345.99 765.86 379.87 746.01 C 396.47 736.28 414.30 728.46 433.05 723.99 C 434.81 721.47 436.60 718.72 439.62 717.61 C 448.41 713.87 458.34 715.37 467.38 712.60 C 469.93 711.80 472.56 710.72 474.15 708.46 C 477.24 708.46 480.63 708.04 483.12 706.03 C 485.50 704.07 484.58 700.61 484.56 697.95 C 484.50 694.99 481.74 692.79 478.95 692.55 C 470.61 691.54 462.36 694.69 454.02 693.28 C 443.82 693.02 433.60 693.23 423.39 693.19 C 423.22 688.71 423.85 684.11 422.18 679.84 C 421.38 677.58 420.63 675.32 419.83 673.07 C 418.61 669.71 417.30 666.39 415.80 663.15 C 411.19 653.20 406.59 642.95 399.01 634.84 C 388.90 622.20 376.37 611.33 361.80 604.16 C 344.64 595.57 325.05 591.96 305.96 593.85 C 284.63 596.15 264.14 604.88 247.52 618.42 Z" />
<path fill="#000000" opacity="1.00" d=" M 359.14 25.39 C 391.38 12.73 425.30 3.89 459.90 1.22 C 468.57 0.27 477.30 0.88 486.01 0.63 C 498.09 0.30 510.15 1.68 522.09 3.43 C 540.25 5.92 558.48 11.43 573.18 22.75 C 575.66 24.38 577.57 27.31 580.87 27.16 C 588.21 35.38 600.28 32.32 609.95 32.65 C 611.98 33.17 613.96 33.87 615.96 34.54 C 614.48 37.88 612.31 40.89 611.20 44.39 C 626.99 52.22 640.72 63.47 653.88 75.05 C 660.05 81.98 666.92 88.26 672.85 95.41 C 675.58 98.81 678.82 101.75 681.57 105.13 C 685.93 111.52 691.15 117.27 695.73 123.50 C 696.82 123.59 697.92 123.68 699.03 123.77 C 707.43 130.79 714.53 139.18 721.39 147.67 C 725.89 150.09 730.94 151.31 735.45 153.72 C 740.52 157.02 739.70 165.28 734.60 168.15 C 755.35 203.76 767.45 243.43 783.77 281.09 C 794.86 306.74 807.62 332.30 826.77 352.97 C 825.70 355.56 825.10 358.30 824.67 361.06 C 822.27 360.66 819.96 359.90 817.78 358.85 C 818.28 359.90 818.81 360.97 819.34 362.04 C 824.93 377.60 830.51 393.19 834.83 409.17 C 841.70 433.77 846.90 458.82 851.06 484.02 C 851.46 486.73 851.97 489.43 852.54 492.13 C 855.36 492.93 858.17 493.80 860.99 494.67 L 861.26 494.76 C 863.44 507.79 865.52 520.85 867.05 533.99 C 866.89 541.15 864.87 548.36 866.34 555.50 C 866.71 557.70 868.43 559.24 869.86 560.82 C 873.06 580.31 871.32 600.26 871.52 619.95 C 871.95 632.00 873.76 643.94 874.46 655.98 C 875.90 676.29 876.54 696.69 875.52 717.05 C 874.96 722.84 877.38 728.40 877.04 734.21 C 876.90 747.66 877.10 761.11 876.94 774.56 C 870.37 791.39 862.71 807.81 855.46 824.37 C 851.19 834.23 846.26 843.81 842.89 854.03 C 835.75 874.14 828.74 894.32 823.20 914.95 C 822.55 918.76 818.70 921.01 815.02 920.59 C 813.51 924.55 812.16 928.56 810.66 932.53 C 807.25 932.49 803.85 932.52 800.46 932.45 C 800.47 929.99 800.15 927.41 801.18 925.10 C 802.69 921.57 805.87 918.83 806.46 914.90 C 807.05 912.33 806.33 909.72 805.94 907.19 C 812.46 904.97 810.75 897.00 810.90 891.69 C 819.28 881.87 818.88 868.18 820.99 856.13 C 827.96 851.32 830.60 842.77 832.56 834.96 C 833.93 830.15 834.66 825.13 836.46 820.47 C 842.07 812.13 846.41 802.85 848.79 793.07 C 855.49 767.57 859.13 741.29 860.07 714.95 C 860.19 710.13 860.57 705.25 859.81 700.47 C 855.87 679.52 856.62 658.09 857.29 636.90 C 853.72 597.00 846.96 557.47 840.82 517.91 C 836.47 488.37 831.37 458.90 823.86 429.99 C 822.70 426.04 820.09 422.70 817.08 419.97 C 815.34 418.87 815.39 416.82 815.39 415.02 C 815.16 410.80 815.69 404.94 810.77 403.20 C 811.07 392.51 810.29 381.03 804.25 371.85 C 802.92 369.52 799.87 368.12 800.05 365.11 C 799.38 358.34 796.83 350.89 790.41 347.57 C 790.21 343.53 791.03 339.31 789.63 335.42 C 778.55 312.21 764.83 290.41 751.63 268.37 C 745.41 260.22 740.71 251.05 735.87 242.05 C 718.66 212.54 702.07 182.53 689.26 150.79 C 670.88 141.86 652.91 131.82 636.98 118.94 C 625.01 109.36 614.26 98.22 605.52 85.61 C 597.11 73.87 589.82 61.33 580.69 50.13 C 579.02 48.10 575.98 48.55 573.92 47.16 C 572.07 46.11 571.50 43.96 570.74 42.14 C 570.75 41.45 570.77 40.08 570.79 39.39 C 566.63 35.33 561.75 32.15 556.81 29.14 C 554.08 27.73 551.27 25.91 548.06 26.20 C 538.45 26.51 528.89 28.37 519.27 27.39 C 506.79 28.70 494.39 25.66 481.92 26.33 C 477.00 26.54 471.95 28.17 468.84 32.19 C 460.25 34.11 451.54 30.13 442.94 31.88 C 440.37 32.44 438.82 34.82 438.31 37.24 C 433.02 37.48 427.63 36.27 422.42 37.61 C 420.13 38.16 418.43 40.10 418.05 42.41 C 410.73 44.06 403.37 40.57 396.04 42.03 C 393.55 42.55 392.51 45.09 392.39 47.38 C 374.47 46.59 354.79 49.65 341.44 62.69 C 349.93 63.59 358.56 64.76 367.08 64.40 C 367.17 63.86 367.37 62.77 367.46 62.22 C 380.48 60.03 393.49 62.86 406.12 65.85 C 424.04 66.94 442.04 66.19 460.00 66.20 C 482.66 66.52 505.29 62.84 527.93 64.97 C 540.87 66.19 554.03 69.56 564.70 77.26 C 566.49 78.42 567.57 80.31 568.08 82.35 C 570.93 82.59 573.79 82.60 576.65 82.74 C 579.45 84.57 582.51 86.32 584.42 89.17 C 585.31 91.62 582.13 92.21 580.44 92.62 C 570.56 94.05 560.54 93.06 550.60 93.06 C 546.02 92.22 540.94 91.39 536.77 94.05 C 530.45 97.83 529.26 106.06 523.66 110.57 C 521.28 112.79 517.99 113.49 514.84 113.51 C 514.36 105.33 509.30 97.69 501.93 94.11 C 490.11 88.25 476.55 88.68 463.72 87.88 C 464.01 85.53 463.01 83.21 460.50 82.73 C 454.02 81.53 447.56 83.93 441.07 83.53 C 439.24 83.45 437.86 81.86 436.02 81.95 C 408.03 81.96 380.02 81.54 352.11 79.33 C 342.46 78.75 332.81 77.04 323.13 77.62 C 312.16 80.12 301.07 76.42 290.05 77.34 C 271.54 88.42 254.06 101.19 237.00 114.37 C 231.84 118.74 226.61 123.03 221.22 127.11 C 219.13 128.58 218.52 131.26 216.80 133.08 C 214.49 135.40 214.62 139.11 212.11 141.27 C 211.77 141.44 211.09 141.80 210.75 141.98 C 202.88 147.10 196.14 153.86 189.51 160.48 C 184.63 165.80 179.61 171.08 175.67 177.16 C 173.04 180.13 171.15 183.61 169.09 186.98 C 147.58 221.28 115.95 247.32 90.38 278.34 C 89.45 279.51 88.66 280.78 87.98 282.11 C 78.13 302.20 70.29 323.30 64.88 345.03 C 63.27 351.76 61.45 358.52 61.35 365.49 L 60.75 365.52 C 60.42 367.75 59.64 369.88 59.16 372.09 C 47.72 434.38 48.44 498.00 49.59 561.06 C 49.98 562.01 50.56 562.97 50.51 564.06 C 50.67 575.74 49.93 587.46 51.29 599.08 C 51.36 615.15 51.19 631.22 51.37 647.30 L 51.07 647.48 C 48.91 648.89 46.62 650.09 44.43 651.47 C 42.11 652.95 41.34 655.80 40.05 658.08 C 37.96 656.98 35.38 655.66 35.39 652.93 C 35.19 646.89 35.81 640.85 35.41 634.81 C 35.45 610.60 34.41 586.40 33.96 562.19 C 34.06 549.47 33.39 536.75 33.04 524.03 C 32.97 511.37 33.14 498.72 32.96 486.06 C 32.43 485.68 31.36 484.92 30.83 484.53 L 30.69 484.43 C 30.87 465.62 30.72 446.80 30.77 427.98 C 30.84 422.99 30.21 417.78 32.25 413.05 C 33.82 408.09 36.92 403.78 38.57 398.87 C 40.41 385.80 42.42 372.74 45.34 359.87 C 43.56 358.59 41.71 357.20 39.43 357.11 C 42.56 347.27 45.05 337.22 46.86 327.06 C 47.05 325.74 47.75 324.61 48.40 323.49 C 52.36 316.92 55.21 309.59 56.05 301.93 C 56.57 298.47 55.80 294.85 57.15 291.53 L 57.59 291.50 C 61.67 292.10 64.76 289.58 66.87 286.41 C 68.17 284.81 70.19 283.82 71.05 281.89 C 83.84 254.39 100.28 228.66 119.17 204.97 C 117.18 204.46 115.17 204.00 113.13 203.70 C 115.70 201.31 116.92 197.87 119.52 195.53 C 121.74 193.42 123.68 191.05 125.57 188.64 C 129.20 187.36 134.05 188.04 136.45 184.51 C 164.05 153.64 195.39 126.30 228.34 101.29 C 231.21 99.07 232.30 95.36 234.82 92.82 C 242.20 87.94 250.82 85.21 257.92 79.86 C 289.63 58.24 323.41 39.49 359.14 25.39 M 428.87 20.48 C 395.24 27.09 362.70 38.81 332.05 54.05 C 375.27 41.79 419.25 32.54 462.88 21.93 C 466.57 21.46 470.32 21.84 474.03 21.74 L 474.21 21.50 C 487.03 20.76 499.71 18.57 512.51 17.57 C 504.45 16.08 496.15 15.44 487.98 15.51 C 468.18 14.56 448.32 16.87 428.87 20.48 M 605.25 58.97 C 614.47 72.41 624.85 85.13 636.91 96.14 C 649.60 108.00 663.82 118.16 678.81 126.90 C 669.15 114.77 659.39 102.65 648.25 91.83 C 635.63 78.87 621.36 67.30 605.25 58.97 M 741.75 220.54 C 748.34 231.81 755.04 243.02 761.79 254.20 C 762.29 255.55 763.65 255.79 764.89 256.11 C 764.58 247.81 763.30 239.22 759.02 231.97 C 755.33 225.81 748.87 221.53 741.75 220.54 Z" />
<path fill="#ffffff" opacity="1.00" d=" M 428.87 20.48 C 448.32 16.87 468.18 14.56 487.98 15.51 C 483.58 18.04 476.80 16.30 474.21 21.50 L 474.03 21.74 C 470.32 21.84 466.57 21.46 462.88 21.93 C 419.25 32.54 375.27 41.79 332.05 54.05 C 362.70 38.81 395.24 27.09 428.87 20.48 Z" />
<path fill="#808080" opacity="1.00" d=" M 487.98 15.51 C 496.15 15.44 504.45 16.08 512.51 17.57 C 499.71 18.57 487.03 20.76 474.21 21.50 C 476.80 16.30 483.58 18.04 487.98 15.51 Z" />
<path fill="#808080" opacity="1.00" d=" M 468.84 32.19 C 471.95 28.17 477.00 26.54 481.92 26.33 C 494.39 25.66 506.79 28.70 519.27 27.39 C 517.87 30.87 513.79 31.75 510.51 32.40 C 496.65 34.44 482.67 29.67 468.84 32.19 Z" />
<path fill="#808080" opacity="1.00" d=" M 580.19 26.54 C 585.76 27.49 591.42 26.60 597.02 27.12 C 601.02 29.64 605.24 31.81 609.95 32.65 C 600.28 32.32 588.21 35.38 580.87 27.16 L 580.19 26.54 Z" />
<path fill="#fdfdfd" opacity="1.00" d=" M 605.25 58.97 C 621.36 67.30 635.63 78.87 648.25 91.83 C 659.39 102.65 669.15 114.77 678.81 126.90 C 663.82 118.16 649.60 108.00 636.91 96.14 C 624.85 85.13 614.47 72.41 605.25 58.97 Z" />
<path fill="#808080" opacity="1.00" d=" M 576.65 82.74 C 581.90 80.21 587.73 84.02 590.37 88.55 C 592.00 91.24 592.64 95.54 589.60 97.51 C 585.75 99.98 581.16 97.67 576.99 97.89 C 568.23 98.00 559.48 97.76 550.73 98.04 C 550.68 96.38 550.64 94.72 550.60 93.06 C 560.54 93.06 570.56 94.05 580.44 92.62 C 582.13 92.21 585.31 91.62 584.42 89.17 C 582.51 86.32 579.45 84.57 576.65 82.74 Z" />
<path fill="#808080" opacity="1.00" d=" M 681.57 105.13 C 685.65 106.79 688.58 110.36 692.26 112.72 C 695.19 115.87 698.14 119.43 699.03 123.77 C 697.92 123.68 696.82 123.59 695.73 123.50 C 691.15 117.27 685.93 111.52 681.57 105.13 Z" />
<path fill="#000000" opacity="1.00" d=" M 559.05 127.49 C 574.89 124.36 591.13 123.11 607.27 123.53 C 607.41 125.71 607.50 127.88 607.53 130.06 C 605.40 136.13 596.37 136.89 596.43 144.17 C 590.25 144.50 584.14 143.33 577.98 143.63 C 566.54 143.94 555.32 147.50 545.58 153.44 C 533.78 160.45 523.14 169.71 509.99 174.23 C 506.83 174.20 505.28 170.94 504.82 168.24 C 504.38 163.48 504.80 158.69 504.56 153.91 C 519.41 139.65 539.08 131.49 559.05 127.49 Z" />
<path fill="#808080" opacity="1.00" d=" M 189.51 160.48 C 196.14 153.86 202.88 147.10 210.75 141.98 L 211.93 142.34 C 202.13 154.66 191.21 166.13 178.71 175.73 C 177.77 176.35 176.75 176.83 175.67 177.16 C 179.61 171.08 184.63 165.80 189.51 160.48 Z" />
<path fill="#e3e3e3" opacity="1.00" d=" M 135.20 162.37 C 134.85 159.46 134.66 156.44 135.68 153.63 C 135.79 156.49 136.91 159.80 135.20 162.37 Z" />
<path fill="#808080" opacity="1.00" d=" M 577.62 159.42 C 587.59 156.98 598.05 157.29 608.12 158.90 C 613.42 159.77 618.68 161.39 623.10 164.54 C 610.72 164.98 598.36 164.00 585.98 164.14 C 579.33 164.17 572.51 165.22 566.68 168.59 C 566.15 162.88 573.24 160.83 577.62 159.42 Z" />
<path fill="#000000" opacity="1.00" d=" M 566.68 168.59 C 572.51 165.22 579.33 164.17 585.98 164.14 C 598.36 164.00 610.72 164.98 623.10 164.54 C 626.70 165.02 629.00 168.39 632.41 169.39 C 634.28 169.76 636.21 169.57 638.11 169.60 C 652.56 179.86 665.25 192.65 674.98 207.48 C 683.58 219.79 694.47 230.38 706.02 239.93 C 708.02 241.62 710.14 243.19 712.47 244.42 C 712.65 244.52 712.99 244.71 713.17 244.80 C 715.03 247.44 715.98 250.56 717.38 253.45 C 728.65 277.52 746.55 298.05 755.64 323.21 C 758.06 329.39 759.29 335.94 761.68 342.13 C 765.96 356.78 766.14 372.50 763.20 387.42 C 762.22 391.39 761.43 395.55 759.21 399.05 C 747.89 413.67 734.72 426.82 720.11 438.15 C 718.92 439.05 717.55 439.67 716.23 440.33 C 713.48 440.98 710.71 441.53 707.91 441.87 C 705.60 442.39 703.23 442.55 700.89 442.77 C 696.13 443.71 691.09 445.13 688.05 449.20 C 679.29 449.05 670.52 449.48 661.79 449.06 L 661.00 448.55 C 659.60 449.70 657.62 449.05 655.98 449.24 C 651.59 449.20 647.19 449.21 642.81 449.24 C 641.94 446.53 640.05 443.92 637.00 443.63 C 628.80 442.73 620.72 445.55 612.51 444.48 C 610.03 440.49 605.52 438.81 601.17 437.79 C 599.14 437.56 597.12 437.30 595.15 436.85 C 590.69 436.43 586.14 435.88 582.01 434.06 C 580.07 432.69 578.66 430.67 576.56 429.51 C 573.03 427.55 569.00 426.78 565.11 425.88 C 562.27 425.45 559.48 424.76 556.66 424.24 C 543.25 409.03 527.20 396.47 513.06 381.98 C 503.31 372.03 494.77 360.79 488.78 348.16 C 487.92 346.07 487.04 343.99 486.19 341.90 C 485.34 339.63 484.59 337.34 483.79 335.07 C 483.68 334.40 483.46 333.06 483.35 332.38 C 481.88 332.63 480.42 332.93 478.98 333.29 C 476.48 332.76 473.83 331.87 472.39 329.59 C 470.82 327.70 471.49 325.08 471.67 322.86 C 473.87 316.91 475.70 310.83 477.78 304.85 C 478.15 303.87 478.52 302.90 478.89 301.92 C 480.20 298.23 481.46 294.52 482.81 290.84 C 486.20 282.41 490.05 274.17 493.80 265.89 C 508.80 235.28 528.58 205.40 557.84 186.78 C 560.05 184.99 564.23 184.45 563.78 180.77 L 562.12 181.88 L 562.63 180.26 L 561.20 180.37 C 561.59 177.23 561.29 173.79 562.96 170.97 C 564.06 170.00 565.42 169.34 566.68 168.59 M 602.20 187.12 C 594.75 190.26 585.55 192.14 581.17 199.66 C 578.06 200.40 574.73 200.41 571.85 201.93 C 571.35 203.03 570.85 204.13 570.34 205.22 C 555.59 216.00 542.47 229.01 531.50 243.61 C 528.72 247.30 524.36 249.21 520.73 251.89 C 515.95 254.62 514.44 260.25 511.72 264.67 C 510.07 266.98 510.18 270.19 508.03 272.16 C 507.28 273.72 506.55 275.29 505.81 276.85 C 505.58 277.37 505.12 278.41 504.89 278.93 C 504.51 281.50 502.78 283.51 501.75 285.83 C 500.90 288.22 499.87 290.55 498.90 292.90 C 496.31 299.57 493.69 306.25 491.49 313.06 C 490.80 317.78 491.49 322.61 492.76 327.18 C 494.21 330.94 496.29 334.48 499.37 337.14 C 501.22 346.07 503.84 354.87 507.80 363.12 C 520.81 390.05 546.42 408.88 574.07 418.89 C 578.02 420.44 582.07 421.73 586.16 422.88 C 602.05 427.27 618.49 429.96 635.01 429.82 C 643.31 429.69 651.71 430.13 659.94 428.85 C 662.26 428.62 664.62 428.51 666.92 427.96 C 673.30 427.09 679.68 425.91 685.83 423.92 C 691.78 422.65 697.46 420.42 703.13 418.26 C 711.70 414.61 720.01 410.21 727.41 404.50 C 739.97 395.12 749.82 381.54 753.00 366.02 C 756.06 352.02 753.68 337.36 748.73 324.08 C 742.09 306.32 731.07 290.63 719.18 276.03 C 702.38 286.22 682.64 291.34 663.01 290.80 C 652.28 291.20 641.62 289.56 631.16 287.31 C 629.65 286.66 628.09 286.11 626.63 285.37 C 623.45 280.61 623.26 274.65 621.95 269.25 C 620.41 266.72 618.58 264.38 617.09 261.82 C 615.06 256.75 613.34 251.46 613.33 245.95 C 613.31 239.49 613.09 232.46 616.86 226.90 C 619.69 226.52 622.87 225.72 625.47 227.42 C 628.71 228.99 629.19 232.94 631.65 235.29 C 631.73 238.54 632.33 241.76 632.32 245.02 C 632.11 248.73 631.41 252.46 631.92 256.19 C 632.82 258.55 634.78 260.28 636.45 262.12 C 643.63 267.70 653.06 269.67 661.98 269.06 C 674.07 268.40 686.14 263.91 695.02 255.56 C 696.25 254.11 697.49 252.67 698.75 251.25 C 691.19 243.67 682.38 237.52 674.15 230.72 C 673.05 229.94 672.07 228.67 670.60 228.76 C 670.49 228.58 670.27 228.23 670.16 228.05 C 666.51 223.12 664.36 217.26 660.79 212.27 C 650.07 195.82 634.61 182.75 617.00 174.18 C 614.79 180.88 608.48 184.81 602.20 187.12 M 571.17 179.72 C 574.43 178.11 577.94 176.98 581.00 174.96 C 576.91 174.10 574.34 177.94 571.17 179.72 Z" />
<path fill="#fdfdfd" opacity="1.00" d=" M 602.20 187.12 C 608.48 184.81 614.79 180.88 617.00 174.18 C 634.61 182.75 650.07 195.82 660.79 212.27 C 664.36 217.26 666.51 223.12 670.16 228.05 C 670.27 228.23 670.49 228.58 670.60 228.76 C 674.25 234.79 679.27 239.84 684.09 244.94 C 687.53 248.69 692.04 251.38 695.02 255.56 C 686.14 263.91 674.07 268.40 661.98 269.06 C 653.06 269.67 643.63 267.70 636.45 262.12 C 636.95 256.18 638.46 250.21 637.56 244.24 C 637.26 241.78 634.61 241.16 632.72 240.40 C 632.66 238.90 632.62 237.41 632.59 235.92 C 635.19 235.16 638.76 233.92 637.53 230.45 C 632.23 225.50 624.44 225.16 617.59 224.85 C 617.41 225.36 617.04 226.39 616.86 226.90 C 613.09 232.46 613.31 239.49 613.33 245.95 C 613.34 251.46 615.06 256.75 617.09 261.82 C 616.59 268.18 616.88 274.56 616.82 280.93 C 621.03 284.21 625.59 287.28 631.16 287.31 C 641.62 289.56 652.28 291.20 663.01 290.80 C 682.64 291.34 702.38 286.22 719.18 276.03 C 731.07 290.63 742.09 306.32 748.73 324.08 C 753.68 337.36 756.06 352.02 753.00 366.02 C 749.82 381.54 739.97 395.12 727.41 404.50 C 720.01 410.21 711.70 414.61 703.13 418.26 C 697.46 420.42 691.78 422.65 685.83 423.92 C 679.68 425.91 673.30 427.09 666.92 427.96 C 664.62 428.51 662.26 428.62 659.94 428.85 C 651.71 430.13 643.31 429.69 635.01 429.82 C 618.49 429.96 602.05 427.27 586.16 422.88 C 582.07 421.73 578.02 420.44 574.07 418.89 C 546.42 408.88 520.81 390.05 507.80 363.12 C 503.84 354.87 501.22 346.07 499.37 337.14 C 496.29 334.48 494.21 330.94 492.76 327.18 C 491.49 322.61 490.80 317.78 491.49 313.06 C 493.69 306.25 496.31 299.57 498.90 292.90 C 499.87 290.55 500.90 288.22 501.75 285.83 C 502.78 283.51 504.51 281.50 504.89 278.93 C 505.12 278.41 505.58 277.37 505.81 276.85 C 506.55 275.29 507.28 273.72 508.03 272.16 C 510.18 270.19 510.07 266.98 511.72 264.67 C 514.44 260.25 515.95 254.62 520.73 251.89 C 524.36 249.21 528.72 247.30 531.50 243.61 C 542.47 229.01 555.59 216.00 570.34 205.22 C 570.85 204.13 571.35 203.03 571.85 201.93 C 574.73 200.41 578.06 200.40 581.17 199.66 C 585.55 192.14 594.75 190.26 602.20 187.12 Z" />
<path fill="#e4e4e4" opacity="1.00" d=" M 34.94 174.88 C 37.67 174.90 40.40 175.06 43.09 175.47 C 40.37 175.93 37.60 176.10 34.84 176.16 L 34.94 174.88 Z" />
<path fill="#808080" opacity="1.00" d=" M 571.17 179.72 C 574.34 177.94 576.91 174.10 581.00 174.96 C 577.94 176.98 574.43 178.11 571.17 179.72 Z" />
<path fill="#e8e8e8" opacity="1.00" d=" M 4.78 176.64 C 8.11 175.63 11.61 175.92 15.03 175.93 C 20.39 176.01 25.77 175.79 31.09 176.57 C 22.34 177.09 13.51 177.47 4.78 176.64 Z" />
<path fill="#e6e6e6" opacity="1.00" d=" M 824.98 204.01 C 828.31 204.13 831.65 204.12 835.00 203.99 L 835.12 205.01 C 831.70 204.91 828.28 204.90 824.87 205.00 L 824.98 204.01 Z" />
<path fill="#808080" opacity="1.00" d=" M 674.98 207.48 L 675.21 206.24 C 687.13 215.37 698.21 225.64 707.64 237.35 C 709.34 239.63 711.66 241.59 712.47 244.42 C 710.14 243.19 708.02 241.62 706.02 239.93 C 694.47 230.38 683.58 219.79 674.98 207.48 Z" />
<path fill="#dcdcdc" opacity="1.00" d=" M 94.52 211.14 C 95.74 210.25 96.45 210.48 96.67 211.83 C 95.45 212.71 94.74 212.48 94.52 211.14 Z" />
<path fill="#808080" opacity="1.00" d=" M 741.75 220.54 C 748.87 221.53 755.33 225.81 759.02 231.97 C 763.30 239.22 764.58 247.81 764.89 256.11 C 763.65 255.79 762.29 255.55 761.79 254.20 C 755.04 243.02 748.34 231.81 741.75 220.54 Z" />
<path fill="#e3e3e3" opacity="1.00" d=" M 61.47 222.37 C 62.67 221.59 64.48 221.47 65.71 222.26 C 65.51 223.72 61.81 223.70 61.47 222.37 Z" />
<path fill="#e3e3e3" opacity="1.00" d=" M 48.51 223.23 C 49.24 222.40 51.73 222.33 51.64 223.76 C 50.92 224.58 48.45 224.65 48.51 223.23 Z" />
<path fill="#e1e1e1" opacity="1.00" d=" M 39.55 224.61 C 40.39 223.44 44.10 223.18 44.73 224.70 C 43.21 225.61 41.08 225.36 39.55 224.61 Z" />
<path fill="#e1e1e1" opacity="1.00" d=" M 24.96 225.44 C 28.67 225.04 32.40 224.93 36.13 224.92 L 36.08 226.07 C 32.36 226.13 28.64 225.99 24.96 225.44 Z" />
<path fill="#808080" opacity="1.00" d=" M 213.76 230.37 C 214.18 227.64 215.91 225.05 218.88 224.88 C 225.82 224.33 232.69 226.71 239.66 225.60 C 240.62 230.59 241.12 239.21 234.73 240.63 C 235.62 237.50 236.81 232.76 233.17 230.92 C 226.94 228.54 220.21 230.92 213.76 230.37 Z" />
<path fill="#808080" opacity="1.00" d=" M 617.59 224.85 C 624.44 225.16 632.23 225.50 637.53 230.45 C 638.76 233.92 635.19 235.16 632.59 235.92 C 632.62 237.41 632.66 238.90 632.72 240.40 C 634.61 241.16 637.26 241.78 637.56 244.24 C 638.46 250.21 636.95 256.18 636.45 262.12 C 634.78 260.28 632.82 258.55 631.92 256.19 C 631.41 252.46 632.11 248.73 632.32 245.02 C 632.33 241.76 631.73 238.54 631.65 235.29 C 629.19 232.94 628.71 228.99 625.47 227.42 C 622.87 225.72 619.69 226.52 616.86 226.90 C 617.04 226.39 617.41 225.36 617.59 224.85 Z" />
<path fill="#d3d3d3" opacity="1.00" d=" M 4.53 226.84 C 9.16 224.99 14.58 226.31 19.51 226.18 C 14.84 227.99 9.47 226.69 4.53 226.84 Z" />
<path fill="#dbdbdb" opacity="1.00" d=" M 37.90 229.01 C 40.64 229.02 43.38 229.01 46.12 229.00 L 46.05 230.00 C 43.37 229.98 40.70 229.97 38.03 229.98 L 37.90 229.01 Z" />
<path fill="#808080" opacity="1.00" d=" M 670.60 228.76 C 672.07 228.67 673.05 229.94 674.15 230.72 C 682.38 237.52 691.19 243.67 698.75 251.25 C 697.49 252.67 696.25 254.11 695.02 255.56 C 692.04 251.38 687.53 248.69 684.09 244.94 C 679.27 239.84 674.25 234.79 670.60 228.76 Z" />
<path fill="#000000" opacity="1.00" d=" M 203.72 230.40 C 207.06 230.31 210.41 230.33 213.76 230.37 C 220.21 230.92 226.94 228.54 233.17 230.92 C 236.81 232.76 235.62 237.50 234.73 240.63 C 232.85 243.52 230.11 245.75 227.12 247.42 C 215.09 253.87 200.42 253.38 188.87 260.90 C 186.06 262.46 184.66 266.28 181.12 266.31 C 171.68 267.48 161.04 271.65 157.73 281.42 C 145.14 282.03 134.91 291.30 122.25 291.61 C 123.40 280.22 129.47 269.54 138.64 262.69 C 158.21 247.87 184.34 245.57 203.72 230.40 Z" />
<path fill="#dadada" opacity="1.00" d=" M 5.38 237.24 C 6.15 236.46 8.63 236.31 8.64 237.73 C 7.87 238.50 5.39 238.64 5.38 237.24 Z" />
<path fill="#808080" opacity="1.00" d=" M 617.09 261.82 C 618.58 264.38 620.41 266.72 621.95 269.25 C 623.26 274.65 623.45 280.61 626.63 285.37 C 628.09 286.11 629.65 286.66 631.16 287.31 C 625.59 287.28 621.03 284.21 616.82 280.93 C 616.88 274.56 616.59 268.18 617.09 261.82 Z" />
<path fill="#dfdfdf" opacity="1.00" d=" M 840.85 279.97 C 844.59 280.13 848.34 280.15 852.09 280.00 L 852.03 281.01 C 848.31 280.83 844.58 280.85 840.87 281.06 L 840.85 279.97 Z" />
<path fill="#808080" opacity="1.00" d=" M 57.59 291.50 C 58.43 288.57 59.62 285.75 60.86 282.96 C 62.32 284.92 64.21 286.74 66.87 286.41 C 64.76 289.58 61.67 292.10 57.59 291.50 Z" />
<path fill="#000000" opacity="1.00" d=" M 217.17 290.99 C 230.60 286.44 245.20 283.93 259.25 286.93 C 265.46 288.15 271.29 290.82 276.62 294.18 C 283.29 296.22 289.67 299.15 295.89 302.29 C 302.68 303.50 309.63 304.26 316.08 306.85 C 316.90 312.65 322.78 315.01 327.19 317.65 C 333.05 324.73 337.43 333.46 345.54 338.36 C 348.71 340.35 352.33 341.57 356.06 341.96 C 356.78 342.16 357.51 342.35 358.24 342.54 C 360.59 345.64 363.09 348.74 364.44 352.44 C 368.04 361.51 367.84 371.44 367.63 381.03 C 367.63 387.12 365.96 393.04 365.57 399.10 C 365.06 402.47 363.97 405.72 363.07 409.01 C 361.90 412.43 360.55 415.79 359.19 419.15 C 346.74 447.01 321.05 465.86 307.16 492.81 C 306.43 494.33 305.45 495.81 303.91 496.61 C 297.69 500.27 292.55 505.42 287.20 510.19 C 279.39 517.85 271.72 525.83 265.68 534.99 L 265.27 535.62 C 263.48 535.60 261.69 535.49 259.91 535.63 C 256.48 537.55 253.24 539.79 249.89 541.82 C 242.62 546.41 234.45 549.37 226.08 551.17 C 217.99 552.10 209.59 552.24 201.77 549.68 C 188.57 545.72 177.65 536.65 168.50 526.63 C 159.94 521.38 151.53 515.32 145.95 506.79 C 139.52 497.23 137.42 485.48 137.50 474.14 C 132.47 459.33 128.57 444.11 126.27 428.62 C 125.73 425.31 125.36 421.98 125.01 418.66 C 124.10 418.25 123.18 417.85 122.26 417.45 C 122.14 411.90 121.73 406.28 122.94 400.81 C 124.04 396.95 123.38 392.92 123.77 388.98 C 124.59 374.98 128.39 360.88 136.54 349.32 C 138.64 347.02 136.48 343.09 139.20 341.17 C 146.38 334.98 153.77 329.03 161.49 323.52 C 176.06 311.66 191.92 301.08 209.40 294.03 C 209.43 293.42 209.50 292.19 209.54 291.58 C 212.08 291.63 214.72 291.86 217.17 290.99 M 235.91 301.89 C 214.92 305.71 195.76 316.19 178.79 328.81 C 167.68 337.30 157.03 346.75 149.16 358.41 C 152.24 358.42 155.33 358.47 158.40 358.65 C 161.31 360.38 163.00 363.26 163.22 366.64 C 166.42 366.96 169.70 366.35 172.86 367.14 C 175.26 367.37 177.66 367.58 180.05 367.90 C 184.67 369.31 190.15 369.66 193.75 373.17 C 198.03 381.65 200.94 391.69 198.04 401.08 C 195.65 409.58 189.17 416.27 181.95 421.00 C 171.31 427.68 159.09 431.73 146.74 433.72 C 144.52 434.63 143.37 436.73 144.34 439.07 C 149.37 460.95 155.17 483.32 167.89 502.15 C 174.26 511.36 182.59 519.11 191.79 525.45 C 192.29 525.44 193.29 525.43 193.80 525.42 C 195.75 526.86 197.84 528.16 200.18 528.85 C 210.13 531.96 220.67 531.81 230.97 531.60 C 236.90 531.70 242.26 528.57 247.06 525.40 L 247.58 525.41 C 252.69 522.01 257.57 518.24 261.98 513.96 C 277.00 499.09 290.30 482.54 302.25 465.12 C 312.18 450.37 321.62 435.22 329.18 419.10 C 334.26 408.02 338.01 396.26 339.16 384.09 C 339.29 381.42 339.47 378.71 338.87 376.08 C 338.59 371.64 337.83 367.22 336.27 363.04 C 331.19 359.77 327.51 354.89 323.58 350.40 C 314.67 339.70 305.86 328.82 295.47 319.50 C 292.00 317.36 288.33 315.36 284.41 314.19 C 282.11 315.95 278.65 316.40 276.31 314.48 C 273.23 312.00 270.65 308.89 267.17 306.93 C 257.92 301.09 246.49 300.55 235.91 301.89 M 348.33 349.23 C 348.92 350.77 349.54 352.30 350.19 353.82 C 354.14 366.15 354.33 379.29 353.11 392.08 C 352.62 394.07 352.39 396.11 352.15 398.15 C 349.85 409.14 346.20 419.83 341.39 429.98 C 341.70 429.67 342.34 429.05 342.66 428.74 C 348.71 422.29 352.64 414.19 356.19 406.17 C 357.20 403.48 358.17 400.79 359.10 398.08 C 362.11 387.87 363.89 376.93 361.65 366.40 C 360.16 359.01 355.31 352.30 348.33 349.23 M 330.50 351.10 C 330.77 354.49 332.56 357.46 334.75 359.97 C 334.33 356.63 332.64 353.63 330.50 351.10 M 157.72 373.68 C 152.50 374.87 147.08 373.90 141.78 374.37 C 137.69 388.78 138.02 404.00 140.24 418.70 L 140.52 418.70 C 140.63 420.32 140.76 421.95 140.88 423.58 C 144.84 424.64 149.03 424.80 153.08 424.27 C 155.85 423.87 158.38 421.50 158.08 418.54 C 160.79 418.60 163.50 418.55 166.20 418.28 C 169.77 417.37 173.42 416.47 176.58 414.48 C 182.55 411.15 186.65 404.78 187.23 397.97 C 187.89 391.89 185.83 385.66 181.97 380.96 C 176.96 374.85 168.98 371.42 161.13 371.49 C 160.08 372.32 159.14 373.50 157.72 373.68 Z" />
<path fill="#fefefe" opacity="1.00" d=" M 235.91 301.89 C 246.49 300.55 257.92 301.09 267.17 306.93 C 270.65 308.89 273.23 312.00 276.31 314.48 C 278.65 316.40 282.11 315.95 284.41 314.19 C 288.33 315.36 292.00 317.36 295.47 319.50 C 305.86 328.82 314.67 339.70 323.58 350.40 C 327.51 354.89 331.19 359.77 336.27 363.04 C 337.83 367.22 338.59 371.64 338.87 376.08 C 339.47 378.71 339.29 381.42 339.16 384.09 C 338.01 396.26 334.26 408.02 329.18 419.10 C 321.62 435.22 312.18 450.37 302.25 465.12 C 290.30 482.54 277.00 499.09 261.98 513.96 C 257.57 518.24 252.69 522.01 247.58 525.41 L 247.06 525.40 C 229.31 525.26 211.55 525.23 193.80 525.42 C 193.29 525.43 192.29 525.44 191.79 525.45 C 182.59 519.11 174.26 511.36 167.89 502.15 C 155.17 483.32 149.37 460.95 144.34 439.07 C 143.37 436.73 144.52 434.63 146.74 433.72 C 159.09 431.73 171.31 427.68 181.95 421.00 C 189.17 416.27 195.65 409.58 198.04 401.08 C 200.94 391.69 198.03 381.65 193.75 373.17 C 190.15 369.66 184.67 369.31 180.05 367.90 C 177.66 367.58 175.26 367.37 172.86 367.14 C 169.70 366.35 166.42 366.96 163.22 366.64 C 163.00 363.26 161.31 360.38 158.40 358.65 C 155.33 358.47 152.24 358.42 149.16 358.41 C 157.03 346.75 167.68 337.30 178.79 328.81 C 195.76 316.19 214.92 305.71 235.91 301.89 Z" />
<path fill="#808080" opacity="1.00" d=" M 358.24 342.54 C 364.18 343.86 366.45 350.74 372.29 352.28 C 372.53 364.29 372.40 376.30 372.35 388.31 C 370.81 388.25 369.28 388.20 367.75 388.15 C 367.04 391.78 367.34 395.76 365.57 399.10 C 365.96 393.04 367.63 387.12 367.63 381.03 C 367.84 371.44 368.04 361.51 364.44 352.44 C 363.09 348.74 360.59 345.64 358.24 342.54 Z" />
<path fill="#fdfdfd" opacity="1.00" d=" M 348.33 349.23 C 355.31 352.30 360.16 359.01 361.65 366.40 C 363.89 376.93 362.11 387.87 359.10 398.08 C 358.17 400.79 357.20 403.48 356.19 406.17 C 352.64 414.19 348.71 422.29 342.66 428.74 C 342.34 429.05 341.70 429.67 341.39 429.98 C 346.20 419.83 349.85 409.14 352.15 398.15 C 352.39 396.11 352.62 394.07 353.11 392.08 C 354.33 379.29 354.14 366.15 350.19 353.82 C 349.54 352.30 348.92 350.77 348.33 349.23 Z" />
<path fill="#fdfdfd" opacity="1.00" d=" M 330.50 351.10 C 332.64 353.63 334.33 356.63 334.75 359.97 C 332.56 357.46 330.77 354.49 330.50 351.10 Z" />
<path fill="#808080" opacity="1.00" d=" M 38.06 358.01 C 39.28 357.92 40.50 357.83 41.72 357.72 C 39.84 361.82 41.52 366.88 38.98 370.84 C 37.92 372.87 35.46 373.06 33.50 373.54 C 36.30 368.87 37.67 363.57 39.24 358.40 L 38.06 358.01 Z" />
<path fill="#808080" opacity="1.00" d=" M 817.78 358.85 C 819.96 359.90 822.27 360.66 824.67 361.06 C 825.20 364.46 826.00 367.81 826.93 371.13 C 823.45 368.92 821.92 365.05 819.34 362.04 C 818.81 360.97 818.28 359.90 817.78 358.85 Z" />
<path fill="#fdfdfd" opacity="1.00" d=" M 157.72 373.68 C 159.14 373.50 160.08 372.32 161.13 371.49 C 168.98 371.42 176.96 374.85 181.97 380.96 C 185.83 385.66 187.89 391.89 187.23 397.97 C 186.65 404.78 182.55 411.15 176.58 414.48 C 173.42 416.47 169.77 417.37 166.20 418.28 C 163.50 418.55 160.79 418.60 158.08 418.54 C 152.22 418.50 146.37 418.76 140.52 418.70 L 140.24 418.70 C 138.02 404.00 137.69 388.78 141.78 374.37 C 147.08 373.90 152.50 374.87 157.72 373.68 Z" />
<path fill="#000000" opacity="1.00" d=" M 832.64 385.89 C 831.43 383.68 830.24 381.37 830.14 378.81 C 831.23 381.06 832.00 383.46 832.64 385.89 Z" />
<path fill="#dcdcdc" opacity="1.00" d=" M 8.32 382.19 C 9.50 381.27 10.23 381.47 10.50 382.81 C 9.31 383.72 8.59 383.52 8.32 382.19 Z" />
<path fill="#dddddd" opacity="1.00" d=" M 17.50 382.17 C 18.72 381.28 19.44 381.51 19.65 382.85 C 18.43 383.73 17.71 383.50 17.50 382.17 Z" />
<path fill="#808080" opacity="1.00" d=" M 5.05 393.30 C 11.22 394.56 14.87 388.53 20.49 387.60 C 20.43 389.70 20.84 391.92 20.18 393.96 C 19.40 395.44 18.60 396.91 17.81 398.39 C 15.58 393.20 8.51 393.05 4.89 396.81 C 4.95 395.64 5.00 394.47 5.05 393.30 Z" />
<path fill="#000000" opacity="1.00" d=" M 4.89 396.81 C 8.51 393.05 15.58 393.20 17.81 398.39 C 18.60 396.91 19.40 395.44 20.18 393.96 C 20.62 405.00 19.60 416.09 21.03 427.08 C 28.29 497.71 25.62 568.89 32.06 639.57 C 32.98 650.06 34.08 660.54 35.56 670.97 C 35.74 668.07 35.79 665.17 35.88 662.28 C 39.52 663.64 42.58 666.07 45.82 668.15 C 46.04 683.09 53.43 696.47 61.25 708.72 C 62.50 713.68 59.95 721.76 66.41 723.76 C 65.91 726.44 65.09 729.22 65.78 731.96 C 66.65 736.18 70.43 739.01 71.47 743.16 C 72.18 745.44 71.68 747.83 71.29 750.14 C 69.96 757.35 73.60 764.65 71.67 771.81 C 71.08 774.32 68.27 774.51 66.18 774.81 C 65.37 756.92 60.74 739.40 54.08 722.84 C 48.78 709.38 42.46 696.35 37.33 682.83 C 41.67 712.11 48.71 741.04 58.81 768.88 C 59.83 771.27 59.35 773.94 58.02 776.11 C 75.49 801.54 98.81 822.41 115.52 848.43 C 116.94 850.71 119.24 852.35 120.36 854.84 C 122.15 858.26 122.75 862.14 124.26 865.67 C 126.55 868.39 129.48 870.48 132.11 872.86 C 133.88 874.27 135.49 876.22 137.90 876.45 C 150.80 890.46 168.80 897.80 185.95 905.10 C 201.73 911.97 218.32 919.05 229.84 932.36 C 228.12 932.44 226.41 932.53 224.70 932.61 C 224.34 936.21 221.77 940.11 217.86 940.32 C 213.05 941.13 208.83 938.26 204.62 936.46 C 162.81 917.31 123.61 891.17 93.03 856.56 C 89.39 852.63 91.62 846.41 95.83 843.89 C 92.82 840.95 89.80 838.01 86.55 835.34 C 86.10 836.59 85.66 837.85 85.22 839.12 C 81.21 831.76 76.99 824.50 72.48 817.42 C 70.52 814.51 70.26 810.79 68.13 807.97 C 66.69 805.74 64.18 804.49 62.77 802.25 C 56.57 792.80 50.50 783.24 44.19 773.87 C 39.54 765.06 33.45 756.91 29.90 747.57 C 30.14 741.07 32.17 734.42 30.30 728.00 C 29.15 723.69 28.46 719.27 27.07 715.03 C 25.77 711.40 26.03 707.48 25.16 703.77 C 22.68 691.58 21.00 679.23 19.43 666.89 C 19.05 663.44 16.89 660.59 15.66 657.44 C 15.20 653.35 15.86 649.20 15.21 645.12 C 12.75 627.93 11.29 610.49 12.97 593.15 C 13.92 586.44 13.04 579.68 12.94 572.95 C 12.50 563.85 12.71 554.70 11.51 545.65 L 10.36 548.00 C 10.57 544.09 10.52 540.18 10.50 536.28 L 11.51 536.80 C 11.30 532.35 11.34 527.90 11.31 523.45 C 10.70 495.23 9.28 467.02 6.81 438.91 C 6.57 435.79 6.06 432.71 5.51 429.64 C 5.09 420.99 3.89 412.42 2.68 403.86 C 2.21 401.31 3.19 398.70 4.89 396.81 Z" />
<path fill="#000000" opacity="1.00" d=" M 835.65 397.09 C 836.02 397.02 836.75 396.87 837.12 396.80 C 837.76 397.67 837.88 398.58 837.47 399.53 C 836.22 399.93 835.35 398.12 835.65 397.09 Z" />
<path fill="#878787" opacity="1.00" d=" M 122.21 417.15 C 120.78 411.73 121.24 406.12 122.94 400.81 C 121.73 406.28 122.14 411.90 122.26 417.45 C 123.18 417.85 124.10 418.25 125.01 418.66 C 125.36 421.98 125.73 425.31 126.27 428.62 C 125.60 428.57 124.27 428.47 123.61 428.42 C 120.70 425.28 123.48 420.88 122.21 417.15 Z" />
<path fill="#808080" opacity="1.00" d=" M 140.52 418.70 C 146.37 418.76 152.22 418.50 158.08 418.54 C 158.38 421.50 155.85 423.87 153.08 424.27 C 149.03 424.80 144.84 424.64 140.88 423.58 C 140.76 421.95 140.63 420.32 140.52 418.70 Z" />
<path fill="#808080" opacity="1.00" d=" M 5.51 429.64 C 6.06 432.71 6.57 435.79 6.81 438.91 C 9.28 467.02 10.70 495.23 11.31 523.45 C 9.78 521.35 7.74 519.89 5.03 520.16 C 4.95 491.75 5.05 463.33 4.98 434.92 C 4.99 433.14 5.23 431.38 5.51 429.64 Z" />
<path fill="#808080" opacity="1.00" d=" M 856.31 470.70 C 856.94 472.05 857.64 473.42 857.77 474.95 C 858.57 481.57 860.43 488.02 860.99 494.67 C 858.17 493.80 855.36 492.93 852.54 492.13 C 851.97 489.43 851.46 486.73 851.06 484.02 C 851.33 485.14 851.61 486.27 851.91 487.40 C 853.64 487.45 855.38 487.47 857.12 487.46 C 858.76 481.86 856.46 476.31 856.31 470.70 Z" />
<path fill="#808080" opacity="1.00" d=" M 30.83 484.53 C 31.36 484.92 32.43 485.68 32.96 486.06 C 33.14 498.72 32.97 511.37 33.04 524.03 C 33.39 536.75 34.06 549.47 33.96 562.19 C 33.00 552.82 33.51 543.33 33.01 533.93 C 31.70 530.71 30.06 527.54 29.96 523.99 C 28.93 510.82 32.41 497.70 30.83 484.53 Z" />
<path fill="#808080" opacity="1.00" d=" M 287.20 510.19 C 292.55 505.42 297.69 500.27 303.91 496.61 C 303.82 497.73 303.40 498.71 302.66 499.56 C 293.02 511.88 281.85 522.98 269.50 532.58 C 268.31 533.50 267.00 534.26 265.68 534.99 C 271.72 525.83 279.39 517.85 287.20 510.19 Z" />
<path fill="#808080" opacity="1.00" d=" M 193.80 525.42 C 211.55 525.23 229.31 525.26 247.06 525.40 C 242.26 528.57 236.90 531.70 230.97 531.60 C 220.67 531.81 210.13 531.96 200.18 528.85 C 197.84 528.16 195.75 526.86 193.80 525.42 Z" />
<path fill="#808080" opacity="1.00" d=" M 867.05 533.99 C 868.05 542.92 869.52 551.83 869.86 560.82 C 868.43 559.24 866.71 557.70 866.34 555.50 C 864.87 548.36 866.89 541.15 867.05 533.99 Z" />
<path fill="#7a7a7a" opacity="1.00" d=" M 249.89 541.82 C 253.24 539.79 256.48 537.55 259.91 535.63 C 260.11 537.25 260.29 538.89 260.45 540.53 C 256.89 540.49 253.21 540.30 249.89 541.82 Z" />
<path fill="#000000" opacity="1.00" d=" M 247.52 618.42 C 264.14 604.88 284.63 596.15 305.96 593.85 C 325.05 591.96 344.64 595.57 361.80 604.16 C 376.37 611.33 388.90 622.20 399.01 634.84 C 406.59 642.95 411.19 653.20 415.80 663.15 C 417.30 666.39 418.61 669.71 419.83 673.07 C 420.63 675.32 421.38 677.58 422.18 679.84 C 423.85 684.11 423.22 688.71 423.39 693.19 C 433.60 693.23 443.82 693.02 454.02 693.28 C 462.36 694.69 470.61 691.54 478.95 692.55 C 481.74 692.79 484.50 694.99 484.56 697.95 C 484.58 700.61 485.50 704.07 483.12 706.03 C 480.63 708.04 477.24 708.46 474.15 708.46 C 464.56 707.36 454.57 707.09 445.32 710.23 C 439.14 712.29 434.54 717.71 433.05 723.99 C 414.30 728.46 396.47 736.28 379.87 746.01 C 345.99 765.86 317.58 793.66 283.53 813.24 C 271.16 820.41 258.11 826.46 244.48 830.78 C 244.08 824.36 244.48 817.17 249.28 812.33 C 256.16 804.22 267.90 802.66 274.90 794.85 C 259.90 775.98 238.90 763.33 219.54 749.46 C 217.94 746.42 217.46 742.92 216.22 739.72 C 210.76 722.62 204.00 705.32 204.65 687.05 C 204.96 679.55 206.43 671.87 210.39 665.38 C 219.45 647.46 231.78 631.00 247.52 618.42 M 294.41 624.48 C 287.73 631.86 287.49 642.53 288.69 651.87 C 291.15 666.75 298.15 680.36 305.64 693.27 C 299.08 692.87 292.27 691.26 287.29 686.70 C 277.00 677.53 274.41 662.86 264.74 653.20 C 261.99 650.44 258.56 648.51 254.96 647.12 C 246.13 652.21 237.92 658.90 232.87 667.90 C 225.63 680.20 224.99 695.36 228.20 708.99 C 232.45 726.49 242.19 742.43 254.97 755.02 C 265.14 764.70 277.69 772.91 291.93 774.50 C 302.57 775.71 313.12 771.85 321.71 765.75 C 338.80 753.74 351.31 736.43 368.40 724.41 C 378.33 717.28 390.47 712.54 402.85 713.59 C 402.15 685.74 390.46 658.10 370.03 639.00 C 357.15 626.88 340.85 617.63 323.09 615.54 C 312.94 614.44 301.36 616.31 294.41 624.48 Z" />
<path fill="#e4090b" opacity="1.00" d=" M 294.41 624.48 C 301.36 616.31 312.94 614.44 323.09 615.54 C 340.85 617.63 357.15 626.88 370.03 639.00 C 390.46 658.10 402.15 685.74 402.85 713.59 C 390.47 712.54 378.33 717.28 368.40 724.41 C 351.31 736.43 338.80 753.74 321.71 765.75 C 313.12 771.85 302.57 775.71 291.93 774.50 C 277.69 772.91 265.14 764.70 254.97 755.02 C 242.19 742.43 232.45 726.49 228.20 708.99 C 224.99 695.36 225.63 680.20 232.87 667.90 C 237.92 658.90 246.13 652.21 254.96 647.12 C 258.56 648.51 261.99 650.44 264.74 653.20 C 274.41 662.86 277.00 677.53 287.29 686.70 C 292.27 691.26 299.08 692.87 305.64 693.27 C 298.15 680.36 291.15 666.75 288.69 651.87 C 287.49 642.53 287.73 631.86 294.41 624.48 Z" />
<path fill="#808080" opacity="1.00" d=" M 32.06 639.57 C 32.82 637.81 33.33 635.46 35.41 634.81 C 35.81 640.85 35.19 646.89 35.39 652.93 C 35.38 655.66 37.96 656.98 40.05 658.08 C 41.34 655.80 42.11 652.95 44.43 651.47 C 46.62 650.09 48.91 648.89 51.07 647.48 C 50.34 651.09 46.44 653.14 46.16 656.90 C 45.85 660.64 46.26 664.41 45.82 668.15 C 42.58 666.07 39.52 663.64 35.88 662.28 C 35.79 665.17 35.74 668.07 35.56 670.97 C 34.08 660.54 32.98 650.06 32.06 639.57 Z" />
<path fill="#808080" opacity="1.00" d=" M 25.16 703.77 C 26.03 707.48 25.77 711.40 27.07 715.03 C 28.46 719.27 29.15 723.69 30.30 728.00 C 32.17 734.42 30.14 741.07 29.90 747.57 C 27.94 743.98 26.07 740.20 25.25 736.18 C 25.51 729.46 26.91 722.74 26.07 716.00 C 25.43 711.95 25.64 707.83 25.16 703.77 Z" />
<path fill="#808080" opacity="1.00" d=" M 445.32 710.23 C 454.57 707.09 464.56 707.36 474.15 708.46 C 472.56 710.72 469.93 711.80 467.38 712.60 C 458.34 715.37 448.41 713.87 439.62 717.61 C 436.60 718.72 434.81 721.47 433.05 723.99 C 434.54 717.71 439.14 712.29 445.32 710.23 Z" />
<path fill="#808080" opacity="1.00" d=" M 877.04 734.21 C 877.72 734.18 879.10 734.13 879.79 734.10 C 880.81 737.37 882.50 740.56 882.28 744.09 C 882.22 754.27 882.26 764.45 882.26 774.63 C 880.47 774.60 878.70 774.58 876.94 774.56 C 877.10 761.11 876.90 747.66 877.04 734.21 Z" />
<path fill="#808080" opacity="1.00" d=" M 71.29 750.14 C 71.56 749.73 72.08 748.93 72.35 748.52 C 73.76 748.77 75.18 749.02 76.60 749.27 C 76.52 759.18 76.59 769.10 76.58 779.01 C 76.70 780.74 76.16 783.05 74.09 783.30 C 69.92 782.54 67.71 778.35 66.18 774.81 C 68.27 774.51 71.08 774.32 71.67 771.81 C 73.60 764.65 69.96 757.35 71.29 750.14 Z" />
</svg>
