<?xml version="1.0" encoding="UTF-8" ?>
<!DOCTYPE svg PUBLIC "-//W3C//DTD SVG 1.1//EN" "http://www.w3.org/Graphics/SVG/1.1/DTD/svg11.dtd">
<svg width="1013pt" height="1083pt" viewBox="0 0 1013 1083" version="1.1" xmlns="http://www.w3.org/2000/svg">
<path fill="#ffffff" opacity="1.00" d=" M 0.00 0.00 L 1013.00 0.00 L 1013.00 1083.00 L 908.91 1083.00 C 928.12 1050.45 937.57 1013.44 953.31 979.28 C 960.33 958.53 969.11 938.30 980.55 919.58 C 983.48 914.46 987.06 909.74 990.07 904.68 C 990.61 899.77 989.76 894.76 990.87 889.90 C 992.51 881.17 998.10 873.81 999.79 865.10 C 1000.51 861.68 1000.56 858.18 1000.56 854.72 C 1006.49 847.63 1006.42 837.74 1006.77 829.00 C 1006.39 820.29 1006.52 810.43 1000.63 803.35 C 998.82 803.37 997.03 803.38 995.24 803.43 C 989.27 803.51 989.63 811.29 985.19 813.87 C 985.30 803.84 985.31 793.81 985.18 783.79 C 985.37 767.53 985.22 751.27 985.27 735.01 C 985.12 727.38 985.65 719.74 984.89 712.14 C 985.95 688.50 984.71 664.77 985.04 641.09 C 985.51 623.03 985.18 604.94 985.24 586.88 C 985.47 583.89 981.62 584.99 979.83 584.62 C 980.43 552.43 980.54 519.93 974.67 488.14 C 967.86 491.83 970.67 500.74 969.92 507.00 C 967.75 521.41 975.43 534.75 976.00 548.95 C 976.41 554.92 973.96 560.66 969.93 564.97 C 962.71 561.14 959.75 552.80 959.37 545.07 C 958.77 540.35 960.33 535.25 957.94 530.88 C 950.28 514.02 946.02 495.89 939.22 478.70 C 924.12 447.88 919.16 413.55 908.48 381.19 C 917.27 384.47 924.19 391.39 928.54 399.60 C 936.97 414.93 939.66 432.64 947.88 448.08 C 950.67 453.54 954.49 458.49 959.28 462.36 C 956.48 445.31 950.29 428.97 942.27 413.72 C 928.81 388.22 910.59 365.34 899.53 338.56 C 898.67 336.21 897.36 334.07 895.75 332.18 C 887.43 322.16 882.62 309.66 880.05 297.00 C 876.49 276.23 873.67 254.85 864.21 235.74 C 848.55 202.59 821.02 177.46 800.70 147.41 C 794.92 139.16 790.35 130.18 785.69 121.29 C 781.03 114.14 774.99 108.03 769.34 101.68 C 759.07 91.23 748.74 80.61 736.65 72.25 C 723.21 62.22 706.76 56.34 695.09 43.95 C 689.95 38.77 686.49 32.18 684.33 25.26 C 691.25 25.26 698.18 25.17 705.11 25.31 C 706.95 25.38 708.78 25.45 710.64 25.50 C 709.82 22.40 708.90 18.82 705.76 17.26 C 700.00 14.28 693.26 15.04 686.99 14.97 C 677.56 15.40 668.11 15.18 658.67 15.27 C 653.19 15.33 647.68 14.57 642.54 12.64 C 635.09 9.90 628.03 5.72 620.01 4.83 C 614.01 3.84 608.00 5.46 601.99 4.82 C 578.58 3.27 555.33 7.10 532.11 9.44 C 528.35 9.90 524.48 9.76 520.81 10.78 C 483.71 24.65 443.83 27.31 405.38 35.65 C 394.40 38.49 386.37 47.77 375.19 50.13 C 371.38 51.34 367.21 50.34 363.48 51.54 C 348.28 61.56 329.77 64.44 311.98 65.93 C 306.22 66.12 300.90 68.54 295.70 70.79 C 279.76 78.09 266.65 90.31 255.71 103.81 C 236.04 127.64 221.99 156.01 199.16 177.22 C 185.95 189.76 168.39 198.02 150.04 198.58 C 146.76 198.69 143.48 198.42 140.21 198.71 C 137.81 199.18 136.30 201.33 134.87 203.13 C 141.00 207.02 149.30 206.14 154.71 211.30 C 156.85 213.20 156.03 216.21 155.83 218.68 C 134.28 223.91 113.54 211.80 92.05 212.55 C 84.60 212.68 77.30 216.78 74.04 223.60 L 73.41 224.85 C 74.48 226.86 75.93 228.98 78.38 229.34 C 85.91 230.79 93.43 227.95 100.99 228.56 C 112.22 229.73 123.55 228.15 134.76 229.33 C 129.99 238.99 120.95 245.76 116.63 255.68 C 115.32 258.44 114.83 261.49 114.73 264.53 C 114.59 267.89 114.24 271.44 112.29 274.31 C 110.54 277.23 107.36 278.74 104.41 280.16 C 101.99 289.61 96.31 297.77 89.90 304.97 C 83.96 311.57 77.97 318.22 73.56 325.99 C 71.12 323.83 68.87 321.23 68.42 317.89 C 66.23 305.20 70.81 292.42 68.71 279.71 C 62.43 280.95 58.46 286.74 57.87 292.86 C 55.59 309.94 61.30 326.97 59.39 344.08 C 58.94 347.77 57.84 351.50 55.35 354.35 C 52.99 356.98 52.24 360.52 50.75 363.63 C 45.00 375.87 37.25 387.29 33.70 400.47 C 32.00 406.75 31.79 413.94 35.41 419.62 C 37.23 422.82 40.22 425.06 43.21 427.11 C 43.32 415.18 43.23 403.25 43.25 391.32 C 50.07 394.45 55.61 400.62 56.77 408.20 C 58.81 421.00 53.92 433.72 47.81 444.74 C 45.16 449.51 41.86 453.87 38.31 458.00 C 37.83 466.19 37.06 474.72 33.09 482.07 C 31.78 484.63 29.50 486.53 28.10 489.02 C 27.74 493.90 28.20 498.81 27.88 503.70 C 23.49 513.48 22.60 524.34 22.09 534.92 C 21.31 561.45 24.54 587.95 23.18 614.49 C 22.69 624.84 23.20 635.21 22.93 645.57 C 17.75 626.15 17.23 605.93 17.02 585.96 C 17.35 561.30 18.54 536.66 18.77 512.01 C 18.66 500.65 17.85 489.32 18.02 477.96 C 18.07 458.66 17.89 439.36 18.16 420.07 C 18.32 416.31 16.57 412.43 12.66 411.43 C 11.87 410.25 10.99 409.14 10.10 408.04 C 9.26 409.22 8.42 410.40 7.71 411.68 C 6.02 411.69 4.33 411.69 2.63 411.70 C 2.30 508.36 2.61 605.03 2.48 701.70 C 4.23 701.70 5.98 701.71 7.74 701.73 C 7.92 711.86 6.80 722.18 10.00 731.99 C 16.35 761.15 21.14 790.61 25.42 820.13 C 26.75 826.77 26.59 833.80 28.86 840.18 C 44.84 865.41 59.19 891.86 68.82 920.21 C 74.62 922.44 79.15 927.23 81.15 933.11 C 83.99 940.73 84.21 948.97 84.48 957.01 C 84.65 963.36 83.38 969.86 85.25 976.08 C 94.27 1012.43 104.12 1048.85 119.77 1083.00 L 0.00 1083.00 L 0.00 0.00 Z" />
<path fill="#1a1a1a" opacity="1.00" d=" M 532.11 9.44 C 555.33 7.10 578.58 3.27 601.99 4.82 C 608.00 5.46 614.01 3.84 620.01 4.83 C 628.03 5.72 635.09 9.90 642.54 12.64 C 647.68 14.57 653.19 15.33 658.67 15.27 C 660.16 17.70 661.97 20.32 665.03 20.75 C 676.32 22.82 687.69 18.16 698.98 20.24 C 701.84 20.65 703.69 23.00 705.11 25.31 C 698.18 25.17 691.25 25.26 684.33 25.26 C 686.49 32.18 689.95 38.77 695.09 43.95 C 706.76 56.34 723.21 62.22 736.65 72.25 C 742.16 80.57 749.24 87.68 755.97 95.00 C 765.29 104.38 774.86 113.66 785.69 121.29 C 790.35 130.18 794.92 139.16 800.70 147.41 C 821.02 177.46 848.55 202.59 864.21 235.74 C 873.67 254.85 876.49 276.23 880.05 297.00 C 882.62 309.66 887.43 322.16 895.75 332.18 C 897.36 334.07 898.67 336.21 899.53 338.56 C 910.59 365.34 928.81 388.22 942.27 413.72 C 950.29 428.97 956.48 445.31 959.28 462.36 C 954.49 458.49 950.67 453.54 947.88 448.08 C 939.66 432.64 936.97 414.93 928.54 399.60 C 924.19 391.39 917.27 384.47 908.48 381.19 C 919.16 413.55 924.12 447.88 939.22 478.70 C 946.02 495.89 950.28 514.02 957.94 530.88 C 960.33 535.25 958.77 540.35 959.37 545.07 C 959.75 552.80 962.71 561.14 969.93 564.97 C 973.96 560.66 976.41 554.92 976.00 548.95 C 975.43 534.75 967.75 521.41 969.92 507.00 C 970.67 500.74 967.86 491.83 974.67 488.14 C 980.54 519.93 980.43 552.43 979.83 584.62 C 982.05 599.76 977.53 614.94 979.47 630.08 C 979.94 634.29 981.68 638.39 985.04 641.09 C 984.71 664.77 985.95 688.50 984.89 712.14 C 980.79 718.64 980.01 726.48 979.16 733.95 C 978.00 746.57 978.28 759.40 980.69 771.87 C 981.42 776.09 982.94 780.13 985.18 783.79 C 985.31 793.81 985.30 803.84 985.19 813.87 C 985.09 823.07 983.81 832.44 985.61 841.54 C 986.44 846.26 990.67 849.18 995.22 849.74 C 995.29 834.30 995.24 818.86 995.24 803.43 C 997.03 803.38 998.82 803.37 1000.63 803.35 C 1000.36 820.47 1000.51 837.60 1000.56 854.72 C 1000.56 858.18 1000.51 861.68 999.79 865.10 C 998.10 873.81 992.51 881.17 990.87 889.90 C 989.76 894.76 990.61 899.77 990.07 904.68 C 987.06 909.74 983.48 914.46 980.55 919.58 C 969.11 938.30 960.33 958.53 953.31 979.28 C 937.57 1013.44 928.12 1050.45 908.91 1083.00 L 903.73 1083.00 C 919.24 1012.64 943.49 944.27 975.19 879.59 C 979.26 873.19 980.05 865.46 980.82 858.09 C 981.72 846.10 981.49 833.88 978.68 822.15 C 978.06 819.25 976.69 816.61 975.16 814.12 C 974.82 808.91 975.10 803.69 974.92 798.48 C 972.44 761.03 977.61 723.53 975.08 686.08 C 974.26 676.76 973.44 667.29 970.30 658.42 C 963.86 607.63 954.30 557.20 940.41 507.91 C 922.64 444.23 898.26 382.47 868.81 323.32 C 852.99 291.26 835.61 259.99 817.46 229.20 C 828.61 233.30 834.84 244.20 839.59 254.39 C 845.13 266.03 850.64 279.19 862.91 285.23 C 863.51 270.67 860.30 255.79 852.65 243.31 C 841.41 224.60 822.90 211.65 811.79 192.84 C 811.19 198.20 812.25 203.69 810.97 208.98 C 810.57 211.19 808.65 212.50 807.08 213.86 C 806.15 209.84 806.65 204.43 801.86 202.84 C 802.22 196.63 799.45 190.95 797.65 185.16 C 786.50 152.69 770.38 121.45 747.19 95.90 C 727.35 73.75 702.13 56.67 674.58 45.61 C 661.35 58.14 643.44 65.73 633.41 81.51 C 642.88 85.90 653.95 84.14 663.33 88.72 C 666.56 90.17 668.31 93.37 669.45 96.55 C 660.63 97.95 651.60 97.62 642.88 95.73 C 631.55 93.33 620.01 89.97 608.33 91.57 C 597.07 97.19 589.53 108.80 587.49 121.09 C 583.97 141.60 587.66 162.63 583.75 183.12 C 581.64 196.68 574.96 208.99 567.10 220.05 C 554.12 238.38 538.14 254.65 527.56 274.63 C 520.91 286.99 516.74 300.86 516.72 314.97 C 516.53 325.37 518.44 335.72 521.55 345.63 C 509.24 344.98 498.19 352.74 485.86 351.68 C 481.95 351.46 478.69 348.97 476.10 346.24 C 483.92 341.42 486.84 331.77 486.29 323.02 C 486.70 319.86 484.03 317.74 482.43 315.39 C 472.43 302.20 467.76 285.37 468.75 268.91 C 470.02 245.45 479.22 223.47 487.79 201.91 C 499.33 173.05 512.18 143.41 511.77 111.72 C 519.15 111.14 524.50 117.61 531.81 117.34 C 535.27 109.60 542.49 104.33 545.64 96.44 C 547.00 93.26 547.21 89.75 547.36 86.34 C 522.03 84.29 497.13 78.98 472.07 74.97 C 444.64 70.51 416.69 68.27 388.94 70.72 C 383.24 71.44 377.57 69.58 371.88 70.46 C 363.28 71.31 355.57 76.00 346.91 76.49 C 343.19 76.87 339.42 75.87 335.74 76.73 C 320.68 80.13 306.16 85.92 292.97 93.95 C 267.27 109.55 247.80 133.09 230.14 156.97 C 217.31 174.46 204.67 192.12 190.72 208.75 C 199.71 216.04 210.41 220.89 221.37 224.40 C 245.96 232.14 271.81 234.74 296.45 242.26 C 312.49 247.29 329.13 255.04 338.36 269.79 C 326.15 278.46 309.03 274.80 297.53 284.74 C 303.11 287.21 308.36 290.97 311.18 296.53 C 312.56 299.53 314.75 302.00 317.17 304.20 C 318.39 306.15 319.65 308.10 321.19 309.83 C 338.58 329.38 357.05 347.99 376.54 365.46 C 379.32 367.98 382.06 370.66 385.49 372.30 C 389.51 377.41 395.53 380.28 400.03 384.89 C 410.69 394.69 417.40 408.60 418.30 423.06 C 419.55 441.04 413.98 458.72 406.56 474.88 C 391.04 507.57 367.84 535.98 342.61 561.66 C 324.27 579.87 304.69 597.17 282.37 610.39 C 258.75 610.26 235.13 610.21 211.51 610.42 C 198.65 602.77 187.02 593.03 177.70 581.30 C 165.86 566.69 157.26 549.66 151.28 531.89 C 149.74 528.12 148.72 524.18 147.89 520.20 C 141.11 493.76 139.73 465.93 144.05 438.97 C 148.64 410.12 159.98 381.68 179.82 359.89 C 195.79 342.09 217.80 329.98 241.31 325.71 C 257.21 325.73 273.11 325.73 289.01 325.71 C 295.25 325.68 301.19 327.83 307.21 329.23 C 312.70 331.28 318.09 333.61 323.46 335.97 C 309.06 310.15 290.94 285.81 267.33 267.68 C 252.91 256.58 236.49 248.10 219.12 242.64 C 201.75 237.04 183.52 234.61 165.34 233.72 C 139.58 277.91 97.07 308.76 68.56 350.87 C 70.33 368.61 69.68 386.59 66.55 404.13 C 60.40 440.08 43.07 473.09 37.91 509.27 C 34.53 518.14 33.42 527.66 32.68 537.06 C 30.68 569.94 35.28 602.82 33.06 635.69 C 32.85 678.89 41.03 721.72 53.21 763.04 C 65.54 805.49 80.80 847.23 88.66 890.86 C 91.27 904.07 92.61 917.49 94.26 930.83 C 99.36 939.72 105.76 947.83 112.16 955.83 C 123.95 970.19 137.12 983.41 151.33 995.39 C 150.97 995.73 150.27 996.43 149.92 996.78 C 152.18 997.42 154.57 998.01 156.33 999.69 C 188.79 1026.87 225.13 1048.80 260.31 1072.17 C 210.32 1057.49 164.70 1028.94 128.56 991.51 C 116.05 978.78 104.67 964.97 94.04 950.64 C 93.51 968.59 95.59 986.62 100.40 1003.93 C 107.83 1031.12 121.43 1056.08 129.66 1083.00 L 119.77 1083.00 C 104.12 1048.85 94.27 1012.43 85.25 976.08 C 83.38 969.86 84.65 963.36 84.48 957.01 C 84.21 948.97 83.99 940.73 81.15 933.11 C 79.15 927.23 74.62 922.44 68.82 920.21 C 59.19 891.86 44.84 865.41 28.86 840.18 C 26.59 833.80 26.75 826.77 25.42 820.13 C 21.14 790.61 16.35 761.15 10.00 731.99 C 6.80 722.18 7.92 711.86 7.74 701.73 C 7.74 605.04 7.80 508.36 7.71 411.68 C 8.42 410.40 9.26 409.22 10.10 408.04 C 10.99 409.14 11.87 410.25 12.66 411.43 C 14.10 462.60 12.75 513.77 11.99 564.93 C 11.39 616.34 11.36 667.96 17.88 719.05 C 21.30 758.00 27.74 796.91 40.13 834.07 C 50.09 863.52 64.10 891.95 84.15 915.88 C 64.75 842.55 46.74 768.77 23.16 696.64 C 22.01 684.35 17.20 672.56 17.57 660.13 C 17.59 654.75 20.12 649.97 22.93 645.57 C 23.20 635.21 22.69 624.84 23.18 614.49 C 27.79 604.36 28.37 593.01 28.87 582.06 C 29.44 555.93 26.29 529.83 27.88 503.70 C 28.20 498.81 27.74 493.90 28.10 489.02 C 29.50 486.53 31.78 484.63 33.09 482.07 C 37.06 474.72 37.83 466.19 38.31 458.00 C 41.86 453.87 45.16 449.51 47.81 444.74 C 53.92 433.72 58.81 421.00 56.77 408.20 C 55.61 400.62 50.07 394.45 43.25 391.32 C 43.23 403.25 43.32 415.18 43.21 427.11 C 40.22 425.06 37.23 422.82 35.41 419.62 C 31.79 413.94 32.00 406.75 33.70 400.47 C 37.25 387.29 45.00 375.87 50.75 363.63 C 52.24 360.52 52.99 356.98 55.35 354.35 C 57.84 351.50 58.94 347.77 59.39 344.08 C 61.30 326.97 55.59 309.94 57.87 292.86 C 58.46 286.74 62.43 280.95 68.71 279.71 C 70.81 292.42 66.23 305.20 68.42 317.89 C 68.87 321.23 71.12 323.83 73.56 325.99 C 77.97 318.22 83.96 311.57 89.90 304.97 C 96.31 297.77 101.99 289.61 104.41 280.16 C 107.36 278.74 110.54 277.23 112.29 274.31 C 114.24 271.44 114.59 267.89 114.73 264.53 C 128.91 254.52 139.61 239.96 145.36 223.62 C 121.59 223.56 97.82 223.59 74.04 223.60 C 77.30 216.78 84.60 212.68 92.05 212.55 C 113.54 211.80 134.28 223.91 155.83 218.68 C 156.03 216.21 156.85 213.20 154.71 211.30 C 149.30 206.14 141.00 207.02 134.87 203.13 C 136.30 201.33 137.81 199.18 140.21 198.71 C 143.48 198.42 146.76 198.69 150.04 198.58 C 168.39 198.02 185.95 189.76 199.16 177.22 C 221.99 156.01 236.04 127.64 255.71 103.81 C 266.65 90.31 279.76 78.09 295.70 70.79 C 300.90 68.54 306.22 66.12 311.98 65.93 C 329.77 64.44 348.28 61.56 363.48 51.54 C 367.21 50.34 371.38 51.34 375.19 50.13 C 386.37 47.77 394.40 38.49 405.38 35.65 C 443.83 27.31 483.71 24.65 520.81 10.78 C 524.48 9.76 528.35 9.90 532.11 9.44 M 582.75 9.98 C 582.75 32.16 582.73 54.35 582.76 76.53 C 593.85 73.72 604.33 68.49 613.04 61.05 C 626.26 49.92 635.54 35.04 644.15 20.25 C 623.91 15.62 603.49 11.52 582.75 9.98 M 394.78 50.68 L 394.47 50.35 C 393.54 52.41 392.11 54.65 392.99 56.99 C 394.02 59.10 396.39 60.01 398.50 60.65 C 404.86 62.35 411.50 61.91 418.02 61.97 C 434.14 61.87 450.31 59.20 466.41 61.18 C 482.25 64.09 497.35 69.90 513.02 73.48 C 524.25 75.96 535.82 77.21 547.31 76.41 C 552.47 64.41 559.99 53.49 564.04 41.01 C 566.86 32.70 568.01 23.88 567.73 15.12 C 509.36 22.82 450.93 32.56 394.78 50.68 M 640.31 44.20 C 629.80 50.10 621.66 59.98 618.15 71.53 C 637.73 66.21 653.67 52.12 664.62 35.43 C 656.17 37.20 647.81 39.88 640.31 44.20 M 555.85 94.87 C 551.01 103.01 546.93 112.22 547.45 121.89 C 547.52 125.95 549.50 129.62 552.11 132.63 C 558.96 129.75 563.70 123.64 567.68 117.60 C 571.44 111.30 574.81 103.94 573.43 96.43 C 572.50 91.16 567.68 87.56 562.73 86.37 C 559.72 88.50 557.85 91.85 555.85 94.87 M 519.15 143.22 C 515.15 150.75 515.27 159.57 516.39 167.80 C 519.92 168.57 523.62 167.66 526.58 165.65 C 534.16 160.39 538.08 150.48 536.46 141.44 C 535.55 136.86 531.75 132.90 527.08 132.19 C 523.67 135.15 521.33 139.28 519.15 143.22 M 557.36 137.00 C 548.47 148.87 541.63 162.47 538.43 176.99 C 536.17 187.43 536.26 199.01 541.87 208.42 C 545.07 191.06 555.70 176.45 561.56 160.03 C 563.37 154.63 565.22 148.56 563.07 142.99 C 562.12 140.24 559.69 138.52 557.36 137.00 M 558.70 183.65 C 553.19 190.73 552.73 200.17 552.22 208.76 C 557.57 208.67 563.27 206.97 566.58 202.48 C 571.83 195.40 572.15 186.18 572.88 177.74 C 567.70 178.08 562.06 179.35 558.70 183.65 M 496.49 213.35 C 495.71 226.99 487.35 238.34 483.39 251.05 C 481.33 257.36 481.67 264.72 486.05 270.01 C 491.44 257.58 498.45 245.55 500.54 231.98 C 501.60 225.56 500.74 218.52 496.49 213.35 M 271.87 254.13 C 282.28 257.79 290.58 265.78 301.29 268.71 C 306.84 270.34 312.70 269.84 318.40 269.71 C 318.39 266.19 317.64 262.52 315.18 259.86 C 310.04 254.11 302.30 251.60 294.90 250.43 C 287.15 249.15 278.53 249.53 271.87 254.13 M 501.54 264.08 C 496.96 277.39 485.16 286.70 480.95 300.15 C 486.83 301.56 489.60 307.56 494.72 310.20 C 498.43 312.03 502.70 311.31 506.58 310.46 C 504.42 297.96 508.76 285.40 506.96 272.91 C 506.57 269.30 504.63 266.01 501.54 264.08 M 158.68 409.60 C 149.44 427.51 144.35 447.80 145.13 467.99 C 160.81 496.38 163.96 529.47 176.58 559.08 C 179.69 567.48 183.99 575.49 189.44 582.61 C 196.73 592.43 207.79 599.46 219.92 601.33 C 234.29 602.99 249.00 600.55 262.27 594.91 C 252.83 592.33 245.72 584.19 242.97 574.99 C 238.49 560.28 240.67 544.43 245.07 529.97 C 248.92 518.40 254.29 506.78 263.50 498.48 C 266.94 495.47 271.24 492.89 276.00 493.39 C 281.94 493.75 287.98 493.11 293.87 494.10 C 297.27 494.38 300.69 494.48 304.10 494.83 C 319.33 496.70 334.44 499.91 348.88 505.19 C 355.83 507.56 362.40 510.82 369.14 513.69 C 380.52 495.10 393.87 477.45 401.74 456.95 C 408.64 439.52 410.99 420.52 409.95 401.87 C 403.03 400.16 399.94 393.35 394.98 389.01 C 390.66 385.14 384.32 385.03 378.98 386.46 C 378.04 389.95 377.42 393.72 378.71 397.22 C 380.73 403.00 385.77 406.93 390.49 410.48 C 392.88 412.37 395.73 414.09 396.97 417.03 C 397.66 419.32 395.52 420.79 394.22 422.29 C 389.77 422.49 385.15 422.85 380.92 421.12 C 375.36 419.22 371.51 414.24 369.43 408.93 C 365.13 398.02 365.04 385.98 360.86 375.04 C 360.21 373.46 359.53 371.84 358.40 370.55 C 338.02 350.23 309.75 338.04 280.95 337.50 C 231.01 336.02 181.68 365.30 158.68 409.60 M 281.86 508.76 C 277.01 509.97 271.94 510.86 267.55 513.37 C 266.23 519.07 260.25 523.13 261.89 529.53 C 260.55 531.10 259.44 532.86 258.84 534.85 C 256.34 542.27 255.46 550.16 255.52 557.96 C 255.86 565.49 256.73 573.48 261.09 579.87 C 263.37 583.25 267.40 585.62 271.55 584.50 C 273.73 585.60 276.31 586.11 277.99 588.02 C 279.98 590.20 281.22 592.91 282.60 595.50 C 288.79 594.86 295.72 593.19 299.61 587.93 C 300.67 587.63 301.63 587.14 302.49 586.47 C 317.87 573.95 331.99 559.88 344.60 544.57 C 345.61 543.40 346.41 542.06 347.05 540.66 C 347.93 540.13 348.85 539.31 348.71 538.17 C 348.88 531.69 348.62 525.21 348.83 518.73 C 344.80 516.64 340.50 515.16 336.19 513.79 C 325.65 510.82 314.84 508.58 303.88 508.08 C 296.55 506.92 289.17 508.09 281.86 508.76 Z" />
<path fill="#fcfcfc" opacity="1.00" d=" M 582.75 9.98 C 603.49 11.52 623.91 15.62 644.15 20.25 C 635.54 35.04 626.26 49.92 613.04 61.05 C 604.33 68.49 593.85 73.72 582.76 76.53 C 582.73 54.35 582.75 32.16 582.75 9.98 Z" />
<path fill="#fcfcfc" opacity="1.00" d=" M 394.78 50.68 C 450.93 32.56 509.36 22.82 567.73 15.12 C 568.01 23.88 566.86 32.70 564.04 41.01 C 559.99 53.49 552.47 64.41 547.31 76.41 C 535.82 77.21 524.25 75.96 513.02 73.48 C 497.35 69.90 482.25 64.09 466.41 61.18 C 461.50 55.82 453.89 54.89 447.01 54.93 C 434.28 54.78 421.64 57.42 408.90 56.55 C 403.77 56.11 398.12 54.98 394.78 50.68 Z" />
<path fill="#929897" opacity="1.00" d=" M 658.67 15.27 C 668.11 15.18 677.56 15.40 686.99 14.97 C 693.26 15.04 700.00 14.28 705.76 17.26 C 708.90 18.82 709.82 22.40 710.64 25.50 C 708.78 25.45 706.95 25.38 705.11 25.31 C 703.69 23.00 701.84 20.65 698.98 20.24 C 687.69 18.16 676.32 22.82 665.03 20.75 C 661.97 20.32 660.16 17.70 658.67 15.27 Z" />
<path fill="#fcfcfc" opacity="1.00" d=" M 640.31 44.20 C 647.81 39.88 656.17 37.20 664.62 35.43 C 653.67 52.12 637.73 66.21 618.15 71.53 C 621.66 59.98 629.80 50.10 640.31 44.20 Z" />
<path fill="#ffffff" opacity="1.00" d=" M 633.41 81.51 C 643.44 65.73 661.35 58.14 674.58 45.61 C 702.13 56.67 727.35 73.75 747.19 95.90 C 770.38 121.45 786.50 152.69 797.65 185.16 C 799.45 190.95 802.22 196.63 801.86 202.84 C 806.65 204.43 806.15 209.84 807.08 213.86 C 808.65 212.50 810.57 211.19 810.97 208.98 C 812.25 203.69 811.19 198.20 811.79 192.84 C 822.90 211.65 841.41 224.60 852.65 243.31 C 860.30 255.79 863.51 270.67 862.91 285.23 C 850.64 279.19 845.13 266.03 839.59 254.39 C 834.84 244.20 828.61 233.30 817.46 229.20 C 835.61 259.99 852.99 291.26 868.81 323.32 C 898.26 382.47 922.64 444.23 940.41 507.91 C 954.30 557.20 963.86 607.63 970.30 658.42 C 969.11 668.89 970.00 679.45 969.73 689.97 C 969.71 726.10 969.78 762.23 969.69 798.36 C 971.43 798.40 973.16 798.43 974.92 798.48 C 975.10 803.69 974.82 808.91 975.16 814.12 C 974.87 835.94 974.83 857.77 975.19 879.59 C 943.49 944.27 919.24 1012.64 903.73 1083.00 L 129.66 1083.00 C 121.43 1056.08 107.83 1031.12 100.40 1003.93 C 95.59 986.62 93.51 968.59 94.04 950.64 C 104.67 964.97 116.05 978.78 128.56 991.51 C 164.70 1028.94 210.32 1057.49 260.31 1072.17 C 225.13 1048.80 188.79 1026.87 156.33 999.69 C 154.57 998.01 152.18 997.42 149.92 996.78 C 150.27 996.43 150.97 995.73 151.33 995.39 C 137.12 983.41 123.95 970.19 112.16 955.83 C 105.76 947.83 99.36 939.72 94.26 930.83 C 92.61 917.49 91.27 904.07 88.66 890.86 C 80.80 847.23 65.54 805.49 53.21 763.04 C 41.03 721.72 32.85 678.89 33.06 635.69 C 34.75 635.74 36.45 635.79 38.14 635.85 C 38.43 605.23 38.19 574.61 38.27 543.99 C 38.08 532.42 38.68 520.82 37.91 509.27 C 43.07 473.09 60.40 440.08 66.55 404.13 C 69.68 386.59 70.33 368.61 68.56 350.87 C 97.07 308.76 139.58 277.91 165.34 233.72 C 183.52 234.61 201.75 237.04 219.12 242.64 C 236.49 248.10 252.91 256.58 267.33 267.68 C 290.94 285.81 309.06 310.15 323.46 335.97 C 318.09 333.61 312.70 331.28 307.21 329.23 C 304.01 327.75 300.64 326.67 297.16 326.08 C 292.33 325.44 288.77 321.58 283.99 320.75 C 272.84 318.38 261.17 318.32 250.06 320.88 C 246.72 321.58 243.63 323.19 241.31 325.71 C 217.80 329.98 195.79 342.09 179.82 359.89 C 159.98 381.68 148.64 410.12 144.05 438.97 C 139.73 465.93 141.11 493.76 147.89 520.20 C 148.72 524.18 149.74 528.12 151.28 531.89 C 157.26 549.66 165.86 566.69 177.70 581.30 C 187.02 593.03 198.65 602.77 211.51 610.42 C 216.67 613.95 223.06 614.73 229.09 615.66 C 237.02 616.90 245.08 616.59 253.07 616.58 C 262.99 616.04 273.63 615.60 282.37 610.39 C 304.69 597.17 324.27 579.87 342.61 561.66 C 367.84 535.98 391.04 507.57 406.56 474.88 C 413.98 458.72 419.55 441.04 418.30 423.06 C 417.40 408.60 410.69 394.69 400.03 384.89 C 395.53 380.28 389.51 377.41 385.49 372.30 C 383.58 369.05 381.11 366.21 378.52 363.51 C 362.03 345.02 344.50 327.47 325.98 311.03 C 323.30 308.44 320.47 305.98 317.17 304.20 C 314.75 302.00 312.56 299.53 311.18 296.53 C 308.36 290.97 303.11 287.21 297.53 284.74 C 309.03 274.80 326.15 278.46 338.36 269.79 C 329.13 255.04 312.49 247.29 296.45 242.26 C 271.81 234.74 245.96 232.14 221.37 224.40 C 210.41 220.89 199.71 216.04 190.72 208.75 C 204.67 192.12 217.31 174.46 230.14 156.97 C 247.80 133.09 267.27 109.55 292.97 93.95 C 306.16 85.92 320.68 80.13 335.74 76.73 C 339.42 75.87 343.19 76.87 346.91 76.49 C 355.57 76.00 363.28 71.31 371.88 70.46 C 377.57 69.58 383.24 71.44 388.94 70.72 C 416.69 68.27 444.64 70.51 472.07 74.97 C 497.13 78.98 522.03 84.29 547.36 86.34 C 547.21 89.75 547.00 93.26 545.64 96.44 C 542.49 104.33 535.27 109.60 531.81 117.34 C 524.50 117.61 519.15 111.14 511.77 111.72 C 512.18 143.41 499.33 173.05 487.79 201.91 C 479.22 223.47 470.02 245.45 468.75 268.91 C 467.76 285.37 472.43 302.20 482.43 315.39 C 484.03 317.74 486.70 319.86 486.29 323.02 C 486.84 331.77 483.92 341.42 476.10 346.24 C 478.69 348.97 481.95 351.46 485.86 351.68 C 498.19 352.74 509.24 344.98 521.55 345.63 C 518.44 335.72 516.53 325.37 516.72 314.97 C 516.74 300.86 520.91 286.99 527.56 274.63 C 538.14 254.65 554.12 238.38 567.10 220.05 C 574.96 208.99 581.64 196.68 583.75 183.12 C 587.66 162.63 583.97 141.60 587.49 121.09 C 589.53 108.80 597.07 97.19 608.33 91.57 C 620.01 89.97 631.55 93.33 642.88 95.73 C 651.60 97.62 660.63 97.95 669.45 96.55 C 668.31 93.37 666.56 90.17 663.33 88.72 C 653.95 84.14 642.88 85.90 633.41 81.51 M 684.63 106.78 C 683.90 114.12 682.06 121.26 680.58 128.45 C 678.87 137.06 677.57 146.73 682.23 154.67 C 684.31 159.43 690.41 159.54 694.87 159.33 C 700.22 158.82 702.99 153.81 706.55 150.51 C 708.89 148.20 712.24 147.64 715.39 147.45 C 714.89 141.53 713.63 135.58 710.75 130.32 C 705.16 119.65 694.79 112.64 684.63 106.78 M 379.00 172.64 C 379.01 186.43 378.91 200.22 379.06 214.01 C 381.22 215.61 383.55 217.08 386.21 217.72 C 395.62 220.15 405.38 218.59 414.96 218.84 C 415.99 208.09 414.31 196.34 407.21 187.79 C 403.00 182.84 397.59 178.61 391.20 176.99 C 387.47 174.65 383.76 171.68 379.00 172.64 M 633.43 198.63 C 635.96 198.77 638.65 199.03 641.06 198.00 C 644.22 196.66 646.69 194.02 650.02 193.00 C 652.76 192.06 655.68 192.88 658.50 192.81 C 658.71 194.41 658.90 196.01 659.10 197.62 C 657.99 198.00 656.89 198.38 655.80 198.77 C 651.61 200.84 650.56 206.16 646.51 208.37 C 644.02 209.33 641.28 208.72 638.72 208.50 C 637.94 209.38 637.17 210.27 636.47 211.20 C 636.04 211.34 635.19 211.61 634.76 211.74 C 614.28 228.83 595.37 247.78 577.97 267.99 C 576.82 269.33 575.47 270.60 575.12 272.41 C 573.81 273.32 572.64 274.43 571.72 275.72 C 557.45 296.71 547.67 321.45 547.48 347.07 C 546.88 370.18 554.35 393.03 566.68 412.42 C 585.82 442.49 615.08 464.92 646.90 480.29 C 650.31 481.80 653.67 483.42 657.13 484.84 C 658.78 485.52 660.44 486.20 662.10 486.88 C 682.52 494.91 704.05 500.02 725.87 502.10 C 736.94 502.86 748.08 502.89 759.15 502.12 C 762.37 501.50 765.69 501.57 768.91 500.87 C 788.64 498.04 808.02 491.51 824.89 480.78 C 838.51 472.13 850.37 460.76 859.64 447.56 C 860.95 445.52 862.82 443.63 863.12 441.12 C 864.24 432.78 864.36 424.35 864.27 415.94 C 863.77 380.47 850.48 346.27 831.13 316.91 C 809.86 283.90 781.58 256.38 756.90 226.05 C 744.43 211.32 731.68 196.35 715.48 185.58 C 703.75 177.72 689.26 173.07 675.11 175.57 C 659.09 178.19 645.00 187.63 633.43 198.63 M 465.42 449.40 C 462.12 464.01 469.04 478.89 465.68 493.52 C 477.65 493.61 489.62 493.54 501.59 493.55 C 502.99 486.76 503.62 479.22 500.04 472.96 C 495.04 464.04 484.11 460.77 478.96 451.98 C 477.14 449.07 476.46 445.66 475.98 442.32 C 471.27 441.86 466.50 444.63 465.42 449.40 M 888.20 493.36 C 882.52 502.72 872.42 508.28 866.68 517.58 C 862.57 524.03 861.99 531.91 862.65 539.35 C 874.59 539.37 886.54 539.35 898.48 539.36 C 898.45 532.90 898.77 526.42 898.07 519.98 C 897.53 512.17 900.79 504.21 898.47 496.53 C 896.96 492.12 891.75 493.59 888.20 493.36 M 114.55 666.27 C 114.65 673.57 111.69 681.15 114.75 688.22 C 117.08 694.37 123.95 697.03 130.06 697.45 C 135.41 697.62 140.86 697.78 146.13 696.72 C 149.31 696.30 150.87 692.98 150.94 690.10 C 151.43 682.12 148.76 674.22 150.10 666.24 C 138.25 666.28 126.40 666.23 114.55 666.27 M 567.86 716.72 C 532.62 728.96 502.02 753.33 481.17 784.16 C 459.25 816.08 447.39 854.39 445.40 892.93 C 445.18 905.55 436.67 917.07 439.22 929.88 C 441.04 937.16 448.92 940.19 455.67 940.97 C 457.22 932.63 460.64 924.61 466.03 918.02 C 475.48 906.26 488.93 898.94 500.57 889.66 C 510.35 882.06 518.71 872.03 521.92 859.87 C 537.25 868.81 555.81 867.27 572.62 864.59 C 578.21 861.64 579.93 854.79 580.87 849.01 C 583.15 835.75 580.49 821.18 587.55 809.07 C 591.13 809.49 594.57 810.59 598.10 811.32 C 606.29 813.06 614.67 814.49 622.29 818.15 C 622.58 818.58 623.15 819.46 623.44 819.89 C 623.72 821.15 622.95 822.99 623.92 823.98 C 627.22 825.10 630.95 825.54 634.26 824.19 C 637.22 822.86 638.99 819.76 639.44 816.64 C 640.97 805.35 637.41 794.14 638.29 782.85 C 638.65 779.39 639.71 775.28 643.07 773.58 C 648.09 772.85 653.14 773.68 658.05 774.78 C 663.01 776.96 667.37 780.32 672.42 782.34 C 677.93 784.51 683.98 784.57 689.73 783.38 C 692.58 773.56 701.30 767.16 710.24 763.20 C 721.31 757.93 734.41 753.93 740.96 742.67 C 716.58 727.36 689.42 716.22 661.14 710.70 C 630.23 704.71 597.65 706.25 567.86 716.72 M 623.45 848.88 C 627.88 852.58 630.17 857.95 633.69 862.38 C 637.46 866.96 643.98 865.87 649.12 864.97 C 650.72 855.17 642.50 845.39 632.97 843.91 C 628.99 843.18 625.55 845.75 623.45 848.88 M 532.45 908.42 C 529.43 914.15 530.18 921.06 532.16 927.01 C 533.36 930.32 535.08 933.84 538.32 935.59 C 539.71 936.30 542.03 936.79 542.87 935.04 C 547.04 929.65 547.87 922.66 547.20 916.07 C 545.83 914.75 543.78 913.74 543.50 911.69 C 542.83 909.55 543.15 907.02 541.88 905.15 C 538.50 903.65 534.18 905.16 532.45 908.42 Z" />
<path fill="#929897" opacity="1.00" d=" M 392.99 56.99 C 392.11 54.65 393.54 52.41 394.47 50.35 L 394.78 50.68 C 398.12 54.98 403.77 56.11 408.90 56.55 C 421.64 57.42 434.28 54.78 447.01 54.93 C 453.89 54.89 461.50 55.82 466.41 61.18 C 450.31 59.20 434.14 61.87 418.02 61.97 C 411.50 61.91 404.86 62.35 398.50 60.65 C 396.39 60.01 394.02 59.10 392.99 56.99 Z" />
<path fill="#929897" opacity="1.00" d=" M 736.65 72.25 C 748.74 80.61 759.07 91.23 769.34 101.68 C 774.99 108.03 781.03 114.14 785.69 121.29 C 774.86 113.66 765.29 104.38 755.97 95.00 C 749.24 87.68 742.16 80.57 736.65 72.25 Z" />
<path fill="#fcfcfc" opacity="1.00" d=" M 555.85 94.87 C 557.85 91.85 559.72 88.50 562.73 86.37 C 567.68 87.56 572.50 91.16 573.43 96.43 C 574.81 103.94 571.44 111.30 567.68 117.60 C 563.70 123.64 558.96 129.75 552.11 132.63 C 549.50 129.62 547.52 125.95 547.45 121.89 C 546.93 112.22 551.01 103.01 555.85 94.87 Z" />
<path fill="#00fffa" opacity="1.00" d=" M 684.63 106.78 C 694.79 112.64 705.16 119.65 710.75 130.32 C 713.63 135.58 714.89 141.53 715.39 147.45 C 712.24 147.64 708.89 148.20 706.55 150.51 C 702.99 153.81 700.22 158.82 694.87 159.33 C 690.41 159.54 684.31 159.43 682.23 154.67 C 677.57 146.73 678.87 137.06 680.58 128.45 C 682.06 121.26 683.90 114.12 684.63 106.78 Z" />
<path fill="#929897" opacity="1.00" d=" M 519.15 143.22 C 521.33 139.28 523.67 135.15 527.08 132.19 C 531.75 132.90 535.55 136.86 536.46 141.44 C 538.08 150.48 534.16 160.39 526.58 165.65 C 523.62 167.66 519.92 168.57 516.39 167.80 C 515.27 159.57 515.15 150.75 519.15 143.22 Z" />
<path fill="#fcfcfc" opacity="1.00" d=" M 557.36 137.00 C 559.69 138.52 562.12 140.24 563.07 142.99 C 565.22 148.56 563.37 154.63 561.56 160.03 C 555.70 176.45 545.07 191.06 541.87 208.42 C 536.26 199.01 536.17 187.43 538.43 176.99 C 541.63 162.47 548.47 148.87 557.36 137.00 Z" />
<path fill="#00fffa" opacity="1.00" d=" M 379.00 172.64 C 383.76 171.68 387.47 174.65 391.20 176.99 C 397.59 178.61 403.00 182.84 407.21 187.79 C 414.31 196.34 415.99 208.09 414.96 218.84 C 405.38 218.59 395.62 220.15 386.21 217.72 C 383.55 217.08 381.22 215.61 379.06 214.01 C 378.91 200.22 379.01 186.43 379.00 172.64 Z" />
<path fill="#1a1a1a" opacity="1.00" d=" M 633.43 198.63 C 645.00 187.63 659.09 178.19 675.11 175.57 C 689.26 173.07 703.75 177.72 715.48 185.58 C 731.68 196.35 744.43 211.32 756.90 226.05 C 781.58 256.38 809.86 283.90 831.13 316.91 C 850.48 346.27 863.77 380.47 864.27 415.94 C 864.36 424.35 864.24 432.78 863.12 441.12 C 862.82 443.63 860.95 445.52 859.64 447.56 C 850.37 460.76 838.51 472.13 824.89 480.78 C 808.02 491.51 788.64 498.04 768.91 500.87 C 765.69 501.57 762.37 501.50 759.15 502.12 C 748.08 502.89 736.94 502.86 725.87 502.10 C 704.05 500.02 682.52 494.91 662.10 486.88 C 660.44 486.20 658.78 485.52 657.13 484.84 C 653.67 483.42 650.31 481.80 646.90 480.29 C 615.08 464.92 585.82 442.49 566.68 412.42 C 554.35 393.03 546.88 370.18 547.48 347.07 C 547.67 321.45 557.45 296.71 571.72 275.72 C 572.64 274.43 573.81 273.32 575.12 272.41 C 584.54 265.55 592.80 257.24 601.32 249.31 C 613.56 237.12 625.91 224.90 636.47 211.20 C 637.17 210.27 637.94 209.38 638.72 208.50 C 641.28 208.72 644.02 209.33 646.51 208.37 C 650.56 206.16 651.61 200.84 655.80 198.77 C 662.04 198.05 668.35 199.17 674.58 198.33 C 677.54 198.10 678.97 195.32 680.41 193.13 C 683.93 195.23 683.84 199.53 684.37 203.11 C 681.15 203.86 677.98 204.76 674.84 205.78 C 644.20 214.86 617.74 235.29 598.57 260.57 C 581.31 283.25 569.52 310.24 565.57 338.52 C 564.46 339.30 563.22 339.96 562.33 340.99 C 562.11 347.77 562.25 354.56 562.34 361.35 C 562.90 361.31 564.01 361.22 564.57 361.17 C 565.25 380.12 570.54 399.05 580.84 415.05 C 593.04 434.13 611.75 448.50 632.45 457.31 C 635.25 458.73 637.61 455.84 638.48 453.50 C 641.41 444.44 637.13 434.51 640.60 425.60 C 641.98 421.66 646.64 422.40 649.89 421.41 C 656.06 419.86 660.26 414.76 665.16 411.07 C 667.91 408.93 671.27 407.86 674.50 406.68 C 696.50 406.78 718.51 406.80 740.51 406.68 C 742.13 406.68 743.74 406.70 745.38 406.72 C 755.28 420.40 766.17 433.81 771.92 449.92 C 777.04 463.84 777.77 478.96 776.23 493.59 C 792.62 490.68 808.24 483.64 820.97 472.86 C 830.99 464.24 839.76 454.28 847.84 443.85 C 849.48 441.32 852.43 439.22 852.71 436.08 C 850.97 400.91 843.25 365.80 828.04 333.93 C 812.52 300.92 789.41 272.06 763.57 246.54 C 744.95 227.72 724.65 210.69 705.07 192.91 C 703.10 190.70 700.45 189.24 697.57 188.61 C 687.78 186.26 677.45 186.24 667.63 188.36 C 664.21 188.98 661.34 190.96 658.50 192.81 C 655.68 192.88 652.76 192.06 650.02 193.00 C 646.69 194.02 644.22 196.66 641.06 198.00 C 638.65 199.03 635.96 198.77 633.43 198.63 M 659.83 432.73 C 648.13 442.51 642.75 458.22 643.78 473.20 C 657.33 475.66 670.55 479.62 683.83 483.23 C 700.90 487.80 718.22 491.71 735.87 493.09 C 742.58 493.61 749.32 493.57 756.05 493.55 C 762.73 479.25 765.88 461.90 758.91 447.11 C 751.90 432.30 736.56 423.50 721.11 419.87 C 700.22 415.62 676.47 418.45 659.83 432.73 M 734.97 494.44 C 742.11 495.21 749.36 495.35 756.53 494.82 C 756.13 494.64 755.32 494.26 754.92 494.07 C 748.28 493.84 741.59 493.85 734.97 494.44 Z" />
<path fill="#929897" opacity="1.00" d=" M 558.70 183.65 C 562.06 179.35 567.70 178.08 572.88 177.74 C 572.15 186.18 571.83 195.40 566.58 202.48 C 563.27 206.97 557.57 208.67 552.22 208.76 C 552.73 200.17 553.19 190.73 558.70 183.65 Z" />
<path fill="#929897" opacity="1.00" d=" M 667.63 188.36 C 677.45 186.24 687.78 186.26 697.57 188.61 C 700.45 189.24 703.10 190.70 705.07 192.91 C 701.68 192.59 698.04 191.47 694.76 192.78 C 690.81 195.21 690.15 200.74 686.09 203.04 C 682.48 204.45 678.57 204.81 674.84 205.78 C 677.98 204.76 681.15 203.86 684.37 203.11 C 683.84 199.53 683.93 195.23 680.41 193.13 C 678.97 195.32 677.54 198.10 674.58 198.33 C 668.35 199.17 662.04 198.05 655.80 198.77 C 656.89 198.38 657.99 198.00 659.10 197.62 C 658.90 196.01 658.71 194.41 658.50 192.81 C 661.34 190.96 664.21 188.98 667.63 188.36 Z" />
<path fill="#ffffff" opacity="1.00" d=" M 694.76 192.78 C 698.04 191.47 701.68 192.59 705.07 192.91 C 724.65 210.69 744.95 227.72 763.57 246.54 C 789.41 272.06 812.52 300.92 828.04 333.93 C 843.25 365.80 850.97 400.91 852.71 436.08 C 852.43 439.22 849.48 441.32 847.84 443.85 C 839.76 454.28 830.99 464.24 820.97 472.86 C 808.24 483.64 792.62 490.68 776.23 493.59 C 777.77 478.96 777.04 463.84 771.92 449.92 C 766.17 433.81 755.28 420.40 745.38 406.72 C 743.74 406.70 742.13 406.68 740.51 406.68 C 737.86 404.86 734.88 403.60 731.76 402.87 C 720.37 400.21 708.55 400.08 696.93 400.78 C 689.24 401.58 681.16 402.39 674.50 406.68 C 671.27 407.86 667.91 408.93 665.16 411.07 C 660.26 414.76 656.06 419.86 649.89 421.41 C 646.64 422.40 641.98 421.66 640.60 425.60 C 637.13 434.51 641.41 444.44 638.48 453.50 C 637.61 455.84 635.25 458.73 632.45 457.31 C 611.75 448.50 593.04 434.13 580.84 415.05 C 570.54 399.05 565.25 380.12 564.57 361.17 C 564.01 361.22 562.90 361.31 562.34 361.35 C 562.25 354.56 562.11 347.77 562.33 340.99 C 563.22 339.96 564.46 339.30 565.57 338.52 C 569.52 310.24 581.31 283.25 598.57 260.57 C 617.74 235.29 644.20 214.86 674.84 205.78 C 678.57 204.81 682.48 204.45 686.09 203.04 C 690.15 200.74 690.81 195.21 694.76 192.78 Z" />
<path fill="#929897" opacity="1.00" d=" M 634.76 211.74 C 635.19 211.61 636.04 211.34 636.47 211.20 C 625.91 224.90 613.56 237.12 601.32 249.31 C 592.80 257.24 584.54 265.55 575.12 272.41 C 575.47 270.60 576.82 269.33 577.97 267.99 C 595.37 247.78 614.28 228.83 634.76 211.74 Z" />
<path fill="#929897" opacity="1.00" d=" M 496.49 213.35 C 500.74 218.52 501.60 225.56 500.54 231.98 C 498.45 245.55 491.44 257.58 486.05 270.01 C 481.67 264.72 481.33 257.36 483.39 251.05 C 487.35 238.34 495.71 226.99 496.49 213.35 Z" />
<path fill="#929897" opacity="1.00" d=" M 74.04 223.60 C 97.82 223.59 121.59 223.56 145.36 223.62 C 139.61 239.96 128.91 254.52 114.73 264.53 C 114.83 261.49 115.32 258.44 116.63 255.68 C 120.95 245.76 129.99 238.99 134.76 229.33 C 123.55 228.15 112.22 229.73 100.99 228.56 C 93.43 227.95 85.91 230.79 78.38 229.34 C 75.93 228.98 74.48 226.86 73.41 224.85 L 74.04 223.60 Z" />
<path fill="#929897" opacity="1.00" d=" M 271.87 254.13 C 278.53 249.53 287.15 249.15 294.90 250.43 C 302.30 251.60 310.04 254.11 315.18 259.86 C 317.64 262.52 318.39 266.19 318.40 269.71 C 312.70 269.84 306.84 270.34 301.29 268.71 C 290.58 265.78 282.28 257.79 271.87 254.13 Z" />
<path fill="#fcfcfc" opacity="1.00" d=" M 501.54 264.08 C 504.63 266.01 506.57 269.30 506.96 272.91 C 508.76 285.40 504.42 297.96 506.58 310.46 C 502.70 311.31 498.43 312.03 494.72 310.20 C 489.60 307.56 486.83 301.56 480.95 300.15 C 485.16 286.70 496.96 277.39 501.54 264.08 Z" />
<path fill="#929897" opacity="1.00" d=" M 317.17 304.20 C 320.47 305.98 323.30 308.44 325.98 311.03 C 344.50 327.47 362.03 345.02 378.52 363.51 C 381.11 366.21 383.58 369.05 385.49 372.30 C 382.06 370.66 379.32 367.98 376.54 365.46 C 357.05 347.99 338.58 329.38 321.19 309.83 C 319.65 308.10 318.39 306.15 317.17 304.20 Z" />
<path fill="#929897" opacity="1.00" d=" M 250.06 320.88 C 261.17 318.32 272.84 318.38 283.99 320.75 C 288.77 321.58 292.33 325.44 297.16 326.08 C 300.64 326.67 304.01 327.75 307.21 329.23 C 301.19 327.83 295.25 325.68 289.01 325.71 C 273.11 325.73 257.21 325.73 241.31 325.71 C 243.63 323.19 246.72 321.58 250.06 320.88 Z" />
<path fill="#fefefe" opacity="1.00" d=" M 158.68 409.60 C 181.68 365.30 231.01 336.02 280.95 337.50 C 309.75 338.04 338.02 350.23 358.40 370.55 C 359.53 371.84 360.21 373.46 360.86 375.04 C 365.04 385.98 365.13 398.02 369.43 408.93 C 371.51 414.24 375.36 419.22 380.92 421.12 C 385.15 422.85 389.77 422.49 394.22 422.29 C 395.52 420.79 397.66 419.32 396.97 417.03 C 395.73 414.09 392.88 412.37 390.49 410.48 C 385.77 406.93 380.73 403.00 378.71 397.22 C 377.42 393.72 378.04 389.95 378.98 386.46 C 384.32 385.03 390.66 385.14 394.98 389.01 C 399.94 393.35 403.03 400.16 409.95 401.87 C 410.99 420.52 408.64 439.52 401.74 456.95 C 393.87 477.45 380.52 495.10 369.14 513.69 C 362.40 510.82 355.83 507.56 348.88 505.19 C 334.44 499.91 319.33 496.70 304.10 494.83 C 300.69 494.48 297.27 494.38 293.87 494.10 C 287.98 493.11 281.94 493.75 276.00 493.39 C 271.24 492.89 266.94 495.47 263.50 498.48 C 254.29 506.78 248.92 518.40 245.07 529.97 C 240.67 544.43 238.49 560.28 242.97 574.99 C 245.72 584.19 252.83 592.33 262.27 594.91 C 249.00 600.55 234.29 602.99 219.92 601.33 C 207.79 599.46 196.73 592.43 189.44 582.61 C 183.99 575.49 179.69 567.48 176.58 559.08 C 163.96 529.47 160.81 496.38 145.13 467.99 C 144.35 447.80 149.44 427.51 158.68 409.60 Z" />
<path fill="#929897" opacity="1.00" d=" M 674.50 406.68 C 681.16 402.39 689.24 401.58 696.93 400.78 C 708.55 400.08 720.37 400.21 731.76 402.87 C 734.88 403.60 737.86 404.86 740.51 406.68 C 718.51 406.80 696.50 406.78 674.50 406.68 Z" />
<path fill="#929897" opacity="1.00" d=" M 2.48 701.70 C 2.61 605.03 2.30 508.36 2.63 411.70 C 4.33 411.69 6.02 411.69 7.71 411.68 C 7.80 508.36 7.74 605.04 7.74 701.73 C 5.98 701.71 4.23 701.70 2.48 701.70 Z" />
<path fill="#929897" opacity="1.00" d=" M 12.66 411.43 C 16.57 412.43 18.32 416.31 18.16 420.07 C 17.89 439.36 18.07 458.66 18.02 477.96 C 17.85 489.32 18.66 500.65 18.77 512.01 C 18.54 536.66 17.35 561.30 17.02 585.96 C 17.23 605.93 17.75 626.15 22.93 645.57 C 20.12 649.97 17.59 654.75 17.57 660.13 C 17.20 672.56 22.01 684.35 23.16 696.64 C 21.02 697.37 18.83 698.63 18.39 701.06 C 17.09 706.96 18.08 713.06 17.88 719.05 C 11.36 667.96 11.39 616.34 11.99 564.93 C 12.75 513.77 14.10 462.60 12.66 411.43 Z" />
<path fill="#fcfcfc" opacity="1.00" d=" M 659.83 432.73 C 676.47 418.45 700.22 415.62 721.11 419.87 C 736.56 423.50 751.90 432.30 758.91 447.11 C 765.88 461.90 762.73 479.25 756.05 493.55 C 749.32 493.57 742.58 493.61 735.87 493.09 C 718.22 491.71 700.90 487.80 683.83 483.23 C 670.55 479.62 657.33 475.66 643.78 473.20 C 642.75 458.22 648.13 442.51 659.83 432.73 Z" />
<path fill="#00fffa" opacity="1.00" d=" M 465.42 449.40 C 466.50 444.63 471.27 441.86 475.98 442.32 C 476.46 445.66 477.14 449.07 478.96 451.98 C 484.11 460.77 495.04 464.04 500.04 472.96 C 503.62 479.22 502.99 486.76 501.59 493.55 C 489.62 493.54 477.65 493.61 465.68 493.52 C 469.04 478.89 462.12 464.01 465.42 449.40 Z" />
<path fill="#00fffa" opacity="1.00" d=" M 888.20 493.36 C 891.75 493.59 896.96 492.12 898.47 496.53 C 900.79 504.21 897.53 512.17 898.07 519.98 C 898.77 526.42 898.45 532.90 898.48 539.36 C 886.54 539.35 874.59 539.37 862.65 539.35 C 861.99 531.91 862.57 524.03 866.68 517.58 C 872.42 508.28 882.52 502.72 888.20 493.36 Z" />
<path fill="#070707" opacity="1.00" d=" M 734.97 494.44 C 741.59 493.85 748.28 493.84 754.92 494.07 C 755.32 494.26 756.13 494.64 756.53 494.82 C 749.36 495.35 742.11 495.21 734.97 494.44 Z" />
<path fill="#929897" opacity="1.00" d=" M 22.09 534.92 C 22.60 524.34 23.49 513.48 27.88 503.70 C 26.29 529.83 29.44 555.93 28.87 582.06 C 28.37 593.01 27.79 604.36 23.18 614.49 C 24.54 587.95 21.31 561.45 22.09 534.92 Z" />
<path fill="#fcfcfc" opacity="1.00" d=" M 281.86 508.76 C 289.17 508.09 296.55 506.92 303.88 508.08 C 314.84 508.58 325.65 510.82 336.19 513.79 C 340.50 515.16 344.80 516.64 348.83 518.73 C 348.62 525.21 348.88 531.69 348.71 538.17 C 348.85 539.31 347.93 540.13 347.05 540.66 C 340.34 544.90 334.69 550.54 328.80 555.82 C 321.59 562.25 315.06 569.39 308.61 576.56 C 305.42 580.20 302.18 583.82 299.61 587.93 C 295.72 593.19 288.79 594.86 282.60 595.50 C 281.22 592.91 279.98 590.20 277.99 588.02 C 276.31 586.11 273.73 585.60 271.55 584.50 C 264.19 577.85 262.51 567.50 262.09 558.07 C 261.57 548.56 262.59 539.03 261.89 529.53 C 260.25 523.13 266.23 519.07 267.55 513.37 C 271.94 510.86 277.01 509.97 281.86 508.76 Z" />
<path fill="#929897" opacity="1.00" d=" M 32.68 537.06 C 33.42 527.66 34.53 518.14 37.91 509.27 C 38.68 520.82 38.08 532.42 38.27 543.99 C 38.19 574.61 38.43 605.23 38.14 635.85 C 36.45 635.79 34.75 635.74 33.06 635.69 C 35.28 602.82 30.68 569.94 32.68 537.06 Z" />
<path fill="#929897" opacity="1.00" d=" M 261.89 529.53 C 262.59 539.03 261.57 548.56 262.09 558.07 C 262.51 567.50 264.19 577.85 271.55 584.50 C 267.40 585.62 263.37 583.25 261.09 579.87 C 256.73 573.48 255.86 565.49 255.52 557.96 C 255.46 550.16 256.34 542.27 258.84 534.85 C 259.44 532.86 260.55 531.10 261.89 529.53 Z" />
<path fill="#929897" opacity="1.00" d=" M 328.80 555.82 C 334.69 550.54 340.34 544.90 347.05 540.66 C 346.41 542.06 345.61 543.40 344.60 544.57 C 331.99 559.88 317.87 573.95 302.49 586.47 C 301.63 587.14 300.67 587.63 299.61 587.93 C 302.18 583.82 305.42 580.20 308.61 576.56 C 315.06 569.39 321.59 562.25 328.80 555.82 Z" />
<path fill="#929897" opacity="1.00" d=" M 979.83 584.62 C 981.62 584.99 985.47 583.89 985.24 586.88 C 985.18 604.94 985.51 623.03 985.04 641.09 C 981.68 638.39 979.94 634.29 979.47 630.08 C 977.53 614.94 982.05 599.76 979.83 584.62 Z" />
<path fill="#929897" opacity="1.00" d=" M 211.51 610.42 C 235.13 610.21 258.75 610.26 282.37 610.39 C 273.63 615.60 262.99 616.04 253.07 616.58 C 245.08 616.59 237.02 616.90 229.09 615.66 C 223.06 614.73 216.67 613.95 211.51 610.42 Z" />
<path fill="#929897" opacity="1.00" d=" M 970.30 658.42 C 973.44 667.29 974.26 676.76 975.08 686.08 C 977.61 723.53 972.44 761.03 974.92 798.48 C 973.16 798.43 971.43 798.40 969.69 798.36 C 969.78 762.23 969.71 726.10 969.73 689.97 C 970.00 679.45 969.11 668.89 970.30 658.42 Z" />
<path fill="#00fffa" opacity="1.00" d=" M 114.55 666.27 C 126.40 666.23 138.25 666.28 150.10 666.24 C 148.76 674.22 151.43 682.12 150.94 690.10 C 150.87 692.98 149.31 696.30 146.13 696.72 C 140.86 697.78 135.41 697.62 130.06 697.45 C 123.95 697.03 117.08 694.37 114.75 688.22 C 111.69 681.15 114.65 673.57 114.55 666.27 Z" />
<path fill="#fcfcfc" opacity="1.00" d=" M 18.39 701.06 C 18.83 698.63 21.02 697.37 23.16 696.64 C 46.74 768.77 64.75 842.55 84.15 915.88 C 64.10 891.95 50.09 863.52 40.13 834.07 C 27.74 796.91 21.30 758.00 17.88 719.05 C 18.08 713.06 17.09 706.96 18.39 701.06 Z" />
<path fill="#1a1a1a" opacity="1.00" d=" M 567.86 716.72 C 597.65 706.25 630.23 704.71 661.14 710.70 C 689.42 716.22 716.58 727.36 740.96 742.67 C 734.41 753.93 721.31 757.93 710.24 763.20 C 701.30 767.16 692.58 773.56 689.73 783.38 C 683.98 784.57 677.93 784.51 672.42 782.34 C 667.37 780.32 663.01 776.96 658.05 774.78 C 653.75 772.50 648.79 772.70 644.08 772.68 C 642.19 771.38 640.36 769.56 637.92 769.55 C 635.10 771.31 634.91 774.94 634.52 777.91 C 633.76 788.94 634.92 800.11 633.03 811.06 C 632.63 814.00 631.03 816.53 629.24 818.83 C 626.91 818.68 624.57 818.61 622.29 818.15 C 614.67 814.49 606.29 813.06 598.10 811.32 C 594.57 810.59 591.13 809.49 587.55 809.07 C 580.49 821.18 583.15 835.75 580.87 849.01 C 579.93 854.79 578.21 861.64 572.62 864.59 C 555.81 867.27 537.25 868.81 521.92 859.87 C 518.71 872.03 510.35 882.06 500.57 889.66 C 488.93 898.94 475.48 906.26 466.03 918.02 C 460.64 924.61 457.22 932.63 455.67 940.97 C 448.92 940.19 441.04 937.16 439.22 929.88 C 436.67 917.07 445.18 905.55 445.40 892.93 C 447.39 854.39 459.25 816.08 481.17 784.16 C 502.02 753.33 532.62 728.96 567.86 716.72 M 577.92 720.42 C 564.46 723.87 551.63 730.89 542.62 741.61 C 541.38 742.50 543.04 743.62 543.49 744.45 C 555.13 758.44 565.52 773.61 579.04 785.94 C 591.41 797.51 606.97 805.82 623.72 808.75 C 624.89 794.19 626.61 779.67 626.85 765.06 C 627.25 748.62 625.16 731.82 618.43 716.69 C 604.85 716.52 591.11 716.85 577.92 720.42 M 633.54 722.24 C 632.23 730.49 631.72 739.25 634.86 747.16 C 637.55 754.16 643.48 759.45 650.16 762.60 C 662.55 768.73 676.59 769.63 689.71 773.42 C 690.35 764.98 689.83 756.49 690.00 748.03 C 689.83 744.44 690.40 740.76 689.69 737.24 C 674.03 724.70 653.09 721.33 633.54 722.24 M 501.96 772.14 C 496.83 780.34 495.42 790.40 495.75 799.94 C 496.67 820.77 508.81 840.67 526.77 851.22 C 537.47 857.58 550.06 860.20 562.44 859.66 C 562.92 856.78 564.44 854.31 566.18 852.04 C 568.10 849.56 568.03 846.29 568.08 843.32 C 571.32 840.49 572.30 836.07 573.17 832.05 C 574.81 822.37 573.90 812.08 569.87 803.07 C 567.71 798.43 563.90 793.54 558.30 793.47 C 558.13 793.30 557.79 792.96 557.62 792.79 C 557.88 786.72 554.62 781.60 551.84 776.52 C 552.77 765.75 546.22 753.44 535.15 750.79 C 520.79 747.60 505.52 758.22 501.96 772.14 M 456.88 857.99 C 453.78 872.00 454.05 887.19 460.40 900.28 C 473.00 891.34 488.60 888.32 501.54 880.01 C 501.46 871.45 501.50 862.89 501.51 854.33 C 493.91 853.64 485.28 851.65 481.18 844.50 C 488.01 844.32 494.83 844.49 501.66 844.40 C 500.99 840.37 500.22 836.32 498.63 832.54 C 494.56 821.83 485.47 814.14 475.95 808.31 C 468.50 824.40 460.54 840.52 456.88 857.99 Z" />
<path fill="#929897" opacity="1.00" d=" M 979.16 733.95 C 980.01 726.48 980.79 718.64 984.89 712.14 C 985.65 719.74 985.12 727.38 985.27 735.01 C 985.22 751.27 985.37 767.53 985.18 783.79 C 982.94 780.13 981.42 776.09 980.69 771.87 C 978.28 759.40 978.00 746.57 979.16 733.95 Z" />
<path fill="#fcfcfc" opacity="1.00" d=" M 577.92 720.42 C 591.11 716.85 604.85 716.52 618.43 716.69 C 625.16 731.82 627.25 748.62 626.85 765.06 C 626.61 779.67 624.89 794.19 623.72 808.75 C 606.97 805.82 591.41 797.51 579.04 785.94 C 565.52 773.61 555.13 758.44 543.49 744.45 C 543.04 743.62 541.38 742.50 542.62 741.61 C 551.63 730.89 564.46 723.87 577.92 720.42 Z" />
<path fill="#fcfcfc" opacity="1.00" d=" M 633.54 722.24 C 653.09 721.33 674.03 724.70 689.69 737.24 C 690.40 740.76 689.83 744.44 690.00 748.03 C 689.83 756.49 690.35 764.98 689.71 773.42 C 676.59 769.63 662.55 768.73 650.16 762.60 C 643.48 759.45 637.55 754.16 634.86 747.16 C 631.72 739.25 632.23 730.49 633.54 722.24 Z" />
<path fill="#929897" opacity="1.00" d=" M 501.96 772.14 C 505.52 758.22 520.79 747.60 535.15 750.79 C 546.22 753.44 552.77 765.75 551.84 776.52 C 549.02 770.34 546.02 763.76 540.21 759.81 C 534.43 755.36 526.28 755.18 519.68 757.76 C 512.47 760.66 506.99 766.41 501.96 772.14 Z" />
<path fill="#fcfcfc" opacity="1.00" d=" M 519.68 757.76 C 526.28 755.18 534.43 755.36 540.21 759.81 C 546.02 763.76 549.02 770.34 551.84 776.52 C 554.62 781.60 557.88 786.72 557.62 792.79 C 557.79 792.96 558.13 793.30 558.30 793.47 C 565.89 800.43 567.64 811.17 568.02 820.97 C 568.61 828.42 567.67 835.87 568.08 843.32 C 568.03 846.29 568.10 849.56 566.18 852.04 C 564.44 854.31 562.92 856.78 562.44 859.66 C 550.06 860.20 537.47 857.58 526.77 851.22 C 508.81 840.67 496.67 820.77 495.75 799.94 C 495.42 790.40 496.83 780.34 501.96 772.14 C 506.99 766.41 512.47 760.66 519.68 757.76 Z" />
<path fill="#929897" opacity="1.00" d=" M 634.52 777.91 C 634.91 774.94 635.10 771.31 637.92 769.55 C 640.36 769.56 642.19 771.38 644.08 772.68 C 648.79 772.70 653.75 772.50 658.05 774.78 C 653.14 773.68 648.09 772.85 643.07 773.58 C 639.71 775.28 638.65 779.39 638.29 782.85 C 637.41 794.14 640.97 805.35 639.44 816.64 C 638.99 819.76 637.22 822.86 634.26 824.19 C 630.95 825.54 627.22 825.10 623.92 823.98 C 622.95 822.99 623.72 821.15 623.44 819.89 C 623.15 819.46 622.58 818.58 622.29 818.15 C 624.57 818.61 626.91 818.68 629.24 818.83 C 631.03 816.53 632.63 814.00 633.03 811.06 C 634.92 800.11 633.76 788.94 634.52 777.91 Z" />
<path fill="#929897" opacity="1.00" d=" M 558.30 793.47 C 563.90 793.54 567.71 798.43 569.87 803.07 C 573.90 812.08 574.81 822.37 573.17 832.05 C 572.30 836.07 571.32 840.49 568.08 843.32 C 567.67 835.87 568.61 828.42 568.02 820.97 C 567.64 811.17 565.89 800.43 558.30 793.47 Z" />
<path fill="#929897" opacity="1.00" d=" M 985.19 813.87 C 989.63 811.29 989.27 803.51 995.24 803.43 C 995.24 818.86 995.29 834.30 995.22 849.74 C 990.67 849.18 986.44 846.26 985.61 841.54 C 983.81 832.44 985.09 823.07 985.19 813.87 Z" />
<path fill="#929897" opacity="1.00" d=" M 1000.63 803.35 C 1006.52 810.43 1006.39 820.29 1006.77 829.00 C 1006.42 837.74 1006.49 847.63 1000.56 854.72 C 1000.51 837.60 1000.36 820.47 1000.63 803.35 Z" />
<path fill="#fcfcfc" opacity="1.00" d=" M 456.88 857.99 C 460.54 840.52 468.50 824.40 475.95 808.31 C 485.47 814.14 494.56 821.83 498.63 832.54 C 500.22 836.32 500.99 840.37 501.66 844.40 C 494.83 844.49 488.01 844.32 481.18 844.50 C 485.28 851.65 493.91 853.64 501.51 854.33 C 501.50 862.89 501.46 871.45 501.54 880.01 C 488.60 888.32 473.00 891.34 460.40 900.28 C 454.05 887.19 453.78 872.00 456.88 857.99 Z" />
<path fill="#929897" opacity="1.00" d=" M 975.16 814.12 C 976.69 816.61 978.06 819.25 978.68 822.15 C 981.49 833.88 981.72 846.10 980.82 858.09 C 980.05 865.46 979.26 873.19 975.19 879.59 C 974.83 857.77 974.87 835.94 975.16 814.12 Z" />
<path fill="#dedede" opacity="1.00" d=" M 623.45 848.88 C 625.55 845.75 628.99 843.18 632.97 843.91 C 642.50 845.39 650.72 855.17 649.12 864.97 C 643.98 865.87 637.46 866.96 633.69 862.38 C 630.17 857.95 627.88 852.58 623.45 848.88 Z" />
<path fill="#dedede" opacity="1.00" d=" M 532.45 908.42 C 534.18 905.16 538.50 903.65 541.88 905.15 C 543.15 907.02 542.83 909.55 543.50 911.69 C 543.78 913.74 545.83 914.75 547.20 916.07 C 547.87 922.66 547.04 929.65 542.87 935.04 C 542.03 936.79 539.71 936.30 538.32 935.59 C 535.08 933.84 533.36 930.32 532.16 927.01 C 530.18 921.06 529.43 914.15 532.45 908.42 Z" />
</svg>
