<?xml version="1.0" encoding="UTF-8" ?>
<!DOCTYPE svg PUBLIC "-//W3C//DTD SVG 1.1//EN" "http://www.w3.org/Graphics/SVG/1.1/DTD/svg11.dtd">
<svg width="931pt" height="1251pt" viewBox="0 0 931 1251" version="1.1" xmlns="http://www.w3.org/2000/svg">
<path fill="#ffffff" opacity="1.00" d=" M 0.00 0.00 L 931.00 0.00 L 931.00 1251.00 L 0.00 1251.00 L 0.00 0.00 M 361.86 20.51 C 314.64 27.21 267.81 37.03 222.12 50.76 C 183.52 62.43 145.61 76.84 109.92 95.73 C 80.10 111.59 51.65 130.71 28.17 155.17 C 34.14 186.07 44.18 216.02 55.28 245.42 C 70.90 286.70 88.97 327.07 102.68 369.06 C 113.85 403.01 122.01 438.19 123.80 473.97 C 125.08 496.70 123.56 519.55 119.69 541.98 C 101.08 537.23 82.48 530.47 63.00 531.28 C 53.90 531.74 44.17 534.71 38.30 542.06 C 35.91 551.27 35.10 561.01 36.73 570.42 C 38.96 583.96 47.22 595.86 57.91 604.19 C 74.27 616.92 94.27 623.73 114.04 629.12 C 127.69 632.95 141.69 635.34 155.47 638.59 C 156.07 645.40 156.30 652.35 154.51 659.02 C 151.18 673.20 139.73 683.78 136.37 697.95 C 134.87 703.15 135.20 708.62 134.29 713.92 C 133.87 728.02 139.09 741.90 136.98 756.04 C 136.02 764.11 131.60 771.90 124.51 776.10 C 120.94 760.28 122.07 743.86 118.91 727.98 C 117.99 723.61 116.79 719.20 114.49 715.34 C 109.54 732.07 110.08 749.74 111.00 766.97 C 112.22 787.90 113.78 809.28 108.78 829.87 C 104.60 845.66 92.40 857.54 86.54 872.56 C 82.77 881.92 83.12 892.99 88.27 901.77 C 93.98 912.34 106.04 918.22 110.09 929.86 C 116.57 947.84 117.68 967.15 119.08 986.05 C 120.29 1000.81 120.46 1015.88 124.80 1030.16 C 133.38 1054.95 156.15 1071.46 165.35 1095.94 C 171.32 1112.58 171.69 1130.46 173.91 1147.83 C 175.49 1159.46 177.24 1171.79 184.37 1181.49 C 189.27 1188.37 197.53 1192.06 205.76 1192.91 C 199.08 1179.40 192.36 1165.72 188.86 1150.98 C 185.97 1139.66 185.19 1127.93 185.52 1116.29 C 204.52 1140.41 227.62 1161.62 254.45 1176.74 C 270.59 1185.54 288.47 1192.73 307.10 1192.62 C 282.53 1171.05 252.12 1157.53 221.36 1147.36 C 209.26 1130.79 199.55 1112.54 191.04 1093.90 C 168.77 1044.42 155.86 991.39 144.82 938.46 C 173.19 939.59 201.58 938.58 229.96 938.32 C 270.37 938.12 311.09 938.00 351.05 944.89 C 368.85 948.12 386.64 952.85 402.56 961.64 C 415.25 968.63 426.59 978.99 432.56 992.40 C 439.51 1007.55 439.34 1024.95 436.13 1041.02 C 433.83 1053.02 429.66 1064.55 425.13 1075.86 C 432.80 1074.23 439.99 1070.17 444.94 1064.03 C 452.70 1054.52 455.53 1042.05 456.52 1030.08 C 457.66 1011.87 455.35 993.48 450.02 976.05 C 448.19 970.09 445.67 964.24 441.67 959.39 C 432.12 946.89 418.07 938.60 403.40 933.48 C 386.22 927.46 368.01 925.04 349.92 923.79 C 308.94 921.32 267.95 924.95 227.01 926.49 C 208.89 927.12 190.72 927.48 172.62 926.18 C 159.76 925.04 146.70 923.34 134.69 918.35 C 135.07 897.85 134.03 877.31 135.70 856.85 C 137.08 842.58 139.77 827.20 149.93 816.34 C 162.35 818.14 171.20 827.99 179.37 836.63 C 191.71 850.03 204.77 864.59 222.99 869.60 C 242.40 874.88 262.44 877.34 282.36 879.77 C 307.46 882.51 332.70 884.62 357.97 884.24 C 365.01 883.91 372.24 883.67 378.83 880.89 C 392.54 875.45 403.48 864.91 412.54 853.55 C 423.73 839.16 432.88 823.10 439.06 805.94 C 436.01 807.31 428.94 806.92 429.61 802.09 C 433.07 788.33 435.38 774.20 435.26 759.98 C 435.28 736.93 429.56 713.60 417.21 694.00 C 408.55 680.14 396.47 668.28 382.01 660.57 C 381.15 660.09 380.37 659.53 379.65 658.89 C 395.78 659.49 411.93 659.77 428.06 658.90 C 455.92 657.67 483.66 654.55 511.54 653.61 C 512.75 665.60 504.45 676.00 505.50 687.95 C 505.75 690.81 505.64 694.06 507.68 696.36 C 524.58 721.50 543.36 746.23 568.40 763.82 C 584.26 775.09 602.65 782.93 621.95 785.69 C 639.13 788.09 656.65 788.67 673.87 786.32 C 688.58 784.21 703.24 779.91 715.78 771.76 C 726.30 765.04 735.03 755.41 740.07 743.94 C 746.59 729.26 747.41 712.56 744.70 696.88 C 742.84 688.70 739.27 681.03 735.53 673.55 C 727.72 658.50 718.42 644.25 708.41 630.57 C 699.54 618.78 690.45 606.89 678.91 597.56 C 685.52 592.06 692.49 586.54 700.92 584.17 C 709.02 581.52 718.50 583.29 724.67 589.30 C 734.08 598.15 737.99 611.13 740.36 623.46 C 730.51 620.28 728.85 608.91 725.47 600.58 C 723.26 593.70 717.50 587.65 709.87 587.64 C 711.57 594.77 713.87 601.75 716.68 608.51 C 729.29 639.42 752.83 664.12 767.05 694.17 C 777.53 715.75 782.14 739.99 781.09 763.92 C 780.57 766.19 783.02 767.33 784.12 768.94 C 798.74 786.13 805.86 808.25 810.19 830.05 C 815.26 856.37 816.57 883.25 817.33 909.99 C 818.97 958.45 816.96 1007.50 826.74 1055.28 C 826.46 1056.57 825.01 1057.16 824.24 1058.15 C 815.55 1066.77 809.65 1077.74 804.85 1088.89 C 795.98 1109.87 790.83 1132.13 784.92 1154.06 C 782.78 1160.98 781.79 1168.52 777.42 1174.52 C 774.08 1180.11 769.42 1185.31 768.27 1191.90 C 767.53 1196.20 772.44 1197.77 775.80 1198.02 C 789.39 1189.63 796.13 1174.23 800.71 1159.58 C 807.19 1139.05 810.53 1117.36 820.46 1098.05 C 823.37 1091.28 833.23 1093.12 836.52 1086.63 C 839.40 1079.03 841.48 1071.14 842.77 1063.13 C 846.45 1040.90 842.80 1018.40 838.73 996.51 C 829.98 950.47 834.31 903.44 835.75 856.97 C 836.67 830.30 836.76 803.36 831.88 777.02 C 827.88 755.54 817.34 735.96 805.20 718.05 C 790.45 695.72 772.53 675.22 761.69 650.52 C 755.11 635.70 752.42 619.01 755.32 602.96 C 745.89 591.83 733.31 582.11 729.88 567.17 C 735.93 562.11 740.94 555.93 745.49 549.51 C 755.82 534.48 763.59 517.63 767.90 499.90 C 771.08 486.19 772.25 471.56 768.03 457.94 C 764.46 446.11 756.06 435.67 745.02 430.07 C 736.01 429.45 726.93 431.07 718.54 434.34 C 702.85 440.37 690.32 451.92 677.45 462.33 C 669.06 468.87 659.63 476.07 648.44 475.73 C 640.87 453.03 635.31 429.70 631.35 406.11 C 618.45 328.79 619.35 250.13 617.25 172.03 C 616.07 127.34 614.46 82.51 607.77 38.24 C 587.19 27.65 564.73 21.14 542.00 17.08 C 516.26 12.53 490.05 11.17 463.95 11.53 C 429.78 12.41 395.71 15.84 361.86 20.51 M 538.03 974.02 C 529.49 976.50 521.17 981.30 516.65 989.22 C 526.21 989.44 535.97 988.37 544.95 984.92 C 552.35 982.08 558.69 976.56 562.03 969.31 C 553.96 970.45 545.83 971.57 538.03 974.02 Z" />
<path fill="#000000" opacity="1.00" d=" M 361.86 20.51 C 395.71 15.84 429.78 12.41 463.95 11.53 C 490.05 11.17 516.26 12.53 542.00 17.08 C 564.73 21.14 587.19 27.65 607.77 38.24 C 614.46 82.51 616.07 127.34 617.25 172.03 C 619.35 250.13 618.45 328.79 631.35 406.11 C 635.31 429.70 640.87 453.03 648.44 475.73 C 659.63 476.07 669.06 468.87 677.45 462.33 C 690.32 451.92 702.85 440.37 718.54 434.34 C 726.93 431.07 736.01 429.45 745.02 430.07 C 756.06 435.67 764.46 446.11 768.03 457.94 C 772.25 471.56 771.08 486.19 767.90 499.90 C 763.59 517.63 755.82 534.48 745.49 549.51 C 740.94 555.93 735.93 562.11 729.88 567.17 C 733.31 582.11 745.89 591.83 755.32 602.96 C 752.42 619.01 755.11 635.70 761.69 650.52 C 772.53 675.22 790.45 695.72 805.20 718.05 C 817.34 735.96 827.88 755.54 831.88 777.02 C 836.76 803.36 836.67 830.30 835.75 856.97 C 834.31 903.44 829.98 950.47 838.73 996.51 C 842.80 1018.40 846.45 1040.90 842.77 1063.13 C 841.48 1071.14 839.40 1079.03 836.52 1086.63 C 833.23 1093.12 823.37 1091.28 820.46 1098.05 C 810.53 1117.36 807.19 1139.05 800.71 1159.58 C 796.13 1174.23 789.39 1189.63 775.80 1198.02 C 772.44 1197.77 767.53 1196.20 768.27 1191.90 C 769.42 1185.31 774.08 1180.11 777.42 1174.52 C 781.79 1168.52 782.78 1160.98 784.92 1154.06 C 790.83 1132.13 795.98 1109.87 804.85 1088.89 C 809.65 1077.74 815.55 1066.77 824.24 1058.15 C 825.01 1057.16 826.46 1056.57 826.74 1055.28 C 816.96 1007.50 818.97 958.45 817.33 909.99 C 816.57 883.25 815.26 856.37 810.19 830.05 C 805.86 808.25 798.74 786.13 784.12 768.94 C 783.02 767.33 780.57 766.19 781.09 763.92 C 782.14 739.99 777.53 715.75 767.05 694.17 C 752.83 664.12 729.29 639.42 716.68 608.51 C 713.87 601.75 711.57 594.77 709.87 587.64 C 717.50 587.65 723.26 593.70 725.47 600.58 C 728.85 608.91 730.51 620.28 740.36 623.46 C 737.99 611.13 734.08 598.15 724.67 589.30 C 718.50 583.29 709.02 581.52 700.92 584.17 C 692.49 586.54 685.52 592.06 678.91 597.56 C 690.45 606.89 699.54 618.78 708.41 630.57 C 718.42 644.25 727.72 658.50 735.53 673.55 C 739.27 681.03 742.84 688.70 744.70 696.88 C 747.41 712.56 746.59 729.26 740.07 743.94 C 735.03 755.41 726.30 765.04 715.78 771.76 C 703.24 779.91 688.58 784.21 673.87 786.32 C 656.65 788.67 639.13 788.09 621.95 785.69 C 602.65 782.93 584.26 775.09 568.40 763.82 C 543.36 746.23 524.58 721.50 507.68 696.36 C 505.64 694.06 505.75 690.81 505.50 687.95 C 504.45 676.00 512.75 665.60 511.54 653.61 C 483.66 654.55 455.92 657.67 428.06 658.90 C 411.93 659.77 395.78 659.49 379.65 658.89 C 380.37 659.53 381.15 660.09 382.01 660.57 C 396.47 668.28 408.55 680.14 417.21 694.00 C 429.56 713.60 435.28 736.93 435.26 759.98 C 435.38 774.20 433.07 788.33 429.61 802.09 C 428.94 806.92 436.01 807.31 439.06 805.94 C 432.88 823.10 423.73 839.16 412.54 853.55 C 403.48 864.91 392.54 875.45 378.83 880.89 C 372.24 883.67 365.01 883.91 357.97 884.24 C 332.70 884.62 307.46 882.51 282.36 879.77 C 262.44 877.34 242.40 874.88 222.99 869.60 C 204.77 864.59 191.71 850.03 179.37 836.63 C 171.20 827.99 162.35 818.14 149.93 816.34 C 139.77 827.20 137.08 842.58 135.70 856.85 C 134.03 877.31 135.07 897.85 134.69 918.35 C 146.70 923.34 159.76 925.04 172.62 926.18 C 190.72 927.48 208.89 927.12 227.01 926.49 C 267.95 924.95 308.94 921.32 349.92 923.79 C 368.01 925.04 386.22 927.46 403.40 933.48 C 418.07 938.60 432.12 946.89 441.67 959.39 C 445.67 964.24 448.19 970.09 450.02 976.05 C 455.35 993.48 457.66 1011.87 456.52 1030.08 C 455.53 1042.05 452.70 1054.52 444.94 1064.03 C 439.99 1070.17 432.80 1074.23 425.13 1075.86 C 429.66 1064.55 433.83 1053.02 436.13 1041.02 C 439.34 1024.95 439.51 1007.55 432.56 992.40 C 426.59 978.99 415.25 968.63 402.56 961.64 C 386.64 952.85 368.85 948.12 351.05 944.89 C 311.09 938.00 270.37 938.12 229.96 938.32 C 201.58 938.58 173.19 939.59 144.82 938.46 C 155.86 991.39 168.77 1044.42 191.04 1093.90 C 199.55 1112.54 209.26 1130.79 221.36 1147.36 C 252.12 1157.53 282.53 1171.05 307.10 1192.62 C 288.47 1192.73 270.59 1185.54 254.45 1176.74 C 227.62 1161.62 204.52 1140.41 185.52 1116.29 C 185.19 1127.93 185.97 1139.66 188.86 1150.98 C 192.36 1165.72 199.08 1179.40 205.76 1192.91 C 197.53 1192.06 189.27 1188.37 184.37 1181.49 C 177.24 1171.79 175.49 1159.46 173.91 1147.83 C 171.69 1130.46 171.32 1112.58 165.35 1095.94 C 156.15 1071.46 133.38 1054.95 124.80 1030.16 C 120.46 1015.88 120.29 1000.81 119.08 986.05 C 117.68 967.15 116.57 947.84 110.09 929.86 C 106.04 918.22 93.98 912.34 88.27 901.77 C 83.12 892.99 82.77 881.92 86.54 872.56 C 92.40 857.54 104.60 845.66 108.78 829.87 C 113.78 809.28 112.22 787.90 111.00 766.97 C 110.08 749.74 109.54 732.07 114.49 715.34 C 116.79 719.20 117.99 723.61 118.91 727.98 C 122.07 743.86 120.94 760.28 124.51 776.10 C 131.60 771.90 136.02 764.11 136.98 756.04 C 139.09 741.90 133.87 728.02 134.29 713.92 C 135.20 708.62 134.87 703.15 136.37 697.95 C 139.73 683.78 151.18 673.20 154.51 659.02 C 156.30 652.35 156.07 645.40 155.47 638.59 C 141.69 635.34 127.69 632.95 114.04 629.12 C 94.27 623.73 74.27 616.92 57.91 604.19 C 47.22 595.86 38.96 583.96 36.73 570.42 C 35.10 561.01 35.91 551.27 38.30 542.06 C 44.17 534.71 53.90 531.74 63.00 531.28 C 82.48 530.47 101.08 537.23 119.69 541.98 C 123.56 519.55 125.08 496.70 123.80 473.97 C 122.01 438.19 113.85 403.01 102.68 369.06 C 88.97 327.07 70.90 286.70 55.28 245.42 C 44.18 216.02 34.14 186.07 28.17 155.17 C 51.65 130.71 80.10 111.59 109.92 95.73 C 145.61 76.84 183.52 62.43 222.12 50.76 C 267.81 37.03 314.64 27.21 361.86 20.51 M 638.29 617.94 C 637.55 625.35 636.73 633.55 640.74 640.23 C 643.85 645.40 650.21 647.52 655.99 647.28 C 669.35 647.57 681.46 641.14 694.25 638.34 C 694.30 641.22 694.36 644.26 693.06 646.92 C 690.51 652.79 684.37 655.72 679.05 658.59 C 669.23 660.41 659.01 659.31 649.50 656.41 C 640.77 653.77 632.35 650.01 623.31 648.50 C 621.36 641.06 625.44 633.45 623.48 626.01 C 622.70 623.27 619.07 622.15 616.77 623.71 C 602.88 630.43 588.01 634.66 573.46 639.64 C 558.93 644.63 544.10 650.19 532.26 660.28 C 524.83 666.56 519.30 674.91 516.16 684.11 C 525.12 705.86 543.90 721.09 556.88 740.21 C 579.91 740.99 602.98 740.69 626.03 740.75 C 661.12 739.72 697.13 738.03 730.20 725.10 C 730.65 718.06 730.78 710.96 729.89 703.95 C 728.36 689.94 722.63 676.74 715.08 664.97 C 705.56 649.97 694.09 635.61 689.57 618.10 C 684.08 618.48 678.59 619.07 673.10 618.40 C 661.56 617.73 649.48 612.85 638.29 617.94 M 182.41 651.45 C 169.84 661.38 162.67 677.19 161.85 693.03 C 161.26 699.00 162.97 704.86 163.46 710.73 L 163.33 710.99 C 151.86 739.75 152.25 772.98 164.56 801.40 C 176.91 830.64 201.67 854.67 231.88 864.84 C 254.84 872.78 279.82 871.84 303.43 867.56 C 303.62 871.50 303.60 876.80 308.12 878.35 C 313.86 879.35 319.29 876.05 325.01 876.70 C 338.48 877.36 352.31 874.02 363.43 866.23 C 376.79 857.05 386.11 843.46 395.39 830.45 C 398.13 826.25 401.96 822.95 405.09 819.06 C 413.20 809.27 419.09 797.58 421.75 785.13 C 423.26 778.19 423.65 771.07 423.95 764.00 C 424.66 736.90 417.90 708.73 400.73 687.26 C 389.98 673.57 375.28 663.20 359.09 656.93 C 335.84 647.78 310.52 645.65 285.74 645.73 C 284.88 644.99 284.23 643.81 282.97 643.77 C 278.34 642.88 273.67 643.98 269.13 644.87 C 257.36 647.33 245.73 650.85 234.86 656.04 C 228.31 656.76 221.95 658.49 215.57 660.03 C 220.79 656.30 226.42 653.02 231.04 648.52 C 225.31 645.78 219.26 643.56 212.92 642.82 C 202.12 641.34 190.92 644.73 182.41 651.45 M 786.30 715.85 C 788.53 729.86 792.28 743.60 797.15 756.91 C 804.03 776.38 813.52 794.80 820.64 814.16 C 820.97 811.44 820.38 808.74 819.97 806.08 C 816.43 783.83 811.49 761.55 802.02 740.99 C 797.77 732.08 792.98 723.17 786.30 715.85 M 688.15 747.52 C 670.88 749.70 653.45 749.67 636.09 749.84 C 614.93 750.24 593.46 750.13 572.82 755.44 C 582.51 761.88 593.82 765.42 604.99 768.38 C 628.79 774.19 653.70 776.26 678.02 772.88 C 690.77 770.87 703.98 767.47 714.13 759.09 C 721.10 753.46 725.40 744.58 724.78 735.57 C 713.89 742.78 700.92 745.82 688.15 747.52 M 140.40 776.28 C 141.50 784.17 138.82 791.98 139.42 799.86 C 139.54 803.10 141.64 806.03 145.01 806.40 C 146.88 803.99 148.54 801.26 148.75 798.15 C 149.50 790.02 145.50 782.32 140.40 776.28 M 124.44 933.19 C 126.56 955.16 128.00 977.26 132.11 998.99 C 134.53 1011.10 137.31 1023.48 143.73 1034.19 C 147.24 1040.19 153.14 1045.56 160.47 1045.61 C 148.57 1025.08 147.10 1000.84 142.44 978.07 C 139.21 962.31 135.55 945.47 124.44 933.19 Z" />
<path fill="#ffffff" opacity="1.00" d=" M 638.29 617.94 C 649.48 612.85 661.56 617.73 673.10 618.40 C 678.59 619.07 684.08 618.48 689.57 618.10 C 694.09 635.61 705.56 649.97 715.08 664.97 C 722.63 676.74 728.36 689.94 729.89 703.95 C 730.78 710.96 730.65 718.06 730.20 725.10 C 697.13 738.03 661.12 739.72 626.03 740.75 C 602.98 740.69 579.91 740.99 556.88 740.21 C 543.90 721.09 525.12 705.86 516.16 684.11 C 519.30 674.91 524.83 666.56 532.26 660.28 C 544.10 650.19 558.93 644.63 573.46 639.64 C 588.01 634.66 602.88 630.43 616.77 623.71 C 619.07 622.15 622.70 623.27 623.48 626.01 C 625.44 633.45 621.36 641.06 623.31 648.50 C 632.35 650.01 640.77 653.77 649.50 656.41 C 659.01 659.31 669.23 660.41 679.05 658.59 C 684.37 655.72 690.51 652.79 693.06 646.92 C 694.36 644.26 694.30 641.22 694.25 638.34 C 681.46 641.14 669.35 647.57 655.99 647.28 C 650.21 647.52 643.85 645.40 640.74 640.23 C 636.73 633.55 637.55 625.35 638.29 617.94 Z" />
<path fill="#ffffff" opacity="1.00" d=" M 182.41 651.45 C 190.92 644.73 202.12 641.34 212.92 642.82 C 219.26 643.56 225.31 645.78 231.04 648.52 C 226.42 653.02 220.79 656.30 215.57 660.03 C 204.39 664.48 193.61 670.35 184.99 678.87 C 175.54 687.73 168.50 698.86 163.46 710.73 C 162.97 704.86 161.26 699.00 161.85 693.03 C 162.67 677.19 169.84 661.38 182.41 651.45 Z" />
<path fill="#ffffff" opacity="1.00" d=" M 269.13 644.87 C 273.67 643.98 278.34 642.88 282.97 643.77 C 284.23 643.81 284.88 644.99 285.74 645.73 C 281.17 645.78 276.57 645.64 272.03 646.25 C 269.40 646.70 267.41 648.89 266.74 651.41 C 263.12 653.61 258.86 654.26 254.93 655.73 C 248.24 655.56 241.54 655.32 234.86 656.04 C 245.73 650.85 257.36 647.33 269.13 644.87 Z" />
<path fill="#9e9f00" opacity="1.00" d=" M 266.74 651.41 C 267.41 648.89 269.40 646.70 272.03 646.25 C 276.57 645.64 281.17 645.78 285.74 645.73 C 310.52 645.65 335.84 647.78 359.09 656.93 C 375.28 663.20 389.98 673.57 400.73 687.26 C 417.90 708.73 424.66 736.90 423.95 764.00 C 423.65 771.07 423.26 778.19 421.75 785.13 C 419.09 797.58 413.20 809.27 405.09 819.06 C 401.96 822.95 398.13 826.25 395.39 830.45 C 386.11 843.46 376.79 857.05 363.43 866.23 C 352.31 874.02 338.48 877.36 325.01 876.70 C 319.29 876.05 313.86 879.35 308.12 878.35 C 303.60 876.80 303.62 871.50 303.43 867.56 C 279.82 871.84 254.84 872.78 231.88 864.84 C 201.67 854.67 176.91 830.64 164.56 801.40 C 152.25 772.98 151.86 739.75 163.33 710.99 L 163.46 710.73 C 168.50 698.86 175.54 687.73 184.99 678.87 C 193.61 670.35 204.39 664.48 215.57 660.03 C 221.95 658.49 228.31 656.76 234.86 656.04 C 241.54 655.32 248.24 655.56 254.93 655.73 C 255.75 655.80 257.39 655.94 258.21 656.00 C 259.89 656.90 261.43 658.03 263.08 658.98 C 264.43 662.60 264.81 666.67 262.87 670.17 C 262.60 670.39 262.08 670.82 261.81 671.04 C 257.97 672.22 253.97 671.30 250.06 671.20 C 242.78 670.92 235.43 671.44 228.34 673.18 C 214.58 676.09 201.90 683.63 192.60 694.16 C 191.01 695.93 189.51 697.79 188.14 699.75 C 181.24 709.08 176.67 720.02 174.12 731.31 C 168.77 754.67 171.48 779.81 181.55 801.54 C 185.97 811.17 191.97 820.08 199.32 827.72 C 211.60 840.32 227.89 849.23 245.34 851.86 C 257.92 854.92 271.07 855.23 283.95 854.74 C 296.72 854.17 309.46 852.50 321.89 849.48 C 324.46 848.88 327.03 848.26 329.58 847.54 C 339.35 844.82 348.93 841.33 358.04 836.87 C 363.03 834.58 366.86 830.54 370.90 826.95 C 378.70 819.73 386.66 812.67 395.26 806.41 C 397.81 804.44 399.09 801.37 400.63 798.63 C 407.94 784.69 408.87 768.50 408.44 753.07 C 407.33 731.24 400.31 708.95 385.31 692.63 C 376.12 682.42 363.73 675.79 351.01 671.03 C 329.67 663.08 306.64 661.12 284.03 661.24 C 279.66 661.18 275.28 661.75 270.92 661.31 C 269.77 660.52 268.67 659.66 267.55 658.87 C 266.98 656.42 266.80 653.91 266.74 651.41 Z" />
<path fill="#000000" opacity="1.00" d=" M 254.93 655.73 C 258.86 654.26 263.12 653.61 266.74 651.41 C 266.80 653.91 266.98 656.42 267.55 658.87 C 266.06 658.90 264.57 658.97 263.08 658.98 C 261.43 658.03 259.89 656.90 258.21 656.00 C 257.39 655.94 255.75 655.80 254.93 655.73 Z" />
<path fill="#ffffff" opacity="1.00" d=" M 263.08 658.98 C 264.57 658.97 266.06 658.90 267.55 658.87 C 268.67 659.66 269.77 660.52 270.92 661.31 C 268.53 664.52 265.87 667.52 262.87 670.17 C 264.81 666.67 264.43 662.60 263.08 658.98 Z" />
<path fill="#000000" opacity="1.00" d=" M 270.92 661.31 C 275.28 661.75 279.66 661.18 284.03 661.24 C 306.64 661.12 329.67 663.08 351.01 671.03 C 363.73 675.79 376.12 682.42 385.31 692.63 C 400.31 708.95 407.33 731.24 408.44 753.07 C 408.87 768.50 407.94 784.69 400.63 798.63 C 399.09 801.37 397.81 804.44 395.26 806.41 C 400.17 799.01 403.11 789.29 399.43 780.75 C 394.72 795.42 382.24 805.26 371.92 815.94 C 366.12 821.96 359.69 828.32 358.04 836.87 C 348.93 841.33 339.35 844.82 329.58 847.54 C 335.96 831.38 351.48 822.01 363.46 810.41 C 369.32 804.76 375.53 797.54 374.64 788.82 C 374.60 787.91 374.26 784.83 372.98 786.93 C 364.11 798.24 351.32 805.53 338.44 811.40 C 323.16 818.42 307.03 823.61 292.27 831.77 C 301.50 838.68 311.57 844.38 321.89 849.48 C 309.46 852.50 296.72 854.17 283.95 854.74 C 271.07 855.23 257.92 854.92 245.34 851.86 C 261.21 852.99 277.12 852.94 293.00 852.23 C 273.82 845.46 255.63 836.15 236.29 829.79 C 228.12 827.10 219.71 824.66 211.05 824.47 C 206.90 824.33 202.81 825.47 199.32 827.72 C 191.97 820.08 185.97 811.17 181.55 801.54 C 194.87 801.46 208.19 801.50 221.52 801.52 C 214.07 783.38 211.46 763.50 212.78 744.00 C 213.82 727.22 217.17 710.67 221.49 694.46 C 234.36 685.67 249.46 680.65 261.81 671.04 C 262.08 670.82 262.60 670.39 262.87 670.17 C 265.87 667.52 268.53 664.52 270.92 661.31 M 282.97 673.63 C 265.80 679.12 249.80 689.20 238.68 703.53 C 230.53 713.97 225.44 727.14 226.23 740.51 C 242.43 721.84 264.55 709.71 286.90 699.91 C 307.33 690.98 328.32 683.38 348.68 674.27 C 347.54 673.71 346.36 673.20 345.15 672.88 C 324.94 667.11 303.01 667.20 282.97 673.63 M 336.94 695.84 C 314.87 700.50 293.22 706.95 272.03 714.66 C 274.76 730.10 275.85 746.09 282.07 760.66 C 269.01 767.70 253.28 768.45 241.04 777.14 C 233.34 782.53 230.41 792.45 231.34 801.50 C 238.84 806.13 246.36 810.81 254.41 814.46 C 265.12 819.40 276.98 823.11 288.90 821.33 C 308.82 818.76 327.12 809.47 344.01 799.03 C 361.20 788.02 377.42 775.24 391.16 760.08 C 396.47 754.05 401.71 747.67 404.67 740.11 C 394.30 733.25 384.27 725.24 377.57 714.60 C 372.70 706.95 369.98 698.12 368.92 689.16 C 358.25 691.37 347.58 693.50 336.94 695.84 M 247.96 738.94 C 242.87 744.10 235.56 745.82 229.55 749.58 C 225.63 751.94 222.41 755.68 221.46 760.25 C 222.96 763.25 226.93 763.72 229.96 763.75 C 239.91 762.91 249.48 758.56 257.02 752.07 C 260.51 748.81 264.27 744.04 262.56 738.98 C 260.84 734.51 256.26 732.22 252.22 730.25 C 251.24 733.33 250.33 736.59 247.96 738.94 Z" />
<path fill="#ffffff" opacity="1.00" d=" M 282.97 673.63 C 303.01 667.20 324.94 667.11 345.15 672.88 C 346.36 673.20 347.54 673.71 348.68 674.27 C 328.32 683.38 307.33 690.98 286.90 699.91 C 264.55 709.71 242.43 721.84 226.23 740.51 C 225.44 727.14 230.53 713.97 238.68 703.53 C 249.80 689.20 265.80 679.12 282.97 673.63 Z" />
<path fill="#ffffff" opacity="1.00" d=" M 228.34 673.18 C 235.43 671.44 242.78 670.92 250.06 671.20 C 253.97 671.30 257.97 672.22 261.81 671.04 C 249.46 680.65 234.36 685.67 221.49 694.46 C 217.17 710.67 213.82 727.22 212.78 744.00 C 211.46 763.50 214.07 783.38 221.52 801.52 C 208.19 801.50 194.87 801.46 181.55 801.54 C 171.48 779.81 168.77 754.67 174.12 731.31 C 182.03 722.58 186.33 711.26 188.14 699.75 C 189.51 697.79 191.01 695.93 192.60 694.16 C 198.97 692.93 204.42 689.24 209.79 685.81 C 215.97 681.59 222.06 677.25 228.34 673.18 Z" />
<path fill="#000000" opacity="1.00" d=" M 192.60 694.16 C 201.90 683.63 214.58 676.09 228.34 673.18 C 222.06 677.25 215.97 681.59 209.79 685.81 C 204.42 689.24 198.97 692.93 192.60 694.16 Z" />
<path fill="#ffffff" opacity="1.00" d=" M 336.94 695.84 C 347.58 693.50 358.25 691.37 368.92 689.16 C 369.98 698.12 372.70 706.95 377.57 714.60 C 384.27 725.24 394.30 733.25 404.67 740.11 C 401.71 747.67 396.47 754.05 391.16 760.08 C 377.42 775.24 361.20 788.02 344.01 799.03 C 327.12 809.47 308.82 818.76 288.90 821.33 C 276.98 823.11 265.12 819.40 254.41 814.46 C 246.36 810.81 238.84 806.13 231.34 801.50 C 230.41 792.45 233.34 782.53 241.04 777.14 C 253.28 768.45 269.01 767.70 282.07 760.66 C 275.85 746.09 274.76 730.10 272.03 714.66 C 293.22 706.95 314.87 700.50 336.94 695.84 Z" />
<path fill="#000000" opacity="1.00" d=" M 174.12 731.31 C 176.67 720.02 181.24 709.08 188.14 699.75 C 186.33 711.26 182.03 722.58 174.12 731.31 Z" />
<path fill="#ffffff" opacity="1.00" d=" M 786.30 715.85 C 792.98 723.17 797.77 732.08 802.02 740.99 C 811.49 761.55 816.43 783.83 819.97 806.08 C 820.38 808.74 820.97 811.44 820.64 814.16 C 813.52 794.80 804.03 776.38 797.15 756.91 C 792.28 743.60 788.53 729.86 786.30 715.85 Z" />
<path fill="#ffffff" opacity="1.00" d=" M 247.96 738.94 C 250.33 736.59 251.24 733.33 252.22 730.25 C 256.26 732.22 260.84 734.51 262.56 738.98 C 264.27 744.04 260.51 748.81 257.02 752.07 C 249.48 758.56 239.91 762.91 229.96 763.75 C 226.93 763.72 222.96 763.25 221.46 760.25 C 222.41 755.68 225.63 751.94 229.55 749.58 C 235.56 745.82 242.87 744.10 247.96 738.94 Z" />
<path fill="#ffffff" opacity="1.00" d=" M 688.15 747.52 C 700.92 745.82 713.89 742.78 724.78 735.57 C 725.40 744.58 721.10 753.46 714.13 759.09 C 703.98 767.47 690.77 770.87 678.02 772.88 C 653.70 776.26 628.79 774.19 604.99 768.38 C 593.82 765.42 582.51 761.88 572.82 755.44 C 593.46 750.13 614.93 750.24 636.09 749.84 C 653.45 749.67 670.88 749.70 688.15 747.52 Z" />
<path fill="#ffffff" opacity="1.00" d=" M 140.40 776.28 C 145.50 782.32 149.50 790.02 148.75 798.15 C 148.54 801.26 146.88 803.99 145.01 806.40 C 141.64 806.03 139.54 803.10 139.42 799.86 C 138.82 791.98 141.50 784.17 140.40 776.28 Z" />
<path fill="#ffffff" opacity="1.00" d=" M 399.43 780.75 C 403.11 789.29 400.17 799.01 395.26 806.41 C 386.66 812.67 378.70 819.73 370.90 826.95 C 366.86 830.54 363.03 834.58 358.04 836.87 C 359.69 828.32 366.12 821.96 371.92 815.94 C 382.24 805.26 394.72 795.42 399.43 780.75 Z" />
<path fill="#ffffff" opacity="1.00" d=" M 372.98 786.93 C 374.26 784.83 374.60 787.91 374.64 788.82 C 375.53 797.54 369.32 804.76 363.46 810.41 C 351.48 822.01 335.96 831.38 329.58 847.54 C 327.03 848.26 324.46 848.88 321.89 849.48 C 311.57 844.38 301.50 838.68 292.27 831.77 C 307.03 823.61 323.16 818.42 338.44 811.40 C 351.32 805.53 364.11 798.24 372.98 786.93 Z" />
<path fill="#ffffff" opacity="1.00" d=" M 199.32 827.72 C 202.81 825.47 206.90 824.33 211.05 824.47 C 219.71 824.66 228.12 827.10 236.29 829.79 C 255.63 836.15 273.82 845.46 293.00 852.23 C 277.12 852.94 261.21 852.99 245.34 851.86 C 227.89 849.23 211.60 840.32 199.32 827.72 Z" />
<path fill="#ffffff" opacity="1.00" d=" M 124.44 933.19 C 135.55 945.47 139.21 962.31 142.44 978.07 C 147.10 1000.84 148.57 1025.08 160.47 1045.61 C 153.14 1045.56 147.24 1040.19 143.73 1034.19 C 137.31 1023.48 134.53 1011.10 132.11 998.99 C 128.00 977.26 126.56 955.16 124.44 933.19 Z" />
<path fill="#000000" opacity="1.00" d=" M 538.03 974.02 C 545.83 971.57 553.96 970.45 562.03 969.31 C 558.69 976.56 552.35 982.08 544.95 984.92 C 535.97 988.37 526.21 989.44 516.65 989.22 C 521.17 981.30 529.49 976.50 538.03 974.02 Z" />
</svg>
