<?xml version="1.0" encoding="UTF-8" ?>
<!DOCTYPE svg PUBLIC "-//W3C//DTD SVG 1.1//EN" "http://www.w3.org/Graphics/SVG/1.1/DTD/svg11.dtd">
<svg width="702pt" height="987pt" viewBox="0 0 702 987" version="1.1" xmlns="http://www.w3.org/2000/svg">
<path fill="#ffffff" opacity="1.00" d=" M 0.00 0.00 L 702.00 0.00 L 702.00 987.00 L 0.00 987.00 L 0.00 0.00 M 157.98 2.50 C 143.82 2.44 129.56 0.60 115.46 2.81 C 108.51 3.92 101.34 6.16 96.16 11.15 C 91.41 15.44 89.37 21.83 88.82 28.05 C 94.48 31.66 101.31 32.98 107.95 32.47 C 122.02 31.41 134.92 24.77 148.90 23.16 C 176.78 20.39 204.83 19.83 232.83 20.34 C 270.17 21.47 307.69 24.84 343.98 34.09 C 352.54 36.38 361.27 38.55 369.07 42.90 C 384.81 51.35 399.35 61.98 415.68 69.37 C 441.48 81.46 467.21 94.06 490.73 110.27 C 507.14 121.51 522.22 134.70 535.57 149.45 C 548.72 163.50 559.35 179.62 571.63 194.39 C 593.04 220.95 615.92 246.84 631.67 277.33 C 637.47 288.40 641.06 300.42 644.88 312.27 C 657.19 352.48 664.99 393.97 669.68 435.73 C 674.71 482.88 675.79 530.69 669.47 577.77 C 666.11 601.88 660.74 625.86 651.52 648.45 C 644.69 665.11 635.59 681.04 623.23 694.23 C 617.39 700.88 609.92 705.73 602.64 710.63 C 583.81 722.86 564.38 734.22 544.28 744.23 C 533.40 749.44 522.33 754.86 510.25 756.56 C 464.11 764.94 417.29 757.61 371.06 754.13 C 342.44 751.93 313.55 751.24 285.02 755.02 C 281.40 755.95 278.59 752.91 275.54 751.53 C 239.29 731.09 204.02 708.98 168.18 687.84 C 153.66 679.21 139.64 669.23 128.84 656.09 C 115.88 640.44 105.06 623.19 93.37 606.60 C 70.12 573.05 47.19 538.35 34.86 499.08 C 26.12 472.33 24.63 443.90 25.08 415.96 C 25.95 373.55 30.96 331.38 33.75 289.08 C 35.88 252.43 34.90 215.62 38.75 179.07 C 40.39 164.47 42.72 149.76 48.03 135.99 C 52.71 123.77 60.82 113.19 69.93 103.93 C 82.95 90.59 97.92 79.25 110.23 65.21 C 118.64 55.75 125.72 44.95 129.92 32.96 C 99.83 41.95 73.39 61.59 54.75 86.72 C 28.95 121.41 16.91 164.44 12.93 207.01 C 7.11 277.63 1.27 348.42 2.63 419.34 C 3.64 450.72 5.24 482.63 15.09 512.69 C 26.44 547.98 47.37 579.10 69.69 608.31 C 83.89 627.27 99.08 645.71 110.29 666.68 C 114.31 673.88 116.97 681.72 119.70 689.43 C 137.46 692.83 153.81 701.21 168.67 711.28 C 188.08 724.33 205.70 739.85 225.24 752.73 C 240.50 762.98 257.18 771.57 275.22 775.59 C 292.30 779.29 309.83 776.57 326.99 774.97 C 349.68 772.67 373.24 769.50 395.47 776.33 C 393.02 785.74 390.91 795.27 389.96 804.97 C 387.77 826.03 390.25 847.43 396.19 867.71 C 401.75 886.64 408.96 905.07 413.64 924.26 C 417.48 940.18 419.32 956.67 418.08 973.04 C 417.56 978.60 421.53 984.10 427.06 985.15 C 434.69 987.27 444.08 982.34 444.91 974.06 C 447.10 947.89 443.92 921.27 435.35 896.43 C 428.39 876.83 420.82 857.23 417.80 836.54 C 415.02 818.47 416.68 799.90 421.90 782.42 C 423.70 780.70 424.54 778.34 425.23 776.01 C 460.18 775.98 495.12 776.01 530.07 776.00 C 532.23 776.09 534.10 774.86 536.01 774.04 C 557.92 763.73 579.29 752.10 598.99 737.98 C 628.51 717.00 653.89 689.62 670.11 657.06 C 689.83 618.23 696.73 574.18 697.26 531.00 C 698.01 487.29 691.97 443.80 683.88 400.95 C 676.22 360.15 666.49 319.76 659.27 278.88 C 658.83 276.10 656.66 274.09 655.20 271.81 C 642.17 253.06 630.17 233.61 617.07 214.91 C 607.58 201.19 597.10 188.23 586.93 175.03 C 573.52 157.93 559.80 140.98 544.18 125.82 C 515.21 97.00 479.15 76.73 442.37 59.61 C 411.60 44.74 381.22 28.55 348.45 18.40 C 308.59 5.88 266.61 1.76 225.00 1.24 C 202.65 1.08 180.31 1.52 157.98 2.50 M 346.70 209.71 C 340.58 219.05 340.75 231.12 343.33 241.59 C 346.86 244.90 351.92 245.87 356.54 246.64 C 372.50 248.54 388.54 245.59 404.53 246.78 C 405.44 241.04 407.54 235.61 409.05 230.02 C 410.47 223.77 411.38 216.83 409.26 210.71 C 399.47 200.08 384.23 195.33 370.02 196.67 C 360.94 197.60 351.77 201.86 346.70 209.71 M 167.40 228.62 C 158.44 230.94 150.53 237.18 146.46 245.53 C 140.69 256.85 141.44 270.36 144.84 282.27 C 148.82 285.37 154.07 286.30 158.91 287.32 C 171.90 289.36 185.69 288.93 197.97 283.88 C 201.80 281.92 207.18 279.19 206.27 274.03 C 205.98 263.12 206.76 252.08 205.89 241.26 C 196.92 230.08 181.26 224.83 167.40 228.62 M 258.39 520.45 C 253.76 522.41 249.05 525.26 246.90 530.02 C 245.11 533.73 245.73 537.97 246.40 541.89 C 286.73 536.90 327.42 536.60 368.00 536.75 C 386.30 536.89 404.64 536.22 422.90 537.74 C 439.69 538.85 456.78 541.06 473.44 537.61 C 482.81 535.69 492.19 530.44 496.25 521.40 C 483.84 521.80 471.43 521.23 459.05 520.41 C 412.70 517.18 366.50 510.92 319.97 511.04 C 299.17 511.36 278.00 513.02 258.39 520.45 Z" />
<path fill="#000000" opacity="1.00" d=" M 157.98 2.50 C 180.31 1.52 202.65 1.08 225.00 1.24 C 266.61 1.76 308.59 5.88 348.45 18.40 C 381.22 28.55 411.60 44.74 442.37 59.61 C 479.15 76.73 515.21 97.00 544.18 125.82 C 559.80 140.98 573.52 157.93 586.93 175.03 C 597.10 188.23 607.58 201.19 617.07 214.91 C 630.17 233.61 642.17 253.06 655.20 271.81 C 656.66 274.09 658.83 276.10 659.27 278.88 C 666.49 319.76 676.22 360.15 683.88 400.95 C 691.97 443.80 698.01 487.29 697.26 531.00 C 696.73 574.18 689.83 618.23 670.11 657.06 C 653.89 689.62 628.51 717.00 598.99 737.98 C 579.29 752.10 557.92 763.73 536.01 774.04 C 534.10 774.86 532.23 776.09 530.07 776.00 C 495.12 776.01 460.18 775.98 425.23 776.01 C 424.54 778.34 423.70 780.70 421.90 782.42 C 420.93 778.29 419.22 773.90 415.32 771.72 C 408.79 767.60 399.34 769.44 395.47 776.33 C 373.24 769.50 349.68 772.67 326.99 774.97 C 309.83 776.57 292.30 779.29 275.22 775.59 C 257.18 771.57 240.50 762.98 225.24 752.73 C 205.70 739.85 188.08 724.33 168.67 711.28 C 153.81 701.21 137.46 692.83 119.70 689.43 C 116.97 681.72 114.31 673.88 110.29 666.68 C 99.08 645.71 83.89 627.27 69.69 608.31 C 47.37 579.10 26.44 547.98 15.09 512.69 C 5.24 482.63 3.64 450.72 2.63 419.34 C 1.27 348.42 7.11 277.63 12.93 207.01 C 16.91 164.44 28.95 121.41 54.75 86.72 C 73.39 61.59 99.83 41.95 129.92 32.96 C 125.72 44.95 118.64 55.75 110.23 65.21 C 97.92 79.25 82.95 90.59 69.93 103.93 C 60.82 113.19 52.71 123.77 48.03 135.99 C 42.72 149.76 40.39 164.47 38.75 179.07 C 34.90 215.62 35.88 252.43 33.75 289.08 C 30.96 331.38 25.95 373.55 25.08 415.96 C 24.63 443.90 26.12 472.33 34.86 499.08 C 47.19 538.35 70.12 573.05 93.37 606.60 C 105.06 623.19 115.88 640.44 128.84 656.09 C 139.64 669.23 153.66 679.21 168.18 687.84 C 204.02 708.98 239.29 731.09 275.54 751.53 C 278.59 752.91 281.40 755.95 285.02 755.02 C 313.55 751.24 342.44 751.93 371.06 754.13 C 417.29 757.61 464.11 764.94 510.25 756.56 C 522.33 754.86 533.40 749.44 544.28 744.23 C 564.38 734.22 583.81 722.86 602.64 710.63 C 609.92 705.73 617.39 700.88 623.23 694.23 C 635.59 681.04 644.69 665.11 651.52 648.45 C 660.74 625.86 666.11 601.88 669.47 577.77 C 675.79 530.69 674.71 482.88 669.68 435.73 C 664.99 393.97 657.19 352.48 644.88 312.27 C 641.06 300.42 637.47 288.40 631.67 277.33 C 615.92 246.84 593.04 220.95 571.63 194.39 C 559.35 179.62 548.72 163.50 535.57 149.45 C 522.22 134.70 507.14 121.51 490.73 110.27 C 467.21 94.06 441.48 81.46 415.68 69.37 C 399.35 61.98 384.81 51.35 369.07 42.90 C 361.27 38.55 352.54 36.38 343.98 34.09 C 307.69 24.84 270.17 21.47 232.83 20.34 C 204.83 19.83 176.78 20.39 148.90 23.16 C 134.92 24.77 122.02 31.41 107.95 32.47 C 101.31 32.98 94.48 31.66 88.82 28.05 C 89.37 21.83 91.41 15.44 96.16 11.15 C 101.34 6.16 108.51 3.92 115.46 2.81 C 129.56 0.60 143.82 2.44 157.98 2.50 Z" />
<path fill="#000000" opacity="1.00" d=" M 346.70 209.71 C 351.77 201.86 360.94 197.60 370.02 196.67 C 384.23 195.33 399.47 200.08 409.26 210.71 C 411.38 216.83 410.47 223.77 409.05 230.02 C 407.54 235.61 405.44 241.04 404.53 246.78 C 388.54 245.59 372.50 248.54 356.54 246.64 C 351.92 245.87 346.86 244.90 343.33 241.59 C 340.75 231.12 340.58 219.05 346.70 209.71 M 367.29 209.11 C 362.99 210.96 361.25 217.12 364.23 220.81 C 368.74 226.16 376.25 227.98 382.99 227.13 C 389.06 225.61 390.08 216.36 385.04 213.03 C 382.21 211.11 378.26 212.68 375.64 210.33 C 373.32 208.46 370.04 207.86 367.29 209.11 Z" />
<path fill="#ffffff" opacity="1.00" d=" M 367.29 209.11 C 370.04 207.86 373.32 208.46 375.64 210.33 C 378.26 212.68 382.21 211.11 385.04 213.03 C 390.08 216.36 389.06 225.61 382.99 227.13 C 376.25 227.98 368.74 226.16 364.23 220.81 C 361.25 217.12 362.99 210.96 367.29 209.11 Z" />
<path fill="#000000" opacity="1.00" d=" M 167.40 228.62 C 181.26 224.83 196.92 230.08 205.89 241.26 C 206.76 252.08 205.98 263.12 206.27 274.03 C 207.18 279.19 201.80 281.92 197.97 283.88 C 185.69 288.93 171.90 289.36 158.91 287.32 C 154.07 286.30 148.82 285.37 144.84 282.27 C 141.44 270.36 140.69 256.85 146.46 245.53 C 150.53 237.18 158.44 230.94 167.40 228.62 M 165.39 251.50 C 165.10 256.73 165.32 261.97 165.23 267.21 C 170.74 267.74 176.92 268.14 181.67 264.76 C 184.23 263.03 185.19 259.91 185.94 257.07 C 182.42 255.71 179.15 253.80 175.69 252.30 C 172.43 250.93 168.83 251.19 165.39 251.50 Z" />
<path fill="#ffffff" opacity="1.00" d=" M 165.39 251.50 C 168.83 251.19 172.43 250.93 175.69 252.30 C 179.15 253.80 182.42 255.71 185.94 257.07 C 185.19 259.91 184.23 263.03 181.67 264.76 C 176.92 268.14 170.74 267.74 165.23 267.21 C 165.32 261.97 165.10 256.73 165.39 251.50 Z" />
<path fill="#000000" opacity="1.00" d=" M 258.39 520.45 C 278.00 513.02 299.17 511.36 319.97 511.04 C 366.50 510.92 412.70 517.18 459.05 520.41 C 471.43 521.23 483.84 521.80 496.25 521.40 C 492.19 530.44 482.81 535.69 473.44 537.61 C 456.78 541.06 439.69 538.85 422.90 537.74 C 404.64 536.22 386.30 536.89 368.00 536.75 C 327.42 536.60 286.73 536.90 246.40 541.89 C 245.73 537.97 245.11 533.73 246.90 530.02 C 249.05 525.26 253.76 522.41 258.39 520.45 Z" />
<path fill="#333333" opacity="1.00" d=" M 395.47 776.33 C 399.34 769.44 408.79 767.60 415.32 771.72 C 419.22 773.90 420.93 778.29 421.90 782.42 C 416.68 799.90 415.02 818.47 417.80 836.54 C 420.82 857.23 428.39 876.83 435.35 896.43 C 443.92 921.27 447.10 947.89 444.91 974.06 C 444.08 982.34 434.69 987.27 427.06 985.15 C 421.53 984.10 417.56 978.60 418.08 973.04 C 419.32 956.67 417.48 940.18 413.64 924.26 C 408.96 905.07 401.75 886.64 396.19 867.71 C 390.25 847.43 387.77 826.03 389.96 804.97 C 390.91 795.27 393.02 785.74 395.47 776.33 Z" />
</svg>
