<?xml version="1.0" encoding="UTF-8" ?>
<!DOCTYPE svg PUBLIC "-//W3C//DTD SVG 1.1//EN" "http://www.w3.org/Graphics/SVG/1.1/DTD/svg11.dtd">
<svg width="473pt" height="997pt" viewBox="0 0 473 997" version="1.1" xmlns="http://www.w3.org/2000/svg">
<path fill="#ffffff" opacity="1.00" d=" M 0.00 0.00 L 473.00 0.00 L 473.00 997.00 L 155.02 997.00 C 136.66 972.46 123.84 944.23 113.64 915.46 C 97.37 868.64 88.42 819.46 85.02 770.07 C 82.12 725.07 83.82 679.62 92.05 635.23 C 96.91 609.28 104.02 583.68 114.35 559.36 C 131.44 565.81 145.75 577.70 158.82 590.18 C 166.45 597.88 174.27 605.39 181.68 613.31 C 194.43 625.77 207.56 638.54 224.03 645.97 C 240.99 653.89 261.69 654.15 278.40 645.43 C 290.79 638.85 299.64 627.33 306.19 615.19 C 323.11 583.43 329.00 546.80 348.13 516.08 C 350.44 512.90 352.09 508.34 356.45 507.62 C 384.94 499.30 411.77 483.85 431.23 461.19 C 450.68 438.92 462.34 410.81 468.34 382.09 C 469.38 376.45 471.04 370.84 470.77 365.05 C 470.60 354.89 471.01 344.72 470.56 334.58 C 465.96 287.18 460.45 239.73 449.64 193.29 C 442.58 163.55 433.30 134.13 419.20 106.92 C 405.78 80.83 387.32 56.88 363.40 39.61 C 347.38 27.88 329.08 19.55 310.11 13.86 C 275.71 3.34 238.36 2.21 203.54 11.43 C 166.77 20.93 133.14 41.58 107.38 69.41 C 80.76 98.02 62.49 134.41 55.96 172.97 C 51.92 195.74 52.75 219.00 54.59 241.94 C 56.92 269.52 61.03 296.96 66.99 323.99 C 72.66 351.17 83.73 376.77 94.87 402.07 C 102.34 419.26 110.20 436.38 115.38 454.44 C 119.54 469.27 122.01 485.84 115.45 500.36 C 109.38 514.11 96.21 522.98 82.85 528.77 C 78.21 530.99 73.10 532.08 68.48 534.34 C 51.79 562.73 35.01 591.33 22.91 622.06 C 12.39 648.52 5.73 676.52 3.39 704.91 C 1.87 720.58 2.74 736.35 2.47 752.07 C 1.88 758.88 5.85 764.89 6.54 771.55 C 12.16 806.19 4.49 841.36 8.88 876.08 C 10.35 886.58 13.14 897.53 20.39 905.61 C 24.88 910.76 31.23 913.91 37.81 915.45 C 36.70 909.96 33.04 903.54 36.31 898.24 C 41.39 894.70 48.09 894.23 53.07 890.34 C 49.92 888.03 46.05 886.22 44.15 882.62 C 43.16 880.91 44.46 878.81 46.08 878.08 C 49.79 876.12 54.03 875.60 58.09 874.78 C 46.33 863.15 37.90 848.56 31.77 833.30 C 23.05 811.37 18.69 787.94 16.85 764.49 C 13.89 723.07 18.18 681.04 30.17 641.26 C 36.67 620.09 45.44 599.38 58.25 581.22 C 67.62 568.02 79.46 556.05 94.28 549.11 C 79.56 593.14 75.89 639.86 74.17 685.97 C 72.57 729.96 73.69 773.98 73.50 818.00 C 73.65 863.11 73.05 908.38 67.07 953.16 C 65.01 967.90 62.46 982.61 58.60 997.00 L 0.00 997.00 L 0.00 0.00 Z" />
<path fill="#000000" opacity="1.00" d=" M 203.54 11.43 C 238.36 2.21 275.71 3.34 310.11 13.86 C 329.08 19.55 347.38 27.88 363.40 39.61 C 387.32 56.88 405.78 80.83 419.20 106.92 C 433.30 134.13 442.58 163.55 449.64 193.29 C 460.45 239.73 465.96 287.18 470.56 334.58 C 471.01 344.72 470.60 354.89 470.77 365.05 C 471.04 370.84 469.38 376.45 468.34 382.09 C 462.34 410.81 450.68 438.92 431.23 461.19 C 411.77 483.85 384.94 499.30 356.45 507.62 C 352.09 508.34 350.44 512.90 348.13 516.08 C 329.00 546.80 323.11 583.43 306.19 615.19 C 299.64 627.33 290.79 638.85 278.40 645.43 C 261.69 654.15 240.99 653.89 224.03 645.97 C 207.56 638.54 194.43 625.77 181.68 613.31 C 174.27 605.39 166.45 597.88 158.82 590.18 C 145.75 577.70 131.44 565.81 114.35 559.36 C 104.02 583.68 96.91 609.28 92.05 635.23 C 83.82 679.62 82.12 725.07 85.02 770.07 C 88.42 819.46 97.37 868.64 113.64 915.46 C 123.84 944.23 136.66 972.46 155.02 997.00 L 135.04 997.00 C 132.09 982.88 127.10 969.25 120.58 956.39 C 112.06 939.37 101.90 923.19 94.31 905.71 C 92.76 907.18 91.99 909.22 91.16 911.15 C 79.84 938.72 80.88 969.79 68.48 997.00 L 58.60 997.00 C 62.46 982.61 65.01 967.90 67.07 953.16 C 73.05 908.38 73.65 863.11 73.50 818.00 C 73.69 773.98 72.57 729.96 74.17 685.97 C 75.89 639.86 79.56 593.14 94.28 549.11 C 79.46 556.05 67.62 568.02 58.25 581.22 C 45.44 599.38 36.67 620.09 30.17 641.26 C 18.18 681.04 13.89 723.07 16.85 764.49 C 18.69 787.94 23.05 811.37 31.77 833.30 C 37.90 848.56 46.33 863.15 58.09 874.78 C 54.03 875.60 49.79 876.12 46.08 878.08 C 44.46 878.81 43.16 880.91 44.15 882.62 C 46.05 886.22 49.92 888.03 53.07 890.34 C 48.09 894.23 41.39 894.70 36.31 898.24 C 33.04 903.54 36.70 909.96 37.81 915.45 C 31.23 913.91 24.88 910.76 20.39 905.61 C 13.14 897.53 10.35 886.58 8.88 876.08 C 4.49 841.36 12.16 806.19 6.54 771.55 C 5.85 764.89 1.88 758.88 2.47 752.07 C 2.74 736.35 1.87 720.58 3.39 704.91 C 5.73 676.52 12.39 648.52 22.91 622.06 C 35.01 591.33 51.79 562.73 68.48 534.34 C 73.10 532.08 78.21 530.99 82.85 528.77 C 96.21 522.98 109.38 514.11 115.45 500.36 C 122.01 485.84 119.54 469.27 115.38 454.44 C 110.20 436.38 102.34 419.26 94.87 402.07 C 83.73 376.77 72.66 351.17 66.99 323.99 C 61.03 296.96 56.92 269.52 54.59 241.94 C 52.75 219.00 51.92 195.74 55.96 172.97 C 62.49 134.41 80.76 98.02 107.38 69.41 C 133.14 41.58 166.77 20.93 203.54 11.43 M 176.33 35.34 C 156.37 43.79 138.41 56.88 124.32 73.35 C 99.71 101.86 86.61 138.53 80.46 175.25 C 73.59 217.19 75.08 260.16 81.72 302.03 C 88.16 341.89 99.42 381.05 115.97 417.91 C 126.11 440.37 138.32 462.03 153.53 481.49 C 155.10 484.04 158.22 484.48 160.82 485.43 C 187.02 493.91 214.60 497.24 242.03 498.22 C 274.41 498.98 307.20 496.77 338.58 488.32 C 328.89 483.66 317.14 485.04 308.04 478.96 C 302.85 475.49 301.88 468.72 302.69 462.98 C 306.04 462.52 309.50 462.16 312.82 463.08 C 319.52 464.65 324.20 470.33 330.71 472.36 C 333.25 473.14 335.93 473.20 338.57 473.35 C 338.57 469.33 338.13 464.89 335.21 461.85 C 329.99 456.18 321.54 455.25 316.17 449.77 C 313.03 446.53 312.49 441.76 312.86 437.46 C 316.57 436.83 320.57 436.15 324.14 437.82 C 329.09 439.87 331.68 445.12 336.51 447.36 C 340.25 449.10 344.48 448.51 348.43 447.98 C 348.96 442.71 347.73 437.54 346.37 432.49 C 345.75 429.85 344.84 426.22 347.67 424.51 C 351.03 422.73 355.09 422.28 358.85 422.57 C 361.53 426.20 363.28 430.50 363.89 434.97 C 365.99 449.04 361.57 462.95 361.23 476.99 C 361.17 481.83 361.41 487.31 364.91 491.06 C 366.20 492.25 367.94 494.09 369.88 493.14 C 382.40 488.35 394.03 481.01 403.45 471.44 C 415.74 459.53 424.47 444.39 430.62 428.52 C 439.84 404.42 443.64 378.62 445.07 352.98 C 446.31 331.50 445.65 309.98 444.17 288.54 C 440.31 234.75 430.46 181.64 420.12 128.79 C 419.99 127.76 419.60 126.85 418.95 126.07 C 403.60 108.20 388.15 90.05 368.96 76.14 C 358.63 80.94 347.05 81.97 335.82 82.69 C 325.58 82.90 314.90 82.75 305.34 78.64 C 302.16 77.11 298.61 74.70 297.85 71.07 C 300.86 67.67 305.57 66.56 309.91 66.12 C 320.97 65.19 332.01 67.31 343.08 66.96 C 348.77 66.70 355.07 65.77 358.98 61.17 C 344.54 49.86 329.84 38.23 312.51 31.68 C 298.31 26.19 283.07 24.38 268.01 23.02 C 237.09 20.51 205.11 23.05 176.33 35.34 M 134.78 488.13 C 130.54 503.73 118.63 517.12 119.52 534.03 C 143.01 551.92 160.23 576.29 181.48 596.54 C 193.52 608.02 207.22 618.22 223.00 623.92 C 241.55 630.78 262.09 630.62 281.15 626.08 C 282.71 625.88 283.45 624.43 284.33 623.33 C 296.25 606.78 303.55 587.52 310.56 568.52 C 317.33 549.89 323.87 531.06 333.37 513.59 C 285.44 509.61 237.11 516.45 189.34 509.64 C 169.92 506.73 150.01 501.10 134.78 488.13 Z" />
<path fill="#ffffff" opacity="1.00" d=" M 176.33 35.34 C 205.11 23.05 237.09 20.51 268.01 23.02 C 283.07 24.38 298.31 26.19 312.51 31.68 C 329.84 38.23 344.54 49.86 358.98 61.17 C 355.07 65.77 348.77 66.70 343.08 66.96 C 332.01 67.31 320.97 65.19 309.91 66.12 C 305.57 66.56 300.86 67.67 297.85 71.07 C 298.61 74.70 302.16 77.11 305.34 78.64 C 314.90 82.75 325.58 82.90 335.82 82.69 C 347.05 81.97 358.63 80.94 368.96 76.14 C 388.15 90.05 403.60 108.20 418.95 126.07 C 419.60 126.85 419.99 127.76 420.12 128.79 C 430.46 181.64 440.31 234.75 444.17 288.54 C 445.65 309.98 446.31 331.50 445.07 352.98 C 443.64 378.62 439.84 404.42 430.62 428.52 C 424.47 444.39 415.74 459.53 403.45 471.44 C 394.03 481.01 382.40 488.35 369.88 493.14 C 367.94 494.09 366.20 492.25 364.91 491.06 C 361.41 487.31 361.17 481.83 361.23 476.99 C 361.57 462.95 365.99 449.04 363.89 434.97 C 363.28 430.50 361.53 426.20 358.85 422.57 C 355.09 422.28 351.03 422.73 347.67 424.51 C 344.84 426.22 345.75 429.85 346.37 432.49 C 347.73 437.54 348.96 442.71 348.43 447.98 C 344.48 448.51 340.25 449.10 336.51 447.36 C 331.68 445.12 329.09 439.87 324.14 437.82 C 320.57 436.15 316.57 436.83 312.86 437.46 C 312.49 441.76 313.03 446.53 316.17 449.77 C 321.54 455.25 329.99 456.18 335.21 461.85 C 338.13 464.89 338.57 469.33 338.57 473.35 C 335.93 473.20 333.25 473.14 330.71 472.36 C 324.20 470.33 319.52 464.65 312.82 463.08 C 309.50 462.16 306.04 462.52 302.69 462.98 C 301.88 468.72 302.85 475.49 308.04 478.96 C 317.14 485.04 328.89 483.66 338.58 488.32 C 307.20 496.77 274.41 498.98 242.03 498.22 C 214.60 497.24 187.02 493.91 160.82 485.43 C 158.22 484.48 155.10 484.04 153.53 481.49 C 138.32 462.03 126.11 440.37 115.97 417.91 C 99.42 381.05 88.16 341.89 81.72 302.03 C 75.08 260.16 73.59 217.19 80.46 175.25 C 86.61 138.53 99.71 101.86 124.32 73.35 C 138.41 56.88 156.37 43.79 176.33 35.34 M 161.45 88.44 C 149.66 97.95 141.01 111.91 139.79 127.20 C 143.78 123.03 147.85 118.90 152.55 115.53 C 169.03 103.43 188.59 96.84 206.68 87.67 C 217.71 82.07 228.60 75.50 236.79 66.07 C 229.96 65.40 223.06 65.74 216.25 66.54 C 196.58 69.03 176.98 75.84 161.45 88.44 M 346.42 99.58 C 331.14 101.39 319.47 113.19 311.53 125.55 C 309.79 128.50 307.36 131.33 307.26 134.92 C 305.38 152.73 306.54 171.39 314.03 187.88 C 319.39 199.74 328.79 210.22 341.12 214.95 C 354.34 220.18 369.28 218.81 382.51 214.36 C 384.81 213.88 385.44 211.36 386.53 209.62 C 396.73 190.63 400.54 168.07 395.99 146.90 C 392.91 132.63 386.08 118.77 374.90 109.13 C 367.19 102.36 356.75 98.30 346.42 99.58 M 221.45 108.76 C 201.27 110.78 181.96 121.79 170.88 138.92 C 159.55 156.12 156.81 177.80 160.05 197.84 C 160.85 200.43 162.76 202.50 164.30 204.68 C 181.66 226.88 211.01 238.78 238.92 235.64 C 252.92 233.98 266.66 228.35 277.17 218.87 C 277.93 212.93 277.18 206.91 277.71 200.94 C 277.82 179.07 278.09 156.92 273.42 135.43 C 271.85 129.12 270.23 122.67 267.07 116.95 C 253.07 110.02 237.00 107.06 221.45 108.76 M 369.76 311.59 C 331.66 322.40 292.09 326.47 253.58 335.48 C 238.11 339.25 222.55 343.63 208.61 351.51 C 204.03 354.28 199.39 357.16 195.78 361.16 C 196.98 372.00 201.65 382.02 205.97 391.90 C 221.12 380.15 234.21 365.74 250.70 355.76 C 262.89 348.32 276.77 344.09 290.81 341.90 C 317.60 337.87 344.83 337.85 371.57 333.50 C 384.92 331.15 398.79 327.40 409.13 318.16 C 418.72 309.76 423.35 297.15 424.91 284.77 C 409.08 298.15 389.49 305.96 369.76 311.59 Z" />
<path fill="#000000" opacity="1.00" d=" M 161.45 88.44 C 176.98 75.84 196.58 69.03 216.25 66.54 C 223.06 65.74 229.96 65.40 236.79 66.07 C 228.60 75.50 217.71 82.07 206.68 87.67 C 188.59 96.84 169.03 103.43 152.55 115.53 C 147.85 118.90 143.78 123.03 139.79 127.20 C 141.01 111.91 149.66 97.95 161.45 88.44 Z" />
<path fill="#000000" opacity="1.00" d=" M 346.42 99.58 C 356.75 98.30 367.19 102.36 374.90 109.13 C 386.08 118.77 392.91 132.63 395.99 146.90 C 400.54 168.07 396.73 190.63 386.53 209.62 C 385.44 211.36 384.81 213.88 382.51 214.36 C 369.28 218.81 354.34 220.18 341.12 214.95 C 328.79 210.22 319.39 199.74 314.03 187.88 C 306.54 171.39 305.38 152.73 307.26 134.92 C 307.36 131.33 309.79 128.50 311.53 125.55 C 319.47 113.19 331.14 101.39 346.42 99.58 M 328.55 157.61 C 327.69 161.59 328.74 165.78 329.36 169.76 C 331.35 180.27 337.41 189.27 343.27 197.97 C 350.47 196.80 357.61 199.70 364.76 198.64 C 367.44 198.44 368.42 195.91 369.08 193.69 C 364.71 194.15 359.49 195.36 355.82 192.15 C 351.68 188.39 350.83 182.50 348.23 177.76 C 355.30 171.53 366.43 171.53 373.76 177.33 C 373.74 164.05 373.73 150.77 373.77 137.49 C 357.29 140.15 341.62 147.27 328.55 157.61 Z" />
<path fill="#000000" opacity="1.00" d=" M 221.45 108.76 C 237.00 107.06 253.07 110.02 267.07 116.95 C 270.23 122.67 271.85 129.12 273.42 135.43 C 278.09 156.92 277.82 179.07 277.71 200.94 C 277.18 206.91 277.93 212.93 277.17 218.87 C 266.66 228.35 252.92 233.98 238.92 235.64 C 211.01 238.78 181.66 226.88 164.30 204.68 C 162.76 202.50 160.85 200.43 160.05 197.84 C 156.81 177.80 159.55 156.12 170.88 138.92 C 181.96 121.79 201.27 110.78 221.45 108.76 M 222.40 127.70 C 211.72 129.88 201.15 134.55 193.60 142.59 C 189.71 146.62 187.82 152.73 190.41 157.98 C 193.23 153.99 196.59 150.27 201.02 148.04 C 217.06 139.67 236.35 141.08 252.22 132.27 C 243.59 126.27 232.42 125.75 222.40 127.70 M 204.97 162.95 C 193.59 169.76 185.13 180.79 180.47 193.11 C 183.36 197.29 187.67 200.26 191.55 203.46 C 202.51 211.60 215.14 218.58 229.03 219.48 C 237.95 220.10 246.95 215.99 252.05 208.60 C 247.35 208.77 242.33 209.30 238.01 206.98 C 232.41 204.29 229.33 198.58 226.52 193.33 C 232.33 188.95 238.38 183.74 246.00 183.31 C 250.29 183.09 253.97 185.64 257.02 188.37 C 259.59 182.70 261.18 176.40 259.86 170.18 C 258.53 164.35 257.37 158.47 256.92 152.50 C 239.18 151.61 220.46 153.61 204.97 162.95 Z" />
<path fill="#ffffff" opacity="1.00" d=" M 222.40 127.70 C 232.42 125.75 243.59 126.27 252.22 132.27 C 236.35 141.08 217.06 139.67 201.02 148.04 C 196.59 150.27 193.23 153.99 190.41 157.98 C 187.82 152.73 189.71 146.62 193.60 142.59 C 201.15 134.55 211.72 129.88 222.40 127.70 Z" />
<path fill="#ffffff" opacity="1.00" d=" M 328.55 157.61 C 341.62 147.27 357.29 140.15 373.77 137.49 C 373.73 150.77 373.74 164.05 373.76 177.33 C 366.43 171.53 355.30 171.53 348.23 177.76 C 350.83 182.50 351.68 188.39 355.82 192.15 C 359.49 195.36 364.71 194.15 369.08 193.69 C 368.42 195.91 367.44 198.44 364.76 198.64 C 357.61 199.70 350.47 196.80 343.27 197.97 C 337.41 189.27 331.35 180.27 329.36 169.76 C 328.74 165.78 327.69 161.59 328.55 157.61 Z" />
<path fill="#ffffff" opacity="1.00" d=" M 204.97 162.95 C 220.46 153.61 239.18 151.61 256.92 152.50 C 257.37 158.47 258.53 164.35 259.86 170.18 C 261.18 176.40 259.59 182.70 257.02 188.37 C 253.97 185.64 250.29 183.09 246.00 183.31 C 238.38 183.74 232.33 188.95 226.52 193.33 C 229.33 198.58 232.41 204.29 238.01 206.98 C 242.33 209.30 247.35 208.77 252.05 208.60 C 246.95 215.99 237.95 220.10 229.03 219.48 C 215.14 218.58 202.51 211.60 191.55 203.46 C 187.67 200.26 183.36 197.29 180.47 193.11 C 185.13 180.79 193.59 169.76 204.97 162.95 Z" />
<path fill="#000000" opacity="1.00" d=" M 369.76 311.59 C 389.49 305.96 409.08 298.15 424.91 284.77 C 423.35 297.15 418.72 309.76 409.13 318.16 C 398.79 327.40 384.92 331.15 371.57 333.50 C 344.83 337.85 317.60 337.87 290.81 341.90 C 276.77 344.09 262.89 348.32 250.70 355.76 C 234.21 365.74 221.12 380.15 205.97 391.90 C 201.65 382.02 196.98 372.00 195.78 361.16 C 199.39 357.16 204.03 354.28 208.61 351.51 C 222.55 343.63 238.11 339.25 253.58 335.48 C 292.09 326.47 331.66 322.40 369.76 311.59 Z" />
<path fill="#ffffff" opacity="1.00" d=" M 134.78 488.13 C 150.01 501.10 169.92 506.73 189.34 509.64 C 237.11 516.45 285.44 509.61 333.37 513.59 C 323.87 531.06 317.33 549.89 310.56 568.52 C 303.55 587.52 296.25 606.78 284.33 623.33 C 283.45 624.43 282.71 625.88 281.15 626.08 C 262.09 630.62 241.55 630.78 223.00 623.92 C 207.22 618.22 193.52 608.02 181.48 596.54 C 160.23 576.29 143.01 551.92 119.52 534.03 C 118.63 517.12 130.54 503.73 134.78 488.13 Z" />
<path fill="#ffffff" opacity="1.00" d=" M 91.16 911.15 C 91.99 909.22 92.76 907.18 94.31 905.71 C 101.90 923.19 112.06 939.37 120.58 956.39 C 127.10 969.25 132.09 982.88 135.04 997.00 L 68.48 997.00 C 80.88 969.79 79.84 938.72 91.16 911.15 Z" />
</svg>
