<?xml version="1.0" encoding="UTF-8" ?>
<!DOCTYPE svg PUBLIC "-//W3C//DTD SVG 1.1//EN" "http://www.w3.org/Graphics/SVG/1.1/DTD/svg11.dtd">
<svg width="210pt" height="220pt" viewBox="0 0 210 220" version="1.1" xmlns="http://www.w3.org/2000/svg">
<g id="#ffffffff">
<path fill="#ffffff" opacity="1.00" d=" M 162.87 49.25 C 172.14 49.67 181.87 50.49 190.56 46.70 C 190.69 48.66 191.30 50.52 192.00 52.34 C 189.16 52.64 185.13 51.18 183.46 54.32 C 183.49 56.23 184.07 58.19 185.29 59.68 C 187.54 59.93 189.95 60.02 192.06 59.09 C 192.92 56.93 192.42 54.49 192.73 52.23 C 197.51 56.99 198.77 64.49 198.17 70.98 C 196.62 77.97 189.33 80.99 183.34 83.33 C 170.76 87.40 157.10 88.30 144.10 85.91 C 136.26 83.55 128.34 81.01 121.29 76.76 C 117.13 74.43 118.89 68.89 118.44 64.98 C 118.16 59.11 121.76 54.32 126.10 50.81 C 127.22 49.93 128.38 48.96 129.92 49.17 C 140.62 49.13 151.33 49.33 162.04 49.18 L 162.87 49.25 Z" />
<path fill="#ffffff" opacity="1.00" d=" M 45.05 51.34 C 51.55 49.44 58.36 50.57 65.03 50.25 C 68.13 50.35 72.63 49.39 74.07 53.07 C 75.45 56.99 77.68 60.67 78.44 64.77 C 76.68 69.63 75.08 74.77 71.95 78.95 C 66.48 84.68 58.32 84.78 51.01 85.60 C 37.45 85.72 22.47 86.54 10.92 78.10 C 7.77 76.23 7.70 72.00 9.94 69.39 C 9.32 69.70 8.10 70.32 7.48 70.62 C 7.23 66.01 6.43 60.60 9.90 56.90 C 11.28 55.24 12.65 53.55 14.06 51.90 C 24.11 50.77 34.78 52.00 45.05 51.34 M 14.36 67.37 C 10.06 71.01 18.42 75.26 20.35 70.96 C 21.01 67.33 17.02 66.64 14.36 67.37 Z" />
<path fill="#ffffff" opacity="1.00" d=" M 194.08 49.98 C 198.98 51.30 200.85 57.56 200.13 62.06 C 197.74 58.32 196.80 53.66 194.08 49.98 Z" />
<path fill="#ffffff" opacity="1.00" d=" M 187.32 54.23 C 189.37 52.27 190.41 55.29 190.49 57.04 C 188.36 59.61 182.91 55.70 187.32 54.23 Z" />
<path fill="#ffffff" opacity="1.00" d=" M 15.97 68.92 C 17.59 68.40 18.15 68.95 17.66 70.60 C 16.04 71.11 15.48 70.55 15.97 68.92 Z" />
<path fill="#ffffff" opacity="1.00" d=" M 44.13 96.93 C 47.97 96.60 51.75 95.78 55.41 94.54 C 52.12 99.68 45.08 99.98 39.70 98.53 C 41.15 97.93 42.62 97.39 44.13 96.93 Z" />
</g>
<g id="#3d3d3dff">
<path fill="#3d3d3d" opacity="1.00" d=" M 126.43 32.47 C 127.83 31.88 128.94 32.93 129.02 34.36 C 125.39 36.75 121.04 38.64 118.68 42.46 C 119.04 43.97 119.96 45.39 121.46 45.96 C 124.86 46.02 128.26 45.76 131.66 45.53 C 134.79 45.24 137.79 47.20 140.91 46.07 C 143.14 46.18 148.23 44.16 147.20 48.11 C 139.53 48.85 131.80 47.87 124.13 48.44 C 120.22 48.72 114.98 51.28 112.04 47.57 C 114.57 47.55 115.06 46.16 114.37 43.97 C 117.09 38.96 121.82 35.60 126.43 32.47 Z" />
</g>
<g id="#010101ff">
<path fill="#010101" opacity="1.00" d=" M 11.71 33.74 C 13.27 32.77 14.91 34.10 16.29 34.76 C 14.74 36.36 13.15 37.91 11.48 39.38 C 9.95 40.72 8.13 41.97 7.49 44.01 C 8.70 47.14 12.49 45.88 15.03 46.31 C 16.58 46.36 17.36 48.25 18.94 48.25 C 36.85 48.61 54.88 47.39 72.72 49.34 C 76.74 49.63 83.00 51.38 84.54 46.19 C 85.13 45.46 85.96 45.04 87.03 44.95 C 86.53 46.74 86.13 48.56 85.40 50.27 C 82.58 50.99 79.65 51.24 76.88 52.16 C 81.03 55.60 79.12 61.48 79.88 66.23 C 78.49 73.46 74.27 79.82 69.61 85.28 C 65.00 87.48 60.87 90.60 56.09 92.46 L 56.38 91.39 C 58.48 89.10 61.95 88.58 64.01 86.18 C 58.75 87.02 53.48 87.78 48.32 89.11 C 48.44 88.54 48.68 87.38 48.80 86.80 C 44.82 86.08 40.95 87.40 37.32 88.87 C 32.31 88.35 27.15 85.24 22.18 87.40 C 19.59 86.39 17.36 84.63 15.22 82.89 C 13.86 81.20 12.33 80.82 11.04 82.78 C 9.25 80.55 7.16 78.52 5.72 76.04 C 5.19 66.72 5.28 57.17 9.09 48.46 C 7.19 49.07 3.66 50.20 4.56 46.88 C 3.20 41.29 7.43 36.66 11.71 33.74 M 45.05 51.34 C 34.78 52.00 24.11 50.77 14.06 51.90 C 11.45 50.23 7.06 54.77 9.90 56.90 C 6.43 60.60 7.23 66.01 7.48 70.62 C 8.10 70.32 9.32 69.70 9.94 69.39 C 7.70 72.00 7.77 76.23 10.92 78.10 C 22.47 86.54 37.45 85.72 51.01 85.60 C 58.32 84.78 66.48 84.68 71.95 78.95 C 75.08 74.77 76.68 69.63 78.44 64.77 C 77.68 60.67 75.45 56.99 74.07 53.07 C 72.63 49.39 68.13 50.35 65.03 50.25 C 58.36 50.57 51.55 49.44 45.05 51.34 Z" />
<path fill="#010101" opacity="1.00" d=" M 158.14 46.12 C 163.19 44.49 168.92 46.95 173.05 49.09 C 169.67 49.38 166.26 49.35 162.87 49.25 L 162.04 49.18 C 160.56 48.41 157.79 48.41 158.14 46.12 Z" />
<path fill="#010101" opacity="1.00" d=" M 53.73 104.86 C 56.21 104.41 58.61 103.68 60.80 102.39 C 63.48 105.15 67.60 103.80 71.00 104.05 C 82.10 103.57 93.15 104.60 104.23 104.87 C 113.76 105.34 123.30 106.17 132.84 105.50 C 134.94 106.34 137.38 107.62 138.08 109.95 C 131.56 108.13 124.75 107.57 118.01 107.34 C 109.31 108.12 100.70 106.13 92.01 106.48 C 80.57 106.64 69.06 105.80 57.70 107.50 C 56.16 107.89 54.91 108.88 53.63 109.76 C 51.34 109.16 52.59 106.05 53.73 104.86 Z" />
<path fill="#010101" opacity="1.00" d=" M 72.35 170.25 C 77.28 169.40 82.68 169.45 87.64 170.28 C 88.13 173.13 83.14 171.23 81.30 172.20 C 80.80 178.71 81.94 185.34 80.72 191.80 C 80.23 191.60 79.24 191.22 78.75 191.03 C 78.32 185.13 78.81 179.21 78.59 173.31 C 78.40 170.07 71.34 173.75 72.35 170.25 Z" />
</g>
<g id="#555555ff">
<path fill="#555555" opacity="1.00" d=" M 107.08 46.03 C 107.43 41.56 105.70 34.96 111.94 34.17 C 111.25 35.78 110.41 37.32 109.79 38.97 C 108.89 41.38 110.16 43.89 110.52 46.28 C 110.61 46.92 110.80 48.21 110.90 48.85 C 105.95 49.08 99.57 44.06 103.39 39.01 C 103.08 41.97 104.50 44.57 107.08 46.03 Z" />
</g>
<g id="#b6b6b6ff">
<path fill="#b6b6b6" opacity="1.00" d=" M 129.02 34.36 C 131.80 36.92 137.08 35.09 137.83 39.97 C 135.66 40.28 133.46 40.22 131.28 40.21 C 131.86 41.11 133.46 41.64 133.08 42.91 C 129.23 43.62 125.29 43.63 121.42 44.22 C 121.43 44.66 121.45 45.53 121.46 45.96 C 119.96 45.39 119.04 43.97 118.68 42.46 C 121.04 38.64 125.39 36.75 129.02 34.36 Z" />
</g>
<g id="#8f8f8fff">
<path fill="#8f8f8f" opacity="1.00" d=" M 19.41 37.45 C 21.04 36.86 23.24 37.67 22.82 39.73 C 21.26 40.29 16.15 39.05 19.41 37.45 Z" />
<path fill="#8f8f8f" opacity="1.00" d=" M 92.69 60.67 C 94.51 58.97 93.44 62.91 93.58 63.88 C 93.68 66.78 90.89 64.99 89.33 64.50 C 89.96 62.89 91.37 61.72 92.69 60.67 Z" />
<path fill="#8f8f8f" opacity="1.00" d=" M 62.39 114.41 C 67.83 110.22 75.07 114.21 81.05 111.85 C 88.59 111.64 96.76 111.00 103.95 113.08 C 100.49 113.40 97.03 113.81 93.65 114.57 C 93.63 114.87 93.59 115.48 93.58 115.79 C 92.52 115.03 91.57 114.17 90.57 113.35 C 89.04 114.53 86.95 117.08 85.12 114.84 C 83.23 112.08 79.73 114.54 77.34 115.30 C 71.45 121.63 62.65 124.92 54.03 124.83 C 56.33 119.04 65.51 122.83 69.19 117.86 C 64.59 118.00 60.25 119.68 55.78 120.56 C 57.24 117.78 60.97 117.38 62.39 114.41 Z" />
</g>
<g id="#b7b7b7ff">
<path fill="#b7b7b7" opacity="1.00" d=" M 109.79 38.97 C 110.99 37.82 112.47 36.94 114.15 36.77 C 112.50 39.83 109.91 42.51 110.52 46.28 C 110.16 43.89 108.89 41.38 109.79 38.97 Z" />
</g>
<g id="#c0c0c0ff">
<path fill="#c0c0c0" opacity="1.00" d=" M 7.49 44.01 C 8.13 41.97 9.95 40.72 11.48 39.38 C 13.16 41.50 16.24 39.16 17.99 41.05 C 19.22 42.26 20.96 42.78 22.13 44.04 C 17.27 44.61 12.35 44.49 7.49 44.01 Z" />
</g>
<g id="#020202ff">
<path fill="#020202" opacity="1.00" d=" M 191.35 45.24 C 195.01 44.16 199.95 42.96 203.97 44.25 C 201.28 44.57 198.65 45.29 196.22 46.49 C 196.52 49.24 200.14 50.18 201.17 52.67 C 202.56 59.72 204.09 67.32 200.76 74.11 C 202.19 73.38 203.58 72.55 205.08 71.94 C 201.71 78.34 193.73 80.25 187.84 83.66 C 176.30 90.00 162.81 87.93 150.18 88.51 C 144.36 89.40 139.11 85.13 133.25 86.73 C 128.94 83.81 123.77 82.37 118.90 80.79 C 120.06 84.19 122.68 86.88 125.65 88.81 C 133.65 93.02 136.85 104.05 146.86 104.79 C 144.05 105.94 140.59 104.53 138.65 102.35 C 131.78 94.90 121.70 91.59 114.70 84.29 C 113.69 83.48 113.34 82.23 113.03 81.03 C 115.02 82.43 116.71 84.21 118.72 85.59 C 117.66 83.05 118.60 80.31 118.16 77.81 C 114.10 72.39 116.30 65.46 115.71 59.23 C 112.38 60.85 107.97 59.33 105.47 62.42 C 102.79 63.81 105.47 58.64 106.95 58.16 C 111.78 60.70 117.69 58.08 119.14 52.85 C 116.98 52.96 114.84 53.29 112.71 53.65 C 113.78 52.75 114.89 51.90 116.08 51.15 C 118.91 51.20 121.74 50.98 124.42 49.99 C 124.84 50.19 125.68 50.61 126.10 50.81 C 121.76 54.32 118.16 59.11 118.44 64.98 C 118.89 68.89 117.13 74.43 121.29 76.76 C 128.34 81.01 136.26 83.55 144.10 85.91 C 157.10 88.30 170.76 87.40 183.34 83.33 C 189.33 80.99 196.62 77.97 198.17 70.98 C 198.77 64.49 197.51 56.99 192.73 52.23 C 192.42 54.49 192.92 56.93 192.06 59.09 C 189.95 60.02 187.54 59.93 185.29 59.68 C 184.07 58.19 183.49 56.23 183.46 54.32 C 185.13 51.18 189.16 52.64 192.00 52.34 C 191.30 50.52 190.69 48.66 190.56 46.70 C 190.76 46.34 191.15 45.61 191.35 45.24 M 194.08 49.98 C 196.80 53.66 197.74 58.32 200.13 62.06 C 200.85 57.56 198.98 51.30 194.08 49.98 M 187.32 54.23 C 182.91 55.70 188.36 59.61 190.49 57.04 C 190.41 55.29 189.37 52.27 187.32 54.23 Z" />
<path fill="#020202" opacity="1.00" d=" M 14.36 67.37 C 17.02 66.64 21.01 67.33 20.35 70.96 C 18.42 75.26 10.06 71.01 14.36 67.37 M 15.97 68.92 C 15.48 70.55 16.04 71.11 17.66 70.60 C 18.15 68.95 17.59 68.40 15.97 68.92 Z" />
<path fill="#020202" opacity="1.00" d=" M 93.65 114.57 C 97.03 113.81 100.49 113.40 103.95 113.08 C 106.23 113.65 108.35 114.69 109.94 116.46 C 111.26 116.99 112.63 117.37 113.99 117.78 C 110.81 117.56 107.62 117.65 104.43 117.56 C 105.72 117.33 107.00 117.08 108.29 116.83 C 106.76 114.71 103.36 115.75 101.04 115.48 C 98.55 115.54 96.07 115.72 93.58 115.79 C 93.59 115.48 93.63 114.87 93.65 114.57 Z" />
</g>
<g id="#838383ff">
<path fill="#838383" opacity="1.00" d=" M 87.03 44.95 C 89.32 45.89 88.30 47.97 87.52 49.57 C 90.36 51.70 92.61 56.70 88.62 58.85 C 88.28 57.18 88.03 55.46 87.24 53.92 C 84.34 55.28 84.77 60.52 80.87 59.57 C 80.44 61.76 81.14 64.27 79.88 66.23 C 79.12 61.48 81.03 55.60 76.88 52.16 C 79.65 51.24 82.58 50.99 85.40 50.27 C 86.13 48.56 86.53 46.74 87.03 44.95 Z" />
<path fill="#838383" opacity="1.00" d=" M 53.63 109.76 C 54.91 108.88 56.16 107.89 57.70 107.50 C 57.09 108.31 56.48 109.12 55.87 109.93 C 57.83 110.08 59.36 110.98 59.87 112.96 C 57.70 112.08 55.61 111.01 53.63 109.76 Z" />
</g>
<g id="#5a5a5aff">
<path fill="#5a5a5a" opacity="1.00" d=" M 140.91 46.07 C 142.15 44.59 144.33 45.31 146.01 45.10 C 161.12 45.48 176.25 44.87 191.35 45.24 C 191.15 45.61 190.76 46.34 190.56 46.70 C 181.87 50.49 172.14 49.67 162.87 49.25 C 166.26 49.35 169.67 49.38 173.05 49.09 C 168.92 46.95 163.19 44.49 158.14 46.12 C 157.79 48.41 160.56 48.41 162.04 49.18 C 151.33 49.33 140.62 49.13 129.92 49.17 C 128.38 48.96 127.22 49.93 126.10 50.81 C 125.68 50.61 124.84 50.19 124.42 49.99 C 124.34 49.60 124.20 48.83 124.13 48.44 C 131.80 47.87 139.53 48.85 147.20 48.11 C 148.23 44.16 143.14 46.18 140.91 46.07 Z" />
</g>
<g id="#909090ff">
<path fill="#909090" opacity="1.00" d=" M 78.84 49.00 C 80.53 47.65 82.15 45.92 84.54 46.19 C 83.00 51.38 76.74 49.63 72.72 49.34 C 74.75 49.29 76.85 49.54 78.84 49.00 Z" />
</g>
<g id="#505050ff">
<path fill="#505050" opacity="1.00" d=" M 97.94 47.18 C 100.74 48.71 103.22 50.76 106.08 52.18 C 106.14 51.45 106.27 49.98 106.34 49.24 C 108.50 53.11 112.50 52.03 116.08 51.15 C 114.89 51.90 113.78 52.75 112.71 53.65 C 111.77 54.41 110.82 55.17 109.84 55.88 C 107.52 56.56 109.03 52.41 107.32 52.91 C 106.30 54.44 105.10 55.73 103.14 55.69 C 101.88 58.03 101.17 61.14 98.22 61.90 C 99.27 58.24 100.80 54.60 103.86 52.16 C 101.61 50.87 98.78 49.94 97.94 47.18 Z" />
</g>
<g id="#a1a1a1ff">
<path fill="#a1a1a1" opacity="1.00" d=" M 9.90 56.90 C 7.06 54.77 11.45 50.23 14.06 51.90 C 12.65 53.55 11.28 55.24 9.90 56.90 Z" />
</g>
<g id="#cfcfcfff">
<path fill="#cfcfcf" opacity="1.00" d=" M 112.71 53.65 C 114.84 53.29 116.98 52.96 119.14 52.85 C 117.69 58.08 111.78 60.70 106.95 58.16 C 107.88 57.36 108.85 56.60 109.84 55.88 C 110.82 55.17 111.77 54.41 112.71 53.65 Z" />
</g>
<g id="#8b8b8bff">
<path fill="#8b8b8b" opacity="1.00" d=" M 11.04 82.78 C 12.33 80.82 13.86 81.20 15.22 82.89 C 14.01 83.10 11.02 85.13 11.04 82.78 Z" />
</g>
<g id="#c2c2c2ff">
<path fill="#c2c2c2" opacity="1.00" d=" M 118.90 80.79 C 123.77 82.37 128.94 83.81 133.25 86.73 C 133.41 87.36 133.72 88.62 133.88 89.25 C 133.97 89.65 134.13 90.45 134.22 90.84 C 131.45 89.72 128.66 86.27 125.65 88.81 C 122.68 86.88 120.06 84.19 118.90 80.79 Z" />
<path fill="#c2c2c2" opacity="1.00" d=" M 36.84 94.11 C 39.46 90.89 44.05 91.85 47.71 91.27 C 49.06 91.89 50.39 92.55 51.70 93.26 C 46.88 94.64 41.77 95.21 36.84 94.11 Z" />
</g>
<g id="#b1b1b1ff">
<path fill="#b1b1b1" opacity="1.00" d=" M 56.09 92.46 C 60.87 90.60 65.00 87.48 69.61 85.28 C 70.74 85.48 71.84 85.78 72.91 86.18 C 71.95 87.27 70.90 88.28 69.91 89.36 C 72.06 89.00 74.17 88.44 76.28 87.92 C 76.11 89.97 74.15 90.85 72.32 90.51 C 68.78 89.89 65.91 93.32 62.38 92.18 C 60.53 93.10 59.89 95.30 58.66 96.84 C 57.72 97.76 56.20 97.54 55.04 98.04 C 53.00 98.53 54.03 101.49 52.13 102.14 C 48.32 103.89 44.45 105.55 40.71 107.46 C 42.09 111.87 36.19 108.39 33.77 109.96 C 36.45 105.25 43.27 105.77 46.14 101.14 C 37.64 100.46 29.15 101.72 20.83 103.06 C 20.73 99.75 25.62 100.19 27.99 99.71 C 31.73 100.23 34.32 97.33 37.49 95.99 C 39.70 96.33 41.90 96.68 44.13 96.93 C 42.62 97.39 41.15 97.93 39.70 98.53 C 45.08 99.98 52.12 99.68 55.41 94.54 C 55.65 93.85 55.88 93.16 56.09 92.46 Z" />
</g>
<g id="#aeaeaeff">
<path fill="#aeaeae" opacity="1.00" d=" M 37.32 88.87 C 40.95 87.40 44.82 86.08 48.80 86.80 C 48.68 87.38 48.44 88.54 48.32 89.11 C 44.74 89.99 40.97 88.96 37.33 89.66 L 37.32 88.87 Z" />
</g>
<g id="#070707ff">
<path fill="#070707" opacity="1.00" d=" M 133.88 89.25 C 137.30 87.78 140.74 89.40 144.06 90.26 C 142.48 90.79 138.93 90.50 139.82 93.14 C 143.26 93.49 147.01 91.42 150.18 93.45 C 145.31 93.84 140.43 93.62 135.56 93.85 C 136.15 92.33 138.75 93.22 138.88 91.48 C 137.33 91.23 135.76 91.11 134.22 90.84 C 134.13 90.45 133.97 89.65 133.88 89.25 Z" />
<path fill="#070707" opacity="1.00" d=" M 157.42 96.14 C 161.42 96.39 165.49 96.37 169.42 97.26 C 165.52 97.80 161.58 98.45 157.64 98.09 C 157.58 97.60 157.47 96.63 157.42 96.14 Z" />
<path fill="#070707" opacity="1.00" d=" M 91.20 170.16 C 92.72 168.80 93.70 170.64 93.48 172.02 C 93.65 177.50 93.25 182.99 93.53 188.46 C 96.27 189.33 102.38 186.82 101.69 191.49 C 98.26 191.65 94.81 191.67 91.38 191.52 C 90.35 184.52 90.45 177.16 91.20 170.16 Z" />
<path fill="#070707" opacity="1.00" d=" M 105.16 170.18 C 108.72 169.84 113.80 168.58 116.51 170.99 C 114.05 172.81 110.29 171.30 107.35 172.17 C 107.17 174.34 107.16 176.53 107.34 178.70 C 109.64 179.47 115.11 177.28 114.79 180.82 C 112.32 181.23 109.82 181.08 107.35 181.29 C 107.17 183.72 107.17 186.17 107.38 188.61 C 109.95 188.74 112.52 188.52 115.09 188.73 C 117.27 187.86 116.62 192.26 114.88 191.57 C 111.69 191.61 108.51 191.67 105.33 191.53 C 104.34 184.53 104.49 177.19 105.16 170.18 Z" />
<path fill="#070707" opacity="1.00" d=" M 150.20 170.15 C 153.62 169.41 157.29 169.54 160.75 170.13 C 161.20 174.59 151.61 169.03 151.90 174.02 C 152.03 175.76 151.07 179.57 154.00 178.79 C 155.81 179.17 160.72 177.63 159.22 181.04 C 156.89 181.22 154.54 181.08 152.21 181.27 C 151.72 183.68 151.72 186.20 152.28 188.60 C 155.07 189.34 161.75 186.66 160.71 191.53 C 157.20 191.33 153.01 192.32 149.90 191.00 C 148.87 184.32 149.54 177.33 149.54 170.55 L 150.20 170.15 Z" />
<path fill="#070707" opacity="1.00" d=" M 187.29 187.33 C 190.98 185.60 190.74 192.54 187.40 191.72 C 186.93 190.28 186.40 188.73 187.29 187.33 Z" />
</g>
<g id="#08080aff">
<path fill="#08080a" opacity="1.00" d=" M 62.38 92.18 C 65.91 93.32 68.78 89.89 72.32 90.51 C 68.01 93.10 63.25 94.82 58.66 96.84 C 59.89 95.30 60.53 93.10 62.38 92.18 Z" />
<path fill="#08080a" opacity="1.00" d=" M 21.34 170.49 C 24.78 169.05 31.04 169.43 31.91 173.81 C 29.03 173.07 26.16 171.12 23.10 172.14 C 15.74 173.76 15.40 186.28 22.61 188.39 C 24.58 188.82 27.00 189.08 28.68 187.71 C 29.64 185.96 29.26 183.84 28.94 181.97 C 27.13 181.31 23.12 182.63 24.23 179.49 C 26.57 179.36 28.95 179.35 31.27 179.73 C 31.92 182.63 31.74 185.67 31.49 188.62 C 26.75 194.47 17.92 190.77 15.53 184.64 C 13.26 179.43 15.84 172.43 21.34 170.49 Z" />
</g>
<g id="#abababff">
<path fill="#ababab" opacity="1.00" d=" M 144.06 90.26 C 148.32 92.20 155.05 91.72 157.42 96.14 C 157.47 96.63 157.58 97.60 157.64 98.09 C 161.58 98.45 165.52 97.80 169.42 97.26 C 170.72 97.04 172.30 96.82 171.79 98.69 C 163.61 99.50 155.59 97.76 147.46 97.63 C 147.51 96.70 147.56 95.76 147.62 94.82 C 143.66 94.05 139.19 95.78 135.56 93.85 C 140.43 93.62 145.31 93.84 150.18 93.45 C 147.01 91.42 143.26 93.49 139.82 93.14 C 138.93 90.50 142.48 90.79 144.06 90.26 Z" />
</g>
<g id="#363636ff">
<path fill="#363636" opacity="1.00" d=" M 47.71 91.27 C 50.59 91.06 53.50 91.03 56.38 91.39 L 56.09 92.46 C 55.88 93.16 55.65 93.85 55.41 94.54 C 51.75 95.78 47.97 96.60 44.13 96.93 C 41.90 96.68 39.70 96.33 37.49 95.99 C 37.33 95.52 37.00 94.58 36.84 94.11 C 41.77 95.21 46.88 94.64 51.70 93.26 C 50.39 92.55 49.06 91.89 47.71 91.27 Z" />
</g>
<g id="#5b5b5bff">
<path fill="#5b5b5b" opacity="1.00" d=" M 60.80 102.39 C 62.45 100.25 64.37 98.21 66.84 97.02 C 66.30 99.31 64.92 101.26 63.81 103.30 C 77.30 103.64 90.89 102.96 104.23 104.87 C 93.15 104.60 82.10 103.57 71.00 104.05 C 67.60 103.80 63.48 105.15 60.80 102.39 Z" />
<path fill="#5b5b5b" opacity="1.00" d=" M 154.76 105.67 C 157.29 104.63 159.94 107.11 162.71 106.55 C 162.69 106.76 162.65 107.17 162.63 107.38 C 157.40 108.16 152.28 109.71 146.98 110.00 C 147.50 106.60 152.52 107.83 154.76 105.67 Z" />
</g>
<g id="#b2b2b2ff">
<path fill="#b2b2b2" opacity="1.00" d=" M 109.94 116.46 C 113.30 115.44 116.91 114.14 120.42 115.26 C 120.99 116.77 120.47 119.12 122.28 119.87 C 124.11 120.52 127.78 119.54 126.80 122.60 C 120.64 123.57 114.72 121.39 108.76 120.52 C 107.03 117.35 100.83 119.97 101.04 115.48 C 103.36 115.75 106.76 114.71 108.29 116.83 C 107.00 117.08 105.72 117.33 104.43 117.56 C 107.62 117.65 110.81 117.56 113.99 117.78 C 112.63 117.37 111.26 116.99 109.94 116.46 Z" />
</g>
<g id="#0b0910ff">
<path fill="#0b0910" opacity="1.00" d=" M 37.32 170.18 C 41.01 169.49 44.96 169.35 48.63 170.24 C 48.67 170.60 48.76 171.33 48.80 171.70 C 45.83 171.99 42.84 171.76 39.88 172.09 C 39.53 174.27 39.32 176.58 39.97 178.74 C 42.14 179.44 48.22 177.20 47.07 180.98 C 44.70 181.24 42.32 181.09 39.95 181.24 C 39.56 183.59 39.06 186.42 40.23 188.58 C 43.08 189.34 49.31 186.68 48.71 191.51 C 44.96 191.66 41.19 191.66 37.44 191.53 C 37.01 184.43 37.13 177.29 37.32 170.18 Z" />
</g>
<g id="#00000fff">
<path fill="#00000f" opacity="1.00" d=" M 53.42 170.25 C 54.55 169.58 55.64 169.58 56.69 170.22 C 60.73 174.63 61.75 181.28 66.18 185.28 C 66.74 180.27 66.15 175.22 66.43 170.19 C 67.00 170.17 68.15 170.13 68.72 170.11 C 68.74 177.22 69.23 184.41 68.37 191.47 C 67.90 191.50 66.97 191.56 66.50 191.59 C 62.36 186.29 60.58 179.19 55.85 174.49 C 55.31 180.20 55.96 185.95 55.53 191.66 C 55.02 191.66 53.99 191.65 53.47 191.65 C 53.22 184.52 53.27 177.37 53.42 170.25 Z" />
</g>
<g id="#040204ff">
<path fill="#040204" opacity="1.00" d=" M 121.30 170.29 C 125.62 167.92 126.87 174.04 128.09 176.88 C 129.72 179.66 129.77 184.34 132.70 185.80 C 135.00 180.97 136.65 175.85 139.06 171.08 C 139.82 169.29 142.18 169.48 143.45 170.56 C 143.72 177.52 143.74 184.53 143.43 191.49 C 142.95 191.51 141.99 191.54 141.51 191.55 C 140.65 185.69 141.77 179.73 140.88 173.87 C 136.82 178.98 135.79 185.94 132.61 191.64 C 132.32 191.63 131.74 191.61 131.45 191.60 C 128.97 185.98 127.10 180.08 124.54 174.50 C 124.25 174.39 123.66 174.18 123.37 174.07 C 123.02 179.68 123.86 185.36 123.04 190.92 C 122.74 192.58 120.35 191.64 120.86 190.06 C 120.86 183.53 120.00 176.61 121.30 170.29 Z" />
</g>
<g id="#050303ff">
<path fill="#050303" opacity="1.00" d=" M 166.27 170.17 C 167.34 169.18 169.30 169.89 169.92 171.07 C 172.72 175.88 175.02 180.99 178.10 185.64 C 179.63 180.62 177.78 175.17 178.99 170.06 C 179.51 170.04 180.57 169.99 181.10 169.97 C 181.63 175.97 181.28 182.02 181.31 188.04 C 181.13 189.44 181.13 191.91 179.14 191.74 C 174.99 186.49 172.53 180.15 168.98 174.50 L 168.17 174.85 C 167.82 180.51 168.68 186.23 167.65 191.83 C 164.33 191.62 165.86 187.18 165.50 185.01 C 166.09 180.19 164.41 174.41 166.27 170.17 Z" />
</g>
</svg>
