<?xml version="1.0" encoding="UTF-8" ?>
<!DOCTYPE svg PUBLIC "-//W3C//DTD SVG 1.1//EN" "http://www.w3.org/Graphics/SVG/1.1/DTD/svg11.dtd">
<svg width="920pt" height="920pt" viewBox="0 0 920 920" version="1.1" xmlns="http://www.w3.org/2000/svg">
<path fill="#aaaaaa" opacity="1.00" d=" M 0.00 0.00 L 0.11 0.00 L 0.01 0.01 L 0.00 0.11 L 0.00 0.00 Z" />
<path fill="#aaaaaa" opacity="1.00" d=" M 919.94 0.00 L 920.00 0.00 L 920.00 0.06 C 919.99 0.05 919.96 0.02 919.94 0.00 Z" />
<path fill="#000000" opacity="1.00" d=" M 436.94 199.54 C 457.26 198.09 477.64 197.88 498.00 197.67 C 520.33 197.61 542.67 197.46 564.99 198.03 C 570.26 198.44 575.92 197.76 580.76 200.34 C 594.35 207.77 608.28 214.55 622.49 220.72 C 634.10 226.80 643.86 235.77 653.43 244.60 C 657.92 249.19 663.17 252.90 668.35 256.66 C 685.73 269.29 703.62 281.21 720.75 294.18 C 728.43 292.91 736.23 293.02 743.99 293.32 C 759.14 294.27 774.96 297.28 787.39 306.56 C 791.91 309.70 794.99 314.36 799.17 317.87 C 804.65 322.77 809.80 328.29 813.01 334.97 C 815.04 338.97 815.15 343.53 815.78 347.88 C 817.66 361.92 820.52 375.83 821.70 389.96 C 821.76 393.39 823.56 396.50 823.68 399.91 C 823.26 402.66 821.68 405.08 821.30 407.85 C 819.64 418.58 815.48 429.02 808.68 437.53 C 799.93 448.56 787.77 456.29 775.14 462.16 C 775.02 475.52 772.47 488.70 768.61 501.45 C 762.53 521.63 754.51 541.16 746.32 560.56 C 740.13 572.92 729.88 582.54 720.21 592.18 C 706.43 606.41 692.64 620.63 678.06 634.06 C 674.78 636.13 676.80 640.67 674.14 643.13 C 671.92 645.60 669.02 647.33 666.15 648.93 C 655.42 654.63 643.81 658.31 632.36 662.21 C 623.43 665.90 614.56 669.76 605.52 673.20 C 604.07 686.24 598.09 698.17 595.35 710.92 C 594.08 716.53 594.58 722.30 594.50 728.01 C 594.57 743.71 594.34 759.42 594.67 775.12 C 605.43 773.65 616.29 772.65 626.91 770.31 C 632.55 769.18 636.67 764.74 638.51 759.45 C 640.27 754.11 646.46 753.20 651.18 752.07 C 666.09 749.29 681.34 749.15 696.46 748.94 C 701.72 745.00 708.61 746.64 714.28 748.67 C 720.46 749.26 726.69 748.39 732.90 748.69 C 740.95 748.88 749.81 750.17 755.65 756.29 C 764.59 765.40 769.89 777.31 775.06 788.80 C 781.24 801.71 782.07 816.24 784.36 830.16 C 784.94 837.33 787.70 844.76 785.11 851.83 C 782.06 860.73 776.56 868.53 770.81 875.88 C 762.27 886.56 751.08 895.83 737.60 899.27 C 728.94 901.64 719.85 900.98 710.99 900.50 C 694.33 899.41 677.15 896.19 663.10 886.64 C 645.75 888.14 628.32 887.44 610.93 887.32 C 612.93 894.94 615.21 902.49 617.37 910.08 C 618.72 914.24 616.25 919.12 611.84 920.00 L 608.01 920.00 C 603.53 918.36 600.91 914.10 598.87 910.06 C 594.24 900.60 591.72 890.27 589.92 879.94 C 588.10 870.57 586.39 861.18 584.54 851.82 C 582.90 843.22 580.61 834.71 579.96 825.94 C 578.13 804.68 577.93 783.33 577.91 762.00 C 576.80 734.88 576.06 707.24 582.62 680.69 C 550.91 690.54 520.86 705.19 488.76 713.91 C 483.84 715.10 478.59 716.64 473.56 715.18 C 470.01 714.09 468.57 710.28 468.33 706.90 C 468.73 703.83 471.85 702.30 474.46 701.38 C 484.73 697.91 495.41 695.62 505.36 691.21 C 522.85 683.64 540.48 676.36 558.61 670.44 C 576.38 665.11 593.68 658.35 611.08 651.95 C 625.40 646.71 639.68 641.35 654.00 636.09 C 656.14 635.42 657.66 633.70 659.22 632.19 C 671.47 619.78 684.58 608.26 696.65 595.67 C 708.46 583.37 719.89 570.56 729.26 556.26 C 739.29 541.35 745.09 524.12 749.98 506.96 C 753.67 494.20 755.70 481.04 759.19 468.23 C 737.22 475.16 714.06 478.16 691.05 477.29 C 686.95 477.00 682.82 476.61 678.87 475.45 C 674.12 474.30 671.92 469.55 668.69 466.38 C 660.85 457.21 650.55 450.25 644.13 439.87 C 637.99 430.17 633.50 419.45 630.40 408.41 C 628.22 401.14 628.74 393.48 628.59 385.99 C 628.63 376.28 628.35 366.54 629.28 356.87 C 630.07 348.90 634.38 341.54 640.43 336.39 C 644.58 332.69 649.67 330.34 654.25 327.25 C 661.43 322.48 668.47 317.52 675.49 312.54 C 682.43 307.37 690.35 303.74 698.29 300.42 C 682.51 290.53 666.90 280.22 652.62 268.23 C 645.98 262.89 641.00 255.86 634.47 250.42 C 620.90 238.76 605.26 229.78 589.30 221.85 C 581.03 218.00 572.33 213.88 562.97 214.31 C 538.31 214.57 513.66 214.84 489.00 215.06 C 484.95 215.00 481.01 216.17 476.97 216.11 C 462.98 216.34 448.96 217.43 435.00 216.04 C 413.51 218.12 391.48 218.66 370.84 225.73 C 344.95 233.86 319.59 244.03 292.86 249.20 C 283.98 251.13 274.84 252.04 266.22 255.06 C 261.97 256.43 258.92 259.85 255.17 262.09 C 249.53 265.52 243.76 268.73 237.92 271.78 C 236.60 272.47 235.33 273.26 234.31 274.35 C 218.99 291.09 203.92 308.66 194.52 329.53 C 191.09 336.83 189.36 344.73 187.27 352.48 C 184.31 363.68 181.51 374.93 178.54 386.14 C 177.56 389.68 177.45 393.37 176.93 397.00 C 174.39 414.16 168.98 430.77 166.92 448.02 C 163.62 472.53 164.51 497.31 164.45 521.97 C 164.40 531.93 169.30 541.09 169.42 551.01 C 169.56 553.69 168.26 556.10 166.92 558.33 C 167.15 566.11 168.78 573.88 172.09 580.95 C 175.54 588.65 181.03 595.16 186.26 601.69 C 198.69 616.86 211.27 631.94 224.78 646.17 C 228.45 649.83 231.89 653.80 236.16 656.77 C 248.93 664.19 263.20 668.62 275.98 676.01 C 277.93 677.47 281.30 678.93 280.63 681.89 C 280.38 685.48 276.88 687.47 275.56 690.61 C 270.94 699.87 266.25 709.11 261.13 718.12 C 261.28 720.47 262.33 723.28 260.22 725.10 C 247.68 738.63 232.90 749.83 219.59 762.57 C 216.46 765.70 213.03 768.69 210.72 772.52 C 208.38 777.57 207.63 783.18 206.87 788.65 C 205.18 803.30 205.76 818.60 199.98 832.46 C 205.84 838.79 211.27 845.51 217.15 851.81 C 227.44 861.85 239.16 871.17 253.09 875.46 C 262.12 878.41 271.72 877.18 281.03 876.84 C 295.73 876.27 310.27 873.09 325.02 873.63 C 329.23 873.72 332.56 876.66 336.53 877.65 C 355.01 883.31 373.39 889.33 392.10 894.16 C 400.79 896.74 409.95 895.27 418.78 894.37 C 431.25 892.62 443.77 888.81 453.95 881.18 C 458.35 877.80 462.71 873.02 462.43 867.09 C 461.87 859.65 461.36 852.19 459.69 844.91 C 459.10 831.65 459.90 818.34 459.28 805.06 C 458.64 796.18 457.42 786.55 451.44 779.51 C 446.91 774.13 439.85 771.50 432.93 771.44 C 419.27 771.22 405.59 771.60 392.01 773.03 C 384.71 773.88 377.38 775.05 370.44 777.54 C 367.04 778.84 363.51 780.47 361.31 783.49 C 358.87 787.24 359.71 792.08 358.02 796.05 C 354.22 799.41 348.73 799.37 343.94 799.60 C 333.09 799.65 322.14 799.18 311.52 796.77 C 305.85 795.27 299.54 793.01 296.52 787.58 C 294.13 783.42 295.75 778.55 295.44 774.06 C 295.30 769.49 294.69 764.42 297.30 760.38 C 298.94 757.84 302.14 757.07 304.99 757.30 C 307.44 757.40 310.56 757.71 311.86 760.15 C 312.78 764.47 310.25 768.70 310.90 773.01 C 312.27 777.87 317.61 779.79 322.03 780.89 C 328.92 782.33 336.04 782.97 343.07 782.55 C 347.71 782.05 348.51 776.65 350.28 773.25 C 352.73 766.52 359.41 762.74 365.85 760.58 C 378.14 756.51 391.17 755.49 404.03 754.90 C 417.73 754.67 431.81 754.28 444.95 758.84 C 457.36 762.75 468.05 772.20 472.47 784.56 C 479.64 804.19 476.57 825.40 477.54 845.81 C 479.25 854.46 479.60 863.35 478.78 872.12 C 477.29 883.99 468.69 893.78 458.74 899.78 C 443.21 909.12 424.75 911.80 406.92 912.46 C 389.86 913.30 373.22 908.49 357.14 903.35 C 346.07 899.57 334.96 895.63 324.75 889.85 C 305.79 893.94 286.27 894.03 266.96 894.27 C 253.03 894.72 239.45 889.73 227.82 882.33 C 214.00 873.51 202.16 861.82 192.19 848.86 C 187.86 856.68 183.63 864.57 179.42 872.46 C 174.36 882.76 170.49 893.58 165.94 904.10 C 163.39 909.66 160.75 915.31 156.74 920.00 L 148.06 920.00 C 146.02 917.17 143.47 913.82 144.93 910.14 C 148.09 899.61 152.80 889.62 157.28 879.61 C 165.94 860.82 174.83 842.13 182.93 823.10 C 184.31 819.71 185.87 816.35 186.69 812.78 C 189.15 796.94 189.71 780.54 195.51 765.43 C 197.29 760.11 201.61 756.36 205.52 752.60 C 217.33 741.73 229.74 731.54 242.33 721.60 C 242.62 718.34 243.64 715.22 245.12 712.32 C 249.28 703.85 253.84 695.56 258.85 687.56 C 249.74 684.59 241.29 679.93 233.33 674.65 C 227.00 670.42 220.77 665.95 215.45 660.48 C 208.87 653.77 202.22 647.12 195.68 640.37 C 182.79 627.36 171.17 613.04 161.32 597.60 C 152.26 583.60 149.37 566.46 150.56 550.03 C 151.10 545.32 149.32 540.81 148.87 536.18 C 147.31 525.83 147.96 515.36 147.83 504.94 C 148.09 483.02 146.33 461.04 148.63 439.18 C 150.21 428.32 154.53 418.14 157.85 407.75 C 158.73 401.61 157.40 395.30 158.61 389.18 C 159.19 386.65 160.89 384.57 161.57 382.09 C 165.79 363.30 171.34 344.84 177.42 326.58 C 182.03 312.68 191.39 301.17 198.51 288.56 C 203.03 280.38 210.15 274.00 217.86 268.89 C 222.86 265.50 225.53 259.91 229.36 255.43 C 231.55 252.73 235.11 252.22 238.13 250.93 C 246.98 246.15 255.20 239.68 265.17 237.33 C 281.08 233.24 297.38 230.73 313.12 225.96 C 335.48 217.21 358.18 208.96 381.81 204.38 C 399.95 200.94 418.44 198.55 436.94 199.54 M 717.59 312.34 C 709.25 314.97 700.97 318.05 693.51 322.67 C 686.87 327.01 680.32 331.47 673.64 335.75 C 668.08 339.62 661.60 341.99 656.29 346.25 C 651.54 349.98 646.88 354.78 645.98 361.01 C 644.99 367.63 645.19 374.35 645.17 381.02 C 645.30 387.47 644.82 393.97 645.75 400.38 C 649.03 416.29 657.90 430.42 668.27 442.69 C 674.17 449.03 680.74 454.69 687.14 460.51 C 715.67 460.45 744.77 456.15 770.68 443.71 C 785.25 436.64 799.27 425.41 803.97 409.27 C 795.29 409.37 786.56 409.62 777.96 408.21 C 762.08 406.13 745.89 398.82 737.09 384.88 C 729.14 373.24 728.34 358.54 729.31 344.93 C 729.67 340.38 732.41 336.54 734.76 332.79 C 736.65 330.12 738.18 326.96 741.09 325.23 C 748.17 320.88 755.94 317.88 763.40 314.28 C 751.54 311.24 739.15 311.70 727.07 310.04 C 724.05 311.38 720.69 311.32 717.59 312.34 M 727.27 765.14 C 731.16 774.56 733.84 784.74 733.01 795.01 C 732.33 806.76 729.88 819.03 722.53 828.55 C 716.58 836.34 706.71 840.63 696.98 840.28 C 686.98 840.23 675.99 838.67 668.31 831.69 C 661.81 825.72 659.82 816.49 660.07 807.99 C 660.29 803.92 659.34 799.37 661.69 795.76 C 664.39 791.57 670.48 791.43 674.63 793.28 C 677.96 794.84 677.41 798.91 677.21 801.93 C 676.88 807.19 675.53 813.26 679.16 817.75 C 683.44 822.84 690.73 823.50 696.94 823.33 C 703.26 823.32 708.66 818.87 711.41 813.43 C 715.25 806.91 714.94 799.13 716.26 791.92 C 717.91 781.56 711.31 772.21 704.05 765.57 C 690.01 765.77 675.92 765.52 661.96 767.13 C 657.61 767.75 653.09 768.14 649.13 770.16 C 645.82 771.73 647.79 776.08 647.28 778.91 C 644.99 782.39 640.68 783.46 636.94 784.59 C 623.20 788.42 609.39 792.43 595.16 793.94 C 595.77 808.28 596.67 822.63 598.77 836.84 C 600.66 848.77 603.81 860.45 606.82 872.14 C 621.66 870.55 636.61 871.12 651.51 871.20 C 651.03 867.46 650.13 862.96 652.98 859.92 C 655.88 857.16 660.63 857.30 664.09 858.88 C 669.95 861.91 670.68 869.41 675.31 873.63 C 685.86 878.76 697.21 882.57 708.92 883.84 C 717.28 884.26 725.66 883.91 734.02 883.51 C 737.08 883.25 740.54 883.17 742.86 880.83 C 750.26 874.20 756.63 866.51 762.82 858.76 C 766.28 853.89 770.74 848.45 769.49 842.05 C 768.03 830.01 767.16 817.77 763.71 806.08 C 760.65 798.00 757.13 790.11 753.85 782.12 C 751.49 776.65 748.75 770.78 743.51 767.52 C 738.49 765.06 732.72 765.22 727.27 765.14 Z" />
<path fill="#ffffff" opacity="1.00" d=" M 489.00 215.06 C 513.66 214.84 538.31 214.57 562.97 214.31 C 572.33 213.88 581.03 218.00 589.30 221.85 C 605.26 229.78 620.90 238.76 634.47 250.42 C 641.00 255.86 645.98 262.89 652.62 268.23 C 666.90 280.22 682.51 290.53 698.29 300.42 C 690.35 303.74 682.43 307.37 675.49 312.54 C 668.47 317.52 661.43 322.48 654.25 327.25 C 649.67 330.34 644.58 332.69 640.43 336.39 C 634.38 341.54 630.07 348.90 629.28 356.87 C 628.35 366.54 628.63 376.28 628.59 385.99 C 628.74 393.48 628.22 401.14 630.40 408.41 C 633.50 419.45 637.99 430.17 644.13 439.87 C 650.55 450.25 660.85 457.21 668.69 466.38 C 671.92 469.55 674.12 474.30 678.87 475.45 C 682.82 476.61 686.95 477.00 691.05 477.29 C 714.06 478.16 737.22 475.16 759.19 468.23 C 755.70 481.04 753.67 494.20 749.98 506.96 C 745.09 524.12 739.29 541.35 729.26 556.26 C 719.89 570.56 708.46 583.37 696.65 595.67 C 684.58 608.26 671.47 619.78 659.22 632.19 C 657.66 633.70 656.14 635.42 654.00 636.09 C 639.68 641.35 625.40 646.71 611.08 651.95 C 593.68 658.35 576.38 665.11 558.61 670.44 C 540.48 676.36 522.85 683.64 505.36 691.21 C 495.41 695.62 484.73 697.91 474.46 701.38 C 471.85 702.30 468.73 703.83 468.33 706.90 C 468.57 710.28 470.01 714.09 473.56 715.18 C 478.59 716.64 483.84 715.10 488.76 713.91 C 520.86 705.19 550.91 690.54 582.62 680.69 C 576.06 707.24 576.80 734.88 577.91 762.00 C 577.93 783.33 578.13 804.68 579.96 825.94 C 580.61 834.71 582.90 843.22 584.54 851.82 C 586.39 861.18 588.10 870.57 589.92 879.94 C 591.72 890.27 594.24 900.60 598.87 910.06 C 600.91 914.10 603.53 918.36 608.01 920.00 L 156.74 920.00 C 160.75 915.31 163.39 909.66 165.94 904.10 C 170.49 893.58 174.36 882.76 179.42 872.46 C 183.63 864.57 187.86 856.68 192.19 848.86 C 202.16 861.82 214.00 873.51 227.82 882.33 C 239.45 889.73 253.03 894.72 266.96 894.27 C 286.27 894.03 305.79 893.94 324.75 889.85 C 334.96 895.63 346.07 899.57 357.14 903.35 C 373.22 908.49 389.86 913.30 406.92 912.46 C 424.75 911.80 443.21 909.12 458.74 899.78 C 468.69 893.78 477.29 883.99 478.78 872.12 C 479.60 863.35 479.25 854.46 477.54 845.81 C 476.57 825.40 479.64 804.19 472.47 784.56 C 468.05 772.20 457.36 762.75 444.95 758.84 C 431.81 754.28 417.73 754.67 404.03 754.90 C 391.17 755.49 378.14 756.51 365.85 760.58 C 359.41 762.74 352.73 766.52 350.28 773.25 C 348.51 776.65 347.71 782.05 343.07 782.55 C 336.04 782.97 328.92 782.33 322.03 780.89 C 317.61 779.79 312.27 777.87 310.90 773.01 C 310.25 768.70 312.78 764.47 311.86 760.15 C 310.56 757.71 307.44 757.40 304.99 757.30 C 302.14 757.07 298.94 757.84 297.30 760.38 C 294.69 764.42 295.30 769.49 295.44 774.06 C 295.75 778.55 294.13 783.42 296.52 787.58 C 299.54 793.01 305.85 795.27 311.52 796.77 C 322.14 799.18 333.09 799.65 343.94 799.60 C 348.73 799.37 354.22 799.41 358.02 796.05 C 359.71 792.08 358.87 787.24 361.31 783.49 C 363.51 780.47 367.04 778.84 370.44 777.54 C 377.38 775.05 384.71 773.88 392.01 773.03 C 405.59 771.60 419.27 771.22 432.93 771.44 C 439.85 771.50 446.91 774.13 451.44 779.51 C 457.42 786.55 458.64 796.18 459.28 805.06 C 459.90 818.34 459.10 831.65 459.69 844.91 C 461.36 852.19 461.87 859.65 462.43 867.09 C 462.71 873.02 458.35 877.80 453.95 881.18 C 443.77 888.81 431.25 892.62 418.78 894.37 C 409.95 895.27 400.79 896.74 392.10 894.16 C 373.39 889.33 355.01 883.31 336.53 877.65 C 332.56 876.66 329.23 873.72 325.02 873.63 C 310.27 873.09 295.73 876.27 281.03 876.84 C 271.72 877.18 262.12 878.41 253.09 875.46 C 239.16 871.17 227.44 861.85 217.15 851.81 C 211.27 845.51 205.84 838.79 199.98 832.46 C 205.76 818.60 205.18 803.30 206.87 788.65 C 207.63 783.18 208.38 777.57 210.72 772.52 C 213.03 768.69 216.46 765.70 219.59 762.57 C 232.90 749.83 247.68 738.63 260.22 725.10 C 262.33 723.28 261.28 720.47 261.13 718.12 C 266.25 709.11 270.94 699.87 275.56 690.61 C 276.88 687.47 280.38 685.48 280.63 681.89 C 281.30 678.93 277.93 677.47 275.98 676.01 C 263.20 668.62 248.93 664.19 236.16 656.77 C 231.89 653.80 228.45 649.83 224.78 646.17 C 211.27 631.94 198.69 616.86 186.26 601.69 C 181.03 595.16 175.54 588.65 172.09 580.95 C 168.78 573.88 167.15 566.11 166.92 558.33 C 168.26 556.10 169.56 553.69 169.42 551.01 C 169.30 541.09 164.40 531.93 164.45 521.97 C 164.51 497.31 163.62 472.53 166.92 448.02 C 168.98 430.77 174.39 414.16 176.93 397.00 C 177.45 393.37 177.56 389.68 178.54 386.14 C 181.51 374.93 184.31 363.68 187.27 352.48 C 189.36 344.73 191.09 336.83 194.52 329.53 C 203.92 308.66 218.99 291.09 234.31 274.35 C 235.33 273.26 236.60 272.47 237.92 271.78 C 243.76 268.73 249.53 265.52 255.17 262.09 C 258.92 259.85 261.97 256.43 266.22 255.06 C 274.84 252.04 283.98 251.13 292.86 249.20 C 319.59 244.03 344.95 233.86 370.84 225.73 C 391.48 218.66 413.51 218.12 435.00 216.04 C 448.96 217.43 462.98 216.34 476.97 216.11 C 481.01 216.17 484.95 215.00 489.00 215.06 M 395.06 427.13 C 377.16 428.14 359.16 430.20 341.98 435.54 C 323.71 440.74 306.26 450.35 293.92 465.03 C 282.64 478.18 277.52 495.92 278.26 513.08 C 278.91 520.08 281.25 526.77 283.49 533.40 C 289.10 549.14 298.36 563.79 310.96 574.86 C 325.39 587.51 344.95 593.53 363.99 592.79 C 372.02 592.08 379.80 589.74 387.47 587.38 C 411.36 579.73 434.36 568.68 454.19 553.20 C 466.83 543.17 478.20 530.50 483.17 514.86 C 486.77 504.27 485.63 492.95 485.68 481.98 C 484.34 474.27 482.44 466.66 481.00 458.97 C 480.04 452.45 474.87 447.72 469.77 444.10 C 453.23 432.71 433.12 426.54 413.03 426.82 C 407.04 426.82 401.05 426.82 395.06 427.13 M 629.45 506.58 C 615.15 512.10 600.85 517.83 587.43 525.30 C 580.24 528.75 572.54 530.94 564.88 533.08 C 541.69 539.53 517.78 543.25 494.90 550.86 C 490.25 552.44 485.31 554.31 482.25 558.39 C 478.83 562.78 479.37 568.68 479.08 573.92 C 478.73 581.57 480.53 589.25 484.13 596.01 C 490.57 608.06 500.71 618.94 514.05 623.11 C 526.68 627.38 540.08 624.20 552.89 622.58 C 571.62 619.37 591.55 617.49 607.81 606.73 C 614.91 602.32 619.84 595.44 624.97 589.03 C 631.09 581.12 637.11 573.14 643.20 565.21 C 651.14 555.53 653.96 542.22 652.02 529.99 C 651.12 523.74 649.60 517.32 645.85 512.12 C 642.27 507.15 635.36 504.23 629.45 506.58 Z" />
<path fill="#ffffff" opacity="1.00" d=" M 717.59 312.34 C 720.69 311.32 724.05 311.38 727.07 310.04 C 739.15 311.70 751.54 311.24 763.40 314.28 C 755.94 317.88 748.17 320.88 741.09 325.23 C 738.18 326.96 736.65 330.12 734.76 332.79 C 732.41 336.54 729.67 340.38 729.31 344.93 C 728.34 358.54 729.14 373.24 737.09 384.88 C 745.89 398.82 762.08 406.13 777.96 408.21 C 786.56 409.62 795.29 409.37 803.97 409.27 C 799.27 425.41 785.25 436.64 770.68 443.71 C 744.77 456.15 715.67 460.45 687.14 460.51 C 680.74 454.69 674.17 449.03 668.27 442.69 C 657.90 430.42 649.03 416.29 645.75 400.38 C 644.82 393.97 645.30 387.47 645.17 381.02 C 645.19 374.35 644.99 367.63 645.98 361.01 C 646.88 354.78 651.54 349.98 656.29 346.25 C 661.60 341.99 668.08 339.62 673.64 335.75 C 680.32 331.47 686.87 327.01 693.51 322.67 C 700.97 318.05 709.25 314.97 717.59 312.34 Z" />
<path fill="#000000" opacity="1.00" d=" M 395.06 427.13 C 401.05 426.82 407.04 426.82 413.03 426.82 C 433.12 426.54 453.23 432.71 469.77 444.10 C 474.87 447.72 480.04 452.45 481.00 458.97 C 482.44 466.66 484.34 474.27 485.68 481.98 C 485.63 492.95 486.77 504.27 483.17 514.86 C 478.20 530.50 466.83 543.17 454.19 553.20 C 434.36 568.68 411.36 579.73 387.47 587.38 C 379.80 589.74 372.02 592.08 363.99 592.79 C 344.95 593.53 325.39 587.51 310.96 574.86 C 298.36 563.79 289.10 549.14 283.49 533.40 C 281.25 526.77 278.91 520.08 278.26 513.08 C 277.52 495.92 282.64 478.18 293.92 465.03 C 306.26 450.35 323.71 440.74 341.98 435.54 C 359.16 430.20 377.16 428.14 395.06 427.13 M 443.47 450.12 C 444.31 456.07 444.71 462.22 442.91 468.04 C 439.60 479.85 430.09 488.79 419.76 494.78 C 408.34 501.38 395.37 506.30 381.98 505.66 C 371.48 505.35 361.11 500.74 354.13 492.84 C 345.13 482.69 339.93 469.46 338.84 456.00 C 327.27 460.35 315.87 466.19 307.39 475.39 C 299.43 483.95 295.27 495.54 294.84 507.13 C 293.76 521.79 301.52 535.08 309.15 546.97 C 317.88 560.73 331.32 572.64 347.87 575.24 C 363.17 577.56 378.67 573.55 392.83 567.92 C 408.53 562.00 422.29 552.24 436.57 543.65 C 445.69 538.05 454.85 532.00 461.62 523.57 C 467.37 516.45 469.15 506.99 469.13 498.06 C 468.02 487.66 466.43 477.31 465.81 466.87 C 465.63 463.61 463.56 460.80 461.17 458.74 C 456.08 454.46 449.65 452.29 443.47 450.12 Z" />
<path fill="#ffffff" opacity="1.00" d=" M 443.47 450.12 C 449.65 452.29 456.08 454.46 461.17 458.74 C 463.56 460.80 465.63 463.61 465.81 466.87 C 466.43 477.31 468.02 487.66 469.13 498.06 C 469.15 506.99 467.37 516.45 461.62 523.57 C 454.85 532.00 445.69 538.05 436.57 543.65 C 422.29 552.24 408.53 562.00 392.83 567.92 C 378.67 573.55 363.17 577.56 347.87 575.24 C 331.32 572.64 317.88 560.73 309.15 546.97 C 301.52 535.08 293.76 521.79 294.84 507.13 C 295.27 495.54 299.43 483.95 307.39 475.39 C 315.87 466.19 327.27 460.35 338.84 456.00 C 339.93 469.46 345.13 482.69 354.13 492.84 C 361.11 500.74 371.48 505.35 381.98 505.66 C 395.37 506.30 408.34 501.38 419.76 494.78 C 430.09 488.79 439.60 479.85 442.91 468.04 C 444.71 462.22 444.31 456.07 443.47 450.12 Z" />
<path fill="#000000" opacity="1.00" d=" M 629.45 506.58 C 635.36 504.23 642.27 507.15 645.85 512.12 C 649.60 517.32 651.12 523.74 652.02 529.99 C 653.96 542.22 651.14 555.53 643.20 565.21 C 637.11 573.14 631.09 581.12 624.97 589.03 C 619.84 595.44 614.91 602.32 607.81 606.73 C 591.55 617.49 571.62 619.37 552.89 622.58 C 540.08 624.20 526.68 627.38 514.05 623.11 C 500.71 618.94 490.57 608.06 484.13 596.01 C 480.53 589.25 478.73 581.57 479.08 573.92 C 479.37 568.68 478.83 562.78 482.25 558.39 C 485.31 554.31 490.25 552.44 494.90 550.86 C 517.78 543.25 541.69 539.53 564.88 533.08 C 572.54 530.94 580.24 528.75 587.43 525.30 C 600.85 517.83 615.15 512.10 629.45 506.58 M 609.43 533.20 C 615.95 542.74 618.31 554.33 621.09 565.36 C 627.31 557.86 634.58 550.22 635.80 540.08 C 636.95 534.29 633.67 529.04 631.00 524.20 C 623.54 526.52 616.57 530.10 609.43 533.20 M 576.88 547.28 C 585.11 563.10 584.48 581.52 585.78 598.84 C 598.31 595.48 607.08 585.18 613.97 574.80 C 611.89 568.12 611.68 560.86 608.42 554.58 C 605.67 548.84 603.19 542.98 600.73 537.12 C 592.83 540.64 584.94 544.16 576.88 547.28 M 539.32 556.15 C 543.55 566.65 545.23 577.92 546.82 589.06 C 547.85 594.89 545.82 600.64 544.32 606.20 C 555.23 604.21 566.16 602.28 577.08 600.35 C 577.19 592.47 577.19 584.50 575.15 576.83 C 573.15 567.76 568.94 559.44 564.52 551.35 C 556.09 552.81 547.69 554.37 539.32 556.15 M 503.60 566.56 C 499.78 568.80 495.47 572.16 495.65 577.07 C 495.99 584.65 500.49 591.23 505.21 596.85 C 512.12 605.17 523.36 609.37 534.05 608.15 C 536.15 601.32 540.57 594.19 537.93 586.92 C 535.11 577.30 531.64 567.89 528.22 558.47 C 519.77 560.27 511.22 562.36 503.60 566.56 Z" />
<path fill="#ffffff" opacity="1.00" d=" M 609.43 533.20 C 616.57 530.10 623.54 526.52 631.00 524.20 C 633.67 529.04 636.95 534.29 635.80 540.08 C 634.58 550.22 627.31 557.86 621.09 565.36 C 618.31 554.33 615.95 542.74 609.43 533.20 Z" />
<path fill="#ffffff" opacity="1.00" d=" M 576.88 547.28 C 584.94 544.16 592.83 540.64 600.73 537.12 C 603.19 542.98 605.67 548.84 608.42 554.58 C 611.68 560.86 611.89 568.12 613.97 574.80 C 607.08 585.18 598.31 595.48 585.78 598.84 C 584.48 581.52 585.11 563.10 576.88 547.28 Z" />
<path fill="#ffffff" opacity="1.00" d=" M 539.32 556.15 C 547.69 554.37 556.09 552.81 564.52 551.35 C 568.94 559.44 573.15 567.76 575.15 576.83 C 577.19 584.50 577.19 592.47 577.08 600.35 C 566.16 602.28 555.23 604.21 544.32 606.20 C 545.82 600.64 547.85 594.89 546.82 589.06 C 545.23 577.92 543.55 566.65 539.32 556.15 Z" />
<path fill="#ffffff" opacity="1.00" d=" M 503.60 566.56 C 511.22 562.36 519.77 560.27 528.22 558.47 C 531.64 567.89 535.11 577.30 537.93 586.92 C 540.57 594.19 536.15 601.32 534.05 608.15 C 523.36 609.37 512.12 605.17 505.21 596.85 C 500.49 591.23 495.99 584.65 495.65 577.07 C 495.47 572.16 499.78 568.80 503.60 566.56 Z" />
<path fill="#ffffff" opacity="1.00" d=" M 727.27 765.14 C 732.72 765.22 738.49 765.06 743.51 767.52 C 748.75 770.78 751.49 776.65 753.85 782.12 C 757.13 790.11 760.65 798.00 763.71 806.08 C 767.16 817.77 768.03 830.01 769.49 842.05 C 770.74 848.45 766.28 853.89 762.82 858.76 C 756.63 866.51 750.26 874.20 742.86 880.83 C 740.54 883.17 737.08 883.25 734.02 883.51 C 725.66 883.91 717.28 884.26 708.92 883.84 C 697.21 882.57 685.86 878.76 675.31 873.63 C 670.68 869.41 669.95 861.91 664.09 858.88 C 660.63 857.30 655.88 857.16 652.98 859.92 C 650.13 862.96 651.03 867.46 651.51 871.20 C 636.61 871.12 621.66 870.55 606.82 872.14 C 603.81 860.45 600.66 848.77 598.77 836.84 C 596.67 822.63 595.77 808.28 595.16 793.94 C 609.39 792.43 623.20 788.42 636.94 784.59 C 640.68 783.46 644.99 782.39 647.28 778.91 C 647.79 776.08 645.82 771.73 649.13 770.16 C 653.09 768.14 657.61 767.75 661.96 767.13 C 675.92 765.52 690.01 765.77 704.05 765.57 C 711.31 772.21 717.91 781.56 716.26 791.92 C 714.94 799.13 715.25 806.91 711.41 813.43 C 708.66 818.87 703.26 823.32 696.94 823.33 C 690.73 823.50 683.44 822.84 679.16 817.75 C 675.53 813.26 676.88 807.19 677.21 801.93 C 677.41 798.91 677.96 794.84 674.63 793.28 C 670.48 791.43 664.39 791.57 661.69 795.76 C 659.34 799.37 660.29 803.92 660.07 807.99 C 659.82 816.49 661.81 825.72 668.31 831.69 C 675.99 838.67 686.98 840.23 696.98 840.28 C 706.71 840.63 716.58 836.34 722.53 828.55 C 729.88 819.03 732.33 806.76 733.01 795.01 C 733.84 784.74 731.16 774.56 727.27 765.14 Z" />
<path fill="#aaaaaa" opacity="1.00" d=" M 0.00 919.89 L 0.01 919.99 L 0.11 920.00 L 0.00 920.00 L 0.00 919.89 Z" />
<path fill="#aaaaaa" opacity="1.00" d=" M 919.63 919.66 L 920.00 919.47 L 920.00 920.00 L 919.64 920.00 L 919.63 919.66 Z" />
</svg>
