<?xml version="1.0" encoding="UTF-8" ?>
<!DOCTYPE svg PUBLIC "-//W3C//DTD SVG 1.1//EN" "http://www.w3.org/Graphics/SVG/1.1/DTD/svg11.dtd">
<svg width="891pt" height="951pt" viewBox="0 0 891 951" version="1.1" xmlns="http://www.w3.org/2000/svg">
<path fill="#ffffff" opacity="1.00" d=" M 0.00 0.00 L 495.57 0.00 C 462.87 9.22 429.31 14.86 395.88 20.66 C 357.50 27.38 318.58 33.97 282.61 49.54 C 264.36 57.48 247.00 67.79 232.27 81.27 C 203.11 107.65 180.70 140.29 154.01 168.99 C 123.14 202.09 95.18 237.77 68.62 274.38 C 64.33 263.05 65.88 250.60 63.49 238.87 C 63.64 254.62 61.05 270.35 56.24 285.34 C 49.47 306.79 38.63 326.74 32.59 348.44 C 26.95 367.50 26.06 387.60 27.71 407.31 C 26.09 406.77 24.10 406.35 23.86 404.33 C 21.77 395.71 23.16 386.76 23.01 378.00 C 22.86 367.69 23.83 356.90 19.89 347.12 C 18.69 343.85 15.87 341.66 12.81 340.25 C 11.11 365.92 10.09 391.64 8.80 417.34 C 6.31 471.86 4.75 526.48 7.08 581.03 C 9.35 627.92 14.16 675.12 27.75 720.23 C 36.93 750.20 50.50 779.68 72.49 802.48 C 74.12 803.80 73.63 806.06 73.80 807.91 C 74.26 830.25 78.84 852.34 85.63 873.58 C 93.88 899.28 104.21 924.41 109.39 951.00 L 0.00 951.00 L 0.00 0.00 Z" />
<path fill="#000000" opacity="1.00" d=" M 495.57 0.00 L 548.38 0.00 C 583.71 7.99 617.27 23.75 645.57 46.40 C 675.00 69.69 698.96 99.01 720.45 129.57 C 738.73 155.50 755.48 182.46 773.33 208.69 C 774.82 210.94 776.77 213.13 776.86 215.98 C 779.27 237.71 785.42 258.92 794.07 278.96 C 808.63 312.74 829.79 343.08 846.16 375.93 C 854.47 392.42 862.11 409.41 866.48 427.42 C 876.36 466.79 875.59 507.72 875.00 548.00 C 874.37 576.65 873.61 605.33 874.85 633.97 C 876.17 661.12 879.59 688.36 887.74 714.37 C 888.67 717.15 888.52 720.11 888.53 723.00 C 888.43 738.04 888.58 753.07 888.45 768.11 C 886.68 768.14 884.94 768.19 883.20 768.24 C 875.42 778.25 872.38 790.87 870.32 803.14 C 866.69 824.85 865.32 847.30 856.80 867.85 C 849.97 883.87 837.86 896.67 827.18 910.13 C 817.57 922.04 809.42 935.66 807.03 951.00 L 781.33 951.00 C 785.67 934.45 792.75 918.79 800.50 903.60 C 811.44 881.65 823.52 860.17 832.06 837.11 C 838.79 819.35 843.09 800.67 844.48 781.73 C 846.28 757.55 845.54 733.27 844.68 709.07 C 843.38 675.74 841.65 642.38 842.95 609.02 C 843.97 569.41 847.24 529.75 844.37 490.14 C 841.75 452.88 829.21 417.24 814.99 383.00 C 791.42 326.79 761.08 273.83 733.42 219.61 C 714.46 181.39 696.17 142.51 671.34 107.64 C 653.13 81.94 630.83 58.48 603.32 42.70 C 584.81 31.96 564.13 25.08 542.95 22.16 C 522.06 19.53 500.38 18.84 479.97 24.80 C 460.66 30.22 443.44 41.60 423.59 45.34 C 406.57 48.84 389.32 43.26 372.22 45.39 C 364.01 46.75 356.14 49.57 348.36 52.42 C 325.68 61.08 303.78 71.70 282.66 83.65 C 267.27 92.48 252.14 102.00 238.82 113.79 C 215.47 134.48 194.94 158.09 175.17 182.16 C 148.24 215.43 123.11 250.19 100.50 286.54 C 88.34 306.56 76.44 326.91 67.77 348.73 C 59.18 372.07 55.07 396.76 51.52 421.29 C 45.84 464.52 43.30 508.28 45.74 551.84 C 46.84 566.09 47.55 580.59 51.89 594.31 C 57.37 612.09 65.19 629.08 69.98 647.09 C 75.00 664.97 75.88 683.63 77.28 702.05 C 78.93 725.78 79.89 749.82 86.13 772.91 C 90.32 788.20 97.15 803.18 108.37 814.62 C 128.01 835.03 152.81 849.36 173.99 868.01 C 188.95 881.69 207.42 890.88 222.15 904.84 C 228.63 910.97 234.35 918.31 236.82 927.01 C 238.63 933.26 238.27 939.93 236.95 946.23 C 204.80 931.67 177.45 908.84 150.32 886.70 C 137.20 876.09 124.58 864.74 110.41 855.54 C 116.57 869.97 121.64 884.92 124.38 900.40 C 127.42 917.05 128.39 934.33 124.97 951.00 L 109.39 951.00 C 104.21 924.41 93.88 899.28 85.63 873.58 C 78.84 852.34 74.26 830.25 73.80 807.91 C 73.63 806.06 74.12 803.80 72.49 802.48 C 50.50 779.68 36.93 750.20 27.75 720.23 C 14.16 675.12 9.35 627.92 7.08 581.03 C 4.75 526.48 6.31 471.86 8.80 417.34 C 10.09 391.64 11.11 365.92 12.81 340.25 C 15.87 341.66 18.69 343.85 19.89 347.12 C 23.83 356.90 22.86 367.69 23.01 378.00 C 23.16 386.76 21.77 395.71 23.86 404.33 C 24.10 406.35 26.09 406.77 27.71 407.31 C 26.06 387.60 26.95 367.50 32.59 348.44 C 38.63 326.74 49.47 306.79 56.24 285.34 C 61.05 270.35 63.64 254.62 63.49 238.87 C 65.88 250.60 64.33 263.05 68.62 274.38 C 95.18 237.77 123.14 202.09 154.01 168.99 C 180.70 140.29 203.11 107.65 232.27 81.27 C 247.00 67.79 264.36 57.48 282.61 49.54 C 318.58 33.97 357.50 27.38 395.88 20.66 C 429.31 14.86 462.87 9.22 495.57 0.00 M 756.19 218.76 C 756.26 222.00 756.25 225.24 756.24 228.48 C 760.07 229.15 762.78 232.01 765.92 234.03 C 765.88 229.47 766.49 224.30 763.71 220.37 C 761.90 218.04 758.74 218.58 756.19 218.76 M 822.35 351.17 C 823.03 358.63 825.05 367.42 832.38 371.07 C 832.95 365.92 833.08 360.30 830.27 355.73 C 828.59 352.96 825.46 351.55 822.35 351.17 M 852.60 417.51 C 845.34 424.54 849.07 437.18 857.19 441.90 C 856.86 435.54 858.44 429.30 858.46 422.97 C 858.69 419.86 855.95 416.13 852.60 417.51 Z" />
<path fill="#ffffff" opacity="1.00" d=" M 548.38 0.00 L 891.00 0.00 L 891.00 951.00 L 807.03 951.00 C 809.42 935.66 817.57 922.04 827.18 910.13 C 837.86 896.67 849.97 883.87 856.80 867.85 C 865.32 847.30 866.69 824.85 870.32 803.14 C 872.38 790.87 875.42 778.25 883.20 768.24 C 884.94 768.19 886.68 768.14 888.45 768.11 C 888.58 753.07 888.43 738.04 888.53 723.00 C 888.52 720.11 888.67 717.15 887.74 714.37 C 879.59 688.36 876.17 661.12 874.85 633.97 C 873.61 605.33 874.37 576.65 875.00 548.00 C 875.59 507.72 876.36 466.79 866.48 427.42 C 862.11 409.41 854.47 392.42 846.16 375.93 C 829.79 343.08 808.63 312.74 794.07 278.96 C 785.42 258.92 779.27 237.71 776.86 215.98 C 776.77 213.13 774.82 210.94 773.33 208.69 C 755.48 182.46 738.73 155.50 720.45 129.57 C 698.96 99.01 675.00 69.69 645.57 46.40 C 617.27 23.75 583.71 7.99 548.38 0.00 Z" />
<path fill="#ffffff" opacity="1.00" d=" M 479.97 24.80 C 500.38 18.84 522.06 19.53 542.95 22.16 C 564.13 25.08 584.81 31.96 603.32 42.70 C 630.83 58.48 653.13 81.94 671.34 107.64 C 696.17 142.51 714.46 181.39 733.42 219.61 C 761.08 273.83 791.42 326.79 814.99 383.00 C 829.21 417.24 841.75 452.88 844.37 490.14 C 847.24 529.75 843.97 569.41 842.95 609.02 C 841.65 642.38 843.38 675.74 844.68 709.07 C 845.54 733.27 846.28 757.55 844.48 781.73 C 843.09 800.67 838.79 819.35 832.06 837.11 C 823.52 860.17 811.44 881.65 800.50 903.60 C 792.75 918.79 785.67 934.45 781.33 951.00 L 124.97 951.00 C 128.39 934.33 127.42 917.05 124.38 900.40 C 121.64 884.92 116.57 869.97 110.41 855.54 C 124.58 864.74 137.20 876.09 150.32 886.70 C 177.45 908.84 204.80 931.67 236.95 946.23 C 238.27 939.93 238.63 933.26 236.82 927.01 C 234.35 918.31 228.63 910.97 222.15 904.84 C 207.42 890.88 188.95 881.69 173.99 868.01 C 152.81 849.36 128.01 835.03 108.37 814.62 C 97.15 803.18 90.32 788.20 86.13 772.91 C 79.89 749.82 78.93 725.78 77.28 702.05 C 75.88 683.63 75.00 664.97 69.98 647.09 C 65.19 629.08 57.37 612.09 51.89 594.31 C 47.55 580.59 46.84 566.09 45.74 551.84 C 43.30 508.28 45.84 464.52 51.52 421.29 C 55.07 396.76 59.18 372.07 67.77 348.73 C 76.44 326.91 88.34 306.56 100.50 286.54 C 123.11 250.19 148.24 215.43 175.17 182.16 C 194.94 158.09 215.47 134.48 238.82 113.79 C 252.14 102.00 267.27 92.48 282.66 83.65 C 303.78 71.70 325.68 61.08 348.36 52.42 C 356.14 49.57 364.01 46.75 372.22 45.39 C 389.32 43.26 406.57 48.84 423.59 45.34 C 443.44 41.60 460.66 30.22 479.97 24.80 M 585.43 141.62 C 569.06 147.12 553.30 154.94 539.73 165.72 C 534.90 169.61 530.43 174.21 528.03 180.03 C 522.77 192.22 519.34 205.10 514.42 217.42 C 504.75 241.73 492.16 265.16 487.02 291.04 C 482.47 312.65 483.99 335.59 491.74 356.29 C 501.06 373.28 515.76 386.73 531.97 397.06 C 550.73 408.97 571.67 417.06 593.08 422.77 C 613.43 428.13 634.30 431.53 655.30 432.87 C 663.15 434.04 671.13 433.21 679.00 434.11 C 687.02 434.71 694.99 433.39 703.02 433.57 C 729.42 432.45 755.70 428.52 781.36 422.17 C 784.53 402.04 778.49 382.04 777.71 361.95 C 776.91 349.86 777.99 337.66 781.11 325.95 C 779.44 322.23 776.26 319.38 774.03 315.99 C 759.91 297.01 746.42 277.59 732.48 258.48 C 709.84 227.47 686.92 196.46 660.15 168.84 C 649.00 157.86 637.34 146.74 622.93 140.17 C 610.96 134.64 597.44 138.04 585.43 141.62 M 240.02 261.85 C 222.25 265.13 204.95 270.85 188.58 278.49 C 175.45 284.67 162.77 292.17 152.13 302.12 C 145.74 308.42 141.20 316.29 137.23 324.26 C 127.13 345.25 123.56 368.86 124.24 392.00 C 125.03 420.09 131.61 447.87 142.14 473.86 C 150.33 493.64 160.83 512.75 175.39 528.59 C 188.60 528.50 201.80 528.81 215.01 528.77 C 217.01 528.76 218.99 529.09 220.99 529.25 C 241.74 528.44 263.35 529.20 282.90 520.95 C 284.77 519.93 287.45 519.46 288.17 517.17 C 295.31 500.28 306.70 485.49 319.90 472.89 C 333.64 459.47 349.19 448.14 364.13 436.15 C 365.71 434.74 367.79 433.74 368.88 431.88 C 368.90 427.92 368.48 423.98 368.64 420.03 C 368.83 396.18 376.38 372.90 374.73 348.97 C 374.32 345.50 375.15 341.33 372.36 338.65 C 363.47 328.78 350.17 323.58 342.84 312.19 C 337.55 304.19 337.15 294.16 338.27 284.93 C 324.42 283.53 312.37 276.05 300.38 269.62 C 290.98 264.48 280.74 260.58 270.00 259.69 C 259.97 259.04 249.90 260.04 240.02 261.85 M 726.38 596.41 C 715.46 602.08 707.58 612.10 701.65 622.66 C 692.49 638.78 685.51 656.75 671.56 669.55 C 657.34 683.51 637.11 688.27 617.94 690.51 C 604.37 692.37 590.65 692.49 577.00 693.19 C 563.33 692.96 549.63 693.66 536.00 692.68 C 509.22 692.76 482.24 691.96 455.74 696.52 C 437.60 699.56 420.94 707.77 404.38 715.40 C 382.90 726.01 362.20 738.45 343.61 753.63 C 334.72 760.99 326.14 768.87 318.85 777.84 C 340.36 775.56 359.69 764.85 377.97 753.98 C 395.38 743.45 412.65 732.53 431.32 724.31 C 456.44 713.14 483.73 707.66 510.99 705.08 C 534.91 702.61 558.98 703.16 582.98 703.26 C 630.65 704.58 678.31 708.09 726.01 705.99 C 732.56 705.61 739.17 704.71 745.72 705.53 C 744.81 705.23 743.87 704.97 742.97 704.70 C 752.53 704.23 762.06 703.05 771.52 701.56 C 782.37 681.43 783.49 657.49 780.51 635.24 C 777.92 619.24 773.50 602.17 761.53 590.51 C 749.61 589.41 737.14 590.82 726.38 596.41 Z" />
<path fill="#000000" opacity="1.00" d=" M 585.43 141.62 C 597.44 138.04 610.96 134.64 622.93 140.17 C 637.34 146.74 649.00 157.86 660.15 168.84 C 686.92 196.46 709.84 227.47 732.48 258.48 C 746.42 277.59 759.91 297.01 774.03 315.99 C 776.26 319.38 779.44 322.23 781.11 325.95 C 777.99 337.66 776.91 349.86 777.71 361.95 C 778.49 382.04 784.53 402.04 781.36 422.17 C 755.70 428.52 729.42 432.45 703.02 433.57 C 694.99 433.39 687.02 434.71 679.00 434.11 C 671.13 433.21 663.15 434.04 655.30 432.87 C 634.30 431.53 613.43 428.13 593.08 422.77 C 571.67 417.06 550.73 408.97 531.97 397.06 C 515.76 386.73 501.06 373.28 491.74 356.29 C 483.99 335.59 482.47 312.65 487.02 291.04 C 492.16 265.16 504.75 241.73 514.42 217.42 C 519.34 205.10 522.77 192.22 528.03 180.03 C 530.43 174.21 534.90 169.61 539.73 165.72 C 553.30 154.94 569.06 147.12 585.43 141.62 M 606.57 168.50 C 596.74 172.80 587.51 178.46 579.14 185.16 C 563.76 197.48 552.44 214.03 543.25 231.28 C 535.78 244.71 530.35 259.19 522.33 272.32 C 517.75 280.42 512.28 288.04 508.55 296.58 C 505.64 302.98 506.33 310.19 506.99 316.98 C 508.96 334.17 518.03 349.80 530.00 362.02 C 542.40 374.33 557.22 384.02 572.82 391.78 C 580.71 371.96 596.69 356.06 615.51 346.38 C 627.08 340.55 639.96 336.64 653.03 337.27 C 668.40 337.10 683.53 345.52 691.16 358.92 C 700.56 374.91 701.22 394.21 700.06 412.25 C 705.70 411.54 711.46 411.53 716.92 409.73 C 729.50 406.56 740.33 397.49 745.62 385.63 C 753.50 368.30 753.21 348.62 751.61 330.02 C 751.28 328.26 751.64 326.14 750.40 324.70 C 716.48 289.77 696.15 244.42 663.67 208.33 C 649.52 192.47 632.59 178.85 613.27 169.81 C 611.17 169.00 608.83 167.18 606.57 168.50 M 547.24 193.40 C 554.08 194.28 561.14 189.82 562.65 182.99 C 555.79 182.27 548.83 186.52 547.24 193.40 M 640.22 351.95 C 636.32 353.27 634.02 357.22 633.75 361.19 C 639.47 361.23 645.37 361.76 650.93 360.09 C 652.80 359.45 653.79 357.69 654.57 356.00 C 650.78 352.51 645.32 350.35 640.22 351.95 M 624.74 384.74 C 619.70 390.84 617.97 399.18 618.66 406.92 C 627.08 407.95 635.38 409.88 643.73 411.48 C 652.19 413.28 660.90 412.72 669.49 412.38 C 670.54 408.40 670.95 404.19 670.05 400.14 C 668.96 395.04 665.90 390.63 664.74 385.55 C 664.02 382.57 664.19 379.49 664.53 376.48 C 659.47 375.07 654.17 375.52 648.99 375.42 C 640.21 375.43 630.66 377.83 624.74 384.74 Z" />
<path fill="#ffffff" opacity="1.00" d=" M 606.57 168.50 C 608.83 167.18 611.17 169.00 613.27 169.81 C 632.59 178.85 649.52 192.47 663.67 208.33 C 696.15 244.42 716.48 289.77 750.40 324.70 C 751.64 326.14 751.28 328.26 751.61 330.02 C 753.21 348.62 753.50 368.30 745.62 385.63 C 740.33 397.49 729.50 406.56 716.92 409.73 C 711.46 411.53 705.70 411.54 700.06 412.25 C 701.22 394.21 700.56 374.91 691.16 358.92 C 683.53 345.52 668.40 337.10 653.03 337.27 C 639.96 336.64 627.08 340.55 615.51 346.38 C 596.69 356.06 580.71 371.96 572.82 391.78 C 557.22 384.02 542.40 374.33 530.00 362.02 C 518.03 349.80 508.96 334.17 506.99 316.98 C 506.33 310.19 505.64 302.98 508.55 296.58 C 512.28 288.04 517.75 280.42 522.33 272.32 C 530.35 259.19 535.78 244.71 543.25 231.28 C 552.44 214.03 563.76 197.48 579.14 185.16 C 587.51 178.46 596.74 172.80 606.57 168.50 Z" />
<path fill="#ffffff" opacity="1.00" d=" M 547.24 193.40 C 548.83 186.52 555.79 182.27 562.65 182.99 C 561.14 189.82 554.08 194.28 547.24 193.40 Z" />
<path fill="#ffffff" opacity="1.00" d=" M 756.19 218.76 C 758.74 218.58 761.90 218.04 763.71 220.37 C 766.49 224.30 765.88 229.47 765.92 234.03 C 762.78 232.01 760.07 229.15 756.24 228.48 C 756.25 225.24 756.26 222.00 756.19 218.76 Z" />
<path fill="#000000" opacity="1.00" d=" M 240.02 261.85 C 249.90 260.04 259.97 259.04 270.00 259.69 C 280.74 260.58 290.98 264.48 300.38 269.62 C 312.37 276.05 324.42 283.53 338.27 284.93 C 337.15 294.16 337.55 304.19 342.84 312.19 C 350.17 323.58 363.47 328.78 372.36 338.65 C 375.15 341.33 374.32 345.50 374.73 348.97 C 376.38 372.90 368.83 396.18 368.64 420.03 C 368.48 423.98 368.90 427.92 368.88 431.88 C 367.79 433.74 365.71 434.74 364.13 436.15 C 349.19 448.14 333.64 459.47 319.90 472.89 C 306.70 485.49 295.31 500.28 288.17 517.17 C 287.45 519.46 284.77 519.93 282.90 520.95 C 263.35 529.20 241.74 528.44 220.99 529.25 C 218.99 529.09 217.01 528.76 215.01 528.77 C 201.80 528.81 188.60 528.50 175.39 528.59 C 160.83 512.75 150.33 493.64 142.14 473.86 C 131.61 447.87 125.03 420.09 124.24 392.00 C 123.56 368.86 127.13 345.25 137.23 324.26 C 141.20 316.29 145.74 308.42 152.13 302.12 C 162.77 292.17 175.45 284.67 188.58 278.49 C 204.95 270.85 222.25 265.13 240.02 261.85 M 228.28 292.08 C 206.39 294.05 184.52 303.10 169.83 319.84 C 156.51 334.54 150.62 354.47 149.23 373.92 C 147.24 402.79 153.30 431.89 164.53 458.44 C 171.01 473.14 179.08 487.64 190.99 498.66 C 190.20 485.70 191.57 472.46 196.25 460.28 C 200.81 448.06 208.91 437.18 219.42 429.43 C 232.69 419.70 249.67 415.28 266.01 416.88 C 285.77 418.85 304.22 428.70 318.11 442.70 C 329.18 436.70 339.03 427.24 343.01 415.04 C 346.78 403.78 345.91 391.53 343.03 380.18 C 337.33 357.73 325.36 337.65 314.50 317.42 C 313.32 314.68 310.52 313.40 308.20 311.82 C 284.65 296.83 256.12 289.58 228.28 292.08 M 260.75 441.80 C 254.59 444.04 248.41 446.36 241.92 447.48 C 241.08 456.30 239.69 465.08 239.01 473.93 C 238.30 482.65 240.64 491.91 246.86 498.31 C 247.94 493.66 249.20 488.95 251.91 484.95 C 257.78 475.91 267.43 470.45 274.59 462.59 C 278.44 458.32 281.83 453.12 282.58 447.34 C 280.48 444.32 277.52 441.79 274.03 440.55 C 269.60 439.78 264.95 440.14 260.75 441.80 Z" />
<path fill="#ffffff" opacity="1.00" d=" M 228.28 292.08 C 256.12 289.58 284.65 296.83 308.20 311.82 C 310.52 313.40 313.32 314.68 314.50 317.42 C 325.36 337.65 337.33 357.73 343.03 380.18 C 345.91 391.53 346.78 403.78 343.01 415.04 C 339.03 427.24 329.18 436.70 318.11 442.70 C 304.22 428.70 285.77 418.85 266.01 416.88 C 249.67 415.28 232.69 419.70 219.42 429.43 C 208.91 437.18 200.81 448.06 196.25 460.28 C 191.57 472.46 190.20 485.70 190.99 498.66 C 179.08 487.64 171.01 473.14 164.53 458.44 C 153.30 431.89 147.24 402.79 149.23 373.92 C 150.62 354.47 156.51 334.54 169.83 319.84 C 184.52 303.10 206.39 294.05 228.28 292.08 Z" />
<path fill="#ffffff" opacity="1.00" d=" M 822.35 351.17 C 825.46 351.55 828.59 352.96 830.27 355.73 C 833.08 360.30 832.95 365.92 832.38 371.07 C 825.05 367.42 823.03 358.63 822.35 351.17 Z" />
<path fill="#ffffff" opacity="1.00" d=" M 640.22 351.95 C 645.32 350.35 650.78 352.51 654.57 356.00 C 653.79 357.69 652.80 359.45 650.93 360.09 C 645.37 361.76 639.47 361.23 633.75 361.19 C 634.02 357.22 636.32 353.27 640.22 351.95 Z" />
<path fill="#ffffff" opacity="1.00" d=" M 624.74 384.74 C 630.66 377.83 640.21 375.43 648.99 375.42 C 654.17 375.52 659.47 375.07 664.53 376.48 C 664.19 379.49 664.02 382.57 664.74 385.55 C 665.90 390.63 668.96 395.04 670.05 400.14 C 670.95 404.19 670.54 408.40 669.49 412.38 C 660.90 412.72 652.19 413.28 643.73 411.48 C 635.38 409.88 627.08 407.95 618.66 406.92 C 617.97 399.18 619.70 390.84 624.74 384.74 Z" />
<path fill="#ffffff" opacity="1.00" d=" M 852.60 417.51 C 855.95 416.13 858.69 419.86 858.46 422.97 C 858.44 429.30 856.86 435.54 857.19 441.90 C 849.07 437.18 845.34 424.54 852.60 417.51 Z" />
<path fill="#ffffff" opacity="1.00" d=" M 260.75 441.80 C 264.95 440.14 269.60 439.78 274.03 440.55 C 277.52 441.79 280.48 444.32 282.58 447.34 C 281.83 453.12 278.44 458.32 274.59 462.59 C 267.43 470.45 257.78 475.91 251.91 484.95 C 249.20 488.95 247.94 493.66 246.86 498.31 C 240.64 491.91 238.30 482.65 239.01 473.93 C 239.69 465.08 241.08 456.30 241.92 447.48 C 248.41 446.36 254.59 444.04 260.75 441.80 Z" />
<path fill="#000000" opacity="1.00" d=" M 726.38 596.41 C 737.14 590.82 749.61 589.41 761.53 590.51 C 773.50 602.17 777.92 619.24 780.51 635.24 C 783.49 657.49 782.37 681.43 771.52 701.56 C 762.06 703.05 752.53 704.23 742.97 704.70 C 743.87 704.97 744.81 705.23 745.72 705.53 C 739.17 704.71 732.56 705.61 726.01 705.99 C 678.31 708.09 630.65 704.58 582.98 703.26 C 558.98 703.16 534.91 702.61 510.99 705.08 C 483.73 707.66 456.44 713.14 431.32 724.31 C 412.65 732.53 395.38 743.45 377.97 753.98 C 359.69 764.85 340.36 775.56 318.85 777.84 C 326.14 768.87 334.72 760.99 343.61 753.63 C 362.20 738.45 382.90 726.01 404.38 715.40 C 420.94 707.77 437.60 699.56 455.74 696.52 C 482.24 691.96 509.22 692.76 536.00 692.68 C 549.63 693.66 563.33 692.96 577.00 693.19 C 590.65 692.49 604.37 692.37 617.94 690.51 C 637.11 688.27 657.34 683.51 671.56 669.55 C 685.51 656.75 692.49 638.78 701.65 622.66 C 707.58 612.10 715.46 602.08 726.38 596.41 M 742.12 608.27 C 729.76 613.90 721.12 625.06 714.63 636.64 C 706.15 651.53 700.34 668.03 689.59 681.57 C 686.77 685.47 682.93 688.43 679.78 692.03 C 691.89 692.98 704.41 692.40 715.80 687.82 C 728.77 683.00 739.33 673.80 750.94 666.58 C 751.31 671.72 750.13 676.85 750.63 681.99 C 750.82 684.52 752.33 687.57 755.22 687.64 C 757.57 687.64 761.32 687.87 761.99 684.93 C 767.42 669.20 767.90 652.02 765.14 635.70 C 763.05 624.82 759.60 613.44 751.51 605.45 C 748.21 605.11 745.10 607.06 742.12 608.27 Z" />
<path fill="#ffffff" opacity="1.00" d=" M 742.12 608.27 C 745.10 607.06 748.21 605.11 751.51 605.45 C 759.60 613.44 763.05 624.82 765.14 635.70 C 767.90 652.02 767.42 669.20 761.99 684.93 C 761.32 687.87 757.57 687.64 755.22 687.64 C 752.33 687.57 750.82 684.52 750.63 681.99 C 750.13 676.85 751.31 671.72 750.94 666.58 C 739.33 673.80 728.77 683.00 715.80 687.82 C 704.41 692.40 691.89 692.98 679.78 692.03 C 682.93 688.43 686.77 685.47 689.59 681.57 C 700.34 668.03 706.15 651.53 714.63 636.64 C 721.12 625.06 729.76 613.90 742.12 608.27 Z" />
</svg>
