<?xml version="1.0" encoding="UTF-8" ?>
<!DOCTYPE svg PUBLIC "-//W3C//DTD SVG 1.1//EN" "http://www.w3.org/Graphics/SVG/1.1/DTD/svg11.dtd">
<svg width="800pt" height="591pt" viewBox="0 0 800 591" version="1.1" xmlns="http://www.w3.org/2000/svg">
<g id="#000000ff">
<path fill="#000000" opacity="1.00" d=" M 0.00 0.00 L 0.18 0.00 C 0.14 0.05 0.05 0.14 0.00 0.18 L 0.00 0.00 Z" />
<path fill="#000000" opacity="1.00" d=" M 268.99 7.84 C 280.40 8.51 291.86 7.87 303.23 6.92 C 301.03 7.34 298.83 7.80 296.67 8.37 C 302.56 8.04 308.50 8.27 314.31 9.37 C 328.34 11.05 342.47 13.68 355.38 19.63 C 359.79 21.54 363.19 25.00 366.74 28.13 C 374.98 35.01 383.31 41.81 392.16 47.91 C 401.65 55.67 411.00 63.76 418.78 73.29 C 422.76 77.72 426.06 82.70 429.60 87.48 C 432.27 91.24 435.01 95.25 435.53 99.96 C 435.90 104.98 434.36 109.96 435.10 114.98 C 435.54 118.60 435.61 122.25 435.91 125.88 C 436.29 130.32 438.24 134.42 438.73 138.84 C 440.71 148.90 441.28 159.39 439.12 169.47 C 436.80 178.42 434.61 187.41 431.64 196.17 C 430.49 202.07 428.70 208.42 430.88 214.29 C 431.68 216.68 431.50 219.25 431.98 221.71 C 434.69 236.98 432.49 252.54 433.81 267.91 C 433.82 276.27 435.72 284.46 435.98 292.81 C 436.75 298.15 436.63 303.57 437.46 308.90 C 438.09 313.49 437.91 318.14 437.95 322.76 C 437.97 327.35 437.98 331.98 437.25 336.53 C 436.11 343.24 435.88 350.08 434.45 356.74 C 432.86 366.23 431.13 375.88 426.79 384.56 C 422.81 392.69 418.00 400.39 412.89 407.84 C 411.88 409.09 412.15 411.33 413.74 411.97 C 420.92 415.61 427.13 420.81 434.10 424.81 C 452.23 435.43 471.67 444.44 492.50 448.11 C 495.88 448.59 499.34 448.44 502.67 449.28 C 506.39 450.14 510.17 450.79 514.01 450.77 C 521.35 450.65 528.58 452.16 535.88 452.72 C 539.91 452.91 543.92 453.47 547.96 453.69 C 552.34 453.94 556.55 455.30 560.93 455.62 C 567.39 456.18 573.81 457.14 580.20 458.29 C 618.67 466.68 657.15 475.12 695.81 482.62 C 705.60 484.52 715.80 483.24 725.44 486.09 C 731.51 487.51 736.83 491.58 739.85 497.03 C 744.34 504.95 748.98 512.79 753.38 520.77 C 757.82 528.44 762.52 536.00 766.25 544.06 C 768.60 549.31 771.21 554.45 773.56 559.71 C 776.84 566.76 781.57 573.06 784.51 580.27 C 782.99 580.29 780.76 580.74 779.99 579.00 C 776.49 572.44 772.48 566.15 769.43 559.37 C 763.97 547.16 757.46 535.46 751.04 523.74 C 748.42 518.90 745.17 514.44 742.66 509.54 C 740.60 505.60 738.28 501.79 735.89 498.05 C 732.94 492.98 727.52 489.44 721.76 488.59 C 721.57 496.07 720.97 503.53 720.63 511.01 C 719.45 518.19 718.61 525.43 717.11 532.56 C 716.43 535.66 716.59 538.85 716.15 541.99 C 715.58 546.10 714.37 550.10 713.88 554.23 C 713.19 563.13 711.31 571.88 710.34 580.76 C 709.52 580.56 707.89 580.16 707.08 579.96 C 707.69 570.61 709.75 561.44 710.73 552.14 C 711.78 542.87 712.62 533.55 714.56 524.41 C 715.92 519.36 715.68 514.10 716.62 508.99 C 717.95 501.99 718.20 494.78 717.39 487.71 C 709.61 487.74 701.81 487.54 694.10 486.43 C 669.26 481.58 644.53 476.22 619.79 470.90 C 606.29 467.29 592.52 464.87 578.94 461.61 C 570.35 460.22 561.74 458.85 553.04 458.45 C 537.73 456.37 522.27 455.87 506.99 453.55 C 505.21 453.14 503.46 453.64 502.02 454.70 C 506.01 457.79 510.24 460.58 513.88 464.10 C 518.80 468.87 524.55 472.67 529.44 477.48 C 533.20 481.15 537.27 484.48 541.45 487.65 C 543.73 489.48 546.24 491.15 547.92 493.61 C 545.47 497.23 542.93 500.80 540.79 504.62 C 537.45 510.48 533.31 515.83 529.92 521.66 C 528.96 523.07 529.06 524.81 529.17 526.43 C 544.85 533.39 560.00 541.49 575.59 548.64 C 575.70 552.20 574.06 555.45 573.36 558.88 C 571.74 566.05 569.11 572.97 567.97 580.25 C 566.48 580.81 564.91 580.83 563.36 580.58 C 564.00 575.19 565.99 570.06 567.22 564.79 C 568.24 560.19 570.19 555.76 570.40 551.02 C 562.11 546.61 553.46 542.91 545.07 538.70 C 529.33 530.87 513.42 523.36 497.97 514.95 C 489.20 509.37 480.05 504.43 471.29 498.85 C 466.15 495.58 460.66 492.89 455.64 489.43 C 450.51 485.86 445.04 482.81 439.91 479.24 C 438.35 478.11 436.51 477.54 434.69 477.02 C 436.33 485.23 437.80 493.50 438.85 501.82 C 440.84 513.18 442.81 524.55 444.67 535.93 C 445.41 540.60 447.01 545.17 446.83 549.95 C 446.70 560.11 447.36 570.33 446.46 580.46 C 445.79 580.40 444.44 580.28 443.77 580.22 C 443.00 578.57 443.32 576.72 443.36 574.99 C 443.84 569.03 444.56 563.01 443.86 557.03 C 443.60 555.92 443.52 554.42 442.31 553.90 C 427.34 546.90 412.90 538.82 398.64 530.47 C 397.54 529.82 395.38 528.60 394.94 530.59 C 392.93 539.91 388.03 548.17 383.65 556.53 C 382.05 559.42 380.68 562.43 378.86 565.19 C 378.15 565.33 376.73 565.61 376.01 565.75 C 376.07 562.39 377.93 559.54 379.43 556.67 C 384.40 547.54 389.28 538.29 392.48 528.36 C 390.62 527.32 388.74 526.30 386.74 525.58 C 376.05 521.80 365.11 518.72 354.03 516.32 C 349.94 515.13 345.69 514.64 341.48 514.07 C 341.49 512.41 342.28 511.45 343.85 511.18 C 348.36 511.09 352.77 512.23 357.10 513.35 C 373.08 517.03 389.00 521.70 403.62 529.24 C 416.19 536.92 429.48 543.30 442.36 550.43 C 443.92 545.52 440.65 540.82 440.62 535.90 C 437.55 516.60 433.59 497.42 431.51 477.96 C 431.54 473.52 429.34 469.57 428.19 465.39 C 423.88 449.33 418.38 433.61 412.00 418.27 C 411.59 416.90 410.57 415.37 408.96 415.48 C 407.55 416.73 406.85 418.54 405.90 420.12 C 402.88 425.79 398.58 430.61 395.02 435.92 C 391.36 440.82 389.29 446.67 385.69 451.60 C 381.09 458.00 376.71 464.55 371.86 470.76 C 366.69 477.48 362.17 484.66 357.71 491.86 C 354.40 497.28 350.37 502.30 345.54 506.45 C 343.21 508.40 341.38 510.90 340.22 513.71 C 337.81 513.43 335.42 512.98 333.01 512.83 C 326.99 513.25 322.21 517.20 317.67 520.74 C 307.87 529.21 298.67 538.40 290.54 548.50 C 289.37 550.22 286.86 551.88 287.61 554.25 C 293.61 558.62 299.53 563.13 305.88 566.99 C 314.82 572.50 325.27 574.52 334.94 578.33 C 335.17 578.23 335.63 578.01 335.86 577.91 C 337.83 574.82 338.87 571.16 341.36 568.40 C 343.97 565.38 347.31 562.40 351.50 562.17 C 355.69 561.84 359.89 562.27 364.09 562.29 C 368.31 562.26 372.36 563.84 376.04 565.79 C 377.50 567.55 378.33 569.73 379.53 571.68 C 381.18 574.69 383.68 577.22 384.75 580.55 C 383.83 580.51 382.00 580.43 381.08 580.40 C 377.87 576.92 376.43 572.23 373.40 568.65 C 370.23 566.65 366.50 565.26 362.70 565.64 C 362.38 569.83 363.09 574.12 362.02 578.24 C 361.49 578.25 360.44 578.27 359.92 578.27 C 358.16 573.97 360.37 569.06 358.43 564.82 C 355.88 564.98 352.99 564.28 350.80 565.95 C 348.82 567.31 346.73 568.49 344.74 569.83 C 341.57 573.10 340.12 577.58 338.64 581.79 C 334.90 582.12 331.36 580.69 327.88 579.56 C 323.35 578.00 318.75 576.63 314.24 575.03 C 303.34 570.74 293.97 563.51 284.86 556.30 C 281.51 560.18 278.97 564.68 275.88 568.76 C 272.95 572.66 270.68 576.99 267.93 581.00 C 266.82 582.64 264.54 581.89 263.24 580.92 C 257.09 576.77 250.92 572.59 245.36 567.66 C 240.19 563.49 235.01 559.36 230.03 554.98 C 227.17 552.36 224.70 549.36 221.89 546.70 C 221.68 547.25 221.27 548.35 221.06 548.90 C 222.81 552.67 225.14 556.16 226.68 560.03 C 228.34 564.17 229.85 568.36 231.83 572.36 C 233.08 575.01 234.85 577.55 234.89 580.60 C 232.95 580.87 231.13 580.25 230.54 578.26 C 227.41 571.07 223.98 564.02 220.94 556.80 C 217.88 550.30 216.20 543.25 212.93 536.85 C 208.79 528.35 207.48 518.93 205.07 509.90 C 201.27 520.60 197.38 531.28 193.11 541.82 C 188.39 553.24 181.75 563.72 175.39 574.27 C 173.47 576.87 172.28 581.59 168.07 580.42 C 170.73 571.89 177.32 565.34 181.26 557.42 C 189.89 543.00 194.92 526.89 200.94 511.31 C 202.06 507.99 203.77 504.70 203.58 501.10 C 203.41 495.02 201.79 489.06 201.72 482.96 C 201.71 478.64 201.11 474.35 201.36 470.03 C 201.48 468.05 201.43 466.05 200.95 464.13 C 199.59 465.36 198.41 466.78 197.37 468.29 C 193.13 474.30 187.85 479.45 182.61 484.57 C 176.28 490.58 170.08 496.72 163.67 502.63 C 158.74 507.19 153.05 510.80 147.60 514.69 C 143.98 517.06 143.19 521.58 141.42 525.23 C 134.83 539.27 128.20 553.30 121.39 567.24 C 120.86 568.81 119.05 570.37 119.86 572.11 C 124.04 574.42 128.63 575.92 132.78 578.33 C 132.84 579.08 132.97 580.60 133.03 581.36 C 131.33 581.22 129.63 580.92 128.11 580.11 C 123.96 577.99 119.69 576.10 115.61 573.86 C 115.61 569.55 118.26 565.88 119.94 562.07 C 125.14 551.93 129.22 541.26 134.29 531.06 C 135.79 527.89 137.88 525.00 138.80 521.59 C 137.19 521.78 135.53 522.06 134.15 522.99 C 128.55 526.32 123.17 530.05 117.36 533.03 C 103.64 539.89 90.46 547.76 77.17 555.40 C 62.97 563.19 48.41 570.30 33.63 576.90 C 29.54 578.64 25.72 581.32 21.15 581.58 C 20.91 579.64 21.72 578.00 23.65 577.46 C 39.89 570.31 55.97 562.75 71.63 554.39 C 85.11 546.54 98.72 538.92 112.31 531.26 C 119.74 526.24 128.18 522.96 135.44 517.66 C 147.07 510.98 158.13 503.17 167.74 493.76 C 174.68 486.73 182.19 480.25 188.86 472.95 C 191.97 469.34 194.75 465.47 197.68 461.73 C 200.72 457.82 202.34 452.91 202.23 447.96 C 202.13 443.23 203.01 438.58 203.30 433.89 C 203.60 427.59 205.52 421.39 208.72 415.97 C 209.36 414.53 210.61 413.05 210.04 411.38 C 207.57 401.02 205.49 390.55 202.35 380.36 C 201.06 376.05 200.17 370.75 195.80 368.44 C 189.10 365.02 181.51 362.32 176.87 356.06 C 172.07 349.24 171.04 340.69 167.46 333.30 C 166.81 331.74 165.12 331.14 163.76 330.38 C 160.27 328.66 156.54 327.07 153.97 324.02 C 151.14 320.69 149.05 316.83 146.59 313.24 C 143.48 308.45 139.86 303.86 138.07 298.37 C 136.38 291.80 135.65 285.04 134.56 278.37 C 133.25 272.58 131.42 266.83 128.35 261.73 C 126.93 259.23 125.13 256.82 124.67 253.91 C 123.37 247.04 122.07 240.07 122.58 233.05 C 122.71 228.52 124.43 224.27 125.23 219.85 C 125.70 216.24 124.90 212.62 124.89 209.00 C 124.87 193.02 124.60 177.03 124.76 161.05 C 125.69 150.75 126.27 140.42 127.84 130.19 C 128.60 125.85 130.57 121.88 132.02 117.76 C 133.56 113.00 135.97 108.60 137.74 103.93 C 139.76 99.39 140.79 94.51 142.65 89.91 C 145.49 82.66 147.05 74.91 150.80 68.03 C 153.75 61.88 157.54 56.15 162.02 51.01 C 167.45 45.02 174.04 40.24 180.63 35.63 C 185.79 32.02 191.61 29.48 196.72 25.81 C 200.09 23.78 203.69 22.17 207.04 20.10 C 211.65 17.30 216.89 15.79 222.10 14.56 C 237.45 10.65 253.26 9.19 268.99 7.84 M 268.91 12.47 C 262.57 13.21 256.15 13.01 249.87 14.22 C 239.06 15.49 228.26 17.19 217.80 20.29 C 210.66 22.20 204.58 26.59 198.03 29.85 C 186.17 36.61 174.08 43.62 164.84 53.86 C 161.50 57.35 158.12 60.90 155.87 65.23 C 157.93 66.33 159.58 64.16 161.03 63.03 C 165.37 58.72 171.19 56.57 176.57 53.91 C 181.98 51.53 187.23 48.81 192.71 46.58 C 199.13 44.40 205.33 41.61 211.27 38.36 C 218.22 33.91 226.86 32.15 235.01 33.25 C 240.63 33.62 246.27 33.44 251.88 32.98 C 256.36 34.81 259.71 38.55 262.76 42.17 C 265.38 45.25 267.07 49.09 267.30 53.15 C 266.91 52.95 266.11 52.55 265.71 52.35 C 261.93 46.88 259.10 40.28 253.08 36.83 C 249.42 34.59 245.00 35.39 240.96 35.61 C 234.73 35.76 228.50 35.97 222.29 36.45 C 216.73 37.64 212.39 41.63 207.29 43.92 C 202.16 46.39 196.59 47.76 191.43 50.17 C 187.11 52.20 182.71 54.09 178.53 56.41 C 173.72 59.11 168.11 60.24 163.71 63.69 C 159.51 66.98 154.11 69.41 151.71 74.46 C 148.81 81.79 147.21 89.63 143.64 96.70 C 142.85 98.05 143.68 99.57 143.85 100.97 C 139.33 106.80 137.91 114.17 135.07 120.82 C 132.03 127.63 131.24 135.12 129.91 142.39 C 129.17 145.79 131.62 149.01 130.72 152.41 C 129.86 156.29 128.58 160.15 128.71 164.18 C 128.84 167.92 128.28 171.62 127.55 175.28 C 129.92 175.23 130.96 172.69 132.13 171.02 C 136.57 162.84 143.19 156.14 150.14 150.07 C 156.03 144.64 160.62 137.97 166.69 132.71 C 172.65 127.38 178.79 121.52 186.81 119.62 C 190.55 119.27 194.38 119.18 198.10 119.75 C 200.97 120.93 204.00 122.46 205.80 125.08 C 205.80 125.82 205.79 127.30 205.79 128.04 C 202.82 126.97 201.30 123.82 198.42 122.59 C 196.37 121.74 194.20 121.22 192.01 120.89 C 189.50 121.20 187.01 121.81 184.65 122.72 C 180.23 124.59 176.82 128.09 173.12 131.04 C 167.23 136.18 161.73 141.79 156.70 147.78 C 154.27 150.66 151.17 152.85 148.39 155.36 C 143.76 159.49 139.62 164.19 136.35 169.46 C 133.87 173.53 130.42 177.26 129.51 182.08 C 129.14 185.47 128.93 188.98 129.86 192.31 C 130.32 192.12 131.25 191.74 131.71 191.55 C 135.39 184.33 137.81 176.32 143.02 169.96 C 146.55 165.54 150.02 161.05 154.09 157.10 C 157.81 153.51 161.24 149.33 166.06 147.19 C 169.42 145.68 172.94 144.60 176.41 143.37 C 178.83 142.40 181.45 143.26 183.96 142.92 C 188.64 142.45 193.35 142.51 198.01 141.92 C 200.71 141.79 204.35 140.91 205.71 144.03 C 197.00 147.56 187.40 142.97 178.48 145.49 C 172.92 147.06 167.30 149.03 162.81 152.79 C 155.01 159.09 148.48 166.82 143.03 175.20 C 139.13 181.87 136.12 189.00 132.33 195.72 C 128.50 202.07 130.71 209.70 130.09 216.67 C 132.44 217.02 134.57 215.89 136.71 215.16 C 139.72 214.03 142.98 213.97 146.14 213.72 L 147.05 213.10 C 148.19 209.92 149.34 206.71 150.96 203.73 C 152.98 200.29 155.85 197.46 158.63 194.63 C 163.02 190.33 166.97 185.45 172.34 182.30 C 178.95 177.69 186.14 174.04 193.26 170.32 C 194.63 169.56 196.90 170.87 196.25 172.58 C 189.48 175.47 182.96 178.91 176.65 182.69 C 170.02 186.49 165.24 192.59 159.83 197.83 C 155.00 202.43 151.24 208.36 149.88 214.94 C 151.85 216.96 153.95 218.98 155.04 221.65 C 157.43 227.02 159.58 233.06 164.46 236.69 C 167.54 237.24 170.70 237.04 173.80 237.45 C 175.54 237.91 177.05 239.13 178.92 239.09 C 182.10 238.94 185.31 238.75 188.45 238.14 C 190.46 237.73 192.06 235.88 192.04 233.81 C 191.41 227.18 190.03 220.62 189.64 213.97 C 189.99 207.65 193.92 202.29 197.31 197.20 C 201.82 192.08 206.76 187.32 210.49 181.56 C 214.28 176.08 219.47 171.26 221.30 164.67 C 221.59 159.69 221.55 154.65 220.59 149.74 C 219.56 141.23 219.31 132.63 219.66 124.07 C 220.09 116.61 222.53 109.19 227.22 103.31 C 231.40 97.89 237.66 94.52 244.09 92.55 C 248.61 91.25 253.36 91.55 258.01 91.47 C 261.91 91.42 265.90 91.59 269.59 93.00 C 279.75 96.67 289.50 101.45 299.88 104.56 C 308.04 107.47 316.25 110.56 324.91 111.62 C 330.85 112.30 336.75 111.02 342.55 109.91 C 354.42 107.78 365.94 103.79 378.03 102.91 C 381.24 103.25 384.73 103.62 387.35 105.72 C 392.07 109.46 395.31 114.65 398.44 119.72 C 402.54 126.80 406.52 134.11 408.40 142.15 C 410.73 149.96 413.03 157.90 417.16 164.99 C 418.54 167.47 420.71 169.74 420.76 172.73 C 421.17 178.13 421.92 183.52 421.84 188.96 C 421.81 194.19 423.36 199.26 423.72 204.45 C 423.04 204.40 421.67 204.30 420.98 204.25 C 418.44 198.86 419.28 192.79 418.63 187.04 C 418.02 182.19 418.61 177.18 417.24 172.44 C 416.06 169.51 413.90 167.11 412.54 164.27 C 408.25 155.53 406.11 145.97 403.05 136.77 C 399.34 128.05 394.95 119.45 388.73 112.22 C 386.22 109.47 382.96 106.67 379.00 106.83 C 374.93 106.88 370.91 107.58 366.95 108.46 C 357.97 110.27 349.15 112.72 340.17 114.51 C 330.96 115.64 321.32 115.99 312.44 112.89 C 296.47 108.38 281.51 101.05 265.92 95.50 C 255.46 92.73 243.71 94.64 234.83 100.91 C 228.75 105.13 225.28 112.21 223.73 119.28 C 221.19 130.40 223.31 141.80 224.24 152.98 C 224.39 157.62 225.44 162.35 224.22 166.93 C 223.34 170.62 220.92 173.65 218.69 176.62 C 215.79 180.40 212.90 184.17 210.12 188.03 C 206.14 193.65 200.71 198.11 197.20 204.08 C 195.44 207.14 193.12 210.27 193.26 213.97 C 193.26 219.55 194.87 224.98 194.92 230.56 C 194.91 233.90 195.66 238.15 192.51 240.40 C 186.92 242.51 180.85 241.09 175.05 241.50 C 170.54 241.77 165.54 242.23 161.63 239.51 C 155.80 234.98 153.63 227.65 150.47 221.30 C 149.31 218.57 145.98 217.52 143.24 217.91 C 138.40 218.67 133.53 219.90 129.22 222.27 C 125.35 230.70 126.44 240.38 127.39 249.34 C 128.14 255.08 131.94 259.65 134.44 264.67 C 136.70 271.18 138.67 277.88 142.32 283.79 C 144.56 287.56 147.77 290.74 149.40 294.87 C 151.28 299.36 150.87 304.39 152.32 309.00 C 153.85 313.99 158.85 317.95 164.18 317.55 C 167.71 317.72 171.14 316.06 174.67 316.70 C 177.40 317.44 180.21 318.63 181.88 321.04 C 185.08 325.38 187.38 330.33 189.27 335.36 C 192.40 344.58 195.46 353.83 198.94 362.93 C 200.42 367.07 203.04 370.70 204.45 374.87 C 205.83 378.67 206.63 382.65 207.78 386.53 C 210.05 395.03 212.77 403.43 214.20 412.12 C 214.84 416.77 216.23 421.28 216.60 425.97 C 217.15 431.75 218.76 437.35 219.46 443.11 C 220.18 446.93 221.28 451.08 224.35 453.71 C 229.43 458.23 235.48 461.44 241.31 464.87 C 257.23 474.61 274.62 481.63 290.59 491.29 C 300.93 497.10 311.32 502.86 322.22 507.57 C 326.23 510.03 331.10 509.81 335.59 509.21 C 338.90 507.96 341.51 505.41 344.03 503.00 C 350.50 496.93 354.69 488.99 359.64 481.72 C 367.15 470.92 375.16 460.46 382.66 449.65 C 384.60 446.91 386.21 443.98 387.76 441.02 C 390.07 436.43 393.99 432.82 395.73 427.92 C 391.11 430.13 387.43 433.82 382.80 436.02 C 377.02 438.91 370.98 441.37 364.70 442.97 C 358.51 444.45 352.12 443.46 345.92 442.64 C 334.76 440.77 323.77 437.96 313.02 434.42 C 301.62 430.76 291.00 425.15 280.41 419.64 C 274.71 416.20 268.62 413.41 263.05 409.77 C 262.95 408.90 262.74 407.16 262.64 406.29 C 264.46 406.53 266.17 407.22 267.72 408.21 C 274.59 412.46 281.67 416.36 288.91 419.93 C 296.79 423.81 304.59 427.98 312.99 430.63 C 320.60 433.31 328.46 435.19 336.24 437.27 C 340.36 438.31 344.67 438.23 348.79 439.28 C 359.93 442.07 371.23 437.91 381.05 432.83 C 386.55 429.89 391.90 426.59 396.80 422.72 C 402.40 417.93 406.86 411.90 410.34 405.43 C 416.75 395.32 423.62 385.23 427.22 373.70 C 431.37 357.99 433.28 341.81 434.82 325.68 C 435.62 320.14 434.26 314.63 434.19 309.09 C 433.09 300.65 433.03 292.11 431.62 283.71 C 430.30 271.52 430.61 259.23 430.68 246.99 C 430.37 236.55 430.05 225.90 426.65 215.92 C 425.57 212.23 423.08 209.08 422.55 205.22 C 423.87 204.58 425.17 203.89 426.48 203.22 C 427.48 199.92 427.77 196.47 428.77 193.17 C 431.45 183.78 434.75 174.53 436.36 164.87 C 437.83 158.22 437.62 151.25 436.04 144.65 C 435.44 142.72 433.29 141.96 431.70 141.05 C 425.19 138.23 419.30 134.14 412.55 131.85 C 410.77 131.38 412.21 129.23 413.09 128.57 C 420.22 132.13 426.90 137.09 434.93 138.47 C 434.80 136.09 433.75 133.48 431.48 132.44 C 428.90 131.64 426.11 131.51 423.70 130.21 C 420.23 128.44 417.02 126.22 413.64 124.30 C 411.62 122.98 408.82 122.02 408.63 119.21 C 415.40 121.12 420.93 125.65 426.90 129.15 C 428.80 130.35 431.25 130.98 433.31 129.77 C 432.43 123.24 432.51 116.66 432.50 110.09 C 431.75 105.70 433.04 100.98 431.01 96.86 C 429.21 92.98 427.00 89.17 423.66 86.41 C 421.31 84.49 421.20 81.08 419.06 78.98 C 414.06 73.73 409.96 67.32 403.41 63.80 C 401.66 63.04 400.78 61.39 400.10 59.71 C 397.42 60.42 394.64 60.59 391.92 60.00 C 393.80 58.50 396.18 58.38 398.47 58.20 C 395.72 54.61 391.60 52.60 388.08 49.91 C 380.92 44.39 373.59 39.09 366.69 33.26 C 363.09 30.12 359.83 26.50 355.57 24.22 C 348.06 20.10 339.68 17.96 331.38 16.08 C 320.74 14.16 310.02 12.44 299.18 12.28 C 289.09 12.13 278.99 12.07 268.91 12.47 M 139.63 287.73 C 140.37 294.03 142.48 300.13 145.44 305.72 C 146.02 307.17 147.50 307.78 148.76 308.49 C 148.00 301.80 146.53 294.88 142.39 289.39 C 141.79 288.41 140.59 288.19 139.63 287.73 M 155.63 321.50 C 158.94 324.40 163.11 325.89 166.90 328.01 C 171.68 330.67 172.51 336.59 174.20 341.29 C 176.36 347.32 178.24 354.26 183.87 358.05 C 186.97 360.01 190.17 362.22 193.92 362.60 C 192.04 355.27 188.68 348.39 186.54 341.13 C 184.88 335.15 182.35 329.38 178.89 324.22 C 176.87 320.87 172.38 321.30 169.01 321.32 C 164.54 321.65 160.05 320.59 155.63 321.50 M 416.66 418.63 C 415.88 419.56 417.22 420.84 417.40 421.86 C 420.07 427.19 422.02 432.83 423.92 438.46 C 427.73 448.71 430.71 459.24 433.53 469.80 C 433.91 471.34 434.93 472.66 436.37 473.35 C 440.03 475.38 443.68 477.42 447.19 479.72 C 459.21 487.45 471.49 494.75 483.70 502.19 C 496.25 509.94 509.42 516.59 522.51 523.37 C 524.15 524.26 525.30 522.41 526.06 521.23 C 531.27 512.78 536.48 504.32 542.06 496.10 C 543.72 494.20 541.32 492.25 539.89 491.15 C 534.93 487.52 530.35 483.41 525.83 479.25 C 517.81 472.58 510.04 465.64 502.00 459.00 C 499.14 456.60 496.75 453.59 493.44 451.78 C 490.75 450.84 487.83 450.93 485.07 450.27 C 463.48 445.13 443.48 434.96 424.68 423.39 C 422.05 421.77 419.92 419.38 417.01 418.22 L 416.66 418.63 M 209.66 421.10 C 207.31 429.51 206.43 438.29 206.64 447.01 C 206.79 451.00 206.05 454.96 206.16 458.96 C 206.23 464.65 206.50 470.36 205.92 476.04 C 205.41 481.67 206.13 487.29 206.58 492.90 C 206.74 500.84 208.07 508.73 210.16 516.39 C 211.57 522.01 212.79 527.74 215.25 533.02 C 218.64 539.86 224.54 544.87 230.04 549.96 C 239.62 559.54 251.12 566.82 261.47 575.48 C 262.66 576.51 264.06 577.24 265.53 577.78 C 271.01 569.60 276.43 561.38 282.49 553.61 C 286.65 547.80 290.90 542.03 295.88 536.88 C 303.84 528.27 311.77 519.40 321.77 513.09 C 321.70 512.57 321.55 511.54 321.48 511.03 C 307.36 506.32 295.30 497.28 282.01 490.80 C 264.04 481.05 245.24 472.83 227.97 461.81 C 224.48 459.51 220.90 457.08 218.55 453.55 C 216.69 450.81 216.02 447.51 215.10 444.39 C 212.98 436.88 213.64 428.81 211.22 421.40 L 209.66 421.10 Z" />
<path fill="#000000" opacity="1.00" d=" M 336.26 45.22 C 343.61 43.87 351.13 44.88 358.40 46.24 C 369.02 49.63 380.28 51.00 390.51 55.62 C 391.68 56.06 392.62 56.87 393.22 57.98 C 389.34 57.96 385.87 55.92 382.04 55.54 C 374.36 53.99 366.71 52.22 359.30 49.63 C 356.31 48.66 353.22 47.50 350.03 47.93 C 342.47 48.68 334.84 47.75 327.30 48.66 C 322.35 50.07 317.50 51.82 312.56 53.26 C 306.49 53.73 300.01 56.31 296.78 61.76 C 294.02 66.28 291.76 71.11 289.97 76.09 C 288.79 76.24 287.63 76.39 286.46 76.55 C 287.16 74.03 287.91 71.48 289.36 69.27 C 291.91 65.20 293.82 60.66 297.11 57.11 C 300.50 54.05 304.67 51.77 309.13 50.74 C 318.01 48.21 327.05 46.12 336.26 45.22 Z" />
<path fill="#000000" opacity="1.00" d=" M 206.02 51.04 C 209.28 49.96 212.55 48.70 216.02 48.51 C 225.72 47.82 235.40 49.08 244.98 50.49 C 246.21 50.72 247.56 50.75 248.64 51.48 C 257.33 57.32 262.78 66.85 265.40 76.81 C 264.81 77.27 263.62 78.20 263.03 78.66 C 261.40 73.95 260.18 68.94 257.13 64.89 C 254.32 61.08 251.42 57.19 247.55 54.38 C 245.80 53.02 243.48 52.97 241.39 52.55 C 237.25 52.00 233.22 50.62 229.00 50.66 C 224.67 50.65 220.33 50.70 215.99 50.67 C 212.34 50.42 209.11 52.41 205.95 53.95 C 199.58 57.76 194.66 63.65 188.01 67.03 C 182.60 69.70 177.81 73.42 173.08 77.12 C 169.30 80.04 166.97 84.32 163.50 87.55 C 161.28 89.68 158.75 91.45 156.32 93.32 C 153.25 95.63 150.29 98.20 146.67 99.64 C 148.92 94.19 154.63 91.54 158.96 87.98 C 163.80 84.82 166.21 79.28 170.60 75.64 C 176.41 70.72 182.71 66.34 189.48 62.84 C 195.56 59.68 199.40 53.29 206.02 51.04 Z" />
<path fill="#000000" opacity="1.00" d=" M 344.33 67.36 C 348.16 65.90 352.23 65.24 356.18 64.18 C 359.70 63.20 363.31 64.31 366.88 64.30 C 370.98 64.30 374.96 65.47 379.04 65.78 C 383.25 66.05 386.93 68.25 390.97 69.19 C 395.63 70.46 400.41 71.44 404.82 73.47 C 409.70 75.58 412.35 80.91 417.64 82.33 C 417.27 82.86 416.54 83.92 416.17 84.45 C 413.74 84.87 412.12 82.90 410.52 81.45 C 407.21 78.26 403.40 75.33 398.88 74.15 C 392.91 72.59 387.12 70.38 381.13 68.92 C 375.09 67.78 369.22 65.27 362.97 65.66 C 358.43 65.63 354.35 67.93 349.93 68.64 C 345.50 69.27 341.65 71.67 337.77 73.74 C 332.11 76.87 327.87 81.85 323.55 86.54 C 322.61 87.86 320.89 87.74 319.50 88.11 C 319.40 86.60 320.68 85.60 321.55 84.56 C 323.68 82.37 325.84 80.22 327.98 78.04 C 332.54 73.31 338.35 69.99 344.33 67.36 Z" />
<path fill="#000000" opacity="1.00" d=" M 191.19 81.25 C 193.61 80.11 196.36 80.28 198.96 80.18 C 203.43 80.16 208.13 79.96 212.29 81.90 C 215.68 83.60 218.42 86.31 221.48 88.52 C 223.83 90.22 226.08 92.07 228.02 94.23 C 227.52 94.58 226.51 95.26 226.01 95.60 C 220.21 90.38 214.07 85.13 206.60 82.50 C 201.83 81.92 196.46 81.27 192.23 84.07 C 185.82 87.43 180.59 92.57 176.05 98.11 C 172.99 102.09 170.70 106.60 167.47 110.45 C 164.56 113.87 161.72 117.39 158.39 120.43 C 155.23 123.36 150.98 124.81 147.95 127.91 C 144.02 131.79 140.83 136.35 137.82 140.96 C 136.47 142.98 135.52 145.23 134.99 147.60 C 134.16 147.11 133.28 146.68 132.44 146.22 C 132.61 142.88 135.00 140.29 136.58 137.51 C 140.02 131.81 144.58 126.80 150.09 123.06 C 158.04 117.80 165.15 110.96 169.74 102.53 C 174.85 93.72 182.02 85.90 191.19 81.25 Z" />
<path fill="#000000" opacity="1.00" d=" M 361.12 83.25 C 364.13 81.56 367.71 82.34 371.00 82.18 C 376.19 82.25 382.44 81.52 386.32 85.77 C 381.95 86.37 378.13 83.62 373.83 83.64 C 370.27 83.72 366.28 82.89 363.17 85.12 C 358.95 87.79 354.87 90.74 351.43 94.38 C 349.09 96.72 346.98 99.78 343.40 100.14 C 343.67 98.71 344.04 97.25 345.29 96.34 C 350.43 91.83 355.02 86.52 361.12 83.25 Z" />
<path fill="#000000" opacity="1.00" d=" M 340.62 85.57 C 341.58 84.52 342.98 84.17 344.26 83.68 C 343.80 84.98 343.53 86.43 342.47 87.41 C 338.64 91.61 334.35 95.35 330.10 99.12 C 328.33 100.67 326.69 102.42 324.61 103.57 C 321.41 103.97 318.17 103.68 314.95 103.79 C 312.58 103.67 309.63 104.14 307.98 102.02 C 307.69 101.41 307.13 100.21 306.84 99.61 C 311.78 101.36 316.92 103.50 322.26 102.24 C 329.22 97.71 334.54 91.16 340.62 85.57 Z" />
<path fill="#000000" opacity="1.00" d=" M 370.39 131.52 C 373.89 131.43 377.38 130.22 380.88 130.97 C 386.96 132.11 393.57 132.42 398.81 136.03 C 399.22 137.23 399.42 138.49 399.68 139.73 C 396.80 138.64 394.24 136.91 391.49 135.56 C 386.84 133.84 381.85 133.40 376.98 132.68 C 373.33 133.06 369.51 133.28 366.14 134.87 C 361.47 136.91 356.42 137.84 351.65 139.57 C 346.87 141.09 342.37 143.43 337.48 144.58 C 332.33 144.95 327.08 144.88 322.00 143.83 C 319.03 143.31 315.99 143.62 313.00 143.26 C 305.05 142.09 296.96 142.27 288.97 142.99 C 286.33 143.24 283.61 143.21 281.08 144.14 C 278.68 144.79 276.26 146.00 273.72 145.68 C 273.64 145.62 273.49 145.48 273.41 145.41 C 273.49 145.48 273.64 145.62 273.72 145.68 L 274.01 146.07 C 272.16 147.77 269.56 148.04 267.33 149.00 C 264.71 150.08 262.03 151.05 259.19 151.34 C 259.40 150.20 259.61 149.05 259.83 147.90 C 265.87 147.75 270.68 143.29 276.61 142.57 C 280.61 142.23 284.33 140.33 288.37 140.33 C 292.50 140.30 296.64 140.40 300.75 139.83 C 305.87 139.16 310.83 140.89 315.88 141.35 C 321.30 141.72 326.60 143.11 332.03 143.33 C 336.00 143.62 339.44 141.32 343.05 140.09 C 348.27 138.29 353.31 135.97 358.68 134.65 C 362.47 133.25 366.28 131.63 370.39 131.52 Z" />
<path fill="#000000" opacity="1.00" d=" M 373.44 143.48 C 377.09 142.02 381.10 142.57 384.94 142.58 C 388.67 142.63 392.11 144.27 395.59 145.44 C 398.41 146.55 401.58 147.41 403.52 149.94 C 402.89 150.28 401.63 150.97 401.01 151.31 C 393.69 146.71 384.93 143.18 376.16 145.16 C 368.16 147.42 360.58 150.91 352.83 153.86 C 348.13 155.64 343.83 158.51 338.86 159.53 C 333.36 160.09 327.81 159.65 322.30 159.58 C 316.79 159.58 311.52 157.14 305.98 157.79 C 301.01 158.32 295.98 158.53 291.02 157.89 C 287.98 157.37 285.03 158.35 282.13 159.08 C 275.71 160.91 268.83 160.93 262.68 163.70 C 257.71 166.07 252.18 167.30 247.66 170.57 C 245.84 171.69 244.21 173.66 241.86 173.31 C 241.78 172.80 241.63 171.77 241.55 171.26 C 246.21 166.57 252.60 164.61 258.67 162.50 C 266.48 158.45 275.62 159.03 283.81 156.14 C 289.37 154.99 295.13 154.81 300.81 154.93 C 307.17 155.32 313.57 155.09 319.90 156.04 C 325.31 156.51 330.65 158.37 336.14 157.57 C 344.87 154.59 353.09 150.35 361.64 146.93 C 365.42 145.27 369.59 144.92 373.44 143.48 Z" />
<path fill="#000000" opacity="1.00" d=" M 382.98 153.94 C 388.45 152.87 394.43 153.00 399.47 155.61 C 402.26 157.64 405.85 159.56 406.39 163.32 C 404.84 162.76 403.34 162.04 402.08 160.95 C 398.79 158.28 395.15 155.83 390.97 154.84 C 386.64 154.23 382.48 156.09 378.44 157.38 C 370.97 159.70 363.95 163.30 357.37 167.50 C 354.31 169.38 351.83 172.21 348.32 173.29 C 348.77 171.90 349.19 170.37 350.49 169.52 C 353.26 167.28 356.17 165.21 359.07 163.13 C 362.96 160.39 367.47 158.79 371.73 156.75 C 375.23 154.97 379.19 154.71 382.98 153.94 Z" />
<path fill="#000000" opacity="1.00" d=" M 297.02 166.04 C 301.78 165.46 306.82 165.02 311.37 166.91 C 313.65 167.83 316.25 168.23 318.18 169.85 C 318.68 171.14 317.89 172.36 317.45 173.53 C 310.82 168.47 301.94 168.60 293.99 168.54 C 287.54 168.23 281.31 170.16 274.95 170.89 C 270.46 171.52 265.94 172.59 262.02 174.95 C 257.04 177.89 251.87 180.62 247.56 184.53 C 245.45 186.36 243.57 188.75 240.62 189.17 C 241.26 185.48 244.73 183.60 247.29 181.31 C 251.76 177.37 256.74 173.97 262.20 171.57 C 269.04 169.00 276.27 167.88 283.42 166.53 C 287.93 165.89 292.50 166.60 297.02 166.04 Z" />
<path fill="#000000" opacity="1.00" d=" M 359.14 177.23 C 365.61 172.49 373.37 169.87 381.16 168.26 C 387.15 167.67 393.37 168.58 398.86 171.11 C 403.26 173.51 407.00 176.93 410.47 180.52 C 412.27 182.40 414.40 184.22 414.95 186.90 C 409.59 187.08 404.84 183.96 399.54 183.65 C 396.26 183.56 393.12 182.63 389.95 181.86 C 380.85 182.63 374.04 189.15 366.27 193.15 C 363.88 194.52 361.01 194.56 358.36 194.20 C 354.90 193.75 353.12 190.08 352.64 187.00 C 352.85 182.84 356.06 179.66 359.14 177.23 M 359.91 180.89 C 358.51 182.36 356.57 183.78 356.47 185.99 C 356.27 187.83 356.69 190.66 359.04 190.79 C 363.71 191.91 367.37 188.37 371.12 186.25 C 375.17 183.96 379.22 181.51 383.67 180.05 C 388.03 178.62 392.51 180.46 396.93 180.41 C 400.64 180.21 403.91 182.13 407.42 182.95 C 407.32 182.53 407.12 181.69 407.02 181.26 C 400.74 173.59 390.07 169.04 380.21 171.41 C 372.78 172.68 365.34 175.48 359.91 180.89 Z" />
<path fill="#000000" opacity="1.00" d=" M 286.54 176.34 C 291.90 176.04 297.28 176.07 302.65 176.12 C 306.28 176.03 309.66 177.49 313.16 178.21 C 317.23 178.88 320.78 181.48 323.30 184.65 C 325.55 187.63 323.75 191.95 320.63 193.47 C 317.63 195.14 314.05 194.81 310.78 194.44 C 305.93 193.90 301.58 191.32 296.71 190.88 C 290.29 190.56 283.72 190.63 277.58 192.77 C 267.19 195.29 256.85 199.47 248.99 206.91 C 245.75 209.43 242.88 212.37 239.83 215.09 C 239.17 215.25 237.86 215.58 237.21 215.74 C 239.03 202.00 248.97 190.43 260.92 183.96 C 268.64 179.17 277.70 177.63 286.54 176.34 M 282.83 179.95 C 279.40 181.00 275.72 180.48 272.28 181.51 C 264.93 183.43 258.83 188.26 253.26 193.22 C 248.90 197.35 244.84 201.87 241.67 206.99 C 241.97 207.49 242.55 208.50 242.84 209.01 C 245.45 206.54 247.89 203.89 250.71 201.65 C 262.58 192.76 277.45 188.16 292.23 188.26 C 295.47 188.19 298.84 187.90 301.95 189.04 C 305.84 190.50 309.87 191.55 313.97 192.23 C 316.76 191.98 319.20 190.42 321.46 188.87 C 320.62 185.12 316.99 183.31 313.79 181.89 C 304.03 178.11 292.95 176.86 282.83 179.95 Z" />
<path fill="#000000" opacity="1.00" d=" M 186.37 194.34 C 187.73 192.84 189.52 192.00 191.53 191.79 C 191.46 193.30 190.64 194.48 189.41 195.30 C 184.33 199.21 179.17 203.09 174.59 207.60 C 169.73 212.52 167.61 219.25 165.49 225.65 C 164.87 225.71 163.62 225.83 163.00 225.89 C 163.71 221.66 165.42 217.69 166.98 213.71 C 168.87 208.78 172.76 205.07 176.58 201.59 C 179.60 198.84 183.48 197.25 186.37 194.34 Z" />
<path fill="#000000" opacity="1.00" d=" M 308.12 205.64 C 311.19 206.06 313.14 208.80 315.50 210.54 C 319.63 214.36 324.80 217.38 327.63 222.37 C 328.00 226.21 327.74 230.08 327.77 233.94 C 327.83 238.61 324.21 242.09 321.35 245.36 C 316.16 250.81 310.83 256.13 305.58 261.52 C 304.39 262.69 303.08 264.18 301.21 263.80 C 301.11 263.42 300.89 262.68 300.78 262.30 C 304.02 259.05 307.92 256.49 310.80 252.87 C 315.23 247.27 321.00 242.76 324.59 236.50 C 326.97 232.79 326.89 228.07 326.11 223.89 C 321.32 218.33 315.49 213.77 309.66 209.36 C 308.28 208.61 308.07 207.05 308.12 205.64 Z" />
<path fill="#000000" opacity="1.00" d=" M 383.43 207.48 C 388.38 206.93 393.39 207.24 398.37 207.14 C 393.94 209.77 388.30 207.26 383.78 209.73 C 376.42 213.11 371.17 219.43 364.70 224.04 C 364.18 222.50 364.31 220.79 365.74 219.78 C 371.09 215.02 376.42 209.66 383.43 207.48 Z" />
<path fill="#000000" opacity="1.00" d=" M 399.33 208.79 C 403.69 209.08 406.66 212.61 409.90 215.10 C 412.00 217.23 415.11 218.99 415.49 222.22 C 411.54 222.04 409.97 217.96 407.09 215.91 C 404.59 213.45 400.65 212.29 399.33 208.79 Z" />
<path fill="#000000" opacity="1.00" d=" M 352.83 223.14 C 353.67 219.67 353.29 215.87 355.11 212.70 C 356.80 212.14 357.66 213.57 358.53 214.72 C 357.33 218.06 355.87 221.40 355.53 224.96 C 356.00 228.24 357.64 231.19 359.12 234.11 C 362.76 240.94 366.13 247.92 369.05 255.09 C 370.97 259.59 372.71 264.32 376.01 268.04 C 380.13 272.61 384.30 277.56 385.76 283.69 C 382.78 283.68 381.78 280.71 380.24 278.73 C 376.91 273.67 372.42 269.39 369.91 263.81 C 364.83 252.56 359.34 241.51 353.74 230.52 C 352.51 228.26 352.25 225.63 352.83 223.14 Z" />
<path fill="#000000" opacity="1.00" d=" M 379.43 217.29 C 382.14 215.58 384.94 213.50 388.29 213.52 C 395.70 213.15 402.24 218.45 405.51 224.75 C 405.86 226.11 406.66 228.12 404.94 228.89 C 396.51 234.59 385.72 234.75 375.95 233.82 C 372.26 234.05 368.95 232.32 365.64 230.99 C 366.11 229.47 366.29 227.71 367.61 226.64 C 371.18 223.08 375.30 220.15 379.43 217.29 M 385.20 217.05 C 387.22 218.97 389.67 220.46 391.42 222.66 C 392.48 225.29 391.36 228.01 390.17 230.37 C 390.60 230.66 391.44 231.24 391.86 231.53 C 394.47 230.29 397.18 229.26 399.84 228.13 C 401.01 227.57 402.98 226.80 402.48 225.12 C 398.84 219.63 392.17 214.01 385.20 217.05 M 378.52 224.30 C 378.29 226.72 379.42 229.20 381.39 230.63 C 382.50 231.37 383.97 232.41 385.26 231.39 C 387.07 230.18 389.23 228.54 388.82 226.05 C 389.05 222.62 385.49 220.93 383.05 219.36 C 381.27 220.62 378.37 221.66 378.52 224.30 M 369.62 228.95 C 371.76 230.61 374.92 232.85 377.54 230.87 C 377.11 228.29 376.67 225.71 376.27 223.13 C 373.65 224.56 371.20 226.36 369.62 228.95 Z" />
<path fill="#000000" opacity="1.00" d=" M 181.56 215.35 C 182.14 215.30 183.31 215.20 183.89 215.15 C 183.58 219.79 180.81 223.80 180.49 228.46 C 180.04 228.44 179.12 228.40 178.66 228.38 C 178.37 227.78 177.78 226.56 177.49 225.96 C 178.82 222.41 180.43 218.97 181.56 215.35 Z" />
<path fill="#000000" opacity="1.00" d=" M 259.24 227.22 C 268.40 219.13 281.04 214.06 293.32 216.22 C 300.63 217.66 305.55 223.72 311.79 227.23 C 311.35 228.37 310.90 229.51 310.46 230.66 C 306.85 227.88 303.85 224.30 299.78 222.12 C 294.63 218.88 288.25 217.76 282.29 218.91 C 277.38 219.68 272.98 222.13 268.58 224.30 C 264.93 226.19 261.14 228.19 258.57 231.50 C 256.40 234.34 255.55 237.90 254.86 241.34 C 254.36 239.04 253.26 236.75 253.67 234.35 C 254.34 231.24 256.94 229.17 259.24 227.22 Z" />
<path fill="#000000" opacity="1.00" d=" M 285.51 222.01 C 287.59 221.64 289.77 221.71 291.72 222.61 C 297.44 224.60 302.22 228.62 305.98 233.29 C 306.85 234.80 304.93 236.03 303.88 236.78 C 299.35 239.54 294.35 242.06 288.96 242.35 C 284.65 242.71 280.35 243.74 276.02 242.98 C 271.81 242.25 266.89 243.05 263.47 239.96 C 267.47 231.11 275.35 222.86 285.51 222.01 M 286.68 224.87 C 288.19 226.94 289.89 228.89 291.03 231.19 C 291.20 233.82 290.24 236.40 290.05 239.02 C 293.43 238.52 296.66 237.26 299.63 235.60 C 301.36 234.82 301.32 232.16 299.94 231.07 C 296.69 228.12 292.73 226.14 288.93 224.04 C 288.37 224.25 287.25 224.66 286.68 224.87 M 281.24 226.96 C 278.87 227.53 276.90 229.53 276.46 231.95 C 276.45 235.33 278.80 238.74 282.12 239.66 C 284.81 239.55 287.19 237.31 288.10 234.87 C 289.77 230.83 285.41 225.84 281.24 226.96 M 268.09 239.35 C 270.39 239.62 272.71 239.70 275.03 239.55 C 274.86 236.78 274.71 234.00 274.18 231.27 C 270.59 232.22 269.07 236.15 268.09 239.35 Z" />
<path fill="#000000" opacity="1.00" d=" M 380.12 225.92 C 381.21 224.43 382.45 223.07 383.92 221.96 C 385.61 223.50 386.84 225.69 386.00 228.04 C 383.65 228.96 381.78 227.33 380.12 225.92 Z" />
<path fill="#000000" opacity="1.00" d=" M 131.12 228.91 C 132.53 226.43 135.26 222.88 138.42 224.89 C 136.77 227.14 134.52 228.92 133.03 231.28 C 130.93 236.21 131.05 241.75 131.91 246.94 C 132.63 251.24 135.57 254.62 137.39 258.45 C 137.43 259.42 137.42 260.39 137.35 261.36 C 135.44 259.64 133.75 257.63 132.91 255.16 C 131.19 250.57 128.98 245.94 128.64 241.01 C 129.48 236.99 129.58 232.75 131.12 228.91 Z" />
<path fill="#000000" opacity="1.00" d=" M 280.37 230.25 C 281.81 230.18 283.26 230.18 284.70 230.26 C 284.64 232.25 285.74 235.21 283.01 235.84 C 282.33 235.56 280.96 235.01 280.27 234.73 C 280.31 233.23 280.34 231.74 280.37 230.25 Z" />
<path fill="#000000" opacity="1.00" d=" M 402.17 246.78 C 406.73 246.37 409.37 241.15 414.15 241.47 C 413.78 242.53 413.70 243.85 412.65 244.50 C 409.69 246.69 406.43 248.72 402.81 249.56 C 398.18 249.90 393.53 249.37 388.91 249.89 C 387.00 250.34 383.94 249.17 384.64 246.77 C 390.48 246.77 396.33 247.23 402.17 246.78 Z" />
<path fill="#000000" opacity="1.00" d=" M 373.47 244.90 C 377.93 248.70 382.29 252.94 387.79 255.18 C 393.02 255.80 398.60 255.83 403.51 253.63 C 406.96 252.29 409.97 249.88 413.66 249.15 C 413.42 250.06 413.13 250.96 412.79 251.85 C 410.46 253.77 407.57 254.85 404.75 255.86 C 400.03 257.70 394.89 256.05 390.03 257.11 C 388.06 257.26 385.78 258.00 384.03 256.74 C 380.54 254.35 377.20 251.73 374.04 248.92 C 372.56 247.99 373.40 246.26 373.47 244.90 Z" />
<path fill="#000000" opacity="1.00" d=" M 262.67 247.03 C 265.18 247.00 267.33 248.29 269.56 249.23 C 274.00 250.31 279.29 249.07 283.07 252.03 C 282.16 253.02 281.00 253.81 279.59 253.59 C 274.10 253.49 268.17 252.69 263.73 249.19 C 263.46 248.65 262.94 247.57 262.67 247.03 Z" />
<path fill="#000000" opacity="1.00" d=" M 299.61 254.64 C 302.67 253.12 305.21 250.68 308.50 249.58 C 308.42 250.13 308.28 251.22 308.21 251.76 C 305.31 254.61 301.84 256.93 297.96 258.21 C 295.03 259.49 291.79 259.67 288.80 260.77 C 285.06 262.32 280.94 261.62 277.01 261.75 C 273.13 261.63 269.02 262.36 265.37 260.66 C 261.11 258.87 256.80 256.95 253.32 253.84 C 253.97 253.60 255.28 253.10 255.93 252.86 C 261.07 255.52 266.02 258.88 271.73 260.20 C 276.86 260.65 282.15 260.67 287.11 259.13 C 291.33 257.80 295.69 256.75 299.61 254.64 Z" />
<path fill="#000000" opacity="1.00" d=" M 158.02 254.43 C 158.54 254.86 159.56 255.72 160.07 256.14 C 161.28 259.46 160.92 263.12 161.49 266.58 C 162.40 268.72 164.25 270.33 165.19 272.47 C 166.11 277.31 165.11 282.21 165.20 287.08 C 165.29 292.41 170.81 294.93 173.47 298.94 C 171.21 301.69 169.08 306.65 164.69 305.26 C 161.45 303.11 161.56 299.02 162.09 295.63 C 159.80 295.08 157.31 295.60 155.09 294.84 C 153.06 292.49 151.84 289.57 150.46 286.82 C 148.01 281.33 145.12 276.04 142.92 270.44 C 142.21 269.06 143.07 267.61 143.37 266.26 C 147.35 268.11 147.30 273.06 149.09 276.51 C 151.15 280.57 152.79 284.84 154.94 288.85 C 156.78 292.53 161.89 291.81 164.25 294.91 C 164.75 297.14 165.03 299.41 165.50 301.65 C 166.10 301.70 167.28 301.79 167.87 301.84 C 168.43 300.38 169.55 298.56 168.30 297.13 C 166.52 295.40 163.59 294.59 162.93 291.95 C 161.68 288.88 163.38 285.86 164.29 282.98 C 164.64 280.67 164.53 278.31 164.23 276.01 C 162.75 271.99 158.97 269.19 157.97 264.96 C 157.63 261.47 157.40 257.90 158.02 254.43 Z" />
<path fill="#000000" opacity="1.00" d=" M 344.67 268.49 C 345.31 268.44 346.58 268.35 347.22 268.30 C 346.02 272.32 343.52 275.74 340.84 278.89 C 338.27 281.64 338.18 285.61 336.86 288.97 C 336.34 286.01 335.74 282.74 336.83 279.86 C 339.40 276.04 342.34 272.47 344.67 268.49 Z" />
<path fill="#000000" opacity="1.00" d=" M 316.12 290.25 C 318.25 286.58 321.28 282.66 325.78 282.09 C 326.29 284.37 324.02 285.48 322.68 286.77 C 319.46 289.31 317.46 293.15 316.49 297.06 C 316.99 301.87 320.26 306.68 325.08 307.94 C 327.71 307.32 330.20 306.13 332.92 305.83 C 338.89 305.01 344.86 306.65 350.34 308.92 C 354.32 311.08 357.76 314.49 362.37 315.29 C 364.05 315.47 365.77 315.52 367.44 315.25 C 371.27 313.65 373.81 310.22 376.07 306.90 C 378.83 302.79 382.49 299.21 384.35 294.54 C 385.24 291.45 385.07 288.19 385.06 285.01 C 385.52 285.03 386.43 285.06 386.89 285.08 C 386.67 289.71 388.11 294.99 385.14 299.02 C 380.98 305.14 377.18 311.77 371.61 316.71 C 365.90 317.08 360.17 316.84 354.49 316.20 C 354.28 318.34 354.02 320.48 353.73 322.62 C 353.10 322.68 351.84 322.80 351.21 322.87 C 351.45 320.17 351.91 317.50 352.52 314.86 C 351.43 313.56 350.41 312.01 348.66 311.58 C 343.93 310.13 339.24 307.18 334.11 308.33 C 329.74 309.35 325.15 310.80 320.67 309.45 C 318.04 307.67 316.06 305.06 314.24 302.50 C 313.77 298.37 313.89 293.90 316.12 290.25 Z" />
<path fill="#000000" opacity="1.00" d=" M 386.98 301.16 C 387.80 300.76 388.62 300.37 389.45 299.98 C 390.79 303.38 391.98 306.85 393.60 310.14 C 396.57 315.67 400.71 320.46 404.89 325.11 C 407.22 327.68 408.78 330.86 409.61 334.22 C 410.15 336.71 409.60 339.27 409.90 341.79 C 411.73 345.30 413.98 349.45 412.62 353.46 C 412.06 353.77 410.96 354.39 410.41 354.71 C 410.44 351.63 410.80 348.44 409.48 345.55 C 407.06 339.48 407.76 332.08 403.05 327.02 C 396.01 319.66 389.42 311.24 386.98 301.16 Z" />
<path fill="#000000" opacity="1.00" d=" M 305.69 308.28 C 307.83 306.01 310.05 303.55 313.19 302.76 C 311.55 308.79 304.20 310.88 302.22 316.77 C 300.76 320.69 299.20 324.57 297.37 328.34 C 294.70 333.72 293.10 339.54 291.27 345.25 C 289.92 350.19 289.83 355.36 289.67 360.45 C 289.38 360.12 288.78 359.45 288.48 359.11 C 287.52 352.12 288.97 345.12 290.58 338.34 C 295.27 328.19 298.09 316.82 305.69 308.28 Z" />
<path fill="#000000" opacity="1.00" d=" M 370.36 318.39 C 371.22 318.40 372.95 318.40 373.82 318.40 C 373.65 319.84 373.47 321.29 373.27 322.73 C 372.25 321.31 371.28 319.86 370.36 318.39 Z" />
<path fill="#000000" opacity="1.00" d=" M 353.05 329.52 C 361.23 327.99 369.97 327.42 377.98 330.15 C 388.27 332.87 397.13 341.13 399.67 351.61 C 395.18 351.99 394.90 346.84 392.75 344.16 C 386.51 335.45 375.24 332.17 364.96 332.57 C 361.60 332.86 358.26 333.26 354.89 333.43 C 349.12 333.79 343.65 335.81 338.33 337.91 C 325.94 342.73 315.17 352.31 310.08 364.71 C 308.32 364.44 307.28 363.02 308.23 361.37 C 310.91 354.05 316.74 348.55 322.21 343.25 C 331.17 336.30 341.86 331.46 353.05 329.52 Z" />
<path fill="#000000" opacity="1.00" d=" M 366.81 339.23 C 370.74 338.51 374.78 338.21 378.75 338.80 C 382.93 339.61 386.50 342.51 388.67 346.11 C 392.78 352.60 396.72 359.34 402.33 364.68 C 405.08 367.36 408.81 368.59 412.33 369.87 C 412.57 370.73 412.80 371.59 413.05 372.46 C 408.81 372.84 405.26 370.31 402.07 367.87 C 394.55 361.80 390.95 352.48 384.59 345.40 C 382.84 343.40 380.25 342.54 377.84 341.65 C 378.72 341.48 380.50 341.12 381.38 340.95 C 374.17 340.09 367.08 342.10 360.00 343.13 C 354.74 343.58 349.45 342.99 344.19 343.47 C 339.87 343.69 336.51 346.92 332.30 347.59 C 331.99 347.16 331.36 346.30 331.05 345.87 C 335.72 342.51 341.42 341.01 346.99 339.94 C 353.57 339.10 360.25 340.32 366.81 339.23 Z" />
<path fill="#000000" opacity="1.00" d=" M 382.19 351.37 C 383.79 351.70 385.76 351.61 386.82 353.13 C 390.13 356.91 392.60 361.32 395.36 365.51 C 397.46 368.68 399.46 372.20 402.93 374.07 C 405.19 375.33 407.74 376.69 407.81 379.63 C 403.61 379.29 400.48 376.17 397.61 373.40 C 393.77 369.67 391.97 364.50 388.96 360.18 C 386.90 357.09 383.65 354.88 382.19 351.37 Z" />
<path fill="#000000" opacity="1.00" d=" M 372.49 357.46 C 373.91 356.67 375.24 357.85 376.42 358.53 C 379.89 360.85 383.09 363.67 385.52 367.08 C 385.45 368.64 384.73 369.16 383.35 368.61 C 380.35 365.44 377.61 361.97 373.97 359.47 C 371.60 360.93 369.46 362.88 366.81 363.80 C 364.62 363.96 362.58 362.98 360.50 362.50 C 358.29 361.82 356.00 362.61 353.79 362.83 C 353.99 362.22 354.38 361.01 354.57 360.40 C 358.23 359.59 361.96 360.27 365.22 362.08 C 367.84 360.85 369.99 358.87 372.49 357.46 Z" />
<path fill="#000000" opacity="1.00" d=" M 332.77 365.68 C 333.63 364.18 335.29 363.73 336.86 363.35 C 336.50 365.25 335.89 367.15 334.42 368.50 C 328.81 374.50 322.89 380.20 317.05 385.98 C 311.89 391.27 305.21 394.62 299.02 398.52 C 298.46 398.17 297.34 397.48 296.79 397.14 C 296.74 396.78 296.64 396.08 296.59 395.73 C 301.68 393.90 306.03 390.64 310.50 387.70 C 313.90 385.44 316.82 382.57 319.68 379.67 C 324.09 375.05 328.99 370.87 332.77 365.68 Z" />
<path fill="#000000" opacity="1.00" d=" M 498.03 565.60 C 502.10 564.28 505.93 566.51 509.67 567.83 C 514.78 569.57 519.67 571.88 524.69 573.86 C 524.66 574.81 524.60 576.72 524.57 577.68 C 518.77 576.04 513.22 573.66 507.46 571.92 C 504.03 570.39 499.37 569.66 498.03 565.60 Z" />
<path fill="#000000" opacity="1.00" d=" M 348.13 568.01 C 348.85 568.14 350.30 568.40 351.02 568.53 C 354.05 571.98 356.52 576.06 357.67 580.55 C 355.97 580.53 354.16 580.16 353.44 578.44 C 351.50 575.06 348.67 571.99 348.13 568.01 Z" />
</g>
<g id="#ffffffff">
<path fill="#ffffff" opacity="1.00" d=" M 0.18 0.00 L 800.00 0.00 L 800.00 591.00 L 0.00 591.00 L 0.00 0.18 C 0.05 0.14 0.14 0.05 0.18 0.00 M 268.99 7.84 C 253.26 9.19 237.45 10.65 222.10 14.56 C 216.89 15.79 211.65 17.30 207.04 20.10 C 203.69 22.17 200.09 23.78 196.72 25.81 C 191.61 29.48 185.79 32.02 180.63 35.63 C 174.04 40.24 167.45 45.02 162.02 51.01 C 157.54 56.15 153.75 61.88 150.80 68.03 C 147.05 74.91 145.49 82.66 142.65 89.91 C 140.79 94.51 139.76 99.39 137.74 103.93 C 135.97 108.60 133.56 113.00 132.02 117.76 C 130.57 121.88 128.60 125.85 127.84 130.19 C 126.27 140.42 125.69 150.75 124.76 161.05 C 124.60 177.03 124.87 193.02 124.89 209.00 C 124.90 212.62 125.70 216.24 125.23 219.85 C 124.43 224.27 122.71 228.52 122.58 233.05 C 122.07 240.07 123.37 247.04 124.67 253.91 C 125.13 256.82 126.93 259.23 128.35 261.73 C 131.42 266.83 133.25 272.58 134.56 278.37 C 135.65 285.04 136.38 291.80 138.07 298.37 C 139.86 303.86 143.48 308.45 146.59 313.24 C 149.05 316.83 151.14 320.69 153.97 324.02 C 156.54 327.07 160.27 328.66 163.76 330.38 C 165.12 331.14 166.81 331.74 167.46 333.30 C 171.04 340.69 172.07 349.24 176.87 356.06 C 181.51 362.32 189.10 365.02 195.80 368.44 C 200.17 370.75 201.06 376.05 202.35 380.36 C 205.49 390.55 207.57 401.02 210.04 411.38 C 210.61 413.05 209.36 414.53 208.72 415.97 C 205.52 421.39 203.60 427.59 203.30 433.89 C 203.01 438.58 202.13 443.23 202.23 447.96 C 202.34 452.91 200.72 457.82 197.68 461.73 C 194.75 465.47 191.97 469.34 188.86 472.95 C 182.19 480.25 174.68 486.73 167.74 493.76 C 158.13 503.17 147.07 510.98 135.44 517.66 C 128.18 522.96 119.74 526.24 112.31 531.26 C 98.72 538.92 85.11 546.54 71.63 554.39 C 55.97 562.75 39.89 570.31 23.65 577.46 C 21.72 578.00 20.91 579.64 21.15 581.58 C 25.72 581.32 29.54 578.64 33.63 576.90 C 48.41 570.30 62.97 563.19 77.17 555.40 C 90.46 547.76 103.64 539.89 117.36 533.03 C 123.17 530.05 128.55 526.32 134.15 522.99 C 135.53 522.06 137.19 521.78 138.80 521.59 C 137.88 525.00 135.79 527.89 134.29 531.06 C 129.22 541.26 125.14 551.93 119.94 562.07 C 118.26 565.88 115.61 569.55 115.61 573.86 C 119.69 576.10 123.96 577.99 128.11 580.11 C 129.63 580.92 131.33 581.22 133.03 581.36 C 132.97 580.60 132.84 579.08 132.78 578.33 C 128.63 575.92 124.04 574.42 119.86 572.11 C 119.05 570.37 120.86 568.81 121.39 567.24 C 128.20 553.30 134.83 539.27 141.42 525.23 C 143.19 521.58 143.98 517.06 147.60 514.69 C 153.05 510.80 158.74 507.19 163.67 502.63 C 170.08 496.72 176.28 490.58 182.61 484.57 C 187.85 479.45 193.13 474.30 197.37 468.29 C 198.41 466.78 199.59 465.36 200.95 464.13 C 201.43 466.05 201.48 468.05 201.36 470.03 C 201.11 474.35 201.71 478.64 201.72 482.96 C 201.79 489.06 203.41 495.02 203.58 501.10 C 203.77 504.70 202.06 507.99 200.94 511.31 C 194.92 526.89 189.89 543.00 181.26 557.42 C 177.32 565.34 170.73 571.89 168.07 580.42 C 172.28 581.59 173.47 576.87 175.39 574.27 C 181.75 563.72 188.39 553.24 193.11 541.82 C 197.38 531.28 201.27 520.60 205.07 509.90 C 207.48 518.93 208.79 528.35 212.93 536.85 C 216.20 543.25 217.88 550.30 220.94 556.80 C 223.98 564.02 227.41 571.07 230.54 578.26 C 231.13 580.25 232.95 580.87 234.89 580.60 C 234.85 577.55 233.08 575.01 231.83 572.36 C 229.85 568.36 228.34 564.17 226.68 560.03 C 225.14 556.16 222.81 552.67 221.06 548.90 C 221.27 548.35 221.68 547.25 221.89 546.70 C 224.70 549.36 227.17 552.36 230.03 554.98 C 235.01 559.36 240.19 563.49 245.36 567.66 C 250.92 572.59 257.09 576.77 263.24 580.92 C 264.54 581.89 266.82 582.64 267.93 581.00 C 270.68 576.99 272.95 572.66 275.88 568.76 C 278.97 564.68 281.51 560.18 284.86 556.30 C 293.97 563.51 303.34 570.74 314.24 575.03 C 318.75 576.63 323.35 578.00 327.88 579.56 C 331.36 580.69 334.90 582.12 338.64 581.79 C 340.12 577.58 341.57 573.10 344.74 569.83 C 346.73 568.49 348.82 567.31 350.80 565.95 C 352.99 564.28 355.88 564.98 358.43 564.82 C 360.37 569.06 358.16 573.97 359.92 578.27 C 360.44 578.27 361.49 578.25 362.02 578.24 C 363.09 574.12 362.38 569.83 362.70 565.64 C 366.50 565.26 370.23 566.65 373.40 568.65 C 376.43 572.23 377.87 576.92 381.08 580.40 C 382.00 580.43 383.83 580.51 384.75 580.55 C 383.68 577.22 381.18 574.69 379.53 571.68 C 378.33 569.73 377.50 567.55 376.04 565.79 C 372.36 563.84 368.31 562.26 364.09 562.29 C 359.89 562.27 355.69 561.84 351.50 562.17 C 347.31 562.40 343.97 565.38 341.36 568.40 C 338.87 571.16 337.83 574.82 335.86 577.91 C 335.63 578.01 335.17 578.23 334.94 578.33 C 325.27 574.52 314.82 572.50 305.88 566.99 C 299.53 563.13 293.61 558.62 287.61 554.25 C 286.86 551.88 289.37 550.22 290.54 548.50 C 298.67 538.40 307.87 529.21 317.67 520.74 C 322.21 517.20 326.99 513.25 333.01 512.83 C 335.42 512.98 337.81 513.43 340.22 513.71 C 341.38 510.90 343.21 508.40 345.54 506.45 C 350.37 502.30 354.40 497.28 357.71 491.86 C 362.17 484.66 366.69 477.48 371.86 470.76 C 376.71 464.55 381.09 458.00 385.69 451.60 C 389.29 446.67 391.36 440.82 395.02 435.92 C 398.58 430.61 402.88 425.79 405.90 420.12 C 406.85 418.54 407.55 416.73 408.96 415.48 C 410.57 415.37 411.59 416.90 412.00 418.27 C 418.38 433.61 423.88 449.33 428.19 465.39 C 429.34 469.57 431.54 473.52 431.51 477.96 C 433.59 497.42 437.55 516.60 440.62 535.90 C 440.65 540.82 443.92 545.52 442.36 550.43 C 429.48 543.30 416.19 536.92 403.62 529.24 C 389.00 521.70 373.08 517.03 357.10 513.35 C 352.77 512.23 348.36 511.09 343.85 511.18 C 342.28 511.45 341.49 512.41 341.48 514.07 C 345.69 514.64 349.94 515.13 354.03 516.32 C 365.11 518.72 376.05 521.80 386.74 525.58 C 388.74 526.30 390.62 527.32 392.48 528.36 C 389.28 538.29 384.40 547.54 379.43 556.67 C 377.93 559.54 376.07 562.39 376.01 565.75 C 376.73 565.61 378.15 565.33 378.86 565.19 C 380.68 562.43 382.05 559.42 383.65 556.53 C 388.03 548.17 392.93 539.91 394.94 530.59 C 395.38 528.60 397.54 529.82 398.64 530.47 C 412.90 538.82 427.34 546.90 442.31 553.90 C 443.52 554.42 443.60 555.92 443.86 557.03 C 444.56 563.01 443.84 569.03 443.36 574.99 C 443.32 576.72 443.00 578.57 443.77 580.22 C 444.44 580.28 445.79 580.40 446.46 580.46 C 447.36 570.33 446.70 560.11 446.83 549.95 C 447.01 545.17 445.41 540.60 444.67 535.93 C 442.81 524.55 440.84 513.18 438.85 501.82 C 437.80 493.50 436.33 485.23 434.69 477.02 C 436.51 477.54 438.35 478.11 439.91 479.24 C 445.04 482.81 450.51 485.86 455.64 489.43 C 460.66 492.89 466.15 495.58 471.29 498.85 C 480.05 504.43 489.20 509.37 497.97 514.95 C 513.42 523.36 529.33 530.87 545.07 538.70 C 553.46 542.91 562.11 546.61 570.40 551.02 C 570.19 555.76 568.24 560.19 567.22 564.79 C 565.99 570.06 564.00 575.19 563.36 580.58 C 564.91 580.83 566.48 580.81 567.97 580.25 C 569.11 572.97 571.74 566.05 573.36 558.88 C 574.06 555.45 575.70 552.20 575.59 548.64 C 560.00 541.49 544.85 533.39 529.17 526.43 C 529.06 524.81 528.96 523.07 529.92 521.66 C 533.31 515.83 537.45 510.48 540.79 504.62 C 542.93 500.80 545.47 497.23 547.92 493.61 C 546.24 491.15 543.73 489.48 541.45 487.65 C 537.27 484.48 533.20 481.15 529.44 477.48 C 524.55 472.67 518.80 468.87 513.88 464.10 C 510.24 460.58 506.01 457.79 502.02 454.70 C 503.46 453.64 505.21 453.14 506.99 453.55 C 522.27 455.87 537.73 456.37 553.04 458.45 C 561.74 458.85 570.35 460.22 578.94 461.61 C 592.52 464.87 606.29 467.29 619.79 470.90 C 644.53 476.22 669.26 481.58 694.10 486.43 C 701.81 487.54 709.61 487.74 717.39 487.71 C 718.20 494.78 717.95 501.99 716.62 508.99 C 715.68 514.10 715.92 519.36 714.56 524.41 C 712.62 533.55 711.78 542.87 710.73 552.14 C 709.75 561.44 707.69 570.61 707.08 579.96 C 707.89 580.16 709.52 580.56 710.34 580.76 C 711.31 571.88 713.19 563.13 713.88 554.23 C 714.37 550.10 715.58 546.10 716.15 541.99 C 716.59 538.85 716.43 535.66 717.11 532.56 C 718.61 525.43 719.45 518.19 720.63 511.01 C 720.97 503.53 721.57 496.07 721.76 488.59 C 727.52 489.44 732.94 492.98 735.89 498.05 C 738.28 501.79 740.60 505.60 742.66 509.54 C 745.17 514.44 748.42 518.90 751.04 523.74 C 757.46 535.46 763.97 547.16 769.43 559.37 C 772.48 566.15 776.49 572.44 779.99 579.00 C 780.76 580.74 782.99 580.29 784.51 580.27 C 781.57 573.06 776.84 566.76 773.56 559.71 C 771.21 554.45 768.60 549.31 766.25 544.06 C 762.52 536.00 757.82 528.44 753.38 520.77 C 748.98 512.79 744.34 504.95 739.85 497.03 C 736.83 491.58 731.51 487.51 725.44 486.09 C 715.80 483.24 705.60 484.52 695.81 482.62 C 657.15 475.12 618.67 466.68 580.20 458.29 C 573.81 457.14 567.39 456.18 560.93 455.62 C 556.55 455.30 552.34 453.94 547.96 453.69 C 543.92 453.47 539.91 452.91 535.88 452.72 C 528.58 452.16 521.35 450.65 514.01 450.77 C 510.17 450.79 506.39 450.14 502.67 449.28 C 499.34 448.44 495.88 448.59 492.50 448.11 C 471.67 444.44 452.23 435.43 434.10 424.81 C 427.13 420.81 420.92 415.61 413.74 411.97 C 412.15 411.33 411.88 409.09 412.89 407.84 C 418.00 400.39 422.81 392.69 426.79 384.56 C 431.13 375.88 432.86 366.23 434.45 356.74 C 435.88 350.08 436.11 343.24 437.25 336.53 C 437.98 331.98 437.97 327.35 437.95 322.76 C 437.91 318.14 438.09 313.49 437.46 308.90 C 436.63 303.57 436.75 298.15 435.98 292.81 C 435.72 284.46 433.82 276.27 433.81 267.91 C 432.49 252.54 434.69 236.98 431.98 221.71 C 431.50 219.25 431.68 216.68 430.88 214.29 C 428.70 208.42 430.49 202.07 431.64 196.17 C 434.61 187.41 436.80 178.42 439.12 169.47 C 441.28 159.39 440.71 148.90 438.73 138.84 C 438.24 134.42 436.29 130.32 435.91 125.88 C 435.61 122.25 435.54 118.60 435.10 114.98 C 434.36 109.96 435.90 104.98 435.53 99.96 C 435.01 95.25 432.27 91.24 429.60 87.48 C 426.06 82.70 422.76 77.72 418.78 73.29 C 411.00 63.76 401.65 55.67 392.16 47.91 C 383.31 41.81 374.98 35.01 366.74 28.13 C 363.19 25.00 359.79 21.54 355.38 19.63 C 342.47 13.68 328.34 11.05 314.31 9.37 C 308.50 8.27 302.56 8.04 296.67 8.37 C 298.83 7.80 301.03 7.34 303.23 6.92 C 291.86 7.87 280.40 8.51 268.99 7.84 M 498.03 565.60 C 499.37 569.66 504.03 570.39 507.46 571.92 C 513.22 573.66 518.77 576.04 524.57 577.68 C 524.60 576.72 524.66 574.81 524.69 573.86 C 519.67 571.88 514.78 569.57 509.67 567.83 C 505.93 566.51 502.10 564.28 498.03 565.60 M 348.13 568.01 C 348.67 571.99 351.50 575.06 353.44 578.44 C 354.16 580.16 355.97 580.53 357.67 580.55 C 356.52 576.06 354.05 571.98 351.02 568.53 C 350.30 568.40 348.85 568.14 348.13 568.01 Z" />
<path fill="#ffffff" opacity="1.00" d=" M 268.91 12.47 C 278.99 12.07 289.09 12.13 299.18 12.28 C 310.02 12.44 320.74 14.16 331.38 16.08 C 339.68 17.96 348.06 20.10 355.57 24.22 C 359.83 26.50 363.09 30.12 366.69 33.26 C 373.59 39.09 380.92 44.39 388.08 49.91 C 391.60 52.60 395.72 54.61 398.47 58.20 C 396.18 58.38 393.80 58.50 391.92 60.00 C 394.64 60.59 397.42 60.42 400.10 59.71 C 400.78 61.39 401.66 63.04 403.41 63.80 C 409.96 67.32 414.06 73.73 419.06 78.98 C 421.20 81.08 421.31 84.49 423.66 86.41 C 427.00 89.17 429.21 92.98 431.01 96.86 C 433.04 100.98 431.75 105.70 432.50 110.09 C 432.51 116.66 432.43 123.24 433.31 129.77 C 431.25 130.98 428.80 130.35 426.90 129.15 C 420.93 125.65 415.40 121.12 408.63 119.21 C 408.82 122.02 411.62 122.98 413.64 124.30 C 417.02 126.22 420.23 128.44 423.70 130.21 C 426.11 131.51 428.90 131.64 431.48 132.44 C 433.75 133.48 434.80 136.09 434.93 138.47 C 426.90 137.09 420.22 132.13 413.09 128.57 C 412.21 129.23 410.77 131.38 412.55 131.85 C 419.30 134.14 425.19 138.23 431.70 141.05 C 433.29 141.96 435.44 142.72 436.04 144.65 C 437.62 151.25 437.83 158.22 436.36 164.87 C 434.75 174.53 431.45 183.78 428.77 193.17 C 427.77 196.47 427.48 199.92 426.48 203.22 C 425.17 203.89 423.87 204.58 422.55 205.22 C 423.08 209.08 425.57 212.23 426.65 215.92 C 430.05 225.90 430.37 236.55 430.68 246.99 C 430.61 259.23 430.30 271.52 431.62 283.71 C 433.03 292.11 433.09 300.65 434.19 309.09 C 434.26 314.63 435.62 320.14 434.82 325.68 C 433.28 341.81 431.37 357.99 427.22 373.70 C 423.62 385.23 416.75 395.32 410.34 405.43 C 406.86 411.90 402.40 417.93 396.80 422.72 C 391.90 426.59 386.55 429.89 381.05 432.83 C 371.23 437.91 359.93 442.07 348.79 439.28 C 344.67 438.23 340.36 438.31 336.24 437.27 C 328.46 435.19 320.60 433.31 312.99 430.63 C 304.59 427.98 296.79 423.81 288.91 419.93 C 281.67 416.36 274.59 412.46 267.72 408.21 C 266.17 407.22 264.46 406.53 262.64 406.29 C 262.74 407.16 262.95 408.90 263.05 409.77 C 268.62 413.41 274.71 416.20 280.41 419.64 C 291.00 425.15 301.62 430.76 313.02 434.42 C 323.77 437.96 334.76 440.77 345.92 442.64 C 352.12 443.46 358.51 444.45 364.70 442.97 C 370.98 441.37 377.02 438.91 382.80 436.02 C 387.43 433.82 391.11 430.13 395.73 427.92 C 393.99 432.82 390.07 436.43 387.76 441.02 C 386.21 443.98 384.60 446.91 382.66 449.65 C 375.16 460.46 367.15 470.92 359.64 481.72 C 354.69 488.99 350.50 496.93 344.03 503.00 C 341.51 505.41 338.90 507.96 335.59 509.21 C 331.10 509.81 326.23 510.03 322.22 507.57 C 311.32 502.86 300.93 497.10 290.59 491.29 C 274.62 481.63 257.23 474.61 241.31 464.87 C 235.48 461.44 229.43 458.23 224.35 453.71 C 221.28 451.08 220.18 446.93 219.46 443.11 C 218.76 437.35 217.15 431.75 216.60 425.97 C 216.23 421.28 214.84 416.77 214.20 412.12 C 212.77 403.43 210.05 395.03 207.78 386.53 C 206.63 382.65 205.83 378.67 204.45 374.87 C 203.04 370.70 200.42 367.07 198.94 362.93 C 195.46 353.83 192.40 344.58 189.27 335.36 C 187.38 330.33 185.08 325.38 181.88 321.04 C 180.21 318.63 177.40 317.44 174.67 316.70 C 171.14 316.06 167.71 317.72 164.18 317.55 C 158.85 317.95 153.85 313.99 152.32 309.00 C 150.87 304.39 151.28 299.36 149.40 294.87 C 147.77 290.74 144.56 287.56 142.32 283.79 C 138.67 277.88 136.70 271.18 134.44 264.67 C 131.94 259.65 128.14 255.08 127.39 249.34 C 126.44 240.38 125.35 230.70 129.22 222.27 C 133.53 219.90 138.40 218.67 143.24 217.91 C 145.98 217.52 149.31 218.57 150.47 221.30 C 153.63 227.65 155.80 234.98 161.63 239.51 C 165.54 242.23 170.54 241.77 175.05 241.50 C 180.85 241.09 186.92 242.51 192.51 240.40 C 195.66 238.15 194.91 233.90 194.92 230.56 C 194.87 224.98 193.26 219.55 193.26 213.97 C 193.12 210.27 195.44 207.14 197.20 204.08 C 200.71 198.11 206.14 193.65 210.12 188.03 C 212.90 184.17 215.79 180.40 218.69 176.62 C 220.92 173.65 223.34 170.62 224.22 166.93 C 225.44 162.35 224.39 157.62 224.24 152.98 C 223.31 141.80 221.19 130.40 223.73 119.28 C 225.28 112.21 228.75 105.13 234.83 100.91 C 243.71 94.64 255.46 92.73 265.92 95.50 C 281.51 101.05 296.47 108.38 312.44 112.89 C 321.32 115.99 330.96 115.64 340.17 114.51 C 349.15 112.72 357.97 110.27 366.95 108.46 C 370.91 107.58 374.93 106.88 379.00 106.83 C 382.96 106.67 386.22 109.47 388.73 112.22 C 394.95 119.45 399.34 128.05 403.05 136.77 C 406.11 145.97 408.25 155.53 412.54 164.27 C 413.90 167.11 416.06 169.51 417.24 172.44 C 418.61 177.18 418.02 182.19 418.63 187.04 C 419.28 192.79 418.44 198.86 420.98 204.25 C 421.67 204.30 423.04 204.40 423.72 204.45 C 423.36 199.26 421.81 194.19 421.84 188.96 C 421.92 183.52 421.17 178.13 420.76 172.73 C 420.71 169.74 418.54 167.47 417.16 164.99 C 413.03 157.90 410.73 149.96 408.40 142.15 C 406.52 134.11 402.54 126.80 398.44 119.72 C 395.31 114.65 392.07 109.46 387.35 105.72 C 384.73 103.62 381.24 103.25 378.03 102.91 C 365.94 103.79 354.42 107.78 342.55 109.91 C 336.75 111.02 330.85 112.30 324.91 111.62 C 316.25 110.56 308.04 107.47 299.88 104.56 C 289.50 101.45 279.75 96.67 269.59 93.00 C 265.90 91.59 261.91 91.42 258.01 91.47 C 253.36 91.55 248.61 91.25 244.09 92.55 C 237.66 94.52 231.40 97.89 227.22 103.31 C 222.53 109.19 220.09 116.61 219.66 124.07 C 219.31 132.63 219.56 141.23 220.59 149.74 C 221.55 154.65 221.59 159.69 221.30 164.67 C 219.47 171.26 214.28 176.08 210.49 181.56 C 206.76 187.32 201.82 192.08 197.31 197.20 C 193.92 202.29 189.99 207.65 189.64 213.97 C 190.03 220.62 191.41 227.18 192.04 233.81 C 192.06 235.88 190.46 237.73 188.45 238.14 C 185.31 238.75 182.10 238.94 178.92 239.09 C 177.05 239.13 175.54 237.91 173.80 237.45 C 170.70 237.04 167.54 237.24 164.46 236.69 C 159.58 233.06 157.43 227.02 155.04 221.65 C 153.95 218.98 151.85 216.96 149.88 214.94 C 151.24 208.36 155.00 202.43 159.83 197.83 C 165.24 192.59 170.02 186.49 176.65 182.69 C 182.96 178.91 189.48 175.47 196.25 172.58 C 196.90 170.87 194.63 169.56 193.26 170.32 C 186.14 174.04 178.95 177.69 172.34 182.30 C 166.97 185.45 163.02 190.33 158.63 194.63 C 155.85 197.46 152.98 200.29 150.96 203.73 C 149.34 206.71 148.19 209.92 147.05 213.10 L 146.14 213.72 C 142.98 213.97 139.72 214.03 136.71 215.16 C 134.57 215.89 132.44 217.02 130.09 216.67 C 130.71 209.70 128.50 202.07 132.33 195.72 C 136.12 189.00 139.13 181.87 143.03 175.20 C 148.48 166.82 155.01 159.09 162.81 152.79 C 167.30 149.03 172.92 147.06 178.48 145.49 C 187.40 142.97 197.00 147.56 205.71 144.03 C 204.35 140.91 200.71 141.79 198.01 141.92 C 193.35 142.51 188.64 142.45 183.96 142.92 C 181.45 143.26 178.83 142.40 176.41 143.37 C 172.94 144.60 169.42 145.68 166.06 147.19 C 161.24 149.33 157.81 153.51 154.09 157.10 C 150.02 161.05 146.55 165.54 143.02 169.96 C 137.81 176.32 135.39 184.33 131.71 191.55 C 131.25 191.74 130.32 192.12 129.86 192.31 C 128.93 188.98 129.14 185.47 129.51 182.08 C 130.42 177.26 133.87 173.53 136.35 169.46 C 139.62 164.19 143.76 159.49 148.39 155.36 C 151.17 152.85 154.27 150.66 156.70 147.78 C 161.73 141.79 167.23 136.18 173.12 131.04 C 176.82 128.09 180.23 124.59 184.65 122.72 C 187.01 121.81 189.50 121.20 192.01 120.89 C 194.20 121.22 196.37 121.74 198.42 122.59 C 201.30 123.82 202.82 126.97 205.79 128.04 C 205.79 127.30 205.80 125.82 205.80 125.08 C 204.00 122.46 200.97 120.93 198.10 119.75 C 194.38 119.18 190.55 119.27 186.81 119.62 C 178.79 121.52 172.65 127.38 166.69 132.71 C 160.62 137.97 156.03 144.64 150.14 150.07 C 143.19 156.14 136.57 162.84 132.13 171.02 C 130.96 172.69 129.92 175.23 127.55 175.28 C 128.28 171.62 128.84 167.92 128.71 164.18 C 128.58 160.15 129.86 156.29 130.72 152.41 C 131.62 149.01 129.17 145.79 129.91 142.39 C 131.24 135.12 132.03 127.63 135.07 120.82 C 137.91 114.17 139.33 106.80 143.85 100.97 C 143.68 99.57 142.85 98.05 143.64 96.70 C 147.21 89.63 148.81 81.79 151.71 74.46 C 154.11 69.41 159.51 66.98 163.71 63.69 C 168.11 60.24 173.72 59.11 178.53 56.41 C 182.71 54.09 187.11 52.20 191.43 50.17 C 196.59 47.76 202.16 46.39 207.29 43.92 C 212.39 41.63 216.73 37.64 222.29 36.45 C 228.50 35.97 234.73 35.76 240.96 35.61 C 245.00 35.39 249.42 34.59 253.08 36.83 C 259.10 40.28 261.93 46.88 265.71 52.35 C 266.11 52.55 266.91 52.95 267.30 53.15 C 267.07 49.09 265.38 45.25 262.76 42.17 C 259.71 38.55 256.36 34.81 251.88 32.98 C 246.27 33.44 240.63 33.62 235.01 33.25 C 226.86 32.15 218.22 33.91 211.27 38.36 C 205.33 41.61 199.13 44.40 192.71 46.58 C 187.23 48.81 181.98 51.53 176.57 53.91 C 171.19 56.57 165.37 58.72 161.03 63.03 C 159.58 64.16 157.93 66.33 155.87 65.23 C 158.12 60.90 161.50 57.35 164.84 53.86 C 174.08 43.62 186.17 36.61 198.03 29.85 C 204.58 26.59 210.66 22.20 217.80 20.29 C 228.26 17.19 239.06 15.49 249.87 14.22 C 256.15 13.01 262.57 13.21 268.91 12.47 M 336.26 45.22 C 327.05 46.12 318.01 48.21 309.13 50.74 C 304.67 51.77 300.50 54.05 297.11 57.11 C 293.82 60.66 291.91 65.20 289.36 69.27 C 287.91 71.48 287.16 74.03 286.46 76.55 C 287.63 76.39 288.79 76.24 289.97 76.09 C 291.76 71.11 294.02 66.28 296.78 61.76 C 300.01 56.31 306.49 53.73 312.56 53.26 C 317.50 51.82 322.35 50.07 327.30 48.66 C 334.84 47.75 342.47 48.68 350.03 47.93 C 353.22 47.50 356.31 48.66 359.30 49.63 C 366.71 52.22 374.36 53.99 382.04 55.54 C 385.87 55.92 389.34 57.96 393.22 57.98 C 392.62 56.87 391.68 56.06 390.51 55.62 C 380.28 51.00 369.02 49.63 358.40 46.24 C 351.13 44.88 343.61 43.87 336.26 45.22 M 206.02 51.04 C 199.40 53.29 195.56 59.68 189.48 62.84 C 182.71 66.34 176.41 70.72 170.60 75.64 C 166.21 79.28 163.80 84.82 158.96 87.98 C 154.63 91.54 148.92 94.19 146.67 99.64 C 150.29 98.20 153.25 95.63 156.32 93.32 C 158.75 91.45 161.28 89.68 163.50 87.55 C 166.97 84.32 169.30 80.04 173.08 77.12 C 177.81 73.42 182.60 69.70 188.01 67.03 C 194.66 63.65 199.58 57.76 205.95 53.95 C 209.11 52.41 212.34 50.42 215.99 50.67 C 220.33 50.70 224.67 50.65 229.00 50.66 C 233.22 50.62 237.25 52.00 241.39 52.55 C 243.48 52.97 245.80 53.02 247.55 54.38 C 251.42 57.19 254.32 61.08 257.13 64.89 C 260.18 68.94 261.40 73.95 263.03 78.66 C 263.62 78.20 264.81 77.27 265.40 76.81 C 262.78 66.85 257.33 57.32 248.64 51.48 C 247.56 50.75 246.21 50.72 244.98 50.49 C 235.40 49.08 225.72 47.82 216.02 48.51 C 212.55 48.70 209.28 49.96 206.02 51.04 M 344.33 67.36 C 338.35 69.99 332.54 73.31 327.98 78.04 C 325.84 80.22 323.68 82.37 321.55 84.56 C 320.68 85.60 319.40 86.60 319.50 88.11 C 320.89 87.74 322.61 87.86 323.55 86.54 C 327.87 81.85 332.11 76.87 337.77 73.74 C 341.65 71.67 345.50 69.27 349.93 68.64 C 354.35 67.93 358.43 65.63 362.97 65.66 C 369.22 65.27 375.09 67.78 381.13 68.92 C 387.12 70.38 392.91 72.59 398.88 74.15 C 403.40 75.33 407.21 78.26 410.52 81.45 C 412.12 82.90 413.74 84.87 416.17 84.45 C 416.54 83.92 417.27 82.86 417.64 82.33 C 412.35 80.91 409.70 75.58 404.82 73.47 C 400.41 71.44 395.63 70.46 390.97 69.19 C 386.93 68.25 383.25 66.05 379.04 65.78 C 374.96 65.47 370.98 64.30 366.88 64.30 C 363.31 64.31 359.70 63.20 356.18 64.18 C 352.23 65.24 348.16 65.90 344.33 67.36 M 191.19 81.25 C 182.02 85.90 174.85 93.72 169.74 102.53 C 165.15 110.96 158.04 117.80 150.09 123.06 C 144.58 126.80 140.02 131.81 136.58 137.51 C 135.00 140.29 132.61 142.88 132.44 146.22 C 133.28 146.68 134.16 147.11 134.99 147.60 C 135.52 145.23 136.47 142.98 137.82 140.96 C 140.83 136.35 144.02 131.79 147.95 127.91 C 150.98 124.81 155.23 123.36 158.39 120.43 C 161.72 117.39 164.56 113.87 167.47 110.45 C 170.70 106.60 172.99 102.09 176.05 98.11 C 180.59 92.57 185.82 87.43 192.23 84.07 C 196.46 81.27 201.83 81.92 206.60 82.50 C 214.07 85.13 220.21 90.38 226.01 95.60 C 226.51 95.26 227.52 94.58 228.02 94.23 C 226.08 92.07 223.83 90.22 221.48 88.52 C 218.42 86.31 215.68 83.60 212.29 81.90 C 208.13 79.96 203.43 80.16 198.96 80.18 C 196.36 80.28 193.61 80.11 191.19 81.25 M 361.12 83.25 C 355.02 86.52 350.43 91.83 345.29 96.34 C 344.04 97.25 343.67 98.71 343.40 100.14 C 346.98 99.78 349.09 96.72 351.43 94.38 C 354.87 90.74 358.95 87.79 363.17 85.12 C 366.28 82.89 370.27 83.72 373.83 83.64 C 378.13 83.62 381.95 86.37 386.32 85.77 C 382.44 81.52 376.19 82.25 371.00 82.18 C 367.71 82.34 364.13 81.56 361.12 83.25 M 340.62 85.57 C 334.54 91.16 329.22 97.71 322.26 102.24 C 316.92 103.50 311.78 101.36 306.84 99.61 C 307.13 100.21 307.69 101.41 307.98 102.02 C 309.63 104.14 312.58 103.67 314.95 103.79 C 318.17 103.68 321.41 103.97 324.61 103.57 C 326.69 102.42 328.33 100.67 330.10 99.12 C 334.35 95.35 338.64 91.61 342.47 87.41 C 343.53 86.43 343.80 84.98 344.26 83.68 C 342.98 84.17 341.58 84.52 340.62 85.57 M 370.39 131.52 C 366.28 131.63 362.47 133.25 358.68 134.65 C 353.31 135.97 348.27 138.29 343.05 140.09 C 339.44 141.32 336.00 143.62 332.03 143.33 C 326.60 143.11 321.30 141.72 315.88 141.35 C 310.83 140.89 305.87 139.16 300.75 139.83 C 296.64 140.40 292.50 140.30 288.37 140.33 C 284.33 140.33 280.61 142.23 276.61 142.57 C 270.68 143.29 265.87 147.75 259.83 147.90 C 259.61 149.05 259.40 150.20 259.19 151.34 C 262.03 151.05 264.71 150.08 267.33 149.00 C 269.56 148.04 272.16 147.77 274.01 146.07 L 273.72 145.68 C 276.26 146.00 278.68 144.79 281.08 144.14 C 283.61 143.21 286.33 143.24 288.97 142.99 C 296.96 142.27 305.05 142.09 313.00 143.26 C 315.99 143.62 319.03 143.31 322.00 143.83 C 327.08 144.88 332.33 144.95 337.48 144.58 C 342.37 143.43 346.87 141.09 351.65 139.57 C 356.42 137.84 361.47 136.91 366.14 134.87 C 369.51 133.28 373.33 133.06 376.98 132.68 C 381.85 133.40 386.84 133.84 391.49 135.56 C 394.24 136.91 396.80 138.64 399.68 139.73 C 399.42 138.49 399.22 137.23 398.81 136.03 C 393.57 132.42 386.96 132.11 380.88 130.97 C 377.38 130.22 373.89 131.43 370.39 131.52 M 373.44 143.48 C 369.59 144.92 365.42 145.27 361.64 146.93 C 353.09 150.35 344.87 154.59 336.14 157.57 C 330.65 158.37 325.31 156.51 319.90 156.04 C 313.57 155.09 307.17 155.32 300.81 154.93 C 295.13 154.81 289.37 154.99 283.81 156.14 C 275.62 159.03 266.48 158.45 258.67 162.50 C 252.60 164.61 246.21 166.57 241.55 171.26 C 241.63 171.77 241.78 172.80 241.86 173.31 C 244.21 173.66 245.84 171.69 247.66 170.57 C 252.18 167.30 257.71 166.07 262.68 163.70 C 268.83 160.93 275.71 160.91 282.13 159.08 C 285.03 158.35 287.98 157.37 291.02 157.89 C 295.98 158.53 301.01 158.32 305.98 157.79 C 311.52 157.14 316.79 159.58 322.30 159.58 C 327.81 159.65 333.36 160.09 338.86 159.53 C 343.83 158.51 348.13 155.64 352.83 153.86 C 360.58 150.91 368.16 147.42 376.16 145.16 C 384.93 143.18 393.69 146.71 401.01 151.31 C 401.63 150.97 402.89 150.28 403.52 149.94 C 401.58 147.41 398.41 146.55 395.59 145.44 C 392.11 144.27 388.67 142.63 384.94 142.58 C 381.10 142.57 377.09 142.02 373.44 143.48 M 382.98 153.94 C 379.19 154.71 375.23 154.97 371.73 156.75 C 367.47 158.79 362.96 160.39 359.07 163.13 C 356.17 165.21 353.26 167.28 350.49 169.52 C 349.19 170.37 348.77 171.90 348.32 173.29 C 351.83 172.21 354.31 169.38 357.37 167.50 C 363.95 163.30 370.97 159.70 378.44 157.38 C 382.48 156.09 386.64 154.23 390.97 154.84 C 395.15 155.83 398.79 158.28 402.08 160.95 C 403.34 162.04 404.84 162.76 406.39 163.32 C 405.85 159.56 402.26 157.64 399.47 155.61 C 394.43 153.00 388.45 152.87 382.98 153.94 M 297.02 166.04 C 292.50 166.60 287.93 165.89 283.42 166.53 C 276.27 167.88 269.04 169.00 262.20 171.57 C 256.74 173.97 251.76 177.37 247.29 181.31 C 244.73 183.60 241.26 185.48 240.62 189.17 C 243.57 188.75 245.45 186.36 247.56 184.53 C 251.87 180.62 257.04 177.89 262.02 174.95 C 265.94 172.59 270.46 171.52 274.95 170.89 C 281.31 170.16 287.54 168.23 293.99 168.54 C 301.94 168.60 310.82 168.47 317.45 173.53 C 317.89 172.36 318.68 171.14 318.18 169.85 C 316.25 168.23 313.65 167.83 311.37 166.91 C 306.82 165.02 301.78 165.46 297.02 166.04 M 359.14 177.23 C 356.06 179.66 352.85 182.84 352.64 187.00 C 353.12 190.08 354.90 193.75 358.36 194.20 C 361.01 194.56 363.88 194.52 366.27 193.15 C 374.04 189.15 380.85 182.63 389.95 181.86 C 393.12 182.63 396.26 183.56 399.54 183.65 C 404.84 183.96 409.59 187.08 414.95 186.90 C 414.40 184.22 412.27 182.40 410.47 180.52 C 407.00 176.93 403.26 173.51 398.86 171.11 C 393.37 168.58 387.15 167.67 381.16 168.26 C 373.37 169.87 365.61 172.49 359.14 177.23 M 286.54 176.34 C 277.70 177.63 268.64 179.17 260.92 183.96 C 248.97 190.43 239.03 202.00 237.21 215.74 C 237.86 215.58 239.17 215.25 239.83 215.09 C 242.88 212.37 245.75 209.43 248.99 206.91 C 256.85 199.47 267.19 195.29 277.58 192.77 C 283.72 190.63 290.29 190.56 296.71 190.88 C 301.58 191.32 305.93 193.90 310.78 194.44 C 314.05 194.81 317.63 195.14 320.63 193.47 C 323.75 191.95 325.55 187.63 323.30 184.65 C 320.78 181.48 317.23 178.88 313.16 178.21 C 309.66 177.49 306.28 176.03 302.65 176.12 C 297.28 176.07 291.90 176.04 286.54 176.34 M 186.37 194.34 C 183.48 197.25 179.60 198.84 176.58 201.59 C 172.76 205.07 168.87 208.78 166.98 213.71 C 165.42 217.69 163.71 221.66 163.00 225.89 C 163.62 225.83 164.87 225.71 165.49 225.65 C 167.61 219.25 169.73 212.52 174.59 207.60 C 179.17 203.09 184.33 199.21 189.41 195.30 C 190.64 194.48 191.46 193.30 191.53 191.79 C 189.52 192.00 187.73 192.84 186.37 194.34 M 308.12 205.64 C 308.07 207.05 308.28 208.61 309.66 209.36 C 315.49 213.77 321.32 218.33 326.11 223.89 C 326.89 228.07 326.97 232.79 324.59 236.50 C 321.00 242.76 315.23 247.27 310.80 252.87 C 307.92 256.49 304.02 259.05 300.78 262.30 C 300.89 262.68 301.11 263.42 301.21 263.80 C 303.08 264.18 304.39 262.69 305.58 261.52 C 310.83 256.13 316.16 250.81 321.35 245.36 C 324.21 242.09 327.83 238.61 327.77 233.94 C 327.74 230.08 328.00 226.21 327.63 222.37 C 324.80 217.38 319.63 214.36 315.50 210.54 C 313.14 208.80 311.19 206.06 308.12 205.64 M 383.43 207.48 C 376.42 209.66 371.09 215.02 365.74 219.78 C 364.31 220.79 364.18 222.50 364.70 224.04 C 371.17 219.43 376.42 213.11 383.78 209.73 C 388.30 207.26 393.94 209.77 398.37 207.14 C 393.39 207.24 388.38 206.93 383.43 207.48 M 399.33 208.79 C 400.65 212.29 404.59 213.45 407.09 215.91 C 409.97 217.96 411.54 222.04 415.49 222.22 C 415.11 218.99 412.00 217.23 409.90 215.10 C 406.66 212.61 403.69 209.08 399.33 208.79 M 352.83 223.14 C 352.25 225.63 352.51 228.26 353.74 230.52 C 359.34 241.51 364.83 252.56 369.91 263.81 C 372.42 269.39 376.91 273.67 380.24 278.73 C 381.78 280.71 382.78 283.68 385.76 283.69 C 384.30 277.56 380.13 272.61 376.01 268.04 C 372.71 264.32 370.97 259.59 369.05 255.09 C 366.13 247.92 362.76 240.94 359.12 234.11 C 357.64 231.19 356.00 228.24 355.53 224.96 C 355.87 221.40 357.33 218.06 358.53 214.72 C 357.66 213.57 356.80 212.14 355.11 212.70 C 353.29 215.87 353.67 219.67 352.83 223.14 M 379.43 217.29 C 375.30 220.15 371.18 223.08 367.61 226.64 C 366.29 227.71 366.11 229.47 365.64 230.99 C 368.95 232.32 372.26 234.05 375.95 233.82 C 385.72 234.75 396.51 234.59 404.94 228.89 C 406.66 228.12 405.86 226.11 405.51 224.75 C 402.24 218.45 395.70 213.15 388.29 213.52 C 384.94 213.50 382.14 215.58 379.43 217.29 M 181.56 215.35 C 180.43 218.97 178.82 222.41 177.49 225.96 C 177.78 226.56 178.37 227.78 178.66 228.38 C 179.12 228.40 180.04 228.44 180.49 228.46 C 180.81 223.80 183.58 219.79 183.89 215.15 C 183.31 215.20 182.14 215.30 181.56 215.35 M 259.24 227.22 C 256.94 229.17 254.34 231.24 253.67 234.35 C 253.26 236.75 254.36 239.04 254.86 241.34 C 255.55 237.90 256.40 234.34 258.57 231.50 C 261.14 228.19 264.93 226.19 268.58 224.30 C 272.98 222.13 277.38 219.68 282.29 218.91 C 288.25 217.76 294.63 218.88 299.78 222.12 C 303.85 224.30 306.85 227.88 310.46 230.66 C 310.90 229.51 311.35 228.37 311.79 227.23 C 305.55 223.72 300.63 217.66 293.32 216.22 C 281.04 214.06 268.40 219.13 259.24 227.22 M 285.51 222.01 C 275.35 222.86 267.47 231.11 263.47 239.96 C 266.89 243.05 271.81 242.25 276.02 242.98 C 280.35 243.74 284.65 242.71 288.96 242.35 C 294.35 242.06 299.35 239.54 303.88 236.78 C 304.93 236.03 306.85 234.80 305.98 233.29 C 302.22 228.62 297.44 224.60 291.72 222.61 C 289.77 221.71 287.59 221.64 285.51 222.01 M 131.12 228.91 C 129.58 232.75 129.48 236.99 128.64 241.01 C 128.98 245.94 131.19 250.57 132.91 255.16 C 133.75 257.63 135.44 259.64 137.35 261.36 C 137.42 260.39 137.43 259.42 137.39 258.45 C 135.57 254.62 132.63 251.24 131.91 246.94 C 131.05 241.75 130.93 236.21 133.03 231.28 C 134.52 228.92 136.77 227.14 138.42 224.89 C 135.26 222.88 132.53 226.43 131.12 228.91 M 402.17 246.78 C 396.33 247.23 390.48 246.77 384.64 246.77 C 383.94 249.17 387.00 250.34 388.91 249.89 C 393.53 249.37 398.18 249.90 402.81 249.56 C 406.43 248.72 409.69 246.69 412.65 244.50 C 413.70 243.85 413.78 242.53 414.15 241.47 C 409.37 241.15 406.73 246.37 402.17 246.78 M 373.47 244.90 C 373.40 246.26 372.56 247.99 374.04 248.92 C 377.20 251.73 380.54 254.35 384.03 256.74 C 385.78 258.00 388.06 257.26 390.03 257.11 C 394.89 256.05 400.03 257.70 404.75 255.86 C 407.57 254.85 410.46 253.77 412.79 251.85 C 413.13 250.96 413.42 250.06 413.66 249.15 C 409.97 249.88 406.96 252.29 403.51 253.63 C 398.60 255.83 393.02 255.80 387.79 255.18 C 382.29 252.94 377.93 248.70 373.47 244.90 M 262.67 247.03 C 262.94 247.57 263.46 248.65 263.73 249.19 C 268.17 252.69 274.10 253.49 279.59 253.59 C 281.00 253.81 282.16 253.02 283.07 252.03 C 279.29 249.07 274.00 250.31 269.56 249.23 C 267.33 248.29 265.18 247.00 262.67 247.03 M 299.61 254.64 C 295.69 256.75 291.33 257.80 287.11 259.13 C 282.15 260.67 276.86 260.65 271.73 260.20 C 266.02 258.88 261.07 255.52 255.93 252.86 C 255.28 253.10 253.97 253.60 253.32 253.84 C 256.80 256.95 261.11 258.87 265.37 260.66 C 269.02 262.36 273.13 261.63 277.01 261.75 C 280.94 261.62 285.06 262.32 288.80 260.77 C 291.79 259.67 295.03 259.49 297.96 258.21 C 301.84 256.93 305.31 254.61 308.21 251.76 C 308.28 251.22 308.42 250.13 308.50 249.58 C 305.21 250.68 302.67 253.12 299.61 254.64 M 158.02 254.43 C 157.40 257.90 157.63 261.47 157.97 264.96 C 158.97 269.19 162.75 271.99 164.23 276.01 C 164.53 278.31 164.64 280.67 164.29 282.98 C 163.38 285.86 161.68 288.88 162.93 291.95 C 163.59 294.59 166.52 295.40 168.30 297.13 C 169.55 298.56 168.43 300.38 167.87 301.84 C 167.28 301.79 166.10 301.70 165.50 301.65 C 165.03 299.41 164.75 297.14 164.25 294.91 C 161.89 291.81 156.78 292.53 154.94 288.85 C 152.79 284.84 151.15 280.57 149.09 276.51 C 147.30 273.06 147.35 268.11 143.37 266.26 C 143.07 267.61 142.21 269.06 142.92 270.44 C 145.12 276.04 148.01 281.33 150.46 286.82 C 151.84 289.57 153.06 292.49 155.09 294.84 C 157.31 295.60 159.80 295.08 162.09 295.63 C 161.56 299.02 161.45 303.11 164.69 305.26 C 169.08 306.65 171.21 301.69 173.47 298.94 C 170.81 294.93 165.29 292.41 165.20 287.08 C 165.11 282.21 166.11 277.31 165.19 272.47 C 164.25 270.33 162.40 268.72 161.49 266.58 C 160.92 263.12 161.28 259.46 160.07 256.14 C 159.56 255.72 158.54 254.86 158.02 254.43 M 344.67 268.49 C 342.34 272.47 339.40 276.04 336.83 279.86 C 335.74 282.74 336.34 286.01 336.86 288.97 C 338.18 285.61 338.27 281.64 340.84 278.89 C 343.52 275.74 346.02 272.32 347.22 268.30 C 346.58 268.35 345.31 268.44 344.67 268.49 M 316.12 290.25 C 313.89 293.90 313.77 298.37 314.24 302.50 C 316.06 305.06 318.04 307.67 320.67 309.45 C 325.15 310.80 329.74 309.35 334.11 308.33 C 339.24 307.18 343.93 310.13 348.66 311.58 C 350.41 312.01 351.43 313.56 352.52 314.86 C 351.91 317.50 351.45 320.17 351.21 322.87 C 351.84 322.80 353.10 322.68 353.73 322.62 C 354.02 320.48 354.28 318.34 354.49 316.20 C 360.17 316.84 365.90 317.08 371.61 316.71 C 377.18 311.77 380.98 305.14 385.14 299.02 C 388.11 294.99 386.67 289.71 386.89 285.08 C 386.43 285.06 385.52 285.03 385.06 285.01 C 385.07 288.19 385.24 291.45 384.35 294.54 C 382.49 299.21 378.83 302.79 376.07 306.90 C 373.81 310.22 371.27 313.65 367.44 315.25 C 365.77 315.52 364.05 315.47 362.37 315.29 C 357.76 314.49 354.32 311.08 350.34 308.92 C 344.86 306.65 338.89 305.01 332.92 305.83 C 330.20 306.13 327.71 307.32 325.08 307.94 C 320.26 306.68 316.99 301.87 316.49 297.06 C 317.46 293.15 319.46 289.31 322.68 286.77 C 324.02 285.48 326.29 284.37 325.78 282.09 C 321.28 282.66 318.25 286.58 316.12 290.25 M 386.98 301.16 C 389.42 311.24 396.01 319.66 403.05 327.02 C 407.76 332.08 407.06 339.48 409.48 345.55 C 410.80 348.44 410.44 351.63 410.41 354.71 C 410.96 354.39 412.06 353.77 412.62 353.46 C 413.98 349.45 411.73 345.30 409.90 341.79 C 409.60 339.27 410.15 336.71 409.61 334.22 C 408.78 330.86 407.22 327.68 404.89 325.11 C 400.71 320.46 396.57 315.67 393.60 310.14 C 391.98 306.85 390.79 303.38 389.45 299.98 C 388.62 300.37 387.80 300.76 386.98 301.16 M 305.69 308.28 C 298.09 316.82 295.27 328.19 290.58 338.34 C 288.97 345.12 287.52 352.12 288.48 359.11 C 288.78 359.45 289.38 360.12 289.67 360.45 C 289.83 355.36 289.92 350.19 291.27 345.25 C 293.10 339.54 294.70 333.72 297.37 328.34 C 299.20 324.57 300.76 320.69 302.22 316.77 C 304.20 310.88 311.55 308.79 313.19 302.76 C 310.05 303.55 307.83 306.01 305.69 308.28 M 370.36 318.39 C 371.28 319.86 372.25 321.31 373.27 322.73 C 373.47 321.29 373.65 319.84 373.82 318.40 C 372.95 318.40 371.22 318.40 370.36 318.39 M 353.05 329.52 C 341.86 331.46 331.17 336.30 322.21 343.25 C 316.74 348.55 310.91 354.05 308.23 361.37 C 307.28 363.02 308.32 364.44 310.08 364.71 C 315.17 352.31 325.94 342.73 338.33 337.91 C 343.65 335.81 349.12 333.79 354.89 333.43 C 358.26 333.26 361.60 332.86 364.96 332.57 C 375.24 332.17 386.51 335.45 392.75 344.16 C 394.90 346.84 395.18 351.99 399.67 351.61 C 397.13 341.13 388.27 332.87 377.98 330.15 C 369.97 327.42 361.23 327.99 353.05 329.52 M 366.81 339.23 C 360.25 340.32 353.57 339.10 346.99 339.94 C 341.42 341.01 335.72 342.51 331.05 345.87 C 331.36 346.30 331.99 347.16 332.30 347.59 C 336.51 346.92 339.87 343.69 344.19 343.47 C 349.45 342.99 354.74 343.58 360.00 343.13 C 367.08 342.10 374.17 340.09 381.38 340.95 C 380.50 341.12 378.72 341.48 377.84 341.65 C 380.25 342.54 382.84 343.40 384.59 345.40 C 390.95 352.48 394.55 361.80 402.07 367.87 C 405.26 370.31 408.81 372.84 413.05 372.46 C 412.80 371.59 412.57 370.73 412.33 369.87 C 408.81 368.59 405.08 367.36 402.33 364.68 C 396.72 359.34 392.78 352.60 388.67 346.11 C 386.50 342.51 382.93 339.61 378.75 338.80 C 374.78 338.21 370.74 338.51 366.81 339.23 M 382.19 351.37 C 383.65 354.88 386.90 357.09 388.96 360.18 C 391.97 364.50 393.77 369.67 397.61 373.40 C 400.48 376.17 403.61 379.29 407.81 379.63 C 407.74 376.69 405.19 375.33 402.93 374.07 C 399.46 372.20 397.46 368.68 395.36 365.51 C 392.60 361.32 390.13 356.91 386.82 353.13 C 385.76 351.61 383.79 351.70 382.19 351.37 M 372.49 357.46 C 369.99 358.87 367.84 360.85 365.22 362.08 C 361.96 360.27 358.23 359.59 354.57 360.40 C 354.38 361.01 353.99 362.22 353.79 362.83 C 356.00 362.61 358.29 361.82 360.50 362.50 C 362.58 362.98 364.62 363.96 366.81 363.80 C 369.46 362.88 371.60 360.93 373.97 359.47 C 377.61 361.97 380.35 365.44 383.35 368.61 C 384.73 369.16 385.45 368.64 385.52 367.08 C 383.09 363.67 379.89 360.85 376.42 358.53 C 375.24 357.85 373.91 356.67 372.49 357.46 M 332.77 365.68 C 328.99 370.87 324.09 375.05 319.68 379.67 C 316.82 382.57 313.90 385.44 310.50 387.70 C 306.03 390.64 301.68 393.90 296.59 395.73 C 296.64 396.08 296.74 396.78 296.79 397.14 C 297.34 397.48 298.46 398.17 299.02 398.52 C 305.21 394.62 311.89 391.27 317.05 385.98 C 322.89 380.20 328.81 374.50 334.42 368.50 C 335.89 367.15 336.50 365.25 336.86 363.35 C 335.29 363.73 333.63 364.18 332.77 365.68 Z" />
<path fill="#ffffff" opacity="1.00" d=" M 273.41 145.41 C 273.49 145.48 273.64 145.62 273.72 145.68 C 273.64 145.62 273.49 145.48 273.41 145.41 Z" />
<path fill="#ffffff" opacity="1.00" d=" M 359.91 180.89 C 365.34 175.48 372.78 172.68 380.21 171.41 C 390.07 169.04 400.74 173.59 407.02 181.26 C 407.12 181.69 407.32 182.53 407.42 182.95 C 403.91 182.13 400.64 180.21 396.93 180.41 C 392.51 180.46 388.03 178.62 383.67 180.05 C 379.22 181.51 375.17 183.96 371.12 186.25 C 367.37 188.37 363.71 191.91 359.04 190.79 C 356.69 190.66 356.27 187.83 356.47 185.99 C 356.57 183.78 358.51 182.36 359.91 180.89 Z" />
<path fill="#ffffff" opacity="1.00" d=" M 282.83 179.95 C 292.95 176.86 304.03 178.11 313.79 181.89 C 316.99 183.31 320.62 185.12 321.46 188.87 C 319.20 190.42 316.76 191.98 313.97 192.23 C 309.87 191.55 305.84 190.50 301.95 189.04 C 298.84 187.90 295.47 188.19 292.23 188.26 C 277.45 188.16 262.58 192.76 250.71 201.65 C 247.89 203.89 245.45 206.54 242.84 209.01 C 242.55 208.50 241.97 207.49 241.67 206.99 C 244.84 201.87 248.90 197.35 253.26 193.22 C 258.83 188.26 264.93 183.43 272.28 181.51 C 275.72 180.48 279.40 181.00 282.83 179.95 Z" />
<path fill="#ffffff" opacity="1.00" d=" M 385.20 217.05 C 392.17 214.01 398.84 219.63 402.48 225.12 C 402.98 226.80 401.01 227.57 399.84 228.13 C 397.18 229.26 394.47 230.29 391.86 231.53 C 391.44 231.24 390.60 230.66 390.17 230.37 C 391.36 228.01 392.48 225.29 391.42 222.66 C 389.67 220.46 387.22 218.97 385.20 217.05 Z" />
<path fill="#ffffff" opacity="1.00" d=" M 378.52 224.30 C 378.37 221.66 381.27 220.62 383.05 219.36 C 385.49 220.93 389.05 222.62 388.82 226.05 C 389.23 228.54 387.07 230.18 385.26 231.39 C 383.97 232.41 382.50 231.37 381.39 230.63 C 379.42 229.20 378.29 226.72 378.52 224.30 M 380.12 225.92 C 381.78 227.33 383.65 228.96 386.00 228.04 C 386.84 225.69 385.61 223.50 383.92 221.96 C 382.45 223.07 381.21 224.43 380.12 225.92 Z" />
<path fill="#ffffff" opacity="1.00" d=" M 369.62 228.95 C 371.20 226.36 373.65 224.56 376.27 223.13 C 376.67 225.71 377.11 228.29 377.54 230.87 C 374.92 232.85 371.76 230.61 369.62 228.95 Z" />
<path fill="#ffffff" opacity="1.00" d=" M 286.68 224.87 C 287.25 224.66 288.37 224.25 288.93 224.04 C 292.73 226.14 296.69 228.12 299.94 231.07 C 301.32 232.16 301.36 234.82 299.63 235.60 C 296.66 237.26 293.43 238.52 290.05 239.02 C 290.24 236.40 291.20 233.82 291.03 231.19 C 289.89 228.89 288.19 226.94 286.68 224.87 Z" />
<path fill="#ffffff" opacity="1.00" d=" M 281.24 226.96 C 285.41 225.84 289.77 230.83 288.10 234.87 C 287.19 237.31 284.81 239.55 282.12 239.66 C 278.80 238.74 276.45 235.33 276.46 231.95 C 276.90 229.53 278.87 227.53 281.24 226.96 M 280.37 230.25 C 280.34 231.74 280.31 233.23 280.27 234.73 C 280.96 235.01 282.33 235.56 283.01 235.84 C 285.74 235.21 284.64 232.25 284.70 230.26 C 283.26 230.18 281.81 230.18 280.37 230.25 Z" />
<path fill="#ffffff" opacity="1.00" d=" M 268.09 239.35 C 269.07 236.15 270.59 232.22 274.18 231.27 C 274.71 234.00 274.86 236.78 275.03 239.55 C 272.71 239.70 270.39 239.62 268.09 239.35 Z" />
<path fill="#ffffff" opacity="1.00" d=" M 139.63 287.73 C 140.59 288.19 141.79 288.41 142.39 289.39 C 146.53 294.88 148.00 301.80 148.76 308.49 C 147.50 307.78 146.02 307.17 145.44 305.72 C 142.48 300.13 140.37 294.03 139.63 287.73 Z" />
<path fill="#ffffff" opacity="1.00" d=" M 155.63 321.50 C 160.05 320.59 164.54 321.65 169.01 321.32 C 172.38 321.30 176.87 320.87 178.89 324.22 C 182.35 329.38 184.88 335.15 186.54 341.13 C 188.68 348.39 192.04 355.27 193.92 362.60 C 190.17 362.22 186.97 360.01 183.87 358.05 C 178.24 354.26 176.36 347.32 174.20 341.29 C 172.51 336.59 171.68 330.67 166.90 328.01 C 163.11 325.89 158.94 324.40 155.63 321.50 Z" />
<path fill="#ffffff" opacity="1.00" d=" M 416.66 418.63 L 417.01 418.22 C 419.92 419.38 422.05 421.77 424.68 423.39 C 443.48 434.96 463.48 445.13 485.07 450.27 C 487.83 450.93 490.75 450.84 493.44 451.78 C 496.75 453.59 499.14 456.60 502.00 459.00 C 510.04 465.64 517.81 472.58 525.83 479.25 C 530.35 483.41 534.93 487.52 539.89 491.15 C 541.32 492.25 543.72 494.20 542.06 496.10 C 536.48 504.32 531.27 512.78 526.06 521.23 C 525.30 522.41 524.15 524.26 522.51 523.37 C 509.42 516.59 496.25 509.94 483.70 502.19 C 471.49 494.75 459.21 487.45 447.19 479.72 C 443.68 477.42 440.03 475.38 436.37 473.35 C 434.93 472.66 433.91 471.34 433.53 469.80 C 430.71 459.24 427.73 448.71 423.92 438.46 C 422.02 432.83 420.07 427.19 417.40 421.86 C 417.22 420.84 415.88 419.56 416.66 418.63 Z" />
<path fill="#ffffff" opacity="1.00" d=" M 209.66 421.10 L 211.22 421.40 C 213.64 428.81 212.98 436.88 215.10 444.39 C 216.02 447.51 216.69 450.81 218.55 453.55 C 220.90 457.08 224.48 459.51 227.97 461.81 C 245.24 472.83 264.04 481.05 282.01 490.80 C 295.30 497.28 307.36 506.32 321.48 511.03 C 321.55 511.54 321.70 512.57 321.77 513.09 C 311.77 519.40 303.84 528.27 295.88 536.88 C 290.90 542.03 286.65 547.80 282.49 553.61 C 276.43 561.38 271.01 569.60 265.53 577.78 C 264.06 577.24 262.66 576.51 261.47 575.48 C 251.12 566.82 239.62 559.54 230.04 549.96 C 224.54 544.87 218.64 539.86 215.25 533.02 C 212.79 527.74 211.57 522.01 210.16 516.39 C 208.07 508.73 206.74 500.84 206.58 492.90 C 206.13 487.29 205.41 481.67 205.92 476.04 C 206.50 470.36 206.23 464.65 206.16 458.96 C 206.05 454.96 206.79 451.00 206.64 447.01 C 206.43 438.29 207.31 429.51 209.66 421.10 Z" />
</g>
</svg>
