<?xml version="1.0" encoding="UTF-8" ?>
<!DOCTYPE svg PUBLIC "-//W3C//DTD SVG 1.1//EN" "http://www.w3.org/Graphics/SVG/1.1/DTD/svg11.dtd">
<svg width="291pt" height="235pt" viewBox="0 0 291 235" version="1.1" xmlns="http://www.w3.org/2000/svg">
<path fill="#ffffff" opacity="1.00" d=" M 0.00 0.00 L 291.00 0.00 L 291.00 235.00 L 0.00 235.00 L 0.00 0.00 M 122.59 6.68 C 109.00 13.52 95.69 23.93 91.38 39.18 C 88.67 46.76 88.20 54.80 87.57 62.71 C 89.01 68.31 92.77 74.20 90.11 79.98 C 89.14 92.08 99.02 101.99 98.18 114.01 C 98.55 117.29 102.30 118.91 103.00 122.07 C 103.30 125.09 106.70 126.28 107.95 128.79 C 98.09 134.21 88.43 140.16 77.79 143.96 C 75.65 144.61 74.37 146.55 72.73 147.93 C 69.86 148.56 66.87 147.97 63.96 148.25 C 54.12 152.64 42.68 158.02 39.42 169.35 C 38.55 174.42 39.00 179.76 39.28 184.92 C 55.99 184.89 72.74 185.40 89.42 184.63 C 79.03 180.21 68.19 177.07 57.48 173.60 C 54.73 172.31 52.26 170.12 49.05 170.15 C 46.80 168.75 44.69 166.94 41.85 167.04 C 45.08 157.38 55.71 154.31 63.52 149.38 C 66.86 148.78 70.32 149.50 73.66 148.76 C 77.81 143.74 84.76 143.06 90.16 139.94 C 96.15 136.43 102.33 133.27 108.31 129.76 C 108.49 131.09 108.66 132.43 108.83 133.76 L 108.59 134.32 L 108.29 134.37 L 107.83 134.11 C 104.63 135.27 104.98 139.53 104.91 142.31 C 105.48 142.35 106.63 142.42 107.20 142.45 C 105.29 144.52 111.14 146.32 109.87 143.40 C 110.30 143.85 111.16 144.75 111.59 145.20 C 109.29 146.61 106.81 144.97 104.61 144.19 L 104.73 145.28 C 103.81 145.32 102.92 145.53 102.06 145.92 C 102.04 146.80 101.98 148.56 101.96 149.44 C 102.97 148.77 103.99 148.11 105.02 147.46 C 105.32 147.58 105.92 147.81 106.22 147.92 C 104.31 149.44 102.67 151.26 101.05 153.08 C 101.57 153.35 102.59 153.89 103.11 154.16 C 102.89 157.16 100.41 163.06 105.25 163.38 C 105.68 165.50 106.05 167.64 106.43 169.77 L 107.02 169.60 C 109.56 173.19 112.39 176.59 115.47 179.73 C 115.29 180.49 114.92 182.01 114.74 182.76 L 115.54 182.83 C 115.09 184.60 117.74 185.94 118.95 184.63 C 119.71 184.72 121.21 184.90 121.97 184.99 C 121.88 184.28 121.70 182.85 121.61 182.14 C 121.98 180.98 122.53 179.94 123.28 179.01 C 125.35 178.82 127.15 179.99 129.01 180.68 C 129.88 179.82 130.58 178.83 131.11 177.70 C 131.02 177.12 130.86 175.95 130.78 175.36 C 129.83 175.10 128.88 174.83 127.94 174.57 C 128.74 174.63 130.33 174.75 131.12 174.81 C 133.18 173.28 133.25 170.71 131.61 168.88 C 132.08 169.05 133.03 169.40 133.50 169.57 C 134.07 171.56 132.89 173.16 131.63 174.57 C 132.22 176.99 134.92 177.00 136.93 176.85 C 137.54 177.94 138.18 179.06 139.11 179.93 C 139.06 181.61 139.10 183.30 139.24 184.98 C 140.82 185.00 142.41 184.91 143.99 184.76 C 143.18 183.63 142.25 182.59 141.18 181.70 L 141.73 182.15 C 142.12 180.42 142.45 178.68 142.76 176.94 C 143.16 176.63 143.94 176.02 144.33 175.72 C 145.01 175.94 146.37 176.39 147.05 176.62 C 147.53 178.44 150.60 178.22 151.20 176.59 C 151.77 176.51 152.91 176.35 153.48 176.27 C 153.53 177.34 153.59 178.40 153.61 179.47 C 152.66 179.76 151.67 179.73 150.63 179.39 C 150.99 180.29 151.39 181.17 151.84 182.03 C 153.72 182.82 155.54 183.74 157.22 184.91 C 159.32 181.65 162.53 179.63 165.78 177.68 C 165.91 174.91 168.03 172.70 166.78 169.80 C 168.63 168.58 169.40 166.50 168.87 164.32 C 169.35 161.14 164.96 160.55 163.20 158.65 C 162.16 155.78 166.68 151.57 162.57 150.09 C 162.27 149.62 161.67 148.67 161.37 148.20 C 161.43 147.00 161.46 145.81 161.47 144.61 C 159.58 144.80 157.52 144.35 158.10 141.93 C 159.81 142.09 161.16 143.16 162.58 144.03 C 162.53 143.12 162.48 142.21 162.45 141.31 C 165.80 138.83 167.40 134.88 169.44 131.39 C 169.10 131.05 168.43 130.35 168.09 130.01 C 169.44 129.74 170.81 129.51 172.16 129.25 C 172.65 127.19 172.29 125.07 172.30 122.98 C 180.47 126.70 188.65 130.41 196.82 134.14 C 201.41 136.24 204.28 141.01 209.19 142.52 C 217.34 145.51 225.29 149.02 233.13 152.76 C 237.26 155.26 242.73 158.17 241.97 163.88 C 234.02 171.09 222.98 172.93 213.74 177.91 C 209.70 180.50 205.76 183.37 201.10 184.76 C 217.90 185.19 234.73 185.06 251.52 184.85 C 252.62 174.83 244.56 167.07 241.96 157.92 C 231.55 148.06 216.49 146.18 204.93 138.17 C 195.82 131.13 184.44 128.12 174.52 122.51 C 173.03 121.94 173.20 120.24 172.94 118.98 C 172.64 118.73 172.05 118.23 171.76 117.98 C 172.76 116.85 171.00 114.42 169.66 115.35 C 169.27 114.98 168.49 114.24 168.09 113.87 C 167.85 109.52 165.34 104.94 167.67 100.78 C 168.77 97.46 173.21 97.90 175.16 95.33 C 180.35 89.77 183.79 82.83 187.03 76.01 C 190.26 67.44 190.24 58.07 190.16 49.03 C 189.82 40.77 188.45 31.71 182.32 25.61 C 173.42 14.28 160.32 4.44 145.23 5.52 C 137.78 7.76 129.83 3.11 122.59 6.68 M 128.22 182.96 C 126.95 186.59 133.14 184.99 130.83 182.14 C 130.99 179.79 126.99 181.13 128.22 182.96 M 82.62 201.99 C 82.45 211.32 82.46 220.67 82.62 230.00 C 84.57 230.06 86.53 230.06 88.48 230.00 C 88.74 225.99 88.53 221.98 88.59 217.98 C 90.34 221.72 91.15 225.82 92.40 229.74 C 94.56 230.11 96.76 230.08 98.95 230.00 C 99.06 220.68 99.05 211.35 98.95 202.03 C 96.90 201.91 94.85 201.93 92.81 202.05 C 92.59 206.05 92.84 210.06 92.65 214.06 C 91.19 210.15 90.09 206.12 88.74 202.17 C 86.72 201.88 84.66 201.92 82.62 201.99 M 107.22 202.23 C 104.40 202.90 101.56 205.02 101.45 208.15 C 101.23 213.44 101.08 218.76 101.42 224.05 C 102.67 232.15 117.04 232.12 118.19 223.98 C 118.55 218.67 118.52 213.31 118.20 208.00 C 117.62 202.94 111.53 201.10 107.22 202.23 M 120.29 202.12 C 120.22 204.01 120.21 205.90 120.26 207.80 C 121.72 207.94 123.18 208.07 124.63 208.24 C 124.62 215.48 124.46 222.73 124.67 229.97 C 127.09 230.06 129.53 230.08 131.95 229.95 C 132.13 222.68 131.92 215.40 132.04 208.13 C 133.48 208.04 134.92 207.96 136.36 207.88 C 136.47 205.92 136.47 203.96 136.35 202.01 C 131.00 202.01 125.64 201.83 120.29 202.12 M 144.61 202.05 C 144.45 211.36 144.46 220.69 144.60 230.00 C 149.23 229.84 153.96 230.49 158.53 229.56 C 162.46 228.79 161.57 223.87 161.76 220.93 C 162.09 218.18 160.75 215.75 158.27 214.57 C 162.36 212.56 161.74 206.77 159.35 203.63 C 154.97 200.94 149.49 202.24 144.61 202.05 M 166.65 202.26 C 165.58 211.51 163.94 220.69 162.90 229.94 C 165.24 230.07 167.60 230.08 169.94 229.96 C 170.01 228.31 170.04 226.66 170.10 225.01 C 171.37 224.96 172.64 224.96 173.91 225.01 C 173.97 226.66 174.00 228.31 174.06 229.96 C 176.50 230.06 178.94 230.05 181.38 230.00 C 179.83 220.70 178.49 211.37 176.90 202.09 C 173.49 201.97 170.03 201.72 166.65 202.26 M 182.64 202.02 C 182.43 211.34 182.50 220.67 182.62 229.99 C 186.99 229.96 191.40 230.23 195.76 229.82 C 198.50 229.30 199.83 226.69 199.55 224.08 C 199.35 217.76 200.32 211.25 198.90 205.05 C 195.16 200.22 187.93 202.50 182.64 202.02 Z" />
<path fill="#010101" opacity="1.00" d=" M 122.59 6.68 C 129.83 3.11 137.78 7.76 145.23 5.52 C 160.32 4.44 173.42 14.28 182.32 25.61 C 188.45 31.71 189.82 40.77 190.16 49.03 C 190.24 58.07 190.26 67.44 187.03 76.01 C 183.79 82.83 180.35 89.77 175.16 95.33 C 173.21 97.90 168.77 97.46 167.67 100.78 C 165.34 104.94 167.85 109.52 168.09 113.87 C 167.88 114.29 167.46 115.13 167.26 115.55 C 166.63 111.05 164.80 106.42 166.10 101.89 C 166.83 99.36 166.14 96.74 166.08 94.18 C 163.98 96.08 162.20 98.42 159.63 99.74 C 158.56 98.50 157.52 97.22 156.48 95.95 C 156.39 100.17 155.76 104.43 154.15 108.35 C 148.44 116.42 142.08 124.24 133.58 129.51 C 128.14 135.16 119.59 133.61 112.93 131.36 C 112.58 131.55 111.89 131.92 111.55 132.10 C 110.87 132.52 109.51 133.35 108.83 133.76 C 108.66 132.43 108.49 131.09 108.31 129.76 C 102.33 133.27 96.15 136.43 90.16 139.94 C 84.76 143.06 77.81 143.74 73.66 148.76 C 70.32 149.50 66.86 148.78 63.52 149.38 C 55.71 154.31 45.08 157.38 41.85 167.04 C 44.69 166.94 46.80 168.75 49.05 170.15 C 52.26 170.12 54.73 172.31 57.48 173.60 C 68.19 177.07 79.03 180.21 89.42 184.63 C 72.74 185.40 55.99 184.89 39.28 184.92 C 39.00 179.76 38.55 174.42 39.42 169.35 C 42.68 158.02 54.12 152.64 63.96 148.25 C 66.87 147.97 69.86 148.56 72.73 147.93 C 74.37 146.55 75.65 144.61 77.79 143.96 C 88.43 140.16 98.09 134.21 107.95 128.79 C 106.70 126.28 103.30 125.09 103.00 122.07 C 102.30 118.91 98.55 117.29 98.18 114.01 C 99.02 101.99 89.14 92.08 90.11 79.98 C 92.77 74.20 89.01 68.31 87.57 62.71 C 88.20 54.80 88.67 46.76 91.38 39.18 C 95.69 23.93 109.00 13.52 122.59 6.68 M 148.72 18.70 C 143.70 25.35 138.57 31.92 133.60 38.61 C 126.36 40.70 118.73 37.71 112.05 34.92 C 105.72 30.48 96.90 34.28 92.20 39.35 C 94.73 39.00 97.29 38.93 99.79 39.51 L 99.51 40.17 C 97.29 39.79 95.03 39.75 92.80 39.51 C 92.14 41.00 91.56 42.54 91.30 44.17 C 93.81 44.13 96.32 44.20 98.80 44.57 L 98.60 45.29 C 96.16 44.52 93.51 44.73 90.97 44.73 C 90.64 47.05 89.33 49.45 89.84 51.79 C 93.60 53.06 98.54 54.73 97.84 59.73 C 94.50 58.39 93.48 53.54 89.48 53.77 C 88.81 58.37 87.93 63.03 90.17 67.38 C 92.81 67.72 95.33 66.10 97.93 66.86 C 100.48 67.22 101.91 69.56 103.31 71.45 C 104.27 78.98 94.12 85.23 98.39 92.61 C 99.09 92.94 100.48 93.59 101.17 93.91 C 102.84 91.49 106.90 90.97 108.32 93.86 C 105.45 93.92 102.64 94.52 99.83 95.05 C 99.09 97.69 98.23 100.29 97.49 102.93 C 98.41 104.98 98.98 107.14 99.04 109.40 C 100.06 108.95 100.48 107.91 100.28 106.28 C 100.93 105.56 101.61 104.87 102.32 104.21 C 106.14 103.63 109.66 105.72 113.11 107.05 C 115.66 108.43 118.95 109.23 120.38 111.98 C 118.23 111.66 116.07 111.29 113.89 111.52 C 109.68 115.65 103.11 116.33 98.92 111.82 C 98.75 116.47 103.91 118.74 104.74 123.12 C 109.21 129.84 118.06 133.04 125.92 132.06 C 137.43 126.53 147.52 117.82 153.61 106.48 C 155.71 101.94 155.14 96.93 155.43 92.09 C 156.99 94.22 158.23 96.57 159.90 98.62 C 166.13 93.77 169.05 86.27 172.59 79.47 C 174.63 75.73 175.19 70.84 172.85 67.12 C 166.43 63.19 161.79 73.19 155.39 70.48 C 151.78 68.18 153.56 63.54 153.00 60.09 C 150.48 53.17 144.74 47.92 141.28 41.73 C 143.03 32.60 149.22 25.12 153.38 17.00 C 153.34 16.42 153.25 15.28 153.21 14.71 C 151.12 15.23 150.05 17.21 148.72 18.70 M 90.89 69.17 C 89.96 73.22 94.85 68.12 90.89 69.17 M 97.06 68.74 C 97.22 69.56 97.52 71.18 97.68 72.00 C 96.88 73.26 95.66 74.12 94.50 75.01 C 97.57 75.07 100.39 73.48 102.34 71.17 C 100.81 69.91 99.09 68.86 97.06 68.74 M 94.54 70.08 C 94.71 73.38 97.49 68.55 94.54 70.08 M 92.72 75.21 C 88.62 83.77 94.03 92.62 96.50 100.80 C 98.10 99.04 98.29 96.58 98.69 94.35 C 93.76 90.15 97.43 83.97 99.84 79.47 L 99.74 78.67 C 101.37 78.23 101.64 77.45 100.55 76.34 L 101.59 76.03 C 101.73 75.24 102.01 73.66 102.15 72.87 C 99.56 75.20 96.10 76.06 92.72 75.21 M 103.21 104.94 C 102.62 105.50 101.45 106.60 100.86 107.15 C 103.65 109.43 107.47 108.53 110.76 108.44 C 110.09 105.63 105.77 105.49 103.21 104.94 M 100.37 109.30 C 100.19 112.08 103.32 114.41 105.95 114.22 C 109.29 113.65 111.90 111.34 114.69 109.58 C 109.92 109.44 105.14 109.14 100.37 109.30 Z" />
<path fill="#fefefe" opacity="1.00" d=" M 148.72 18.70 C 150.05 17.21 151.12 15.23 153.21 14.71 C 153.25 15.28 153.34 16.42 153.38 17.00 C 149.22 25.12 143.03 32.60 141.28 41.73 C 144.74 47.92 150.48 53.17 153.00 60.09 C 153.56 63.54 151.78 68.18 155.39 70.48 C 161.79 73.19 166.43 63.19 172.85 67.12 C 175.19 70.84 174.63 75.73 172.59 79.47 C 169.05 86.27 166.13 93.77 159.90 98.62 C 158.23 96.57 156.99 94.22 155.43 92.09 C 155.14 96.93 155.71 101.94 153.61 106.48 C 147.52 117.82 137.43 126.53 125.92 132.06 C 118.06 133.04 109.21 129.84 104.74 123.12 C 103.91 118.74 98.75 116.47 98.92 111.82 C 103.11 116.33 109.68 115.65 113.89 111.52 C 116.07 111.29 118.23 111.66 120.38 111.98 C 118.95 109.23 115.66 108.43 113.11 107.05 C 109.66 105.72 106.14 103.63 102.32 104.21 C 101.61 104.87 100.93 105.56 100.28 106.28 C 100.48 107.91 100.06 108.95 99.04 109.40 C 98.98 107.14 98.41 104.98 97.49 102.93 C 98.23 100.29 99.09 97.69 99.83 95.05 C 102.64 94.52 105.45 93.92 108.32 93.86 C 106.90 90.97 102.84 91.49 101.17 93.91 C 100.48 93.59 99.09 92.94 98.39 92.61 C 94.12 85.23 104.27 78.98 103.31 71.45 C 101.91 69.56 100.48 67.22 97.93 66.86 C 95.33 66.10 92.81 67.72 90.17 67.38 C 87.93 63.03 88.81 58.37 89.48 53.77 C 93.48 53.54 94.50 58.39 97.84 59.73 C 98.54 54.73 93.60 53.06 89.84 51.79 C 89.33 49.45 90.64 47.05 90.97 44.73 C 93.51 44.73 96.16 44.52 98.60 45.29 C 99.04 45.39 99.93 45.58 100.37 45.67 C 105.05 45.46 109.73 46.33 114.39 45.73 C 118.35 48.10 122.72 49.90 127.18 51.10 C 123.21 48.69 118.80 47.11 114.39 45.73 C 109.96 44.00 105.15 46.12 100.60 44.99 C 100.15 44.88 99.25 44.68 98.80 44.57 C 96.32 44.20 93.81 44.13 91.30 44.17 C 91.56 42.54 92.14 41.00 92.80 39.51 C 95.03 39.75 97.29 39.79 99.51 40.17 C 99.93 40.35 100.76 40.70 101.18 40.88 C 107.36 42.91 114.13 40.84 120.27 43.35 C 120.39 43.41 120.62 43.54 120.74 43.60 C 124.46 45.86 128.30 47.95 132.22 49.87 C 128.91 46.98 124.84 45.08 120.74 43.60 C 120.62 43.54 120.39 43.41 120.27 43.35 C 114.63 39.77 107.50 42.46 101.51 40.22 C 101.08 40.04 100.22 39.69 99.79 39.51 C 97.29 38.93 94.73 39.00 92.20 39.35 C 96.90 34.28 105.72 30.48 112.05 34.92 C 118.73 37.71 126.36 40.70 133.60 38.61 C 138.57 31.92 143.70 25.35 148.72 18.70 M 106.52 58.95 C 106.64 59.48 106.88 60.55 107.00 61.08 C 111.96 60.88 115.93 56.50 121.01 57.05 C 124.94 58.72 128.21 61.55 131.94 63.59 C 129.13 58.97 124.13 55.90 119.08 54.28 C 114.80 55.38 110.15 56.46 106.52 58.95 M 93.74 62.83 C 95.39 64.58 98.01 65.17 100.14 66.26 C 98.70 64.24 96.17 63.11 93.74 62.83 M 115.18 65.17 C 115.14 65.50 115.04 66.15 115.00 66.47 C 118.99 66.21 122.99 66.29 126.97 66.07 L 127.13 65.06 C 123.15 64.94 119.15 64.80 115.18 65.17 M 111.86 67.46 C 113.13 69.82 114.49 72.15 115.29 74.73 C 116.15 75.35 117.05 75.90 118.00 76.39 C 120.61 75.25 122.20 71.99 119.37 70.20 C 121.18 71.62 124.18 72.20 125.72 73.84 C 122.72 78.49 112.57 78.59 113.64 71.37 C 112.14 75.02 114.84 80.16 119.02 80.18 C 117.85 79.42 116.70 78.60 115.59 77.73 C 120.15 78.97 127.87 77.16 127.78 71.50 C 123.62 68.96 118.70 66.76 113.75 68.30 C 113.28 68.09 112.33 67.67 111.86 67.46 M 164.78 72.69 C 163.79 74.56 161.31 74.09 160.11 75.73 C 161.57 75.83 163.02 75.60 164.44 75.23 C 165.92 73.11 167.79 70.49 170.74 70.82 C 171.48 72.01 172.16 73.23 173.00 74.35 C 172.96 73.57 172.89 72.02 172.86 71.24 C 170.43 68.65 166.47 70.00 164.78 72.69 M 169.88 72.02 C 170.14 74.68 170.75 77.30 170.50 79.99 C 171.58 77.54 172.85 73.44 169.88 72.02 M 164.17 77.18 C 163.68 79.58 165.77 81.60 165.21 84.02 C 164.24 86.78 162.50 89.15 160.85 91.53 C 159.82 90.97 158.78 90.42 157.74 89.88 C 158.01 93.39 162.07 93.25 163.21 90.37 C 167.16 87.18 168.03 80.75 164.17 77.18 M 156.21 86.14 C 158.13 86.44 159.89 82.13 160.17 85.92 C 161.33 85.43 162.45 84.84 163.58 84.28 C 163.54 82.97 163.46 81.67 163.39 80.37 C 162.73 81.46 161.81 82.00 160.62 81.99 C 161.20 80.76 161.57 79.48 161.72 78.14 C 159.30 80.22 158.24 83.63 156.21 86.14 M 109.91 84.74 C 110.49 86.85 111.25 88.92 111.69 91.07 C 111.32 91.48 110.57 92.32 110.19 92.73 C 110.69 92.54 111.68 92.17 112.17 91.98 C 114.55 97.26 119.51 100.62 122.86 105.21 C 123.29 107.82 123.14 110.49 123.27 113.14 C 125.90 111.95 123.82 107.52 124.03 105.00 C 120.94 100.72 116.46 97.51 114.02 92.74 C 113.10 89.85 112.58 86.61 109.91 84.74 M 121.09 112.19 C 119.56 115.25 124.35 112.39 121.09 112.19 M 121.73 122.02 C 126.44 122.24 130.90 119.29 133.10 115.24 C 129.56 117.97 125.81 120.29 121.73 122.02 M 116.38 116.08 C 117.10 121.06 122.93 120.17 125.22 116.89 C 123.38 117.14 121.75 118.10 119.98 118.60 C 118.76 117.78 117.58 116.92 116.38 116.08 M 104.75 121.02 C 106.09 120.16 107.34 119.14 108.78 118.45 C 112.36 120.33 115.52 122.87 118.97 124.97 C 116.90 121.12 112.42 119.47 108.87 117.26 C 106.98 117.44 104.84 118.95 104.75 121.02 Z" />
<path fill="#040404" opacity="1.00" d=" M 99.79 39.51 C 100.22 39.69 101.08 40.04 101.51 40.22 L 101.18 40.88 C 100.76 40.70 99.93 40.35 99.51 40.17 L 99.79 39.51 Z" />
<path fill="#392e34" opacity="1.00" d=" M 101.51 40.22 C 107.50 42.46 114.63 39.77 120.27 43.35 C 114.13 40.84 107.36 42.91 101.18 40.88 L 101.51 40.22 Z" />
<path fill="#171717" opacity="1.00" d=" M 120.27 43.35 C 120.39 43.41 120.62 43.54 120.74 43.60 C 120.62 43.54 120.39 43.41 120.27 43.35 Z" />
<path fill="#040404" opacity="1.00" d=" M 98.80 44.57 C 99.25 44.68 100.15 44.88 100.60 44.99 L 100.37 45.67 C 99.93 45.58 99.04 45.39 98.60 45.29 L 98.80 44.57 Z" />
<path fill="#392e34" opacity="1.00" d=" M 120.74 43.60 C 124.84 45.08 128.91 46.98 132.22 49.87 C 128.30 47.95 124.46 45.86 120.74 43.60 Z" />
<path fill="#392e34" opacity="1.00" d=" M 100.60 44.99 C 105.15 46.12 109.96 44.00 114.39 45.73 C 109.73 46.33 105.05 45.46 100.37 45.67 L 100.60 44.99 Z" />
<path fill="#54535f" opacity="1.00" d=" M 114.39 45.73 C 118.80 47.11 123.21 48.69 127.18 51.10 C 122.72 49.90 118.35 48.10 114.39 45.73 Z" />
<path fill="#040404" opacity="1.00" d=" M 106.52 58.95 C 110.15 56.46 114.80 55.38 119.08 54.28 C 124.13 55.90 129.13 58.97 131.94 63.59 C 128.21 61.55 124.94 58.72 121.01 57.05 C 115.93 56.50 111.96 60.88 107.00 61.08 C 106.88 60.55 106.64 59.48 106.52 58.95 Z" />
<path fill="#392e34" opacity="1.00" d=" M 93.74 62.83 C 96.17 63.11 98.70 64.24 100.14 66.26 C 98.01 65.17 95.39 64.58 93.74 62.83 Z" />
<path fill="#878787" opacity="1.00" d=" M 115.18 65.17 C 119.15 64.80 123.15 64.94 127.13 65.06 L 126.97 66.07 C 122.99 66.29 118.99 66.21 115.00 66.47 C 115.04 66.15 115.14 65.50 115.18 65.17 Z" />
<path fill="#070707" opacity="1.00" d=" M 111.86 67.46 C 112.33 67.67 113.28 68.09 113.75 68.30 C 118.70 66.76 123.62 68.96 127.78 71.50 C 127.87 77.16 120.15 78.97 115.59 77.73 C 116.70 78.60 117.85 79.42 119.02 80.18 C 114.84 80.16 112.14 75.02 113.64 71.37 C 112.57 78.59 122.72 78.49 125.72 73.84 C 124.18 72.20 121.18 71.62 119.37 70.20 C 122.20 71.99 120.61 75.25 118.00 76.39 C 117.05 75.90 116.15 75.35 115.29 74.73 C 114.49 72.15 113.13 69.82 111.86 67.46 M 117.11 72.03 C 116.62 73.61 117.18 74.19 118.79 73.75 C 119.33 72.13 118.77 71.56 117.11 72.03 Z" />
<path fill="#e3dedc" opacity="1.00" d=" M 90.89 69.17 C 94.85 68.12 89.96 73.22 90.89 69.17 Z" />
<path fill="#fbf9f9" opacity="1.00" d=" M 97.06 68.74 C 99.09 68.86 100.81 69.91 102.34 71.17 C 100.39 73.48 97.57 75.07 94.50 75.01 C 95.66 74.12 96.88 73.26 97.68 72.00 C 97.52 71.18 97.22 69.56 97.06 68.74 Z" />
<path fill="#010101" opacity="1.00" d=" M 164.78 72.69 C 166.47 70.00 170.43 68.65 172.86 71.24 C 172.89 72.02 172.96 73.57 173.00 74.35 C 172.16 73.23 171.48 72.01 170.74 70.82 C 167.79 70.49 165.92 73.11 164.44 75.23 C 163.02 75.60 161.57 75.83 160.11 75.73 C 161.31 74.09 163.79 74.56 164.78 72.69 Z" />
<path fill="#cfd2d6" opacity="1.00" d=" M 94.54 70.08 C 97.49 68.55 94.71 73.38 94.54 70.08 Z" />
<path fill="#8d8b95" opacity="1.00" d=" M 117.11 72.03 C 118.77 71.56 119.33 72.13 118.79 73.75 C 117.18 74.19 116.62 73.61 117.11 72.03 Z" />
<path fill="#fcfcfc" opacity="1.00" d=" M 92.72 75.21 C 96.10 76.06 99.56 75.20 102.15 72.87 C 102.01 73.66 101.73 75.24 101.59 76.03 L 100.55 76.34 L 99.71 76.55 C 99.52 76.60 99.12 76.71 98.92 76.76 C 97.80 76.85 95.40 76.21 95.28 77.87 C 96.47 78.37 97.65 78.21 98.82 77.37 C 99.05 77.69 99.51 78.35 99.74 78.67 L 99.84 79.47 C 97.43 83.97 93.76 90.15 98.69 94.35 C 98.29 96.58 98.10 99.04 96.50 100.80 C 94.03 92.62 88.62 83.77 92.72 75.21 Z" />
<path fill="#070707" opacity="1.00" d=" M 169.88 72.02 C 172.85 73.44 171.58 77.54 170.50 79.99 C 170.75 77.30 170.14 74.68 169.88 72.02 Z" />
<path fill="#010101" opacity="1.00" d=" M 98.92 76.76 C 99.12 76.71 99.52 76.60 99.71 76.55 C 99.52 76.60 99.12 76.71 98.92 76.76 Z" />
<path fill="#fefefe" opacity="1.00" d=" M 99.71 76.55 L 100.55 76.34 C 101.64 77.45 101.37 78.23 99.74 78.67 C 99.51 78.35 99.05 77.69 98.82 77.37 L 98.92 76.76 C 99.12 76.71 99.52 76.60 99.71 76.55 Z" />
<path fill="#010101" opacity="1.00" d=" M 95.28 77.87 C 95.40 76.21 97.80 76.85 98.92 76.76 L 98.82 77.37 C 97.65 78.21 96.47 78.37 95.28 77.87 Z" />
<path fill="#010101" opacity="1.00" d=" M 164.17 77.18 C 168.03 80.75 167.16 87.18 163.21 90.37 C 162.07 93.25 158.01 93.39 157.74 89.88 C 158.78 90.42 159.82 90.97 160.85 91.53 C 162.50 89.15 164.24 86.78 165.21 84.02 C 165.77 81.60 163.68 79.58 164.17 77.18 Z" />
<path fill="#2f242d" opacity="1.00" d=" M 156.21 86.14 C 158.24 83.63 159.30 80.22 161.72 78.14 C 161.57 79.48 161.20 80.76 160.62 81.99 C 161.81 82.00 162.73 81.46 163.39 80.37 C 163.46 81.67 163.54 82.97 163.58 84.28 C 162.45 84.84 161.33 85.43 160.17 85.92 C 159.89 82.13 158.13 86.44 156.21 86.14 Z" />
<path fill="#070707" opacity="1.00" d=" M 109.91 84.74 C 112.58 86.61 113.10 89.85 114.02 92.74 C 116.46 97.51 120.94 100.72 124.03 105.00 C 123.82 107.52 125.90 111.95 123.27 113.14 C 123.14 110.49 123.29 107.82 122.86 105.21 C 119.51 100.62 114.55 97.26 112.17 91.98 C 111.68 92.17 110.69 92.54 110.19 92.73 C 110.57 92.32 111.32 91.48 111.69 91.07 C 111.25 88.92 110.49 86.85 109.91 84.74 Z" />
<path fill="#fefefe" opacity="1.00" d=" M 159.63 99.74 C 162.20 98.42 163.98 96.08 166.08 94.18 C 166.14 96.74 166.83 99.36 166.10 101.89 C 164.80 106.42 166.63 111.05 167.26 115.55 C 167.24 115.86 167.20 116.49 167.18 116.81 C 166.82 120.66 166.18 124.39 164.34 127.83 C 165.87 129.72 167.42 131.65 166.57 134.31 C 164.56 135.64 162.27 136.90 162.17 139.61 C 161.63 138.49 161.07 137.38 160.50 136.28 L 159.81 136.46 C 157.66 137.72 155.68 139.27 153.61 140.66 C 152.19 141.57 150.74 142.45 149.36 143.43 C 145.30 145.24 140.99 147.40 139.04 151.67 L 138.60 152.46 C 137.47 152.52 136.34 152.56 135.20 152.58 C 132.90 149.73 129.52 148.64 125.94 148.60 C 123.57 147.93 121.24 147.11 118.97 146.16 C 118.84 143.91 118.20 141.31 115.45 141.28 C 114.89 139.21 113.48 137.53 112.37 135.74 C 112.17 134.83 111.76 133.01 111.55 132.10 C 111.89 131.92 112.58 131.55 112.93 131.36 C 119.59 133.61 128.14 135.16 133.58 129.51 C 142.08 124.24 148.44 116.42 154.15 108.35 C 155.76 104.43 156.39 100.17 156.48 95.95 C 157.52 97.22 158.56 98.50 159.63 99.74 M 162.22 129.01 C 161.72 130.73 161.30 132.47 161.01 134.24 C 163.23 135.72 164.33 133.41 165.52 131.91 C 164.73 130.70 163.89 129.01 162.22 129.01 Z" />
<path fill="#b5b3b1" opacity="1.00" d=" M 103.21 104.94 C 105.77 105.49 110.09 105.63 110.76 108.44 C 107.47 108.53 103.65 109.43 100.86 107.15 C 101.45 106.60 102.62 105.50 103.21 104.94 Z" />
<path fill="#b8b6b5" opacity="1.00" d=" M 100.37 109.30 C 105.14 109.14 109.92 109.44 114.69 109.58 C 111.90 111.34 109.29 113.65 105.95 114.22 C 103.32 114.41 100.19 112.08 100.37 109.30 Z" />
<path fill="#7a7a7a" opacity="1.00" d=" M 121.09 112.19 C 124.35 112.39 119.56 115.25 121.09 112.19 Z" />
<path fill="#b6b5b8" opacity="1.00" d=" M 168.09 113.87 C 168.49 114.24 169.27 114.98 169.66 115.35 C 169.77 116.59 170.60 117.56 171.76 117.98 C 172.05 118.23 172.64 118.73 172.94 118.98 C 171.14 120.11 169.31 121.23 167.27 121.89 C 167.24 120.19 167.21 118.50 167.18 116.81 C 167.20 116.49 167.24 115.86 167.26 115.55 C 167.46 115.13 167.88 114.29 168.09 113.87 Z" />
<path fill="#070707" opacity="1.00" d=" M 121.73 122.02 C 125.81 120.29 129.56 117.97 133.10 115.24 C 130.90 119.29 126.44 122.24 121.73 122.02 Z" />
<path fill="#5a5b56" opacity="1.00" d=" M 169.66 115.35 C 171.00 114.42 172.76 116.85 171.76 117.98 C 170.60 117.56 169.77 116.59 169.66 115.35 Z" />
<path fill="#070707" opacity="1.00" d=" M 116.38 116.08 C 117.58 116.92 118.76 117.78 119.98 118.60 C 121.75 118.10 123.38 117.14 125.22 116.89 C 122.93 120.17 117.10 121.06 116.38 116.08 Z" />
<path fill="#070707" opacity="1.00" d=" M 104.75 121.02 C 104.84 118.95 106.98 117.44 108.87 117.26 C 112.42 119.47 116.90 121.12 118.97 124.97 C 115.52 122.87 112.36 120.33 108.78 118.45 C 107.34 119.14 106.09 120.16 104.75 121.02 Z" />
<path fill="#010101" opacity="1.00" d=" M 167.18 116.81 C 167.21 118.50 167.24 120.19 167.27 121.89 C 169.31 121.23 171.14 120.11 172.94 118.98 C 173.20 120.24 173.03 121.94 174.52 122.51 C 184.44 128.12 195.82 131.13 204.93 138.17 C 216.49 146.18 231.55 148.06 241.96 157.92 C 244.56 167.07 252.62 174.83 251.52 184.85 C 234.73 185.06 217.90 185.19 201.10 184.76 C 205.76 183.37 209.70 180.50 213.74 177.91 C 222.98 172.93 234.02 171.09 241.97 163.88 C 242.73 158.17 237.26 155.26 233.13 152.76 C 225.29 149.02 217.34 145.51 209.19 142.52 C 204.28 141.01 201.41 136.24 196.82 134.14 C 188.65 130.41 180.47 126.70 172.30 122.98 C 172.29 125.07 172.65 127.19 172.16 129.25 C 170.81 129.51 169.44 129.74 168.09 130.01 C 168.43 130.35 169.10 131.05 169.44 131.39 C 167.40 134.88 165.80 138.83 162.45 141.31 C 162.48 142.21 162.53 143.12 162.58 144.03 C 161.16 143.16 159.81 142.09 158.10 141.93 C 157.52 144.35 159.58 144.80 161.47 144.61 C 161.46 145.81 161.43 147.00 161.37 148.20 C 161.67 148.67 162.27 149.62 162.57 150.09 C 161.73 151.29 160.95 152.53 160.25 153.82 C 160.55 151.68 160.80 149.53 160.80 147.38 C 157.05 146.51 158.61 150.93 158.37 152.96 C 158.16 152.49 157.74 151.55 157.53 151.08 C 157.48 150.79 157.38 150.21 157.33 149.92 C 157.58 149.55 158.07 148.79 158.32 148.41 C 157.19 148.00 156.05 147.61 154.91 147.24 C 155.84 147.32 157.72 147.48 158.65 147.57 C 159.28 145.05 156.52 143.49 155.36 141.55 C 157.52 141.36 159.68 141.47 161.83 141.57 C 161.72 139.69 160.60 138.11 159.81 136.46 L 160.50 136.28 C 161.07 137.38 161.63 138.49 162.17 139.61 C 162.27 136.90 164.56 135.64 166.57 134.31 C 167.42 131.65 165.87 129.72 164.34 127.83 C 166.18 124.39 166.82 120.66 167.18 116.81 M 166.09 129.45 C 167.35 129.52 168.60 129.42 169.84 129.13 C 169.81 127.88 169.04 127.32 167.54 127.45 C 167.59 126.67 167.63 125.89 167.68 125.12 C 165.34 124.87 166.68 128.08 166.09 129.45 M 159.30 146.19 C 159.98 146.88 159.98 146.88 159.30 146.19 Z" />
<path fill="#ffffff" opacity="1.00" d=" M 166.09 129.45 C 166.68 128.08 165.34 124.87 167.68 125.12 C 167.63 125.89 167.59 126.67 167.54 127.45 C 169.04 127.32 169.81 127.88 169.84 129.13 C 168.60 129.42 167.35 129.52 166.09 129.45 Z" />
<path fill="#656369" opacity="1.00" d=" M 162.22 129.01 C 163.89 129.01 164.73 130.70 165.52 131.91 C 164.33 133.41 163.23 135.72 161.01 134.24 C 161.30 132.47 161.72 130.73 162.22 129.01 Z" />
<path fill="#8d8b95" opacity="1.00" d=" M 108.83 133.76 C 109.51 133.35 110.87 132.52 111.55 132.10 C 111.76 133.01 112.17 134.83 112.37 135.74 C 111.87 136.11 110.87 136.86 110.37 137.23 C 109.55 136.06 108.53 135.70 107.33 136.14 C 106.32 137.78 109.00 138.36 110.11 137.87 C 111.64 140.03 112.25 142.60 111.59 145.20 C 111.16 144.75 110.30 143.85 109.87 143.40 C 109.16 142.66 108.27 142.34 107.20 142.45 C 106.63 142.42 105.48 142.35 104.91 142.31 C 104.98 139.53 104.63 135.27 107.83 134.11 L 108.29 134.37 C 108.34 134.40 108.46 134.46 108.52 134.50 L 108.59 134.32 L 108.83 133.76 Z" />
<path fill="#38373d" opacity="1.00" d=" M 108.29 134.37 L 108.59 134.32 L 108.52 134.50 C 108.46 134.46 108.34 134.40 108.29 134.37 Z" />
<path fill="#aeafb9" opacity="1.00" d=" M 107.33 136.14 C 108.53 135.70 109.55 136.06 110.37 137.23 L 110.11 137.87 C 109.00 138.36 106.32 137.78 107.33 136.14 Z" />
<path fill="#2f242d" opacity="1.00" d=" M 112.37 135.74 C 113.48 137.53 114.89 139.21 115.45 141.28 C 114.43 142.34 113.45 143.46 112.56 144.65 C 113.11 144.81 114.21 145.14 114.75 145.30 C 114.69 146.87 114.57 148.45 114.55 150.03 C 115.12 150.26 115.69 150.49 116.26 150.72 C 116.74 153.71 117.16 156.72 117.58 159.72 C 115.83 160.00 116.64 157.35 116.08 156.31 C 115.72 156.23 115.00 156.05 114.64 155.96 C 113.69 154.27 112.96 152.35 111.32 151.19 L 110.95 150.91 C 111.61 150.32 112.26 149.73 112.91 149.13 C 112.68 148.61 112.23 147.56 112.00 147.04 C 109.57 146.47 107.13 145.94 104.73 145.28 L 104.61 144.19 C 106.81 144.97 109.29 146.61 111.59 145.20 C 112.25 142.60 111.64 140.03 110.11 137.87 L 110.37 137.23 C 110.87 136.86 111.87 136.11 112.37 135.74 Z" />
<path fill="#c8c7c8" opacity="1.00" d=" M 153.61 140.66 C 155.68 139.27 157.66 137.72 159.81 136.46 C 160.60 138.11 161.72 139.69 161.83 141.57 C 159.68 141.47 157.52 141.36 155.36 141.55 C 156.52 143.49 159.28 145.05 158.65 147.57 C 157.72 147.48 155.84 147.32 154.91 147.24 C 156.05 147.61 157.19 148.00 158.32 148.41 C 158.07 148.79 157.58 149.55 157.33 149.92 C 156.00 150.17 154.67 150.36 153.34 150.54 C 152.82 149.10 153.82 146.44 152.04 145.92 C 151.90 148.04 151.84 150.17 151.75 152.29 C 151.17 152.08 150.02 151.67 149.44 151.46 C 148.92 148.07 151.19 144.76 154.79 144.81 C 154.42 143.42 154.02 142.03 153.61 140.66 Z" />
<path fill="#7a7b7a" opacity="1.00" d=" M 149.36 143.43 C 150.74 142.45 152.19 141.57 153.61 140.66 C 154.02 142.03 154.42 143.42 154.79 144.81 C 151.19 144.76 148.92 148.07 149.44 151.46 C 150.02 151.67 151.17 152.08 151.75 152.29 C 151.84 150.17 151.90 148.04 152.04 145.92 C 153.82 146.44 152.82 149.10 153.34 150.54 C 154.67 150.36 156.00 150.17 157.33 149.92 C 157.38 150.21 157.48 150.79 157.53 151.08 C 156.55 152.36 155.57 153.64 154.64 154.95 C 154.31 154.94 153.65 154.91 153.32 154.90 C 151.26 154.59 149.18 154.46 147.11 154.33 C 149.19 152.31 147.38 149.99 146.54 147.89 C 147.58 146.47 148.65 145.05 149.36 143.43 Z" />
<path fill="#6a6b6f" opacity="1.00" d=" M 107.20 142.45 C 108.27 142.34 109.16 142.66 109.87 143.40 C 111.14 146.32 105.29 144.52 107.20 142.45 Z" />
<path fill="#656369" opacity="1.00" d=" M 115.45 141.28 C 118.20 141.31 118.84 143.91 118.97 146.16 C 121.24 147.11 123.57 147.93 125.94 148.60 C 125.46 150.43 125.28 152.32 125.16 154.22 C 124.12 153.80 123.09 153.35 122.15 152.74 C 123.28 151.62 123.23 150.73 121.99 150.08 C 120.29 149.39 118.59 148.69 116.96 147.85 C 116.82 146.20 116.73 144.55 116.67 142.90 C 116.03 143.71 115.40 144.51 114.75 145.30 C 114.21 145.14 113.11 144.81 112.56 144.65 C 113.45 143.46 114.43 142.34 115.45 141.28 Z" />
<path fill="#bec0bf" opacity="1.00" d=" M 114.75 145.30 C 115.40 144.51 116.03 143.71 116.67 142.90 C 116.73 144.55 116.82 146.20 116.96 147.85 C 118.59 148.69 120.29 149.39 121.99 150.08 C 121.08 151.12 121.14 152.01 122.15 152.74 C 123.09 153.35 124.12 153.80 125.16 154.22 C 125.28 152.32 125.46 150.43 125.94 148.60 C 129.52 148.64 132.90 149.73 135.20 152.58 C 136.34 152.56 137.47 152.52 138.60 152.46 C 138.10 153.68 137.64 154.91 137.16 156.14 C 134.94 155.08 132.59 154.32 130.23 153.62 C 129.40 152.16 128.46 150.77 127.48 149.41 C 127.18 152.88 128.76 156.03 129.98 159.17 C 130.97 159.53 131.97 159.90 132.97 160.27 C 132.12 162.43 129.74 162.99 127.88 163.97 C 128.61 164.02 130.07 164.12 130.80 164.17 L 130.54 164.94 C 129.88 167.23 127.73 167.87 125.54 167.59 C 124.89 166.48 124.28 165.34 123.70 164.20 C 124.87 164.28 126.04 164.37 127.22 164.46 C 126.74 163.63 126.26 162.80 125.77 161.98 C 126.49 161.74 127.19 161.49 127.90 161.22 C 127.94 156.54 122.14 158.75 120.13 157.07 C 120.53 157.05 121.33 157.01 121.73 156.99 C 123.95 157.02 122.83 154.34 121.15 154.58 C 120.15 153.85 119.10 153.16 117.96 152.67 C 118.46 155.95 119.42 159.15 119.82 162.45 C 119.88 163.67 119.88 164.88 119.90 166.10 C 118.82 165.60 117.75 165.10 116.68 164.58 C 117.02 164.18 117.68 163.39 118.02 162.99 C 116.61 163.44 115.21 163.91 113.81 164.37 C 114.28 163.22 114.76 162.08 115.25 160.94 C 114.00 160.60 112.71 160.50 111.54 161.16 C 111.61 161.97 111.70 162.78 111.81 163.59 C 110.99 164.34 110.33 165.21 109.84 166.20 C 109.33 163.97 107.21 163.51 105.25 163.38 C 100.41 163.06 102.89 157.16 103.11 154.16 C 103.41 154.15 104.03 154.11 104.34 154.10 C 104.84 153.05 105.34 152.00 105.85 150.96 C 106.38 150.77 107.44 150.38 107.97 150.18 C 108.97 150.42 109.96 150.66 110.95 150.91 L 111.32 151.19 C 109.67 152.36 109.15 154.26 109.45 156.19 L 109.46 156.34 C 109.54 156.35 109.70 156.36 109.79 156.36 C 111.41 156.65 113.04 156.28 114.64 155.96 C 115.00 156.05 115.72 156.23 116.08 156.31 C 116.64 157.35 115.83 160.00 117.58 159.72 C 117.16 156.72 116.74 153.71 116.26 150.72 C 115.69 150.49 115.12 150.26 114.55 150.03 C 114.57 148.45 114.69 146.87 114.75 145.30 M 105.19 157.28 C 103.76 157.54 103.09 159.67 104.15 160.69 C 106.11 161.82 107.18 157.58 105.19 157.28 M 111.04 158.33 C 109.47 161.29 114.38 158.51 111.04 158.33 M 108.67 159.73 C 108.35 160.10 107.71 160.85 107.40 161.22 C 108.60 164.75 112.29 158.31 108.67 159.73 Z" />
<path fill="#dadfe4" opacity="1.00" d=" M 139.04 151.67 C 140.99 147.40 145.30 145.24 149.36 143.43 C 148.65 145.05 147.58 146.47 146.54 147.89 C 147.38 149.99 149.19 152.31 147.11 154.33 C 149.18 154.46 151.26 154.59 153.32 154.90 C 153.15 155.47 152.80 156.63 152.62 157.20 C 148.88 158.02 145.40 151.87 141.95 155.17 C 144.70 155.54 147.32 156.53 149.64 158.05 C 149.59 159.01 149.55 159.96 149.52 160.93 C 149.99 160.01 150.46 159.09 150.92 158.17 C 155.23 160.41 149.27 163.59 146.53 163.88 C 146.65 165.20 146.77 166.52 146.98 167.83 C 146.12 167.65 145.27 167.49 144.41 167.35 C 143.98 169.01 143.60 170.68 143.22 172.35 C 140.64 172.61 138.01 172.49 135.50 171.84 C 134.78 169.64 135.55 167.65 136.93 165.94 C 135.99 165.63 135.04 165.33 134.10 165.05 C 133.82 164.51 133.25 163.43 132.97 162.89 C 133.79 161.86 134.59 160.82 135.43 159.81 C 136.29 159.62 137.15 159.44 138.02 159.26 C 137.47 158.35 136.96 157.40 136.15 156.72 C 134.27 156.83 132.38 156.94 130.50 156.71 C 130.43 155.94 130.30 154.40 130.23 153.62 C 132.59 154.32 134.94 155.08 137.16 156.14 C 139.08 158.90 142.71 160.50 145.97 159.27 C 144.44 158.79 142.91 158.32 141.39 157.82 C 140.52 155.80 139.75 153.74 139.04 151.67 M 138.26 169.20 C 136.47 169.56 137.26 172.25 138.97 171.43 C 140.71 171.08 139.89 168.38 138.26 169.20 Z" />
<path fill="#9a9aa0" opacity="1.00" d=" M 102.06 145.92 C 102.92 145.53 103.81 145.32 104.73 145.28 C 107.13 145.94 109.57 146.47 112.00 147.04 C 112.23 147.56 112.68 148.61 112.91 149.13 C 112.26 149.73 111.61 150.32 110.95 150.91 C 109.96 150.66 108.97 150.42 107.97 150.18 C 108.09 149.90 108.31 149.33 108.43 149.05 C 107.71 148.64 106.97 148.26 106.22 147.92 C 105.92 147.81 105.32 147.58 105.02 147.46 C 103.99 148.11 102.97 148.77 101.96 149.44 C 101.98 148.56 102.04 146.80 102.06 145.92 Z" />
<path fill="#b5b7b4" opacity="1.00" d=" M 159.30 146.19 C 159.98 146.88 159.98 146.88 159.30 146.19 Z" />
<path fill="#656369" opacity="1.00" d=" M 106.22 147.92 C 106.97 148.26 107.71 148.64 108.43 149.05 C 108.31 149.33 108.09 149.90 107.97 150.18 C 107.44 150.38 106.38 150.77 105.85 150.96 C 105.34 152.00 104.84 153.05 104.34 154.10 C 104.03 154.11 103.41 154.15 103.11 154.16 C 102.59 153.89 101.57 153.35 101.05 153.08 C 102.67 151.26 104.31 149.44 106.22 147.92 Z" />
<path fill="#c8c7c8" opacity="1.00" d=" M 158.37 152.96 C 158.61 150.93 157.05 146.51 160.80 147.38 C 160.80 149.53 160.55 151.68 160.25 153.82 C 160.95 152.53 161.73 151.29 162.57 150.09 C 166.68 151.57 162.16 155.78 163.20 158.65 C 164.96 160.55 169.35 161.14 168.87 164.32 C 167.46 165.77 166.25 167.41 164.67 168.66 C 163.48 167.59 162.35 166.47 161.21 165.35 L 160.72 164.88 C 160.65 164.80 160.49 164.64 160.42 164.56 L 160.37 164.82 C 160.15 166.07 159.91 167.32 159.64 168.56 C 159.37 168.73 158.82 169.07 158.55 169.24 C 158.53 166.70 157.92 164.26 156.32 162.25 L 155.95 161.60 L 155.54 160.72 L 155.22 160.06 C 155.83 159.86 157.05 159.45 157.67 159.25 C 157.92 159.90 158.44 161.22 158.70 161.88 C 159.13 160.74 159.53 159.60 159.90 158.44 C 159.29 158.28 158.08 157.95 157.48 157.79 C 157.95 156.49 158.77 155.21 158.46 153.78 L 158.37 152.96 M 161.45 161.33 C 160.89 162.76 162.87 164.40 164.21 163.49 C 162.94 167.42 168.48 164.88 164.66 163.16 C 164.68 161.77 162.62 160.82 161.45 161.33 Z" />
<path fill="#f2ede5" opacity="1.00" d=" M 121.99 150.08 C 123.23 150.73 123.28 151.62 122.15 152.74 C 121.14 152.01 121.08 151.12 121.99 150.08 Z" />
<path fill="#54535f" opacity="1.00" d=" M 127.48 149.41 C 128.46 150.77 129.40 152.16 130.23 153.62 C 130.30 154.40 130.43 155.94 130.50 156.71 C 132.38 156.94 134.27 156.83 136.15 156.72 C 136.96 157.40 137.47 158.35 138.02 159.26 C 137.15 159.44 136.29 159.62 135.43 159.81 C 134.59 160.82 133.79 161.86 132.97 162.89 C 132.43 163.21 131.34 163.85 130.80 164.17 C 130.07 164.12 128.61 164.02 127.88 163.97 C 129.74 162.99 132.12 162.43 132.97 160.27 C 131.97 159.90 130.97 159.53 129.98 159.17 C 128.76 156.03 127.18 152.88 127.48 149.41 Z" />
<path fill="#8a8f95" opacity="1.00" d=" M 109.45 156.19 C 109.15 154.26 109.67 152.36 111.32 151.19 C 112.96 152.35 113.69 154.27 114.64 155.96 C 113.04 156.28 111.41 156.65 109.79 156.36 L 109.45 156.19 Z" />
<path fill="#54535f" opacity="1.00" d=" M 138.60 152.46 L 139.04 151.67 C 139.75 153.74 140.52 155.80 141.39 157.82 C 142.91 158.32 144.44 158.79 145.97 159.27 C 142.71 160.50 139.08 158.90 137.16 156.14 C 137.64 154.91 138.10 153.68 138.60 152.46 Z" />
<path fill="#ece9e6" opacity="1.00" d=" M 154.64 154.95 C 155.57 153.64 156.55 152.36 157.53 151.08 C 157.74 151.55 158.16 152.49 158.37 152.96 L 158.46 153.78 C 157.38 155.18 156.27 156.58 155.10 157.91 C 154.98 157.17 154.75 155.69 154.64 154.95 Z" />
<path fill="#737079" opacity="1.00" d=" M 117.96 152.67 C 119.10 153.16 120.15 153.85 121.15 154.58 C 120.90 155.21 120.39 156.45 120.13 157.07 C 122.14 158.75 127.94 156.54 127.90 161.22 C 127.19 161.49 126.49 161.74 125.77 161.98 C 123.79 162.13 121.80 162.25 119.82 162.45 C 119.42 159.15 118.46 155.95 117.96 152.67 Z" />
<path fill="#392e34" opacity="1.00" d=" M 141.95 155.17 C 145.40 151.87 148.88 158.02 152.62 157.20 C 153.24 158.36 154.22 159.24 155.22 160.06 L 155.54 160.72 C 152.03 161.73 149.89 165.48 150.38 169.03 C 149.48 169.05 148.58 169.06 147.69 169.06 C 147.51 168.76 147.16 168.14 146.98 167.83 C 146.77 166.52 146.65 165.20 146.53 163.88 C 149.27 163.59 155.23 160.41 150.92 158.17 C 150.46 159.09 149.99 160.01 149.52 160.93 C 149.55 159.96 149.59 159.01 149.64 158.05 C 147.32 156.53 144.70 155.54 141.95 155.17 Z" />
<path fill="#aaa9a9" opacity="1.00" d=" M 158.46 153.78 C 158.77 155.21 157.95 156.49 157.48 157.79 C 158.08 157.95 159.29 158.28 159.90 158.44 C 159.53 159.60 159.13 160.74 158.70 161.88 C 158.44 161.22 157.92 159.90 157.67 159.25 C 157.05 159.45 155.83 159.86 155.22 160.06 C 154.22 159.24 153.24 158.36 152.62 157.20 C 152.80 156.63 153.15 155.47 153.32 154.90 C 153.65 154.91 154.31 154.94 154.64 154.95 C 154.75 155.69 154.98 157.17 155.10 157.91 C 156.27 156.58 157.38 155.18 158.46 153.78 Z" />
<path fill="#f7f0f6" opacity="1.00" d=" M 120.13 157.07 C 120.39 156.45 120.90 155.21 121.15 154.58 C 121.30 155.19 121.59 156.39 121.73 156.99 C 121.33 157.01 120.53 157.05 120.13 157.07 Z" />
<path fill="#888586" opacity="1.00" d=" M 121.15 154.58 C 122.83 154.34 123.95 157.02 121.73 156.99 C 121.59 156.39 121.30 155.19 121.15 154.58 Z" />
<path fill="#322d31" opacity="1.00" d=" M 109.45 156.19 L 109.79 156.36 C 109.70 156.36 109.54 156.35 109.46 156.34 L 109.45 156.19 Z" />
<path fill="#857d82" opacity="1.00" d=" M 105.19 157.28 C 107.18 157.58 106.11 161.82 104.15 160.69 C 103.09 159.67 103.76 157.54 105.19 157.28 Z" />
<path fill="#8f9195" opacity="1.00" d=" M 111.04 158.33 C 114.38 158.51 109.47 161.29 111.04 158.33 Z" />
<path fill="#868999" opacity="1.00" d=" M 108.67 159.73 C 112.29 158.31 108.60 164.75 107.40 161.22 C 107.71 160.85 108.35 160.10 108.67 159.73 Z" />
<path fill="#d5ddeb" opacity="1.00" d=" M 107.40 161.22 C 107.71 160.85 108.35 160.10 108.67 159.73 C 108.35 160.10 107.71 160.85 107.40 161.22 Z" />
<path fill="#2f242d" opacity="1.00" d=" M 111.54 161.16 C 112.71 160.50 114.00 160.60 115.25 160.94 C 114.76 162.08 114.28 163.22 113.81 164.37 C 115.21 163.91 116.61 163.44 118.02 162.99 C 117.68 163.39 117.02 164.18 116.68 164.58 C 115.17 165.30 113.72 166.14 112.51 167.32 C 112.29 166.07 112.04 164.82 111.81 163.59 C 111.70 162.78 111.61 161.97 111.54 161.16 Z" />
<path fill="#e3dedc" opacity="1.00" d=" M 150.38 169.03 C 149.89 165.48 152.03 161.73 155.54 160.72 L 155.95 161.60 C 154.60 162.00 153.84 162.85 153.68 164.15 C 154.65 166.04 156.20 163.31 156.32 162.25 C 157.92 164.26 158.53 166.70 158.55 169.24 C 156.87 170.22 155.20 171.20 153.53 172.18 C 152.52 171.61 151.52 171.04 150.51 170.47 C 150.48 170.11 150.41 169.39 150.38 169.03 Z" />
<path fill="#958e8b" opacity="1.00" d=" M 161.45 161.33 C 162.62 160.82 164.68 161.77 164.66 163.16 L 164.21 163.49 C 162.87 164.40 160.89 162.76 161.45 161.33 Z" />
<path fill="#cfd2d6" opacity="1.00" d=" M 119.82 162.45 C 121.80 162.25 123.79 162.13 125.77 161.98 C 126.26 162.80 126.74 163.63 127.22 164.46 C 126.04 164.37 124.87 164.28 123.70 164.20 C 124.28 165.34 124.89 166.48 125.54 167.59 C 126.32 168.89 127.14 170.18 127.95 171.47 C 127.10 171.34 126.26 171.21 125.42 171.08 C 125.63 170.08 125.17 167.50 123.66 168.55 C 122.72 169.47 123.33 170.85 123.89 171.79 C 119.76 171.63 115.52 169.75 111.70 172.33 C 111.36 171.08 111.04 169.82 110.69 168.58 C 109.46 168.90 108.24 169.24 107.02 169.60 L 106.43 169.77 C 106.05 167.64 105.68 165.50 105.25 163.38 C 106.56 164.71 107.73 166.23 109.32 167.26 L 109.84 166.20 C 110.33 165.21 110.99 164.34 111.81 163.59 C 112.04 164.82 112.29 166.07 112.51 167.32 C 113.72 166.14 115.17 165.30 116.68 164.58 C 117.75 165.10 118.82 165.60 119.90 166.10 C 119.88 164.88 119.88 163.67 119.82 162.45 M 122.20 163.24 C 122.72 163.76 122.72 163.76 122.20 163.24 Z" />
<path fill="#656369" opacity="1.00" d=" M 153.68 164.15 C 153.84 162.85 154.60 162.00 155.95 161.60 L 156.32 162.25 C 156.20 163.31 154.65 166.04 153.68 164.15 Z" />
<path fill="#54535f" opacity="1.00" d=" M 105.25 163.38 C 107.21 163.51 109.33 163.97 109.84 166.20 L 109.32 167.26 C 107.73 166.23 106.56 164.71 105.25 163.38 Z" />
<path fill="#98979f" opacity="1.00" d=" M 122.20 163.24 C 122.72 163.76 122.72 163.76 122.20 163.24 Z" />
<path fill="#ecebf0" opacity="1.00" d=" M 130.80 164.17 C 131.34 163.85 132.43 163.21 132.97 162.89 C 133.25 163.43 133.82 164.51 134.10 165.05 C 133.18 166.21 131.26 166.47 130.54 164.94 L 130.80 164.17 Z" />
<path fill="#f9f7f1" opacity="1.00" d=" M 164.21 163.49 L 164.66 163.16 C 168.48 164.88 162.94 167.42 164.21 163.49 Z" />
<path fill="#838280" opacity="1.00" d=" M 160.42 164.56 C 160.49 164.64 160.65 164.80 160.72 164.88 L 160.37 164.82 L 160.42 164.56 Z" />
<path fill="#656369" opacity="1.00" d=" M 125.54 167.59 C 127.73 167.87 129.88 167.23 130.54 164.94 C 131.26 166.47 133.18 166.21 134.10 165.05 C 135.04 165.33 135.99 165.63 136.93 165.94 C 135.55 167.65 134.78 169.64 135.50 171.84 C 138.01 172.49 140.64 172.61 143.22 172.35 C 143.60 170.68 143.98 169.01 144.41 167.35 C 145.27 167.49 146.12 167.65 146.98 167.83 C 147.16 168.14 147.51 168.76 147.69 169.06 C 148.58 169.06 149.48 169.05 150.38 169.03 C 150.41 169.39 150.48 170.11 150.51 170.47 C 149.68 170.93 148.84 171.39 148.01 171.86 C 147.77 172.74 147.52 173.62 147.27 174.50 C 146.59 174.60 145.91 174.71 145.24 174.84 C 145.02 175.06 144.56 175.50 144.33 175.72 C 143.94 176.02 143.16 176.63 142.76 176.94 C 141.82 176.35 140.86 175.79 139.90 175.24 C 138.90 175.76 137.92 176.31 136.93 176.85 C 134.92 177.00 132.22 176.99 131.63 174.57 C 132.89 173.16 134.07 171.56 133.50 169.57 C 133.03 169.40 132.08 169.05 131.61 168.88 C 133.25 170.71 133.18 173.28 131.12 174.81 C 130.33 174.75 128.74 174.63 127.94 174.57 C 128.88 174.83 129.83 175.10 130.78 175.36 C 130.86 175.95 131.02 177.12 131.11 177.70 C 130.58 178.83 129.88 179.82 129.01 180.68 C 127.15 179.99 125.35 178.82 123.28 179.01 C 122.53 179.94 121.98 180.98 121.61 182.14 C 120.67 178.82 122.64 173.63 118.28 172.44 C 116.77 174.44 119.05 177.05 116.97 178.76 C 114.68 177.14 112.53 175.09 111.70 172.33 C 115.52 169.75 119.76 171.63 123.89 171.79 C 124.27 171.62 125.03 171.26 125.42 171.08 C 126.26 171.21 127.10 171.34 127.95 171.47 C 127.14 170.18 126.32 168.89 125.54 167.59 M 126.31 173.22 C 126.81 173.74 126.81 173.74 126.31 173.22 M 136.24 174.31 C 136.80 174.87 136.80 174.87 136.24 174.31 M 142.25 175.17 C 142.84 175.76 142.84 175.76 142.25 175.17 M 123.06 176.24 C 121.52 179.22 126.37 176.43 123.06 176.24 M 126.25 176.27 C 126.75 176.77 126.75 176.77 126.25 176.27 M 128.33 178.18 C 128.85 178.70 128.85 178.70 128.33 178.18 Z" />
<path fill="#fbf9f9" opacity="1.00" d=" M 160.37 164.82 L 160.72 164.88 L 161.21 165.35 C 161.48 167.08 161.70 168.83 161.99 170.56 C 163.05 170.58 164.10 170.61 165.16 170.64 C 165.06 171.07 164.85 171.92 164.74 172.35 C 162.77 173.30 161.08 174.66 160.76 176.95 C 161.98 176.92 163.20 176.87 164.42 176.83 C 162.97 177.48 161.51 178.09 160.02 178.64 C 159.13 176.74 160.18 174.99 161.10 173.36 C 160.14 173.40 159.17 173.45 158.21 173.49 C 158.69 171.85 159.23 170.22 159.64 168.56 C 159.91 167.32 160.15 166.07 160.37 164.82 Z" />
<path fill="#b1a59e" opacity="1.00" d=" M 164.67 168.66 C 166.25 167.41 167.46 165.77 168.87 164.32 C 169.40 166.50 168.63 168.58 166.78 169.80 C 168.03 172.70 165.91 174.91 165.78 177.68 C 162.53 179.63 159.32 181.65 157.22 184.91 C 155.54 183.74 153.72 182.82 151.84 182.03 C 151.39 181.17 150.99 180.29 150.63 179.39 C 151.67 179.73 152.66 179.76 153.61 179.47 C 153.59 178.40 153.53 177.34 153.48 176.27 C 153.43 174.91 153.48 173.54 153.53 172.18 C 155.20 171.20 156.87 170.22 158.55 169.24 C 158.82 169.07 159.37 168.73 159.64 168.56 C 159.23 170.22 158.69 171.85 158.21 173.49 C 159.17 173.45 160.14 173.40 161.10 173.36 C 160.18 174.99 159.13 176.74 160.02 178.64 C 161.51 178.09 162.97 177.48 164.42 176.83 C 163.20 176.87 161.98 176.92 160.76 176.95 C 161.08 174.66 162.77 173.30 164.74 172.35 C 164.85 171.92 165.06 171.07 165.16 170.64 C 164.10 170.61 163.05 170.58 161.99 170.56 C 161.70 168.83 161.48 167.08 161.21 165.35 C 162.35 166.47 163.48 167.59 164.67 168.66 M 157.74 176.48 C 157.33 174.54 156.96 172.60 156.63 170.65 C 155.25 172.48 154.48 176.25 157.74 176.48 M 155.51 179.08 C 154.95 180.18 155.87 181.76 157.04 182.01 C 158.77 181.48 156.93 178.30 155.51 179.08 M 158.31 179.20 C 158.83 179.73 158.83 179.73 158.31 179.20 Z" />
<path fill="#2f242d" opacity="1.00" d=" M 107.02 169.60 C 108.24 169.24 109.46 168.90 110.69 168.58 C 111.04 169.82 111.36 171.08 111.70 172.33 C 112.53 175.09 114.68 177.14 116.97 178.76 C 117.07 178.97 117.28 179.38 117.38 179.59 C 116.90 179.63 115.95 179.70 115.47 179.73 C 112.39 176.59 109.56 173.19 107.02 169.60 Z" />
<path fill="#f0f1f2" opacity="1.00" d=" M 123.66 168.55 C 125.17 167.50 125.63 170.08 125.42 171.08 C 125.03 171.26 124.27 171.62 123.89 171.79 C 123.33 170.85 122.72 169.47 123.66 168.55 Z" />
<path fill="#565062" opacity="1.00" d=" M 138.26 169.20 C 139.89 168.38 140.71 171.08 138.97 171.43 C 137.26 172.25 136.47 169.56 138.26 169.20 Z" />
<path fill="#c7c6c5" opacity="1.00" d=" M 148.01 171.86 C 148.84 171.39 149.68 170.93 150.51 170.47 C 151.52 171.04 152.52 171.61 153.53 172.18 C 153.48 173.54 153.43 174.91 153.48 176.27 C 152.91 176.35 151.77 176.51 151.20 176.59 C 150.36 174.46 148.34 175.75 147.05 176.62 C 146.37 176.39 145.01 175.94 144.33 175.72 C 144.56 175.50 145.02 175.06 145.24 174.84 C 145.91 174.71 146.59 174.60 147.27 174.50 C 147.52 173.62 147.77 172.74 148.01 171.86 Z" />
<path fill="#e3dedc" opacity="1.00" d=" M 157.74 176.48 C 154.48 176.25 155.25 172.48 156.63 170.65 C 156.96 172.60 157.33 174.54 157.74 176.48 Z" />
<path fill="#b6b5b8" opacity="1.00" d=" M 118.28 172.44 C 122.64 173.63 120.67 178.82 121.61 182.14 C 121.70 182.85 121.88 184.28 121.97 184.99 C 121.21 184.90 119.71 184.72 118.95 184.63 C 118.18 183.48 116.96 182.70 115.54 182.83 L 114.74 182.76 C 114.92 182.01 115.29 180.49 115.47 179.73 C 115.95 179.70 116.90 179.63 117.38 179.59 C 117.28 179.38 117.07 178.97 116.97 178.76 C 119.05 177.05 116.77 174.44 118.28 172.44 Z" />
<path fill="#93929a" opacity="1.00" d=" M 126.31 173.22 C 126.81 173.74 126.81 173.74 126.31 173.22 Z" />
<path fill="#c7bbbc" opacity="1.00" d=" M 136.24 174.31 C 136.80 174.87 136.80 174.87 136.24 174.31 Z" />
<path fill="#bfbbbc" opacity="1.00" d=" M 136.93 176.85 C 137.92 176.31 138.90 175.76 139.90 175.24 C 140.86 175.79 141.82 176.35 142.76 176.94 C 142.45 178.68 142.12 180.42 141.73 182.15 L 141.18 181.70 C 140.48 181.12 139.79 180.53 139.11 179.93 C 138.18 179.06 137.54 177.94 136.93 176.85 Z" />
<path fill="#dbd8d3" opacity="1.00" d=" M 142.25 175.17 C 142.84 175.76 142.84 175.76 142.25 175.17 Z" />
<path fill="#9b9a95" opacity="1.00" d=" M 147.05 176.62 C 148.34 175.75 150.36 174.46 151.20 176.59 C 150.60 178.22 147.53 178.44 147.05 176.62 Z" />
<path fill="#a99796" opacity="1.00" d=" M 123.06 176.24 C 126.37 176.43 121.52 179.22 123.06 176.24 Z" />
<path fill="#928e8c" opacity="1.00" d=" M 126.25 176.27 C 126.75 176.77 126.75 176.77 126.25 176.27 Z" />
<path fill="#b2a697" opacity="1.00" d=" M 128.33 178.18 C 128.85 178.70 128.85 178.70 128.33 178.18 Z" />
<path fill="#d9d1cc" opacity="1.00" d=" M 155.51 179.08 C 156.93 178.30 158.77 181.48 157.04 182.01 C 155.87 181.76 154.95 180.18 155.51 179.08 Z" />
<path fill="#efe8e4" opacity="1.00" d=" M 158.31 179.20 C 158.83 179.73 158.83 179.73 158.31 179.20 Z" />
<path fill="#a59f9d" opacity="1.00" d=" M 139.11 179.93 C 139.79 180.53 140.48 181.12 141.18 181.70 C 142.25 182.59 143.18 183.63 143.99 184.76 C 142.41 184.91 140.82 185.00 139.24 184.98 C 139.10 183.30 139.06 181.61 139.11 179.93 Z" />
<path fill="#9c8e85" opacity="1.00" d=" M 128.22 182.96 C 126.99 181.13 130.99 179.79 130.83 182.14 C 129.98 182.50 129.11 182.77 128.22 182.96 Z" />
<path fill="#9d9d9f" opacity="1.00" d=" M 115.54 182.83 C 116.96 182.70 118.18 183.48 118.95 184.63 C 117.74 185.94 115.09 184.60 115.54 182.83 Z" />
<path fill="#bbb6ae" opacity="1.00" d=" M 128.22 182.96 C 129.11 182.77 129.98 182.50 130.83 182.14 C 133.14 184.99 126.95 186.59 128.22 182.96 Z" />
<path fill="#fb0304" opacity="1.00" d=" M 82.62 201.99 C 84.66 201.92 86.72 201.88 88.74 202.17 C 90.09 206.12 91.19 210.15 92.65 214.06 C 92.84 210.06 92.59 206.05 92.81 202.05 C 94.85 201.93 96.90 201.91 98.95 202.03 C 99.05 211.35 99.06 220.68 98.95 230.00 C 96.76 230.08 94.56 230.11 92.40 229.74 C 91.15 225.82 90.34 221.72 88.59 217.98 C 88.53 221.98 88.74 225.99 88.48 230.00 C 86.53 230.06 84.57 230.06 82.62 230.00 C 82.46 220.67 82.45 211.32 82.62 201.99 Z" />
<path fill="#fb0303" opacity="1.00" d=" M 107.22 202.23 C 111.53 201.10 117.62 202.94 118.20 208.00 C 118.52 213.31 118.55 218.67 118.19 223.98 C 117.04 232.12 102.67 232.15 101.42 224.05 C 101.08 218.76 101.23 213.44 101.45 208.15 C 101.56 205.02 104.40 202.90 107.22 202.23 M 108.75 207.35 C 108.88 213.20 108.36 219.09 109.02 224.91 C 109.43 224.87 110.27 224.81 110.69 224.77 C 111.02 218.87 110.92 212.94 110.70 207.03 C 110.21 207.11 109.24 207.27 108.75 207.35 Z" />
<path fill="#fa0303" opacity="1.00" d=" M 120.29 202.12 C 125.64 201.83 131.00 202.01 136.35 202.01 C 136.47 203.96 136.47 205.92 136.36 207.88 C 134.92 207.96 133.48 208.04 132.04 208.13 C 131.92 215.40 132.13 222.68 131.95 229.95 C 129.53 230.08 127.09 230.06 124.67 229.97 C 124.46 222.73 124.62 215.48 124.63 208.24 C 123.18 208.07 121.72 207.94 120.26 207.80 C 120.21 205.90 120.22 204.01 120.29 202.12 Z" />
<path fill="#f90404" opacity="1.00" d=" M 144.61 202.05 C 149.49 202.24 154.97 200.94 159.35 203.63 C 161.74 206.77 162.36 212.56 158.27 214.57 C 160.75 215.75 162.09 218.18 161.76 220.93 C 161.57 223.87 162.46 228.79 158.53 229.56 C 153.96 230.49 149.23 229.84 144.60 230.00 C 144.46 220.69 144.45 211.36 144.61 202.05 M 151.85 207.30 C 151.81 209.09 151.82 210.89 151.87 212.68 C 152.35 212.77 153.33 212.94 153.82 213.02 C 154.45 211.13 154.58 208.92 153.74 207.08 C 153.26 207.13 152.32 207.25 151.85 207.30 M 151.85 217.24 C 151.85 219.74 151.84 222.24 151.83 224.75 C 152.33 224.79 153.32 224.88 153.82 224.93 C 154.50 222.36 154.44 219.62 153.87 217.03 C 153.37 217.09 152.35 217.19 151.85 217.24 Z" />
<path fill="#fa0304" opacity="1.00" d=" M 166.65 202.26 C 170.03 201.72 173.49 201.97 176.90 202.09 C 178.49 211.37 179.83 220.70 181.38 230.00 C 178.94 230.05 176.50 230.06 174.06 229.96 C 174.00 228.31 173.97 226.66 173.91 225.01 C 172.64 224.96 171.37 224.96 170.10 225.01 C 170.04 226.66 170.01 228.31 169.94 229.96 C 167.60 230.08 165.24 230.07 162.90 229.94 C 163.94 220.69 165.58 211.51 166.65 202.26 M 171.83 208.43 C 171.42 212.30 170.46 216.15 170.54 220.06 C 171.26 220.06 172.71 220.05 173.43 220.05 C 173.04 216.28 173.13 211.68 171.83 208.43 Z" />
<path fill="#fb0203" opacity="1.00" d=" M 182.64 202.02 C 187.93 202.50 195.16 200.22 198.90 205.05 C 200.32 211.25 199.35 217.76 199.55 224.08 C 199.83 226.69 198.50 229.30 195.76 229.82 C 191.40 230.23 186.99 229.96 182.62 229.99 C 182.50 220.67 182.43 211.34 182.64 202.02 M 189.94 206.93 C 189.83 212.99 189.88 219.05 189.89 225.11 C 190.36 225.00 191.30 224.76 191.77 224.65 C 192.63 218.94 192.40 212.98 191.93 207.22 C 191.43 207.15 190.44 207.00 189.94 206.93 Z" />
<path fill="#f8fefc" opacity="1.00" d=" M 108.75 207.35 C 109.24 207.27 110.21 207.11 110.70 207.03 C 110.92 212.94 111.02 218.87 110.69 224.77 C 110.27 224.81 109.43 224.87 109.02 224.91 C 108.36 219.09 108.88 213.20 108.75 207.35 Z" />
<path fill="#f8fcfb" opacity="1.00" d=" M 151.85 207.30 C 152.32 207.25 153.26 207.13 153.74 207.08 C 154.58 208.92 154.45 211.13 153.82 213.02 C 153.33 212.94 152.35 212.77 151.87 212.68 C 151.82 210.89 151.81 209.09 151.85 207.30 Z" />
<path fill="#fcf9f4" opacity="1.00" d=" M 189.94 206.93 C 190.44 207.00 191.43 207.15 191.93 207.22 C 192.40 212.98 192.63 218.94 191.77 224.65 C 191.30 224.76 190.36 225.00 189.89 225.11 C 189.88 219.05 189.83 212.99 189.94 206.93 Z" />
<path fill="#f8fcfb" opacity="1.00" d=" M 171.83 208.43 C 173.13 211.68 173.04 216.28 173.43 220.05 C 172.71 220.05 171.26 220.06 170.54 220.06 C 170.46 216.15 171.42 212.30 171.83 208.43 Z" />
<path fill="#fbf9f9" opacity="1.00" d=" M 151.85 217.24 C 152.35 217.19 153.37 217.09 153.87 217.03 C 154.44 219.62 154.50 222.36 153.82 224.93 C 153.32 224.88 152.33 224.79 151.83 224.75 C 151.84 222.24 151.85 219.74 151.85 217.24 Z" />
</svg>
