<?xml version="1.0" encoding="UTF-8" ?>
<!DOCTYPE svg PUBLIC "-//W3C//DTD SVG 1.1//EN" "http://www.w3.org/Graphics/SVG/1.1/DTD/svg11.dtd">
<svg width="750pt" height="750pt" viewBox="0 0 750 750" version="1.1" xmlns="http://www.w3.org/2000/svg">
<g id="#ffffffff">
<path fill="#ffffff" opacity="1.00" d=" M 0.00 0.00 L 750.00 0.00 L 750.00 750.00 L 0.00 750.00 L 0.00 0.00 M 353.42 70.73 C 345.16 72.02 337.04 74.58 329.82 78.83 C 312.75 89.19 295.70 100.25 282.34 115.31 C 274.82 123.14 269.30 132.59 264.30 142.16 C 260.62 149.32 256.53 156.36 254.28 164.13 C 248.79 181.87 249.10 200.64 248.75 219.00 C 248.89 236.99 247.90 255.03 249.50 272.98 C 250.10 280.12 251.56 287.14 252.23 294.27 C 253.33 305.44 253.49 316.68 254.61 327.86 C 255.44 336.67 257.13 345.39 259.26 353.98 C 264.84 375.44 275.67 395.00 286.91 413.94 C 284.66 417.41 282.83 421.13 280.99 424.83 C 278.96 428.98 275.76 432.37 272.74 435.81 C 265.78 443.59 257.36 449.87 248.78 455.75 C 242.67 459.87 237.18 464.83 231.18 469.12 C 222.32 475.68 212.58 480.98 202.47 485.35 C 174.14 497.51 143.17 502.16 115.19 515.24 C 95.28 524.49 74.61 532.07 55.07 542.10 C 45.25 547.04 35.10 551.59 26.32 558.31 C 22.36 561.31 20.59 566.13 18.47 570.44 C 14.22 579.42 11.49 589.36 12.50 599.37 C 14.76 591.84 15.95 584.00 18.79 576.64 C 21.67 568.57 26.38 561.10 32.97 555.54 C 39.02 559.11 45.49 562.65 49.54 568.60 C 56.32 578.62 58.79 590.76 64.69 601.22 C 63.43 588.54 58.15 576.49 50.74 566.22 C 47.49 561.65 43.64 557.57 39.84 553.46 C 57.72 541.49 78.12 534.27 97.82 525.94 C 109.05 521.27 119.90 515.71 131.31 511.47 C 146.61 505.72 162.43 501.57 178.12 497.06 C 194.03 492.44 209.04 485.30 224.00 478.30 C 218.16 494.48 212.69 511.00 203.71 525.79 C 200.61 530.98 196.90 535.76 193.06 540.43 C 196.96 542.72 201.02 544.73 204.85 547.13 C 207.17 548.49 208.56 550.86 209.97 553.07 C 212.35 556.92 214.70 560.80 216.93 564.75 C 206.31 574.21 194.75 582.67 184.89 592.97 C 195.29 587.95 203.62 579.77 212.08 572.11 C 217.59 566.95 223.60 562.36 229.15 557.25 C 238.23 548.98 246.59 539.96 255.24 531.25 C 259.54 526.90 264.09 522.77 267.97 518.02 C 274.40 510.25 279.39 501.40 285.83 493.63 C 285.96 496.78 286.03 499.93 286.09 503.08 C 285.18 503.81 284.28 504.54 283.38 505.28 C 280.83 526.10 282.69 547.14 285.58 567.83 C 291.38 567.51 297.17 567.11 302.96 566.75 C 304.61 580.56 306.23 594.85 312.88 607.31 C 312.63 600.69 310.68 594.34 308.92 588.02 C 306.54 579.54 306.40 570.69 305.98 561.96 C 313.67 558.24 321.49 554.79 329.27 551.26 C 331.64 550.34 332.84 548.00 334.20 546.03 C 340.33 545.83 346.20 543.94 352.27 543.25 C 353.42 559.57 351.44 576.07 354.49 592.26 C 356.25 575.25 357.77 558.16 357.40 541.05 C 364.40 538.98 371.79 537.98 379.06 538.97 C 382.65 539.50 386.66 539.89 389.36 542.61 C 392.94 546.04 396.41 549.59 399.98 553.04 C 401.89 555.05 404.26 557.07 404.60 560.01 C 406.94 575.86 399.83 591.76 403.90 607.52 C 406.25 592.32 406.00 576.82 408.79 561.67 C 419.33 568.37 429.19 576.35 440.88 581.04 C 444.73 582.50 448.68 584.17 452.86 584.19 C 456.43 582.55 458.46 578.97 460.93 576.11 C 461.72 586.74 461.69 597.41 461.63 608.07 C 461.60 610.26 461.83 612.46 462.20 614.63 C 463.25 603.62 462.48 592.49 463.85 581.49 C 464.73 570.22 468.77 559.55 470.79 548.48 C 472.60 538.65 474.04 528.75 476.38 519.03 C 493.70 528.80 503.46 547.08 518.86 559.14 C 533.07 570.86 544.87 585.19 559.17 596.81 C 555.67 591.86 551.74 587.25 547.77 582.69 C 554.01 571.63 566.33 566.03 573.00 555.33 C 562.65 543.58 552.07 532.04 541.68 520.33 C 539.32 517.68 537.02 514.96 535.04 512.01 C 526.70 499.57 518.86 486.62 513.92 472.40 C 528.10 477.44 540.15 486.99 554.45 491.70 C 577.86 499.66 601.32 507.97 623.00 520.01 C 633.58 525.41 644.63 529.85 655.57 534.48 C 664.89 538.25 674.07 542.43 683.70 545.39 C 697.16 549.54 711.18 553.66 722.05 563.08 C 717.03 567.36 711.50 571.37 708.13 577.18 C 703.73 584.76 702.18 593.59 701.44 602.22 C 705.93 594.64 707.08 585.72 710.85 577.84 C 713.89 571.52 720.72 568.64 726.70 565.79 C 731.70 574.72 735.26 584.34 739.94 593.42 C 738.94 579.48 731.91 565.56 719.92 557.96 C 703.91 546.86 684.29 543.68 666.63 536.20 C 652.75 530.31 638.72 524.73 625.21 517.99 C 618.28 514.58 611.59 510.70 604.55 507.50 C 588.29 500.05 571.20 494.63 554.28 488.90 C 539.32 483.83 526.51 474.25 512.17 467.82 C 503.78 464.14 496.68 458.17 490.33 451.67 C 485.91 447.08 481.17 442.68 477.85 437.19 C 474.47 431.75 472.18 425.69 468.45 420.46 C 466.96 418.19 464.90 415.97 465.10 413.06 C 464.89 402.17 466.68 391.35 469.20 380.80 C 472.99 364.96 475.24 348.82 477.46 332.71 C 476.50 332.68 474.56 332.61 473.59 332.58 C 473.97 334.79 474.35 337.00 474.65 339.23 C 472.24 336.93 470.60 334.00 469.86 330.76 C 467.72 341.17 463.92 351.31 458.37 360.39 C 451.55 371.18 440.56 378.22 430.14 385.13 C 414.25 395.86 397.16 404.67 381.22 415.32 C 372.16 421.45 361.20 423.57 350.59 425.22 C 337.49 427.26 323.99 429.75 310.81 426.91 C 305.78 425.71 300.41 424.16 296.86 420.14 C 287.57 410.14 279.31 398.90 274.46 386.05 C 276.94 385.27 279.43 384.52 281.89 383.69 C 279.33 379.58 275.41 375.84 275.09 370.74 C 274.41 363.24 275.20 355.58 277.61 348.43 C 282.26 334.28 287.24 320.10 289.16 305.27 C 289.88 305.12 291.31 304.81 292.03 304.65 C 292.42 305.86 292.82 307.06 293.23 308.27 C 296.22 305.83 299.09 303.22 301.83 300.49 C 306.74 303.45 311.42 306.83 316.61 309.34 C 316.59 308.25 316.88 306.98 315.89 306.21 C 313.06 303.23 309.95 300.53 307.04 297.63 C 301.58 298.48 296.16 299.53 290.75 300.65 C 289.76 298.56 288.46 296.55 288.05 294.25 C 289.76 291.31 292.11 288.81 294.01 286.00 C 301.33 275.41 306.52 263.58 311.98 251.98 C 315.30 244.81 318.27 237.01 317.41 228.97 C 316.76 222.76 313.00 217.51 309.14 212.84 C 307.24 212.62 307.59 210.69 306.62 209.69 C 301.72 209.56 296.82 209.61 291.92 209.62 L 291.07 210.36 C 286.11 210.39 281.16 210.48 276.21 210.64 C 273.62 212.44 269.59 212.27 267.36 214.48 C 267.52 217.06 263.05 215.52 262.67 217.72 C 262.62 219.21 261.42 219.58 260.21 219.92 C 257.59 223.47 256.03 227.66 255.24 231.98 C 256.10 233.03 256.35 234.80 258.02 234.86 C 259.15 234.61 262.00 235.80 261.67 233.68 C 266.38 229.78 272.80 229.29 277.79 225.87 C 283.88 225.28 290.01 225.68 296.09 226.22 C 298.92 226.53 301.74 226.04 304.53 225.55 C 305.38 223.61 308.47 224.22 310.28 223.39 C 310.57 222.66 311.14 221.21 311.43 220.48 C 314.48 226.79 315.02 233.96 313.89 240.81 C 312.54 240.64 311.20 240.47 309.86 240.30 C 308.43 238.65 307.39 236.77 306.54 234.78 C 307.06 234.65 308.10 234.38 308.62 234.25 C 308.52 233.13 308.43 232.02 308.35 230.90 C 305.61 230.00 301.75 230.80 300.24 227.85 C 296.28 226.25 292.03 226.45 287.84 226.30 C 286.15 228.81 282.29 227.86 279.64 228.69 C 279.72 231.86 274.71 230.03 274.34 232.79 L 273.49 232.44 L 273.62 233.56 C 271.85 233.30 271.40 235.10 271.43 236.46 C 268.54 236.11 268.11 239.62 266.38 241.20 C 265.26 242.18 265.39 244.18 263.63 244.44 C 263.53 246.81 263.44 249.19 263.38 251.56 C 265.04 251.54 266.70 251.52 268.36 251.51 C 268.84 248.30 269.36 245.10 269.71 241.88 C 271.07 241.24 270.95 239.03 272.39 238.66 C 272.45 238.22 272.57 237.35 272.63 236.91 C 275.01 236.03 275.26 232.81 278.17 233.31 L 278.49 232.33 C 280.63 231.34 282.77 230.36 284.95 229.46 C 288.40 229.53 291.86 229.34 295.30 229.68 C 298.41 231.11 301.36 232.87 304.20 234.80 C 304.48 236.15 305.32 237.03 306.40 237.91 C 304.53 239.46 307.63 240.63 308.24 241.99 C 308.46 243.98 308.04 246.44 306.66 247.89 C 306.59 249.30 305.37 250.70 303.87 250.53 L 303.36 251.45 C 300.18 251.45 297.89 254.56 294.80 254.59 C 294.82 256.75 291.85 254.39 291.50 256.24 C 288.66 256.47 285.84 256.81 283.05 257.32 C 283.51 257.92 284.43 259.12 284.89 259.72 C 288.58 259.30 292.26 258.72 295.97 258.36 L 296.64 257.49 C 299.45 257.55 301.76 255.24 304.39 254.31 L 304.51 253.52 L 305.53 253.51 C 304.86 251.49 307.99 252.85 309.03 252.34 C 302.93 267.52 294.37 281.56 284.75 294.74 C 285.68 297.66 286.94 300.60 286.88 303.72 C 285.16 323.93 274.80 342.07 271.75 361.99 C 270.26 369.71 275.14 376.34 278.16 383.00 C 276.24 382.24 274.15 381.77 272.47 380.54 C 270.67 378.12 269.62 375.23 268.39 372.50 C 260.16 353.43 257.25 332.55 256.49 311.94 C 256.03 296.20 252.87 280.70 251.97 265.00 C 251.32 251.26 251.41 237.51 251.83 223.77 C 252.49 223.69 253.80 223.51 254.46 223.42 C 260.72 200.53 265.11 177.10 273.00 154.68 C 274.64 150.01 276.34 145.29 279.16 141.19 C 284.12 133.88 291.16 128.34 298.26 123.25 C 302.56 120.16 307.37 117.45 312.74 116.91 C 332.16 114.93 351.61 117.68 371.03 118.15 C 379.74 118.42 388.43 119.49 396.95 121.32 C 402.31 122.49 407.78 123.62 412.64 126.27 C 421.76 131.13 431.11 136.15 438.14 143.91 C 440.10 146.09 442.13 148.86 441.46 151.98 C 440.46 156.63 437.50 160.56 436.33 165.16 C 433.98 172.64 435.23 180.76 438.14 187.89 C 439.76 191.93 442.99 194.96 445.88 198.09 C 452.76 205.38 459.94 212.72 464.34 221.86 C 467.10 227.71 469.30 233.88 470.42 240.28 C 471.80 247.83 471.91 255.53 472.04 263.19 C 473.23 264.65 474.41 266.12 475.61 267.57 C 480.85 258.51 487.56 250.34 495.21 243.21 C 496.50 241.95 498.11 240.99 499.97 240.96 C 510.69 239.94 521.49 241.39 531.87 244.10 C 533.84 251.92 535.53 259.93 535.13 268.04 C 534.99 273.21 533.67 278.25 532.01 283.12 C 527.05 297.84 520.63 312.15 512.24 325.25 C 508.72 330.51 503.61 335.55 497.01 336.23 C 493.17 336.72 489.42 334.94 486.83 332.18 C 481.94 327.29 480.03 320.42 478.28 313.94 C 476.75 317.36 475.27 320.81 473.78 324.26 C 477.40 329.36 482.69 332.89 487.96 336.10 C 494.57 339.93 503.86 338.84 508.96 332.98 C 519.41 321.29 525.82 306.71 531.37 292.22 C 533.92 285.33 537.10 278.51 537.74 271.10 C 538.48 262.94 537.68 254.69 536.03 246.69 C 535.81 244.66 533.78 243.79 532.22 242.94 C 526.16 239.93 519.62 238.04 513.03 236.57 C 516.45 217.94 517.80 198.95 517.14 180.03 C 516.84 173.56 517.11 166.93 515.10 160.69 C 511.63 149.23 506.93 137.94 499.63 128.36 C 487.57 112.54 473.26 98.04 455.85 88.14 C 450.59 85.08 444.79 83.17 439.07 81.17 C 423.87 75.97 408.12 72.13 392.07 70.96 C 386.74 70.54 381.37 70.68 376.05 70.17 C 368.51 69.47 360.90 69.57 353.42 70.73 M 362.49 203.99 C 360.79 204.33 359.09 204.61 357.38 204.90 C 356.36 206.26 354.77 207.05 353.51 208.16 C 353.48 210.09 353.47 212.01 353.49 213.93 C 355.64 214.93 357.07 217.30 359.37 217.55 C 360.07 219.63 363.03 217.48 363.94 219.43 C 365.87 219.50 367.80 219.58 369.73 219.65 L 369.24 220.62 C 376.21 220.66 383.19 220.36 390.15 220.93 C 392.90 221.34 395.69 221.53 398.47 221.71 C 400.50 223.28 403.33 223.47 405.55 224.81 C 407.01 225.80 408.67 225.33 409.70 226.93 L 410.37 226.55 C 411.34 228.11 412.75 227.24 413.73 228.81 C 415.46 228.40 416.60 230.94 418.37 230.76 C 420.01 231.89 421.61 233.09 423.53 233.75 C 424.22 235.40 426.42 235.96 427.84 236.99 C 429.39 238.33 430.92 236.29 432.46 236.00 C 431.79 234.30 432.08 231.09 429.49 231.39 L 429.63 230.34 L 428.58 230.42 C 429.52 228.68 426.06 229.36 426.65 227.35 C 424.41 227.11 423.61 224.15 421.44 223.48 C 420.15 223.12 420.48 221.12 419.11 220.85 C 417.04 220.27 417.06 217.73 416.08 216.15 C 413.20 215.26 412.85 211.75 410.52 210.11 C 407.95 209.55 405.37 208.98 402.82 208.37 C 402.73 208.00 402.55 207.27 402.46 206.91 C 400.57 206.71 398.67 206.51 396.79 206.30 C 396.68 205.65 396.45 204.35 396.34 203.70 C 385.06 203.94 373.74 203.44 362.49 203.99 M 372.32 224.86 L 372.63 225.43 C 370.65 226.60 368.68 227.77 366.69 228.91 C 366.69 230.83 363.98 230.87 363.59 232.50 C 363.52 233.87 361.32 233.97 361.48 235.48 L 360.53 235.54 L 360.50 236.45 L 359.36 236.86 C 359.38 238.94 359.41 241.02 359.45 243.10 L 360.51 243.55 L 360.50 244.48 C 362.28 244.46 361.86 247.16 363.36 247.63 C 367.04 249.91 371.31 250.83 375.17 252.73 C 375.66 252.96 376.64 253.42 377.13 253.65 L 377.90 254.51 C 381.97 254.50 385.94 254.06 389.97 254.91 C 394.10 255.89 398.17 254.36 402.08 253.19 C 403.28 252.01 404.49 250.82 405.70 249.63 C 403.90 249.95 401.31 248.47 400.12 250.20 C 397.13 251.42 393.95 251.98 390.82 252.75 L 390.10 253.82 C 383.01 252.80 375.80 251.82 369.09 249.22 L 368.59 248.46 C 366.71 248.92 367.05 246.01 365.53 246.46 L 365.49 245.52 L 364.52 245.48 L 364.50 244.55 L 363.45 244.20 C 363.49 241.40 363.50 238.60 363.48 235.81 C 364.97 235.43 364.50 233.28 366.34 233.31 C 367.75 230.83 370.07 228.64 371.73 226.19 C 378.44 224.68 385.51 224.96 392.23 226.35 C 393.82 228.01 396.25 228.67 398.31 229.65 C 399.41 231.21 401.00 232.47 401.68 234.30 L 402.72 234.34 L 402.59 235.43 L 403.60 235.29 C 403.64 236.75 405.39 237.50 404.90 239.09 C 407.41 238.76 408.57 241.36 410.64 242.21 C 412.80 245.04 416.34 246.39 418.42 249.36 C 419.07 249.42 420.37 249.54 421.01 249.60 L 421.47 250.51 C 423.52 250.97 425.58 251.43 427.66 251.85 L 427.81 252.59 C 430.25 252.58 432.68 252.57 435.13 252.56 L 435.50 251.50 L 436.64 251.23 C 436.58 250.54 436.46 249.15 436.41 248.46 C 434.35 248.49 432.31 248.53 430.27 248.56 C 430.31 248.00 430.39 246.88 430.44 246.32 L 431.22 246.59 C 432.37 245.17 433.96 244.21 435.39 243.09 C 434.77 241.46 432.21 240.46 431.35 242.43 C 430.99 242.50 430.27 242.62 429.91 242.69 L 429.11 243.68 C 424.90 243.46 420.73 242.85 416.54 242.43 C 415.40 240.90 413.23 240.12 412.46 238.54 C 409.22 238.03 408.26 233.89 405.11 232.95 C 404.61 231.53 403.20 231.50 401.96 231.25 C 399.13 229.30 396.10 227.71 393.09 226.10 C 391.58 225.92 390.14 225.57 388.81 224.84 C 383.31 224.74 377.81 224.91 372.32 224.86 M 377.39 233.52 L 376.58 233.49 C 376.57 234.19 376.55 235.59 376.55 236.29 C 374.77 236.59 373.00 236.91 371.25 237.25 C 371.87 239.80 372.69 242.31 373.52 244.81 C 376.45 244.46 379.35 243.94 382.23 243.32 C 382.53 241.21 383.23 239.17 383.69 237.09 C 382.52 236.19 382.05 234.78 381.26 233.60 C 379.97 233.57 378.68 233.54 377.39 233.52 M 280.52 237.41 C 280.51 238.10 280.49 239.48 280.48 240.17 C 279.23 240.83 277.99 241.50 276.75 242.16 C 276.64 243.53 276.54 244.90 276.44 246.27 C 277.11 246.97 277.77 247.69 278.44 248.40 C 280.47 248.47 282.50 248.52 284.53 248.57 L 284.43 247.39 L 285.21 247.20 L 285.40 246.43 L 286.21 246.58 L 286.59 245.51 L 287.58 245.48 C 287.53 243.56 287.49 241.66 287.43 239.75 C 285.48 237.99 283.33 236.10 280.53 236.50 L 280.52 237.41 M 517.43 245.13 C 504.94 250.02 496.78 261.15 487.51 270.25 C 489.24 274.11 491.79 278.07 490.82 282.50 C 489.72 289.25 488.51 296.18 485.52 302.38 C 484.41 302.67 483.27 302.81 482.16 302.99 C 484.89 305.15 487.14 308.78 491.02 308.67 C 495.16 308.75 500.25 308.71 503.06 305.14 C 506.28 301.00 508.82 296.38 511.70 292.00 C 509.64 293.22 507.56 294.41 505.46 295.56 C 505.99 293.07 506.38 290.54 507.31 288.16 C 508.10 286.16 510.09 285.07 511.62 283.69 C 510.55 280.37 508.92 277.25 506.62 274.61 C 507.75 273.57 508.89 272.53 510.03 271.49 C 503.42 271.96 496.80 272.43 490.16 272.44 C 494.00 264.83 501.08 259.82 506.93 253.89 C 510.62 250.07 516.10 249.34 521.08 248.47 C 521.42 262.46 521.29 276.50 519.77 290.43 C 519.31 294.37 518.77 298.39 517.03 302.01 C 514.41 307.52 510.25 312.07 506.24 316.60 C 503.18 315.36 500.12 314.14 497.03 313.00 C 499.72 315.43 502.48 317.77 505.25 320.11 C 510.79 316.01 515.47 310.73 518.59 304.55 C 521.53 299.13 522.96 293.09 524.26 287.11 C 524.28 277.98 524.64 268.86 524.63 259.74 C 525.80 259.65 526.97 259.57 528.15 259.48 C 527.87 257.69 527.60 255.90 527.30 254.12 C 523.10 252.33 521.32 248.05 519.28 244.31 C 518.81 244.52 517.89 244.92 517.43 245.13 M 328.90 274.44 C 328.51 274.53 327.75 274.69 327.37 274.77 C 328.74 275.52 330.10 276.31 331.45 277.12 C 331.45 278.06 331.45 279.01 331.46 279.96 C 334.79 280.72 337.59 282.68 339.71 285.33 C 342.53 285.43 345.35 285.51 348.18 285.58 C 347.52 284.69 346.86 283.81 346.20 282.94 C 343.72 282.59 340.92 282.82 338.85 281.17 C 336.37 279.31 334.47 276.80 331.95 275.00 C 331.08 274.29 329.94 274.20 328.90 274.44 M 355.50 280.02 C 355.09 283.19 357.13 285.85 358.35 288.61 C 360.19 292.23 361.46 296.48 360.25 300.51 C 359.14 303.91 355.48 305.80 352.08 305.92 C 347.85 306.10 343.73 304.91 339.65 304.02 C 341.80 302.96 343.96 301.91 346.11 300.84 C 345.54 299.05 344.98 297.25 344.41 295.47 C 339.65 295.97 334.19 294.91 330.16 298.09 C 326.46 300.79 322.63 303.33 319.06 306.20 C 317.93 306.80 318.57 308.04 318.71 308.97 C 323.67 306.43 327.77 302.62 331.97 299.03 C 333.76 301.65 335.56 304.26 337.33 306.90 C 344.75 309.13 352.71 308.77 360.00 306.22 C 361.83 302.77 363.75 299.37 365.68 295.97 C 373.85 311.51 381.74 327.22 388.46 343.45 C 391.63 351.10 392.38 359.51 391.54 367.70 C 387.97 367.18 384.41 366.65 380.85 366.12 C 380.06 367.15 379.27 368.19 378.50 369.23 C 382.26 369.79 386.08 370.77 389.91 370.27 C 392.84 369.15 394.60 366.10 394.88 363.08 C 395.44 357.52 394.01 352.01 392.30 346.77 C 386.51 329.32 376.90 313.53 369.24 296.90 C 366.25 289.90 361.03 284.12 355.52 278.99 L 355.50 280.02 M 303.39 322.59 C 297.43 325.03 294.39 331.21 291.55 336.59 C 286.61 346.71 279.74 356.42 278.92 368.01 C 281.79 363.17 284.37 358.17 287.32 353.38 C 292.80 344.61 302.87 339.58 312.94 338.44 C 321.97 337.05 331.16 338.05 340.14 339.37 C 335.89 340.83 331.55 342.03 327.19 343.11 C 323.49 343.55 319.75 343.67 316.09 344.38 C 309.40 345.58 302.37 345.60 296.17 348.68 C 298.78 348.88 301.40 348.94 304.02 348.79 C 315.71 348.10 327.33 346.64 338.93 345.08 C 346.80 344.00 354.77 345.33 362.35 347.45 C 365.99 348.41 368.43 351.47 371.33 353.66 C 375.66 357.30 380.83 359.70 386.07 361.71 C 383.58 358.61 381.25 355.38 378.62 352.40 C 375.50 348.82 371.37 346.34 368.18 342.84 C 361.70 335.91 355.09 328.82 346.75 324.12 C 339.77 320.29 331.57 322.14 324.00 322.01 C 317.14 322.26 310.11 320.75 303.39 322.59 M 316.33 366.20 C 309.99 367.66 304.21 371.03 299.35 375.32 C 293.33 380.67 288.19 386.91 282.56 392.65 C 283.04 393.32 284.01 394.64 284.49 395.30 C 290.24 388.83 295.45 381.79 302.21 376.30 C 308.87 370.90 317.46 367.45 326.11 368.20 C 333.28 368.77 340.01 371.57 346.58 374.30 C 348.88 375.20 351.03 376.58 352.31 378.76 C 357.20 386.02 362.21 393.31 368.67 399.28 C 364.66 390.59 359.24 382.42 352.24 375.86 C 342.43 367.75 328.95 363.41 316.33 366.20 M 407.64 366.71 C 400.64 371.43 394.26 377.00 387.77 382.39 C 381.67 379.84 375.78 376.81 370.01 373.60 C 366.65 374.43 363.29 375.29 359.93 376.13 C 364.75 379.93 368.95 384.44 373.83 388.18 C 381.09 393.52 390.49 393.92 399.15 394.53 C 388.54 390.54 377.02 388.56 367.50 382.06 C 369.20 380.58 370.69 378.54 372.99 377.99 C 378.01 379.96 382.46 383.11 387.28 385.53 C 395.23 379.83 402.99 373.62 409.00 365.83 C 408.66 366.05 407.98 366.49 407.64 366.71 M 194.43 648.33 C 194.21 674.37 193.93 700.41 194.56 726.45 C 200.11 726.44 205.66 726.47 211.22 726.40 C 211.39 715.16 211.21 703.92 211.98 692.70 C 215.19 703.78 218.47 714.85 221.36 726.02 C 227.41 726.41 233.47 726.46 239.52 726.59 C 239.76 700.50 239.43 674.41 239.69 648.32 C 234.19 648.40 228.69 648.42 223.19 648.34 C 222.87 659.62 223.01 670.91 222.70 682.19 C 218.62 671.07 214.71 659.88 211.23 648.56 C 205.63 648.49 200.03 648.43 194.43 648.33 M 271.46 648.65 C 265.04 649.44 258.97 653.15 255.82 658.87 C 253.59 662.49 253.37 666.84 253.43 670.97 C 253.53 684.06 252.55 697.20 253.99 710.24 C 254.72 717.01 260.05 722.46 266.21 724.83 C 275.05 728.26 285.73 727.19 293.42 721.51 C 298.25 717.96 299.89 711.71 300.25 706.02 C 300.70 698.22 300.37 690.41 300.57 682.61 C 300.67 675.20 300.90 667.58 298.55 660.46 C 297.27 656.22 293.76 653.10 289.92 651.16 C 284.27 648.26 277.67 647.75 271.46 648.65 M 322.40 648.46 C 318.45 648.51 314.49 648.57 310.54 648.67 C 310.48 653.69 310.50 658.71 310.44 663.73 C 314.50 663.85 318.56 664.02 322.62 664.24 C 322.48 684.98 322.44 705.72 322.64 726.45 C 329.44 726.49 336.24 726.37 343.05 726.23 C 342.70 705.53 342.68 684.83 343.03 664.14 C 346.98 664.06 350.92 663.98 354.88 663.92 C 354.81 658.73 354.76 653.55 354.71 648.37 C 343.94 648.43 333.17 648.26 322.40 648.46 M 387.20 648.25 C 386.83 674.35 386.76 700.46 387.23 726.56 C 399.18 726.23 411.20 727.51 423.09 725.89 C 427.47 725.45 431.92 722.76 433.05 718.29 C 434.86 710.65 434.81 702.64 433.92 694.89 C 433.68 690.01 429.26 687.21 426.10 684.15 C 429.31 680.40 432.34 676.11 432.69 671.03 C 433.71 663.21 430.28 655.59 425.07 649.93 C 412.49 648.57 399.84 648.03 387.20 648.25 M 502.47 648.50 L 501.70 648.52 C 501.53 674.46 501.35 700.40 501.79 726.33 C 512.09 726.48 522.40 727.10 532.70 726.39 C 535.50 726.15 538.36 725.91 541.02 724.91 C 544.43 723.58 546.87 720.35 547.58 716.80 C 549.12 709.30 548.59 701.59 548.62 694.00 C 548.44 684.64 548.99 675.28 548.53 665.93 C 548.35 662.28 547.86 658.42 545.59 655.43 C 542.96 651.68 538.53 649.65 534.09 649.10 C 523.61 647.66 513.00 648.30 502.47 648.50 M 452.96 648.65 C 450.07 674.66 445.19 700.40 442.29 726.40 C 448.71 726.45 455.14 726.40 461.56 726.46 C 461.70 722.28 461.73 718.10 461.78 713.93 C 465.57 713.88 469.36 713.84 473.15 713.82 C 473.19 718.07 473.21 722.32 473.26 726.58 C 479.80 726.42 486.34 726.46 492.88 726.57 C 490.10 700.45 485.00 674.65 481.07 648.70 C 471.70 648.41 462.33 648.42 452.96 648.65 Z" />
<path fill="#ffffff" opacity="1.00" d=" M 492.69 275.50 C 495.23 277.31 496.22 280.13 496.32 283.15 C 496.72 283.40 497.53 283.92 497.93 284.18 C 500.20 290.08 502.26 296.06 504.11 302.11 C 499.06 303.30 494.00 304.44 488.92 305.46 C 490.53 295.52 491.30 285.47 492.69 275.50 Z" />
<path fill="#ffffff" opacity="1.00" d=" M 304.33 325.48 C 307.87 325.05 311.45 325.43 315.02 325.45 C 323.70 325.70 332.38 325.06 341.06 325.30 C 343.39 325.31 345.65 326.09 347.59 327.37 C 352.88 330.71 356.59 335.89 360.07 340.97 C 357.57 340.53 355.04 340.20 352.60 339.44 C 344.87 337.54 336.92 336.63 329.17 334.81 C 323.57 334.52 317.84 334.03 312.35 335.46 C 305.77 337.12 299.49 339.73 293.04 341.83 C 294.58 337.86 295.86 333.74 298.17 330.13 C 299.58 327.94 301.64 325.87 304.33 325.48 Z" />
<path fill="#ffffff" opacity="1.00" d=" M 469.68 338.99 C 470.91 342.47 472.61 346.08 471.66 349.87 C 468.90 364.76 465.41 379.51 462.80 394.44 C 460.44 407.46 461.94 420.84 459.62 433.87 C 459.00 437.36 458.03 440.89 455.95 443.82 C 452.81 448.33 448.43 451.75 444.28 455.28 C 434.03 463.71 424.62 473.24 413.38 480.39 C 403.69 486.56 393.89 492.57 384.80 499.60 C 378.68 498.45 373.55 494.83 368.20 491.89 C 353.10 483.38 338.03 474.53 324.88 463.15 C 321.31 460.02 317.44 457.23 314.19 453.75 C 307.71 446.84 303.47 438.17 300.47 429.26 C 305.62 429.79 310.77 430.55 315.96 430.67 C 330.08 431.17 344.13 429.01 357.95 426.29 C 363.12 425.23 368.42 424.45 373.29 422.34 C 380.74 419.20 387.25 414.32 394.14 410.17 C 411.29 399.81 428.59 389.63 444.81 377.83 C 457.45 368.50 467.18 354.70 469.68 338.99 Z" />
<path fill="#ffffff" opacity="1.00" d=" M 287.18 420.26 C 289.38 421.14 291.62 421.91 293.90 422.56 C 298.71 431.87 302.27 441.90 308.55 450.39 C 311.07 453.85 314.18 456.81 317.43 459.57 C 325.37 466.35 333.36 473.11 342.02 478.97 C 348.24 483.24 354.93 486.77 361.39 490.68 C 368.40 494.79 375.50 498.96 383.29 501.43 C 385.29 502.34 387.06 500.63 388.72 499.74 C 402.07 490.85 415.51 482.06 428.04 472.03 C 433.97 467.32 439.46 462.08 445.35 457.32 C 450.19 453.23 455.24 449.21 458.96 444.02 C 463.22 437.45 462.46 429.26 463.87 421.86 C 465.58 421.67 467.30 421.49 469.03 421.33 C 471.60 445.40 472.89 469.68 471.20 493.87 C 447.04 493.15 422.70 495.67 399.42 502.29 C 392.54 504.25 385.85 509.19 378.40 507.27 C 375.04 506.57 371.67 505.75 368.53 504.35 C 364.58 502.61 361.66 499.33 358.46 496.56 C 348.22 487.50 336.83 479.24 323.67 475.07 C 315.04 472.33 306.31 469.91 297.82 466.76 C 295.43 469.92 293.06 473.08 290.57 476.17 C 284.67 460.01 288.03 442.66 288.60 425.96 C 286.26 430.45 282.75 434.69 282.58 439.97 C 281.84 455.02 284.00 470.19 288.84 484.46 C 279.99 494.39 274.67 506.87 265.77 516.76 C 257.23 526.54 247.88 535.56 238.94 544.96 C 233.11 551.14 226.54 556.58 219.76 561.68 C 213.12 552.98 205.74 544.86 197.49 537.67 C 211.81 523.55 217.18 503.60 224.34 485.44 C 226.51 480.54 227.74 474.61 232.53 471.49 C 234.65 469.75 237.53 469.87 240.10 469.49 C 246.07 463.54 252.89 458.57 259.76 453.72 C 265.44 449.52 271.28 445.19 275.22 439.22 C 279.30 432.96 284.08 427.10 287.18 420.26 Z" />
<path fill="#ffffff" opacity="1.00" d=" M 473.73 438.88 C 477.73 441.60 480.97 445.22 484.39 448.61 C 492.49 456.91 500.77 465.21 510.71 471.33 C 517.18 485.94 524.40 500.33 533.67 513.40 C 537.60 519.03 542.27 524.09 546.69 529.33 C 554.11 538.04 561.79 546.51 569.61 554.86 C 561.75 563.50 553.28 571.53 544.90 579.65 C 537.21 571.52 529.70 563.06 520.56 556.51 C 516.50 553.60 512.63 550.42 509.17 546.84 C 504.00 541.66 499.71 535.67 494.38 530.64 C 488.67 525.23 482.46 520.40 476.21 515.64 C 473.00 490.19 473.22 464.47 473.73 438.88 Z" />
<path fill="#ffffff" opacity="1.00" d=" M 276.22 659.35 C 279.26 663.22 280.68 668.09 280.51 672.99 C 280.33 682.32 280.22 691.66 280.53 700.99 C 280.78 706.23 279.44 711.47 276.38 715.76 C 275.60 713.12 274.92 710.45 274.62 707.72 C 273.40 697.88 273.19 687.94 273.65 678.05 C 274.00 671.76 274.55 665.44 276.22 659.35 Z" />
<path fill="#ffffff" opacity="1.00" d=" M 407.00 661.99 C 409.13 661.95 411.26 661.91 413.40 661.89 C 413.47 666.76 413.45 671.63 413.37 676.50 C 411.24 676.48 409.12 676.44 407.00 676.41 C 407.01 671.60 407.01 666.79 407.00 661.99 Z" />
<path fill="#ffffff" opacity="1.00" d=" M 521.63 661.89 C 523.74 661.85 525.85 661.82 527.96 661.80 C 528.38 678.86 528.26 695.92 527.89 712.98 C 525.81 712.98 523.73 712.99 521.65 713.00 C 521.68 695.96 521.67 678.92 521.63 661.89 Z" />
<path fill="#ffffff" opacity="1.00" d=" M 467.34 667.52 L 467.55 666.68 C 470.02 677.77 471.20 689.12 471.63 700.47 C 468.74 700.45 465.85 700.43 462.96 700.38 C 463.90 689.37 464.78 678.30 467.34 667.52 Z" />
<path fill="#ffffff" opacity="1.00" d=" M 407.18 689.32 C 409.16 690.07 411.23 690.71 413.05 691.85 C 414.28 698.78 413.56 705.88 413.58 712.89 C 411.40 712.91 409.22 712.92 407.06 712.93 C 406.99 705.06 406.90 697.19 407.18 689.32 Z" />
</g>
<g id="#000000ff">
<path fill="#000000" opacity="1.00" d=" M 353.42 70.73 C 360.90 69.57 368.51 69.47 376.05 70.17 C 381.37 70.68 386.74 70.54 392.07 70.96 C 408.12 72.13 423.87 75.97 439.07 81.17 C 444.79 83.17 450.59 85.08 455.85 88.14 C 473.26 98.04 487.57 112.54 499.63 128.36 C 506.93 137.94 511.63 149.23 515.10 160.69 C 517.11 166.93 516.84 173.56 517.14 180.03 C 517.80 198.95 516.45 217.94 513.03 236.57 C 519.62 238.04 526.16 239.93 532.22 242.94 C 533.78 243.79 535.81 244.66 536.03 246.69 C 537.68 254.69 538.48 262.94 537.74 271.10 C 537.10 278.51 533.92 285.33 531.37 292.22 C 525.82 306.71 519.41 321.29 508.96 332.98 C 503.86 338.84 494.57 339.93 487.96 336.10 C 482.69 332.89 477.40 329.36 473.78 324.26 C 475.27 320.81 476.75 317.36 478.28 313.94 C 480.03 320.42 481.94 327.29 486.83 332.18 C 489.42 334.94 493.17 336.72 497.01 336.23 C 503.61 335.55 508.72 330.51 512.24 325.25 C 520.63 312.15 527.05 297.84 532.01 283.12 C 533.67 278.25 534.99 273.21 535.13 268.04 C 535.53 259.93 533.84 251.92 531.87 244.10 C 521.49 241.39 510.69 239.94 499.97 240.96 C 498.11 240.99 496.50 241.95 495.21 243.21 C 487.56 250.34 480.85 258.51 475.61 267.57 C 474.41 266.12 473.23 264.65 472.04 263.19 C 471.91 255.53 471.80 247.83 470.42 240.28 C 469.30 233.88 467.10 227.71 464.34 221.86 C 459.94 212.72 452.76 205.38 445.88 198.09 C 442.99 194.96 439.76 191.93 438.14 187.89 C 435.23 180.76 433.98 172.64 436.33 165.16 C 437.50 160.56 440.46 156.63 441.46 151.98 C 442.13 148.86 440.10 146.09 438.14 143.91 C 431.11 136.15 421.76 131.13 412.64 126.27 C 407.78 123.62 402.31 122.49 396.95 121.32 C 388.43 119.49 379.74 118.42 371.03 118.15 C 351.61 117.68 332.16 114.93 312.74 116.91 C 307.37 117.45 302.56 120.16 298.26 123.25 C 291.16 128.34 284.12 133.88 279.16 141.19 C 276.34 145.29 274.64 150.01 273.00 154.68 C 265.11 177.10 260.72 200.53 254.46 223.42 C 253.80 223.51 252.49 223.69 251.83 223.77 C 251.41 237.51 251.32 251.26 251.97 265.00 C 252.87 280.70 256.03 296.20 256.49 311.94 C 257.25 332.55 260.16 353.43 268.39 372.50 C 269.62 375.23 270.67 378.12 272.47 380.54 C 274.15 381.77 276.24 382.24 278.16 383.00 C 275.14 376.34 270.26 369.71 271.75 361.99 C 274.80 342.07 285.16 323.93 286.88 303.72 C 286.94 300.60 285.68 297.66 284.75 294.74 C 294.37 281.56 302.93 267.52 309.03 252.34 C 307.99 252.85 304.86 251.49 305.53 253.51 L 304.51 253.52 L 304.39 254.31 C 301.76 255.24 299.45 257.55 296.64 257.49 L 295.97 258.36 C 292.26 258.72 288.58 259.30 284.89 259.72 C 284.43 259.12 283.51 257.92 283.05 257.32 C 285.84 256.81 288.66 256.47 291.50 256.24 C 291.85 254.39 294.82 256.75 294.80 254.59 C 297.89 254.56 300.18 251.45 303.36 251.45 L 303.87 250.53 C 305.37 250.70 306.59 249.30 306.66 247.89 C 308.04 246.44 308.46 243.98 308.24 241.99 C 307.63 240.63 304.53 239.46 306.40 237.91 C 305.32 237.03 304.48 236.15 304.20 234.80 C 301.36 232.87 298.41 231.11 295.30 229.68 C 291.86 229.34 288.40 229.53 284.95 229.46 C 282.77 230.36 280.63 231.34 278.49 232.33 L 278.17 233.31 C 275.26 232.81 275.01 236.03 272.63 236.91 C 272.57 237.35 272.45 238.22 272.39 238.66 C 270.95 239.03 271.07 241.24 269.71 241.88 C 269.36 245.10 268.84 248.30 268.36 251.51 C 266.70 251.52 265.04 251.54 263.38 251.56 C 263.44 249.19 263.53 246.81 263.63 244.44 C 265.39 244.18 265.26 242.18 266.38 241.20 C 268.11 239.62 268.54 236.11 271.43 236.46 C 271.40 235.10 271.85 233.30 273.62 233.56 L 273.49 232.44 L 274.34 232.79 C 274.71 230.03 279.72 231.86 279.64 228.69 C 282.29 227.86 286.15 228.81 287.84 226.30 C 292.03 226.45 296.28 226.25 300.24 227.85 C 301.75 230.80 305.61 230.00 308.35 230.90 C 308.43 232.02 308.52 233.13 308.62 234.25 C 308.10 234.38 307.06 234.65 306.54 234.78 C 307.39 236.77 308.43 238.65 309.86 240.30 C 311.20 240.47 312.54 240.64 313.89 240.81 C 315.02 233.96 314.48 226.79 311.43 220.48 C 311.14 221.21 310.57 222.66 310.28 223.39 C 308.47 224.22 305.38 223.61 304.53 225.55 C 301.74 226.04 298.92 226.53 296.09 226.22 C 290.01 225.68 283.88 225.28 277.79 225.87 C 272.80 229.29 266.38 229.78 261.67 233.68 C 262.00 235.80 259.15 234.61 258.02 234.86 C 256.35 234.80 256.10 233.03 255.24 231.98 C 256.03 227.66 257.59 223.47 260.21 219.92 C 261.42 219.58 262.62 219.21 262.67 217.72 C 263.05 215.52 267.52 217.06 267.36 214.48 C 269.59 212.27 273.62 212.44 276.21 210.64 C 281.16 210.48 286.11 210.39 291.07 210.36 L 291.92 209.62 C 296.82 209.61 301.72 209.56 306.62 209.69 C 307.59 210.69 307.24 212.62 309.14 212.84 C 313.00 217.51 316.76 222.76 317.41 228.97 C 318.27 237.01 315.30 244.81 311.98 251.98 C 306.52 263.58 301.33 275.41 294.01 286.00 C 292.11 288.81 289.76 291.31 288.05 294.25 C 288.46 296.55 289.76 298.56 290.75 300.65 C 296.16 299.53 301.58 298.48 307.04 297.63 C 309.95 300.53 313.06 303.23 315.89 306.21 C 316.88 306.98 316.59 308.25 316.61 309.34 C 311.42 306.83 306.74 303.45 301.83 300.49 C 299.09 303.22 296.22 305.83 293.23 308.27 C 292.82 307.06 292.42 305.86 292.03 304.65 C 291.31 304.81 289.88 305.12 289.16 305.27 C 287.24 320.10 282.26 334.28 277.61 348.43 C 275.20 355.58 274.41 363.24 275.09 370.74 C 275.41 375.84 279.33 379.58 281.89 383.69 C 279.43 384.52 276.94 385.27 274.46 386.05 C 279.31 398.90 287.57 410.14 296.86 420.14 C 300.41 424.16 305.78 425.71 310.81 426.91 C 323.99 429.75 337.49 427.26 350.59 425.22 C 361.20 423.57 372.16 421.45 381.22 415.32 C 397.16 404.67 414.25 395.86 430.14 385.13 C 440.56 378.22 451.55 371.18 458.37 360.39 C 463.92 351.31 467.72 341.17 469.86 330.76 C 470.60 334.00 472.24 336.93 474.65 339.23 C 474.35 337.00 473.97 334.79 473.59 332.58 C 474.56 332.61 476.50 332.68 477.46 332.71 C 475.24 348.82 472.99 364.96 469.20 380.80 C 466.68 391.35 464.89 402.17 465.10 413.06 C 464.90 415.97 466.96 418.19 468.45 420.46 C 472.18 425.69 474.47 431.75 477.85 437.19 C 481.17 442.68 485.91 447.08 490.33 451.67 C 496.68 458.17 503.78 464.14 512.17 467.82 C 526.51 474.25 539.32 483.83 554.28 488.90 C 571.20 494.63 588.29 500.05 604.55 507.50 C 611.59 510.70 618.28 514.58 625.21 517.99 C 638.72 524.73 652.75 530.31 666.63 536.20 C 684.29 543.68 703.91 546.86 719.92 557.96 C 731.91 565.56 738.94 579.48 739.94 593.42 C 735.26 584.34 731.70 574.72 726.70 565.79 C 720.72 568.64 713.89 571.52 710.85 577.84 C 707.08 585.72 705.93 594.64 701.44 602.22 C 702.18 593.59 703.73 584.76 708.13 577.18 C 711.50 571.37 717.03 567.36 722.05 563.08 C 711.18 553.66 697.16 549.54 683.70 545.39 C 674.07 542.43 664.89 538.25 655.57 534.48 C 644.63 529.85 633.58 525.41 623.00 520.01 C 601.32 507.97 577.86 499.66 554.45 491.70 C 540.15 486.99 528.10 477.44 513.92 472.40 C 518.86 486.62 526.70 499.57 535.04 512.01 C 537.02 514.96 539.32 517.68 541.68 520.33 C 552.07 532.04 562.65 543.58 573.00 555.33 C 566.33 566.03 554.01 571.63 547.77 582.69 C 551.74 587.25 555.67 591.86 559.17 596.81 C 544.87 585.19 533.07 570.86 518.86 559.14 C 503.46 547.08 493.70 528.80 476.38 519.03 C 474.04 528.75 472.60 538.65 470.79 548.48 C 468.77 559.55 464.73 570.22 463.85 581.49 C 462.48 592.49 463.25 603.62 462.20 614.63 C 461.83 612.46 461.60 610.26 461.63 608.07 C 461.69 597.41 461.72 586.74 460.93 576.11 C 458.46 578.97 456.43 582.55 452.86 584.19 C 448.68 584.17 444.73 582.50 440.88 581.04 C 429.19 576.35 419.33 568.37 408.79 561.67 C 406.00 576.82 406.25 592.32 403.90 607.52 C 399.83 591.76 406.94 575.86 404.60 560.01 C 404.26 557.07 401.89 555.05 399.98 553.04 C 396.41 549.59 392.94 546.04 389.36 542.61 C 386.66 539.89 382.65 539.50 379.06 538.97 C 371.79 537.98 364.40 538.98 357.40 541.05 C 357.77 558.16 356.25 575.25 354.49 592.26 C 351.44 576.07 353.42 559.57 352.27 543.25 C 346.20 543.94 340.33 545.83 334.20 546.03 C 332.84 548.00 331.64 550.34 329.27 551.26 C 321.49 554.79 313.67 558.24 305.98 561.96 C 306.40 570.69 306.54 579.54 308.92 588.02 C 310.68 594.34 312.63 600.69 312.88 607.31 C 306.23 594.85 304.61 580.56 302.96 566.75 C 297.17 567.11 291.38 567.51 285.58 567.83 C 282.69 547.14 280.83 526.10 283.38 505.28 C 284.28 504.54 285.18 503.81 286.09 503.08 C 286.03 499.93 285.96 496.78 285.83 493.63 C 279.39 501.40 274.40 510.25 267.97 518.02 C 264.09 522.77 259.54 526.90 255.24 531.25 C 246.59 539.96 238.23 548.98 229.15 557.25 C 223.60 562.36 217.59 566.95 212.08 572.11 C 203.62 579.77 195.29 587.95 184.89 592.97 C 194.75 582.67 206.31 574.21 216.93 564.75 C 214.70 560.80 212.35 556.92 209.97 553.07 C 208.56 550.86 207.17 548.49 204.85 547.13 C 201.02 544.73 196.96 542.72 193.06 540.43 C 196.90 535.76 200.61 530.98 203.71 525.79 C 212.69 511.00 218.16 494.48 224.00 478.30 C 209.04 485.30 194.03 492.44 178.12 497.06 C 162.43 501.57 146.61 505.72 131.31 511.47 C 119.90 515.71 109.05 521.27 97.82 525.94 C 78.12 534.27 57.72 541.49 39.84 553.46 C 43.64 557.57 47.49 561.65 50.74 566.22 C 58.15 576.49 63.43 588.54 64.69 601.22 C 58.79 590.76 56.32 578.62 49.54 568.60 C 45.49 562.65 39.02 559.11 32.97 555.54 C 26.38 561.10 21.67 568.57 18.79 576.64 C 15.95 584.00 14.76 591.84 12.50 599.37 C 11.49 589.36 14.22 579.42 18.47 570.44 C 20.59 566.13 22.36 561.31 26.32 558.31 C 35.10 551.59 45.25 547.04 55.07 542.10 C 74.61 532.07 95.28 524.49 115.19 515.24 C 143.17 502.16 174.14 497.51 202.47 485.35 C 212.58 480.98 222.32 475.68 231.18 469.12 C 237.18 464.83 242.67 459.87 248.78 455.75 C 257.36 449.87 265.78 443.59 272.74 435.81 C 275.76 432.37 278.96 428.98 280.99 424.83 C 282.83 421.13 284.66 417.41 286.91 413.94 C 275.67 395.00 264.84 375.44 259.26 353.98 C 257.13 345.39 255.44 336.67 254.61 327.86 C 253.49 316.68 253.33 305.44 252.23 294.27 C 251.56 287.14 250.10 280.12 249.50 272.98 C 247.90 255.03 248.89 236.99 248.75 219.00 C 249.10 200.64 248.79 181.87 254.28 164.13 C 256.53 156.36 260.62 149.32 264.30 142.16 C 269.30 132.59 274.82 123.14 282.34 115.31 C 295.70 100.25 312.75 89.19 329.82 78.83 C 337.04 74.58 345.16 72.02 353.42 70.73 M 469.68 338.99 C 467.18 354.70 457.45 368.50 444.81 377.83 C 428.59 389.63 411.29 399.81 394.14 410.17 C 387.25 414.32 380.74 419.20 373.29 422.34 C 368.42 424.45 363.12 425.23 357.95 426.29 C 344.13 429.01 330.08 431.17 315.96 430.67 C 310.77 430.55 305.62 429.79 300.47 429.26 C 303.47 438.17 307.71 446.84 314.19 453.75 C 317.44 457.23 321.31 460.02 324.88 463.15 C 338.03 474.53 353.10 483.38 368.20 491.89 C 373.55 494.83 378.68 498.45 384.80 499.60 C 393.89 492.57 403.69 486.56 413.38 480.39 C 424.62 473.24 434.03 463.71 444.28 455.28 C 448.43 451.75 452.81 448.33 455.95 443.82 C 458.03 440.89 459.00 437.36 459.62 433.87 C 461.94 420.84 460.44 407.46 462.80 394.44 C 465.41 379.51 468.90 364.76 471.66 349.87 C 472.61 346.08 470.91 342.47 469.68 338.99 M 287.18 420.26 C 284.08 427.10 279.30 432.96 275.22 439.22 C 271.28 445.19 265.44 449.52 259.76 453.72 C 252.89 458.57 246.07 463.54 240.10 469.49 C 237.53 469.87 234.65 469.75 232.53 471.49 C 227.74 474.61 226.51 480.54 224.34 485.44 C 217.18 503.60 211.81 523.55 197.49 537.67 C 205.74 544.86 213.12 552.98 219.76 561.68 C 226.54 556.58 233.11 551.14 238.94 544.96 C 247.88 535.56 257.23 526.54 265.77 516.76 C 274.67 506.87 279.99 494.39 288.84 484.46 C 284.00 470.19 281.84 455.02 282.58 439.97 C 282.75 434.69 286.26 430.45 288.60 425.96 C 288.03 442.66 284.67 460.01 290.57 476.17 C 293.06 473.08 295.43 469.92 297.82 466.76 C 306.31 469.91 315.04 472.33 323.67 475.07 C 336.83 479.24 348.22 487.50 358.46 496.56 C 361.66 499.33 364.58 502.61 368.53 504.35 C 371.67 505.75 375.04 506.57 378.40 507.27 C 385.85 509.19 392.54 504.25 399.42 502.29 C 422.70 495.67 447.04 493.15 471.20 493.87 C 472.89 469.68 471.60 445.40 469.03 421.33 C 467.30 421.49 465.58 421.67 463.87 421.86 C 462.46 429.26 463.22 437.45 458.96 444.02 C 455.24 449.21 450.19 453.23 445.35 457.32 C 439.46 462.08 433.97 467.32 428.04 472.03 C 415.51 482.06 402.07 490.85 388.72 499.74 C 387.06 500.63 385.29 502.34 383.29 501.43 C 375.50 498.96 368.40 494.79 361.39 490.68 C 354.93 486.77 348.24 483.24 342.02 478.97 C 333.36 473.11 325.37 466.35 317.43 459.57 C 314.18 456.81 311.07 453.85 308.55 450.39 C 302.27 441.90 298.71 431.87 293.90 422.56 C 291.62 421.91 289.38 421.14 287.18 420.26 M 473.73 438.88 C 473.22 464.47 473.00 490.19 476.21 515.64 C 482.46 520.40 488.67 525.23 494.38 530.64 C 499.71 535.67 504.00 541.66 509.17 546.84 C 512.63 550.42 516.50 553.60 520.56 556.51 C 529.70 563.06 537.21 571.52 544.90 579.65 C 553.28 571.53 561.75 563.50 569.61 554.86 C 561.79 546.51 554.11 538.04 546.69 529.33 C 542.27 524.09 537.60 519.03 533.67 513.40 C 524.40 500.33 517.18 485.94 510.71 471.33 C 500.77 465.21 492.49 456.91 484.39 448.61 C 480.97 445.22 477.73 441.60 473.73 438.88 Z" />
<path fill="#000000" opacity="1.00" d=" M 362.49 203.99 C 373.74 203.44 385.06 203.94 396.34 203.70 C 396.45 204.35 396.68 205.65 396.79 206.30 C 398.67 206.51 400.57 206.71 402.46 206.91 C 402.55 207.27 402.73 208.00 402.82 208.37 C 405.37 208.98 407.95 209.55 410.52 210.11 C 412.85 211.75 413.20 215.26 416.08 216.15 C 417.06 217.73 417.04 220.27 419.11 220.85 C 420.48 221.12 420.15 223.12 421.44 223.48 C 423.61 224.15 424.41 227.11 426.65 227.35 C 426.06 229.36 429.52 228.68 428.58 230.42 L 429.63 230.34 L 429.49 231.39 C 432.08 231.09 431.79 234.30 432.46 236.00 C 430.92 236.29 429.39 238.33 427.84 236.99 C 426.42 235.96 424.22 235.40 423.53 233.75 C 421.61 233.09 420.01 231.89 418.37 230.76 C 416.60 230.94 415.46 228.40 413.73 228.81 C 412.75 227.24 411.34 228.11 410.37 226.55 L 409.70 226.93 C 408.67 225.33 407.01 225.80 405.55 224.81 C 403.33 223.47 400.50 223.28 398.47 221.71 C 395.69 221.53 392.90 221.34 390.15 220.93 C 383.19 220.36 376.21 220.66 369.24 220.62 L 369.73 219.65 C 367.80 219.58 365.87 219.50 363.94 219.43 C 363.03 217.48 360.07 219.63 359.37 217.55 C 357.07 217.30 355.64 214.93 353.49 213.93 C 353.47 212.01 353.48 210.09 353.51 208.16 C 354.77 207.05 356.36 206.26 357.38 204.90 C 359.09 204.61 360.79 204.33 362.49 203.99 Z" />
<path fill="#000000" opacity="1.00" d=" M 372.32 224.86 C 377.81 224.91 383.31 224.74 388.81 224.84 C 390.14 225.57 391.58 225.92 393.09 226.10 C 396.10 227.71 399.13 229.30 401.96 231.25 C 403.20 231.50 404.61 231.53 405.11 232.95 C 408.26 233.89 409.22 238.03 412.46 238.54 C 413.23 240.12 415.40 240.90 416.54 242.43 C 420.73 242.85 424.90 243.46 429.11 243.68 L 429.91 242.69 C 430.27 242.62 430.99 242.50 431.35 242.43 C 432.21 240.46 434.77 241.46 435.39 243.09 C 433.96 244.21 432.37 245.17 431.22 246.59 L 430.44 246.32 C 430.39 246.88 430.31 248.00 430.27 248.56 C 432.31 248.53 434.35 248.49 436.41 248.46 C 436.46 249.15 436.58 250.54 436.64 251.23 L 435.50 251.50 L 435.13 252.56 C 432.68 252.57 430.25 252.58 427.81 252.59 L 427.66 251.85 C 425.58 251.43 423.52 250.97 421.47 250.51 L 421.01 249.60 C 420.37 249.54 419.07 249.42 418.42 249.36 C 416.34 246.39 412.80 245.04 410.64 242.21 C 408.57 241.36 407.41 238.76 404.90 239.09 C 405.39 237.50 403.64 236.75 403.60 235.29 L 402.59 235.43 L 402.72 234.34 L 401.68 234.30 C 401.00 232.47 399.41 231.21 398.31 229.65 C 396.25 228.67 393.82 228.01 392.23 226.35 C 385.51 224.96 378.44 224.68 371.73 226.19 C 370.07 228.64 367.75 230.83 366.34 233.31 C 364.50 233.28 364.97 235.43 363.48 235.81 C 363.50 238.60 363.49 241.40 363.45 244.20 L 364.50 244.55 L 364.52 245.48 L 365.49 245.52 L 365.53 246.46 C 367.05 246.01 366.71 248.92 368.59 248.46 L 369.09 249.22 C 375.80 251.82 383.01 252.80 390.10 253.82 L 390.82 252.75 C 393.95 251.98 397.13 251.42 400.12 250.20 C 401.31 248.47 403.90 249.95 405.70 249.63 C 404.49 250.82 403.28 252.01 402.08 253.19 C 398.17 254.36 394.10 255.89 389.97 254.91 C 385.94 254.06 381.97 254.50 377.90 254.51 L 377.13 253.65 C 376.64 253.42 375.66 252.96 375.17 252.73 C 371.31 250.83 367.04 249.91 363.36 247.63 C 361.86 247.16 362.28 244.46 360.50 244.48 L 360.51 243.55 L 359.45 243.10 C 359.41 241.02 359.38 238.94 359.36 236.86 L 360.50 236.45 L 360.53 235.54 L 361.48 235.48 C 361.32 233.97 363.52 233.87 363.59 232.50 C 363.98 230.87 366.69 230.83 366.69 228.91 C 368.68 227.77 370.65 226.60 372.63 225.43 L 372.32 224.86 Z" />
<path fill="#000000" opacity="1.00" d=" M 377.39 233.52 C 378.68 233.54 379.97 233.57 381.26 233.60 C 382.05 234.78 382.52 236.19 383.69 237.09 C 383.23 239.17 382.53 241.21 382.23 243.32 C 379.35 243.94 376.45 244.46 373.52 244.81 C 372.69 242.31 371.87 239.80 371.25 237.25 C 373.00 236.91 374.77 236.59 376.55 236.29 C 376.55 235.59 376.57 234.19 376.58 233.49 L 377.39 233.52 Z" />
<path fill="#000000" opacity="1.00" d=" M 280.52 237.41 L 280.53 236.50 C 283.33 236.10 285.48 237.99 287.43 239.75 C 287.49 241.66 287.53 243.56 287.58 245.48 L 286.59 245.51 L 286.21 246.58 L 285.40 246.43 L 285.21 247.20 L 284.43 247.39 L 284.53 248.57 C 282.50 248.52 280.47 248.47 278.44 248.40 C 277.77 247.69 277.11 246.97 276.44 246.27 C 276.54 244.90 276.64 243.53 276.75 242.16 C 277.99 241.50 279.23 240.83 280.48 240.17 C 280.49 239.48 280.51 238.10 280.52 237.41 Z" />
<path fill="#000000" opacity="1.00" d=" M 517.43 245.13 C 517.89 244.92 518.81 244.52 519.28 244.31 C 521.32 248.05 523.10 252.33 527.30 254.12 C 527.60 255.90 527.87 257.69 528.15 259.48 C 526.97 259.57 525.80 259.65 524.63 259.74 C 524.64 268.86 524.28 277.98 524.26 287.11 C 522.96 293.09 521.53 299.13 518.59 304.55 C 515.47 310.73 510.79 316.01 505.25 320.11 C 502.48 317.77 499.72 315.43 497.03 313.00 C 500.12 314.14 503.18 315.36 506.24 316.60 C 510.25 312.07 514.41 307.52 517.03 302.01 C 518.77 298.39 519.31 294.37 519.77 290.43 C 521.29 276.50 521.42 262.46 521.08 248.47 C 516.10 249.34 510.62 250.07 506.93 253.89 C 501.08 259.82 494.00 264.83 490.16 272.44 C 496.80 272.43 503.42 271.96 510.03 271.49 C 508.89 272.53 507.75 273.57 506.62 274.61 C 508.92 277.25 510.55 280.37 511.62 283.69 C 510.09 285.07 508.10 286.16 507.31 288.16 C 506.38 290.54 505.99 293.07 505.46 295.56 C 507.56 294.41 509.64 293.22 511.70 292.00 C 508.82 296.38 506.28 301.00 503.06 305.14 C 500.25 308.71 495.16 308.75 491.02 308.67 C 487.14 308.78 484.89 305.15 482.16 302.99 C 483.27 302.81 484.41 302.67 485.52 302.38 C 488.51 296.18 489.72 289.25 490.82 282.50 C 491.79 278.07 489.24 274.11 487.51 270.25 C 496.78 261.15 504.94 250.02 517.43 245.13 M 492.69 275.50 C 491.30 285.47 490.53 295.52 488.92 305.46 C 494.00 304.44 499.06 303.30 504.11 302.11 C 502.26 296.06 500.20 290.08 497.93 284.18 C 497.53 283.92 496.72 283.40 496.32 283.15 C 496.22 280.13 495.23 277.31 492.69 275.50 Z" />
<path fill="#000000" opacity="1.00" d=" M 328.90 274.44 C 329.94 274.20 331.08 274.29 331.95 275.00 C 334.47 276.80 336.37 279.31 338.85 281.17 C 340.92 282.82 343.72 282.59 346.20 282.94 C 346.86 283.81 347.52 284.69 348.18 285.58 C 345.35 285.51 342.53 285.43 339.71 285.33 C 337.59 282.68 334.79 280.72 331.46 279.96 C 331.45 279.01 331.45 278.06 331.45 277.12 C 330.10 276.31 328.74 275.52 327.37 274.77 C 327.75 274.69 328.51 274.53 328.90 274.44 Z" />
<path fill="#000000" opacity="1.00" d=" M 355.50 280.02 L 355.52 278.99 C 361.03 284.12 366.25 289.90 369.24 296.90 C 376.90 313.53 386.51 329.32 392.30 346.77 C 394.01 352.01 395.44 357.52 394.88 363.08 C 394.60 366.10 392.84 369.15 389.91 370.27 C 386.08 370.77 382.26 369.79 378.50 369.23 C 379.27 368.19 380.06 367.15 380.85 366.12 C 384.41 366.65 387.97 367.18 391.54 367.70 C 392.38 359.51 391.63 351.10 388.46 343.45 C 381.74 327.22 373.85 311.51 365.68 295.97 C 363.75 299.37 361.83 302.77 360.00 306.22 C 352.71 308.77 344.75 309.13 337.33 306.90 C 335.56 304.26 333.76 301.65 331.97 299.03 C 327.77 302.62 323.67 306.43 318.71 308.97 C 318.57 308.04 317.93 306.80 319.06 306.20 C 322.63 303.33 326.46 300.79 330.16 298.09 C 334.19 294.91 339.65 295.97 344.41 295.47 C 344.98 297.25 345.54 299.05 346.11 300.84 C 343.96 301.91 341.80 302.96 339.65 304.02 C 343.73 304.91 347.85 306.10 352.08 305.92 C 355.48 305.80 359.14 303.91 360.25 300.51 C 361.46 296.48 360.19 292.23 358.35 288.61 C 357.13 285.85 355.09 283.19 355.50 280.02 Z" />
<path fill="#000000" opacity="1.00" d=" M 303.39 322.59 C 310.11 320.75 317.14 322.26 324.00 322.01 C 331.57 322.14 339.77 320.29 346.75 324.12 C 355.09 328.82 361.70 335.91 368.18 342.84 C 371.37 346.34 375.50 348.82 378.62 352.40 C 381.25 355.38 383.58 358.61 386.07 361.71 C 380.83 359.70 375.66 357.30 371.33 353.66 C 368.43 351.47 365.99 348.41 362.35 347.45 C 354.77 345.33 346.80 344.00 338.93 345.08 C 327.33 346.64 315.71 348.10 304.02 348.79 C 301.40 348.94 298.78 348.88 296.17 348.68 C 302.37 345.60 309.40 345.58 316.09 344.38 C 319.75 343.67 323.49 343.55 327.19 343.11 C 331.55 342.03 335.89 340.83 340.14 339.37 C 331.16 338.05 321.97 337.05 312.94 338.44 C 302.87 339.58 292.80 344.61 287.32 353.38 C 284.37 358.17 281.79 363.17 278.92 368.01 C 279.74 356.42 286.61 346.71 291.55 336.59 C 294.39 331.21 297.43 325.03 303.39 322.59 M 304.33 325.48 C 301.64 325.87 299.58 327.94 298.17 330.13 C 295.86 333.74 294.58 337.86 293.04 341.83 C 299.49 339.73 305.77 337.12 312.35 335.46 C 317.84 334.03 323.57 334.52 329.17 334.81 C 336.92 336.63 344.87 337.54 352.60 339.44 C 355.04 340.20 357.57 340.53 360.07 340.97 C 356.59 335.89 352.88 330.71 347.59 327.37 C 345.65 326.09 343.39 325.31 341.06 325.30 C 332.38 325.06 323.70 325.70 315.02 325.45 C 311.45 325.43 307.87 325.05 304.33 325.48 Z" />
<path fill="#000000" opacity="1.00" d=" M 316.33 366.20 C 328.95 363.41 342.43 367.75 352.24 375.86 C 359.24 382.42 364.66 390.59 368.67 399.28 C 362.21 393.31 357.20 386.02 352.31 378.76 C 351.03 376.58 348.88 375.20 346.58 374.30 C 340.01 371.57 333.28 368.77 326.11 368.20 C 317.46 367.45 308.87 370.90 302.21 376.30 C 295.45 381.79 290.24 388.83 284.49 395.30 C 284.01 394.64 283.04 393.32 282.56 392.65 C 288.19 386.91 293.33 380.67 299.35 375.32 C 304.21 371.03 309.99 367.66 316.33 366.20 Z" />
<path fill="#000000" opacity="1.00" d=" M 407.64 366.71 C 407.98 366.49 408.66 366.05 409.00 365.83 C 402.99 373.62 395.23 379.83 387.28 385.53 C 382.46 383.11 378.01 379.96 372.99 377.99 C 370.69 378.54 369.20 380.58 367.50 382.06 C 377.02 388.56 388.54 390.54 399.15 394.53 C 390.49 393.92 381.09 393.52 373.83 388.18 C 368.95 384.44 364.75 379.93 359.93 376.13 C 363.29 375.29 366.65 374.43 370.01 373.60 C 375.78 376.81 381.67 379.84 387.77 382.39 C 394.26 377.00 400.64 371.43 407.64 366.71 Z" />
</g>
<g id="#fe0000ff">
<path fill="#fe0000" opacity="1.00" d=" M 194.43 648.33 C 200.03 648.43 205.63 648.49 211.23 648.56 C 214.71 659.88 218.62 671.07 222.70 682.19 C 223.01 670.91 222.87 659.62 223.19 648.34 C 228.69 648.42 234.19 648.40 239.69 648.32 C 239.43 674.41 239.76 700.50 239.52 726.59 C 233.47 726.46 227.41 726.41 221.36 726.02 C 218.47 714.85 215.19 703.78 211.98 692.70 C 211.21 703.92 211.39 715.16 211.22 726.40 C 205.66 726.47 200.11 726.44 194.56 726.45 C 193.93 700.41 194.21 674.37 194.43 648.33 Z" />
<path fill="#fe0000" opacity="1.00" d=" M 271.46 648.65 C 277.67 647.75 284.27 648.26 289.92 651.16 C 293.76 653.10 297.27 656.22 298.55 660.46 C 300.90 667.58 300.67 675.20 300.57 682.61 C 300.37 690.41 300.70 698.22 300.25 706.02 C 299.89 711.71 298.25 717.96 293.42 721.51 C 285.73 727.19 275.05 728.26 266.21 724.83 C 260.05 722.46 254.72 717.01 253.99 710.24 C 252.55 697.20 253.53 684.06 253.43 670.97 C 253.37 666.84 253.59 662.49 255.82 658.87 C 258.97 653.15 265.04 649.44 271.46 648.65 M 276.22 659.35 C 274.55 665.44 274.00 671.76 273.65 678.05 C 273.19 687.94 273.40 697.88 274.62 707.72 C 274.92 710.45 275.60 713.12 276.38 715.76 C 279.44 711.47 280.78 706.23 280.53 700.99 C 280.22 691.66 280.33 682.32 280.51 672.99 C 280.68 668.09 279.26 663.22 276.22 659.35 Z" />
<path fill="#fe0000" opacity="1.00" d=" M 322.40 648.46 C 333.17 648.26 343.94 648.43 354.71 648.37 C 354.76 653.55 354.81 658.73 354.88 663.92 C 350.92 663.98 346.98 664.06 343.03 664.14 C 342.68 684.83 342.70 705.53 343.05 726.23 C 336.24 726.37 329.44 726.49 322.64 726.45 C 322.44 705.72 322.48 684.98 322.62 664.24 C 318.56 664.02 314.50 663.85 310.44 663.73 C 310.50 658.71 310.48 653.69 310.54 648.67 C 314.49 648.57 318.45 648.51 322.40 648.46 Z" />
<path fill="#fe0000" opacity="1.00" d=" M 387.20 648.25 C 399.84 648.03 412.49 648.57 425.07 649.93 C 430.28 655.59 433.71 663.21 432.69 671.03 C 432.34 676.11 429.31 680.40 426.10 684.15 C 429.26 687.21 433.68 690.01 433.92 694.89 C 434.81 702.64 434.86 710.65 433.05 718.29 C 431.92 722.76 427.47 725.45 423.09 725.89 C 411.20 727.51 399.18 726.23 387.23 726.56 C 386.76 700.46 386.83 674.35 387.20 648.25 M 407.00 661.99 C 407.01 666.79 407.01 671.60 407.00 676.41 C 409.12 676.44 411.24 676.48 413.37 676.50 C 413.45 671.63 413.47 666.76 413.40 661.89 C 411.26 661.91 409.13 661.95 407.00 661.99 M 407.18 689.32 C 406.90 697.19 406.99 705.06 407.06 712.93 C 409.22 712.92 411.40 712.91 413.58 712.89 C 413.56 705.88 414.28 698.78 413.05 691.85 C 411.23 690.71 409.16 690.07 407.18 689.32 Z" />
<path fill="#fe0000" opacity="1.00" d=" M 502.47 648.50 C 513.00 648.30 523.61 647.66 534.09 649.10 C 538.53 649.65 542.96 651.68 545.59 655.43 C 547.86 658.42 548.35 662.28 548.53 665.93 C 548.99 675.28 548.44 684.64 548.62 694.00 C 548.59 701.59 549.12 709.30 547.58 716.80 C 546.87 720.35 544.43 723.58 541.02 724.91 C 538.36 725.91 535.50 726.15 532.70 726.39 C 522.40 727.10 512.09 726.48 501.79 726.33 C 501.35 700.40 501.53 674.46 501.70 648.52 L 502.47 648.50 M 521.63 661.89 C 521.67 678.92 521.68 695.96 521.65 713.00 C 523.73 712.99 525.81 712.98 527.89 712.98 C 528.26 695.92 528.38 678.86 527.96 661.80 C 525.85 661.82 523.74 661.85 521.63 661.89 Z" />
<path fill="#fe0000" opacity="1.00" d=" M 452.96 648.65 C 462.33 648.42 471.70 648.41 481.07 648.70 C 485.00 674.65 490.10 700.45 492.88 726.57 C 486.34 726.46 479.80 726.42 473.26 726.58 C 473.21 722.32 473.19 718.07 473.15 713.82 C 469.36 713.84 465.57 713.88 461.78 713.93 C 461.73 718.10 461.70 722.28 461.56 726.46 C 455.14 726.40 448.71 726.45 442.29 726.40 C 445.19 700.40 450.07 674.66 452.96 648.65 M 467.34 667.52 C 464.78 678.30 463.90 689.37 462.96 700.38 C 465.85 700.43 468.74 700.45 471.63 700.47 C 471.20 689.12 470.02 677.77 467.55 666.68 L 467.34 667.52 Z" />
</g>
</svg>
