<?xml version="1.0" encoding="UTF-8" ?>
<!DOCTYPE svg PUBLIC "-//W3C//DTD SVG 1.1//EN" "http://www.w3.org/Graphics/SVG/1.1/DTD/svg11.dtd">
<svg width="800pt" height="800pt" viewBox="0 0 800 800" version="1.1" xmlns="http://www.w3.org/2000/svg">
<path fill="#ffffff" opacity="1.00" d=" M 0.00 0.00 L 800.00 0.00 L 800.00 800.00 L 0.00 800.00 L 0.00 0.00 M 340.69 19.00 C 341.84 20.57 343.00 22.15 344.17 23.71 C 345.63 22.44 346.78 20.87 347.52 19.06 C 345.24 19.01 342.97 18.99 340.69 19.00 M 357.16 20.16 C 348.07 26.70 337.72 31.48 326.95 34.50 C 307.53 36.63 287.91 33.60 268.48 35.73 C 267.12 38.78 266.09 42.19 263.32 44.31 C 256.48 50.17 246.96 50.50 238.89 53.76 C 233.55 56.10 229.34 60.24 224.79 63.77 C 216.27 70.70 206.28 75.70 198.28 83.27 C 190.40 91.85 184.80 102.55 182.39 113.95 C 180.21 122.93 169.94 126.99 167.93 136.06 C 165.48 148.36 158.99 159.24 153.71 170.46 C 149.83 181.05 145.69 191.68 143.95 202.88 C 143.35 206.14 143.03 209.44 142.89 212.74 C 142.30 212.98 141.13 213.46 140.54 213.70 C 140.52 215.77 140.50 217.83 140.49 219.90 C 140.51 224.19 140.51 228.47 140.49 232.75 C 141.88 234.93 144.49 236.87 143.94 239.77 C 143.48 242.12 142.82 244.54 140.52 245.72 C 140.50 247.67 140.51 249.62 140.52 251.58 C 140.47 263.41 140.52 275.25 140.49 287.08 C 140.51 289.12 140.52 291.16 140.54 293.21 C 141.70 293.72 142.86 294.24 144.02 294.77 C 144.62 297.85 142.24 299.96 140.67 302.26 C 140.32 304.48 140.54 306.76 140.49 309.01 C 140.52 345.90 140.48 382.79 140.51 419.68 C 144.92 424.26 146.43 430.56 148.82 436.25 C 150.51 440.54 153.90 443.79 156.30 447.66 C 158.62 451.19 160.49 455.00 161.96 458.96 C 166.99 472.39 173.51 485.17 179.61 498.12 C 180.49 500.00 181.39 501.91 181.86 503.95 C 185.46 519.07 183.98 534.99 188.45 549.95 C 189.75 554.52 192.08 558.69 193.81 563.09 C 197.94 573.23 201.52 583.63 206.83 593.24 C 213.80 606.48 222.82 618.96 226.19 633.78 C 233.40 645.03 244.36 653.18 254.78 661.28 C 261.47 666.59 263.57 675.55 269.83 681.24 C 272.26 683.49 275.37 684.79 277.96 686.84 C 285.75 692.75 291.84 700.64 300.04 706.06 C 309.54 712.64 315.55 724.08 326.95 727.85 C 351.25 733.67 375.43 740.03 399.49 746.78 C 405.66 748.63 412.18 748.34 418.54 748.85 C 415.83 754.50 413.30 761.13 407.40 764.17 C 400.64 765.24 393.75 764.76 386.94 765.14 C 385.67 765.30 384.23 765.15 383.20 766.03 C 379.66 768.91 377.82 773.23 375.34 776.96 C 363.71 767.26 345.41 770.07 335.56 780.95 C 391.78 781.02 448.00 781.05 504.22 780.94 C 501.44 778.23 498.26 775.88 494.60 774.53 C 481.36 769.45 466.36 773.70 453.32 767.79 C 445.30 764.27 440.66 756.27 437.12 748.67 C 442.03 748.30 446.96 748.66 451.88 748.41 C 464.77 748.23 473.68 737.36 485.23 733.24 C 494.99 729.91 504.26 724.94 511.99 718.06 C 516.63 714.00 520.38 709.07 524.68 704.68 C 531.92 697.11 542.22 693.15 548.88 684.95 C 557.11 674.54 566.31 664.97 575.14 655.08 C 579.72 650.01 583.86 644.55 588.81 639.82 C 593.82 634.93 598.67 629.56 601.13 622.88 C 605.73 611.35 612.56 600.93 618.09 589.86 C 624.46 573.04 631.70 556.48 640.98 541.05 C 641.93 539.39 643.09 537.78 643.40 535.86 C 644.95 526.36 643.01 516.64 644.67 507.16 C 646.53 499.41 650.01 492.00 650.31 483.93 C 650.87 469.98 658.25 457.55 660.48 443.97 C 660.47 413.26 660.61 382.53 660.41 351.82 C 657.02 341.95 656.13 331.49 655.27 321.16 C 654.36 313.31 653.95 305.09 650.21 297.95 C 646.04 288.23 645.62 277.44 642.35 267.44 C 635.08 245.81 622.95 226.04 617.22 203.86 C 616.43 200.67 614.27 198.09 612.87 195.17 C 604.90 179.39 602.45 161.67 597.17 144.97 C 594.18 134.70 588.15 125.67 581.76 117.23 C 578.66 113.00 574.93 109.22 572.38 104.61 C 564.75 92.05 555.77 80.07 544.37 70.67 C 542.27 68.63 539.15 68.61 536.55 67.60 C 521.15 62.29 510.05 49.34 495.13 43.10 C 483.10 37.48 471.85 30.28 459.49 25.37 C 458.79 23.26 458.10 21.16 457.45 19.04 C 425.29 18.94 393.13 19.04 360.97 18.99 C 359.55 18.82 358.22 19.22 357.16 20.16 M 696.74 693.74 C 696.73 711.16 696.73 728.58 696.73 746.00 C 699.06 745.99 701.40 745.99 703.74 746.00 C 703.79 732.52 703.61 719.05 703.83 705.58 C 712.89 718.89 721.44 732.55 730.31 746.00 C 732.78 745.99 735.25 745.99 737.74 746.00 C 737.73 728.57 737.73 711.15 737.74 693.73 C 735.40 693.73 733.06 693.73 730.74 693.73 C 730.73 707.28 730.74 720.83 730.73 734.38 C 721.74 720.92 713.07 707.25 704.16 693.73 C 701.68 693.73 699.21 693.73 696.74 693.74 M 759.52 707.74 C 753.48 709.06 748.47 714.02 747.26 720.12 C 745.73 727.37 746.12 735.94 751.35 741.69 C 758.19 748.95 771.39 748.32 777.64 740.59 C 781.05 736.22 781.69 730.41 781.47 725.05 C 781.31 720.00 779.55 714.72 775.57 711.40 C 771.29 707.51 765.04 706.50 759.52 707.74 Z" />
<path fill="#c7c7c7" opacity="1.00" d=" M 340.69 19.00 C 342.97 18.99 345.24 19.01 347.52 19.06 C 346.78 20.87 345.63 22.44 344.17 23.71 C 343.00 22.15 341.84 20.57 340.69 19.00 Z" />
<path fill="#030303" opacity="1.00" d=" M 357.16 20.16 C 358.22 19.22 359.55 18.82 360.97 18.99 C 393.13 19.04 425.29 18.94 457.45 19.04 C 458.10 21.16 458.79 23.26 459.49 25.37 C 471.85 30.28 483.10 37.48 495.13 43.10 C 510.05 49.34 521.15 62.29 536.55 67.60 C 539.15 68.61 542.27 68.63 544.37 70.67 C 555.77 80.07 564.75 92.05 572.38 104.61 C 574.93 109.22 578.66 113.00 581.76 117.23 C 588.15 125.67 594.18 134.70 597.17 144.97 C 602.45 161.67 604.90 179.39 612.87 195.17 C 614.27 198.09 616.43 200.67 617.22 203.86 C 622.95 226.04 635.08 245.81 642.35 267.44 C 645.62 277.44 646.04 288.23 650.21 297.95 C 653.95 305.09 654.36 313.31 655.27 321.16 C 656.13 331.49 657.02 341.95 660.41 351.82 C 660.61 382.53 660.47 413.26 660.48 443.97 C 658.25 457.55 650.87 469.98 650.31 483.93 C 650.01 492.00 646.53 499.41 644.67 507.16 C 643.01 516.64 644.95 526.36 643.40 535.86 C 643.09 537.78 641.93 539.39 640.98 541.05 C 631.70 556.48 624.46 573.04 618.09 589.86 C 612.56 600.93 605.73 611.35 601.13 622.88 C 598.67 629.56 593.82 634.93 588.81 639.82 C 583.86 644.55 579.72 650.01 575.14 655.08 C 566.31 664.97 557.11 674.54 548.88 684.95 C 542.22 693.15 531.92 697.11 524.68 704.68 C 520.38 709.07 516.63 714.00 511.99 718.06 C 504.26 724.94 494.99 729.91 485.23 733.24 C 473.68 737.36 464.77 748.23 451.88 748.41 C 446.96 748.66 442.03 748.30 437.12 748.67 C 440.66 756.27 445.30 764.27 453.32 767.79 C 466.36 773.70 481.36 769.45 494.60 774.53 C 498.26 775.88 501.44 778.23 504.22 780.94 C 448.00 781.05 391.78 781.02 335.56 780.95 C 345.41 770.07 363.71 767.26 375.34 776.96 C 377.82 773.23 379.66 768.91 383.20 766.03 C 384.23 765.15 385.67 765.30 386.94 765.14 C 393.75 764.76 400.64 765.24 407.40 764.17 C 413.30 761.13 415.83 754.50 418.54 748.85 C 412.18 748.34 405.66 748.63 399.49 746.78 C 375.43 740.03 351.25 733.67 326.95 727.85 C 315.55 724.08 309.54 712.64 300.04 706.06 C 291.84 700.64 285.75 692.75 277.96 686.84 C 275.37 684.79 272.26 683.49 269.83 681.24 C 263.57 675.55 261.47 666.59 254.78 661.28 C 244.36 653.18 233.40 645.03 226.19 633.78 C 222.82 618.96 213.80 606.48 206.83 593.24 C 201.52 583.63 197.94 573.23 193.81 563.09 C 192.08 558.69 189.75 554.52 188.45 549.95 C 183.98 534.99 185.46 519.07 181.86 503.95 C 181.39 501.91 180.49 500.00 179.61 498.12 C 173.51 485.17 166.99 472.39 161.96 458.96 C 160.49 455.00 158.62 451.19 156.30 447.66 C 153.90 443.79 150.51 440.54 148.82 436.25 C 146.43 430.56 144.92 424.26 140.51 419.68 C 140.48 382.79 140.52 345.90 140.49 309.01 C 140.54 306.76 140.32 304.48 140.67 302.26 C 142.24 299.96 144.62 297.85 144.02 294.77 C 144.07 293.46 144.12 292.16 144.19 290.86 C 142.95 289.60 141.72 288.34 140.49 287.08 C 140.52 275.25 140.47 263.41 140.52 251.58 C 141.69 250.42 142.85 249.24 144.01 248.07 C 143.76 245.30 143.78 242.53 143.94 239.77 C 144.49 236.87 141.88 234.93 140.49 232.75 C 140.51 228.47 140.51 224.19 140.49 219.90 C 141.74 218.57 142.98 217.24 144.22 215.90 C 143.11 211.63 143.38 207.20 143.95 202.88 C 145.69 191.68 149.83 181.05 153.71 170.46 C 158.99 159.24 165.48 148.36 167.93 136.06 C 169.94 126.99 180.21 122.93 182.39 113.95 C 184.80 102.55 190.40 91.85 198.28 83.27 C 206.28 75.70 216.27 70.70 224.79 63.77 C 229.34 60.24 233.55 56.10 238.89 53.76 C 246.96 50.50 256.48 50.17 263.32 44.31 C 266.09 42.19 267.12 38.78 268.48 35.73 C 287.91 33.60 307.53 36.63 326.95 34.50 C 337.72 31.48 348.07 26.70 357.16 20.16 M 358.38 32.61 C 352.43 38.80 344.56 42.55 336.58 45.40 C 327.99 49.48 318.20 48.04 309.01 47.99 C 302.39 48.15 295.72 47.57 289.16 48.59 C 278.39 51.01 268.46 56.19 259.40 62.37 C 254.35 64.85 248.25 63.56 243.13 65.93 C 234.41 70.16 227.65 77.27 220.28 83.38 C 216.33 86.76 211.69 89.36 208.36 93.43 C 200.06 102.96 196.25 115.26 191.84 126.86 C 190.35 130.43 186.28 131.48 183.13 133.09 C 180.41 142.02 179.98 151.87 174.62 159.81 C 168.18 169.47 164.80 180.71 161.75 191.80 C 157.91 202.49 150.57 212.22 150.25 223.96 C 150.25 265.97 150.25 307.99 150.25 350.01 C 150.15 363.01 150.49 376.02 149.98 389.01 C 149.57 398.07 153.13 406.60 154.08 415.51 C 159.68 417.67 159.72 424.15 160.46 429.14 C 160.99 433.32 164.63 435.90 166.79 439.23 C 176.51 452.78 181.23 469.05 185.34 484.99 C 186.65 490.45 192.38 494.08 192.23 499.99 C 192.32 504.19 192.21 508.40 192.26 512.60 C 194.34 514.00 196.40 515.43 198.49 516.82 C 198.76 524.12 197.86 531.54 199.19 538.77 C 202.04 546.09 204.21 553.90 209.09 560.21 C 210.68 574.85 221.58 586.19 224.38 600.46 C 227.76 612.96 238.70 621.81 241.59 634.55 C 246.87 637.31 251.16 641.48 255.65 645.32 C 258.66 647.99 262.42 649.80 265.00 652.97 C 269.72 658.46 272.13 665.57 277.18 670.82 C 281.24 674.76 287.09 676.00 291.50 679.43 C 300.31 689.32 311.26 697.01 320.05 706.92 C 323.59 710.95 328.46 713.44 333.33 715.49 C 338.93 717.78 344.17 720.87 349.89 722.87 C 361.43 727.08 373.68 728.95 385.89 729.79 C 394.61 730.17 402.09 736.22 410.95 735.77 C 425.15 735.37 439.41 736.84 453.56 735.33 C 467.58 729.50 482.74 724.70 493.90 713.92 C 499.59 708.21 508.46 706.95 513.61 700.58 C 516.98 696.86 518.77 691.80 522.96 688.83 C 531.17 683.26 538.21 676.19 544.93 668.94 C 548.53 665.17 552.49 661.75 555.78 657.69 C 561.41 650.86 567.40 644.14 571.19 636.05 C 573.71 635.88 576.24 635.68 578.77 635.50 C 584.52 619.71 599.13 608.67 602.98 592.02 C 606.94 582.47 608.13 571.73 614.13 563.09 C 616.94 558.80 618.29 553.80 620.19 549.10 C 623.31 540.78 630.22 534.46 633.03 526.00 C 634.42 522.12 633.61 517.98 633.74 513.98 C 633.93 504.52 636.61 495.35 639.66 486.47 C 640.81 483.44 640.64 480.16 640.92 477.00 C 641.92 464.92 645.42 453.21 646.43 441.13 C 647.35 424.44 648.21 407.72 647.50 391.01 C 647.58 381.67 647.29 372.33 647.75 363.00 C 647.94 355.47 644.18 348.51 644.25 341.00 C 644.25 329.61 644.25 318.22 644.25 306.83 C 642.26 305.42 640.26 304.02 638.25 302.65 C 639.75 287.34 629.03 275.06 625.14 261.03 C 624.29 257.29 621.76 254.31 620.33 250.82 C 615.98 240.93 613.47 230.05 606.60 221.45 C 605.61 217.72 605.89 213.71 604.97 209.94 C 604.02 204.00 601.19 198.63 599.44 192.93 C 597.16 185.72 595.58 178.31 593.41 171.07 C 592.11 166.53 589.01 162.83 587.33 158.46 C 584.52 152.71 583.45 146.25 580.14 140.73 C 575.79 132.77 571.42 124.54 564.66 118.31 C 563.37 117.04 561.83 116.01 560.71 114.58 C 560.26 110.89 560.34 107.15 559.92 103.45 C 547.43 90.49 532.48 80.36 518.13 69.63 C 516.54 68.54 514.64 68.09 512.88 67.40 C 499.21 62.42 488.15 52.28 474.47 47.32 C 471.95 46.31 469.07 46.01 466.94 44.20 C 460.18 38.86 451.93 36.00 443.86 33.29 C 438.96 31.78 434.22 29.61 429.08 29.01 C 418.93 27.64 408.69 29.32 398.51 28.58 C 384.96 27.16 371.81 31.76 358.38 32.61 Z" />
<path fill="#fefefe" opacity="1.00" d=" M 358.38 32.61 C 371.81 31.76 384.96 27.16 398.51 28.58 C 408.69 29.32 418.93 27.64 429.08 29.01 C 434.22 29.61 438.96 31.78 443.86 33.29 C 451.93 36.00 460.18 38.86 466.94 44.20 C 469.07 46.01 471.95 46.31 474.47 47.32 C 488.15 52.28 499.21 62.42 512.88 67.40 C 514.64 68.09 516.54 68.54 518.13 69.63 C 532.48 80.36 547.43 90.49 559.92 103.45 C 560.34 107.15 560.26 110.89 560.71 114.58 C 561.83 116.01 563.37 117.04 564.66 118.31 C 571.42 124.54 575.79 132.77 580.14 140.73 C 583.45 146.25 584.52 152.71 587.33 158.46 C 589.01 162.83 592.11 166.53 593.41 171.07 C 595.58 178.31 597.16 185.72 599.44 192.93 C 601.19 198.63 604.02 204.00 604.97 209.94 C 605.89 213.71 605.61 217.72 606.60 221.45 C 613.47 230.05 615.98 240.93 620.33 250.82 C 621.76 254.31 624.29 257.29 625.14 261.03 C 629.03 275.06 639.75 287.34 638.25 302.65 C 640.26 304.02 642.26 305.42 644.25 306.83 C 644.25 318.22 644.25 329.61 644.25 341.00 C 644.18 348.51 647.94 355.47 647.75 363.00 C 647.29 372.33 647.58 381.67 647.50 391.01 C 648.21 407.72 647.35 424.44 646.43 441.13 C 645.42 453.21 641.92 464.92 640.92 477.00 C 640.64 480.16 640.81 483.44 639.66 486.47 C 636.61 495.35 633.93 504.52 633.74 513.98 C 633.61 517.98 634.42 522.12 633.03 526.00 C 630.22 534.46 623.31 540.78 620.19 549.10 C 618.29 553.80 616.94 558.80 614.13 563.09 C 608.13 571.73 606.94 582.47 602.98 592.02 C 599.13 608.67 584.52 619.71 578.77 635.50 C 576.24 635.68 573.71 635.88 571.19 636.05 C 567.40 644.14 561.41 650.86 555.78 657.69 C 552.49 661.75 548.53 665.17 544.93 668.94 C 538.21 676.19 531.17 683.26 522.96 688.83 C 518.77 691.80 516.98 696.86 513.61 700.58 C 508.46 706.95 499.59 708.21 493.90 713.92 C 482.74 724.70 467.58 729.50 453.56 735.33 C 439.41 736.84 425.15 735.37 410.95 735.77 C 402.09 736.22 394.61 730.17 385.89 729.79 C 373.68 728.95 361.43 727.08 349.89 722.87 C 344.17 720.87 338.93 717.78 333.33 715.49 C 328.46 713.44 323.59 710.95 320.05 706.92 C 311.26 697.01 300.31 689.32 291.50 679.43 C 287.09 676.00 281.24 674.76 277.18 670.82 C 272.13 665.57 269.72 658.46 265.00 652.97 C 262.42 649.80 258.66 647.99 255.65 645.32 C 251.16 641.48 246.87 637.31 241.59 634.55 C 238.70 621.81 227.76 612.96 224.38 600.46 C 221.58 586.19 210.68 574.85 209.09 560.21 C 204.21 553.90 202.04 546.09 199.19 538.77 C 197.86 531.54 198.76 524.12 198.49 516.82 C 196.40 515.43 194.34 514.00 192.26 512.60 C 192.21 508.40 192.32 504.19 192.23 499.99 C 192.38 494.08 186.65 490.45 185.34 484.99 C 181.23 469.05 176.51 452.78 166.79 439.23 C 164.63 435.90 160.99 433.32 160.46 429.14 C 159.72 424.15 159.68 417.67 154.08 415.51 C 153.13 406.60 149.57 398.07 149.98 389.01 C 150.49 376.02 150.15 363.01 150.25 350.01 C 150.25 307.99 150.25 265.97 150.25 223.96 C 150.57 212.22 157.91 202.49 161.75 191.80 C 164.80 180.71 168.18 169.47 174.62 159.81 C 179.98 151.87 180.41 142.02 183.13 133.09 C 186.28 131.48 190.35 130.43 191.84 126.86 C 196.25 115.26 200.06 102.96 208.36 93.43 C 211.69 89.36 216.33 86.76 220.28 83.38 C 227.65 77.27 234.41 70.16 243.13 65.93 C 248.25 63.56 254.35 64.85 259.40 62.37 C 268.46 56.19 278.39 51.01 289.16 48.59 C 295.72 47.57 302.39 48.15 309.01 47.99 C 318.20 48.04 327.99 49.48 336.58 45.40 C 344.56 42.55 352.43 38.80 358.38 32.61 M 470.98 52.22 C 470.46 53.85 471.02 54.40 472.65 53.88 C 473.16 52.25 472.60 51.70 470.98 52.22 M 235.07 81.17 C 234.58 82.81 235.15 83.36 236.77 82.80 C 237.25 81.16 236.68 80.62 235.07 81.17 M 225.80 230.38 C 222.84 231.70 218.93 230.67 216.57 233.17 C 216.17 235.73 214.83 241.22 219.02 240.68 C 219.92 237.07 223.87 236.60 226.40 234.58 C 228.56 232.95 230.87 230.75 233.84 231.78 C 238.22 233.26 242.82 233.76 247.43 233.39 C 247.86 234.39 248.29 235.40 248.73 236.40 C 253.04 237.73 258.37 239.76 262.30 236.43 C 264.02 236.59 265.85 236.68 267.29 237.80 C 270.30 240.11 274.25 240.27 277.87 240.75 C 282.22 245.29 288.59 245.67 294.48 245.81 C 299.69 247.31 305.16 248.19 310.06 250.59 C 310.77 252.40 312.26 253.48 314.20 253.57 C 314.87 254.14 315.54 254.70 316.21 255.27 C 315.96 256.53 315.54 257.79 315.71 259.10 C 316.85 259.47 318.02 259.75 319.22 259.94 C 320.64 264.22 325.45 262.01 328.51 261.10 C 328.52 260.04 328.51 258.98 328.51 257.92 C 325.98 257.29 323.45 256.67 320.92 256.06 C 319.10 251.86 315.54 248.57 311.38 246.76 C 309.33 245.95 307.94 244.28 306.45 242.76 C 301.08 242.41 295.00 243.20 290.53 239.57 C 287.80 237.51 284.29 237.85 281.10 237.34 C 278.20 236.34 275.90 234.18 273.09 233.00 C 268.75 232.49 264.23 233.26 260.02 231.74 C 256.11 230.33 251.77 231.28 247.96 229.56 C 243.21 227.74 238.09 227.59 233.08 227.46 C 232.81 226.94 232.27 225.92 232.00 225.41 C 228.80 225.12 226.97 227.86 225.80 230.38 M 439.12 229.37 C 437.63 228.73 435.96 227.54 434.31 228.45 C 430.45 230.45 426.32 232.04 422.86 234.73 C 421.90 234.35 420.93 233.97 419.98 233.58 C 415.86 236.50 411.91 239.84 406.86 240.98 C 400.37 245.11 392.67 246.40 385.85 249.78 C 382.87 251.22 379.18 250.25 376.45 252.33 C 370.98 256.48 363.61 255.17 357.48 257.55 C 355.12 258.63 354.52 261.20 354.55 263.58 C 357.46 264.20 360.06 262.37 362.96 262.39 C 367.06 262.11 370.85 260.43 374.53 258.72 C 377.23 257.33 380.32 258.02 383.21 257.47 C 383.74 256.51 384.24 255.53 384.68 254.52 C 387.16 253.53 389.58 252.38 392.11 251.50 C 394.82 251.58 397.50 252.14 400.21 252.43 C 402.61 251.52 403.44 249.27 403.53 246.86 C 405.88 246.54 408.56 247.09 410.53 245.42 C 413.28 243.50 415.69 240.88 419.13 240.20 C 422.65 239.37 425.81 237.65 428.78 235.62 C 433.18 237.32 436.77 233.31 441.02 232.95 C 447.32 232.02 453.73 231.05 460.11 231.70 C 462.28 233.74 465.27 233.59 468.05 233.69 C 470.14 235.93 471.85 238.68 474.43 240.40 C 478.06 241.38 481.86 241.81 485.63 241.66 C 485.68 240.46 485.68 239.26 485.60 238.07 C 482.71 237.15 479.86 236.11 476.90 235.46 C 474.10 233.10 471.02 231.09 468.07 228.94 C 463.23 227.41 458.05 227.80 453.09 226.86 C 448.22 226.04 443.68 228.06 439.12 229.37 M 295.64 251.84 C 294.89 257.19 300.08 261.53 305.20 260.80 C 306.06 255.42 300.73 251.19 295.64 251.84 M 339.22 268.09 C 339.23 269.27 339.31 270.46 339.48 271.64 C 343.53 270.84 347.09 267.78 348.49 263.89 C 347.71 262.54 346.12 262.14 344.87 261.40 C 343.00 263.64 340.96 265.75 339.22 268.09 M 514.10 287.45 C 512.77 284.52 511.80 281.46 511.02 278.35 C 505.95 274.83 500.72 271.24 494.52 270.14 L 496.16 271.71 C 495.57 271.72 494.39 271.74 493.80 271.75 C 497.48 272.31 499.61 275.75 500.98 278.90 C 503.54 285.59 501.49 293.01 498.23 299.08 C 491.70 301.05 484.32 303.58 481.20 310.23 C 485.92 308.34 489.94 304.96 494.91 303.63 C 495.40 305.90 495.86 308.17 496.35 310.44 C 503.79 305.97 510.09 299.84 517.72 295.65 C 519.73 284.76 523.39 273.77 521.37 262.60 C 515.06 269.26 514.63 278.81 514.10 287.45 M 385.14 267.79 C 384.27 269.30 383.41 270.82 382.52 272.32 C 380.65 271.81 378.70 271.37 376.75 271.68 C 374.28 272.68 372.69 274.97 370.54 276.46 C 368.57 276.58 366.48 275.81 364.60 276.63 C 362.78 278.13 361.31 280.04 359.21 281.19 C 356.15 282.83 354.32 285.96 352.79 288.96 C 353.01 289.70 353.46 291.19 353.69 291.93 C 358.13 288.91 363.72 287.36 366.99 282.87 C 370.45 282.67 373.58 281.09 375.94 278.58 C 377.69 278.94 379.45 279.28 381.23 279.57 C 383.80 277.78 386.22 275.72 387.96 273.09 C 390.20 273.99 392.64 275.26 395.10 274.30 C 397.39 273.43 396.56 270.67 396.55 268.80 C 393.11 266.60 388.90 265.98 385.14 267.79 M 438.25 274.85 C 434.83 276.94 430.70 277.21 427.09 278.87 C 423.24 280.65 418.76 281.55 415.75 284.76 C 412.20 288.46 407.92 291.37 404.50 295.20 C 399.75 300.44 392.47 301.80 386.79 305.67 C 379.26 308.34 371.09 304.83 363.44 306.89 C 363.37 311.04 367.48 312.74 370.01 315.22 C 370.44 315.47 371.30 315.97 371.73 316.21 C 372.82 316.26 373.91 316.31 375.01 316.37 C 376.16 317.81 377.37 319.22 378.62 320.59 C 385.17 320.93 391.85 320.27 398.17 322.46 C 398.68 322.15 399.71 321.51 400.22 321.20 C 400.83 320.03 401.45 318.87 402.06 317.70 C 405.18 317.61 408.30 317.59 411.42 317.52 C 413.12 315.89 413.74 313.63 414.63 311.54 C 416.52 308.85 419.27 306.93 421.45 304.49 C 423.12 302.51 423.67 299.53 426.18 298.33 C 429.02 296.74 432.01 295.39 434.91 293.89 C 438.40 292.97 441.13 290.59 443.09 287.62 C 445.07 288.07 447.05 288.63 449.10 288.69 C 451.49 288.12 453.29 285.76 455.95 286.25 C 463.37 286.58 470.71 284.47 478.13 285.49 C 480.52 285.89 482.58 288.08 485.13 287.35 C 487.63 285.52 486.97 281.07 484.59 279.35 C 480.64 277.09 474.50 279.82 471.68 275.45 C 470.14 272.64 466.76 272.93 464.04 272.42 C 459.33 270.26 454.24 267.11 448.86 268.64 C 445.17 270.42 441.77 272.75 438.25 274.85 M 302.71 271.72 C 302.21 272.82 301.82 273.98 301.56 275.17 C 302.33 277.08 304.47 276.64 306.11 276.90 C 306.98 278.39 307.73 280.02 309.08 281.16 C 312.43 281.70 315.88 281.00 319.21 281.71 C 321.66 283.28 323.43 285.77 326.11 287.01 C 329.83 288.81 333.01 291.55 336.81 293.22 C 338.99 294.00 340.05 296.36 339.65 298.57 C 338.13 299.50 336.50 300.23 334.91 301.01 C 334.46 302.06 334.02 303.10 333.58 304.15 C 334.80 306.06 336.71 307.18 338.81 307.95 C 338.66 308.16 338.37 308.59 338.23 308.81 C 336.20 310.23 333.73 311.52 332.89 314.03 C 332.11 315.85 332.98 317.76 333.49 319.52 C 334.35 319.45 335.22 319.39 336.09 319.33 C 337.63 317.21 339.15 315.07 340.91 313.13 C 341.48 316.23 342.72 319.19 344.69 321.68 C 345.36 321.31 346.70 320.58 347.37 320.21 C 347.21 314.21 347.39 308.22 347.32 302.22 C 349.24 300.86 350.05 298.89 349.72 296.56 C 348.84 296.60 347.98 296.66 347.12 296.72 C 346.03 297.86 344.92 298.99 343.81 300.12 C 343.58 298.03 343.82 295.81 342.95 293.86 C 342.01 291.06 338.99 290.00 336.89 288.26 C 332.35 284.40 327.61 280.75 322.47 277.72 C 319.94 276.10 316.78 276.96 314.07 275.97 C 312.85 275.02 311.95 273.73 310.99 272.54 C 308.31 271.70 305.49 271.66 302.71 271.72 M 206.23 281.17 C 204.21 281.87 202.02 281.25 199.92 281.43 C 198.60 284.70 196.40 287.93 197.69 291.60 C 199.18 291.69 200.68 291.74 202.18 291.75 C 202.74 290.73 203.30 289.71 203.86 288.70 C 209.55 286.78 215.43 286.88 221.33 287.35 C 221.80 288.67 222.31 289.99 222.81 291.31 C 223.90 291.51 225.00 291.71 226.10 291.91 C 227.66 292.14 229.22 292.35 230.78 292.59 C 234.28 296.01 239.46 295.75 243.87 294.65 C 247.58 293.58 251.00 295.58 254.36 296.82 C 258.54 298.12 260.56 302.56 264.43 304.43 C 266.70 305.49 268.50 307.22 270.02 309.19 C 272.24 310.20 274.44 311.27 276.48 312.63 C 276.52 313.24 276.60 314.46 276.64 315.07 C 271.20 315.47 265.70 314.06 260.32 315.39 C 250.70 317.43 240.34 319.05 232.60 325.63 C 226.92 330.11 223.44 336.55 219.16 342.23 C 217.85 343.83 216.84 346.67 218.80 348.20 C 221.89 350.16 226.07 350.58 228.18 353.89 C 231.16 357.44 228.61 362.26 229.63 366.32 C 230.69 368.27 232.71 369.39 234.42 370.69 C 239.55 374.12 244.00 378.52 249.35 381.63 C 252.60 383.54 256.21 384.65 259.78 385.78 C 254.81 387.97 249.57 389.98 245.69 393.95 C 255.18 392.36 265.13 390.54 272.93 384.49 C 271.66 386.42 270.48 388.40 269.31 390.40 C 270.54 392.02 272.64 393.78 271.82 396.07 C 270.51 400.33 267.19 403.67 266.19 408.08 C 276.44 400.56 284.92 390.11 288.72 377.87 C 290.18 366.62 289.25 355.24 289.21 343.94 C 289.14 340.54 287.01 337.68 284.54 335.55 C 287.14 329.42 287.51 322.54 290.54 316.61 C 294.00 317.49 297.54 316.93 301.05 316.83 C 305.84 316.63 310.60 316.94 315.37 317.42 C 317.11 316.59 318.29 315.20 318.38 313.22 C 317.97 312.26 317.61 311.29 317.30 310.31 C 319.94 308.50 322.92 307.21 325.42 305.19 C 326.76 304.39 326.29 302.73 326.50 301.45 C 323.82 300.86 321.51 302.58 318.96 302.80 C 310.91 302.28 302.73 302.69 294.90 300.39 C 294.12 298.44 293.53 296.40 292.52 294.56 C 290.35 293.45 288.21 292.30 286.25 290.86 C 284.40 289.32 281.47 290.07 279.91 288.12 C 277.81 285.86 275.78 283.53 273.39 281.56 C 271.23 281.67 269.07 281.83 266.94 282.18 C 265.61 281.94 264.28 281.71 262.96 281.49 C 261.02 279.34 258.16 280.40 255.73 280.83 C 255.15 279.84 254.53 278.88 253.89 277.94 C 243.62 276.99 233.25 279.49 223.05 277.31 C 217.43 278.45 211.53 278.74 206.23 281.17 M 173.11 298.41 C 172.93 305.23 172.62 312.05 172.75 318.87 C 176.74 322.15 180.93 325.26 185.73 327.26 C 182.77 317.25 182.21 305.18 173.11 298.41 M 400.59 326.31 C 398.35 327.22 395.66 328.36 394.99 330.93 C 394.01 335.23 393.55 339.65 392.38 343.91 C 391.22 347.52 392.18 351.30 392.04 355.00 C 389.71 353.58 387.38 352.16 384.90 351.01 C 385.33 357.59 390.84 361.81 395.52 365.65 C 394.39 367.00 393.27 368.36 392.18 369.73 C 395.85 374.22 401.38 377.93 402.28 384.06 C 402.03 388.32 398.76 391.43 396.17 394.49 C 394.78 392.58 393.37 390.69 391.86 388.89 C 392.21 390.97 391.92 393.65 393.82 395.10 C 396.03 396.80 398.97 396.73 401.59 397.22 C 404.34 402.02 406.83 407.24 411.20 410.81 C 413.50 412.82 416.58 413.35 419.48 413.90 C 413.42 406.04 406.51 398.80 401.34 390.28 C 404.23 389.93 407.12 389.58 410.01 389.20 C 409.47 390.40 408.40 392.78 407.86 393.97 C 408.91 393.55 411.01 392.71 412.05 392.28 C 414.76 395.18 413.86 399.79 415.00 403.42 C 418.35 403.55 421.70 403.53 425.04 403.23 C 424.89 402.04 424.75 400.84 424.62 399.65 C 421.76 398.60 418.90 397.53 416.05 396.45 C 417.05 393.46 418.05 390.48 419.03 387.49 C 415.28 386.79 411.17 386.89 407.86 384.78 C 406.61 383.57 408.56 382.08 408.85 380.79 C 406.45 380.44 404.07 380.06 401.68 379.71 C 403.57 377.80 405.47 375.90 407.39 374.02 C 415.43 383.43 426.10 389.96 435.26 398.15 C 431.04 390.22 424.22 384.20 418.24 377.65 C 425.36 376.24 432.98 379.25 439.69 375.76 C 443.71 373.94 448.43 374.49 452.28 372.22 C 455.89 370.03 459.07 367.09 461.26 363.46 C 462.00 362.71 462.63 361.86 463.20 360.98 L 462.88 362.15 C 466.08 358.87 469.54 355.86 473.29 353.23 C 474.95 352.21 475.34 350.21 475.99 348.53 C 467.71 342.42 457.21 340.83 448.59 335.40 C 443.62 331.29 437.93 328.24 432.35 325.07 C 431.43 323.32 429.98 321.68 427.88 321.56 C 418.54 320.58 409.26 323.05 400.59 326.31 M 503.42 353.80 C 501.85 370.53 495.21 386.09 489.26 401.61 C 488.69 399.32 487.88 397.11 487.11 394.89 C 485.22 398.15 484.31 401.92 482.08 404.97 C 480.78 406.98 478.23 406.61 476.19 406.58 C 476.24 408.95 476.27 411.33 476.36 413.70 C 478.50 413.38 480.63 413.00 482.77 412.67 C 480.96 414.91 479.07 417.08 477.43 419.45 L 476.92 416.97 C 476.07 416.64 475.22 416.32 474.38 416.00 C 471.48 421.52 465.04 423.68 459.12 422.59 C 460.55 424.76 461.95 426.97 463.28 429.22 C 460.94 427.75 458.63 426.25 456.31 424.75 C 454.26 427.15 452.15 429.49 449.92 431.73 C 443.97 432.09 437.91 432.14 432.16 433.90 C 430.66 433.50 429.13 433.17 427.62 432.86 C 431.17 436.24 434.96 439.36 439.03 442.08 C 444.39 445.71 451.04 446.79 456.26 450.68 C 462.23 454.98 467.86 459.84 472.88 465.21 C 476.32 471.22 476.05 478.48 477.78 485.05 C 480.60 467.55 482.75 449.75 489.10 433.08 C 491.93 425.31 495.73 417.93 500.20 410.98 C 504.56 404.01 509.04 396.51 509.04 388.02 C 509.22 376.53 511.25 363.42 503.42 353.80 M 199.37 356.63 C 199.73 374.07 193.42 391.12 195.60 408.60 C 197.18 415.59 202.59 420.74 206.84 426.22 C 211.25 431.38 213.85 437.73 217.68 443.28 C 222.44 450.36 227.93 456.94 233.80 463.12 C 235.67 465.18 238.06 466.90 239.40 469.39 C 240.96 476.35 240.61 483.57 241.53 490.63 C 243.70 485.28 245.05 479.63 247.57 474.42 C 252.24 464.06 259.19 454.89 267.14 446.84 L 267.63 446.85 C 267.11 445.42 266.59 443.99 266.07 442.58 C 263.26 442.21 260.44 441.87 257.62 441.55 C 252.40 434.35 244.58 429.87 237.47 424.81 C 236.76 426.33 236.03 427.84 235.27 429.34 C 234.89 424.64 234.93 419.92 234.71 415.21 C 232.19 416.76 229.68 418.32 227.16 419.86 C 225.56 414.18 224.30 408.16 220.35 403.55 C 209.70 389.77 205.49 372.60 199.37 356.63 M 333.37 377.64 C 334.72 383.76 337.16 389.76 337.19 396.09 C 334.97 402.24 331.66 407.98 330.01 414.35 C 336.44 411.04 340.39 404.14 341.24 397.11 C 341.35 390.21 337.71 384.01 337.08 377.21 C 336.15 377.32 334.30 377.53 333.37 377.64 M 382.45 424.72 C 382.70 429.07 382.70 433.43 383.06 437.77 C 385.56 440.54 387.92 443.43 390.38 446.24 C 388.75 448.00 388.97 450.88 391.32 451.90 C 393.22 451.52 394.79 450.04 395.34 448.19 C 396.36 445.84 393.46 444.53 392.29 442.95 C 392.64 439.62 392.62 436.26 392.80 432.92 C 389.34 430.20 385.94 427.40 382.45 424.72 M 186.35 433.14 C 185.86 434.77 186.42 435.31 188.05 434.77 C 188.54 433.13 187.97 432.59 186.35 433.14 M 333.44 436.57 C 335.93 439.06 338.59 441.39 341.07 443.90 C 344.23 440.55 347.13 436.86 348.73 432.49 C 345.23 433.42 341.33 434.85 338.00 432.62 C 336.47 433.93 334.96 435.26 333.44 436.57 M 328.61 442.67 C 326.68 444.24 324.23 446.15 324.73 448.98 C 325.02 460.80 334.41 469.29 338.59 479.73 C 343.91 482.74 349.43 485.45 355.26 487.35 C 349.99 480.10 342.28 475.06 336.99 467.85 C 333.82 461.87 331.82 455.34 328.55 449.41 C 330.89 446.69 333.36 444.09 335.69 441.37 C 333.33 441.77 330.89 441.93 328.61 442.67 M 629.10 446.11 C 628.66 447.51 629.14 447.99 630.54 447.53 C 630.97 446.12 630.49 445.64 629.10 446.11 M 392.23 457.55 C 393.36 458.78 394.51 460.00 395.64 461.24 C 395.91 462.10 396.23 462.95 396.61 463.79 L 397.03 464.27 C 397.68 465.18 398.33 466.10 398.98 467.03 C 398.01 470.31 399.18 474.28 398.67 477.84 C 393.55 475.38 394.32 468.96 392.18 464.50 C 388.06 464.50 383.94 464.51 379.82 464.50 C 376.68 468.28 373.88 472.35 371.81 476.83 C 379.74 476.97 386.62 481.29 394.27 482.67 C 397.68 487.74 401.38 492.90 406.39 496.50 C 412.15 498.64 418.42 497.11 424.26 496.08 C 426.13 488.23 424.41 480.11 421.25 472.85 C 419.28 468.63 418.40 463.56 414.62 460.49 C 409.67 456.37 404.62 452.38 399.80 448.10 C 397.27 451.24 394.75 454.40 392.23 457.55 M 310.93 458.17 C 307.89 464.00 308.05 470.79 307.96 477.20 C 318.64 483.97 331.32 486.79 343.82 487.51 C 336.00 479.15 326.59 470.30 314.42 470.08 C 315.25 463.38 316.87 456.82 318.62 450.31 C 315.76 452.59 312.60 454.79 310.93 458.17 M 445.79 460.77 C 443.56 463.05 441.44 465.42 439.20 467.67 C 441.16 469.03 443.43 470.53 443.80 473.11 C 444.43 477.43 443.38 481.76 443.46 486.09 C 445.99 485.34 448.51 484.57 451.05 483.85 C 449.71 475.51 447.61 467.31 446.08 459.02 C 446.01 459.45 445.86 460.33 445.79 460.77 M 297.83 480.81 C 298.49 487.90 303.87 495.77 298.74 502.33 C 298.66 498.61 298.96 494.90 299.03 491.19 C 295.25 496.94 291.32 503.15 291.35 510.29 C 292.28 510.25 294.13 510.16 295.05 510.12 C 291.00 515.31 290.43 522.43 285.66 527.15 C 286.16 523.16 287.51 519.35 289.67 515.96 C 287.39 514.82 285.12 513.69 282.84 512.57 C 281.29 518.26 281.83 524.57 278.81 529.81 C 277.50 532.19 274.63 532.68 272.25 533.36 C 274.87 536.06 277.29 538.95 279.74 541.81 C 275.38 551.52 271.81 561.64 266.22 570.75 C 268.61 575.43 269.46 580.64 270.33 585.76 C 272.14 589.66 276.83 590.76 280.48 592.29 C 277.70 600.27 282.11 608.12 285.61 615.06 C 286.66 597.34 285.69 579.60 286.06 561.86 C 286.68 551.87 290.61 542.53 292.51 532.78 C 289.59 535.59 286.46 538.69 285.99 542.95 C 285.02 549.31 282.36 555.36 282.34 561.88 C 282.08 571.98 283.76 582.29 280.84 592.18 C 278.88 588.33 279.76 583.81 279.48 579.65 C 277.33 581.80 275.18 583.95 273.04 586.11 C 271.17 567.35 283.00 550.83 283.58 532.33 C 287.24 531.29 291.52 529.55 294.81 532.44 C 295.39 528.46 297.56 524.97 298.31 521.05 C 298.48 519.44 297.30 518.31 296.34 517.25 C 301.02 514.72 302.11 509.27 303.71 504.68 C 306.16 496.83 305.39 488.52 305.49 480.43 C 302.93 480.50 300.38 480.66 297.83 480.81 M 445.95 489.83 C 446.29 491.46 446.85 493.02 447.36 494.62 C 449.37 493.34 451.38 492.06 453.36 490.74 C 452.22 493.06 450.90 495.40 450.69 498.05 C 450.72 500.59 452.71 502.33 454.41 503.94 C 456.13 502.64 457.82 501.29 459.52 499.95 C 463.15 503.21 462.31 509.30 467.00 511.64 C 467.64 508.93 468.31 506.24 468.98 503.55 C 462.19 498.27 458.49 490.33 453.43 483.58 C 450.95 485.67 448.36 487.65 445.95 489.83 M 476.15 518.68 C 476.66 514.12 475.07 508.04 469.72 507.36 C 466.89 512.13 470.31 519.11 476.15 518.68 M 385.84 521.87 C 380.27 530.10 370.79 534.07 363.38 540.29 C 361.36 542.04 359.15 543.84 358.12 546.39 C 357.15 546.14 356.18 545.90 355.22 545.66 C 354.38 546.48 353.55 547.29 352.72 548.12 C 353.16 550.05 354.28 551.46 356.30 551.78 L 356.53 551.06 C 356.86 550.88 357.53 550.51 357.86 550.33 C 362.46 550.90 367.06 551.81 371.71 551.89 C 374.62 550.75 377.32 549.15 380.13 547.79 C 378.62 545.69 377.11 543.59 375.60 541.50 C 373.31 542.46 371.01 543.38 368.77 544.45 C 369.52 542.60 369.31 539.87 370.97 538.65 C 374.35 538.68 377.66 539.49 380.99 540.02 C 383.13 543.08 385.16 546.23 387.11 549.42 C 388.48 547.99 389.83 546.54 391.25 545.16 C 398.41 547.73 405.43 551.45 413.18 551.77 C 417.51 549.85 421.75 547.72 426.27 546.25 C 425.66 545.85 424.46 545.06 423.85 544.66 C 423.67 542.86 424.45 540.52 422.67 539.28 C 418.77 536.36 412.40 536.66 409.66 541.03 C 410.30 541.24 411.57 541.67 412.21 541.89 C 406.53 541.19 400.79 541.47 395.10 541.77 C 398.11 539.83 401.59 538.80 404.96 537.67 C 400.91 532.74 397.87 527.04 396.06 520.93 C 395.22 518.90 394.94 515.45 391.96 515.73 C 388.90 516.40 387.64 519.66 385.84 521.87 M 477.17 524.17 C 476.64 525.79 477.20 526.35 478.83 525.83 C 479.35 524.20 478.79 523.64 477.17 524.17 M 479.70 529.71 C 476.78 532.59 475.65 536.69 473.79 540.24 C 476.03 541.55 478.29 542.84 480.45 544.28 C 478.75 544.67 477.03 544.98 475.32 545.29 C 476.06 554.70 482.54 562.59 482.77 572.07 C 482.26 575.50 480.68 578.68 479.44 581.89 C 476.44 581.65 474.84 578.02 472.29 576.53 C 472.71 584.44 479.94 588.94 484.58 594.44 C 485.07 593.36 486.04 591.20 486.53 590.12 L 487.55 592.54 C 487.46 591.75 487.28 590.97 487.07 590.23 C 488.99 586.85 491.14 583.59 492.86 580.10 C 492.30 574.82 490.57 569.80 489.33 564.67 C 492.10 568.28 495.08 571.73 497.90 575.31 C 498.71 578.89 498.35 582.78 500.05 586.17 C 501.09 588.72 503.33 590.45 505.41 592.13 C 506.05 578.38 503.51 563.91 495.50 552.45 C 492.25 547.57 490.98 541.77 489.04 536.33 C 487.05 537.16 485.08 538.01 483.10 538.87 C 484.81 535.60 486.21 532.18 487.20 528.63 C 484.67 528.27 481.73 527.70 479.70 529.71 M 270.87 539.35 C 271.00 539.97 271.27 541.21 271.40 541.83 C 272.55 541.65 273.12 540.62 273.83 539.83 C 273.09 539.71 271.61 539.47 270.87 539.35 M 462.63 550.30 C 464.38 554.35 466.52 558.21 468.67 562.06 C 469.78 564.04 469.08 566.43 469.34 568.60 C 468.93 568.71 468.11 568.93 467.70 569.04 C 471.77 570.94 476.36 570.88 480.72 571.56 C 479.70 565.24 474.30 561.05 472.49 555.07 C 469.36 553.16 466.02 551.66 462.63 550.30 M 314.76 569.70 C 312.12 571.12 309.09 571.38 306.16 571.10 C 305.49 568.47 304.88 565.82 304.24 563.19 C 298.40 566.25 294.77 572.12 292.25 578.00 C 290.96 586.62 296.17 594.60 295.72 603.23 C 298.65 601.70 302.14 601.01 305.04 603.04 C 306.08 596.37 309.20 589.98 308.59 583.11 C 309.00 583.15 309.81 583.22 310.21 583.26 C 306.60 582.22 306.87 577.35 305.02 574.57 C 307.69 576.28 311.87 578.42 314.22 575.02 C 314.25 577.10 314.26 579.18 314.28 581.27 C 317.77 578.58 320.88 575.14 325.05 573.51 C 335.27 573.76 342.79 581.76 349.41 588.62 C 352.72 592.49 357.87 593.62 362.25 595.81 C 369.83 599.13 377.60 603.04 386.03 603.16 C 396.60 601.27 406.48 596.66 416.25 592.35 C 424.08 588.92 428.32 580.87 435.47 576.51 C 441.41 573.11 448.57 572.23 454.13 568.12 C 456.14 566.68 456.97 564.28 457.88 562.10 C 457.64 560.80 457.42 559.51 457.22 558.22 C 444.61 559.83 432.64 553.30 420.03 554.70 C 397.39 554.87 374.73 554.62 352.09 554.81 C 338.45 555.99 326.60 563.51 314.76 569.70 M 468.68 643.67 C 467.28 644.49 465.82 645.24 464.60 646.33 C 463.75 646.32 462.06 646.32 461.21 646.32 C 460.69 647.45 460.18 648.58 459.68 649.73 C 460.22 650.67 460.76 651.62 461.30 652.58 C 460.05 653.86 458.68 655.02 457.24 656.09 C 456.37 655.11 455.51 654.13 454.65 653.17 C 457.07 648.04 459.18 642.74 460.38 637.18 C 455.33 638.45 452.87 643.18 450.05 647.04 C 446.85 650.32 442.63 652.34 438.97 655.04 C 439.43 657.24 439.87 659.44 440.31 661.66 C 439.18 660.55 438.06 659.44 436.95 658.34 C 425.23 666.72 410.07 665.22 396.53 664.14 C 390.23 662.15 384.16 659.43 378.07 656.88 C 375.09 655.99 374.29 652.71 372.39 650.62 C 370.91 648.54 368.36 647.78 366.03 647.14 C 367.00 649.96 368.22 652.69 369.32 655.47 C 365.02 651.79 360.87 647.96 356.66 644.19 C 357.54 648.72 358.90 653.33 357.80 657.96 C 359.65 658.95 361.48 660.00 363.31 661.06 C 343.80 657.42 327.50 644.42 307.90 640.96 C 306.38 653.90 312.71 667.25 323.66 674.30 C 332.43 679.71 338.50 688.45 347.32 693.79 C 351.29 696.27 355.89 697.38 360.38 698.53 C 374.49 702.11 388.86 704.56 402.95 708.20 C 413.01 710.77 423.77 711.56 433.88 708.79 C 439.27 707.37 444.03 704.35 449.11 702.14 C 462.64 695.80 474.28 684.58 479.51 670.41 C 481.39 665.48 484.06 660.92 486.11 656.07 C 489.34 648.90 491.15 641.01 490.29 633.13 C 492.09 634.39 493.91 635.65 495.73 636.90 C 495.76 630.61 495.77 624.33 495.72 618.05 C 488.45 628.18 479.65 637.54 468.68 643.67 M 283.25 620.29 C 282.76 621.92 283.32 622.46 284.94 621.89 C 285.42 620.24 284.86 619.70 283.25 620.29 M 400.05 723.49 C 398.55 726.47 403.39 723.56 400.05 723.49 Z" />
<path fill="#dadada" opacity="1.00" d=" M 470.98 52.22 C 472.60 51.70 473.16 52.25 472.65 53.88 C 471.02 54.40 470.46 53.85 470.98 52.22 Z" />
<path fill="#d8d8d8" opacity="1.00" d=" M 235.07 81.17 C 236.68 80.62 237.25 81.16 236.77 82.80 C 235.15 83.36 234.58 82.81 235.07 81.17 Z" />
<path fill="#c3c3c3" opacity="1.00" d=" M 142.89 212.74 C 143.03 209.44 143.35 206.14 143.95 202.88 C 143.38 207.20 143.11 211.63 144.22 215.90 C 142.98 217.24 141.74 218.57 140.49 219.90 C 140.50 217.83 140.52 215.77 140.54 213.70 C 141.13 213.46 142.30 212.98 142.89 212.74 Z" />
<path fill="#0c0c0c" opacity="1.00" d=" M 225.80 230.38 C 226.97 227.86 228.80 225.12 232.00 225.41 C 232.27 225.92 232.81 226.94 233.08 227.46 C 238.09 227.59 243.21 227.74 247.96 229.56 C 251.77 231.28 256.11 230.33 260.02 231.74 C 264.23 233.26 268.75 232.49 273.09 233.00 C 275.90 234.18 278.20 236.34 281.10 237.34 C 284.29 237.85 287.80 237.51 290.53 239.57 C 295.00 243.20 301.08 242.41 306.45 242.76 C 307.94 244.28 309.33 245.95 311.38 246.76 C 315.54 248.57 319.10 251.86 320.92 256.06 C 323.45 256.67 325.98 257.29 328.51 257.92 C 328.51 258.98 328.52 260.04 328.51 261.10 C 325.45 262.01 320.64 264.22 319.22 259.94 C 318.02 259.75 316.85 259.47 315.71 259.10 C 315.54 257.79 315.96 256.53 316.21 255.27 C 315.54 254.70 314.87 254.14 314.20 253.57 C 312.26 253.48 310.77 252.40 310.06 250.59 C 305.16 248.19 299.69 247.31 294.48 245.81 C 288.59 245.67 282.22 245.29 277.87 240.75 C 274.25 240.27 270.30 240.11 267.29 237.80 C 265.85 236.68 264.02 236.59 262.30 236.43 C 258.37 239.76 253.04 237.73 248.73 236.40 C 248.29 235.40 247.86 234.39 247.43 233.39 C 242.82 233.76 238.22 233.26 233.84 231.78 C 230.87 230.75 228.56 232.95 226.40 234.58 C 223.87 236.60 219.92 237.07 219.02 240.68 C 214.83 241.22 216.17 235.73 216.57 233.17 C 218.93 230.67 222.84 231.70 225.80 230.38 Z" />
<path fill="#0c0c0c" opacity="1.00" d=" M 439.12 229.37 C 443.68 228.06 448.22 226.04 453.09 226.86 C 458.05 227.80 463.23 227.41 468.07 228.94 C 471.02 231.09 474.10 233.10 476.90 235.46 C 479.86 236.11 482.71 237.15 485.60 238.07 C 485.68 239.26 485.68 240.46 485.63 241.66 C 481.86 241.81 478.06 241.38 474.43 240.40 C 471.85 238.68 470.14 235.93 468.05 233.69 C 465.27 233.59 462.28 233.74 460.11 231.70 C 453.73 231.05 447.32 232.02 441.02 232.95 C 436.77 233.31 433.18 237.32 428.78 235.62 C 425.81 237.65 422.65 239.37 419.13 240.20 C 415.69 240.88 413.28 243.50 410.53 245.42 C 408.56 247.09 405.88 246.54 403.53 246.86 C 403.44 249.27 402.61 251.52 400.21 252.43 C 397.50 252.14 394.82 251.58 392.11 251.50 C 389.58 252.38 387.16 253.53 384.68 254.52 C 384.24 255.53 383.74 256.51 383.21 257.47 C 380.32 258.02 377.23 257.33 374.53 258.72 C 370.85 260.43 367.06 262.11 362.96 262.39 C 360.06 262.37 357.46 264.20 354.55 263.58 C 354.52 261.20 355.12 258.63 357.48 257.55 C 363.61 255.17 370.98 256.48 376.45 252.33 C 379.18 250.25 382.87 251.22 385.85 249.78 C 392.67 246.40 400.37 245.11 406.86 240.98 C 411.91 239.84 415.86 236.50 419.98 233.58 C 420.93 233.97 421.90 234.35 422.86 234.73 C 426.32 232.04 430.45 230.45 434.31 228.45 C 435.96 227.54 437.63 228.73 439.12 229.37 Z" />
<path fill="#c3c3c3" opacity="1.00" d=" M 140.52 245.72 C 142.82 244.54 143.48 242.12 143.94 239.77 C 143.78 242.53 143.76 245.30 144.01 248.07 C 142.85 249.24 141.69 250.42 140.52 251.58 C 140.51 249.62 140.50 247.67 140.52 245.72 Z" />
<path fill="#030303" opacity="1.00" d=" M 295.64 251.84 C 300.73 251.19 306.06 255.42 305.20 260.80 C 300.08 261.53 294.89 257.19 295.64 251.84 Z" />
<path fill="#0c0c0c" opacity="1.00" d=" M 339.22 268.09 C 340.96 265.75 343.00 263.64 344.87 261.40 C 346.12 262.14 347.71 262.54 348.49 263.89 C 347.09 267.78 343.53 270.84 339.48 271.64 C 339.31 270.46 339.23 269.27 339.22 268.09 Z" />
<path fill="#030303" opacity="1.00" d=" M 514.10 287.45 C 514.63 278.81 515.06 269.26 521.37 262.60 C 523.39 273.77 519.73 284.76 517.72 295.65 C 510.09 299.84 503.79 305.97 496.35 310.44 C 495.86 308.17 495.40 305.90 494.91 303.63 C 489.94 304.96 485.92 308.34 481.20 310.23 C 484.32 303.58 491.70 301.05 498.23 299.08 C 501.49 293.01 503.54 285.59 500.98 278.90 C 499.61 275.75 497.48 272.31 493.80 271.75 C 494.39 271.74 495.57 271.72 496.16 271.71 L 494.52 270.14 C 500.72 271.24 505.95 274.83 511.02 278.35 C 511.80 281.46 512.77 284.52 514.10 287.45 M 505.53 281.28 C 505.13 282.14 504.73 283.01 504.35 283.88 C 504.61 284.48 505.13 285.70 505.40 286.31 C 507.44 286.57 509.10 285.95 509.91 283.92 C 509.53 283.26 508.77 281.93 508.39 281.26 C 507.43 281.27 506.47 281.27 505.53 281.28 M 509.42 290.61 C 509.35 291.15 509.22 292.24 509.16 292.79 C 509.72 292.74 510.84 292.65 511.40 292.61 C 511.34 292.17 511.22 291.28 511.16 290.83 C 510.73 290.78 509.85 290.66 509.42 290.61 Z" />
<path fill="#0c0c0c" opacity="1.00" d=" M 385.14 267.79 C 388.90 265.98 393.11 266.60 396.55 268.80 C 396.56 270.67 397.39 273.43 395.10 274.30 C 392.64 275.26 390.20 273.99 387.96 273.09 C 386.22 275.72 383.80 277.78 381.23 279.57 C 379.45 279.28 377.69 278.94 375.94 278.58 C 373.58 281.09 370.45 282.67 366.99 282.87 C 363.72 287.36 358.13 288.91 353.69 291.93 C 353.46 291.19 353.01 289.70 352.79 288.96 C 354.32 285.96 356.15 282.83 359.21 281.19 C 361.31 280.04 362.78 278.13 364.60 276.63 C 366.48 275.81 368.57 276.58 370.54 276.46 C 372.69 274.97 374.28 272.68 376.75 271.68 C 378.70 271.37 380.65 271.81 382.52 272.32 C 383.41 270.82 384.27 269.30 385.14 267.79 M 378.42 275.04 C 378.48 278.38 381.42 273.56 378.42 275.04 Z" />
<path fill="#0c0c0c" opacity="1.00" d=" M 438.25 274.85 C 441.77 272.75 445.17 270.42 448.86 268.64 C 454.24 267.11 459.33 270.26 464.04 272.42 C 466.76 272.93 470.14 272.64 471.68 275.45 C 474.50 279.82 480.64 277.09 484.59 279.35 C 486.97 281.07 487.63 285.52 485.13 287.35 C 482.58 288.08 480.52 285.89 478.13 285.49 C 470.71 284.47 463.37 286.58 455.95 286.25 C 453.29 285.76 451.49 288.12 449.10 288.69 C 447.05 288.63 445.07 288.07 443.09 287.62 C 441.13 290.59 438.40 292.97 434.91 293.89 C 432.01 295.39 429.02 296.74 426.18 298.33 C 423.67 299.53 423.12 302.51 421.45 304.49 C 419.27 306.93 416.52 308.85 414.63 311.54 C 413.74 313.63 413.12 315.89 411.42 317.52 C 408.30 317.59 405.18 317.61 402.06 317.70 C 401.45 318.87 400.83 320.03 400.22 321.20 C 399.71 321.51 398.68 322.15 398.17 322.46 C 391.85 320.27 385.17 320.93 378.62 320.59 C 377.37 319.22 376.16 317.81 375.01 316.37 C 373.91 316.31 372.82 316.26 371.73 316.21 C 371.30 315.97 370.44 315.47 370.01 315.22 C 367.48 312.74 363.37 311.04 363.44 306.89 C 371.09 304.83 379.26 308.34 386.79 305.67 C 392.47 301.80 399.75 300.44 404.50 295.20 C 407.92 291.37 412.20 288.46 415.75 284.76 C 418.76 281.55 423.24 280.65 427.09 278.87 C 430.70 277.21 434.83 276.94 438.25 274.85 M 451.23 281.05 C 450.99 281.34 450.52 281.91 450.29 282.20 C 451.08 285.19 454.63 280.31 451.23 281.05 M 481.19 282.17 C 481.33 285.51 484.16 280.62 481.19 282.17 Z" />
<path fill="#0c0c0c" opacity="1.00" d=" M 302.71 271.72 C 305.49 271.66 308.31 271.70 310.99 272.54 C 311.95 273.73 312.85 275.02 314.07 275.97 C 316.78 276.96 319.94 276.10 322.47 277.72 C 327.61 280.75 332.35 284.40 336.89 288.26 C 338.99 290.00 342.01 291.06 342.95 293.86 C 343.82 295.81 343.58 298.03 343.81 300.12 C 344.92 298.99 346.03 297.86 347.12 296.72 C 347.98 296.66 348.84 296.60 349.72 296.56 C 350.05 298.89 349.24 300.86 347.32 302.22 C 347.39 308.22 347.21 314.21 347.37 320.21 C 346.70 320.58 345.36 321.31 344.69 321.68 C 342.72 319.19 341.48 316.23 340.91 313.13 C 339.15 315.07 337.63 317.21 336.09 319.33 C 335.22 319.39 334.35 319.45 333.49 319.52 C 332.98 317.76 332.11 315.85 332.89 314.03 C 333.73 311.52 336.20 310.23 338.23 308.81 C 338.37 308.59 338.66 308.16 338.81 307.95 C 336.71 307.18 334.80 306.06 333.58 304.15 C 334.02 303.10 334.46 302.06 334.91 301.01 C 336.50 300.23 338.13 299.50 339.65 298.57 C 340.05 296.36 338.99 294.00 336.81 293.22 C 333.01 291.55 329.83 288.81 326.11 287.01 C 323.43 285.77 321.66 283.28 319.21 281.71 C 315.88 281.00 312.43 281.70 309.08 281.16 C 307.73 280.02 306.98 278.39 306.11 276.90 C 304.47 276.64 302.33 277.08 301.56 275.17 C 301.82 273.98 302.21 272.82 302.71 271.72 Z" />
<path fill="#343434" opacity="1.00" d=" M 378.42 275.04 C 381.42 273.56 378.48 278.38 378.42 275.04 Z" />
<path fill="#000000" opacity="1.00" d=" M 206.23 281.17 C 211.53 278.74 217.43 278.45 223.05 277.31 C 233.25 279.49 243.62 276.99 253.89 277.94 C 254.53 278.88 255.15 279.84 255.73 280.83 C 258.16 280.40 261.02 279.34 262.96 281.49 C 264.28 281.71 265.61 281.94 266.94 282.18 C 269.07 281.83 271.23 281.67 273.39 281.56 C 275.78 283.53 277.81 285.86 279.91 288.12 C 281.47 290.07 284.40 289.32 286.25 290.86 C 288.21 292.30 290.35 293.45 292.52 294.56 C 293.53 296.40 294.12 298.44 294.90 300.39 C 302.73 302.69 310.91 302.28 318.96 302.80 C 321.51 302.58 323.82 300.86 326.50 301.45 C 326.29 302.73 326.76 304.39 325.42 305.19 C 322.92 307.21 319.94 308.50 317.30 310.31 C 317.61 311.29 317.97 312.26 318.38 313.22 C 318.29 315.20 317.11 316.59 315.37 317.42 C 310.60 316.94 305.84 316.63 301.05 316.83 C 297.54 316.93 294.00 317.49 290.54 316.61 C 287.43 316.29 284.30 316.37 281.19 316.26 C 279.68 314.98 278.16 313.70 276.48 312.63 C 274.44 311.27 272.24 310.20 270.02 309.19 C 268.50 307.22 266.70 305.49 264.43 304.43 C 260.56 302.56 258.54 298.12 254.36 296.82 C 251.00 295.58 247.58 293.58 243.87 294.65 C 239.46 295.75 234.28 296.01 230.78 292.59 C 229.22 292.35 227.66 292.14 226.10 291.91 C 225.00 291.71 223.90 291.51 222.81 291.31 C 222.31 289.99 221.80 288.67 221.33 287.35 C 215.43 286.88 209.55 286.78 203.86 288.70 C 203.30 289.71 202.74 290.73 202.18 291.75 C 200.68 291.74 199.18 291.69 197.69 291.60 C 196.40 287.93 198.60 284.70 199.92 281.43 C 202.02 281.25 204.21 281.87 206.23 281.17 Z" />
<path fill="#292929" opacity="1.00" d=" M 451.23 281.05 C 454.63 280.31 451.08 285.19 450.29 282.20 C 450.52 281.91 450.99 281.34 451.23 281.05 Z" />
<path fill="#fefefe" opacity="1.00" d=" M 505.53 281.28 C 506.47 281.27 507.43 281.27 508.39 281.26 C 508.77 281.93 509.53 283.26 509.91 283.92 C 509.10 285.95 507.44 286.57 505.40 286.31 C 505.13 285.70 504.61 284.48 504.35 283.88 C 504.73 283.01 505.13 282.14 505.53 281.28 Z" />
<path fill="#404040" opacity="1.00" d=" M 481.19 282.17 C 484.16 280.62 481.33 285.51 481.19 282.17 Z" />
<path fill="#c3c3c3" opacity="1.00" d=" M 140.49 287.08 C 141.72 288.34 142.95 289.60 144.19 290.86 C 144.12 292.16 144.07 293.46 144.02 294.77 C 142.86 294.24 141.70 293.72 140.54 293.21 C 140.52 291.16 140.51 289.12 140.49 287.08 Z" />
<path fill="#fefefe" opacity="1.00" d=" M 509.42 290.61 C 509.85 290.66 510.73 290.78 511.16 290.83 C 511.22 291.28 511.34 292.17 511.40 292.61 C 510.84 292.65 509.72 292.74 509.16 292.79 C 509.22 292.24 509.35 291.15 509.42 290.61 Z" />
<path fill="#030303" opacity="1.00" d=" M 173.11 298.41 C 182.21 305.18 182.77 317.25 185.73 327.26 C 180.93 325.26 176.74 322.15 172.75 318.87 C 172.62 312.05 172.93 305.23 173.11 298.41 Z" />
<path fill="#c3c3c3" opacity="1.00" d=" M 276.48 312.63 C 278.16 313.70 279.68 314.98 281.19 316.26 C 284.30 316.37 287.43 316.29 290.54 316.61 C 287.51 322.54 287.14 329.42 284.54 335.55 C 279.58 330.62 275.21 325.11 271.39 319.25 C 267.47 320.02 262.99 320.04 259.96 323.05 C 251.98 330.43 242.71 336.16 233.71 342.20 C 239.28 353.81 246.20 365.60 257.31 372.69 C 261.69 374.52 266.60 374.43 271.22 375.26 C 268.47 379.76 264.69 383.66 259.78 385.78 C 256.21 384.65 252.60 383.54 249.35 381.63 C 244.00 378.52 239.55 374.12 234.42 370.69 C 232.71 369.39 230.69 368.27 229.63 366.32 C 228.61 362.26 231.16 357.44 228.18 353.89 C 226.07 350.58 221.89 350.16 218.80 348.20 C 216.84 346.67 217.85 343.83 219.16 342.23 C 223.44 336.55 226.92 330.11 232.60 325.63 C 240.34 319.05 250.70 317.43 260.32 315.39 C 265.70 314.06 271.20 315.47 276.64 315.07 C 276.60 314.46 276.52 313.24 276.48 312.63 M 231.16 355.96 C 229.74 361.46 234.57 366.86 240.03 367.07 C 240.01 364.28 239.88 361.30 238.12 358.99 C 236.71 356.80 233.80 354.68 231.16 355.96 Z" />
<path fill="#030303" opacity="1.00" d=" M 259.96 323.05 C 262.99 320.04 267.47 320.02 271.39 319.25 C 275.21 325.11 279.58 330.62 284.54 335.55 C 287.01 337.68 289.14 340.54 289.21 343.94 C 289.25 355.24 290.18 366.62 288.72 377.87 C 284.92 390.11 276.44 400.56 266.19 408.08 C 267.19 403.67 270.51 400.33 271.82 396.07 C 272.64 393.78 270.54 392.02 269.31 390.40 C 270.48 388.40 271.66 386.42 272.93 384.49 C 265.13 390.54 255.18 392.36 245.69 393.95 C 249.57 389.98 254.81 387.97 259.78 385.78 C 264.69 383.66 268.47 379.76 271.22 375.26 C 266.60 374.43 261.69 374.52 257.31 372.69 C 246.20 365.60 239.28 353.81 233.71 342.20 C 242.71 336.16 251.98 330.43 259.96 323.05 M 256.61 334.65 C 253.94 335.52 251.09 335.60 248.42 336.47 C 247.13 337.37 246.00 338.48 244.81 339.51 C 257.06 333.96 270.70 337.00 283.59 336.14 C 278.18 333.37 273.25 329.88 268.73 325.84 C 264.27 328.18 260.41 331.41 256.61 334.65 M 271.02 338.94 C 272.40 340.99 270.06 341.24 269.02 342.06 C 265.98 347.13 260.47 352.29 254.08 350.61 C 250.69 349.51 249.42 346.08 247.59 343.40 C 246.62 341.81 244.57 342.47 243.05 342.23 C 243.69 345.10 244.68 347.93 244.66 350.91 C 244.84 353.79 244.31 357.22 246.64 359.43 C 251.93 362.31 257.75 365.20 260.44 370.95 C 265.47 371.15 270.50 370.82 275.53 370.68 C 278.82 367.23 281.98 363.63 285.66 360.58 C 285.74 356.56 286.25 352.54 285.90 348.52 L 284.33 347.86 C 284.94 346.72 285.60 345.62 286.31 344.54 C 285.07 342.77 283.82 341.02 282.61 339.23 C 278.74 339.30 274.87 339.29 271.02 338.94 M 276.82 374.84 C 276.77 375.28 276.67 376.17 276.62 376.61 C 277.17 376.66 278.27 376.76 278.81 376.81 C 278.76 376.26 278.65 375.16 278.59 374.60 C 278.15 374.66 277.27 374.78 276.82 374.84 M 276.63 381.38 C 276.68 381.83 276.77 382.73 276.82 383.18 C 277.27 383.23 278.18 383.32 278.63 383.37 C 278.67 382.82 278.75 381.73 278.80 381.19 C 278.26 381.24 277.17 381.33 276.63 381.38 Z" />
<path fill="#030303" opacity="1.00" d=" M 400.59 326.31 C 409.26 323.05 418.54 320.58 427.88 321.56 C 429.98 321.68 431.43 323.32 432.35 325.07 C 437.23 333.45 440.96 343.06 448.77 349.23 C 451.53 351.40 454.91 352.52 458.20 353.61 C 450.24 357.13 442.49 361.25 435.68 366.70 C 430.72 370.62 425.46 374.80 418.96 375.54 C 417.29 372.95 415.59 370.39 414.00 367.75 C 417.57 368.54 421.06 369.63 424.55 370.74 C 428.16 367.57 432.49 365.31 435.83 361.82 C 439.42 358.18 443.74 355.40 447.93 352.52 C 445.64 351.42 442.98 350.83 441.06 349.11 C 438.85 346.24 436.95 343.15 434.78 340.26 C 434.20 337.39 433.69 333.75 430.60 332.50 C 427.90 332.00 425.08 332.25 422.49 333.15 L 422.03 332.96 L 419.42 331.87 C 421.10 331.37 422.59 330.54 423.89 329.37 C 423.14 327.93 422.40 326.50 421.67 325.06 C 414.72 325.40 407.38 326.48 401.68 330.79 C 399.91 331.98 399.60 334.23 398.99 336.11 C 402.01 336.30 405.05 336.54 408.08 336.65 C 410.25 335.06 412.14 332.52 415.07 332.52 C 417.40 332.18 419.73 332.63 422.03 332.96 C 421.57 337.19 420.97 341.78 418.27 345.22 C 414.41 348.08 410.17 350.48 405.48 351.65 C 402.61 348.91 401.79 345.01 401.50 341.21 C 399.68 341.37 397.88 341.53 396.07 341.69 C 395.46 344.17 393.84 347.07 395.66 349.42 C 397.91 352.27 398.90 355.77 399.44 359.31 C 398.10 358.77 396.77 358.21 395.45 357.65 C 395.47 358.71 395.51 360.82 395.53 361.87 C 396.57 361.47 398.63 360.66 399.66 360.26 C 399.19 361.82 398.72 363.39 398.25 364.95 C 401.29 366.26 404.43 367.36 407.45 368.74 C 410.45 370.69 412.80 373.47 415.77 375.47 C 416.62 376.16 417.45 376.88 418.24 377.65 C 424.22 384.20 431.04 390.22 435.26 398.15 C 426.10 389.96 415.43 383.43 407.39 374.02 C 405.47 375.90 403.57 377.80 401.68 379.71 C 404.07 380.06 406.45 380.44 408.85 380.79 C 408.56 382.08 406.61 383.57 407.86 384.78 C 411.17 386.89 415.28 386.79 419.03 387.49 C 418.05 390.48 417.05 393.46 416.05 396.45 C 418.90 397.53 421.76 398.60 424.62 399.65 C 424.75 400.84 424.89 402.04 425.04 403.23 C 421.70 403.53 418.35 403.55 415.00 403.42 C 413.86 399.79 414.76 395.18 412.05 392.28 C 411.01 392.71 408.91 393.55 407.86 393.97 C 408.40 392.78 409.47 390.40 410.01 389.20 C 407.12 389.58 404.23 389.93 401.34 390.28 C 406.51 398.80 413.42 406.04 419.48 413.90 C 416.58 413.35 413.50 412.82 411.20 410.81 C 406.83 407.24 404.34 402.02 401.59 397.22 C 398.97 396.73 396.03 396.80 393.82 395.10 C 391.92 393.65 392.21 390.97 391.86 388.89 C 393.37 390.69 394.78 392.58 396.17 394.49 C 398.76 391.43 402.03 388.32 402.28 384.06 C 401.38 377.93 395.85 374.22 392.18 369.73 C 393.27 368.36 394.39 367.00 395.52 365.65 C 390.84 361.81 385.33 357.59 384.90 351.01 C 387.38 352.16 389.71 353.58 392.04 355.00 C 392.18 351.30 391.22 347.52 392.38 343.91 C 393.55 339.65 394.01 335.23 394.99 330.93 C 395.66 328.36 398.35 327.22 400.59 326.31 Z" />
<path fill="#ffffff" opacity="1.00" d=" M 401.68 330.79 C 407.38 326.48 414.72 325.40 421.67 325.06 C 422.40 326.50 423.14 327.93 423.89 329.37 C 422.59 330.54 421.10 331.37 419.42 331.87 L 422.03 332.96 C 419.73 332.63 417.40 332.18 415.07 332.52 C 412.14 332.52 410.25 335.06 408.08 336.65 C 405.05 336.54 402.01 336.30 398.99 336.11 C 399.60 334.23 399.91 331.98 401.68 330.79 Z" />
<path fill="#c3c3c3" opacity="1.00" d=" M 432.35 325.07 C 437.93 328.24 443.62 331.29 448.59 335.40 C 457.21 340.83 467.71 342.42 475.99 348.53 C 475.34 350.21 474.95 352.21 473.29 353.23 C 469.54 355.86 466.08 358.87 462.88 362.15 L 463.20 360.98 C 464.31 357.83 464.72 353.77 461.29 351.90 C 458.34 355.16 456.17 359.29 457.23 363.82 C 458.57 363.72 459.91 363.60 461.26 363.46 C 459.07 367.09 455.89 370.03 452.28 372.22 C 448.43 374.49 443.71 373.94 439.69 375.76 C 432.98 379.25 425.36 376.24 418.24 377.65 C 417.45 376.88 416.62 376.16 415.77 375.47 C 416.57 375.49 418.16 375.52 418.96 375.54 C 425.46 374.80 430.72 370.62 435.68 366.70 C 442.49 361.25 450.24 357.13 458.20 353.61 C 454.91 352.52 451.53 351.40 448.77 349.23 C 440.96 343.06 437.23 333.45 432.35 325.07 Z" />
<path fill="#fefefe" opacity="1.00" d=" M 256.61 334.65 C 260.41 331.41 264.27 328.18 268.73 325.84 C 273.25 329.88 278.18 333.37 283.59 336.14 C 270.70 337.00 257.06 333.96 244.81 339.51 C 246.00 338.48 247.13 337.37 248.42 336.47 C 251.09 335.60 253.94 335.52 256.61 334.65 Z" />
<path fill="#fefefe" opacity="1.00" d=" M 422.49 333.15 C 425.08 332.25 427.90 332.00 430.60 332.50 C 433.69 333.75 434.20 337.39 434.78 340.26 C 436.95 343.15 438.85 346.24 441.06 349.11 C 442.98 350.83 445.64 351.42 447.93 352.52 C 443.74 355.40 439.42 358.18 435.83 361.82 C 432.49 365.31 428.16 367.57 424.55 370.74 C 421.06 369.63 417.57 368.54 414.00 367.75 C 415.59 370.39 417.29 372.95 418.96 375.54 C 418.16 375.52 416.57 375.49 415.77 375.47 C 412.80 373.47 410.45 370.69 407.45 368.74 C 404.43 367.36 401.29 366.26 398.25 364.95 C 398.72 363.39 399.19 361.82 399.66 360.26 C 398.63 360.66 396.57 361.47 395.53 361.87 C 395.51 360.82 395.47 358.71 395.45 357.65 C 396.77 358.21 398.10 358.77 399.44 359.31 C 398.90 355.77 397.91 352.27 395.66 349.42 C 393.84 347.07 395.46 344.17 396.07 341.69 C 397.88 341.53 399.68 341.37 401.50 341.21 C 401.79 345.01 402.61 348.91 405.48 351.65 C 410.17 350.48 414.41 348.08 418.27 345.22 C 420.97 341.78 421.57 337.19 422.03 332.96 L 422.49 333.15 Z" />
<path fill="#ffffff" opacity="1.00" d=" M 271.02 338.94 C 274.87 339.29 278.74 339.30 282.61 339.23 C 283.82 341.02 285.07 342.77 286.31 344.54 C 285.60 345.62 284.94 346.72 284.33 347.86 L 285.90 348.52 C 286.25 352.54 285.74 356.56 285.66 360.58 C 281.98 363.63 278.82 367.23 275.53 370.68 C 270.50 370.82 265.47 371.15 260.44 370.95 C 257.75 365.20 251.93 362.31 246.64 359.43 C 244.31 357.22 244.84 353.79 244.66 350.91 C 244.68 347.93 243.69 345.10 243.05 342.23 C 244.57 342.47 246.62 341.81 247.59 343.40 C 249.42 346.08 250.69 349.51 254.08 350.61 C 260.47 352.29 265.98 347.13 269.02 342.06 C 270.06 341.24 272.40 340.99 271.02 338.94 Z" />
<path fill="#030303" opacity="1.00" d=" M 457.23 363.82 C 456.17 359.29 458.34 355.16 461.29 351.90 C 464.72 353.77 464.31 357.83 463.20 360.98 C 462.63 361.86 462.00 362.71 461.26 363.46 C 459.91 363.60 458.57 363.72 457.23 363.82 Z" />
<path fill="#c3c3c3" opacity="1.00" d=" M 503.42 353.80 C 511.25 363.42 509.22 376.53 509.04 388.02 C 509.04 396.51 504.56 404.01 500.20 410.98 C 495.73 417.93 491.93 425.31 489.10 433.08 C 482.75 449.75 480.60 467.55 477.78 485.05 C 476.05 478.48 476.32 471.22 472.88 465.21 C 467.86 459.84 462.23 454.98 456.26 450.68 C 451.04 446.79 444.39 445.71 439.03 442.08 C 434.96 439.36 431.17 436.24 427.62 432.86 C 429.13 433.17 430.66 433.50 432.16 433.90 C 448.04 438.53 466.20 432.36 476.97 420.06 C 477.08 419.91 477.31 419.60 477.43 419.45 C 479.07 417.08 480.96 414.91 482.77 412.67 C 485.32 409.24 487.62 405.57 489.26 401.61 C 495.21 386.09 501.85 370.53 503.42 353.80 Z" />
<path fill="#030303" opacity="1.00" d=" M 231.16 355.96 C 233.80 354.68 236.71 356.80 238.12 358.99 C 239.88 361.30 240.01 364.28 240.03 367.07 C 234.57 366.86 229.74 361.46 231.16 355.96 Z" />
<path fill="#c3c3c3" opacity="1.00" d=" M 199.37 356.63 C 205.49 372.60 209.70 389.77 220.35 403.55 C 224.30 408.16 225.56 414.18 227.16 419.86 C 229.61 427.38 233.80 434.55 240.23 439.33 L 240.03 438.42 C 241.64 440.24 244.07 440.56 246.37 440.65 C 245.48 440.73 243.70 440.90 242.81 440.98 C 250.03 445.62 258.72 446.85 267.14 446.84 C 259.19 454.89 252.24 464.06 247.57 474.42 C 245.05 479.63 243.70 485.28 241.53 490.63 C 240.61 483.57 240.96 476.35 239.40 469.39 C 238.06 466.90 235.67 465.18 233.80 463.12 C 227.93 456.94 222.44 450.36 217.68 443.28 C 213.85 437.73 211.25 431.38 206.84 426.22 C 202.59 420.74 197.18 415.59 195.60 408.60 C 193.42 391.12 199.73 374.07 199.37 356.63 Z" />
<path fill="#fefefe" opacity="1.00" d=" M 276.82 374.84 C 277.27 374.78 278.15 374.66 278.59 374.60 C 278.65 375.16 278.76 376.26 278.81 376.81 C 278.27 376.76 277.17 376.66 276.62 376.61 C 276.67 376.17 276.77 375.28 276.82 374.84 Z" />
<path fill="#030303" opacity="1.00" d=" M 333.37 377.64 C 334.30 377.53 336.15 377.32 337.08 377.21 C 337.71 384.01 341.35 390.21 341.24 397.11 C 340.39 404.14 336.44 411.04 330.01 414.35 C 331.66 407.98 334.97 402.24 337.19 396.09 C 337.16 389.76 334.72 383.76 333.37 377.64 Z" />
<path fill="#fefefe" opacity="1.00" d=" M 276.63 381.38 C 277.17 381.33 278.26 381.24 278.80 381.19 C 278.75 381.73 278.67 382.82 278.63 383.37 C 278.18 383.32 277.27 383.23 276.82 383.18 C 276.77 382.73 276.68 381.83 276.63 381.38 Z" />
<path fill="#030303" opacity="1.00" d=" M 482.08 404.97 C 484.31 401.92 485.22 398.15 487.11 394.89 C 487.88 397.11 488.69 399.32 489.26 401.61 C 487.62 405.57 485.32 409.24 482.77 412.67 C 480.63 413.00 478.50 413.38 476.36 413.70 C 476.27 411.33 476.24 408.95 476.19 406.58 C 478.23 406.61 480.78 406.98 482.08 404.97 Z" />
<path fill="#030303" opacity="1.00" d=" M 227.16 419.86 C 229.68 418.32 232.19 416.76 234.71 415.21 C 234.93 419.92 234.89 424.64 235.27 429.34 C 236.03 427.84 236.76 426.33 237.47 424.81 C 244.58 429.87 252.40 434.35 257.62 441.55 C 260.44 441.87 263.26 442.21 266.07 442.58 C 266.59 443.99 267.11 445.42 267.63 446.85 L 267.14 446.84 C 258.72 446.85 250.03 445.62 242.81 440.98 C 243.70 440.90 245.48 440.73 246.37 440.65 C 248.26 440.54 250.15 440.44 252.05 440.34 C 249.24 435.49 244.07 432.90 238.66 432.20 C 239.09 434.27 239.54 436.35 240.03 438.42 L 240.23 439.33 C 233.80 434.55 229.61 427.38 227.16 419.86 Z" />
<path fill="#030303" opacity="1.00" d=" M 474.38 416.00 C 475.22 416.32 476.07 416.64 476.92 416.97 L 477.43 419.45 C 477.31 419.60 477.08 419.91 476.97 420.06 C 466.20 432.36 448.04 438.53 432.16 433.90 C 437.91 432.14 443.97 432.09 449.92 431.73 C 452.15 429.49 454.26 427.15 456.31 424.75 C 458.63 426.25 460.94 427.75 463.28 429.22 C 461.95 426.97 460.55 424.76 459.12 422.59 C 465.04 423.68 471.48 421.52 474.38 416.00 Z" />
<path fill="#030303" opacity="1.00" d=" M 382.45 424.72 C 385.94 427.40 389.34 430.20 392.80 432.92 C 392.62 436.26 392.64 439.62 392.29 442.95 C 391.70 444.07 391.02 445.14 390.38 446.24 C 387.92 443.43 385.56 440.54 383.06 437.77 C 382.70 433.43 382.70 429.07 382.45 424.72 Z" />
<path fill="#d8d8d8" opacity="1.00" d=" M 186.35 433.14 C 187.97 432.59 188.54 433.13 188.05 434.77 C 186.42 435.31 185.86 434.77 186.35 433.14 Z" />
<path fill="#fefefe" opacity="1.00" d=" M 238.66 432.20 C 244.07 432.90 249.24 435.49 252.05 440.34 C 250.15 440.44 248.26 440.54 246.37 440.65 C 244.07 440.56 241.64 440.24 240.03 438.42 C 239.54 436.35 239.09 434.27 238.66 432.20 Z" />
<path fill="#030303" opacity="1.00" d=" M 333.44 436.57 C 334.96 435.26 336.47 433.93 338.00 432.62 C 341.33 434.85 345.23 433.42 348.73 432.49 C 347.13 436.86 344.23 440.55 341.07 443.90 C 338.59 441.39 335.93 439.06 333.44 436.57 Z" />
<path fill="#030303" opacity="1.00" d=" M 328.61 442.67 C 330.89 441.93 333.33 441.77 335.69 441.37 C 333.36 444.09 330.89 446.69 328.55 449.41 C 331.82 455.34 333.82 461.87 336.99 467.85 C 342.28 475.06 349.99 480.10 355.26 487.35 C 349.43 485.45 343.91 482.74 338.59 479.73 C 334.41 469.29 325.02 460.80 324.73 448.98 C 324.23 446.15 326.68 444.24 328.61 442.67 Z" />
<path fill="#c3c3c3" opacity="1.00" d=" M 390.38 446.24 C 391.02 445.14 391.70 444.07 392.29 442.95 C 393.46 444.53 396.36 445.84 395.34 448.19 C 394.79 450.04 393.22 451.52 391.32 451.90 C 388.97 450.88 388.75 448.00 390.38 446.24 Z" />
<path fill="#d7d7d7" opacity="1.00" d=" M 629.10 446.11 C 630.49 445.64 630.97 446.12 630.54 447.53 C 629.14 447.99 628.66 447.51 629.10 446.11 Z" />
<path fill="#c3c3c3" opacity="1.00" d=" M 392.23 457.55 C 394.75 454.40 397.27 451.24 399.80 448.10 C 404.62 452.38 409.67 456.37 414.62 460.49 C 418.40 463.56 419.28 468.63 421.25 472.85 C 424.41 480.11 426.13 488.23 424.26 496.08 C 418.42 497.11 412.15 498.64 406.39 496.50 C 401.38 492.90 397.68 487.74 394.27 482.67 C 396.67 483.05 399.08 483.41 401.50 483.78 C 402.72 477.12 404.18 470.50 405.75 463.91 C 403.48 464.92 401.19 465.89 398.98 467.03 C 398.33 466.10 397.68 465.18 397.03 464.27 C 398.63 463.72 398.81 462.94 397.56 461.93 C 397.32 462.40 396.85 463.32 396.61 463.79 C 396.23 462.95 395.91 462.10 395.64 461.24 C 394.51 460.00 393.36 458.78 392.23 457.55 Z" />
<path fill="#030303" opacity="1.00" d=" M 310.93 458.17 C 312.60 454.79 315.76 452.59 318.62 450.31 C 316.87 456.82 315.25 463.38 314.42 470.08 C 326.59 470.30 336.00 479.15 343.82 487.51 C 331.32 486.79 318.64 483.97 307.96 477.20 C 308.05 470.79 307.89 464.00 310.93 458.17 Z" />
<path fill="#030303" opacity="1.00" d=" M 445.79 460.77 C 445.86 460.33 446.01 459.45 446.08 459.02 C 447.61 467.31 449.71 475.51 451.05 483.85 C 448.51 484.57 445.99 485.34 443.46 486.09 C 443.38 481.76 444.43 477.43 443.80 473.11 C 443.43 470.53 441.16 469.03 439.20 467.67 C 441.44 465.42 443.56 463.05 445.79 460.77 Z" />
<path fill="#0c0c0c" opacity="1.00" d=" M 396.61 463.79 C 396.85 463.32 397.32 462.40 397.56 461.93 C 398.81 462.94 398.63 463.72 397.03 464.27 L 396.61 463.79 Z" />
<path fill="#030303" opacity="1.00" d=" M 371.81 476.83 C 373.88 472.35 376.68 468.28 379.82 464.50 C 383.94 464.51 388.06 464.50 392.18 464.50 C 394.32 468.96 393.55 475.38 398.67 477.84 C 399.18 474.28 398.01 470.31 398.98 467.03 C 401.19 465.89 403.48 464.92 405.75 463.91 C 404.18 470.50 402.72 477.12 401.50 483.78 C 399.08 483.41 396.67 483.05 394.27 482.67 C 386.62 481.29 379.74 476.97 371.81 476.83 Z" />
<path fill="#030303" opacity="1.00" d=" M 297.83 480.81 C 300.38 480.66 302.93 480.50 305.49 480.43 C 305.39 488.52 306.16 496.83 303.71 504.68 C 302.11 509.27 301.02 514.72 296.34 517.25 C 297.30 518.31 298.48 519.44 298.31 521.05 C 297.56 524.97 295.39 528.46 294.81 532.44 C 291.52 529.55 287.24 531.29 283.58 532.33 C 283.00 550.83 271.17 567.35 273.04 586.11 C 275.18 583.95 277.33 581.80 279.48 579.65 C 279.76 583.81 278.88 588.33 280.84 592.18 C 283.76 582.29 282.08 571.98 282.34 561.88 C 282.36 555.36 285.02 549.31 285.99 542.95 C 286.46 538.69 289.59 535.59 292.51 532.78 C 290.61 542.53 286.68 551.87 286.06 561.86 C 285.69 579.60 286.66 597.34 285.61 615.06 C 282.11 608.12 277.70 600.27 280.48 592.29 C 276.83 590.76 272.14 589.66 270.33 585.76 C 269.46 580.64 268.61 575.43 266.22 570.75 C 271.81 561.64 275.38 551.52 279.74 541.81 C 277.29 538.95 274.87 536.06 272.25 533.36 C 274.63 532.68 277.50 532.19 278.81 529.81 C 281.83 524.57 281.29 518.26 282.84 512.57 C 285.12 513.69 287.39 514.82 289.67 515.96 C 287.51 519.35 286.16 523.16 285.66 527.15 C 290.43 522.43 291.00 515.31 295.05 510.12 C 294.13 510.16 292.28 510.25 291.35 510.29 C 291.32 503.15 295.25 496.94 299.03 491.19 C 298.96 494.90 298.66 498.61 298.74 502.33 C 303.87 495.77 298.49 487.90 297.83 480.81 M 296.17 503.21 C 296.23 503.75 296.35 504.84 296.41 505.39 C 296.85 505.33 297.73 505.22 298.18 505.17 C 298.23 504.72 298.33 503.83 298.38 503.38 C 297.83 503.34 296.72 503.25 296.17 503.21 Z" />
<path fill="#030303" opacity="1.00" d=" M 445.95 489.83 C 448.36 487.65 450.95 485.67 453.43 483.58 C 458.49 490.33 462.19 498.27 468.98 503.55 C 468.31 506.24 467.64 508.93 467.00 511.64 C 462.31 509.30 463.15 503.21 459.52 499.95 C 457.82 501.29 456.13 502.64 454.41 503.94 C 452.71 502.33 450.72 500.59 450.69 498.05 C 450.90 495.40 452.22 493.06 453.36 490.74 C 451.38 492.06 449.37 493.34 447.36 494.62 C 446.85 493.02 446.29 491.46 445.95 489.83 Z" />
<path fill="#fefefe" opacity="1.00" d=" M 296.17 503.21 C 296.72 503.25 297.83 503.34 298.38 503.38 C 298.33 503.83 298.23 504.72 298.18 505.17 C 297.73 505.22 296.85 505.33 296.41 505.39 C 296.35 504.84 296.23 503.75 296.17 503.21 Z" />
<path fill="#030303" opacity="1.00" d=" M 476.15 518.68 C 470.31 519.11 466.89 512.13 469.72 507.36 C 475.07 508.04 476.66 514.12 476.15 518.68 Z" />
<path fill="#c3c3c3" opacity="1.00" d=" M 385.84 521.87 C 387.64 519.66 388.90 516.40 391.96 515.73 C 394.94 515.45 395.22 518.90 396.06 520.93 C 397.87 527.04 400.91 532.74 404.96 537.67 C 401.59 538.80 398.11 539.83 395.10 541.77 C 393.75 542.83 392.48 543.97 391.25 545.16 C 389.83 546.54 388.48 547.99 387.11 549.42 C 385.16 546.23 383.13 543.08 380.99 540.02 C 377.66 539.49 374.35 538.68 370.97 538.65 C 369.31 539.87 369.52 542.60 368.77 544.45 C 365.05 546.26 361.46 548.31 357.86 550.33 C 357.53 550.51 356.86 550.88 356.53 551.06 C 357.03 549.49 357.53 547.92 358.12 546.39 C 359.15 543.84 361.36 542.04 363.38 540.29 C 370.79 534.07 380.27 530.10 385.84 521.87 Z" />
<path fill="#030303" opacity="1.00" d=" M 477.17 524.17 C 478.79 523.64 479.35 524.20 478.83 525.83 C 477.20 526.35 476.64 525.79 477.17 524.17 Z" />
<path fill="#030303" opacity="1.00" d=" M 479.70 529.71 C 481.73 527.70 484.67 528.27 487.20 528.63 C 486.21 532.18 484.81 535.60 483.10 538.87 C 485.08 538.01 487.05 537.16 489.04 536.33 C 490.98 541.77 492.25 547.57 495.50 552.45 C 503.51 563.91 506.05 578.38 505.41 592.13 C 503.33 590.45 501.09 588.72 500.05 586.17 C 498.35 582.78 498.71 578.89 497.90 575.31 C 495.08 571.73 492.10 568.28 489.33 564.67 C 490.57 569.80 492.30 574.82 492.86 580.10 C 491.14 583.59 488.99 586.85 487.07 590.23 C 487.28 590.97 487.46 591.75 487.55 592.54 L 486.53 590.12 C 486.04 591.20 485.07 593.36 484.58 594.44 C 479.94 588.94 472.71 584.44 472.29 576.53 C 474.84 578.02 476.44 581.65 479.44 581.89 C 480.68 578.68 482.26 575.50 482.77 572.07 C 482.54 562.59 476.06 554.70 475.32 545.29 C 477.03 544.98 478.75 544.67 480.45 544.28 C 478.29 542.84 476.03 541.55 473.79 540.24 C 475.65 536.69 476.78 532.59 479.70 529.71 M 486.62 549.22 C 485.48 550.68 488.05 552.21 489.03 550.81 C 490.20 549.32 487.58 547.76 486.62 549.22 M 489.41 555.74 C 489.00 556.50 488.59 557.28 488.18 558.06 C 488.64 559.00 489.10 559.95 489.57 560.90 C 492.78 561.58 494.37 558.17 492.58 555.74 C 491.52 555.73 490.46 555.73 489.41 555.74 Z" />
<path fill="#c3c3c3" opacity="1.00" d=" M 409.66 541.03 C 412.40 536.66 418.77 536.36 422.67 539.28 C 424.45 540.52 423.67 542.86 423.85 544.66 C 420.07 543.34 416.09 542.80 412.21 541.89 C 411.57 541.67 410.30 541.24 409.66 541.03 Z" />
<path fill="#030303" opacity="1.00" d=" M 270.87 539.35 C 271.61 539.47 273.09 539.71 273.83 539.83 C 273.12 540.62 272.55 541.65 271.40 541.83 C 271.27 541.21 271.00 539.97 270.87 539.35 Z" />
<path fill="#030303" opacity="1.00" d=" M 368.77 544.45 C 371.01 543.38 373.31 542.46 375.60 541.50 C 377.11 543.59 378.62 545.69 380.13 547.79 C 377.32 549.15 374.62 550.75 371.71 551.89 C 367.06 551.81 362.46 550.90 357.86 550.33 C 361.46 548.31 365.05 546.26 368.77 544.45 Z" />
<path fill="#030303" opacity="1.00" d=" M 391.25 545.16 C 392.48 543.97 393.75 542.83 395.10 541.77 C 400.79 541.47 406.53 541.19 412.21 541.89 C 416.09 542.80 420.07 543.34 423.85 544.66 C 424.46 545.06 425.66 545.85 426.27 546.25 C 421.75 547.72 417.51 549.85 413.18 551.77 C 405.43 551.45 398.41 547.73 391.25 545.16 Z" />
<path fill="#030303" opacity="1.00" d=" M 355.22 545.66 C 356.18 545.90 357.15 546.14 358.12 546.39 C 357.53 547.92 357.03 549.49 356.53 551.06 L 356.30 551.78 C 354.28 551.46 353.16 550.05 352.72 548.12 C 353.55 547.29 354.38 546.48 355.22 545.66 Z" />
<path fill="#fefefe" opacity="1.00" d=" M 486.62 549.22 C 487.58 547.76 490.20 549.32 489.03 550.81 C 488.05 552.21 485.48 550.68 486.62 549.22 Z" />
<path fill="#030303" opacity="1.00" d=" M 462.63 550.30 C 466.02 551.66 469.36 553.16 472.49 555.07 C 474.30 561.05 479.70 565.24 480.72 571.56 C 476.36 570.88 471.77 570.94 467.70 569.04 C 468.11 568.93 468.93 568.71 469.34 568.60 C 469.08 566.43 469.78 564.04 468.67 562.06 C 466.52 558.21 464.38 554.35 462.63 550.30 Z" />
<path fill="#030303" opacity="1.00" d=" M 314.76 569.70 C 326.60 563.51 338.45 555.99 352.09 554.81 C 374.73 554.62 397.39 554.87 420.03 554.70 C 432.64 553.30 444.61 559.83 457.22 558.22 C 457.42 559.51 457.64 560.80 457.88 562.10 C 446.43 561.62 434.99 560.32 423.89 557.39 C 425.35 559.76 426.83 562.12 428.30 564.49 C 424.85 565.86 421.39 567.25 417.93 568.61 C 417.89 568.21 417.81 567.41 417.76 567.01 C 417.61 564.85 417.42 559.84 414.06 561.90 C 412.68 563.78 412.61 566.18 412.97 568.40 C 413.17 568.80 413.57 569.59 413.77 569.98 C 395.89 572.20 377.87 570.71 359.92 571.00 C 352.85 571.23 347.85 565.03 341.10 564.07 C 337.03 563.68 333.19 565.43 329.41 566.67 C 324.06 568.81 318.40 570.88 314.22 575.02 C 311.87 578.42 307.69 576.28 305.02 574.57 C 306.87 577.35 306.60 582.22 310.21 583.26 C 309.81 583.22 309.00 583.15 308.59 583.11 C 309.20 589.98 306.08 596.37 305.04 603.04 C 302.14 601.01 298.65 601.70 295.72 603.23 C 296.17 594.60 290.96 586.62 292.25 578.00 C 294.77 572.12 298.40 566.25 304.24 563.19 C 304.88 565.82 305.49 568.47 306.16 571.10 C 309.09 571.38 312.12 571.12 314.76 569.70 M 392.67 559.18 C 397.55 564.29 405.51 562.23 411.45 560.40 C 406.70 555.04 398.60 557.49 392.67 559.18 M 348.17 558.26 C 347.54 565.16 357.43 571.53 362.75 566.32 C 358.16 563.24 354.32 557.70 348.17 558.26 M 366.62 562.59 C 370.70 566.83 378.91 567.20 382.58 562.28 C 377.53 560.01 371.51 559.80 366.62 562.59 M 393.19 564.97 C 391.78 565.94 393.31 568.51 394.78 567.37 C 396.23 566.39 394.68 563.77 393.19 564.97 M 299.34 575.18 C 298.20 576.63 300.67 578.31 301.67 576.82 C 302.80 575.36 300.33 573.68 299.34 575.18 Z" />
<path fill="#fefefe" opacity="1.00" d=" M 489.41 555.74 C 490.46 555.73 491.52 555.73 492.58 555.74 C 494.37 558.17 492.78 561.58 489.57 560.90 C 489.10 559.95 488.64 559.00 488.18 558.06 C 488.59 557.28 489.00 556.50 489.41 555.74 Z" />
<path fill="#fefefe" opacity="1.00" d=" M 392.67 559.18 C 398.60 557.49 406.70 555.04 411.45 560.40 C 405.51 562.23 397.55 564.29 392.67 559.18 Z" />
<path fill="#fefefe" opacity="1.00" d=" M 348.17 558.26 C 354.32 557.70 358.16 563.24 362.75 566.32 C 357.43 571.53 347.54 565.16 348.17 558.26 Z" />
<path fill="#c3c3c3" opacity="1.00" d=" M 423.89 557.39 C 434.99 560.32 446.43 561.62 457.88 562.10 C 456.97 564.28 456.14 566.68 454.13 568.12 C 448.57 572.23 441.41 573.11 435.47 576.51 C 428.32 580.87 424.08 588.92 416.25 592.35 C 406.48 596.66 396.60 601.27 386.03 603.16 C 377.60 603.04 369.83 599.13 362.25 595.81 C 357.87 593.62 352.72 592.49 349.41 588.62 C 342.79 581.76 335.27 573.76 325.05 573.51 C 320.88 575.14 317.77 578.58 314.28 581.27 C 314.26 579.18 314.25 577.10 314.22 575.02 C 318.40 570.88 324.06 568.81 329.41 566.67 C 333.19 565.43 337.03 563.68 341.10 564.07 C 347.85 565.03 352.85 571.23 359.92 571.00 C 377.87 570.71 395.89 572.20 413.77 569.98 C 413.57 569.59 413.17 568.80 412.97 568.40 C 413.98 568.86 414.99 569.34 416.06 569.72 C 416.79 568.92 417.36 568.02 417.76 567.01 C 417.81 567.41 417.89 568.21 417.93 568.61 C 421.39 567.25 424.85 565.86 428.30 564.49 C 426.83 562.12 425.35 559.76 423.89 557.39 Z" />
<path fill="#fefefe" opacity="1.00" d=" M 366.62 562.59 C 371.51 559.80 377.53 560.01 382.58 562.28 C 378.91 567.20 370.70 566.83 366.62 562.59 Z" />
<path fill="#fefefe" opacity="1.00" d=" M 414.06 561.90 C 417.42 559.84 417.61 564.85 417.76 567.01 C 417.36 568.02 416.79 568.92 416.06 569.72 C 414.99 569.34 413.98 568.86 412.97 568.40 C 412.61 566.18 412.68 563.78 414.06 561.90 Z" />
<path fill="#fefefe" opacity="1.00" d=" M 393.19 564.97 C 394.68 563.77 396.23 566.39 394.78 567.37 C 393.31 568.51 391.78 565.94 393.19 564.97 Z" />
<path fill="#fefefe" opacity="1.00" d=" M 299.34 575.18 C 300.33 573.68 302.80 575.36 301.67 576.82 C 300.67 578.31 298.20 576.63 299.34 575.18 Z" />
<path fill="#c3c3c3" opacity="1.00" d=" M 468.68 643.67 C 479.65 637.54 488.45 628.18 495.72 618.05 C 495.77 624.33 495.76 630.61 495.73 636.90 C 493.91 635.65 492.09 634.39 490.29 633.13 C 491.15 641.01 489.34 648.90 486.11 656.07 C 484.06 660.92 481.39 665.48 479.51 670.41 C 474.28 684.58 462.64 695.80 449.11 702.14 C 444.03 704.35 439.27 707.37 433.88 708.79 C 423.77 711.56 413.01 710.77 402.95 708.20 C 388.86 704.56 374.49 702.11 360.38 698.53 C 355.89 697.38 351.29 696.27 347.32 693.79 C 338.50 688.45 332.43 679.71 323.66 674.30 C 312.71 667.25 306.38 653.90 307.90 640.96 C 327.50 644.42 343.80 657.42 363.31 661.06 C 366.76 662.25 370.36 662.91 373.95 663.55 C 375.87 666.07 377.89 668.52 379.92 670.95 C 391.58 667.99 403.35 671.96 415.09 671.76 C 421.97 671.75 428.40 669.08 434.80 666.88 C 442.55 663.92 450.37 660.82 457.24 656.09 C 458.68 655.02 460.05 653.86 461.30 652.58 C 462.52 650.55 463.43 648.37 464.60 646.33 C 465.82 645.24 467.28 644.49 468.68 643.67 Z" />
<path fill="#d4d4d4" opacity="1.00" d=" M 283.25 620.29 C 284.86 619.70 285.42 620.24 284.94 621.89 C 283.32 622.46 282.76 621.92 283.25 620.29 Z" />
<path fill="#030303" opacity="1.00" d=" M 450.05 647.04 C 452.87 643.18 455.33 638.45 460.38 637.18 C 459.18 642.74 457.07 648.04 454.65 653.17 C 455.51 654.13 456.37 655.11 457.24 656.09 C 450.37 660.82 442.55 663.92 434.80 666.88 C 428.40 669.08 421.97 671.75 415.09 671.76 C 403.35 671.96 391.58 667.99 379.92 670.95 C 377.89 668.52 375.87 666.07 373.95 663.55 C 370.36 662.91 366.76 662.25 363.31 661.06 C 361.48 660.00 359.65 658.95 357.80 657.96 C 358.90 653.33 357.54 648.72 356.66 644.19 C 360.87 647.96 365.02 651.79 369.32 655.47 C 368.22 652.69 367.00 649.96 366.03 647.14 C 368.36 647.78 370.91 648.54 372.39 650.62 C 374.29 652.71 375.09 655.99 378.07 656.88 C 384.16 659.43 390.23 662.15 396.53 664.14 C 410.07 665.22 425.23 666.72 436.95 658.34 C 438.06 659.44 439.18 660.55 440.31 661.66 C 439.87 659.44 439.43 657.24 438.97 655.04 C 442.63 652.34 446.85 650.32 450.05 647.04 Z" />
<path fill="#030303" opacity="1.00" d=" M 461.21 646.32 C 462.06 646.32 463.75 646.32 464.60 646.33 C 463.43 648.37 462.52 650.55 461.30 652.58 C 460.76 651.62 460.22 650.67 459.68 649.73 C 460.18 648.58 460.69 647.45 461.21 646.32 Z" />
<path fill="#cf0000" opacity="1.00" d=" M 696.74 693.74 C 699.21 693.73 701.68 693.73 704.16 693.73 C 713.07 707.25 721.74 720.92 730.73 734.38 C 730.74 720.83 730.73 707.28 730.74 693.73 C 733.06 693.73 735.40 693.73 737.74 693.73 C 737.73 711.15 737.73 728.57 737.74 746.00 C 735.25 745.99 732.78 745.99 730.31 746.00 C 721.44 732.55 712.89 718.89 703.83 705.58 C 703.61 719.05 703.79 732.52 703.74 746.00 C 701.40 745.99 699.06 745.99 696.73 746.00 C 696.73 728.58 696.73 711.16 696.74 693.74 Z" />
<path fill="#cf0000" opacity="1.00" d=" M 759.52 707.74 C 765.04 706.50 771.29 707.51 775.57 711.40 C 779.55 714.72 781.31 720.00 781.47 725.05 C 781.69 730.41 781.05 736.22 777.64 740.59 C 771.39 748.32 758.19 748.95 751.35 741.69 C 746.12 735.94 745.73 727.37 747.26 720.12 C 748.47 714.02 753.48 709.06 759.52 707.74 M 759.36 713.52 C 755.46 715.36 753.52 719.70 753.17 723.81 C 752.73 728.39 752.92 733.48 755.70 737.37 C 758.75 741.68 765.37 742.95 769.70 739.82 C 772.92 737.70 774.47 733.85 774.81 730.15 C 775.34 725.35 775.03 719.97 771.86 716.07 C 768.90 712.50 763.47 711.36 759.36 713.52 Z" />
<path fill="#ffffff" opacity="1.00" d=" M 759.36 713.52 C 763.47 711.36 768.90 712.50 771.86 716.07 C 775.03 719.97 775.34 725.35 774.81 730.15 C 774.47 733.85 772.92 737.70 769.70 739.82 C 765.37 742.95 758.75 741.68 755.70 737.37 C 752.92 733.48 752.73 728.39 753.17 723.81 C 753.52 719.70 755.46 715.36 759.36 713.52 Z" />
<path fill="#d2d2d2" opacity="1.00" d=" M 400.05 723.49 C 403.39 723.56 398.55 726.47 400.05 723.49 Z" />
</svg>
