<?xml version="1.0" encoding="utf-8"?>
<!-- Generator: Adobe Illustrator 15.0.2, SVG Export Plug-In . SVG Version: 6.00 Build 0)  -->
<!DOCTYPE svg PUBLIC "-//W3C//DTD SVG 1.1//EN" "http://www.w3.org/Graphics/SVG/1.1/DTD/svg11.dtd">
<svg version="1.1" id="Layer_1" xmlns="http://www.w3.org/2000/svg" xmlns:xlink="http://www.w3.org/1999/xlink" x="0px" y="0px"
	 width="325px" height="240px" viewBox="0 0 325 240" enable-background="new 0 0 325 240" xml:space="preserve">
<path fill="#000200" d="M0,0h325v238.99c-14,0.02-28.01,0-42.01,0.01c-5.15,0.02-10.32-0.24-15.45,0.359
	c-0.86-4.989-2-9.92-3.19-14.829c-2.97-3.88-2.64-9.16-5.539-13.07c-2.621,2.521-5.541,4.75-7.851,7.57
	c-2.61,3.34-6.229,5.64-9.351,8.439c-2.08,1.761-3.84,4.12-6.569,4.921c-5.38,1.459-10.851,2.629-16.2,4.209
	c-4.9,1.53-10.061,0.73-15.08,0.791c-3.07-1.811-6.24-3.421-9.52-4.781c-3.801-1.609-6.08-5.26-9.4-7.56
	c-3.76-2.52-6.311-6.35-9.46-9.53c-1.521-1.16-0.8-3.16-0.8-4.76c0.34-0.08,1.029-0.229,1.38-0.31
	c3.521,6.229,9.44,10.44,14.38,15.44c4.439,3.369,9.1,6.799,14.561,8.27c5.379,0.42,10.8,0.199,16.02-1.25
	c6.939-0.63,14.17-2.83,18.92-8.23c2.96-3.399,7.52-5.05,9.84-9.02c2.1-2.98,5.891-4.38,7.51-7.78
	c3.41-6.14,6.09-12.729,8.271-19.41c1.58-8.079,4.54-15.819,7.819-23.34c4.051-5.92,3.771-13.31,4.98-20.09
	c0.12-10.72,0.07-21.45,0.03-32.18c-1.66-7.43-6.021-13.97-8.04-21.3c-2.721-1.92-3.16-5.39-4.9-8.01
	c-1.879-1.87-4.289-3.12-6.34-4.8c-0.35-0.02-1.06-0.08-1.41-0.11c-0.129-0.86,0.551-2.12-0.55-2.56c-3.01-1.16-6.12-2.05-9.06-3.4
	c-6.9-0.44-14.461-0.79-20.221-5.08c-7.02-1.38-14.299-1.33-21.279,0.18c-4.98,1.6-9.391,4.49-14.03,6.81
	c-5.13,2.29-9.75,5.68-13.649,9.7c-0.431,3.38-3.461,5.42-4.75,8.42c-3.451,6.31-5.07,13.33-7.24,20.12
	c-3.08,6.54-5.89,13.2-8.271,20.02c0.47,7.391-0.3,14.76-0.98,22.101c-0.81,10.85,2.66,21.31,4.02,31.96
	c0.27,3.43-0.06,6.87,0.14,10.31c-7.89,3.2-15,8.08-22.88,11.351c-5.38,3.64-11.34,6.689-15.54,11.779
	c-3.83,3.98-7.65,8.19-9.64,13.44c-0.32,1.72-0.49,3.46-0.7,5.2C75.32,239.03,37.66,238.96,0,239.02V0 M288.49,202.52
	c0.06,1.59,0.119,3.19,0.189,4.78l-0.39,0.48l0.351,0.689c-0.351,3.25-0.301,6.521-0.141,9.78c0.98,0.01,2.939,0.04,3.92,0.061
	c-0.02-0.881-0.05-2.65-0.07-3.541c0.16-0.109,0.49-0.35,0.66-0.459c0.641,0.64,1.28,1.289,1.93,1.939l-0.39,1.1
	c1.9,1.291,4.101,1.2,6.16,0.34l0.89,0.141c0.82,1.92,2.291,3.38,4.041,4.47c1.789-2.22,4.239-3.53,7.14-3.319
	c-0.53,1.35-1.08,2.699-1.62,4.05c1.58,0.39,3.17,0.81,4.8,0.989c3.85,0.681,4.72-4.039,6.9-6.209c-0.11-1.75-0.24-3.5-0.37-5.24
	c0.66-1.961,1.17-3.95,1.7-5.94c-0.851-0.04-2.57-0.14-3.421-0.19l-0.52,1.42c-2.69,0.08-3.58-2.43-4.59-4.43
	c-2.5,0.94-5.09,2.271-7.84,1.711c-1.86-0.391-4.061-0.631-5.15,1.299h-1.09c-0.28,0.141-0.84,0.431-1.12,0.57
	c-1.67-0.3-3.36-0.49-5.04-0.67c-0.87,1.11-1.74,2.221-2.6,3.34c-0.211-0.82-0.41-1.63-0.6-2.449c0.079-1.59,0.159-3.19,0.219-4.78
	C291.45,202.47,289.48,202.51,288.49,202.52 M276.68,207.641c-1.76,2.219-1.38,5.34-1.01,7.959c2.07,3.42,7.45,4.181,10.38,1.471
	c2.69-1.87,1.32-5.57,1.56-8.301c-1.83-1.779-4.189-2.699-6.649-3.229C279.52,206.2,277.939,206.641,276.68,207.641z"/>
<path fill="#FBFDFA" d="M206.49,67.78c6.98-1.51,14.26-1.561,21.279-0.18c5.76,4.29,13.32,4.64,20.221,5.08
	c2.939,1.35,6.05,2.24,9.06,3.4c1.101,0.44,0.421,1.7,0.55,2.56c0.351,0.03,1.061,0.09,1.41,0.11c2.051,1.68,4.461,2.93,6.34,4.8
	c1.74,2.62,2.18,6.09,4.9,8.01c2.02,7.33,6.38,13.87,8.04,21.3c0.04,10.73,0.09,21.46-0.03,32.18c-1.21,6.78-0.93,14.17-4.98,20.09
	c-3.279,7.521-6.239,15.261-7.819,23.34c-2.181,6.681-4.86,13.271-8.271,19.41c-1.619,3.4-5.41,4.8-7.51,7.78
	c-2.32,3.97-6.88,5.62-9.84,9.02c-4.75,5.4-11.98,7.601-18.92,8.23c-5.22,1.449-10.641,1.67-16.02,1.25
	c-5.461-1.471-10.121-4.9-14.561-8.27c-4.939-5-10.859-9.211-14.38-15.44c-0.351,0.08-1.04,0.229-1.38,0.31
	c0,1.6-0.721,3.6,0.8,4.76c3.149,3.181,5.7,7.011,9.46,9.53c3.32,2.3,5.6,5.95,9.4,7.56c3.279,1.36,6.449,2.971,9.52,4.781
	c5.02-0.061,10.18,0.739,15.08-0.791c5.35-1.58,10.82-2.75,16.2-4.209c2.729-0.801,4.489-3.16,6.569-4.921
	c3.121-2.8,6.74-5.1,9.351-8.439c2.31-2.82,5.229-5.05,7.851-7.57c2.899,3.91,2.569,9.19,5.539,13.07
	c1.19,4.909,2.33,9.84,3.19,14.829c-5.81,0.631-11.66,0.24-17.5,0.32c-45.47-0.029-90.95,0.07-136.43-0.039
	c0-1.961-0.03-3.9,0.06-5.851c1.99-5.25,5.81-9.46,9.64-13.44c4.2-5.09,10.16-8.14,15.54-11.779c7.88-3.271,14.99-8.15,22.88-11.351
	c-0.2-3.439,0.13-6.88-0.14-10.31c-1.36-10.65-4.83-21.11-4.02-31.96c0.68-7.341,1.45-14.71,0.98-22.101
	c2.38-6.819,5.19-13.479,8.271-20.02c2.17-6.79,3.789-13.81,7.24-20.12c1.289-3,4.319-5.04,4.75-8.42
	c3.899-4.02,8.52-7.41,13.649-9.7C197.1,72.27,201.51,69.38,206.49,67.78 M231.55,100.9c-1.149,0.5-2.19,1.51-3.53,1.39
	c-4.02-0.44-7.959-1.52-12.01-1.82c2.74,2.49,6.57,2.561,10.02,3.12c3.971,0.73,7.291-2.06,11.031-2.81
	c1.979-0.25,3.399-1.72,3.969-3.57C238.16,99.1,234.939,100.34,231.55,100.9 M250.391,101.04c-0.4,0.44-1.211,1.32-1.621,1.76
	c-2.51,0.07-5.02,0.12-7.529,0.18c0.16,0.55,0.47,1.65,0.619,2.21c-1.719-0.4-3.51-1.66-5.27-0.73c-5.63,2.21-11.73,2.15-17.63,2.97
	c-4.181,0.61-7.87-1.88-11.72-3.03c-0.57,0.47-0.83,1.07-0.77,1.79c3.93,1.67,7.979,3.13,12.109,4.23c1.58-0.34,2.73-2.02,4.43-2.1
	c5.16-0.15,10.25-1.32,15.44-0.99c5.3-1.31,10.53-3,15.94-3.91C253.4,102.12,251.83,101.63,250.391,101.04 M248.63,110.65
	l-0.601,0.63c-5.979-1-12.109-0.33-18.129-0.13c-0.41-0.07-1.23-0.23-1.641-0.3c-5.58,3.54-12.4,2.94-18.689,3.72
	c-3.58-0.56-6.59-2.52-9.631-4.33c-0.359,1.32-0.109,2.63,0.5,3.83c1.551,0.38,3.08,0.83,4.631,1.24c6.729,1.5,13.8,0.59,20.39-1.18
	c4.96-2.12,10.44-0.86,15.64-0.95c3.051,0.19,6.211-0.66,9.18,0.3c-3.729,0.4-7.489,0.16-11.209,0.57
	c1.189,1.62,3.22,1.23,4.939,1.32c5.76-0.05,11.62-0.77,17.01-2.88c-1.08-3.86-5.819-0.36-7.619-3.21
	C251.8,109.71,250.21,110.16,248.63,110.65 M227.75,118.72c-0.05,1-0.15,3.011-0.2,4.011c-1.05,0.26-2.1,0.51-3.159,0.729l0.25-1.36
	c-1.261,1.851-2.451,3.75-3.761,5.58c-0.61-0.119-1.84-0.359-2.46-0.479c-3.99,1.819-8.26,3.86-12.76,3.489
	c-4.641,1.69-7.45,6.48-6.79,11.381c1.44,2.52,2.62,5.449,5.18,7.05c2.45,0.54,4.97,0.05,7.431-0.16
	c0.869-0.24,1.75-0.49,2.619-0.74c-1.939,1.771-3.979,3.53-5.25,5.88c1.641-0.709,2.971-1.93,4.28-3.109
	c-0.239,2.52,0.87,3.25,3.33,2.18c-1.351,1.53-2.681,3.09-3.69,4.88c3.08-0.85,4.73-3.899,7.25-5.67
	c-0.619,0.03-1.869,0.09-2.5,0.12c-0.06-0.72-0.189-2.141-0.25-2.859c-1.129,0.449-2.26,0.899-3.379,1.359
	c0.68-0.68,1.34-1.37,2-2.08c1.43,0.98,2.449,0.59,3.06-1.16l0.021,0.24c0.649-1.45,1.529-2.76,2.409-4.07
	c-0.84-1.07-1.47-2.27-1.58-3.649c3.31-2.16,1.4-6.72,2.07-10l0.5-0.271c-0.41-2.38,1.56-4,2.36-6.04
	c1.129-0.21,2.279-0.35,3.43-0.43C229,121.88,228.73,120.23,227.75,118.72 M242.57,121.66c0.09,2.55,0.63,5.04,1.209,7.529
	c0.421,0.28,1.25,0.841,1.671,1.121c-2.12,2.68-1.06,5.899,0.899,8.279c-0.59,0.66-1.18,1.32-1.789,1.96
	c-0.131,3.37-0.141,6.771,0.27,10.13c1.34,2.301,3.061,4.34,5.01,6.15c-0.21-1.561-0.42-3.12-0.64-4.67
	c1.97,0.47,3.95,0.97,5.94,1.37c-0.701-0.931-1.431-1.89-2.531-2.36c2.021-1.24,4.121-2.37,6.031-3.779
	c-0.101,0.449-0.291,1.34-0.391,1.789c1.561-0.979,2.34-2.539,2.48-4.359c4.76-0.641,6.6-7.28,3.439-10.631
	c-2.65-3.039-6.88-3.379-10.561-4.149c-2.359-0.41-3.83-2.399-5.59-3.81c-0.91,0.09-2.74,0.27-3.649,0.359
	c0.13-1.859,0.239-3.72,0.351-5.58C244.18,121.17,243.109,121.5,242.57,121.66 M188.2,121.66c-0.72,2.79,0.149,5.56,0.68,8.3
	c2.71,2.16,5.851,3.149,9.31,2.71c-2.1-1.189-4.939-1.92-5.58-4.58c-0.5-1.83,1.32-3.04,2.15-4.449
	c-0.49,0.029-1.46,0.1-1.939,0.129c-1.01,1.141-2,2.301-2.98,3.461C189.77,125.25,189.221,123.359,188.2,121.66 M269.57,136.98
	c3.6-0.061,3.289-3.771,3.07-6.4C270.62,132.109,270.41,134.77,269.57,136.98 M195.311,160.311c1.619,4.35,2.979,8.84,3.109,13.52
	c0.99-5.27,6.46-6.93,9.88-10.28c0.63-0.239,1.25-0.5,1.87-0.77c-4.27-0.561-7.92-2.94-11.74-4.74c0.271-0.36,0.801-1.101,1.07-1.47
	c-1.13-0.99-2.25-1.99-3.4-2.94c-2.24-2.819-3.18-6.28-3.81-9.76C189.42,149.311,191.51,155.88,195.311,160.311 M263.59,151.7
	c-1.199,2.62-3.109,4.84-4.779,7.17c-0.19-0.14-0.551-0.431-0.74-0.57c-1.141,1.78-2.41,3.57-4.311,4.61
	c-1.33,1-3.529,1.16-3.789,3.14c3.289,2.73,5.27,6.65,5.859,10.86c0.47-2.15,0.561-4.46,1.561-6.44
	c3.529-4.329,6.879-8.819,9.84-13.55c0.479-4.07-0.51-8.17-0.871-12.23C265.07,146.87,264.51,149.359,263.59,151.7 M232.82,148.79
	c-0.99,2.76-1.65,5.72-0.08,8.42c0.56,0.12,1.68,0.351,2.24,0.47c-0.791-1.55-1.59-3.08-2.381-4.619
	C233.27,151.7,234.41,149.98,232.82,148.79 M212.279,154.189C212.41,157.55,215.27,152.6,212.279,154.189 M219.21,165.16
	c-4.12,2.01-7.56,5.779-7.83,10.529c0.29,2.041,2.96,1.65,4.42,2.28c0.71-1.05,1.41-2.1,2.101-3.159
	c2.369-0.851,4.75-1.711,7.08-2.681c-1.33-0.989-2.69-1.95-4.061-2.88l-0.811,1.03c-0.51-0.9-1.02-1.811-1.529-2.71
	c0.949-1.01,1.859-2.08,2.37-3.4c1.271-1.02,0.43-2.84,0.479-4.189C220.26,161.51,219.3,163.18,219.21,165.16 M230.34,162.54
	c0.1,0.45,0.311,1.34,0.41,1.79c1.221,0.01,2.439,0.029,3.67,0.061c0.45,2.199-0.48,4.199-1.24,6.199
	c-1.72,1.551-3.279,3.25-4.939,4.87c1.609-0.899,3.38-0.601,5.119-0.34c2.431-0.64,6.82-0.56,6.561-4.12
	c0.18-1.88-0.949-3.52-2.641-4.23c0.341,1.391,0.73,2.771,1.121,4.15c-2.141,0.7-4.15,1.721-6.16,2.71
	c0.97-1.44,1.98-2.85,3.039-4.22c0.101-1.4,0.801-2.84,0.341-4.221c-0.979-0.959-2.12-1.739-3.17-2.619
	C231.92,162.561,230.859,162.55,230.34,162.54 M206.49,168.689c-0.6,4.78-4.09,8.121-6.74,11.82c-1.13,2.94-3.141,5.36-4.859,7.95
	l1.869,0.59c-0.43,2.05-1.6,4.511,0.551,6.07c2.129-3.65,2.31-7.82,1.819-11.9c2.31-2.909,6.71-4.18,7.601-8.09
	C207.05,173.05,208.77,170.22,206.49,168.689 M240.359,176.04c0.19,5.22,3.15,9.81,4.351,14.819c0.64-0.489,1.94-1.479,2.58-1.969
	c-0.63,0.77-1.3,1.529-1.979,2.26c-0.141,4.81-0.33,9.64,0.069,14.449c1.41-1.52,1.61-3.63,2.011-5.56
	c0.43-0.24,1.31-0.7,1.75-0.931c0.359-1.409,0.75-2.81,1.159-4.199c-1-1.86-1.92-3.76-2.72-5.71c0.24-0.4,0.71-1.19,0.949-1.591
	c-0.67-3.329-3.069-5.909-4.629-8.799c-0.301-0.44-0.91-1.311-1.221-1.75c-0.25-1.41-0.49-2.82-0.789-4.221
	C241.24,173.811,240.05,174.7,240.359,176.04 M216.891,188.13c-2.051-0.26-4.101,0.06-5.98,0.88c1.449,0.11,2.48,0.73,3.09,1.86
	c-3.34,1.069-7.939,0.149-11.141,2.47c0.44-0.01,1.33-0.029,1.771-0.05c1.63,2.54,4.74,3.29,6.899,5.26
	c3.791,2.96,9.211,5.44,13.881,2.94c4.57-1.221,7.04-6.15,12.09-6.24c0.76,0.439,1.52,0.9,2.27,1.37c-0.399,2.3,0.4,4.47,1.36,6.521
	c0.74-0.15,1.49-0.291,2.25-0.421c0.31-2.29,0.56-4.6,0.41-6.909c-1-0.91-1.979-1.83-2.99-2.721c-0.069,0.46-0.2,1.4-0.271,1.87
	c-0.59-0.04-1.76-0.101-2.35-0.14c-3.479-2.351-7.619-4.15-11.9-3.37c0.191-0.851,0.4-1.71,0.611-2.56
	c-1.031-0.221-2.051-0.44-3.07-0.66c0.26-0.48,0.789-1.44,1.06-1.92c-1.101-0.57-2.18-1.15-3.26-1.74c-0.49-0.84-1-1.68-1.53-2.5
	C217.9,183.17,217.67,186.05,216.891,188.13 M228.09,189.38C228.49,189.8,228.49,189.8,228.09,189.38 M200.82,190.6
	c-1.051,1.771-4.26,3.801-0.85,5.11c0.52-1.95,1.579-3.649,2.67-5.31C202.029,190.46,201.42,190.53,200.82,190.6 M193.62,191.45
	c-1.28,2.5-1.57,5.33-2.101,8.05c0.431-0.03,1.291-0.09,1.721-0.109c0.189-2.921,2.279-5.23,2.57-8.15
	C195.26,191.29,194.17,191.4,193.62,191.45 M195.65,194.05c-1.11,2.44,0.16,4.63,1.289,6.71c1.131-1.189,2.261-2.369,3.4-3.54
	c-0.52,0.07-1.57,0.23-2.09,0.3C197.5,196.28,196.7,195.061,195.65,194.05 M194.8,210.32c2.229,5.789,4.39,12.479,10.25,15.6
	c6.4,4.03,14.07,1.141,20.851-0.14c4.779-0.74,8.01-4.561,11.539-7.48c1.98-1.5,2.181-4.11,2.61-6.35
	c-4.409,0.68-8.18,3.31-12.579,4.05c0.319-1.2,0.659-2.38,1.02-3.561c-1.15,0.721-2.44,1.131-3.78,1.32
	c-2.54,3-6.92,3.69-10.67,3.521c-4.601,0.25-7.94-3.561-10.47-6.89l-0.211,0.75c-0.619,0.34-1.84,1.029-2.459,1.369
	c-1.58-1.229-3.15-2.479-4.721-3.72c-0.22-0.71-0.65-2.14-0.859-2.851C194.68,207.311,194.029,208.84,194.8,210.32z"/>
<path fill="#565855" d="M231.55,100.9c3.39-0.56,6.61-1.8,9.479-3.69c-0.569,1.85-1.989,3.32-3.969,3.57
	c-3.74,0.75-7.061,3.54-11.031,2.81c-3.449-0.56-7.279-0.63-10.02-3.12c4.051,0.3,7.99,1.38,12.01,1.82
	C229.359,102.41,230.4,101.4,231.55,100.9z"/>
<path fill="#727471" d="M250.391,101.04c1.439,0.59,3.01,1.08,4,2.38c-5.41,0.91-10.641,2.6-15.94,3.91
	c-5.19-0.33-10.28,0.84-15.44,0.99c-1.699,0.08-2.85,1.76-4.43,2.1c-4.13-1.1-8.18-2.56-12.109-4.23
	c-0.061-0.72,0.199-1.32,0.77-1.79c3.85,1.15,7.539,3.64,11.72,3.03c5.899-0.82,12-0.76,17.63-2.97c1.76-0.93,3.551,0.33,5.27,0.73
	c-0.149-0.56-0.459-1.66-0.619-2.21c2.51-0.06,5.02-0.11,7.529-0.18C249.18,102.36,249.99,101.48,250.391,101.04z"/>
<path fill="#828481" d="M248.63,110.65c1.58-0.49,3.17-0.94,4.771-1.37c1.8,2.85,6.539-0.65,7.619,3.21
	c-5.39,2.11-11.25,2.83-17.01,2.88c-1.72-0.09-3.75,0.3-4.939-1.32c3.72-0.41,7.479-0.17,11.209-0.57
	c-2.969-0.96-6.129-0.11-9.18-0.3c-5.199,0.09-10.68-1.17-15.64,0.95c-6.59,1.77-13.66,2.68-20.39,1.18c1.5-0.21,3-0.49,4.5-0.74
	c6.289-0.78,13.109-0.18,18.689-3.72c0.11,1.48,0.65,1.59,1.641,0.3c6.02-0.2,12.149-0.87,18.129,0.13
	c0.511,0.1,1.531,0.31,2.041,0.41C249.71,111.43,248.99,110.91,248.63,110.65z"/>
<path fill="#363735" d="M199.939,110.24c3.041,1.81,6.051,3.77,9.631,4.33c-1.5,0.25-3,0.53-4.5,0.74
	c-1.551-0.41-3.08-0.86-4.631-1.24C199.83,112.87,199.58,111.56,199.939,110.24z"/>
<path fill="#414240" d="M228.26,110.85c0.41,0.07,1.23,0.23,1.641,0.3C228.91,112.44,228.37,112.33,228.26,110.85z"/>
<path fill="#313330" d="M248.029,111.28l0.601-0.63c0.36,0.26,1.08,0.78,1.44,1.04C249.561,111.59,248.54,111.38,248.029,111.28z"/>
<path fill="#030601" d="M227.75,118.72c0.98,1.51,1.25,3.16,0.41,4.82c-1.15,0.08-2.301,0.22-3.43,0.43
	c-0.801,2.04-2.771,3.66-2.36,6.04l-0.5,0.271c-4,2.36-8.57,3.26-13.101,3.93c-4.6,0.601-6.17,5.75-9.899,7.86
	c-0.66-4.9,2.149-9.69,6.79-11.381c4.5,0.371,8.77-1.67,12.76-3.489c0.62,0.12,1.85,0.36,2.46,0.479c1.31-1.83,2.5-3.729,3.761-5.58
	l-0.25,1.36c1.06-0.22,2.109-0.47,3.159-0.729C227.6,121.73,227.7,119.72,227.75,118.72z"/>
<path fill="#030601" d="M242.57,121.66c0.539-0.16,1.609-0.49,2.15-0.65c-0.111,1.86-0.221,3.721-0.351,5.58
	c0.909-0.09,2.739-0.27,3.649-0.359c1.76,1.41,3.23,3.399,5.59,3.81c3.681,0.771,7.91,1.11,10.561,4.149
	c3.16,3.351,1.32,9.99-3.439,10.631c-0.141,1.82-0.92,3.38-2.48,4.359c0.1-0.449,0.29-1.34,0.391-1.789
	c0.34-0.521,1.01-1.561,1.34-2.08c-0.92,0.049-2.78,0.149-3.711,0.199c2.25-1.15,4.541-2.189,6.84-3.229
	c-1.189-2.57-1.699-6.49-5.06-7.08c-4.46-0.89-8.95-2.021-12.6-4.89c-0.421-0.28-1.25-0.841-1.671-1.121
	C243.2,126.7,242.66,124.21,242.57,121.66z"/>
<path fill="#222421" d="M188.2,121.66c1.021,1.699,1.569,3.59,1.64,5.57c0.98-1.16,1.971-2.32,2.98-3.461
	c0.479-0.029,1.449-0.1,1.939-0.129c-0.83,1.409-2.65,2.619-2.15,4.449c0.641,2.66,3.48,3.391,5.58,4.58
	c-3.459,0.439-6.6-0.55-9.31-2.71C188.35,127.22,187.48,124.45,188.2,121.66z"/>
<path fill="#C7C9C6" d="M208.77,134.21c4.53-0.67,9.101-1.569,13.101-3.93c-0.67,3.28,1.239,7.84-2.07,10l-0.239-1.16
	c-1.19-2.61-4.41-2.56-6.791-3.15l-0.299-0.069c-1.761-0.83-2.861,0.979-3.49,2.33c-1.51,2.989-4.271,4.779-7.25,6.069
	c0.34,2.7,2.16,1.15,3.539,0.08c2.23,1.29,4.351,2.78,6.211,4.58c-2.461,0.21-4.98,0.7-7.431,0.16c-2.56-1.601-3.739-4.53-5.18-7.05
	C202.6,139.96,204.17,134.811,208.77,134.21z"/>
<path fill="#CBCECA" d="M245.45,130.311c3.649,2.869,8.14,4,12.6,4.89c3.36,0.59,3.87,4.51,5.06,7.08
	c-2.299,1.04-4.59,2.079-6.84,3.229c0.931-0.05,2.791-0.15,3.711-0.199c-0.33,0.52-1,1.56-1.34,2.08
	c-1.91,1.409-4.011,2.539-6.031,3.779c-1.049-0.58-2.119-1.12-3.17-1.67c1.44-0.72,2.92-1.4,4.381-2.09
	c-2.141-0.03-4.28,0.04-6.42,0.02c-1.36-1.39-2.121-3.17-2.51-5.06c1.119-0.011,2.25-0.03,3.379-0.03c0.03,1.02-0.319,2.12,0.08,3.1
	c1.961,0.761,4.09,0.98,6.141,1.461c-0.09-1.2-0.25-3.59-0.34-4.78c0.42,0.76,1.26,2.29,1.67,3.05c0.609-1.4,1.27-2.779,1.709-4.24
	c-1.85-2.01-4.439-3.24-6.469-5.09c-0.711-0.14-1.42-0.279-2.121-0.42c-0.85,1.07-1.709,2.13-2.59,3.17
	C244.391,136.21,243.33,132.99,245.45,130.311z"/>
<path fill="#030601" d="M269.57,136.98c0.84-2.211,1.05-4.871,3.07-6.4C272.859,133.21,273.17,136.92,269.57,136.98z"/>
<path fill="#000200" d="M208.98,138.23c0.629-1.351,1.729-3.16,3.49-2.33c-0.291,0.649-0.881,1.939-1.171,2.59
	c-0.489,0.08-1.47,0.229-1.96,0.3L208.98,138.23z"/>
<path fill="#0A0C08" d="M248.939,135.42c0.701,0.141,1.41,0.28,2.121,0.42c2.029,1.85,4.619,3.08,6.469,5.09
	c-0.439,1.461-1.1,2.84-1.709,4.24c-0.41-0.76-1.25-2.29-1.67-3.05c0.09,1.19,0.25,3.58,0.34,4.78c-2.051-0.48-4.18-0.7-6.141-1.461
	c-0.399-0.979-0.05-2.08-0.08-3.1c-1.129,0-2.26,0.02-3.379,0.03c0.389,1.89,1.149,3.67,2.51,5.06c-0.84,1.09-1.711,2.17-2.57,3.25
	c-0.41-3.359-0.4-6.76-0.27-10.13c0.609-0.64,1.199-1.3,1.789-1.96C247.23,137.55,248.09,136.49,248.939,135.42 M245.9,141.5
	c2.8,0.04,5.6,0.04,8.41-0.03c-1.221-1.71-2.791-3.11-4.551-4.25C247.87,137.96,246.33,139.47,245.9,141.5z"/>
<path fill="#FEFFFC" d="M212.471,135.9l0.299,0.069c-0.09,0.66-0.279,1.99-0.379,2.66c1.619,0.011,3.239,0.04,4.85,0.09
	c0.22,1.41,0.41,2.83,0.57,4.261c-0.41,0.629-0.86,1.239-1.33,1.819c0.039-1.08,0.109-3.25,0.149-4.33
	c-2.271,0.101-4.53,0.16-6.8,0.21c-0.12-0.47-0.37-1.42-0.49-1.89c0.49-0.07,1.471-0.22,1.96-0.3
	C211.59,137.84,212.18,136.55,212.471,135.9z"/>
<path fill="#0A0C08" d="M212.77,135.97c2.381,0.591,5.601,0.54,6.791,3.15c-0.48,1.33-1.11,2.6-1.75,3.86
	c-0.16-1.431-0.351-2.851-0.57-4.261c-1.61-0.05-3.23-0.079-4.85-0.09C212.49,137.96,212.68,136.63,212.77,135.97z"/>
<path fill="#FBFDFA" d="M245.9,141.5c0.43-2.03,1.97-3.54,3.859-4.28c1.76,1.14,3.33,2.54,4.551,4.25
	C251.5,141.54,248.7,141.54,245.9,141.5z"/>
<path fill="#50524F" d="M201.73,144.3c2.979-1.29,5.74-3.08,7.25-6.069l0.359,0.56c0.12,0.47,0.37,1.42,0.49,1.89
	c0.1,1.48,0.189,2.961,0.27,4.44c2.101,0.29,4.211,0.58,6.32,0.87c0.01-0.301,0.04-0.891,0.061-1.19c0.47-0.58,0.92-1.19,1.33-1.819
	c0.64-1.261,1.27-2.53,1.75-3.86l0.239,1.16c0.11,1.38,0.74,2.579,1.58,3.649c-0.88,1.311-1.76,2.62-2.409,4.07l-0.021-0.24
	c-0.05-0.359-0.14-1.09-0.181-1.46c-1.399,0.261-2.35,1.36-2.879,2.62c-0.66,0.71-1.32,1.4-2,2.08c1.119-0.46,2.25-0.91,3.379-1.359
	c0.061,0.719,0.19,2.14,0.25,2.859c0.631-0.03,1.881-0.09,2.5-0.12c-2.52,1.771-4.17,4.82-7.25,5.67c1.01-1.79,2.34-3.35,3.69-4.88
	c-2.46,1.07-3.569,0.34-3.33-2.18c-1.31,1.18-2.64,2.4-4.28,3.109c1.271-2.35,3.311-4.109,5.25-5.88
	c-0.869,0.25-1.75,0.5-2.619,0.74c-1.86-1.8-3.98-3.29-6.211-4.58C203.891,145.45,202.07,147,201.73,144.3 M208.52,141.98
	c-1.93,0.01-1.41,3.68,0.41,2.539C209.38,143.52,209.25,142.68,208.52,141.98z"/>
<path fill="#030601" d="M209.83,140.68c2.27-0.05,4.529-0.109,6.8-0.21c-0.04,1.08-0.11,3.25-0.149,4.33
	c-0.021,0.3-0.051,0.89-0.061,1.19c-2.109-0.29-4.22-0.58-6.32-0.87C210.02,143.641,209.93,142.16,209.83,140.68z"/>
<path fill="#FEFFFC" d="M208.52,141.98c0.73,0.699,0.86,1.539,0.41,2.539C207.109,145.66,206.59,141.99,208.52,141.98z"/>
<path fill="#C7C9C6" d="M195.311,160.311c-3.801-4.431-5.891-11-3.021-16.44c0.63,3.479,1.569,6.94,3.81,9.76
	c0.291,1.82,1.121,3.46,2.26,4.9c2.391,3.149,6.25,4.26,9.94,5.02c-3.42,3.351-8.89,5.011-9.88,10.28
	C198.29,169.15,196.93,164.66,195.311,160.311z"/>
<path fill="#C7C9C6" d="M263.59,151.7c0.92-2.341,1.48-4.83,2.77-7.011c0.361,4.061,1.351,8.16,0.871,12.23
	c-2.961,4.73-6.311,9.221-9.84,13.55c-1,1.98-1.091,4.29-1.561,6.44c-0.59-4.21-2.57-8.13-5.859-10.86
	c2.52-0.62,4.939-1.569,7.26-2.72c0.859-1.221,1.74-2.43,2.64-3.63c-0.271-0.21-0.8-0.62-1.06-0.83
	C260.48,156.54,262.391,154.32,263.59,151.7z"/>
<path fill="#252624" d="M215.891,148.92c0.529-1.26,1.479-2.359,2.879-2.62c0.041,0.37,0.131,1.101,0.181,1.46
	C218.34,149.51,217.32,149.9,215.891,148.92z"/>
<path fill="#565855" d="M247.4,147.43c2.14,0.021,4.279-0.05,6.42-0.02c-1.461,0.689-2.94,1.37-4.381,2.09
	c1.051,0.55,2.121,1.09,3.17,1.67c1.101,0.471,1.83,1.43,2.531,2.36c-1.99-0.4-3.971-0.9-5.94-1.37c0.22,1.55,0.43,3.109,0.64,4.67
	c-1.949-1.811-3.67-3.85-5.01-6.15C245.689,149.6,246.561,148.52,247.4,147.43 M247.04,151.33
	C245.54,154.33,250.38,151.45,247.04,151.33z"/>
<path fill="#292A28" d="M232.82,148.79c1.59,1.19,0.449,2.91-0.221,4.271c0.791,1.539,1.59,3.069,2.381,4.619
	c-0.561-0.119-1.681-0.35-2.24-0.47C231.17,154.51,231.83,151.55,232.82,148.79z"/>
<path fill="#050704" d="M247.04,151.33C250.38,151.45,245.54,154.33,247.04,151.33z"/>
<path fill="#292A28" d="M198.359,158.53c-1.139-1.44-1.969-3.08-2.26-4.9c1.15,0.95,2.271,1.95,3.4,2.94
	c-0.27,0.369-0.8,1.109-1.07,1.47c3.82,1.8,7.471,4.18,11.74,4.74c-0.62,0.27-1.24,0.53-1.87,0.77
	C204.609,162.79,200.75,161.68,198.359,158.53z"/>
<path fill="#656764" d="M212.279,154.189C215.27,152.6,212.41,157.55,212.279,154.189z"/>
<path fill="#363735" d="M258.07,158.3c0.189,0.14,0.55,0.431,0.74,0.57c0.26,0.21,0.789,0.62,1.06,0.83
	c-0.899,1.2-1.78,2.409-2.64,3.63c-2.32,1.15-4.74,2.1-7.26,2.72c0.26-1.979,2.459-2.14,3.789-3.14
	C255.66,161.87,256.93,160.08,258.07,158.3z"/>
<path fill="#030601" d="M219.21,165.16c0.09-1.98,1.05-3.65,2.22-5.18c-0.05,1.35,0.791,3.17-0.479,4.189
	C220.51,164.41,219.641,164.91,219.21,165.16z"/>
<path fill="#121411" d="M230.34,162.54c0.52,0.01,1.58,0.021,2.11,0.03c1.05,0.88,2.19,1.66,3.17,2.619
	c0.46,1.381-0.24,2.82-0.341,4.221c-1.059,1.37-2.069,2.779-3.039,4.22c2.01-0.989,4.02-2.01,6.16-2.71
	c-0.391-1.38-0.78-2.76-1.121-4.15c1.691,0.711,2.82,2.351,2.641,4.23c0.26,3.561-4.13,3.48-6.561,4.12
	c-1.739-0.261-3.51-0.56-5.119,0.34c1.66-1.62,3.22-3.319,4.939-4.87c0.76-2,1.69-4,1.24-6.199c-1.23-0.031-2.449-0.051-3.67-0.061
	C230.65,163.88,230.439,162.99,230.34,162.54z"/>
<path fill="#C9CBC8" d="M211.38,175.689c0.271-4.75,3.71-8.52,7.83-10.529c0.431-0.25,1.3-0.75,1.74-0.99
	c-0.511,1.32-1.421,2.391-2.37,3.4c0.51,0.899,1.02,1.81,1.529,2.71c-0.629,0.819-1.26,1.64-1.879,2.47
	c-0.701-1.141-1.41-2.26-2.11-3.391c0.479,1.851,1.12,3.66,1.78,5.451c-0.69,1.06-1.391,2.109-2.101,3.159
	C214.34,177.34,211.67,177.73,211.38,175.689z"/>
<path fill="#50524F" d="M206.49,168.689c2.279,1.53,0.56,4.36,0.24,6.44c-0.891,3.91-5.291,5.181-7.601,8.09
	c0.49,4.08,0.31,8.25-1.819,11.9c-2.15-1.56-0.98-4.021-0.551-6.07l-1.869-0.59c1.719-2.59,3.729-5.01,4.859-7.95
	C202.4,176.811,205.891,173.47,206.49,168.689z"/>
<path fill="#0F110E" d="M216.12,169.359c0.7,1.131,1.409,2.25,2.11,3.391c0.619-0.83,1.25-1.65,1.879-2.47l0.811-1.03
	c1.37,0.93,2.73,1.891,4.061,2.88c-2.33,0.97-4.711,1.83-7.08,2.681C217.24,173.02,216.6,171.21,216.12,169.359z"/>
<path fill="#4D4E4C" d="M240.359,176.04c-0.31-1.34,0.881-2.229,1.531-3.2c0.299,1.4,0.539,2.811,0.789,4.221
	c0.311,0.439,0.92,1.31,1.221,1.75c1.56,2.89,3.959,5.47,4.629,8.799c-0.239,0.4-0.709,1.19-0.949,1.591
	c0.8,1.95,1.72,3.85,2.72,5.71c-0.409,1.39-0.8,2.79-1.159,4.199c-0.44,0.23-1.32,0.69-1.75,0.931c-0.4,1.93-0.601,4.04-2.011,5.56
	c-0.399-4.81-0.21-9.64-0.069-14.449c0.68-0.73,1.35-1.49,1.979-2.26c-0.64,0.489-1.94,1.479-2.58,1.969
	C243.51,185.85,240.55,181.26,240.359,176.04 M244.96,186.189C243.33,189.141,248.29,186.45,244.96,186.189 M246.42,197.82
	c0.57-0.101,1.71-0.301,2.27-0.4c-0.58-1.99-1.17-3.97-1.939-5.89C246.46,193.609,246.439,195.71,246.42,197.82z"/>
<path fill="#CBCECA" d="M216.891,188.13c0.779-2.08,1.01-4.96,3.199-6.06c0.53,0.82,1.04,1.66,1.53,2.5
	c1.08,0.59,2.159,1.17,3.26,1.74c-0.271,0.479-0.8,1.439-1.06,1.92c-0.2,0.369-0.61,1.109-0.811,1.479
	c-1.199-0.25-2.4-0.45-3.609-0.62C218.77,188.85,217.51,188.37,216.891,188.13z"/>
<path fill="#C5C7C4" d="M244.96,186.189C248.29,186.45,243.33,189.141,244.96,186.189z"/>
<path fill="#292A28" d="M210.91,189.01c1.88-0.82,3.93-1.14,5.98-0.88c0.619,0.24,1.879,0.72,2.51,0.96
	c-0.811,0.66-2.871,0.391-3.08,1.66c2.9,1.189,6.199,0.38,9.24,0.35c-0.641-0.35-1.91-1.039-2.551-1.39
	c0.2-0.37,0.61-1.11,0.811-1.479c1.02,0.22,2.039,0.439,3.07,0.66c-0.211,0.85-0.42,1.709-0.611,2.56
	c4.281-0.78,8.421,1.02,11.9,3.37c-0.41-0.021-1.229-0.07-1.64-0.09c-1.79-0.381-3.58-0.761-5.37-1.08
	c-2.6,2.16-6.08,1.56-9.189,1.64c-3.48,0.021-6.94-0.25-10.371-0.8c-0.27-0.53-0.81-1.6-1.08-2.141
	c-1.959,0.381-3.93,0.711-5.899,0.94c-0.44,0.021-1.33,0.04-1.771,0.05c3.201-2.32,7.801-1.4,11.141-2.47
	C213.391,189.74,212.359,189.12,210.91,189.01 M227.74,193.28c-0.01,1.819,3.02,0.34,1.99-0.921
	C229.24,192.59,228.24,193.05,227.74,193.28 M222.45,193.1c0.229,1.301,0.97,1.521,2.21,0.631
	C224.43,192.42,223.689,192.21,222.45,193.1z"/>
<path fill="#FBFDFA" d="M216.32,190.75c0.209-1.27,2.27-1,3.08-1.66c1.209,0.17,2.41,0.37,3.609,0.62
	c0.641,0.351,1.91,1.04,2.551,1.39C222.52,191.13,219.221,191.939,216.32,190.75z"/>
<path fill="#6B6C6A" d="M228.09,189.38C228.49,189.8,228.49,189.8,228.09,189.38z"/>
<path fill="#000200" d="M200.82,190.6c0.6-0.069,1.209-0.14,1.82-0.199c-1.091,1.66-2.15,3.359-2.67,5.31
	C196.561,194.4,199.77,192.37,200.82,190.6z"/>
<path fill="#0F110E" d="M193.62,191.45c0.55-0.05,1.64-0.16,2.19-0.21c-0.291,2.92-2.381,5.229-2.57,8.15
	c-0.43,0.02-1.29,0.079-1.721,0.109C192.05,196.78,192.34,193.95,193.62,191.45z"/>
<path fill="#FBFDFA" d="M227.74,193.28c0.5-0.23,1.5-0.69,1.99-0.921C230.76,193.62,227.73,195.1,227.74,193.28z"/>
<path fill="#FBFDFA" d="M246.42,197.82c0.02-2.11,0.04-4.211,0.33-6.29c0.77,1.92,1.359,3.899,1.939,5.89
	C248.13,197.52,246.99,197.72,246.42,197.82z"/>
<path fill="#C7C9C6" d="M204.63,193.29c1.97-0.229,3.94-0.56,5.899-0.94c0.271,0.541,0.811,1.61,1.08,2.141
	c3.431,0.55,6.891,0.82,10.371,0.8c3.109-0.08,6.59,0.521,9.189-1.64c1.79,0.319,3.58,0.699,5.37,1.08l0.96,0.52
	c-5.05,0.09-7.52,5.02-12.09,6.24c-4.67,2.5-10.09,0.02-13.881-2.94C209.37,196.58,206.26,195.83,204.63,193.29z"/>
<path fill="#939592" d="M222.45,193.1c1.239-0.89,1.979-0.68,2.21,0.631C223.42,194.62,222.68,194.4,222.45,193.1z"/>
<path fill="#222421" d="M240.8,193.09c1.011,0.891,1.99,1.811,2.99,2.721c-0.399,2.59-0.96,5.229-2.66,7.33
	c-0.96-2.051-1.76-4.221-1.36-6.521c-0.75-0.47-1.51-0.931-2.27-1.37l-0.96-0.52c0.41,0.02,1.229,0.069,1.64,0.09
	c0.59,0.039,1.76,0.1,2.35,0.14C240.6,194.49,240.73,193.55,240.8,193.09z"/>
<path fill="#000200" d="M195.65,194.05c1.05,1.011,1.85,2.23,2.6,3.47c0.52-0.069,1.57-0.229,2.09-0.3
	c-1.14,1.171-2.27,2.351-3.4,3.54C195.811,198.68,194.54,196.49,195.65,194.05z"/>
<path fill="#858784" d="M243.79,195.811c0.149,2.31-0.101,4.619-0.41,6.909c-0.76,0.13-1.51,0.271-2.25,0.421
	C242.83,201.04,243.391,198.4,243.79,195.811z"/>
<path fill="#BD4E3A" d="M288.49,202.52c0.99-0.01,2.96-0.05,3.949-0.069c-0.06,1.59-0.14,3.19-0.219,4.78
	c-0.631-0.641-1.261-1.291-1.881-1.931c-0.42,0.5-1.24,1.5-1.66,2C288.609,205.71,288.55,204.109,288.49,202.52z"/>
<path fill="#260201" d="M307.82,205.141c2.75,0.56,5.34-0.771,7.84-1.711c1.01,2,1.899,4.51,4.59,4.43
	c-0.66,1.801-1.32,3.601-2,5.391c-0.7-2.18-1.41-4.359-2.1-6.54c-0.94-0.03-2.83-0.09-3.78-0.12c1.26,3.79,2.64,7.53,4.03,11.28
	c-0.91,1.68-1.83,3.35-2.71,5.04c1.47-0.221,2.989-0.33,4.439-0.75c2.07-2.88,3.13-6.311,4.36-9.59c0.13,1.74,0.26,3.49,0.37,5.24
	c-2.181,2.17-3.051,6.89-6.9,6.209c-1.63-0.18-3.22-0.6-4.8-0.989c0.54-1.351,1.09-2.7,1.62-4.05c-2.9-0.211-5.351,1.1-7.14,3.319
	c-1.75-1.09-3.221-2.55-4.041-4.47c3.26,0.62,6.58,0.47,9.87,0.279c-0.06-3.369,0.13-6.76-0.33-10.1
	c-2.27-2.189-5.64-1.359-8.47-1.57C303.76,204.51,305.96,204.75,307.82,205.141z"/>
<path fill="#EA381E" d="M290.34,205.3c0.62,0.64,1.25,1.29,1.881,1.931c0.189,0.819,0.389,1.629,0.6,2.449
	c1.25,0.131,2.51,0.23,3.76,0.301c-0.109,0.67-0.34,2.01-0.45,2.68c-0.37,1.199-0.771,2.4-1.19,3.59
	c-0.649-0.65-1.289-1.3-1.93-1.939c-0.17,0.109-0.5,0.35-0.66,0.459c-0.439,0.311-1.33,0.931-1.77,1.25
	c-0.221-2.619-0.439-5.31-1.939-7.55l-0.351-0.689l0.39-0.48C289.1,206.8,289.92,205.8,290.34,205.3z"/>
<path fill="#C9CBC8" d="M194.8,210.32c-0.771-1.48-0.12-3.01,0.521-4.381c0.209,0.711,0.64,2.141,0.859,2.851
	c1.57,1.24,3.141,2.49,4.721,3.72c0.619-0.34,1.84-1.029,2.459-1.369c-0.33,1.09-0.659,2.189-1,3.289
	c4.641,3.01,10.041,5.561,15.721,4.54c3.391-0.03,6.311-1.81,9.391-2.97c4.399-0.74,8.17-3.37,12.579-4.05
	c-0.43,2.239-0.63,4.85-2.61,6.35c-3.529,2.92-6.76,6.74-11.539,7.48c-6.78,1.28-14.45,4.17-20.851,0.14
	C199.189,222.8,197.029,216.109,194.8,210.32z"/>
<path fill="#CE442D" d="M276.68,207.641c1.26-1,2.84-1.44,4.28-2.101c2.46,0.53,4.819,1.45,6.649,3.229
	c-0.239,2.73,1.131,6.431-1.56,8.301c-2.93,2.71-8.31,1.949-10.38-1.471C275.3,212.98,274.92,209.859,276.68,207.641 M280.33,209.52
	c-1.66,0.791-0.91,3-0.95,4.44c0.16,2.58,5.2,1.92,4.351-0.91C284.5,210.83,282.75,208.24,280.33,209.52z"/>
<path fill="#D64135" d="M295.42,206.34c1.68,0.18,3.37,0.37,5.04,0.67c-1.37,0.9-2.63,1.92-3.88,2.971
	c-1.25-0.07-2.51-0.17-3.76-0.301C293.68,208.561,294.55,207.45,295.42,206.34z"/>
<path fill="#1C020A" d="M300.46,207.01c0.28-0.14,0.84-0.43,1.12-0.57c-0.02,1.49-0.02,2.98-0.09,4.48l-0.08,1.34
	c-0.471,1.471-0.93,2.94-1.381,4.42c-1.299-1.34-2.59-2.689-3.899-4.02c0.11-0.67,0.341-2.01,0.45-2.68
	C297.83,208.93,299.09,207.91,300.46,207.01z"/>
<path fill="#D1432D" d="M301.58,206.439h1.09c2.83,0.211,6.2-0.619,8.47,1.57c0.46,3.34,0.271,6.73,0.33,10.1
	c-3.29,0.19-6.61,0.341-9.87-0.279l-0.89-0.141c-2.06,0.86-4.26,0.951-6.16-0.34l0.39-1.1c0.42-1.189,0.82-2.391,1.19-3.59
	c1.31,1.33,2.601,2.68,3.899,4.02c0.451-1.479,0.91-2.949,1.381-4.42c2.59-0.58,5.64-0.81,7.24-3.279
	c-2.53-0.011-5.021,0.55-7.16,1.939C301.561,209.42,301.561,207.93,301.58,206.439 M304.27,215.58c2.181,2.02,3.971-1.04,4.061-3.03
	C306.75,212.891,303.52,213.16,304.27,215.58z"/>
<path fill="#D64135" d="M312.37,206.59c0.95,0.03,2.84,0.09,3.78,0.12c0.689,2.181,1.399,4.36,2.1,6.54c0.68-1.79,1.34-3.59,2-5.391
	l0.52-1.42c0.851,0.051,2.57,0.15,3.421,0.19c-0.53,1.99-1.04,3.979-1.7,5.94c-1.23,3.279-2.29,6.71-4.36,9.59
	c-1.45,0.42-2.97,0.529-4.439,0.75c0.88-1.69,1.8-3.36,2.71-5.04C315.01,214.12,313.63,210.38,312.37,206.59z"/>
<path fill="#260205" d="M280.33,209.52c2.42-1.279,4.17,1.311,3.4,3.53c0.85,2.83-4.19,3.49-4.351,0.91
	C279.42,212.52,278.67,210.311,280.33,209.52z"/>
<path fill="#BB473A" d="M288.641,208.47c1.5,2.24,1.719,4.931,1.939,7.55c0.439-0.319,1.33-0.939,1.77-1.25
	c0.021,0.891,0.051,2.66,0.07,3.541c-0.98-0.021-2.939-0.051-3.92-0.061C288.34,214.99,288.29,211.72,288.641,208.47z"/>
<path fill="#88140B" d="M301.49,210.92c2.14-1.39,4.63-1.95,7.16-1.939c-1.601,2.47-4.65,2.699-7.24,3.279L301.49,210.92z"/>
<path fill="#262825" d="M203.57,210.391c2.529,3.329,5.869,7.14,10.47,6.89c3.75,0.17,8.13-0.521,10.67-3.521
	c1.34-0.189,2.63-0.6,3.78-1.32c-0.36,1.181-0.7,2.36-1.02,3.561c-3.08,1.16-6,2.939-9.391,2.97c-5.68,1.021-11.08-1.53-15.721-4.54
	c0.341-1.1,0.67-2.199,1-3.289L203.57,210.391z"/>
<path fill="#75140A" d="M304.27,215.58c-0.75-2.42,2.48-2.689,4.061-3.03C308.24,214.54,306.45,217.6,304.27,215.58z"/>
<path fill="#727471" d="M112.97,238.99c0.21-1.74,0.38-3.48,0.7-5.2c-0.09,1.95-0.06,3.89-0.06,5.851
	c45.48,0.109,90.96,0.01,136.43,0.039c5.84-0.08,11.69,0.311,17.5-0.32c5.13-0.6,10.3-0.34,15.45-0.359
	c14-0.01,28.01,0.01,42.01-0.01V240H0v-0.98C37.66,238.96,75.32,239.03,112.97,238.99z"/>
</svg>
