<?xml version="1.0" encoding="utf-8"?>
<!-- Generator: Adobe Illustrator 15.0.2, SVG Export Plug-In . SVG Version: 6.00 Build 0)  -->
<!DOCTYPE svg PUBLIC "-//W3C//DTD SVG 1.1//EN" "http://www.w3.org/Graphics/SVG/1.1/DTD/svg11.dtd">
<svg version="1.1" id="Layer_1" xmlns="http://www.w3.org/2000/svg" xmlns:xlink="http://www.w3.org/1999/xlink" x="0px" y="0px"
	 width="325px" height="240px" viewBox="0 0 325 240" enable-background="new 0 0 325 240" xml:space="preserve">
<path fill="#000200" d="M0,0h325v240h-30.05l-0.7-0.67c-1.75-2.28-3.721-4.49-6.42-5.62c-6.311-2.88-11.609-7.59-18.08-10.149
	c-5.9,0.68-11.79-0.961-17.439-2.49c0.719-3.28-0.011-6.91,1.83-9.87c2.689-5.06,6.439-9.54,8.289-15.03
	c1.801-5.3,5.041-10.4,4.45-16.22c0.261-3.97-0.51-8.601,1.771-12.06c-0.551-7.881,2.57-15.4,1.869-23.271l-1.14-0.64
	c0.11-1.23,0.25-2.45,0.42-3.67l-0.3,0.039c-0.939-0.3-1.87-0.619-2.79-0.959l-0.71-0.91c-0.04-1.82-0.18-3.65-0.6-5.42
	c-0.18-1.131-0.851-1.851-2-2.181c0.649-0.68,2.58-1.01,1.99-2.25c-1.33-0.86-2.42,0.19-3.541,0.66
	c-1.49-0.38-2.97-0.729-4.459-1.08c-0.971,1.729-3.701,3.62-2.49,5.79l0.859,1.78c-0.82-0.04-2.449-0.11-3.27-0.15
	c-0.02-3.19-0.891-7.01,2.16-9.16c-0.471-0.05-1.41-0.149-1.891-0.2c1.051-0.819,1.82-1.939,2.23-3.199
	c-1.68-0.16-5.74,2.859-2.23,3.199l1.02,0.19c-2.1,1.2-3.909,2.8-5.43,4.69c-1.32,0.05-2.64,0.09-3.959,0.199l-0.011-0.619
	c-1.819-0.881-4.62-1.16-4.08-3.891c1.46-1.87,3.89-1.65,5.671-0.42c2.989-1.41,4.319-4.66,7.219-6.2
	c3.631-2.99,7.931-5.45,12.83-4.729c1.5,0.86,3.16,1.26,4.9,1.19c0.24,0.9,0.71,1.81,0.34,2.77c2,2.46-0.88,2.489-2.25,0.93
	c-4.52,0.16-9.42-0.32-13.31,2.49c3.319-1,7.19-2.8,10.5-0.82c0.63,0.14,1.899,0.42,2.53,0.56c-0.03,0.551-0.09,1.641-0.11,2.181
	c-4.13-1.8-8.82-2.28-12.74,0.351c3.521,0.079,7.13,0,10.38,1.6c2.12,3.04,3.5,6.75,1.28,10.17c0.5-0.061,1.5-0.17,2-0.23
	c-0.011-3.32,0.14-6.649,0.14-9.97c0.891-1.97,2.03-3.81,2.891-5.8c-0.16-1.59-0.721-3.11-1.051-4.67l1.771,2
	c3.92-5.79,1.271-12.76,0.89-19.11c-2.689-8.75-5.66-17.62-11.47-24.86c-2.41-2.93-3.38-7.16-6.931-9.02
	c-5.939-3.13-9.469-9.83-16.209-11.51c-3.75-2.1-7.25-4.76-11.68-5.21c-11.381-3.17-22.74,1.51-34.031,2.47
	c-3.989,1.52-8.389,2.21-11.879,4.82c-3.41,2.4-7.931,3.08-10.53,6.59c-6.56,7.94-13.59,15.81-17.65,25.4
	c-1.51,3.24-1.07,6.89-1.62,10.33c-0.84,3.67,1.37,7.13,1.06,10.82c-0.22,4.74,1.61,9.28,1.35,14.021
	c0.18,3.649-1.26,7.319-0.15,10.91c1.14,4.199,0.26,8.629,1.47,12.81l-1.42-0.62c1.88,2.14,2.34,5.08,3.93,7.4
	c3.97,5.91,5.45,13.029,8.971,19.18c1.77,4.58,7.239,5.27,10.649,8.199c4,3.61,8.69,6.94,14.181,7.631
	c-2.261-2.44-6.051-2.92-7.771-5.9c-1.671-2.57-3.72-4.93-4.979-7.73c-0.591-1.329,0.559-2.289,1.309-3.189
	c0.431,1.35,0.801,2.73,1.15,4.11c1.92,2.5,3.271,5.53,5.62,7.659c3.46,1.66,6.601,4.201,10.46,4.881
	c5.35,0.649,9.41,4.92,14.801,5.49c4.199,0.489,8.399,1.22,12.18,3.25c-1.221,0.33-2.45,0.58-3.67,0.81
	c-0.291-0.681-0.87-2.05-1.17-2.74c-0.4,0.17-1.211,0.511-1.621,0.67c-1.609-0.27-3.229-0.35-4.77,0.261
	c3.17,1.729,6.561,2.979,9.82,4.52c3.46,2.01,6.15,5.07,9.38,7.41c4.29,3.05,8.45,6.31,12.99,9.01c2.01,1.17,3.11,3.689,5.69,3.85
	c-2.271,1.45-3.931-1.619-5.711-2.51c-2.35-0.1-5.119-0.49-6.3-2.82c-1.37-2.67-4.409-3.34-6.909-4.489
	c-1.271-1.591-2.631-3.101-3.98-4.61c-0.75-1.05-1.52-2.08-2.32-3.08c-2.3-1.32-4.939-1.74-7.52-2.13
	c-4.94-4.45-11.78-5.78-17.73-8.44c-5.109-1.699-10.58-4.369-16.05-2.97c-4.261-5.21-10.091-10.3-17.07-10.93
	c-4.079,9.47-8.92,18.58-13.24,27.94c-0.53,1.109-1.33,2.039-2.06,3.029c-0.08,2.2-0.69,4.29-1.53,6.32
	c-1.78,6.06-1.46,12.449-2.26,18.65c-0.27,1.609-0.4,3.229-0.52,4.859l-1.93-0.029c-0.36-5.601,1-11.08,1.24-16.65
	c-2.98,3.89-6.08,7.699-10.13,10.54c-2.68,2.42-5.42,4.86-8.7,6.47H0V0 M195.8,23.69c-1.06,5.26-2.64,10.39-3.569,15.67
	c3.689,0.08,7.39,0.24,11.09,0.08c1.3-0.39,0.949-1.96,1.34-2.95c-2.43-0.12-4.86-0.15-7.29-0.09c0-3.99,1.54-7.75,2.04-11.68
	C198.76,23.18,197.07,23.81,195.8,23.69 M110.98,24.93c-3.1,4.24-5.38,9.02-8.19,13.45c0.24,1.78,2.24,0.88,3.44,1.08
	c0.83-0.99,1.66-1.98,2.5-2.96c1.5,0.05,3,0.1,4.5,0.15c0.12,0.68,0.37,2.03,0.49,2.7c1.29,0.05,2.58,0.1,3.87,0.14
	c0.25-5.2-1.5-10.2-2.04-15.34C113.95,23.52,112.09,23.37,110.98,24.93 M124.57,24.61c-4.01,2.15-5.82,7.01-5.21,11.37
	c-0.06,2.46,2.6,3.67,4.62,4.22c3.66,0.28,7.18-1.39,9.21-4.46l-0.08,1.01c0.96-0.28,1.91-0.55,2.87-0.83
	c-0.53-0.78-1.06-1.56-1.6-2.34c0.63-1.22,1.26-2.43,1.91-3.62c1.2,1.86,1.62,4.05,1.97,6.21l-0.63,1.33l0.74,0.43
	c0.02,1.65,0.84,2.08,2.48,1.29c2.8-2.96,2.14-7.84,3.02-11.66c2.01,0,4.01-0.13,6.02-0.28c-0.15,3.34-1.66,6.5-1.37,9.86
	c0.68,2.43,3.43,2.47,5.41,3.12c2.94-0.44,5.93-1.19,7.6-3.9c0.3-4.39,3-8.66,1.791-13.08c-5.271,0.54-3.88,7.13-5.48,10.78
	c0.07,2.85-4.46,3.81-5.25,0.97c0.3-3.71,2.36-7.19,1.82-10.97c-1.7,0.2-3.41,0.39-5.12,0.53c-4.01-1.61-8.92-0.97-13.19-0.39
	c-0.47,0.3-1.42,0.9-1.89,1.21C131.32,23.9,127.51,22.52,124.57,24.61 M170.79,24.66c-2.78,4.97-6.08,9.65-8.67,14.73
	c1.44,0.05,2.88,0.09,4.33,0.14c0.489-0.95,0.979-1.91,1.479-2.86c1.48-0.07,2.961-0.13,4.44-0.2c0.271,0.64,0.83,1.92,1.11,2.561
	l0.6-0.22c1.4,1.2,2.49,1.12,3.27-0.24c-0.25-4.74-1-9.5-2.029-14.13C174.2,22.65,172.279,24.44,170.79,24.66 M181.93,25.82
	c-1.189,4.46-2.27,8.99-2.67,13.59c3.641,0.01,7.29,0.2,10.93-0.01c0.32-0.29,0.961-0.89,1.281-1.18l0.209-1.7
	c-2.41-0.12-4.83-0.13-7.24-0.04c-0.789-4.16,1.771-8.03,1.271-12.18C184.23,22.82,182.21,24,181.93,25.82 M206.21,24.29
	c0.05,3.14,1.569,5.9,2.45,8.83c-0.01,2.17-0.33,4.33-0.45,6.49c1.319-0.09,2.649-0.19,3.99-0.29c-0.431-6.37,5.59-9.85,7.81-15.1
	c-1.51,0.04-3,0.11-4.49,0.19c-1.149,1.88-2.399,3.67-3.67,5.45c-0.359-2.33-0.99-4.66-2.66-6.42
	C208.45,23.66,206.96,24.08,206.21,24.29 M215.689,36.44c-0.119,1-0.229,2-0.34,3.01c1.45,0.03,2.9,0.06,4.351,0.09
	c0-1.14,0-2.27,0.01-3.41C218.359,36.22,217.02,36.32,215.689,36.44 M221.48,39.53c1.6-0.04,3.199-0.12,4.81-0.22
	c0-0.8,0.021-2.4,0.03-3.2c-0.57-0.07-1.73-0.22-2.301-0.3C221.79,35.03,221.55,38.11,221.48,39.53 M227.6,39.47
	c1.551,0.17,3.09,0.13,4.631-0.11c0.649-1.97-0.201-3.37-2.211-3.71C227.77,35.43,227.55,37.85,227.6,39.47z"/>
<path fill="#D44432" d="M195.8,23.69c1.271,0.12,2.96-0.51,3.61,1.03c-0.5,3.93-2.04,7.69-2.04,11.68c2.43-0.06,4.86-0.03,7.29,0.09
	c-0.391,0.99-0.04,2.56-1.34,2.95c-3.7,0.16-7.4,0-11.09-0.08C193.16,34.08,194.74,28.95,195.8,23.69z"/>
<path fill="#D63F31" d="M110.98,24.93c1.11-1.56,2.97-1.41,4.57-0.78c0.54,5.14,2.29,10.14,2.04,15.34
	c-1.29-0.04-2.58-0.09-3.87-0.14c-0.12-0.67-0.37-2.02-0.49-2.7c-1.5-0.05-3-0.1-4.5-0.15c-0.84,0.98-1.67,1.97-2.5,2.96
	c-1.2-0.2-3.2,0.7-3.44-1.08C105.6,33.95,107.88,29.17,110.98,24.93 M110.02,33.79c0.76-0.01,2.28-0.04,3.04-0.05
	c-0.06-1.48-0.17-2.98-0.82-4.33C110.72,30.4,110.2,32.09,110.02,33.79z"/>
<path fill="#D44433" d="M124.57,24.61c2.94-2.09,6.75-0.71,9.64,0.8c0.09,1.3,0.2,2.6,0.34,3.91c-0.96,0.09-1.93,0.17-2.89,0.26
	c-1.28-1.57-3.11-2.99-5.24-2.05c-2.68,1.61-3.57,5.189-2.96,8.11c3.49,3,6.1-2.59,9.86-1.61c-0.03,0.43-0.1,1.28-0.13,1.71
	c-2.03,3.07-5.55,4.74-9.21,4.46c-2.02-0.55-4.68-1.76-4.62-4.22C118.75,31.62,120.56,26.76,124.57,24.61z"/>
<path fill="#140308" d="M134.21,25.41c0.47-0.31,1.42-0.91,1.89-1.21c0.01,0.78,0.02,2.35,0.03,3.14c1.26,0.02,2.52,0.05,3.79,0.07
	c-0.27,2.96-0.65,5.94-1.66,8.76c-0.35-2.16-0.77-4.35-1.97-6.21c-0.65,1.19-1.28,2.4-1.91,3.62c0.54,0.78,1.07,1.56,1.6,2.34
	c-0.96,0.28-1.91,0.55-2.87,0.83l0.08-1.01c0.03-0.43,0.1-1.28,0.13-1.71c-3.76-0.98-6.37,4.61-9.86,1.61
	c-0.61-2.92,0.28-6.5,2.96-8.11c2.13-0.94,3.96,0.479,5.24,2.05c0.96-0.09,1.93-0.17,2.89-0.26
	C134.41,28.01,134.3,26.71,134.21,25.41z"/>
<path fill="#D44331" d="M136.1,24.2c4.27-0.58,9.18-1.22,13.19,0.39c-0.17,0.45-0.51,1.34-0.69,1.79c-1.6,0.29-3.23,0.53-4.73,1.18
	c-0.88,3.82-0.22,8.7-3.02,11.66c-0.52-0.9-1.35-1.33-2.48-1.29l-0.74-0.43l0.63-1.33c1.01-2.82,1.39-5.8,1.66-8.76
	c-1.27-0.02-2.53-0.05-3.79-0.07C136.12,26.55,136.11,24.98,136.1,24.2z"/>
<path fill="#D44131" d="M149.29,24.59c1.71-0.14,3.42-0.33,5.12-0.53c0.54,3.78-1.52,7.26-1.82,10.97c0.79,2.84,5.32,1.88,5.25-0.97
	c1.6-3.65,0.21-10.24,5.48-10.78c1.209,4.42-1.49,8.689-1.791,13.08c-1.67,2.71-4.66,3.46-7.6,3.9c-1.98-0.65-4.73-0.69-5.41-3.12
	c-0.29-3.36,1.22-6.52,1.37-9.86c-2.01,0.15-4.01,0.28-6.02,0.28c1.5-0.65,3.13-0.89,4.73-1.18
	C148.78,25.93,149.12,25.04,149.29,24.59z"/>
<path fill="#D64131" d="M170.79,24.66c1.489-0.22,3.41-2.01,4.53-0.22c1.029,4.63,1.779,9.39,2.029,14.13
	c-1.119-0.4-2.209-0.32-3.27,0.24l-0.6,0.22c-0.28-0.64-0.84-1.92-1.11-2.561c-1.479,0.07-2.96,0.13-4.44,0.2
	c-0.5,0.95-0.99,1.91-1.479,2.86c-1.45-0.05-2.89-0.09-4.33-0.14C164.71,34.31,168.01,29.63,170.79,24.66 M169.23,33.34
	c1.22,0.2,2.449,0.39,3.689,0.56c0.08-1.6,0.01-3.23-0.63-4.73C171.01,30.36,170.061,31.82,169.23,33.34z"/>
<path fill="#D6412A" d="M181.93,25.82c0.28-1.82,2.301-3,3.78-1.52c0.5,4.15-2.06,8.02-1.271,12.18c2.41-0.09,4.83-0.08,7.24,0.04
	l-0.209,1.7c-0.32,0.29-0.961,0.89-1.281,1.18c-3.64,0.21-7.289,0.02-10.93,0.01C179.66,34.81,180.74,30.28,181.93,25.82z"/>
<path fill="#CD4432" d="M206.21,24.29c0.75-0.21,2.24-0.63,2.979-0.85c1.67,1.76,2.301,4.09,2.66,6.42
	c1.271-1.78,2.521-3.57,3.67-5.45c1.49-0.08,2.98-0.15,4.49-0.19c-2.22,5.25-8.24,8.73-7.81,15.1c-1.341,0.1-2.671,0.2-3.99,0.29
	c0.12-2.16,0.44-4.32,0.45-6.49C207.779,30.19,206.26,27.43,206.21,24.29z"/>
<path fill="#851810" d="M110.02,33.79c0.18-1.7,0.7-3.39,2.22-4.38c0.65,1.35,0.76,2.85,0.82,4.33
	C112.3,33.75,110.78,33.78,110.02,33.79z"/>
<path fill="#871912" d="M169.23,33.34c0.83-1.52,1.779-2.98,3.06-4.17c0.64,1.5,0.71,3.13,0.63,4.73
	C171.68,33.73,170.45,33.54,169.23,33.34z"/>
<path fill="#C24F3E" d="M215.689,36.44c1.33-0.12,2.67-0.22,4.021-0.31c-0.01,1.14-0.01,2.27-0.01,3.41
	c-1.45-0.03-2.9-0.06-4.351-0.09C215.46,38.44,215.57,37.44,215.689,36.44z"/>
<path fill="#AA443F" d="M221.48,39.53c0.069-1.42,0.31-4.5,2.539-3.72c0.57,0.08,1.73,0.23,2.301,0.3c-0.01,0.8-0.03,2.4-0.03,3.2
	C224.68,39.41,223.08,39.49,221.48,39.53z"/>
<path fill="#A64643" d="M227.6,39.47c-0.05-1.62,0.17-4.04,2.42-3.82c2.01,0.34,2.86,1.74,2.211,3.71
	C230.689,39.6,229.15,39.64,227.6,39.47z"/>
<path fill="#BD605B" d="M138.37,37.93c1.13-0.04,1.96,0.39,2.48,1.29C139.21,40.01,138.39,39.58,138.37,37.93z"/>
<path fill="#C95C58" d="M174.08,38.81c1.061-0.56,2.15-0.64,3.27-0.24C176.57,39.93,175.48,40.01,174.08,38.81z"/>
<path fill="#CCCECB" d="M193.859,51c11.291-0.96,22.65-5.64,34.031-2.47c-1.41,0.9-2.861,1.84-4.57,2
	c-7.2,1.17-14.301,3.39-20.471,7.33c-2.859,1.67-0.68,5.31-1.18,7.86c-0.83,0.45-1.71,0.8-2.58,1.17
	c-0.369,1.97-1.39,4.22-0.14,6.09c2.78,4.58,6.93,8.36,12.05,10.11c1.029-0.29,2.05-0.57,3.08-0.85c2.029,2.81,5.33,3.62,8.26,5.06
	c0.26,0.62,0.79,1.86,1.061,2.48c-5.021-1.71-10.381-1.94-15.391-3.64c-2.65-0.89-5.48-0.81-8.23-0.63
	c0.941,1.64,3.921,4.48,5.08,1.521c6.041,1.54,11.931,4.11,18.16,4.64c-0.25,0.67-0.75,2-1,2.67c-3.5-1.1-6.58-3.65-10.479-2.66
	c0.16,0.65,0.47,1.96,0.62,2.62c-0.61,0.55-1.23,1.1-1.86,1.64c1.4,0.54,2.72,1.24,3.97,2.09c-2.17-0.32-4.35-0.61-6.51-0.98
	c0.26-0.35,0.79-1.06,1.051-1.41c0.619-0.54,1.26-1.07,1.91-1.58c-4.051-1.2-7.701-3.54-11.921-4.22c-0.729-1.28-2-2.06-2.21,0.11
	l-2.08,0.21l0.311,1.41c3.199-0.45,6.4,0.21,9.229,1.75c-0.21,0.77-0.399,1.54-0.6,2.32c-0.681-0.04-1.36-0.07-2.03-0.09
	c-0.18,0.7-0.529,2.11-0.699,2.81c-5.521-0.3-11.41-0.72-16.521,1.77c-3.851,2.25-8.74,0.31-12.28,3.39
	c1.311,1.37,3.27,0.8,4.95,0.82c-2.601,2.94-4.771,6.61-4.271,10.69c-0.22,2.96,1.871,5.46,4.461,6.579
	c-0.631-3.469-1.851-6.89-1.82-10.449c0.529-2.86,2.56-5.05,4.6-6.98c0.48,0.33,1.43,0.97,1.9,1.29c1.47-0.189,2.92-0.01,4.279,0.58
	c1.811-0.47,4.36-0.58,3.541-3.18c0.06,0.48,0.18,1.44,0.239,1.93c2.83-0.36,5.681-0.38,8.521-0.2c-0.791-3.14-4.43-1.49-6.67-2.13
	c3.51-1.82,7.119,0.9,10.83,0.26c2.01,1.24,4.119,2.37,5.93,3.91c1.3,1.49,2.32,3.23,3.97,4.39c-0.64-0.07-1.94-0.21-2.59-0.28
	c-0.12-0.12-0.37-0.36-0.49-0.48c-1.489-4.97-7.229-5.41-11.22-7.26c0.21,0.86,0.42,1.72,0.641,2.59
	c-1.781-0.05-3.561-0.03-5.341,0.08c0.61,0.56,1.83,1.68,2.431,2.24c-2.971,1.52-5.391,3.96-6.48,7.16
	c-0.109,0.22-0.33,0.66-0.439,0.88c-0.641,0.67-1.281,1.33-1.931,1.99c0.14,2.47-0.05,4.95-0.319,7.409
	c2.75,1.021,4.529-1.109,5.949-3.18c3.79,3.4,9.311,2.57,13.641,0.78c1.649,0.649,2.97,0.601,2.619-1.74
	c1.301,0.63,2.61,1.32,4.101,1.45c-0.979,2.02,0.86,4.689-1.021,6.3c-2.65,2.37-6.449,2.71-9.38,4.65
	c-7.45,5.05-16.87,2.7-25.271,3.29c-2.209-0.061-4.299-0.76-6.289-1.65c-2.08,2.141-6,4.34-3.99,7.85
	c4.87,9.951,19,8.641,24.6,17.94c-1.72,2.78-5.109,2.761-7.84,3.8c-1.189,1.75-1.38,4.58,0.36,6.051
	c2.58,2.38,4.659,5.189,6.69,8.039c3.14,2.541,6.5,5.101,7.199,9.381c-3.859-0.68-7-3.221-10.46-4.881
	c-2.35-2.129-3.7-5.159-5.62-7.659c-0.35-1.38-0.72-2.761-1.15-4.11c-0.75,0.9-1.899,1.86-1.309,3.189
	c1.26,2.801,3.309,5.16,4.979,7.73c1.72,2.98,5.51,3.46,7.771,5.9c-5.49-0.69-10.181-4.021-14.181-7.631
	c-3.41-2.93-8.88-3.619-10.649-8.199c-3.521-6.15-5-13.27-8.971-19.18c-1.59-2.32-2.05-5.261-3.93-7.4l1.42,0.62
	c-1.21-4.181-0.33-8.61-1.47-12.81c-1.11-3.591,0.33-7.261,0.15-10.91c0.26-4.74-1.57-9.28-1.35-14.021
	c0.31-3.69-1.9-7.15-1.06-10.82c0.55-3.44,0.11-7.09,1.62-10.33c4.06-9.59,11.091-17.46,17.65-25.4c2.6-3.51,7.12-4.19,10.53-6.59
	C185.471,53.21,189.87,52.52,193.859,51 M179.09,107.39c-0.07,1.67,1.23,2.95,2.92,2.49c1.76-0.34,4.961,0.89,5.26-1.66
	C184.54,107.93,181.82,107.65,179.09,107.39 M189.189,109.4C187.689,112.35,192.57,109.56,189.189,109.4 M158.06,142.34
	c-0.41,1.42,0.09,1.94,1.49,1.57C159.92,142.53,159.43,142,158.06,142.34z"/>
<path fill="#E7E9E6" d="M227.891,48.53c4.43,0.45,7.93,3.11,11.68,5.21c-3.521,2.53-8.051,1.78-12.051,2.87
	c-1.619,3.64-6.399,2.31-8.74,5.09c-2.199,2.62-6.199,3.19-7.6,6.51c-1.08,2.38-3.199,4.94-2.1,7.67c0.59,2.82,3.061,4.49,5,6.36
	c-1.03,0.28-2.051,0.56-3.08,0.85c-5.12-1.75-9.27-5.53-12.05-10.11c-1.25-1.87-0.229-4.12,0.14-6.09c0.87-0.37,1.75-0.72,2.58-1.17
	c0.5-2.55-1.68-6.189,1.18-7.86c6.17-3.94,13.271-6.16,20.471-7.33C225.029,50.37,226.48,49.43,227.891,48.53z"/>
<path fill="#FBFDFA" d="M227.52,56.61c4-1.09,8.53-0.34,12.051-2.87c6.74,1.68,10.27,8.38,16.209,11.51
	c3.551,1.86,4.521,6.09,6.931,9.02c5.81,7.24,8.78,16.11,11.47,24.86c0.381,6.35,3.03,13.32-0.89,19.11l-1.771-2
	c0.33,1.56,0.891,3.08,1.051,4.67c-0.86,1.99-2,3.83-2.891,5.8c0,3.32-0.15,6.649-0.14,9.97c-0.5,0.061-1.5,0.17-2,0.23
	c2.22-3.42,0.84-7.13-1.28-10.17c-3.25-1.6-6.859-1.521-10.38-1.6c3.92-2.631,8.61-2.15,12.74-0.351
	c0.021-0.54,0.08-1.63,0.11-2.181c-0.631-0.14-1.9-0.42-2.53-0.56c-3.31-1.98-7.181-0.18-10.5,0.82c3.89-2.81,8.79-2.33,13.31-2.49
	c1.37,1.56,4.25,1.53,2.25-0.93c0.37-0.96-0.1-1.87-0.34-2.77c-1.74,0.07-3.4-0.33-4.9-1.19c-4.899-0.72-9.199,1.74-12.83,4.729
	c-2.899,1.54-4.229,4.79-7.219,6.2c-1.781-1.23-4.211-1.45-5.671,0.42c-0.54,2.73,2.261,3.01,4.08,3.891l0.011,0.619
	c-0.021,0.61-0.061,1.83-0.08,2.44c2.68,0.22,6.039,1.39,7.629-1.601c-0.18,1.42-0.34,2.841-0.43,4.271
	c-0.4-0.36-1.18-1.08-1.58-1.44c-0.52,0.23-1.56,0.69-2.08,0.92l-0.42,0.33c-0.779,0.66-1.539,1.33-2.3,2.021
	c0.71,1.59,1.25,3.43,2.92,4.3c2.22,1.34,4.19,3.5,6.931,3.67c3.039,0.391,6.119,0.43,9.18,0.49c0.59-1.54,1.4-2.98,2.449-4.26
	c0.92,0.5,1.851,0.99,2.771,1.49l1.14,0.64c0.701,7.87-2.42,15.39-1.869,23.271c-2.28,3.459-1.51,8.09-1.771,12.06
	c0.591,5.819-2.649,10.92-4.45,16.22c-1.85,5.49-5.6,9.971-8.289,15.03c-1.841,2.96-1.111,6.59-1.83,9.87
	c5.649,1.529,11.539,3.17,17.439,2.49c6.471,2.56,11.77,7.27,18.08,10.149c2.699,1.13,4.67,3.34,6.42,5.62
	c-32.84-0.12-65.689,0.15-98.529-0.11c0.039-0.689,0.109-2.069,0.149-2.75c3.8-3.79,7.31-7.92,10.05-12.54
	c1.27-1.99,2.43-4.17,4.4-5.56c3.01-2.07,6.82-2.32,9.949-4.13c0.451-1.6,0.601-3.26,0.851-4.9c1.19,0.03,2.37,0.061,3.56,0.08
	c1.32-1.05,2.67-2.061,4.061-3c1.35,1.51,2.71,3.02,3.98,4.61c2.5,1.149,5.539,1.819,6.909,4.489c1.181,2.33,3.95,2.721,6.3,2.82
	c1.78,0.891,3.44,3.96,5.711,2.51c-2.58-0.16-3.681-2.68-5.69-3.85c-4.54-2.7-8.7-5.96-12.99-9.01c-3.229-2.34-5.92-5.4-9.38-7.41
	c-3.26-1.54-6.65-2.79-9.82-4.52c1.54-0.61,3.16-0.53,4.77-0.261c0.41-0.159,1.221-0.5,1.621-0.67c0.3,0.69,0.879,2.06,1.17,2.74
	c1.22-0.229,2.449-0.479,3.67-0.81c-3.78-2.03-7.98-2.761-12.18-3.25c-5.391-0.57-9.451-4.841-14.801-5.49
	c-0.699-4.28-4.06-6.84-7.199-9.381c-1.471-4.85,0.75-9.569,3.779-13.27c2.76-0.79,5.471-1.779,8.09-2.98
	c-0.15-2.39,1.17-5.539-1.209-7.189c-4.561-3.609-9.621-6.59-14.771-9.3c-2.21-1.17-3.91-3.03-5.63-4.78
	c-1.34,0.16-2.67,0.32-3.99,0.49c0.061-1.67,0.141-3.34,0.199-5c8.4-0.59,17.82,1.76,25.271-3.29c2.931-1.94,6.729-2.28,9.38-4.65
	c1.881-1.61,0.041-4.28,1.021-6.3c0.22-0.41,0.659-1.24,0.88-1.65c0.62,0.721,1.85,2.15,2.46,2.871
	c0.41-1.801,0.89-3.581,1.29-5.381c1.74-0.83,3.67-0.5,5.529-0.5c0.021-1.47,0.011-2.94-0.02-4.41c2.79,0.55,5.65,0.53,8.471,0.91
	c2.1,1.18,3.859,2.87,5.81,4.28l0.05-1.66l-0.939-1.2c3.119-3.23,7.91-0.02,11.649-1.74c3.08-1.39,6.771-1.37,9.351-3.75
	c3.24-2.63,7.479-3.53,10.75-6.09c0.27-1.12,0.26-2.28,0.25-3.43c-0.051-0.34-0.15-1.02-0.201-1.37c-1.229-0.03-2.5-0.15-3.67,0.29
	c-7.609,2.91-13.629,9.13-21.68,10.99c-4.1-0.01-8.22-0.59-12.26-1.26c-0.07-0.58-0.22-1.74-0.29-2.32
	c4.63,0.54,9.32,0.52,13.89-0.5c-1.869-1.34-3.939-2.37-5.869-3.6c3,0.47,6.09,0.28,8.85-1.09c-2.18-2.17-4.77-0.89-7.27-0.65
	c-7.391-2.59-15.42-1.77-22.871-4.04c-1.699-0.94-3.369-1.94-4.949-3.07c-0.15-0.66-0.46-1.97-0.62-2.62
	c3.899-0.99,6.979,1.56,10.479,2.66c8.041,2.62,16.59,3.06,24.971,3.88c2.48-0.72,4.18-3.06,6.56-4.1
	c-0.149-1.48,0.55-3.63-1.17-4.37c-2.399-0.61-4.89-0.04-6.78,1.55c-5.27,1.37-10.35-1.14-15.619-0.97
	c-2.19-0.18-4.53,0.48-6.58-0.55c-0.271-0.62-0.801-1.86-1.061-2.48c-2.93-1.44-6.23-2.25-8.26-5.06c-1.939-1.87-4.41-3.54-5-6.36
	c-1.1-2.73,1.02-5.29,2.1-7.67c1.4-3.32,5.4-3.89,7.6-6.51C221.12,58.92,225.9,60.25,227.52,56.61 M236.359,73.5
	c-0.67,1.74,2.641,0.57,3.611,1.26C242.561,72.97,237.38,71.83,236.359,73.5 M248.279,76.22c-0.439,1.64,0.141,2.18,1.74,1.61
	C250.46,76.17,249.88,75.63,248.279,76.22 M226.061,81.3c-0.541,1.61,0.029,2.16,1.689,1.64C228.26,81.34,227.7,80.8,226.061,81.3
	 M255.12,89.39c-1.16,0.79,0.06,3.08,1.28,2.02C257.471,90.61,256.34,88.51,255.12,89.39 M260.93,94.23
	C259.51,97.3,264.221,94.31,260.93,94.23 M264.061,96.26c-0.521,1.62,0.049,2.13,1.709,1.53C266.27,96.18,265.7,95.67,264.061,96.26
	 M228.2,120.19c-0.25,3.84,0.17,7.73,1.54,11.34c1,2.04,2.13,4.05,2.199,6.39c-0.689-0.65-2.06-1.939-2.75-2.59
	c-2.529,0.13-4.689,2.26-7.399,1.24c0.58-0.92,4.13-0.971,2.31-2.17c-3.399-0.33-6.859,0.289-10.279,0.25
	c-1.08,1.24-2.57,1.51-4.48,0.81c0.42-1.521,1.471-2.55,2.811-3.25c-1.17,0.06-2.34,0.11-3.51,0.14
	c-0.361,0.891-0.711,1.771-1.07,2.66c0.609,2.301,2.47,4.48,4.68,2.1l0.66,2.23c1.98,1.221,4.14,2.25,6.49,2.44
	c-3.551,1.12-8.021-1.11-10.851,1.92c0.229,1.05-1.38,3.89,0.57,3.81c6.239-0.859,12.489-3.92,18.84-1.6
	c2.069,2.04,4.229,4.22,5.41,6.939c0.399-0.209,1.2-0.63,1.601-0.84c-0.91-2.859-1.15-6.75-4.511-7.85
	c1.53-1.4,4.069-2.13,4.74-4.23c-0.3-0.57-0.9-1.71-1.2-2.279c-0.15-1.061-0.279-2.12-0.41-3.17c-3.85-4.07-3.27-10.011-3.51-15.15
	C229.609,119.54,228.67,119.97,228.2,120.19 M218.04,126.28c0.17,0.64,0.5,1.93,0.67,2.579c-2.19-0.399-4.41,0.801-5.569,2.631
	c2.479,0.279,4.76-0.93,7.06-1.67l-1.55-0.391c0.359-0.76,0.729-1.529,1.109-2.279c1.84,0.609,4-0.92,2.84-2.851
	C221.13,125.05,219.76,126.29,218.04,126.28 M206.09,170.23c-1.359,1.22-3.99,3.05-2.39,5.09c2.42,2.949,3.85,6.72,6.989,9.039
	c2.58,2.08,5.121,4.201,7.86,6.061c1.97,1.7,5.05,1.27,7.21,0.311c3.03-2.98,5.461-6.561,8.77-9.271
	c1.521-1.05,1.781-2.96,2.341-4.569c-0.681,0-2.05,0.01-2.729,0.01c1.109-1.67,1.649-3.641,2.389-5.48
	c-0.6-0.42-1.189-0.84-1.779-1.26c-0.471,1.34-0.87,2.71-1.45,4.02c-4.01,0.04-7.19,3.5-8.42,7.07l-0.729,0.27
	c-6.021-0.939-13.801-3.989-13.971-11.17c-0.51,0.03-1.52,0.101-2.029,0.131l0.109,0.819
	C207.721,171.03,206.63,170.49,206.09,170.23 M230.25,188.22C230.471,191.51,233.23,186.63,230.25,188.22 M224.45,200.13
	c2.18-1.19,3.18-0.06,3.51,1.96c0.351-0.3,1.04-0.91,1.39-1.21c3.75-0.1,7.51-0.239,11.24-0.76c-0.09-0.33-0.279-0.97-0.369-1.3
	c-2.771-0.23-5.541-0.211-8.311-0.03C229.32,198.84,225.939,196.96,224.45,200.13 M277.58,233.05c0.16,1.73,2.98,1.48,3.1-0.12
	C280.59,231.17,277.561,231.27,277.58,233.05z"/>
<path fill="#D4D6D3" d="M236.359,73.5c1.021-1.67,6.201-0.53,3.611,1.26C239,74.07,235.689,75.24,236.359,73.5z"/>
<path fill="#D9DBD8" d="M248.279,76.22c1.601-0.59,2.181-0.05,1.74,1.61C248.42,78.4,247.84,77.86,248.279,76.22z"/>
<path fill="#BFC1BE" d="M226.061,81.3c1.64-0.5,2.199,0.04,1.689,1.64C226.09,83.46,225.52,82.91,226.061,81.3z"/>
<path fill="#070905" d="M199.779,85.51c2.75-0.18,5.58-0.26,8.23,0.63c5.01,1.7,10.37,1.93,15.391,3.64
	c2.05,1.03,4.39,0.37,6.58,0.55c5.27-0.17,10.35,2.34,15.619,0.97c1.82-0.08,3.641-0.07,5.461,0c-0.181,0.29-0.541,0.88-0.721,1.18
	c-4.63,0.83-9.52,1.72-14.14,0.38c-4.32-0.95-8.771-1.12-13.181-1.19c-6.229-0.53-12.119-3.1-18.16-4.64
	C203.7,89.99,200.721,87.15,199.779,85.51z"/>
<path fill="#000200" d="M196.59,89.95c0.21-2.17,1.48-1.39,2.21-0.11c4.22,0.68,7.87,3.02,11.921,4.22
	c-0.65,0.51-1.291,1.04-1.91,1.58c-1.58-0.8-3.17-1.56-4.761-2.32c-2.829-1.54-6.03-2.2-9.229-1.75l-0.311-1.41L196.59,89.95z"/>
<path fill="#E0E2DF" d="M245.6,91.3c1.891-1.59,4.381-2.16,6.78-1.55c1.72,0.74,1.021,2.89,1.17,4.37
	c-2.38,1.04-4.079,3.38-6.56,4.1c-8.381-0.82-16.93-1.26-24.971-3.88c0.25-0.67,0.75-2,1-2.67c4.41,0.07,8.86,0.24,13.181,1.19
	c4.62,1.34,9.51,0.45,14.14-0.38c0.18-0.3,0.54-0.89,0.721-1.18C249.24,91.23,247.42,91.22,245.6,91.3z"/>
<path fill="#D2D4D1" d="M255.12,89.39c1.22-0.88,2.351,1.22,1.28,2.02C255.18,92.47,253.96,90.18,255.12,89.39z"/>
<path fill="#F7F9F6" d="M203.45,95.64c0.2-0.78,0.39-1.55,0.6-2.32c1.591,0.76,3.181,1.52,4.761,2.32
	c-0.261,0.35-0.791,1.06-1.051,1.41c2.16,0.37,4.34,0.66,6.51,0.98c2.86,1.11,5.86,1.86,8.551,3.39c0.119,1.1,0.27,2.19,0.439,3.29
	c2.29,0.87,4.35,2.21,5.87,4.16c-1.17,0.51-2.12,1.3-2.84,2.36c0.83-0.01,2.489-0.04,3.319-0.05c1.371,0.67,2.811,1.12,4.361,1
	c0.069,0.45,0.199,1.35,0.27,1.8c-3.48-2.25-7.85-0.66-11.43-2.65c-0.561,0.6-1.11,1.21-1.65,1.83c-2.67-2.49-6.27-3.91-8.32-7.04
	c-3.39-3.46-7.619-6.01-12.119-7.76c0.17-0.7,0.52-2.11,0.699-2.81C202.09,95.57,202.77,95.6,203.45,95.64z"/>
<path fill="#070905" d="M212.16,94.3c1.58,1.13,3.25,2.13,4.949,3.07c7.451,2.27,15.48,1.45,22.871,4.04
	c2.5-0.24,5.09-1.52,7.27,0.65c-2.76,1.37-5.85,1.56-8.85,1.09c-4.48-2.65-9.93-1.49-14.791-2.87l-0.789,1.14
	c-2.69-1.53-5.69-2.28-8.551-3.39c-1.25-0.85-2.569-1.55-3.97-2.09C210.93,95.4,211.55,94.85,212.16,94.3z"/>
<path fill="#ADAFAC" d="M260.93,94.23C264.221,94.31,259.51,97.3,260.93,94.23z"/>
<path fill="#D6D8D5" d="M264.061,96.26c1.64-0.59,2.209-0.08,1.709,1.53C264.109,98.39,263.54,97.88,264.061,96.26z"/>
<path fill="#050602" d="M184.2,100.13c5.11-2.49,11-2.07,16.521-1.77c4.5,1.75,8.729,4.3,12.119,7.76
	c2.051,3.13,5.65,4.55,8.32,7.04c0.49,0.86,1.46,2.59,1.949,3.45c-2.09,0.18-3.869-1.48-5.989-0.61c-1.71,0.57-2.46-1.47-3.53-2.36
	c-1.41-0.59-2.82-1.17-4.22-1.76c0.11-0.28,0.31-0.85,0.42-1.13c0.649,0.07,1.95,0.21,2.59,0.28c-1.649-1.16-2.67-2.9-3.97-4.39
	c-1.811-1.54-3.92-2.67-5.93-3.91c-3.711,0.64-7.32-2.08-10.83-0.26c2.24,0.64,5.879-1.01,6.67,2.13c-2.84-0.18-5.69-0.16-8.521,0.2
	c-0.06-0.49-0.18-1.45-0.239-1.93c0.819,2.6-1.73,2.71-3.541,3.18c-1.359-0.59-2.81-0.77-4.279-0.58c-0.471-0.32-1.42-0.96-1.9-1.29
	c-2.04,1.93-4.07,4.12-4.6,6.98c-0.03,3.56,1.189,6.98,1.82,10.449c-2.59-1.119-4.681-3.619-4.461-6.579
	c-0.5-4.08,1.67-7.75,4.271-10.69c-1.681-0.02-3.64,0.55-4.95-0.82C175.46,100.44,180.35,102.38,184.2,100.13z"/>
<path fill="#000200" d="M264.609,99.84c1.17-0.44,2.44-0.32,3.67-0.29c0.051,0.35,0.15,1.03,0.201,1.37
	c-6.32,1.01-11.601,5.02-16.9,8.34c-2.58,1.12-4.939,2.85-7.77,3.31c-3.291,0.45-6.551-0.37-9.84-0.39
	c-1.551,0.12-2.99-0.33-4.361-1c-0.83,0.01-2.489,0.04-3.319,0.05c0.72-1.06,1.67-1.85,2.84-2.36c0.39,0.17,1.16,0.52,1.54,0.7
	c4.04,0.67,8.16,1.25,12.26,1.26C250.98,108.97,257,102.75,264.609,99.84z"/>
<path fill="#E3E5E2" d="M222.82,101.42l0.789-1.14c4.861,1.38,10.311,0.22,14.791,2.87c1.93,1.23,4,2.26,5.869,3.6
	c-4.569,1.02-9.26,1.04-13.89,0.5c0.07,0.58,0.22,1.74,0.29,2.32c-0.38-0.18-1.15-0.53-1.54-0.7c-1.521-1.95-3.58-3.29-5.87-4.16
	C223.09,103.61,222.939,102.52,222.82,101.42z"/>
<path fill="#E0E2DF" d="M251.58,109.26c5.3-3.32,10.58-7.33,16.9-8.34c0.01,1.15,0.02,2.31-0.25,3.43
	c-3.271,2.56-7.51,3.46-10.75,6.09c-2.58,2.38-6.271,2.36-9.351,3.75c-3.739,1.72-8.53-1.49-11.649,1.74
	c-0.74-0.66-1.5-1.3-2.24-1.95c-0.07-0.45-0.2-1.35-0.27-1.8c3.289,0.02,6.549,0.84,9.84,0.39
	C246.641,112.11,249,110.38,251.58,109.26z"/>
<path fill="#090C08" d="M198.721,105.6c-0.221-0.87-0.431-1.73-0.641-2.59c3.99,1.85,9.73,2.29,11.22,7.26
	c-1.63-0.79-3.17-1.74-4.71-2.68c0.65,1.68,2.25,2.42,3.76,3.14c1.78,3.3,4.57,5.85,6.58,8.99c0.66-0.3,1.98-0.91,2.65-1.21
	c-0.4,1.8-0.88,3.58-1.29,5.381c-0.61-0.721-1.84-2.15-2.46-2.871c-0.221,0.41-0.66,1.24-0.88,1.65c-1.49-0.13-2.8-0.82-4.101-1.45
	c0.351,2.341-0.97,2.39-2.619,1.74c-4.33,1.79-9.851,2.62-13.641-0.78c-1.279-1.24-2.47-2.58-3.66-3.89
	c0.93,0.1,1.86,0.22,2.78,0.37c0.42,0.59,1.24,1.77,1.66,2.37c0.18-0.181,0.53-0.54,0.71-0.72l0.73,1.459l0.979-0.08l0.86-1.52
	c-0.15,0.59-0.461,1.76-0.61,2.35c3.78,0.36,7.86,0.2,11.069-2.1c-1.01-0.24-3.039-0.71-4.049-0.95c0.42-0.3,1.27-0.88,1.689-1.17
	c-0.18-0.81-0.529-2.43-0.7-3.24c0.14-0.46,0.421-1.39,0.56-1.86c-1.289-1.5-2.199-4.24-4.609-3.96c-3.98-0.37-5.07,4.27-6.7,6.95
	c-1.409-0.08-2.729-0.45-3.97-1.11c1.09-3.2,3.51-5.64,6.48-7.16c-0.601-0.56-1.82-1.68-2.431-2.24
	C195.16,105.57,196.939,105.55,198.721,105.6 M206.471,111.96c0.359,2.27-1.191,4.14-1.421,6.34c2.45,0.79,5.62,0.78,7.06,3.32
	c0.5-0.55,1-1.09,1.511-1.63C211.779,116.81,208.439,115.04,206.471,111.96z"/>
<path fill="#ACAEAB" d="M179.09,107.39c2.73,0.26,5.45,0.54,8.18,0.83c-0.299,2.55-3.5,1.32-5.26,1.66
	C180.32,110.34,179.02,109.06,179.09,107.39z"/>
<path fill="#D2D4D1" d="M204.59,107.59c1.54,0.94,3.08,1.89,4.71,2.68c0.12,0.12,0.37,0.36,0.49,0.48
	c-0.11,0.28-0.31,0.85-0.42,1.13c1.399,0.59,2.81,1.17,4.22,1.76c1.07,0.89,1.82,2.93,3.53,2.36c2.12-0.87,3.899,0.79,5.989,0.61
	c-0.489-0.86-1.459-2.59-1.949-3.45c0.54-0.62,1.09-1.23,1.65-1.83c0.069,0.56,0.209,1.7,0.279,2.27c0.03,1.47,0.04,2.94,0.02,4.41
	c-1.859,0-3.789-0.33-5.529,0.5c-0.67,0.3-1.99,0.91-2.65,1.21c-2.01-3.14-4.8-5.689-6.58-8.99
	C206.84,110.01,205.24,109.27,204.59,107.59z"/>
<path fill="#F1F3EF" d="M189.189,109.4C192.57,109.56,187.689,112.35,189.189,109.4z"/>
<path fill="#FBFDFA" d="M193.3,116.19c1.63-2.68,2.72-7.32,6.7-6.95c2.41-0.28,3.32,2.46,4.609,3.96c-0.139,0.47-0.42,1.4-0.56,1.86
	c0.171,0.81,0.521,2.43,0.7,3.24c-1.29-0.66-2.561-1.31-3.84-1.97c0.89-1.96,1.311-4.42-0.58-5.95c-1.74,1.11-3.46,2.31-4.54,4.1
	c-0.069,0.53-0.2,1.57-0.271,2.09C194.779,116.44,194.04,116.31,193.3,116.19z"/>
<path fill="#111411" d="M209.3,110.27c0.12,0.12,0.37,0.36,0.49,0.48C209.67,110.63,209.42,110.39,209.3,110.27z"/>
<path fill="#070905" d="M195.79,114.48c1.08-1.79,2.8-2.99,4.54-4.1c1.891,1.53,1.47,3.99,0.58,5.95c-1,0.57-2.01,1.13-3.02,1.67
	C197.189,116.83,196.49,115.65,195.79,114.48z"/>
<path fill="#000200" d="M222.811,111.33c3.58,1.99,7.949,0.4,11.43,2.65c0.74,0.65,1.5,1.29,2.24,1.95l0.939,1.2l-0.05,1.66
	c-1.95-1.41-3.71-3.1-5.81-4.28c-2.82-0.38-5.681-0.36-8.471-0.91C223.02,113.03,222.88,111.89,222.811,111.33z"/>
<path fill="#D3F7F7" d="M206.471,111.96c1.969,3.08,5.309,4.85,7.149,8.03c-0.511,0.54-1.011,1.08-1.511,1.63
	c-1.439-2.54-4.609-2.53-7.06-3.32C205.279,116.1,206.83,114.23,206.471,111.96z"/>
<path fill="#BAE2DF" d="M189.33,115.08c1.24,0.66,2.561,1.03,3.97,1.11c-0.53,0.82-1.06,1.65-1.59,2.47
	c-0.92-0.15-1.851-0.27-2.78-0.37c1.19,1.31,2.381,2.649,3.66,3.89c-1.42,2.07-3.199,4.2-5.949,3.18
	c0.27-2.459,0.459-4.939,0.319-7.409c0.649-0.66,1.29-1.32,1.931-1.99C189,115.74,189.221,115.3,189.33,115.08z"/>
<path fill="#688A88" d="M195.79,114.48c0.7,1.17,1.399,2.35,2.101,3.52c1.01-0.54,2.02-1.1,3.02-1.67
	c1.279,0.66,2.55,1.31,3.84,1.97c-0.42,0.29-1.27,0.87-1.689,1.17c-2.971-0.41-6.951-2.49-8.98,0.84c-0.18,0.18-0.53,0.54-0.71,0.72
	c-0.42-0.6-1.24-1.78-1.66-2.37c0.53-0.82,1.06-1.65,1.59-2.47c0.74,0.12,1.479,0.25,2.22,0.38
	C195.59,116.05,195.721,115.01,195.79,114.48z"/>
<path fill="#EAEDF0" d="M194.08,120.31c2.029-3.33,6.01-1.25,8.98-0.84c1.01,0.24,3.039,0.71,4.049,0.95
	c-3.209,2.3-7.289,2.46-11.069,2.1c0.149-0.59,0.46-1.76,0.61-2.35l-0.86,1.52l-0.979,0.08L194.08,120.31z"/>
<path fill="#070905" d="M228.2,120.19c0.47-0.22,1.409-0.65,1.88-0.86c0.24,5.14-0.34,11.08,3.51,15.15
	c0.131,1.05,0.26,2.109,0.41,3.17c-0.68,0.819-1.359,1.64-2.04,2.459c-1.649-0.629-3.29-1.27-4.92-1.939
	c-1.011,0.4-2.021,0.8-3.021,1.21c-1.74-0.62-3.399-1.43-4.91-2.5c-1.389-0.021-2.77-0.03-4.149-0.03
	c-0.51,0.62-1.54,1.87-2.05,2.49l-0.66-2.23c-2.21,2.381-4.07,0.201-4.68-2.1c0.359-0.89,0.709-1.77,1.07-2.66
	c1.17-0.029,2.34-0.08,3.51-0.14c-1.34,0.7-2.391,1.729-2.811,3.25c1.91,0.7,3.4,0.431,4.48-0.81c3.42,0.039,6.88-0.58,10.279-0.25
	c1.82,1.199-1.729,1.25-2.31,2.17c2.71,1.02,4.87-1.11,7.399-1.24c0.69,0.65,2.061,1.939,2.75,2.59
	c-0.069-2.34-1.199-4.35-2.199-6.39C228.37,127.92,227.95,124.03,228.2,120.19z"/>
<path fill="#565856" d="M252.76,126.27c-3.51-0.34,0.551-3.359,2.23-3.199C254.58,124.33,253.811,125.45,252.76,126.27z"/>
<path fill="#070905" d="M218.04,126.28c1.72,0.01,3.09-1.23,4.56-1.98c1.16,1.931-1,3.46-2.84,2.851
	c-0.38,0.75-0.75,1.52-1.109,2.279l1.55,0.391c-2.3,0.74-4.58,1.949-7.06,1.67c1.159-1.83,3.379-3.03,5.569-2.631
	C218.54,128.21,218.21,126.92,218.04,126.28z"/>
<path fill="#B2E2DF" d="M252.76,126.27c0.48,0.051,1.42,0.15,1.891,0.2c-3.051,2.15-2.18,5.97-2.16,9.16
	c0.82,0.04,2.449,0.11,3.27,0.15L254.9,134l0.64,0.311c1.489,0.489,3.01,0.83,4.56,1.109c0.061,0.52,0.18,1.57,0.24,2.1
	c1.35-0.39,2.71-0.779,4.08-1.1c0.4,0.52,1.189,1.55,1.58,2.061l0.71,0.91c-3.101,1.01-6.46,1.279-9.66,0.59
	c-0.239,0.3-0.71,0.91-0.94,1.22c-1.979-1.091-3.969-2.23-6.209-2.66c0.42-0.29,1.26-0.87,1.68-1.16l-0.07-0.92
	c0.09-1.43,0.25-2.851,0.43-4.271c-1.59,2.99-4.949,1.82-7.629,1.601c0.02-0.61,0.06-1.83,0.08-2.44
	c1.319-0.109,2.639-0.149,3.959-0.199c1.521-1.891,3.33-3.49,5.43-4.69L252.76,126.27z"/>
<path fill="#F7F9F6" d="M257.391,128.21c1.489,0.351,2.969,0.7,4.459,1.08c1.121-0.47,2.211-1.521,3.541-0.66
	c0.59,1.24-1.341,1.57-1.99,2.25c1.149,0.33,1.82,1.05,2,2.181c-0.94,1.199-1.94,2.369-2.93,3.539
	c-0.781-0.539-1.561-1.069-2.33-1.6l2.1-0.29c0.52-2.96-1.23-5.26-4.311-4.86c-1,1.37-1.81,2.87-2.39,4.461L254.9,134
	C253.689,131.83,256.42,129.939,257.391,128.21z"/>
<path fill="#0F0C11" d="M257.93,129.85c3.08-0.399,4.83,1.9,4.311,4.86l-2.1,0.29c0.77,0.53,1.549,1.061,2.33,1.6
	c0.989-1.17,1.989-2.34,2.93-3.539c0.42,1.77,0.56,3.6,0.6,5.42c-0.391-0.511-1.18-1.541-1.58-2.061c-1.37,0.32-2.73,0.71-4.08,1.1
	c-0.061-0.529-0.18-1.58-0.24-2.1c-1.55-0.279-3.07-0.62-4.56-1.109C256.12,132.72,256.93,131.22,257.93,129.85z"/>
<path fill="#E7E9E6" d="M170.99,135.26c1.99,0.891,4.08,1.59,6.289,1.65c-0.059,1.66-0.139,3.33-0.199,5
	c1.32-0.17,2.65-0.33,3.99-0.49c1.72,1.75,3.42,3.61,5.63,4.78c5.149,2.71,10.21,5.69,14.771,9.3c2.379,1.65,1.059,4.8,1.209,7.189
	c-2.619,1.201-5.33,2.19-8.09,2.98c-3.029,3.7-5.25,8.42-3.779,13.27c-2.031-2.85-4.11-5.659-6.69-8.039
	c-1.74-1.471-1.55-4.301-0.36-6.051c2.73-1.039,6.12-1.02,7.84-3.8c-5.6-9.3-19.729-7.989-24.6-17.94
	C164.99,139.6,168.91,137.4,170.99,135.26z"/>
<path fill="#0A0C08" d="M247.85,135.939c0.521-0.229,1.561-0.689,2.08-0.92c0.4,0.36,1.18,1.08,1.58,1.44l0.07,0.92
	c-0.42,0.29-1.26,0.87-1.68,1.16c2.24,0.43,4.229,1.569,6.209,2.66c0.23-0.31,0.701-0.92,0.94-1.22c3.2,0.689,6.56,0.42,9.66-0.59
	c0.92,0.34,1.851,0.659,2.79,0.959c-5.87,0.851-12.279,4.311-17.95,0.99c-2.11-0.99-3.59-2.779-4.12-5.07L247.85,135.939z"/>
<path fill="#D2D4D1" d="M212.91,139.34c0.51-0.62,1.54-1.87,2.05-2.49c1.38,0,2.761,0.01,4.149,0.03c1.511,1.07,3.17,1.88,4.91,2.5
	c1-0.41,2.01-0.81,3.021-1.21c1.63,0.67,3.271,1.311,4.92,1.939c0.681-0.819,1.36-1.64,2.04-2.459c0.3,0.569,0.9,1.709,1.2,2.279
	c-0.671,2.101-3.21,2.83-4.74,4.23c-3.33-1.891-7.22-3.17-11.06-2.38C217.05,141.59,214.891,140.561,212.91,139.34z"/>
<path fill="#C9CCC8" d="M245.13,138.29c0.761-0.69,1.521-1.36,2.3-2.021c0.53,2.291,2.01,4.08,4.12,5.07
	c5.671,3.32,12.08-0.14,17.95-0.99l0.3-0.039c-0.17,1.22-0.31,2.439-0.42,3.67c-0.92-0.5-1.851-0.99-2.771-1.49
	c-1.049,1.279-1.859,2.72-2.449,4.26c-3.061-0.061-6.141-0.1-9.18-0.49c-2.74-0.17-4.711-2.33-6.931-3.67
	C246.38,141.72,245.84,139.88,245.13,138.29z"/>
<path fill="#747674" d="M158.06,142.34c1.37-0.34,1.86,0.19,1.49,1.57C158.15,144.28,157.65,143.76,158.06,142.34z"/>
<path fill="#030601" d="M208.55,143.7c2.83-3.03,7.3-0.8,10.851-1.92c3.84-0.79,7.729,0.489,11.06,2.38
	c3.36,1.1,3.601,4.99,4.511,7.85c-0.4,0.21-1.201,0.631-1.601,0.84c-1.181-2.72-3.341-4.899-5.41-6.939
	c-6.351-2.32-12.601,0.74-18.84,1.6C207.17,147.59,208.779,144.75,208.55,143.7z"/>
<path fill="#CCCECB" d="M206.09,170.23c0.54,0.26,1.631,0.8,2.17,1.069c0.26,4.78,4.17,8.32,8.391,9.95
	c3.35,1.29,7.3,3.25,10.75,1.18c2.82-1.05,4.729-3.42,6.74-5.529c0.68,0,2.049-0.01,2.729-0.01c-0.56,1.609-0.82,3.52-2.341,4.569
	c-3.309,2.71-5.739,6.29-8.77,9.271c-2.16,0.959-5.24,1.39-7.21-0.311c-2.739-1.859-5.28-3.98-7.86-6.061
	c-3.14-2.319-4.569-6.09-6.989-9.039C202.1,173.28,204.73,171.45,206.09,170.23z"/>
<path fill="#111411" d="M208.15,170.48c0.51-0.03,1.52-0.101,2.029-0.131c0.17,7.181,7.95,10.23,13.971,11.17l0.729-0.27
	c3.74-0.95,6.75-3.641,8.42-7.07c0.58-1.31,0.979-2.68,1.45-4.02c0.59,0.42,1.18,0.84,1.779,1.26
	c-0.739,1.84-1.279,3.811-2.389,5.48c-2.011,2.109-3.92,4.479-6.74,5.529c-3.45,2.07-7.4,0.11-10.75-1.18
	c-4.221-1.63-8.131-5.17-8.391-9.95L208.15,170.48z"/>
<path fill="#C4C6C3" d="M224.88,181.25c1.229-3.57,4.41-7.03,8.42-7.07C231.63,177.609,228.62,180.3,224.88,181.25z"/>
<path fill="#CCCECB" d="M168.05,178.87c6.979,0.63,12.81,5.72,17.07,10.93c5.47-1.399,10.94,1.271,16.05,2.97
	c5.95,2.66,12.79,3.99,17.73,8.44c2.58,0.39,5.22,0.81,7.52,2.13c-2.13,1.03-4.26,2.061-6.41,3.051
	c-3.9-1.311-8.02-0.201-12.01-0.631c-3.16-0.47-5.91-2.33-9.05-2.869c-3.9,0.899-7.171,3.5-10.45,5.689
	c-1.24-0.79-2.49-1.59-3.74-2.36c-0.8,4.28,3.78,5.46,6.61,7.261c-0.021,1.35-0.33,2.76,0.101,4.09
	c1.459,0.16,2.939,0.09,4.409,0.039c0.29,5.121-1.649,10.021-1.55,15.121c-0.07,1.42,0.91,2.55,1.54,3.739
	c-0.04,0.681-0.11,2.061-0.149,2.75c32.84,0.261,65.689-0.01,98.529,0.11l0.7,0.67H149.18c-0.1-1.73-0.2-3.46-0.22-5.189
	c0.8-6.201,0.48-12.591,2.26-18.65c0.84-2.03,1.45-4.12,1.53-6.32c0.73-0.99,1.53-1.92,2.06-3.029
	C159.13,197.45,163.971,188.34,168.05,178.87 M177.84,186.09c0.33-1.65-1.779-2.939-3.09-3.51
	C173.33,183.891,176.641,185.93,177.84,186.09 M163.34,215.27C163.88,215.859,163.88,215.859,163.34,215.27 M159.34,220.17
	C159.87,220.73,159.87,220.73,159.34,220.17 M154.17,225.29c-0.43,1.45,0.04,1.88,1.42,1.3
	C156.02,225.141,155.55,224.71,154.17,225.29 M164.221,230.23c-0.561,1.609-0.011,2.17,1.629,1.689
	C166.41,230.311,165.859,229.75,164.221,230.23z"/>
<path fill="#111411" d="M177.84,186.09c-1.199-0.16-4.51-2.199-3.09-3.51C176.061,183.15,178.17,184.439,177.84,186.09z"/>
<path fill="#CFD1CE" d="M230.25,188.22C233.23,186.63,230.471,191.51,230.25,188.22z"/>
<path fill="#000200" d="M224.45,200.13c1.489-3.17,4.87-1.29,7.46-1.34c2.77-0.181,5.54-0.2,8.311,0.03
	c0.09,0.33,0.279,0.97,0.369,1.3c-3.73,0.521-7.49,0.66-11.24,0.76c-0.35,0.3-1.039,0.91-1.39,1.21
	C227.63,200.07,226.63,198.939,224.45,200.13z"/>
<path fill="#E7E9E6" d="M188.5,208.58c3.279-2.189,6.55-4.79,10.45-5.689c3.14,0.539,5.89,2.399,9.05,2.869
	c3.99,0.43,8.109-0.68,12.01,0.631c2.15-0.99,4.28-2.021,6.41-3.051c0.801,1,1.57,2.03,2.32,3.08c-1.391,0.939-2.74,1.95-4.061,3
	c-1.189-0.02-2.369-0.05-3.56-0.08c-0.25,1.641-0.399,3.301-0.851,4.9c-3.129,1.81-6.939,2.06-9.949,4.13
	c-1.971,1.39-3.131,3.569-4.4,5.56c-2.74,4.62-6.25,8.75-10.05,12.54c-0.63-1.189-1.61-2.319-1.54-3.739
	c-0.1-5.101,1.84-10,1.55-15.121c-1.47,0.051-2.95,0.121-4.409-0.039c-0.431-1.33-0.121-2.74-0.101-4.09
	c-2.83-1.801-7.41-2.98-6.61-7.261C186.01,206.99,187.26,207.79,188.5,208.58z"/>
<path fill="#6C6D6B" d="M163.34,215.27C163.88,215.859,163.88,215.859,163.34,215.27z"/>
<path fill="#949694" d="M159.34,220.17C159.87,220.73,159.87,220.73,159.34,220.17z"/>
<path fill="#F7F9F6" d="M137.62,233.53c4.05-2.841,7.15-6.65,10.13-10.54c-0.24,5.57-1.6,11.05-1.24,16.65l1.93,0.029
	c0.12-1.63,0.25-3.25,0.52-4.859c0.02,1.729,0.12,3.459,0.22,5.189h-3.02c-0.8-3.7-0.18-7.45,0.73-11.061
	C143.78,230.48,141.46,234.13,137.62,233.53z"/>
<path fill="#ADAFAC" d="M154.17,225.29c1.38-0.58,1.85-0.149,1.42,1.3C154.21,227.17,153.74,226.74,154.17,225.29z"/>
<path fill="#CCCECB" d="M137.62,233.53c3.84,0.6,6.16-3.05,9.27-4.591c-0.91,3.61-1.53,7.36-0.73,11.061h-17.24
	C132.2,238.391,134.94,235.95,137.62,233.53z"/>
<path fill="#ADAFAC" d="M164.221,230.23c1.639-0.48,2.189,0.08,1.629,1.689C164.21,232.4,163.66,231.84,164.221,230.23z"/>
<path fill="#111411" d="M277.58,233.05c-0.02-1.78,3.01-1.88,3.1-0.12C280.561,234.53,277.74,234.78,277.58,233.05z"/>
</svg>
