<?xml version="1.0" encoding="utf-8"?>
<!-- Generator: Adobe Illustrator 15.0.2, SVG Export Plug-In . SVG Version: 6.00 Build 0)  -->
<!DOCTYPE svg PUBLIC "-//W3C//DTD SVG 1.1//EN" "http://www.w3.org/Graphics/SVG/1.1/DTD/svg11.dtd">
<svg version="1.1" id="Layer_1" xmlns="http://www.w3.org/2000/svg" xmlns:xlink="http://www.w3.org/1999/xlink" x="0px" y="0px"
	 width="325px" height="240px" viewBox="0 0 325 240" enable-background="new 0 0 325 240" xml:space="preserve">
<path d="M0,0h325v240h-46.641c-1.26-3.061-2.199-6.37-4.51-8.84c-6.58-6.74-9.3-16.32-16.14-22.85
	c-4.601-3.08-9.21-6.141-13.989-8.92c-5.611-6.531-10.621-13.58-15.891-20.4c4.46,5.58,10.23,9.979,14.3,15.88
	c3.19-2.99,6.521-5.92,10.61-7.59c-2.33-0.62-4.58-1.48-6.69-2.63c3.87,0.09,8.21,1.58,11.72-0.75
	c4.41-2.791,6.181-7.98,8.59-12.351c4-1.19,7.631-3.27,11.25-5.3c0.051-1.46,0.101-2.92,0.15-4.37
	c-5.77,0.74-11.529,1.91-16.96,4.03c1.21-1.32,2.07-3.48,4.14-3.53c4.23-0.569,8.49-1.05,12.641-2.11
	c0.87-2.31,1.76-4.619,2.65-6.92c0.039-2.63,0.33-5.25,0.959-7.8c0.181,1.8,0.33,3.601,0.49,5.4c5.33-1.341,10.4,1.85,15.73,0.83
	c0.26-6.74,0.699-13.8,4.16-19.761c-0.6,0.121-1.801,0.381-2.4,0.5l-0.29-2.319c-1.729,1.55-3.46,3.09-5.21,4.61
	c-3.41-0.051-6.811-0.021-10.21,0.06c3.8-3.19,8.58-5.37,13.64-4.55c0.94-0.461,1.891-0.93,2.84-1.4
	c0.551,0.86,1.11,1.721,1.681,2.59c1.37-2.64,2.729-5.27,4.17-7.859c-3.46,1.59-6.97,3.119-10.62,4.22
	c-4.6-3.59-8.699,2.51-12.58,4.46c1.21-1.891,2.35-4.04,4.4-5.16c3.449-1.96,7.5-2.25,11.18-3.57c4.1-1.25,7.74-3.669,11.92-4.7
	c2.061-0.76,4.84-0.82,5.93-3.06c1.4-2.59,2.07-5.48,2.801-8.3c1.529-5.47-1.07-10.97-0.511-16.51c-0.359-9.33,1.16-18.8-0.96-27.99
	c-0.859-4.6-1.1-9.54-3.779-13.55c-5.29-8.19-10.961-16.15-17.221-23.63c-2.479-2.64-5.689-4.44-8.6-6.56
	c-3.24-2.42-7.57-2.08-11.05-3.97c-4.39-2.34-8.86-4.76-13.841-5.58c-7.59-1.11-15.27-2.2-22.959-1.55
	c-2.03,0.11-3.78,1.24-5.541,2.12c-4.069,2.22-8.84,3.43-11.909,7.14c-4.181,4.86-10.091,7.85-13.91,13.04
	c-3.03,4-7.399,6.87-9.71,11.42c-3.4,6.38-7.641,12.26-11.4,18.42c-4.24,6.91-0.16,15.24-2.479,22.61
	c-3.229,10.86-4.2,22.29-8.13,32.94c-2.95,5.61-5.49,11.54-9.45,16.54c-2.53,2.221-5.48,3.94-7.96,6.26
	c-1.44,1.461-3.51,1.851-5.41,2.36c-7.99,1.87-14.25,7.72-22.01,10.181c-5.57,1.699-11.78-0.221-17.12,2.489
	c-4.3,1.99-8.53,4.271-12.03,7.511c-0.42,0.18-1.26,0.539-1.69,0.72c-1.39,2.87-2.75,5.93-5.35,7.94
	c-7.03,5.439-10.72,13.819-16.59,20.319c-8.53,8.82-9.15,21.83-9.69,33.39c0.22,5.541-1.85,10.86-1.62,16.4H0V0z"/>
<path fill="#5B5B5B" d="M234.359,10.32c1.761-0.88,3.511-2.01,5.541-2.12c7.689-0.65,15.369,0.44,22.959,1.55
	c4.98,0.82,9.451,3.24,13.841,5.58c3.479,1.89,7.81,1.55,11.05,3.97c2.91,2.12,6.12,3.92,8.6,6.56
	c6.26,7.48,11.931,15.44,17.221,23.63c2.68,4.01,2.92,8.95,3.779,13.55c2.12,9.19,0.601,18.66,0.96,27.99
	c-0.56,5.54,2.04,11.04,0.511,16.51c-0.73,2.82-1.4,5.71-2.801,8.3c-1.09,2.24-3.869,2.3-5.93,3.06c-4.18,1.03-7.82,3.45-11.92,4.7
	c-3.68,1.32-7.73,1.61-11.18,3.57c-2.051,1.12-3.19,3.27-4.4,5.16c3.881-1.95,7.98-8.05,12.58-4.46c3.65-1.101,7.16-2.63,10.62-4.22
	c-1.44,2.59-2.8,5.22-4.17,7.859c-0.57-0.869-1.13-1.729-1.681-2.59c-0.949,0.471-1.899,0.939-2.84,1.4
	c-5.06-0.82-9.84,1.359-13.64,4.55c3.399-0.08,6.8-0.11,10.21-0.06c1.75-1.521,3.48-3.061,5.21-4.61l0.29,2.319
	c0.6-0.119,1.801-0.379,2.4-0.5c-3.461,5.961-3.9,13.021-4.16,19.761c-5.33,1.02-10.4-2.171-15.73-0.83
	c-0.16-1.8-0.31-3.601-0.49-5.4c-0.629,2.55-0.92,5.17-0.959,7.8c-0.891,2.301-1.78,4.61-2.65,6.92
	c-4.15,1.061-8.41,1.541-12.641,2.11c-2.069,0.05-2.93,2.21-4.14,3.53c5.431-2.12,11.19-3.29,16.96-4.03
	c-0.05,1.45-0.1,2.91-0.15,4.37c-3.619,2.03-7.25,4.109-11.25,5.3c-2.409,4.37-4.18,9.56-8.59,12.351
	c-3.51,2.33-7.85,0.84-11.72,0.75c2.11,1.149,4.36,2.01,6.69,2.63c-4.09,1.67-7.42,4.6-10.61,7.59c-4.069-5.9-9.84-10.3-14.3-15.88
	c5.27,6.82,10.279,13.869,15.891,20.4c4.779,2.779,9.389,5.84,13.989,8.92c6.84,6.529,9.56,16.109,16.14,22.85
	c2.311,2.47,3.25,5.779,4.51,8.84H67.9c-0.23-5.54,1.84-10.859,1.62-16.4c0.54-11.56,1.16-24.569,9.69-33.39
	c5.87-6.5,9.56-14.88,16.59-20.319c2.6-2.011,3.96-5.07,5.35-7.94c0.43-0.181,1.27-0.54,1.69-0.72c3.5-3.24,7.73-5.521,12.03-7.511
	c5.34-2.71,11.55-0.79,17.12-2.489c7.76-2.461,14.02-8.311,22.01-10.181c1.9-0.51,3.97-0.899,5.41-2.36
	c2.48-2.319,5.43-4.039,7.96-6.26c3.96-5,6.5-10.93,9.45-16.54c3.93-10.65,4.9-22.08,8.13-32.94c2.319-7.37-1.761-15.7,2.479-22.61
	c3.76-6.16,8-12.04,11.4-18.42c2.311-4.55,6.68-7.42,9.71-11.42c3.819-5.19,9.729-8.18,13.91-13.04
	C225.52,13.75,230.29,12.54,234.359,10.32 M281.76,145.189c1.19-0.68,2.37-1.409,3.54-2.129c1.7,0.319,3.4,0.64,5.12,0.899
	C287.98,140.87,283.471,141.93,281.76,145.189z"/>
<path d="M281.76,145.189c1.711-3.26,6.221-4.319,8.66-1.229c-1.72-0.26-3.42-0.58-5.12-0.899
	C284.13,143.78,282.95,144.51,281.76,145.189z"/>
</svg>
