<?xml version="1.0" encoding="utf-8"?>
<!-- Generator: Adobe Illustrator 15.0.2, SVG Export Plug-In . SVG Version: 6.00 Build 0)  -->
<!DOCTYPE svg PUBLIC "-//W3C//DTD SVG 1.1//EN" "http://www.w3.org/Graphics/SVG/1.1/DTD/svg11.dtd">
<svg version="1.1" id="Layer_1" xmlns="http://www.w3.org/2000/svg" xmlns:xlink="http://www.w3.org/1999/xlink" x="0px" y="0px"
	 width="132px" height="132px" viewBox="0 0 132 132" enable-background="new 0 0 132 132" xml:space="preserve">
<path fill="#FFFFFF" d="M0,0h132v132H0V0 M40.84,5.26c-3.48,0.35-6.98,0.08-10.47,0.13c-0.27,0.46-0.81,1.39-1.08,1.85
	c-6.21,1.92-12.56,5.91-14.59,12.44c-2.28,3-3.05,6.75-4.79,10.05c-2.39,4.74-1.68,10.13-1.88,15.25c0.13,8.71-0.16,17.42,0,26.129
	c0,1.57,0.8,2.98,1.3,4.44c3.01,4.88,5.63,10.2,6.49,15.931c-0.06,0.68-0.17,2.029-0.23,2.709c1.99,5.391,5.29,10.19,7.07,15.641
	c5.69,5.63,11.08,11.54,17.49,16.41c5.87,0.99,11.48,3.16,17.38,3.979c5.25,0.091,9.56-2.78,14.09-5
	c2.19-2.05,4.239-4.28,6.739-5.989c3.91-4.791,9.021-8.75,11.33-14.67c2.041-3.98,3.74-8.121,5.721-12.121
	C95.34,86.48,97.77,80.9,98.359,75.03c0.061-8.171,0.591-16.69-2.119-24.5c-0.561-5.01-3.051-9.43-5-13.98
	c-0.93-2.98-2.32-5.81-3.04-8.87c-1.181-6.53-6.12-11.35-10.05-16.37c-0.45-0.06-1.351-0.17-1.801-0.22
	C71.91,7.82,66.95,5.45,62.16,2.76C57.45,2.37,52.72,2.63,48,2.59C45.36,2.58,43.24,4.44,40.84,5.26 M103.99,112.38
	c0.09,2.24,0.109,4.479,0.14,6.72l0.261,0.811c0.399-0.07,1.209-0.21,1.609-0.28l0.46,0.8c0.149-0.76,0.46-2.279,0.61-3.039
	c0.459,0.409,1.4,1.209,1.859,1.619c0.311,2.94,5.18,0.051,1.95-1.04c-0.56-1.12-0.96-2.3-1.2-3.52c2.18,1.36,2.271-2.92,0.021-1.46
	c-0.61,0.3-1.82,0.9-2.431,1.199l-0.129-0.069c-0.201-1.511-0.58-2.979-1.4-4.271C105.109,110.65,103.91,111.2,103.99,112.38
	 M92.779,115.04c-0.77,5.851,9.73,6.91,9.971,1.01c0.71-3.12-2.21-4.92-4.71-5.79C95.609,111.061,92.66,111.88,92.779,115.04
	 M114.32,113.07c-0.32,0.399-0.961,1.199-1.28,1.59c0.44,0.22,1.31,0.64,1.75,0.859c-1.12,1.17-1.83,2.551-1.78,4.2
	c2.561,0.12,5.12,0.15,7.68,0.29c-0.25-2.279-0.6-4.55-0.989-6.81C117.9,113.109,116.109,113.05,114.32,113.07 M121.8,112.92
	c0.97,2.561,2.08,5.1,2.54,7.83c-0.64,0.311-1.91,0.93-2.55,1.23c1.31,0.779,3.09,1.55,4.29,0.149c1.34-2.09,1.91-4.55,2.87-6.819
	c0.1-0.551,0.29-1.65,0.38-2.201c-1.25-0.619-2.1-0.25-2.54,1.121l-0.06-0.24c-0.32,0.79-0.971,2.369-1.301,3.16
	c-0.25-0.98-0.75-2.94-1-3.92C123.77,113.15,122.46,112.99,121.8,112.92z"/>
<path fill="#020202" d="M40.84,5.26c2.4-0.82,4.52-2.68,7.16-2.67c4.72,0.04,9.45-0.22,14.16,0.17c4.79,2.69,9.75,5.06,14.189,8.33
	c0.45,0.05,1.351,0.16,1.801,0.22c3.93,5.02,8.869,9.84,10.05,16.37c0.72,3.06,2.11,5.89,3.04,8.87c1.949,4.55,4.439,8.97,5,13.98
	c2.71,7.81,2.18,16.329,2.119,24.5c-0.59,5.87-3.02,11.45-2.949,17.409c-1.98,4-3.68,8.141-5.721,12.121
	c-2.31,5.92-7.42,9.879-11.33,14.67c-2.5,1.709-4.549,3.939-6.739,5.989c-4.53,2.22-8.84,5.091-14.09,5
	c-5.9-0.819-11.51-2.989-17.38-3.979c-6.41-4.87-11.8-10.78-17.49-16.41c-1.78-5.45-5.08-10.25-7.07-15.641
	c0.06-0.68,0.17-2.029,0.23-2.709c-0.86-5.73-3.48-11.051-6.49-15.931c-0.5-1.46-1.3-2.87-1.3-4.44C7.87,62.4,8.16,53.69,8.03,44.98
	c0.2-5.12-0.51-10.51,1.88-15.25c1.74-3.3,2.51-7.05,4.79-10.05c2.03-6.53,8.38-10.52,14.59-12.44c0.27-0.46,0.81-1.39,1.08-1.85
	C33.86,5.34,37.36,5.61,40.84,5.26 M41.52,7.41c-4.6,0.28-9.46-0.18-13.36,2.85c-3.78,0.33-6.46,3.47-9.01,5.93
	c-3.87,6.77-6.98,13.96-9.52,21.32c-0.28,9.5,0,19.021-0.14,28.53c-0.2,3.38,1.06,6.649,2.75,9.521
	c2.4,3.789,3.47,8.199,4.96,12.379c1.08,7.791,4.69,14.891,8.27,21.791c2.41,1.85,4.78,3.819,6.25,6.55
	c0.83,0.479,1.66,0.97,2.49,1.46c1.98,1.91,4,3.79,5.99,5.689c6.72,3.271,14.42,4.32,21.83,4.01c7-1.909,12.031-7.51,17.041-12.42
	c3.189-3.77,6.93-7.18,9.06-11.729c0.99-4.44,3.479-8.3,5.39-12.37c0.69-5.02,1.811-9.97,2.471-15c0.71-7.59-0.19-15.21-0.65-22.78
	c-2.84-8.47-7.04-16.42-9.08-25.17c-1.48-4.03-4.199-7.38-6.119-11.18c-2.631-2.85-5.92-5.06-9.41-6.72
	c-3.83-2.1-7.59-4.46-11.86-5.53C52.94,3.85,46.66,4.08,41.52,7.41z"/>
<path fill="#FFFFFF" d="M41.52,7.41c5.14-3.33,11.42-3.56,17.35-2.87c4.27,1.07,8.03,3.43,11.86,5.53
	c3.49,1.66,6.779,3.87,9.41,6.72c1.92,3.8,4.639,7.15,6.119,11.18c2.04,8.75,6.24,16.7,9.08,25.17c0.46,7.57,1.36,15.19,0.65,22.78
	c-0.66,5.03-1.78,9.98-2.471,15c-1.91,4.07-4.399,7.93-5.39,12.37c-2.13,4.55-5.87,7.96-9.06,11.729
	c-5.01,4.91-10.041,10.511-17.041,12.42c-7.41,0.311-15.11-0.739-21.83-4.01c-1.99-1.899-4.01-3.779-5.99-5.689
	c-0.83-0.49-1.66-0.98-2.49-1.46c-1.47-2.73-3.84-4.7-6.25-6.55c-3.58-6.9-7.19-14-8.27-21.791c-1.49-4.18-2.56-8.59-4.96-12.379
	c-1.69-2.871-2.95-6.141-2.75-9.521c0.14-9.51-0.14-19.03,0.14-28.53c2.54-7.36,5.65-14.55,9.52-21.32c2.55-2.46,5.23-5.6,9.01-5.93
	C32.06,7.23,36.92,7.69,41.52,7.41 M35.7,27.09c4.68,4.77,12.9,6.22,18.56,2.34c-3.6-0.05-7.26,1.48-10.79,0.28
	C40.84,28.93,38.31,27.91,35.7,27.09 M26.05,30.98c2.63,0.49,5.27,1.08,7.74,2.14c1.26,0.73,2.76,0.38,4.14,0.47
	c4.51,1.4,9.58,0.17,14.04,2.13c1.35,0.96,2.85-0.38,4.22-0.64c1.71-0.88,4.3-0.93,4.88-3.12c-0.59,0.33-1.77,0.98-2.36,1.31
	c-5.7,2.62-11.77,0.31-17.68,0.08c-1.34,0.09-2.32-0.98-2.92-2.04c-0.17,1.38-0.79,1.87-1.87,1.46c-0.21-0.3-0.63-0.91-0.84-1.22
	c-2.05-0.25-4.26-0.07-6.06-1.26C28.24,30.51,27.14,30.74,26.05,30.98 M22.2,37.05c0.29,2.23,3.21,1.94,4.88,2.53
	c3.47,0.22,7.77,1.76,10.75-0.62c-2.98-0.22-5.98-0.21-8.95-0.57c5.32-0.16,10.66-0.16,15.97,0.19c5.39,1.55,11.04,3.07,16.69,1.93
	c2.23-0.56,5.21-1.24,4.78-4.24c-1.66,0.71-3.28,1.53-4.83,2.48c-5.28,0.92-10.74,0.44-15.72-1.57c-5.63-0.79-11.49,0.66-17.03-1.04
	C26.56,36.39,24.28,36.26,22.2,37.05 M33.54,43.54c0.03,1.58,0.06,3.15,0.11,4.72c-3.21-0.87-4.62,2.96-7.69,2.93
	c-3.2,0.39-7.42,2.03-7.48,5.82c-0.34,2.43,1.69,4.03,3.44,5.26c0.57,1,1.15,2,1.77,2.96c-0.12-0.72-0.36-2.16-0.48-2.88
	c0.75,0,2.25,0,2.99,0c0.56,0.71,1.12,1.43,1.67,2.15c0.65,0.15,1.96,0.47,2.61,0.63c-1.58,0.92-3.19,1.771-4.78,2.67
	c1.68-0.21,3.37-0.43,5.05-0.67c-0.16,0.851-0.47,2.55-0.63,3.4c1.23-1.58,2.53-3.15,3.38-4.98c0.34-2.37,0.17-4.77,0.17-7.15
	c-0.21-0.2-0.61-0.6-0.81-0.8c1.19-2.11,1.31-4.51,1.06-6.88l0.38-0.229c0.39-2.11,0.69-4.26,0.16-6.38
	c0.71,0.06,2.13,0.19,2.84,0.26C36.11,43.85,34.82,43.69,33.54,43.54 M45.26,42.7c0,1.24,0.02,2.48,0.05,3.72
	c0.6-0.04,1.81-0.12,2.41-0.16c0.66,1.58,2.11,2.95,1.83,4.82c0.45,0.25,1.34,0.76,1.78,1.01c-2.37,0.76-1.18,3.76-1.7,5.59
	c0.6-0.23,1.78-0.67,2.37-0.9l-0.8,2.02c0.69,0.57,1.39,1.13,2.11,1.68c-0.01-0.84-0.03-2.51-0.04-3.34
	c2.05,0.35,5.05-0.86,6.12,1.55c-1.83,0.11-3.65,0.17-5.48,0.23c-0.13,1.33-0.29,2.65-0.49,3.97c-0.27-0.1-0.81-0.29-1.09-0.39
	L53,60.53c-0.7,0.08-2.1,0.25-2.81,0.33c1.16,2.07,5.08,5.17,1.86,7.121c1.33,1.619,2.95,2.97,4.69,4.129
	c-0.97-1.569-2.12-3.01-3.39-4.35L55.3,67.4l-0.35,2.09c0.65-0.36,1.93-1.07,2.57-1.43c0.5,0.299,1.49,0.89,1.98,1.189
	c-0.29-1.38-2.43-2.74-1.78-4.16c1.7-0.06,3.5,0.44,5.13-0.19c1.73-1.03,2.45-3,3.41-4.65c0.721-3.45-0.86-7.37-4.4-8.5
	c-3.38-0.27-6.64-1.36-9.61-2.98c-0.48,0.21-0.97,0.42-1.45,0.63c-0.79-1.23-1.6-2.44-2.42-3.66c-0.54-0.01-1.61-0.04-2.15-0.05
	C45.99,44.94,45.5,43.45,45.26,42.7 M73.891,44.78c-0.291,0.76-0.871,2.27-1.16,3.02c-1.08-0.61-2.17-1.22-3.26-1.81
	c0.5,1.33,1.119,2.63,1.319,4.05c-1.16,1.41-2.7,2.4-4.21,3.39c1.43-0.23,2.859-0.42,4.29-0.58c0.97-0.76,1.94-1.5,2.94-2.22
	C74.08,48.71,74.84,46.63,73.891,44.78 M13.53,50.92c-0.06,1.43-0.07,2.87-0.05,4.3c0.57,0.22,1.71,0.66,2.28,0.88
	C15.23,54.29,14.58,52.5,13.53,50.92 M68.99,68.57c-1.68-1.07-3.54,1.96-2.12,3.199l-0.03,0.03c-1.94,0.7-3.83,1.521-5.71,2.351
	c-1.11,0.33-2.21,0.67-3.29,1.06c0.66,0.12,1.99,0.36,2.65,0.479c2.68,2.291,5.82,4.57,6.06,8.44c0.351-4.75,1.66-9.34,4.07-13.46
	c1.84-3.01,1.75-6.62,1.04-9.96C70.279,63.14,69.68,65.89,68.99,68.57 M18.3,61.79c-0.28,3.49-2.25,7.569,0.16,10.71
	c2.27,3.92,6.23,6.92,7.05,11.58c1.07-2.221,2.19-4.41,3.24-6.641c0.52-0.1,1.03-0.229,1.53-0.39c-2.8-1.55-5-3.95-7.77-5.52
	C21,68.33,19.49,65.12,18.3,61.79 M41.11,64.72c0.27,1.13,0.56,2.24,0.87,3.36c-0.3,0.561-0.89,1.67-1.19,2.23
	c0.21,0.399,0.63,1.199,0.84,1.609C42.83,69.67,43.74,66.35,41.11,64.72 M49.99,73.47c-1.02,1-0.12,2.851,1.11,3.22
	c0.1,1.19,0.14,2.4,0.36,3.591c-1.58-0.64-2.51,0.97-3.59,1.76c1.84,0.62,3.68,1.24,5.53,1.83c0.03,0.56,0.08,1.68,0.11,2.239
	c0.85-0.029,2.56-0.1,3.41-0.129c0.21-0.59,0.63-1.761,0.83-2.351c-1.29-2.76-2.84-6.03-6.11-6.79
	C52.6,75.77,51.62,72.97,49.99,73.47 M39.84,77.01c0.28,1.16,0.53,2.32,0.77,3.49l0.71-0.061c0.27,0.65,0.79,1.951,1.06,2.601
	c-1.37-0.71-2.76-1.41-4.17-2.05c0.16-1.16,0.3-2.32,0.41-3.48c-1.39,1.391-1.49,3.36-1.51,5.21c1.79,0.64,3.6,1.22,5.39,1.87
	c-0.02-0.34-0.07-1.029-0.09-1.38c0.68,0.2,2.04,0.59,2.72,0.78c-2.03-1.94-4.62-4.221-4.21-7.32c0.71-0.189,2.12-0.561,2.83-0.75
	c-0.11-0.42-0.32-1.26-0.42-1.68C42.16,75.16,41.01,76.09,39.84,77.01 M60.09,80.27c0.41,2.07,0.81,4.25,2.14,5.971
	c1.6,1.35,3.32,2.68,4.32,4.58c0,2.07-0.12,4.18-1.37,5.91L63.84,94.6c0.38,1.36,0.91,2.67,1.45,3.971
	c0.91,0.449,1.8,0.91,2.69,1.41c-0.67,0.14-2,0.42-2.661,0.56c0.92,0.76,1.821,1.55,2.72,2.34c0.13-1.04,1.28-2.18,0.62-3.16
	l0.869-0.649c0.33,1.43,0.65,2.979,2.41,3.149c-0.41-2.78-1.129-5.56-2.859-7.829c-1.67-3.41-3.6-6.711-5.99-9.671
	c-1.34-1.489-1.64-3.5-2.03-5.39C60.82,79.57,60.33,80.03,60.09,80.27 M35.46,82.311c-0.64,4.14-3.1,7.56-5.19,11.06
	c0.29,0.35,0.89,1.05,1.18,1.399c-0.72,1.23-1.44,2.461-2.16,3.7c1.08,2.74,2.33,5.431,3.95,7.91c0.25-3.42,0.02-6.87,0.38-10.28
	c0.8-4.27,3.55-8.17,3.26-12.63C36.52,83.18,35.81,82.6,35.46,82.311 M48.55,92.38c-0.01,0.4-0.04,1.21-0.06,1.61
	c-0.61,0.08-1.84,0.24-2.45,0.32c0.24,0.39,0.73,1.17,0.97,1.56c-0.6-0.07-1.8-0.19-2.4-0.261c0.64,1.211,1.16,2.471,1.56,3.781
	c-0.24,0.049-0.73,0.129-0.97,0.17c-0.33-0.44-1-1.32-1.33-1.761l0.19-0.569c-0.11-0.33-0.32-0.971-0.42-1.301
	c-2.25,0.91-4.42,2.01-6.57,3.131c-0.29-0.511-0.86-1.521-1.14-2.03c-1.61,2.069-1.85,4.53-1.08,6.989
	c0.36,0.17,1.1,0.511,1.46,0.681c0.34-1.64,0.69-3.29,1-4.94c0.97-0.449,1.95-0.869,2.94-1.279c2.88,2.439,5.83,5.26,9.72,5.83
	c4.89-0.381,8.8-3.86,12.32-6.951l1.28,0.031c-1.33-0.9-2.95-0.951-4.5-1.041c-0.72-1.109-1.45-2.209-2.17-3.319
	c-1.31-0.05-2.62-0.091-3.93-0.14c-0.39-1.23-0.78-2.461-1.17-3.69C50.71,90.25,49.62,91.311,48.55,92.38 M64.81,112.03l-1.42,0.7
	c-0.03-0.67-0.1-1.99-0.14-2.66c-2.94,5.49-10.43,6.72-15.21,2.869c-0.97-0.51-1.91-1.049-2.82-1.649c0.16,0.66,0.47,1.96,0.62,2.62
	c-2.96-1.07-5.99-1.971-8.97-2.99c-0.09,4.59,4.1,7.3,7.55,9.46c4.59,1.41,9.45,2.9,14.29,2.261c7.11-1.4,10.06-9.261,11.19-15.591
	C68.23,108.73,66.65,110.52,64.81,112.03z"/>
<path fill="#717171" d="M35.7,27.09c2.61,0.82,5.14,1.84,7.77,2.62c3.53,1.2,7.19-0.33,10.79-0.28
	C48.6,33.31,40.38,31.86,35.7,27.09z"/>
<path fill="#050505" d="M26.05,30.98c1.09-0.24,2.19-0.47,3.29-0.69c1.8,1.19,4.01,1.01,6.06,1.26c0.21,0.31,0.63,0.92,0.84,1.22
	c1.08,0.41,1.7-0.08,1.87-1.46c0.6,1.06,1.58,2.13,2.92,2.04c5.91,0.23,11.98,2.54,17.68-0.08c0.59-0.33,1.77-0.98,2.36-1.31
	c-0.58,2.19-3.17,2.24-4.88,3.12c-1.37,0.26-2.87,1.6-4.22,0.64c-4.46-1.96-9.53-0.729-14.04-2.13c-1.38-0.09-2.88,0.26-4.14-0.47
	C31.32,32.06,28.68,31.47,26.05,30.98z"/>
<path fill="#808080" d="M22.2,37.05c2.08-0.79,4.36-0.66,6.54-0.91c5.54,1.7,11.4,0.25,17.03,1.04c4.98,2.01,10.44,2.49,15.72,1.57
	c1.55-0.95,3.17-1.77,4.83-2.48c0.43,3-2.55,3.68-4.78,4.24c-5.65,1.14-11.3-0.38-16.69-1.93c-5.31-0.35-10.65-0.35-15.97-0.19
	c2.97,0.36,5.97,0.35,8.95,0.57c-2.98,2.38-7.28,0.84-10.75,0.62C25.41,38.99,22.49,39.28,22.2,37.05z"/>
<path fill="#050505" d="M33.54,43.54c1.28,0.15,2.57,0.31,3.76,0.83c-0.71-0.07-2.13-0.2-2.84-0.26c0.53,2.12,0.23,4.27-0.16,6.38
	l-0.38,0.229c-3.62,2.8-8.21,3.42-12.31,5.2c-0.31,1.5-0.64,2.99-0.98,4.49c1.9,0.61,3.82,1.16,5.76,1.67
	c-0.58-0.78-1.75-2.33-2.34-3.11c1.95-1.37,3.81-2.88,5.91-4.04c1.03,0.82,1.95,1.75,2.9,2.67c0.2,0.2,0.6,0.6,0.81,0.8
	c0,2.38,0.17,4.78-0.17,7.15c-0.85,1.83-2.15,3.4-3.38,4.98c0.16-0.851,0.47-2.55,0.63-3.4c-1.68,0.24-3.37,0.46-5.05,0.67
	c1.59-0.899,3.2-1.75,4.78-2.67c-0.65-0.16-1.96-0.48-2.61-0.63c-0.55-0.72-1.11-1.44-1.67-2.15c-0.74,0-2.24,0-2.99,0
	c0.12,0.72,0.36,2.16,0.48,2.88c-0.62-0.96-1.2-1.96-1.77-2.96c-1.75-1.23-3.78-2.83-3.44-5.26c0.06-3.79,4.28-5.43,7.48-5.82
	c3.07,0.03,4.48-3.8,7.69-2.93C33.6,46.69,33.57,45.12,33.54,43.54 M26.23,59.67c1.93-0.16,3.87-0.28,5.78-0.58l0.89-0.36
	c-0.74-0.7-2.21-2.09-2.94-2.78C28.7,57.17,27.45,58.41,26.23,59.67 M29.03,63.12c0.17,0.43,0.52,1.3,0.7,1.74
	c1.33-0.78,5.48-4.16,2.27-4.96C30.84,60.92,31.16,63.13,29.03,63.12z"/>
<path fill="#030303" d="M45.26,42.7c0.24,0.75,0.73,2.24,0.97,2.99c0.54,0.01,1.61,0.04,2.15,0.05c0.82,1.22,1.63,2.43,2.42,3.66
	c0.48-0.21,0.97-0.42,1.45-0.63c2.97,1.62,6.23,2.71,9.61,2.98c3.54,1.13,5.121,5.05,4.4,8.5c-1.67-1.88-3.16-3.96-5.12-5.57
	c-3.2-1.09-6.64-1.37-9.81-2.59c-0.44-0.25-1.33-0.76-1.78-1.01c0.28-1.87-1.17-3.24-1.83-4.82c-0.6,0.04-1.81,0.12-2.41,0.16
	C45.28,45.18,45.26,43.94,45.26,42.7z"/>
<path fill="#464646" d="M73.891,44.78c0.949,1.85,0.189,3.93-0.08,5.85c-1,0.72-1.971,1.46-2.94,2.22
	c-1.431,0.16-2.86,0.35-4.29,0.58c1.51-0.99,3.05-1.98,4.21-3.39c-0.2-1.42-0.819-2.72-1.319-4.05c1.09,0.59,2.18,1.2,3.26,1.81
	C73.02,47.05,73.6,45.54,73.891,44.78z"/>
<path fill="#020202" d="M13.53,50.92c1.05,1.58,1.7,3.37,2.23,5.18c-0.57-0.22-1.71-0.66-2.28-0.88
	C13.46,53.79,13.47,52.35,13.53,50.92z"/>
<path fill="#C8C8C8" d="M21.61,55.92c4.1-1.78,8.69-2.4,12.31-5.2c0.25,2.37,0.13,4.771-1.06,6.88c-0.95-0.92-1.87-1.85-2.9-2.67
	c-2.1,1.16-3.96,2.67-5.91,4.04c0.59,0.78,1.76,2.33,2.34,3.11c-1.94-0.51-3.86-1.06-5.76-1.67C20.97,58.91,21.3,57.42,21.61,55.92z
	"/>
<path fill="#C3C3C3" d="M51.33,52.09c3.17,1.22,6.61,1.5,9.81,2.59c1.96,1.61,3.45,3.69,5.12,5.57c-0.96,1.65-1.68,3.62-3.41,4.65
	c-1.63,0.63-3.43,0.13-5.13,0.19c0.41-0.69,1.24-2.06,1.65-2.75c1.03-0.32,2.06-0.66,3.07-1.02c0.56,0.41,1.67,1.22,2.23,1.63
	c-0.85-1.38-2.18-2.28-3.54-3.1c-1.1-1.59-2.15-3.22-3.19-4.85c-2.01,0.5-4.02,1-5.94,1.78c-0.59,0.229-1.77,0.67-2.37,0.9
	C50.15,55.85,48.96,52.85,51.33,52.09z"/>
<path fill="#040404" d="M52,56.78C53.92,56,55.93,55.5,57.94,55c1.04,1.63,2.09,3.26,3.19,4.85c1.36,0.82,2.69,1.72,3.54,3.1
	c-0.56-0.41-1.67-1.22-2.23-1.63c-1.01,0.36-2.04,0.7-3.07,1.02c-1.52,0.12-3.04,0.25-4.55,0.39c0.66,1.47,0.91,3.09,0.48,4.67
	l-1.95,0.359c1.27,1.34,2.42,2.78,3.39,4.35C55,70.95,53.38,69.6,52.05,67.98c3.22-1.95-0.7-5.05-1.86-7.121
	c0.71-0.08,2.11-0.25,2.81-0.33l-0.67,1.97c0.28,0.1,0.82,0.29,1.09,0.39c0.2-1.32,0.36-2.64,0.49-3.97
	c1.83-0.06,3.65-0.12,5.48-0.23c-1.07-2.41-4.07-1.2-6.12-1.55c0.01,0.83,0.03,2.5,0.04,3.34c-0.72-0.55-1.42-1.11-2.11-1.68
	L52,56.78 M59.3,60.17C57.72,63.21,62.69,60.34,59.3,60.17 M54.38,65.43C54.64,65.69,54.64,65.69,54.38,65.43z"/>
<path fill="#FFFFFF" d="M26.23,59.67c1.22-1.26,2.47-2.5,3.73-3.72c0.73,0.69,2.2,2.08,2.94,2.78l-0.89,0.36
	C30.1,59.39,28.16,59.51,26.23,59.67z"/>
<path fill="#FFFFFF" d="M29.03,63.12c2.13,0.01,1.81-2.2,2.97-3.22c3.21,0.8-0.94,4.18-2.27,4.96
	C29.55,64.42,29.2,63.55,29.03,63.12z"/>
<path fill="#D3D3D3" d="M59.3,60.17C62.69,60.34,57.72,63.21,59.3,60.17z"/>
<path fill="#C1C1C1" d="M68.99,68.57c0.689-2.68,1.289-5.43,2.67-7.86c0.71,3.34,0.8,6.95-1.04,9.96
	c-2.41,4.12-3.72,8.71-4.07,13.46c-0.24-3.87-3.38-6.149-6.06-8.44c1.69-0.529,3.35-1.189,4.89-2.09c0.36-0.449,1.1-1.35,1.46-1.8
	l0.03-0.03C67.77,70.859,68.779,69.91,68.99,68.57z"/>
<path fill="#C1C1C1" d="M18.3,61.79c1.19,3.33,2.7,6.54,4.21,9.74c0.79,3.09,3.3,5.02,6.24,5.909c-1.05,2.23-2.17,4.42-3.24,6.641
	c-0.82-4.66-4.78-7.66-7.05-11.58C16.05,69.359,18.02,65.28,18.3,61.79z"/>
<path fill="#979797" d="M54.82,62.73c1.51-0.14,3.03-0.27,4.55-0.39c-0.41,0.69-1.24,2.06-1.65,2.75c-0.65,1.42,1.49,2.78,1.78,4.16
	c-0.49-0.3-1.48-0.891-1.98-1.189c-0.64,0.359-1.92,1.069-2.57,1.43l0.35-2.09C55.73,65.82,55.48,64.2,54.82,62.73z"/>
<path fill="#464646" d="M41.11,64.72c2.63,1.63,1.72,4.95,0.52,7.2c-0.21-0.41-0.63-1.21-0.84-1.609c0.3-0.561,0.89-1.67,1.19-2.23
	C41.67,66.96,41.38,65.85,41.11,64.72z"/>
<path fill="#C2C2C2" d="M54.38,65.43C54.64,65.69,54.64,65.69,54.38,65.43z"/>
<path fill="#050505" d="M66.87,71.77c-1.42-1.239,0.44-4.27,2.12-3.199C68.779,69.91,67.77,70.859,66.87,71.77z"/>
<path fill="#464646" d="M22.51,71.53c2.77,1.569,4.97,3.97,7.77,5.52c-0.5,0.16-1.01,0.29-1.53,0.39
	C25.81,76.55,23.3,74.62,22.51,71.53z"/>
<path fill="#464646" d="M61.13,74.15c1.88-0.83,3.77-1.65,5.71-2.351c-0.36,0.45-1.1,1.351-1.46,1.8c-1.54,0.9-3.2,1.561-4.89,2.09
	c-0.66-0.119-1.99-0.359-2.65-0.479C58.92,74.82,60.02,74.48,61.13,74.15z"/>
<path fill="#050505" d="M49.99,73.47c1.63-0.5,2.61,2.3,1.65,3.37l-0.54-0.15C49.87,76.32,48.97,74.47,49.99,73.47z"/>
<path fill="#030303" d="M39.84,77.01c1.17-0.92,2.32-1.85,3.49-2.77c0.1,0.42,0.31,1.26,0.42,1.68c-0.71,0.189-2.12,0.561-2.83,0.75
	c-0.41,3.1,2.18,5.38,4.21,7.32c-0.68-0.19-2.04-0.58-2.72-0.78c0.02,0.351,0.07,1.04,0.09,1.38c-1.79-0.65-3.6-1.23-5.39-1.87
	c0.02-1.85,0.12-3.819,1.51-5.21c-0.11,1.16-0.25,2.32-0.41,3.48c1.41,0.64,2.8,1.34,4.17,2.05c-0.27-0.649-0.79-1.95-1.06-2.601
	L40.61,80.5C40.37,79.33,40.12,78.17,39.84,77.01z"/>
<path fill="#C7C7C7" d="M51.1,76.689l0.54,0.15c3.27,0.76,4.82,4.03,6.11,6.79c-0.2,0.59-0.62,1.761-0.83,2.351
	c-0.85,0.029-2.56,0.1-3.41,0.129c-0.03-0.56-0.08-1.68-0.11-2.239c0.01-1.45,0.12-2.89,0.2-4.34c-0.31,0.75-0.95,2.25-1.26,3
	c-0.3-0.75-0.59-1.5-0.88-2.25C51.24,79.09,51.2,77.88,51.1,76.689z"/>
<path fill="#050505" d="M60.09,80.27c0.24-0.239,0.73-0.699,0.97-0.939c0.39,1.89,0.69,3.9,2.03,5.39
	c2.39,2.96,4.32,6.261,5.99,9.671c-0.58,1.01-1.18,2.02-1.801,3.02c0.351,0.57,1.041,1.73,1.381,2.31c0.66,0.98-0.49,2.12-0.62,3.16
	c-0.899-0.79-1.8-1.58-2.72-2.34c0.66-0.14,1.991-0.42,2.661-0.56c-0.891-0.5-1.78-0.961-2.69-1.41
	c-0.54-1.301-1.07-2.61-1.45-3.971l1.34,2.131c1.25-1.73,1.37-3.84,1.37-5.91c-1-1.9-2.72-3.23-4.32-4.58
	C60.9,84.52,60.5,82.34,60.09,80.27z"/>
<path fill="#020202" d="M47.87,82.04c1.08-0.79,2.01-2.399,3.59-1.76c0.29,0.75,0.58,1.5,0.88,2.25c0.31-0.75,0.95-2.25,1.26-3
	c-0.08,1.45-0.19,2.89-0.2,4.34C51.55,83.28,49.71,82.66,47.87,82.04z"/>
<path fill="#717171" d="M35.46,82.311c0.35,0.289,1.06,0.869,1.42,1.159c0.29,4.46-2.46,8.36-3.26,12.63
	c-0.36,3.41-0.13,6.86-0.38,10.28c-1.62-2.479-2.87-5.17-3.95-7.91c0.72-1.239,1.44-2.47,2.16-3.7c-0.29-0.35-0.89-1.05-1.18-1.399
	C32.36,89.87,34.82,86.45,35.46,82.311 M31.18,98.46C29.74,101.52,34.49,98.53,31.18,98.46z"/>
<path fill="#ADADAD" d="M48.55,92.38c1.07-1.069,2.16-2.13,3.25-3.18c0.39,1.229,0.78,2.46,1.17,3.69
	c1.31,0.049,2.62,0.09,3.93,0.14c0.72,1.11,1.45,2.21,2.17,3.319c-0.78-0.05-2.33-0.16-3.11-0.209
	c-0.92,0.399-1.84,0.799-2.76,1.209c-1.93-1.199-4.2-1.17-6.38-1.119c0.4-0.45,1.22-1.36,1.63-1.811l0.04-0.43
	C48.51,93.59,48.54,92.78,48.55,92.38z"/>
<path fill="#050505" d="M46.04,94.311c0.61-0.08,1.84-0.24,2.45-0.32l-0.04,0.43c-0.41,0.45-1.23,1.36-1.63,1.811
	c2.18-0.051,4.45-0.08,6.38,1.119c0.92-0.41,1.84-0.81,2.76-1.209c0.78,0.049,2.33,0.159,3.11,0.209c1.55,0.09,3.17,0.141,4.5,1.041
	l-1.28-0.031c-1.27-0.06-2.54-0.129-3.81-0.209c-3.77,2.17-8.24,1.189-12.31,2.24c-0.4-1.311-0.92-2.57-1.56-3.781
	c0.6,0.07,1.8,0.19,2.4,0.261C46.77,95.48,46.28,94.7,46.04,94.311 M48.24,97.16C48.5,100.47,51.19,95.53,48.24,97.16z"/>
<path fill="#464646" d="M67.279,97.41c0.621-1,1.221-2.01,1.801-3.02c1.73,2.27,2.449,5.049,2.859,7.829
	c-1.76-0.17-2.08-1.72-2.41-3.149L68.66,99.72C68.32,99.141,67.63,97.98,67.279,97.41z"/>
<path fill="#050505" d="M37.07,99.061c2.15-1.121,4.32-2.221,6.57-3.131c0.1,0.33,0.31,0.971,0.42,1.301L43.87,97.8
	c-0.65,0.08-1.94,0.24-2.58,0.31l-1.04,0.371c-0.99,0.41-1.97,0.83-2.94,1.279c-0.31,1.65-0.66,3.301-1,4.94
	c-0.36-0.17-1.1-0.511-1.46-0.681c-0.77-2.459-0.53-4.92,1.08-6.989C36.21,97.54,36.78,98.55,37.07,99.061z"/>
<path fill="#ADADAD" d="M48.24,97.16C51.19,95.53,48.5,100.47,48.24,97.16z"/>
<path fill="#BEBEBE" d="M58.48,97.15c1.27,0.08,2.54,0.149,3.81,0.209c-3.52,3.091-7.43,6.57-12.32,6.951
	c-3.89-0.57-6.84-3.391-9.72-5.83l1.04-0.371c0.64-0.069,1.93-0.229,2.58-0.31c0.33,0.44,1,1.32,1.33,1.761
	c0.24-0.041,0.73-0.121,0.97-0.17C50.24,98.34,54.71,99.32,58.48,97.15z"/>
<path fill="#F2F2F2" d="M31.18,98.46C34.49,98.53,29.74,101.52,31.18,98.46z"/>
<path fill="#BFBFBF" d="M64.81,112.03c1.84-1.511,3.42-3.3,5.09-4.98c-1.131,6.33-4.081,14.19-11.19,15.591
	c-4.84,0.64-9.7-0.851-14.29-2.261c-3.45-2.16-7.64-4.87-7.55-9.46c2.98,1.02,6.01,1.92,8.97,2.99c1.44,0.58,2.83,1.279,4.22,1.98
	C55.32,117.1,60.78,115.58,64.81,112.03z"/>
<path fill="#050505" d="M48.04,112.939c4.78,3.851,12.27,2.621,15.21-2.869c0.04,0.67,0.11,1.99,0.14,2.66l1.42-0.7
	c-4.03,3.55-9.49,5.069-14.75,3.86c-1.39-0.701-2.78-1.4-4.22-1.98c-0.15-0.66-0.46-1.96-0.62-2.62
	C46.13,111.891,47.07,112.43,48.04,112.939z"/>
<path fill="#A93C46" d="M103.99,112.38c-0.08-1.18,1.119-1.729,1.75-2.53c0.82,1.291,1.199,2.76,1.4,4.271
	C106.08,113.55,105.029,112.97,103.99,112.38z"/>
<path fill="#AE0C23" d="M92.779,115.04c-0.119-3.16,2.83-3.979,5.261-4.78c2.5,0.87,5.42,2.67,4.71,5.79
	C102.51,121.95,92.01,120.891,92.779,115.04 M95.74,112.87c-0.04,1.819-0.051,3.64,0.01,5.46c1.51-0.3,3-0.63,4.49-1.01
	c-0.061-1.471-0.12-2.94-0.17-4.4C98.63,112.891,97.189,112.88,95.74,112.87z"/>
<path fill="#FFFFFF" d="M95.74,112.87c1.449,0.01,2.89,0.021,4.33,0.05c0.05,1.46,0.109,2.93,0.17,4.4
	c-1.49,0.38-2.98,0.71-4.49,1.01C95.689,116.51,95.7,114.689,95.74,112.87z"/>
<path fill="#CF0A22" d="M103.99,112.38c1.039,0.59,2.09,1.17,3.15,1.74l0.129,0.069c0.61-0.299,1.82-0.899,2.431-1.199
	c0,0.359-0.011,1.09-0.021,1.46c0.24,1.22,0.641,2.399,1.2,3.52c-0.489,0.261-1.46,0.78-1.95,1.04c-0.459-0.41-1.4-1.21-1.859-1.619
	c-0.15,0.76-0.461,2.279-0.61,3.039l-0.46-0.8c-0.471-0.13-1.4-0.39-1.87-0.53C104.1,116.859,104.08,114.62,103.99,112.38z"/>
<path fill="#050505" d="M109.7,112.99c2.25-1.46,2.159,2.82-0.021,1.46C109.689,114.08,109.7,113.35,109.7,112.99z"/>
<path fill="#CF2343" d="M114.32,113.07c1.789-0.021,3.58,0.039,5.38,0.13c0.39,2.26,0.739,4.53,0.989,6.81
	c-2.56-0.14-5.119-0.17-7.68-0.29c-0.05-1.649,0.66-3.03,1.78-4.2c-0.44-0.22-1.31-0.64-1.75-0.859
	C113.359,114.27,114,113.47,114.32,113.07 M116.42,117.22C117.02,117.77,117.02,117.77,116.42,117.22z"/>
<path fill="#B41928" d="M121.8,112.92c0.66,0.07,1.97,0.23,2.63,0.311c0.25,0.979,0.75,2.939,1,3.92
	c0.33-0.791,0.98-2.37,1.301-3.16l0.06,0.24c-0.06,1.26,1.21,1.789,2.16,1.08c-0.96,2.27-1.53,4.729-2.87,6.819
	c-1.2,1.4-2.98,0.63-4.29-0.149c0.64-0.301,1.91-0.92,2.55-1.23C123.88,118.02,122.77,115.48,121.8,112.92z"/>
<path fill="#7C4449" d="M126.79,114.23c0.44-1.371,1.29-1.74,2.54-1.121c-0.09,0.551-0.28,1.65-0.38,2.201
	C128,116.02,126.73,115.49,126.79,114.23z"/>
<path fill="#FFD9DF" d="M116.42,117.22C117.02,117.77,117.02,117.77,116.42,117.22z"/>
<path fill="#9C4D50" d="M108.93,119.01c0.49-0.26,1.461-0.779,1.95-1.04C114.109,119.061,109.24,121.95,108.93,119.01z"/>
<path fill="#782D37" d="M104.13,119.1c0.47,0.141,1.399,0.4,1.87,0.53c-0.4,0.07-1.21,0.21-1.609,0.28L104.13,119.1z"/>
</svg>
