<?xml version="1.0" encoding="utf-8"?>
<!-- Generator: Adobe Illustrator 15.0.2, SVG Export Plug-In . SVG Version: 6.00 Build 0)  -->
<!DOCTYPE svg PUBLIC "-//W3C//DTD SVG 1.1//EN" "http://www.w3.org/Graphics/SVG/1.1/DTD/svg11.dtd">
<svg version="1.1" id="Layer_1" xmlns="http://www.w3.org/2000/svg" xmlns:xlink="http://www.w3.org/1999/xlink" x="0px" y="0px"
	 width="325px" height="240px" viewBox="0 0 325 240" enable-background="new 0 0 325 240" xml:space="preserve">
<path fill="#000200" d="M0,0h325v240H223.75c-2.9-4.88-6.42-9.32-10.1-13.63c-5.34-6.13-6.95-14.511-12.051-20.79
	c-3.619,6.32-7.52,12.47-11.529,18.54c-1.16,2.12-2.551,4.14-4.551,5.56l0.121,0.351c-3.281,0.21-6.381,1.37-9.591,1.939
	c-3.2-0.229-6.53-0.81-9.31-2.5c3.98-1.069,7.96,1.58,11.859,0.061c2.621-0.921,5.971-0.78,7.76-3.24
	c8.891-12.81,15.58-27.2,26.33-38.66c4.621-5.239,6.541-12.19,6.961-19.03c2.5-2.66,2.109-6.41,3.029-9.699
	c0.721-10.01,3.65-19.711,4.2-29.76c0.3-2.051-0.149-4.451,1.55-6c0.03-11.46,0.1-22.931-0.039-34.391
	c-2.951-0.57-1.4-3.43-1.25-5.32c-0.561-3.17-1.66-6.22-2.011-9.44c-0.78-3.5-0.521-7.34-2.479-10.48
	c-2.34-3.86-5.381-7.29-8.641-10.4c-0.25-0.19-0.75-0.56-0.99-0.75c-2.97-2.31-6.359-3.95-9.52-5.94c-3.98-2.6-7.84-5.84-12.7-6.55
	c-2.75-0.44-4.94-2.55-7.78-2.61c-4.22-0.5-8.479-0.77-12.58-1.96c-5.709-1.73-11.739-0.2-17.569-1.05
	c-7.17-1.26-14.51-1.1-21.74-0.76c-8.72,2.7-17.85,5.63-24.74,11.89c-4.27,5.2-9.24,10.22-11.28,16.81
	c-1.91,5.62-6.51,9.96-7.95,15.78c-0.73,3.55-2.3,6.82-3.38,10.26c-1.45,7.84-1.15,15.85-2.16,23.74c-0.46,1.83,0.85,3.18,1.76,4.57
	c0.02,0.43,0.05,1.28,0.06,1.71c-0.51-0.04-1.52-0.11-2.03-0.15c-2.11,9.8,1.15,19.47,3,29.02c0.15,0.5,0.46,1.5,0.61,2
	c0.37,1.31,0.7,2.63,1.06,3.95c0.28,2.21,0.63,4.43,1.62,6.449c2.54,5.131,3.71,10.771,6.04,15.99
	c3.89,10.99,10.37,20.771,15.53,31.17c5.33,5.84,12.19,10.01,18.87,14.16c-5.87-1.43-10.57-5.199-15.48-8.47
	c-3.09-2.34-4.35-6.28-7.34-8.72c-2.73-2.34-4.18-5.67-5.3-9c-2.93,2.189-5.91,4.41-8.09,7.399c-2.55,3.62-7.22,4.73-9.99,8.15
	c-4.11,4.729-8.55,9.19-13.27,13.319c-3.8,5.271-9.36,9.7-10.43,16.48H0V0 M285.42,24.67c-3.08,0.88-3.93,4.51-3.87,7.31
	c0.86,3.92,4.74,5.7,7.86,7.57c0.029,1.04,0.07,2.09,0.1,3.13c-0.24,0.28-0.72,0.83-0.96,1.1c-0.021-1.84-0.05-3.76-1.2-5.3
	c-1.879,0.21-4.209-0.23-5.55,1.42c-0.13,1.81,0.591,3.54,0.979,5.28c2.971,3.14,8.07,3.25,11.691,1.23
	c2.289-2.52,0.949-6.43,0.959-9.53c-2.24-1.71-4.15-4.02-6.939-4.84c-0.04-0.98-0.09-1.96-0.12-2.93c0.25,0.05,0.76,0.15,1.01,0.2
	c-1.22,3.55,3.54,3.53,5.72,2.67c1.16-2.29,0.381-5.66-2.109-6.73C290.63,24.22,287.9,24.03,285.42,24.67 M255.59,25.62
	c0.301,7.17,1.01,14.33,0.551,21.52c2.199,0.12,4.389,0.02,6.58-0.26C262.54,41.26,262.6,35.63,262.68,30
	c1.2,0.45,4.08-0.25,3.68,1.96c0.23,4.93,0.181,9.87,0,14.81c2.091,0.55,4.24,0.5,6.371,0.3c0.109-3.7,0.619-7.4,0.279-11.1
	c-0.029-2.36-1.289-5.78,2-6.46c1.78,1.18,2.7,3.72,5.301,3.12c0.949-2.52,1.489-5.19,1.039-7.89
	c-7.129-0.06-14.25-0.01-21.369-0.04C258.45,24.61,256.939,24.91,255.59,25.62 M254.7,59.55c-0.05,7.31,0.3,14.64-0.24,21.94
	c2.03,0.06,4.06,0.07,6.101,0.06c0.02-2.21,0.039-4.42,0.069-6.63c0.78,2.16,1.46,4.34,2.101,6.54c1.93,0.08,3.85,0.16,5.779,0.23
	c1.811-7.35,0.141-14.92,0.16-22.37c-1.689,0.04-3.391-0.03-5.07,0.24c-1.539,1.45-0.859,3.74-1.149,5.61
	c-0.65-1.91-1.25-3.84-1.88-5.76C258.609,59.44,256.65,59.48,254.7,59.55 M269.76,63.91c0.04,5.12-0.51,10.43,0.87,15.41
	c2.271,3.86,7.22,2.9,10.87,2.1c1.04-1.31,2.2-2.69,2.1-4.49c0.2-5.04,0.34-10.13-0.27-15.15C280.01,57.19,270.73,57.7,269.76,63.91
	 M285.221,59.37c-0.371,1.25-0.551,2.52-0.541,3.81c0.641,1.66,3.48,0.76,3.65,2.7c0.42,5.2-0.08,10.42,0.12,15.63
	c2.09,0.05,4.2,0.11,6.3,0.18c0.96-5.68,0.2-11.46,0.529-17.18c3.221,0.69,3.5-2.56,3.311-4.9
	C294.141,59.25,289.68,59.41,285.221,59.37 M254.67,97.41c-0.02,5.33-0.02,10.66,0.02,15.98c2.75,4.13,8.881,5.16,12.761,2.06
	c2.29-2.55,1.75-6.26,1.89-9.41c-0.109-3.67,0.7-8.23-2.57-10.83C263.09,92.17,257.4,93.89,254.67,97.41 M287.52,94.4
	c-0.939,6.54-1.569,13.13-2.84,19.61c-0.199-2.81-1.93-5.19-2.35-7.95c-0.85-4.18,2.529-7.6,2.59-11.71
	c-2.08,0.03-4.15,0.08-6.23,0.12c-0.67,1.96-1.219,3.97-1.6,6.01c-0.08,0.03-0.23,0.08-0.3,0.1c0.03-2.06-0.011-4.12-0.06-6.18
	c-2.061-0.03-4.121-0.06-6.17-0.08c-0.33,5.21-0.011,10.42-0.121,15.64c0.07,2.48-0.479,5.22,1.061,7.39
	c1.26-0.08,2.529-0.14,3.8-0.2c0.8-0.64,1.61-1.28,2.431-1.91c0.359,0.28,1.09,0.85,1.459,1.14c3.961,0.29,7.98,0.28,11.931-0.01
	c0.22-0.33,0.64-0.99,0.851-1.32c2.129,1.9,5.059,1.46,7.689,1.61c0.26-6.04-1.6-11.87-2.21-17.83c0.229-0.24,0.71-0.73,0.94-0.98
	c2.34,5.94,3.799,12.17,3.189,18.59c2.24,0.06,4.49,0.05,6.729-0.01c-0.04-0.51-0.13-1.53-0.17-2.04l1.141,0.34
	c-1.53-1.52-1.181-3.8-1.07-5.75c0.83-4.98,3.09-9.62,3.7-14.66c-2.09,0.05-4.18,0.12-6.25,0.24c-0.09,2.14-0.301,4.27-0.68,6.37
	c-0.34-2.22-0.681-4.44-1.08-6.64C298.439,94.69,292.98,94.28,287.52,94.4z"/>
<path fill="#DE3D21" d="M285.42,24.67c2.48-0.64,5.21-0.45,7.57,0.58c2.49,1.07,3.27,4.44,2.109,6.73
	c-2.18,0.86-6.939,0.88-5.72-2.67c-0.25-0.05-0.76-0.15-1.01-0.2c0.03,0.97,0.08,1.95,0.12,2.93c2.789,0.82,4.699,3.13,6.939,4.84
	c-0.01,3.1,1.33,7.01-0.959,9.53c-3.621,2.02-8.721,1.91-11.691-1.23c-0.389-1.74-1.109-3.47-0.979-5.28
	c1.341-1.65,3.671-1.21,5.55-1.42c1.15,1.54,1.18,3.46,1.2,5.3c0.24-0.271,0.72-0.82,0.96-1.1c-0.029-1.04-0.07-2.09-0.1-3.13
	c-3.12-1.87-7-3.65-7.86-7.57C281.49,29.18,282.34,25.55,285.42,24.67z"/>
<path fill="#DE3D21" d="M255.59,25.62c1.35-0.71,2.86-1.01,4.391-0.92c7.119,0.03,14.24-0.02,21.369,0.04
	c0.45,2.7-0.09,5.37-1.039,7.89c-2.601,0.6-3.521-1.94-5.301-3.12c-3.289,0.68-2.029,4.1-2,6.46c0.34,3.7-0.17,7.4-0.279,11.1
	c-2.131,0.2-4.28,0.25-6.371-0.3c0.181-4.94,0.23-9.88,0-14.81c0.4-2.21-2.479-1.51-3.68-1.96c-0.08,5.63-0.14,11.26,0.041,16.88
	c-2.191,0.28-4.381,0.38-6.58,0.26C256.6,39.95,255.891,32.79,255.59,25.62z"/>
<path fill="#D0D2CF" d="M106.39,45.38c6.89-6.26,16.02-9.19,24.74-11.89c7.23-0.34,14.57-0.5,21.74,0.76
	c5.83,0.85,11.86-0.68,17.569,1.05c4.101,1.19,8.36,1.46,12.58,1.96c2.84,0.06,5.03,2.17,7.78,2.61c4.86,0.71,8.72,3.95,12.7,6.55
	c3.16,1.99,6.55,3.63,9.52,5.94c-0.629,0.62-1.869,1.85-2.5,2.47c-4.479-1.5-8.89-3.28-13.59-4.01c-4.77-0.75-8.26-4.56-12.88-5.77
	c-6.62-1.79-13.04-5.15-20.079-4.63c-7.011,0.51-14.461,0.43-20.781,3.95c-4.98,2.74-9.47,6.74-11.82,12
	c1.34,1.37,3.59,2.94,2.04,5.03c-2.57,2.52-5.84,4.18-8.54,6.56c5.79,0.24,11.38,2.02,17.19,1.97c1.26,0.12,2.98-0.05,3.7,1.27
	c2.02,2.64-1.38,4.88-2.73,6.89c-1.14-0.65-2.21-1.41-3.26-2.18c-4.92,0.31-9.85-1.55-14.7-0.33c-6.29,2.48-12.26,6.74-15.57,12.71
	c-0.28,1.11-0.43,2.24-0.61,3.37c1.28,0.27,2.57,0.54,3.86,0.83c-1.99,5.39-0.32,11.13,0.72,16.52c0.53,0.56,1.59,1.66,2.11,2.21
	c0.38,1.76,0.37,3.86,1.89,5.11c1.32,1.05,3.05,1.26,4.62,1.73c4.17,1.5,8.61,0.36,12.9,0.3c3.83,0.16,6.51-2.89,9.52-4.74
	c1.59-2.61,2.11-5.58,1.25-8.53c0.11-0.39,0.33-1.15,0.44-1.53c0.92,2.26,2.72,3.88,4.66,5.26c1.11-0.31,2.23-0.61,3.34-0.91
	c0.19,1.96,0.66,3.96,0.33,5.93c-1.04,3.37-3.46,6.08-5.9,8.52c-0.11,2.49-0.19,4.971-0.26,7.461c0.43,0.619,0.87,1.24,1.32,1.859
	c-3.32,0.381-6.68,0.66-9.97-0.06c2.6-0.75,6.3,0.18,7.87-2.55c-0.3-0.391-0.89-1.16-1.19-1.551c-5.5-0.17-10.81,2.051-16.35,1.771
	c-4.35-0.22-9.07,0.91-13.09-1.25c-3.62-1.66-7.09-3.76-9.64-6.88c-3.62,3.37-8.55,7.22-7.33,12.859
	c-0.13,3.75,3.96,4.74,6.41,6.561c3.31,2.33,6.77,4.439,10.75,5.4c0.91,2.629,1.35,5.399,2.05,8.1
	c-2.57,5.779-4.75,11.82-5.64,18.109c-0.8,4.48,1.89,8.44,2.66,12.711c0.94,4.08,0.88,8.319,1.62,12.43c0.78,1.439,2.68,1.75,4,2.59
	c0.36-0.38,1.09-1.14,1.45-1.52c0.46,0.369,0.92,0.74,1.38,1.119c0.32-0.369,0.94-1.109,1.26-1.479c1.02,2.06,2.04,4.13,3.06,6.21
	c4.47,0.05,9.08-0.109,13.35,1.47c3.4,1.011,5.16,4.601,8.56,5.601c4.45,1.609,8.84,3.42,13,5.68c4.75,2.689,10.24,3.51,15.05,6.05
	c1.95,1.37,4.42,0.12,5.72-1.55c2.141-2.88,2.91-6.67,5.68-9.12c1.74-1.84,4.03-3.37,4.98-5.81c0.891-4.37-0.391-8.971,0.97-13.29
	c1.25-3.841,5.29-6.14,5.96-10.25c1.881-8.89,5.04-17.72,4.09-26.94c2.26-0.97,4.621-1.779,6.771-2.99
	c4.409-4.359,5.51-10.729,7.79-16.26c1.859-3.66,3.311-7.51,4.91-11.29c0.359,1.19,0.709,2.39,1.06,3.591
	c-0.55,10.049-3.479,19.75-4.2,29.76c-0.92,3.289-0.529,7.039-3.029,9.699c-0.42,6.84-2.34,13.791-6.961,19.03
	c-10.75,11.46-17.439,25.851-26.33,38.66c-1.789,2.46-5.139,2.319-7.76,3.24c-3.899,1.52-7.879-1.13-11.859-0.061
	c2.779,1.69,6.109,2.271,9.31,2.5c3.21-0.569,6.31-1.729,9.591-1.939c0.68,2,1.159,4.06,1.609,6.13c4.18-0.1,8.38,0.21,11.74,2.96
	c6.82,0.899,13.77-0.56,20.55,0.88H58.24c1.07-6.78,6.63-11.21,10.43-16.48c4.72-4.129,9.16-8.59,13.27-13.319
	c2.77-3.42,7.44-4.53,9.99-8.15c2.18-2.989,5.16-5.21,8.09-7.399c1.12,3.33,2.57,6.66,5.3,9c2.99,2.439,4.25,6.38,7.34,8.72
	c4.91,3.271,9.61,7.04,15.48,8.47c-6.68-4.15-13.54-8.32-18.87-14.16c-5.16-10.399-11.64-20.18-15.53-31.17
	c-2.33-5.22-3.5-10.859-6.04-15.99c-0.99-2.02-1.34-4.239-1.62-6.449c-0.36-1.32-0.69-2.641-1.06-3.95c-0.15-0.5-0.46-1.5-0.61-2
	c-1.57-9.54-0.97-19.24-0.97-28.87c-0.01-0.43-0.04-1.28-0.06-1.71c-0.91-1.39-2.22-2.74-1.76-4.57c1.01-7.89,0.71-15.9,2.16-23.74
	c1.08-3.44,2.65-6.71,3.38-10.26c1.44-5.82,6.04-10.16,7.95-15.78C97.15,55.6,102.12,50.58,106.39,45.38 M148.11,111.29
	c0.34,0.16,1,0.48,1.34,0.65c-0.48,2.6-3.99,2.21-5.34,4.17c-1.2,1.77-2.48,3.65-4.66,4.26c-7.1,0.78-14.41,1.78-21.43-0.05
	c-2.11-2.48-4.25-4.98-5.71-7.92c-0.64-1.35-2.49-1.15-3.66-1.63c-1.37,0.12-0.88,1.8-1.27,2.7c0.68,0.12,2.05,0.37,2.74,0.49
	c0.46,1.21,0.91,2.43,1.37,3.65c3.65,1.81,6.81,4.451,10.42,6.3c6.14,0.24,12.47,0.6,18.33-1.66c2.23-1.5,3.72-3.87,6-5.33
	c0.04-0.59,0.12-1.77,0.16-2.36c1.26-0.48,2.54-0.94,3.83-1.36c0.15-1,0.23-2.01,0.23-3.02
	C149.68,110.55,148.9,110.92,148.11,111.29z"/>
<path fill="#FCFDFA" d="M143.19,44.37c6.32-3.52,13.77-3.44,20.781-3.95c7.039-0.52,13.459,2.84,20.079,4.63
	c4.62,1.21,8.11,5.02,12.88,5.77c4.7,0.73,9.11,2.51,13.59,4.01c0.631-0.62,1.871-1.85,2.5-2.47c0.24,0.19,0.74,0.56,0.99,0.75
	c3.26,3.11,6.301,6.54,8.641,10.4c1.959,3.14,1.699,6.98,2.479,10.48c0.351,3.22,1.45,6.27,2.011,9.44
	c-0.15,1.89-1.701,4.75,1.25,5.32c0.139,11.46,0.069,22.93,0.039,34.391c-1.699,1.549-1.25,3.949-1.55,6
	c-0.351-1.201-0.7-2.4-1.06-3.591c-1.6,3.78-3.051,7.63-4.91,11.29c-2.28,5.53-3.381,11.9-7.79,16.26
	c-2.149,1.211-4.511,2.021-6.771,2.99c0.95,9.221-2.209,18.051-4.09,26.94c-0.67,4.11-4.71,6.409-5.96,10.25
	c-1.36,4.319-0.079,8.92-0.97,13.29c-0.95,2.439-3.24,3.97-4.98,5.81c-2.77,2.45-3.539,6.24-5.68,9.12
	c-1.3,1.67-3.77,2.92-5.72,1.55c-4.81-2.54-10.3-3.36-15.05-6.05c-4.16-2.26-8.55-4.07-13-5.68c-3.4-1-5.16-4.59-8.56-5.601
	c-4.27-1.579-8.88-1.42-13.35-1.47c-1.02-2.08-2.04-4.15-3.06-6.21c-0.32,0.37-0.94,1.11-1.26,1.479
	c-0.46-0.379-0.92-0.75-1.38-1.119c-0.36,0.38-1.09,1.14-1.45,1.52c-1.32-0.84-3.22-1.15-4-2.59c-0.74-4.11-0.68-8.35-1.62-12.43
	c-0.77-4.271-3.46-8.23-2.66-12.711c0.89-6.289,3.07-12.33,5.64-18.109c-0.7-2.7-1.14-5.471-2.05-8.1
	c-3.98-0.961-7.44-3.07-10.75-5.4c-2.45-1.82-6.54-2.811-6.41-6.561c-1.22-5.64,3.71-9.489,7.33-12.859
	c2.55,3.12,6.02,5.22,9.64,6.88c4.02,2.16,8.74,1.03,13.09,1.25c5.54,0.28,10.85-1.94,16.35-1.771c0.3,0.391,0.89,1.16,1.19,1.551
	c-1.57,2.729-5.27,1.8-7.87,2.55c3.29,0.72,6.65,0.44,9.97,0.06c-0.45-0.619-0.89-1.24-1.32-1.859c0.07-2.49,0.15-4.971,0.26-7.461
	c2.44-2.439,4.86-5.149,5.9-8.52c0.33-1.97-0.14-3.97-0.33-5.93c-1.11,0.3-2.23,0.6-3.34,0.91c-1.94-1.38-3.74-3-4.66-5.26
	c0.08-0.64,0.23-1.93,0.31-2.57c0.8-0.66,1.45-1.44,1.34-2.54c0.32-1.54,0.85-3.03,1.35-4.51c1.12,3.7-0.83,8.48,2.12,11.36
	c0.42-1.62,0.86-3.26,0.92-4.95c0.12-1.68,0.3-3.35,0.53-5.02c0.43,0.5,1.28,1.49,1.7,1.98c0.06-2.31,0.04-4.62,0.02-6.93
	c2.71,2.44,5.96,0.56,9.06,0.61c-0.18,1.34-0.149,2.68,0.07,4.01c1-1.41,1.89-2.9,2.86-4.33c2.43,0.28,4.89,0.29,7.319,0.01
	c-2.55,2.14-2.75,5.55-3.71,8.5c-1.26,4.29-3.01,8.7-2.32,13.25c0.34,0.33,1,1,1.33,1.33c0.76-4.64,1.32-9.31,2.83-13.79
	c0.5-1.12,1.08-2.189,1.75-3.22c0.461,0.51,1.37,1.54,1.83,2.05c0.61,0.1,1.83,0.31,2.43,0.42c-2.239,2.62-4.219,6.08-2.689,9.59
	c2.18,2.02,4.51-0.19,6.13-1.71c0.06,1.04,0.149,2.09,0.261,3.13c4.34-1.05,8.81-0.2,13.199-0.66c3.62-1.03,7.03-3.1,10.95-2.83
	c0.101-2.11-0.47-4.48,0.899-6.31c0.031,2.25-0.119,4.5-0.189,6.75c-0.43,0.09-1.29,0.27-1.73,0.36
	c-0.539,1.27-1.069,2.54-1.59,3.82c-5,1.63-10.279,0.94-15.439,1.02c-1.631-1.51-3.59-2.4-5.87-2c1.149,1.07,2.28,2.25,3.69,3.01
	c2.319,1.36,5.449,0.38,7.469,2.4c-1.909,0.23-3.819,0.41-5.739,0.56c0.04,0.52,0.11,1.56,0.14,2.09c0.561-0.03,1.69-0.07,2.25-0.09
	l-0.5,1.6c-2.92-0.43-3.41-3.53-4.35-5.81c-0.801-0.18-2.41-0.55-3.21-0.74c-0.55,1.35-1.101,2.71-1.63,4.06
	c4.25,2.02,8.22,5.16,13.13,5.28c5.069,0.16,10.81,0.75,15.04-2.67c2.22-1.2,1.42-5.15-0.939-5.7c-2.621,0.56-4.291,2.9-6.611,4.06
	c-2.449,0.45-5.409,0.85-7.359-1.06c4.98-1.24,9.82-3.22,14.05-6.16c0.56-0.12,1.671-0.36,2.229-0.48
	c0.351-3.24,1.111-6.4,2.08-9.51c-2.43-3.7-1.959-8.38-4.119-12.229c1.88-1.66,4.89,0.63,7.22-0.31c0.479-1.36,0.761-2.77,0.97-4.18
	c-0.13-1.57-0.32-3.12-0.479-4.68c-2.351-0.83-3.9-2.68-5.05-4.81c-0.49,0.2-1.461,0.58-1.94,0.78c-0.271-0.44-0.81-1.32-1.08-1.76
	c-3.47,1.96-6.88-0.07-10.09-1.49c-1.37-0.82-4.229-1.78-4.88,0.31c-0.24,0.93-0.471,1.87-0.689,2.81c-0.381-0.33-1.121-1-1.5-1.33
	c-0.16-0.14-0.5-0.42-0.671-0.56c-4.69,0.17-9.54,0.69-13.76,2.9c-3.8,2.08-8.14,2.82-12.04,4.67c-2.72,1.56-4.99,3.74-7.44,5.67
	c-3.89-3.57-8.58-6.13-13.03-8.92c1.35-2.01,4.75-4.25,2.73-6.89c-0.72-1.32-2.44-1.15-3.7-1.27c-5.81,0.05-11.4-1.73-17.19-1.97
	c2.7-2.38,5.97-4.04,8.54-6.56c1.55-2.09-0.7-3.66-2.04-5.03C133.72,51.11,138.21,47.11,143.19,44.37 M179.9,64.39
	c-6.99,2.24-13.131,6.36-19.24,10.3c-1.7,0.9-3.7,2.76-5.63,1.05l0.43-0.78c-0.4,0.03-1.2,0.09-1.6,0.12
	c0.09,1.85,0.42,3.68,1.09,5.42c1.93-0.09,3.86,0.02,5.79-0.06c6.27-1.69,11.289-6.1,17.4-8.16c3.069-1.21,5.81-3.3,9.189-3.561
	c3.04-0.26,5.33-2.45,7.88-3.9c-0.42-0.94-0.83-1.89-1.229-2.83c0.359-0.45,1.08-1.33,1.439-1.78
	C189.76,59.47,185.09,62.9,179.9,64.39 M167.08,115c0.65,2.19,3.01,3.6,3.029,6.07c1,2.609-2.17,3.22-3.969,3.58
	c-2.48-1.53-5.431-1.09-8.17-0.961l-0.62,0.871c-0.79-0.101-2.37-0.311-3.15-0.41c0.11,0.619,0.34,1.84,0.45,2.459l1.34-0.199
	c-0.35,0.62-1.05,1.87-1.4,2.5c0.62,2.27,3.72,1.48,5.49,1.949c4.109-0.02,8.34,2.61,12.3,0.531c1.3-1.461,2.32-3.141,3.7-4.541
	c1.47,0.301,2.01-0.26,1.62-1.699c-1.22-0.92-2.101-0.65-2.64,0.819c-0.281-0.239-0.851-0.71-1.141-0.95
	c0.189-0.569,0.551-1.699,0.74-2.27c0.4-1.48,0.199-4.84-1.811-4.79c-0.899,1.6,0.521,3.49,1.43,4.78
	c-0.549-0.01-1.659-0.04-2.209-0.061c0.88-2.2-0.68-4.29-1.641-6.149C169.811,115.31,168.5,113.41,167.08,115 M153.16,139.15
	c-0.76,0.52-1.51,1.029-2.26,1.55l1.97-0.56l-0.15,2.109l-0.72,0.46c2.94,3.2,6.73,0.46,9.12-1.87c1.43,0.84,2.84,1.77,4.54,1.88
	c0.76-0.819,1.52-1.62,2.3-2.409c-0.021-2.19-1.489-3.811-2.649-5.521C161.15,135.12,154.51,133.83,153.16,139.15 M179.18,136.1
	C179.311,139.43,182.17,134.57,179.18,136.1 M138.26,163.48c-0.9,1.17-0.67,1.879,0.69,2.129
	C139.85,164.439,139.62,163.73,138.26,163.48 M140.22,165.04C140.31,168.359,143.23,163.54,140.22,165.04 M176.13,181.859
	c-2.97,1.311-5,3.94-6.58,6.671c0.171,0.439,0.521,1.329,0.7,1.77c-2.1,1.011-3.85,2.54-5.689,3.931
	c-5.34,2.67-11.991,1.229-16.741-2.061c0.31-0.52,0.93-1.54,1.25-2.05c-2.14-1.8-5.95-1.47-6.25,1.8h1.35
	c0.27,0.25,0.82,0.74,1.09,0.99c-0.02,1.949-0.91,4.07-0.13,5.939c4.27,3.291,9.59,4.87,14.78,6.041c2.4,0.18,3.609,2.979,6.04,2.92
	c2.2,0.359,3.6-1.631,5.36-2.521c1.51-1.05,3.709-1.59,4.17-3.64c1.59-5.471,4.59-10.711,4.26-16.57c0.119-1.2-0.381-2.04-1.49-2.53
	c0.43-1.569,0.7-3.26-0.13-4.76C177.33,179.08,176.65,180.439,176.13,181.859z"/>
<path fill="#DE3D21" d="M254.7,59.55c1.95-0.07,3.909-0.11,5.87-0.14c0.63,1.92,1.229,3.85,1.88,5.76
	c0.29-1.87-0.39-4.16,1.149-5.61c1.68-0.27,3.381-0.2,5.07-0.24c-0.02,7.45,1.65,15.02-0.16,22.37c-1.93-0.07-3.85-0.15-5.779-0.23
	c-0.641-2.2-1.32-4.38-2.101-6.54c-0.03,2.21-0.05,4.42-0.069,6.63c-2.041,0.01-4.07,0-6.101-0.06
	C255,74.19,254.65,66.86,254.7,59.55z"/>
<path fill="#DE3D21" d="M269.76,63.91c0.971-6.21,10.25-6.72,13.57-2.13c0.609,5.02,0.47,10.11,0.27,15.15
	c0.101,1.8-1.06,3.18-2.1,4.49c-3.65,0.8-8.6,1.76-10.87-2.1C269.25,74.34,269.8,69.03,269.76,63.91z"/>
<path fill="#DE3D21" d="M285.221,59.37c4.459,0.04,8.92-0.12,13.369,0.24c0.189,2.34-0.09,5.59-3.311,4.9
	c-0.329,5.72,0.431,11.5-0.529,17.18c-2.1-0.07-4.21-0.13-6.3-0.18c-0.2-5.21,0.3-10.43-0.12-15.63c-0.17-1.94-3.01-1.04-3.65-2.7
	C284.67,61.89,284.85,60.62,285.221,59.37z"/>
<path fill="#000200" d="M179.9,64.39c5.189-1.49,9.859-4.92,15.52-4.18c-0.359,0.45-1.08,1.33-1.439,1.78
	c-7.9,1.35-15.371,4.71-22.51,8.25c-5.65,2.64-10.061,8.14-16.671,8.31c0.05-0.94,0.13-1.88,0.23-2.81
	c1.93,1.71,3.93-0.15,5.63-1.05C166.77,70.75,172.91,66.63,179.9,64.39z"/>
<path fill="#D0D2CF" d="M171.471,70.24c7.139-3.54,14.609-6.9,22.51-8.25c0.399,0.94,0.81,1.89,1.229,2.83
	c-2.55,1.45-4.84,3.64-7.88,3.9c-3.38,0.26-6.12,2.35-9.189,3.561c-6.111,2.06-11.131,6.47-17.4,8.16
	c-1.93,0.08-3.86-0.03-5.79,0.06c-0.67-1.74-1-3.57-1.09-5.42c0.4-0.03,1.2-0.09,1.6-0.12l-0.43,0.78c-0.1,0.93-0.18,1.87-0.23,2.81
	C161.41,78.38,165.82,72.88,171.471,70.24z"/>
<path fill="#DE3D21" d="M192.16,72.85c0.65-2.09,3.51-1.13,4.88-0.31C195.471,73,193.77,73.43,192.16,72.85z"/>
<path fill="#000200" d="M175.54,76.67c4.22-2.21,9.069-2.73,13.76-2.9c0.171,0.14,0.511,0.42,0.671,0.56
	c-5.111,1.98-11.051,1.94-15.57,5.23c-3,1.05-6.07,1.87-9.041,2.99c-3.379,1.32-5.629,4.36-8.719,6.16
	c-1.56,0.19-3.11-0.25-4.66-0.39c0.83,0.69,1.65,1.39,2.51,2.06c0.02,2.31,0.04,4.62-0.02,6.93c-0.42-0.49-1.27-1.48-1.7-1.98
	c-1.26-2.99-1.78-6.52-4.31-8.78c-3.37-3.14-8.24-3.19-12.41-4.57c-3.36-1.07-6.91-0.75-10.12,0.64c-0.71,1.1-1.43,2.18-2.15,3.27
	c0.99-0.76,1.97-1.52,2.95-2.27c6.63,0.36,13.74-0.48,19.81,2.76c3.7,3.15,4.61,8.23,5.43,12.78l0.27,1.19
	c-0.06,1.69-0.5,3.33-0.92,4.95c-2.95-2.88-1-7.66-2.12-11.36c-0.75-1.85-1.67-3.62-2.72-5.31c-0.32-0.28-0.94-0.84-1.25-1.12
	c-5.86-2.14-12.38-2.03-18.53-1.65c3.23,0.78,6.62,0.44,9.83,1.2c5.45,2.06,6.45,8.66,11.32,11.39c0.11,1.1-0.54,1.88-1.34,2.54
	c-0.08,0.64-0.23,1.93-0.31,2.57c-0.11,0.38-0.33,1.14-0.44,1.53c0.86,2.95,0.34,5.92-1.25,8.53c-3.01,1.85-5.69,4.9-9.52,4.74
	c-4.29,0.06-8.73,1.2-12.9-0.3c-1.57-0.47-3.3-0.68-4.62-1.73c-1.52-1.25-1.51-3.35-1.89-5.11c-0.52-0.55-1.58-1.65-2.11-2.21
	c-1.11-7.12-1.64-16.18,5.39-20.53c-1.12,0.04-2.24,0.07-3.35,0.1c-1.06,1.14-2.12,2.27-3.17,3.4c-1.37-0.87-2.57-2.02-2.84-3.69
	c3.31-5.97,9.28-10.23,15.57-12.71c4.85-1.22,9.78,0.64,14.7,0.33c1.05,0.77,2.12,1.53,3.26,2.18c4.45,2.79,9.14,5.35,13.03,8.92
	c2.45-1.93,4.72-4.11,7.44-5.67C167.4,79.49,171.74,78.75,175.54,76.67 M132.26,78.66c0.26,0.2,0.78,0.62,1.04,0.83
	c0.62-0.48,1.25-0.96,1.88-1.44c3.3-0.38,5.71,3.07,9.11,3.01C141.09,78.53,136.04,75.81,132.26,78.66 M120.61,102.52
	c2.21,0.18,3.82,1.78,5.63,2.87c-1.68-3.39,1.7-7.5,5.3-6.05c3.29,0.46,2.09,4.4,2.29,6.69c-0.86,0.81-1.73,1.63-2.58,2.46
	c-1.72-0.05-3.44-0.08-5.16-0.16c-0.77-1.38-1.84-2.5-3.31-3.11c-1.29-1.33-2.63-2.61-3.89-3.97c-0.61-0.02-1.83-0.06-2.44-0.08
	c0.18,1.59-0.28,3.4,0.72,4.8c-0.35,3.71,1.51,7.521,4.71,9.42c5.7,0.49,11.6,0.22,16.63-2.81c-0.36-0.46-1.08-1.38-1.45-1.84
	c0.54,0.43,1.62,1.3,2.16,1.74c1.81-0.51,4.03-2.85,0.59-2.36c-2.14-1.75-5.13-0.97-7.65-1.49c0.96-0.37,1.92-0.73,2.89-1.08
	c2.38,0.71,5.14,0.48,7.11,2.22c0.44-1.49,1.37-2.67,2.5-3.72c0.12-2.09-1.73-2.76-3.48-2.6c0.13-2.01-0.33-3.97-1.42-5.65
	c-0.05-0.32-0.14-0.96-0.19-1.29c-0.61-0.05-1.85-0.15-2.47-0.2c-2.77-2.13-6.29-2.84-9.14-4.82
	C124.42,94.14,120.93,97.91,120.61,102.52z"/>
<path fill="#D0D2CF" d="M192.16,72.85c1.609,0.58,3.311,0.15,4.88-0.31c3.21,1.42,6.62,3.45,10.09,1.49
	c0.271,0.439,0.81,1.32,1.08,1.76c-0.96,0.39-1.92,0.79-2.88,1.18c-2.83-0.31-5.689-0.56-8.54-0.27c1.14-0.8,2.229-1.65,3.33-2.51
	c-3.86-0.51-6.58,2.6-9.94,3.84c-5.18,2.66-11.14,3.26-16.209,6.09c-4.351,0.64-7.57,3.79-10.421,6.87
	c-3.1-0.05-6.35,1.83-9.06-0.61c-0.86-0.67-1.68-1.37-2.51-2.06c1.55,0.14,3.1,0.58,4.66,0.39c3.09-1.8,5.34-4.84,8.719-6.16
	c2.971-1.12,6.041-1.94,9.041-2.99c4.52-3.29,10.459-3.25,15.57-5.23c0.379,0.33,1.119,1,1.5,1.33
	C191.689,74.72,191.92,73.78,192.16,72.85z"/>
<path fill="#000200" d="M190.18,78.03c3.36-1.24,6.08-4.35,9.94-3.84c-1.101,0.86-2.19,1.71-3.33,2.51
	c-7.601,4.81-16.42,6.87-24.78,9.91c-2.02,1.08-3.939,2.4-5.529,4.06c-0.971,1.43-1.86,2.92-2.86,4.33
	c-0.22-1.33-0.25-2.67-0.07-4.01c2.851-3.08,6.07-6.23,10.421-6.87C179.04,81.29,185,80.69,190.18,78.03z"/>
<path fill="#FCFDFA" d="M196.79,76.7c2.851-0.29,5.71-0.04,8.54,0.27c-2.17,0.88-4.28,1.91-6.24,3.2
	c-4.73,3.1-10.32,4.55-15.061,7.63c-2.75,0.4-5.52,0.59-8.299,0.65c-1.211-0.68-2.461-1.28-3.721-1.84
	C180.37,83.57,189.189,81.51,196.79,76.7z"/>
<path fill="#000200" d="M205.33,76.97c0.96-0.39,1.92-0.79,2.88-1.18c0.479-0.2,1.45-0.58,1.94-0.78
	c1.149,2.13,2.699,3.98,5.05,4.81c0.159,1.56,0.35,3.11,0.479,4.68c-2.85-1.55-5.67-3.18-8.529-4.71
	c-6.18,4.19-13.311,6.81-19.2,11.44c-4.24,1.17-8.11,4.5-12.74,3.37l-0.94-2.51c-1.229,2.48-1.83,5.18-2.34,7.88
	c-1.51,4.48-2.07,9.15-2.83,13.79c-0.33-0.33-0.99-1-1.33-1.33c-0.689-4.55,1.061-8.96,2.32-13.25c0.96-2.95,1.16-6.36,3.71-8.5
	c2.7-1.97,6.2-1.14,9.21-2.22l1.02-0.66c4.74-3.08,10.33-4.53,15.061-7.63C201.05,78.88,203.16,77.85,205.33,76.97 M175.16,91.22
	C175.77,91.8,175.77,91.8,175.16,91.22z"/>
<path fill="#D0D2CF" d="M132.26,78.66c3.78-2.85,8.83-0.13,12.03,2.4c-3.4,0.06-5.81-3.39-9.11-3.01c-0.63,0.48-1.26,0.96-1.88,1.44
	C133.04,79.28,132.52,78.86,132.26,78.66z"/>
<path fill="#D0D2CF" d="M187.95,91.23c5.89-4.63,13.021-7.25,19.2-11.44c2.859,1.53,5.68,3.16,8.529,4.71
	c-0.209,1.41-0.49,2.82-0.97,4.18c-2.33,0.94-5.34-1.35-7.22,0.31c2.16,3.85,1.689,8.53,4.119,12.229
	c-0.969,3.11-1.729,6.271-2.08,9.51c-0.559,0.12-1.67,0.36-2.229,0.48c0.46-0.25,1.37-0.76,1.83-1.01
	c0.601-5.53,1.45-11.6-1.69-16.56c-2-1.98-4.319-4.45-7.39-4.18c-3.39,0.14-6.95,0.67-9.89,2.44c-4.43,3.88-9.381,8.76-8.78,15.2
	c-1.62,1.52-3.95,3.73-6.13,1.71c-1.529-3.51,0.45-6.97,2.689-9.59c-0.6-0.11-1.819-0.32-2.43-0.42c-0.46-0.51-1.369-1.54-1.83-2.05
	c-0.67,1.03-1.25,2.1-1.75,3.22c0.51-2.7,1.11-5.4,2.34-7.88l0.94,2.51C179.84,95.73,183.71,92.4,187.95,91.23z"/>
<path fill="#D0D2CF" d="M125.93,82.62c3.21-1.39,6.76-1.71,10.12-0.64c4.17,1.38,9.04,1.43,12.41,4.57
	c2.53,2.26,3.05,5.79,4.31,8.78c-0.23,1.67-0.41,3.34-0.53,5.02l-0.27-1.19c-0.82-4.55-1.73-9.63-5.43-12.78
	c-6.07-3.24-13.18-2.4-19.81-2.76c-0.98,0.75-1.96,1.51-2.95,2.27C124.5,84.8,125.22,83.72,125.93,82.62z"/>
<path fill="#D0D2CF" d="M126.7,85.86c6.15-0.38,12.67-0.49,18.53,1.65c-2.14,0.96,0.65,3.48,1.25,1.12
	c1.05,1.69,1.97,3.46,2.72,5.31c-0.5,1.48-1.03,2.97-1.35,4.51c-4.87-2.73-5.87-9.33-11.32-11.39
	C133.32,86.3,129.93,86.64,126.7,85.86z"/>
<path fill="#D0D2CF" d="M166.48,90.67c1.59-1.66,3.51-2.98,5.529-4.06c1.26,0.56,2.51,1.16,3.721,1.84
	c2.779-0.06,5.549-0.25,8.299-0.65l-1.02,0.66c-3.01,1.08-6.51,0.25-9.21,2.22C171.37,90.96,168.91,90.95,166.48,90.67z"/>
<path fill="#DE3D21" d="M108.89,91.66c0.18-1.13,0.33-2.26,0.61-3.37c0.27,1.67,1.47,2.82,2.84,3.69c1.05-1.13,2.11-2.26,3.17-3.4
	c1.11-0.03,2.23-0.06,3.35-0.1c-7.03,4.35-6.5,13.41-5.39,20.53c-1.04-5.39-2.71-11.13-0.72-16.52
	C111.46,92.2,110.17,91.93,108.89,91.66z"/>
<path fill="#FCFDFA" d="M146.48,88.63c-0.6,2.36-3.39-0.16-1.25-1.12C145.54,87.79,146.16,88.35,146.48,88.63z"/>
<path fill="#000200" d="M190.16,91.9c2.939-1.77,6.5-2.3,9.89-2.44c3.07-0.27,5.39,2.2,7.39,4.18c3.141,4.96,2.291,11.03,1.69,16.56
	c-0.46,0.25-1.37,0.76-1.83,1.01c-4.229,2.94-9.069,4.92-14.05,6.16c-1.2,0.3-2.4,0.6-3.57,0.98c-0.56,0.02-1.689,0.06-2.25,0.09
	c-0.029-0.53-0.1-1.57-0.14-2.09c1.92-0.15,3.83-0.33,5.739-0.56c-2.02-2.02-5.149-1.04-7.469-2.4c-1.41-0.76-2.541-1.94-3.69-3.01
	c2.28-0.4,4.239,0.49,5.87,2c5.16-0.08,10.439,0.61,15.439-1.02c0.521-1.28,1.051-2.55,1.59-3.82c0.44-0.09,1.301-0.27,1.73-0.36
	c0.07-2.25,0.221-4.5,0.189-6.75c-1.369,1.83-0.799,4.2-0.899,6.31c-3.92-0.271-7.33,1.8-10.95,2.83
	c-4.39,0.46-8.859-0.39-13.199,0.66c-0.111-1.04-0.201-2.09-0.261-3.13C180.779,100.66,185.73,95.78,190.16,91.9 M198.43,91.09
	c0.15,1.34,0.86,1.6,2.131,0.77C200.4,90.53,199.689,90.27,198.43,91.09 M183.25,107.46c2.46-0.06,4.92-0.05,7.38,0.03
	c0.25-1.59,0.54-3.17,0.92-4.73c0.9-0.54,1.79-1.08,2.681-1.64c2.229,0.39,4.39,1.39,5.439,3.51c1.62-0.4,3.24-0.82,4.891-1.12
	c-0.261-2.31,0.189-4.91-1.17-6.94c-3.281-3.27-8.261-2.32-12.4-2.1C186.95,97.54,183.5,102.29,183.25,107.46z"/>
<path fill="#D0D2CF" d="M175.16,91.22C175.77,91.8,175.77,91.8,175.16,91.22z"/>
<path fill="#DE3D21" d="M198.43,91.09c1.26-0.82,1.971-0.56,2.131,0.77C199.29,92.69,198.58,92.43,198.43,91.09z"/>
<path fill="#FCFDFA" d="M120.61,102.52c0.32-4.61,3.81-8.38,7.35-11.03c2.85,1.979,6.37,2.69,9.14,4.82
	c0.62,0.05,1.86,0.15,2.47,0.2c0.05,0.33,0.14,0.97,0.19,1.29c-0.03,1.61,0.84,3.49-0.08,4.96c-1.76,1.4-3.87,2.5-4.63,4.79
	c-0.97,0.35-1.93,0.71-2.89,1.08c2.52,0.52,5.51-0.26,7.65,1.49c3.44-0.49,1.22,1.85-0.59,2.36c-0.54-0.44-1.62-1.31-2.16-1.74
	c0.37,0.46,1.09,1.38,1.45,1.84c-5.03,3.03-10.93,3.3-16.63,2.81c-3.2-1.9-5.06-5.71-4.71-9.42c-1-1.4-0.54-3.21-0.72-4.8
	c0.61,0.02,1.83,0.06,2.44,0.08c1.26,1.36,2.6,2.64,3.89,3.97c1.47,0.61,2.54,1.73,3.31,3.11c1.72,0.08,3.44,0.11,5.16,0.16
	c0.85-0.83,1.72-1.65,2.58-2.46c-0.2-2.29,1-6.23-2.29-6.69c-3.6-1.45-6.98,2.66-5.3,6.05C124.43,104.3,122.82,102.7,120.61,102.52z
	"/>
<path fill="#FCFDFA" d="M183.25,107.46c0.25-5.17,3.7-9.92,7.74-12.99c4.14-0.22,9.119-1.17,12.4,2.1
	c1.359,2.03,0.909,4.63,1.17,6.94c-1.65,0.3-3.271,0.72-4.891,1.12c-1.05-2.12-3.21-3.12-5.439-3.51
	c-0.891,0.56-1.78,1.1-2.681,1.64c-0.38,1.56-0.67,3.14-0.92,4.73C188.17,107.41,185.71,107.4,183.25,107.46z"/>
<path fill="#DE3D21" d="M254.67,97.41c2.73-3.52,8.42-5.24,12.1-2.2c3.271,2.6,2.461,7.16,2.57,10.83c-0.14,3.15,0.4,6.86-1.89,9.41
	c-3.88,3.1-10.011,2.07-12.761-2.06C254.65,108.07,254.65,102.74,254.67,97.41z"/>
<path fill="#DE3D21" d="M287.52,94.4c5.461-0.12,10.92,0.29,16.381-0.11c0.399,2.2,0.74,4.42,1.08,6.64
	c0.379-2.1,0.59-4.23,0.68-6.37c2.07-0.12,4.16-0.19,6.25-0.24c-0.61,5.04-2.87,9.68-3.7,14.66c-0.11,1.95-0.46,4.23,1.07,5.75
	l-1.141-0.34c0.04,0.51,0.13,1.53,0.17,2.04c-2.239,0.06-4.489,0.07-6.729,0.01c0.609-6.42-0.85-12.65-3.189-18.59
	c-0.23,0.25-0.711,0.74-0.94,0.98c0.61,5.96,2.47,11.79,2.21,17.83c-2.631-0.15-5.561,0.29-7.689-1.61
	c-0.211,0.33-0.631,0.99-0.851,1.32c-3.95,0.29-7.97,0.3-11.931,0.01c-0.369-0.29-1.1-0.86-1.459-1.14
	c-0.82,0.63-1.631,1.27-2.431,1.91c-1.271,0.06-2.54,0.12-3.8,0.2c-1.54-2.17-0.99-4.91-1.061-7.39
	c0.11-5.22-0.209-10.43,0.121-15.64c2.049,0.02,4.109,0.05,6.17,0.08c0.049,2.06,0.09,4.12,0.06,6.18c0.069-0.02,0.22-0.07,0.3-0.1
	c0.381-2.04,0.93-4.05,1.6-6.01c2.08-0.04,4.15-0.09,6.23-0.12c-0.061,4.11-3.439,7.53-2.59,11.71c0.42,2.76,2.15,5.14,2.35,7.95
	C285.95,107.53,286.58,100.94,287.52,94.4z"/>
<path fill="#D0D2CF" d="M139.76,97.8c1.09,1.68,1.55,3.64,1.42,5.65c1.75-0.16,3.6,0.51,3.48,2.6c-1.13,1.05-2.06,2.23-2.5,3.72
	c-1.97-1.74-4.73-1.51-7.11-2.22c0.76-2.29,2.87-3.39,4.63-4.79C140.6,101.29,139.73,99.41,139.76,97.8z"/>
<path fill="#000200" d="M148.11,111.29c0.79-0.37,1.57-0.74,2.35-1.11c0,1.01-0.08,2.02-0.23,3.02c-1.29,0.42-2.57,0.88-3.83,1.36
	c-0.04,0.59-0.12,1.77-0.16,2.36c-2.28,1.46-3.77,3.83-6,5.33c-5.86,2.26-12.19,1.9-18.33,1.66c-3.61-1.85-6.77-4.49-10.42-6.3
	c-0.46-1.22-0.91-2.44-1.37-3.65c-0.69-0.12-2.06-0.37-2.74-0.49c0.39-0.9-0.1-2.58,1.27-2.7c1.17,0.48,3.02,0.28,3.66,1.63
	c1.46,2.94,3.6,5.44,5.71,7.92c7.02,1.831,14.33,0.831,21.43,0.05c2.18-0.61,3.46-2.49,4.66-4.26c1.35-1.96,4.86-1.57,5.34-4.17
	C149.11,111.77,148.45,111.45,148.11,111.29z"/>
<path fill="#D0D2CF" d="M179.99,117.46c0.529-1.35,1.08-2.71,1.63-4.06c0.8,0.19,2.409,0.56,3.21,0.74
	c0.939,2.28,1.43,5.38,4.35,5.81l0.5-1.6c1.17-0.38,2.37-0.68,3.57-0.98c1.95,1.91,4.91,1.51,7.359,1.06
	c2.32-1.16,3.99-3.5,6.611-4.06c2.359,0.55,3.159,4.5,0.939,5.7c-4.23,3.42-9.971,2.831-15.04,2.67
	C188.21,122.62,184.24,119.48,179.99,117.46z"/>
<path fill="#000200" d="M167.08,115c1.42-1.59,2.73,0.31,3.35,1.53c0.961,1.86,2.521,3.95,1.641,6.149
	c-0.24,0.76-0.471,1.521-0.7,2.29c0.81,0.82,1.409,1.78,1.83,2.86c-2.87-0.641-5.78-1.09-8.71-1.26c0.529-0.66,1.08-1.301,1.65-1.92
	c1.799-0.36,4.969-0.971,3.969-3.58C170.09,118.6,167.73,117.19,167.08,115z"/>
<path fill="#DE3D21" d="M81.41,118.1c0.51,0.04,1.52,0.11,2.03,0.15c0,9.63-0.6,19.33,0.97,28.87
	C82.56,137.57,79.3,127.9,81.41,118.1z"/>
<path fill="#000200" d="M172.85,117.96c2.01-0.05,2.211,3.31,1.811,4.79l-0.381-0.01C173.37,121.45,171.95,119.56,172.85,117.96z"/>
<path fill="#D0D2CF" d="M172.07,122.68c0.55,0.021,1.66,0.051,2.209,0.061l0.381,0.01c-0.189,0.57-0.551,1.7-0.74,2.27
	c0.29,0.24,0.859,0.711,1.141,0.95c0.26,0.22,0.76,0.66,1.02,0.88c-1.38,1.4-2.4,3.08-3.7,4.541c-3.96,2.079-8.19-0.551-12.3-0.531
	c-1.77-0.469-4.87,0.32-5.49-1.949c0.35-0.63,1.05-1.88,1.4-2.5c0.46-0.61,0.91-1.24,1.36-1.85l0.62-0.871
	c2.74-0.129,5.69-0.569,8.17,0.961c-0.57,0.619-1.121,1.26-1.65,1.92c2.93,0.17,5.84,0.619,8.71,1.26
	c-0.421-1.08-1.021-2.04-1.83-2.86C171.6,124.2,171.83,123.439,172.07,122.68z"/>
<path fill="#000200" d="M154.2,124.15c0.78,0.1,2.36,0.31,3.15,0.41c-0.45,0.609-0.9,1.239-1.36,1.85l-1.34,0.199
	C154.54,125.99,154.31,124.77,154.2,124.15z"/>
<path fill="#000200" d="M175.061,125.97c0.539-1.47,1.42-1.739,2.64-0.819c0.39,1.439-0.15,2-1.62,1.699
	C175.82,126.63,175.32,126.189,175.061,125.97z"/>
<path fill="#000200" d="M153.16,139.15c1.35-5.32,7.99-4.03,12.15-4.36c1.16,1.71,2.629,3.33,2.649,5.521
	c-2.84-1.841-7.5-4.78-9.98-1.03c-1.82,0.87-3.58,1.86-5.26,2.97l0.15-2.109l-1.97,0.56C151.65,140.18,152.4,139.67,153.16,139.15z"
	/>
<path fill="#D0D2CF" d="M179.18,136.1C182.17,134.57,179.311,139.43,179.18,136.1z"/>
<path fill="#D0D2CF" d="M157.98,139.28c2.48-3.75,7.14-0.811,9.98,1.03c-0.78,0.789-1.54,1.59-2.3,2.409
	c-1.7-0.11-3.11-1.04-4.54-1.88c-2.39,2.33-6.18,5.07-9.12,1.87l0.72-0.46C154.4,141.141,156.16,140.15,157.98,139.28z"/>
<path fill="#D0D2CF" d="M138.26,163.48c1.36,0.25,1.59,0.959,0.69,2.129C137.59,165.359,137.36,164.65,138.26,163.48z"/>
<path fill="#D0D2CF" d="M140.22,165.04C143.23,163.54,140.31,168.359,140.22,165.04z"/>
<path fill="#000200" d="M176.13,181.859c0.521-1.42,1.2-2.779,1.99-4.069c0.83,1.5,0.56,3.19,0.13,4.76
	c-1.87,3.48-3.439,7.67-7.221,9.5c-3.049,1.63-5.449,4.49-8.979,5.14c-5.88,0.9-12.14-0.479-16.79-4.279
	c-0.27-0.25-0.82-0.74-1.09-0.99c0.08-0.561,0.23-1.68,0.31-2.24c1.1,0.84,2.22,1.67,3.34,2.49c4.75,3.29,11.4,4.73,16.741,2.061
	c1.84-1.391,3.59-2.92,5.689-3.931C173.43,188.609,174.811,185,176.13,181.859z"/>
<path fill="#D0D2CF" d="M169.55,188.53c1.58-2.73,3.61-5.36,6.58-6.671c-1.319,3.141-2.7,6.75-5.88,8.44
	C170.07,189.859,169.721,188.97,169.55,188.53z"/>
<path fill="#D0D2CF" d="M178.25,182.55c1.109,0.49,1.609,1.33,1.49,2.53c0.33,5.859-2.67,11.1-4.26,16.57
	c-0.461,2.05-2.66,2.59-4.17,3.64c-1.761,0.89-3.16,2.88-5.36,2.521c-2.431,0.06-3.64-2.74-6.04-2.92
	c-5.19-1.171-10.51-2.75-14.78-6.041c-0.78-1.869,0.11-3.99,0.13-5.939c4.65,3.8,10.91,5.18,16.79,4.279
	c3.53-0.649,5.931-3.51,8.979-5.14C174.811,190.22,176.38,186.03,178.25,182.55 M161.89,200.54c2,2.37,5.831,1.01,8.18-0.21
	C167.34,200.24,164.609,200.3,161.89,200.54z"/>
<path fill="#D0D2CF" d="M142.82,191.92c0.3-3.27,4.11-3.6,6.25-1.8c-0.32,0.51-0.94,1.53-1.25,2.05c-1.12-0.82-2.24-1.65-3.34-2.49
	c-0.08,0.561-0.23,1.68-0.31,2.24H142.82z"/>
<path fill="#FCFDFA" d="M161.89,200.54c2.719-0.24,5.45-0.3,8.18-0.21C167.721,201.55,163.891,202.91,161.89,200.54z"/>
<path fill="#FCFDFA" d="M201.6,205.58c5.101,6.279,6.711,14.66,12.051,20.79c3.68,4.31,7.199,8.75,10.1,13.63h-4.21
	c-6.78-1.439-13.729,0.02-20.55-0.88c-3.36-2.75-7.561-3.06-11.74-2.96c-0.45-2.07-0.93-4.13-1.609-6.13l-0.121-0.351
	c2-1.42,3.391-3.439,4.551-5.56C194.08,218.05,197.98,211.9,201.6,205.58z"/>
</svg>
