<?xml version="1.0" encoding="UTF-8" ?>
<!DOCTYPE svg PUBLIC "-//W3C//DTD SVG 1.1//EN" "http://www.w3.org/Graphics/SVG/1.1/DTD/svg11.dtd">
<svg width="1003pt" height="1114pt" viewBox="0 0 1003 1114" version="1.1" xmlns="http://www.w3.org/2000/svg">
<path fill="#ffffff" opacity="1.00" d=" M 0.00 0.00 L 1003.00 0.00 L 1003.00 1114.00 L 913.97 1114.00 C 925.02 1076.64 940.69 1040.91 956.26 1005.27 C 971.75 969.61 986.51 933.38 995.46 895.44 C 997.11 895.40 998.76 895.37 1000.44 895.35 C 1000.52 876.89 1000.57 858.42 1000.42 839.96 C 997.37 838.27 994.37 836.47 991.35 834.74 C 987.24 833.51 982.11 834.65 978.95 831.07 C 974.68 826.38 976.58 819.47 977.92 813.99 C 981.64 803.39 979.93 792.02 980.64 781.03 C 981.63 727.03 982.54 672.98 980.95 618.97 C 979.99 589.98 978.28 561.00 974.90 532.18 C 971.39 504.16 961.13 477.49 948.77 452.27 C 937.12 428.45 923.42 405.71 910.28 382.70 C 902.23 368.46 894.30 354.12 887.88 339.06 C 878.53 316.91 873.54 293.30 867.83 270.04 C 863.63 254.17 859.43 237.79 849.92 224.14 C 838.82 207.84 824.26 194.36 811.98 179.00 C 788.83 149.97 769.63 117.89 744.84 90.14 C 728.61 71.92 709.26 55.98 686.64 46.41 C 683.53 45.57 684.78 41.64 685.60 39.49 C 687.91 35.60 692.64 34.09 695.31 30.46 C 654.20 12.33 608.69 6.18 564.03 7.91 C 512.93 9.85 462.67 20.84 413.53 34.42 C 392.48 40.26 371.66 46.89 351.08 54.20 C 334.25 60.24 317.51 66.66 301.37 74.39 C 285.30 82.01 270.67 92.56 258.09 105.11 C 243.46 119.41 231.42 136.04 219.83 152.81 C 208.82 168.63 198.32 184.98 185.01 199.01 C 183.34 200.60 181.87 202.54 179.77 203.59 C 165.46 208.75 150.06 209.37 135.02 208.67 C 132.12 210.69 130.67 214.36 131.03 217.85 C 135.28 219.57 139.90 219.36 144.39 219.23 C 141.31 222.16 137.17 223.58 133.02 224.13 C 116.37 226.21 99.69 221.18 83.06 223.41 C 76.96 224.16 69.97 227.27 68.66 233.92 C 70.73 236.30 73.83 237.39 76.76 238.27 C 84.64 240.56 92.92 239.74 101.01 239.81 C 113.88 239.36 126.75 237.79 139.63 238.99 C 126.26 265.41 107.88 288.83 91.28 313.25 C 84.89 322.19 79.40 331.73 73.25 340.83 C 70.90 338.24 69.00 335.14 68.63 331.59 C 67.17 320.48 70.17 309.28 68.58 298.17 C 68.09 294.83 66.53 291.56 63.54 289.79 C 64.67 303.63 63.96 317.64 61.04 331.23 C 56.34 354.83 46.05 376.79 39.86 399.97 C 35.15 417.18 33.59 435.68 38.21 453.08 C 40.28 452.58 42.74 451.90 43.37 449.56 C 45.63 441.37 41.35 432.79 43.63 424.60 C 45.06 420.56 49.87 421.48 53.17 421.87 C 45.96 463.17 30.25 502.52 23.90 544.01 C 20.44 565.60 19.64 587.69 22.58 609.39 C 22.92 618.89 22.86 628.42 22.36 637.91 C 22.07 642.06 22.10 646.36 20.41 650.25 C 17.76 640.91 17.60 631.09 16.80 621.47 C 14.44 574.99 17.70 528.49 18.79 482.01 C 19.35 463.10 19.66 444.14 18.28 425.25 C 18.46 420.86 13.65 417.01 9.43 417.74 C 8.21 423.15 8.11 429.94 2.50 432.88 C 2.50 455.59 2.51 478.30 2.49 501.01 C 2.49 505.96 4.03 510.72 4.67 515.60 C 8.13 538.56 8.95 561.85 8.75 585.04 C 8.37 603.80 7.35 622.59 4.34 641.12 C 3.67 645.40 2.41 649.63 2.48 654.00 C 2.58 672.31 2.10 690.64 3.47 708.92 C 6.53 761.37 13.17 813.88 27.57 864.52 C 39.39 905.75 56.71 945.90 82.67 980.28 C 83.83 981.55 83.79 983.32 83.78 984.94 C 82.50 1016.85 86.56 1049.24 97.82 1079.24 C 102.33 1091.27 107.90 1102.91 114.38 1114.00 L 0.00 1114.00 L 0.00 0.00 Z" />
<path fill="#000000" opacity="1.00" d=" M 413.53 34.42 C 462.67 20.84 512.93 9.85 564.03 7.91 C 608.69 6.18 654.20 12.33 695.31 30.46 C 692.64 34.09 687.91 35.60 685.60 39.49 C 684.78 41.64 683.53 45.57 686.64 46.41 C 709.26 55.98 728.61 71.92 744.84 90.14 C 769.63 117.89 788.83 149.97 811.98 179.00 C 824.26 194.36 838.82 207.84 849.92 224.14 C 859.43 237.79 863.63 254.17 867.83 270.04 C 873.54 293.30 878.53 316.91 887.88 339.06 C 894.30 354.12 902.23 368.46 910.28 382.70 C 923.42 405.71 937.12 428.45 948.77 452.27 C 961.13 477.49 971.39 504.16 974.90 532.18 C 978.28 561.00 979.99 589.98 980.95 618.97 C 982.54 672.98 981.63 727.03 980.64 781.03 C 979.93 792.02 981.64 803.39 977.92 813.99 C 976.58 819.47 974.68 826.38 978.95 831.07 C 982.11 834.65 987.24 833.51 991.35 834.74 C 994.37 836.47 997.37 838.27 1000.42 839.96 C 1000.57 858.42 1000.52 876.89 1000.44 895.35 C 998.76 895.37 997.11 895.40 995.46 895.44 C 986.51 933.38 971.75 969.61 956.26 1005.27 C 940.69 1040.91 925.02 1076.64 913.97 1114.00 L 898.53 1114.00 C 905.87 1073.84 917.48 1034.57 931.20 996.15 C 938.66 976.87 949.27 959.04 958.53 940.61 C 963.98 929.33 969.29 917.64 970.58 905.04 C 972.82 881.51 966.72 858.37 965.04 835.02 C 961.98 786.52 968.45 737.96 965.37 689.47 C 961.60 644.78 951.24 600.95 939.03 557.90 C 927.75 518.47 914.80 479.55 902.87 440.33 C 892.54 406.72 877.66 374.74 861.31 343.69 C 843.17 308.80 822.13 275.33 806.88 239.01 C 814.33 239.39 821.45 243.06 826.07 248.91 C 834.11 259.00 836.77 272.19 844.54 282.45 C 846.72 285.33 849.45 287.79 852.60 289.58 C 852.94 276.29 848.64 263.00 840.66 252.38 C 832.31 241.14 821.49 232.04 813.12 220.81 C 812.67 226.55 809.59 233.23 803.25 234.11 C 798.43 218.62 792.63 203.44 786.57 188.39 C 774.00 157.66 758.69 127.49 736.55 102.47 C 722.63 86.72 705.96 73.33 687.17 63.86 C 681.33 61.20 675.59 57.79 669.32 56.45 C 657.14 64.10 646.75 74.68 639.06 86.83 C 645.55 91.21 653.91 90.56 660.63 94.33 C 665.06 96.84 665.36 102.46 664.73 106.95 C 656.43 108.33 647.94 108.11 639.70 106.54 C 629.86 104.65 620.10 101.58 609.98 101.92 C 608.33 101.82 606.99 102.85 605.71 103.71 C 597.51 109.49 590.62 117.37 586.89 126.76 C 576.51 153.47 586.73 182.81 579.14 210.04 C 575.56 223.21 566.85 234.06 558.64 244.65 C 547.18 259.08 535.14 273.34 526.99 289.99 C 519.27 305.34 515.53 322.86 517.53 340.01 C 518.16 347.31 520.15 354.38 521.93 361.46 C 513.86 364.57 506.10 368.65 497.57 370.44 C 490.51 372.20 483.18 371.80 475.97 371.62 C 479.42 363.93 482.33 355.50 480.82 346.96 C 478.10 329.18 463.44 315.90 460.95 298.04 C 459.13 281.97 462.44 265.79 467.65 250.64 C 475.36 228.25 486.53 207.21 493.90 184.69 C 500.72 164.62 503.87 143.17 501.51 122.02 C 510.98 122.71 521.44 124.13 530.04 119.13 C 536.00 115.70 537.63 108.27 537.08 101.90 C 511.77 96.18 486.57 89.96 461.06 85.16 C 424.06 78.22 385.93 73.89 348.45 79.51 C 329.09 82.65 309.36 87.61 293.23 99.27 C 266.78 117.90 248.88 145.50 230.59 171.59 C 218.90 188.44 206.94 205.42 191.31 218.91 C 201.43 227.58 214.07 232.48 226.72 236.14 C 247.63 242.05 269.31 244.73 290.23 250.62 C 302.13 253.99 314.01 258.51 323.89 266.14 C 330.38 271.11 335.49 277.73 338.99 285.10 C 337.10 289.14 332.95 291.21 328.70 291.80 C 323.26 292.92 317.40 292.63 312.38 295.30 C 308.04 297.37 306.55 303.70 309.61 307.45 C 331.38 341.58 364.70 365.72 390.98 396.00 C 394.07 399.56 397.22 403.11 399.69 407.16 C 392.84 407.38 385.99 407.22 379.15 407.27 C 378.05 411.45 377.82 416.08 380.14 419.92 C 383.72 426.89 391.43 429.97 396.41 435.65 C 398.79 438.18 396.67 441.70 394.06 443.01 C 388.95 445.75 382.67 447.69 377.03 445.41 C 371.55 443.39 368.30 438.06 366.03 432.98 C 361.32 422.02 359.59 410.11 356.20 398.73 C 355.24 395.64 354.38 392.34 352.08 389.93 C 338.92 375.06 321.68 363.56 302.42 358.37 C 282.77 352.72 261.61 354.03 242.22 360.13 C 213.01 369.27 187.35 389.01 170.58 414.58 C 156.95 435.28 149.33 460.16 150.39 485.01 C 152.05 505.00 164.93 521.64 169.10 540.99 C 170.77 547.12 170.57 553.49 171.11 559.77 C 175.57 559.05 180.19 557.80 183.51 554.55 C 189.62 549.24 193.64 540.92 201.99 538.72 C 208.29 537.73 215.22 537.74 220.90 541.05 C 229.14 545.24 235.45 552.90 238.17 561.73 C 242.04 574.19 240.56 587.65 237.01 600.01 C 233.83 611.00 228.72 621.41 221.92 630.62 C 237.52 630.70 253.19 629.07 268.31 625.09 C 284.68 620.64 299.86 611.89 311.64 599.64 C 323.90 587.29 333.50 572.68 343.52 558.54 C 355.99 540.63 369.37 523.33 380.61 504.59 C 390.53 488.28 398.78 470.70 402.65 451.91 C 405.81 437.10 405.99 421.84 404.76 406.80 C 411.92 408.56 417.63 414.22 419.82 421.21 C 423.99 433.98 422.08 447.69 420.46 460.75 C 419.55 469.49 417.59 478.14 414.31 486.30 C 407.33 504.26 395.70 519.88 383.81 534.85 C 374.21 546.63 364.78 558.55 355.85 570.86 C 344.81 585.68 333.81 600.62 320.83 613.83 C 310.15 624.58 297.72 633.55 284.18 640.35 C 281.99 641.50 279.46 641.37 277.07 641.58 C 258.46 643.34 239.54 643.01 221.17 639.30 C 203.76 635.44 186.55 628.00 173.97 615.04 C 166.52 607.76 160.89 598.80 156.80 589.27 C 153.79 582.95 152.99 575.91 152.97 568.99 C 152.30 552.46 154.22 534.86 146.41 519.62 C 142.68 511.16 136.33 503.70 134.90 494.36 C 132.37 466.96 137.43 438.71 150.30 414.30 C 165.28 385.72 190.47 362.87 219.90 349.81 C 250.18 336.15 285.04 332.66 317.35 340.54 C 312.92 335.05 307.81 330.16 303.17 324.85 C 285.76 305.60 268.09 286.02 246.01 271.98 C 223.81 257.56 197.37 250.02 170.97 249.60 C 168.80 252.72 167.55 256.36 165.52 259.57 C 155.34 276.52 140.21 289.62 125.57 302.60 C 112.73 314.03 99.73 325.50 89.13 339.11 C 78.47 352.78 70.56 368.91 68.13 386.17 C 66.28 404.24 71.74 422.28 69.21 440.35 C 66.47 458.59 58.22 475.29 51.23 492.16 C 44.97 506.99 39.24 522.35 37.80 538.51 C 35.30 564.65 38.06 590.87 38.50 617.04 C 39.59 641.35 36.37 665.64 37.76 689.96 C 38.44 709.27 42.79 728.20 48.21 746.67 C 54.97 769.27 52.98 793.26 58.03 816.17 C 67.32 855.38 86.52 891.45 95.53 930.74 C 98.23 942.45 99.62 954.47 99.53 966.49 C 120.16 987.83 138.14 1012.24 149.19 1039.94 C 150.29 1043.50 153.71 1045.37 156.46 1047.54 C 177.60 1062.83 202.59 1071.23 225.34 1083.66 C 239.50 1091.27 252.96 1100.88 262.52 1114.00 L 236.47 1114.00 C 236.48 1112.31 236.47 1110.64 236.47 1108.98 C 200.92 1093.67 167.91 1073.20 135.00 1053.03 C 131.25 1042.68 128.03 1032.03 122.63 1022.36 C 117.22 1012.36 109.76 1003.02 99.63 997.52 C 98.55 1027.87 105.00 1058.25 116.83 1086.13 C 120.82 1095.62 125.27 1104.91 130.09 1114.00 L 114.38 1114.00 C 107.90 1102.91 102.33 1091.27 97.82 1079.24 C 86.56 1049.24 82.50 1016.85 83.78 984.94 C 83.79 983.32 83.83 981.55 82.67 980.28 C 56.71 945.90 39.39 905.75 27.57 864.52 C 13.17 813.88 6.53 761.37 3.47 708.92 C 2.10 690.64 2.58 672.31 2.48 654.00 C 2.41 649.63 3.67 645.40 4.34 641.12 C 7.35 622.59 8.37 603.80 8.75 585.04 C 8.95 561.85 8.13 538.56 4.67 515.60 C 4.03 510.72 2.49 505.96 2.49 501.01 C 2.51 478.30 2.50 455.59 2.50 432.88 C 8.11 429.94 8.21 423.15 9.43 417.74 C 13.65 417.01 18.46 420.86 18.28 425.25 C 19.66 444.14 19.35 463.10 18.79 482.01 C 17.70 528.49 14.44 574.99 16.80 621.47 C 17.60 631.09 17.76 640.91 20.41 650.25 C 22.10 646.36 22.07 642.06 22.36 637.91 C 22.86 628.42 22.92 618.89 22.58 609.39 C 19.64 587.69 20.44 565.60 23.90 544.01 C 30.25 502.52 45.96 463.17 53.17 421.87 C 49.87 421.48 45.06 420.56 43.63 424.60 C 41.35 432.79 45.63 441.37 43.37 449.56 C 42.74 451.90 40.28 452.58 38.21 453.08 C 33.59 435.68 35.15 417.18 39.86 399.97 C 46.05 376.79 56.34 354.83 61.04 331.23 C 63.96 317.64 64.67 303.63 63.54 289.79 C 66.53 291.56 68.09 294.83 68.58 298.17 C 70.17 309.28 67.17 320.48 68.63 331.59 C 69.00 335.14 70.90 338.24 73.25 340.83 C 79.40 331.73 84.89 322.19 91.28 313.25 C 107.88 288.83 126.26 265.41 139.63 238.99 C 126.75 237.79 113.88 239.36 101.01 239.81 C 92.92 239.74 84.64 240.56 76.76 238.27 C 73.83 237.39 70.73 236.30 68.66 233.92 C 69.97 227.27 76.96 224.16 83.06 223.41 C 99.69 221.18 116.37 226.21 133.02 224.13 C 137.17 223.58 141.31 222.16 144.39 219.23 C 139.90 219.36 135.28 219.57 131.03 217.85 C 130.67 214.36 132.12 210.69 135.02 208.67 C 150.06 209.37 165.46 208.75 179.77 203.59 C 181.87 202.54 183.34 200.60 185.01 199.01 C 198.32 184.98 208.82 168.63 219.83 152.81 C 231.42 136.04 243.46 119.41 258.09 105.11 C 270.67 92.56 285.30 82.01 301.37 74.39 C 317.51 66.66 334.25 60.24 351.08 54.20 C 371.66 46.89 392.48 40.26 413.53 34.42 M 578.13 20.35 C 577.84 38.98 578.06 57.62 578.02 76.26 C 586.45 75.98 594.99 73.82 601.98 68.94 C 612.78 61.43 618.99 49.46 625.39 38.34 C 627.76 33.92 630.80 29.90 633.18 25.49 C 615.00 22.47 596.68 18.11 578.13 20.35 M 454.56 42.43 C 439.98 45.37 425.30 48.60 411.63 54.62 C 405.91 57.26 400.20 60.36 395.89 65.06 C 405.92 61.81 416.50 60.37 427.03 61.19 C 448.41 62.42 469.18 68.05 490.19 71.79 C 508.85 75.15 527.91 77.90 546.89 76.13 C 548.18 72.13 548.52 67.87 549.98 63.91 C 554.72 49.72 562.36 36.07 562.42 20.72 C 527.41 32.10 490.50 35.19 454.56 42.43 M 557.61 96.99 C 555.06 106.90 549.42 115.86 548.11 126.11 C 547.60 129.97 548.52 134.58 551.98 136.84 C 553.22 136.64 553.55 135.11 554.33 134.29 C 559.17 126.83 564.66 119.11 565.51 109.99 C 566.08 104.46 562.54 99.26 557.61 96.99 M 552.30 152.81 C 546.39 162.53 542.80 173.53 540.84 184.69 C 540.33 188.98 539.29 193.87 541.89 197.70 C 545.29 187.29 551.05 177.84 554.29 167.38 C 555.75 162.60 556.57 156.43 552.30 152.81 M 483.92 270.97 C 484.59 272.06 484.86 274.25 486.63 273.66 C 488.51 268.80 491.87 263.43 489.73 258.14 C 483.90 258.57 481.42 266.27 483.92 270.97 M 287.78 274.16 C 294.61 273.61 299.79 278.67 306.00 280.44 C 309.82 281.62 312.26 277.69 312.91 274.49 C 307.72 271.51 302.01 269.25 296.00 268.78 C 292.44 268.57 288.43 270.29 287.78 274.16 M 486.15 312.97 C 485.47 318.92 490.44 323.93 495.95 325.18 C 497.27 324.85 497.66 323.32 498.27 322.29 C 501.26 315.29 502.35 307.60 502.39 300.03 C 502.25 294.65 501.56 288.46 496.84 285.04 C 493.58 294.46 487.24 302.88 486.15 312.97 M 909.30 418.02 C 918.88 443.41 927.59 469.11 935.99 494.92 C 944.09 519.22 951.33 543.81 959.59 568.06 C 959.33 550.22 960.01 532.30 957.70 514.57 C 956.42 503.70 953.25 493.12 948.81 483.14 C 941.14 465.58 931.74 448.79 921.20 432.80 C 917.52 427.67 914.16 422.13 909.30 418.02 M 199.72 560.80 C 192.88 564.32 188.86 571.33 182.58 575.61 C 179.25 578.19 175.19 579.67 170.99 579.97 C 175.56 590.24 180.21 600.78 187.64 609.37 C 192.42 614.92 199.06 618.51 206.05 620.50 C 209.80 614.93 213.34 609.19 216.15 603.08 C 222.59 589.63 223.63 574.22 221.40 559.63 C 214.32 557.93 206.36 557.28 199.72 560.80 M 14.37 661.92 C 11.99 667.95 11.06 674.55 11.63 681.00 C 11.96 683.06 12.54 685.97 14.95 686.47 C 18.75 683.47 17.75 678.13 17.57 673.93 C 16.94 669.87 17.18 665.21 14.37 661.92 M 18.23 733.94 C 25.67 769.72 29.14 806.19 36.18 842.06 C 40.03 860.60 44.69 879.33 54.02 895.98 C 59.49 906.15 63.62 916.96 68.49 927.41 C 70.02 930.44 71.24 933.75 73.83 936.08 C 74.67 931.73 74.09 927.24 72.92 923.01 C 68.10 906.69 63.17 890.38 59.38 873.77 C 53.16 846.88 48.02 819.73 41.21 792.97 C 37.01 776.88 32.44 760.76 25.31 745.68 C 23.21 741.63 21.38 737.31 18.23 733.94 Z" />
<path fill="#ffffff" opacity="1.00" d=" M 578.13 20.35 C 596.68 18.11 615.00 22.47 633.18 25.49 C 630.80 29.90 627.76 33.92 625.39 38.34 C 618.99 49.46 612.78 61.43 601.98 68.94 C 594.99 73.82 586.45 75.98 578.02 76.26 C 578.06 57.62 577.84 38.98 578.13 20.35 Z" />
<path fill="#ffffff" opacity="1.00" d=" M 454.56 42.43 C 490.50 35.19 527.41 32.10 562.42 20.72 C 562.36 36.07 554.72 49.72 549.98 63.91 C 548.52 67.87 548.18 72.13 546.89 76.13 C 527.91 77.90 508.85 75.15 490.19 71.79 C 469.18 68.05 448.41 62.42 427.03 61.19 C 416.50 60.37 405.92 61.81 395.89 65.06 C 400.20 60.36 405.91 57.26 411.63 54.62 C 425.30 48.60 439.98 45.37 454.56 42.43 Z" />
<path fill="#ffffff" opacity="1.00" d=" M 669.32 56.45 C 675.59 57.79 681.33 61.20 687.17 63.86 C 705.96 73.33 722.63 86.72 736.55 102.47 C 758.69 127.49 774.00 157.66 786.57 188.39 C 792.63 203.44 798.43 218.62 803.25 234.11 C 809.59 233.23 812.67 226.55 813.12 220.81 C 821.49 232.04 832.31 241.14 840.66 252.38 C 848.64 263.00 852.94 276.29 852.60 289.58 C 849.45 287.79 846.72 285.33 844.54 282.45 C 836.77 272.19 834.11 259.00 826.07 248.91 C 821.45 243.06 814.33 239.39 806.88 239.01 C 822.13 275.33 843.17 308.80 861.31 343.69 C 877.66 374.74 892.54 406.72 902.87 440.33 C 914.80 479.55 927.75 518.47 939.03 557.90 C 951.24 600.95 961.60 644.78 965.37 689.47 C 968.45 737.96 961.98 786.52 965.04 835.02 C 966.72 858.37 972.82 881.51 970.58 905.04 C 969.29 917.64 963.98 929.33 958.53 940.61 C 949.27 959.04 938.66 976.87 931.20 996.15 C 917.48 1034.57 905.87 1073.84 898.53 1114.00 L 262.52 1114.00 C 252.96 1100.88 239.50 1091.27 225.34 1083.66 C 202.59 1071.23 177.60 1062.83 156.46 1047.54 C 153.71 1045.37 150.29 1043.50 149.19 1039.94 C 138.14 1012.24 120.16 987.83 99.53 966.49 C 99.62 954.47 98.23 942.45 95.53 930.74 C 86.52 891.45 67.32 855.38 58.03 816.17 C 52.98 793.26 54.97 769.27 48.21 746.67 C 42.79 728.20 38.44 709.27 37.76 689.96 C 36.37 665.64 39.59 641.35 38.50 617.04 C 38.06 590.87 35.30 564.65 37.80 538.51 C 39.24 522.35 44.97 506.99 51.23 492.16 C 58.22 475.29 66.47 458.59 69.21 440.35 C 71.74 422.28 66.28 404.24 68.13 386.17 C 70.56 368.91 78.47 352.78 89.13 339.11 C 99.73 325.50 112.73 314.03 125.57 302.60 C 140.21 289.62 155.34 276.52 165.52 259.57 C 167.55 256.36 168.80 252.72 170.97 249.60 C 197.37 250.02 223.81 257.56 246.01 271.98 C 268.09 286.02 285.76 305.60 303.17 324.85 C 307.81 330.16 312.92 335.05 317.35 340.54 C 285.04 332.66 250.18 336.15 219.90 349.81 C 190.47 362.87 165.28 385.72 150.30 414.30 C 137.43 438.71 132.37 466.96 134.90 494.36 C 136.33 503.70 142.68 511.16 146.41 519.62 C 154.22 534.86 152.30 552.46 152.97 568.99 C 152.99 575.91 153.79 582.95 156.80 589.27 C 160.89 598.80 166.52 607.76 173.97 615.04 C 186.55 628.00 203.76 635.44 221.17 639.30 C 239.54 643.01 258.46 643.34 277.07 641.58 C 279.46 641.37 281.99 641.50 284.18 640.35 C 297.72 633.55 310.15 624.58 320.83 613.83 C 333.81 600.62 344.81 585.68 355.85 570.86 C 364.78 558.55 374.21 546.63 383.81 534.85 C 395.70 519.88 407.33 504.26 414.31 486.30 C 417.59 478.14 419.55 469.49 420.46 460.75 C 422.08 447.69 423.99 433.98 419.82 421.21 C 417.63 414.22 411.92 408.56 404.76 406.80 C 405.99 421.84 405.81 437.10 402.65 451.91 C 398.78 470.70 390.53 488.28 380.61 504.59 C 369.37 523.33 355.99 540.63 343.52 558.54 C 333.50 572.68 323.90 587.29 311.64 599.64 C 299.86 611.89 284.68 620.64 268.31 625.09 C 253.19 629.07 237.52 630.70 221.92 630.62 C 228.72 621.41 233.83 611.00 237.01 600.01 C 240.56 587.65 242.04 574.19 238.17 561.73 C 235.45 552.90 229.14 545.24 220.90 541.05 C 215.22 537.74 208.29 537.73 201.99 538.72 C 193.64 540.92 189.62 549.24 183.51 554.55 C 180.19 557.80 175.57 559.05 171.11 559.77 C 170.57 553.49 170.77 547.12 169.10 540.99 C 164.93 521.64 152.05 505.00 150.39 485.01 C 149.33 460.16 156.95 435.28 170.58 414.58 C 187.35 389.01 213.01 369.27 242.22 360.13 C 261.61 354.03 282.77 352.72 302.42 358.37 C 321.68 363.56 338.92 375.06 352.08 389.93 C 354.38 392.34 355.24 395.64 356.20 398.73 C 359.59 410.11 361.32 422.02 366.03 432.98 C 368.30 438.06 371.55 443.39 377.03 445.41 C 382.67 447.69 388.95 445.75 394.06 443.01 C 396.67 441.70 398.79 438.18 396.41 435.65 C 391.43 429.97 383.72 426.89 380.14 419.92 C 377.82 416.08 378.05 411.45 379.15 407.27 C 385.99 407.22 392.84 407.38 399.69 407.16 C 397.22 403.11 394.07 399.56 390.98 396.00 C 364.70 365.72 331.38 341.58 309.61 307.45 C 306.55 303.70 308.04 297.37 312.38 295.30 C 317.40 292.63 323.26 292.92 328.70 291.80 C 332.95 291.21 337.10 289.14 338.99 285.10 C 335.49 277.73 330.38 271.11 323.89 266.14 C 314.01 258.51 302.13 253.99 290.23 250.62 C 269.31 244.73 247.63 242.05 226.72 236.14 C 214.07 232.48 201.43 227.58 191.31 218.91 C 206.94 205.42 218.90 188.44 230.59 171.59 C 248.88 145.50 266.78 117.90 293.23 99.27 C 309.36 87.61 329.09 82.65 348.45 79.51 C 385.93 73.89 424.06 78.22 461.06 85.16 C 486.57 89.96 511.77 96.18 537.08 101.90 C 537.63 108.27 536.00 115.70 530.04 119.13 C 521.44 124.13 510.98 122.71 501.51 122.02 C 503.87 143.17 500.72 164.62 493.90 184.69 C 486.53 207.21 475.36 228.25 467.65 250.64 C 462.44 265.79 459.13 281.97 460.95 298.04 C 463.44 315.90 478.10 329.18 480.82 346.96 C 482.33 355.50 479.42 363.93 475.97 371.62 C 483.18 371.80 490.51 372.20 497.57 370.44 C 506.10 368.65 513.86 364.57 521.93 361.46 C 520.15 354.38 518.16 347.31 517.53 340.01 C 515.53 322.86 519.27 305.34 526.99 289.99 C 535.14 273.34 547.18 259.08 558.64 244.65 C 566.85 234.06 575.56 223.21 579.14 210.04 C 586.73 182.81 576.51 153.47 586.89 126.76 C 590.62 117.37 597.51 109.49 605.71 103.71 C 606.99 102.85 608.33 101.82 609.98 101.92 C 620.10 101.58 629.86 104.65 639.70 106.54 C 647.94 108.11 656.43 108.33 664.73 106.95 C 665.36 102.46 665.06 96.84 660.63 94.33 C 653.91 90.56 645.55 91.21 639.06 86.83 C 646.75 74.68 657.14 64.10 669.32 56.45 M 646.04 190.06 C 638.40 193.69 632.02 200.11 629.13 208.13 C 628.42 209.87 630.27 211.77 632.00 211.62 C 636.20 211.49 640.04 209.47 643.85 207.88 C 647.09 206.55 650.36 204.34 654.04 205.18 C 653.02 208.67 651.04 211.88 648.46 214.43 C 622.41 235.53 595.70 256.25 573.74 281.76 C 561.08 296.53 549.93 312.95 543.26 331.34 C 537.17 347.93 534.81 366.09 537.68 383.59 C 541.45 396.35 548.20 407.96 554.43 419.64 C 564.32 437.09 574.50 454.45 586.32 470.68 C 595.39 481.71 607.00 490.43 619.21 497.71 C 638.29 508.75 659.37 516.04 680.93 520.43 C 720.39 528.73 761.19 528.70 801.08 523.97 C 805.92 520.64 809.66 515.92 814.23 512.22 C 828.62 499.33 843.37 486.58 855.26 471.26 C 856.42 469.66 857.93 468.10 857.99 466.01 C 859.07 456.38 859.66 446.68 859.51 436.99 C 859.62 414.37 853.86 392.04 844.44 371.56 C 835.92 353.07 827.19 334.64 816.87 317.07 C 808.02 302.01 797.73 287.83 786.48 274.47 C 772.99 258.34 758.59 242.99 745.49 226.53 C 739.22 218.79 733.26 210.78 726.47 203.49 C 720.77 197.39 714.33 191.58 706.31 188.79 C 698.80 186.35 690.95 185.03 683.09 184.46 C 670.58 183.59 657.47 184.50 646.04 190.06 M 448.89 514.80 C 431.66 525.87 417.40 540.99 405.48 557.53 C 382.60 589.35 367.12 626.58 361.62 665.44 C 353.12 717.71 352.30 770.94 343.09 823.12 C 336.43 860.41 323.50 896.21 309.13 931.15 C 298.42 957.62 286.75 983.77 278.12 1011.02 C 278.15 1011.42 278.22 1012.21 278.25 1012.60 C 286.13 1019.51 294.22 1026.25 302.99 1032.03 C 308.21 1035.22 313.73 1038.65 319.99 1039.05 C 324.08 1039.44 327.88 1036.06 328.27 1032.03 C 328.02 1027.64 325.90 1023.28 322.24 1020.74 C 316.12 1016.13 308.05 1014.91 302.28 1009.75 C 298.76 1006.41 296.82 1000.98 298.17 996.28 C 311.73 973.10 322.26 948.27 330.97 922.89 C 344.75 882.51 354.36 840.85 362.29 798.97 C 370.53 755.75 376.43 712.15 382.37 668.57 C 385.71 646.03 389.27 623.20 398.03 602.02 C 405.25 584.29 416.50 568.45 429.46 554.46 C 441.38 541.49 455.14 530.01 470.83 521.86 C 488.35 512.64 508.19 507.80 528.00 508.22 C 541.22 507.93 554.38 509.84 567.22 512.84 C 607.87 522.62 645.11 542.26 682.25 560.84 C 714.86 577.29 747.63 594.11 782.88 604.21 C 784.72 604.59 787.34 605.65 788.56 603.53 C 790.70 601.46 788.72 598.56 786.95 597.05 C 780.53 591.89 772.73 588.83 766.25 583.77 C 764.55 582.42 762.71 580.50 763.05 578.16 C 763.59 576.25 765.56 574.10 767.71 574.90 C 776.76 576.31 785.48 579.77 793.02 584.96 C 804.92 593.05 813.71 604.85 820.84 617.18 C 828.00 629.72 833.87 642.94 839.97 656.02 C 846.58 669.83 853.10 684.06 863.43 695.57 C 870.99 704.13 881.34 710.86 892.93 711.84 C 878.24 696.15 868.93 676.49 859.61 657.37 C 848.41 634.52 838.26 610.77 822.27 590.74 C 811.53 577.34 796.97 566.02 779.69 563.04 C 764.52 560.65 748.88 562.94 734.61 568.43 C 732.86 568.89 730.84 570.44 729.17 568.97 C 695.65 546.74 660.32 526.89 622.74 512.37 C 591.60 500.43 558.53 492.09 525.00 492.55 C 498.29 493.11 471.37 500.03 448.89 514.80 Z" />
<path fill="#ffffff" opacity="1.00" d=" M 557.61 96.99 C 562.54 99.26 566.08 104.46 565.51 109.99 C 564.66 119.11 559.17 126.83 554.33 134.29 C 553.55 135.11 553.22 136.64 551.98 136.84 C 548.52 134.58 547.60 129.97 548.11 126.11 C 549.42 115.86 555.06 106.90 557.61 96.99 Z" />
<path fill="#ffffff" opacity="1.00" d=" M 552.30 152.81 C 556.57 156.43 555.75 162.60 554.29 167.38 C 551.05 177.84 545.29 187.29 541.89 197.70 C 539.29 193.87 540.33 188.98 540.84 184.69 C 542.80 173.53 546.39 162.53 552.30 152.81 Z" />
<path fill="#000000" opacity="1.00" d=" M 646.04 190.06 C 657.47 184.50 670.58 183.59 683.09 184.46 C 690.95 185.03 698.80 186.35 706.31 188.79 C 714.33 191.58 720.77 197.39 726.47 203.49 C 733.26 210.78 739.22 218.79 745.49 226.53 C 758.59 242.99 772.99 258.34 786.48 274.47 C 797.73 287.83 808.02 302.01 816.87 317.07 C 827.19 334.64 835.92 353.07 844.44 371.56 C 853.86 392.04 859.62 414.37 859.51 436.99 C 859.66 446.68 859.07 456.38 857.99 466.01 C 857.93 468.10 856.42 469.66 855.26 471.26 C 843.37 486.58 828.62 499.33 814.23 512.22 C 809.66 515.92 805.92 520.64 801.08 523.97 C 761.19 528.70 720.39 528.73 680.93 520.43 C 659.37 516.04 638.29 508.75 619.21 497.71 C 607.00 490.43 595.39 481.71 586.32 470.68 C 574.50 454.45 564.32 437.09 554.43 419.64 C 548.20 407.96 541.45 396.35 537.68 383.59 C 534.81 366.09 537.17 347.93 543.26 331.34 C 549.93 312.95 561.08 296.53 573.74 281.76 C 595.70 256.25 622.41 235.53 648.46 214.43 C 651.04 211.88 653.02 208.67 654.04 205.18 C 650.36 204.34 647.09 206.55 643.85 207.88 C 640.04 209.47 636.20 211.49 632.00 211.62 C 630.27 211.77 628.42 209.87 629.13 208.13 C 632.02 200.11 638.40 193.69 646.04 190.06 M 688.49 204.37 C 654.23 230.46 618.58 255.47 589.83 287.86 C 577.72 301.56 566.79 316.57 559.53 333.44 C 553.69 347.05 550.69 362.05 552.35 376.85 C 553.17 381.14 555.19 385.06 557.03 388.98 C 563.06 401.00 569.99 412.53 577.03 423.98 C 585.36 437.19 593.55 450.55 603.09 462.94 C 617.61 478.62 636.78 489.38 656.84 496.29 C 676.23 503.09 696.61 506.72 717.02 508.54 C 735.63 509.92 754.35 511.02 772.99 509.67 C 779.52 509.35 786.18 509.90 792.59 508.37 C 809.26 500.28 824.38 487.91 833.48 471.55 C 841.73 456.86 844.59 439.61 843.52 422.92 C 842.49 404.72 837.48 386.98 830.87 370.07 C 822.78 349.66 812.40 330.16 799.90 312.12 C 779.25 282.37 754.91 255.20 727.86 231.15 C 715.99 220.96 703.82 210.84 689.97 203.43 C 689.60 203.66 688.86 204.14 688.49 204.37 Z" />
<path fill="#ffffff" opacity="1.00" d=" M 688.49 204.37 C 688.86 204.14 689.60 203.66 689.97 203.43 C 703.82 210.84 715.99 220.96 727.86 231.15 C 754.91 255.20 779.25 282.37 799.90 312.12 C 812.40 330.16 822.78 349.66 830.87 370.07 C 837.48 386.98 842.49 404.72 843.52 422.92 C 844.59 439.61 841.73 456.86 833.48 471.55 C 824.38 487.91 809.26 500.28 792.59 508.37 C 786.18 509.90 779.52 509.35 772.99 509.67 C 754.35 511.02 735.63 509.92 717.02 508.54 C 696.61 506.72 676.23 503.09 656.84 496.29 C 636.78 489.38 617.61 478.62 603.09 462.94 C 593.55 450.55 585.36 437.19 577.03 423.98 C 569.99 412.53 563.06 401.00 557.03 388.98 C 555.19 385.06 553.17 381.14 552.35 376.85 C 550.69 362.05 553.69 347.05 559.53 333.44 C 566.79 316.57 577.72 301.56 589.83 287.86 C 618.58 255.47 654.23 230.46 688.49 204.37 M 655.70 368.71 C 652.46 372.11 655.58 376.98 658.30 379.68 C 667.89 380.89 674.32 370.39 683.93 371.40 C 695.24 373.50 705.99 379.92 712.32 389.66 C 718.37 398.64 720.20 410.16 717.80 420.66 C 715.33 431.33 708.75 440.92 700.00 447.42 C 689.99 446.48 679.80 446.26 670.02 443.71 C 663.61 442.03 656.70 438.41 654.34 431.84 C 654.11 415.04 654.34 398.22 654.23 381.41 C 646.75 381.42 640.75 387.62 639.58 394.75 C 636.01 412.34 641.07 430.27 638.94 447.98 C 652.08 458.05 668.97 460.98 685.06 462.43 C 693.38 462.70 701.66 463.55 710.00 463.24 C 713.51 462.95 717.34 463.92 720.65 462.67 C 724.12 458.04 726.28 452.56 728.21 447.15 C 734.16 429.02 735.92 409.88 740.84 391.49 C 730.06 385.13 720.95 376.41 710.60 369.43 C 700.91 362.68 690.16 356.19 678.04 355.67 C 668.80 355.36 660.59 361.23 655.70 368.71 Z" />
<path fill="#ffffff" opacity="1.00" d=" M 483.92 270.97 C 481.42 266.27 483.90 258.57 489.73 258.14 C 491.87 263.43 488.51 268.80 486.63 273.66 C 484.86 274.25 484.59 272.06 483.92 270.97 Z" />
<path fill="#ffffff" opacity="1.00" d=" M 287.78 274.16 C 288.43 270.29 292.44 268.57 296.00 268.78 C 302.01 269.25 307.72 271.51 312.91 274.49 C 312.26 277.69 309.82 281.62 306.00 280.44 C 299.79 278.67 294.61 273.61 287.78 274.16 Z" />
<path fill="#ffffff" opacity="1.00" d=" M 486.15 312.97 C 487.24 302.88 493.58 294.46 496.84 285.04 C 501.56 288.46 502.25 294.65 502.39 300.03 C 502.35 307.60 501.26 315.29 498.27 322.29 C 497.66 323.32 497.27 324.85 495.95 325.18 C 490.44 323.93 485.47 318.92 486.15 312.97 Z" />
<path fill="#000000" opacity="1.00" d=" M 655.70 368.71 C 660.59 361.23 668.80 355.36 678.04 355.67 C 690.16 356.19 700.91 362.68 710.60 369.43 C 720.95 376.41 730.06 385.13 740.84 391.49 C 735.92 409.88 734.16 429.02 728.21 447.15 C 726.28 452.56 724.12 458.04 720.65 462.67 C 717.34 463.92 713.51 462.95 710.00 463.24 C 701.66 463.55 693.38 462.70 685.06 462.43 C 668.97 460.98 652.08 458.05 638.94 447.98 C 641.07 430.27 636.01 412.34 639.58 394.75 C 640.75 387.62 646.75 381.42 654.23 381.41 C 654.34 398.22 654.11 415.04 654.34 431.84 C 656.70 438.41 663.61 442.03 670.02 443.71 C 679.80 446.26 689.99 446.48 700.00 447.42 C 708.75 440.92 715.33 431.33 717.80 420.66 C 720.20 410.16 718.37 398.64 712.32 389.66 C 705.99 379.92 695.24 373.50 683.93 371.40 C 674.32 370.39 667.89 380.89 658.30 379.68 C 655.58 376.98 652.46 372.11 655.70 368.71 Z" />
<path fill="#ffffff" opacity="1.00" d=" M 909.30 418.02 C 914.16 422.13 917.52 427.67 921.20 432.80 C 931.74 448.79 941.14 465.58 948.81 483.14 C 953.25 493.12 956.42 503.70 957.70 514.57 C 960.01 532.30 959.33 550.22 959.59 568.06 C 951.33 543.81 944.09 519.22 935.99 494.92 C 927.59 469.11 918.88 443.41 909.30 418.02 Z" />
<path fill="#000000" opacity="1.00" d=" M 448.89 514.80 C 471.37 500.03 498.29 493.11 525.00 492.55 C 558.53 492.09 591.60 500.43 622.74 512.37 C 660.32 526.89 695.65 546.74 729.17 568.97 C 730.84 570.44 732.86 568.89 734.61 568.43 C 748.88 562.94 764.52 560.65 779.69 563.04 C 796.97 566.02 811.53 577.34 822.27 590.74 C 838.26 610.77 848.41 634.52 859.61 657.37 C 868.93 676.49 878.24 696.15 892.93 711.84 C 881.34 710.86 870.99 704.13 863.43 695.57 C 853.10 684.06 846.58 669.83 839.97 656.02 C 833.87 642.94 828.00 629.72 820.84 617.18 C 813.71 604.85 804.92 593.05 793.02 584.96 C 785.48 579.77 776.76 576.31 767.71 574.90 C 765.56 574.10 763.59 576.25 763.05 578.16 C 762.71 580.50 764.55 582.42 766.25 583.77 C 772.73 588.83 780.53 591.89 786.95 597.05 C 788.72 598.56 790.70 601.46 788.56 603.53 C 787.34 605.65 784.72 604.59 782.88 604.21 C 747.63 594.11 714.86 577.29 682.25 560.84 C 645.11 542.26 607.87 522.62 567.22 512.84 C 554.38 509.84 541.22 507.93 528.00 508.22 C 508.19 507.80 488.35 512.64 470.83 521.86 C 455.14 530.01 441.38 541.49 429.46 554.46 C 416.50 568.45 405.25 584.29 398.03 602.02 C 389.27 623.20 385.71 646.03 382.37 668.57 C 376.43 712.15 370.53 755.75 362.29 798.97 C 354.36 840.85 344.75 882.51 330.97 922.89 C 322.26 948.27 311.73 973.10 298.17 996.28 C 296.82 1000.98 298.76 1006.41 302.28 1009.75 C 308.05 1014.91 316.12 1016.13 322.24 1020.74 C 325.90 1023.28 328.02 1027.64 328.27 1032.03 C 327.88 1036.06 324.08 1039.44 319.99 1039.05 C 313.73 1038.65 308.21 1035.22 302.99 1032.03 C 294.22 1026.25 286.13 1019.51 278.25 1012.60 C 278.22 1012.21 278.15 1011.42 278.12 1011.02 C 286.75 983.77 298.42 957.62 309.13 931.15 C 323.50 896.21 336.43 860.41 343.09 823.12 C 352.30 770.94 353.12 717.71 361.62 665.44 C 367.12 626.58 382.60 589.35 405.48 557.53 C 417.40 540.99 431.66 525.87 448.89 514.80 Z" />
<path fill="#ffffff" opacity="1.00" d=" M 199.72 560.80 C 206.36 557.28 214.32 557.93 221.40 559.63 C 223.63 574.22 222.59 589.63 216.15 603.08 C 213.34 609.19 209.80 614.93 206.05 620.50 C 199.06 618.51 192.42 614.92 187.64 609.37 C 180.21 600.78 175.56 590.24 170.99 579.97 C 175.19 579.67 179.25 578.19 182.58 575.61 C 188.86 571.33 192.88 564.32 199.72 560.80 Z" />
<path fill="#ffffff" opacity="1.00" d=" M 14.37 661.92 C 17.18 665.21 16.94 669.87 17.57 673.93 C 17.75 678.13 18.75 683.47 14.95 686.47 C 12.54 685.97 11.96 683.06 11.63 681.00 C 11.06 674.55 11.99 667.95 14.37 661.92 Z" />
<path fill="#ffffff" opacity="1.00" d=" M 18.23 733.94 C 21.38 737.31 23.21 741.63 25.31 745.68 C 32.44 760.76 37.01 776.88 41.21 792.97 C 48.02 819.73 53.16 846.88 59.38 873.77 C 63.17 890.38 68.10 906.69 72.92 923.01 C 74.09 927.24 74.67 931.73 73.83 936.08 C 71.24 933.75 70.02 930.44 68.49 927.41 C 63.62 916.96 59.49 906.15 54.02 895.98 C 44.69 879.33 40.03 860.60 36.18 842.06 C 29.14 806.19 25.67 769.72 18.23 733.94 Z" />
<path fill="#ffffff" opacity="1.00" d=" M 99.63 997.52 C 109.76 1003.02 117.22 1012.36 122.63 1022.36 C 128.03 1032.03 131.25 1042.68 135.00 1053.03 C 167.91 1073.20 200.92 1093.67 236.47 1108.98 C 236.47 1110.64 236.48 1112.31 236.47 1114.00 L 130.09 1114.00 C 125.27 1104.91 120.82 1095.62 116.83 1086.13 C 105.00 1058.25 98.55 1027.87 99.63 997.52 Z" />
</svg>
