<?xml version="1.0" encoding="UTF-8" ?>
<!DOCTYPE svg PUBLIC "-//W3C//DTD SVG 1.1//EN" "http://www.w3.org/Graphics/SVG/1.1/DTD/svg11.dtd">
<svg width="937pt" height="987pt" viewBox="0 0 937 987" version="1.1" xmlns="http://www.w3.org/2000/svg">
<path fill="#ffffff" opacity="1.00" d=" M 0.00 0.00 L 531.67 0.00 C 508.50 12.58 481.90 16.14 456.04 18.76 C 431.49 21.25 406.70 23.67 382.99 30.87 C 370.25 35.56 361.28 47.12 348.12 51.00 C 330.41 56.61 311.49 56.46 293.73 61.81 C 281.35 65.49 270.20 72.32 259.71 79.69 C 236.45 96.44 216.98 117.76 198.64 139.62 C 173.23 169.99 150.61 202.62 124.14 232.11 C 99.84 259.70 73.83 286.42 55.58 318.62 C 42.94 340.86 35.07 366.72 38.15 392.47 C 41.35 390.29 44.32 387.55 45.94 383.96 C 48.50 378.92 48.50 373.15 48.66 367.64 C 53.35 375.59 52.82 385.41 49.76 393.84 C 44.09 410.12 33.09 424.91 32.76 442.74 C 25.74 439.32 22.30 431.69 20.79 424.42 C 17.37 407.53 19.79 390.08 16.76 373.14 C 16.09 369.03 14.64 365.11 12.94 361.33 C 10.75 361.51 7.98 361.89 7.37 364.44 C 5.12 372.43 9.72 380.66 7.75 388.68 C 7.23 391.19 4.51 391.76 2.48 392.56 C 2.53 474.71 2.48 556.86 2.50 639.01 C 2.49 642.38 4.44 645.28 5.48 648.39 C 13.65 669.98 15.00 693.25 17.33 715.99 C 19.25 735.42 22.34 754.99 29.82 773.13 C 42.12 802.30 65.62 825.17 77.06 854.77 C 84.48 875.31 87.50 897.05 91.47 918.43 C 95.77 942.16 101.40 966.28 114.26 987.00 L 0.00 987.00 L 0.00 0.00 Z" />
<path fill="#000000" opacity="1.00" d=" M 531.67 0.00 L 578.04 0.00 C 611.30 14.20 643.10 32.07 671.59 54.42 C 703.99 79.49 732.18 109.73 756.23 142.84 C 767.05 137.53 775.37 127.90 786.98 124.07 C 792.17 122.26 798.68 123.37 802.12 127.93 C 804.42 131.62 805.86 136.31 804.51 140.60 C 803.02 144.77 799.18 147.47 795.40 149.40 C 787.78 153.16 779.38 154.81 771.47 157.79 C 777.54 161.44 783.12 166.11 786.76 172.29 C 794.80 185.53 797.57 201.47 807.15 213.87 C 809.91 217.79 813.69 220.80 816.92 224.30 C 816.99 238.65 818.14 253.14 822.18 267.00 C 831.57 300.82 852.93 329.29 871.54 358.46 C 889.80 386.43 905.75 416.41 914.00 448.98 C 916.98 461.44 920.10 474.09 919.77 487.00 C 919.67 501.29 918.26 515.58 919.07 529.87 C 921.99 583.25 926.42 636.55 928.76 689.96 C 931.03 741.38 932.05 792.98 927.74 844.33 C 925.51 869.82 921.95 895.32 915.01 920.00 C 910.62 935.15 904.96 950.08 896.48 963.45 C 890.67 972.56 883.42 980.89 874.44 987.00 L 858.31 987.00 C 860.80 975.99 867.32 966.27 868.87 955.01 C 869.81 949.04 869.33 942.96 868.52 937.01 C 881.09 922.81 889.49 905.44 895.52 887.60 C 909.26 846.23 912.48 802.28 913.47 758.98 C 914.07 705.49 909.85 652.04 903.10 599.00 C 899.15 568.43 894.30 537.97 888.50 507.70 C 888.04 504.83 887.66 500.27 891.27 499.33 C 896.01 498.96 900.00 502.14 904.00 504.23 C 904.23 483.21 903.88 461.88 898.39 441.45 C 894.83 428.54 888.78 415.72 878.24 407.07 C 875.30 414.06 875.32 422.06 878.16 429.08 C 883.58 443.03 893.57 454.88 897.54 469.46 C 899.89 477.32 900.05 485.65 898.83 493.72 C 889.66 490.70 882.50 483.34 878.11 474.92 C 873.10 465.53 870.56 455.11 868.03 444.84 C 863.15 423.22 853.84 402.98 845.43 382.57 C 838.77 367.27 833.09 351.58 826.64 336.20 C 808.02 292.25 780.12 252.94 761.65 208.93 C 768.35 208.70 775.36 211.01 779.67 216.35 C 788.65 227.12 788.88 242.45 797.63 253.37 C 800.09 256.51 803.62 258.52 807.26 260.00 C 804.18 241.90 796.36 224.53 784.46 210.52 C 773.91 198.10 759.36 188.65 743.13 185.97 C 732.18 183.95 720.89 185.24 710.23 188.19 C 716.19 206.02 727.70 221.23 739.02 235.97 C 760.75 263.50 784.45 290.52 797.48 323.56 C 809.53 353.05 810.60 386.48 801.95 417.01 C 800.11 420.90 797.09 424.08 794.29 427.29 C 782.98 439.38 767.96 447.38 752.43 452.67 C 732.36 459.39 711.08 461.96 689.98 461.87 C 666.81 461.70 643.63 458.28 621.50 451.39 C 604.13 445.94 587.27 438.28 572.64 427.36 C 559.61 417.60 550.01 404.17 541.60 390.42 C 533.24 377.11 525.87 362.60 513.49 352.47 C 511.25 351.10 511.63 348.28 511.29 346.04 C 509.31 325.22 510.39 303.69 517.88 283.97 C 524.65 265.75 536.63 249.93 550.43 236.43 C 567.98 218.54 588.57 203.49 603.58 183.23 C 578.42 176.88 552.30 175.82 526.99 170.19 C 513.08 167.03 498.90 162.53 487.80 153.22 C 478.49 145.50 472.78 134.02 471.19 122.12 C 481.28 123.65 488.94 131.10 498.25 134.62 C 500.66 135.43 504.12 136.45 505.90 133.94 C 508.02 130.56 507.03 126.35 507.14 122.60 C 520.44 129.55 527.69 144.04 541.05 150.92 C 551.83 156.76 564.77 155.95 576.36 153.33 C 578.51 152.99 581.32 151.71 580.47 149.01 C 578.68 143.40 574.22 139.06 572.46 133.41 C 570.42 128.30 570.75 122.57 572.79 117.52 C 587.45 129.92 605.40 137.79 623.98 142.18 C 658.91 150.54 695.19 149.88 730.81 147.87 C 725.10 133.32 716.93 119.83 707.88 107.14 C 685.69 76.39 655.29 51.52 620.45 36.46 C 601.37 28.21 581.03 22.88 560.36 20.67 C 540.29 18.43 520.01 19.46 500.01 21.94 C 439.93 29.13 380.71 43.92 324.57 66.57 C 308.62 73.09 292.77 80.07 278.07 89.11 C 254.42 103.80 235.76 124.92 218.26 146.25 C 207.55 159.16 197.24 172.47 185.19 184.18 C 175.18 194.34 163.60 203.28 150.26 208.56 C 151.81 218.02 151.17 228.06 146.57 236.63 C 140.59 248.37 130.45 257.20 120.49 265.51 C 106.19 277.41 90.53 288.36 79.91 303.94 C 74.37 311.90 71.02 321.29 70.14 330.94 C 68.53 348.63 72.00 366.63 68.14 384.14 C 62.43 411.42 47.30 435.56 40.84 462.62 C 38.67 471.88 36.93 481.49 38.29 491.01 C 39.69 502.05 42.96 512.85 43.18 524.04 C 43.71 561.33 32.70 598.53 39.37 635.74 C 45.78 677.38 63.79 715.82 76.38 755.72 C 83.18 776.82 85.92 798.92 91.77 820.26 C 95.65 834.94 102.83 848.46 110.59 861.41 C 121.82 879.88 136.13 896.44 152.72 910.28 C 178.13 931.57 207.84 946.67 235.86 964.10 C 242.53 968.39 249.48 972.32 255.71 977.27 C 240.15 975.71 225.05 971.05 210.56 965.35 C 177.02 951.67 146.71 930.39 121.86 904.11 C 113.49 895.34 106.19 885.66 99.21 875.78 C 98.42 896.71 101.24 917.88 108.29 937.64 C 114.54 955.22 123.83 971.56 134.22 987.00 L 114.26 987.00 C 101.40 966.28 95.77 942.16 91.47 918.43 C 87.50 897.05 84.48 875.31 77.06 854.77 C 65.62 825.17 42.12 802.30 29.82 773.13 C 22.34 754.99 19.25 735.42 17.33 715.99 C 15.00 693.25 13.65 669.98 5.48 648.39 C 4.44 645.28 2.49 642.38 2.50 639.01 C 2.48 556.86 2.53 474.71 2.48 392.56 C 4.51 391.76 7.23 391.19 7.75 388.68 C 9.72 380.66 5.12 372.43 7.37 364.44 C 7.98 361.89 10.75 361.51 12.94 361.33 C 14.64 365.11 16.09 369.03 16.76 373.14 C 19.79 390.08 17.37 407.53 20.79 424.42 C 22.30 431.69 25.74 439.32 32.76 442.74 C 33.09 424.91 44.09 410.12 49.76 393.84 C 52.82 385.41 53.35 375.59 48.66 367.64 C 48.50 373.15 48.50 378.92 45.94 383.96 C 44.32 387.55 41.35 390.29 38.15 392.47 C 35.07 366.72 42.94 340.86 55.58 318.62 C 73.83 286.42 99.84 259.70 124.14 232.11 C 150.61 202.62 173.23 169.99 198.64 139.62 C 216.98 117.76 236.45 96.44 259.71 79.69 C 270.20 72.32 281.35 65.49 293.73 61.81 C 311.49 56.46 330.41 56.61 348.12 51.00 C 361.28 47.12 370.25 35.56 382.99 30.87 C 406.70 23.67 431.49 21.25 456.04 18.76 C 481.90 16.14 508.50 12.58 531.67 0.00 M 726.10 167.51 C 716.74 167.92 707.37 168.08 698.00 168.00 C 691.97 168.02 685.84 167.71 679.93 169.14 C 680.29 172.18 684.14 173.43 686.80 172.81 C 703.19 170.30 719.61 176.61 735.97 173.76 C 741.36 172.95 745.95 168.67 746.27 163.07 C 740.21 166.74 732.96 167.00 726.10 167.51 M 637.98 189.00 C 631.66 190.05 625.25 190.94 619.22 193.16 C 612.25 196.08 605.97 200.40 599.99 204.95 C 585.01 216.50 571.70 230.08 559.66 244.63 C 546.61 260.58 534.81 277.85 527.17 297.08 C 522.47 309.33 519.35 323.27 524.05 336.01 C 530.36 353.54 540.92 369.16 552.00 384.00 C 562.57 397.57 573.77 411.25 588.59 420.41 C 605.01 430.82 624.01 436.39 643.06 439.58 C 678.74 445.41 715.03 443.64 751.01 443.28 C 763.38 429.53 780.24 420.21 790.62 404.62 C 792.35 402.50 792.27 399.66 792.47 397.08 C 794.10 372.59 788.46 348.13 779.36 325.51 C 771.67 306.62 761.60 288.76 750.07 271.96 C 729.28 242.05 704.43 214.75 675.53 192.48 C 672.52 190.42 669.77 187.37 665.90 187.21 C 656.56 186.48 647.21 187.77 637.98 189.00 M 862.99 376.64 C 862.52 380.17 861.80 383.81 862.69 387.34 C 863.14 388.92 864.00 390.84 866.01 390.56 C 870.88 390.11 874.00 383.11 870.54 379.39 C 868.54 377.42 865.61 377.08 862.99 376.64 M 28.07 652.43 C 27.08 658.23 27.63 664.14 27.49 670.00 C 27.96 688.18 30.36 706.29 33.95 724.11 C 38.59 746.07 44.78 767.93 55.12 787.95 C 60.91 798.53 67.84 809.64 79.09 815.06 C 63.19 774.13 51.20 731.86 39.16 689.68 C 35.45 677.27 32.36 664.64 28.07 652.43 Z" />
<path fill="#ffffff" opacity="1.00" d=" M 578.04 0.00 L 937.00 0.00 L 937.00 987.00 L 874.44 987.00 C 883.42 980.89 890.67 972.56 896.48 963.45 C 904.96 950.08 910.62 935.15 915.01 920.00 C 921.95 895.32 925.51 869.82 927.74 844.33 C 932.05 792.98 931.03 741.38 928.76 689.96 C 926.42 636.55 921.99 583.25 919.07 529.87 C 918.26 515.58 919.67 501.29 919.77 487.00 C 920.10 474.09 916.98 461.44 914.00 448.98 C 905.75 416.41 889.80 386.43 871.54 358.46 C 852.93 329.29 831.57 300.82 822.18 267.00 C 818.14 253.14 816.99 238.65 816.92 224.30 C 813.69 220.80 809.91 217.79 807.15 213.87 C 797.57 201.47 794.80 185.53 786.76 172.29 C 783.12 166.11 777.54 161.44 771.47 157.79 C 779.38 154.81 787.78 153.16 795.40 149.40 C 799.18 147.47 803.02 144.77 804.51 140.60 C 805.86 136.31 804.42 131.62 802.12 127.93 C 798.68 123.37 792.17 122.26 786.98 124.07 C 775.37 127.90 767.05 137.53 756.23 142.84 C 732.18 109.73 703.99 79.49 671.59 54.42 C 643.10 32.07 611.30 14.20 578.04 0.00 Z" />
<path fill="#ffffff" opacity="1.00" d=" M 500.01 21.94 C 520.01 19.46 540.29 18.43 560.36 20.67 C 581.03 22.88 601.37 28.21 620.45 36.46 C 655.29 51.52 685.69 76.39 707.88 107.14 C 716.93 119.83 725.10 133.32 730.81 147.87 C 695.19 149.88 658.91 150.54 623.98 142.18 C 605.40 137.79 587.45 129.92 572.79 117.52 C 570.75 122.57 570.42 128.30 572.46 133.41 C 574.22 139.06 578.68 143.40 580.47 149.01 C 581.32 151.71 578.51 152.99 576.36 153.33 C 564.77 155.95 551.83 156.76 541.05 150.92 C 527.69 144.04 520.44 129.55 507.14 122.60 C 507.03 126.35 508.02 130.56 505.90 133.94 C 504.12 136.45 500.66 135.43 498.25 134.62 C 488.94 131.10 481.28 123.65 471.19 122.12 C 472.78 134.02 478.49 145.50 487.80 153.22 C 498.90 162.53 513.08 167.03 526.99 170.19 C 552.30 175.82 578.42 176.88 603.58 183.23 C 588.57 203.49 567.98 218.54 550.43 236.43 C 536.63 249.93 524.65 265.75 517.88 283.97 C 510.39 303.69 509.31 325.22 511.29 346.04 C 511.63 348.28 511.25 351.10 513.49 352.47 C 525.87 362.60 533.24 377.11 541.60 390.42 C 550.01 404.17 559.61 417.60 572.64 427.36 C 587.27 438.28 604.13 445.94 621.50 451.39 C 643.63 458.28 666.81 461.70 689.98 461.87 C 711.08 461.96 732.36 459.39 752.43 452.67 C 767.96 447.38 782.98 439.38 794.29 427.29 C 797.09 424.08 800.11 420.90 801.95 417.01 C 810.60 386.48 809.53 353.05 797.48 323.56 C 784.45 290.52 760.75 263.50 739.02 235.97 C 727.70 221.23 716.19 206.02 710.23 188.19 C 720.89 185.24 732.18 183.95 743.13 185.97 C 759.36 188.65 773.91 198.10 784.46 210.52 C 796.36 224.53 804.18 241.90 807.26 260.00 C 803.62 258.52 800.09 256.51 797.63 253.37 C 788.88 242.45 788.65 227.12 779.67 216.35 C 775.36 211.01 768.35 208.70 761.65 208.93 C 780.12 252.94 808.02 292.25 826.64 336.20 C 833.09 351.58 838.77 367.27 845.43 382.57 C 853.84 402.98 863.15 423.22 868.03 444.84 C 870.56 455.11 873.10 465.53 878.11 474.92 C 882.50 483.34 889.66 490.70 898.83 493.72 C 900.05 485.65 899.89 477.32 897.54 469.46 C 893.57 454.88 883.58 443.03 878.16 429.08 C 875.32 422.06 875.30 414.06 878.24 407.07 C 888.78 415.72 894.83 428.54 898.39 441.45 C 903.88 461.88 904.23 483.21 904.00 504.23 C 900.00 502.14 896.01 498.96 891.27 499.33 C 887.66 500.27 888.04 504.83 888.50 507.70 C 894.30 537.97 899.15 568.43 903.10 599.00 C 909.85 652.04 914.07 705.49 913.47 758.98 C 912.48 802.28 909.26 846.23 895.52 887.60 C 889.49 905.44 881.09 922.81 868.52 937.01 C 869.33 942.96 869.81 949.04 868.87 955.01 C 867.32 966.27 860.80 975.99 858.31 987.00 L 134.22 987.00 C 123.83 971.56 114.54 955.22 108.29 937.64 C 101.24 917.88 98.42 896.71 99.21 875.78 C 106.19 885.66 113.49 895.34 121.86 904.11 C 146.71 930.39 177.02 951.67 210.56 965.35 C 225.05 971.05 240.15 975.71 255.71 977.27 C 249.48 972.32 242.53 968.39 235.86 964.10 C 207.84 946.67 178.13 931.57 152.72 910.28 C 136.13 896.44 121.82 879.88 110.59 861.41 C 102.83 848.46 95.65 834.94 91.77 820.26 C 85.92 798.92 83.18 776.82 76.38 755.72 C 63.79 715.82 45.78 677.38 39.37 635.74 C 32.70 598.53 43.71 561.33 43.18 524.04 C 42.96 512.85 39.69 502.05 38.29 491.01 C 36.93 481.49 38.67 471.88 40.84 462.62 C 47.30 435.56 62.43 411.42 68.14 384.14 C 72.00 366.63 68.53 348.63 70.14 330.94 C 71.02 321.29 74.37 311.90 79.91 303.94 C 90.53 288.36 106.19 277.41 120.49 265.51 C 130.45 257.20 140.59 248.37 146.57 236.63 C 151.17 228.06 151.81 218.02 150.26 208.56 C 163.60 203.28 175.18 194.34 185.19 184.18 C 197.24 172.47 207.55 159.16 218.26 146.25 C 235.76 124.92 254.42 103.80 278.07 89.11 C 292.77 80.07 308.62 73.09 324.57 66.57 C 380.71 43.92 439.93 29.13 500.01 21.94 M 210.90 228.00 C 200.82 251.69 202.04 278.63 190.91 301.95 C 187.01 310.46 181.21 318.05 174.18 324.21 C 159.36 337.63 140.97 346.58 126.93 360.92 C 117.19 370.29 110.56 383.12 109.71 396.70 C 115.30 393.60 120.62 389.91 126.63 387.64 C 128.04 387.24 130.00 386.60 130.85 388.27 C 130.33 391.98 128.16 395.15 126.35 398.33 C 118.17 411.70 109.10 424.70 103.26 439.34 C 100.95 445.36 99.03 451.75 99.46 458.27 C 109.04 459.93 119.30 457.15 126.29 450.29 C 137.88 438.99 142.45 422.98 150.17 409.18 C 152.93 404.49 156.39 399.34 162.02 397.97 C 167.01 396.84 171.66 399.53 175.79 401.96 C 186.56 381.70 186.00 358.07 190.90 336.18 C 193.27 332.54 196.71 329.77 200.01 327.02 C 213.02 316.78 229.72 312.41 246.04 311.78 C 277.02 310.85 307.57 320.12 334.91 334.21 C 348.24 341.23 361.04 349.60 371.67 360.36 C 377.70 366.76 383.54 374.15 384.81 383.13 C 385.65 390.66 383.60 398.15 381.21 405.23 C 375.00 422.46 365.51 438.27 355.60 453.59 C 343.92 471.28 331.28 488.35 317.58 504.54 C 296.69 529.58 264.80 545.68 232.00 545.77 C 213.34 545.85 194.04 539.76 180.66 526.34 C 168.76 514.76 162.47 498.47 160.72 482.18 C 158.04 458.69 163.19 435.16 170.18 412.84 C 163.86 416.45 158.98 422.13 155.47 428.44 C 149.54 439.07 146.35 450.95 143.67 462.75 C 140.23 477.95 137.98 493.39 134.29 508.54 C 131.73 518.65 128.80 529.01 122.66 537.62 C 120.13 540.91 117.09 544.37 112.97 545.55 C 107.33 544.14 105.61 537.76 101.79 534.06 C 101.42 534.12 100.68 534.23 100.31 534.29 C 99.35 537.43 99.49 540.75 99.49 544.00 C 99.54 551.09 99.45 558.18 99.54 565.28 C 106.93 565.22 114.61 563.33 120.15 558.18 C 132.53 547.03 134.85 527.56 150.12 519.17 C 153.55 523.60 156.98 528.07 161.06 531.95 C 173.90 545.18 190.99 553.73 208.80 558.02 C 230.82 563.29 253.78 562.95 276.13 560.20 C 277.18 560.04 278.02 559.52 278.65 558.63 C 307.65 525.38 344.92 499.45 368.90 461.85 C 388.15 432.38 396.11 396.48 394.42 361.56 C 365.60 335.99 332.63 314.20 295.75 302.34 C 268.58 293.54 238.67 291.69 211.26 300.52 C 219.68 280.36 229.59 260.11 231.22 237.99 C 232.05 227.55 229.59 216.27 221.67 208.90 C 217.30 214.79 213.66 221.21 210.90 228.00 M 201.69 415.71 C 194.30 418.85 188.54 425.14 185.46 432.49 C 180.74 443.80 180.26 456.38 180.99 468.46 C 187.81 468.88 194.43 470.74 201.15 471.84 C 208.48 473.10 216.28 471.46 222.56 467.54 C 228.72 462.14 230.56 453.60 231.76 445.86 C 232.89 434.66 232.67 422.44 226.57 412.57 C 218.20 411.85 209.48 412.31 201.69 415.71 M 442.85 439.92 C 413.97 451.49 390.14 473.93 374.82 500.80 C 363.92 519.69 356.93 540.54 351.48 561.57 C 345.13 586.57 340.81 612.01 336.28 637.38 C 321.18 724.18 300.10 810.78 262.68 890.91 C 278.83 887.58 294.39 879.90 305.47 867.49 C 319.94 851.44 328.29 830.88 343.15 815.13 C 353.76 803.93 366.19 794.63 378.80 785.82 C 411.10 763.80 446.10 745.95 482.32 731.34 C 522.21 715.11 563.02 700.82 605.02 691.14 C 632.77 684.96 661.02 681.55 689.09 677.29 C 718.36 672.85 747.92 668.26 775.77 657.84 C 792.60 651.46 808.81 642.44 821.27 629.27 C 831.46 618.51 838.64 605.10 842.61 590.85 C 840.16 590.03 836.99 588.81 834.85 590.92 C 832.23 593.84 833.10 598.49 830.34 601.34 C 828.00 602.76 825.06 602.04 822.67 601.19 C 821.11 599.35 820.33 597.02 819.21 594.93 C 806.54 569.56 794.53 543.50 776.90 521.08 C 764.80 505.69 749.57 492.46 731.64 484.37 C 729.19 483.29 726.47 483.87 723.92 484.04 C 711.59 485.17 701.45 494.06 688.95 494.46 C 685.07 494.43 680.66 495.17 677.38 492.61 C 662.65 483.00 647.39 474.22 631.73 466.23 C 597.36 448.89 560.59 435.23 522.17 430.76 C 495.53 427.69 467.87 429.80 442.85 439.92 Z" />
<path fill="#ffffff" opacity="1.00" d=" M 726.10 167.51 C 732.96 167.00 740.21 166.74 746.27 163.07 C 745.95 168.67 741.36 172.95 735.97 173.76 C 719.61 176.61 703.19 170.30 686.80 172.81 C 684.14 173.43 680.29 172.18 679.93 169.14 C 685.84 167.71 691.97 168.02 698.00 168.00 C 707.37 168.08 716.74 167.92 726.10 167.51 Z" />
<path fill="#ffffff" opacity="1.00" d=" M 637.98 189.00 C 647.21 187.77 656.56 186.48 665.90 187.21 C 669.77 187.37 672.52 190.42 675.53 192.48 C 704.43 214.75 729.28 242.05 750.07 271.96 C 761.60 288.76 771.67 306.62 779.36 325.51 C 788.46 348.13 794.10 372.59 792.47 397.08 C 792.27 399.66 792.35 402.50 790.62 404.62 C 780.24 420.21 763.38 429.53 751.01 443.28 C 715.03 443.64 678.74 445.41 643.06 439.58 C 624.01 436.39 605.01 430.82 588.59 420.41 C 573.77 411.25 562.57 397.57 552.00 384.00 C 540.92 369.16 530.36 353.54 524.05 336.01 C 519.35 323.27 522.47 309.33 527.17 297.08 C 534.81 277.85 546.61 260.58 559.66 244.63 C 571.70 230.08 585.01 216.50 599.99 204.95 C 605.97 200.40 612.25 196.08 619.22 193.16 C 625.25 190.94 631.66 190.05 637.98 189.00 M 669.43 263.57 C 660.26 264.59 650.82 268.80 645.87 276.93 C 639.96 286.28 640.37 298.18 643.32 308.48 C 644.04 312.08 647.75 313.71 650.60 315.43 C 662.19 321.21 675.87 321.97 688.40 319.23 C 694.56 317.69 700.97 315.33 705.39 310.59 C 706.72 303.38 706.47 295.83 704.38 288.78 C 701.62 279.82 695.55 272.44 690.14 264.97 C 683.53 263.00 676.30 262.99 669.43 263.57 Z" />
<path fill="#000000" opacity="1.00" d=" M 210.90 228.00 C 213.66 221.21 217.30 214.79 221.67 208.90 C 229.59 216.27 232.05 227.55 231.22 237.99 C 229.59 260.11 219.68 280.36 211.26 300.52 C 238.67 291.69 268.58 293.54 295.75 302.34 C 332.63 314.20 365.60 335.99 394.42 361.56 C 396.11 396.48 388.15 432.38 368.90 461.85 C 344.92 499.45 307.65 525.38 278.65 558.63 C 278.02 559.52 277.18 560.04 276.13 560.20 C 253.78 562.95 230.82 563.29 208.80 558.02 C 190.99 553.73 173.90 545.18 161.06 531.95 C 156.98 528.07 153.55 523.60 150.12 519.17 C 134.85 527.56 132.53 547.03 120.15 558.18 C 114.61 563.33 106.93 565.22 99.54 565.28 C 99.45 558.18 99.54 551.09 99.49 544.00 C 99.49 540.75 99.35 537.43 100.31 534.29 C 100.68 534.23 101.42 534.12 101.79 534.06 C 105.61 537.76 107.33 544.14 112.97 545.55 C 117.09 544.37 120.13 540.91 122.66 537.62 C 128.80 529.01 131.73 518.65 134.29 508.54 C 137.98 493.39 140.23 477.95 143.67 462.75 C 146.35 450.95 149.54 439.07 155.47 428.44 C 158.98 422.13 163.86 416.45 170.18 412.84 C 163.19 435.16 158.04 458.69 160.72 482.18 C 162.47 498.47 168.76 514.76 180.66 526.34 C 194.04 539.76 213.34 545.85 232.00 545.77 C 264.80 545.68 296.69 529.58 317.58 504.54 C 331.28 488.35 343.92 471.28 355.60 453.59 C 365.51 438.27 375.00 422.46 381.21 405.23 C 383.60 398.15 385.65 390.66 384.81 383.13 C 383.54 374.15 377.70 366.76 371.67 360.36 C 361.04 349.60 348.24 341.23 334.91 334.21 C 307.57 320.12 277.02 310.85 246.04 311.78 C 229.72 312.41 213.02 316.78 200.01 327.02 C 196.71 329.77 193.27 332.54 190.90 336.18 C 186.00 358.07 186.56 381.70 175.79 401.96 C 171.66 399.53 167.01 396.84 162.02 397.97 C 156.39 399.34 152.93 404.49 150.17 409.18 C 142.45 422.98 137.88 438.99 126.29 450.29 C 119.30 457.15 109.04 459.93 99.46 458.27 C 99.03 451.75 100.95 445.36 103.26 439.34 C 109.10 424.70 118.17 411.70 126.35 398.33 C 128.16 395.15 130.33 391.98 130.85 388.27 C 130.00 386.60 128.04 387.24 126.63 387.64 C 120.62 389.91 115.30 393.60 109.71 396.70 C 110.56 383.12 117.19 370.29 126.93 360.92 C 140.97 346.58 159.36 337.63 174.18 324.21 C 181.21 318.05 187.01 310.46 190.91 301.95 C 202.04 278.63 200.82 251.69 210.90 228.00 Z" />
<path fill="#000000" opacity="1.00" d=" M 669.43 263.57 C 676.30 262.99 683.53 263.00 690.14 264.97 C 695.55 272.44 701.62 279.82 704.38 288.78 C 706.47 295.83 706.72 303.38 705.39 310.59 C 700.97 315.33 694.56 317.69 688.40 319.23 C 675.87 321.97 662.19 321.21 650.60 315.43 C 647.75 313.71 644.04 312.08 643.32 308.48 C 640.37 298.18 639.96 286.28 645.87 276.93 C 650.82 268.80 660.26 264.59 669.43 263.57 M 660.07 280.07 C 656.11 283.54 654.05 288.77 653.81 293.97 C 653.70 297.23 653.38 301.50 657.14 302.82 C 667.45 307.73 679.27 305.27 690.27 305.67 C 692.69 297.21 692.75 286.64 685.67 280.33 C 678.75 273.99 667.11 273.89 660.07 280.07 Z" />
<path fill="#ffffff" opacity="1.00" d=" M 660.07 280.07 C 667.11 273.89 678.75 273.99 685.67 280.33 C 692.75 286.64 692.69 297.21 690.27 305.67 C 679.27 305.27 667.45 307.73 657.14 302.82 C 653.38 301.50 653.70 297.23 653.81 293.97 C 654.05 288.77 656.11 283.54 660.07 280.07 Z" />
<path fill="#ffffff" opacity="1.00" d=" M 862.99 376.64 C 865.61 377.08 868.54 377.42 870.54 379.39 C 874.00 383.11 870.88 390.11 866.01 390.56 C 864.00 390.84 863.14 388.92 862.69 387.34 C 861.80 383.81 862.52 380.17 862.99 376.64 Z" />
<path fill="#000000" opacity="1.00" d=" M 201.69 415.71 C 209.48 412.31 218.20 411.85 226.57 412.57 C 232.67 422.44 232.89 434.66 231.76 445.86 C 230.56 453.60 228.72 462.14 222.56 467.54 C 216.28 471.46 208.48 473.10 201.15 471.84 C 194.43 470.74 187.81 468.88 180.99 468.46 C 180.26 456.38 180.74 443.80 185.46 432.49 C 188.54 425.14 194.30 418.85 201.69 415.71 M 200.37 434.41 C 195.18 441.20 195.19 450.33 195.90 458.46 C 203.09 458.92 211.38 458.25 216.48 452.50 C 222.45 445.80 222.30 436.12 221.77 427.70 C 214.22 426.84 205.37 428.08 200.37 434.41 Z" />
<path fill="#ffffff" opacity="1.00" d=" M 200.37 434.41 C 205.37 428.08 214.22 426.84 221.77 427.70 C 222.30 436.12 222.45 445.80 216.48 452.50 C 211.38 458.25 203.09 458.92 195.90 458.46 C 195.19 450.33 195.18 441.20 200.37 434.41 Z" />
<path fill="#000000" opacity="1.00" d=" M 442.85 439.92 C 467.87 429.80 495.53 427.69 522.17 430.76 C 560.59 435.23 597.36 448.89 631.73 466.23 C 647.39 474.22 662.65 483.00 677.38 492.61 C 680.66 495.17 685.07 494.43 688.95 494.46 C 701.45 494.06 711.59 485.17 723.92 484.04 C 726.47 483.87 729.19 483.29 731.64 484.37 C 749.57 492.46 764.80 505.69 776.90 521.08 C 794.53 543.50 806.54 569.56 819.21 594.93 C 820.33 597.02 821.11 599.35 822.67 601.19 C 825.06 602.04 828.00 602.76 830.34 601.34 C 833.10 598.49 832.23 593.84 834.85 590.92 C 836.99 588.81 840.16 590.03 842.61 590.85 C 838.64 605.10 831.46 618.51 821.27 629.27 C 808.81 642.44 792.60 651.46 775.77 657.84 C 747.92 668.26 718.36 672.85 689.09 677.29 C 661.02 681.55 632.77 684.96 605.02 691.14 C 563.02 700.82 522.21 715.11 482.32 731.34 C 446.10 745.95 411.10 763.80 378.80 785.82 C 366.19 794.63 353.76 803.93 343.15 815.13 C 328.29 830.88 319.94 851.44 305.47 867.49 C 294.39 879.90 278.83 887.58 262.68 890.91 C 300.10 810.78 321.18 724.18 336.28 637.38 C 340.81 612.01 345.13 586.57 351.48 561.57 C 356.93 540.54 363.92 519.69 374.82 500.80 C 390.14 473.93 413.97 451.49 442.85 439.92 M 424.92 469.93 C 412.63 479.08 401.46 490.25 394.50 504.05 C 402.63 510.96 408.76 519.79 414.14 528.93 C 421.60 541.29 428.78 554.70 441.14 562.89 C 442.95 563.87 444.77 565.76 447.01 565.12 C 458.81 562.54 470.38 558.23 480.37 551.34 C 491.52 543.76 500.61 532.74 504.62 519.76 C 509.13 506.00 507.63 490.62 501.35 477.66 C 494.15 462.34 480.90 450.50 466.00 442.87 C 452.37 451.98 438.06 460.09 424.92 469.93 M 496.41 442.97 C 505.07 463.39 514.82 484.50 532.05 499.17 C 540.03 491.78 549.74 486.16 556.28 477.31 C 561.42 470.41 563.27 461.63 562.87 453.16 C 541.14 447.19 517.95 449.90 496.41 442.97 M 578.07 458.11 C 575.20 465.87 572.12 473.62 567.64 480.63 C 557.91 496.18 543.40 507.74 530.68 520.68 C 523.92 527.26 517.70 534.36 510.94 540.94 C 502.40 549.91 492.39 557.33 482.06 564.08 C 470.24 571.48 457.14 577.92 442.96 578.50 C 431.45 578.96 420.15 574.00 412.05 565.94 C 398.72 553.23 391.31 535.92 384.43 519.18 C 372.32 530.92 364.95 546.66 360.60 562.76 C 352.94 591.83 352.74 622.22 353.82 652.06 C 360.73 652.10 367.62 650.21 373.44 646.46 C 386.25 638.42 393.54 624.54 404.99 614.99 C 409.11 611.45 414.63 609.94 419.97 611.01 C 417.37 625.70 408.10 638.49 396.12 647.11 C 379.79 659.18 360.16 665.69 343.55 677.31 C 344.05 700.70 339.95 724.00 333.52 746.44 C 327.68 767.10 319.77 787.08 312.25 807.17 C 306.47 822.90 300.35 838.74 297.92 855.40 C 317.99 824.36 345.55 798.94 375.18 777.18 C 407.23 753.79 442.06 734.36 478.25 718.16 C 534.46 693.27 594.40 675.50 655.94 671.25 C 679.47 668.92 703.05 666.01 726.00 660.18 C 757.71 652.51 787.88 637.71 812.40 616.08 C 796.05 577.28 775.15 539.78 746.09 509.00 C 726.29 524.23 702.03 534.09 676.95 535.20 C 664.26 535.69 651.45 533.81 639.49 529.55 C 635.82 527.27 633.05 523.86 630.47 520.47 C 619.47 505.17 616.22 485.52 603.97 470.99 C 597.59 463.29 587.94 458.92 578.07 458.11 M 628.66 493.84 C 632.60 501.95 639.45 508.20 646.73 513.31 C 657.12 520.26 669.40 525.19 682.07 524.76 C 690.81 524.57 699.53 520.92 705.42 514.39 C 687.53 514.70 671.95 505.03 656.31 497.71 C 647.82 493.80 637.88 490.08 628.66 493.84 Z" />
<path fill="#ffffff" opacity="1.00" d=" M 424.92 469.93 C 438.06 460.09 452.37 451.98 466.00 442.87 C 480.90 450.50 494.15 462.34 501.35 477.66 C 507.63 490.62 509.13 506.00 504.62 519.76 C 500.61 532.74 491.52 543.76 480.37 551.34 C 470.38 558.23 458.81 562.54 447.01 565.12 C 444.77 565.76 442.95 563.87 441.14 562.89 C 428.78 554.70 421.60 541.29 414.14 528.93 C 408.76 519.79 402.63 510.96 394.50 504.05 C 401.46 490.25 412.63 479.08 424.92 469.93 Z" />
<path fill="#ffffff" opacity="1.00" d=" M 496.41 442.97 C 517.95 449.90 541.14 447.19 562.87 453.16 C 563.27 461.63 561.42 470.41 556.28 477.31 C 549.74 486.16 540.03 491.78 532.05 499.17 C 514.82 484.50 505.07 463.39 496.41 442.97 Z" />
<path fill="#ffffff" opacity="1.00" d=" M 578.07 458.11 C 587.94 458.92 597.59 463.29 603.97 470.99 C 616.22 485.52 619.47 505.17 630.47 520.47 C 633.05 523.86 635.82 527.27 639.49 529.55 C 651.45 533.81 664.26 535.69 676.95 535.20 C 702.03 534.09 726.29 524.23 746.09 509.00 C 775.15 539.78 796.05 577.28 812.40 616.08 C 787.88 637.71 757.71 652.51 726.00 660.18 C 703.05 666.01 679.47 668.92 655.94 671.25 C 594.40 675.50 534.46 693.27 478.25 718.16 C 442.06 734.36 407.23 753.79 375.18 777.18 C 345.55 798.94 317.99 824.36 297.92 855.40 C 300.35 838.74 306.47 822.90 312.25 807.17 C 319.77 787.08 327.68 767.10 333.52 746.44 C 339.95 724.00 344.05 700.70 343.55 677.31 C 360.16 665.69 379.79 659.18 396.12 647.11 C 408.10 638.49 417.37 625.70 419.97 611.01 C 414.63 609.94 409.11 611.45 404.99 614.99 C 393.54 624.54 386.25 638.42 373.44 646.46 C 367.62 650.21 360.73 652.10 353.82 652.06 C 352.74 622.22 352.94 591.83 360.60 562.76 C 364.95 546.66 372.32 530.92 384.43 519.18 C 391.31 535.92 398.72 553.23 412.05 565.94 C 420.15 574.00 431.45 578.96 442.96 578.50 C 457.14 577.92 470.24 571.48 482.06 564.08 C 492.39 557.33 502.40 549.91 510.94 540.94 C 517.70 534.36 523.92 527.26 530.68 520.68 C 543.40 507.74 557.91 496.18 567.64 480.63 C 572.12 473.62 575.20 465.87 578.07 458.11 Z" />
<path fill="#ffffff" opacity="1.00" d=" M 628.66 493.84 C 637.88 490.08 647.82 493.80 656.31 497.71 C 671.95 505.03 687.53 514.70 705.42 514.39 C 699.53 520.92 690.81 524.57 682.07 524.76 C 669.40 525.19 657.12 520.26 646.73 513.31 C 639.45 508.20 632.60 501.95 628.66 493.84 Z" />
<path fill="#ffffff" opacity="1.00" d=" M 28.07 652.43 C 32.36 664.64 35.45 677.27 39.16 689.68 C 51.20 731.86 63.19 774.13 79.09 815.06 C 67.84 809.64 60.91 798.53 55.12 787.95 C 44.78 767.93 38.59 746.07 33.95 724.11 C 30.36 706.29 27.96 688.18 27.49 670.00 C 27.63 664.14 27.08 658.23 28.07 652.43 Z" />
</svg>
