<?xml version="1.0" encoding="UTF-8" ?>
<!DOCTYPE svg PUBLIC "-//W3C//DTD SVG 1.1//EN" "http://www.w3.org/Graphics/SVG/1.1/DTD/svg11.dtd">
<svg width="967pt" height="1058pt" viewBox="0 0 967 1058" version="1.1" xmlns="http://www.w3.org/2000/svg">
<path fill="#ffffff" opacity="1.00" d=" M 0.00 0.00 L 967.00 0.00 L 967.00 1058.00 L 0.00 1058.00 L 0.00 0.00 M 489.27 12.16 C 416.61 24.06 346.95 48.59 276.19 68.19 C 273.14 69.11 270.91 71.54 268.44 73.42 C 241.94 95.50 225.84 126.70 203.58 152.55 C 191.65 166.52 177.41 178.92 160.55 186.54 C 149.92 191.51 138.42 194.34 126.83 195.93 C 134.61 196.61 143.31 198.64 147.57 205.89 C 122.01 206.25 96.42 205.71 70.86 206.16 C 71.91 211.79 76.55 216.04 82.17 216.90 C 100.44 220.18 118.90 212.69 137.16 216.31 C 114.63 249.22 94.25 284.10 66.13 312.71 C 63.44 299.64 69.33 286.42 66.52 273.39 C 65.51 268.46 60.36 266.34 55.77 266.90 C 58.54 280.38 59.72 294.30 57.95 308.00 C 55.47 331.28 42.51 351.37 35.39 373.25 C 31.64 385.11 29.86 397.64 30.45 410.07 C 33.34 410.36 36.74 411.41 39.24 409.36 C 41.89 406.60 41.20 402.44 41.23 398.96 C 41.13 393.12 39.07 387.00 41.31 381.35 C 42.96 377.66 47.55 378.35 50.73 379.15 C 52.80 387.17 53.11 395.62 51.62 403.77 C 47.82 425.02 34.77 442.93 28.28 463.28 C 25.37 472.03 24.54 481.28 23.37 490.38 C 18.73 529.42 18.89 568.90 22.22 608.03 C 26.09 653.71 34.24 698.91 44.20 743.62 C 53.99 788.35 66.14 832.54 75.97 877.26 C 61.01 861.02 50.18 841.36 42.41 820.79 C 34.73 800.51 29.75 779.31 26.16 757.96 C 18.38 710.27 17.10 661.84 16.36 613.64 C 16.06 586.16 15.95 558.68 15.67 531.21 C 14.81 482.18 13.58 432.87 5.24 384.43 C 4.68 390.95 5.28 397.50 4.82 404.03 C 4.45 477.35 2.37 550.70 5.07 624.00 C 6.97 672.95 10.80 722.03 20.66 770.09 C 29.38 811.90 42.87 853.47 66.69 889.26 C 71.06 896.07 76.37 902.22 81.09 908.75 C 82.49 939.23 84.97 970.27 95.82 999.08 C 101.64 1014.66 110.15 1029.53 122.26 1041.08 C 122.54 1033.10 120.58 1025.28 118.16 1017.75 C 113.38 1003.39 106.75 989.74 101.59 975.54 C 94.30 956.05 89.59 935.13 91.71 914.24 C 99.36 925.13 107.34 935.82 116.27 945.71 C 153.37 987.40 202.54 1016.96 254.69 1035.89 C 246.97 1021.56 233.79 1011.13 219.90 1003.15 C 203.79 993.93 186.39 987.32 169.72 979.23 C 158.47 973.64 147.09 967.75 137.75 959.23 C 135.48 948.82 132.36 938.44 126.64 929.34 C 118.02 914.78 104.92 903.72 92.00 893.14 C 89.14 878.85 87.03 864.32 83.90 850.04 C 70.85 786.07 51.26 723.70 31.45 661.57 C 30.11 658.17 31.42 654.54 31.59 651.05 C 33.40 632.34 33.99 613.50 33.57 594.71 C 33.40 555.96 29.98 516.87 36.20 478.39 C 42.07 448.47 59.58 422.27 65.17 392.25 C 66.24 386.69 66.52 381.02 67.35 375.43 C 69.92 356.80 74.96 338.38 83.56 321.60 C 90.92 307.02 101.01 293.99 112.10 282.07 C 129.31 263.75 148.33 246.96 163.09 226.47 C 169.03 226.78 174.98 226.74 180.90 227.40 C 205.40 229.54 229.37 238.16 249.22 252.77 C 275.14 271.65 294.09 297.95 314.42 322.33 C 293.31 312.84 270.22 306.47 246.89 308.22 C 224.94 309.62 203.75 318.76 187.25 333.24 C 165.86 351.90 151.75 377.74 143.83 404.74 C 134.18 438.13 133.18 474.19 142.09 507.85 C 150.48 539.98 169.62 570.26 198.28 587.84 C 225.49 588.20 252.72 587.91 279.94 587.99 C 313.22 554.59 349.53 523.30 375.40 483.42 C 387.26 464.96 396.77 444.37 399.11 422.35 C 401.01 405.86 398.44 388.91 391.85 373.69 C 392.21 388.45 389.96 403.13 386.21 417.38 C 377.26 450.74 362.27 482.37 343.10 511.06 C 331.24 528.47 317.66 544.93 301.24 558.25 C 289.77 567.45 276.67 575.11 262.13 578.09 C 241.62 582.56 219.12 582.62 200.04 572.91 C 183.89 565.05 171.93 550.21 165.46 533.67 C 157.01 512.19 155.93 488.58 157.83 465.81 C 164.12 465.29 170.39 464.53 176.61 463.41 C 188.47 461.19 200.87 457.44 209.41 448.42 C 217.76 439.57 219.94 426.70 218.97 414.96 C 217.41 413.93 215.45 413.19 214.64 411.39 C 213.47 409.16 213.80 406.56 213.70 404.14 C 196.32 393.33 174.35 398.90 155.97 390.99 C 154.93 390.46 153.75 390.04 153.02 389.08 C 155.16 384.13 158.04 379.54 161.20 375.18 C 175.07 356.42 195.44 343.34 217.00 335.03 C 241.64 325.72 269.00 322.40 294.87 328.18 C 314.38 332.54 332.89 342.85 345.55 358.50 C 347.97 365.99 348.28 374.03 350.28 381.66 C 352.05 388.85 354.58 396.61 360.81 401.19 C 366.80 405.62 374.73 405.77 381.83 404.76 C 381.75 402.06 381.78 399.14 380.12 396.85 C 376.00 390.55 366.93 390.41 362.82 384.10 C 360.85 381.22 361.25 377.60 361.26 374.31 C 368.17 374.16 375.08 374.33 381.99 374.21 C 366.16 347.03 339.49 329.20 317.93 307.07 C 306.57 295.64 296.68 282.48 290.41 267.54 C 297.22 269.15 304.32 267.82 310.43 264.57 C 315.21 262.04 320.64 261.76 325.93 261.94 C 320.76 248.90 309.09 239.67 296.31 234.65 C 268.76 223.65 238.35 223.48 210.46 213.59 C 200.32 209.87 190.43 204.49 183.45 196.04 C 204.11 178.51 218.53 155.24 235.07 134.08 C 251.22 113.08 269.53 92.55 293.60 80.56 C 307.91 73.45 323.74 70.17 339.42 67.69 C 375.89 62.36 413.02 65.61 449.13 71.98 C 474.41 76.49 499.37 82.61 524.17 89.23 C 523.31 95.38 520.39 101.67 514.61 104.59 C 505.02 109.59 493.84 107.65 483.50 109.15 C 484.46 125.39 483.06 141.73 479.30 157.56 C 473.40 183.99 461.97 208.72 454.65 234.73 C 450.27 250.50 447.69 267.15 450.45 283.45 C 452.70 297.45 458.92 310.54 467.15 322.00 C 468.80 323.60 467.66 325.97 466.16 327.20 C 462.70 329.88 457.75 329.53 454.42 332.41 C 452.59 333.89 452.88 336.46 452.58 338.56 C 456.66 339.10 460.80 339.72 464.94 339.40 C 476.50 338.93 487.22 333.49 498.84 333.46 C 498.29 316.76 499.13 299.93 502.90 283.61 C 506.93 265.16 514.57 247.61 524.63 231.67 C 534.91 215.30 547.48 200.54 560.00 185.86 C 559.17 168.63 558.48 151.28 560.58 134.11 C 562.14 122.60 565.01 110.71 572.33 101.40 C 578.45 93.68 587.96 88.20 598.00 88.49 C 609.10 88.19 619.09 94.08 630.04 94.84 C 633.87 95.26 637.72 94.76 641.53 94.32 C 641.95 90.57 641.91 85.92 638.46 83.52 C 630.09 77.94 617.51 82.64 610.67 74.13 C 619.94 70.53 625.55 61.97 631.70 54.68 C 636.51 48.79 643.31 44.20 651.03 43.44 C 668.62 57.37 688.49 68.09 706.45 81.53 C 717.14 89.71 728.12 98.84 733.51 111.53 C 736.79 118.99 736.22 127.61 732.78 134.90 C 740.71 135.57 748.55 139.24 753.10 145.95 C 761.28 157.54 762.83 172.08 767.99 185.01 C 770.33 191.19 773.71 197.15 778.84 201.44 C 779.62 196.12 777.62 188.65 783.40 185.58 C 785.13 190.03 786.95 194.47 789.42 198.58 C 798.66 214.24 813.93 225.42 822.34 241.65 C 827.38 251.00 829.45 261.68 829.54 272.23 C 824.97 270.71 820.59 268.30 817.47 264.56 C 808.76 254.30 806.74 240.16 798.25 229.78 C 794.61 225.19 789.22 222.28 783.54 221.10 C 803.65 251.90 822.11 283.81 838.00 317.00 C 869.94 383.05 893.10 453.14 909.23 524.65 C 932.24 627.01 941.33 732.17 941.36 836.93 C 926.62 861.70 914.17 887.80 903.80 914.68 C 887.87 955.87 875.74 998.43 865.00 1041.23 C 874.38 1026.05 883.21 1010.53 892.14 995.09 C 911.93 960.12 931.12 924.67 946.36 887.44 C 949.56 879.31 952.88 871.18 954.83 862.65 C 958.22 848.34 960.52 833.77 961.71 819.11 C 962.38 808.98 962.85 798.69 961.26 788.62 C 960.37 783.29 958.36 776.70 952.23 775.61 C 953.82 777.14 956.00 778.54 955.98 781.04 C 956.21 783.64 953.87 785.24 951.99 786.53 C 941.80 748.29 941.51 708.30 942.25 669.00 C 943.43 614.67 948.44 560.24 943.95 505.93 C 942.70 492.19 941.32 478.28 936.60 465.21 C 930.39 446.56 919.38 430.05 912.08 411.88 C 908.43 403.10 906.48 393.72 905.87 384.27 C 899.42 377.01 892.55 370.11 886.56 362.45 C 865.28 336.43 849.68 305.74 841.82 273.02 C 837.90 257.73 836.05 242.02 834.62 226.34 C 828.07 216.33 821.00 206.65 814.12 196.86 C 790.91 164.13 766.71 132.01 739.74 102.26 C 714.93 74.88 687.63 49.64 657.40 28.32 C 663.14 28.23 669.15 28.02 674.36 25.33 C 677.72 23.69 680.22 20.79 682.38 17.81 C 619.48 1.21 553.13 1.30 489.27 12.16 M 615.76 175.43 C 614.46 190.26 608.11 204.31 598.82 215.84 C 586.43 231.70 570.28 243.96 556.32 258.32 C 543.67 270.61 532.49 284.98 526.60 301.77 C 520.33 319.18 520.30 338.26 523.59 356.30 C 525.04 365.52 529.58 373.83 534.16 381.82 C 544.04 398.46 555.77 413.95 568.52 428.48 C 579.12 440.77 591.96 451.00 606.19 458.79 C 639.82 477.29 678.93 484.68 717.09 482.77 C 740.15 481.49 763.33 476.52 783.96 465.88 C 800.23 457.39 814.88 444.55 822.65 427.66 C 829.62 412.80 830.45 395.70 827.39 379.75 C 824.47 364.15 817.90 349.53 810.46 335.61 C 800.00 315.10 789.69 294.40 776.66 275.36 C 767.71 262.23 757.15 250.27 745.83 239.15 C 731.13 224.25 719.90 206.48 706.35 190.62 C 697.21 179.81 685.12 170.76 670.91 168.31 C 652.29 164.99 633.42 169.72 615.76 175.43 M 462.73 461.80 C 445.55 467.15 429.46 476.07 416.04 488.07 C 403.73 499.02 393.68 512.31 385.63 526.64 C 374.64 546.25 367.04 567.56 361.07 589.17 C 342.30 657.80 338.19 729.60 317.75 797.84 C 311.93 816.64 304.97 835.25 295.01 852.28 C 287.28 842.26 289.79 828.31 283.22 817.79 C 280.42 813.14 274.78 811.32 269.60 811.64 C 273.22 829.56 277.26 848.58 289.70 862.69 C 312.02 862.79 334.34 862.78 356.66 862.70 C 356.42 860.11 356.48 857.27 354.84 855.11 C 352.76 852.45 349.20 851.72 346.02 851.40 C 334.23 850.54 322.47 854.89 310.72 852.53 C 327.04 831.11 335.29 804.89 340.88 778.89 C 345.59 756.84 349.22 734.55 350.79 712.05 C 353.41 680.24 354.22 648.25 358.67 616.62 C 361.46 597.66 365.28 578.41 374.41 561.37 C 383.24 544.90 398.75 533.02 415.66 525.67 C 453.23 509.25 495.57 507.50 532.61 489.58 C 542.69 484.86 551.82 478.40 560.12 471.04 C 592.84 478.31 623.00 493.62 651.95 510.08 C 685.77 529.35 720.26 549.05 758.67 557.48 C 755.79 552.23 752.06 547.42 747.43 543.60 C 734.16 532.51 717.60 526.68 701.86 520.07 C 665.63 505.87 633.87 482.51 597.66 468.27 C 579.04 460.88 559.30 456.30 539.30 454.90 C 513.67 452.87 487.39 454.01 462.73 461.80 M 768.48 516.27 C 770.39 531.38 771.32 547.10 766.69 561.83 C 762.92 574.77 754.07 585.84 742.76 593.04 C 751.77 596.17 762.72 594.59 769.19 587.17 C 779.02 576.09 781.36 560.34 780.64 546.02 C 779.77 535.29 777.18 523.46 768.48 516.27 M 437.59 684.37 C 437.14 703.42 430.23 721.89 431.37 741.06 C 431.83 747.34 433.44 754.29 438.77 758.26 C 444.30 762.37 451.63 762.03 458.10 761.09 C 456.26 742.83 460.06 724.53 458.35 706.27 C 457.63 700.21 456.22 693.73 451.70 689.30 C 448.04 685.57 442.64 684.37 437.59 684.37 M 437.64 862.33 C 432.94 885.14 429.53 908.57 431.64 931.89 C 432.94 943.24 435.65 955.55 444.40 963.60 C 450.77 969.57 460.06 970.79 468.41 969.71 C 476.65 945.21 475.11 917.72 464.87 894.06 C 459.25 881.13 450.32 869.02 437.64 862.33 M 366.33 1056.33 C 372.79 1055.95 379.37 1054.50 384.73 1050.71 C 393.57 1044.73 398.39 1034.26 399.67 1023.91 C 401.33 1009.86 397.76 994.60 387.83 984.17 C 382.27 978.28 374.41 975.00 366.40 974.35 C 361.83 1001.30 358.04 1029.70 366.33 1056.33 Z" />
<path fill="#000000" opacity="1.00" d=" M 489.27 12.16 C 553.13 1.30 619.48 1.21 682.38 17.81 C 680.22 20.79 677.72 23.69 674.36 25.33 C 669.15 28.02 663.14 28.23 657.40 28.32 C 687.63 49.64 714.93 74.88 739.74 102.26 C 766.71 132.01 790.91 164.13 814.12 196.86 C 821.00 206.65 828.07 216.33 834.62 226.34 C 836.05 242.02 837.90 257.73 841.82 273.02 C 849.68 305.74 865.28 336.43 886.56 362.45 C 892.55 370.11 899.42 377.01 905.87 384.27 C 906.48 393.72 908.43 403.10 912.08 411.88 C 919.38 430.05 930.39 446.56 936.60 465.21 C 941.32 478.28 942.70 492.19 943.95 505.93 C 948.44 560.24 943.43 614.67 942.25 669.00 C 941.51 708.30 941.80 748.29 951.99 786.53 C 953.87 785.24 956.21 783.64 955.98 781.04 C 956.00 778.54 953.82 777.14 952.23 775.61 C 958.36 776.70 960.37 783.29 961.26 788.62 C 962.85 798.69 962.38 808.98 961.71 819.11 C 960.52 833.77 958.22 848.34 954.83 862.65 C 952.88 871.18 949.56 879.31 946.36 887.44 C 931.12 924.67 911.93 960.12 892.14 995.09 C 883.21 1010.53 874.38 1026.05 865.00 1041.23 C 875.74 998.43 887.87 955.87 903.80 914.68 C 914.17 887.80 926.62 861.70 941.36 836.93 C 941.33 732.17 932.24 627.01 909.23 524.65 C 893.10 453.14 869.94 383.05 838.00 317.00 C 822.11 283.81 803.65 251.90 783.54 221.10 C 789.22 222.28 794.61 225.19 798.25 229.78 C 806.74 240.16 808.76 254.30 817.47 264.56 C 820.59 268.30 824.97 270.71 829.54 272.23 C 829.45 261.68 827.38 251.00 822.34 241.65 C 813.93 225.42 798.66 214.24 789.42 198.58 C 786.95 194.47 785.13 190.03 783.40 185.58 C 777.62 188.65 779.62 196.12 778.84 201.44 C 773.71 197.15 770.33 191.19 767.99 185.01 C 762.83 172.08 761.28 157.54 753.10 145.95 C 748.55 139.24 740.71 135.57 732.78 134.90 C 736.22 127.61 736.79 118.99 733.51 111.53 C 728.12 98.84 717.14 89.71 706.45 81.53 C 688.49 68.09 668.62 57.37 651.03 43.44 C 643.31 44.20 636.51 48.79 631.70 54.68 C 625.55 61.97 619.94 70.53 610.67 74.13 C 617.51 82.64 630.09 77.94 638.46 83.52 C 641.91 85.92 641.95 90.57 641.53 94.32 C 637.72 94.76 633.87 95.26 630.04 94.84 C 619.09 94.08 609.10 88.19 598.00 88.49 C 587.96 88.20 578.45 93.68 572.33 101.40 C 565.01 110.71 562.14 122.60 560.58 134.11 C 558.48 151.28 559.17 168.63 560.00 185.86 C 547.48 200.54 534.91 215.30 524.63 231.67 C 514.57 247.61 506.93 265.16 502.90 283.61 C 499.13 299.93 498.29 316.76 498.84 333.46 C 487.22 333.49 476.50 338.93 464.94 339.40 C 460.80 339.72 456.66 339.10 452.58 338.56 C 452.88 336.46 452.59 333.89 454.42 332.41 C 457.75 329.53 462.70 329.88 466.16 327.20 C 467.66 325.97 468.80 323.60 467.15 322.00 C 458.92 310.54 452.70 297.45 450.45 283.45 C 447.69 267.15 450.27 250.50 454.65 234.73 C 461.97 208.72 473.40 183.99 479.30 157.56 C 483.06 141.73 484.46 125.39 483.50 109.15 C 493.84 107.65 505.02 109.59 514.61 104.59 C 520.39 101.67 523.31 95.38 524.17 89.23 C 499.37 82.61 474.41 76.49 449.13 71.98 C 413.02 65.61 375.89 62.36 339.42 67.69 C 323.74 70.17 307.91 73.45 293.60 80.56 C 269.53 92.55 251.22 113.08 235.07 134.08 C 218.53 155.24 204.11 178.51 183.45 196.04 C 190.43 204.49 200.32 209.87 210.46 213.59 C 238.35 223.48 268.76 223.65 296.31 234.65 C 309.09 239.67 320.76 248.90 325.93 261.94 C 320.64 261.76 315.21 262.04 310.43 264.57 C 304.32 267.82 297.22 269.15 290.41 267.54 C 296.68 282.48 306.57 295.64 317.93 307.07 C 339.49 329.20 366.16 347.03 381.99 374.21 C 375.08 374.33 368.17 374.16 361.26 374.31 C 361.25 377.60 360.85 381.22 362.82 384.10 C 366.93 390.41 376.00 390.55 380.12 396.85 C 381.78 399.14 381.75 402.06 381.83 404.76 C 374.73 405.77 366.80 405.62 360.81 401.19 C 354.58 396.61 352.05 388.85 350.28 381.66 C 348.28 374.03 347.97 365.99 345.55 358.50 C 332.89 342.85 314.38 332.54 294.87 328.18 C 269.00 322.40 241.64 325.72 217.00 335.03 C 195.44 343.34 175.07 356.42 161.20 375.18 C 158.04 379.54 155.16 384.13 153.02 389.08 C 153.75 390.04 154.93 390.46 155.97 390.99 C 174.35 398.90 196.32 393.33 213.70 404.14 C 213.80 406.56 213.47 409.16 214.64 411.39 C 215.45 413.19 217.41 413.93 218.97 414.96 C 219.94 426.70 217.76 439.57 209.41 448.42 C 200.87 457.44 188.47 461.19 176.61 463.41 C 170.39 464.53 164.12 465.29 157.83 465.81 C 155.93 488.58 157.01 512.19 165.46 533.67 C 171.93 550.21 183.89 565.05 200.04 572.91 C 219.12 582.62 241.62 582.56 262.13 578.09 C 276.67 575.11 289.77 567.45 301.24 558.25 C 317.66 544.93 331.24 528.47 343.10 511.06 C 362.27 482.37 377.26 450.74 386.21 417.38 C 389.96 403.13 392.21 388.45 391.85 373.69 C 398.44 388.91 401.01 405.86 399.11 422.35 C 396.77 444.37 387.26 464.96 375.40 483.42 C 349.53 523.30 313.22 554.59 279.94 587.99 C 252.72 587.91 225.49 588.20 198.28 587.84 C 169.62 570.26 150.48 539.98 142.09 507.85 C 133.18 474.19 134.18 438.13 143.83 404.74 C 151.75 377.74 165.86 351.90 187.25 333.24 C 203.75 318.76 224.94 309.62 246.89 308.22 C 270.22 306.47 293.31 312.84 314.42 322.33 C 294.09 297.95 275.14 271.65 249.22 252.77 C 229.37 238.16 205.40 229.54 180.90 227.40 C 174.98 226.74 169.03 226.78 163.09 226.47 C 148.33 246.96 129.31 263.75 112.10 282.07 C 101.01 293.99 90.92 307.02 83.56 321.60 C 74.96 338.38 69.92 356.80 67.35 375.43 C 66.52 381.02 66.24 386.69 65.17 392.25 C 59.58 422.27 42.07 448.47 36.20 478.39 C 29.98 516.87 33.40 555.96 33.57 594.71 C 33.99 613.50 33.40 632.34 31.59 651.05 C 31.42 654.54 30.11 658.17 31.45 661.57 C 51.26 723.70 70.85 786.07 83.90 850.04 C 87.03 864.32 89.14 878.85 92.00 893.14 C 104.92 903.72 118.02 914.78 126.64 929.34 C 132.36 938.44 135.48 948.82 137.75 959.23 C 147.09 967.75 158.47 973.64 169.72 979.23 C 186.39 987.32 203.79 993.93 219.90 1003.15 C 233.79 1011.13 246.97 1021.56 254.69 1035.89 C 202.54 1016.96 153.37 987.40 116.27 945.71 C 107.34 935.82 99.36 925.13 91.71 914.24 C 89.59 935.13 94.30 956.05 101.59 975.54 C 106.75 989.74 113.38 1003.39 118.16 1017.75 C 120.58 1025.28 122.54 1033.10 122.26 1041.08 C 110.15 1029.53 101.64 1014.66 95.82 999.08 C 84.97 970.27 82.49 939.23 81.09 908.75 C 76.37 902.22 71.06 896.07 66.69 889.26 C 42.87 853.47 29.38 811.90 20.66 770.09 C 10.80 722.03 6.97 672.95 5.07 624.00 C 2.37 550.70 4.45 477.35 4.82 404.03 C 5.28 397.50 4.68 390.95 5.24 384.43 C 13.58 432.87 14.81 482.18 15.67 531.21 C 15.95 558.68 16.06 586.16 16.36 613.64 C 17.10 661.84 18.38 710.27 26.16 757.96 C 29.75 779.31 34.73 800.51 42.41 820.79 C 50.18 841.36 61.01 861.02 75.97 877.26 C 66.14 832.54 53.99 788.35 44.20 743.62 C 34.24 698.91 26.09 653.71 22.22 608.03 C 18.89 568.90 18.73 529.42 23.37 490.38 C 24.54 481.28 25.37 472.03 28.28 463.28 C 34.77 442.93 47.82 425.02 51.62 403.77 C 53.11 395.62 52.80 387.17 50.73 379.15 C 47.55 378.35 42.96 377.66 41.31 381.35 C 39.07 387.00 41.13 393.12 41.23 398.96 C 41.20 402.44 41.89 406.60 39.24 409.36 C 36.74 411.41 33.34 410.36 30.45 410.07 C 29.86 397.64 31.64 385.11 35.39 373.25 C 42.51 351.37 55.47 331.28 57.95 308.00 C 59.72 294.30 58.54 280.38 55.77 266.90 C 60.36 266.34 65.51 268.46 66.52 273.39 C 69.33 286.42 63.44 299.64 66.13 312.71 C 94.25 284.10 114.63 249.22 137.16 216.31 C 118.90 212.69 100.44 220.18 82.17 216.90 C 76.55 216.04 71.91 211.79 70.86 206.16 C 96.42 205.71 122.01 206.25 147.57 205.89 C 143.31 198.64 134.61 196.61 126.83 195.93 C 138.42 194.34 149.92 191.51 160.55 186.54 C 177.41 178.92 191.65 166.52 203.58 152.55 C 225.84 126.70 241.94 95.50 268.44 73.42 C 270.91 71.54 273.14 69.11 276.19 68.19 C 346.95 48.59 416.61 24.06 489.27 12.16 M 560.12 12.76 C 563.10 27.45 557.50 42.20 559.05 56.95 C 559.47 61.43 561.50 66.53 566.22 67.92 C 571.95 70.12 577.55 66.38 581.63 62.66 C 596.12 49.21 606.08 31.74 620.29 18.02 C 609.53 17.64 599.02 15.23 588.45 13.41 C 579.09 11.81 569.53 11.58 560.12 12.76 M 406.01 40.05 C 393.89 44.08 381.96 49.55 372.33 58.11 C 380.83 56.58 389.39 55.30 398.03 54.92 C 422.05 53.53 445.75 58.47 469.21 62.89 C 488.86 66.51 508.83 69.22 528.85 68.55 C 529.06 53.64 539.16 41.73 544.51 28.46 C 545.76 24.96 547.30 21.00 545.81 17.35 C 544.44 15.07 541.90 12.90 539.14 13.14 C 496.02 27.84 449.36 26.26 406.01 40.05 M 611.84 44.82 C 608.14 47.47 604.38 50.69 603.01 55.18 C 601.94 58.23 603.90 61.04 605.39 63.53 C 615.52 53.50 629.45 46.76 635.84 33.40 C 627.38 36.10 619.16 39.76 611.84 44.82 M 539.64 78.76 C 532.59 91.64 531.42 106.77 524.47 119.70 C 526.93 120.01 529.45 120.81 531.95 120.24 C 535.79 119.64 538.57 116.67 541.98 115.06 C 544.33 113.96 546.99 114.32 549.51 114.21 C 548.95 104.75 551.13 95.02 548.41 85.77 C 547.37 81.68 543.55 79.44 539.64 78.76 M 504.36 124.62 C 502.84 133.88 497.58 142.40 498.00 151.96 C 498.09 155.72 500.79 158.67 503.92 160.41 C 507.73 154.33 509.25 147.10 509.74 140.02 C 510.03 134.52 509.48 127.89 504.36 124.62 M 534.66 129.78 C 528.67 141.84 523.02 154.15 519.16 167.09 C 516.05 177.81 514.21 189.67 518.62 200.31 C 520.68 183.17 530.78 168.70 537.08 153.02 C 539.10 147.69 541.22 141.92 539.87 136.17 C 539.12 133.37 536.81 131.52 534.66 129.78 M 478.81 206.44 C 475.39 218.45 468.12 228.96 465.10 241.10 C 463.98 246.17 464.00 252.43 467.93 256.31 C 468.74 255.22 469.11 253.89 469.54 252.62 C 473.29 240.75 477.87 229.03 479.68 216.65 C 480.26 213.24 480.10 209.68 478.81 206.44 M 269.86 246.46 C 278.09 250.40 285.66 256.59 295.01 257.53 C 299.24 258.16 302.71 255.36 305.25 252.34 C 297.24 248.45 289.87 242.55 280.85 241.27 C 276.41 240.51 272.39 243.01 269.86 246.46 M 470.34 273.23 C 468.23 278.40 465.71 284.03 467.17 289.72 C 468.69 295.56 473.65 299.56 478.51 302.69 C 481.55 297.23 482.84 291.05 483.67 284.92 C 484.72 276.72 484.97 268.28 482.97 260.20 C 482.27 257.14 480.62 254.43 478.72 251.99 C 476.60 259.32 473.48 266.30 470.34 273.23 M 876.17 370.74 C 882.67 392.98 889.63 415.07 896.59 437.17 C 907.28 470.12 918.14 503.07 931.02 535.25 C 933.11 505.49 928.27 475.23 917.55 447.38 C 907.13 420.15 891.14 395.61 876.17 370.74 M 152.88 404.81 C 150.49 417.88 143.77 429.80 142.31 443.08 C 141.73 448.89 141.87 454.77 142.59 460.56 C 162.48 460.36 183.76 453.52 196.44 437.44 C 200.26 432.28 202.93 425.16 199.97 418.97 C 196.81 412.29 189.50 409.06 182.76 407.18 C 173.04 404.70 162.86 404.18 152.88 404.81 Z" />
<path fill="#ffffff" opacity="1.00" d=" M 560.12 12.76 C 569.53 11.58 579.09 11.81 588.45 13.41 C 599.02 15.23 609.53 17.64 620.29 18.02 C 606.08 31.74 596.12 49.21 581.63 62.66 C 577.55 66.38 571.95 70.12 566.22 67.92 C 561.50 66.53 559.47 61.43 559.05 56.95 C 557.50 42.20 563.10 27.45 560.12 12.76 Z" />
<path fill="#ffffff" opacity="1.00" d=" M 406.01 40.05 C 449.36 26.26 496.02 27.84 539.14 13.14 C 541.90 12.90 544.44 15.07 545.81 17.35 C 547.30 21.00 545.76 24.96 544.51 28.46 C 539.16 41.73 529.06 53.64 528.85 68.55 C 508.83 69.22 488.86 66.51 469.21 62.89 C 445.75 58.47 422.05 53.53 398.03 54.92 C 389.39 55.30 380.83 56.58 372.33 58.11 C 381.96 49.55 393.89 44.08 406.01 40.05 Z" />
<path fill="#ffffff" opacity="1.00" d=" M 611.84 44.82 C 619.16 39.76 627.38 36.10 635.84 33.40 C 629.45 46.76 615.52 53.50 605.39 63.53 C 603.90 61.04 601.94 58.23 603.01 55.18 C 604.38 50.69 608.14 47.47 611.84 44.82 Z" />
<path fill="#ffffff" opacity="1.00" d=" M 539.64 78.76 C 543.55 79.44 547.37 81.68 548.41 85.77 C 551.13 95.02 548.95 104.75 549.51 114.21 C 546.99 114.32 544.33 113.96 541.98 115.06 C 538.57 116.67 535.79 119.64 531.95 120.24 C 529.45 120.81 526.93 120.01 524.47 119.70 C 531.42 106.77 532.59 91.64 539.64 78.76 Z" />
<path fill="#ffffff" opacity="1.00" d=" M 504.36 124.62 C 509.48 127.89 510.03 134.52 509.74 140.02 C 509.25 147.10 507.73 154.33 503.92 160.41 C 500.79 158.67 498.09 155.72 498.00 151.96 C 497.58 142.40 502.84 133.88 504.36 124.62 Z" />
<path fill="#ffffff" opacity="1.00" d=" M 534.66 129.78 C 536.81 131.52 539.12 133.37 539.87 136.17 C 541.22 141.92 539.10 147.69 537.08 153.02 C 530.78 168.70 520.68 183.17 518.62 200.31 C 514.21 189.67 516.05 177.81 519.16 167.09 C 523.02 154.15 528.67 141.84 534.66 129.78 Z" />
<path fill="#000000" opacity="1.00" d=" M 615.76 175.43 C 633.42 169.72 652.29 164.99 670.91 168.31 C 685.12 170.76 697.21 179.81 706.35 190.62 C 719.90 206.48 731.13 224.25 745.83 239.15 C 757.15 250.27 767.71 262.23 776.66 275.36 C 789.69 294.40 800.00 315.10 810.46 335.61 C 817.90 349.53 824.47 364.15 827.39 379.75 C 830.45 395.70 829.62 412.80 822.65 427.66 C 814.88 444.55 800.23 457.39 783.96 465.88 C 763.33 476.52 740.15 481.49 717.09 482.77 C 678.93 484.68 639.82 477.29 606.19 458.79 C 591.96 451.00 579.12 440.77 568.52 428.48 C 555.77 413.95 544.04 398.46 534.16 381.82 C 529.58 373.83 525.04 365.52 523.59 356.30 C 520.30 338.26 520.33 319.18 526.60 301.77 C 532.49 284.98 543.67 270.61 556.32 258.32 C 570.28 243.96 586.43 231.70 598.82 215.84 C 608.11 204.31 614.46 190.26 615.76 175.43 M 621.46 185.49 C 620.57 188.21 620.21 193.59 623.99 194.24 C 632.83 192.41 639.46 184.06 648.90 184.23 C 652.76 184.24 655.11 187.67 656.89 190.62 C 653.24 192.78 649.34 194.49 645.60 196.48 C 626.50 206.57 608.53 218.95 592.80 233.80 C 569.56 255.59 550.65 283.37 544.05 314.92 C 539.38 336.57 541.51 359.56 550.01 380.00 C 556.70 396.36 567.07 411.02 579.26 423.74 C 590.56 435.69 604.73 444.65 619.74 451.22 C 637.90 459.25 657.35 463.99 676.92 467.06 C 704.09 471.25 731.67 471.92 759.10 470.87 C 761.01 470.70 763.16 471.00 764.78 469.72 C 773.14 464.31 781.11 458.21 788.07 451.07 C 800.44 438.62 809.53 422.64 812.55 405.26 C 816.27 385.16 812.30 364.46 805.37 345.50 C 793.21 313.07 773.02 284.40 751.21 257.79 C 728.40 230.42 703.30 204.96 676.89 181.08 C 664.60 181.22 652.32 180.37 640.02 180.51 C 633.63 180.81 626.75 181.54 621.46 185.49 Z" />
<path fill="#ffffff" opacity="1.00" d=" M 621.46 185.49 C 626.75 181.54 633.63 180.81 640.02 180.51 C 652.32 180.37 664.60 181.22 676.89 181.08 C 703.30 204.96 728.40 230.42 751.21 257.79 C 773.02 284.40 793.21 313.07 805.37 345.50 C 812.30 364.46 816.27 385.16 812.55 405.26 C 809.53 422.64 800.44 438.62 788.07 451.07 C 781.11 458.21 773.14 464.31 764.78 469.72 C 763.16 471.00 761.01 470.70 759.10 470.87 C 731.67 471.92 704.09 471.25 676.92 467.06 C 657.35 463.99 637.90 459.25 619.74 451.22 C 604.73 444.65 590.56 435.69 579.26 423.74 C 567.07 411.02 556.70 396.36 550.01 380.00 C 541.51 359.56 539.38 336.57 544.05 314.92 C 550.65 283.37 569.56 255.59 592.80 233.80 C 608.53 218.95 626.50 206.57 645.60 196.48 C 649.34 194.49 653.24 192.78 656.89 190.62 C 655.11 187.67 652.76 184.24 648.90 184.23 C 639.46 184.06 632.83 192.41 623.99 194.24 C 620.21 193.59 620.57 188.21 621.46 185.49 M 676.77 236.39 C 676.71 258.58 676.77 280.78 676.75 302.97 C 693.19 302.50 708.76 308.50 724.73 311.40 C 735.94 313.59 747.93 313.16 758.37 308.17 C 758.17 304.48 758.02 300.70 759.21 297.15 C 760.04 293.91 762.11 290.84 761.70 287.38 C 760.41 284.00 756.26 283.46 753.35 282.16 C 752.28 287.29 750.33 292.71 745.76 295.74 C 738.20 301.03 728.31 300.87 719.61 299.16 C 708.59 296.84 697.74 292.30 689.32 284.68 C 685.55 281.62 686.27 276.21 686.37 271.91 C 686.76 261.97 689.89 251.81 687.19 241.99 C 685.89 237.50 680.97 236.02 676.77 236.39 Z" />
<path fill="#ffffff" opacity="1.00" d=" M 478.81 206.44 C 480.10 209.68 480.26 213.24 479.68 216.65 C 477.87 229.03 473.29 240.75 469.54 252.62 C 469.11 253.89 468.74 255.22 467.93 256.31 C 464.00 252.43 463.98 246.17 465.10 241.10 C 468.12 228.96 475.39 218.45 478.81 206.44 Z" />
<path fill="#000000" opacity="1.00" d=" M 676.77 236.39 C 680.97 236.02 685.89 237.50 687.19 241.99 C 689.89 251.81 686.76 261.97 686.37 271.91 C 686.27 276.21 685.55 281.62 689.32 284.68 C 697.74 292.30 708.59 296.84 719.61 299.16 C 728.31 300.87 738.20 301.03 745.76 295.74 C 750.33 292.71 752.28 287.29 753.35 282.16 C 756.26 283.46 760.41 284.00 761.70 287.38 C 762.11 290.84 760.04 293.91 759.21 297.15 C 758.02 300.70 758.17 304.48 758.37 308.17 C 747.93 313.16 735.94 313.59 724.73 311.40 C 708.76 308.50 693.19 302.50 676.75 302.97 C 676.77 280.78 676.71 258.58 676.77 236.39 Z" />
<path fill="#ffffff" opacity="1.00" d=" M 269.86 246.46 C 272.39 243.01 276.41 240.51 280.85 241.27 C 289.87 242.55 297.24 248.45 305.25 252.34 C 302.71 255.36 299.24 258.16 295.01 257.53 C 285.66 256.59 278.09 250.40 269.86 246.46 Z" />
<path fill="#ffffff" opacity="1.00" d=" M 470.34 273.23 C 473.48 266.30 476.60 259.32 478.72 251.99 C 480.62 254.43 482.27 257.14 482.97 260.20 C 484.97 268.28 484.72 276.72 483.67 284.92 C 482.84 291.05 481.55 297.23 478.51 302.69 C 473.65 299.56 468.69 295.56 467.17 289.72 C 465.71 284.03 468.23 278.40 470.34 273.23 Z" />
<path fill="#ffffff" opacity="1.00" d=" M 876.17 370.74 C 891.14 395.61 907.13 420.15 917.55 447.38 C 928.27 475.23 933.11 505.49 931.02 535.25 C 918.14 503.07 907.28 470.12 896.59 437.17 C 889.63 415.07 882.67 392.98 876.17 370.74 Z" />
<path fill="#ffffff" opacity="1.00" d=" M 152.88 404.81 C 162.86 404.18 173.04 404.70 182.76 407.18 C 189.50 409.06 196.81 412.29 199.97 418.97 C 202.93 425.16 200.26 432.28 196.44 437.44 C 183.76 453.52 162.48 460.36 142.59 460.56 C 141.87 454.77 141.73 448.89 142.31 443.08 C 143.77 429.80 150.49 417.88 152.88 404.81 Z" />
<path fill="#000000" opacity="1.00" d=" M 462.73 461.80 C 487.39 454.01 513.67 452.87 539.30 454.90 C 559.30 456.30 579.04 460.88 597.66 468.27 C 633.87 482.51 665.63 505.87 701.86 520.07 C 717.60 526.68 734.16 532.51 747.43 543.60 C 752.06 547.42 755.79 552.23 758.67 557.48 C 720.26 549.05 685.77 529.35 651.95 510.08 C 623.00 493.62 592.84 478.31 560.12 471.04 C 551.82 478.40 542.69 484.86 532.61 489.58 C 495.57 507.50 453.23 509.25 415.66 525.67 C 398.75 533.02 383.24 544.90 374.41 561.37 C 365.28 578.41 361.46 597.66 358.67 616.62 C 354.22 648.25 353.41 680.24 350.79 712.05 C 349.22 734.55 345.59 756.84 340.88 778.89 C 335.29 804.89 327.04 831.11 310.72 852.53 C 322.47 854.89 334.23 850.54 346.02 851.40 C 349.20 851.72 352.76 852.45 354.84 855.11 C 356.48 857.27 356.42 860.11 356.66 862.70 C 334.34 862.78 312.02 862.79 289.70 862.69 C 277.26 848.58 273.22 829.56 269.60 811.64 C 274.78 811.32 280.42 813.14 283.22 817.79 C 289.79 828.31 287.28 842.26 295.01 852.28 C 304.97 835.25 311.93 816.64 317.75 797.84 C 338.19 729.60 342.30 657.80 361.07 589.17 C 367.04 567.56 374.64 546.25 385.63 526.64 C 393.68 512.31 403.73 499.02 416.04 488.07 C 429.46 476.07 445.55 467.15 462.73 461.80 M 441.19 487.20 C 429.19 496.10 418.29 507.31 412.52 521.31 C 436.98 510.78 462.66 503.24 486.72 491.76 C 500.29 485.09 513.50 477.04 523.78 465.80 C 494.87 462.35 464.74 470.03 441.19 487.20 Z" />
<path fill="#ffffff" opacity="1.00" d=" M 441.19 487.20 C 464.74 470.03 494.87 462.35 523.78 465.80 C 513.50 477.04 500.29 485.09 486.72 491.76 C 462.66 503.24 436.98 510.78 412.52 521.31 C 418.29 507.31 429.19 496.10 441.19 487.20 Z" />
<path fill="#000000" opacity="1.00" d=" M 768.48 516.27 C 777.18 523.46 779.77 535.29 780.64 546.02 C 781.36 560.34 779.02 576.09 769.19 587.17 C 762.72 594.59 751.77 596.17 742.76 593.04 C 754.07 585.84 762.92 574.77 766.69 561.83 C 771.32 547.10 770.39 531.38 768.48 516.27 Z" />
<path fill="#000000" opacity="1.00" d=" M 437.59 684.37 C 442.64 684.37 448.04 685.57 451.70 689.30 C 456.22 693.73 457.63 700.21 458.35 706.27 C 460.06 724.53 456.26 742.83 458.10 761.09 C 451.63 762.03 444.30 762.37 438.77 758.26 C 433.44 754.29 431.83 747.34 431.37 741.06 C 430.23 721.89 437.14 703.42 437.59 684.37 Z" />
<path fill="#000000" opacity="1.00" d=" M 437.64 862.33 C 450.32 869.02 459.25 881.13 464.87 894.06 C 475.11 917.72 476.65 945.21 468.41 969.71 C 460.06 970.79 450.77 969.57 444.40 963.60 C 435.65 955.55 432.94 943.24 431.64 931.89 C 429.53 908.57 432.94 885.14 437.64 862.33 M 442.94 888.31 C 442.56 905.01 441.23 922.08 445.39 938.44 C 447.63 947.59 453.70 956.17 462.91 959.26 C 463.68 945.55 463.45 931.65 460.75 918.15 C 458.43 906.61 453.16 894.88 442.94 888.31 Z" />
<path fill="#ffffff" opacity="1.00" d=" M 442.94 888.31 C 453.16 894.88 458.43 906.61 460.75 918.15 C 463.45 931.65 463.68 945.55 462.91 959.26 C 453.70 956.17 447.63 947.59 445.39 938.44 C 441.23 922.08 442.56 905.01 442.94 888.31 Z" />
<path fill="#000000" opacity="1.00" d=" M 366.33 1056.33 C 358.04 1029.70 361.83 1001.30 366.40 974.35 C 374.41 975.00 382.27 978.28 387.83 984.17 C 397.76 994.60 401.33 1009.86 399.67 1023.91 C 398.39 1034.26 393.57 1044.73 384.73 1050.71 C 379.37 1054.50 372.79 1055.95 366.33 1056.33 M 371.95 999.71 C 376.76 1003.19 377.62 1009.43 377.76 1014.94 C 377.82 1023.93 376.29 1033.11 372.04 1041.12 C 376.29 1041.41 380.68 1039.66 382.89 1035.88 C 387.59 1028.22 387.97 1018.67 386.84 1009.98 C 385.96 1005.11 384.79 999.46 380.39 996.55 C 377.20 994.78 374.17 997.72 371.95 999.71 Z" />
<path fill="#ffffff" opacity="1.00" d=" M 371.95 999.71 C 374.17 997.72 377.20 994.78 380.39 996.55 C 384.79 999.46 385.96 1005.11 386.84 1009.98 C 387.97 1018.67 387.59 1028.22 382.89 1035.88 C 380.68 1039.66 376.29 1041.41 372.04 1041.12 C 376.29 1033.11 377.82 1023.93 377.76 1014.94 C 377.62 1009.43 376.76 1003.19 371.95 999.71 Z" />
</svg>
