<?xml version="1.0" encoding="utf-8"?>
<!-- Generator: Adobe Illustrator 15.0.2, SVG Export Plug-In . SVG Version: 6.00 Build 0)  -->
<!DOCTYPE svg PUBLIC "-//W3C//DTD SVG 1.1//EN" "http://www.w3.org/Graphics/SVG/1.1/DTD/svg11.dtd">
<svg version="1.1" id="Layer_1" xmlns="http://www.w3.org/2000/svg" xmlns:xlink="http://www.w3.org/1999/xlink" x="0px" y="0px"
	 width="202px" height="158px" viewBox="0 0 202 158" enable-background="new 0 0 202 158" xml:space="preserve">
<path fill="#FFFFFF" d="M0,0h202v147.52c-1.891-0.26-3.8-0.379-5.71-0.39c1.66,1.24,3.78,1.22,5.71,1.72V158h-64.6
	c0.68-1.38,1.289-2.8,1.959-4.189c1.17-2.98,2.631-5.841,3.82-8.82c0.53-1.65,1.24-3.24,2.051-4.78
	c0.039-0.63,0.119-1.89,0.16-2.521c2.6-1.299,3.299-4.239,4.109-6.789c1.4-4.73,1.77-9.82,0.891-14.69
	c-0.42,3.66-0.07,7.351-0.621,11c-1.42-9.399-1.67-18.94-1.09-28.42c-0.43-3.92,0.1-7.931-0.75-11.81
	c-0.619-4.99,0.551-10.13-0.84-15.021c-1.199-3.18-2.22-6.47-4.22-9.28c-0.08-0.91-0.17-1.82-0.25-2.74
	c-2.399-2.28-3.851-5.27-5.57-8.04c-1.13-1.54-2.319-3.03-3.55-4.49c-0.029-0.64-0.08-1.91-0.109-2.55
	c-2.041-3.08-2-6.74-1.811-10.29c-0.48,0.07-1.439,0.2-1.92,0.27c-0.58-1.66-1.11-3.34-1.45-5.07c-1.31-1.64-2.78-3.14-4.37-4.51
	c-2.66-3.96-5.68-7.67-8.9-11.18c-3.689-3.63-8.229-6.24-11.969-9.82c1.6-0.32,3.27-0.61,4.479-1.82c-2.44-0.14-4.88,0.02-7.3,0.29
	c-2.91-2.17-6.64-2.44-10.14-2.37C85.34,0.45,80.42,0.07,76.04,2C69.66,3.71,62.58,3.27,56.8,6.81c-2.76,1.38-6.01,1.31-8.75,2.77
	c-1.01,0.08-2.02,0.16-3.03,0.24c-4.65,2.2-6.88,7.16-11.07,9.95c-1.54,4.19-5.88,6.13-8.17,9.79c-2.03-0.2-4.06-0.36-6.1-0.44
	c-0.55,0.57-1.11,1.15-1.66,1.72c-2.45,0.05-4.91-0.03-7.34,0.35c-0.03,0.72-0.08,1.43-0.16,2.15c3.62-0.22,7.23-0.52,10.85-0.67
	c0.04,0.5,0.11,1.5,0.14,2l-1.71,0.28c-1.8,2.85-2.88,6.31-5.74,8.34c-1.17,1.68-2.33,3.38-3.52,5.05
	c-0.47-2.88-0.81-5.79-1.07-8.72c-0.35,3.73,0.06,7.48-0.06,11.22c-2.86,3.17-5.91,7.74-3.45,12.04c0.3-1.44,0.56-2.89,0.78-4.35
	l1.81,0.21c-1.34,4.75-2.76,9.5-4.68,14.06c-0.11,9.74-0.11,19.5,0.03,29.24c3.49,5.16,1.26,12.29,5.16,17.17
	c0.73,5.55,4.24,10.75,3.22,16.45c-1.23-2.98-2.12-6.17-4.14-8.75c-0.89-1.221-1.78-2.44-2.7-3.641
	c0.29-5.22-2.28-10.029-2.12-15.239C1.5,105.35,2.36,102,2.19,98.98C2.14,85.391,2.33,71.8,2.15,58.21
	c-0.54,0.2-1.61,0.61-2.15,0.81V0 M138.221,6.15c0.139,3.4-0.73,7.06,0.909,10.21c0.31-1.66,0.55-3.34,0.74-5.02
	c1.3,0,2.61,0.01,3.92,0.02c0.01-0.42,0.03-1.26,0.03-1.68c-1.37,0.05-2.73,0.11-4.1,0.16c0.01-0.78,0.029-2.33,0.039-3.11
	c1.68,0,3.37,0.01,5.061,0.03l-0.03-0.59C142.6,6.17,140.41,6.15,138.221,6.15 M147.17,6.18c0.12,3.41-0.65,7.01,0.801,10.24
	c0.84-1.59,0.93-3.38,1.039-5.13c0.83-0.04,2.471-0.12,3.29-0.15c-0.76-1.07-1.84-1.6-3.22-1.59c0.029-0.68,0.08-2.04,0.109-2.73
	c1.73-0.09,3.461-0.17,5.181-0.38C151.98,6.23,149.57,6.22,147.17,6.18 M156.29,6.16c0.01,3.39-0.05,6.79,0.38,10.16
	c0.96-1.48,1.391-3.13,1.28-4.97c1.159-0.03,2.329-0.07,3.5-0.11c0-0.34-0.011-1.03-0.011-1.38c-1.129-0.06-2.25-0.16-3.369-0.29
	c-0.12-0.7-0.37-2.11-0.5-2.81c1.43-0.01,2.85-0.01,4.27,0l0.11-0.58C160.061,6.17,158.18,6.17,156.29,6.16 M165.141,6.1
	c0.01,3.07-0.33,6.2,0.229,9.24c0.28,0.2,0.83,0.62,1.11,0.83c0.039-1.64,0.069-3.28,0.08-4.91c1.369,0,2.75,0.01,4.119,0.021
	c0.01-0.39,0.021-1.16,0.021-1.55c-1.44,0.02-2.88,0.03-4.33,0.04c-0.89-4.08,3.39-2.8,5.899-3.38
	C169.9,6.17,167.51,6.15,165.141,6.1 M173.85,6.17c-0.029,3.25-0.01,6.49,0.03,9.74c2.761-0.04,1.78-2.88,2.091-4.67
	c0.84,0,2.529-0.01,3.369-0.021c-0.77-1.15-1.869-1.7-3.3-1.64c0.03-0.68,0.09-2.04,0.12-2.72c1.35-0.1,2.71-0.23,4.061-0.39
	C178.109,6.23,175.971,6.21,173.85,6.17 M182.609,6.17c0.011,3.12,0.021,6.24,0.011,9.36c0.489,0.05,1.46,0.15,1.95,0.2
	c-0.03-1.49-0.061-2.97-0.07-4.46c1.18-0.01,2.38-0.03,3.57-0.05c0.119-0.35,0.359-1.07,0.479-1.42c-1.319,0.01-2.63,0.01-3.95,0.02
	c-0.01-0.75-0.029-2.25-0.029-3c1.58-0.09,3.18-0.19,4.77-0.4C187.1,6.18,184.85,6.2,182.609,6.17 M191.439,6.17
	c0.041,3.15,0.011,6.3-0.01,9.46c0.5-0.04,1.51-0.12,2.01-0.16c-0.069-1.33-0.14-2.66-0.209-4c1.72-0.29,3.43-0.62,5.119-1.06
	c-1.52-0.38-3.09-0.6-4.629-0.85c-0.101-0.68-0.291-2.03-0.391-2.71c1.91-0.1,3.83-0.17,5.74-0.4
	C196.529,6.22,193.98,6.22,191.439,6.17 M138.221,22.24c-0.021,3.62-0.141,7.24,0.18,10.85c1.899-1.18,1.1-3.69,1.56-5.52
	c1.3-0.06,2.601-0.12,3.899-0.17c-0.039-0.17-0.1-0.53-0.129-0.71c-1.351-0.04-2.701-0.12-4.041-0.24c-1.439-3.78,2.771-2.56,5-2.83
	c0-0.32,0.011-0.96,0.011-1.28C142.54,22.3,140.38,22.28,138.221,22.24 M147.13,22.4c0.3,3.62-1.021,7.75,1.11,10.97
	c0.529-1.93,0.66-3.92,0.789-5.91c0.681-0.02,2.031-0.07,2.711-0.09c0-0.13-0.01-0.39-0.01-0.52c-2.271,0.25-3.28-0.92-3.09-3.19
	c1.729-0.03,3.469-0.04,5.199-0.04c0.01-0.32,0.03-0.96,0.03-1.28C151.62,22.36,149.37,22.38,147.13,22.4 M156.3,22.32
	c0.08,3.62-0.05,7.26,0.33,10.87c1.74-1.44,1.03-3.84,1.341-5.76c1.229,0,2.459-0.01,3.699-0.01c-0.02-0.19-0.05-0.58-0.07-0.77
	c-1.359-0.01-2.72-0.02-4.07-0.03c-0.459-3.2,2.16-2.98,4.421-2.97c0-0.35,0-1.07,0-1.42C160.07,22.26,158.18,22.29,156.3,22.32
	 M165.21,22.3c0.28,3.51-1.479,7.9,1.101,10.8c0.189-1.86,0.289-3.74,0.41-5.61c1.34-0.04,2.68-0.07,4.029-0.09
	c-0.029-0.2-0.09-0.58-0.12-0.78c-1.34,0.02-2.68,0.04-4.021,0.06c-0.01-0.72-0.039-2.17-0.049-2.89
	c1.81-0.39,4.609,0.78,5.529-1.46C169.8,22.24,167.5,22.25,165.21,22.3 M173.76,22.45c0.42,3.59-0.91,7.68,1.301,10.85
	c0.709-1.87,0.869-3.87,1.01-5.84c0.65-0.02,1.959-0.04,2.609-0.05c0.01-0.16,0.021-0.46,0.021-0.62c-2.14,0.24-3.24-0.71-2.95-2.94
	c1.471-0.13,2.939-0.28,4.41-0.45C178.79,21.26,175.83,22.73,173.76,22.45 M182.609,22.43c0.021,3.35,0.021,6.7,0.051,10.05
	c0.46-0.03,1.369-0.09,1.83-0.12c0.09-1.68,0.189-3.36,0.32-5.03c0.739,0.03,2.209,0.08,2.939,0.11c0-0.2-0.02-0.6-0.02-0.8
	c-0.791,0.02-2.381,0.07-3.17,0.1c-0.011-1.04-0.011-2.07,0-3.11c1.43,0.01,2.859,0.02,4.299,0.03c-0.01-0.32-0.02-0.97-0.029-1.3
	C186.75,22.37,184.68,22.39,182.609,22.43 M191.42,22.32c0.03,3.4,0.03,6.79,0.051,10.18c0.469-0.01,1.42-0.04,1.889-0.06
	c-0.01-1.67-0.029-3.34,0-5.01c1.41-0.04,2.82-0.06,4.24-0.08c0-0.17,0.021-0.51,0.03-0.68c-1.43,0.01-2.851,0.02-4.271,0.02
	c0.07-0.73,0.221-2.19,0.301-2.92c1.439-0.12,2.88-0.19,4.33-0.23c-0.03-0.29-0.08-0.86-0.1-1.15
	C195.73,22.38,193.57,22.35,191.42,22.32 M142.57,39.28c0.01,3.15,0,6.31-0.09,9.47c0.39,0.05,1.17,0.16,1.569,0.22
	c0.021-1.3,0.05-2.6,0.091-3.89c1.369-0.21,2.76-0.39,4.129-0.62c-1.359-0.17-2.72-0.34-4.08-0.49
	c-0.039-0.85-0.109-2.54-0.149-3.39c1.59-0.03,3.181-0.06,4.78-0.08c0.01-0.35,0.029-1.04,0.039-1.38
	C146.76,39.15,144.66,39.21,142.57,39.28 M151.43,39.25c0.01,3.1-0.199,6.21,0.131,9.3c0.39,0.32,1.16,0.94,1.549,1.25
	c0.19-1.66,0.361-3.31,0.551-4.96c0.89-0.08,2.67-0.24,3.561-0.32c-1.23-0.16-2.461-0.31-3.691-0.45
	c-0.049-0.89-0.159-2.66-0.209-3.54c1.47-0.03,2.949-0.04,4.43-0.05c0-0.3,0.01-0.89,0.01-1.19
	C155.65,39.27,153.54,39.25,151.43,39.25 M160.66,39.16c0.07,3.34,0,6.68,0.029,10.02c2.24-0.19,1.34-2.71,1.631-4.21
	c0.89-0.06,2.68-0.17,3.57-0.229l-0.101-0.521c-0.83,0.021-2.5,0.05-3.34,0.07c-0.04-0.91-0.13-2.72-0.171-3.63
	c1.621-0.11,3.23-0.25,4.851-0.41C165.48,38.47,162.811,39.42,160.66,39.16 M168.8,39.42c0.03,3.29,0.03,6.57,0.011,9.86
	c0.459,0.02,1.39,0.05,1.85,0.06c0.14-1.49,0.27-2.99,0.42-4.48c1.43-0.07,2.85-0.16,4.279-0.26c-1.389-0.26-2.789-0.43-4.18-0.64
	c-0.1-0.84-0.289-2.52-0.39-3.36c1.63-0.04,3.26-0.05,4.899-0.06c0.041-0.35,0.121-1.05,0.15-1.4
	C173.49,39.2,171.15,39.29,168.8,39.42 M178.29,39.12c-0.13,3.56-0.2,7.13,0.05,10.7c1.76-1.04,1.189-3.27,1.52-4.95
	c0.91-0.05,2.721-0.15,3.631-0.2c-1.29-0.27-2.58-0.53-3.87-0.77c0.021-0.77,0.069-2.31,0.09-3.08c1.86-0.37,4.261,0.32,5.58-1.43
	C182.96,39.14,180.62,39.11,178.29,39.12 M187.52,39.21c0.01,3.61-0.1,7.22,0.271,10.81c1.22-1.44,1.45-3.27,1.54-5.1
	c1.311-0.18,2.62-0.35,3.92-0.59c-1.34-0.07-2.68-0.12-4.029-0.14c-0.051-0.88-0.16-2.64-0.211-3.53
	c1.65-0.09,3.311-0.16,4.961-0.31C192.42,38.29,189.7,39.24,187.52,39.21 M155.24,56.46c-0.221,3.64-0.33,7.31,0.21,10.93
	c1.579-1.35,0.95-3.53,1.14-5.34c1.57-0.36,3.74,0.23,4.67-1.49c-1.949-0.37-6.13,0.49-4.67-2.91c1.86-0.23,3.74-0.44,5.6-0.73
	C159.88,56.62,157.561,56.56,155.24,56.46 M164.48,56.55c0.02,3.52-0.08,7.05,0.209,10.57c1.75-1.18,0.961-3.52,1.291-5.28
	c1.439-0.25,3.529,0.47,4.149-1.34c-1.28-0.08-2.56-0.18-3.84-0.32c-0.11-0.71-0.33-2.12-0.44-2.82c1.601-0.01,3.211-0.01,4.82,0
	c0.02-0.18,0.07-0.53,0.09-0.71C168.67,56.63,166.57,56.6,164.48,56.55 M173.3,56.56c0.05,3.38,0.07,6.76,0.05,10.13
	c0.471-0.06,1.4-0.2,1.86-0.27c0.021-1.58,0.03-3.17,0.05-4.75c0.961-0.11,2.881-0.33,3.84-0.44c-2.06-0.68-4.72-0.95-4.07-3.93
	c0.931,0.01,2.791,0.03,3.721,0.04c-0.01-0.16-0.01-0.48-0.01-0.64C176.92,56.67,175.109,56.63,173.3,56.56 M184.02,66.97
	c2.42,0.12,5.021-0.64,5.521-3.36c0-2.53,1.04-5.85-1.09-7.79c-0.32,2.73-0.2,5.48-0.45,8.21c-0.85,2.11-3.221,0.87-4.641,0.22
	c0.08-2.77,0.121-5.55-0.069-8.32C180.41,58.98,181.93,63.85,184.02,66.97 M192.59,56.7c-0.05,2.1-0.05,4.2-0.1,6.3
	c0.859,1.3,1.71,2.62,2.529,3.95c2.5,0.26,4.201-1.28,5.371-3.3c-0.061-2.31,0.06-4.64-0.211-6.95c-0.3,0.03-0.92,0.07-1.229,0.09
	c-0.261,2.91-0.181,5.84-0.521,8.75c-0.97-0.21-2.9-0.63-3.859-0.84c-0.561-2.76-0.53-5.59-0.32-8.38
	C193.84,56.42,193,56.61,192.59,56.7 M155.391,73.7c-0.781,3.14-0.541,6.81,1.439,9.51c1.15,0.601,2.54,0.41,3.8,0.63
	c3.24-2.8,2.13-7.3,1.97-11.06c-2.5,2-0.81,5.85-1.25,8.59c-1.49,0.38-3.72,1.44-4.68-0.4c-0.27-2.67-0.09-5.37-0.18-8.05
	C156.21,73.11,155.66,73.5,155.391,73.7 M165.63,73.28c0.05,3.28-0.239,6.729,1.31,9.739c2.23,1.45,4.951,0.61,6.541-1.359
	c-0.03-2.74-0.01-5.49,0.01-8.23c-0.41,0.01-1.24,0.02-1.65,0.03c0.12,2.93,0.08,5.88-0.46,8.771
	c-0.909-0.03-2.739-0.101-3.649-0.141c-0.57-2.76-0.621-5.59-0.521-8.4C166.811,73.59,166.02,73.39,165.63,73.28 M176.46,72.87
	c-0.319,3.59-0.39,7.3,1.21,10.62c2.49,0.54,4.82-0.141,6.49-2.11c-0.061-2.63-0.051-5.27,0-7.91c-0.4-0.01-1.21-0.02-1.61-0.03
	c0.06,3.03,0.011,6.06-0.36,9.07c-1.59-0.39-3.199-0.77-4.6-1.63C177.42,78.35,179.12,74.57,176.46,72.87 M187.62,72.84
	c-0.16,3.22-0.12,6.45-0.11,9.67c1.62,0.521,3.32,1.79,5.061,0.94c3.59-2.3,1.81-7.08,1.959-10.58c-2.469,1.38-0.76,4.85-1.51,7.12
	c0.33,2.369-2.35,1.99-3.879,2.52C188.62,79.39,190.38,75.13,187.62,72.84 M160.23,99.5c1.819,0.04,3.64,0.08,5.47,0.13
	c0.37-0.34,1.11-1.021,1.479-1.36c0.01-2.66,0.021-5.319,0.051-7.979c-0.391-0.01-1.17-0.04-1.551-0.05
	c0.03,2.82,0.041,5.65-0.02,8.479c-1.65,0.03-3.29,0.05-4.93,0.04c0.26-3.05,0.39-6.14-0.131-9.17
	C158.3,92.23,159.42,96.4,160.23,99.5 M170.359,89.7c-0.02,3.17-1.359,7.14,1,9.76c2,0.16,4.58,0.78,6.211-0.69
	c0.479-2.84,0.229-5.729,0.16-8.59c-0.34,0.021-1.041,0.061-1.391,0.07c-0.029,2.811-0.02,5.609-0.01,8.42
	c-1.6,0.061-3.21,0.11-4.811,0.13C170.99,95.92,172.93,91.83,170.359,89.7 M180.33,90.311c-0.061,2.25-0.109,4.489-0.16,6.739
	c0.71,0.88,1.43,1.771,2.13,2.66c1.979-0.39,5.171,0.72,5.99-1.78c-0.03-2.71,0.83-5.85-0.81-8.229
	c-0.381,2.81-0.471,5.649-0.621,8.479c-1.42,0.391-4.01,2.221-4.569-0.22c-0.351-2.521-0.11-5.08-0.08-7.62
	C181.74,90.34,180.8,90.32,180.33,90.311 M191.45,90.24c0.04,2.939,0.021,5.88-0.021,8.83c2.061,0.57,4.211,0.539,6.34,0.58
	l-0.029-0.101c2.32-2.479,1.13-6.06,1.43-9.1c-0.52-0.06-1.57-0.17-2.1-0.23c-0.11,2.671-0.58,5.46,0.3,8.061
	c-1.31,0.36-2.62,0.71-3.931,1.05c-0.14-2.98-0.109-5.95-0.06-8.93C192.9,90.359,191.93,90.28,191.45,90.24 M155.279,106.65
	c0.011,3.069-1.039,6.64,0.801,9.369c1.02,1.891,3.41,1.121,5.15,1.4c2.229-3,1.549-6.79,1.56-10.27
	c-0.37,0.02-1.11,0.05-1.479,0.06c-0.291,3.36,1.649,9.29-3.371,9.7c-0.359-0.65-1.069-1.96-1.43-2.61
	C156.15,111.84,157.76,108.311,155.279,106.65 M165.65,107.25c0.07,3.48-0.65,7.35,1.949,10.15c1.471-0.09,2.95-0.08,4.41-0.311
	c1.83-2.29,1.5-5.42,1.461-8.15c0.049-0.989-0.341-1.77-1.181-2.33c-0.37,3.451-0.42,6.931-0.851,10.381
	c-1.5-0.6-4.289-0.771-4.229-2.971c-0.14-2.229-0.03-4.459,0.021-6.68C166.84,107.311,166.04,107.27,165.65,107.25 M176.32,107.21
	c0.199,3.31-0.9,7.271,1.729,9.899c1.79,0.541,3.62-0.1,5.351-0.549c0.699-3.28,0.959-6.641,0.39-9.961
	c-3.12,2.4,0.729,7.881-2.67,10.061c-4.82-0.11-3.07-6.301-3.341-9.51C177.42,107.16,176.68,107.2,176.32,107.21 M187.58,107.22
	c0.21,3.44-1.18,7.64,1.74,10.28c1.369-0.26,2.93-0.04,4.18-0.75c1.75-2.859,1.09-6.34,1.21-9.51c-0.38-0.01-1.13-0.03-1.5-0.04
	c0.011,3.239,0.29,6.55-0.64,9.7c-0.74-0.131-2.221-0.4-2.961-0.53c-0.76-2.96-0.479-6.04-0.459-9.06
	C188.76,107.29,187.971,107.25,187.58,107.22 M159.6,123.9c-0.359,3.81-0.68,7.97,2.291,10.89c0.709-0.04,2.109-0.11,2.81-0.149
	c0.829-0.881,1.649-1.75,2.489-2.61c0.011-2.46,0.021-4.91,0.031-7.36c-0.381-0.07-1.16-0.22-1.551-0.29
	c-0.13,2.91,0.66,6.07-0.76,8.771c-1.49,0.43-3.811-0.11-3.74-2.03C160.52,128.77,161.85,125.54,159.6,123.9 M172.33,134.91
	c2.38,0.23,4.21-0.95,5.5-2.86c-0.54-2.55,1.23-6.39-1.34-8.06c-0.19,3.18,0.25,6.47-0.99,9.5c-1.34-0.37-2.67-0.74-4.01-1.11
	c0.109-2.83,0.15-5.67-0.08-8.489C168.42,126.9,170.08,131.88,172.33,134.91 M180.23,124.48c-0.061,2.199-0.211,4.399,0.01,6.6
	c0.91,1.33,2.06,2.47,3.109,3.7c2.471,0.43,4.19-0.95,5.17-3.101c-0.109-2.39-0.129-4.779-0.119-7.17
	c-0.381,0.021-1.15,0.07-1.53,0.09c-0.011,3.271,1.19,9.73-4.149,8.7c-0.781-2.83-0.551-5.78-0.521-8.68
	C181.71,124.59,180.721,124.52,180.23,124.48 M191.38,124.49c0,2.66-0.01,5.32-0.05,7.979c1.63,0.61,3.27,3.23,5.07,1.761
	c3.91-1.541,2.41-6.44,2.8-9.681c-0.79,0.011-1.58,0.021-2.37,0.03c0.029,2.84,0.359,5.75-0.46,8.52
	c-0.72,0.09-2.16,0.271-2.88,0.36c-0.09-2.96-0.15-5.93-0.131-8.89C192.87,124.55,191.88,124.51,191.38,124.49 M155.32,140.641
	c-0.43,3.329-0.15,6.68,0.369,9.989c2.33,0.101,6.4,1.47,6.961-1.89c0-2.521,1.229-6.141-1.141-7.891
	c-0.17,2.87-0.24,5.74-0.52,8.61c-1.471-0.021-2.94-0.05-4.41-0.09C156.07,146.57,157.87,142.67,155.32,140.641 M165.67,141.359
	c-0.061,3.201-0.27,6.521,1.15,9.5c1.789,0.031,3.59,0.08,5.39,0.131c1.97-3.021,1.181-6.7,1.101-10.08
	c-2.721,1.689-0.961,5.54-1.4,8.189c-1.53,0.15-3.061,0.291-4.59,0.42c-0.131-2.699-0.141-5.399-0.1-8.09
	C166.83,141.41,166.05,141.38,165.67,141.359 M176.41,140.811c-0.2,3.529-0.49,7.26,1.38,10.43c2.19-0.23,5.229,0.279,6.16-2.33
	c0.5-2.7,0.05-5.471-0.341-8.15c-2.1,2.42-0.1,5.99-1.67,8.561c-1.399,0.14-2.799,0.119-4.189-0.061
	C177.26,146.57,179.15,142.54,176.41,140.811 M193.439,140.72c-0.26,2.82-0.26,5.65-0.279,8.47c-1.33,0.16-2.67,0.311-4,0.471
	c-0.04-2.74-0.04-5.49-0.01-8.23l-1.66-0.109c0.05,3.05,0.07,6.09,0.05,9.14c2.431,0.63,6.479,1.63,7.021-1.92
	C194.6,146.02,195.66,142.59,193.439,140.72z"/>
<path fill="#090909" d="M76.04,2c4.38-1.93,9.3-1.55,13.97-1.64c3.5-0.07,7.23,0.2,10.14,2.37c2.42-0.27,4.86-0.43,7.3-0.29
	c-1.21,1.21-2.88,1.5-4.479,1.82c3.739,3.58,8.279,6.19,11.969,9.82c3.221,3.51,6.24,7.22,8.9,11.18c1.59,1.37,3.061,2.87,4.37,4.51
	c0.34,1.73,0.87,3.41,1.45,5.07c0.48-0.07,1.439-0.2,1.92-0.27c-0.189,3.55-0.23,7.21,1.811,10.29c0.029,0.64,0.08,1.91,0.109,2.55
	c1.23,1.46,2.42,2.95,3.55,4.49c1.72,2.77,3.171,5.76,5.57,8.04c0.08,0.92,0.17,1.83,0.25,2.74c2,2.81,3.021,6.1,4.22,9.28
	c1.391,4.89,0.221,10.03,0.84,15.021c0.85,3.879,0.32,7.89,0.75,11.81c-0.58,9.479-0.33,19.021,1.09,28.42
	c0.551-3.649,0.201-7.34,0.621-11c0.879,4.87,0.51,9.96-0.891,14.69c-0.811,2.55-1.51,5.49-4.109,6.789
	c-0.041,0.631-0.121,1.891-0.16,2.521c-0.811,1.54-1.521,3.13-2.051,4.78c-1.189,2.979-2.65,5.84-3.82,8.82
	c-0.67,1.39-1.279,2.81-1.959,4.189h-2.34c1.799-1.33,1.59-3.68,2.299-5.59c1.601-4.25,2.9-8.6,4.031-12.99
	c0.68-0.8,1.34-1.6,1.989-2.42c0.399-3.311,1.851-6.3,4.57-8.32c0.22-3.289,0.22-6.59,0.12-9.88c-0.44-0.31-1.32-0.909-1.76-1.22
	c-0.531-7.87,0.039-15.78-0.201-23.66c-0.129-3.09-1.81-5.85-1.93-8.939c-0.5-5.891-2.369-11.7-5.459-16.74
	c-0.111-1.03-0.211-2.06-0.32-3.09c-0.891-2.27-1.33-4.75-2.68-6.82c-1.681-3.75-2.031-7.98-4.311-11.48
	c-3.29-4.24-7.28-8.27-8.76-13.57c0.609,0,1.85-0.01,2.459-0.01c1.121,3.26,2.69,6.35,4.681,9.16c0.54-4.21-2.181-7.58-4.19-10.96
	c-1.93-0.71-2.74-2.439-3.189-4.31l-0.131,0.01c-0.02,1.1-0.039,3.28-0.049,4.37c-1.17-2.64-1.931-5.45-2.701-8.23
	c-1.439-1.28-2.869-2.58-4.359-3.8c0.46-0.28,1.391-0.84,1.85-1.12c-0.529-0.64-1.6-1.94-2.14-2.59
	c-4.39-3.27-8.351-7.29-13.271-9.72C99.72,8.23,97.48,10,95.23,11.74c1.59,0.8,5.97-0.8,5.47,2.04c-3.46,0.53-6.99-0.93-10.39,0.35
	c-3.31,4.3-1.72,9.73-2.52,14.66c-0.49,0.18-1.47,0.54-1.96,0.72l-0.17-0.55c0.1-0.7,0.3-2.11,0.4-2.81
	c-0.5-0.02-1.52-0.07-2.02-0.09c-0.02-2.36,0.44-4.67,0.85-6.98c-1,1.38-2.06,2.74-2.8,4.3c-0.86,3.06-1.67,6.13-2.35,9.24
	c1.15-1.15,2.09-2.47,2.94-3.85l0.86-0.05c-0.1,0.87-0.28,2.61-0.38,3.48c0.3-0.52,0.89-1.56,1.19-2.09
	c0.27-0.09,0.82-0.29,1.09-0.38c-0.24,3.41-3.44,5.41-5.39,7.88c-0.81,3.56-1.7,7.15-1.4,10.84c-0.76-0.01-2.26-0.02-3.02-0.02
	c0.97,0.14,2.9,0.42,3.87,0.55c-2.35,1.5-4.9,2.66-7.74,2.6c-0.03-0.53-0.09-1.58-0.12-2.11c0.52,0,1.56,0,2.09,0
	c-0.85-2.96-2.74-5.58-3.23-8.62c0.72-5.7,2.54-11.22,4.79-16.5c1.25-2.61,0.76-5.59,0.85-8.38c0.23-0.06,0.67-0.18,0.9-0.229
	c1.14,0.72,2.34,1.41,3.74,1.49c0.38-1.05,1.13-3.15,1.51-4.2c0.39,1.04,0.76,2.1,1.08,3.17c-0.38,0.74-1.14,2.22-1.53,2.96
	c1.25-0.54,2.49-1.1,3.72-1.68c-0.03-1.71-0.04-3.42-0.03-5.13c-5.2,0.57-10.38-0.89-15.42-2c-7.22-0.41-14.49-0.16-21.64,0.89
	c-3.19,0.42-5.23,3.229-7.98,4.64c-2.27,4.18-6.53,6.71-8.89,10.82c-0.54,0.21-1.61,0.64-2.15,0.86c-0.18,1.01-0.37,2.03-0.56,3.04
	c0.8,0.07,2.39,0.21,3.19,0.28c0.28,0.39,0.86,1.18,1.14,1.57c4.98,1.05,9.86,2.69,15,2.78c1.08,1.35,2.16,2.7,3.22,4.07
	c-2.1,0.95-4.32,1.56-6.62,1.7c4.13,5.1,9.52,8.94,13.59,14.08c0.53,0.02,1.6,0.05,2.13,0.07c-0.01,0.33-0.02,1.01-0.03,1.34
	c0.61,0.229,1.83,0.7,2.44,0.93c0.82,6.4-1.04,13.34-5.86,17.8c-3.28,5.57-8.27,9.75-12.84,14.22c-4.41-0.039-8.81-0.029-13.22,0
	c-2.47-2.129-4.87-4.33-7.36-6.43c0-3.729-0.43-7.44-0.88-11.13c-0.38-0.28-1.13-0.85-1.51-1.13c-0.52-2.87-0.34-5.86,0.61-8.62
	c0.59-2.3,1.3-4.55,1.9-6.84c3.38-2.16,6.31-5.27,10.34-6.17c0.32-0.39,0.97-1.17,1.3-1.56c5.06,0.13,10.59-0.78,15.06,2.23
	c-2.22-2.24-4.26-4.64-6.21-7.11c-2.74-3-6.22-5.27-9.8-7.14c-3.05-0.98-6.26-1.32-9.41-1.81c-3.21,4.95-6.93,9.81-11.84,13.17
	c-3.14,4.5-3.22,10.06-3.5,15.32c0.02,1.58-1.12,2.73-1.99,3.9c-0.48,2.65-1.57,5.14-2.16,7.76c-0.29,6.38,0.33,12.79-0.63,19.14
	c0.01,3.58-1.12,7.801,1.6,10.711c0.78,3.709,0.68,7.67,2.34,11.149c2.43,4.95,3.72,10.4,4.28,15.86c1.93,1.29,1.7,3.57,1.83,5.6
	c1.27,1.24,2.56,2.46,3.88,3.65c1.33,2.13,2.6,4.31,3.49,6.67c1.87,1.14,3.74,2.31,5.58,3.51c2.67,0.721,5.34,1.74,7.09,4
	c0.75,0.01,2.23,0.04,2.97,0.05c0.83,1.24,1.64,2.49,2.4,3.78H38.9c-2.42-1.52-4.95-2.9-7.16-4.72c-2.28-0.73-4.53-1.54-6.79-2.33
	c-0.31-0.36-0.93-1.07-1.25-1.42c-4.31-2.351-5.32-7.65-8.89-10.771c-0.32,6.76,1.88,13.24,4.78,19.24h-1.5
	c-0.69-1.34-1.4-2.66-2.13-3.96c-1.42-5.62-3.96-11.04-3.54-16.979c-1.79-1.24-2.55-3.201-3.1-5.211c-0.76-1.24-1.5-2.479-2.18-3.76
	c-2.17-3.06-3.93-6.33-3.56-10.22c-1.74-4.53-1.8-9.38-2.61-14.12L0,106.62v-47.6c0.54-0.2,1.61-0.61,2.15-0.81
	C2.33,71.8,2.14,85.391,2.19,98.98c0.17,3.02-0.69,6.369,1.13,9.05c-0.16,5.21,2.41,10.02,2.12,15.239c0.92,1.2,1.81,2.42,2.7,3.641
	c2.02,2.58,2.91,5.77,4.14,8.75c1.02-5.7-2.49-10.9-3.22-16.45c-3.9-4.88-1.67-12.01-5.16-17.17C3.76,92.3,3.76,82.54,3.87,72.8
	c1.92-4.56,3.34-9.31,4.68-14.06l-1.81-0.21c-0.22,1.46-0.48,2.91-0.78,4.35c-2.46-4.3,0.59-8.87,3.45-12.04
	c0.12-3.74-0.29-7.49,0.06-11.22c0.26,2.93,0.6,5.84,1.07,8.72c1.19-1.67,2.35-3.37,3.52-5.05c2.86-2.03,3.94-5.49,5.74-8.34
	l1.71-0.28c0.62-1.63,1.1-3.31,1.57-4.99c-3.79,2.21-8.19,2.65-12.4,1.51c2.43-0.38,4.89-0.3,7.34-0.35
	c0.55-0.57,1.11-1.15,1.66-1.72c2.04,0.08,4.07,0.24,6.1,0.44c2.29-3.66,6.63-5.6,8.17-9.79c4.19-2.79,6.42-7.75,11.07-9.95
	c1.01-0.08,2.02-0.16,3.03-0.24c2.74-1.46,5.99-1.39,8.75-2.77C62.58,3.27,69.66,3.71,76.04,2 M77.86,2.9
	c-3.12,1.38-6.6,1.44-9.93,1.89c-2.64,2.42-7.45,0.01-9.61,3.47c4.52,0.24,9.07-0.19,13.58,0.2c0.26,0.25,0.77,0.77,1.03,1.03
	c4.21,1.04,8.57,0.83,12.8,0.08c0.04-0.26,0.1-0.78,0.14-1.04l-0.5-0.04c-0.7,0.11-1.38,0.06-2.05-0.15
	c1.14-2.02,1.73-4.26,2.33-6.48C83.08,2.4,80.49,2.82,77.86,2.9 M87.91,2.14c0.12,2.72,0.17,5.44,0.17,8.17
	c1.48,0.19,2.86-0.16,4.08-1.03c0.28-3.29,3.9-4.62,6.14-6.47C94.84,2.5,91.39,1.94,87.91,2.14 M94.36,10
	c2.17-1.7,4.78-3.1,6.05-5.69C98.3,5.93,93.5,6.57,94.36,10 M87.87,12.2c-0.44,1.46,0.03,1.9,1.4,1.33
	C89.69,12.09,89.22,11.65,87.87,12.2 M79.55,17.79c-0.76,2.17-1.51,4.36-1.7,6.66C80.54,23.17,79.91,20.17,79.55,17.79 M77.94,29.59
	c1.59,0.34,2.15-2.27,1.46-3.32C77.71,25.64,76.74,28.61,77.94,29.59 M75.14,30.42C73.58,33.41,78.47,30.59,75.14,30.42 M26.23,31.2
	c-0.52,1.65,0.02,2.22,1.62,1.74C28.38,31.29,27.84,30.71,26.23,31.2 M71.9,40.07c0.4-0.3,1.2-0.91,1.6-1.22
	c0.52-2.2,1.77-4.37,1.16-6.71C73.36,34.64,72.85,37.44,71.9,40.07 M39.87,36.35c1.87,0.71,4.07,0.83,5.4,2.53
	c0.83-0.03,2.48-0.08,3.3-0.1C46.45,36.3,42.79,36.82,39.87,36.35 M75.8,38.3c-1.1,1.54-2.15,3.11-3.17,4.71
	c1.13,0.71,1.96,3.42,3.45,2.65C76.33,43.21,76.18,40.73,75.8,38.3 M37.48,49c-4.36,2.37-8.94,4.54-12.23,8.37
	c-0.46,0.87-0.93,1.74-1.4,2.61c0.03,3.29-1.77,6.24-1.59,9.55c2.23-0.32,4.45-0.69,6.7-0.811c2.29-1.51,4.43-3.66,2.78-6.55
	c-2.47-0.36-5.56,0.12-7.37-1.94c2.63-0.18,5.27-0.15,7.91-0.21c1.26,2.05,2.36,4.24,2,6.73c-1.46,1.21-2.77,2.61-4.29,3.74
	c-1.96,0.35-3.93,0.64-5.88,1.02c0.37,2.81,0.72,5.62,1.08,8.42c0.81,2.29,2.65,4,4.08,5.92c4.36,2.67,9.54,1.381,14.37,1.721
	c1.95-2.37,3.91-4.771,6.78-6.08c0.7-1.37,1.43-2.72,2.15-4.08c2.29-2.11,4.71-4.38,5.71-7.41c2.59-2.23,2.72-5.82,3.73-8.85
	c-1.87,0.13-3.74,0.23-5.61,0.34c-0.8-1.96-1.39-3.98-2.1-5.96C50.65,50.12,43.71,48.26,37.48,49 M137.12,55.13
	C135.63,58.18,140.439,55.26,137.12,55.13 M56.44,57.51c0.42,0.83,0.94,1.6,1.46,2.37c1.1,0.27,3.29,0.8,4.39,1.07
	c-0.74-1.35-1.46-2.71-2.15-4.07C58.84,56.84,57.61,57.05,56.44,57.51 M138.23,57.35c0.17,1.22,0.5,3.65,0.67,4.87
	c1.189,2.57,1.25,5.64,3.369,7.74c2.08,4.12,2.431,8.78,3.74,13.14c0.5-3.99-0.08-7.979-0.699-11.919
	c-1.031-2.57-1.33-5.72-4.07-7.14C141.57,61.32,140.4,59,138.23,57.35 M146.09,132.33C144.51,135.311,149.391,132.561,146.09,132.33
	z"/>
<path fill="#FCFCFC" d="M77.86,2.9c2.63-0.08,5.22-0.5,7.79-1.04c-0.6,2.22-1.19,4.46-2.33,6.48c0.67,0.21,1.35,0.26,2.05,0.15
	l0.5,0.04c-0.04,0.26-0.1,0.78-0.14,1.04c-4.23,0.75-8.59,0.96-12.8-0.08c-0.26-0.26-0.77-0.78-1.03-1.03
	c-4.51-0.39-9.06,0.04-13.58-0.2c2.16-3.46,6.97-1.05,9.61-3.47C71.26,4.34,74.74,4.28,77.86,2.9z"/>
<path fill="#FBFBFB" d="M87.91,2.14c3.48-0.2,6.93,0.36,10.39,0.67c-2.24,1.85-5.86,3.18-6.14,6.47c-1.22,0.87-2.6,1.22-4.08,1.03
	C88.08,7.58,88.03,4.86,87.91,2.14z"/>
<path fill="#FCFCFC" d="M94.36,10c-0.86-3.43,3.94-4.07,6.05-5.69C99.14,6.9,96.53,8.3,94.36,10z"/>
<path fill="#FFFFFF" d="M101.609,6.08c4.92,2.43,8.881,6.45,13.271,9.72c0.54,0.65,1.61,1.95,2.14,2.59
	c-0.459,0.28-1.39,0.84-1.85,1.12c1.49,1.22,2.92,2.521,4.359,3.8c0.771,2.78,1.531,5.59,2.701,8.23
	c0.01-1.09,0.029-3.27,0.049-4.37l0.131-0.01c0.449,1.87,1.26,3.6,3.189,4.31c2.01,3.38,4.73,6.75,4.19,10.96
	c-1.99-2.81-3.56-5.9-4.681-9.16c-0.609,0-1.85,0.01-2.459,0.01c1.479,5.3,5.47,9.33,8.76,13.57c2.279,3.5,2.63,7.73,4.311,11.48
	c1.35,2.07,1.789,4.55,2.68,6.82c0.109,1.03,0.209,2.06,0.32,3.09c3.09,5.04,4.959,10.85,5.459,16.74
	c0.12,3.09,1.801,5.85,1.93,8.939c0.24,7.88-0.33,15.79,0.201,23.66c0.439,0.311,1.319,0.91,1.76,1.22c0.1,3.29,0.1,6.591-0.12,9.88
	c-2.72,2.021-4.171,5.01-4.57,8.32c-0.649,0.82-1.31,1.62-1.989,2.42c-1.131,4.391-2.431,8.74-4.031,12.99
	c-0.709,1.91-0.5,4.26-2.299,5.59H40.41c-0.76-1.29-1.57-2.54-2.4-3.78c-0.74-0.01-2.22-0.04-2.97-0.05
	c-1.75-2.26-4.42-3.279-7.09-4c-1.84-1.2-3.71-2.37-5.58-3.51c-0.89-2.36-2.16-4.54-3.49-6.67c-1.32-1.19-2.61-2.41-3.88-3.65
	c-0.13-2.029,0.1-4.31-1.83-5.6c-0.56-5.46-1.85-10.91-4.28-15.86c-1.66-3.479-1.56-7.44-2.34-11.149
	c-2.72-2.91-1.59-7.131-1.6-10.711c0.96-6.35,0.34-12.76,0.63-19.14c0.59-2.62,1.68-5.11,2.16-7.76c0.87-1.17,2.01-2.32,1.99-3.9
	c0.28-5.26,0.36-10.82,3.5-15.32c4.91-3.36,8.63-8.22,11.84-13.17c3.15,0.49,6.36,0.83,9.41,1.81c3.58,1.87,7.06,4.14,9.8,7.14
	c1.95,2.47,3.99,4.87,6.21,7.11c-4.47-3.01-10-2.1-15.06-2.23c-0.33,0.39-0.98,1.17-1.3,1.56c-4.03,0.9-6.96,4.01-10.34,6.17
	c-0.6,2.29-1.31,4.54-1.9,6.84c-0.95,2.76-1.13,5.75-0.61,8.62c0.38,0.28,1.13,0.85,1.51,1.13c0.45,3.69,0.88,7.4,0.88,11.13
	c2.49,2.1,4.89,4.301,7.36,6.43c4.41-0.029,8.81-0.039,13.22,0c4.57-4.47,9.56-8.649,12.84-14.22c4.82-4.46,6.68-11.4,5.86-17.8
	c-0.61-0.23-1.83-0.7-2.44-0.93c0.01-0.33,0.02-1.01,0.03-1.34c-0.53-0.02-1.6-0.05-2.13-0.07C54.34,49.94,48.95,46.1,44.82,41
	c2.3-0.14,4.52-0.75,6.62-1.7c-1.06-1.37-2.14-2.72-3.22-4.07c-5.14-0.09-10.02-1.73-15-2.78c-0.28-0.39-0.86-1.18-1.14-1.57
	c-0.8-0.07-2.39-0.21-3.19-0.28c0.19-1.01,0.38-2.03,0.56-3.04c0.54-0.22,1.61-0.65,2.15-0.86c2.36-4.11,6.62-6.64,8.89-10.82
	c2.75-1.41,4.79-4.22,7.98-4.64c7.15-1.05,14.42-1.3,21.64-0.89c5.04,1.11,10.22,2.57,15.42,2c-0.01,1.71,0,3.42,0.03,5.13
	c-1.23,0.58-2.47,1.14-3.72,1.68c0.39-0.74,1.15-2.22,1.53-2.96c-0.32-1.07-0.69-2.13-1.08-3.17c-0.38,1.05-1.13,3.15-1.51,4.2
	c-1.4-0.08-2.6-0.77-3.74-1.49c-0.23,0.05-0.67,0.17-0.9,0.229c-0.09,2.79,0.4,5.771-0.85,8.38c-2.25,5.28-4.07,10.8-4.79,16.5
	c0.49,3.04,2.38,5.66,3.23,8.62c-0.53,0-1.57,0-2.09,0c0.03,0.53,0.09,1.58,0.12,2.11c2.84,0.06,5.39-1.1,7.74-2.6
	c-0.97-0.13-2.9-0.41-3.87-0.55c0.76,0,2.26,0.01,3.02,0.02c-0.3-3.69,0.59-7.28,1.4-10.84c1.95-2.47,5.15-4.47,5.39-7.88l0.39-0.22
	c0.49-0.18,1.47-0.54,1.96-0.72c0.8-4.93-0.79-10.36,2.52-14.66c3.4-1.28,6.93,0.18,10.39-0.35c0.5-2.84-3.88-1.24-5.47-2.04
	C97.48,10,99.72,8.23,101.609,6.08 M95.31,27.75c0.22,0.53,0.68,1.59,0.9,2.11c-1.64,3.71-5.89,5.45-8.39,8.54
	c-0.89,1.49-1.95,2.85-3.29,3.96c-1.05,3.47-2.77,6.85-2.28,10.59c-0.56,4.02,3.89,5.93,5.43,9.15c0.61,1.71,1.72,3.15,2.94,4.47
	c2.27,0.76,4.19,2.22,5.88,3.88c5.67,1.87,11.48,3.36,17.52,2.77c4.41,0.62,8.74-0.83,12.061-3.75c1.72-1.479,2.29-3.79,3.72-5.5
	c-0.149-3.979,1.22-8.81-2.31-11.74c0.16-2.43-0.7-4.61-2.061-6.58c-2.64-1.7-3.57-4.8-4.859-7.48c-1.16-0.48-2.33-0.94-3.49-1.41
	c-0.5-1.81-1.45-3.45-2.4-5.06c-2.02-0.5-2.779-2.58-4.209-3.86c-1.181-0.74-2.461-1.32-3.66-2.02c-3.281-0.08-6.57-0.04-9.851-0.03
	C96.41,26.45,95.86,27.1,95.31,27.75 M74.66,68.75c-2.36,1.75-5.11,2.82-7.63,4.31c-2.7,2.8-6.21,5.19-6.85,9.331
	c-0.46,0.069-1.37,0.189-1.82,0.26c-1.49,2.67-1.46,5.869-2.82,8.6c-0.04,5.71-0.98,11.54-3.07,16.859
	c-0.24,2.841,0.17,5.771-0.89,8.5c-1.53,4.381-0.61,10.19-4.8,13.201c0.19,4.92-4.14,8.14-4.48,12.89c2.29,2.13,5.79,1.95,8.14,3.95
	c4.56,0.33,9.1,0.83,13.67,0.92c2.65,1.609,5.85,1.229,8.73,0.539c0.08-0.6,0.24-1.819,0.32-2.42c3.31-0.629,6.39-1.989,9.33-3.58
	c7.96-3.399,14.55-9.18,21.97-13.549c2.41-2.811,6.21-3.811,8.601-6.67c4.609-0.15,9.229-0.031,13.84-0.051
	c0.43-0.29,1.3-0.87,1.729-1.17c1.601-0.32,4.17-0.061,4.74-2.02c2.36-5.931,1.5-12.431,1.399-18.641
	c-1.879-3.63-4.18-6.99-6.479-10.35c-0.521-1.68-1.12-3.34-1.78-4.971c-1.68-0.799-2.77-2.299-3.949-3.659
	c-2.301-2.271-5.431-3.23-8.621-2.95c-0.549,0.7-1.08,1.41-1.609,2.13c-2.25-0.92-4.87-1.16-6.67-2.94
	c-0.939-1.12-2.439-0.89-3.73-1.06c-0.79-0.89-1.56-1.79-2.31-2.71c-2.19-0.86-4.38-1.75-6.54-2.71c-1.67-0.29-3.9,0.51-4.95-1.25
	C83.63,69.4,79.18,68.57,74.66,68.75z"/>
<path fill="#A64C45" d="M138.221,6.15c2.189,0,4.379,0.02,6.569,0.02l0.03,0.59c-1.69-0.02-3.381-0.03-5.061-0.03
	c-0.01,0.78-0.029,2.33-0.039,3.11c1.369-0.05,2.729-0.11,4.1-0.16c0,0.42-0.021,1.26-0.03,1.68c-1.31-0.01-2.62-0.02-3.92-0.02
	c-0.19,1.68-0.431,3.36-0.74,5.02C137.49,13.21,138.359,9.55,138.221,6.15z"/>
<path fill="#992725" d="M147.17,6.18c2.4,0.04,4.811,0.05,7.2,0.26c-1.72,0.21-3.45,0.29-5.181,0.38
	c-0.029,0.69-0.08,2.05-0.109,2.73c1.38-0.01,2.46,0.52,3.22,1.59c-0.819,0.03-2.46,0.11-3.29,0.15
	c-0.109,1.75-0.199,3.54-1.039,5.13C146.52,13.19,147.29,9.59,147.17,6.18z"/>
<path fill="#A7414E" d="M156.29,6.16c1.89,0.01,3.771,0.01,5.66,0.02l-0.11,0.58c-1.42-0.01-2.84-0.01-4.27,0
	c0.13,0.7,0.38,2.11,0.5,2.81c1.119,0.13,2.24,0.23,3.369,0.29c0,0.35,0.011,1.04,0.011,1.38c-1.171,0.04-2.341,0.08-3.5,0.11
	c0.11,1.84-0.32,3.49-1.28,4.97C156.24,12.95,156.3,9.55,156.29,6.16z"/>
<path fill="#A93E4C" d="M165.141,6.1c2.369,0.05,4.76,0.07,7.129,0.29c-2.51,0.58-6.789-0.7-5.899,3.38
	c1.45-0.01,2.89-0.02,4.33-0.04c0,0.39-0.011,1.16-0.021,1.55c-1.369-0.01-2.75-0.021-4.119-0.021
	c-0.011,1.63-0.041,3.271-0.08,4.91c-0.28-0.21-0.83-0.63-1.11-0.83C164.811,12.3,165.15,9.17,165.141,6.1z"/>
<path fill="#A23232" d="M173.85,6.17c2.121,0.04,4.26,0.06,6.371,0.3c-1.351,0.16-2.711,0.29-4.061,0.39
	c-0.03,0.68-0.09,2.04-0.12,2.72c1.431-0.06,2.53,0.49,3.3,1.64c-0.84,0.01-2.529,0.021-3.369,0.021
	c-0.311,1.79,0.67,4.63-2.091,4.67C173.84,12.66,173.82,9.42,173.85,6.17z"/>
<path fill="#A02727" d="M182.609,6.17c2.24,0.03,4.49,0.01,6.73,0.25c-1.59,0.21-3.189,0.31-4.77,0.4c0,0.75,0.02,2.25,0.029,3
	c1.32-0.01,2.631-0.01,3.95-0.02c-0.12,0.35-0.36,1.07-0.479,1.42c-1.19,0.021-2.391,0.04-3.57,0.05c0.01,1.49,0.04,2.97,0.07,4.46
	c-0.49-0.05-1.461-0.15-1.95-0.2C182.63,12.41,182.62,9.29,182.609,6.17z"/>
<path fill="#A61E1E" d="M191.439,6.17c2.541,0.05,5.09,0.05,7.631,0.28c-1.91,0.23-3.83,0.3-5.74,0.4c0.1,0.68,0.29,2.03,0.391,2.71
	c1.539,0.25,3.109,0.47,4.629,0.85c-1.689,0.44-3.399,0.77-5.119,1.06c0.069,1.34,0.14,2.67,0.209,4c-0.5,0.04-1.51,0.12-2.01,0.16
	C191.45,12.47,191.48,9.32,191.439,6.17z"/>
<path fill="#F4F4F4" d="M87.87,12.2c1.35-0.55,1.82-0.11,1.4,1.33C87.9,14.1,87.43,13.66,87.87,12.2z"/>
<path fill="#F4F4F4" d="M79.55,17.79c0.36,2.38,0.99,5.38-1.7,6.66C78.04,22.15,78.79,19.96,79.55,17.79z"/>
<path fill="#FFFFFF" d="M82.09,23.38c0.74-1.56,1.8-2.92,2.8-4.3c-0.41,2.31-0.87,4.62-0.85,6.98c-0.21,0.36-0.61,1.09-0.81,1.45
	c-0.4-0.16-1.2-0.479-1.59-0.64C81.75,26,81.98,24.25,82.09,23.38z"/>
<path fill="#9D4648" d="M138.221,22.24c2.159,0.04,4.319,0.06,6.479,0.1c0,0.32-0.011,0.96-0.011,1.28
	c-2.229,0.27-6.439-0.95-5,2.83c1.34,0.12,2.69,0.2,4.041,0.24c0.029,0.18,0.09,0.54,0.129,0.71c-1.299,0.05-2.6,0.11-3.899,0.17
	c-0.46,1.83,0.34,4.34-1.56,5.52C138.08,29.48,138.2,25.86,138.221,22.24z"/>
<path fill="#992725" d="M147.13,22.4c2.24-0.02,4.49-0.04,6.74-0.06c0,0.32-0.021,0.96-0.03,1.28c-1.73,0-3.47,0.01-5.199,0.04
	c-0.19,2.27,0.819,3.44,3.09,3.19c0,0.13,0.01,0.39,0.01,0.52c-0.68,0.02-2.03,0.07-2.711,0.09c-0.129,1.99-0.26,3.98-0.789,5.91
	C146.109,30.15,147.43,26.02,147.13,22.4z"/>
<path fill="#964E4D" d="M156.3,22.32c1.88-0.03,3.771-0.06,5.65-0.09c0,0.35,0,1.07,0,1.42c-2.261-0.01-4.88-0.23-4.421,2.97
	c1.351,0.01,2.711,0.02,4.07,0.03c0.021,0.19,0.051,0.58,0.07,0.77c-1.24,0-2.47,0.01-3.699,0.01c-0.311,1.92,0.399,4.32-1.341,5.76
	C156.25,29.58,156.38,25.94,156.3,22.32z"/>
<path fill="#9E4852" d="M165.21,22.3c2.29-0.05,4.59-0.06,6.88,0.03c-0.92,2.24-3.72,1.07-5.529,1.46
	c0.01,0.72,0.039,2.17,0.049,2.89c1.341-0.02,2.681-0.04,4.021-0.06c0.03,0.2,0.091,0.58,0.12,0.78
	c-1.35,0.02-2.689,0.05-4.029,0.09c-0.121,1.87-0.221,3.75-0.41,5.61C163.73,30.2,165.49,25.81,165.21,22.3z"/>
<path fill="#AC3335" d="M173.76,22.45c2.07,0.28,5.03-1.19,6.4,0.95c-1.471,0.17-2.939,0.32-4.41,0.45
	c-0.29,2.23,0.811,3.18,2.95,2.94c0,0.16-0.011,0.46-0.021,0.62c-0.65,0.01-1.959,0.03-2.609,0.05c-0.141,1.97-0.301,3.97-1.01,5.84
	C172.85,30.13,174.18,26.04,173.76,22.45z"/>
<path fill="#992725" d="M182.609,22.43c2.07-0.04,4.141-0.06,6.221-0.07c0.01,0.33,0.02,0.98,0.029,1.3
	c-1.439-0.01-2.869-0.02-4.299-0.03c-0.011,1.04-0.011,2.07,0,3.11c0.789-0.03,2.379-0.08,3.17-0.1c0,0.2,0.02,0.6,0.02,0.8
	c-0.73-0.03-2.2-0.08-2.939-0.11c-0.131,1.67-0.23,3.35-0.32,5.03c-0.461,0.03-1.37,0.09-1.83,0.12
	C182.63,29.13,182.63,25.78,182.609,22.43z"/>
<path fill="#A1232A" d="M191.42,22.32c2.15,0.03,4.311,0.06,6.471,0.07c0.02,0.29,0.069,0.86,0.1,1.15
	c-1.45,0.04-2.891,0.11-4.33,0.23c-0.08,0.73-0.23,2.19-0.301,2.92c1.42,0,2.841-0.01,4.271-0.02c-0.01,0.17-0.03,0.51-0.03,0.68
	c-1.42,0.02-2.83,0.04-4.24,0.08c-0.029,1.67-0.01,3.34,0,5.01c-0.469,0.02-1.42,0.05-1.889,0.06
	C191.45,29.11,191.45,25.72,191.42,22.32z"/>
<path fill="#964E4D" d="M79.74,32.62c0.68-3.11,1.49-6.18,2.35-9.24c-0.11,0.87-0.34,2.62-0.45,3.49c0.39,0.16,1.19,0.48,1.59,0.64
	c0.2-0.36,0.6-1.09,0.81-1.45c0.5,0.02,1.52,0.07,2.02,0.09c-0.1,0.7-0.3,2.11-0.4,2.81l0.17,0.55l-0.39,0.22
	c-0.27,0.09-0.82,0.29-1.09,0.38c-0.3,0.53-0.89,1.57-1.19,2.09c0.1-0.87,0.28-2.61,0.38-3.48l-0.86,0.05
	C81.83,30.15,80.89,31.47,79.74,32.62z"/>
<path fill="#F4F4F4" d="M77.94,29.59c-1.2-0.98-0.23-3.95,1.46-3.32C80.09,27.32,79.53,29.93,77.94,29.59z"/>
<path d="M95.31,27.75c0.55-0.65,1.1-1.3,1.65-1.96c3.28-0.01,6.569-0.05,9.851,0.03c1.199,0.7,2.479,1.28,3.66,2.02
	c1.43,1.28,2.189,3.36,4.209,3.86c0.95,1.61,1.9,3.25,2.4,5.06c1.16,0.47,2.33,0.93,3.49,1.41c1.289,2.68,2.22,5.78,4.859,7.48
	c1.36,1.97,2.221,4.15,2.061,6.58c3.529,2.93,2.16,7.76,2.31,11.74c-1.43,1.71-2,4.021-3.72,5.5c-3.32,2.92-7.65,4.37-12.061,3.75
	c-6.039,0.59-11.85-0.9-17.52-2.77c-1.69-1.66-3.61-3.12-5.88-3.88c-1.22-1.32-2.33-2.76-2.94-4.47c-1.54-3.22-5.99-5.13-5.43-9.15
	c-0.49-3.74,1.23-7.12,2.28-10.59c1.34-1.11,2.4-2.47,3.29-3.96c2.5-3.09,6.75-4.83,8.39-8.54C95.99,29.34,95.53,28.28,95.31,27.75
	 M97.16,27.65c0.01,0.3,0.02,0.91,0.03,1.21c1.24,0.73,2.36,0.39,3.34-1.01c0.72-0.07,2.16-0.2,2.89-0.27
	c0.13,0.53,0.41,1.58,0.551,2.1c-0.711-0.03-2.141-0.09-2.851-0.12c-0.98,1.21-2.53,1.55-3.9,2.09c-2.55,2.72-4.73,5.96-8.23,7.55
	c-0.8,1.73-1.72,3.39-2.66,5.04c-2.34,2.96-2.81,6.83-2.72,10.479c1.05,0.65,2.1,1.3,3.16,1.94c-0.02,0.44-0.06,1.32-0.08,1.76
	c0.58,0.41,1.73,1.24,2.3,1.65c0.66,4.39,5.39,5.79,8.13,8.66c1.8-0.17,3.44,0.34,4.53,1.84c6.09,1.07,12.289,0.77,18.449,0.7
	c2-1.2,3.561-3.04,5.68-4.06c2.721-3.43,2.361-7.94,1.921-12.03c-2.15-1.8-2.62-4.28-2.271-6.99c-0.369,0.02-1.13,0.07-1.51,0.09
	c-0.35-1.561-1.16-2.88-2.391-3.89c-0.67-3.04-2.76-5.4-5.739-6.32c-0.44-2.53-1.96-4.38-4.319-5.36
	c-0.371-0.98-0.75-1.96-1.121-2.94C106.42,27.12,101.74,26.37,97.16,27.65z"/>
<path fill="#FFFFFF" d="M97.16,27.65c4.58-1.28,9.26-0.53,13.189,2.12c0.371,0.98,0.75,1.96,1.121,2.94
	c2.359,0.98,3.879,2.83,4.319,5.36c2.979,0.92,5.069,3.28,5.739,6.32c1.23,1.01,2.041,2.33,2.391,3.89
	c0.38-0.021,1.141-0.07,1.51-0.09c-0.35,2.71,0.12,5.19,2.271,6.99c0.44,4.09,0.8,8.6-1.921,12.03c-2.119,1.02-3.68,2.86-5.68,4.06
	c-6.16,0.07-12.359,0.37-18.449-0.7c-1.09-1.5-2.73-2.01-4.53-1.84c-2.74-2.87-7.47-4.27-8.13-8.66c-0.57-0.41-1.72-1.24-2.3-1.65
	c0.02-0.44,0.06-1.32,0.08-1.76c-1.06-0.64-2.11-1.29-3.16-1.94c-0.09-3.65,0.38-7.52,2.72-10.479c0.94-1.65,1.86-3.31,2.66-5.04
	c3.5-1.59,5.68-4.83,8.23-7.55c1.37-0.54,2.92-0.88,3.9-2.09c0.71,0.03,2.14,0.09,2.851,0.12c-0.141-0.52-0.421-1.57-0.551-2.1
	c-0.73,0.07-2.17,0.2-2.89,0.27c-0.98,1.4-2.1,1.74-3.34,1.01C97.18,28.56,97.17,27.95,97.16,27.65 M106.3,35.92
	c-0.22,3.22-0.159,6.45-0.17,9.67c1.69,0.23,3.39,0.48,5.07,0.81c2.13,2.56,6.46,1.32,8.46-0.95c0.92-1.27-0.95-1.78-1.58-2.59
	c-0.301,0.71-0.88,2.12-1.17,2.83c-3.1,0.59-5.87-1.03-8.87-1.45C107.439,41.65,109.65,36.93,106.3,35.92z"/>
<path fill="#646464" d="M10.68,31.19c4.21,1.14,8.61,0.7,12.4-1.51c-0.47,1.68-0.95,3.36-1.57,4.99c-0.03-0.5-0.1-1.5-0.14-2
	c-3.62,0.15-7.23,0.45-10.85,0.67C10.6,32.62,10.65,31.91,10.68,31.19z"/>
<path fill="#636363" d="M75.14,30.42C78.47,30.59,73.58,33.41,75.14,30.42z"/>
<path fill="#444444" d="M26.23,31.2c1.61-0.49,2.15,0.09,1.62,1.74C26.25,33.42,25.71,32.85,26.23,31.2z"/>
<path fill="#F4F4F4" d="M71.9,40.07c0.95-2.63,1.46-5.43,2.76-7.93c0.61,2.34-0.64,4.51-1.16,6.71C73.1,39.16,72.3,39.77,71.9,40.07
	z"/>
<path fill="#F4F4F4" d="M39.87,36.35c2.92,0.47,6.58-0.05,8.7,2.43c-0.82,0.02-2.47,0.07-3.3,0.1
	C43.94,37.18,41.74,37.06,39.87,36.35z"/>
<path d="M106.3,35.92c3.351,1.01,1.14,5.73,1.74,8.32c3,0.42,5.771,2.04,8.87,1.45c0.29-0.71,0.869-2.12,1.17-2.83
	c0.63,0.81,2.5,1.32,1.58,2.59c-2,2.27-6.33,3.51-8.46,0.95c-1.681-0.33-3.38-0.58-5.07-0.81
	C106.141,42.37,106.08,39.14,106.3,35.92z"/>
<path fill="#F4F4F4" d="M75.8,38.3c0.38,2.43,0.53,4.91,0.28,7.36c-1.49,0.77-2.32-1.94-3.45-2.65C73.65,41.41,74.7,39.84,75.8,38.3
	z"/>
<path fill="#A03D42" d="M142.57,39.28c2.09-0.07,4.189-0.13,6.289-0.16c-0.01,0.34-0.029,1.03-0.039,1.38
	c-1.6,0.02-3.19,0.05-4.78,0.08c0.04,0.85,0.11,2.54,0.149,3.39c1.36,0.15,2.721,0.32,4.08,0.49c-1.369,0.23-2.76,0.41-4.129,0.62
	c-0.041,1.29-0.07,2.59-0.091,3.89c-0.399-0.06-1.18-0.17-1.569-0.22C142.57,45.59,142.58,42.43,142.57,39.28z"/>
<path fill="#A42E21" d="M151.43,39.25c2.11,0,4.221,0.02,6.33,0.04c0,0.3-0.01,0.89-0.01,1.19c-1.48,0.01-2.96,0.02-4.43,0.05
	c0.05,0.88,0.16,2.65,0.209,3.54c1.23,0.14,2.461,0.29,3.691,0.45c-0.891,0.08-2.671,0.24-3.561,0.32
	c-0.189,1.65-0.36,3.3-0.551,4.96c-0.389-0.31-1.159-0.93-1.549-1.25C151.23,45.46,151.439,42.35,151.43,39.25z"/>
<path fill="#A33C39" d="M160.66,39.16c2.15,0.26,4.82-0.69,6.47,1.09c-1.62,0.16-3.229,0.3-4.851,0.41
	c0.041,0.91,0.131,2.72,0.171,3.63c0.84-0.02,2.51-0.05,3.34-0.07l0.101,0.521c-0.891,0.06-2.681,0.17-3.57,0.229
	c-0.291,1.5,0.609,4.021-1.631,4.21C160.66,45.84,160.73,42.5,160.66,39.16z"/>
<path fill="#A23232" d="M168.8,39.42c2.351-0.13,4.69-0.22,7.04-0.28c-0.029,0.35-0.109,1.05-0.15,1.4
	c-1.64,0.01-3.27,0.02-4.899,0.06c0.101,0.84,0.29,2.52,0.39,3.36c1.391,0.21,2.791,0.38,4.18,0.64c-1.43,0.1-2.85,0.19-4.279,0.26
	c-0.15,1.49-0.28,2.99-0.42,4.48c-0.46-0.01-1.391-0.04-1.85-0.06C168.83,45.99,168.83,42.71,168.8,39.42z"/>
<path fill="#9F4750" d="M178.29,39.12c2.33-0.01,4.67,0.02,7,0.27c-1.319,1.75-3.72,1.06-5.58,1.43
	c-0.021,0.77-0.069,2.31-0.09,3.08c1.29,0.24,2.58,0.5,3.87,0.77c-0.91,0.05-2.721,0.15-3.631,0.2c-0.33,1.68,0.24,3.91-1.52,4.95
	C178.09,46.25,178.16,42.68,178.29,39.12z"/>
<path fill="#9D4648" d="M187.52,39.21c2.181,0.03,4.9-0.92,6.451,1.14c-1.65,0.15-3.311,0.22-4.961,0.31
	c0.051,0.89,0.16,2.65,0.211,3.53c1.35,0.02,2.689,0.07,4.029,0.14c-1.3,0.24-2.609,0.41-3.92,0.59c-0.09,1.83-0.32,3.66-1.54,5.1
	C187.42,46.43,187.529,42.82,187.52,39.21z"/>
<path fill="#FFFFFF" d="M37.48,49c6.23-0.74,13.17,1.12,16.82,6.53c0.71,1.979,1.3,4,2.1,5.96c1.87-0.11,3.74-0.21,5.61-0.34
	C61,64.18,60.87,67.77,58.28,70c-1,3.03-3.42,5.3-5.71,7.41c-0.72,1.36-1.45,2.71-2.15,4.08c-2.87,1.31-4.83,3.71-6.78,6.08
	c-4.83-0.34-10.01,0.949-14.37-1.721c-1.43-1.92-3.27-3.63-4.08-5.92c-0.36-2.8-0.71-5.61-1.08-8.42c1.95-0.38,3.92-0.67,5.88-1.02
	c1.52-1.13,2.83-2.53,4.29-3.74c0.36-2.49-0.74-4.68-2-6.73c-2.64,0.06-5.28,0.03-7.91,0.21c1.81,2.06,4.9,1.58,7.37,1.94
	c1.65,2.89-0.49,5.04-2.78,6.55c-2.25,0.12-4.47,0.49-6.7,0.811c-0.18-3.311,1.62-6.26,1.59-9.55c0.47-0.87,0.94-1.74,1.4-2.61
	C28.54,53.54,33.12,51.37,37.48,49z"/>
<path fill="#A8A8A8" d="M137.12,55.13C140.439,55.26,135.63,58.18,137.12,55.13z"/>
<path fill="#9D4648" d="M155.24,56.46c2.32,0.1,4.64,0.16,6.949,0.46c-1.859,0.29-3.739,0.5-5.6,0.73
	c-1.46,3.4,2.721,2.54,4.67,2.91c-0.93,1.72-3.1,1.13-4.67,1.49c-0.189,1.81,0.439,3.99-1.14,5.34
	C154.91,63.77,155.02,60.1,155.24,56.46z"/>
<path fill="#A03D42" d="M164.48,56.55c2.09,0.05,4.189,0.08,6.279,0.1c-0.02,0.18-0.07,0.53-0.09,0.71c-1.609-0.01-3.22-0.01-4.82,0
	c0.11,0.7,0.33,2.11,0.44,2.82c1.28,0.14,2.56,0.24,3.84,0.32c-0.62,1.81-2.71,1.09-4.149,1.34c-0.33,1.76,0.459,4.1-1.291,5.28
	C164.4,63.6,164.5,60.07,164.48,56.55z"/>
<path fill="#9C1D18" d="M173.3,56.56c1.81,0.07,3.62,0.11,5.44,0.14c0,0.16,0,0.48,0.01,0.64c-0.93-0.01-2.79-0.03-3.721-0.04
	c-0.649,2.98,2.011,3.25,4.07,3.93c-0.959,0.11-2.879,0.33-3.84,0.44c-0.02,1.58-0.029,3.17-0.05,4.75
	c-0.46,0.07-1.39,0.21-1.86,0.27C173.37,63.32,173.35,59.94,173.3,56.56z"/>
<path fill="#964E4D" d="M184.02,66.97c-2.09-3.12-3.609-7.99-0.729-11.04c0.19,2.77,0.149,5.55,0.069,8.32
	c1.42,0.65,3.791,1.89,4.641-0.22c0.25-2.73,0.13-5.48,0.45-8.21c2.13,1.94,1.09,5.26,1.09,7.79
	C189.04,66.33,186.439,67.09,184.02,66.97z"/>
<path fill="#9E4852" d="M192.59,56.7c0.41-0.09,1.25-0.28,1.66-0.38c-0.21,2.79-0.24,5.62,0.32,8.38
	c0.959,0.21,2.89,0.63,3.859,0.84c0.34-2.91,0.26-5.84,0.521-8.75c0.31-0.02,0.93-0.06,1.229-0.09c0.271,2.31,0.15,4.64,0.211,6.95
	c-1.17,2.02-2.871,3.56-5.371,3.3c-0.819-1.33-1.67-2.65-2.529-3.95C192.54,60.9,192.54,58.8,192.59,56.7z"/>
<path fill="#FCFCFC" d="M56.44,57.51c1.17-0.46,2.4-0.67,3.7-0.63c0.69,1.36,1.41,2.72,2.15,4.07c-1.1-0.27-3.29-0.8-4.39-1.07
	C57.38,59.11,56.86,58.34,56.44,57.51z"/>
<path fill="#FFFFFF" d="M138.23,57.35c2.17,1.65,3.34,3.97,3.01,6.69c2.74,1.42,3.039,4.57,4.07,7.14
	c0.619,3.94,1.199,7.93,0.699,11.919c-1.31-4.359-1.66-9.02-3.74-13.14c-2.119-2.1-2.18-5.17-3.369-7.74
	C138.73,61,138.4,58.57,138.23,57.35z"/>
<path d="M74.66,68.75c4.52-0.18,8.97,0.65,13.47,0.79c1.05,1.76,3.28,0.96,4.95,1.25c2.16,0.96,4.35,1.85,6.54,2.71
	c0.75,0.92,1.52,1.82,2.31,2.71c1.291,0.17,2.791-0.06,3.73,1.06c1.8,1.78,4.42,2.02,6.67,2.94c0.529-0.72,1.061-1.43,1.609-2.13
	c3.19-0.28,6.32,0.68,8.621,2.95c1.18,1.36,2.27,2.86,3.949,3.659c0.66,1.631,1.26,3.291,1.78,4.971
	c2.3,3.359,4.601,6.72,6.479,10.35c0.101,6.21,0.961,12.71-1.399,18.641c-0.57,1.959-3.14,1.699-4.74,2.02
	c-0.43,0.3-1.3,0.88-1.729,1.17c-4.61,0.02-9.23-0.1-13.84,0.051c-2.391,2.859-6.19,3.859-8.601,6.67
	c-7.42,4.369-14.01,10.149-21.97,13.549c-2.94,1.591-6.02,2.951-9.33,3.58c-0.08,0.601-0.24,1.82-0.32,2.42
	c-2.88,0.69-6.08,1.07-8.73-0.539c-4.57-0.09-9.11-0.59-13.67-0.92c-2.35-2-5.85-1.82-8.14-3.95c0.34-4.75,4.67-7.97,4.48-12.89
	c4.19-3.011,3.27-8.82,4.8-13.201c1.06-2.729,0.65-5.659,0.89-8.5c2.09-5.319,3.03-11.149,3.07-16.859c1.36-2.73,1.33-5.93,2.82-8.6
	c0.45-0.07,1.36-0.19,1.82-0.26c0.64-4.141,4.15-6.531,6.85-9.331C69.55,71.57,72.3,70.5,74.66,68.75 M75.01,70.91
	c-2.1,1.05-4.12,2.26-6.39,2.93c3.16,0.58,4.89,3.25,5.29,6.25c0.56,0.01,1.66,0.02,2.22,0.02c-0.01,0.381-0.02,1.15-0.03,1.531
	c2.14,0.649,4.24,1.439,6.28,2.35c-0.03-4.41,0.04-8.82-0.09-13.23C79.87,70.77,77.4,70.43,75.01,70.91 M84.27,71.14
	c-0.02,1.69-0.03,3.39-0.03,5.09c1.79-0.17,3.5,0.07,4.3,1.91c1.4,0.1,2.81,0.14,4.21,0.16c0.18-0.83,0.54-2.48,0.72-3.3
	c0.57,1.08,0.84,2.28,1.04,3.49c-0.88,0.76-1.73,1.56-2.67,2.25c-2.59-0.71-5.08-1.771-7.58-2.75c-0.02,2.609-0.02,5.21-0.02,7.82
	c-3.22,0.789-5.02-2.211-8.06-2.271c-0.04,2.271-0.04,4.53-0.03,6.8c-0.61,0.95-1.21,1.91-1.81,2.87c-1.57-0.01-3.14,0-4.71,0.03
	c-1.08-0.811-2.16-1.61-3.25-2.41c-0.1,1.439-0.22,2.87-0.37,4.311c-0.91,0.329-1.85,0.569-2.81,0.719
	c-0.29,0.61-0.87,1.83-1.17,2.44c-1.61-0.18-3.48,0.17-4.7-1.18c0.84-0.09,2.53-0.271,3.38-0.351c0.65-2.51,4.15-2.3,4.59-4.959
	c-1.87-0.82-3.69-1.711-5.51-2.631c0.65-0.46,1.33-0.859,2.04-1.21c1.13,0.511,2.28,2.49,3.38,0.86c-1.89-1.02-3.16-2.71-4.05-4.62
	c-1.57-0.101-1.92,2.46-3.07,3.28c0,0.66-0.01,1.99-0.01,2.65c-0.33,0.42-0.98,1.25-1.31,1.659c0.13,5.42-0.35,10.89-1.79,16.12
	c-0.03,3.971-1.11,7.8-1.47,11.74c-0.39,0.3-1.17,0.9-1.56,1.199c-0.17,2.99-0.45,6.261-2.41,8.681c-0.66,1.601-0.95,3.3-1.08,5.021
	c-1.99,1.869-3.16,4.369-4.57,6.67c2.37,1.239,4.66,2.689,7.24,3.5c4.63,0.479,9.26,0.85,13.91,0.92l0.95,1.13
	c1.56,0,3.12-0.021,4.69-0.05c0.95-1.371,2-2.98,3.81-3.221c3.37-0.64,6.04-3,9.35-3.83c0.8-0.449,1.59-0.89,2.39-1.33
	c1.01-0.5,2.02-0.99,3.03-1.5c-0.58-0.959-1.15-1.93-1.7-2.899c-1.29-0.82-2.53-1.72-3.71-2.7c-0.22-1.48-0.95-3.391-2.8-3.18
	c-2.59-0.41-4.61,1.47-6.86,2.39c-1.2,3.04-3.74,5.649-3.8,9.05c-0.41,0.37-1.22,1.12-1.63,1.49c-0.09,0.8-0.26,2.391-0.34,3.189
	c-1.28-1.239-2.54-2.489-3.81-3.739c-1.41-0.681-2.54-1.74-3.35-3.07c-3.29-1.819-6.18,1.9-8.03,4.229
	c-1.49,0.551-2.95,1.181-4.52,1.461c2.06-3.7,6.19-5.53,9.27-8.26c1.65,0.18,3.91-0.36,4.71,1.58c1.07,1.92,3,3,4.7,4.289
	c2.08-2.039,0.18-6.42,3.48-7.26c0.35-1.05,0.7-2.1,1.04-3.15c1.49-1.25,2.99-2.539,4.84-3.209c2.04-1.61,4.84-0.591,7.21-0.82
	c1.2,3.88,4.96,6.05,6.88,9.5c3.98-3.311,8.2-6.391,12.92-8.59c1.471-1.51,2.82-3.521,5.131-3.69
	c0.819-0.93,1.649-1.851,2.479-2.771c1.83-0.129,3.63-0.42,5.42-0.84c-0.03-2.209-0.03-4.43-0.011-6.64
	c-0.479-0.04-1.449-0.13-1.93-0.17c0-0.62,0-1.86,0-2.479c-1.789,0.26-3.57,0.549-5.359,0.799c-0.74,3.66-3.1,6.711-4.18,10.271
	c-0.41,1.32-2.17,0.57-3.19,0.74c-0.45-1.511-1.02-2.979-1.72-4.39c-1.68,0.16-3.41-0.021-5.05,0.449
	c-2.2,1.41-3.24,4.101-3.15,6.65c-2.91,1.67-1.26,5.47-1.96,8.15c-2.72-1.07-1.29-4.471-1.5-6.66c1.61-2.131,1.4-4.95,1.92-7.45
	c3.25-2.11,6.81-3.59,10.77-2.9c0.75,1.36,1.599,2.671,2.541,3.921c1.369-3.171,2.789-6.32,3.84-9.61
	c1.14-0.71,2.609-0.79,3.869-1.23c-0.439-1.12-0.89-2.229-1.34-3.34c-2.54-1.58-4.699-3.819-6.18-6.42
	c-0.68,0.2-2.04,0.601-2.72,0.8c-1.76,1.4-3.72,2.54-5.66,3.68c-0.6,1.561-1.23,3.11-1.79,4.681c-2.19,0.02-4.39,0.06-6.58,0.11
	c-0.02-0.471-0.05-1.42-0.07-1.9c-0.85,0-2.56-0.01-3.41-0.02c-1.11,1.539-2.38,2.939-3.8,4.189c-1.92,3.15-2.3,6.87-3.95,10.14
	c-0.98,0.03-1.95,0.061-2.93,0.091c0.74-1.041,1.42-2.131,1.95-3.301c1.62-3.83,2.46-8.41,6.09-10.97c3.12-3.67,7.69,0.25,11.5-0.11
	c1.06-2.72,2.17-5.75,5.16-6.85c2.27-0.689,4.56-2.7,7.021-1.66c2.1,2.33,4.659,4.189,6.709,6.561c1.26,1.14,1.58,2.67,1.01,4.25
	c2.101-0.521,3.36,1.01,4.57,2.439c0.08-2.029,0.18-4.07,0.641-6.061c2.64-0.01,5.27-0.029,7.91-0.02
	c1.83,2.53,4.799,4.04,6.299,6.811c-0.569,0.029-1.689,0.09-2.26,0.119c-1.689-1.779-4.02-3.129-4.77-5.619
	c-1.73-0.01-3.46-0.01-5.189-0.021c0.569,4.53-2.021,8.54-1.281,13.09c3.031-0.489,6.771,0.98,9.291-1.09
	c1.31-0.37,2.609-0.739,3.92-1.12c2.51-5.449,1.65-11.439,1.8-17.24c-3.78-3.939-6.091-8.869-8.431-13.72
	c-2.649-3.25-5.6-7.5-10.39-6.84c0.021,0.42,0.06,1.271,0.08,1.69c2.16,0.189,3.89,1.369,5.29,2.949
	c-3.141-0.069-6.01-1.42-8.97-2.27c-0.28-0.37-0.83-1.12-1.101-1.49c-3.369,0.68-5.199-2.74-8.33-2.85
	c-1.47-2.32-4.97-2.19-5.979-4.65C91.91,72.79,88.17,71.48,84.27,71.14 M63,79.26c-0.08,2.021-0.06,4.04,0.02,6.061
	c2.29,0.229,3.51,2.21,3.23,4.39c1.34,0.26,2.73,0.53,3.77,1.5c0.8,0.03,2.4,0.09,3.2,0.13c1.2-2.66,1.12-5.56,1.08-8.4
	c-3.45-0.209-2.39-3.979-3.24-6.279c-1.15-0.63-2.3-1.23-3.46-1.82C66.24,76.48,65.18,78.59,63,79.26z"/>
<path fill="#FCFCFC" d="M75.01,70.91c2.39-0.48,4.86-0.14,7.28-0.15c0.13,4.41,0.06,8.82,0.09,13.23c-2.04-0.91-4.14-1.7-6.28-2.35
	c0.01-0.381,0.02-1.15,0.03-1.531c-0.56,0-1.66-0.01-2.22-0.02c-0.4-3-2.13-5.67-5.29-6.25C70.89,73.17,72.91,71.96,75.01,70.91z"/>
<path fill="#FFFFFF" d="M84.27,71.14c3.9,0.34,7.64,1.65,11.52,2.2c1.01,2.46,4.51,2.33,5.979,4.65
	c3.131,0.11,4.961,3.529,8.33,2.85c0.271,0.37,0.82,1.12,1.101,1.49c2.96,0.85,5.829,2.2,8.97,2.27c-1.4-1.58-3.13-2.76-5.29-2.949
	c-0.021-0.42-0.06-1.271-0.08-1.69c4.79-0.66,7.74,3.59,10.39,6.84c2.34,4.851,4.65,9.78,8.431,13.72
	c-0.149,5.801,0.71,11.791-1.8,17.24c-1.311,0.381-2.61,0.75-3.92,1.12c-2.521,2.07-6.26,0.601-9.291,1.09
	c-0.739-4.55,1.851-8.56,1.281-13.09c1.729,0.011,3.459,0.011,5.189,0.021c0.75,2.49,3.08,3.84,4.77,5.619
	c0.57-0.029,1.69-0.09,2.26-0.119c-1.5-2.771-4.469-4.28-6.299-6.811c-2.641-0.01-5.271,0.01-7.91,0.02
	c-0.461,1.99-0.561,4.031-0.641,6.061c-1.21-1.43-2.47-2.96-4.57-2.439c0.57-1.58,0.25-3.11-1.01-4.25
	c-2.05-2.371-4.609-4.23-6.709-6.561c-2.461-1.04-4.75,0.971-7.021,1.66c-2.99,1.1-4.1,4.13-5.16,6.85
	c-3.81,0.36-8.38-3.56-11.5,0.11c-3.63,2.56-4.47,7.14-6.09,10.97c-0.53,1.17-1.21,2.26-1.95,3.301c0.98-0.03,1.95-0.061,2.93-0.091
	c1.65-3.27,2.03-6.989,3.95-10.14c1.42-1.25,2.69-2.65,3.8-4.189c0.85,0.01,2.56,0.02,3.41,0.02c0.02,0.48,0.05,1.43,0.07,1.9
	c2.19-0.051,4.39-0.091,6.58-0.11c0.56-1.57,1.19-3.12,1.79-4.681c1.94-1.14,3.9-2.279,5.66-3.68c0.68-0.199,2.041-0.6,2.72-0.8
	c1.48,2.601,3.64,4.84,6.18,6.42c0.45,1.11,0.9,2.22,1.34,3.34c-1.26,0.44-2.729,0.521-3.869,1.23
	c-1.051,3.29-2.471,6.439-3.84,9.61c-0.941-1.25-1.791-2.561-2.541-3.921c-3.96-0.689-7.52,0.79-10.77,2.9
	c-0.52,2.5-0.31,5.319-1.92,7.45c0.21,2.189-1.22,5.59,1.5,6.66c0.7-2.681-0.95-6.48,1.96-8.15c-0.09-2.55,0.95-5.24,3.15-6.65
	c1.64-0.47,3.37-0.289,5.05-0.449c0.7,1.41,1.27,2.879,1.72,4.39c1.021-0.17,2.78,0.58,3.19-0.74c1.08-3.56,3.439-6.61,4.18-10.271
	c1.789-0.25,3.57-0.539,5.359-0.799c0,0.619,0,1.859,0,2.479c0.48,0.04,1.45,0.13,1.93,0.17c-0.02,2.21-0.02,4.431,0.011,6.64
	c-1.79,0.42-3.59,0.711-5.42,0.84c-0.83,0.92-1.66,1.841-2.479,2.771c-2.311,0.17-3.66,2.181-5.131,3.69
	c-4.72,2.199-8.94,5.279-12.92,8.59c-1.92-3.45-5.68-5.62-6.88-9.5c-2.37,0.229-5.17-0.79-7.21,0.82
	c-1.85,0.67-3.35,1.959-4.84,3.209c-0.34,1.051-0.69,2.101-1.04,3.15c-3.3,0.84-1.4,5.221-3.48,7.26
	c-1.7-1.289-3.63-2.369-4.7-4.289c-0.8-1.94-3.06-1.4-4.71-1.58c-3.08,2.729-7.21,4.56-9.27,8.26c1.57-0.28,3.03-0.91,4.52-1.461
	c1.85-2.329,4.74-6.049,8.03-4.229c0.81,1.33,1.94,2.39,3.35,3.07c1.27,1.25,2.53,2.5,3.81,3.739c0.08-0.799,0.25-2.39,0.34-3.189
	c0.41-0.37,1.22-1.12,1.63-1.49c0.06-3.4,2.6-6.01,3.8-9.05c2.25-0.92,4.27-2.8,6.86-2.39c1.85-0.211,2.58,1.699,2.8,3.18
	c1.18,0.98,2.42,1.88,3.71,2.7c0.55,0.97,1.12,1.94,1.7,2.899c-1.01,0.51-2.02,1-3.03,1.5c-0.8,0.44-1.59,0.881-2.39,1.33
	c-3.31,0.83-5.98,3.19-9.35,3.83c-1.81,0.24-2.86,1.85-3.81,3.221c-1.57,0.029-3.13,0.05-4.69,0.05l-0.95-1.13
	c-4.65-0.07-9.28-0.44-13.91-0.92c-2.58-0.811-4.87-2.261-7.24-3.5c1.41-2.301,2.58-4.801,4.57-6.67
	c0.13-1.721,0.42-3.42,1.08-5.021c1.96-2.42,2.24-5.69,2.41-8.681c0.39-0.299,1.17-0.899,1.56-1.199c0.36-3.94,1.44-7.77,1.47-11.74
	c1.44-5.23,1.92-10.7,1.79-16.12c0.33-0.409,0.98-1.239,1.31-1.659c0-0.66,0.01-1.99,0.01-2.65c1.15-0.82,1.5-3.381,3.07-3.28
	c0.89,1.91,2.16,3.601,4.05,4.62c-1.1,1.63-2.25-0.35-3.38-0.86c-0.71,0.351-1.39,0.75-2.04,1.21c1.82,0.92,3.64,1.811,5.51,2.631
	c-0.44,2.659-3.94,2.449-4.59,4.959c-0.85,0.08-2.54,0.261-3.38,0.351c1.22,1.35,3.09,1,4.7,1.18c0.3-0.61,0.88-1.83,1.17-2.44
	c0.96-0.149,1.9-0.39,2.81-0.719c0.15-1.44,0.27-2.871,0.37-4.311c1.09,0.8,2.17,1.6,3.25,2.41c1.57-0.03,3.14-0.04,4.71-0.03
	c0.6-0.96,1.2-1.92,1.81-2.87c-0.01-2.27-0.01-4.529,0.03-6.8c3.04,0.06,4.84,3.06,8.06,2.271c0-2.61,0-5.211,0.02-7.82
	c2.5,0.979,4.99,2.04,7.58,2.75c0.94-0.69,1.79-1.49,2.67-2.25c-0.2-1.21-0.47-2.41-1.04-3.49c-0.18,0.82-0.54,2.47-0.72,3.3
	c-1.4-0.02-2.81-0.06-4.21-0.16c-0.8-1.84-2.51-2.08-4.3-1.91C84.24,74.53,84.25,72.83,84.27,71.14z"/>
<path fill="#964E4D" d="M155.391,73.7c0.27-0.2,0.819-0.59,1.1-0.78c0.09,2.68-0.09,5.38,0.18,8.05c0.96,1.841,3.189,0.78,4.68,0.4
	c0.44-2.74-1.25-6.59,1.25-8.59c0.16,3.76,1.271,8.26-1.97,11.06c-1.26-0.22-2.649-0.029-3.8-0.63
	C154.85,80.51,154.609,76.84,155.391,73.7z"/>
<path fill="#9F4750" d="M165.63,73.28c0.39,0.11,1.181,0.31,1.58,0.41c-0.101,2.81-0.05,5.64,0.521,8.4
	c0.91,0.04,2.74,0.11,3.649,0.141c0.54-2.891,0.58-5.84,0.46-8.771c0.41-0.01,1.24-0.02,1.65-0.03c-0.02,2.74-0.04,5.49-0.01,8.23
	c-1.59,1.97-4.311,2.81-6.541,1.359C165.391,80.01,165.68,76.56,165.63,73.28z"/>
<path fill="#A44B56" d="M176.46,72.87c2.66,1.7,0.96,5.48,1.13,8.01c1.4,0.86,3.01,1.24,4.6,1.63c0.371-3.01,0.42-6.04,0.36-9.07
	c0.4,0.01,1.21,0.02,1.61,0.03c-0.051,2.64-0.061,5.28,0,7.91c-1.67,1.97-4,2.65-6.49,2.11C176.07,80.17,176.141,76.46,176.46,72.87
	z"/>
<path fill="#964E4D" d="M187.62,72.84c2.76,2.29,1,6.55,1.521,9.67c1.529-0.529,4.209-0.15,3.879-2.52
	c0.75-2.271-0.959-5.74,1.51-7.12c-0.149,3.5,1.631,8.28-1.959,10.58c-1.74,0.85-3.44-0.42-5.061-0.94
	C187.5,79.29,187.46,76.06,187.62,72.84z"/>
<path fill="#FCFCFC" d="M63,79.26c2.18-0.67,3.24-2.78,4.6-4.42c1.16,0.59,2.31,1.19,3.46,1.82c0.85,2.3-0.21,6.07,3.24,6.279
	c0.04,2.841,0.12,5.74-1.08,8.4c-0.8-0.04-2.4-0.1-3.2-0.13c-1.04-0.97-2.43-1.24-3.77-1.5c0.28-2.18-0.94-4.16-3.23-4.39
	C62.94,83.3,62.92,81.28,63,79.26z"/>
<path fill="#A3424A" d="M160.23,99.5c-0.811-3.1-1.931-7.27,0.369-9.91c0.521,3.03,0.391,6.12,0.131,9.17
	c1.64,0.01,3.279-0.01,4.93-0.04c0.061-2.829,0.05-5.659,0.02-8.479c0.381,0.01,1.16,0.04,1.551,0.05
	c-0.03,2.66-0.041,5.319-0.051,7.979c-0.369,0.34-1.109,1.021-1.479,1.36C163.87,99.58,162.05,99.54,160.23,99.5z"/>
<path fill="#964E4D" d="M170.359,89.7c2.57,2.13,0.631,6.22,1.16,9.1c1.601-0.02,3.211-0.069,4.811-0.13
	c-0.01-2.811-0.02-5.609,0.01-8.42c0.35-0.01,1.051-0.05,1.391-0.07c0.069,2.86,0.319,5.75-0.16,8.59
	c-1.631,1.471-4.211,0.851-6.211,0.69C169,96.84,170.34,92.87,170.359,89.7z"/>
<path fill="#A32D1D" d="M180.33,90.311c0.47,0.01,1.41,0.029,1.88,0.029c-0.03,2.54-0.271,5.1,0.08,7.62
	c0.56,2.44,3.149,0.61,4.569,0.22c0.15-2.83,0.24-5.67,0.621-8.479c1.64,2.38,0.779,5.52,0.81,8.229
	c-0.819,2.5-4.011,1.391-5.99,1.78c-0.7-0.89-1.42-1.78-2.13-2.66C180.221,94.8,180.27,92.561,180.33,90.311z"/>
<path fill="#A31F25" d="M191.45,90.24c0.479,0.04,1.45,0.119,1.93,0.16c-0.05,2.979-0.08,5.949,0.06,8.93
	c1.311-0.34,2.621-0.689,3.931-1.05c0.09,0.319,0.271,0.96,0.37,1.27l0.029,0.101c-2.129-0.041-4.279-0.01-6.34-0.58
	C191.471,96.12,191.49,93.18,191.45,90.24z"/>
<path fill="#B43F38" d="M197.07,90.22c0.529,0.061,1.58,0.171,2.1,0.23c-0.3,3.04,0.891,6.62-1.43,9.1
	c-0.1-0.31-0.28-0.95-0.37-1.27C196.49,95.68,196.96,92.891,197.07,90.22z"/>
<path fill="#FFFFFF" d="M0,106.62l0.97-2.87c0.81,4.74,0.87,9.59,2.61,14.12c-0.37,3.89,1.39,7.16,3.56,10.22
	c0.68,1.28,1.42,2.52,2.18,3.76c0.55,2.01,1.31,3.971,3.1,5.211C12,143,14.54,148.42,15.96,154.04c0.73,1.3,1.44,2.62,2.13,3.96H0
	V106.62z"/>
<path fill="#964E4D" d="M155.279,106.65c2.48,1.66,0.871,5.189,1.23,7.649c0.36,0.65,1.07,1.96,1.43,2.61
	c5.021-0.41,3.08-6.34,3.371-9.7c0.369-0.01,1.109-0.04,1.479-0.06c-0.011,3.479,0.67,7.27-1.56,10.27
	c-1.74-0.279-4.131,0.49-5.15-1.4C154.24,113.29,155.29,109.72,155.279,106.65z"/>
<path fill="#9C4A45" d="M165.65,107.25c0.39,0.02,1.189,0.061,1.58,0.09c-0.051,2.221-0.16,4.45-0.021,6.68
	c-0.06,2.2,2.729,2.371,4.229,2.971c0.431-3.45,0.48-6.93,0.851-10.381c0.84,0.561,1.229,1.341,1.181,2.33
	c0.039,2.73,0.369,5.86-1.461,8.15c-1.46,0.23-2.939,0.221-4.41,0.311C165,114.6,165.721,110.73,165.65,107.25z"/>
<path fill="#964E4D" d="M176.32,107.21c0.359-0.01,1.1-0.05,1.459-0.06c0.271,3.209-1.479,9.399,3.341,9.51
	c3.399-2.18-0.45-7.66,2.67-10.061c0.569,3.32,0.31,6.681-0.39,9.961c-1.73,0.449-3.561,1.09-5.351,0.549
	C175.42,114.48,176.52,110.52,176.32,107.21z"/>
<path fill="#A64A47" d="M187.58,107.22c0.391,0.03,1.18,0.07,1.57,0.091c-0.021,3.02-0.301,6.1,0.459,9.06
	c0.74,0.13,2.221,0.399,2.961,0.53c0.93-3.15,0.65-6.461,0.64-9.7c0.37,0.01,1.12,0.03,1.5,0.04c-0.12,3.17,0.54,6.65-1.21,9.51
	c-1.25,0.71-2.811,0.49-4.18,0.75C186.4,114.859,187.79,110.66,187.58,107.22z"/>
<path fill="#9D4648" d="M159.6,123.9c2.25,1.64,0.92,4.869,1.57,7.22c-0.07,1.92,2.25,2.46,3.74,2.03c1.42-2.7,0.63-5.86,0.76-8.771
	c0.391,0.07,1.17,0.22,1.551,0.29c-0.011,2.45-0.021,4.9-0.031,7.36c-0.84,0.86-1.66,1.729-2.489,2.61
	c-0.7,0.039-2.101,0.109-2.81,0.149C158.92,131.87,159.24,127.71,159.6,123.9z"/>
<path fill="#9D4648" d="M172.33,134.91c-2.25-3.03-3.91-8.01-0.92-11.02c0.23,2.819,0.189,5.659,0.08,8.489
	c1.34,0.37,2.67,0.74,4.01,1.11c1.24-3.03,0.8-6.32,0.99-9.5c2.57,1.67,0.8,5.51,1.34,8.06
	C176.54,133.96,174.71,135.141,172.33,134.91z"/>
<path fill="#A03D42" d="M180.23,124.48c0.49,0.039,1.479,0.109,1.97,0.14c-0.03,2.899-0.261,5.85,0.521,8.68
	c5.34,1.03,4.139-5.43,4.149-8.7c0.38-0.02,1.149-0.069,1.53-0.09c-0.01,2.391,0.01,4.78,0.119,7.17
	c-0.979,2.15-2.699,3.53-5.17,3.101c-1.05-1.23-2.199-2.37-3.109-3.7C180.02,128.88,180.17,126.68,180.23,124.48z"/>
<path fill="#A63B3C" d="M191.38,124.49c0.5,0.02,1.49,0.06,1.979,0.08c-0.02,2.96,0.041,5.93,0.131,8.89
	c0.72-0.09,2.16-0.271,2.88-0.36c0.819-2.77,0.489-5.68,0.46-8.52c0.79-0.01,1.58-0.02,2.37-0.03c-0.39,3.24,1.11,8.14-2.8,9.681
	c-1.801,1.47-3.44-1.15-5.07-1.761C191.37,129.811,191.38,127.15,191.38,124.49z"/>
<path fill="#717171" d="M146.09,132.33C149.391,132.561,144.51,135.311,146.09,132.33z"/>
<path fill="#FCFDFC" d="M14.81,138.76c3.57,3.12,4.58,8.42,8.89,10.771c0.32,0.35,0.94,1.06,1.25,1.42c2.26,0.79,4.51,1.6,6.79,2.33
	c2.21,1.819,4.74,3.2,7.16,4.72H19.59C16.69,152,14.49,145.52,14.81,138.76z"/>
<path fill="#964E4D" d="M155.32,140.641c2.55,2.029,0.75,5.93,1.26,8.729c1.47,0.04,2.939,0.069,4.41,0.09
	c0.279-2.87,0.35-5.74,0.52-8.61c2.37,1.75,1.141,5.37,1.141,7.891c-0.561,3.359-4.631,1.99-6.961,1.89
	C155.17,147.32,154.891,143.97,155.32,140.641z"/>
<path fill="#964E4D" d="M165.67,141.359c0.38,0.021,1.16,0.051,1.551,0.07c-0.041,2.69-0.031,5.391,0.1,8.09
	c1.529-0.129,3.06-0.27,4.59-0.42c0.439-2.649-1.32-6.5,1.4-8.189c0.08,3.38,0.869,7.06-1.101,10.08
	c-1.8-0.051-3.601-0.1-5.39-0.131C165.4,147.88,165.609,144.561,165.67,141.359z"/>
<path fill="#9D4648" d="M176.41,140.811c2.74,1.729,0.85,5.76,1.34,8.449c1.391,0.18,2.79,0.2,4.189,0.061
	c1.57-2.57-0.43-6.141,1.67-8.561c0.391,2.68,0.841,5.45,0.341,8.15c-0.931,2.609-3.97,2.1-6.16,2.33
	C175.92,148.07,176.21,144.34,176.41,140.811z"/>
<path fill="#9C4A45" d="M193.439,140.72c2.221,1.87,1.16,5.3,1.121,7.82c-0.541,3.55-4.59,2.55-7.021,1.92
	c0.021-3.05,0-6.09-0.05-9.14l1.66,0.109c-0.03,2.74-0.03,5.49,0.01,8.23c1.33-0.16,2.67-0.311,4-0.471
	C193.18,146.37,193.18,143.54,193.439,140.72z"/>
<path fill="#964E4D" d="M196.29,147.13c1.91,0.011,3.819,0.13,5.71,0.39v1.33C200.07,148.35,197.95,148.37,196.29,147.13z"/>
</svg>
