<?xml version="1.0" encoding="utf-8"?>
<!-- Generator: Adobe Illustrator 15.0.2, SVG Export Plug-In . SVG Version: 6.00 Build 0)  -->
<!DOCTYPE svg PUBLIC "-//W3C//DTD SVG 1.1//EN" "http://www.w3.org/Graphics/SVG/1.1/DTD/svg11.dtd">
<svg version="1.1" id="Layer_1" xmlns="http://www.w3.org/2000/svg" xmlns:xlink="http://www.w3.org/1999/xlink" x="0px" y="0px"
	 width="208px" height="226px" viewBox="0 0 208 226" enable-background="new 0 0 208 226" xml:space="preserve">
<path fill="#FFFFFF" d="M0,0h208v226H0V0 M84.47,0.99C82.06,6.6,76.54,9.94,70.93,11.7c-9.28,2.94-19.11,3.57-28.46,6.29
	c3.31,8.19,5.25,16.85,8.49,25.06c-0.99,2.63-2.26,5.14-3.89,7.44c-6.91-0.67-14.2-2.21-20.86,0.6c0.56,0.57,1.12,1.14,1.69,1.7
	c-0.16,1.25-0.29,2.49-0.4,3.74c4.6-0.62,9.21-1.32,13.87-1.18c-4.47,6.2-8.61,12.62-13.07,18.82c-2.06,2.53-3.58,5.76-6.25,7.63
	c-6.53,0.02-10.44,5.75-15.99,8.15c-9.21,13.53-5.05,34.11,8.67,43.03c-0.16,16.569,1.69,33.529,8.5,48.8
	c6.25,14.67,17.53,26.989,31.3,34.95c1.61,1.16,3.66-0.67,5.23,0.459c1.99,1.011,4.14,4.301,6.02,1.36
	c3.44,0.261,7.11,4.521,10.31,1.62c-6.49-1.13-12.8-3.47-18.34-7.08c-8.29-5.4-14.87-12.92-21.26-20.37
	c-1.75-2.2-4.4-3.899-4.92-6.85c-4.8-18.71-10.73-37.39-11.41-56.851c-0.58-6.369-0.06-12.76,0.36-19.12
	c1.03-4.77,3.87-8.95,4.94-13.73c0.96-3.17,0.74-6.51,1.1-9.76c4.19-11.14,12.27-20.13,19.83-29.1c12.56-0.2,23.72,8.23,29.33,19.08
	c-4.83-1.43-9.65-3.32-14.76-3.29c-5.67-0.25-10.05,4.08-13.71,7.86c-5.24,6.1-10.87,13.45-9.75,22c1.1,9.8,5.77,19.681,14.03,25.39
	c5.46,3.86,12.74,4.391,18.95,2.211c3.27-3.94,6.51-8.091,11.12-10.53c-1.61,8.81-11.44,12.399-19.35,12.909
	c0.2,1.621,0.78,3.011,2.49,3.461c2.39-1.25,4.65-3.59,7.61-2.9c-1.79,2.28-4.39,3.641-6.46,5.63c5.07-1.86,8.51-6.34,12.12-10.13
	c10.2-12.45,15.27-28.02,20.67-42.94c1.46,1.58,5.3,4.73,6.32,1.28c-6.22-1.1-4.93-9.76-10.27-12.26c1.25,3.92,4.07,8.06,1.89,12.22
	c-1.51-1.3-1.44-3.89-3.46-4.59c0.5,1.79,0.94,3.62,0.6,5.49c-2.37-0.74-3.64-3-5.39-4.57c-2.92-2.71-6-5.29-8.35-8.55
	c0.46-1.54,0.42-3.08-0.11-4.62c2.68,1.28,5.14,3.26,8.12,3.75c1.86,0.38,3.08-1.36,4.12-2.59c-2.41,0.36-5.02,1.16-7.3-0.12
	c-4.83-2.4-5.45-8.44-8.88-12.1c-8.51-1.5-16.74-4.49-23.8-9.55c6.85-6.36,11.27-15.33,19.56-20.08c7.1-2.64,14.64-4.62,22.28-4.32
	c8.42,0.16,16.59,2.37,24.721,4.31c-0.09,0.83-0.271,2.5-0.371,3.33c-2.279,1.37-4.789,1.41-7.26,0.55
	c0.57,4.86,0.051,9.9-1.89,14.42c-1.8,4.82-5.34,8.85-6.72,13.82c1.5,5.05,3.96,9.89,4.5,15.19c-0.7,0.96-1.82,1.45-2.77,2.09
	c-0.63-2.17-1.24-4.38-2.51-6.28c-3.85,6.62,4.36,13.7,10.771,12.43c1.89-0.5,2.26-2.49,2.789-4.1c-1.67,0.95-3.229,2.35-5.25,2.37
	c-2.01,0.39-3.06-1.66-4.049-3c3.069-0.2,6.079-0.83,8.899-2.07c-0.61-3.79-0.8-7.74,0.47-11.43c2.12-7.07,8.09-12.06,10.86-18.81
	c2.45-6.06,1.93-13.49,6.78-18.42c3.25,0.36,6.479,1.17,9.779,0.91c-0.13-0.479-0.4-1.45-0.539-1.93
	c-2.191-0.32-4.611-0.08-6.49-1.44c3.869-0.99,4.97-6.23,9.16-6.25c6.6,4.56,13.92,8.83,18.31,15.78c-0.53,0.47-1.58,1.4-2.101,1.87
	c6.351,2.67,6.4,10.24,8.891,15.66c0.369-1.67,0.24-3.4,0.31-5.1c3.16,1.92,2.479,6.67,5.87,8.26c0.82,3.32,5.689,5.69,3.32,9.45
	c-3.641-2.78-2.77-9.58-7.78-10.55c3.25,7.67,7.45,14.87,11.64,22.06c5.34,9.09,7.69,19.45,10.621,29.47
	c6.809,24.37,10.059,49.8,8.51,75.101c-8.94,10.709-10.74,25.109-15.201,37.909c3.891-5.27,6.921-11.11,10.031-16.86
	c6.289-12.64,11.289-26.959,8.68-41.229c-3.08-14.479-1.23-29.34-2.221-43.99c-0.25-8.43-1.939-17.07-6.85-24.08
	c-2.73-10.98-12.391-18.71-14.391-29.96c5.611-10.21,3.421-24.27-5.51-31.92c-5.289-5.04-12.85-6.65-19.949-6.45
	c-3.7-2.97-8.32-4.96-11-9.05c1.68-0.11,3.359-0.18,5.05-0.26c0.08-0.47,0.239-1.42,0.319-1.89c-3.479-0.25-6.92,0.25-10.369,0.57
	c-7.67-2.84-15.971-3.79-24.08-2.78c-17.32,1.76-33.22,9.4-49.93,13.68c-2.47,4.08-5.58,8.15-10.01,10.19
	c-4.36-2.55-6.34-8.17-5.88-13.07c6.77-2.15,12.9-5.93,19.74-7.87C77,14.23,83.7,14.64,89.42,17.5c3.32-2.39,4.99-6.3,5.43-10.27
	C93.24,3.21,88.69,0.93,84.47,0.99 M134.561,53.38c-7.891,5.65-14.041,14.09-15.881,23.71c-0.93,5.51-0.359,11.55,2.82,16.27
	c3.529,5.73,9.439,9.24,14.4,13.57c-8.07-4.25-17.601-7.59-26.7-4.83c-4.87,2.59-9.22,6.14-13.2,9.93
	c-10.3,9.979-15.93,24.68-14.49,38.989c0.77,7.961-1.51,15.791-4.43,23.101c-3.42,8.55-8.39,16.47-10.91,25.38
	c8.03,5.02,17.67,5.95,26.86,6.96c4.41,0.34,8.78,1.16,13.22,1.21c0.471-1.09,0.95-2.18,1.439-3.26
	c4.73-1.75,9.511-3.471,13.91-5.99c11.561-6.17,21.33-15.109,32.7-21.58c-6.12,7.09-13.97,12.471-20.03,19.63
	c0.021,0.29,0.061,0.89,0.07,1.181c9.67-3.791,13.561-14.601,22.18-19.851c5.75-3.93,13-3.09,19.551-4.02
	c4.279-0.261,8.42-2.88,9.89-7c2.05-6.45-0.34-13.5,2.271-19.89c-2.801-5.391-4.9-11.11-7.601-16.541
	c2.14,1.891,4.88,2.721,7.61,3.301c-6.66-6.601-13.73-13.021-22.04-17.48c0.36-0.89,0.729-1.779,1.09-2.67
	c-3.351,0.3-6.71,0.109-10.06,0.01l-0.26,0.561c-0.141,1.92,1.819,1.52,3.119,1.789c-1.22,0.711-2.689,2-4.17,1.131
	c-0.93-0.29-2.87-1.721-1.3-2.641l0.39-0.58c-0.449-1.609-2.73-0.729-3.91-1.359c-4.189-1.09-8.119-3.1-11.6-5.65
	c4.83-1.05,8.37,2.46,12.141,4.69c9.17,1.54,18.159-2.45,27.369-1.73c-0.14-1.25-0.81-1.78-2.01-1.6c-3,0.06-6.08,1.51-8.96,0.05
	c4.37-2.36,9.2-4.88,11.239-9.72c2.07-5.11,2.811-11.62-0.729-16.26c-5.89-10.12-10.1-21.74-19.26-29.51
	c-5.95-5.19-14.13-6.78-21.819-6.04C135.74,48.63,137.02,51.97,134.561,53.38 M115.311,90.98c0.449,3.61,3.529,5.96,6.379,7.77
	c-0.289-2.43-0.979-4.8-1.67-7.14c-0.319,0.78-0.97,2.33-1.289,3.1c-0.851-2-1.641-4.01-2.451-6.02
	C115.43,89.25,115.109,90.02,115.311,90.98 M90.81,115.91c3.54-7,11.24-9.99,15.911-15.96C100.18,103.6,92.98,108.28,90.81,115.91
	 M188.26,129.48c4.551,3.3,4.891,9.25,7.48,13.83c-0.131-2.58-0.75-5.181-0.07-7.73c-2.49-1.66-4.109-4.21-6.05-6.42
	C189.279,129.24,188.6,129.4,188.26,129.48 M68.36,174.859c0.03,0.791,0.09,2.36,0.12,3.141c-0.92,1.59-1.79,3.22-2.36,4.96
	c3.08-0.69,2.95-5.06,4.02-7.42c0.4,0,1.2,0,1.6,0C70.81,174.7,69.51,174.92,68.36,174.859 M140.37,197.07
	c0.26,0.1,0.8,0.289,1.069,0.39c3.681-1.819,7.021-4.34,9.621-7.53C147.25,191.92,143.87,194.609,140.37,197.07z"/>
<path fill="#030303" d="M84.47,0.99c4.22-0.06,8.77,2.22,10.38,6.24c-0.44,3.97-2.11,7.88-5.43,10.27
	C83.7,14.64,77,14.23,70.91,16.08c-6.84,1.94-12.97,5.72-19.74,7.87c-0.46,4.9,1.52,10.52,5.88,13.07
	c4.43-2.04,7.54-6.11,10.01-10.19c16.71-4.28,32.61-11.92,49.93-13.68c8.109-1.01,16.41-0.06,24.08,2.78
	c3.449-0.32,6.89-0.82,10.369-0.57c-0.08,0.47-0.239,1.42-0.319,1.89c-1.69,0.08-3.37,0.15-5.05,0.26c2.68,4.09,7.3,6.08,11,9.05
	c7.1-0.2,14.66,1.41,19.949,6.45c8.931,7.65,11.121,21.71,5.51,31.92c2,11.25,11.66,18.98,14.391,29.96
	c4.91,7.01,6.6,15.65,6.85,24.08c0.99,14.65-0.859,29.511,2.221,43.99c2.609,14.271-2.391,28.59-8.68,41.229
	c-3.11,5.75-6.141,11.591-10.031,16.86c4.461-12.8,6.261-27.2,15.201-37.909c1.549-25.301-1.701-50.73-8.51-75.101
	c-2.931-10.02-5.281-20.38-10.621-29.47c-4.189-7.19-8.39-14.39-11.64-22.06c5.011,0.97,4.14,7.771,7.78,10.55
	c2.369-3.76-2.5-6.13-3.32-9.45c-3.391-1.59-2.71-6.34-5.87-8.26c-0.069,1.7,0.06,3.43-0.31,5.1c-2.49-5.42-2.54-12.99-8.891-15.66
	c0.521-0.47,1.57-1.4,2.101-1.87c-4.39-6.95-11.71-11.22-18.31-15.78c-4.19,0.02-5.291,5.26-9.16,6.25
	c1.879,1.36,4.299,1.12,6.49,1.44c0.139,0.48,0.409,1.45,0.539,1.93c-3.3,0.26-6.529-0.55-9.779-0.91
	c-4.851,4.93-4.33,12.36-6.78,18.42c-2.771,6.75-8.74,11.74-10.86,18.81c-1.27,3.69-1.08,7.64-0.47,11.43
	c-2.82,1.24-5.83,1.87-8.899,2.07c0.989,1.34,2.039,3.39,4.049,3c2.021-0.02,3.58-1.42,5.25-2.37c-0.529,1.61-0.899,3.6-2.789,4.1
	c-6.41,1.27-14.621-5.81-10.771-12.43c1.27,1.9,1.88,4.11,2.51,6.28c0.95-0.64,2.07-1.13,2.77-2.09c-0.54-5.3-3-10.14-4.5-15.19
	c1.38-4.97,4.92-9,6.72-13.82c1.94-4.52,2.46-9.56,1.89-14.42c2.471,0.86,4.98,0.82,7.26-0.55c0.101-0.83,0.281-2.5,0.371-3.33
	c-8.131-1.94-16.3-4.15-24.721-4.31c-7.64-0.3-15.18,1.68-22.28,4.32c-8.29,4.75-12.71,13.72-19.56,20.08
	c7.06,5.06,15.29,8.05,23.8,9.55c3.43,3.66,4.05,9.7,8.88,12.1c2.28,1.28,4.89,0.48,7.3,0.12c-1.04,1.23-2.26,2.97-4.12,2.59
	c-2.98-0.49-5.44-2.47-8.12-3.75c0.53,1.54,0.57,3.08,0.11,4.62c2.35,3.26,5.43,5.84,8.35,8.55c1.75,1.57,3.02,3.83,5.39,4.57
	c0.34-1.87-0.1-3.7-0.6-5.49c2.02,0.7,1.95,3.29,3.46,4.59c2.18-4.16-0.64-8.3-1.89-12.22c5.34,2.5,4.05,11.16,10.27,12.26
	c-1.02,3.45-4.86,0.3-6.32-1.28c-5.4,14.92-10.47,30.49-20.67,42.94c-3.61,3.79-7.05,8.27-12.12,10.13
	c2.07-1.989,4.67-3.35,6.46-5.63c-2.96-0.689-5.22,1.65-7.61,2.9c-1.71-0.45-2.29-1.84-2.49-3.461c7.91-0.51,17.74-4.1,19.35-12.909
	c-4.61,2.439-7.85,6.59-11.12,10.53c-6.21,2.18-13.49,1.649-18.95-2.211c-8.26-5.709-12.93-15.59-14.03-25.39
	c-1.12-8.55,4.51-15.9,9.75-22c3.66-3.78,8.04-8.11,13.71-7.86c5.11-0.03,9.93,1.86,14.76,3.29c-5.61-10.85-16.77-19.28-29.33-19.08
	c-7.56,8.97-15.64,17.96-19.83,29.1c-0.36,3.25-0.14,6.59-1.1,9.76c-1.07,4.78-3.91,8.96-4.94,13.73
	c-0.42,6.36-0.94,12.75-0.36,19.12c0.68,19.461,6.61,38.141,11.41,56.851c0.52,2.95,3.17,4.649,4.92,6.85
	c6.39,7.45,12.97,14.97,21.26,20.37c5.54,3.61,11.85,5.95,18.34,7.08c-3.2,2.9-6.87-1.359-10.31-1.62
	c-1.88,2.94-4.03-0.35-6.02-1.36c-1.57-1.129-3.62,0.701-5.23-0.459c-13.77-7.961-25.05-20.28-31.3-34.95
	c-6.81-15.271-8.66-32.23-8.5-48.8c-13.72-8.92-17.88-29.5-8.67-43.03c5.55-2.4,9.46-8.13,15.99-8.15c2.67-1.87,4.19-5.1,6.25-7.63
	c4.46-6.2,8.6-12.62,13.07-18.82c-4.66-0.14-9.27,0.56-13.87,1.18c0.11-1.25,0.24-2.49,0.4-3.74c-0.57-0.56-1.13-1.13-1.69-1.7
	c6.66-2.81,13.95-1.27,20.86-0.6c1.63-2.3,2.9-4.81,3.89-7.44c-3.24-8.21-5.18-16.87-8.49-25.06c9.35-2.72,19.18-3.35,28.46-6.29
	C76.54,9.94,82.06,6.6,84.47,0.99 M86.43,4.76c-0.63,2.03-1.42,4.17-0.72,6.3c0.87,1.83,2.96,1.35,4.6,1.5
	c1.2-2.46,0.82-5.11,0.02-7.61C89.36,4.9,87.4,4.81,86.43,4.76 M91.72,22.68c9.82-1.11,18.91,4.26,28.719,3.18
	c0.42-4.04,2.221-7.69,3.961-11.29C113.6,17.67,102.25,18.57,91.72,22.68 M125.75,14.8c1.83,3.95-0.939,8.89,2.141,12.31
	c3.84-3.15,6.68-7.29,10.439-10.51C134.12,16.07,130.061,13.38,125.75,14.8 M120.811,37.71c2.619-2.41,4.039-6.51,1.35-9.43
	C122,31.49,117.83,34.86,120.811,37.71 M164.33,33.45c3.63,8.61,11.949,13.84,16.65,21.76C185.971,44.67,175.48,31.98,164.33,33.45
	 M115.1,37.44c-0.729,2.51-1.039,5.14-0.31,7.7C115.57,42.78,117.51,39.36,115.1,37.44 M46.17,89.48c3.76,0.24,8.87,0.74,10.33,4.91
	c2.02,6.84-4.51,13.29-11.11,13.56c0.41,6.67,1.77,14.89,8.38,18.229c6.27,2.62,13.06-0.71,18.12-4.41
	c8.47-6.5,15.47-16.01,16.36-26.919c-3.48-2.78-4.22-7.31-6.19-11.01C72.1,73.52,52.23,76.09,46.17,89.48 M11.95,92.93
	c-4.18,5.8-7.99,12.77-7.06,20.16c0.65,4.641,4.78,7.43,8.77,9.11c0.26-11.81,5.81-22.74,5.96-34.54
	C16.01,87.27,13.96,90.54,11.95,92.93 M45.06,95.19c-2.72,1.64-2.84,5.21-2.68,8.03c2.71,0.21,5.9,0.37,8.01-1.67
	c1.7-1.7,1.9-4.21,1.52-6.45C49.69,94.55,47.14,93.78,45.06,95.19 M196.359,98.94c1.511,5.03-1.119,11.31,3.42,15.16
	c0.291-2.99-3.26-6.649-0.159-8.78C198.74,103.09,197.75,100.9,196.359,98.94 M23.92,174.939c-1.32,2.92,0.84,5.541,3.66,6.271
	C26.15,179.22,26.16,176.29,23.92,174.939z"/>
<path fill="#F5F5F5" d="M86.43,4.76c0.97,0.05,2.93,0.14,3.9,0.19c0.8,2.5,1.18,5.15-0.02,7.61c-1.64-0.15-3.73,0.33-4.6-1.5
	C85.01,8.93,85.8,6.79,86.43,4.76z"/>
<path fill="#FDFDFD" d="M91.72,22.68c10.53-4.11,21.879-5.01,32.68-8.11c-1.74,3.6-3.541,7.25-3.961,11.29
	C110.63,26.94,101.54,21.57,91.72,22.68z"/>
<path fill="#FCFCFC" d="M125.75,14.8c4.311-1.42,8.37,1.27,12.58,1.8c-3.76,3.22-6.6,7.36-10.439,10.51
	C124.811,23.69,127.58,18.75,125.75,14.8z"/>
<path fill="#FDFDFD" d="M120.811,37.71c-2.98-2.85,1.189-6.22,1.35-9.43C124.85,31.2,123.43,35.3,120.811,37.71z"/>
<path fill="#FBFBFB" d="M164.33,33.45c11.15-1.47,21.641,11.22,16.65,21.76C176.279,47.29,167.96,42.06,164.33,33.45z"/>
<path fill="#FDFDFD" d="M115.1,37.44c2.41,1.92,0.471,5.34-0.31,7.7C114.061,42.58,114.37,39.95,115.1,37.44z"/>
<path fill="#010101" d="M134.561,53.38c2.459-1.41,1.18-4.75,2.91-6.74c7.689-0.74,15.869,0.85,21.819,6.04
	c9.16,7.77,13.37,19.39,19.26,29.51c3.54,4.64,2.8,11.15,0.729,16.26c-2.039,4.84-6.869,7.36-11.239,9.72
	c2.88,1.46,5.96,0.01,8.96-0.05c1.2-0.18,1.87,0.35,2.01,1.6c-9.21-0.72-18.199,3.271-27.369,1.73
	c-3.771-2.23-7.311-5.74-12.141-4.69c3.48,2.55,7.41,4.56,11.6,5.65c1.18,0.63,3.461-0.25,3.91,1.359l-0.39,0.58
	c-1.57,0.92,0.37,2.351,1.3,2.641c1.48,0.869,2.95-0.42,4.17-1.131c-1.3-0.27-3.26,0.131-3.119-1.789l0.26-0.561
	c3.35,0.1,6.709,0.29,10.06-0.01c-0.36,0.891-0.729,1.78-1.09,2.67c8.31,4.46,15.38,10.88,22.04,17.48
	c-2.73-0.58-5.471-1.41-7.61-3.301c2.7,5.431,4.8,11.15,7.601,16.541c-2.61,6.39-0.221,13.439-2.271,19.89
	c-1.47,4.12-5.61,6.739-9.89,7c-6.551,0.93-13.801,0.09-19.551,4.02c-8.619,5.25-12.51,16.06-22.18,19.851
	c-0.01-0.291-0.05-0.891-0.07-1.181c6.061-7.159,13.91-12.54,20.03-19.63c-11.37,6.471-21.14,15.41-32.7,21.58
	c-4.399,2.52-9.18,4.24-13.91,5.99c-0.489,1.08-0.969,2.17-1.439,3.26c-4.44-0.05-8.81-0.87-13.22-1.21
	c-9.19-1.01-18.83-1.94-26.86-6.96c2.52-8.91,7.49-16.83,10.91-25.38c2.92-7.31,5.2-15.14,4.43-23.101
	C80.07,136.71,85.7,122.01,96,112.03c3.98-3.79,8.33-7.34,13.2-9.93c9.1-2.76,18.63,0.58,26.7,4.83
	c-4.961-4.33-10.871-7.84-14.4-13.57c-3.18-4.72-3.75-10.76-2.82-16.27C120.52,67.47,126.67,59.03,134.561,53.38 M122.77,84.86
	c3.061,8.84,10.891,15.54,19.351,19.08c7.101,2.27,15.05,2.54,22.159,0.17c6.181-1.99,11.421-7.5,11.9-14.15
	c0.7-7.59-3.55-14.59-8.6-19.89c-1.52,0.89-1.57,3.01-2.439,4.42c-4.871,0.24-9.75-0.19-14.551-1.03
	c-1.01-1.68-2.42-3.29-2.449-5.35c-0.66-6.06,3.76-10.89,6.85-15.61C137.24,49.38,118.561,66.77,122.77,84.86 M153.79,58.89
	c-2.19,2.66-1.681,6.32-1.521,9.51c3.791,2.08,10.371,4.37,13.021-0.43c0.31-3.45-2.181-6.439-4.69-8.5
	C158.71,58.1,155.68,56.8,153.79,58.89 M104.17,108.79c1.95,3.91,3.53,8.81,7.85,10.69c1.26,0.81,2.44-0.461,3.58-0.871
	c0.08,1.541,0.67,2.91,1.7,4.07c0.91-1.14,2.24-2.149,2.33-3.729c0.649-4.54-0.12-9.24-2.06-13.39
	C112.85,105.18,108.23,106.42,104.17,108.79 M121.54,105.94c0.01,1.86,0.01,3.73-0.021,5.6c3.301,1.15,6.67,2.11,10.09,2.86
	c0.061-1.831,1.16-3.23,2.291-4.55C130.02,107.89,126.029,105.8,121.54,105.94 M150.641,109.17c0.529,0.27,1.6,0.83,2.129,1.11
	c4.09,0.32,8.9,1.13,12.471-1.37C160.37,108.99,155.46,108.19,150.641,109.17 M94.59,116.79c-0.22,5.101,2.1,13.43,8.65,12.479
	c0.48,1.221,0.97,2.44,1.46,3.66c4.85-2.25,3.989-8.109,4.28-12.5c-0.65-0.14-1.94-0.42-2.59-0.56c-0.341-2.55-0.431-5.89-3.17-7.11
	C99.73,111.61,96.64,114.28,94.59,116.79 M87.85,128.109c-0.68,4.061,1.51,7.65,2.65,11.381c1.72-1.471,2.82-3.85,5.5-3.561
	C96.36,131.09,91.08,130.109,87.85,128.109 M132.95,155.55c-2.14,0.23-4.38,0.271-6.341-0.75c-1.869-0.68-4.379-2.239-6.09-0.42
	c-7.85,6.59-7.029,18.181-13.229,25.84c-3.2,4.2-10.07,4.66-11.44,10.36c1.48,1,2.96,2.02,4.44,3.029
	c1.07-11.77,15.86-19.469,25.88-12.799c0.35-5.431,2.77-11.03,7.551-13.94c4.409-2.84,10.329-2.09,14.549,0.771
	c1.19-4.98,3.15-10.761,8.57-12.49c-1.43-4.381-4.811-8.681-9.75-8.971C140.85,145.13,134.67,149.609,132.95,155.55 M167.42,154.109
	c0.42,2.171,1.38,4.49,0.311,6.631c-1.23,2.859-2.57,5.74-2.44,8.93c5.66,1.061,12.51,0.77,16.819-3.52
	c2.24-2.17,1.451-5.59,0.141-8.021c-0.76,0.57-1.46,1.229-2.24,1.79c-2.98-1.13-4.119-4.41-6.449-6.29
	C171.51,153.29,169.43,153.65,167.42,154.109 M146.55,173.439c-3.61,1.17-2.09-5.52-6-5c-0.35,1.541-0.659,3.091-0.95,4.65
	c-0.24,0.15-0.729,0.471-0.97,0.63c-0.03-1.45-0.06-2.909-0.11-4.36c-2.029,0.701-4.01,1.58-6.109,2.101
	c2.119,1.76,2.15,4.41,0.71,6.649c-1.46-1.359-1.04-3.459-1.63-5.189c0.3,5.78-2.311,11.12-2.44,16.83
	c12.091-5.65,20.671-17.73,34.36-20.08c0.02-2.73,0-5.46,0.1-8.189c-0.63-0.041-1.88-0.121-2.51-0.16
	c-0.79-1.141-1.59-2.28-2.42-3.391C152.18,161.08,152.391,169.84,146.55,173.439 M117.41,180.83c0.24,1.77-0.221,3.22-1.37,4.32
	c0.05-1.83-0.64-3.24-2.069-4.24c-0.031,1.05-0.091,3.15-0.121,4.199c-0.81-1.209-1.399-2.629-2.689-3.409
	c-0.221,2.159,0.66,4.68-0.86,6.54c-0.34-1.521-0.659-3.051-0.96-4.57c-4.43,5.08-4.67,12.221-8.51,17.63
	c-2.76-2.36-5.88-4.399-7.94-7.47c-4.2,1.96-9.2,2.529-12.38,6.25c7.15,2.859,15.03,3.3,22.62,2.41
	c9.261-1.311,17.72-5.801,24.94-11.6C124.13,187.93,121.59,183.4,117.41,180.83z"/>
<path fill="#FFFFFF" d="M122.77,84.86c-4.209-18.09,14.471-35.48,32.221-32.36c-3.09,4.72-7.51,9.55-6.85,15.61
	c0.029,2.06,1.439,3.67,2.449,5.35c4.801,0.84,9.68,1.27,14.551,1.03c0.869-1.41,0.92-3.53,2.439-4.42c5.05,5.3,9.3,12.3,8.6,19.89
	c-0.479,6.65-5.72,12.16-11.9,14.15c-7.109,2.37-15.059,2.1-22.159-0.17C133.66,100.4,125.83,93.7,122.77,84.86z"/>
<path fill="#FDFDFD" d="M153.79,58.89c1.89-2.09,4.92-0.79,6.81,0.58c2.51,2.061,5,5.05,4.69,8.5c-2.649,4.8-9.229,2.51-13.021,0.43
	C152.109,65.21,151.6,61.55,153.79,58.89z"/>
<path fill="#FFFFFF" d="M46.17,89.48c6.06-13.39,25.93-15.96,35.89-5.64c1.97,3.7,2.71,8.23,6.19,11.01
	c-0.89,10.91-7.89,20.419-16.36,26.919c-5.06,3.7-11.85,7.03-18.12,4.41c-6.61-3.34-7.97-11.56-8.38-18.229
	c6.6-0.27,13.13-6.72,11.11-13.56C55.04,90.22,49.93,89.72,46.17,89.48z"/>
<path fill="#FDFDFD" d="M11.95,92.93c2.01-2.39,4.06-5.66,7.67-5.27c-0.15,11.8-5.7,22.73-5.96,34.54
	c-3.99-1.681-8.12-4.47-8.77-9.11C3.96,105.7,7.77,98.73,11.95,92.93z"/>
<path fill="#010101" d="M115.311,90.98c-0.201-0.96,0.119-1.73,0.969-2.29c0.811,2.01,1.601,4.02,2.451,6.02
	c0.319-0.77,0.97-2.32,1.289-3.1c0.69,2.34,1.381,4.71,1.67,7.14C118.84,96.94,115.76,94.59,115.311,90.98z"/>
<path fill="#FDFDFD" d="M45.06,95.19c2.08-1.41,4.63-0.64,6.85-0.09c0.38,2.24,0.18,4.75-1.52,6.45c-2.11,2.04-5.3,1.88-8.01,1.67
	C42.22,100.4,42.34,96.83,45.06,95.19z"/>
<path fill="#FDFDFD" d="M196.359,98.94c1.391,1.96,2.381,4.15,3.261,6.38c-3.101,2.13,0.45,5.79,0.159,8.78
	C195.24,110.25,197.87,103.97,196.359,98.94z"/>
<path fill="#030303" d="M90.81,115.91c2.17-7.63,9.37-12.31,15.911-15.96C102.05,105.92,94.35,108.91,90.81,115.91z"/>
<path fill="#FDFDFD" d="M104.17,108.79c4.061-2.37,8.68-3.61,13.4-3.23c1.939,4.15,2.709,8.85,2.06,13.39
	c-0.09,1.58-1.42,2.59-2.33,3.729c-1.03-1.16-1.62-2.529-1.7-4.07c-1.14,0.41-2.32,1.681-3.58,0.871
	C107.7,117.6,106.12,112.7,104.17,108.79z"/>
<path fill="#FBFBFB" d="M121.54,105.94c4.489-0.14,8.479,1.95,12.36,3.91c-1.131,1.32-2.23,2.72-2.291,4.55
	c-3.42-0.75-6.789-1.71-10.09-2.86C121.55,109.67,121.55,107.8,121.54,105.94z"/>
<path fill="#FEFEFE" d="M150.641,109.17c4.819-0.98,9.729-0.18,14.6-0.26c-3.57,2.5-8.381,1.69-12.471,1.37
	C152.24,110,151.17,109.44,150.641,109.17z"/>
<path fill="#FEFEFE" d="M94.59,116.79c2.05-2.51,5.14-5.18,8.63-4.03c2.74,1.221,2.83,4.561,3.17,7.11
	c0.649,0.14,1.939,0.42,2.59,0.56c-0.291,4.391,0.569,10.25-4.28,12.5c-0.49-1.22-0.98-2.439-1.46-3.66
	C96.69,130.22,94.37,121.891,94.59,116.79z"/>
<path fill="#FDFDFD" d="M87.85,128.109c3.23,2,8.51,2.98,8.15,7.82c-2.68-0.289-3.78,2.09-5.5,3.561
	C89.36,135.76,87.17,132.17,87.85,128.109z"/>
<path fill="#030303" d="M188.26,129.48c0.34-0.08,1.02-0.24,1.36-0.32c1.94,2.21,3.56,4.76,6.05,6.42
	c-0.68,2.55-0.061,5.15,0.07,7.73C193.15,138.73,192.811,132.78,188.26,129.48z"/>
<path fill="#FEFEFE" d="M132.95,155.55c1.72-5.94,7.899-10.42,14.14-9.37c4.939,0.29,8.32,4.59,9.75,8.971
	c-5.42,1.729-7.38,7.51-8.57,12.49c-4.22-2.86-10.14-3.61-14.549-0.771c-4.781,2.91-7.201,8.51-7.551,13.94
	c-10.02-6.67-24.81,1.029-25.88,12.799c-1.48-1.01-2.96-2.029-4.44-3.029c1.37-5.7,8.24-6.16,11.44-10.36
	c6.2-7.659,5.38-19.25,13.229-25.84c1.711-1.819,4.221-0.26,6.09,0.42C128.57,155.82,130.811,155.78,132.95,155.55z"/>
<path fill="#FEFEFE" d="M167.42,154.109c2.01-0.459,4.09-0.819,6.141-0.479c2.33,1.88,3.469,5.16,6.449,6.29
	c0.78-0.561,1.48-1.22,2.24-1.79c1.311,2.431,2.1,5.851-0.141,8.021c-4.31,4.289-11.159,4.58-16.819,3.52
	c-0.13-3.189,1.21-6.07,2.44-8.93C168.8,158.6,167.84,156.28,167.42,154.109z"/>
<path fill="#FDFDFD" d="M146.55,173.439c5.841-3.6,5.63-12.359,12.03-15.51c0.83,1.11,1.63,2.25,2.42,3.391
	c0.63,0.039,1.88,0.119,2.51,0.16c-0.1,2.729-0.08,5.459-0.1,8.189c-13.689,2.35-22.27,14.43-34.36,20.08
	c0.13-5.71,2.74-11.05,2.44-16.83c0.59,1.73,0.17,3.83,1.63,5.189c1.44-2.239,1.409-4.89-0.71-6.649
	c2.1-0.521,4.08-1.399,6.109-2.101c0.051,1.451,0.08,2.91,0.11,4.36c0.24-0.159,0.729-0.479,0.97-0.63
	c0.291-1.56,0.601-3.109,0.95-4.65C144.46,167.92,142.939,174.609,146.55,173.439z"/>
<path fill="#030303" d="M68.36,174.859c1.15,0.061,2.45-0.159,3.38,0.681c-0.4,0-1.2,0-1.6,0c-1.07,2.36-0.94,6.729-4.02,7.42
	c0.57-1.74,1.44-3.37,2.36-4.96C68.45,177.22,68.39,175.65,68.36,174.859z"/>
<path fill="#FCFCFC" d="M23.92,174.939c2.24,1.351,2.23,4.28,3.66,6.271C24.76,180.48,22.6,177.859,23.92,174.939z"/>
<path fill="#FDFDFD" d="M117.41,180.83c4.18,2.57,6.72,7.1,10.66,10.061c-7.221,5.799-15.68,10.289-24.94,11.6
	c-7.59,0.89-15.47,0.449-22.62-2.41c3.18-3.721,8.18-4.29,12.38-6.25c2.06,3.07,5.18,5.109,7.94,7.47
	c3.84-5.409,4.08-12.55,8.51-17.63c0.301,1.52,0.62,3.05,0.96,4.57c1.521-1.86,0.64-4.381,0.86-6.54c1.29,0.78,1.88,2.2,2.689,3.409
	c0.03-1.049,0.09-3.149,0.121-4.199c1.43,1,2.119,2.41,2.069,4.24C117.189,184.05,117.65,182.6,117.41,180.83z"/>
<path fill="#030303" d="M140.37,197.07c3.5-2.461,6.88-5.15,10.69-7.141c-2.601,3.19-5.94,5.711-9.621,7.53
	C141.17,197.359,140.63,197.17,140.37,197.07z"/>
</svg>
