<?xml version="1.0" encoding="utf-8"?>
<!-- Generator: Adobe Illustrator 15.0.2, SVG Export Plug-In . SVG Version: 6.00 Build 0)  -->
<!DOCTYPE svg PUBLIC "-//W3C//DTD SVG 1.1//EN" "http://www.w3.org/Graphics/SVG/1.1/DTD/svg11.dtd">
<svg version="1.1" id="Layer_1" xmlns="http://www.w3.org/2000/svg" xmlns:xlink="http://www.w3.org/1999/xlink" x="0px" y="0px"
	 width="269px" height="240px" viewBox="0 0 269 240" enable-background="new 0 0 269 240" xml:space="preserve">
<path fill="#FFFFFF" d="M0,0h269v240H0V0 M106.06,4.55c-6.42,1.23-13.21,1.07-19.13,4.23c-7.48,4.11-16.42,4.189-23.91,8.229
	c-9.39,7.97-16.31,18.35-25.12,26.91c-3.23-0.12-6.45-0.31-9.66-0.58c0.66,1.09,1.3,2.19,1.94,3.29c-4.82-0.11-9.65-0.12-14.48,0
	c0.01,0.99,0.03,2.98,0.04,3.98c5.09-0.47,10.17-1.12,15.28-1.31c-4.32,7.31-8.79,14.81-15.25,20.46
	c-0.27-3.46-0.15-7.34-2.57-10.14c-0.14,4.81,0.23,9.64-0.05,14.45c-0.89,3.69-3.85,6.39-5.07,9.96c-1.71,3.25-2.14,6.96-1.61,10.58
	c0.45-0.08,1.34-0.24,1.79-0.32c0.96-2.22,1.47-4.84,3.46-6.42c-0.25,3.26-2.44,6.25-1.46,9.58c1.08,0,2.17,0,3.26,0.01
	c1.92-8.17-0.36-17.8,5.2-24.8c7.34-7.99,15.44-15.48,20.9-24.97c-0.24,1.78,0.22,3.71,2.34,3.83c3.93,1.16,7.91,2.14,11.75,3.57
	c-0.03,0.47-0.1,1.41-0.13,1.88L54,55.52c7.48,3.95,13.42,10.2,18.17,17.1c-8.09-0.59-17.28-2.95-24.46,2.15
	c-5.1,3.54-12.63,5.87-13.95,12.78c-1.18,6.17-4.68,12.56-2.11,18.85c2.77,5.6,3.02,11.97,3.05,18.1c3.48,3.54,6.99,7.24,11.38,9.67
	c6.25,0.86,12.66,0.689,18.95,0.16c4.76-1.78,8.1-6.24,9.2-11.12c-3.67,1.96-6.73,4.84-9.34,8.04c-4.89,0.43-9.84,0.811-14.73,0.23
	c-5.49-0.61-9.76-4.851-12.2-9.551c-1.71-4.479-1.58-9.36-2.13-14.06c4.72-0.75,10.04-1.58,13.19-5.59
	c4.21-3.76,1.11-12.93-4.96-12.04c-2.47,0.1-5.28-0.58-7.25,1.38c-0.44-0.57-0.88-1.14-1.31-1.72c4.2-8.36,13.28-12.55,21.56-15.81
	c7.73-1.37,16.06,1.75,21.63,7.2c2.57,3.32,3.85,7.45,5.19,11.39c2.49-0.02,4.98-0.1,7.46-0.24c0.92,2.25-0.4,4.41-1.08,6.51
	c-2.03,5.59-5.5,10.54-9.55,14.85c-2.01,2.49-4.65,4.93-4.73,8.37c3.34-1.41,5.81-4.16,7.8-7.11c2.38-3.58,6.02-6.28,7.5-10.44
	c2.71-5.84,2.61-12.38,2.89-18.68c-0.45,0.45-1.35,1.36-1.8,1.81c-1.13-2.76-3.77-4.3-5.85-6.25c-6.68-6.03-13.11-12.34-19.34-18.83
	c2.87-1.09,5.9-1.64,8.9-2.26c-0.86-2.53-2.2-4.92-4.03-6.87c-10.28-0.99-20.29-3.85-29.71-8.01c3.81-6.4,9.91-10.89,14.42-16.73
	c4.6-5.71,10.63-11.27,18.29-11.95c7.94-0.81,15.94-1.15,23.92-1.11c8.04,0.01,15.63,3.47,23.7,3.16c-0.6,2.37-1.22,4.74-1.95,7.08
	c-2.5-0.48-4.96-1.16-7.39-1.92c0.69,7.5-1.63,14.89-4.62,21.68c-0.34,1.41-3.61,2.479-1.34,3.81c-1.13,4.38-3.15,8.93-2.23,13.5
	c1.91,4.57,4.98,9.52,2.64,14.57c2.16-0.12,4.31-0.24,6.46-0.38c0.01-1.7,0.02-3.4,0.02-5.09c0.62,1.39,1.33,2.74,2.43,3.82
	c-0.49,1.87,1.62,1.811,2.89,1.65c0.45,1.38,1.22,2.52,2.78,2.76c0.96,5.56,5.49,9.45,8.43,14c3.3,5.81,9.239,9.49,15.19,12.15
	c11.029,4.46,23.369,5.04,34.99,2.89l-0.841,1.05c-0.649,0.4-1.29,0.79-1.94,1.19c1.761,0.59,3.521,1.18,5.281,1.77
	c-6.721,9.46-8.061,21.25-10.591,32.259c6.341-0.069,13.56,2.101,19.14-1.959c5.721-3.67,11.771-6.771,17.49-10.44
	c0.17,1.26-0.25,4.8,1.85,3.021c0.42-2.41-0.029-4.99,0.971-7.341c0.4,1.94,1.359,4.811,3.811,3.15
	c2.59,9.61,1.989,19.7,2.029,29.56c-0.85,5.09-0.58,10.32-0.25,15.45c0.54,0.34,1.62,1.021,2.16,1.36
	c0.09,5.109,0.05,10.229,0.09,15.34c-10.24,13.109-12.52,30.1-18.67,45.14c1.4-0.079,2.79-0.17,4.2-0.25
	c3.34-9.78,7.84-19.11,11.739-28.68c1.121-2.89,3.23-5.271,4.351-8.17c3.44-7.06,4.11-15.09,4.05-22.84
	c-0.119-1.53,0.301-3.521-1.47-4.25c-0.091,0.71-0.25,2.14-0.33,2.85c-0.511-0.03-1.53-0.08-2.04-0.11
	c-0.17-6.83-0.25-13.67-0.109-20.5c0.889-14.689-1.291-29.33-0.66-44.02c0.439-2.14-0.84-3.74-2.291-5.09
	c-1.16-6.39-3.629-12.57-6.629-18.3c-1.311-3.06-5.551-4.49-5.19-8.13c-2.13-3.4-4.601-6.58-6.649-10.01
	c-2.341-5.67-3.811-11.689-4.201-17.81c-3.869-3.8-4.35-9.79-8.52-13.36c-4.85-4.25-7.641-10.23-12.12-14.82
	c-5.43-6.62-12.521-11.52-19.159-16.8c1.18-1.69,2.379-3.36,3.619-5.02c-3.311,0.18-6.689,0.75-9.98,0.07
	C135.939-1.44,120.27,0.69,106.06,4.55 M227.45,69.22c0.11,2.38,0.229,4.75,0.42,7.12c1.33-1.43,2.61-2.91,3.86-4.41
	c0.549,1.37,1.08,2.75,1.729,4.08c2.319-0.74,2.74-3.88,4.36-5.55c0.47,1.78,0.9,3.58,1.35,5.37c1.25-1.17,2.45-2.39,3.59-3.67
	c0.74,1.19,1.49,2.38,2.26,3.56c1.131-1.229,2.26-2.479,3.471-3.63c0.689,1.26,1.4,2.51,2.1,3.76c1.49-1.84,3.08-3.61,4.95-5.07
	c0.229,1.77,0.47,3.55,0.69,5.32c1.049-1.32,2.08-2.66,3.109-4.01c1.051,1.33,2.131,2.65,3.21,3.96c1.421-2.2,2.94-4.31,4.44-6.45
	C253.811,69.5,240.62,69.8,227.45,69.22 M227.51,82.53c0.1,2.76,0.2,5.52,0.35,8.28c1.25-2.01,2.5-4.02,3.881-5.95
	c0.66,2.09,1.31,4.19,2.02,6.27c1.5-2.74,2.471-5.74,4.02-8.45C234.35,82.71,230.93,82.68,227.51,82.53 M238.029,82.7
	c0.721,2.71,1.08,5.5,1.4,8.28c1.03-2.12,2.09-4.23,3.16-6.33c1.45,1.59,2.18,3.64,2.85,5.65c0.82-2.11,1.83-4.15,3.221-5.95
	c0.58,2.03,1.109,4.09,1.71,6.12c1.899-2.32,2.51-5.46,4.819-7.52c1.17,2.29,0.851,4.88,0.791,7.35c1.549-1.7,3.149-3.34,4.85-4.89
	c0.4,1.75,0.8,3.51,1.23,5.25c1.729-2.53,3.189-5.23,4.609-7.94C257.12,82.69,247.58,82.83,238.029,82.7 M1.19,88.49
	c-0.77,3.44-0.31,7.02-0.37,10.52c0.08,19.271,0.03,38.54-0.01,57.811c0.3,9.51,3.43,18.6,4.56,27.99
	c3.81,7.909,9,15.17,12.28,23.359c0.94,10.57,3.92,20.95,8.85,30.35c1.32,0.16,2.65,0.33,3.97,0.49
	c-5.36-7.97-8.44-17.42-8.68-27.029c-0.03-1.33,0.55-1.98,1.74-1.95c2.33,3.45,4.21,7.2,6.71,10.55c3.33,4.8,9.09,6.811,14.22,9.05
	c5.41,2.229,9.82,6.38,15.4,8.261c-0.36-4.74-5.16-6.041-8.74-7.761c-5.23-3.34-11.51-4.88-16.28-8.97
	c-3.21-2.71-4.01-7.16-6.88-10.15c-1.69-2.189-4.09-3.9-5.32-6.38c-0.57-3.53-1.49-7.39-4.94-9.2c-0.2,1.84-0.34,3.7-0.5,5.551
	c-1.37-3.84-3.23-7.45-5.46-10.86c-1.27-2.28-3.27-4.29-3.53-7c-1.54-8.8-3.4-17.54-4.84-26.351c-1-23.149,0.53-46.339-0.65-69.489
	C2.34,87.58,1.58,88.19,1.19,88.49 M230.07,95.25c-0.4,2.78-0.58,5.58-0.521,8.39c2.89-0.95,5.9-1.05,8.78,0.03
	c0.6-1.5,1.199-3,1.8-4.49c-0.33-0.27-0.989-0.81-1.319-1.08c3.58-1.36-0.951-5.01-2.131-1.82
	C234.93,94.54,232.26,95.39,230.07,95.25 M242.939,94.88c-0.5,2.98-0.549,6.01-0.51,9.03c0.95-0.56,1.9-1.12,2.85-1.69
	c1.33,0.53,2.66,1.061,4,1.59c0.971-1.53,1.921-3.07,2.861-4.63c-0.48-0.14-1.44-0.43-1.92-0.58c0.18-0.43,0.529-1.3,0.699-1.74
	l0.12-0.84c-0.38-2.27-2.89-0.12-4.2-0.07C245.529,95.61,244.23,95.24,242.939,94.88 M255,104.15c0.971-1.96,1.721-4.01,2.29-6.11
	c-0.22-0.72-0.649-2.17-0.87-2.89C252.09,95.35,252.391,101.92,255,104.15 M259.35,101.56c0.601,0.05,1.811,0.17,2.41,0.23
	c0.75-2.04,2.08-4.91,0-6.61C258.26,95,259.01,99.3,259.35,101.56 M8.36,99.33c-1.91,5.01-3.75,10.24-3.59,15.68
	c0.18,12.021-0.12,24.051,0.13,36.061c0.86,5.72,3.49,11.039,3.84,16.869c0.51,6.771,4.18,12.641,5.86,19.11
	c1.1,2.82,0.99,6.771,4.18,8.21c0.15-7.04-2.39-13.79-4.81-20.29c-2.57-5.38-3.26-11.34-4.56-17.09c-0.66-3.34-2.74-6.34-2.6-9.819
	c-0.12-10.67,1.77-21.301,0.99-31.98c-0.94-6.12,3.63-11.52,2.58-17.66C9.87,98.65,8.86,99.1,8.36,99.33 M260.04,108.06
	c-0.399,2.48-0.771,4.95-1.2,7.42c-1.189-1.37-1.96-3.02-2.699-4.66c-0.091,2.03-0.091,4.07-0.121,6.1
	c3.69,0.05,7.371,0.3,11.061,0.45c0.34-1.84,0.71-3.69,1.04-5.54c-0.5,0.32-1.5,0.94-2,1.25
	C264.27,111.2,262.23,109.53,260.04,108.06 M238.721,116.83c4.129-0.19,4.449-5.95,2.27-8.54
	C237.65,109.9,238.32,113.82,238.721,116.83 M243.51,110.08c0.131,2.73,0.62,5.42,1,8.13c2.85-1.94,2.551-5.67,2.7-8.71
	c3.69,1.1,2,5.99,2.96,8.82c3.061-2.26,3.07-6.29,3-9.73C249.99,108.77,246.221,108.19,243.51,110.08 M239.25,121.92
	c-0.09,2.92-0.05,5.84,0.029,8.76c1.711-0.449,3.721-0.279,5.181-1.34c1.021-2.24,1.08-4.75,1.351-7.15
	c-0.601-0.02-1.811-0.039-2.42-0.049c-0.291,2.359-0.631,4.709-0.931,7.069C240.609,127.17,239.91,124.51,239.25,121.92
	 M249.09,122.12c-1.1,2.85-2.119,5.72-3.02,8.64c3.729,0.131,7.449,0.07,11.18,0.131c0.67-2.971,0.391-6.041,0.08-9.041
	c-1.811,1.67-1.801,4.36-2.53,6.561l-1.25,0.02c-0.26-1.68-0.55-3.34-0.92-4.99c0.12-0.289,0.36-0.859,0.49-1.149
	C251.77,122.24,250.43,122.18,249.09,122.12 M259.82,122.03c-0.07,2.899-0.08,5.8-0.12,8.7c1.479-0.2,2.979-0.391,4.47-0.59
	c0.1-2.311,0.25-4.621,0.41-6.931c-0.24,0.01-0.71,0.03-0.939,0.04c-0.25,1.85-0.49,3.7-0.801,5.54
	C261.359,126.76,260.57,124.391,259.82,122.03 M248.27,135.73c-0.31,2.699-0.31,5.42-0.22,8.129c4.63,0.061,9.261,0.11,13.88-0.109
	l0.291-0.141c1.409-0.14,2.829-0.26,4.25-0.459c1.34-1.721,1-4,0.409-5.931c-2.69-0.84-2.11,2.511-2.25,4.14
	c-0.87-2.289-1.909-4.93-4.56-5.56c-0.45,1.98-0.891,3.97-1.311,5.96c-0.689-2.17-1.49-4.38-3.39-5.82
	c-0.47,1.32-0.22,3.011-1.22,4.091c-0.17-0.62-0.5-1.88-0.67-2.5c-1.74,0.52-2.121,1.6-1.121,3.239c-0.449,0-1.35,0-1.799,0.011
	C249.87,139.061,249.12,137.37,248.27,135.73 M241.01,144.02c1.74-0.02,3.49-0.029,5.24-0.039c0.02-2.45-0.029-4.9-0.24-7.34
	c-1.029,1.5-1.98,3.06-2.83,4.67c-0.56-1.61-1.16-3.221-1.81-4.801C240.88,138.98,240.92,141.51,241.01,144.02 M249.87,149.8
	c-1.021,1.74-2.03,3.48-3.04,5.22c-0.79-2.1-1.359-4.479-3.49-5.649c-0.27,2.569-0.52,5.14-0.869,7.7
	c-2.101-1.61-2.181-4.5-2.98-6.82c-0.211,0.04-0.641,0.12-0.86,0.16c0.31,2.47,0.56,4.949,0.72,7.439
	c5.83-0.13,11.67-0.149,17.51,0.01c0.23-2.479,0.341-4.959,0.44-7.449c-0.18-0.03-0.55-0.08-0.739-0.11
	c-0.48,2.46-1.051,4.92-2.17,7.181c-0.431-2.65-0.65-5.32-0.871-7.99C252.3,149.6,251.09,149.71,249.87,149.8 M259.279,149.641
	c-0.17,3.079-0.139,6.159-0.1,9.239c1.84-0.09,3.68-0.18,5.53-0.271c0.13-3.049,0.229-6.109,0.011-9.149
	c-1.061,1.45-1.82,3.09-2.49,4.75C261.37,152.609,260.42,151.061,259.279,149.641 M263.12,170.02c-0.479-2.379-0.55-4.8-0.69-7.209
	c-2.35,0.939-3.68,3.709-2.14,5.97c1.01,2.62,3.899,2.96,6.33,3.1c0.069-3.31,0.159-6.62,0.069-9.94
	C264.96,164.38,264.91,167.77,263.12,170.02 M252.48,163.27c-0.4,2.33-0.561,4.83-2.221,6.69c-0.369-2.09-0.66-4.18-1.06-6.25
	c-0.88,2.41-0.44,5.021-0.431,7.53c3.4,0,6.811,0.06,10.211,0.21c-0.871-2.72-1.811-5.41-2.641-8.13
	C255.05,163.3,253.76,163.27,252.48,163.27 M241.34,163.58c-0.24,2.609-0.15,5.23-0.029,7.84c1.42-0.02,2.85-0.04,4.27-0.061
	c0.21-2.569,0.391-5.159,0.029-7.719c-0.709,2.1-1.33,4.219-2.049,6.31C242.061,168.16,242.46,165.58,241.34,163.58 M238.79,178.02
	c-0.011,2.261-0.03,4.511-0.06,6.78c1.649-0.04,3.319,0,4.97-0.239c1.729-1.631,1.649-4.351,2.36-6.5
	c-0.641,0.08-1.92,0.239-2.551,0.33c-0.47,1.379-0.939,2.75-1.42,4.129C240.971,181.04,239.891,179.52,238.79,178.02 M246.17,185.13
	c3.9,0.22,7.811,0.229,11.7-0.06c-0.04-2.461-0.101-4.91-0.3-7.36c-1.44,1.2-1.971,3.021-2.801,4.62c-0.229-0.25-0.689-0.75-0.91-1
	c0.031-1.66-0.189-3.32-2.219-3.55C247.34,177.34,247.05,182.12,246.17,185.13 M259.74,178.13c0,2.261-0.02,4.511-0.051,6.771
	c2.951-0.07,5.75-0.99,8.461-2.08c-1.45-1.65-2.95-3.24-4.521-4.771c-0.25,1.601-0.5,3.2-0.75,4.8
	C261.77,181.32,260.73,179.74,259.74,178.13z"/>
<path fill="#0A0A0A" d="M106.06,4.55c14.21-3.86,29.879-5.99,44.049-0.82c3.291,0.68,6.67,0.11,9.98-0.07
	c-1.24,1.66-2.439,3.33-3.619,5.02c6.639,5.28,13.729,10.18,19.159,16.8c4.479,4.59,7.271,10.57,12.12,14.82
	c4.17,3.57,4.65,9.56,8.52,13.36c0.391,6.12,1.86,12.14,4.201,17.81c2.049,3.43,4.52,6.61,6.649,10.01
	c-0.36,3.64,3.88,5.07,5.19,8.13c3,5.73,5.469,11.91,6.629,18.3c1.451,1.35,2.73,2.95,2.291,5.09
	c-0.631,14.689,1.549,29.33,0.66,44.02c-0.141,6.83-0.061,13.67,0.109,20.5c-1.16-0.08-2.32-0.17-3.471-0.239
	c-0.329-5.2-0.209-10.4-0.359-15.601c-0.04-9.859,0.561-19.949-2.029-29.56c-0.23-0.78-0.701-2.34-0.931-3.12
	c1.46-3.141,2.55-6.46,2.75-9.94c-0.649-0.54-1.29-1.09-1.931-1.64c0.341,2.2,0.341,4.41,0.011,6.61
	c-0.97-1.261-1.7-2.681-2.069-4.23c-2.361-10.44-9.57-19.62-8.91-30.74c3.42,2.72,2.729,7.47,4.549,11.06
	c2.431,5.14,5.74,10.1,6.221,15.93c0.51,0.16,1.52,0.47,2.029,0.63c-0.35-3.94,0.601-8.31-1.619-11.85
	c-2.35-4.45-4.84-8.83-6.67-13.53c-1.7-2.74-3.711-5.46-3.48-8.88c-0.33,0.16-0.99,0.49-1.32,0.65c0.5,1.78,0.771,3.61,0.78,5.47
	c-0.79-0.24-2.36-0.73-3.14-0.97c-2.439-6.97-4.34-14.34-9.04-20.23c-2.38-2.69,0.97-6.27-0.341-9.34c-2-6.02-7.02-10.4-9.569-16.17
	c-0.51,1.85-1.04,3.69-1.601,5.53c-1.1-3.26-1.789-6.65-3.1-9.84c-1.279-3.19-4.63-5.01-5.81-8.27c-0.931-2.02-1.229-4.47-3.03-5.96
	c-5.4-4.96-11.5-9.06-17.16-13.69c-3.58,2.42-7.1,5.02-9.789,8.45c2.42,0.31,4.859,0.52,7.25,1.01c0.029,0.66,0.09,1.97,0.119,2.63
	c-5.199,0.39-11.189-2.86-15.69,1c-5.04,5.18-2.66,12.88-3.45,19.28c-2.83,5.86-8.35,9.87-11.71,15.38
	c-2.13,5.97-1.88,12.42-2.8,18.62c-1.1-1.08-1.81-2.43-2.43-3.82c0,1.69-0.01,3.39-0.02,5.09c-2.15,0.14-4.3,0.26-6.46,0.38
	c2.34-5.05-0.73-10-2.64-14.57c-0.92-4.57,1.1-9.12,2.23-13.5c-2.27-1.33,1-2.4,1.34-3.81c2.99-6.79,5.31-14.18,4.62-21.68
	c2.43,0.76,4.89,1.44,7.39,1.92c0.73-2.34,1.35-4.71,1.95-7.08c-8.07,0.31-15.66-3.15-23.7-3.16c-7.98-0.04-15.98,0.3-23.92,1.11
	c-7.66,0.68-13.69,6.24-18.29,11.95c-4.51,5.84-10.61,10.33-14.42,16.73c9.42,4.16,19.43,7.02,29.71,8.01
	c1.83,1.95,3.17,4.34,4.03,6.87c-3,0.62-6.03,1.17-8.9,2.26c6.23,6.49,12.66,12.8,19.34,18.83c2.08,1.95,4.72,3.49,5.85,6.25
	c0.45-0.45,1.35-1.36,1.8-1.81c-0.28,6.3-0.18,12.84-2.89,18.68c-1.48,4.16-5.12,6.86-7.5,10.44c-1.99,2.95-4.46,5.7-7.8,7.11
	c0.08-3.44,2.72-5.88,4.73-8.37c4.05-4.31,7.52-9.26,9.55-14.85c0.68-2.1,2-4.26,1.08-6.51c-2.48,0.14-4.97,0.22-7.46,0.24
	c-1.34-3.94-2.62-8.07-5.19-11.39c-5.57-5.45-13.9-8.57-21.63-7.2C48.78,77.35,39.7,81.54,35.5,89.9c0.43,0.58,0.87,1.15,1.31,1.72
	c1.97-1.96,4.78-1.28,7.25-1.38c6.07-0.89,9.17,8.28,4.96,12.04c-3.15,4.01-8.47,4.84-13.19,5.59c0.55,4.7,0.42,9.58,2.13,14.06
	c2.44,4.7,6.71,8.94,12.2,9.551c4.89,0.58,9.84,0.199,14.73-0.23c2.61-3.2,5.67-6.08,9.34-8.04c-1.1,4.88-4.44,9.34-9.2,11.12
	c-6.29,0.529-12.7,0.7-18.95-0.16c-4.39-2.43-7.9-6.13-11.38-9.67c-0.03-6.13-0.28-12.5-3.05-18.1c-2.57-6.29,0.93-12.68,2.11-18.85
	c1.32-6.91,8.85-9.24,13.95-12.78c7.18-5.1,16.37-2.74,24.46-2.15c-4.75-6.9-10.69-13.15-18.17-17.1l-0.42,1.45
	c0.03-0.47,0.1-1.41,0.13-1.88c-3.84-1.43-7.82-2.41-11.75-3.57c-2.12-0.12-2.58-2.05-2.34-3.83c-5.46,9.49-13.56,16.98-20.9,24.97
	c-5.56,7-3.28,16.63-5.2,24.8c-1.09-0.01-2.18-0.01-3.26-0.01c-0.98-3.33,1.21-6.32,1.46-9.58c-1.99,1.58-2.5,4.2-3.46,6.42
	c-0.45,0.08-1.34,0.24-1.79,0.32c-0.53-3.62-0.1-7.33,1.61-10.58c1.22-3.57,4.18-6.271,5.07-9.96c0.28-4.81-0.09-9.64,0.05-14.45
	c2.42,2.8,2.3,6.68,2.57,10.14c6.46-5.65,10.93-13.15,15.25-20.46c-5.11,0.19-10.19,0.84-15.28,1.31c-0.01-1-0.03-2.99-0.04-3.98
	c4.83-0.12,9.66-0.11,14.48,0c-0.64-1.1-1.28-2.2-1.94-3.29c3.21,0.27,6.43,0.46,9.66,0.58c8.81-8.56,15.73-18.94,25.12-26.91
	c7.49-4.04,16.43-4.12,23.91-8.229C92.85,5.62,99.64,5.78,106.06,4.55 M131.33,3.48c-0.03,4.12-0.08,8.24-0.01,12.36
	c4.12,0.9,6.6-2.53,8.35-5.64c0.2,1.91,0.45,3.82,0.68,5.73c2.4-2.09,4.95-4.06,6.9-6.59c-2.01,0.55-4.029,1.06-6.109,1.24
	c0.08-2.63,2.219-4.27,3.76-6.11C140.391,3.91,135.859,3.66,131.33,3.48 M101.99,8.03C96.9,9.31,91.1,9,86.83,12.49
	c6.37,0.75,12.9-0.48,19.2,0.86c5.61,2.07,12,3.69,17.82,1.47c1.86-3.53,2.35-7.58,3.53-11.37C118.86,4.63,110.37,6.06,101.99,8.03
	 M126.3,13.43c-1.54,1.38,0.84,3.61,2.18,2.11C129.97,14.24,127.57,12.08,126.3,13.43 M130.78,18.85c-0.25,1.01-0.45,2.03-0.62,3.06
	c2.43,0.18,3.71-1.32,3.58-3.67C132.74,18.4,131.76,18.61,130.78,18.85 M122.84,28.54c1.43-0.67,3.36-0.66,4.44-1.91
	c0.27-2.6,0.29-5.22,0.4-7.84C123.52,20,124.12,25.24,122.84,28.54 M116.06,36.53c0.6-0.03,1.79-0.08,2.38-0.11
	c0.11-2.85,0.22-5.7,0.21-8.55C117.29,30.58,116.06,33.44,116.06,36.53 M121.24,43.04c3.01-3.77,4.51-8.42,5.2-13.13
	C122.16,32.78,121.5,38.32,121.24,43.04 M126.49,39.6c-1.65,0.05-2.5,2.55-2.03,3.94C126.65,46.98,130.56,39.26,126.49,39.6
	 M114.87,44.26c1.49-0.15,3.46,0.36,3.92-1.6c1.21-1.59,0.01-3.18-1.85-3.1C114.88,40.17,115.15,42.61,114.87,44.26 M118.92,47.88
	c2,0.36,4.58-1.56,2.7-3.46C119.36,43.7,118.24,46.04,118.92,47.88 M110.49,50.21c-1.85,2.56-2.89,5.61-2.81,8.78
	C111.43,58.29,113.07,52.95,110.49,50.21 M60.28,54.27c-1.24,1.46,1.39,2.65,2.17,1.2C63.63,54.04,61.07,52.92,60.28,54.27
	 M65.65,55.63c-0.21,0.94-0.38,1.89-0.54,2.84c1.62,0.59,3.3,0.94,5.03,0.87c0.14-0.95,0.28-1.91,0.42-2.86
	C69.05,55.64,67.36,54.73,65.65,55.63 M108.21,65.06c1.44,1.76,3.31,3.09,5.07,4.5c0.11-3.94,0.12-7.89-0.2-11.82
	C111.34,60.1,109.59,62.47,108.21,65.06 M85.64,87.97c-0.35,2.03,2.21,1.69,3.45,2.11c0.34-1.18,1.06-2.9-0.32-3.74
	C87.5,86.11,84.96,85.96,85.64,87.97 M34.84,91.67c-0.85,4.25-1.41,8.55-1.85,12.85c4.64-0.35,9.84-0.75,13.3-4.28
	c1.67-1.54,1.3-3.95,1.47-5.99C43.53,93.05,38.81,93.67,34.84,91.67z"/>
<path fill="#F5F5F5" d="M131.33,3.48c4.529,0.18,9.061,0.43,13.57,0.99c-1.541,1.84-3.68,3.48-3.76,6.11
	c2.08-0.18,4.1-0.69,6.109-1.24c-1.95,2.53-4.5,4.5-6.9,6.59c-0.229-1.91-0.479-3.82-0.68-5.73c-1.75,3.11-4.23,6.54-8.35,5.64
	C131.25,11.72,131.3,7.6,131.33,3.48z"/>
<path fill="#F8F8F8" d="M101.99,8.03c8.38-1.97,16.87-3.4,25.39-4.58c-1.18,3.79-1.67,7.84-3.53,11.37
	c-5.82,2.22-12.21,0.6-17.82-1.47c-6.3-1.34-12.83-0.11-19.2-0.86C91.1,9,96.9,9.31,101.99,8.03z"/>
<path fill="#FEFEFE" d="M142.971,18.05c2.689-3.43,6.209-6.03,9.789-8.45c5.66,4.63,11.76,8.73,17.16,13.69
	c1.801,1.49,2.1,3.94,3.03,5.96c1.18,3.26,4.53,5.08,5.81,8.27c1.311,3.19,2,6.58,3.1,9.84c0.561-1.84,1.091-3.68,1.601-5.53
	c2.55,5.77,7.569,10.15,9.569,16.17c1.311,3.07-2.039,6.65,0.341,9.34c4.7,5.89,6.601,13.26,9.04,20.23
	c0.779,0.24,2.35,0.73,3.14,0.97c-0.01-1.86-0.28-3.69-0.78-5.47c0.33-0.16,0.99-0.49,1.32-0.65c-0.23,3.42,1.78,6.14,3.48,8.88
	c1.83,4.7,4.32,9.08,6.67,13.53c2.22,3.54,1.27,7.91,1.619,11.85c-0.51-0.16-1.52-0.47-2.029-0.63
	c-0.48-5.83-3.79-10.79-6.221-15.93c-1.819-3.59-1.129-8.34-4.549-11.06c-0.66,11.12,6.549,20.3,8.91,30.74
	c-0.691,0.96-1.381,1.931-2.07,2.91c-1.44-1.16-2.92-2.27-4.41-3.35c-0.061-0.33-0.19-1-0.26-1.33
	c-6.51-2.84-13.201-5.66-20.36-6.271c-1.479-0.44-2.479,0.74-3.399,1.67c-1.761-0.59-3.521-1.18-5.281-1.77
	c0.65-0.4,1.291-0.79,1.94-1.19l0.841-1.05c6.479-3.12,12.539-8.79,13.02-16.39c1.199-6.13-1.631-11.8-3.79-17.33
	c-1.011-3.82-3.431-6.99-5.74-10.1c-2.2-2.84-3.51-6.36-6.36-8.66c-5.649-4.75-8.649-12.08-15.039-16.04
	c-5.25-2.81-11.431-2.04-17.141-1.74c-1.939-0.02-2.939,1.9-4.09,3.12c5.25-0.29,10.529-1.59,15.779-0.7
	c5.861,2.27,9.601,7.67,13.301,12.46c2.85,4.06,7.13,6.83,9.859,10.98c3.91,5.84,6.74,12.34,9.42,18.81
	c1.621,5.7,1.42,12.86-3.149,17.21c-3.3,3.62-7.899,6.76-13.021,6.38c-7.029-0.3-14.26,0.74-21.1-1.35
	c-5.55-2.02-10.99-4.66-15.48-8.56c-3.08-2.61-4.669-6.44-7.1-9.58c-1.69-2.43-4.01-4.35-5.67-6.81
	c-0.45-13.01,9.45-22.94,18.53-30.88c3.37-3.75,8.69-4.37,12.39-7.66c-8.21-1.65-14.27,5.37-19.63,10.41
	c-7.84,6.88-14.62,16.43-13.6,27.39c-1.56-0.24-2.33-1.38-2.78-2.76c-1.27,0.16-3.38,0.22-2.89-1.65c0.92-6.2,0.67-12.65,2.8-18.62
	c3.36-5.51,8.88-9.52,11.71-15.38c0.79-6.4-1.59-14.1,3.45-19.28c4.5-3.86,10.491-0.61,15.69-1c-0.029-0.66-0.09-1.97-0.119-2.63
	C147.83,18.57,145.391,18.36,142.971,18.05 M183.33,50.02c0.33,5.39,3.92,9.75,7.811,13.15C190.21,58.28,189.35,50.96,183.33,50.02
	 M158.391,53.32c0.01,5.06-0.33,10.12-0.19,15.19c5.159,0.92,9.899,4.11,15.271,3.64c2.819-1.36,6.199-3.45,5.289-7.14
	c-2.26,1.18-4.17,3.08-6.65,3.8c-3.739,0.15-7.299-1.21-10.83-2.22c-0.059-3.53,0.211-7.06,0.021-10.6
	C160.311,55.12,159.37,54.2,158.391,53.32z"/>
<path fill="#434343" d="M126.3,13.43c1.27-1.35,3.67,0.81,2.18,2.11C127.14,17.04,124.76,14.81,126.3,13.43z"/>
<path fill="#6A6A6A" d="M130.78,18.85c0.98-0.24,1.96-0.45,2.96-0.61c0.13,2.35-1.15,3.85-3.58,3.67
	C130.33,20.88,130.53,19.86,130.78,18.85z"/>
<path fill="#FBFBFB" d="M122.84,28.54c1.28-3.3,0.68-8.54,4.84-9.75c-0.11,2.62-0.13,5.24-0.4,7.84
	C126.2,27.88,124.27,27.87,122.84,28.54z"/>
<path fill="#F9F9F9" d="M116.06,36.53c0-3.09,1.23-5.95,2.59-8.66c0.01,2.85-0.1,5.7-0.21,8.55
	C117.85,36.45,116.66,36.5,116.06,36.53z"/>
<path fill="#F4F4F4" d="M121.24,43.04c0.26-4.72,0.92-10.26,5.2-13.13C125.75,34.62,124.25,39.27,121.24,43.04z"/>
<path fill="#CCCCCC" d="M126.49,39.6c4.07-0.34,0.16,7.38-2.03,3.94C123.99,42.15,124.84,39.65,126.49,39.6z"/>
<path fill="#050505" d="M141.83,42.28c1.15-1.22,2.15-3.14,4.09-3.12c5.71-0.3,11.891-1.07,17.141,1.74
	c6.39,3.96,9.39,11.29,15.039,16.04c2.851,2.3,4.16,5.82,6.36,8.66c2.31,3.11,4.729,6.28,5.74,10.1
	c2.159,5.53,4.989,11.2,3.79,17.33c-0.48,7.6-6.54,13.27-13.02,16.39c-11.621,2.15-23.961,1.57-34.99-2.89
	c-5.951-2.66-11.891-6.34-15.19-12.15c-2.94-4.55-7.47-8.44-8.43-14c-1.02-10.96,5.76-20.51,13.6-27.39
	c5.36-5.04,11.42-12.06,19.63-10.41c-3.699,3.29-9.02,3.91-12.39,7.66c-9.08,7.94-18.98,17.87-18.53,30.88
	c1.66,2.46,3.98,4.38,5.67,6.81c2.43,3.14,4.02,6.97,7.1,9.58c4.49,3.9,9.931,6.54,15.48,8.56c6.84,2.09,14.07,1.05,21.1,1.35
	c5.121,0.38,9.721-2.76,13.021-6.38c4.569-4.35,4.771-11.51,3.149-17.21c-2.68-6.47-5.51-12.97-9.42-18.81
	c-2.729-4.15-7.01-6.92-9.859-10.98c-3.7-4.79-7.439-10.19-13.301-12.46C152.359,40.69,147.08,41.99,141.83,42.28z"/>
<path fill="#4D4D4D" d="M114.87,44.26c0.28-1.65,0.01-4.09,2.07-4.7c1.86-0.08,3.06,1.51,1.85,3.1
	C118.33,44.62,116.36,44.11,114.87,44.26z"/>
<path fill="#EFEFEF" d="M118.92,47.88c-0.68-1.84,0.44-4.18,2.7-3.46C123.5,46.32,120.92,48.24,118.92,47.88z"/>
<path fill="#EFEFEF" d="M110.49,50.21c2.58,2.74,0.94,8.08-2.81,8.78C107.6,55.82,108.64,52.77,110.49,50.21z"/>
<path fill="#040404" d="M183.33,50.02c6.02,0.94,6.88,8.26,7.811,13.15C187.25,59.77,183.66,55.41,183.33,50.02z"/>
<path fill="#060606" d="M158.391,53.32c0.979,0.88,1.92,1.8,2.909,2.67c0.19,3.54-0.079,7.07-0.021,10.6
	c3.531,1.01,7.091,2.37,10.83,2.22c2.48-0.72,4.391-2.62,6.65-3.8c0.91,3.69-2.47,5.78-5.289,7.14
	c-5.371,0.47-10.111-2.72-15.271-3.64C158.061,63.44,158.4,58.38,158.391,53.32z"/>
<path fill="#4F4F4F" d="M60.28,54.27c0.79-1.35,3.35-0.23,2.17,1.2C61.67,56.92,59.04,55.73,60.28,54.27z"/>
<path fill="#F0F0F0" d="M65.65,55.63c1.71-0.9,3.4,0.01,4.91,0.85c-0.14,0.95-0.28,1.91-0.42,2.86c-1.73,0.07-3.41-0.28-5.03-0.87
	C65.27,57.52,65.44,56.57,65.65,55.63z"/>
<path fill="#F0F0F0" d="M108.21,65.06c1.38-2.59,3.13-4.96,4.87-7.32c0.32,3.93,0.31,7.88,0.2,11.82
	C111.52,68.15,109.65,66.82,108.21,65.06z"/>
<path fill="#604442" d="M227.45,69.22c13.17,0.58,26.36,0.28,39.54,0.38c-1.5,2.14-3.02,4.25-4.44,6.45
	c-1.079-1.31-2.159-2.63-3.21-3.96c-1.029,1.35-2.061,2.69-3.109,4.01c-0.221-1.77-0.461-3.55-0.69-5.32
	c-1.87,1.46-3.46,3.229-4.95,5.07c-0.699-1.25-1.41-2.5-2.1-3.76c-1.211,1.15-2.34,2.4-3.471,3.63c-0.77-1.18-1.52-2.37-2.26-3.56
	c-1.14,1.28-2.34,2.5-3.59,3.67c-0.449-1.79-0.88-3.59-1.35-5.37c-1.62,1.67-2.041,4.81-4.36,5.55
	c-0.649-1.33-1.181-2.71-1.729-4.08c-1.25,1.5-2.53,2.98-3.86,4.41C227.68,73.97,227.561,71.6,227.45,69.22z"/>
<path fill="#593F46" d="M227.51,82.53c3.42,0.15,6.84,0.18,10.27,0.15c-1.549,2.71-2.52,5.71-4.02,8.45
	c-0.71-2.08-1.359-4.18-2.02-6.27c-1.381,1.93-2.631,3.94-3.881,5.95C227.71,88.05,227.609,85.29,227.51,82.53z"/>
<path fill="#5C4449" d="M238.029,82.7c9.551,0.13,19.091-0.01,28.641,0.02c-1.42,2.71-2.88,5.41-4.609,7.94
	c-0.431-1.74-0.83-3.5-1.23-5.25c-1.7,1.55-3.301,3.19-4.85,4.89c0.06-2.47,0.379-5.06-0.791-7.35c-2.31,2.06-2.92,5.2-4.819,7.52
	c-0.601-2.03-1.13-4.09-1.71-6.12c-1.391,1.8-2.4,3.84-3.221,5.95c-0.67-2.01-1.399-4.06-2.85-5.65c-1.07,2.1-2.13,4.21-3.16,6.33
	C239.109,88.2,238.75,85.41,238.029,82.7z"/>
<path fill="#F6F6F6" d="M85.64,87.97c-0.68-2.01,1.86-1.86,3.13-1.63c1.38,0.84,0.66,2.56,0.32,3.74
	C87.85,89.66,85.29,90,85.64,87.97z"/>
<path fill="#070707" d="M1.19,88.49c0.39-0.3,1.15-0.91,1.53-1.21c1.18,23.15-0.35,46.34,0.65,69.489
	c1.44,8.811,3.3,17.551,4.84,26.351c0.26,2.71,2.26,4.72,3.53,7c2.23,3.41,4.09,7.021,5.46,10.86c0.16-1.851,0.3-3.711,0.5-5.551
	c3.45,1.811,4.37,5.67,4.94,9.2c1.23,2.479,3.63,4.19,5.32,6.38c2.87,2.99,3.67,7.44,6.88,10.15c4.77,4.09,11.05,5.63,16.28,8.97
	c3.58,1.72,8.38,3.021,8.74,7.761c-5.58-1.881-9.99-6.031-15.4-8.261c-5.13-2.239-10.89-4.25-14.22-9.05
	c-2.5-3.35-4.38-7.1-6.71-10.55c-1.19-0.03-1.77,0.62-1.74,1.95c0.24,9.609,3.32,19.06,8.68,27.029c-1.32-0.16-2.65-0.33-3.97-0.49
	c-4.93-9.399-7.91-19.779-8.85-30.35c-3.28-8.189-8.47-15.45-12.28-23.359c-1.13-9.391-4.26-18.48-4.56-27.99
	C0.85,137.55,0.9,118.28,0.82,99.01C0.88,95.51,0.42,91.93,1.19,88.49z"/>
<path fill="#FAFAFA" d="M34.84,91.67c3.97,2,8.69,1.38,12.92,2.58c-0.17,2.04,0.2,4.45-1.47,5.99c-3.46,3.53-8.66,3.93-13.3,4.28
	C33.43,100.22,33.99,95.92,34.84,91.67z"/>
<path fill="#A08982" d="M230.07,95.25c2.189,0.14,4.859-0.71,6.609,1.03c0.68,0.64,1.391,1.24,2.131,1.82
	c0.33,0.27,0.989,0.81,1.319,1.08c-0.601,1.49-1.2,2.99-1.8,4.49c-2.88-1.08-5.891-0.98-8.78-0.03
	C229.49,100.83,229.67,98.03,230.07,95.25z"/>
<path fill="#2F2F2F" d="M236.68,96.28c1.18-3.19,5.711,0.46,2.131,1.82C238.07,97.52,237.359,96.92,236.68,96.28z"/>
<path fill="#A2828A" d="M242.939,94.88c1.291,0.36,2.59,0.73,3.9,1.07c1.311-0.05,3.82-2.2,4.2,0.07c-1.931-1.55-2.3,2.18-0.12,0.84
	c-0.17,0.44-0.52,1.31-0.699,1.74c0.479,0.15,1.439,0.44,1.92,0.58c-0.94,1.56-1.891,3.1-2.861,4.63c-1.34-0.53-2.67-1.06-4-1.59
	c-0.949,0.57-1.899,1.13-2.85,1.69C242.391,100.89,242.439,97.86,242.939,94.88z"/>
<path fill="#583C3E" d="M255,104.15c-2.609-2.23-2.91-8.8,1.42-9c0.221,0.72,0.65,2.17,0.87,2.89
	C256.721,100.14,255.971,102.19,255,104.15z"/>
<path fill="#5A3F44" d="M259.35,101.56c-0.34-2.26-1.09-6.56,2.41-6.38c2.08,1.7,0.75,4.57,0,6.61
	C261.16,101.73,259.95,101.61,259.35,101.56z"/>
<path fill="#322421" d="M250.92,96.86c-2.18,1.34-1.811-2.39,0.12-0.84L250.92,96.86z"/>
<path fill="#060606" d="M8.36,99.33c0.5-0.23,1.51-0.68,2.02-0.91c1.05,6.14-3.52,11.54-2.58,17.66
	c0.78,10.68-1.11,21.311-0.99,31.98c-0.14,3.479,1.94,6.479,2.6,9.819c1.3,5.75,1.99,11.71,4.56,17.09
	c2.42,6.5,4.96,13.25,4.81,20.29c-3.19-1.439-3.08-5.39-4.18-8.21c-1.68-6.47-5.35-12.34-5.86-19.11
	c-0.35-5.83-2.98-11.149-3.84-16.869c-0.25-12.01,0.05-24.04-0.13-36.061C4.61,109.57,6.45,104.34,8.36,99.33z"/>
<path fill="#5A4041" d="M260.04,108.06c2.19,1.47,4.229,3.14,6.08,5.02c0.5-0.31,1.5-0.93,2-1.25c-0.33,1.85-0.7,3.7-1.04,5.54
	c-3.689-0.15-7.37-0.4-11.061-0.45c0.03-2.03,0.03-4.07,0.121-6.1c0.739,1.64,1.51,3.29,2.699,4.66
	C259.27,113.01,259.641,110.54,260.04,108.06z"/>
<path fill="#4E4043" d="M238.721,116.83c-0.4-3.01-1.07-6.93,2.27-8.54C243.17,110.88,242.85,116.64,238.721,116.83z"/>
<path fill="#5B4440" d="M243.51,110.08c2.711-1.89,6.48-1.31,9.66-1.49c0.07,3.44,0.061,7.47-3,9.73c-0.96-2.83,0.73-7.72-2.96-8.82
	c-0.149,3.04,0.149,6.77-2.7,8.71C244.13,115.5,243.641,112.81,243.51,110.08z"/>
<path fill="#2F2F2F" d="M183.471,113.43c0.92-0.93,1.92-2.11,3.399-1.67c7.159,0.61,13.851,3.43,20.36,6.271
	c0.069,0.33,0.199,1,0.26,1.33c0.14,0.76,0.42,2.291,0.56,3.05c-4.239-1.87-8.26-4.88-13.069-4.87c-3.32,1.17-5.891,3.72-8.84,5.56
	c-2.451,1.801-5.591,3.23-6.65,6.311c-1.12,3.49-0.891,7.21-1.051,10.82c2.34-0.16,4.681-0.351,7.011-0.601
	c0.5-3.33,0.94-6.67,1.22-10.021c3.73-1.34,7.13-3.81,11.07-4.469c3.609,3.17,7.46,5.979,11.77,8.149
	c-5.72,3.67-11.77,6.771-17.49,10.44c-5.58,4.06-12.799,1.89-19.14,1.959C175.41,134.68,176.75,122.891,183.471,113.43 M184,118.37
	c0.971,1.04,1.93,2.08,2.891,3.13c0.85-1.14,1.699-2.28,2.549-3.42c-0.129-0.81-0.39-2.41-0.52-3.21
	C186.33,114.42,185.02,116.33,184,118.37 M188.57,131.97c0.039,1.99,0.09,3.98,0.189,5.98c3.28-3.181,6.561-6.37,10.4-8.88
	C195.29,127.87,191.971,130.6,188.57,131.97 M193.49,137.57c0.939,1.63,2.75,0.59,4.08,0.21c-0.15-0.94-0.34-1.87-0.57-2.79
	C195.311,133.891,192.95,135.609,193.49,137.57 M186.221,140.141c0.239,1.31-0.021,3.1,1.739,3.399c1.3-0.34,2-1.181,2.09-2.51
	C188.87,140.391,187.51,140.359,186.221,140.141z"/>
<path fill="#090909" d="M184,118.37c1.02-2.04,2.33-3.95,4.92-3.5c0.13,0.8,0.391,2.4,0.52,3.21c-0.85,1.14-1.699,2.28-2.549,3.42
	C185.93,120.45,184.971,119.41,184,118.37z"/>
<path fill="#F4F4F4" d="M186.141,123.1c2.949-1.84,5.52-4.39,8.84-5.56c4.81-0.01,8.83,3,13.069,4.87
	c-0.14-0.76-0.42-2.29-0.56-3.05c1.49,1.08,2.97,2.19,4.41,3.35c0.689-0.979,1.379-1.95,2.07-2.91c0.369,1.55,1.1,2.97,2.069,4.23
	c0.33-2.2,0.33-4.41-0.011-6.61c0.641,0.55,1.281,1.1,1.931,1.64c-0.2,3.48-1.29,6.799-2.75,9.94c0.229,0.78,0.7,2.34,0.931,3.12
	c-2.451,1.66-3.41-1.21-3.811-3.15c-1,2.351-0.551,4.931-0.971,7.341c-2.1,1.779-1.68-1.761-1.85-3.021
	c-4.31-2.17-8.16-4.979-11.77-8.149c-3.94,0.659-7.34,3.129-11.07,4.469c-0.279,3.351-0.72,6.69-1.22,10.021
	c-2.33,0.25-4.671,0.44-7.011,0.601c0.16-3.61-0.069-7.33,1.051-10.82C180.55,126.33,183.689,124.9,186.141,123.1 M207.12,127.33
	c-1.78,0.48-1.04,3.64,0.86,2.8C210.1,129.67,209.04,126.641,207.12,127.33z"/>
<path fill="#47423F" d="M239.25,121.92c0.66,2.59,1.359,5.25,3.21,7.29c0.3-2.36,0.64-4.71,0.931-7.069
	c0.609,0.01,1.819,0.029,2.42,0.049c-0.271,2.4-0.33,4.91-1.351,7.15c-1.46,1.061-3.47,0.891-5.181,1.34
	C239.2,127.76,239.16,124.84,239.25,121.92z"/>
<path fill="#907C7E" d="M249.09,122.12c1.34,0.06,2.68,0.12,4.03,0.17c-0.13,0.29-0.37,0.86-0.49,1.149
	c-0.93,1.66-2.29,5.351,0.92,4.99l1.25-0.02c0.729-2.2,0.72-4.891,2.53-6.561c0.311,3,0.59,6.07-0.08,9.041
	c-3.73-0.061-7.45,0-11.18-0.131C246.971,127.84,247.99,124.97,249.09,122.12z"/>
<path fill="#504442" d="M259.82,122.03c0.75,2.36,1.539,4.729,3.02,6.76c0.311-1.84,0.551-3.69,0.801-5.54
	c0.229-0.01,0.699-0.03,0.939-0.04c-0.16,2.31-0.311,4.62-0.41,6.931c-1.49,0.199-2.99,0.39-4.47,0.59
	C259.74,127.83,259.75,124.93,259.82,122.03z"/>
<path fill="#2F2F2F" d="M253.55,128.43c-3.21,0.36-1.85-3.33-0.92-4.99C253,125.09,253.29,126.75,253.55,128.43z"/>
<path fill="#040404" d="M207.12,127.33c1.92-0.689,2.979,2.34,0.86,2.8C206.08,130.97,205.34,127.811,207.12,127.33z"/>
<path fill="#F6F6F6" d="M188.57,131.97c3.4-1.37,6.72-4.1,10.59-2.899c-3.84,2.51-7.12,5.699-10.4,8.88
	C188.66,135.95,188.609,133.96,188.57,131.97z"/>
<path fill="#FFFFFF" d="M193.49,137.57c-0.54-1.961,1.82-3.68,3.51-2.58c0.23,0.92,0.42,1.85,0.57,2.79
	C196.24,138.16,194.43,139.2,193.49,137.57z"/>
<path fill="#917976" d="M248.27,135.73c0.851,1.64,1.601,3.33,2.291,5.05c0.449-0.011,1.35-0.011,1.799-0.011
	c0.451-0.18,1.341-0.55,1.791-0.739c1-1.08,0.75-2.771,1.22-4.091c1.899,1.44,2.7,3.65,3.39,5.82c0.42-1.99,0.86-3.979,1.311-5.96
	c2.65,0.63,3.689,3.271,4.56,5.56c0.04,0.271,0.13,0.801,0.17,1.07c-0.87,0.37-1.729,0.76-2.579,1.18l-0.291,0.141
	c-4.619,0.22-9.25,0.17-13.88,0.109C247.96,141.15,247.96,138.43,248.27,135.73z"/>
<path fill="#88827E" d="M241.01,144.02c-0.09-2.51-0.13-5.039,0.36-7.51c0.649,1.58,1.25,3.19,1.81,4.801
	c0.85-1.61,1.801-3.17,2.83-4.67c0.211,2.439,0.26,4.89,0.24,7.34C244.5,143.99,242.75,144,241.01,144.02z"/>
<path fill="#2F2F2F" d="M264.63,141.359c0.14-1.629-0.44-4.979,2.25-4.14c0.591,1.931,0.931,4.21-0.409,5.931
	c-1.421,0.199-2.841,0.319-4.25,0.459c0.85-0.42,1.709-0.81,2.579-1.18C264.76,142.16,264.67,141.63,264.63,141.359z"/>
<path fill="#392721" d="M252.359,140.77c-1-1.64-0.619-2.72,1.121-3.239c0.17,0.62,0.5,1.88,0.67,2.5
	C253.7,140.22,252.811,140.59,252.359,140.77z"/>
<path fill="#88827E" d="M186.221,140.141c1.289,0.219,2.649,0.25,3.829,0.89c-0.09,1.329-0.79,2.17-2.09,2.51
	C186.2,143.24,186.46,141.45,186.221,140.141z"/>
<path fill="#604243" d="M249.87,149.8c1.22-0.09,2.43-0.2,3.649-0.31c0.221,2.67,0.44,5.34,0.871,7.99
	c1.119-2.261,1.689-4.721,2.17-7.181c0.189,0.03,0.56,0.08,0.739,0.11c-0.1,2.49-0.21,4.97-0.44,7.449
	c-5.84-0.159-11.68-0.14-17.51-0.01c-0.16-2.49-0.41-4.97-0.72-7.439c0.22-0.04,0.649-0.12,0.86-0.16c0.8,2.32,0.88,5.21,2.98,6.82
	c0.35-2.561,0.6-5.131,0.869-7.7c2.131,1.17,2.7,3.55,3.49,5.649C247.84,153.28,248.85,151.54,249.87,149.8z"/>
<path fill="#887A75" d="M259.279,149.641c1.141,1.42,2.091,2.969,2.951,4.569c0.67-1.66,1.43-3.3,2.49-4.75
	c0.219,3.04,0.119,6.101-0.011,9.149c-1.851,0.091-3.69,0.181-5.53,0.271C259.141,155.8,259.109,152.72,259.279,149.641z"/>
<path fill="#6A6A6A" d="M218.17,161.68c0.15,5.2,0.03,10.4,0.359,15.601c1.15,0.069,2.311,0.159,3.471,0.239
	c0.51,0.03,1.529,0.08,2.04,0.11c-0.13,5.59-0.011,11.681-3.87,16.2c-0.04-5.11,0-10.23-0.09-15.34c-0.54-0.34-1.62-1.021-2.16-1.36
	C217.59,172,217.32,166.77,218.17,161.68z"/>
<path fill="#4D3C3F" d="M263.12,170.02c1.79-2.25,1.84-5.64,3.569-8.08c0.09,3.32,0,6.631-0.069,9.94
	c-2.431-0.14-5.32-0.479-6.33-3.1c-1.54-2.261-0.21-5.03,2.14-5.97C262.57,165.22,262.641,167.641,263.12,170.02z"/>
<path fill="#644241" d="M252.48,163.27c1.279,0,2.569,0.03,3.859,0.051c0.83,2.72,1.77,5.41,2.641,8.13
	c-3.4-0.15-6.811-0.21-10.211-0.21c-0.01-2.51-0.449-5.12,0.431-7.53c0.399,2.07,0.69,4.16,1.06,6.25
	C251.92,168.1,252.08,165.6,252.48,163.27z"/>
<path fill="#4D4244" d="M241.34,163.58c1.12,2,0.721,4.58,2.221,6.37c0.719-2.091,1.34-4.21,2.049-6.31
	c0.361,2.56,0.181,5.149-0.029,7.719c-1.42,0.021-2.85,0.041-4.27,0.061C241.189,168.811,241.1,166.189,241.34,163.58z"/>
<path fill="#0B0B0B" d="M224.37,174.78c1.771,0.729,1.351,2.72,1.47,4.25c0.061,7.75-0.609,15.78-4.05,22.84
	c-1.12,2.899-3.229,5.28-4.351,8.17c-3.899,9.569-8.399,18.899-11.739,28.68c-1.41,0.08-2.8,0.171-4.2,0.25
	c6.15-15.04,8.43-32.03,18.67-45.14c3.859-4.52,3.74-10.61,3.87-16.2C224.12,176.92,224.279,175.49,224.37,174.78z"/>
<path fill="#57484B" d="M238.79,178.02c1.101,1.5,2.181,3.021,3.3,4.5c0.48-1.379,0.95-2.75,1.42-4.129
	c0.631-0.091,1.91-0.25,2.551-0.33c-0.711,2.149-0.631,4.869-2.36,6.5c-1.65,0.239-3.32,0.199-4.97,0.239
	C238.76,182.53,238.779,180.28,238.79,178.02z"/>
<path fill="#8C7772" d="M246.17,185.13c0.88-3.01,1.17-7.79,5.471-7.35c0.02,1.35,0.049,2.71,0.09,4.069
	c0.529-0.13,1.6-0.39,2.129-0.52c0.221,0.25,0.681,0.75,0.91,1c0.83-1.6,1.36-3.42,2.801-4.62c0.199,2.45,0.26,4.899,0.3,7.36
	C253.98,185.359,250.07,185.35,246.17,185.13z"/>
<path fill="#0B0B0B" d="M251.641,177.78c2.029,0.229,2.25,1.89,2.219,3.55c-0.529,0.13-1.6,0.39-2.129,0.52
	C251.689,180.49,251.66,179.13,251.641,177.78z"/>
<path fill="#564748" d="M259.74,178.13c0.99,1.61,2.029,3.19,3.14,4.72c0.25-1.6,0.5-3.199,0.75-4.8
	c1.57,1.53,3.07,3.12,4.521,4.771c-2.711,1.09-5.51,2.01-8.461,2.08C259.721,182.641,259.74,180.391,259.74,178.13z"/>
</svg>
