<?xml version="1.0" encoding="utf-8"?>
<!-- Generator: Adobe Illustrator 15.0.2, SVG Export Plug-In . SVG Version: 6.00 Build 0)  -->
<!DOCTYPE svg PUBLIC "-//W3C//DTD SVG 1.1//EN" "http://www.w3.org/Graphics/SVG/1.1/DTD/svg11.dtd">
<svg version="1.1" id="Layer_1" xmlns="http://www.w3.org/2000/svg" xmlns:xlink="http://www.w3.org/1999/xlink" x="0px" y="0px"
	 width="105px" height="121px" viewBox="0 0 105 121" enable-background="new 0 0 105 121" xml:space="preserve">
<path fill="#FFFFFF" d="M0,0h105v121H0V0 M48.87,5.21c-6.78,2.91-13.95,5.19-21.33,5.8c0.46,0.74,0.92,1.47,1.38,2.21
	c-1.09,0.29-2.17,0.58-3.25,0.87l2.15-1.17c-0.76-0.51-1.53-1.02-2.3-1.52c-0.45,0.68-1.36,2.04-1.81,2.72
	c-2.98,1.42-5.99,2.88-8.49,5.08c-2.85,2.11-4.18,5.8-7.49,7.37c-0.7,3.76-0.37,7.66-1.25,11.4c0.69,0.8,1.41,1.561,2.14,2.33
	c-0.23,0.91-0.47,1.83-0.69,2.75l-0.27-2.96c-0.47,0.24-1.42,0.74-1.89,0.99c-1.3,6.5,0,12.97,0.81,19.43
	c4.16,2.881,3.41,8.35,4.52,12.7c-0.33,0.521-0.98,1.54-1.31,2.06c0.66,0.041,1.98,0.121,2.64,0.16c-0.08,0.54-0.23,1.62-0.31,2.16
	c4.65-1.1,9.06-3.02,13.82-3.65c4.8-1.619,9.64,0.03,14.53-0.22c0.38-1.42,0.77-2.829,1.15-4.239c3.34,1.739,6.72,3.43,9.75,5.689
	c0.34-1.88,0.59-3.779,0.8-5.68c2.4,2.34,7.54,1.93,7.689,5.939c1.91-1.6,1.511-4.01,1.08-6.18c1.351,0.24,2.711,0.45,4.08,0.609
	c2.25-1.14,2.521-3.959,2.84-6.17c5.561-0.899,11.16-1.76,16.541-3.47c3.42-1.06,6.05-3.7,9.459-4.76
	c0.061-1.89,0.111-3.77,0.15-5.66c-0.76,1.26-1.4,2.59-1.939,3.96c-0.24,0.05-0.74,0.15-0.98,0.2c-0.01-1.75-0.02-3.5-0.029-5.25
	l0.959,2.18c0.53-0.68,1.061-1.35,1.601-2.03c-1.07-3.3-2.37-6.51-3.79-9.68c-1.33-2.99-1.221-6.42-2.811-9.31
	c-1.149-2.27-2.289-4.54-3.479-6.79c-2.97-2.96-4.12-7.28-6.81-10.52c1.789-1.05,3.949-1.98,4.529-4.2
	c-2.439,0.91-4.66,2.27-6.92,3.55c0.18-0.58,0.53-1.75,0.7-2.34c-2.569,0.11-4.05-2.59-6.569-2.76c-3.4-0.43-6.811-0.85-10.041-2.04
	C55.33,3.61,51.88,3.93,48.87,5.21 M66.971,82.391c-2.681-0.311-4.441-2.771-6.881-3.74c-1.83,0.229-3.93,0.09-5.57,0.99
	C50.97,83.5,47.55,87.48,43.95,91.29c-3.51-1.101-4.41,3.19-6.44,5.09c-1.77-1.79-3.75-4.11-6.6-3.3c-1.85-0.12-2.22,2.09-3.11,3.2
	l-2.66-0.46c0.59,0.92,1.12,1.91,1.94,2.649c-0.78,0.14-2.35,0.41-3.13,0.55c0.49-0.77,0.79-1.619,0.81-2.529
	c-3.02,1.33-6.31,2.359-9.41,0.64c0.34,3.62,1.33,7.13,2.16,10.65c3.01,5.569,8.27,11.81,15.37,10.36l-0.55-1.961
	c14.8,2.94,30.04,4.7,45.09,2.98c3.95-1.7,7.75-3.73,11.68-5.471c4.42-1.239,6.2-5.879,9.16-8.939c0.62,0.4,1.86,1.2,2.48,1.59
	c-0.08-1.92,0.25-3.93-0.49-5.76c-1.58-3.78-1.99-7.9-3.17-11.8c-0.78-0.091-2.34-0.25-3.12-0.33c-3.05,0.93-6.181,1.739-8.69,3.819
	c-2.569,0.391-5.16,0.641-7.76,0.431c2.34-1.841,5.2-4.86,8.44-3.54c0.6-0.37,1.2-0.75,1.8-1.141c-2.65-1.56-5.311-0.979-7.55,0.931
	c1.51-4.06-0.37-9.73-5.19-10.13C71.73,78,69.87,81.859,66.971,82.391z"/>
<path fill="#040404" d="M48.87,5.21c3.01-1.28,6.46-1.6,9.56-0.44c3.23,1.19,6.641,1.61,10.041,2.04c2.52,0.17,4,2.87,6.569,2.76
	c-0.17,0.59-0.521,1.76-0.7,2.34c2.26-1.28,4.48-2.64,6.92-3.55c-0.58,2.22-2.74,3.15-4.529,4.2c2.689,3.24,3.84,7.56,6.81,10.52
	c1.19,2.25,2.33,4.52,3.479,6.79c1.59,2.89,1.48,6.32,2.811,9.31c1.42,3.17,2.72,6.38,3.79,9.68c-0.54,0.68-1.07,1.35-1.601,2.03
	l-0.959-2.18c0.01,1.75,0.02,3.5,0.029,5.25c0.24-0.05,0.74-0.15,0.98-0.2c0.539-1.37,1.18-2.7,1.939-3.96
	c-0.039,1.89-0.09,3.77-0.15,5.66c-3.409,1.06-6.039,3.7-9.459,4.76c-5.381,1.71-10.98,2.57-16.541,3.47
	c-0.319,2.211-0.59,5.03-2.84,6.17c-1.369-0.159-2.729-0.369-4.08-0.609c0.431,2.17,0.83,4.58-1.08,6.18
	c-0.149-4.01-5.289-3.6-7.689-5.939c-0.21,1.9-0.46,3.8-0.8,5.68c-3.03-2.26-6.41-3.95-9.75-5.689c-0.38,1.41-0.77,2.819-1.15,4.239
	c-4.89,0.25-9.73-1.399-14.53,0.22c-4.76,0.631-9.17,2.551-13.82,3.65c0.08-0.54,0.23-1.62,0.31-2.16
	c-0.66-0.039-1.98-0.119-2.64-0.16c0.33-0.52,0.98-1.539,1.31-2.06c-1.11-4.351-0.36-9.819-4.52-12.7
	c-0.81-6.46-2.11-12.93-0.81-19.43c0.47-0.25,1.42-0.75,1.89-0.99l0.27,2.96c0.22-0.92,0.46-1.84,0.69-2.75
	c-0.73-0.77-1.45-1.53-2.14-2.33c0.88-3.74,0.55-7.64,1.25-11.4c3.31-1.57,4.64-5.26,7.49-7.37c2.5-2.2,5.51-3.66,8.49-5.08
	c0.45-0.68,1.36-2.04,1.81-2.72c0.77,0.5,1.54,1.01,2.3,1.52l-2.15,1.17c1.08-0.29,2.16-0.58,3.25-0.87
	c-0.46-0.74-0.92-1.47-1.38-2.21C34.92,10.4,42.09,8.12,48.87,5.21 M47.1,7.85c-1.96,0.52-4.06,0.71-5.78,1.89
	c4.39,0.12,8.86-1.46,13.14,0.11c-6.68,1.4-13.56,1.53-20.25,2.97c0.16,0.47,0.46,1.4,0.61,1.86c-6.03-0.12-12.38,0.9-17.33,4.6
	c-1.58,1.3-3.72,2.59-3.93,4.84c-1.28,8.43-3.69,16.79-3.09,25.39c-0.53-0.11-1.58-0.33-2.11-0.45c-0.83,8.83,5.87,16.07,5.4,24.82
	c3.7-0.29,7.37-0.87,10.99-1.71c0.34-0.43,1.02-1.3,1.36-1.74c3.5-1.42,7.23-2.14,10.88-3.05c0.17-0.43,0.5-1.29,0.67-1.71
	c7.24-1.529,14.75-0.5,21.949-2.26c3.9-1.1,7.051-4.41,11.341-4.15c6.31,0.12,13.1,0.17,18.53-3.57c0.229-3.95,1.81-8.49-1.74-11.44
	c0.34-0.72,0.699-1.43,1.06-2.15l1.33,2.47c-0.28-1.05-0.56-2.09-0.851-3.14c-0.779,0.27-1.559,0.53-2.329,0.8
	c-0.61-5.96-1.89-11.93-4.79-17.22c-3.381-3.47-4.9-8.19-7.99-11.88c-3.9,1.93-6.17,5.66-8.27,9.28c3.51-0.42,6.89,0.73,10.26,1.51
	c1.58,1.65,3.109,3.46,5.38,4.16c2.479,5.18,3.239,11.32,2.14,16.94c-2.35,4.15-8.13,4.99-12.34,3.56
	c-2.48-1.63-1.689-5.05-2.05-7.56c-0.03-4.23-3.479-7.23-4.761-11.05c-0.379-2.229,0.601-4.34,1.121-6.45l2.08,0.7
	c-1.4-0.91-2.82-1.79-3.771-3.189c-0.181,0.61-0.53,1.82-0.71,2.43c0.38,0.5,0.77,0.99,1.16,1.48c-4.52,1.91-0.131,7.63-3.68,10.09
	c-0.26-1.4-0.471-2.811-0.65-4.23c-0.88,0.78-1.77,1.55-2.63,2.34c-0.31-3.68-0.36-7.46,1.03-10.95c0.41,0.39,1.229,1.17,1.64,1.56
	c1.38-2.72,2.62-5.52,3.81-8.34c0.61-0.02,1.83-0.06,2.44-0.08c1.47-1.53,3.09-2.94,4.351-4.65c0.479-1.22,0.069-1.96-1.24-2.24
	c-2.59-0.78-5.36-0.5-7.971-1.22c-2.48-0.59-4.859-1.729-7.43-1.82C51.62,5.82,49.51,7.27,47.1,7.85 M65.6,28.76
	c1.66,4.41,5.34,8.22,5.11,13.19c0.149,1.78-0.04,3.71,0.99,5.27c3.2,2.1,8.39,1.13,10.04-2.52c2.02-4.18,0.96-9.07-0.29-13.32
	c-2.16,1.1-4.58,1.17-6.95,1.13c-1.18-2.56-0.98-5.38-0.029-7.99c-1.451-0.21-2.9-0.31-4.361-0.3
	C67.88,24.81,66.83,27.04,65.6,28.76 M11.01,26.18c-1.31,0.69-2.07,3.97-0.36,4.38C11.45,29.54,12.23,27.01,11.01,26.18
	 M75.529,26.3c-0.799,1.53-1.069,3.63,0.32,4.91c1.41,0.11,2.791-0.04,4.15-0.46C79.79,28.61,77.57,26.66,75.529,26.3 M71.439,60.35
	c-0.969-0.16-4.449,0.55-2.469,1.8C70.51,63.52,74.939,60.51,71.439,60.35 M52.61,66.82c1.23,2.83,4.291,3.58,6.93,4.529
	c0.01-1.8,0.25-3.58,1.11-5.17c0.92,0.68,2.76,2.051,3.68,2.73c0.949-1.48,1.71-3.08,2.3-4.74c-2.01,0.1-4.021,0.26-6.021,0.439
	c-0.52,0.791-1.029,1.58-1.539,2.381l-0.51-1.66C56.6,65.939,54.63,66.48,52.61,66.82 M42.74,67.811
	c2.15,2.299,5.25,3.159,7.95,4.609c-0.03-1.73-0.08-3.46-0.12-5.189C47.95,67.25,45.32,67.34,42.74,67.811 M33.76,71.6
	c1.75,0.461,3.51,0.87,5.29,1.24c0.43-1.449,0.86-2.9,1.27-4.35C38.09,69.42,35.86,70.391,33.76,71.6z"/>
<path fill="#FEFEFE" d="M47.1,7.85c2.41-0.58,4.52-2.03,6.98-2.45c2.57,0.09,4.949,1.23,7.43,1.82c2.61,0.72,5.381,0.44,7.971,1.22
	c1.31,0.28,1.72,1.02,1.24,2.24c-1.261,1.71-2.881,3.12-4.351,4.65c-0.61,0.02-1.83,0.06-2.44,0.08c-1.189,2.82-2.43,5.62-3.81,8.34
	c-0.41-0.39-1.229-1.17-1.64-1.56c-1.391,3.49-1.34,7.27-1.03,10.95c0.86-0.79,1.75-1.56,2.63-2.34c0.18,1.42,0.391,2.83,0.65,4.23
	c3.549-2.46-0.84-8.18,3.68-10.09c-0.391-0.49-0.78-0.98-1.16-1.48c0.18-0.61,0.529-1.82,0.71-2.43c0.95,1.4,2.37,2.28,3.771,3.189
	l-2.08-0.7c-0.521,2.11-1.5,4.22-1.121,6.45c1.281,3.82,4.73,6.82,4.761,11.05c0.36,2.51-0.431,5.93,2.05,7.56
	c4.21,1.43,9.99,0.59,12.34-3.56c1.1-5.62,0.34-11.76-2.14-16.94c-2.271-0.7-3.8-2.51-5.38-4.16c-3.37-0.78-6.75-1.93-10.26-1.51
	c2.1-3.62,4.369-7.35,8.27-9.28c3.09,3.69,4.609,8.41,7.99,11.88c2.9,5.29,4.18,11.26,4.79,17.22c0.771-0.27,1.55-0.53,2.329-0.8
	c0.291,1.05,0.57,2.09,0.851,3.14L88.8,42.1c-0.36,0.72-0.72,1.43-1.06,2.15c3.55,2.95,1.97,7.49,1.74,11.44
	c-5.431,3.74-12.221,3.69-18.53,3.57c-4.29-0.26-7.44,3.051-11.341,4.15c-7.199,1.76-14.709,0.73-21.949,2.26
	c-0.17,0.42-0.5,1.28-0.67,1.71c-3.65,0.91-7.38,1.63-10.88,3.05c-0.34,0.44-1.02,1.311-1.36,1.74c-3.62,0.84-7.29,1.42-10.99,1.71
	c0.47-8.75-6.23-15.99-5.4-24.82c0.53,0.12,1.58,0.34,2.11,0.45c-0.6-8.6,1.81-16.96,3.09-25.39c0.21-2.25,2.35-3.54,3.93-4.84
	c4.95-3.7,11.3-4.72,17.33-4.6c-0.15-0.46-0.45-1.39-0.61-1.86c6.69-1.44,13.57-1.57,20.25-2.97c-4.28-1.57-8.75,0.01-13.14-0.11
	C43.04,8.56,45.14,8.37,47.1,7.85 M44.56,14.77c1.85-0.23,3.95-0.43,4.71-2.43C47.37,12.49,45.41,12.83,44.56,14.77 M44.92,17.45
	c0.72,0.17,2.17,0.5,2.89,0.66l-0.29,1.67c-1.84-0.21-3.51,0.41-4.89,1.58c1.74-1.11,3.67-1.11,5.62-0.57
	c-0.41,0.63-1.23,1.87-1.63,2.5c2.82-1.18,7.149-0.08,8.63-3.36c-0.84,0.08-2.51,0.23-3.35,0.31c-0.27-0.21-0.81-0.62-1.08-0.82
	c1.93-0.79,3.86-1.67,5.401-3.13C52.38,16.27,48.79,18.4,44.92,17.45 M18.84,27.28c8.39,0.64,16.84,0.57,25.2,1.61
	c2.51,3.19,5.15,6.49,9.25,7.61c0.81,1.33,1.63,2.67,2.46,3.99c-0.05-2.32-0.2-4.65-0.82-6.9c-0.15,0.53-0.43,1.59-0.58,2.11
	l-2.53-0.12c0.13-1.26,0.69-2.25,1.69-2.97c-3.62-3.29-7.14-6.69-11.07-9.62c-0.1,0.47-0.31,1.41-0.41,1.87
	c-0.3-0.35-0.9-1.05-1.2-1.4c-5.33-0.23-10.6,1.28-15.95,0.94C22.4,24.12,20.28,25.36,18.84,27.28 M55.09,24.02
	c-0.35,1.72-0.9,3.39-1.189,5.12c0.34,1.31,1.34,2.28,2.109,3.35C55.87,29.65,55.42,26.84,55.09,24.02 M31.4,29.52
	c-3.44,1.21-5.36,4.72-7.35,7.56c-2.1,2.88-2.37,6.85-0.44,9.9c3.5,5.12,9.04,8.99,15.41,9.02c3.33-2.24,6.91-4.22,9.67-7.18
	c-0.25-4.3,0.76-8.75-0.39-12.95C44.6,30.75,37.5,28.59,31.4,29.52 M55.76,33.21c1.051,2.22,2.52,4.2,4.34,5.84
	C59.25,36.74,58.17,34.27,55.76,33.21 M79.439,50.9c0.42,3.4,3.971-0.09,5.811-0.53C83.311,50.54,81.38,50.78,79.439,50.9
	 M20.54,53.43c3.42,2.48,7.36,4.51,11.71,4.22c-1.36-0.42-2.72-0.79-4.1-1.14l0.19-0.44c-1.1-0.76-2.16-1.59-3.12-2.51
	C23.66,53.46,22.1,53.41,20.54,53.43 M20.12,69.3c-0.51,1.61,0.06,2.14,1.72,1.601C22.34,69.29,21.76,68.75,20.12,69.3z"/>
<path d="M44.56,14.77c0.85-1.94,2.81-2.28,4.71-2.43C48.51,14.34,46.41,14.54,44.56,14.77z"/>
<path fill="#080808" d="M44.92,17.45c3.87,0.95,7.46-1.18,11.301-1.16c-1.541,1.46-3.471,2.34-5.401,3.13
	c-1.13,0.27-2.25,0.58-3.38,0.86l0.08-0.5l0.29-1.67C47.09,17.95,45.64,17.62,44.92,17.45z"/>
<path d="M42.63,21.36c1.38-1.17,3.05-1.79,4.89-1.58l-0.08,0.5c1.13-0.28,2.25-0.59,3.38-0.86c0.27,0.2,0.81,0.61,1.08,0.82
	c-1.22,0.19-2.44,0.38-3.65,0.55C46.3,20.25,44.37,20.25,42.63,21.36z"/>
<path fill="#737373" d="M51.9,20.24c0.84-0.08,2.51-0.23,3.35-0.31c-1.48,3.28-5.81,2.18-8.63,3.36c0.4-0.63,1.22-1.87,1.63-2.5
	C49.46,20.62,50.68,20.43,51.9,20.24z"/>
<path fill="#080808" d="M18.84,27.28c1.44-1.92,3.56-3.16,6.04-2.88c5.35,0.34,10.62-1.17,15.95-0.94c0.3,0.35,0.9,1.05,1.2,1.4
	c0.1-0.46,0.31-1.4,0.41-1.87c3.93,2.93,7.45,6.33,11.07,9.62c-1,0.72-1.56,1.71-1.69,2.97l2.53,0.12c0.15-0.52,0.43-1.58,0.58-2.11
	c0.62,2.25,0.771,4.58,0.82,6.9c-0.83-1.32-1.65-2.66-2.46-3.99c-4.1-1.12-6.74-4.42-9.25-7.61C35.68,27.85,27.23,27.92,18.84,27.28
	z"/>
<path fill="#050505" d="M55.09,24.02c0.33,2.82,0.78,5.63,0.92,8.47c-0.77-1.07-1.77-2.04-2.109-3.35
	C54.189,27.41,54.74,25.74,55.09,24.02z"/>
<path fill="#FEFEFE" d="M65.6,28.76c1.23-1.72,2.28-3.95,4.51-4.54c1.461-0.01,2.91,0.09,4.361,0.3
	c-0.951,2.61-1.15,5.43,0.029,7.99c2.37,0.04,4.79-0.03,6.95-1.13c1.25,4.25,2.31,9.14,0.29,13.32c-1.65,3.65-6.84,4.62-10.04,2.52
	c-1.03-1.56-0.841-3.49-0.99-5.27C70.939,36.98,67.26,33.17,65.6,28.76z"/>
<path fill="#FAFAFA" d="M11.01,26.18c1.22,0.83,0.44,3.36-0.36,4.38C8.94,30.15,9.7,26.87,11.01,26.18z"/>
<path fill="#FCFCFC" d="M75.529,26.3c2.041,0.36,4.261,2.31,4.471,4.45c-1.359,0.42-2.74,0.57-4.15,0.46
	C74.46,29.93,74.73,27.83,75.529,26.3z"/>
<path d="M31.4,29.52c6.1-0.93,13.2,1.23,16.9,6.35c1.15,4.2,0.14,8.65,0.39,12.95c-2.76,2.96-6.34,4.94-9.67,7.18
	c-6.37-0.03-11.91-3.9-15.41-9.02c-1.93-3.05-1.66-7.02,0.44-9.9C26.04,34.24,27.96,30.73,31.4,29.52 M27.71,33.91
	c0.33,0.6,0.67,1.19,1.01,1.79c1.2,0.64,3.1,0.26,3.72,1.74c1.39,2.81-0.69,6.24-3.47,7.2c-2.46,1.06-4.17-1.78-5.43-3.27
	c0.6,7.51,7.44,12.12,14.26,13.32c3.1-2.25,7.46-3.11,9.43-6.66c1.03-4.08,0.39-8.34-0.47-12.38c-0.96-0.13-1.92-0.26-2.87-0.39
	c-3.5-1.74-6.65-4.93-10.79-4.77C30.75,30.44,29.39,32.66,27.71,33.91 M26.82,35.31c-1.17,2.06-2.45,4.6-1,6.89
	c2.46,2.82,7.4-0.65,5.6-3.93C29.9,37.26,28.3,36.39,26.82,35.31z"/>
<path fill="#FFFFFF" d="M27.71,33.91c1.68-1.25,3.04-3.47,5.39-3.42c4.14-0.16,7.29,3.03,10.79,4.77c0.95,0.13,1.91,0.26,2.87,0.39
	c0.86,4.04,1.5,8.3,0.47,12.38c-1.97,3.55-6.33,4.41-9.43,6.66c-6.82-1.2-13.66-5.81-14.26-13.32c1.26,1.49,2.97,4.33,5.43,3.27
	c2.78-0.96,4.86-4.39,3.47-7.2c-0.62-1.48-2.52-1.1-3.72-1.74C28.38,35.1,28.04,34.51,27.71,33.91z"/>
<path fill="#080808" d="M55.76,33.21c2.41,1.06,3.49,3.53,4.34,5.84C58.279,37.41,56.811,35.43,55.76,33.21z"/>
<path fill="#FAFAFA" d="M26.82,35.31c1.48,1.08,3.08,1.95,4.6,2.96c1.8,3.28-3.14,6.75-5.6,3.93
	C24.37,39.91,25.65,37.37,26.82,35.31z"/>
<path fill="#080808" d="M79.439,50.9c1.94-0.12,3.871-0.36,5.811-0.53C83.41,50.81,79.859,54.3,79.439,50.9z"/>
<path fill="#040404" d="M20.54,53.43c1.56-0.02,3.12,0.03,4.68,0.13c0.96,0.92,2.02,1.75,3.12,2.51l-0.19,0.44
	c1.38,0.35,2.74,0.72,4.1,1.14C27.9,57.94,23.96,55.91,20.54,53.43z"/>
<path fill="#FAFAFA" d="M71.439,60.35c3.5,0.16-0.93,3.169-2.469,1.8C66.99,60.9,70.471,60.19,71.439,60.35z"/>
<path fill="#FFFFFF" d="M52.61,66.82c2.02-0.34,3.99-0.881,5.951-1.49l0.51,1.66c0.51-0.801,1.02-1.59,1.539-2.381
	c2-0.18,4.011-0.34,6.021-0.439c-0.59,1.66-1.351,3.26-2.3,4.74c-0.92-0.68-2.76-2.051-3.68-2.73c-0.86,1.59-1.101,3.37-1.11,5.17
	C56.9,70.4,53.84,69.65,52.61,66.82z"/>
<path fill="#FFFFFF" d="M42.74,67.811c2.58-0.471,5.21-0.561,7.83-0.58c0.04,1.729,0.09,3.459,0.12,5.189
	C47.99,70.97,44.89,70.109,42.74,67.811z"/>
<path fill="#666666" d="M20.12,69.3c1.64-0.55,2.22-0.01,1.72,1.601C20.18,71.439,19.61,70.91,20.12,69.3z"/>
<path fill="#FEFEFE" d="M33.76,71.6c2.1-1.209,4.33-2.18,6.56-3.109c-0.41,1.449-0.84,2.9-1.27,4.35
	C37.27,72.47,35.51,72.061,33.76,71.6z"/>
<path fill="#050505" d="M66.971,82.391c2.899-0.531,4.76-4.391,8.039-3.57c4.82,0.399,6.7,6.07,5.19,10.13
	c2.239-1.91,4.899-2.49,7.55-0.931c-0.6,0.391-1.2,0.771-1.8,1.141c-3.24-1.32-6.101,1.699-8.44,3.54c2.6,0.21,5.19-0.04,7.76-0.431
	c2.51-2.08,5.641-2.89,8.69-3.819c0.78,0.08,2.34,0.239,3.12,0.33c1.18,3.899,1.59,8.02,3.17,11.8c0.74,1.83,0.41,3.84,0.49,5.76
	c-0.62-0.39-1.86-1.189-2.48-1.59c-2.96,3.061-4.74,7.7-9.16,8.939c-3.93,1.74-7.729,3.771-11.68,5.471
	c-15.05,1.72-30.29-0.04-45.09-2.98l0.55,1.961c-7.1,1.449-12.36-4.791-15.37-10.36c-0.83-3.521-1.82-7.03-2.16-10.65
	c3.1,1.72,6.39,0.69,9.41-0.64c-0.02,0.91-0.32,1.76-0.81,2.529c0.78-0.14,2.35-0.41,3.13-0.55c-0.82-0.739-1.35-1.729-1.94-2.649
	l2.66,0.46c0.89-1.11,1.26-3.32,3.11-3.2c2.85-0.811,4.83,1.51,6.6,3.3c2.03-1.899,2.93-6.19,6.44-5.09
	c3.6-3.81,7.02-7.79,10.569-11.649c1.641-0.9,3.74-0.761,5.57-0.99C62.529,79.62,64.29,82.08,66.971,82.391 M54.73,81.74
	c-3.44,3.91-7.21,7.52-10.311,11.72c1.45,1.51,3.09,2.8,4.81,3.99c0.48-0.05,1.46-0.15,1.94-0.2c3.551,1.2,7.23,0.04,10.73-0.811
	c-1.61-1.869-3.121-3.81-4.73-5.659c-1.109,1.84-2.21,3.689-3.24,5.579c-0.52-0.409-1.04-0.819-1.56-1.239
	c1.59-2.101,3.06-4.28,4.69-6.351c2.129,1.99,3.899,4.311,5.879,6.44c2.781-1.76,4.431-4.69,6.141-7.39
	C65.55,87.8,61.99,88.1,58.5,87.46c4.16-2.229,9.061-0.229,13.5-1.09c1.63-1.06,3.189-2.22,4.88-3.21
	c-0.36,2.73-3.17,3.77-5.06,5.31c1.75,0.98,3.5,1.99,5.289,2.91c0.951-1.68,2.521-3.31,2.15-5.41c-0.16-2.739-2.529-5.28-5.22-5.649
	c-3.36-0.54-4.681,4.56-8.12,3.33c-2.34-0.461-4.17-2.141-6.01-3.541C58.13,80.48,55.83,79.91,54.73,81.74 M70.33,88.99
	c-1.52,2.52-3.41,4.79-5.46,6.89c4.05-1.01,8.2-1.43,12.26-2.37C74.891,91.96,72.58,90.51,70.33,88.99 M90.109,94.12
	c-2.659,0.771-5.279,1.67-7.959,2.36c-1.301-0.73-2.69-1.051-4.17-0.961C70.8,95.54,63.971,98.1,56.93,99.17
	c-8.06,1.21-16.24-0.43-24.32,0.58c7.51,1.641,15.27,1.88,22.75,3.73c-12.489,1.67-24.5-4.58-37.029-2.931
	c1.54,2.65,2.85,5.55,2.38,8.71c1.64,0.6,3.3,1.2,4.95,1.771c-0.35,0.63-1.07,1.87-1.43,2.489c0.49-0.59,1.47-1.77,1.95-2.359
	c1.28,1,2.54,2.04,3.78,3.09c8.36,1.16,17.1,2.83,25.41,0.5c0.101,0.38,0.28,1.13,0.38,1.51c-1.391,0.34-2.78,0.65-4.16,1.021
	c9.6,0.25,19.79,2.11,28.93-1.771c2.07-0.64,4.271-1,6.07-2.3c-2.619-0.12-5.32,0.39-7.85-0.479c3.09-1.48,6.51-1.061,9.81-1
	c1.39-1.67,2.729-3.41,4.41-4.801c5.13-2.89,3.931-10.119,1.88-14.67c0.35-0.41,1.04-1.229,1.391-1.64
	C93.84,91.109,91.859,92.49,90.109,94.12 M42.18,92.48c-1.25,2.09-2.71,4.029-4.46,5.72c3.04,0,6.09-0.101,9.13-0.181
	C45.12,96.32,43.56,94.48,42.18,92.48 M31.31,94.16c-0.98,1.23-1.7,2.64-2.44,4.02c2.72-0.13,5.45-0.289,8.17-0.33
	C35.1,96.74,33.68,94.18,31.31,94.16 M25.48,114.47c0.04,1.53,2.82,3.23,4.25,2.561C29.76,115.24,27.03,114.189,25.48,114.47z"/>
<path fill="#FCFCFC" d="M54.73,81.74c1.1-1.83,3.399-1.26,5.18-1.631c1.84,1.4,3.67,3.08,6.01,3.541
	c3.439,1.229,4.76-3.87,8.12-3.33c2.69,0.369,5.06,2.91,5.22,5.649c0.37,2.101-1.199,3.73-2.15,5.41
	c-1.789-0.92-3.539-1.93-5.289-2.91c1.89-1.54,4.699-2.579,5.06-5.31c-1.69,0.99-3.25,2.15-4.88,3.21
	c-4.439,0.86-9.34-1.14-13.5,1.09c3.49,0.64,7.05,0.34,10.58,0.36c-1.71,2.699-3.359,5.63-6.141,7.39
	c-1.979-2.13-3.75-4.45-5.879-6.44c-1.631,2.07-3.101,4.25-4.69,6.351c0.52,0.42,1.04,0.83,1.56,1.239
	c1.03-1.89,2.131-3.739,3.24-5.579c1.609,1.85,3.12,3.79,4.73,5.659c-3.5,0.851-7.18,2.011-10.73,0.811
	c-0.48,0.05-1.46,0.15-1.94,0.2c-1.72-1.19-3.36-2.48-4.81-3.99C47.52,89.26,51.29,85.65,54.73,81.74z"/>
<path fill="#FCFCFC" d="M70.33,88.99c2.25,1.52,4.561,2.97,6.8,4.52c-4.06,0.94-8.21,1.36-12.26,2.37
	C66.92,93.78,68.811,91.51,70.33,88.99z"/>
<path fill="#FFFFFF" d="M90.109,94.12c1.75-1.63,3.73-3.011,6.121-3.5c-0.351,0.41-1.041,1.229-1.391,1.64
	c2.051,4.551,3.25,11.78-1.88,14.67c-1.681,1.391-3.021,3.131-4.41,4.801c-3.3-0.061-6.72-0.48-9.81,1
	c2.529,0.869,5.23,0.359,7.85,0.479c-1.8,1.3-4,1.66-6.07,2.3c-9.14,3.881-19.33,2.021-28.93,1.771c1.38-0.37,2.77-0.681,4.16-1.021
	c-0.1-0.38-0.279-1.13-0.38-1.51c-8.31,2.33-17.05,0.66-25.41-0.5c-1.24-1.05-2.5-2.09-3.78-3.09c-0.48,0.59-1.46,1.77-1.95,2.359
	c0.36-0.619,1.08-1.859,1.43-2.489c-1.65-0.57-3.31-1.171-4.95-1.771c0.47-3.16-0.84-6.06-2.38-8.71
	c12.53-1.649,24.54,4.601,37.029,2.931c-7.479-1.851-15.239-2.09-22.75-3.73c8.08-1.01,16.26,0.63,24.32-0.58
	c7.041-1.07,13.87-3.63,21.051-3.65c1.479-0.09,2.869,0.23,4.17,0.961C84.83,95.79,87.45,94.891,90.109,94.12z"/>
<path fill="#ECECEC" d="M42.18,92.48c1.38,2,2.94,3.84,4.67,5.539c-3.04,0.08-6.09,0.181-9.13,0.181
	C39.47,96.51,40.93,94.57,42.18,92.48z"/>
<path fill="#FCFCFC" d="M31.31,94.16c2.37,0.02,3.79,2.58,5.73,3.689c-2.72,0.041-5.45,0.2-8.17,0.33
	C29.61,96.8,30.33,95.391,31.31,94.16z"/>
<path fill="#FAFAFA" d="M25.48,114.47c1.55-0.28,4.28,0.771,4.25,2.561C28.3,117.7,25.52,116,25.48,114.47z"/>
</svg>
