<?xml version="1.0" encoding="UTF-8" ?>
<!DOCTYPE svg PUBLIC "-//W3C//DTD SVG 1.1//EN" "http://www.w3.org/Graphics/SVG/1.1/DTD/svg11.dtd">
<svg width="800pt" height="676pt" viewBox="0 0 800 676" version="1.1" xmlns="http://www.w3.org/2000/svg">
<g id="#ffffffff">
<path fill="#ffffff" opacity="1.00" d=" M 0.00 0.00 L 800.00 0.00 L 800.00 676.00 L 0.00 676.00 L 0.00 0.00 M 424.02 46.84 C 427.77 58.55 432.59 69.89 436.76 81.46 C 440.57 81.44 444.38 81.44 448.19 81.44 C 452.34 69.89 456.86 58.47 460.81 46.85 C 457.48 46.90 454.14 46.68 450.83 46.91 C 450.62 47.14 450.19 47.59 449.98 47.82 C 447.53 55.52 445.14 63.26 442.91 71.03 C 440.06 66.22 439.35 60.38 437.37 55.15 C 436.22 52.48 436.22 49.11 434.24 46.92 C 430.84 46.68 427.42 46.90 424.02 46.84 M 499.34 46.82 C 499.15 58.36 499.32 69.91 499.24 81.45 C 502.57 81.47 505.89 81.47 509.22 81.36 C 509.20 75.05 509.08 68.73 509.30 62.41 C 513.41 68.83 517.79 75.07 521.98 81.44 C 525.26 81.44 528.54 81.44 531.82 81.50 C 531.89 69.97 531.83 58.43 531.83 46.90 C 528.63 46.83 525.44 46.82 522.25 46.83 C 522.12 53.30 522.25 59.76 522.17 66.22 C 517.55 59.91 513.36 53.29 508.94 46.84 C 505.73 46.84 502.53 46.84 499.34 46.82 M 575.98 49.92 C 572.06 53.34 572.15 60.41 576.54 63.40 C 580.70 66.66 586.28 66.56 590.90 68.76 C 593.22 69.67 593.12 73.08 591.04 74.23 C 587.31 76.11 581.99 74.15 581.84 69.52 C 578.56 69.62 575.29 69.80 572.02 69.88 C 571.84 75.37 575.92 80.58 581.41 81.37 C 587.20 82.08 593.94 82.66 598.82 78.78 C 603.53 75.18 604.47 67.10 599.82 63.08 C 595.46 59.39 589.46 59.27 584.29 57.44 C 582.65 57.05 583.37 54.86 583.11 53.72 C 586.62 52.32 591.39 53.06 592.01 57.45 C 595.32 57.34 598.63 57.10 601.93 56.72 C 601.27 54.62 600.86 52.34 599.39 50.61 C 596.95 47.54 592.79 46.66 589.07 46.47 C 584.55 46.31 579.47 46.72 575.98 49.92 M 646.58 46.85 C 646.52 50.85 646.53 54.85 646.54 58.85 C 642.62 58.85 638.71 58.88 634.80 58.77 C 634.81 54.82 634.82 50.87 634.80 46.91 C 631.37 46.82 627.93 46.84 624.50 46.78 C 624.14 58.33 624.45 69.89 624.34 81.45 C 627.84 81.46 631.34 81.45 634.85 81.43 C 634.78 76.79 634.81 72.14 634.82 67.50 C 638.73 67.44 642.64 67.46 646.56 67.46 C 646.52 72.12 646.55 76.78 646.52 81.44 C 650.09 81.44 653.67 81.46 657.25 81.43 C 657.28 70.03 657.11 58.63 657.34 47.23 C 653.79 46.52 650.16 46.93 646.58 46.85 M 673.78 46.83 C 669.32 58.32 665.15 69.92 660.73 81.42 C 664.32 81.46 667.92 81.44 671.52 81.47 C 672.03 79.73 672.51 77.99 672.98 76.24 C 677.05 76.09 681.13 75.96 685.19 76.17 C 686.08 77.79 686.42 79.63 686.95 81.39 C 690.63 81.48 694.32 81.46 698.01 81.42 C 693.78 69.87 689.39 58.37 685.09 46.84 C 681.32 46.84 677.54 46.84 673.78 46.83 M 698.18 46.83 C 702.21 58.44 706.86 69.82 710.99 81.39 C 714.82 81.47 718.65 81.44 722.49 81.46 C 726.57 69.89 731.34 58.55 734.98 46.84 C 731.54 46.84 728.10 46.85 724.67 46.82 C 721.81 54.92 719.86 63.32 716.83 71.35 C 714.06 63.24 711.74 54.99 709.09 46.84 C 705.45 46.84 701.81 46.84 698.18 46.83 M 392.48 81.45 C 402.15 81.45 411.81 81.43 421.48 81.46 C 421.47 78.79 421.48 76.11 421.49 73.43 C 415.39 73.44 409.30 73.44 403.20 73.43 C 403.21 71.24 403.24 69.04 403.30 66.84 C 408.72 66.87 414.14 66.82 419.57 66.89 C 419.57 64.54 419.56 62.18 419.53 59.83 C 414.10 59.86 408.66 59.83 403.23 59.86 C 403.24 58.19 403.26 56.52 403.31 54.85 C 409.15 54.88 415.00 54.82 420.84 54.90 C 420.94 52.21 420.93 49.52 420.78 46.84 C 411.38 46.83 401.97 46.86 392.57 46.82 C 392.40 58.36 392.56 69.91 392.48 81.45 M 464.41 81.45 C 474.07 81.46 483.74 81.43 493.41 81.47 C 493.40 78.79 493.40 76.11 493.40 73.43 C 487.31 73.44 481.22 73.45 475.14 73.43 C 475.15 71.24 475.18 69.05 475.23 66.86 C 480.66 66.85 486.08 66.84 491.51 66.88 C 491.51 64.51 491.48 62.15 491.38 59.79 C 485.97 59.90 480.57 59.82 475.17 59.85 C 475.17 58.21 475.18 56.57 475.20 54.93 C 481.07 54.79 486.94 54.89 492.82 54.86 C 492.82 52.18 492.81 49.51 492.76 46.83 C 483.36 46.81 473.96 46.91 464.57 46.78 C 464.22 58.33 464.53 69.90 464.41 81.45 M 536.54 47.13 C 536.58 49.80 536.60 52.46 536.66 55.13 C 540.24 55.11 543.82 55.11 547.41 55.09 C 547.43 63.88 547.43 72.66 547.40 81.45 C 550.88 81.43 554.36 81.43 557.85 81.49 C 558.76 72.72 557.34 63.90 558.29 55.13 C 561.73 54.51 565.30 55.00 568.79 54.87 C 568.78 52.22 568.78 49.56 568.76 46.91 C 558.02 46.92 547.26 46.52 536.54 47.13 M 738.69 47.11 C 738.79 58.55 738.71 69.99 738.74 81.43 C 748.38 81.48 758.02 81.43 767.66 81.45 C 767.64 78.78 767.64 76.11 767.67 73.44 C 761.55 73.43 755.44 73.45 749.34 73.44 C 749.35 71.24 749.37 69.04 749.43 66.85 C 754.86 66.88 760.29 66.81 765.73 66.90 C 765.76 64.54 765.75 62.18 765.70 59.82 C 760.24 59.86 754.80 59.84 749.35 59.85 C 749.37 58.18 749.40 56.51 749.45 54.85 C 755.37 54.86 761.29 54.88 767.21 54.82 C 767.21 52.31 767.22 49.81 767.32 47.32 C 763.24 46.47 759.07 46.95 754.95 46.84 C 749.53 46.94 744.09 46.57 738.69 47.11 M 184.13 86.25 C 156.53 94.93 129.05 104.67 103.72 118.82 C 85.94 128.75 69.36 141.13 55.91 156.50 C 88.26 192.91 108.70 237.64 136.55 277.23 C 124.57 283.09 112.09 287.84 99.55 292.36 C 81.29 298.78 63.10 305.55 45.74 314.17 C 44.32 323.78 47.85 333.25 52.59 341.45 C 83.09 335.74 110.03 319.17 139.86 311.26 C 135.54 336.37 126.64 360.51 123.57 385.86 C 120.84 408.25 125.81 431.21 136.08 451.17 C 140.90 460.11 147.81 467.74 155.39 474.42 C 172.33 489.23 192.95 498.80 211.03 512.02 C 221.05 519.53 230.84 529.14 233.48 541.86 C 235.13 547.65 233.05 553.58 230.67 558.84 C 227.08 566.42 222.20 573.34 219.06 581.16 C 213.74 593.88 213.59 608.04 208.62 620.86 C 206.90 625.22 204.19 629.49 199.93 631.72 C 195.92 634.04 191.12 633.58 186.69 633.41 C 202.40 635.08 218.24 635.25 234.02 636.07 C 308.37 638.36 382.66 632.59 457.01 633.53 C 483.00 633.18 509.04 634.32 534.98 632.15 C 539.49 631.64 544.07 631.49 548.49 630.31 C 531.62 626.38 514.20 627.44 497.12 629.04 C 476.75 630.56 456.25 632.18 435.89 629.77 C 435.60 609.90 430.41 590.43 422.91 572.13 C 414.84 552.30 404.25 533.41 398.69 512.62 C 405.92 513.11 413.05 515.21 419.21 519.05 C 427.75 523.99 434.69 531.65 444.22 534.83 C 455.21 538.62 467.77 534.83 476.07 527.02 C 483.50 519.85 488.19 510.52 493.62 501.88 C 501.48 486.32 512.36 472.45 519.59 456.55 C 523.60 447.56 526.58 437.33 523.85 427.54 C 520.37 415.43 509.72 407.29 499.20 401.41 C 498.03 403.42 496.80 405.39 495.52 407.33 C 497.16 410.16 498.91 412.93 500.66 415.70 C 496.70 416.95 492.52 419.11 488.32 417.62 C 493.73 421.52 498.18 426.50 503.03 431.02 C 505.56 433.62 509.40 433.56 512.76 433.84 C 513.06 438.90 512.76 444.05 511.30 448.93 C 506.44 465.76 495.00 479.47 485.60 493.91 C 478.30 505.53 469.40 517.33 456.13 522.40 C 436.95 510.43 413.19 509.09 394.07 497.00 C 387.30 492.91 382.46 486.42 378.65 479.63 C 396.40 462.32 410.67 440.99 417.67 417.07 C 424.21 396.12 426.25 374.01 425.69 352.15 C 430.81 354.58 436.20 357.14 442.02 356.78 C 454.16 356.37 465.14 350.49 475.75 345.14 C 475.99 335.46 477.00 325.64 474.66 316.11 C 470.56 313.91 465.29 312.14 461.01 314.86 C 457.93 316.62 457.85 320.84 459.02 323.79 C 460.68 327.79 463.53 331.14 465.53 334.97 C 458.10 338.95 449.31 340.85 441.01 338.81 C 432.93 336.63 425.39 332.55 418.82 327.40 C 418.45 303.98 408.52 280.66 391.25 264.72 C 378.90 253.00 363.81 244.79 348.87 236.88 C 368.32 225.98 391.01 224.39 412.14 218.54 C 422.32 215.63 432.68 211.87 440.64 204.62 C 447.67 198.31 451.86 189.14 452.47 179.74 C 425.48 179.85 399.33 187.92 374.43 197.66 C 361.59 202.31 348.75 206.99 335.40 209.92 C 331.29 205.04 328.31 199.35 325.07 193.88 C 313.17 172.72 304.10 150.15 293.87 128.17 C 283.45 105.78 271.69 83.52 254.49 65.52 C 231.11 72.67 207.45 78.91 184.13 86.25 M 459.50 114.40 C 459.51 117.08 459.51 119.75 459.50 122.42 C 463.12 122.43 466.76 122.43 470.39 122.42 C 470.33 131.22 470.37 140.03 470.37 148.83 C 473.86 148.82 477.35 148.82 480.85 148.82 C 480.85 140.04 480.87 131.26 480.84 122.48 C 484.46 122.40 488.08 122.42 491.71 122.43 C 491.70 119.76 491.71 117.08 491.72 114.40 C 480.98 114.41 470.24 114.41 459.50 114.40 M 505.93 114.47 C 501.82 125.96 497.42 137.35 493.16 148.79 C 496.80 148.84 500.45 148.88 504.10 148.67 C 504.55 146.90 505.04 145.14 505.55 143.38 C 509.69 143.45 513.84 143.33 517.98 143.55 C 518.42 145.12 518.45 146.98 519.22 148.40 C 522.82 149.35 526.75 148.58 530.48 148.81 C 526.03 137.37 521.89 125.82 517.46 114.37 C 513.61 114.42 509.77 114.38 505.93 114.47 M 533.78 114.53 C 533.88 125.93 533.81 137.33 533.82 148.74 C 537.38 148.83 540.94 148.83 544.51 148.82 C 544.50 146.08 544.50 143.34 544.46 140.59 C 546.29 138.60 548.15 136.64 550.01 134.67 C 552.37 139.38 554.85 144.02 557.15 148.76 C 561.51 148.86 565.87 148.84 570.24 148.75 C 565.88 141.66 561.41 134.62 557.31 127.39 C 561.21 122.93 565.56 118.87 569.51 114.45 C 564.90 114.38 560.29 114.42 555.68 114.40 C 552.01 118.80 548.22 123.10 544.55 127.50 C 544.47 123.14 544.50 118.78 544.52 114.41 C 540.93 114.38 537.35 114.36 533.78 114.53 M 573.70 114.45 C 573.74 125.90 573.72 137.35 573.72 148.80 C 583.39 148.85 593.06 148.79 602.73 148.82 C 602.72 146.14 602.71 143.47 602.67 140.80 C 596.58 140.80 590.49 140.81 584.41 140.81 C 584.40 138.68 584.40 136.54 584.40 134.42 C 589.86 134.43 595.32 134.42 600.78 134.44 C 600.79 132.10 600.80 129.76 600.81 127.41 C 595.34 127.42 589.87 127.41 584.40 127.43 C 584.39 125.76 584.38 124.09 584.38 122.42 C 590.35 122.42 596.33 122.43 602.30 122.43 C 602.28 119.76 602.28 117.09 602.30 114.41 C 592.77 114.43 583.24 114.36 573.70 114.45 M 608.51 114.42 C 608.57 125.89 608.45 137.37 608.58 148.85 C 611.86 148.80 615.14 148.81 618.43 148.82 C 618.45 142.50 618.34 136.19 618.50 129.87 C 622.83 136.10 627.02 142.44 631.23 148.75 C 634.59 148.83 637.96 148.82 641.33 148.83 C 641.37 137.36 641.31 125.90 641.36 114.43 C 638.03 114.40 634.71 114.41 631.39 114.42 C 631.42 120.80 631.48 127.18 631.36 133.57 C 626.95 127.26 622.70 120.84 618.44 114.44 C 615.13 114.40 611.82 114.40 608.51 114.42 M 661.77 114.57 C 661.79 117.20 661.84 119.83 662.08 122.45 C 665.64 122.41 669.21 122.39 672.78 122.49 C 672.63 131.25 672.75 140.02 672.70 148.79 C 676.23 148.81 679.76 148.80 683.30 148.86 C 683.40 140.05 683.36 131.24 683.32 122.43 C 686.96 122.42 690.61 122.43 694.26 122.41 C 694.24 119.75 694.24 117.09 694.27 114.43 C 683.43 114.48 672.59 114.21 661.77 114.57 M 699.14 114.40 C 699.14 125.88 699.14 137.35 699.14 148.83 C 702.64 148.82 706.15 148.81 709.66 148.82 C 709.66 144.16 709.64 139.49 709.67 134.83 C 713.58 134.87 717.52 134.60 721.41 135.18 C 721.27 139.73 721.30 144.29 721.37 148.85 C 724.84 148.80 728.31 148.81 731.78 148.82 C 731.82 137.35 731.79 125.88 731.80 114.41 C 728.30 114.41 724.81 114.41 721.32 114.40 C 721.33 118.40 721.32 122.40 721.35 126.40 C 717.44 126.42 713.54 126.41 709.64 126.40 C 709.65 122.40 709.64 118.40 709.67 114.41 C 706.15 114.41 702.64 114.40 699.14 114.40 M 738.78 114.48 C 738.84 125.91 738.80 137.35 738.80 148.78 C 748.40 148.90 758.01 148.71 767.62 148.88 C 767.71 146.18 767.71 143.48 767.66 140.79 C 761.59 140.84 755.53 140.78 749.47 140.82 C 749.45 138.68 749.44 136.55 749.44 134.42 C 754.90 134.43 760.37 134.42 765.84 134.43 C 765.84 132.09 765.84 129.76 765.86 127.42 C 760.39 127.41 754.92 127.42 749.46 127.43 C 749.45 125.76 749.44 124.09 749.44 122.43 C 755.39 122.41 761.34 122.43 767.29 122.41 C 767.28 119.75 767.27 117.10 767.29 114.44 C 757.79 114.42 748.28 114.33 738.78 114.48 M 555.67 181.94 C 549.52 182.33 543.54 186.17 541.53 192.14 C 539.20 199.21 539.97 208.09 545.72 213.36 C 550.64 217.50 557.78 218.12 563.87 216.75 C 569.92 215.55 574.77 210.27 575.51 204.15 C 576.18 198.78 576.13 192.78 572.77 188.24 C 569.02 182.88 561.83 181.31 555.67 181.94 M 585.94 183.82 C 580.63 186.31 579.27 194.54 583.89 198.31 C 588.04 202.03 593.96 201.91 598.81 204.13 C 601.30 205.14 601.04 208.88 598.59 209.77 C 594.62 211.98 590.13 208.82 589.38 204.71 C 586.11 205.34 582.76 205.32 579.45 205.50 C 580.39 209.76 582.39 214.50 586.88 216.02 C 592.72 217.93 599.52 218.11 605.10 215.29 C 611.36 212.17 613.05 202.23 607.09 198.00 C 602.23 193.87 594.78 195.45 590.22 191.07 C 592.24 186.50 599.25 188.00 599.91 192.75 C 603.20 192.59 606.49 192.40 609.79 192.29 C 609.28 188.42 607.15 184.54 603.33 183.12 C 597.74 181.25 591.29 181.18 585.94 183.82 M 729.56 182.78 C 725.58 183.94 722.02 187.60 722.31 191.97 C 721.97 196.73 726.39 199.97 730.48 201.24 C 734.00 202.72 738.37 202.40 741.27 205.15 C 743.12 208.01 739.83 210.79 737.02 210.40 C 733.51 210.76 731.51 207.55 730.54 204.68 C 727.38 205.31 724.15 205.36 720.95 205.42 C 721.37 209.89 723.77 214.54 728.24 216.09 C 733.80 217.86 740.07 218.00 745.51 215.73 C 751.33 213.20 754.20 205.14 750.25 199.88 C 746.08 194.66 738.78 195.00 733.11 192.63 C 730.78 191.52 732.73 187.92 735.02 188.37 C 737.94 187.74 740.57 189.80 741.02 192.69 C 744.33 192.61 747.64 192.42 750.96 192.28 C 750.45 189.04 749.17 185.58 746.12 183.92 C 741.07 181.24 734.97 181.32 729.56 182.78 M 496.32 182.37 C 496.36 193.84 496.33 205.31 496.34 216.78 C 499.17 216.78 502.01 216.78 504.85 216.77 C 505.08 208.33 504.18 199.81 505.61 191.44 C 506.98 200.02 509.70 208.30 511.64 216.76 C 514.24 216.77 516.84 216.78 519.45 216.80 C 521.80 208.29 523.73 199.66 526.16 191.17 C 526.43 199.70 526.21 208.24 526.27 216.78 C 529.12 216.78 531.97 216.78 534.82 216.78 C 534.81 205.31 534.80 193.85 534.82 182.38 C 530.18 182.38 525.54 182.32 520.90 182.43 C 519.41 189.09 517.56 195.67 515.92 202.30 C 514.74 201.06 514.57 199.31 514.12 197.76 C 512.88 192.61 511.45 187.52 510.21 182.38 C 505.58 182.37 500.95 182.37 496.32 182.37 M 613.66 182.39 C 613.67 185.05 613.68 187.72 613.69 190.38 C 617.32 190.39 620.95 190.39 624.59 190.39 C 624.53 199.19 624.57 207.99 624.57 216.78 C 628.12 216.78 631.67 216.78 635.22 216.79 C 635.24 207.99 635.22 199.18 635.23 190.38 C 638.78 190.38 642.33 190.38 645.88 190.41 C 646.21 187.73 646.20 185.02 645.85 182.34 C 635.12 182.42 624.39 182.32 613.66 182.39 M 667.14 182.36 C 667.14 193.84 667.14 205.31 667.14 216.79 C 673.71 216.60 680.33 217.18 686.88 216.42 C 692.65 215.73 697.30 210.75 698.15 205.09 C 698.92 199.27 698.85 192.81 695.39 187.79 C 692.89 184.13 688.37 182.41 684.06 182.41 C 678.42 182.30 672.78 182.41 667.14 182.36 M 704.52 182.38 C 704.56 193.85 704.54 205.31 704.53 216.78 C 708.07 216.78 711.62 216.77 715.17 216.80 C 715.29 205.35 715.14 193.89 715.24 182.44 C 711.66 182.34 708.09 182.35 704.52 182.38 M 754.94 200.37 C 754.87 202.85 754.95 205.33 755.13 207.81 C 759.65 207.78 764.17 207.78 768.69 207.80 C 768.69 205.32 768.70 202.84 768.71 200.36 C 764.12 200.36 759.53 200.35 754.94 200.37 M 612.68 249.72 C 608.17 261.19 604.10 272.82 599.58 284.29 C 603.19 284.33 606.81 284.32 610.43 284.33 C 610.98 282.49 611.49 280.63 612.01 278.79 C 616.07 278.72 620.14 278.75 624.21 278.76 C 624.77 280.60 625.33 282.44 625.89 284.29 C 629.57 284.33 633.26 284.33 636.95 284.32 C 632.73 272.78 628.31 261.32 624.08 249.79 C 620.27 249.71 616.47 249.76 612.68 249.72 M 642.70 252.84 C 639.32 255.84 638.78 261.60 641.92 264.97 C 645.53 268.91 651.15 269.36 655.97 270.87 C 657.89 271.38 659.88 272.90 659.41 275.15 C 658.17 278.16 654.37 278.17 651.75 277.29 C 649.67 276.42 649.13 274.12 648.33 272.26 C 645.04 272.54 641.74 272.70 638.45 272.80 C 639.04 277.66 641.82 282.76 646.96 283.90 C 652.90 285.16 659.85 285.57 665.11 281.97 C 669.92 278.64 671.36 271.03 667.25 266.60 C 662.91 262.20 656.29 262.25 650.84 260.20 C 648.92 259.48 649.29 256.61 651.22 256.19 C 654.50 254.53 658.18 256.96 658.84 260.37 C 662.11 260.11 665.37 259.78 668.65 259.64 C 667.97 256.92 667.19 253.92 664.85 252.14 C 661.51 249.51 657.03 249.21 652.96 249.33 C 649.32 249.43 645.38 250.17 642.70 252.84 M 733.41 260.03 C 730.78 268.00 732.66 278.68 740.67 282.84 C 749.35 286.68 759.83 284.78 767.24 279.02 C 767.31 274.12 767.25 269.23 767.29 264.34 C 761.80 264.31 756.31 264.25 750.83 264.38 C 750.83 267.01 750.84 269.65 750.84 272.28 C 753.14 272.29 755.45 272.24 757.76 272.38 L 758.27 274.04 C 755.99 277.09 751.38 277.00 747.94 276.44 C 742.27 274.37 742.08 266.97 743.56 262.08 C 745.24 256.43 753.95 255.44 756.74 260.69 C 760.14 260.30 763.50 259.68 766.89 259.18 C 765.96 256.90 765.06 254.50 763.17 252.83 C 759.22 248.85 753.06 249.24 747.90 249.41 C 741.49 249.58 735.32 253.81 733.41 260.03 M 501.80 249.75 C 501.77 261.27 501.80 272.78 501.79 284.30 C 505.35 284.33 508.91 284.32 512.48 284.33 C 512.48 280.00 512.48 275.66 512.47 271.33 C 517.53 271.25 523.40 272.13 527.57 268.55 C 531.15 265.63 531.32 260.49 530.42 256.32 C 529.24 252.32 525.13 249.98 521.13 249.85 C 514.69 249.59 508.24 249.82 501.80 249.75 M 536.53 249.74 C 536.50 261.26 536.55 272.79 536.51 284.31 C 545.55 284.33 554.60 284.32 563.65 284.32 C 563.65 281.45 563.65 278.58 563.61 275.72 C 558.14 275.75 552.67 275.73 547.21 275.75 C 547.18 267.08 547.22 258.42 547.20 249.76 C 543.64 249.74 540.09 249.75 536.53 249.74 M 568.50 249.74 C 568.49 261.27 568.48 272.80 568.50 284.33 C 578.13 284.31 587.76 284.32 597.39 284.32 C 597.39 281.67 597.39 279.02 597.43 276.37 C 591.34 276.24 585.25 276.34 579.16 276.31 C 579.17 274.12 579.18 271.93 579.21 269.75 C 584.65 269.75 590.08 269.74 595.52 269.76 C 595.51 267.42 595.50 265.07 595.49 262.73 C 590.04 262.74 584.60 262.73 579.17 262.74 C 579.17 261.08 579.18 259.42 579.21 257.76 C 585.07 257.76 590.93 257.76 596.80 257.77 C 596.80 255.09 596.79 252.41 596.76 249.74 C 587.34 249.75 577.92 249.75 568.50 249.74 M 675.45 284.32 C 679.01 284.32 682.59 284.33 686.16 284.30 C 685.92 272.76 686.59 261.19 685.81 249.68 C 682.37 249.77 678.93 249.75 675.49 249.72 C 675.38 261.25 675.49 272.79 675.45 284.32 M 693.70 249.74 C 693.67 261.26 693.70 272.79 693.69 284.31 C 696.99 284.31 700.30 284.31 703.61 284.36 C 703.74 277.99 703.60 271.61 703.69 265.23 C 708.14 271.53 712.24 278.06 716.71 284.34 C 719.99 284.31 723.28 284.31 726.57 284.33 C 726.57 272.80 726.64 261.26 726.54 249.73 C 723.22 249.75 719.90 249.74 716.59 249.74 C 716.51 256.15 716.68 262.56 716.50 268.97 C 712.12 262.55 707.93 255.99 703.37 249.69 C 700.14 249.76 696.92 249.75 693.70 249.74 M 656.42 317.69 C 656.45 325.12 656.25 332.56 656.51 339.99 C 656.73 345.50 660.58 350.78 666.07 352.01 C 670.63 352.83 675.42 353.10 679.96 351.97 C 685.60 350.45 689.33 344.69 689.28 338.98 C 689.33 331.89 689.26 324.80 689.29 317.71 C 685.73 317.70 682.18 317.71 678.62 317.71 C 678.51 325.35 678.82 332.99 678.49 340.62 C 677.74 344.94 671.66 346.02 668.69 343.31 C 666.91 341.78 667.02 339.21 666.85 337.08 C 666.80 330.63 666.87 324.17 666.84 317.72 C 663.37 317.70 659.89 317.71 656.42 317.69 M 619.33 325.73 C 622.95 325.72 626.58 325.72 630.21 325.72 C 630.19 334.56 630.22 343.40 630.19 352.25 C 633.70 352.26 637.22 352.26 640.74 352.25 C 640.71 343.41 640.72 334.57 640.73 325.73 C 644.33 325.71 647.94 325.71 651.56 325.73 C 651.55 323.05 651.55 320.38 651.54 317.70 C 640.83 317.70 630.11 317.73 619.39 317.69 C 619.33 320.36 619.32 323.04 619.33 325.73 M 696.51 317.70 C 696.46 329.22 696.51 340.74 696.48 352.26 C 700.04 352.26 703.60 352.26 707.16 352.25 C 707.17 347.51 707.11 342.78 707.22 338.05 C 708.62 338.41 710.40 338.30 711.27 339.72 C 714.07 343.68 715.81 348.29 718.47 352.34 C 722.34 352.21 726.22 352.27 730.10 352.24 C 727.04 346.94 725.41 340.06 719.63 336.97 C 721.73 336.14 724.02 335.36 725.40 333.44 C 729.41 328.69 727.40 319.80 720.97 318.43 C 712.91 316.95 704.65 318.05 696.51 317.70 M 733.64 317.71 C 733.65 329.22 733.65 340.74 733.65 352.25 C 736.96 352.25 740.27 352.25 743.59 352.28 C 743.70 346.01 743.51 339.74 743.70 333.47 C 748.29 339.55 752.21 346.09 756.65 352.28 C 759.94 352.24 763.24 352.25 766.54 352.26 C 766.53 340.74 766.57 329.22 766.52 317.70 C 763.19 317.71 759.87 317.70 756.55 317.70 C 756.47 324.03 756.65 330.36 756.45 336.69 C 751.87 330.51 747.93 323.87 743.38 317.67 C 740.13 317.72 736.89 317.70 733.64 317.71 Z" />
<path fill="#ffffff" opacity="1.00" d=" M 679.13 55.97 C 680.65 60.06 681.81 64.26 683.11 68.42 C 680.54 68.45 677.97 68.45 675.42 68.42 C 676.78 64.31 678.03 60.16 679.13 55.97 Z" />
<path fill="#ffffff" opacity="1.00" d=" M 507.94 135.80 C 509.22 131.84 509.96 127.66 511.90 123.95 C 513.03 127.90 514.19 131.85 515.53 135.74 C 512.99 135.81 510.46 135.82 507.94 135.80 Z" />
<path fill="#ffffff" opacity="1.00" d=" M 556.11 190.05 C 559.90 188.79 564.31 191.46 564.98 195.41 C 565.60 199.39 565.78 203.99 563.27 207.41 C 560.55 210.19 555.32 210.16 552.87 207.04 C 551.01 204.82 550.91 201.70 550.86 198.94 C 550.96 195.38 552.15 190.99 556.11 190.05 Z" />
<path fill="#ffffff" opacity="1.00" d=" M 677.63 190.33 C 680.60 190.45 684.24 189.94 686.38 192.50 C 688.35 195.57 687.91 199.47 687.76 202.95 C 687.77 205.05 686.70 206.98 685.01 208.20 C 682.63 208.98 680.09 208.72 677.63 208.80 C 677.64 202.64 677.65 196.49 677.63 190.33 Z" />
<path fill="#ffffff" opacity="1.00" d=" M 322.04 251.53 C 331.72 251.35 341.50 250.65 351.08 252.44 C 367.59 255.24 383.56 263.70 393.48 277.44 C 404.39 291.87 408.02 310.22 409.54 327.88 C 398.14 327.70 386.07 328.09 375.91 333.88 C 367.66 338.30 362.07 346.32 358.45 354.76 C 347.14 349.65 334.31 345.31 321.91 349.01 C 305.47 353.58 293.81 367.43 285.74 381.75 C 279.52 392.72 274.97 404.53 270.79 416.40 C 266.95 412.11 267.13 405.56 262.88 401.54 C 256.14 400.40 251.46 406.43 247.57 410.96 C 252.68 416.72 258.05 423.21 265.88 425.14 C 272.74 426.63 279.25 422.51 283.93 417.88 C 295.86 405.53 302.82 389.27 315.07 377.18 C 317.69 374.86 320.44 372.23 323.96 371.45 C 329.81 372.06 335.20 374.78 341.07 375.38 C 353.65 376.94 366.02 373.39 378.29 371.13 C 382.65 363.28 386.44 354.33 394.41 349.42 C 400.67 345.38 408.42 346.68 415.44 346.85 C 417.43 359.82 416.56 373.06 415.07 386.03 C 412.19 407.88 404.12 429.17 390.94 446.90 C 372.68 471.53 344.49 487.41 314.92 494.24 C 294.71 499.29 273.71 499.51 253.03 498.41 C 242.09 497.52 231.12 496.03 220.65 492.68 C 203.34 486.92 188.82 475.57 173.57 465.96 C 177.30 451.51 175.70 436.47 173.71 421.88 C 171.07 402.58 166.74 383.40 166.79 363.83 C 182.48 372.46 194.51 386.48 210.62 394.47 C 218.97 398.82 228.68 400.63 238.02 399.22 C 248.17 397.78 258.37 393.06 264.32 384.42 C 271.27 374.84 272.67 362.55 272.23 351.04 C 271.67 338.35 268.52 325.88 263.96 314.06 C 262.53 310.31 259.61 307.22 256.02 305.46 C 252.57 303.85 248.66 304.35 244.97 304.27 C 237.99 304.33 230.94 303.82 224.04 305.09 C 212.80 306.99 202.13 312.08 193.58 319.62 C 179.06 332.63 170.70 350.75 157.64 365.04 C 167.43 395.72 167.01 428.26 170.84 459.94 C 153.53 442.62 145.05 418.12 143.46 394.04 C 142.32 372.32 145.93 349.81 156.80 330.74 C 160.26 324.54 164.45 318.58 170.17 314.28 C 181.89 305.36 195.30 299.07 208.42 292.50 C 228.52 283.13 249.08 274.76 269.81 266.90 C 283.90 261.64 297.99 256.04 312.85 253.35 C 315.93 252.85 318.99 252.21 322.04 251.53 M 317.57 256.67 C 315.64 258.55 313.98 260.97 311.19 261.58 C 307.93 262.52 305.64 265.05 303.58 267.60 C 301.84 270.16 301.68 273.97 298.33 275.11 C 297.60 279.87 297.28 284.78 295.37 289.28 C 294.94 289.54 294.08 290.05 293.65 290.31 C 293.66 293.99 293.26 297.66 293.39 301.34 C 292.91 301.76 291.97 302.58 291.49 303.00 C 292.24 305.66 293.95 308.11 293.72 310.98 C 293.67 312.80 294.52 314.48 295.09 316.18 C 295.55 316.33 296.46 316.64 296.92 316.80 C 297.15 317.46 297.63 318.79 297.86 319.45 C 302.86 319.58 302.47 313.31 302.83 309.87 C 304.85 304.43 305.74 298.67 307.44 293.13 C 308.49 290.21 309.96 287.42 310.32 284.30 C 310.87 284.13 311.99 283.80 312.55 283.64 C 313.78 280.56 316.95 278.14 317.27 274.88 C 316.68 274.60 315.50 274.05 314.91 273.77 C 319.34 273.04 321.33 268.90 323.92 265.79 C 323.19 264.63 322.43 263.49 321.58 262.42 C 321.62 260.36 321.64 258.31 321.43 256.27 C 320.14 256.39 318.85 256.53 317.57 256.67 M 342.86 281.37 C 337.68 282.44 332.49 283.54 327.26 284.42 C 319.95 285.44 312.61 289.32 308.81 295.80 C 305.90 300.31 307.40 305.82 308.02 310.76 C 309.02 316.50 308.80 322.35 308.05 328.10 C 314.85 333.31 321.60 338.78 329.49 342.30 C 337.03 345.92 345.86 346.02 353.90 344.25 C 363.01 342.14 370.21 334.83 373.32 326.16 C 379.14 310.45 375.96 293.38 378.69 277.17 C 366.71 278.26 354.82 280.08 342.86 281.37 M 237.17 281.24 C 236.87 282.18 236.62 283.14 236.41 284.12 C 234.03 284.20 231.46 283.70 229.30 284.98 C 230.41 286.74 232.25 287.57 234.14 288.22 C 231.49 289.04 228.90 290.03 226.31 291.01 C 227.79 293.99 231.48 292.38 234.08 292.78 C 236.29 293.91 238.67 294.76 240.64 296.32 C 242.25 296.68 243.86 297.05 245.49 297.38 C 246.64 301.17 251.11 302.27 254.31 303.85 C 255.14 303.83 256.13 303.32 256.86 303.97 C 262.72 308.14 268.26 312.75 274.04 317.03 C 275.36 318.03 275.95 319.68 277.09 320.87 C 279.53 320.91 279.70 319.18 278.49 317.33 C 281.22 317.17 282.92 320.72 285.66 319.70 C 287.17 316.77 284.24 313.76 282.70 311.38 C 278.94 307.43 275.03 303.61 270.88 300.05 C 271.39 299.54 272.41 298.52 272.92 298.00 C 272.52 297.69 271.74 297.06 271.35 296.74 C 267.35 295.86 264.13 293.21 260.45 291.53 C 257.32 290.09 256.04 286.42 252.82 285.09 C 250.49 284.11 248.79 281.71 246.10 281.67 C 244.34 281.56 242.04 280.36 240.92 282.39 C 239.79 281.63 238.61 280.76 237.17 281.24 M 385.02 377.93 C 387.17 378.07 389.18 378.82 391.02 379.95 C 389.85 380.60 386.96 379.67 387.23 381.83 C 388.65 383.02 390.60 383.46 392.17 384.48 C 392.38 383.87 392.80 382.65 393.01 382.04 C 393.53 382.40 394.57 383.11 395.09 383.47 C 396.90 384.17 396.26 381.90 396.68 381.00 C 394.23 379.25 392.14 376.87 389.30 375.75 C 387.47 375.60 384.57 375.18 385.02 377.93 M 351.20 378.22 C 347.13 380.08 345.26 384.37 343.42 388.15 C 340.97 392.69 340.84 398.09 341.52 403.10 C 342.12 405.74 340.38 408.03 339.68 410.46 C 338.31 414.70 338.03 419.51 335.02 423.05 C 332.58 425.71 332.48 429.57 332.56 432.99 C 333.00 435.49 335.96 436.09 337.98 436.88 C 345.77 439.32 354.78 441.83 362.36 437.40 C 369.07 434.93 373.61 429.09 379.84 425.81 C 383.29 421.43 389.18 421.67 394.12 420.68 C 397.80 420.15 401.07 416.86 400.99 413.04 C 401.30 409.38 401.72 405.70 401.44 402.03 C 400.70 399.29 398.62 397.19 397.51 394.61 C 396.17 391.46 394.60 388.31 392.12 385.90 C 389.09 384.36 385.28 384.12 382.23 385.73 C 378.25 383.99 375.93 379.67 371.54 378.73 C 364.99 376.99 357.68 375.42 351.20 378.22 M 325.30 424.05 C 325.04 427.89 324.97 431.80 325.36 435.64 C 326.51 437.28 327.85 440.72 330.39 439.37 C 331.39 436.94 327.77 435.43 327.80 433.04 C 327.36 429.89 328.48 426.43 327.18 423.49 C 326.71 423.63 325.77 423.91 325.30 424.05 M 374.11 435.33 C 372.79 436.16 374.04 437.67 374.76 438.44 C 378.03 435.79 381.42 433.17 383.47 429.39 C 384.64 426.84 389.61 429.79 389.07 425.87 C 386.96 425.72 384.84 425.66 382.73 425.61 C 380.20 429.14 377.83 432.88 374.11 435.33 M 321.59 429.66 C 321.46 432.16 320.32 435.58 323.08 437.07 C 324.47 434.74 324.37 431.96 323.51 429.46 C 323.03 429.51 322.07 429.61 321.59 429.66 M 382.36 435.08 C 383.21 435.34 384.34 436.20 385.04 435.13 C 386.44 433.47 388.39 432.74 390.44 432.23 C 391.23 429.51 387.45 430.39 385.86 430.08 C 384.38 431.52 383.22 433.22 382.36 435.08 Z" />
<path fill="#ffffff" opacity="1.00" d=" M 512.50 256.69 C 515.33 256.74 520.29 256.17 520.61 260.14 C 521.08 264.55 515.49 264.56 512.47 264.36 C 512.47 261.80 512.48 259.24 512.50 256.69 Z" />
<path fill="#ffffff" opacity="1.00" d=" M 617.87 259.81 C 620.27 263.11 620.51 267.53 621.99 271.30 C 619.42 271.32 616.87 271.33 614.32 271.33 C 615.58 267.51 616.71 263.66 617.87 259.81 Z" />
<path fill="#ffffff" opacity="1.00" d=" M 328.07 295.42 C 338.17 292.21 349.07 292.17 359.43 294.08 C 357.74 295.84 355.34 296.51 353.13 297.32 C 344.29 300.32 334.70 301.09 326.38 305.54 C 322.33 307.48 319.95 311.45 317.36 314.91 C 316.65 311.92 315.42 308.94 315.67 305.82 C 317.44 300.33 322.86 297.11 328.07 295.42 Z" />
<path fill="#ffffff" opacity="1.00" d=" M 333.63 309.59 C 337.23 307.86 340.08 304.83 343.93 303.58 C 350.71 305.02 354.99 310.81 360.63 314.26 C 362.63 310.99 364.16 307.47 365.22 303.79 C 369.45 308.43 370.88 316.01 367.26 321.43 C 359.38 333.79 342.92 338.91 329.04 335.27 C 324.38 334.10 320.36 331.10 317.58 327.23 C 317.90 323.86 318.19 320.19 320.55 317.55 C 323.87 313.45 329.11 311.93 333.63 309.59 Z" />
<path fill="#ffffff" opacity="1.00" d=" M 223.85 310.47 C 230.98 310.16 238.59 309.96 244.96 313.71 C 240.83 340.00 222.31 360.36 211.52 383.90 C 210.57 386.09 207.46 384.89 205.62 385.45 C 201.67 381.62 198.08 377.40 193.62 374.13 C 203.58 352.86 216.50 332.91 223.85 310.47 Z" />
<path fill="#ffffff" opacity="1.00" d=" M 187.33 346.12 C 188.60 332.91 198.07 320.48 211.05 316.92 C 208.44 332.77 197.82 345.45 189.67 358.76 C 188.72 354.59 187.23 350.44 187.33 346.12 Z" />
<path fill="#ffffff" opacity="1.00" d=" M 224.61 366.61 C 232.96 350.10 240.98 332.67 254.92 320.02 C 251.30 329.43 246.90 338.52 242.74 347.70 C 235.34 362.89 227.35 378.82 213.46 389.11 C 216.93 381.49 221.01 374.17 224.61 366.61 Z" />
<path fill="#ffffff" opacity="1.00" d=" M 707.17 324.71 C 710.30 324.66 713.51 324.50 716.47 325.72 C 716.42 327.26 717.50 329.64 715.76 330.62 C 713.22 332.25 710.00 331.54 707.16 331.72 C 707.15 329.38 707.15 327.04 707.17 324.71 Z" />
<path fill="#ffffff" opacity="1.00" d=" M 245.07 350.11 C 249.69 342.49 253.72 334.52 258.07 326.75 C 265.18 334.45 266.03 346.08 262.83 355.69 C 257.10 373.34 242.80 389.83 223.60 392.34 C 228.52 377.23 237.20 363.79 245.07 350.11 Z" />
<path fill="#ffffff" opacity="1.00" d=" M 250.63 382.49 C 253.48 373.13 260.35 365.91 265.09 357.55 C 269.50 368.04 261.42 380.51 250.63 382.49 Z" />
<path fill="#ffffff" opacity="1.00" d=" M 355.07 382.50 C 356.87 381.66 358.87 381.63 360.83 381.57 C 360.65 383.71 360.54 385.85 360.40 388.00 C 358.52 386.27 356.76 384.41 355.07 382.50 Z" />
<path fill="#ffffff" opacity="1.00" d=" M 365.05 382.26 C 366.40 382.46 367.74 382.68 369.09 382.94 C 368.35 385.59 365.62 384.31 365.05 382.26 Z" />
<path fill="#ffffff" opacity="1.00" d=" M 354.04 394.57 C 350.19 393.23 347.68 388.40 350.92 385.07 C 351.97 386.28 353.05 387.49 354.13 388.69 C 354.10 390.65 354.09 392.61 354.04 394.57 Z" />
<path fill="#ffffff" opacity="1.00" d=" M 373.19 385.48 C 376.98 388.94 381.78 390.99 386.15 393.60 C 387.68 392.71 388.76 391.40 388.87 389.56 C 391.91 393.64 393.64 398.51 396.55 402.69 C 396.52 404.30 396.50 405.91 396.50 407.53 C 393.80 404.56 388.49 403.11 385.53 406.43 C 384.99 403.18 381.52 402.22 379.83 399.74 C 376.79 399.73 373.00 399.04 370.86 401.77 C 369.68 402.80 369.00 404.93 367.11 404.65 C 364.26 404.50 361.10 404.76 359.30 407.29 C 357.34 410.16 355.23 412.97 353.69 416.10 C 352.66 418.11 354.87 420.55 356.95 419.48 C 359.52 416.45 361.02 412.62 363.80 409.76 C 365.98 408.15 368.76 411.63 370.83 409.73 C 372.40 407.44 374.00 405.03 376.71 403.98 C 378.16 405.47 379.97 406.62 381.18 408.34 C 379.47 409.52 378.05 411.05 376.51 412.43 C 371.77 412.99 365.76 414.48 364.47 419.84 C 358.49 418.54 353.87 423.67 351.05 428.25 C 350.02 427.37 349.04 426.45 347.89 425.75 C 343.59 424.85 340.64 428.84 337.39 430.90 C 337.22 427.14 340.44 424.82 341.55 421.52 C 343.31 417.63 343.44 413.23 345.31 409.37 C 346.12 407.69 346.62 405.89 346.71 404.03 C 349.17 403.35 350.99 401.64 351.80 399.21 C 355.64 400.20 359.36 397.22 358.78 393.17 C 359.61 393.50 361.27 394.15 362.10 394.47 C 364.68 393.94 366.03 391.80 365.63 389.22 C 369.05 391.55 372.10 388.61 373.19 385.48 Z" />
<path fill="#ffffff" opacity="1.00" d=" M 346.16 395.59 C 348.20 394.54 348.35 398.36 346.66 398.74 C 345.13 398.71 345.26 396.33 346.16 395.59 Z" />
<path fill="#ffffff" opacity="1.00" d=" M 390.06 408.99 C 392.26 410.39 394.33 412.00 396.38 413.62 C 394.81 415.92 392.02 416.42 389.41 416.30 C 389.56 413.86 389.84 411.42 390.06 408.99 Z" />
<path fill="#ffffff" opacity="1.00" d=" M 382.54 413.45 C 383.19 412.98 384.00 412.12 384.78 412.90 C 384.74 414.03 384.70 415.18 384.64 416.33 C 379.49 419.54 374.02 422.29 369.59 426.52 C 369.51 424.24 369.47 421.95 369.48 419.67 C 370.92 419.10 372.39 418.57 373.86 418.06 C 375.08 419.10 376.40 420.28 378.11 419.38 C 379.50 417.34 380.49 414.96 382.54 413.45 Z" />
<path fill="#ffffff" opacity="1.00" d=" M 354.02 434.13 C 354.96 429.96 357.89 426.80 361.28 424.39 C 362.63 425.81 364.33 427.11 364.88 429.09 C 360.80 432.80 355.19 434.21 350.30 436.58 L 354.40 434.33 C 350.34 434.95 346.23 434.53 342.38 433.19 C 343.61 432.28 344.85 431.38 346.08 430.49 C 347.46 431.63 348.85 432.77 350.16 433.99 C 351.44 434.05 352.73 434.10 354.02 434.13 Z" />
<path fill="#ffffff" opacity="1.00" d=" M 363.19 488.43 C 365.39 488.26 367.59 488.27 369.80 488.43 L 369.19 489.80 L 370.70 489.21 L 370.50 490.13 C 373.34 493.57 375.29 497.84 379.31 500.17 C 378.15 506.82 373.14 511.81 371.22 518.18 C 377.15 523.46 384.14 527.79 388.63 534.50 C 391.79 539.07 390.54 544.98 389.42 550.02 C 379.66 547.12 371.91 539.30 367.83 530.12 C 362.36 518.01 361.30 504.45 361.50 491.33 L 362.77 491.51 C 362.64 490.96 362.40 489.86 362.27 489.31 L 363.91 489.86 L 363.19 488.43 Z" />
<path fill="#ffffff" opacity="1.00" d=" M 349.57 494.71 C 350.99 493.79 351.74 492.11 353.02 491.00 C 358.11 496.27 354.59 504.05 354.62 510.42 C 349.71 506.41 345.62 501.48 340.52 497.69 C 343.50 496.58 346.61 495.86 349.57 494.71 Z" />
<path fill="#ffffff" opacity="1.00" d=" M 327.89 505.11 C 330.32 505.47 333.00 505.47 335.17 506.73 C 338.44 510.02 341.02 514.20 345.42 516.17 C 344.02 523.03 340.33 529.52 341.33 536.73 C 337.49 535.76 332.57 535.42 330.50 531.46 C 326.10 523.36 328.09 513.88 327.89 505.11 Z" />
<path fill="#ffffff" opacity="1.00" d=" M 260.31 505.68 C 268.81 505.62 277.30 505.63 285.80 505.66 C 291.13 512.00 294.05 519.91 295.14 528.06 C 297.79 544.59 296.40 562.47 305.23 577.40 C 302.81 577.22 299.96 577.81 298.03 575.96 C 291.90 570.67 287.05 564.02 280.51 559.19 C 281.38 551.05 288.59 545.07 288.36 536.65 C 280.84 534.43 273.42 530.92 268.31 524.77 C 263.56 519.51 261.85 512.40 260.31 505.68 Z" />
<path fill="#ffffff" opacity="1.00" d=" M 293.36 505.77 C 298.47 505.62 303.59 505.64 308.71 505.69 C 308.52 509.19 308.79 512.90 307.20 516.14 C 305.68 519.32 301.60 519.22 298.74 520.48 C 296.89 515.59 294.90 510.76 293.36 505.77 Z" />
<path fill="#ffffff" opacity="1.00" d=" M 226.68 512.02 C 237.32 505.61 250.29 510.72 259.39 517.48 C 261.81 518.80 261.67 521.80 262.17 524.14 C 262.94 529.84 262.90 536.41 267.18 540.81 C 271.16 544.31 276.85 543.17 281.59 542.38 C 279.59 547.79 277.92 553.79 279.63 559.52 C 282.79 571.39 291.52 580.54 299.79 589.18 C 309.47 599.89 321.06 609.45 327.12 622.89 C 328.41 625.35 328.13 628.18 328.15 630.87 C 322.22 630.92 316.33 630.22 310.47 629.49 C 313.01 626.40 315.73 623.45 318.37 620.44 C 313.24 621.08 308.12 622.16 302.92 621.93 C 294.05 621.58 285.67 618.28 276.91 617.21 C 271.51 616.44 266.04 616.79 260.61 616.70 C 263.93 594.78 260.91 571.78 251.27 551.75 C 244.60 537.61 235.18 525.06 226.68 512.02 Z" />
<path fill="#ffffff" opacity="1.00" d=" M 354.45 518.18 C 362.83 532.88 372.71 546.78 379.49 562.35 C 383.25 571.14 385.33 581.03 383.27 590.52 C 382.14 595.72 378.64 599.91 375.34 603.91 C 374.76 599.31 374.51 594.66 373.48 590.14 C 369.45 571.64 357.43 556.01 353.82 537.39 C 352.84 531.02 353.36 524.50 354.45 518.18 Z" />
<path fill="#ffffff" opacity="1.00" d=" M 307.97 531.63 C 311.07 532.92 314.36 533.88 317.14 535.83 C 320.07 538.22 321.36 541.98 322.23 545.55 C 325.23 561.89 319.45 578.69 323.85 594.89 C 325.07 599.89 328.92 603.54 332.16 607.31 C 322.61 606.73 315.98 598.62 312.29 590.53 C 304.08 572.27 301.26 550.81 307.97 531.63 Z" />
<path fill="#ffffff" opacity="1.00" d=" M 389.81 564.04 C 389.82 556.02 393.10 548.36 397.96 542.10 L 398.48 542.10 C 413.61 569.51 423.92 599.49 429.45 630.29 C 414.62 630.21 399.79 630.37 384.96 630.22 C 387.23 624.71 389.45 619.05 389.88 613.04 C 391.11 596.72 389.00 580.37 389.81 564.04 Z" />
<path fill="#ffffff" opacity="1.00" d=" M 341.11 552.26 C 349.78 553.69 356.04 560.94 359.70 568.48 C 366.55 582.62 368.17 600.71 358.85 614.16 C 350.33 611.08 344.23 603.31 341.45 594.89 C 336.77 581.16 337.57 566.16 341.11 552.26 Z" />
<path fill="#ffffff" opacity="1.00" d=" M 238.06 568.42 C 241.22 571.45 244.55 574.73 245.69 579.11 C 247.75 586.54 248.00 594.32 248.16 601.99 C 248.36 607.80 247.40 613.62 248.20 619.41 C 244.79 621.63 241.25 623.65 237.87 625.93 C 234.53 627.99 231.15 630.41 227.12 630.78 C 223.76 631.29 220.37 631.02 217.01 630.78 C 222.10 609.44 227.32 587.75 238.06 568.42 Z" />
<path fill="#ffffff" opacity="1.00" d=" M 363.23 618.17 C 367.19 613.47 372.51 610.12 376.29 605.24 C 378.40 606.23 380.45 607.36 382.45 608.58 C 383.69 616.14 380.62 623.28 378.46 630.33 C 372.67 630.66 366.87 630.51 361.08 630.33 C 361.28 626.26 360.44 621.57 363.23 618.17 Z" />
<path fill="#ffffff" opacity="1.00" d=" M 331.65 621.96 C 339.01 617.42 349.10 617.69 356.07 622.87 C 358.70 624.59 358.56 628.02 359.15 630.76 C 349.71 631.30 338.78 631.24 331.63 624.05 C 331.64 623.53 331.65 622.49 331.65 621.96 Z" />
</g>
<g id="#fd0202ff">
<path fill="#fd0202" opacity="1.00" d=" M 424.02 46.84 C 427.42 46.90 430.84 46.68 434.24 46.92 C 436.22 49.11 436.22 52.48 437.37 55.15 C 439.35 60.38 440.06 66.22 442.91 71.03 C 445.14 63.26 447.53 55.52 449.98 47.82 C 450.19 47.59 450.62 47.14 450.83 46.91 C 454.14 46.68 457.48 46.90 460.81 46.85 C 456.86 58.47 452.34 69.89 448.19 81.44 C 444.38 81.44 440.57 81.44 436.76 81.46 C 432.59 69.89 427.77 58.55 424.02 46.84 Z" />
<path fill="#fd0202" opacity="1.00" d=" M 499.34 46.82 C 502.53 46.84 505.73 46.84 508.94 46.84 C 513.36 53.29 517.55 59.91 522.17 66.22 C 522.25 59.76 522.12 53.30 522.25 46.83 C 525.44 46.82 528.63 46.83 531.83 46.90 C 531.83 58.43 531.89 69.97 531.82 81.50 C 528.54 81.44 525.26 81.44 521.98 81.44 C 517.79 75.07 513.41 68.83 509.30 62.41 C 509.08 68.73 509.20 75.05 509.22 81.36 C 505.89 81.47 502.57 81.47 499.24 81.45 C 499.32 69.91 499.15 58.36 499.34 46.82 Z" />
<path fill="#fd0202" opacity="1.00" d=" M 575.98 49.92 C 579.47 46.72 584.55 46.31 589.07 46.47 C 592.79 46.66 596.95 47.54 599.39 50.61 C 600.86 52.34 601.27 54.62 601.93 56.72 C 598.63 57.10 595.32 57.34 592.01 57.45 C 591.39 53.06 586.62 52.32 583.11 53.72 C 583.37 54.86 582.65 57.05 584.29 57.44 C 589.46 59.27 595.46 59.39 599.82 63.08 C 604.47 67.10 603.53 75.18 598.82 78.78 C 593.94 82.66 587.20 82.08 581.41 81.37 C 575.92 80.58 571.84 75.37 572.02 69.88 C 575.29 69.80 578.56 69.62 581.84 69.52 C 581.99 74.15 587.31 76.11 591.04 74.23 C 593.12 73.08 593.22 69.67 590.90 68.76 C 586.28 66.56 580.70 66.66 576.54 63.40 C 572.15 60.41 572.06 53.34 575.98 49.92 Z" />
<path fill="#fd0202" opacity="1.00" d=" M 646.58 46.85 C 650.16 46.93 653.79 46.52 657.34 47.23 C 657.11 58.63 657.28 70.03 657.25 81.43 C 653.67 81.46 650.09 81.44 646.52 81.44 C 646.55 76.78 646.52 72.12 646.56 67.46 C 642.64 67.46 638.73 67.44 634.82 67.50 C 634.81 72.14 634.78 76.79 634.85 81.43 C 631.34 81.45 627.84 81.46 624.34 81.45 C 624.45 69.89 624.14 58.33 624.50 46.78 C 627.93 46.84 631.37 46.82 634.80 46.91 C 634.82 50.87 634.81 54.82 634.80 58.77 C 638.71 58.88 642.62 58.85 646.54 58.85 C 646.53 54.85 646.52 50.85 646.58 46.85 Z" />
<path fill="#fd0202" opacity="1.00" d=" M 673.78 46.83 C 677.54 46.84 681.32 46.84 685.09 46.84 C 689.39 58.37 693.78 69.87 698.01 81.42 C 694.32 81.46 690.63 81.48 686.95 81.39 C 686.42 79.63 686.08 77.79 685.19 76.17 C 681.13 75.96 677.05 76.09 672.98 76.24 C 672.51 77.99 672.03 79.73 671.52 81.47 C 667.92 81.44 664.32 81.46 660.73 81.42 C 665.15 69.92 669.32 58.32 673.78 46.83 M 679.13 55.97 C 678.03 60.16 676.78 64.31 675.42 68.42 C 677.97 68.45 680.54 68.45 683.11 68.42 C 681.81 64.26 680.65 60.06 679.13 55.97 Z" />
<path fill="#fd0202" opacity="1.00" d=" M 698.18 46.83 C 701.81 46.84 705.45 46.84 709.09 46.84 C 711.74 54.99 714.06 63.24 716.83 71.35 C 719.86 63.32 721.81 54.92 724.67 46.82 C 728.10 46.85 731.54 46.84 734.98 46.84 C 731.34 58.55 726.57 69.89 722.49 81.46 C 718.65 81.44 714.82 81.47 710.99 81.39 C 706.86 69.82 702.21 58.44 698.18 46.83 Z" />
<path fill="#fd0202" opacity="1.00" d=" M 392.48 81.45 C 392.56 69.91 392.40 58.36 392.57 46.82 C 401.97 46.86 411.38 46.83 420.78 46.84 C 420.93 49.52 420.94 52.21 420.84 54.90 C 415.00 54.82 409.15 54.88 403.31 54.85 C 403.26 56.52 403.24 58.19 403.23 59.86 C 408.66 59.83 414.10 59.86 419.53 59.83 C 419.56 62.18 419.57 64.54 419.57 66.89 C 414.14 66.82 408.72 66.87 403.30 66.84 C 403.24 69.04 403.21 71.24 403.20 73.43 C 409.30 73.44 415.39 73.44 421.49 73.43 C 421.48 76.11 421.47 78.79 421.48 81.46 C 411.81 81.43 402.15 81.45 392.48 81.45 Z" />
<path fill="#fd0202" opacity="1.00" d=" M 464.41 81.45 C 464.53 69.90 464.22 58.33 464.57 46.78 C 473.96 46.91 483.36 46.81 492.76 46.83 C 492.81 49.51 492.82 52.18 492.82 54.86 C 486.94 54.89 481.07 54.79 475.20 54.93 C 475.18 56.57 475.17 58.21 475.17 59.85 C 480.57 59.82 485.97 59.90 491.38 59.79 C 491.48 62.15 491.51 64.51 491.51 66.88 C 486.08 66.84 480.66 66.85 475.23 66.86 C 475.18 69.05 475.15 71.24 475.14 73.43 C 481.22 73.45 487.31 73.44 493.40 73.43 C 493.40 76.11 493.40 78.79 493.41 81.47 C 483.74 81.43 474.07 81.46 464.41 81.45 Z" />
<path fill="#fd0202" opacity="1.00" d=" M 536.54 47.13 C 547.26 46.52 558.02 46.92 568.76 46.91 C 568.78 49.56 568.78 52.22 568.79 54.87 C 565.30 55.00 561.73 54.51 558.29 55.13 C 557.34 63.90 558.76 72.72 557.85 81.49 C 554.36 81.43 550.88 81.43 547.40 81.45 C 547.43 72.66 547.43 63.88 547.41 55.09 C 543.82 55.11 540.24 55.11 536.66 55.13 C 536.60 52.46 536.58 49.80 536.54 47.13 Z" />
<path fill="#fd0202" opacity="1.00" d=" M 738.69 47.11 C 744.09 46.57 749.53 46.94 754.95 46.84 C 759.07 46.95 763.24 46.47 767.32 47.32 C 767.22 49.81 767.21 52.31 767.21 54.82 C 761.29 54.88 755.37 54.86 749.45 54.85 C 749.40 56.51 749.37 58.18 749.35 59.85 C 754.80 59.84 760.24 59.86 765.70 59.82 C 765.75 62.18 765.76 64.54 765.73 66.90 C 760.29 66.81 754.86 66.88 749.43 66.85 C 749.37 69.04 749.35 71.24 749.34 73.44 C 755.44 73.45 761.55 73.43 767.67 73.44 C 767.64 76.11 767.64 78.78 767.66 81.45 C 758.02 81.43 748.38 81.48 738.74 81.43 C 738.71 69.99 738.79 58.55 738.69 47.11 Z" />
<path fill="#fd0202" opacity="1.00" d=" M 459.50 114.40 C 470.24 114.41 480.98 114.41 491.72 114.40 C 491.71 117.08 491.70 119.76 491.71 122.43 C 488.08 122.42 484.46 122.40 480.84 122.48 C 480.87 131.26 480.85 140.04 480.85 148.82 C 477.35 148.82 473.86 148.82 470.37 148.83 C 470.37 140.03 470.33 131.22 470.39 122.42 C 466.76 122.43 463.12 122.43 459.50 122.42 C 459.51 119.75 459.51 117.08 459.50 114.40 Z" />
<path fill="#fd0202" opacity="1.00" d=" M 505.93 114.47 C 509.77 114.38 513.61 114.42 517.46 114.37 C 521.89 125.82 526.03 137.37 530.48 148.81 C 526.75 148.58 522.82 149.35 519.22 148.40 C 518.45 146.98 518.42 145.12 517.98 143.55 C 513.84 143.33 509.69 143.45 505.55 143.38 C 505.04 145.14 504.55 146.90 504.10 148.67 C 500.45 148.88 496.80 148.84 493.16 148.79 C 497.42 137.35 501.82 125.96 505.93 114.47 M 507.94 135.80 C 510.46 135.82 512.99 135.81 515.53 135.74 C 514.19 131.85 513.03 127.90 511.90 123.95 C 509.96 127.66 509.22 131.84 507.94 135.80 Z" />
<path fill="#fd0202" opacity="1.00" d=" M 533.78 114.53 C 537.35 114.36 540.93 114.38 544.52 114.41 C 544.50 118.78 544.47 123.14 544.55 127.50 C 548.22 123.10 552.01 118.80 555.68 114.40 C 560.29 114.42 564.90 114.38 569.51 114.45 C 565.56 118.87 561.21 122.93 557.31 127.39 C 561.41 134.62 565.88 141.66 570.24 148.75 C 565.87 148.84 561.51 148.86 557.15 148.76 C 554.85 144.02 552.37 139.38 550.01 134.67 C 548.15 136.64 546.29 138.60 544.46 140.59 C 544.50 143.34 544.50 146.08 544.51 148.82 C 540.94 148.83 537.38 148.83 533.82 148.74 C 533.81 137.33 533.88 125.93 533.78 114.53 Z" />
<path fill="#fd0202" opacity="1.00" d=" M 573.70 114.45 C 583.24 114.36 592.77 114.43 602.30 114.41 C 602.28 117.09 602.28 119.76 602.30 122.43 C 596.33 122.43 590.35 122.42 584.38 122.42 C 584.38 124.09 584.39 125.76 584.40 127.43 C 589.87 127.41 595.34 127.42 600.81 127.41 C 600.80 129.76 600.79 132.10 600.78 134.44 C 595.32 134.42 589.86 134.43 584.40 134.42 C 584.40 136.54 584.40 138.68 584.41 140.81 C 590.49 140.81 596.58 140.80 602.67 140.80 C 602.71 143.47 602.72 146.14 602.73 148.82 C 593.06 148.79 583.39 148.85 573.72 148.80 C 573.72 137.35 573.74 125.90 573.70 114.45 Z" />
<path fill="#fd0202" opacity="1.00" d=" M 608.51 114.42 C 611.82 114.40 615.13 114.40 618.44 114.44 C 622.70 120.84 626.95 127.26 631.36 133.57 C 631.48 127.18 631.42 120.80 631.39 114.42 C 634.71 114.41 638.03 114.40 641.36 114.43 C 641.31 125.90 641.37 137.36 641.33 148.83 C 637.96 148.82 634.59 148.83 631.23 148.75 C 627.02 142.44 622.83 136.10 618.50 129.87 C 618.34 136.19 618.45 142.50 618.43 148.82 C 615.14 148.81 611.86 148.80 608.58 148.85 C 608.45 137.37 608.57 125.89 608.51 114.42 Z" />
<path fill="#fd0202" opacity="1.00" d=" M 661.77 114.57 C 672.59 114.21 683.43 114.48 694.27 114.43 C 694.24 117.09 694.24 119.75 694.26 122.41 C 690.61 122.43 686.96 122.42 683.32 122.43 C 683.36 131.24 683.40 140.05 683.30 148.86 C 679.76 148.80 676.23 148.81 672.70 148.79 C 672.75 140.02 672.63 131.25 672.78 122.49 C 669.21 122.39 665.64 122.41 662.08 122.45 C 661.84 119.83 661.79 117.20 661.77 114.57 Z" />
<path fill="#fd0202" opacity="1.00" d=" M 699.14 114.40 C 702.64 114.40 706.15 114.41 709.67 114.41 C 709.64 118.40 709.65 122.40 709.64 126.40 C 713.54 126.41 717.44 126.42 721.35 126.40 C 721.32 122.40 721.33 118.40 721.32 114.40 C 724.81 114.41 728.30 114.41 731.80 114.41 C 731.79 125.88 731.82 137.35 731.78 148.82 C 728.31 148.81 724.84 148.80 721.37 148.85 C 721.30 144.29 721.27 139.73 721.41 135.18 C 717.52 134.60 713.58 134.87 709.67 134.83 C 709.64 139.49 709.66 144.16 709.66 148.82 C 706.15 148.81 702.64 148.82 699.14 148.83 C 699.14 137.35 699.14 125.88 699.14 114.40 Z" />
<path fill="#fd0202" opacity="1.00" d=" M 738.78 114.48 C 748.28 114.33 757.79 114.42 767.29 114.44 C 767.27 117.10 767.28 119.75 767.29 122.41 C 761.34 122.43 755.39 122.41 749.44 122.43 C 749.44 124.09 749.45 125.76 749.46 127.43 C 754.92 127.42 760.39 127.41 765.86 127.42 C 765.84 129.76 765.84 132.09 765.84 134.43 C 760.37 134.42 754.90 134.43 749.44 134.42 C 749.44 136.55 749.45 138.68 749.47 140.82 C 755.53 140.78 761.59 140.84 767.66 140.79 C 767.71 143.48 767.71 146.18 767.62 148.88 C 758.01 148.71 748.40 148.90 738.80 148.78 C 738.80 137.35 738.84 125.91 738.78 114.48 Z" />
<path fill="#fd0202" opacity="1.00" d=" M 555.67 181.94 C 561.83 181.31 569.02 182.88 572.77 188.24 C 576.13 192.78 576.18 198.78 575.51 204.15 C 574.77 210.27 569.92 215.55 563.87 216.75 C 557.78 218.12 550.64 217.50 545.72 213.36 C 539.97 208.09 539.20 199.21 541.53 192.14 C 543.54 186.17 549.52 182.33 555.67 181.94 M 556.11 190.05 C 552.15 190.99 550.96 195.38 550.86 198.94 C 550.91 201.70 551.01 204.82 552.87 207.04 C 555.32 210.16 560.55 210.19 563.27 207.41 C 565.78 203.99 565.60 199.39 564.98 195.41 C 564.31 191.46 559.90 188.79 556.11 190.05 Z" />
<path fill="#fd0202" opacity="1.00" d=" M 585.94 183.82 C 591.29 181.18 597.74 181.25 603.33 183.12 C 607.15 184.54 609.28 188.42 609.79 192.29 C 606.49 192.40 603.20 192.59 599.91 192.75 C 599.25 188.00 592.24 186.50 590.22 191.07 C 594.78 195.45 602.23 193.87 607.09 198.00 C 613.05 202.23 611.36 212.17 605.10 215.29 C 599.52 218.11 592.72 217.93 586.88 216.02 C 582.39 214.50 580.39 209.76 579.45 205.50 C 582.76 205.32 586.11 205.34 589.38 204.71 C 590.13 208.82 594.62 211.98 598.59 209.77 C 601.04 208.88 601.30 205.14 598.81 204.13 C 593.96 201.91 588.04 202.03 583.89 198.31 C 579.27 194.54 580.63 186.31 585.94 183.82 Z" />
<path fill="#fd0202" opacity="1.00" d=" M 729.56 182.78 C 734.97 181.32 741.07 181.24 746.12 183.92 C 749.17 185.58 750.45 189.04 750.96 192.28 C 747.64 192.42 744.33 192.61 741.02 192.69 C 740.57 189.80 737.94 187.74 735.02 188.37 C 732.73 187.92 730.78 191.52 733.11 192.63 C 738.78 195.00 746.08 194.66 750.25 199.88 C 754.20 205.14 751.33 213.20 745.51 215.73 C 740.07 218.00 733.80 217.86 728.24 216.09 C 723.77 214.54 721.37 209.89 720.95 205.42 C 724.15 205.36 727.38 205.31 730.54 204.68 C 731.51 207.55 733.51 210.76 737.02 210.40 C 739.83 210.79 743.12 208.01 741.27 205.15 C 738.37 202.40 734.00 202.72 730.48 201.24 C 726.39 199.97 721.97 196.73 722.31 191.97 C 722.02 187.60 725.58 183.94 729.56 182.78 Z" />
<path fill="#fd0202" opacity="1.00" d=" M 496.32 182.37 C 500.95 182.37 505.58 182.37 510.21 182.38 C 511.45 187.52 512.88 192.61 514.12 197.76 C 514.57 199.31 514.74 201.06 515.92 202.30 C 517.56 195.67 519.41 189.09 520.90 182.43 C 525.54 182.32 530.18 182.38 534.82 182.38 C 534.80 193.85 534.81 205.31 534.82 216.78 C 531.97 216.78 529.12 216.78 526.27 216.78 C 526.21 208.24 526.43 199.70 526.16 191.17 C 523.73 199.66 521.80 208.29 519.45 216.80 C 516.84 216.78 514.24 216.77 511.64 216.76 C 509.70 208.30 506.98 200.02 505.61 191.44 C 504.18 199.81 505.08 208.33 504.85 216.77 C 502.01 216.78 499.17 216.78 496.34 216.78 C 496.33 205.31 496.36 193.84 496.32 182.37 Z" />
<path fill="#fd0202" opacity="1.00" d=" M 613.66 182.39 C 624.39 182.32 635.12 182.42 645.85 182.34 C 646.20 185.02 646.21 187.73 645.88 190.41 C 642.33 190.38 638.78 190.38 635.23 190.38 C 635.22 199.18 635.24 207.99 635.22 216.79 C 631.67 216.78 628.12 216.78 624.57 216.78 C 624.57 207.99 624.53 199.19 624.59 190.39 C 620.95 190.39 617.32 190.39 613.69 190.38 C 613.68 187.72 613.67 185.05 613.66 182.39 Z" />
<path fill="#fd0202" opacity="1.00" d=" M 667.14 182.36 C 672.78 182.41 678.42 182.30 684.06 182.41 C 688.37 182.41 692.89 184.13 695.39 187.79 C 698.85 192.81 698.92 199.27 698.15 205.09 C 697.30 210.75 692.65 215.73 686.88 216.42 C 680.33 217.18 673.71 216.60 667.14 216.79 C 667.14 205.31 667.14 193.84 667.14 182.36 M 677.63 190.33 C 677.65 196.49 677.64 202.64 677.63 208.80 C 680.09 208.72 682.63 208.98 685.01 208.20 C 686.70 206.98 687.77 205.05 687.76 202.95 C 687.91 199.47 688.35 195.57 686.38 192.50 C 684.24 189.94 680.60 190.45 677.63 190.33 Z" />
<path fill="#fd0202" opacity="1.00" d=" M 704.52 182.38 C 708.09 182.35 711.66 182.34 715.24 182.44 C 715.14 193.89 715.29 205.35 715.17 216.80 C 711.62 216.77 708.07 216.78 704.53 216.78 C 704.54 205.31 704.56 193.85 704.52 182.38 Z" />
<path fill="#fd0202" opacity="1.00" d=" M 754.94 200.37 C 759.53 200.35 764.12 200.36 768.71 200.36 C 768.70 202.84 768.69 205.32 768.69 207.80 C 764.17 207.78 759.65 207.78 755.13 207.81 C 754.95 205.33 754.87 202.85 754.94 200.37 Z" />
<path fill="#fd0202" opacity="1.00" d=" M 612.68 249.72 C 616.47 249.76 620.27 249.71 624.08 249.79 C 628.31 261.32 632.73 272.78 636.95 284.32 C 633.26 284.33 629.57 284.33 625.89 284.29 C 625.33 282.44 624.77 280.60 624.21 278.76 C 620.14 278.75 616.07 278.72 612.01 278.79 C 611.49 280.63 610.98 282.49 610.43 284.33 C 606.81 284.32 603.19 284.33 599.58 284.29 C 604.10 272.82 608.17 261.19 612.68 249.72 M 617.87 259.81 C 616.71 263.66 615.58 267.51 614.32 271.33 C 616.87 271.33 619.42 271.32 621.99 271.30 C 620.51 267.53 620.27 263.11 617.87 259.81 Z" />
<path fill="#fd0202" opacity="1.00" d=" M 642.70 252.84 C 645.38 250.17 649.32 249.43 652.96 249.33 C 657.03 249.21 661.51 249.51 664.85 252.14 C 667.19 253.92 667.97 256.92 668.65 259.64 C 665.37 259.78 662.11 260.11 658.84 260.37 C 658.18 256.96 654.50 254.53 651.22 256.19 C 649.29 256.61 648.92 259.48 650.84 260.20 C 656.29 262.25 662.91 262.20 667.25 266.60 C 671.36 271.03 669.92 278.64 665.11 281.97 C 659.85 285.57 652.90 285.16 646.96 283.90 C 641.82 282.76 639.04 277.66 638.45 272.80 C 641.74 272.70 645.04 272.54 648.33 272.26 C 649.13 274.12 649.67 276.42 651.75 277.29 C 654.37 278.17 658.17 278.16 659.41 275.15 C 659.88 272.90 657.89 271.38 655.97 270.87 C 651.15 269.36 645.53 268.91 641.92 264.97 C 638.78 261.60 639.32 255.84 642.70 252.84 Z" />
<path fill="#fd0202" opacity="1.00" d=" M 733.41 260.03 C 735.32 253.81 741.49 249.58 747.90 249.41 C 753.06 249.24 759.22 248.85 763.17 252.83 C 765.06 254.50 765.96 256.90 766.89 259.18 C 763.50 259.68 760.14 260.30 756.74 260.69 C 753.95 255.44 745.24 256.43 743.56 262.08 C 742.08 266.97 742.27 274.37 747.94 276.44 C 751.38 277.00 755.99 277.09 758.27 274.04 L 757.76 272.38 C 755.45 272.24 753.14 272.29 750.84 272.28 C 750.84 269.65 750.83 267.01 750.83 264.38 C 756.31 264.25 761.80 264.31 767.29 264.34 C 767.25 269.23 767.31 274.12 767.24 279.02 C 759.83 284.78 749.35 286.68 740.67 282.84 C 732.66 278.68 730.78 268.00 733.41 260.03 Z" />
<path fill="#fd0202" opacity="1.00" d=" M 501.80 249.75 C 508.24 249.82 514.69 249.59 521.13 249.85 C 525.13 249.98 529.24 252.32 530.42 256.32 C 531.32 260.49 531.15 265.63 527.57 268.55 C 523.40 272.13 517.53 271.25 512.47 271.33 C 512.48 275.66 512.48 280.00 512.48 284.33 C 508.91 284.32 505.35 284.33 501.79 284.30 C 501.80 272.78 501.77 261.27 501.80 249.75 M 512.50 256.69 C 512.48 259.24 512.47 261.80 512.47 264.36 C 515.49 264.56 521.08 264.55 520.61 260.14 C 520.29 256.17 515.33 256.74 512.50 256.69 Z" />
<path fill="#fd0202" opacity="1.00" d=" M 536.53 249.74 C 540.09 249.75 543.64 249.74 547.20 249.76 C 547.22 258.42 547.18 267.08 547.21 275.75 C 552.67 275.73 558.14 275.75 563.61 275.72 C 563.65 278.58 563.65 281.45 563.65 284.32 C 554.60 284.32 545.55 284.33 536.51 284.31 C 536.55 272.79 536.50 261.26 536.53 249.74 Z" />
<path fill="#fd0202" opacity="1.00" d=" M 568.50 249.74 C 577.92 249.75 587.34 249.75 596.76 249.74 C 596.79 252.41 596.80 255.09 596.80 257.77 C 590.93 257.76 585.07 257.76 579.21 257.76 C 579.18 259.42 579.17 261.08 579.17 262.74 C 584.60 262.73 590.04 262.74 595.49 262.73 C 595.50 265.07 595.51 267.42 595.52 269.76 C 590.08 269.74 584.65 269.75 579.21 269.75 C 579.18 271.93 579.17 274.12 579.16 276.31 C 585.25 276.34 591.34 276.24 597.43 276.37 C 597.39 279.02 597.39 281.67 597.39 284.32 C 587.76 284.32 578.13 284.31 568.50 284.33 C 568.48 272.80 568.49 261.27 568.50 249.74 Z" />
<path fill="#fd0202" opacity="1.00" d=" M 675.45 284.32 C 675.49 272.79 675.38 261.25 675.49 249.72 C 678.93 249.75 682.37 249.77 685.81 249.68 C 686.59 261.19 685.92 272.76 686.16 284.30 C 682.59 284.33 679.01 284.32 675.45 284.32 Z" />
<path fill="#fd0202" opacity="1.00" d=" M 693.70 249.74 C 696.92 249.75 700.14 249.76 703.37 249.69 C 707.93 255.99 712.12 262.55 716.50 268.97 C 716.68 262.56 716.51 256.15 716.59 249.74 C 719.90 249.74 723.22 249.75 726.54 249.73 C 726.64 261.26 726.57 272.80 726.57 284.33 C 723.28 284.31 719.99 284.31 716.71 284.34 C 712.24 278.06 708.14 271.53 703.69 265.23 C 703.60 271.61 703.74 277.99 703.61 284.36 C 700.30 284.31 696.99 284.31 693.69 284.31 C 693.70 272.79 693.67 261.26 693.70 249.74 Z" />
<path fill="#fd0202" opacity="1.00" d=" M 656.42 317.69 C 659.89 317.71 663.37 317.70 666.84 317.72 C 666.87 324.17 666.80 330.63 666.85 337.08 C 667.02 339.21 666.91 341.78 668.69 343.31 C 671.66 346.02 677.74 344.94 678.49 340.62 C 678.82 332.99 678.51 325.35 678.62 317.71 C 682.18 317.71 685.73 317.70 689.29 317.71 C 689.26 324.80 689.33 331.89 689.28 338.98 C 689.33 344.69 685.60 350.45 679.96 351.97 C 675.42 353.10 670.63 352.83 666.07 352.01 C 660.58 350.78 656.73 345.50 656.51 339.99 C 656.25 332.56 656.45 325.12 656.42 317.69 Z" />
<path fill="#fd0202" opacity="1.00" d=" M 619.33 325.73 C 619.32 323.04 619.33 320.36 619.39 317.69 C 630.11 317.73 640.83 317.70 651.54 317.70 C 651.55 320.38 651.55 323.05 651.56 325.73 C 647.94 325.71 644.33 325.71 640.73 325.73 C 640.72 334.57 640.71 343.41 640.74 352.25 C 637.22 352.26 633.70 352.26 630.19 352.25 C 630.22 343.40 630.19 334.56 630.21 325.72 C 626.58 325.72 622.95 325.72 619.33 325.73 Z" />
<path fill="#fd0202" opacity="1.00" d=" M 696.51 317.70 C 704.65 318.05 712.91 316.95 720.97 318.43 C 727.40 319.80 729.41 328.69 725.40 333.44 C 724.02 335.36 721.73 336.14 719.63 336.97 C 725.41 340.06 727.04 346.94 730.10 352.24 C 726.22 352.27 722.34 352.21 718.47 352.34 C 715.81 348.29 714.07 343.68 711.27 339.72 C 710.40 338.30 708.62 338.41 707.22 338.05 C 707.11 342.78 707.17 347.51 707.16 352.25 C 703.60 352.26 700.04 352.26 696.48 352.26 C 696.51 340.74 696.46 329.22 696.51 317.70 M 707.17 324.71 C 707.15 327.04 707.15 329.38 707.16 331.72 C 710.00 331.54 713.22 332.25 715.76 330.62 C 717.50 329.64 716.42 327.26 716.47 325.72 C 713.51 324.50 710.30 324.66 707.17 324.71 Z" />
<path fill="#fd0202" opacity="1.00" d=" M 733.64 317.71 C 736.89 317.70 740.13 317.72 743.38 317.67 C 747.93 323.87 751.87 330.51 756.45 336.69 C 756.65 330.36 756.47 324.03 756.55 317.70 C 759.87 317.70 763.19 317.71 766.52 317.70 C 766.57 329.22 766.53 340.74 766.54 352.26 C 763.24 352.25 759.94 352.24 756.65 352.28 C 752.21 346.09 748.29 339.55 743.70 333.47 C 743.51 339.74 743.70 346.01 743.59 352.28 C 740.27 352.25 736.96 352.25 733.65 352.25 C 733.65 340.74 733.65 329.22 733.64 317.71 Z" />
</g>
<g id="#010101ff">
<path fill="#010101" opacity="1.00" d=" M 184.13 86.25 C 207.45 78.91 231.11 72.67 254.49 65.52 C 271.69 83.52 283.45 105.78 293.87 128.17 C 304.10 150.15 313.17 172.72 325.07 193.88 C 328.31 199.35 331.29 205.04 335.40 209.92 C 348.75 206.99 361.59 202.31 374.43 197.66 C 399.33 187.92 425.48 179.85 452.47 179.74 C 451.86 189.14 447.67 198.31 440.64 204.62 C 432.68 211.87 422.32 215.63 412.14 218.54 C 391.01 224.39 368.32 225.98 348.87 236.88 C 363.81 244.79 378.90 253.00 391.25 264.72 C 408.52 280.66 418.45 303.98 418.82 327.40 C 425.39 332.55 432.93 336.63 441.01 338.81 C 449.31 340.85 458.10 338.95 465.53 334.97 C 463.53 331.14 460.68 327.79 459.02 323.79 C 457.85 320.84 457.93 316.62 461.01 314.86 C 465.29 312.14 470.56 313.91 474.66 316.11 C 477.00 325.64 475.99 335.46 475.75 345.14 C 465.14 350.49 454.16 356.37 442.02 356.78 C 436.20 357.14 430.81 354.58 425.69 352.15 C 426.25 374.01 424.21 396.12 417.67 417.07 C 410.67 440.99 396.40 462.32 378.65 479.63 C 382.46 486.42 387.30 492.91 394.07 497.00 C 413.19 509.09 436.95 510.43 456.13 522.40 C 469.40 517.33 478.30 505.53 485.60 493.91 C 495.00 479.47 506.44 465.76 511.30 448.93 C 512.76 444.05 513.06 438.90 512.76 433.84 C 509.40 433.56 505.56 433.62 503.03 431.02 C 498.18 426.50 493.73 421.52 488.32 417.62 C 492.52 419.11 496.70 416.95 500.66 415.70 C 498.91 412.93 497.16 410.16 495.52 407.33 C 496.80 405.39 498.03 403.42 499.20 401.41 C 509.72 407.29 520.37 415.43 523.85 427.54 C 526.58 437.33 523.60 447.56 519.59 456.55 C 512.36 472.45 501.48 486.32 493.62 501.88 C 488.19 510.52 483.50 519.85 476.07 527.02 C 467.77 534.83 455.21 538.62 444.22 534.83 C 434.69 531.65 427.75 523.99 419.21 519.05 C 413.05 515.21 405.92 513.11 398.69 512.62 C 404.25 533.41 414.84 552.30 422.91 572.13 C 430.41 590.43 435.60 609.90 435.89 629.77 C 456.25 632.18 476.75 630.56 497.12 629.04 C 514.20 627.44 531.62 626.38 548.49 630.31 C 544.07 631.49 539.49 631.64 534.98 632.15 C 509.04 634.32 483.00 633.18 457.01 633.53 C 382.66 632.59 308.37 638.36 234.02 636.07 C 218.24 635.25 202.40 635.08 186.69 633.41 C 191.12 633.58 195.92 634.04 199.93 631.72 C 204.19 629.49 206.90 625.22 208.62 620.86 C 213.59 608.04 213.74 593.88 219.06 581.16 C 222.20 573.34 227.08 566.42 230.67 558.84 C 233.05 553.58 235.13 547.65 233.48 541.86 C 230.84 529.14 221.05 519.53 211.03 512.02 C 192.95 498.80 172.33 489.23 155.39 474.42 C 147.81 467.74 140.90 460.11 136.08 451.17 C 125.81 431.21 120.84 408.25 123.57 385.86 C 126.64 360.51 135.54 336.37 139.86 311.26 C 110.03 319.17 83.09 335.74 52.59 341.45 C 47.85 333.25 44.32 323.78 45.74 314.17 C 63.10 305.55 81.29 298.78 99.55 292.36 C 112.09 287.84 124.57 283.09 136.55 277.23 C 108.70 237.64 88.26 192.91 55.91 156.50 C 69.36 141.13 85.94 128.75 103.72 118.82 C 129.05 104.67 156.53 94.93 184.13 86.25 M 322.04 251.53 C 318.99 252.21 315.93 252.85 312.85 253.35 C 297.99 256.04 283.90 261.64 269.81 266.90 C 249.08 274.76 228.52 283.13 208.42 292.50 C 195.30 299.07 181.89 305.36 170.17 314.28 C 164.45 318.58 160.26 324.54 156.80 330.74 C 145.93 349.81 142.32 372.32 143.46 394.04 C 145.05 418.12 153.53 442.62 170.84 459.94 C 167.01 428.26 167.43 395.72 157.64 365.04 C 170.70 350.75 179.06 332.63 193.58 319.62 C 202.13 312.08 212.80 306.99 224.04 305.09 C 230.94 303.82 237.99 304.33 244.97 304.27 C 248.66 304.35 252.57 303.85 256.02 305.46 C 259.61 307.22 262.53 310.31 263.96 314.06 C 268.52 325.88 271.67 338.35 272.23 351.04 C 272.67 362.55 271.27 374.84 264.32 384.42 C 258.37 393.06 248.17 397.78 238.02 399.22 C 228.68 400.63 218.97 398.82 210.62 394.47 C 194.51 386.48 182.48 372.46 166.79 363.83 C 166.74 383.40 171.07 402.58 173.71 421.88 C 175.70 436.47 177.30 451.51 173.57 465.96 C 188.82 475.57 203.34 486.92 220.65 492.68 C 231.12 496.03 242.09 497.52 253.03 498.41 C 273.71 499.51 294.71 499.29 314.92 494.24 C 344.49 487.41 372.68 471.53 390.94 446.90 C 404.12 429.17 412.19 407.88 415.07 386.03 C 416.56 373.06 417.43 359.82 415.44 346.85 C 408.42 346.68 400.67 345.38 394.41 349.42 C 386.44 354.33 382.65 363.28 378.29 371.13 C 366.02 373.39 353.65 376.94 341.07 375.38 C 335.20 374.78 329.81 372.06 323.96 371.45 C 320.44 372.23 317.69 374.86 315.07 377.18 C 302.82 389.27 295.86 405.53 283.93 417.88 C 279.25 422.51 272.74 426.63 265.88 425.14 C 258.05 423.21 252.68 416.72 247.57 410.96 C 251.46 406.43 256.14 400.40 262.88 401.54 C 267.13 405.56 266.95 412.11 270.79 416.40 C 274.97 404.53 279.52 392.72 285.74 381.75 C 293.81 367.43 305.47 353.58 321.91 349.01 C 334.31 345.31 347.14 349.65 358.45 354.76 C 362.07 346.32 367.66 338.30 375.91 333.88 C 386.07 328.09 398.14 327.70 409.54 327.88 C 408.02 310.22 404.39 291.87 393.48 277.44 C 383.56 263.70 367.59 255.24 351.08 252.44 C 341.50 250.65 331.72 251.35 322.04 251.53 M 223.85 310.47 C 216.50 332.91 203.58 352.86 193.62 374.13 C 198.08 377.40 201.67 381.62 205.62 385.45 C 207.46 384.89 210.57 386.09 211.52 383.90 C 222.31 360.36 240.83 340.00 244.96 313.71 C 238.59 309.96 230.98 310.16 223.85 310.47 M 187.33 346.12 C 187.23 350.44 188.72 354.59 189.67 358.76 C 197.82 345.45 208.44 332.77 211.05 316.92 C 198.07 320.48 188.60 332.91 187.33 346.12 M 224.61 366.61 C 221.01 374.17 216.93 381.49 213.46 389.11 C 227.35 378.82 235.34 362.89 242.74 347.70 C 246.90 338.52 251.30 329.43 254.92 320.02 C 240.98 332.67 232.96 350.10 224.61 366.61 M 245.07 350.11 C 237.20 363.79 228.52 377.23 223.60 392.34 C 242.80 389.83 257.10 373.34 262.83 355.69 C 266.03 346.08 265.18 334.45 258.07 326.75 C 253.72 334.52 249.69 342.49 245.07 350.11 M 250.63 382.49 C 261.42 380.51 269.50 368.04 265.09 357.55 C 260.35 365.91 253.48 373.13 250.63 382.49 M 363.19 488.43 L 363.91 489.86 L 362.27 489.31 C 362.40 489.86 362.64 490.96 362.77 491.51 L 361.50 491.33 C 361.30 504.45 362.36 518.01 367.83 530.12 C 371.91 539.30 379.66 547.12 389.42 550.02 C 390.54 544.98 391.79 539.07 388.63 534.50 C 384.14 527.79 377.15 523.46 371.22 518.18 C 373.14 511.81 378.15 506.82 379.31 500.17 C 375.29 497.84 373.34 493.57 370.50 490.13 L 370.70 489.21 L 369.19 489.80 L 369.80 488.43 C 367.59 488.27 365.39 488.26 363.19 488.43 M 349.57 494.71 C 346.61 495.86 343.50 496.58 340.52 497.69 C 345.62 501.48 349.71 506.41 354.62 510.42 C 354.59 504.05 358.11 496.27 353.02 491.00 C 351.74 492.11 350.99 493.79 349.57 494.71 M 327.89 505.11 C 328.09 513.88 326.10 523.36 330.50 531.46 C 332.57 535.42 337.49 535.76 341.33 536.73 C 340.33 529.52 344.02 523.03 345.42 516.17 C 341.02 514.20 338.44 510.02 335.17 506.73 C 333.00 505.47 330.32 505.47 327.89 505.11 M 260.31 505.68 C 261.85 512.40 263.56 519.51 268.31 524.77 C 273.42 530.92 280.84 534.43 288.36 536.65 C 288.59 545.07 281.38 551.05 280.51 559.19 C 287.05 564.02 291.90 570.67 298.03 575.96 C 299.96 577.81 302.81 577.22 305.23 577.40 C 296.40 562.47 297.79 544.59 295.14 528.06 C 294.05 519.91 291.13 512.00 285.80 505.66 C 277.30 505.63 268.81 505.62 260.31 505.68 M 293.36 505.77 C 294.90 510.76 296.89 515.59 298.74 520.48 C 301.60 519.22 305.68 519.32 307.20 516.14 C 308.79 512.90 308.52 509.19 308.71 505.69 C 303.59 505.64 298.47 505.62 293.36 505.77 M 226.68 512.02 C 235.18 525.06 244.60 537.61 251.27 551.75 C 260.91 571.78 263.93 594.78 260.61 616.70 C 266.04 616.79 271.51 616.44 276.91 617.21 C 285.67 618.28 294.05 621.58 302.92 621.93 C 308.12 622.16 313.24 621.08 318.37 620.44 C 315.73 623.45 313.01 626.40 310.47 629.49 C 316.33 630.22 322.22 630.92 328.15 630.87 C 328.13 628.18 328.41 625.35 327.12 622.89 C 321.06 609.45 309.47 599.89 299.79 589.18 C 291.52 580.54 282.79 571.39 279.63 559.52 C 277.92 553.79 279.59 547.79 281.59 542.38 C 276.85 543.17 271.16 544.31 267.18 540.81 C 262.90 536.41 262.94 529.84 262.17 524.14 C 261.67 521.80 261.81 518.80 259.39 517.48 C 250.29 510.72 237.32 505.61 226.68 512.02 M 354.45 518.18 C 353.36 524.50 352.84 531.02 353.82 537.39 C 357.43 556.01 369.45 571.64 373.48 590.14 C 374.51 594.66 374.76 599.31 375.34 603.91 C 378.64 599.91 382.14 595.72 383.27 590.52 C 385.33 581.03 383.25 571.14 379.49 562.35 C 372.71 546.78 362.83 532.88 354.45 518.18 M 307.97 531.63 C 301.26 550.81 304.08 572.27 312.29 590.53 C 315.98 598.62 322.61 606.73 332.16 607.31 C 328.92 603.54 325.07 599.89 323.85 594.89 C 319.45 578.69 325.23 561.89 322.23 545.55 C 321.36 541.98 320.07 538.22 317.14 535.83 C 314.36 533.88 311.07 532.92 307.97 531.63 M 389.81 564.04 C 389.00 580.37 391.11 596.72 389.88 613.04 C 389.45 619.05 387.23 624.71 384.96 630.22 C 399.79 630.37 414.62 630.21 429.45 630.29 C 423.92 599.49 413.61 569.51 398.48 542.10 L 397.96 542.10 C 393.10 548.36 389.82 556.02 389.81 564.04 M 341.11 552.26 C 337.57 566.16 336.77 581.16 341.45 594.89 C 344.23 603.31 350.33 611.08 358.85 614.16 C 368.17 600.71 366.55 582.62 359.70 568.48 C 356.04 560.94 349.78 553.69 341.11 552.26 M 238.06 568.42 C 227.32 587.75 222.10 609.44 217.01 630.78 C 220.37 631.02 223.76 631.29 227.12 630.78 C 231.15 630.41 234.53 627.99 237.87 625.93 C 241.25 623.65 244.79 621.63 248.20 619.41 C 247.40 613.62 248.36 607.80 248.16 601.99 C 248.00 594.32 247.75 586.54 245.69 579.11 C 244.55 574.73 241.22 571.45 238.06 568.42 M 363.23 618.17 C 360.44 621.57 361.28 626.26 361.08 630.33 C 366.87 630.51 372.67 630.66 378.46 630.33 C 380.62 623.28 383.69 616.14 382.45 608.58 C 380.45 607.36 378.40 606.23 376.29 605.24 C 372.51 610.12 367.19 613.47 363.23 618.17 M 331.65 621.96 C 331.65 622.49 331.64 623.53 331.63 624.05 C 338.78 631.24 349.71 631.30 359.15 630.76 C 358.56 628.02 358.70 624.59 356.07 622.87 C 349.10 617.69 339.01 617.42 331.65 621.96 Z" />
<path fill="#010101" opacity="1.00" d=" M 317.57 256.67 C 318.85 256.53 320.14 256.39 321.43 256.27 C 321.64 258.31 321.62 260.36 321.58 262.42 C 322.43 263.49 323.19 264.63 323.92 265.79 C 321.33 268.90 319.34 273.04 314.91 273.77 C 315.50 274.05 316.68 274.60 317.27 274.88 C 316.95 278.14 313.78 280.56 312.55 283.64 C 311.99 283.80 310.87 284.13 310.32 284.30 C 309.96 287.42 308.49 290.21 307.44 293.13 C 305.74 298.67 304.85 304.43 302.83 309.87 C 302.47 313.31 302.86 319.58 297.86 319.45 C 297.63 318.79 297.15 317.46 296.92 316.80 C 296.46 316.64 295.55 316.33 295.09 316.18 C 294.52 314.48 293.67 312.80 293.72 310.98 C 293.95 308.11 292.24 305.66 291.49 303.00 C 291.97 302.58 292.91 301.76 293.39 301.34 C 293.26 297.66 293.66 293.99 293.65 290.31 C 294.08 290.05 294.94 289.54 295.37 289.28 C 297.28 284.78 297.60 279.87 298.33 275.11 C 301.68 273.97 301.84 270.16 303.58 267.60 C 305.64 265.05 307.93 262.52 311.19 261.58 C 313.98 260.97 315.64 258.55 317.57 256.67 Z" />
<path fill="#010101" opacity="1.00" d=" M 342.86 281.37 C 354.82 280.08 366.71 278.26 378.69 277.17 C 375.96 293.38 379.14 310.45 373.32 326.16 C 370.21 334.83 363.01 342.14 353.90 344.25 C 345.86 346.02 337.03 345.92 329.49 342.30 C 321.60 338.78 314.85 333.31 308.05 328.10 C 308.80 322.35 309.02 316.50 308.02 310.76 C 307.40 305.82 305.90 300.31 308.81 295.80 C 312.61 289.32 319.95 285.44 327.26 284.42 C 332.49 283.54 337.68 282.44 342.86 281.37 M 328.07 295.42 C 322.86 297.11 317.44 300.33 315.67 305.82 C 315.42 308.94 316.65 311.92 317.36 314.91 C 319.95 311.45 322.33 307.48 326.38 305.54 C 334.70 301.09 344.29 300.32 353.13 297.32 C 355.34 296.51 357.74 295.84 359.43 294.08 C 349.07 292.17 338.17 292.21 328.07 295.42 M 333.63 309.59 C 329.11 311.93 323.87 313.45 320.55 317.55 C 318.19 320.19 317.90 323.86 317.58 327.23 C 320.36 331.10 324.38 334.10 329.04 335.27 C 342.92 338.91 359.38 333.79 367.26 321.43 C 370.88 316.01 369.45 308.43 365.22 303.79 C 364.16 307.47 362.63 310.99 360.63 314.26 C 354.99 310.81 350.71 305.02 343.93 303.58 C 340.08 304.83 337.23 307.86 333.63 309.59 Z" />
<path fill="#010101" opacity="1.00" d=" M 237.17 281.24 C 238.61 280.76 239.79 281.63 240.92 282.39 C 242.04 280.36 244.34 281.56 246.10 281.67 C 248.79 281.71 250.49 284.11 252.82 285.09 C 256.04 286.42 257.32 290.09 260.45 291.53 C 264.13 293.21 267.35 295.86 271.35 296.74 C 271.74 297.06 272.52 297.69 272.92 298.00 C 272.41 298.52 271.39 299.54 270.88 300.05 C 275.03 303.61 278.94 307.43 282.70 311.38 C 284.24 313.76 287.17 316.77 285.66 319.70 C 282.92 320.72 281.22 317.17 278.49 317.33 C 279.70 319.18 279.53 320.91 277.09 320.87 C 275.95 319.68 275.36 318.03 274.04 317.03 C 268.26 312.75 262.72 308.14 256.86 303.97 C 256.13 303.32 255.14 303.83 254.31 303.85 C 251.11 302.27 246.64 301.17 245.49 297.38 C 243.86 297.05 242.25 296.68 240.64 296.32 C 238.67 294.76 236.29 293.91 234.08 292.78 C 231.48 292.38 227.79 293.99 226.31 291.01 C 228.90 290.03 231.49 289.04 234.14 288.22 C 232.25 287.57 230.41 286.74 229.30 284.98 C 231.46 283.70 234.03 284.20 236.41 284.12 C 236.62 283.14 236.87 282.18 237.17 281.24 Z" />
<path fill="#010101" opacity="1.00" d=" M 385.02 377.93 C 384.57 375.18 387.47 375.60 389.30 375.75 C 392.14 376.87 394.23 379.25 396.68 381.00 C 396.26 381.90 396.90 384.17 395.09 383.47 C 394.57 383.11 393.53 382.40 393.01 382.04 C 392.80 382.65 392.38 383.87 392.17 384.48 C 390.60 383.46 388.65 383.02 387.23 381.83 C 386.96 379.67 389.85 380.60 391.02 379.95 C 389.18 378.82 387.17 378.07 385.02 377.93 Z" />
<path fill="#010101" opacity="1.00" d=" M 351.20 378.22 C 357.68 375.42 364.99 376.99 371.54 378.73 C 375.93 379.67 378.25 383.99 382.23 385.73 C 385.28 384.12 389.09 384.36 392.12 385.90 C 394.60 388.31 396.17 391.46 397.51 394.61 C 398.62 397.19 400.70 399.29 401.44 402.03 C 401.72 405.70 401.30 409.38 400.99 413.04 C 401.07 416.86 397.80 420.15 394.12 420.68 C 389.18 421.67 383.29 421.43 379.84 425.81 C 373.61 429.09 369.07 434.93 362.36 437.40 C 354.78 441.83 345.77 439.32 337.98 436.88 C 335.96 436.09 333.00 435.49 332.56 432.99 C 332.48 429.57 332.58 425.71 335.02 423.05 C 338.03 419.51 338.31 414.70 339.68 410.46 C 340.38 408.03 342.12 405.74 341.52 403.10 C 340.84 398.09 340.97 392.69 343.42 388.15 C 345.26 384.37 347.13 380.08 351.20 378.22 M 355.07 382.50 C 356.76 384.41 358.52 386.27 360.40 388.00 C 360.54 385.85 360.65 383.71 360.83 381.57 C 358.87 381.63 356.87 381.66 355.07 382.50 M 365.05 382.26 C 365.62 384.31 368.35 385.59 369.09 382.94 C 367.74 382.68 366.40 382.46 365.05 382.26 M 354.04 394.57 C 354.09 392.61 354.10 390.65 354.13 388.69 C 353.05 387.49 351.97 386.28 350.92 385.07 C 347.68 388.40 350.19 393.23 354.04 394.57 M 373.19 385.48 C 372.10 388.61 369.05 391.55 365.63 389.22 C 366.03 391.80 364.68 393.94 362.10 394.47 C 361.27 394.15 359.61 393.50 358.78 393.17 C 359.36 397.22 355.64 400.20 351.80 399.21 C 350.99 401.64 349.17 403.35 346.71 404.03 C 346.62 405.89 346.12 407.69 345.31 409.37 C 343.44 413.23 343.31 417.63 341.55 421.52 C 340.44 424.82 337.22 427.14 337.39 430.90 C 340.64 428.84 343.59 424.85 347.89 425.75 C 349.04 426.45 350.02 427.37 351.05 428.25 C 353.87 423.67 358.49 418.54 364.47 419.84 C 365.76 414.48 371.77 412.99 376.51 412.43 C 378.05 411.05 379.47 409.52 381.18 408.34 C 379.97 406.62 378.16 405.47 376.71 403.98 C 374.00 405.03 372.40 407.44 370.83 409.73 C 368.76 411.63 365.98 408.15 363.80 409.76 C 361.02 412.62 359.52 416.45 356.95 419.48 C 354.87 420.55 352.66 418.11 353.69 416.10 C 355.23 412.97 357.34 410.16 359.30 407.29 C 361.10 404.76 364.26 404.50 367.11 404.65 C 369.00 404.93 369.68 402.80 370.86 401.77 C 373.00 399.04 376.79 399.73 379.83 399.74 C 381.52 402.22 384.99 403.18 385.53 406.43 C 388.49 403.11 393.80 404.56 396.50 407.53 C 396.50 405.91 396.52 404.30 396.55 402.69 C 393.64 398.51 391.91 393.64 388.87 389.56 C 388.76 391.40 387.68 392.71 386.15 393.60 C 381.78 390.99 376.98 388.94 373.19 385.48 M 346.16 395.59 C 345.26 396.33 345.13 398.71 346.66 398.74 C 348.35 398.36 348.20 394.54 346.16 395.59 M 390.06 408.99 C 389.84 411.42 389.56 413.86 389.41 416.30 C 392.02 416.42 394.81 415.92 396.38 413.62 C 394.33 412.00 392.26 410.39 390.06 408.99 M 382.54 413.45 C 380.49 414.96 379.50 417.34 378.11 419.38 C 376.40 420.28 375.08 419.10 373.86 418.06 C 372.39 418.57 370.92 419.10 369.48 419.67 C 369.47 421.95 369.51 424.24 369.59 426.52 C 374.02 422.29 379.49 419.54 384.64 416.33 C 384.70 415.18 384.74 414.03 384.78 412.90 C 384.00 412.12 383.19 412.98 382.54 413.45 M 354.02 434.13 C 352.73 434.10 351.44 434.05 350.16 433.99 C 348.85 432.77 347.46 431.63 346.08 430.49 C 344.85 431.38 343.61 432.28 342.38 433.19 C 346.23 434.53 350.34 434.95 354.40 434.33 L 350.30 436.58 C 355.19 434.21 360.80 432.80 364.88 429.09 C 364.33 427.11 362.63 425.81 361.28 424.39 C 357.89 426.80 354.96 429.96 354.02 434.13 Z" />
<path fill="#010101" opacity="1.00" d=" M 325.30 424.05 C 325.77 423.91 326.71 423.63 327.18 423.49 C 328.48 426.43 327.36 429.89 327.80 433.04 C 327.77 435.43 331.39 436.94 330.39 439.37 C 327.85 440.72 326.51 437.28 325.36 435.64 C 324.97 431.80 325.04 427.89 325.30 424.05 Z" />
<path fill="#010101" opacity="1.00" d=" M 374.11 435.33 C 377.83 432.88 380.20 429.14 382.73 425.61 C 384.84 425.66 386.96 425.72 389.07 425.87 C 389.61 429.79 384.64 426.84 383.47 429.39 C 381.42 433.17 378.03 435.79 374.76 438.44 C 374.04 437.67 372.79 436.16 374.11 435.33 Z" />
<path fill="#010101" opacity="1.00" d=" M 321.59 429.66 C 322.07 429.61 323.03 429.51 323.51 429.46 C 324.37 431.96 324.47 434.74 323.08 437.07 C 320.32 435.58 321.46 432.16 321.59 429.66 Z" />
<path fill="#010101" opacity="1.00" d=" M 382.36 435.08 C 383.22 433.22 384.38 431.52 385.86 430.08 C 387.45 430.39 391.23 429.51 390.44 432.23 C 388.39 432.74 386.44 433.47 385.04 435.13 C 384.34 436.20 383.21 435.34 382.36 435.08 Z" />
</g>
</svg>
