<?xml version="1.0" encoding="utf-8"?>
<!-- Generator: Adobe Illustrator 15.0.2, SVG Export Plug-In . SVG Version: 6.00 Build 0)  -->
<!DOCTYPE svg PUBLIC "-//W3C//DTD SVG 1.1//EN" "http://www.w3.org/Graphics/SVG/1.1/DTD/svg11.dtd">
<svg version="1.1" id="Layer_1" xmlns="http://www.w3.org/2000/svg" xmlns:xlink="http://www.w3.org/1999/xlink" x="0px" y="0px"
	 width="190px" height="155px" viewBox="0 0 190 155" enable-background="new 0 0 190 155" xml:space="preserve">
<path fill="#FFFFFF" d="M0,0h190v142.75c-1.55-0.18-3.1-0.28-4.66-0.391c-0.01,0.32-0.05,0.971-0.07,1.291
	c1.57-0.03,3.15-0.08,4.73-0.09V155h-61.68c3.52-6.45,5.699-13.49,8.64-20.2c2.96-5.45,5.63-11.46,5.319-17.79
	c-0.029-2.83-2.059-5.13-2.279-7.92c-0.279-4-0.43-8.02-0.221-12.029c0.361-6.451-1.189-12.83-0.84-19.291
	c0.261-4.47-0.609-8.92-2.18-13.1c-0.6,2.23,0.29,5.15-2.07,6.61c-1.869-2.92-0.049-5.24,0.971-7.67c-1.42-2.25-1.41-5.11-3.01-7.27
	c-2.78-3.95-5.95-7.79-7.36-12.5c-1.56-3.98-1.67-8.42-3.74-12.21c-1.34-3.51-4.38-5.84-6.69-8.66
	c-2.609-3.04-4.439-6.71-7.409-9.439c-3.31-3.13-7.229-5.53-10.62-8.58c1.09-0.25,3.26-0.75,4.34-1c-2.65-1.62-5.85,0.06-8.59-1.29
	c-3.7-1.41-7.6-3.09-11.65-2.08C73,2.64,64.82,3.67,56.91,5.76c-5.08,2.97-11.24,3.01-16.36,5.78C36.7,15,32.67,18.53,30.1,23.11
	c-1.71,2.19-4,3.83-6.08,5.66c-4.86-0.63-9.77-0.6-14.62,0.12c0.63,1.21,0.91,2.53,1.09,3.87c3.27-0.28,6.54-0.41,9.82-0.38
	c-2.28,3.92-4.85,7.65-7.67,11.2c-6.2,8.21-8.82,18.34-11.09,28.19c-0.39-0.16-1.16-0.5-1.55-0.66V0 M129.859,6.65
	c0.041,3.06-0.17,6.14,0.17,9.19c2.541,0.88,1.561-2.49,2.101-3.92c0.79-0.1,2.38-0.3,3.17-0.4c-0.8-1.58-2.75-1.8-4.149-2.62
	c1.5-0.9,3.209-1.15,4.91-1.38C135.23,5.01,131.811,6.6,129.859,6.65 M138.359,6.27c0.041,3.1-0.129,6.2,0.021,9.29
	c0.42,0.15,1.28,0.44,1.71,0.58c0.061-1.31,0.12-2.63,0.18-3.94c1.371-0.38,2.801-0.69,3.99-1.52c-1.73-0.59-4.55-0.12-4.42-2.74
	c1.689-0.12,3.381-0.23,5.07-0.4C143.79,5.14,140.42,6.66,138.359,6.27 M146.68,6.46c-0.07,3.28-0.119,6.56,0.15,9.83
	c2.38-0.26,1.609-2.73,1.949-4.34c1.171-0.29,2.761,0.04,3.421-1.25c-1.4-0.53-2.81-1.08-4.2-1.64c1.49-1.07,3.26-1.42,5.04-1.66
	C152.029,5.05,148.68,6.69,146.68,6.46 M155.18,6.28c0.24,3.33-1.6,7.62,1.08,10.21c0.36-1.51,0.711-3.03,1.051-4.54
	c1.189-0.22,2.379-0.45,3.569-0.7c-1.05-1.61-3.83-0.35-4.399-2.33c1.27-1.61,3.529-1.07,5.31-1.45
	C160.37,5.32,157.32,6.63,155.18,6.28 M163.52,6.41c-0.08,3.18-0.1,6.37-0.039,9.55c2.539,0.36,1.729-2.37,2.029-3.98
	c0.721-0.62,3.7,0.34,3.061-1.35c-1.271-0.56-2.561-1.09-3.85-1.6c1.119-1.65,4.719-0.39,4.859-2.61
	C167.57,6.11,165.54,6.29,163.52,6.41 M171.73,6.37c0.049,3.11,0.039,6.22-0.01,9.33c0.459,0.01,1.369,0.05,1.829,0.06
	c0.05-1.26,0.11-2.53,0.16-3.79c1.2-0.33,2.99,0.14,3.511-1.35c-1.5-0.4-2.941-0.95-4.33-1.64c1.659-1.19,4.33-0.75,5.42-2.66
	C176.109,6.25,173.92,6.3,171.73,6.37 M180.21,6.38c-0.101,3.17-0.08,6.34,0.021,9.5c0.47-0.06,1.399-0.18,1.869-0.23
	c0.051-1.22,0.11-2.44,0.17-3.65c0.83-0.17,2.48-0.5,3.311-0.66c-0.24-1.86-5.051-0.95-3.12-3.27c0.86-0.12,2.59-0.35,3.46-0.46
	c0.01-0.34,0.02-1.01,0.03-1.35C184.04,6.31,182.13,6.35,180.21,6.38 M130.311,22.59c-0.621,3.35-0.99,6.94,0.18,10.21
	c1.91-0.51,1.25-3,1.789-4.45c0.851-0.17,2.551-0.52,3.4-0.69c-0.84-1.78-4.32-0.38-3.91-2.85c1.381-1.03,3.201-0.96,4.791-1.41
	C134.76,22.09,132.38,22.82,130.311,22.59 M138.52,22.63c-0.25,3.32-0.229,6.66-0.149,10c0.43-0.11,1.29-0.34,1.72-0.46
	c0.131-1.42,0.26-2.83,0.42-4.25c0.92-0.1,2.76-0.3,3.68-0.4c-1.76-1.15-4.91-0.54-3.91-3.65c1.531-0.3,3.671,0.53,4.681-1.08
	C142.811,22.67,140.67,22.65,138.52,22.63 M163.471,22.65c-0.051,3.45-0.23,6.93,0.399,10.34c1.649-1.03,1.409-3.04,1.771-4.66
	c1.239-0.22,2.909-0.09,3.369-1.6c-0.869-0.09-2.609-0.26-3.48-0.34c-1.689-3.63,3.98-1.18,4.391-3.78
	C167.76,22.6,165.62,22.63,163.471,22.65 M180.32,22.6c-0.25,3.35-0.25,6.72,0.13,10.06c0.399-0.11,1.19-0.34,1.59-0.46
	c0.03-1.26,0.06-2.53,0.09-3.79c1.3-0.3,2.591-0.61,3.89-0.94c-1.379-0.87-2.99-1.21-4.549-1.58c0.709-2.11,3.1-1.69,4.809-2.21
	C185.17,21.58,182.23,23.01,180.32,22.6 M146.71,22.61c0.58,3.24-1.62,8.13,1.569,10.21c0.181-1.5,0.341-3,0.511-4.5
	c0.87-0.16,2.61-0.48,3.479-0.64c-0.619-1.44-2.35-1.01-3.539-1.44c-1.49-2.73,3.029-1.93,4.289-2.39
	C152.04,21.44,148.71,23.04,146.71,22.61 M154.92,22.67c0,3.15-0.24,6.33,0.25,9.46c2.2,1.77,1.6-2.73,2.061-3.93
	c0.789-0.05,2.359-0.16,3.14-0.21l-0.03-1.34c-0.79-0.05-2.369-0.13-3.16-0.17c-0.05-0.56-0.15-1.68-0.199-2.23
	c1.529-0.45,4.16,0.64,4.609-1.58C159.37,22.61,157.141,22.62,154.92,22.67 M171.77,22.7c0.03,3.43-0.26,6.92,0.5,10.3
	c1.48-1.14,1.271-3.09,1.541-4.74c0.879-0.14,2.64-0.41,3.52-0.54c-0.939-1.83-4.98-0.47-3.6-3.42c1.529-0.25,3.069-0.49,4.609-0.71
	C176.811,21.67,173.87,23.01,171.77,22.7 M133.939,38.83c0.041,3.29-0.58,6.73,0.371,9.92c2.279,0.59,1.41-2.54,1.989-3.84
	c1.22-0.35,2.56-0.58,3.4-1.66c-1.521-0.5-3.421-0.53-4.229-2.19c1.5-0.41,3.039-0.69,4.59-0.91l0.029-1.39
	C138.04,38.77,135.99,38.8,133.939,38.83 M142.471,39.31c-0.341,3.1-0.121,6.23-0.051,9.35c0.43-0.09,1.28-0.26,1.71-0.34
	c0.05-1.25,0.101-2.49,0.16-3.73c0.95-0.11,2.84-0.32,3.79-0.43c-1.2-1.57-4.09-1.2-4.301-3.54c1.781-0.31,3.941,0.17,5.311-1.33
	C146.98,39.05,144.33,38.1,142.471,39.31 M150.77,38.84c-0.149,3.18-0.16,6.37-0.129,9.56c0.439,0.05,1.319,0.16,1.76,0.22
	c0.1-1.3,0.199-2.6,0.3-3.9c1.2-0.22,2.39-0.45,3.579-0.689c-1.039-1.311-2.789-1.53-4.209-2.2c1.09-1.53,3.02-1.42,4.67-1.68
	l-0.061-1.33C154.71,38.82,152.74,38.83,150.77,38.84 M159.1,38.97c-0.18,3.01-0.439,6.04-0.06,9.05c0.36,0.23,1.08,0.7,1.44,0.94
	c0.279-1.49,0.539-2.97,0.81-4.46c0.86-0.09,2.59-0.29,3.46-0.38c-1.279-1.22-3.24-1.46-4.221-3.03c1.561-0.45,3.15-0.82,4.73-1.2
	C163.8,37.91,161.141,39.07,159.1,38.97 M167.57,39.45c-0.5,3.04-0.18,6.14-0.041,9.2c0.441-0.08,1.311-0.24,1.75-0.32
	c0.021-1.25,0.041-2.51,0.08-3.76c0.9-0.1,2.721-0.29,3.631-0.38c-0.7-1.93-4.221-0.95-3.83-3.31c1.55-0.64,3.8-0.08,4.619-1.95
	C171.83,39.15,169.13,38.01,167.57,39.45 M175.779,38.78c-0.029,3.28-0.039,6.57-0.01,9.86l1.711-0.13
	c0.069-1.29,0.14-2.57,0.209-3.86c1.15-0.16,2.301-0.32,3.461-0.47l0.029-0.95c-1.51-0.45-3.82-0.39-4.01-2.53
	c1.73-0.58,4.53,0.51,5.34-1.76C180.27,38.82,178.02,38.79,175.779,38.78 M145.79,55.34c0.01,3.37-0.06,6.75,0.399,10.1
	c2.051-0.68,1.461-2.99,1.82-4.62c0.801-0.08,2.4-0.24,3.211-0.32c-0.461-1.46-2.221-1.36-3.361-1.95
	c-0.959-3.12,4.051-0.61,4.32-3.33C150.05,55.18,147.92,55.22,145.79,55.34 M154.311,55.3c0.01,3.09-0.16,6.2,0.109,9.28
	c0.37,0.15,1.109,0.45,1.48,0.6c0.17-1.5,0.3-3.01,0.459-4.51c0.931-0.06,2.791-0.2,3.711-0.26c-0.791-1.75-3.66-0.51-4.061-2.52
	c0.62-2.24,3.77-0.62,5.061-2.34C158.83,55.18,156.57,55.18,154.311,55.3 M162.6,55.3c0.57,3.3-1.479,7.89,1.42,10.29
	c0.271-1.61,0.48-3.24,0.711-4.86c0.859-0.06,2.58-0.16,3.449-0.22c-0.82-1.71-3.029-1.62-4.529-2.39
	c1.459-1.72,4.369-0.8,5.539-2.79C166.99,55.2,164.79,55.23,162.6,55.3 M170.939,61.48c-0.229,3.95,5.771,5.23,7.25,1.69
	c0.42-2.53,0.181-5.11,0.16-7.66c-0.439-0.05-1.32-0.14-1.76-0.19c0,2.68-0.029,5.35-0.189,8.02c-0.83,0.01-2.49,0.01-3.33,0.02
	c-0.18-2.76-0.26-5.53-0.41-8.29C169.63,55.62,171.15,59.34,170.939,61.48 M181.18,55.34c-0.74,2.97-0.449,6.11,0.461,9.01
	c2.149,1.21,5.469,1.3,6.58-1.36c0.279-2.48,0.1-4.99,0.1-7.49l-1.721-0.17c-0.05,2.21-0.02,4.42-0.199,6.63
	c0.3,2.1-2.25,1.17-3.48,1.49c-0.12-2.72-0.04-5.44-0.32-8.14C182.25,55.32,181.54,55.34,181.18,55.34 M146.41,71.23
	c-0.84,2.5-0.86,5.23-0.34,7.79c0.32,2.521,3.97,3.021,5.8,1.881c2.12-1.16,1.29-3.98,1.54-5.95c-0.17-1.17,0.449-4.67-1.66-3.27
	c-0.38,2.51-0.29,5.07-0.34,7.61c-1.09,0.22-2.18,0.43-3.27,0.64c-0.471-2.76-0.311-5.58-0.67-8.34
	C147.21,71.5,146.68,71.32,146.41,71.23 M155.8,71.78c0,2.39-0.18,4.81,0.19,7.189c0.619,3.021,5.49,3.41,6.9,0.83
	c0.899-2.88,0.439-5.95-0.16-8.83c-2.461,1.38-0.69,4.811-1.36,7.08c0.47,1.931-2.979,2.57-3.47,0.91
	c-0.301-2.54-0.25-5.1-0.44-7.65C157.04,71.43,156.21,71.66,155.8,71.78 M172.02,70.77c-0.76,2.39-0.629,4.92-0.779,7.39
	c0.359,1.97-2,1.55-3.17,1.79c-0.23-1.64-0.391-3.29-0.42-4.95c-0.26-1.3,0.609-3.95-1.73-3.66c0.07,2.97-0.9,6.37,0.74,9.061
	c1.79,2.039,4.59,0.8,6.49-0.351C172.939,77,174.3,73.28,172.02,70.77 M175.79,77.95c-0.39,4.69,7.681,4.63,7.489,0.03
	c-0.159-2.19,1.021-6.13-1.869-6.86c-0.02,2.96-0.03,5.92-0.471,8.84c-1.1-0.319-3.59,0.12-3.219-1.8
	c-0.121-2.32-0.121-4.65-0.25-6.97C174.65,72.04,175.971,75.74,175.79,77.95 M149.8,89.91c0.011,2.199-0.271,4.56,0.761,6.6
	c1.64,2.23,6,1.6,6.609-1.24c0.301-2.399,0.15-4.83,0.221-7.239c-0.461,0.069-1.381,0.21-1.841,0.28c-0.19,2.529-0.13,5.06-0.2,7.6
	c-0.869-0.02-2.609-0.051-3.479-0.061c-0.16-2.68-0.181-5.35-0.17-8.029C150.42,87.96,149.38,88.42,149.8,89.91 M159.971,94.96
	c0.129,2.71,3.479,3.34,5.559,2.521c3.091-2.34,1.49-6.721,1.541-9.98c-3.25,1.26-0.99,5.689-1.83,8.37
	c-0.87,0-2.59-0.011-3.461-0.021c-0.18-2.85,0.421-5.869-0.75-8.58C158.76,89.13,159.92,92.43,159.971,94.96 M169.98,95.1
	c0.299,3.7,6.689,3.62,7.17,0.061c0.3-2.301,0.129-4.63,0.18-6.94c-0.49-0.04-1.471-0.12-1.95-0.159
	c-0.01,2.659-0.05,5.319-0.13,7.979c-0.75-0.08-2.24-0.229-2.98-0.31c-1.379-2.551,0.15-5.811-1.25-8.45
	C168.8,89.2,169.82,92.55,169.98,95.1 M180.01,95.91c1.44,2.72,6.2,2.56,7.1-0.51c0.281-2.381,0.311-4.83-0.069-7.211
	c-0.42-0.06-1.271-0.18-1.7-0.239c-0.33,2.68,1.6,9.3-3.199,7.819c-1.061-2.42-0.361-5.239-0.561-7.819
	c-0.42,0.069-1.26,0.21-1.68,0.28C179.5,90.76,179.58,93.38,180.01,95.91 M146.24,104.32c-0.561,2.729-0.87,5.75,0.27,8.369
	c1.58,1.94,5.51,1.761,6.6-0.64c0.49-2.55,0.19-5.18,0.23-7.76c-0.42-0.01-1.26-0.021-1.68-0.03c-0.09,2.69-0.2,5.381-0.4,8.061
	c-0.84,0.02-2.529,0.039-3.369,0.06c-0.201-2.79-0.24-5.58-0.201-8.36C147.32,104.09,146.6,104.24,146.24,104.32 M155.73,107.939
	c0.18,1.721-0.381,3.91,1.18,5.15c1.68,1.5,5.29,1.26,6.05-1.109c0.71-2.5,0.54-5.19-0.08-7.681c-0.351-0.069-1.06-0.19-1.42-0.25
	c0.069,2.82,0.011,5.64-0.25,8.44c-0.75-0.09-2.26-0.271-3.021-0.36c-0.789-2.6-0.489-5.37-0.689-8.05
	C155.25,103.85,155.9,106.53,155.73,107.939 M165.891,105.46c-0.181,2.42-0.551,5.05,0.5,7.33c1.719,1.729,5.639,1.771,6.659-0.71
	c0.37-2.53,0.28-5.13,0.14-7.68c-0.41-0.08-1.229-0.23-1.64-0.301c-0.09,2.721-0.159,5.45-0.3,8.181
	c-0.85,0.03-2.561,0.079-3.41,0.11c-0.22-2.781-0.23-5.561-0.17-8.351C166.49,103.939,165.9,104.41,165.891,105.46 M176.061,103.85
	c-0.24,2.431-0.61,4.92-0.19,7.36c0.31,3.51,5.88,3.82,7.149,0.83c0.69-2.69,0.11-5.49-0.16-8.2c-0.33,0.18-1,0.551-1.34,0.74
	c-0.31,2.6-0.209,5.23-0.379,7.85c-0.841-0.039-2.531-0.13-3.381-0.17c-0.14-2.58-0.05-5.17-0.34-7.74
	C177.08,104.35,176.4,104.02,176.061,103.85 M150.34,120.27c-0.58,2.931-1.17,6.221,0.27,9c1.781,1.961,5.83,1.44,6.561-1.25
	c0.29-2.379,0.13-4.789,0.109-7.18c-0.43-0.1-1.289-0.279-1.729-0.38c-0.11,2.63-0.17,5.25-0.149,7.88
	c-1.08,0.17-2.17,0.33-3.25,0.49c-0.521-2.61-0.53-5.27-0.41-7.91C151.391,120.76,150.689,120.43,150.34,120.27 M159.75,122.92
	c0.02,2.641-0.59,7.38,3.27,7.4c3.73,0.96,4.94-3.381,4.391-6.23c-0.221-1.17,0.189-4.25-1.85-3.449
	c-0.23,2.469-0.041,4.969-0.311,7.439c-0.82,1.13-4,1.061-3.471-1c-0.149-2.311-0.18-4.641-0.409-6.939
	C160.48,120.78,159.32,121.58,159.75,122.92 M169.99,120.9c-0.33,2.35-0.4,4.77-0.01,7.119c0.789,3.7,7.49,2.961,7.26-0.959
	c-0.09-2.351,1.02-5.601-1.57-6.931c-0.24,2.74-0.3,5.479-0.359,8.229c-1.07,0.15-2.15,0.301-3.221,0.44
	c-0.54-2.739-0.4-5.53-0.58-8.3C171.13,120.6,170.37,120.8,169.99,120.9 M179.66,125.04c0.17,1.67-0.17,3.89,1.58,4.84
	c1.72,0.78,4.59,0.94,5.48-1.13c1.079-2.609,0.699-5.689-0.15-8.311c-0.271,0.041-0.811,0.11-1.08,0.15
	c-0.211,2.74-0.141,5.5-0.48,8.24c-1.13-0.311-3.699,0.23-3.33-1.75c-0.109-2.28-0.119-4.561-0.26-6.84
	C179.2,120.78,179.67,123.28,179.66,125.04 M165.76,138.98c-0.14,1.979-0.14,4.02,0.4,5.949c1.311,2.391,5.38,2.43,6.811,0.101
	c0.59-2.921,0.279-5.91,0.079-8.841c-3.021,1.771-1.17,5.94-1.909,8.791c-0.75-0.08-2.261-0.221-3.021-0.291
	c-1.021-2.56-0.03-5.479-0.7-8.14C166.04,135.9,165.83,138.1,165.76,138.98 M181.57,136.48c-0.291,2.85-0.26,5.72-0.551,8.569
	c-0.729-0.08-2.189-0.26-2.91-0.34c-1.51-2.601,1.051-6.86-2.18-8.51c0.12,3.42-1.84,9.739,3,10.6c3.37,0.58,4.95-3.01,4.42-5.83
	C183.109,139.561,183.71,136.32,181.57,136.48 M146.141,136.34c-0.271,3.01-0.91,6.27,0.409,9.141c1.61,1.879,5.07,1.66,6.431-0.431
	c0.699-2.739,0.289-5.6,0.289-8.39l-1.6,0.01c-0.061,2.811-0.16,5.63-0.609,8.42c-1.131-0.23-2.261-0.47-3.381-0.71
	C147.17,141.811,149.18,137.66,146.141,136.34 M155.91,136.37c-0.051,3.569-1.49,10.8,4.17,10.43c4.83-0.84,3.1-7.19,2.91-10.58
	c-3.04,1.811-0.52,5.95-2.1,8.54c-0.74,0.04-2.221,0.141-2.961,0.18c-0.25-2.68-0.119-5.42-0.66-8.06L155.91,136.37z"/>
<path fill="#020202" d="M56.91,5.76C64.82,3.67,73,2.64,80.93,0.58c4.05-1.01,7.95,0.67,11.65,2.08c2.74,1.35,5.939-0.33,8.59,1.29
	c-1.08,0.25-3.25,0.75-4.34,1c3.391,3.05,7.311,5.45,10.62,8.58c2.97,2.729,4.8,6.4,7.409,9.439c2.311,2.82,5.351,5.15,6.69,8.66
	c2.07,3.79,2.181,8.23,3.74,12.21c1.41,4.71,4.58,8.55,7.36,12.5c1.6,2.16,1.59,5.02,3.01,7.27c-1.02,2.43-2.84,4.75-0.971,7.67
	c2.36-1.46,1.471-4.38,2.07-6.61c1.57,4.18,2.44,8.63,2.18,13.1c-0.35,6.46,1.201,12.839,0.84,19.291
	c-0.209,4.01-0.059,8.029,0.221,12.029c0.221,2.79,2.25,5.09,2.279,7.92c0.311,6.33-2.359,12.34-5.319,17.79
	c-2.94,6.71-5.12,13.75-8.64,20.2h-1.18c2.199-8.57,5.219-16.91,8.43-25.15c0.57-1.84,1.72-3.359,2.959-4.8
	c0.15-3.3,0.23-6.62-0.25-9.89c-1.409-8.51,0.441-17.21-1.139-25.69c-1.83-6.31-2.041-13.03-4.811-19.07
	c-2.04-4.21-2.79-8.87-4.53-13.19c0.3-0.71,0.601-1.41,0.91-2.12l1.569,0.47c-0.379-0.5-1.129-1.5-1.51-1.99
	c-0.569,0.78-1.14,1.56-1.699,2.34c-0.2-0.94-0.61-2.81-0.811-3.75c-2.109-7.55-9.51-12.3-10.88-20.13
	c3.761,1.89,4.13,6.68,7.2,9.32c-0.609-5.1-4.33-8.72-6.99-12.81c-0.35,0.41-1.05,1.23-1.4,1.63c-0.93-3.81-2.359-7.58-5.529-10.1
	c0.311-0.42,0.93-1.25,1.23-1.67c-4.031-4.61-8.841-8.47-14.07-11.64c-1.96,1.73-3.91,3.45-5.87,5.18c1.94,0.48,4.06,0.88,5.38,2.54
	c-2.74-0.11-5.46-0.47-8.17-0.8c-1.9,3.99-4.11,7.93-4.6,12.41c-0.52,4.49-4.62,7.21-6.39,11.14c-2.12,3.66-2.06,7.98-2.07,12.06
	c-2.17,0.52-4.35,1.04-6.51,1.58c1.88,3.22,5.12,1.62,7.81,0.63c-1.42,1.8-3.47,3.95-6.01,3.01c-2.87-1.55-5.91-4.56-5.04-8.15
	c0.81,1.06,1.61,2.14,2.4,3.22c0.73-0.3,2.19-0.9,2.93-1.2c-1.1-1.89-1.24-5.02-3.64-5.66c-0.28,0.13-0.82,0.37-1.1,0.49
	c-0.37,0.29-1.11,0.86-1.48,1.14c-0.38-0.34-0.75-0.7-1.11-1.08c1.19-0.78,2.38-1.56,3.56-2.35c0.87-1.53-0.76-3.35-1.07-4.92
	c4.82-5.19,7.37-12.46,6.93-19.53c1.35,0.16,2.7,0.26,4.05,0.311c0.83-1.19,1.29-2.6,1.88-3.92c-5.7,0.08-11.03-2.42-16.73-2.33
	c-3.71-0.03-7.51-0.2-11.13,0.82c-2.62,0.69-4.83,2.72-7.68,2.43c-1.7,1.02-3.56,1.97-4.67,3.689c-2.7,4.22-6.72,7.311-9.68,11.33
	c5.45,2.51,10.96,4.89,16.73,6.59c2.98,0.67,3.63,4.02,4.93,6.33c0.02,0.48,0.07,1.44,0.09,1.92c0.04,1.49,0.07,2.99,0.1,4.48
	c2.91,2.89,5.58,6.08,9.11,8.25c-0.1-1.09-0.3-3.27-0.39-4.36c1.03,1.35,2.09,2.67,3.19,3.96c-0.12-3.16-0.9-6.229-1.56-9.31
	c2.29,3.28,4.81,6.37,7.53,9.3c-0.5,0.53-1,1.06-1.49,1.59c-1.06-0.63-2.13-1.25-3.19-1.87c-2.26,3.85-3.81,8.04-4.96,12.34
	c-0.8,3.07-3.27,5.26-4.6,8.06c-1.12,3.359-1.58,6.89-2.45,10.311c-0.23-0.701-0.7-2.11-0.93-2.811c-1.21,1.439-2.39,2.9-3.64,4.311
	c-3.21,3.459-7,6.479-11.49,8.1c2.65-2.021,5.68-3.54,7.86-6.131c-1.14,0.36-3.44,1.08-4.58,1.44l-1.97,0.16
	c1.41-1.29,2.84-2.54,4.27-3.79c-3.24-0.01-6.47,0.12-9.71,0.24c-5.83-1.77-7.9-8.17-10.59-12.98c-1.2-3.54-2.21-7.22-2.73-10.92
	c2.96-7.14,7.59-14.34,14.76-17.84c4.69-1.01,9.56,0.02,14.06,1.46c-3.06-3.81-6.03-7.89-10.32-10.41
	c-3.49-2.42-7.73-3.15-11.84-3.77c-3.22,5.55-8.39,9.46-12.25,14.47c-2.85,3.46-1.6,8.18-2.37,12.24
	c-1.26,5.32-4.64,10.2-4.16,15.86c0.27,6.32-0.19,12.621-0.45,18.93c-0.44,3.95,2.43,7.13,3.06,10.899
	c-0.69-0.06-2.09-0.18-2.78-0.24c0.05,0.23,0.15,0.681,0.21,0.9c0.54-0.14,1.62-0.4,2.16-0.54c0.97,7.261,4.49,13.88,5.71,21.12
	c0.34,4.1,4.06,6.36,6.71,8.99c3.34,3.04,5.19,7.51,9.03,10.02c5.23,2.961,10.91,5.041,16.33,7.57c0.2,0.33,0.59,1,0.78,1.33h-2.75
	l0.85-1.08c-2.43-1.05-5-1.84-7.68-1.62c-5.94-1.649-10.79-5.489-15.9-8.75c-3.27-2.81-5.57-6.56-8.67-9.56
	c-2.41-4.87-4.77-9.771-7.52-14.46c0.65,0.04,1.96,0.13,2.62,0.18c-0.99-1.271-2.98-1.97-3.08-3.8c-1.01-4.2-1.8-8.471-2.15-12.78
	C1.62,97.55,2.54,91.91,1.34,86.4c-1.06-4.82-0.96-9.84,0.21-14.63c2.27-9.85,4.89-19.98,11.09-28.19c2.82-3.55,5.39-7.28,7.67-11.2
	c-3.28-0.03-6.55,0.1-9.82,0.38c-0.18-1.34-0.46-2.66-1.09-3.87c4.85-0.72,9.76-0.75,14.62-0.12c2.08-1.83,4.37-3.47,6.08-5.66
	c2.57-4.58,6.6-8.11,10.45-11.57C45.67,8.77,51.83,8.73,56.91,5.76 M76.63,3.7c1.17,0.31,3.77,0.92,4.22-0.52
	C79.71,2.65,77.14,2.45,76.63,3.7 M82.37,2.49c0.36,2.729-0.73,5.88,1.01,8.26c-0.93-0.53-1.85-1.07-2.77-1.62
	c-0.61,0.1-1.84,0.3-2.45,0.4c0.95-1.58,1.76-3.25,1.9-5.13c-3.57-0.23-7.17-0.07-10.66,0.73c-4.6,1.11-9.53,1.14-13.71,3.59
	c4.26,0.42,8.65-0.35,12.81,0.98c3.03,1.06,6.23,1.29,9.42,1.29l-0.3-1.44c0.75,0.43,1.5,0.86,2.25,1.28
	c1.79-0.46,3.56,0.25,5.32,0.52c1.43-3.21,4.25-5.28,6.73-7.62C88.81,2.87,85.6,2.48,82.37,2.49 M77.44,18.86
	c1.18-0.44,2.68-0.61,3.38-1.79c0.15-1.62,0.14-3.27-0.21-4.87C78.18,13.12,78.45,16.72,77.44,18.86 M82.03,12.38
	c-0.51,1.64,0.04,2.18,1.67,1.62C84.21,12.37,83.66,11.83,82.03,12.38 M73.2,25.02c2.2-1.32,2.34-3.99,2.43-6.28
	C73.64,20.18,73.62,22.83,73.2,25.02 M74.31,26.41c-1.31,0.13-2.15,2.05-1.19,3.03C74.8,30.41,76.3,26.76,74.31,26.41 M27.7,52.73
	c-1.17,1.22-3.67,2.56-3.26,4.38c3.5,0.93,8.61,2.23,8.01,6.96c-1.25,3.94-5.89,5.12-9.2,6.86c0.42,4.6,0.97,10.009,5.07,12.919
	c3.75,2.931,8.97,1.49,12.54-1.01c5.94-3.439,9.19-9.76,12.15-15.68c1.26-2.78,3.22-6.75-0.75-8.34c0.91-0.64,1.9-1.17,2.95-1.56
	c-0.32-0.55-0.95-1.65-1.27-2.21c-0.6,1.01-1.21,2.01-1.82,3.02c-0.37-5.68-6.5-7.21-10.69-9.39C36.43,46.31,31.7,50.11,27.7,52.73
	 M131.25,58.39c-0.16,0.4-0.471,1.21-0.63,1.61C132.109,63.29,134.529,56.84,131.25,58.39 M23.08,60.77
	c-0.89,1.71-2.09,3.39-2.03,5.41c-0.06,1.74,1.73,1.25,2.84,1.3c2.88-0.17,4.98-2.86,4.67-5.69C26.86,60.87,24.98,60.65,23.08,60.77
	 M135.24,73.12c-0.5,1.65,0.05,2.22,1.65,1.7C137.38,73.16,136.83,72.6,135.24,73.12 M41.76,88.109c3.93-1.09,6.69-4.329,7.9-8.129
	C46.51,82.05,43.56,84.76,41.76,88.109 M3.92,101.311c-1.23,0.97,0.36,3.159,1.66,2.33C6.72,102.66,5.25,100.49,3.92,101.311
	 M7.45,116.939c0.43,2.471-0.97,6.291,2.23,7.25C8.97,121.76,8.23,119.35,7.45,116.939z"/>
<path fill="#E8E8E8" d="M76.63,3.7c0.51-1.25,3.08-1.05,4.22-0.52C80.4,4.62,77.8,4.01,76.63,3.7z"/>
<path fill="#FDFDFD" d="M82.37,2.49c3.23-0.01,6.44,0.38,9.55,1.24c-2.48,2.34-5.3,4.41-6.73,7.62c-1.76-0.27-3.53-0.98-5.32-0.52
	c-0.75-0.42-1.5-0.85-2.25-1.28l0.3,1.44c-3.19,0-6.39-0.23-9.42-1.29c-4.16-1.33-8.55-0.56-12.81-0.98
	C59.87,6.27,64.8,6.24,69.4,5.13c3.49-0.8,7.09-0.96,10.66-0.73c-0.14,1.88-0.95,3.55-1.9,5.13c0.61-0.1,1.84-0.3,2.45-0.4
	c0.92,0.55,1.84,1.09,2.77,1.62C81.64,8.37,82.73,5.22,82.37,2.49z"/>
<path fill="#B0271C" d="M129.859,6.65c1.951-0.05,5.371-1.64,6.201,0.87c-1.701,0.23-3.41,0.48-4.91,1.38
	c1.399,0.82,3.35,1.04,4.149,2.62c-0.79,0.1-2.38,0.3-3.17,0.4c-0.54,1.43,0.44,4.8-2.101,3.92
	C129.689,12.79,129.9,9.71,129.859,6.65z"/>
<path fill="#A31F1F" d="M138.359,6.27c2.061,0.39,5.431-1.13,6.551,1.27c-1.689,0.17-3.381,0.28-5.07,0.4
	c-0.13,2.62,2.689,2.15,4.42,2.74c-1.189,0.83-2.619,1.14-3.99,1.52c-0.06,1.31-0.119,2.63-0.18,3.94
	c-0.43-0.14-1.29-0.43-1.71-0.58C138.23,12.47,138.4,9.37,138.359,6.27z"/>
<path fill="#A31F1F" d="M146.68,6.46c2,0.23,5.35-1.41,6.36,0.94c-1.78,0.24-3.55,0.59-5.04,1.66c1.391,0.56,2.8,1.11,4.2,1.64
	c-0.66,1.29-2.25,0.96-3.421,1.25c-0.34,1.61,0.431,4.08-1.949,4.34C146.561,13.02,146.609,9.74,146.68,6.46z"/>
<path fill="#A31F1F" d="M155.18,6.28c2.141,0.35,5.19-0.96,6.61,1.189c-1.78,0.38-4.04-0.16-5.31,1.45
	c0.569,1.98,3.35,0.72,4.399,2.33c-1.19,0.25-2.38,0.48-3.569,0.7c-0.34,1.51-0.69,3.03-1.051,4.54
	C153.58,13.9,155.42,9.61,155.18,6.28z"/>
<path fill="#AF1E19" d="M163.52,6.41c2.021-0.12,4.051-0.3,6.061,0.01c-0.141,2.22-3.74,0.96-4.859,2.61
	c1.289,0.51,2.579,1.04,3.85,1.6c0.64,1.69-2.34,0.73-3.061,1.35c-0.3,1.61,0.51,4.34-2.029,3.98
	C163.42,12.78,163.439,9.59,163.52,6.41z"/>
<path fill="#A31F1F" d="M171.73,6.37c2.189-0.07,4.379-0.12,6.58-0.05c-1.09,1.91-3.761,1.47-5.42,2.66
	c1.389,0.69,2.83,1.24,4.33,1.64c-0.521,1.49-2.311,1.02-3.511,1.35c-0.05,1.26-0.11,2.53-0.16,3.79
	c-0.46-0.01-1.37-0.05-1.829-0.06C171.77,12.59,171.779,9.48,171.73,6.37z"/>
<path fill="#AC1F26" d="M180.21,6.38c1.92-0.03,3.83-0.07,5.74-0.12c-0.011,0.34-0.021,1.01-0.03,1.35
	c-0.87,0.11-2.6,0.34-3.46,0.46c-1.931,2.32,2.88,1.41,3.12,3.27c-0.83,0.16-2.48,0.49-3.311,0.66c-0.06,1.21-0.119,2.43-0.17,3.65
	c-0.47,0.05-1.399,0.17-1.869,0.23C180.13,12.72,180.109,9.55,180.21,6.38z"/>
<path fill="#FBFBFB" d="M89.95,11.94c1.96-1.73,3.91-3.45,5.87-5.18c5.229,3.17,10.039,7.03,14.07,11.64
	c-0.301,0.42-0.92,1.25-1.23,1.67c3.17,2.52,4.6,6.29,5.529,10.1c0.351-0.4,1.051-1.22,1.4-1.63c2.66,4.09,6.381,7.71,6.99,12.81
	c-3.07-2.64-3.439-7.43-7.2-9.32c1.37,7.83,8.771,12.58,10.88,20.13c-1.289,0.68-2.59,1.36-3.88,2.04
	c-1.67-2.05-2.59-4.51-3.43-6.97c-3.7-7.29-9.07-13.59-14.99-19.18c-3.681-3.19-9.01-2.98-13.4-1.61c-0.46,4.5-4.99,6.29-7.41,9.57
	c-4.44,5.96-7.43,13.74-5.29,21.17c-0.13,0.41-0.41,1.23-0.55,1.65c-1-0.65-2-1.29-3-1.93c0.32,3.24,1.85,6.1,5.06,7.25
	c0.07-0.91,0.2-2.73,0.27-3.64c2.45,4.7,7.13,6.97,11.27,9.84c-4.42-1.3-8.46-3.61-12.92-4.77c-3.73-0.93-7.81,2.42-11.17,0.02
	c-3.93,3-8.36,6.04-10.18,10.86c-3.14,8.25-7.4,16.49-7.04,25.57c0.58,7.8-2.35,15.28-5.14,22.409c-2.15,4.021-3.35,8.701-6.6,12.03
	c-0.22-7.04,3.39-13.27,4.93-19.95c0.69,0.9,1.39,1.811,2.09,2.711c1.15-6.03,1.46-12.181,2.81-18.17c0.11-5.08,1.5-9.91,3.16-14.67
	c0.87-3.421,1.33-6.951,2.45-10.311c1.33-2.8,3.8-4.99,4.6-8.06c1.15-4.3,2.7-8.49,4.96-12.34c1.06,0.62,2.13,1.24,3.19,1.87
	c0.49-0.53,0.99-1.06,1.49-1.59c-2.72-2.93-5.24-6.02-7.53-9.3c0.66,3.08,1.44,6.15,1.56,9.31c-1.1-1.29-2.16-2.61-3.19-3.96
	c0.09,1.09,0.29,3.271,0.39,4.36c-3.53-2.17-6.2-5.36-9.11-8.25c-0.03-1.49-0.06-2.99-0.1-4.48c1.48,1.13,2.87,2.41,4.55,3.24
	c2.01,0.67,4.05-0.39,6-0.81c-0.61-1.32-1.23-2.64-1.86-3.96c0.84,0.08,2.53,0.24,3.37,0.31c0.19,0.22,0.55,0.64,0.73,0.85
	c0.36,0.38,0.73,0.74,1.11,1.08c0.37-0.28,1.11-0.85,1.48-1.14c-0.22,1.05-0.42,2.09-0.59,3.15c-0.87,3.59,2.17,6.6,5.04,8.15
	c2.54,0.94,4.59-1.21,6.01-3.01c-2.69,0.99-5.93,2.59-7.81-0.63c2.16-0.54,4.34-1.06,6.51-1.58c0.01-4.08-0.05-8.4,2.07-12.06
	c1.77-3.93,5.87-6.65,6.39-11.14c0.49-4.48,2.7-8.42,4.6-12.41c2.71,0.33,5.43,0.69,8.17,0.8C94.01,12.82,91.89,12.42,89.95,11.94z"
	/>
<path fill="#FFFFFF" d="M42.16,13.78c2.85,0.29,5.06-1.74,7.68-2.43c3.62-1.02,7.42-0.85,11.13-0.82c5.7-0.09,11.03,2.41,16.73,2.33
	c-0.59,1.32-1.05,2.73-1.88,3.92c-1.35-0.05-2.7-0.15-4.05-0.311c0.44,7.07-2.11,14.34-6.93,19.53c0.31,1.57,1.94,3.39,1.07,4.92
	c-1.18,0.79-2.37,1.57-3.56,2.35c-0.18-0.21-0.54-0.63-0.73-0.85c-1.5-1.96-3.03-3.91-4.82-5.63c-0.16,2.57-0.3,5.14-0.45,7.7
	c-2.33-0.82-4.64-1.71-6.88-2.771c-1.3-2.31-1.95-5.66-4.93-6.33c-5.77-1.7-11.28-4.08-16.73-6.59c2.96-4.02,6.98-7.11,9.68-11.33
	C38.6,15.75,40.46,14.8,42.16,13.78z"/>
<path fill="#FDFDFD" d="M77.44,18.86c1.01-2.14,0.74-5.74,3.17-6.66c0.35,1.6,0.36,3.25,0.21,4.87
	C80.12,18.25,78.62,18.42,77.44,18.86z"/>
<path fill="#525252" d="M82.03,12.38c1.63-0.55,2.18-0.01,1.67,1.62C82.07,14.56,81.52,14.02,82.03,12.38z"/>
<path fill="#FDFDFD" d="M73.2,25.02c0.42-2.19,0.44-4.84,2.43-6.28C75.54,21.03,75.4,23.7,73.2,25.02z"/>
<path fill="#690A06" d="M130.311,22.59c2.069,0.23,4.449-0.5,6.25,0.81c-1.59,0.45-3.41,0.38-4.791,1.41
	c-0.41,2.47,3.07,1.07,3.91,2.85c-0.85,0.17-2.55,0.52-3.4,0.69c-0.539,1.45,0.121,3.94-1.789,4.45
	C129.32,29.53,129.689,25.94,130.311,22.59z"/>
<path fill="#730000" d="M138.52,22.63c2.15,0.02,4.291,0.04,6.44,0.16c-1.01,1.61-3.149,0.78-4.681,1.08c-1,3.11,2.15,2.5,3.91,3.65
	c-0.92,0.1-2.76,0.3-3.68,0.4c-0.16,1.42-0.289,2.83-0.42,4.25c-0.43,0.12-1.29,0.35-1.72,0.46
	C138.29,29.29,138.27,25.95,138.52,22.63z"/>
<path fill="#B4161B" d="M163.471,22.65c2.149-0.02,4.289-0.05,6.449-0.04c-0.41,2.6-6.08,0.15-4.391,3.78
	c0.871,0.08,2.611,0.25,3.48,0.34c-0.46,1.51-2.13,1.38-3.369,1.6c-0.361,1.62-0.121,3.63-1.771,4.66
	C163.24,29.58,163.42,26.1,163.471,22.65z"/>
<path fill="#A31F1F" d="M180.32,22.6c1.91,0.41,4.85-1.02,5.959,1.08c-1.709,0.52-4.1,0.1-4.809,2.21
	c1.559,0.37,3.17,0.71,4.549,1.58c-1.299,0.33-2.59,0.64-3.89,0.94c-0.03,1.26-0.06,2.53-0.09,3.79c-0.399,0.12-1.19,0.35-1.59,0.46
	C180.07,29.32,180.07,25.95,180.32,22.6z"/>
<path fill="#AA1F1A" d="M146.71,22.61c2,0.43,5.33-1.17,6.31,1.24c-1.26,0.46-5.779-0.34-4.289,2.39c1.189,0.43,2.92,0,3.539,1.44
	c-0.869,0.16-2.609,0.48-3.479,0.64c-0.17,1.5-0.33,3-0.511,4.5C145.09,30.74,147.29,25.85,146.71,22.61z"/>
<path fill="#A82E30" d="M154.92,22.67c2.221-0.05,4.45-0.06,6.67,0c-0.449,2.22-3.08,1.13-4.609,1.58
	c0.049,0.55,0.149,1.67,0.199,2.23c0.791,0.04,2.37,0.12,3.16,0.17l0.03,1.34c-0.78,0.05-2.351,0.16-3.14,0.21
	c-0.461,1.2,0.14,5.7-2.061,3.93C154.68,29,154.92,25.82,154.92,22.67z"/>
<path fill="#A51E21" d="M171.77,22.7c2.101,0.31,5.041-1.03,6.57,0.89c-1.54,0.22-3.08,0.46-4.609,0.71
	c-1.381,2.95,2.66,1.59,3.6,3.42c-0.88,0.13-2.641,0.4-3.52,0.54c-0.271,1.65-0.061,3.6-1.541,4.74
	C171.51,29.62,171.8,26.13,171.77,22.7z"/>
<path fill="#E5E5E5" d="M74.31,26.41c1.99,0.35,0.49,4-1.19,3.03C72.16,28.46,73,26.54,74.31,26.41z"/>
<path fill="#010101" d="M90.56,26.44c4.39-1.37,9.719-1.58,13.4,1.61c5.92,5.59,11.29,11.89,14.99,19.18
	c0.84,2.46,1.76,4.92,3.43,6.97c-0.021,2.94,0.33,5.94-0.31,8.84c-1.51,3.39-4.61,5.63-7.48,7.8c0.92,0.03,2.78,0.08,3.7,0.11
	c-1,0.48-2.011,0.98-3,1.5c-1.011,0.07-3.03,0.23-4.04,0.3l0.34-1.46c-6.619,0.63-13.189-0.02-19.73-0.94
	c2.57,1.49,5.3,2.67,8.06,3.78c1.061,0.5,2.09,1.05,3.13,1.6c-0.079,2.75,3.979,2.98,4.05,0.17c0.92-0.43,1.86-0.85,2.801-1.26
	c0.84-0.01,2.52-0.04,3.369-0.05l-1.109,1.56c3.89,4.081,9.199,6.459,13.119,10.54c3.16,2.701,4.15,7.061,7.391,9.69
	c0.71-7.45-7.09-10.47-10.811-15.59c5.07,3.04,10.131,6.75,12.641,12.29c-0.2,0.859-0.609,2.59-0.811,3.45
	c1.431,0.67,1.5-1.55,2.041-2.36c0.24,1.03,0.729,3.08,0.97,4.11c-0.65-0.28-1.97-0.841-2.62-1.12c0.62,2.77,1.41,5.51,2.13,8.26
	c-0.069,0.35-0.21,1.07-0.28,1.42c-0.789-3.33-1.08-6.89-2.93-9.87c-0.38,4.71,1.609,9.87-0.96,14.22l-0.3-2.069
	c1.25-3.97,0.6-8.2,0.76-12.3c-3.27-0.86-3.65-4.65-5.49-6.98c-1.22-0.84-2.699-1.15-4.06-1.66c1.79,3.82,3.989,7.54,4.87,11.7
	c-0.15,4.8-0.301,9.71-1.86,14.3c-0.45,1.101-0.649,2.28-0.42,3.45l-1.511-1.56c0.861,2.369,0.711,4.8-1.109,6.63
	c0.28-0.87,0.85-2.61,1.13-3.48c-0.2-0.67-0.42-1.329-0.63-1.989c-4.699,3.81-10.84,3.229-16.449,3.649
	c-3.281,2.34-5.951,5.44-9.211,7.83c0.42,1.94-0.789,2.78-2.49,3.14c-2.48,2.2-5.37,3.95-8.66,4.62c2.16-2.21,5.42-3.05,7.15-5.7
	c2.61-3.97,7.33-5.83,9.91-9.81c-11.38,6.931-21.26,16.7-34.35,20.5c-0.48,0.8-0.96,1.601-1.44,2.399
	c-7.31-0.02-14.59-1.09-21.74-2.5c-3.05-1.1-6.43-2.17-8.55-4.76c-0.58-6.689,1.52-13.18,4.09-19.26c-0.02-0.93-0.06-2.8-0.08-3.74
	c0.9,0.75,1.34,1.75,1.19,2.92c-1.54,6.681-5.15,12.91-4.93,19.95c3.25-3.329,4.45-8.01,6.6-12.03
	c2.79-7.129,5.72-14.609,5.14-22.409c-0.36-9.08,3.9-17.32,7.04-25.57c1.82-4.82,6.25-7.86,10.18-10.86
	c3.36,2.4,7.44-0.95,11.17-0.02c4.46,1.16,8.5,3.47,12.92,4.77c-4.14-2.87-8.82-5.14-11.27-9.84c-0.07,0.91-0.2,2.73-0.27,3.64
	c-3.21-1.15-4.74-4.01-5.06-7.25c1,0.64,2,1.28,3,1.93c0.14-0.42,0.42-1.24,0.55-1.65c-2.14-7.43,0.85-15.21,5.29-21.17
	C85.57,32.73,90.1,30.94,90.56,26.44 M94.35,30.39c-4.1,2.62-7.81,5.97-10.94,9.67c-2.42,4.74-5.23,11.04-1.9,16
	c3,4.45,6.27,9.14,11.36,11.36c4.08,2.12,8.8,1.04,13.17,1.73c7.8,1.07,15.11-7.09,13.38-14.71c-1.891-3.85-2.311-8.53-5.88-11.37
	c-1.38,0.34-1.569,2.25-2.54,3.16c-3.37,0.29-7.02,0.52-10.15-1c-3.6-2.95-2.77-9,0.641-11.76c0.93-0.979,2.96-1.46,2.369-3.18
	C100.88,29.04,97.27,28.97,94.35,30.39 M101.7,41.15c2.409,3.7,8.989,3.62,10.521-0.9c-2.681-1.82-4.451-4.5-5.941-7.31
	C102.609,33.83,100.66,37.59,101.7,41.15 M57.87,76.17c3.12-2.96,6.42-5.75,10.38-7.53c-0.57-0.26-1.69-0.78-2.25-1.05
	C62.65,69.69,59.08,72.19,57.87,76.17 M66.4,72.14c2.32,2.24,2.65,6.25,6.18,7.09l-0.36-1.88c0.38,0.17,1.14,0.5,1.53,0.66
	c0.87-0.479,1.75-0.97,2.63-1.45c0.13,0.5,0.38,1.5,0.5,2l-1.3,0.029c-0.05,0.551-0.13,1.67-0.17,2.23c0.54,0,1.62,0.02,2.16,0.02
	c0.15-3.91,0.3-7.9-0.96-11.66C72.82,68.49,69.27,69.64,66.4,72.14 M79.24,69.35c0.06,1.09,0.18,3.25,0.24,4.34
	c1.22-0.45,2.44-0.9,3.67-1.34c0.82,1.53,1.8,3.08,3.57,3.61c0.46-1.26,0.87-2.52,1.28-3.79C85.29,70.65,82.36,69.55,79.24,69.35
	 M59.37,78.91c-0.74,2.939,1.54,5.35,3.57,7.109c1.17-0.209,1.79-1.34,2.72-1.97c1.6,1.41,0.62,3.66,0.85,5.49
	c2.54-0.63,1.78-2.87,1.59-4.75c0.77-0.54,1.55-1.07,2.32-1.601c-0.01-1.799-1.19-3-2.27-4.26c-0.63-2.07-1.47-4.08-3.14-5.53
	C62.81,74.74,59.72,76,59.37,78.91 M55.04,85.68c-0.32,1.34-0.66,2.68-0.99,4.021c0.52,0.03,1.57,0.069,2.1,0.1
	c0.03,1.38,0.06,2.761,0.08,4.14c1.41-1.26,3.94-1.909,4.33-3.939C59.36,87.92,56.85,87.13,55.04,85.68 M88.39,105.55
	c-3.04,0.66-5.8-0.319-8.54-1.44c-2.8,1.211-4.49,4.141-5.48,6.91c-1.5,4.61-3.66,9.021-6.38,13.021c-2.36,2.5-5.51,4.05-7.92,6.5
	c1.04,1.16,2.12,2.28,3.22,3.38c-0.31-4.109,3.41-6.2,5.97-8.73c2.83-2.83,7.07-2.84,10.81-2.909c0.72,0.979,1.46,1.97,2.23,2.93
	c1.18-4.14,2.16-9.16,6.2-11.51c3.15-1.851,7.09-1.03,9.68,1.38c1.33-2.46,2.49-5,3.461-7.63c1.219-0.521,2.439-1.04,3.67-1.56
	c-1.521-3.5-4.621-5.791-7.4-8.24C93.27,97.92,89.83,101.311,88.39,105.55 M114.2,103.67c-0.07,1.86-0.07,3.74,0.36,5.561
	c-0.94,0.93-1.811,1.93-2.761,2.859c-0.14,1.45-0.26,2.9-0.37,4.35c3.59,0.051,7.34,0.201,10.721-1.229
	c2.029-0.84,2.99-3.22,2.689-5.31c0.32-1.65-1.66-2.84-2.38-0.65c-0.92-0.811-1.83-1.63-2.81-2.359
	C118.35,105.03,116.77,103.23,114.2,103.67 M104.641,108.72c0.08,2.48,0.149,4.97-0.041,7.45c-0.789-1.59-1.229-3.311-1.5-5.05
	c-1.789,2.47-3.33,5.11-4.58,7.899c-2.819,0.09-2.91-3.3-5.189-4.06l-0.26,1.38c-1.42,0.01-3.09-0.689-4.21,0.52
	c-1.71,1.271-0.44,3.61-0.47,5.341c-0.6-0.2-1.8-0.591-2.41-0.78c-0.4,2.641-0.24,5.58-1.97,7.811c0.63,0.81,1.41,2.479,2.57,1.229
	c5.16-4.64,11.41-7.76,16.84-12.05c1.85-1.54,4.301-1.77,6.57-2.221c-0.4-2.47,1.27-7.18-2.79-6.59c-0.04-0.459-0.11-1.38-0.14-1.84
	C106.46,108,105.25,108.48,104.641,108.72 M69.68,128.42c-0.2,1.16-0.46,2.3-0.79,3.43c-0.73,0.98-1.43,1.98-2.14,2.98
	c-0.81,1.45-1.37,3.15-2.68,4.24c-1.88-1.11-3.48-2.631-5.13-4.04l-1.03,1.76c-0.94-2.181-2.73-1.38-3.95-0.08
	c-2.14-0.649-4.05,0.22-5.34,1.94c5.05,1.14,10.37,1,15.22,3.039c6.8-2.92,13.92-5.199,20.2-9.229c-1.55-2.149-3.46-3.979-5.2-5.97
	c-0.7-0.021-2.08-0.07-2.78-0.09c-0.81,1.229-1.62,2.439-2.45,3.66c-0.26-1.32-0.6-2.61-1.02-3.881
	C71.16,126.109,70.55,127.54,69.68,128.42z"/>
<path fill="#FFFFFF" d="M94.35,30.39c2.919-1.42,6.53-1.35,9.509-0.1c0.591,1.72-1.439,2.2-2.369,3.18
	c-3.41,2.76-4.24,8.811-0.641,11.76c3.131,1.52,6.78,1.29,10.15,1c0.971-0.91,1.16-2.82,2.54-3.16c3.569,2.84,3.989,7.52,5.88,11.37
	c1.73,7.62-5.58,15.78-13.38,14.71c-4.37-0.69-9.09,0.39-13.17-1.73c-5.09-2.22-8.36-6.91-11.36-11.36c-3.33-4.96-0.52-11.26,1.9-16
	C86.54,36.36,90.25,33.01,94.35,30.39 M94.16,62.75c-0.1,0.87-0.3,2.59-0.4,3.45c0.87-0.11,2.62-0.32,3.49-0.43
	C96.91,64.18,95.47,63.44,94.16,62.75z"/>
<path fill="#FFFFFF" d="M11.75,47.92C15.61,42.91,20.78,39,24,33.45c4.11,0.62,8.35,1.35,11.84,3.77
	c4.29,2.521,7.26,6.6,10.32,10.41c-4.5-1.44-9.37-2.47-14.06-1.46c-7.17,3.5-11.8,10.7-14.76,17.84c0.52,3.7,1.53,7.38,2.73,10.92
	c2.69,4.81,4.76,11.21,10.59,12.98c1.72,1.6,3.58,3.029,5.49,4.39c0.48-0.25,1.44-0.75,1.92-1c1.14-0.36,3.44-1.08,4.58-1.44
	c-2.18,2.591-5.21,4.11-7.86,6.131c4.49-1.62,8.28-4.641,11.49-8.1c1.12,3.26-1.52,6-1.91,9.09c1.13,2.619,1.75,5.55,0.29,8.18
	c-0.48-1.61-0.93-3.221-1.4-4.83c-0.23,4.46-1,8.859-1.66,13.27c0.02,0.94,0.06,2.811,0.08,3.74c-2.57,6.08-4.67,12.57-4.09,19.26
	c2.12,2.59,5.5,3.66,8.55,4.76c7.15,1.41,14.43,2.48,21.74,2.5c0.48-0.799,0.96-1.6,1.44-2.399c13.09-3.8,22.97-13.569,34.35-20.5
	c-2.58,3.979-7.3,5.84-9.91,9.81c-1.73,2.65-4.99,3.49-7.15,5.7c3.29-0.67,6.18-2.42,8.66-4.62c1.701-0.359,2.91-1.199,2.49-3.14
	c3.26-2.39,5.93-5.49,9.211-7.83c5.609-0.42,11.75,0.16,16.449-3.649c0.21,0.66,0.43,1.319,0.63,1.989
	c-0.28,0.87-0.85,2.61-1.13,3.48c1.82-1.83,1.971-4.261,1.109-6.63l1.511,1.56c-0.229-1.17-0.03-2.35,0.42-3.45
	c1.56-4.59,1.71-9.5,1.86-14.3c-0.881-4.16-3.08-7.88-4.87-11.7c1.36,0.51,2.84,0.82,4.06,1.66c1.84,2.33,2.221,6.12,5.49,6.98
	c-0.16,4.1,0.49,8.33-0.76,12.3l0.3,2.069c2.569-4.35,0.58-9.51,0.96-14.22c1.85,2.98,2.141,6.54,2.93,9.87
	c0.07-0.35,0.211-1.07,0.28-1.42c0.91-2.98,1.101-6.5-2.13-8.26c0.65,0.279,1.97,0.84,2.62,1.12c-0.24-1.03-0.729-3.08-0.97-4.11
	c-0.541,0.811-0.61,3.03-2.041,2.36c0.201-0.86,0.61-2.591,0.811-3.45c-2.51-5.54-7.57-9.25-12.641-12.29
	c3.721,5.12,11.521,8.14,10.811,15.59c-3.24-2.63-4.23-6.989-7.391-9.69c-3.92-4.08-9.229-6.459-13.119-10.54
	c2.1-0.29,4.199-0.58,6.3-0.86c0.38-0.36,1.14-1.09,1.521-1.45c0.91-0.07,2.72-0.22,3.629-0.29c-0.819-0.97-1.649-1.94-2.489-2.89
	c-0.7,0.07-2.12,0.21-2.83,0.29c-0.92-0.03-2.78-0.08-3.7-0.11c2.87-2.17,5.971-4.41,7.48-7.8c0.64-2.9,0.289-5.9,0.31-8.84
	c1.29-0.68,2.591-1.36,3.88-2.04c0.2,0.94,0.61,2.81,0.811,3.75c0.56-0.78,1.13-1.56,1.699-2.34c0.381,0.49,1.131,1.49,1.51,1.99
	l-1.569-0.47c-0.31,0.71-0.61,1.41-0.91,2.12c1.74,4.32,2.49,8.98,4.53,13.19c2.77,6.04,2.98,12.76,4.811,19.07
	c1.58,8.48-0.271,17.181,1.139,25.69c0.48,3.27,0.4,6.59,0.25,9.89c-1.239,1.44-2.389,2.96-2.959,4.8
	c-3.211,8.24-6.23,16.58-8.43,25.15H45.98c-0.19-0.33-0.58-1-0.78-1.33c-5.42-2.529-11.1-4.609-16.33-7.57
	c-3.84-2.51-5.69-6.979-9.03-10.02c-2.65-2.63-6.37-4.891-6.71-8.99c-1.22-7.24-4.74-13.859-5.71-21.12
	c-0.54,0.14-1.62,0.4-2.16,0.54c-0.06-0.22-0.16-0.67-0.21-0.9c0.69,0.061,2.09,0.181,2.78,0.24C7.2,102.08,4.33,98.9,4.77,94.95
	c0.26-6.31,0.72-12.61,0.45-18.93c-0.48-5.66,2.9-10.54,4.16-15.86C10.15,56.1,8.9,51.38,11.75,47.92 M133.29,112.43
	c-0.86,0.711-1.021,3.2,0.399,3.19C134.52,114.9,134.689,112.45,133.29,112.43 M118.59,122.01c0.76,0.971,1.689,1.08,2.79,0.33
	c0.07-0.49,0.22-1.46,0.3-1.939C120.57,119.48,118.43,120.55,118.59,122.01 M131.77,119.85c-1.709,4.301-4.879,7.791-6.6,12.07
	c1.67-1.64,2.641-3.79,3.859-5.75C130.2,124.189,131.91,122.311,131.77,119.85 M99.93,128.43c0.58,0.29,1.74,0.87,2.32,1.16
	c-2.76,2.21-5.49,4.53-8.76,5.96c0.72,1.58-0.64,2.75-1.4,3.99c2.46-1.12,4.99-2.64,7.801-2.28c1.949,0.21,3.649,2.131,5.68,1.29
	c-1.131-3.93-6.68-2.35-9.62-2.86c3.17-2.689,6.59-5.18,8.95-8.67C103.279,127.62,101.7,128.45,99.93,128.43 M33.53,133.05
	c0.68,2.46,1.56,4.851,2.21,7.32c1.09,0.569,2.2,1.13,3.35,1.61c-0.73-1.561-2.06-2.69-3.03-4.08
	C35.25,136.27,34.8,134.42,33.53,133.05z"/>
<path fill="#F7F7F7" d="M101.7,41.15c-1.04-3.56,0.909-7.32,4.579-8.21c1.49,2.81,3.261,5.49,5.941,7.31
	C110.689,44.77,104.109,44.85,101.7,41.15z"/>
<path fill="#353535" d="M56.8,36.79c1.79,1.72,3.32,3.67,4.82,5.63c-0.84-0.07-2.53-0.23-3.37-0.31c0.63,1.32,1.25,2.64,1.86,3.96
	c-1.95,0.42-3.99,1.48-6,0.81c-1.68-0.83-3.07-2.11-4.55-3.24c-0.02-0.48-0.07-1.44-0.09-1.92c2.24,1.061,4.55,1.95,6.88,2.771
	C56.5,41.93,56.64,39.36,56.8,36.79z"/>
<path fill="#690A06" d="M133.939,38.83c2.051-0.03,4.101-0.06,6.15-0.07l-0.029,1.39c-1.551,0.22-3.09,0.5-4.59,0.91
	c0.809,1.66,2.709,1.69,4.229,2.19c-0.841,1.08-2.181,1.31-3.4,1.66c-0.579,1.3,0.29,4.43-1.989,3.84
	C133.359,45.56,133.98,42.12,133.939,38.83z"/>
<path fill="#AE1B1C" d="M142.471,39.31c1.859-1.21,4.51-0.26,6.619-0.02c-1.369,1.5-3.529,1.02-5.311,1.33
	c0.211,2.34,3.101,1.97,4.301,3.54c-0.95,0.11-2.84,0.32-3.79,0.43c-0.06,1.24-0.11,2.48-0.16,3.73c-0.43,0.08-1.28,0.25-1.71,0.34
	C142.35,45.54,142.13,42.41,142.471,39.31z"/>
<path fill="#A4241C" d="M150.77,38.84c1.971-0.01,3.94-0.02,5.91-0.02l0.061,1.33c-1.65,0.26-3.58,0.15-4.67,1.68
	c1.42,0.67,3.17,0.89,4.209,2.2c-1.189,0.24-2.379,0.47-3.579,0.689c-0.101,1.3-0.2,2.6-0.3,3.9c-0.44-0.06-1.32-0.17-1.76-0.22
	C150.609,45.21,150.62,42.02,150.77,38.84z"/>
<path fill="#A31F1F" d="M159.1,38.97c2.041,0.1,4.7-1.06,6.16,0.92c-1.58,0.38-3.17,0.75-4.73,1.2c0.98,1.57,2.941,1.81,4.221,3.03
	c-0.87,0.09-2.6,0.29-3.46,0.38c-0.271,1.49-0.53,2.97-0.81,4.46c-0.36-0.24-1.08-0.71-1.44-0.94
	C158.66,45.01,158.92,41.98,159.1,38.97z"/>
<path fill="#AC1C24" d="M167.57,39.45c1.56-1.44,4.26-0.3,6.209-0.52c-0.819,1.87-3.069,1.31-4.619,1.95
	c-0.391,2.36,3.13,1.38,3.83,3.31c-0.91,0.09-2.73,0.28-3.631,0.38c-0.039,1.25-0.06,2.51-0.08,3.76
	c-0.439,0.08-1.309,0.24-1.75,0.32C167.391,45.59,167.07,42.49,167.57,39.45z"/>
<path fill="#A4241C" d="M175.779,38.78c2.24,0.01,4.49,0.04,6.73,0.16c-0.81,2.27-3.609,1.18-5.34,1.76
	c0.189,2.14,2.5,2.08,4.01,2.53l-0.029,0.95c-1.16,0.15-2.311,0.31-3.461,0.47c-0.069,1.29-0.14,2.57-0.209,3.86l-1.711,0.13
	C175.74,45.35,175.75,42.06,175.779,38.78z"/>
<path fill="#AFAFAF" d="M64.94,43.21c0.28-0.12,0.82-0.36,1.1-0.49c2.4,0.64,2.54,3.771,3.64,5.66c-0.74,0.3-2.2,0.9-2.93,1.2
	c-0.79-1.08-1.59-2.16-2.4-3.22C64.52,45.3,64.72,44.26,64.94,43.21z"/>
<path fill="#FFFFFF" d="M27.7,52.73c4-2.62,8.73-6.42,13.73-4.05c4.19,2.18,10.32,3.71,10.69,9.39c0.61-1.01,1.22-2.01,1.82-3.02
	c0.32,0.56,0.95,1.66,1.27,2.21c-1.05,0.39-2.04,0.92-2.95,1.56c3.97,1.59,2.01,5.56,0.75,8.34c-2.96,5.92-6.21,12.24-12.15,15.68
	c-3.57,2.5-8.79,3.94-12.54,1.01c-4.1-2.91-4.65-8.319-5.07-12.919c3.31-1.74,7.95-2.92,9.2-6.86c0.6-4.73-4.51-6.03-8.01-6.96
	C24.03,55.29,26.53,53.95,27.7,52.73 M32.5,83.88c1.25-0.96,1.92-2.42,2.57-3.819C32.73,79.73,32.12,82.061,32.5,83.88z"/>
<path fill="#B51C1D" d="M145.79,55.34c2.13-0.12,4.26-0.16,6.39-0.12c-0.27,2.72-5.279,0.21-4.32,3.33
	c1.141,0.59,2.9,0.49,3.361,1.95c-0.811,0.08-2.41,0.24-3.211,0.32c-0.359,1.63,0.23,3.94-1.82,4.62
	C145.73,62.09,145.8,58.71,145.79,55.34z"/>
<path fill="#A91B23" d="M154.311,55.3c2.26-0.12,4.52-0.12,6.76,0.25c-1.291,1.72-4.44,0.1-5.061,2.34
	c0.4,2.01,3.27,0.77,4.061,2.52c-0.92,0.06-2.78,0.2-3.711,0.26c-0.159,1.5-0.289,3.01-0.459,4.51c-0.371-0.15-1.11-0.45-1.48-0.6
	C154.15,61.5,154.32,58.39,154.311,55.3z"/>
<path fill="#AE1C17" d="M162.6,55.3c2.19-0.07,4.391-0.1,6.59,0.03c-1.17,1.99-4.08,1.07-5.539,2.79c1.5,0.77,3.709,0.68,4.529,2.39
	c-0.869,0.06-2.59,0.16-3.449,0.22c-0.23,1.62-0.44,3.25-0.711,4.86C161.12,63.19,163.17,58.6,162.6,55.3z"/>
<path fill="#A4241C" d="M170.939,61.48c0.211-2.14-1.31-5.86,1.721-6.41c0.15,2.76,0.23,5.53,0.41,8.29
	c0.84-0.01,2.5-0.01,3.33-0.02c0.16-2.67,0.189-5.34,0.189-8.02c0.439,0.05,1.32,0.14,1.76,0.19c0.021,2.55,0.26,5.13-0.16,7.66
	C176.71,66.71,170.71,65.43,170.939,61.48z"/>
<path fill="#AA2225" d="M181.18,55.34c0.36,0,1.07-0.02,1.42-0.03c0.28,2.7,0.2,5.42,0.32,8.14c1.23-0.32,3.78,0.61,3.48-1.49
	c0.18-2.21,0.149-4.42,0.199-6.63l1.721,0.17c0,2.5,0.18,5.01-0.1,7.49c-1.111,2.66-4.431,2.57-6.58,1.36
	C180.73,61.45,180.439,58.31,181.18,55.34z"/>
<path fill="#A0A0A0" d="M131.25,58.39c3.279-1.55,0.859,4.9-0.63,1.61C130.779,59.6,131.09,58.79,131.25,58.39z"/>
<path fill="#F6F6F6" d="M23.08,60.77c1.9-0.12,3.78,0.1,5.48,1.02c0.31,2.83-1.79,5.52-4.67,5.69c-1.11-0.05-2.9,0.44-2.84-1.3
	C20.99,64.16,22.19,62.48,23.08,60.77z"/>
<path fill="#A3A3A3" d="M94.16,62.75c1.31,0.69,2.75,1.43,3.09,3.02c-0.87,0.11-2.62,0.32-3.49,0.43
	C93.86,65.34,94.06,63.62,94.16,62.75z"/>
<path fill="#FDFDFD" d="M57.87,76.17c1.21-3.98,4.78-6.48,8.13-8.58c0.56,0.27,1.68,0.79,2.25,1.05
	C64.29,70.42,60.99,73.21,57.87,76.17z"/>
<path fill="#F6F6F6" d="M66.4,72.14c2.87-2.5,6.42-3.65,10.21-2.96c1.26,3.76,1.11,7.75,0.96,11.66c-0.54,0-1.62-0.02-2.16-0.02
	c0.04-0.561,0.12-1.68,0.17-2.23l1.3-0.029c-0.12-0.5-0.37-1.5-0.5-2c-0.88,0.48-1.76,0.97-2.63,1.45
	c-0.39-0.16-1.15-0.49-1.53-0.66l0.36,1.88C69.05,78.391,68.72,74.38,66.4,72.14z"/>
<path fill="#E5E5E5" d="M79.24,69.35c3.12,0.2,6.05,1.3,8.76,2.82c-0.41,1.27-0.82,2.53-1.28,3.79c-1.77-0.53-2.75-2.08-3.57-3.61
	c-1.23,0.44-2.45,0.89-3.67,1.34C79.42,72.6,79.3,70.44,79.24,69.35z"/>
<path fill="#FFFFFB" d="M91.86,70.35c6.541,0.92,13.111,1.57,19.73,0.94l-0.34,1.46c1.01-0.07,3.029-0.23,4.04-0.3
	c-0.7,0.69-1.38,1.4-2.021,2.14c-0.85,0.01-2.529,0.04-3.369,0.05c-0.17-0.49-0.51-1.47-0.68-1.96c-2.181,0-4.351,0-6.511,0
	c-0.44,0.38-1.31,1.15-1.75,1.54l-1.04-0.09C97.16,73.02,94.43,71.84,91.86,70.35z"/>
<path fill="#747474" d="M0,71.11c0.39,0.16,1.16,0.5,1.55,0.66c-1.17,4.79-1.27,9.81-0.21,14.63c1.2,5.51,0.28,11.149,0.36,16.729
	C0.93,98.12,2.31,92.77,0,88.061V71.11z"/>
<path fill="#424242" d="M118.29,70.95c0.71-0.08,2.13-0.22,2.83-0.29c0.84,0.95,1.67,1.92,2.489,2.89
	c-0.909,0.07-2.719,0.22-3.629,0.29c-0.381,0.36-1.141,1.09-1.521,1.45c-2.101,0.28-4.2,0.57-6.3,0.86l1.109-1.56
	c0.641-0.74,1.32-1.45,2.021-2.14C116.279,71.93,117.29,71.43,118.29,70.95z"/>
<path fill="#A4241C" d="M146.41,71.23c0.27,0.09,0.8,0.27,1.061,0.36c0.359,2.76,0.199,5.58,0.67,8.34
	c1.09-0.21,2.18-0.42,3.27-0.64c0.05-2.54-0.04-5.1,0.34-7.61c2.109-1.4,1.49,2.1,1.66,3.27c-0.25,1.97,0.58,4.79-1.54,5.95
	c-1.83,1.14-5.479,0.64-5.8-1.881C145.55,76.46,145.57,73.73,146.41,71.23z"/>
<path fill="#A31F1F" d="M155.8,71.78c0.41-0.12,1.24-0.35,1.66-0.47c0.19,2.55,0.14,5.11,0.44,7.65c0.49,1.66,3.939,1.021,3.47-0.91
	c0.67-2.27-1.101-5.7,1.36-7.08c0.6,2.88,1.06,5.95,0.16,8.83c-1.41,2.58-6.281,2.19-6.9-0.83C155.62,76.59,155.8,74.17,155.8,71.78
	z"/>
<path fill="#A4241C" d="M172.02,70.77c2.28,2.51,0.92,6.23,1.131,9.28c-1.9,1.15-4.7,2.39-6.49,0.351
	c-1.641-2.69-0.67-6.09-0.74-9.061c2.34-0.29,1.471,2.36,1.73,3.66c0.029,1.66,0.189,3.311,0.42,4.95
	c1.17-0.24,3.529,0.18,3.17-1.79C171.391,75.69,171.26,73.16,172.02,70.77z"/>
<path fill="#A4241C" d="M175.79,77.95c0.181-2.21-1.14-5.91,1.681-6.76c0.129,2.32,0.129,4.65,0.25,6.97
	c-0.371,1.92,2.119,1.48,3.219,1.8c0.44-2.92,0.451-5.88,0.471-8.84c2.89,0.73,1.71,4.67,1.869,6.86
	C183.471,82.58,175.4,82.641,175.79,77.95z"/>
<path fill="#414040" d="M100.96,74.22c0.44-0.39,1.31-1.16,1.75-1.54c2.16,0,4.33,0,6.511,0c0.17,0.49,0.51,1.47,0.68,1.96
	c-0.94,0.41-1.881,0.83-2.801,1.26c-1.35-0.25-2.689-0.3-4.05-0.17c-1.04-0.55-2.069-1.1-3.13-1.6L100.96,74.22z"/>
<path fill="#423E3E" d="M135.24,73.12c1.59-0.52,2.14,0.04,1.65,1.7C135.29,75.34,134.74,74.77,135.24,73.12z"/>
<path fill="#F3F3F3" d="M59.37,78.91c0.35-2.91,3.44-4.17,5.64-5.51c1.67,1.45,2.51,3.46,3.14,5.53c1.08,1.26,2.26,2.461,2.27,4.26
	c-0.77,0.53-1.55,1.061-2.32,1.601c0.19,1.88,0.95,4.12-1.59,4.75c-0.23-1.83,0.75-4.08-0.85-5.49c-0.93,0.63-1.55,1.761-2.72,1.97
	C60.91,84.26,58.63,81.85,59.37,78.91z"/>
<path fill="#E5E5E5" d="M103.05,75.73c1.36-0.13,2.7-0.08,4.05,0.17C107.029,78.71,102.971,78.48,103.05,75.73z"/>
<path fill="#020202" d="M32.5,83.88c-0.38-1.819,0.23-4.149,2.57-3.819C34.42,81.46,33.75,82.92,32.5,83.88z"/>
<path fill="#FDFDFD" d="M41.76,88.109c1.8-3.35,4.75-6.06,7.9-8.129C48.45,83.78,45.69,87.02,41.76,88.109z"/>
<path fill="#A0A0A0" d="M46.28,87.891c1.25-1.41,2.43-2.871,3.64-4.311c0.23,0.7,0.7,2.109,0.93,2.811
	c-1.66,4.76-3.05,9.59-3.16,14.67c-1.35,5.989-1.66,12.14-2.81,18.17c-0.7-0.9-1.4-1.811-2.09-2.711c0.15-1.17-0.29-2.17-1.19-2.92
	c0.66-4.41,1.43-8.81,1.66-13.27c0.47,1.609,0.92,3.22,1.4,4.83c1.46-2.63,0.84-5.561-0.29-8.18
	C44.76,93.891,47.4,91.15,46.28,87.891 M44.39,106.18c-0.77,2.01-0.68,4.53-0.08,6.59C45.45,111.51,45.84,107.25,44.39,106.18z"/>
<path fill="#E5E5E5" d="M55.04,85.68c1.81,1.45,4.32,2.24,5.52,4.32c-0.39,2.03-2.92,2.68-4.33,3.939
	c-0.02-1.379-0.05-2.76-0.08-4.14c-0.53-0.03-1.58-0.069-2.1-0.1C54.38,88.359,54.72,87.02,55.04,85.68z"/>
<path fill="#5A5A5A" d="M30.66,87.91c3.24-0.12,6.47-0.25,9.71-0.24c-1.43,1.25-2.86,2.5-4.27,3.79l1.97-0.16
	c-0.48,0.25-1.44,0.75-1.92,1C34.24,90.939,32.38,89.51,30.66,87.91z"/>
<path fill="#A51E21" d="M149.8,89.91c-0.42-1.49,0.62-1.95,1.9-2.09c-0.011,2.68,0.01,5.35,0.17,8.029
	c0.87,0.01,2.61,0.041,3.479,0.061c0.07-2.54,0.01-5.07,0.2-7.6c0.46-0.07,1.38-0.211,1.841-0.28c-0.07,2.409,0.08,4.84-0.221,7.239
	c-0.609,2.84-4.97,3.471-6.609,1.24C149.529,94.47,149.811,92.109,149.8,89.91z"/>
<path fill="#AA251D" d="M159.971,94.96c-0.051-2.53-1.211-5.83,1.059-7.69c1.171,2.711,0.57,5.73,0.75,8.58
	c0.871,0.01,2.591,0.021,3.461,0.021c0.84-2.681-1.42-7.11,1.83-8.37c-0.051,3.26,1.55,7.641-1.541,9.98
	C163.45,98.3,160.1,97.67,159.971,94.96z"/>
<path fill="#AB1F1E" d="M169.98,95.1c-0.16-2.55-1.181-5.899,1.039-7.819c1.4,2.64-0.129,5.899,1.25,8.45
	c0.74,0.08,2.23,0.229,2.98,0.31c0.08-2.66,0.12-5.32,0.13-7.979c0.479,0.039,1.46,0.119,1.95,0.159
	c-0.051,2.311,0.12,4.64-0.18,6.94C176.67,98.72,170.279,98.8,169.98,95.1z"/>
<path fill="#AA1F1A" d="M180.01,95.91c-0.43-2.53-0.51-5.15-0.109-7.68c0.42-0.07,1.26-0.211,1.68-0.28
	c0.199,2.58-0.5,5.399,0.561,7.819c4.799,1.48,2.869-5.14,3.199-7.819c0.43,0.06,1.28,0.18,1.7,0.239
	c0.38,2.381,0.351,4.83,0.069,7.211C186.21,98.47,181.45,98.63,180.01,95.91z"/>
<path fill="#FFFFFF" d="M0,88.061c2.31,4.709,0.93,10.06,1.7,15.069c0.35,4.31,1.14,8.58,2.15,12.78c0.1,1.83,2.09,2.529,3.08,3.8
	c-0.66-0.05-1.97-0.14-2.62-0.18c2.75,4.689,5.11,9.59,7.52,14.46c3.1,3,5.4,6.75,8.67,9.56c5.11,3.261,9.96,7.101,15.9,8.75
	c2.68-0.22,5.25,0.57,7.68,1.62L43.23,155H0V88.061z"/>
<path fill="#F9F9F9" d="M88.39,105.55c1.44-4.239,4.88-7.63,9.52-7.899c2.779,2.449,5.88,4.74,7.4,8.24
	c-1.23,0.52-2.451,1.039-3.67,1.56c-0.971,2.63-2.131,5.17-3.461,7.63c-2.59-2.41-6.53-3.23-9.68-1.38
	c-4.04,2.35-5.02,7.37-6.2,11.51c-0.77-0.96-1.51-1.95-2.23-2.93c-3.74,0.069-7.98,0.079-10.81,2.909
	c-2.56,2.53-6.28,4.621-5.97,8.73c-1.1-1.1-2.18-2.22-3.22-3.38c2.41-2.45,5.56-4,7.92-6.5c2.72-4,4.88-8.41,6.38-13.021
	c0.99-2.77,2.68-5.699,5.48-6.91C82.59,105.23,85.35,106.21,88.39,105.55 M77.38,108.6c-1.41,3.44-2.54,7.051-2.46,10.82
	c1.68-1.58,1.92-3.97,2.58-6.05C77.77,111.78,78.84,109.91,77.38,108.6z"/>
<path fill="#F9F9F9" d="M134.08,97.16c3.23,1.76,3.04,5.279,2.13,8.26C135.49,102.67,134.7,99.93,134.08,97.16z"/>
<path fill="#E5E5E5" d="M3.92,101.311c1.33-0.82,2.8,1.35,1.66,2.33C4.28,104.47,2.69,102.28,3.92,101.311z"/>
<path fill="#A4A4A4" d="M114.2,103.67c2.569-0.439,4.149,1.36,5.45,3.221l-0.711-0.341c-0.34,0.37-1.01,1.12-1.34,1.49
	c-1.02,0.38-2.039,0.76-3.039,1.19C114.13,107.41,114.13,105.53,114.2,103.67z"/>
<path fill="#B01C10" d="M146.24,104.32c0.359-0.08,1.08-0.23,1.449-0.301c-0.039,2.78,0,5.57,0.201,8.36
	c0.84-0.021,2.529-0.04,3.369-0.06c0.2-2.68,0.311-5.37,0.4-8.061c0.42,0.01,1.26,0.021,1.68,0.03c-0.04,2.58,0.26,5.21-0.23,7.76
	c-1.09,2.4-5.02,2.58-6.6,0.64C145.37,110.07,145.68,107.05,146.24,104.32z"/>
<path fill="#AC1D1A" d="M155.73,107.939c0.17-1.409-0.48-4.09,1.77-3.859c0.2,2.68-0.1,5.45,0.689,8.05
	c0.761,0.09,2.271,0.271,3.021,0.36c0.261-2.801,0.319-5.62,0.25-8.44c0.36,0.06,1.069,0.181,1.42,0.25
	c0.62,2.49,0.79,5.181,0.08,7.681c-0.76,2.369-4.37,2.609-6.05,1.109C155.35,111.85,155.91,109.66,155.73,107.939z"/>
<path fill="#A71E1E" d="M165.891,105.46c0.01-1.05,0.6-1.521,1.779-1.42c-0.061,2.79-0.05,5.569,0.17,8.351
	c0.85-0.031,2.561-0.08,3.41-0.11c0.141-2.73,0.21-5.46,0.3-8.181c0.41,0.07,1.229,0.221,1.64,0.301
	c0.141,2.55,0.23,5.149-0.14,7.68c-1.021,2.48-4.94,2.439-6.659,0.71C165.34,110.51,165.71,107.88,165.891,105.46z"/>
<path fill="#AD201A" d="M176.061,103.85c0.34,0.17,1.02,0.5,1.359,0.67c0.29,2.57,0.2,5.16,0.34,7.74
	c0.85,0.04,2.54,0.131,3.381,0.17c0.17-2.619,0.069-5.25,0.379-7.85c0.34-0.189,1.01-0.561,1.34-0.74
	c0.271,2.71,0.851,5.51,0.16,8.2c-1.27,2.99-6.84,2.68-7.149-0.83C175.45,108.77,175.82,106.28,176.061,103.85z"/>
<path fill="#F6F6F6" d="M44.39,106.18c1.45,1.07,1.06,5.33-0.08,6.59C43.71,110.71,43.62,108.189,44.39,106.18z"/>
<path fill="#F9F9F9" d="M117.6,108.04c0.33-0.37,1-1.12,1.34-1.49l0.711,0.341c0.979,0.729,1.89,1.549,2.81,2.359
	c0.72-2.189,2.7-1,2.38,0.65c0.301,2.09-0.66,4.47-2.689,5.31c-3.381,1.431-7.131,1.28-10.721,1.229
	c0.11-1.449,0.23-2.899,0.37-4.35c0.95-0.93,1.82-1.93,2.761-2.859C115.561,108.8,116.58,108.42,117.6,108.04z"/>
<path fill="#EEEEEE" d="M104.641,108.72c0.609-0.239,1.819-0.72,2.42-0.96c0.029,0.46,0.1,1.381,0.14,1.84
	c4.06-0.59,2.39,4.12,2.79,6.59c-2.27,0.451-4.721,0.681-6.57,2.221c-5.43,4.29-11.68,7.41-16.84,12.05
	c-1.16,1.25-1.94-0.42-2.57-1.229c1.73-2.23,1.57-5.17,1.97-7.811c0.61,0.189,1.81,0.58,2.41,0.78c0.2-1.17,0.41-2.341,0.61-3.511
	c1.03,0.931,2.07,1.86,3.11,2.791c0.32-1.721,0.64-3.431,0.96-5.141l0.26-1.38c2.279,0.76,2.37,4.149,5.189,4.06
	c1.25-2.789,2.791-5.43,4.58-7.899c0.271,1.739,0.711,3.46,1.5,5.05C104.79,113.689,104.721,111.2,104.641,108.72z"/>
<path fill="#BABABA" d="M77.38,108.6c1.46,1.311,0.39,3.181,0.12,4.771c-0.66,2.08-0.9,4.47-2.58,6.05
	C74.84,115.65,75.97,112.04,77.38,108.6z"/>
<path fill="#A5A5A5" d="M133.29,112.43c1.399,0.021,1.229,2.471,0.399,3.19C132.27,115.63,132.43,113.141,133.29,112.43z"/>
<path fill="#787878" d="M88.86,116.859c1.12-1.209,2.79-0.51,4.21-0.52c-0.32,1.71-0.64,3.42-0.96,5.141
	c-1.04-0.931-2.08-1.86-3.11-2.791c-0.2,1.17-0.41,2.341-0.61,3.511C88.42,120.47,87.15,118.13,88.86,116.859z"/>
<path fill="#FBFBFB" d="M7.45,116.939c0.78,2.41,1.52,4.82,2.23,7.25C6.48,123.23,7.88,119.41,7.45,116.939z"/>
<path fill="#010101" d="M118.59,122.01c-0.16-1.46,1.98-2.529,3.09-1.609c-0.08,0.479-0.229,1.449-0.3,1.939
	C120.279,123.09,119.35,122.98,118.59,122.01z"/>
<path fill="#424242" d="M131.77,119.85c0.141,2.461-1.569,4.34-2.74,6.32c-1.219,1.96-2.189,4.11-3.859,5.75
	C126.891,127.641,130.061,124.15,131.77,119.85z"/>
<path fill="#A31F1F" d="M150.34,120.27c0.35,0.16,1.051,0.49,1.4,0.65c-0.12,2.641-0.11,5.3,0.41,7.91
	c1.08-0.16,2.17-0.32,3.25-0.49c-0.021-2.63,0.039-5.25,0.149-7.88c0.44,0.101,1.3,0.28,1.729,0.38
	c0.021,2.391,0.181,4.801-0.109,7.18c-0.73,2.69-4.779,3.211-6.561,1.25C149.17,126.49,149.76,123.2,150.34,120.27z"/>
<path fill="#A31F1F" d="M159.75,122.92c-0.43-1.34,0.73-2.14,1.62-2.779c0.229,2.299,0.26,4.629,0.409,6.939
	c-0.529,2.061,2.65,2.13,3.471,1c0.27-2.471,0.08-4.971,0.311-7.439c2.039-0.801,1.629,2.279,1.85,3.449
	c0.55,2.85-0.66,7.19-4.391,6.23C159.16,130.3,159.77,125.561,159.75,122.92z"/>
<path fill="#A31F1F" d="M169.99,120.9c0.38-0.101,1.14-0.301,1.52-0.4c0.18,2.77,0.04,5.561,0.58,8.3
	c1.07-0.14,2.15-0.29,3.221-0.44c0.06-2.75,0.119-5.489,0.359-8.229c2.59,1.33,1.48,4.58,1.57,6.931
	c0.23,3.92-6.471,4.659-7.26,0.959C169.59,125.67,169.66,123.25,169.99,120.9z"/>
<path fill="#A4241C" d="M179.66,125.04c0.01-1.76-0.46-4.26,1.76-4.8c0.141,2.279,0.15,4.56,0.26,6.84
	c-0.369,1.98,2.2,1.439,3.33,1.75c0.34-2.74,0.27-5.5,0.48-8.24c0.27-0.04,0.81-0.109,1.08-0.15c0.85,2.621,1.229,5.701,0.15,8.311
	c-0.891,2.07-3.761,1.91-5.48,1.13C179.49,128.93,179.83,126.71,179.66,125.04z"/>
<path fill="#F3F3F3" d="M69.68,128.42c0.87-0.88,1.48-2.311,2.91-2.24c0.42,1.271,0.76,2.561,1.02,3.881
	c0.83-1.221,1.64-2.431,2.45-3.66c0.7,0.02,2.08,0.069,2.78,0.09c1.74,1.99,3.65,3.82,5.2,5.97c-6.28,4.03-13.4,6.31-20.2,9.229
	c-4.85-2.039-10.17-1.899-15.22-3.039c1.29-1.721,3.2-2.59,5.34-1.94c1.22-1.3,3.01-2.101,3.95,0.08l1.03-1.76
	c1.65,1.409,3.25,2.93,5.13,4.04c1.31-1.09,1.87-2.79,2.68-4.24c0.71-1,1.41-2,2.14-2.98C69.22,130.72,69.48,129.58,69.68,128.42z"
	/>
<path d="M99.93,128.43c1.771,0.021,3.35-0.81,4.971-1.41c-2.36,3.49-5.78,5.98-8.95,8.67c2.94,0.511,8.489-1.069,9.62,2.86
	c-2.03,0.841-3.73-1.08-5.68-1.29c-2.811-0.359-5.341,1.16-7.801,2.28c0.76-1.24,2.12-2.41,1.4-3.99c3.27-1.43,6-3.75,8.76-5.96
	C101.67,129.3,100.51,128.72,99.93,128.43z"/>
<path fill="#020202" d="M33.53,133.05c1.27,1.37,1.72,3.22,2.53,4.851c0.97,1.39,2.3,2.52,3.03,4.08
	c-1.15-0.48-2.26-1.041-3.35-1.61C35.09,137.9,34.21,135.51,33.53,133.05z"/>
<path fill="#A4241C" d="M165.76,138.98c0.07-0.881,0.28-3.08,1.66-2.431c0.67,2.66-0.32,5.58,0.7,8.14
	c0.76,0.07,2.271,0.211,3.021,0.291c0.739-2.851-1.111-7.021,1.909-8.791c0.2,2.931,0.511,5.92-0.079,8.841
	c-1.431,2.329-5.5,2.29-6.811-0.101C165.62,143,165.62,140.96,165.76,138.98z"/>
<path fill="#A31F1F" d="M181.57,136.48c2.14-0.16,1.539,3.08,1.779,4.489c0.53,2.82-1.05,6.41-4.42,5.83
	c-4.84-0.86-2.88-7.18-3-10.6c3.23,1.649,0.67,5.909,2.18,8.51c0.721,0.08,2.181,0.26,2.91,0.34
	C181.311,142.2,181.279,139.33,181.57,136.48z"/>
<path fill="#A31F1F" d="M146.141,136.34c3.039,1.32,1.029,5.471,1.539,8.04c1.12,0.24,2.25,0.479,3.381,0.71
	c0.449-2.79,0.549-5.609,0.609-8.42l1.6-0.01c0,2.79,0.41,5.65-0.289,8.39c-1.36,2.091-4.82,2.31-6.431,0.431
	C145.23,142.609,145.87,139.35,146.141,136.34z"/>
<path fill="#A31F1F" d="M155.91,136.37l1.359,0.51c0.541,2.64,0.41,5.38,0.66,8.06c0.74-0.039,2.221-0.14,2.961-0.18
	c1.58-2.59-0.94-6.729,2.1-8.54c0.189,3.39,1.92,9.74-2.91,10.58C154.42,147.17,155.859,139.939,155.91,136.37z"/>
<path fill="#730000" d="M185.34,142.359c1.561,0.11,3.11,0.211,4.66,0.391v0.811c-1.58,0.01-3.16,0.06-4.73,0.09
	C185.29,143.33,185.33,142.68,185.34,142.359z"/>
</svg>
