<?xml version="1.0" encoding="utf-8"?>
<!-- Generator: Adobe Illustrator 15.0.2, SVG Export Plug-In . SVG Version: 6.00 Build 0)  -->
<!DOCTYPE svg PUBLIC "-//W3C//DTD SVG 1.1//EN" "http://www.w3.org/Graphics/SVG/1.1/DTD/svg11.dtd">
<svg version="1.1" id="Layer_1" xmlns="http://www.w3.org/2000/svg" xmlns:xlink="http://www.w3.org/1999/xlink" x="0px" y="0px"
	 width="135px" height="103px" viewBox="0 0 135 103" enable-background="new 0 0 135 103" xml:space="preserve">
<path fill="#FFFFFF" d="M0,0h135v31.27c-0.01-0.6-0.02-1.82-0.029-2.43c-0.391,0.15-1.181,0.45-1.57,0.6
	c0.39-0.96,1.189-2.89,1.59-3.85c-1.79,0.47-2.99,1.55-3.6,3.25c-0.951-1.18-1.811-2.46-3.021-3.38c-2.22-0.71-4.57-0.75-6.86-1.04
	c1.83-0.12,3.66-0.16,5.49-0.19l0.01-1.22c-2.97-0.01-5.939-0.01-8.9-0.22c0.9,1.31,0.551,2.86,0.15,4.27
	c-1.65,4.58-2.32,10.36,0.29,14.7c-0.3,3.62-0.6,7.25-1.239,10.83c-0.621-0.37-1.851-1.13-2.461-1.51
	c-0.82-3.44-0.689-7.02-1.229-10.5c-3.08,2.78-0.99,7.57-1.479,11.22c2.159,2.021,5.85,3.19,7.93,0.39
	c-0.03,1.83,0.47,3.601,1.15,5.28c4.6-0.239,9.189,0.171,13.779,0.48v1.38l-0.01-0.189c-3.32,2.699-1.18,7.489-1.99,11.14
	c-1.6-0.47-3.25-0.72-4.91-0.82c-0.17-2.94,0.1-5.92-0.38-8.83c-0.351-0.239-1.04-0.71-1.39-0.95c-0.24,3.65-0.541,7.381,0.14,11
	c1.92,2.311,5.399,1.01,7.97,1.101l0.381-0.98L135,70.28V103h-19.99c3.82-2.439,5.24-7.24,5.12-11.561
	c4.601-2.26,2.32-8.26,2.761-12.31c-0.48,0.03-1.451,0.08-1.931,0.11l-0.91,0.06c-0.09-2.14-1.2-3.989-2.29-5.75
	c0.051-0.38,0.16-1.13,0.221-1.51c1.47-0.37,3.459,0.06,4.56-1.29c0.771-3.43,0.56-6.97,0.351-10.45
	c-0.641,0.021-1.931,0.04-2.57,0.05c0.029,3.37,0.05,6.75,0.1,10.12c-1.5,0.2-3.02,0.14-4.52-0.02c-0.08-3.61,0.029-7.23-0.28-10.82
	c-1.7,1.11-1.7,3.21-2.181,4.97c-2.449-4.109-6.069-7.27-9.399-10.63c1.739-0.26,3.229-1.12,4.54-2.26
	c0.05-3.67,0.21-7.35-0.1-11.02c-2.65,2.75-0.75,7.22-1.791,10.67c-0.729,0.27-2.199,0.81-2.939,1.09
	c-0.48-0.4-1.439-1.19-1.92-1.59c0.07-2.7,0.09-5.4,0.18-8.1c0.76-2.08-3.039-2.86-2.92-0.59c0,2.14,0.061,4.28,0.051,6.42
	L98.21,47.9c-0.76-0.59-1.521-1.18-2.26-1.77c-0.101-1.83-0.21-3.65-0.4-5.47c-1.46,1.14-1.271,2.99-1.38,4.65
	c-1.01-2.15-2.35-4.11-4.04-5.78c0.06-0.25,0.181-0.74,0.24-0.99c-5.101-1.02-10.149-2.53-15.399-2.58
	c-2.291,0.08-4.32-1.06-6.201-2.22c1.291-2.73,5.541-4.2,4.811-7.54c-0.391-0.21-1.17-0.63-1.561-0.84
	c2.19,0.98,2.48-1.19,3.051-2.75c-2.17,0.15-4.34,0.24-6.5,0.31c-0.63,0.03-1.87,0.08-2.49,0.1c-0.23,1.89,0.29,4.08-1.02,5.68
	l-0.59,0.09c-0.18,1.57-0.36,3.13-0.56,4.7c-2.14,0-4.28,0.07-6.41,0.24c0.34-1.57,0.7-3.13,1.03-4.7c1.5,0.09,3,0.1,4.5,0.11
	c-0.02-0.52-0.04-1.55-0.06-2.07c-1.35,0-2.7-0.01-4.06-0.01H57.9c0-0.58-0.02-1.74-0.02-2.32c2.09-0.17,4.18-0.37,6.26-0.69
	c-0.29-0.34-0.88-1.01-1.18-1.35c-2.55,0.22-5.11,0.32-7.67,0.41c-0.01,3.96,0,7.92,0.21,11.88c-0.97,0.59-1.93,1.17-2.9,1.74
	c-2.27,0.41-4.45,1.3-6.16,2.88c-0.65,0.52-1.3,1.05-1.94,1.58c-1.77-1.61-3.68-3.05-5.72-4.29c0.37,1.06,0.75,2.12,1.14,3.17
	c-2.05-1.05-4.19-1.92-6.4-2.57c-2.69-0.47-5.3-1.27-8-1.66c1.49,1.2,3.11,2.24,4.69,3.32c-1.07-0.03-3.22-0.09-4.29-0.11l1.76,0.94
	c-0.77,0.55-1.54,1.11-2.3,1.68c0.11,3.9-1.18,8.77,1.96,11.82c1.71,0.46,3.6,0.52,5.28-0.061c3.38-2.54,0.68-8.13,4.84-10.1
	c0.06,1.99-0.07,3.98-0.42,5.94c0.86,0.09,2.58,0.26,3.43,0.34c-0.31-1.58-0.6-3.16-0.86-4.75l0.43,1.2
	c0.71,0.08,2.13,0.24,2.84,0.31c-0.37,0.42-1.12,1.27-1.5,1.69c0.47,0.44,0.93,0.88,1.4,1.33c1.59-3.07,4.84-2.59,7.58-1.72
	c0.07,1.89,0.13,3.78,0.21,5.67c-1.56,0.051-3.12,0.1-4.68,0.2c1.58,0.04,3.15,0.05,4.73,0.06c0.08,2.711,0.09,5.431,0.09,8.141
	c-1.68-0.85-3.42-1.57-5.18-2.25c0.06,0.08,0.17,0.26,0.23,0.35c1.48,1.09,2.88,2.32,4.53,3.16l-0.19,0.71
	c-1.23,3.021-2.71,5.99-5.03,8.33c-4.17,0.271-6.96-2.91-9.01-6.09c1.77-0.45,3.54-0.97,5.18-1.79c4.56-3.36,2.06-9.86,2.34-14.61
	c-0.7,0.12-2.09,0.37-2.79,0.49c-0.79,0.15-1.58,0.32-2.36,0.52c-0.89,2.87-2.77,5.331-3.49,8.27c-1.13,3.061-0.69,6.35-0.46,9.52
	c-0.77,2.211-2.81,2.28-4.8,2.211c-0.09-3.42-0.1-6.83-0.09-10.25c-0.62-0.021-1.84-0.08-2.46-0.11c-0.04,3.46-0.08,6.92,0.01,10.38
	c0.29,0.2,0.85,0.6,1.13,0.811c2.76,1.069,9.17,1.279,7.13-3.531c1.25,1.461,2.8,2.69,3.81,4.341c0.23,2.19,0.25,4.399,0.39,6.59
	c-0.09,3.59-1,7.47,0.87,10.771l0.98,1.26c0.06,0.1,0.18,0.32,0.24,0.42C43.43,97.1,49.51,99.4,53.82,103H36.95
	c0.06-1.52,0.13-3.04,0.2-4.561c-0.25-1.689-0.43-3.379-0.59-5.08c-2.12-1.829-3.97-4.219-6.89-4.76c-0.08-3.119-0.09-6.25-0.1-9.38
	c-0.61,0-1.84-0.01-2.46-0.01c-0.07,3.66,0.03,7.34-0.32,11c-4.43-2.06-2.66-7.22-2.95-11.069c-0.4,0.01-1.18,0.039-1.57,0.06
	c0,2.81,0.01,5.63,0.03,8.45c-1.61,0.479-3.2,1.039-4.82,1.51c-0.11-3.09,0.12-6.221-0.42-9.27c-0.61-0.301-1.83-0.9-2.44-1.201
	c-0.13,3.221-0.25,6.48,0.44,9.66c0.4,0.87,0.83,1.75,1.27,2.61c-1.94,1.06-3.82,2.2-5.67,3.41c-0.18,1.021-0.37,2.05-0.56,3.08
	c-2.35,1.069-3.39,3.43-4.55,5.55H0V0 M13.23,4.08c-0.26,3.62-0.03,7.25-0.09,10.88c0.62-0.03,1.84-0.1,2.45-0.14
	c-0.03-1.46-0.06-2.93-0.09-4.39c2.04-0.03,5.02,0.75,5.51-2.04c-1.83-0.08-3.67-0.11-5.5-0.12c0.01-0.68,0.03-2.04,0.04-2.71
	c2.19,0.04,4.37,0.07,6.56,0.06c-0.39-0.68-0.6-2-1.65-1.84C18.06,3.9,15.55,3.33,13.23,4.08 M45.07,4.08
	c0.04,3.63,0,7.27,0.02,10.9c0.45,0,1.36-0.02,1.82-0.03c0-1.48,0-2.97,0-4.46c1.63-0.03,3.26-0.04,4.9-0.05
	C51.85,9.9,51.95,8.8,52,8.26c-1.71-0.01-3.41-0.02-5.12-0.03c0.01-0.67,0.03-1.99,0.04-2.65c1.95,0.01,3.9,0.03,5.84,0.08
	c0.29-0.43,0.86-1.28,1.15-1.7C50.97,3.75,48,3.76,45.07,4.08 M55.23,4.12c0.13,3.56,0.12,7.12,0.07,10.69
	c0.63,0.05,1.88,0.16,2.5,0.21c0.03-1.48,0.06-2.97,0.09-4.45c1.57-0.29,6.11,0.59,4.9-2.21c-2.15-0.39-5.78,0.94-5.12-2.6
	c2.23-0.11,4.57,0.03,6.62-1.03C61.72,2.71,58.19,4.2,55.23,4.12 M79.99,3.76c-0.82-0.05-2.461-0.15-3.28-0.2
	c-0.931,3.71-0.22,7.58-0.431,11.36c0.621,0.01,1.851,0.03,2.471,0.04c0.12-1.51,0.23-3.02,0.37-4.53c1.899,0.03,3.8-0.06,5.67-0.4
	c-0.24-0.42-0.729-1.271-0.97-1.7c-2.19-0.24-5.76,0.88-5.2-2.6c2.159-0.05,4.319-0.1,6.479-0.17C84.75,2.86,81.8,3.98,79.99,3.76
	 M86.9,4.1l0.189,0.68C87.12,6,87.16,7.22,87.2,8.44c-0.15,2.18-0.15,4.36-0.13,6.54c0.57,0.02,1.729,0.06,2.31,0.08
	c-0.021-1.52,0.021-3.05,0.03-4.57c2-0.01,4.02-0.03,5.96-0.6c-0.591-2.81-3.94-1.23-5.89-1.68c-0.021-0.64-0.051-1.92-0.07-2.56
	c1.93-0.05,3.869-0.06,5.79-0.24l-0.22-1.34c-1-0.16-1.99-0.32-2.99-0.48C90.3,3.82,88.6,3.98,86.9,4.1 M97.561,4.33
	c-0.24,3.48-0.011,6.98-0.101,10.47c0.59,0.06,1.78,0.18,2.38,0.25c0.01-1.53,0.03-3.06,0.051-4.58c2.049-0.28,5.889,1.05,6.02-2.15
	c-1.939-0.03-3.891,0.03-5.82-0.12c-0.1-0.64-0.29-1.92-0.39-2.56c2.14-0.54,6.489,1.47,6.8-1.76c-2.18-0.29-4.38-0.28-6.55,0
	C99.12,3.91,97.92,3.14,97.561,4.33 M118.73,4.09l-0.33-0.05c0.14,3.61,0.129,7.22,0.119,10.83c1.03,0.01,2.061,0.02,3.09,0.03
	c-0.02-1.47-0.02-2.94-0.029-4.4c1.98-0.12,5,0.66,5.439-2.09c-1.789-0.09-3.569-0.14-5.35-0.19c-0.02-0.86-0.05-1.72-0.08-2.58
	c1.85-0.05,3.71-0.11,5.57-0.22l-0.18-1.38C124.23,3.81,121.471,3.7,118.73,4.09 M2.25,4.06c0.12,3.6,0.1,7.2,0.09,10.8
	c0.61,0.02,1.84,0.04,2.46,0.05c-0.03-1.44-0.05-2.89-0.07-4.33c1.77-0.06,3.55-0.13,5.32-0.17C10.01,9.86,9.94,8.77,9.9,8.23
	C8.12,8.25,6.34,8.26,4.56,8.26C4.45,5.07,7.77,5.89,9.9,5.42c0.33-0.32,0.99-0.97,1.32-1.29C8.23,3.95,5.24,3.97,2.25,4.06
	 M23.7,3.85c0.22,3.64-0.2,7.37,0.44,10.96c0.41,0.08,1.22,0.23,1.62,0.31c0.03-1.7,0.05-3.39,0.08-5.09l1.35,0.01l-0.1,0.88
	c2.09-0.27,4.97,0.21,5.02-2.75C30.07,8.06,28.04,8,26,7.94c0-0.47,0.01-1.42,0.01-1.9c2.18-0.07,4.37-0.2,6.51-0.66
	C30.61,2.4,26.58,4.51,23.7,3.85 M33.98,3.61c0.05,3.5-0.02,7,0.07,10.5l0.26,0.79c0.42-0.06,1.25-0.19,1.67-0.26l0.37,0.57
	c0.13-1.72,0.25-3.44,0.37-5.16c1.83,0.29,3.67,0.42,5.52,0.45c0.64-4.84-7,0.4-5.95-4.82c1.89-0.05,3.77-0.11,5.65-0.16
	c0.16-0.29,0.48-0.88,0.64-1.17c-0.59-0.06-1.76-0.19-2.34-0.25C38.15,3.91,36.07,3.8,33.98,3.61 M66.01,4.04
	c0.07,3.66,0.05,7.32,0.09,10.98c0.43-0.01,1.29-0.05,1.72-0.07c0.1-1.51,0.19-3.02,0.31-4.53c2-0.22,6.07,1.07,5.91-2.16
	c-2.08-0.01-4.149-0.01-6.22-0.02c0.06-0.63,0.17-1.89,0.23-2.53c1.89-0.16,3.79-0.09,5.69-0.05c0.289-0.38,0.88-1.14,1.17-1.52
	C71.95,3.97,68.971,3.76,66.01,4.04 M108.189,4.1c0.09,3.6,0.07,7.2,0,10.8c0.65,0,1.951,0.01,2.59,0.02
	c0.011-1.42,0.021-2.84,0.021-4.26c1.851-0.4,5.341,0.46,5.22-2.35c-2.289-0.23-6.06,1.02-5.43-2.67c1.689,0,3.391-0.01,5.09-0.01
	c0.32-0.35,0.95-1.06,1.26-1.42C114.04,3.83,111.109,3.82,108.189,4.1 M2.42,33.7c0.54,0.8,1.28,1.12,2.22,0.96
	c0.17-1.65,0.14-3.31,0.16-4.96c0.58-0.2,1.74-0.6,2.31-0.8c0.66-0.03,1.98-0.1,2.64-0.13C11.16,26.6,7,26.33,6.01,27.6
	c-0.61-0.64-1.2-1.29-1.76-1.97c1.64-1.91,4.31-0.88,6.45-1.08L10.66,23c-2.76-0.01-5.53-0.01-8.29,0.08
	C2.5,26.62,2.23,30.16,2.42,33.7 M13.15,23.05c0,3.92-0.22,7.86,0.19,11.77c3.17,0.11,2.01-3.88,2.34-5.87
	c2.01-0.02,4.89,1.29,5.31-1.59c-2.31-0.42-6.22,0.86-5.68-2.87c2.15-0.57,5.93,1.44,6.92-1.31C19.21,22.95,16.18,22.98,13.15,23.05
	 M23.95,22.97c-0.71,3.72,0.19,7.5-0.23,11.23c0.49,0.17,1.48,0.49,1.98,0.65c0.02-1.76,0.04-3.52,0.04-5.28
	c1.79-0.54,3.66-0.64,5.52-0.62c0.12-0.41,0.36-1.24,0.48-1.65c-2.39-0.43-6.58,1.08-6.26-2.74c2.2-0.54,5.73,1.24,6.89-1.42
	C29.56,22.98,26.75,22.99,23.95,22.97 M34.09,23.1c-0.01,0.76-0.03,2.27-0.04,3.02c-0.52,2.99,0.03,6.03,0.34,9.01
	c2.82-0.81,2.13-3.88,2.22-6.13c1.81,0,3.61,0,5.42,0c-0.03-0.5-0.09-1.5-0.12-2c-1.77,0.04-3.55,0.07-5.32,0.11
	c-0.01-0.64-0.03-1.92-0.04-2.56c1.97-0.12,4.12,0.35,5.93-0.71l0.74,0.02C40.46,22.29,37.11,23.26,34.09,23.1 M45.12,23.04
	c-0.12,4.02-0.16,8.05,0.15,12.06c3.06-0.68,0.48-4.74,2.78-6.02c1.9,0.02,4.64,1.15,4.05-1.91c-1.77-0.02-3.53-0.04-5.3-0.07
	c0.09-0.63,0.26-1.9,0.34-2.53c1.86-0.15,3.73-0.06,5.6,0.01c0.3-0.37,0.9-1.13,1.19-1.5C51,22.99,48.06,22.98,45.12,23.04
	 M76.34,22.85c-0.09,3.66,0,7.33-0.09,11c0.83,0.34,1.66,0.69,2.49,1.03c0.05-1.77,0.09-3.53,0.09-5.3
	c1.891-0.71,4.42,0.49,5.88-1.14c-1.44-2.7-6.58,0.53-6.06-3.78c2.14-0.59,5.42,1.02,6.619-1.5c-2.879-0.24-5.77-0.16-8.66-0.11
	L76.34,22.85 M87.12,23.04c0.069,3.87-0.19,7.75,0.13,11.61c2.811,1.08,1.59-3.33,1.83-4.94c2.061-0.36,4.12-0.68,6.18-1.02
	c-0.91-3.32-6.25,0.24-6.71-3.94c2.49-0.44,5.56,0.59,7.479-1.51C93.07,22.93,90.09,22.98,87.12,23.04 M97.51,23.01
	c0.01,3.32-0.1,6.63-0.02,9.95c-0.301,1.3,1.31,1.48,2.07,2.02c0.25-2,0.479-4,0.969-5.96c1.891,0,3.791-0.03,5.681-0.16
	c-0.59-2.98-3.899-1.57-6.04-1.84c-0.109-0.61-0.34-1.84-0.449-2.45c2.09-0.05,4.18-0.08,6.27-0.16c0.14-0.23,0.42-0.68,0.56-0.9
	c-1.75-1.21-4.47-0.78-6.38-0.11C99.51,23.3,98.17,23.11,97.51,23.01 M108.21,22.88c-0.01,3.9,0.04,7.8,0.09,11.7
	c0.62,0.03,1.851,0.08,2.46,0.11c0.02-1.72,0.03-3.44,0.02-5.15c1.791-0.43,3.611-0.67,5.441-0.84c-0.441-2.59-3.601-1.18-5.4-1.61
	c-0.041-0.63-0.12-1.89-0.16-2.53c1.79-0.03,3.58-0.08,5.369-0.13c1.921-2.16-3.739-1.93-4.85-1.04
	C110.439,23.26,108.95,23.01,108.21,22.88 M2.43,42.35c-0.21,3.77,0.01,7.55-0.08,11.33c0.6,0.01,1.82,0.021,2.43,0.03
	c-0.02-1.73-0.05-3.47-0.1-5.2c1.75-0.35,3.52-0.57,5.3-0.729c-0.02-0.43-0.06-1.29-0.08-1.72c-1.69-0.01-3.39-0.02-5.09-0.03
	c0.01-0.561,0.04-1.68,0.06-2.23c2-0.01,3.99-0.04,5.99-0.09c-0.04-0.57-0.13-1.7-0.18-2.27C8.03,41.89,4.45,40.27,2.43,42.35
	 M13.18,42.85c-0.01,3.43-0.74,7.42,1.71,10.24c2.34,1.78,5.69,0.44,7.53-1.48c0.43-3.39,0.19-6.82,0.2-10.23
	c-0.61-0.01-1.82-0.04-2.42-0.05c-0.13,3.22-0.14,6.46-0.11,9.69c-1.1,0.41-2.19,0.83-3.28,1.24c-1.27-3.38-0.73-7.06-1.31-10.58
	C14.25,41.38,12.66,40.82,13.18,42.85 M46.13,48.06C46.35,51.37,49.12,46.51,46.13,48.06 M46.22,50.34
	c-0.25,0.25-0.75,0.76-0.99,1.02C46.02,54.359,49.76,49.83,46.22,50.34 M2.42,60.32c0.17,3.439-0.8,7.199,0.72,10.42
	c2.07,2.04,5.14,1.02,7.7,1.04c0.05-0.38,0.14-1.13,0.19-1.5c1.54-2.95,0.87-6.36,0.6-9.521l0.04-0.46
	c-0.58,0-1.74,0.011-2.32,0.011c-0.02,3.319-0.02,6.64-0.06,9.959c-1.48,0.121-2.95,0.131-4.42,0.041
	c-0.1-3.351-0.13-6.701-0.19-10.041C4.12,60.28,2.98,60.311,2.42,60.32 M14.69,61.13c-0.35,2.97-0.31,6.03,0.53,8.92
	c0.27,1.08,1.67,2.65,2.83,1.61c1.35,0.9,2.67,0.87,3.98-0.09l0.76,0.439c2.09-3.449,1.09-7.8,1-11.619
	c-0.39-0.091-1.16-0.271-1.55-0.36c-0.11,3.34-0.14,6.67-0.11,10.01c-0.52,0.17-1.56,0.51-2.07,0.68l-1.03,0.271
	c-3.33-2.25-1.12-6.551-1.76-9.79C17.21,59.82,14.89,59.84,14.69,61.13 M41.05,67.24c-0.88,1.199-0.67,1.97,0.62,2.3
	C42.55,68.34,42.35,67.57,41.05,67.24 M45.06,67.13C43.52,70.13,48.37,67.27,45.06,67.13 M2.32,79.18c0.08,3.131-0.15,6.28,0.23,9.4
	c1.29,2.98,4.97,3.09,7.68,2.37c2.18-3.54,1.28-7.81,1.51-11.75c-0.6,0-1.81-0.011-2.42-0.011c0.03,3.351,0.02,6.701-0.15,10.041
	c-1.54-0.061-3.57,0.55-4.14-1.4c-0.63-2.811-0.19-5.77-0.23-8.641C4.18,79.189,2.94,79.18,2.32,79.18 M34.16,79.15
	c0.56,3.869-1.99,8.539,0.88,11.74c1.75-3.631,1.55-7.66,1.48-11.58C35.93,79.27,34.75,79.189,34.16,79.15 M125.13,87.65
	c1.729-0.311,4.67,1.02,5.07-1.5C128.55,86.54,125.311,85.109,125.13,87.65z"/>
<path fill="#B71119" d="M13.23,4.08c2.32-0.75,4.83-0.18,7.23-0.3c1.05-0.16,1.26,1.16,1.65,1.84c-2.19,0.01-4.37-0.02-6.56-0.06
	c-0.01,0.67-0.03,2.03-0.04,2.71c1.83,0.01,3.67,0.04,5.5,0.12c-0.49,2.79-3.47,2.01-5.51,2.04c0.03,1.46,0.06,2.93,0.09,4.39
	c-0.61,0.04-1.83,0.11-2.45,0.14C13.2,11.33,12.97,7.7,13.23,4.08z"/>
<path fill="#B60D1C" d="M45.07,4.08c2.93-0.32,5.9-0.33,8.84-0.12c-0.29,0.42-0.86,1.27-1.15,1.7c-1.94-0.05-3.89-0.07-5.84-0.08
	c-0.01,0.66-0.03,1.98-0.04,2.65c1.71,0.01,3.41,0.02,5.12,0.03c-0.05,0.54-0.15,1.64-0.19,2.18c-1.64,0.01-3.27,0.02-4.9,0.05
	c0,1.49,0,2.979,0,4.46c-0.46,0.01-1.37,0.03-1.82,0.03C45.07,11.35,45.11,7.71,45.07,4.08z"/>
<path fill="#C30F21" d="M55.23,4.12c2.96,0.08,6.49-1.41,9.06,0.61c-2.05,1.06-4.39,0.92-6.62,1.03c-0.66,3.54,2.97,2.21,5.12,2.6
	c1.21,2.8-3.33,1.92-4.9,2.21c-0.03,1.48-0.06,2.97-0.09,4.45c-0.62-0.05-1.87-0.16-2.5-0.21C55.35,11.24,55.36,7.68,55.23,4.12z"/>
<path fill="#C3151B" d="M79.99,3.76c1.81,0.22,4.76-0.9,5.109,1.8c-2.16,0.07-4.32,0.12-6.479,0.17c-0.56,3.48,3.01,2.36,5.2,2.6
	c0.24,0.43,0.729,1.28,0.97,1.7c-1.87,0.34-3.771,0.43-5.67,0.4c-0.14,1.51-0.25,3.02-0.37,4.53c-0.62-0.01-1.85-0.03-2.471-0.04
	c0.211-3.78-0.5-7.65,0.431-11.36C77.529,3.61,79.17,3.71,79.99,3.76z"/>
<path fill="#A33934" d="M86.9,4.1C88.6,3.98,90.3,3.82,91.99,3.59c1,0.16,1.99,0.32,2.99,0.48l0.22,1.34
	c-2.65-0.68-5.39-0.8-8.11-0.63L86.9,4.1z"/>
<path fill="#B10F1C" d="M97.561,4.33c0.359-1.19,1.56-0.42,2.39-0.45c2.17-0.28,4.37-0.29,6.55,0c-0.311,3.23-4.66,1.22-6.8,1.76
	c0.1,0.64,0.29,1.92,0.39,2.56c1.93,0.15,3.881,0.09,5.82,0.12c-0.131,3.2-3.971,1.87-6.02,2.15c-0.021,1.521-0.041,3.05-0.051,4.58
	c-0.6-0.07-1.79-0.19-2.38-0.25C97.55,11.31,97.32,7.81,97.561,4.33z"/>
<path fill="#A32827" d="M118.73,4.09c2.74-0.39,5.5-0.28,8.25-0.05l0.18,1.38C124.359,4.93,121.54,4.5,118.73,4.09z"/>
<path fill="#B7182A" d="M2.25,4.06c2.99-0.09,5.98-0.11,8.97,0.07C10.89,4.45,10.23,5.1,9.9,5.42C7.99,5.41,6.08,5.29,4.17,5.2
	c0.15,1.02,0.28,2.04,0.39,3.06c1.78,0,3.56-0.01,5.34-0.03c0.04,0.54,0.11,1.63,0.15,2.18c-1.77,0.04-3.55,0.11-5.32,0.17
	c0.02,1.44,0.04,2.89,0.07,4.33c-0.62-0.01-1.85-0.03-2.46-0.05C2.35,11.26,2.37,7.66,2.25,4.06z"/>
<path fill="#A71D25" d="M23.7,3.85c2.88,0.66,6.91-1.45,8.82,1.53c-2.39-0.1-4.79-0.17-7.18-0.25c0.01,1.15,0.03,2.3,0.04,3.45
	c1.89,0.01,3.77,0.02,5.66,0.03l0.17,1.47c-1.34-0.01-2.68-0.03-4.02-0.04l-1.35-0.01c-0.03,1.7-0.05,3.39-0.08,5.09
	c-0.4-0.08-1.21-0.23-1.62-0.31C23.5,11.22,23.92,7.49,23.7,3.85z"/>
<path fill="#C41024" d="M33.98,3.61c2.09,0.19,4.17,0.3,6.26,0.49c0.42,0.36,1.28,1.07,1.7,1.42c-1.88,0.05-3.76,0.11-5.65,0.16
	c-1.05,5.22,6.59-0.02,5.95,4.82c-1.85-0.03-3.69-0.16-5.52-0.45c-0.12,1.72-0.24,3.44-0.37,5.16l-0.37-0.57
	c-0.48-0.13-1.44-0.4-1.93-0.53C33.96,10.61,34.03,7.11,33.98,3.61z"/>
<path fill="#8B3942" d="M40.24,4.1c0.58,0.06,1.75,0.19,2.34,0.25c-0.16,0.29-0.48,0.88-0.64,1.17C41.52,5.17,40.66,4.46,40.24,4.1z
	"/>
<path fill="#B71119" d="M66.01,4.04c2.961-0.28,5.94-0.07,8.9,0.1c-0.29,0.38-0.881,1.14-1.17,1.52c-1.9-0.04-3.801-0.11-5.69,0.05
	c-0.06,0.64-0.17,1.9-0.23,2.53c2.071,0.01,4.14,0.01,6.22,0.02c0.16,3.23-3.91,1.94-5.91,2.16c-0.12,1.51-0.21,3.02-0.31,4.53
	c-0.43,0.02-1.29,0.06-1.72,0.07C66.06,11.36,66.08,7.7,66.01,4.04z"/>
<path fill="#C01011" d="M108.189,4.1c2.92-0.28,5.851-0.27,8.75,0.11c-0.31,0.36-0.939,1.07-1.26,1.42c-1.699,0-3.4,0.01-5.09,0.01
	c-0.63,3.69,3.141,2.44,5.43,2.67c0.121,2.81-3.369,1.95-5.22,2.35c0,1.42-0.01,2.84-0.021,4.26c-0.639-0.01-1.939-0.02-2.59-0.02
	C108.26,11.3,108.279,7.7,108.189,4.1z"/>
<path fill="#BB1514" d="M118.4,4.04l0.33,0.05c2.81,0.41,5.629,0.84,8.43,1.33c-1.86,0.11-3.721,0.17-5.57,0.22
	c0.03,0.86,0.061,1.72,0.08,2.58c1.78,0.05,3.561,0.1,5.35,0.19c-0.439,2.75-3.459,1.97-5.439,2.09c0.01,1.46,0.01,2.93,0.029,4.4
	c-1.029-0.01-2.06-0.02-3.09-0.03C118.529,11.26,118.54,7.65,118.4,4.04z"/>
<path fill="#E15C67" d="M4.17,5.2C6.08,5.29,7.99,5.41,9.9,5.42C7.77,5.89,4.45,5.07,4.56,8.26C4.45,7.24,4.32,6.22,4.17,5.2z"/>
<path fill="#E06F70" d="M25.34,5.13c2.39,0.08,4.79,0.15,7.18,0.25c-2.14,0.46-4.33,0.59-6.51,0.66c0,0.48-0.01,1.43-0.01,1.9
	c2.04,0.06,4.07,0.12,6.11,0.23c-0.05,2.96-2.93,2.48-5.02,2.75l0.1-0.88c1.34,0.01,2.68,0.03,4.02,0.04l-0.17-1.47
	c-1.89-0.01-3.77-0.02-5.66-0.03C25.37,7.43,25.35,6.28,25.34,5.13z"/>
<path fill="#BC1312" d="M87.09,4.78c2.721-0.17,5.46-0.05,8.11,0.63c-1.921,0.18-3.86,0.19-5.79,0.24c0.02,0.64,0.05,1.92,0.07,2.56
	c1.949,0.45,5.299-1.13,5.89,1.68c-1.94,0.57-3.96,0.59-5.96,0.6c-0.01,1.52-0.051,3.05-0.03,4.57c-0.45-2.29-1.03-4.57-2.18-6.62
	C87.16,7.22,87.12,6,87.09,4.78z"/>
<path fill="#9A2C32" d="M87.2,8.44c1.149,2.05,1.729,4.33,2.18,6.62c-0.58-0.02-1.739-0.06-2.31-0.08
	C87.05,12.8,87.05,10.62,87.2,8.44z"/>
<path fill="#872E33" d="M34.05,14.11c0.49,0.13,1.45,0.4,1.93,0.53c-0.42,0.07-1.25,0.2-1.67,0.26L34.05,14.11z"/>
<path fill="#C51026" d="M55.29,23.11c2.56-0.09,5.12-0.19,7.67-0.41c0.3,0.34,0.89,1.01,1.18,1.35c-2.08,0.32-4.17,0.52-6.26,0.69
	c0,0.58,0.02,1.74,0.02,2.32h1.01c-0.09,0.49-0.28,1.48-0.38,1.97c-0.33,1.57-0.69,3.13-1.03,4.7c-0.66,0.42-1.33,0.85-2,1.26
	C55.29,31.03,55.28,27.07,55.29,23.11z"/>
<path fill="#190B06" d="M68.57,22.92c2.16-0.07,4.33-0.16,6.5-0.31c-0.57,1.56-0.86,3.73-3.051,2.75
	c0.391,0.21,1.17,0.63,1.561,0.84c0.73,3.34-3.52,4.81-4.811,7.54c1.881,1.16,3.91,2.3,6.201,2.22
	c5.25,0.05,10.299,1.56,15.399,2.58c-0.06,0.25-0.181,0.74-0.24,0.99l-0.159,0.75c-4.74,3.17-10.641,1.91-15.99,1.96
	c-2.84-0.08-2.83-3.521-3.451-5.521C69.63,37,68.721,37.28,67.82,37.56c-0.96,1.57-1.93,3.13-2.94,4.68
	c2.11,4.38,7.45,5.22,11.521,6.86c-0.07-1.78-0.09-3.55-0.11-5.33c0.25,1.84,0.479,3.68,0.729,5.52c5.17-0.22,11.01,2.23,15.58-1.21
	c0.65,0.1,1.961,0.29,2.61,0.39c-3.271,3.97-8.36,4.91-12.76,7c-5.04-1.63-10.229-4.18-15.65-2.96l0.99-0.86
	c1.649-0.82,3.399-1.43,5.16-1.98c-3.13-1.39-6.53-2.64-8.68-5.47c-1.2,0.71-2.4,1.41-3.6,2.12c0.16-3.61,0.34-7.22,0.53-10.83
	c-1.24-0.58-2.47-1.16-3.7-1.76c2.13-0.17,4.27-0.24,6.41-0.24c0.2-1.57,0.38-3.13,0.56-4.7l0.59-0.09
	c1.69,0.04,3.081-0.54,3.57-2.32c0.31,0.29,0.931,0.85,1.24,1.14c0.319-0.62,0.96-1.86,1.28-2.48
	C70.29,24.33,69.43,23.63,68.57,22.92 M68.029,31.55c1.351-0.26,1.691-1.01,1.011-2.25C67.7,29.54,67.36,30.29,68.029,31.55
	 M71.471,37.86c0.439,1.19,0.879,2.38,1.319,3.57c4.851,0.18,9.72,0.39,14.569-0.02c0.011-0.66,0.031-1.97,0.041-2.62
	c-3.461,0.8-7,1.33-10.541,0.7c-0.869-1.09-1.739-2.16-2.619-3.23C73.54,36.66,72.16,37.46,71.471,37.86z"/>
<path fill="#C10D21" d="M2.42,33.7c-0.19-3.54,0.08-7.08-0.05-10.62c0.47,0.64,1.41,1.91,1.88,2.55c0.56,0.68,1.15,1.33,1.76,1.97
	c0.28,0.32,0.83,0.97,1.1,1.3c-0.57,0.2-1.73,0.6-2.31,0.8c-0.02,1.65,0.01,3.31-0.16,4.96C3.7,34.82,2.96,34.5,2.42,33.7z"/>
<path fill="#8A1F2D" d="M2.37,23.08c2.76-0.09,5.53-0.09,8.29-0.08l0.04,1.55c-2.14,0.2-4.81-0.83-6.45,1.08
	C3.78,24.99,2.84,23.72,2.37,23.08z"/>
<path fill="#B21818" d="M13.15,23.05c3.03-0.07,6.06-0.1,9.08,0.13c-0.99,2.75-4.77,0.74-6.92,1.31c-0.54,3.729,3.37,2.45,5.68,2.87
	c-0.42,2.88-3.3,1.57-5.31,1.59c-0.33,1.99,0.83,5.98-2.34,5.87C12.93,30.91,13.15,26.97,13.15,23.05z"/>
<path fill="#AA171B" d="M23.95,22.97c2.8,0.021,5.61,0.01,8.42,0.17c-1.16,2.66-4.69,0.88-6.89,1.42c-0.32,3.82,3.87,2.31,6.26,2.74
	c-0.12,0.41-0.36,1.24-0.48,1.65c-1.86-0.02-3.73,0.08-5.52,0.62c0,1.76-0.02,3.52-0.04,5.28c-0.5-0.16-1.49-0.48-1.98-0.65
	C24.14,30.47,23.24,26.69,23.95,22.97z"/>
<path fill="#421F15" d="M34.09,23.1c3.02,0.16,6.37-0.81,9.13,0.76l-0.74-0.02c-2.34-0.12-4.68-0.29-7.02-0.48
	c-0.48,0.92-0.95,1.84-1.41,2.76C34.06,25.37,34.08,23.86,34.09,23.1z"/>
<path fill="#AA171B" d="M45.12,23.04c2.94-0.06,5.88-0.05,8.81,0.04c-0.29,0.37-0.89,1.13-1.19,1.5c-1.87-0.07-3.74-0.16-5.6-0.01
	c-0.08,0.63-0.25,1.9-0.34,2.53c1.77,0.03,3.53,0.05,5.3,0.07c0.59,3.06-2.15,1.93-4.05,1.91c-2.3,1.28,0.28,5.34-2.78,6.02
	C44.96,31.09,45,27.06,45.12,23.04z"/>
<path fill="#9D3B42" d="M66.08,23.02c0.62-0.02,1.86-0.07,2.49-0.1c0.859,0.71,1.72,1.41,2.58,2.12c-0.32,0.62-0.961,1.86-1.28,2.48
	c-0.31-0.29-0.931-0.85-1.24-1.14c-0.489,1.78-1.88,2.36-3.57,2.32C66.37,27.1,65.85,24.91,66.08,23.02z"/>
<path fill="#C00A0D" d="M76.34,22.85l0.27,0.2c0.511,0.4,1.531,1.21,2.041,1.61c-0.521,4.31,4.619,1.08,6.06,3.78
	c-1.46,1.63-3.989,0.43-5.88,1.14c0,1.77-0.04,3.53-0.09,5.3c-0.83-0.34-1.66-0.69-2.49-1.03C76.34,30.18,76.25,26.51,76.34,22.85z"
	/>
<path fill="#882523" d="M76.609,23.05c2.891-0.05,5.781-0.13,8.66,0.11c-1.199,2.52-4.479,0.91-6.619,1.5
	C78.141,24.26,77.12,23.45,76.609,23.05z"/>
<path fill="#AA171B" d="M87.12,23.04c2.97-0.06,5.95-0.11,8.909,0.2c-1.92,2.1-4.989,1.07-7.479,1.51c0.46,4.18,5.8,0.62,6.71,3.94
	c-2.06,0.34-4.119,0.66-6.18,1.02c-0.24,1.61,0.98,6.02-1.83,4.94C86.93,30.79,87.189,26.91,87.12,23.04z"/>
<path fill="#AD1214" d="M97.51,23.01c0.66,0.1,2,0.29,2.66,0.39c1.9,0.51,3.82,1.11,5.82,1.01c-2.09,0.08-4.18,0.11-6.27,0.16
	c0.109,0.61,0.34,1.84,0.449,2.45c0.09,0.5,0.27,1.5,0.359,2c-0.489,1.96-0.719,3.96-0.969,5.96c-0.761-0.54-2.371-0.72-2.07-2.02
	C97.41,29.64,97.52,26.33,97.51,23.01z"/>
<path fill="#7E3239" d="M100.17,23.4c1.91-0.67,4.63-1.1,6.38,0.11c-0.14,0.22-0.42,0.67-0.56,0.9
	C103.99,24.51,102.07,23.91,100.17,23.4z"/>
<path fill="#BA0D16" d="M108.21,22.88c0.74,0.13,2.229,0.38,2.97,0.51c1.58,0.49,3.16,1.13,4.85,1.04
	c-1.789,0.05-3.579,0.1-5.369,0.13c0.04,0.64,0.119,1.9,0.16,2.53c1.8,0.43,4.959-0.98,5.4,1.61c-1.83,0.17-3.65,0.41-5.441,0.84
	c0.011,1.71,0,3.43-0.02,5.15c-0.609-0.03-1.84-0.08-2.46-0.11C108.25,30.68,108.2,26.78,108.21,22.88z"/>
<path fill="#7D3539" d="M111.18,23.39c1.11-0.89,6.771-1.12,4.85,1.04C114.34,24.52,112.76,23.88,111.18,23.39z"/>
<path fill="#843E3F" d="M118.109,22.79c2.961,0.21,5.931,0.21,8.9,0.22L127,24.23c-1.83,0.03-3.66,0.07-5.49,0.19
	c2.29,0.29,4.641,0.33,6.86,1.04c-2.88,0.27-5.761,0.38-8.64,0.12c-0.371,0.37-1.101,1.11-1.471,1.48
	C118.66,25.65,119.01,24.1,118.109,22.79z"/>
<path fill="#D00D1D" d="M34.05,26.12c0.46-0.92,0.93-1.84,1.41-2.76c2.34,0.19,4.68,0.36,7.02,0.48c-1.81,1.06-3.96,0.59-5.93,0.71
	c0.01,0.64,0.03,1.92,0.04,2.56c0.01,0.48,0.02,1.42,0.02,1.89c-0.09,2.25,0.6,5.32-2.22,6.13C34.08,32.15,33.53,29.11,34.05,26.12z
	"/>
<path fill="#170D03" d="M118.26,27.06c0.37-0.37,1.1-1.11,1.471-1.48c2.879,0.26,5.76,0.15,8.64-0.12
	c1.21,0.92,2.069,2.2,3.021,3.38c0.609-1.7,1.81-2.78,3.6-3.25c-0.4,0.96-1.2,2.89-1.59,3.85c0.39-0.15,1.18-0.45,1.57-0.6
	c0.01,0.61,0.02,1.83,0.029,2.43v2.2c-2.84-2.02-5.15-4.75-8.109-6.56c-2.621-0.41-6.881-1.19-7.82,2.19
	c-1.11,4.45-1.09,9.97,2.41,13.39c0.529-1.9,1.049-3.81,1.56-5.73c-0.94,0.63-1.89,1.271-2.83,1.9c0.04-1.25,0.08-2.51,0.12-3.77
	c2.17-1.11,4.3-2.3,6.4-3.54c0.6,2.07,1.199,4.13,1.81,6.19c0.729,0.54,1.46,1.08,2.19,1.63c0.22,0.99,0.43,1.99,0.649,2.99
	c1.22,0.59,2.431,1.19,3.62,1.84v1.05c-1.33-0.02-2.65-0.05-3.971-0.07c0.671,0.72,1.351,1.44,2.021,2.16
	c-3.53,0.76-7.3,1.52-10.03,4.06c-1.42,1.11-0.779,3.11-1.049,4.649c1.879,0.051,3.77,0.101,5.649,0.16
	c-0.95-1.49-1.899-2.979-2.82-4.479c0.511,0.13,1.54,0.4,2.05,0.54c0.66-0.83,1.32-1.65,1.971-2.47c2.369,0.35,6.369-0.85,6.18,3.12
	v1.98c-1.49,0.27-2.15-0.771-1.67-2.11c-1.58,0.08-3.15-0.14-4.721-0.279c0.681,0.869,1.16,1.869,1.621,2.879
	c1.6,0.15,3.199,0.431,4.77,0.801v1.96c-4.59-0.31-9.18-0.72-13.779-0.48c-0.681-1.68-1.181-3.45-1.15-5.28
	c0.479-0.509,0.959-1.02,1.439-1.529c1.08-1.1,2.141-2.22,3.16-3.39c1.21,0.02,2.43,0.03,3.65,0.05c1.1-2.22,1.199-4.71,1.24-7.14
	c-0.19,0.01-0.57,0.03-0.761,0.05c-0.26,2.4,0.22,5.28-2.14,6.91c-0.15-0.96-0.25-1.92-0.34-2.88c-1.6-0.22-2.78,0.74-3.971,1.61
	c-1.16-1.21-2.279-2.47-3.449-3.66l-0.351-0.45C115.939,37.42,116.609,31.64,118.26,27.06 M123.29,34.29
	c1.04,2.25,1.34,4.72,0.09,6.97c0.57,0.64,1.181,1.26,1.81,1.86c0.041-0.84,0.131-2.51,0.181-3.34l-0.83-0.19
	c0.25-1.13,0.92-2.19,0.931-3.36C124.83,35.49,124.061,34.88,123.29,34.29z"/>
<path fill="#8A3A3C" d="M6.01,27.6c0.99-1.27,5.15-1,3.74,1.17c-0.66,0.03-1.98,0.1-2.64,0.13C6.84,28.57,6.29,27.92,6.01,27.6z"/>
<path fill="#913737" d="M36.59,27.11c1.77-0.04,3.55-0.07,5.32-0.11c0.03,0.5,0.09,1.5,0.12,2c-1.81,0-3.61,0-5.42,0
	C36.61,28.53,36.6,27.59,36.59,27.11z"/>
<path fill="#9F3F3D" d="M58.91,27.06c1.36,0,2.71,0.01,4.06,0.01c0.02,0.52,0.04,1.55,0.06,2.07c-1.5-0.01-3-0.02-4.5-0.11
	C58.63,28.54,58.82,27.55,58.91,27.06z"/>
<path fill="#9B4043" d="M100.17,27.02c2.141,0.27,5.45-1.14,6.04,1.84c-1.89,0.13-3.79,0.16-5.681,0.16
	C100.439,28.52,100.26,27.52,100.17,27.02z"/>
<path fill="#3C230B" d="M119.07,29.1c0.939-3.38,5.199-2.6,7.82-2.19c2.959,1.81,5.27,4.54,8.109,6.56V44
	c-1.189-0.65-2.4-1.25-3.62-1.84c-0.22-1-0.43-2-0.649-2.99c-0.73-0.55-1.461-1.09-2.19-1.63c-0.61-2.06-1.21-4.12-1.81-6.19
	c-2.101,1.24-4.23,2.43-6.4,3.54c-0.04,1.26-0.08,2.52-0.12,3.77c0.94-0.63,1.89-1.27,2.83-1.9c-0.511,1.92-1.03,3.83-1.56,5.73
	C117.98,39.07,117.96,33.55,119.07,29.1z"/>
<path fill="#FCFBFB" d="M68.029,31.55c-0.669-1.26-0.329-2.01,1.011-2.25C69.721,30.54,69.38,31.29,68.029,31.55z"/>
<path fill="#39230A" d="M55.5,34.99c0.67-0.41,1.34-0.84,2-1.26c1.23,0.6,2.46,1.18,3.7,1.76c-0.19,3.61-0.37,7.22-0.53,10.83
	c1.2-0.71,2.4-1.41,3.6-2.12c2.15,2.83,5.55,4.08,8.68,5.47c-1.761,0.55-3.511,1.16-5.16,1.98l-0.99,0.86
	c-1.54,1.42-3.23,2.65-4.9,3.9c-0.35,0.37-1.05,1.109-1.4,1.48c-1.36,1.75-2.65,3.56-4.13,5.219l-0.75,0.86
	c-1.91,3.95-0.74,8.3,0.06,12.36c1.32,6.58,3.2,13.04,4.45,19.64c0.67,3.57,4.14,5.49,7.08,7.03H53.82
	c-4.31-3.6-10.39-5.9-12.13-11.76c-0.06-0.1-0.18-0.32-0.24-0.42c1.76-3.69,0.57-7.62-1.4-10.92l-0.45-1.11
	c-0.14-2.19-0.16-4.399-0.39-6.59c-1.01-1.65-2.56-2.88-3.81-4.341c-0.05-0.42-0.14-1.25-0.19-1.659l0.85-0.25
	c2.05,3.18,4.84,6.36,9.01,6.09c2.32-2.34,3.8-5.31,5.03-8.33L50.29,63c0.29-0.07,0.86-0.22,1.14-0.29
	c0.75-5.04-0.13-10.14,0.38-15.2c1.53,0.78,3.12,1.41,4.74,1.94c-0.85-1.28-1.72-2.55-2.61-3.81c0.64-0.38,1.28-0.76,1.91-1.14
	c-3.94,0.33-6.82-2.34-9.41-4.89c1.71-1.58,3.89-2.47,6.16-2.88C53.57,36.16,54.53,35.58,55.5,34.99z"/>
<path fill="#F7F9F8" d="M123.29,34.29c0.771,0.59,1.54,1.2,2.181,1.94c-0.011,1.17-0.681,2.23-0.931,3.36l0.83,0.19
	c-0.05,0.83-0.14,2.5-0.181,3.34c-0.629-0.6-1.239-1.22-1.81-1.86C124.63,39.01,124.33,36.54,123.29,34.29z"/>
<path fill="#0A0707" d="M25.52,35.84c2.7,0.39,5.31,1.19,8,1.66c2.21,0.65,4.35,1.52,6.4,2.57c-0.39-1.05-0.77-2.11-1.14-3.17
	c2.04,1.24,3.95,2.68,5.72,4.29c0.64-0.53,1.29-1.06,1.94-1.58c2.59,2.55,5.47,5.22,9.41,4.89c-0.63,0.38-1.27,0.76-1.91,1.14
	c0.89,1.26,1.76,2.53,2.61,3.81c-1.62-0.53-3.21-1.16-4.74-1.94c-0.51,5.061,0.37,10.16-0.38,15.2c-0.28,0.07-0.85,0.22-1.14,0.29
	c-1.65-0.84-3.05-2.07-4.53-3.16c-0.06-0.09-0.17-0.27-0.23-0.35c1.76,0.68,3.5,1.4,5.18,2.25c0-2.71-0.01-5.43-0.09-8.141
	c-1.58-0.01-3.15-0.02-4.73-0.06c1.56-0.101,3.12-0.149,4.68-0.2c-0.08-1.89-0.14-3.78-0.21-5.67c-2.74-0.87-5.99-1.35-7.58,1.72
	c-0.47-0.45-0.93-0.89-1.4-1.33c0.38-0.42,1.13-1.27,1.5-1.69c-0.71-0.07-2.13-0.23-2.84-0.31l-0.43-1.2
	c-0.58-1.82,0.21-2.67,2.37-2.55c-0.7-0.18-1.39-0.38-2.08-0.56C38.19,44,35,42.8,32.56,42.98c-0.45,0.28-0.9,0.55-1.36,0.82
	c-0.6-0.62-1.81-1.85-2.41-2.46c-0.24,0.2-0.72,0.62-0.96,0.83L27.5,42.1c-0.53-0.11-1.59-0.33-2.12-0.43
	c0.76-0.57,1.53-1.13,2.3-1.68l-1.76-0.94c1.07,0.02,3.22,0.08,4.29,0.11C28.63,38.08,27.01,37.04,25.52,35.84 M46.34,42.2
	c-0.89,0.47-1.71,2.51-0.3,2.81C47.68,45.08,48.51,41.23,46.34,42.2z"/>
<path fill="#F7F9F8" d="M67.82,37.56c0.901-0.28,1.81-0.56,2.709-0.84c0.621,2,0.611,5.44,3.451,5.521
	c5.35-0.05,11.25,1.21,15.99-1.96c1.829,2.229,2.719,4.92,2.629,7.8c-4.57,3.44-10.41,0.99-15.58,1.21
	c-0.25-1.84-0.479-3.68-0.729-5.52c0.021,1.78,0.04,3.55,0.11,5.33c-4.07-1.64-9.41-2.48-11.521-6.86
	C65.89,40.69,66.86,39.13,67.82,37.56 M70.37,44.24C70.859,44.77,70.859,44.77,70.37,44.24 M82.189,45.26
	c-1.14,0.92,0.11,3.38,1.5,2.43C84.82,46.78,83.57,44.34,82.189,45.26z"/>
<path fill="#B7182A" d="M71.471,37.86c0.689-0.4,2.069-1.2,2.77-1.6c0.88,1.07,1.75,2.14,2.619,3.23c3.541,0.63,7.08,0.1,10.541-0.7
	c-0.01,0.65-0.03,1.96-0.041,2.62c-4.85,0.41-9.719,0.2-14.569,0.02C72.35,40.24,71.91,39.05,71.471,37.86z"/>
<path fill="#3B260B" d="M90.13,39.53c1.69,1.67,3.03,3.63,4.04,5.78c0.109-1.66-0.08-3.51,1.38-4.65c0.19,1.82,0.3,3.64,0.4,5.47
	c0.739,0.59,1.5,1.18,2.26,1.77c1.21,0.98,2.41,1.98,3.62,2.96c0.48,0.4,1.439,1.19,1.92,1.59c0.74-0.28,2.21-0.82,2.939-1.09
	c1.041-3.45-0.859-7.92,1.791-10.67c0.31,3.67,0.149,7.35,0.1,11.02c-1.311,1.14-2.801,2-4.54,2.26
	c3.33,3.36,6.95,6.521,9.399,10.63c1.25,2.82,2.301,5.73,3.371,8.62c0.239,0.08,0.709,0.25,0.949,0.33
	c1.09,1.761,2.2,3.61,2.29,5.75c-0.31,3.24-0.26,6.49,0.05,9.72c0,0.61,0.021,1.811,0.03,2.42c0.12,4.32-1.3,9.121-5.12,11.561
	H81.27c2.101-2.17,3.891-5.03,6.99-5.84c2.971-0.73,6.061-0.38,9.07-0.32l0.029,1.41c-3.619,0.32-7.56,0.1-10.709,2.23
	c3.58-0.48,7.16-1.121,10.789-1.03c0.83-1.2,1.74-2.351,2.36-3.681c-4.26,0.391-8.54,0.771-12.81,0.34
	c4.449-3.029,10.59-1.399,15.6-0.529c-0.13-0.391-0.41-1.18-0.54-1.58c1.181,0.22,2.36,0.47,3.54,0.74
	c1.53,0.66,3.04,1.38,4.57,2.08c1.43-3.43-1.061-6.551-2.301-9.601c1.74-5.989,0.611-12.86-3.319-17.77
	c-2.49-3.07-4.19-7.15-7.83-9.03c-4.8-1.52-9.59-3.08-14.26-4.95c4.399-2.09,9.489-3.03,12.76-7c-0.649-0.1-1.96-0.29-2.61-0.39
	c0.09-2.88-0.8-5.57-2.629-7.8L90.13,39.53 M100.141,54.96c4.17,6.42,8.529,12.88,13.75,18.44c0.31-4.11-4.221-6.12-5.931-9.44
	C105.33,61,104.439,55.96,100.141,54.96 M111.57,76.6c0.76,2.551,2.51,4.73,2.85,7.4c0.45,2.57,0.49,5.189,1.051,7.73
	c1.869,1.439,1.149-1.92,1.199-2.851C116.061,84.6,115.49,79.1,111.57,76.6z"/>
<path fill="#F7F9F8" d="M128.8,40.23c0.19-0.02,0.57-0.04,0.761-0.05c-0.041,2.43-0.141,4.92-1.24,7.14
	c-1.221-0.02-2.44-0.03-3.65-0.05c-1.02,1.17-2.08,2.29-3.16,3.39c0.01-1.29,0.051-2.58,0.141-3.87c0.17-0.23,0.52-0.69,0.699-0.92
	c1.19-0.87,2.371-1.83,3.971-1.61c0.09,0.96,0.189,1.92,0.34,2.88C129.02,45.51,128.54,42.63,128.8,40.23z"/>
<path fill="#B0161F" d="M2.43,42.35c2.02-2.08,5.6-0.46,8.25-0.91c0.05,0.57,0.14,1.7,0.18,2.27c-2,0.05-3.99,0.08-5.99,0.09
	c-0.02,0.55-0.05,1.67-0.06,2.23c1.7,0.01,3.4,0.02,5.09,0.03c0.02,0.43,0.06,1.29,0.08,1.72c-1.78,0.16-3.55,0.38-5.3,0.729
	c0.05,1.73,0.08,3.47,0.1,5.2c-0.61-0.01-1.83-0.021-2.43-0.03C2.44,49.9,2.22,46.12,2.43,42.35z"/>
<path fill="#B91617" d="M13.18,42.85c-0.52-2.03,1.07-1.47,2.32-1.17c-0.36,3.07-0.53,6.15-0.53,9.24c0.46,0.34,1.38,1.01,1.84,1.34
	c1.09-0.41,2.18-0.83,3.28-1.24c-0.03-3.23-0.02-6.47,0.11-9.69c0.6,0.01,1.81,0.04,2.42,0.05c-0.01,3.41,0.23,6.84-0.2,10.23
	c-1.84,1.92-5.19,3.26-7.53,1.48C12.44,50.27,13.17,46.28,13.18,42.85z"/>
<path fill="#AA171B" d="M39.9,41.75c0.69,0.18,1.38,0.38,2.08,0.56c-2.16-0.12-2.95,0.73-2.37,2.55c0.26,1.59,0.55,3.17,0.86,4.75
	c-0.85-0.08-2.57-0.25-3.43-0.34c0.35-1.96,0.48-3.95,0.42-5.94c-4.16,1.97-1.46,7.56-4.84,10.1c-1.68,0.58-3.57,0.521-5.28,0.061
	c-3.14-3.05-1.85-7.92-1.96-11.82c0.53,0.1,1.59,0.32,2.12,0.43c-0.55,2.93-1.29,5.98-0.55,8.97c1.59,2.14,4.45,0.8,6.5,0.23
	c-0.49-2.53,0.19-5.83-2.25-7.5c0.46-0.27,0.91-0.54,1.36-0.82C35,42.8,38.19,44,39.9,41.75z"/>
<path fill="#A96161" d="M99.09,42.17c-0.119-2.27,3.68-1.49,2.92,0.59C100.9,43.18,99.92,42.99,99.09,42.17z"/>
<path fill="#B0161F" d="M112.141,51.8c0.489-3.65-1.601-8.44,1.479-11.22c0.54,3.48,0.409,7.06,1.229,10.5
	c0.61,0.38,1.84,1.14,2.461,1.51c2.869-2.64,1.529-6.95,1.59-10.38c1.17,1.19,2.289,2.45,3.449,3.66
	c-0.18,0.23-0.529,0.69-0.699,0.92c-0.09,1.29-0.131,2.58-0.141,3.87c-0.48,0.51-0.96,1.02-1.439,1.529
	C117.99,54.99,114.3,53.82,112.141,51.8z"/>
<path fill="#F17D75" d="M15.5,41.68c0.58,3.52,0.04,7.2,1.31,10.58c-0.46-0.33-1.38-1-1.84-1.34C14.97,47.83,15.14,44.75,15.5,41.68
	z"/>
<path fill="#C61819" d="M27.5,42.1l0.33,0.07c-0.26,3.18-0.37,6.37-0.17,9.57c0.79-0.2,2.39-0.58,3.18-0.771
	c2.12-1.22,1.25-3.97,1.4-5.979c-0.26-0.3-0.78-0.89-1.04-1.19c2.44,1.67,1.76,4.97,2.25,7.5c-2.05,0.57-4.91,1.91-6.5-0.23
	C26.21,48.08,26.95,45.03,27.5,42.1z"/>
<path fill="#F6F9FC" d="M27.83,42.17c0.24-0.21,0.72-0.63,0.96-0.83c0.6,0.61,1.81,1.84,2.41,2.46c0.26,0.3,0.78,0.89,1.04,1.19
	c-0.15,2.01,0.72,4.76-1.4,5.979c-0.79,0.19-2.39,0.57-3.18,0.771C27.46,48.54,27.57,45.35,27.83,42.17z"/>
<path fill="#362425" d="M46.34,42.2c2.17-0.97,1.34,2.88-0.3,2.81C44.63,44.71,45.45,42.67,46.34,42.2z"/>
<path fill="#C61819" d="M99.09,42.17c0.83,0.82,1.811,1.01,2.92,0.59c-0.09,2.7-0.109,5.4-0.18,8.1c-1.21-0.98-2.41-1.98-3.62-2.96
	l0.931,0.69C99.15,46.45,99.09,44.31,99.09,42.17z"/>
<path fill="#F3838B" d="M118.55,41.76l0.351,0.45c-0.061,3.43,1.279,7.74-1.59,10.38C117.95,49.01,118.25,45.38,118.55,41.76z"/>
<path fill="#C1B6BE" d="M70.37,44.24C70.859,44.77,70.859,44.77,70.37,44.24z"/>
<path fill="#D5D9DC" d="M82.189,45.26c1.381-0.92,2.631,1.521,1.5,2.43C82.3,48.64,81.05,46.18,82.189,45.26z"/>
<path fill="#421F15" d="M131.029,44.98c1.32,0.02,2.641,0.05,3.971,0.07v7.67c0.189-3.97-3.811-2.77-6.18-3.12
	c-0.65,0.82-1.311,1.64-1.971,2.47c-0.51-0.14-1.539-0.41-2.05-0.54c0.921,1.5,1.87,2.989,2.82,4.479
	c-1.88-0.06-3.771-0.109-5.649-0.16c0.27-1.539-0.371-3.539,1.049-4.649c2.73-2.54,6.5-3.3,10.03-4.06
	C132.38,46.42,131.7,45.7,131.029,44.98z"/>
<path fill="#CCC1C6" d="M46.13,48.06C49.12,46.51,46.35,51.37,46.13,48.06z"/>
<path fill="#000900" d="M38.43,50.56c0.78-0.2,1.57-0.37,2.36-0.52c-1.51,3.601,0.44,7.95-2.25,11.28c-0.8,0.01-2.39,0.05-3.18,0.07
	c-0.04,0.879-0.1,2.64-0.13,3.52c2-0.24,4.01-0.46,6.01-0.75c-1.64,0.82-3.41,1.34-5.18,1.79l-0.85,0.25
	c0.05,0.409,0.14,1.239,0.19,1.659c2.04,4.811-4.37,4.601-7.13,3.531c2.12,0.18,4.26,0.26,6.38,0.09
	c-0.04-0.78-0.12-2.34-0.17-3.131c-0.23-3.17-0.67-6.459,0.46-9.52C35.66,55.891,37.54,53.43,38.43,50.56z"/>
<path fill="#B1162D" d="M40.79,50.04c0.7-0.12,2.09-0.37,2.79-0.49C43.3,54.3,45.8,60.8,41.24,64.16c-2,0.29-4.01,0.51-6.01,0.75
	c0.03-0.88,0.09-2.641,0.13-3.52c0.79-0.021,2.38-0.061,3.18-0.07C41.23,57.99,39.28,53.641,40.79,50.04z"/>
<path fill="#CDCDC8" d="M46.22,50.34c3.54-0.51-0.2,4.02-0.99,1.02C45.47,51.1,45.97,50.59,46.22,50.34z"/>
<path fill="#FCFCFA" d="M66.8,52.51c5.421-1.22,10.61,1.33,15.65,2.96c4.67,1.87,9.46,3.431,14.26,4.95
	c-0.5,1.23-1.06,2.43-1.61,3.63c-2.539-1.11-5-2.38-7.369-3.79c-1.471,0.94-2.91,1.92-4.34,2.92c-3.931-2.63-4.641-8.31-9.341-10.1
	c-0.989,4.359-2.1,9.97-6.87,11.66c-2.33-1.771-3.63-5.23-5.28-7.74v-0.59C63.57,55.16,65.26,53.93,66.8,52.51z"/>
<path fill="#F7F9F8" d="M128.609,52.311c1.57,0.14,3.141,0.359,4.721,0.279c-0.48,1.34,0.18,2.38,1.67,2.11v1.29
	c-1.57-0.37-3.17-0.65-4.77-0.801C129.77,54.18,129.29,53.18,128.609,52.311z"/>
<path fill="#010101" d="M67.18,64.74c4.77-1.69,5.88-7.301,6.87-11.66c4.7,1.79,5.41,7.47,9.341,10.1c1.43-1,2.869-1.979,4.34-2.92
	c2.369,1.41,4.83,2.68,7.369,3.79c0.551-1.2,1.11-2.399,1.61-3.63c3.64,1.88,5.34,5.96,7.83,9.03
	c3.931,4.909,5.06,11.78,3.319,17.77c1.24,3.05,3.73,6.171,2.301,9.601c-1.53-0.7-3.04-1.42-4.57-2.08
	c1.1,0.07,3.32,0.199,4.43,0.27c-1.58-2.72-3.08-5.779-5.99-7.31c-1.639,0.2-3.109,0.989-4.609,1.63c0.01,1.41,0.02,2.82,0.03,4.23
	c0.649,0.109,1.95,0.33,2.6,0.439c0.13,0.4,0.41,1.189,0.54,1.58c-5.01-0.87-11.15-2.5-15.6,0.529c4.27,0.431,8.55,0.051,12.81-0.34
	c-0.62,1.33-1.53,2.48-2.36,3.681c-3.629-0.091-7.209,0.55-10.789,1.03c3.149-2.131,7.09-1.91,10.709-2.23l-0.029-1.41
	c-3.01-0.06-6.1-0.41-9.07,0.32c-3.1,0.81-4.89,3.67-6.99,5.84H73.3c2.08-0.98,4.08-2.12,5.97-3.439
	c0.051-1.881,0.311-3.75,0.73-5.58c-1.46-2.86-3.721-5.16-6.311-7.011c-0.039,2.16,0.141,4.33-0.069,6.48
	c-1.46,0.83-3.021,1.43-4.56,2.08c0.119,2.5,0.35,4.989,0.649,7.47h-2.5c-2.94-1.54-6.41-3.46-7.08-7.03
	c-1.25-6.6-3.13-13.06-4.45-19.64c-0.8-4.061-1.97-8.41-0.06-12.36l0.75-0.86c0.02,1.131,0.03,2.261,0.05,3.391
	c1.41,1.76,2.74,3.57,4.11,5.359c0.58-4.649,0.02-9.31-0.03-13.969c0.35-0.371,1.05-1.11,1.4-1.48V57
	C63.55,59.51,64.85,62.97,67.18,64.74 M90.13,88.359C87.609,88.2,84.4,88.9,84.109,91.95c-1.699-0.74,0.17-2.99-1.31-3.86
	c-0.37-0.27-1.09-0.82-1.46-1.09c-0.42,3.75,0.311,7.62-0.83,11.29c2.41-1.431,4.82-2.89,7.1-4.53c3.561-0.49,7.16-0.71,10.74-0.189
	c-2.27-3.971-4.52-7.961-6.879-11.881C89.34,83.189,90.54,86.189,90.13,88.359z"/>
<path fill="#231202" d="M100.141,54.96c4.299,1,5.189,6.04,7.819,9c1.71,3.32,6.24,5.33,5.931,9.44
	C108.67,67.84,104.311,61.38,100.141,54.96z"/>
<path fill="#FAFBFC" d="M56.37,63.109c1.48-1.659,2.77-3.469,4.13-5.219c0.05,4.659,0.61,9.319,0.03,13.969
	c-1.37-1.789-2.7-3.6-4.11-5.359C56.4,65.37,56.39,64.24,56.37,63.109z"/>
<path fill="#AB1723" d="M2.42,60.32c0.56-0.01,1.7-0.04,2.26-0.051c0.06,3.34,0.09,6.69,0.19,10.041c1.47,0.09,2.94,0.08,4.42-0.041
	c0.04-3.319,0.04-6.64,0.06-9.959c0.58,0,1.74-0.011,2.32-0.011l-0.04,0.46c-0.33,3.17-0.41,6.34-0.6,9.521
	c-0.05,0.37-0.14,1.12-0.19,1.5c-2.56-0.021-5.63,1-7.7-1.04C1.62,67.52,2.59,63.76,2.42,60.32z"/>
<path fill="#AA171B" d="M14.69,61.13c0.2-1.29,2.52-1.31,2.58,0.07c0.64,3.239-1.57,7.54,1.76,9.79c-0.25,0.16-0.73,0.5-0.98,0.67
	c-1.16,1.04-2.56-0.53-2.83-1.61C14.38,67.16,14.34,64.1,14.69,61.13z"/>
<path fill="#AD1214" d="M22.24,60.03c0.39,0.09,1.16,0.27,1.55,0.36c0.09,3.819,1.09,8.17-1,11.619l-0.76-0.439
	c-0.49-0.221-1.48-0.641-1.97-0.851c0.51-0.17,1.55-0.51,2.07-0.68C22.1,66.7,22.13,63.37,22.24,60.03z"/>
<path fill="#AB190F" d="M27.13,60.2c0.62,0.03,1.84,0.09,2.46,0.11c-0.01,3.42,0,6.83,0.09,10.25c1.99,0.069,4.03,0,4.8-2.211
	c0.05,0.791,0.13,2.351,0.17,3.131c-2.12,0.17-4.26,0.09-6.38-0.09c-0.28-0.211-0.84-0.61-1.13-0.811
	C27.05,67.12,27.09,63.66,27.13,60.2z"/>
<path fill="#B21318" d="M113.439,64.6c0.48-1.76,0.48-3.859,2.181-4.97c0.31,3.59,0.2,7.21,0.28,10.82
	c1.5,0.159,3.02,0.22,4.52,0.02c-0.05-3.37-0.07-6.75-0.1-10.12c0.64-0.01,1.93-0.029,2.57-0.05c0.209,3.48,0.42,7.021-0.351,10.45
	c-1.101,1.35-3.09,0.92-4.56,1.29c-0.061,0.38-0.17,1.13-0.221,1.51c-0.24-0.08-0.71-0.25-0.949-0.33
	C115.74,70.33,114.689,67.42,113.439,64.6z"/>
<path fill="#AA171B" d="M126.32,59.68c0.35,0.24,1.039,0.711,1.39,0.95c0.479,2.91,0.21,5.89,0.38,8.83
	c0.11,2.57,3.561,2.24,4.91,0.82c0.45,0.13,1.35,0.39,1.811,0.52l-0.381,0.98c-2.57-0.091-6.05,1.21-7.97-1.101
	C125.779,67.061,126.08,63.33,126.32,59.68z"/>
<path fill="#852C39" d="M133,70.28c0.811-3.65-1.33-8.44,1.99-11.14L135,59.33v10.95l-0.189,0.52
	C134.35,70.67,133.45,70.41,133,70.28z"/>
<path fill="#E35E73" d="M11.03,70.28c0.19-3.181,0.27-6.351,0.6-9.521C11.9,63.92,12.57,67.33,11.03,70.28z"/>
<path fill="#CAC1C5" d="M41.05,67.24c1.3,0.33,1.5,1.1,0.62,2.3C40.38,69.21,40.17,68.439,41.05,67.24z"/>
<path fill="#DBC7C7" d="M45.06,67.13C48.37,67.27,43.52,70.13,45.06,67.13z"/>
<path fill="#E86C79" d="M128.09,69.46c1.66,0.101,3.311,0.351,4.91,0.82C131.65,71.7,128.2,72.03,128.09,69.46z"/>
<path fill="#872830" d="M18.05,71.66c0.25-0.17,0.73-0.51,0.98-0.67l1.03-0.271c0.49,0.21,1.48,0.63,1.97,0.851
	C20.72,72.53,19.4,72.561,18.05,71.66z"/>
<path fill="#231001" d="M111.57,76.6c3.92,2.5,4.49,8,5.1,12.28c-0.05,0.931,0.67,4.29-1.199,2.851
	c-0.561-2.541-0.601-5.16-1.051-7.73C114.08,81.33,112.33,79.15,111.57,76.6z"/>
<path fill="#AA171B" d="M2.32,79.18c0.62,0,1.86,0.01,2.48,0.01c0.04,2.871-0.4,5.83,0.23,8.641c0.57,1.95,2.6,1.34,4.14,1.4
	c0.17-3.34,0.18-6.69,0.15-10.041c0.61,0,1.82,0.011,2.42,0.011c-0.23,3.94,0.67,8.21-1.51,11.75c-2.71,0.72-6.39,0.61-7.68-2.37
	C2.17,85.46,2.4,82.311,2.32,79.18z"/>
<path fill="#AC1B0D" d="M14.62,78.689c0.61,0.301,1.83,0.9,2.44,1.201c0.54,3.049,0.31,6.18,0.42,9.27
	c-0.6-0.2-1.82-0.61-2.42-0.811C14.37,85.17,14.49,81.91,14.62,78.689z"/>
<path fill="#35220B" d="M22.27,79.2c0.39-0.021,1.17-0.05,1.57-0.06c0.29,3.85-1.48,9.01,2.95,11.069l0.33,0.28
	c-1.07,3.81,4.96,7.66,0.86,10.859c-3.14-0.3-5.43-2.88-8.14-4.26c1.4,2.051,2.92,4.01,4.52,5.91H5.55c1.16-2.12,2.2-4.48,4.55-5.55
	c0.19-1.03,0.38-2.06,0.56-3.08c1.85-1.21,3.73-2.351,5.67-3.41c-0.44-0.86-0.87-1.74-1.27-2.61c0.6,0.2,1.82,0.61,2.42,0.811
	c1.62-0.471,3.21-1.03,4.82-1.51C22.28,84.83,22.27,82.01,22.27,79.2z"/>
<path fill="#AC1B0D" d="M27.11,79.21c0.62,0,1.85,0.01,2.46,0.01c0.01,3.13,0.02,6.261,0.1,9.38c-0.46,0.641-1.36,1.9-1.82,2.53
	c-0.18-0.16-0.55-0.479-0.73-0.64l-0.33-0.28C27.14,86.55,27.04,82.87,27.11,79.21z"/>
<path fill="#BA1111" d="M34.16,79.15c0.59,0.039,1.77,0.119,2.36,0.16c0.07,3.92,0.27,7.949-1.48,11.58
	C32.17,87.689,34.72,83.02,34.16,79.15z"/>
<path fill="#BA190F" d="M40.47,89.561C38.6,86.26,39.51,82.38,39.6,78.79l0.45,1.11c1.97,3.3,3.16,7.229,1.4,10.92L40.47,89.561z"/>
<path fill="#E7696F" d="M120.05,79.3l0.91-0.06c0.09,3.27,0.63,6.72-0.86,9.779C119.79,85.79,119.74,82.54,120.05,79.3z"/>
<path fill="#AB1723" d="M120.96,79.24c0.479-0.03,1.45-0.08,1.931-0.11c-0.44,4.05,1.84,10.05-2.761,12.31
	c-0.01-0.609-0.03-1.81-0.03-2.42C121.59,85.96,121.05,82.51,120.96,79.24z"/>
<path fill="#FBFBFB" d="M90.13,88.359c0.41-2.17-0.79-5.17,1.341-6.67c2.359,3.92,4.609,7.91,6.879,11.881
	c-3.58-0.521-7.18-0.301-10.74,0.189c-2.279,1.641-4.689,3.1-7.1,4.53c1.141-3.67,0.41-7.54,0.83-11.29
	c0.37,0.27,1.09,0.82,1.46,1.09c1.479,0.87-0.39,3.12,1.31,3.86C84.4,88.9,87.609,88.2,90.13,88.359z"/>
<path fill="#421F15" d="M125.13,87.65c0.181-2.541,3.42-1.11,5.07-1.5C129.8,88.67,126.859,87.34,125.13,87.65z"/>
<path fill="#FCFBFB" d="M73.689,86.97c2.59,1.851,4.851,4.15,6.311,7.011c-0.42,1.83-0.68,3.699-0.73,5.58
	c-1.89,1.319-3.89,2.459-5.97,3.439h-3.59c-0.3-2.48-0.53-4.97-0.649-7.47c1.539-0.65,3.1-1.25,4.56-2.08
	C73.83,91.3,73.65,89.13,73.689,86.97z"/>
<path fill="#FBFAFC" d="M99.42,89.33c1.5-0.641,2.971-1.43,4.609-1.63c2.91,1.53,4.41,4.59,5.99,7.31
	c-1.109-0.07-3.33-0.199-4.43-0.27c-1.18-0.271-2.359-0.521-3.54-0.74c-0.649-0.109-1.95-0.33-2.6-0.439
	C99.439,92.15,99.43,90.74,99.42,89.33z"/>
<path fill="#170D03" d="M27.85,91.13c0.46-0.63,1.36-1.89,1.82-2.53c2.92,0.541,4.77,2.931,6.89,4.76
	c0.16,1.701,0.34,3.391,0.59,5.08c-0.07,1.521-0.14,3.041-0.2,4.561h-1.59c0.51-2.57,0.28-5.189-0.41-7.71
	c-1.07-0.41-2.14-0.82-3.21-1.24c-0.38-1.33-0.78-2.659-1.16-3.989c-0.49,0.689-0.98,1.39-1.47,2.09
	c0.89,2.319,2.14,4.479,3.82,6.319c-0.44-0.01-1.33-0.04-1.78-0.05c0.1,1.12,0.19,2.24,0.29,3.36c-0.43,0.31-1.31,0.92-1.75,1.22
	h-5.33c-1.6-1.9-3.12-3.859-4.52-5.91c2.71,1.38,5,3.96,8.14,4.26c4.1-3.199-1.93-7.05-0.86-10.859
	C27.3,90.65,27.67,90.97,27.85,91.13 M33.48,93.01C33.42,96.3,36.6,91.67,33.48,93.01z"/>
<path fill="#2F1F12" d="M29.11,92.15c0.49-0.7,0.98-1.4,1.47-2.09c0.38,1.33,0.78,2.659,1.16,3.989c1.07,0.42,2.14,0.83,3.21,1.24
	c0.69,2.521,0.92,5.14,0.41,7.71h-5.67c0.44-0.3,1.32-0.91,1.75-1.22c-0.1-1.12-0.19-2.24-0.29-3.36c0.45,0.01,1.34,0.04,1.78,0.05
	C31.25,96.63,30,94.47,29.11,92.15z"/>
<path fill="#777369" d="M33.48,93.01C36.6,91.67,33.42,96.3,33.48,93.01z"/>
</svg>
