<?xml version="1.0" encoding="UTF-8" ?>
<!DOCTYPE svg PUBLIC "-//W3C//DTD SVG 1.1//EN" "http://www.w3.org/Graphics/SVG/1.1/DTD/svg11.dtd">
<svg width="1094pt" height="809pt" viewBox="0 0 1094 809" version="1.1" xmlns="http://www.w3.org/2000/svg">
<path fill="#ffffff" opacity="1.00" d=" M 0.00 0.00 L 1094.00 0.00 L 1094.00 809.00 L 0.00 809.00 L 0.00 0.00 M 414.32 3.20 C 405.26 8.32 395.30 11.71 385.12 13.78 C 364.61 17.99 343.44 17.44 322.97 21.93 C 318.83 22.84 314.68 23.92 310.94 25.97 C 302.25 30.67 295.23 38.03 286.13 42.04 C 272.19 48.02 256.87 48.83 242.03 50.76 C 231.69 52.27 220.74 54.58 212.69 61.71 C 200.02 72.33 187.45 83.09 175.39 94.40 C 173.26 96.57 170.75 98.59 169.58 101.49 C 167.59 108.83 170.60 117.29 166.28 124.02 C 159.82 132.18 148.26 132.22 140.43 138.36 C 136.73 141.17 135.37 145.83 134.96 150.26 C 124.96 150.25 114.96 150.24 104.96 150.25 C 103.28 150.10 101.82 150.93 100.44 151.75 C 102.53 154.83 106.49 156.53 110.10 155.19 C 106.31 157.67 101.85 158.74 97.40 159.18 C 82.78 160.81 67.13 158.74 53.52 165.48 C 57.77 169.97 64.16 170.98 70.06 171.13 C 83.29 171.39 96.52 168.47 109.73 170.29 C 96.67 194.07 77.91 214.02 63.58 236.97 C 61.96 236.14 60.07 235.44 59.31 233.63 C 57.11 228.71 57.92 223.15 58.02 217.93 C 57.97 213.65 57.74 208.61 53.77 205.99 C 53.76 211.70 54.04 217.46 53.07 223.13 C 49.64 246.43 38.52 267.54 32.07 290.00 C 30.18 297.47 28.25 305.48 30.57 313.08 C 31.80 317.26 34.81 320.63 38.32 323.10 C 23.16 358.61 20.23 397.87 20.12 436.04 C 20.44 472.89 24.30 509.65 30.44 545.96 C 37.93 589.67 48.61 632.92 63.84 674.60 C 59.15 669.99 55.42 664.50 52.09 658.86 C 43.74 644.57 37.68 629.09 32.37 613.46 C 24.26 588.84 18.08 563.56 14.44 537.89 C 12.02 521.69 12.44 505.28 12.26 488.95 C 11.65 453.92 12.13 418.88 12.57 383.86 C 13.30 368.36 17.66 353.33 19.29 337.93 C 20.35 328.42 20.66 318.29 16.47 309.44 C 13.74 303.74 8.37 299.80 2.51 297.73 C 2.51 378.91 2.43 460.09 2.55 541.26 C 6.14 546.26 9.66 551.47 11.45 557.45 C 17.64 576.06 13.26 595.93 16.10 615.00 C 17.35 624.02 21.20 632.44 25.82 640.20 C 36.61 658.15 51.81 673.22 60.80 692.28 C 69.69 711.57 70.85 733.09 73.50 753.84 C 75.68 772.21 79.81 790.84 89.55 806.81 C 94.46 806.69 99.38 806.77 104.30 806.75 C 99.12 794.00 92.99 781.65 88.26 768.71 C 81.77 751.46 78.34 733.00 78.80 714.55 C 85.34 726.11 93.26 736.94 102.75 746.27 C 128.58 772.26 162.44 788.11 196.15 801.24 C 196.15 803.07 196.16 804.91 196.16 806.75 C 199.54 806.74 202.92 806.74 206.30 806.75 C 200.58 794.77 190.43 785.53 179.00 779.08 C 159.96 768.10 138.38 762.32 119.65 750.74 C 119.49 741.76 115.10 733.43 108.89 727.15 C 98.70 716.56 85.46 708.38 78.83 694.80 C 76.05 688.12 81.47 680.97 78.81 674.30 C 71.68 660.09 66.73 644.92 62.21 629.72 C 51.31 591.81 43.52 552.80 27.97 516.39 C 30.40 493.30 30.70 470.06 30.85 446.88 C 31.40 419.84 31.35 392.52 37.03 365.94 C 40.00 352.45 44.81 339.06 53.31 328.01 C 51.02 309.33 51.72 289.92 58.22 272.10 C 64.08 255.61 74.85 241.40 86.75 228.77 C 102.30 212.09 119.68 196.33 129.74 175.46 C 150.00 176.32 170.23 181.26 188.15 190.90 C 211.39 203.32 229.90 222.54 247.42 241.85 C 226.62 238.35 205.13 240.73 185.14 247.21 C 162.07 254.62 140.79 266.84 121.44 281.30 C 118.84 282.73 119.81 286.09 119.27 288.52 C 116.54 310.76 108.59 332.36 109.39 355.00 C 109.55 357.86 109.57 360.80 110.60 363.52 C 112.21 367.78 117.97 368.38 119.37 372.83 C 123.64 384.53 119.87 397.02 119.14 408.98 C 118.63 414.20 121.59 418.79 123.98 423.18 C 132.26 437.41 147.85 445.58 155.53 460.27 C 179.27 460.19 203.01 460.33 226.75 460.20 C 245.63 437.97 269.49 420.62 288.50 398.51 C 301.22 384.11 311.52 367.36 317.17 348.93 C 322.35 332.44 323.99 315.00 323.26 297.80 C 291.98 274.06 265.51 244.91 237.72 217.37 C 236.20 216.00 237.56 213.76 238.87 212.80 C 244.74 208.31 253.02 210.15 259.11 206.10 C 260.86 204.99 261.50 202.90 262.35 201.13 C 257.61 191.37 248.62 184.41 238.61 180.64 C 216.46 172.17 192.23 172.18 169.70 165.13 C 162.61 162.96 155.76 159.82 149.91 155.21 C 172.76 120.96 205.66 95.37 231.55 63.67 C 251.69 59.44 272.43 58.30 292.98 58.00 C 335.55 57.36 377.97 61.47 420.45 63.51 C 419.98 68.82 419.27 74.18 417.24 79.15 C 415.25 83.31 411.91 87.20 407.23 88.23 C 400.99 89.83 394.97 86.81 389.40 84.38 C 389.73 85.53 390.26 86.65 390.25 87.87 C 390.43 93.87 390.57 99.91 389.61 105.86 C 386.62 133.00 372.11 156.77 363.65 182.30 C 360.91 191.25 358.49 200.63 359.48 210.07 C 361.50 219.33 369.95 225.13 373.66 233.55 C 374.69 235.55 374.08 237.97 375.13 239.96 C 374.30 242.53 374.29 245.34 372.97 247.76 C 370.85 251.86 367.43 255.32 366.61 260.03 C 367.40 262.44 367.53 265.49 369.85 267.04 C 373.76 268.36 378.13 268.73 382.16 267.62 C 387.08 266.33 390.44 262.27 394.60 259.63 C 397.53 257.60 401.07 256.86 404.57 256.67 C 402.26 238.25 403.28 218.95 410.96 201.80 C 420.21 180.38 438.02 164.54 450.51 145.18 C 449.81 136.08 449.09 126.95 449.85 117.83 C 450.56 112.89 450.73 107.86 451.99 103.00 C 454.26 92.36 458.62 81.97 465.86 73.74 C 482.99 73.60 500.15 74.07 517.27 73.51 C 517.70 70.07 518.43 65.14 514.10 63.96 C 506.57 61.98 498.76 65.01 491.10 63.84 C 501.86 55.73 510.52 45.08 522.02 37.91 C 528.38 40.79 534.67 43.88 540.61 47.56 C 556.07 56.86 569.12 69.65 580.43 83.60 C 592.14 98.37 602.29 114.29 613.59 129.37 C 615.58 135.06 616.70 141.04 618.26 146.87 C 618.47 148.58 618.66 150.29 618.92 152.00 C 620.08 158.11 619.47 164.37 619.20 170.54 C 622.44 171.95 626.83 171.99 628.27 168.11 C 628.72 165.29 629.54 162.54 630.78 159.97 C 633.52 158.58 636.87 158.82 639.48 160.38 C 650.76 172.12 652.94 189.92 665.03 201.04 C 662.96 202.70 660.86 204.65 658.11 204.98 C 653.90 204.81 652.25 200.39 650.78 197.17 C 649.11 192.49 647.64 187.75 645.97 183.08 C 643.70 177.74 640.78 170.79 634.00 170.51 C 633.63 171.95 633.24 173.39 632.79 174.80 C 632.16 178.89 632.15 183.04 632.75 187.14 C 636.36 201.07 646.53 211.77 655.13 222.84 C 661.99 231.07 667.44 240.38 671.89 250.11 C 674.33 255.39 676.65 260.72 678.85 266.10 C 680.86 270.78 682.83 275.48 684.89 280.14 C 689.18 289.82 694.20 299.21 700.41 307.81 C 699.93 311.23 699.22 314.71 700.00 318.16 C 700.91 325.15 705.15 331.16 705.99 338.16 C 706.99 341.73 705.45 345.41 705.94 348.90 C 723.69 373.92 731.95 404.20 736.98 434.09 C 742.24 465.15 744.37 496.63 745.92 528.05 C 746.92 535.01 746.38 542.10 747.30 549.08 C 747.86 563.78 749.13 578.43 749.91 593.12 C 751.74 611.67 753.20 630.33 756.57 648.70 C 747.36 660.37 740.09 673.42 733.85 686.88 C 719.55 717.89 710.28 750.84 699.29 783.09 C 696.41 791.01 693.66 799.01 690.19 806.71 C 695.28 806.78 700.37 806.73 705.46 806.76 C 705.94 805.13 706.46 803.53 706.91 801.90 C 713.54 780.57 723.48 760.49 733.89 740.79 C 747.34 715.39 760.43 689.35 766.74 661.12 C 771.34 641.87 772.44 621.99 771.65 602.28 C 771.59 600.96 770.68 599.92 770.11 598.81 C 767.65 599.29 765.28 600.15 762.86 600.75 C 762.57 600.11 762.00 598.83 761.72 598.19 C 760.63 587.15 760.44 576.03 760.30 564.93 C 759.32 554.31 760.00 543.62 759.79 532.97 C 760.58 526.69 760.15 520.35 760.49 514.04 C 760.59 495.34 761.91 476.70 761.80 457.99 C 761.78 438.04 762.25 418.01 759.87 398.16 C 758.12 380.08 755.07 361.89 747.85 345.11 C 732.32 307.43 703.95 276.90 687.28 239.82 C 680.14 224.51 675.99 207.91 674.83 191.09 C 674.40 187.29 675.31 183.26 674.33 179.59 C 633.61 122.08 588.28 66.84 532.61 23.14 C 537.54 22.36 543.89 23.69 547.38 19.22 C 548.01 17.05 547.74 14.77 547.64 12.55 C 536.28 13.25 524.84 14.74 513.47 13.37 C 504.14 12.29 495.74 7.77 487.73 3.15 C 486.34 2.22 484.58 2.57 483.02 2.47 C 461.69 2.52 440.35 2.51 419.02 2.48 C 417.43 2.54 415.71 2.27 414.32 3.20 M 827.57 52.48 C 827.58 67.26 827.52 82.03 827.60 96.80 C 831.34 96.74 835.08 96.74 838.83 96.77 C 839.01 90.41 838.51 84.04 839.14 77.70 C 845.37 77.81 851.59 77.72 857.82 77.76 C 857.83 74.92 857.83 72.08 857.82 69.24 C 851.59 69.27 845.35 69.20 839.12 69.29 C 838.82 66.57 838.77 63.84 838.83 61.11 C 845.68 60.85 852.54 61.12 859.39 60.93 C 859.37 58.14 859.36 55.34 859.39 52.55 C 848.78 52.43 838.17 52.55 827.57 52.48 M 867.38 52.48 C 867.36 67.24 867.36 82.01 867.38 96.77 C 871.19 96.75 875.02 96.75 878.84 96.76 C 878.87 90.42 878.84 84.08 878.86 77.74 C 885.12 77.76 891.37 77.77 897.64 77.73 C 897.62 74.91 897.62 72.09 897.64 69.27 C 891.37 69.23 885.12 69.24 878.86 69.26 C 878.85 66.51 878.85 63.76 878.86 61.00 C 885.63 60.91 892.42 61.20 899.20 60.83 C 899.14 58.08 899.13 55.33 899.16 52.58 C 888.57 52.38 877.97 52.57 867.38 52.48 M 787.71 52.47 C 787.71 67.25 787.68 82.02 787.73 96.80 C 791.60 96.74 795.49 96.79 799.37 96.66 C 799.32 90.36 799.34 84.05 799.36 77.74 C 805.51 77.77 811.67 77.74 817.82 77.77 C 817.83 74.92 817.83 72.08 817.82 69.23 C 811.66 69.26 805.50 69.24 799.35 69.26 C 799.34 66.50 799.34 63.75 799.35 61.00 C 806.10 60.98 812.85 61.05 819.60 60.95 C 819.57 58.13 819.57 55.32 819.56 52.50 C 808.94 52.48 798.33 52.53 787.71 52.47 M 907.15 52.50 C 907.17 67.26 907.14 82.01 907.17 96.76 C 910.99 96.76 914.82 96.76 918.65 96.73 C 918.64 90.40 918.64 84.07 918.65 77.74 C 924.90 77.74 931.17 77.80 937.43 77.70 C 937.40 74.90 937.40 72.10 937.43 69.29 C 931.17 69.20 924.90 69.26 918.65 69.26 C 918.63 66.51 918.63 63.75 918.64 61.00 C 925.39 60.99 932.15 61.01 938.90 61.00 C 938.89 58.16 938.89 55.33 938.91 52.50 C 928.32 52.49 917.74 52.49 907.15 52.50 M 946.88 52.48 C 946.87 67.24 946.86 82.01 946.88 96.78 C 950.72 96.75 954.57 96.76 958.43 96.72 C 958.43 90.39 958.39 84.06 958.45 77.74 C 964.70 77.75 970.95 77.81 977.20 77.69 C 977.18 74.90 977.18 72.10 977.20 69.31 C 970.94 69.18 964.68 69.27 958.43 69.25 C 958.42 66.50 958.42 63.75 958.43 61.00 C 965.18 60.99 971.94 61.03 978.69 60.98 C 978.67 58.16 978.67 55.35 978.70 52.53 C 968.09 52.44 957.48 52.54 946.88 52.48 M 986.44 96.76 C 990.26 96.75 994.10 96.75 997.93 96.76 C 997.95 90.42 997.93 84.08 997.95 77.75 C 1004.20 77.76 1010.45 77.76 1016.71 77.75 C 1016.70 74.92 1016.70 72.09 1016.71 69.26 C 1010.45 69.24 1004.20 69.24 997.95 69.25 C 997.93 66.50 997.94 63.75 997.95 61.00 C 1004.70 60.98 1011.45 61.04 1018.21 60.96 C 1018.20 58.15 1018.20 55.33 1018.21 52.52 C 1007.62 52.46 997.04 52.53 986.45 52.48 C 986.41 67.24 986.44 82.00 986.44 96.76 M 1026.20 52.50 C 1026.22 67.25 1026.20 82.00 1026.22 96.75 C 1030.04 96.76 1033.88 96.76 1037.72 96.74 C 1037.71 90.41 1037.71 84.08 1037.72 77.75 C 1043.97 77.75 1050.23 77.78 1056.49 77.73 C 1056.47 74.91 1056.48 72.09 1056.49 69.27 C 1050.23 69.22 1043.97 69.25 1037.72 69.25 C 1037.70 66.50 1037.70 63.75 1037.72 61.00 C 1044.47 60.99 1051.23 61.01 1057.99 61.00 C 1057.98 58.16 1057.97 55.33 1057.98 52.50 C 1047.39 52.49 1036.80 52.49 1026.20 52.50 M 500.65 131.65 C 498.41 132.66 496.72 134.66 494.29 135.29 C 491.14 136.25 487.22 138.20 487.34 142.05 C 487.16 147.99 489.98 153.51 491.47 159.14 C 490.31 161.63 487.80 163.01 485.84 164.80 C 466.91 180.30 446.47 195.19 433.63 216.50 C 425.37 229.85 421.17 245.35 419.86 260.89 C 419.48 267.94 419.21 275.11 420.04 282.12 C 422.51 287.63 425.96 292.65 429.08 297.82 C 439.71 314.42 452.27 329.98 467.51 342.57 C 483.96 356.46 503.45 366.61 524.09 372.64 C 551.57 380.71 580.61 381.86 609.02 379.64 C 616.39 379.49 623.10 375.92 629.38 372.40 C 646.62 361.98 657.37 343.33 661.67 324.02 C 664.35 312.19 665.00 299.97 664.14 287.89 C 662.99 275.04 660.27 262.31 655.96 250.13 C 655.45 248.97 654.95 247.81 654.44 246.66 C 645.16 244.67 639.68 236.03 635.88 228.06 C 635.63 227.57 635.12 226.57 634.87 226.07 C 633.55 223.05 632.15 220.06 630.81 217.05 C 628.16 211.01 625.32 205.03 621.67 199.53 C 620.19 197.27 618.62 194.87 616.13 193.66 C 609.96 190.59 602.27 189.96 597.50 184.52 C 587.79 173.54 581.95 159.91 574.32 147.54 C 572.07 143.94 569.51 140.21 565.55 138.36 C 559.50 135.49 552.94 133.93 546.45 132.38 C 535.48 130.05 524.24 128.52 513.00 129.09 C 508.80 129.37 504.52 129.91 500.65 131.65 M 787.71 133.73 C 787.69 148.48 787.71 163.23 787.70 177.98 C 791.59 178.02 795.48 178.03 799.37 177.91 C 799.31 171.61 799.36 165.31 799.34 159.01 C 805.50 158.98 811.67 159.01 817.84 158.99 C 817.83 156.15 817.83 153.32 817.82 150.48 C 811.66 150.51 805.51 150.48 799.36 150.52 C 799.34 147.76 799.33 145.01 799.32 142.26 C 806.07 142.23 812.82 142.27 819.57 142.25 C 819.57 139.41 819.57 136.58 819.57 133.75 C 808.95 133.73 798.33 133.77 787.71 133.73 M 827.60 178.01 C 831.45 178.00 835.31 178.06 839.17 177.86 C 838.47 171.73 839.14 165.56 838.68 159.42 C 845.01 158.47 851.46 159.26 857.84 158.99 C 857.83 156.15 857.83 153.32 857.82 150.48 C 851.49 150.48 845.17 150.56 838.85 150.44 C 839.03 147.79 838.35 144.85 839.22 142.37 C 845.93 142.06 852.65 142.36 859.37 142.24 C 859.37 139.41 859.37 136.59 859.37 133.77 C 848.78 133.72 838.18 133.78 827.58 133.73 C 827.57 148.49 827.53 163.25 827.60 178.01 M 867.36 177.99 C 871.19 178.01 875.02 178.00 878.86 177.99 C 878.85 171.66 878.85 165.33 878.86 159.00 C 885.12 158.98 891.38 159.04 897.65 158.96 C 897.62 156.14 897.62 153.32 897.62 150.51 C 891.37 150.50 885.11 150.47 878.86 150.53 C 878.85 147.75 878.85 144.98 878.85 142.20 C 885.49 142.34 892.13 142.15 898.78 142.33 C 899.34 139.48 899.25 136.57 898.88 133.70 C 888.38 133.79 877.88 133.74 867.39 133.73 C 867.33 148.48 867.39 163.24 867.36 177.99 M 907.16 133.75 C 907.16 148.50 907.16 163.24 907.15 177.99 C 910.98 178.01 914.82 178.01 918.66 177.96 C 918.62 171.64 918.64 165.32 918.64 159.00 C 924.90 158.98 931.16 159.04 937.42 158.96 C 937.41 156.15 937.40 153.34 937.42 150.54 C 931.16 150.46 924.90 150.49 918.65 150.52 C 918.63 147.75 918.63 144.98 918.66 142.21 C 925.40 142.29 932.15 142.23 938.90 142.25 C 938.89 139.42 938.90 136.58 938.90 133.75 C 928.32 133.75 917.74 133.74 907.16 133.75 M 946.87 133.74 C 946.86 148.49 946.87 163.24 946.87 177.98 C 950.72 178.01 954.58 178.01 958.44 177.96 C 958.41 171.64 958.43 165.33 958.42 159.01 C 964.67 158.96 970.93 159.06 977.19 158.94 C 977.18 156.14 977.18 153.33 977.19 150.52 C 970.93 150.47 964.68 150.50 958.43 150.51 C 958.42 147.75 958.42 144.99 958.42 142.23 C 965.17 142.27 971.92 142.25 978.67 142.25 C 978.67 139.42 978.67 136.58 978.67 133.75 C 968.07 133.74 957.47 133.76 946.87 133.74 M 986.42 177.99 C 990.26 178.01 994.10 178.00 997.95 177.99 C 997.94 171.66 997.94 165.33 997.95 159.00 C 1004.20 158.99 1010.45 159.01 1016.71 158.99 C 1016.70 156.16 1016.70 153.32 1016.69 150.49 C 1010.44 150.51 1004.19 150.48 997.94 150.51 C 997.93 147.75 997.94 144.99 997.95 142.23 C 1004.70 142.27 1011.45 142.25 1018.21 142.24 C 1018.20 139.41 1018.20 136.59 1018.21 133.76 C 1007.62 133.73 997.03 133.77 986.45 133.74 C 986.40 148.49 986.45 163.24 986.42 177.99 M 1026.21 133.75 C 1026.21 148.50 1026.21 163.24 1026.20 177.99 C 1030.04 178.00 1033.88 178.01 1037.72 177.99 C 1037.71 171.66 1037.71 165.33 1037.72 159.00 C 1043.97 158.99 1050.23 159.01 1056.49 158.99 C 1056.48 156.16 1056.48 153.34 1056.49 150.51 C 1050.23 150.48 1043.98 150.50 1037.73 150.50 C 1037.72 147.77 1037.70 145.05 1037.66 142.33 C 1044.43 142.16 1051.20 142.29 1057.98 142.25 C 1057.98 139.42 1057.98 136.58 1057.98 133.75 C 1047.39 133.75 1036.80 133.74 1026.21 133.75 M 808.75 215.20 C 808.70 229.97 808.74 244.75 808.73 259.53 C 812.60 259.50 816.48 259.52 820.37 259.45 C 820.35 253.12 820.33 246.80 820.38 240.47 C 826.62 240.50 832.88 240.57 839.13 240.43 C 839.11 237.69 839.12 234.95 839.17 232.21 C 832.91 231.78 826.63 232.09 820.36 232.00 C 820.34 229.25 820.34 226.49 820.36 223.74 C 827.08 223.78 833.81 223.71 840.53 223.79 C 840.59 220.95 840.59 218.12 840.61 215.29 C 829.99 215.17 819.37 215.33 808.75 215.20 M 848.60 215.20 C 848.55 229.97 848.60 244.74 848.58 259.52 C 852.32 259.49 856.06 259.48 859.80 259.56 C 860.65 253.23 859.36 246.84 860.20 240.49 C 866.42 240.51 872.64 240.51 878.86 240.50 C 878.85 237.66 878.85 234.83 878.86 232.01 C 872.50 231.94 866.14 232.13 859.79 231.88 C 859.92 229.17 860.10 226.46 860.19 223.75 C 866.93 223.73 873.66 223.82 880.40 223.69 C 880.37 220.89 880.37 218.10 880.40 215.31 C 869.80 215.14 859.20 215.35 848.60 215.20 M 888.17 215.24 C 887.84 229.97 888.56 244.72 887.86 259.44 C 891.77 259.53 895.69 259.51 899.61 259.50 C 899.64 253.16 899.62 246.83 899.62 240.49 C 905.88 240.50 912.14 240.53 918.40 240.47 C 918.39 237.67 918.39 234.86 918.41 232.05 C 912.15 231.95 905.89 232.02 899.63 232.00 C 899.62 229.24 899.62 226.49 899.63 223.74 C 906.38 223.76 913.13 223.75 919.88 223.76 C 919.89 220.92 919.89 218.08 919.88 215.24 C 909.31 215.25 898.74 215.25 888.17 215.24 M 927.86 215.21 C 927.84 229.98 927.85 244.75 927.86 259.52 C 931.70 259.50 935.56 259.51 939.41 259.48 C 939.41 253.15 939.40 246.82 939.42 240.49 C 945.67 240.50 951.92 240.53 958.18 240.47 C 958.17 237.66 958.17 234.86 958.19 232.06 C 951.92 231.93 945.66 232.04 939.41 231.99 C 939.40 229.24 939.41 226.49 939.42 223.75 C 946.17 223.75 952.92 223.77 959.67 223.73 C 959.66 220.91 959.66 218.09 959.67 215.26 C 949.07 215.21 938.46 215.30 927.86 215.21 M 967.68 215.21 C 967.63 229.98 967.67 244.74 967.66 259.51 C 971.51 259.50 975.36 259.54 979.22 259.42 C 979.16 253.11 979.18 246.80 979.20 240.49 C 985.45 240.51 991.70 240.51 997.95 240.50 C 997.94 237.66 997.94 234.83 997.95 232.00 C 991.69 231.99 985.43 232.01 979.18 231.99 C 979.18 229.24 979.18 226.50 979.19 223.76 C 985.94 223.73 992.70 223.79 999.46 223.72 C 999.44 220.90 999.44 218.09 999.46 215.28 C 988.87 215.18 978.27 215.31 967.68 215.21 M 1007.45 215.24 C 1007.45 230.00 1007.43 244.75 1007.46 259.51 C 1011.28 259.50 1015.11 259.50 1018.95 259.51 C 1018.97 253.17 1018.95 246.83 1018.96 240.49 C 1025.20 240.52 1031.45 240.49 1037.71 240.51 C 1037.71 237.67 1037.71 234.84 1037.72 232.01 C 1031.46 231.98 1025.21 232.01 1018.96 232.00 C 1018.95 229.24 1018.95 226.49 1018.96 223.75 C 1025.71 223.74 1032.47 223.79 1039.23 223.72 C 1039.21 220.90 1039.22 218.09 1039.23 215.28 C 1028.63 215.20 1018.04 215.27 1007.45 215.24 M 871.36 340.99 C 875.19 341.00 879.02 341.00 882.86 340.99 C 882.85 334.66 882.85 328.33 882.86 322.00 C 889.12 321.98 895.38 322.04 901.65 321.96 C 901.62 319.14 901.62 316.32 901.62 313.51 C 895.37 313.50 889.11 313.47 882.86 313.53 C 882.85 310.75 882.85 307.98 882.85 305.20 C 889.49 305.34 896.14 305.14 902.79 305.33 C 903.28 302.50 903.20 299.62 903.13 296.77 C 892.56 296.70 881.98 296.80 871.41 296.72 C 871.30 311.47 871.40 326.23 871.36 340.99 M 911.16 296.75 C 911.16 311.50 911.17 326.24 911.16 340.99 C 914.99 341.01 918.82 341.01 922.66 340.96 C 922.62 334.64 922.65 328.32 922.65 322.00 C 928.90 321.98 935.16 322.04 941.42 321.96 C 941.41 319.15 941.40 316.34 941.42 313.53 C 935.16 313.46 928.90 313.49 922.65 313.52 C 922.63 310.74 922.64 307.98 922.66 305.21 C 929.40 305.29 936.15 305.24 942.90 305.25 C 942.89 302.41 942.89 299.58 942.90 296.75 C 932.32 296.75 921.74 296.74 911.16 296.75 M 950.87 296.74 C 950.86 311.49 950.87 326.24 950.87 340.98 C 954.72 341.01 958.58 341.01 962.44 340.97 C 962.46 334.62 962.34 328.28 962.50 321.94 C 968.73 322.04 974.96 322.03 981.20 321.95 C 981.18 319.14 981.18 316.33 981.19 313.53 C 974.93 313.47 968.68 313.50 962.44 313.51 C 962.42 310.75 962.42 307.99 962.43 305.24 C 969.17 305.26 975.92 305.25 982.68 305.25 C 982.68 302.41 982.68 299.58 982.68 296.75 C 972.07 296.74 961.47 296.76 950.87 296.74 M 989.91 296.74 C 989.89 305.17 989.93 313.59 989.89 322.02 C 989.80 326.29 989.95 330.85 992.32 334.58 C 995.13 339.25 1000.65 341.39 1005.87 341.83 C 1012.04 342.37 1018.85 341.91 1023.96 338.04 C 1027.91 335.00 1029.53 329.86 1029.47 325.03 C 1029.46 315.60 1029.46 306.18 1029.46 296.75 C 1025.61 296.75 1021.77 296.75 1017.94 296.74 C 1017.93 305.82 1017.93 314.90 1017.95 323.97 C 1017.94 326.87 1017.71 330.27 1015.24 332.22 C 1012.56 334.14 1008.88 334.12 1005.84 333.19 C 1002.49 332.08 1001.44 328.19 1001.46 325.03 C 1001.42 315.61 1001.47 306.18 1001.44 296.75 C 997.59 296.75 993.75 296.75 989.91 296.74 M 1039.45 325.02 C 1039.42 329.39 1040.63 334.02 1043.90 337.11 C 1047.87 341.01 1053.71 341.98 1059.07 342.03 C 1064.63 342.03 1070.78 341.00 1074.82 336.82 C 1077.92 333.72 1079.01 329.20 1079.00 324.94 C 1078.99 315.54 1078.99 306.14 1078.99 296.75 C 1075.15 296.75 1071.32 296.75 1067.49 296.74 C 1067.45 306.17 1067.51 315.60 1067.48 325.02 C 1067.49 328.16 1066.49 332.00 1063.17 333.13 C 1059.94 334.18 1055.92 334.18 1053.22 331.88 C 1051.24 329.78 1050.95 326.73 1050.96 323.99 C 1050.98 314.91 1050.98 305.83 1050.97 296.75 C 1047.13 296.75 1043.30 296.75 1039.47 296.74 C 1039.45 306.17 1039.47 315.60 1039.45 325.02 M 388.84 354.38 C 366.58 357.76 345.19 368.39 330.20 385.37 C 317.74 399.44 304.99 413.88 297.59 431.39 C 291.82 444.88 289.79 459.52 287.61 473.91 C 281.04 520.59 270.77 566.71 258.06 612.09 C 246.63 652.27 233.34 692.03 216.23 730.18 C 235.48 742.17 257.82 747.96 279.93 751.99 C 307.05 756.77 334.57 758.58 362.00 760.71 C 366.78 761.42 370.22 757.22 372.94 753.92 C 376.50 748.97 379.80 742.80 386.16 741.14 C 405.18 737.58 423.01 729.36 439.51 719.45 C 458.03 708.27 475.15 694.98 493.39 683.36 C 510.00 672.21 525.67 659.72 542.09 648.28 C 555.45 639.07 569.14 629.82 584.60 624.51 C 602.59 618.86 621.56 622.87 639.99 622.51 C 655.96 622.80 673.18 619.35 685.09 608.03 C 688.39 597.00 689.51 585.40 689.88 573.93 C 690.73 567.68 690.37 561.33 690.46 555.05 C 690.58 538.76 690.14 522.49 690.26 506.21 C 669.50 482.92 660.52 451.98 641.37 427.56 C 631.64 414.93 618.29 404.81 602.83 400.44 C 597.43 399.09 591.85 396.60 586.23 398.23 C 581.08 399.99 578.82 405.58 574.28 408.24 C 572.38 409.34 570.13 409.44 568.00 409.59 C 538.81 387.86 505.47 371.82 470.56 361.64 C 444.12 354.23 416.19 350.20 388.84 354.38 M 870.60 378.01 C 870.60 387.65 870.58 397.29 870.60 406.93 C 870.55 411.48 872.26 416.25 875.88 419.16 C 879.81 422.38 885.09 423.22 890.04 423.28 C 895.06 423.30 900.37 422.44 904.50 419.38 C 908.32 416.53 910.06 411.65 910.14 407.01 C 910.21 397.37 910.12 387.73 910.17 378.09 C 906.32 377.96 902.46 377.99 898.61 378.01 C 898.60 387.33 898.62 396.65 898.62 405.97 C 898.61 408.76 898.03 411.99 895.57 413.69 C 892.89 415.38 889.37 415.33 886.44 414.44 C 882.99 413.30 882.13 409.25 882.14 406.07 C 882.13 396.75 882.13 387.43 882.16 378.11 C 878.30 377.95 874.45 377.98 870.60 378.01 M 920.16 378.01 C 920.16 387.03 920.17 396.04 920.15 405.06 C 920.09 408.66 920.41 412.43 922.35 415.57 C 924.88 420.06 929.99 422.37 934.95 422.94 C 941.04 423.69 947.71 423.39 953.07 420.05 C 957.39 417.29 959.64 412.14 959.65 407.11 C 959.70 397.41 959.63 387.72 959.68 378.03 C 955.84 377.99 952.00 377.99 948.17 378.01 C 948.18 387.01 948.16 396.02 948.19 405.03 C 948.18 407.79 947.97 410.88 945.98 413.02 C 943.21 415.43 938.99 415.51 935.69 414.29 C 932.47 412.97 931.62 409.11 931.65 405.99 C 931.65 396.67 931.64 387.35 931.67 378.03 C 927.83 377.99 923.99 377.99 920.16 378.01 M 969.89 378.01 C 969.87 386.34 969.90 394.66 969.87 402.99 C 969.71 407.98 970.02 413.54 973.51 417.47 C 977.28 421.94 983.42 423.19 989.00 423.28 C 994.68 423.31 1001.00 422.39 1005.17 418.16 C 1008.40 415.02 1009.49 410.37 1009.47 406.01 C 1009.45 396.68 1009.45 387.35 1009.46 378.02 C 1005.61 377.99 1001.76 377.99 997.92 378.01 C 997.79 388.17 998.15 398.35 997.75 408.49 C 997.43 415.25 988.31 416.83 983.78 413.24 C 981.63 411.10 981.40 407.87 981.42 405.02 C 981.46 396.02 981.42 387.03 981.45 378.03 C 977.59 377.99 973.73 377.99 969.89 378.01 M 1019.45 378.01 C 1019.46 387.35 1019.45 396.69 1019.44 406.03 C 1019.39 409.90 1020.22 413.94 1022.67 417.04 C 1026.04 421.39 1031.72 422.94 1036.99 423.22 C 1042.85 423.49 1049.32 422.83 1053.96 418.87 C 1057.68 415.76 1059.06 410.74 1059.00 406.05 C 1058.98 396.70 1058.98 387.35 1058.98 378.00 C 1055.14 378.00 1051.30 377.99 1047.47 378.01 C 1047.29 388.33 1047.83 398.68 1047.20 408.97 C 1046.61 415.07 1038.76 416.42 1034.22 413.89 C 1031.55 412.26 1031.00 408.85 1030.97 405.99 C 1030.94 396.66 1030.98 387.33 1030.97 378.00 C 1027.12 377.99 1023.28 377.99 1019.45 378.01 M 990.68 459.49 C 990.68 469.01 990.67 478.53 990.68 488.05 C 990.69 492.10 991.77 496.34 994.60 499.37 C 998.50 503.57 1004.53 504.72 1010.04 504.78 C 1015.36 504.79 1021.17 503.93 1025.31 500.26 C 1028.80 497.25 1030.23 492.51 1030.22 488.02 C 1030.23 478.52 1030.20 469.02 1030.22 459.52 C 1026.37 459.48 1022.53 459.49 1018.69 459.50 C 1018.67 469.02 1018.73 478.54 1018.67 488.06 C 1018.67 491.01 1017.70 494.55 1014.70 495.75 C 1011.58 496.91 1007.71 496.95 1004.90 495.01 C 1002.57 493.10 1002.18 489.83 1002.19 487.02 C 1002.20 477.87 1002.18 468.71 1002.21 459.56 C 998.37 459.47 994.52 459.49 990.68 459.49 M 1040.47 459.49 C 1040.46 469.00 1040.46 478.52 1040.46 488.03 C 1040.43 492.62 1041.92 497.49 1045.59 500.49 C 1049.83 504.11 1055.69 504.83 1061.07 504.77 C 1066.28 504.65 1071.93 503.51 1075.73 499.67 C 1078.80 496.65 1079.98 492.23 1079.99 488.04 C 1080.00 478.53 1079.99 469.01 1079.98 459.49 C 1076.14 459.50 1072.31 459.49 1068.49 459.50 C 1068.47 468.66 1068.48 477.82 1068.49 486.99 C 1068.49 489.77 1068.15 492.97 1065.89 494.91 C 1063.10 496.91 1059.22 496.93 1056.09 495.82 C 1053.01 494.67 1052.05 491.04 1052.00 488.09 C 1051.91 478.55 1052.02 469.02 1051.96 459.49 C 1048.13 459.50 1044.29 459.50 1040.47 459.49 M 891.62 459.48 C 891.66 469.62 891.50 479.77 891.68 489.91 C 891.87 495.95 896.00 501.60 901.82 503.38 C 908.32 505.37 915.58 505.36 921.96 502.91 C 927.59 500.76 931.12 494.91 931.13 488.98 C 931.24 479.17 931.13 469.35 931.17 459.54 C 927.32 459.48 923.48 459.49 919.64 459.48 C 919.60 469.01 919.67 478.54 919.61 488.07 C 919.61 490.97 918.66 494.44 915.74 495.68 C 912.85 496.86 909.32 496.91 906.52 495.48 C 903.60 493.82 903.13 490.10 903.15 487.07 C 903.15 477.89 903.15 468.72 903.16 459.54 C 899.31 459.48 895.46 459.49 891.62 459.48 M 941.17 459.50 C 941.23 469.59 941.06 479.68 941.24 489.77 C 941.34 496.18 945.93 502.04 952.14 503.64 C 958.74 505.34 966.11 505.37 972.40 502.50 C 977.61 500.19 980.61 494.54 980.66 488.98 C 980.72 479.15 980.67 469.32 980.67 459.49 C 976.83 459.50 973.00 459.49 969.18 459.50 C 969.05 469.67 969.46 479.85 968.98 490.00 C 968.64 496.70 959.67 498.29 955.09 494.83 C 953.00 492.85 952.69 489.74 952.65 487.02 C 952.65 477.84 952.68 468.67 952.65 459.49 C 948.81 459.50 944.99 459.49 941.17 459.50 M 870.60 541.01 C 870.58 549.67 870.62 558.33 870.58 566.99 C 870.51 570.62 870.59 574.42 872.35 577.70 C 874.63 582.54 879.87 585.22 884.99 585.89 C 891.11 586.71 897.76 586.43 903.22 583.25 C 907.84 580.60 910.09 575.15 910.14 570.00 C 910.21 560.37 910.12 550.73 910.17 541.09 C 906.32 540.96 902.46 540.98 898.61 541.01 C 898.60 550.34 898.62 559.68 898.62 569.02 C 898.69 572.28 897.60 576.25 894.17 577.42 C 890.88 578.42 886.70 578.45 884.08 575.92 C 880.98 571.58 882.39 565.98 882.15 561.04 C 882.38 554.39 881.53 547.74 882.22 541.11 C 878.34 540.95 874.47 540.98 870.60 541.01 M 920.16 541.01 C 920.16 550.00 920.17 558.98 920.15 567.97 C 920.09 571.55 920.38 575.32 922.29 578.46 C 924.79 583.00 929.92 585.36 934.90 585.93 C 940.99 586.69 947.65 586.40 953.01 583.09 C 957.41 580.32 959.67 575.09 959.66 570.00 C 959.70 560.34 959.63 550.69 959.68 541.03 C 955.84 540.99 952.00 540.99 948.17 541.01 C 948.00 551.32 948.55 561.67 947.90 571.95 C 947.28 578.00 939.52 579.44 934.98 576.92 C 932.27 575.32 931.66 571.85 931.65 568.97 C 931.65 559.65 931.64 550.34 931.67 541.03 C 927.83 540.99 923.99 540.99 920.16 541.01 M 969.89 541.01 C 969.95 551.04 969.76 561.08 969.97 571.10 C 970.14 576.94 973.78 582.56 979.35 584.59 C 985.88 586.90 993.29 586.88 999.83 584.61 C 1005.51 582.63 1009.28 576.90 1009.39 570.95 C 1009.56 560.98 1009.39 551.00 1009.46 541.02 C 1005.61 540.99 1001.76 540.99 997.92 541.01 C 997.74 551.36 998.27 561.75 997.65 572.08 C 997.00 577.90 989.63 579.30 985.12 577.13 C 982.11 575.69 981.46 572.01 981.43 569.02 C 981.43 559.69 981.43 550.36 981.45 541.03 C 977.59 540.99 973.73 540.99 969.89 541.01 M 1019.45 541.01 C 1019.50 550.97 1019.37 560.93 1019.50 570.89 C 1019.56 576.97 1023.47 582.82 1029.32 584.75 C 1036.06 586.89 1043.72 586.96 1050.30 584.21 C 1055.50 582.04 1058.75 576.60 1058.91 571.06 C 1059.10 561.04 1058.92 551.02 1058.99 541.01 C 1055.14 540.99 1051.30 540.99 1047.46 541.02 C 1047.30 551.34 1047.83 561.69 1047.20 571.99 C 1046.59 578.09 1038.71 579.42 1034.19 576.87 C 1031.55 575.23 1031.01 571.86 1030.97 569.01 C 1030.94 559.67 1030.98 550.34 1030.97 541.00 C 1027.12 540.99 1023.28 540.99 1019.45 541.01 M 891.64 622.20 C 891.57 631.81 891.62 641.42 891.61 651.04 C 891.53 656.00 893.59 661.25 897.79 664.11 C 901.90 666.93 907.07 667.55 911.95 667.53 C 917.13 667.42 922.74 666.37 926.63 662.65 C 930.04 659.46 931.26 654.58 931.19 650.05 C 931.15 640.80 931.17 631.55 931.17 622.30 C 927.32 622.23 923.48 622.25 919.65 622.21 C 919.44 632.51 919.97 642.84 919.40 653.12 C 918.76 659.38 910.59 660.81 906.04 657.94 C 903.60 656.13 903.16 652.84 903.15 650.03 C 903.09 640.77 903.27 631.51 903.07 622.25 C 899.25 622.25 895.45 622.26 891.64 622.20 M 941.18 622.24 C 941.17 631.85 941.15 641.47 941.18 651.08 C 941.14 655.47 942.61 660.06 946.00 663.01 C 949.75 666.44 955.03 667.36 959.95 667.52 C 965.31 667.60 971.11 666.82 975.41 663.33 C 979.03 660.37 980.68 655.62 980.68 651.05 C 980.70 641.45 980.66 631.85 980.69 622.26 C 976.85 622.24 973.02 622.24 969.20 622.24 C 969.16 631.49 969.20 640.75 969.19 650.01 C 969.14 652.91 968.67 656.36 965.99 658.05 C 961.40 660.76 953.41 659.35 952.90 653.10 C 952.34 642.85 952.82 632.54 952.67 622.27 C 948.83 622.24 945.01 622.24 941.18 622.24 M 990.70 622.23 C 990.70 632.16 990.62 642.10 990.72 652.04 C 990.80 657.98 994.44 663.85 1000.16 665.85 C 1006.72 668.14 1014.18 668.16 1020.73 665.80 C 1026.45 663.79 1030.09 657.93 1030.18 651.98 C 1030.28 642.07 1030.18 632.17 1030.21 622.27 C 1026.37 622.24 1022.54 622.25 1018.71 622.22 C 1018.50 632.52 1019.04 642.85 1018.45 653.13 C 1017.88 659.44 1009.59 660.80 1005.06 657.89 C 1002.37 655.84 1002.16 652.09 1002.18 648.99 C 1002.24 640.12 1002.12 631.24 1002.26 622.37 C 998.40 622.18 994.54 622.25 990.70 622.23 M 1040.46 622.25 C 1040.48 631.85 1040.44 641.46 1040.47 651.07 C 1040.49 655.60 1042.02 660.38 1045.65 663.31 C 1049.90 666.82 1055.66 667.59 1061.01 667.53 C 1066.15 667.40 1071.72 666.33 1075.54 662.61 C 1078.94 659.38 1080.09 654.52 1080.01 649.98 C 1079.97 640.73 1080.01 631.49 1079.98 622.24 C 1076.14 622.24 1072.31 622.24 1068.48 622.25 C 1068.48 631.50 1068.48 640.76 1068.49 650.01 C 1068.49 653.00 1067.92 656.59 1065.07 658.21 C 1062.16 659.66 1058.51 659.65 1055.57 658.32 C 1052.58 656.80 1051.98 653.08 1051.98 650.06 C 1051.95 640.79 1052.00 631.52 1051.97 622.24 C 1048.12 622.24 1044.29 622.24 1040.46 622.25 M 870.60 703.73 C 870.60 713.46 870.57 723.20 870.61 732.93 C 870.61 736.99 871.95 741.22 874.98 744.05 C 879.13 748.25 885.40 749.07 891.03 749.02 C 896.74 748.93 903.06 747.51 906.79 742.83 C 909.60 739.58 910.17 735.10 910.17 730.97 C 910.15 721.90 910.16 712.83 910.16 703.77 C 906.31 703.74 902.46 703.74 898.62 703.74 C 898.59 713.18 898.63 722.62 898.61 732.06 C 898.65 735.27 897.53 739.10 894.13 740.17 C 890.74 741.22 886.28 741.18 883.80 738.30 C 880.85 733.39 882.29 727.43 882.16 722.04 C 881.99 715.92 882.46 709.79 881.86 703.70 C 878.11 703.76 874.35 703.75 870.60 703.73 M 920.16 703.75 C 920.19 713.51 920.11 723.27 920.19 733.03 C 920.21 737.40 921.82 741.95 925.26 744.79 C 929.33 748.19 934.84 749.01 939.97 749.03 C 945.31 748.98 951.11 747.99 955.11 744.17 C 958.45 741.10 959.70 736.42 959.67 732.02 C 959.64 722.59 959.73 713.15 959.62 703.72 C 955.80 703.75 951.98 703.75 948.18 703.75 C 948.18 712.84 948.17 721.93 948.19 731.02 C 948.14 733.75 947.94 736.88 945.80 738.87 C 941.27 742.76 931.86 740.94 931.81 733.99 C 931.42 723.93 931.76 713.83 931.66 703.76 C 927.82 703.74 923.99 703.74 920.16 703.75 M 969.89 703.74 C 969.88 713.17 969.88 722.59 969.88 732.02 C 969.85 736.75 971.36 741.81 975.17 744.88 C 979.56 748.49 985.56 749.13 991.05 749.00 C 996.24 748.80 1001.88 747.53 1005.54 743.56 C 1008.42 740.47 1009.44 736.14 1009.46 732.03 C 1009.45 722.60 1009.46 713.18 1009.45 703.75 C 1005.60 703.74 1001.76 703.75 997.92 703.74 C 997.75 714.06 998.24 724.40 997.68 734.70 C 997.09 740.63 989.65 742.07 985.08 739.87 C 982.24 738.44 981.48 734.96 981.44 732.06 C 981.41 722.62 981.45 713.19 981.43 703.75 C 977.58 703.74 973.73 703.75 969.89 703.74 M 1019.45 732.04 C 1019.38 736.39 1020.62 740.98 1023.84 744.07 C 1027.80 748.00 1033.66 748.97 1039.02 749.03 C 1044.36 749.02 1050.20 748.11 1054.26 744.34 C 1057.72 741.26 1059.02 736.48 1058.99 731.99 C 1058.98 722.58 1058.98 713.16 1058.98 703.75 C 1055.14 703.74 1051.31 703.75 1047.48 703.74 C 1047.35 713.81 1047.69 723.89 1047.32 733.95 C 1047.24 740.96 1037.75 742.73 1033.18 738.86 C 1031.24 736.75 1030.94 733.73 1030.95 731.01 C 1030.97 721.92 1030.97 712.84 1030.97 703.75 C 1027.13 703.74 1023.29 703.75 1019.46 703.74 C 1019.44 713.17 1019.45 722.61 1019.45 732.04 M 1067.23 724.01 C 1067.23 726.75 1067.23 729.49 1067.23 732.24 C 1074.82 732.26 1082.40 732.25 1090.00 732.25 C 1089.99 729.49 1089.99 726.75 1090.00 724.00 C 1082.41 724.00 1074.82 723.99 1067.23 724.01 Z" />
<path fill="#000000" opacity="1.00" d=" M 414.32 3.20 C 415.71 2.27 417.43 2.54 419.02 2.48 C 440.35 2.51 461.69 2.52 483.02 2.47 C 484.58 2.57 486.34 2.22 487.73 3.15 C 495.74 7.77 504.14 12.29 513.47 13.37 C 524.84 14.74 536.28 13.25 547.64 12.55 C 547.74 14.77 548.01 17.05 547.38 19.22 C 543.89 23.69 537.54 22.36 532.61 23.14 C 588.28 66.84 633.61 122.08 674.33 179.59 C 675.31 183.26 674.40 187.29 674.83 191.09 C 675.99 207.91 680.14 224.51 687.28 239.82 C 703.95 276.90 732.32 307.43 747.85 345.11 C 755.07 361.89 758.12 380.08 759.87 398.16 C 762.25 418.01 761.78 438.04 761.80 457.99 C 761.91 476.70 760.59 495.34 760.49 514.04 C 760.15 520.35 760.58 526.69 759.79 532.97 C 760.00 543.62 759.32 554.31 760.30 564.93 C 760.44 576.03 760.63 587.15 761.72 598.19 C 762.00 598.83 762.57 600.11 762.86 600.75 C 765.28 600.15 767.65 599.29 770.11 598.81 C 770.68 599.92 771.59 600.96 771.65 602.28 C 772.44 621.99 771.34 641.87 766.74 661.12 C 760.43 689.35 747.34 715.39 733.89 740.79 C 723.48 760.49 713.54 780.57 706.91 801.90 C 706.46 803.53 705.94 805.13 705.46 806.76 C 700.37 806.73 695.28 806.78 690.19 806.71 C 693.66 799.01 696.41 791.01 699.29 783.09 C 710.28 750.84 719.55 717.89 733.85 686.88 C 740.09 673.42 747.36 660.37 756.57 648.70 C 753.20 630.33 751.74 611.67 749.91 593.12 C 749.13 578.43 747.86 563.78 747.30 549.08 C 746.38 542.10 746.92 535.01 745.92 528.05 C 744.37 496.63 742.24 465.15 736.98 434.09 C 731.95 404.20 723.69 373.92 705.94 348.90 C 705.45 345.41 706.99 341.73 705.99 338.16 C 705.15 331.16 700.91 325.15 700.00 318.16 C 699.22 314.71 699.93 311.23 700.41 307.81 C 694.20 299.21 689.18 289.82 684.89 280.14 C 682.83 275.48 680.86 270.78 678.85 266.10 C 676.65 260.72 674.33 255.39 671.89 250.11 C 667.44 240.38 661.99 231.07 655.13 222.84 C 646.53 211.77 636.36 201.07 632.75 187.14 C 632.15 183.04 632.16 178.89 632.79 174.80 C 633.24 173.39 633.63 171.95 634.00 170.51 C 640.78 170.79 643.70 177.74 645.97 183.08 C 647.64 187.75 649.11 192.49 650.78 197.17 C 652.25 200.39 653.90 204.81 658.11 204.98 C 660.86 204.65 662.96 202.70 665.03 201.04 C 652.94 189.92 650.76 172.12 639.48 160.38 C 636.87 158.82 633.52 158.58 630.78 159.97 C 629.54 162.54 628.72 165.29 628.27 168.11 C 626.83 171.99 622.44 171.95 619.20 170.54 C 619.47 164.37 620.08 158.11 618.92 152.00 C 618.66 150.29 618.47 148.58 618.26 146.87 C 616.70 141.04 615.58 135.06 613.59 129.37 C 602.29 114.29 592.14 98.37 580.43 83.60 C 569.12 69.65 556.07 56.86 540.61 47.56 C 534.67 43.88 528.38 40.79 522.02 37.91 C 510.52 45.08 501.86 55.73 491.10 63.84 C 498.76 65.01 506.57 61.98 514.10 63.96 C 518.43 65.14 517.70 70.07 517.27 73.51 C 500.15 74.07 482.99 73.60 465.86 73.74 C 458.62 81.97 454.26 92.36 451.99 103.00 C 450.73 107.86 450.56 112.89 449.85 117.83 C 449.09 126.95 449.81 136.08 450.51 145.18 C 438.02 164.54 420.21 180.38 410.96 201.80 C 403.28 218.95 402.26 238.25 404.57 256.67 C 401.07 256.86 397.53 257.60 394.60 259.63 C 390.44 262.27 387.08 266.33 382.16 267.62 C 378.13 268.73 373.76 268.36 369.85 267.04 C 367.53 265.49 367.40 262.44 366.61 260.03 C 367.43 255.32 370.85 251.86 372.97 247.76 C 374.29 245.34 374.30 242.53 375.13 239.96 C 374.08 237.97 374.69 235.55 373.66 233.55 C 369.95 225.13 361.50 219.33 359.48 210.07 C 358.49 200.63 360.91 191.25 363.65 182.30 C 372.11 156.77 386.62 133.00 389.61 105.86 C 390.57 99.91 390.43 93.87 390.25 87.87 C 390.26 86.65 389.73 85.53 389.40 84.38 C 394.97 86.81 400.99 89.83 407.23 88.23 C 411.91 87.20 415.25 83.31 417.24 79.15 C 419.27 74.18 419.98 68.82 420.45 63.51 C 377.97 61.47 335.55 57.36 292.98 58.00 C 272.43 58.30 251.69 59.44 231.55 63.67 C 205.66 95.37 172.76 120.96 149.91 155.21 C 155.76 159.82 162.61 162.96 169.70 165.13 C 192.23 172.18 216.46 172.17 238.61 180.64 C 248.62 184.41 257.61 191.37 262.35 201.13 C 261.50 202.90 260.86 204.99 259.11 206.10 C 253.02 210.15 244.74 208.31 238.87 212.80 C 237.56 213.76 236.20 216.00 237.72 217.37 C 265.51 244.91 291.98 274.06 323.26 297.80 C 323.99 315.00 322.35 332.44 317.17 348.93 C 311.52 367.36 301.22 384.11 288.50 398.51 C 269.49 420.62 245.63 437.97 226.75 460.20 C 203.01 460.33 179.27 460.19 155.53 460.27 C 147.85 445.58 132.26 437.41 123.98 423.18 C 121.59 418.79 118.63 414.20 119.14 408.98 C 119.87 397.02 123.64 384.53 119.37 372.83 C 117.97 368.38 112.21 367.78 110.60 363.52 C 109.57 360.80 109.55 357.86 109.39 355.00 C 108.59 332.36 116.54 310.76 119.27 288.52 C 119.81 286.09 118.84 282.73 121.44 281.30 C 140.79 266.84 162.07 254.62 185.14 247.21 C 205.13 240.73 226.62 238.35 247.42 241.85 C 229.90 222.54 211.39 203.32 188.15 190.90 C 170.23 181.26 150.00 176.32 129.74 175.46 C 119.68 196.33 102.30 212.09 86.75 228.77 C 74.85 241.40 64.08 255.61 58.22 272.10 C 51.72 289.92 51.02 309.33 53.31 328.01 C 44.81 339.06 40.00 352.45 37.03 365.94 C 31.35 392.52 31.40 419.84 30.85 446.88 C 30.70 470.06 30.40 493.30 27.97 516.39 C 43.52 552.80 51.31 591.81 62.21 629.72 C 66.73 644.92 71.68 660.09 78.81 674.30 C 81.47 680.97 76.05 688.12 78.83 694.80 C 85.46 708.38 98.70 716.56 108.89 727.15 C 115.10 733.43 119.49 741.76 119.65 750.74 C 138.38 762.32 159.96 768.10 179.00 779.08 C 190.43 785.53 200.58 794.77 206.30 806.75 C 202.92 806.74 199.54 806.74 196.16 806.75 C 196.16 804.91 196.15 803.07 196.15 801.24 C 162.44 788.11 128.58 772.26 102.75 746.27 C 93.26 736.94 85.34 726.11 78.80 714.55 C 78.34 733.00 81.77 751.46 88.26 768.71 C 92.99 781.65 99.12 794.00 104.30 806.75 C 99.38 806.77 94.46 806.69 89.55 806.81 C 79.81 790.84 75.68 772.21 73.50 753.84 C 70.85 733.09 69.69 711.57 60.80 692.28 C 51.81 673.22 36.61 658.15 25.82 640.20 C 21.20 632.44 17.35 624.02 16.10 615.00 C 13.26 595.93 17.64 576.06 11.45 557.45 C 9.66 551.47 6.14 546.26 2.55 541.26 C 2.43 460.09 2.51 378.91 2.51 297.73 C 8.37 299.80 13.74 303.74 16.47 309.44 C 20.66 318.29 20.35 328.42 19.29 337.93 C 17.66 353.33 13.30 368.36 12.57 383.86 C 12.13 418.88 11.65 453.92 12.26 488.95 C 12.44 505.28 12.02 521.69 14.44 537.89 C 18.08 563.56 24.26 588.84 32.37 613.46 C 37.68 629.09 43.74 644.57 52.09 658.86 C 55.42 664.50 59.15 669.99 63.84 674.60 C 48.61 632.92 37.93 589.67 30.44 545.96 C 24.30 509.65 20.44 472.89 20.12 436.04 C 20.23 397.87 23.16 358.61 38.32 323.10 C 34.81 320.63 31.80 317.26 30.57 313.08 C 28.25 305.48 30.18 297.47 32.07 290.00 C 38.52 267.54 49.64 246.43 53.07 223.13 C 54.04 217.46 53.76 211.70 53.77 205.99 C 57.74 208.61 57.97 213.65 58.02 217.93 C 57.92 223.15 57.11 228.71 59.31 233.63 C 60.07 235.44 61.96 236.14 63.58 236.97 C 77.91 214.02 96.67 194.07 109.73 170.29 C 96.52 168.47 83.29 171.39 70.06 171.13 C 64.16 170.98 57.77 169.97 53.52 165.48 C 67.13 158.74 82.78 160.81 97.40 159.18 C 101.85 158.74 106.31 157.67 110.10 155.19 C 106.49 156.53 102.53 154.83 100.44 151.75 C 101.82 150.93 103.28 150.10 104.96 150.25 C 114.96 150.24 124.96 150.25 134.96 150.26 C 135.37 145.83 136.73 141.17 140.43 138.36 C 148.26 132.22 159.82 132.18 166.28 124.02 C 170.60 117.29 167.59 108.83 169.58 101.49 C 170.75 98.59 173.26 96.57 175.39 94.40 C 187.45 83.09 200.02 72.33 212.69 61.71 C 220.74 54.58 231.69 52.27 242.03 50.76 C 256.87 48.83 272.19 48.02 286.13 42.04 C 295.23 38.03 302.25 30.67 310.94 25.97 C 314.68 23.92 318.83 22.84 322.97 21.93 C 343.44 17.44 364.61 17.99 385.12 13.78 C 395.30 11.71 405.26 8.32 414.32 3.20 M 455.49 12.76 C 452.43 15.60 451.63 19.89 450.78 23.79 C 449.89 33.71 450.79 43.67 450.59 53.62 C 456.80 52.94 462.94 50.79 467.80 46.78 C 477.77 38.83 482.50 26.34 491.85 17.79 C 483.72 16.63 476.24 12.73 468.03 12.02 C 463.86 11.57 459.55 11.73 455.49 12.76 M 352.96 28.17 C 337.29 31.16 321.34 34.87 307.60 43.32 C 324.06 41.09 340.82 41.26 357.16 44.38 C 379.73 48.61 402.32 55.33 425.53 53.47 C 424.36 51.06 424.46 48.38 424.66 45.78 C 426.62 38.69 430.82 32.57 434.28 26.17 C 435.42 23.38 436.50 20.12 435.17 17.21 C 432.80 14.15 428.72 12.92 425.02 12.72 C 401.94 21.63 377.07 23.58 352.96 28.17 M 430.26 68.08 C 430.69 70.76 431.40 73.42 431.28 76.16 C 430.89 77.18 430.54 78.20 430.21 79.24 C 428.22 82.71 425.45 85.82 424.68 89.86 C 424.68 91.23 424.78 92.59 424.98 93.95 C 426.30 95.16 428.21 95.41 429.93 95.52 C 433.35 95.20 435.07 91.93 436.26 89.13 C 436.97 83.67 437.06 78.03 435.28 72.76 C 434.20 70.62 432.71 68.72 430.26 68.08 M 404.95 108.91 C 399.82 112.79 400.42 120.91 404.93 125.03 C 407.32 119.86 410.03 114.49 409.40 108.61 C 407.93 108.10 406.16 107.55 404.95 108.91 M 419.48 131.89 C 420.39 134.33 423.35 134.71 425.55 135.23 C 423.77 132.33 423.36 128.96 424.60 125.77 C 426.38 122.71 428.37 119.76 430.46 116.90 C 429.38 114.80 427.08 114.37 424.91 114.40 C 422.43 119.95 418.08 125.44 419.48 131.89 M 236.08 200.51 C 238.80 200.18 240.52 197.84 242.14 195.88 C 238.94 193.26 235.32 189.87 230.84 190.58 C 226.99 193.95 231.11 201.47 236.08 200.51 M 377.04 217.91 C 375.66 220.99 374.08 225.31 376.92 228.06 C 380.37 231.13 385.27 231.17 389.60 231.74 C 389.01 226.54 389.05 221.21 390.13 216.08 C 390.38 212.67 390.52 209.23 390.19 205.82 C 389.69 203.13 387.45 200.97 384.69 200.70 C 383.04 206.82 379.81 212.27 377.04 217.91 M 169.50 264.41 C 150.01 273.34 133.00 288.82 124.61 308.80 C 118.49 322.88 117.34 338.68 119.49 353.76 C 125.96 352.67 132.49 352.02 139.04 351.57 C 144.35 351.04 150.00 350.66 154.65 347.78 C 160.91 343.81 163.62 336.39 165.32 329.53 C 166.39 325.84 164.50 321.39 160.72 320.19 C 152.14 317.11 142.52 320.49 134.07 316.84 C 130.66 315.35 129.65 311.47 129.70 308.07 C 143.26 307.96 156.83 307.95 170.40 308.08 C 170.34 310.69 170.29 313.38 171.27 315.86 C 173.03 321.16 177.70 324.83 179.62 330.05 C 180.74 332.83 180.93 335.97 180.37 338.90 C 177.28 347.50 170.15 354.03 162.21 358.21 C 152.03 363.52 140.72 366.02 129.66 368.81 C 127.70 386.03 127.93 404.70 137.02 420.04 C 143.86 431.83 156.18 439.39 169.07 442.96 C 187.78 448.16 207.48 447.31 226.61 445.44 C 247.03 420.02 273.15 399.57 291.53 372.45 C 302.34 356.77 309.57 338.78 313.14 320.10 C 313.20 318.70 313.24 317.31 313.26 315.93 C 312.94 315.45 312.28 314.49 311.95 314.02 C 307.62 313.89 304.15 316.85 300.21 318.16 C 296.20 319.83 291.70 319.78 287.75 318.01 C 286.40 302.22 279.99 286.59 268.71 275.30 C 258.35 264.80 244.36 258.44 229.95 255.94 C 209.56 252.46 188.24 255.80 169.50 264.41 M 292.35 292.64 C 292.11 295.88 291.54 299.54 293.67 302.32 C 297.02 306.99 303.43 309.83 309.05 308.00 C 311.37 307.23 312.56 305.02 313.55 302.97 C 309.07 301.25 307.82 296.36 304.97 293.03 C 301.53 289.68 296.31 291.11 292.35 292.64 M 709.80 303.45 C 709.25 309.83 709.83 316.34 712.53 322.23 C 715.58 328.89 717.20 336.37 715.50 343.63 C 721.51 346.30 725.31 352.08 728.19 357.75 C 732.53 366.79 735.22 376.49 737.94 386.11 C 739.10 390.05 740.14 394.03 741.59 397.88 C 742.64 400.54 743.67 403.48 746.35 404.96 C 745.39 386.22 741.85 367.56 735.20 349.99 C 729.22 333.49 720.40 318.24 711.24 303.34 C 710.88 303.37 710.16 303.43 709.80 303.45 Z" />
<path fill="#ffffff" opacity="1.00" d=" M 455.49 12.76 C 459.55 11.73 463.86 11.57 468.03 12.02 C 476.24 12.73 483.72 16.63 491.85 17.79 C 482.50 26.34 477.77 38.83 467.80 46.78 C 462.94 50.79 456.80 52.94 450.59 53.62 C 450.79 43.67 449.89 33.71 450.78 23.79 C 451.63 19.89 452.43 15.60 455.49 12.76 Z" />
<path fill="#ffffff" opacity="1.00" d=" M 352.96 28.17 C 377.07 23.58 401.94 21.63 425.02 12.72 C 428.72 12.92 432.80 14.15 435.17 17.21 C 436.50 20.12 435.42 23.38 434.28 26.17 C 430.82 32.57 426.62 38.69 424.66 45.78 C 424.46 48.38 424.36 51.06 425.53 53.47 C 402.32 55.33 379.73 48.61 357.16 44.38 C 340.82 41.26 324.06 41.09 307.60 43.32 C 321.34 34.87 337.29 31.16 352.96 28.17 Z" />
<path fill="#ed1c24" opacity="1.00" d=" M 827.57 52.48 C 838.17 52.55 848.78 52.43 859.39 52.55 C 859.36 55.34 859.37 58.14 859.39 60.93 C 852.54 61.12 845.68 60.85 838.83 61.11 C 838.77 63.84 838.82 66.57 839.12 69.29 C 845.35 69.20 851.59 69.27 857.82 69.24 C 857.83 72.08 857.83 74.92 857.82 77.76 C 851.59 77.72 845.37 77.81 839.14 77.70 C 838.51 84.04 839.01 90.41 838.83 96.77 C 835.08 96.74 831.34 96.74 827.60 96.80 C 827.52 82.03 827.58 67.26 827.57 52.48 Z" />
<path fill="#ed1c24" opacity="1.00" d=" M 867.38 52.48 C 877.97 52.57 888.57 52.38 899.16 52.58 C 899.13 55.33 899.14 58.08 899.20 60.83 C 892.42 61.20 885.63 60.91 878.86 61.00 C 878.85 63.76 878.85 66.51 878.86 69.26 C 885.12 69.24 891.37 69.23 897.64 69.27 C 897.62 72.09 897.62 74.91 897.64 77.73 C 891.37 77.77 885.12 77.76 878.86 77.74 C 878.84 84.08 878.87 90.42 878.84 96.76 C 875.02 96.75 871.19 96.75 867.38 96.77 C 867.36 82.01 867.36 67.24 867.38 52.48 Z" />
<path fill="#ed1c24" opacity="1.00" d=" M 787.71 52.47 C 798.33 52.53 808.94 52.48 819.56 52.50 C 819.57 55.32 819.57 58.13 819.60 60.95 C 812.85 61.05 806.10 60.98 799.35 61.00 C 799.34 63.75 799.34 66.50 799.35 69.26 C 805.50 69.24 811.66 69.26 817.82 69.23 C 817.83 72.08 817.83 74.92 817.82 77.77 C 811.67 77.74 805.51 77.77 799.36 77.74 C 799.34 84.05 799.32 90.36 799.37 96.66 C 795.49 96.79 791.60 96.74 787.73 96.80 C 787.68 82.02 787.71 67.25 787.71 52.47 Z" />
<path fill="#ed1c24" opacity="1.00" d=" M 907.15 52.50 C 917.74 52.49 928.32 52.49 938.91 52.50 C 938.89 55.33 938.89 58.16 938.90 61.00 C 932.15 61.01 925.39 60.99 918.64 61.00 C 918.63 63.75 918.63 66.51 918.65 69.26 C 924.90 69.26 931.17 69.20 937.43 69.29 C 937.40 72.10 937.40 74.90 937.43 77.70 C 931.17 77.80 924.90 77.74 918.65 77.74 C 918.64 84.07 918.64 90.40 918.65 96.73 C 914.82 96.76 910.99 96.76 907.17 96.76 C 907.14 82.01 907.17 67.26 907.15 52.50 Z" />
<path fill="#ed1c24" opacity="1.00" d=" M 946.88 52.48 C 957.48 52.54 968.09 52.44 978.70 52.53 C 978.67 55.35 978.67 58.16 978.69 60.98 C 971.94 61.03 965.18 60.99 958.43 61.00 C 958.42 63.75 958.42 66.50 958.43 69.25 C 964.68 69.27 970.94 69.18 977.20 69.31 C 977.18 72.10 977.18 74.90 977.20 77.69 C 970.95 77.81 964.70 77.75 958.45 77.74 C 958.39 84.06 958.43 90.39 958.43 96.72 C 954.57 96.76 950.72 96.75 946.88 96.78 C 946.86 82.01 946.87 67.24 946.88 52.48 Z" />
<path fill="#ed1c24" opacity="1.00" d=" M 986.44 96.76 C 986.44 82.00 986.41 67.24 986.45 52.48 C 997.04 52.53 1007.62 52.46 1018.21 52.52 C 1018.20 55.33 1018.20 58.15 1018.21 60.96 C 1011.45 61.04 1004.70 60.98 997.95 61.00 C 997.94 63.75 997.93 66.50 997.95 69.25 C 1004.20 69.24 1010.45 69.24 1016.71 69.26 C 1016.70 72.09 1016.70 74.92 1016.71 77.75 C 1010.45 77.76 1004.20 77.76 997.95 77.75 C 997.93 84.08 997.95 90.42 997.93 96.76 C 994.10 96.75 990.26 96.75 986.44 96.76 Z" />
<path fill="#ed1c24" opacity="1.00" d=" M 1026.20 52.50 C 1036.80 52.49 1047.39 52.49 1057.98 52.50 C 1057.97 55.33 1057.98 58.16 1057.99 61.00 C 1051.23 61.01 1044.47 60.99 1037.72 61.00 C 1037.70 63.75 1037.70 66.50 1037.72 69.25 C 1043.97 69.25 1050.23 69.22 1056.49 69.27 C 1056.48 72.09 1056.47 74.91 1056.49 77.73 C 1050.23 77.78 1043.97 77.75 1037.72 77.75 C 1037.71 84.08 1037.71 90.41 1037.72 96.74 C 1033.88 96.76 1030.04 96.76 1026.22 96.75 C 1026.20 82.00 1026.22 67.25 1026.20 52.50 Z" />
<path fill="#ffffff" opacity="1.00" d=" M 430.26 68.08 C 432.71 68.72 434.20 70.62 435.28 72.76 C 437.06 78.03 436.97 83.67 436.26 89.13 C 435.07 91.93 433.35 95.20 429.93 95.52 C 428.21 95.41 426.30 95.16 424.98 93.95 C 424.78 92.59 424.68 91.23 424.68 89.86 C 425.45 85.82 428.22 82.71 430.21 79.24 C 430.54 78.20 430.89 77.18 431.28 76.16 C 431.40 73.42 430.69 70.76 430.26 68.08 Z" />
<path fill="#ffffff" opacity="1.00" d=" M 404.95 108.91 C 406.16 107.55 407.93 108.10 409.40 108.61 C 410.03 114.49 407.32 119.86 404.93 125.03 C 400.42 120.91 399.82 112.79 404.95 108.91 Z" />
<path fill="#ffffff" opacity="1.00" d=" M 419.48 131.89 C 418.08 125.44 422.43 119.95 424.91 114.40 C 427.08 114.37 429.38 114.80 430.46 116.90 C 428.37 119.76 426.38 122.71 424.60 125.77 C 423.36 128.96 423.77 132.33 425.55 135.23 C 423.35 134.71 420.39 134.33 419.48 131.89 Z" />
<path fill="#000000" opacity="1.00" d=" M 500.65 131.65 C 504.52 129.91 508.80 129.37 513.00 129.09 C 524.24 128.52 535.48 130.05 546.45 132.38 C 552.94 133.93 559.50 135.49 565.55 138.36 C 569.51 140.21 572.07 143.94 574.32 147.54 C 581.95 159.91 587.79 173.54 597.50 184.52 C 602.27 189.96 609.96 190.59 616.13 193.66 C 618.62 194.87 620.19 197.27 621.67 199.53 C 625.32 205.03 628.16 211.01 630.81 217.05 C 632.15 220.06 633.55 223.05 634.87 226.07 C 635.12 226.57 635.63 227.57 635.88 228.06 C 639.68 236.03 645.16 244.67 654.44 246.66 C 654.95 247.81 655.45 248.97 655.96 250.13 C 660.27 262.31 662.99 275.04 664.14 287.89 C 665.00 299.97 664.35 312.19 661.67 324.02 C 657.37 343.33 646.62 361.98 629.38 372.40 C 623.10 375.92 616.39 379.49 609.02 379.64 C 580.61 381.86 551.57 380.71 524.09 372.64 C 503.45 366.61 483.96 356.46 467.51 342.57 C 452.27 329.98 439.71 314.42 429.08 297.82 C 425.96 292.65 422.51 287.63 420.04 282.12 C 419.21 275.11 419.48 267.94 419.86 260.89 C 421.17 245.35 425.37 229.85 433.63 216.50 C 446.47 195.19 466.91 180.30 485.84 164.80 C 487.80 163.01 490.31 161.63 491.47 159.14 C 489.98 153.51 487.16 147.99 487.34 142.05 C 487.22 138.20 491.14 136.25 494.29 135.29 C 496.72 134.66 498.41 132.66 500.65 131.65 M 531.77 139.83 C 531.82 142.80 531.88 145.78 531.82 148.76 C 531.97 150.58 531.17 152.77 532.64 154.25 C 530.03 156.17 526.84 156.89 523.90 158.13 C 504.67 165.65 486.36 176.05 471.23 190.21 C 459.78 200.87 450.48 213.80 443.68 227.87 C 436.48 243.60 431.75 260.57 430.32 277.81 C 440.91 291.19 454.69 302.27 462.18 317.92 C 463.54 321.25 464.98 324.58 465.76 328.11 C 481.91 341.73 501.08 351.75 521.48 357.25 C 551.52 365.24 583.01 365.60 613.84 363.83 C 629.38 354.37 640.51 339.49 654.67 328.29 C 654.21 322.86 653.77 317.42 652.90 312.05 C 651.87 303.29 650.14 294.61 647.95 286.08 C 645.87 277.57 643.11 269.24 639.89 261.10 C 639.23 259.43 638.56 257.77 637.87 256.12 C 629.86 237.61 619.08 220.33 606.07 204.93 C 585.74 180.52 560.68 160.65 535.21 141.87 C 534.13 141.08 532.95 140.43 531.77 139.83 Z" />
<path fill="#ed1c24" opacity="1.00" d=" M 787.71 133.73 C 798.33 133.77 808.95 133.73 819.57 133.75 C 819.57 136.58 819.57 139.41 819.57 142.25 C 812.82 142.27 806.07 142.23 799.32 142.26 C 799.33 145.01 799.34 147.76 799.36 150.52 C 805.51 150.48 811.66 150.51 817.82 150.48 C 817.83 153.32 817.83 156.15 817.84 158.99 C 811.67 159.01 805.50 158.98 799.34 159.01 C 799.36 165.31 799.31 171.61 799.37 177.91 C 795.48 178.03 791.59 178.02 787.70 177.98 C 787.71 163.23 787.69 148.48 787.71 133.73 Z" />
<path fill="#ed1c24" opacity="1.00" d=" M 827.60 178.01 C 827.53 163.25 827.57 148.49 827.58 133.73 C 838.18 133.78 848.78 133.72 859.37 133.77 C 859.37 136.59 859.37 139.41 859.37 142.24 C 852.65 142.36 845.93 142.06 839.22 142.37 C 838.35 144.85 839.03 147.79 838.85 150.44 C 845.17 150.56 851.49 150.48 857.82 150.48 C 857.83 153.32 857.83 156.15 857.84 158.99 C 851.46 159.26 845.01 158.47 838.68 159.42 C 839.14 165.56 838.47 171.73 839.17 177.86 C 835.31 178.06 831.45 178.00 827.60 178.01 Z" />
<path fill="#ed1c24" opacity="1.00" d=" M 867.36 177.99 C 867.39 163.24 867.33 148.48 867.39 133.73 C 877.88 133.74 888.38 133.79 898.88 133.70 C 899.25 136.57 899.34 139.48 898.78 142.33 C 892.13 142.15 885.49 142.34 878.85 142.20 C 878.85 144.98 878.85 147.75 878.86 150.53 C 885.11 150.47 891.37 150.50 897.62 150.51 C 897.62 153.32 897.62 156.14 897.65 158.96 C 891.38 159.04 885.12 158.98 878.86 159.00 C 878.85 165.33 878.85 171.66 878.86 177.99 C 875.02 178.00 871.19 178.01 867.36 177.99 Z" />
<path fill="#ed1c24" opacity="1.00" d=" M 907.16 133.75 C 917.74 133.74 928.32 133.75 938.90 133.75 C 938.90 136.58 938.89 139.42 938.90 142.25 C 932.15 142.23 925.40 142.29 918.66 142.21 C 918.63 144.98 918.63 147.75 918.65 150.52 C 924.90 150.49 931.16 150.46 937.42 150.54 C 937.40 153.34 937.41 156.15 937.42 158.96 C 931.16 159.04 924.90 158.98 918.64 159.00 C 918.64 165.32 918.62 171.64 918.66 177.96 C 914.82 178.01 910.98 178.01 907.15 177.99 C 907.16 163.24 907.16 148.50 907.16 133.75 Z" />
<path fill="#ed1c24" opacity="1.00" d=" M 946.87 133.74 C 957.47 133.76 968.07 133.74 978.67 133.75 C 978.67 136.58 978.67 139.42 978.67 142.25 C 971.92 142.25 965.17 142.27 958.42 142.23 C 958.42 144.99 958.42 147.75 958.43 150.51 C 964.68 150.50 970.93 150.47 977.19 150.52 C 977.18 153.33 977.18 156.14 977.19 158.94 C 970.93 159.06 964.67 158.96 958.42 159.01 C 958.43 165.33 958.41 171.64 958.44 177.96 C 954.58 178.01 950.72 178.01 946.87 177.98 C 946.87 163.24 946.86 148.49 946.87 133.74 Z" />
<path fill="#ed1c24" opacity="1.00" d=" M 986.42 177.99 C 986.45 163.24 986.40 148.49 986.45 133.74 C 997.03 133.77 1007.62 133.73 1018.21 133.76 C 1018.20 136.59 1018.20 139.41 1018.21 142.24 C 1011.45 142.25 1004.70 142.27 997.95 142.23 C 997.94 144.99 997.93 147.75 997.94 150.51 C 1004.19 150.48 1010.44 150.51 1016.69 150.49 C 1016.70 153.32 1016.70 156.16 1016.71 158.99 C 1010.45 159.01 1004.20 158.99 997.95 159.00 C 997.94 165.33 997.94 171.66 997.95 177.99 C 994.10 178.00 990.26 178.01 986.42 177.99 Z" />
<path fill="#ed1c24" opacity="1.00" d=" M 1026.21 133.75 C 1036.80 133.74 1047.39 133.75 1057.98 133.75 C 1057.98 136.58 1057.98 139.42 1057.98 142.25 C 1051.20 142.29 1044.43 142.16 1037.66 142.33 C 1037.70 145.05 1037.72 147.77 1037.73 150.50 C 1043.98 150.50 1050.23 150.48 1056.49 150.51 C 1056.48 153.34 1056.48 156.16 1056.49 158.99 C 1050.23 159.01 1043.97 158.99 1037.72 159.00 C 1037.71 165.33 1037.71 171.66 1037.72 177.99 C 1033.88 178.01 1030.04 178.00 1026.20 177.99 C 1026.21 163.24 1026.21 148.50 1026.21 133.75 Z" />
<path fill="#ffffff" opacity="1.00" d=" M 531.77 139.83 C 532.95 140.43 534.13 141.08 535.21 141.87 C 560.68 160.65 585.74 180.52 606.07 204.93 C 619.08 220.33 629.86 237.61 637.87 256.12 C 638.56 257.77 639.23 259.43 639.89 261.10 C 643.11 269.24 645.87 277.57 647.95 286.08 C 650.14 294.61 651.87 303.29 652.90 312.05 C 653.77 317.42 654.21 322.86 654.67 328.29 C 640.51 339.49 629.38 354.37 613.84 363.83 C 583.01 365.60 551.52 365.24 521.48 357.25 C 501.08 351.75 481.91 341.73 465.76 328.11 C 464.98 324.58 463.54 321.25 462.18 317.92 C 454.69 302.27 440.91 291.19 430.32 277.81 C 431.75 260.57 436.48 243.60 443.68 227.87 C 450.48 213.80 459.78 200.87 471.23 190.21 C 486.36 176.05 504.67 165.65 523.90 158.13 C 526.84 156.89 530.03 156.17 532.64 154.25 C 531.17 152.77 531.97 150.58 531.82 148.76 C 531.88 145.78 531.82 142.80 531.77 139.83 M 542.36 185.45 C 542.32 202.52 542.37 219.60 542.34 236.67 C 560.00 237.66 576.24 246.76 594.02 246.75 C 601.23 246.85 608.41 242.95 611.33 236.19 C 612.51 232.91 613.69 229.57 613.78 226.04 C 605.05 224.75 596.62 228.21 588.11 229.53 C 578.01 231.39 566.37 232.70 557.53 226.34 C 555.36 224.39 552.32 222.37 552.33 219.13 C 552.11 213.78 552.15 208.33 553.16 203.07 C 553.57 198.74 553.83 194.33 553.01 190.04 C 551.61 185.46 546.50 184.52 542.36 185.45 Z" />
<path fill="#000000" opacity="1.00" d=" M 542.36 185.45 C 546.50 184.52 551.61 185.46 553.01 190.04 C 553.83 194.33 553.57 198.74 553.16 203.07 C 552.15 208.33 552.11 213.78 552.33 219.13 C 552.32 222.37 555.36 224.39 557.53 226.34 C 566.37 232.70 578.01 231.39 588.11 229.53 C 596.62 228.21 605.05 224.75 613.78 226.04 C 613.69 229.57 612.51 232.91 611.33 236.19 C 608.41 242.95 601.23 246.85 594.02 246.75 C 576.24 246.76 560.00 237.66 542.34 236.67 C 542.37 219.60 542.32 202.52 542.36 185.45 Z" />
<path fill="#ffffff" opacity="1.00" d=" M 236.08 200.51 C 231.11 201.47 226.99 193.95 230.84 190.58 C 235.32 189.87 238.94 193.26 242.14 195.88 C 240.52 197.84 238.80 200.18 236.08 200.51 Z" />
<path fill="#ffffff" opacity="1.00" d=" M 377.04 217.91 C 379.81 212.27 383.04 206.82 384.69 200.70 C 387.45 200.97 389.69 203.13 390.19 205.82 C 390.52 209.23 390.38 212.67 390.13 216.08 C 389.05 221.21 389.01 226.54 389.60 231.74 C 385.27 231.17 380.37 231.13 376.92 228.06 C 374.08 225.31 375.66 220.99 377.04 217.91 Z" />
<path fill="#ed1c24" opacity="1.00" d=" M 808.75 215.20 C 819.37 215.33 829.99 215.17 840.61 215.29 C 840.59 218.12 840.59 220.95 840.53 223.79 C 833.81 223.71 827.08 223.78 820.36 223.74 C 820.34 226.49 820.34 229.25 820.36 232.00 C 826.63 232.09 832.91 231.78 839.17 232.21 C 839.12 234.95 839.11 237.69 839.13 240.43 C 832.88 240.57 826.62 240.50 820.38 240.47 C 820.33 246.80 820.35 253.12 820.37 259.45 C 816.48 259.52 812.60 259.50 808.73 259.53 C 808.74 244.75 808.70 229.97 808.75 215.20 Z" />
<path fill="#ed1c24" opacity="1.00" d=" M 848.60 215.20 C 859.20 215.35 869.80 215.14 880.40 215.31 C 880.37 218.10 880.37 220.89 880.40 223.69 C 873.66 223.82 866.93 223.73 860.19 223.75 C 860.10 226.46 859.92 229.17 859.79 231.88 C 866.14 232.13 872.50 231.94 878.86 232.01 C 878.85 234.83 878.85 237.66 878.86 240.50 C 872.64 240.51 866.42 240.51 860.20 240.49 C 859.36 246.84 860.65 253.23 859.80 259.56 C 856.06 259.48 852.32 259.49 848.58 259.52 C 848.60 244.74 848.55 229.97 848.60 215.20 Z" />
<path fill="#ed1c24" opacity="1.00" d=" M 888.17 215.24 C 898.74 215.25 909.31 215.25 919.88 215.24 C 919.89 218.08 919.89 220.92 919.88 223.76 C 913.13 223.75 906.38 223.76 899.63 223.74 C 899.62 226.49 899.62 229.24 899.63 232.00 C 905.89 232.02 912.15 231.95 918.41 232.05 C 918.39 234.86 918.39 237.67 918.40 240.47 C 912.14 240.53 905.88 240.50 899.62 240.49 C 899.62 246.83 899.64 253.16 899.61 259.50 C 895.69 259.51 891.77 259.53 887.86 259.44 C 888.56 244.72 887.84 229.97 888.17 215.24 Z" />
<path fill="#ed1c24" opacity="1.00" d=" M 927.86 215.21 C 938.46 215.30 949.07 215.21 959.67 215.26 C 959.66 218.09 959.66 220.91 959.67 223.73 C 952.92 223.77 946.17 223.75 939.42 223.75 C 939.41 226.49 939.40 229.24 939.41 231.99 C 945.66 232.04 951.92 231.93 958.19 232.06 C 958.17 234.86 958.17 237.66 958.18 240.47 C 951.92 240.53 945.67 240.50 939.42 240.49 C 939.40 246.82 939.41 253.15 939.41 259.48 C 935.56 259.51 931.70 259.50 927.86 259.52 C 927.85 244.75 927.84 229.98 927.86 215.21 Z" />
<path fill="#ed1c24" opacity="1.00" d=" M 967.68 215.21 C 978.27 215.31 988.87 215.18 999.46 215.28 C 999.44 218.09 999.44 220.90 999.46 223.72 C 992.70 223.79 985.94 223.73 979.19 223.76 C 979.18 226.50 979.18 229.24 979.18 231.99 C 985.43 232.01 991.69 231.99 997.95 232.00 C 997.94 234.83 997.94 237.66 997.95 240.50 C 991.70 240.51 985.45 240.51 979.20 240.49 C 979.18 246.80 979.16 253.11 979.22 259.42 C 975.36 259.54 971.51 259.50 967.66 259.51 C 967.67 244.74 967.63 229.98 967.68 215.21 Z" />
<path fill="#ed1c24" opacity="1.00" d=" M 1007.45 215.24 C 1018.04 215.27 1028.63 215.20 1039.23 215.28 C 1039.22 218.09 1039.21 220.90 1039.23 223.72 C 1032.47 223.79 1025.71 223.74 1018.96 223.75 C 1018.95 226.49 1018.95 229.24 1018.96 232.00 C 1025.21 232.01 1031.46 231.98 1037.72 232.01 C 1037.71 234.84 1037.71 237.67 1037.71 240.51 C 1031.45 240.49 1025.20 240.52 1018.96 240.49 C 1018.95 246.83 1018.97 253.17 1018.95 259.51 C 1015.11 259.50 1011.28 259.50 1007.46 259.51 C 1007.43 244.75 1007.45 230.00 1007.45 215.24 Z" />
<path fill="#ffffff" opacity="1.00" d=" M 169.50 264.41 C 188.24 255.80 209.56 252.46 229.95 255.94 C 244.36 258.44 258.35 264.80 268.71 275.30 C 279.99 286.59 286.40 302.22 287.75 318.01 C 291.70 319.78 296.20 319.83 300.21 318.16 C 304.15 316.85 307.62 313.89 311.95 314.02 C 312.28 314.49 312.94 315.45 313.26 315.93 C 313.24 317.31 313.20 318.70 313.14 320.10 C 309.57 338.78 302.34 356.77 291.53 372.45 C 273.15 399.57 247.03 420.02 226.61 445.44 C 207.48 447.31 187.78 448.16 169.07 442.96 C 156.18 439.39 143.86 431.83 137.02 420.04 C 127.93 404.70 127.70 386.03 129.66 368.81 C 140.72 366.02 152.03 363.52 162.21 358.21 C 170.15 354.03 177.28 347.50 180.37 338.90 C 180.93 335.97 180.74 332.83 179.62 330.05 C 177.70 324.83 173.03 321.16 171.27 315.86 C 170.29 313.38 170.34 310.69 170.40 308.08 C 156.83 307.95 143.26 307.96 129.70 308.07 C 129.65 311.47 130.66 315.35 134.07 316.84 C 142.52 320.49 152.14 317.11 160.72 320.19 C 164.50 321.39 166.39 325.84 165.32 329.53 C 163.62 336.39 160.91 343.81 154.65 347.78 C 150.00 350.66 144.35 351.04 139.04 351.57 C 132.49 352.02 125.96 352.67 119.49 353.76 C 117.34 338.68 118.49 322.88 124.61 308.80 C 133.00 288.82 150.01 273.34 169.50 264.41 Z" />
<path fill="#ffffff" opacity="1.00" d=" M 292.35 292.64 C 296.31 291.11 301.53 289.68 304.97 293.03 C 307.82 296.36 309.07 301.25 313.55 302.97 C 312.56 305.02 311.37 307.23 309.05 308.00 C 303.43 309.83 297.02 306.99 293.67 302.32 C 291.54 299.54 292.11 295.88 292.35 292.64 Z" />
<path fill="#ed1c24" opacity="1.00" d=" M 871.36 340.99 C 871.40 326.23 871.30 311.47 871.41 296.72 C 881.98 296.80 892.56 296.70 903.13 296.77 C 903.20 299.62 903.28 302.50 902.79 305.33 C 896.14 305.14 889.49 305.34 882.85 305.20 C 882.85 307.98 882.85 310.75 882.86 313.53 C 889.11 313.47 895.37 313.50 901.62 313.51 C 901.62 316.32 901.62 319.14 901.65 321.96 C 895.38 322.04 889.12 321.98 882.86 322.00 C 882.85 328.33 882.85 334.66 882.86 340.99 C 879.02 341.00 875.19 341.00 871.36 340.99 Z" />
<path fill="#ed1c24" opacity="1.00" d=" M 911.16 296.75 C 921.74 296.74 932.32 296.75 942.90 296.75 C 942.89 299.58 942.89 302.41 942.90 305.25 C 936.15 305.24 929.40 305.29 922.66 305.21 C 922.64 307.98 922.63 310.74 922.65 313.52 C 928.90 313.49 935.16 313.46 941.42 313.53 C 941.40 316.34 941.41 319.15 941.42 321.96 C 935.16 322.04 928.90 321.98 922.65 322.00 C 922.65 328.32 922.62 334.64 922.66 340.96 C 918.82 341.01 914.99 341.01 911.16 340.99 C 911.17 326.24 911.16 311.50 911.16 296.75 Z" />
<path fill="#ed1c24" opacity="1.00" d=" M 950.87 296.74 C 961.47 296.76 972.07 296.74 982.68 296.75 C 982.68 299.58 982.68 302.41 982.68 305.25 C 975.92 305.25 969.17 305.26 962.43 305.24 C 962.42 307.99 962.42 310.75 962.44 313.51 C 968.68 313.50 974.93 313.47 981.19 313.53 C 981.18 316.33 981.18 319.14 981.20 321.95 C 974.96 322.03 968.73 322.04 962.50 321.94 C 962.34 328.28 962.46 334.62 962.44 340.97 C 958.58 341.01 954.72 341.01 950.87 340.98 C 950.87 326.24 950.86 311.49 950.87 296.74 Z" />
<path fill="#ed1c24" opacity="1.00" d=" M 989.91 296.74 C 993.75 296.75 997.59 296.75 1001.44 296.75 C 1001.47 306.18 1001.42 315.61 1001.46 325.03 C 1001.44 328.19 1002.49 332.08 1005.84 333.19 C 1008.88 334.12 1012.56 334.14 1015.24 332.22 C 1017.71 330.27 1017.94 326.87 1017.95 323.97 C 1017.93 314.90 1017.93 305.82 1017.94 296.74 C 1021.77 296.75 1025.61 296.75 1029.46 296.75 C 1029.46 306.18 1029.46 315.60 1029.47 325.03 C 1029.53 329.86 1027.91 335.00 1023.96 338.04 C 1018.85 341.91 1012.04 342.37 1005.87 341.83 C 1000.65 341.39 995.13 339.25 992.32 334.58 C 989.95 330.85 989.80 326.29 989.89 322.02 C 989.93 313.59 989.89 305.17 989.91 296.74 Z" />
<path fill="#ed1c24" opacity="1.00" d=" M 1039.45 325.02 C 1039.47 315.60 1039.45 306.17 1039.47 296.74 C 1043.30 296.75 1047.13 296.75 1050.97 296.75 C 1050.98 305.83 1050.98 314.91 1050.96 323.99 C 1050.95 326.73 1051.24 329.78 1053.22 331.88 C 1055.92 334.18 1059.94 334.18 1063.17 333.13 C 1066.49 332.00 1067.49 328.16 1067.48 325.02 C 1067.51 315.60 1067.45 306.17 1067.49 296.74 C 1071.32 296.75 1075.15 296.75 1078.99 296.75 C 1078.99 306.14 1078.99 315.54 1079.00 324.94 C 1079.01 329.20 1077.92 333.72 1074.82 336.82 C 1070.78 341.00 1064.63 342.03 1059.07 342.03 C 1053.71 341.98 1047.87 341.01 1043.90 337.11 C 1040.63 334.02 1039.42 329.39 1039.45 325.02 Z" />
<path fill="#ffffff" opacity="1.00" d=" M 709.80 303.45 C 710.16 303.43 710.88 303.37 711.24 303.34 C 720.40 318.24 729.22 333.49 735.20 349.99 C 741.85 367.56 745.39 386.22 746.35 404.96 C 743.67 403.48 742.64 400.54 741.59 397.88 C 740.14 394.03 739.10 390.05 737.94 386.11 C 735.22 376.49 732.53 366.79 728.19 357.75 C 725.31 352.08 721.51 346.30 715.50 343.63 C 717.20 336.37 715.58 328.89 712.53 322.23 C 709.83 316.34 709.25 309.83 709.80 303.45 Z" />
<path fill="#000000" opacity="1.00" d=" M 388.84 354.38 C 416.19 350.20 444.12 354.23 470.56 361.64 C 505.47 371.82 538.81 387.86 568.00 409.59 C 570.13 409.44 572.38 409.34 574.28 408.24 C 578.82 405.58 581.08 399.99 586.23 398.23 C 591.85 396.60 597.43 399.09 602.83 400.44 C 618.29 404.81 631.64 414.93 641.37 427.56 C 660.52 451.98 669.50 482.92 690.26 506.21 C 690.14 522.49 690.58 538.76 690.46 555.05 C 690.37 561.33 690.73 567.68 689.88 573.93 C 689.51 585.40 688.39 597.00 685.09 608.03 C 673.18 619.35 655.96 622.80 639.99 622.51 C 621.56 622.87 602.59 618.86 584.60 624.51 C 569.14 629.82 555.45 639.07 542.09 648.28 C 525.67 659.72 510.00 672.21 493.39 683.36 C 475.15 694.98 458.03 708.27 439.51 719.45 C 423.01 729.36 405.18 737.58 386.16 741.14 C 379.80 742.80 376.50 748.97 372.94 753.92 C 370.22 757.22 366.78 761.42 362.00 760.71 C 334.57 758.58 307.05 756.77 279.93 751.99 C 257.82 747.96 235.48 742.17 216.23 730.18 C 233.34 692.03 246.63 652.27 258.06 612.09 C 270.77 566.71 281.04 520.59 287.61 473.91 C 289.79 459.52 291.82 444.88 297.59 431.39 C 304.99 413.88 317.74 399.44 330.20 385.37 C 345.19 368.39 366.58 357.76 388.84 354.38 M 358.78 379.02 C 371.86 388.80 378.87 404.34 391.37 414.69 C 399.33 421.64 409.91 424.91 420.37 425.08 C 420.37 404.61 420.37 384.13 420.36 363.66 C 413.91 363.11 407.41 362.75 400.95 363.38 C 385.73 364.37 371.18 370.31 358.78 379.02 M 434.77 377.12 C 437.03 392.59 454.75 402.19 469.28 398.16 C 475.14 396.47 480.17 391.45 480.99 385.28 C 481.37 385.30 482.13 385.35 482.51 385.37 C 484.69 388.79 486.50 392.78 486.02 396.93 C 485.24 405.08 478.93 412.72 470.89 414.51 C 458.28 414.08 448.07 404.72 435.42 404.33 C 434.55 414.14 437.07 424.29 434.01 433.83 C 431.71 440.44 423.68 440.68 417.85 440.73 C 411.31 440.51 407.99 434.19 402.99 431.04 C 398.97 428.39 393.88 428.78 389.41 429.80 C 390.44 434.45 390.38 439.23 391.16 443.91 C 391.17 452.90 390.31 462.53 385.12 470.20 C 381.23 476.26 374.12 479.66 367.03 479.92 C 356.77 480.23 347.04 475.88 338.56 470.44 C 338.57 477.93 336.34 485.48 332.01 491.62 C 327.53 497.70 320.85 502.94 312.99 503.03 C 307.28 503.34 302.20 500.16 298.16 496.44 C 302.79 495.89 307.53 495.05 311.55 492.53 C 320.68 487.06 325.36 476.84 333.86 470.62 C 327.55 468.89 321.04 467.17 315.65 463.29 C 311.41 460.23 308.71 455.28 308.20 450.10 C 310.68 449.29 313.39 448.45 315.99 449.34 C 320.12 450.54 322.92 454.29 327.12 455.30 C 327.89 453.74 328.37 452.08 328.66 450.38 C 318.91 449.11 317.82 435.56 307.89 434.94 C 297.55 467.18 291.65 500.60 286.20 533.95 C 278.55 579.41 272.57 625.55 257.29 669.27 C 250.93 687.20 242.74 704.66 231.46 720.06 C 235.93 729.08 245.56 733.93 255.00 736.00 C 277.09 740.82 299.97 737.89 322.19 741.74 C 329.88 743.17 337.70 745.56 343.78 750.70 C 365.94 738.08 390.17 729.84 413.40 719.51 C 428.46 712.83 443.21 705.11 456.07 694.72 C 447.62 689.82 441.20 682.34 435.28 674.74 C 428.53 666.09 420.79 657.22 410.00 653.75 C 395.44 655.44 383.02 665.38 376.05 677.97 C 365.42 696.25 361.17 717.65 348.93 735.08 C 334.33 724.31 320.84 712.12 307.98 699.34 C 304.11 699.75 300.22 700.57 296.83 702.59 C 285.73 708.49 279.11 720.06 268.20 726.19 C 263.22 729.09 256.95 728.33 252.33 725.08 C 259.30 717.49 265.71 709.28 273.80 702.80 C 282.09 695.89 292.32 691.32 303.05 690.00 C 308.01 689.21 313.04 689.62 318.03 689.43 C 324.67 694.15 327.61 702.08 332.86 708.04 C 336.82 712.78 343.03 715.32 349.17 714.99 C 349.79 705.48 352.01 696.10 355.15 687.12 C 360.20 672.77 369.90 659.74 383.40 652.40 C 399.18 643.73 417.82 642.41 435.44 643.77 C 435.27 644.56 434.92 646.13 434.75 646.92 C 434.81 650.74 435.13 654.76 436.99 658.20 C 439.88 663.59 445.50 666.56 450.69 669.36 C 450.15 662.57 449.60 655.49 452.12 649.01 C 454.04 643.86 456.81 639.10 459.20 634.18 C 460.54 630.91 461.39 627.49 462.19 624.06 C 462.49 620.69 462.49 617.30 462.17 613.94 C 461.61 611.98 461.41 609.93 461.21 607.92 C 474.88 597.86 492.12 592.18 509.14 593.39 C 518.41 594.16 528.15 599.03 531.87 607.99 C 532.18 607.83 532.80 607.52 533.11 607.37 C 537.59 600.63 539.75 592.78 542.23 585.18 C 542.37 584.59 542.67 583.42 542.81 582.83 C 543.57 580.59 544.39 578.38 545.19 576.16 C 546.68 572.28 548.54 568.51 551.23 565.32 C 555.19 560.18 561.65 557.76 567.94 557.20 C 567.38 555.73 566.78 554.29 566.22 552.84 C 557.44 533.98 541.33 518.84 522.00 511.17 C 504.62 523.78 489.21 539.13 476.49 556.42 C 474.14 558.16 470.76 557.82 467.96 558.29 C 459.31 559.23 451.13 555.56 444.03 551.02 C 441.12 549.50 438.30 547.38 434.99 547.01 C 428.83 548.65 423.15 552.24 419.07 557.15 C 409.45 568.91 406.52 584.21 400.81 597.94 C 396.70 608.30 390.30 618.93 379.41 623.15 C 381.03 608.88 385.15 594.98 390.71 581.77 C 395.79 570.24 402.06 559.00 410.97 549.97 C 418.11 542.76 427.60 537.10 437.99 536.97 C 448.26 536.63 457.94 541.29 466.03 547.26 C 477.76 535.55 486.38 520.74 500.11 511.09 C 510.68 503.49 524.04 500.56 536.91 501.34 C 547.88 507.11 556.11 516.85 563.44 526.64 C 574.07 541.14 583.61 557.05 598.45 567.75 C 598.43 562.78 598.24 557.81 598.78 552.86 C 599.98 546.62 602.73 539.80 608.87 537.00 C 631.47 531.90 657.90 542.58 667.97 564.04 C 669.32 567.27 669.91 570.72 670.31 574.18 C 670.02 575.25 669.74 576.32 669.45 577.40 C 666.15 576.80 662.94 575.73 660.10 573.94 C 650.09 567.72 645.90 555.39 635.66 549.43 C 629.01 545.52 620.95 545.65 613.56 546.78 C 614.69 558.99 613.02 571.17 609.94 582.97 C 609.64 584.63 609.39 586.32 608.93 587.95 C 608.57 590.34 608.38 592.75 608.12 595.15 C 607.46 599.66 607.39 604.36 608.11 608.86 C 608.25 610.33 608.39 611.83 608.52 613.32 C 625.47 615.80 644.32 616.02 659.10 606.10 C 671.49 597.87 677.57 583.30 680.22 569.17 C 681.16 563.45 681.80 557.70 681.86 551.91 C 682.52 546.36 682.53 540.62 681.86 535.08 C 681.65 530.33 681.61 525.58 681.17 520.85 C 680.19 517.74 681.11 514.17 679.85 511.25 C 670.28 502.75 663.14 491.94 657.23 480.69 C 647.87 463.34 640.49 444.53 627.18 429.67 C 617.32 418.30 603.07 411.21 588.18 409.40 C 588.24 412.16 588.21 415.34 590.45 417.35 C 596.38 422.41 605.35 420.63 611.33 425.61 C 614.05 427.94 613.79 431.67 613.65 434.91 C 592.47 432.76 572.04 425.67 553.28 415.75 C 532.24 404.92 512.70 391.24 490.88 381.91 C 473.46 374.25 454.66 369.78 435.65 368.75 C 434.23 371.30 434.67 374.33 434.77 377.12 M 343.59 383.94 C 332.99 392.29 325.89 405.39 326.19 419.04 C 325.71 431.85 331.26 444.70 340.75 453.29 C 349.66 461.87 362.17 465.50 374.30 465.90 C 375.45 463.39 376.31 460.77 377.12 458.15 C 377.42 456.50 377.73 454.85 378.16 453.24 C 379.59 441.77 377.49 430.07 372.68 419.59 C 366.12 405.59 356.14 393.02 343.59 383.94 M 568.35 571.35 C 561.19 575.77 556.94 583.37 553.68 590.88 C 552.06 594.88 550.48 598.89 548.81 602.88 C 544.95 612.82 539.33 623.46 528.85 627.62 C 524.61 629.72 520.23 625.97 518.62 622.18 C 517.71 618.74 516.83 615.30 516.21 611.80 C 515.12 608.37 513.77 604.25 510.01 602.95 C 504.52 601.13 498.72 603.43 493.73 605.71 C 483.88 610.42 477.77 620.20 474.15 630.14 C 472.91 633.38 471.92 636.71 471.08 640.08 C 469.66 644.91 468.99 649.92 467.82 654.81 C 467.17 658.48 466.67 662.18 465.84 665.82 C 465.08 670.64 464.10 675.42 463.14 680.21 C 462.43 682.88 461.78 685.56 461.21 688.27 C 460.95 688.58 460.45 689.19 460.19 689.49 C 464.83 688.75 468.96 686.27 473.20 684.39 C 500.36 671.16 521.07 648.45 546.28 632.26 C 560.60 622.94 576.67 616.23 593.52 613.21 C 593.83 604.77 594.02 596.29 593.19 587.87 C 592.42 583.93 592.04 579.91 590.95 576.03 C 590.22 573.04 589.35 570.10 588.36 567.20 C 581.51 566.93 574.25 567.52 568.35 571.35 Z" />
<path fill="#ffffff" opacity="1.00" d=" M 358.78 379.02 C 371.18 370.31 385.73 364.37 400.95 363.38 C 407.41 362.75 413.91 363.11 420.36 363.66 C 420.37 384.13 420.37 404.61 420.37 425.08 C 409.91 424.91 399.33 421.64 391.37 414.69 C 378.87 404.34 371.86 388.80 358.78 379.02 Z" />
<path fill="#ffffff" opacity="1.00" d=" M 434.77 377.12 C 434.67 374.33 434.23 371.30 435.65 368.75 C 454.66 369.78 473.46 374.25 490.88 381.91 C 512.70 391.24 532.24 404.92 553.28 415.75 C 572.04 425.67 592.47 432.76 613.65 434.91 C 613.79 431.67 614.05 427.94 611.33 425.61 C 605.35 420.63 596.38 422.41 590.45 417.35 C 588.21 415.34 588.24 412.16 588.18 409.40 C 603.07 411.21 617.32 418.30 627.18 429.67 C 640.49 444.53 647.87 463.34 657.23 480.69 C 663.14 491.94 670.28 502.75 679.85 511.25 C 681.11 514.17 680.19 517.74 681.17 520.85 C 681.61 525.58 681.65 530.33 681.86 535.08 C 682.53 540.62 682.52 546.36 681.86 551.91 C 681.80 557.70 681.16 563.45 680.22 569.17 C 677.57 583.30 671.49 597.87 659.10 606.10 C 644.32 616.02 625.47 615.80 608.52 613.32 C 608.39 611.83 608.25 610.33 608.11 608.86 C 607.39 604.36 607.46 599.66 608.12 595.15 C 608.38 592.75 608.57 590.34 608.93 587.95 C 609.39 586.32 609.64 584.63 609.94 582.97 C 613.02 571.17 614.69 558.99 613.56 546.78 C 620.95 545.65 629.01 545.52 635.66 549.43 C 645.90 555.39 650.09 567.72 660.10 573.94 C 662.94 575.73 666.15 576.80 669.45 577.40 C 669.74 576.32 670.02 575.25 670.31 574.18 C 669.91 570.72 669.32 567.27 667.97 564.04 C 657.90 542.58 631.47 531.90 608.87 537.00 C 602.73 539.80 599.98 546.62 598.78 552.86 C 598.24 557.81 598.43 562.78 598.45 567.75 C 583.61 557.05 574.07 541.14 563.44 526.64 C 556.11 516.85 547.88 507.11 536.91 501.34 C 524.04 500.56 510.68 503.49 500.11 511.09 C 486.38 520.74 477.76 535.55 466.03 547.26 C 457.94 541.29 448.26 536.63 437.99 536.97 C 427.60 537.10 418.11 542.76 410.97 549.97 C 402.06 559.00 395.79 570.24 390.71 581.77 C 385.15 594.98 381.03 608.88 379.41 623.15 C 390.30 618.93 396.70 608.30 400.81 597.94 C 406.52 584.21 409.45 568.91 419.07 557.15 C 423.15 552.24 428.83 548.65 434.99 547.01 C 438.30 547.38 441.12 549.50 444.03 551.02 C 451.13 555.56 459.31 559.23 467.96 558.29 C 470.76 557.82 474.14 558.16 476.49 556.42 C 489.21 539.13 504.62 523.78 522.00 511.17 C 541.33 518.84 557.44 533.98 566.22 552.84 C 566.78 554.29 567.38 555.73 567.94 557.20 C 561.65 557.76 555.19 560.18 551.23 565.32 C 548.54 568.51 546.68 572.28 545.19 576.16 C 544.39 578.38 543.57 580.59 542.81 582.83 C 542.67 583.42 542.37 584.59 542.23 585.18 C 539.75 592.78 537.59 600.63 533.11 607.37 C 532.80 607.52 532.18 607.83 531.87 607.99 C 528.15 599.03 518.41 594.16 509.14 593.39 C 492.12 592.18 474.88 597.86 461.21 607.92 C 461.41 609.93 461.61 611.98 462.17 613.94 C 462.49 617.30 462.49 620.69 462.19 624.06 C 461.39 627.49 460.54 630.91 459.20 634.18 C 456.81 639.10 454.04 643.86 452.12 649.01 C 449.60 655.49 450.15 662.57 450.69 669.36 C 445.50 666.56 439.88 663.59 436.99 658.20 C 435.13 654.76 434.81 650.74 434.75 646.92 C 434.92 646.13 435.27 644.56 435.44 643.77 C 417.82 642.41 399.18 643.73 383.40 652.40 C 369.90 659.74 360.20 672.77 355.15 687.12 C 352.01 696.10 349.79 705.48 349.17 714.99 C 343.03 715.32 336.82 712.78 332.86 708.04 C 327.61 702.08 324.67 694.15 318.03 689.43 C 313.04 689.62 308.01 689.21 303.05 690.00 C 292.32 691.32 282.09 695.89 273.80 702.80 C 265.71 709.28 259.30 717.49 252.33 725.08 C 256.95 728.33 263.22 729.09 268.20 726.19 C 279.11 720.06 285.73 708.49 296.83 702.59 C 300.22 700.57 304.11 699.75 307.98 699.34 C 320.84 712.12 334.33 724.31 348.93 735.08 C 361.17 717.65 365.42 696.25 376.05 677.97 C 383.02 665.38 395.44 655.44 410.00 653.75 C 420.79 657.22 428.53 666.09 435.28 674.74 C 441.20 682.34 447.62 689.82 456.07 694.72 C 443.21 705.11 428.46 712.83 413.40 719.51 C 390.17 729.84 365.94 738.08 343.78 750.70 C 337.70 745.56 329.88 743.17 322.19 741.74 C 299.97 737.89 277.09 740.82 255.00 736.00 C 245.56 733.93 235.93 729.08 231.46 720.06 C 242.74 704.66 250.93 687.20 257.29 669.27 C 272.57 625.55 278.55 579.41 286.20 533.95 C 291.65 500.60 297.55 467.18 307.89 434.94 C 317.82 435.56 318.91 449.11 328.66 450.38 C 328.37 452.08 327.89 453.74 327.12 455.30 C 322.92 454.29 320.12 450.54 315.99 449.34 C 313.39 448.45 310.68 449.29 308.20 450.10 C 308.71 455.28 311.41 460.23 315.65 463.29 C 321.04 467.17 327.55 468.89 333.86 470.62 C 325.36 476.84 320.68 487.06 311.55 492.53 C 307.53 495.05 302.79 495.89 298.16 496.44 C 302.20 500.16 307.28 503.34 312.99 503.03 C 320.85 502.94 327.53 497.70 332.01 491.62 C 336.34 485.48 338.57 477.93 338.56 470.44 C 347.04 475.88 356.77 480.23 367.03 479.92 C 374.12 479.66 381.23 476.26 385.12 470.20 C 390.31 462.53 391.17 452.90 391.16 443.91 C 390.38 439.23 390.44 434.45 389.41 429.80 C 393.88 428.78 398.97 428.39 402.99 431.04 C 407.99 434.19 411.31 440.51 417.85 440.73 C 423.68 440.68 431.71 440.44 434.01 433.83 C 437.07 424.29 434.55 414.14 435.42 404.33 C 448.07 404.72 458.28 414.08 470.89 414.51 C 478.93 412.72 485.24 405.08 486.02 396.93 C 486.50 392.78 484.69 388.79 482.51 385.37 C 482.13 385.35 481.37 385.30 480.99 385.28 C 480.17 391.45 475.14 396.47 469.28 398.16 C 454.75 402.19 437.03 392.59 434.77 377.12 Z" />
<path fill="#ed1c24" opacity="1.00" d=" M 870.60 378.01 C 874.45 377.98 878.30 377.95 882.16 378.11 C 882.13 387.43 882.13 396.75 882.14 406.07 C 882.13 409.25 882.99 413.30 886.44 414.44 C 889.37 415.33 892.89 415.38 895.57 413.69 C 898.03 411.99 898.61 408.76 898.62 405.97 C 898.62 396.65 898.60 387.33 898.61 378.01 C 902.46 377.99 906.32 377.96 910.17 378.09 C 910.12 387.73 910.21 397.37 910.14 407.01 C 910.06 411.65 908.32 416.53 904.50 419.38 C 900.37 422.44 895.06 423.30 890.04 423.28 C 885.09 423.22 879.81 422.38 875.88 419.16 C 872.26 416.25 870.55 411.48 870.60 406.93 C 870.58 397.29 870.60 387.65 870.60 378.01 Z" />
<path fill="#ed1c24" opacity="1.00" d=" M 920.16 378.01 C 923.99 377.99 927.83 377.99 931.67 378.03 C 931.64 387.35 931.65 396.67 931.65 405.99 C 931.62 409.11 932.47 412.97 935.69 414.29 C 938.99 415.51 943.21 415.43 945.98 413.02 C 947.97 410.88 948.18 407.79 948.19 405.03 C 948.16 396.02 948.18 387.01 948.17 378.01 C 952.00 377.99 955.84 377.99 959.68 378.03 C 959.63 387.72 959.70 397.41 959.65 407.11 C 959.64 412.14 957.39 417.29 953.07 420.05 C 947.71 423.39 941.04 423.69 934.95 422.94 C 929.99 422.37 924.88 420.06 922.35 415.57 C 920.41 412.43 920.09 408.66 920.15 405.06 C 920.17 396.04 920.16 387.03 920.16 378.01 Z" />
<path fill="#ed1c24" opacity="1.00" d=" M 969.89 378.01 C 973.73 377.99 977.59 377.99 981.45 378.03 C 981.42 387.03 981.46 396.02 981.42 405.02 C 981.40 407.87 981.63 411.10 983.78 413.24 C 988.31 416.83 997.43 415.25 997.75 408.49 C 998.15 398.35 997.79 388.17 997.92 378.01 C 1001.76 377.99 1005.61 377.99 1009.46 378.02 C 1009.45 387.35 1009.45 396.68 1009.47 406.01 C 1009.49 410.37 1008.40 415.02 1005.17 418.16 C 1001.00 422.39 994.68 423.31 989.00 423.28 C 983.42 423.19 977.28 421.94 973.51 417.47 C 970.02 413.54 969.71 407.98 969.87 402.99 C 969.90 394.66 969.87 386.34 969.89 378.01 Z" />
<path fill="#ed1c24" opacity="1.00" d=" M 1019.45 378.01 C 1023.28 377.99 1027.12 377.99 1030.97 378.00 C 1030.98 387.33 1030.94 396.66 1030.97 405.99 C 1031.00 408.85 1031.55 412.26 1034.22 413.89 C 1038.76 416.42 1046.61 415.07 1047.20 408.97 C 1047.83 398.68 1047.29 388.33 1047.47 378.01 C 1051.30 377.99 1055.14 378.00 1058.98 378.00 C 1058.98 387.35 1058.98 396.70 1059.00 406.05 C 1059.06 410.74 1057.68 415.76 1053.96 418.87 C 1049.32 422.83 1042.85 423.49 1036.99 423.22 C 1031.72 422.94 1026.04 421.39 1022.67 417.04 C 1020.22 413.94 1019.39 409.90 1019.44 406.03 C 1019.45 396.69 1019.46 387.35 1019.45 378.01 Z" />
<path fill="#ffffff" opacity="1.00" d=" M 343.59 383.94 C 356.14 393.02 366.12 405.59 372.68 419.59 C 377.49 430.07 379.59 441.77 378.16 453.24 C 377.73 454.85 377.42 456.50 377.12 458.15 C 376.31 460.77 375.45 463.39 374.30 465.90 C 362.17 465.50 349.66 461.87 340.75 453.29 C 331.26 444.70 325.71 431.85 326.19 419.04 C 325.89 405.39 332.99 392.29 343.59 383.94 Z" />
<path fill="#ed1c24" opacity="1.00" d=" M 990.68 459.49 C 994.52 459.49 998.37 459.47 1002.21 459.56 C 1002.18 468.71 1002.20 477.87 1002.19 487.02 C 1002.18 489.83 1002.57 493.10 1004.90 495.01 C 1007.71 496.95 1011.58 496.91 1014.70 495.75 C 1017.70 494.55 1018.67 491.01 1018.67 488.06 C 1018.73 478.54 1018.67 469.02 1018.69 459.50 C 1022.53 459.49 1026.37 459.48 1030.22 459.52 C 1030.20 469.02 1030.23 478.52 1030.22 488.02 C 1030.23 492.51 1028.80 497.25 1025.31 500.26 C 1021.17 503.93 1015.36 504.79 1010.04 504.78 C 1004.53 504.72 998.50 503.57 994.60 499.37 C 991.77 496.34 990.69 492.10 990.68 488.05 C 990.67 478.53 990.68 469.01 990.68 459.49 Z" />
<path fill="#ed1c24" opacity="1.00" d=" M 1040.47 459.49 C 1044.29 459.50 1048.13 459.50 1051.96 459.49 C 1052.02 469.02 1051.91 478.55 1052.00 488.09 C 1052.05 491.04 1053.01 494.67 1056.09 495.82 C 1059.22 496.93 1063.10 496.91 1065.89 494.91 C 1068.15 492.97 1068.49 489.77 1068.49 486.99 C 1068.48 477.82 1068.47 468.66 1068.49 459.50 C 1072.31 459.49 1076.14 459.50 1079.98 459.49 C 1079.99 469.01 1080.00 478.53 1079.99 488.04 C 1079.98 492.23 1078.80 496.65 1075.73 499.67 C 1071.93 503.51 1066.28 504.65 1061.07 504.77 C 1055.69 504.83 1049.83 504.11 1045.59 500.49 C 1041.92 497.49 1040.43 492.62 1040.46 488.03 C 1040.46 478.52 1040.46 469.00 1040.47 459.49 Z" />
<path fill="#ed1c24" opacity="1.00" d=" M 891.62 459.48 C 895.46 459.49 899.31 459.48 903.16 459.54 C 903.15 468.72 903.15 477.89 903.15 487.07 C 903.13 490.10 903.60 493.82 906.52 495.48 C 909.32 496.91 912.85 496.86 915.74 495.68 C 918.66 494.44 919.61 490.97 919.61 488.07 C 919.67 478.54 919.60 469.01 919.64 459.48 C 923.48 459.49 927.32 459.48 931.17 459.54 C 931.13 469.35 931.24 479.17 931.13 488.98 C 931.12 494.91 927.59 500.76 921.96 502.91 C 915.58 505.36 908.32 505.37 901.82 503.38 C 896.00 501.60 891.87 495.95 891.68 489.91 C 891.50 479.77 891.66 469.62 891.62 459.48 Z" />
<path fill="#ed1c24" opacity="1.00" d=" M 941.17 459.50 C 944.99 459.49 948.81 459.50 952.65 459.49 C 952.68 468.67 952.65 477.84 952.65 487.02 C 952.69 489.74 953.00 492.85 955.09 494.83 C 959.67 498.29 968.64 496.70 968.98 490.00 C 969.46 479.85 969.05 469.67 969.18 459.50 C 973.00 459.49 976.83 459.50 980.67 459.49 C 980.67 469.32 980.72 479.15 980.66 488.98 C 980.61 494.54 977.61 500.19 972.40 502.50 C 966.11 505.37 958.74 505.34 952.14 503.64 C 945.93 502.04 941.34 496.18 941.24 489.77 C 941.06 479.68 941.23 469.59 941.17 459.50 Z" />
<path fill="#ed1c24" opacity="1.00" d=" M 870.60 541.01 C 874.47 540.98 878.34 540.95 882.22 541.11 C 881.53 547.74 882.38 554.39 882.15 561.04 C 882.39 565.98 880.98 571.58 884.08 575.92 C 886.70 578.45 890.88 578.42 894.17 577.42 C 897.60 576.25 898.69 572.28 898.62 569.02 C 898.62 559.68 898.60 550.34 898.61 541.01 C 902.46 540.98 906.32 540.96 910.17 541.09 C 910.12 550.73 910.21 560.37 910.14 570.00 C 910.09 575.15 907.84 580.60 903.22 583.25 C 897.76 586.43 891.11 586.71 884.99 585.89 C 879.87 585.22 874.63 582.54 872.35 577.70 C 870.59 574.42 870.51 570.62 870.58 566.99 C 870.62 558.33 870.58 549.67 870.60 541.01 Z" />
<path fill="#ed1c24" opacity="1.00" d=" M 920.16 541.01 C 923.99 540.99 927.83 540.99 931.67 541.03 C 931.64 550.34 931.65 559.65 931.65 568.97 C 931.66 571.85 932.27 575.32 934.98 576.92 C 939.52 579.44 947.28 578.00 947.90 571.95 C 948.55 561.67 948.00 551.32 948.17 541.01 C 952.00 540.99 955.84 540.99 959.68 541.03 C 959.63 550.69 959.70 560.34 959.66 570.00 C 959.67 575.09 957.41 580.32 953.01 583.09 C 947.65 586.40 940.99 586.69 934.90 585.93 C 929.92 585.36 924.79 583.00 922.29 578.46 C 920.38 575.32 920.09 571.55 920.15 567.97 C 920.17 558.98 920.16 550.00 920.16 541.01 Z" />
<path fill="#ed1c24" opacity="1.00" d=" M 969.89 541.01 C 973.73 540.99 977.59 540.99 981.45 541.03 C 981.43 550.36 981.43 559.69 981.43 569.02 C 981.46 572.01 982.11 575.69 985.12 577.13 C 989.63 579.30 997.00 577.90 997.65 572.08 C 998.27 561.75 997.74 551.36 997.92 541.01 C 1001.76 540.99 1005.61 540.99 1009.46 541.02 C 1009.39 551.00 1009.56 560.98 1009.39 570.95 C 1009.28 576.90 1005.51 582.63 999.83 584.61 C 993.29 586.88 985.88 586.90 979.35 584.59 C 973.78 582.56 970.14 576.94 969.97 571.10 C 969.76 561.08 969.95 551.04 969.89 541.01 Z" />
<path fill="#ed1c24" opacity="1.00" d=" M 1019.45 541.01 C 1023.28 540.99 1027.12 540.99 1030.97 541.00 C 1030.98 550.34 1030.94 559.67 1030.97 569.01 C 1031.01 571.86 1031.55 575.23 1034.19 576.87 C 1038.71 579.42 1046.59 578.09 1047.20 571.99 C 1047.83 561.69 1047.30 551.34 1047.46 541.02 C 1051.30 540.99 1055.14 540.99 1058.99 541.01 C 1058.92 551.02 1059.10 561.04 1058.91 571.06 C 1058.75 576.60 1055.50 582.04 1050.30 584.21 C 1043.72 586.96 1036.06 586.89 1029.32 584.75 C 1023.47 582.82 1019.56 576.97 1019.50 570.89 C 1019.37 560.93 1019.50 550.97 1019.45 541.01 Z" />
<path fill="#ffffff" opacity="1.00" d=" M 568.35 571.35 C 574.25 567.52 581.51 566.93 588.36 567.20 C 589.35 570.10 590.22 573.04 590.95 576.03 C 592.04 579.91 592.42 583.93 593.19 587.87 C 594.02 596.29 593.83 604.77 593.52 613.21 C 576.67 616.23 560.60 622.94 546.28 632.26 C 521.07 648.45 500.36 671.16 473.20 684.39 C 468.96 686.27 464.83 688.75 460.19 689.49 C 460.45 689.19 460.95 688.58 461.21 688.27 C 461.78 685.56 462.43 682.88 463.14 680.21 C 464.10 675.42 465.08 670.64 465.84 665.82 C 466.67 662.18 467.17 658.48 467.82 654.81 C 468.99 649.92 469.66 644.91 471.08 640.08 C 471.92 636.71 472.91 633.38 474.15 630.14 C 477.77 620.20 483.88 610.42 493.73 605.71 C 498.72 603.43 504.52 601.13 510.01 602.95 C 513.77 604.25 515.12 608.37 516.21 611.80 C 516.83 615.30 517.71 618.74 518.62 622.18 C 520.23 625.97 524.61 629.72 528.85 627.62 C 539.33 623.46 544.95 612.82 548.81 602.88 C 550.48 598.89 552.06 594.88 553.68 590.88 C 556.94 583.37 561.19 575.77 568.35 571.35 Z" />
<path fill="#ed1c24" opacity="1.00" d=" M 891.64 622.20 C 895.45 622.26 899.25 622.25 903.07 622.25 C 903.27 631.51 903.09 640.77 903.15 650.03 C 903.16 652.84 903.60 656.13 906.04 657.94 C 910.59 660.81 918.76 659.38 919.40 653.12 C 919.97 642.84 919.44 632.51 919.65 622.21 C 923.48 622.25 927.32 622.23 931.17 622.30 C 931.17 631.55 931.15 640.80 931.19 650.05 C 931.26 654.58 930.04 659.46 926.63 662.65 C 922.74 666.37 917.13 667.42 911.95 667.53 C 907.07 667.55 901.90 666.93 897.79 664.11 C 893.59 661.25 891.53 656.00 891.61 651.04 C 891.62 641.42 891.57 631.81 891.64 622.20 Z" />
<path fill="#ed1c24" opacity="1.00" d=" M 941.18 622.24 C 945.01 622.24 948.83 622.24 952.67 622.27 C 952.82 632.54 952.34 642.85 952.90 653.10 C 953.41 659.35 961.40 660.76 965.99 658.05 C 968.67 656.36 969.14 652.91 969.19 650.01 C 969.20 640.75 969.16 631.49 969.20 622.24 C 973.02 622.24 976.85 622.24 980.69 622.26 C 980.66 631.85 980.70 641.45 980.68 651.05 C 980.68 655.62 979.03 660.37 975.41 663.33 C 971.11 666.82 965.31 667.60 959.95 667.52 C 955.03 667.36 949.75 666.44 946.00 663.01 C 942.61 660.06 941.14 655.47 941.18 651.08 C 941.15 641.47 941.17 631.85 941.18 622.24 Z" />
<path fill="#ed1c24" opacity="1.00" d=" M 990.70 622.23 C 994.54 622.25 998.40 622.18 1002.26 622.37 C 1002.12 631.24 1002.24 640.12 1002.18 648.99 C 1002.16 652.09 1002.37 655.84 1005.06 657.89 C 1009.59 660.80 1017.88 659.44 1018.45 653.13 C 1019.04 642.85 1018.50 632.52 1018.71 622.22 C 1022.54 622.25 1026.37 622.24 1030.21 622.27 C 1030.18 632.17 1030.28 642.07 1030.18 651.98 C 1030.09 657.93 1026.45 663.79 1020.73 665.80 C 1014.18 668.16 1006.72 668.14 1000.16 665.85 C 994.44 663.85 990.80 657.98 990.72 652.04 C 990.62 642.10 990.70 632.16 990.70 622.23 Z" />
<path fill="#ed1c24" opacity="1.00" d=" M 1040.46 622.25 C 1044.29 622.24 1048.12 622.24 1051.97 622.24 C 1052.00 631.52 1051.95 640.79 1051.98 650.06 C 1051.98 653.08 1052.58 656.80 1055.57 658.32 C 1058.51 659.65 1062.16 659.66 1065.07 658.21 C 1067.92 656.59 1068.49 653.00 1068.49 650.01 C 1068.48 640.76 1068.48 631.50 1068.48 622.25 C 1072.31 622.24 1076.14 622.24 1079.98 622.24 C 1080.01 631.49 1079.97 640.73 1080.01 649.98 C 1080.09 654.52 1078.94 659.38 1075.54 662.61 C 1071.72 666.33 1066.15 667.40 1061.01 667.53 C 1055.66 667.59 1049.90 666.82 1045.65 663.31 C 1042.02 660.38 1040.49 655.60 1040.47 651.07 C 1040.44 641.46 1040.48 631.85 1040.46 622.25 Z" />
<path fill="#ed1c24" opacity="1.00" d=" M 870.60 703.73 C 874.35 703.75 878.11 703.76 881.86 703.70 C 882.46 709.79 881.99 715.92 882.16 722.04 C 882.29 727.43 880.85 733.39 883.80 738.30 C 886.28 741.18 890.74 741.22 894.13 740.17 C 897.53 739.10 898.65 735.27 898.61 732.06 C 898.63 722.62 898.59 713.18 898.62 703.74 C 902.46 703.74 906.31 703.74 910.16 703.77 C 910.16 712.83 910.15 721.90 910.17 730.97 C 910.17 735.10 909.60 739.58 906.79 742.83 C 903.06 747.51 896.74 748.93 891.03 749.02 C 885.40 749.07 879.13 748.25 874.98 744.05 C 871.95 741.22 870.61 736.99 870.61 732.93 C 870.57 723.20 870.60 713.46 870.60 703.73 Z" />
<path fill="#ed1c24" opacity="1.00" d=" M 920.16 703.75 C 923.99 703.74 927.82 703.74 931.66 703.76 C 931.76 713.83 931.42 723.93 931.81 733.99 C 931.86 740.94 941.27 742.76 945.80 738.87 C 947.94 736.88 948.14 733.75 948.19 731.02 C 948.17 721.93 948.18 712.84 948.18 703.75 C 951.98 703.75 955.80 703.75 959.62 703.72 C 959.73 713.15 959.64 722.59 959.67 732.02 C 959.70 736.42 958.45 741.10 955.11 744.17 C 951.11 747.99 945.31 748.98 939.97 749.03 C 934.84 749.01 929.33 748.19 925.26 744.79 C 921.82 741.95 920.21 737.40 920.19 733.03 C 920.11 723.27 920.19 713.51 920.16 703.75 Z" />
<path fill="#ed1c24" opacity="1.00" d=" M 969.89 703.74 C 973.73 703.75 977.58 703.74 981.43 703.75 C 981.45 713.19 981.41 722.62 981.44 732.06 C 981.48 734.96 982.24 738.44 985.08 739.87 C 989.65 742.07 997.09 740.63 997.68 734.70 C 998.24 724.40 997.75 714.06 997.92 703.74 C 1001.76 703.75 1005.60 703.74 1009.45 703.75 C 1009.46 713.18 1009.45 722.60 1009.46 732.03 C 1009.44 736.14 1008.42 740.47 1005.54 743.56 C 1001.88 747.53 996.24 748.80 991.05 749.00 C 985.56 749.13 979.56 748.49 975.17 744.88 C 971.36 741.81 969.85 736.75 969.88 732.02 C 969.88 722.59 969.88 713.17 969.89 703.74 Z" />
<path fill="#ed1c24" opacity="1.00" d=" M 1019.45 732.04 C 1019.45 722.61 1019.44 713.17 1019.46 703.74 C 1023.29 703.75 1027.13 703.74 1030.97 703.75 C 1030.97 712.84 1030.97 721.92 1030.95 731.01 C 1030.94 733.73 1031.24 736.75 1033.18 738.86 C 1037.75 742.73 1047.24 740.96 1047.32 733.95 C 1047.69 723.89 1047.35 713.81 1047.48 703.74 C 1051.31 703.75 1055.14 703.74 1058.98 703.75 C 1058.98 713.16 1058.98 722.58 1058.99 731.99 C 1059.02 736.48 1057.72 741.26 1054.26 744.34 C 1050.20 748.11 1044.36 749.02 1039.02 749.03 C 1033.66 748.97 1027.80 748.00 1023.84 744.07 C 1020.62 740.98 1019.38 736.39 1019.45 732.04 Z" />
<path fill="#ed1c24" opacity="1.00" d=" M 1067.23 724.01 C 1074.82 723.99 1082.41 724.00 1090.00 724.00 C 1089.99 726.75 1089.99 729.49 1090.00 732.25 C 1082.40 732.25 1074.82 732.26 1067.23 732.24 C 1067.23 729.49 1067.23 726.75 1067.23 724.01 Z" />
</svg>
