<?xml version="1.0" encoding="UTF-8" ?>
<!DOCTYPE svg PUBLIC "-//W3C//DTD SVG 1.1//EN" "http://www.w3.org/Graphics/SVG/1.1/DTD/svg11.dtd">
<svg width="1043pt" height="1073pt" viewBox="0 0 1043 1073" version="1.1" xmlns="http://www.w3.org/2000/svg">
<path fill="#ffffff" opacity="1.00" d=" M 0.00 0.00 L 1043.00 0.00 L 1043.00 791.11 C 1038.39 785.98 1037.11 777.95 1030.61 774.66 C 1028.64 777.94 1028.05 781.74 1027.43 785.47 C 1021.90 765.75 1018.82 745.41 1017.83 724.97 C 1015.29 673.29 1020.98 621.68 1020.50 570.00 C 1020.59 538.38 1018.33 506.49 1010.45 475.78 C 1008.62 468.83 1006.67 461.87 1003.67 455.33 C 997.56 441.65 988.01 429.53 984.09 414.90 C 982.75 410.39 982.34 405.69 982.02 401.01 C 982.07 398.62 980.34 396.81 979.12 394.93 C 961.52 369.86 942.38 345.55 929.40 317.63 C 918.65 294.88 912.40 270.05 911.06 244.93 C 910.98 239.86 908.20 235.43 906.21 230.93 C 897.98 213.42 886.28 197.85 874.03 182.99 C 864.09 170.58 852.81 159.16 844.45 145.55 C 839.88 138.40 835.80 130.94 831.14 123.84 C 820.64 107.36 805.57 94.47 790.02 82.95 C 769.81 67.89 747.92 53.98 732.94 33.23 C 738.48 33.00 744.17 34.13 749.59 32.57 C 751.66 31.95 752.44 29.71 753.56 28.08 C 718.45 14.46 680.39 10.88 643.02 10.29 C 596.21 10.21 549.48 15.78 503.73 25.56 C 492.69 28.01 481.65 30.49 470.79 33.61 C 454.35 38.91 441.22 50.90 425.26 57.24 C 408.18 63.91 389.73 65.21 371.89 68.69 C 355.47 71.61 341.26 81.24 328.55 91.58 C 300.60 114.84 282.80 147.15 259.80 174.80 C 254.01 181.66 247.87 188.25 241.04 194.08 C 240.10 194.76 239.19 195.78 237.92 195.71 C 226.62 195.89 215.30 195.60 204.00 195.81 C 200.59 195.87 197.47 200.15 199.75 203.18 C 201.48 206.09 205.22 206.10 208.16 206.69 C 204.22 208.93 200.07 211.00 195.51 211.56 C 180.23 213.67 165.18 208.38 149.93 208.91 C 144.69 208.93 139.55 211.35 136.94 216.02 C 138.67 218.88 140.54 221.78 143.36 223.68 C 147.61 226.62 152.92 227.45 157.98 227.48 C 174.98 227.18 191.23 220.01 208.34 221.29 C 191.65 254.24 166.18 281.54 147.20 313.07 C 144.24 312.44 140.52 311.43 140.02 307.88 C 138.70 298.16 144.86 288.61 142.03 278.92 C 140.74 274.60 136.25 272.84 132.30 271.77 C 132.44 287.11 131.06 302.49 127.53 317.44 C 122.52 339.67 113.50 360.71 107.75 382.73 C 104.49 394.94 102.29 407.46 101.65 420.09 C 106.30 420.52 112.14 420.30 114.73 415.68 C 118.96 407.71 116.88 398.34 117.30 389.73 C 122.44 397.65 124.04 407.59 121.65 416.73 C 116.30 438.57 100.98 456.65 96.86 478.91 C 94.63 492.48 93.45 506.21 92.36 519.92 C 90.42 544.90 89.44 569.95 88.99 595.00 C 88.98 618.27 88.74 641.63 91.56 664.77 C 94.05 684.20 108.93 699.15 112.45 718.24 C 113.88 729.42 110.05 740.62 112.02 751.77 C 115.89 772.72 123.69 792.64 131.72 812.28 C 140.72 834.77 151.03 857.48 152.43 882.01 C 139.17 866.91 129.25 849.16 121.13 830.86 C 105.07 793.56 97.31 753.29 92.56 713.13 C 86.66 661.32 85.82 609.10 86.00 557.00 C 85.85 521.66 86.75 486.34 86.75 451.00 C 86.62 440.66 87.25 430.32 86.96 419.98 C 86.47 409.57 86.97 399.16 86.63 388.75 C 80.42 393.34 76.46 400.46 75.20 408.02 C 72.62 422.97 75.75 438.05 76.23 453.03 C 75.00 525.37 74.84 597.80 78.57 670.09 C 81.23 717.01 84.80 764.13 94.92 810.13 C 95.64 812.85 95.88 815.92 97.87 818.11 C 121.24 844.47 126.51 882.24 151.51 907.44 C 152.87 908.54 152.40 910.40 152.53 911.94 C 152.17 935.82 154.09 959.88 159.91 983.10 C 165.82 1006.26 176.27 1028.95 193.54 1045.86 C 195.20 1035.03 192.84 1024.11 189.00 1014.00 C 182.96 997.72 174.80 982.18 170.62 965.25 C 167.52 953.30 166.37 940.78 168.04 928.52 C 173.92 929.91 179.65 932.67 183.42 937.54 C 191.94 948.16 193.80 962.16 199.99 974.01 C 201.37 976.46 202.57 979.42 205.36 980.56 C 227.15 991.28 247.51 1004.61 268.79 1016.25 C 286.92 1026.26 305.87 1035.09 325.88 1040.63 C 323.81 1030.28 317.01 1021.47 308.39 1015.64 C 294.33 1006.02 277.83 1001.10 262.14 994.88 C 246.90 988.97 231.28 982.22 219.80 970.18 C 208.98 959.24 202.21 945.23 195.19 931.74 C 189.16 920.12 182.23 908.41 171.57 900.43 C 170.15 899.12 167.90 898.25 167.70 896.09 C 158.96 852.26 146.19 809.40 134.61 766.27 C 122.65 722.07 111.93 677.37 106.44 631.84 C 102.11 596.42 101.12 560.55 104.24 524.99 C 105.61 510.81 107.03 496.54 110.81 482.75 C 118.87 453.14 132.43 425.31 139.65 395.45 C 144.02 377.70 145.96 359.10 143.04 340.96 C 142.09 337.35 145.95 335.30 147.92 332.93 C 179.59 300.32 210.44 266.86 239.20 231.66 C 273.17 236.41 306.76 248.56 333.48 270.50 C 351.08 284.78 365.38 302.89 376.14 322.79 C 356.97 319.04 337.53 315.51 317.91 316.37 C 295.53 317.28 274.47 327.43 257.09 341.09 C 225.76 365.69 204.35 403.83 203.37 444.03 C 202.27 468.36 213.17 490.73 219.38 513.69 C 222.58 525.19 224.64 537.13 223.91 549.10 C 223.13 553.22 226.78 556.05 228.89 559.09 C 241.19 574.59 257.48 587.27 276.31 593.73 C 293.01 599.72 311.30 600.66 328.72 597.61 C 364.74 591.14 397.17 568.76 417.53 538.55 C 428.24 522.97 437.59 506.52 447.29 490.30 C 455.69 476.45 464.19 462.57 470.63 447.66 C 476.17 434.83 480.49 421.09 480.26 406.98 C 479.97 400.81 479.25 394.38 476.08 388.95 C 472.73 383.17 468.06 378.33 463.33 373.67 C 449.06 359.50 432.23 348.20 418.01 333.97 C 400.25 317.23 380.25 302.39 366.32 282.03 C 373.98 272.80 387.49 275.85 396.98 270.01 C 399.92 268.35 401.24 265.13 402.34 262.12 C 395.36 253.62 385.99 247.41 375.98 243.04 C 358.77 235.50 340.20 232.01 321.94 228.05 C 300.49 223.28 278.08 218.86 259.71 206.08 C 280.44 174.53 303.06 143.53 332.30 119.26 C 355.92 99.51 384.10 85.18 414.15 78.31 C 440.56 72.10 467.99 71.26 494.95 73.57 C 517.16 75.15 537.81 84.33 559.57 88.32 C 571.33 90.57 583.48 91.24 595.34 89.20 C 595.57 96.09 594.53 104.12 588.35 108.32 C 579.31 114.49 567.81 112.79 557.49 113.83 C 556.38 114.00 553.85 113.96 554.66 115.83 C 557.39 132.17 556.04 149.02 551.75 164.97 C 545.56 189.08 533.65 211.15 525.51 234.58 C 519.89 250.69 516.38 268.36 520.67 285.23 C 524.03 299.83 532.64 312.64 535.63 327.34 C 537.18 334.50 536.31 341.94 534.05 348.84 C 536.96 348.96 539.90 349.16 542.79 348.62 C 548.48 347.63 553.29 343.96 559.00 343.02 C 562.64 342.34 566.35 342.90 569.96 343.48 C 571.52 306.66 581.33 269.97 600.24 238.21 C 608.93 223.05 619.82 209.32 630.87 195.87 C 629.65 176.09 629.47 155.89 634.74 136.62 C 638.35 123.30 644.81 110.49 654.80 100.82 C 655.68 99.93 656.74 99.18 658.06 99.18 C 671.17 97.83 684.37 99.37 697.24 101.89 C 702.40 102.68 707.51 104.13 712.75 104.27 C 714.89 101.70 716.75 98.08 715.25 94.74 C 713.36 90.73 709.21 88.42 705.24 86.90 C 699.38 84.59 693.07 83.96 686.84 83.57 C 688.02 81.24 689.12 78.83 690.75 76.77 C 697.84 67.86 710.43 65.26 716.54 55.36 C 717.04 54.00 718.41 53.71 719.66 54.28 C 734.27 58.94 747.74 66.77 759.74 76.25 C 776.14 89.07 790.22 104.55 806.37 117.67 C 807.20 118.60 808.98 119.33 808.57 120.87 C 807.74 127.96 809.13 135.19 812.41 141.52 C 819.83 155.89 833.16 166.38 839.62 181.35 C 847.65 199.80 845.95 220.80 853.59 239.38 C 859.52 253.12 867.40 265.91 875.53 278.44 C 893.80 306.12 913.90 332.88 927.67 363.23 C 933.96 376.66 938.13 390.92 943.13 404.85 C 960.89 455.25 980.01 505.35 992.36 557.44 C 1000.93 593.02 1006.23 629.43 1007.18 666.03 C 1007.22 676.07 1007.69 686.16 1006.36 696.14 C 1004.67 710.07 1001.61 723.94 1002.28 738.05 C 1003.24 759.30 1009.37 779.85 1011.89 800.90 C 1013.82 815.98 1013.66 831.54 1009.41 846.24 C 1001.88 872.94 988.36 897.36 977.76 922.87 C 973.62 932.31 970.58 942.17 966.68 951.70 C 958.62 972.00 948.93 991.82 944.03 1013.22 C 941.40 1023.97 940.66 1035.05 941.00 1046.09 C 952.31 1034.19 961.12 1020.16 968.49 1005.56 C 979.25 984.54 987.35 962.33 996.57 940.62 C 1013.94 900.23 1027.28 858.27 1043.00 817.24 L 1043.00 1073.00 L 0.00 1073.00 L 0.00 0.00 M 681.50 185.60 C 680.56 189.79 680.01 194.57 682.72 198.26 C 685.21 201.86 688.01 206.06 686.75 210.68 C 682.32 214.66 677.18 217.80 672.55 221.55 C 654.75 235.20 637.52 249.88 623.29 267.31 C 612.00 281.03 602.69 296.62 597.62 313.73 C 592.65 330.22 591.99 347.91 595.34 364.78 C 596.78 370.86 600.37 376.11 603.81 381.21 C 609.81 389.82 616.43 398.00 622.08 406.86 C 643.12 438.49 673.46 464.07 708.85 478.15 C 749.52 494.72 794.67 496.83 837.82 491.33 C 841.18 490.79 843.76 488.29 846.61 486.61 C 862.00 476.43 876.82 464.90 888.31 450.33 C 896.99 439.40 903.52 426.59 906.04 412.79 C 909.02 396.24 906.59 378.98 900.51 363.40 C 896.57 358.69 889.22 358.49 885.40 353.58 C 882.45 345.11 888.94 336.07 885.23 327.71 C 877.37 311.01 867.65 295.21 856.44 280.56 C 844.46 264.70 830.83 250.20 817.34 235.64 C 803.77 221.24 790.97 205.95 775.45 193.56 C 762.66 183.27 747.50 175.00 730.89 173.59 C 713.61 171.86 696.57 177.58 681.50 185.60 M 890.45 582.69 C 880.02 592.73 869.85 603.56 863.86 616.93 C 858.98 627.51 857.93 639.29 856.91 650.75 C 855.52 673.39 855.88 696.46 861.16 718.63 C 863.54 726.81 866.27 736.71 874.90 740.34 C 879.71 707.36 869.29 674.20 874.45 641.25 C 875.86 630.63 882.12 621.61 888.05 613.01 C 892.09 606.81 897.18 600.67 898.00 593.04 C 898.17 588.22 894.21 584.91 890.45 582.69 M 676.21 627.03 C 638.29 643.19 603.44 665.77 565.15 681.14 C 544.54 689.54 523.02 695.78 500.99 699.05 C 499.43 699.21 497.91 699.68 496.72 700.74 C 487.19 708.13 479.34 717.55 469.17 724.14 C 464.08 727.39 457.77 727.01 452.08 728.32 C 448.51 729.01 444.41 730.48 443.05 734.21 C 441.78 737.93 442.13 743.26 446.16 745.15 C 451.32 745.73 455.48 741.78 460.15 740.25 C 464.25 738.44 468.89 738.71 473.06 740.12 C 464.77 752.60 452.46 761.87 444.76 774.79 C 440.75 781.39 438.35 788.87 437.33 796.51 C 441.32 797.26 445.60 797.15 449.27 795.24 C 457.12 791.44 461.35 783.13 468.60 778.56 C 471.83 776.31 475.45 778.49 478.03 780.63 C 468.85 790.21 467.45 804.27 468.07 816.91 C 472.91 816.49 477.99 815.10 481.24 811.24 C 488.65 802.75 488.77 790.43 495.61 781.61 C 497.65 778.92 500.60 777.21 503.65 775.92 C 504.04 781.23 502.85 786.52 503.37 791.83 C 503.54 793.83 504.46 795.85 506.25 796.91 C 509.93 797.93 514.55 797.15 516.58 793.58 C 522.89 783.99 522.22 771.93 523.57 760.99 C 524.55 751.83 525.74 741.04 533.97 735.33 C 538.23 737.99 542.75 740.36 547.70 741.44 C 559.65 744.13 571.77 740.61 583.80 740.46 C 586.72 740.69 588.75 737.95 589.25 735.35 C 590.66 728.46 588.69 721.24 590.57 714.41 C 591.27 711.96 593.79 709.00 596.57 710.42 C 609.68 715.29 624.08 717.56 637.91 714.69 C 653.72 711.59 667.35 702.43 680.30 693.31 C 693.30 684.10 706.62 674.56 722.23 670.36 C 724.75 669.79 727.51 668.62 730.00 669.97 C 745.66 676.32 756.22 691.12 772.19 696.89 C 779.35 699.56 787.45 698.47 793.99 694.66 C 784.13 680.29 766.09 675.72 753.63 664.28 C 757.71 664.06 762.12 664.89 765.93 663.03 C 768.15 661.83 768.16 658.93 767.08 656.95 C 764.07 651.25 758.68 647.41 753.67 643.59 C 767.47 641.97 781.48 646.27 795.14 643.08 C 799.93 642.09 803.37 638.11 804.21 633.38 C 780.55 628.44 756.84 622.41 732.47 622.90 C 733.42 619.98 735.18 617.47 736.83 614.93 C 738.29 612.85 737.93 610.20 738.08 607.81 C 716.78 611.70 696.08 618.47 676.21 627.03 M 299.98 739.89 C 325.72 759.52 351.92 779.25 372.57 804.45 C 385.52 820.20 396.02 838.14 402.21 857.63 C 405.42 868.89 399.85 880.92 404.16 891.99 C 406.27 897.60 411.65 900.92 417.00 902.95 C 417.95 881.54 416.61 859.82 410.99 839.06 C 405.76 819.89 396.11 801.94 382.96 787.03 C 371.31 774.14 357.31 763.65 342.85 754.14 C 332.50 747.52 321.94 741.17 310.91 735.77 C 307.09 735.53 301.80 735.77 299.98 739.89 Z" />
<path fill="#000000" opacity="1.00" d=" M 503.73 25.56 C 549.48 15.78 596.21 10.21 643.02 10.29 C 680.39 10.88 718.45 14.46 753.56 28.08 C 752.44 29.71 751.66 31.95 749.59 32.57 C 744.17 34.13 738.48 33.00 732.94 33.23 C 747.92 53.98 769.81 67.89 790.02 82.95 C 805.57 94.47 820.64 107.36 831.14 123.84 C 835.80 130.94 839.88 138.40 844.45 145.55 C 852.81 159.16 864.09 170.58 874.03 182.99 C 886.28 197.85 897.98 213.42 906.21 230.93 C 908.20 235.43 910.98 239.86 911.06 244.93 C 912.40 270.05 918.65 294.88 929.40 317.63 C 942.38 345.55 961.52 369.86 979.12 394.93 C 980.34 396.81 982.07 398.62 982.02 401.01 C 982.34 405.69 982.75 410.39 984.09 414.90 C 988.01 429.53 997.56 441.65 1003.67 455.33 C 1006.67 461.87 1008.62 468.83 1010.45 475.78 C 1018.33 506.49 1020.59 538.38 1020.50 570.00 C 1020.98 621.68 1015.29 673.29 1017.83 724.97 C 1018.82 745.41 1021.90 765.75 1027.43 785.47 C 1028.05 781.74 1028.64 777.94 1030.61 774.66 C 1037.11 777.95 1038.39 785.98 1043.00 791.11 L 1043.00 817.24 C 1027.28 858.27 1013.94 900.23 996.57 940.62 C 987.35 962.33 979.25 984.54 968.49 1005.56 C 961.12 1020.16 952.31 1034.19 941.00 1046.09 C 940.66 1035.05 941.40 1023.97 944.03 1013.22 C 948.93 991.82 958.62 972.00 966.68 951.70 C 970.58 942.17 973.62 932.31 977.76 922.87 C 988.36 897.36 1001.88 872.94 1009.41 846.24 C 1013.66 831.54 1013.82 815.98 1011.89 800.90 C 1009.37 779.85 1003.24 759.30 1002.28 738.05 C 1001.61 723.94 1004.67 710.07 1006.36 696.14 C 1007.69 686.16 1007.22 676.07 1007.18 666.03 C 1006.23 629.43 1000.93 593.02 992.36 557.44 C 980.01 505.35 960.89 455.25 943.13 404.85 C 938.13 390.92 933.96 376.66 927.67 363.23 C 913.90 332.88 893.80 306.12 875.53 278.44 C 867.40 265.91 859.52 253.12 853.59 239.38 C 845.95 220.80 847.65 199.80 839.62 181.35 C 833.16 166.38 819.83 155.89 812.41 141.52 C 809.13 135.19 807.74 127.96 808.57 120.87 C 808.98 119.33 807.20 118.60 806.37 117.67 C 790.22 104.55 776.14 89.07 759.74 76.25 C 747.74 66.77 734.27 58.94 719.66 54.28 C 718.41 53.71 717.04 54.00 716.54 55.36 C 710.43 65.26 697.84 67.86 690.75 76.77 C 689.12 78.83 688.02 81.24 686.84 83.57 C 693.07 83.96 699.38 84.59 705.24 86.90 C 709.21 88.42 713.36 90.73 715.25 94.74 C 716.75 98.08 714.89 101.70 712.75 104.27 C 707.51 104.13 702.40 102.68 697.24 101.89 C 684.37 99.37 671.17 97.83 658.06 99.18 C 656.74 99.18 655.68 99.93 654.80 100.82 C 644.81 110.49 638.35 123.30 634.74 136.62 C 629.47 155.89 629.65 176.09 630.87 195.87 C 619.82 209.32 608.93 223.05 600.24 238.21 C 581.33 269.97 571.52 306.66 569.96 343.48 C 566.35 342.90 562.64 342.34 559.00 343.02 C 553.29 343.96 548.48 347.63 542.79 348.62 C 539.90 349.16 536.96 348.96 534.05 348.84 C 536.31 341.94 537.18 334.50 535.63 327.34 C 532.64 312.64 524.03 299.83 520.67 285.23 C 516.38 268.36 519.89 250.69 525.51 234.58 C 533.65 211.15 545.56 189.08 551.75 164.97 C 556.04 149.02 557.39 132.17 554.66 115.83 C 553.85 113.96 556.38 114.00 557.49 113.83 C 567.81 112.79 579.31 114.49 588.35 108.32 C 594.53 104.12 595.57 96.09 595.34 89.20 C 583.48 91.24 571.33 90.57 559.57 88.32 C 537.81 84.33 517.16 75.15 494.95 73.57 C 467.99 71.26 440.56 72.10 414.15 78.31 C 384.10 85.18 355.92 99.51 332.30 119.26 C 303.06 143.53 280.44 174.53 259.71 206.08 C 278.08 218.86 300.49 223.28 321.94 228.05 C 340.20 232.01 358.77 235.50 375.98 243.04 C 385.99 247.41 395.36 253.62 402.34 262.12 C 401.24 265.13 399.92 268.35 396.98 270.01 C 387.49 275.85 373.98 272.80 366.32 282.03 C 380.25 302.39 400.25 317.23 418.01 333.97 C 432.23 348.20 449.06 359.50 463.33 373.67 C 468.06 378.33 472.73 383.17 476.08 388.95 C 479.25 394.38 479.97 400.81 480.26 406.98 C 480.49 421.09 476.17 434.83 470.63 447.66 C 464.19 462.57 455.69 476.45 447.29 490.30 C 437.59 506.52 428.24 522.97 417.53 538.55 C 397.17 568.76 364.74 591.14 328.72 597.61 C 311.30 600.66 293.01 599.72 276.31 593.73 C 257.48 587.27 241.19 574.59 228.89 559.09 C 226.78 556.05 223.13 553.22 223.91 549.10 C 224.64 537.13 222.58 525.19 219.38 513.69 C 213.17 490.73 202.27 468.36 203.37 444.03 C 204.35 403.83 225.76 365.69 257.09 341.09 C 274.47 327.43 295.53 317.28 317.91 316.37 C 337.53 315.51 356.97 319.04 376.14 322.79 C 365.38 302.89 351.08 284.78 333.48 270.50 C 306.76 248.56 273.17 236.41 239.20 231.66 C 210.44 266.86 179.59 300.32 147.92 332.93 C 145.95 335.30 142.09 337.35 143.04 340.96 C 145.96 359.10 144.02 377.70 139.65 395.45 C 132.43 425.31 118.87 453.14 110.81 482.75 C 107.03 496.54 105.61 510.81 104.24 524.99 C 101.12 560.55 102.11 596.42 106.44 631.84 C 111.93 677.37 122.65 722.07 134.61 766.27 C 146.19 809.40 158.96 852.26 167.70 896.09 C 167.90 898.25 170.15 899.12 171.57 900.43 C 182.23 908.41 189.16 920.12 195.19 931.74 C 202.21 945.23 208.98 959.24 219.80 970.18 C 231.28 982.22 246.90 988.97 262.14 994.88 C 277.83 1001.10 294.33 1006.02 308.39 1015.64 C 317.01 1021.47 323.81 1030.28 325.88 1040.63 C 305.87 1035.09 286.92 1026.26 268.79 1016.25 C 247.51 1004.61 227.15 991.28 205.36 980.56 C 202.57 979.42 201.37 976.46 199.99 974.01 C 193.80 962.16 191.94 948.16 183.42 937.54 C 179.65 932.67 173.92 929.91 168.04 928.52 C 166.37 940.78 167.52 953.30 170.62 965.25 C 174.80 982.18 182.96 997.72 189.00 1014.00 C 192.84 1024.11 195.20 1035.03 193.54 1045.86 C 176.27 1028.95 165.82 1006.26 159.91 983.10 C 154.09 959.88 152.17 935.82 152.53 911.94 C 152.40 910.40 152.87 908.54 151.51 907.44 C 126.51 882.24 121.24 844.47 97.87 818.11 C 95.88 815.92 95.64 812.85 94.92 810.13 C 84.80 764.13 81.23 717.01 78.57 670.09 C 74.84 597.80 75.00 525.37 76.23 453.03 C 75.75 438.05 72.62 422.97 75.20 408.02 C 76.46 400.46 80.42 393.34 86.63 388.75 C 86.97 399.16 86.47 409.57 86.96 419.98 C 87.25 430.32 86.62 440.66 86.75 451.00 C 86.75 486.34 85.85 521.66 86.00 557.00 C 85.82 609.10 86.66 661.32 92.56 713.13 C 97.31 753.29 105.07 793.56 121.13 830.86 C 129.25 849.16 139.17 866.91 152.43 882.01 C 151.03 857.48 140.72 834.77 131.72 812.28 C 123.69 792.64 115.89 772.72 112.02 751.77 C 110.05 740.62 113.88 729.42 112.45 718.24 C 108.93 699.15 94.05 684.20 91.56 664.77 C 88.74 641.63 88.98 618.27 88.99 595.00 C 89.44 569.95 90.42 544.90 92.36 519.92 C 93.45 506.21 94.63 492.48 96.86 478.91 C 100.98 456.65 116.30 438.57 121.65 416.73 C 124.04 407.59 122.44 397.65 117.30 389.73 C 116.88 398.34 118.96 407.71 114.73 415.68 C 112.14 420.30 106.30 420.52 101.65 420.09 C 102.29 407.46 104.49 394.94 107.75 382.73 C 113.50 360.71 122.52 339.67 127.53 317.44 C 131.06 302.49 132.44 287.11 132.30 271.77 C 136.25 272.84 140.74 274.60 142.03 278.92 C 144.86 288.61 138.70 298.16 140.02 307.88 C 140.52 311.43 144.24 312.44 147.20 313.07 C 166.18 281.54 191.65 254.24 208.34 221.29 C 191.23 220.01 174.98 227.18 157.98 227.48 C 152.92 227.45 147.61 226.62 143.36 223.68 C 140.54 221.78 138.67 218.88 136.94 216.02 C 139.55 211.35 144.69 208.93 149.93 208.91 C 165.18 208.38 180.23 213.67 195.51 211.56 C 200.07 211.00 204.22 208.93 208.16 206.69 C 205.22 206.10 201.48 206.09 199.75 203.18 C 197.47 200.15 200.59 195.87 204.00 195.81 C 215.30 195.60 226.62 195.89 237.92 195.71 C 239.19 195.78 240.10 194.76 241.04 194.08 C 247.87 188.25 254.01 181.66 259.80 174.80 C 282.80 147.15 300.60 114.84 328.55 91.58 C 341.26 81.24 355.47 71.61 371.89 68.69 C 389.73 65.21 408.18 63.91 425.26 57.24 C 441.22 50.90 454.35 38.91 470.79 33.61 C 481.65 30.49 492.69 28.01 503.73 25.56 M 631.06 23.01 C 632.24 37.42 628.89 51.97 631.62 66.28 C 632.51 71.65 635.76 76.63 640.87 78.82 C 658.96 63.14 673.36 43.73 691.48 28.09 C 671.64 24.07 651.34 21.14 631.06 23.01 M 487.27 47.24 C 474.10 51.19 460.81 55.61 449.19 63.12 C 453.11 63.05 457.02 62.58 460.95 62.39 C 486.76 60.75 512.54 64.06 538.00 67.99 C 558.58 71.19 579.32 73.67 600.17 73.80 C 601.42 64.55 605.83 56.22 609.85 47.93 C 613.58 40.20 615.76 31.69 615.56 23.07 C 573.24 33.43 529.31 35.58 487.27 47.24 M 697.71 43.41 C 694.90 52.97 683.08 53.56 677.33 60.46 C 675.30 63.76 679.18 66.45 681.31 68.41 C 683.83 59.00 694.47 55.99 699.62 48.52 C 701.01 46.52 698.88 44.83 697.71 43.41 M 603.90 106.65 C 601.48 114.06 600.05 123.17 605.31 129.72 C 610.08 126.05 614.52 121.74 617.27 116.31 C 621.73 107.96 621.95 98.08 620.52 88.92 C 611.73 90.44 606.59 98.87 603.90 106.65 M 605.63 145.20 C 600.50 156.54 594.20 167.61 591.91 179.97 C 590.81 185.26 591.68 190.86 594.65 195.40 C 595.13 192.07 595.35 188.65 596.46 185.44 C 599.57 175.81 606.52 167.86 609.07 158.02 C 610.43 153.43 608.57 148.73 605.63 145.20 M 613.10 184.22 C 611.21 188.17 612.99 192.51 615.55 195.67 C 617.85 190.67 620.66 185.37 619.76 179.68 C 616.58 178.88 614.10 181.48 613.10 184.22 M 855.19 206.66 C 865.11 232.67 880.36 256.82 900.20 276.40 C 898.77 265.36 895.41 254.57 890.32 244.67 C 882.24 229.16 869.56 216.43 855.19 206.66 M 541.12 253.13 C 544.36 246.71 546.72 239.88 548.90 233.04 C 545.15 239.23 542.81 246.13 541.12 253.13 M 346.10 256.26 C 349.49 255.83 353.03 255.55 356.27 256.91 C 361.00 258.42 364.94 262.11 369.99 262.54 C 373.22 262.85 374.80 259.71 376.39 257.50 C 368.47 256.89 361.84 251.70 353.98 250.99 C 350.33 250.52 347.83 253.50 346.10 256.26 M 543.85 283.92 C 542.60 288.11 541.47 292.74 543.12 296.99 C 544.90 302.01 549.60 305.15 554.13 307.46 C 552.59 296.63 556.24 285.84 554.88 275.03 C 554.64 271.65 552.54 268.87 549.80 267.03 C 547.84 272.67 545.65 278.23 543.85 283.92 M 312.27 333.28 C 295.15 339.00 279.86 348.92 264.95 358.83 C 263.79 361.59 264.19 364.86 264.53 367.78 C 265.66 375.03 271.95 379.89 274.05 386.74 C 274.79 389.18 274.85 391.75 275.12 394.28 C 278.06 394.59 281.01 394.95 283.98 395.01 C 299.87 395.72 314.80 388.36 330.71 388.95 C 332.41 394.91 337.00 399.42 339.17 405.16 C 340.52 408.78 338.35 412.26 336.02 414.88 C 324.06 407.42 309.50 408.28 296.00 408.00 C 285.43 408.21 274.88 407.06 264.57 404.76 C 264.69 402.21 264.88 399.55 263.82 397.15 C 261.76 392.21 256.07 390.00 254.05 385.04 C 252.57 381.51 253.48 377.64 253.92 374.01 C 246.61 375.31 239.36 378.87 235.33 385.35 C 228.82 395.55 228.67 408.21 229.11 419.90 C 236.37 421.12 243.58 418.05 250.83 419.27 C 253.79 419.60 255.44 423.23 254.11 425.79 C 252.09 429.55 248.29 432.02 244.30 433.29 C 236.15 435.95 227.45 435.32 219.01 435.22 C 219.03 445.38 218.92 455.54 219.07 465.70 C 222.55 467.07 226.26 468.15 230.05 467.70 C 239.38 466.79 247.59 461.26 257.00 460.71 C 263.24 460.08 269.40 462.07 274.75 465.19 C 280.17 457.32 286.15 449.68 293.57 443.59 C 298.34 439.75 303.84 436.46 310.01 435.63 C 315.58 434.91 321.65 436.41 325.82 440.27 C 326.52 443.24 326.90 447.12 324.02 449.11 C 319.10 452.31 312.51 450.45 307.56 453.60 C 305.59 454.93 305.11 457.43 305.12 459.65 C 307.33 460.92 310.09 460.58 312.45 461.52 C 317.74 463.20 323.45 467.05 324.02 473.04 C 324.53 476.12 322.56 478.69 320.90 481.05 C 300.76 473.84 278.33 471.71 257.55 477.40 C 246.57 480.36 236.70 486.70 229.37 495.38 C 231.17 496.68 233.44 497.85 233.80 500.29 C 234.78 505.59 234.04 511.05 234.13 516.42 C 240.68 516.66 245.87 512.56 250.57 508.57 C 256.01 504.07 263.55 504.30 270.00 506.08 C 263.24 520.62 246.64 527.07 239.50 541.34 C 242.87 540.74 246.44 539.90 249.82 540.96 C 252.53 541.87 253.89 544.73 254.41 547.36 C 255.72 553.98 254.42 560.71 254.46 567.38 C 258.83 567.30 263.27 566.42 266.94 563.92 C 270.87 561.27 274.74 558.44 279.29 556.93 C 278.10 546.66 273.68 535.85 277.56 525.60 C 280.41 518.62 288.49 516.55 295.31 516.16 C 293.61 520.87 291.45 525.76 292.11 530.89 C 292.98 534.87 297.42 535.90 300.57 537.49 C 305.02 539.24 308.43 542.82 310.68 546.97 C 306.60 557.00 295.64 560.49 287.79 566.78 C 282.91 570.50 280.31 576.42 279.82 582.43 C 289.25 584.65 300.04 586.08 308.75 580.81 C 316.50 576.07 319.37 566.59 320.11 558.02 C 321.40 542.37 318.19 526.80 315.26 511.50 C 321.72 509.85 324.59 502.97 330.72 500.70 C 329.38 517.35 334.17 533.56 336.04 549.96 C 337.34 561.01 336.74 572.75 331.06 582.60 C 339.69 582.48 348.63 580.87 355.82 575.81 C 368.70 567.16 375.09 552.27 386.23 541.82 C 381.60 540.95 377.48 543.29 373.91 545.90 C 370.12 548.74 365.17 548.17 360.85 547.13 C 364.82 542.88 369.01 538.06 369.51 532.01 C 370.00 526.50 366.78 521.62 363.63 517.41 C 358.52 510.79 352.98 504.14 350.78 495.89 C 356.30 497.81 362.04 500.28 368.02 499.33 C 373.02 498.29 376.26 494.06 380.17 491.17 C 383.60 488.42 387.75 486.83 391.91 485.57 C 393.88 495.21 392.43 505.06 390.47 514.57 C 389.34 520.18 388.22 526.35 391.41 531.54 C 394.72 528.49 397.94 525.31 400.96 521.96 C 421.39 501.26 441.73 479.17 452.88 451.86 C 461.84 430.64 463.32 406.59 457.80 384.29 C 450.73 384.56 443.29 383.71 437.40 379.44 C 436.68 383.79 435.68 388.72 438.48 392.59 C 442.83 398.73 451.75 398.79 456.24 404.78 C 458.41 407.60 458.28 411.36 458.21 414.74 C 449.57 414.75 440.94 414.75 432.31 414.74 C 427.98 394.81 420.19 375.01 406.22 359.81 C 393.28 345.46 375.01 336.69 356.14 333.41 C 354.00 340.14 353.15 347.56 355.76 354.29 C 358.25 361.75 364.52 367.03 367.85 374.03 C 369.50 377.27 368.70 381.11 366.74 384.02 C 356.56 384.65 348.02 376.39 345.17 367.09 C 340.67 354.67 340.20 341.23 335.93 328.75 L 335.12 328.39 C 327.35 329.15 319.69 330.88 312.27 333.28 M 957.00 395.55 C 966.09 444.16 989.70 488.35 1002.27 535.96 C 1002.58 513.19 1000.03 490.26 993.35 468.44 C 985.48 442.28 972.04 418.20 957.00 395.55 Z" />
<path fill="#ffffff" opacity="1.00" d=" M 631.06 23.01 C 651.34 21.14 671.64 24.07 691.48 28.09 C 673.36 43.73 658.96 63.14 640.87 78.82 C 635.76 76.63 632.51 71.65 631.62 66.28 C 628.89 51.97 632.24 37.42 631.06 23.01 Z" />
<path fill="#ffffff" opacity="1.00" d=" M 487.27 47.24 C 529.31 35.58 573.24 33.43 615.56 23.07 C 615.76 31.69 613.58 40.20 609.85 47.93 C 605.83 56.22 601.42 64.55 600.17 73.80 C 579.32 73.67 558.58 71.19 538.00 67.99 C 512.54 64.06 486.76 60.75 460.95 62.39 C 457.02 62.58 453.11 63.05 449.19 63.12 C 460.81 55.61 474.10 51.19 487.27 47.24 Z" />
<path fill="#ffffff" opacity="1.00" d=" M 697.71 43.41 C 698.88 44.83 701.01 46.52 699.62 48.52 C 694.47 55.99 683.83 59.00 681.31 68.41 C 679.18 66.45 675.30 63.76 677.33 60.46 C 683.08 53.56 694.90 52.97 697.71 43.41 Z" />
<path fill="#ffffff" opacity="1.00" d=" M 603.90 106.65 C 606.59 98.87 611.73 90.44 620.52 88.92 C 621.95 98.08 621.73 107.96 617.27 116.31 C 614.52 121.74 610.08 126.05 605.31 129.72 C 600.05 123.17 601.48 114.06 603.90 106.65 Z" />
<path fill="#ffffff" opacity="1.00" d=" M 605.63 145.20 C 608.57 148.73 610.43 153.43 609.07 158.02 C 606.52 167.86 599.57 175.81 596.46 185.44 C 595.35 188.65 595.13 192.07 594.65 195.40 C 591.68 190.86 590.81 185.26 591.91 179.97 C 594.20 167.61 600.50 156.54 605.63 145.20 Z" />
<path fill="#000000" opacity="1.00" d=" M 681.50 185.60 C 696.57 177.58 713.61 171.86 730.89 173.59 C 747.50 175.00 762.66 183.27 775.45 193.56 C 790.97 205.95 803.77 221.24 817.34 235.64 C 830.83 250.20 844.46 264.70 856.44 280.56 C 867.65 295.21 877.37 311.01 885.23 327.71 C 888.94 336.07 882.45 345.11 885.40 353.58 C 889.22 358.49 896.57 358.69 900.51 363.40 C 906.59 378.98 909.02 396.24 906.04 412.79 C 903.52 426.59 896.99 439.40 888.31 450.33 C 876.82 464.90 862.00 476.43 846.61 486.61 C 843.76 488.29 841.18 490.79 837.82 491.33 C 794.67 496.83 749.52 494.72 708.85 478.15 C 673.46 464.07 643.12 438.49 622.08 406.86 C 616.43 398.00 609.81 389.82 603.81 381.21 C 600.37 376.11 596.78 370.86 595.34 364.78 C 591.99 347.91 592.65 330.22 597.62 313.73 C 602.69 296.62 612.00 281.03 623.29 267.31 C 637.52 249.88 654.75 235.20 672.55 221.55 C 677.18 217.80 682.32 214.66 686.75 210.68 C 688.01 206.06 685.21 201.86 682.72 198.26 C 680.01 194.57 680.56 189.79 681.50 185.60 M 732.78 194.87 C 733.54 196.01 734.49 197.02 735.26 198.16 C 734.61 200.93 731.84 202.29 729.61 203.61 C 722.55 207.29 714.91 209.81 707.13 211.40 C 706.94 214.70 706.56 218.43 708.88 221.14 C 713.13 226.22 720.85 225.90 725.35 230.67 C 726.96 232.26 727.30 234.60 727.95 236.66 C 716.74 242.70 703.71 243.15 691.75 246.94 C 691.24 241.19 692.56 235.16 690.46 229.63 C 689.78 227.92 687.28 225.44 685.77 227.66 C 668.53 244.44 649.41 259.52 634.93 278.91 C 622.57 295.01 614.40 314.30 611.63 334.43 C 610.12 345.76 609.63 357.36 610.85 368.73 C 632.21 387.75 644.82 414.09 664.01 435.01 C 674.37 446.36 687.32 455.66 702.10 460.24 C 710.57 445.63 717.01 428.19 732.52 419.46 C 734.58 425.86 739.40 430.82 741.86 437.02 C 743.61 441.27 743.37 445.96 743.05 450.45 C 736.08 450.81 728.49 450.53 722.34 454.32 C 718.51 456.58 717.48 461.21 717.30 465.34 C 743.53 473.63 771.21 478.06 798.73 475.64 C 798.76 467.18 798.76 458.72 798.73 450.26 C 793.58 450.08 788.36 450.71 783.28 449.69 C 781.12 449.32 779.21 447.93 778.38 445.88 C 778.97 443.66 781.09 442.12 782.10 440.06 C 789.54 426.93 788.46 410.56 796.88 397.87 C 800.69 392.08 807.53 389.29 814.26 388.94 C 812.04 395.76 810.05 402.70 809.01 409.82 C 807.60 419.02 808.19 428.40 809.60 437.57 C 811.51 450.20 813.53 462.85 814.16 475.63 C 819.85 476.30 825.69 476.05 831.21 474.40 C 841.56 471.52 849.53 463.63 859.70 460.30 C 861.15 445.28 855.83 430.77 849.47 417.45 C 844.50 407.20 840.99 395.49 844.27 384.16 C 837.32 382.55 829.71 381.67 823.96 377.06 C 819.95 373.87 818.76 368.50 818.89 363.62 C 827.17 364.69 835.48 365.94 843.49 368.36 C 851.19 370.73 858.90 374.66 863.54 381.50 C 865.99 384.46 864.70 388.52 864.99 392.01 C 864.91 408.33 865.37 426.13 875.12 440.00 C 886.32 430.05 890.57 414.53 890.76 400.00 C 890.67 386.36 887.03 371.82 877.03 361.99 C 871.03 356.03 862.51 353.46 854.19 353.56 C 854.68 351.47 854.63 348.94 856.40 347.44 C 859.98 344.49 865.20 344.80 868.77 341.81 C 871.30 339.25 870.96 334.76 868.93 332.01 C 865.59 327.40 862.90 322.23 858.62 318.38 C 854.96 315.04 850.06 313.17 845.13 313.04 C 842.72 313.58 840.67 315.25 839.11 317.10 C 832.58 325.31 833.11 337.12 825.91 344.91 C 821.47 349.54 814.53 349.62 808.62 348.74 C 808.74 344.56 809.26 340.23 811.54 336.60 C 814.21 332.21 817.63 328.21 819.15 323.20 C 812.19 319.01 803.74 317.07 798.02 311.01 C 794.53 307.39 793.61 302.26 793.35 297.44 C 805.65 300.01 817.19 306.87 830.05 306.21 C 837.36 305.97 842.63 299.61 844.31 292.95 C 843.43 290.61 841.69 288.74 840.29 286.71 C 828.74 271.25 814.03 258.52 798.71 246.94 C 792.87 255.05 792.81 267.27 783.34 272.56 C 779.51 267.99 776.97 262.07 778.15 256.03 C 780.10 246.40 787.31 239.20 793.26 231.82 C 790.97 230.92 788.46 230.12 786.85 228.14 C 782.74 223.29 782.09 216.58 778.47 211.44 C 772.81 210.06 767.17 213.38 763.63 217.61 C 760.09 221.38 757.73 226.37 753.29 229.23 C 749.74 231.33 745.54 229.28 742.85 226.72 C 742.98 219.47 749.06 214.47 753.20 209.16 C 756.35 205.47 757.70 200.70 758.17 195.95 C 752.68 192.63 746.49 190.04 740.00 189.99 C 736.81 189.90 733.82 191.83 732.78 194.87 Z" />
<path fill="#fefefe" opacity="1.00" d=" M 613.10 184.22 C 614.10 181.48 616.58 178.88 619.76 179.68 C 620.66 185.37 617.85 190.67 615.55 195.67 C 612.99 192.51 611.21 188.17 613.10 184.22 Z" />
<path fill="#ffffff" opacity="1.00" d=" M 732.78 194.87 C 733.82 191.83 736.81 189.90 740.00 189.99 C 746.49 190.04 752.68 192.63 758.17 195.95 C 757.70 200.70 756.35 205.47 753.20 209.16 C 749.06 214.47 742.98 219.47 742.85 226.72 C 745.54 229.28 749.74 231.33 753.29 229.23 C 757.73 226.37 760.09 221.38 763.63 217.61 C 767.17 213.38 772.81 210.06 778.47 211.44 C 782.09 216.58 782.74 223.29 786.85 228.14 C 788.46 230.12 790.97 230.92 793.26 231.82 C 787.31 239.20 780.10 246.40 778.15 256.03 C 776.97 262.07 779.51 267.99 783.34 272.56 C 792.81 267.27 792.87 255.05 798.71 246.94 C 814.03 258.52 828.74 271.25 840.29 286.71 C 841.69 288.74 843.43 290.61 844.31 292.95 C 842.63 299.61 837.36 305.97 830.05 306.21 C 817.19 306.87 805.65 300.01 793.35 297.44 C 793.61 302.26 794.53 307.39 798.02 311.01 C 803.74 317.07 812.19 319.01 819.15 323.20 C 817.63 328.21 814.21 332.21 811.54 336.60 C 809.26 340.23 808.74 344.56 808.62 348.74 C 814.53 349.62 821.47 349.54 825.91 344.91 C 833.11 337.12 832.58 325.31 839.11 317.10 C 840.67 315.25 842.72 313.58 845.13 313.04 C 850.06 313.17 854.96 315.04 858.62 318.38 C 862.90 322.23 865.59 327.40 868.93 332.01 C 870.96 334.76 871.30 339.25 868.77 341.81 C 865.20 344.80 859.98 344.49 856.40 347.44 C 854.63 348.94 854.68 351.47 854.19 353.56 C 862.51 353.46 871.03 356.03 877.03 361.99 C 887.03 371.82 890.67 386.36 890.76 400.00 C 890.57 414.53 886.32 430.05 875.12 440.00 C 865.37 426.13 864.91 408.33 864.99 392.01 C 864.70 388.52 865.99 384.46 863.54 381.50 C 858.90 374.66 851.19 370.73 843.49 368.36 C 835.48 365.94 827.17 364.69 818.89 363.62 C 818.76 368.50 819.95 373.87 823.96 377.06 C 829.71 381.67 837.32 382.55 844.27 384.16 C 840.99 395.49 844.50 407.20 849.47 417.45 C 855.83 430.77 861.15 445.28 859.70 460.30 C 849.53 463.63 841.56 471.52 831.21 474.40 C 825.69 476.05 819.85 476.30 814.16 475.63 C 813.53 462.85 811.51 450.20 809.60 437.57 C 808.19 428.40 807.60 419.02 809.01 409.82 C 810.05 402.70 812.04 395.76 814.26 388.94 C 807.53 389.29 800.69 392.08 796.88 397.87 C 788.46 410.56 789.54 426.93 782.10 440.06 C 781.09 442.12 778.97 443.66 778.38 445.88 C 779.21 447.93 781.12 449.32 783.28 449.69 C 788.36 450.71 793.58 450.08 798.73 450.26 C 798.76 458.72 798.76 467.18 798.73 475.64 C 771.21 478.06 743.53 473.63 717.30 465.34 C 717.48 461.21 718.51 456.58 722.34 454.32 C 728.49 450.53 736.08 450.81 743.05 450.45 C 743.37 445.96 743.61 441.27 741.86 437.02 C 739.40 430.82 734.58 425.86 732.52 419.46 C 717.01 428.19 710.57 445.63 702.10 460.24 C 687.32 455.66 674.37 446.36 664.01 435.01 C 644.82 414.09 632.21 387.75 610.85 368.73 C 609.63 357.36 610.12 345.76 611.63 334.43 C 614.40 314.30 622.57 295.01 634.93 278.91 C 649.41 259.52 668.53 244.44 685.77 227.66 C 687.28 225.44 689.78 227.92 690.46 229.63 C 692.56 235.16 691.24 241.19 691.75 246.94 C 703.71 243.15 716.74 242.70 727.95 236.66 C 727.30 234.60 726.96 232.26 725.35 230.67 C 720.85 225.90 713.13 226.22 708.88 221.14 C 706.56 218.43 706.94 214.70 707.13 211.40 C 714.91 209.81 722.55 207.29 729.61 203.61 C 731.84 202.29 734.61 200.93 735.26 198.16 C 734.49 197.02 733.54 196.01 732.78 194.87 M 706.42 272.56 C 692.66 274.29 679.91 281.42 670.57 291.56 C 657.83 305.07 650.63 322.93 647.00 340.93 C 643.26 360.26 643.10 380.29 646.18 399.72 C 654.77 409.01 666.84 414.44 679.09 416.96 C 697.66 420.71 717.06 419.28 735.26 414.31 C 748.46 410.54 761.46 404.96 771.93 395.89 C 774.00 394.48 774.00 391.80 774.55 389.61 C 779.12 366.61 779.41 342.31 772.38 319.77 C 767.61 304.97 759.28 290.70 746.31 281.69 C 734.90 273.50 720.21 270.62 706.42 272.56 Z" />
<path fill="#ffffff" opacity="1.00" d=" M 855.19 206.66 C 869.56 216.43 882.24 229.16 890.32 244.67 C 895.41 254.57 898.77 265.36 900.20 276.40 C 880.36 256.82 865.11 232.67 855.19 206.66 Z" />
<path fill="#fefefe" opacity="1.00" d=" M 541.12 253.13 C 542.81 246.13 545.15 239.23 548.90 233.04 C 546.72 239.88 544.36 246.71 541.12 253.13 Z" />
<path fill="#ffffff" opacity="1.00" d=" M 346.10 256.26 C 347.83 253.50 350.33 250.52 353.98 250.99 C 361.84 251.70 368.47 256.89 376.39 257.50 C 374.80 259.71 373.22 262.85 369.99 262.54 C 364.94 262.11 361.00 258.42 356.27 256.91 C 353.03 255.55 349.49 255.83 346.10 256.26 Z" />
<path fill="#ffffff" opacity="1.00" d=" M 543.85 283.92 C 545.65 278.23 547.84 272.67 549.80 267.03 C 552.54 268.87 554.64 271.65 554.88 275.03 C 556.24 285.84 552.59 296.63 554.13 307.46 C 549.60 305.15 544.90 302.01 543.12 296.99 C 541.47 292.74 542.60 288.11 543.85 283.92 Z" />
<path fill="#000000" opacity="1.00" d=" M 706.42 272.56 C 720.21 270.62 734.90 273.50 746.31 281.69 C 759.28 290.70 767.61 304.97 772.38 319.77 C 779.41 342.31 779.12 366.61 774.55 389.61 C 774.00 391.80 774.00 394.48 771.93 395.89 C 761.46 404.96 748.46 410.54 735.26 414.31 C 717.06 419.28 697.66 420.71 679.09 416.96 C 666.84 414.44 654.77 409.01 646.18 399.72 C 643.10 380.29 643.26 360.26 647.00 340.93 C 650.63 322.93 657.83 305.07 670.57 291.56 C 679.91 281.42 692.66 274.29 706.42 272.56 M 676.13 313.10 C 666.18 323.96 660.15 338.33 659.60 353.06 C 658.78 371.61 666.10 389.54 676.49 404.59 C 688.93 405.96 701.60 405.99 713.98 403.94 C 731.67 401.17 748.09 393.43 763.32 384.28 C 765.21 369.35 765.97 354.11 763.45 339.20 C 761.45 327.26 757.07 315.30 748.69 306.33 C 741.36 298.41 730.77 293.60 719.97 293.48 C 703.33 292.88 687.24 301.02 676.13 313.10 Z" />
<path fill="#ffffff" opacity="1.00" d=" M 676.13 313.10 C 687.24 301.02 703.33 292.88 719.97 293.48 C 730.77 293.60 741.36 298.41 748.69 306.33 C 757.07 315.30 761.45 327.26 763.45 339.20 C 765.97 354.11 765.21 369.35 763.32 384.28 C 748.09 393.43 731.67 401.17 713.98 403.94 C 701.60 405.99 688.93 405.96 676.49 404.59 C 666.10 389.54 658.78 371.61 659.60 353.06 C 660.15 338.33 666.18 323.96 676.13 313.10 M 699.45 314.45 C 689.53 322.58 683.91 334.87 681.47 347.25 C 678.28 363.50 681.42 381.35 691.81 394.51 C 698.51 394.53 705.31 394.76 711.84 392.99 C 721.96 390.79 731.01 384.11 735.88 374.93 C 742.64 362.49 743.47 347.89 743.25 334.01 C 743.01 331.38 743.56 328.38 741.73 326.20 C 736.73 318.91 730.17 312.03 721.50 309.38 C 713.87 307.06 705.48 309.46 699.45 314.45 Z" />
<path fill="#000000" opacity="1.00" d=" M 699.45 314.45 C 705.48 309.46 713.87 307.06 721.50 309.38 C 730.17 312.03 736.73 318.91 741.73 326.20 C 743.56 328.38 743.01 331.38 743.25 334.01 C 743.47 347.89 742.64 362.49 735.88 374.93 C 731.01 384.11 721.96 390.79 711.84 392.99 C 705.31 394.76 698.51 394.53 691.81 394.51 C 681.42 381.35 678.28 363.50 681.47 347.25 C 683.91 334.87 689.53 322.58 699.45 314.45 Z" />
<path fill="#ffffff" opacity="1.00" d=" M 312.27 333.28 C 319.69 330.88 327.35 329.15 335.12 328.39 L 335.93 328.75 C 340.20 341.23 340.67 354.67 345.17 367.09 C 348.02 376.39 356.56 384.65 366.74 384.02 C 368.70 381.11 369.50 377.27 367.85 374.03 C 364.52 367.03 358.25 361.75 355.76 354.29 C 353.15 347.56 354.00 340.14 356.14 333.41 C 375.01 336.69 393.28 345.46 406.22 359.81 C 420.19 375.01 427.98 394.81 432.31 414.74 C 440.94 414.75 449.57 414.75 458.21 414.74 C 458.28 411.36 458.41 407.60 456.24 404.78 C 451.75 398.79 442.83 398.73 438.48 392.59 C 435.68 388.72 436.68 383.79 437.40 379.44 C 443.29 383.71 450.73 384.56 457.80 384.29 C 463.32 406.59 461.84 430.64 452.88 451.86 C 441.73 479.17 421.39 501.26 400.96 521.96 C 397.94 525.31 394.72 528.49 391.41 531.54 C 388.22 526.35 389.34 520.18 390.47 514.57 C 392.43 505.06 393.88 495.21 391.91 485.57 C 387.75 486.83 383.60 488.42 380.17 491.17 C 376.26 494.06 373.02 498.29 368.02 499.33 C 362.04 500.28 356.30 497.81 350.78 495.89 C 352.98 504.14 358.52 510.79 363.63 517.41 C 366.78 521.62 370.00 526.50 369.51 532.01 C 369.01 538.06 364.82 542.88 360.85 547.13 C 365.17 548.17 370.12 548.74 373.91 545.90 C 377.48 543.29 381.60 540.95 386.23 541.82 C 375.09 552.27 368.70 567.16 355.82 575.81 C 348.63 580.87 339.69 582.48 331.06 582.60 C 336.74 572.75 337.34 561.01 336.04 549.96 C 334.17 533.56 329.38 517.35 330.72 500.70 C 324.59 502.97 321.72 509.85 315.26 511.50 C 318.19 526.80 321.40 542.37 320.11 558.02 C 319.37 566.59 316.50 576.07 308.75 580.81 C 300.04 586.08 289.25 584.65 279.82 582.43 C 280.31 576.42 282.91 570.50 287.79 566.78 C 295.64 560.49 306.60 557.00 310.68 546.97 C 308.43 542.82 305.02 539.24 300.57 537.49 C 297.42 535.90 292.98 534.87 292.11 530.89 C 291.45 525.76 293.61 520.87 295.31 516.16 C 288.49 516.55 280.41 518.62 277.56 525.60 C 273.68 535.85 278.10 546.66 279.29 556.93 C 274.74 558.44 270.87 561.27 266.94 563.92 C 263.27 566.42 258.83 567.30 254.46 567.38 C 254.42 560.71 255.72 553.98 254.41 547.36 C 253.89 544.73 252.53 541.87 249.82 540.96 C 246.44 539.90 242.87 540.74 239.50 541.34 C 246.64 527.07 263.24 520.62 270.00 506.08 C 263.55 504.30 256.01 504.07 250.57 508.57 C 245.87 512.56 240.68 516.66 234.13 516.42 C 234.04 511.05 234.78 505.59 233.80 500.29 C 233.44 497.85 231.17 496.68 229.37 495.38 C 236.70 486.70 246.57 480.36 257.55 477.40 C 278.33 471.71 300.76 473.84 320.90 481.05 C 322.56 478.69 324.53 476.12 324.02 473.04 C 323.45 467.05 317.74 463.20 312.45 461.52 C 310.09 460.58 307.33 460.92 305.12 459.65 C 305.11 457.43 305.59 454.93 307.56 453.60 C 312.51 450.45 319.10 452.31 324.02 449.11 C 326.90 447.12 326.52 443.24 325.82 440.27 C 321.65 436.41 315.58 434.91 310.01 435.63 C 303.84 436.46 298.34 439.75 293.57 443.59 C 286.15 449.68 280.17 457.32 274.75 465.19 C 269.40 462.07 263.24 460.08 257.00 460.71 C 247.59 461.26 239.38 466.79 230.05 467.70 C 226.26 468.15 222.55 467.07 219.07 465.70 C 218.92 455.54 219.03 445.38 219.01 435.22 C 227.45 435.32 236.15 435.95 244.30 433.29 C 248.29 432.02 252.09 429.55 254.11 425.79 C 255.44 423.23 253.79 419.60 250.83 419.27 C 243.58 418.05 236.37 421.12 229.11 419.90 C 228.67 408.21 228.82 395.55 235.33 385.35 C 239.36 378.87 246.61 375.31 253.92 374.01 C 253.48 377.64 252.57 381.51 254.05 385.04 C 256.07 390.00 261.76 392.21 263.82 397.15 C 264.88 399.55 264.69 402.21 264.57 404.76 C 274.88 407.06 285.43 408.21 296.00 408.00 C 309.50 408.28 324.06 407.42 336.02 414.88 C 338.35 412.26 340.52 408.78 339.17 405.16 C 337.00 399.42 332.41 394.91 330.71 388.95 C 314.80 388.36 299.87 395.72 283.98 395.01 C 281.01 394.95 278.06 394.59 275.12 394.28 C 274.85 391.75 274.79 389.18 274.05 386.74 C 271.95 379.89 265.66 375.03 264.53 367.78 C 264.19 364.86 263.79 361.59 264.95 358.83 C 279.86 348.92 295.15 339.00 312.27 333.28 M 359.39 425.40 C 354.97 432.08 354.24 440.55 355.58 448.28 C 355.68 451.63 359.32 452.94 361.97 453.97 C 371.66 456.93 381.89 455.21 391.84 455.54 C 391.35 452.52 390.85 449.39 391.65 446.37 C 392.73 441.76 396.40 438.24 397.35 433.58 C 397.93 430.54 397.83 427.25 396.68 424.36 C 392.15 418.33 384.57 414.47 376.96 415.00 C 369.84 415.33 363.21 419.45 359.39 425.40 Z" />
<path fill="#ffffff" opacity="1.00" d=" M 957.00 395.55 C 972.04 418.20 985.48 442.28 993.35 468.44 C 1000.03 490.26 1002.58 513.19 1002.27 535.96 C 989.70 488.35 966.09 444.16 957.00 395.55 Z" />
<path fill="#000000" opacity="1.00" d=" M 359.39 425.40 C 363.21 419.45 369.84 415.33 376.96 415.00 C 384.57 414.47 392.15 418.33 396.68 424.36 C 397.83 427.25 397.93 430.54 397.35 433.58 C 396.40 438.24 392.73 441.76 391.65 446.37 C 390.85 449.39 391.35 452.52 391.84 455.54 C 381.89 455.21 371.66 456.93 361.97 453.97 C 359.32 452.94 355.68 451.63 355.58 448.28 C 354.24 440.55 354.97 432.08 359.39 425.40 Z" />
<path fill="#000000" opacity="1.00" d=" M 890.45 582.69 C 894.21 584.91 898.17 588.22 898.00 593.04 C 897.18 600.67 892.09 606.81 888.05 613.01 C 882.12 621.61 875.86 630.63 874.45 641.25 C 869.29 674.20 879.71 707.36 874.90 740.34 C 866.27 736.71 863.54 726.81 861.16 718.63 C 855.88 696.46 855.52 673.39 856.91 650.75 C 857.93 639.29 858.98 627.51 863.86 616.93 C 869.85 603.56 880.02 592.73 890.45 582.69 Z" />
<path fill="#000000" opacity="1.00" d=" M 676.21 627.03 C 696.08 618.47 716.78 611.70 738.08 607.81 C 737.93 610.20 738.29 612.85 736.83 614.93 C 735.18 617.47 733.42 619.98 732.47 622.90 C 756.84 622.41 780.55 628.44 804.21 633.38 C 803.37 638.11 799.93 642.09 795.14 643.08 C 781.48 646.27 767.47 641.97 753.67 643.59 C 758.68 647.41 764.07 651.25 767.08 656.95 C 768.16 658.93 768.15 661.83 765.93 663.03 C 762.12 664.89 757.71 664.06 753.63 664.28 C 766.09 675.72 784.13 680.29 793.99 694.66 C 787.45 698.47 779.35 699.56 772.19 696.89 C 756.22 691.12 745.66 676.32 730.00 669.97 C 727.51 668.62 724.75 669.79 722.23 670.36 C 706.62 674.56 693.30 684.10 680.30 693.31 C 667.35 702.43 653.72 711.59 637.91 714.69 C 624.08 717.56 609.68 715.29 596.57 710.42 C 593.79 709.00 591.27 711.96 590.57 714.41 C 588.69 721.24 590.66 728.46 589.25 735.35 C 588.75 737.95 586.72 740.69 583.80 740.46 C 571.77 740.61 559.65 744.13 547.70 741.44 C 542.75 740.36 538.23 737.99 533.97 735.33 C 525.74 741.04 524.55 751.83 523.57 760.99 C 522.22 771.93 522.89 783.99 516.58 793.58 C 514.55 797.15 509.93 797.93 506.25 796.91 C 504.46 795.85 503.54 793.83 503.37 791.83 C 502.85 786.52 504.04 781.23 503.65 775.92 C 500.60 777.21 497.65 778.92 495.61 781.61 C 488.77 790.43 488.65 802.75 481.24 811.24 C 477.99 815.10 472.91 816.49 468.07 816.91 C 467.45 804.27 468.85 790.21 478.03 780.63 C 475.45 778.49 471.83 776.31 468.60 778.56 C 461.35 783.13 457.12 791.44 449.27 795.24 C 445.60 797.15 441.32 797.26 437.33 796.51 C 438.35 788.87 440.75 781.39 444.76 774.79 C 452.46 761.87 464.77 752.60 473.06 740.12 C 468.89 738.71 464.25 738.44 460.15 740.25 C 455.48 741.78 451.32 745.73 446.16 745.15 C 442.13 743.26 441.78 737.93 443.05 734.21 C 444.41 730.48 448.51 729.01 452.08 728.32 C 457.77 727.01 464.08 727.39 469.17 724.14 C 479.34 717.55 487.19 708.13 496.72 700.74 C 497.91 699.68 499.43 699.21 500.99 699.05 C 523.02 695.78 544.54 689.54 565.15 681.14 C 603.44 665.77 638.29 643.19 676.21 627.03 M 688.10 666.03 C 691.60 669.31 698.70 669.29 701.25 664.92 C 701.21 662.29 698.63 660.76 697.10 658.94 C 693.69 660.72 690.01 662.48 688.10 666.03 M 613.63 688.60 C 609.43 690.80 606.66 694.93 605.51 699.45 C 620.59 699.60 635.66 699.40 650.74 699.56 C 652.52 692.44 658.86 687.73 661.06 680.83 C 662.10 677.80 659.44 675.33 656.87 674.35 C 644.69 684.72 627.13 681.19 613.63 688.60 M 554.44 717.46 C 550.24 720.13 549.33 725.40 549.38 730.02 C 557.48 730.57 566.70 730.86 573.30 725.31 C 577.85 721.64 579.48 715.72 579.97 710.13 C 571.60 713.06 562.09 712.59 554.44 717.46 Z" />
<path fill="#ffffff" opacity="1.00" d=" M 688.10 666.03 C 690.01 662.48 693.69 660.72 697.10 658.94 C 698.63 660.76 701.21 662.29 701.25 664.92 C 698.70 669.29 691.60 669.31 688.10 666.03 Z" />
<path fill="#ffffff" opacity="1.00" d=" M 613.63 688.60 C 627.13 681.19 644.69 684.72 656.87 674.35 C 659.44 675.33 662.10 677.80 661.06 680.83 C 658.86 687.73 652.52 692.44 650.74 699.56 C 635.66 699.40 620.59 699.60 605.51 699.45 C 606.66 694.93 609.43 690.80 613.63 688.60 Z" />
<path fill="#ffffff" opacity="1.00" d=" M 554.44 717.46 C 562.09 712.59 571.60 713.06 579.97 710.13 C 579.48 715.72 577.85 721.64 573.30 725.31 C 566.70 730.86 557.48 730.57 549.38 730.02 C 549.33 725.40 550.24 720.13 554.44 717.46 Z" />
<path fill="#000000" opacity="1.00" d=" M 299.98 739.89 C 301.80 735.77 307.09 735.53 310.91 735.77 C 321.94 741.17 332.50 747.52 342.85 754.14 C 357.31 763.65 371.31 774.14 382.96 787.03 C 396.11 801.94 405.76 819.89 410.99 839.06 C 416.61 859.82 417.95 881.54 417.00 902.95 C 411.65 900.92 406.27 897.60 404.16 891.99 C 399.85 880.92 405.42 868.89 402.21 857.63 C 396.02 838.14 385.52 820.20 372.57 804.45 C 351.92 779.25 325.72 759.52 299.98 739.89 Z" />
</svg>
