<?xml version="1.0" encoding="utf-8"?>
<!-- Generator: Adobe Illustrator 15.0.2, SVG Export Plug-In . SVG Version: 6.00 Build 0)  -->
<!DOCTYPE svg PUBLIC "-//W3C//DTD SVG 1.1//EN" "http://www.w3.org/Graphics/SVG/1.1/DTD/svg11.dtd">
<svg version="1.1" id="Layer_1" xmlns="http://www.w3.org/2000/svg" xmlns:xlink="http://www.w3.org/1999/xlink" x="0px" y="0px"
	 width="202px" height="196px" viewBox="0 0 202 196" enable-background="new 0 0 202 196" xml:space="preserve">
<path fill="#FFFFFF" d="M0,0h112.891c0.799,1.6,1.379,1.6,1.75,0H202v44.57c-2.15-0.16-4.3-0.18-6.439-0.2
	c-0.061,3.13-0.311,6.35,0.729,9.36c0.29-1.6,0.54-3.21,0.76-4.83c0.89-0.02,2.69-0.06,3.591-0.08l-0.051-0.93
	c-1.05-0.05-3.17-0.14-4.22-0.19c0.229-3.21,3.399-2.22,5.63-2.35v13.89c-2.1-0.55-4.27-0.68-6.42-0.83
	c-0.09,3.21-0.189,6.47,0.68,9.6c0.2-1.06,0.59-3.18,0.78-4.24c1.46-0.22,2.92-0.45,4.38-0.7c-1.54-0.43-3.08-0.92-4.6-1.42
	c0.02-0.59,0.05-1.77,0.07-2.36c1.699,0.09,3.409,0.16,5.109,0.32V196h-7.84c3.689-1.359,2.9-5.51,3.07-8.609
	c-0.34-0.031-1.03-0.08-1.381-0.11c-0.05,2.43-0.14,4.86-0.32,7.3c-0.93-0.15-2.799-0.45-3.729-0.6c-0.51-2.57-0.54-5.19-0.94-7.771
	c-1.26,3.3-1.489,7.31,1.471,9.79h-6.82c3.35-1.67,2.51-5.641,2.76-8.689c-0.369,0.01-1.1,0.02-1.459,0.029
	c-0.041,2.43-0.101,4.87-0.24,7.301c-0.93-0.16-2.791-0.5-3.721-0.671c-0.459-2.579-0.49-5.229-1.31-7.739
	c-0.74,3.41-1.04,7.359,2.01,9.77h-7c3.421-1.7,2.5-5.67,2.71-8.75c-0.34,0-1.039-0.01-1.39-0.01c-0.03,2.46-0.08,4.93-0.22,7.39
	c-0.94-0.149-2.82-0.47-3.76-0.62c-0.451-2.6-0.381-5.29-1.33-7.77c-0.551,3.4-1.19,7.58,2.219,9.76h-7.17
	c3.801-1.78,2.98-6.52,1.82-9.74c-0.41,2.631-0.55,5.29-0.699,7.95c-1.32,0.03-2.631,0.04-3.951,0.05
	c-0.09-2.35-0.129-4.689-0.17-7.04c-0.35,0-1.069-0.01-1.43-0.01c0.141,3.09-0.47,6.74,2.521,8.78l-0.729,0.01h-6.33
	c3.909-1.75,3.289-6.51,1.909-9.76c-0.38,2.6-0.479,5.24-0.56,7.869c-1.391,0.091-2.79,0.171-4.18,0.23
	c-0.051-2.41-0.08-4.82-0.101-7.23c-0.37,0.031-1.101,0.091-1.47,0.121c0.14,3.09-0.52,6.75,2.52,8.76l-0.77,0.01h-6.58
	c0.72-0.439,2.14-1.33,2.859-1.78c-0.119-2.61-0.149-5.239-0.629-7.819c-0.301,2.609-0.341,5.24-0.391,7.869
	c-1.359,0.021-2.721-0.02-4.08-0.119c-0.34-2.34-0.35-4.711-0.42-7.07c-0.37,0.04-1.1,0.12-1.471,0.16
	c0.011,3.07-0.159,6.359,2.121,8.76h-6.41c3.34-2.141,2.3-6.34,1.71-9.58c-0.3,2.561-0.36,5.15-0.41,7.73
	c-1.431,0.06-2.86,0.119-4.29,0.16c-0.029-2.711-0.08-5.42-0.439-8.101c-1.67,3.12-1.69,7.33,1.199,9.78l-0.77,0.01h-6.12
	c0.819-0.8,1.64-1.609,2.45-2.43c0-2.101,0.029-4.2,0.06-6.301c-0.239,0.011-0.72,0.041-0.96,0.061c0.03,2.279,0.07,4.57,0.109,6.85
	c-1.539,0.051-3.079,0.08-4.609,0.101c-0.12-2.07-0.24-4.13-0.32-6.2l-0.789,0.1c0.299,2.61,0.609,5.221,1.039,7.82h-6.06
	c2.899-1.8,2.601-5.33,2.601-8.29c4.389-2.29,8.219-5.46,12.5-7.91c1.75,0.67,3.85,2.3,5.719,0.98c2.061-0.95,1.931-3.64,1.281-5.44
	c0.279-0.39,0.83-1.17,1.109-1.56l1.45-1.15c0.04,2.521,0.04,5.05-0.021,7.58c2.051,0.931,4.85,2,6.471-0.319
	c0.459-2.341,0.26-4.74,0.33-7.11c-0.371-0.101-1.11-0.32-1.48-0.421c0.01,2.671,0.01,5.351,0,8.031
	c-0.99-0.011-2.971-0.031-3.971-0.031c-0.26-2.93-0.439-5.879-1.27-8.719c1.99-3.58,6.45-7.141,4.78-11.631
	c-0.21-0.369-0.63-1.109-0.84-1.49l-0.88,0.2c-3.471-1.14-6.041-4.14-9.43-5.56c-0.021-0.96-0.061-2.87-0.08-3.82
	c1.489-0.25,3-0.49,4.479-0.83c-1.11-0.07-3.31-0.21-4.42-0.279c-0.021-0.721-0.06-2.15-0.091-2.871
	c1.711-0.189,3.431-0.359,5.131-0.619c-2.16-0.12-4.311-0.18-6.471-0.24c0.031,2.42,0.07,4.83,0.131,7.26
	c-0.641-0.119-1.92-0.35-2.561-0.47c-0.449-0.2-1.33-0.61-1.779-0.81c2-3.371,2.629-7.221,2.47-11.08
	c-0.62-0.2-1.841-0.59-2.46-0.78c-0.5-10.851,0.8-21.75-0.61-32.58c0.72-5.431-0.42-11.42-4.61-15.26
	c-0.1-1.21-0.289-3.62-0.39-4.83c-0.87,1.74-1.25,3.65-1.67,5.53c-0.601-1.56-1.16-3.14-1.76-4.7c0.78-0.58,1.56-1.16,2.329-1.74
	c-0.979-1.25-1.949-2.49-2.949-3.71c-2.13-4.14-5.62-7.86-5.51-12.81c-1.141-2.75-1.93-5.62-2.69-8.48
	c-3.239-2.75-6.62-5.61-8.43-9.55c-3.79-4.61-8.9-7.78-13.71-11.2c2.11-0.31,4.22-0.68,6.32-1.12c-2.36-1.61-5.271-0.66-7.891-0.54
	c-6.29-2.28-13.47-2.61-19.91-0.68c-3.97,1.01-8.06,1.46-12.06,2.29c-4.01,1.229-7.72,3.32-11.81,4.36
	c-2.11,0.63-4.35,1.04-6.19,2.33c-2.93,1.69-4.53,4.8-6.92,7.1c-2.03,3.02-4.55,5.64-7.01,8.31c-1.5-0.38-3-0.75-4.5-1.12
	c0.31,0.75,0.92,2.24,1.23,2.99c-3.46-0.21-6.95-0.68-10.4-0.05c3.44,1.3,7.17,0.89,10.76,1.17c-2.15,1.99-4.76,3.76-5.59,6.74
	c-0.76,2.75-2.79,4.76-5.01,6.42c-0.15-2.29-0.2-4.59-0.42-6.87c-1.11,3.36-0.38,6.95-0.95,10.38c-1.64,3.02-4.78,6.65-1.8,9.96
	c0.34-1.82,0.58-3.64,0.81-5.47c0.43,1.72,1.1,3.37,2.19,4.78c0.35-3.36-0.38-6.94,1.05-10.12c2.98-6,9.91-8.87,12.58-15.06
	c3.38,0.74,6.95,1.12,9.9,3.06c4.55,2.53,7.61,6.84,10.9,10.73c-4.87-1.58-11.31-3.49-15.5,0.45c-2.27,2.02-5.75,2.77-7.02,5.77
	c-1.8,3.71-4.67,8.14-2.48,12.27c1.43,3.271,1.79,6.84,2.41,10.31c1.08,1.891,2.37,3.721,4.06,5.11
	c5.81,2.03,13.65,2.75,17.73-2.899c-0.7-0.431-1.4-0.86-2.1-1.281c-1.25,1.341-2.52,2.65-3.77,3.99c-3.97-0.08-9.01,0.73-11.87-2.72
	c-3.12-2.8-2.27-7.35-3.5-10.979c2.75-1.17,5.73-2.21,7.8-4.47c1.1-1.92-0.43-4.02-1.06-5.84c-2.32-0.04-4.65-0.09-6.97-0.09
	c1.98-4.62,6.65-6.57,10.59-9.13c4.88-0.96,10.08,0.78,14.15,3.47c1.05,1.97,1.23,4.25,1.65,6.4c1.52,0.5,3.06,0.95,4.67,1.05
	c-0.52-1.84-3.01-2.46-2.98-4.48c0.94-0.61,1.89-1.21,2.85-1.8c-3.31-1.92-5.09-5.49-8.32-7.49c-1.36-1.84-2.76-3.66-4.33-5.34
	c2.22,0.07,4.64,0.19,5.9-2.02c-6.38-3.78-14.24-3.46-20.62-7.24c2.85-4.07,6.66-7.32,9.47-11.41c2.68-2.44,6.12-4.03,9.46-5.38
	c4.95-0.67,9.99-0.45,14.98-0.32c3.84,0.73,7.69,1.38,11.61,1.48c-0.05,1.06-0.11,2.11-0.16,3.16c-1.38,0.28-2.76,0.55-4.14,0.81
	c-0.23,2.56-0.31,5.13-0.71,7.67c-1.61,4.97-6.06,9.64-4.41,15.18c0.33,1.44,1.54,2.43,2.39,3.57c0.11,0.41,0.32,1.23,0.43,1.64
	c-0.92,0.86-1.82,1.73-2.69,2.64c2.77,0.07,5.54-0.34,8.13-1.33c-0.15-3.19-0.59-6.42-0.05-9.58c0.97-3.86,5.01-5.89,6.15-9.64
	c1.06-2.88,0.39-6,0.93-8.95c1.17-1.63,2.59-3.07,3.86-4.62c2.57,0.41,5.12,0.98,7.7,1.29c-1.25-1.13-2.61-2.12-3.97-3.1
	c1.51-1.34,3.05-2.65,4.63-3.91c3.46,3.86,9.391,5.33,11.38,10.42c0.46,2.72,4.171,3.27,3.62,6.42c1.551,4.86,2.359,10.38,6.311,14
	c6.14,6.16,7.199,15.08,10.02,22.92c2.92,4.67,4.189,10.36,2.32,15.681c-0.641,0.08-1.93,0.229-2.57,0.31
	c-0.141,2.51-0.2,5.021-0.27,7.54c-1.75-5.32-4.791-10.01-7.101-15.061c-1.771-1.68-3.54-3.359-5.229-5.109
	c2.039-1.71,4.449-3.37,4.859-6.22c0.76-3.75,1.391-8.47-1.71-11.36c-0.079-1.11-0.149-2.22-0.22-3.33
	c-2.189-2.3-4.26-4.75-5.891-7.5c-3.31-2.32-5.109-6.03-7.01-9.47c-3.64-1.96-7.57-3.53-11.79-3.15c-1.13,0.9-2.26,1.8-3.39,2.7
	c0.53,0.42,1.58,1.28,2.11,1.71c0.26-0.65,0.77-1.95,1.03-2.6c5.35-0.83,10.93,2.01,13.04,7.06c0.891,2.33,2.78,4,4.75,5.42
	c-0.68,1.26-1.359,2.52-2,3.79c-2.26-0.36-4.5-0.77-6.74-1.24c-0.14-2.12-0.23-4.24-0.49-6.34c-0.4,0.07-1.19,0.22-1.59,0.29
	c-0.34,2.51-0.23,5.06-0.19,7.59c3.46,1.01,7.03,1.7,10.66,1.69c0.21-0.91,0.62-2.73,0.83-3.64c1.59,1.42,3.16,2.86,4.75,4.28
	c0.02,1.16,0.05,2.33,0.08,3.5c2.49,2.21,2.97,5.37,2.689,8.54c-1.35,2.5-2.439,5.37-5.17,6.69c-3.13,2.32-7.14,1.65-10.77,1.73
	c-4.63,0.17-8.59-2.64-12.92-3.83c-3.44-1.01-4.15-4.93-5.91-7.58c-1.04-2.11-3.01-3.7-3.68-5.979c1.01-3.7,3.56-6.79,4.99-10.36
	c2.74-1.94,5.36-4.04,7.77-6.38c1.77-1.07,4.34-1.72,4.51-4.18c-4.94,0.57-8,5.2-11.86,7.87c-2.9,1.6-3.36,5.17-5.27,7.63
	c-1.93,2.6-3.59,6.97-0.59,9.39c2.64,2.1,3.56,5.37,4.74,8.38c-5.09,0.2-10.26-0.47-15.3,0.33c-4.4,0.82-6.3,5.38-10.18,7.11
	c1.58-4.74,5.26-9.14,4.25-14.44c-0.74-0.34-2.22-1.02-2.97-1.35c2.09,4.46-0.29,9.16-2.56,13.03c-2.3,3.27-4.16,7.03-7.58,9.32
	c0.78,0.471,1.57,0.94,2.36,1.4c-2.35,3.55-5.01,7.029-6.02,11.25c-2.05,5.9-2.04,12.439-5.03,18.029
	c-1.07,1.961-1.29,4.211-1.54,6.381c-4.2-1.9-9.01-1.67-13.23-3.4c-3.08-2.63-4.48-6.76-7.82-9.189
	c-2.75-1.971-4.69-4.721-6.42-7.57c-0.16-5.1,0.69-10.17,0.35-15.271c0.21-6.159,0.72-12.76,4.49-17.9
	c-0.49-0.56-0.98-1.11-1.46-1.66c-3.74,5.33-3.77,11.93-4.43,18.13l-1.1-0.07c0.02-7.06,0.29-14.14-0.45-21.18
	c-0.35,0.29-1.05,0.87-1.4,1.16c0.82,13.5,0.77,27.08,0.28,40.59c3.96,5.39,0.79,12.96,4.79,18.271c1.78,2.85,3.25,5.869,5,8.729
	c0.68,7.5,2.3,15.64,7.52,21.399c-0.25-4.229-3.66-7.35-4.37-11.449c-0.61-3.131-1.25-6.26-1.51-9.44c2.74,3.57,5.4,7.2,7.99,10.86
	c4.13,3.21,9.48,4.4,13.64,7.63c0.17-0.54,0.5-1.62,0.67-2.16c7.8,4.14,12.23,12.63,20.61,15.931c0.39,0.369,1.17,1.1,1.57,1.459
	c4.07,0.971,8.01,2.391,11.91,3.9c11.4,0.77,22.82,0.48,34.24,0.55c3.01,0.2,5.65-1.439,8.43-2.319c0.49,1.539,1.029,3.069,1.58,4.6
	H0V43.17c0.53,0.38,1.59,1.15,2.12,1.53c0.65,1.99,1.03,4.15,2.34,5.84c3.01,0.91,6.18,0.23,9.01-0.95
	c-0.59-4.1,2.86-6.86,5.55-9.34c3.84-2.62,7.08-6.54,11.83-7.5c2.7-0.09,5.38,0.46,8.06,0.73c2.89,2.31,6.64,3.11,9.56,5.37
	c0.48-0.13,1.45-0.39,1.93-0.52c2.3-3.62,4.11-7.61,7.03-10.79c1.25-0.14,2.52-0.07,3.79-0.06c2.92,2.74,6.63,5.21,10.84,4.8
	c3.55-0.561,7.35-1.63,9.87-4.37c1.68-2.14,2.98-4.56,4.21-6.98c0.69-0.19,2.06-0.58,2.75-0.78c-4.25-4.27-10.08-6.73-15.94-7.81
	c-6.41-0.18-12.85-0.17-19.26,0.08c-0.2-2.78-2.01-4.91-3.92-6.77c-3.6-1.57-7.22-3.09-10.71-4.89c-7.61,0.49-15.33-1.49-22.83,0.4
	c-3.5,2.12-7.36,3.9-10.26,6.86c-1.15,2.92-2.27,5.86-3.91,8.55c-0.52,0.2-1.55,0.61-2.06,0.82V0 M99.55,15.57
	c0.4,2.94-1.24,6.75,1.14,9.05c0.07-1.02,0.2-3.06,0.26-4.08c1.489-0.2,3.01-0.34,4.44-0.84c-1.75-0.79-5.051-0.05-4.761-2.91
	c1.649-0.07,3.29-0.18,4.931-0.32C103.85,15.09,101.561,15.7,99.55,15.57 M107.029,15.5c0.07,3.05-1.219,6.67,0.941,9.23
	c0.129-1.46,0.229-2.92,0.309-4.39c1.58-0.05,3.16-0.16,4.73-0.3c-1.72-0.65-3.51-1.12-5.18-1.89c0.47-2.62,3.88-1.01,5.641-1.78
	C111.529,15.19,109.189,15.61,107.029,15.5 M114.65,15.53c0.27,2.979-0.871,6.36,0.83,9.02c0.08-1.01,0.22-3.04,0.289-4.05
	c1.59-0.17,3.221-0.24,4.73-0.83c-1.58-0.35-3.17-0.69-4.75-1.03c-0.91-3.13,3.42-1.49,5.061-2.3
	C118.939,15.23,116.721,15.62,114.65,15.53 M122.561,15.5c0.42,2.99-1.291,6.8,1.09,9.17c0.05-1.03,0.149-3.08,0.199-4.1
	c1.461-0.23,2.92-0.52,4.32-1.01c-1.561-0.31-3.13-0.6-4.699-0.85c0.389-3.3,4.239-1.51,6.479-2.11c0.17,2.67-1.171,5.97,0.94,8.19
	c0.159-1.46,0.289-2.93,0.389-4.4c1.431-0.11,2.861-0.25,4.291-0.42c-1.74-0.89-4.641-0.54-4.74-3.16c1.88-0.08,3.75-0.19,5.62-0.34
	c-1.601-1.29-3.71-0.84-5.591-0.729C128.09,16.04,125.33,15.57,122.561,15.5 M137.67,15.65c0,2.69-0.02,5.39-0.08,8.08
	c0.221,0.02,0.67,0.06,0.891,0.08c-0.03-0.84-0.101-2.52-0.141-3.36c1.73-0.12,3.561-0.02,5.16-0.83
	c-1.689-0.32-3.38-0.62-5.08-0.91c-0.99-3.04,2.93-1.65,4.641-2.09c-0.051-0.3-0.141-0.89-0.19-1.18
	C141.13,15.52,139.4,15.58,137.67,15.65 M145.25,15.61c-0.09,3.01-0.17,6.03,0.1,9.04c1.101-1.17,1.141-2.79,1.391-4.28
	c1.47-0.04,2.939-0.12,4.41-0.23c-1.381-1.32-3.801-0.66-4.95-2.11c0.21-2.32,3.239-0.9,4.739-1.41c-0.039-0.28-0.14-0.84-0.18-1.12
	C148.92,15.54,147.08,15.57,145.25,15.61 M152.82,15.58c0.3,3.03-0.881,6.52,1.01,9.19c0.08-1.06,0.24-3.18,0.32-4.24
	c1.52-0.17,3.07-0.3,4.47-0.96c-1.63-0.34-3.271-0.65-4.92-0.92c0.28-2.95,3.68-1.69,5.649-2.32
	C157.35,15.24,155.01,15.61,152.82,15.58 M160.6,15.53c0,2.76-0.01,5.52-0.07,8.28c0.25,0,0.74-0.01,0.99-0.01
	c-0.039-0.84-0.129-2.54-0.17-3.38c1.75-0.13,3.631,0.09,5.2-0.88c-2.09-0.62-5.6,0.45-5.51-2.8c2.319-0.05,4.64-0.01,6.96-0.19
	c-0.08,2.56-0.27,5.14-0.01,7.69c2.09,0.03,0.77-2.85,1.439-3.99c1.41,0.03,2.82,0.06,4.24,0.09c-0.12-0.29-0.37-0.86-0.5-1.14
	c-1.949-0.08-4.42,0.35-4.189-2.44c1.84-0.07,3.68-0.18,5.52-0.34c-1.471-1.11-3.35-0.81-5.061-0.68
	C166.49,16.11,163.55,15.59,160.6,15.53 M175.689,15.62c0.23,3.03-0.779,6.41,0.891,9.15c0.09-1.05,0.27-3.17,0.359-4.23
	c1.541-0.2,3.11-0.32,4.58-0.84c-1.539-0.86-5.449,0.06-4.709-2.85c1.66-0.17,3.319-0.2,4.979-0.27c-0.261-0.26-0.78-0.8-1.04-1.07
	C179.061,15.55,177.37,15.59,175.689,15.62 M183.51,15.56c0.37,3.01-1.01,6.61,1.061,9.17c0.109-1.04,0.33-3.12,0.439-4.15
	c1.43-0.26,2.86-0.55,4.26-0.93c-1.799-0.69-4.699-0.2-4.75-2.88c2.15-0.03,4.301,0,6.44-0.16c-0.16,2.7-0.22,5.42,0.05,8.12
	c1.33-1.05,1.17-2.78,1.41-4.27c1.46-0.15,3.03-0.11,4.301-0.98c-1.07-0.15-3.201-0.44-4.271-0.59c-1.65-3.38,3.28-1.89,5.03-2.49
	c-1.84-1.31-4.16-0.77-6.24-0.59C188.67,15.48,186.08,15.56,183.51,15.56 M110.05,30.02c-0.3,2.83-0.13,5.67-0.19,8.51
	c0.381,0,1.16,0.02,1.541,0.03c-0.03-1.25-0.051-2.51-0.08-3.76c1.109-0.04,3.31-0.11,4.41-0.15c-1.051-1.37-2.82-1.14-4.33-1.34
	l-0.131-1.92c1.621-0.11,3.26-0.14,4.891-0.34C115.529,28.56,111.93,30.15,110.05,30.02 M117.96,29.97
	c-0.3,2.78-0.16,5.58-0.21,8.36c0.38,0.07,1.15,0.22,1.54,0.29c-0.05-1.27-0.09-2.54-0.13-3.81c1.13-0.05,3.4-0.14,4.529-0.19
	c-1.109-1.42-2.969-1.07-4.52-1.28l0.03-2.12c1.521,0.03,3.03,0.061,4.55,0.09c0-0.39,0-1.17-0.01-1.56
	C121.811,29.81,119.88,29.75,117.96,29.97 M125.48,29.71c-0.03,3.19-0.51,6.49,0.52,9.59c0.35-1.52,0.66-3.05,0.939-4.58
	c0.82,0.05,2.471,0.14,3.301,0.19c0.119-0.32,0.359-0.96,0.48-1.29c-1.66-0.42-4.521,0.67-4.521-2.14c2-0.2,4.01-0.32,6-0.67
	C130.15,29.63,127.75,29.81,125.48,29.71 M133.439,29.95c0.011,2.76-0.029,5.52-0.119,8.27c0.18-2.65,2.08-3.93,4.619-3.59
	c-0.02-0.25-0.069-0.76-0.09-1.02c-1.42-0.53-5.029,0.8-3.979-2.07c1.59-0.21,3.2-0.29,4.8-0.37c0.03-0.35,0.09-1.07,0.12-1.42
	C137,29.82,135.221,29.88,133.439,29.95 M148.25,29.71c-0.16,3.1-0.189,6.21,0,9.32c1.109-1.05,1.57-2.4,1.359-4.03
	c1.591-0.19,3.181-0.39,4.761-0.66c-1.74-1.27-5-0.04-5.37-2.82c1.939-0.2,3.891-0.33,5.82-0.61
	C152.98,29.33,150.45,29.93,148.25,29.71 M156.29,29.67c-0.06,2.74-0.09,5.49-0.149,8.23l0.699,0.06c0.01-0.78,0.03-2.35,0.051-3.13
	c1.5-0.01,3.01-0.01,4.52-0.01l0.01-1.25c-1.859-0.21-4.46,0.61-4.98-1.97c1.94-0.26,3.9-0.45,5.83-0.82
	C160.42,29.8,158.32,29.78,156.29,29.67 M163.66,30.03c0.21,3.08-0.58,6.42,0.93,9.28c0.26-1.46,0.48-2.91,0.67-4.38
	c1.36-0.18,2.9-0.01,3.92-1.14c-1.619-0.6-4.84,0.62-4.449-2.43c1.529-0.06,3.06-0.09,4.58-0.12c0.09-0.39,0.25-1.16,0.33-1.55
	C167.641,29.8,165.65,29.89,163.66,30.03 M186.73,29.88c-0.09,3.09-0.19,6.2,0.08,9.28c1.01-1.19,1-2.79,1.27-4.25
	c1.439-0.13,2.88-0.3,4.311-0.51c-1.641-1.23-4.851-0.18-4.91-3.05c1.609-0.06,3.229-0.08,4.84-0.11c0.08-0.37,0.22-1.13,0.3-1.51
	C190.65,29.8,188.689,29.84,186.73,29.88 M194.52,29.76c0,2.97,0,5.95-0.01,8.93c0.2-0.02,0.61-0.05,0.82-0.06
	c-0.02-1.28-0.04-2.56-0.051-3.84c0.931,0,2.781,0,3.711,0c-0.051-0.34-0.16-1.03-0.221-1.38c-0.85,0.04-2.56,0.12-3.41,0.16
	l-0.09-2.26c1.51,0,3.021-0.04,4.53-0.13C200.359,28.52,196.07,30.36,194.52,29.76 M140.76,29.78c0.061,3.189-0.539,6.54,0.78,9.56
	c0.271-1.53,0.51-3.07,0.72-4.61c1.23,0.04,2.461,0.07,3.69,0.09c-0.05-0.35-0.14-1.04-0.19-1.39c-0.9,0.03-2.699,0.09-3.6,0.12
	l-0.07-2.2c1.801-0.28,4.09,0.48,5.4-1.25C145.25,29.87,143,29.82,140.76,29.78 M171.05,29.82c0.25,3.03-1.1,6.86,1.181,9.33
	c0.09-1.37,0.17-2.73,0.229-4.09c1.601-0.18,3.24-0.39,4.61-1.31c-1.551-0.15-3.09-0.26-4.641-0.32l-0.119-2.05
	c1.84-0.26,4.129,0.39,5.439-1.37C175.51,29.86,173.279,29.83,171.05,29.82 M179.16,29.82c-0.061,2.91-0.2,5.82-0.32,8.73l1.46-0.12
	c-0.03-0.86-0.09-2.56-0.13-3.42c1.721-0.11,3.439-0.33,4.95-1.2c-1.64-0.19-3.29-0.33-4.931-0.43l0.051-2.04
	c1.76-0.31,4.16,0.6,5.27-1.35C183.391,29.86,181.279,29.83,179.16,29.82 M30.94,36.07c2.4,3.84,5.37,7.74,4.53,12.58
	c0.44,0,1.34,0.01,1.78,0.01C37.69,43.95,36.37,37.12,30.94,36.07 M23.22,41.8c1.6,2.01,3.77,3.52,5.22,5.66
	c0.93,2.55,0.89,5.35,1.51,8c3.28-1.8,0.34-6.04,0.51-8.97C28.28,44.7,26.53,40.92,23.22,41.8 M119.33,44.46
	c-0.04,3.01-0.13,6.03,0.23,9.03c0.59-1.42,0.789-2.95,1.069-4.45c1.53-0.11,3.07-0.24,4.601-0.39c-1.74-0.54-3.561-0.84-5.24-1.55
	c0.109-2.75,3.07-1.35,4.71-1.75c0.01-0.27,0.05-0.81,0.06-1.08C122.95,44.33,121.141,44.39,119.33,44.46 M127.12,44.41
	c-0.22,3.03-0.28,6.08,0.159,9.09c1.261-1.2,1.031-3,1.291-4.55c1.06-0.06,3.18-0.17,4.24-0.23c-1.49-0.95-3.33-0.93-4.98-1.32
	c0.09-2.86,3.109-1.69,4.84-2.15c0.01-0.23,0.04-0.71,0.061-0.95C130.859,44.33,128.99,44.37,127.12,44.41 M134.6,44.4
	c-0.01,2.78-0.029,5.56-0.09,8.35c0.29,0.02,0.891,0.06,1.19,0.08c0.03-1.29,0.069-2.57,0.11-3.85c1.489-0.07,2.979-0.19,4.469-0.35
	c-1.59-0.6-3.279-0.88-4.93-1.21c0.33-3.05,3.91-1.57,5.86-2.77C139.01,44.36,136.8,44.36,134.6,44.4 M142.38,44.44
	c0.06,2.79,0.04,5.6-0.21,8.39l0.359,0.03c0.181-1.18,0.4-2.34,0.66-3.5c1.5-0.61,3.15-0.49,4.73-0.69
	c-0.33-0.18-0.99-0.54-1.33-0.72c-1.4-0.56-5.1,0.61-3.68-2.32c1.609-0.26,3.25-0.26,4.88-0.29c-0.021-0.25-0.08-0.75-0.101-1.01
	C145.91,44.37,144.141,44.4,142.38,44.44 M149.721,44.49c0.029,2.74,0.029,5.49,0,8.229c0.35,0.01,1.039,0.021,1.379,0.021
	c0.041-1.26,0.09-2.521,0.15-3.78c1.141-0.08,3.42-0.23,4.561-0.31c-1.41-0.93-3.16-0.77-4.74-0.99l0.029-2.21
	c1.7-0.07,3.4-0.19,5.101-0.35C154.2,44.02,151.88,44.46,149.721,44.49 M157.29,44.45c-0.05,2.8-0.06,5.59-0.06,8.39
	c0.34-0.02,1.02-0.06,1.359-0.08c0.02-1.25,0.04-2.5,0.07-3.76c1.54-0.13,3.09-0.29,4.63-0.48c-1.7-0.45-3.44-0.77-5.16-1.13
	c-0.06-2.9,2.91-1.7,4.591-2.04c0.039-0.26,0.119-0.77,0.149-1.03C161.01,44.36,159.15,44.4,157.29,44.45 M165.359,44.3
	c-0.029,2.83-0.1,5.67-0.199,8.5l0.68,0.07c0.02-1.2,0.051-2.4,0.08-3.6c1.76-0.21,3.52-0.41,5.27-0.73
	c-1.64-0.59-3.379-0.73-5.09-0.94l0.03-2.11c1.75-0.18,3.71,0.18,5.25-0.9C169.38,44.38,167.359,44.33,165.359,44.3 M172.68,44.45
	c0.12,3.01-0.6,6.21,0.631,9.06c0.299-1.43,0.619-2.86,0.959-4.29c1.431-0.26,2.86-0.5,4.301-0.74c-1.65-0.6-3.42-0.7-5.131-0.99
	c-0.029-3.09,3.271-1.8,5.101-2.22c0.021-0.23,0.05-0.7,0.06-0.93C176.63,44.37,174.65,44.41,172.68,44.45 M180.37,44.44
	c-0.021,3.02-0.091,6.04,0.19,9.05c0.91-1.29,0.989-2.88,1.189-4.39c1.5-0.21,3.01-0.4,4.5-0.67c-1.62-0.8-5.859,0.27-4.641-2.81
	c1.631-0.31,3.42-0.13,4.861-1.1C184.439,44.37,182.41,44.39,180.37,44.44 M188.24,44.36c-0.1,3.04-0.23,6.08,0.109,9.1
	c1.351-1.12,1.07-2.93,1.311-4.48c1.029-0.07,3.1-0.22,4.13-0.29c-1.46-0.86-3.181-0.91-4.78-1.23c0.28-2.94,3.7-1.58,5.471-2.9
	C192.41,44.34,190.32,44.34,188.24,44.36 M127.01,58.95c-0.15,2.94-0.789,6.21,0.77,8.89c0.111-1.02,0.33-3.04,0.441-4.06
	c1.59-0.24,3.439-0.01,4.6-1.39c-1.61-0.14-3.221-0.25-4.83-0.32c0.06-0.64,0.189-1.91,0.25-2.55c1.449-0.14,2.91-0.14,4.369-0.17
	c0-0.2,0.011-0.6,0.011-0.8C130.779,58.71,128.73,58.21,127.01,58.95 M134.46,58.61c-0.069,2.74-0.08,5.49-0.14,8.24
	c0.34,0.01,1.029,0.04,1.369,0.05c-0.01-0.8-0.029-2.4-0.039-3.2c1.52-0.1,3.05-0.22,4.58-0.38c-1.631-1.75-5.32-0.5-4.9-3.9
	c1.49,0,2.99,0.02,4.49,0.04c-0.03-0.23-0.08-0.7-0.1-0.93C137.96,58.56,136.21,58.58,134.46,58.61 M142.34,58.56
	c0.02,3.02-0.08,6.05,0.25,9.06c0.43-1.29,0.641-2.64,0.92-3.96c1.53-0.09,3.07-0.2,4.6-0.35c-1.25-1.38-3.219-1.14-4.889-1.38
	c0.02-0.65,0.059-1.95,0.079-2.6c1.49,0.05,2.97,0.1,4.46,0.15c0-0.23-0.01-0.7-0.01-0.93C145.939,58.57,144.141,58.57,142.34,58.56
	 M149.58,58.55c0.391,3.04-1.04,6.71,1.109,9.27c0.121-1.03,0.34-3.07,0.451-4.1c1.59-0.18,3.439,0.1,4.529-1.34
	c-1.529-0.13-3.061-0.23-4.59-0.3c-0.03-0.64-0.07-1.92-0.09-2.55c1.779-0.08,3.57-0.2,5.31-0.64
	C154.07,58.6,151.82,58.57,149.58,58.55 M157.15,58.59c-0.211,3.06-0.301,6.14,0.02,9.2c1.311-1.03,1.21-2.7,1.45-4.17
	c1.5-0.05,3-0.12,4.51-0.22c-1.479-2.16-5.84-0.22-4.93-4.04c1.51,0.03,3.03,0.07,4.54,0.13c0.029-0.24,0.07-0.7,0.1-0.94
	C160.939,58.57,159.05,58.58,157.15,58.59 M165.34,58.57c-0.109,3.03-0.24,6.08,0.131,9.1c0.52-1.27,0.709-2.63,1.01-3.96
	c1.52-0.17,3.319,0.15,4.319-1.32c-2.19-0.34-5.53,0.46-4.79-3c1.58,0.01,3.16,0.04,4.74,0.07c0-0.23-0.01-0.67-0.01-0.9
	C168.939,58.57,167.141,58.57,165.34,58.57 M172.57,58.6c0.38,3.02-1.17,6.81,1.209,9.21c0.08-1.01,0.23-3.05,0.311-4.06
	c1.53-0.21,3.35,0.07,4.391-1.36c-1.51-0.14-3.021-0.25-4.53-0.34c0-0.65,0.01-1.97,0.01-2.62c1.55-0.02,3.09-0.03,4.64-0.04
	c0-0.2,0-0.61,0.01-0.81C176.59,58.59,174.58,58.59,172.57,58.6 M180.391,58.59c0.029,2.76-0.051,5.51-0.201,8.26l0.69,0.02
	c0-0.76,0-2.29,0.011-3.05c1.489-0.55,4.18,0.55,4.869-1.3c-2.109-0.53-5.38,0.19-4.74-3.12c1.57,0.01,3.15,0.03,4.721,0.07
	c0.029-0.24,0.08-0.71,0.1-0.95C184.02,58.56,182.2,58.58,180.391,58.59 M188.15,58.56c-0.11,2.89-0.121,5.78-0.121,8.67l1.221-0.11
	c0.07-1.16,0.13-2.33,0.21-3.49c1.53-0.07,3.06-0.18,4.59-0.32c-1.7-1.75-5.61-0.4-4.92-3.93c1.56,0.02,3.11,0.04,4.67,0.08
	c-0.021-0.22-0.06-0.67-0.079-0.89C191.859,58.58,190.01,58.57,188.15,58.56 M132.971,72.5c-0.061,3.29-0.591,6.69,0.409,9.89
	c0.181-1.62,0.31-3.24,0.37-4.87c1.49-0.15,2.98-0.3,4.471-0.45c-1.611-0.21-3.23-0.37-4.841-0.54
	c-0.58-4.021,3.729-2.021,5.74-3.78C137.07,72.56,135.02,72.52,132.971,72.5 M140.37,72.5c0.01,3.27-0.06,6.55,0.08,9.81
	c1.87-1.01,1.021-3.32,1.3-5.01c1.29,0.01,2.59,0.03,3.891,0.04c0-0.13,0.01-0.39,0.02-0.52c-1.27-0.04-2.53-0.11-3.79-0.22
	c-0.021-0.7-0.06-2.09-0.08-2.79c1.63-0.11,3.25-0.21,4.88-0.31C144.92,71.98,142.471,72.7,140.37,72.5 M147.939,72.67
	c-0.02,3.27-0.119,6.57,0.49,9.81c1.26-1.48,0.9-3.48,1.08-5.25c0.801,0.04,2.41,0.11,3.211,0.15c-0.011-0.18-0.021-0.53-0.031-0.7
	c-0.83,0.04-2.5,0.14-3.34,0.19c0.01-0.81,0.021-2.43,0.021-3.23c1.489,0,2.97,0.01,4.46,0.02c-0.03-0.29-0.109-0.87-0.141-1.16
	C151.77,72.56,149.859,72.61,147.939,72.67 M155.811,72.6c0.14,3.27-0.541,6.7,0.59,9.86c0.17-1.74,0.279-3.48,0.32-5.23
	c1.359,0.07,2.729,0.15,4.09,0.23c-0.041-0.19-0.121-0.57-0.16-0.75c-1.34,0.01-2.68,0.02-4.021,0.04c0-0.73,0.011-2.19,0.011-2.92
	c1.819-0.23,4.029,0.35,5.439-1.14C160,72.56,157.9,72.56,155.811,72.6 M163.26,72.56c-0.06,3.08-0.07,6.16-0.039,9.24
	c0.34-0.04,1.029-0.11,1.369-0.15c-0.05-1.39-0.09-2.79-0.13-4.18c1.511-0.15,3.03-0.28,4.54-0.41c-1.48-0.17-2.95-0.36-4.41-0.59
	c-0.02-0.65-0.07-1.95-0.09-2.6c1.49-0.11,3-0.18,4.5-0.19c-0.04-0.3-0.13-0.9-0.18-1.2C166.971,72.52,165.109,72.54,163.26,72.56
	 M171.15,72.51c-0.01,3.32-0.45,6.75,0.57,9.98c0.34-1.74,0.449-3.521,0.59-5.28c0.869,0.06,2.6,0.18,3.469,0.24
	c-0.029-0.17-0.1-0.49-0.129-0.66c-0.83-0.04-2.49-0.12-3.311-0.16c-0.08-0.72-0.24-2.18-0.32-2.91c1.561,0,3.121-0.01,4.69-0.02
	c-0.021-0.29-0.05-0.87-0.069-1.16C174.811,72.53,172.98,72.52,171.15,72.51 M178.84,72.6c0.04,3.03,0.04,6.06-0.029,9.09
	c0.34,0.01,1.039,0.05,1.39,0.06c-0.021-1.5-0.03-3.01-0.03-4.51c0.859,0.04,2.6,0.11,3.471,0.14c0-0.18,0-0.53,0-0.71
	c-0.851,0.04-2.561,0.12-3.42,0.16c-0.021-0.76-0.051-2.27-0.07-3.02c1.74-0.07,3.47-0.19,5.209-0.35
	C183.529,71.91,181.02,72.71,178.84,72.6 M186.189,72.55c-0.1,3.29-0.17,6.59,0.131,9.88c1.9-1.11,1-3.51,1.31-5.25
	c0.761,0.05,2.28,0.17,3.04,0.23c0.02-0.18,0.04-0.55,0.051-0.74c-0.791,0.04-2.371,0.11-3.171,0.14c-0.01-0.78-0.03-2.36-0.04-3.14
	c1.51,0.03,3.02,0.06,4.53,0.1c-0.06-0.32-0.181-0.96-0.24-1.28C189.93,72.52,188.061,72.53,186.189,72.55 M194.24,72.46
	c-0.061,3.11-0.08,6.22-0.08,9.34l0.699-0.04c-0.02-1.47-0.049-2.94-0.09-4.41c1.301,0,2.61,0,3.91,0c0-0.12,0-0.36,0.01-0.49
	c-2.189,0.04-4.43-0.06-4.149-2.9c1.91-0.18,3.94-0.13,5.649-1.14C198.21,72.59,196.23,72.52,194.24,72.46 M145.189,86.73
	c-0.35,3.07-0.459,6.18-0.1,9.26c1.2-1.16,1.221-2.81,1.45-4.33c1.01-0.07,3.021-0.21,4.021-0.28c-1.391-0.49-2.881-0.61-4.32-0.82
	c0.039-0.66,0.13-1.98,0.17-2.63c1.73-0.03,3.46-0.12,5.18-0.26C149.66,86.52,147.33,86.91,145.189,86.73 M152.34,86.72
	c0.21,3.07-1.27,6.87,1.03,9.39c0.149-1.47,0.271-2.94,0.37-4.41c1.55-0.07,3.1-0.19,4.65-0.36c-1.541-0.51-3.181-0.58-4.781-0.73
	c0.021-0.65,0.07-1.96,0.091-2.62c1.8-0.09,3.61-0.18,5.399-0.42C156.939,86.76,154.609,86.83,152.34,86.72 M160.4,86.76
	c0.17,3.07-0.871,6.53,0.83,9.31c0.14-1.48,0.25-2.96,0.319-4.44c1,0.01,2.979,0.03,3.979,0.04c-1.93-0.81-4.969-0.77-4.159-3.72
	c1.79-0.03,3.569-0.11,5.351-0.26C164.811,86.53,162.52,86.91,160.4,86.76 M168.15,86.73c-0.291,2.83-0.34,5.67-0.351,8.52
	l1.46,0.08c-0.039-0.92-0.119-2.76-0.15-3.68c1.451-0.08,2.9-0.21,4.351-0.38c-1.42-0.35-2.89-0.47-4.33-0.65
	c0.04-0.69,0.12-2.08,0.16-2.78c1.69-0.02,3.39-0.11,5.08-0.27C172.391,86.81,170.24,86.85,168.15,86.73 M175.75,86.78
	c-0.061,2.67-0.09,5.33-0.16,8c0.28,0.04,0.84,0.11,1.12,0.14c-0.08-0.83-0.229-2.49-0.31-3.32c1.49,0.01,2.979,0.03,4.479,0.05
	c-0.319-0.23-0.94-0.69-1.26-0.92c-0.851,0-2.57-0.01-3.431-0.01c-0.56-3.74,3.291-2.61,5.58-3.18
	C179.859,86.73,177.77,86.86,175.75,86.78 M183.3,86.73c-0.18,3-0.17,6-0.14,9.01c0.32-0.26,0.97-0.78,1.29-1.04
	c0-0.72,0-2.17-0.011-2.89c1.621-0.14,3.24-0.32,4.851-0.56c-1.71-0.37-3.47-0.54-5.21-0.72c-0.15-3.37,3.42-2.43,5.6-3.061
	C187.641,86.73,185.43,86.83,183.3,86.73 M190.88,87.01c-0.36,2.72-0.21,5.47-0.21,8.21l1.189,0.1c0.061-0.91,0.17-2.73,0.23-3.64
	c1.471-0.08,2.93-0.2,4.391-0.36c-1.59-0.45-3.23-0.6-4.86-0.8c-0.149-3.46,3.45-2.26,5.489-3.56
	C195.029,86.84,192.939,86.74,190.88,87.01 M137.62,87.15c0.06,2.51,0.069,5.03,0.04,7.54c0.199,0.03,0.58,0.09,0.779,0.13
	c-0.01-0.78-0.039-2.33-0.049-3.11c1.659-0.06,3.31-0.18,4.969-0.36c-1.699-0.62-3.539-0.63-5.31-0.79
	c-0.38-3.24,2.771-2.48,4.87-2.77l-0.08-1C141.1,86.9,139.359,87.02,137.62,87.15 M140.279,101.17c-0.159,3.13-0.25,6.27,0.191,9.38
	c1.17-1.11,0.93-2.76,1.109-4.2c1.46-0.16,3.02-0.149,4.26-1.08c-1.79-0.58-4.92,0.391-4.779-2.5c1.89-0.319,4.25,0.311,5.67-1.39
	C144.58,101.21,142.43,101.18,140.279,101.17 M147.55,101.21c0.41,3.04-1.22,6.88,1.091,9.36c0.119-1.48,0.209-2.95,0.279-4.42
	c0.891,0.02,2.689,0.08,3.59,0.109l0.09-1.41c-1.02,0-3.07-0.02-4.1-0.029c-0.13-3.69,4.141-1.2,5.82-3.36
	C152.07,101.22,149.8,101.2,147.55,101.21 M155.359,101.189c-0.01,2.871-0.01,5.74-0.049,8.61c0.359,0.03,1.08,0.08,1.43,0.11
	c0-0.94-0.01-2.811-0.02-3.74c1.35,0.02,2.709,0.04,4.059,0.07c-0.01-0.36-0.02-1.061-0.029-1.42c-1.471,0-2.939-0.021-4.41-0.051
	c0.09-3.55,4.391-1.8,6.54-2.689c-0.06,2.55-0.09,5.109-0.12,7.66c0.381,0.01,1.131,0.04,1.5,0.05c-0.02-0.87-0.07-2.601-0.09-3.47
	c1.38-0.061,2.75-0.18,4.12-0.34c-0.46-1.91-2.92-0.78-4.2-1.34l0.23-2.08c1.47,0,2.939,0,4.42,0c0-0.351,0-1.051,0.01-1.391
	C164.279,101.53,159.83,101.47,155.359,101.189 M170.77,101.28c0.131,3.04-0.33,6.189,0.57,9.149c0.18-1.33,0.32-2.66,0.439-4
	c1.471-0.31,2.961-0.6,4.431-0.92c-1.79-0.71-4.78-0.08-4.91-2.77c1.841-0.35,4.31,0.479,5.46-1.48
	C174.76,101.2,172.77,101.22,170.77,101.28 M178.34,101.141c-0.01,2.89,0.02,5.779,0.04,8.67c0.32,0.039,0.979,0.109,1.3,0.14
	c0.041-1.25,0.08-2.511,0.12-3.761c0.921,0.011,2.78,0.011,3.71,0.021l-0.039-1.41c-1,0.021-3.011,0.06-4.011,0.08
	c-0.04-3.44,4.13-2.03,6.319-2.84c0.361,2.76-1.149,6.29,1.091,8.51c0.021-1.06,0.05-3.18,0.06-4.239
	c1.34-0.03,2.68-0.101,4.03-0.201c0.12-2.699-5.16,0.25-4.399-3.5c1.719-0.02,3.439-0.01,5.17,0c0-0.369,0-1.1,0-1.469
	C187.27,101.49,182.811,101.46,178.34,101.141 M193.68,101.25c0.051,3.04-0.479,6.2,0.551,9.13c0.09-1.01,0.25-3.04,0.34-4.05
	c1.529-0.1,3.09-0.13,4.619-0.311c-0.479-2.27-3.52-0.68-5-1.319c-0.469-3.24,2.91-1.75,4.621-2.181
	c0.039-0.34,0.109-1.02,0.149-1.359C197.2,101.18,195.43,101.21,193.68,101.25 M141.32,115.689c0.07,3.181-0.7,6.561,0.76,9.53
	c0.32-1.53,0.58-3.079,0.79-4.63c1.44-0.24,2.87-0.529,4.271-0.98c-1.721-0.6-5.41,0.36-4.49-2.619c2.05-0.18,4.1-0.17,6.149-0.34
	c0.091,2.74-0.96,5.92,0.83,8.34c0.101-1.1,0.29-3.29,0.38-4.381c1.551-0.199,3.131-0.35,4.54-1.079
	c-1.649-0.22-3.31-0.39-4.97-0.521c0.17-3.119,3.71-1.979,5.77-2.729C150.74,115.359,145.98,116.45,141.32,115.689 M156.75,115.77
	c-0.05,2.631-0.07,5.25-0.141,7.881c0.25,0.05,0.73,0.16,0.971,0.209c0-0.879,0-2.629,0.01-3.5c0.76,0.011,2.29,0.031,3.061,0.041
	c0.279-0.26,0.83-0.78,1.1-1.051c-1.43-0.51-4.189,0.721-4.5-1.369c0.721-2.09,3.7-0.83,5.311-1.601
	C160.7,115.68,158.689,115.8,156.75,115.77 M164.29,115.7c-0.19,3.04-0.19,6.09,0.09,9.12c1.33-1.11,1.12-2.84,1.229-4.37
	c1.221-0.06,2.451-0.11,3.681-0.16l-0.09-0.99c-0.88-0.069-2.65-0.19-3.54-0.26c-1.68-3.229,3.359-1.91,4.96-2.521
	C168.67,115.5,166.4,115.84,164.29,115.7 M171.57,115.811c-0.041,3.06-0.12,6.14,0.18,9.189c1.13-1.21,1.109-2.91,1.27-4.46
	c1.461-0.2,2.951-0.34,4.351-0.86c-1.49-0.24-2.99-0.479-4.479-0.699c-1.08-3.541,3.569-1.41,5.33-3.011
	C176,115.78,173.79,115.79,171.57,115.811 M179.51,115.71c0,2.69-0.029,5.37-0.109,8.05c0.27,0,0.8,0,1.07,0
	c-0.031-0.8-0.091-2.41-0.131-3.21c1.75-0.159,3.631-0.05,5.18-1.01c-1.609-0.71-6.42,0.62-4.859-2.521
	c1.619-0.199,3.23-0.39,4.84-0.59C183.609,115.609,181.51,115.8,179.51,115.71 M187.08,115.95c-0.359,2.97-0.221,5.97,0.05,8.94
	c1.341-1.091,1.24-2.801,1.431-4.33c1.41-0.201,2.85-0.41,4.209-0.871c-1.879-0.439-4.279-0.199-5.01-2.439
	c1.91-0.27,3.82-0.5,5.721-0.85C191.45,115.6,189.21,115.62,187.08,115.95 M194.54,115.74c-0.101,3.09-0.17,6.199,0.11,9.279
	c1.439-1.109,1.17-3.039,1.43-4.64c1.35-0.04,2.699-0.1,4.05-0.17c-1.14-1.351-2.979-0.93-4.53-1.11
	c-0.26-3.42,3.53-2.029,5.66-2.63C199.109,115.641,196.79,115.76,194.54,115.74 M141.311,129.72c0.399,3.061-1.36,7.12,1.17,9.48
	c0.1-1.33,0.199-2.66,0.279-3.98c1.49-0.239,3.131-0.319,4.221-1.51c-1.41-0.11-2.82-0.19-4.24-0.25c-0.03-0.71-0.09-2.13-0.12-2.83
	c1.63-0.021,3.25-0.09,4.88-0.21C145.51,129.73,143.38,129.82,141.311,129.72 M148.54,130.07c0,3.029-0.05,6.07,0.149,9.09
	c1.32-1.01,1.311-2.721,1.631-4.2c1.189-0.03,2.39-0.05,3.58-0.069c-0.041-0.351-0.11-1.061-0.15-1.421
	c-1.25,0.011-2.49,0.021-3.73,0.03c0.01-0.7,0.021-2.12,0.03-2.82c1.761-0.07,3.521-0.16,5.271-0.359
	C153.109,129.67,150.8,129.85,148.54,130.07 M156.62,130.01c0.08,2.94,0.069,5.891-0.03,8.83c0.2-0.32,0.6-0.98,0.811-1.31
	c-0.051-0.61-0.141-1.851-0.18-2.46c1.649-0.131,3.309-0.29,4.959-0.48c-1.4-1.31-3.38-1.09-5.13-1.26
	c-0.569-3.63,3.11-2.55,5.4-3.03C160.561,129.72,158.561,129.87,156.62,130.01 M164.25,129.73c0.09,3.109-1.15,6.76,0.9,9.449
	c0.1-1.33,0.189-2.67,0.26-4.01c1.6-0.22,3.42-0.14,4.57-1.47c-1.551-0.11-3.09-0.181-4.641-0.22c0-0.711,0-2.121,0-2.82
	c1.721-0.04,3.439-0.141,5.15-0.29C168.46,129.8,166.34,129.811,164.25,129.73 M171.529,129.84c-0.039,3.12-0.109,6.24,0.121,9.35
	c1.3-0.959,1.129-2.59,1.34-4c1.49-0.229,3.21-0.14,4.199-1.5c-1.439-0.1-2.879-0.18-4.319-0.25c-0.021-0.709-0.08-2.14-0.101-2.85
	c1.59,0,3.201,0,4.801,0.01c-0.01-0.199-0.03-0.58-0.03-0.77C175.529,129.84,173.529,129.85,171.529,129.84 M179.43,129.75
	c-0.06,3.18-0.119,6.35,0.08,9.52c0.4-1.399,0.711-2.83,1.03-4.25c1.66-0.069,3.31-0.18,4.97-0.319c-1.6-2.341-6.27,0.18-5.65-3.98
	c1.871-0.079,3.75-0.149,5.631-0.36C183.529,129.75,181.45,129.83,179.43,129.75 M187.5,129.95c-1.5,2.44-0.4,5.739-0.76,8.53h1.39
	c0.021-0.881,0.04-2.66,0.06-3.551c1.551-0.07,3.11-0.18,4.67-0.31c-1.34-1.38-3.319-1.011-5.029-1.229
	c-0.6-3.74,3.1-2.701,5.46-3.141C191.391,129.87,189.43,129.66,187.5,129.95 M194.48,129.72c0.359,3.14-1.08,6.921,1.029,9.61
	c0.2-1.48,0.36-2.95,0.51-4.43c0.82,0.039,2.451,0.109,3.271,0.14c0.09-0.38,0.28-1.13,0.37-1.51c-1.25-0.021-2.49-0.03-3.73-0.04
	c-0.02-0.71-0.06-2.12-0.09-2.83c1.57-0.051,3.141-0.15,4.71-0.29C198.57,129.83,196.51,129.82,194.48,129.72 M147.5,144.51
	c0.02,2.78,0.02,5.57-0.05,8.36c0.25-0.04,0.76-0.101,1.021-0.13c-0.011-1.25-0.021-2.5-0.021-3.75c1.11-0.09,3.329-0.26,4.44-0.35
	c-1.521-0.33-3.051-0.621-4.591-0.851c0.08-0.74,0.229-2.21,0.3-2.94c1.41-0.05,2.83-0.1,4.25-0.14l-0.01-0.54
	C151.061,144.28,149.279,144.391,147.5,144.51 M154.8,144.48c0.05,3.09-0.06,6.199,0.3,9.279c1.101-1.31,1.041-3.04,1.25-4.63
	c1.601-0.17,3.211-0.33,4.811-0.58c-2.221-0.54-5.631,0.25-5.311-3.159c1.84-0.16,3.7-0.271,5.521-0.591
	C159.189,144.53,156.99,144.5,154.8,144.48 M166.02,153.66c1.021-0.76,2.24-1.311,3.08-2.29c0.48-2.45,0.351-4.96,0.271-7.44
	c-2.341,1.7-1.03,5.12-1.591,7.561c-1.279,0.04-2.559,0.07-3.84,0.09c-0.1-2.6-0.16-5.2-0.469-7.78
	C161.279,146.82,161.85,152.55,166.02,153.66 M171.48,150.21c0.02,3.11,4.59,4.021,6.229,1.54c1.069-2.5,0.62-5.29,0.53-7.91
	c-2.16,1.91-1.061,5.11-1.41,7.62c-1.32,0.021-2.641,0.08-3.95,0.181c-0.11-2.601-0.19-5.201-0.43-7.791
	C170.48,145.359,171.43,148.109,171.48,150.21 M180.6,143.79c-0.209,2.11-0.359,4.24-0.209,6.36c-0.25,2.16,2.389,2.49,3.699,3.49
	c3.631-1.57,3.34-5.671,3.32-8.971c-0.381-0.061-1.15-0.18-1.54-0.24c0.04,2.43-0.03,4.881-0.24,7.311
	c-0.96-0.061-2.88-0.17-3.84-0.23C181.359,148.98,182.45,145.9,180.6,143.79 M189.779,152.28c1.23,0.329,2.441,0.89,3.73,0.939
	c3.78-1.5,2.54-6.28,2.58-9.43c-1.77,2.29-1.05,5.44-1.609,8.12c-0.961-0.141-2.871-0.41-3.83-0.551
	c-0.141-2.51-0.211-5.02-0.51-7.51C189.67,146.63,189.76,149.47,189.779,152.28 M153.71,158.59c-0.101,2.7-0.01,5.41,0.75,8.02
	c1.88,0.021,3.761,0.021,5.649,0.041c0.69-2.74,2.011-6.721-0.469-8.83c-0.15,2.52-0.131,5.039-0.08,7.57
	c-0.67,0.199-2.011,0.619-2.681,0.819c-3.101-1.34-1.229-5.28-1.62-7.899C154.87,158.38,154.1,158.52,153.71,158.59 M163.55,166.49
	c1.79,0.31,3.63,0.229,5.45,0.27c1.16-2.939,0.93-6.15,0.529-9.22c-1.799,1.71-0.85,4.36-1.209,6.54c0.4,2.27-3.61,3.08-4.03,0.77
	c-0.3-2.449-0.3-4.93-0.71-7.359C162.029,160.18,162.38,163.72,163.55,166.49 M171.609,158.311c0.011,2.799,0.101,5.629,0.66,8.39
	c1.931-0.2,4.211,0.45,5.931-0.57c0.37-2.649,1.42-6.13-0.591-8.319c-0.219,2.459-0.159,4.93-0.389,7.379
	c-1.061,1.141-3.5,1.67-4.031-0.26c-0.27-2.09-0.149-4.21-0.17-6.31C172.67,158.54,171.96,158.391,171.609,158.311 M180.66,157.75
	c-0.381,2.98-0.33,6.02,0.59,8.91c1.939,0.02,3.891,0.01,5.84,0c0.471-2.9,0.59-5.85,0.42-8.78c-3.39,1.511,0.801,7.89-3.52,8.4
	C180.08,165.391,183.68,159.7,180.66,157.75 M189.9,157.79c-0.271,2.95-0.17,5.91,0.06,8.86c2.011-0.15,4.33,0.49,6.149-0.53
	c0.551-2.72,0.431-5.53,0.32-8.28c-2.4,1.5-0.939,4.77-1.59,7.09c0.141,1.53-2.609,1.7-3.3,0.59
	C190.16,163.17,191.439,160.1,189.9,157.79 M156.54,172.45c0.2,2.72-0.5,5.72,0.86,8.22c1.689,1.5,3.92,0.23,5.629-0.52
	c0.07-2.801,0.101-5.62-0.449-8.37c-1.24,2.739-0.76,5.819-0.98,8.729c-1-0.05-3-0.14-4-0.18c-0.369-2.6-0.43-5.21-0.39-7.83
	C157.04,172.49,156.71,172.47,156.54,172.45 M171.45,171.75c-0.47,2.66,0.069,5.439-0.66,8.05c-1.29,0.58-2.66,0.83-4.101,0.771
	c-0.42-2.721,0.16-5.66-1.09-8.2c-0.1,2.75-0.59,5.78,0.73,8.34c1.29,0.84,2.949,0.56,4.41,0.84
	C172.76,178.811,172.41,174.859,171.45,171.75 M174.77,179.49c0.711,2.47,4.041,2.38,5.66,0.92c0.51-2.82,0.4-5.721,0.131-8.561
	c-0.92,2.76-0.66,5.711-0.82,8.57c-1.03-0.01-3.09-0.04-4.11-0.061c-0.03-2.84,0-5.699-0.351-8.529
	C173.84,174.12,174.29,176.98,174.77,179.49 M183.49,179.63c0.72,0.64,1.449,1.28,2.17,1.94c1.23-0.36,2.76-0.24,3.68-1.28
	c0.53-2.76,0.66-5.69-0.23-8.38c-0.229,2.82-0.26,5.64-0.469,8.46c-0.94,0.021-2.82,0.05-3.761,0.06c-0.14-2.85-0.19-5.71-0.45-8.56
	C182.221,173.811,183.63,177.1,183.49,179.63 M192.721,180.23c1.969,1.229,4.319,0.379,6.42,0.039c-0.041-2.84,0.08-5.72-0.561-8.51
	c-0.43,2.84-0.58,5.721-1.15,8.54c-0.92-0.03-2.75-0.08-3.67-0.11c-0.14-2.789-0.14-5.58-0.49-8.35
	C191.68,174.3,192.05,177.52,192.721,180.23z"/>
<path fill="#B1B1B1" d="M112.891,0h1.75C114.27,1.6,113.689,1.6,112.891,0z"/>
<path d="M5.97,8.02c2.9-2.96,6.76-4.74,10.26-6.86c7.5-1.89,15.22,0.09,22.83-0.4c3.49,1.8,7.11,3.32,10.71,4.89
	c1.91,1.86,3.72,3.99,3.92,6.77c6.41-0.25,12.85-0.26,19.26-0.08c5.86,1.08,11.69,3.54,15.94,7.81c-0.69,0.2-2.06,0.59-2.75,0.78
	c-1.23,2.42-2.53,4.84-4.21,6.98c-2.52,2.74-6.32,3.81-9.87,4.37c-4.21,0.41-7.92-2.061-10.84-4.8c-1.27-0.01-2.54-0.08-3.79,0.06
	c-2.92,3.18-4.73,7.17-7.03,10.79c-0.48,0.13-1.45,0.39-1.93,0.52c-2.92-2.26-6.67-3.06-9.56-5.37c-2.68-0.27-5.36-0.82-8.06-0.73
	c-4.75,0.96-7.99,4.88-11.83,7.5c-2.69,2.48-6.14,5.24-5.55,9.34c-2.83,1.18-6,1.86-9.01,0.95c-1.31-1.69-1.69-3.85-2.34-5.84
	C1.68,42.45,1.4,40.17,0.61,38c-0.26-5.68-0.13-11.37-0.09-17.05c0.55-1.45,1.04-2.92,1.54-4.38C3.7,13.88,4.82,10.94,5.97,8.02
	 M7.9,9.07c-1.37,4.77-5.21,8.68-4.95,13.89c-0.07,8.3-0.76,16.99,2.4,24.86c0.44,1.57,2.36,1.08,3.56,1.46
	c1.94-2.86,3.97-5.67,6.21-8.32c2.13-2.56,5.29-3.91,7.66-6.21c1.92-1.84,4.35-2.97,6.75-4.02c1.16-3.09,2.78-5.98,4.68-8.67
	c4.26-5.23,10.88-7.88,17.46-8.58c-0.1-0.91-0.19-1.82-0.28-2.74c-2.97-4.63-8.69-5.83-13.4-7.93c-5-0.1-9.99-0.29-14.98-0.55
	C17.12,2.01,12.41,5.85,7.9,9.07 M53.04,15.61c-6.09,0.26-12.24,2.58-16.4,7.13c-1.77,2.51-3.24,5.21-4.86,7.8
	c6.11,0.87,12.12,2.68,17.22,6.25c2.82-5.71,6.43-11.24,11.64-15.03c7.11-4.3,15.68-2.479,23.52-3.08
	c-4.25-1.78-8.37-4.48-13.13-4.52c-5.37-0.07-10.73,0.06-16.1-0.03C54.3,14.62,53.67,15.12,53.04,15.61 M60.31,24.84
	c4.41,2.81,9.54,7.24,15.07,4.67c4.2-1.08,6.57-4.91,8.32-8.56C75.82,20.94,67.04,19.73,60.31,24.84z"/>
<path fill="#0000FF" d="M7.9,9.07c4.51-3.22,9.22-7.06,15.11-6.81C28,2.52,32.99,2.71,37.99,2.81c4.71,2.1,10.43,3.3,13.4,7.93
	c0.09,0.92,0.18,1.83,0.28,2.74c-6.58,0.7-13.2,3.35-17.46,8.58c-1.9,2.69-3.52,5.58-4.68,8.67c-2.4,1.05-4.83,2.18-6.75,4.02
	c-2.37,2.3-5.53,3.65-7.66,6.21c-2.24,2.65-4.27,5.46-6.21,8.32c-1.2-0.38-3.12,0.11-3.56-1.46c-3.16-7.87-2.47-16.56-2.4-24.86
	C2.69,17.75,6.53,13.84,7.9,9.07z"/>
<path fill="#0000FF" d="M53.04,15.61c0.63-0.49,1.26-0.99,1.89-1.48c5.37,0.09,10.73-0.04,16.1,0.03c4.76,0.04,8.88,2.74,13.13,4.52
	c-7.84,0.6-16.41-1.22-23.52,3.08c-5.21,3.79-8.82,9.32-11.64,15.03c-5.1-3.57-11.11-5.38-17.22-6.25c1.62-2.59,3.09-5.29,4.86-7.8
	C40.8,18.19,46.95,15.87,53.04,15.61z"/>
<path fill="#FF1515" d="M99.55,15.57c2.011,0.13,4.3-0.48,6.011,0.9c-1.641,0.14-3.281,0.25-4.931,0.32
	c-0.29,2.86,3.011,2.12,4.761,2.91c-1.431,0.5-2.951,0.64-4.44,0.84c-0.06,1.02-0.19,3.06-0.26,4.08
	C98.31,22.32,99.95,18.51,99.55,15.57z"/>
<path fill="#FF1515" d="M107.029,15.5c2.16,0.11,4.5-0.31,6.441,0.87c-1.761,0.77-5.171-0.84-5.641,1.78
	c1.67,0.77,3.46,1.24,5.18,1.89c-1.57,0.14-3.15,0.25-4.73,0.3c-0.079,1.47-0.18,2.93-0.309,4.39
	C105.811,22.17,107.1,18.55,107.029,15.5z"/>
<path fill="#FF1515" d="M114.65,15.53c2.07,0.09,4.289-0.3,6.16,0.81c-1.641,0.81-5.971-0.83-5.061,2.3
	c1.58,0.34,3.17,0.68,4.75,1.03c-1.51,0.59-3.141,0.66-4.73,0.83c-0.069,1.01-0.209,3.04-0.289,4.05
	C113.779,21.89,114.92,18.51,114.65,15.53z"/>
<path fill="#FF1313" d="M122.561,15.5c2.77,0.07,5.529,0.54,8.299,0.24c1.881-0.11,3.99-0.56,5.591,0.729
	c-1.87,0.15-3.74,0.26-5.62,0.34c0.1,2.62,3,2.27,4.74,3.16c-1.43,0.17-2.86,0.311-4.291,0.42c-0.1,1.47-0.229,2.94-0.389,4.4
	c-2.111-2.22-0.771-5.52-0.94-8.19c-2.24,0.6-6.091-1.19-6.479,2.11c1.569,0.25,3.139,0.54,4.699,0.85
	c-1.4,0.49-2.859,0.78-4.32,1.01c-0.05,1.02-0.149,3.07-0.199,4.1C121.27,22.3,122.98,18.49,122.561,15.5z"/>
<path fill="#FF1B1B" d="M137.67,15.65c1.73-0.07,3.46-0.13,5.2-0.21c0.05,0.29,0.14,0.88,0.19,1.18
	c-1.711,0.44-5.631-0.95-4.641,2.09c1.7,0.29,3.391,0.59,5.08,0.91c-1.6,0.81-3.43,0.71-5.16,0.83c0.04,0.84,0.11,2.52,0.141,3.36
	c-0.221-0.02-0.67-0.06-0.891-0.08C137.65,21.04,137.67,18.34,137.67,15.65z"/>
<path fill="#FF1B1B" d="M145.25,15.61c1.83-0.04,3.67-0.07,5.51-0.11c0.04,0.28,0.141,0.84,0.18,1.12
	c-1.5,0.51-4.529-0.91-4.739,1.41c1.149,1.45,3.569,0.79,4.95,2.11c-1.471,0.11-2.94,0.19-4.41,0.23
	c-0.25,1.49-0.29,3.11-1.391,4.28C145.08,21.64,145.16,18.62,145.25,15.61z"/>
<path fill="#FF1313" d="M152.82,15.58c2.189,0.03,4.529-0.34,6.529,0.75c-1.97,0.63-5.369-0.63-5.649,2.32
	c1.649,0.27,3.29,0.58,4.92,0.92c-1.399,0.66-2.95,0.79-4.47,0.96c-0.08,1.06-0.24,3.18-0.32,4.24
	C151.939,22.1,153.12,18.61,152.82,15.58z"/>
<path fill="#FF0909" d="M160.6,15.53c2.95,0.06,5.891,0.58,8.84,0.21c1.711-0.13,3.59-0.43,5.061,0.68
	c-1.84,0.16-3.68,0.27-5.52,0.34c-0.23,2.79,2.24,2.36,4.189,2.44c0.13,0.28,0.38,0.85,0.5,1.14c-1.42-0.03-2.83-0.06-4.24-0.09
	c-0.67,1.14,0.65,4.02-1.439,3.99c-0.26-2.55-0.07-5.13,0.01-7.69c-2.32,0.18-4.641,0.14-6.96,0.19c-0.09,3.25,3.42,2.18,5.51,2.8
	c-1.569,0.97-3.45,0.75-5.2,0.88c0.041,0.84,0.131,2.54,0.17,3.38c-0.25,0-0.74,0.01-0.99,0.01
	C160.59,21.05,160.6,18.29,160.6,15.53z"/>
<path fill="#FF1414" d="M175.689,15.62c1.681-0.03,3.371-0.07,5.061-0.11c0.26,0.271,0.779,0.81,1.04,1.07
	c-1.66,0.07-3.319,0.1-4.979,0.27c-0.74,2.91,3.17,1.99,4.709,2.85c-1.47,0.52-3.039,0.64-4.58,0.84
	c-0.09,1.06-0.27,3.18-0.359,4.23C174.91,22.03,175.92,18.65,175.689,15.62z"/>
<path fill="#FF1414" d="M183.51,15.56c2.57,0,5.16-0.08,7.73,0.25c2.08-0.18,4.4-0.72,6.24,0.59c-1.75,0.6-6.681-0.89-5.03,2.49
	c1.069,0.15,3.2,0.44,4.271,0.59c-1.271,0.87-2.841,0.83-4.301,0.98c-0.24,1.49-0.08,3.22-1.41,4.27c-0.27-2.7-0.21-5.42-0.05-8.12
	c-2.14,0.16-4.29,0.13-6.44,0.16c0.051,2.68,2.951,2.19,4.75,2.88c-1.399,0.38-2.83,0.67-4.26,0.93
	c-0.109,1.03-0.33,3.11-0.439,4.15C182.5,22.17,183.88,18.57,183.51,15.56z"/>
<path fill="#DADADA" d="M0,17.39c0.51-0.21,1.54-0.62,2.06-0.82c-0.5,1.46-0.99,2.93-1.54,4.38C0.48,26.63,0.35,32.32,0.61,38
	c0.79,2.17,1.07,4.45,1.51,6.7C1.59,44.32,0.53,43.55,0,43.17V17.39z"/>
<path fill="#000080" d="M60.31,24.84c6.73-5.11,15.51-3.9,23.39-3.89c-1.75,3.65-4.12,7.48-8.32,8.56
	C69.85,32.08,64.72,27.65,60.31,24.84z"/>
<path fill="#FF1A1A" d="M110.05,30.02c1.88,0.13,5.479-1.46,6.11,1.03c-1.631,0.2-3.27,0.23-4.891,0.34l0.131,1.92
	c1.51,0.2,3.279-0.03,4.33,1.34c-1.101,0.04-3.301,0.11-4.41,0.15c0.029,1.25,0.05,2.51,0.08,3.76c-0.381-0.01-1.16-0.03-1.541-0.03
	C109.92,35.69,109.75,32.85,110.05,30.02z"/>
<path fill="#FF1515" d="M117.96,29.97c1.92-0.22,3.851-0.16,5.78-0.22c0.01,0.39,0.01,1.17,0.01,1.56
	c-1.52-0.03-3.029-0.06-4.55-0.09l-0.03,2.12c1.551,0.21,3.41-0.14,4.52,1.28c-1.129,0.05-3.399,0.14-4.529,0.19
	c0.04,1.27,0.08,2.54,0.13,3.81c-0.39-0.07-1.16-0.22-1.54-0.29C117.8,35.55,117.66,32.75,117.96,29.97z"/>
<path fill="#FF1313" d="M125.48,29.71c2.27,0.1,4.67-0.08,6.72,1.1c-1.99,0.35-4,0.47-6,0.67c0,2.81,2.86,1.72,4.521,2.14
	c-0.121,0.33-0.361,0.97-0.48,1.29c-0.83-0.05-2.48-0.14-3.301-0.19c-0.279,1.53-0.59,3.061-0.939,4.58
	C124.971,36.2,125.45,32.9,125.48,29.71z"/>
<path fill="#FF1313" d="M133.439,29.95c1.781-0.07,3.561-0.13,5.351-0.2c-0.03,0.35-0.09,1.07-0.12,1.42
	c-1.6,0.08-3.21,0.16-4.8,0.37c-1.05,2.87,2.56,1.54,3.979,2.07c0.021,0.26,0.07,0.77,0.09,1.02c-2.539-0.34-4.439,0.94-4.619,3.59
	C133.41,35.47,133.45,32.71,133.439,29.95z"/>
<path fill="#FF1313" d="M148.25,29.71c2.2,0.22,4.73-0.38,6.57,1.2c-1.93,0.28-3.881,0.41-5.82,0.61c0.37,2.78,3.63,1.55,5.37,2.82
	c-1.58,0.27-3.17,0.47-4.761,0.66c0.211,1.63-0.25,2.98-1.359,4.03C148.061,35.92,148.09,32.81,148.25,29.71z"/>
<path fill="#FF1313" d="M156.29,29.67c2.03,0.11,4.13,0.13,5.979,1.11c-1.93,0.37-3.89,0.56-5.83,0.82
	c0.521,2.58,3.121,1.76,4.98,1.97l-0.01,1.25c-1.51,0-3.02,0-4.52,0.01c-0.021,0.78-0.041,2.35-0.051,3.13l-0.699-0.06
	C156.2,35.16,156.23,32.41,156.29,29.67z"/>
<path fill="#FF1313" d="M163.66,30.03c1.99-0.14,3.98-0.23,5.98-0.34c-0.08,0.39-0.24,1.16-0.33,1.55
	c-1.521,0.03-3.051,0.06-4.58,0.12c-0.391,3.05,2.83,1.83,4.449,2.43c-1.02,1.13-2.56,0.96-3.92,1.14
	c-0.189,1.47-0.41,2.92-0.67,4.38C163.08,36.45,163.87,33.11,163.66,30.03z"/>
<path fill="#FF1313" d="M186.73,29.88c1.959-0.04,3.92-0.08,5.89-0.15c-0.08,0.38-0.22,1.14-0.3,1.51
	c-1.61,0.03-3.23,0.05-4.84,0.11c0.06,2.87,3.27,1.82,4.91,3.05c-1.431,0.21-2.871,0.38-4.311,0.51c-0.27,1.46-0.26,3.06-1.27,4.25
	C186.54,36.08,186.641,32.97,186.73,29.88z"/>
<path fill="#FF1212" d="M194.52,29.76c1.551,0.6,5.84-1.24,5.28,1.42c-1.51,0.09-3.021,0.13-4.53,0.13l0.09,2.26
	c0.851-0.04,2.561-0.12,3.41-0.16c0.061,0.35,0.17,1.04,0.221,1.38c-0.93,0-2.78,0-3.711,0c0.011,1.28,0.031,2.56,0.051,3.84
	c-0.21,0.01-0.62,0.04-0.82,0.06C194.52,35.71,194.52,32.73,194.52,29.76z"/>
<path fill="#FF1212" d="M140.76,29.78c2.24,0.04,4.49,0.09,6.73,0.32c-1.311,1.73-3.6,0.97-5.4,1.25l0.07,2.2
	c0.9-0.03,2.699-0.09,3.6-0.12c0.051,0.35,0.141,1.04,0.19,1.39c-1.229-0.02-2.46-0.05-3.69-0.09c-0.21,1.54-0.449,3.08-0.72,4.61
	C140.221,36.32,140.82,32.97,140.76,29.78z"/>
<path fill="#FF1515" d="M171.05,29.82c2.229,0.01,4.46,0.04,6.7,0.19c-1.311,1.76-3.6,1.11-5.439,1.37l0.119,2.05
	c1.551,0.06,3.09,0.17,4.641,0.32c-1.37,0.92-3.01,1.13-4.61,1.31c-0.06,1.36-0.14,2.72-0.229,4.09
	C169.95,36.68,171.3,32.85,171.05,29.82z"/>
<path fill="#FF1414" d="M179.16,29.82c2.119,0.01,4.23,0.04,6.35,0.17c-1.109,1.95-3.51,1.04-5.27,1.35l-0.051,2.04
	c1.641,0.1,3.291,0.24,4.931,0.43c-1.511,0.87-3.229,1.09-4.95,1.2c0.04,0.86,0.1,2.56,0.13,3.42l-1.46,0.12
	C178.96,35.64,179.1,32.73,179.16,29.82z"/>
<path d="M30.94,36.07c5.43,1.05,6.75,7.88,6.31,12.59c-0.44,0-1.34-0.01-1.78-0.01C36.31,43.81,33.34,39.91,30.94,36.07z"/>
<path d="M74.01,36.95c6.44-1.93,13.62-1.6,19.91,0.68c2.62-0.12,5.53-1.07,7.891,0.54c-2.101,0.44-4.21,0.81-6.32,1.12
	c4.81,3.42,9.92,6.59,13.71,11.2c1.81,3.94,5.19,6.8,8.43,9.55c0.761,2.86,1.55,5.73,2.69,8.48c-0.11,4.95,3.38,8.67,5.51,12.81
	c1,1.22,1.97,2.46,2.949,3.71c-0.77,0.58-1.549,1.16-2.329,1.74c0.6,1.56,1.159,3.14,1.76,4.7c0.42-1.88,0.8-3.79,1.67-5.53
	c0.101,1.21,0.29,3.62,0.39,4.83c4.19,3.84,5.33,9.829,4.61,15.26c1.41,10.83,0.11,21.729,0.61,32.58
	c0.619,0.19,1.84,0.58,2.46,0.78c0.159,3.859-0.47,7.709-2.47,11.08c0.449,0.199,1.33,0.609,1.779,0.81
	c1.29,0.63,2.6,1.22,3.881,1.87c3.389,1.42,5.959,4.42,9.43,5.56c0.43,0.32,1.289,0.97,1.72,1.29c1.67,4.49-2.79,8.051-4.78,11.631
	c-0.5,0.709-1.01,1.42-1.51,2.14c-0.279,0.39-0.83,1.17-1.109,1.56c-0.07,0.061-0.211,0.18-0.281,0.25
	c-1.83,1.27-3.59,2.65-5.489,3.82c-0.31,0.1-0.92,0.29-1.229,0.39c-4.281,2.45-8.111,5.62-12.5,7.91
	c-0.351,0.22-1.051,0.66-1.4,0.88c-1.37,0.84-2.78,1.62-4.24,2.29c-0.311,0.13-0.939,0.39-1.25,0.521
	c-2.779,0.88-5.42,2.52-8.43,2.319c-11.42-0.069-22.84,0.22-34.24-0.55c-3.9-1.51-7.84-2.93-11.91-3.9
	c-0.4-0.359-1.18-1.09-1.57-1.459c-8.38-3.301-12.81-11.791-20.61-15.931c-0.17,0.54-0.5,1.62-0.67,2.16
	c-4.16-3.229-9.51-4.42-13.64-7.63c-2.59-3.66-5.25-7.29-7.99-10.86c0.26,3.181,0.9,6.31,1.51,9.44c0.71,4.1,4.12,7.22,4.37,11.449
	c-5.22-5.76-6.84-13.899-7.52-21.399c-1.75-2.86-3.22-5.88-5-8.729c-4-5.311-0.83-12.881-4.79-18.271
	c0.49-13.51,0.54-27.09-0.28-40.59c0.35-0.29,1.05-0.87,1.4-1.16c0.74,7.04,0.47,14.12,0.45,21.18l1.1,0.07
	c0.66-6.2,0.69-12.8,4.43-18.13c0.48,0.55,0.97,1.1,1.46,1.66c-3.77,5.14-4.28,11.741-4.49,17.9c0.34,5.101-0.51,10.171-0.35,15.271
	c1.73,2.85,3.67,5.6,6.42,7.57c3.34,2.43,4.74,6.56,7.82,9.189c4.22,1.73,9.03,1.5,13.23,3.4c0.25-2.17,0.47-4.42,1.54-6.381
	c2.99-5.59,2.98-12.129,5.03-18.029c1.01-4.221,3.67-7.7,6.02-11.25c-0.79-0.46-1.58-0.93-2.36-1.4c3.42-2.29,5.28-6.05,7.58-9.32
	c2.27-3.87,4.65-8.57,2.56-13.03c0.75,0.33,2.23,1.01,2.97,1.35c1.01,5.3-2.67,9.7-4.25,14.44c3.88-1.73,5.78-6.29,10.18-7.11
	c5.04-0.8,10.21-0.13,15.3-0.33c-1.18-3.01-2.1-6.28-4.74-8.38c-3-2.42-1.34-6.79,0.59-9.39c1.91-2.46,2.37-6.03,5.27-7.63
	c3.86-2.67,6.92-7.3,11.86-7.87c-0.17,2.46-2.74,3.11-4.51,4.18c-2.41,2.34-5.03,4.44-7.77,6.38c-1.43,3.57-3.98,6.66-4.99,10.36
	c0.67,2.28,2.64,3.87,3.68,5.979c1.76,2.65,2.47,6.57,5.91,7.58c4.33,1.19,8.29,4,12.92,3.83c3.63-0.08,7.64,0.59,10.77-1.73
	c2.73-1.32,3.82-4.19,5.17-6.69c0.28-3.17-0.199-6.33-2.689-8.54c-0.03-1.17-0.061-2.34-0.08-3.5c-1.59-1.42-3.16-2.86-4.75-4.28
	c-0.21,0.91-0.62,2.73-0.83,3.64c-3.63,0.01-7.2-0.68-10.66-1.69c-0.04-2.53-0.15-5.08,0.19-7.59c0.4-0.07,1.19-0.22,1.59-0.29
	c0.26,2.1,0.35,4.22,0.49,6.34c2.24,0.47,4.48,0.88,6.74,1.24c0.641-1.27,1.32-2.53,2-3.79c-1.97-1.42-3.859-3.09-4.75-5.42
	c-2.109-5.05-7.689-7.89-13.04-7.06c-0.26,0.65-0.77,1.95-1.03,2.6c-0.53-0.43-1.58-1.29-2.11-1.71c1.13-0.9,2.26-1.8,3.39-2.7
	c4.22-0.38,8.15,1.19,11.79,3.15c1.9,3.44,3.7,7.15,7.01,9.47c1.631,2.75,3.701,5.2,5.891,7.5c0.07,1.11,0.141,2.22,0.22,3.33
	c3.101,2.89,2.47,7.61,1.71,11.36c-0.41,2.85-2.82,4.51-4.859,6.22c1.689,1.75,3.459,3.43,5.229,5.109
	c2.31,5.051,5.351,9.74,7.101,15.061c0.069-2.52,0.129-5.03,0.27-7.54c0.641-0.08,1.93-0.229,2.57-0.31
	c1.869-5.32,0.6-11.011-2.32-15.681c-2.82-7.84-3.88-16.76-10.02-22.92c-3.951-3.62-4.76-9.14-6.311-14
	c0.551-3.15-3.16-3.7-3.62-6.42c-1.989-5.09-7.92-6.56-11.38-10.42c-1.58,1.26-3.12,2.57-4.63,3.91c1.36,0.979,2.72,1.97,3.97,3.1
	c-2.58-0.31-5.13-0.88-7.7-1.29c-1.27,1.55-2.69,2.99-3.86,4.62c-0.54,2.95,0.13,6.07-0.93,8.95c-1.14,3.75-5.18,5.78-6.15,9.64
	c-0.54,3.16-0.1,6.39,0.05,9.58c-2.59,0.99-5.36,1.4-8.13,1.33c0.87-0.91,1.77-1.78,2.69-2.64c-0.11-0.41-0.32-1.23-0.43-1.64
	c-0.85-1.14-2.06-2.13-2.39-3.57c-1.65-5.54,2.8-10.21,4.41-15.18c0.4-2.54,0.48-5.11,0.71-7.67c1.38-0.26,2.76-0.53,4.14-0.81
	c0.05-1.05,0.11-2.1,0.16-3.16c-3.92-0.1-7.77-0.75-11.61-1.48c-4.99-0.13-10.03-0.35-14.98,0.32c-3.34,1.35-6.78,2.94-9.46,5.38
	c-2.81,4.09-6.62,7.34-9.47,11.41c6.38,3.78,14.24,3.46,20.62,7.24c-1.26,2.21-3.68,2.09-5.9,2.02c1.57,1.68,2.97,3.5,4.33,5.34
	c3.23,2,5.01,5.57,8.32,7.49c-0.96,0.59-1.91,1.19-2.85,1.8c-0.03,2.02,2.46,2.64,2.98,4.48c-1.61-0.1-3.15-0.55-4.67-1.05
	c-0.42-2.15-0.6-4.43-1.65-6.4c-4.07-2.69-9.27-4.43-14.15-3.47c-3.94,2.56-8.61,4.51-10.59,9.13c2.32,0,4.65,0.05,6.97,0.09
	c0.63,1.82,2.16,3.92,1.06,5.84c-2.07,2.26-5.05,3.3-7.8,4.47c1.23,3.63,0.38,8.18,3.5,10.979c2.86,3.45,7.9,2.64,11.87,2.72
	c1.25-1.34,2.52-2.649,3.77-3.99c0.7,0.421,1.4,0.851,2.1,1.281c-4.08,5.649-11.92,4.93-17.73,2.899c-1.69-1.39-2.98-3.22-4.06-5.11
	c-0.62-3.47-0.98-7.039-2.41-10.31c-2.19-4.13,0.68-8.56,2.48-12.27c1.27-3,4.75-3.75,7.02-5.77c4.19-3.94,10.63-2.03,15.5-0.45
	c-3.29-3.89-6.35-8.2-10.9-10.73c-2.95-1.94-6.52-2.32-9.9-3.06c-2.67,6.19-9.6,9.06-12.58,15.06c-1.43,3.18-0.7,6.76-1.05,10.12
	c-1.09-1.41-1.76-3.06-2.19-4.78c-0.23,1.83-0.47,3.65-0.81,5.47c-2.98-3.31,0.16-6.94,1.8-9.96c0.57-3.43-0.16-7.02,0.95-10.38
	c0.22,2.28,0.27,4.58,0.42,6.87c2.22-1.66,4.25-3.67,5.01-6.42c0.83-2.98,3.44-4.75,5.59-6.74c-3.59-0.28-7.32,0.13-10.76-1.17
	c3.45-0.63,6.94-0.16,10.4,0.05c-0.31-0.75-0.92-2.24-1.23-2.99c1.5,0.37,3,0.74,4.5,1.12c2.46-2.67,4.98-5.29,7.01-8.31
	c2.39-2.3,3.99-5.41,6.92-7.1c1.84-1.29,4.08-1.7,6.19-2.33c4.09-1.04,7.8-3.13,11.81-4.36C65.95,38.41,70.04,37.96,74.01,36.95
	 M68.84,39.98c-3.68,1.15-7.97,0.28-11.21,2.67c4.79,0.51,10.03-1.1,14.39,1.53c2.13,0.1,4.25,0.25,6.34,0.62
	c1.12-2.63,2.43-5.18,3.78-7.7C77.47,36.75,73.45,39.71,68.84,39.98 M83.77,37.3c-0.53,3.15-0.82,6.34-0.56,9.54l-1.49,0.13
	c0.59,0.32,1.75,0.94,2.33,1.25c-0.15-0.79-0.45-2.37-0.6-3.16c2.78,1.26,2.9-2.18,3.96-3.67c1.59-1.08,3.13-2.23,4.61-3.46
	C89.29,37.5,86.52,37.55,83.77,37.3 M87.89,44.89c2.42-1.48,4.52-3.4,6.53-5.38C91.74,40.55,88.67,41.8,87.89,44.89 M78.62,53.05
	c0.87-0.66,1.75-1.32,2.55-2.05c0.18-1.75-0.45-3.45-0.74-5.14C79.28,48.08,78.64,50.54,78.62,53.05 M74.19,57.33
	c1.84-1.34,2.67-3.43,2.81-5.66C75.44,53.2,74.56,55.2,74.19,57.33 M77.84,54.8c-0.16,2.05-0.3,4.11-0.33,6.17
	c1.32-1.939,1.81-4.24,2.18-6.52C79.23,54.54,78.31,54.71,77.84,54.8 M81.1,57.31C79.44,60.23,84.41,57.6,81.1,57.31 M73.5,64.13
	c1.28-1.72,2.38-3.61,2.74-5.76C73.94,59.43,73.5,61.86,73.5,64.13 M28.1,63C28.44,66.32,31.02,61.31,28.1,63 M76.2,63.24
	c-1.36,0.66-1.42,1.34-0.17,2.03C77.39,64.61,77.45,63.93,76.2,63.24 M114.21,63.1c0.39,3.32,2.771,5.71,5.05,7.92
	c0.51-2.59-1.52-4.27-2.32-6.46C116.04,64.05,115.13,63.57,114.21,63.1 M71.84,64.64c-1.05,2.16-2.47,4.25-2.75,6.69
	C70.91,69.67,72.73,67.22,71.84,64.64 M25.17,68.25C25.7,68.75,25.7,68.75,25.17,68.25 M44.43,68.19c-0.99,2.1,3.2,2.6,3.55,0.67
	C47.68,67.35,45.38,67.27,44.43,68.19 M73.56,68.2c-0.77,1.8-1.87,3.42-3.07,4.96c0.64,0.8,1.38,1.52,2.05,2.31
	C72.95,73.05,73.27,70.63,73.56,68.2 M73.02,77.25C71.52,80.31,76.33,77.34,73.02,77.25 M125.359,84.26
	C125.9,84.78,125.9,84.78,125.359,84.26 M28.63,89c-1.07,2.26-2.76,4.69-1.72,7.3c3.07-0.35,6.27-1.06,8.74-3.05
	c-0.35-0.64-1.06-1.92-1.41-2.57C32.21,90.66,30.16,90.5,28.63,89 M128.37,91.99c0.159,2.68,1.94,4.77,2.94,7.16
	c0.59,1.81,0.81,3.779,1.949,5.38c0.44-3.13-0.279-6.21-1.109-9.2C130.88,94.22,129.65,93.07,128.37,91.99 M70.43,95.55
	c-2.09,0.74-5.18,1.03-5.75,3.65c0.17,0.17,0.49,0.51,0.66,0.68c2.29-1.17,4.2-3.15,6.75-3.79c6.51,0.02,13.22,0.67,19.19,3.21
	c3.46,2.71,7.35,4.8,11.541,6.13c4-2.88,8.939-0.399,11.91,2.75c2.08,1.891,2.209,4.99,4.17,6.961
	c6.31,6.279,6.55,16.489,4.109,24.549c-2.98,1.091-5.75,3.07-9.02,3.121c-3.51,0.31-7.51-0.851-10.45,1.64
	c-5.69,4.409-12.49,7.38-17.52,12.6c-1.8,0.81-3.54,1.73-5.17,2.841c-3.44,1.31-6.94,2.549-10.13,4.43
	c-0.18,0.63-0.53,1.899-0.71,2.539c-8.56-0.969-17.38-1.729-25.39-5.119c-0.54-3.35,1.78-6.021,2.79-9.021
	c1.05-3.2,2.13-6.399,3.15-9.62c3.21-7.949,2.59-16.75,4.46-25.02c-0.35-7.23,5.69-11.939,8.74-17.83
	c-1.66,0.609-3.14,1.63-4.72,2.41c-0.35,1.54-0.72,3.08-1.1,4.62c-1.25,0.03-2.51,0.06-3.77,0.079
	c-0.09,0.601-0.27,1.801-0.36,2.391c-3.4,4.82-6.18,10.18-7.25,16.02c-1.01,4.681-1.57,9.61-3.94,13.871
	c-1.23,2.119-1.09,4.64-1.41,7c-4.51-0.351-8.76-2.07-13.22-2.761c-2.99-0.34-5.53-2.3-6.88-4.94c-1.61-3.01-4.01-5.489-6.84-7.39
	c1.41,7.46,4.81,14.47,5.66,22.04c4.02,3.84,6.13,9.18,10.17,12.99c3.56,1,6.87,2.72,9.77,5.02c0.76-0.33,2.27-0.979,3.03-1.31
	c4.26,2.13,7.56,5.649,10.85,9.021c3.4,3.649,7.87,6.06,12.29,8.239c4.75,1.06,9.04,4.021,14.03,3.771
	c9.63,0.869,19.3,0.3,28.95,0.49c3.32,0.359,6.11-1.74,9.221-2.451c3.52-0.56,5.81-3.52,8.89-5.01c1.229-0.819,2.79-1.289,3.71-2.49
	c1.721,0.58,2.439-0.02,2.16-1.799c0.62-0.36,1.85-1.08,2.471-1.44c0.039-0.021,0.119-0.08,0.159-0.101
	c0.58-0.42,1.72-1.25,2.29-1.67l0.83,0.431l0.96-0.511l0.09-0.91c4.921-2.469,7.64-7.68,10.25-12.31c2.11-1.35-1.62-4.069-3.18-3.35
	c-1.261-2.29-3.67-3.64-5.899-4.841c-4.611-2.219-8.931-5.01-13.671-6.949c1.99-2.45,4.75-0.01,7.08,0.51
	c0.07-5-0.409-9.97-0.989-14.92c0.42-5.67,0.68-11.37,0.42-17.061c-0.11-2.289-1.431-4.26-2.4-6.27c-0.7,3.23-1.311,6.48-1.77,9.76
	c-1.621-0.22-2.08,1.45-2.94,2.381c0.67-0.541,2.01-1.61,2.67-2.141c-0.399,2.09-0.47,4.3-1.399,6.26
	c-4.441-1.51-3.121-7.06-4.601-10.52c-2.229-3.59-4.181-7.34-5.91-11.19c-1.89-1.88-3.931-3.61-5.92-5.39
	c-6.13,0.061-12.34,0.5-18.35-1.03c-2.08-1.4-4.44-2.31-6.6-3.57C81.22,95.64,75.81,95.24,70.43,95.55 M68.58,99.92
	c1.86,2.43,3.49,5.03,4.84,7.77c1.45,0.341,2.91,0.67,4.36,0.99c0.15-3.369,0.15-6.729,0.11-10.1c-1.35-0.21-2.7-0.45-4.05-0.72
	C72.04,98.41,70.3,99.16,68.58,99.92 M80.11,98.29c-0.01,1.41-0.01,2.819-0.02,4.24c2.05,0.659,4.09,1.36,6.2,1.8
	c0.32-0.96,0.62-1.92,0.91-2.88c0.44,0.3,1.32,0.89,1.76,1.19c-0.78,1.289-1.59,2.549-2.4,3.819c-0.5-0.05-1.51-0.149-2.02-0.2
	c-1.4-0.779-2.83-1.51-4.26-2.229c-0.12,2.45-0.3,4.909-1,7.27c-2.07-0.77-4.16-1.46-6.32-1.92c0.04,2.97-0.02,6.04-1.79,8.58
	c-1.97-0.13-3.94-0.41-5.76-1.229c-1.64,2.09-5.02,7.22-7.53,3.369c1.95-1.08,3.93-2.109,5.81-3.3c-1.07-1.79-3.44-1.989-5.04-3.12
	c1.49-0.33,3-0.59,4.52-0.779c-1.08-1.36-2.2-2.711-3.38-3.99c-2.14,3.65-2.65,7.83-3.08,11.949c-1.93,5.881-2.13,12.121-2.78,18.23
	c-0.95,4.15-2.56,8.1-4.34,11.95c-0.11,3.2-1.57,6.03-3.56,8.47c1.89,1.061,3.55,2.92,5.83,3.04c5.16,0.021,10.12,1.7,15.25,2.011
	c5.52-4.11,12.33-5.75,18.03-9.451c-2.44-1.899-4.78-3.989-6.3-6.729c-1.84,0.24-3.73,0.39-5.47,1.04c-1.88,1.65-3.48,3.58-5.1,5.49
	c-0.18,2.279-0.38,4.58-0.88,6.82c-3.16-1.551-5.66-4.15-8.43-6.271c-2.15,1.69-4.3,3.37-6.49,5.01c-1.13,0.75-2.28-0.06-3.06-0.87
	c3.01-1.229,5.3-3.47,7.8-5.43c3.14-2.02,5.51,1.83,7.22,3.93c0.45-0.14,1.34-0.42,1.78-0.56c0.35-6.51,6.96-12.03,13.38-10.99
	c1.79,0.99,2.53,3.021,3.53,4.7c0.66-2.16,1.76-4.16,2.47-6.3c0.54-2.24,0.4-5.341,3.06-6.24c2.94-2.05,6.61-0.87,8.46,2
	c1.83-2.71,2.99-5.771,4.29-8.75c0.76-0.05,2.29-0.149,3.05-0.2c-1.15-4.05-5.21-5.29-7.86-8.02c-2.05,1.04-4.11,2.09-6.08,3.31
	c-0.46,1.23-0.62,2.64-1.47,3.7c-2.48,0.26-5.11,0.37-7.35-0.9c-1.16,0.53-2.34,1.041-3.46,1.67c-2.03,3.7-3.32,7.86-6.23,11.041
	l-0.75-0.961c2.08-4.699,3.52-10.289,8.15-13.189c2.46-1.62,5.2,0.33,7.71,0.779c1.85-4.399,6.53-7.649,11.37-7.189
	c2.03,3.439,7.93,4.51,6.75,9.38c1.279,0.83,2.549,1.66,3.819,2.521c0.13-1.9,0.15-3.811,0.44-5.69c3.42-1.44,7.189,0.05,9.52,2.729
	c1.051,0.621,2.99,4.011,0.45,3.211c-2.101-2.62-5.03-4.471-8.479-4.5c0.119,3.83-1.301,7.47-1.19,11.3
	c3.399-0.181,7.239,0.02,10.181-1.92c3.869-2.78,2.52-8.04,2.569-12.091c-1.181-3.869-2.21-8.319-5.72-10.77
	c-2.141-1.859-1.45-5.439-3.801-7.09c-2.25-1.55-4.619-3.2-7.49-3.02c1.611,1.34,3.951,1.84,4.91,3.879
	c-7.359-1.439-14.16-4.899-20.479-8.819C86.99,99.27,83.34,99.43,80.11,98.29 M61.48,107.82c2.22,1.57,2.99,4.189,3.81,6.64
	c1.46,0.46,2.9,1.05,4.41,1.32c1.55-2.181,2.02-5.03,1.44-7.61c-1.32-2.42-2.63-4.859-4.29-7.07
	C63.88,102.18,62.83,105.27,61.48,107.82 M53.95,105.79c2.05-0.17,2.71-1.931,3.12-3.681C55.84,103.17,54.69,104.33,53.95,105.79
	 M9.92,112.311C8.48,115.4,13.24,112.38,9.92,112.311 M9.94,126.3C8.3,129.32,13.27,126.52,9.94,126.3 M11.57,128.73
	c-0.18,4.14,0.13,8.27,0.32,12.41c0.18,2.31,2.45,3.6,3.74,5.299c-0.2,1.83,1.03,3.32,2.11,4.66c-0.5-2.27-1.16-4.49-2.01-6.649
	c-0.04-2.73-1.47-5.14-2.39-7.64C12.53,134.17,12.58,131.32,11.57,128.73 M102.471,133.6c-1.081,3.57-2.171,7.461-5.411,9.721
	c-2.29-1.271-3.96-4.92-7.04-3.19c-4.13,1.33-1.74,6.78-4.26,9.54c-0.37,1.2-0.74,2.41-1.11,3.61c0.53,0.01,1.59,0.02,2.12,0.02
	c5.31-3.09,10.15-6.88,15.38-10.09c1.699-1.271,3.52-2.46,5.729-2.521c0.06-1.609,0.16-3.229,0.261-4.84
	C106.35,134.859,104.51,133.93,102.471,133.6z"/>
<path fill="#FFFFFF" d="M68.84,39.98c4.61-0.27,8.63-3.23,13.3-2.88c-1.35,2.52-2.66,5.07-3.78,7.7c-2.09-0.37-4.21-0.52-6.34-0.62
	c-4.36-2.63-9.6-1.02-14.39-1.53C60.87,40.26,65.16,41.13,68.84,39.98z"/>
<path fill="#FFFFFF" d="M83.77,37.3c2.75,0.25,5.52,0.2,8.25,0.63c-1.48,1.23-3.02,2.38-4.61,3.46c-1.06,1.49-1.18,4.93-3.96,3.67
	c0.15,0.79,0.45,2.37,0.6,3.16c-0.58-0.31-1.74-0.93-2.33-1.25l1.49-0.13C82.95,43.64,83.24,40.45,83.77,37.3z"/>
<path fill="#FFFFFF" d="M87.89,44.89c0.78-3.09,3.85-4.34,6.53-5.38C92.41,41.49,90.31,43.41,87.89,44.89z"/>
<path d="M23.22,41.8c3.31-0.88,5.06,2.9,7.24,4.69c-0.17,2.93,2.77,7.17-0.51,8.97c-0.62-2.65-0.58-5.45-1.51-8
	C26.99,45.32,24.82,43.81,23.22,41.8z"/>
<path fill="#FF1B1B" d="M119.33,44.46c1.811-0.07,3.62-0.13,5.43-0.19c-0.01,0.27-0.05,0.81-0.06,1.08c-1.64,0.4-4.601-1-4.71,1.75
	c1.68,0.71,3.5,1.01,5.24,1.55c-1.53,0.15-3.07,0.28-4.601,0.39c-0.28,1.5-0.479,3.03-1.069,4.45
	C119.2,50.49,119.29,47.47,119.33,44.46z"/>
<path fill="#FF1515" d="M127.12,44.41c1.87-0.04,3.739-0.08,5.61-0.11c-0.021,0.24-0.051,0.72-0.061,0.95
	c-1.73,0.46-4.75-0.71-4.84,2.15c1.65,0.39,3.49,0.37,4.98,1.32c-1.061,0.061-3.181,0.17-4.24,0.23c-0.26,1.55-0.03,3.35-1.291,4.55
	C126.84,50.49,126.9,47.44,127.12,44.41z"/>
<path fill="#FF1111" d="M134.6,44.4c2.2-0.04,4.41-0.04,6.61,0.25c-1.95,1.2-5.53-0.28-5.86,2.77c1.65,0.33,3.34,0.61,4.93,1.21
	c-1.489,0.16-2.979,0.28-4.469,0.35c-0.041,1.28-0.08,2.56-0.11,3.85c-0.3-0.02-0.9-0.06-1.19-0.08
	C134.57,49.96,134.59,47.18,134.6,44.4z"/>
<path fill="#FF0909" d="M142.38,44.44c1.761-0.04,3.53-0.07,5.31-0.11c0.021,0.26,0.08,0.76,0.101,1.01
	c-1.63,0.03-3.271,0.03-4.88,0.29c-1.42,2.93,2.279,1.76,3.68,2.32c0.34,0.18,1,0.54,1.33,0.72c-1.58,0.2-3.23,0.08-4.73,0.69
	c-0.26,1.16-0.479,2.32-0.66,3.5l-0.359-0.03C142.42,50.04,142.439,47.23,142.38,44.44z"/>
<path fill="#FF0505" d="M149.721,44.49c2.159-0.03,4.479-0.47,6.479,0.61c-1.7,0.16-3.4,0.28-5.101,0.35l-0.029,2.21
	c1.58,0.22,3.33,0.06,4.74,0.99c-1.141,0.08-3.42,0.23-4.561,0.31c-0.061,1.26-0.109,2.52-0.15,3.78c-0.34,0-1.029-0.01-1.379-0.021
	C149.75,49.98,149.75,47.23,149.721,44.49z"/>
<path fill="#FF0D0D" d="M157.29,44.45c1.86-0.05,3.72-0.09,5.58-0.13c-0.03,0.26-0.11,0.77-0.149,1.03
	c-1.681,0.34-4.65-0.86-4.591,2.04c1.72,0.36,3.46,0.68,5.16,1.13c-1.54,0.19-3.09,0.35-4.63,0.48c-0.03,1.26-0.051,2.51-0.07,3.76
	c-0.34,0.021-1.02,0.06-1.359,0.08C157.23,50.04,157.24,47.25,157.29,44.45z"/>
<path fill="#FF1818" d="M165.359,44.3c2,0.03,4.021,0.08,6.021,0.29c-1.54,1.08-3.5,0.72-5.25,0.9l-0.03,2.11
	c1.711,0.21,3.45,0.35,5.09,0.94c-1.75,0.32-3.51,0.52-5.27,0.73c-0.029,1.2-0.061,2.4-0.08,3.6l-0.68-0.07
	C165.26,49.97,165.33,47.13,165.359,44.3z"/>
<path fill="#FF0909" d="M172.68,44.45c1.971-0.04,3.95-0.08,5.92-0.11c-0.01,0.23-0.039,0.7-0.06,0.93
	c-1.83,0.42-5.13-0.87-5.101,2.22c1.711,0.29,3.48,0.39,5.131,0.99c-1.44,0.24-2.87,0.48-4.301,0.74
	c-0.34,1.43-0.66,2.86-0.959,4.29C172.08,50.66,172.8,47.46,172.68,44.45z"/>
<path fill="#FF1515" d="M180.37,44.44c2.04-0.05,4.069-0.07,6.101,0.08c-1.441,0.97-3.23,0.79-4.861,1.1
	c-1.219,3.08,3.021,2.01,4.641,2.81c-1.49,0.27-3,0.46-4.5,0.67c-0.2,1.51-0.279,3.1-1.189,4.39
	C180.279,50.48,180.35,47.46,180.37,44.44z"/>
<path fill="#FF1818" d="M188.24,44.36c2.08-0.02,4.17-0.02,6.24,0.2c-1.771,1.32-5.19-0.04-5.471,2.9c1.6,0.32,3.32,0.37,4.78,1.23
	c-1.03,0.07-3.101,0.22-4.13,0.29c-0.24,1.55,0.04,3.36-1.311,4.48C188.01,50.44,188.141,47.4,188.24,44.36z"/>
<path fill="#FF0909" d="M195.561,44.37c2.14,0.02,4.289,0.04,6.439,0.2v0.78c-2.23,0.13-5.4-0.86-5.63,2.35
	c1.05,0.05,3.17,0.14,4.22,0.19l0.051,0.93c-0.9,0.02-2.701,0.06-3.591,0.08c-0.22,1.62-0.47,3.23-0.76,4.83
	C195.25,50.72,195.5,47.5,195.561,44.37z"/>
<path fill="#FFFFFF" d="M78.62,53.05c0.02-2.51,0.66-4.97,1.81-7.19c0.29,1.69,0.92,3.39,0.74,5.14
	C80.37,51.73,79.49,52.39,78.62,53.05z"/>
<path fill="#FFFFFF" d="M74.19,57.33c0.37-2.13,1.25-4.13,2.81-5.66C76.86,53.9,76.03,55.99,74.19,57.33z"/>
<path fill="#FFFFFF" d="M77.84,54.8c0.47-0.09,1.39-0.26,1.85-0.35c-0.37,2.28-0.86,4.58-2.18,6.52
	C77.54,58.91,77.68,56.85,77.84,54.8z"/>
<path fill="#575757" d="M81.1,57.31C84.41,57.6,79.44,60.23,81.1,57.31z"/>
<path fill="#FF1515" d="M127.01,58.95c1.721-0.74,3.77-0.24,5.61-0.4c0,0.2-0.011,0.6-0.011,0.8c-1.459,0.03-2.92,0.03-4.369,0.17
	c-0.061,0.64-0.19,1.91-0.25,2.55c1.609,0.07,3.22,0.18,4.83,0.32c-1.16,1.38-3.01,1.15-4.6,1.39c-0.111,1.02-0.33,3.04-0.441,4.06
	C126.221,65.16,126.859,61.89,127.01,58.95z"/>
<path fill="#FF1B1B" d="M134.46,58.61c1.75-0.03,3.5-0.05,5.261-0.08c0.02,0.229,0.069,0.7,0.1,0.93c-1.5-0.02-3-0.04-4.49-0.04
	c-0.42,3.4,3.27,2.15,4.9,3.9c-1.53,0.16-3.061,0.28-4.58,0.38c0.01,0.8,0.029,2.4,0.039,3.2c-0.34-0.01-1.029-0.04-1.369-0.05
	C134.38,64.1,134.391,61.35,134.46,58.61z"/>
<path fill="#FF1B1B" d="M142.34,58.56c1.801,0.01,3.6,0.01,5.41-0.01c0,0.23,0.01,0.7,0.01,0.93c-1.49-0.05-2.97-0.1-4.46-0.15
	c-0.021,0.65-0.06,1.95-0.079,2.6c1.67,0.24,3.639,0,4.889,1.38c-1.529,0.15-3.069,0.26-4.6,0.35c-0.279,1.32-0.49,2.67-0.92,3.96
	C142.26,64.61,142.359,61.58,142.34,58.56z"/>
<path fill="#FF1919" d="M149.58,58.55c2.24,0.02,4.49,0.05,6.72,0.34c-1.739,0.44-3.53,0.56-5.31,0.64
	c0.02,0.63,0.06,1.91,0.09,2.55c1.529,0.07,3.061,0.17,4.59,0.3c-1.09,1.44-2.939,1.16-4.529,1.34c-0.111,1.03-0.33,3.07-0.451,4.1
	C148.54,65.26,149.971,61.59,149.58,58.55z"/>
<path fill="#FF1B1B" d="M157.15,58.59c1.899-0.01,3.789-0.02,5.689-0.04c-0.029,0.24-0.07,0.7-0.1,0.94
	c-1.51-0.06-3.03-0.1-4.54-0.13c-0.91,3.82,3.45,1.88,4.93,4.04c-1.51,0.1-3.01,0.17-4.51,0.22c-0.24,1.47-0.14,3.14-1.45,4.17
	C156.85,64.73,156.939,61.65,157.15,58.59z"/>
<path fill="#FF1B1B" d="M165.34,58.57c1.801,0,3.6,0,5.4-0.01c0,0.23,0.01,0.67,0.01,0.9c-1.58-0.03-3.16-0.06-4.74-0.07
	c-0.74,3.46,2.6,2.66,4.79,3c-1,1.47-2.8,1.15-4.319,1.32c-0.301,1.33-0.49,2.69-1.01,3.96C165.1,64.65,165.23,61.6,165.34,58.57z"
	/>
<path fill="#FF1B1B" d="M172.57,58.6c2.01-0.01,4.02-0.01,6.039-0.02c-0.01,0.2-0.01,0.61-0.01,0.81c-1.55,0.01-3.09,0.02-4.64,0.04
	c0,0.65-0.01,1.97-0.01,2.62c1.51,0.09,3.021,0.2,4.53,0.34c-1.041,1.43-2.86,1.15-4.391,1.36c-0.08,1.01-0.23,3.05-0.311,4.06
	C171.4,65.41,172.95,61.62,172.57,58.6z"/>
<path fill="#FF1B1B" d="M180.391,58.59c1.81-0.01,3.629-0.03,5.449-0.07c-0.02,0.24-0.07,0.71-0.1,0.95
	c-1.57-0.04-3.15-0.06-4.721-0.07c-0.64,3.31,2.631,2.59,4.74,3.12c-0.689,1.85-3.38,0.75-4.869,1.3
	c-0.011,0.76-0.011,2.29-0.011,3.05l-0.69-0.02C180.34,64.1,180.42,61.35,180.391,58.59z"/>
<path fill="#FF1B1B" d="M188.15,58.56c1.859,0.01,3.709,0.02,5.57,0.01c0.02,0.22,0.059,0.67,0.079,0.89
	c-1.56-0.04-3.11-0.06-4.67-0.08c-0.69,3.53,3.22,2.18,4.92,3.93c-1.53,0.14-3.06,0.25-4.59,0.32c-0.08,1.16-0.14,2.33-0.21,3.49
	l-1.221,0.11C188.029,64.34,188.04,61.45,188.15,58.56z"/>
<path fill="#FF1B1B" d="M195.58,58.41c2.15,0.15,4.32,0.28,6.42,0.83v0.37c-1.7-0.16-3.41-0.23-5.109-0.32
	c-0.021,0.59-0.051,1.77-0.07,2.36c1.52,0.5,3.06,0.99,4.6,1.42c-1.46,0.25-2.92,0.48-4.38,0.7c-0.19,1.06-0.58,3.18-0.78,4.24
	C195.391,64.88,195.49,61.62,195.58,58.41z"/>
<path fill="#FFFFFF" d="M73.5,64.13c0-2.27,0.44-4.7,2.74-5.76C75.88,60.52,74.78,62.41,73.5,64.13z"/>
<path fill="#808080" d="M28.1,63C31.02,61.31,28.44,66.32,28.1,63z"/>
<path fill="#5D5858" d="M76.2,63.24c1.25,0.69,1.19,1.37-0.17,2.03C74.78,64.58,74.84,63.9,76.2,63.24z"/>
<path fill="#FFFFFF" d="M114.21,63.1c0.92,0.47,1.83,0.95,2.729,1.46c0.801,2.19,2.83,3.87,2.32,6.46
	C116.98,68.81,114.6,66.42,114.21,63.1z"/>
<path fill="#C0C0C0" d="M71.84,64.64c0.89,2.58-0.93,5.03-2.75,6.69C69.37,68.89,70.79,66.8,71.84,64.64z"/>
<path fill="#514848" d="M25.17,68.25C25.7,68.75,25.7,68.75,25.17,68.25z"/>
<path fill="#C0C0C0" d="M44.43,68.19c0.95-0.92,3.25-0.84,3.55,0.67C47.63,70.79,43.44,70.29,44.43,68.19z"/>
<path fill="#FFFFFF" d="M73.56,68.2c-0.29,2.43-0.61,4.85-1.02,7.27c-0.67-0.79-1.41-1.51-2.05-2.31
	C71.69,71.62,72.79,70,73.56,68.2z"/>
<path fill="#FF1B1B" d="M132.971,72.5c2.049,0.02,4.1,0.06,6.149,0.25c-2.011,1.76-6.32-0.24-5.74,3.78
	c1.61,0.17,3.229,0.33,4.841,0.54c-1.49,0.15-2.98,0.3-4.471,0.45c-0.061,1.63-0.189,3.25-0.37,4.87
	C132.38,79.19,132.91,75.79,132.971,72.5z"/>
<path fill="#FF1313" d="M140.37,72.5c2.101,0.2,4.55-0.52,6.3,1c-1.63,0.1-3.25,0.2-4.88,0.31c0.021,0.7,0.06,2.09,0.08,2.79
	c1.26,0.11,2.521,0.18,3.79,0.22c-0.01,0.13-0.02,0.39-0.02,0.52c-1.301-0.01-2.601-0.03-3.891-0.04c-0.279,1.69,0.57,4-1.3,5.01
	C140.311,79.05,140.38,75.77,140.37,72.5z"/>
<path fill="#FF0505" d="M147.939,72.67c1.92-0.06,3.83-0.11,5.75-0.17c0.031,0.29,0.11,0.87,0.141,1.16
	c-1.49-0.01-2.971-0.02-4.46-0.02c0,0.8-0.011,2.42-0.021,3.23c0.84-0.05,2.51-0.15,3.34-0.19c0.011,0.17,0.021,0.52,0.031,0.7
	c-0.801-0.04-2.41-0.11-3.211-0.15c-0.18,1.77,0.18,3.77-1.08,5.25C147.82,79.24,147.92,75.94,147.939,72.67z"/>
<path fill="#FF1B1B" d="M155.811,72.6c2.09-0.04,4.189-0.04,6.27,0.09c-1.41,1.49-3.62,0.91-5.439,1.14
	c0,0.73-0.011,2.19-0.011,2.92c1.341-0.02,2.681-0.03,4.021-0.04c0.039,0.18,0.119,0.56,0.16,0.75c-1.36-0.08-2.73-0.16-4.09-0.23
	c-0.041,1.75-0.15,3.49-0.32,5.23C155.27,79.3,155.95,75.87,155.811,72.6z"/>
<path fill="#FF1B1B" d="M163.26,72.56c1.85-0.02,3.711-0.04,5.561-0.08c0.05,0.3,0.14,0.9,0.18,1.2c-1.5,0.01-3.01,0.08-4.5,0.19
	c0.02,0.65,0.07,1.95,0.09,2.6c1.46,0.23,2.93,0.42,4.41,0.59c-1.51,0.13-3.029,0.26-4.54,0.41c0.04,1.39,0.08,2.79,0.13,4.18
	c-0.34,0.04-1.029,0.11-1.369,0.15C163.189,78.72,163.2,75.64,163.26,72.56z"/>
<path fill="#FF1B1B" d="M171.15,72.51c1.83,0.01,3.66,0.021,5.49,0.03c0.02,0.29,0.049,0.87,0.069,1.16
	c-1.569,0.01-3.13,0.02-4.69,0.02c0.08,0.73,0.24,2.19,0.32,2.91c0.82,0.04,2.48,0.12,3.311,0.16c0.029,0.17,0.1,0.49,0.129,0.66
	c-0.869-0.06-2.6-0.18-3.469-0.24c-0.141,1.76-0.25,3.54-0.59,5.28C170.7,79.26,171.141,75.83,171.15,72.51z"/>
<path fill="#FF1B1B" d="M178.84,72.6c2.18,0.11,4.689-0.69,6.52,0.86c-1.739,0.16-3.469,0.28-5.209,0.35
	c0.02,0.75,0.05,2.26,0.07,3.02c0.859-0.04,2.569-0.12,3.42-0.16c0,0.18,0,0.53,0,0.71c-0.871-0.03-2.611-0.1-3.471-0.14
	c0,1.5,0.01,3.01,0.03,4.51c-0.351-0.01-1.05-0.05-1.39-0.06C178.88,78.66,178.88,75.63,178.84,72.6z"/>
<path fill="#FF1B1B" d="M186.189,72.55c1.871-0.02,3.74-0.03,5.61-0.06c0.06,0.32,0.181,0.96,0.24,1.28
	c-1.511-0.04-3.021-0.07-4.53-0.1c0.01,0.78,0.03,2.36,0.04,3.14c0.8-0.03,2.38-0.1,3.171-0.14c-0.011,0.19-0.031,0.56-0.051,0.74
	c-0.76-0.06-2.279-0.18-3.04-0.23c-0.31,1.74,0.591,4.14-1.31,5.25C186.02,79.14,186.09,75.84,186.189,72.55z"/>
<path fill="#FF1B1B" d="M194.24,72.46c1.99,0.06,3.97,0.13,5.949,0.36c-1.709,1.01-3.739,0.96-5.649,1.14
	c-0.28,2.84,1.96,2.94,4.149,2.9c-0.01,0.13-0.01,0.37-0.01,0.49c-1.3,0-2.609,0-3.91,0c0.041,1.47,0.07,2.94,0.09,4.41l-0.699,0.04
	C194.16,78.68,194.18,75.57,194.24,72.46z"/>
<path fill="#9F9F9F" d="M73.02,77.25C76.33,77.34,71.52,80.31,73.02,77.25z"/>
<path fill="#5E5E5E" d="M125.359,84.26C125.9,84.78,125.9,84.78,125.359,84.26z"/>
<path fill="#FF1818" d="M145.189,86.73c2.141,0.18,4.471-0.21,6.4,0.94c-1.72,0.14-3.449,0.23-5.18,0.26
	c-0.04,0.65-0.131,1.97-0.17,2.63c1.439,0.21,2.93,0.33,4.32,0.82c-1,0.07-3.011,0.21-4.021,0.28c-0.229,1.52-0.25,3.17-1.45,4.33
	C144.73,92.91,144.84,89.8,145.189,86.73z"/>
<path fill="#FF1B1B" d="M152.34,86.72c2.27,0.11,4.6,0.04,6.76,0.85c-1.789,0.24-3.6,0.33-5.399,0.42
	c-0.021,0.66-0.07,1.97-0.091,2.62c1.601,0.15,3.24,0.22,4.781,0.73c-1.551,0.17-3.101,0.29-4.65,0.36
	c-0.1,1.47-0.221,2.94-0.37,4.41C151.07,93.59,152.55,89.79,152.34,86.72z"/>
<path fill="#FF1B1B" d="M160.4,86.76c2.119,0.15,4.41-0.229,6.32,0.93c-1.781,0.15-3.561,0.23-5.351,0.26
	c-0.81,2.95,2.229,2.91,4.159,3.72c-1-0.01-2.979-0.03-3.979-0.04c-0.069,1.48-0.18,2.96-0.319,4.44
	C159.529,93.29,160.57,89.83,160.4,86.76z"/>
<path fill="#FF0000" d="M168.15,86.73c2.09,0.12,4.24,0.08,6.22,0.84c-1.69,0.16-3.39,0.25-5.08,0.27c-0.04,0.7-0.12,2.09-0.16,2.78
	c1.44,0.18,2.91,0.3,4.33,0.65c-1.45,0.17-2.899,0.3-4.351,0.38c0.031,0.92,0.111,2.76,0.15,3.68l-1.46-0.08
	C167.811,92.4,167.859,89.56,168.15,86.73z"/>
<path fill="#FF1B1B" d="M175.75,86.78c2.02,0.08,4.109-0.05,6.02,0.76c-2.289,0.57-6.14-0.56-5.58,3.18c0.86,0,2.58,0.01,3.431,0.01
	c0.319,0.23,0.94,0.69,1.26,0.92c-1.5-0.02-2.989-0.04-4.479-0.05c0.08,0.83,0.229,2.49,0.31,3.32c-0.28-0.03-0.84-0.1-1.12-0.14
	C175.66,92.11,175.689,89.45,175.75,86.78z"/>
<path fill="#FF1A1A" d="M183.3,86.73c2.13,0.1,4.341,0,6.38,0.74c-2.18,0.63-5.75-0.31-5.6,3.061c1.74,0.18,3.5,0.35,5.21,0.72
	c-1.61,0.24-3.229,0.42-4.851,0.56c0.011,0.72,0.011,2.17,0.011,2.89c-0.32,0.26-0.97,0.78-1.29,1.04
	C183.13,92.73,183.12,89.73,183.3,86.73z"/>
<path fill="#FF1111" d="M190.88,87.01c2.06-0.27,4.149-0.17,6.229-0.05c-2.039,1.3-5.639,0.1-5.489,3.56
	c1.63,0.2,3.271,0.35,4.86,0.8c-1.461,0.16-2.92,0.28-4.391,0.36c-0.061,0.91-0.17,2.73-0.23,3.64l-1.189-0.1
	C190.67,92.48,190.52,89.73,190.88,87.01z"/>
<path fill="#FF1B1B" d="M137.62,87.15c1.739-0.13,3.479-0.25,5.22-0.36l0.08,1c-2.1,0.29-5.25-0.47-4.87,2.77
	c1.771,0.16,3.61,0.17,5.31,0.79c-1.659,0.18-3.31,0.3-4.969,0.36c0.01,0.78,0.039,2.33,0.049,3.11c-0.199-0.04-0.58-0.1-0.779-0.13
	C137.689,92.18,137.68,89.66,137.62,87.15z"/>
<path fill="#FFFFFF" d="M28.63,89c1.53,1.5,3.58,1.66,5.61,1.68c0.35,0.65,1.06,1.93,1.41,2.57c-2.47,1.99-5.67,2.7-8.74,3.05
	C25.87,93.69,27.56,91.26,28.63,89z"/>
<path fill="#FFFFFF" d="M128.37,91.99c1.28,1.08,2.51,2.229,3.78,3.34c0.83,2.99,1.55,6.07,1.109,9.2
	c-1.14-1.601-1.359-3.57-1.949-5.38C130.311,96.76,128.529,94.67,128.37,91.99z"/>
<path fill="#DADADA" d="M70.43,95.55c5.38-0.31,10.79,0.09,16.16-0.32c2.16,1.26,4.52,2.17,6.6,3.57l-1.91,0.5
	c-5.97-2.54-12.68-3.19-19.19-3.21c-2.55,0.64-4.46,2.62-6.75,3.79c-0.17-0.17-0.49-0.51-0.66-0.68
	C65.25,96.58,68.34,96.29,70.43,95.55z"/>
<path fill="#FFFFFF" d="M68.58,99.92c1.72-0.76,3.46-1.51,5.26-2.06c1.35,0.27,2.7,0.51,4.05,0.72c0.04,3.37,0.04,6.73-0.11,10.1
	c-1.45-0.32-2.91-0.649-4.36-0.99C72.07,104.95,70.44,102.35,68.58,99.92z"/>
<path fill="#FFFFFF" d="M80.11,98.29c3.23,1.14,6.88,0.979,9.85,2.83c6.32,3.92,13.12,7.38,20.479,8.819
	c-0.959-2.039-3.299-2.539-4.91-3.879c2.871-0.181,5.24,1.47,7.49,3.02c2.351,1.65,1.66,5.23,3.801,7.09
	c3.51,2.45,4.539,6.9,5.72,10.77c-0.05,4.051,1.3,9.311-2.569,12.091c-2.941,1.939-6.781,1.739-10.181,1.92
	c-0.11-3.83,1.31-7.47,1.19-11.3c3.449,0.029,6.379,1.88,8.479,4.5c2.54,0.8,0.601-2.59-0.45-3.211c-2.33-2.68-6.1-4.17-9.52-2.729
	c-0.29,1.88-0.311,3.79-0.44,5.69c-1.271-0.86-2.54-1.69-3.819-2.521c1.18-4.87-4.721-5.94-6.75-9.38
	c-4.84-0.46-9.52,2.79-11.37,7.189c-2.51-0.449-5.25-2.399-7.71-0.779c-4.63,2.9-6.07,8.49-8.15,13.189l0.75,0.961
	c2.91-3.181,4.2-7.341,6.23-11.041c1.12-0.629,2.3-1.14,3.46-1.67c2.24,1.271,4.87,1.16,7.35,0.9c0.85-1.061,1.01-2.47,1.47-3.7
	c1.97-1.22,4.03-2.27,6.08-3.31c2.65,2.729,6.71,3.97,7.86,8.02c-0.761,0.051-2.29,0.15-3.05,0.2c-1.3,2.979-2.46,6.04-4.29,8.75
	c-1.85-2.87-5.52-4.05-8.46-2c-2.66,0.899-2.52,4-3.06,6.24c-0.71,2.14-1.81,4.14-2.47,6.3c-1-1.68-1.74-3.71-3.53-4.7
	c-6.42-1.04-13.03,4.48-13.38,10.99c-0.44,0.14-1.33,0.42-1.78,0.56c-1.71-2.1-4.08-5.949-7.22-3.93c-2.5,1.96-4.79,4.2-7.8,5.43
	c0.78,0.811,1.93,1.62,3.06,0.87c2.19-1.64,4.34-3.319,6.49-5.01c2.77,2.12,5.27,4.72,8.43,6.271c0.5-2.24,0.7-4.541,0.88-6.82
	c1.62-1.91,3.22-3.84,5.1-5.49c1.74-0.65,3.63-0.8,5.47-1.04c1.52,2.74,3.86,4.83,6.3,6.729c-5.7,3.701-12.51,5.341-18.03,9.451
	c-5.13-0.311-10.09-1.99-15.25-2.011c-2.28-0.12-3.94-1.979-5.83-3.04c1.99-2.439,3.45-5.27,3.56-8.47
	c1.78-3.851,3.39-7.8,4.34-11.95c0.65-6.109,0.85-12.35,2.78-18.23c0.43-4.119,0.94-8.299,3.08-11.949
	c1.18,1.279,2.3,2.63,3.38,3.99c-1.52,0.189-3.03,0.449-4.52,0.779c1.6,1.131,3.97,1.33,5.04,3.12c-1.88,1.19-3.86,2.22-5.81,3.3
	c2.51,3.851,5.89-1.279,7.53-3.369c1.82,0.819,3.79,1.1,5.76,1.229c1.77-2.54,1.83-5.61,1.79-8.58c2.16,0.46,4.25,1.15,6.32,1.92
	c0.7-2.36,0.88-4.819,1-7.27c1.43,0.72,2.86,1.45,4.26,2.229c0.51,0.051,1.52,0.15,2.02,0.2c0.81-1.271,1.62-2.53,2.4-3.819
	c-0.44-0.301-1.32-0.891-1.76-1.19c-0.29,0.96-0.59,1.92-0.91,2.88c-2.11-0.439-4.15-1.141-6.2-1.8
	C80.1,101.109,80.1,99.7,80.11,98.29z"/>
<path fill="#C0C0C0" d="M93.19,98.8c6.01,1.53,12.22,1.091,18.35,1.03c1.989,1.779,4.03,3.51,5.92,5.39
	c1.729,3.851,3.681,7.601,5.91,11.19c1.479,3.46,0.159,9.01,4.601,10.52c0.93-1.96,1-4.17,1.399-6.26c-0.66,0.53-2,1.6-2.67,2.141
	c0.86-0.931,1.319-2.601,2.94-2.381c0.459-3.279,1.069-6.529,1.77-9.76c0.97,2.01,2.29,3.98,2.4,6.27
	c0.26,5.69,0,11.391-0.42,17.061c0.58,4.95,1.06,9.92,0.989,14.92c-2.33-0.52-5.09-2.96-7.08-0.51
	c4.74,1.939,9.06,4.73,13.671,6.949c2.229,1.201,4.639,2.551,5.899,4.841c0.649,1.44,1.601,2.85,3.18,3.35
	c-2.61,4.63-5.329,9.841-10.25,12.31c-0.47,0.25-1.409,0.74-1.88,0.99c-0.57,0.42-1.71,1.25-2.29,1.67
	c-0.04,0.021-0.12,0.08-0.159,0.101c-0.621,0.36-1.851,1.08-2.471,1.44c-0.98,0.289-1.7,0.89-2.16,1.799
	c-0.92,1.201-2.48,1.671-3.71,2.49c-3.08,1.49-5.37,4.45-8.89,5.01c-3.11,0.711-5.9,2.811-9.221,2.451
	c-9.649-0.19-19.319,0.379-28.95-0.49c-4.99,0.25-9.28-2.711-14.03-3.771c-4.42-2.18-8.89-4.59-12.29-8.239
	c-3.29-3.371-6.59-6.891-10.85-9.021c-0.76,0.33-2.27,0.979-3.03,1.31c-2.9-2.3-6.21-4.02-9.77-5.02
	c-4.04-3.811-6.15-9.15-10.17-12.99c-0.85-7.57-4.25-14.58-5.66-22.04c2.83,1.9,5.23,4.38,6.84,7.39
	c1.35,2.641,3.89,4.601,6.88,4.94c4.46,0.69,8.71,2.41,13.22,2.761c0.32-2.36,0.18-4.881,1.41-7c2.37-4.261,2.93-9.19,3.94-13.871
	c1.07-5.84,3.85-11.199,7.25-16.02c0.09-0.59,0.27-1.79,0.36-2.391c1.26-0.02,2.52-0.049,3.77-0.079c0.38-1.54,0.75-3.08,1.1-4.62
	c1.58-0.78,3.06-1.801,4.72-2.41c-3.05,5.891-9.09,10.6-8.74,17.83c-1.87,8.27-1.25,17.07-4.46,25.02
	c-1.02,3.221-2.1,6.42-3.15,9.62c-1.01,3-3.33,5.671-2.79,9.021c8.01,3.39,16.83,4.15,25.39,5.119c0.18-0.64,0.53-1.909,0.71-2.539
	c3.19-1.881,6.69-3.12,10.13-4.43c1.63-1.11,3.37-2.031,5.17-2.841c5.03-5.22,11.83-8.19,17.52-12.6c2.94-2.49,6.94-1.33,10.45-1.64
	c3.27-0.051,6.039-2.03,9.02-3.121c2.44-8.06,2.2-18.27-4.109-24.549c-1.961-1.971-2.09-5.07-4.17-6.961
	c-2.971-3.149-7.91-5.63-11.91-2.75c-4.19-1.33-8.08-3.42-11.541-6.13L93.19,98.8z"/>
<path fill="#FFFFFF" d="M61.48,107.82c1.35-2.551,2.4-5.641,5.37-6.721c1.66,2.211,2.97,4.65,4.29,7.07
	c0.58,2.58,0.11,5.43-1.44,7.61c-1.51-0.271-2.95-0.86-4.41-1.32C64.47,112.01,63.7,109.391,61.48,107.82z"/>
<path fill="#FF1B1B" d="M140.279,101.17c2.15,0.01,4.301,0.04,6.451,0.21c-1.42,1.7-3.78,1.07-5.67,1.39
	c-0.141,2.891,2.989,1.92,4.779,2.5c-1.24,0.931-2.8,0.92-4.26,1.08c-0.18,1.44,0.061,3.09-1.109,4.2
	C140.029,107.439,140.12,104.3,140.279,101.17z"/>
<path fill="#FF1414" d="M147.55,101.21c2.25-0.01,4.521,0.01,6.771,0.25c-1.68,2.16-5.95-0.33-5.82,3.36
	c1.029,0.01,3.08,0.029,4.1,0.029l-0.09,1.41c-0.9-0.029-2.699-0.09-3.59-0.109c-0.07,1.47-0.16,2.939-0.279,4.42
	C146.33,108.09,147.96,104.25,147.55,101.21z"/>
<path fill="#FF0D0D" d="M155.359,101.189c4.471,0.28,8.92,0.341,13.391-0.02c-0.01,0.34-0.01,1.04-0.01,1.391c-1.48,0-2.95,0-4.42,0
	l-0.23,2.08c1.28,0.56,3.74-0.57,4.2,1.34c-1.37,0.16-2.74,0.279-4.12,0.34c0.02,0.869,0.07,2.6,0.09,3.47
	c-0.369-0.01-1.119-0.04-1.5-0.05c0.03-2.551,0.061-5.11,0.12-7.66c-2.149,0.89-6.45-0.86-6.54,2.689
	c1.471,0.03,2.939,0.051,4.41,0.051c0.01,0.359,0.02,1.06,0.029,1.42c-1.35-0.03-2.709-0.051-4.059-0.07
	c0.01,0.93,0.02,2.8,0.02,3.74c-0.35-0.03-1.07-0.08-1.43-0.11C155.35,106.93,155.35,104.061,155.359,101.189z"/>
<path fill="#FF1B1B" d="M170.77,101.28c2-0.061,3.99-0.08,5.99-0.021c-1.15,1.96-3.619,1.131-5.46,1.48
	c0.13,2.689,3.12,2.06,4.91,2.77c-1.47,0.32-2.96,0.61-4.431,0.92c-0.119,1.34-0.26,2.67-0.439,4
	C170.439,107.47,170.9,104.32,170.77,101.28z"/>
<path fill="#FF1818" d="M178.34,101.141c4.471,0.319,8.93,0.35,13.391,0c0,0.369,0,1.1,0,1.469c-1.73-0.01-3.451-0.02-5.17,0
	c-0.761,3.75,4.52,0.801,4.399,3.5c-1.351,0.101-2.69,0.171-4.03,0.201c-0.01,1.06-0.039,3.18-0.06,4.239
	c-2.24-2.22-0.729-5.75-1.091-8.51c-2.189,0.81-6.359-0.601-6.319,2.84c1-0.021,3.011-0.06,4.011-0.08l0.039,1.41
	c-0.93-0.01-2.789-0.01-3.71-0.021c-0.04,1.25-0.079,2.511-0.12,3.761c-0.32-0.03-0.979-0.101-1.3-0.14
	C178.359,106.92,178.33,104.03,178.34,101.141z"/>
<path fill="#FF1B1B" d="M193.68,101.25c1.75-0.04,3.521-0.07,5.28-0.09c-0.04,0.34-0.11,1.02-0.149,1.359
	c-1.711,0.431-5.09-1.06-4.621,2.181c1.48,0.64,4.521-0.95,5,1.319c-1.529,0.181-3.09,0.211-4.619,0.311
	c-0.09,1.01-0.25,3.04-0.34,4.05C193.2,107.45,193.73,104.29,193.68,101.25z"/>
<path fill="#FFFFFF" d="M53.95,105.79c0.74-1.46,1.89-2.62,3.12-3.681C56.66,103.859,56,105.62,53.95,105.79z"/>
<path fill="#A9AAAA" d="M9.92,112.311C13.24,112.38,8.48,115.4,9.92,112.311z"/>
<path fill="#FF1515" d="M141.32,115.689c4.66,0.761,9.42-0.33,14.029,0.591c-2.06,0.75-5.6-0.39-5.77,2.729
	c1.66,0.131,3.32,0.301,4.97,0.521c-1.409,0.729-2.989,0.88-4.54,1.079c-0.09,1.091-0.279,3.281-0.38,4.381
	c-1.79-2.42-0.739-5.6-0.83-8.34c-2.05,0.17-4.1,0.16-6.149,0.34c-0.92,2.979,2.77,2.02,4.49,2.619c-1.4,0.451-2.83,0.74-4.271,0.98
	c-0.21,1.551-0.47,3.1-0.79,4.63C140.62,122.25,141.391,118.87,141.32,115.689z"/>
<path fill="#FF1111" d="M156.75,115.77c1.939,0.03,3.95-0.09,5.811,0.61c-1.61,0.771-4.59-0.489-5.311,1.601
	c0.311,2.09,3.07,0.859,4.5,1.369c-0.27,0.271-0.82,0.791-1.1,1.051c-0.771-0.01-2.301-0.03-3.061-0.041
	c-0.01,0.871-0.01,2.621-0.01,3.5c-0.24-0.049-0.721-0.159-0.971-0.209C156.68,121.02,156.7,118.4,156.75,115.77z"/>
<path fill="#FF1111" d="M164.29,115.7c2.11,0.14,4.38-0.2,6.33,0.819c-1.601,0.61-6.64-0.709-4.96,2.521
	c0.89,0.069,2.66,0.19,3.54,0.26l0.09,0.99c-1.229,0.05-2.46,0.101-3.681,0.16c-0.109,1.53,0.101,3.26-1.229,4.37
	C164.1,121.79,164.1,118.74,164.29,115.7z"/>
<path fill="#FF0909" d="M171.57,115.811c2.22-0.021,4.43-0.03,6.65,0.159c-1.761,1.601-6.41-0.53-5.33,3.011
	c1.489,0.22,2.989,0.459,4.479,0.699c-1.399,0.521-2.89,0.66-4.351,0.86c-0.16,1.55-0.14,3.25-1.27,4.46
	C171.45,121.95,171.529,118.87,171.57,115.811z"/>
<path fill="#FF1B1B" d="M179.51,115.71c2,0.09,4.1-0.101,5.99,0.72c-1.609,0.2-3.221,0.391-4.84,0.59
	c-1.561,3.141,3.25,1.811,4.859,2.521c-1.549,0.96-3.43,0.851-5.18,1.01c0.04,0.8,0.1,2.41,0.131,3.21c-0.271,0-0.801,0-1.07,0
	C179.48,121.08,179.51,118.4,179.51,115.71z"/>
<path fill="#FF1111" d="M187.08,115.95c2.13-0.33,4.37-0.351,6.4,0.45c-1.9,0.35-3.811,0.58-5.721,0.85
	c0.73,2.24,3.131,2,5.01,2.439c-1.359,0.461-2.799,0.67-4.209,0.871c-0.19,1.529-0.09,3.239-1.431,4.33
	C186.859,121.92,186.721,118.92,187.08,115.95z"/>
<path fill="#FF1818" d="M194.54,115.74c2.25,0.02,4.569-0.1,6.72,0.729c-2.13,0.601-5.92-0.79-5.66,2.63
	c1.551,0.181,3.391-0.24,4.53,1.11c-1.351,0.07-2.7,0.13-4.05,0.17c-0.26,1.601,0.01,3.53-1.43,4.64
	C194.37,121.939,194.439,118.83,194.54,115.74z"/>
<path fill="#C3C4C4" d="M9.94,126.3C13.27,126.52,8.3,129.32,9.94,126.3z"/>
<path fill="#DADADA" d="M11.57,128.73c1.01,2.59,0.96,5.439,1.77,8.08c0.92,2.5,2.35,4.909,2.39,7.64
	c-0.02,0.5-0.08,1.489-0.1,1.989c-1.29-1.699-3.56-2.989-3.74-5.299C11.7,137,11.39,132.87,11.57,128.73z"/>
<path fill="#FF1B1B" d="M141.311,129.72c2.069,0.101,4.199,0.011,6.189,0.7c-1.63,0.12-3.25,0.189-4.88,0.21
	c0.03,0.7,0.09,2.12,0.12,2.83c1.42,0.06,2.83,0.14,4.24,0.25c-1.09,1.19-2.73,1.271-4.221,1.51c-0.08,1.32-0.18,2.65-0.279,3.98
	C139.95,136.84,141.71,132.78,141.311,129.72z"/>
<path fill="#FF1B1B" d="M148.54,130.07c2.26-0.221,4.569-0.4,6.78,0.25c-1.75,0.199-3.51,0.289-5.271,0.359
	c-0.01,0.7-0.021,2.12-0.03,2.82c1.24-0.01,2.48-0.02,3.73-0.03c0.04,0.36,0.109,1.07,0.15,1.421c-1.19,0.02-2.391,0.039-3.58,0.069
	c-0.32,1.479-0.311,3.19-1.631,4.2C148.49,136.141,148.54,133.1,148.54,130.07z"/>
<path fill="#FF1B1B" d="M156.62,130.01c1.94-0.14,3.94-0.29,5.83,0.29c-2.29,0.48-5.97-0.6-5.4,3.03c1.75,0.17,3.729-0.05,5.13,1.26
	c-1.65,0.19-3.31,0.35-4.959,0.48c0.039,0.609,0.129,1.85,0.18,2.46c-0.211,0.329-0.61,0.989-0.811,1.31
	C156.689,135.9,156.7,132.95,156.62,130.01z"/>
<path fill="#FF1B1B" d="M164.25,129.73c2.09,0.08,4.21,0.069,6.24,0.64c-1.711,0.149-3.43,0.25-5.15,0.29c0,0.699,0,2.109,0,2.82
	c1.551,0.039,3.09,0.109,4.641,0.22c-1.15,1.33-2.971,1.25-4.57,1.47c-0.07,1.34-0.16,2.68-0.26,4.01
	C163.1,136.49,164.34,132.84,164.25,129.73z"/>
<path fill="#FF1B1B" d="M171.529,129.84c2,0.01,4,0,6.011-0.01c0,0.189,0.021,0.57,0.03,0.77c-1.6-0.01-3.211-0.01-4.801-0.01
	c0.021,0.71,0.08,2.141,0.101,2.85c1.44,0.07,2.88,0.15,4.319,0.25c-0.989,1.36-2.709,1.271-4.199,1.5
	c-0.211,1.41-0.04,3.041-1.34,4C171.42,136.08,171.49,132.96,171.529,129.84z"/>
<path fill="#FF1B1B" d="M179.43,129.75c2.021,0.08,4.1,0,6.061,0.609c-1.881,0.211-3.76,0.281-5.631,0.36
	c-0.619,4.16,4.051,1.64,5.65,3.98c-1.66,0.14-3.31,0.25-4.97,0.319c-0.319,1.42-0.63,2.851-1.03,4.25
	C179.311,136.1,179.37,132.93,179.43,129.75z"/>
<path fill="#FF0707" d="M187.5,129.95c1.93-0.29,3.891-0.08,5.79,0.3c-2.36,0.439-6.06-0.6-5.46,3.141
	c1.71,0.219,3.689-0.15,5.029,1.229c-1.56,0.13-3.119,0.239-4.67,0.31c-0.02,0.891-0.039,2.67-0.06,3.551h-1.39
	C187.1,135.689,186,132.391,187.5,129.95z"/>
<path fill="#FF1B1B" d="M194.48,129.72c2.029,0.101,4.09,0.11,6.069,0.65c-1.569,0.14-3.14,0.239-4.71,0.29
	c0.03,0.71,0.07,2.12,0.09,2.83c1.24,0.01,2.48,0.02,3.73,0.04c-0.09,0.38-0.28,1.13-0.37,1.51c-0.819-0.03-2.45-0.101-3.271-0.14
	c-0.149,1.479-0.31,2.949-0.51,4.43C193.4,136.641,194.84,132.859,194.48,129.72z"/>
<path fill="#FFFFFF" d="M102.471,133.6c2.039,0.33,3.879,1.26,5.67,2.25c-0.101,1.61-0.201,3.23-0.261,4.84
	c-2.21,0.061-4.03,1.25-5.729,2.521c-5.23,3.21-10.07,7-15.38,10.09c-0.53,0-1.59-0.01-2.12-0.02c0.37-1.2,0.74-2.41,1.11-3.61
	c2.52-2.76,0.13-8.21,4.26-9.54c3.08-1.729,4.75,1.92,7.04,3.19C100.3,141.061,101.39,137.17,102.471,133.6z"/>
<path fill="#FF0707" d="M139.689,144.5c2.16,0.061,4.311,0.12,6.471,0.24c-1.7,0.26-3.42,0.43-5.131,0.619
	c0.031,0.721,0.07,2.15,0.091,2.871c1.11,0.069,3.31,0.209,4.42,0.279c-1.479,0.34-2.99,0.58-4.479,0.83
	c0.02,0.95,0.06,2.86,0.08,3.82c-1.281-0.65-2.591-1.24-3.881-1.87c0.641,0.12,1.92,0.351,2.561,0.47
	C139.76,149.33,139.721,146.92,139.689,144.5z"/>
<path fill="#FF1B1B" d="M147.5,144.51c1.779-0.119,3.561-0.229,5.34-0.34l0.01,0.54c-1.42,0.04-2.84,0.09-4.25,0.14
	c-0.07,0.73-0.22,2.2-0.3,2.94c1.54,0.229,3.07,0.521,4.591,0.851c-1.111,0.09-3.33,0.26-4.44,0.35c0,1.25,0.01,2.5,0.021,3.75
	c-0.261,0.029-0.771,0.09-1.021,0.13C147.52,150.08,147.52,147.29,147.5,144.51z"/>
<path fill="#FF1919" d="M154.8,144.48c2.19,0.02,4.39,0.05,6.57,0.319c-1.82,0.32-3.681,0.431-5.521,0.591
	c-0.32,3.409,3.09,2.619,5.311,3.159c-1.6,0.25-3.21,0.41-4.811,0.58c-0.209,1.59-0.149,3.32-1.25,4.63
	C154.74,150.68,154.85,147.57,154.8,144.48z"/>
<path fill="#FF1818" d="M166.02,153.66c-4.17-1.11-4.74-6.84-2.549-9.86c0.309,2.58,0.369,5.181,0.469,7.78
	c1.281-0.02,2.561-0.05,3.84-0.09c0.561-2.44-0.75-5.86,1.591-7.561c0.08,2.48,0.21,4.99-0.271,7.44
	C168.26,152.35,167.04,152.9,166.02,153.66z"/>
<path fill="#FF1515" d="M171.48,150.21c-0.051-2.101-1-4.851,0.97-6.36c0.239,2.59,0.319,5.19,0.43,7.791
	c1.31-0.101,2.63-0.16,3.95-0.181c0.35-2.51-0.75-5.71,1.41-7.62c0.09,2.62,0.539,5.41-0.53,7.91
	C176.07,154.23,171.5,153.32,171.48,150.21z"/>
<path fill="#FF1111" d="M180.6,143.79c1.851,2.11,0.76,5.19,1.19,7.72c0.96,0.061,2.88,0.17,3.84,0.23
	c0.21-2.43,0.28-4.881,0.24-7.311c0.39,0.061,1.159,0.18,1.54,0.24c0.02,3.3,0.311,7.4-3.32,8.971c-1.311-1-3.949-1.33-3.699-3.49
	C180.24,148.03,180.391,145.9,180.6,143.79z"/>
<path fill="#FF1111" d="M189.779,152.28c-0.02-2.811-0.109-5.65,0.361-8.431c0.299,2.49,0.369,5,0.51,7.51
	c0.959,0.141,2.869,0.41,3.83,0.551c0.56-2.68-0.16-5.83,1.609-8.12c-0.04,3.149,1.2,7.93-2.58,9.43
	C192.221,153.17,191.01,152.609,189.779,152.28z"/>
<path fill="#C0C0C0" d="M15.73,144.45c0.85,2.159,1.51,4.38,2.01,6.649c-1.08-1.34-2.31-2.83-2.11-4.66
	C15.65,145.939,15.71,144.95,15.73,144.45z"/>
<path fill="#F74B4B" d="M150.57,158.72l0.88-0.2c0.21,0.381,0.63,1.121,0.84,1.49C151.859,159.689,151,159.04,150.57,158.72z"/>
<path fill="#FF1313" d="M153.71,158.59c0.39-0.07,1.16-0.21,1.55-0.279c0.391,2.619-1.48,6.56,1.62,7.899
	c0.67-0.2,2.011-0.62,2.681-0.819c-0.051-2.531-0.07-5.051,0.08-7.57c2.479,2.109,1.159,6.09,0.469,8.83
	c-1.889-0.021-3.77-0.021-5.649-0.041C153.7,164,153.609,161.29,153.71,158.59z"/>
<path fill="#FF1B1B" d="M163.55,166.49c-1.17-2.771-1.521-6.311,0.03-9c0.41,2.43,0.41,4.91,0.71,7.359
	c0.42,2.311,4.431,1.5,4.03-0.77c0.359-2.18-0.59-4.83,1.209-6.54c0.4,3.069,0.631,6.28-0.529,9.22
	C167.18,166.72,165.34,166.8,163.55,166.49z"/>
<path fill="#FF1515" d="M171.609,158.311c0.351,0.08,1.061,0.229,1.41,0.31c0.021,2.1-0.1,4.22,0.17,6.31
	c0.531,1.93,2.971,1.4,4.031,0.26c0.229-2.449,0.17-4.92,0.389-7.379c2.011,2.189,0.961,5.67,0.591,8.319
	c-1.72,1.021-4,0.37-5.931,0.57C171.71,163.939,171.62,161.109,171.609,158.311z"/>
<path fill="#FF1B1B" d="M180.66,157.75c3.02,1.95-0.58,7.641,3.33,8.53c4.32-0.511,0.13-6.89,3.52-8.4
	c0.17,2.931,0.051,5.88-0.42,8.78c-1.949,0.01-3.9,0.02-5.84,0C180.33,163.77,180.279,160.73,180.66,157.75z"/>
<path fill="#FF1B1B" d="M189.9,157.79c1.539,2.31,0.26,5.38,1.64,7.729c0.69,1.11,3.44,0.94,3.3-0.59
	c0.65-2.32-0.811-5.59,1.59-7.09c0.11,2.75,0.23,5.561-0.32,8.28c-1.819,1.021-4.139,0.38-6.149,0.53
	C189.73,163.7,189.63,160.74,189.9,157.79z"/>
<path fill="#FFFFFF" d="M146.87,160.2c1.56-0.72,5.29,2,3.18,3.35C148.471,163.05,147.52,161.641,146.87,160.2z"/>
<path fill="#FF1A1A" d="M146,173.78c0.5-0.72,1.01-1.431,1.51-2.14c0.83,2.84,1.01,5.789,1.27,8.719c1,0,2.98,0.021,3.971,0.031
	c0.01-2.681,0.01-5.36,0-8.031c0.37,0.101,1.109,0.32,1.48,0.421c-0.07,2.37,0.129,4.77-0.33,7.11
	c-1.621,2.319-4.42,1.25-6.471,0.319c0.061-2.53,0.061-5.06,0.021-7.58L146,173.78z"/>
<path fill="#FF0D0D" d="M156.54,172.45c0.17,0.02,0.5,0.04,0.67,0.05c-0.04,2.62,0.021,5.23,0.39,7.83c1,0.04,3,0.13,4,0.18
	c0.221-2.91-0.26-5.99,0.98-8.729c0.55,2.75,0.52,5.569,0.449,8.37c-1.709,0.75-3.939,2.02-5.629,0.52
	C156.04,178.17,156.74,175.17,156.54,172.45z"/>
<path fill="#FF1B1B" d="M171.45,171.75c0.96,3.109,1.31,7.061-0.71,9.8c-1.461-0.28-3.12,0-4.41-0.84
	c-1.32-2.56-0.83-5.59-0.73-8.34c1.25,2.54,0.67,5.479,1.09,8.2c1.44,0.06,2.811-0.19,4.101-0.771
	C171.52,177.189,170.98,174.41,171.45,171.75z"/>
<path fill="#FF1B1B" d="M174.77,179.49c-0.479-2.51-0.93-5.37,0.51-7.66c0.351,2.83,0.32,5.689,0.351,8.529
	c1.021,0.021,3.08,0.051,4.11,0.061c0.16-2.859-0.1-5.811,0.82-8.57c0.27,2.84,0.379,5.74-0.131,8.561
	C178.811,181.87,175.48,181.96,174.77,179.49z"/>
<path fill="#FF1B1B" d="M183.49,179.63c0.14-2.53-1.27-5.819,0.939-7.76c0.26,2.85,0.311,5.71,0.45,8.56
	c0.94-0.01,2.82-0.039,3.761-0.06c0.209-2.82,0.239-5.64,0.469-8.46c0.891,2.689,0.761,5.62,0.23,8.38
	c-0.92,1.04-2.449,0.92-3.68,1.28C184.939,180.91,184.21,180.27,183.49,179.63z"/>
<path fill="#FF1B1B" d="M192.721,180.23c-0.671-2.711-1.041-5.931,0.549-8.391c0.351,2.77,0.351,5.561,0.49,8.35
	c0.92,0.03,2.75,0.08,3.67,0.11c0.57-2.819,0.721-5.7,1.15-8.54c0.641,2.79,0.52,5.67,0.561,8.51
	C197.04,180.609,194.689,181.46,192.721,180.23z"/>
<path fill="#7F0303" d="M144.609,175.59c0.07-0.07,0.211-0.189,0.281-0.25C144.82,175.4,144.68,175.52,144.609,175.59z"/>
<path fill="#FF0505" d="M144.891,175.34c0.649,1.801,0.779,4.49-1.281,5.44c-1.869,1.319-3.969-0.311-5.719-0.98
	c0.31-0.1,0.92-0.29,1.229-0.39c1.26,0.26,2.521,0.529,3.78,0.83c0.59-1.551,1.109-3.12,1.709-4.65
	C144.68,175.52,144.82,175.4,144.891,175.34z"/>
<path fill="#BC3333" d="M137.92,176.85c0.471-0.25,1.41-0.74,1.88-0.99l-0.09,0.91l-0.96,0.511L137.92,176.85z"/>
<path fill="#FFFFFF" d="M139.12,179.41c1.899-1.17,3.659-2.551,5.489-3.82c-0.6,1.53-1.119,3.1-1.709,4.65
	C141.641,179.939,140.38,179.67,139.12,179.41z"/>
<path fill="#AC2A2A" d="M135.471,178.62c0.039-0.021,0.119-0.08,0.159-0.101C135.59,178.54,135.51,178.6,135.471,178.62z"/>
<path fill="#6E2C2C" d="M130.84,181.859c0.46-0.909,1.18-1.51,2.16-1.799C133.279,181.84,132.561,182.439,130.84,181.859z"/>
<path fill="#FF1B1B" d="M133.42,187.33c0.24-0.02,0.721-0.05,0.96-0.061c-0.03,2.101-0.06,4.2-0.06,6.301
	c-0.811,0.82-1.631,1.63-2.45,2.43h-3.021c-0.43-2.6-0.74-5.21-1.039-7.82l0.789-0.1c0.08,2.07,0.2,4.13,0.32,6.2
	c1.53-0.021,3.07-0.05,4.609-0.101C133.49,191.9,133.45,189.609,133.42,187.33z"/>
<path fill="#FF1B1B" d="M138.76,195.99c-2.89-2.45-2.869-6.66-1.199-9.78c0.359,2.681,0.41,5.39,0.439,8.101
	c1.43-0.041,2.859-0.101,4.29-0.16c0.05-2.58,0.11-5.17,0.41-7.73c0.59,3.24,1.63,7.439-1.71,9.58h-3L138.76,195.99z"/>
<path fill="#FF1B1B" d="M145.279,187.24c0.371-0.04,1.101-0.12,1.471-0.16c0.07,2.359,0.08,4.73,0.42,7.07
	c1.359,0.1,2.721,0.14,4.08,0.119c0.05-2.629,0.09-5.26,0.391-7.869c0.479,2.58,0.51,5.209,0.629,7.819
	c-0.72,0.45-2.14,1.341-2.859,1.78h-2.01C145.12,193.6,145.29,190.311,145.279,187.24z"/>
<path fill="#FF1B1B" d="M154.24,187.23c0.369-0.03,1.1-0.09,1.47-0.121c0.021,2.41,0.05,4.82,0.101,7.23
	c1.39-0.06,2.789-0.14,4.18-0.23c0.08-2.629,0.18-5.27,0.56-7.869c1.38,3.25,2,8.01-1.909,9.76h-2.65l0.77-0.01
	C153.721,193.98,154.38,190.32,154.24,187.23z"/>
<path fill="#FF1B1B" d="M163.18,187.21c0.36,0,1.08,0.01,1.43,0.01c0.041,2.351,0.08,4.69,0.17,7.04
	c1.32-0.01,2.631-0.02,3.951-0.05c0.149-2.66,0.289-5.319,0.699-7.95c1.16,3.221,1.98,7.96-1.82,9.74h-2.639l0.729-0.01
	C162.71,193.95,163.32,190.3,163.18,187.21z"/>
<path fill="#FF0000" d="M172.561,186.24c0.949,2.479,0.879,5.17,1.33,7.77c0.939,0.15,2.819,0.471,3.76,0.62
	c0.14-2.46,0.189-4.93,0.22-7.39c0.351,0,1.05,0.01,1.39,0.01c-0.21,3.08,0.711,7.05-2.71,8.75h-1.771
	C171.37,193.82,172.01,189.641,172.561,186.24z"/>
<path fill="#FF0404" d="M181.54,186.23c0.819,2.51,0.851,5.16,1.31,7.739c0.93,0.171,2.791,0.511,3.721,0.671
	c0.14-2.431,0.199-4.871,0.24-7.301c0.359-0.01,1.09-0.02,1.459-0.029c-0.25,3.049,0.59,7.02-2.76,8.689h-1.96
	C180.5,193.59,180.8,189.641,181.54,186.23z"/>
<path fill="#FF1313" d="M192.33,196c-2.96-2.48-2.73-6.49-1.471-9.79c0.4,2.58,0.431,5.2,0.94,7.771
	c0.931,0.149,2.8,0.449,3.729,0.6c0.181-2.439,0.271-4.87,0.32-7.3c0.351,0.03,1.041,0.079,1.381,0.11
	c-0.17,3.1,0.619,7.25-3.07,8.609H192.33z"/>
<path fill="#FF1818" d="M123.99,188.59c0.35-0.22,1.05-0.66,1.4-0.88c0,2.96,0.299,6.49-2.601,8.29h-2.71
	c-0.551-1.53-1.09-3.061-1.58-4.6c0.311-0.131,0.939-0.391,1.25-0.521c0.061,0.79,0.189,2.36,0.25,3.14
	c1.26,0.041,2.52,0.07,3.79,0.101C123.859,192.27,123.92,190.43,123.99,188.59z"/>
<path fill="#FFFFFF" d="M119.75,190.88c1.46-0.67,2.87-1.45,4.24-2.29c-0.07,1.84-0.131,3.68-0.2,5.53
	c-1.271-0.03-2.53-0.06-3.79-0.101C119.939,193.24,119.811,191.67,119.75,190.88z"/>
</svg>
