<?xml version="1.0" encoding="utf-8"?>
<!-- Generator: Adobe Illustrator 15.0.2, SVG Export Plug-In . SVG Version: 6.00 Build 0)  -->
<!DOCTYPE svg PUBLIC "-//W3C//DTD SVG 1.1//EN" "http://www.w3.org/Graphics/SVG/1.1/DTD/svg11.dtd">
<svg version="1.1" id="Layer_1" xmlns="http://www.w3.org/2000/svg" xmlns:xlink="http://www.w3.org/1999/xlink" x="0px" y="0px"
	 width="184px" height="189px" viewBox="0 0 184 189" enable-background="new 0 0 184 189" xml:space="preserve">
<path fill="#FFFFFF" d="M0,0h155.45c-2.341,1.1-4.771,2.01-7.36,2.26c-1.71,1.2-3.57,2.23-5.67,2.55c-0.73,0.91-1.43,1.83-2.12,2.75
	c-4.149,4.19-9.829,6.92-12.35,12.55c-0.351,0.08-1.06,0.26-1.421,0.35c-0.829-0.66-1.659-1.33-2.479-1.99
	c1.261-0.14,2.521-0.28,3.79-0.41c-0.279-2.97-3.279-1.5-5.199-1.53c-1.74,0.51-3.33-0.33-4.721-1.28
	c-6.16-1.56-12.68-1.49-18.93-0.55c-1.85,0.31-3.69,0.66-5.51,1.12c-2.3,0.45-4.61,0.86-6.911,1.32
	c-5.72,2.65-12.59-0.41-17.82,3.58c-5.29,2.16-11.38,3.34-15.41,7.71c-2.96,2.64-6.71,4.17-10.18,5.99
	c-3.71-3.3-7.67-6.55-12.65-7.61c-5.07-2.59-9.65-7.28-15.75-6.72c-1.01-0.33-2.01-0.66-3.01-0.99C7.99,17.48,3.84,17.12,0,18.67V0z
	"/>
<path fill="#010101" d="M155.45,0h7.75c-0.04,0.74-0.12,2.23-0.16,2.98c-3.16,3.64-0.3,8.95-3.149,12.83
	c-0.201,5.49-1.841,10.81-3.511,16c-0.04,8.96-2.43,18.04-0.19,26.93c0.94,1.7,1.67,3.51,2.101,5.41
	c3.81,4.21,5.739,9.72,9.54,13.92c0.311,1.31,0.34,2.76,1.12,3.91c2.22,3.31,3.319,7.19,4.409,10.98
	c0.431,4.89-0.35,9.86,0.591,14.729c0.649,3.801-0.05,7.73,1.05,11.471c-1.98,3.46,1.561,6.4,1.26,9.9
	c0.26,2.859-1.119,5.439-1.869,8.109c0.289,4,0.699,8,1.35,11.96c0.25-3.78-1.12-7.83,0.82-11.34c1.219,7.46-0.051,15-3.34,21.771
	c-0.781,0.35-1.561,0.699-2.33,1.049c-0.031,0.801-0.07,2.41-0.101,3.221c-2.681,3.41-2.67,7.84-2.41,11.96
	c-2.84-0.76-3.81,1.54-4.729,3.64c2.57,2.57,1.72,6.311,1.699,9.57h-3.699c-0.041-1.609-0.07-3.22-0.09-4.82
	c-0.631-0.18-1.891-0.539-2.521-0.72c0.729-1.11,1.46-2.21,2.2-3.31c0.22-1.34,0.26-2.75,0.85-3.99c2.12-4.85,3.1-10.12,5.23-14.96
	c0.14-2.37,0.109-4.8,0.93-7.06c0.109-2.4,0.02-4.811,0.25-7.211c1.061-4.31,3.33-8.41,3.17-12.97
	c0.01-3.771-0.029-7.54-0.07-11.319c-2.42-2.98-2.949-6.891-3.189-10.601c-0.24-5.76-1.78-11.38-1.85-17.14
	c0.029-2.95-1.24-5.67-2.98-7.98c-0.66-3.78-1.04-7.94-3.63-10.96c-1.32-4.9-3.229-9.74-6.761-13.49
	c-0.569-1.17-1.149-2.34-1.729-3.5c0.46-0.55,0.931-1.09,1.41-1.63c-0.08-1.37-0.16-2.75-0.24-4.12c-1.88-2.51-3.021-5.88-6.14-7.17
	c-0.2-0.71-0.62-2.13-0.83-2.84c-0.21,2.1-0.381,4.21-0.61,6.31c-1.17-5.54-2.489-11.69-7.71-14.85c0.381-0.2,1.12-0.59,1.49-0.78
	c-2.609-2.37-4.66-5.29-7.391-7.53c-1.66,0.03-3.25,0.61-4.85,0.95c0.051-0.83,0.15-2.51,0.2-3.34c-1.79-0.86-3.53-2.64-5.67-1.86
	c-1.25,0.45-2.3,1.33-3.41,2.03c-0.37-0.81-0.729-1.62-1.09-2.43l-0.46-1.47c-1.57,1.19-2.68,2.8-3.6,4.52
	c0.709-0.09,2.14-0.27,2.85-0.35c-0.02,0.76-0.061,2.3-0.08,3.07c1.76-0.19,3.52-0.4,5.27-0.61l-0.1,1.88
	c-3.51-0.33-7.061-0.86-10.561-0.11c-1.02,1.69-2.08,3.36-3.18,5c-0.55,4.14,1.631,9.41-1.96,12.5c-0.61-1.71-1.079-3.47-1.579-5.21
	c-0.591,2.13-1.641,4.21-1.841,6.42c1.07,0.16,2.14,0.25,3.21,0.39c2.79-2.64,6.381-4.45,10.311-4.12
	c0.629-0.72,1.26-1.43,1.89-2.15c3.78-0.02,7.56-0.05,11.351,0.05c1.379,0.75,2.789,1.44,4.199,2.14c1.131,1.66,2.41,3.23,4.17,4.26
	c1.221,1.63,2.45,3.41,4.51,4.04c1.971,2.49,3.371,5.34,5.07,8c0.9,1.44,2.52,2.4,2.99,4.09c-0.141,0.4-0.43,1.2-0.57,1.6
	l-0.02,1.41c0.539-0.31,1.07-0.63,1.609-0.94c0.36,2.65,1.67,4.94,3.561,6.77c-0.04,3.11-0.04,6.23-0.1,9.34
	c-2.021,3.47-4.33,6.76-7.451,9.34c-7.56,0.18-15.199,0.76-22.709-0.43c1.109,5.219,0.539,10.58,0.689,15.879
	c0.01,4.551-0.58,9.811-4.48,12.771c-1.81,1.66-3.75,3.149-5.6,4.75c5.86-0.64,10.77,3.13,16.4,3.93
	c1.529,0.28,3.08,0.48,4.64,0.671c0.33,0.34,0.979,1.029,1.31,1.369c8.771,1.141,16.521,6.19,23.19,11.7
	c1.8,6.11,2.55,12.54,1.56,18.86c-0.92,3.14-3.409,5.399-5.31,7.949c-7.64,0.25-15.479-0.939-22.97,1.011
	c-0.04,0.28-0.12,0.85-0.16,1.14c-1.42,0.85-2.79,1.77-4.12,2.75c-3.61,0.98-7.47,1.15-10.78,3.03c-8.08,4.229-16.67,7.47-25.54,9.6
	c-0.22,0.47-0.65,1.41-0.87,1.88c-3.05,0.101-6.12,0.021-9.13,0.57H75.3c-3.17-3.15-8.17-0.51-11.44-3.53
	c1.2,0.101,3.59,0.311,4.79,0.41c-0.12-0.34-0.38-1.03-0.5-1.38c-3.31-0.391-6.48,1.689-9.64,0.05c-0.3-0.42-0.9-1.26-1.21-1.68
	c-1.81,0.021-3.61,0.05-5.42,0.08c0-0.681,0-2.021,0-2.7c1.29,0.02,2.59,0.03,3.88,0.05c0.3-0.5,0.88-1.51,1.17-2.01
	c3.26-1.37,4.63-4.75,6.77-7.3c0.32-1.16,0.66-2.33,1.02-3.48c1.35-5.51,1.46-11.229,2-16.859c0.66-1.381,1.33-2.771,2-4.15
	c0.25-0.359,0.75-1.08,1-1.439c2.2-5.121,6.04-9.211,9.81-13.211c1.79-1.06,3.46-2.289,5.04-3.64c-2.26-0.08-4.53-0.101-6.79-0.12
	c-1.83-1.699-3.93-3.07-6.34-3.77c-3.04-1.67-5.96-3.601-8.32-6.17c0.06-4.291,0.08-8.57-0.05-12.86c-2.91,1.93-5.46,4.36-7.58,7.13
	c-5.99,0.16-12.58,0.63-17.61-3.22c-1.52-1.88-2.73-3.97-4.1-5.96c-0.17-4.49-2.21-8.63-4.46-12.42
	c-0.28-6.36-0.53-13.16,2.63-18.86c3.84-2.91,7.82-5.65,11.89-8.23c6.27-0.26,12.46,0.91,18.64,1.83c0.61,0.42,1.84,1.27,2.45,1.7
	c-3.3-3.33-5.69-7.59-9.46-10.4l-1.85,0.39c0.32-1.49,0.64-2.97,1.05-4.43c2.78,1.1,5.39,3.36,8.59,2.36
	c-3.31-2.01-8.37-4.23-11.34-0.56c-1.47-1.06-3-2.03-4.54-2.98c-2.57-0.37-5.11-0.9-7.65-1.47c-1.24,0.26-2.49,0.51-3.75,0.75
	c-1.34,1.96-2.68,3.91-4.08,5.83c-2.4,1.57-4.23,3.78-5.91,6.07c0.35,3.6-2.48,5.94-4.59,8.38c0.04,0.57,0.1,1.71,0.13,2.28
	c-0.58,0.72-1.15,1.43-1.72,2.15c1.18,5.72-3.42,9.9-3.95,15.36c-0.72-1.49-1.39-3.01-2.05-4.521c0.13,1.23,0.35,2.45,0.52,3.68
	c0,0.21,0,0.62,0,0.82c-0.46,0.47-1.37,1.39-1.83,1.86c-0.21,5.75-0.29,11.51-0.17,17.26c-0.19,1.83,1.01,3.26,1.96,4.67
	c0.11,2.48,0.15,4.95,0.32,7.42c1.12,1.79,1.76,3.801,2.37,5.811c1.14,3.91,3.82,7.189,4.66,11.21c1.24,4.19,1.69,8.53,1.85,12.89
	c-0.11,1.33,1.13,2.08,1.86,2.99c0.2,2.1-0.18,4.561,2.04,5.72c-0.56,1.021-1.17,2.03-1.61,3.12c0.48,1.61,1.36,3.061,2.03,4.59
	c1.62,2.7,3.26,5.4,5.01,8.03c-0.03,2.78,0.2,5.67-1.01,8.26c-0.18,1.4-0.37,2.8-0.57,4.2h-2.8c-0.55-3-0.8-6.03-0.77-9.07
	c-0.26-0.289-0.77-0.859-1.03-1.14c-0.99-5.649-3.67-10.8-4.79-16.431c-0.3-1.619-0.83-3.17-1.51-4.659
	c-1.68-4.61-4.54-8.79-7.5-12.7c-0.02-2.2-0.02-4.391-0.02-6.59c-2.11-2.66-1.81-6.141-2.2-9.311c0.59-0.64,1.19-1.26,1.8-1.859
	c0.29,2.34,0.41,4.71,0.54,7.07c2.11,3.33,1.65,7.43,2.55,11.119c1.01,1.971,2.4,3.711,3.87,5.36c0.38,0.8,0.77,1.61,1.15,2.41
	c0.21-4.2-0.42-8.511-2.23-12.33c-2.16-3.45-2.52-7.601-4.04-11.32c-1.13-2.56-2.06-5.21-2.96-7.86c0.11,2.061,0.2,4.121,0.26,6.181
	c-0.53-0.33-1.6-0.979-2.13-1.31C9.39,113.05,9.45,99.53,9.41,86.02c0.09-3.74-0.62-7.74,1.4-11.11c0.68,3.56,0.59,7.2,0.53,10.81
	c1.53-1.74,3.21-3.39,5.35-4.35c0.47-1.14,0.94-2.27,1.42-3.4c-0.41-0.15-1.22-0.46-1.63-0.62c-0.08,0.75-0.23,2.23-0.31,2.97
	L14.6,80.3c0.05-0.67,0.14-2.01,0.19-2.68c-0.47,0-1.4-0.01-1.87-0.01c-2.21-8.54,0.14-17.57-2.53-26.07
	c-1.16-3.13-1.82-6.41-2.22-9.72c-1.64-4.74-3.48-9.42-4.78-14.27c-0.6-2.39-1.93-4.48-3.39-6.42v-2.46
	c3.84-1.55,7.99-1.19,11.75,0.43c1,0.33,2,0.66,3.01,0.99c6.1-0.56,10.68,4.13,15.75,6.72c4.98,1.06,8.94,4.31,12.65,7.61
	c3.47-1.82,7.22-3.35,10.18-5.99c4.03-4.37,10.12-5.55,15.41-7.71c5.23-3.99,12.1-0.93,17.82-3.58c2,1.46,4.35,2.17,6.81,1.63
	c3.29-0.34,6.61-0.32,9.91-0.31c0.271-0.59,0.81-1.78,1.08-2.37c-1.38,0.16-2.75,0.31-4.13,0.45c-2.26-0.14-4.51-0.46-6.76-0.72
	c1.819-0.46,3.66-0.81,5.51-1.12c6.25-0.94,12.77-1.01,18.93,0.55c1.391,0.95,2.98,1.79,4.721,1.28c1.92,0.03,4.92-1.44,5.199,1.53
	c-1.27,0.13-2.529,0.27-3.79,0.41c0.82,0.66,1.65,1.33,2.479,1.99c0.361-0.09,1.07-0.27,1.421-0.35c2.521-5.63,8.2-8.36,12.35-12.55
	c0.69-0.92,1.39-1.84,2.12-2.75c2.1-0.32,3.96-1.35,5.67-2.55C150.68,2.01,153.109,1.1,155.45,0 M154.529,3.93
	c-3.67,0.33-6.409,3.13-10.069,3.39c-1.06,1.69-2.29,3.25-3.5,4.82c-2.56-0.05-3.021,2.85-4.95,3.91
	c-2.24,1.52-4.109,3.57-5.189,6.08c4.229,2.3,7.459,5.84,10.229,9.71c2.91,3.5,4.78,7.74,7.931,11.05c0.27-0.65,0.81-1.95,1.08-2.6
	c-0.07-3.77,0.119-7.52,0.85-11.21c0.08-4.67,2.689-8.8,2.869-13.43c1.011-1.89,1.75-3.91,1.691-6.09
	c1.049-2.1,1.739-4.33,2.439-6.56C156.79,3.33,155.66,3.64,154.529,3.93 M158.05,10.4C156.54,13.42,161.35,10.54,158.05,10.4
	 M106.67,16.27c0.02,0.55,0.061,1.63,0.09,2.17c3.77-0.4,8.33,1.35,11.4-1.57C114.34,16.44,110.51,16.05,106.67,16.27 M156.24,17.06
	C154.55,19.91,159.54,17.45,156.24,17.06 M5.39,20.81c3.17,3.05,5.11,7.06,7.88,10.38c0.63,1.55,1.28,3.09,2.03,4.58
	c0.03,1.5,0.04,3,0.05,4.5c0.44-0.02,1.31-0.06,1.74-0.08c-0.01,0.86-0.02,2.59-0.03,3.46c0.4,0.03,1.2,0.11,1.59,0.14
	c0.14,0.69,0.42,2.06,0.56,2.74c0.31,1.729,1.05,3.33,2.03,4.77c0.73,2.87,1.98,5.64,3.7,8.06c0.77-0.64,1.54-1.28,2.31-1.92
	c0.52-2.42,2.24-4.24,3.55-6.25c1.23-0.38,1.82-1.42,2.27-2.52c-4.03-0.45-7.95,0.9-11.95,0.54c-0.02-0.59-0.06-1.79-0.08-2.39
	c4.03-0.15,8.05,0.23,12.08,0.08c0.58,0.29,1.73,0.87,2.31,1.16c0.21-2.07-2.45-1.69-3.6-2.56c1-0.2,3-0.59,4.01-0.78l1.33,0.69
	c-0.03-0.75-0.08-2.27-0.11-3.02c1.19-2.01,2.78-3.72,4.52-5.25c-3.25-2.73-6.47-6.06-10.81-6.87c-1.35-0.44-3.27-0.16-3.63-1.95
	c-1.16-0.24-2.18-0.76-3.05-1.55c-3.25-2.62-7.43-3.98-11.58-4.07C10.17,21.96,7.81,21.26,5.39,20.81 M72.96,22.55
	c5.08,0.39,10.18-0.1,15.25,0.33c4.64,2.32,10.46,2.75,15.21,0.59l0.63,1.93c0.38-1.84-0.579-4.67-2.93-4.26
	c-7.71-0.1-15.42,0.02-23.13-0.06C76.15,20.87,74.56,21.83,72.96,22.55 M106.76,21.18c-0.02,1.06-0.029,2.12-0.039,3.19
	c0.85,0.34,1.699,0.68,2.539,1.04c1.74-0.89,2.93-2.19,2.87-4.27C110.34,21.14,108.55,21.15,106.76,21.18 M154.67,26.8
	c-0.47,0.33-1.4,1-1.87,1.33c2.229,0.23,2.761-2.03,2.89-3.76C153.99,24.48,153.74,25.4,154.67,26.8 M62.67,26.82
	c-1.73,0.24-2.92,1.32-3.37,3.02c-0.44,0.02-1.31,0.06-1.75,0.08c-1.67,1.32-3.43,2.51-5.22,3.66c-2.09,2.21-4.43,4.15-6.67,6.2
	c-0.45-0.35-1.34-1.061-1.79-1.41c0.49,0.42,1.45,1.27,1.94,1.69c-0.6,0.77-1.2,1.55-1.79,2.33c-2.34,0.12-2.86,2.06-3,3.99
	c1.91,0.15,3.75,0.65,5.11,2.08c5.48,1,10.72,3.41,16.4,3.03c0.96,1.07,1.95,2.11,2.95,3.14c0,0.44-0.01,1.31-0.02,1.75
	c-2.13,0.81-4.36,1.3-6.65,1.33c3.54,3.38,6.54,7.4,10.74,10.03c2.04,2.26,3.75,5.28,7.26,5.229c-0.37,0.4-1.11,1.19-1.49,1.58
	c1.28,0.05,2.56,0.11,3.84,0.16c-0.01,2.51-0.01,5.02-0.01,7.53c2.94-1.48,5.86-3,8.86-4.34c1.39-0.17,2.49-0.95,3.46-1.92
	c1.25-0.04,2.52-0.06,3.78-0.07l0.15-0.84l-1.771-0.13c-0.01-2.1-0.021-4.19-0.021-6.29c-1.869-0.02-3.75-0.08-5.6-0.4
	c0.66-0.48,1.96-1.46,2.61-1.95c-0.15-0.81-0.46-2.45-0.62-3.26c-2.14-2.09-2.81-5.29-2.41-8.17c0.31,0.05,0.94,0.17,1.26,0.23
	c0.25,0.42,0.76,1.27,1.02,1.7c1.63-3.31,2.67-6.85,3.69-10.38c-0.291-0.03-0.851-0.09-1.141-0.12c-0.08,1.15-0.15,2.31-0.21,3.46
	L91.1,49.03c-0.69,1.59,0.49,4.9-2.05,5.14l-0.74-0.15c0.22-5.03,2.8-9.45,4.411-14.1c1.879-2.7,0.5-6.37,0.939-9.46
	c1.369,0.58,2.75,1.14,4.13,1.69c-0.67,2.03-1.36,4.06-2.319,5.96c0.5,0.6,1,1.2,1.5,1.79c0.659-1.73,0.729-3.58,0.779-5.41
	c0.96-2.63,2.57-5,3.2-7.76c-3.4,0.04-6.79-0.27-10.16-0.57c-0.89-0.49-1.77-0.97-2.66-1.46c-5.74,0.13-11.48-0.08-17.22,0.1
	C68.41,26.49,64.36,24,62.67,26.82 M103.189,26c-0.869,2.83-2.149,5.56-2.67,8.48c1.271-0.71,2.521-1.47,3.771-2.24
	C104.15,30.13,104.609,27.78,103.189,26 M106.529,26.62c-0.01,0.53-0.02,1.57-0.029,2.1c0.48-0.05,1.43-0.14,1.91-0.18
	c0.01-0.52,0.02-1.55,0.029-2.06C107.96,26.51,107.01,26.59,106.529,26.62 M153.51,40.8c0.26-2.41,0.25-4.83,0.01-7.23
	C152.08,35.61,152.279,38.68,153.51,40.8 M100.4,44.35c1.289-3.03,2.3-6.18,3.33-9.3C100.04,36.31,99.35,41.01,100.4,44.35
	 M13.22,50.14c0.53,1.5,0.22,3.15,0.32,4.71c0.27,0.03,0.8,0.1,1.07,0.14c0.58-4.97-1.52-9.57-2.07-14.42
	c-0.83-1.13-1.61-2.3-2.41-3.46C11.05,41.48,11.5,45.99,13.22,50.14 M95.68,42.62c-0.01,0.95-0.02,1.9-0.029,2.85
	c1.109,0.7,2.199,1.45,3.34,2.09c0.42-0.72,0.81-1.45,1.18-2.19c-1.439,0-2.88,0.03-4.311,0.1c0.44-0.79,1.32-2.37,1.761-3.16
	C97.141,42.39,96.17,42.54,95.68,42.62 M117.76,43.51c3.51,0.04,7.04,0.17,10.551-0.11C124.92,42.5,121.029,42.04,117.76,43.51
	 M152.311,49.23c0.31-2.31,0.5-4.64,0.43-6.97C151.109,44.24,151.92,46.95,152.311,49.23 M130.311,44.46
	c-0.84,0.97,0.52,2.86,1.68,2.1C132.971,45.6,131.43,43.74,130.311,44.46 M112.48,46.26c-0.53,0.32-1.61,0.95-2.15,1.26
	c-1.939,1.47-3.88,2.95-5.85,4.37c-4.74,5.71-9.221,12.41-8.34,20.22c1.1,0.43,2.18,0.87,3.27,1.33c0.09,2.16,2.13,1.41,3.6,1.43
	c-0.539-0.29-1.63-0.87-2.18-1.15c-0.49-2.86-0.189-5.79-0.08-8.67c1.061-1.79,1.8-3.75,2.05-5.81c0.82-0.73,1.66-1.44,2.5-2.14
	c0.89-1.7,2.04-3.24,3.591-4.38c0.779-0.49,1.549-0.99,2.31-1.5c1.569-1.63,3.21-3.18,4.76-4.83
	C114.8,46.34,113.641,46.3,112.48,46.26 M117.27,47.48c-2.83,3.04-5.31,6.72-9.35,8.22c-0.76,1.82-1.71,3.54-2.66,5.25
	c-3.029,2.81-3.14,7.31-3.13,11.16c1.38,1.02,2.87,1.98,3.86,3.42c2.08,1.8,4.75,2.35,7.289,3.18c2.98,2.19,7.311,2.56,8.961,6.35
	c0.02,0.5,0.06,1.5,0.08,2.01c2.77,0.05,5.449,0.75,8.16,1.29c4.22,1.23,8.74,0.32,13.08,0.54c2.539-1.64,4.539-3.84,5.689-6.65
	c-0.029-2.15,0.1-4.3-0.15-6.43c-1.199-1.94-2.55-3.91-2.609-6.28c-0.82-2.34-2.18-4.71-1.11-7.23c-1.7-1.3-1.96-3.56-2.899-5.35
	l-0.07,3.21c-0.95,0.02-1.891,0.04-2.82,0.06c0.051-1.54,0.09-3.07,0.12-4.61c-2.739-1.8-5.37-3.8-8.39-5.14
	c-1.67-1.49-3.12-3.49-5.37-4.11C123.01,46.08,120.02,46.41,117.27,47.48 M38.96,47.32C37.47,50.35,42.28,47.42,38.96,47.32
	 M97.7,53.98c-0.08,0.44-0.229,1.32-0.31,1.76c1.609-1.7,3-3.61,4.359-5.51C100.41,51.49,99.109,52.81,97.7,53.98 M17.16,50.08
	c-0.14,3.38-0.07,6.76-0.08,10.13c-0.65,0-1.95,0-2.6-0.01c0.04,4.51-0.09,9.02,0.11,13.53c2.06-1.53,2.2-4.61,4.72-5.71
	C18.6,61.98,21.14,55.37,17.16,50.08 M32.29,53.35C32.77,53.9,32.77,53.9,32.29,53.35 M89.71,59.94c1.24,1.14,2.51,2.25,3.87,3.25
	c0.12-2.82,0.12-5.64-0.051-8.46C92.12,56.36,90.85,58.11,89.71,59.94 M20.58,64.35c2.76-1.05,2.01-3.98,0.17-5.61
	C20.62,60.61,20.59,62.48,20.58,64.35 M46.32,66.35c0.13,0.4,0.38,1.19,0.51,1.59c-4.22,2.47-8.44,4.96-11.34,9.04l-0.46-2.05
	l0.94-1.3c-1.4,0.24-2.82,0.86-3.14,2.4c-1.79,3.97-1.55,8.41-1.54,12.66c0.53,0.26,1.59,0.77,2.12,1.02
	c-0.07,1.21-0.14,2.42-0.19,3.63c0.75,0,2.26,0,3.02-0.01c0.07,2.33,0.05,4.66,0.21,6.99l0.23-1.09c1.45,2.119,3,4.16,4.58,6.18
	c1.29,0.55,2.58,1.1,3.78,1.83c3.26,0.16,6.53,0.1,9.8,0.119c1.48-1.64,3.17-3.069,4.58-4.77c1.2-2.23,1.53-4.939,3.4-6.779
	c1.47-1.46,2.14-3.46,2.32-5.48c2.77-2.1,5.65-4.08,8.09-6.58c0.61,0.05,1.82,0.13,2.43,0.17c-0.31-0.41-0.94-1.22-1.25-1.63
	c0.02-0.74,0.07-2.23,0.09-2.98c-0.67,0.02-2.02,0.06-2.69,0.08c-1.2-2.53-2.17-5.17-3.53-7.63c-4.21-1.229-8.34-2.72-12.69-3.4
	c-1.78-0.69-3.58-1.34-5.37-2.01C49.3,67.9,47.4,67.47,46.32,66.35 M71.96,75.22C70.5,78.27,75.28,75.31,71.96,75.22 M77.34,77.23
	c-0.63,1.25-0.61,2.49,0.06,3.72C78.72,80.84,78.7,77.28,77.34,77.23 M93.2,78.92c-3.7,2.2-7.97,3.31-11.41,5.99
	c-0.39,0.29-1.17,0.88-1.56,1.18c-1.94,0.94-3.86,2.04-6.07,2.13c-1.84,1.44-4.09,2.49-5.47,4.42c-1.37,4.29-1.03,8.94-2.84,13.129
	c-0.07,3.23-0.06,6.48,0.02,9.721c0.71,0.9,1.4,1.83,2.07,2.77c1.53,0.801,3.08,1.57,4.61,2.36c2.17,1.58,4.62,2.75,6.66,4.521
	c5.54,0.789,11.16,0.14,16.74,0.35c3.56-0.19,7.38,0.689,10.67-1.08c0.3-0.32,0.899-0.95,1.2-1.27c3.9-0.641,6.4-3.961,9.63-5.9
	c2.86-1.221,2.64-4.7,3.89-7.11c0.131-4.13,0.12-8.26,0.01-12.39c-0.83-1.87-0.52-4.2-2.08-5.7l1.311,0.46
	c-0.04-0.54-0.109-1.62-0.141-2.16c-2.26-0.8-1.58-3.72-2.6-5.47c-2.41-1.18-4.9-2.27-6.97-4.01c-0.88,0.44-1.761,0.88-2.64,1.32
	l0.35-1.49c-1.78-0.87-3.38-2.47-5.52-2.17C99.779,78.57,96.43,78.18,93.2,78.92 M166.08,78.5c-0.92,1.17-0.689,1.86,0.689,2.07
	C167.68,79.39,167.45,78.7,166.08,78.5 M166.189,82.91c0.541,0.51,1.61,1.52,2.15,2.03c-0.029,1.98-0.07,4,0.71,5.87
	c0.56,3.89,1.011,7.86,2.36,11.581c0.609-4.94,0.35-10.031-1.37-14.73C169.34,85.77,168.87,82.82,166.189,82.91 M63.25,101.27
	C63.85,101.811,63.85,101.811,63.25,101.27 M39.33,106.25C39.84,106.74,39.84,106.74,39.33,106.25 M45.88,108.9l-0.09,1.109
	c2.86-0.06,5.85,0.4,8.58-0.699C51.57,108.83,48.72,108.87,45.88,108.9 M171.109,111.41C169.52,114.43,174.38,111.68,171.109,111.41
	 M115.85,129.04c-2.729-0.39-5.5-0.64-8.119-1.55c-1.131,0.27-2.26,0.55-3.4,0.82c0.061,1.049,0.109,2.119,0.16,3.18
	c1.09,0.05,2.18,0.109,3.27,0.17c1.78,2.31,6.7,2.56,7.16-0.96c2.02,1.84-0.22,3.68-1.93,4.5c-2.801-0.9-5.68-1.521-8.53-2.22
	c-0.021,2.069-0.03,4.14-0.06,6.199c-1.44-0.02-2.891-0.039-4.34-0.07c-0.771-1.969-3.031-1.469-4.69-1.729
	c0.04,1.761,0.09,3.521,0.159,5.28c-2.5,3.67-7.879,2.22-11.199,0.51c0,0.83-0.02,2.51-0.03,3.34c-1.08,0.09-2.16,0.19-3.24,0.29
	c-0.81,2.94-4.2,1.83-6.39,1.73c1.1-0.53,2.28-0.811,3.46-1.08c1.73-1.23,3.7-2.11,5.33-3.5c-1.76-0.65-3.53-1.271-5.31-1.83
	c0.11-0.38,0.33-1.15,0.44-1.53c1.52,0.561,3.04,1.12,4.61,1.53c-1.64-1.47-3.4-2.82-4.64-4.66c-0.81,1.44-1.8,2.771-2.96,3.95
	c-0.88,1.82-1.55,3.74-2.01,5.71c-0.93,0.14-1.91,0.56-2.2,1.55c-0.92,2.53-3.15,5.08-1.51,7.811c1.18-2.25,0.24-6.291,2.96-7.32
	c0.88,2.3,0.65,4.77-1.03,6.64c0.17,3.38-0.92,6.591-1.69,9.83c-3.03,2.29-1.77,7.14-4.96,9.42c0.03,2.41-1.88,3.67-3.54,5.021
	c0.69,0.09,2.08,0.26,2.78,0.35c1.26,0.439,2.53,0.85,3.8,1.25c0.87-0.62,1.73-1.23,2.59-1.85c1.41-0.65,2.82-1.311,4.2-2.03
	c1.43-0.06,2.87-0.101,4.3-0.14c0.88,0.92,1.74,1.85,2.59,2.789c1.39,0.551,2.77,1.121,4.2,1.57c0.79-1.59,1.25-3.29,1.76-4.979
	c1.85-0.05,2.5-1.601,3.12-3.061c3.75-2.67,8.39-3.61,12.92-3.17c1.011,2.16,2.729,3.19,5.091,2.54
	c0.719-1.79,1.549-3.529,2.189-5.359c0.18-0.99,0.369-1.971,0.561-2.95c3.709-1.19,7.469-2.811,11.449-2.04
	c1.24,0.869,2.29,1.97,3.43,2.97c1.45-2.46,2.971-4.899,4.141-7.51c1.529-0.261,3.02-0.681,4.49-1.17
	c-1.931-3.45-6.631-4.021-8.391-7.57c-3.311,0.78-6.32,2.39-9.47,3.63c-0.761,1.18-1.19,2.66-2.32,3.551
	c-2.021,0.539-4.17,0.229-6.239,0.369c-0.381-0.41-1.131-1.229-1.5-1.64c-0.82,0.04-2.44,0.12-3.25,0.16
	c-1.301,1.18-2.69,2.26-4.141,3.26c-0.71,0.96-1.43,1.92-2.141,2.89c-0.25,1.61-1.049,3.021-1.829,4.42
	c-0.681,0.291-1.36,0.59-2.04,0.891c-0.391-0.03-1.17-0.09-1.56-0.131c2.38-2.42,3.47-5.699,5.339-8.469
	c1.271-1.811,3.351-2.73,5.09-4.011c1.98-0.06,3.961-0.069,5.941-0.11c0.26,0.301,0.789,0.891,1.059,1.19
	c1.431-0.04,2.861-0.05,4.301-0.06c1.02-1.711,1.93-3.59,3.68-4.7c3.91-1.03,9.23-4.37,12.311,0.01c2.5,1.57,6.709,2.851,6.479,6.45
	c1.761-0.09,3.24,0.81,4.7,1.67c0.09-1.55,0.311-3.08,0.9-4.52c2.82,0.02,5.649-0.011,8.479-0.03c2.08,2.159,5.91,2.689,6.681,5.899
	c-2.961-0.689-5.67-2.33-7.57-4.71c-1.801-0.05-3.61-0.06-5.4-0.09c-0.04,1.59-0.061,3.19-0.07,4.79
	c-0.379,0.05-1.149,0.13-1.539,0.17c0.35,1.91-1.17,5.96,2.14,5.61c3.94,0.069,9.53,0.409,11.58-3.73
	c0.7-1.579,1.479-3.12,2.34-4.61c0.021-2.079,0.03-4.159,0.069-6.229c-0.51-1-1-2.01-1.489-3.01c-1.091-0.88-2.16-1.79-3.21-2.71
	c0.68-0.48,1.369-0.95,2.061-1.42l1.139,1.31c-0.81-1.319-1.92-2.409-3.039-3.47l0.699,1.95c-0.76,0.319-1.5,0.649-2.25,1
	c0.301-2.8-2.42-4.931-4.279-6.72c-3.17-1.881-6.5-4.69-10.43-3.99c1.449,1.91,4.25,1.539,5.989,3.119
	c-3.28,0.42-6.409-0.779-9.59-1.34c-0.351-0.34-1.04-1.029-1.39-1.38c-3.291,0.47-5.95-1.79-9.131-2.03
	c-1.219-0.739-2.469-1.42-3.75-2.049c0.42-0.281,1.25-0.86,1.66-1.141c-0.59-0.92-1.399-1.66-2.43-2.2
	c0.061,1.19,0.29,2.39-0.07,3.56C116.721,131.53,115.57,123.641,115.85,129.04 M87.9,129.061c2.36,1.09,4.27,2.84,5.14,5.34
	c0.479,0.029,1.44,0.08,1.931,0.109c1.42,2.561,5.129,1.82,7.469,3.09c-0.02-3.17-0.02-6.34-0.01-9.5
	C97.561,128.08,92.67,127.92,87.9,129.061 M122.37,131.061c2.54,0.399,5.28,0.51,7.39,2.159c2.471,0.4,4.98,1.671,7.48,0.851
	c-1.641-0.82-3.32-1.551-4.961-2.37c-2.85,0.01-5.68-0.63-8.199-1.96C123.5,130.17,122.93,130.609,122.37,131.061 M81.46,134.47
	c-0.32,1.32-0.62,2.63-0.92,3.95c1.25,0.471,2.5,0.95,3.75,1.43c-0.01,0.57-0.03,1.73-0.04,2.311c2.38,0.04,4.56,1.25,6.92,1.23
	c3.04-0.791,2.17-4.371,2.4-6.701c-0.7-0.119-2.09-0.359-2.791-0.489c-0.2-1.48-0.43-2.96-0.7-4.431
	c-0.79-0.16-2.37-0.479-3.16-0.64C85.33,132.609,83.45,133.67,81.46,134.47 M172.87,142.01c-0.33,4.07-2.49,7.78-1.82,11.971
	c0.86-0.881,1.729-1.74,2.64-2.57c-0.01-3.13,0.041-6.25,0.09-9.38L172.87,142.01 M171.189,155.141
	c-0.52,1.64,0.021,2.199,1.641,1.67C173.35,155.16,172.811,154.609,171.189,155.141 M68.27,158.41c-0.98,0.98-0.99,3.41,0.58,3.8
	C70.51,161.76,70.27,157.561,68.27,158.41 M132.58,159.29c-0.08,0.42-0.23,1.271-0.311,1.69c-1.799,1.77-3.229,3.869-4.17,6.22
	c-0.56,0.319-1.689,0.96-2.25,1.29c-1.47-0.891-2.31-2.32-2.92-3.87c-1.97-0.11-3.949-0.261-5.92-0.06
	c-1.39,0.779-2.43,2.02-3.56,3.119c0.03,0.62,0.1,1.86,0.13,2.49c-1.801,0.17-2.2,1.6-2.311,3.141c1.971,0.01,3.951,0.01,5.92-0.061
	c2.041-1.17,4.531-0.45,6.641-1.46c0.62-0.07,1.87-0.22,2.49-0.29c2.32-1.74,4.35-4.01,7.09-5.07c2.4-0.189,4.8-0.119,7.199-0.229
	c0.041-1.9,0.061-3.8,0.08-5.69c-0.489,0-1.469,0-1.949,0c-0.04-0.49-0.1-1.47-0.141-1.96
	C136.59,158.74,134.58,159.03,132.58,159.29 M93.84,173.939c-1.91,2.181-3.99,4.391-4.97,7.17c-0.5,0.74-1.48,2.201-1.97,2.931
	c2.06-0.2,4.08-0.601,6.071-1.17c1.629-1.2,3.379-2.28,4.67-3.88c2.17-1.69,3.899-4.051,6.739-4.67
	C101.779,170.71,97.21,172.9,93.84,173.939 M26.9,172.91c0.68,2.21,1.16,4.58,2.66,6.42c-0.08-0.66-0.24-1.98-0.31-2.63
	C28.42,175.46,27.66,174.18,26.9,172.91 M109.74,176.47c1.48,2.05,4.439,1.65,5.68-0.409C113.51,175.96,111.59,175.98,109.74,176.47
	 M99.061,182.59c3.84-0.48,7.41-2.16,11-3.54c-0.92-0.87-1.86-1.72-2.811-2.55C104.15,177.98,100.88,179.48,99.061,182.59
	 M70.14,182.061c0.28,0.42,0.83,1.25,1.1,1.67c1.04,0.369,2.08,0.739,3.13,1.09c1.83,0.72,3.69,1.46,5.68,1.49
	c1.09-1.301,5.4-2.201,2.88-4.07c-2.39-0.82-4.25-3.29-6.94-3C73.96,179.99,72.13,181.2,70.14,182.061 M61.51,183.07
	C61.76,186.41,64.4,181.46,61.51,183.07 M86.22,186.4c0.07,1.43,2.59,1.24,3.46,0.56C89.57,185.58,87.08,185.73,86.22,186.4z"/>
<path fill="#FFFFFF" d="M163.2,0H184v189h-18.65c0.021-3.26,0.871-7-1.699-9.57c0.92-2.1,1.89-4.399,4.729-3.64
	c-0.26-4.12-0.271-8.55,2.41-11.96c0.03-0.811,0.069-2.42,0.101-3.221c0.77-0.35,1.549-0.699,2.33-1.049
	c3.289-6.771,4.559-14.311,3.34-21.771c-1.94,3.51-0.57,7.56-0.82,11.34c-0.65-3.96-1.061-7.96-1.35-11.96
	c0.75-2.67,2.129-5.25,1.869-8.109c0.301-3.5-3.24-6.44-1.26-9.9c-1.1-3.74-0.4-7.67-1.05-11.471
	c-0.94-4.869-0.16-9.84-0.591-14.729c-1.09-3.79-2.189-7.67-4.409-10.98c-0.78-1.15-0.81-2.6-1.12-3.91
	c-3.801-4.2-5.73-9.71-9.54-13.92c-0.431-1.9-1.16-3.71-2.101-5.41c-2.239-8.89,0.15-17.97,0.19-26.93
	c1.67-5.19,3.31-10.51,3.511-16c2.85-3.88-0.011-9.19,3.149-12.83C163.08,2.23,163.16,0.74,163.2,0z"/>
<path fill="#FDFDFD" d="M154.529,3.93c1.131-0.29,2.261-0.6,3.381-0.93c-0.7,2.23-1.391,4.46-2.439,6.56
	c0.059,2.18-0.681,4.2-1.691,6.09c-0.18,4.63-2.789,8.76-2.869,13.43c-0.73,3.69-0.92,7.44-0.85,11.21
	c-0.271,0.65-0.811,1.95-1.08,2.6c-3.15-3.31-5.021-7.55-7.931-11.05c-2.771-3.87-6-7.41-10.229-9.71
	c1.08-2.51,2.949-4.56,5.189-6.08c1.93-1.06,2.391-3.96,4.95-3.91c1.21-1.57,2.44-3.13,3.5-4.82
	C148.12,7.06,150.859,4.26,154.529,3.93z"/>
<path fill="#6E6E6E" d="M158.05,10.4C161.35,10.54,156.54,13.42,158.05,10.4z"/>
<path fill="#252525" d="M86.57,17.14c2.3-0.46,4.61-0.87,6.911-1.32c2.25,0.26,4.5,0.58,6.76,0.72c-1.77,0.19-3.551,0.31-5.33,0.44
	c-0.381,0.44-1.141,1.34-1.53,1.79C90.92,19.31,88.57,18.6,86.57,17.14z"/>
<path fill="#FEFEFE" d="M100.24,16.54c1.38-0.14,2.75-0.29,4.13-0.45c-0.271,0.59-0.81,1.78-1.08,2.37
	c-3.3-0.01-6.62-0.03-9.91,0.31c0.39-0.45,1.149-1.35,1.53-1.79C96.689,16.85,98.471,16.73,100.24,16.54z"/>
<path fill="#FFFFFF" d="M106.67,16.27c3.84-0.22,7.67,0.17,11.49,0.6c-3.07,2.92-7.631,1.17-11.4,1.57
	C106.73,17.9,106.689,16.82,106.67,16.27z"/>
<path fill="#F9F9F9" d="M156.24,17.06C159.54,17.45,154.55,19.91,156.24,17.06z"/>
<path fill="#FFFFFF" d="M5.39,20.81c2.42,0.45,4.78,1.15,7.12,1.89c4.15,0.09,8.33,1.45,11.58,4.07c0.87,0.79,1.89,1.31,3.05,1.55
	c0.36,1.79,2.28,1.51,3.63,1.95c4.34,0.81,7.56,4.14,10.81,6.87c-1.74,1.53-3.33,3.24-4.52,5.25c0.03,0.75,0.08,2.27,0.11,3.02
	l-1.33-0.69c-1.59-0.31-3.2-0.45-4.8-0.62c-0.49,1.5-1.5,2.23-3.03,2.18c-2.92,0.28-5.87,0.33-8.8,0.25
	c-0.14-0.68-0.42-2.05-0.56-2.74c-0.39-0.03-1.19-0.11-1.59-0.14c0.01-0.87,0.02-2.6,0.03-3.46c-0.43,0.02-1.3,0.06-1.74,0.08
	c-0.01-1.5-0.02-3-0.05-4.5c-0.75-1.49-1.4-3.03-2.03-4.58C10.5,27.87,8.56,23.86,5.39,20.81z"/>
<path fill="#FEFEFE" d="M72.96,22.55c1.6-0.72,3.19-1.68,5.03-1.47c7.71,0.08,15.42-0.04,23.13,0.06c2.351-0.41,3.31,2.42,2.93,4.26
	l-0.63-1.93c-4.75,2.16-10.57,1.73-15.21-0.59C83.14,22.45,78.04,22.94,72.96,22.55z"/>
<path fill="#FEFEFE" d="M106.76,21.18c1.79-0.03,3.58-0.04,5.37-0.04c0.06,2.08-1.13,3.38-2.87,4.27
	c-0.84-0.36-1.689-0.7-2.539-1.04C106.73,23.3,106.74,22.24,106.76,21.18z"/>
<path fill="#909090" d="M112.561,24.76c0.92-1.72,2.029-3.33,3.6-4.52l0.46,1.47c-0.05,1.1-0.11,2.21-0.17,3.31
	c0.01,0.18,0.03,0.52,0.04,0.7c2.31,0.39,4.97,0.51,5.22,3.43c-3.92-0.18-7.84-0.65-11.771-0.51c3.5-0.75,7.051-0.22,10.561,0.11
	l0.1-1.88c-1.75,0.21-3.51,0.42-5.27,0.61c0.02-0.77,0.061-2.31,0.08-3.07C114.7,24.49,113.27,24.67,112.561,24.76z"/>
<path fill="#FFFFFF" d="M0,21.13c1.46,1.94,2.79,4.03,3.39,6.42c1.3,4.85,3.14,9.53,4.78,14.27c0.4,3.31,1.06,6.59,2.22,9.72
	c2.67,8.5,0.32,17.53,2.53,26.07c0.47,0,1.4,0.01,1.87,0.01c-0.05,0.67-0.14,2.01-0.19,2.68l1.57,0.02
	c0.08-0.74,0.23-2.22,0.31-2.97c0.41,0.16,1.22,0.47,1.63,0.62c-0.48,1.13-0.95,2.26-1.42,3.4c-2.14,0.96-3.82,2.61-5.35,4.35
	c0.06-3.61,0.15-7.25-0.53-10.81c-2.02,3.37-1.31,7.37-1.4,11.11c0.04,13.51-0.02,27.03,0.02,40.541c0.53,0.33,1.6,0.979,2.13,1.31
	c-0.06-2.06-0.15-4.12-0.26-6.181c0.9,2.65,1.83,5.301,2.96,7.86c1.52,3.72,1.88,7.87,4.04,11.32c1.81,3.819,2.44,8.13,2.23,12.33
	c-0.38-0.8-0.77-1.61-1.15-2.41c-1.47-1.649-2.86-3.39-3.87-5.36c-0.9-3.689-0.44-7.789-2.55-11.119c-0.13-2.36-0.25-4.73-0.54-7.07
	c-0.61,0.6-1.21,1.22-1.8,1.859c0.39,3.17,0.09,6.65,2.2,9.311c0,2.199,0,4.39,0.02,6.59c2.96,3.91,5.82,8.09,7.5,12.7
	c0.68,1.489,1.21,3.04,1.51,4.659c1.12,5.631,3.8,10.781,4.79,16.431c0.26,0.28,0.77,0.851,1.03,1.14
	c-0.03,3.04,0.22,6.07,0.77,9.07H0V21.13z"/>
<path fill="#FCFCFC" d="M116.62,21.71c0.36,0.81,0.72,1.62,1.09,2.43c1.11-0.7,2.16-1.58,3.41-2.03c2.14-0.78,3.88,1,5.67,1.86
	c-0.05,0.83-0.149,2.51-0.2,3.34c1.6-0.34,3.189-0.92,4.85-0.95c2.73,2.24,4.781,5.16,7.391,7.53c-0.37,0.19-1.109,0.58-1.49,0.78
	c5.221,3.16,6.54,9.31,7.71,14.85c0.229-2.1,0.4-4.21,0.61-6.31c0.21,0.71,0.63,2.13,0.83,2.84c3.119,1.29,4.26,4.66,6.14,7.17
	c0.08,1.37,0.16,2.75,0.24,4.12c-0.479,0.54-0.95,1.08-1.41,1.63c0.58,1.16,1.16,2.33,1.729,3.5c3.531,3.75,5.44,8.59,6.761,13.49
	c-0.091,1.55-0.2,3.11-0.351,4.66c-2.22-2.39-3.6-5.43-5.939-7.73c-1.891-1.83-3.2-4.12-3.561-6.77
	c-0.539,0.31-1.07,0.63-1.609,0.94l0.02-1.41c0.141-0.4,0.43-1.2,0.57-1.6c-0.471-1.69-2.09-2.65-2.99-4.09
	c-1.699-2.66-3.1-5.51-5.07-8c-2.06-0.63-3.289-2.41-4.51-4.04c-1.76-1.03-3.039-2.6-4.17-4.26c-1.41-0.7-2.82-1.39-4.199-2.14
	c-3.791-0.1-7.57-0.07-11.351-0.05c-0.63,0.72-1.261,1.43-1.89,2.15c-3.93-0.33-7.521,1.48-10.311,4.12
	c-1.07-0.14-2.14-0.23-3.21-0.39c0.2-2.21,1.25-4.29,1.841-6.42c0.5,1.74,0.969,3.5,1.579,5.21c3.591-3.09,1.41-8.36,1.96-12.5
	c1.1-1.64,2.16-3.31,3.18-5c3.931-0.14,7.851,0.33,11.771,0.51c-0.25-2.92-2.91-3.04-5.22-3.43c-0.01-0.18-0.03-0.52-0.04-0.7
	C116.51,23.92,116.57,22.81,116.62,21.71 M145.48,49.54c0.879,2.24,1.6,4.69,3.549,6.26c0.531,0.81,1.57,2.44,2.101,3.25
	c0.851-2.72-0.569-5.08-2.149-7.17c-0.16-0.66-0.471-1.98-0.621-2.64C147.641,49.31,146.2,49.47,145.48,49.54z"/>
<path fill="#A5A5A5" d="M154.67,26.8c-0.93-1.4-0.68-2.32,1.02-2.43c-0.129,1.73-0.66,3.99-2.89,3.76
	C153.27,27.8,154.2,27.13,154.67,26.8z"/>
<path fill="#FEFEFE" d="M62.67,26.82c1.69-2.82,5.74-0.33,8.24-2.02c5.74-0.18,11.48,0.03,17.22-0.1c0.89,0.49,1.77,0.97,2.66,1.46
	c3.37,0.3,6.76,0.61,10.16,0.57c-0.63,2.76-2.24,5.13-3.2,7.76c-0.05,1.83-0.12,3.68-0.779,5.41c-0.5-0.59-1-1.19-1.5-1.79
	c0.959-1.9,1.649-3.93,2.319-5.96c-1.38-0.55-2.761-1.11-4.13-1.69c-0.439,3.09,0.939,6.76-0.939,9.46
	c-1.611,4.65-4.191,9.07-4.411,14.1l0.74,0.15c2.54-0.24,1.36-3.55,2.05-5.14l1.11,0.729c0.06-1.15,0.13-2.31,0.21-3.46
	c0.29,0.03,0.85,0.09,1.141,0.12c-1.021,3.53-2.061,7.07-3.69,10.38c-0.26-0.43-0.77-1.28-1.02-1.7c-0.32-0.06-0.95-0.18-1.26-0.23
	c-0.4,2.88,0.27,6.08,2.41,8.17c0.16,0.81,0.47,2.45,0.62,3.26c-0.65,0.49-1.95,1.47-2.61,1.95c1.85,0.32,3.73,0.38,5.6,0.4
	c0,2.1,0.011,4.19,0.021,6.29l1.771,0.13l-0.15,0.84c-1.26,0.01-2.529,0.03-3.78,0.07c-0.97,0.97-2.07,1.75-3.46,1.92
	c-3,1.34-5.92,2.86-8.86,4.34c0-2.51,0-5.021,0.01-7.53c-1.28-0.05-2.56-0.11-3.84-0.16c0.38-0.39,1.12-1.18,1.49-1.58
	c-3.51,0.05-5.22-2.97-7.26-5.229c-4.2-2.63-7.2-6.65-10.74-10.03c2.29-0.03,4.52-0.52,6.65-1.33c0.01-0.44,0.02-1.31,0.02-1.75
	c-1-1.03-1.99-2.07-2.95-3.14c-5.68,0.38-10.92-2.03-16.4-3.03c-1.36-1.43-3.2-1.93-5.11-2.08c0.14-1.93,0.66-3.87,3-3.99
	c0.59-0.78,1.19-1.56,1.79-2.33c-0.49-0.42-1.45-1.27-1.94-1.69c0.45,0.35,1.34,1.06,1.79,1.41c2.24-2.05,4.58-3.99,6.67-6.2
	c1.79-1.15,3.55-2.34,5.22-3.66c0.44-0.02,1.31-0.06,1.75-0.08C59.75,28.14,60.94,27.06,62.67,26.82z"/>
<path fill="#FFFFFF" d="M103.189,26c1.42,1.78,0.961,4.13,1.101,6.24c-1.25,0.77-2.5,1.53-3.771,2.24
	C101.04,31.56,102.32,28.83,103.189,26z"/>
<path fill="#FDFDFD" d="M106.529,26.62c0.48-0.03,1.431-0.11,1.91-0.14c-0.01,0.51-0.02,1.54-0.029,2.06
	c-0.48,0.04-1.43,0.13-1.91,0.18C106.51,28.19,106.52,27.15,106.529,26.62z"/>
<path fill="#F9F9F9" d="M153.51,40.8c-1.23-2.12-1.43-5.19,0.01-7.23C153.76,35.97,153.77,38.39,153.51,40.8z"/>
<path fill="#FCFCFC" d="M100.4,44.35c-1.051-3.34-0.36-8.04,3.33-9.3C102.7,38.17,101.689,41.32,100.4,44.35z"/>
<path fill="#FEFEFE" d="M13.22,50.14c-1.72-4.15-2.17-8.66-3.09-13.03c0.8,1.16,1.58,2.33,2.41,3.46c0.55,4.85,2.65,9.45,2.07,14.42
	c-0.27-0.04-0.8-0.11-1.07-0.14C13.44,53.29,13.75,51.64,13.22,50.14z"/>
<path fill="#FDFDFD" d="M95.68,42.62c0.49-0.08,1.461-0.23,1.94-0.31c-0.44,0.79-1.32,2.37-1.761,3.16
	c1.431-0.07,2.871-0.1,4.311-0.1c-0.37,0.74-0.76,1.47-1.18,2.19c-1.141-0.64-2.23-1.39-3.34-2.09
	C95.66,44.52,95.67,43.57,95.68,42.62z"/>
<path fill="#F9F9F9" d="M117.76,43.51c3.27-1.47,7.16-1.01,10.551-0.11C124.8,43.68,121.27,43.55,117.76,43.51z"/>
<path fill="#F9F9F9" d="M152.311,49.23c-0.391-2.28-1.201-4.99,0.43-6.97C152.811,44.59,152.62,46.92,152.311,49.23z"/>
<path fill="#929292" d="M31.04,44.1c1.6,0.17,3.21,0.31,4.8,0.62c-1.01,0.19-3.01,0.58-4.01,0.78c1.15,0.87,3.81,0.49,3.6,2.56
	c-0.58-0.29-1.73-0.87-2.31-1.16c-4.03,0.15-8.05-0.23-12.08-0.08c0.02,0.6,0.06,1.8,0.08,2.39c0.03,0.52,0.09,1.57,0.12,2.09
	c-0.98-1.44-1.72-3.04-2.03-4.77c2.93,0.08,5.88,0.03,8.8-0.25C29.54,46.33,30.55,45.6,31.04,44.1z"/>
<path fill="#A5A5A5" d="M130.311,44.46c1.119-0.72,2.66,1.14,1.68,2.1C130.83,47.32,129.471,45.43,130.311,44.46z"/>
<path fill="#FDFDFD" d="M112.48,46.26c1.16,0.04,2.319,0.08,3.479,0.13c-1.55,1.65-3.19,3.2-4.76,4.83
	c-0.761,0.51-1.53,1.01-2.31,1.5c-1.551,1.14-2.701,2.68-3.591,4.38c-0.84,0.7-1.68,1.41-2.5,2.14c-0.25,2.06-0.989,4.02-2.05,5.81
	c-0.109,2.88-0.41,5.81,0.08,8.67c0.55,0.28,1.641,0.86,2.18,1.15c-1.47-0.02-3.51,0.73-3.6-1.43c-1.09-0.46-2.17-0.9-3.27-1.33
	c-0.881-7.81,3.6-14.51,8.34-20.22c1.97-1.42,3.91-2.9,5.85-4.37C110.87,47.21,111.95,46.58,112.48,46.26z"/>
<path fill="#FEFEFE" d="M117.27,47.48c2.75-1.07,5.74-1.4,8.681-1.11c2.25,0.62,3.7,2.62,5.37,4.11c3.02,1.34,5.65,3.34,8.39,5.14
	c-0.03,1.54-0.069,3.07-0.12,4.61c0.93-0.02,1.87-0.04,2.82-0.06l0.07-3.21c0.939,1.79,1.199,4.05,2.899,5.35
	c-1.069,2.52,0.29,4.89,1.11,7.23c0.06,2.37,1.41,4.34,2.609,6.28c0.25,2.13,0.121,4.28,0.15,6.43c-1.15,2.81-3.15,5.01-5.689,6.65
	c-4.34-0.22-8.86,0.69-13.08-0.54c-2.711-0.54-5.391-1.24-8.16-1.29c-0.021-0.51-0.061-1.51-0.08-2.01
	c-1.65-3.79-5.98-4.16-8.961-6.35c-2.539-0.83-5.209-1.38-7.289-3.18c-0.99-1.44-2.48-2.4-3.86-3.42
	c-0.01-3.85,0.101-8.35,3.13-11.16c0.95-1.71,1.9-3.43,2.66-5.25C111.96,54.2,114.439,50.52,117.27,47.48 M127.29,52.96
	c-0.2,3.21-0.05,6.43-0.13,9.65c0.63,0.04,1.89,0.11,2.52,0.14c-0.9-3.42-0.22-6.94-0.42-10.42
	C128.77,52.49,127.779,52.8,127.29,52.96 M139.21,60.75l0.67,1.56c-2.95,1.48-6.021-0.94-8.71-0.15c-0.65,1.41,2.16,1.67,2.95,2.49
	c3.569,0.66,7.05-0.37,8.88-3.73C141.74,60.85,140.48,60.79,139.21,60.75z"/>
<path fill="#5D5D5D" d="M38.96,47.32C42.28,47.42,37.47,50.35,38.96,47.32z"/>
<path fill="#FAFAFA" d="M21.12,49.21c4,0.36,7.92-0.99,11.95-0.54c-0.45,1.1-1.04,2.14-2.27,2.52c-1.31,2.01-3.03,3.83-3.55,6.25
	c-0.77,0.64-1.54,1.28-2.31,1.92c-1.72-2.42-2.97-5.19-3.7-8.06C21.21,50.78,21.15,49.73,21.12,49.21z"/>
<path fill="#FFFFFF" d="M35.98,50.92c1.26-0.24,2.51-0.49,3.75-0.75c2.54,0.57,5.08,1.1,7.65,1.47c1.54,0.95,3.07,1.92,4.54,2.98
	c2.97-3.67,8.03-1.45,11.34,0.56c-3.2,1-5.81-1.26-8.59-2.36c-0.41,1.46-0.73,2.94-1.05,4.43l1.85-0.39
	c3.77,2.81,6.16,7.07,9.46,10.4c-0.61-0.43-1.84-1.28-2.45-1.7c-6.18-0.92-12.37-2.09-18.64-1.83c-4.07,2.58-8.05,5.32-11.89,8.23
	c-3.16,5.7-2.91,12.5-2.63,18.86c2.25,3.79,4.29,7.93,4.46,12.42c1.37,1.99,2.58,4.08,4.1,5.96c5.03,3.85,11.62,3.38,17.61,3.22
	c2.12-2.77,4.67-5.2,7.58-7.13c0.13,4.29,0.11,8.569,0.05,12.86c2.36,2.569,5.28,4.5,8.32,6.17c2.41,0.699,4.51,2.07,6.34,3.77
	c2.26,0.02,4.53,0.04,6.79,0.12c-1.58,1.351-3.25,2.58-5.04,3.64c-3.77,4-7.61,8.09-9.81,13.211c-0.25,0.359-0.75,1.08-1,1.439
	c-0.67,1.38-1.34,2.77-2,4.15c-0.54,5.63-0.65,11.35-2,16.859c-0.36,1.15-0.7,2.32-1.02,3.48c-2.14,2.55-3.51,5.93-6.77,7.3
	c-0.29,0.5-0.87,1.51-1.17,2.01c-1.29-0.02-2.59-0.03-3.88-0.05c0,0.68,0,2.02,0,2.7c1.81-0.03,3.61-0.06,5.42-0.08
	c0.31,0.42,0.91,1.26,1.21,1.68c3.16,1.64,6.33-0.44,9.64-0.05c0.12,0.35,0.38,1.04,0.5,1.38c-1.2-0.1-3.59-0.31-4.79-0.41
	c3.27,3.021,8.27,0.38,11.44,3.53H31.24c0.2-1.4,0.39-2.8,0.57-4.2c1.21-2.59,0.98-5.479,1.01-8.26c-1.75-2.63-3.39-5.33-5.01-8.03
	c-0.67-1.529-1.55-2.979-2.03-4.59c0.44-1.09,1.05-2.1,1.61-3.12c-2.22-1.159-1.84-3.62-2.04-5.72c-0.73-0.91-1.97-1.66-1.86-2.99
	c-0.16-4.359-0.61-8.699-1.85-12.89c-0.84-4.021-3.52-7.3-4.66-11.21c-0.61-2.01-1.25-4.021-2.37-5.811
	c-0.17-2.47-0.21-4.939-0.32-7.42c1.14-8.05,1.06-16.18,0.77-24.29c-0.19,0.12-0.55,0.38-0.73,0.5c0-0.2,0-0.61,0-0.82
	c-0.17-1.23-0.39-2.45-0.52-3.68c0.66,1.51,1.33,3.03,2.05,4.521c0.53-5.46,5.13-9.64,3.95-15.36c0.57-0.72,1.14-1.43,1.72-2.15
	c-0.03-0.57-0.09-1.71-0.13-2.28c2.11-2.44,4.94-4.78,4.59-8.38c1.68-2.29,3.51-4.5,5.91-6.07C33.3,54.83,34.64,52.88,35.98,50.92
	 M27.16,163.04c0.39,1.96,2.38,3.229,2.78,5.26c0.34,0.32,1.01,0.96,1.35,1.28c0.92,2.71,3.91,3.439,5.67,5.439
	c1.93,0.69,3.87,1.4,5.85,1.95c1.26,0.29,2.41,0.8,3.13,1.94c-0.27-1.03-0.52-2.07-0.76-3.1c-1.74-0.521-3.48-1.061-5.22-1.561
	c-1.03-0.72-2.07-1.41-3.14-2.061c-1.1-0.649-2.23-1.229-3.25-1.989c-0.79-2.74-2.68-4.92-3.68-7.56
	C29.21,162.74,27.84,162.939,27.16,163.04z"/>
<path fill="#F9F9F9" d="M97.7,53.98c1.409-1.17,2.71-2.49,4.05-3.75c-1.359,1.9-2.75,3.81-4.359,5.51
	C97.471,55.3,97.62,54.42,97.7,53.98z"/>
<path fill="#010101" d="M145.48,49.54c0.72-0.07,2.16-0.23,2.879-0.3c0.15,0.66,0.461,1.979,0.621,2.64c1.58,2.09,3,4.45,2.149,7.17
	c-0.53-0.81-1.569-2.44-2.101-3.25C147.08,54.23,146.359,51.78,145.48,49.54z"/>
<path fill="#FDFDFD" d="M17.16,50.08c3.98,5.29,1.44,11.9,2.15,17.94c-2.52,1.1-2.66,4.18-4.72,5.71c-0.2-4.51-0.07-9.02-0.11-13.53
	c0.65,0.01,1.95,0.01,2.6,0.01C17.09,56.84,17.02,53.46,17.16,50.08z"/>
<path fill="#444444" d="M32.29,53.35C32.77,53.9,32.77,53.9,32.29,53.35z"/>
<path fill="#010101" d="M127.29,52.96c0.489-0.16,1.479-0.47,1.97-0.63c0.2,3.48-0.48,7,0.42,10.42c-0.63-0.03-1.89-0.1-2.52-0.14
	C127.24,59.39,127.09,56.17,127.29,52.96z"/>
<path fill="#F9F9F9" d="M89.71,59.94c1.14-1.83,2.41-3.58,3.819-5.21c0.171,2.82,0.171,5.64,0.051,8.46
	C92.22,62.19,90.95,61.08,89.71,59.94z"/>
<path fill="#FEFEFE" d="M20.58,64.35c0.01-1.87,0.04-3.74,0.17-5.61C22.59,60.37,23.34,63.3,20.58,64.35z"/>
<path d="M139.21,60.75c1.271,0.04,2.53,0.1,3.79,0.17c-1.83,3.36-5.311,4.39-8.88,3.73c-0.79-0.82-3.601-1.08-2.95-2.49
	c2.689-0.79,5.76,1.63,8.71,0.15L139.21,60.75z"/>
<path fill="#FEFEFE" d="M46.32,66.35c1.08,1.12,2.98,1.55,3.9,0c1.79,0.67,3.59,1.32,5.37,2.01c4.35,0.68,8.48,2.17,12.69,3.4
	c1.36,2.46,2.33,5.1,3.53,7.63c0.67-0.02,2.02-0.06,2.69-0.08c-0.02,0.75-0.07,2.24-0.09,2.98c0.31,0.41,0.94,1.22,1.25,1.63
	c-0.61-0.04-1.82-0.12-2.43-0.17c-2.44,2.5-5.32,4.48-8.09,6.58c-0.18,2.02-0.85,4.02-2.32,5.48c-1.87,1.84-2.2,4.549-3.4,6.779
	c-1.41,1.7-3.1,3.13-4.58,4.77c-3.27-0.02-6.54,0.041-9.8-0.119c-1.2-0.73-2.49-1.28-3.78-1.83c-1.58-2.02-3.13-4.061-4.58-6.18
	c0.12-2.91-0.27-5.811-0.44-8.721c0.4-0.15,1.2-0.45,1.61-0.6c1.48-0.37,3.02-0.47,4.54-0.63c1.69-1.521,3.38-3.05,5.13-4.51
	c-0.32-2.44-1.23-4.72-2.39-6.88c-3.31,0.17-6.66-0.72-9.92-0.43c-1.47,1.64-0.26,3.94,0.52,5.62c-0.16-1.32-0.48-3.96-0.64-5.28
	c2.73,1.93,6,2.59,9.28,2.61c1.41,3.22-1.05,5.13-3.36,6.82c-2.31,0.1-4.61,0.34-6.89,0.68c-0.99-4.35-0.68-8.81,0.91-12.98
	l0.46,2.05c2.9-4.08,7.12-6.57,11.34-9.04C46.7,67.54,46.45,66.75,46.32,66.35z"/>
<path fill="#FFFFFF" d="M153.66,72.89c2.34,2.3,3.72,5.34,5.939,7.73c0.15-1.55,0.26-3.11,0.351-4.66
	c2.59,3.02,2.97,7.18,3.63,10.96c1.74,2.31,3.01,5.03,2.98,7.98c0.069,5.76,1.609,11.38,1.85,17.14
	c0.24,3.71,0.77,7.62,3.189,10.601c0.041,3.779,0.08,7.549,0.07,11.319c0.16,4.56-2.109,8.66-3.17,12.97
	c-0.23,2.4-0.141,4.811-0.25,7.211c-0.82,2.26-0.79,4.689-0.93,7.06c-2.131,4.84-3.11,10.11-5.23,14.96
	c-0.59,1.24-0.63,2.65-0.85,3.99c-0.74,1.1-1.471,2.199-2.2,3.31c0.63,0.181,1.89,0.54,2.521,0.72c0.02,1.601,0.049,3.211,0.09,4.82
	H82.23c3.01-0.55,6.08-0.47,9.13-0.57c0.22-0.47,0.65-1.41,0.87-1.88c8.87-2.13,17.459-5.37,25.54-9.6
	c3.311-1.88,7.17-2.05,10.78-3.03c1.33-0.98,2.7-1.9,4.12-2.75c0.04-0.29,0.12-0.859,0.16-1.14c7.49-1.95,15.33-0.761,22.97-1.011
	c1.9-2.55,4.39-4.81,5.31-7.949c0.99-6.32,0.24-12.75-1.56-18.86c-6.67-5.51-14.42-10.56-23.19-11.7
	c-0.33-0.34-0.979-1.029-1.31-1.369c-1.56-0.19-3.11-0.391-4.64-0.671c-5.631-0.8-10.54-4.569-16.4-3.93
	c1.85-1.601,3.79-3.09,5.6-4.75c3.9-2.96,4.49-8.22,4.48-12.771c-0.15-5.3,0.42-10.66-0.689-15.879
	c7.51,1.19,15.149,0.61,22.709,0.43c3.121-2.58,5.431-5.87,7.451-9.34C153.62,79.12,153.62,76,153.66,72.89z"/>
<path fill="#272727" d="M32.83,76.03c0.32-1.54,1.74-2.16,3.14-2.4l-0.94,1.3c-1.59,4.17-1.9,8.63-0.91,12.98
	c2.28-0.34,4.58-0.58,6.89-0.68c2.31-1.69,4.77-3.6,3.36-6.82c-3.28-0.02-6.55-0.68-9.28-2.61c0.16,1.32,0.48,3.96,0.64,5.28
	c-0.78-1.68-1.99-3.98-0.52-5.62c3.26-0.29,6.61,0.6,9.92,0.43c1.16,2.16,2.07,4.44,2.39,6.88c-1.75,1.46-3.44,2.99-5.13,4.51
	c-1.52,0.16-3.06,0.26-4.54,0.63c-0.66,0.15-1.97,0.44-2.63,0.59c-0.45-0.2-1.36-0.59-1.81-0.79c-0.53-0.25-1.59-0.76-2.12-1.02
	C31.28,84.44,31.04,80,32.83,76.03z"/>
<path fill="#787878" d="M71.96,75.22C75.28,75.31,70.5,78.27,71.96,75.22z"/>
<path fill="#868686" d="M77.34,77.23c1.36,0.05,1.38,3.61,0.06,3.72C76.73,79.72,76.71,78.48,77.34,77.23z"/>
<path fill="#FFFFFF" d="M93.2,78.92c3.229-0.74,6.579-0.35,9.86-0.4c2.14-0.3,3.739,1.3,5.52,2.17l-0.35,1.49
	c0.879-0.44,1.76-0.88,2.64-1.32c2.069,1.74,4.56,2.83,6.97,4.01c1.02,1.75,0.34,4.67,2.6,5.47c0.031,0.54,0.101,1.62,0.141,2.16
	l-1.311-0.46c1.561,1.5,1.25,3.83,2.08,5.7c0.11,4.13,0.121,8.26-0.01,12.39c-1.25,2.41-1.029,5.89-3.89,7.11
	c-3.229,1.939-5.729,5.26-9.63,5.9c-0.301,0.319-0.9,0.949-1.2,1.27c-3.29,1.77-7.11,0.89-10.67,1.08
	c-5.58-0.21-11.2,0.439-16.74-0.35c-2.04-1.771-4.49-2.94-6.66-4.521c-1.53-0.79-3.08-1.56-4.61-2.36
	c-0.67-0.939-1.36-1.869-2.07-2.77c-0.08-3.24-0.09-6.49-0.02-9.721c1.81-4.189,1.47-8.84,2.84-13.129
	c1.38-1.93,3.63-2.98,5.47-4.42c2.21-0.09,4.13-1.189,6.07-2.13c0.39-0.3,1.17-0.89,1.56-1.18C85.23,82.23,89.5,81.12,93.2,78.92
	 M99.71,92.38c0,0.89,0,1.78,0,2.67c2.55-0.01,5.101-0.02,7.64,0.24c-1.39,0.63-2.779,1.25-4.18,1.83c0,4.149-0.04,8.3,0.03,12.45
	c1.04,0.949,2.069,1.93,3.1,2.899c2.13-0.02,4.25-0.02,6.38-0.01c0.041-0.521,0.131-1.56,0.17-2.08c0.4-0.271,1.18-0.81,1.58-1.069
	c0.12-4.101,0.141-8.211-0.18-12.291c-1.79-1.619-3.779-2.989-5.55-4.609C105.7,92.43,102.71,92.43,99.71,92.38 M77.36,96.33
	c-1.35,3.5-2.98,6.96-3.6,10.689c0.89,2.521,0.79,5.19,0.68,7.83c0.99,0.62,2,1.221,3.01,1.83c2.16,0.43,4.31,0.92,6.49,1.221
	c1.71-2.86,0.73-6.351,0.99-9.5c-2.42-1.15-4.8-2.391-7.29-3.37c0.56-1.54,1.22-3.03,1.9-4.521c0.06-1.46,0.24-2.92,1.92-3.279
	c-0.03-0.61-0.1-1.811-0.13-2.411C80.01,95.17,77.87,94.59,77.36,96.33z"/>
<path fill="#484848" d="M166.08,78.5c1.37,0.2,1.6,0.89,0.689,2.07C165.391,80.36,165.16,79.67,166.08,78.5z"/>
<path fill="#FBFBFB" d="M166.189,82.91c2.681-0.09,3.15,2.86,3.851,4.75c1.72,4.7,1.979,9.79,1.37,14.73
	c-1.35-3.721-1.801-7.69-2.36-11.581c-0.78-1.87-0.739-3.89-0.71-5.87C167.8,84.43,166.73,83.42,166.189,82.91z"/>
<path fill="#909090" d="M33.41,89.71c0.45,0.2,1.36,0.59,1.81,0.79c0.66-0.15,1.97-0.44,2.63-0.59c-0.41,0.15-1.21,0.45-1.61,0.6
	c0.17,2.91,0.56,5.811,0.44,8.721l-0.23,1.09c-0.16-2.33-0.14-4.66-0.21-6.99c-0.76,0.01-2.27,0.01-3.02,0.01
	C33.27,92.13,33.34,90.92,33.41,89.71z"/>
<path fill="#171717" d="M14.33,90.97c0.18-0.12,0.54-0.38,0.73-0.5c0.29,8.11,0.37,16.24-0.77,24.29c-0.95-1.41-2.15-2.84-1.96-4.67
	c-0.12-5.75-0.04-11.51,0.17-17.26C12.96,92.36,13.87,91.44,14.33,90.97z"/>
<path d="M99.71,92.38c3,0.05,5.99,0.05,8.99,0.03c1.771,1.62,3.76,2.99,5.55,4.609c0.32,4.08,0.3,8.19,0.18,12.291
	c-0.4,0.26-1.18,0.799-1.58,1.069c-0.039,0.521-0.129,1.56-0.17,2.08c-2.13-0.01-4.25-0.01-6.38,0.01
	c-1.03-0.97-2.06-1.95-3.1-2.899c-0.07-4.15-0.03-8.301-0.03-12.45c1.4-0.58,2.79-1.2,4.18-1.83c-2.539-0.26-5.09-0.25-7.64-0.24
	C99.71,94.16,99.71,93.27,99.71,92.38 M105.891,99.92c-0.25,2.53-0.111,5.08-0.021,7.62c1.069,0.64,1.819,1.56,2.26,2.75
	c1.7-0.649,2.64-2.28,3.771-3.59c-0.03-2.271-0.021-4.55,0-6.82c-0.67-0.72-1.33-1.44-2-2.16
	C108.59,98.46,106.6,98.42,105.891,99.92z"/>
<path d="M77.36,96.33c0.51-1.74,2.65-1.16,3.97-1.51c0.03,0.6,0.1,1.8,0.13,2.411c-1.68,0.359-1.86,1.819-1.92,3.279
	c-0.68,1.49-1.34,2.98-1.9,4.521c2.49,0.979,4.87,2.22,7.29,3.37c-0.26,3.149,0.72,6.64-0.99,9.5c-2.18-0.301-4.33-0.791-6.49-1.221
	c-1.01-0.609-2.02-1.21-3.01-1.83c0.11-2.64,0.21-5.31-0.68-7.83C74.38,103.29,76.01,99.83,77.36,96.33 M76.97,107.92
	c0.03,1.42,0.05,2.84,0.06,4.26c1.38,1.461,3.16,2.2,5.18,2.16c0.08-0.98,0.15-1.96,0.23-2.939
	C80.55,110.35,78.72,109.2,76.97,107.92z"/>
<path fill="#A7A7A7" d="M105.891,99.92c0.709-1.5,2.699-1.46,4.01-2.2c0.67,0.72,1.33,1.44,2,2.16c-0.021,2.271-0.03,4.55,0,6.82
	c-1.131,1.31-2.07,2.94-3.771,3.59c-0.44-1.19-1.19-2.11-2.26-2.75C105.779,105,105.641,102.45,105.891,99.92z"/>
<path fill="#8A8A8A" d="M63.25,101.27C63.85,101.811,63.85,101.811,63.25,101.27z"/>
<path fill="#2B2B2B" d="M39.33,106.25C39.84,106.74,39.84,106.74,39.33,106.25z"/>
<path fill="#A5A5A5" d="M76.97,107.92c1.75,1.28,3.58,2.43,5.47,3.48c-0.08,0.979-0.15,1.959-0.23,2.939
	c-2.02,0.04-3.8-0.699-5.18-2.16C77.02,110.76,77,109.34,76.97,107.92z"/>
<path fill="#787878" d="M45.88,108.9c2.84-0.03,5.69-0.07,8.49,0.41c-2.73,1.1-5.72,0.64-8.58,0.699L45.88,108.9z"/>
<path fill="#979797" d="M171.109,111.41C174.38,111.68,169.52,114.43,171.109,111.41z"/>
<path fill="#FEFEFE" d="M115.85,129.04c-0.279-5.399,0.871,2.49,3.5,2.069c0.36-1.17,0.131-2.369,0.07-3.56
	c1.03,0.54,1.84,1.28,2.43,2.2c-0.41,0.28-1.24,0.859-1.66,1.141c1.281,0.629,2.531,1.31,3.75,2.049c3.181,0.24,5.84,2.5,9.131,2.03
	c0.35,0.351,1.039,1.04,1.39,1.38c3.181,0.561,6.31,1.76,9.59,1.34c-1.739-1.58-4.54-1.209-5.989-3.119
	c3.93-0.7,7.26,2.109,10.43,3.99c1.859,1.789,4.58,3.92,4.279,6.72c0.75-0.351,1.49-0.681,2.25-1l-0.699-1.95
	c1.119,1.061,2.229,2.15,3.039,3.47l-1.139-1.31c-0.691,0.47-1.381,0.939-2.061,1.42c1.05,0.92,2.119,1.83,3.21,2.71
	c0.489,1,0.979,2.01,1.489,3.01c-0.039,2.07-0.049,4.15-0.069,6.229c-0.86,1.49-1.64,3.031-2.34,4.61
	c-2.05,4.14-7.64,3.8-11.58,3.73c-3.31,0.35-1.79-3.7-2.14-5.61c0.39-0.04,1.16-0.12,1.539-0.17c0.01-1.6,0.03-3.2,0.07-4.79
	c1.79,0.03,3.6,0.04,5.4,0.09c1.9,2.38,4.609,4.021,7.57,4.71c-0.771-3.21-4.601-3.74-6.681-5.899c-2.83,0.02-5.659,0.05-8.479,0.03
	c-0.59,1.439-0.811,2.97-0.9,4.52c-1.46-0.86-2.939-1.76-4.7-1.67c0.229-3.6-3.979-4.88-6.479-6.45c-3.08-4.38-8.4-1.04-12.311-0.01
	c-1.75,1.11-2.66,2.989-3.68,4.7c-1.439,0.01-2.87,0.02-4.301,0.06c-0.27-0.3-0.799-0.89-1.059-1.19
	c-1.98,0.041-3.961,0.051-5.941,0.11c-1.739,1.28-3.819,2.2-5.09,4.011c-1.869,2.77-2.959,6.049-5.339,8.469
	c0.39,0.041,1.169,0.101,1.56,0.131c0.68-0.301,1.359-0.6,2.04-0.891c0.78-1.399,1.579-2.81,1.829-4.42
	c0.711-0.97,1.431-1.93,2.141-2.89c1.45-1,2.84-2.08,4.141-3.26c0.81-0.04,2.43-0.12,3.25-0.16c0.369,0.41,1.119,1.229,1.5,1.64
	c2.069-0.14,4.219,0.17,6.239-0.369c1.13-0.891,1.56-2.371,2.32-3.551c3.149-1.24,6.159-2.85,9.47-3.63
	c1.76,3.55,6.46,4.12,8.391,7.57c-1.471,0.489-2.961,0.909-4.49,1.17c-1.17,2.61-2.69,5.05-4.141,7.51
	c-1.14-1-2.189-2.101-3.43-2.97c-3.98-0.771-7.74,0.85-11.449,2.04c-0.191,0.979-0.381,1.96-0.561,2.95
	c-0.641,1.83-1.471,3.569-2.189,5.359c-2.361,0.65-4.08-0.38-5.091-2.54c-4.53-0.44-9.17,0.5-12.92,3.17
	c-0.62,1.46-1.27,3.011-3.12,3.061c-0.51,1.689-0.97,3.39-1.76,4.979c-1.43-0.449-2.81-1.02-4.2-1.57
	c-0.85-0.939-1.71-1.869-2.59-2.789c-1.43,0.039-2.87,0.08-4.3,0.14c-1.38,0.72-2.79,1.38-4.2,2.03
	c-0.86,0.619-1.72,1.229-2.59,1.85c-1.27-0.4-2.54-0.811-3.8-1.25c-0.7-0.09-2.09-0.26-2.78-0.35c1.66-1.351,3.57-2.61,3.54-5.021
	c3.19-2.28,1.93-7.13,4.96-9.42c0.77-3.239,1.86-6.45,1.69-9.83c1.68-1.87,1.91-4.34,1.03-6.64c-2.72,1.029-1.78,5.07-2.96,7.32
	c-1.64-2.73,0.59-5.28,1.51-7.811c0.29-0.99,1.27-1.41,2.2-1.55c0.46-1.97,1.13-3.89,2.01-5.71c1.16-1.18,2.15-2.51,2.96-3.95
	c1.24,1.84,3,3.19,4.64,4.66c-1.57-0.41-3.09-0.97-4.61-1.53c-0.11,0.38-0.33,1.15-0.44,1.53c1.78,0.56,3.55,1.18,5.31,1.83
	c-1.63,1.39-3.6,2.27-5.33,3.5c-1.18,0.27-2.36,0.55-3.46,1.08c2.19,0.1,5.58,1.21,6.39-1.73c1.08-0.1,2.16-0.2,3.24-0.29
	c0.01-0.83,0.03-2.51,0.03-3.34c3.32,1.71,8.699,3.16,11.199-0.51c-0.069-1.76-0.119-3.52-0.159-5.28
	c1.659,0.261,3.92-0.239,4.69,1.729c1.449,0.031,2.899,0.051,4.34,0.07c0.029-2.06,0.039-4.13,0.06-6.199
	c2.851,0.699,5.729,1.319,8.53,2.22c1.71-0.82,3.949-2.66,1.93-4.5c-0.46,3.52-5.38,3.27-7.16,0.96c-1.09-0.061-2.18-0.12-3.27-0.17
	c-0.051-1.061-0.1-2.131-0.16-3.18c1.141-0.271,2.27-0.551,3.4-0.82C110.35,128.4,113.12,128.65,115.85,129.04z"/>
<path fill="#FCFCFC" d="M87.9,129.061c4.77-1.141,9.661-0.98,14.53-0.961c-0.01,3.16-0.01,6.33,0.01,9.5
	c-2.34-1.27-6.049-0.529-7.469-3.09c-0.49-0.029-1.451-0.08-1.931-0.109C92.17,131.9,90.26,130.15,87.9,129.061z"/>
<path fill="#FEFEFE" d="M122.37,131.061c0.56-0.451,1.13-0.891,1.71-1.32c2.52,1.33,5.35,1.97,8.199,1.96
	c1.641,0.819,3.32,1.55,4.961,2.37c-2.5,0.82-5.01-0.45-7.48-0.851C127.65,131.57,124.91,131.46,122.37,131.061z"/>
<path fill="#FBFBFB" d="M81.46,134.47c1.99-0.8,3.87-1.86,5.46-3.34c0.79,0.16,2.37,0.479,3.16,0.64c0.27,1.471,0.5,2.95,0.7,4.431
	c0.7,0.13,2.09,0.37,2.791,0.489c-0.23,2.33,0.64,5.91-2.4,6.701c-2.36,0.02-4.54-1.19-6.92-1.23c0.01-0.58,0.03-1.74,0.04-2.311
	c-1.25-0.479-2.5-0.959-3.75-1.43C80.84,137.1,81.14,135.79,81.46,134.47z"/>
<path fill="#FEFEFE" d="M172.87,142.01l0.909,0.021c-0.049,3.13-0.1,6.25-0.09,9.38c-0.91,0.83-1.779,1.689-2.64,2.57
	C170.38,149.79,172.54,146.08,172.87,142.01z"/>
<path fill="#464646" d="M171.189,155.141c1.621-0.531,2.16,0.02,1.641,1.67C171.21,157.34,170.67,156.78,171.189,155.141z"/>
<path fill="#909090" d="M68.27,158.41c2-0.85,2.24,3.35,0.58,3.8C67.28,161.82,67.29,159.391,68.27,158.41z"/>
<path fill="#FBFBFB" d="M132.58,159.29c2-0.26,4.01-0.55,6.02-0.74c0.041,0.49,0.101,1.47,0.141,1.96c0.48,0,1.46,0,1.949,0
	c-0.02,1.891-0.039,3.79-0.08,5.69c-2.399,0.11-4.799,0.04-7.199,0.229c-2.74,1.061-4.77,3.33-7.09,5.07
	c-0.62,0.07-1.87,0.22-2.49,0.29c-2.109,1.01-4.6,0.29-6.641,1.46c-1.969,0.07-3.949,0.07-5.92,0.061
	c0.11-1.541,0.51-2.971,2.311-3.141c-0.03-0.63-0.1-1.87-0.13-2.49c1.13-1.1,2.17-2.34,3.56-3.119c1.971-0.201,3.95-0.051,5.92,0.06
	c0.61,1.55,1.45,2.979,2.92,3.87c0.561-0.33,1.69-0.971,2.25-1.29c0.94-2.351,2.371-4.45,4.17-6.22
	C132.35,160.561,132.5,159.71,132.58,159.29z"/>
<path fill="#010101" d="M27.16,163.04c0.68-0.101,2.05-0.3,2.73-0.399c1,2.64,2.89,4.819,3.68,7.56c1.02,0.76,2.15,1.34,3.25,1.989
	c1.07,0.65,2.11,1.341,3.14,2.061c1.74,0.5,3.48,1.04,5.22,1.561c0.24,1.029,0.49,2.069,0.76,3.1c-0.72-1.141-1.87-1.65-3.13-1.94
	c-1.98-0.55-3.92-1.26-5.85-1.95c-1.76-2-4.75-2.729-5.67-5.439c-0.34-0.32-1.01-0.96-1.35-1.28
	C29.54,166.27,27.55,165,27.16,163.04z"/>
<path fill="#F9F9F9" d="M93.84,173.939c3.37-1.039,7.939-3.229,10.54,0.381c-2.84,0.619-4.569,2.979-6.739,4.67
	c-1.291,1.6-3.041,2.68-4.67,3.88c-1.991,0.569-4.011,0.97-6.071,1.17c0.49-0.729,1.47-2.19,1.97-2.931
	C89.85,178.33,91.93,176.12,93.84,173.939z"/>
<path fill="#F9F9F9" d="M26.9,172.91c0.76,1.27,1.52,2.55,2.35,3.79c0.07,0.649,0.23,1.97,0.31,2.63
	C28.06,177.49,27.58,175.12,26.9,172.91z"/>
<path fill="#FEFEFE" d="M109.74,176.47c1.85-0.489,3.77-0.51,5.68-0.409C114.18,178.12,111.221,178.52,109.74,176.47z"/>
<path fill="#FEFEFE" d="M99.061,182.59c1.819-3.109,5.09-4.609,8.189-6.09c0.95,0.83,1.891,1.68,2.811,2.55
	C106.471,180.43,102.9,182.109,99.061,182.59z"/>
<path fill="#F9F9F9" d="M70.14,182.061c1.99-0.86,3.82-2.07,5.85-2.82c2.69-0.29,4.55,2.18,6.94,3c2.52,1.869-1.79,2.77-2.88,4.07
	c-1.99-0.03-3.85-0.771-5.68-1.49c-1.05-0.351-2.09-0.721-3.13-1.09C70.97,183.311,70.42,182.48,70.14,182.061z"/>
<path fill="#F9F9F9" d="M61.51,183.07C64.4,181.46,61.76,186.41,61.51,183.07z"/>
<path fill="#8F8F8F" d="M86.22,186.4c0.86-0.67,3.35-0.82,3.46,0.56C88.81,187.641,86.29,187.83,86.22,186.4z"/>
</svg>
