<?xml version="1.0" encoding="UTF-8" ?>
<!DOCTYPE svg PUBLIC "-//W3C//DTD SVG 1.1//EN" "http://www.w3.org/Graphics/SVG/1.1/DTD/svg11.dtd">
<svg width="640pt" height="493pt" viewBox="0 0 640 493" version="1.1" xmlns="http://www.w3.org/2000/svg">
<g id="#ffffffff">
<path fill="#ffffff" opacity="1.00" d=" M 0.00 0.00 L 640.00 0.00 L 640.00 493.00 L 0.00 493.00 L 0.00 0.00 M 300.10 1.94 C 295.23 3.44 290.04 2.77 285.08 3.76 C 278.72 5.12 272.35 6.48 266.02 7.96 C 253.71 10.00 242.08 15.10 231.52 21.62 C 228.06 23.74 224.24 25.35 221.32 28.23 C 216.76 32.68 211.77 36.70 207.57 41.52 C 202.80 47.99 196.82 53.42 191.38 59.31 C 187.62 62.99 185.27 67.77 182.43 72.14 C 178.83 80.43 176.91 89.33 173.79 97.79 C 171.43 104.58 170.34 111.70 168.95 118.73 C 167.07 131.02 164.90 143.47 166.19 155.95 C 166.45 163.63 166.43 171.35 168.08 178.90 C 168.43 190.05 171.25 200.91 173.09 211.87 C 174.50 222.07 176.57 232.26 179.99 242.00 C 182.74 248.39 181.63 255.64 184.08 262.12 C 186.20 267.49 187.49 273.27 190.79 278.11 C 192.95 281.92 196.92 284.12 199.53 287.56 C 202.40 291.41 206.17 295.44 205.31 300.67 C 201.88 301.25 198.34 302.13 195.60 304.40 C 191.19 307.99 188.77 313.32 186.49 318.39 C 183.22 326.71 178.13 334.29 175.93 343.03 C 174.24 349.59 172.36 356.18 172.08 362.99 C 171.35 366.37 171.17 371.64 166.91 372.43 C 161.86 373.31 157.08 375.29 152.01 376.07 C 146.54 376.85 141.45 379.19 135.99 380.02 C 125.41 382.42 115.03 385.79 105.09 390.11 C 101.48 391.54 97.55 391.52 93.84 392.53 C 85.41 394.62 77.17 397.37 68.95 400.11 C 63.04 402.57 57.09 404.96 50.99 406.92 C 35.84 410.22 19.76 411.14 6.01 418.99 C 4.76 419.51 4.09 420.59 4.02 421.93 C 6.98 421.86 9.43 420.09 12.11 419.08 C 22.05 415.43 32.67 414.61 42.92 412.21 C 52.06 410.92 60.21 406.29 68.94 403.54 C 78.51 400.56 88.00 396.92 98.03 395.83 C 103.67 394.92 108.70 392.01 114.11 390.34 C 118.00 389.02 122.18 388.72 125.95 387.04 C 130.50 385.06 135.48 384.49 140.19 383.04 C 149.06 380.15 158.36 378.86 167.28 376.20 C 173.83 373.81 175.96 366.34 176.54 360.07 C 176.94 347.45 181.25 335.20 187.60 324.37 C 190.72 319.04 191.43 312.33 196.00 307.88 C 198.52 305.28 204.00 304.27 206.00 307.98 C 207.42 311.45 207.26 315.79 204.92 318.86 C 200.30 325.49 199.31 334.12 201.05 341.89 C 202.33 346.22 207.16 347.41 210.92 348.71 C 216.07 350.73 221.70 351.10 226.78 353.29 C 230.31 354.80 231.56 358.74 233.13 361.91 C 236.68 370.45 239.70 379.33 244.97 387.03 C 247.51 390.79 250.78 394.06 252.92 398.10 C 257.45 407.57 263.06 416.48 268.47 425.47 C 277.76 443.47 286.60 461.72 294.78 480.26 C 296.12 482.89 296.03 487.05 299.55 487.78 C 299.76 484.05 297.79 480.77 296.49 477.42 C 292.86 469.46 289.75 461.27 285.69 453.51 C 280.82 443.41 275.27 433.66 270.31 423.62 C 266.30 416.37 261.53 409.56 257.92 402.09 C 255.97 397.94 253.72 393.86 250.52 390.53 C 245.53 385.24 243.15 378.23 240.23 371.72 C 238.95 368.92 238.71 365.83 238.41 362.81 C 239.91 364.45 241.43 366.10 242.52 368.04 C 246.06 374.73 250.93 380.57 254.65 387.15 C 260.35 397.17 265.74 407.37 271.64 417.29 C 277.10 427.56 282.21 438.01 287.86 448.18 C 295.09 460.62 301.51 473.53 309.36 485.61 C 310.11 486.83 311.20 487.53 312.63 487.71 C 309.38 478.88 302.81 471.73 298.70 463.29 C 293.56 452.75 287.44 442.73 282.50 432.09 C 274.42 418.64 267.55 404.50 259.96 390.76 C 255.97 383.73 250.76 377.50 246.51 370.64 C 243.38 364.67 240.55 358.23 235.32 353.75 C 232.19 350.98 227.97 350.24 224.18 348.83 C 220.73 347.52 217.10 346.81 213.47 346.19 C 211.28 339.52 214.92 332.66 213.65 325.90 C 212.80 321.61 212.41 317.23 212.80 312.87 C 213.42 310.32 214.83 307.15 217.82 306.92 C 224.21 306.67 230.64 306.44 237.02 306.77 C 241.32 308.10 243.55 312.43 247.05 314.97 C 247.64 314.79 248.83 314.44 249.43 314.26 C 248.58 309.77 248.42 305.15 247.25 300.72 C 246.72 299.21 245.84 297.18 243.99 297.08 C 240.73 298.50 237.78 300.91 234.03 300.95 C 227.15 301.20 219.73 302.01 213.49 298.45 C 208.75 296.44 206.22 291.74 203.16 287.90 C 199.76 283.02 194.28 279.66 192.25 273.85 C 190.54 268.96 188.34 264.19 187.32 259.10 C 186.59 246.06 188.14 233.04 187.83 220.00 C 187.86 213.93 191.73 208.84 195.80 204.72 C 199.01 201.49 203.93 202.67 208.00 202.48 C 211.96 202.22 215.45 204.33 218.46 206.65 C 223.54 210.55 229.03 213.92 233.76 218.27 C 236.80 220.59 239.67 223.24 241.56 226.62 C 244.45 231.11 245.15 236.61 248.06 241.08 C 250.30 237.80 247.79 233.72 247.59 230.08 C 252.20 231.44 254.96 235.60 259.11 237.68 C 264.48 237.93 269.74 236.29 274.91 235.00 C 278.82 233.78 283.42 232.21 285.23 228.17 C 287.02 221.96 285.66 215.41 286.52 209.10 C 288.26 203.40 292.49 198.52 297.60 195.53 C 302.69 193.46 308.14 192.39 313.51 191.28 C 314.97 190.98 316.26 189.58 315.86 188.02 C 315.07 183.93 312.59 180.23 312.75 175.95 C 312.45 168.85 315.95 162.46 319.74 156.73 C 325.93 145.04 337.75 137.58 343.84 125.82 C 345.31 122.74 348.17 120.80 350.72 118.69 C 350.42 122.64 349.66 127.06 351.77 130.64 C 353.55 131.58 355.12 130.13 355.71 128.53 C 357.60 124.59 359.40 120.56 362.18 117.14 C 366.88 110.86 372.13 103.79 380.31 102.16 C 379.25 109.14 374.98 114.93 372.85 121.55 C 372.14 123.74 370.97 125.99 371.55 128.36 C 372.66 129.18 373.84 128.65 374.50 127.57 C 378.58 121.72 382.45 115.42 388.42 111.29 C 388.66 114.45 386.84 119.69 391.17 120.73 C 394.51 113.43 396.32 104.84 402.84 99.52 C 405.88 105.01 407.85 111.01 409.36 117.08 C 410.41 121.46 410.55 126.45 413.91 129.85 C 415.16 128.90 416.67 127.92 416.59 126.14 C 417.64 116.73 416.97 107.24 417.06 97.80 C 420.23 102.14 424.00 106.38 425.00 111.85 C 426.12 117.92 427.89 123.88 428.28 130.06 C 428.57 135.51 429.87 140.84 430.84 146.19 C 431.26 148.70 434.40 148.13 434.85 145.97 C 437.27 138.22 438.18 130.07 438.12 121.97 C 438.03 118.25 439.15 114.65 439.38 110.95 C 439.68 107.36 439.20 103.54 440.95 100.23 C 444.78 106.00 448.47 112.01 450.59 118.65 C 451.30 120.59 451.95 122.85 454.06 123.72 C 457.56 121.47 454.84 116.35 455.56 112.92 C 459.59 116.82 460.97 122.40 464.14 126.89 C 466.99 130.94 467.71 135.92 469.51 140.43 C 469.79 141.84 471.42 141.41 472.44 141.60 C 473.02 137.58 472.71 133.50 472.92 129.46 C 475.12 131.01 477.75 132.56 478.47 135.37 C 480.96 144.04 480.90 153.16 480.64 162.10 C 480.20 170.18 479.69 178.90 474.68 185.65 C 472.47 189.63 467.76 190.99 463.56 191.63 C 462.20 190.90 460.83 189.93 459.21 190.21 C 458.70 191.55 459.29 192.83 460.54 193.46 C 465.33 196.38 471.22 198.41 474.28 203.42 C 475.35 209.09 474.39 215.86 469.82 219.87 C 466.57 222.77 462.05 223.29 457.97 224.17 C 454.36 224.94 450.65 223.62 447.07 224.44 C 444.63 225.50 444.44 228.58 443.80 230.81 C 442.44 235.79 442.09 241.06 443.32 246.10 C 445.21 254.49 447.12 262.94 450.34 270.93 C 453.22 278.01 458.33 283.90 461.41 290.88 C 463.25 294.66 462.67 298.99 462.80 303.06 C 462.74 306.45 463.40 310.31 460.84 313.03 C 457.43 318.26 450.90 319.93 447.26 324.91 C 445.29 327.61 442.03 328.47 439.04 329.49 C 439.56 327.52 439.74 325.45 438.49 323.70 C 440.42 322.62 443.44 320.78 442.46 318.15 C 440.48 315.64 437.12 314.56 434.03 314.52 C 429.22 314.69 425.33 318.17 422.81 322.01 C 418.40 321.25 413.98 316.79 415.84 312.11 C 416.86 308.61 421.49 308.20 422.72 304.94 C 422.62 300.28 422.25 295.35 419.80 291.27 C 417.51 290.25 416.52 292.92 415.26 294.25 C 409.12 301.80 402.14 308.64 396.34 316.48 C 390.47 323.98 385.76 332.32 379.67 339.65 C 375.98 344.93 373.36 350.86 370.46 356.59 C 367.62 362.43 362.52 366.92 360.34 373.11 C 359.47 374.70 360.86 376.10 362.00 377.01 C 363.82 375.45 365.33 373.59 366.69 371.61 C 369.07 368.13 373.28 366.07 374.76 361.94 C 376.67 357.02 378.18 351.79 381.61 347.64 C 386.96 341.33 392.12 334.84 397.96 328.96 C 401.01 325.90 404.44 323.00 408.70 321.84 C 412.80 323.94 416.83 326.72 421.64 326.70 C 422.33 329.67 423.44 332.53 424.47 335.40 C 425.63 336.15 427.11 337.56 428.48 336.33 C 431.81 333.98 435.36 331.98 438.71 329.67 C 437.74 337.24 429.29 341.35 428.32 348.94 C 429.04 352.10 430.25 355.13 431.36 358.18 C 426.58 359.25 421.67 358.41 416.87 359.25 C 412.74 359.70 408.95 361.53 404.94 362.52 C 394.85 365.18 385.71 370.43 376.88 375.84 C 372.98 378.13 368.07 379.67 366.04 384.11 C 364.53 386.63 366.74 389.18 367.59 391.50 C 369.46 395.30 369.12 399.68 370.55 403.62 C 371.73 407.54 375.06 410.25 376.54 414.03 C 375.03 415.38 373.30 416.63 372.37 418.49 C 372.65 421.04 375.81 422.03 377.99 422.34 C 387.26 422.35 396.64 422.20 405.76 424.15 C 409.89 425.63 413.75 422.58 417.90 422.52 C 417.68 425.06 417.42 427.71 415.87 429.85 C 412.85 434.41 409.51 438.88 405.43 442.55 C 399.99 446.03 393.86 448.25 387.87 450.59 C 383.38 452.30 379.85 455.93 375.08 456.99 C 368.26 459.48 361.03 460.24 353.94 461.49 C 346.14 460.83 339.33 456.74 332.26 453.79 C 327.09 451.55 323.33 446.90 318.04 445.03 C 317.94 447.47 320.37 448.48 321.96 449.82 C 327.41 453.71 331.93 458.72 337.41 462.57 C 341.61 465.70 346.67 468.55 348.46 473.82 C 346.35 478.88 341.56 481.99 338.68 486.53 C 337.65 487.73 339.07 488.89 339.88 489.64 C 341.77 488.71 343.58 487.60 345.01 486.03 C 352.42 478.29 361.51 472.50 370.21 466.36 C 374.59 463.41 377.85 459.08 382.40 456.34 C 387.39 452.72 393.75 452.07 398.98 448.89 C 404.67 446.37 409.68 442.55 415.54 440.37 C 423.78 437.28 431.78 433.61 439.69 429.77 C 447.25 427.00 454.25 422.81 462.10 420.84 C 466.81 419.36 471.09 416.59 476.00 415.73 C 483.26 414.91 489.70 419.04 496.19 421.60 C 492.85 426.03 487.62 428.09 482.87 430.59 C 475.42 434.10 467.23 435.42 459.58 438.37 C 447.31 443.76 434.58 448.18 422.91 454.87 C 411.42 460.19 400.47 466.60 388.90 471.76 C 380.66 475.08 373.59 480.55 365.95 484.98 C 364.60 486.09 361.55 486.89 362.64 489.20 C 366.15 490.62 369.86 488.90 372.81 486.97 C 378.29 483.23 384.48 480.62 390.91 479.03 C 396.97 477.59 402.15 473.95 407.89 471.70 C 419.13 467.34 429.45 460.84 440.98 457.23 C 452.88 452.35 464.33 446.47 476.05 441.22 C 484.38 436.25 493.20 431.84 500.26 425.06 C 503.00 422.48 507.60 421.98 510.65 424.22 C 511.97 428.53 513.57 432.75 515.39 436.87 C 517.91 442.40 518.65 448.50 519.97 454.37 C 521.42 459.46 523.61 464.29 525.68 469.14 C 528.80 476.60 535.61 481.43 541.64 486.42 C 542.56 487.32 543.79 487.71 545.00 488.09 C 544.98 485.01 542.08 483.50 539.99 481.81 C 533.94 477.44 529.21 471.29 526.89 464.17 C 522.73 455.94 522.99 446.34 518.94 438.08 C 517.09 433.28 514.25 428.24 515.65 422.93 C 516.97 418.63 519.88 413.58 525.00 413.61 C 534.21 412.63 539.63 422.11 547.96 424.20 C 554.87 424.47 560.11 419.13 564.06 414.10 C 567.01 409.78 569.45 404.95 573.64 401.63 C 581.05 395.88 586.33 387.87 590.29 379.46 C 591.10 377.58 592.63 375.39 594.96 375.59 C 599.92 376.13 603.54 380.35 605.24 384.77 C 607.51 390.49 610.47 395.89 613.65 401.15 C 620.48 412.85 627.31 425.31 638.69 433.20 C 639.24 430.66 639.58 427.91 638.40 425.49 C 633.42 418.24 625.08 413.75 621.40 405.56 C 616.09 397.73 614.72 387.76 608.35 380.61 C 604.02 375.98 599.70 370.91 593.65 368.53 C 590.86 367.41 587.81 367.60 584.90 367.20 C 581.35 366.07 579.27 362.70 576.59 360.36 C 569.82 354.18 562.89 348.10 555.21 343.05 C 552.59 341.33 549.72 339.87 547.62 337.48 C 542.93 331.79 537.12 327.13 532.78 321.13 C 527.13 314.85 520.86 309.14 514.99 303.06 C 506.88 294.03 494.91 290.00 486.10 281.81 C 486.07 277.08 488.01 272.67 488.29 267.98 C 488.64 261.33 489.05 254.54 487.32 248.04 C 485.26 240.76 483.71 233.34 481.91 226.00 C 480.12 213.50 490.44 203.32 489.91 190.98 C 490.15 185.89 487.88 181.16 487.65 176.12 C 486.97 165.44 486.36 154.75 486.69 144.04 C 486.89 142.09 487.65 140.25 488.19 138.38 C 495.64 136.03 493.28 126.80 493.88 120.90 C 496.68 122.95 499.10 125.47 501.89 127.52 C 503.84 128.30 504.86 125.55 503.76 124.22 C 500.60 117.72 499.14 110.55 495.65 104.21 C 493.77 100.68 493.17 96.53 490.65 93.34 C 486.95 88.63 484.05 83.37 480.35 78.66 C 475.91 72.74 470.22 67.90 465.71 62.04 C 462.65 58.19 458.65 55.29 454.73 52.40 C 447.96 47.06 441.11 41.73 433.46 37.68 C 426.74 34.51 420.98 29.66 414.09 26.79 C 408.99 24.49 403.66 22.69 398.83 19.81 C 392.84 16.26 386.08 14.43 379.86 11.37 C 366.50 6.25 352.38 2.74 337.99 2.80 C 331.54 3.27 325.44 0.42 319.00 0.63 C 312.69 0.82 306.23 0.06 300.10 1.94 M 377.91 190.12 C 373.75 190.55 370.02 192.62 366.40 194.57 C 364.69 195.63 362.51 196.71 362.07 198.88 C 363.03 200.07 364.45 200.74 365.99 200.26 C 372.06 199.02 377.86 196.68 384.01 195.77 C 390.71 195.27 397.56 195.18 403.99 197.43 C 408.21 197.91 412.43 201.59 416.66 199.46 C 418.91 198.22 420.86 196.52 423.03 195.15 C 425.06 195.92 426.97 195.21 428.58 193.88 C 425.08 190.23 419.54 191.57 415.05 191.74 C 409.99 192.16 405.86 188.55 400.98 187.89 C 393.21 187.62 385.62 189.61 377.91 190.12 M 202.50 208.54 C 199.12 210.42 197.98 214.43 197.03 217.91 C 195.11 225.51 192.64 233.11 192.74 241.03 C 192.87 248.04 191.95 255.40 194.92 261.99 C 196.06 264.42 197.16 267.62 200.04 268.40 C 202.90 267.70 201.78 264.15 201.46 262.09 C 200.47 254.45 199.00 246.77 199.85 239.04 C 201.43 233.61 202.43 227.91 205.38 222.99 C 205.44 223.78 205.57 225.36 205.63 226.14 C 207.08 226.39 208.54 227.28 210.04 226.75 C 211.95 226.50 214.03 224.74 215.86 226.15 C 217.78 227.01 218.30 229.17 219.20 230.87 C 216.04 234.79 211.44 237.41 208.96 241.90 C 206.69 245.77 204.64 250.42 206.30 254.93 C 207.80 260.78 213.18 264.13 218.03 267.02 C 222.98 271.06 226.56 277.06 232.87 279.25 C 237.81 279.81 242.04 275.40 243.45 271.00 C 243.59 267.08 239.42 265.18 237.67 262.13 C 235.68 259.34 237.03 255.56 235.28 252.71 C 232.76 249.65 227.90 252.55 227.67 255.98 C 227.65 261.16 230.20 265.75 232.07 270.42 C 228.83 269.78 225.18 269.71 222.58 267.40 C 217.93 263.83 216.14 257.65 216.54 251.99 C 216.69 247.54 217.70 242.30 221.82 239.80 C 223.32 239.66 225.35 240.05 226.28 238.50 C 227.34 236.79 226.84 234.57 225.96 232.88 C 223.78 228.59 221.64 224.20 218.42 220.57 C 215.61 217.38 212.46 214.50 209.64 211.32 C 207.88 209.44 205.21 207.25 202.50 208.54 M 381.93 223.27 C 376.00 223.57 371.12 227.25 366.09 229.97 C 365.03 230.66 363.08 231.30 363.78 232.99 C 366.59 232.91 369.09 231.19 371.94 231.41 C 377.26 231.91 382.58 230.82 387.91 231.44 C 383.45 234.71 378.03 236.27 373.48 239.38 C 371.53 240.86 368.61 239.89 367.15 242.20 C 368.66 242.81 370.25 243.37 371.87 242.71 C 374.94 245.47 378.92 246.98 381.82 249.96 L 380.93 250.31 C 381.36 250.59 382.20 251.16 382.62 251.44 C 382.22 251.63 381.43 252.01 381.03 252.21 C 380.24 256.42 380.75 260.74 380.63 264.99 C 380.77 271.41 380.40 277.84 380.79 284.25 C 379.41 289.67 382.93 294.74 382.60 300.23 C 383.93 301.26 385.27 302.29 386.60 303.34 C 391.35 299.85 390.84 293.21 391.81 288.03 C 393.69 280.30 396.17 272.56 395.57 264.49 C 397.82 262.44 399.81 259.57 403.06 259.16 C 407.03 258.51 410.98 257.21 415.05 257.76 C 417.18 258.05 420.33 259.25 421.55 256.70 C 423.69 251.03 420.64 245.20 417.61 240.50 C 413.83 233.66 406.87 229.67 400.75 225.22 C 394.98 222.43 388.17 222.68 381.93 223.27 M 215.58 365.96 C 217.21 373.45 220.84 380.51 225.93 386.22 C 228.46 387.82 229.87 383.96 230.39 382.10 C 227.99 374.73 224.23 367.78 218.61 362.37 C 216.44 361.39 214.93 364.09 215.58 365.96 M 278.36 366.50 C 282.45 376.00 286.00 385.79 291.17 394.78 C 294.01 399.64 299.41 401.83 303.57 405.30 C 305.58 406.92 307.81 408.58 310.56 408.40 C 310.26 406.10 308.43 404.65 306.87 403.18 C 301.85 398.75 297.90 393.29 293.86 388.00 C 289.01 380.85 283.91 373.88 279.53 366.43 C 279.24 366.45 278.65 366.48 278.36 366.50 M 192.21 390.93 C 195.35 398.89 197.68 407.71 196.20 416.25 C 189.50 417.21 186.23 409.69 180.00 408.99 C 180.56 412.07 184.38 412.59 186.25 414.74 C 190.55 418.86 195.81 421.75 200.13 425.83 C 205.78 431.09 213.16 433.90 219.06 438.83 C 223.60 442.80 229.57 444.75 233.62 449.33 C 236.12 452.11 241.52 454.83 243.58 450.10 C 241.37 444.51 236.59 440.66 232.95 436.05 C 226.29 429.66 220.94 422.10 214.72 415.32 C 209.45 409.19 204.39 402.87 199.94 396.12 C 198.25 393.83 196.82 391.27 194.62 389.44 C 193.55 388.43 191.68 389.43 192.21 390.93 M 344.90 422.05 C 345.72 424.98 348.64 426.36 350.64 428.39 C 353.59 430.97 353.89 435.50 357.16 437.80 C 360.31 440.11 364.01 441.51 367.25 443.71 C 370.70 446.04 375.48 446.68 379.04 444.22 C 380.28 443.69 380.06 441.66 378.67 441.46 C 375.81 440.32 372.65 440.86 369.69 440.26 C 366.39 438.70 365.06 434.97 362.56 432.52 C 359.49 429.00 355.03 427.33 351.22 424.81 C 349.25 423.60 347.38 421.85 344.90 422.05 M 536.32 439.39 C 534.54 440.93 536.10 443.36 537.04 444.94 C 540.20 448.88 542.87 453.16 545.50 457.47 C 547.35 460.56 547.39 464.41 549.39 467.43 C 551.64 470.64 555.35 472.21 558.59 474.20 C 563.05 476.72 566.86 480.39 571.75 482.13 C 579.04 484.46 585.04 491.83 593.38 489.48 C 593.48 488.94 593.67 487.86 593.77 487.32 C 585.01 479.08 574.65 472.35 567.63 462.41 C 562.86 456.54 558.30 450.16 551.58 446.36 C 548.35 444.38 544.15 444.36 541.35 441.63 C 539.89 440.60 538.34 438.20 536.32 439.39 M 263.15 473.12 C 252.42 476.46 240.82 476.57 229.81 474.47 C 228.57 474.17 226.00 474.29 226.19 476.09 C 229.40 481.20 235.72 482.30 241.04 484.01 C 244.01 484.77 247.02 486.32 250.15 485.57 C 256.21 484.00 260.85 479.59 265.63 475.80 C 266.66 475.14 267.08 474.19 266.89 472.97 C 265.65 472.29 264.40 472.34 263.15 473.12 Z" />
<path fill="#ffffff" opacity="1.00" d=" M 460.77 227.71 C 463.59 226.12 466.97 226.80 470.06 226.74 C 472.17 226.53 474.12 228.88 473.18 230.90 C 472.46 234.59 469.98 237.84 466.47 239.27 C 466.31 239.35 466.00 239.51 465.84 239.59 C 464.91 234.29 456.89 234.04 454.59 238.51 C 454.12 240.25 454.13 242.07 453.92 243.86 C 452.15 243.58 449.71 244.27 448.66 242.37 C 447.85 240.88 447.38 238.97 448.69 237.59 C 452.20 233.74 456.19 230.25 460.77 227.71 Z" />
<path fill="#ffffff" opacity="1.00" d=" M 378.55 241.01 C 379.43 238.23 382.61 237.56 385.02 236.70 C 393.59 235.55 403.26 237.04 409.72 243.21 C 412.01 246.16 416.50 249.40 413.68 253.52 C 411.16 253.67 408.65 253.32 406.19 252.84 C 405.86 251.86 405.54 250.90 405.21 249.94 C 404.43 246.68 401.49 243.91 397.98 244.34 C 394.40 243.81 392.46 247.19 390.96 249.82 C 385.91 248.81 379.81 246.68 378.55 241.01 Z" />
<path fill="#ffffff" opacity="1.00" d=" M 468.86 245.92 C 470.02 243.39 472.92 241.67 475.52 243.42 C 480.07 246.30 478.93 252.40 478.59 256.93 C 476.70 264.87 472.89 272.81 466.04 277.61 C 465.42 275.58 463.63 274.29 462.53 272.56 C 460.74 270.03 460.56 266.84 459.83 263.93 C 459.10 260.65 457.86 257.14 459.58 253.91 C 458.71 253.21 457.68 252.73 456.66 252.32 C 458.08 252.24 459.50 252.16 460.93 252.06 C 463.59 250.06 466.82 248.65 468.86 245.92 Z" />
<path fill="#ffffff" opacity="1.00" d=" M 476.34 286.24 C 478.96 283.83 482.90 284.65 485.90 285.86 C 491.46 288.48 496.43 292.15 501.67 295.35 C 510.37 300.74 516.93 308.72 524.26 315.71 C 528.84 320.82 534.98 324.88 537.19 331.69 C 535.09 330.45 532.71 329.70 530.79 328.19 C 525.30 323.63 519.46 319.52 513.75 315.25 C 504.81 310.15 495.14 306.48 485.89 301.98 C 480.48 299.23 473.56 297.76 468.34 301.74 C 467.90 299.17 467.44 296.33 468.99 294.01 C 471.04 291.09 473.71 288.64 476.34 286.24 Z" />
<path fill="#ffffff" opacity="1.00" d=" M 464.79 312.93 C 467.00 309.51 468.60 304.91 472.94 303.68 C 475.94 303.48 478.98 303.43 481.99 303.75 C 490.68 306.62 498.53 311.50 507.13 314.62 C 520.34 321.06 530.87 331.66 542.56 340.38 C 546.17 343.25 551.09 343.38 554.79 346.09 C 562.33 351.07 569.49 356.67 575.99 362.96 C 579.82 366.88 584.10 370.76 586.04 376.03 C 587.19 379.11 584.96 381.91 583.35 384.32 C 580.48 388.24 579.24 393.23 575.67 396.64 C 572.22 399.90 568.34 402.83 565.86 406.96 C 563.91 410.13 561.35 413.33 557.56 414.26 C 553.84 414.88 550.04 414.67 546.30 414.47 C 546.48 413.22 548.12 413.39 548.96 412.83 C 549.59 411.49 551.22 410.25 550.52 408.64 C 548.28 407.22 545.51 407.43 542.99 407.34 C 536.68 407.58 530.37 407.53 524.06 407.47 C 518.78 407.45 514.09 404.74 509.51 402.44 C 505.24 400.21 502.64 395.98 500.41 391.89 C 497.27 386.64 494.65 381.04 493.20 375.09 C 492.08 371.09 491.04 366.89 488.62 363.44 C 484.51 358.94 480.49 354.36 476.26 349.97 C 476.04 348.60 476.60 346.72 475.02 346.03 C 472.87 345.83 471.59 347.98 469.99 349.03 C 466.90 346.99 468.70 341.70 464.86 340.81 C 464.03 343.64 465.37 347.60 462.36 349.33 C 458.88 350.82 455.12 348.81 451.63 349.63 C 452.42 353.48 456.79 354.51 460.04 355.36 C 460.90 355.05 461.77 354.76 462.65 354.47 C 461.83 356.67 461.25 358.94 461.07 361.29 C 464.44 364.17 466.19 359.56 467.17 357.05 C 468.09 354.13 471.40 354.34 473.88 354.52 C 476.58 354.59 479.35 356.25 480.03 358.98 C 481.11 362.26 478.69 365.43 476.28 367.39 C 473.47 369.97 469.43 369.03 465.98 369.18 C 461.63 368.98 457.27 369.72 452.94 369.16 C 447.53 367.93 443.75 363.51 439.45 360.34 C 436.24 356.92 432.01 353.21 432.48 348.04 C 432.87 342.49 437.55 338.75 440.64 334.54 C 447.04 325.56 458.86 322.36 464.79 312.93 Z" />
<path fill="#ffffff" opacity="1.00" d=" M 416.94 362.85 C 423.05 363.36 429.02 362.02 435.03 361.33 C 435.62 361.79 436.81 362.73 437.40 363.20 C 436.19 364.71 435.29 366.97 433.14 367.28 C 424.45 367.72 415.80 366.88 407.19 365.92 C 410.18 364.21 413.33 362.32 416.94 362.85 Z" />
<path fill="#ffffff" opacity="1.00" d=" M 458.92 383.05 C 461.47 379.90 465.66 378.86 469.17 377.12 C 475.26 381.85 478.23 390.33 485.93 392.91 C 489.46 394.38 493.30 393.15 496.98 393.56 C 501.81 396.77 504.12 402.77 509.52 405.34 C 513.31 406.96 516.73 409.41 520.69 410.63 C 520.20 410.88 519.21 411.39 518.72 411.64 C 517.65 414.19 515.85 416.29 513.68 417.97 C 508.36 417.06 504.27 413.16 499.17 411.64 C 489.62 408.59 479.73 406.77 470.10 404.02 C 467.64 403.42 465.69 401.62 464.55 399.41 C 461.79 394.34 457.23 389.28 458.92 383.05 Z" />
<path fill="#ffffff" opacity="1.00" d=" M 379.75 382.54 C 382.55 380.41 385.28 382.78 387.99 383.70 C 390.66 382.80 393.10 380.94 396.09 381.36 C 398.39 381.07 399.97 383.03 402.00 383.70 C 404.63 383.74 407.27 381.92 409.84 383.10 C 415.59 385.95 422.27 384.29 428.45 384.20 C 427.19 387.06 425.19 389.77 421.95 390.43 C 414.84 392.48 407.32 392.07 400.01 392.22 C 392.66 392.60 386.65 387.78 379.93 385.68 C 378.96 385.93 377.99 386.18 377.02 386.44 C 377.92 385.13 378.87 383.86 379.75 382.54 Z" />
<path fill="#ffffff" opacity="1.00" d=" M 435.33 382.32 C 437.21 381.15 438.27 383.45 438.46 384.99 C 439.63 394.23 435.23 403.43 428.76 409.81 C 421.08 415.14 411.27 416.67 402.08 416.24 C 397.08 416.01 391.54 415.82 387.55 412.39 C 382.87 408.50 376.87 405.76 373.97 400.11 C 372.38 397.23 373.08 392.85 376.49 391.69 C 380.29 390.72 384.55 390.84 388.04 392.79 C 392.99 395.12 398.24 398.36 403.95 397.20 C 408.93 396.01 414.18 396.05 418.96 394.11 C 425.43 391.80 430.21 386.64 435.33 382.32 Z" />
</g>
<g id="#000000ff">
<path fill="#000000" opacity="1.00" d=" M 300.10 1.94 C 306.23 0.06 312.69 0.82 319.00 0.63 C 325.44 0.42 331.54 3.27 337.99 2.80 C 352.38 2.74 366.50 6.25 379.86 11.37 C 386.08 14.43 392.84 16.26 398.83 19.81 C 403.66 22.69 408.99 24.49 414.09 26.79 C 420.98 29.66 426.74 34.51 433.46 37.68 C 441.11 41.73 447.96 47.06 454.73 52.40 C 458.65 55.29 462.65 58.19 465.71 62.04 C 470.22 67.90 475.91 72.74 480.35 78.66 C 484.05 83.37 486.95 88.63 490.65 93.34 C 493.17 96.53 493.77 100.68 495.65 104.21 C 499.14 110.55 500.60 117.72 503.76 124.22 C 504.86 125.55 503.84 128.30 501.89 127.52 C 499.10 125.47 496.68 122.95 493.88 120.90 C 493.28 126.80 495.64 136.03 488.19 138.38 C 487.65 140.25 486.89 142.09 486.69 144.04 C 486.36 154.75 486.97 165.44 487.65 176.12 C 487.88 181.16 490.15 185.89 489.91 190.98 C 490.44 203.32 480.12 213.50 481.91 226.00 C 483.71 233.34 485.26 240.76 487.32 248.04 C 489.05 254.54 488.64 261.33 488.29 267.98 C 488.01 272.67 486.07 277.08 486.10 281.81 C 494.91 290.00 506.88 294.03 514.99 303.06 C 520.86 309.14 527.13 314.85 532.78 321.13 C 537.12 327.13 542.93 331.79 547.62 337.48 C 549.72 339.87 552.59 341.33 555.21 343.05 C 562.89 348.10 569.82 354.18 576.59 360.36 C 579.27 362.70 581.35 366.07 584.90 367.20 C 587.81 367.60 590.86 367.41 593.65 368.53 C 599.70 370.91 604.02 375.98 608.35 380.61 C 614.72 387.76 616.09 397.73 621.40 405.56 C 625.08 413.75 633.42 418.24 638.40 425.49 C 639.58 427.91 639.24 430.66 638.69 433.20 C 627.31 425.31 620.48 412.85 613.65 401.15 C 610.47 395.89 607.51 390.49 605.24 384.77 C 603.54 380.35 599.92 376.13 594.96 375.59 C 592.63 375.39 591.10 377.58 590.29 379.46 C 586.33 387.87 581.05 395.88 573.64 401.63 C 569.45 404.95 567.01 409.78 564.06 414.10 C 560.11 419.13 554.87 424.47 547.96 424.20 C 539.63 422.11 534.21 412.63 525.00 413.61 C 519.88 413.58 516.97 418.63 515.65 422.93 C 514.25 428.24 517.09 433.28 518.94 438.08 C 522.99 446.34 522.73 455.94 526.89 464.17 C 529.21 471.29 533.94 477.44 539.99 481.81 C 542.08 483.50 544.98 485.01 545.00 488.09 C 543.79 487.71 542.56 487.32 541.64 486.42 C 535.61 481.43 528.80 476.60 525.68 469.14 C 523.61 464.29 521.42 459.46 519.97 454.37 C 518.65 448.50 517.91 442.40 515.39 436.87 C 513.57 432.75 511.97 428.53 510.65 424.22 C 507.60 421.98 503.00 422.48 500.26 425.06 C 493.20 431.84 484.38 436.25 476.05 441.22 C 464.33 446.47 452.88 452.35 440.98 457.23 C 429.45 460.84 419.13 467.34 407.89 471.70 C 402.15 473.95 396.97 477.59 390.91 479.03 C 384.48 480.62 378.29 483.23 372.81 486.97 C 369.86 488.90 366.15 490.62 362.64 489.20 C 361.55 486.89 364.60 486.09 365.95 484.98 C 373.59 480.55 380.66 475.08 388.90 471.76 C 400.47 466.60 411.42 460.19 422.91 454.87 C 434.58 448.18 447.31 443.76 459.58 438.37 C 467.23 435.42 475.42 434.10 482.87 430.59 C 487.62 428.09 492.85 426.03 496.19 421.60 C 489.70 419.04 483.26 414.91 476.00 415.73 C 471.09 416.59 466.81 419.36 462.10 420.84 C 454.25 422.81 447.25 427.00 439.69 429.77 C 431.78 433.61 423.78 437.28 415.54 440.37 C 409.68 442.55 404.67 446.37 398.98 448.89 C 393.75 452.07 387.39 452.72 382.40 456.34 C 377.85 459.08 374.59 463.41 370.21 466.36 C 361.51 472.50 352.42 478.29 345.01 486.03 C 343.58 487.60 341.77 488.71 339.88 489.64 C 339.07 488.89 337.65 487.73 338.68 486.53 C 341.56 481.99 346.35 478.88 348.46 473.82 C 346.67 468.55 341.61 465.70 337.41 462.57 C 331.93 458.72 327.41 453.71 321.96 449.82 C 320.37 448.48 317.94 447.47 318.04 445.03 C 323.33 446.90 327.09 451.55 332.26 453.79 C 339.33 456.74 346.14 460.83 353.94 461.49 C 361.03 460.24 368.26 459.48 375.08 456.99 C 379.85 455.93 383.38 452.30 387.87 450.59 C 393.86 448.25 399.99 446.03 405.43 442.55 C 409.51 438.88 412.85 434.41 415.87 429.85 C 417.42 427.71 417.68 425.06 417.90 422.52 C 413.75 422.58 409.89 425.63 405.76 424.15 C 396.64 422.20 387.26 422.35 377.99 422.34 C 375.81 422.03 372.65 421.04 372.37 418.49 C 373.30 416.63 375.03 415.38 376.54 414.03 C 375.06 410.25 371.73 407.54 370.55 403.62 C 369.12 399.68 369.46 395.30 367.59 391.50 C 366.74 389.18 364.53 386.63 366.04 384.11 C 368.07 379.67 372.98 378.13 376.88 375.84 C 385.71 370.43 394.85 365.18 404.94 362.52 C 408.95 361.53 412.74 359.70 416.87 359.25 C 421.67 358.41 426.58 359.25 431.36 358.18 C 430.25 355.13 429.04 352.10 428.32 348.94 C 429.29 341.35 437.74 337.24 438.71 329.67 C 438.69 328.06 438.61 326.46 438.56 324.86 C 436.87 324.01 435.38 322.59 433.48 322.26 C 430.66 322.17 427.81 321.96 425.00 322.34 C 422.92 322.69 422.09 324.90 421.64 326.70 C 416.83 326.72 412.80 323.94 408.70 321.84 C 404.44 323.00 401.01 325.90 397.96 328.96 C 392.12 334.84 386.96 341.33 381.61 347.64 C 378.18 351.79 376.67 357.02 374.76 361.94 C 373.28 366.07 369.07 368.13 366.69 371.61 C 365.33 373.59 363.82 375.45 362.00 377.01 C 360.86 376.10 359.47 374.70 360.34 373.11 C 362.52 366.92 367.62 362.43 370.46 356.59 C 373.36 350.86 375.98 344.93 379.67 339.65 C 385.76 332.32 390.47 323.98 396.34 316.48 C 402.14 308.64 409.12 301.80 415.26 294.25 C 416.52 292.92 417.51 290.25 419.80 291.27 C 422.25 295.35 422.62 300.28 422.72 304.94 C 421.49 308.20 416.86 308.61 415.84 312.11 C 413.98 316.79 418.40 321.25 422.81 322.01 C 425.33 318.17 429.22 314.69 434.03 314.52 C 437.12 314.56 440.48 315.64 442.46 318.15 C 443.44 320.78 440.42 322.62 438.49 323.70 C 439.74 325.45 439.56 327.52 439.04 329.49 C 442.03 328.47 445.29 327.61 447.26 324.91 C 450.90 319.93 457.43 318.26 460.84 313.03 C 463.40 310.31 462.74 306.45 462.80 303.06 C 462.67 298.99 463.25 294.66 461.41 290.88 C 458.33 283.90 453.22 278.01 450.34 270.93 C 447.12 262.94 445.21 254.49 443.32 246.10 C 442.09 241.06 442.44 235.79 443.80 230.81 C 444.44 228.58 444.63 225.50 447.07 224.44 C 450.65 223.62 454.36 224.94 457.97 224.17 C 462.05 223.29 466.57 222.77 469.82 219.87 C 474.39 215.86 475.35 209.09 474.28 203.42 C 471.22 198.41 465.33 196.38 460.54 193.46 C 459.29 192.83 458.70 191.55 459.21 190.21 C 460.83 189.93 462.20 190.90 463.56 191.63 C 467.76 190.99 472.47 189.63 474.68 185.65 C 479.69 178.90 480.20 170.18 480.64 162.10 C 480.90 153.16 480.96 144.04 478.47 135.37 C 477.75 132.56 475.12 131.01 472.92 129.46 C 472.71 133.50 473.02 137.58 472.44 141.60 C 471.42 141.41 469.79 141.84 469.51 140.43 C 467.71 135.92 466.99 130.94 464.14 126.89 C 460.97 122.40 459.59 116.82 455.56 112.92 C 454.84 116.35 457.56 121.47 454.06 123.72 C 451.95 122.85 451.30 120.59 450.59 118.65 C 448.47 112.01 444.78 106.00 440.95 100.23 C 439.20 103.54 439.68 107.36 439.38 110.95 C 439.15 114.65 438.03 118.25 438.12 121.97 C 438.18 130.07 437.27 138.22 434.85 145.97 C 434.40 148.13 431.26 148.70 430.84 146.19 C 429.87 140.84 428.57 135.51 428.28 130.06 C 427.89 123.88 426.12 117.92 425.00 111.85 C 424.00 106.38 420.23 102.14 417.06 97.80 C 416.97 107.24 417.64 116.73 416.59 126.14 C 416.67 127.92 415.16 128.90 413.91 129.85 C 410.55 126.45 410.41 121.46 409.36 117.08 C 407.85 111.01 405.88 105.01 402.84 99.52 C 396.32 104.84 394.51 113.43 391.17 120.73 C 386.84 119.69 388.66 114.45 388.42 111.29 C 382.45 115.42 378.58 121.72 374.50 127.57 C 373.84 128.65 372.66 129.18 371.55 128.36 C 370.97 125.99 372.14 123.74 372.85 121.55 C 374.98 114.93 379.25 109.14 380.31 102.16 C 372.13 103.79 366.88 110.86 362.18 117.14 C 359.40 120.56 357.60 124.59 355.71 128.53 C 355.12 130.13 353.55 131.58 351.77 130.64 C 349.66 127.06 350.42 122.64 350.72 118.69 C 348.17 120.80 345.31 122.74 343.84 125.82 C 337.75 137.58 325.93 145.04 319.74 156.73 C 315.95 162.46 312.45 168.85 312.75 175.95 C 312.59 180.23 315.07 183.93 315.86 188.02 C 316.26 189.58 314.97 190.98 313.51 191.28 C 308.14 192.39 302.69 193.46 297.60 195.53 C 292.49 198.52 288.26 203.40 286.52 209.10 C 285.66 215.41 287.02 221.96 285.23 228.17 C 283.42 232.21 278.82 233.78 274.91 235.00 C 269.74 236.29 264.48 237.93 259.11 237.68 C 254.96 235.60 252.20 231.44 247.59 230.08 C 247.79 233.72 250.30 237.80 248.06 241.08 C 245.15 236.61 244.45 231.11 241.56 226.62 C 239.67 223.24 236.80 220.59 233.76 218.27 C 229.03 213.92 223.54 210.55 218.46 206.65 C 215.45 204.33 211.96 202.22 208.00 202.48 C 203.93 202.67 199.01 201.49 195.80 204.72 C 191.73 208.84 187.86 213.93 187.83 220.00 C 188.14 233.04 186.59 246.06 187.32 259.10 C 188.34 264.19 190.54 268.96 192.25 273.85 C 194.28 279.66 199.76 283.02 203.16 287.90 C 206.22 291.74 208.75 296.44 213.49 298.45 C 219.73 302.01 227.15 301.20 234.03 300.95 C 237.78 300.91 240.73 298.50 243.99 297.08 C 245.84 297.18 246.72 299.21 247.25 300.72 C 248.42 305.15 248.58 309.77 249.43 314.26 C 248.83 314.44 247.64 314.79 247.05 314.97 C 243.55 312.43 241.32 308.10 237.02 306.77 C 230.64 306.44 224.21 306.67 217.82 306.92 C 214.83 307.15 213.42 310.32 212.80 312.87 C 212.41 317.23 212.80 321.61 213.65 325.90 C 214.92 332.66 211.28 339.52 213.47 346.19 C 217.10 346.81 220.73 347.52 224.18 348.83 C 227.97 350.24 232.19 350.98 235.32 353.75 C 240.55 358.23 243.38 364.67 246.51 370.64 C 250.76 377.50 255.97 383.73 259.96 390.76 C 267.55 404.50 274.42 418.64 282.50 432.09 C 287.44 442.73 293.56 452.75 298.70 463.29 C 302.81 471.73 309.38 478.88 312.63 487.71 C 311.20 487.53 310.11 486.83 309.36 485.61 C 301.51 473.53 295.09 460.62 287.86 448.18 C 282.21 438.01 277.10 427.56 271.64 417.29 C 265.74 407.37 260.35 397.17 254.65 387.15 C 250.93 380.57 246.06 374.73 242.52 368.04 C 241.43 366.10 239.91 364.45 238.41 362.81 C 238.71 365.83 238.95 368.92 240.23 371.72 C 243.15 378.23 245.53 385.24 250.52 390.53 C 253.72 393.86 255.97 397.94 257.92 402.09 C 261.53 409.56 266.30 416.37 270.31 423.62 C 275.27 433.66 280.82 443.41 285.69 453.51 C 289.75 461.27 292.86 469.46 296.49 477.42 C 297.79 480.77 299.76 484.05 299.55 487.78 C 296.03 487.05 296.12 482.89 294.78 480.26 C 286.60 461.72 277.76 443.47 268.47 425.47 C 263.06 416.48 257.45 407.57 252.92 398.10 C 250.78 394.06 247.51 390.79 244.97 387.03 C 239.70 379.33 236.68 370.45 233.13 361.91 C 231.56 358.74 230.31 354.80 226.78 353.29 C 221.70 351.10 216.07 350.73 210.92 348.71 C 207.16 347.41 202.33 346.22 201.05 341.89 C 199.31 334.12 200.30 325.49 204.92 318.86 C 207.26 315.79 207.42 311.45 206.00 307.98 C 204.00 304.27 198.52 305.28 196.00 307.88 C 191.43 312.33 190.72 319.04 187.60 324.37 C 181.25 335.20 176.94 347.45 176.54 360.07 C 175.96 366.34 173.83 373.81 167.28 376.20 C 158.36 378.86 149.06 380.15 140.19 383.04 C 135.48 384.49 130.50 385.06 125.95 387.04 C 122.18 388.72 118.00 389.02 114.11 390.34 C 108.70 392.01 103.67 394.92 98.03 395.83 C 88.00 396.92 78.51 400.56 68.94 403.54 C 60.21 406.29 52.06 410.92 42.92 412.21 C 32.67 414.61 22.05 415.43 12.11 419.08 C 9.43 420.09 6.98 421.86 4.02 421.93 C 4.09 420.59 4.76 419.51 6.01 418.99 C 19.76 411.14 35.84 410.22 50.99 406.92 C 57.09 404.96 63.04 402.57 68.95 400.11 C 77.17 397.37 85.41 394.62 93.84 392.53 C 97.55 391.52 101.48 391.54 105.09 390.11 C 115.03 385.79 125.41 382.42 135.99 380.02 C 141.45 379.19 146.54 376.85 152.01 376.07 C 157.08 375.29 161.86 373.31 166.91 372.43 C 171.17 371.64 171.35 366.37 172.08 362.99 C 172.36 356.18 174.24 349.59 175.93 343.03 C 178.13 334.29 183.22 326.71 186.49 318.39 C 188.77 313.32 191.19 307.99 195.60 304.40 C 198.34 302.13 201.88 301.25 205.31 300.67 C 206.17 295.44 202.40 291.41 199.53 287.56 C 196.92 284.12 192.95 281.92 190.79 278.11 C 187.49 273.27 186.20 267.49 184.08 262.12 C 181.63 255.64 182.74 248.39 179.99 242.00 C 176.57 232.26 174.50 222.07 173.09 211.87 C 171.25 200.91 168.43 190.05 168.08 178.90 C 166.43 171.35 166.45 163.63 166.19 155.95 C 164.90 143.47 167.07 131.02 168.95 118.73 C 170.34 111.70 171.43 104.58 173.79 97.79 C 176.91 89.33 178.83 80.43 182.43 72.14 C 185.27 67.77 187.62 62.99 191.38 59.31 C 196.82 53.42 202.80 47.99 207.57 41.52 C 211.77 36.70 216.76 32.68 221.32 28.23 C 224.24 25.35 228.06 23.74 231.52 21.62 C 242.08 15.10 253.71 10.00 266.02 7.96 C 272.35 6.48 278.72 5.12 285.08 3.76 C 290.04 2.77 295.23 3.44 300.10 1.94 M 460.77 227.71 C 456.19 230.25 452.20 233.74 448.69 237.59 C 447.38 238.97 447.85 240.88 448.66 242.37 C 449.71 244.27 452.15 243.58 453.92 243.86 C 454.13 242.07 454.12 240.25 454.59 238.51 C 456.89 234.04 464.91 234.29 465.84 239.59 C 462.25 241.44 458.47 242.87 454.50 243.62 C 452.46 246.66 454.39 250.08 456.66 252.32 C 457.68 252.73 458.71 253.21 459.58 253.91 C 457.86 257.14 459.10 260.65 459.83 263.93 C 460.56 266.84 460.74 270.03 462.53 272.56 C 463.63 274.29 465.42 275.58 466.04 277.61 C 472.89 272.81 476.70 264.87 478.59 256.93 C 478.93 252.40 480.07 246.30 475.52 243.42 C 472.92 241.67 470.02 243.39 468.86 245.92 C 469.13 244.62 469.35 243.32 469.50 242.00 C 468.49 241.08 467.48 240.17 466.47 239.27 C 469.98 237.84 472.46 234.59 473.18 230.90 C 474.12 228.88 472.17 226.53 470.06 226.74 C 466.97 226.80 463.59 226.12 460.77 227.71 M 476.34 286.24 C 473.71 288.64 471.04 291.09 468.99 294.01 C 467.44 296.33 467.90 299.17 468.34 301.74 C 473.56 297.76 480.48 299.23 485.89 301.98 C 495.14 306.48 504.81 310.15 513.75 315.25 C 519.46 319.52 525.30 323.63 530.79 328.19 C 532.71 329.70 535.09 330.45 537.19 331.69 C 534.98 324.88 528.84 320.82 524.26 315.71 C 516.93 308.72 510.37 300.74 501.67 295.35 C 496.43 292.15 491.46 288.48 485.90 285.86 C 482.90 284.65 478.96 283.83 476.34 286.24 M 464.79 312.93 C 458.86 322.36 447.04 325.56 440.64 334.54 C 437.55 338.75 432.87 342.49 432.48 348.04 C 432.01 353.21 436.24 356.92 439.45 360.34 C 443.75 363.51 447.53 367.93 452.94 369.16 C 457.27 369.72 461.63 368.98 465.98 369.18 C 469.43 369.03 473.47 369.97 476.28 367.39 C 478.69 365.43 481.11 362.26 480.03 358.98 C 479.35 356.25 476.58 354.59 473.88 354.52 C 471.40 354.34 468.09 354.13 467.17 357.05 C 466.19 359.56 464.44 364.17 461.07 361.29 C 461.25 358.94 461.83 356.67 462.65 354.47 C 461.77 354.76 460.90 355.05 460.04 355.36 C 456.79 354.51 452.42 353.48 451.63 349.63 C 455.12 348.81 458.88 350.82 462.36 349.33 C 465.37 347.60 464.03 343.64 464.86 340.81 C 468.70 341.70 466.90 346.99 469.99 349.03 C 471.59 347.98 472.87 345.83 475.02 346.03 C 476.60 346.72 476.04 348.60 476.26 349.97 C 480.49 354.36 484.51 358.94 488.62 363.44 C 491.04 366.89 492.08 371.09 493.20 375.09 C 494.65 381.04 497.27 386.64 500.41 391.89 C 502.64 395.98 505.24 400.21 509.51 402.44 C 514.09 404.74 518.78 407.45 524.06 407.47 C 530.37 407.53 536.68 407.58 542.99 407.34 C 545.51 407.43 548.28 407.22 550.52 408.64 C 551.22 410.25 549.59 411.49 548.96 412.83 C 548.12 413.39 546.48 413.22 546.30 414.47 C 550.04 414.67 553.84 414.88 557.56 414.26 C 561.35 413.33 563.91 410.13 565.86 406.96 C 568.34 402.83 572.22 399.90 575.67 396.64 C 579.24 393.23 580.48 388.24 583.35 384.32 C 584.96 381.91 587.19 379.11 586.04 376.03 C 584.10 370.76 579.82 366.88 575.99 362.96 C 569.49 356.67 562.33 351.07 554.79 346.09 C 551.09 343.38 546.17 343.25 542.56 340.38 C 530.87 331.66 520.34 321.06 507.13 314.62 C 498.53 311.50 490.68 306.62 481.99 303.75 C 478.98 303.43 475.94 303.48 472.94 303.68 C 468.60 304.91 467.00 309.51 464.79 312.93 M 416.94 362.85 C 413.33 362.32 410.18 364.21 407.19 365.92 C 415.80 366.88 424.45 367.72 433.14 367.28 C 435.29 366.97 436.19 364.71 437.40 363.20 C 436.81 362.73 435.62 361.79 435.03 361.33 C 429.02 362.02 423.05 363.36 416.94 362.85 M 458.92 383.05 C 457.23 389.28 461.79 394.34 464.55 399.41 C 465.69 401.62 467.64 403.42 470.10 404.02 C 479.73 406.77 489.62 408.59 499.17 411.64 C 504.27 413.16 508.36 417.06 513.68 417.97 C 515.85 416.29 517.65 414.19 518.72 411.64 C 519.21 411.39 520.20 410.88 520.69 410.63 C 516.73 409.41 513.31 406.96 509.52 405.34 C 504.12 402.77 501.81 396.77 496.98 393.56 C 493.30 393.15 489.46 394.38 485.93 392.91 C 478.23 390.33 475.26 381.85 469.17 377.12 C 465.66 378.86 461.47 379.90 458.92 383.05 M 379.75 382.54 C 378.87 383.86 377.92 385.13 377.02 386.44 C 377.99 386.18 378.96 385.93 379.93 385.68 C 386.65 387.78 392.66 392.60 400.01 392.22 C 407.32 392.07 414.84 392.48 421.95 390.43 C 425.19 389.77 427.19 387.06 428.45 384.20 C 422.27 384.29 415.59 385.95 409.84 383.10 C 407.27 381.92 404.63 383.74 402.00 383.70 C 399.97 383.03 398.39 381.07 396.09 381.36 C 393.10 380.94 390.66 382.80 387.99 383.70 C 385.28 382.78 382.55 380.41 379.75 382.54 M 435.33 382.32 C 430.21 386.64 425.43 391.80 418.96 394.11 C 414.18 396.05 408.93 396.01 403.95 397.20 C 398.24 398.36 392.99 395.12 388.04 392.79 C 384.55 390.84 380.29 390.72 376.49 391.69 C 373.08 392.85 372.38 397.23 373.97 400.11 C 376.87 405.76 382.87 408.50 387.55 412.39 C 391.54 415.82 397.08 416.01 402.08 416.24 C 411.27 416.67 421.08 415.14 428.76 409.81 C 435.23 403.43 439.63 394.23 438.46 384.99 C 438.27 383.45 437.21 381.15 435.33 382.32 Z" />
<path fill="#000000" opacity="1.00" d=" M 377.91 190.12 C 385.62 189.61 393.21 187.62 400.98 187.89 C 405.86 188.55 409.99 192.16 415.05 191.74 C 419.54 191.57 425.08 190.23 428.58 193.88 C 426.97 195.21 425.06 195.92 423.03 195.15 C 420.86 196.52 418.91 198.22 416.66 199.46 C 412.43 201.59 408.21 197.91 403.99 197.43 C 397.56 195.18 390.71 195.27 384.01 195.77 C 377.86 196.68 372.06 199.02 365.99 200.26 C 364.45 200.74 363.03 200.07 362.07 198.88 C 362.51 196.71 364.69 195.63 366.40 194.57 C 370.02 192.62 373.75 190.55 377.91 190.12 Z" />
<path fill="#000000" opacity="1.00" d=" M 202.50 208.54 C 205.21 207.25 207.88 209.44 209.64 211.32 C 212.46 214.50 215.61 217.38 218.42 220.57 C 221.64 224.20 223.78 228.59 225.96 232.88 C 226.84 234.57 227.34 236.79 226.28 238.50 C 225.35 240.05 223.32 239.66 221.82 239.80 C 217.70 242.30 216.69 247.54 216.54 251.99 C 216.14 257.65 217.93 263.83 222.58 267.40 C 225.18 269.71 228.83 269.78 232.07 270.42 C 230.20 265.75 227.65 261.16 227.67 255.98 C 227.90 252.55 232.76 249.65 235.28 252.71 C 237.03 255.56 235.68 259.34 237.67 262.13 C 239.42 265.18 243.59 267.08 243.45 271.00 C 242.04 275.40 237.81 279.81 232.87 279.25 C 226.56 277.06 222.98 271.06 218.03 267.02 C 213.18 264.13 207.80 260.78 206.30 254.93 C 204.64 250.42 206.69 245.77 208.96 241.90 C 211.44 237.41 216.04 234.79 219.20 230.87 C 218.30 229.17 217.78 227.01 215.86 226.15 C 214.03 224.74 211.95 226.50 210.04 226.75 C 208.54 227.28 207.08 226.39 205.63 226.14 C 205.57 225.36 205.44 223.78 205.38 222.99 C 202.43 227.91 201.43 233.61 199.85 239.04 C 199.00 246.77 200.47 254.45 201.46 262.09 C 201.78 264.15 202.90 267.70 200.04 268.40 C 197.16 267.62 196.06 264.42 194.92 261.99 C 191.95 255.40 192.87 248.04 192.74 241.03 C 192.64 233.11 195.11 225.51 197.03 217.91 C 197.98 214.43 199.12 210.42 202.50 208.54 Z" />
<path fill="#000000" opacity="1.00" d=" M 381.93 223.27 C 388.17 222.68 394.98 222.43 400.75 225.22 C 406.87 229.67 413.83 233.66 417.61 240.50 C 420.64 245.20 423.69 251.03 421.55 256.70 C 420.33 259.25 417.18 258.05 415.05 257.76 C 415.57 256.79 416.10 255.82 416.63 254.86 C 415.64 254.40 414.66 253.96 413.68 253.52 C 416.50 249.40 412.01 246.16 409.72 243.21 C 403.26 237.04 393.59 235.55 385.02 236.70 C 382.61 237.56 379.43 238.23 378.55 241.01 C 379.81 246.68 385.91 248.81 390.96 249.82 C 392.46 247.19 394.40 243.81 397.98 244.34 C 401.49 243.91 404.43 246.68 405.21 249.94 C 405.28 250.80 405.43 252.54 405.50 253.40 C 402.40 252.92 399.31 252.37 396.21 251.84 C 392.27 251.52 388.49 250.41 384.72 249.32 C 383.70 248.94 382.76 249.71 381.82 249.96 C 378.92 246.98 374.94 245.47 371.87 242.71 C 370.25 243.37 368.66 242.81 367.15 242.20 C 368.61 239.89 371.53 240.86 373.48 239.38 C 378.03 236.27 383.45 234.71 387.91 231.44 C 382.58 230.82 377.26 231.91 371.94 231.41 C 369.09 231.19 366.59 232.91 363.78 232.99 C 363.08 231.30 365.03 230.66 366.09 229.97 C 371.12 227.25 376.00 223.57 381.93 223.27 Z" />
<path fill="#000000" opacity="1.00" d=" M 215.58 365.96 C 214.93 364.09 216.44 361.39 218.61 362.37 C 224.23 367.78 227.99 374.73 230.39 382.10 C 229.87 383.96 228.46 387.82 225.93 386.22 C 220.84 380.51 217.21 373.45 215.58 365.96 Z" />
<path fill="#000000" opacity="1.00" d=" M 278.36 366.50 C 278.65 366.48 279.24 366.45 279.53 366.43 C 283.91 373.88 289.01 380.85 293.86 388.00 C 297.90 393.29 301.85 398.75 306.87 403.18 C 308.43 404.65 310.26 406.10 310.56 408.40 C 307.81 408.58 305.58 406.92 303.57 405.30 C 299.41 401.83 294.01 399.64 291.17 394.78 C 286.00 385.79 282.45 376.00 278.36 366.50 Z" />
<path fill="#000000" opacity="1.00" d=" M 192.21 390.93 C 191.68 389.43 193.55 388.43 194.62 389.44 C 196.82 391.27 198.25 393.83 199.94 396.12 C 204.39 402.87 209.45 409.19 214.72 415.32 C 220.94 422.10 226.29 429.66 232.95 436.05 C 236.59 440.66 241.37 444.51 243.58 450.10 C 241.52 454.83 236.12 452.11 233.62 449.33 C 229.57 444.75 223.60 442.80 219.06 438.83 C 213.16 433.90 205.78 431.09 200.13 425.83 C 195.81 421.75 190.55 418.86 186.25 414.74 C 184.38 412.59 180.56 412.07 180.00 408.99 C 186.23 409.69 189.50 417.21 196.20 416.25 C 197.68 407.71 195.35 398.89 192.21 390.93 Z" />
<path fill="#000000" opacity="1.00" d=" M 344.90 422.05 C 347.38 421.85 349.25 423.60 351.22 424.81 C 355.03 427.33 359.49 429.00 362.56 432.52 C 365.06 434.97 366.39 438.70 369.69 440.26 C 372.65 440.86 375.81 440.32 378.67 441.46 C 380.06 441.66 380.28 443.69 379.04 444.22 C 375.48 446.68 370.70 446.04 367.25 443.71 C 364.01 441.51 360.31 440.11 357.16 437.80 C 353.89 435.50 353.59 430.97 350.64 428.39 C 348.64 426.36 345.72 424.98 344.90 422.05 Z" />
<path fill="#000000" opacity="1.00" d=" M 536.32 439.39 C 538.34 438.20 539.89 440.60 541.35 441.63 C 544.15 444.36 548.35 444.38 551.58 446.36 C 558.30 450.16 562.86 456.54 567.63 462.41 C 574.65 472.35 585.01 479.08 593.77 487.32 C 593.67 487.86 593.48 488.94 593.38 489.48 C 585.04 491.83 579.04 484.46 571.75 482.13 C 566.86 480.39 563.05 476.72 558.59 474.20 C 555.35 472.21 551.64 470.64 549.39 467.43 C 547.39 464.41 547.35 460.56 545.50 457.47 C 542.87 453.16 540.20 448.88 537.04 444.94 C 536.10 443.36 534.54 440.93 536.32 439.39 Z" />
<path fill="#000000" opacity="1.00" d=" M 263.15 473.12 C 264.40 472.34 265.65 472.29 266.89 472.97 C 267.08 474.19 266.66 475.14 265.63 475.80 C 260.85 479.59 256.21 484.00 250.15 485.57 C 247.02 486.32 244.01 484.77 241.04 484.01 C 235.72 482.30 229.40 481.20 226.19 476.09 C 226.00 474.29 228.57 474.17 229.81 474.47 C 240.82 476.57 252.42 476.46 263.15 473.12 Z" />
</g>
<g id="#51cbceff">
<path fill="#51cbce" opacity="1.00" d=" M 454.50 243.62 C 458.47 242.87 462.25 241.44 465.84 239.59 C 466.00 239.51 466.31 239.35 466.47 239.27 C 467.48 240.17 468.49 241.08 469.50 242.00 C 469.35 243.32 469.13 244.62 468.86 245.92 C 466.82 248.65 463.59 250.06 460.93 252.06 C 459.50 252.16 458.08 252.24 456.66 252.32 C 454.39 250.08 452.46 246.66 454.50 243.62 Z" />
<path fill="#51cbce" opacity="1.00" d=" M 405.21 249.94 C 405.54 250.90 405.86 251.86 406.19 252.84 C 408.65 253.32 411.16 253.67 413.68 253.52 C 414.66 253.96 415.64 254.40 416.63 254.86 C 416.10 255.82 415.57 256.79 415.05 257.76 C 410.98 257.21 407.03 258.51 403.06 259.16 C 399.81 259.57 397.82 262.44 395.57 264.49 C 396.17 272.56 393.69 280.30 391.81 288.03 C 390.84 293.21 391.35 299.85 386.60 303.34 C 385.27 302.29 383.93 301.26 382.60 300.23 C 382.93 294.74 379.41 289.67 380.79 284.25 C 381.51 280.52 382.67 276.88 384.44 273.51 C 387.33 267.93 387.69 261.40 390.76 255.90 C 391.86 253.78 394.25 252.96 396.21 251.84 C 399.31 252.37 402.40 252.92 405.50 253.40 C 405.43 252.54 405.28 250.80 405.21 249.94 Z" />
<path fill="#51cbce" opacity="1.00" d=" M 433.48 322.26 C 435.38 322.59 436.87 324.01 438.56 324.86 C 438.61 326.46 438.69 328.06 438.71 329.67 C 435.36 331.98 431.81 333.98 428.48 336.33 C 427.11 337.56 425.63 336.15 424.47 335.40 C 424.75 333.42 425.04 331.45 425.36 329.49 C 427.14 328.38 428.59 326.89 428.99 324.76 C 430.46 323.88 431.95 323.03 433.48 322.26 Z" />
</g>
<g id="#b3efefff">
<path fill="#b3efef" opacity="1.00" d=" M 381.82 249.96 C 382.76 249.71 383.70 248.94 384.72 249.32 C 388.49 250.41 392.27 251.52 396.21 251.84 C 394.25 252.96 391.86 253.78 390.76 255.90 C 387.69 261.40 387.33 267.93 384.44 273.51 C 382.67 276.88 381.51 280.52 380.79 284.25 C 380.40 277.84 380.77 271.41 380.63 264.99 C 380.75 260.74 380.24 256.42 381.03 252.21 C 381.43 252.01 382.22 251.63 382.62 251.44 C 382.20 251.16 381.36 250.59 380.93 250.31 L 381.82 249.96 Z" />
</g>
<g id="#8edddaff">
<path fill="#8eddda" opacity="1.00" d=" M 421.64 326.70 C 422.09 324.90 422.92 322.69 425.00 322.34 C 427.81 321.96 430.66 322.17 433.48 322.26 C 431.95 323.03 430.46 323.88 428.99 324.76 C 428.59 326.89 427.14 328.38 425.36 329.49 C 425.04 331.45 424.75 333.42 424.47 335.40 C 423.44 332.53 422.33 329.67 421.64 326.70 Z" />
</g>
</svg>
