<?xml version="1.0" encoding="utf-8"?>
<!-- Generator: Adobe Illustrator 15.0.2, SVG Export Plug-In . SVG Version: 6.00 Build 0)  -->
<!DOCTYPE svg PUBLIC "-//W3C//DTD SVG 1.1//EN" "http://www.w3.org/Graphics/SVG/1.1/DTD/svg11.dtd">
<svg version="1.1" id="Layer_1" xmlns="http://www.w3.org/2000/svg" xmlns:xlink="http://www.w3.org/1999/xlink" x="0px" y="0px"
	 width="143px" height="126px" viewBox="0 0 143 126" enable-background="new 0 0 143 126" xml:space="preserve">
<path fill="#FFFFFF" d="M0,0h143v126H0V0 M26,9.01c-2.78,1.88-4.09,5.19-6.5,7.43c-1.36,1.21-3.22,1.92-4.16,3.56
	c-3.59,5.7-8.27,10.67-11.51,16.6c-0.93,1.72-0.13,3.6,0.33,5.31c-0.69,1.94-1.04,3.96-1.18,6.01c-1.4-3.48-0.93-7.29-1.51-10.93
	c-1.35,8.89,0.71,18.05-1.46,26.82C-0.76,67.46,1.86,70.45,1.94,74c-0.15,3.59,2.91,5.93,4.28,8.96c0.82,1.46,1.07,3.22,2.05,4.58
	c1.81-0.34,2.77,1.33,3.84,2.47c3.11,3.78,7.71,6.01,12.32,7.391c-2.07-3.92-6.93-4.33-10.11-6.92c-1.31-3.09-4.69-4.94-5.2-8.371
	c-2.05-8.6-5.44-17.079-5.18-26.06c-0.08-1.9,0.16-3.84-0.23-5.71c-0.72-5.49,3.7-9.92,3.06-15.41c-0.26-3.63,3.35-5.48,5.51-7.74
	c1.76-1.44,2.2-3.73,3.2-5.64C21.53,17.8,24.29,9.5,32.05,8.57c8.17-3.09,16.88-5.64,25.71-4.62c5.3,2.83,11.78,5.84,13.38,12.23
	c-5.09,0.89-10.64,0.48-15.08-2.36c0.16,0.78,0.49,2.34,0.65,3.12c-2.32-0.45-6.74,1.12-6.09-2.79c-1.52,0.86-3.15,0.68-4.79,0.22
	c2.43,4.87,8.64,3.61,12.77,5.96c-4.37,3.92-9.77,8.52-8.85,15.09c2.9,6.32,9.62,10.21,16.16,11.82
	c5.73,1.53,12.949-3.03,12.699-9.24C77.061,33.93,75.95,29.46,73,26.11c-1.75-2.05-3.53-4.07-5.08-6.28
	c4.77-1.34,10.71,1.78,10.17,7.28c-1.54-1.48-1.71-4.02-3.77-5.02c0.97,5.39,6.76,8.37,7.14,14.01c2.16,5.84,4.92,11.54,5.66,17.82
	c2.89,12.03,2.989,24.78,0.09,36.811c-1.59,1.43-2.33,3.449-3.05,5.41c0.73,0.439,1.449,0.869,2.18,1.299
	c3.04-5.27,3.85-11.449,4.18-17.42c0.391-8.039-0.149-16.1-0.959-24.089c-0.461-3.49,0.34-7.01-0.19-10.48
	c-2.181-7.78-10.19-13.33-9.79-21.89c-1.189-1.43-2.109-3.04-3.09-4.61c3.32,0.1,2.08-3.39,1.6-5.36c-1.65,0.49-3.25,1.1-4.869,1.69
	C68.63,8.11,60.94,1.79,51.98,2.34C43.04,3.33,34.41,5.94,26,9.01 M21.47,22.22c-1.15,3.91-2.12,7.92-4.23,11.46
	c-2.81,1.57-5.92,3.39-6.57,6.87c0.85-0.61,2.54-1.84,3.39-2.45c-1.58,2.9-4.25,5.49-3.84,9.07c0.92-0.9,1.81-1.83,2.68-2.78
	c0.63,0.55,1.26,1.11,1.88,1.66c-0.85,3.98-2.69,7.58-5.52,10.5c3.28,1.01,3.88-2.91,4.96-5.06c2.39,5.24,8.71,5.18,13.56,4.26
	c5.32-5.1,11.04-10.93,11.13-18.83c-5.65-3.28-11.98-8.61-18.87-5.34C21.49,28.93,24.29,24.94,21.47,22.22 M64.86,53.81
	c-9.33,4.2-19.8,5.55-29.92,4.16c-6.17-0.81-13.45-0.63-17.91,4.37c0.61,0.09,1.84,0.27,2.46,0.36c0.76,2.649,1.36,5.34,2.04,8.01
	c1.53,3.181,4.89,5.399,8.49,5.07c4.29,2.489,7.44,6.71,12.09,8.67c2.75,1.11,5.66,2.35,8.67,2.2c3.46-1.2,7.5-2.521,9.26-6.041
	c0.49-0.1,1.46-0.299,1.95-0.399c2.36-4.59,4.44-9.319,5.97-14.25c2.24-7.04,7.521-12.44,10.95-18.85
	C74.061,48.98,69.8,52.11,64.86,53.81 M122.9,80.46c-1.711-0.94-3.36-0.87-4.84,0.39c4.789-0.41,4.399,5.181,4.25,8.351
	c-1.61,2.87-4.971,4.989-4.971,8.55c2.6-2.2,5.7-4.57,5.82-8.311c0.34-3.819,0.859-8.31,4.949-9.939
	c1.341,1.97,2.73,4.189,2.111,6.689c-1.381,4.301-4.791,7.641-5.861,12.091c6.061-4.15,8.42-12.21,7.25-19.261
	c1.631,0.45,3.25,0.971,4.851,1.521c3.7,5.7,3.22,13.63-0.59,19.14c-1.351,2.561-4.91,2.021-6.41,4.381
	c-4.5,5.899-11.239,9.789-18.39,11.52c-1.59,0.2-2.061,1.92-2.91,3.029c8.21-2.17,16.23-6.069,21.91-12.52
	c1.88-2.65,5.709-2.72,7.439-5.58c4.54-6.42,3.78-15.42,0-22.029C132.71,76.9,127.24,78.09,122.9,80.46 M114.311,80.08
	c-0.791,4.061-0.44,8.51-2.83,12.109c-1.711,3.041-5.431,3.83-8.66,3.761c-0.141-4.16-0.42-8.33-1.471-12.37
	c-2.16-0.79-4.449-0.91-6.72-0.91c-5.43,6.43-4.76,15.75-3.319,23.51c-2.631,2.07-5.59,3.7-8.551,5.28
	c-1.81,0.74-5.15,0.26-4.57,3.13c5.75-1.31,10.881-4.38,15.381-8.109c-1.76-6-2.471-12.631-0.461-18.66
	c0.861-2.79,3.701-3.65,6.32-3.59c2.631,4.479-0.22,10.209,3.061,14.459c2.21-2.26,5.85-0.84,8.17-2.959
	c4.18-3.28,4.42-9.131,5.029-13.98c0.851-0.76,1.66-1.57,2.41-2.43C117.16,79.51,115.26,79.891,114.311,80.08 M66,86.76
	c-2.92-1.51-6.35-1.949-9.38-0.52c-0.16,5.32-0.43,12.99-6.52,14.93c0.81,0.5,1.61,1,2.41,1.51c6.35-3,3.28-11.68,7.4-16.22
	c5.82-0.76,5.32,6.88,4.19,10.56c-1.72,2.03-4.33,3.641-4.06,6.7c3.71-2.739,6.76-6.989,6.44-11.79
	c-0.18-2.91,1.74-5.479,4.44-6.439c0.79,1.76,1.971,3.5,1.87,5.529c-0.12,5.061-4.94,8.301-5.67,13.221
	c5.64-4.26,8.95-11.881,6.55-18.811c4.59-0.779,7.76,3.37,7.82,7.601c0.539,6.04-1.29,14.81-8.561,15.68
	c-2.38,4.95-7.35,7.78-12.04,10.2c-3.38,1.82-8.18,1.949-10.02,5.84c1.56-0.15,3.08-0.54,4.46-1.28
	c6.31-3.079,13.15-5.89,17.67-11.51c1.95-2.87,6.16-2.95,7.811-6.149c1.459-2.07,0.52-5.74,3.399-6.66
	c-2.021-4.07-0.66-9.131-3.29-12.99c-1.47-2.35-4.51-2.73-7.05-2.62C71.48,85.3,67.93,84.01,66,86.76 M35.07,91.73
	c-3.47,6.189-2,13.609-1.42,20.31c-3.86,3.149-7.97,6.22-13.12,6.58c-0.01,0.47-0.04,1.43-0.05,1.899
	c5.87-0.899,10.95-4.109,15.51-7.76c-1.1-6.369-2.87-13.4,0.13-19.5c0.97-2.25,3.45-2.85,5.64-3.13c2.71,4.4,0.87,9.761,2.59,14.431
	c2.23-0.67,4.49-1.261,6.77-1.74c-1.77-1.141-3.83-1.24-5.86-1.15c0.07-4.29,0.23-9.02-2.19-12.76
	C40.14,88.141,36.55,88.85,35.07,91.73 M8.31,89.46c0.48,3.56,1.46,7.37,4.66,9.45c-0.91-2.93-3.21-5.52-2.76-8.77
	C9.74,89.97,8.78,89.63,8.31,89.46 M107.62,110.641c-4.05,1.52-6.05,5.449-8.841,8.43c-0.039,0.96-0.059,1.93-0.069,2.89
	c1.761-2.01,3.03-4.44,5.14-6.13c3.98-3.38,8.91-5.6,12.2-9.77C112.55,105.561,110.721,109.59,107.62,110.641z"/>
<path fill="#040404" d="M26,9.01c8.41-3.07,17.04-5.68,25.98-6.67c8.96-0.55,16.65,5.77,21.241,12.94
	c1.619-0.59,3.219-1.2,4.869-1.69c0.48,1.97,1.721,5.46-1.6,5.36c0.98,1.57,1.9,3.18,3.09,4.61c-0.4,8.56,7.609,14.11,9.79,21.89
	c0.53,3.47-0.271,6.99,0.19,10.48c0.81,7.99,1.35,16.05,0.959,24.089c-0.33,5.971-1.14,12.15-4.18,17.42
	c-0.73-0.43-1.449-0.859-2.18-1.299c0.72-1.961,1.46-3.98,3.05-5.41c2.899-12.03,2.8-24.78-0.09-36.811
	c-0.74-6.28-3.5-11.98-5.66-17.82c-0.38-5.64-6.17-8.62-7.14-14.01c2.06,1,2.229,3.54,3.77,5.02c0.54-5.5-5.4-8.62-10.17-7.28
	c1.55,2.21,3.33,4.23,5.08,6.28c2.95,3.35,4.061,7.82,5.609,11.89c0.25,6.21-6.969,10.77-12.699,9.24
	c-6.54-1.61-13.26-5.5-16.16-11.82c-0.92-6.57,4.48-11.17,8.85-15.09c-4.13-2.35-10.34-1.09-12.77-5.96
	c1.64,0.46,3.27,0.64,4.79-0.22c-0.65,3.91,3.77,2.34,6.09,2.79c-0.16-0.78-0.49-2.34-0.65-3.12c4.44,2.84,9.99,3.25,15.08,2.36
	c-1.6-6.39-8.08-9.4-13.38-12.23c-8.83-1.02-17.54,1.53-25.71,4.62C24.29,9.5,21.53,17.8,15.48,21.55c-1,1.91-1.44,4.2-3.2,5.64
	c-2.16,2.26-5.77,4.11-5.51,7.74c0.64,5.49-3.78,9.92-3.06,15.41c-0.24-0.81-0.48-1.62-0.73-2.42c0.14-2.05,0.49-4.07,1.18-6.01
	C3.7,40.2,2.9,38.32,3.83,36.6c3.24-5.93,7.92-10.9,11.51-16.6c0.94-1.64,2.8-2.35,4.16-3.56C21.91,14.2,23.22,10.89,26,9.01
	 M75.49,17.06C75.7,20.41,78.51,15.47,75.49,17.06 M67.33,18.51c0.84,0.67,3.38,0.95,3.45-0.479
	C69.94,17.35,67.42,17.09,67.33,18.51 M50.72,34.12c3.31,8.48,13.53,12.86,22.19,10.76c3.17-1.58,5.29-5.23,4.41-8.78
	c-1.93-5.65-6.39-9.84-9.66-14.69c-1.3-2.48-4.43-1.31-6.66-1.57C56.88,24,51.23,27.71,50.72,34.12 M83.66,37.91
	c0.25,4.61,4.43,8.03,3.67,12.78l1.41,0.05C87.92,46.23,87.221,41.2,83.66,37.91z"/>
<path fill="#D1D1D1" d="M75.49,17.06C78.51,15.47,75.7,20.41,75.49,17.06z"/>
<path fill="#979797" d="M67.33,18.51c0.09-1.42,2.61-1.16,3.45-0.479C70.71,19.46,68.17,19.18,67.33,18.51z"/>
<path fill="#FEFEFE" d="M50.72,34.12C51.23,27.71,56.88,24,61,19.84c2.23,0.26,5.36-0.91,6.66,1.57c3.27,4.85,7.73,9.04,9.66,14.69
	c0.88,3.55-1.24,7.2-4.41,8.78C64.25,46.98,54.03,42.6,50.72,34.12 M62.53,32.24c2,0.31,5.18,2.19,6.03-0.67
	c0.96-2.03-1.44-3.17-2.68-4.28C63.35,27.59,62.26,29.91,62.53,32.24z"/>
<path fill="#040404" d="M21.47,22.22c2.82,2.72,0.02,6.71-1.43,9.36c6.89-3.27,13.22,2.06,18.87,5.34
	c-0.09,7.9-5.81,13.73-11.13,18.83c-4.85,0.92-11.17,0.98-13.56-4.26c-1.08,2.15-1.68,6.07-4.96,5.06c2.83-2.92,4.67-6.52,5.52-10.5
	c-0.62-0.55-1.25-1.11-1.88-1.66c-0.87,0.95-1.76,1.88-2.68,2.78c-0.41-3.58,2.26-6.17,3.84-9.07c-0.85,0.61-2.54,1.84-3.39,2.45
	c0.65-3.48,3.76-5.3,6.57-6.87C19.35,30.14,20.32,26.13,21.47,22.22 M19.48,33.6c-1.57,3.1-1.73,6.75-3.12,9.95
	c1.91,0.57,3.19-1.4,4.84-1.97c2.3,1.16,1.55,4.19,0.86,6.1c-1.34-1.35-0.73-3.37-1.02-5.05c-1.15,1.16-1.72,2.68-2.43,4.11
	c-1.57,0.5-1.75-2.03-2.62-2.85c-0.24,2.4-0.49,4.8-0.56,7.21c2.69,2.71,6.58,5.43,10.53,3.85C31.32,50.3,37.88,44.92,37.18,37
	C31.73,34.56,25.45,29.58,19.48,33.6 M13.9,43.66c0.33,0.03,1.01,0.1,1.35,0.14c0.52-1.14,0.68-2.32,0.48-3.52
	C14.37,40.34,13.91,42.51,13.9,43.66z"/>
<path fill="#070707" d="M62.53,32.24c-0.27-2.33,0.82-4.65,3.35-4.95c1.24,1.11,3.64,2.25,2.68,4.28
	C67.71,34.43,64.53,32.55,62.53,32.24 M65.15,29.26c-1.87,0.39-0.52,2.92,0.98,2.26C67.99,31.09,66.68,28.54,65.15,29.26z"/>
<path fill="#FEFEFE" d="M65.15,29.26c1.53-0.72,2.84,1.83,0.98,2.26C64.63,32.18,63.28,29.65,65.15,29.26z"/>
<path fill="#FDFDFD" d="M19.48,33.6c5.97-4.02,12.25,0.96,17.7,3.4c0.7,7.92-5.86,13.3-11.22,17.95c-3.95,1.58-7.84-1.14-10.53-3.85
	c0.07-2.41,0.32-4.81,0.56-7.21c0.87,0.82,1.05,3.35,2.62,2.85c0.71-1.43,1.28-2.95,2.43-4.11c0.29,1.68-0.32,3.7,1.02,5.05
	c0.69-1.91,1.44-4.94-0.86-6.1c-1.65,0.57-2.93,2.54-4.84,1.97C17.75,40.35,17.91,36.7,19.48,33.6z"/>
<path fill="#767676" d="M1.47,36.99c0.58,3.64,0.11,7.45,1.51,10.93c0.25,0.8,0.49,1.61,0.73,2.42c0.39,1.87,0.15,3.81,0.23,5.71
	c-0.26,8.98,3.13,17.46,5.18,26.06c0.51,3.431,3.89,5.281,5.2,8.371c3.18,2.59,8.04,3,10.11,6.92c-4.61-1.381-9.21-3.61-12.32-7.391
	c-1.07-1.14-2.03-2.81-3.84-2.47c-0.98-1.36-1.23-3.12-2.05-4.58C4.85,79.93,1.79,77.59,1.94,74c-0.08-3.55-2.7-6.54-1.93-10.189
	C2.18,55.04,0.12,45.88,1.47,36.99 M3.37,72.09c0.66,2.94,1.46,6.04,3.67,8.23c-0.26-1.971-0.96-3.84-1.72-5.67
	C3.2,69.68,2.81,64.189,2.53,58.86C1.71,63.28,2.59,67.74,3.37,72.09z"/>
<path fill="#FDFDFD" d="M83.66,37.91c3.561,3.29,4.26,8.32,5.08,12.83l-1.41-0.05C88.09,45.94,83.91,42.52,83.66,37.91z"/>
<path fill="#F9F9F9" d="M13.9,43.66c0.01-1.15,0.47-3.32,1.83-3.38c0.2,1.2,0.04,2.38-0.48,3.52C14.91,43.76,14.23,43.69,13.9,43.66
	z"/>
<path fill="#4C4C4C" d="M64.86,53.81c4.94-1.7,9.201-4.83,14.05-6.7c-3.43,6.41-8.71,11.81-10.95,18.85
	c-1.53,4.931-3.61,9.66-5.97,14.25c-0.49,0.101-1.46,0.3-1.95,0.399c-1.76,3.521-5.8,4.841-9.26,6.041
	c-3.01,0.149-5.92-1.09-8.67-2.2c-4.65-1.96-7.8-6.181-12.09-8.67c-3.6,0.329-6.96-1.89-8.49-5.07c-0.68-2.67-1.28-5.36-2.04-8.01
	c-0.62-0.09-1.85-0.27-2.46-0.36c4.46-5,11.74-5.18,17.91-4.37C45.06,59.36,55.53,58.01,64.86,53.81 M38.05,60.06
	c-5.67-0.88-11.61-1.07-17.09,0.86c0.91,4.141,1.41,8.689,4.42,11.95c2.56-0.8,5.22-2.11,7.94-1.181
	c4.15,1.301,2.35,8.561,6.66,9.17c4.55-4.299,10.3-9.25,17.04-8.06c0.47-4.59,4.99-6.67,9.1-6.84c1.93-5.29,4.72-10.16,7.79-14.85
	C63.2,57.52,50.64,61.61,38.05,60.06 M58.74,80.15c3.77-2.91,5.4-7.87,6.29-12.4L64.1,67.4C58.63,68.82,57.25,75.35,58.74,80.15
	 M28.91,73.17c2.45,1.141,4.51,3.05,7.15,3.78C34.58,74.32,31.9,72.87,28.91,73.17 M47.16,77.37c-0.04,2.64,1.32,5.1,1.72,7.7
	c3.24-0.66,6.25-2.061,9.07-3.76c-1.08-2.341-2.15-4.69-2.9-7.16C52.35,74.811,48.81,74.73,47.16,77.37 M41.19,82.12
	c1.83,0.979,3.75,1.78,5.8,2.2c-0.21-2.42-1.26-4.561-3.02-6.211C43.02,79.439,42.1,80.77,41.19,82.12z"/>
<path fill="#FEFEFE" d="M38.05,60.06c12.59,1.55,25.15-2.54,35.86-8.95c-3.07,4.69-5.86,9.56-7.79,14.85
	c-4.11,0.17-8.63,2.25-9.1,6.84c-6.74-1.19-12.49,3.761-17.04,8.06c-4.31-0.609-2.51-7.869-6.66-9.17
	c-2.72-0.93-5.38,0.381-7.94,1.181c-3.01-3.261-3.51-7.81-4.42-11.95C26.44,58.99,32.38,59.18,38.05,60.06z"/>
<path fill="#FAFAFA" d="M3.37,72.09c-0.78-4.35-1.66-8.81-0.84-13.23c0.28,5.33,0.67,10.82,2.79,15.791
	c0.76,1.83,1.46,3.699,1.72,5.67C4.83,78.13,4.03,75.03,3.37,72.09z"/>
<path fill="#F9F9F9" d="M58.74,80.15c-1.49-4.801-0.11-11.33,5.36-12.75l0.93,0.35C64.14,72.28,62.51,77.24,58.74,80.15z"/>
<path fill="#FEFEFE" d="M28.91,73.17c2.99-0.3,5.67,1.15,7.15,3.78C33.42,76.22,31.36,74.311,28.91,73.17z"/>
<path fill="#FAFAFA" d="M47.16,77.37c1.65-2.64,5.19-2.56,7.89-3.22c0.75,2.47,1.82,4.819,2.9,7.16c-2.82,1.699-5.83,3.1-9.07,3.76
	C48.48,82.47,47.12,80.01,47.16,77.37z"/>
<path fill="#040404" d="M122.9,80.46c4.34-2.37,9.81-3.56,14.609-1.979c3.78,6.609,4.54,15.609,0,22.029
	c-1.73,2.86-5.56,2.93-7.439,5.58c-5.68,6.45-13.7,10.35-21.91,12.52c0.85-1.109,1.32-2.829,2.91-3.029
	c7.15-1.73,13.89-5.62,18.39-11.52c1.5-2.36,5.06-1.82,6.41-4.381c3.81-5.51,4.29-13.439,0.59-19.14
	c-1.601-0.55-3.22-1.07-4.851-1.521c1.17,7.051-1.189,15.11-7.25,19.261c1.07-4.45,4.48-7.79,5.861-12.091
	c0.619-2.5-0.771-4.72-2.111-6.689c-4.09,1.63-4.609,6.12-4.949,9.939c-0.12,3.74-3.221,6.11-5.82,8.311
	c0-3.561,3.36-5.68,4.971-8.55c0.149-3.17,0.539-8.761-4.25-8.351C119.54,79.59,121.189,79.52,122.9,80.46z"/>
<path fill="#F0F0F0" d="M41.19,82.12c0.91-1.351,1.83-2.681,2.78-4.011c1.76,1.65,2.81,3.791,3.02,6.211
	C44.94,83.9,43.02,83.1,41.19,82.12z"/>
<path d="M114.311,80.08c0.949-0.189,2.85-0.57,3.789-0.76c-0.75,0.859-1.56,1.67-2.41,2.43c-0.609,4.85-0.85,10.7-5.029,13.98
	c-2.32,2.119-5.96,0.699-8.17,2.959c-3.28-4.25-0.43-9.979-3.061-14.459c-2.619-0.061-5.459,0.8-6.32,3.59
	c-2.01,6.029-1.299,12.66,0.461,18.66c-4.5,3.729-9.631,6.8-15.381,8.109c-0.58-2.87,2.761-2.39,4.57-3.13
	c2.961-1.58,5.92-3.21,8.551-5.28c-1.44-7.76-2.11-17.08,3.319-23.51c2.271,0,4.56,0.12,6.72,0.91c1.051,4.04,1.33,8.21,1.471,12.37
	c3.229,0.069,6.949-0.72,8.66-3.761C113.87,88.59,113.52,84.141,114.311,80.08z"/>
<path d="M66,86.76c1.93-2.75,5.48-1.46,7.87-3.22c2.54-0.11,5.58,0.271,7.05,2.62c2.63,3.859,1.27,8.92,3.29,12.99
	c-2.88,0.92-1.94,4.59-3.399,6.66c-1.65,3.199-5.86,3.279-7.811,6.149c-4.52,5.62-11.36,8.431-17.67,11.51
	c-1.38,0.74-2.9,1.13-4.46,1.28c1.84-3.891,6.64-4.02,10.02-5.84c4.69-2.42,9.66-5.25,12.04-10.2c7.271-0.87,9.1-9.64,8.561-15.68
	c-0.061-4.23-3.23-8.38-7.82-7.601c2.4,6.93-0.91,14.551-6.55,18.811c0.73-4.92,5.55-8.16,5.67-13.221
	c0.101-2.029-1.08-3.77-1.87-5.529c-2.7,0.96-4.62,3.529-4.44,6.439c0.32,4.801-2.73,9.051-6.44,11.79
	c-0.27-3.06,2.34-4.67,4.06-6.7c1.13-3.68,1.63-11.319-4.19-10.56c-4.12,4.54-1.05,13.22-7.4,16.22c-0.8-0.51-1.6-1.01-2.41-1.51
	c6.09-1.939,6.36-9.609,6.52-14.93C59.65,84.811,63.08,85.25,66,86.76z"/>
<path fill="#070707" d="M35.07,91.73c1.48-2.881,5.07-3.59,8-2.82c2.42,3.74,2.26,8.47,2.19,12.76c2.03-0.09,4.09,0.01,5.86,1.15
	c-2.28,0.479-4.54,1.07-6.77,1.74c-1.72-4.67,0.12-10.03-2.59-14.431c-2.19,0.28-4.67,0.88-5.64,3.13c-3,6.1-1.23,13.131-0.13,19.5
	c-4.56,3.65-9.64,6.86-15.51,7.76c0.01-0.47,0.04-1.43,0.05-1.899c5.15-0.36,9.26-3.431,13.12-6.58
	C33.07,105.34,31.6,97.92,35.07,91.73z"/>
<path fill="#070707" d="M8.31,89.46c0.47,0.17,1.43,0.51,1.9,0.681c-0.45,3.25,1.85,5.84,2.76,8.77
	C9.77,96.83,8.79,93.02,8.31,89.46z"/>
<path d="M107.62,110.641c3.101-1.051,4.93-5.08,8.43-4.58c-3.29,4.17-8.22,6.39-12.2,9.77c-2.109,1.689-3.379,4.12-5.14,6.13
	c0.011-0.96,0.03-1.93,0.069-2.89C101.57,116.09,103.57,112.16,107.62,110.641z"/>
</svg>
