<?xml version="1.0" encoding="utf-8"?>
<!-- Generator: Adobe Illustrator 15.0.2, SVG Export Plug-In . SVG Version: 6.00 Build 0)  -->
<!DOCTYPE svg PUBLIC "-//W3C//DTD SVG 1.1//EN" "http://www.w3.org/Graphics/SVG/1.1/DTD/svg11.dtd">
<svg version="1.1" id="Layer_1" xmlns="http://www.w3.org/2000/svg" xmlns:xlink="http://www.w3.org/1999/xlink" x="0px" y="0px"
	 width="171px" height="204px" viewBox="0 0 171 204" enable-background="new 0 0 171 204" xml:space="preserve">
<path fill="#FFFFFF" d="M0,0h171v204h-32.859c-7.971-4.82-11.99-14.141-20.181-18.75c-7.44-4.13-13.851-11.8-23.04-11.37
	c-0.26-2.05-0.449-4.1-0.609-6.149c4.34-0.67,8.569-1.961,12.989-2.03c5.15-1.45,10.681-0.3,15.86-1.55
	c4.93-1.711,8.3-6.021,12.97-8.211c1.931-1.159,4.511-2.01,5.261-4.369c1.43-3.7,3-7.43,5.529-10.53
	c5.28-6.46,10.34-13.21,14.061-20.7c3.5-5.54,5.979-11.62,8.689-17.55c1.15-2.43,0.83-5.16,0.88-7.75
	c-0.1-3.98,0.15-7.97-0.12-11.95c-1.67-5.34-5.109-9.87-7.57-14.86c-1.489-3.08-3.27-6.01-4.959-8.98c-1.631-2.63-3.26-5.47-6.07-7
	c-5.9-3.23-9.109-9.85-15.301-12.63c-3.01-1.18-6.059-2.23-9.119-3.26c-5.76-0.39-11.439-1.6-17-3.11c-0.58-1.61-1.23-3.2-1.93-4.77
	c-1.99-2.74-4.65-4.94-6.391-7.88c-1.09-3.58-2.58-7.05-4.699-10.15c-1.021-1.54-2.301-2.91-3.92-3.81
	c-3.24-1.4-5.461-4.25-8.461-5.98C79.6-0.44,74.1,1.07,68.66,1.25c-8.64,2.95-17.41,5.5-26.17,8.06c-2.83,1.81-5.91,3.2-9.14,4.11
	c-3.66,2.58-6.9,5.69-10.34,8.54c-3.53,2.91-5.29,7.27-8.6,10.37c-0.46,1.38-0.98,2.73-1.55,4.07c0.04,0.55,0.13,1.65,0.18,2.2
	c-0.44,0.42-1.32,1.26-1.75,1.68c-0.56,2.09-1.1,4.189-1.67,6.28c-1.29,8.03-1.07,16.23-3.26,24.13C6.23,76.71,5.97,82.8,4.38,88.64
	c-0.64,3.73-1.59,7.42-3.08,10.91c-1.07,4.66-1,9.5-0.65,14.24c1.09,3.16,4.06,5.06,6.17,7.479c4.49,6.121,11.17,10.07,16,15.9
	c3.78,4.85,8.56,8.77,12.54,13.43c2.87,3.301,7.07,4.99,10.19,8.01c7.41,3.221,15.19,5.44,22.63,8.58
	c7.56,0.601,15.18,0.041,22.77,0.25c0.04,2.471,0.05,4.94,0.069,7.42c-4.58,4.44-9.299,8.75-13.72,13.341
	c-3.16,5.04-6,10.34-8.37,15.8H0V0z"/>
<path fill="#000200" d="M68.66,1.25C74.1,1.07,79.6-0.44,85.01,0.66c3,1.73,5.221,4.58,8.461,5.98c1.619,0.9,2.899,2.27,3.92,3.81
	c2.119,3.1,3.609,6.57,4.699,10.15c1.74,2.94,4.4,5.14,6.391,7.88c0.699,1.57,1.35,3.16,1.93,4.77c5.561,1.51,11.24,2.72,17,3.11
	c3.061,1.03,6.109,2.08,9.119,3.26c6.191,2.78,9.4,9.4,15.301,12.63c2.811,1.53,4.439,4.37,6.07,7c1.689,2.97,3.47,5.9,4.959,8.98
	c2.461,4.99,5.9,9.52,7.57,14.86c0.271,3.98,0.021,7.97,0.12,11.95c-0.05,2.59,0.271,5.32-0.88,7.75
	c-2.71,5.93-5.189,12.01-8.689,17.55c-3.721,7.49-8.78,14.24-14.061,20.7c-2.529,3.101-4.1,6.83-5.529,10.53
	c-0.75,2.359-3.33,3.21-5.261,4.369c-4.67,2.19-8.04,6.5-12.97,8.211c-5.18,1.25-10.71,0.1-15.86,1.55
	c-4.42,0.069-8.649,1.36-12.989,2.03c0.16,2.05,0.35,4.1,0.609,6.149c9.189-0.43,15.6,7.24,23.04,11.37
	c8.19,4.609,12.21,13.93,20.181,18.75h-8.181c-5.21-5.05-9.239-11.43-15.569-15.24c-6.221-3.52-11.301-8.85-18.221-11.14
	c0.71,6.569,0.78,13.19,1.15,19.78c0.65,2.14,0.699,4.38,0.81,6.6h-3.569c-0.75-8-1.25-16.01-2.221-24
	c-4.09,5.65-10.34,9.4-14.06,15.37c-1.03,3.12-2.86,5.89-4.63,8.63h-4.72c2.37-5.46,5.21-10.76,8.37-15.8
	c4.42-4.591,9.14-8.9,13.72-13.341c-0.02-2.479-0.029-4.949-0.069-7.42c-7.59-0.209-15.21,0.351-22.77-0.25
	c-7.44-3.14-15.22-5.359-22.63-8.58c-3.12-3.02-7.32-4.709-10.19-8.01c-3.98-4.66-8.76-8.58-12.54-13.43
	c-4.83-5.83-11.51-9.779-16-15.9c-2.11-2.42-5.08-4.319-6.17-7.479c-0.35-4.74-0.42-9.58,0.65-14.24c1.49-3.49,2.44-7.18,3.08-10.91
	c1.59-5.84,1.85-11.93,1.98-17.95c2.19-7.9,1.97-16.1,3.26-24.13c0.57-2.09,1.11-4.19,1.67-6.28c0.43-0.42,1.31-1.26,1.75-1.68
	c-0.05-0.55-0.14-1.65-0.18-2.2c0.57-1.34,1.09-2.69,1.55-4.07c3.31-3.1,5.07-7.46,8.6-10.37c3.44-2.85,6.68-5.96,10.34-8.54
	c3.23-0.91,6.31-2.3,9.14-4.11C51.25,6.75,60.02,4.2,68.66,1.25 M72.18,5.36c-2.75-2.8-6.55,0.69-9.63,1.3
	c-5.27,1.18-10.29,3.12-15.47,4.61c-4.33,1.5-8.27,3.94-12.7,5.16c-3.26,2.43-6.24,5.21-9.36,7.82c-2.88,2.47-4.41,6.07-7.13,8.7
	c-1.63,2.56-1.95,5.75-3.32,8.45c-3.82,8.06-2.33,17.23-4.42,25.69C8.7,73.67,9.38,80.45,7.93,87.04c-1.01,7.78-5.3,14.94-4.6,22.95
	c-0.58,4.619,4.17,6.949,6.64,10.06c4.75,6.54,12.02,10.61,16.91,17.05c3.42,4.62,8.42,7.851,11.59,12.681
	c2.67,1.319,5.4,2.979,8.51,2.569c4.64-0.42,9.17,0.891,13.44,2.61c-1.53,0.86-2.98-0.43-4.46-0.74c-3.83-1.43-7.95-1.02-11.94-1.05
	c0.73,0.8,1.51,1.55,2.33,2.25c7.01,3.471,14.74,5.15,21.79,8.52c1.48,0.851,3.23,0.58,4.86,0.641c7.61-0.09,15.23,0.1,22.85-0.08
	c8.311-2.41,17.11-1.78,25.61-3.061c5.25-1.59,8.67-6.27,13.61-8.43c1.449-0.66,2.9-1.66,3.59-3.15
	c2.13-5.719,5.34-11.289,9.84-15.42c2.96-5.26,7.38-9.68,9.45-15.42c1.659-1.92,2.79-4.199,3.6-6.59
	c1.75-2.399,2.54-5.289,3.78-7.949c4.13-6.32,1.68-14.141,2.359-21.2c-0.319-0.36-0.949-1.09-1.27-1.45
	c-1.04-3.99-3.859-7.1-5.689-10.71c-2.58-5.19-5.371-10.3-8.701-15.05c-5.709-3.49-10.1-8.66-15.039-13.1
	c-3.721-0.96-7.221-2.57-10.85-3.8c-5.391,0.08-10.561-1.69-15.801-2.71c-1.439,0.79-2.89,1.56-4.33,2.33
	c0.42-1.89,1.721-3.72,1.311-5.71c-2.221-4.68-6.74-7.84-8.65-12.7c-1.13-2.98-2.08-6.26-4.47-8.52c-2.91-3.45-7.33-5.04-10.25-8.5
	C79.97,2.91,75.61,3.02,72.18,5.36z"/>
<path fill="#FEFFFC" d="M72.18,5.36c3.43-2.34,7.79-2.45,11.77-2c2.92,3.46,7.34,5.05,10.25,8.5c2.39,2.26,3.34,5.54,4.47,8.52
	c1.91,4.86,6.43,8.02,8.65,12.7c0.41,1.99-0.891,3.82-1.311,5.71c1.44-0.77,2.891-1.54,4.33-2.33c5.24,1.02,10.41,2.79,15.801,2.71
	c3.629,1.23,7.129,2.84,10.85,3.8c4.939,4.44,9.33,9.61,15.039,13.1c3.33,4.75,6.121,9.86,8.701,15.05
	c1.83,3.61,4.649,6.72,5.689,10.71c0.32,0.36,0.95,1.09,1.27,1.45c-0.68,7.06,1.771,14.88-2.359,21.2
	c-1.24,2.66-2.03,5.55-3.78,7.949c-0.81,2.391-1.94,4.67-3.6,6.59c-2.07,5.74-6.49,10.16-9.45,15.42
	c-4.5,4.131-7.71,9.701-9.84,15.42c-0.689,1.49-2.141,2.49-3.59,3.15c-4.94,2.16-8.36,6.84-13.61,8.43
	c-8.5,1.28-17.3,0.65-25.61,3.061c-7.619,0.18-15.24-0.01-22.85,0.08c-1.63-0.061-3.38,0.21-4.86-0.641
	c-7.05-3.369-14.78-5.049-21.79-8.52c-0.82-0.7-1.6-1.45-2.33-2.25c3.99,0.03,8.11-0.38,11.94,1.05c1.48,0.311,2.93,1.601,4.46,0.74
	c-4.27-1.72-8.8-3.03-13.44-2.61c-3.11,0.41-5.84-1.25-8.51-2.569c-3.17-4.83-8.17-8.061-11.59-12.681
	c-4.89-6.439-12.16-10.51-16.91-17.05c-2.47-3.11-7.22-5.44-6.64-10.06c-0.7-8.01,3.59-15.17,4.6-22.95
	c1.45-6.59,0.77-13.37,2.22-19.95c2.09-8.46,0.6-17.63,4.42-25.69c1.37-2.7,1.69-5.89,3.32-8.45c2.72-2.63,4.25-6.23,7.13-8.7
	c3.12-2.61,6.1-5.39,9.36-7.82c4.43-1.22,8.37-3.66,12.7-5.16c5.18-1.49,10.2-3.43,15.47-4.61C65.63,6.05,69.43,2.56,72.18,5.36
	 M65.88,20.05c2.69-1.8,4.93-4.24,7.89-5.66c0.21-0.39,0.64-1.17,0.86-1.56C71.27,14.6,67.97,16.81,65.88,20.05 M74.83,17.4
	c-1.76,3.86-5.43,6.07-8.72,8.48c-2.5,0.17-5.94,2.52-7.73-0.26c0.97-0.05,2.91-0.14,3.88-0.19c2.59-1.71,5.7-2.73,7.72-5.22
	c-1.26,0.46-2.49,1.03-3.55,1.87c-2.3,1.3-4.72,2.85-7.48,2.64c-4.15,0.33-8.43-1.83-12.47-0.25c4.74,0.05,9.45,0.91,13.7,3.1
	c6.03,0.43,11.2-4.12,14.71-8.61c0.82-0.57,1.63-1.16,2.44-1.74C76.71,17.26,75.46,17.35,74.83,17.4 M93.02,17.14
	c1.041,1.93,2.48,3.69,4.791,4.09C96.779,19.32,95.26,17.54,93.02,17.14 M48.6,19.79c-1.74,1.01-4.02,1.75-4.83,3.77
	c2.53-1.51,5.07-3.53,8.22-3.06c3.79-0.54,8.4,1.39,11.53-1.41C58.59,20.06,53.56,19.34,48.6,19.79 M82.7,23.33
	c-0.9,0.64-1.82,1.26-2.76,1.85c-2.07,3.14-4.79,7.05-2.87,10.9c-0.19-4.86,1.72-9.98,6.49-11.98c1.52-0.01,3.06-0.12,4.52-0.58
	C86.29,23.33,84.5,23.31,82.7,23.33 M80.03,30.9c0.1,1.99,0,4,0.32,5.98c0.81-2.13,0.06-4.59,1.13-6.62
	c0.35,1.88,0.7,3.76,1.14,5.62l0.49,1.05c0.32,1.39,0.61,2.79,0.85,4.21c-0.28,0.17-0.85,0.52-1.13,0.7
	c0.37,1.39,1.26,1.9,2.68,1.53l0.26,0.65c3.24,0.01,6.49,0.03,9.73-0.19l-1.029-1.23c4.139-0.28,8.319-0.42,12.459-0.05
	c0.291,0.72,0.85,2.18,1.141,2.91c-3.7,0.1-7.461-0.41-11.09,0.48c-4.851,1.3-9.91,1.06-14.871,0.82c-1.85-0.81-3.22-2.36-4.73-3.64
	c-1.04,0.19-2.07,0.44-2.88,1.16c0.81,0.3,2.43,0.9,3.24,1.2c0.18,1.25,0.3,2.51,0.35,3.78c-1.34-0.26-2.71-2.34-4.08-1.14
	c-1.83,2.56,1.87,2.41,3.38,2.05l0.36,0.99c-0.8,0.12-2.39,0.36-3.19,0.48c1.52,1.66,3.32,1.06,5.05,0.33
	c-0.2-1.91-0.23-3.84-0.32-5.76c4.05,2.53,9.069,1.35,13.58,1.33c4.44-1.2,9.01-1.16,13.55-1.39c2.75,0.17,5.5,0.29,8.24,0.48
	c0.66-0.08,1.99-0.23,2.65-0.3c-0.42,1.19-1.07,2.21-2.311,2.64c-2.01,2.23-4.45,0.92-6.8,0.13c0.85,1.31,2.2,1.74,3.739,1.73
	c-1.459,1-2.92,2-4.31,3.1c-1.18,0.53-2.44,0.84-3.69,1.15c-1.229,1.2-2.35,2.69-4.289,2.63c0.14-2.13-1.851-2.14-3.32-2.53
	c-0.04,0.21-0.13,0.65-0.17,0.87c0.74,0.47,2.22,1.4,2.96,1.87c-0.72,0.33-2.16,0.98-2.88,1.3c-2.59,0.79-5.24,3.34-7.79,1.03
	c-0.61-0.06-1.841-0.18-2.46-0.24l0.029,0.38c0.83,0.51,2.5,1.52,3.34,2.03c-3.149,0.18-6.209,0.91-9.139,2.06
	c-1.47-3.96-2.91-8.04-5.31-11.53c0.45,3.61,2.38,6.83,4.29,9.86c-0.41,0.86-0.94,1.65-1.59,2.37c-0.71-0.42-2.15-1.27-2.86-1.69
	c-0.61,0.62-1.22,1.25-1.81,1.88c-0.43-0.96-0.87-1.91-1.31-2.86c-0.12,0.74-0.34,2.2-0.46,2.94c-1.01-0.67-1.96-1.42-2.86-2.22
	c-0.32,0.35-0.97,1.05-1.3,1.4l-2.25,0.51c-0.09-0.7-0.27-2.08-0.36-2.77c-1.57,2.58-3.94,2.71-6.62,1.65
	c0.52-0.5,1.56-1.51,2.07-2.02c-1.3,0.39-2.56,0.95-3.37,2.12c-0.87-0.38-1.73-0.76-2.6-1.13c-1.71,0.35-3.43,0.49-5.17,0.44
	c2.32-2.31,5.42-3.62,7.81-5.85c2.69-1.13,4.84-3.11,7.06-4.94c1.78,2.01,5.23,2.28,5.75-1.03c0.32,0.69,0.63,1.39,0.93,2.1
	c0.74-0.12,2.22-0.36,2.96-0.48c-0.48-0.25-1.43-0.74-1.9-0.98c-0.47-1.17-0.92-2.35-1.51-3.45c-1.98,0.83-1.84,3.52-3.84,4.39
	c-2.49-2.8,1.54-5.98,2.07-8.94c-1.5,1.31-2.92,2.69-4.53,3.87c0.13,0.6,0.39,1.79,0.52,2.39c-4.42,5.17-10.74,8.08-15.92,12.33
	c0.09-1.77,0.86-3.26,2.31-4.5c-0.73-0.02-2.19-0.05-2.92-0.07l1.11-1.59l0.53,0.01c0.3,0.34,0.9,1.02,1.2,1.36
	c3.73-3.04,6.63-6.88,8.98-11.06l-2.68,2.5c0.2-0.76,0.6-2.28,0.8-3.04l-0.64-0.16c-0.54,0.72-1.61,2.16-2.14,2.89
	c0.4,0.48,1.2,1.45,1.61,1.94c-0.79,0.11-2.36,0.33-3.15,0.44c0.17,0.48,0.51,1.43,0.68,1.9c-1.11,0.74-2.21,1.5-3.29,2.27
	c-0.28-0.48-0.83-1.45-1.1-1.93c1.11,0.93,3.56-0.04,3.42-1.51c-1.22-0.15-2.92,0.06-3.76,1.03l-0.51-0.05
	c-0.48-1.05-3.19-1.84-3.45-0.36c0.63,0.32,1.88,0.95,2.51,1.27c0.09,0.57,0.27,1.69,0.36,2.25c-1.8-0.71-3.79-0.38-5.67-0.55
	c-1.02-1.06-2.12-2.06-3.67-2.2c0.84,1.19,1.72,2.34,2.57,3.53c-0.11,3.01,3.81,1.38,5.69,1.92c-1.15,1.66-1.57,3.66-2.08,5.57
	c1.16,0.69,2.31,1.39,3.46,2.1l-0.07-0.9c0.83,1.85,2.77,2.76,4.74,2.56c6.82-0.27,13.6,1.77,20.36-0.12
	c-0.96,1.11-1.94,2.21-2.93,3.28c0.27,0,0.8,0,1.07,0c0.75-0.71,2.25-2.14,3-2.85c-0.12,1.98-0.16,3.96-0.08,5.94
	c0.77-1.8,1.09-3.91,2.7-5.2c1.68,0.41,3.15,2.36,5.04,1.7c2.81-0.75,5.701-1.68,8.52-0.43c1,1.11,2.14,2.12,3.66,2.43
	c-1.34-1.53-2.91-2.84-4.34-4.29c3.45-0.65,4.771,2.89,7.36,4.25c-0.871-2.14-2.75-3.54-4.381-5.08c1.69-0.28,3.37-0.59,5.051-0.86
	c0.939,1.83,1.74,3.77,3.149,5.3c-0.25-1.92-2.01-3.38-1.989-5.33c1.819-1.14,4.069-0.67,6.06-1.24c2.86-0.46,4.409-3.23,6.72-4.69
	c0.62,1.57,1.26,3.13,1.92,4.69c-0.55,0.91-1.09,1.82-1.619,2.74c-4.031,2.93-8.011,6.13-12.801,7.74
	c-2.99,0.99-5.77,2.47-8.59,3.86c-3.061,0.66-6.66,0.41-8.08-2.85c0.24,0.91,0.7,2.72,0.93,3.63c-7.71-2.41-15.46-4.67-23.15-7.18
	c2.97,2.41,6.99,2.6,10.4,4.11c3.48,1.4,7.33,1.72,10.7,3.42c2.92-0.05,5.87,0.22,8.771-0.14c3.129-1.47,6.14-3.2,9.459-4.22
	c4.5-1.15,7.73-4.77,11.851-6.73c2.271-2.57,4.431-5.28,6.69-7.88c1.34-3,3.31-5.67,4.55-8.71c-0.82,0.88-1.64,1.77-2.49,2.62
	c-1.5,3.55-3.12,7.05-6.26,9.46c-0.62-1.5-1.271-2.99-1.94-4.46c1.631-1.78,3.18-3.63,4.93-5.29l-0.859-0.97
	c0.35,0.1,1.04,0.29,1.38,0.39c2.46-3.66,5.03-7.27,8.271-10.28c1.129,1.37,2.25,2.75,3.42,4.1c2.31,4.85-0.7,9.83-0.08,14.8
	c0.83-5.17,3.689-11.21,0.209-16c-2.17-3.92-6.699-5.28-10.619-6.74c-5-0.45-10.03-0.14-15.04-0.07
	c-3.39,1.64-7.149-0.49-10.54,0.72c-0.91-0.47-1.811-0.96-2.689-1.48c0.699,0.15,2.119,0.46,2.819,0.61
	c0.61-0.68,1.21-1.35,1.81-2.03c-0.58-0.74-1.16-1.49-1.72-2.24c0.421-0.8,1.25-2.41,1.66-3.21c0.351-0.22,1.05-0.66,1.399-0.88
	l-1.51-1.96l3,1.29c-0.399-0.86-0.8-1.74-1.18-2.61c-0.939,0.51-1.88,1.01-2.82,1.51c0.92,1.9,0.59,3.8-0.959,5.25
	c-0.021-2.39,0.02-4.79-0.091-7.19c-0.95-0.52-1.89-1.05-2.829-1.59c-2.15,0.02-4.271,0.36-6.291,1.1
	c-0.05-0.47-0.14-1.41-0.18-1.88C82.32,27.94,81.07,29.34,80.03,30.9 M28.07,28.9c2.57,1.92,4.42,5.98,2.25,8.77
	c0.24,0.33,0.47,0.67,0.68,1.01c0.47-0.56,1.4-1.69,1.87-2.26c-0.02-1.41-0.05-2.82-0.08-4.23C31.32,30.96,30.2,28.95,28.07,28.9
	 M52.14,31.53c-2.52,0.26-5.06,0.51-7.37,1.62l1.66,0.44c-0.09,0.43-0.29,1.28-0.39,1.71c-1.01,0.52-2.02,1.05-3.03,1.58
	c-0.1,3.06-1.89,6.42-0.25,9.31c1.59,1.66,3.91,2.43,5.96,3.38c0.3-0.09,0.9-0.27,1.2-0.36l-0.87,2.42c1-0.48,3.01-1.45,4.01-1.93
	l-0.69-0.03c2.45-0.52,2.69-3.59,4.97-4.39c0.14-2.71-1.67-5.25-0.49-7.98c-1.42-0.4-2.85-0.81-4.26-1.25
	c-0.96-0.62-1.93-1.21-2.91-1.79c-1.27-0.1-2.53-0.46-3.47-1.37c2.41-0.19,4.82-0.28,7.22-0.38c0.66,1.28,1.23,2.59,1.73,3.94
	c0.5-0.54,1.01-1.07,1.52-1.61c-1.38-1.56-2.7-3.17-3.86-4.9C52.65,30.34,52.31,31.14,52.14,31.53 M40.37,30.96
	c-0.86,0.24-2.37,2.18-0.83,2.51C41.16,33.68,43.03,30.15,40.37,30.96 M64.66,31.55c1.76,3.63,3.98,7.13,7.44,9.36
	c-1.06-2.56-3.83-4.03-4.42-6.82C66.72,33.19,65.72,32.32,64.66,31.55 M68.19,40.2C68.77,40.71,68.77,40.71,68.19,40.2 M36.98,41.88
	c-1.28,1.13-2.14,2.65-3.13,4.02c1.44-0.6,2.84-1.29,4.29-1.87c0.49-0.51,1.48-1.521,1.97-2.03C39.07,41.91,38.03,41.81,36.98,41.88
	 M60.44,43.42c-0.93,0.66-1.99,2.13-1.34,3.28C60.58,47.31,62.14,43.71,60.44,43.42 M70.7,47.14c1.59,0.42,2.18-0.16,1.77-1.75
	C70.83,44.99,70.24,45.57,70.7,47.14 M43.33,51.48c1.27-0.31,0.42-2.21-0.07-2.89C40.44,45.96,41.36,50.97,43.33,51.48 M44.73,49.18
	c-0.26,1.34,0.33,1.87,1.77,1.58C46.73,49.42,46.14,48.89,44.73,49.18 M106.57,51.13C106.85,54.32,109.74,49.6,106.57,51.13
	 M17.13,57.97c2.77-1.75,5.18-3.99,7.73-6.03C21.73,52.96,18.69,55,17.13,57.97 M99.18,53.76c0.631,0.24,1.271,0.49,1.91,0.74
	c0.62-0.65,1.24-1.3,1.9-1.92c0.449,0.46,1.359,1.38,1.81,1.85c-0.21-0.68-0.64-2.02-0.85-2.69
	C102.29,52.24,100.67,52.86,99.18,53.76 M79.48,55.98c-0.61,1.5,1.49,3.31,2.92,2.77C82.75,57.45,80.8,55.36,79.48,55.98
	 M91.26,57.68c1.16,0.68,2.33,0.69,3.5,0.02C94.83,56.29,91.23,56.28,91.26,57.68 M89.641,58.35
	C90.23,58.95,90.23,58.95,89.641,58.35 M39.69,62.78c-1.43,3.26-2.16,6.78-3.44,10.1c0.96,3.4,4.31,6.74,7.9,7.05
	c-0.88-0.66-1.78-1.29-2.71-1.88c-1.88-1.16-3.52-2.64-4.51-4.65C38.35,70.01,39.63,66.49,39.69,62.78 M115.811,72.72
	c-2.4,4.29-7.811,3.44-11.891,4.61c-0.15,0.35-0.43,1.04-0.57,1.38c3.41-1.17,6.99-1.74,10.471-2.67l-0.11,0.99
	c-2.431,1.92-3.19,5.24-2.229,8.13c-0.801,1.18-0.971,2.48-0.51,3.89c0.27,1.74,2.729,0.91,1.979-0.62
	c-0.021-3.05,0.2-6.09,0.53-9.11c0.84-2.72,1.609-5.66,4.09-7.37c2.51-1.58,3.18-4.52,4.869-6.76c0.061-0.68,0.17-2.04,0.221-2.72
	C120.9,66.23,119.061,69.99,115.811,72.72 M43.8,65.16c0.43,2.18,0.95,4.34,1.51,6.49c0.15-0.6,0.46-1.79,0.61-2.39
	c0.42,0.17,1.27,0.51,1.69,0.68c-2.77,1.3,0.06,5.07,0.21,7.24c-0.8-0.53-2.39-1.59-3.19-2.12c1.56,2.35,4.64,3.17,5.88,5.82
	c0.01,2.76-0.62,5.76,1.11,8.17c0.3,2.66-0.44,5.55,0.72,8.05c0.15-2.77-0.2-5.52-0.36-8.28c-1.35-2.34-1.32-5.03-1.25-7.64
	c0.62,0.45,1.86,1.37,2.48,1.83c-0.81-1.25-1.75-2.42-2.43-3.74c-0.18-1.07-0.36-2.13-0.55-3.19c-1.67-1.46-3.02-3.41-2.34-5.75
	c2.22,3.17,5.89,4.59,9.32,6.02c0.63-0.02,1.25-0.09,1.87-0.21c-2.36-0.74-4.6-1.78-6.77-2.96c-1.3-1.34-2.77-2.51-4.41-3.39
	C48.52,67.17,45.72,65.98,43.8,65.16 M11.27,69.43c0.65,1.7,1.05,3.49,0.94,5.32c0.45,0.44,1.34,1.31,1.79,1.75
	c-0.84,0.33-2.54,0.99-3.38,1.31c1.44-0.06,2.87-0.18,4.3-0.36l-0.61,1.18c1.82,0.85,3.6,1.83,5.13,3.15
	c0.64-0.05,1.92-0.16,2.56-0.21c-2.63-2.82-6.74-3.88-8.35-7.69C13.12,72.27,13.12,70.12,11.27,69.43 M112.16,71.89
	C110.59,74.93,115.439,72.1,112.16,71.89 M121.471,72.18c-1.07,0.44-2.421,1.61-1.941,2.89C121.18,76.38,124.67,71.61,121.471,72.18
	 M142.37,73.04c0.03,0.76,0.11,2.29,0.149,3.05c-3.729,7.01-9.22,13.07-11.68,20.73c-1.88,6.4-5.64,12.27-6.51,18.93
	c0.26-0.02,0.76-0.05,1.01-0.061c0.54-5.75,3.35-11.08,5.59-16.359c1.41-6.27,5.041-11.68,8.61-16.91c1.79-2.83,3.87-5.69,4.08-9.15
	C143.311,73.21,142.68,73.1,142.37,73.04 M12.22,81.81l-0.17,0.75c3.65,0.04,5.69,2.75,7.03,5.79c0.11-1.36,0.29-2.7,0.53-4.04
	c-0.38-0.35-1.15-1.06-1.53-1.41C16.04,83.55,14.16,82.18,12.22,81.81 M56.62,81.88c0.56,1.87,2.48,2.5,3.98,3.41
	c2.75,1.4,5.62,2.64,8.62,3.43c1.22-0.43,2.46-0.83,3.71-1.18l0.02-0.62C67.01,89.22,61.46,84.86,56.62,81.88 M126.391,82.07
	C126.5,85.4,129.4,80.57,126.391,82.07 M24.54,88.11c0.36,0.56,0.71,1.12,1.06,1.68c-0.57-1.83-0.13-2.76,1.34-2.78
	c1.66,2.35,0.27,5.31,0.1,7.9h0.73c0.53-3.06,1.28-6.28,0.64-9.36l-0.66-0.45l-0.73-0.58l0.03-1.61
	C26.14,84.61,25.31,86.35,24.54,88.11 M163.18,84.52c0.15,2.57,0.791,5.09,1.48,7.57C165,89.52,164.66,86.69,163.18,84.52
	 M126.08,89.26C124.48,92.26,129.37,89.51,126.08,89.26 M9.9,97.99c1.48,0.72,4.71-1.97,3.28-3.25C11.88,95.26,9.59,96.33,9.9,97.99
	 M103.08,95.37C101.55,98.37,106.4,95.51,103.08,95.37 M81.12,96.06c-0.5,1.63,0.05,2.18,1.68,1.65
	C83.31,96.08,82.75,95.53,81.12,96.06 M11.72,101.99c-1.72,1.38-4.01,2.51-4.38,4.92c2.82-3.721,7.53-5.47,9.98-9.47
	C14.92,98.25,13.74,100.63,11.72,101.99 M47.85,98.91c0.74,3.23,3.87,4.89,5.54,7.55c4.55,8.14,9.93,15.95,16.45,22.63
	c-4.57-6.75-10.34-12.73-14.12-20.029C53.85,105.13,50.39,102.37,47.85,98.91 M52.57,101.39c-0.49,1.31-0.01,1.78,1.43,1.41
	C54.52,101.49,54.04,101.02,52.57,101.39 M78.34,103C78.63,106.32,81.25,101.33,78.34,103 M136.221,104.311
	C136.77,104.87,136.77,104.87,136.221,104.311 M10.15,116.3c2.17-1.54,3.56-3.899,5.73-5.43c1.92-1.41,4.09-2.74,4.99-5.07
	C16.98,108.92,12.76,111.93,10.15,116.3 M28.86,107.58c0.77,1.79,1.79,3.47,2.38,5.33c0.53,3.609-0.37,7.17-0.92,10.71
	c0.25,0,0.76,0.01,1.01,0.01c0.12-1.53,0.21-3.069,0.67-4.54C32.32,115.22,32.59,109.96,28.86,107.58 M118.09,108.25
	C116.58,111.25,121.42,108.37,118.09,108.25 M28.82,115.939c-0.9,5.42-2.71,11.811,0.53,16.771c2.67,2.931,5.73,5.58,8.98,7.86
	c-1.89-3.36-5.71-4.971-8.14-7.851c-2.34-2.7-1.6-6.409-1.6-9.68C28.66,120.68,29.94,118.23,28.82,115.939 M89.1,116.18
	c-0.43,1.42,0.051,1.881,1.44,1.4C90.98,116.16,90.5,115.7,89.1,116.18 M67.28,118.2C67.82,118.78,67.82,118.78,67.28,118.2
	 M83.38,118.3c-0.06,0.271-0.17,0.79-0.22,1.06c2.93-0.01,5.6,1.19,8.27,2.261C89.32,119.391,86.23,118.93,83.38,118.3
	 M101.641,124.49c-0.07,0.55-0.19,1.66-0.25,2.21c0.26,0.069,0.779,0.21,1.039,0.28c0.051-0.65,0.15-1.971,0.2-2.631
	c1.021-0.74,1.88-1.609,2.591-2.63C103.93,122.5,102.79,123.51,101.641,124.49 M36.16,133.87c2.98,3.94,7.75,5.71,11.35,8.94
	c0.05-0.24,0.17-0.721,0.22-0.971c-5.69-4.04-12.94-7.71-14.72-15.07C31.88,129.57,34.72,131.79,36.16,133.87 M101.279,129.609
	c1.08,5.051,2.711,10.08,1.691,15.341c-0.32,0.34-0.961,1.01-1.281,1.35c-0.029,4.38-3.549,7.57-4.52,11.72
	c2.7-2.279,3.23-5.949,4.83-8.939C104.84,142.939,104.6,135.51,101.279,129.609 M53.11,131.23
	C53.69,131.72,53.69,131.72,53.11,131.23 M43.65,144.189c2.13,2.36,4.94,3.951,7.52,5.761c0.58,0.61,1.41,0.21,2.11,0.22
	C49.81,148.59,46.98,145.98,43.65,144.189 M121.5,157.34c-4.98-0.72-9.59,1.66-14.51,1.45c-0.811-0.53-1.61-1.05-2.41-1.57
	c-0.1,0.32-0.29,0.97-0.38,1.29c2.5,0.87,5.239,1.631,7.85,0.67c3-1.189,6.229-0.88,9.37-1.109c2.301-1.58,4.04-3.881,5.78-6.04
	C125.061,153.53,123.29,155.46,121.5,157.34 M70.24,156.23c-0.01,0.27-0.04,0.81-0.05,1.09c2.25,1.289,4.62,2.34,7,3.39
	c5.16,0.229,10.47,0.62,15.47-0.979c-0.29-0.53-0.58-1.041-0.891-1.551l-0.189,1.26C84.39,160.73,76.28,161.04,70.24,156.23z"/>
<path fill="#000200" d="M65.88,20.05c2.09-3.24,5.39-5.45,8.75-7.22c-0.22,0.39-0.65,1.17-0.86,1.56
	C70.81,15.81,68.57,18.25,65.88,20.05z"/>
<path fill="#060814" d="M74.83,17.4c0.63-0.05,1.88-0.14,2.5-0.18c-0.81,0.58-1.62,1.17-2.44,1.74c-3.51,4.49-8.68,9.04-14.71,8.61
	c-4.25-2.19-8.96-3.05-13.7-3.1c4.04-1.58,8.32,0.58,12.47,0.25c2.76,0.21,5.18-1.34,7.48-2.64c1.06-0.84,2.29-1.41,3.55-1.87
	c-2.02,2.49-5.13,3.51-7.72,5.22c-0.97,0.05-2.91,0.14-3.88,0.19c1.79,2.78,5.23,0.43,7.73,0.26C69.4,23.47,73.07,21.26,74.83,17.4z
	"/>
<path fill="#000200" d="M93.02,17.14c2.24,0.4,3.76,2.18,4.791,4.09C95.5,20.83,94.061,19.07,93.02,17.14z"/>
<path fill="#000200" d="M48.6,19.79c4.96-0.45,9.99,0.27,14.92-0.7c-3.13,2.8-7.74,0.87-11.53,1.41c-3.15-0.47-5.69,1.55-8.22,3.06
	C44.58,21.54,46.86,20.8,48.6,19.79z"/>
<path fill="#030006" d="M82.7,23.33c1.8-0.02,3.59,0,5.38,0.19c-1.46,0.46-3,0.57-4.52,0.58c-4.77,2-6.68,7.12-6.49,11.98
	c-1.92-3.85,0.8-7.76,2.87-10.9C80.88,24.59,81.8,23.97,82.7,23.33z"/>
<path fill="#030006" d="M80.03,30.9c1.04-1.56,2.29-2.96,3.72-4.18c-0.79,1.16-1.55,2.34-2.27,3.54c-1.07,2.03-0.32,4.49-1.13,6.62
	C80.03,34.9,80.13,32.89,80.03,30.9z"/>
<path fill="#808181" d="M83.75,26.72c0.04,0.47,0.13,1.41,0.18,1.88c-0.83,2.34-1.8,4.74-1.31,7.28c-0.44-1.86-0.79-3.74-1.14-5.62
	C82.2,29.06,82.96,27.88,83.75,26.72z"/>
<path fill="#030006" d="M83.93,28.6c2.02-0.74,4.14-1.08,6.291-1.1c0.939,0.54,1.879,1.07,2.829,1.59c0.11,2.4,0.07,4.8,0.091,7.19
	c1.549-1.45,1.879-3.35,0.959-5.25c0.94-0.5,1.881-1,2.82-1.51c0.38,0.87,0.78,1.75,1.18,2.61l-3-1.29l1.51,1.96
	c-0.35,0.22-1.049,0.66-1.399,0.88c-0.41,0.8-1.239,2.41-1.66,3.21c0.56,0.75,1.14,1.5,1.72,2.24c-0.6,0.68-1.199,1.35-1.81,2.03
	c-0.7-0.15-2.12-0.46-2.819-0.61c-0.881-0.26-1.75-0.51-2.621-0.77c0.291,0.6,0.881,1.8,1.181,2.4c-1.341-0.78-2.66-1.68-4.26-1.76
	c-0.62-1.16-1.24-2.32-1.83-3.49l-0.49-1.05C82.13,33.34,83.1,30.94,83.93,28.6 M84.98,32.29c0.33,1.91,1.331,3.62,2.17,5.35
	c0.699-0.01,2.1-0.04,2.8-0.05c0.43,1.18,1.159,1.86,2.21,2.04c0-0.09,0.02-0.25,0.02-0.33c-0.699-1.22-1.5-2.38-2-3.7l-1.02,0.09
	l0.76-1.73c-0.439,0.27-1.33,0.82-1.77,1.1c-2.25-1.99,0.539-3.79,2.629-2.88C89.939,29,86.609,30.97,84.98,32.29z"/>
<path fill="#000200" d="M28.07,28.9c2.13,0.05,3.25,2.06,4.72,3.29c0.03,1.41,0.06,2.82,0.08,4.23c-0.47,0.57-1.4,1.7-1.87,2.26
	c-0.21-0.34-0.44-0.68-0.68-1.01C32.49,34.88,30.64,30.82,28.07,28.9z"/>
<path fill="#000200" d="M52.14,31.53c0.17-0.39,0.51-1.19,0.68-1.59c1.16,1.73,2.48,3.34,3.86,4.9c-0.51,0.54-1.02,1.07-1.52,1.61
	c-0.5-1.35-1.07-2.66-1.73-3.94c-2.4,0.1-4.81,0.19-7.22,0.38c0.94,0.91,2.2,1.27,3.47,1.37c0.98,0.58,1.95,1.17,2.91,1.79
	c1.41,0.44,2.84,0.85,4.26,1.25c-1.18,2.73,0.63,5.27,0.49,7.98c-2.28,0.8-2.52,3.87-4.97,4.39l-1.71-0.07
	c1-1.05,2.01-2.09,3.03-3.12c-0.1-0.43-0.3-1.27-0.4-1.7c0.2-1.49,0.39-2.99,0.36-4.5c-1.59-1.38-3.49-2.36-5.23-3.53
	c-1.08,1-2.15,2.01-3.2,3.04c0.65,0.38,1.95,1.15,2.6,1.53c0.01,0.4,0.03,1.21,0.04,1.61c-0.14,1.24-0.34,2.48-0.53,3.72
	c0.35,0.73,1.04,2.19,1.39,2.92c-2.05-0.95-4.37-1.72-5.96-3.38c-1.64-2.89,0.15-6.25,0.25-9.31c1.01-0.53,2.02-1.06,3.03-1.58
	c0.1-0.43,0.3-1.28,0.39-1.71l-1.66-0.44C47.08,32.04,49.62,31.79,52.14,31.53z"/>
<path fill="#F9FFFA" d="M84.98,32.29c1.629-1.32,4.959-3.29,5.799-0.11c-2.09-0.91-4.879,0.89-2.629,2.88
	c0.439-0.28,1.33-0.83,1.77-1.1l-0.76,1.73l1.02-0.09c0.5,1.32,1.301,2.48,2,3.7l-0.02,0.33c-1.051-0.18-1.78-0.86-2.21-2.04
	c-0.7,0.01-2.101,0.04-2.8,0.05C86.311,35.91,85.31,34.2,84.98,32.29z"/>
<path fill="#000200" d="M40.37,30.96c2.66-0.81,0.79,2.72-0.83,2.51C38,33.14,39.51,31.2,40.37,30.96z"/>
<path fill="#000200" d="M64.66,31.55c1.06,0.77,2.06,1.64,3.02,2.54c0.59,2.79,3.36,4.26,4.42,6.82
	C68.64,38.68,66.42,35.18,64.66,31.55z"/>
<path fill="#FEFFFC" d="M45.22,39.79c1.05-1.03,2.12-2.04,3.2-3.04c1.74,1.17,3.64,2.15,5.23,3.53c0.03,1.51-0.16,3.01-0.36,4.5
	c-1.75,0.01-3.5,0.03-5.26-0.01c-0.04-0.46-0.13-1.38-0.17-1.84c-0.01-0.4-0.03-1.21-0.04-1.61C47.17,40.94,45.87,40.17,45.22,39.79
	 M51.06,43.96c1.77,0.5,2.56-2.32,0.71-2.71C50.06,40.75,49.23,43.61,51.06,43.96z"/>
<path fill="#898B86" d="M83.11,36.93c0.59,1.17,1.21,2.33,1.83,3.49c1.6,0.08,2.919,0.98,4.26,1.76c-0.3-0.6-0.89-1.8-1.181-2.4
	c0.871,0.26,1.74,0.51,2.621,0.77c0.879,0.52,1.779,1.01,2.689,1.48c0.29,0.15,0.859,0.43,1.141,0.57l1.029,1.23
	c-3.24,0.22-6.49,0.2-9.73,0.19l-0.26-0.65c-0.3-0.9-0.82-1.64-1.55-2.23C83.72,39.72,83.43,38.32,83.11,36.93z"/>
<path fill="#3E66E4" d="M92.18,39.3c0,0.08-0.02,0.24-0.02,0.33L92.18,39.3z"/>
<path fill="#939491" d="M68.19,40.2C68.77,40.71,68.77,40.71,68.19,40.2z"/>
<path fill="#060814" d="M36.98,41.88c1.05-0.07,2.09,0.03,3.13,0.12c-0.49,0.51-1.48,1.52-1.97,2.03c-1.45,0.58-2.85,1.27-4.29,1.87
	C34.84,44.53,35.7,43.01,36.98,41.88z"/>
<path fill="#000200" d="M51.06,43.96c-1.83-0.35-1-3.21,0.71-2.71C53.62,41.64,52.83,44.46,51.06,43.96z"/>
<path fill="#060814" d="M82.83,41.84c0.28-0.18,0.85-0.53,1.13-0.7c0.73,0.59,1.25,1.33,1.55,2.23
	C84.09,43.74,83.2,43.23,82.83,41.84z"/>
<path fill="#060814" d="M93.33,42.03c3.391-1.21,7.15,0.92,10.54-0.72c5.01-0.07,10.04-0.38,15.04,0.07
	c3.92,1.46,8.449,2.82,10.619,6.74c3.48,4.79,0.621,10.83-0.209,16c-0.62-4.97,2.39-9.95,0.08-14.8c-1.17-1.35-2.291-2.73-3.42-4.1
	c-3.24,3.01-5.811,6.62-8.271,10.28c-0.34-0.1-1.03-0.29-1.38-0.39c-0.13-0.05-0.4-0.16-0.53-0.22c0.3-1.76,0.601-3.52,0.9-5.27
	c-0.421-0.16-1.271-0.49-1.7-0.65c1.24-0.43,1.891-1.45,2.311-2.64c-0.66,0.07-1.99,0.22-2.65,0.3l0.97-1.1
	c2.66,0.09,5.341-0.07,7.729-1.37c-4.779-3.4-10.83-1.97-16.27-2.23c0.301,0.72,0.891,2.16,1.189,2.88
	c2.08,0.15,4.16,0.36,6.23,0.68c-2.699,0.11-5.41,0.3-8.09,0.66c-4.54,0.23-9.109,0.19-13.55,1.39c-4.511,0.02-9.53,1.2-13.58-1.33
	c0.09,1.92,0.12,3.85,0.32,5.76c-1.73,0.73-3.53,1.33-5.05-0.33c0.8-0.12,2.39-0.36,3.19-0.48l-0.36-0.99
	c-1.51,0.36-5.21,0.51-3.38-2.05c1.37-1.2,2.74,0.88,4.08,1.14c-0.05-1.27-0.17-2.53-0.35-3.78c-0.81-0.3-2.43-0.9-3.24-1.2
	c0.81-0.72,1.84-0.97,2.88-1.16c1.51,1.28,2.88,2.83,4.73,3.64c4.96,0.24,10.02,0.48,14.871-0.82c3.629-0.89,7.39-0.38,11.09-0.48
	c-0.291-0.73-0.85-2.19-1.141-2.91c-4.14-0.37-8.32-0.23-12.459,0.05C94.189,42.46,93.62,42.18,93.33,42.03z"/>
<path fill="#F9FFFA" d="M107.09,41.93c5.439,0.26,11.49-1.17,16.27,2.23c-2.389,1.3-5.069,1.46-7.729,1.37l-1.12-0.04
	c-2.07-0.32-4.15-0.53-6.23-0.68C107.98,44.09,107.391,42.65,107.09,41.93z"/>
<path fill="#3E66E4" d="M47.33,46.65c0.19-1.24,0.39-2.48,0.53-3.72c0.04,0.46,0.13,1.38,0.17,1.84c1.76,0.04,3.51,0.02,5.26,0.01
	c0.1,0.43,0.3,1.27,0.4,1.7c-1.02,1.03-2.03,2.07-3.03,3.12l1.71,0.07l0.69,0.03c-1,0.48-3.01,1.45-4.01,1.93l0.87-2.42
	c-0.3,0.09-0.9,0.27-1.2,0.36C48.37,48.84,47.68,47.38,47.33,46.65z"/>
<path fill="#000200" d="M60.44,43.42c1.7,0.29,0.14,3.89-1.34,3.28C58.45,45.55,59.51,44.08,60.44,43.42z"/>
<path fill="#000200" d="M63.51,48.12c1.61-1.18,3.03-2.56,4.53-3.87c-0.53,2.96-4.56,6.14-2.07,8.94c2-0.87,1.86-3.56,3.84-4.39
	c0.59,1.1,1.04,2.28,1.51,3.45c0.47,0.24,1.42,0.73,1.9,0.98c-0.74,0.12-2.22,0.36-2.96,0.48c-0.3-0.71-0.61-1.41-0.93-2.1
	c-0.52,3.31-3.97,3.04-5.75,1.03c-2.22,1.83-4.37,3.81-7.06,4.94c-2.39,2.23-5.49,3.54-7.81,5.85c1.74,0.05,3.46-0.09,5.17-0.44
	c0.87,0.37,1.73,0.75,2.6,1.13c0.81-1.17,2.07-1.73,3.37-2.12c-0.51,0.51-1.55,1.52-2.07,2.02c2.68,1.06,5.05,0.93,6.62-1.65
	c0.09,0.69,0.27,2.07,0.36,2.77l2.25-0.51c0.33-0.35,0.98-1.05,1.3-1.4c0.9,0.8,1.85,1.55,2.86,2.22c0.12-0.74,0.34-2.2,0.46-2.94
	c0.44,0.95,0.88,1.9,1.31,2.86c0.59-0.63,1.2-1.26,1.81-1.88c0.71,0.42,2.15,1.27,2.86,1.69c0.65-0.72,1.18-1.51,1.59-2.37
	c-1.91-3.03-3.84-6.25-4.29-9.86c2.4,3.49,3.84,7.57,5.31,11.53c2.93-1.15,5.99-1.88,9.139-2.06c-0.84-0.51-2.51-1.52-3.34-2.03
	l-0.029-0.38c0.619,0.06,1.85,0.18,2.46,0.24c2.55,2.31,5.2-0.24,7.79-1.03c0.72-0.32,2.16-0.97,2.88-1.3
	c-0.74-0.47-2.22-1.4-2.96-1.87c0.04-0.22,0.13-0.66,0.17-0.87c1.47,0.39,3.46,0.4,3.32,2.53c1.939,0.06,3.06-1.43,4.289-2.63
	c1.25-0.31,2.511-0.62,3.69-1.15c1.39-1.1,2.851-2.1,4.31-3.1c-1.539,0.01-2.89-0.42-3.739-1.73c2.35,0.79,4.79,2.1,6.8-0.13
	c0.43,0.16,1.279,0.49,1.7,0.65c-0.3,1.75-0.601,3.51-0.9,5.27c0.13,0.06,0.4,0.17,0.53,0.22l0.859,0.97
	c-1.75,1.66-3.299,3.51-4.93,5.29c0.67,1.47,1.32,2.96,1.94,4.46c3.14-2.41,4.76-5.91,6.26-9.46c0.851-0.85,1.67-1.74,2.49-2.62
	c-1.24,3.04-3.21,5.71-4.55,8.71c-2.26,2.6-4.42,5.31-6.69,7.88c-4.12,1.96-7.351,5.58-11.851,6.73
	c-3.319,1.02-6.33,2.75-9.459,4.22c-2.9,0.36-5.851,0.09-8.771,0.14c-3.37-1.7-7.22-2.02-10.7-3.42c-3.41-1.51-7.43-1.7-10.4-4.11
	c7.69,2.51,15.44,4.77,23.15,7.18c-0.23-0.91-0.69-2.72-0.93-3.63c1.42,3.26,5.02,3.51,8.08,2.85c2.82-1.39,5.6-2.87,8.59-3.86
	c4.79-1.61,8.77-4.81,12.801-7.74c0.529-0.92,1.069-1.83,1.619-2.74c-0.66-1.56-1.3-3.12-1.92-4.69
	c-2.311,1.46-3.859,4.23-6.72,4.69c-1.99,0.57-4.24,0.1-6.06,1.24c-0.021,1.95,1.739,3.41,1.989,5.33
	c-1.409-1.53-2.21-3.47-3.149-5.3c-1.681,0.27-3.36,0.58-5.051,0.86c1.631,1.54,3.51,2.94,4.381,5.08c-2.59-1.36-3.91-4.9-7.36-4.25
	c1.43,1.45,3,2.76,4.34,4.29c-1.521-0.31-2.66-1.32-3.66-2.43c-2.819-1.25-5.71-0.32-8.52,0.43c-1.89,0.66-3.36-1.29-5.04-1.7
	c-1.61,1.29-1.93,3.4-2.7,5.2c-0.08-1.98-0.04-3.96,0.08-5.94c-0.75,0.71-2.25,2.14-3,2.85c-0.27,0-0.8,0-1.07,0
	c0.99-1.07,1.97-2.17,2.93-3.28c-6.76,1.89-13.54-0.15-20.36,0.12c-1.97,0.2-3.91-0.71-4.74-2.56c-0.08-1.02-0.14-2.04-0.1-3.06
	c5.18-4.25,11.5-7.16,15.92-12.33C63.9,49.91,63.64,48.72,63.51,48.12 M112.98,56.3c1.66-0.09,1.81-3.03,0.109-3.18
	C111.391,53.2,111.311,56.09,112.98,56.3 M106.33,58.17c-1.02,0.33-1.99,0.76-2.92,1.3L103.1,60.1c-1.83,1.18-3.75,2.21-5.57,3.42
	c-1.569-0.23-3.01,0.37-4.239,1.28c1.95-0.33,3.89-0.74,5.86-1.04c0.34-0.38,1.02-1.14,1.359-1.52c1.27,1.25,3.061,1.69,4.28,0.13
	c-0.16-0.56-0.47-1.67-0.63-2.22c1.09-0.23,1.63,1.25,2.449,1.78c0.42-0.53,1.25-1.61,1.66-2.14c1.78,0.15,2.61-1.54,3.67-2.63
	c-0.279-0.44-0.84-1.32-1.129-1.77C109.21,56.16,108.05,57.66,106.33,58.17 M78.87,67.37c0.89,0.37,1.79,0.74,2.69,1.11
	c3.47-2.33,7.911-1.24,11.54-3.25C88.189,64.95,83.68,66.99,78.87,67.37z"/>
<path fill="#000200" d="M70.7,47.14c-0.46-1.57,0.13-2.15,1.77-1.75C72.88,46.98,72.29,47.56,70.7,47.14z"/>
<path fill="#3E66E4" d="M114.51,45.49l1.12,0.04l-0.97,1.1c-2.74-0.19-5.49-0.31-8.24-0.48C109.1,45.79,111.811,45.6,114.51,45.49z"
	/>
<path fill="#030006" d="M56.8,46.29l0.64,0.16c-0.2,0.76-0.6,2.28-0.8,3.04l2.68-2.5c-2.35,4.18-5.25,8.02-8.98,11.06
	c-0.3-0.34-0.9-1.02-1.2-1.36c0.46-0.31,0.91-0.63,1.37-0.96c1.08-0.77,2.18-1.53,3.29-2.27c-0.17-0.47-0.51-1.42-0.68-1.9
	c0.79-0.11,2.36-0.33,3.15-0.44c-0.41-0.49-1.21-1.46-1.61-1.94C55.19,48.45,56.26,47.01,56.8,46.29z"/>
<path fill="#000200" d="M43.33,51.48c-1.97-0.51-2.89-5.52-0.07-2.89C43.75,49.27,44.6,51.17,43.33,51.48z"/>
<path fill="#060814" d="M44.73,49.18c1.41-0.29,2,0.24,1.77,1.58C45.06,51.05,44.47,50.52,44.73,49.18z"/>
<path fill="#4C4D53" d="M106.57,51.13C109.74,49.6,106.85,54.32,106.57,51.13z"/>
<path fill="#000200" d="M17.13,57.97c1.56-2.97,4.6-5.01,7.73-6.03C22.31,53.98,19.9,56.22,17.13,57.97z"/>
<path fill="#060814" d="M45.11,52.91c0.26-1.48,2.97-0.69,3.45,0.36c-0.23,0.23-0.7,0.69-0.94,0.91
	C46.99,53.86,45.74,53.23,45.11,52.91z"/>
<path fill="#000200" d="M49.07,53.32c0.84-0.97,2.54-1.18,3.76-1.03c0.14,1.47-2.31,2.44-3.42,1.51L49.07,53.32z"/>
<path fill="#000200" d="M99.18,53.76c1.49-0.9,3.11-1.52,4.771-2.02c0.21,0.67,0.64,2.01,0.85,2.69c-0.45-0.47-1.36-1.39-1.81-1.85
	c-0.66,0.62-1.28,1.27-1.9,1.92C100.45,54.25,99.811,54,99.18,53.76z"/>
<path fill="#3E66E4" d="M48.56,53.27l0.51,0.05l0.34,0.48c0.27,0.48,0.82,1.45,1.1,1.93c-0.46,0.33-0.91,0.65-1.37,0.96l-0.53-0.01
	l-0.63-0.25c-0.09-0.56-0.27-1.68-0.36-2.25C47.86,53.96,48.33,53.5,48.56,53.27z"/>
<path fill="#FFFFFF" d="M112.98,56.3c-1.67-0.21-1.59-3.1,0.109-3.18C114.79,53.27,114.641,56.21,112.98,56.3z"/>
<path fill="#606360" d="M38.64,53.68c1.55,0.14,2.65,1.14,3.67,2.2c1.88,0.17,3.87-0.16,5.67,0.55l0.63,0.25
	c-2.46,0.25-4.93,0.42-7.4,0.53C40.36,56.02,39.48,54.87,38.64,53.68z"/>
<path fill="#FEFFFC" d="M106.33,58.17c1.72-0.51,2.88-2.01,4.48-2.78c0.289,0.45,0.85,1.33,1.129,1.77
	c-1.06,1.09-1.89,2.78-3.67,2.63c-0.41,0.53-1.24,1.61-1.66,2.14c-0.819-0.53-1.359-2.01-2.449-1.78c0.16,0.55,0.47,1.66,0.63,2.22
	c-1.22,1.56-3.011,1.12-4.28-0.13c-0.34,0.38-1.02,1.14-1.359,1.52c-1.971,0.3-3.91,0.71-5.86,1.04c1.229-0.91,2.67-1.51,4.239-1.28
	c1.82-1.21,3.74-2.24,5.57-3.42l0.311-0.63C104.34,58.93,105.311,58.5,106.33,58.17z"/>
<path fill="#000200" d="M79.48,55.98c1.32-0.62,3.27,1.47,2.92,2.77C80.97,59.29,78.87,57.48,79.48,55.98z"/>
<path fill="#8C8F94" d="M41.21,57.21c2.47-0.11,4.94-0.28,7.4-0.53l-1.11,1.59c-0.15,0.21-0.45,0.64-0.6,0.86
	C45.02,58.59,41.1,60.22,41.21,57.21z"/>
<path fill="#4C4D4A" d="M91.26,57.68c-0.029-1.4,3.57-1.39,3.5,0.02C93.59,58.37,92.42,58.36,91.26,57.68z"/>
<path fill="#4B5487" d="M46.9,59.13c0.15-0.22,0.45-0.65,0.6-0.86c0.73,0.02,2.19,0.05,2.92,0.07c-1.45,1.24-2.22,2.73-2.31,4.5
	c-0.04,1.02,0.02,2.04,0.1,3.06l0.07,0.9c-1.15-0.71-2.3-1.41-3.46-2.1C45.33,62.79,45.75,60.79,46.9,59.13z"/>
<path fill="#60615F" d="M89.641,58.35C90.23,58.95,90.23,58.95,89.641,58.35z"/>
<path fill="#000200" d="M39.69,62.78c-0.06,3.71-1.34,7.229-2.76,10.62c0.99,2.01,2.63,3.49,4.51,4.65
	c0.93,0.59,1.83,1.22,2.71,1.88c-3.59-0.31-6.94-3.65-7.9-7.05C37.53,69.56,38.26,66.04,39.69,62.78z"/>
<path fill="#060814" d="M115.811,72.72c3.25-2.729,5.09-6.49,6.85-10.25c-0.051,0.68-0.16,2.04-0.221,2.72
	c-1.689,2.24-2.359,5.18-4.869,6.76c-2.48,1.71-3.25,4.65-4.09,7.37c0.06-0.58,0.17-1.72,0.229-2.29l0.11-0.99
	c-3.48,0.93-7.061,1.5-10.471,2.67c0.141-0.34,0.42-1.03,0.57-1.38C108,76.16,113.41,77.01,115.811,72.72z"/>
<path fill="#FEFFFC" d="M78.87,67.37c4.81-0.38,9.319-2.42,14.229-2.14c-3.629,2.01-8.07,0.92-11.54,3.25
	C80.66,68.11,79.76,67.74,78.87,67.37z"/>
<path fill="#7986BC" d="M43.8,65.16c1.92,0.82,4.72,2.01,4.1,4.63l-0.29,0.15c-0.42-0.17-1.27-0.51-1.69-0.68
	c-0.15,0.6-0.46,1.79-0.61,2.39C44.75,69.5,44.23,67.34,43.8,65.16z"/>
<path fill="#000200" d="M11.27,69.43c1.85,0.69,1.85,2.84,2.38,4.45c1.61,3.81,5.72,4.87,8.35,7.69c-0.64,0.05-1.92,0.16-2.56,0.21
	c-1.53-1.32-3.31-2.3-5.13-3.15l0.61-1.18c-1.43,0.18-2.86,0.3-4.3,0.36c0.84-0.32,2.54-0.98,3.38-1.31
	c-0.45-0.44-1.34-1.31-1.79-1.75C12.32,72.92,11.92,71.13,11.27,69.43z"/>
<path fill="#3E66E4" d="M47.61,69.94l0.29-0.15l-0.01,0.54c-0.68,2.34,0.67,4.29,2.34,5.75c0.19,1.06,0.37,2.12,0.55,3.19
	c-0.41-1.81-1.04-3.71-2.95-2.06l-0.01-0.03C47.67,75.01,44.84,71.24,47.61,69.94z"/>
<path fill="#030006" d="M47.9,69.79c1.64,0.88,3.11,2.05,4.41,3.39c2.17,1.18,4.41,2.22,6.77,2.96c-0.62,0.12-1.24,0.19-1.87,0.21
	c-3.43-1.43-7.1-2.85-9.32-6.02L47.9,69.79z"/>
<path fill="#939BD8" d="M112.16,71.89C115.439,72.1,110.59,74.93,112.16,71.89z"/>
<path fill="#030006" d="M121.471,72.18c3.199-0.57-0.291,4.2-1.941,2.89C119.05,73.79,120.4,72.62,121.471,72.18z"/>
<path fill="#000200" d="M142.37,73.04c0.31,0.06,0.94,0.17,1.25,0.23c-0.21,3.46-2.29,6.32-4.08,9.15
	c-3.569,5.23-7.2,10.64-8.61,16.91c-2.24,5.279-5.05,10.609-5.59,16.359c-0.25,0.011-0.75,0.041-1.01,0.061
	c0.87-6.66,4.63-12.53,6.51-18.93c2.46-7.66,7.95-13.72,11.68-20.73C142.48,75.33,142.4,73.8,142.37,73.04z"/>
<path fill="#060814" d="M44.63,75.06c0.8,0.53,2.39,1.59,3.19,2.12l0.01,0.03c1.91-1.65,2.54,0.25,2.95,2.06
	c0.68,1.32,1.62,2.49,2.43,3.74c-0.62-0.46-1.86-1.38-2.48-1.83c-0.07,2.61-0.1,5.3,1.25,7.64c0.16,2.76,0.51,5.51,0.36,8.28
	c-1.16-2.5-0.42-5.39-0.72-8.05c-1.73-2.41-1.1-5.41-1.11-8.17C49.27,78.23,46.19,77.41,44.63,75.06z"/>
<path fill="#B3BFE9" d="M111.48,85.16c-0.961-2.89-0.201-6.21,2.229-8.13c-0.06,0.57-0.17,1.71-0.229,2.29
	c-0.33,3.02-0.551,6.06-0.53,9.11C112.48,87.32,111.96,86.25,111.48,85.16z"/>
<path fill="#000200" d="M12.22,81.81c1.94,0.37,3.82,1.74,5.86,1.09c0.38,0.35,1.15,1.06,1.53,1.41c-0.24,1.34-0.42,2.68-0.53,4.04
	c-1.34-3.04-3.38-5.75-7.03-5.79L12.22,81.81z"/>
<path fill="#000200" d="M56.62,81.88c4.84,2.98,10.39,7.34,16.33,5.04l-0.02,0.62c-1.25,0.35-2.49,0.75-3.71,1.18
	c-3-0.79-5.87-2.03-8.62-3.43C59.1,84.38,57.18,83.75,56.62,81.88z"/>
<path fill="#B0B2AF" d="M126.391,82.07C129.4,80.57,126.5,85.4,126.391,82.07z"/>
<path fill="#000200" d="M24.54,88.11c0.77-1.76,1.6-3.5,2.51-5.2l-0.03,1.61l0.73,0.58l0.66,0.45c0.64,3.08-0.11,6.3-0.64,9.36
	h-0.73c0.17-2.59,1.56-5.55-0.1-7.9c-1.47,0.021-1.91,0.95-1.34,2.78C25.25,89.23,24.9,88.67,24.54,88.11z"/>
<path fill="#626EAB" d="M111.48,85.16c0.479,1.09,1,2.16,1.47,3.27c0.75,1.53-1.71,2.36-1.979,0.62
	C110.51,87.64,110.68,86.34,111.48,85.16z"/>
<path fill="#000200" d="M163.18,84.52c1.48,2.17,1.82,5,1.48,7.57C163.971,89.61,163.33,87.09,163.18,84.52z"/>
<path fill="#6E706D" d="M126.08,89.26C129.37,89.51,124.48,92.26,126.08,89.26z"/>
<path fill="#000200" d="M9.9,97.99c-0.31-1.66,1.98-2.73,3.28-3.25C14.61,96.02,11.38,98.71,9.9,97.99z"/>
<path fill="#ADAFAB" d="M103.08,95.37C106.4,95.51,101.55,98.37,103.08,95.37z"/>
<path fill="#CFD1CE" d="M81.12,96.06c1.63-0.53,2.19,0.02,1.68,1.65C81.17,98.24,80.62,97.69,81.12,96.06z"/>
<path fill="#000200" d="M11.72,101.99c2.02-1.36,3.2-3.74,5.6-4.55c-2.45,4-7.16,5.75-9.98,9.47C7.71,104.5,10,103.37,11.72,101.99z
	"/>
<path fill="#000200" d="M47.85,98.91c2.54,3.46,6,6.22,7.87,10.15c3.78,7.299,9.55,13.279,14.12,20.029
	c-6.52-6.68-11.9-14.49-16.45-22.63C51.72,103.8,48.59,102.14,47.85,98.91z"/>
<path fill="#000200" d="M52.57,101.39c1.47-0.37,1.95,0.1,1.43,1.41C52.56,103.17,52.08,102.7,52.57,101.39z"/>
<path fill="#B6B8B5" d="M78.34,103C81.25,101.33,78.63,106.32,78.34,103z"/>
<path fill="#868885" d="M136.221,104.311C136.77,104.87,136.77,104.87,136.221,104.311z"/>
<path fill="#000200" d="M10.15,116.3c2.61-4.37,6.83-7.38,10.72-10.5c-0.9,2.33-3.07,3.66-4.99,5.07
	C13.71,112.4,12.32,114.76,10.15,116.3z"/>
<path fill="#000200" d="M28.86,107.58c3.73,2.38,3.46,7.64,3.14,11.51c-0.46,1.471-0.55,3.01-0.67,4.54c-0.25,0-0.76-0.01-1.01-0.01
	c0.55-3.54,1.45-7.101,0.92-10.71C30.65,111.05,29.63,109.37,28.86,107.58z"/>
<path fill="#ADAFAD" d="M118.09,108.25C121.42,108.37,116.58,111.25,118.09,108.25z"/>
<path fill="#000200" d="M28.82,115.939c1.12,2.291-0.16,4.74-0.23,7.101c0,3.271-0.74,6.979,1.6,9.68
	c2.43,2.88,6.25,4.49,8.14,7.851c-3.25-2.28-6.31-4.93-8.98-7.86C26.11,127.75,27.92,121.359,28.82,115.939z"/>
<path fill="#C5C7C4" d="M89.1,116.18c1.4-0.479,1.881-0.02,1.44,1.4C89.15,118.061,88.67,117.6,89.1,116.18z"/>
<path fill="#828481" d="M67.28,118.2C67.82,118.78,67.82,118.78,67.28,118.2z"/>
<path fill="#000200" d="M83.38,118.3c2.851,0.63,5.94,1.091,8.05,3.32c-2.67-1.07-5.34-2.271-8.27-2.261
	C83.21,119.09,83.32,118.57,83.38,118.3z"/>
<path fill="#000200" d="M101.641,124.49c1.149-0.98,2.289-1.99,3.58-2.771c-0.711,1.021-1.57,1.89-2.591,2.63
	c-0.05,0.66-0.149,1.98-0.2,2.631c-0.26-0.07-0.779-0.211-1.039-0.28C101.45,126.15,101.57,125.04,101.641,124.49z"/>
<path fill="#000200" d="M36.16,133.87c-1.44-2.08-4.28-4.3-3.15-7.101c1.78,7.36,9.03,11.03,14.72,15.07
	c-0.05,0.25-0.17,0.73-0.22,0.971C43.91,139.58,39.14,137.811,36.16,133.87z"/>
<path fill="#000200" d="M101.279,129.609c3.32,5.9,3.561,13.33,0.721,19.471c-1.6,2.99-2.13,6.66-4.83,8.939
	c0.971-4.149,4.49-7.34,4.52-11.72c0.32-0.34,0.961-1.01,1.281-1.35C103.99,139.689,102.359,134.66,101.279,129.609z"/>
<path fill="#969896" d="M53.11,131.23C53.69,131.72,53.69,131.72,53.11,131.23z"/>
<path fill="#000200" d="M43.65,144.189c3.33,1.791,6.16,4.4,9.63,5.98c-0.7-0.01-1.53,0.391-2.11-0.22
	C48.59,148.141,45.78,146.55,43.65,144.189z"/>
<path fill="#000200" d="M121.5,157.34c1.79-1.88,3.561-3.81,5.7-5.31c-1.74,2.159-3.479,4.46-5.78,6.04
	c-3.141,0.229-6.37-0.08-9.37,1.109c-2.61,0.961-5.35,0.2-7.85-0.67c0.09-0.32,0.28-0.97,0.38-1.29c0.8,0.521,1.6,1.04,2.41,1.57
	C111.91,159,116.52,156.62,121.5,157.34z"/>
<path fill="#000200" d="M70.24,156.23c6.04,4.81,14.15,4.5,21.34,3.209l0.189-1.26c0.311,0.51,0.601,1.021,0.891,1.551
	c-5,1.6-10.31,1.209-15.47,0.979c-2.38-1.05-4.75-2.101-7-3.39C70.2,157.04,70.23,156.5,70.24,156.23z"/>
<path fill="#FFFFFF" d="M96.17,177.62c6.92,2.29,12,7.62,18.221,11.14c6.33,3.811,10.359,10.19,15.569,15.24H98.13
	c-0.11-2.22-0.159-4.46-0.81-6.6C96.95,190.811,96.88,184.189,96.17,177.62z"/>
<path fill="#FFFFFF" d="M78.28,195.37c3.72-5.97,9.97-9.72,14.06-15.37c0.971,7.99,1.471,16,2.221,24H73.65
	C75.42,201.26,77.25,198.49,78.28,195.37z"/>
</svg>
