<?xml version="1.0" encoding="utf-8"?>
<!-- Generator: Adobe Illustrator 15.0.2, SVG Export Plug-In . SVG Version: 6.00 Build 0)  -->
<!DOCTYPE svg PUBLIC "-//W3C//DTD SVG 1.1//EN" "http://www.w3.org/Graphics/SVG/1.1/DTD/svg11.dtd">
<svg version="1.1" id="Layer_1" xmlns="http://www.w3.org/2000/svg" xmlns:xlink="http://www.w3.org/1999/xlink" x="0px" y="0px"
	 width="113px" height="126px" viewBox="0 0 113 126" enable-background="new 0 0 113 126" xml:space="preserve">
<path fill="#FFFFFF" d="M0,0h113v126h-12.3c3.729-4.75,6.05-10.47,6.829-16.439c4.58-3.431,4.631-9.74,4.031-14.891
	c-1.48,1.37-0.9,3.45-1.051,5.21l-1.279-0.84c0.06,1.31,0.119,2.61,0.17,3.92c-5.36,6.55-6.621,15.2-9.11,23.04H14.82
	c1.39-1.92-1.03-3.53-1.58-5.28c-0.78-2.329-2.22-5.06-0.97-7.45c1.34-0.739,1.84,1.291,2.57,1.98c1.9,3.23,5.39,4.891,8.92,5.68
	c1.96,1.18,4.59,5.12,6.91,2.65c-4.56-2.76-9.4-5.01-14.18-7.35c-0.1-2.021-1.01-3.83-2.51-5.181c-4.07-3.46-3.92-9.26-5.65-13.94
	C6.91,90.37,3.35,84.01,3.77,76.96c0.27-7.2-0.31-14.76,2.6-21.54c1.44-3.19,0.37-6.93,1.98-10.09c2.38-5.13,7.3-8.35,10.8-12.66
	c1.5-0.59,2.76-1.61,3.99-2.63c-0.53-0.25-1.59-0.77-2.12-1.02c5.71-4.07,8.05-12.33,15.5-13.87c10.82-2.47,21.63,1.29,32.36,2.35
	c2.08,0.02,4.57,0.66,6.28-0.9c-1.58-0.25-3.15-0.47-4.74-0.66c1.67-1.25,3.2-2.64,4.641-4.15c3.989,2.72,10.069,4.57,10.66,10.14
	c2.129,1.45,3.319,3.68,4.109,6.06c3.38,2.07,6.33,5.97,6.22,10.1c-1.569-2.27-2.31-5.22-4.771-6.75
	c2.951,8.24,9.57,14.86,10.941,23.74c0.329,3.99,3.319,7.06,3.869,10.98c0.48,3,0.891,6.02,1.73,8.959
	c1.8,6.45-0.43,13.261,0.869,19.74c0.4,0.381,1.221,1.16,1.621,1.551c-0.23-9.641,0.189-19.301-0.781-28.9l-0.5-0.49
	c-0.34-0.12-1.02-0.359-1.369-0.49c-1.631-5.99-4.07-11.7-6.311-17.479c3.211,0.92,2.961,4.75,4.59,7.08
	c1.82,2.6,1.891,5.81,2.57,8.8c0.74-3.16-0.25-6.41-1.279-9.38c-1.92-6.08-7.121-10.42-8.92-16.55
	c-0.971-2.66-0.121-5.89-2.181-8.11C90.6,23.3,84.58,15.95,77.02,10.41c0.601-0.06,1.811-0.18,2.41-0.24
	c-0.779-2.83-3.479-1.24-5.42-1.09c-0.369-0.4-1.109-1.2-1.48-1.6C66.82,6.38,60.99,7.23,55.42,8.65
	c-7.21,1.81-14.63,2.88-21.7,5.22c-2.38,0.71-3.71,2.92-5.31,4.63c-3.43,3.21-5.9,7.21-9.5,10.28c-1.36-0.14-2.72-0.29-4.08-0.43
	c-0.02,0.49-0.05,1.47-0.06,1.96c-2.67-0.19-5.61-0.7-7.88,1.06c3,0.49,6.03,0.01,9.04-0.12c-2.48,3.93-5.37,7.56-8.15,11.26
	c-0.05-1.87-0.18-3.729-0.4-5.58c-0.93,2.56-0.62,5.31-0.44,7.97c-2.38,2.21-4.95,6.22-2.39,9.22c0.42-0.92,1.28-2.74,1.7-3.65
	c-0.9,4.4-3.12,8.41-3.83,12.86c-0.32-3.94-0.21-8.02-1.5-11.8c-1,15.61-0.94,31.45,1.65,46.92c2.84,3.37,4.62,7.5,6.28,11.54
	c0.44,4.15,2.43,7.939,2.71,12.119c1.04,1.16,2.02,2.36,3.14,3.461c-0.1,0.1-0.31,0.32-0.41,0.43H0V0 M71.52,29.08
	c2.17-2.19,5.76-2.39,8.301-0.77c3.91,1.81,4.729,6.72,8.57,8.61c2.189,3.25,3.969,6.7,5.51,10.26c4.14,4.94-1.36,13.16-7.33,12.68
	l0.289,0.95c-4.939-0.03-9.67-1.97-14.569-2.6c-4.08-2.63-6.78-6.72-9.75-10.45c-0.601-7.35,4.58-14.56,11.351-17.26
	c1.33-0.7,3.199-0.94,3.399-2.78c-4.729-0.27-7.61,4-10.96,6.59c-4.301,3.42-6.221,9.41-4.88,14.67c2.28,2.83,4.19,6.03,7.021,8.37
	c3.799,2.88,8.77,2.56,13.119,3.94c2.2,0.85,4.59,0.51,6.891,0.51c4.02-1.35,7.539-4.48,7.74-8.97
	c-0.091-5.42-2.471-10.54-5.031-15.22c-0.969-2.41-4.39-2.17-5.149-4.7c-2-5.12-7.899-7.95-13.181-6.52
	C71.35,26.31,69.54,27.83,71.52,29.08 M90.061,29.19C88.65,32.29,93.311,29.49,90.061,29.19 M27.96,34.04
	c-2.95,7.95-14.17,8.81-16.18,17.39c4.35,0.14,4.14-5.67,7.91-6.64c6.13-2.31,11.57-7.72,10.79-14.78
	C27.98,29.77,28.8,32.66,27.96,34.04 M78.6,34.22c-0.01,2.13-0.129,4.271,0,6.4c1.51,1.13,3.621,1.09,5.4,1.61
	c2.05,0.77,5.83-0.74,4.17-3.31c-1.82,3.13-5.35,1.67-7.99,0.55c0.03-1.71,0.051-3.42,0.07-5.13C79.84,34.31,79.01,34.25,78.6,34.22
	 M26.43,42.47c-3.84,1.84-7.75,4.34-9.66,8.3c-1.21,3-1.85,6.58-0.37,9.6c1.33,2.57,0.9,5.54,0.99,8.33
	c3.77,4.659,10.22,5.69,15.82,4.64c2.97-3.13,6.1-6.05,8.61-9.54c4.39-3.16,5.89-8.95,4.7-14.07c-2.59-1.37-4.78-3.33-6.48-5.7
	C35.49,43.63,31.04,41.43,26.43,42.47 M54.93,72.82c-1.28,0.529-2.67,0.689-4.03,0.91c-3.95,1.489-8.06,3.09-11.25,5.91
	c-4.74,7.319-7.9,15.67-9.25,24.289c-1.33,2.721-4.89,4.23-4.38,7.83c0.55,0.021,1.65,0.051,2.2,0.061
	c0.07-0.58,0.21-1.74,0.28-2.32c3.42,1.29,4.71-2.1,4.08-4.859c1.98-3.41,5.93-4.671,8.71-7.23c1.92-1.811,3.77-3.69,5.6-5.58
	c1.9-0.96,3.68-2.57,5.93-2.48c1.65-0.18,3.48,0.391,5-0.49c3.97-1.409,8.25-1.049,12.31-2.049c3.17,1.989,7.95,1.129,9.99,4.72
	c2.351-0.181,5.229-0.87,6.88,1.329c2.82,2.011,3.55,6.471,7.23,7.15c3.08-5.52,3.959-12.09,1.92-18.13
	c-1.32-3.46-3.391-6.521-5.631-9.45c-4.16,0.5-8.35,0.26-12.49-0.229c-0.659,0.62-1.319,1.229-1.979,1.84
	c2.72,0.319,5.41,0.851,8.091,1.45c0.699-1.6,2.629-0.69,3.92-0.92c-0.431,0.82-1.051,1.66-2.07,1.699
	C79.73,77.2,73.4,76.18,67.1,76.34c0.98-0.89,1.791-2.08,3.021-2.609c2.47-0.181,5.149,0.209,7.069-1.73
	c-3.34-1.13-7.359,0.77-10.199-1.66C63.75,73.25,58.88,71.891,54.93,72.82z"/>
<path fill="#040404" d="M55.42,8.65c5.57-1.42,11.4-2.27,17.109-1.17c0.371,0.4,1.111,1.2,1.48,1.6c1.94-0.15,4.641-1.74,5.42,1.09
	c-0.6,0.06-1.81,0.18-2.41,0.24C84.58,15.95,90.6,23.3,96.13,30.79c2.06,2.22,1.21,5.45,2.181,8.11c1.799,6.13,7,10.47,8.92,16.55
	c1.029,2.97,2.02,6.22,1.279,9.38c-0.68-2.99-0.75-6.2-2.57-8.8c-1.629-2.33-1.379-6.16-4.59-7.08
	c2.24,5.78,4.68,11.49,6.311,17.479c0.35,0.131,1.029,0.37,1.369,0.49l0.5,0.49c0.971,9.6,0.551,19.26,0.781,28.9
	c-0.4-0.391-1.221-1.17-1.621-1.551c-1.299-6.479,0.931-13.29-0.869-19.74c-0.84-2.939-1.25-5.959-1.73-8.959
	c-0.55-3.92-3.54-6.991-3.869-10.98c-1.371-8.88-7.99-15.5-10.941-23.74c2.461,1.53,3.201,4.48,4.771,6.75
	c0.11-4.13-2.84-8.03-6.22-10.1c-0.79-2.38-1.98-4.61-4.109-6.06c-0.591-5.57-6.671-7.42-10.66-10.14
	c-1.44,1.51-2.971,2.9-4.641,4.15c1.59,0.19,3.16,0.41,4.74,0.66c-1.71,1.56-4.2,0.92-6.28,0.9c-10.729-1.06-21.54-4.82-32.36-2.35
	c-7.45,1.54-9.79,9.8-15.5,13.87c0.53,0.25,1.59,0.77,2.12,1.02c-1.23,1.02-2.49,2.04-3.99,2.63c-3.5,4.31-8.42,7.53-10.8,12.66
	c-1.61,3.16-0.54,6.9-1.98,10.09c-2.91,6.78-2.33,14.34-2.6,21.54c-0.42,7.05,3.14,13.41,4.56,20.149
	c1.73,4.681,1.58,10.48,5.65,13.94c1.5,1.351,2.41,3.16,2.51,5.181c4.78,2.34,9.62,4.59,14.18,7.35c-2.32,2.47-4.95-1.471-6.91-2.65
	c-3.53-0.789-7.02-2.449-8.92-5.68c-0.73-0.689-1.23-2.72-2.57-1.98c-1.25,2.391,0.19,5.121,0.97,7.45
	c0.55,1.75,2.97,3.36,1.58,5.28h-0.53c0.1-0.109,0.31-0.33,0.41-0.43c-1.12-1.101-2.1-2.301-3.14-3.461
	c-0.28-4.18-2.27-7.969-2.71-12.119c-1.66-4.04-3.44-8.17-6.28-11.54c-2.59-15.47-2.65-31.31-1.65-46.92
	c1.29,3.78,1.18,7.86,1.5,11.8c0.71-4.45,2.93-8.46,3.83-12.86c-0.42,0.91-1.28,2.73-1.7,3.65c-2.56-3,0.01-7.01,2.39-9.22
	c-0.18-2.66-0.49-5.41,0.44-7.97c0.22,1.85,0.35,3.71,0.4,5.58c2.78-3.7,5.67-7.33,8.15-11.26c-3.01,0.13-6.04,0.61-9.04,0.12
	c2.27-1.76,5.21-1.25,7.88-1.06c0.01-0.49,0.04-1.47,0.06-1.96c1.36,0.14,2.72,0.29,4.08,0.43c3.6-3.07,6.07-7.07,9.5-10.28
	c1.6-1.71,2.93-3.92,5.31-4.63C40.79,11.53,48.21,10.46,55.42,8.65 M65.29,8.42c-0.011,2.1,0,4.19,0,6.28
	c0.521,0.02,1.54,0.06,2.05,0.08c1.54-1.94,3.27-3.71,4.891-5.58C69.93,8.82,67.609,8.56,65.29,8.42 M44,12.34
	c6.06,0.45,12.04,2.97,18.13,2.04c0.24-1.89,0.57-3.78,0.89-5.66C56.67,9.84,50.28,10.81,44,12.34 M69.779,14.21
	C69.17,14.87,69.17,14.87,69.779,14.21c1.551-0.25,3.73-1.56,3.99-3.24C72.16,10.89,69.75,12.39,69.779,14.21 M4.12,97.99
	c1.4,2.369,3.12,4.55,4.46,6.97C6.26,95.561,3.59,86.23,2.51,76.59C2.01,83.74,2.21,91.05,4.12,97.99z"/>
<path fill="#FFFFFF" d="M65.29,8.42c2.319,0.14,4.64,0.4,6.94,0.78c-1.621,1.87-3.351,3.64-4.891,5.58
	c-0.51-0.021-1.529-0.061-2.05-0.08C65.29,12.61,65.279,10.52,65.29,8.42z"/>
<path fill="#FDFDFD" d="M44,12.34c6.28-1.53,12.67-2.5,19.02-3.62c-0.319,1.88-0.649,3.771-0.89,5.66
	C56.04,15.31,50.06,12.79,44,12.34z"/>
<path fill="#FDFDFD" d="M69.779,14.21c-0.029-1.82,2.381-3.32,3.99-3.24C73.51,12.65,71.33,13.96,69.779,14.21z"/>
<path fill="#7C7C7C" d="M69.779,14.21C69.17,14.87,69.17,14.87,69.779,14.21z"/>
<path fill="#070707" d="M71.52,29.08c-1.979-1.25-0.17-2.77,1.34-2.69c5.281-1.43,11.181,1.4,13.181,6.52
	c0.76,2.53,4.181,2.29,5.149,4.7c2.561,4.68,4.94,9.8,5.031,15.22c-0.201,4.49-3.721,7.62-7.74,8.97c-2.301,0-4.69,0.34-6.891-0.51
	c-4.35-1.38-9.32-1.06-13.119-3.94c-2.83-2.34-4.74-5.54-7.021-8.37c-1.341-5.26,0.579-11.25,4.88-14.67
	c3.35-2.59,6.23-6.86,10.96-6.59c-0.2,1.84-2.069,2.08-3.399,2.78c-6.771,2.7-11.951,9.91-11.351,17.26
	c2.97,3.73,5.67,7.82,9.75,10.45c4.899,0.63,9.63,2.57,14.569,2.6l-0.289-0.95c5.97,0.48,11.47-7.74,7.33-12.68
	c-1.541-3.56-3.32-7.01-5.51-10.26c-3.841-1.89-4.66-6.8-8.57-8.61C77.279,26.69,73.689,26.89,71.52,29.08z"/>
<path fill="#636363" d="M90.061,29.19C93.311,29.49,88.65,32.29,90.061,29.19z"/>
<path d="M27.96,34.04c0.84-1.38,0.02-4.27,2.52-4.03c0.78,7.06-4.66,12.47-10.79,14.78c-3.77,0.97-3.56,6.78-7.91,6.64
	C13.79,42.85,25.01,41.99,27.96,34.04z"/>
<path d="M78.6,34.22c0.41,0.03,1.24,0.09,1.65,0.12c-0.02,1.71-0.04,3.42-0.07,5.13c2.641,1.12,6.17,2.58,7.99-0.55
	c1.66,2.57-2.12,4.08-4.17,3.31c-1.779-0.52-3.891-0.48-5.4-1.61C78.471,38.49,78.59,36.35,78.6,34.22z"/>
<path fill="#070707" d="M26.43,42.47c4.61-1.04,9.06,1.16,13.61,1.561c1.7,2.37,3.89,4.33,6.48,5.7c1.19,5.12-0.31,10.91-4.7,14.07
	c-2.51,3.49-5.64,6.41-8.61,9.54c-5.6,1.051-12.05,0.02-15.82-4.64c-0.09-2.79,0.34-5.76-0.99-8.33c-1.48-3.02-0.84-6.6,0.37-9.6
	C18.68,46.81,22.59,44.31,26.43,42.47 M17.52,51.77c2.28-0.09,4.56-0.11,6.85-0.13c0.63,1.45,1.6,3.02,0.91,4.64
	c-1.07,2.91-4.44,3.76-7.21,3.77c0.15,3.63,0.25,7.9,3.37,10.36c3.24,2.08,7.76,2.8,11.29,1.32C38.34,66.1,45.17,60.05,45.5,51.5
	c-0.6-1.5-2-3.59-4.02-1.95c0.85,0.73,2.56,2.2,3.41,2.93c-1.08,0.11-2.15,0.23-3.22,0.35c-1.31-2.93-1.73-7.33-5.49-8.09
	C29.19,41.72,21.17,45.45,17.52,51.77 M17.58,51.92c-0.62,2.12-1.07,4.29-1.07,6.51c2.85,0.41,6.87-0.1,7.63-3.46
	C23.25,52.36,19.44,53.59,17.58,51.92z"/>
<path fill="#FFFFFF" d="M17.52,51.77c3.65-6.32,11.67-10.05,18.66-7.03c3.76,0.76,4.18,5.16,5.49,8.09
	c1.07-0.12,2.14-0.24,3.22-0.35c-0.85-0.73-2.56-2.2-3.41-2.93C43.5,47.91,44.9,50,45.5,51.5c-0.33,8.55-7.16,14.6-12.77,20.23
	c-3.53,1.479-8.05,0.76-11.29-1.32c-3.12-2.46-3.22-6.73-3.37-10.36c2.77-0.01,6.14-0.86,7.21-3.77c0.69-1.62-0.28-3.19-0.91-4.64
	C22.08,51.66,19.8,51.68,17.52,51.77z"/>
<path fill="#FBFBFB" d="M17.58,51.92c1.86,1.67,5.67,0.44,6.56,3.05c-0.76,3.36-4.78,3.87-7.63,3.46
	C16.51,56.21,16.96,54.04,17.58,51.92z"/>
<path fill="#060606" d="M54.93,72.82c3.95-0.93,8.82,0.43,12.06-2.48c2.84,2.43,6.859,0.53,10.199,1.66
	c-1.92,1.939-4.6,1.55-7.069,1.73c-1.229,0.529-2.04,1.72-3.021,2.609C73.4,76.18,79.73,77.2,85.99,76.27
	c1.02-0.039,1.64-0.879,2.07-1.699c-1.291,0.229-3.221-0.68-3.92,0.92c-2.681-0.6-5.371-1.131-8.091-1.45
	c0.66-0.61,1.32-1.22,1.979-1.84c4.141,0.489,8.33,0.729,12.49,0.229c2.24,2.93,4.311,5.99,5.631,9.45
	c2.039,6.04,1.16,12.61-1.92,18.13c-3.681-0.68-4.41-5.14-7.23-7.15c-1.65-2.199-4.529-1.51-6.88-1.329
	c-2.04-3.591-6.82-2.73-9.99-4.72c-4.06,1-8.34,0.64-12.31,2.049c-1.521,0.881-3.35,0.311-5,0.49c-2.25-0.09-4.03,1.521-5.93,2.48
	c-1.83,1.89-3.68,3.77-5.6,5.58c-2.78,2.56-6.73,3.82-8.71,7.23c0.63,2.76-0.66,6.149-4.08,4.859c-0.07,0.58-0.21,1.74-0.28,2.32
	c-0.55-0.01-1.65-0.04-2.2-0.061c-0.51-3.6,3.05-5.109,4.38-7.83c1.35-8.619,4.51-16.97,9.25-24.289c3.19-2.82,7.3-4.421,11.25-5.91
	C52.26,73.51,53.65,73.35,54.93,72.82 M47.66,75.79c-0.7,0.79-1.4,1.58-2.09,2.39c2.28-0.189,4.77-0.07,6.68-1.539
	c1.84,1.18,4.03,1.14,6.12,1.18c0.101-0.601,0.3-1.801,0.399-2.4c0.871,3.63,4.311,2.32,6.94,2.13c0.17-1.28,0.45-2.6-0.06-3.84
	c-2.131,0.58-4.33,0.899-6.53,0.58C55.25,74.32,51.49,75.34,47.66,75.79 M76.04,78.689c2.39,1.051,5.11,0.57,7.54,1.5
	c3.22,1.181,6.47,2.86,8.51,5.721c1.061,1.17,1.7,2.9,3.49,3.189c-0.109-2.41-0.66-4.779-1.75-6.939
	c-1.09-2.03-2.28-4.02-3.721-5.83C86.25,80.08,80.77,78.2,76.04,78.689 M69.05,79.109c-3.319,1.101-6.829-0.039-10.19,0.721
	c-1.609,0.38-3.239,0.65-4.879,0.88c-0.93-0.601-1.67-1.74-2.92-1.58c-5.16,0.08-9.64,3.521-12.68,7.45
	c-2.88,3.79-3.81,8.529-4.88,13.05c1.72-0.97,3.62-1.729,5.06-3.11c1.85-1.959,0.36-5.1,1.98-7.18c2.32-2.34,5.69-2.96,8.47-4.56
	c0.57-0.14,1.69-0.421,2.26-0.561c2.73-1.229,5.68-1.77,8.589-2.399c4.75-0.551,9.881-0.42,14.131-2.94
	C72.35,78.78,70.59,78.33,69.05,79.109 M55.94,85.96c1.64,0.271,3.41,0.88,4.98-0.021c3.59-0.449,7.13-1.369,10.78-1.27
	c0.3-0.779,0.6-1.55,0.899-2.32C66.971,82.96,61.13,83.51,55.94,85.96 M74.3,81.51c0.11,1.51,0.2,3.03,0.271,4.54
	c2.59,0.9,5.18,1.8,7.8,2.601c0.43-1,0.86-2,1.29-3c1.59,0.01,2-1.211,2.21-2.541c-1.55-0.489-3.12-0.89-4.681-1.329
	C78.891,81.73,76.59,81.66,74.3,81.51 M42.46,92.72c0.35-0.21,1.05-0.63,1.4-0.84c1.7-1.239,3.58-2.239,5.69-2.55l-0.18-0.891
	c1.58,0.07,2.83-0.81,3.88-1.89C49.49,87.99,43.32,87.67,42.46,92.72 M85.04,89.01c3.64,1.48,5.819,4.95,8.28,7.82
	c1.64-4.561-1.67-8.21-4.34-11.42C87.04,85.73,85.7,87.24,85.04,89.01z"/>
<path fill="#808080" d="M47.66,75.79c3.83-0.45,7.59-1.47,11.46-1.5c0.61,0.99,1.21,1.99,1.819,3c1.36-0.17,2.721-0.32,4.08-0.47
	c0.16-0.78,0.471-2.33,0.631-3.11c0.51,1.24,0.229,2.56,0.06,3.84c-2.63,0.19-6.069,1.5-6.94-2.13c-0.1,0.6-0.299,1.8-0.399,2.4
	c0.11-3.78-4.18-2.711-6.12-1.18c-1.91,1.469-4.4,1.35-6.68,1.539C46.26,77.37,46.96,76.58,47.66,75.79z"/>
<path fill="#FDFDFD" d="M59.12,74.29c2.2,0.319,4.399,0,6.53-0.58c-0.16,0.78-0.471,2.33-0.631,3.11
	c-1.359,0.149-2.72,0.3-4.08,0.47C60.33,76.28,59.73,75.28,59.12,74.29z"/>
<path fill="#FDFDFD" d="M52.25,76.641c1.94-1.531,6.23-2.601,6.12,1.18C56.28,77.78,54.09,77.82,52.25,76.641z"/>
<path fill="#FCFCFC" d="M76.04,78.689C80.77,78.2,86.25,80.08,90.109,76.33c1.44,1.811,2.631,3.8,3.721,5.83
	c1.09,2.16,1.641,4.529,1.75,6.939c-1.79-0.289-2.43-2.02-3.49-3.189c-2.04-2.86-5.29-4.54-8.51-5.721
	C81.15,79.26,78.43,79.74,76.04,78.689z"/>
<path fill="#FEFEFE" d="M4.12,97.99c-1.91-6.94-2.11-14.25-1.61-21.4c1.08,9.641,3.75,18.971,6.07,28.37
	C7.24,102.54,5.52,100.359,4.12,97.99z"/>
<path fill="#FDFDFD" d="M69.05,79.109c1.54-0.779,3.3-0.329,4.94-0.229c-4.25,2.521-9.381,2.39-14.131,2.94
	C56.95,82.45,54,82.99,51.27,84.22c-0.57,0.14-1.69,0.421-2.26,0.561c-2.78,1.6-6.15,2.22-8.47,4.56
	c-1.62,2.08-0.13,5.221-1.98,7.18c-1.44,1.381-3.34,2.141-5.06,3.11c1.07-4.521,2-9.26,4.88-13.05c3.04-3.93,7.52-7.37,12.68-7.45
	c1.25-0.16,1.99,0.979,2.92,1.58c1.64-0.229,3.27-0.5,4.879-0.88C62.221,79.07,65.73,80.21,69.05,79.109z"/>
<path fill="#FBFBFB" d="M55.94,85.96c5.19-2.45,11.031-3,16.66-3.61c-0.3,0.771-0.6,1.541-0.899,2.32
	c-3.65-0.1-7.19,0.82-10.78,1.27C59.35,86.84,57.58,86.23,55.94,85.96z"/>
<path fill="#FCFCFC" d="M74.3,81.51c2.29,0.15,4.591,0.221,6.89,0.271c1.561,0.439,3.131,0.84,4.681,1.329
	c-0.21,1.33-0.62,2.551-2.21,2.541c-0.43,1-0.86,2-1.29,3c-2.62-0.801-5.21-1.7-7.8-2.601C74.5,84.54,74.41,83.02,74.3,81.51z"/>
<path fill="#FBFBFB" d="M42.46,92.72c0.86-5.05,7.03-4.729,10.79-6.17c-1.05,1.08-2.3,1.96-3.88,1.89l0.18,0.891
	c-2.11,0.311-3.99,1.311-5.69,2.55C43.51,92.09,42.81,92.51,42.46,92.72z"/>
<path fill="#FEFEFE" d="M85.04,89.01c0.66-1.77,2-3.279,3.94-3.6c2.67,3.21,5.979,6.859,4.34,11.42
	C90.859,93.96,88.68,90.49,85.04,89.01z"/>
<path fill="#050505" d="M110.51,99.88c0.15-1.76-0.43-3.84,1.051-5.21c0.6,5.15,0.549,11.46-4.031,14.891
	c-0.779,5.97-3.1,11.689-6.829,16.439h-0.41c2.489-7.84,3.75-16.49,9.11-23.04c-0.051-1.31-0.11-2.61-0.17-3.92L110.51,99.88z"/>
</svg>
