<?xml version="1.0" encoding="UTF-8" ?>
<!DOCTYPE svg PUBLIC "-//W3C//DTD SVG 1.1//EN" "http://www.w3.org/Graphics/SVG/1.1/DTD/svg11.dtd">
<svg width="500pt" height="461pt" viewBox="0 0 500 461" version="1.1" xmlns="http://www.w3.org/2000/svg">
<g id="#ffffffff">
<path fill="#ffffff" opacity="1.00" d=" M 0.00 0.00 L 500.00 0.00 L 500.00 461.00 L 468.78 461.00 C 468.75 459.22 468.73 457.45 468.71 455.68 C 469.49 455.20 470.27 454.73 471.05 454.25 C 470.43 445.23 477.60 437.99 476.88 429.00 C 476.80 423.33 476.90 417.67 476.80 412.01 C 476.35 405.74 480.48 400.12 479.60 393.79 C 480.05 393.44 480.95 392.74 481.40 392.39 C 481.63 390.18 481.83 387.98 481.93 385.78 C 483.26 382.67 484.36 379.40 484.21 375.97 C 483.91 372.04 486.93 368.89 486.78 364.95 C 488.24 361.22 488.86 357.23 490.51 353.58 C 492.13 348.57 492.88 343.30 494.92 338.42 C 497.24 333.29 497.24 327.50 499.15 322.24 C 499.14 315.49 499.73 308.66 498.43 301.98 C 498.13 298.01 498.07 294.02 497.34 290.09 C 496.37 284.94 499.62 280.07 498.24 274.95 C 496.41 269.65 498.00 263.96 496.63 258.57 C 496.23 255.15 493.75 252.65 491.97 249.88 C 489.39 249.07 486.75 248.22 484.02 248.31 C 475.36 248.34 466.69 248.27 458.04 248.34 C 456.38 248.28 455.25 249.67 453.99 250.52 C 451.94 250.60 449.83 250.55 447.93 251.43 C 448.18 250.78 448.68 249.48 448.93 248.83 C 447.94 245.52 445.14 242.05 446.73 238.50 C 447.64 236.46 447.91 234.22 448.51 232.09 C 449.97 228.76 452.36 225.66 452.60 221.92 C 452.44 219.64 451.78 217.31 452.63 215.08 C 454.27 210.89 453.21 206.43 453.39 202.09 C 453.39 197.84 449.47 194.32 450.66 189.96 C 453.30 179.06 450.86 167.71 447.62 157.20 C 444.22 147.03 436.16 139.60 429.91 131.20 C 426.87 128.46 424.59 125.09 422.20 121.80 C 417.39 116.46 411.89 111.64 405.49 108.28 C 398.81 104.84 392.12 101.31 385.11 98.61 C 377.75 96.94 370.43 95.02 362.96 93.86 C 357.06 92.62 351.17 90.53 345.05 91.40 C 337.71 91.18 331.14 94.72 324.12 96.19 C 320.27 96.61 316.36 96.76 312.63 97.94 C 309.51 98.94 305.92 98.14 303.09 100.02 C 300.50 101.41 298.68 103.73 296.89 105.98 C 294.61 109.16 290.49 109.84 287.53 112.15 C 285.78 116.87 284.22 121.81 281.06 125.81 C 279.08 125.47 277.34 124.46 275.83 123.17 C 274.17 120.03 271.43 117.63 268.48 115.74 C 265.51 114.21 261.99 114.75 258.90 113.53 C 254.12 111.76 248.81 112.74 244.11 110.65 C 235.84 107.51 226.85 105.32 218.00 106.80 C 206.77 109.51 195.08 110.21 184.09 113.91 C 173.46 118.95 161.85 123.00 153.45 131.60 C 148.86 135.37 146.13 140.79 141.69 144.70 C 135.02 153.06 126.80 160.63 123.25 171.00 C 121.06 178.16 119.03 185.45 119.15 193.00 C 118.28 197.15 119.95 201.16 120.10 205.27 C 119.55 208.34 117.62 210.95 116.99 214.00 C 116.59 219.62 116.19 225.35 118.12 230.77 C 115.12 237.58 122.01 243.04 122.27 249.63 C 124.68 253.39 122.36 257.25 120.97 260.87 C 120.91 265.23 120.29 269.81 121.84 274.02 C 123.43 278.60 123.33 283.84 126.07 287.97 C 128.70 289.91 130.17 292.76 131.15 295.81 C 134.04 297.72 136.66 300.21 137.65 303.64 C 139.86 305.03 141.57 307.00 143.30 308.93 C 144.02 310.20 144.75 311.48 145.51 312.74 C 143.64 313.30 141.78 314.02 140.44 315.51 C 136.55 316.79 133.12 319.11 129.11 320.10 C 124.99 323.46 119.91 324.93 114.93 326.54 C 109.02 327.99 105.07 333.01 99.95 335.95 C 95.91 339.17 91.39 341.62 86.69 343.73 C 75.32 351.53 62.48 357.06 51.75 365.84 C 47.41 369.74 41.52 370.98 35.96 372.03 C 32.99 372.57 30.95 374.94 28.98 377.03 C 22.72 383.17 20.31 392.54 21.46 401.08 C 21.82 405.48 22.67 410.08 25.21 413.77 C 28.94 417.32 32.68 420.91 36.92 423.86 C 33.61 426.34 31.62 430.01 29.21 433.27 C 26.70 437.68 22.77 441.18 20.93 445.99 C 20.71 449.58 21.58 454.03 17.81 456.17 C 17.72 457.77 17.64 459.38 17.56 461.00 L 0.00 461.00 L 0.00 0.00 Z" />
<path fill="#ffffff" opacity="1.00" d=" M 344.95 94.38 C 351.21 93.05 357.37 95.60 363.46 96.76 C 370.55 97.82 377.53 99.55 384.49 101.29 C 392.36 104.71 400.05 108.54 407.60 112.63 C 407.91 113.01 408.53 113.76 408.84 114.14 C 412.19 115.15 414.16 118.16 416.77 120.26 C 419.23 122.48 421.35 125.05 423.16 127.83 C 425.36 131.25 429.24 133.42 430.68 137.35 C 433.39 139.12 434.91 142.34 437.09 144.74 C 443.06 150.98 445.82 159.47 447.32 167.80 C 449.13 172.66 448.35 177.92 448.86 182.99 C 449.27 186.74 446.98 190.25 447.70 194.01 C 448.68 197.33 451.07 200.37 450.51 204.02 C 450.22 207.43 451.32 210.98 450.11 214.28 C 449.61 214.41 448.60 214.66 448.10 214.79 C 449.49 216.90 449.12 219.54 449.74 221.91 C 449.70 225.31 447.15 227.89 445.95 230.89 C 445.06 234.90 443.07 238.67 443.23 242.87 C 444.45 244.48 445.09 246.49 444.21 248.43 L 445.46 249.10 C 446.26 254.91 444.75 260.62 443.15 266.16 C 440.41 270.59 436.31 274.02 433.78 278.60 C 429.87 283.79 426.82 289.54 422.62 294.53 C 421.00 297.98 417.35 299.44 414.62 301.83 C 413.45 305.62 411.08 308.94 410.28 312.86 C 409.93 316.97 405.25 317.98 401.99 318.79 C 397.52 320.47 392.90 322.63 388.01 322.28 C 384.53 322.05 381.17 323.22 377.97 324.46 C 374.74 325.05 371.36 324.13 368.18 324.92 C 365.86 326.19 363.05 326.01 360.88 327.58 C 355.15 329.21 348.85 327.88 344.44 323.78 C 337.27 320.37 331.52 314.39 327.73 307.47 C 325.02 302.53 321.10 298.42 318.37 293.49 C 313.97 289.73 310.43 285.00 307.65 279.86 C 306.89 281.51 307.29 283.31 307.33 285.05 C 309.35 287.89 311.46 290.70 313.77 293.33 C 316.81 294.95 317.72 298.45 319.80 300.97 C 323.27 305.11 325.72 309.96 328.66 314.47 C 331.49 317.62 334.46 320.67 337.83 323.27 C 340.54 325.00 343.56 326.30 346.00 328.47 C 341.66 329.02 337.94 326.32 333.84 325.42 C 332.24 324.07 330.39 323.11 328.52 322.21 C 326.54 318.43 323.39 315.46 320.48 312.41 C 315.86 308.85 316.73 302.19 313.48 297.67 C 308.87 292.87 306.08 286.09 306.45 279.37 L 308.19 279.89 C 304.83 277.73 304.68 273.54 303.85 270.05 C 303.27 266.68 302.20 263.37 301.87 259.96 C 302.75 256.67 302.66 253.28 302.67 249.91 C 304.33 247.49 304.34 244.42 305.71 241.87 C 308.27 236.68 310.16 230.89 310.17 225.01 C 310.08 222.65 310.56 220.34 311.17 218.08 C 309.66 213.27 313.80 208.84 312.68 203.98 C 311.85 199.70 312.84 195.21 311.26 191.04 C 309.33 186.05 309.07 180.53 306.60 175.73 C 305.70 172.49 305.22 169.14 304.37 165.88 C 303.25 164.55 302.14 163.22 301.00 161.91 C 298.67 157.05 297.37 151.78 295.11 146.88 C 293.04 142.68 287.76 140.68 287.16 135.66 C 285.54 132.89 285.06 129.51 282.97 127.04 C 284.53 126.11 285.84 124.72 286.36 122.95 C 287.12 119.93 289.35 117.48 289.57 114.31 C 293.24 112.24 297.65 110.75 299.84 106.85 C 300.98 105.96 301.93 104.86 302.65 103.60 C 305.46 100.71 309.60 102.13 313.03 100.83 C 316.56 99.62 320.28 99.35 323.97 99.19 C 331.04 97.94 337.56 93.86 344.95 94.38 M 342.65 150.46 C 342.58 150.86 342.45 151.66 342.39 152.06 C 346.47 153.31 350.75 153.33 354.97 153.73 C 363.10 153.87 370.95 156.19 378.94 157.37 C 381.43 157.93 384.16 158.09 386.27 159.70 C 391.05 162.98 396.09 166.33 402.01 166.98 C 409.23 169.06 416.74 169.77 423.98 171.75 C 427.80 173.91 429.88 177.97 433.24 180.67 C 433.37 180.24 433.64 179.37 433.77 178.93 C 430.87 176.06 428.43 172.58 424.97 170.35 C 415.79 167.83 406.21 167.00 397.14 164.04 C 393.14 162.33 389.51 159.93 385.99 157.42 C 379.85 155.50 373.42 154.97 367.18 153.48 C 359.11 151.58 350.67 152.56 342.65 150.46 M 325.26 164.26 C 325.34 164.59 325.49 165.24 325.56 165.56 C 330.11 166.11 334.53 167.32 339.02 168.20 C 343.32 168.25 347.64 168.26 351.94 168.01 C 357.92 166.67 364.03 167.91 370.07 167.29 C 374.23 166.78 378.33 168.13 381.94 170.10 C 385.48 171.03 387.73 174.15 391.01 175.62 C 394.05 178.26 398.25 178.09 401.91 179.25 C 408.22 180.52 414.16 183.18 420.51 184.33 C 422.72 184.56 423.89 186.53 425.47 187.82 C 425.53 187.37 425.67 186.47 425.74 186.01 C 423.85 182.18 419.02 182.76 415.59 181.51 C 409.85 179.43 403.93 177.95 397.97 176.67 C 396.33 176.18 394.39 176.18 393.14 174.86 C 390.50 173.62 388.21 171.84 385.91 170.08 C 380.19 166.89 373.66 164.58 367.03 165.74 C 357.67 165.29 348.42 166.69 339.06 166.58 C 334.45 165.85 330.01 163.86 325.26 164.26 M 337.15 180.20 C 335.67 180.62 333.47 180.58 333.23 182.53 C 336.25 182.65 339.01 181.12 342.02 181.10 C 345.37 181.02 348.71 181.39 352.06 181.37 C 359.30 180.37 366.12 183.85 373.20 184.77 C 373.50 185.23 374.09 186.14 374.38 186.60 C 374.65 186.35 375.18 185.86 375.44 185.61 C 375.42 185.15 375.37 184.22 375.35 183.76 C 368.88 182.36 362.50 180.44 355.97 179.42 C 349.70 180.25 343.30 178.42 337.15 180.20 M 373.22 193.11 C 373.09 194.74 374.46 195.66 375.35 196.81 C 376.52 198.83 377.26 201.15 376.76 203.49 C 377.18 203.49 378.03 203.49 378.45 203.49 C 379.26 199.52 377.26 194.45 373.22 193.11 M 410.66 194.79 C 409.74 195.28 408.84 195.79 407.94 196.31 C 408.34 196.54 409.14 197.00 409.54 197.23 C 411.90 196.28 414.58 197.01 416.84 195.77 C 420.32 196.45 423.72 197.73 427.32 197.62 C 431.56 200.79 432.98 206.68 437.83 209.07 C 438.00 206.84 435.87 205.61 434.79 203.96 C 432.74 200.93 430.47 198.03 427.64 195.69 C 423.92 196.18 420.36 194.77 416.76 194.07 C 414.81 194.87 412.73 194.98 410.66 194.79 M 341.18 198.68 C 339.57 200.18 335.96 197.05 335.92 200.28 C 336.34 200.70 337.18 201.56 337.60 201.98 C 335.34 203.46 333.26 206.29 334.78 209.02 C 336.88 211.13 338.30 213.74 339.89 216.23 C 348.55 218.44 357.35 219.96 366.15 221.43 C 367.20 220.31 367.69 218.90 367.87 217.40 C 368.96 217.51 369.90 216.93 370.56 216.11 C 366.64 211.45 361.02 208.61 356.97 204.06 C 352.33 200.75 345.77 202.03 341.18 198.68 M 409.39 204.25 C 408.67 208.06 405.86 211.86 407.09 215.78 C 409.29 212.29 409.87 207.98 410.97 204.04 C 410.57 204.09 409.78 204.20 409.39 204.25 M 444.27 204.31 C 442.84 204.68 443.10 207.00 444.27 207.55 C 445.78 207.45 445.74 204.49 444.27 204.31 M 411.08 223.13 C 408.45 223.63 406.26 226.67 407.29 229.29 C 406.39 229.93 406.22 231.07 405.84 232.03 C 409.30 233.97 413.18 234.74 416.94 235.83 C 420.71 238.15 424.34 241.48 429.09 241.31 C 430.48 237.96 431.30 234.43 432.42 230.99 C 432.97 229.42 431.98 227.95 431.31 226.60 C 432.77 227.00 434.24 227.28 435.76 227.42 C 435.67 226.81 435.50 225.57 435.41 224.96 C 431.35 223.88 427.17 222.65 422.94 223.33 C 418.95 224.21 415.02 221.81 411.08 223.13 M 396.05 253.19 C 398.83 257.40 401.03 261.96 403.82 266.17 C 403.05 268.72 400.65 270.24 399.26 272.43 C 398.54 273.66 397.25 274.30 395.99 274.86 C 395.44 276.48 395.96 278.87 394.14 279.77 C 392.05 278.11 390.00 275.75 386.97 276.72 C 385.29 278.78 388.48 278.93 389.49 279.75 C 390.82 280.53 391.71 281.88 392.95 282.80 C 396.46 283.26 398.26 279.55 398.59 276.62 C 402.37 274.03 405.32 270.21 407.09 265.98 C 404.04 261.46 401.56 256.57 398.56 252.04 C 398.61 249.00 397.10 246.03 398.03 243.01 C 398.16 241.51 399.53 238.37 396.80 238.45 C 394.05 242.87 394.67 248.44 396.05 253.19 M 359.19 257.12 C 358.30 257.47 357.41 257.83 356.54 258.19 C 355.42 261.37 354.84 264.80 356.35 267.96 C 357.30 272.20 361.98 273.85 365.88 273.77 C 366.71 270.96 363.74 270.77 361.76 270.35 C 359.03 268.98 358.69 265.74 358.18 263.08 C 358.40 262.10 358.02 259.48 359.89 260.22 C 362.44 260.46 365.30 261.03 367.64 259.69 C 368.19 258.18 366.42 257.11 365.11 257.54 C 363.11 257.97 361.11 257.69 359.19 257.12 M 373.71 270.58 C 372.92 271.09 372.14 271.61 371.36 272.13 C 373.02 275.03 376.92 273.06 379.56 274.36 C 379.58 273.48 379.61 272.62 379.65 271.76 C 377.68 271.25 375.72 270.75 373.71 270.58 M 342.99 288.21 C 343.10 288.76 343.32 289.86 343.43 290.40 C 345.57 290.52 347.73 290.34 349.88 290.56 C 352.67 291.82 355.30 293.45 358.00 294.91 C 362.44 298.06 368.12 297.89 373.13 299.59 C 378.18 302.53 384.58 302.41 390.27 303.48 C 390.69 304.89 391.15 306.30 391.64 307.71 C 395.70 307.10 392.78 302.49 391.94 300.20 C 385.19 300.68 378.28 299.16 372.08 296.50 C 368.14 295.25 363.73 295.25 360.22 292.87 C 356.64 290.54 352.54 289.14 349.08 286.65 C 347.02 286.98 344.86 287.33 342.99 288.21 Z" />
<path fill="#ffffff" opacity="1.00" d=" M 208.11 111.47 C 213.46 110.77 218.62 108.59 224.08 108.95 C 228.01 109.43 232.05 109.30 235.86 110.54 C 241.17 112.26 246.33 114.85 252.03 114.84 C 256.85 114.98 261.22 117.90 266.10 117.23 C 268.84 118.61 270.90 120.91 272.66 123.36 C 274.92 126.62 278.59 128.39 282.10 129.95 C 283.08 133.53 284.89 136.81 285.89 140.39 C 287.13 142.34 289.22 143.58 290.62 145.41 C 295.56 150.74 295.33 158.77 299.70 164.45 C 301.18 166.33 302.56 168.39 302.77 170.85 C 303.44 176.79 306.58 182.01 307.55 187.88 C 309.78 193.72 309.35 199.99 310.20 206.07 C 309.55 210.04 307.68 213.78 308.40 217.92 C 306.65 223.89 308.67 231.01 304.49 236.14 C 304.63 238.93 303.25 241.32 301.76 243.56 C 301.82 246.51 300.09 249.07 299.95 251.97 C 299.81 255.97 298.80 260.04 299.91 263.99 C 301.70 272.00 303.30 280.06 305.02 288.08 C 305.98 291.71 307.64 295.24 310.22 298.00 C 312.47 300.95 313.60 304.58 314.48 308.13 C 315.36 312.18 318.94 314.67 321.39 317.75 C 323.67 320.02 325.32 322.85 327.58 325.12 C 333.17 327.77 338.87 330.69 345.07 331.51 C 350.46 331.27 355.87 330.95 361.28 331.27 C 358.59 335.16 355.11 338.42 351.69 341.67 C 350.74 342.06 349.79 342.47 348.85 342.88 C 349.65 344.56 351.36 344.70 353.01 344.51 C 354.09 342.44 356.17 341.36 357.94 339.98 C 359.65 337.69 361.20 335.18 363.73 333.69 C 367.12 330.87 371.63 330.36 375.48 328.45 C 378.47 326.94 381.79 326.30 384.87 325.04 C 389.43 325.45 393.95 324.86 398.19 323.12 C 404.16 320.65 410.67 321.78 416.94 321.51 C 422.02 321.15 426.90 322.87 431.95 323.17 C 431.92 322.44 431.87 320.99 431.84 320.26 C 429.60 320.08 427.35 319.92 425.15 319.45 C 419.30 318.02 413.23 319.38 407.31 318.54 C 408.48 317.89 409.81 317.78 411.12 317.84 C 411.66 317.15 412.20 316.46 412.75 315.78 C 416.17 311.80 419.29 307.26 420.85 302.19 C 424.58 298.42 426.34 292.99 431.08 290.14 C 431.94 287.53 433.82 285.52 435.98 283.90 C 438.09 282.49 438.66 279.91 439.86 277.83 C 440.82 276.27 442.85 275.64 443.55 273.89 C 445.03 269.96 447.77 266.61 448.90 262.54 C 449.77 259.60 450.68 256.68 451.69 253.79 C 453.01 253.54 454.33 253.30 455.66 253.06 C 456.68 252.38 457.46 250.95 458.87 251.10 C 466.58 250.95 474.29 251.21 482.00 250.99 C 484.71 250.85 487.39 251.33 490.02 251.90 C 491.05 253.33 492.08 254.75 493.17 256.13 C 494.67 260.94 494.60 266.00 494.65 270.99 C 495.26 274.88 497.03 279.28 494.75 282.97 C 494.00 289.05 495.56 295.05 495.55 301.13 C 496.99 307.78 496.54 314.61 496.42 321.37 C 494.36 325.87 495.02 331.20 492.77 335.65 C 490.37 341.09 490.17 347.24 487.56 352.60 C 485.18 359.06 484.22 365.96 481.55 372.31 C 481.06 375.24 482.12 378.40 480.56 381.15 C 478.54 384.94 479.97 389.73 476.93 393.09 C 477.38 398.60 475.42 403.81 473.57 408.90 C 474.73 413.18 474.00 417.64 474.18 422.02 C 474.16 427.50 474.77 433.22 472.38 438.35 C 470.18 442.69 469.05 447.44 468.13 452.19 C 465.60 454.47 466.03 457.92 466.11 461.00 L 414.13 461.00 C 409.97 459.80 405.58 460.65 401.36 461.00 L 373.39 461.00 C 378.05 459.16 383.18 459.32 387.87 457.57 C 394.68 455.41 400.06 450.52 406.12 446.96 C 407.11 444.80 407.51 442.46 407.59 440.10 C 405.81 438.08 404.37 435.06 401.31 434.88 C 393.52 434.51 385.74 435.53 377.98 436.05 C 374.92 436.23 372.14 437.89 369.05 437.82 C 363.55 437.65 358.42 439.77 353.09 440.69 C 347.35 441.63 341.68 439.67 335.95 439.77 C 325.79 439.80 315.52 440.18 305.51 438.21 C 302.06 435.71 299.01 432.52 296.64 428.97 C 297.68 427.40 298.47 425.68 298.91 423.85 C 306.69 418.50 316.33 417.36 324.90 413.78 C 328.40 411.78 332.00 409.77 335.05 407.10 C 337.56 403.87 339.00 399.62 338.87 395.52 C 338.82 392.56 336.80 389.71 333.80 389.19 C 329.85 388.19 326.03 389.88 322.50 391.45 C 318.43 392.50 314.21 392.86 310.06 393.42 C 306.07 393.96 302.82 396.63 298.93 397.52 C 293.01 399.09 286.90 400.18 281.51 403.24 C 267.77 407.29 253.53 411.27 241.88 419.91 C 240.79 423.53 237.57 425.79 235.93 429.11 C 229.04 429.30 222.27 427.84 215.64 426.14 C 209.13 423.77 202.41 421.54 196.86 417.26 C 191.47 414.48 186.82 410.57 182.11 406.81 C 171.97 400.44 162.98 392.22 152.08 387.09 C 145.76 385.20 139.57 382.71 133.05 381.60 C 137.42 379.37 140.35 374.93 145.19 373.52 C 151.10 371.74 157.00 369.93 162.95 368.28 C 171.71 364.98 180.96 369.02 189.96 368.04 C 196.96 367.13 203.99 368.04 211.01 367.71 C 210.80 366.51 210.87 364.88 209.23 364.84 C 205.84 364.27 202.42 363.83 198.98 363.69 C 200.66 362.77 202.78 361.96 203.31 359.90 C 205.08 354.28 206.00 348.33 205.22 342.44 C 202.11 342.48 202.11 338.91 201.11 336.81 C 200.47 334.20 198.26 332.55 196.76 330.48 C 194.97 325.17 191.98 320.35 190.61 314.88 C 189.27 311.65 190.17 308.03 189.06 304.79 C 186.99 303.04 186.10 305.88 186.23 307.51 C 185.58 310.77 187.92 313.86 186.90 317.11 C 187.45 319.25 189.07 320.88 189.74 322.96 C 190.98 327.78 193.99 331.90 195.38 336.68 C 196.68 341.24 201.78 343.56 202.46 348.37 C 203.55 352.22 200.99 355.56 199.45 358.84 C 198.57 361.35 195.91 362.35 193.95 363.85 C 191.48 363.81 188.96 363.72 186.59 364.52 C 181.78 366.09 176.83 364.27 171.96 364.24 C 166.39 363.74 161.21 366.10 155.92 367.41 C 150.81 369.18 145.27 369.92 140.57 372.73 C 136.76 375.09 133.92 378.80 129.86 380.76 C 126.44 380.74 123.31 378.76 119.85 378.71 C 116.28 378.72 112.98 376.91 109.40 377.23 C 109.37 377.83 109.33 379.03 109.31 379.63 C 115.52 381.25 122.01 381.34 128.09 383.49 C 137.12 385.16 146.09 387.52 154.46 391.39 C 160.24 394.45 165.59 398.23 170.73 402.27 C 174.84 405.50 179.62 407.82 183.46 411.40 C 198.64 423.36 217.29 432.65 237.06 431.63 C 240.53 427.61 243.09 422.70 247.27 419.30 C 250.06 417.69 253.10 416.58 255.82 414.85 C 266.78 409.52 279.16 407.93 290.09 402.55 C 293.69 401.41 297.45 400.82 301.04 399.65 C 304.43 398.60 307.39 396.32 311.01 395.95 C 314.87 395.61 318.74 395.15 322.52 394.28 C 326.23 392.63 330.62 390.41 334.63 392.35 C 337.13 394.48 335.98 398.22 335.31 400.97 C 334.36 406.24 328.75 408.30 324.78 410.95 C 315.28 415.04 304.38 416.25 296.01 422.79 C 296.24 425.66 292.65 428.44 294.87 431.08 C 297.97 434.51 300.47 438.95 304.90 440.81 C 318.37 443.97 332.34 441.23 345.91 443.47 C 354.54 444.92 362.49 439.89 371.10 440.45 C 379.40 438.02 388.14 438.20 396.70 437.36 C 396.24 440.40 397.30 443.24 398.88 445.79 C 400.32 445.52 401.59 444.89 402.69 443.90 C 401.73 443.23 400.76 442.59 399.79 441.97 C 398.91 440.36 399.48 438.74 400.22 437.21 C 404.00 437.58 406.27 442.45 403.63 445.36 C 397.12 449.86 390.51 454.83 382.51 456.18 C 376.02 457.01 369.71 458.80 363.57 461.00 L 99.41 461.00 C 94.64 459.16 89.33 458.09 85.40 454.63 C 79.84 453.00 75.33 448.99 69.78 447.28 C 63.79 445.57 58.48 442.17 53.34 438.75 C 46.29 433.06 42.79 423.93 35.04 418.98 C 31.40 415.69 26.62 412.90 25.32 407.83 C 23.15 398.76 22.83 387.84 29.50 380.49 C 31.52 378.25 33.13 375.08 36.43 374.63 C 41.21 373.87 46.18 372.98 50.27 370.22 C 59.94 362.60 70.54 356.29 81.33 350.42 C 84.83 348.11 88.28 345.69 92.14 344.01 C 96.56 342.00 100.22 338.75 104.32 336.22 C 107.73 334.11 110.40 330.68 114.43 329.67 C 117.46 328.72 120.41 327.52 123.45 326.57 C 127.13 325.54 129.56 322.11 133.44 321.50 C 138.45 318.86 144.18 317.91 148.99 314.88 C 149.81 315.71 150.65 316.54 151.48 317.38 C 152.91 321.74 155.51 325.72 155.89 330.39 C 159.28 333.00 162.65 335.67 166.46 337.65 C 169.82 339.48 171.43 343.31 174.72 345.24 C 177.68 345.99 180.76 346.29 183.58 347.53 C 188.28 349.54 193.48 349.51 198.32 351.02 C 198.70 349.97 199.08 348.92 199.47 347.88 C 199.32 347.45 199.03 346.59 198.88 346.16 C 198.31 346.71 197.74 347.26 197.17 347.81 C 191.36 346.62 185.51 345.61 180.00 343.36 C 174.01 344.01 172.55 337.03 167.75 335.15 C 164.39 333.63 161.82 330.90 158.56 329.23 C 157.95 324.46 155.44 320.36 153.98 315.88 C 152.19 313.69 149.62 312.42 147.61 310.51 C 145.71 307.72 144.02 304.67 141.12 302.76 C 139.69 302.03 139.34 300.53 139.02 299.10 C 137.43 297.21 135.60 295.53 133.54 294.15 C 132.54 292.03 132.13 289.41 130.17 287.91 C 125.83 284.72 126.18 278.72 124.74 274.04 C 123.38 270.26 123.94 266.24 123.57 262.32 C 124.04 262.08 124.98 261.59 125.44 261.34 C 123.65 258.84 126.54 256.58 126.35 254.01 C 126.12 250.91 124.81 248.03 124.13 245.03 C 123.36 241.48 120.26 238.78 120.24 235.02 C 120.42 232.52 121.16 230.11 121.67 227.67 C 121.25 227.55 120.42 227.31 120.01 227.19 C 118.88 223.55 119.90 219.72 119.79 216.00 C 119.74 212.68 121.89 209.95 122.73 206.86 C 123.49 202.89 121.23 199.07 121.85 195.09 C 122.44 190.43 121.95 185.62 123.55 181.12 C 125.14 173.95 127.31 166.70 131.84 160.79 C 135.95 155.89 140.16 151.09 144.13 146.08 C 148.36 142.57 150.73 137.41 155.01 133.94 C 161.34 127.46 169.73 123.69 177.76 119.80 C 182.27 118.24 186.34 115.47 191.12 114.73 C 196.79 113.67 202.37 112.10 208.11 111.47 M 325.03 395.85 C 325.58 397.82 328.58 397.03 330.17 397.54 C 331.35 396.49 332.76 396.00 334.35 396.21 C 334.38 395.57 334.45 394.28 334.48 393.64 C 333.59 393.66 331.82 393.70 330.94 393.72 C 329.51 395.94 325.24 392.59 325.03 395.85 M 308.84 396.64 C 308.75 399.28 311.83 399.49 313.17 401.24 C 313.68 400.81 314.20 400.39 314.73 399.98 C 313.92 397.67 311.26 396.02 308.84 396.64 M 357.22 449.05 C 356.93 451.79 359.32 453.81 360.06 456.32 C 363.21 455.83 361.34 452.38 360.30 450.73 C 359.70 449.68 358.56 447.70 357.22 449.05 Z" />
<path fill="#ffffff" opacity="1.00" d=" M 32.81 432.81 C 34.55 430.25 37.05 428.34 38.93 425.90 C 42.20 430.39 45.90 434.55 49.26 438.97 C 50.14 439.99 50.64 441.54 52.09 441.90 C 56.45 443.10 59.23 447.24 63.83 447.94 C 60.09 450.05 56.93 453.03 53.16 455.09 C 51.52 457.25 49.92 459.52 47.57 461.00 L 20.66 461.00 C 20.60 460.17 20.48 458.52 20.42 457.70 C 21.26 456.69 22.17 455.72 22.84 454.59 C 24.43 451.51 22.34 447.52 24.74 444.74 C 27.64 440.91 30.23 436.86 32.81 432.81 Z" />
<path fill="#ffffff" opacity="1.00" d=" M 56.94 455.81 C 59.88 453.44 63.36 451.79 66.05 449.11 C 69.31 450.23 72.91 451.00 75.51 453.42 C 77.90 455.77 81.42 456.14 84.30 457.69 C 87.07 458.33 89.87 458.92 91.99 461.00 L 51.05 461.00 C 53.57 459.92 54.56 457.09 56.94 455.81 Z" />
</g>
<g id="#010101ff">
<path fill="#010101" opacity="1.00" d=" M 345.05 91.40 C 351.17 90.53 357.06 92.62 362.96 93.86 C 370.43 95.02 377.75 96.94 385.11 98.61 C 392.12 101.31 398.81 104.84 405.49 108.28 C 411.89 111.64 417.39 116.46 422.20 121.80 C 424.59 125.09 426.87 128.46 429.91 131.20 C 436.16 139.60 444.22 147.03 447.62 157.20 C 450.86 167.71 453.30 179.06 450.66 189.96 C 449.47 194.32 453.39 197.84 453.39 202.09 C 453.21 206.43 454.27 210.89 452.63 215.08 C 451.78 217.31 452.44 219.64 452.60 221.92 C 452.36 225.66 449.97 228.76 448.51 232.09 C 447.91 234.22 447.64 236.46 446.73 238.50 C 445.14 242.05 447.94 245.52 448.93 248.83 C 448.68 249.48 448.18 250.78 447.93 251.43 C 449.83 250.55 451.94 250.60 453.99 250.52 C 455.25 249.67 456.38 248.28 458.04 248.34 C 466.69 248.27 475.36 248.34 484.02 248.31 C 486.75 248.22 489.39 249.07 491.97 249.88 C 493.75 252.65 496.23 255.15 496.63 258.57 C 498.00 263.96 496.41 269.65 498.24 274.95 C 499.62 280.07 496.37 284.94 497.34 290.09 C 498.07 294.02 498.13 298.01 498.43 301.98 C 499.73 308.66 499.14 315.49 499.15 322.24 C 497.24 327.50 497.24 333.29 494.92 338.42 C 492.88 343.30 492.13 348.57 490.51 353.58 C 488.86 357.23 488.24 361.22 486.78 364.95 C 486.93 368.89 483.91 372.04 484.21 375.97 C 484.36 379.40 483.26 382.67 481.93 385.78 C 481.83 387.98 481.63 390.18 481.40 392.39 C 480.95 392.74 480.05 393.44 479.60 393.79 C 480.48 400.12 476.35 405.74 476.80 412.01 C 476.90 417.67 476.80 423.33 476.88 429.00 C 477.60 437.99 470.43 445.23 471.05 454.25 C 470.27 454.73 469.49 455.20 468.71 455.68 C 468.73 457.45 468.75 459.22 468.78 461.00 L 466.11 461.00 C 466.03 457.92 465.60 454.47 468.13 452.19 C 469.05 447.44 470.18 442.69 472.38 438.35 C 474.77 433.22 474.16 427.50 474.18 422.02 C 474.00 417.64 474.73 413.18 473.57 408.90 C 475.42 403.81 477.38 398.60 476.93 393.09 C 479.97 389.73 478.54 384.94 480.56 381.15 C 482.12 378.40 481.06 375.24 481.55 372.31 C 484.22 365.96 485.18 359.06 487.56 352.60 C 490.17 347.24 490.37 341.09 492.77 335.65 C 495.02 331.20 494.36 325.87 496.42 321.37 C 496.54 314.61 496.99 307.78 495.55 301.13 C 495.56 295.05 494.00 289.05 494.75 282.97 C 497.03 279.28 495.26 274.88 494.65 270.99 C 494.60 266.00 494.67 260.94 493.17 256.13 C 492.08 254.75 491.05 253.33 490.02 251.90 C 487.39 251.33 484.71 250.85 482.00 250.99 C 474.29 251.21 466.58 250.95 458.87 251.10 C 457.46 250.95 456.68 252.38 455.66 253.06 C 454.33 253.30 453.01 253.54 451.69 253.79 C 450.68 256.68 449.77 259.60 448.90 262.54 C 447.77 266.61 445.03 269.96 443.55 273.89 C 442.85 275.64 440.82 276.27 439.86 277.83 C 438.66 279.91 438.09 282.49 435.98 283.90 C 433.82 285.52 431.94 287.53 431.08 290.14 C 426.34 292.99 424.58 298.42 420.85 302.19 C 419.29 307.26 416.17 311.80 412.75 315.78 C 412.20 316.46 411.66 317.15 411.12 317.84 C 409.81 317.78 408.48 317.89 407.31 318.54 C 413.23 319.38 419.30 318.02 425.15 319.45 C 427.35 319.92 429.60 320.08 431.84 320.26 C 431.87 320.99 431.92 322.44 431.95 323.17 C 426.90 322.87 422.02 321.15 416.94 321.51 C 410.67 321.78 404.16 320.65 398.19 323.12 C 393.95 324.86 389.43 325.45 384.87 325.04 C 381.79 326.30 378.47 326.94 375.48 328.45 C 371.63 330.36 367.12 330.87 363.73 333.69 C 361.20 335.18 359.65 337.69 357.94 339.98 C 356.17 341.36 354.09 342.44 353.01 344.51 C 351.36 344.70 349.65 344.56 348.85 342.88 C 349.79 342.47 350.74 342.06 351.69 341.67 C 355.11 338.42 358.59 335.16 361.28 331.27 C 355.87 330.95 350.46 331.27 345.07 331.51 C 338.87 330.69 333.17 327.77 327.58 325.12 C 325.32 322.85 323.67 320.02 321.39 317.75 C 318.94 314.67 315.36 312.18 314.48 308.13 C 313.60 304.58 312.47 300.95 310.22 298.00 C 307.64 295.24 305.98 291.71 305.02 288.08 C 303.30 280.06 301.70 272.00 299.91 263.99 C 298.80 260.04 299.81 255.97 299.95 251.97 C 300.09 249.07 301.82 246.51 301.76 243.56 C 303.25 241.32 304.63 238.93 304.49 236.14 C 308.67 231.01 306.65 223.89 308.40 217.92 C 307.68 213.78 309.55 210.04 310.20 206.07 C 309.35 199.99 309.78 193.72 307.55 187.88 C 306.58 182.01 303.44 176.79 302.77 170.85 C 302.56 168.39 301.18 166.33 299.70 164.45 C 295.33 158.77 295.56 150.74 290.62 145.41 C 289.22 143.58 287.13 142.34 285.89 140.39 C 284.89 136.81 283.08 133.53 282.10 129.95 C 278.59 128.39 274.92 126.62 272.66 123.36 C 270.90 120.91 268.84 118.61 266.10 117.23 C 261.22 117.90 256.85 114.98 252.03 114.84 C 246.33 114.85 241.17 112.26 235.86 110.54 C 232.05 109.30 228.01 109.43 224.08 108.95 C 218.62 108.59 213.46 110.77 208.11 111.47 C 202.37 112.10 196.79 113.67 191.12 114.73 C 186.34 115.47 182.27 118.24 177.76 119.80 C 169.73 123.69 161.34 127.46 155.01 133.94 C 150.73 137.41 148.36 142.57 144.13 146.08 C 140.16 151.09 135.95 155.89 131.84 160.79 C 127.31 166.70 125.14 173.95 123.55 181.12 C 121.95 185.62 122.44 190.43 121.85 195.09 C 121.23 199.07 123.49 202.89 122.73 206.86 C 121.89 209.95 119.74 212.68 119.79 216.00 C 119.90 219.72 118.88 223.55 120.01 227.19 C 120.42 227.31 121.25 227.55 121.67 227.67 C 121.16 230.11 120.42 232.52 120.24 235.02 C 120.26 238.78 123.36 241.48 124.13 245.03 C 124.81 248.03 126.12 250.91 126.35 254.01 C 126.54 256.58 123.65 258.84 125.44 261.34 C 124.98 261.59 124.04 262.08 123.57 262.32 C 123.94 266.24 123.38 270.26 124.74 274.04 C 126.18 278.72 125.83 284.72 130.17 287.91 C 132.13 289.41 132.54 292.03 133.54 294.15 C 135.60 295.53 137.43 297.21 139.02 299.10 C 139.34 300.53 139.69 302.03 141.12 302.76 C 144.02 304.67 145.71 307.72 147.61 310.51 C 149.62 312.42 152.19 313.69 153.98 315.88 C 155.44 320.36 157.95 324.46 158.56 329.23 C 161.82 330.90 164.39 333.63 167.75 335.15 C 172.55 337.03 174.01 344.01 180.00 343.36 C 185.51 345.61 191.36 346.62 197.17 347.81 C 197.74 347.26 198.31 346.71 198.88 346.16 C 199.03 346.59 199.32 347.45 199.47 347.88 C 199.08 348.92 198.70 349.97 198.32 351.02 C 193.48 349.51 188.28 349.54 183.58 347.53 C 180.76 346.29 177.68 345.99 174.72 345.24 C 171.43 343.31 169.82 339.48 166.46 337.65 C 162.65 335.67 159.28 333.00 155.89 330.39 C 155.51 325.72 152.91 321.74 151.48 317.38 C 150.65 316.54 149.81 315.71 148.99 314.88 C 144.18 317.91 138.45 318.86 133.44 321.50 C 129.56 322.11 127.13 325.54 123.45 326.57 C 120.41 327.52 117.46 328.72 114.43 329.67 C 110.40 330.68 107.73 334.11 104.32 336.22 C 100.22 338.75 96.56 342.00 92.14 344.01 C 88.28 345.69 84.83 348.11 81.33 350.42 C 70.54 356.29 59.94 362.60 50.27 370.22 C 46.18 372.98 41.21 373.87 36.43 374.63 C 33.13 375.08 31.52 378.25 29.50 380.49 C 22.83 387.84 23.15 398.76 25.32 407.83 C 26.62 412.90 31.40 415.69 35.04 418.98 C 42.79 423.93 46.29 433.06 53.34 438.75 C 58.48 442.17 63.79 445.57 69.78 447.28 C 75.33 448.99 79.84 453.00 85.40 454.63 C 89.33 458.09 94.64 459.16 99.41 461.00 L 91.99 461.00 C 89.87 458.92 87.07 458.33 84.30 457.69 C 81.42 456.14 77.90 455.77 75.51 453.42 C 72.91 451.00 69.31 450.23 66.05 449.11 C 63.36 451.79 59.88 453.44 56.94 455.81 C 54.56 457.09 53.57 459.92 51.05 461.00 L 47.57 461.00 C 49.92 459.52 51.52 457.25 53.16 455.09 C 56.93 453.03 60.09 450.05 63.83 447.94 C 59.23 447.24 56.45 443.10 52.09 441.90 C 50.64 441.54 50.14 439.99 49.26 438.97 C 45.90 434.55 42.20 430.39 38.93 425.90 C 37.05 428.34 34.55 430.25 32.81 432.81 C 30.23 436.86 27.64 440.91 24.74 444.74 C 22.34 447.52 24.43 451.51 22.84 454.59 C 22.17 455.72 21.26 456.69 20.42 457.70 C 20.48 458.52 20.60 460.17 20.66 461.00 L 17.56 461.00 C 17.64 459.38 17.72 457.77 17.81 456.17 C 21.58 454.03 20.71 449.58 20.93 445.99 C 22.77 441.18 26.70 437.68 29.21 433.27 C 31.62 430.01 33.61 426.34 36.92 423.86 C 32.68 420.91 28.94 417.32 25.21 413.77 C 22.67 410.08 21.82 405.48 21.46 401.08 C 20.31 392.54 22.72 383.17 28.98 377.03 C 30.95 374.94 32.99 372.57 35.96 372.03 C 41.52 370.98 47.41 369.74 51.75 365.84 C 62.48 357.06 75.32 351.53 86.69 343.73 C 91.39 341.62 95.91 339.17 99.95 335.95 C 105.07 333.01 109.02 327.99 114.93 326.54 C 119.91 324.93 124.99 323.46 129.11 320.10 C 133.12 319.11 136.55 316.79 140.44 315.51 C 141.78 314.02 143.64 313.30 145.51 312.74 C 144.75 311.48 144.02 310.20 143.30 308.93 C 141.57 307.00 139.86 305.03 137.65 303.64 C 136.66 300.21 134.04 297.72 131.15 295.81 C 130.17 292.76 128.70 289.91 126.07 287.97 C 123.33 283.84 123.43 278.60 121.84 274.02 C 120.29 269.81 120.91 265.23 120.97 260.87 C 122.36 257.25 124.68 253.39 122.27 249.63 C 122.01 243.04 115.12 237.58 118.12 230.77 C 116.19 225.35 116.59 219.62 116.99 214.00 C 117.62 210.95 119.55 208.34 120.10 205.27 C 119.95 201.16 118.28 197.15 119.15 193.00 C 119.03 185.45 121.06 178.16 123.25 171.00 C 126.80 160.63 135.02 153.06 141.69 144.70 C 146.13 140.79 148.86 135.37 153.45 131.60 C 161.85 123.00 173.46 118.95 184.09 113.91 C 195.08 110.21 206.77 109.51 218.00 106.80 C 226.85 105.32 235.84 107.51 244.11 110.65 C 248.81 112.74 254.12 111.76 258.90 113.53 C 261.99 114.75 265.51 114.21 268.48 115.74 C 271.43 117.63 274.17 120.03 275.83 123.17 C 277.34 124.46 279.08 125.47 281.06 125.81 C 284.22 121.81 285.78 116.87 287.53 112.15 C 290.49 109.84 294.61 109.16 296.89 105.98 C 298.68 103.73 300.50 101.41 303.09 100.02 C 305.92 98.14 309.51 98.94 312.63 97.94 C 316.36 96.76 320.27 96.61 324.12 96.19 C 331.14 94.72 337.71 91.18 345.05 91.40 M 344.95 94.38 C 337.56 93.86 331.04 97.94 323.97 99.19 C 320.28 99.35 316.56 99.62 313.03 100.83 C 309.60 102.13 305.46 100.71 302.65 103.60 C 301.93 104.86 300.98 105.96 299.84 106.85 C 297.65 110.75 293.24 112.24 289.57 114.31 C 289.35 117.48 287.12 119.93 286.36 122.95 C 285.84 124.72 284.53 126.11 282.97 127.04 C 285.06 129.51 285.54 132.89 287.16 135.66 C 287.76 140.68 293.04 142.68 295.11 146.88 C 297.37 151.78 298.67 157.05 301.00 161.91 C 302.14 163.22 303.25 164.55 304.37 165.88 C 305.22 169.14 305.70 172.49 306.60 175.73 C 309.07 180.53 309.33 186.05 311.26 191.04 C 312.84 195.21 311.85 199.70 312.68 203.98 C 313.80 208.84 309.66 213.27 311.17 218.08 C 310.56 220.34 310.08 222.65 310.17 225.01 C 310.16 230.89 308.27 236.68 305.71 241.87 C 304.34 244.42 304.33 247.49 302.67 249.91 C 302.66 253.28 302.75 256.67 301.87 259.96 C 302.20 263.37 303.27 266.68 303.85 270.05 C 304.68 273.54 304.83 277.73 308.19 279.89 L 306.45 279.37 C 306.08 286.09 308.87 292.87 313.48 297.67 C 316.73 302.19 315.86 308.85 320.48 312.41 C 323.39 315.46 326.54 318.43 328.52 322.21 C 330.39 323.11 332.24 324.07 333.84 325.42 C 337.94 326.32 341.66 329.02 346.00 328.47 C 343.56 326.30 340.54 325.00 337.83 323.27 C 334.46 320.67 331.49 317.62 328.66 314.47 C 325.72 309.96 323.27 305.11 319.80 300.97 C 317.72 298.45 316.81 294.95 313.77 293.33 C 311.46 290.70 309.35 287.89 307.33 285.05 C 307.29 283.31 306.89 281.51 307.65 279.86 C 310.43 285.00 313.97 289.73 318.37 293.49 C 321.10 298.42 325.02 302.53 327.73 307.47 C 331.52 314.39 337.27 320.37 344.44 323.78 C 348.85 327.88 355.15 329.21 360.88 327.58 C 363.05 326.01 365.86 326.19 368.18 324.92 C 371.36 324.13 374.74 325.05 377.97 324.46 C 381.17 323.22 384.53 322.05 388.01 322.28 C 392.90 322.63 397.52 320.47 401.99 318.79 C 405.25 317.98 409.93 316.97 410.28 312.86 C 411.08 308.94 413.45 305.62 414.62 301.83 C 417.35 299.44 421.00 297.98 422.62 294.53 C 426.82 289.54 429.87 283.79 433.78 278.60 C 436.31 274.02 440.41 270.59 443.15 266.16 C 444.75 260.62 446.26 254.91 445.46 249.10 L 444.21 248.43 C 445.09 246.49 444.45 244.48 443.23 242.87 C 443.07 238.67 445.06 234.90 445.95 230.89 C 447.15 227.89 449.70 225.31 449.74 221.91 C 449.12 219.54 449.49 216.90 448.10 214.79 C 448.60 214.66 449.61 214.41 450.11 214.28 C 451.32 210.98 450.22 207.43 450.51 204.02 C 451.07 200.37 448.68 197.33 447.70 194.01 C 446.98 190.25 449.27 186.74 448.86 182.99 C 448.35 177.92 449.13 172.66 447.32 167.80 C 445.82 159.47 443.06 150.98 437.09 144.74 C 434.91 142.34 433.39 139.12 430.68 137.35 C 429.24 133.42 425.36 131.25 423.16 127.83 C 421.35 125.05 419.23 122.48 416.77 120.26 C 414.16 118.16 412.19 115.15 408.84 114.14 C 408.53 113.76 407.91 113.01 407.60 112.63 C 400.05 108.54 392.36 104.71 384.49 101.29 C 377.53 99.55 370.55 97.82 363.46 96.76 C 357.37 95.60 351.21 93.05 344.95 94.38 Z" />
<path fill="#010101" opacity="1.00" d=" M 337.15 180.20 C 343.30 178.42 349.70 180.25 355.97 179.42 C 362.50 180.44 368.88 182.36 375.35 183.76 C 375.37 184.22 375.42 185.15 375.44 185.61 C 375.18 185.86 374.65 186.35 374.38 186.60 C 374.09 186.14 373.50 185.23 373.20 184.77 C 366.12 183.85 359.30 180.37 352.06 181.37 C 348.71 181.39 345.37 181.02 342.02 181.10 C 339.01 181.12 336.25 182.65 333.23 182.53 C 333.47 180.58 335.67 180.62 337.15 180.20 Z" />
<path fill="#010101" opacity="1.00" d=" M 341.18 198.68 C 345.77 202.03 352.33 200.75 356.97 204.06 C 361.02 208.61 366.64 211.45 370.56 216.11 C 369.90 216.93 368.96 217.51 367.87 217.40 C 367.69 218.90 367.20 220.31 366.15 221.43 C 357.35 219.96 348.55 218.44 339.89 216.23 C 338.30 213.74 336.88 211.13 334.78 209.02 C 333.26 206.29 335.34 203.46 337.60 201.98 C 337.18 201.56 336.34 200.70 335.92 200.28 C 335.96 197.05 339.57 200.18 341.18 198.68 M 337.11 206.99 C 339.70 209.93 340.89 215.52 345.90 214.71 C 345.42 213.87 344.93 213.04 344.42 212.22 C 345.05 209.96 345.91 207.78 346.64 205.56 C 347.25 205.31 348.45 204.80 349.06 204.55 C 346.78 202.84 343.55 203.31 340.96 202.32 C 339.67 203.86 337.91 205.11 337.11 206.99 M 362.17 212.93 C 362.14 214.70 360.73 216.04 360.46 217.66 C 362.77 219.35 365.62 217.99 366.70 215.51 C 365.10 214.79 363.69 213.77 362.17 212.93 Z" />
<path fill="#010101" opacity="1.00" d=" M 411.08 223.13 C 415.02 221.81 418.95 224.21 422.94 223.33 C 427.17 222.65 431.35 223.88 435.41 224.96 C 435.50 225.57 435.67 226.81 435.76 227.42 C 434.24 227.28 432.77 227.00 431.31 226.60 C 431.98 227.95 432.97 229.42 432.42 230.99 C 431.30 234.43 430.48 237.96 429.09 241.31 C 424.34 241.48 420.71 238.15 416.94 235.83 C 413.18 234.74 409.30 233.97 405.84 232.03 C 406.22 231.07 406.39 229.93 407.29 229.29 C 406.26 226.67 408.45 223.63 411.08 223.13 M 409.21 230.33 C 411.91 232.27 415.42 232.11 418.30 233.64 C 418.30 231.15 418.87 228.68 418.75 226.19 C 416.62 225.44 414.14 225.48 411.92 225.89 C 409.66 226.31 410.54 229.02 409.21 230.33 M 427.12 236.21 C 425.03 235.86 422.96 235.48 420.87 235.22 C 422.85 236.55 425.00 237.63 427.24 238.49 C 427.98 236.66 428.50 234.75 428.52 232.77 C 428.03 233.91 427.57 235.05 427.12 236.21 Z" />
<path fill="#010101" opacity="1.00" d=" M 373.71 270.58 C 375.72 270.75 377.68 271.25 379.65 271.76 C 379.61 272.62 379.58 273.48 379.56 274.36 C 376.92 273.06 373.02 275.03 371.36 272.13 C 372.14 271.61 372.92 271.09 373.71 270.58 Z" />
<path fill="#010101" opacity="1.00" d=" M 342.99 288.21 C 344.86 287.33 347.02 286.98 349.08 286.65 C 352.54 289.14 356.64 290.54 360.22 292.87 C 363.73 295.25 368.14 295.25 372.08 296.50 C 378.28 299.16 385.19 300.68 391.94 300.20 C 392.78 302.49 395.70 307.10 391.64 307.71 C 391.15 306.30 390.69 304.89 390.27 303.48 C 384.58 302.41 378.18 302.53 373.13 299.59 C 368.12 297.89 362.44 298.06 358.00 294.91 C 355.30 293.45 352.67 291.82 349.88 290.56 C 347.73 290.34 345.57 290.52 343.43 290.40 C 343.32 289.86 343.10 288.76 342.99 288.21 Z" />
<path fill="#010101" opacity="1.00" d=" M 186.23 307.51 C 186.10 305.88 186.99 303.04 189.06 304.79 C 190.17 308.03 189.27 311.65 190.61 314.88 C 191.98 320.35 194.97 325.17 196.76 330.48 C 198.26 332.55 200.47 334.20 201.11 336.81 C 202.11 338.91 202.11 342.48 205.22 342.44 C 206.00 348.33 205.08 354.28 203.31 359.90 C 202.78 361.96 200.66 362.77 198.98 363.69 C 202.42 363.83 205.84 364.27 209.23 364.84 C 210.87 364.88 210.80 366.51 211.01 367.71 C 203.99 368.04 196.96 367.13 189.96 368.04 C 180.96 369.02 171.71 364.98 162.95 368.28 C 157.00 369.93 151.10 371.74 145.19 373.52 C 140.35 374.93 137.42 379.37 133.05 381.60 C 139.57 382.71 145.76 385.20 152.08 387.09 C 162.98 392.22 171.97 400.44 182.11 406.81 C 186.82 410.57 191.47 414.48 196.86 417.26 C 202.41 421.54 209.13 423.77 215.64 426.14 C 222.27 427.84 229.04 429.30 235.93 429.11 C 237.57 425.79 240.79 423.53 241.88 419.91 C 253.53 411.27 267.77 407.29 281.51 403.24 C 286.90 400.18 293.01 399.09 298.93 397.52 C 302.82 396.63 306.07 393.96 310.06 393.42 C 314.21 392.86 318.43 392.50 322.50 391.45 C 326.03 389.88 329.85 388.19 333.80 389.19 C 336.80 389.71 338.82 392.56 338.87 395.52 C 339.00 399.62 337.56 403.87 335.05 407.10 C 332.00 409.77 328.40 411.78 324.90 413.78 C 316.33 417.36 306.69 418.50 298.91 423.85 C 298.47 425.68 297.68 427.40 296.64 428.97 C 299.01 432.52 302.06 435.71 305.51 438.21 C 315.52 440.18 325.79 439.80 335.95 439.77 C 341.68 439.67 347.35 441.63 353.09 440.69 C 358.42 439.77 363.55 437.65 369.05 437.82 C 372.14 437.89 374.92 436.23 377.98 436.05 C 385.74 435.53 393.52 434.51 401.31 434.88 C 404.37 435.06 405.81 438.08 407.59 440.10 C 407.51 442.46 407.11 444.80 406.12 446.96 C 400.06 450.52 394.68 455.41 387.87 457.57 C 383.18 459.32 378.05 459.16 373.39 461.00 L 363.57 461.00 C 369.71 458.80 376.02 457.01 382.51 456.18 C 390.51 454.83 397.12 449.86 403.63 445.36 C 406.27 442.45 404.00 437.58 400.22 437.21 C 399.48 438.74 398.91 440.36 399.79 441.97 C 400.76 442.59 401.73 443.23 402.69 443.90 C 401.59 444.89 400.32 445.52 398.88 445.79 C 397.30 443.24 396.24 440.40 396.70 437.36 C 388.14 438.20 379.40 438.02 371.10 440.45 C 362.49 439.89 354.54 444.92 345.91 443.47 C 332.34 441.23 318.37 443.97 304.90 440.81 C 300.47 438.95 297.97 434.51 294.87 431.08 C 292.65 428.44 296.24 425.66 296.01 422.79 C 304.38 416.25 315.28 415.04 324.78 410.95 C 328.75 408.30 334.36 406.24 335.31 400.97 C 335.98 398.22 337.13 394.48 334.63 392.35 C 330.62 390.41 326.23 392.63 322.52 394.28 C 318.74 395.15 314.87 395.61 311.01 395.95 C 307.39 396.32 304.43 398.60 301.04 399.65 C 297.45 400.82 293.69 401.41 290.09 402.55 C 279.16 407.93 266.78 409.52 255.82 414.85 C 253.10 416.58 250.06 417.69 247.27 419.30 C 243.09 422.70 240.53 427.61 237.06 431.63 C 217.29 432.65 198.64 423.36 183.46 411.40 C 179.62 407.82 174.84 405.50 170.73 402.27 C 165.59 398.23 160.24 394.45 154.46 391.39 C 146.09 387.52 137.12 385.16 128.09 383.49 C 122.01 381.34 115.52 381.25 109.31 379.63 C 109.33 379.03 109.37 377.83 109.40 377.23 C 112.98 376.91 116.28 378.72 119.85 378.71 C 123.31 378.76 126.44 380.74 129.86 380.76 C 133.92 378.80 136.76 375.09 140.57 372.73 C 145.27 369.92 150.81 369.18 155.92 367.41 C 161.21 366.10 166.39 363.74 171.96 364.24 C 176.83 364.27 181.78 366.09 186.59 364.52 C 188.96 363.72 191.48 363.81 193.95 363.85 C 195.91 362.35 198.57 361.35 199.45 358.84 C 200.99 355.56 203.55 352.22 202.46 348.37 C 201.78 343.56 196.68 341.24 195.38 336.68 C 193.99 331.90 190.98 327.78 189.74 322.96 C 189.07 320.88 187.45 319.25 186.90 317.11 C 187.92 313.86 185.58 310.77 186.23 307.51 Z" />
<path fill="#010101" opacity="1.00" d=" M 308.84 396.64 C 311.26 396.02 313.92 397.67 314.73 399.98 C 314.20 400.39 313.68 400.81 313.17 401.24 C 311.83 399.49 308.75 399.28 308.84 396.64 Z" />
</g>
<g id="#020202ff">
<path fill="#020202" opacity="1.00" d=" M 342.65 150.46 C 350.67 152.56 359.11 151.58 367.18 153.48 C 373.42 154.97 379.85 155.50 385.99 157.42 C 389.51 159.93 393.14 162.33 397.14 164.04 C 406.21 167.00 415.79 167.83 424.97 170.35 C 428.43 172.58 430.87 176.06 433.77 178.93 C 433.64 179.37 433.37 180.24 433.24 180.67 C 429.88 177.97 427.80 173.91 423.98 171.75 C 416.74 169.77 409.23 169.06 402.01 166.98 C 396.09 166.33 391.05 162.98 386.27 159.70 C 384.16 158.09 381.43 157.93 378.94 157.37 C 370.95 156.19 363.10 153.87 354.97 153.73 C 350.75 153.33 346.47 153.31 342.39 152.06 C 342.45 151.66 342.58 150.86 342.65 150.46 Z" />
<path fill="#020202" opacity="1.00" d=" M 373.22 193.11 C 377.26 194.45 379.26 199.52 378.45 203.49 C 378.03 203.49 377.18 203.49 376.76 203.49 C 377.26 201.15 376.52 198.83 375.35 196.81 C 374.46 195.66 373.09 194.74 373.22 193.11 Z" />
<path fill="#020202" opacity="1.00" d=" M 409.39 204.25 C 409.78 204.20 410.57 204.09 410.97 204.04 C 409.87 207.98 409.29 212.29 407.09 215.78 C 405.86 211.86 408.67 208.06 409.39 204.25 Z" />
<path fill="#020202" opacity="1.00" d=" M 396.05 253.19 C 394.67 248.44 394.05 242.87 396.80 238.45 C 399.53 238.37 398.16 241.51 398.03 243.01 C 397.10 246.03 398.61 249.00 398.56 252.04 C 401.56 256.57 404.04 261.46 407.09 265.98 C 405.32 270.21 402.37 274.03 398.59 276.62 C 398.26 279.55 396.46 283.26 392.95 282.80 C 391.71 281.88 390.82 280.53 389.49 279.75 C 388.48 278.93 385.29 278.78 386.97 276.72 C 390.00 275.75 392.05 278.11 394.14 279.77 C 395.96 278.87 395.44 276.48 395.99 274.86 C 397.25 274.30 398.54 273.66 399.26 272.43 C 400.65 270.24 403.05 268.72 403.82 266.17 C 401.03 261.96 398.83 257.40 396.05 253.19 Z" />
</g>
<g id="#070707ff">
<path fill="#070707" opacity="1.00" d=" M 325.26 164.26 C 330.01 163.86 334.45 165.85 339.06 166.58 C 348.42 166.69 357.67 165.29 367.03 165.74 C 373.66 164.58 380.19 166.89 385.91 170.08 C 388.21 171.84 390.50 173.62 393.14 174.86 C 394.39 176.18 396.33 176.18 397.97 176.67 C 403.93 177.95 409.85 179.43 415.59 181.51 C 419.02 182.76 423.85 182.18 425.74 186.01 C 425.67 186.47 425.53 187.37 425.47 187.82 C 423.89 186.53 422.72 184.56 420.51 184.33 C 414.16 183.18 408.22 180.52 401.91 179.25 C 398.25 178.09 394.05 178.26 391.01 175.62 C 387.73 174.15 385.48 171.03 381.94 170.10 C 378.33 168.13 374.23 166.78 370.07 167.29 C 364.03 167.91 357.92 166.67 351.94 168.01 C 347.64 168.26 343.32 168.25 339.02 168.20 C 334.53 167.32 330.11 166.11 325.56 165.56 C 325.49 165.24 325.34 164.59 325.26 164.26 Z" />
</g>
<g id="#080808ff">
<path fill="#080808" opacity="1.00" d=" M 410.66 194.79 C 412.73 194.98 414.81 194.87 416.76 194.07 C 420.36 194.77 423.92 196.18 427.64 195.69 C 430.47 198.03 432.74 200.93 434.79 203.96 C 435.87 205.61 438.00 206.84 437.83 209.07 C 432.98 206.68 431.56 200.79 427.32 197.62 C 423.72 197.73 420.32 196.45 416.84 195.77 C 414.58 197.01 411.90 196.28 409.54 197.23 C 409.14 197.00 408.34 196.54 407.94 196.31 C 408.84 195.79 409.74 195.28 410.66 194.79 Z" />
</g>
<g id="#fefefeff">
<path fill="#fefefe" opacity="1.00" d=" M 337.11 206.99 C 337.91 205.11 339.67 203.86 340.96 202.32 C 343.55 203.31 346.78 202.84 349.06 204.55 C 348.45 204.80 347.25 205.31 346.64 205.56 C 345.91 207.78 345.05 209.96 344.42 212.22 C 344.93 213.04 345.42 213.87 345.90 214.71 C 340.89 215.52 339.70 209.93 337.11 206.99 Z" />
<path fill="#fefefe" opacity="1.00" d=" M 362.17 212.93 C 363.69 213.77 365.10 214.79 366.70 215.51 C 365.62 217.99 362.77 219.35 360.46 217.66 C 360.73 216.04 362.14 214.70 362.17 212.93 Z" />
<path fill="#fefefe" opacity="1.00" d=" M 409.21 230.33 C 410.54 229.02 409.66 226.31 411.92 225.89 C 414.14 225.48 416.62 225.44 418.75 226.19 C 418.87 228.68 418.30 231.15 418.30 233.64 C 415.42 232.11 411.91 232.27 409.21 230.33 Z" />
<path fill="#fefefe" opacity="1.00" d=" M 427.12 236.21 C 427.57 235.05 428.03 233.91 428.52 232.77 C 428.50 234.75 427.98 236.66 427.24 238.49 C 425.00 237.63 422.85 236.55 420.87 235.22 C 422.96 235.48 425.03 235.86 427.12 236.21 Z" />
</g>
<g id="#dededeff">
<path fill="#dedede" opacity="1.00" d=" M 444.27 204.31 C 445.74 204.49 445.78 207.45 444.27 207.55 C 443.10 207.00 442.84 204.68 444.27 204.31 Z" />
</g>
<g id="#000000ff">
<path fill="#000000" opacity="1.00" d=" M 359.19 257.12 C 361.11 257.69 363.11 257.97 365.11 257.54 C 366.42 257.11 368.19 258.18 367.64 259.69 C 365.30 261.03 362.44 260.46 359.89 260.22 C 358.02 259.48 358.40 262.10 358.18 263.08 C 358.69 265.74 359.03 268.98 361.76 270.35 C 363.74 270.77 366.71 270.96 365.88 273.77 C 361.98 273.85 357.30 272.20 356.35 267.96 C 354.84 264.80 355.42 261.37 356.54 258.19 C 357.41 257.83 358.30 257.47 359.19 257.12 Z" />
<path fill="#000000" opacity="1.00" d=" M 357.22 449.05 C 358.56 447.70 359.70 449.68 360.30 450.73 C 361.34 452.38 363.21 455.83 360.06 456.32 C 359.32 453.81 356.93 451.79 357.22 449.05 Z" />
</g>
<g id="#131313ff">
<path fill="#131313" opacity="1.00" d=" M 325.03 395.85 C 325.24 392.59 329.51 395.94 330.94 393.72 C 331.82 393.70 333.59 393.66 334.48 393.64 C 334.45 394.28 334.38 395.57 334.35 396.21 C 332.76 396.00 331.35 396.49 330.17 397.54 C 328.58 397.03 325.58 397.82 325.03 395.85 Z" />
<path fill="#131313" opacity="1.00" d=" M 401.36 461.00 C 405.58 460.65 409.97 459.80 414.13 461.00 L 401.36 461.00 Z" />
</g>
</svg>
