<?xml version="1.0" encoding="UTF-8" ?>
<!DOCTYPE svg PUBLIC "-//W3C//DTD SVG 1.1//EN" "http://www.w3.org/Graphics/SVG/1.1/DTD/svg11.dtd">
<svg width="500pt" height="461pt" viewBox="0 0 500 461" version="1.1" xmlns="http://www.w3.org/2000/svg">
<g id="#020101ff">
<path fill="#020101" opacity="1.00" d=" M 28.00 29.00 C 29.67 29.00 31.33 29.00 33.00 29.00 C 33.01 39.00 33.00 49.00 33.00 59.00 C 31.33 59.00 29.67 59.00 28.00 59.00 C 28.00 49.00 28.00 39.00 28.00 29.00 Z" />
<path fill="#020101" opacity="1.00" d=" M 50.01 29.00 C 51.67 29.00 53.33 29.00 55.00 29.00 C 55.00 33.00 55.00 37.01 55.00 41.01 L 55.73 40.97 C 56.15 38.37 58.92 37.24 60.01 34.98 C 61.10 32.74 63.87 31.62 64.27 29.01 C 66.58 29.00 68.88 28.99 71.18 28.98 C 70.32 30.49 69.54 32.07 68.24 33.25 C 66.22 35.07 65.29 37.80 63.02 39.38 C 63.03 39.92 63.07 41.00 63.08 41.54 C 63.93 42.83 64.65 44.19 65.29 45.60 C 66.46 48.37 68.26 50.78 69.76 53.37 C 70.62 55.22 71.61 57.02 72.23 58.97 C 70.24 59.00 68.26 59.01 66.27 58.99 C 64.49 54.15 61.52 49.85 59.72 45.02 C 59.36 45.02 58.64 45.01 58.27 45.01 C 58.03 46.97 56.35 48.14 55.02 49.39 C 54.98 52.59 55.00 55.79 55.00 59.00 C 53.33 59.00 51.67 59.00 50.00 59.00 C 50.00 49.00 50.00 39.00 50.01 29.00 Z" />
<path fill="#020101" opacity="1.00" d=" M 77.00 28.97 C 78.57 28.99 80.13 28.93 81.69 29.09 C 83.24 31.05 84.48 33.24 85.76 35.38 C 86.87 37.81 88.08 40.19 89.29 42.57 C 90.07 43.98 90.73 45.46 91.29 46.97 L 92.00 47.01 C 92.00 41.01 92.00 35.00 92.00 29.00 C 93.66 29.00 95.33 29.00 97.00 29.00 C 97.00 39.00 97.00 49.00 97.00 59.00 C 95.09 59.00 93.18 59.00 91.27 58.99 C 90.80 57.77 90.29 56.57 89.78 55.38 C 89.27 54.46 88.76 53.54 88.26 52.62 C 86.53 48.70 84.23 45.04 82.72 41.02 L 82.00 41.00 C 82.00 47.00 82.01 53.00 82.00 59.00 C 80.33 59.00 78.66 59.00 77.00 59.00 C 77.00 48.99 77.00 38.98 77.00 28.97 Z" />
<path fill="#020101" opacity="1.00" d=" M 111.43 29.03 C 113.81 28.99 116.19 28.99 118.57 29.04 C 121.65 30.77 124.26 33.29 125.92 36.42 C 125.97 36.95 126.06 38.02 126.11 38.55 C 127.66 39.94 126.78 42.25 127.04 44.05 C 126.80 45.83 127.62 48.07 126.11 49.44 C 126.06 49.98 125.97 51.05 125.92 51.59 C 124.26 54.72 121.64 57.24 118.57 58.96 C 116.18 59.02 113.79 59.01 111.40 58.96 C 108.34 57.22 105.75 54.71 104.09 51.59 C 104.04 51.05 103.94 49.97 103.89 49.43 C 102.32 48.07 103.22 45.76 102.96 43.97 C 103.21 42.19 102.36 39.92 103.89 38.55 C 103.94 38.02 104.03 36.95 104.08 36.41 C 105.75 33.29 108.35 30.76 111.43 29.03 M 112.39 34.99 C 110.70 36.61 109.21 38.41 108.04 40.43 C 107.98 42.82 107.99 45.20 108.04 47.58 C 109.22 49.59 110.70 51.38 112.37 53.00 C 114.12 52.99 115.87 52.99 117.63 53.00 C 119.30 51.38 120.78 49.58 121.96 47.57 C 122.01 45.19 122.01 42.81 121.97 40.43 C 120.79 38.42 119.30 36.63 117.64 35.01 C 115.89 35.01 114.14 35.01 112.39 34.99 Z" />
<path fill="#020101" opacity="1.00" d=" M 130.80 29.02 C 132.44 29.00 134.09 29.00 135.74 29.01 C 136.03 29.62 136.61 30.84 136.90 31.46 C 136.98 32.82 137.02 34.19 137.09 35.55 C 139.01 37.00 136.99 40.00 138.91 41.43 C 138.98 42.80 139.02 44.17 139.08 45.53 C 140.79 47.20 139.72 49.89 140.01 52.00 L 140.97 52.00 C 141.22 50.20 140.34 47.92 141.90 46.54 C 142.18 44.88 141.44 42.78 142.91 41.54 C 142.98 40.18 143.02 38.82 143.09 37.46 C 144.98 35.98 143.01 33.01 144.91 31.55 C 144.95 30.91 145.01 29.64 145.04 29.00 C 147.35 29.00 149.65 29.00 151.96 29.00 C 151.99 29.64 152.06 30.91 152.09 31.55 C 153.97 33.02 152.02 35.97 153.90 37.44 C 154.19 39.10 153.43 41.21 154.89 42.47 C 155.19 44.12 154.41 46.25 155.93 47.45 C 155.99 48.96 156.00 50.47 156.02 51.99 L 156.98 52.02 C 156.99 50.50 157.01 48.97 157.07 47.45 C 158.75 45.95 157.73 43.41 158.08 41.44 C 159.62 40.25 158.79 38.08 159.10 36.43 C 160.60 35.24 159.79 33.11 160.11 31.48 C 160.40 30.86 160.98 29.63 161.27 29.01 C 162.91 29.00 164.56 29.00 166.21 29.02 C 165.93 29.63 165.39 30.85 165.11 31.46 C 164.81 33.11 165.56 35.21 164.10 36.45 C 163.81 38.11 164.57 40.23 163.09 41.47 C 163.02 42.82 162.98 44.17 162.92 45.52 C 161.42 46.77 162.19 48.90 161.89 50.57 C 160.60 51.50 161.13 53.22 160.85 54.55 C 159.53 55.66 160.15 57.52 159.94 59.00 C 157.63 59.00 155.33 59.00 153.03 59.00 C 153.00 57.82 152.97 56.64 152.92 55.46 C 151.01 54.00 152.99 51.01 151.08 49.56 C 151.01 48.18 150.98 46.81 150.91 45.44 C 149.00 43.99 150.99 41.00 149.08 39.55 C 149.03 38.36 148.99 37.18 148.97 36.00 L 148.02 35.99 C 148.00 37.18 147.97 38.37 147.93 39.56 C 146.00 41.00 147.97 43.98 146.10 45.47 C 146.03 46.49 145.97 47.52 145.90 48.54 C 144.03 50.04 145.98 53.00 144.07 54.47 C 144.01 55.98 143.99 57.49 143.98 59.00 C 141.67 59.00 139.37 59.00 137.06 59.00 C 136.83 57.52 137.51 55.61 136.10 54.55 C 135.81 52.89 136.58 50.79 135.10 49.55 C 135.03 48.52 134.97 47.49 134.90 46.46 C 133.44 45.22 134.18 43.12 133.89 41.47 C 132.44 40.22 133.18 38.12 132.89 36.46 C 131.44 35.20 132.18 33.09 131.89 31.43 C 131.62 30.83 131.07 29.62 130.80 29.02 Z" />
<path fill="#020101" opacity="1.00" d=" M 179.00 29.00 C 186.00 29.00 193.00 29.00 200.00 29.00 C 200.00 31.00 200.00 33.00 200.00 35.00 C 197.33 35.00 194.66 35.00 192.00 35.00 C 191.99 43.00 192.01 51.00 192.00 59.00 C 190.33 59.00 188.66 59.00 187.00 59.00 C 186.99 51.00 187.01 43.00 186.99 35.00 C 184.33 35.00 181.67 35.00 179.00 35.00 C 179.00 33.00 179.00 31.00 179.00 29.00 Z" />
<path fill="#020101" opacity="1.00" d=" M 205.01 29.00 C 206.67 29.00 208.33 29.00 210.00 29.00 C 210.00 33.00 209.99 37.00 210.00 41.00 C 213.33 41.00 216.66 41.00 220.00 41.00 C 220.00 37.00 219.99 33.00 220.01 29.00 C 221.67 29.00 223.33 29.00 225.00 29.00 C 225.00 39.00 225.00 49.00 224.99 59.00 C 223.33 59.00 221.66 59.00 220.00 59.00 C 220.00 55.00 220.00 51.00 219.99 47.00 C 216.66 47.00 213.33 47.00 210.00 47.00 C 209.99 51.00 210.00 55.00 210.00 59.00 C 208.33 59.00 206.66 59.00 205.00 59.00 C 205.00 49.00 204.99 39.00 205.01 29.00 Z" />
<path fill="#020101" opacity="1.00" d=" M 238.12 29.00 C 240.37 29.00 242.62 29.00 244.87 29.00 C 244.76 30.33 245.09 31.48 245.88 32.46 C 245.94 32.98 246.06 34.02 246.12 34.54 C 247.64 35.81 246.35 38.19 247.88 39.45 C 247.94 39.98 248.06 41.03 248.13 41.55 C 249.06 42.68 248.98 44.25 249.77 45.46 C 249.85 46.56 250.19 47.55 250.78 48.44 C 250.84 49.55 251.18 50.54 251.78 51.43 C 251.81 52.58 252.18 53.58 252.88 54.44 C 252.94 54.96 253.06 56.00 253.13 56.52 C 253.40 57.14 253.94 58.38 254.21 59.00 C 251.44 59.36 247.39 59.35 247.79 55.47 C 247.09 54.44 246.78 53.29 246.87 52.00 C 243.29 52.00 239.71 52.00 236.13 52.00 C 236.21 53.28 235.90 54.43 235.21 55.44 C 235.63 59.34 231.56 59.36 228.79 59.00 C 229.03 58.38 229.52 57.16 229.77 56.54 C 229.86 55.45 230.20 54.46 230.77 53.55 C 230.86 52.45 231.19 51.45 231.78 50.54 C 231.84 49.41 232.21 48.41 232.88 47.54 C 232.94 47.02 233.06 45.97 233.12 45.45 C 233.80 44.59 234.17 43.59 234.22 42.46 C 235.51 41.08 234.44 38.84 235.88 37.54 C 235.94 37.02 236.06 35.98 236.13 35.46 C 236.80 34.58 237.16 33.58 237.22 32.44 C 237.91 31.43 238.21 30.28 238.12 29.00 M 241.03 34.96 C 241.00 35.60 240.94 36.90 240.91 37.55 C 239.38 38.78 240.55 41.07 239.23 42.43 C 239.03 43.72 238.67 44.97 237.89 46.03 C 240.30 45.99 242.70 45.99 245.11 46.03 C 244.32 44.97 243.96 43.73 243.77 42.45 C 242.45 41.08 243.61 38.79 242.09 37.56 C 242.06 36.92 241.99 35.66 241.96 35.03 L 241.03 34.96 Z" />
<path fill="#020101" opacity="1.00" d=" M 253.00 29.00 C 260.00 29.00 267.00 28.99 274.00 29.01 C 274.00 31.00 274.00 33.00 274.00 35.00 C 271.33 35.00 268.67 35.00 266.01 35.00 C 265.99 43.00 266.01 51.00 266.00 59.00 C 264.33 59.00 262.67 59.00 261.00 59.00 C 260.99 51.00 261.01 43.00 261.00 35.00 C 258.33 35.00 255.66 35.00 253.00 35.00 C 253.00 33.00 253.00 31.00 253.00 29.00 Z" />
<path fill="#020101" opacity="1.00" d=" M 290.00 29.00 C 295.67 29.00 301.33 29.00 307.00 29.00 C 307.00 31.00 307.00 33.00 307.00 35.00 C 303.00 35.00 299.00 35.00 295.00 35.00 C 295.00 36.67 295.00 38.33 295.00 40.00 C 298.33 40.00 301.66 40.00 305.00 40.00 C 305.00 42.00 305.00 44.00 305.00 45.99 C 301.67 46.00 298.34 46.00 295.01 46.00 C 294.99 50.33 295.00 54.66 295.00 59.00 C 293.33 59.00 291.66 59.00 290.00 59.00 C 290.00 49.00 290.00 39.00 290.00 29.00 Z" />
<path fill="#020101" opacity="1.00" d=" M 313.00 29.01 C 319.00 28.99 325.00 29.00 331.00 29.00 C 331.00 31.00 331.00 33.00 331.00 35.00 C 326.66 35.00 322.33 34.99 318.00 35.00 C 318.00 37.00 318.00 39.00 318.00 41.00 C 322.00 41.00 326.00 41.00 330.00 41.00 C 330.00 43.00 330.00 45.00 330.00 47.00 C 326.00 47.00 322.00 47.00 318.00 47.00 C 318.00 49.00 318.00 51.00 318.00 53.00 C 322.67 53.01 327.33 52.99 332.00 53.00 C 332.00 55.00 332.00 57.00 332.00 59.00 C 325.67 59.00 319.33 59.00 313.00 58.99 C 313.00 49.00 313.00 39.00 313.00 29.01 Z" />
<path fill="#020101" opacity="1.00" d=" M 338.00 29.00 C 344.00 29.00 350.00 29.00 356.00 29.00 C 356.00 31.00 356.00 33.00 356.00 35.00 C 351.66 35.00 347.33 35.00 343.00 35.00 C 343.00 37.00 343.00 39.00 343.00 41.00 C 347.00 41.00 351.00 40.99 355.00 41.01 C 355.00 43.00 355.00 45.00 355.00 46.99 C 351.00 47.00 347.00 47.00 343.00 47.00 C 343.00 49.00 343.00 51.00 343.00 52.99 C 347.66 53.01 352.33 52.99 357.00 53.00 C 357.00 55.00 357.00 57.00 357.00 59.00 C 350.66 59.00 344.33 59.00 338.00 59.00 C 338.00 49.00 338.00 39.00 338.00 29.00 Z" />
<path fill="#020101" opacity="1.00" d=" M 363.00 29.00 C 364.66 29.00 366.33 29.00 368.00 29.00 C 368.01 37.00 367.99 45.00 368.00 53.00 C 372.33 53.01 376.66 53.00 381.00 53.00 C 381.00 55.00 381.00 57.00 381.00 59.00 C 375.00 59.00 369.00 59.00 363.00 59.00 C 363.00 49.00 362.99 39.00 363.00 29.00 Z" />
<path fill="#020101" opacity="1.00" d=" M 397.00 29.00 C 401.85 29.02 406.71 28.95 411.57 29.05 C 413.94 30.20 415.80 32.05 416.96 34.43 C 416.98 36.14 416.98 37.85 416.98 39.56 C 416.10 41.02 415.09 42.40 413.93 43.64 C 415.67 44.87 416.91 46.60 417.96 48.42 C 417.98 50.13 417.98 51.84 417.96 53.56 C 416.80 55.94 414.94 57.79 412.57 58.95 C 407.38 59.06 402.19 58.98 397.00 59.00 C 397.00 49.00 397.00 39.00 397.00 29.00 M 402.00 35.01 C 402.00 37.00 402.00 39.00 402.00 40.99 C 404.86 40.96 407.74 41.15 410.60 40.91 C 412.67 39.81 412.67 36.23 410.64 35.09 C 407.76 34.85 404.87 35.03 402.00 35.01 M 402.00 47.00 C 402.00 49.00 401.99 50.99 402.00 52.99 C 405.19 52.95 408.40 53.17 411.59 52.90 C 413.53 52.14 412.87 49.86 413.05 48.27 C 412.42 47.97 411.17 47.37 410.54 47.08 C 407.69 46.95 404.85 47.00 402.00 47.00 Z" />
<path fill="#020101" opacity="1.00" d=" M 424.01 29.00 C 429.19 29.02 434.37 28.94 439.56 29.05 C 441.95 30.19 443.79 32.06 444.96 34.43 C 444.98 36.15 444.98 37.87 444.97 39.58 C 443.40 41.86 441.88 44.98 438.76 45.21 C 441.08 47.11 442.53 49.72 443.73 52.41 C 444.79 54.66 445.88 56.89 447.15 59.03 C 445.21 59.01 443.28 59.09 441.35 58.93 C 440.32 58.06 439.89 56.75 439.31 55.59 C 438.47 54.18 437.54 52.83 436.71 51.42 C 435.86 49.27 434.24 47.61 432.63 46.01 C 431.42 46.01 430.21 46.00 429.00 46.00 C 428.99 50.33 429.00 54.67 429.00 59.00 C 427.33 59.00 425.66 59.00 424.00 59.00 C 424.00 49.00 424.00 39.00 424.01 29.00 M 429.00 35.01 C 429.00 36.67 429.00 38.33 429.00 39.99 C 432.20 39.94 435.41 40.17 438.61 39.90 C 440.59 39.10 440.57 35.88 438.59 35.09 C 435.40 34.84 432.19 35.05 429.00 35.01 Z" />
<path fill="#020101" opacity="1.00" d=" M 458.41 29.05 C 460.79 28.98 463.18 28.98 465.58 29.04 C 468.65 30.77 471.26 33.29 472.92 36.42 C 472.97 36.95 473.06 38.01 473.11 38.54 C 474.65 39.91 473.78 42.19 474.04 43.98 C 473.78 45.78 474.65 48.07 473.11 49.46 C 473.06 49.99 472.96 51.05 472.92 51.57 C 471.25 54.71 468.65 57.24 465.57 58.96 C 463.18 59.01 460.80 59.01 458.42 58.96 C 455.34 57.24 452.75 54.70 451.08 51.58 C 451.03 51.05 450.94 49.98 450.89 49.44 C 449.36 48.05 450.20 45.78 449.96 43.98 C 450.20 42.19 449.35 39.92 450.89 38.55 C 450.94 38.01 451.04 36.94 451.09 36.41 C 452.75 33.29 455.35 30.79 458.41 29.05 M 459.38 35.00 C 457.70 36.62 456.20 38.41 455.03 40.43 C 454.98 42.80 454.98 45.18 455.03 47.56 C 456.21 49.57 457.69 51.37 459.36 53.00 C 461.11 52.99 462.87 52.99 464.64 53.00 C 466.30 51.38 467.77 49.59 468.96 47.59 C 469.01 45.20 469.01 42.81 468.96 40.42 C 467.79 38.41 466.29 36.61 464.62 35.00 C 462.87 35.01 461.12 35.01 459.38 35.00 Z" />
<path fill="#020101" opacity="1.00" d=" M 346.47 90.37 C 349.40 91.53 352.68 90.46 355.62 91.63 C 356.96 91.97 358.31 92.32 359.62 92.78 C 360.87 92.93 362.12 93.06 363.37 93.22 C 365.67 94.22 368.26 93.83 370.61 94.64 C 373.15 95.41 375.76 95.90 378.39 96.27 C 382.02 97.52 386.01 97.72 389.39 99.67 C 391.34 100.76 393.37 101.74 395.57 102.23 C 400.57 105.82 406.66 107.54 411.39 111.53 C 415.30 113.88 418.47 117.16 421.76 120.25 C 424.20 123.77 426.43 127.48 429.77 130.25 C 436.20 138.29 443.51 145.92 447.72 155.45 C 448.30 157.52 448.99 159.57 449.80 161.57 C 449.94 162.51 450.09 163.45 450.25 164.39 C 451.28 168.18 452.24 172.07 452.02 176.02 C 452.01 178.53 451.68 181.15 452.65 183.54 C 452.06 185.09 451.94 186.74 451.75 188.37 C 450.18 190.96 451.36 193.91 452.27 196.50 C 453.19 198.21 454.22 199.98 454.02 202.01 C 453.89 207.16 454.79 212.60 452.33 217.37 C 454.30 221.58 452.11 225.71 450.72 229.66 C 450.37 230.08 449.66 230.92 449.30 231.33 C 448.89 232.54 448.48 233.75 448.05 234.96 L 449.07 235.10 C 448.35 236.37 447.55 237.61 447.07 238.99 C 446.27 242.89 448.70 246.34 449.28 250.09 C 453.19 250.79 456.19 247.46 460.05 247.96 C 468.99 248.09 477.94 247.86 486.88 248.11 C 487.08 248.22 487.48 248.43 487.68 248.54 C 488.21 248.63 489.27 248.81 489.79 248.90 C 493.03 250.59 494.90 253.92 495.95 257.29 C 497.84 263.00 496.56 269.15 498.21 274.88 C 498.81 277.65 498.55 280.54 497.75 283.24 C 496.23 288.46 498.39 293.74 498.22 299.01 C 498.51 301.62 497.71 304.54 499.20 306.88 C 499.31 311.75 499.44 316.63 499.08 321.49 C 497.02 326.74 497.36 332.58 495.06 337.74 C 492.78 343.47 491.81 349.57 490.04 355.45 C 489.95 355.71 489.77 356.22 489.68 356.48 C 489.25 357.77 488.98 359.09 488.69 360.42 C 487.90 363.06 487.25 365.74 486.75 368.45 C 484.23 372.50 485.77 377.35 484.25 381.60 C 484.17 382.12 484.00 383.17 483.91 383.69 C 483.43 384.11 482.48 384.95 482.00 385.37 C 481.99 387.79 482.00 390.22 482.00 392.65 C 481.51 393.08 480.52 393.92 480.02 394.34 C 480.05 396.78 480.18 399.29 479.38 401.64 C 479.01 402.97 478.66 404.31 478.25 405.63 C 478.08 406.54 477.91 407.46 477.74 408.38 C 477.23 409.53 476.98 410.73 476.98 411.99 C 476.90 419.78 477.20 427.57 476.85 435.35 C 476.16 436.69 476.02 438.19 475.84 439.66 C 475.40 440.09 474.51 440.95 474.07 441.37 C 473.98 442.37 473.90 443.37 473.81 444.38 C 473.33 445.69 472.98 447.05 472.62 448.41 C 472.04 450.10 471.96 451.89 471.91 453.66 C 470.95 454.56 469.98 455.47 469.02 456.37 C 469.00 457.91 468.98 459.45 468.96 461.00 L 466.11 461.00 C 466.01 457.86 465.63 454.44 468.16 452.11 C 468.37 450.52 468.69 448.95 469.27 447.46 C 470.05 441.37 474.52 436.25 474.21 429.94 C 473.91 422.93 474.77 415.84 473.65 408.89 C 475.33 403.79 477.41 398.65 476.92 393.18 C 480.27 389.14 478.47 383.41 481.45 379.14 C 480.94 374.88 481.72 370.77 483.59 366.93 C 484.70 359.36 488.39 352.49 489.84 345.04 C 491.70 337.66 495.30 330.71 495.44 322.96 C 495.71 322.61 496.26 321.90 496.53 321.55 C 496.40 314.67 497.05 307.71 495.54 300.94 C 495.63 295.93 494.39 291.02 494.55 286.02 C 494.47 283.27 496.09 280.80 495.83 278.04 C 496.02 275.28 494.41 272.80 494.59 270.05 C 494.70 265.37 494.54 260.63 493.16 256.13 C 492.07 254.75 491.03 253.33 490.01 251.91 C 487.70 251.45 485.37 251.00 483.00 251.06 C 474.65 251.10 466.31 251.06 457.96 251.09 C 456.25 252.94 453.84 253.52 451.50 254.09 C 449.71 259.04 448.93 264.41 446.00 268.89 C 444.36 271.40 443.87 274.73 441.20 276.45 C 438.77 278.18 438.88 281.77 436.45 283.50 C 434.18 285.29 431.93 287.28 431.11 290.18 C 426.42 292.96 424.40 298.17 421.07 302.22 C 419.06 307.12 416.28 311.70 412.86 315.76 C 411.85 316.75 411.07 318.23 409.46 318.29 C 409.34 317.16 409.23 316.03 409.24 314.90 C 410.92 310.66 412.77 306.50 414.38 302.24 C 417.02 299.51 420.86 298.06 422.64 294.53 C 426.94 289.40 430.08 283.49 434.07 278.14 C 436.64 273.84 440.48 270.47 443.09 266.21 C 444.03 263.43 444.40 260.49 445.47 257.75 C 444.89 254.67 447.01 250.54 444.37 248.27 C 445.12 246.07 443.77 244.07 443.29 241.98 C 443.20 238.79 444.65 235.84 445.35 232.79 C 446.06 228.92 449.55 226.11 449.73 222.08 C 449.59 219.55 448.99 217.08 448.30 214.65 C 450.66 215.13 450.54 212.56 450.69 211.01 C 450.64 208.32 450.46 205.64 450.49 202.95 C 450.65 199.37 448.02 196.46 447.56 193.01 C 447.50 189.61 449.07 186.41 448.85 183.00 C 448.65 179.36 448.66 175.71 448.34 172.08 C 446.60 163.98 444.96 155.59 440.24 148.61 C 433.59 139.94 426.26 131.85 419.66 123.18 C 411.81 114.10 400.89 108.67 390.11 103.90 C 383.33 100.10 375.45 99.33 368.02 97.50 C 360.95 96.84 354.24 93.59 347.05 94.16 C 344.04 94.32 340.99 94.39 338.04 95.06 C 332.30 96.34 326.95 99.43 320.95 99.38 C 316.17 99.37 311.78 101.71 307.00 101.69 C 303.21 101.84 301.35 105.67 298.99 108.08 C 296.74 111.11 292.98 112.20 289.97 114.21 C 287.66 118.47 287.21 123.94 283.18 127.06 C 285.25 130.80 286.62 134.87 288.30 138.79 C 290.17 141.74 293.43 143.62 295.02 146.79 C 297.08 151.01 298.32 155.57 300.09 159.91 C 301.06 162.37 303.19 164.10 304.42 166.40 C 305.44 169.47 305.62 172.75 306.70 175.80 C 309.11 181.64 310.16 187.91 311.96 193.95 C 312.08 200.02 313.84 206.30 311.49 212.16 C 310.21 218.37 310.59 224.82 309.58 231.09 C 308.05 237.97 304.27 244.10 302.73 250.99 C 302.53 254.00 302.75 257.08 301.84 260.00 C 303.50 266.60 303.48 273.91 307.33 279.74 C 307.13 279.89 306.72 280.19 306.52 280.34 C 306.54 282.10 306.28 283.85 306.11 285.60 L 306.88 285.30 C 308.03 288.84 309.00 292.67 311.66 295.43 C 314.82 298.82 316.05 303.41 317.24 307.77 C 317.82 310.49 320.25 312.06 322.03 313.98 C 324.52 316.50 326.80 319.23 328.68 322.24 C 333.96 325.43 339.80 328.38 346.07 328.61 C 341.91 325.10 336.54 323.26 332.97 318.98 C 327.32 314.26 324.92 307.08 320.28 301.54 C 318.18 298.99 316.98 295.74 314.32 293.67 C 311.27 291.08 309.59 287.25 306.46 284.74 C 306.77 283.06 307.15 281.39 307.63 279.75 C 309.97 284.11 312.93 288.16 316.44 291.67 C 319.19 293.98 320.52 297.43 322.79 300.15 C 325.74 303.76 327.85 307.93 330.43 311.80 C 334.23 316.95 339.18 321.21 344.87 324.16 C 349.25 327.88 355.29 329.29 360.81 327.49 C 366.18 324.94 372.07 324.17 377.97 324.57 C 381.06 323.03 384.50 322.14 387.98 322.30 C 393.95 322.65 399.28 319.42 404.94 318.00 C 406.01 316.77 407.65 317.25 409.03 317.39 L 408.09 318.96 C 416.04 318.41 423.97 318.87 431.79 320.42 C 432.21 321.44 432.09 322.42 431.43 323.37 C 422.45 321.08 413.19 321.37 404.02 321.64 C 400.68 322.14 397.54 323.44 394.30 324.34 C 391.26 325.33 388.02 324.80 384.90 325.03 C 381.68 326.28 378.28 327.04 375.19 328.60 C 371.19 330.51 366.52 331.08 363.13 334.15 C 359.87 336.28 358.61 340.34 355.09 342.18 C 353.49 344.26 350.79 345.87 348.78 343.19 C 353.99 340.53 357.74 335.81 361.33 331.32 C 355.57 330.82 349.80 331.49 344.04 331.44 C 338.18 330.17 332.55 327.75 327.31 324.89 C 324.08 320.76 320.63 316.80 317.07 312.95 C 313.57 309.31 314.21 303.72 311.30 299.72 C 308.65 296.20 305.92 292.53 305.02 288.10 C 303.22 279.34 301.27 270.60 299.51 261.83 C 299.09 254.02 300.57 246.08 304.02 239.07 C 304.34 235.45 307.27 232.68 307.17 228.95 C 307.19 223.90 308.64 218.99 308.36 213.96 C 308.63 210.60 310.82 207.49 310.07 204.06 C 309.17 200.15 309.90 196.05 308.72 192.20 C 307.28 187.65 306.69 182.85 304.68 178.49 C 302.68 174.32 303.60 169.08 300.40 165.47 C 296.31 160.46 295.62 153.82 292.73 148.21 C 290.68 144.41 286.12 142.38 285.07 137.99 C 284.06 135.35 283.15 132.66 281.96 130.10 C 280.10 128.86 278.00 128.04 276.17 126.77 C 272.92 124.75 271.40 120.98 268.45 118.64 C 266.11 116.66 262.82 117.62 260.10 116.61 C 255.93 115.11 251.49 114.85 247.14 114.31 C 240.39 112.53 234.01 109.05 226.86 109.19 C 220.36 107.99 214.16 110.65 207.82 111.51 C 201.98 112.19 196.29 113.77 190.52 114.84 C 186.74 115.45 183.48 117.51 179.98 118.91 C 167.77 123.99 155.50 130.72 148.03 142.05 C 142.47 147.87 137.51 154.24 132.22 160.32 C 126.52 167.34 124.62 176.39 122.59 184.96 C 122.23 188.30 122.23 191.67 121.83 195.01 C 121.08 199.67 124.41 204.50 121.99 208.97 C 118.92 214.66 119.35 221.42 119.91 227.65 C 120.39 227.57 121.36 227.40 121.84 227.32 C 121.17 229.84 120.47 232.37 120.24 234.98 C 120.25 238.78 123.42 241.49 124.16 245.08 C 125.01 248.62 126.48 252.08 126.32 255.79 C 125.36 257.46 124.38 259.30 125.04 261.29 C 124.70 261.57 124.02 262.13 123.68 262.41 C 123.16 269.30 125.12 275.91 126.70 282.53 C 127.24 284.66 128.36 286.57 130.14 287.88 C 132.57 289.70 132.32 293.40 134.86 295.10 C 137.13 296.83 139.15 298.92 139.92 301.74 C 142.77 303.69 145.06 306.33 146.80 309.31 C 148.31 312.08 151.71 312.94 153.55 315.45 C 155.79 319.81 157.37 324.48 158.79 329.13 C 162.05 331.65 165.44 334.02 169.10 335.93 C 172.03 337.53 173.29 341.03 176.17 342.68 C 178.37 343.17 180.68 343.23 182.74 344.22 C 187.27 346.33 192.34 346.50 197.11 347.78 C 197.79 347.19 198.48 346.61 199.17 346.03 C 199.08 347.56 199.64 350.19 197.78 350.79 C 192.81 349.65 187.65 349.24 182.90 347.27 C 180.45 346.20 177.78 345.97 175.20 345.42 C 171.78 343.78 170.16 339.96 166.97 338.02 C 163.28 335.80 159.56 333.53 156.31 330.70 C 154.43 325.24 153.26 319.05 149.03 314.85 C 144.22 317.90 138.49 318.87 133.45 321.48 C 129.66 322.25 127.12 325.48 123.47 326.56 C 119.54 327.91 115.57 329.21 111.71 330.74 C 104.19 336.29 96.75 342.16 88.17 346.02 C 77.11 353.39 64.83 358.90 54.37 367.21 C 51.59 369.28 48.87 371.59 45.47 372.56 C 41.94 374.19 37.88 373.82 34.34 375.36 C 28.14 380.36 23.86 387.84 23.88 395.96 C 24.22 401.32 24.24 407.08 27.17 411.81 C 30.84 415.89 35.37 419.04 39.53 422.58 C 44.36 427.71 47.77 434.13 53.23 438.69 C 58.41 442.15 63.76 445.60 69.82 447.29 C 75.32 449.08 79.91 452.89 85.41 454.65 C 89.33 458.16 94.72 459.05 99.46 461.00 L 91.94 461.00 C 89.96 459.26 87.60 458.19 84.99 457.89 C 81.59 456.40 77.71 455.65 74.98 452.97 C 72.46 450.94 69.20 450.24 66.24 449.09 C 62.66 451.98 58.83 454.56 55.01 457.13 C 54.02 458.56 52.94 459.94 51.54 461.00 L 47.47 461.00 C 49.84 459.56 51.47 457.31 53.15 455.18 C 56.85 452.94 60.14 450.09 63.87 447.89 C 58.95 447.16 55.96 442.76 51.24 441.53 C 47.29 436.21 42.88 431.25 38.98 425.89 C 34.55 430.34 30.58 435.34 27.81 440.97 C 27.40 441.34 26.60 442.08 26.19 442.45 C 25.49 443.81 24.62 445.08 23.62 446.26 C 23.71 450.39 23.92 454.93 20.38 457.84 C 20.49 458.63 20.71 460.21 20.82 461.00 L 17.53 461.00 C 17.64 458.68 17.60 456.16 19.55 454.54 L 19.95 453.97 L 20.17 453.46 C 21.53 449.96 19.86 445.72 22.78 442.73 C 22.89 442.16 23.11 441.01 23.22 440.43 C 27.47 434.70 31.70 428.95 36.08 423.32 C 30.87 420.60 26.16 416.57 23.02 411.56 C 22.99 410.97 22.92 409.79 22.88 409.20 C 22.67 408.63 22.23 407.49 22.02 406.92 C 21.76 406.49 21.23 405.63 20.97 405.20 C 21.42 398.96 19.94 392.45 22.23 386.46 C 23.42 384.24 24.33 381.86 25.79 379.80 C 27.59 377.63 29.83 375.88 31.67 373.75 C 33.20 374.15 34.71 373.14 35.24 371.73 C 39.09 371.00 42.86 369.95 46.60 368.79 C 54.14 363.55 61.43 357.88 69.48 353.37 C 70.77 352.87 72.04 352.34 73.28 351.76 L 73.73 351.59 L 73.98 351.15 C 76.41 349.02 79.53 347.99 82.15 346.14 C 87.23 341.86 94.10 340.52 99.04 336.01 C 105.09 332.44 109.85 326.21 117.25 325.46 L 117.54 325.39 L 117.80 325.22 C 119.51 324.14 121.56 324.00 123.44 323.34 C 125.80 322.20 127.31 319.57 130.05 319.20 C 132.54 318.89 134.87 317.92 136.55 315.99 C 137.14 316.02 138.33 316.09 138.93 316.12 C 139.41 315.83 140.39 315.24 140.88 314.95 C 141.12 314.64 141.61 314.02 141.85 313.71 C 142.45 313.56 143.65 313.26 144.25 313.11 L 145.12 312.80 C 143.42 310.57 141.86 308.21 139.79 306.30 C 136.73 303.82 135.92 299.63 132.78 297.21 C 131.99 295.89 131.21 294.50 129.97 293.54 C 128.52 290.89 126.38 288.72 124.18 286.69 C 123.51 284.38 123.03 282.02 122.71 279.64 C 122.00 276.82 121.43 273.96 120.84 271.11 C 121.31 269.05 121.38 266.89 120.70 264.87 L 120.77 264.20 C 121.32 262.15 121.75 260.05 121.81 257.93 L 121.99 257.47 C 123.92 256.32 124.06 253.96 123.59 252.00 L 123.29 251.73 C 122.94 251.40 122.25 250.76 121.91 250.43 C 122.20 246.86 120.90 243.56 119.21 240.50 C 119.50 240.00 120.08 239.00 120.38 238.50 L 118.95 240.31 C 117.00 237.08 117.09 233.51 118.60 230.21 C 118.02 228.98 117.38 227.78 116.78 226.56 L 116.74 226.48 C 116.40 222.65 116.91 218.82 117.07 215.00 C 117.14 211.65 119.39 208.87 120.02 205.65 L 120.02 205.61 C 119.59 200.45 118.42 195.39 119.27 190.18 L 119.26 188.91 C 119.39 187.34 119.50 185.77 119.58 184.21 L 120.49 184.42 C 120.54 181.07 121.49 177.84 121.83 174.53 C 121.90 171.13 123.90 168.30 125.30 165.35 C 128.50 157.99 134.77 152.75 139.44 146.39 C 141.32 143.67 144.13 141.80 146.11 139.17 C 149.61 134.41 153.75 130.13 158.36 126.44 C 161.14 124.82 163.98 123.27 166.44 121.17 C 166.96 121.08 168.01 120.90 168.54 120.81 C 173.44 118.15 178.53 115.84 183.45 113.21 C 188.68 111.66 194.15 111.13 199.41 109.65 C 201.48 109.15 203.62 108.92 205.63 108.20 C 209.30 108.19 212.85 107.24 216.46 106.80 C 222.91 105.92 229.51 106.41 235.82 107.94 C 241.24 109.27 246.28 112.24 251.98 112.25 C 256.47 112.39 260.59 114.51 265.07 114.78 C 269.47 115.04 272.07 119.08 275.23 121.60 C 276.72 122.91 278.32 124.11 280.05 125.09 C 281.95 124.23 282.84 122.25 283.90 120.58 C 283.97 120.06 284.11 119.00 284.18 118.47 C 285.72 115.56 287.00 112.47 289.22 110.00 C 289.80 109.97 290.96 109.92 291.54 109.90 C 294.93 107.46 297.49 104.28 300.24 101.22 C 304.36 97.07 310.42 98.59 315.43 96.60 C 318.72 95.43 322.34 96.62 325.61 95.34 C 327.59 94.89 329.57 94.36 331.51 93.73 C 333.31 92.66 335.31 92.02 337.37 91.65 C 340.28 90.43 343.56 91.58 346.47 90.37 Z" />
<path fill="#020101" opacity="1.00" d=" M 342.28 150.52 C 348.72 152.00 355.37 151.84 361.91 152.58 C 369.85 154.11 377.87 155.27 385.71 157.31 C 389.30 159.80 393.00 162.14 396.96 164.04 C 406.10 166.88 415.69 167.86 424.92 170.33 C 428.64 172.86 431.47 176.53 434.41 179.90 C 433.88 179.88 432.82 179.84 432.29 179.82 C 428.86 176.80 426.57 171.83 421.62 171.11 C 413.69 169.54 405.75 168.03 397.90 166.07 C 391.29 164.39 386.75 158.12 379.79 157.51 C 371.49 156.33 363.37 153.83 354.94 153.72 C 351.29 153.27 347.55 153.54 344.01 152.42 C 342.97 152.33 342.33 151.53 342.28 150.52 Z" />
<path fill="#020101" opacity="1.00" d=" M 325.46 165.43 C 324.83 163.79 326.99 164.22 327.93 164.28 C 331.73 164.61 335.34 165.99 339.09 166.60 C 345.41 166.63 351.70 166.20 357.98 165.69 C 365.62 166.35 373.74 163.99 380.89 167.71 C 386.19 169.41 389.96 173.75 395.01 175.95 C 401.65 177.59 408.37 178.93 414.82 181.26 C 418.85 182.72 424.62 182.17 426.25 187.14 C 424.13 187.91 423.41 185.03 421.61 184.59 C 413.62 183.02 406.09 179.76 398.06 178.35 C 392.90 177.72 388.78 174.23 384.72 171.28 C 380.34 169.34 375.92 166.73 370.94 167.23 C 364.28 167.86 357.57 166.72 350.97 168.06 C 345.50 168.02 339.88 168.95 334.56 167.23 C 331.59 166.30 328.44 166.26 325.46 165.43 Z" />
<path fill="#020101" opacity="1.00" d=" M 333.31 181.21 C 340.89 178.25 348.97 180.04 356.83 179.47 C 363.09 180.81 369.30 182.37 375.54 183.77 C 375.36 184.74 375.12 185.70 374.83 186.65 C 374.24 186.04 373.66 185.42 373.09 184.80 C 367.67 183.68 362.33 182.21 356.90 181.17 C 351.91 181.37 346.89 181.44 341.91 180.89 C 339.22 181.44 336.58 182.22 333.88 182.70 L 333.31 181.21 Z" />
<path fill="#020101" opacity="1.00" d=" M 373.27 193.12 C 377.30 194.61 379.45 199.66 378.36 203.70 C 378.01 203.58 377.31 203.33 376.96 203.20 C 377.23 199.89 375.69 196.81 373.42 194.49 C 373.39 194.15 373.31 193.47 373.27 193.12 Z" />
<path fill="#020101" opacity="1.00" d=" M 410.80 194.79 C 412.87 194.98 414.92 194.64 416.94 194.21 C 420.46 194.75 423.85 196.06 427.46 195.82 C 431.82 198.72 434.18 203.69 437.66 207.50 C 437.72 207.90 437.84 208.71 437.90 209.11 C 433.12 206.91 431.79 201.14 427.79 198.00 C 424.10 197.33 420.38 196.74 416.78 195.65 C 416.31 195.89 415.38 196.37 414.91 196.61 C 412.75 195.59 409.46 198.44 408.26 196.17 C 409.09 195.68 409.93 195.22 410.80 194.79 Z" />
<path fill="#020101" opacity="1.00" d=" M 335.76 200.08 C 336.55 197.66 339.66 199.28 341.50 199.21 C 346.21 201.49 351.78 201.18 356.41 203.61 C 360.08 207.37 364.34 210.48 368.43 213.78 C 369.62 214.47 369.90 215.79 370.04 217.07 C 369.48 217.16 368.35 217.36 367.79 217.45 C 367.51 218.87 367.52 220.59 365.97 221.27 C 360.23 221.06 354.78 218.97 349.09 218.38 C 346.07 217.69 342.93 217.27 340.06 216.08 C 338.17 214.19 337.29 211.47 335.27 209.63 C 332.88 207.14 335.11 203.47 337.59 202.01 C 337.13 201.53 336.22 200.56 335.76 200.08 M 336.86 207.00 C 338.67 208.96 340.10 211.21 341.50 213.47 C 342.84 214.41 344.51 214.55 346.06 214.93 C 345.51 214.03 344.96 213.13 344.40 212.24 C 345.51 209.40 345.63 205.27 349.17 204.30 C 346.45 203.48 343.68 202.91 340.92 202.30 C 339.54 203.85 338.17 205.40 336.86 207.00 M 362.25 212.95 C 361.78 214.67 361.05 216.30 360.19 217.86 C 361.62 218.07 363.05 218.24 364.49 218.44 C 365.16 217.45 365.86 216.49 366.60 215.55 C 365.11 214.74 363.69 213.83 362.25 212.95 Z" />
<path fill="#020101" opacity="1.00" d=" M 409.34 204.40 C 409.78 204.28 410.65 204.05 411.08 203.93 C 410.21 207.66 408.86 211.26 407.91 214.96 L 406.54 215.36 C 406.79 211.55 408.32 208.03 409.34 204.40 Z" />
<path fill="#020101" opacity="1.00" d=" M 409.14 224.03 C 412.37 221.74 416.44 223.08 420.00 223.53 C 425.21 222.89 430.78 223.02 435.56 225.29 C 436.90 228.15 432.83 227.21 431.28 227.09 C 431.63 227.56 432.33 228.48 432.68 228.95 C 431.68 233.25 430.99 238.01 428.35 241.64 C 424.08 240.80 420.53 238.34 417.06 235.87 C 413.24 234.48 408.63 234.39 405.60 231.32 C 407.76 229.35 406.40 225.60 409.14 224.03 M 410.65 226.68 C 410.06 227.88 409.44 229.41 409.63 230.73 C 412.41 232.23 415.68 232.22 418.50 233.62 C 418.23 231.10 418.65 228.59 418.97 226.11 C 416.27 225.93 412.93 224.67 410.65 226.68 M 427.15 236.08 C 425.06 235.90 423.00 235.54 420.93 235.21 C 422.84 236.55 424.95 237.57 427.07 238.55 C 427.92 236.83 428.44 234.97 428.66 233.07 C 428.13 234.06 427.63 235.06 427.15 236.08 Z" />
<path fill="#020101" opacity="1.00" d=" M 395.50 252.21 C 395.25 247.67 393.73 242.41 396.92 238.50 C 399.51 238.52 398.19 241.51 398.00 242.95 C 397.00 245.94 398.71 248.85 398.51 251.86 C 401.54 256.44 403.88 261.44 407.09 265.90 C 405.42 270.22 402.31 273.94 398.61 276.66 C 398.30 279.78 396.39 282.68 393.08 283.08 C 391.29 280.90 388.95 279.42 386.55 278.06 C 388.10 274.40 392.53 278.06 394.14 280.03 C 395.49 278.71 395.66 276.83 396.04 275.09 C 399.28 272.74 402.15 269.58 403.89 265.97 C 400.69 261.65 398.46 256.70 395.50 252.21 Z" />
<path fill="#020101" opacity="1.00" d=" M 356.45 258.49 C 357.07 258.14 358.32 257.44 358.94 257.10 C 361.77 258.94 366.98 255.46 367.96 259.77 C 364.98 260.76 361.82 260.80 358.80 260.01 C 357.62 262.70 358.81 265.38 359.21 268.09 C 361.09 270.39 364.04 270.86 366.59 272.02 C 366.23 272.51 365.49 273.48 365.12 273.96 C 362.66 273.31 359.73 273.15 358.05 270.97 C 355.20 267.51 354.72 262.57 356.45 258.49 Z" />
<path fill="#020101" opacity="1.00" d=" M 371.41 271.96 C 373.88 269.89 377.21 270.71 379.78 272.11 C 380.15 276.30 375.13 272.54 372.92 273.92 C 372.54 273.43 371.79 272.45 371.41 271.96 Z" />
<path fill="#020101" opacity="1.00" d=" M 343.44 290.36 C 342.95 289.43 342.75 287.93 343.99 287.55 C 345.46 287.69 346.78 287.32 347.95 286.42 C 351.89 288.33 355.79 290.33 359.59 292.51 C 364.37 296.00 370.82 295.06 375.84 298.06 C 380.98 299.55 386.39 300.48 391.74 300.34 C 393.23 302.50 395.20 306.31 391.97 307.95 C 391.24 306.46 390.65 304.93 390.10 303.38 C 384.80 302.84 379.46 302.11 374.40 300.42 C 370.13 298.01 364.99 298.20 360.51 296.37 C 357.01 294.39 353.56 292.32 349.94 290.58 C 347.79 290.24 345.60 290.56 343.44 290.36 Z" />
<path fill="#020101" opacity="1.00" d=" M 186.09 309.87 C 186.38 307.94 185.61 304.76 188.13 304.12 C 189.96 305.10 189.49 307.29 189.68 308.99 C 189.88 316.77 194.30 323.43 196.81 330.57 C 197.97 332.30 199.82 333.54 200.59 335.53 C 201.85 338.02 201.89 341.46 204.87 342.65 C 206.47 347.95 204.91 353.81 203.57 359.09 C 203.20 361.53 200.88 362.66 199.01 363.83 C 202.41 363.80 205.78 364.22 209.12 364.85 C 210.47 365.08 212.22 366.28 210.65 367.56 C 204.47 368.30 198.23 367.09 192.04 367.87 C 183.67 369.03 175.34 366.37 166.98 367.21 C 159.89 369.00 152.92 371.25 145.89 373.28 C 140.77 374.64 137.37 378.98 133.20 381.93 C 137.84 382.08 142.09 384.06 146.48 385.33 C 155.05 387.30 162.08 392.91 169.23 397.73 C 174.68 402.36 181.15 405.59 186.52 410.33 C 200.58 421.28 217.72 429.49 235.90 429.01 C 237.80 425.85 240.60 423.31 242.02 419.86 C 245.16 416.75 249.60 415.44 253.33 413.18 C 257.94 410.33 263.30 409.20 268.31 407.27 C 273.94 405.08 280.12 404.39 285.43 401.40 C 291.57 398.71 298.55 398.48 304.52 395.32 C 310.69 391.98 318.19 393.57 324.50 390.62 C 327.99 388.90 332.36 388.04 335.93 390.01 C 338.97 391.81 339.23 395.90 338.65 399.02 C 337.75 402.50 336.66 406.41 333.44 408.46 C 329.47 411.14 325.51 414.03 320.82 415.30 C 313.42 417.82 305.46 419.30 298.95 423.85 C 298.47 425.69 297.62 427.39 296.65 429.02 C 299.19 432.52 302.12 435.91 305.75 438.28 C 315.70 440.16 325.88 439.79 335.97 439.78 C 341.02 439.68 345.96 441.20 351.02 440.90 C 356.81 440.52 362.19 437.80 368.03 437.86 C 371.49 438.12 374.60 436.33 377.98 436.07 C 385.65 435.45 393.32 434.65 401.02 434.81 C 404.20 434.86 405.79 437.99 407.59 440.11 C 407.34 442.55 407.61 445.62 405.41 447.28 C 400.04 450.98 394.73 455.02 388.57 457.33 C 383.78 459.21 378.50 459.10 373.71 461.00 L 363.68 461.00 C 369.92 458.51 376.53 457.07 383.15 456.03 C 390.88 454.58 397.33 449.79 403.58 445.31 C 406.32 442.46 403.93 438.10 400.63 436.98 C 399.55 438.47 398.81 440.20 399.80 441.96 C 400.33 442.28 401.39 442.90 401.92 443.21 C 402.54 445.26 399.32 446.72 398.39 444.67 C 396.62 442.63 396.63 439.90 396.64 437.37 C 388.13 438.27 379.41 437.97 371.16 440.46 C 365.46 440.26 360.01 441.91 354.53 443.20 C 348.00 444.75 341.48 442.24 334.93 442.49 C 325.23 442.58 315.48 442.74 305.87 441.14 C 301.69 440.14 299.40 436.18 296.63 433.27 C 295.64 431.96 293.94 430.79 294.11 428.96 C 294.46 426.85 295.94 425.07 295.95 422.87 C 307.07 413.79 323.55 415.25 333.72 404.65 C 335.81 401.08 336.86 396.52 335.37 392.53 C 332.27 391.25 328.78 391.39 325.78 392.88 C 321.02 395.38 315.48 395.45 310.25 395.91 C 311.80 396.95 313.34 398.05 314.82 399.21 C 314.57 399.68 314.05 400.64 313.80 401.12 C 312.28 400.28 310.78 399.43 309.26 398.61 C 309.05 398.01 308.62 396.80 308.41 396.20 C 303.01 399.64 296.69 400.79 290.61 402.40 C 278.20 408.42 263.94 409.81 252.00 416.92 C 245.13 419.28 241.26 425.91 237.49 431.67 C 217.36 432.76 198.37 423.26 183.00 411.00 C 179.44 407.77 175.09 405.65 171.32 402.71 C 163.73 396.86 155.80 390.99 146.49 388.25 C 142.00 386.85 137.57 385.11 132.87 384.52 C 127.86 383.79 123.16 381.61 118.08 381.27 C 114.98 380.98 111.97 380.16 108.94 379.48 C 109.41 378.62 109.44 376.76 110.89 377.09 C 113.92 377.48 116.81 378.64 119.89 378.70 C 123.34 378.85 126.50 380.59 129.91 380.82 C 135.00 378.10 138.45 372.89 144.06 371.01 C 151.13 368.64 158.37 366.79 165.53 364.72 C 171.67 363.22 177.89 365.40 184.07 365.08 C 187.31 364.25 190.58 363.54 193.96 363.83 C 195.47 362.73 197.16 361.83 198.52 360.52 C 200.15 357.10 202.51 353.89 202.86 350.00 C 202.40 348.47 202.02 346.92 201.66 345.37 C 199.34 342.65 196.61 340.11 195.38 336.67 C 193.63 331.54 190.82 326.85 189.14 321.69 C 186.39 318.32 187.53 313.76 186.09 309.87 Z" />
<path fill="#020101" opacity="1.00" d=" M 329.53 394.56 C 331.01 393.71 333.94 392.51 334.70 394.84 C 334.20 396.99 331.31 395.89 330.14 397.53 C 328.16 397.06 324.96 397.74 324.70 394.91 C 326.26 394.24 327.90 394.41 329.53 394.56 Z" />
<path fill="#020101" opacity="1.00" d=" M 357.28 450.94 C 356.66 449.89 357.27 448.55 358.50 448.57 C 360.49 450.15 361.30 452.77 362.23 455.05 C 361.70 455.36 360.64 455.98 360.11 456.28 C 359.25 454.45 358.23 452.71 357.28 450.94 Z" />
</g>
<g id="#ffffffff">
<path fill="#ffffff" opacity="1.00" d=" M 338.04 95.06 C 340.99 94.39 344.04 94.32 347.05 94.16 C 354.24 93.59 360.95 96.84 368.02 97.50 C 375.45 99.33 383.33 100.10 390.11 103.90 C 400.89 108.67 411.81 114.10 419.66 123.18 C 426.26 131.85 433.59 139.94 440.24 148.61 C 444.96 155.59 446.60 163.98 448.34 172.08 C 448.66 175.71 448.65 179.36 448.85 183.00 C 449.07 186.41 447.50 189.61 447.56 193.01 C 448.02 196.46 450.65 199.37 450.49 202.95 C 450.46 205.64 450.64 208.32 450.69 211.01 C 450.54 212.56 450.66 215.13 448.30 214.65 C 448.99 217.08 449.59 219.55 449.73 222.08 C 449.55 226.11 446.06 228.92 445.35 232.79 C 444.65 235.84 443.20 238.79 443.29 241.98 C 443.77 244.07 445.12 246.07 444.37 248.27 C 447.01 250.54 444.89 254.67 445.47 257.75 C 444.40 260.49 444.03 263.43 443.09 266.21 C 440.48 270.47 436.64 273.84 434.07 278.14 C 430.08 283.49 426.94 289.40 422.64 294.53 C 420.86 298.06 417.02 299.51 414.38 302.24 C 412.77 306.50 410.92 310.66 409.24 314.90 C 409.23 316.03 409.34 317.16 409.46 318.29 C 411.07 318.23 411.85 316.75 412.86 315.76 C 416.28 311.70 419.06 307.12 421.07 302.22 C 424.40 298.17 426.42 292.96 431.11 290.18 C 431.93 287.28 434.18 285.29 436.45 283.50 C 438.88 281.77 438.77 278.18 441.20 276.45 C 443.87 274.73 444.36 271.40 446.00 268.89 C 448.93 264.41 449.71 259.04 451.50 254.09 C 453.84 253.52 456.25 252.94 457.96 251.09 C 466.31 251.06 474.65 251.10 483.00 251.06 C 485.37 251.00 487.70 251.45 490.01 251.91 C 491.03 253.33 492.07 254.75 493.16 256.13 C 494.54 260.63 494.70 265.37 494.59 270.05 C 494.41 272.80 496.02 275.28 495.83 278.04 C 496.09 280.80 494.47 283.27 494.55 286.02 C 494.39 291.02 495.63 295.93 495.54 300.94 C 497.05 307.71 496.40 314.67 496.53 321.55 C 496.26 321.90 495.71 322.61 495.44 322.96 C 495.30 330.71 491.70 337.66 489.84 345.04 C 488.39 352.49 484.70 359.36 483.59 366.93 C 481.72 370.77 480.94 374.88 481.45 379.14 C 478.47 383.41 480.27 389.14 476.92 393.18 C 477.41 398.65 475.33 403.79 473.65 408.89 C 474.77 415.84 473.91 422.93 474.21 429.94 C 474.52 436.25 470.05 441.37 469.27 447.46 C 468.69 448.95 468.37 450.52 468.16 452.11 C 465.63 454.44 466.01 457.86 466.11 461.00 L 373.71 461.00 C 378.50 459.10 383.78 459.21 388.57 457.33 C 394.73 455.02 400.04 450.98 405.41 447.28 C 407.61 445.62 407.34 442.55 407.59 440.11 C 405.79 437.99 404.20 434.86 401.02 434.81 C 393.32 434.65 385.65 435.45 377.98 436.07 C 374.60 436.33 371.49 438.12 368.03 437.86 C 362.19 437.80 356.81 440.52 351.02 440.90 C 345.96 441.20 341.02 439.68 335.97 439.78 C 325.88 439.79 315.70 440.16 305.75 438.28 C 302.12 435.91 299.19 432.52 296.65 429.02 C 297.62 427.39 298.47 425.69 298.95 423.85 C 305.46 419.30 313.42 417.82 320.82 415.30 C 325.51 414.03 329.47 411.14 333.44 408.46 C 336.66 406.41 337.75 402.50 338.65 399.02 C 339.23 395.90 338.97 391.81 335.93 390.01 C 332.36 388.04 327.99 388.90 324.50 390.62 C 318.19 393.57 310.69 391.98 304.52 395.32 C 298.55 398.48 291.57 398.71 285.43 401.40 C 280.12 404.39 273.94 405.08 268.31 407.27 C 263.30 409.20 257.94 410.33 253.33 413.18 C 249.60 415.44 245.16 416.75 242.02 419.86 C 240.60 423.31 237.80 425.85 235.90 429.01 C 217.72 429.49 200.58 421.28 186.52 410.33 C 181.15 405.59 174.68 402.36 169.23 397.73 C 162.08 392.91 155.05 387.30 146.48 385.33 C 142.09 384.06 137.84 382.08 133.20 381.93 C 137.37 378.98 140.77 374.64 145.89 373.28 C 152.92 371.25 159.89 369.00 166.98 367.21 C 175.34 366.37 183.67 369.03 192.04 367.87 C 198.23 367.09 204.47 368.30 210.65 367.56 C 212.22 366.28 210.47 365.08 209.12 364.85 C 205.78 364.22 202.41 363.80 199.01 363.83 C 200.88 362.66 203.20 361.53 203.57 359.09 C 204.91 353.81 206.47 347.95 204.87 342.65 C 201.89 341.46 201.85 338.02 200.59 335.53 C 199.82 333.54 197.97 332.30 196.81 330.57 C 194.30 323.43 189.88 316.77 189.68 308.99 C 189.49 307.29 189.96 305.10 188.13 304.12 C 185.61 304.76 186.38 307.94 186.09 309.87 C 187.53 313.76 186.39 318.32 189.14 321.69 C 190.82 326.85 193.63 331.54 195.38 336.67 C 196.61 340.11 199.34 342.65 201.66 345.37 C 202.02 346.92 202.40 348.47 202.86 350.00 C 202.51 353.89 200.15 357.10 198.52 360.52 C 197.16 361.83 195.47 362.73 193.96 363.83 C 190.58 363.54 187.31 364.25 184.07 365.08 C 177.89 365.40 171.67 363.22 165.53 364.72 C 158.37 366.79 151.13 368.64 144.06 371.01 C 138.45 372.89 135.00 378.10 129.91 380.82 C 126.50 380.59 123.34 378.85 119.89 378.70 C 116.81 378.64 113.92 377.48 110.89 377.09 C 109.44 376.76 109.41 378.62 108.94 379.48 C 111.97 380.16 114.98 380.98 118.08 381.27 C 123.16 381.61 127.86 383.79 132.87 384.52 C 137.57 385.11 142.00 386.85 146.49 388.25 C 155.80 390.99 163.73 396.86 171.32 402.71 C 175.09 405.65 179.44 407.77 183.00 411.00 C 198.37 423.26 217.36 432.76 237.49 431.67 C 241.26 425.91 245.13 419.28 252.00 416.92 C 263.94 409.81 278.20 408.42 290.61 402.40 C 296.69 400.79 303.01 399.64 308.41 396.20 C 308.62 396.80 309.05 398.01 309.26 398.61 C 310.78 399.43 312.28 400.28 313.80 401.12 C 314.05 400.64 314.57 399.68 314.82 399.21 C 313.34 398.05 311.80 396.95 310.25 395.91 C 315.48 395.45 321.02 395.38 325.78 392.88 C 328.78 391.39 332.27 391.25 335.37 392.53 C 336.86 396.52 335.81 401.08 333.72 404.65 C 323.55 415.25 307.07 413.79 295.95 422.87 C 295.94 425.07 294.46 426.85 294.11 428.96 C 293.94 430.79 295.64 431.96 296.63 433.27 C 299.40 436.18 301.69 440.14 305.87 441.14 C 315.48 442.74 325.23 442.58 334.93 442.49 C 341.48 442.24 348.00 444.75 354.53 443.20 C 360.01 441.91 365.46 440.26 371.16 440.46 C 379.41 437.97 388.13 438.27 396.64 437.37 C 396.63 439.90 396.62 442.63 398.39 444.67 C 399.32 446.72 402.54 445.26 401.92 443.21 C 401.39 442.90 400.33 442.28 399.80 441.96 C 398.81 440.20 399.55 438.47 400.63 436.98 C 403.93 438.10 406.32 442.46 403.58 445.31 C 397.33 449.79 390.88 454.58 383.15 456.03 C 376.53 457.07 369.92 458.51 363.68 461.00 L 99.46 461.00 C 94.72 459.05 89.33 458.16 85.41 454.65 C 79.91 452.89 75.32 449.08 69.82 447.29 C 63.76 445.60 58.41 442.15 53.23 438.69 C 47.77 434.13 44.36 427.71 39.53 422.58 C 35.37 419.04 30.84 415.89 27.17 411.81 C 24.24 407.08 24.22 401.32 23.88 395.96 C 23.86 387.84 28.14 380.36 34.34 375.36 C 37.88 373.82 41.94 374.19 45.47 372.56 C 48.87 371.59 51.59 369.28 54.37 367.21 C 64.83 358.90 77.11 353.39 88.17 346.02 C 96.75 342.16 104.19 336.29 111.71 330.74 C 115.57 329.21 119.54 327.91 123.47 326.56 C 127.12 325.48 129.66 322.25 133.45 321.48 C 138.49 318.87 144.22 317.90 149.03 314.85 C 153.26 319.05 154.43 325.24 156.31 330.70 C 159.56 333.53 163.28 335.80 166.97 338.02 C 170.16 339.96 171.78 343.78 175.20 345.42 C 177.78 345.97 180.45 346.20 182.90 347.27 C 187.65 349.24 192.81 349.65 197.78 350.79 C 199.64 350.19 199.08 347.56 199.17 346.03 C 198.48 346.61 197.79 347.19 197.11 347.78 C 192.34 346.50 187.27 346.33 182.74 344.22 C 180.68 343.23 178.37 343.17 176.17 342.68 C 173.29 341.03 172.03 337.53 169.10 335.93 C 165.44 334.02 162.05 331.65 158.79 329.13 C 157.37 324.48 155.79 319.81 153.55 315.45 C 151.71 312.94 148.31 312.08 146.80 309.31 C 145.06 306.33 142.77 303.69 139.92 301.74 C 139.15 298.92 137.13 296.83 134.86 295.10 C 132.32 293.40 132.57 289.70 130.14 287.88 C 128.36 286.57 127.24 284.66 126.70 282.53 C 125.12 275.91 123.16 269.30 123.68 262.41 C 124.02 262.13 124.70 261.57 125.04 261.29 C 124.38 259.30 125.36 257.46 126.32 255.79 C 126.48 252.08 125.01 248.62 124.16 245.08 C 123.42 241.49 120.25 238.78 120.24 234.98 C 120.47 232.37 121.17 229.84 121.84 227.32 C 121.36 227.40 120.39 227.57 119.91 227.65 C 119.35 221.42 118.92 214.66 121.99 208.97 C 124.41 204.50 121.08 199.67 121.83 195.01 C 122.23 191.67 122.23 188.30 122.59 184.96 C 124.62 176.39 126.52 167.34 132.22 160.32 C 137.51 154.24 142.47 147.87 148.03 142.05 C 155.50 130.72 167.77 123.99 179.98 118.91 C 183.48 117.51 186.74 115.45 190.52 114.84 C 196.29 113.77 201.98 112.19 207.82 111.51 C 214.16 110.65 220.36 107.99 226.86 109.19 C 234.01 109.05 240.39 112.53 247.14 114.31 C 251.49 114.85 255.93 115.11 260.10 116.61 C 262.82 117.62 266.11 116.66 268.45 118.64 C 271.40 120.98 272.92 124.75 276.17 126.77 C 278.00 128.04 280.10 128.86 281.96 130.10 C 283.15 132.66 284.06 135.35 285.07 137.99 C 286.12 142.38 290.68 144.41 292.73 148.21 C 295.62 153.82 296.31 160.46 300.40 165.47 C 303.60 169.08 302.68 174.32 304.68 178.49 C 306.69 182.85 307.28 187.65 308.72 192.20 C 309.90 196.05 309.17 200.15 310.07 204.06 C 310.82 207.49 308.63 210.60 308.36 213.96 C 308.64 218.99 307.19 223.90 307.17 228.95 C 307.27 232.68 304.34 235.45 304.02 239.07 C 300.57 246.08 299.09 254.02 299.51 261.83 C 301.27 270.60 303.22 279.34 305.02 288.10 C 305.92 292.53 308.65 296.20 311.30 299.72 C 314.21 303.72 313.57 309.31 317.07 312.95 C 320.63 316.80 324.08 320.76 327.31 324.89 C 332.55 327.75 338.18 330.17 344.04 331.44 C 349.80 331.49 355.57 330.82 361.33 331.32 C 357.74 335.81 353.99 340.53 348.78 343.19 C 350.79 345.87 353.49 344.26 355.09 342.18 C 358.61 340.34 359.87 336.28 363.13 334.15 C 366.52 331.08 371.19 330.51 375.19 328.60 C 378.28 327.04 381.68 326.28 384.90 325.03 C 388.02 324.80 391.26 325.33 394.30 324.34 C 397.54 323.44 400.68 322.14 404.02 321.64 C 413.19 321.37 422.45 321.08 431.43 323.37 C 432.09 322.42 432.21 321.44 431.79 320.42 C 423.97 318.87 416.04 318.41 408.09 318.96 L 409.03 317.39 C 407.65 317.25 406.01 316.77 404.94 318.00 C 399.28 319.42 393.95 322.65 387.98 322.30 C 384.50 322.14 381.06 323.03 377.97 324.57 C 372.07 324.17 366.18 324.94 360.81 327.49 C 355.29 329.29 349.25 327.88 344.87 324.16 C 339.18 321.21 334.23 316.95 330.43 311.80 C 327.85 307.93 325.74 303.76 322.79 300.15 C 320.52 297.43 319.19 293.98 316.44 291.67 C 312.93 288.16 309.97 284.11 307.63 279.75 C 307.15 281.39 306.77 283.06 306.46 284.74 C 309.59 287.25 311.27 291.08 314.32 293.67 C 316.98 295.74 318.18 298.99 320.28 301.54 C 324.92 307.08 327.32 314.26 332.97 318.98 C 336.54 323.26 341.91 325.10 346.07 328.61 C 339.80 328.38 333.96 325.43 328.68 322.24 C 326.80 319.23 324.52 316.50 322.03 313.98 C 320.25 312.06 317.82 310.49 317.24 307.77 C 316.05 303.41 314.82 298.82 311.66 295.43 C 309.00 292.67 308.03 288.84 306.88 285.30 L 306.11 285.60 C 306.28 283.85 306.54 282.10 306.52 280.34 C 306.72 280.19 307.13 279.89 307.33 279.74 C 303.48 273.91 303.50 266.60 301.84 260.00 C 302.75 257.08 302.53 254.00 302.73 250.99 C 304.27 244.10 308.05 237.97 309.58 231.09 C 310.59 224.82 310.21 218.37 311.49 212.16 C 313.84 206.30 312.08 200.02 311.96 193.95 C 310.16 187.91 309.11 181.64 306.70 175.80 C 305.62 172.75 305.44 169.47 304.42 166.40 C 303.19 164.10 301.06 162.37 300.09 159.91 C 298.32 155.57 297.08 151.01 295.02 146.79 C 293.43 143.62 290.17 141.74 288.30 138.79 C 286.62 134.87 285.25 130.80 283.18 127.06 C 287.21 123.94 287.66 118.47 289.97 114.21 C 292.98 112.20 296.74 111.11 298.99 108.08 C 301.35 105.67 303.21 101.84 307.00 101.69 C 311.78 101.71 316.17 99.37 320.95 99.38 C 326.95 99.43 332.30 96.34 338.04 95.06 M 342.28 150.52 C 342.33 151.53 342.97 152.33 344.01 152.42 C 347.55 153.54 351.29 153.27 354.94 153.72 C 363.37 153.83 371.49 156.33 379.79 157.51 C 386.75 158.12 391.29 164.39 397.90 166.07 C 405.75 168.03 413.69 169.54 421.62 171.11 C 426.57 171.83 428.86 176.80 432.29 179.82 C 432.82 179.84 433.88 179.88 434.41 179.90 C 431.47 176.53 428.64 172.86 424.92 170.33 C 415.69 167.86 406.10 166.88 396.96 164.04 C 393.00 162.14 389.30 159.80 385.71 157.31 C 377.87 155.27 369.85 154.11 361.91 152.58 C 355.37 151.84 348.72 152.00 342.28 150.52 M 325.46 165.43 C 328.44 166.26 331.59 166.30 334.56 167.23 C 339.88 168.95 345.50 168.02 350.97 168.06 C 357.57 166.72 364.28 167.86 370.94 167.23 C 375.92 166.73 380.34 169.34 384.72 171.28 C 388.78 174.23 392.90 177.72 398.06 178.35 C 406.09 179.76 413.62 183.02 421.61 184.59 C 423.41 185.03 424.13 187.91 426.25 187.14 C 424.62 182.17 418.85 182.72 414.82 181.26 C 408.37 178.93 401.65 177.59 395.01 175.95 C 389.96 173.75 386.19 169.41 380.89 167.71 C 373.74 163.99 365.62 166.35 357.98 165.69 C 351.70 166.20 345.41 166.63 339.09 166.60 C 335.34 165.99 331.73 164.61 327.93 164.28 C 326.99 164.22 324.83 163.79 325.46 165.43 M 333.31 181.21 L 333.88 182.70 C 336.58 182.22 339.22 181.44 341.91 180.89 C 346.89 181.44 351.91 181.37 356.90 181.17 C 362.33 182.21 367.67 183.68 373.09 184.80 C 373.66 185.42 374.24 186.04 374.83 186.65 C 375.12 185.70 375.36 184.74 375.54 183.77 C 369.30 182.37 363.09 180.81 356.83 179.47 C 348.97 180.04 340.89 178.25 333.31 181.21 M 373.27 193.12 C 373.31 193.47 373.39 194.15 373.42 194.49 C 375.69 196.81 377.23 199.89 376.96 203.20 C 377.31 203.33 378.01 203.58 378.36 203.70 C 379.45 199.66 377.30 194.61 373.27 193.12 M 410.80 194.79 C 409.93 195.22 409.09 195.68 408.26 196.17 C 409.46 198.44 412.75 195.59 414.91 196.61 C 415.38 196.37 416.31 195.89 416.78 195.65 C 420.38 196.74 424.10 197.33 427.79 198.00 C 431.79 201.14 433.12 206.91 437.90 209.11 C 437.84 208.71 437.72 207.90 437.66 207.50 C 434.18 203.69 431.82 198.72 427.46 195.82 C 423.85 196.06 420.46 194.75 416.94 194.21 C 414.92 194.64 412.87 194.98 410.80 194.79 M 335.76 200.08 C 336.22 200.56 337.13 201.53 337.59 202.01 C 335.11 203.47 332.88 207.14 335.27 209.63 C 337.29 211.47 338.17 214.19 340.06 216.08 C 342.93 217.27 346.07 217.69 349.09 218.38 C 354.78 218.97 360.23 221.06 365.97 221.27 C 367.52 220.59 367.51 218.87 367.79 217.45 C 368.35 217.36 369.48 217.16 370.04 217.07 C 369.90 215.79 369.62 214.47 368.43 213.78 C 364.34 210.48 360.08 207.37 356.41 203.61 C 351.78 201.18 346.21 201.49 341.50 199.21 C 339.66 199.28 336.55 197.66 335.76 200.08 M 409.34 204.40 C 408.32 208.03 406.79 211.55 406.54 215.36 L 407.91 214.96 C 408.86 211.26 410.21 207.66 411.08 203.93 C 410.65 204.05 409.78 204.28 409.34 204.40 M 409.14 224.03 C 406.40 225.60 407.76 229.35 405.60 231.32 C 408.63 234.39 413.24 234.48 417.06 235.87 C 420.53 238.34 424.08 240.80 428.35 241.64 C 430.99 238.01 431.68 233.25 432.68 228.95 C 432.33 228.48 431.63 227.56 431.28 227.09 C 432.83 227.21 436.90 228.15 435.56 225.29 C 430.78 223.02 425.21 222.89 420.00 223.53 C 416.44 223.08 412.37 221.74 409.14 224.03 M 395.50 252.21 C 398.46 256.70 400.69 261.65 403.89 265.97 C 402.15 269.58 399.28 272.74 396.04 275.09 C 395.66 276.83 395.49 278.71 394.14 280.03 C 392.53 278.06 388.10 274.40 386.55 278.06 C 388.95 279.42 391.29 280.90 393.08 283.08 C 396.39 282.68 398.30 279.78 398.61 276.66 C 402.31 273.94 405.42 270.22 407.09 265.90 C 403.88 261.44 401.54 256.44 398.51 251.86 C 398.71 248.85 397.00 245.94 398.00 242.95 C 398.19 241.51 399.51 238.52 396.92 238.50 C 393.73 242.41 395.25 247.67 395.50 252.21 M 356.45 258.49 C 354.72 262.57 355.20 267.51 358.05 270.97 C 359.73 273.15 362.66 273.31 365.12 273.96 C 365.49 273.48 366.23 272.51 366.59 272.02 C 364.04 270.86 361.09 270.39 359.21 268.09 C 358.81 265.38 357.62 262.70 358.80 260.01 C 361.82 260.80 364.98 260.76 367.96 259.77 C 366.98 255.46 361.77 258.94 358.94 257.10 C 358.32 257.44 357.07 258.14 356.45 258.49 M 371.41 271.96 C 371.79 272.45 372.54 273.43 372.92 273.92 C 375.13 272.54 380.15 276.30 379.78 272.11 C 377.21 270.71 373.88 269.89 371.41 271.96 M 343.44 290.36 C 345.60 290.56 347.79 290.24 349.94 290.58 C 353.56 292.32 357.01 294.39 360.51 296.37 C 364.99 298.20 370.13 298.01 374.40 300.42 C 379.46 302.11 384.80 302.84 390.10 303.38 C 390.65 304.93 391.24 306.46 391.97 307.95 C 395.20 306.31 393.23 302.50 391.74 300.34 C 386.39 300.48 380.98 299.55 375.84 298.06 C 370.82 295.06 364.37 296.00 359.59 292.51 C 355.79 290.33 351.89 288.33 347.95 286.42 C 346.78 287.32 345.46 287.69 343.99 287.55 C 342.75 287.93 342.95 289.43 343.44 290.36 M 329.53 394.56 C 327.90 394.41 326.26 394.24 324.70 394.91 C 324.96 397.74 328.16 397.06 330.14 397.53 C 331.31 395.89 334.20 396.99 334.70 394.84 C 333.94 392.51 331.01 393.71 329.53 394.56 M 357.28 450.94 C 358.23 452.71 359.25 454.45 360.11 456.28 C 360.64 455.98 361.70 455.36 362.23 455.05 C 361.30 452.77 360.49 450.15 358.50 448.57 C 357.27 448.55 356.66 449.89 357.28 450.94 Z" />
<path fill="#ffffff" opacity="1.00" d=" M 216.46 106.80 C 216.87 106.61 217.68 106.23 218.08 106.04 C 222.87 106.26 227.91 105.26 232.53 106.78 C 234.22 107.00 235.99 106.98 237.54 107.79 C 238.01 107.90 238.94 108.12 239.41 108.23 C 240.41 108.63 241.44 108.99 242.47 109.33 C 243.81 109.85 245.17 110.34 246.50 110.90 C 248.14 110.99 249.78 111.07 251.42 111.19 C 253.20 112.40 255.40 111.95 257.42 112.17 C 258.41 112.61 259.41 113.03 260.42 113.44 C 262.66 114.26 265.09 113.98 267.43 114.10 C 268.41 114.93 269.43 115.76 270.59 116.33 C 272.39 117.84 274.15 119.48 275.23 121.60 C 272.07 119.08 269.47 115.04 265.07 114.78 C 260.59 114.51 256.47 112.39 251.98 112.25 C 246.28 112.24 241.24 109.27 235.82 107.94 C 229.51 106.41 222.91 105.92 216.46 106.80 Z" />
<path fill="#ffffff" opacity="1.00" d=" M 120.16 178.56 C 120.73 177.22 121.22 175.85 121.83 174.53 C 121.49 177.84 120.54 181.07 120.49 184.42 L 119.58 184.21 C 119.50 185.77 119.39 187.34 119.26 188.91 C 119.03 187.22 118.99 185.51 119.04 183.81 C 120.27 182.31 120.21 180.39 120.16 178.56 Z" />
<path fill="#ffffff" opacity="1.00" d=" M 119.27 190.18 C 118.42 195.39 119.59 200.45 120.02 205.61 C 118.18 203.53 119.90 200.43 118.06 198.39 C 117.49 196.34 119.27 194.18 118.14 192.32 C 118.42 191.78 118.99 190.71 119.27 190.18 Z" />
<path fill="#ffffff" opacity="1.00" d=" M 336.86 207.00 C 338.17 205.40 339.54 203.85 340.92 202.30 C 343.68 202.91 346.45 203.48 349.17 204.30 C 345.63 205.27 345.51 209.40 344.40 212.24 C 344.96 213.13 345.51 214.03 346.06 214.93 C 344.51 214.55 342.84 214.41 341.50 213.47 C 340.10 211.21 338.67 208.96 336.86 207.00 Z" />
<path fill="#ffffff" opacity="1.00" d=" M 118.20 208.39 C 118.78 207.45 119.38 206.54 120.02 205.65 C 119.39 208.87 117.14 211.65 117.07 215.00 C 116.91 218.82 116.40 222.65 116.74 226.48 L 116.12 225.49 C 115.88 221.50 116.06 217.50 116.17 213.52 C 117.11 211.92 118.04 210.27 118.20 208.39 Z" />
<path fill="#ffffff" opacity="1.00" d=" M 362.25 212.95 C 363.69 213.83 365.11 214.74 366.60 215.55 C 365.86 216.49 365.16 217.45 364.49 218.44 C 363.05 218.24 361.62 218.07 360.19 217.86 C 361.05 216.30 361.78 214.67 362.25 212.95 Z" />
<path fill="#ffffff" opacity="1.00" d=" M 410.65 226.68 C 412.93 224.67 416.27 225.93 418.97 226.11 C 418.65 228.59 418.23 231.10 418.50 233.62 C 415.68 232.22 412.41 232.23 409.63 230.73 C 409.44 229.41 410.06 227.88 410.65 226.68 Z" />
<path fill="#ffffff" opacity="1.00" d=" M 116.78 226.56 C 117.38 227.78 118.02 228.98 118.60 230.21 C 117.09 233.51 117.00 237.08 118.95 240.31 L 120.38 238.50 C 120.08 239.00 119.50 240.00 119.21 240.50 C 120.90 243.56 122.20 246.86 121.91 250.43 L 121.11 249.65 C 121.01 248.25 120.96 246.85 120.89 245.46 C 120.34 244.48 119.80 243.49 119.30 242.49 C 119.31 240.80 118.17 239.58 117.06 238.48 C 117.02 235.90 116.64 233.19 117.62 230.73 C 117.48 229.32 117.12 227.93 116.78 226.56 Z" />
<path fill="#ffffff" opacity="1.00" d=" M 427.15 236.08 C 427.63 235.06 428.13 234.06 428.66 233.07 C 428.44 234.97 427.92 236.83 427.07 238.55 C 424.95 237.57 422.84 236.55 420.93 235.21 C 423.00 235.54 425.06 235.90 427.15 236.08 Z" />
<path fill="#ffffff" opacity="1.00" d=" M 486.88 248.11 L 487.38 248.11 L 487.68 248.54 C 487.48 248.43 487.08 248.22 486.88 248.11 Z" />
<path fill="#ffffff" opacity="1.00" d=" M 489.79 248.90 C 490.24 248.97 491.12 249.11 491.56 249.18 C 492.30 249.89 493.03 250.62 493.74 251.38 C 494.65 253.24 495.81 254.98 496.96 256.71 C 496.88 258.37 496.73 260.08 497.28 261.69 C 499.18 265.39 496.70 269.98 498.84 273.57 C 499.04 276.49 499.07 279.43 498.82 282.35 C 497.18 285.43 498.18 289.12 498.12 292.47 C 500.01 296.05 498.64 300.41 498.72 304.28 C 499.04 304.47 499.68 304.86 500.00 305.06 L 500.00 322.73 C 498.27 324.14 499.44 326.59 498.29 328.30 C 497.12 330.15 496.79 332.27 496.77 334.43 C 496.34 335.42 495.94 336.43 495.57 337.45 C 495.21 338.44 494.89 339.45 494.59 340.47 C 494.20 341.76 493.90 343.08 493.66 344.41 C 493.18 346.10 492.75 347.80 492.26 349.49 C 492.03 351.28 491.61 353.04 490.71 354.63 L 490.04 355.45 C 491.81 349.57 492.78 343.47 495.06 337.74 C 497.36 332.58 497.02 326.74 499.08 321.49 C 499.44 316.63 499.31 311.75 499.20 306.88 C 497.71 304.54 498.51 301.62 498.22 299.01 C 498.39 293.74 496.23 288.46 497.75 283.24 C 498.55 280.54 498.81 277.65 498.21 274.88 C 496.56 269.15 497.84 263.00 495.95 257.29 C 494.90 253.92 493.03 250.59 489.79 248.90 Z" />
<path fill="#ffffff" opacity="1.00" d=" M 123.29 251.73 L 123.59 252.00 C 124.06 253.96 123.92 256.32 121.99 257.47 C 121.87 255.47 122.55 253.54 123.29 251.73 Z" />
<path fill="#ffffff" opacity="1.00" d=" M 119.95 260.25 C 120.56 259.46 121.17 258.68 121.81 257.93 C 121.75 260.05 121.32 262.15 120.77 264.20 C 119.65 263.20 119.58 261.61 119.95 260.25 Z" />
<path fill="#ffffff" opacity="1.00" d=" M 120.84 271.11 C 119.19 269.54 119.69 266.68 120.70 264.87 C 121.38 266.89 121.31 269.05 120.84 271.11 Z" />
<path fill="#ffffff" opacity="1.00" d=" M 129.97 293.54 C 131.21 294.50 131.99 295.89 132.78 297.21 C 130.74 297.47 129.18 295.46 129.97 293.54 Z" />
<path fill="#ffffff" opacity="1.00" d=" M 141.85 313.71 C 142.45 313.56 143.65 313.26 144.25 313.11 C 143.65 313.26 142.45 313.56 141.85 313.71 Z" />
<path fill="#ffffff" opacity="1.00" d=" M 139.10 315.32 C 139.54 315.22 140.43 315.04 140.88 314.95 C 140.39 315.24 139.41 315.83 138.93 316.12 L 139.10 315.32 Z" />
<path fill="#ffffff" opacity="1.00" d=" M 117.25 325.46 C 117.39 325.40 117.66 325.28 117.80 325.22 L 117.54 325.39 L 117.25 325.46 Z" />
<path fill="#ffffff" opacity="1.00" d=" M 73.51 351.30 L 73.98 351.15 L 73.73 351.59 L 73.28 351.76 L 73.51 351.30 Z" />
<path fill="#ffffff" opacity="1.00" d=" M 31.67 373.75 C 32.36 372.38 33.70 371.54 35.24 371.73 C 34.71 373.14 33.20 374.15 31.67 373.75 Z" />
<path fill="#ffffff" opacity="1.00" d=" M 22.02 406.92 C 22.23 407.49 22.67 408.63 22.88 409.20 C 22.67 408.63 22.23 407.49 22.02 406.92 Z" />
<path fill="#ffffff" opacity="1.00" d=" M 27.81 440.97 C 30.58 435.34 34.55 430.34 38.98 425.89 C 42.88 431.25 47.29 436.21 51.24 441.53 C 55.96 442.76 58.95 447.16 63.87 447.89 C 60.14 450.09 56.85 452.94 53.15 455.18 C 51.47 457.31 49.84 459.56 47.47 461.00 L 20.82 461.00 C 20.71 460.21 20.49 458.63 20.38 457.84 C 23.92 454.93 23.71 450.39 23.62 446.26 C 24.62 445.08 25.49 443.81 26.19 442.45 C 26.60 442.08 27.40 441.34 27.81 440.97 Z" />
<path fill="#ffffff" opacity="1.00" d=" M 20.02 445.47 C 20.97 444.58 21.89 443.66 22.78 442.73 C 19.86 445.72 21.53 449.96 20.17 453.46 C 19.98 450.79 19.96 448.13 20.02 445.47 Z" />
<path fill="#ffffff" opacity="1.00" d=" M 66.24 449.09 C 69.20 450.24 72.46 450.94 74.98 452.97 C 77.71 455.65 81.59 456.40 84.99 457.89 C 87.60 458.19 89.96 459.26 91.94 461.00 L 51.54 461.00 C 52.94 459.94 54.02 458.56 55.01 457.13 C 58.83 454.56 62.66 451.98 66.24 449.09 Z" />
<path fill="#ffffff" opacity="1.00" d=" M 16.98 456.42 C 17.97 455.60 18.94 454.76 19.95 453.97 L 19.55 454.54 C 17.60 456.16 17.64 458.68 17.53 461.00 L 17.10 461.00 C 17.04 459.47 17.01 457.94 16.98 456.42 Z" />
</g>
</svg>
