<?xml version="1.0" encoding="utf-8"?>
<!-- Generator: Adobe Illustrator 15.0.2, SVG Export Plug-In . SVG Version: 6.00 Build 0)  -->
<!DOCTYPE svg PUBLIC "-//W3C//DTD SVG 1.1//EN" "http://www.w3.org/Graphics/SVG/1.1/DTD/svg11.dtd">
<svg version="1.1" id="Layer_1" xmlns="http://www.w3.org/2000/svg" xmlns:xlink="http://www.w3.org/1999/xlink" x="0px" y="0px"
	 width="142px" height="144px" viewBox="0 0 142 144" enable-background="new 0 0 142 144" xml:space="preserve">
<path fill="#FFFFFF" d="M0,0h142v144H0V0 M43.47,9.73c-5.46,1.78-11.29,2.95-16.02,6.43c-6.4,3.03-11.23,8.41-15.26,14.08
	C8.74,37.4,6.92,45.25,5.73,53.07c0.16,8.72-1.48,17.3-2.99,25.84c-1.58,6.87-1.19,14-1.04,21c2.9,2.949,5.29,6.34,7.93,9.51
	c1.72,2.03,4.57,2.58,6.37,4.54c2.36,2.57,4.95,4.92,7.17,7.61c2.51,3.529,4.78,7.279,8.01,10.229c2.86,2.87,6.81,4.091,10.35,5.87
	c3.95,2.061,8.46,2.439,12.61,3.939c5.67,2.19,11.88,1.621,17.84,1.711c6.33,0.13,12.699-0.01,18.91-1.37
	c4.52-0.92,9.229-1.03,13.6-2.55c4.6-2.37,8.619-5.87,11.81-9.931c1.271-2.55,1.41-5.659,3.4-7.84c3.14-3.53,5.53-7.63,8.61-11.21
	c2.709-4.42,4.569-9.32,7.56-13.59c4.399-5.95,4.899-13.77,4.34-20.9c-0.239-4.14-3.66-7.06-4.351-11.05
	c-1.5-7.27-6.859-12.75-11.85-17.88c-4.38-4.22-9.119-8.49-15.09-10.23c-6.689-2.43-14.77-2.21-20-7.71
	c-3.96-3.47-4.561-8.93-6.641-13.46c-2.34-3.08-5.029-6.03-8.26-8.16C67.53,5.7,60.74,5.33,54.05,5.67
	C50.37,6.6,46.83,7.98,43.47,9.73z"/>
<path fill="#010101" d="M43.47,9.73c3.36-1.75,6.9-3.13,10.58-4.06c6.69-0.34,13.48,0.03,19.97,1.77c3.23,2.13,5.92,5.08,8.26,8.16
	c2.08,4.53,2.681,9.99,6.641,13.46c5.23,5.5,13.311,5.28,20,7.71c5.971,1.74,10.71,6.01,15.09,10.23
	c4.99,5.13,10.35,10.61,11.85,17.88c0.69,3.99,4.111,6.91,4.351,11.05c0.56,7.131,0.06,14.95-4.34,20.9
	c-2.99,4.27-4.851,9.17-7.56,13.59c-3.08,3.58-5.471,7.68-8.61,11.21c-1.99,2.181-2.13,5.29-3.4,7.84
	c-3.19,4.061-7.21,7.561-11.81,9.931c-4.37,1.52-9.08,1.63-13.6,2.55c-6.211,1.36-12.58,1.5-18.91,1.37
	c-5.96-0.09-12.17,0.479-17.84-1.711c-4.15-1.5-8.66-1.879-12.61-3.939c-3.54-1.779-7.49-3-10.35-5.87
	c-3.23-2.95-5.5-6.7-8.01-10.229c-2.22-2.69-4.81-5.04-7.17-7.61c-1.8-1.96-4.65-2.51-6.37-4.54c-2.64-3.17-5.03-6.561-7.93-9.51
	c-0.15-7-0.54-14.13,1.04-21c1.51-8.54,3.15-17.12,2.99-25.84c1.19-7.82,3.01-15.67,6.46-22.83c4.03-5.67,8.86-11.05,15.26-14.08
	C32.18,12.68,38.01,11.51,43.47,9.73 M59.61,9.28c-3.69-0.99-7.03,1.34-10.5,2.16c-7.16,1.9-14.09,4.48-20.75,7.67
	c-6.87,5.25-14.03,11.45-15.84,20.32c-3.66,7.03-1.86,15.17-3.78,22.62c3.39-0.21,2.35,4.06,4.45,5.68c1.16,1.82,5.2,2.21,4.37,4.82
	c-2.15-0.92-4.1-2.26-6.01-3.59c-0.68-0.09-2.02-0.26-2.7-0.34c0.7-0.17,2.1-0.5,2.81-0.67c-1.33-1.3-1.31-3.18-1.89-4.82
	C7.8,61.82,8.17,64.8,8,65.95c0.1,7.51-1.75,14.87-3.96,21.989C3.28,91.2,2.77,94.87,3.89,98.07c3.2,3.74,6.59,7.359,10.04,10.89
	c6.37,5,11.11,11.62,16.96,17.17c2.57,3.82,7.73,4.04,11.77,3.06c-1.08-2.899-4.78-3.789-6.77-6.09c2.64,1.26,4.93,3.141,7.54,4.461
	c-0.79,3.709,4.76,2.67,6.72,4.52c-1.51,0.41-2.88-0.471-4.27-0.891c-3.04-1.27-6.4-0.72-9.58-0.75c3.71,3.761,9.29,4.23,13.91,6.36
	c3.22,0.98,6.22,3.12,9.71,2.86c6.32-0.13,12.66,0.18,18.971-0.15c6.83-1.76,14-1.449,20.959-2.359
	c4.98-2.521,9.291-6.181,13.95-9.211c0.851-4.01,3.261-7.399,5.761-10.549c3.149-3.851,5.979-7.961,8.58-12.19
	c1.859-4.22,5.149-7.931,5.689-12.63c4.9-5,3.13-12.43,3.439-18.74c-3.59-7.25-7.569-14.33-11.789-21.22
	c-3.82-3.88-8.271-7.16-12.07-11.11c-6.86-4.55-15.42-4.24-23.131-6.28c-0.829,0.46-2.479,1.37-3.309,1.83
	c0.35-1.07,1.059-3.19,1.409-4.25c-2.04-3.89-5.7-6.71-7.33-10.81c-0.35-0.11-1.05-0.31-1.399-0.41l-0.381,1.41
	c-1.08-1.24-2.149-2.49-3.06-3.86c1.39,0.23,2.351,0.97,2.88,2.22c0.49-0.45,0.98-0.9,1.471-1.35c-1.91-5.7-7.701-7.92-11.551-11.91
	C65.82,7.92,62.63,8.18,59.61,9.28z"/>
<path fill="#FFFFFF" d="M59.61,9.28c3.02-1.1,6.21-1.36,9.4-1.19c3.85,3.99,9.641,6.21,11.551,11.91c-0.49,0.45-0.98,0.9-1.471,1.35
	c-0.529-1.25-1.49-1.99-2.88-2.22c0.91,1.37,1.979,2.62,3.06,3.86l0.381-1.41c0.35,0.1,1.05,0.3,1.399,0.41
	c1.63,4.1,5.29,6.92,7.33,10.81c-0.351,1.06-1.06,3.18-1.409,4.25c0.829-0.46,2.479-1.37,3.309-1.83
	c7.711,2.04,16.271,1.73,23.131,6.28c3.8,3.95,8.25,7.23,12.07,11.11c4.22,6.89,8.199,13.97,11.789,21.22
	c-0.31,6.311,1.461,13.74-3.439,18.74c-0.54,4.699-3.83,8.41-5.689,12.63c-2.601,4.229-5.431,8.34-8.58,12.19
	c-2.5,3.149-4.91,6.539-5.761,10.549c-4.659,3.03-8.97,6.69-13.95,9.211c-6.959,0.91-14.129,0.6-20.959,2.359
	c-6.311,0.33-12.65,0.021-18.971,0.15c-3.49,0.26-6.49-1.88-9.71-2.86c-4.62-2.13-10.2-2.6-13.91-6.36
	c3.18,0.03,6.54-0.52,9.58,0.75c1.39,0.42,2.76,1.301,4.27,0.891c-1.96-1.85-7.51-0.811-6.72-4.52c-2.61-1.32-4.9-3.201-7.54-4.461
	c1.99,2.301,5.69,3.19,6.77,6.09c-4.04,0.98-9.2,0.761-11.77-3.06c-5.85-5.55-10.59-12.17-16.96-17.17
	c-3.45-3.53-6.84-7.149-10.04-10.89c-1.12-3.2-0.61-6.87,0.15-10.131C6.25,80.82,8.1,73.46,8,65.95c0.17-1.15-0.2-4.13,1.77-2.82
	c0.58,1.64,0.56,3.52,1.89,4.82c-0.71,0.17-2.11,0.5-2.81,0.67c0.68,0.08,2.02,0.25,2.7,0.34c1.91,1.33,3.86,2.67,6.01,3.59
	c0.83-2.61-3.21-3-4.37-4.82c-2.1-1.62-1.06-5.89-4.45-5.68c1.92-7.45,0.12-15.59,3.78-22.62c1.81-8.87,8.97-15.07,15.84-20.32
	c6.66-3.19,13.59-5.77,20.75-7.67C52.58,10.62,55.92,8.29,59.61,9.28 M53.93,21.34c2.68-0.58,4.23-3.23,6.76-4.21
	c0.24-0.32,0.73-0.97,0.98-1.3C58.58,16.82,56.26,19.2,53.93,21.34 M61.8,19.33c-2.26,3.71-5.83,6.98-10.3,7.51
	c1.25-2.41,4.5-2.6,5.67-5.12c-2.97,1.46-5.6,4.23-9.19,3.78c-3.14,0.19-6.45-1.43-9.48-0.07c3.95,0.01,7.71,1.09,11.46,2.23
	c5.92,0.08,9.91-4.68,13.74-8.48C63.23,19.21,62.28,19.29,61.8,19.33 M50.08,21.45c-4.85,0.34-10.59-1.41-14.34,2.66
	c4.74-2.65,10.13-1.58,15.29-2c0.27-0.41,0.8-1.24,1.07-1.65C51.6,20.7,50.59,21.2,50.08,21.45 M66.48,25.36
	c-2.4,2.19-4.97,5.88-3.22,9.17c0.11-1,0.31-3,0.42-4l1.9-0.38c0.54,1.57-0.93,4.42,1.19,5.12c0.28-0.37,0.84-1.13,1.12-1.5
	c0.14,1.33,0.62,2.54,1.41,3.63c-0.39,0.58-1.19,1.72-1.58,2.3c2.98,2.45,7.45,1.51,10.94,0.89c3.43,0.28,6.869,0.1,10.3,0.07
	l-1.05,1.9c-6.99-1-13.78,2.42-20.78,0.82c-1.85-1.31-3.46-3.58-6.03-2.71c0.88,0.71,1.82,1.33,2.78,1.92
	c0.06,0.66,0.18,1.96,0.25,2.62c-1.66-0.8-4-1.82-3.53,1.28c0.94-0.08,2.82-0.26,3.76-0.35c-0.49,0.28-1.48,0.82-1.97,1.1
	c-0.23,0.94-0.46,1.88-0.71,2.81c0.98,2.77,3.14,5.2,3.03,8.26c-1.67-0.53-3.43-1.23-4.97,0.02c-0.16-0.54-0.48-1.64-0.64-2.19
	c-0.33,0.83-0.65,1.66-0.98,2.49c-0.42-0.54-1.25-1.62-1.66-2.16c-0.77,0.93-1.71,1.68-2.78,2.24c-0.31-0.9-0.61-1.79-0.92-2.69
	c-0.07,0.59-0.22,1.78-0.29,2.37c-1.42-0.28-2.84-0.56-4.26-0.83l0.49-1.9c-0.7,0.62-1.39,1.26-2.07,1.91
	c-1.97-1.05-4.19-0.75-6.31-0.46c3.78-3.25,8.26-5.51,12.15-8.63c1.71,1.89,4.1,1,5.48-0.8l-0.9,2.36c0.67-0.24,2.01-0.7,2.68-0.94
	c-0.87-1.24-1.47-2.63-2.21-3.95c-1.81,0.66-1.76,3.3-3.88,3.71c-0.15-2.78,1.59-5.09,2.39-7.64c-1.59,1.48-3.79,2.86-3.65,5.33
	c-2.51,3.84-7.29,5.42-10.44,8.69c-0.97-0.67-1.91-1.39-2.85-2.09l0.86-1.33c0.4,0.22,1.18,0.67,1.58,0.89
	c3.69-3.25,7.13-7.13,9.08-11.65c-1.1,0.6-2.19,1.24-3.27,1.89c-0.27-3.2-0.81-6.37-0.71-9.59c-0.9-1.02-1.74-2.09-2.71-3.03
	c-2.41,0.4-4.79,1.06-6.96,2.19c0.54,0.46,1.09,0.91,1.63,1.37c-0.76,0.37-2.28,1.1-3.04,1.47c-0.47,3.25-1.19,6.58,0.55,9.64
	l-2.37-0.84c0.91,1.43,1.87,2.83,2.88,4.19c-0.1-1.14-0.32-3.44-0.42-4.59l1.42,0.31c-0.91,1.81-0.43,2.87,1.42,3.19
	c-0.3-0.52-0.9-1.57-1.2-2.09c1.34,0.07,2.68,0.13,4.02,0.17l-0.54,0.82l-0.68,0.29c0.15,1.59,0.22,3.19,0.29,4.79
	c-1.9,0.16-3.8,0.05-5.7,0c-0.96-0.91-1.95-1.771-3.05-2.49c0.94,1.52,1.95,3,2.83,4.56c1.31-0.01,2.62-0.03,3.93-0.05
	c-1.87,3.03-1.61,6.63-1.24,10c0.96-1.53,0.67-3.31,0.58-5.01c1.5,1.07,2.75,3.01,4.77,3.09c5.71-0.13,11.42,1.22,17.09-0.02
	c-0.55,0.72-1.64,2.15-2.18,2.87c1.3-0.86,2.58-1.75,3.82-2.68c-0.15,1.26-0.46,3.79-0.62,5.05c0.68-1.4,1.15-2.89,1.62-4.37
	c1.45,0.45,2.83,1.11,4.33,1.37c2.27-0.41,4.53-1.35,6.86-0.73c0.3-0.18,0.89-0.54,1.19-0.73l0.27,0.58
	c0.109,0.3,0.34,0.88,0.46,1.17l1.021-1.01c1.05,0.8,2.119,1.56,3.229,2.27c-0.58-1.45-1.771-2.43-2.93-3.39
	c0.069-0.189,0.2-0.56,0.271-0.75l2.719-0.82c0.09,0.52,0.261,1.55,0.34,2.06c0.961,0.69,1.91,1.38,2.861,2.08
	c-0.721-1.63-1.721-3.12-3.041-4.32c2.48-0.41,5.101-0.28,7.471-1.24c1.56-1.03,2.83-2.43,4.32-3.56
	c0.039,1.58,0.549,3.06,1.389,4.4c-2.229,2.58-5.18,4.31-7.809,6.43c-0.941,0.38-1.881,0.76-2.82,1.14c-2.811,0.86-5.371,2.3-8,3.57
	c-2.42,0.14-5.641,0.94-6.63-2.14c-0.01,0.65-0.02,1.96-0.02,2.61c-6.35-1.15-12.13-4.7-18.64-4.94c8.3,2.19,16.37,6.91,25.25,5.19
	c3.221-1.3,6.24-3.12,9.641-3.95c2.38-1.55,4.68-3.23,6.99-4.87c0.5,1.48,0.96,2.97,1.4,4.47c-2.65,0.29-5.271,0.76-7.881,1.31
	c0.01,0.26,0.04,0.76,0.051,1.01c2.52-0.78,5.17-1.03,7.66-1.89c-1.5,3.64-1.811,7.61-1.811,11.51c0.54,0,1.619-0.01,2.17-0.02
	c-1.311-4.54,0.52-8.77,1.49-13.11c1.26-1.17,2.51-2.38,3.709-3.61c0.921-2.08,2.531-3.93,2.541-6.311
	c-1.961,3.96-4.301,7.7-7.811,10.47c-0.33-1.45-0.619-2.92-0.88-4.38c2.55-2.94,5.8-5.43,6.87-9.35c0.77-1.19,1.5-2.41,2.12-3.69
	c-3.87,2.18-3,7.86-7.38,9.48c-0.381-1.28-0.79-2.55-1.09-3.84c1.439-1.33,2.77-2.78,4.02-4.29l-0.189-0.06l0.72-0.97
	c2.12-1.91,3.63-5,6-6.98c1.75,1.86,3.84,3.83,3.54,6.66c0.57,2.88-1.7,5.66-0.58,8.43c0.91-4.19,2.54-8.95,0.18-12.96
	c-0.76-0.86-1.5-1.75-2.22-2.64c-2.61-1.16-5.13-2.94-8.091-2.96c-3.739,0.02-7.51-0.25-11.229,0.29l-1.3,0.05
	c-1.58-0.32-3.17-0.59-4.75-0.9c-0.15-1.19-0.77-1.95-1.859-2.26c0.34-0.79,0.639-1.59,0.889-2.42c1.861-1.01,3.561-2.71,2.23-4.89
	c-0.5,0.32-1.5,0.95-2.01,1.271l-1.38,0.89c0.149-1.7-1.22-2.54-2.33-3.45c-1.44,0.05-2.82,0.32-4.15,0.79L70.16,27
	c-2.38-0.44-3.68,2.77-6.11,2.49c1.62-3.22,4.89-4.75,8.32-5.13C70.39,24.12,67.98,23.71,66.48,25.36 M23.26,28.78
	c2.5,1.97,3.05,5.11,2.2,8.06c0.66-0.61,1.33-1.22,2-1.83c-0.04-1.19-0.07-2.39-0.1-3.58C26.08,30.42,24.94,29.1,23.26,28.78
	 M31.63,31.92c0.55,1.87,4.11,0.16,3.04-1.5C33.56,29.69,31.82,30.67,31.63,31.92 M53.12,31c0.94,1.84,2.07,3.58,3.32,5.22
	c-0.04,0.73-0.13,2.17-0.17,2.89c0.59-0.56,1.18-1.13,1.77-1.69l1.14,1.51C57.73,36.06,55.87,32.85,53.12,31 M30.3,39.59
	c-0.78,1.14-1.56,2.28-2.31,3.44c1.41-0.69,2.8-1.42,4.23-2.061c0.18-0.38,0.53-1.14,0.71-1.52C32.27,39.49,30.95,39.56,30.3,39.59
	 M58.11,42.26c-0.56,1.63-0.01,2.16,1.63,1.62C60.3,42.25,59.76,41.72,58.11,42.26 M14.29,52.86c2.22-1.37,4.18-3.13,5.98-5.01
	C17.82,48.79,15.44,50.42,14.29,52.86 M37.54,48.76c0.31,0.31,0.95,0.93,1.26,1.24c0.8-0.82,0.7-1.6-0.3-2.34
	C38.26,47.93,37.78,48.48,37.54,48.76 M31.16,61.96c-2.77,4.03,1.82,7.83,5.29,9.21c-0.52-0.86-1.18-1.59-1.98-2.19
	c-1.29-1.03-3.39-1.89-3.37-3.84c0.56-2.84,1.79-5.57,1.56-8.53C31.74,58.25,31.49,60.13,31.16,61.96 M38.77,62.08
	c2.45,3.27,6.18,5.45,10.29,5.65C45.13,66.7,42.34,63.71,38.77,62.08 M98.08,66.69c1.4,0.69,3.34-1.22,2.62-2.64
	C99.391,63.21,97.48,65.43,98.08,66.69 M38.99,65.52c-0.01,0.45-0.02,1.34-0.03,1.79c-0.53-0.09-1.59-0.28-2.13-0.37
	c1.44,1.09,2.97,2.08,4.23,3.38c-0.46,4.6,1.13,9.05,1.12,13.64c0.5,0.14,1.49,0.44,1.99,0.59c-0.11-4.38-1.98-8.479-1.84-12.86
	c0.44,0.39,1.32,1.18,1.76,1.58c-0.83-1.47-1.8-2.859-2.87-4.169C42.07,67.9,40.46,64.4,38.99,65.52 M116.66,65.12
	c-0.09,1.77-0.311,3.56-1.36,5.04c-3.31,5.06-7.17,10-8.63,15.98c-1.58,4.659-4.85,9.079-4.199,14.25
	c1.029-4.671,2.75-9.101,4.699-13.461c1.54-8.18,8.641-13.74,10.689-21.66C117.561,65.23,116.96,65.16,116.66,65.12 M9.64,71.96
	c2.65,1.05,5.21,2.33,6.01,5.31c0.42-1.05,0.82-2.109,1.25-3.16C14.69,72.83,12.15,72.28,9.64,71.96 M46.65,71.94
	c1.24,3.291,5.31,3.82,8.13,5.22c1.93,1.199,3.97-0.09,5.72-0.98C55.41,77.859,50.53,75,46.65,71.94 M104.189,72.24
	C104.721,72.8,104.721,72.8,104.189,72.24 M21.52,78.72c0.15-0.85,0.44-2.55,0.58-3.409l0.98-0.011c-0.14,2.511-0.31,5.021-0.73,7.5
	c0.24-0.03,0.71-0.1,0.95-0.13c0.32-3.26,1.01-6.779-1.18-9.58C21.65,74.92,20.83,76.83,21.52,78.72 M133.58,75.12
	c-0.46,1.46-0.12,3.44,0.83,4.64C136.3,79.48,135.4,74.78,133.58,75.12 M103.12,78.16C101.54,81.15,106.42,78.38,103.12,78.16
	 M8.24,85.03c0.89,2.13,4.91-1.16,2.93-2.39C9.93,82.79,8.45,83.7,8.24,85.03 M84.13,83.13c-0.51,1.63,0.05,2.181,1.681,1.64
	C86.311,83.141,85.76,82.59,84.13,83.13 M67.19,84.22C67.75,84.7,67.75,84.7,67.19,84.22 M10.38,88.311
	C8.81,89.609,6.74,90.63,6.27,92.8c2.63-2.88,6.26-4.659,8.56-7.86C12.9,85.391,11.87,87.189,10.38,88.311 M39.29,85.95
	c0.68,1.58,1.34,3.63,3.42,3.75l-0.22,0.86l0.85-0.181c3.26,7.8,8.68,14.55,14.37,20.72c-1.46-3.039-4.1-5.25-5.93-8.029
	c-2.93-3.771-5.37-7.87-7.74-12c0.24-0.961,0.5-1.92,0.72-2.891c-1,0.26-1.98,0.58-2.96,0.891C40.99,88,40.19,86.93,39.29,85.95
	 M64.31,89.17C64.53,92.5,67.26,87.561,64.31,89.17 M111.189,90.13C111.189,93.47,114.24,88.73,111.189,90.13 M8.81,100.02
	c2.97-2.739,6.37-5.01,9.1-8C14.19,93.58,11.1,96.73,8.81,100.02 M23.82,92.9c0.36,0.63,1.08,1.899,1.44,2.529
	c0.92,2.771,1.1,5.711,0.74,8.601c-0.73-1.13-1.39-2.3-1.98-3.511c-0.1-0.029-0.3-0.1-0.4-0.129c-0.48,4.689-2.42,10.6,1.59,14.299
	c2.28,1.811,4.09,4.4,6.9,5.41c-2.49-3.319-6.92-4.93-8.42-9c-0.24-2.76-0.1-5.55,0.33-8.279c0.74,1.33,1.4,2.689,2.01,4.08
	C26.6,102.34,28.44,95.91,23.82,92.9 M97.24,94.21C97.77,94.72,97.77,94.72,97.24,94.21 M73.1,100.24
	C73.38,103.57,76.02,98.58,73.1,100.24 M55.12,101.33C53.53,104.29,58.44,101.54,55.12,101.33 M67.66,102.51
	c2.54,0.85,5.23,1.131,7.74,2.08C73.35,102.49,70.44,102.18,67.66,102.51 M84.05,109.23c0-2.011,1.479-3.17,2.83-4.381
	C85.2,105.26,81.98,107.5,84.05,109.23 M27,108.77c1.11,6.621,7.67,10.351,13.09,13.291c-2.04-2.061-4.51-3.591-6.87-5.23
	C30.37,114.83,28.67,111.73,27,108.77 M83.35,110.85c0.551,4.301,2.101,8.601,0.95,12.971c-1.04,3.56-3.22,6.619-4.38,10.119
	c0.37-0.26,1.109-0.779,1.49-1.039c1.27-3.98,3.98-7.57,3.949-11.9C85.689,117.49,84.88,114,83.35,110.85 M43.34,112.061
	C43.62,115.38,46.26,110.41,43.34,112.061 M99.34,133.609c-4.93-0.17-9.609,1.951-14.55,0.791c4.95,3.02,10.181-0.9,15.45,0.029
	c1.38-1.67,2.84-3.289,3.8-5.25C102.4,130.561,101.34,132.77,99.34,133.609 M57.08,133.16c1.94,1.52,4.22,2.49,6.39,3.6
	c4.3,0.04,9.17,1.061,12.959-1.52c-3.449,0.55-6.93,1.27-10.439,0.88C62.78,135.96,60.17,133.8,57.08,133.16z"/>
<path fill="#040404" d="M53.93,21.34c2.33-2.14,4.65-4.52,7.74-5.51c-0.25,0.33-0.74,0.98-0.98,1.3
	C58.16,18.11,56.61,20.76,53.93,21.34z"/>
<path fill="#040404" d="M61.8,19.33c0.48-0.04,1.43-0.12,1.9-0.15c-3.83,3.8-7.82,8.56-13.74,8.48c-3.75-1.14-7.51-2.22-11.46-2.23
	c3.03-1.36,6.34,0.26,9.48,0.07c3.59,0.45,6.22-2.32,9.19-3.78c-1.17,2.521-4.42,2.71-5.67,5.12C55.97,26.31,59.54,23.04,61.8,19.33
	 M49.34,25.99C49.44,29.33,52.31,24.43,49.34,25.99z"/>
<path fill="#040404" d="M50.08,21.45c0.51-0.25,1.52-0.75,2.02-0.99c-0.27,0.41-0.8,1.24-1.07,1.65c-5.16,0.42-10.55-0.65-15.29,2
	C39.49,20.04,45.23,21.79,50.08,21.45z"/>
<path fill="#040404" d="M66.48,25.36c1.5-1.65,3.91-1.24,5.89-1c-3.43,0.38-6.7,1.91-8.32,5.13c-0.09,0.26-0.28,0.78-0.37,1.04
	c-0.11,1-0.31,3-0.42,4C61.51,31.24,64.08,27.55,66.48,25.36z"/>
<path fill="#FFFFFF" d="M49.34,25.99C52.31,24.43,49.44,29.33,49.34,25.99z"/>
<path fill="#9C9C9C" d="M64.05,29.49c2.43,0.28,3.73-2.93,6.11-2.49l-0.02,1.26c-0.79,0.86-1.58,1.72-2.36,2.59
	c0.02,0.73,0.08,2.19,0.11,2.92c-0.28,0.37-0.84,1.13-1.12,1.5c-2.12-0.7-0.65-3.55-1.19-5.12l-1.9,0.38
	C63.77,30.27,63.96,29.75,64.05,29.49 M66.34,30.23C66.88,30.76,66.88,30.76,66.34,30.23z"/>
<path d="M70.14,28.26c1.33-0.47,2.709-0.74,4.15-0.79c1.11,0.91,2.479,1.75,2.33,3.45L78,30.03c-1.12,1.12-1.971,2.43-2.529,3.93
	l2.309-0.31c-0.25,0.83-0.549,1.63-0.889,2.42l-0.131,0.29c-1.619-1.29-3.21-2.61-4.949-3.74l-0.601-0.79
	c0.74-0.11,2.21-0.32,2.95-0.42c-0.1-0.38-0.301-1.12-0.4-1.49c-1.22,0.48-2.44,0.95-3.61,1.52c0.15,1.31,0.46,2.59,0.75,3.87
	c1.129,0.79,2.31,1.49,3.491,2.2c-1.261,0.56-2.521,1.11-3.781,1.69l-0.19,0.08c-0.28-0.47-0.84-1.41-1.12-1.88
	c-0.79-1.09-1.27-2.3-1.41-3.63c-0.03-0.73-0.09-2.19-0.11-2.92C68.56,29.98,69.35,29.12,70.14,28.26z"/>
<path fill="#040404" d="M23.26,28.78c1.68,0.32,2.82,1.64,4.1,2.65c0.03,1.19,0.06,2.39,0.1,3.58c-0.67,0.61-1.34,1.22-2,1.83
	C26.31,33.89,25.76,30.75,23.26,28.78z"/>
<path fill="#828282" d="M78,30.03c0.51-0.32,1.51-0.95,2.01-1.271c1.33,2.18-0.369,3.88-2.23,4.89l-2.309,0.31
	C76.029,32.46,76.88,31.15,78,30.03z"/>
<path fill="#040404" d="M31.63,31.92c0.19-1.25,1.93-2.23,3.04-1.5C35.74,32.08,32.18,33.79,31.63,31.92z"/>
<path fill="#040404" d="M36.96,32.52c2.17-1.13,4.55-1.79,6.96-2.19c0.97,0.94,1.81,2.01,2.71,3.03c-0.1,3.22,0.44,6.39,0.71,9.59
	c1.08-0.65,2.17-1.29,3.27-1.89c-1.95,4.52-5.39,8.4-9.08,11.65c-0.4-0.22-1.18-0.67-1.58-0.89l-0.86,1.33
	c0.94,0.7,1.88,1.42,2.85,2.09c3.15-3.271,7.93-4.85,10.44-8.69c-0.14-2.47,2.06-3.85,3.65-5.33c-0.8,2.55-2.54,4.86-2.39,7.64
	c2.12-0.41,2.07-3.05,3.88-3.71c0.74,1.32,1.34,2.71,2.21,3.95c-0.67,0.24-2.01,0.7-2.68,0.94l0.9-2.36
	c-1.38,1.8-3.77,2.69-5.48,0.8c-3.89,3.12-8.37,5.38-12.15,8.63c2.12-0.29,4.34-0.59,6.31,0.46c0.68-0.65,1.37-1.29,2.07-1.91
	l-0.49,1.9c1.42,0.27,2.84,0.55,4.26,0.83c0.07-0.59,0.22-1.78,0.29-2.37c0.31,0.9,0.61,1.79,0.92,2.69
	c1.07-0.56,2.01-1.31,2.78-2.24c0.41,0.54,1.24,1.62,1.66,2.16c0.33-0.83,0.65-1.66,0.98-2.49c0.16,0.55,0.48,1.65,0.64,2.19
	c1.54-1.25,3.3-0.55,4.97-0.02c0.11-3.06-2.05-5.49-3.03-8.26c0.25-0.93,0.48-1.87,0.71-2.81c0.49-0.28,1.48-0.82,1.97-1.1
	c-0.94,0.09-2.82,0.27-3.76,0.35c-0.47-3.1,1.87-2.08,3.53-1.28c-0.07-0.66-0.19-1.96-0.25-2.62c-0.96-0.59-1.9-1.21-2.78-1.92
	c2.57-0.87,4.18,1.4,6.03,2.71c7,1.6,13.79-1.82,20.78-0.82l0.67,0.04c1.22-0.01,2.439-0.05,3.65-0.12
	c0.379,0.24,1.119,0.72,1.5,0.96c-5.78-0.52-11.65-0.33-17.351,0.8c-3.729,0.39-7.64,0.6-11.19-0.86c0.14,1.53,0.25,3.06,0.4,4.59
	c-1.17,0.23-2.35,0.45-3.53,0.67c1.35,3.01,2.77,5.99,3.8,9.13c2.49-0.65,4.99-1.21,7.531-1.62c-1.15-0.81-2.301-1.63-3.44-2.45
	c2.36,0.63,4.67,1.44,6.989,2.23c-1.26-1.16-2.64-2.15-4.069-3.07c1.93-0.37,3.851-0.81,5.81-1.01c-0.88,0.34-2.65,1.02-3.539,1.36
	c0.689,0.37,1.379,0.74,2.069,1.11c0.95-0.32,2.851-0.94,3.8-1.26c-0.75-1.05-1.48-2.12-2.199-3.19c1.64,0.86,3.25,1.79,4.869,2.7
	c0.35-0.8,0.83-1.56,1.041-2.42c-0.721-0.22-2.141-0.66-2.861-0.88c1.131-0.56,2.24-1.13,3.341-1.73c0.22,0.42,0.649,1.26,0.87,1.68
	l0.59,0.74l1.96-0.84c0.03-0.2,0.08-0.6,0.11-0.8c-0.28-0.15-0.851-0.47-1.131-0.62c0.811-0.77,1.601-1.56,2.381-2.36
	c0.47,0.33,1.39,1,1.859,1.34c1.141-0.69,2.301-1.36,3.48-2c0.209,0.26,0.65,0.77,0.859,1.02c-0.34,1.69-0.76,3.36-1.15,5.04
	c0.361-0.11,1.091-0.32,1.451-0.43l0.189,0.06c-1.25,1.51-2.58,2.96-4.02,4.29c0.3,1.29,0.709,2.56,1.09,3.84
	c4.38-1.62,3.51-7.3,7.38-9.48c-0.62,1.28-1.351,2.5-2.12,3.69c-1.07,3.92-4.32,6.41-6.87,9.35c0.261,1.46,0.55,2.93,0.88,4.38
	c3.51-2.77,5.85-6.51,7.811-10.47c-0.01,2.38-1.62,4.23-2.541,6.311c-1.199,1.229-2.449,2.439-3.709,3.61
	c-0.301,0.25-0.891,0.76-1.18,1.01l-0.67,0.61c-2.49,0.86-5.141,1.11-7.66,1.89c-0.011-0.25-0.041-0.75-0.051-1.01
	c2.61-0.55,5.23-1.02,7.881-1.31c-0.44-1.5-0.9-2.99-1.4-4.47c-2.311,1.64-4.61,3.32-6.99,4.87c-3.4,0.83-6.42,2.65-9.641,3.95
	c-8.879,1.72-16.949-3-25.25-5.19c6.51,0.24,12.29,3.79,18.64,4.94c0-0.65,0.01-1.96,0.02-2.61c0.99,3.08,4.21,2.28,6.63,2.14
	c2.629-1.27,5.189-2.71,8-3.57c0.939-0.38,1.879-0.76,2.82-1.14c2.629-2.12,5.579-3.85,7.809-6.43c-0.84-1.34-1.35-2.82-1.389-4.4
	c-1.49,1.13-2.761,2.53-4.32,3.56c-2.37,0.96-4.99,0.83-7.471,1.24c1.32,1.2,2.32,2.69,3.041,4.32c-0.951-0.7-1.9-1.39-2.861-2.08
	c-0.079-0.51-0.25-1.54-0.34-2.06l-2.719,0.82c-0.07,0.19-0.201,0.561-0.271,0.75c1.159,0.96,2.35,1.94,2.93,3.39
	c-1.11-0.71-2.18-1.47-3.229-2.27l-1.021,1.01c-0.12-0.29-0.351-0.87-0.46-1.17l-0.27-0.58c-0.301,0.19-0.891,0.55-1.19,0.73
	c-2.33-0.62-4.59,0.32-6.86,0.73c-1.5-0.26-2.88-0.92-4.33-1.37c-0.47,1.48-0.94,2.97-1.62,4.37c0.16-1.26,0.47-3.79,0.62-5.05
	c-1.24,0.93-2.52,1.82-3.82,2.68c0.54-0.72,1.63-2.15,2.18-2.87c-5.67,1.24-11.38-0.11-17.09,0.02c-2.02-0.08-3.27-2.02-4.77-3.09
	c0.09,1.7,0.38,3.48-0.58,5.01c-0.37-3.37-0.63-6.97,1.24-10c-1.31,0.021-2.62,0.04-3.93,0.05c-0.88-1.56-1.89-3.04-2.83-4.56
	c1.1,0.72,2.09,1.58,3.05,2.49c1.9,0.05,3.8,0.16,5.7,0c2.11-1.19,4.07-2.78,5.16-4.99c-1.04-2.06-3.19-0.35-4.77-0.09l0.54-0.82
	c-1.34-0.04-2.68-0.1-4.02-0.17c0.3,0.52,0.9,1.57,1.2,2.09c-1.85-0.32-2.33-1.38-1.42-3.19l-1.42-0.31
	c0.1,1.15,0.32,3.45,0.42,4.59c-1.01-1.36-1.97-2.76-2.88-4.19L36.1,45c-1.74-3.06-1.02-6.39-0.55-9.64
	c0.76-0.37,2.28-1.1,3.04-1.47C38.05,33.43,37.5,32.98,36.96,32.52 M45.69,35.65c-0.53-1.34-1.06-2.68-1.59-4.03
	c-1.95,0.05-3.9,0.19-5.84,0.43C40.67,33.39,43.24,34.4,45.69,35.65 M37.63,37.19c1.56,1.43,2.72,3.08,1.91,5.26l-0.63,1.57
	c2.13,0.76,6.65,1.11,5.1-2.48c0.15-1.19,0.28-2.39,0.4-3.59c-1.47-0.8-2.94-1.6-4.37-2.46C39.24,36.06,38.43,36.63,37.63,37.19
	 M90.02,47.34C90.37,47.69,90.37,47.69,90.02,47.34 M92.9,51.27c1.31-0.99,1.279-1.87-0.08-2.64C91.43,49.61,91.45,50.49,92.9,51.27
	 M88.45,52.71c-2.87-1.36-2.88,2.59-0.78,3.31c0.2-0.67,0.6-1.99,0.801-2.65c1.529,0.38,2.989-0.25,3.35-1.83
	C90.43,49.91,89.25,51.54,88.45,52.71 M84.04,54.41c-1.649,2.43-4.8,2.68-7.22,3.99c3.119-1.02,6.3-1.83,9.609-1.74
	C85.66,55.88,84.87,55.12,84.04,54.41 M39.37,54.86l-0.57,0.72C38.96,58.2,41.53,55.3,39.37,54.86 M64.86,60.41
	c0.52,0.18,1.54,0.54,2.06,0.72c2.71-1.33,5.95-1,8.561-2.57C71.83,58.55,68.49,60.23,64.86,60.41z"/>
<path fill="#3D3D3D" d="M66.34,30.23C66.88,30.76,66.88,30.76,66.34,30.23z"/>
<path fill="#FFFFFF" d="M70.15,31.44c1.17-0.57,2.39-1.04,3.61-1.52c0.1,0.37,0.301,1.11,0.4,1.49c-0.74,0.1-2.21,0.31-2.95,0.42
	l0.601,0.79l0.939,1.5c-0.46,0.3-1.38,0.9-1.85,1.19C70.61,34.03,70.3,32.75,70.15,31.44z"/>
<path fill="#040404" d="M53.12,31c2.75,1.85,4.61,5.06,6.06,7.93l-1.14-1.51c-0.59,0.56-1.18,1.13-1.77,1.69
	c0.04-0.72,0.13-2.16,0.17-2.89C55.19,34.58,54.06,32.84,53.12,31z"/>
<path fill="#FFFFFF" d="M45.69,35.65c-2.45-1.25-5.02-2.26-7.43-3.6c1.94-0.24,3.89-0.38,5.84-0.43
	C44.63,32.97,45.16,34.31,45.69,35.65z"/>
<path fill="#3C48B7" d="M71.811,32.62c1.739,1.13,3.33,2.45,4.949,3.74c-0.23,0.51-0.689,1.52-0.92,2.03
	c-0.359-0.22-1.09-0.66-1.449-0.88c-1.181-0.71-2.361-1.41-3.491-2.2c0.47-0.29,1.39-0.89,1.85-1.19L71.811,32.62z"/>
<path fill="#FFFFFF" d="M37.63,37.19c0.8-0.56,1.61-1.13,2.41-1.7c1.43,0.86,2.9,1.66,4.37,2.46c-0.12,1.2-0.25,2.4-0.4,3.59
	c-1.5,0.26-3,0.53-4.47,0.91C40.35,40.27,39.19,38.62,37.63,37.19 M41.56,39.3c-0.52,1.59,0.05,2.13,1.7,1.63
	C43.8,39.32,43.23,38.77,41.56,39.3z"/>
<path fill="#676871" d="M76.76,36.36l0.131-0.29c1.09,0.31,1.709,1.07,1.859,2.26c-0.279-0.05-0.83-0.15-1.109-0.2
	c-0.66,0.3-2,0.88-2.66,1.17l0.1,0.91c0.82-0.28,2.449-0.83,3.27-1.1l0.311,1.48c-3.49,0.62-7.96,1.56-10.94-0.89
	c0.39-0.58,1.19-1.72,1.58-2.3c0.28,0.47,0.84,1.41,1.12,1.88l0.01,0.01c0.04-0.02,0.14-0.06,0.18-0.09
	c1.26-0.58,2.52-1.13,3.781-1.69c0.359,0.22,1.09,0.66,1.449,0.88C76.07,37.88,76.529,36.87,76.76,36.36z"/>
<path fill="#AFB8F2" d="M77.641,38.13c0.279,0.05,0.83,0.15,1.109,0.2c1.58,0.31,3.17,0.58,4.75,0.9c1.82,0.46,3.65,0.92,5.46,1.43
	c-3.431,0.03-6.87,0.21-10.3-0.07l-0.311-1.48c-0.82,0.27-2.449,0.82-3.27,1.1l-0.1-0.91C75.641,39.01,76.98,38.43,77.641,38.13z"/>
<path fill="#040404" d="M84.8,39.18c3.72-0.54,7.49-0.27,11.229-0.29c2.961,0.02,5.48,1.8,8.091,2.96c0.72,0.89,1.46,1.78,2.22,2.64
	c2.36,4.01,0.73,8.77-0.18,12.96c-1.12-2.77,1.15-5.55,0.58-8.43c0.3-2.83-1.79-4.8-3.54-6.66c-2.37,1.98-3.88,5.07-6,6.98
	c-0.16-1.77-0.33-3.54-0.591-5.29l-0.219-1.51c1.569-0.28,3.139-0.61,4.699-1c-3.15-3.29-7.99-1.41-11.98-2.06
	C87.67,39.38,86.24,39.26,84.8,39.18z"/>
<path fill="#040404" d="M30.3,39.59c0.65-0.03,1.97-0.1,2.63-0.14c-0.18,0.38-0.53,1.14-0.71,1.52c-1.43,0.64-2.82,1.37-4.23,2.061
	C28.74,41.87,29.52,40.73,30.3,39.59z"/>
<path fill="#010101" d="M41.56,39.3c1.67-0.53,2.24,0.02,1.7,1.63C41.61,41.43,41.04,40.89,41.56,39.3z"/>
<path fill="#A0A0A0" d="M70.42,39.28l0.19-0.08c-0.04,0.03-0.14,0.07-0.18,0.09L70.42,39.28z"/>
<path fill="#40499C" d="M83.5,39.23l1.3-0.05c1.44,0.08,2.87,0.2,4.31,0.3c-0.029,0.6-0.08,1.8-0.109,2.4
	c2.25,0.1,4.49,0.23,6.74,0.32c0.22,0.46,0.65,1.38,0.869,1.85c0.261,1.75,0.431,3.52,0.591,5.29l-0.72,0.97
	c-0.36,0.11-1.09,0.32-1.451,0.43c0.391-1.68,0.811-3.35,1.15-5.04c-0.209-0.25-0.65-0.76-0.859-1.02c-0.4-0.31-1.19-0.93-1.59-1.24
	c-0.381-0.24-1.121-0.72-1.5-0.96c-1.211,0.07-2.431,0.11-3.65,0.12l-0.67-0.04l1.05-1.9C87.15,40.15,85.32,39.69,83.5,39.23z"/>
<path fill="#FFFFFF" d="M89.109,39.48c3.99,0.65,8.83-1.23,11.98,2.06c-1.561,0.39-3.13,0.72-4.699,1l0.219,1.51
	c-0.219-0.47-0.649-1.39-0.869-1.85c-2.25-0.09-4.49-0.22-6.74-0.32C89.029,41.28,89.08,40.08,89.109,39.48z"/>
<path fill="#3746ED" d="M39.54,42.45c1.47-0.38,2.97-0.65,4.47-0.91c1.55,3.59-2.97,3.24-5.1,2.48L39.54,42.45z"/>
<path fill="#B8B8B8" d="M58.11,42.26c1.65-0.54,2.19-0.01,1.63,1.62C58.1,44.42,57.55,43.89,58.11,42.26z"/>
<path fill="#FFFFFF" d="M65.19,43.38c3.55,1.46,7.46,1.25,11.19,0.86c5.7-1.13,11.57-1.32,17.351-0.8
	c0.399,0.31,1.189,0.93,1.59,1.24c-1.18,0.64-2.34,1.31-3.48,2c-0.47-0.34-1.39-1.01-1.859-1.34c-0.78,0.8-1.57,1.59-2.381,2.36
	c0.28,0.15,0.851,0.47,1.131,0.62c-0.03,0.2-0.08,0.6-0.11,0.8l-1.96,0.84l-0.59-0.74c-0.221-0.42-0.65-1.26-0.87-1.68
	c-1.101,0.6-2.21,1.17-3.341,1.73c0.721,0.22,2.141,0.66,2.861,0.88c-0.211,0.86-0.691,1.62-1.041,2.42
	c-1.619-0.91-3.229-1.84-4.869-2.7c0.719,1.07,1.449,2.14,2.199,3.19c-0.949,0.32-2.85,0.94-3.8,1.26
	c-0.69-0.37-1.38-0.74-2.069-1.11c0.889-0.34,2.659-1.02,3.539-1.36c-1.959,0.2-3.88,0.64-5.81,1.01c1.43,0.92,2.81,1.91,4.069,3.07
	c-2.319-0.79-4.629-1.6-6.989-2.23c1.14,0.82,2.29,1.64,3.44,2.45c-2.541,0.41-5.041,0.97-7.531,1.62c-1.03-3.14-2.45-6.12-3.8-9.13
	c1.18-0.22,2.36-0.44,3.53-0.67C65.44,46.44,65.33,44.91,65.19,43.38 M65.42,50.97c-0.66,1.2,1.01,3.14,2.27,2.59
	C68.22,52.36,66.76,50.23,65.42,50.97z"/>
<path fill="#A8A9AF" d="M41.31,46.16c1.58-0.26,3.73-1.97,4.77,0.09c-1.09,2.21-3.05,3.8-5.16,4.99c-0.07-1.6-0.14-3.2-0.29-4.79
	L41.31,46.16z"/>
<path fill="#F6F6F6" d="M90.02,47.34C90.37,47.69,90.37,47.69,90.02,47.34z"/>
<path fill="#040404" d="M14.29,52.86c1.15-2.44,3.53-4.07,5.98-5.01C18.47,49.73,16.51,51.49,14.29,52.86z"/>
<path d="M37.54,48.76c0.24-0.28,0.72-0.83,0.96-1.1c1,0.74,1.1,1.52,0.3,2.34C38.49,49.69,37.85,49.07,37.54,48.76z"/>
<path fill="#FFFFFF" d="M92.9,51.27c-1.45-0.78-1.471-1.66-0.08-2.64C94.18,49.4,94.21,50.28,92.9,51.27z"/>
<path fill="#040404" d="M65.42,50.97c1.34-0.74,2.8,1.39,2.27,2.59C66.43,54.11,64.76,52.17,65.42,50.97z"/>
<path fill="#FFFFFF" d="M88.45,52.71c0.8-1.17,1.979-2.8,3.37-1.17c-0.36,1.58-1.82,2.21-3.35,1.83
	c-0.201,0.66-0.601,1.98-0.801,2.65C85.57,55.3,85.58,51.35,88.45,52.71z"/>
<path fill="#FFFFFF" d="M84.04,54.41c0.83,0.71,1.62,1.47,2.39,2.25c-3.31-0.09-6.49,0.72-9.609,1.74
	C79.24,57.09,82.391,56.84,84.04,54.41z"/>
<path fill="#6674CC" d="M39.37,54.86c2.16,0.44-0.41,3.34-0.57,0.72L39.37,54.86z"/>
<path fill="#040404" d="M31.16,61.96c0.33-1.83,0.58-3.71,1.5-5.35c0.23,2.96-1,5.69-1.56,8.53c-0.02,1.95,2.08,2.81,3.37,3.84
	c0.8,0.6,1.46,1.33,1.98,2.19C32.98,69.79,28.39,65.99,31.16,61.96z"/>
<path fill="#FFFFFF" d="M64.86,60.41c3.63-0.18,6.97-1.86,10.621-1.85c-2.61,1.57-5.851,1.24-8.561,2.57
	C66.4,60.95,65.38,60.59,64.86,60.41z"/>
<path fill="#040404" d="M38.77,62.08c3.57,1.63,6.36,4.62,10.29,5.65C44.95,67.53,41.22,65.35,38.77,62.08z"/>
<path fill="#040404" d="M98.08,66.69c-0.6-1.26,1.311-3.48,2.62-2.64C101.42,65.47,99.48,67.38,98.08,66.69z"/>
<path fill="#6271FD" d="M38.99,65.52c1.47-1.12,3.08,2.38,2.23,3.58c-0.73-0.62-1.51-1.19-2.26-1.79
	C38.97,66.86,38.98,65.97,38.99,65.52z"/>
<path fill="#040404" d="M116.66,65.12c0.3,0.04,0.9,0.11,1.199,0.15c-2.049,7.919-9.149,13.48-10.689,21.66
	c-1.949,4.36-3.67,8.79-4.699,13.461c-0.65-5.171,2.619-9.591,4.199-14.25c1.46-5.98,5.32-10.921,8.63-15.98
	C116.35,68.68,116.57,66.89,116.66,65.12z"/>
<path d="M36.83,66.94c0.54,0.09,1.6,0.28,2.13,0.37c0.75,0.6,1.53,1.17,2.26,1.79c1.07,1.31,2.04,2.7,2.87,4.169
	c-0.44-0.399-1.32-1.189-1.76-1.58c-0.31-0.34-0.95-1.03-1.27-1.37C39.8,69.02,38.27,68.03,36.83,66.94z"/>
<path fill="#8591FB" d="M93.391,66.9c0.289-0.25,0.879-0.76,1.18-1.01C93.6,70.23,91.77,74.46,93.08,79
	c-0.551,0.01-1.63,0.02-2.17,0.02c0-3.899,0.311-7.87,1.811-11.51L93.391,66.9z"/>
<path fill="#909CFD" d="M41.06,70.32c0.32,0.34,0.96,1.03,1.27,1.37c-0.14,4.38,1.73,8.48,1.84,12.86
	c-0.5-0.149-1.49-0.45-1.99-0.59C42.19,79.37,40.6,74.92,41.06,70.32z"/>
<path fill="#040404" d="M9.64,71.96c2.51,0.32,5.05,0.87,7.26,2.149c-0.43,1.051-0.83,2.11-1.25,3.16
	C14.85,74.29,12.29,73.01,9.64,71.96z"/>
<path fill="#040404" d="M46.65,71.94c3.88,3.06,8.76,5.919,13.85,4.24c-1.75,0.891-3.79,2.18-5.72,0.98
	C51.96,75.76,47.89,75.23,46.65,71.94z"/>
<path fill="#939393" d="M104.189,72.24C104.721,72.8,104.721,72.8,104.189,72.24z"/>
<path fill="#040404" d="M21.52,78.72c-0.69-1.89,0.13-3.8,0.6-5.63c2.19,2.801,1.5,6.32,1.18,9.58c-0.24,0.03-0.71,0.1-0.95,0.13
	c0.42-2.479,0.59-4.989,0.73-7.5l-0.98,0.011C21.96,76.17,21.67,77.87,21.52,78.72z"/>
<path fill="#040404" d="M133.58,75.12c1.82-0.34,2.72,4.36,0.83,4.64C133.46,78.561,133.12,76.58,133.58,75.12z"/>
<path fill="#858585" d="M103.12,78.16C106.42,78.38,101.54,81.15,103.12,78.16z"/>
<path fill="#040404" d="M8.24,85.03c0.21-1.33,1.69-2.24,2.93-2.39C13.15,83.87,9.13,87.16,8.24,85.03z"/>
<path fill="#DCDCDC" d="M84.13,83.13c1.63-0.54,2.181,0.011,1.681,1.64C84.18,85.311,83.62,84.76,84.13,83.13z"/>
<path fill="#B5B5B5" d="M67.19,84.22C67.75,84.7,67.75,84.7,67.19,84.22z"/>
<path fill="#040404" d="M10.38,88.311c1.49-1.121,2.52-2.92,4.45-3.371c-2.3,3.201-5.93,4.98-8.56,7.86
	C6.74,90.63,8.81,89.609,10.38,88.311z"/>
<path fill="#040404" d="M39.29,85.95c0.9,0.979,1.7,2.05,2.51,3.12c0.98-0.311,1.96-0.631,2.96-0.891
	c-0.22,0.971-0.48,1.93-0.72,2.891c2.37,4.13,4.81,8.229,7.74,12c1.83,2.779,4.47,4.99,5.93,8.029
	c-5.69-6.17-11.11-12.92-14.37-20.72l-0.85,0.181l0.22-0.86C40.63,89.58,39.97,87.53,39.29,85.95z"/>
<path fill="#BFBFBF" d="M64.31,89.17C67.26,87.561,64.53,92.5,64.31,89.17z"/>
<path fill="#C7C7C7" d="M111.189,90.13C114.24,88.73,111.189,93.47,111.189,90.13z"/>
<path fill="#040404" d="M8.81,100.02c2.29-3.289,5.38-6.439,9.1-8C15.18,95.01,11.78,97.28,8.81,100.02z"/>
<path fill="#040404" d="M23.82,92.9c4.62,3.01,2.78,9.439,2.21,14c-0.61-1.391-1.27-2.75-2.01-4.08
	c-0.43,2.729-0.57,5.52-0.33,8.279c1.5,4.07,5.93,5.681,8.42,9c-2.81-1.01-4.62-3.6-6.9-5.41c-4.01-3.699-2.07-9.609-1.59-14.299
	c0.1,0.029,0.3,0.1,0.4,0.129c0.59,1.211,1.25,2.381,1.98,3.511c0.36-2.89,0.18-5.83-0.74-8.601C24.9,94.8,24.18,93.53,23.82,92.9z"
	/>
<path fill="#ACACAC" d="M97.24,94.21C97.77,94.72,97.77,94.72,97.24,94.21z"/>
<path fill="#BCBCBC" d="M73.1,100.24C76.02,98.58,73.38,103.57,73.1,100.24z"/>
<path fill="#B8B8B8" d="M55.12,101.33C58.44,101.54,53.53,104.29,55.12,101.33z"/>
<path fill="#040404" d="M67.66,102.51c2.78-0.33,5.689-0.02,7.74,2.08C72.891,103.641,70.2,103.359,67.66,102.51z"/>
<path fill="#040404" d="M84.05,109.23c-2.069-1.73,1.15-3.971,2.83-4.381C85.529,106.061,84.05,107.22,84.05,109.23z"/>
<path fill="#040404" d="M27,108.77c1.67,2.961,3.37,6.061,6.22,8.061c2.36,1.64,4.83,3.17,6.87,5.23
	C34.67,119.12,28.11,115.391,27,108.77z"/>
<path fill="#040404" d="M83.35,110.85c1.53,3.15,2.34,6.641,2.01,10.15c0.031,4.33-2.68,7.92-3.949,11.9
	c-0.381,0.26-1.12,0.779-1.49,1.039c1.16-3.5,3.34-6.56,4.38-10.119C85.45,119.45,83.9,115.15,83.35,110.85z"/>
<path fill="#C0C0C0" d="M43.34,112.061C46.26,110.41,43.62,115.38,43.34,112.061z"/>
<path fill="#040404" d="M99.34,133.609c2-0.84,3.061-3.049,4.7-4.43c-0.96,1.961-2.42,3.58-3.8,5.25
	c-5.27-0.93-10.5,2.99-15.45-0.029C89.73,135.561,94.41,133.439,99.34,133.609z"/>
<path fill="#040404" d="M57.08,133.16c3.09,0.64,5.7,2.8,8.91,2.96c3.51,0.39,6.99-0.33,10.439-0.88
	c-3.789,2.58-8.66,1.56-12.959,1.52C61.3,135.65,59.02,134.68,57.08,133.16z"/>
</svg>
