<?xml version="1.0" encoding="UTF-8" ?>
<!DOCTYPE svg PUBLIC "-//W3C//DTD SVG 1.1//EN" "http://www.w3.org/Graphics/SVG/1.1/DTD/svg11.dtd">
<svg width="226pt" height="216pt" viewBox="0 0 226 216" version="1.1" xmlns="http://www.w3.org/2000/svg">
<g id="#000000ff">
<path fill="#000000" opacity="1.00" d=" M 0.00 0.00 L 0.20 0.00 C 0.15 0.05 0.05 0.15 0.00 0.20 L 0.00 0.00 Z" />
<path fill="#000000" opacity="1.00" d=" M 98.12 31.26 C 107.69 25.36 118.74 21.64 130.03 21.48 C 139.60 21.20 149.38 22.15 158.36 25.62 C 176.09 32.35 189.85 47.37 197.27 64.57 C 202.88 78.68 203.07 94.53 199.69 109.20 C 196.42 120.92 189.94 131.74 181.17 140.18 C 171.26 150.37 158.05 157.57 143.86 159.33 C 129.63 161.17 114.49 159.37 101.98 152.00 C 91.53 146.24 82.61 137.78 76.37 127.62 C 73.37 123.10 71.66 117.76 67.81 113.82 C 67.16 117.85 66.82 121.92 66.88 126.00 C 66.96 135.00 66.89 144.00 66.89 153.01 C 67.01 158.27 67.36 163.54 67.21 168.81 C 69.15 170.83 71.21 172.74 73.36 174.54 C 72.01 174.43 70.65 174.34 69.30 174.26 C 68.85 175.20 68.41 176.16 67.99 177.13 C 67.78 175.47 67.55 173.82 67.32 172.16 C 66.43 173.57 65.53 174.97 64.65 176.38 C 64.52 175.01 64.40 173.65 64.28 172.28 L 65.35 172.50 C 65.86 168.68 66.41 164.85 66.26 160.99 C 65.83 145.73 66.61 130.45 65.73 115.21 C 64.17 115.16 62.60 115.12 61.04 115.07 C 60.96 122.38 61.05 129.69 60.95 137.00 C 61.20 147.34 60.19 157.67 60.66 168.01 C 60.86 170.91 61.82 173.67 62.64 176.44 C 61.64 175.62 60.62 174.82 59.62 174.01 C 59.12 175.15 58.62 176.29 58.11 177.43 C 57.75 176.09 57.39 174.75 57.02 173.41 C 56.10 174.15 55.18 174.90 54.27 175.65 C 53.97 175.20 53.36 174.30 53.05 173.85 C 54.93 172.90 56.79 171.94 58.68 171.03 C 59.31 165.04 59.19 159.00 59.01 152.99 C 58.89 140.36 59.11 127.72 58.89 115.08 C 55.64 116.15 52.20 117.24 49.72 119.74 C 46.35 123.08 44.23 127.52 43.14 132.10 C 39.68 148.72 41.57 165.84 44.35 182.41 C 44.93 185.52 45.43 188.67 45.26 191.85 C 44.07 189.23 43.19 186.48 42.74 183.63 C 41.33 174.84 39.65 165.98 40.22 157.04 C 40.74 150.08 39.45 143.07 40.60 136.15 C 41.43 130.88 43.22 125.68 46.30 121.29 C 49.25 117.06 54.01 114.00 59.19 113.56 C 62.48 113.28 65.79 113.43 69.08 113.40 C 67.40 106.71 65.62 99.95 65.66 93.00 C 65.45 77.49 69.59 61.54 79.22 49.17 C 84.65 42.38 90.69 35.88 98.12 31.26 M 98.25 33.18 C 89.55 38.70 82.66 46.64 77.21 55.30 C 72.14 63.26 69.12 72.46 68.13 81.83 C 66.35 94.83 68.04 108.43 73.71 120.33 C 78.75 130.66 86.87 139.15 95.86 146.17 C 102.58 151.38 110.55 154.89 118.84 156.74 C 124.46 158.07 130.28 157.92 136.02 157.94 C 152.03 158.29 167.79 151.32 179.05 140.06 C 186.77 132.57 193.41 123.59 196.59 113.20 C 198.71 106.32 200.39 99.19 200.38 91.95 C 200.05 81.49 198.86 70.81 194.17 61.30 C 193.19 64.09 192.62 67.29 190.34 69.37 C 186.80 72.61 181.82 73.64 177.15 73.39 C 170.23 73.35 163.38 70.42 158.63 65.38 C 155.43 62.01 155.83 56.77 156.71 52.58 C 160.08 47.10 167.18 46.33 173.02 46.70 C 178.66 46.82 183.58 49.74 188.58 51.99 C 186.29 48.81 183.93 45.42 180.29 43.67 C 173.75 40.45 167.10 37.45 160.51 34.35 C 160.63 33.68 160.75 33.02 160.87 32.35 C 166.87 35.49 172.89 38.64 179.19 41.16 C 167.80 29.40 151.36 22.79 135.02 23.14 C 122.12 22.63 109.02 25.99 98.25 33.18 M 161.92 49.95 C 159.76 51.09 158.55 53.31 157.22 55.25 C 163.43 55.95 169.64 56.83 175.72 58.31 C 176.53 56.75 177.35 55.19 178.19 53.64 C 179.51 53.60 180.83 53.54 182.15 53.47 C 182.84 55.95 183.42 58.46 183.90 60.99 C 186.70 62.30 189.47 63.66 192.29 64.94 C 191.87 62.22 191.95 59.17 190.13 56.92 C 186.40 51.83 180.17 49.24 174.08 48.43 C 170.01 48.11 165.62 47.95 161.92 49.95 M 156.88 57.43 C 157.88 60.38 158.89 63.55 161.38 65.62 C 167.22 70.61 175.36 72.80 182.91 71.29 C 186.03 70.59 188.68 68.72 191.22 66.87 C 184.40 62.40 176.43 60.18 168.56 58.40 C 164.74 57.49 160.79 57.25 156.88 57.43 Z" />
<path fill="#000000" opacity="1.00" d=" M 125.17 31.16 C 128.59 29.88 132.06 28.68 135.68 28.09 C 133.74 29.37 131.68 30.48 129.49 31.27 C 117.28 35.66 105.07 40.04 92.97 44.74 C 92.35 44.53 91.11 44.12 90.49 43.92 C 102.00 39.52 113.63 35.46 125.17 31.16 Z" />
<path fill="#000000" opacity="1.00" d=" M 112.54 42.00 C 121.10 40.96 130.50 41.17 137.88 46.21 C 141.60 48.66 145.32 52.77 144.31 57.59 C 143.13 62.30 138.97 65.64 134.67 67.48 C 123.57 72.51 109.48 71.88 99.69 64.25 C 95.68 61.27 94.03 55.16 96.96 50.89 C 100.53 45.82 106.61 43.14 112.54 42.00 M 99.37 50.37 C 97.25 52.52 97.41 55.70 97.17 58.48 C 104.74 56.73 112.41 55.60 120.11 54.65 C 120.22 52.76 120.34 50.87 120.48 48.98 C 122.32 48.98 124.17 48.99 126.01 49.00 C 126.09 50.93 126.17 52.86 126.23 54.79 C 131.37 54.67 136.56 54.44 141.63 55.39 C 135.19 56.10 128.68 55.27 122.26 56.26 C 114.19 57.33 106.04 58.12 98.16 60.24 C 104.60 68.01 115.74 70.45 125.35 68.65 C 130.84 67.62 136.73 65.90 140.55 61.57 C 142.97 58.51 143.59 53.34 140.58 50.44 C 135.16 44.58 126.71 42.73 119.02 42.83 C 112.04 43.50 104.20 44.77 99.37 50.37 Z" />
<path fill="#000000" opacity="1.00" d=" M 154.10 63.59 C 156.22 66.76 158.08 70.10 159.88 73.47 C 158.47 72.48 156.81 71.74 155.74 70.35 C 154.78 68.22 154.55 65.86 154.10 63.59 Z" />
<path fill="#000000" opacity="1.00" d=" M 133.06 76.49 C 136.73 73.35 139.43 69.36 142.23 65.47 C 141.48 68.10 140.76 70.85 139.03 73.03 C 137.61 74.98 135.14 75.55 133.06 76.49 Z" />
<path fill="#000000" opacity="1.00" d=" M 179.40 80.65 C 179.53 80.13 179.80 79.08 179.94 78.55 C 181.11 80.15 182.56 81.61 183.25 83.50 C 183.65 85.67 183.35 87.88 183.26 90.07 C 182.96 89.67 182.35 88.88 182.05 88.49 C 181.64 85.74 180.99 82.98 179.40 80.65 Z" />
<path fill="#000000" opacity="1.00" d=" M 150.27 88.31 C 156.81 84.87 163.98 82.47 171.43 82.37 C 172.01 84.43 172.86 86.54 172.53 88.73 C 171.92 92.51 169.67 95.74 167.40 98.73 C 168.79 93.94 170.97 89.33 171.00 84.25 C 162.24 83.49 154.37 87.98 146.77 91.65 C 141.23 94.21 136.28 98.02 130.35 99.69 C 136.30 94.80 143.50 91.87 150.27 88.31 Z" />
<path fill="#000000" opacity="1.00" d=" M 118.99 91.98 C 119.74 91.97 121.26 91.96 122.01 91.96 C 122.01 93.65 122.01 95.35 122.01 97.04 C 121.25 97.04 119.74 97.04 118.99 97.04 C 118.99 95.35 118.99 93.66 118.99 91.98 Z" />
</g>
<g id="#ffffffff">
<path fill="#ffffff" opacity="1.00" d=" M 98.25 33.18 C 109.02 25.99 122.12 22.63 135.02 23.14 C 151.36 22.79 167.80 29.40 179.19 41.16 C 172.89 38.64 166.87 35.49 160.87 32.35 C 160.75 33.02 160.63 33.68 160.51 34.35 C 167.10 37.45 173.75 40.45 180.29 43.67 C 183.93 45.42 186.29 48.81 188.58 51.99 C 183.58 49.74 178.66 46.82 173.02 46.70 C 167.18 46.33 160.08 47.10 156.71 52.58 C 155.83 56.77 155.43 62.01 158.63 65.38 C 163.38 70.42 170.23 73.35 177.15 73.39 C 181.82 73.64 186.80 72.61 190.34 69.37 C 192.62 67.29 193.19 64.09 194.17 61.30 C 198.86 70.81 200.05 81.49 200.38 91.95 C 200.39 99.19 198.71 106.32 196.59 113.20 C 193.41 123.59 186.77 132.57 179.05 140.06 C 167.79 151.32 152.03 158.29 136.02 157.94 C 130.28 157.92 124.46 158.07 118.84 156.74 C 110.55 154.89 102.58 151.38 95.86 146.17 C 86.87 139.15 78.75 130.66 73.71 120.33 C 68.04 108.43 66.35 94.83 68.13 81.83 C 69.12 72.46 72.14 63.26 77.21 55.30 C 82.66 46.64 89.55 38.70 98.25 33.18 M 125.17 31.16 C 113.63 35.46 102.00 39.52 90.49 43.92 C 91.11 44.12 92.35 44.53 92.97 44.74 C 105.07 40.04 117.28 35.66 129.49 31.27 C 131.68 30.48 133.74 29.37 135.68 28.09 C 132.06 28.68 128.59 29.88 125.17 31.16 M 112.54 42.00 C 106.61 43.14 100.53 45.82 96.96 50.89 C 94.03 55.16 95.68 61.27 99.69 64.25 C 109.48 71.88 123.57 72.51 134.67 67.48 C 138.97 65.64 143.13 62.30 144.31 57.59 C 145.32 52.77 141.60 48.66 137.88 46.21 C 130.50 41.17 121.10 40.96 112.54 42.00 M 154.10 63.59 C 154.55 65.86 154.78 68.22 155.74 70.35 C 156.81 71.74 158.47 72.48 159.88 73.47 C 158.08 70.10 156.22 66.76 154.10 63.59 M 133.06 76.49 C 135.14 75.55 137.61 74.98 139.03 73.03 C 140.76 70.85 141.48 68.10 142.23 65.47 C 139.43 69.36 136.73 73.35 133.06 76.49 M 179.40 80.65 C 180.99 82.98 181.64 85.74 182.05 88.49 C 182.35 88.88 182.96 89.67 183.26 90.07 C 183.35 87.88 183.65 85.67 183.25 83.50 C 182.56 81.61 181.11 80.15 179.94 78.55 C 179.80 79.08 179.53 80.13 179.40 80.65 M 150.27 88.31 C 143.50 91.87 136.30 94.80 130.35 99.69 C 136.28 98.02 141.23 94.21 146.77 91.65 C 154.37 87.98 162.24 83.49 171.00 84.25 C 170.97 89.33 168.79 93.94 167.40 98.73 C 169.67 95.74 171.92 92.51 172.53 88.73 C 172.86 86.54 172.01 84.43 171.43 82.37 C 163.98 82.47 156.81 84.87 150.27 88.31 M 118.99 91.98 C 118.99 93.66 118.99 95.35 118.99 97.04 C 119.74 97.04 121.25 97.04 122.01 97.04 C 122.01 95.35 122.01 93.65 122.01 91.96 C 121.26 91.96 119.74 91.97 118.99 91.98 Z" />
<path fill="#ffffff" opacity="1.00" d=" M 99.37 50.37 C 104.20 44.77 112.04 43.50 119.02 42.83 C 126.71 42.73 135.16 44.58 140.58 50.44 C 143.59 53.34 142.97 58.51 140.55 61.57 C 136.73 65.90 130.84 67.62 125.35 68.65 C 115.74 70.45 104.60 68.01 98.16 60.24 C 106.04 58.12 114.19 57.33 122.26 56.26 C 128.68 55.27 135.19 56.10 141.63 55.39 C 136.56 54.44 131.37 54.67 126.23 54.79 C 126.17 52.86 126.09 50.93 126.01 49.00 C 124.17 48.99 122.32 48.98 120.48 48.98 C 120.34 50.87 120.22 52.76 120.11 54.65 C 112.41 55.60 104.74 56.73 97.17 58.48 C 97.41 55.70 97.25 52.52 99.37 50.37 Z" />
<path fill="#ffffff" opacity="1.00" d=" M 161.92 49.95 C 165.62 47.95 170.01 48.11 174.08 48.43 C 180.17 49.24 186.40 51.83 190.13 56.92 C 191.95 59.17 191.87 62.22 192.29 64.94 C 189.47 63.66 186.70 62.30 183.90 60.99 C 183.42 58.46 182.84 55.95 182.15 53.47 C 180.83 53.54 179.51 53.60 178.19 53.64 C 177.35 55.19 176.53 56.75 175.72 58.31 C 169.64 56.83 163.43 55.95 157.22 55.25 C 158.55 53.31 159.76 51.09 161.92 49.95 Z" />
<path fill="#ffffff" opacity="1.00" d=" M 156.88 57.43 C 160.79 57.25 164.74 57.49 168.56 58.40 C 176.43 60.18 184.40 62.40 191.22 66.87 C 188.68 68.72 186.03 70.59 182.91 71.29 C 175.36 72.80 167.22 70.61 161.38 65.62 C 158.89 63.55 157.88 60.38 156.88 57.43 Z" />
</g>
</svg>
