<?xml version="1.0" encoding="utf-8"?>
<!-- Generator: Adobe Illustrator 15.0.2, SVG Export Plug-In . SVG Version: 6.00 Build 0)  -->
<!DOCTYPE svg PUBLIC "-//W3C//DTD SVG 1.1//EN" "http://www.w3.org/Graphics/SVG/1.1/DTD/svg11.dtd">
<svg version="1.1" id="Layer_1" xmlns="http://www.w3.org/2000/svg" xmlns:xlink="http://www.w3.org/1999/xlink" x="0px" y="0px"
	 width="112px" height="121px" viewBox="0 0 112 121" enable-background="new 0 0 112 121" xml:space="preserve">
<path fill="#FFFFFF" d="M0,0h112v121H0V0 M41.35,5.34c-2.69,1.63-5.99,1.4-8.91,2.38c-3.67,0.95-4.23,5.5-7.54,7.08
	c-0.55,1.05-1.11,2.11-1.67,3.17C17.15,21.03,12.76,26.45,6.99,29.99c-0.54,2.56-0.29,5.2-0.52,7.79c-1.64,2.7-4.48,6.71-1.14,9.3
	c-3.98,8.67-2.99,18.55-1.59,27.71c1.53-9.24-1.46-19.38,3.44-27.95c0.42-4.99,0.52-11.11,5.34-14.15c-0.61,1.39-1.22,2.78-1.7,4.23
	c5.5-4.47,10.88-9.11,15.83-14.18c1.35-2.07,4.62,0.08,5.54-2.39c-2.93-0.27-5.88-0.09-8.83-0.15c3.21-4.03,6.32-8.44,10.83-11.1
	c10.97-2.52,22.36-1.21,33.18,1.47c-4.761,1.21-10.351-1.26-14.53,1.82c1.94,0.16,3.881,0.12,5.82-0.01
	c-0.141,0.58-0.4,1.74-0.54,2.32c8.97-1.73,17.95,0.83,26.88,1.48c-0.971-1.13-1.96-2.25-2.92-3.4c4.26,1.979,6.4,6.31,7.8,10.55
	c0.05-0.64,0.149-1.92,0.2-2.56c1.96,3.41,5.891,6.26,5.18,10.63c-1.71-2.07-1.869-5.86-4.92-6.46c1.051,4.32,4.34,7.41,6.82,10.91
	c2.699,4.68,3.79,10.05,4.74,15.3c6.07,9.81,5.32,21.81,5.439,32.9c-0.33,2.21,1.141,3.99,2.11,5.81
	c-0.841,1.73-0.681,3.711-1.261,5.5c-5.199,6.451-6.26,14.931-9.029,22.511c0.84-0.71,1.689-1.4,2.439-2.2
	c2.42-5.279,4.01-10.99,7.121-15.93c1.639-3.59,2.579-7.65,1.879-11.58c-0.57-1.33-1.439-2.6-1.26-4.12
	c0.01-9.71-0.43-19.41-0.619-29.12c-0.9-8.39-8.141-14.09-10.631-21.9c-0.93-2.4-0.9-5.07-1.85-7.45
	c-2.051-3.21-4.34-6.28-6.73-9.26c1.26,0.22,2.53,0.41,3.801,0.56c-1.721-3.25-5.73-3.67-8.301-6.01c1.57,0.11,3.12,0.27,4.68,0.4
	c-0.18-0.71-0.529-2.12-0.709-2.82c-2.53-0.55-5.11-0.76-7.701-0.74c-3.01-2.38-6.1-4.67-9.319-6.75
	c-4.271-0.84-8.63-0.05-12.931,0.11C52.99,1.44,46.58,1.99,41.35,5.34 M69.859,21.19c3.561-1.44,7.5-1.17,10.82,0.75
	c1.291,2.21,3.19,3.99,4.5,6.2c4.84,3.13,6.41,9.07,8.9,13.94c1.08,4.35-1.9,8.14-5.32,10.4c-4.66,0.27-9.359,0.3-14.01-0.26
	c-6.02-1.91-9.32-7.7-13.3-12.16c0.729-4.2,1.899-8.57,5.01-11.68c2.74-3.21,6.729-4.76,10.09-7.15
	c-6.489-0.61-9.81,5.76-13.89,9.58c-1.87,2.92-2.49,6.71-2.15,10.14c1.891,2.47,4.211,4.71,5.09,7.8c6.03,4.53,14,6.46,21.42,5.15
	c3.98-0.61,8.07-3.54,8.49-7.79c1.391-6.63-4.24-11.59-6.43-17.33c-2.29-0.85-3.59-2.82-4.77-4.83c-1.781-1.36-2.66-4.12-5.141-4.36
	C76.09,19.32,71.91,18.05,69.859,21.19 M77.83,33.96c2.87,0.6,5.72,1.27,8.65,1.46c0.459-1.09,2.31-2.1,1.209-3.36
	c-2.479,2.23-5.459,1.79-8.279,0.46c0.029-1.97,0.04-3.94,0-5.9C76.529,27.75,78.33,31.58,77.83,33.96 M15.61,52.03
	c2.62,2.55,1.6,6.4,1.91,9.659c3.9,4,9.96,5.621,15.33,4.16c3.86-3.06,6.75-7.14,9.85-10.919c2.81-3.32,4.4-7.73,3.83-12.09
	c-0.8-0.03-1.6-0.06-2.39-0.1c2.97,9.49-6.78,15.53-11.99,21.82c-3.9,0.449-8.33,0.42-11.38-2.42c-2.51-2.321-2.42-6.021-2.65-9.171
	c2.99-0.02,5.49-1.59,7.37-3.78c-0.26-1.56-0.59-3.11-0.98-4.64c-2-0.09-4-0.17-6-0.19c0.77,2.1,3.17,1.28,4.87,1.56
	c0.03,1.07,0.72,2.32-0.01,3.28c-1.76,1.85-4.47,1.69-6.78,2.17c0-2.43-0.05-5,1.23-7.16c3.5-7.3,14.47-10.24,20.67-4.7
	c2.64,1.79,1.63,7.05,5.88,6.19c-0.75-0.72-2.24-2.14-2.98-2.85c1.14-0.53,2.27-1.07,3.39-1.64c-2.18-0.67-3.52-2.42-4.74-4.2
	c-4.1-0.46-8.01-2.28-12.2-1.95C20.18,36.41,14.26,44.2,15.61,52.03 M1.45,43.61C0.32,54.67,1.34,65.84,1,76.939
	C0.48,80.79,2.59,84.28,2.68,88.061C2.24,94.25,9.32,97.689,9.29,103.8c0.98,4.86,1.65,10.63,5.58,14.091
	c-1.15-5.091-4-9.761-3.75-15.131c2.18,2.221,3.75,4.95,5.91,7.18c1.78,1.801,4.34,2.341,6.58,3.32c1.99,1.1,3.89,2.36,5.89,3.44
	c0.66-2.7-2.28-3.19-4.16-3.83c-2.45-2.21-5.79-2.91-8.41-4.83c-1.21-3.11-3.42-5.56-5.56-8.04c-2.18-8.23-4.13-16.58-7.25-24.51
	c-0.07,6.92,2.91,13.39,3.96,20.16C6.43,93.26,4.15,91.03,3.78,88C0.99,73.35,3.39,58.36,1.45,43.61 M48.39,60.37
	c-1.84,2.229-5.03,3.271-5.58,6.42c-1.9,6.45-5.43,12.25-7.14,18.75c-2.47,6.851-7.83,12.069-11.09,18.51
	c5.96,4.63,13.49,6.22,20.58,8.31c0.47-0.459,1.41-1.359,1.88-1.819c11.431-1,21.431-6.92,31.899-11.03
	c4.92,0.471,10.351,2.971,15.031,0.561c2.239-3.961,3.329-8.61,3.659-13.12c-1.95-5.22-2.53-11.08-5.72-15.771
	c-1.971-2.06-5.21-4.609-8.02-2.439c-7.381-5.85-14.971-13.22-24.98-13.43C55.18,56.29,51.06,57.38,48.39,60.37z"/>
<path fill="#020202" d="M41.35,5.34c5.23-3.35,11.64-3.9,17.679-4.28c4.301-0.16,8.66-0.95,12.931-0.11
	c3.22,2.08,6.31,4.37,9.319,6.75c2.591-0.02,5.171,0.19,7.701,0.74c0.18,0.7,0.529,2.11,0.709,2.82c-1.56-0.13-3.109-0.29-4.68-0.4
	c2.57,2.34,6.58,2.76,8.301,6.01c-1.271-0.15-2.541-0.34-3.801-0.56c2.391,2.98,4.68,6.05,6.73,9.26c0.949,2.38,0.92,5.05,1.85,7.45
	c2.49,7.81,9.73,13.51,10.631,21.9c0.189,9.71,0.629,19.41,0.619,29.12c-0.18,1.521,0.689,2.79,1.26,4.12
	c0.7,3.93-0.24,7.99-1.879,11.58c-3.111,4.939-4.701,10.65-7.121,15.93c-0.75,0.8-1.6,1.49-2.439,2.2
	c2.77-7.58,3.83-16.06,9.029-22.511c0.58-1.789,0.42-3.77,1.261-5.5c-0.97-1.819-2.44-3.6-2.11-5.81
	c-0.119-11.09,0.631-23.09-5.439-32.9c-0.95-5.25-2.041-10.62-4.74-15.3c-2.48-3.5-5.77-6.59-6.82-10.91
	c3.051,0.6,3.21,4.39,4.92,6.46c0.711-4.37-3.22-7.22-5.18-10.63c-0.051,0.64-0.15,1.92-0.2,2.56c-1.399-4.24-3.54-8.57-7.8-10.55
	c0.96,1.15,1.949,2.27,2.92,3.4c-8.93-0.65-17.91-3.21-26.88-1.48c0.14-0.58,0.399-1.74,0.54-2.32c-1.939,0.13-3.88,0.17-5.82,0.01
	c4.18-3.08,9.77-0.61,14.53-1.82C56.55,7.89,45.16,6.58,34.19,9.1c-4.51,2.66-7.62,7.07-10.83,11.1c2.95,0.06,5.9-0.12,8.83,0.15
	c-0.92,2.47-4.19,0.32-5.54,2.39c-4.95,5.07-10.33,9.71-15.83,14.18c0.48-1.45,1.09-2.84,1.7-4.23C7.7,35.73,7.6,41.85,7.18,46.84
	c-4.9,8.57-1.91,18.71-3.44,27.95c-1.4-9.16-2.39-19.04,1.59-27.71c-3.34-2.59-0.5-6.6,1.14-9.3c0.23-2.59-0.02-5.23,0.52-7.79
	c5.77-3.54,10.16-8.96,16.24-12.021c0.56-1.06,1.12-2.12,1.67-3.17c3.31-1.58,3.87-6.13,7.54-7.08C35.36,6.74,38.66,6.97,41.35,5.34
	 M45.02,5.54c0.04,0.24,0.1,0.71,0.13,0.95C55.24,6.27,65.1,9.72,75.23,8.52L75.2,9.17c-0.22,0.51-0.66,1.53-0.88,2.04
	c0.8-0.63,1.59-1.26,2.39-1.89c0.899,0.15,2.69,0.44,3.59,0.59c-1.01-0.36-2-0.74-2.989-1.16c-0.011-0.4-0.021-1.22-0.031-1.62
	C74.79,3.45,70.18,2.11,65.96,1.9C58.811,1.62,51.85,3.66,45.02,5.54 M72.6,12.2c0.17,1.38,0.86,1.62,2.061,0.73
	C74.49,11.55,73.8,11.31,72.6,12.2 M11.56,29.2c-1.18,0.61-2.88,1.9-2.42,3.4C10.55,33.1,14.65,28.75,11.56,29.2 M5,44.29
	C3.48,47.32,8.33,44.4,5,44.29 M101.29,42.58c1.351,5.85,3.79,11.42,6.21,16.89c0.279-5.27-2.27-10.06-4.189-14.8
	C102.8,44.15,101.79,43.1,101.29,42.58z"/>
<path fill="#FDFDFD" d="M45.02,5.54c6.83-1.88,13.791-3.92,20.94-3.64c4.22,0.21,8.83,1.55,11.319,5.23
	c0.011,0.4,0.021,1.22,0.031,1.62C78.3,9.17,79.29,9.55,80.3,9.91c-0.899-0.15-2.69-0.44-3.59-0.59c-0.8,0.63-1.59,1.26-2.39,1.89
	c0.22-0.51,0.66-1.53,0.88-2.04l0.03-0.65C65.1,9.72,55.24,6.27,45.15,6.49C45.12,6.25,45.06,5.78,45.02,5.54z"/>
<path fill="#5F5F5F" d="M72.6,12.2c1.2-0.89,1.891-0.65,2.061,0.73C73.46,13.82,72.77,13.58,72.6,12.2z"/>
<path fill="#010101" d="M69.859,21.19c2.051-3.14,6.23-1.87,9.311-1.6c2.48,0.24,3.359,3,5.141,4.36c1.18,2.01,2.479,3.98,4.77,4.83
	c2.189,5.74,7.82,10.7,6.43,17.33c-0.42,4.25-4.51,7.18-8.49,7.79c-7.42,1.31-15.39-0.62-21.42-5.15
	c-0.879-3.09-3.199-5.33-5.09-7.8c-0.34-3.43,0.28-7.22,2.15-10.14c4.08-3.82,7.4-10.19,13.89-9.58c-3.36,2.39-7.35,3.94-10.09,7.15
	c-3.11,3.11-4.28,7.48-5.01,11.68c3.979,4.46,7.28,10.25,13.3,12.16c4.65,0.561,9.35,0.53,14.01,0.26c3.42-2.26,6.4-6.05,5.32-10.4
	c-2.49-4.87-4.061-10.81-8.9-13.94c-1.31-2.21-3.209-3.99-4.5-6.2C77.359,20.02,73.42,19.75,69.859,21.19z"/>
<path fill="#161616" d="M77.83,33.96c0.5-2.38-1.301-6.21,1.58-7.34c0.04,1.96,0.029,3.93,0,5.9c2.82,1.33,5.8,1.77,8.279-0.46
	c1.101,1.26-0.75,2.27-1.209,3.36C83.55,35.23,80.7,34.56,77.83,33.96z"/>
<path fill="#F9F9F9" d="M11.56,29.2c3.09-0.45-1.01,3.9-2.42,3.4C8.68,31.1,10.38,29.81,11.56,29.2z"/>
<path fill="#0B0B0B" d="M15.61,52.03c-1.35-7.83,4.57-15.62,12.23-16.97c4.19-0.33,8.1,1.49,12.2,1.95c1.22,1.78,2.56,3.53,4.74,4.2
	c-1.12,0.57-2.25,1.11-3.39,1.64c0.74,0.71,2.23,2.13,2.98,2.85c-4.25,0.86-3.24-4.4-5.88-6.19c-6.2-5.54-17.17-2.6-20.67,4.7
	c-1.28,2.16-1.23,4.73-1.23,7.16c2.31-0.48,5.02-0.32,6.78-2.17c0.73-0.96,0.04-2.21,0.01-3.28c-1.7-0.28-4.1,0.54-4.87-1.56
	c2,0.02,4,0.1,6,0.19c0.39,1.53,0.72,3.08,0.98,4.64c-1.88,2.19-4.38,3.76-7.37,3.78c0.23,3.15,0.14,6.85,2.65,9.171
	c3.05,2.84,7.48,2.869,11.38,2.42c5.21-6.291,14.96-12.331,11.99-21.82c0.79,0.04,1.59,0.07,2.39,0.1
	c0.57,4.36-1.02,8.77-3.83,12.09c-3.1,3.78-5.99,7.86-9.85,10.919c-5.37,1.461-11.43-0.16-15.33-4.16
	C17.21,58.43,18.23,54.58,15.61,52.03z"/>
<path fill="#242424" d="M1.45,43.61C3.39,58.36,0.99,73.35,3.78,88c0.37,3.03,2.65,5.26,4.3,7.65C7.03,88.88,4.05,82.41,4.12,75.49
	C7.24,83.42,9.19,91.77,11.37,100c2.14,2.48,4.35,4.93,5.56,8.04c2.62,1.92,5.96,2.62,8.41,4.83c1.88,0.64,4.82,1.13,4.16,3.83
	c-2-1.08-3.9-2.341-5.89-3.44c-2.24-0.979-4.8-1.52-6.58-3.32c-2.16-2.229-3.73-4.959-5.91-7.18c-0.25,5.37,2.6,10.04,3.75,15.131
	c-3.93-3.461-4.6-9.23-5.58-14.091c0.03-6.11-7.05-9.55-6.61-15.739C2.59,84.28,0.48,80.79,1,76.939
	C1.34,65.84,0.32,54.67,1.45,43.61z"/>
<path fill="#999999" d="M5,44.29C8.33,44.4,3.48,47.32,5,44.29z"/>
<path fill="#FEFEFE" d="M101.29,42.58c0.5,0.52,1.51,1.57,2.021,2.09c1.92,4.74,4.469,9.53,4.189,14.8
	C105.08,54,102.641,48.43,101.29,42.58z"/>
<path fill="#272727" d="M48.39,60.37c2.67-2.99,6.79-4.08,10.52-5.06c10.01,0.21,17.6,7.581,24.98,13.43
	c2.81-2.17,6.049,0.38,8.02,2.439c3.189,4.69,3.77,10.551,5.72,15.771c-0.33,4.51-1.42,9.159-3.659,13.12
	c-4.681,2.41-10.111-0.09-15.031-0.561c-10.469,4.11-20.469,10.03-31.899,11.03c-0.47,0.46-1.41,1.36-1.88,1.819
	c-7.09-2.09-14.62-3.68-20.58-8.31c3.26-6.44,8.62-11.659,11.09-18.51c1.71-6.5,5.24-12.3,7.14-18.75
	C43.36,63.641,46.55,62.6,48.39,60.37 M54.73,57.87c2.07,3.34,3.331,7.89,7.52,9.17c0.58-2.99,1.529-5.95,1.57-9.03
	C61.16,56.06,57.67,57.66,54.73,57.87 M49.15,61.43c-0.26,1.28-0.53,2.551-0.8,3.83c0.38,0.42,1.14,1.25,1.52,1.66
	c-0.21,2.77,2.1,3.66,4.4,4.189c3.759-3.189,1.25-7.779,0.02-11.52C52.7,57.76,50.83,60.94,49.15,61.43 M65.63,58.49
	c-0.09,0.91-0.28,2.74-0.38,3.65c1.58,0.85,3.13,1.729,4.7,2.59c0.6-0.381,1.79-1.131,2.39-1.5c-0.64,1.1-0.8,2.83-2.24,3.199
	c-1.99-0.52-3.66-1.82-5.43-2.8c-0.46,1.69-0.279,3.92-1.72,5.16c-1.921-0.181-3.341-1.69-4.99-2.54
	c-0.38,2.27-0.431,5.45-2.99,6.46c-2.09,0.62-3.6-1.37-5.16-2.351c-0.36,3.41-4.4,3.681-7.02,4.261c1.53-1.8,3.86-2.55,5.74-3.89
	c-1.12-1.23-2.2-2.49-3.2-3.82c0.88,0.24,2.64,0.71,3.52,0.949c-0.89-1.279-1.79-2.56-2.69-3.829
	c-5.21,7.56-5.46,17.239-10.42,24.92c-2.39,5.21-5.34,10.229-9.6,14.14c5.22,4.13,11.97,5,17.99,7.42
	c4.75-2.65,10.38-2.38,15.341-4.439c-1.451-2.42-2.791-4.92-4.451-7.211c-6.2-1.369-8.63,5.551-11.84,9.341
	c-1.62-2.15-3.12-4.42-5.12-6.23c-2.88,0.44-5.17,2.511-7.93,3.351c1.53-3.381,5.84-5.36,9.43-4.7c1.24,1.521,1.74,3.7,3.54,4.69
	c2.3-2.181,3.19-5.73,6.29-7.021c2.39-1.47,5.23-1.08,7.84-0.57c0.609,1.88,1.27,3.75,1.939,5.63c1.02-3.459,2.58-6.72,4.109-9.97
	c2.48-0.58,5.021-0.86,7.561-0.7c0.59,1.19,1.2,2.381,1.811,3.561c1.779-2.92,3.42-6.391,7.129-7.131
	C78.38,86.6,76.859,84.13,75,81.93c-3.41,0.16-6.18,2.24-8.45,4.62c-2.93,1.2-5.61-4.06-8.229-1.38c-2.82,2.391-3.71,6.67-7.51,7.99
	c1.68-3.49,3.75-7.03,6.85-9.43c2.68-2.42,5.57,0.85,8.35,1.3c1.86-1.63,3.44-3.98,6.141-4.21c1.47,0,3.55-1.141,4.41,0.6
	c1.75,2.439,4.41,4.71,4.119,8c0.95,0.91,1.9,1.811,2.86,2.71c0.08-0.92,0.25-2.75,0.34-3.67c3.601-0.67,7.69,0.83,8.851,4.59
	c0.89,0.12,1.779,0.24,2.68,0.36c0.39-2.88,1.609-5.9-0.061-8.62c-2.42-5.09-1.899-13.2-8.609-14.83
	c0.619,0.89,1.859,2.649,2.48,3.53C80.16,70.37,75.04,60.99,65.63,58.49 M86.141,89.62c-1.121,2.93-2.381,5.83-3.021,8.93
	c2.92,0.47,5.96,1.14,8.899,0.47c2-0.52,1.91-3.149,3-4.459c-0.75,0.06-2.24,0.199-2.99,0.26C90.43,92.59,89.65,88.96,86.141,89.62
	 M77.061,91.5c-1.08,3.02-2.701,6.21-6.17,6.91c-0.15-1.25-0.291-2.5-0.42-3.75c-1.291-0.12-2.681-0.98-3.931-0.33
	c-3.229,1.24-3.78,5.061-5.5,7.67c-0.899,1.1-0.62,2.48-0.5,3.77c6.53-2.369,12.38-6.64,19.42-7.47c2.319,0.08,1.899-2.72,2.54-4.2
	c-0.35-0.72-1.05-2.14-1.4-2.85C79.75,91.311,78.4,91.4,77.061,91.5z"/>
<path fill="#FCFCFC" d="M54.73,57.87c2.94-0.21,6.43-1.81,9.09,0.14c-0.041,3.08-0.99,6.04-1.57,9.03
	C58.061,65.76,56.8,61.21,54.73,57.87z"/>
<path fill="#FAFAFA" d="M49.15,61.43c1.68-0.49,3.55-3.67,5.14-1.84c1.23,3.74,3.739,8.33-0.02,11.52
	c-2.3-0.529-4.61-1.42-4.4-4.189c-0.38-0.41-1.14-1.24-1.52-1.66C48.62,63.98,48.89,62.71,49.15,61.43z"/>
<path fill="#FEFEFE" d="M65.63,58.49c9.41,2.5,14.53,11.88,23.591,15c-0.621-0.881-1.861-2.641-2.48-3.53
	c6.71,1.63,6.189,9.74,8.609,14.83c1.67,2.72,0.45,5.74,0.061,8.62c-0.9-0.12-1.79-0.24-2.68-0.36c-1.16-3.76-5.25-5.26-8.851-4.59
	c-0.09,0.92-0.26,2.75-0.34,3.67c-0.96-0.899-1.91-1.8-2.86-2.71c0.291-3.29-2.369-5.561-4.119-8c-0.86-1.74-2.94-0.6-4.41-0.6
	c-2.7,0.229-4.28,2.58-6.141,4.21c-2.779-0.45-5.67-3.72-8.35-1.3c-3.1,2.399-5.17,5.939-6.85,9.43c3.8-1.32,4.69-5.6,7.51-7.99
	c2.619-2.68,5.3,2.58,8.229,1.38c2.271-2.38,5.04-4.46,8.45-4.62c1.859,2.2,3.38,4.67,4.779,7.18
	c-3.709,0.74-5.35,4.211-7.129,7.131c-0.61-1.18-1.221-2.37-1.811-3.561c-2.54-0.16-5.08,0.12-7.561,0.7
	c-1.529,3.25-3.09,6.511-4.109,9.97c-0.67-1.88-1.33-3.75-1.939-5.63c-2.61-0.51-5.451-0.899-7.84,0.57
	c-3.1,1.29-3.99,4.84-6.29,7.021c-1.8-0.99-2.3-3.17-3.54-4.69c-3.59-0.66-7.9,1.319-9.43,4.7c2.76-0.84,5.05-2.91,7.93-3.351
	c2,1.811,3.5,4.08,5.12,6.23c3.21-3.79,5.64-10.71,11.84-9.341c1.66,2.291,3,4.791,4.451,7.211
	c-4.961,2.06-10.591,1.789-15.341,4.439c-6.02-2.42-12.77-3.29-17.99-7.42c4.26-3.91,7.21-8.93,9.6-14.14
	c4.96-7.681,5.21-17.36,10.42-24.92c0.9,1.27,1.8,2.55,2.69,3.829c-0.88-0.239-2.64-0.709-3.52-0.949c1,1.33,2.08,2.59,3.2,3.82
	c-1.88,1.34-4.21,2.09-5.74,3.89c2.62-0.58,6.66-0.851,7.02-4.261c1.56,0.98,3.07,2.971,5.16,2.351c2.559-1.01,2.61-4.19,2.99-6.46
	c1.649,0.85,3.069,2.359,4.99,2.54c1.44-1.24,1.26-3.47,1.72-5.16c1.77,0.979,3.439,2.28,5.43,2.8c1.44-0.369,1.601-2.1,2.24-3.199
	c-0.6,0.369-1.79,1.119-2.39,1.5c-1.57-0.86-3.12-1.74-4.7-2.59C65.35,61.23,65.54,59.4,65.63,58.49z"/>
<path fill="#F9F9F9" d="M86.141,89.62c3.51-0.66,4.289,2.97,5.889,5.2c0.75-0.061,2.24-0.2,2.99-0.26c-1.09,1.31-1,3.939-3,4.459
	c-2.939,0.67-5.979,0-8.899-0.47C83.76,95.45,85.02,92.55,86.141,89.62z"/>
<path fill="#FBFBFB" d="M77.061,91.5c1.34-0.1,2.689-0.189,4.039-0.25c0.351,0.71,1.051,2.13,1.4,2.85
	c-0.641,1.48-0.221,4.28-2.54,4.2c-7.04,0.83-12.89,5.101-19.42,7.47c-0.12-1.289-0.399-2.67,0.5-3.77
	c1.72-2.609,2.271-6.43,5.5-7.67c1.25-0.65,2.64,0.21,3.931,0.33c0.129,1.25,0.27,2.5,0.42,3.75
	C74.359,97.71,75.98,94.52,77.061,91.5z"/>
</svg>
