<?xml version="1.0" encoding="utf-8"?>
<!-- Generator: Adobe Illustrator 15.0.2, SVG Export Plug-In . SVG Version: 6.00 Build 0)  -->
<!DOCTYPE svg PUBLIC "-//W3C//DTD SVG 1.1//EN" "http://www.w3.org/Graphics/SVG/1.1/DTD/svg11.dtd">
<svg version="1.1" id="Layer_1" xmlns="http://www.w3.org/2000/svg" xmlns:xlink="http://www.w3.org/1999/xlink" x="0px" y="0px"
	 width="177px" height="189px" viewBox="0 0 177 189" enable-background="new 0 0 177 189" xml:space="preserve">
<path fill="#FFFFFF" d="M0,0h177v143.859c-0.05,0.101-0.15,0.32-0.2,0.431l0.2-0.12v3.73c-0.141,0.959-0.42,2.869-0.561,3.83
	l-1.92,0.06c0.221-3.899-0.129-7.851,0.99-11.649c-1.41-15.4-2.81-30.811-3.949-46.241c-0.36-4.37-1.141-8.76-2.961-12.79
	c-2.72-6.79-8.209-11.95-11.189-18.61c-2.53-4.7-3.27-10.03-3.77-15.26c-4.201-4.49-7.181-9.89-10.91-14.75
	c-1.541-3.54-4.5-6.36-5.311-10.22c-1.32-0.03-2.641-0.06-3.96-0.1c-1.2-3.89-4.92-5.6-8.36-7.06c-5.14-2.03-6.09-8.41-10.74-11.07
	c-0.08,1.3-0.149,2.61-0.209,3.91c-1.01,0.64-2.01,1.29-3.01,1.93c7.659,0.86,12.289,7.69,18.379,11.59
	c-0.22,2.24-0.39,4.5-0.539,6.75c-4.681-5.75-7.631-13.54-14.851-16.689c-2.64-0.03-1.22,2.52-0.06,3.36
	c2.75,2.56,7.119,3.89,7.84,8.07c-5.66-3.11-11.721-8.01-11.79-15.06c-3.41-0.63-6.44-2.43-9.83-3.11c-0.04,0.9-0.13,2.71-0.17,3.61
	c-3.32-1.71-6.19-4.12-9.14-6.38c0.14,0.62,0.42,1.86,0.56,2.47c1.63,1.14,3.3,2.32,4.09,4.229C90.85,8.2,87.82,3.2,82.71,3.9
	c-0.11,4.14,5.04,3.13,6.81,5.99c-8.979,0.18-16.979,4.53-25.43,6.98c-3.99,1.23-8.36,1.17-12.11,3.16c-4.32,2.12-4.89,8.14-9.7,9.6
	c-0.76,1.42-0.93,3.4-2.42,4.25c-2.3,0.6-4.69,0.68-6.99,1.24c0.93,0.87,1.88,1.73,2.84,2.57c-1.43,0.16-2.85,0.32-4.28,0.48
	c-0.1,1.56-0.22,3.12-0.34,4.69c-3.75,1.61-5.44,5.45-8.31,8.09c0.58,4.87-4.8,7.14-7.26,10.55c-0.29-2.55,1.19-5.77-0.88-7.86
	c0.23,3.88,0.72,8-1.27,11.54c-2.18,4.66-6.13,10.13-2.48,15.16c0.59-1.81-0.36-4.6,1.89-5.52c-0.8,6.34-3.95,12.04-5.08,18.28
	c-1.2,11.94-0.19,24,1.89,35.78c2.08,9.65,4.69,19.181,6.91,28.8c-2.12-3.46-5.19-6.32-6.89-10.02
	c-2.68-13.03-3.31-26.41-2.99-39.69c0.24-9.02-0.5-18.03-0.82-27.04c-0.07-1.86-0.36-3.72-0.93-5.5C3.89,83.58,4.2,91.81,4.09,100
	c-0.12,12.17,0.37,24.4,2.59,36.391c0.68,3.159,1.42,6.35,1.23,9.609c-0.41,6.51,5.38,10.87,8.19,16.17
	c2.26,3.189,1.05,7.27,2.16,10.811c1.1,3.859,2.73,7.569,3.38,11.55c0.93,1.479,1.8,3,2.75,4.47H0V0z"/>
<path fill="#010101" d="M90.98,2.02c2.949,2.26,5.819,4.67,9.14,6.38c0.04-0.9,0.13-2.71,0.17-3.61c3.39,0.68,6.42,2.48,9.83,3.11
	c0.069,7.05,6.13,11.95,11.79,15.06c-0.721-4.18-5.09-5.51-7.84-8.07c-1.16-0.84-2.58-3.39,0.06-3.36
	c7.22,3.15,10.17,10.939,14.851,16.689c0.149-2.25,0.319-4.51,0.539-6.75c-6.09-3.9-10.72-10.729-18.379-11.59
	c1-0.64,2-1.29,3.01-1.93c0.06-1.3,0.129-2.61,0.209-3.91c4.65,2.66,5.601,9.04,10.74,11.07c3.44,1.46,7.16,3.17,8.36,7.06
	c1.319,0.04,2.64,0.07,3.96,0.1c0.811,3.86,3.77,6.68,5.311,10.22c3.729,4.86,6.709,10.26,10.91,14.75
	c0.5,5.229,1.239,10.56,3.77,15.26c2.98,6.66,8.47,11.82,11.189,18.61c1.82,4.03,2.601,8.42,2.961,12.79
	c1.14,15.43,2.539,30.84,3.949,46.241c-1.119,3.799-0.77,7.75-0.99,11.649l1.92-0.06c0.141-0.961,0.42-2.871,0.561-3.83v5.83
	c-2.689,2.399-3.15,5.949-4.08,9.22c-0.21,1.46-1.83,1.79-2.859,2.489c-1.09,5.451-3.561,10.521-5.84,15.561
	c-1.021,2.74-1.74,5.67-3.611,8H158.2c4.649-10.91,6.021-23.42,13.479-33c0.23-4.141,0.961-8.24,1.15-12.391
	c-0.58-0.209-1.75-0.619-2.33-0.829c-0.061-15.28,0.7-30.83-3.2-45.761c-0.71-2.669-2.55-4.81-3.88-7.18
	c-3.09-4.6-1.66-10.53-3.97-15.45c-2.82-6.44-6.011-12.81-10.13-18.52c0.64-0.49,1.279-0.98,1.92-1.47l0.99,1.85
	c0.06-6.84-5.15-11.65-8.9-16.74c0.199,2.021,0.59,4.01,1.08,5.97c3.51,1.36,4.311,5.24,5.66,8.31c-0.801-0.23-2.42-0.7-3.23-0.94
	l0.9-0.22c-0.93-1.42-1.84-2.85-2.73-4.3c-0.32,0.05-0.97,0.17-1.289,0.22c-0.641,1.41-1.98,2.8-1.49,4.46
	c1.08,3.74,4.51,6.18,6.029,9.71c0.83,2.2,0.891,4.72,2.42,6.61c2.41,2.87,1.99,6.93,1.42,10.38c-1.379,6.16-7.09,10.31-13.01,11.58
	c-10.07,1.62-20.99,0.25-29.48-5.74c-2.319-1.42-3.859-3.71-5.299-5.96c-2.121-2.86-4.371-5.63-6.711-8.31
	c-0.33-4.311-0.24-8.88,1.98-12.73c1.939-3.38,3.811-6.81,4.99-10.54c5.47,0.55,7.58-5.57,11.979-7.58
	c1.81-1.41,3.921-0.38,5.74,0.36c0.08,0.52,0.149,1.04,0.229,1.56c-3.289-1.56-6.609,0.83-8.93,3.02c1.36-0.72,2.71-1.48,4.04-2.28
	c0.011,1.55,0.011,3.1,0.021,4.65c3.879-0.7,8.52-1.17,11.59,1.86c3.65,3.22,3.09,8.5,2.279,12.79c-3.5,2.04-7.58,2.23-11.52,1.95
	c-2-2.41-4.35-4.69-5.45-7.69c-0.909-2.86-0.22-5.87,0.46-8.7c-5.25,1.41-10.21,4.44-12.72,9.42c-2.181,3.87-2.931,8.34-3.17,12.73
	c6.25,6.46,11.021,15.2,19.94,18.38c6.549,1.27,13.319,0.99,19.959,0.94c7.631-1.59,13.25-10.49,10.461-18.06
	c-0.811-1.49-1.881-2.81-2.851-4.18c-0.021-1.14-0.05-2.28-0.08-3.42c-4.271-3.66-4.76-10.78-10.75-12.47
	c-0.68-4.18-5.46-5.65-6.409-9.72c-4.94-2.69-11.621-5.08-16.381-0.66c-0.21-0.75-0.42-1.5-0.63-2.26c3.8-1.93,8.13-1.88,12.28-1.92
	c-0.34-1.68-0.689-3.35-1.051-5.02c-8.31-3.63-17.08-9.37-26.5-6.03c-1.859-1.65-3.729-3.4-6.159-4.17
	c-7.96-2.95-16.67-2.3-24.99-1.76c-4.07,0.76-8.78,0.11-12.07,3.11c-3.53,2.95-6.77,6.38-11.23,7.91c-0.07,4.17-3.5,7.02-4.46,10.91
	c-0.51-0.04-1.54-0.12-2.05-0.16c-3.51,6.65-8.17,12.75-14.34,17.14c-1.69,1.33-3.94,2.28-4.74,4.44
	c-2.46,5.84-0.25,12.8-3.75,18.31c-3.06,4.92-2.7,10.96-3.43,16.5c-0.47,8.73-0.69,17.5-0.48,26.24
	c4.2,13.05,8.46,26.14,11.29,39.58c1.89,2.01,3.96,3.869,5.64,6.069c1.51,1.94,1.8,4.58,3.36,6.47c4.26,3.03,9.77,3.95,13.49,7.84
	c1.74,0.311,3.47,0.711,5.16,1.25c0.32,0.871,0.96,2.61,1.28,3.48c-3.65-1.06-7.1-2.82-9.55-5.8c-2.63-0.49-5.42-0.82-7.69-2.38
	c-5.09-3.23-7.38-9.19-11.79-13.13c-0.47,7.54,2.74,14.53,5.19,21.47h-1.4c-0.95-1.47-1.82-2.99-2.75-4.47
	c-0.65-3.98-2.28-7.69-3.38-11.55c-1.11-3.541,0.1-7.621-2.16-10.811c-2.81-5.3-8.6-9.66-8.19-16.17c0.19-3.26-0.55-6.45-1.23-9.609
	C4.46,124.4,3.97,112.17,4.09,100c0.11-8.19-0.2-16.42,0.78-24.57c0.57,1.78,0.86,3.64,0.93,5.5c0.32,9.01,1.06,18.02,0.82,27.04
	c-0.32,13.28,0.31,26.66,2.99,39.69c1.7,3.699,4.77,6.56,6.89,10.02c-2.22-9.619-4.83-19.149-6.91-28.8
	C7.51,117.1,6.5,105.04,7.7,93.1c1.13-6.24,4.28-11.94,5.08-18.28c-2.25,0.92-1.3,3.71-1.89,5.52c-3.65-5.03,0.3-10.5,2.48-15.16
	c1.99-3.54,1.5-7.66,1.27-11.54c2.07,2.09,0.59,5.31,0.88,7.86c2.46-3.41,7.84-5.68,7.26-10.55c2.87-2.64,4.56-6.48,8.31-8.09
	c0.12-1.57,0.24-3.13,0.34-4.69c1.43-0.16,2.85-0.32,4.28-0.48c-0.96-0.84-1.91-1.7-2.84-2.57c2.3-0.56,4.69-0.64,6.99-1.24
	c1.49-0.85,1.66-2.83,2.42-4.25c4.81-1.46,5.38-7.48,9.7-9.6c3.75-1.99,8.12-1.93,12.11-3.16c8.45-2.45,16.45-6.8,25.43-6.98
	C87.75,7.03,82.6,8.04,82.71,3.9c5.11-0.7,8.14,4.3,12.92,4.82c-0.79-1.91-2.46-3.09-4.09-4.229C91.4,3.88,91.12,2.64,90.98,2.02
	 M102.15,11.09c1.899,2.05,3.789,4.15,6.109,5.73C108.49,13.6,104.91,11.62,102.15,11.09 M70.37,16.47
	c3.86,0.3,7.81-0.189,11.61,0.73c7.629,1.28,15.161,5.15,23.03,2.98c-3.689-3.76-8.689-5.64-12.949-8.6
	C84.83,13.18,77.18,13.3,70.37,16.47 M132.23,23.73c-0.9,6.38,2.699,12.17,7.33,16.2C139.109,33.96,137.26,27.45,132.23,23.73
	 M127.04,35.12c-0.33,1.03-0.63,2.07-0.92,3.11c1.28,0.22,2.56,0.41,3.84,0.6C129.05,37.55,128.08,36.31,127.04,35.12 M116.38,51.97
	c0.521,0.55,1.05,1.1,1.591,1.64c0.92-1.14,1.779-2.32,2.659-3.49C118.939,50.04,117.2,50.31,116.38,51.97 M161.24,73.75
	c-0.12,3.34,1.41,6.4,2.5,9.47c2.619,6.29,5.34,12.601,6.689,19.32c0.98-5.61,0.061-11.38-2.289-16.53
	C166.141,81.75,165.93,76.11,161.24,73.75z"/>
<path fill="#FEFEFE" d="M102.15,11.09c2.76,0.53,6.34,2.51,6.109,5.73C105.939,15.24,104.05,13.14,102.15,11.09z"/>
<path fill="#FDFDFD" d="M70.37,16.47c6.81-3.17,14.46-3.29,21.69-4.89c4.26,2.96,9.26,4.84,12.949,8.6
	c-7.869,2.17-15.4-1.7-23.03-2.98C78.18,16.28,74.23,16.77,70.37,16.47z"/>
<path fill="#FFFFFF" d="M53.89,22.86c3.29-3,8-2.35,12.07-3.11c8.32-0.54,17.03-1.19,24.99,1.76c2.43,0.771,4.3,2.521,6.159,4.17
	c9.42-3.34,18.19,2.4,26.5,6.03c0.361,1.67,0.711,3.34,1.051,5.02c-4.15,0.04-8.48-0.01-12.28,1.92c0.21,0.76,0.42,1.51,0.63,2.26
	c4.76-4.42,11.44-2.03,16.381,0.66c0.949,4.07,5.729,5.54,6.409,9.72c5.99,1.69,6.479,8.81,10.75,12.47
	c0.03,1.14,0.06,2.28,0.08,3.42c0.97,1.37,2.04,2.69,2.851,4.18c2.789,7.57-2.83,16.47-10.461,18.06
	c-6.64,0.05-13.41,0.33-19.959-0.94c-8.92-3.18-13.69-11.92-19.94-18.38c0.239-4.39,0.989-8.86,3.17-12.73
	c2.51-4.98,7.47-8.01,12.72-9.42c-0.68,2.83-1.369,5.84-0.46,8.7c1.101,3,3.45,5.28,5.45,7.69c3.939,0.28,8.02,0.09,11.52-1.95
	c0.811-4.29,1.371-9.57-2.279-12.79c-3.07-3.03-7.711-2.56-11.59-1.86c-0.01-1.55-0.01-3.1-0.021-4.65
	c-1.33,0.8-2.68,1.56-4.04,2.28c2.32-2.19,5.641-4.58,8.93-3.02c-0.08-0.52-0.149-1.04-0.229-1.56c-1.819-0.74-3.931-1.77-5.74-0.36
	c-4.399,2.01-6.51,8.13-11.979,7.58c-1.18,3.73-3.051,7.16-4.99,10.54c-2.221,3.85-2.311,8.42-1.98,12.73
	c2.34,2.68,4.59,5.45,6.711,8.31c1.439,2.25,2.979,4.54,5.299,5.96c8.49,5.99,19.41,7.36,29.48,5.74
	c5.92-1.27,11.631-5.42,13.01-11.58c0.57-3.45,0.99-7.51-1.42-10.38c-1.529-1.89-1.59-4.41-2.42-6.61
	c-1.52-3.53-4.949-5.97-6.029-9.71c-0.49-1.66,0.85-3.05,1.49-4.46c0.319-0.05,0.969-0.17,1.289-0.22
	c0.891,1.45,1.801,2.88,2.73,4.3l-0.9,0.22c0.811,0.24,2.43,0.71,3.23,0.94c-1.35-3.07-2.15-6.95-5.66-8.31
	c-0.49-1.96-0.881-3.95-1.08-5.97c3.75,5.09,8.96,9.9,8.9,16.74l-0.99-1.85c-0.641,0.49-1.28,0.98-1.92,1.47
	c4.119,5.71,7.31,12.08,10.13,18.52c2.31,4.92,0.88,10.85,3.97,15.45c1.33,2.37,3.17,4.51,3.88,7.18
	c3.9,14.931,3.14,30.48,3.2,45.761c0.58,0.21,1.75,0.62,2.33,0.829c-0.189,4.15-0.92,8.25-1.15,12.391
	c-7.459,9.58-8.83,22.09-13.479,33H25.79c-2.45-6.939-5.66-13.93-5.19-21.47c4.41,3.939,6.7,9.899,11.79,13.13
	c2.27,1.56,5.06,1.89,7.69,2.38c2.45,2.979,5.9,4.74,9.55,5.8c-0.32-0.87-0.96-2.609-1.28-3.48c-1.69-0.539-3.42-0.939-5.16-1.25
	c-3.72-3.89-9.23-4.81-13.49-7.84c-1.56-1.89-1.85-4.529-3.36-6.47c-1.68-2.2-3.75-4.06-5.64-6.069
	c-2.83-13.44-7.09-26.53-11.29-39.58c-0.21-8.74,0.01-17.51,0.48-26.24c0.73-5.54,0.37-11.58,3.43-16.5
	c3.5-5.51,1.29-12.47,3.75-18.31c0.8-2.16,3.05-3.11,4.74-4.44c6.17-4.39,10.83-10.49,14.34-17.14c0.51,0.04,1.54,0.12,2.05,0.16
	c0.96-3.89,4.39-6.74,4.46-10.91C47.12,29.24,50.36,25.81,53.89,22.86 M55.88,41.04c-0.12-0.95-0.37-2.85-0.49-3.8
	c-5.7,1.52-7,8.729-12.52,10.8c1.02,7.16-6.69,9.81-10.61,14.1c-1.69,6.21-3.95,12.35-4.49,18.81c-0.05,2.44-0.21,5.24,1.58,7.15
	c-0.11,5.09,1.75,9.99,1.19,15.089c5.92,7.051,15.7,8.17,24.31,7.121c5-7.601,13.34-12.521,17.42-20.801
	c2.87-5.04,3.74-10.94,3.3-16.67c-5.51-1.32-9.27-5.95-12.15-10.52c-8.04,0.27-16.39-0.96-24.07,2.11
	c9.52-9.01,18.91-20.05,32.62-22.14c-1.19-2.01-3.78-2.82-5.98-2.46c-5.03,1.43-8.39,5.87-13.2,7.74c0.83-4.06,5.58-4.81,7.57-8.05
	c0.73-1.9,0.57-4.45-1.42-5.55C57.46,36.12,56.88,38.67,55.88,41.04 M76.28,102.47c-1.52,2.72-3.84,4.921-5.24,7.7
	c-2.28,8.36-3.09,17.141-2.25,25.78c0.66,4.14,1.47,8.61,4.48,11.75c0.72-0.101,2.15-0.31,2.86-0.41c0.54,0.97,1.08,1.94,1.62,2.91
	c4.99,1.08,10.19-0.11,15.13,1.26l-0.89,1.25c4.35,0.26,8.33-1.49,12.49-2.38c1.029-3.8,2.99-7.55,6.859-9.07
	c0.03-2.199,0.07-4.6,1.689-6.31c1.511-2.24,4.99-4.601,3.141-7.62c-1.17,0.91-2.34,1.811-3.52,2.71
	c-0.34-4.399,0.34-8.89-0.33-13.24c-2.6-4.069-5.5-7.93-8.17-11.94c-3.92-5.56-9.99-10.339-17.11-10.129
	C82.25,94.88,78.49,98.5,76.28,102.47z"/>
<path fill="#FDFDFD" d="M132.23,23.73c5.029,3.72,6.879,10.23,7.33,16.2C134.93,35.9,131.33,30.11,132.23,23.73z"/>
<path fill="#010101" d="M55.88,41.04c1-2.37,1.58-4.92,3.06-7.07c1.99,1.1,2.15,3.65,1.42,5.55c-1.99,3.24-6.74,3.99-7.57,8.05
	c4.81-1.87,8.17-6.31,13.2-7.74c2.2-0.36,4.79,0.45,5.98,2.46c-13.71,2.09-23.1,13.13-32.62,22.14c7.68-3.07,16.03-1.84,24.07-2.11
	c2.88,4.57,6.64,9.2,12.15,10.52c0.44,5.73-0.43,11.63-3.3,16.67c-4.08,8.28-12.42,13.2-17.42,20.801
	c-8.61,1.049-18.39-0.07-24.31-7.121c0.56-5.1-1.3-10-1.19-15.089c-1.79-1.91-1.63-4.71-1.58-7.15c0.54-6.46,2.8-12.6,4.49-18.81
	c3.92-4.29,11.63-6.94,10.61-14.1c5.52-2.07,6.82-9.28,12.52-10.8C55.51,38.19,55.76,40.09,55.88,41.04 M46.5,66.2
	c4.86,1.15,9.78,2.48,13.78,5.6c0.57,5.59-2.76,10.44-7.09,13.6c-2.89-0.63-6.07-0.99-8.23-3.23c-3.87-3.35-4.55-8.84-4.03-13.65
	c-3.63,0.23-7.22,2.17-8.82,5.52c-1.77,3.76-2.82,7.95-2.68,12.12c1.31,5.98,1.8,12.529,6,17.39c4.15,5.13,11.6,5.841,17.59,4.351
	c4.11-3.811,7.94-7.95,11.87-11.961c5.23-5.399,8.45-12.489,9.24-19.959c-1.65,1.77-3.89,2.57-6.31,2.32
	c-0.61-5.26-3.69-10.34-8.63-12.53C55.24,63.61,50.37,64.12,46.5,66.2 M43.93,69.89c-0.83,1.19-0.64,2.68-0.51,4.04
	c1.97-1,3.63-2.49,4.59-4.52C46.67,69.58,45.14,69.18,43.93,69.89z"/>
<path fill="#FDFDFD" d="M127.04,35.12c1.04,1.19,2.01,2.43,2.92,3.71c-1.28-0.19-2.56-0.38-3.84-0.6
	C126.41,37.19,126.71,36.15,127.04,35.12z"/>
<path fill="#FDFDFD" d="M116.38,51.97c0.82-1.66,2.56-1.93,4.25-1.85c-0.88,1.17-1.739,2.35-2.659,3.49
	C117.43,53.07,116.9,52.52,116.38,51.97z"/>
<path fill="#FFFFFF" d="M46.5,66.2c3.87-2.08,8.74-2.59,12.69-0.43c4.94,2.19,8.02,7.27,8.63,12.53c2.42,0.25,4.66-0.55,6.31-2.32
	c-0.79,7.47-4.01,14.56-9.24,19.959c-3.93,4.011-7.76,8.15-11.87,11.961c-5.99,1.49-13.44,0.779-17.59-4.351
	c-4.2-4.86-4.69-11.41-6-17.39c-0.14-4.17,0.91-8.36,2.68-12.12c1.6-3.35,5.19-5.29,8.82-5.52c-0.52,4.81,0.16,10.3,4.03,13.65
	c2.16,2.24,5.34,2.6,8.23,3.23c4.33-3.16,7.66-8.01,7.09-13.6C56.28,68.68,51.36,67.35,46.5,66.2z"/>
<path fill="#FDFDFD" d="M43.93,69.89c1.21-0.71,2.74-0.31,4.08-0.48c-0.96,2.03-2.62,3.52-4.59,4.52
	C43.29,72.57,43.1,71.08,43.93,69.89z"/>
<path fill="#FCFCFC" d="M161.24,73.75c4.689,2.36,4.9,8,6.9,12.26c2.35,5.15,3.27,10.92,2.289,16.53
	c-1.35-6.72-4.07-13.03-6.689-19.32C162.65,80.15,161.12,77.09,161.24,73.75z"/>
<path fill="#020202" d="M76.28,102.47c2.21-3.97,5.97-7.59,10.76-7.74c7.12-0.21,13.19,4.57,17.11,10.129
	c2.67,4.011,5.57,7.871,8.17,11.94c0.67,4.351-0.01,8.841,0.33,13.24c1.18-0.899,2.35-1.8,3.52-2.71c1.85,3.02-1.63,5.38-3.141,7.62
	c-1.619,1.71-1.659,4.11-1.689,6.31c-3.869,1.521-5.83,5.271-6.859,9.07c-4.16,0.89-8.141,2.64-12.49,2.38l0.89-1.25
	c-4.94-1.37-10.14-0.18-15.13-1.26c-0.54-0.97-1.08-1.94-1.62-2.91c-0.71,0.101-2.14,0.31-2.86,0.41
	c-3.01-3.14-3.82-7.61-4.48-11.75c-0.84-8.64-0.03-17.42,2.25-25.78C72.44,107.391,74.76,105.189,76.28,102.47 M85.43,99.42
	c0.06,1.79,0.13,3.58,0.21,5.36c1.61,0.03,3.21,0.05,4.82,0.06c0.06-1.91,0.399-3.76,1.021-5.56
	C89.46,99.33,87.45,99.38,85.43,99.42 M92.96,100.4c0.53,2.49,0.511,5.609,2.851,7.199c2.41-0.119,2.369-3.17,1.219-4.58
	C96.08,101.609,94.471,100.99,92.96,100.4 M87.99,106.6c-3.57,2.61-8.14,2.57-12.35,2.84c-2.99,7.091-3.97,14.891-4.22,22.521
	c1.44-0.7,2.78-1.75,1.88-3.51c5.15-1.841,10.92-4.19,16.31-1.92c2.74,1.17,5.92,1.729,8.74,0.5c-1.57-0.44-3.289-0.53-4.689-1.431
	c6.359-1.56,10.77,3.9,16.08,6.15c0.57-6.78-3.11-12.84-7.36-17.76c0-2.53-0.8-7.66-4.44-5.98C94.5,109.1,91.38,104.67,87.99,106.6
	 M81.6,130.439c-2.37,1.78-4.87,3.391-7.71,4.301c0.97,3.27,4.8,3.18,7.52,3.93c-0.22,0.63-0.66,1.88-0.88,2.51
	c0.65,0.62,1.31,1.24,1.97,1.851c0-3.29,0.81-7.78,5.08-7.53c0.5-2.07,1.05-4.12,1.5-6.2C86.58,129.23,83.69,128.7,81.6,130.439
	 M94.8,131.609c-2.19,1.141-4.21,2.69-4.72,5.261c1.58,0.66,2.08,1.85,1.49,3.569c-1.84-0.359-3.66-0.799-5.48-1.26
	c-0.34,1.36-0.61,2.74-0.82,4.131c1.93,0.289,3.89,0.39,5.85,0.31c0.38-3.49,2.97-6.21,5.8-8c2.27-0.601,4.02,1.18,5.801,2.271
	c1.229-0.701,2.529-1.25,3.879-1.671c-0.02-0.319-0.07-0.97-0.1-1.29C103.37,131.98,99.01,130.859,94.8,131.609 M71.97,139.09
	c0.92,2.6,3.01,5.27,6.12,4.61C76.6,141.57,74.42,139.939,71.97,139.09 M94.25,143.4c2.76,1,5.75,1.119,8.66,1.09
	c-1.16-2.03-2.27-4.53-4.84-5.021C95.859,139.22,94.529,141.52,94.25,143.4 M82.84,146.28c0.19,0.329,0.56,1.01,0.74,1.34
	c2.35,0.3,6.9,1.649,7.66-1.49C88.44,145.92,85.63,145.96,82.84,146.28z"/>
<path fill="#FFFFFF" d="M85.43,99.42c2.02-0.04,4.03-0.09,6.05-0.14c-0.621,1.8-0.961,3.649-1.021,5.56
	c-1.61-0.01-3.21-0.029-4.82-0.06C85.56,103,85.49,101.21,85.43,99.42z"/>
<path fill="#FEFEFE" d="M92.96,100.4c1.511,0.59,3.12,1.209,4.069,2.619c1.15,1.41,1.191,4.461-1.219,4.58
	C93.471,106.01,93.49,102.891,92.96,100.4z"/>
<path fill="#FEFEFE" d="M87.99,106.6c3.39-1.93,6.51,2.5,9.949,1.41c3.641-1.68,4.44,3.45,4.44,5.98
	c4.25,4.92,7.931,10.979,7.36,17.76c-5.311-2.25-9.721-7.71-16.08-6.15c1.4,0.9,3.119,0.99,4.689,1.431c-2.82,1.229-6,0.67-8.74-0.5
	c-5.389-2.271-11.159,0.079-16.31,1.92c0.9,1.76-0.44,2.81-1.88,3.51c0.25-7.63,1.23-15.43,4.22-22.521
	C79.85,109.17,84.42,109.21,87.99,106.6z"/>
<path fill="#FCFCFC" d="M81.6,130.439c2.09-1.739,4.98-1.209,7.48-1.14c-0.45,2.08-1,4.13-1.5,6.2c-4.27-0.25-5.08,4.24-5.08,7.53
	c-0.66-0.61-1.32-1.23-1.97-1.851c0.22-0.63,0.66-1.88,0.88-2.51c-2.72-0.75-6.55-0.66-7.52-3.93
	C76.73,133.83,79.23,132.22,81.6,130.439z"/>
<path fill="#FDFDFD" d="M94.8,131.609c4.21-0.75,8.57,0.371,11.7,3.32c0.029,0.32,0.08,0.971,0.1,1.29
	c-1.35,0.421-2.649,0.97-3.879,1.671c-1.781-1.091-3.531-2.871-5.801-2.271c-2.83,1.79-5.42,4.51-5.8,8
	c-1.96,0.08-3.92-0.021-5.85-0.31c0.21-1.391,0.48-2.771,0.82-4.131c1.82,0.461,3.641,0.9,5.48,1.26
	c0.59-1.72,0.09-2.909-1.49-3.569C90.59,134.3,92.609,132.75,94.8,131.609z"/>
<path fill="#FDFDFD" d="M71.97,139.09c2.45,0.85,4.63,2.48,6.12,4.61C74.98,144.359,72.89,141.689,71.97,139.09z"/>
<path fill="#FBFBFB" d="M94.25,143.4c0.279-1.881,1.609-4.181,3.82-3.931c2.57,0.49,3.68,2.99,4.84,5.021
	C100,144.52,97.01,144.4,94.25,143.4z"/>
<path fill="#9B9B9B" d="M176.8,144.29c0.05-0.11,0.15-0.33,0.2-0.431v0.311L176.8,144.29z"/>
<path fill="#4F4F4F" d="M82.84,146.28c2.79-0.32,5.6-0.36,8.4-0.15c-0.76,3.14-5.31,1.79-7.66,1.49
	C83.4,147.29,83.03,146.609,82.84,146.28z"/>
<path fill="#FFFFFF" d="M172.92,162.95c0.93-3.271,1.391-6.82,4.08-9.22V189h-16.391c1.871-2.33,2.591-5.26,3.611-8
	c2.279-5.04,4.75-10.109,5.84-15.561C171.09,164.74,172.71,164.41,172.92,162.95z"/>
</svg>
