<?xml version="1.0" encoding="utf-8"?>
<!-- Generator: Adobe Illustrator 15.0.2, SVG Export Plug-In . SVG Version: 6.00 Build 0)  -->
<!DOCTYPE svg PUBLIC "-//W3C//DTD SVG 1.1//EN" "http://www.w3.org/Graphics/SVG/1.1/DTD/svg11.dtd">
<svg version="1.1" id="Layer_1" xmlns="http://www.w3.org/2000/svg" xmlns:xlink="http://www.w3.org/1999/xlink" x="0px" y="0px"
	 width="304px" height="320px" viewBox="0 0 304 320" enable-background="new 0 0 304 320" xml:space="preserve">
<path fill="#FFFFFF" d="M0,0h304v320H0V0 M138.8,8.64c-6.24,1.48-12.58,2.46-18.82,3.89c-9.64,5.939-21.34,6.439-31.61,10.85
	c-0.27-0.27-0.81-0.82-1.08-1.09c0.11,0.39,0.32,1.18,0.42,1.57c-6.24,2.61-9.35,9.13-14.19,13.5
	c-7.11,6.15-11.05,15.58-19.59,20.14c-3.3,1.82-7.06,2.16-10.74,1.75c0.09,0.9,0.27,2.72,0.36,3.62
	c-5.63-0.44-11.31-0.65-16.93,0.02c-1.09,0.25-2.37,0.32-3.16,1.22c1.02,1.44,2.51,2.49,4.13,3.15c6.11,1.23,12-2.07,18.13-1.27
	c-6.47,9.95-13.78,19.31-21.23,28.55c-1.97,2.68-3.21,5.81-5.05,8.58c-4.01,6.41-7.67,13.95-5.42,21.68
	c1.81-2.8,3.69-5.57,5.95-8.03c-1.86,9.3-6.04,17.97-8.49,27.11c-0.56,17.37,0.06,34.771-0.26,52.14
	c0.26,4.521,2.39,8.601,3.57,12.891c0.84,3.35,0.96,6.82,1.6,10.199c2.05,11.381,7.47,21.75,10.34,32.9
	c1.02,0.271,2.05,0.551,3.07,0.83c-1.24-15.63-10.16-29.359-12.07-44.859c-0.28-3.851-2.73-7.08-3.19-10.891
	c-2.32-12.33,1.56-24.689,0.64-37.06c-0.88-8.97,0.41-18.15,3.62-26.57c1.43-3.69,3.72-7.08,4.32-11.07
	c1.03-6.49,0.48-13.22,2.24-19.6c1.49-5.36,5.94-8.98,9.55-12.91c6.31-6.81,13.13-13.3,17.82-21.41c7.12,0.76,14.16,2.17,21.06,4.07
	c-0.43-2.24-0.31-5.47-2.96-6.31c-3.87-1.71-7.49-3.93-11.39-5.56c5.49-8.74,14.18-14.8,20.24-23.09c3.67-5.08,9.21-8.27,14.36-11.6
	c10.4-2.8,21.29-2.46,31.96-2.96c15.84-0.77,31.061,5.65,46.91,4.73c-0.391,2.29-0.33,4.77-1.42,6.87
	c-3.54,2.51-7.75,4.01-11.03,6.92c-2.399,2.02-3.39,5.24-5.94,7.11c-2.299,1.67-4.729,3.16-7,4.89c-4.75,9.91-6.95,20.77-8.42,31.6
	c2.16-0.59,4.3-1.26,6.44-1.93c-0.57-2.36-1.23-4.71-2.04-7c1.66,0.71,3.28,1.52,4.85,2.42c3.16-4.27,3.5-9.72,5.36-14.54
	c0.89-2.65,2.96-4.62,4.55-6.84c3.52-4.69,4.42-10.81,8.19-15.36c-0.03,1.92-0.06,3.84-0.021,5.76c2.37-0.21,4.73-0.6,7.061-1.05
	c0.01-6.06,0.65-14.6,7.5-16.79c5.92-1.01,11.97,1.2,17.869-0.15c-0.76-1.15-1.26-2.95-2.84-3.15c-0.109-1.01-0.209-2.02-0.31-3.02
	c1.39-1.08,2.47-2.46,3.03-4.15c0.72,0.95,1.43,1.9,2.3,2.73c1.739-0.67,2.931-2.18,4.271-3.41c6.459,4.43,12.739,9.18,18.479,14.54
	c3.399,2.92,1.86,8.56,5.67,11.24c4.979,4.16,6.89,10.71,7.59,16.93c-1.39,0.03-2.78,0.06-4.17,0.08c0.94,1.74,1.66,3.6,2,5.57
	c-1.22-0.22-2.37-0.67-3.28-1.52c-1.149,1.11-2.379,2.14-3.66,3.1c-3.77-4.14-7.279-8.54-11.279-12.45
	c-8.061-6.72-19.53-5.23-28.971-2.9c0.031,3.29,0.471,6.64-0.189,9.89c-2.33,2.75-5.26,4.92-8.02,7.23
	c-5.91,4.56-10.801,10.47-14.17,17.13c-3.84,8.17-5.281,18.38-0.531,26.48c5.23,7.4,10.181,15.33,17.671,20.69
	c5.149,4,11.14,6.97,17.53,8.33c9.899,2,20.06,3.77,30.18,2.47c7.109-0.95,13.5-4.85,18.49-9.87c6.75-7.62,7.289-19.17,3.699-28.36
	c0.551-1.76,1.25-3.49,1.521-5.32c-0.83-2.06-2.03-3.94-2.851-6.01c3.08,1.14,3.701,4.74,5.181,7.3c0.56-0.65,1.12-1.3,1.67-1.95
	c-0.41-1.36-0.54-2.75,0.42-3.94c1.05,1.84,1.89,3.8,2.489,5.84c2.32,10.94,8.75,20.54,10.58,31.63c8,14.59,9.23,31.44,13.08,47.34
	c1.061,13.61-0.34,27.271,0.391,40.9c-0.02,8.42,4.199,16.54,2.17,25.01c-0.59,4.61-4.12,7.94-5.87,12.08
	c-6.97,15.06-12.04,30.909-16.94,46.75c-0.5,1.45-0.81,2.95-1.049,4.47c1.51-0.22,3.02-0.43,4.539-0.63
	c6.17-11.3,10.53-23.42,15.65-35.19c3.12-7.529,8.04-14.3,9.859-22.35c1.951-8.46,2.101-17.27,1.44-25.9
	c-1.67,0.44-3.33,0.931-4.989,1.391c0.33-20.54,1.689-41.17-0.73-61.65c-1.051-9.29,1.619-19.14-2.36-27.97
	c-4.64-13.78-11.61-26.73-20.06-38.53c-6.471-7.97-8.83-18.55-9.1-28.6c-3.48-3.68-5.33-8.43-7.721-12.8
	c-1.9-3.56-5.16-6.05-7.71-9.1c-6.44-7.55-11.84-16.04-19.319-22.65c-5.891-5.47-12.891-9.61-18.711-15.16
	c1.95-0.79,4.1-1.44,5.42-3.22c0.541,1.17,0.99,2.38,1.18,3.66c0.421-0.91,0.841-1.83,1.271-2.74c-0.62-0.9-1.271-1.79-1.899-2.69
	c-4.631,0.17-9.311,0.85-13.9-0.04c-3.01-0.77-5.76-2.43-8.88-2.83C170.91,1.53,154.609,5.23,138.8,8.64 M51.87,108.56
	c-2.58,2.01-2.59,5.55-3.8,8.35c-2.63,8.03-5.31,17.3-1.13,25.29c3.35,6.7,1.68,14.45,3.65,21.489
	c3.73,3.511,7.39,7.101,11.42,10.271c2.21,1.88,5.29,1.42,7.97,1.67c6.44,0.07,12.91,0.05,19.32-0.29c2.71-2.12,5.1-4.63,7.53-7.05
	c1.07,1.33,2.6,2.31,3.34,0.12c1.6,0.26,3.16-0.2,4.67-0.65c-0.08-0.949-0.18-1.9-0.27-2.85c-0.15,0.51-0.46,1.52-0.62,2.029
	c-1.14-0.77-2.24-1.58-3.38-2.35c5.75-5.05,10.21-11.28,14.56-17.51c8.8-8.67,11.59-21.75,10.33-33.71
	c-4.76-2.7-10.14-4.86-13.52-9.39c-1.98-2.28-3.69-5.32-6.9-5.95c-10.13-2.49-20.72-4.21-31.13-2.84
	C65.92,98.36,58.29,102.78,51.87,108.56 M5.61,119.01c-0.49,6.31-0.41,12.65-0.28,18.98c0.04,14.33,0.08,28.67-0.09,43.01
	c0.08,16.109-0.01,32.71,5.34,48.109c0.82,3.381,0.4,6.921,1.18,10.311c0.86,3.03,2.88,5.51,4.43,8.2
	c3.97,6.69,7.35,13.7,11.18,20.45c1.21,14.47,5.29,28.68,12.09,41.52c1.5,0.5,3.01,1,4.55,1.381
	c-6.17-12.111-11.43-25.211-11.05-39.051c7.53,4.68,9.03,14.77,16.43,19.57c6.13,3.25,12.6,5.82,18.66,9.23
	c4.61,2.01,8.42,5.42,12.99,7.489c-0.32-2.12-0.31-4.729-2.08-6.229c-10.05-5.271-20.92-9.17-30.15-15.881
	c-3.02-3.459-4.3-8.09-7.17-11.689c-2.36-4.1-7.72-6.221-8.18-11.36c-0.48-3.75-1.65-8.13-5.89-9.159
	c-0.01,2.719-0.04,5.439-0.23,8.149c-1.92-7.16-5.71-13.63-10.12-19.54c-1.45-1.82-1.53-4.22-1.94-6.41
	c-1.87-13.06-5.99-25.79-6.25-39.06c-0.14-27.73,0.86-55.49-0.47-83.2C7.13,115.24,5.64,116.87,5.61,119.01 M158.02,219.99
	c-1.81,2.91-4.779,5.25-5.24,8.85c-2.139,10.18-3.129,20.82-1.129,31.1c0.82,3.42,1.86,7.291,4.93,9.391
	c1.76-0.27,3.97-0.16,4.09,2.15c5.38,2.35,11.439,0.869,17.109,1.43c-0.1,0.48-0.319,1.439-0.43,1.92
	c5.18,0.45,9.99-1.471,14.91-2.68c0.92-4.19,2.971-8.551,7.36-9.961c-0.97-6.06,4.79-9.52,7.01-14.449
	c-0.649-0.48-1.3-0.95-1.96-1.42c-1.05,0.939-2.109,1.88-3.21,2.779c-0.45-4.979,0.479-10.149-0.46-15.01
	c-4.34-6.25-8.18-12.96-13.471-18.48c-4.869-5.149-12.539-8.51-19.549-6.09C163.17,211.21,160.641,215.96,158.02,219.99z"/>
<path fill="#080808" d="M138.8,8.64c15.81-3.41,32.11-7.11,48.32-4.3c3.12,0.4,5.87,2.06,8.88,2.83c4.59,0.89,9.27,0.21,13.9,0.04
	c0.629,0.9,1.279,1.79,1.899,2.69c-0.43,0.91-0.85,1.83-1.271,2.74c-0.189-1.28-0.639-2.49-1.18-3.66
	c-1.32,1.78-3.47,2.43-5.42,3.22c5.82,5.55,12.82,9.69,18.711,15.16c7.479,6.61,12.879,15.1,19.319,22.65
	c2.55,3.05,5.81,5.54,7.71,9.1c2.391,4.37,4.24,9.12,7.721,12.8c0.27,10.05,2.629,20.63,9.1,28.6
	c8.449,11.8,15.42,24.75,20.06,38.53c3.979,8.83,1.31,18.68,2.36,27.97c2.42,20.48,1.061,41.11,0.73,61.65
	c1.659-0.46,3.319-0.95,4.989-1.391c0.66,8.631,0.511,17.44-1.44,25.9c-1.819,8.05-6.739,14.82-9.859,22.35
	c-5.12,11.771-9.48,23.891-15.65,35.19c-1.52,0.2-3.029,0.41-4.539,0.63c0.239-1.52,0.549-3.02,1.049-4.47
	c4.9-15.841,9.971-31.69,16.94-46.75c1.75-4.14,5.28-7.47,5.87-12.08c2.029-8.47-2.189-16.59-2.17-25.01
	c-0.73-13.63,0.67-27.29-0.391-40.9c-3.85-15.899-5.08-32.75-13.08-47.34c-1.83-11.09-8.26-20.69-10.58-31.63
	c-0.6-2.04-1.439-4-2.489-5.84c-5.66-10.26-15.851-18.14-18.05-30.15c3.49-0.17,5.73,2.74,6.869,5.65
	c1.621,3.76,3.111,7.81,6.49,10.38c-1.119-8.69-4.93-17.96-13.32-21.91c-0.829,1.7-1.639,3.4-2.469,5.08
	c-0.311-1.66-0.521-3.33-0.761-5c-0.7-6.22-2.61-12.77-7.59-16.93c-3.81-2.68-2.271-8.32-5.67-11.24
	c-5.74-5.36-12.021-10.11-18.479-14.54c-4.621-3.11-8.75-7.13-14.101-8.97c-5.601-2.14-11.681-2.4-17.61-2.08
	c-0.05,5.35-0.109,10.71,0.211,16.06c4.149-0.84,8.119-3.28,9.289-7.58c0.57,1.41,0.9,2.97,1.84,4.21
	c2.961,0.93,6.11,0.23,9.16,0.31c-2.01,1.67-3.949,3.42-5.82,5.24c2.58,0.29,5.16,0.39,7.74,0.66c1.58,0.2,2.08,2,2.84,3.15
	c-5.899,1.35-11.949-0.86-17.869,0.15c-6.85,2.19-7.49,10.73-7.5,16.79c-2.33,0.45-4.69,0.84-7.061,1.05
	c-0.039-1.92-0.01-3.84,0.021-5.76c-3.771,4.55-4.671,10.67-8.19,15.36c-1.59,2.22-3.66,4.19-4.55,6.84
	c-1.86,4.82-2.2,10.27-5.36,14.54c-1.57-0.9-3.19-1.71-4.85-2.42c0.81,2.29,1.47,4.64,2.04,7c-2.14,0.67-4.28,1.34-6.44,1.93
	c1.47-10.83,3.67-21.69,8.42-31.6c2.27-1.73,4.7-3.22,7-4.89c2.551-1.87,3.541-5.09,5.94-7.11c3.28-2.91,7.49-4.41,11.03-6.92
	c1.09-2.1,1.029-4.58,1.42-6.87c-15.85,0.92-31.07-5.5-46.91-4.73c-10.67,0.5-21.56,0.16-31.96,2.96
	c-5.15,3.33-10.69,6.52-14.36,11.6c-6.06,8.29-14.75,14.35-20.24,23.09c3.9,1.63,7.52,3.85,11.39,5.56
	c2.65,0.84,2.53,4.07,2.96,6.31c-6.9-1.9-13.94-3.31-21.06-4.07c-4.69,8.11-11.51,14.6-17.82,21.41c-3.61,3.93-8.06,7.55-9.55,12.91
	c-1.76,6.38-1.21,13.11-2.24,19.6c-0.6,3.99-2.89,7.38-4.32,11.07c-3.21,8.42-4.5,17.6-3.62,26.57
	c0.92,12.37-2.96,24.729-0.64,37.06c0.46,3.811,2.91,7.04,3.19,10.891c1.91,15.5,10.83,29.229,12.07,44.859
	c-1.02-0.279-2.05-0.56-3.07-0.83c-2.87-11.15-8.29-21.52-10.34-32.9c-0.64-3.379-0.76-6.85-1.6-10.199
	c-1.18-4.29-3.31-8.37-3.57-12.891c0.32-17.369-0.3-34.77,0.26-52.14c2.45-9.14,6.63-17.81,8.49-27.11
	c-2.26,2.46-4.14,5.23-5.95,8.03c-2.25-7.73,1.41-15.27,5.42-21.68c1.84-2.77,3.08-5.9,5.05-8.58c7.45-9.24,14.76-18.6,21.23-28.55
	c-6.13-0.8-12.02,2.5-18.13,1.27c-1.62-0.66-3.11-1.71-4.13-3.15c0.79-0.9,2.07-0.97,3.16-1.22c5.62-0.67,11.3-0.46,16.93-0.02
	c-0.09-0.9-0.27-2.72-0.36-3.62c3.68,0.41,7.44,0.07,10.74-1.75c8.54-4.56,12.48-13.99,19.59-20.14c4.84-4.37,7.95-10.89,14.19-13.5
	c-0.1-0.39-0.31-1.18-0.42-1.57c0.27,0.27,0.81,0.82,1.08,1.09c10.27-4.41,21.97-4.91,31.61-10.85
	C126.22,11.1,132.56,10.12,138.8,8.64 M120.08,15.96c-0.99,1.25-2,2.49-3.01,3.71c9.76,0.08,19.98-1.87,29.33,1.88
	c5.7,2.48,12.01,1.16,17.991,1.06c1.219-5.08,2.799-10.06,3.989-15.14C152,8.58,136.29,13.81,120.08,15.96 M145.79,67.6
	c-0.09,0.53-0.25,1.58-0.34,2.11c0.22,0.21,0.65,0.61,0.87,0.82c0.51-0.36,1.54-1.07,2.06-1.42c0.03-0.37,0.08-1.1,0.1-1.47
	C147.58,67.62,146.68,67.61,145.79,67.6 M270.189,115.92c0.541,9.83,5.19,18.74,9.561,27.36c2.689,4.99,1.25,11.39,5.01,15.91
	c0.29-10.58-0.75-21.98-7.06-30.87C274.811,124.43,275.529,117.72,270.189,115.92z"/>
<path fill="#F9F9F9" d="M120.08,15.96c16.21-2.15,31.92-7.38,48.3-8.49c-1.19,5.08-2.771,10.061-3.989,15.14
	c-5.98,0.1-12.291,1.42-17.991-1.06c-9.35-3.75-19.57-1.8-29.33-1.88C118.08,18.45,119.09,17.21,120.08,15.96z"/>
<path fill="#FAFAFA" d="M173.6,7.61c5.93-0.32,12.01-0.06,17.61,2.08c5.351,1.84,9.479,5.86,14.101,8.97
	c-1.34,1.23-2.531,2.74-4.271,3.41c-0.87-0.83-1.58-1.78-2.3-2.73c-0.561,1.69-1.641,3.07-3.03,4.15c0.101,1,0.2,2.01,0.31,3.02
	c-2.58-0.27-5.16-0.37-7.74-0.66c1.871-1.82,3.811-3.57,5.82-5.24c-3.05-0.08-6.199,0.62-9.16-0.31c-0.939-1.24-1.27-2.8-1.84-4.21
	c-1.17,4.3-5.14,6.74-9.289,7.58C173.49,18.32,173.55,12.96,173.6,7.61z"/>
<path fill="#0A0A0A" d="M187.689,53.25c9.44-2.33,20.91-3.82,28.971,2.9c4,3.91,7.51,8.31,11.279,12.45
	c6.931,7.58,13.59,15.55,18.551,24.59c2.5,4.44,4.02,9.32,5.859,14.05c3.59,9.19,3.051,20.74-3.699,28.36
	c-4.99,5.02-11.381,8.92-18.49,9.87c-10.12,1.3-20.28-0.47-30.18-2.47c-6.391-1.36-12.381-4.33-17.53-8.33
	c-7.49-5.36-12.44-13.29-17.671-20.69c-4.75-8.1-3.309-18.31,0.531-26.48c3.369-6.66,8.26-12.57,14.17-17.13
	c2.76-2.31,5.689-4.48,8.02-7.23C188.16,59.89,187.721,56.54,187.689,53.25 M204.5,56.16c-0.1,1.47-0.18,2.95-0.24,4.43
	c-2.83,0.99-5.71,1.8-8.57,2.7l0.271,0.29c-1.46-0.33-2.79,0.7-3.89,1.5c-5.1,4.23-9.801,8.89-14.5,13.53
	c-3.32,3.22-5.471,7.38-8.541,10.8c-0.709,1.94,0.65,4.51-0.92,6.03c0.57,4.36-4.109,7.12-3.039,11.62
	c4.85,4.72,9.92,9.51,12.43,15.98c0.62,2.51,2.87,3.71,4.939,4.87c0.541,0.03,1.601,0.1,2.141,0.14c1.641,1.88,3.9,3.16,5.22,5.32
	c0.89,1.59,2.86,1.87,4.421,2.51c12.639,4.53,26.449,6.02,39.719,3.96c6.36-3.19,12.451-7.83,15.44-14.48
	c-1.14-6.1,0.75-12.8-2.409-18.44c-4.421-9.65-9.24-19.14-15.191-27.96c-2.67-0.64-4.289-2.85-5.51-5.14
	c-3.369-2.19-5.459-5.67-8.039-8.66C214.641,60.96,210.279,56.78,204.5,56.16z"/>
<path fill="#F5F5F5" d="M204.5,56.16c5.779,0.62,10.141,4.8,13.73,9c-2.351,2.17-5.711,1.28-8.561,1.98
	c-4.689,0.64-10.87,1.09-13.71-3.56l-0.271-0.29c2.86-0.9,5.74-1.71,8.57-2.7C204.32,59.11,204.4,57.63,204.5,56.16z"/>
<path fill="#F8F8F8" d="M232.88,61.45c1.39-0.02,2.78-0.05,4.17-0.08c0.24,1.67,0.45,3.34,0.761,5c0.83-1.68,1.64-3.38,2.469-5.08
	c8.391,3.95,12.201,13.22,13.32,21.91c-3.379-2.57-4.869-6.62-6.49-10.38c-1.139-2.91-3.379-5.82-6.869-5.65
	c2.199,12.01,12.39,19.89,18.05,30.15c-0.96,1.19-0.83,2.58-0.42,3.94c-0.55,0.65-1.11,1.3-1.67,1.95
	c-1.479-2.56-2.101-6.16-5.181-7.3c0.82,2.07,2.021,3.95,2.851,6.01c-0.271,1.83-0.97,3.56-1.521,5.32
	c-1.84-4.73-3.359-9.61-5.859-14.05c-4.961-9.04-11.62-17.01-18.551-24.59c1.281-0.96,2.511-1.99,3.66-3.1
	c0.91,0.85,2.061,1.3,3.28,1.52C234.54,65.05,233.82,63.19,232.88,61.45 M246.13,85.34C244.561,88.32,249.439,85.5,246.13,85.34z"/>
<path fill="#FFFFFF" d="M192.07,65.08c1.1-0.8,2.43-1.83,3.89-1.5c2.84,4.65,9.021,4.2,13.71,3.56c2.85-0.7,6.21,0.19,8.561-1.98
	c2.58,2.99,4.67,6.47,8.039,8.66c1.221,2.29,2.84,4.5,5.51,5.14c5.951,8.82,10.771,18.31,15.191,27.96
	c3.159,5.64,1.27,12.34,2.409,18.44c-2.989,6.65-9.08,11.29-15.44,14.48c-13.27,2.06-27.08,0.57-39.719-3.96
	c-1.561-0.64-3.531-0.92-4.421-2.51c-1.319-2.16-3.579-3.44-5.22-5.32c-0.54-0.04-1.6-0.11-2.141-0.14
	c-2.069-1.16-4.319-2.36-4.939-4.87c-2.51-6.47-7.58-11.26-12.43-15.98c-1.07-4.5,3.609-7.26,3.039-11.62
	c1.57-1.52,0.211-4.09,0.92-6.03c3.07-3.42,5.221-7.58,8.541-10.8C182.27,73.97,186.971,69.31,192.07,65.08 M206.21,97.2
	c-1.55,2.39-1.55,5.2-0.01,7.59c2.39,1.54,5.2,1.55,7.59,0.01c1.55-2.39,1.54-5.21,0.01-7.6C211.4,95.65,208.6,95.68,206.21,97.2z"
	/>
<path fill="#F2F2F2" d="M145.79,67.6c0.89,0.01,1.79,0.02,2.69,0.04c-0.02,0.37-0.07,1.1-0.1,1.47c-0.52,0.35-1.55,1.06-2.06,1.42
	c-0.22-0.21-0.65-0.61-0.87-0.82C145.54,69.18,145.7,68.13,145.79,67.6z"/>
<path fill="#CECECE" d="M246.13,85.34C249.439,85.5,244.561,88.32,246.13,85.34z"/>
<path fill="#090909" d="M51.87,108.56c6.42-5.78,14.05-10.2,22.04-13.37c10.41-1.37,21,0.35,31.13,2.84
	c3.21,0.63,4.92,3.67,6.9,5.95c3.38,4.53,8.76,6.69,13.52,9.39c1.26,11.96-1.53,25.04-10.33,33.71
	c-4.35,6.23-8.81,12.46-14.56,17.51c-1.27,1.2-2.52,2.44-3.74,3.7c-2.43,2.42-4.82,4.93-7.53,7.05c-6.41,0.34-12.88,0.36-19.32,0.29
	c-2.68-0.25-5.76,0.21-7.97-1.67c-4.03-3.17-7.69-6.76-11.42-10.271c-1.97-7.04-0.3-14.79-3.65-21.489
	c-4.18-7.99-1.5-17.26,1.13-25.29C49.28,114.11,49.29,110.57,51.87,108.56 M76.16,98.24c-7.66,3.49-15.49,7.34-21.35,13.55
	c-4.41,4.72-6.28,11.43-4.81,17.74c-1.71,2.01-2.61,4.52-3.28,7.03c0.44-0.03,1.33-0.11,1.78-0.14c0.91,1.44,2.04,2.71,3.2,3.96
	c-0.73,5.53-0.24,11.18,1.26,16.55c0.49,3.28,2.66,5.97,5.54,7.52c0.81,1.93,1.13,4.52,3.56,5.06c8.17,3.561,17.37,1.96,25.99,2.01
	c7.25-6.879,14.83-13.68,20.36-22.1c2.17-3.72,5.12-6.96,6.86-10.94c1.17-2.43,3.77-3.75,4.94-6.19c1.41-3.31,2.07-6.89,2.53-10.44
	c-0.4-1.48-0.68-2.99-0.85-4.51c-1.73-2.61-3.66-5.25-6.47-6.76c-1.56-0.65-3.35-0.48-4.86-1.26c-0.5-0.25-1.49-0.75-1.99-1
	c-2.48-1.4-4.62-3.37-7.21-4.6c-3.08-1.81-5.77-4.4-9.33-5.25C86.9,97.15,81.31,96.98,76.16,98.24z"/>
<path fill="#010101" d="M206.21,97.2c2.39-1.52,5.19-1.55,7.59,0c1.53,2.39,1.54,5.21-0.01,7.6c-2.39,1.54-5.2,1.53-7.59-0.01
	C204.66,102.4,204.66,99.59,206.21,97.2z"/>
<path fill="#FFFFFF" d="M76.16,98.24c5.15-1.26,10.74-1.09,15.87,0.229c3.56,0.85,6.25,3.44,9.33,5.25c2.59,1.23,4.73,3.2,7.21,4.6
	c0.5,0.25,1.49,0.75,1.99,1c1.51,0.78,3.3,0.61,4.86,1.26c2.81,1.51,4.74,4.15,6.47,6.76c0.17,1.52,0.45,3.03,0.85,4.51
	c-0.46,3.55-1.12,7.13-2.53,10.44c-1.17,2.44-3.77,3.76-4.94,6.19c-1.74,3.98-4.69,7.22-6.86,10.94
	c-5.53,8.42-13.11,15.221-20.36,22.1c-8.62-0.05-17.82,1.551-25.99-2.01c-2.43-0.54-2.75-3.13-3.56-5.06
	c-2.88-1.55-5.05-4.24-5.54-7.52c-1.5-5.37-1.99-11.02-1.26-16.55c-1.16-1.25-2.29-2.52-3.2-3.96c-0.45,0.03-1.34,0.11-1.78,0.14
	c0.67-2.51,1.57-5.02,3.28-7.03c-1.47-6.311,0.4-13.021,4.81-17.74C60.67,105.58,68.5,101.73,76.16,98.24 M78.2,130.2
	c-1.54,2.39-1.54,5.2,0,7.6c2.39,1.54,5.2,1.52,7.6,0c1.54-2.39,1.53-5.21,0-7.6C83.4,128.67,80.6,128.66,78.2,130.2z"/>
<path fill="#040404" d="M5.61,119.01c0.03-2.14,1.52-3.77,2.95-5.18c1.33,27.71,0.33,55.47,0.47,83.2c0.26,13.27,4.38,26,6.25,39.06
	c0.41,2.19,0.49,4.59,1.94,6.41c4.41,5.91,8.2,12.38,10.12,19.54c0.19-2.71,0.22-5.431,0.23-8.149c4.24,1.029,5.41,5.409,5.89,9.159
	c0.46,5.14,5.82,7.261,8.18,11.36c2.87,3.6,4.15,8.23,7.17,11.689c9.23,6.711,20.1,10.61,30.15,15.881
	c1.77,1.5,1.76,4.109,2.08,6.229c-4.57-2.069-8.38-5.479-12.99-7.489c-6.06-3.41-12.53-5.98-18.66-9.23
	c-7.4-4.801-8.9-14.891-16.43-19.57c-0.38,13.84,4.88,26.939,11.05,39.051c-1.54-0.381-3.05-0.881-4.55-1.381
	c-6.8-12.84-10.88-27.05-12.09-41.52c-3.83-6.75-7.21-13.76-11.18-20.45c-1.55-2.69-3.57-5.17-4.43-8.2
	c-0.78-3.39-0.36-6.93-1.18-10.311c-5.35-15.399-5.26-32-5.34-48.109c0.17-14.34,0.13-28.68,0.09-43.01
	C5.2,131.66,5.12,125.32,5.61,119.01z"/>
<path fill="#F2F2F2" d="M270.189,115.92c5.34,1.8,4.621,8.51,7.511,12.4c6.31,8.89,7.35,20.29,7.06,30.87
	c-3.76-4.52-2.32-10.92-5.01-15.91C275.38,134.66,270.73,125.75,270.189,115.92z"/>
<path fill="#010101" d="M78.2,130.2c2.4-1.54,5.2-1.53,7.6,0c1.53,2.39,1.54,5.21,0,7.6c-2.4,1.52-5.21,1.54-7.6,0
	C76.66,135.4,76.66,132.59,78.2,130.2z"/>
<path fill="#E6E6E6" d="M96.83,168.29c1.22-1.26,2.47-2.5,3.74-3.7c1.14,0.77,2.24,1.58,3.38,2.35c0.16-0.51,0.47-1.52,0.62-2.029
	c0.09,0.949,0.19,1.9,0.27,2.85c-1.51,0.45-3.07,0.91-4.67,0.65C99.43,170.6,97.9,169.62,96.83,168.29z"/>
<path fill="#030303" d="M158.02,219.99c2.621-4.03,5.15-8.78,9.961-10.471c7.01-2.42,14.68,0.94,19.549,6.09
	c5.291,5.521,9.131,12.23,13.471,18.48c0.939,4.86,0.01,10.03,0.46,15.01c1.101-0.899,2.16-1.84,3.21-2.779
	c0.66,0.47,1.311,0.939,1.96,1.42c-2.22,4.93-7.979,8.39-7.01,14.449c-4.39,1.41-6.44,5.771-7.36,9.961
	c-4.92,1.209-9.73,3.13-14.91,2.68c0.11-0.48,0.33-1.439,0.43-1.92c-5.67-0.561-11.729,0.92-17.109-1.43
	c-0.12-2.311-2.33-2.42-4.09-2.15c-3.07-2.1-4.11-5.971-4.93-9.391c-2-10.279-1.01-20.92,1.129-31.1
	C153.24,225.24,156.21,222.9,158.02,219.99 M170.23,214.22c0.149,1.95-0.141,4.011,0.549,5.87c1.311,0.41,2.621,0.891,3.73,1.721
	c-4.74,2.979-10.279,3.569-15.75,3.76c-3.14,8.06-4.3,16.789-4.59,25.399c0.811-0.399,1.63-0.79,2.439-1.18
	c-0.1-0.649-0.299-1.96-0.399-2.61c5.91-1.649,12.37-5.05,18.46-2.189c2.78,1.369,5.859,1.59,8.91,1.57
	c0.29-0.261,0.87-0.791,1.16-1.051c-2.36-0.25-4.7-0.65-6.98-1.27c2.91-0.49,6.051-1.051,8.85,0.27
	c3.961,1.891,7.301,4.95,11.551,6.28c-0.26-4.14-0.98-8.3-2.939-12c-1.391-3.16-4.101-5.431-5.881-8.29
	c0.189-2.77-0.47-5.41-2.66-7.25c-1.77,0.62-5.27,2.24-5.939-0.68c2.039,2.31,3.06-0.101,3.52-1.5c-0.16-3.11-2.96-5.37-5.869-5.891
	c0.819,2.9,1.609,5.82,2.68,8.65c-1.791-0.83-3.6-1.61-5.551-1.96c0.25-2.64,0.451-5.3,1.351-7.81
	C174.66,214.1,172.439,214.16,170.23,214.22 M157.15,254.32c0.109,0.52,0.34,1.55,0.449,2.07c2.32,1.439,5.041,1.899,7.7,2.319
	c-0.79,2.03-0.63,4.05,1.33,5.26c0.28-2.579,0.5-5.21,1.71-7.55c1.381-0.34,2.76-0.67,4.15-0.96c0.51-2.399,1.18-4.75,1.91-7.09
	c-1.15-0.12-2.291-0.21-3.44-0.261C165.41,247.59,162.38,253.53,157.15,254.32 M175.24,256.859c0.75,0.601,2.24,1.801,2.99,2.4
	c-1.951,2.51-4.78,1.04-7.061,0c-0.66,1.631-1.02,3.35-0.9,5.12c2.09,0.21,4.181,0.31,6.28,0.29c0.56-3.75,3.14-6.71,6.04-8.939
	c3.07-1.221,5.74,1.069,7.801,3.039c-0.08-2.31,2.35-2.029,3.959-2.5c0.021-0.35,0.07-1.039,0.09-1.379
	c-3.129-2.671-7.08-4.791-11.33-4.261C179.529,250.859,176.34,253.46,175.24,256.859 M154.9,259.27c0.51,3.301,3.59,6.42,7.14,5.25
	C159.811,262.58,157.529,260.66,154.9,259.27 M180.12,264.57c3.239,0.55,6.5,1.08,9.8,1.05c-1.02-2.61-2.85-5.521-5.9-5.851
	C181.71,260.22,180.689,262.55,180.12,264.57 M166.88,268.561c3.399,0.279,6.979,0.629,10.25-0.601
	C173.7,267.73,170.25,267.91,166.88,268.561z"/>
<path fill="#FEFEFE" d="M170.23,214.22c2.209-0.06,4.43-0.12,6.64-0.159c-0.899,2.51-1.101,5.17-1.351,7.81
	c1.951,0.35,3.76,1.13,5.551,1.96c-1.07-2.83-1.86-5.75-2.68-8.65c2.909,0.521,5.709,2.78,5.869,5.891
	c-0.46,1.399-1.48,3.81-3.52,1.5c0.67,2.92,4.17,1.3,5.939,0.68c2.19,1.84,2.85,4.48,2.66,7.25c1.78,2.859,4.49,5.13,5.881,8.29
	c1.959,3.7,2.68,7.86,2.939,12c-4.25-1.33-7.59-4.39-11.551-6.28c-2.799-1.32-5.939-0.76-8.85-0.27c2.28,0.619,4.62,1.02,6.98,1.27
	c-0.29,0.26-0.87,0.79-1.16,1.051c-3.051,0.02-6.13-0.201-8.91-1.57c-6.09-2.86-12.55,0.54-18.46,2.189
	c0.101,0.65,0.3,1.961,0.399,2.61c-0.81,0.39-1.629,0.78-2.439,1.18c0.29-8.61,1.45-17.34,4.59-25.399
	c5.471-0.19,11.01-0.78,15.75-3.76c-1.109-0.83-2.42-1.311-3.73-1.721C170.09,218.23,170.38,216.17,170.23,214.22z"/>
<path fill="#FDFDFD" d="M157.15,254.32c5.229-0.79,8.26-6.73,13.81-6.211c1.149,0.051,2.29,0.141,3.44,0.261
	c-0.73,2.34-1.4,4.69-1.91,7.09c-1.391,0.29-2.77,0.62-4.15,0.96c-1.21,2.34-1.43,4.971-1.71,7.55c-1.96-1.21-2.12-3.229-1.33-5.26
	c-2.659-0.42-5.38-0.88-7.7-2.319C157.49,255.87,157.26,254.84,157.15,254.32z"/>
<path fill="#FBFBFB" d="M175.24,256.859c1.1-3.399,4.289-6,7.869-6.229c4.25-0.53,8.201,1.59,11.33,4.261
	c-0.02,0.34-0.069,1.029-0.09,1.379c-1.609,0.471-4.039,0.19-3.959,2.5c-2.061-1.97-4.73-4.26-7.801-3.039
	c-2.9,2.229-5.48,5.189-6.04,8.939c-2.1,0.02-4.19-0.08-6.28-0.29c-0.119-1.771,0.24-3.489,0.9-5.12c2.28,1.04,5.109,2.51,7.061,0
	C177.48,258.66,175.99,257.46,175.24,256.859z"/>
<path fill="#FBFBFB" d="M154.9,259.27c2.629,1.391,4.91,3.311,7.14,5.25C158.49,265.689,155.41,262.57,154.9,259.27z"/>
<path fill="#FBFBFB" d="M180.12,264.57c0.569-2.021,1.59-4.351,3.899-4.801c3.051,0.33,4.881,3.24,5.9,5.851
	C186.62,265.65,183.359,265.12,180.12,264.57z"/>
<path fill="#F2F2F2" d="M166.88,268.561c3.37-0.65,6.82-0.83,10.25-0.601C173.859,269.189,170.279,268.84,166.88,268.561z"/>
</svg>
