<?xml version="1.0" encoding="utf-8"?>
<!-- Generator: Adobe Illustrator 15.0.2, SVG Export Plug-In . SVG Version: 6.00 Build 0)  -->
<!DOCTYPE svg PUBLIC "-//W3C//DTD SVG 1.1//EN" "http://www.w3.org/Graphics/SVG/1.1/DTD/svg11.dtd">
<svg version="1.1" id="Layer_1" xmlns="http://www.w3.org/2000/svg" xmlns:xlink="http://www.w3.org/1999/xlink" x="0px" y="0px"
	 width="304px" height="320px" viewBox="0 0 304 320" enable-background="new 0 0 304 320" xml:space="preserve">
<path fill="#FFFFFF" d="M0,0h304v320H0V0 M166.971,3.64C151.08,5.4,135.59,9.56,119.92,12.56c-9.99,6.24-22.34,6.29-32.75,11.51
	c-0.04-0.57-0.1-1.72-0.14-2.29c-0.05,0.61-0.16,1.82-0.22,2.43c-4.01,1.99-6.63,5.82-9.53,9.09c-3.11,3.91-7.28,6.84-10.09,10.99
	c-3.63,4.83-7.45,9.76-12.69,12.93c-3.44,1.96-7.41,2.53-11.31,2.01c0.09,0.92,0.27,2.74,0.35,3.65
	c-6.73-0.27-13.87-1.34-20.33,1.09c1.29,1.3,2.72,2.45,4.26,3.44c6.19,0.88,12.08-2.11,18.25-1.42c-6.7,10.33-14.37,19.96-22,29.6
	c-3.98,8.15-11.03,15.73-10.27,25.39c-1.56,0.01-3.12,0.01-4.68,0.02c-0.07-2.37-0.07-4.73-0.19-7.1
	c-4.27,2.99-2.92,8.63-3.32,13.07c0.07,17.66,0.22,35.33-0.03,53c0.09,16.46-0.12,33.431,5.36,49.16
	c1.07,4.729-0.07,10.07,2.95,14.24c5.04,7.56,8.73,15.88,13.35,23.68c0.94,1.431,0.72,3.25,1,4.87c1.24,13.12,5.4,25.93,11.58,37.54
	c1.45,0.61,2.88,1.29,4.29,2c-0.19-1.16-0.36-2.351-1-3.36c-5.69-10.529-9.48-22.22-9.88-34.25c0.13-0.47,0.39-1.42,0.51-1.89
	c7.2,5.25,8.89,15.37,16.68,19.931c10.5,5.08,21.28,9.77,30.76,16.67c0.11-2.531-0.14-6.131-2.92-7.17
	c-6.93-3.051-13.53-6.951-20.65-9.461c0.88-0.689,1.77-1.38,2.68-2.039c-1.28,0.299-2.56,0.6-3.85,0.889
	c-3.32-2.279-7.72-3.719-9.42-7.699c-2.64-5.33-5.7-10.61-10.32-14.48c-3.19-2.609-2.96-7.109-3.95-10.76
	c0.85,0.77,1.73,1.49,2.64,2.19c2.62-3.03-0.96-5.55-3.09-7.41c1.27-0.28,3.75,1.09,4.08-0.65c-1.45-2.239-4.58-1.069-6.21,0.351
	c-1.79-16.34-10.96-30.79-12.61-47.18c-6.81-13.951-1.2-29.49-1.96-44.171c-1.1-10.93,0.62-22.25,5.62-32.1
	c5.28-9.63,0.59-21.9,6.94-31.15c4.42-5.49,9.65-10.28,14.32-15.56c4.07-4.12,7.59-8.75,10.59-13.7c7.11,0.77,14.15,2.16,21.04,4.07
	c-0.12-2.01-0.69-3.94-1.53-5.771c-4.47-1.58-8.39-4.33-12.79-6.08c5.6-8.92,14.53-15.07,20.63-23.61
	c3.22-4.45,8.14-7.1,12.49-10.26c2.81-1.8,6.32-1.84,9.52-2.39c7.58-1.1,15.25-1.04,22.89-1.34c16.15-1.11,31.68,5.58,47.82,4.67
	c-0.16,1.72,0.319,3.37,0.649,5.03c-4.52,4.83-12.18,5.93-15.609,11.96c-2.21,4.19-6.82,5.94-10.31,8.82
	c-4.76,9.96-7.01,20.87-8.41,31.75c2.13-0.74,4.27-1.45,6.42-2.12c-0.54-2.35-1.21-4.66-2.05-6.92c1.65,0.58,3.23,1.37,4.69,2.35
	c4.689-5.5,3.34-13.92,8.43-19.22c4.69-5.08,5.801-12.19,9.78-17.72c-0.021,2.02,0,4.06,0.22,6.08c2.311-0.36,4.61-0.76,6.91-1.14
	c-0.039-6.09,0.631-14.59,7.471-16.82c5.819-0.94,11.729,1.02,17.56,0.03c-0.08-0.5-0.25-1.51-0.33-2.02
	c-0.739-0.58-1.54-1.03-2.41-1.35c0.03-0.99,0.07-1.98,0.11-2.97c1.73-1.39,2.63-3.36,2.869-5.53c-0.809,0.5-1.619,1-2.43,1.5
	c-0.26-0.15-0.789-0.43-1.05-0.58c0.36-1.09,0.729-2.18,1.101-3.27c0.74-0.32,2.22-0.96,2.959-1.28
	c8.611,6.39,17.771,12.18,25.371,19.83c2.129,3.18,1.35,7.94,4.81,10.36c4.92,4.13,6.8,10.63,7.489,16.78
	c-1.359,0.03-2.729,0.07-4.1,0.09c0.9,1.83,1.6,3.74,2,5.75c-1.109-0.5-2.22-1-3.31-1.51c-1.229,0.98-2.45,1.98-3.67,2.98
	c-3.761-4.13-7.261-8.51-11.229-12.43c-8.08-6.71-19.641-5.38-29.08-2.8c0.09,3.21,0.52,6.5-0.121,9.67
	c-3.08,3.73-7.22,6.44-10.85,9.63c-8.54,7.72-15.08,18.55-14.93,30.36c0.15,5.66,2.4,11.02,6.1,15.27
	c7.02,11.07,17.23,20.82,30.189,24.22c10.49,2.31,21.32,4.28,32.091,2.939c7.159-0.93,13.569-4.89,18.59-9.93
	c6.69-7.66,7.229-19.17,3.63-28.34c0.54-1.74,1.27-3.44,1.46-5.27c-0.79-2.02-1.96-3.88-2.79-5.89c3.24,0.9,3.48,5.18,5.881,7.22
	c0.67-1.979,1.1-4.04,1.34-6.12c2.49,4.05,3.08,8.82,4.56,13.25c3,7.78,6.91,15.32,8.319,23.62c1.07,3.15,2.91,5.99,4.061,9.13
	c4.82,12.16,5.85,25.34,9.1,37.93c1.65,16.199-0.89,32.6,1.201,48.789c1.399,5.921,2.85,12.091,1.529,18.181
	c-0.66,4.87-4.48,8.351-6.2,12.8c-7.31,16.28-12.979,33.29-17.75,50.46c1.53-0.2,3.06-0.39,4.601-0.56
	c6.449-11.721,10.859-24.36,16.27-36.551c2.92-6.739,7.25-12.879,9.02-20.09c2.221-8.729,2.351-17.89,1.69-26.83
	c-1.659,0.471-3.34,0.9-4.989,1.381c0.289-19.87,1.629-39.801-0.531-59.62c-1.08-8.12,0.301-16.36-0.76-24.47
	c-4.55-15.39-11.879-29.89-21.1-43c-6.91-8.19-9.66-19.15-9.859-29.68c-3.681-3.81-5.461-8.87-8.061-13.37
	c-1.79-3.07-4.63-5.29-6.91-7.97c-6.8-7.86-12.391-16.82-20.32-23.66c-5.75-5.25-12.55-9.26-18.14-14.68
	c1.87-0.77,3.94-1.38,5.25-3.06c0.729,1.53,1.431,3.08,2.29,4.54c-0.46-1.12-1.38-3.36-1.83-4.48l2.79,0.06
	c-1.13-0.47-2.44-0.87-3-2.08c-5.96,0.4-12.34,1.27-17.87-1.59C183.71,2.92,175.18,3.26,166.971,3.64 M70.38,96.62
	c-6.84,3.35-13.56,7.17-19.07,12.49c-1.48,1.14-1.65,3.11-2.24,4.75c-2.43,7.45-5.35,15.29-3.92,23.24
	c0.54,3.52,2.94,6.43,3.43,9.96c1.15,5.5,0.48,11.21,2.02,16.64c3.71,3.5,7.38,7.069,11.38,10.25c1.92,1.729,4.64,1.43,7.02,1.64
	c6.77,0.16,13.59,0.08,20.34-0.26c5.87-5.13,11.32-10.75,16.77-16.33c4.29-4.41,6.96-10.09,11.33-14.41c6.99-8.7,9.16-20.35,8-31.26
	c-5.34-2.68-10.66-5.59-14.6-10.2c0.35-0.6,0.59-1.23,0.71-1.9c-7.56-4.77-16.83-5.39-25.53-6.38
	C80.8,94.82,75.13,93.93,70.38,96.62 M167.76,232.88c-0.65,1.29-1.25,2.601-1.81,3.94c4.11-0.86,8.13-2.29,12.37-2.33
	c-0.59,2.63-0.76,5.33-0.631,8.02c-3.93-0.63-7.75-1.8-11.51-3.09c1.49,5.45,8.18,6.17,12.94,6.32c1.64-4.28,3.09-8.99,1.319-13.49
	C176.2,232.391,171.82,231.18,167.76,232.88z"/>
<path fill="#080808" d="M166.971,3.64c8.209-0.38,16.739-0.72,24.619,1.95c5.53,2.86,11.91,1.99,17.87,1.59
	c0.56,1.21,1.87,1.61,3,2.08l-2.79-0.06c0.45,1.12,1.37,3.36,1.83,4.48c-0.859-1.46-1.561-3.01-2.29-4.54
	c-1.31,1.68-3.38,2.29-5.25,3.06c5.59,5.42,12.39,9.43,18.14,14.68c7.93,6.84,13.521,15.8,20.32,23.66c2.28,2.68,5.12,4.9,6.91,7.97
	c2.6,4.5,4.38,9.56,8.061,13.37c0.199,10.53,2.949,21.49,9.859,29.68c9.221,13.11,16.55,27.61,21.1,43
	c1.061,8.11-0.32,16.35,0.76,24.47c2.16,19.819,0.82,39.75,0.531,59.62c1.649-0.48,3.33-0.91,4.989-1.381
	c0.66,8.94,0.53,18.101-1.69,26.83c-1.77,7.211-6.1,13.351-9.02,20.09c-5.41,12.19-9.82,24.83-16.27,36.551
	c-1.541,0.17-3.07,0.359-4.601,0.56c4.771-17.17,10.44-34.18,17.75-50.46c1.72-4.449,5.54-7.93,6.2-12.8
	c1.32-6.09-0.13-12.26-1.529-18.181c-2.091-16.189,0.449-32.59-1.201-48.789c-3.25-12.59-4.279-25.771-9.1-37.93
	c-1.15-3.14-2.99-5.98-4.061-9.13c-1.409-8.3-5.319-15.84-8.319-23.62c-1.479-4.43-2.069-9.2-4.56-13.25
	c-5.73-10.12-15.75-18-17.98-29.9c3.529-0.32,5.74,2.75,6.88,5.65c1.66,3.67,2.979,7.83,6.479,10.22
	c-1.149-8.66-4.969-17.74-13.18-21.85c-0.88,1.66-1.75,3.33-2.619,5c-0.311-1.65-0.551-3.31-0.781-4.96
	c-0.689-6.15-2.569-12.65-7.489-16.78c-3.46-2.42-2.681-7.18-4.81-10.36c-7.601-7.65-16.76-13.44-25.371-19.83
	c-7.129-5.9-16.779-7.41-25.76-6.71c-0.05,5.35-0.14,10.71,0.23,16.05c4.141-0.86,8.189-3.3,9.26-7.65
	c0.52,1.42,0.9,2.93,1.721,4.22c3,1.11,6.219,0.07,9.319,0.54c-2.09,1.54-4.08,3.229-5.819,5.17c2.5,0.21,5,0.28,7.489,0.51
	c0.87,0.32,1.671,0.77,2.41,1.35c0.08,0.51,0.25,1.52,0.33,2.02c-5.83,0.99-11.74-0.97-17.56-0.03
	c-6.84,2.23-7.51,10.73-7.471,16.82c-2.3,0.38-4.6,0.78-6.91,1.14c-0.22-2.02-0.24-4.06-0.22-6.08
	c-3.979,5.53-5.09,12.64-9.78,17.72c-5.09,5.3-3.74,13.72-8.43,19.22c-1.46-0.98-3.04-1.77-4.69-2.35c0.84,2.26,1.51,4.57,2.05,6.92
	c-2.15,0.67-4.29,1.38-6.42,2.12c1.4-10.88,3.65-21.79,8.41-31.75c3.49-2.88,8.1-4.63,10.31-8.82c3.43-6.03,11.09-7.13,15.609-11.96
	c-0.33-1.66-0.81-3.311-0.649-5.03c-16.14,0.91-31.67-5.78-47.82-4.67c-7.64,0.3-15.31,0.24-22.89,1.34
	c-3.2,0.55-6.71,0.59-9.52,2.39c-4.35,3.16-9.27,5.81-12.49,10.26c-6.1,8.54-15.03,14.69-20.63,23.61c4.4,1.75,8.32,4.5,12.79,6.08
	c0.84,1.83,1.41,3.76,1.53,5.771c-6.89-1.91-13.93-3.3-21.04-4.07c-3,4.95-6.52,9.58-10.59,13.7c-4.67,5.28-9.9,10.07-14.32,15.56
	c-6.35,9.25-1.66,21.521-6.94,31.15c-5,9.85-6.72,21.17-5.62,32.1c0.76,14.681-4.85,30.22,1.96,44.171
	c1.65,16.39,10.82,30.84,12.61,47.18l-0.56,0.33c-0.89-0.26-1.77-0.57-2.64-0.86c-2.47-10.101-7.27-19.47-9.57-29.62
	c-0.93-3.67-1.19-7.46-1.82-11.189c-0.89-5.431-4.07-10.33-4.01-15.94c0.37-17.03-0.35-34.09,0.3-51.12
	c2.43-9.21,6.56-17.94,8.58-27.28c-2.33,2.53-4.31,5.34-6.16,8.23c-0.17-1.3-0.36-2.59-0.49-3.89c-0.76-9.66,6.29-17.24,10.27-25.39
	c7.63-9.64,15.3-19.27,22-29.6c-6.17-0.69-12.06,2.3-18.25,1.42c-1.54-0.99-2.97-2.14-4.26-3.44c6.46-2.43,13.6-1.36,20.33-1.09
	c-0.08-0.91-0.26-2.73-0.35-3.65c3.9,0.52,7.87-0.05,11.31-2.01c5.24-3.17,9.06-8.1,12.69-12.93c2.81-4.15,6.98-7.08,10.09-10.99
	c2.9-3.27,5.52-7.1,9.53-9.09c0.06-0.61,0.17-1.82,0.22-2.43c0.04,0.57,0.1,1.72,0.14,2.29c10.41-5.22,22.76-5.27,32.75-11.51
	C135.59,9.56,151.08,5.4,166.971,3.64 M120.2,15.92c-1.05,1.23-2.1,2.45-3.18,3.65c9.78,0.32,20.01-1.85,29.37,1.98
	c5.7,2.46,12.02,1.15,18.01,1.05c1.199-5.07,2.81-10.04,3.97-15.13C152.03,8.56,136.37,13.82,120.2,15.92 M145.79,67.57
	c-0.05,0.51-0.16,1.54-0.22,2.06c0.1,0.21,0.31,0.64,0.42,0.85c0.59-0.33,1.79-0.99,2.38-1.32c0.03-0.38,0.09-1.13,0.11-1.51
	C147.58,67.62,146.69,67.59,145.79,67.57 M270.18,115.99c0.461,7.43,3.24,14.49,6.471,21.11c1.82,3.81,4.25,7.48,4.81,11.75
	c0.55,3.57,0.851,7.44,3.3,10.32c0.33-10.82-0.869-22.45-7.439-31.45C274.82,123.94,275.34,117.46,270.18,115.99z"/>
<path fill="#F9F9F9" d="M120.2,15.92c16.17-2.1,31.83-7.36,48.17-8.45c-1.16,5.09-2.771,10.061-3.97,15.13
	c-5.99,0.1-12.311,1.41-18.01-1.05c-9.36-3.83-19.59-1.66-29.37-1.98C118.1,18.37,119.15,17.15,120.2,15.92z"/>
<path fill="#FAFAFA" d="M173.6,7.62c8.98-0.7,18.631,0.81,25.76,6.71c-0.739,0.32-2.219,0.96-2.959,1.28
	c-0.371,1.09-0.74,2.18-1.101,3.27c0.261,0.15,0.79,0.43,1.05,0.58c0.811-0.5,1.621-1,2.43-1.5c-0.239,2.17-1.139,4.14-2.869,5.53
	c-0.04,0.99-0.08,1.979-0.11,2.97c-2.489-0.23-4.989-0.3-7.489-0.51c1.739-1.94,3.729-3.63,5.819-5.17
	c-3.101-0.47-6.319,0.57-9.319-0.54c-0.82-1.29-1.201-2.8-1.721-4.22c-1.07,4.35-5.119,6.79-9.26,7.65
	C173.46,18.33,173.55,12.97,173.6,7.62z"/>
<path fill="#0B0B0B" d="M187.641,53.38c9.439-2.58,21-3.91,29.08,2.8c3.969,3.92,7.469,8.3,11.229,12.43
	c6.95,7.6,13.63,15.6,18.59,24.67c2.479,4.4,3.95,9.24,5.8,13.92c3.6,9.17,3.061,20.68-3.63,28.34c-5.021,5.04-11.431,9-18.59,9.93
	c-10.771,1.34-21.601-0.63-32.091-2.939c-12.959-3.4-23.17-13.15-30.189-24.22c-3.699-4.25-5.949-9.61-6.1-15.27
	c-0.15-11.81,6.39-22.64,14.93-30.36c3.63-3.19,7.77-5.9,10.85-9.63C188.16,59.88,187.73,56.59,187.641,53.38 M204.529,56.14
	c-0.109,1.48-0.199,2.96-0.27,4.45c-2.84,1.02-5.76,1.78-8.6,2.76l0.42,0.45l-0.74-0.68c-6.27,3.5-10.949,9.14-16.21,13.92
	c-4.03,3.55-6.62,8.32-10.08,12.35c-0.92,1.89,0.83,4.71-0.989,5.96c0.869,4.1-3.44,6.54-3.25,10.54
	c0.879,2.64,3.399,4.14,5.219,6.09c3.771,3.56,6.221,8.2,8.361,12.85c0.729,1.66,2.739,1.97,4,3.09c0.56,0.03,1.67,0.09,2.229,0.12
	c1.909,2.17,4.44,3.68,5.86,6.27c12.97,5.74,27.529,7.38,41.58,5.91c2.149-0.05,3.869-1.439,5.64-2.479
	c4.87-3.04,9.329-7.05,11.69-12.39c-0.9-5.14,0.08-10.48-1.181-15.55c-4.66-10.71-9.97-21.16-16.45-30.89
	c-2.72-0.54-4.31-2.81-5.47-5.13c-3.44-2.07-5.42-5.66-8.04-8.57C214.68,60.96,210.3,56.83,204.529,56.14z"/>
<path fill="#F5F5F5" d="M204.529,56.14c5.771,0.69,10.15,4.82,13.721,9.07c-2.609,1.99-6,1.52-9.05,2.01
	c-4.53,0.48-10.24,0.89-13.12-3.42l-0.42-0.45c2.84-0.98,5.76-1.74,8.6-2.76C204.33,59.1,204.42,57.62,204.529,56.14z"/>
<path fill="#F7F7F7" d="M232.93,61.39c1.37-0.02,2.74-0.06,4.1-0.09c0.23,1.65,0.471,3.31,0.781,4.96c0.869-1.67,1.739-3.34,2.619-5
	c8.211,4.11,12.03,13.19,13.18,21.85c-3.5-2.39-4.819-6.55-6.479-10.22c-1.14-2.9-3.351-5.97-6.88-5.65
	c2.23,11.9,12.25,19.78,17.98,29.9c-0.24,2.08-0.67,4.14-1.34,6.12c-2.4-2.04-2.641-6.32-5.881-7.22c0.83,2.01,2,3.87,2.79,5.89
	c-0.19,1.83-0.92,3.53-1.46,5.27c-1.85-4.68-3.32-9.52-5.8-13.92c-4.96-9.07-11.64-17.07-18.59-24.67c1.22-1,2.44-2,3.67-2.98
	c1.09,0.51,2.2,1.01,3.31,1.51C234.529,65.13,233.83,63.22,232.93,61.39 M246.12,85.39C244.6,88.42,249.41,85.52,246.12,85.39z"/>
<path fill="#FFFFFF" d="M179.13,77.04c5.261-4.78,9.94-10.42,16.21-13.92l0.74,0.68c2.88,4.31,8.59,3.9,13.12,3.42
	c3.05-0.49,6.44-0.02,9.05-2.01c2.62,2.91,4.6,6.5,8.04,8.57c1.16,2.32,2.75,4.59,5.47,5.13c6.48,9.73,11.79,20.18,16.45,30.89
	c1.261,5.07,0.28,10.41,1.181,15.55c-2.361,5.34-6.82,9.35-11.69,12.39c-1.771,1.04-3.49,2.43-5.64,2.479
	c-14.051,1.47-28.61-0.17-41.58-5.91c-1.42-2.59-3.951-4.1-5.86-6.27c-0.56-0.03-1.67-0.09-2.229-0.12
	c-1.261-1.12-3.271-1.43-4-3.09c-2.141-4.65-4.591-9.29-8.361-12.85c-1.819-1.95-4.34-3.45-5.219-6.09
	c-0.19-4,4.119-6.44,3.25-10.54c1.819-1.25,0.069-4.07,0.989-5.96C172.51,85.36,175.1,80.59,179.13,77.04 M206.221,97.22
	c-1.57,2.35-1.601,5.21,0.01,7.561c2.35,1.57,5.199,1.59,7.539-0.01c1.601-2.34,1.58-5.19,0.01-7.54
	C211.43,95.63,208.58,95.67,206.221,97.22z"/>
<path fill="#F2F2F2" d="M145.79,67.57c0.9,0.02,1.79,0.05,2.69,0.08c-0.02,0.38-0.08,1.13-0.11,1.51c-0.59,0.33-1.79,0.99-2.38,1.32
	c-0.11-0.21-0.32-0.64-0.42-0.85C145.63,69.11,145.74,68.08,145.79,67.57z"/>
<path fill="#CECECE" d="M246.12,85.39C249.41,85.52,244.6,88.42,246.12,85.39z"/>
<path fill="#090909" d="M70.38,96.62c4.75-2.69,10.42-1.8,15.64-1.77c8.7,0.99,17.97,1.61,25.53,6.38c-0.12,0.67-0.36,1.3-0.71,1.9
	c3.94,4.61,9.26,7.52,14.6,10.2c1.16,10.91-1.01,22.56-8,31.26c-4.37,4.32-7.04,10-11.33,14.41c-5.45,5.58-10.9,11.2-16.77,16.33
	c-6.75,0.34-13.57,0.42-20.34,0.26c-2.38-0.21-5.1,0.09-7.02-1.64c-4-3.181-7.67-6.75-11.38-10.25c-1.54-5.43-0.87-11.14-2.02-16.64
	c-0.49-3.53-2.89-6.44-3.43-9.96c-1.43-7.95,1.49-15.79,3.92-23.24c0.59-1.64,0.76-3.61,2.24-4.75
	C56.82,103.79,63.54,99.97,70.38,96.62 M73.56,99.39c-7.92,4-16.61,8.17-21.38,16.03c-2.76,4.22-3.08,9.36-2.17,14.19
	c-1.83,1.89-2.55,4.49-3.27,6.95c0.45-0.04,1.36-0.1,1.82-0.13c0.82,1.49,2,2.74,3.17,3.97c-0.68,4.85-0.39,9.83,0.76,14.59
	c0.56,3.84,2.27,7.72,6,9.4c0.79,1.569,0.77,3.89,2.64,4.649c8.3,4.21,17.95,2.37,26.87,2.51c7.95-7.479,16.26-14.99,21.9-24.48
	c1.69-2.69,3.88-5.09,5.08-8.06c1.17-2.95,4.47-4.36,5.53-7.39c1.17-3.15,1.83-6.47,2.24-9.81c-0.44-1.45-0.72-2.95-0.85-4.46
	c-1.77-2.53-3.58-5.42-6.54-6.67c-1.32-1.22-3.46-0.14-4.76-1.41c-3.46-1.22-5.96-4.1-9.28-5.52c-3.78-2.61-7.58-5.52-12.32-5.98
	C83.87,97.35,78.23,96.75,73.56,99.39z"/>
<path fill="#010101" d="M206.221,97.22c2.359-1.55,5.209-1.59,7.559,0.01c1.57,2.35,1.591,5.2-0.01,7.54
	c-2.34,1.6-5.189,1.58-7.539,0.01C204.62,102.43,204.65,99.57,206.221,97.22z"/>
<path fill="#FFFFFF" d="M73.56,99.39c4.67-2.64,10.31-2.04,15.44-1.62c4.74,0.46,8.54,3.37,12.32,5.98c3.32,1.42,5.82,4.3,9.28,5.52
	c1.3,1.27,3.44,0.19,4.76,1.41c2.96,1.25,4.77,4.14,6.54,6.67c0.13,1.51,0.41,3.01,0.85,4.46c-0.41,3.34-1.07,6.66-2.24,9.81
	c-1.06,3.03-4.36,4.44-5.53,7.39c-1.2,2.97-3.39,5.37-5.08,8.06c-5.64,9.49-13.95,17-21.9,24.48c-8.92-0.14-18.57,1.7-26.87-2.51
	c-1.87-0.76-1.85-3.08-2.64-4.649c-3.73-1.681-5.44-5.561-6-9.4c-1.15-4.76-1.44-9.74-0.76-14.59c-1.17-1.23-2.35-2.48-3.17-3.97
	c-0.46,0.03-1.37,0.09-1.82,0.13c0.72-2.46,1.44-5.06,3.27-6.95c-0.91-4.83-0.59-9.97,2.17-14.19
	C56.95,107.56,65.64,103.39,73.56,99.39 M78.22,130.22c-1.57,2.36-1.59,5.21,0.01,7.561c2.35,1.58,5.19,1.56,7.55,0
	c1.58-2.35,1.58-5.2,0-7.55C83.42,128.64,80.58,128.65,78.22,130.22z"/>
<path fill="#050505" d="M5.26,126.97c0.4-4.439-0.95-10.08,3.32-13.07c0.12,2.37,0.12,4.73,0.19,7.1
	c0.73,16.99,0.54,33.99,0.17,50.98c0.35,12.31-0.85,24.72,1.19,36.939c1.4,8.93,3.75,17.68,5.03,26.62
	c0.45,2.63,0.68,5.479,2.48,7.61c4.3,5.81,8.06,12.199,9.67,19.319c0.18-2.88,0.26-5.77,0.32-8.659c1.92,0.93,3.57,2.26,4.77,4.029
	c0.99,3.65,0.76,8.15,3.95,10.76c4.62,3.87,7.68,9.15,10.32,14.48c1.7,3.98,6.1,5.42,9.42,7.699c1.29-0.289,2.57-0.59,3.85-0.889
	c-0.91,0.659-1.8,1.35-2.68,2.039c7.12,2.51,13.72,6.41,20.65,9.461c2.78,1.039,3.03,4.639,2.92,7.17
	c-9.48-6.9-20.26-11.59-30.76-16.67c-7.79-4.561-9.48-14.681-16.68-19.931c-0.12,0.47-0.38,1.42-0.51,1.89
	c0.4,12.03,4.19,23.721,9.88,34.25c0.64,1.01,0.81,2.2,1,3.36c-1.41-0.71-2.84-1.39-4.29-2c-6.18-11.61-10.34-24.42-11.58-37.54
	c-0.28-1.62-0.06-3.439-1-4.87c-4.62-7.8-8.31-16.12-13.35-23.68c-3.02-4.17-1.88-9.511-2.95-14.24
	c-5.48-15.729-5.27-32.7-5.36-49.16C5.48,162.3,5.33,144.63,5.26,126.97z"/>
<path fill="#F2F2F2" d="M270.18,115.99c5.16,1.47,4.641,7.95,7.141,11.729c6.57,9,7.77,20.63,7.439,31.45
	c-2.449-2.88-2.75-6.75-3.3-10.32c-0.56-4.27-2.989-7.94-4.81-11.75C273.42,130.48,270.641,123.42,270.18,115.99z"/>
<path fill="#F8F8F8" d="M13.94,124.87c1.85-2.89,3.83-5.7,6.16-8.23c-2.02,9.34-6.15,18.07-8.58,27.28
	c-0.65,17.03,0.07,34.09-0.3,51.12c-0.06,5.61,3.12,10.51,4.01,15.94c0.63,3.729,0.89,7.52,1.82,11.189
	c2.3,10.15,7.1,19.52,9.57,29.62c0.87,0.29,1.75,0.601,2.64,0.86l0.56-0.33c1.63-1.42,4.76-2.59,6.21-0.351
	c-0.33,1.74-2.81,0.37-4.08,0.65c2.13,1.86,5.71,4.38,3.09,7.41c-0.91-0.7-1.79-1.421-2.64-2.19c-1.2-1.77-2.85-3.1-4.77-4.029
	c-0.06,2.89-0.14,5.779-0.32,8.659c-1.61-7.12-5.37-13.51-9.67-19.319c-1.8-2.131-2.03-4.98-2.48-7.61
	c-1.28-8.94-3.63-17.69-5.03-26.62c-2.04-12.22-0.84-24.63-1.19-36.939C9.31,154.99,9.5,137.99,8.77,121
	c1.56-0.01,3.12-0.01,4.68-0.02C13.58,122.28,13.77,123.57,13.94,124.87z"/>
<path fill="#010101" d="M78.22,130.22c2.36-1.57,5.2-1.58,7.56,0.01c1.58,2.35,1.58,5.2,0,7.55c-2.36,1.56-5.2,1.58-7.55,0
	C76.63,135.43,76.65,132.58,78.22,130.22z"/>
<path fill="#050505" d="M167.76,232.88c4.061-1.7,8.44-0.489,12.68-0.63c1.771,4.5,0.32,9.21-1.319,13.49
	c-4.761-0.15-11.45-0.87-12.94-6.32c3.76,1.29,7.58,2.46,11.51,3.09c-0.129-2.689,0.041-5.39,0.631-8.02
	c-4.24,0.04-8.26,1.47-12.37,2.33C166.51,235.48,167.109,234.17,167.76,232.88z"/>
</svg>
