<?xml version="1.0" encoding="utf-8"?>
<!-- Generator: Adobe Illustrator 15.1.0, SVG Export Plug-In . SVG Version: 6.00 Build 0)  -->
<!DOCTYPE svg PUBLIC "-//W3C//DTD SVG 1.1//EN" "http://www.w3.org/Graphics/SVG/1.1/DTD/svg11.dtd">
<svg version="1.1" id="Layer_1" xmlns="http://www.w3.org/2000/svg" xmlns:xlink="http://www.w3.org/1999/xlink" x="0px" y="0px"
	 width="218px" height="188px" viewBox="0 0 218 188" enable-background="new 0 0 218 188" xml:space="preserve">
<g id="_x23_000000ff">
	<path d="M113.2,7.2c7.149-1.83,14.68-1.48,21.93-0.47c7.74,0.96,15.69,1.91,22.81,5.31c5.931,3.22,10.881,8.5,13.121,14.93
		c1.66,4.061,2.039,8.46,2.16,12.8c-0.57,1.79-0.551,3.69,0.09,5.45c-0.311,5.83-2.69,11.21-4.461,16.69
		c1.771,2.98,3.521,5.98,5.221,9c4.16,7.08,8.869,14.04,10.97,22.08c2.01,7.52,4.37,14.93,6.55,22.4c0.891,2.65,1.53,5.5,3.189,7.81
		c2.541,1.659,5.541,2.42,8.24,3.79c6.041,2.77,10.49,7.89,14.98,12.63v4.09c-4.26-2.54-7.75-6.03-11.43-9.29
		c-9.881-7.17-22.141-9.689-33.78-12.529c-1.16,4.43-0.681,9.039-1.3,13.539c-0.82,8.19-1.48,16.391-2.28,24.58
		c-0.399,6.96-1.29,13.92-3.29,20.62c-0.96-0.61-1.9-1.26-2.8-1.94c-0.3-3.26,0.489-6.47,0.83-9.689
		c1.079-9.061,1.62-18.17,2.69-27.23c0.42-7.149,1.779-14.25,1.35-21.43c-4.52-0.68-8.971-1.779-13.391-2.949
		c-6.07-1.61-12.289-2.491-18.459-3.581c-5.371-0.98-10.861-0.72-16.24-1.59c-6.23-0.93-12.48,0.6-18.42,2.35
		c-11.22,5.2-21.83,12.39-34.27,14.39c-0.43-0.54-1.3-1.62-1.73-2.17c4.05-3.931,10.07-3.931,14.89-6.45
		c4.64-2.43,9.49-4.42,14.62-5.54c0.01-0.69,0.03-2.06,0.04-2.74C63.36,111.92,31.68,112.04,0,112v-4
		c36.01,0.05,72.02-0.14,108.03,0.05c3.91,0.18,7.48-1.56,10.98-3.02c5.99-2.62,12.221-4.771,17.83-8.18
		c9.32-5.41,18.971-10.64,26.66-18.32c1.93-2.21,4.18-4.55,4.58-7.58c0.311-2.51-1.53-4.44-2.721-6.43
		c-3.93,3.43-8.029,6.76-12.699,9.16c-5.1,2.55-11,2.73-16.57,2.15c-11.109-1.71-22.22-4.46-32.24-9.68
		c-3.22-1.66-5.39-4.75-8.54-6.47c-3.22-1.02-6.79-0.58-9.9-2.01c-3.01-1.79-4.18-5.28-5.69-8.23c1.81-0.4,3.79-0.33,5.46-1.21
		c3.05-2.17,5.11-5.62,5.66-9.31c0.84-5.34,2.85-10.37,4.47-15.49c-1.78,0.23-3.56,0.44-5.35,0.63c0.04-1.21,0.07-2.43,0.11-3.65
		c4.59-2.5,9.5-4.49,13.73-7.61C106.78,10.7,109.59,8.14,113.2,7.2 M104.18,17.16c1.44,1.34,3.05,2.47,4.81,3.34
		c0,1.16,0.01,2.33,0.01,3.5c-1.23,0-2.46,0-3.69,0c-0.42-0.51-1.25-1.54-1.66-2.05c-1.08,0.05-2.15,0.11-3.22,0.17
		c-1.51,3.05-2.89,6.16-3.98,9.39c2.89,0.91,5.85,1.62,8.73,2.57c-0.05,2.81-0.18,5.62-0.22,8.43c-1.65,0.63-2.82,1.82-3.46,3.46
		C98.79,46,96.08,46,93.37,46.12c0.82,1.02,1.36,2.45,2.72,2.9c6.16,2.32,12.87,2.03,19.35,2.35c7.471,0.4,14.961,0.34,22.44,0.46
		c9.2-9.05,18.31-18.27,28.71-25.96c-1.859-3.17-3.91-6.37-7.029-8.45c-7.181-4.91-16-6.41-24.49-7.3
		c-5.711-0.23-11.43-0.12-17.141-0.1C112.48,10.02,107.99,13.65,104.18,17.16 M157.17,38.22c-5.57,5.1-10.98,10.4-15.91,16.12
		c-1.71,1.89-1.81,4.63-3.24,6.66c-2.02,1.82-4.859,2.04-7.379,2.68c-3.051,0.89-6.19-0.07-9.031-1.21
		c-3.709-1.81-6.06-5.77-10.159-6.89c-5.22-1.42-10.66-1.69-15.98-2.59c3.97,5.2,8.84,10.229,15.219,12.31
		c6.16,2.25,12.36,4.42,18.641,6.33c2.75,0.95,5.92,0.77,8.29-1.02c7.22-4.51,15.229-10.38,24.25-8.14
		c1.86-2.03,3.84-4.03,5.11-6.51c3.85-8.16,4.31-17.75,1.58-26.32C164.18,31.64,160.8,35.16,157.17,38.22 M100.02,35.81
		c-0.01,1.6-0.02,3.19-0.02,4.78c-2.49,0.91-4.73,2.33-6.46,4.36c2.33,0.05,4.67,0.06,7.01,0.05c1.12-1.17,2.27-2.32,3.44-3.45
		c0.01-1.62,0.01-3.23,0.02-4.85C102.68,36.4,101.35,36.1,100.02,35.81 M85.2,52.16c1.29,2.8,4.28,3.54,7.1,3.34
		c-0.18-0.89-0.54-2.66-0.73-3.54C89.45,51.98,87.32,52.01,85.2,52.16 M118.13,55.27c3.261,4.63,9.36,5.49,14.57,4.54
		c2.11-0.69,3.51-2.47,3.909-4.61C130.45,54.82,124.27,54.75,118.13,55.27 M172.02,74.45c-0.049,14.05-0.01,28.09-0.01,42.13
		c5.2,2.061,10.4,4.109,15.91,5.22c0.33-0.45,0.99-1.36,1.33-1.81c-4.71-11.82-6.46-24.66-12.141-36.12
		C175.57,80.65,173.779,77.56,172.02,74.45 M164.27,82.03c-0.959,1.42-1.75,3.02-3.09,4.13c-9.33,6.64-19.18,12.56-29.5,17.53
		c-3.93,2.15-8.38,3.08-12.33,5.18c10.971-0.51,21.57,2.79,32.45,3.42c4.82,0.71,9.57,1.89,14.14,3.57
		c1.34-4.45,0.82-9.1,1.371-13.65c1.299-6.67,0.469-13.49,0.689-20.22C166.75,82,165.51,82.01,164.27,82.03z"/>
	<path d="M111,26.09c7.43-0.31,15.13-2.11,22.34,0.64c3.95,1.76,7.78,3.76,11.66,5.67c0,0.7-0.01,2.09-0.01,2.79
		c-5.79-0.56-11.09-3.33-16.15-6.01c-5.92-0.47-11.9-0.03-17.84-0.18C111,28.27,111,26.82,111,26.09z"/>
	<path d="M116.57,35.37c5.459-0.5,10.91,0.46,16.3,1.28c0,3.06,0.489,6.25-1,9.08c-2.79,1.27-5.649,2.98-8.851,2.24
		c-2.149-1.14-4.06-2.689-5.97-4.17C117.01,40.98,116.8,38.17,116.57,35.37 M128.109,37.52c-0.08,1.83-0.109,3.65-0.139,5.48
		c-2.82-0.01-5.65-0.02-8.471,0.1c0.74,2.1,2.57,3.35,4.641,3.93c2.92,0.01,5.729-1.271,7.859-3.24c-0.01-1.18,0-2.37,0.02-3.56
		C130.87,39.12,129.561,38.2,128.109,37.52z"/>
</g>
<g id="_x23_ffffffff">
	<path fill="#FFFFFF" d="M104.18,17.16c3.81-3.51,8.3-7.14,13.75-7.14c5.711-0.02,11.43-0.13,17.141,0.1
		c8.49,0.89,17.31,2.39,24.49,7.3c3.119,2.08,5.17,5.28,7.029,8.45c-10.4,7.69-19.51,16.91-28.71,25.96
		c-7.479-0.12-14.97-0.06-22.44-0.46c-6.479-0.32-13.189-0.03-19.35-2.35c-1.36-0.45-1.9-1.88-2.72-2.9
		c2.71-0.12,5.42-0.12,8.13-0.15c0.64-1.64,1.81-2.83,3.46-3.46c0.04-2.81,0.17-5.62,0.22-8.43c-2.88-0.95-5.84-1.66-8.73-2.57
		c1.09-3.229,2.47-6.34,3.98-9.39c1.07-0.06,2.14-0.12,3.22-0.17c0.41,0.51,1.24,1.54,1.66,2.05c1.23,0,2.46,0,3.69,0
		c0-1.17-0.01-2.34-0.01-3.5C107.23,19.63,105.62,18.5,104.18,17.16 M111,26.09c0,0.73,0,2.18,0,2.91
		c5.939,0.15,11.92-0.29,17.84,0.18c5.061,2.68,10.36,5.45,16.15,6.01c0-0.7,0.01-2.09,0.01-2.79c-3.88-1.91-7.71-3.91-11.66-5.67
		C126.13,23.98,118.43,25.78,111,26.09 M116.57,35.37c0.229,2.8,0.439,5.61,0.479,8.43c1.91,1.48,3.82,3.03,5.97,4.17
		c3.201,0.74,6.061-0.97,8.851-2.24c1.489-2.83,1-6.02,1-9.08C127.48,35.83,122.029,34.87,116.57,35.37z"/>
	<path fill="#FFFFFF" d="M157.17,38.22c3.63-3.06,7.01-6.58,11.391-8.58c2.729,8.57,2.27,18.16-1.58,26.32
		c-1.271,2.48-3.25,4.48-5.11,6.51c-9.021-2.24-17.03,3.63-24.25,8.14c-2.37,1.79-5.54,1.97-8.29,1.02
		c-6.28-1.91-12.48-4.08-18.641-6.33c-6.379-2.08-11.25-7.11-15.219-12.31c5.32,0.9,10.76,1.17,15.98,2.59
		c4.1,1.12,6.45,5.08,10.159,6.89c2.841,1.14,5.98,2.1,9.031,1.21c2.52-0.64,5.359-0.86,7.379-2.68c1.431-2.03,1.53-4.77,3.24-6.66
		C146.189,48.62,151.6,43.32,157.17,38.22z"/>
	<path fill="#FFFFFF" d="M100.02,35.81c1.33,0.29,2.66,0.59,3.99,0.89c-0.01,1.62-0.01,3.23-0.02,4.85
		c-1.17,1.13-2.32,2.28-3.44,3.45c-2.34,0.01-4.68,0-7.01-0.05c1.73-2.03,3.97-3.45,6.46-4.36C100,39,100.01,37.41,100.02,35.81z"/>
	<path fill="#FFFFFF" d="M128.109,37.52c1.451,0.68,2.761,1.6,3.91,2.71c-0.02,1.19-0.029,2.38-0.02,3.56
		c-2.13,1.97-4.939,3.25-7.859,3.24c-2.07-0.58-3.9-1.83-4.641-3.93c2.82-0.12,5.65-0.11,8.471-0.1
		C128,41.17,128.029,39.35,128.109,37.52z"/>
	<path fill="#FFFFFF" d="M173.221,39.77c1.34,1.58,1.27,3.81,0.09,5.45C172.67,43.46,172.65,41.56,173.221,39.77z"/>
	<path fill="#FFFFFF" d="M85.2,52.16c2.12-0.15,4.25-0.18,6.37-0.2c0.19,0.88,0.55,2.65,0.73,3.54
		C89.48,55.7,86.49,54.96,85.2,52.16z"/>
	<path fill="#FFFFFF" d="M118.13,55.27c6.14-0.52,12.32-0.45,18.479-0.07c-0.399,2.14-1.799,3.92-3.909,4.61
		C127.49,60.76,121.391,59.9,118.13,55.27z"/>
</g>
</svg>
