<?xml version="1.0" encoding="utf-8"?>
<!-- Generator: Adobe Illustrator 15.0.2, SVG Export Plug-In . SVG Version: 6.00 Build 0)  -->
<!DOCTYPE svg PUBLIC "-//W3C//DTD SVG 1.1//EN" "http://www.w3.org/Graphics/SVG/1.1/DTD/svg11.dtd">
<svg version="1.1" id="Layer_1" xmlns="http://www.w3.org/2000/svg" xmlns:xlink="http://www.w3.org/1999/xlink" x="0px" y="0px"
	 width="325px" height="240px" viewBox="0 0 325 240" enable-background="new 0 0 325 240" xml:space="preserve">
<path fill="#FFFFFF" d="M0,0h45.09c-1.17,3.98-3.05,7.66-5.14,11.22c0.71,0.11,2.13,0.311,2.84,0.41c-1.01,2.35-2.22,4.6-3.21,6.95
	c0.47,0,1.4,0,1.87,0c-2.02,4.95-1.79,10.48-0.81,15.64c1.77,9.51-1.46,19.66,2.6,28.79c2.81,6.42,3.37,13.51,5.44,20.16
	c1.71,4.35,3.66,8.61,4.76,13.17c0.27,2.14,1.63,4.51,0.25,6.52c-2.57,4.23-6.2,7.66-9.59,11.21c-1.02,1-0.54,2.55-0.73,3.81
	c2.53-2.68,4.83-5.56,7.2-8.38c0.52-0.01,1.57-0.02,2.09-0.03c-0.23,0.34-0.69,1-0.92,1.34c0.05,3.75,0.34,7.62-1.11,11.18
	c3.13,2.51,4.02,6.39,4.06,10.22c0.42,0.07,1.27,0.21,1.7,0.28c-0.48-2.49-0.92-5-0.93-7.54c0.67-2.47,1.72-4.81,2.52-7.23
	c0.87,4.44,0.76,9.08,2.66,13.28c6.36,5.09,10.96,12.13,17.53,16.96c0.19-0.68,0.56-2.04,0.74-2.729
	c1.09,1.229,2.18,2.47,3.27,3.699c1.81,7.61,8.29,13.73,7.39,22.021c4.45,7.55,6.27,16.33,10.46,23.989
	c4.31,5.78,10.06,10.371,14.08,16.42c-3.26,0.301-6.57,1.451-8.65,4.11c-3.61,3.91-3.29,9.65-2.79,14.57
	c0.62,4.72,4.66,7.86,8.81,9.51l1.04,0.45H81.73c1.92-0.77,3.76-1.71,5.62-2.63c-0.01-1.75-0.01-3.49-0.01-5.22
	c-3.78,2.199-7.72,5.05-12.35,4.33c-5.22-0.5-8.59-5.61-9.25-10.45c-0.66-5.521-0.24-12.11,4.32-15.97
	c2.16-1.98,5.25-1.92,7.99-1.761c3.28,0.101,5.85,2.38,8.73,3.65c0.65-1.78,0.11-3.62-0.14-5.41c-4.78-2.5-10.4-2.97-15.63-1.84
	c-5.85,2.069-9.45,8.27-9.59,14.29c-0.22,4.93-0.26,10.15,2.1,14.63c1.5,3.11,4.5,5.13,7.62,6.38H0V0 M92.35,202.4
	c-0.25,12.229,0,24.459,0.14,36.68c0.97,0.02,2.92,0.05,3.89,0.061c0.05-2.181,0.06-4.36,0.01-6.541
	c0.25-6.55-0.13-13.109-0.08-19.66c-0.01-3.529,0.28-7.1-0.5-10.58C94.66,202.37,93.5,202.391,92.35,202.4z"/>
<path fill="#493616" d="M45.09,0h0.57c2.98,1.7,6.5,1.14,9.76,1.14c-0.96,3.71-2.78,7.06-5.28,9.96
	c-3.41,6.88-6.24,14.22-7.28,21.86c0.09,6.66,0.17,13.33,0.13,20c-0.12,3.69,1.1,7.22,2.47,10.59c2.12,5.25,2.74,10.93,4.1,16.39
	c1.06,4.11,3.38,7.77,4.35,11.9c-0.14,1.5-0.34,3-0.47,4.5c-1.1-4.56-3.05-8.82-4.76-13.17c-2.07-6.65-2.63-13.74-5.44-20.16
	c-4.06-9.13-0.83-19.28-2.6-28.79c-0.98-5.16-1.21-10.689,0.81-15.64c-0.47,0-1.4,0-1.87,0c0.99-2.35,2.2-4.6,3.21-6.95
	c-0.71-0.1-2.13-0.3-2.84-0.41C42.04,7.66,43.92,3.98,45.09,0 M47.2,3.13c-0.55,1.61,0,2.17,1.64,1.68
	C49.39,3.2,48.84,2.64,47.2,3.13 M50.35,4.27C49.52,4.74,48.64,6.83,50.11,7C51.81,7.05,52.55,3.1,50.35,4.27z"/>
<path fill="#1C0500" d="M45.66,0h252.061c-0.32,0.45-0.971,1.35-1.301,1.79c4.221,4.68,5.52,11.27,10.12,15.65
	c3.1,3.1,4.39,7.48,5.65,11.56c0.96,7.42-0.73,15.05,1.109,22.39c-0.67-0.79-1.91-1.27-2.02-2.41c-0.86-6.29,0.29-12.68-0.55-18.97
	c-0.75-4.15-2.811-7.96-5.451-11.21c-4.439-5.33-7.039-11.84-10.659-17.71c-2.3,0.02-4.61,0.03-6.899,0.04
	c3.739,4.25,7.819,8.59,9.649,14.07c1.899,8.13,3.04,16.42,4.64,24.61c-0.609,6.83-3.24,13.82-8.65,18.33
	c3.611-0.51,7.25-0.7,10.9-0.72c2.601,3.47,5.25,6.91,8.19,10.11c4.63,5.11,5.96,12.12,9.04,18.12c0.79,1.45,2.33,2.26,3.51,3.37
	v1.89c-0.4,0.5-1.19,1.48-1.59,1.98c-0.28-0.82-0.58-1.63-0.9-2.43c-0.97-1.34-2.21-2.54-2.74-4.13
	c-1.989-6.16-4.229-12.48-8.529-17.45c-2.61-3.2-5.05-6.54-7.76-9.66c-3.94-0.07-8.08,1.18-11.86-0.439
	c-0.21,0.38-0.63,1.14-0.841,1.52c-0.18-0.41-0.549-1.22-0.729-1.63c2.41-2.48,5.36-4.53,7.11-7.59
	c3.311-5.28,3.88-11.95,1.869-17.81c-1.129-5.75-1.109-11.75-3.199-17.28c-1.49-4.9-4.65-9.05-8.17-12.69
	c-0.439-0.57-1.311-1.72-1.75-2.29c-7.141-0.03-14.28-0.02-21.42,0.03l0.07,0.87c1.91,0.42,3.83,0.85,5.719,1.37
	c3.811,1.08,7.641,2.32,10.941,4.6c2.549,4.2,5.809,8.13,6.75,13.09c2.85,8.04,2.68,16.72,2.129,25.11
	c-1,3.92-1.979,7.85-1.979,11.92c-0.431-0.33-1.31-0.99-1.75-1.32c0.31-4.14,1.2-8.22,1.489-12.36
	c2.131-6.12,1.051-12.69-0.18-18.88c-1.479-5.51-3.439-11.01-7.4-15.27c-1.859-3.2-5.219-4.7-8.729-5.31
	c-0.69,2.44-1.13,5.04-2.6,7.16c-1.22,1.46-3.06,2.17-4.66,3.09c-0.569,0.29-1.7,0.87-2.261,1.16c0.07-0.56,0.211-1.68,0.281-2.24
	c1.02-0.771,2.029-1.561,3.039-2.36l0.17-0.13c1.521-2.13,2.561-4.55,3.681-6.9c-1.72-0.66-3.431-1.32-5.13-2.01
	c-1-0.43-2-0.83-3.01-1.21c-2.291-0.28-4.601-0.16-6.891,0c-0.34-0.03-1.02-0.09-1.35-0.12c-3.021-0.33-6.041-0.37-9.07-0.35
	c-1.98,4.09-3.471,8.38-4.85,12.71c-1.471,4.06-2.15,8.36-2.03,12.68c-9.101,2.94-18.83,5.81-28.399,3.39
	c-1.561-3.87-3.73-7.56-4.32-11.75c-0.801-5.25-2.4-10.5-5.811-14.68c-0.51-0.75-1.02-1.5-1.529-2.25
	C163.189,0.86,129.56,1.45,95.93,1c-13.5,0.13-27.01-0.16-40.51,0.14C52.16,1.14,48.64,1.7,45.66,0 M199.87,1.29
	c2.12,4.36,4.72,8.61,5.39,13.51c0.79,4.74,1.79,10.3,5.69,13.45c8.12,2.34,16.26-1.37,24.079-3.28c0.5-8.32,3.801-16.09,6.671-23.8
	C227.76,1.04,213.8,0.86,199.87,1.29z"/>
<path fill="#FEFEFE" d="M297.721,0H325v62.74l-0.08-0.08c-1.06-1.18-2.12-2.34-3.31-3.38c-2.94-2.4-5.42-5.28-8.23-7.82l-0.08-0.07
	c-1.84-7.34-0.149-14.97-1.109-22.39c-1.261-4.08-2.551-8.46-5.65-11.56c-4.601-4.38-5.899-10.97-10.12-15.65
	C296.75,1.35,297.4,0.45,297.721,0z"/>
<path fill="#DCAA53" d="M55.42,1.14C68.92,0.84,82.43,1.13,95.93,1c33.63,0.45,67.259-0.14,100.88,0.05
	c0.51,0.75,1.02,1.5,1.529,2.25c1.12,5.17,3.53,9.97,4.29,15.23c0.87,4.56,2.04,9.82,6.08,12.64c3.33,0.86,6.84,0.58,10.261,0.6
	c6.789-0.48,14.17-1.14,19.489-5.91c-0.42-4.07-0.03-8.16,0.44-12.2c1.379-4.33,2.869-8.62,4.85-12.71
	c3.029-0.02,6.05,0.02,9.07,0.35c-1.17,4.59-2.381,9.21-2.301,13.98c-3.1,4.07,3.58,6.61,3.181,10.74
	c-0.06,4.76,2.399,8.84,3.88,13.2c1.43,4.5-1.29,8.66-2.5,12.83c-0.62,1.6,1.07,2.63,1.83,3.74c0.359,7.5,3.92,14.88,10.17,19.19
	c2.97,0.89,6.109-0.45,9.08-0.94c3.619-0.52,6.369-3.02,9.27-5.01c1.891-2.84,3.76-5.71,5.35-8.73c0.211-0.38,0.631-1.14,0.841-1.52
	c3.78,1.62,7.92,0.37,11.86,0.439c2.71,3.12,5.149,6.46,7.76,9.66c4.3,4.97,6.54,11.29,8.529,17.45c0.53,1.59,1.771,2.79,2.74,4.13
	c-3.05,7.15-8.14,13.04-12.81,19.15c-2.681,3.33-6.32,5.7-9.04,9c-3.52,4.27-8.04,7.55-11.52,11.85
	c-15.061,0.29-30.73-3.44-45.33,1.83c-0.92,0.34-1.83,0.71-2.73,1.08c-1.29,0.5-2.561,1.021-3.84,1.55c-2.84,2.32-5.9,4.36-8.73,6.7
	c-4.91,4.3-11.35,6.899-14.97,12.58c-2.37,4.29-4.101,8.909-5.351,13.649c-0.6,2.45-3.02,3.721-4.67,5.42
	c-1.74-1.149-3.689-2.189-4.699-4.109c-8.551-13.77-15.051-29.58-28.36-39.59c-6.41-2.971-12.86-5.93-19.48-8.42
	c-4.71-1.72-8.36-5.5-13.24-6.86c-0.18,0.39-0.52,1.18-0.69,1.58c5.57,2.66,10.58,6.42,16.46,8.42c5.52,2,10.65,4.94,16.23,6.819
	c6.59,5.551,11.82,12.4,16.47,19.61c3.511,6.47,7.12,12.9,10.89,19.23c1.08,1.96,2.961,3.239,4.69,4.569
	c-3.87,3.761-9.261,5.391-13.021,9.271c-4.569,3.819-3.84,11.61-9.64,14.29c-6.521,3.189-12.96,6.72-18.46,11.51
	c-6.62,6.5-10.2,15.29-16.1,22.37c-0.48-5.71,3.46-10.649,4.8-16.04c0.55-0.7,1.1-1.39,1.66-2.09c2.17-2.77,3.29-6.26,5.83-8.78
	c4.04-5.13,10.56-8.95,11.669-15.86c2.371-8.459,8.061-16,8.4-25.02c-0.31-0.33-0.939-0.99-1.25-1.32
	c-0.289-0.25-0.869-0.76-1.16-1.01c-0.25,0.7-0.77,2.1-1.02,2.801c-5.38-1.341-10.97-2.36-16.52-1.681
	c-1.8,0.16-3.23,1.33-4.59,2.399c-3.58,2.94-7.73,5.08-11.4,7.881c-0.72,0.029-2.15,0.09-2.86,0.119c-0.62,1.451-1.24,2.9-1.84,4.36
	c-3,5.33-2.48,11.75-5.16,17.2c-1.71,3.41-2.27,7.29-1.53,11.04c0.27,0.32,0.8,0.96,1.07,1.29c0.57,0.68,1.14,1.37,1.7,2.061
	c-1.77,0.859-4.18,1.039-5.39,2.739c-0.36,2.04-0.39,4.13-0.54,6.2c-2.8-1.76-3.81-4.91-4.32-8c-2.25-0.12-4.5-0.189-6.75-0.24
	c-3.85-4.88-7.95-9.57-12.3-14.01c-3.49-3.609-4.23-8.75-6.2-13.17c-2.14-5.57-5.54-10.8-5.82-16.91l1.88,0.78
	c5.95,4,13.06,5.149,20.11,5.08c-0.43-1.311-0.88-2.61-1.33-3.91c0.74-1.851,1.01-4.12,2.76-5.34c3.36-2.69,6.99-5.021,10.64-7.3
	c3.65-2.16,4.74-6.601,7.42-9.67c5.45-6.541,2.99-15.551,1.6-23.08c-0.03-2.761-0.36-5.65-2.43-7.681c-1.28-1.6-2.91-2.84-4.56-4.03
	c0.07,0.55,0.19,1.66,0.26,2.21c0.51,4.4,2.01,8.581,3.9,12.55c2.33,5.55,0.35,11.489,0.37,17.22c-0.1,0.17-0.31,0.51-0.41,0.68
	c-0.68-0.17-2.05-0.51-2.73-0.68c0.98-4.561,1.34-9.49-1.45-13.52c-3.46,1.369-7.34,2.56-10.7,0.279
	c-3.56,2.28-7.44,4.76-9.06,8.891c-1.49,3.699-2.9,7.63-2.62,11.68c0.09,2.3,1.65,4.6,3.95,5.14c2.43,0.511,4.92,0.73,7.37,1.171
	c-2.68,2.18-6.35,3.879-7.11,7.59c-0.7,1.149-0.57,3.33-2.06,3.739c-6.6-0.59-11.81-5.06-17.63-7.72c-1.12-1.96-2.35-3.87-3.47-5.83
	c2.8-4.05-3.3-6.3-3.38-10.23c-0.29-5.379-0.21-10.789-1.2-16.109c2.48-1.86,1.54-5.221,1.7-7.87c-0.5-8.57-1.2-17.17,0.23-25.7
	c-0.27-0.54-0.8-1.62-1.06-2.16c-0.07-0.49-0.22-1.46-0.29-1.95c-0.33,0.18-0.98,0.54-1.31,0.72c-0.42,0.22-1.25,0.65-1.67,0.86
	c-1.14-0.48-2.28-0.97-3.43-1.41c-0.7-1.07-1.38-2.13-2.12-3.16c-1.88-2.84-5.07-4.54-6.91-7.4c-1.49-3.97-1.06-8.3-1.72-12.43
	c-2.45,5.18-1.23,11.89,2.06,16.48c-4.78,3.65-6.99,9.51-11.71,13.26c-0.33-1.75-0.63-3.5-1.03-5.23c-0.97-4.13-3.29-7.79-4.35-11.9
	c-1.36-5.46-1.98-11.14-4.1-16.39c-1.37-3.37-2.59-6.9-2.47-10.59c0.04-6.67-0.04-13.34-0.13-20c1.04-7.64,3.87-14.98,7.28-21.86
	C52.64,8.2,54.46,4.85,55.42,1.14 M104.75,23.8c-5.88,5.59-11.44,11.75-15.23,18.97c-0.71-0.09-2.14-0.28-2.85-0.38
	c-1.06,3.01-2.65,6.02-2.24,9.31c1.7-1.35,3.45-2.01,4.52,0.28c0.22-0.57,0.66-1.71,0.88-2.29c0.53-0.13,1.61-0.39,2.14-0.52
	c1.34-3.26,3.11-6.31,4.91-9.34c3.79-2.61,7.48-5.38,11.18-8.13c3.09,0.73,3.85-3.57,6.83-3.55c7.04-1.26,14.09-2.46,21.1-3.9
	c2.93-0.67,5.59,0.95,8.01,2.37c2.43-0.28,4.84-0.75,7.24-1.2c0.53,0.97,1.06,1.93,1.58,2.91c1.33,0.3,2.63,0.26,3.68-0.74
	c1.15,0.51,3.57,2.26,3.96,0.04c0.93-3.03-2.25-4.76-4.19-6.37c-0.53-1.27-0.78-2.83-2.14-3.52c-2-0.72-4.28-0.36-6.19-1.38
	c-1.59-0.64-3.07-1.84-4.87-1.7c-5.7,0.06-11.41-0.09-17.11,0.08C118.37,16.11,110.66,18.7,104.75,23.8 M121.32,36.67
	c-3.36,2.48-7.45,4.47-9.63,8.18c-0.42-0.17-1.27-0.52-1.7-0.69c-1.99,3.64-2.42,7.85-2.31,11.93c0.08,1.39,0.02,3.14,1.51,3.85
	l0.76,0.16c1.14,3.23,1.92,7,4.89,9.11c2.6,2.05,6.14,1.81,9.25,1.73c2.89-0.07,5-2.38,7.48-3.55c2.32-0.9,2.03-3.76,3.31-5.49
	c1.17-1.71,3.6-3.06,2.5-5.49c3.52-4.05,5.19-9.24,7.59-13.95c1.08-1.82,1.24-3.97,1.64-6.01c0.72-0.09,2.16-0.28,2.88-0.37
	c-1.25-3.34-5.01-1.97-7.64-1.94C135,34.87,127.49,32.64,121.32,36.67 M64.91,53.97C69.5,59.53,75.22,64.11,81.87,66.99
	c1.51,1.33,3.03,2.65,4.62,3.9c0.4-2.7-2.09-4.67-4.13-5.91c-3.89-1.71-7.49-4.03-10.83-6.65c-2-1.77-3.41-4.14-5.62-5.69
	C65.66,52.97,65.16,53.63,64.91,53.97z"/>
<path fill="#493618" d="M199.87,1.29c13.93-0.43,27.89-0.25,41.83-0.12c-2.87,7.71-6.171,15.48-6.671,23.8
	c-7.819,1.91-15.959,5.62-24.079,3.28c-3.9-3.15-4.9-8.71-5.69-13.45C204.59,9.9,201.99,5.65,199.87,1.29z"/>
<path fill="#1A0600" d="M252.82,1.3c0.33,0.03,1.01,0.09,1.35,0.12c-0.6,5.27-4.29,12.06,1.12,16.04
	c2.14-1.51,4.569-2.53,7.021-3.43c-0.07,0.56-0.211,1.68-0.281,2.24c-1.609,0.96-3.309,1.82-4.739,3.04
	c-0.41,1.33-0.66,2.7-0.729,4.11c7.83,0.14,16.239-0.99,23.5,2.57c4.569,5.32,3.26,13.08,3.52,19.57c-1.2,0.85-2.391,1.7-3.58,2.57
	c-3.25,2.13-7.061,3.06-10.55,4.67c-0.58,0.36-1.72,1.08-2.29,1.44c-3.04-0.14-5.78,1.12-8.43,2.42
	c-0.28,6.93,4.22,12.7,9.109,17.08c3.9-0.49,7.891-0.98,11.561-2.49c5.02-2.71,7.609-8.03,10.649-12.58
	c0.181,0.41,0.55,1.22,0.729,1.63c-1.59,3.02-3.459,5.89-5.35,8.73c-2.9,1.99-5.65,4.49-9.27,5.01c-2.971,0.49-6.11,1.83-9.08,0.94
	c-6.25-4.31-9.811-11.69-10.17-19.19c-0.36-2.37-0.25-4.8,1.311-6.79c0.399,1.67,0.539,3.4,0.979,5.08
	c0.29-0.66,0.87-1.98,1.159-2.64c2.381,0.48,4.801,0.11,7.021-0.84c2.979-1.03,5.91-2.21,8.91-3.21c0.53-0.1,1.569-0.3,2.09-0.4
	c-1.26-3.36-2.31-6.8-3.04-10.32c-1.57-1.37-3.01-2.93-4.82-3.99c-2.92-0.65-5.93-0.82-8.83-1.57c-0.119-0.65-0.359-1.96-0.479-2.61
	c4.431,0.74,9.771-0.73,13.31,2.75c2.271,4.46,5.961,8.72,5.311,14.05c3.189-2.9,1.609-7.47,1.609-11.23
	c-0.09-3.08-2.289-5.39-4.129-7.61c-0.75,0.02-2.25,0.05-3.011,0.07c-5.729-0.44-12.01,1.46-17.29-1.48
	c0.45,2.27,0.77,4.61,1.711,6.75c-0.191,0.55-0.591,1.65-0.781,2.2c-2.26-4.27-2.199-9.18-2.939-13.82
	c-0.96-2.04-2.93-3.35-4.48-4.9C250.439,10.51,251.65,5.89,252.82,1.3z"/>
<path fill="#C9C187" d="M254.17,1.42c2.29-0.16,4.6-0.28,6.891,0c-3.16,0.98-6.65,2.87-6.9,6.59c-0.16,2.16-1.221,6.13,1.66,6.84
	c3.13-1.19,6.189-2.61,9.529-3.18c-1.01,0.8-2.02,1.59-3.039,2.36c-2.451,0.9-4.881,1.92-7.021,3.43
	C249.88,13.48,253.57,6.69,254.17,1.42z"/>
<path fill="#C4A77C" d="M264.49,1.04c7.14-0.05,14.279-0.06,21.42-0.03c0.439,0.57,1.311,1.72,1.75,2.29
	c-5.689-1.36-11.74-1.79-17.381-0.02c-1.889-0.521-3.809-0.95-5.719-1.37L264.49,1.04z"/>
<path fill="#483618" d="M287.721,1.13c2.289-0.01,4.6-0.02,6.899-0.04c3.62,5.87,6.22,12.38,10.659,17.71
	c2.641,3.25,4.701,7.06,5.451,11.21c0.84,6.29-0.311,12.68,0.55,18.97c0.109,1.14,1.35,1.62,2.02,2.41l0.08,0.07
	c-0.189,1.14,0.021,2.34,0.93,3.13c2.24,2.45,4.65,4.74,7.15,6.92c0.88,1,2.23,1.04,3.46,1.15l0.08,0.08v26.28
	c-1.18-1.11-2.72-1.92-3.51-3.37c-3.08-6-4.41-13.01-9.04-18.12c-2.94-3.2-5.59-6.64-8.19-10.11c-3.65,0.02-7.289,0.21-10.9,0.72
	c5.41-4.51,8.041-11.5,8.65-18.33c-1.6-8.19-2.74-16.48-4.64-24.61C295.54,9.72,291.46,5.38,287.721,1.13z"/>
<path fill="#D19F4B" d="M254.16,8.01c0.25-3.72,3.74-5.61,6.9-6.59c1.01,0.38,2.01,0.78,3.01,1.21c0.88,1.13,1.76,2.27,2.41,3.56
	c-0.58,1.12-1.311,2.15-1.99,3.2c0.26,0.53,0.77,1.61,1.029,2.15l-0.17,0.13c-3.34,0.57-6.399,1.99-9.529,3.18
	C252.939,14.14,254,10.17,254.16,8.01z"/>
<path fill="#D8A751" d="M270.279,3.28c5.641-1.771,11.691-1.34,17.381,0.02c3.52,3.64,6.68,7.79,8.17,12.69
	c2.09,5.53,2.07,11.53,3.199,17.28c-2.789,5.22,0.381,11.76-3.109,16.78c-0.92,1.49-3.08,4.3-4.84,2.84
	c1.029-12.1,2.08-24.92-2.77-36.4c-1.801-3.22-3.181-7.42-7.09-8.61C277.92,5.6,274.09,4.36,270.279,3.28z"/>
<path fill="#645437" d="M47.2,3.13c1.64-0.49,2.19,0.07,1.64,1.68C47.2,5.3,46.65,4.74,47.2,3.13z"/>
<path fill="#CAC380" d="M264.07,2.63c1.699,0.69,3.41,1.35,5.13,2.01c-1.12,2.35-2.16,4.77-3.681,6.9
	c-0.26-0.54-0.77-1.62-1.029-2.15c0.68-1.05,1.41-2.08,1.99-3.2C265.83,4.9,264.95,3.76,264.07,2.63z"/>
<path fill="#725B41" d="M50.35,4.27c2.2-1.17,1.46,2.78-0.24,2.73C48.64,6.83,49.52,4.74,50.35,4.27z"/>
<path fill="#CAC380" d="M198.34,3.3c3.41,4.18,5.01,9.43,5.811,14.68c0.59,4.19,2.76,7.88,4.32,11.75
	c9.569,2.42,19.299-0.45,28.399-3.39c-0.12-4.32,0.56-8.62,2.03-12.68c-0.471,4.04-0.86,8.13-0.44,12.2
	c-5.319,4.77-12.7,5.43-19.489,5.91c-3.421-0.02-6.931,0.26-10.261-0.6c-4.04-2.82-5.21-8.08-6.08-12.64
	C201.87,13.27,199.46,8.47,198.34,3.3z"/>
<path fill="#DBA952" d="M271.55,4.86c3.511,0.61,6.87,2.11,8.729,5.31c-0.449,4.24,3.08,7.14,4.16,10.94
	c0.91,1.59,0.48,4.97,3.24,4.33c1.23,6.19,2.311,12.76,0.18,18.88c-2.739,1.99-2.609,5.71-3.129,8.72
	c-0.58,2.54,0.819,4.81,1.85,7.01c-3.141,4.49-6.75,10.73-13.2,9.7c-1.319,0.87-2.87,2.92-4.489,1.38
	c-3.961-3.39-8.73-8.15-7.711-13.81c2.881-1.33,7.53-0.57,8.271-4.52c3.489-1.61,7.3-2.54,10.55-4.67c0.02,0.51,0.05,1.53,0.07,2.04
	c2.01-1.27,4.959-2.25,4.9-5.13c1.789-5.98-1.021-11.82-0.621-17.82c-3.08-2.27-6.31-4.8-10.27-5.17
	c-5.141-0.59-10.359,0.08-15.49-0.74c2.311-1.65,5.41-2.95,5.7-6.2c1.601-0.92,3.44-1.63,4.66-3.09
	C270.42,9.9,270.859,7.3,271.55,4.86z"/>
<path fill="#D6B268" d="M281.221,7.88c3.909,1.19,5.289,5.39,7.09,8.61c4.85,11.479,3.799,24.3,2.77,36.4
	c1.76,1.46,3.92-1.35,4.84-2.84c3.49-5.02,0.32-11.56,3.109-16.78c2.011,5.86,1.441,12.53-1.869,17.81
	c-1.75,3.06-4.7,5.11-7.11,7.59c-3.04,4.55-5.63,9.87-10.649,12.58c-3.67,1.51-7.66,2-11.561,2.49
	c-4.89-4.38-9.39-10.15-9.109-17.08c2.649-1.3,5.39-2.56,8.43-2.42c0.57-0.36,1.71-1.08,2.29-1.44c-0.74,3.95-5.39,3.19-8.271,4.52
	c-1.02,5.66,3.75,10.42,7.711,13.81c1.619,1.54,3.17-0.51,4.489-1.38c6.45,1.03,10.06-5.21,13.2-9.7c-1.03-2.2-2.43-4.47-1.85-7.01
	c0.52-3.01,0.39-6.73,3.129-8.72c-0.289,4.14-1.18,8.22-1.489,12.36c0.44,0.33,1.319,0.99,1.75,1.32c0-4.07,0.979-8,1.979-11.92
	c0.551-8.39,0.721-17.07-2.129-25.11C287.029,16.01,283.77,12.08,281.221,7.88z"/>
<path fill="#D3AC6A" d="M280.279,10.17c3.961,4.26,5.921,9.76,7.4,15.27c-2.76,0.64-2.33-2.74-3.24-4.33
	C283.359,17.31,279.83,14.41,280.279,10.17z"/>
<path fill="#050102" d="M104.75,23.8c5.91-5.1,13.62-7.69,21.21-9.06c5.7-0.17,11.41-0.021,17.11-0.08c1.8-0.14,3.28,1.06,4.87,1.7
	c1.91,1.02,4.19,0.66,6.19,1.38c1.36,0.69,1.61,2.25,2.14,3.52c1.94,1.61,5.12,3.34,4.19,6.37c-0.39,2.22-2.81,0.47-3.96-0.04
	c-1.05,1-2.35,1.04-3.68,0.74c-0.52-0.98-1.05-1.94-1.58-2.91c-2.4,0.45-4.81,0.92-7.24,1.2c-2.42-1.42-5.08-3.04-8.01-2.37
	c-7.01,1.44-14.06,2.64-21.1,3.9c-2.98-0.02-3.74,4.28-6.83,3.55c-3.7,2.75-7.39,5.52-11.18,8.13c-1.8,3.03-3.57,6.08-4.91,9.34
	c-0.53,0.13-1.61,0.39-2.14,0.52c-0.22,0.58-0.66,1.72-0.88,2.29c-1.07-2.29-2.82-1.63-4.52-0.28c-0.41-3.29,1.18-6.3,2.24-9.31
	c0.71,0.1,2.14,0.29,2.85,0.38C93.31,35.55,98.87,29.39,104.75,23.8z"/>
<path fill="#D8AA5F" d="M253.7,26.02c0.399-4.13-6.28-6.67-3.181-10.74c1.551,1.55,3.521,2.86,4.48,4.9
	c0.74,4.64,0.68,9.55,2.939,13.82c2.41,4.58,2.511,10.18,0.621,14.97c0.58,0.1,1.75,0.29,2.33,0.39
	c0.76-4.94,1.43-10.27-0.681-14.99c0.511-1.08,1.021-2.15,1.479-3.26c2.9,0.75,5.91,0.92,8.83,1.57c1.811,1.06,3.25,2.62,4.82,3.99
	c0.73,3.52,1.78,6.96,3.04,10.32c-0.521,0.1-1.56,0.3-2.09,0.4c-0.56-0.03-1.681-0.08-2.24-0.11c0.229-2.93,1.4-6.29-0.46-8.93
	c-2.02-2.77-5.41-3.91-8.41-5.27c-3.26,5.15-0.57,11.33-2.539,16.79c1.439-0.46,2.889-0.92,4.35-1.38
	c0.09,0.53,0.289,1.58,0.39,2.11c-2.22,0.95-4.64,1.32-7.021,0.84c-0.289,0.66-0.869,1.98-1.159,2.64
	c-0.44-1.68-0.58-3.41-0.979-5.08c-1.561,1.99-1.671,4.42-1.311,6.79c-0.76-1.11-2.45-2.14-1.83-3.74c1.21-4.17,3.93-8.33,2.5-12.83
	C256.1,34.86,253.641,30.78,253.7,26.02z"/>
<path fill="#D6B268" d="M262.029,16.27c0.561-0.29,1.691-0.87,2.261-1.16c-0.29,3.25-3.39,4.55-5.7,6.2
	c5.131,0.82,10.35,0.15,15.49,0.74c3.96,0.37,7.189,2.9,10.27,5.17c-0.399,6,2.41,11.84,0.621,17.82c0.059,2.88-2.891,3.86-4.9,5.13
	c-0.021-0.51-0.051-1.53-0.07-2.04c1.189-0.87,2.38-1.72,3.58-2.57c-0.26-6.49,1.05-14.25-3.52-19.57
	c-7.261-3.56-15.67-2.43-23.5-2.57c0.069-1.41,0.319-2.78,0.729-4.11C258.721,18.09,260.42,17.23,262.029,16.27z"/>
<path fill="#D0A473" d="M257.01,25.05c5.28,2.94,11.561,1.04,17.29,1.48c0.07,1.57,0.15,3.14,0.22,4.72
	c-3.539-3.48-8.879-2.01-13.31-2.75c0.12,0.65,0.36,1.96,0.479,2.61c-0.459,1.11-0.969,2.18-1.479,3.26
	c-0.37-0.64-1.11-1.93-1.489-2.57C257.779,29.66,257.46,27.32,257.01,25.05z"/>
<path fill="#D8B25F" d="M274.3,26.53c0.761-0.021,2.261-0.05,3.011-0.07c1.84,2.22,4.039,4.53,4.129,7.61
	c0,3.76,1.58,8.33-1.609,11.23c0.65-5.33-3.04-9.59-5.311-14.05C274.45,29.67,274.37,28.1,274.3,26.53z"/>
<path fill="#543207" d="M257.939,34c0.19-0.55,0.59-1.65,0.781-2.2c0.379,0.64,1.119,1.93,1.489,2.57
	c2.11,4.72,1.44,10.05,0.681,14.99c-0.58-0.1-1.75-0.29-2.33-0.39C260.45,44.18,260.35,38.58,257.939,34z"/>
<path fill="#CE9F4E" d="M265.18,33.08c3,1.36,6.391,2.5,8.41,5.27c1.86,2.64,0.689,6,0.46,8.93c0.56,0.03,1.681,0.08,2.24,0.11
	c-3,1-5.931,2.18-8.91,3.21c-0.101-0.53-0.3-1.58-0.39-2.11c-1.461,0.46-2.91,0.92-4.35,1.38
	C264.609,44.41,261.92,38.23,265.18,33.08z"/>
<path fill="#5F4B34" d="M121.32,36.67c6.17-4.03,13.68-1.8,20.53-2.53c2.63-0.03,6.39-1.4,7.64,1.94c-0.72,0.09-2.16,0.28-2.88,0.37
	c-0.4,2.04-0.56,4.19-1.64,6.01l-1.69,0.26c0.48-2.189,1.01-4.37,1.57-6.54c-1.34,0.11-2.68,0.22-4.01,0.32
	c-1.7-2.48-4.89-1.84-7.29-0.91c-0.3,0.11-0.9,0.34-1.21,0.45c-9.83,0.96-21.57,7.49-21.27,18.7c0.43,0.29,1.29,0.86,1.72,1.14
	c0.75,3.3,1.18,7.07,3.86,9.45c2.16,1.38,4.74,2.07,7.29,2.21c3.87-2.44,6.96-5.95,9.41-9.79l0.19,0.05
	c0.43,0.28,1.29,0.85,1.72,1.13c-3.15,3.89-6.06,8.28-10.5,10.8c-2.94,0.4-5.93-0.68-8.58-1.88c-2.91-1.35-3.51-4.78-4.7-7.43
	c-0.38-0.08-1.15-0.24-1.53-0.32l-0.76-0.16c-0.06-5.13-0.42-10.57,2.5-15.09C113.87,41.14,117.96,39.15,121.32,36.67z"/>
<path fill="#000600" d="M133.55,35.59c2.4-0.93,5.59-1.57,7.29,0.91c0.43,0.59,1.29,1.78,1.72,2.37c-0.06,1.32-0.13,2.65-0.19,3.98
	c0.23-0.03,0.68-0.1,0.91-0.13l1.69-0.26c-2.4,4.71-4.07,9.9-7.59,13.95c-0.71,0.84-1.43,1.67-2.12,2.52
	c-0.43-0.28-1.29-0.85-1.72-1.13l-0.19-0.05c-2.28-0.27-4.55-0.7-6.77-1.29c-1.27-6.26-1.47-13.07,1.9-18.73
	c1.29-0.55,2.58-1.12,3.86-1.69C132.65,35.93,133.25,35.7,133.55,35.59 M129.98,38.72c-2.8,4.43-4.37,9.9-2.66,15.04
	c1.65,1.73,4.18,3.04,6.62,2.51c3.52-1.99,5.39-5.87,6.74-9.51c1.35-3.53,0.92-8.93-3.38-10.07
	C135.14,38.21,132.57,38.69,129.98,38.72z"/>
<path fill="#FBFDFC" d="M111.07,54.74c-0.3-11.21,11.44-17.74,21.27-18.7c-1.28,0.57-2.57,1.14-3.86,1.69
	c-3.37,5.66-3.17,12.47-1.9,18.73c2.22,0.59,4.49,1.02,6.77,1.29c-2.45,3.84-5.54,7.35-9.41,9.79c-2.55-0.14-5.13-0.83-7.29-2.21
	c-2.68-2.38-3.11-6.15-3.86-9.45C112.36,55.6,111.5,55.03,111.07,54.74z"/>
<path fill="#FDF9F8" d="M140.84,36.5c1.33-0.1,2.67-0.21,4.01-0.32c-0.56,2.17-1.09,4.35-1.57,6.54c-0.23,0.03-0.68,0.1-0.91,0.13
	c0.06-1.33,0.13-2.66,0.19-3.98C142.13,38.28,141.27,37.09,140.84,36.5z"/>
<path fill="#287F27" d="M129.98,38.72c2.59-0.03,5.16-0.51,7.32-2.03c4.3,1.14,4.73,6.54,3.38,10.07
	c-1.35,3.64-3.22,7.521-6.74,9.51c-2.44,0.53-4.97-0.78-6.62-2.51C125.61,48.62,127.18,43.15,129.98,38.72 M130.77,41.86
	c-0.97,3.33-1.03,7.04,0.01,10.37c1.59,0.36,3.24,0.38,4.87,0.5c2.82-3.09,3.31-7.17,2.82-11.18
	C135.99,41.55,132.88,40.37,130.77,41.86z"/>
<path fill="#000600" d="M130.77,41.86c2.11-1.49,5.22-0.31,7.7-0.31c0.49,4.01,0,8.09-2.82,11.18c-1.63-0.12-3.28-0.14-4.87-0.5
	C129.74,48.9,129.8,45.19,130.77,41.86z"/>
<path fill="#D8AD71" d="M109.99,44.16c0.43,0.17,1.28,0.52,1.7,0.69c-2.92,4.52-2.56,9.96-2.5,15.09c-1.49-0.71-1.43-2.46-1.51-3.85
	C107.57,52.01,108,47.8,109.99,44.16z"/>
<path fill="#1A0600" d="M314.31,54.59c-0.909-0.79-1.119-1.99-0.93-3.13c2.811,2.54,5.29,5.42,8.23,7.82
	c1.189,1.04,2.25,2.2,3.31,3.38c-1.229-0.11-2.58-0.15-3.46-1.15C318.96,59.33,316.55,57.04,314.31,54.59z"/>
<path fill="#402700" d="M64.91,53.97c0.25-0.34,0.75-1,1-1.33c2.21,1.55,3.62,3.92,5.62,5.69c3.34,2.62,6.94,4.94,10.83,6.65
	c2.04,1.24,4.53,3.21,4.13,5.91c-1.59-1.25-3.11-2.57-4.62-3.9C75.22,64.11,69.5,59.53,64.91,53.97z"/>
<path fill="#D0A473" d="M135.26,58.93c0.69-0.85,1.41-1.68,2.12-2.52c1.1,2.43-1.33,3.78-2.5,5.49c-1.28,1.73-0.99,4.59-3.31,5.49
	c-2.48,1.17-4.59,3.48-7.48,3.55c-3.11,0.08-6.65,0.32-9.25-1.73c-2.97-2.11-3.75-5.88-4.89-9.11c0.38,0.08,1.15,0.24,1.53,0.32
	c1.19,2.65,1.79,6.08,4.7,7.43c2.65,1.2,5.64,2.28,8.58,1.88C129.2,67.21,132.11,62.82,135.26,58.93z"/>
<path fill="#402700" d="M66.65,83.81c-3.29-4.59-4.51-11.3-2.06-16.48c0.66,4.13,0.23,8.46,1.72,12.43c1.84,2.86,5.03,4.56,6.91,7.4
	l0.32,1.99c-2.15-1.51-4.19-3.17-6.17-4.89c0.01-0.3,0.02-0.89,0.02-1.18L66.65,83.81z"/>
<path fill="#050203" d="M66.65,83.81l0.74-0.73c0,0.29-0.01,0.88-0.02,1.18c0.01,1.72,0.03,3.44,0.07,5.17
	c0.91,0.55,1.83,1.1,2.74,1.65c0.3-0.11,0.91-0.32,1.22-0.43c1.51,0.5,2.87,1.34,4.17,2.24c-3.65,4.62-9.49,7.83-10.85,13.91
	c-1.67,2.45-4.15,4.39-4.75,7.47c-0.08-0.32-0.23-0.95-0.31-1.27c-0.6,1.56-1.14,3.14-1.68,4.72c-0.8,2.42-1.85,4.761-2.52,7.23
	c0.01,2.54,0.45,5.05,0.93,7.54c-0.43-0.07-1.28-0.21-1.7-0.28c-0.04-3.83-0.93-7.71-4.06-10.22c1.45-3.56,1.16-7.43,1.11-11.18
	c0.23-0.34,0.69-1,0.92-1.34c-0.52,0.01-1.57,0.021-2.09,0.03c-2.37,2.82-4.67,5.7-7.2,8.38c0.19-1.26-0.29-2.81,0.73-3.81
	c3.39-3.55,7.02-6.98,9.59-11.21c1.38-2.01,0.02-4.38-0.25-6.52c0.13-1.5,0.33-3,0.47-4.5c0.4,1.73,0.7,3.48,1.03,5.23
	C59.66,93.32,61.87,87.46,66.65,83.81 M61.21,98.23c-1.3,0.4-1.72,2.34-0.93,3.36C62.06,102.48,63.08,98.52,61.21,98.23
	 M57.13,107.43c-0.93,1.19-0.72,1.9,0.62,2.13C58.68,108.37,58.48,107.66,57.13,107.43 M55.01,119.44
	C53.57,122.48,58.35,119.46,55.01,119.44z"/>
<path fill="#C9C187" d="M67.37,84.26c1.98,1.72,4.02,3.38,6.17,4.89l-0.32-1.99c0.74,1.03,1.42,2.09,2.12,3.16
	c-0.78,0.01-2.34,0.05-3.12,0.06c-0.21,0.07-0.62,0.2-0.82,0.27c-0.31,0.11-0.92,0.32-1.22,0.43c-0.91-0.55-1.83-1.1-2.74-1.65
	C67.4,87.7,67.38,85.98,67.37,84.26z"/>
<path fill="#542E00" d="M71.4,90.65c0.2-0.07,0.61-0.2,0.82-0.27c0.78-0.01,2.34-0.05,3.12-0.06c1.15,0.44,2.29,0.93,3.43,1.41
	c-1.06,0.42-2.12,0.8-3.2,1.16C74.27,91.99,72.91,91.15,71.4,90.65z"/>
<path fill="#161302" d="M80.44,90.87c0.33-0.18,0.98-0.54,1.31-0.72c0.07,0.49,0.22,1.46,0.29,1.95c-1,5.9-1.58,11.87-1.26,17.85
	c0.35,5.96-0.55,11.96,0.39,17.88c0.99,5.32,0.91,10.73,1.2,16.109c0.08,3.931,6.18,6.181,3.38,10.23c1.12,1.96,2.35,3.87,3.47,5.83
	c0.59,1.15,1.14,2.33,1.7,3.5c0.23,0.47,0.67,1.41,0.89,1.87c0.28,0.34,0.84,1,1.12,1.33l-1.88-0.78
	c0.28,6.11,3.68,11.34,5.82,16.91c1.97,4.42,2.71,9.561,6.2,13.17c4.35,4.439,8.45,9.13,12.3,14.01l0.81,0.801
	c0.41,0.289,1.23,0.859,1.64,1.14c-1.24-0.22-2.47-0.46-3.71-0.591c-4.02-6.049-9.77-10.64-14.08-16.42
	c-4.19-7.659-6.01-16.439-10.46-23.989c0.9-8.29-5.58-14.41-7.39-22.021c-1.09-1.229-2.18-2.47-3.27-3.699
	c-0.18,0.689-0.55,2.05-0.74,2.729C71.6,143.13,67,136.09,60.64,131c-1.9-4.2-1.79-8.84-2.66-13.28c0.54-1.58,1.08-3.16,1.68-4.72
	c0.08,0.32,0.23,0.95,0.31,1.27c-0.17,4.04,0.39,8.07,1.19,12.02c0.89-3.04,1.34-6.44,3.71-8.76c-0.12,3.43-1.62,6.55-2.39,9.829
	c-0.64,2.08,1.26,3.671,2.32,5.211c1.24,1.33,2.57,2.59,3.89,3.84c-0.14-7.32-0.34-14.71,2.04-21.74c-1.54,1.66-2.89,3.5-4.16,5.38
	c-0.07-1.38-0.76-3.02,0.38-4.15c2.55-2.9,5.7-5.22,8.17-8.21c1.41-0.12,2.82-0.22,4.23-0.33C79.05,101.83,79.92,96.35,80.44,90.87
	 M76.37,110.08c-1.07,0.95-2.43,1.67-3.16,2.95c-2.49,6.97-3.78,14.54-2.47,21.87c1.12,4.789,4.99,8.27,9.73,9.319
	c0.5-2.819,0.21-5.84-2.75-7.09c-4.58-5.04-1.95-12.271,1.61-17.07c0.02-3.59,0.01-7.18,0.05-10.77
	C78.35,109.45,77.34,109.69,76.37,110.08 M80.15,136.53c0.55-3.7-0.06-7.431-1.45-10.88C76.03,129.1,76.26,134.09,80.15,136.53z"/>
<path fill="#423000" d="M322.51,90.46c0.32,0.8,0.62,1.61,0.9,2.43c-0.45,0.74-0.88,1.48-1.311,2.23
	c-2.89,5.29-6.63,10.04-10.3,14.79c-2.85,3.77-6.85,6.43-9.85,10.07c-3.55,4.28-8.3,7.52-11.101,12.411
	c-5.959-0.021-11.959,0.299-17.869-0.701c-8.931-0.479-17.971-0.319-26.73,1.58c-0.82-0.319-1.641-0.649-2.439-0.979
	c14.6-5.271,30.27-1.54,45.33-1.83c3.479-4.3,8-7.58,11.52-11.85c2.72-3.3,6.359-5.67,9.04-9
	C314.37,103.5,319.46,97.61,322.51,90.46z"/>
<path fill="#D9AC58" d="M78.77,91.73c0.42-0.21,1.25-0.64,1.67-0.86c-0.52,5.48-1.39,10.96-1.09,16.49
	c-1.41,0.11-2.82,0.21-4.23,0.33c-2.47,2.99-5.62,5.31-8.17,8.21c-1.14,1.13-0.45,2.77-0.38,4.15c0.43,2.87,1.34,5.75,0.95,8.681
	c-0.72,1.39-1.78,2.59-2.72,3.84c-1.06-1.54-2.96-3.131-2.32-5.211c0.77-3.279,2.27-6.399,2.39-9.829
	c-2.37,2.32-2.82,5.72-3.71,8.76c-0.8-3.95-1.36-7.98-1.19-12.02c0.6-3.08,3.08-5.02,4.75-7.47c1.36-6.08,7.2-9.29,10.85-13.91
	C76.65,92.53,77.71,92.15,78.77,91.73z"/>
<path fill="#C7BE8D" d="M323.41,92.89c0.399-0.5,1.189-1.48,1.59-1.98v58.939c-0.98-0.449-1.96-0.88-2.95-1.279
	c0.97-2.061,1.96-4.211,1.79-6.561c-0.28-13.64-0.25-27.3,0-40.95c0.09-2.14-0.2-4.33-1.74-5.94
	C322.53,94.37,322.96,93.63,323.41,92.89z"/>
<path fill="#D6B268" d="M80.78,109.95c-0.32-5.98,0.26-11.95,1.26-17.85c0.26,0.54,0.79,1.62,1.06,2.16
	c-1.43,8.53-0.73,17.13-0.23,25.7c-0.16,2.649,0.78,6.01-1.7,7.87C80.23,121.91,81.13,115.91,80.78,109.95z"/>
<path fill="#CBC068" d="M311.8,109.91c3.67-4.75,7.41-9.5,10.3-14.79c1.54,1.61,1.83,3.8,1.74,5.94c-0.25,13.65-0.28,27.31,0,40.95
	c0.17,2.35-0.82,4.5-1.79,6.561c-5.88-2.25-11.77-4.7-18.06-5.58c-6.9-1.37-13.961-0.061-20.9-0.93
	c-5.88-0.891-11.89-0.311-17.71-1.67c-5-1.19-10.149-1.381-15.271-1.11c-4.989,3.2-10.149,6.56-16.06,7.71
	c-2,0.38-3.909,1.07-5.76,1.91c2.989-3.641,4.271-8.98,8.819-11.08c7.591-0.82,15.201-1.83,22.851-1.43
	c8.069,0.34,16.271-0.891,24.19,1.129c12.06,0.98,24.52,1.971,35.439,7.69c-0.609-1.229-0.96-2.771-2.38-3.3
	c-6.74-3.76-14.55-4.53-22.04-5.58c0.5-0.35,1.5-1.05,2-1.41c-2.359-0.45-4.71-0.89-7.061-1.34c0.181-0.29,0.551-0.891,0.74-1.189
	c2.801-4.891,7.551-8.131,11.101-12.411C304.95,116.34,308.95,113.68,311.8,109.91z"/>
<path fill="#2D322D" d="M61.21,98.23c1.87,0.29,0.85,4.25-0.93,3.36C59.49,100.57,59.91,98.63,61.21,98.23z"/>
<path fill="#59565C" d="M57.13,107.43c1.35,0.23,1.55,0.94,0.62,2.13C56.41,109.33,56.2,108.62,57.13,107.43z"/>
<path fill="#FBFBFB" d="M76.37,110.08c0.97-0.39,1.98-0.63,3.01-0.79c-0.04,3.59-0.03,7.18-0.05,10.77
	c-3.56,4.799-6.19,12.03-1.61,17.07c2.96,1.25,3.25,4.271,2.75,7.09c-4.74-1.05-8.61-4.53-9.73-9.319
	c-1.31-7.33-0.02-14.9,2.47-21.87C73.94,111.75,75.3,111.03,76.37,110.08z"/>
<path fill="#402700" d="M127.14,110.77c1.65,1.19,3.28,2.43,4.56,4.03l-0.14,2.54c-1.49-1.35-2.99-2.71-4.16-4.36
	C127.33,112.43,127.21,111.32,127.14,110.77z"/>
<path fill="#D0A473" d="M127.4,112.98c1.17,1.65,2.67,3.01,4.16,4.36l0.14-2.54c2.07,2.03,2.4,4.92,2.43,7.681
	c-1.17-1.891-2.22-3.86-3.38-5.75l-0.78,1.02c2.92,7.74,7.07,17.37,1.7,25c-0.02-5.73,1.96-11.67-0.37-17.22
	C129.41,121.561,127.91,117.38,127.4,112.98z"/>
<path fill="#C9C187" d="M66.57,120.05c1.27-1.88,2.62-3.72,4.16-5.38c-2.38,7.03-2.18,14.42-2.04,21.74
	c-1.32-1.25-2.65-2.51-3.89-3.84c0.94-1.25,2-2.45,2.72-3.84C67.91,125.8,67,122.92,66.57,120.05z"/>
<path fill="#402700" d="M137.05,115.87c0.17-0.4,0.51-1.19,0.69-1.58c4.88,1.36,8.53,5.14,13.24,6.86
	c6.62,2.49,13.07,5.449,19.48,8.42c13.31,10.01,19.81,25.82,28.36,39.59c1.01,1.92,2.959,2.96,4.699,4.109
	c1.65-1.699,4.07-2.97,4.67-5.42c1.25-4.74,2.98-9.359,5.351-13.649c3.62-5.681,10.06-8.28,14.97-12.58
	c2.83-2.34,5.891-4.38,8.73-6.7c1.279-0.529,2.55-1.05,3.84-1.55c0.32,0.46,0.96,1.38,1.279,1.83c-1.68,1.01-3.479,1.79-5.25,2.62
	c-4.549,2.1-5.83,7.439-8.819,11.08c1.851-0.84,3.76-1.53,5.76-1.91c5.91-1.15,11.07-4.51,16.06-7.71
	c5.121-0.271,10.271-0.08,15.271,1.11c5.82,1.359,11.83,0.779,17.71,1.67c6.939,0.869,14-0.44,20.9,0.93
	c6.29,0.88,12.18,3.33,18.06,5.58c0.99,0.399,1.97,0.83,2.95,1.279V152c-7.22-3-14.47-6.38-22.34-7.18
	c-6.83-1.24-13.801,0.13-20.641-0.92c-4.66-0.711-9.42-0.141-14.029-1.24c-2.34,1.699-5.19,1.77-7.961,1.63
	c-4.609,2.94-8.649,6.67-13.399,9.38c-2.94,1.99-4.989,5.01-7.08,7.82c-2.569,4.35-3.69,9.369-5.62,14.01
	c1.68,0.439,3.36,0.891,5.051,1.29c5.99,1.021,12.529,0.979,17.64,4.69c4.63,2.209,9.05,4.81,13.46,7.449
	c13.199,6.311,26.029,13.42,38,21.851c4.96,3.63,9.63,7.7,13.67,12.34c1.13,1.44,2.2,2.92,3.25,4.42v2.8
	c-6.07-8.65-14-15.89-23.01-21.38c-9.65-6.56-19.971-12.101-30.53-17.03c-4.26-2.18-8.13-5.07-12.5-7.029
	c-3.28-1.5-6.21-3.84-9.84-4.44c-5.181-1.31-11-0.399-15.55-3.71c-0.7,1.63-1.461,3.24-2.48,4.689c0.16-5.83,3.02-11.06,4.83-16.479
	c1.37-4.5,4.83-7.81,7.77-11.31c1.24-1.58,3.131-2.36,4.9-3.181c4.66-3.689,9.311-8.46,15.641-8.59
	c-4.311-0.53-8.73-1.72-13.061-0.8c-4.699,2.32-8.74,6.1-14.029,7.13c-3.73,0.67-7.361,1.81-10.48,4.03
	c-0.51-0.62-1.01-1.23-1.51-1.84c-3.801,2.18-8.51,3.43-10.961,7.359c-0.85,1.37-1.629,2.78-2.41,4.2
	c0.021,3.67-1.479,7.181-3.889,9.92c-4.371,4.82-10.17,7.931-15.561,11.41c-5.641,3.56-6.051,10.99-10.37,15.64
	c-1.899,1.78-4.521,2.43-6.81,3.54c-4.93,2.061-9.041,5.54-13.47,8.421c0.27,0.35,0.83,1.039,1.11,1.39
	c-1.9,0.85-4.11,1.229-5.63,2.729c-1.56,1.95-2.47,4.301-3.53,6.53c-3.2,5.67-6.64,11.38-11.76,15.53c0.8-1.76,1.62-3.51,2.7-5.11
	c5.9-7.08,9.48-15.87,16.1-22.37c5.5-4.79,11.939-8.32,18.46-11.51c5.8-2.68,5.07-10.471,9.64-14.29
	c3.76-3.88,9.15-5.51,13.021-9.271c-1.729-1.33-3.61-2.609-4.69-4.569c-3.77-6.33-7.379-12.761-10.89-19.23
	c-4.649-7.21-9.88-14.06-16.47-19.61c-5.58-1.879-10.71-4.819-16.23-6.819C147.63,122.29,142.62,118.53,137.05,115.87 M219.9,150.87
	c1.85-0.931,3.629-2.011,5.59-2.69c1.39-1.25,2.949-2.43,3.689-4.21C226.41,146.72,222.37,147.84,219.9,150.87z"/>
<path fill="#542E00" d="M129.97,117.75l0.78-1.02c1.16,1.89,2.21,3.86,3.38,5.75c1.39,7.529,3.85,16.539-1.6,23.08
	c-2.68,3.069-3.77,7.51-7.42,9.67c-3.65,2.279-7.28,4.609-10.64,7.3c-1.75,1.22-2.02,3.489-2.76,5.34c0.45,1.3,0.9,2.6,1.33,3.91
	c-7.05,0.069-14.16-1.08-20.11-5.08c-0.28-0.33-0.84-0.99-1.12-1.33c-0.22-0.46-0.66-1.4-0.89-1.87c5.82,3.1,11.92,6.1,18.7,5.84
	c0.74-2.85,0.79-6.38,3.37-8.31c3.55-2.761,7.31-5.24,11.1-7.66c3.75-2.13,4.78-6.64,7.17-9.94c0.1-0.17,0.31-0.51,0.41-0.68
	C137.04,135.12,132.89,125.49,129.97,117.75z"/>
<path fill="#504F58" d="M55.01,119.44C58.35,119.46,53.57,122.48,55.01,119.44z"/>
<path fill="#237C22" d="M80.15,136.53c-3.89-2.44-4.12-7.431-1.45-10.88C80.09,129.1,80.7,132.83,80.15,136.53z"/>
<path fill="#D1AE67" d="M107.32,138.4c1.62-4.131,5.5-6.61,9.06-8.891c3.36,2.28,7.24,1.09,10.7-0.279
	c2.79,4.029,2.43,8.959,1.45,13.52c0.68,0.17,2.05,0.51,2.73,0.68c-2.39,3.301-3.42,7.811-7.17,9.94
	c-3.79,2.42-7.55,4.899-11.1,7.66c-2.58,1.93-2.63,5.46-3.37,8.31c-6.78,0.26-12.88-2.74-18.7-5.84c-0.56-1.17-1.11-2.35-1.7-3.5
	c5.82,2.66,11.03,7.13,17.63,7.72c1.49-0.409,1.36-2.59,2.06-3.739c0.76-3.711,4.43-5.41,7.11-7.59c-2.45-0.44-4.94-0.66-7.37-1.171
	c-2.3-0.54-3.86-2.84-3.95-5.14C104.42,146.03,105.83,142.1,107.32,138.4 M125.22,133.359c-3.8-0.149-7.62-0.149-11.42,0.061
	c-5.11,4.83-7.63,11.85-6.55,18.83c0.69,0.3,2.06,0.9,2.74,1.2c2.66-0.011,5.36,0.319,7.99-0.2c2.24-2.561,4.65-4.97,7-7.43
	c2.54-4.51,3.89-9.961,1.82-14.93C126.27,131.71,125.74,132.53,125.22,133.359z"/>
<path fill="#030103" d="M125.22,133.359c0.52-0.829,1.05-1.649,1.58-2.469c2.07,4.969,0.72,10.42-1.82,14.93
	c-2.35,2.46-4.76,4.869-7,7.43c-2.63,0.52-5.33,0.189-7.99,0.2c-0.68-0.3-2.05-0.9-2.74-1.2c-1.08-6.98,1.44-14,6.55-18.83
	C117.6,133.21,121.42,133.21,125.22,133.359z"/>
<path fill="#4D4415" d="M241.08,133.37c0.9-0.37,1.811-0.74,2.73-1.08c0.799,0.33,1.619,0.66,2.439,0.979
	c4.66,1.92,9.811,0.75,14.7,1.021c6.75,0.25,13.569-0.601,20.28,0.46c4.549,1.28,9.33,0.62,13.939,1.58
	c7.49,1.05,15.3,1.82,22.04,5.58c1.42,0.529,1.771,2.07,2.38,3.3c-10.92-5.72-23.38-6.71-35.439-7.69
	c-7.92-2.02-16.121-0.789-24.19-1.129c-7.649-0.4-15.26,0.609-22.851,1.43c1.771-0.83,3.57-1.61,5.25-2.62
	C242.04,134.75,241.4,133.83,241.08,133.37 M244.32,134.1C244.5,137.43,247.29,132.51,244.32,134.1z"/>
<path fill="#CAC380" d="M246.25,133.27c8.76-1.899,17.8-2.06,26.73-1.58c5.91,1,11.91,0.681,17.869,0.701
	c-0.189,0.299-0.56,0.899-0.74,1.189c2.351,0.45,4.701,0.89,7.061,1.34c-0.5,0.36-1.5,1.061-2,1.41
	c-4.609-0.96-9.391-0.3-13.939-1.58c-6.711-1.061-13.53-0.21-20.28-0.46C256.061,134.02,250.91,135.189,246.25,133.27z"/>
<path fill="#A79B79" d="M244.32,134.1C247.29,132.51,244.5,137.43,244.32,134.1z"/>
<path fill="#CCC167" d="M237.141,148.21c5.289-1.03,9.33-4.81,14.029-7.13c4.33-0.92,8.75,0.27,13.061,0.8
	c-6.33,0.13-10.98,4.9-15.641,8.59c-1.77,0.82-3.66,1.601-4.9,3.181c-2.939,3.5-6.399,6.81-7.77,11.31
	c-1.811,5.42-4.67,10.649-4.83,16.479c1.02-1.449,1.78-3.06,2.48-4.689c4.55,3.311,10.369,2.4,15.55,3.71
	c3.63,0.601,6.56,2.94,9.84,4.44c4.37,1.959,8.24,4.85,12.5,7.029c1.97,3.561,5.67,5.36,9.41,6.49c-1.03,0.439-2.021,0.95-2.99,1.5
	c-1.45,2.92-0.29,6.75-2.21,9.471c-2.35,0.709-5.061,0.619-6.96,2.39c-1.239,1.01-2.44,2.06-3.649,3.09
	c-0.94-1.94-2.09-3.81-4.561-3.64c-0.01,9.039-0.42,18.129,0.359,27.149c0.101,0.4,0.301,1.21,0.4,1.62h-8.96
	c0.07-0.67,0.13-1.34,0.19-2.01c0.47-8.76,0.21-17.551-0.09-26.311l0.68,0.04c0,7.08-0.12,14.15-0.051,21.23
	c-0.079,1.78,0.461,3.5,1.15,5.13c0.85-5.34-0.17-10.75,0.41-16.12c0.59-4.99-0.04-10.09-2.97-14.29l1.14,0.09
	c2.09-1.04,2.87-4.109,1.49-5.97c-2.32-1.271-5.21-1.13-7.6-0.13c-0.99,3.439,1.02,6.85,0.67,10.34
	c-0.42,5.01-0.34,10.03-0.25,15.05c0.08,4.341-1.11,9.24,1.85,12.95h-68.449l1.129-0.29c1.311-0.38,2.631-0.78,3.94-1.18
	c-0.09-6.23-0.06-12.45,0-18.671c0.83-0.629,1.681-1.25,2.53-1.85c2.51-0.82,5.17-0.979,7.779-1.229
	c-0.119-1.521-0.24-3.04-0.369-4.55c-3.4,0.08-6.78,0.859-9.23,3.39c-1.189-1.69-2.641-3.2-4.75-3.65
	c-0.359,9.24-0.189,18.5,0.1,27.74c-0.59-0.51-1.76-1.53-2.35-2.04c-0.21-1.811-0.42-3.62-0.63-5.43
	c-0.54,0.029-1.61,0.09-2.149,0.119c-0.57,0.98-1.141,1.961-1.691,2.961c-0.09-0.62-0.26-1.851-0.35-2.461
	c-4.109,1.921-9.359,4.4-13.479,1.121c-2.62-1.57-2.68-4.801-2.94-7.49c5.57,0.029,11.131-0.1,16.69-0.19
	c0.11-4.159,0.399-9.01-2.99-12.069c-2.16-2.641-5.86-2.711-8.92-1.95c-0.28-0.351-0.84-1.04-1.11-1.39
	c4.429-2.881,8.541-6.36,13.47-8.421c2.289-1.11,4.91-1.76,6.81-3.54c4.319-4.649,4.729-12.08,10.37-15.64
	c5.391-3.479,11.189-6.59,15.561-11.41c2.409-2.739,3.909-6.25,3.889-9.92c0.781-1.42,1.561-2.83,2.41-4.2
	c0.471,0.23,1.4,0.68,1.871,0.9c0.039,0.51,0.1,1.54,0.14,2.05c2.11-0.62,4.229-1.22,6.37-1.76c-0.12-2.36,1.1-4.33,2.68-5.96
	c0.359-0.19,1.061-0.561,1.41-0.75C229.779,150.02,233.41,148.88,237.141,148.21 M217.7,206.68c-4.95,5.11-4.851,12.65-4.11,19.24
	c0.9,4.95,4.27,9.6,9.01,11.48c5.391,1.99,11.521,1.27,16.61-1.23c1.261-0.51,2.37-1.73,2.12-3.18c0-4.021,0.18-8.061-0.15-12.07
	c-0.279-0.24-0.85-0.74-1.13-0.98c-3.8-0.449-7.63-0.109-11.44-0.049c0.011,1.459,0.021,2.909,0.051,4.379
	c2.699,0.07,5.4,0.08,8.109,0.03c0.01,2.82,0.181,5.67-0.17,8.48c-5.39,2.95-13.82,2.55-16.92-3.53
	c-3.84-7.02-3.17-17.891,4.35-22.23c5.66-2.239,11.65,0.07,16.601,2.94c0.021-1.74,0.05-3.49,0.08-5.229
	C233.57,200.96,223.55,200.25,217.7,206.68z"/>
<path fill="#CCC167" d="M260.029,144.29c2.771,0.14,5.621,0.069,7.961-1.63c4.609,1.1,9.369,0.529,14.029,1.24
	c6.84,1.05,13.811-0.32,20.641,0.92c7.87,0.8,15.12,4.18,22.34,7.18v0.18c-0.77,2.17-1.41,4.42-1.33,6.75
	c-0.06,13.69,0.04,27.381-0.03,41.061c-0.069,6.689,0.511,13.41-0.149,20.08c0,1.27-1,2.149-1.74,3.05
	c-4.04-4.64-8.71-8.71-13.67-12.34c-11.971-8.431-24.801-15.54-38-21.851c-4.41-2.64-8.83-5.24-13.46-7.449
	c-5.11-3.711-11.649-3.67-17.64-4.69c-1.69-0.399-3.371-0.851-5.051-1.29c1.93-4.641,3.051-9.66,5.62-14.01
	c2.091-2.811,4.14-5.83,7.08-7.82C251.38,150.96,255.42,147.23,260.029,144.29z"/>
<path fill="#FFF7F0" d="M219.9,150.87c2.47-3.03,6.51-4.15,9.279-6.9c-0.74,1.78-2.3,2.96-3.689,4.21
	C223.529,148.859,221.75,149.939,219.9,150.87z"/>
<path fill="#C3C47E" d="M214.189,157.76c2.451-3.93,7.16-5.18,10.961-7.359c0.5,0.609,1,1.22,1.51,1.84
	c-0.35,0.189-1.051,0.56-1.41,0.75c-0.279-0.36-0.84-1.09-1.12-1.45c-1.53,2.34-3.239,4.56-5.021,6.71
	c-1.02,0.141-2.029,0.28-3.049,0.41C215.59,158.439,214.66,157.99,214.189,157.76z"/>
<path fill="#161302" d="M224.13,151.54c0.28,0.36,0.841,1.09,1.12,1.45c-1.58,1.63-2.8,3.6-2.68,5.96
	c-2.141,0.54-4.26,1.14-6.37,1.76c-0.04-0.51-0.101-1.54-0.14-2.05c1.02-0.13,2.029-0.27,3.049-0.41
	C220.891,156.1,222.6,153.88,224.13,151.54z"/>
<path fill="#C7BE8A" d="M323.67,158.93c-0.08-2.33,0.561-4.58,1.33-6.75v75.36c-1.05-1.5-2.12-2.979-3.25-4.42
	c0.74-0.9,1.74-1.78,1.74-3.05c0.66-6.67,0.08-13.391,0.149-20.08C323.71,186.311,323.61,172.62,323.67,158.93z"/>
<path fill="#402700" d="M174.52,161.84c0.291,0.25,0.871,0.76,1.16,1.01c-0.4,6.44-3.709,12.11-5.88,18.041
	c-1.89,4.42-3.36,9.029-5.63,13.27c-2.26,4.29-6.99,6.38-9.71,10.3c-1.72,2.42-3.42,4.851-5.01,7.351
	c0.54,0.659,1.07,1.33,1.58,2.02c-0.56,0.7-1.11,1.39-1.66,2.09c-0.16-0.63-0.48-1.87-0.64-2.49c-0.63-0.369-1.9-1.1-2.53-1.47
	c2.43-2.31,4.59-4.87,6.09-7.89c2.61-4.9,8.81-6.601,10.95-11.82c2.73-6.43,5.1-13,7.96-19.37c0.159-0.44,0.47-1.34,0.63-1.78
	c0.51-1.459,1.029-2.91,1.55-4.359c-5.521-1.49-11.43-2.96-17.11-1.58c-5.87,3.33-10.47,9.04-17.36,10.5
	c-1.36,5.529-2.09,11.21-3.42,16.75c-0.93,3.939-3.87,7.41-3.41,11.63c0.1,2.729,2.07,4.84,3.56,6.96c2.03,3.189,3.64,6.62,5.5,9.91
	c0.94-0.95,1.89-1.891,2.79-2.88c-0.58,2.069-1.12,4.159-1.74,6.229c-4.78-3.91-5.9-10.359-9.82-14.949
	c-0.56-0.69-1.13-1.381-1.7-2.061c-0.21-3.28-0.56-6.74,0.9-9.8c2.9-6.17,3.8-13.04,4.72-19.73c0.6-1.46,1.22-2.909,1.84-4.36
	c0.71-0.029,2.14-0.09,2.86-0.119c3.67-2.801,7.82-4.94,11.4-7.881c1.36-1.069,2.79-2.239,4.59-2.399
	c5.55-0.68,11.14,0.34,16.52,1.681C173.75,163.939,174.27,162.54,174.52,161.84z"/>
<path fill="#D6B268" d="M175.68,162.85c0.311,0.33,0.94,0.99,1.25,1.32c-0.34,9.02-6.029,16.561-8.4,25.02
	c-1.109,6.91-7.629,10.73-11.669,15.86c-2.54,2.521-3.66,6.011-5.83,8.78c-0.51-0.689-1.04-1.36-1.58-2.02
	c1.59-2.5,3.29-4.931,5.01-7.351c2.72-3.92,7.45-6.01,9.71-10.3c2.27-4.24,3.74-8.85,5.63-13.27
	C171.971,174.96,175.279,169.29,175.68,162.85z"/>
<path fill="#D9AA59" d="M156.27,165.16c5.68-1.38,11.589,0.09,17.11,1.58c-0.521,1.449-1.04,2.9-1.55,4.359
	c-1.93-0.41-4.01-1.109-5.891-0.14c-3.819,1.64-7.689,3.271-11.859,3.729c-4.35,0.451-6.32,4.86-8.23,8.211
	c-1.61,2.72-1.76,6.01-3.23,8.77c-2.49,3.62-4.97,7.311-6.59,11.41c-0.94,2.689,0.35,5.43,1.43,7.859L135.64,211
	c-1.49-2.12-3.46-4.23-3.56-6.96c-0.46-4.22,2.48-7.69,3.41-11.63c1.33-5.54,2.06-11.221,3.42-16.75
	C145.8,174.2,150.4,168.49,156.27,165.16z"/>
<path fill="#040203" d="M165.939,170.96c1.881-0.97,3.961-0.271,5.891,0.14c-0.16,0.44-0.471,1.34-0.63,1.78
	c-0.33-0.39-1-1.16-1.33-1.55c-1.83,2.359-3.771,4.65-6.149,6.48c-1.291,2.59-2.691,5.149-4.541,7.399
	c-2.94,3.521-4.17,8.22-7.76,11.24c-4.64,4.34-7.87,9.899-10.28,15.729c-0.9,0.28-1.8,0.57-2.7,0.851
	c-0.24-0.521-0.73-1.57-0.98-2.091c-1.08-2.43-2.37-5.17-1.43-7.859c1.62-4.1,4.1-7.79,6.59-11.41c1.47-2.76,1.62-6.05,3.23-8.77
	c1.91-3.351,3.88-7.76,8.23-8.211C158.25,174.23,162.12,172.6,165.939,170.96z"/>
<path fill="#D9AC5A" d="M169.87,171.33c0.33,0.39,1,1.16,1.33,1.55c-2.86,6.37-5.229,12.94-7.96,19.37
	c-2.14,5.22-8.34,6.92-10.95,11.82c-1.5,3.02-3.66,5.58-6.09,7.89c-0.92,1.96-1.61,4.01-2.27,6.07c-0.9,0.989-1.85,1.93-2.79,2.88
	c-1.86-3.29-3.47-6.721-5.5-9.91l1.82-0.061c0.25,0.521,0.74,1.57,0.98,2.091c0.9-0.28,1.8-0.57,2.7-0.851
	c2.41-5.83,5.64-11.39,10.28-15.729c3.59-3.021,4.82-7.72,7.76-11.24c1.85-2.25,3.25-4.81,4.541-7.399
	C166.1,175.98,168.04,173.689,169.87,171.33z"/>
<path fill="#C9C187" d="M131.13,194.92c2.68-5.45,2.16-11.87,5.16-17.2c-0.92,6.69-1.82,13.561-4.72,19.73
	c-1.46,3.06-1.11,6.52-0.9,9.8c-0.27-0.33-0.8-0.97-1.07-1.29C128.86,202.21,129.42,198.33,131.13,194.92z"/>
<path fill="#C9C187" d="M271.46,191.93c10.56,4.93,20.88,10.471,30.53,17.03c9.01,5.49,16.939,12.729,23.01,21.38v8.68
	c-13.76-0.039-27.51-0.02-41.27-0.01c0.229-0.49,0.689-1.47,0.92-1.96c7.72,1.24,15.56,0.431,23.33,0.601
	c4.85-0.23,9.729,0.6,14.55-0.141c1.97-6.84-3.33-12.65-8.49-16.27c-1.8-2.91-4.78-4.721-7.23-7.01
	c-3.05-2.891-7.249-3.98-10.6-6.44c-4.33-2.3-8.181-5.431-12.71-7.351c-0.87-0.689-1.75-1.359-2.63-2.02
	C277.13,197.29,273.43,195.49,271.46,191.93z"/>
<path fill="#F4AE6C" d="M277.88,199.92c0.97-0.55,1.96-1.061,2.99-1.5c0.88,0.66,1.76,1.33,2.63,2.02
	c0.141,5.58,0.311,11.16,0.939,16.721c0.201,6.63-0.529,13.27,0.211,19.89c-0.23,0.49-0.69,1.47-0.92,1.96
	c-1.431,0.03-2.86,0.1-4.291,0.2l-1.029-1.06c1-0.101,3-0.301,4-0.391c0.07-11.949,0.15-23.939-0.36-35.869
	c-0.899-0.19-2.69-0.57-3.59-0.761c-0.36,12.34,0.28,24.681-0.05,37.021c-0.82-1.11-1.96-2.211-1.83-3.711
	c0.09-5.649,0.34-11.299,0.27-16.949c-3.5,0.189-8.57-1.07-10.34,2.99c-0.119,5.6,0.54,11.289-0.949,16.819
	c-0.711-6.2-0.301-12.45-0.98-18.649c1.939-1.101,3.9-2.2,6.04-2.881c1.54,0.101,3.08,0.23,4.63,0.381
	c-0.02-1.471-0.05-2.94-0.09-4.41c-0.5-0.03-1.5-0.09-2-0.12c-1.49,0.03-2.971,0.08-4.45,0.16c1.899-1.771,4.61-1.681,6.96-2.39
	C277.59,206.67,276.43,202.84,277.88,199.92z"/>
<path fill="#EEAA6D" d="M246.65,201.66c2.39-1,5.279-1.141,7.6,0.13c1.38,1.86,0.6,4.93-1.49,5.97c-0.07-1.74-0.109-3.479-0.15-5.22
	c-1.34,0.06-2.68,0.11-4.02,0.16c-0.061,1.56-0.109,3.12-0.16,4.68c1.061,0.101,2.12,0.2,3.19,0.29c2.93,4.2,3.56,9.3,2.97,14.29
	c-0.58,5.37,0.439,10.78-0.41,16.12c-0.689-1.63-1.229-3.35-1.15-5.13c-0.069-7.08,0.051-14.15,0.051-21.23l-0.68-0.04
	c-0.92-0.02-2.771-0.07-3.7-0.1c-0.011,8.73-0.011,17.46,0.069,26.2c0.931,0.05,2.791,0.149,3.721,0.21
	c-0.061,0.67-0.12,1.34-0.19,2.01h-3.38c-2.96-3.71-1.77-8.609-1.85-12.95c-0.09-5.02-0.17-10.04,0.25-15.05
	C247.67,208.51,245.66,205.1,246.65,201.66z"/>
<path fill="#CCC166" d="M283.5,200.439c4.529,1.92,8.38,5.051,12.71,7.351c3.351,2.46,7.55,3.55,10.6,6.44
	c2.45,2.289,5.431,4.1,7.23,7.01c5.16,3.619,10.46,9.43,8.49,16.27c-4.82,0.74-9.7-0.09-14.55,0.141
	c-7.771-0.17-15.61,0.64-23.33-0.601c-0.74-6.62-0.01-13.26-0.211-19.89C283.811,211.6,283.641,206.02,283.5,200.439z"/>
<path fill="#D00D0E" d="M92.35,202.4c1.15-0.01,2.31-0.03,3.46-0.041c0.78,3.48,0.49,7.051,0.5,10.58
	c-0.05,6.551,0.33,13.11,0.08,19.66c-1.09,2.271-2.46,4.41-3.9,6.48C92.35,226.859,92.1,214.63,92.35,202.4z"/>
<path fill="#DF0F00" d="M217.7,206.68c5.85-6.43,15.87-5.72,23.01-1.949c-0.03,1.739-0.06,3.489-0.08,5.229
	c-4.95-2.87-10.94-5.18-16.601-2.94c-7.52,4.34-8.189,15.211-4.35,22.23c3.1,6.08,11.53,6.48,16.92,3.53
	c0.351-2.811,0.18-5.66,0.17-8.48c-2.709,0.05-5.41,0.04-8.109-0.03c-0.03-1.47-0.04-2.92-0.051-4.379
	c3.811-0.061,7.641-0.4,11.44,0.049c0.28,0.24,0.851,0.74,1.13,0.98c0.33,4.01,0.15,8.05,0.15,12.07
	c0.25,1.449-0.859,2.67-2.12,3.18c-5.09,2.5-11.22,3.221-16.61,1.23c-4.74-1.881-8.109-6.53-9.01-11.48
	C212.85,219.33,212.75,211.79,217.7,206.68z"/>
<path fill="#C22000" d="M248.59,202.7c1.34-0.05,2.68-0.101,4.02-0.16c0.041,1.74,0.08,3.479,0.15,5.22l-1.14-0.09
	c-1.07-0.09-2.13-0.189-3.19-0.29C248.48,205.82,248.529,204.26,248.59,202.7z"/>
<path fill="#E60C00" d="M278.46,201.13c0.899,0.19,2.69,0.57,3.59,0.761c0.511,11.93,0.431,23.92,0.36,35.869
	c-1,0.09-3,0.29-4,0.391C278.74,225.811,278.1,213.47,278.46,201.13z"/>
<path fill="#D30F16" d="M61.42,218.99c0.14-6.021,3.74-12.221,9.59-14.29c5.23-1.13,10.85-0.66,15.63,1.84
	c0.25,1.79,0.79,3.63,0.14,5.41c-2.88-1.271-5.45-3.55-8.73-3.65c-2.74-0.159-5.83-0.22-7.99,1.761
	c-4.56,3.859-4.98,10.449-4.32,15.97c0.66,4.84,4.03,9.95,9.25,10.45c4.63,0.72,8.57-2.131,12.35-4.33c0,1.729,0,3.47,0.01,5.22
	c-1.86,0.92-3.7,1.86-5.62,2.63H71.14c-3.12-1.25-6.12-3.27-7.62-6.38C61.16,229.141,61.2,223.92,61.42,218.99z"/>
<path fill="#EAA15B" d="M115.37,210.01c2.25,0.051,4.5,0.12,6.75,0.24c0.51,3.09,1.52,6.24,4.32,8c0.15-2.07,0.18-4.16,0.54-6.2
	c1.21-1.7,3.62-1.88,5.39-2.739c3.92,4.59,5.04,11.039,9.82,14.949c-0.9,2.95-1.91,5.86-2.91,8.78c-3-6.74-4.73-13.97-7.89-20.63
	c-0.91,0.09-2.71,0.279-3.61,0.38c2.86,8.71,5.89,17.37,9.2,25.92l0.44,1.28c-2.67-1.381-3.86-4.2-5.33-6.631
	c-1.6-4.959-1.71-11.579-6.78-14.409c-0.14,0.819-0.42,2.479-0.56,3.31c-1.4-3.939-3.36-7.91-6.93-10.31
	c-0.41-0.28-1.23-0.851-1.64-1.14L115.37,210.01z"/>
<path fill="#D31217" d="M105.46,215.47c2.08-2.659,5.39-3.81,8.65-4.11c1.24,0.131,2.47,0.371,3.71,0.591
	c3.57,2.399,5.53,6.37,6.93,10.31l0.27,0.75c-1.71,2.85-5.11,3.131-8.11,3.34c-3.57,0.181-7.15,0.07-10.73,0.15
	c0.34,3.05,1.32,6.391,4.22,7.96c4.16,2.69,8.98,0.021,12.97-1.64c0.04,1.46,0.08,2.93,0.12,4.399c-3.76,1.73-7.85,2.7-12.01,2.33
	c-4.15-1.649-8.19-4.79-8.81-9.51C102.17,225.12,101.85,219.38,105.46,215.47 M110.83,215.79c-2.84,1.12-4.01,4.24-4.66,6.99h0.5
	c3.14,2.479,8.55,2.14,11.71-0.13c0.34-0.01,1.03-0.041,1.38-0.061c-0.43-2.09-0.68-4.43-2.27-6.02
	C115.58,215.2,113.01,215.12,110.83,215.79z"/>
<path fill="#D81401" d="M162.79,212.28c3.06-0.761,6.76-0.69,8.92,1.95c3.39,3.06,3.101,7.91,2.99,12.069
	c-5.56,0.091-11.12,0.22-16.69,0.19c0.26,2.689,0.32,5.92,2.94,7.49c4.12,3.279,9.37,0.8,13.479-1.121
	c0.09,0.61,0.26,1.841,0.35,2.461c-0.119,0.51-0.35,1.539-0.469,2.06c-0.761,0.16-2.281,0.479-3.041,0.64
	c-2.039,0.48-3.99,1.24-5.939,1.98h-1.18c-1.03-0.391-2.03-0.8-3.021-1.25c-7.02-2.51-8.2-10.74-7.5-17.21
	c1.06-2.229,1.97-4.58,3.53-6.53C158.68,213.51,160.89,213.13,162.79,212.28 M157.97,222.73c4.26,0.129,8.53,0.149,12.78-0.141
	c-0.061-3.04-1.08-7.02-4.83-7.109C161.54,214.58,157.67,218.4,157.97,222.73z"/>
<path fill="#E20E02" d="M248.7,211.58c0.93,0.029,2.78,0.08,3.7,0.1c0.3,8.76,0.56,17.551,0.09,26.311
	c-0.93-0.061-2.79-0.16-3.721-0.21C248.689,229.04,248.689,220.311,248.7,211.58z"/>
<path fill="#E80C00" d="M260.5,211.23c2.471-0.17,3.62,1.699,4.561,3.64c1.209-1.03,2.41-2.08,3.649-3.09
	c1.479-0.08,2.96-0.13,4.45-0.16c0.17,1.021,0.35,2.04,0.529,3.06c-1.029,0.36-2.049,0.721-3.069,1.09
	c-2.14,0.681-4.101,1.78-6.04,2.881c-0.2,6.569,0.27,13.17-0.42,19.72c-0.82,0-2.471,0.01-3.301,0.01
	C260.08,229.359,260.49,220.27,260.5,211.23z"/>
<path fill="#C2360B" d="M273.16,211.62c0.5,0.03,1.5,0.09,2,0.12c0.04,1.47,0.07,2.939,0.09,4.41c-1.55-0.15-3.09-0.28-4.63-0.381
	c1.021-0.369,2.04-0.729,3.069-1.09C273.51,213.66,273.33,212.641,273.16,211.62z"/>
<path fill="#E20E02" d="M127.78,212.79c0.9-0.101,2.7-0.29,3.61-0.38c3.16,6.66,4.89,13.89,7.89,20.63c1-2.92,2.01-5.83,2.91-8.78
	c0.62-2.07,1.16-4.16,1.74-6.229c0.66-2.061,1.35-4.11,2.27-6.07c0.63,0.37,1.9,1.101,2.53,1.47c0.16,0.62,0.48,1.86,0.64,2.49
	c-1.34,5.391-5.28,10.33-4.8,16.04c-1.08,1.601-1.9,3.351-2.7,5.11c-0.28,0.369-0.84,1.109-1.12,1.479
	c-1.26,0.07-2.52,0.13-3.77,0.16C133.67,230.16,130.64,221.5,127.78,212.79z"/>
<path fill="#D61200" d="M181.6,239.71c-0.289-9.24-0.459-18.5-0.1-27.74c2.109,0.45,3.561,1.96,4.75,3.65
	c0.46,0.59,1.37,1.79,1.82,2.39c-0.85,0.6-1.7,1.221-2.53,1.85c-0.06,6.221-0.09,12.44,0,18.671
	C184.23,238.93,182.91,239.33,181.6,239.71z"/>
<path fill="#CB1700" d="M186.25,215.62c2.45-2.53,5.83-3.31,9.23-3.39c0.129,1.51,0.25,3.029,0.369,4.55
	c-2.609,0.25-5.27,0.409-7.779,1.229C187.62,217.41,186.71,216.21,186.25,215.62z"/>
<path fill="#FFF7F0" d="M110.83,215.79c2.18-0.67,4.75-0.59,6.66,0.78c1.59,1.59,1.84,3.93,2.27,6.02
	c-0.35,0.02-1.04,0.051-1.38,0.061c-3.9,0.149-7.81,0.119-11.71,0.13h-0.5C106.82,220.03,107.99,216.91,110.83,215.79z"/>
<path fill="#D6B767" d="M157.97,222.73c-0.3-4.33,3.57-8.15,7.95-7.25c3.75,0.09,4.77,4.069,4.83,7.109
	C166.5,222.88,162.23,222.859,157.97,222.73z"/>
<path fill="#CBC168" d="M266.51,220.48c1.77-4.061,6.84-2.801,10.34-2.99c0.07,5.65-0.18,11.3-0.27,16.949
	c-0.13,1.5,1.01,2.601,1.83,3.711l1.029,1.06c-0.479,0.2-1.449,0.59-1.939,0.79h-13.689c0.09-0.41,0.27-1.22,0.35-1.63
	c0.689-6.55,0.22-13.15,0.42-19.72c0.68,6.199,0.27,12.449,0.98,18.649C267.05,231.77,266.391,226.08,266.51,220.48z"/>
<path fill="#CEA85F" d="M125.31,218.95c5.07,2.83,5.18,9.45,6.78,14.409c-2.71-3.18-5.68-6.319-7.07-10.35l-0.27-0.75
	C124.89,221.43,125.17,219.77,125.31,218.95z"/>
<path fill="#CEBD67" d="M141.87,237.07c5.12-4.15,8.56-9.86,11.76-15.53c-0.7,6.47,0.48,14.7,7.5,17.21l0.97,0.67
	c-7.36,0.141-14.71-0.09-22.07,0.1l0.72-0.97C141.03,238.18,141.59,237.439,141.87,237.07z"/>
<path fill="#AD272D" d="M106.67,222.78c3.9-0.011,7.81,0.02,11.71-0.13C115.22,224.92,109.81,225.26,106.67,222.78z"/>
<path fill="#1C0500" d="M116.91,226.35c3-0.209,6.4-0.49,8.11-3.34c1.39,4.03,4.36,7.17,7.07,10.35c1.47,2.431,2.66,5.25,5.33,6.631
	l-0.44-1.28c1.25-0.03,2.51-0.09,3.77-0.16l-0.72,0.97c7.36-0.189,14.71,0.041,22.07-0.1l-0.97-0.67
	c0.99,0.45,1.99,0.859,3.021,1.25h-28.8c-4.4-4.18-7.35-9.641-11.36-14.18C121.62,225.84,119.27,226.22,116.91,226.35z"/>
<path fill="#FDF9F8" d="M106.18,226.5c3.58-0.08,7.16,0.03,10.73-0.15c2.36-0.13,4.71-0.51,7.08-0.529
	c4.01,4.539,6.96,10,11.36,14.18h-22.83l-1.04-0.45c4.16,0.37,8.25-0.6,12.01-2.33c-0.04-1.47-0.08-2.939-0.12-4.399
	c-3.99,1.66-8.81,4.33-12.97,1.64C107.5,232.891,106.52,229.55,106.18,226.5z"/>
<path fill="#CEC370" d="M176.471,232.359c0.539-0.029,1.609-0.09,2.149-0.119c0.21,1.81,0.42,3.619,0.63,5.43
	c0.59,0.51,1.76,1.53,2.35,2.04l-1.129,0.29h-4.73c-1.51-0.63-2.99-1.3-4.471-1.98c0.76-0.16,2.28-0.479,3.041-0.64
	c0.119-0.521,0.35-1.55,0.469-2.06C175.33,234.32,175.9,233.34,176.471,232.359z"/>
<path fill="#B12325" d="M92.49,239.08c1.44-2.07,2.81-4.21,3.9-6.48c0.05,2.181,0.04,4.36-0.01,6.541
	C95.41,239.13,93.46,239.1,92.49,239.08z"/>
<path fill="#AC4428" d="M165.33,240c1.949-0.74,3.9-1.5,5.939-1.98c1.48,0.681,2.961,1.351,4.471,1.98H165.33z"/>
<path fill="#F5AB7B" d="M260.859,238.38c0.83,0,2.48-0.01,3.301-0.01c-0.08,0.41-0.26,1.22-0.35,1.63h-2.551
	C261.16,239.59,260.96,238.78,260.859,238.38z"/>
<path fill="#6A5D25" d="M277.5,240c0.49-0.2,1.46-0.59,1.939-0.79c1.431-0.101,2.86-0.17,4.291-0.2
	c13.76-0.01,27.51-0.029,41.27,0.01V240H277.5z"/>
</svg>
