<?xml version="1.0" encoding="utf-8"?>
<!-- Generator: Adobe Illustrator 15.0.2, SVG Export Plug-In . SVG Version: 6.00 Build 0)  -->
<!DOCTYPE svg PUBLIC "-//W3C//DTD SVG 1.1//EN" "http://www.w3.org/Graphics/SVG/1.1/DTD/svg11.dtd">
<svg version="1.1" id="Layer_1" xmlns="http://www.w3.org/2000/svg" xmlns:xlink="http://www.w3.org/1999/xlink" x="0px" y="0px"
	 width="271px" height="219px" viewBox="0 0 271 219" enable-background="new 0 0 271 219" xml:space="preserve">
<path fill="#FFFFFF" d="M0,0h136.85c-2.3,1.19-4.959,0.99-7.419,1.59c-1.33,0.35-2.67,0.69-3.98,1.1c-0.48,0.16-1.43,0.47-1.91,0.62
	c-1.67,0.49-3.36,0.86-5.04,1.32c-1.02,0.36-2.03,0.74-3.04,1.13c-0.48,0.12-1.44,0.36-1.92,0.48c-1.01,0.39-2.02,0.75-3.04,1.1
	c-1,0.35-2,0.69-3.01,1.02c-1.03,0.31-2.06,0.61-3.1,0.88c-0.95,0.53-1.9,1.06-2.85,1.59c-0.48,0.12-1.43,0.37-1.9,0.49
	c-1.73,0.82-3.62,0.83-5.32-0.05c-1.22-0.19-2.44-0.37-3.65-0.56c-2.42-0.67-4.94-0.76-7.36-1.41c-2.03-0.27-4.13-0.32-6.05-1.13
	c-5.91-0.1-11.92-0.68-17.77,0.35c-0.99,0.39-1.98,0.79-2.97,1.19c-1,0.29-1.99,0.59-2.98,0.9c-2.37,1.3-4.61,2.82-7.01,4.05
	c-3.58,2.34-6.07,6.03-9.98,7.94c-3.67,3.04-8.08,5.09-11.34,8.63c-3.18,3.19-7.79,4.91-10,9.02c-1.55,2.5-3.52,4.7-5.17,7.13
	c-0.03,0.51-0.09,1.52-0.13,2.02c-1.68,2.23-3.01,4.68-4.27,7.17c-0.44,1.28-0.84,2.58-1.29,3.86c-0.27,0.5-0.82,1.49-1.1,1.99
	c-0.28,1.03-0.58,2.05-0.9,3.07c-0.33,1-0.66,2-1.01,3c-0.43,1.15-0.88,2.3-1.34,3.45V0z"/>
<path d="M136.85,0h11.11c2.14,0.78,4.39,1.1,6.59,1.67c1.32,0.29,2.64,0.58,3.95,0.92c1.02,0.39,2.04,0.79,3.05,1.21
	c0.5,0.08,1.479,0.25,1.979,0.34c0.5,0.3,1.511,0.9,2.021,1.2c1.33,0.48,2.671,0.93,3.99,1.44c0.5,0.1,1.489,0.28,1.979,0.37
	c0.51,0.29,1.53,0.86,2.041,1.15c0.51,0.25,1.51,0.77,2.01,1.02c0.959,0.39,1.93,0.78,2.9,1.16c1.389,0.42,2.859,0.57,4.189-0.18
	c0.91-0.19,1.82-0.39,2.73-0.58c1.34-0.41,2.689-0.75,4.049-1.09c2.041-0.5,4.131-0.77,6.16-1.31c0.92-0.22,1.84-0.44,2.76-0.66
	c5.57-1.39,11.41-0.39,17.091-0.61c0.53,0.31,1.59,0.94,2.13,1.25c0.939,0.48,1.891,0.97,2.83,1.46c0.54,0.21,1.6,0.63,2.13,0.84
	c1.7,1.23,3.25,2.64,4.851,4c3.029,1.89,5.319,4.68,7.85,7.14c2.76,2.86,5.859,5.43,8.14,8.72c0.42,0.99,0.86,1.98,1.3,2.97
	c0.271,0.5,0.801,1.5,1.07,2c0.27,1,0.54,2,0.84,2.99c0.301,0.51,0.91,1.52,1.221,2.02c0.189,1.79,0.279,3.62,1.02,5.29
	c0.199,2.97,0.51,6.05-0.49,8.91c-0.29,1.62-0.54,3.25-0.91,4.85c-0.359,1.01-0.729,2.02-1.1,3.03c-0.35,1.74-0.859,3.45-1.551,5.09
	c-0.399,0.96-0.779,1.92-1.139,2.89c-0.341,1-0.67,2-0.99,3.01c-0.32,1.021-0.621,2.05-0.9,3.08c-0.279,0.5-0.859,1.49-1.141,1.98
	c-0.31,0.99-0.6,1.99-0.879,2.99c-0.75,2.04-1.53,4.07-2.53,6.01c-0.08,0.5-0.24,1.49-0.33,1.98c-0.58,0.97-1.16,1.93-1.74,2.9
	c-0.09,0.49-0.25,1.47-0.33,1.96c-1.88,2.21-1.26,4.77-0.079,7.14c0.129,0.48,0.389,1.43,0.51,1.91c0.399,1.01,0.789,2.02,1.17,3.04
	c0.31,1.18,0.6,2.36,0.869,3.55c1.99-0.04,4-0.09,6-0.21c3.25-1.38,7.08-1.17,10.41-0.13c1.99,0.25,4,0.41,5.961,0.92
	c1.659,0.32,3.34,0.601,4.969,1.06c0.931,0.19,1.861,0.391,2.801,0.58c1.18,0.381,2.38,0.721,3.59,1.041v1.049
	c-1.189-0.329-2.37-0.67-3.54-1.02c-1.351-0.33-2.7-0.63-4.021-1.04c-3.709-0.81-7.56-1.02-11.18-2.15
	c-2.5-0.18-5.01-0.18-7.51-0.02c-2.08,1.13-4.5,0.82-6.77,0.96c0.02,0.54,0.039,1.63,0.06,2.17c1.601-0.279,3.271-0.43,4.739-1.199
	c1.681-0.021,3.421-0.061,4.961,0.75c2.63,0.189,5.33,0.049,7.9,0.819c1.67,0.32,3.359,0.61,5.01,1.09
	c0.59,0.101,1.77,0.311,2.369,0.41l-0.1,1.17c-1.18-0.31-2.35-0.64-3.52-1c-1.73-0.29-3.49-0.479-5.131-1.11
	c-2.18-0.159-4.359-0.22-6.539-0.369c-1.541-0.83-3.291-0.771-4.971-0.78c-1.3,0.53-2.619,0.99-3.96,1.399
	c0.5,1.17,1.011,2.341,1.49,3.53l0.71,0.05c0,1.32,0,2.65,0,3.98c3.01,0.02,6.04-0.189,9.04,0.17c3.39,0.891,6.47,2.57,9.569,4.16
	c0.601,0.25,1.811,0.74,2.42,0.99l-0.139,1.039c-1.44-0.649-2.871-1.329-4.301-2c-2.74-1.079-5.33-2.6-8.24-3.239
	c-2.529-0.25-5.08-0.13-7.619-0.11c0.5,1.33,1.029,2.65,1.539,3.99c3.07-0.01,6.201-0.23,9.211,0.52
	c0.99,0.371,1.97,0.74,2.959,1.121c0.5,0.31,1.521,0.93,2.021,1.239c0.511,0.06,1.53,0.19,2.03,0.25c1.35,0.761,2.71,1.49,4.08,2.21
	c0.619,0.24,1.85,0.73,2.459,0.971l-0.129,1c-0.58-0.24-1.75-0.721-2.34-0.961c-0.49-0.289-1.471-0.85-1.961-1.14
	c-2.369-0.93-4.76-1.8-7.07-2.851c-1.069-0.39-2.129-0.81-3.17-1.25c-2.909-0.129-5.819-0.119-8.729-0.119
	c0.681,0.76,1.36,1.529,2.03,2.31c-0.27,1.75,0.35,3.46,0.65,5.16c0.469,1.61,0.739,3.26,1.06,4.899c0.8,2.74,0.33,5.721,1.46,8.381
	c0.04,4.96,0.85,10.109-0.53,14.949c-0.26,1.971-0.43,3.951-0.899,5.881c-0.34,1.31-0.65,2.619-1.01,3.92
	c-0.381,1.02-0.761,2.04-1.16,3.05c-0.121,0.479-0.36,1.44-0.49,1.92c-0.37,1.021-0.711,2.05-1.04,3.09
	c-0.24,0.521-0.71,1.54-0.95,2.06c-0.54,0.961-1.08,1.91-1.62,2.871c-0.069,0.51-0.19,1.52-0.25,2.029
	c-0.3,0.521-0.899,1.551-1.2,2.061c-0.65,1.34-1.31,2.68-1.949,4.029c-0.49,0.931-0.98,1.87-1.461,2.811
	c-0.52,1.06-1.049,2.109-1.56,3.18c-0.229,0.51-0.7,1.54-0.931,2.051c-1,1.67-2.09,3.289-3.139,4.92
	c-0.211,0.529-0.611,1.58-0.82,2.109c-0.93,1.49-1.95,2.92-3.01,4.32c-0.551,0.04-1.65,0.119-2.201,0.17
	c-1.039,0.42-2.069,0.83-3.109,1.22c-1.68,0.45-3.38,0.81-5.04,1.31c-0.479,0.15-1.431,0.461-1.91,0.621
	c-1.319,0.409-2.659,0.739-3.979,1.1c-2.471,0.6-5.12,0.4-7.42,1.59h-21.09c-3.36-1.82-7.36-0.23-10.781-1.79
	c-1.85-0.16-3.709-0.26-5.559-0.42c-2.521-1.08-5.32-0.74-7.98-0.979c-1.961-0.91-4.15-0.811-6.25-0.951
	c-0.961-0.539-1.91-1.079-2.87-1.619c-0.521-0.221-1.56-0.67-2.08-0.891c-1.37-0.88-2.71-1.81-4.08-2.68
	c-1.64-0.779-3.271-1.561-4.899-2.35c-1.65-1.03-3.261-2.11-4.931-3.101c-0.51-0.229-1.54-0.689-2.05-0.93
	c-0.51-0.229-1.52-0.71-2.03-0.95c-1.38-0.87-2.72-1.81-4.09-2.67c-0.97-0.45-1.93-0.89-2.89-1.34c-1.39-0.86-2.74-1.78-4.15-2.61
	c-1.98-1.1-3.86-2.34-5.85-3.43c-1.04-0.62-2.05-1.29-3.05-1.96c-1.36-0.87-2.69-1.79-4.05-2.65c-0.99-0.689-1.97-1.38-2.98-2.029
	c-1.03-0.681-2.07-1.351-3.13-1.971c-1.24-1.109-2.47-2.22-3.73-3.3c-5.37-3.85-9.63-9.05-14.27-13.72
	c-0.89-1.45-1.96-2.79-3.02-4.11c-0.88-1.38-1.82-2.729-2.71-4.1c-0.2-0.53-0.61-1.591-0.81-2.12c-0.85-1.35-1.75-2.66-2.72-3.92
	c-0.05-0.48-0.16-1.44-0.22-1.92c-0.55-0.96-1.09-1.92-1.63-2.881c-0.24-0.51-0.71-1.52-0.95-2.029c-0.25-0.5-0.76-1.51-1.01-2.01
	c-0.32-0.99-0.65-1.98-1.01-2.971c-0.72-1.66-1.36-3.359-1.99-5.06c-0.31-0.99-0.65-1.979-1-2.95c-0.75-1.68-1.4-3.39-2.08-5.1
	c-0.13-0.48-0.37-1.45-0.49-1.93c-0.37-1.181-0.71-2.371-1.02-3.561l-0.69-0.01c-0.01,2.229,0.11,4.529-0.7,6.66
	c-0.1,0.5-0.3,1.51-0.41,2.01c-1.21,1.93-2.68,3.68-4.21,5.359C49.6,136,46.51,136,43.42,136c-1.68-1.141-3.29-2.359-4.85-3.65
	c-1.03-0.649-2.04-1.34-3.04-2.039c-1.39-0.86-2.75-1.791-4.16-2.621c-0.92-0.789-1.82-1.59-2.74-2.39
	c-1.42-0.83-2.79-1.76-4.2-2.62c-1.3-1.07-2.62-2.14-4.05-3.05c-1.26-1.08-2.5-2.18-3.76-3.25c-4.35-2.89-7.63-7.07-11.32-10.7
	c-1-1.74-2.12-3.42-3.18-5.12c-0.08-0.5-0.25-1.5-0.33-2C1.18,96.77,0.72,94.94,0,93.19V71.94c0.46-1.15,0.91-2.3,1.34-3.45
	c0.35-1,0.68-2,1.01-3c0.32-1.021,0.62-2.04,0.9-3.07c0.28-0.5,0.83-1.49,1.1-1.99c0.45-1.28,0.85-2.58,1.29-3.86
	c1.26-2.49,2.59-4.94,4.27-7.17c0.04-0.5,0.1-1.51,0.13-2.02c1.65-2.43,3.62-4.63,5.17-7.13c2.21-4.11,6.82-5.83,10-9.02
	c3.26-3.54,7.67-5.59,11.34-8.63c3.91-1.91,6.4-5.6,9.98-7.94c2.4-1.23,4.64-2.75,7.01-4.05c0.99-0.31,1.98-0.61,2.98-0.9
	c0.99-0.4,1.98-0.8,2.97-1.19c5.85-1.03,11.86-0.45,17.77-0.35c1.92,0.81,4.02,0.86,6.05,1.13c2.42,0.65,4.94,0.74,7.36,1.41
	c1.21,0.19,2.43,0.37,3.65,0.56c1.7,0.88,3.59,0.87,5.32,0.05c0.47-0.12,1.42-0.37,1.9-0.49c0.95-0.53,1.9-1.06,2.85-1.59
	c1.04-0.271,2.07-0.57,3.1-0.88c1.01-0.33,2.01-0.67,3.01-1.02c1.02-0.35,2.03-0.71,3.04-1.1c0.48-0.12,1.44-0.36,1.92-0.48
	c1.01-0.39,2.02-0.77,3.04-1.13c1.68-0.46,3.37-0.83,5.04-1.32c0.48-0.15,1.43-0.46,1.91-0.62c1.31-0.41,2.65-0.75,3.98-1.1
	C131.89,0.99,134.55,1.19,136.85,0 M136.439,5.89c-1.54,0.09-3.069,0.17-4.6,0.23c1.13,1.21,2.26,2.42,3.36,3.66
	c-0.53-0.09-1.58-0.271-2.11-0.36c-0.88-1.93-2.81-2.38-4.76-2.53l-0.19-0.22c-1.96,1.01-3.93,2.01-5.83,3.16
	c-0.36-0.23-1.08-0.67-1.44-0.89c-1.39,0.78-2.92,1.24-4.38,1.87c-0.49,0.1-1.48,0.3-1.97,0.4c-1.31,0.56-2.66,0.98-3.98,1.48
	c-1.05,0.3-2.08,0.67-3.09,1.09c-0.48,0.11-1.43,0.32-1.91,0.43c-0.99,0.43-2.01,0.81-3.04,1.14c-1,0.34-2,0.67-3,0.97
	c-1.55,0.93-3.69,1.14-5.07-0.21c-1.99-0.28-4.33,0.44-6-1c-1.29-0.08-2.58-0.14-3.86-0.22c-1.67-1.45-4-0.71-6-1
	c-0.39-0.21-1.16-0.63-1.55-0.84c-4.98-0.1-9.98-0.1-14.97,0c-0.4,0.19-1.2,0.57-1.6,0.76c-0.48,0.1-1.46,0.28-1.94,0.37
	c-2.5,0.78-4.64,2.23-6.88,3.51c-3.85,2.39-7.81,4.71-10.94,8.03c-9.47,7.42-20.35,13.84-26.46,24.61c-0.48,1.11-1,2.2-1.5,3.3
	c-0.26,0.49-0.77,1.48-1.03,1.98c-0.26,0.49-0.78,1.49-1.04,1.99c-0.47,1.25-0.87,2.53-1.37,3.78c-0.79,1.64-1.38,3.36-1.97,5.08
	c-0.3,1.05-0.67,2.08-1.11,3.09c-0.1,0.47-0.3,1.42-0.4,1.9c-0.19,0.4-0.57,1.2-0.76,1.6C4.88,78.36,5.08,83.68,4.98,89
	c0.06,1.84-0.26,3.81,0.68,5.5c0.32,1,0.65,2,1,2.99c0.92,3.51,3.54,6.28,6.08,8.77c9.19,9.86,21.34,16.19,31.75,24.57
	c2.92,0.311,6.79,1.13,8.01-2.35c1.01-3.74,0.29-7.681,0.52-11.5c-0.16-1.86,0.51-4.021-0.91-5.551c-0.29-2,0.45-4.33-1-6
	c-0.26-2,0.39-4.28-0.96-5.99c-0.25-1.68,0.21-3.63-1.04-5.01c-0.08-1.29-0.14-2.58-0.22-3.86c-1.67-2.02-0.29-4.86-1.51-7.08
	c-1.37-4.13-4.65-7.29-6.73-11.07c-0.24-0.51-0.72-1.52-0.97-2.02c-0.81-1.58-1.54-3.2-2.05-4.9c-1-2.82-1.06-6.2,0.03-9
	c0.32-1,0.65-1.99,1-2.98c0.44-1.41,0.99-2.79,1.56-4.16c0.28-0.49,0.84-1.47,1.12-1.95c0.22-0.52,0.68-1.55,0.9-2.06
	c0.97-1.41,1.5-4.1,3.76-3.36c2.2,0.16,2.5,2.92,1.39,4.45c-0.28,0.48-0.83,1.45-1.11,1.93c-0.52,1.09-1.06,2.17-1.6,3.25
	c-0.51,1.29-0.93,2.62-1.47,3.9c-0.1,0.49-0.3,1.45-0.4,1.94c-1.7,3.07-1.03,7.08,0.89,9.93c0.24,0.51,0.71,1.52,0.94,2.03
	c2.65,4.08,5.35,8.12,8.14,12.1c0.31,1.28,0.24,2.61,0.4,3.92c0.89,1.58,0.77,3.5,1.6,5.11c0.11,0.48,0.33,1.42,0.44,1.9
	c0.79,1.61,0.8,3.45,1.52,5.09c0.27,1.36,0.26,2.82,1.06,4.01c0.11,0.48,0.31,1.43,0.41,1.91c0.42,0.99,0.81,2.01,1.16,3.04
	c0.5,1.65,0.77,3.35,1.26,5.01c0.35,1.021,0.74,2.03,1.16,3.03c0.11,0.479,0.32,1.43,0.42,1.91c0.84,1.6,0.74,3.489,1.58,5.1
	c0.1,0.48,0.32,1.431,0.42,1.91c0.43,0.99,0.81,2.01,1.14,3.04c0.34,1.01,0.66,2.02,0.95,3.05c0.5,1.261,0.9,2.57,1.42,3.83
	c0.75,1.63,1.35,3.32,2.01,4.99c0.75,1.63,1.34,3.319,1.94,5.01c0.55,1.08,1.11,2.15,1.66,3.24c0.56,2.2,1.73,4.12,3.02,5.97
	c0.43,0.94,0.87,1.88,1.3,2.83c8.61,14.12,22.01,24.42,35.97,32.88c1.74,0.89,3.32,2.04,5.01,2.99c1.73,0.899,3.31,2.04,4.97,3.03
	c2.76,1.18,5.21,2.89,7.75,4.439c0.51,0.23,1.54,0.69,2.05,0.91c0.5,0.27,1.49,0.79,1.99,1.05c0.51,0.23,1.53,0.7,2.04,0.931
	c1.41,0.859,2.74,1.84,4.16,2.689c0.93,0.44,1.87,0.891,2.801,1.34c2.229,0.98,4.239,2.34,6.189,3.79
	c1.561,0.53,3.23,0.54,4.859,0.7c2.34,1.58,5.34,0.53,7.98,0.9c2.63,2.21,6.52-0.28,9.27,1.779c1.99,0.01,3.99-0.09,5.961-0.41
	c-1.211-0.59-2.53-0.89-3.82-1.229c-1.721-0.7-3.43-1.399-5.16-2.03c-0.83-0.47-1.66-0.939-2.49-1.41
	c-0.479-0.27-1.459-0.819-1.949-1.09c-1.03-0.619-2.051-1.27-3.061-1.92c-2.72-1.91-5.359-3.91-8.04-5.859
	c-3-2.431-5.92-5.08-8.03-8.33l-0.34,0.02c-0.279-0.359-0.84-1.08-1.119-1.43c-1.531-1.83-3.301-3.471-4.48-5.57l-0.391-0.18
	c-0.799-1.58-1.74-3.08-2.789-4.49c-0.08-0.4-0.24-1.2-0.33-1.59c0.34,0.09,1,0.29,1.33,0.38c0.67,1.431,1.439,2.82,2.31,4.149
	c0.479,0.891,0.95,1.781,1.42,2.681l0.8-0.12l0.01,0.84c1.881,1.93,3.75,3.881,5.391,6.021l0.35,0.189
	c0.29,0.341,0.87,1.021,1.16,1.36l0.04,0.49c2.569,2.539,5.44,4.74,8.37,6.85c2.79,1.95,5.42,4.16,8.48,5.689l0.219,0.83
	c0.451-0.08,1.361-0.25,1.82-0.33l0.08,1.23l0.76,0.02c1.201,0.591,2.41,1.171,3.621,1.74c2.619,0.94,5.26,1.851,7.92,2.69
	l1.209,1.05l-2.719-0.72l1.049,1.58c7.57,0.149,15.15-0.011,22.73,0.05v-0.77c1.87-0.471,4.18,0.1,5.66-1.42
	c1.22,0.39,2.279,0.25,3.18-0.41l-0.01-0.271l-0.68-0.45c-6.311,0.98-13.021,1.561-19.101-0.869c-1.18-0.17-2.35-0.33-3.53-0.471
	l0.03-0.62c-3.12,0.08-5.89-1.3-8.67-2.479c-2.271-0.78-4.54-1.53-6.8-2.311c-3.85-2.289-7.87-4.279-11.95-6.119
	c-1.44-0.681-2.83-1.461-4.14-2.351c0.59,0.06,1.77,0.2,2.369,0.26c5.66,2.561,11.111,5.55,16.721,8.22
	c2.13,0.53,4.24,1.141,6.359,1.74l-0.029,0.601c1.189,0.14,2.38,0.3,3.58,0.479c1.21,0.57,2.46,1.1,3.72,1.6
	c1.74,0.141,3.5,0.36,5.19,0.86c6.459,0.48,14.26,3.25,19.59-1.899c5.279-5.32,8.06-12.851,8.82-20.211
	c0.399-1.069,0.789-2.14,1.189-3.209c0.15,0.8,0.45,2.39,0.609,3.189c-0.159,0.48-0.459,1.42-0.619,1.9l-0.881-0.57
	c-0.069,2.141,0.07,4.32,1.57,5.99c-2.16,3.109-3.83,6.54-6.209,9.5c-1.73,2.439-3.941,4.439-6.25,6.23
	c-0.091,1.549,3.119,1.01,3.829-0.031c0.53-0.039,1.601-0.109,2.13-0.14c2.95-2.36,4.34-5.979,6.541-8.95
	c1.35-3.129,2.68-6.279,3.539-9.58l0.68,0.11c0.031-1.38,0.07-2.76,0.11-4.13l0.96,0.26c0.03-2.609-0.01-5.26,0.62-7.81
	c0.44,2.95,0.5,6-0.271,8.899c-0.489,1.53-1.039,3.03-1.6,4.541c-0.81,2.6-1.82,5.119-3.029,7.56c1.14-1.09,2.819-1.96,2.819-3.771
	l0.61-0.189c0.91-2.15,1.96-4.24,3.1-6.28c0.721-1.64,1.301-3.34,1.9-5.03c0.26-0.5,0.779-1.49,1.04-1.99
	c0.26-0.5,0.771-1.5,1.021-2c0.219-0.51,0.67-1.529,0.889-2.039c-0.08-1.48,2.291-3.641-0.01-4.351c0.26,2.421-0.8,5.12-3.779,4.32
	c-1.9-1.72-3.83-3.47-6.141-4.62c0.44-0.311,1.33-0.91,1.771-1.21l0.56,0.34c-0.41-2.1-1.039-4.149-1.74-6.17
	c-0.6-1.3-1.199-2.6-1.789-3.899c-0.351,0-1.041,0-1.391,0c-0.14,0.709-0.42,2.14-0.57,2.85c-0.609-2.16-1.039-4.51-2.74-6.13
	c-0.149-0.54-0.439-1.64-0.579-2.181c-1.8-2.369-4.36-1.239-6.31,0.271c-0.44-0.16-1.32-0.49-1.761-0.649
	c-0.92-2.24-2.63-4.5-5.17-4.881c-0.28,1.141-0.56,2.28-0.851,3.42c-2.139,2.78-2.459,6.29-2.459,9.68c-1.25-0.5-3.07-0.09-3.9-1.31
	c0.77-0.12,2.3-0.36,3.061-0.479c-0.44-2.561-0.75-5.221-1.86-7.601c-1.271-2.189-4.29-0.93-6.351-1.27
	c-0.82,0.75-1.649,1.5-2.47,2.26c-0.351-2.37-0.47-4.78-1.101-7.101c-1.439-1.35-3.639-1.159-5.449-1.449
	c-2.391-0.4-4.82,0-7.2,0.25c0.011,0.71,0.021,2.12,0.03,2.82c-0.25,0.34-0.75,1.02-0.99,1.359c-0.25,2.54-0.641,5.07-0.82,7.63
	c4.99-0.14,9.961,0.22,14.84,1.351c-0.08-0.78-0.239-2.36-0.319-3.141c0.7,1.25,1.409,2.5,2.149,3.74c1.631,0.1,3.26,0.18,4.9,0.24
	c0.18,0.35,0.54,1.06,0.721,1.42c-4.08,0.24-8.381-1.471-12.621-1.23c-10.43-0.68-20.91-0.38-31.369-0.479
	c-5.82-0.09-11.28,2.239-16.851,3.62c-1.771,0.56-3.51,1.22-5.25,1.88c-0.27,0.521-0.82,1.569-1.09,2.09
	c-0.02,1.38-0.03,2.771-0.04,4.149c-1.27-0.6-2.53-1.209-3.79-1.829c-0.36-1.04-0.74-2.07-1.14-3.091
	c-0.56-1.659-1.13-3.319-1.3-5.06c1.93-3.229,0.61-8.11,4.19-10.5c0.22,2.5,0.28,5.08-0.76,7.431c-0.05,0.699-0.15,2.109-0.2,2.81
	c1.05-0.229,2.09-0.47,3.14-0.7c-0.06,0.43-0.19,1.29-0.25,1.721c0.45-0.091,1.35-0.281,1.8-0.371
	c-0.14-4.209-0.16-8.43,0.28-12.629c2.049-3.701,3.42-7.801,5.889-11.24c0.621-0.03,1.881-0.11,2.5-0.141
	c-0.819,0.48-1.639,0.95-2.479,1.4l0.021,0.79c-1.6,2.51-2.16,5.51-2.26,8.45c0.549-1.01,1.069-2.051,1.59-3.08
	c5.32-5.24,11.189-10.051,18.129-12.98c1.33-0.63,2.671-1.25,4.011-1.85c1-0.4,2.01-0.79,3.03-1.17c2.729-0.83,5.76-2.76,8.07-0.101
	c-1.051,0.21-3.16,0.63-4.211,0.841c1.69,1.799,3.391,4.77,6.33,3.729c0.141-1.64,0.26-3.271,0.381-4.91
	c-1.48,0.05-2.611-0.92-3.771-1.66c2.45-0.439,4.92-0.729,7.399-0.97c-1.24-0.55-2.5-1.08-3.68-1.74
	c-1.619-0.779-3.32-1.34-5.029-1.88c-1.271-0.69-2.281-1.93-3.67-2.34c-3.111,0.34-5.701,2.271-8.4,3.68l0.1,0.83l-0.83-0.08
	c-0.21,0.38-0.64,1.13-0.85,1.511c-0.74,0.649-1.471,1.31-2.2,1.979c-0.12,0.88-0.36,2.63-0.479,3.5
	c-0.621-1.18-0.69-2.51-0.791-3.81c2.021-2.08,3.91-4.301,6.261-6.021c1.45-0.59,2.97-1.1,4.25-2.03
	c-0.65-0.47-1.95-1.42-2.601-1.899c-2.34-0.931-3.859-3.091-6.16-4.06c-0.75-1.621-1.68-3.36-1.09-5.201
	c2.021-2.129,4.061-4.27,6.291-6.189c1.389-0.34,2.93-0.25,4.18-1.08c1.67-0.28,3.65,0.22,5.01-1.09c2.311-0.35,5.05,0.65,7-1.01
	c3.939,0.33,8.41-1.12,11.99,0.82c2,0.27,4.289-0.42,5.99,0.97c0.959,0.09,1.92,0.18,2.879,0.28c2.351,1.72,5.451,0.4,8.121,0.98
	c1.859,1.69,3.64,3.47,5.34,5.33c1.47,4.37-3.811,5.81-6.48,7.909c-0.51,0.221-1.54,0.65-2.061,0.871
	c-0.569,1.119-1.219,2.18-1.969,3.189c1.699,0.11,3.25,0.8,4.81,1.391c1.39,1.01,2.79,2.01,4.2,2.979l0.24,0.45
	c1.539,1.05,3.08,2.119,4.649,3.14c-0.899,0.12-1.8,0.229-2.7,0.34l-0.1-0.899c-2.27-1.51-4.471-3.131-6.551-4.891
	c-0.959-0.42-1.91-0.85-2.85-1.289c-0.85-0.16-1.689-0.311-2.529-0.471c-0.98,0.53-1.951,1.061-2.931,1.6
	c-1.739,0.721-3.54,1.33-5.239,2.141c-0.461,0.109-1.391,0.32-1.861,0.42c-1.17,0.51-2.359,0.95-3.549,1.4
	c8.35-1.631,17.24,0.85,23.629,6.42c6.091,4.76,10.33,11.33,14.57,17.68c0.771,1.89,1.53,3.79,2.41,5.63
	c-0.029-1.28-0.07-2.56-0.13-3.84l-0.81-0.08c-0.18-1.16-0.381-2.31-0.61-3.45c-1.37-2.46-2.59-5.01-3.771-7.57l-0.51-0.029
	c-0.76-1.16-1.539-2.32-2.32-3.46c0.07-0.45,0.201-1.36,0.271-1.811c0.53,0.8,1.05,1.601,1.59,2.41c0.66,0.96,1.33,1.92,2,2.88
	c0.8,1.59,1.63,3.16,2.45,4.74c0.51,1.15,1.01,2.311,1.55,3.46c1.88,3.979,2.3,8.38,3.33,12.61c0.601,1.52,1.181,3.05,1.841,4.55
	c0.029,0.54,0.1,1.63,0.129,2.17c0.58,1.31,1.11,2.649,1.61,4c0.17-0.5,0.521-1.49,0.69-1.979c1.39-2.371,0.369-5.131,0.529-7.69
	c1.791,2.39,0.881,5.62,1.471,8.37c1.189-1.021,2-2.311,2.41-3.85c0.539,1.109,1.1,2.219,1.68,3.319
	c-0.29-1.05-0.881-3.14-1.17-4.19l2.16,1.25c0.02-1.229,0.049-2.459,0.1-3.689c1.3-1.36,0.8-3.34,1.07-5.02
	c0.199-0.391,0.6-1.17,0.8-1.561c0.11-4.33,0.11-8.67,0-12.99c-0.21-0.4-0.63-1.189-0.841-1.58c-0.26-2,0.391-4.279-0.959-5.99
	c-0.19-1.68,0.09-3.5-0.92-4.979c-0.28-1.37-0.121-2.92-1.141-4.04c-0.05-1.17-0.1-2.35-0.14-3.52c-1.53,0.119-3.16-0.09-4.49,0.869
	c-1.54,0.2-3.22,0.2-4.319,1.49c-1.351,1.971-2.781-1.22-4.5-0.38c-1.051,0.82-2.631,3.41-3.951,1.431
	c-2.459-1.67,1.91-5.25,3.11-2.08c0.921-0.551,1.81-1.141,2.74-1.681c3.479-1.13,7.229-0.3,10.83-0.6
	c-0.31-0.62-0.94-1.87-1.25-2.49c-0.05-0.62-0.13-1.851-0.181-2.46c-3.459,0.01-6.92-0.04-10.369,0.061
	c-1.43,2.629-5.2-0.841-2.881-2.371c2.061-2.209,3.791,2.541,6.44,1.511c-2.61-1.761,0.21-6.05,2.431-3.28
	c0.66,0.02,1.979,0.07,2.64,0.09c-0.12-1.479-0.4-2.949-1.45-4.08c-1.96,1.08-4.34,0.79-6.29,1.87c-0.479,0.101-1.44,0.28-1.91,0.38
	c-1.149,0.95-2.68,0.76-4.04,1.03c-2.3,0.351-4.029,2.47-6.13,2.74c-3.37-1.17,0.271-6.04,2.2-2.95c1.37-0.05,2.88,0.23,3.96-0.859
	c0.97-0.101,1.94-0.201,2.92-0.291c0.97-0.5,1.99-0.899,3.04-1.229c2.41-0.53,4.84-0.979,7.01-2.24
	c-1.859-1.069-4.06-0.26-6.06-0.35c-0.99,0.46-2.011,0.88-3,1.319c-1.681,1.99-4.97-1.17-2.761-2.649
	c1.371-1.92,2.9,0.11,3.511,1.53c0.42-0.42,0.84-0.851,1.26-1.291c2.21,0.371,4.53,0.23,5.97-1.689l-1.22-0.35
	c-0.649-1.78-1.25-3.57-1.89-5.36c-0.301-1.02-0.631-2.03-0.98-3.02c-0.32-0.99-0.67-1.96-1.04-2.91
	c-0.659-1.35-1.25-2.72-1.63-4.17c-0.48-1.27-0.87-2.56-1.38-3.82c-0.79-1.64-1.38-3.36-1.979-5.07
	c-0.301-0.99-0.641-1.98-1.011-2.95c-0.659-1.34-1.25-2.71-1.62-4.15c-0.479-1.27-0.88-2.57-1.39-3.82
	c-0.649-1.36-1.22-2.74-1.61-4.19c-0.729-2.01-1.47-4.02-2.49-5.91c-0.129-0.49-0.399-1.47-0.529-1.96
	c-1.92-6.52-5.551-12.36-9.381-17.92c-5.52-7.66-11.84-14.8-19-20.98c-3.5-2.93-7.199-5.77-11.449-7.51
	c-3.859-0.17-7.91,0.49-10.45,3.67c0.271-0.93,0.55-1.86,0.851-2.78c0.08-0.66,0.25-1.97,0.34-2.63c1.959,0.12,3.93,0.21,5.91,0.27
	c-1.16-0.52-2.351-0.97-3.541-1.43c-3.51-1.41-7.27-2.03-10.81-3.35c-3.94-0.7-7.71-2.18-11.71-2.46l0.13-0.88
	C142.561,5.45,139.07,3.94,136.439,5.89 M208.43,10.25c-2.32,1.47-5.27,0.46-7.85,0.82c-1.7,1.62-4.38,0.28-6.15,1.78
	c-0.959,0.1-1.91,0.2-2.859,0.3c-1.18,0.95-2.711,0.82-4.11,1.01c-0.569,0.36-1.71,1.06-2.28,1.41
	c7.68,4.93,13.24,12.25,19.66,18.59c2.18,3.72,5.641,6.73,6.92,10.94c2.5,4.85,5.18,9.61,7.57,14.52c0.6,1.69,1.189,3.38,1.949,5
	c0.511,1.26,0.921,2.56,1.4,3.83c0.301,1,0.641,1.99,1.021,2.96c0.81,1.62,1.39,3.33,1.989,5.04c0.291,0.99,0.631,1.98,1.011,2.95
	c0.649,1.34,1.239,2.71,1.64,4.15c0.66,1.96,1.33,3.92,2.07,5.85c1.48-1.73,1.92-4,2.869-6.02c0.511-1.26,0.921-2.56,1.41-3.83
	c0.291-1,0.631-1.98,1.011-2.94c0.649-1.35,1.239-2.72,1.63-4.17c0.47-1.26,0.859-2.56,1.38-3.81c0.63-1.35,1.21-2.72,1.64-4.15
	c0.34-0.99,0.67-1.98,0.99-2.98c0.551-1.26,0.67-2.62,0.91-3.95c0.7-1.23,0.75-2.65,0.99-4.01c1.49-2.72,0.55-6,0.66-8.96
	c-1.121-1.93-0.971-4.31-2.19-6.22c-0.51-1.23-0.899-2.51-1.39-3.75c-0.23-0.51-0.7-1.53-0.94-2.04c-2.08-3.46-5.45-5.86-8.13-8.82
	c-3.49-3.89-7.721-6.95-11.8-10.15c-0.521-0.21-1.56-0.63-2.08-0.84c-0.479-0.3-1.44-0.89-1.931-1.18
	C213.21,10.56,210.58,11.53,208.43,10.25 M205.32,109.69c-0.91,2.1-1.521,4.291-1.43,6.59c1.389-1.11,2.729-2.33,4.489-2.841
	C207.51,112.07,206.43,110.859,205.32,109.69 M157.07,114.57c1.26,1.42,2.68,2.689,4.18,3.869c-0.23-0.739-0.68-2.209-0.91-2.949
	c-0.3-1.33-0.72-2.62-1.64-3.65C157.92,112.609,156.471,113.24,157.07,114.57 M232.23,120.82c1.16,0.55,3.449,0.72,3.91-0.83
	C235.811,117.9,231.721,118.98,232.23,120.82 M177.27,131.6c0.121,0.961,0.23,1.931,0.36,2.91c1.14-0.1,2.29-0.15,3.42-0.38
	c0.261-0.93,0.5-1.86,0.69-2.8C180.25,131.4,178.76,131.49,177.27,131.6 M184.05,131.21c0.171,1.05,0.341,2.11,0.521,3.181
	c1.1,0.619,2.16,1.409,3.47,1.56c0.649-1.47,1.149-3.011,1.69-4.53C187.83,131.311,185.939,131.25,184.05,131.21 M190.37,131.33
	c0.479,1.74,0.979,3.48,1.409,5.23c2.591,2.09,5.16-0.28,7.471-1.561c0.45,0.46,1.359,1.38,1.811,1.84
	c0.229-0.84,0.68-2.51,0.899-3.35c-1.69-0.61-3.45-0.971-5.25-1.051l-0.181-0.959C194.471,131.45,192.42,131.359,190.37,131.33
	 M164.561,135.98c-0.49,1.699,2.449,2.489,3,0.859C168.16,135.05,165.189,134.52,164.561,135.98 M169.23,150.47
	c-2.19,1.99-2.041,5.341-3.801,7.63l-0.13-1.3c-0.7-0.819-1.399-1.64-2.09-2.45c-0.931,0.51-1.87,1.021-2.8,1.51
	c0.109,1.891,0.21,3.781,0.279,5.671c5,0.84,10.09,0.399,15.121,0.2c0.229-4.08,0.149-8.351-1.711-12.09
	C172.439,149.609,170.74,149.77,169.23,150.47 M152.439,155.45c-0.869,1.93-0.92,4.03-0.939,6.12c2.439-0.04,4.87-0.051,7.32-0.061
	c0.01-2.77-0.16-5.529-0.59-8.26C156.2,153.68,154.3,154.54,152.439,155.45 M138.59,155.77c-1.5,2.791-1.38,5.961-1.3,9.021
	c2.06-0.601,4.11-1.229,6.19-1.75c0.26-3.05-0.01-6.22-1.961-8.7C140.779,154.7,139.32,155.41,138.59,155.77 M144.49,158.67
	c0.46,1.35,0.9,2.71,1.32,4.08c0.92-0.109,2.77-0.32,3.689-0.43c-0.359-1.711-0.73-3.41-1.05-5.12
	C146.99,157.34,145.34,157.2,144.49,158.67 M226.21,200.99C226.779,201.609,226.779,201.609,226.21,200.99 M225.13,202.46
	c-0.31,0.63-0.909,1.88-1.22,2.5c-0.9,1.46-1.75,2.95-2.54,4.479c1.34-0.609,2.36-1.619,2.94-2.979c0.58-1.25,1.18-2.49,1.81-3.71
	L225.13,202.46z"/>
<path fill="#FFFFFF" d="M147.96,0H271v112.311c-1.21-0.32-2.41-0.66-3.59-1.041c-0.939-0.189-1.87-0.39-2.801-0.58
	c-1.629-0.459-3.31-0.739-4.969-1.06c-1.961-0.51-3.971-0.67-5.961-0.92c-3.33-1.04-7.16-1.25-10.41,0.13c-2,0.12-4.01,0.17-6,0.21
	c-0.27-1.19-0.56-2.37-0.869-3.55c-0.381-1.02-0.771-2.03-1.17-3.04c-0.121-0.48-0.381-1.43-0.51-1.91
	c-1.181-2.37-1.801-4.93,0.079-7.14c0.08-0.49,0.24-1.47,0.33-1.96c0.58-0.97,1.16-1.93,1.74-2.9c0.09-0.49,0.25-1.48,0.33-1.98
	c1-1.94,1.78-3.97,2.53-6.01c0.279-1,0.569-2,0.879-2.99c0.281-0.49,0.861-1.48,1.141-1.98c0.279-1.03,0.58-2.06,0.9-3.08
	c0.32-1.01,0.649-2.01,0.99-3.01c0.359-0.97,0.739-1.93,1.139-2.89c0.691-1.64,1.201-3.35,1.551-5.09c0.37-1.01,0.74-2.02,1.1-3.03
	c0.37-1.6,0.62-3.23,0.91-4.85c1-2.86,0.689-5.94,0.49-8.91c-0.74-1.67-0.83-3.5-1.02-5.29c-0.311-0.5-0.92-1.51-1.221-2.02
	c-0.3-0.99-0.57-1.99-0.84-2.99c-0.27-0.5-0.8-1.5-1.07-2c-0.439-0.99-0.88-1.98-1.3-2.97c-2.28-3.29-5.38-5.86-8.14-8.72
	c-2.53-2.46-4.82-5.25-7.85-7.14c-1.601-1.36-3.15-2.77-4.851-4c-0.53-0.21-1.59-0.63-2.13-0.84c-0.939-0.49-1.891-0.979-2.83-1.46
	c-0.54-0.31-1.6-0.94-2.13-1.25c-5.681,0.22-11.521-0.78-17.091,0.61c-0.92,0.22-1.84,0.44-2.76,0.66
	c-2.029,0.54-4.119,0.81-6.16,1.31c-1.359,0.34-2.709,0.68-4.049,1.09c-0.91,0.19-1.82,0.39-2.73,0.58
	c-1.33,0.75-2.801,0.6-4.189,0.18c-0.971-0.38-1.941-0.77-2.9-1.16c-0.5-0.25-1.5-0.77-2.01-1.02c-0.511-0.29-1.531-0.86-2.041-1.15
	c-0.49-0.09-1.479-0.27-1.979-0.37c-1.319-0.51-2.66-0.96-3.99-1.44c-0.51-0.3-1.521-0.9-2.021-1.2c-0.5-0.09-1.479-0.26-1.979-0.34
	c-1.01-0.42-2.03-0.82-3.05-1.21c-1.311-0.34-2.63-0.63-3.95-0.92C152.35,1.1,150.1,0.78,147.96,0z"/>
<path fill="#FFFFFF" d="M136.439,5.89c2.631-1.95,6.121-0.44,9.11-0.32l-0.13,0.88c4,0.28,7.77,1.76,11.71,2.46
	c3.54,1.32,7.3,1.94,10.81,3.35c1.19,0.46,2.381,0.91,3.541,1.43c-1.98-0.06-3.951-0.15-5.91-0.27c-0.09,0.66-0.26,1.97-0.34,2.63
	c-0.301,0.92-0.58,1.85-0.851,2.78c2.54-3.18,6.591-3.84,10.45-3.67c4.25,1.74,7.949,4.58,11.449,7.51
	c7.16,6.18,13.48,13.32,19,20.98c3.83,5.56,7.461,11.4,9.381,17.92c0.13,0.49,0.4,1.47,0.529,1.96c1.021,1.89,1.761,3.9,2.49,5.91
	c0.391,1.45,0.961,2.83,1.61,4.19c0.51,1.25,0.91,2.55,1.39,3.82c0.37,1.44,0.961,2.81,1.62,4.15c0.37,0.97,0.71,1.96,1.011,2.95
	c0.6,1.71,1.189,3.43,1.979,5.07c0.51,1.26,0.899,2.55,1.38,3.82c0.38,1.45,0.971,2.82,1.63,4.17c0.37,0.95,0.72,1.92,1.04,2.91
	c0.35,0.99,0.68,2,0.98,3.02c0.64,1.79,1.24,3.58,1.89,5.36l1.22,0.35c-1.439,1.92-3.76,2.061-5.97,1.689
	c-0.42,0.44-0.84,0.871-1.26,1.291c-0.61-1.42-2.14-3.45-3.511-1.53c-2.209,1.479,1.08,4.64,2.761,2.649
	c0.989-0.439,2.01-0.859,3-1.319c2,0.09,4.2-0.72,6.06,0.35c-2.17,1.261-4.6,1.71-7.01,2.24c-1.05,0.33-2.07,0.729-3.04,1.229
	c-0.979,0.09-1.95,0.19-2.92,0.291c-1.08,1.09-2.59,0.81-3.96,0.859c-1.93-3.09-5.57,1.78-2.2,2.95c2.101-0.271,3.83-2.39,6.13-2.74
	c1.36-0.271,2.891-0.08,4.04-1.03c0.47-0.1,1.431-0.279,1.91-0.38c1.95-1.08,4.33-0.79,6.29-1.87c1.05,1.131,1.33,2.601,1.45,4.08
	c-0.66-0.02-1.979-0.07-2.64-0.09c-2.221-2.77-5.041,1.52-2.431,3.28c-2.649,1.03-4.38-3.72-6.44-1.511
	c-2.319,1.53,1.451,5,2.881,2.371c3.449-0.101,6.91-0.051,10.369-0.061c0.051,0.609,0.131,1.84,0.181,2.46
	c0.31,0.62,0.94,1.87,1.25,2.49c-3.601,0.3-7.351-0.53-10.83,0.6c-0.931,0.54-1.819,1.13-2.74,1.681c-1.2-3.17-5.569,0.41-3.11,2.08
	c1.32,1.979,2.9-0.61,3.951-1.431c1.719-0.84,3.149,2.351,4.5,0.38c1.1-1.29,2.779-1.29,4.319-1.49c1.33-0.959,2.96-0.75,4.49-0.869
	c0.04,1.17,0.09,2.35,0.14,3.52c1.02,1.12,0.86,2.67,1.141,4.04c1.01,1.479,0.729,3.3,0.92,4.979c1.35,1.711,0.699,3.99,0.959,5.99
	c0.211,0.391,0.631,1.18,0.841,1.58c0.11,4.32,0.11,8.66,0,12.99c-0.2,0.391-0.601,1.17-0.8,1.561
	c-0.271,1.68,0.229,3.659-1.07,5.02c-0.051,1.23-0.08,2.46-0.1,3.689l-2.16-1.25c0.289,1.051,0.88,3.141,1.17,4.19
	c-0.58-1.101-1.141-2.21-1.68-3.319c-0.41,1.539-1.221,2.829-2.41,3.85c-0.59-2.75,0.32-5.98-1.471-8.37
	c-0.16,2.56,0.86,5.319-0.529,7.69c-0.17,0.489-0.521,1.479-0.69,1.979c-0.5-1.351-1.03-2.69-1.61-4
	c-0.029-0.54-0.1-1.63-0.129-2.17c-0.66-1.5-1.24-3.03-1.841-4.55c-1.03-4.23-1.45-8.631-3.33-12.61
	c-0.54-1.149-1.04-2.31-1.55-3.46c-0.82-1.58-1.65-3.15-2.45-4.74c-0.67-0.96-1.34-1.92-2-2.88c-0.54-0.81-1.06-1.61-1.59-2.41
	c-0.069,0.45-0.2,1.36-0.271,1.811c0.781,1.14,1.561,2.3,2.32,3.46l0.51,0.029c1.181,2.561,2.4,5.11,3.771,7.57
	c0.229,1.141,0.431,2.29,0.61,3.45l0.81,0.08c0.06,1.28,0.101,2.56,0.13,3.84c-0.88-1.84-1.64-3.74-2.41-5.63
	c-4.24-6.35-8.479-12.92-14.57-17.68c-6.389-5.57-15.279-8.051-23.629-6.42c1.189-0.45,2.379-0.891,3.549-1.4
	c0.471-0.1,1.4-0.311,1.861-0.42c1.699-0.811,3.5-1.42,5.239-2.141c0.979-0.539,1.95-1.069,2.931-1.6
	c0.84,0.16,1.68,0.311,2.529,0.471c0.939,0.439,1.891,0.869,2.85,1.289c2.08,1.76,4.281,3.381,6.551,4.891l0.1,0.899
	c0.9-0.11,1.801-0.22,2.7-0.34c-1.569-1.021-3.11-2.09-4.649-3.14l-0.24-0.45c-1.41-0.97-2.811-1.97-4.2-2.979
	c-1.56-0.591-3.11-1.28-4.81-1.391c0.75-1.01,1.399-2.07,1.969-3.189c0.521-0.221,1.551-0.65,2.061-0.871
	c2.67-2.1,7.95-3.539,6.48-7.909c-1.7-1.86-3.48-3.64-5.34-5.33c-2.67-0.58-5.771,0.74-8.121-0.98c-0.959-0.1-1.92-0.19-2.879-0.28
	c-1.701-1.39-3.99-0.7-5.99-0.97c-3.58-1.94-8.051-0.49-11.99-0.82c-1.95,1.66-4.689,0.66-7,1.01c-1.359,1.31-3.34,0.81-5.01,1.09
	c-1.25,0.83-2.791,0.74-4.18,1.08c-2.23,1.92-4.271,4.061-6.291,6.189c-0.59,1.841,0.34,3.58,1.09,5.201
	c2.301,0.969,3.82,3.129,6.16,4.06c0.65,0.479,1.95,1.43,2.601,1.899c-1.28,0.931-2.8,1.44-4.25,2.03
	c-2.351,1.72-4.24,3.94-6.261,6.021c0.101,1.3,0.17,2.63,0.791,3.81c0.119-0.87,0.359-2.62,0.479-3.5
	c0.729-0.67,1.46-1.33,2.2-1.979c0.21-0.381,0.64-1.131,0.85-1.511l0.83,0.08l-0.1-0.83c2.699-1.409,5.289-3.34,8.4-3.68
	c1.389,0.41,2.399,1.649,3.67,2.34c1.709,0.54,3.41,1.101,5.029,1.88c1.18,0.66,2.439,1.19,3.68,1.74
	c-2.479,0.24-4.949,0.53-7.399,0.97c1.159,0.74,2.29,1.71,3.771,1.66c-0.121,1.64-0.24,3.271-0.381,4.91
	c-2.939,1.04-4.64-1.931-6.33-3.729c1.051-0.211,3.16-0.631,4.211-0.841c-2.311-2.659-5.341-0.729-8.07,0.101
	c-1.021,0.38-2.03,0.77-3.03,1.17c-1.34,0.6-2.681,1.22-4.011,1.85c-6.939,2.93-12.809,7.74-18.129,12.98
	c-0.521,1.029-1.041,2.07-1.59,3.08c0.1-2.94,0.66-5.94,2.26-8.45l-0.021-0.79c0.841-0.45,1.66-0.92,2.479-1.4
	c-0.619,0.03-1.879,0.11-2.5,0.141c-2.469,3.439-3.84,7.539-5.889,11.24c-0.44,4.199-0.42,8.42-0.28,12.629
	c-0.45,0.09-1.35,0.28-1.8,0.371c0.06-0.431,0.19-1.291,0.25-1.721c-1.05,0.23-2.09,0.471-3.14,0.7c0.05-0.7,0.15-2.11,0.2-2.81
	c1.04-2.351,0.98-4.931,0.76-7.431c-3.58,2.39-2.26,7.271-4.19,10.5c0.17,1.74,0.74,3.4,1.3,5.06c0.4,1.021,0.78,2.051,1.14,3.091
	c1.26,0.62,2.52,1.229,3.79,1.829c0.01-1.379,0.02-2.77,0.04-4.149c0.27-0.521,0.82-1.569,1.09-2.09c1.74-0.66,3.479-1.32,5.25-1.88
	c5.57-1.381,11.03-3.71,16.851-3.62c10.459,0.1,20.939-0.2,31.369,0.479c7.57,2.36,15.551,2.82,23.28,4.45
	c5.771,2.05,11.57,4.04,17.13,6.62c2.311,1.15,4.24,2.9,6.141,4.62c2.979,0.8,4.039-1.899,3.779-4.32
	c2.301,0.71-0.07,2.87,0.01,4.351c-0.219,0.51-0.67,1.529-0.889,2.039c-0.25,0.5-0.761,1.5-1.021,2c-0.261,0.5-0.78,1.49-1.04,1.99
	c-0.6,1.69-1.18,3.391-1.9,5.03c-1.14,2.04-2.189,4.13-3.1,6.28l-0.61,0.189c0,1.811-1.68,2.681-2.819,3.771
	c1.209-2.44,2.22-4.96,3.029-7.56c0.561-1.511,1.11-3.011,1.6-4.541c0.771-2.899,0.711-5.949,0.271-8.899
	c-0.63,2.55-0.59,5.2-0.62,7.81l-0.96-0.26c-0.04,1.37-0.079,2.75-0.11,4.13l-0.68-0.11c-0.859,3.301-2.189,6.451-3.539,9.58
	c-2.201,2.971-3.591,6.59-6.541,8.95c-0.529,0.03-1.6,0.101-2.13,0.14c-0.71,1.041-3.92,1.58-3.829,0.031
	c2.309-1.791,4.52-3.791,6.25-6.23c2.379-2.96,4.049-6.391,6.209-9.5c3.44-4.91,3.23-11.24,3.4-16.971
	c-2.5,1.341-1.721,4.341-1.99,6.621c-0.23-2.11-0.619-4.201-1.14-6.261c-0.39,1.25-0.69,2.511-0.91,3.8
	c-0.58-1.49-1.34-2.869-2.28-4.149c0.18,3.239,0.721,6.44,1.051,9.659c-0.761,7.36-3.541,14.891-8.82,20.211
	c-5.33,5.149-13.131,2.38-19.59,1.899c-1.69-0.5-3.45-0.72-5.19-0.86c-1.26-0.5-2.51-1.029-3.72-1.6
	c-1.2-0.18-2.391-0.34-3.58-0.479l0.029-0.601c-2.119-0.6-4.229-1.21-6.359-1.74c-5.609-2.67-11.061-5.659-16.721-8.22
	c-0.6-0.06-1.779-0.2-2.369-0.26c1.31,0.89,2.699,1.67,4.14,2.351c4.08,1.84,8.101,3.83,11.95,6.119c2.26,0.78,4.529,1.53,6.8,2.311
	c2.78,1.18,5.55,2.56,8.67,2.479l-0.03,0.62c1.181,0.141,2.351,0.301,3.53,0.471c6.08,2.43,12.79,1.85,19.101,0.869l0.68,0.45
	l0.01,0.271c-0.9,0.66-1.96,0.8-3.18,0.41c-1.48,1.52-3.79,0.949-5.66,1.42c-6.96,0.699-14.17,1.27-21.061-0.141l-1.209-1.05
	c-2.66-0.84-5.301-1.75-7.92-2.69c-1.211-0.569-2.42-1.149-3.621-1.74l-0.76-0.02l-0.08-1.23c-0.459,0.08-1.369,0.25-1.82,0.33
	l-0.219-0.83c-3.061-1.529-5.69-3.739-8.48-5.689c-2.93-2.109-5.801-4.311-8.37-6.85l-0.04-0.49c-0.29-0.34-0.87-1.02-1.16-1.36
	l-0.35-0.189c-1.641-2.14-3.51-4.091-5.391-6.021l-0.01-0.84l-0.8,0.12c-0.47-0.899-0.94-1.79-1.42-2.681
	c-0.87-1.329-1.64-2.719-2.31-4.149c-0.33-0.09-0.99-0.29-1.33-0.38c0.09,0.39,0.25,1.189,0.33,1.59
	c1.049,1.41,1.99,2.91,2.789,4.49l0.391,0.18c1.18,2.1,2.949,3.74,4.48,5.57c0.279,0.35,0.84,1.07,1.119,1.43l0.34-0.02
	c2.11,3.25,5.03,5.899,8.03,8.33c2.681,1.949,5.32,3.949,8.04,5.859c1.01,0.65,2.03,1.301,3.061,1.92
	c0.49,0.271,1.47,0.82,1.949,1.09c0.83,0.471,1.66,0.94,2.49,1.41c1.73,0.631,3.439,1.33,5.16,2.03c1.29,0.34,2.609,0.64,3.82,1.229
	c-1.971,0.32-3.971,0.42-5.961,0.41c-2.75-2.06-6.64,0.431-9.27-1.779c-2.641-0.37-5.641,0.68-7.98-0.9
	c-1.629-0.16-3.299-0.17-4.859-0.7c-1.95-1.45-3.96-2.81-6.189-3.79c-0.931-0.449-1.871-0.899-2.801-1.34
	c-1.42-0.85-2.75-1.83-4.16-2.689c-0.51-0.23-1.53-0.7-2.04-0.931c-0.5-0.26-1.49-0.78-1.99-1.05c-0.51-0.22-1.54-0.68-2.05-0.91
	c-2.54-1.55-4.99-3.26-7.75-4.439c-1.66-0.99-3.24-2.131-4.97-3.03c-1.69-0.95-3.27-2.101-5.01-2.99
	c-13.96-8.46-27.36-18.76-35.97-32.88c-0.43-0.95-0.87-1.89-1.3-2.83c-1.29-1.85-2.46-3.77-3.02-5.97
	c-0.55-1.09-1.11-2.16-1.66-3.24c-0.6-1.69-1.19-3.38-1.94-5.01c-0.66-1.67-1.26-3.36-2.01-4.99c-0.52-1.26-0.92-2.569-1.42-3.83
	c-0.29-1.03-0.61-2.04-0.95-3.05c-0.33-1.03-0.71-2.05-1.14-3.04c-0.1-0.479-0.32-1.43-0.42-1.91c-0.84-1.61-0.74-3.5-1.58-5.1
	c-0.1-0.48-0.31-1.431-0.42-1.91c-0.42-1-0.81-2.01-1.16-3.03c-0.49-1.66-0.76-3.36-1.26-5.01c-0.35-1.03-0.74-2.05-1.16-3.04
	c-0.1-0.48-0.3-1.43-0.41-1.91c-0.8-1.19-0.79-2.65-1.06-4.01c-0.72-1.64-0.73-3.48-1.52-5.09c-0.11-0.48-0.33-1.42-0.44-1.9
	c-0.83-1.61-0.71-3.53-1.6-5.11c-0.16-1.31-0.09-2.64-0.4-3.92c-2.79-3.98-5.49-8.02-8.14-12.1c-0.23-0.51-0.7-1.52-0.94-2.03
	c-1.92-2.85-2.59-6.86-0.89-9.93c0.1-0.49,0.3-1.45,0.4-1.94c0.54-1.28,0.96-2.61,1.47-3.9c0.54-1.08,1.08-2.16,1.6-3.25
	c0.28-0.48,0.83-1.45,1.11-1.93c1.11-1.53,0.81-4.29-1.39-4.45c-2.26-0.74-2.79,1.95-3.76,3.36c-0.22,0.51-0.68,1.54-0.9,2.06
	c-0.28,0.48-0.84,1.46-1.12,1.95c-0.57,1.37-1.12,2.75-1.56,4.16c-0.35,0.99-0.68,1.98-1,2.98c-1.09,2.8-1.03,6.18-0.03,9
	c0.51,1.7,1.24,3.32,2.05,4.9c0.25,0.5,0.73,1.51,0.97,2.02c2.08,3.78,5.36,6.94,6.73,11.07c1.22,2.22-0.16,5.06,1.51,7.08
	c0.08,1.28,0.14,2.57,0.22,3.86c1.25,1.38,0.79,3.33,1.04,5.01c1.35,1.71,0.7,3.99,0.96,5.99c1.45,1.67,0.71,4,1,6
	c1.42,1.53,0.75,3.69,0.91,5.551c-0.23,3.819,0.49,7.76-0.52,11.5c-1.22,3.479-5.09,2.66-8.01,2.35
	c-10.41-8.38-22.56-14.71-31.75-24.57c-2.54-2.49-5.16-5.26-6.08-8.77c-0.35-0.99-0.68-1.99-1-2.99c-0.94-1.69-0.62-3.66-0.68-5.5
	c0.1-5.32-0.1-10.64,0.07-15.95c0.19-0.4,0.57-1.2,0.76-1.6c0.1-0.48,0.3-1.43,0.4-1.9c0.44-1.01,0.81-2.04,1.11-3.09
	c0.59-1.72,1.18-3.44,1.97-5.08c0.5-1.25,0.9-2.53,1.37-3.78c0.26-0.5,0.78-1.5,1.04-1.99c0.26-0.5,0.77-1.49,1.03-1.98
	c0.5-1.1,1.02-2.19,1.5-3.3c6.11-10.77,16.99-17.19,26.46-24.61c3.13-3.32,7.09-5.64,10.94-8.03c2.24-1.28,4.38-2.73,6.88-3.51
	c0.48-0.09,1.46-0.27,1.94-0.37c0.4-0.19,1.2-0.57,1.6-0.76c4.99-0.1,9.99-0.1,14.97,0c0.39,0.21,1.16,0.63,1.55,0.84
	c2,0.29,4.33-0.45,6,1c1.28,0.08,2.57,0.14,3.86,0.22c1.67,1.44,4.01,0.72,6,1c1.38,1.35,3.52,1.14,5.07,0.21c1-0.3,2-0.63,3-0.97
	c1.03-0.33,2.05-0.71,3.04-1.14c0.48-0.11,1.43-0.32,1.91-0.43c1.01-0.42,2.04-0.79,3.09-1.09c1.32-0.5,2.67-0.92,3.98-1.48
	c0.49-0.1,1.48-0.3,1.97-0.4c1.46-0.63,2.99-1.09,4.38-1.87c0.36,0.22,1.08,0.66,1.44,0.89c1.91,1.28,3.76,2.64,5.62,3.99
	c-0.25-1.54-0.53-3.08-0.69-4.64c1.62,0.87,3.17,1.87,4.82,2.69c-1.14-1.73-2.38-3.4-3.73-4.98c1.95,0.15,3.88,0.6,4.76,2.53
	c0.53,0.09,1.58,0.27,2.11,0.36c-1.1-1.24-2.23-2.45-3.36-3.66C133.37,6.06,134.9,5.98,136.439,5.89 M114.69,24.07
	c3.12,4.19,8.74,5.4,11.97,9.47c2.19,3.15,3.91,6.62,5.11,10.27c-2.41-1.13-4.75-2.39-7.04-3.75c-1.26,0.46-2.51,0.93-3.77,1.4
	l-0.21-0.24l0.43-0.95c-5.25-1.12-10.1-3.87-15.53-4.1c1.44,1.1,3.08,1.88,4.74,2.58c-1.19,0.28-2.38,0.57-3.56,0.87
	c-5.61-0.37-11.19-1.54-16.83-1.06c-7.54,0.1-14.54,3.18-21.48,5.77l-0.65-0.12c2.14,2.51,5.76,2.05,8.65,3
	c4.06,1.18,8.29,1.21,12.47,1.66c6.91,1.15,14.07,1.74,21.08,1.38c0.43-0.4,1.29-1.19,1.72-1.58c-5.58-0.3-11.13-1.09-16.73-1.14
	c-2.58-0.03-5.02-0.89-7.48-1.57c0.7-0.11,2.1-0.32,2.8-0.43c1.68-1.41,2.62-3.36,3.27-5.41c8.11,1.15,16.58,0.74,24.27,3.91
	c1.09,0.57,2.19,1.13,3.29,1.7c0.93,1.38,2.44,2.5,2.69,4.24c-0.74,0.07-2.21,0.22-2.95,0.29c-2.73-0.89-5.64-0.6-8.45-0.99
	c-0.16,0.65-0.12,1.28,0.12,1.88l-0.44,0.29c-6.88,0.74-13.8,0.31-20.69,0.03c-3.67-1.1-7.51-1.11-11.3-1.21
	c0.12,0.49,0.37,1.49,0.5,1.99c0.99,0.04,1.98,0.08,2.98,0.12c0.18,0.6,0.55,1.8,0.73,2.41c8.53,0.26,17.08,0.62,25.62,0.71
	c-3.92,0.2-7.85,0.14-11.78,0.08L98.09,57c3.8,0.07,7.61,0.27,11.4,0.03c-2.09,0.72-5.18,0.71-5.72,3.39
	c-1.51,0.14-3.02,0.33-4.52,0.54c-0.65,0.84-1.3,1.68-1.95,2.51c-1.66,0.311-3.32,0.63-4.97,0.99c0.41,0.2,1.24,0.61,1.66,0.81
	c9.03,0.11,18.25-1.39,26.22-5.86c1.87-1.26,3.9-2.53,4.72-4.75c0.39-0.06,1.15-0.18,1.54-0.24c-0.19-0.57-0.55-1.72-0.73-2.29
	c0.73,0.1,2.18,0.3,2.91,0.4c0.79-2.04-1.5-3.061-2.51-4.43c0.81,0.12,2.44,0.35,3.25,0.47c0.14,0.7,0.41,2.1,0.54,2.8
	c1.73-1.46,0.42-3.39-1.09-4.16c-0.51-0.26-1.53-0.79-2.03-1.06c1.49-2.61,5.66-0.11,6.47-3.01c-2.03-5.25-4.59-10.81-9.48-13.97
	C120.94,27.19,118.14,24.94,114.69,24.07 M168.17,24.87c-1.689,5.71-5.75,12.27-2.279,18.04c-0.291-6.66,2.469-12.69,4.319-18.91
	C169.7,24.22,168.68,24.65,168.17,24.87 M193.96,32.88c2.97,6.02,8.399,10.65,10.271,17.26c-3.301,0.44-5.4-3.04-8.4-3.95
	c-3.46-1.3-7.04-2.74-10.78-2.72c-5.79-0.49-10.649,3.17-15.86,5.04c0.16,0.84,0.32,1.68,0.48,2.521
	c-0.32-0.05-0.98-0.16-1.311-0.22l0.08-2c-2.56,1.58-4.459,4.82-3.66,7.87c0.371-0.59,1.121-1.77,1.49-2.36
	c3.44,1.22,7.061,1.74,10.61,2.55l-0.569-1.35c6.799-0.52,13.529,0.66,20.289,0.78c4.51,0.67,9.221,0.78,13.471,2.57
	c1.76,3.07,2.199,6.74,1.209,10.14c-0.909,1.96-1.719,3.98-2.18,6.1c1.051-0.3,1.711-0.98,1.971-2.02
	c2.039-5.69,2.99-12.19,0.26-17.83c-0.42,0.09-1.26,0.271-1.689,0.36c-0.82-1.89-1.681-3.77-2.791-5.51
	C203.5,43.68,198.26,38.62,193.96,32.88 M166.85,46.82c3.121-2.63,2.07-7.41,2.93-11.05C165.939,37.66,166.92,43.24,166.85,46.82
	 M62.03,38.36c-0.52,1.83-0.01,3.05,1.52,3.66c-0.94,0.88-1.33,2.06-1.5,3.3c1.15-0.1,2.3-0.21,3.45-0.33l-2.69-1.06
	c1.33-0.73,2.67-1.45,4.04-2.12C65.53,40.29,63.74,39.35,62.03,38.36 M65.8,48.98c0.63,1.08,1.26,2.19,2.24,2.98
	c4.27,3.5,8.54,7.27,13.96,8.84c-0.41-2.44-3.04-2.86-4.8-4.03C73.11,54.6,70.42,50.2,65.8,48.98 M65.8,55.04
	c3.95,3.92,8.61,7.3,13.78,9.41c-0.71-2.81-3.54-3.82-5.64-5.38C71.4,57.41,69.07,54.96,65.8,55.04 M177.65,56.15
	c-0.76,1.77,2.539,1.61,2.1,0.09c-0.34-0.15-1.029-0.45-1.37-0.6L177.65,56.15 M165.51,56.43c4.641,5.81,11.5,9.15,17.51,13.32
	c0.801,3.09,1.98,6.06,3.28,8.97c0.681,0.04,2.03,0.11,2.71,0.15c-0.14,2.83,3.11,2.39,4.98,3.1c3.4,0.51,5.3,3.91,8.52,4.88
	l-0.26,0.89c1.01-0.94,1.779-2.07,2.471-3.26c1.379-0.61,2.77-1.21,4.159-1.79c-1.47-2.51-2.87-5.06-4.229-7.64
	c-1.75,0.83-3.49,1.68-5.24,2.51c-0.46-0.18-1.391-0.56-1.85-0.74c0.1-1.27,0.199-2.54,0.31-3.81c-1.8-0.59-3.591-1.34-5.5-1.479
	c-2.591-0.771-5.14-1.75-7.38-3.28c0.14-0.73,0.41-2.19,0.539-2.92c0.531-0.19,1.57-0.58,2.101-0.77c-0.351-0.9-0.7-1.8-1.04-2.71
	c3.95,0.67,7.93,1.11,11.92,1.53c-0.01-0.62-0.01-1.86-0.01-2.49c3.391,0.49,6.779,1.03,10.16,1.57c-0.02-0.46-0.061-1.37-0.08-1.83
	c-6.66-2.08-13.721-1.87-20.49-3.44c-2.54-0.47-5.859-1.29-7.76,1.03c5.34,0.57,10.65,1.39,15.93,2.38
	c-4.52,0.73-8.93-0.97-13.38-1.47C177.05,58.39,171.529,55.47,165.51,56.43 M75.73,66.32c2.62,3.03,5.88,5.38,8.79,8.11
	c0.76,0.03,1.51,0.06,2.27,0.1c1.41,0.78,2.83,1.54,4.26,2.27C86.9,72.16,81.96,67.76,75.73,66.32 M118.01,70.8
	c-1.12-0.26-2.24-0.52-3.36-0.77c0.91,0.79,1.82,1.58,2.73,2.37c-1.39,0.9-2.85,1.7-4.34,2.41c-1.61-0.74-3.14-1.61-4.74-2.36
	l-0.4,0.33l-0.58,0.24c-1.42-0.87-2.8-1.79-4.17-2.73c-0.46,0.3-1.38,0.89-1.84,1.19c-2.12-0.49-4.23-0.96-6.35-1.44
	c0.62,1.06,1.25,2.12,1.88,3.19c-1.38-0.93-2.76-1.85-4.15-2.76c-2.83-0.32-5.59-1.05-8.34-1.729c3.26,3.19,6.76,6.12,10.3,8.99
	c0.75-0.25,2.25-0.76,2.99-1.01l-0.36,1.3c-0.35,1.04-0.69,2.09-1.02,3.14c1.12,0.02,2.25,0.05,3.39,0.08
	c0.42-2.23,0.71-4.48,0.69-6.75c1.54,0.2,3.09,0.43,4.54,0.979c4.21,1.561,8.85,1.04,13.17,0.311c1.27,0.479,2.46,1.16,3.67,1.78
	c-0.5-0.41-1.51-1.24-2.01-1.65c0.94-0.45,2.83-1.35,3.77-1.8c0.15,0.45,0.45,1.37,0.6,1.82c-0.4-2.75,2.35-3.94,3.99-5.57
	c-0.21-0.54-0.62-1.61-0.83-2.15c0.96-0.37,1.93-0.71,2.9-1.03c-1.26,0.05-2.52,0.16-3.77,0.34
	C123.8,68.72,120.86,69.89,118.01,70.8 M207.12,75.21c-0.601,1.55,0.649,3.22,1.659,4.31c1.201,0.94,1-1.26,0.611-1.78
	C208.939,76.85,208.439,74.91,207.12,75.21 M126.98,115.939c-7.42,0.16-14.85,0-22.28,0.061c-1.8,1.71-4.45,0.8-6.66,1.01
	l-0.05,0.76c-3.79,0.67-7.41,2.141-10.62,4.261c3.62,0.02,6.63-2.521,10.12-3.33c10.02-2.67,20.62-1.48,30.94-1.64
	c1.43,2.629,5.21-0.851,2.87-2.371C129.86,112.59,128.48,115.73,126.98,115.939 M111.55,120.07c-1.08,0.84-2.34,1.17-3.76,1
	c-3.91,1.39-7.72,3.22-11.74,4.18l-0.13,0.359c-1.6,0.631-3.08,1.511-4.54,2.41c2,0.57,3.59-0.779,5.08-1.8
	c2.81-0.05,5.01-1.95,7.64-2.63c2.47-0.89,5.14-1.22,7.47-2.48c3.44,0.121,7.17-0.85,10.43,0.531l0.01,1.01
	c-2.49,2.029-5.91,2.59-9.05,2.35c-1.83,0.18-4.06-0.6-5.51,0.93c-1.55,0.051-3.09,0.07-4.63,0.07c-2.1,1.3-4.85,1.35-6.61,3.22
	c-1.37,1.5-3.41,2.14-4.64,3.79c1.4-0.31,3.11-0.47,4.04-1.72c1.8-2.56,5.12-3.101,7.84-4.22c1.69-0.29,3.82,0.52,5.11-1.01
	c4.33,0.109,8.62-0.07,12.82-1.16c1.85,3.13,5.28-1.181,2.54-2.91c3.27-0.16,6.53,0.119,9.61,1.32c1.66,2.08,4.99-1.11,2.781-2.621
	c-1.42-2.039-3.101,0.67-4.101,1.641c-0.62-0.45-1.23-0.92-1.83-1.391c-2.97-0.33-6.55,1.141-9.08-0.939
	C118.05,120.01,114.8,119.95,111.55,120.07 M129.43,128.939c-3.91,0.11-7.82,0.041-11.73,0.061c-1.3,1.33-3.22,1.01-4.9,1.03
	c-4.42,1.92-9.12,3.239-13.61,5.06c0.41,0.5,2.42,1.32,1.23,1.96c-2.01-1.56-4.13-0.61-5.8,0.89c2.08-0.09,4.18,0.021,6.26-0.09
	l0.49-0.35c1.12-0.561,2.37-0.73,3.76-0.5l-0.54-1c0.93,0,2.78,0,3.71,0c0.97,0.84,2.24,1.29,3.54,1.04
	c3.53-0.03,7.06-0.09,10.59,0.021c1.81,2.859,5.58-1.561,2.31-2.951c0.55-0.409,1.1-0.81,1.66-1.219
	c2.65-0.291,5.98,1.159,8.16-0.841c0.95-0.01,1.911-0.01,2.87,0c1.41,2.64,5.211-0.83,2.881-2.36
	c-1.891-2.149-3.561,1.99-5.851,1.641c-0.65,0.25-1.95,0.76-2.6,1.01C134.42,130.53,131.74,126.1,129.43,128.939 M103.52,138.76
	c-1.77,0.84-3.83,1.471-4.83,3.311c2.11-0.42,3.99-1.561,5.72-2.801c1.86-0.66,3.68-1.39,5.45-2.26
	C107.34,135.95,105.57,137.91,103.52,138.76 M136.359,182.57c-0.17,1.369-0.319,2.75-0.439,4.14c1.91,1.899,3.721,3.91,5.27,6.13
	c3.301,4,7.11,7.54,10.891,11.09c2.21,2.021,4.061,4.471,6.71,5.971c-1.351-3.61-4.74-5.771-7.33-8.42
	c-5.08-4.61-9.729-9.721-13.63-15.371C137.37,184.92,136.891,183.73,136.359,182.57z"/>
<path fill="#333333" d="M122.31,9.83c1.9-1.15,3.87-2.15,5.83-3.16l0.19,0.22c1.35,1.58,2.59,3.25,3.73,4.98
	c-1.65-0.82-3.2-1.82-4.82-2.69c0.16,1.56,0.44,3.1,0.69,4.64C126.07,12.47,124.22,11.11,122.31,9.83z"/>
<path fill="#FFFFFF" d="M208.43,10.25c2.15,1.28,4.78,0.31,7.01,1.33c0.49,0.29,1.451,0.88,1.931,1.18
	c0.521,0.21,1.56,0.63,2.08,0.84c4.079,3.2,8.31,6.26,11.8,10.15c2.68,2.96,6.05,5.36,8.13,8.82c0.24,0.51,0.71,1.53,0.94,2.04
	c0.49,1.24,0.88,2.52,1.39,3.75c1.22,1.91,1.069,4.29,2.19,6.22c-0.11,2.96,0.83,6.24-0.66,8.96c-0.24,1.36-0.29,2.78-0.99,4.01
	c-0.24,1.33-0.359,2.69-0.91,3.95c-0.32,1-0.65,1.99-0.99,2.98c-0.43,1.43-1.01,2.8-1.64,4.15c-0.521,1.25-0.91,2.55-1.38,3.81
	c-0.391,1.45-0.98,2.82-1.63,4.17c-0.38,0.96-0.72,1.94-1.011,2.94c-0.489,1.27-0.899,2.57-1.41,3.83
	c-0.949,2.02-1.389,4.29-2.869,6.02c-0.74-1.93-1.41-3.89-2.07-5.85c-0.4-1.44-0.99-2.81-1.64-4.15c-0.38-0.97-0.72-1.96-1.011-2.95
	c-0.6-1.71-1.18-3.42-1.989-5.04c-0.38-0.97-0.72-1.96-1.021-2.96c-0.479-1.27-0.89-2.57-1.4-3.83c-0.76-1.62-1.35-3.31-1.949-5
	c-2.391-4.91-5.07-9.67-7.57-14.52c-1.279-4.21-4.74-7.22-6.92-10.94c-6.42-6.34-11.98-13.66-19.66-18.59
	c0.57-0.35,1.711-1.05,2.28-1.41c1.399-0.19,2.931-0.06,4.11-1.01c0.949-0.1,1.9-0.2,2.859-0.3c1.771-1.5,4.45-0.16,6.15-1.78
	C203.16,10.71,206.109,11.72,208.43,10.25z"/>
<path fill="#BDBDBD" d="M114.69,24.07c3.45,0.87,6.25,3.12,9.11,5.1c4.89,3.16,7.45,8.72,9.48,13.97c-0.81,2.9-4.98,0.4-6.47,3.01
	c-2.25-1.15-4.24-2.75-5.85-4.69c1.26-0.47,2.51-0.94,3.77-1.4c2.29,1.36,4.63,2.62,7.04,3.75c-1.2-3.65-2.92-7.12-5.11-10.27
	C123.43,29.47,117.81,28.26,114.69,24.07z"/>
<path fill="#C7C7C7" d="M168.17,24.87c0.51-0.22,1.53-0.65,2.04-0.87c-1.851,6.22-4.61,12.25-4.319,18.91
	C162.42,37.14,166.48,30.58,168.17,24.87z"/>
<path fill="#1A1A1A" d="M193.96,32.88c4.3,5.74,9.54,10.8,12.89,17.23c1.11,1.74,1.971,3.62,2.791,5.51
	c0.43-0.09,1.27-0.27,1.689-0.36c2.73,5.64,1.779,12.14-0.26,17.83c-0.26,1.04-0.92,1.72-1.971,2.02c0.461-2.12,1.271-4.14,2.18-6.1
	c0.99-3.4,0.551-7.07-1.209-10.14c-4.25-1.79-8.961-1.9-13.471-2.57c1.68-0.41,3.33-0.91,5.01-1.33c0.44,0.08,1.341,0.25,1.781,0.33
	c0.129-0.38,0.389-1.15,0.529-1.53c0.43-0.99,0.891-1.96,1.391-2.92c-0.271-0.18-0.811-0.53-1.08-0.71
	C202.359,43.53,196.93,38.9,193.96,32.88z"/>
<path fill="#BCBCBC" d="M105.65,36.17c5.43,0.23,10.28,2.98,15.53,4.1l-0.43,0.95c-0.17,0.35-0.49,1.05-0.66,1.4
	c-4.4-1.09-8.72-2.6-13.26-3c1.18-0.3,2.37-0.59,3.56-0.87C108.73,38.05,107.09,37.27,105.65,36.17z"/>
<path fill="#CFCFCF" d="M166.85,46.82c0.07-3.58-0.91-9.16,2.93-11.05C168.92,39.41,169.971,44.19,166.85,46.82z"/>
<path fill="#1A1A1A" d="M62.03,38.36c1.71,0.99,3.5,1.93,4.82,3.45c-1.37,0.67-2.71,1.39-4.04,2.12l2.69,1.06
	c-1.15,0.12-2.3,0.229-3.45,0.33c0.17-1.24,0.56-2.42,1.5-3.3C62.02,41.41,61.51,40.19,62.03,38.36z"/>
<path d="M68.52,44.33c6.94-2.59,13.94-5.67,21.48-5.77c5.64-0.48,11.22,0.69,16.83,1.06c4.54,0.4,8.86,1.91,13.26,3
	c0.17-0.35,0.49-1.05,0.66-1.4l0.21,0.24c1.61,1.94,3.6,3.54,5.85,4.69c0.5,0.27,1.52,0.8,2.03,1.06c1.51,0.77,2.82,2.7,1.09,4.16
	c-0.13-0.7-0.4-2.1-0.54-2.8c-0.81-0.12-2.44-0.35-3.25-0.47c1.01,1.37,3.3,2.39,2.51,4.43c-0.73-0.1-2.18-0.3-2.91-0.4
	c-1.61-0.37-3.23-0.71-4.84-1.05c-0.41,0.42-1.23,1.26-1.63,1.69c-0.23-0.62-0.68-1.87-0.91-2.49c-1.92,0.28-3.83,0.57-5.74,0.87
	c-0.24-0.6-0.28-1.23-0.12-1.88c2.81,0.39,5.72,0.1,8.45,0.99c0.74-0.07,2.21-0.22,2.95-0.29c-0.25-1.74-1.76-2.86-2.69-4.24
	c-1.1-0.57-2.2-1.13-3.29-1.7c-7.69-3.17-16.16-2.76-24.27-3.91c-0.65,2.05-1.59,4-3.27,5.41c-0.7,0.11-2.1,0.32-2.8,0.43
	c-1.38-0.33-2.78-0.53-4.18-0.72c-3.24-0.61-6.35-2.51-9.69-1.271c0.52,0.311,1.58,0.93,2.1,1.24
	C73.36,45.21,70.92,44.85,68.52,44.33z"/>
<path fill="#CFCFCF" d="M73.71,43.97c3.34-1.24,6.45,0.66,9.69,1.271c-2.53,0.13-5.06,0.16-7.59-0.03
	C75.29,44.9,74.23,44.28,73.71,43.97z"/>
<path fill="#292929" d="M67.87,44.21l0.65,0.12c2.4,0.52,4.84,0.88,7.29,0.88c2.53,0.19,5.06,0.16,7.59,0.03
	c1.4,0.19,2.8,0.39,4.18,0.72c2.46,0.68,4.9,1.54,7.48,1.57c5.6,0.05,11.15,0.84,16.73,1.14c-0.43,0.39-1.29,1.18-1.72,1.58
	c-7.01,0.36-14.17-0.23-21.08-1.38c-4.18-0.45-8.41-0.48-12.47-1.66C73.63,46.26,70.01,46.72,67.87,44.21z"/>
<path fill="#333333" d="M169.189,48.51c5.211-1.87,10.07-5.53,15.86-5.04c3.74-0.02,7.32,1.42,10.78,2.72
	c-0.12,1.05-0.27,2.09-0.42,3.14c-0.881,0.12-1.77,0.25-2.641,0.4l1.351-1.07c-3.649-2.2-8.511-4.57-12.58-1.98
	c-3.46,2-6.91,4.04-10.38,6.03c10.14,0.68,20.38,0.61,30.449,2.26c-1.68,0.42-3.33,0.92-5.01,1.33c-6.76-0.12-13.49-1.3-20.289-0.78
	l0.569,1.35c-3.55-0.81-7.17-1.33-10.61-2.55c-0.369,0.59-1.119,1.77-1.49,2.36c-0.799-3.05,1.101-6.29,3.66-7.87l-0.08,2
	c0.33,0.06,0.99,0.17,1.311,0.22C169.51,50.19,169.35,49.35,169.189,48.51z"/>
<path fill="#FFFFFF" d="M181.54,46.68c4.069-2.59,8.931-0.22,12.58,1.98l-1.351,1.07l-0.25,0.2c-0.129,0.93-0.25,1.87-0.34,2.8
	c3.771,1.34,7.801,1.08,11.74,1.04c-0.141,0.38-0.4,1.15-0.529,1.53c-0.44-0.08-1.341-0.25-1.781-0.33
	c-10.069-1.65-20.31-1.58-30.449-2.26C174.63,50.72,178.08,48.68,181.54,46.68z"/>
<path d="M195.41,49.33c0.15-1.05,0.3-2.09,0.42-3.14c3,0.91,5.1,4.39,8.4,3.95c0.27,0.18,0.81,0.53,1.08,0.71
	c-0.5,0.96-0.961,1.93-1.391,2.92c-3.939,0.04-7.97,0.3-11.74-1.04c0.09-0.93,0.211-1.87,0.34-2.8l0.25-0.2
	C193.641,49.58,194.529,49.45,195.41,49.33z"/>
<path fill="#505050" d="M65.8,48.98c4.62,1.22,7.31,5.62,11.4,7.79c1.76,1.17,4.39,1.59,4.8,4.03c-5.42-1.57-9.69-5.34-13.96-8.84
	C67.06,51.17,66.43,50.06,65.8,48.98z"/>
<path fill="#929292" d="M80.19,50.26c3.79,0.1,7.63,0.11,11.3,1.21c-0.61,0.17-1.82,0.53-2.43,0.7c1.17,0.76,2.21,2.08,3.75,2.03
	c6.65,0.24,13.32-0.18,19.98,0.01c-0.86,0.92-1.72,1.84-2.59,2.74c-0.18,0.02-0.53,0.06-0.71,0.08c-3.79,0.24-7.6,0.04-11.4-0.03
	l0.15-1.43c3.93,0.06,7.86,0.12,11.78-0.08c-8.54-0.09-17.09-0.45-25.62-0.71c-0.18-0.61-0.55-1.811-0.73-2.41
	c-1-0.04-1.99-0.08-2.98-0.12C80.56,51.75,80.31,50.75,80.19,50.26z"/>
<path fill="#737373" d="M91.49,51.47c6.89,0.28,13.81,0.71,20.69-0.03l0.44-0.29c1.91-0.3,3.82-0.59,5.74-0.87
	c0.23,0.62,0.68,1.87,0.91,2.49c0.4-0.43,1.22-1.27,1.63-1.69c1.61,0.34,3.23,0.68,4.84,1.05c0.18,0.57,0.54,1.72,0.73,2.29
	c-0.39,0.06-1.15,0.18-1.54,0.24c-0.82,2.22-2.85,3.49-4.72,4.75c-1.37-0.25-2.73-0.49-4.09-0.72c-5.11,2.26-11.49,5.41-16.87,2.27
	c1.5-0.21,3.01-0.4,4.52-0.54c3.43-0.26,6.84-0.71,10.23-1.3c0.31-0.47,0.91-1.41,1.22-1.88c-1.68-0.12-3.35-0.21-5.02-0.29
	c0.87-0.9,1.73-1.82,2.59-2.74c-6.66-0.19-13.33,0.23-19.98-0.01c-1.54,0.05-2.58-1.27-3.75-2.03C89.67,52,90.88,51.64,91.49,51.47
	 M113.95,54.96c1.17,0.91,2.21,3.21,4.07,2.24c1.34-0.39,2.4-1.33,3.55-2.06c0.36-0.11,1.07-0.32,1.43-0.43l-0.1-0.72
	c-0.59,0.04-1.78,0.12-2.38,0.16C118.76,51.89,116.02,54.72,113.95,54.96z"/>
<path fill="#343434" d="M113.95,54.96c2.07-0.24,4.81-3.07,6.57-0.81c0.27,0.25,0.79,0.74,1.05,0.99c-1.15,0.73-2.21,1.67-3.55,2.06
	C116.16,58.17,115.12,55.87,113.95,54.96z"/>
<path fill="#020202" d="M120.52,54.15c0.6-0.04,1.79-0.12,2.38-0.16l0.1,0.72c-0.36,0.11-1.07,0.32-1.43,0.43
	C121.31,54.89,120.79,54.4,120.52,54.15z"/>
<path fill="#D2D2D2" d="M65.8,55.04c3.27-0.08,5.6,2.37,8.14,4.03c2.1,1.56,4.93,2.57,5.64,5.38C74.41,62.34,69.75,58.96,65.8,55.04
	z"/>
<path fill="#656565" d="M177.65,56.15l0.729-0.51c0.341,0.15,1.03,0.45,1.37,0.6C180.189,57.76,176.891,57.92,177.65,56.15z"/>
<path fill="#BBBBBB" d="M109.49,57.03c0.18-0.021,0.53-0.061,0.71-0.08c1.67,0.08,3.34,0.17,5.02,0.29
	c-0.31,0.47-0.91,1.41-1.22,1.88c-3.39,0.59-6.8,1.04-10.23,1.3C104.31,57.74,107.4,57.75,109.49,57.03z"/>
<path fill="#828282" d="M165.51,56.43c6.02-0.96,11.54,1.96,17.37,2.7c4.45,0.5,8.86,2.2,13.38,1.47
	c-5.279-0.99-10.59-1.81-15.93-2.38c1.9-2.32,5.22-1.5,7.76-1.03c6.77,1.57,13.83,1.36,20.49,3.44c0.02,0.46,0.061,1.37,0.08,1.83
	c-3.381-0.54-6.77-1.08-10.16-1.57c0,0.63,0,1.87,0.01,2.49c-3.99-0.42-7.97-0.86-11.92-1.53c-5.04-0.49-10.08-1.23-14.779-3.21
	c4.069,3.63,8.5,6.82,13.18,9.61c2.24,1.53,4.789,2.51,7.38,3.28c-3.19-0.12-6.46-0.28-9.351-1.78
	C177.01,65.58,170.15,62.24,165.51,56.43z"/>
<path fill="#B9B9B9" d="M171.811,58.64c4.699,1.98,9.739,2.72,14.779,3.21c0.34,0.91,0.689,1.81,1.04,2.71
	c-0.53,0.19-1.569,0.58-2.101,0.77c-0.129,0.73-0.399,2.19-0.539,2.92C180.311,65.46,175.88,62.27,171.811,58.64z"/>
<path fill="#BBBBBB" d="M99.25,60.96c5.38,3.14,11.76-0.01,16.87-2.27c1.36,0.23,2.72,0.47,4.09,0.72
	c-7.97,4.47-17.19,5.97-26.22,5.86c-0.42-0.2-1.25-0.61-1.66-0.81c1.65-0.36,3.31-0.68,4.97-0.99C97.95,62.64,98.6,61.8,99.25,60.96
	z"/>
<path fill="#B3B3B3" d="M75.73,66.32c6.23,1.44,11.17,5.84,15.32,10.48c-1.43-0.73-2.85-1.49-4.26-2.27
	c-0.76-0.04-1.51-0.07-2.27-0.1C81.61,71.7,78.35,69.35,75.73,66.32z"/>
<path fill="#BFBFBF" d="M118.01,70.8c2.85-0.91,5.79-2.08,8.36-3.28c0.17,4.01-4.69,4.73-7.48,6.26c-0.49-0.47-1-0.93-1.51-1.38
	c-0.91-0.79-1.82-1.58-2.73-2.37C115.77,70.28,116.89,70.54,118.01,70.8z"/>
<path fill="#505050" d="M126.37,67.52c1.25-0.18,2.51-0.29,3.77-0.34c-0.97,0.32-1.94,0.66-2.9,1.03c0.21,0.54,0.62,1.61,0.83,2.15
	c-1.64,1.63-4.39,2.82-3.99,5.57c-0.15-0.45-0.45-1.37-0.6-1.82c-0.94,0.45-2.83,1.35-3.77,1.8c0.5,0.41,1.51,1.24,2.01,1.65
	c-1.21-0.62-2.4-1.3-3.67-1.78c-4.32,0.729-8.96,1.25-13.17-0.311c-1.45-0.55-3-0.78-4.54-0.979c0.02,2.27-0.27,4.52-0.69,6.75
	c-1.14-0.03-2.27-0.06-3.39-0.08c0.33-1.05,0.67-2.1,1.02-3.14l0.36-1.3c0.4-1.39,0.83-2.76,1.26-4.14c2.8,0.24,5.61,0.57,8.42,0.44
	l0.58-0.24l0.4-0.33c1.6,0.75,3.13,1.62,4.74,2.36c1.49-0.71,2.95-1.51,4.34-2.41c0.51,0.45,1.02,0.91,1.51,1.38
	C121.68,72.25,126.54,71.53,126.37,67.52z"/>
<path fill="#BFBFBF" d="M84.35,68.74c2.75,0.68,5.51,1.41,8.34,1.729c1.39,0.91,2.77,1.83,4.15,2.76c-0.63-1.07-1.26-2.13-1.88-3.19
	c2.12,0.48,4.23,0.95,6.35,1.44c0.46-0.3,1.38-0.89,1.84-1.19c1.37,0.94,2.75,1.86,4.17,2.73c-2.81,0.13-5.62-0.2-8.42-0.44
	c-0.43,1.38-0.86,2.75-1.26,4.14c-0.74,0.25-2.24,0.76-2.99,1.01C91.11,74.86,87.61,71.93,84.35,68.74z"/>
<path fill="#CFCFCF" d="M183.02,69.75c2.891,1.5,6.16,1.66,9.351,1.78c1.909,0.14,3.7,0.89,5.5,1.479
	c-0.11,1.271-0.21,2.54-0.31,3.81c-2.031-0.93-4.271-1.09-6.431-0.54c-0.19,0.02-0.56,0.07-0.75,0.09c-0.21-0.55-0.62-1.65-0.83-2.2
	c-0.34,0.29-1.021,0.85-1.37,1.14c0.271,1.19,0.541,2.37,0.83,3.56c-0.68-0.04-2.029-0.11-2.71-0.15
	C185,75.81,183.82,72.84,183.02,69.75 M192.32,73.18c-0.811,1.7,3.029,3.04,3.34,1.13C195.26,73.05,193.4,72.36,192.32,73.18z"/>
<path fill="#E7E7E7" d="M192.32,73.18c1.08-0.82,2.939-0.13,3.34,1.13C195.35,76.22,191.51,74.88,192.32,73.18z"/>
<path fill="#B3B3B3" d="M188.18,75.31c0.35-0.29,1.03-0.85,1.37-1.14c0.21,0.55,0.62,1.65,0.83,2.2c0.19-0.02,0.56-0.07,0.75-0.09
	c4.28,2.2,10.181,3.47,11.931,8.54c-0.141,0.51-0.41,1.52-0.551,2.03c-3.22-0.97-5.119-4.37-8.52-4.88
	c-1.87-0.71-5.12-0.27-4.98-3.1C188.721,77.68,188.45,76.5,188.18,75.31z"/>
<path fill="#B8B8B8" d="M199.41,77.56c1.75-0.83,3.49-1.68,5.24-2.51c1.359,2.58,2.76,5.13,4.229,7.64
	c-1.39,0.58-2.78,1.18-4.159,1.79c-0.691,1.19-1.461,2.32-2.471,3.26l0.26-0.89c0.141-0.51,0.41-1.52,0.551-2.03
	c-1.75-5.07-7.65-6.34-11.931-8.54c2.16-0.55,4.399-0.39,6.431,0.54C198.02,77,198.95,77.38,199.41,77.56z"/>
<path fill="#C4C4C4" d="M207.12,75.21c1.319-0.3,1.819,1.64,2.271,2.53c0.389,0.52,0.59,2.72-0.611,1.78
	C207.77,78.43,206.52,76.76,207.12,75.21z"/>
<path fill="#FFFFFF" d="M0,93.19c0.72,1.75,1.18,3.58,1.79,5.37c0.08,0.5,0.25,1.5,0.33,2c1.06,1.7,2.18,3.38,3.18,5.12
	c3.69,3.63,6.97,7.81,11.32,10.7c1.26,1.07,2.5,2.17,3.76,3.25c1.43,0.91,2.75,1.979,4.05,3.05c1.41,0.86,2.78,1.79,4.2,2.62
	c0.92,0.8,1.82,1.601,2.74,2.39c1.41,0.83,2.77,1.761,4.16,2.621c1,0.699,2.01,1.39,3.04,2.039c1.56,1.291,3.17,2.51,4.85,3.65
	c3.09,0,6.18,0,9.27,0.02c1.53-1.68,3-3.43,4.21-5.359c0.11-0.5,0.31-1.51,0.41-2.01c0.81-2.131,0.69-4.431,0.7-6.66L58.7,122
	c0.31,1.189,0.65,2.38,1.02,3.561c0.12,0.479,0.36,1.449,0.49,1.93c0.68,1.71,1.33,3.42,2.08,5.1c0.35,0.971,0.69,1.96,1,2.95
	c0.63,1.7,1.27,3.399,1.99,5.06c0.36,0.99,0.69,1.98,1.01,2.971c0.25,0.5,0.76,1.51,1.01,2.01c0.24,0.51,0.71,1.52,0.95,2.029
	c0.54,0.961,1.08,1.921,1.63,2.881c0.06,0.479,0.17,1.439,0.22,1.92c0.97,1.26,1.87,2.57,2.72,3.92c0.2,0.529,0.61,1.59,0.81,2.12
	c0.89,1.37,1.83,2.72,2.71,4.1c1.06,1.32,2.13,2.66,3.02,4.11c4.64,4.67,8.9,9.87,14.27,13.72c1.26,1.08,2.49,2.19,3.73,3.3
	c1.06,0.62,2.1,1.29,3.13,1.971c1.01,0.649,1.99,1.34,2.98,2.029c1.36,0.86,2.69,1.78,4.05,2.65c1,0.67,2.01,1.34,3.05,1.96
	c1.99,1.09,3.87,2.33,5.85,3.43c1.41,0.83,2.76,1.75,4.15,2.61c0.96,0.45,1.92,0.89,2.89,1.34c1.37,0.86,2.71,1.8,4.09,2.67
	c0.51,0.24,1.52,0.721,2.03,0.95c0.51,0.24,1.54,0.7,2.05,0.93c1.67,0.99,3.28,2.07,4.931,3.101c1.629,0.789,3.26,1.57,4.899,2.35
	c1.37,0.87,2.71,1.8,4.08,2.68c0.521,0.221,1.56,0.67,2.08,0.891c0.96,0.54,1.909,1.08,2.87,1.619c2.1,0.141,4.289,0.041,6.25,0.951
	c2.66,0.239,5.46-0.101,7.98,0.979c1.85,0.16,3.709,0.26,5.559,0.42c3.421,1.56,7.421-0.03,10.781,1.79H0V93.19z"/>
<path fill="#FFFFFF" d="M244.75,109.13c2.5-0.16,5.01-0.16,7.51,0.02c3.62,1.13,7.471,1.34,11.18,2.15
	c1.32,0.41,2.67,0.71,4.021,1.04c1.17,0.35,2.351,0.69,3.54,1.02V219h-68.85c2.3-1.189,4.949-0.99,7.42-1.59
	c1.32-0.36,2.66-0.69,3.979-1.1c0.479-0.16,1.431-0.471,1.91-0.621c1.66-0.5,3.36-0.859,5.04-1.31c1.04-0.39,2.07-0.8,3.109-1.22
	c0.551-0.051,1.65-0.13,2.201-0.17c1.06-1.4,2.08-2.83,3.01-4.32c0.209-0.529,0.609-1.58,0.82-2.109
	c1.049-1.631,2.139-3.25,3.139-4.92c0.23-0.511,0.701-1.541,0.931-2.051c0.511-1.07,1.04-2.12,1.56-3.18
	c0.48-0.94,0.971-1.88,1.461-2.811c0.64-1.35,1.299-2.689,1.949-4.029c0.301-0.51,0.9-1.54,1.2-2.061
	c0.06-0.51,0.181-1.52,0.25-2.029c0.54-0.961,1.08-1.91,1.62-2.871c0.24-0.52,0.71-1.539,0.95-2.06c0.329-1.04,0.67-2.069,1.04-3.09
	c0.13-0.479,0.369-1.44,0.49-1.92c0.399-1.01,0.779-2.03,1.16-3.05c0.359-1.301,0.67-2.61,1.01-3.92
	c0.47-1.93,0.64-3.91,0.899-5.881c1.38-4.84,0.57-9.989,0.53-14.949c-1.13-2.66-0.66-5.641-1.46-8.381
	c-0.32-1.64-0.591-3.289-1.06-4.899c-0.301-1.7-0.92-3.41-0.65-5.16l0.439,1.38c1.16,0.51,2.32,1.051,3.49,1.57
	c1.32,0.7,2.65,1.38,3.98,2.05c1.42,0.7,2.85,1.4,4.289,2.07l0.17-1.05c-0.609-0.25-1.829-0.75-2.439-1.01
	c-1.07-0.53-2.119-1.07-3.18-1.601c-1.34-0.68-2.68-1.351-4.02-2c-0.681-0.351-2.041-1.06-2.73-1.41c-0.67-0.78-1.35-1.55-2.03-2.31
	c2.91,0,5.82-0.01,8.729,0.119c1.041,0.44,2.101,0.86,3.17,1.25c2.311,1.051,4.701,1.921,7.07,2.851
	c0.49,0.29,1.471,0.851,1.961,1.14c0.59,0.24,1.76,0.721,2.34,0.961l0.129-1c-0.609-0.24-1.84-0.73-2.459-0.971
	c-1.37-0.72-2.73-1.449-4.08-2.21c-0.5-0.06-1.52-0.19-2.03-0.25c-0.5-0.31-1.521-0.93-2.021-1.239
	c-0.989-0.381-1.969-0.75-2.959-1.121c-3.01-0.75-6.141-0.529-9.211-0.52c-0.51-1.34-1.039-2.66-1.539-3.99
	c2.539-0.02,5.09-0.14,7.619,0.11c2.91,0.64,5.5,2.16,8.24,3.239c1.43,0.671,2.86,1.351,4.301,2l0.139-1.039
	c-0.609-0.25-1.819-0.74-2.42-0.99c-3.1-1.59-6.18-3.27-9.569-4.16c-3-0.359-6.03-0.15-9.04-0.17c0-1.33,0-2.66,0-3.98
	c4.109-0.029,8.23-0.09,12.34,0.09c1.061,0.44,2.131,0.851,3.221,1.221c0.51,0.23,1.529,0.7,2.039,0.93c0.93,0.5,1.86,1,2.801,1.5
	c1.17,0.53,2.33,1.07,3.51,1.58l0.119-0.939c-1.5-0.681-2.969-1.381-4.43-2.12c-2.34-1.2-4.76-2.2-7.189-3.2
	c-4.131-0.13-8.25-0.08-12.381-0.08L241,117.02l-0.71-0.05c-0.479-1.189-0.99-2.36-1.49-3.53c1.341-0.409,2.66-0.869,3.96-1.399
	c1.68,0.01,3.43-0.05,4.971,0.78c2.18,0.149,4.359,0.21,6.539,0.369c1.641,0.631,3.4,0.82,5.131,1.11c1.17,0.36,2.34,0.69,3.52,1
	l0.1-1.17c-0.6-0.1-1.779-0.31-2.369-0.41c-1.65-0.479-3.34-0.77-5.01-1.09c-2.57-0.771-5.271-0.63-7.9-0.819
	c-1.54-0.811-3.28-0.771-4.961-0.75c-1.469,0.77-3.139,0.92-4.739,1.199c-0.021-0.54-0.04-1.63-0.06-2.17
	C240.25,109.95,242.67,110.26,244.75,109.13z"/>
<path fill="#FFFFFF" d="M205.32,109.69c1.109,1.169,2.189,2.38,3.06,3.75c-1.76,0.511-3.101,1.73-4.489,2.841
	C203.8,113.98,204.41,111.79,205.32,109.69z"/>
<path fill="#FFFFFF" d="M157.07,114.57c-0.6-1.33,0.85-1.961,1.63-2.73c0.92,1.03,1.34,2.32,1.64,3.65
	c0.23,0.74,0.68,2.21,0.91,2.949C159.75,117.26,158.33,115.99,157.07,114.57z"/>
<path d="M126.98,115.939c1.5-0.209,2.88-3.35,4.32-1.25c2.34,1.521-1.44,5-2.87,2.371c-10.32,0.159-20.92-1.03-30.94,1.64
	c-3.49,0.81-6.5,3.35-10.12,3.33c3.21-2.12,6.83-3.591,10.62-4.261l0.05-0.76c2.21-0.21,4.86,0.7,6.66-1.01
	C112.13,115.939,119.56,116.1,126.98,115.939z"/>
<path d="M241.029,116c4.131,0,8.25-0.05,12.381,0.08c2.43,1,4.85,2,7.189,3.2c1.461,0.739,2.93,1.439,4.43,2.12l-0.119,0.939
	c-1.18-0.51-2.34-1.05-3.51-1.58c-0.94-0.5-1.871-1-2.801-1.5c-0.51-0.229-1.529-0.699-2.039-0.93c-1.09-0.37-2.16-0.78-3.221-1.221
	c-4.109-0.18-8.23-0.119-12.34-0.09L241.029,116z"/>
<path fill="#FFFFFF" d="M232.23,120.82c-0.51-1.84,3.58-2.92,3.91-0.83C235.68,121.54,233.391,121.37,232.23,120.82z"/>
<path d="M111.55,120.07c3.25-0.12,6.5-0.061,9.75-0.07c2.53,2.08,6.11,0.609,9.08,0.939c0.6,0.471,1.21,0.94,1.83,1.391
	c1-0.971,2.68-3.68,4.101-1.641c2.209,1.511-1.121,4.701-2.781,2.621c-3.08-1.201-6.34-1.48-9.61-1.32
	c2.74,1.729-0.69,6.04-2.54,2.91c-4.2,1.09-8.49,1.27-12.82,1.16c-1.29,1.529-3.42,0.72-5.11,1.01c-2.72,1.119-6.04,1.66-7.84,4.22
	c-0.93,1.25-2.64,1.41-4.04,1.72c1.23-1.65,3.27-2.29,4.64-3.79c1.76-1.87,4.51-1.92,6.61-3.22c1.54,0,3.08-0.02,4.63-0.07
	c1.45-1.529,3.68-0.75,5.51-0.93c3.14,0.24,6.56-0.32,9.05-2.35l-0.01-1.01c-3.26-1.381-6.99-0.41-10.43-0.531
	c-2.33,1.261-5,1.591-7.47,2.48c-2.63,0.68-4.83,2.58-7.64,2.63c-1.49,1.021-3.08,2.37-5.08,1.8c1.46-0.899,2.94-1.779,4.54-2.41
	l0.13-0.359c4.02-0.96,7.83-2.79,11.74-4.18C109.21,121.24,110.47,120.91,111.55,120.07z"/>
<path d="M129.43,128.939c2.31-2.84,4.99,1.591,2.43,3.4c0.65-0.25,1.95-0.76,2.6-1.01c2.29,0.35,3.96-3.79,5.851-1.641
	c2.33,1.53-1.471,5-2.881,2.36c-0.959-0.01-1.92-0.01-2.87,0c-2.18,2-5.51,0.55-8.16,0.841c-0.56,0.409-1.11,0.81-1.66,1.219
	c3.27,1.391-0.5,5.811-2.31,2.951c-3.53-0.11-7.06-0.051-10.59-0.021c-1.3,0.25-2.57-0.2-3.54-1.04c-0.93,0-2.78,0-3.71,0
	l0.91-1.109c1.77,0.129,3.61,0.119,5.23,0.949c4.25-0.33,9.68,1.82,12.89-1.82c-1.96-0.02-3.93,0.011-5.89,0.121
	c-2.38,1.289-5.16,0.719-7.73,0.859v-0.939c2.58-0.141,5.34,0.31,7.74-0.891c2.7-0.33,5.71,0.48,8.1-1.15
	c1.49-0.02,2.98-0.029,4.48-0.02c-0.42-0.5-1.24-1.5-1.66-2c-9.18-0.79-18.24,1.59-26.59,5.26c0.49,0.84,1.54,1.21,2.52,0.74l0.54,1
	c-1.39-0.23-2.64-0.061-3.76,0.5l-0.49,0.35c-2.08,0.11-4.18,0-6.26,0.09c1.67-1.5,3.79-2.449,5.8-0.89
	c1.19-0.64-0.82-1.46-1.23-1.96c4.49-1.82,9.19-3.14,13.61-5.06c1.68-0.021,3.6,0.3,4.9-1.03
	C121.61,128.98,125.52,129.05,129.43,128.939z"/>
<path fill="#FFFFFF" d="M102.07,135.26c8.35-3.67,17.41-6.05,26.59-5.26c0.42,0.5,1.24,1.5,1.66,2c-1.5-0.01-2.99,0-4.48,0.02
	c-2.39,1.631-5.4,0.82-8.1,1.15c-2.4,1.2-5.16,0.75-7.74,0.891V135c2.57-0.141,5.35,0.43,7.73-0.859
	c1.96-0.11,3.93-0.141,5.89-0.121c-3.21,3.641-8.64,1.49-12.89,1.82c-1.62-0.83-3.46-0.82-5.23-0.949L104.59,136
	C103.61,136.47,102.56,136.1,102.07,135.26z"/>
<path d="M244.66,129.3c0.689,0.351,2.05,1.06,2.73,1.41c1.34,0.649,2.68,1.32,4.02,2c1.061,0.53,2.109,1.07,3.18,1.601
	c0.61,0.26,1.83,0.76,2.439,1.01l-0.17,1.05c-1.439-0.67-2.869-1.37-4.289-2.07c-1.33-0.67-2.66-1.35-3.98-2.05
	c-1.17-0.52-2.33-1.061-3.49-1.57L244.66,129.3z"/>
<path fill="#EFEFEF" d="M177.27,131.6c1.49-0.109,2.98-0.199,4.471-0.27c-0.19,0.939-0.43,1.87-0.69,2.8
	c-1.13,0.229-2.28,0.28-3.42,0.38C177.5,133.53,177.391,132.561,177.27,131.6z"/>
<path fill="#FFFFFF" d="M184.05,131.21c1.89,0.04,3.78,0.101,5.681,0.21c-0.541,1.52-1.041,3.061-1.69,4.53
	c-1.31-0.15-2.37-0.94-3.47-1.56C184.391,133.32,184.221,132.26,184.05,131.21z"/>
<path fill="#FFFFFF" d="M190.37,131.33c2.05,0.029,4.101,0.12,6.159,0.15l0.181,0.959c1.8,0.08,3.56,0.44,5.25,1.051
	c-0.22,0.84-0.67,2.51-0.899,3.35c-0.451-0.46-1.36-1.38-1.811-1.84c-0.65-0.72-1.29-1.439-1.92-2.16
	c-0.73,2.76-2.59,4.57-5.551,3.721C191.35,134.811,190.85,133.07,190.37,131.33z"/>
<path fill="#606060" d="M197.33,132.84c0.63,0.721,1.27,1.44,1.92,2.16c-2.311,1.28-4.88,3.65-7.471,1.561
	C194.74,137.41,196.6,135.6,197.33,132.84z"/>
<path fill="#E4E4E4" d="M164.561,135.98c0.629-1.461,3.6-0.931,3,0.859C167.01,138.47,164.07,137.68,164.561,135.98z"/>
<path d="M103.52,138.76c2.05-0.85,3.82-2.81,6.34-1.75c-1.77,0.87-3.59,1.6-5.45,2.26c-1.73,1.24-3.61,2.381-5.72,2.801
	C99.69,140.23,101.75,139.6,103.52,138.76z"/>
<path fill="#FFFFFF" d="M179.38,149.66c2.38-0.25,4.81-0.65,7.2-0.25c1.609,0.56,3.189,1.189,4.79,1.79
	c0.31,2.819,0.521,5.649,0.75,8.479c0.08,0.78,0.239,2.36,0.319,3.141c-4.879-1.131-9.85-1.49-14.84-1.351
	c0.18-2.56,0.57-5.09,0.82-7.63c0.24-0.34,0.74-1.02,0.99-1.359C179.4,151.78,179.391,150.37,179.38,149.66z"/>
<path fill="#878787" d="M186.58,149.41c1.811,0.29,4.01,0.1,5.449,1.449c0.631,2.32,0.75,4.73,1.101,7.101
	c0.82-0.76,1.649-1.51,2.47-2.26c2.061,0.34,5.08-0.92,6.351,1.27c1.11,2.38,1.42,5.04,1.86,7.601
	c-0.761,0.119-2.291,0.359-3.061,0.479c0.83,1.22,2.65,0.81,3.9,1.31c2.02,0.48,3.97,1.181,5.899,1.94
	c-7.729-1.63-15.71-2.09-23.28-4.45c4.24-0.24,8.541,1.471,12.621,1.23c-0.181-0.36-0.541-1.07-0.721-1.42
	c0.96,0.04,2.891,0.12,3.85,0.16c-0.66-2.43-1.31-4.87-1.939-7.301c-2.33,0.261-4.641,0.59-6.939,1.011
	c0.039,1.96,0.08,3.92,0.129,5.89c-0.74-1.24-1.449-2.49-2.149-3.74c-0.229-2.83-0.44-5.66-0.75-8.479
	C189.77,150.6,188.189,149.97,186.58,149.41z"/>
<path fill="#505050" d="M169.23,150.47c1.51-0.7,3.209-0.86,4.869-0.829c1.86,3.739,1.94,8.01,1.711,12.09
	c-5.031,0.199-10.121,0.64-15.121-0.2c1.69-0.101,3.381-0.19,5.07-0.271c-0.109-1.06-0.22-2.109-0.33-3.16
	C167.189,155.811,167.04,152.46,169.23,150.47 M169.26,151.18c-1.619,3.131-1.81,6.65-1.619,10.12c2.569,0.04,5.149,0.07,7.719,0.05
	c0.381-3.77-0.6-7.449-1.51-11.08C172.32,150.561,170.79,150.87,169.26,151.18z"/>
<path fill="#FFFFFF" d="M169.26,151.18c1.53-0.31,3.061-0.619,4.59-0.91c0.91,3.631,1.891,7.311,1.51,11.08
	c-2.569,0.021-5.149-0.01-7.719-0.05C167.45,157.83,167.641,154.311,169.26,151.18z"/>
<path fill="#FFFFFF" d="M207.96,153.26c2.54,0.381,4.25,2.641,5.17,4.881c0.69,2.909,1.149,5.869,1.46,8.85
	c-3.199-0.67-6.359-1.49-9.49-2.42c0.69-2.631,1.371-5.25,2.01-7.891C207.4,155.54,207.68,154.4,207.96,153.26z"/>
<path fill="#FFFFFF" d="M152.439,155.45c1.86-0.91,3.761-1.771,5.791-2.2c0.43,2.73,0.6,5.49,0.59,8.26
	c-2.45,0.01-4.881,0.021-7.32,0.061C151.52,159.48,151.57,157.38,152.439,155.45z"/>
<path fill="#FFFFFF" d="M160.41,155.859c0.93-0.489,1.869-1,2.8-1.51c0.69,0.811,1.39,1.631,2.09,2.45l0.13,1.3
	c0.11,1.051,0.221,2.101,0.33,3.16c-1.689,0.08-3.38,0.17-5.07,0.271C160.62,159.641,160.52,157.75,160.41,155.859z"/>
<path fill="#FFFFFF" d="M138.59,155.77c0.73-0.359,2.189-1.069,2.93-1.43c1.951,2.48,2.221,5.65,1.961,8.7
	c-2.08,0.521-4.131,1.149-6.19,1.75C137.21,161.73,137.09,158.561,138.59,155.77z"/>
<path fill="#FEFEFE" d="M144.49,158.67c0.85-1.47,2.5-1.33,3.96-1.47c0.319,1.71,0.69,3.409,1.05,5.12
	c-0.92,0.109-2.77,0.32-3.689,0.43C145.391,161.38,144.95,160.02,144.49,158.67z"/>
<path fill="#FFFFFF" d="M194.141,157.53c2.299-0.421,4.609-0.75,6.939-1.011c0.63,2.431,1.279,4.871,1.939,7.301
	c-0.959-0.04-2.89-0.12-3.85-0.16c-1.641-0.061-3.27-0.141-4.9-0.24C194.221,161.45,194.18,159.49,194.141,157.53z"/>
<path fill="#222222" d="M204.65,166.359c0-3.39,0.32-6.899,2.459-9.68c-0.639,2.641-1.319,5.26-2.01,7.891
	c3.131,0.93,6.291,1.75,9.49,2.42c-0.311-2.98-0.77-5.94-1.46-8.85c0.44,0.159,1.32,0.489,1.761,0.649
	c1.949-1.51,4.51-2.64,6.31-0.271c-1.591-0.06-3.181-0.109-4.761-0.149c0.141,3.149-0.43,6.5,0.601,9.51
	c2.21,1.261,4.649,2.011,6.97,3.03c-0.51-3.45-1.279-6.85-2.23-10.21c1.701,1.62,2.131,3.97,2.74,6.13
	c0.15-0.71,0.431-2.141,0.57-2.85c0.35,0,1.04,0,1.391,0c-0.851,2.289-1.221,4.77-0.601,7.18c1.021,1.06,2.341,1.75,3.57,2.55
	c-0.44,0.3-1.33,0.899-1.771,1.21c-5.56-2.58-11.359-4.57-17.13-6.62C208.62,167.54,206.67,166.84,204.65,166.359z"/>
<path fill="#FFFFFF" d="M216.439,158.37c1.58,0.04,3.17,0.09,4.761,0.149c0.14,0.541,0.43,1.641,0.579,2.181
	c0.951,3.36,1.721,6.76,2.23,10.21c-2.32-1.02-4.76-1.77-6.97-3.03C216.01,164.87,216.58,161.52,216.439,158.37z"/>
<path fill="#FEFEFE" d="M225.88,171.16c-0.62-2.41-0.25-4.891,0.601-7.18c0.59,1.3,1.189,2.6,1.789,3.899
	c0.701,2.021,1.33,4.07,1.74,6.17l-0.56-0.34C228.221,172.91,226.9,172.22,225.88,171.16z"/>
<path fill="#767676" d="M222.26,177.45c0.94,1.28,1.7,2.659,2.28,4.149c0.22-1.289,0.521-2.55,0.91-3.8
	c0.521,2.06,0.909,4.15,1.14,6.261c0.27-2.28-0.51-5.28,1.99-6.621c-0.17,5.73,0.04,12.061-3.4,16.971
	c-1.5-1.67-1.64-3.85-1.57-5.99l0.881,0.57c0.38,0.17,1.13,0.51,1.51,0.68c0.27-1.029-0.02-1.88-0.891-2.58
	c-0.159-0.8-0.459-2.39-0.609-3.189c-0.4,1.069-0.79,2.14-1.189,3.209C222.98,183.891,222.439,180.689,222.26,177.45z"/>
<path fill="#1A1A1A" d="M136.359,182.57c0.531,1.16,1.011,2.35,1.471,3.539c3.9,5.65,8.55,10.761,13.63,15.371
	c2.59,2.649,5.979,4.81,7.33,8.42c-2.649-1.5-4.5-3.95-6.71-5.971c-3.78-3.55-7.59-7.09-10.891-11.09
	c-1.549-2.22-3.359-4.23-5.27-6.13C136.04,185.32,136.189,183.939,136.359,182.57z"/>
<path fill="#C1C1C1" d="M225.109,187.09c0.871,0.7,1.16,1.551,0.891,2.58c-0.38-0.17-1.13-0.51-1.51-0.68
	C224.65,188.51,224.95,187.57,225.109,187.09z"/>
<path fill="#B1B1B1" d="M226.21,200.99C226.779,201.609,226.779,201.609,226.21,200.99z"/>
<path fill="#EFEFEF" d="M225.13,202.46l0.99,0.29c-0.63,1.22-1.229,2.46-1.81,3.71c-0.58,1.36-1.601,2.37-2.94,2.979
	c0.79-1.529,1.64-3.02,2.54-4.479C224.221,204.34,224.82,203.09,225.13,202.46z"/>
<path fill="#CFCFCF" d="M179.221,212.37l2.719,0.72c6.891,1.41,14.101,0.84,21.061,0.141V214c-7.58-0.061-15.16,0.1-22.73-0.05
	L179.221,212.37z"/>
</svg>
