<?xml version="1.0" encoding="utf-8"?>
<!-- Generator: Adobe Illustrator 15.0.2, SVG Export Plug-In . SVG Version: 6.00 Build 0)  -->
<!DOCTYPE svg PUBLIC "-//W3C//DTD SVG 1.1//EN" "http://www.w3.org/Graphics/SVG/1.1/DTD/svg11.dtd">
<svg version="1.1" id="Layer_1" xmlns="http://www.w3.org/2000/svg" xmlns:xlink="http://www.w3.org/1999/xlink" x="0px" y="0px"
	 width="249px" height="240px" viewBox="0 0 249 240" enable-background="new 0 0 249 240" xml:space="preserve">
<path fill="#FFFFFF" d="M0,0h110.85c-8.8,2.05-17.95,3.09-26.5,6.23c-4.48,1.16-8.79,2.97-12.92,5.04
	c-5.6,3.13-11.56,5.64-16.87,9.26c-5.49,4.54-11.03,9.02-16.74,13.28c-2.73,2.03-4.28,5.14-6.62,7.54
	c-3.75,4.71-7.96,9.04-11.36,14.03c-1.29,1.98-2.53,4-3.53,6.15c-2.32,3.479-4.1,7.27-6.02,10.97c-0.87,2.99-2.47,5.71-3.09,8.78
	c-2.06,3.81-2.05,8.27-3.71,12.229c-0.84,3.58-1.18,7.25-1.8,10.87c-1.89,5.04,0.65,10.69-1.69,15.6V0z"/>
<path fill="#020202" d="M110.85,0h28.22c5.38,1.63,11.18,1.67,16.539,3.55c2.051,0.27,4.061,0.71,6.051,1.27
	c1.32,0.5,2.66,0.96,3.99,1.43c3.08,0.67,5.89,2.11,8.879,3.04c0.99,0.49,1.961,1,2.941,1.52c4.629,2.48,9.459,4.59,13.909,7.37
	c1.021,0.51,2.04,1.02,3.06,1.54c4.82,4.15,9.86,8.03,14.82,12.01c6.41,3.89,9.6,11.01,14.98,16.02c3.52,4.3,6.96,8.78,9.35,13.83
	c2.4,3.42,4.15,7.22,6.04,10.92c1.271,3.7,2.67,7.35,4.021,11.01c1.029,3.3,1.479,6.76,2.77,9.98c1.12,4.15,1.01,8.57,2.58,12.6
	v27.74c-1.561,4.061-1.471,8.5-2.58,12.67c-1.93,7.109-4.09,14.13-6.779,21c-1.891,3.72-3.65,7.53-6.061,10.939
	c-4.62,9.881-13.03,17.07-19.311,25.791c-3.289,3.109-7.16,5.55-10.59,8.51c-4.189,2.92-7.6,6.949-12.3,9.13
	c-4.51,2.7-9.319,4.86-13.94,7.38c-0.969,0.49-1.939,0.97-2.92,1.46c-9.5,3.729-19.39,6.29-29.43,8.08c-2,0.26-4.08,0.271-5.93,1.21
	h-28.17c-4.27-1.35-8.84-1.33-13.14-2.6c-1.16-0.301-2.31-0.61-3.46-0.92c-2.98-0.36-5.84-1.271-8.66-2.24
	c-1.01-0.311-2.03-0.6-3.06-0.87c-2.43-0.86-4.82-1.82-7.25-2.69c-1.35-0.649-2.69-1.31-4.03-1.949
	c-3.73-1.98-7.39-4.121-11.32-5.69c-0.34-0.33-1-1.01-1.34-1.351c-1.1-0.449-2.2-0.899-3.29-1.359
	c-6.27-5.77-13.43-10.5-19.78-16.15c-6.35-8.63-14.65-15.92-19.34-25.699c-2.32-3.471-4.08-7.261-6.01-10.95
	c-0.94-2.99-2.31-5.83-3.25-8.83c-1.77-3.9-1.94-8.28-3.57-12.23c-0.85-3.579-1.19-7.25-1.8-10.87c-1.43-5.05-0.46-10.38-0.65-15.55
	L0,120v-0.02c2.34-4.91-0.2-10.56,1.69-15.6c0.62-3.62,0.96-7.29,1.8-10.87c1.66-3.96,1.65-8.42,3.71-12.229
	c0.62-3.07,2.22-5.79,3.09-8.78c1.92-3.7,3.7-7.49,6.02-10.97c1-2.15,2.24-4.17,3.53-6.15c3.4-4.99,7.61-9.32,11.36-14.03
	c2.34-2.4,3.89-5.51,6.62-7.54c5.71-4.26,11.25-8.74,16.74-13.28c5.31-3.62,11.27-6.13,16.87-9.26c4.13-2.07,8.44-3.88,12.92-5.04
	C92.9,3.09,102.05,2.05,110.85,0 M103.47,5.44c-1.48,0.2-3.16-0.12-4.39,0.95c-0.63,0.03-1.91,0.09-2.55,0.13
	c-1.75,1.28-4.06,0.59-5.98,1.41c-2.31,0.89-4.64,1.71-7.02,2.37c-0.97,0.4-1.95,0.75-2.95,1.04c-2.59,1.47-5.49,2.28-8.13,3.68
	c-0.96,0.49-1.92,0.99-2.87,1.5c-0.95,0.42-1.9,0.83-2.85,1.24c-2.18,1.03-4.21,2.34-6.27,3.58c-5.5,3.04-9.68,8.05-15.1,11.26
	c-2.49,2.76-6.02,4.44-8.09,7.6c-1.27,1.99-3.05,3.57-4.85,5.07c-0.07,0.38-0.23,1.13-0.3,1.51c-3.81,3.41-6.66,7.68-9.77,11.7
	c-0.76,1.31-1.6,2.56-2.34,3.88c-0.92,1.87-2.12,3.58-3.23,5.34c-0.37,0.97-0.78,1.93-1.21,2.88c-0.25,0.48-0.74,1.45-0.99,1.94
	c-1.04,3.43-3.02,6.51-3.72,10.04c-0.53,0.97-1.05,1.95-1.55,2.94c-0.71,3.4-1.22,6.94-2.8,10.07c-0.06,1.5-0.09,3-0.17,4.51
	c-1.48,1.95-0.08,4.69-1.63,6.62c-0.22,4.26,0.15,8.53-0.15,12.78l-0.8,0.92c1.26,1.2,0.87,3.01,0.93,4.56
	c-0.26,5.03,0.22,10.21,1.66,14.97c-0.27,3.08,0.67,5.971,1.79,8.78c0.32,1.95,0.83,3.86,1.14,5.81c0.52,0.961,1.03,1.92,1.54,2.891
	c1.19,4.14,2.96,8.12,4.79,11.99c0.43,0.949,0.82,1.92,1.16,2.91c0.9,1.42,1.88,2.789,2.67,4.279c0.66,1.37,1.45,2.67,2.39,3.87
	c3.21,5.431,7.78,9.97,11.63,14.81c3.18,1.57,3.93,5.49,6.6,7.631c1.87,1.39,3.69,2.859,5.32,4.529
	c5.45,3.101,9.55,8.24,15.07,11.24c2.1,1.141,4.07,2.54,6.24,3.58c0.96,0.41,1.92,0.811,2.89,1.22c4.46,2.45,9.18,4.36,13.91,6.22
	c4.01,0.881,7.64,3.291,11.85,3.11c1.13,0.7,2.45,0.8,3.73,1.011c1.39,0.619,2.93,0.649,4.43,0.789c2.53,1.45,5.73-0.039,8.18,1.631
	c8.88-0.011,17.759,0.09,26.63-0.051c2.06-1.27,4.539-0.74,6.83-0.93c2.979-1.439,6.56-0.92,9.539-2.46
	c3.131,0.2,5.891-1.37,8.82-2.14c0.92-0.471,1.891-0.771,2.91-0.92c2.41-0.9,4.72-2.07,7.16-2.9c1.65-0.76,3.27-1.58,4.88-2.42
	c2.479-1.08,4.86-2.38,7.34-3.48c1.22-0.789,2.431-1.619,3.729-2.3c3.381-1.7,6.061-4.479,8.961-6.86
	c1.76-1.069,3.369-2.369,4.729-3.93c0.39-0.09,1.16-0.27,1.54-0.359c1.2-1.431,2.48-2.82,4.07-3.811c3.02-1.95,4.52-5.37,7.209-7.68
	c3.73-4.91,7.891-9.48,11.761-14.311c-0.601-0.27-1.2-0.539-1.79-0.81c1.74-0.55,3.59-1.181,3.91-3.25
	c0.57-1.24,1.21-2.46,2.109-3.5c1.11-2.21,2.17-4.45,3.311-6.64c1.66-3.99,3.22-8.011,4.75-12.041
	c0.63-1.52,0.939-3.129,1.359-4.709c0.291-2.23,1.15-4.311,1.801-6.45c0.289-1.99,0.07-4.101,0.99-5.95
	c-0.181-2.88,1.1-5.55,1.039-8.41c-0.029-6.65-0.06-13.3,0.01-19.96c-0.09-1.53,0.33-3.28-0.909-4.5c-0.03-1.27-0.05-2.53-0.06-3.8
	c-1.551-2.17-0.16-5.03-1.58-7.21c-0.721-2.98-1.73-5.9-2.07-8.95c-0.51-0.98-1.03-1.96-1.561-2.94c-0.74-3.53-2.57-6.67-3.77-10.04
	c-1.15-2.21-2.26-4.43-3.34-6.67c-2.16-2.05-1.94-6.36-5.631-6.34c0.391-0.47,0.801-0.94,1.221-1.39
	c-5.66-6.92-11.35-13.77-17.15-20.54c-4.109-3.03-7.72-6.76-12.109-9.37c-3.03-2.73-6.01-5.8-9.881-7.29
	c-0.85-0.65-1.709-1.29-2.59-1.91c-0.91-0.4-1.81-0.81-2.699-1.229c-1.57-0.73-3.131-1.48-4.7-2.2c-3.86-2.07-7.97-3.63-12.03-5.28
	c-1.01-0.23-1.98-0.53-2.93-0.92c-1.44-0.46-2.87-0.93-4.29-1.43c-1.86-0.83-3.99-0.47-5.86-1.29c-2.279-0.47-4.54-1.08-6.869-1.26
	c-2.521-1.49-5.681,0.01-8.171-1.58c-8.88-0.13-17.76-0.05-26.65-0.04C109.2,5.49,105.93,3.8,103.47,5.44z"/>
<path fill="#FFFFFF" d="M139.07,0H249v106.09c-1.57-4.03-1.46-8.45-2.58-12.6c-1.29-3.22-1.74-6.68-2.77-9.98
	c-1.351-3.66-2.75-7.31-4.021-11.01c-1.89-3.7-3.64-7.5-6.04-10.92c-2.39-5.05-5.83-9.53-9.35-13.83
	c-5.381-5.01-8.57-12.13-14.98-16.02c-4.96-3.98-10-7.86-14.82-12.01c-1.02-0.52-2.039-1.03-3.06-1.54
	c-4.45-2.78-9.28-4.89-13.909-7.37c-0.98-0.52-1.951-1.03-2.941-1.52c-2.989-0.93-5.799-2.37-8.879-3.04
	c-1.33-0.47-2.67-0.93-3.99-1.43c-1.99-0.56-4-1-6.051-1.27C150.25,1.67,144.45,1.63,139.07,0z"/>
<path fill="#FFFFFF" d="M103.47,5.44c2.46-1.64,5.73,0.05,8.18-1.66c8.89-0.01,17.77-0.09,26.65,0.04
	c2.49,1.59,5.65,0.09,8.171,1.58c2.329,0.18,4.59,0.79,6.869,1.26c1.87,0.82,4,0.46,5.86,1.29c1.42,0.5,2.85,0.97,4.29,1.43
	c0.949,0.39,1.92,0.69,2.93,0.92c4.061,1.65,8.17,3.21,12.03,5.28c1.569,0.72,3.13,1.47,4.7,2.2c0.89,0.42,1.789,0.83,2.699,1.229
	c0.881,0.62,1.74,1.26,2.59,1.91c3.871,1.49,6.851,4.56,9.881,7.29c4.39,2.61,8,6.34,12.109,9.37
	c5.801,6.77,11.49,13.62,17.15,20.54c-0.42,0.45-0.83,0.92-1.221,1.39c3.69-0.02,3.471,4.29,5.631,6.34
	c1.08,2.24,2.189,4.46,3.34,6.67c1.199,3.37,3.029,6.51,3.77,10.04c0.53,0.98,1.051,1.96,1.561,2.94c0.34,3.05,1.35,5.97,2.07,8.95
	c1.42,2.18,0.029,5.04,1.58,7.21c0.01,1.27,0.029,2.53,0.06,3.8c1.239,1.22,0.819,2.97,0.909,4.5
	c-0.069,6.66-0.039,13.31-0.01,19.96c0.061,2.86-1.22,5.53-1.039,8.41c-0.92,1.85-0.701,3.96-0.99,5.95
	c-0.65,2.14-1.51,4.22-1.801,6.45c-0.42,1.58-0.729,3.189-1.359,4.709c-1.53,4.03-3.09,8.051-4.75,12.041
	c-1.141,2.189-2.2,4.43-3.311,6.64c-0.899,1.04-1.539,2.26-2.109,3.5c-0.32,2.069-2.17,2.7-3.91,3.25
	c0.59,0.271,1.189,0.54,1.79,0.81c-3.87,4.83-8.03,9.4-11.761,14.311c-2.689,2.31-4.189,5.729-7.209,7.68
	c-1.59,0.99-2.87,2.38-4.07,3.811c-0.38,0.09-1.15,0.27-1.54,0.359c-1.36,1.561-2.97,2.86-4.729,3.93
	c-2.9,2.381-5.58,5.16-8.961,6.86c-1.299,0.681-2.51,1.511-3.729,2.3c-2.479,1.101-4.86,2.4-7.34,3.48
	c-1.61,0.84-3.229,1.66-4.88,2.42c-2.44,0.83-4.75,2-7.16,2.9c-1.02,0.149-1.99,0.449-2.91,0.92c-2.93,0.77-5.689,2.34-8.82,2.14
	c-2.979,1.54-6.56,1.021-9.539,2.46c-2.291,0.189-4.771-0.34-6.83,0.93c-8.871,0.141-17.75,0.04-26.63,0.051
	c-2.45-1.67-5.65-0.181-8.18-1.631c-1.5-0.14-3.04-0.17-4.43-0.789c-1.28-0.211-2.6-0.311-3.73-1.011
	c-4.21,0.181-7.84-2.229-11.85-3.11c-4.73-1.859-9.45-3.77-13.91-6.22c-0.97-0.409-1.93-0.81-2.89-1.22
	c-2.17-1.04-4.14-2.439-6.24-3.58c-5.52-3-9.62-8.14-15.07-11.24c-1.63-1.67-3.45-3.14-5.32-4.529c-2.67-2.141-3.42-6.061-6.6-7.631
	c-3.85-4.84-8.42-9.379-11.63-14.81c-0.94-1.2-1.73-2.5-2.39-3.87c-0.79-1.49-1.77-2.859-2.67-4.279
	c-0.34-0.99-0.73-1.961-1.16-2.91c-1.83-3.87-3.6-7.851-4.79-11.99c-0.51-0.971-1.02-1.93-1.54-2.891
	c-0.31-1.949-0.82-3.859-1.14-5.81c-1.12-2.81-2.06-5.7-1.79-8.78c-1.44-4.76-1.92-9.939-1.66-14.97c-0.06-1.55,0.33-3.36-0.93-4.56
	l0.8-0.92c0.3-4.25-0.07-8.52,0.15-12.78c1.55-1.93,0.15-4.67,1.63-6.62c0.08-1.51,0.11-3.01,0.17-4.51
	c1.58-3.13,2.09-6.67,2.8-10.07c0.5-0.99,1.02-1.97,1.55-2.94c0.7-3.53,2.68-6.61,3.72-10.04c0.25-0.49,0.74-1.46,0.99-1.94
	c0.43-0.95,0.84-1.91,1.21-2.88c1.11-1.76,2.31-3.47,3.23-5.34c0.74-1.32,1.58-2.57,2.34-3.88c3.11-4.02,5.96-8.29,9.77-11.7
	c0.07-0.38,0.23-1.13,0.3-1.51c1.8-1.5,3.58-3.08,4.85-5.07c2.07-3.16,5.6-4.84,8.09-7.6c5.42-3.21,9.6-8.22,15.1-11.26
	c2.06-1.24,4.09-2.55,6.27-3.58c0.95-0.41,1.9-0.82,2.85-1.24c0.95-0.51,1.91-1.01,2.87-1.5c2.64-1.4,5.54-2.21,8.13-3.68
	c1-0.29,1.98-0.64,2.95-1.04c2.38-0.66,4.71-1.48,7.02-2.37c1.92-0.82,4.23-0.13,5.98-1.41c0.64-0.04,1.92-0.1,2.55-0.13
	C100.31,5.32,101.99,5.64,103.47,5.44 M73.51,70.25c-0.53,0.25-1.58,0.76-2.11,1.01c-3.54,1.48-6.45,4.16-10.04,5.46
	c-4.31,3.68-7.09,8.9-8.75,14.19c0.25,4.23-0.75,8.72,0.55,12.79c1.59,4.36,3.95,8.57,7.38,11.75c3.43,1.8,6.47,4.27,10.06,5.76
	c0.97,0.55,1.95,1.06,2.96,1.53c5.85,1.65,11.96,0.859,17.95,0.979c1.11-0.989,2.57-0.85,3.92-0.979c3.78-1.9,7.4-4.06,11.01-6.25
	c4.55-2.21,6.77-7.47,8.59-11.91c1.63-4.68,1.55-9.98,0.46-14.76c-1.3-4.55-3.7-8.85-7-12.25c-4.36-2.46-8.62-5.1-13.1-7.37
	c-1.36-0.12-2.79-0.14-3.94-1.02c-4.61-0.07-9.22-0.04-13.83,0.01C76.3,69.73,74.92,70.06,73.51,70.25 M168.45,86.12
	c-0.979,0.48-1.95,0.95-2.94,1.41c-2.91,2.2-6.71,2.99-9.26,5.689c-3.27,3.09-5.859,7.021-7.2,11.34c-1.26,2.06,0.22,4.83-1.42,6.66
	c1.5,1.79,0.66,4.2,0.82,6.311c0.63,0.83,0.97,1.77,1.021,2.82c1.93,4.41,4.869,8.44,8.699,11.37c2.801,1.53,5.57,3.101,8.221,4.88
	c1.469,0.57,2.979,1.01,4.549,1.19c4.961,1.45,10.311,0.33,15.431,0.63c1.19-0.84,2.63-0.9,4.03-0.96
	c6.209-3.5,13.209-6.5,16.83-13.06c0.47-0.971,0.93-1.94,1.399-2.91c2.32-5.83,2.149-12.55,0.53-18.53
	c-2.15-4.25-4.51-8.67-8.58-11.4c-3.51-1.56-6.74-3.63-10.03-5.58c-0.96-0.07-1.909-0.15-2.86-0.22c-0.42-0.18-1.26-0.56-1.68-0.75
	C180.141,85.03,174.141,84.34,168.45,86.12 M34.34,111.64c-1.34,1.13-1.5,2.43-0.25,3.77c1.58-0.03,3.16-0.04,4.74-0.05
	c-0.09,7.24-0.02,14.48-0.03,21.72c1.56,1.24,2.78,2.82,3.04,4.859c1.04,0.91,2.49,1.48,2.67,3.051c0.55,0,1.67,0,2.22,0
	c1.23,4.609,5.73,6.979,8.53,10.529c0.13,4.17,1.41,8.19,0.92,12.42c0.38,3.011,4.2,1.73,6.25,1.92c1.12,1.221,2.36,2.451,2.32,4.25
	c0.75,0.811,1.5,1.621,2.25,2.44c0.84,1.48,1.77,2.92,2.43,4.49c0.65-0.021,1.93-0.05,2.57-0.07c0,0.421,0,1.25,0.01,1.671
	c3.16,1,5.67,3.31,8.71,4.609c1.37-0.1,2.63,0.22,3.75,0.97c9.24,0.091,18.47-0.01,27.7,0.05c0.46-0.93,0.92-1.85,1.4-2.77
	c1.74,0.04,3.65,0.391,5.14-0.78c2.37-0.1,4.74-0.069,7.11-0.09c3.1,2.08,4.229,6.181,7.689,7.69c0.68,1.649,2.561,2.229,3.6,3.609
	c1.111,1.37,1.711,3.5,3.801,3.62c0.04,0.32,0.119,0.96,0.16,1.28c2.01,0.49,3.51,1.939,4.1,3.92c2.77,0.63,5.17,2.311,7.95,2.92
	c3.14,0.17,6.29,0.061,9.44,0.11c0.949-0.87,1.959-1.7,3.199-2.11c1.301-2.33,1.801-5.59,4.561-6.66
	c0.56-1.22,1.49-2.119,2.689-2.72c0.471-2.04,3.221-2.149,3.36-4.33c4.62,0.72,9.01-0.78,13.56-0.91c0.061-0.46,0.18-1.37,0.24-1.83
	c2.551,0.12,4.26-1.87,6.28-3.06c-0.04-3.21-0.05-6.43,0.06-9.63c1.971-1.811,3.631-3.97,4.76-6.4c2.771-1.45,7.221-1.59,8.34-4.94
	c1.391-0.049,2.871,0.131,4.021-0.869c0.591-0.03,1.761-0.09,2.351-0.131l-0.08-1.489c2.1,0.13,2.699-1.54,2.85-3.29
	c1.2-0.86,2.359-1.79,3.51-2.721c-0.01-0.6-0.029-1.799-0.039-2.409c-0.511-0.341-1.531-1.03-2.041-1.38
	c-2.06,2.52-5.5,3.72-6.01,7.279c-3.939,0.93-7.54,2.75-10.9,4.98c-0.42-0.02-1.27-0.061-1.689-0.08c-1.4,2.17-4.6,2.73-5.359,5.29
	c-0.801,1.76-2,3.271-3.4,4.59c-0.041,2.771-0.051,5.54,0.05,8.31c-4.3,4.84-11.2,5.16-17.229,4.99
	c-5.381,4.34-10.73,9.061-14.201,15.12c-3.299,1.41-7.779,0.96-10.879-1.12c-2.711-0.32-4.09-2.92-6-4.54
	c-0.391-0.159-1.17-0.47-1.561-0.62c-2.12-3.189-4.79-5.959-7.971-8.1c-1.93-3.12-4.789-5.43-7.329-8.02
	c-6.14,0.1-13.53-1.041-18.35,3.629c-7.13,0.08-14.26,0.011-21.39,0.051c-1.86,0.13-3.6-0.57-5.35-1.07c-3.78-1.13-7-3.72-9.88-6.3
	c-1.21-2.601-4.63-3.84-4.67-6.95c-1.27-1.51-2.64-2.93-4.03-4.32c-1.36,0.061-2.72,0.121-4.08,0.19c0.04-2.58,0.06-5.16-0.04-7.74
	c-1.35-1.27-0.77-3.18-0.91-4.78c-2.45-2.779-5.72-4.909-7.51-8.209c-0.55-1.7-1.65-3.09-2.94-4.291
	c-3.93,0.881-3.17-4.529-6.14-5.869c-0.01-7.11,0-14.221-0.01-21.34c-0.73-0.74-1.46-1.49-2.19-2.23
	C38.25,111.75,36.3,111.73,34.34,111.64z"/>
<path fill="#060202" d="M73.51,70.25c1.41-0.19,2.79-0.52,4.11-1.06c4.61-0.05,9.22-0.08,13.83-0.01c1.15,0.88,2.58,0.9,3.94,1.02
	c4.48,2.27,8.74,4.91,13.1,7.37c3.3,3.4,5.7,7.7,7,12.25c1.09,4.78,1.17,10.08-0.46,14.76c-1.82,4.44-4.04,9.7-8.59,11.91
	c-3.61,2.19-7.23,4.35-11.01,6.25c-1.35,0.13-2.81-0.01-3.92,0.979c-5.99-0.12-12.1,0.671-17.95-0.979
	c-1.01-0.471-1.99-0.98-2.96-1.53c-3.59-1.49-6.63-3.96-10.06-5.76c-3.43-3.18-5.79-7.39-7.38-11.75c-1.3-4.07-0.3-8.56-0.55-12.79
	c1.66-5.29,4.44-10.51,8.75-14.19c3.59-1.3,6.5-3.979,10.04-5.46C71.93,71.01,72.98,70.5,73.51,70.25 M74.36,74.09
	c-2.42,1.56-5.53,2.03-7.45,4.29c2.85,0.2,5.79-0.29,8.6,0.35c2.36,1.17,4.26,3.33,7.04,3.5c2.01,1.18,3.88,2.57,5.89,3.74
	c3.57-0.14,7.14-0.04,10.71-0.09c1.64,1.54,3.07,3.28,4.05,5.32c3.22-0.12,6.23,1.3,9.45,1.18c-1.07-3.64-3.01-6.84-4.92-10.06
	c-0.97-0.97-1.97-1.9-3-2.8c-3.54-1.45-6.5-4.05-10.15-5.24C88.08,72.2,80.93,72.52,74.36,74.09 M61.27,81.77
	c-0.83,2.49-2.63,4.46-3.78,6.78c-1.99,3.11-1.16,6.95-1.34,10.43c-0.43,3.29,1.89,5.85,3.12,8.67c1.38,1.64,2.31,3.68,3.98,5.07
	c2.04,1.32,4.2,2.44,6.25,3.771c1.64,0.78,3.3,1.53,4.9,2.38c6.57,1.71,13.62,1.771,20.17-0.06c3.91-2.09,7.97-4,11.57-6.62
	c1.95-2.21,3.71-4.7,4.85-7.45c0.37-1,0.62-2.04,0.73-3.11l0.83-0.45c-0.02-1.75-0.05-3.49-0.09-5.23
	c-2.34-0.17-4.97,0.59-7.04-0.85c-1.14,0.01-2.28,0.04-3.42,0.08c-1.69-1.57-3.16-3.36-4.02-5.52c-3.78-0.23-7.57-0.12-11.35-0.14
	l0.26-0.68c-2.11-0.3-3.93-1.46-5.37-2.98c-0.53,0.01-1.58,0.05-2.11,0.07l-0.45-0.77c-2.09-0.08-3.44-1.69-4.78-3.07
	c-2.7-0.03-5.41,0-8.11-0.01c-0.91,0.71-1.84,1.39-2.8,2.05C62.6,83.34,61.93,82.56,61.27,81.77z"/>
<path fill="#B4B3B4" d="M74.36,74.09c6.57-1.57,13.72-1.89,20.22,0.19c3.65,1.189,6.61,3.79,10.15,5.24c1.03,0.9,2.03,1.83,3,2.8
	c1.91,3.22,3.85,6.42,4.92,10.06c-3.22,0.12-6.23-1.3-9.45-1.18c-0.98-2.04-2.41-3.78-4.05-5.32c-3.57,0.05-7.14-0.05-10.71,0.09
	c-2.01-1.17-3.88-2.56-5.89-3.74c-2.78-0.17-4.68-2.33-7.04-3.5c-2.81-0.64-5.75-0.15-8.6-0.35C68.83,76.12,71.94,75.65,74.36,74.09
	z"/>
<path fill="#EBADBB" d="M61.27,81.77c0.66,0.79,1.33,1.57,2,2.36c-1.94,1.13-3.78,2.77-3.63,5.23c-0.09,4.69-2.39,9.59-0.13,14.07
	c1.4,3.33,3.08,6.84,6.28,8.78c5.61,3.6,12.21,5.33,18.76,6.2c2.1,0.31,4.26,0.14,6.27-0.57c4.66-1.57,9.6-3.21,12.98-6.99
	c2.97-2.82,3.87-7.58,7.92-9.22c-0.11,1.07-0.36,2.11-0.73,3.11c-1.14,2.75-2.9,5.24-4.85,7.45c-3.6,2.62-7.66,4.53-11.57,6.62
	c-6.55,1.831-13.6,1.77-20.17,0.06c-1.6-0.85-3.26-1.6-4.9-2.38c-2.05-1.33-4.21-2.45-6.25-3.771c-1.67-1.39-2.6-3.43-3.98-5.07
	c-1.23-2.82-3.55-5.38-3.12-8.67c0.18-3.48-0.65-7.32,1.34-10.43C58.64,86.23,60.44,84.26,61.27,81.77z"/>
<path fill="#FDA2B0" d="M63.27,84.13c0.96-0.66,1.89-1.34,2.8-2.05c2.7,0.01,5.41-0.02,8.11,0.01c1.34,1.38,2.69,2.99,4.78,3.07
	l0.45,0.77c0.64,1.07,1.32,2.12,2.02,3.15c-1.58,1.79-3.74,3.47-3.95,6.02c0.07,1.39,1.26,2.26,2.16,3.15
	c0.9,0.33,1.82,0.62,2.76,0.88c0.77-0.86,1.54-1.72,2.32-2.58c0.06-0.52,0.19-1.56,0.26-2.08c0.44-1.68,1.01-3.33,1.65-4.95
	c3.78,0.02,7.57-0.09,11.35,0.14c0.86,2.16,2.33,3.95,4.02,5.52c1.14-0.04,2.28-0.07,3.42-0.08c2.07,1.44,4.7,0.68,7.04,0.85
	c0.04,1.74,0.07,3.48,0.09,5.23l-0.83,0.45c-4.05,1.64-4.95,6.4-7.92,9.22c-3.38,3.78-8.32,5.42-12.98,6.99
	c-2.01,0.71-4.17,0.88-6.27,0.57c-6.55-0.87-13.15-2.6-18.76-6.2c-3.2-1.94-4.88-5.45-6.28-8.78c-2.26-4.48,0.04-9.38,0.13-14.07
	C59.49,86.9,61.33,85.26,63.27,84.13z"/>
<path fill="#090202" d="M168.45,86.12c5.69-1.78,11.69-1.09,17.56-1.11c0.42,0.19,1.26,0.57,1.68,0.75
	c0.951,0.07,1.9,0.15,2.86,0.22c3.29,1.95,6.521,4.02,10.03,5.58c4.07,2.73,6.43,7.15,8.58,11.4c1.619,5.98,1.79,12.7-0.53,18.53
	c-0.47,0.97-0.93,1.939-1.399,2.91c-3.621,6.56-10.621,9.56-16.83,13.06c-1.4,0.06-2.84,0.12-4.03,0.96
	c-5.12-0.3-10.47,0.82-15.431-0.63c-1.569-0.181-3.08-0.62-4.549-1.19c-2.65-1.779-5.42-3.35-8.221-4.88
	c-3.83-2.93-6.77-6.96-8.699-11.37c-0.051-1.05-0.391-1.99-1.021-2.82c-0.16-2.11,0.68-4.521-0.82-6.311
	c1.64-1.83,0.16-4.6,1.42-6.66c1.341-4.32,3.931-8.25,7.2-11.34c2.55-2.7,6.35-3.49,9.26-5.689
	C166.5,87.07,167.471,86.6,168.45,86.12 M168.32,90.04c-0.98,0.63-1.891,1.36-2.771,2.13c-4.84,1.33-8.521,5.14-10.75,9.51
	c16.39-0.23,32.79-0.24,49.171,0.01c-2.191-5.55-7.721-8.04-12.431-10.96c-0.55-0.27-1.66-0.81-2.21-1.07
	c-5.71-1.1-11.79-1.7-17.471-0.37C170.68,89.52,169.5,89.77,168.32,90.04 M152.17,106.07c0.061,2.2-0.07,4.41-0.85,6.48
	c0.209,0.26,0.65,0.78,0.859,1.04c-0.02,0.72-0.05,2.15-0.07,2.87c0.49,1.01,0.851,2.06,1.111,3.15c2.649,4.6,6.01,9.27,11.27,11.07
	c0.99,0.641,1.92,1.37,2.83,2.131c7.279,2.979,15.72,2.75,23.18,0.529c1.641-1.06,3.21-2.21,4.76-3.4
	c4.11-1.049,6.891-4.92,9.18-8.279c3.061-4.6,1.971-10.25,2.221-15.43l-0.131,0.01c-0.399-0.24-1.209-0.72-1.609-0.97
	c-16.29-0.26-32.62,0.03-48.93-0.14C154.62,105.01,153.32,105.32,152.17,106.07z"/>
<path fill="#F0AEBC" d="M79.41,85.93c0.53-0.02,1.58-0.06,2.11-0.07c1.44,1.52,3.26,2.68,5.37,2.98l-0.26,0.68
	c-0.64,1.62-1.21,3.27-1.65,4.95c-0.86-0.74-1.72-1.49-2.57-2.229c-0.5-0.021-1.5-0.05-2-0.06c-1.8,1.66-2.97,4.18-0.77,6.07
	c-0.9-0.89-2.09-1.76-2.16-3.15c0.21-2.55,2.37-4.23,3.95-6.02C80.73,88.05,80.05,87,79.41,85.93z"/>
<path fill="#B5B3B3" d="M168.32,90.04c1.18-0.27,2.359-0.52,3.539-0.75c5.681-1.33,11.761-0.73,17.471,0.37
	c0.55,0.26,1.66,0.8,2.21,1.07c4.71,2.92,10.239,5.41,12.431,10.96c-16.381-0.25-32.781-0.24-49.171-0.01
	c2.229-4.37,5.91-8.18,10.75-9.51C166.43,91.4,167.34,90.67,168.32,90.04z"/>
<path fill="#110100" d="M80.41,92.18c0.5,0.01,1.5,0.04,2,0.06c0.85,0.74,1.71,1.49,2.57,2.229c-0.07,0.521-0.2,1.561-0.26,2.08
	c-0.78,0.86-1.55,1.72-2.32,2.58c-0.94-0.26-1.86-0.55-2.76-0.88C77.44,96.36,78.61,93.84,80.41,92.18z"/>
<path fill="#E8B2B8" d="M152.17,106.07c1.15-0.75,2.45-1.06,3.82-0.94c16.31,0.17,32.64-0.12,48.93,0.14
	c0.4,0.25,1.21,0.73,1.609,0.97c-6.289,0.44-12.6,0.03-18.879,0.47c-1.98-1.34-3.75,0.16-5.121,1.55
	c0.011,0.6,0.051,1.78,0.061,2.38c-4.67-5.52-12.33-3.4-18.619-3.84c-2.871,0.25-6.41-0.65-8.75,1.41
	c-1.801,4.07-1.011,9.23,1.76,12.71c2.93,3.71,5.91,7.83,10.529,9.52c7.03,2.851,15.43,3.801,22.51,0.631
	c1.67-0.65,3.471-0.84,5.24-1.131c-1.55,1.19-3.119,2.341-4.76,3.4c-7.46,2.221-15.9,2.45-23.18-0.529
	c-0.91-0.761-1.84-1.49-2.83-2.131c-5.26-1.8-8.62-6.47-11.27-11.07c-0.261-1.09-0.621-2.14-1.111-3.15
	c0.021-0.72,0.051-2.15,0.07-2.87c-0.209-0.26-0.65-0.78-0.859-1.04C152.1,110.48,152.23,108.27,152.17,106.07z"/>
<path fill="#180202" d="M182.529,108.26c1.371-1.39,3.141-2.89,5.121-1.55c0.47,0.54,1.42,1.62,1.89,2.17
	c-0.95,1.48-1.95,2.92-2.97,4.35c-1.4-0.74-2.771-1.57-3.98-2.59C182.58,110.04,182.54,108.86,182.529,108.26z"/>
<path fill="#FEA3AF" d="M187.65,106.71c6.279-0.44,12.59-0.03,18.879-0.47l0.131-0.01c-0.25,5.18,0.84,10.83-2.221,15.43
	c-2.289,3.359-5.069,7.23-9.18,8.279c-1.77,0.291-3.57,0.48-5.24,1.131c-7.08,3.17-15.479,2.22-22.51-0.631
	c-4.619-1.689-7.6-5.81-10.529-9.52c-2.771-3.48-3.561-8.64-1.76-12.71c2.34-2.06,5.879-1.16,8.75-1.41
	c6.289,0.44,13.949-1.68,18.619,3.84c1.21,1.02,2.58,1.85,3.98,2.59c1.02-1.43,2.02-2.87,2.97-4.35
	C189.07,108.33,188.12,107.25,187.65,106.71z"/>
<path fill="#020202" d="M34.34,111.64c1.96,0.09,3.91,0.11,5.87,0.11c0.73,0.74,1.46,1.49,2.19,2.23c0.01,7.12,0,14.23,0.01,21.34
	c2.97,1.34,2.21,6.75,6.14,5.869c1.29,1.201,2.39,2.591,2.94,4.291c1.79,3.3,5.06,5.43,7.51,8.209c0.14,1.601-0.44,3.511,0.91,4.78
	c0.1,2.58,0.08,5.16,0.04,7.74c1.36-0.069,2.72-0.13,4.08-0.19c1.39,1.391,2.76,2.811,4.03,4.32c0.04,3.11,3.46,4.35,4.67,6.95
	c2.88,2.58,6.1,5.17,9.88,6.3c1.75,0.5,3.49,1.2,5.35,1.07c7.13-0.04,14.26,0.029,21.39-0.051c4.82-4.67,12.21-3.529,18.35-3.629
	c2.54,2.59,5.399,4.899,7.329,8.02c3.181,2.141,5.851,4.91,7.971,8.1c0.391,0.15,1.17,0.461,1.561,0.62c1.91,1.62,3.289,4.22,6,4.54
	c3.1,2.08,7.58,2.53,10.879,1.12c3.471-6.06,8.82-10.78,14.201-15.12c6.029,0.17,12.93-0.15,17.229-4.99
	c-0.101-2.77-0.091-5.539-0.05-8.31c1.4-1.319,2.6-2.83,3.4-4.59c0.76-2.56,3.959-3.12,5.359-5.29c0.42,0.02,1.27,0.061,1.689,0.08
	c3.36-2.23,6.961-4.051,10.9-4.98c0.51-3.56,3.95-4.76,6.01-7.279c0.51,0.35,1.53,1.039,2.041,1.38
	c0.01,0.61,0.029,1.81,0.039,2.409c-1.15,0.931-2.31,1.86-3.51,2.721c-0.15,1.75-0.75,3.42-2.85,3.29l0.08,1.489
	c-0.59,0.041-1.76,0.101-2.351,0.131c-1.149,1-2.63,0.82-4.021,0.869c-1.119,3.351-5.569,3.49-8.34,4.94
	c-1.129,2.431-2.789,4.59-4.76,6.4c-0.109,3.2-0.1,6.42-0.06,9.63c-2.021,1.189-3.729,3.18-6.28,3.06
	c-0.061,0.46-0.18,1.37-0.24,1.83c-4.55,0.13-8.939,1.63-13.56,0.91c-0.14,2.181-2.89,2.29-3.36,4.33
	c-1.199,0.601-2.13,1.5-2.689,2.72c-2.76,1.07-3.26,4.33-4.561,6.66c-1.24,0.41-2.25,1.24-3.199,2.11
	c-3.15-0.05-6.301,0.06-9.44-0.11c-2.78-0.609-5.181-2.29-7.95-2.92c-0.59-1.98-2.09-3.43-4.1-3.92c-0.041-0.32-0.12-0.96-0.16-1.28
	c-2.09-0.12-2.689-2.25-3.801-3.62c-1.039-1.38-2.92-1.96-3.6-3.609c-3.46-1.51-4.59-5.61-7.689-7.69
	c-2.37,0.021-4.74-0.01-7.11,0.09c-1.49,1.171-3.4,0.82-5.14,0.78c-0.48,0.92-0.94,1.84-1.4,2.77c-9.23-0.06-18.46,0.041-27.7-0.05
	c-1.12-0.75-2.38-1.069-3.75-0.97c-3.04-1.3-5.55-3.609-8.71-4.609C72,182.22,72,181.391,72,180.97c-0.64,0.021-1.92,0.05-2.57,0.07
	c-0.66-1.57-1.59-3.01-2.43-4.49c-0.75-0.819-1.5-1.63-2.25-2.44c0.04-1.799-1.2-3.029-2.32-4.25c-2.05-0.189-5.87,1.091-6.25-1.92
	c0.49-4.229-0.79-8.25-0.92-12.42c-2.8-3.55-7.3-5.92-8.53-10.529c-0.55,0-1.67,0-2.22,0c-0.18-1.57-1.63-2.141-2.67-3.051
	c-0.26-2.039-1.48-3.619-3.04-4.859c0.01-7.24-0.06-14.48,0.03-21.72c-1.58,0.01-3.16,0.02-4.74,0.05
	C32.84,114.07,33,112.77,34.34,111.64z"/>
<path fill="#FFFFFF" d="M0,120l1.04,0.05c0.19,5.17-0.78,10.5,0.65,15.55c0.61,3.62,0.95,7.291,1.8,10.87
	c1.63,3.95,1.8,8.33,3.57,12.23c0.94,3,2.31,5.84,3.25,8.83c1.93,3.689,3.69,7.479,6.01,10.95c4.69,9.779,12.99,17.069,19.34,25.699
	c6.35,5.65,13.51,10.381,19.78,16.15c1.09,0.46,2.19,0.91,3.29,1.359c0.34,0.341,1,1.021,1.34,1.351
	c3.93,1.569,7.59,3.71,11.32,5.69c1.34,0.64,2.68,1.3,4.03,1.949c2.43,0.87,4.82,1.83,7.25,2.69c1.03,0.271,2.05,0.56,3.06,0.87
	c2.82,0.97,5.68,1.88,8.66,2.24c1.15,0.31,2.3,0.619,3.46,0.92c4.3,1.27,8.87,1.25,13.14,2.6H0V120z"/>
<path fill="#FFFFFF" d="M246.42,146.5c1.109-4.17,1.02-8.609,2.58-12.67V240H139.16c1.85-0.939,3.93-0.95,5.93-1.21
	c10.04-1.79,19.93-4.351,29.43-8.08c0.98-0.49,1.951-0.97,2.92-1.46c4.621-2.52,9.431-4.68,13.94-7.38
	c4.7-2.181,8.11-6.21,12.3-9.13c3.43-2.96,7.301-5.4,10.59-8.51c6.28-8.721,14.69-15.91,19.311-25.791
	c2.41-3.409,4.17-7.22,6.061-10.939C242.33,160.63,244.49,153.609,246.42,146.5z"/>
</svg>
