<?xml version="1.0" encoding="UTF-8" standalone="no"?>
<!-- Created with Inkscape (http://www.inkscape.org/) -->

<svg
   xmlns:dc="http://purl.org/dc/elements/1.1/"
   xmlns:cc="http://creativecommons.org/ns#"
   xmlns:rdf="http://www.w3.org/1999/02/22-rdf-syntax-ns#"
   xmlns:svg="http://www.w3.org/2000/svg"
   xmlns="http://www.w3.org/2000/svg"
   xmlns:sodipodi="http://sodipodi.sourceforge.net/DTD/sodipodi-0.dtd"
   xmlns:inkscape="http://www.inkscape.org/namespaces/inkscape"
   id="svg2"
   version="1.1"
   inkscape:version="0.48.2 r9819"
   width="230.17924"
   height="250.75017"
   sodipodi:docname="stonercomics.svg"
   inkscape:export-filename="/Users/Ellbogen/Desktop/stonercomics.png"
   inkscape:export-xdpi="600"
   inkscape:export-ydpi="600">
  <metadata
     id="metadata8">
    <rdf:RDF>
      <cc:Work
         rdf:about="">
        <dc:format>image/svg+xml</dc:format>
        <dc:type
           rdf:resource="http://purl.org/dc/dcmitype/StillImage" />
        <dc:title></dc:title>
      </cc:Work>
    </rdf:RDF>
  </metadata>
  <defs
     id="defs6" />
  <sodipodi:namedview
     pagecolor="#ffffff"
     bordercolor="#666666"
     borderopacity="1"
     objecttolerance="10"
     gridtolerance="10"
     guidetolerance="10"
     inkscape:pageopacity="0"
     inkscape:pageshadow="2"
     inkscape:window-width="1621"
     inkscape:window-height="1006"
     id="namedview4"
     showgrid="false"
     inkscape:zoom="2.6006601"
     inkscape:cx="81.28544"
     inkscape:cy="114.84751"
     inkscape:window-x="59"
     inkscape:window-y="0"
     inkscape:window-maximized="0"
     inkscape:current-layer="g3055"
     fit-margin-top="0"
     fit-margin-left="0"
     fit-margin-right="0"
     fit-margin-bottom="0" />
  <g
     id="g3055"
     transform="translate(-41.484527,-5.582546)"
     style="display:inline">
    <g
       inkscape:groupmode="layer"
       id="layer1"
       inkscape:label="Layer"
       style="display:inline">
      <path
         style="fill:#fb7665;fill-opacity:1;display:inline"
         d="m 93.809871,115.1261 c -4.265702,-0.12836 -7.461207,-3.69534 -7.946204,-7.99576 -0.528225,-3.97477 1.72841,-8.46239 4.921592,-10.71639 0.804156,-1.24629 1.128401,-2.278853 2.442925,-3.149863 3.217748,-2.69043 7.629006,-3.22665 11.680616,-3.18661 3.92609,0.08613 7.87076,-0.0089 11.18575,2.226949 0.87586,1.03961 2.48255,1.431704 3.5564,2.153354 1.59233,0.96098 3.31134,3.261045 2.74675,5.099695 -0.74153,3.710495 -3.68973,7.191625 -6.68373,9.492515 -2.74614,2.41006 -7.5296,5.04395 -11.22292,5.44042 -4.11171,0.48762 -6.076182,0.92153 -10.681179,0.63569 z"
         id="path3021"
         inkscape:connector-curvature="0"
         sodipodi:nodetypes="ccccccccccc" />
      <path
         style="fill:#fb7665;fill-opacity:1;display:inline"
         d="m 200.37954,93.788972 c -4.22615,-0.04971 -6.79375,-1.84769 -8.24065,-5.860083 -1.74938,-4.397997 -0.94916,-9.76493 2.72675,-12.681374 1.87074,-1.592447 3.42968,-3.429278 5.7721,-4.097163 1.91976,-1.835645 4.7378,-2.645652 7.32243,-1.963467 4.82934,1.090043 5.82559,4.031447 10.93869,3.978791 1.53026,-0.204053 5.9518,0.698535 7.00466,2.071928 1.6111,2.227441 0.90173,5.395426 0.18682,7.874315 -0.94764,2.893903 -1.0995,5.152979 -4.01819,6.434958 -1.22619,0.104343 -2.66926,1.344168 -3.5746,2.1429 -3.40526,1.830801 -6.35733,1.291154 -10.0165,1.734392 -2.22769,0.810981 -5.71539,0.470715 -8.10151,0.364803 z m 15.29314,-10.516697 c -169.129177,167.264935 -84.56459,83.632465 0,0 z"
         id="path3023"
         inkscape:connector-curvature="0"
         sodipodi:nodetypes="cccccccccccccc" />
    </g>
    <g
       transform="translate(-1.9258475,-20.542373)"
       id="g3046">
      <path
         style="fill:#000000"
         d="m 149.45417,274.47593 c -10.30285,-1.08631 -21.79403,1.58288 -31,-3.26667 -10.1665,-4.52405 -21.057209,-7.22459 -27.156751,-16.62158 -11.12844,-2.58546 -13.288091,-16.43994 -22.271814,-22.37842 -9.599454,-5.07794 -12.099268,-17.34753 -18.091568,-25.60135 -1.437387,-10.59155 -7.188018,-19.55246 -7.33045,-30.50412 -0.230598,-12.64305 -0.699658,-25.47036 1.778713,-37.80078 -0.128894,-10.73268 2.001954,-21.08024 4.365625,-31.2125 5.217295,-8.149199 5.684218,-18.58116 10.70625,-27.115037 3.451177,-9.867686 10.835283,-15.70553 18,-22.766214 8.516331,-4.410287 14.632118,-11.318955 22.391515,-15.29375 8.64071,-5.869544 19.27419,-9.12306 29.60848,-11.70625 11.36485,-4.726528 24.54576,-4.545855 37.03125,-3.417411 9.33223,2.876539 20.10297,1.626015 28.96875,5.417411 8.31476,3.409719 18.85251,2.046724 25.54807,9.4125 6.27631,8.018267 18.56667,10.220681 25.23013,19.949688 9.23572,8.595312 11.25192,20.805633 18.83653,30.24914 0.44777,11.445413 6.70715,20.573603 5.66652,32.138673 3.16999,14.24139 1.27318,29.39518 1.45833,44 -3.30828,11.95149 1.3049,25.70675 -6.23958,36.25 -5.92567,9.62362 -7.01635,18.37792 -13.9125,26.47588 -5.08106,9.09235 -9.50409,15.65019 -16.36808,23.16012 -12.06889,0.109 -12.75271,16.96392 -24.63192,16.65775 -43.29449,9.01449 -11.26132,6.60006 -62.5875,3.97292 z m 46,-8.26667 c 10.11123,-1.50351 18.91813,-5.78487 27.38216,-12 6.04137,-6.87393 13.17686,-12.61113 19.44976,-19.84879 5.79289,-8.80853 10.81217,-18.02295 13.15245,-27.99496 6.40283,-5.33977 10.59945,-16.10047 10.89277,-25.50437 -0.10421,-20.20322 0.87793,-40.52786 -0.87714,-60.65188 -1.86096,-8.16845 -6.47273,-12.39504 -6,-22.000002 -3.23437,-6.95292 -6.82567,-13.966501 -11.26106,-19.412499 -3.52766,-10.047136 -12.2404,-17.627527 -20.83773,-22.5875 -7.48154,-5.472711 -14.48761,-11.771865 -23.26566,-13.921094 -9.02595,-0.608591 -17.18684,-4.017885 -25.88555,-5.797656 -10.84406,0.74378 -21.70183,-5.016035 -32.18398,-0.892969 -10.7141,0.228302 -19.56246,5.324199 -29.56602,7.611719 -9.42429,3.810038 -17.541719,9.013548 -25.577129,15.5875 -10.041911,5.847354 -18.106945,13.428667 -21.716616,24.889847 -4.920817,5.765452 -9.745508,11.93284 -9.70625,20.522654 -4.342696,11.29759 -5.34272,24.30644 -6.072917,36.65625 -2.747818,13.03195 -2.13785,26.76657 -1.348958,40.125 4.381741,9.39487 3.79941,20.32664 9.033697,29.75278 6.045537,7.89154 12.359221,13.19485 19.114222,20.05347 2.889362,10.74499 15.230767,16.36727 21.273951,24.4125 7.9688,2.70001 15.14542,6.81683 23.11875,9.29375 10.22215,3.87666 22.24661,-0.0477 32.88125,2.70625 12.06446,1.47022 24.6684,1.5505 36.75785,0.1033 z m -83,-47 c 5.39229,-3.42646 13.5907,1.96309 2.75273,0.92109 -0.81568,-0.30064 -2.21738,0.0158 -2.75273,-0.92109 z m 11,-4 c -8.14337,-3.77098 -2.96972,-6.03103 2.43579,-1.11662 8.38663,-0.61511 6.55847,4.13168 -2.43579,1.11662 z m 6,-4 c -11.19098,-7.36124 8.49211,-2.6495 13.14014,-3.03862 12.03608,0.9067 23.52892,-1.50905 35.32861,-2.56406 7.30233,-3.56157 14.44707,-7.35765 22.53125,-9.39732 4.73423,-4.4543 10.86997,2.09688 2.5,2 -9.00692,2.58062 -15.05506,8.73988 -25.5,10 -11.01557,4.37849 -23.49671,4.20732 -35.53955,3.96176 -4.13026,-0.24948 -8.47241,0.25755 -12.46045,-0.96176 z m -66.999995,-9 c 0.08466,-8.72175 4.048548,1.29373 1,4 l -0.70625,-1.175 z m 135.999995,1 c 5.73921,-0.87013 22.09239,-1.32185 13.5875,-6.75302 2.22208,-4.25838 7.637,-8.52091 3.70625,-1.65948 -0.33562,4.3714 7.36487,3.93368 -0.30301,8.2693 -5.22547,1.71464 -11.7556,1.6168 -16.99074,0.1432 z M 68.704175,200.71343 c -3.426728,-5.46735 0.934609,-16.46544 1.04375,-3.67917 2.128402,1.26356 2.577522,7.82872 -1.04375,3.67917 z m -12.25,-3.0756 c 4.729623,-9.76865 6.016954,3.60854 0,0 z m 48.999995,-2.42857 c -8.474219,-4.37413 -18.542864,-3.90743 -26.54883,-9.5875 -3.492779,-5.26642 -12.83102,-7.78031 -12.951165,0.5875 -4.712375,-8.33466 0.01176,-21.09668 11.28249,-18.73317 4.603014,1.82632 -12.992811,6.19214 -0.850094,8.71822 4.863891,7.62785 15.426497,7.31398 22.50823,11.7212 10.335269,3.81507 22.597639,1.46654 33.758589,2.27745 16.5886,-0.24648 33.28124,0.61036 49.80078,-0.9837 8.81051,-3.19009 17.4898,-6.33767 26.4125,-9.29375 9.35585,-6.15156 18.922,-13.31735 28.5091,-19.70625 7.7872,-3.09721 -10.33753,-6.29023 0.5784,-8 9.41674,-0.57615 12.44449,15.01559 7.75546,17.39386 1.66124,-13.62973 -6.43799,0.005 -13.11329,-0.36859 -5.39468,5.09649 -11.87035,10.63398 -19.14217,13.97473 -7.34673,3.79494 -14.04157,8.46964 -23.5,7.60577 -8.65307,5.67427 -20.16845,5.19906 -30.64654,5.31201 -17.93023,-0.15164 -36.00234,0.77142 -53.85346,-0.91778 z m 141,-14 c 4.37926,-7.1149 5.30557,5.90576 0,0 z m 8,-3 c 0.0847,-8.72175 4.04855,1.29373 1,4 l -0.70625,-1.175 z m -88,-11 c -0.84215,-7.99883 2.84215,-7.99883 2,0 0.87616,3.80859 -1.83353,10.69671 -1.92411,2.78125 l -0.0759,-2.78125 z m 10,-2 c 3.61046,-14.50904 5.0964,16.74157 0,0 z m 81.25,3.50417 c -3.62216,-6.71624 1.55944,-12.30866 1.04375,-1.67917 2.22426,1.49636 2.11536,5.08642 -1.04375,1.67917 z m -195.249995,-2.0756 c 4.543684,-7.80288 15.831678,-6.79582 23.999997,-8.42857 9.810521,-2.28491 21.239918,-0.301 29.999998,-5 7.75666,-2.77003 14.3764,-7.6716 22.9375,-8.92308 6.573,-0.93973 11.77789,0.34232 5.12018,6.06568 4.30391,6.15545 7.0426,-11.04024 12.94232,-1.1426 5.69433,5.35061 14.40042,2.2032 21.56066,3 4.88135,-5.19405 -7.79551,-13.81102 -10.26691,-18.5875 -2.24156,-4.47178 -8.74581,-19.33178 -0.64375,-18.5375 0.37356,11.57796 3.62233,21.95093 14.22522,27.86264 8.71545,3.01762 -4.84352,-9.41509 4.3904,-7.03139 9.59898,-4.046 20.71585,2.45099 31.27958,0.29574 11.84508,-1.28542 24.72104,4.34917 31.0423,13.58318 6.03546,3.01822 7.05487,19.53289 0.0392,7.04989 -2.21733,-10.38872 -13.31374,-13.0382 -22.14168,-16.55243 -10.07839,-1.69766 -21.09498,-1.29709 -30.74396,-3.56908 -11.1592,-3.24489 -6.7832,11.86493 -13.74106,14.05788 -3.36112,9.92927 -19.23374,5.15568 -26,1.42857 -4.01114,1.10986 -14.94172,4.85078 -16,-0.16486 -1.37327,-8.67674 -13.34554,2.75915 -18.93261,2.16486 -7.27507,7.71137 -19.69989,5.59538 -29.860357,6.01723 -10.552483,-1.64042 -17.540205,3.34609 -24.941403,7.68902 -1.271613,0.40356 -4.158636,0.7012 -4.265625,-1.27768 z m 23.249997,-19.9244 c -4.78576,-5.58264 16.935788,2.5351 7.75,-2.50417 -6.851943,-3.16136 11.947398,-0.85409 15.071428,-4 14.92605,-6.82939 -15.492684,-2.30406 -21.572687,-4.97777 -3.711136,-4.20998 -2.510436,-13.06693 -8.498738,-5.02223 -7.063597,5.09504 4.839873,2.87733 5.999997,8 2.541755,4.54958 -11.702335,-3.07557 -14.999997,-1 12.105789,-3.39668 -9.658831,-6.91744 3,-7 8.664929,-2.08006 15.297287,-11.17372 19.779238,-18 6.387938,-9.20267 22.352847,1.03139 26.080127,-4.96875 -9.9966,-2.04812 -1.58708,-2.11302 -0.74062,-4.7375 -6.59446,-3.080405 -18.016509,-1.16667 -22.462498,-3.700001 10.345878,-1.732403 24.065598,-1.149826 26.343748,9.406251 5.15138,2.08688 6.767,2.95094 2.29375,5.70625 8.68969,8.4535 -10.17153,17.41545 -4.55764,23.85799 5.09736,6.49672 -13.76751,9.53236 -20.204859,9.03844 -3.486898,2.60543 -9.491314,1.448 -13.281249,-0.0985 z m 26.749998,-3.50417 c 5.01122,-0.76548 8.44072,-8.47656 1,-3 -4.91233,2.15586 -14.418219,4.80189 -1,3 z m -7,-10 c 7.74812,0.79912 25.60274,-14.32629 13.13281,-18.06875 -4.02162,-4.61324 -22.385135,-5.8197 -24.720308,2.65392 -10.335573,7.64388 -3.03662,21.33977 9.462498,16.1315 l 1.5625,-0.31667 z m -8.999998,-11 c 3.757858,-7.01534 3.126249,6.75372 0,0 z m 25.065258,-10.17124 c -1.97155,-6.69757 -5.86537,3.43678 0,0 z m -2.06526,23.392 c 1.50098,-5.17207 12.01426,-10.51718 4.5875,-2.68003 -0.0979,2.35935 -2.43299,4.95669 -4.5875,2.68003 z m 113,-8.22076 c -11.48493,-4.71549 -24.63791,-2.05892 -36.9375,-3.58064 5.09409,-2.35808 21.15761,-1.71205 29.9375,-0.41936 3.60962,1.99044 18.36204,2.12608 16.38437,4.70625 -2.99002,0.22659 -6.71641,0.89502 -9.38437,-0.70625 z m -153.999995,-9 c 5.258615,-7.40678 7.133928,-0.0948 0.160225,1.4125 z m 142.999995,1 c 5.12529,-2.47888 14.27747,-5.69491 7.5875,-8.70625 2.54325,-0.51167 10.95539,-11.240534 8.96108,-3.71556 -5.03195,2.52203 -7.18698,5.8561 -0.54858,6.42181 -5.47869,0.16791 -11.03882,8.87071 -16,6 z m -26,-5 c -14.2754,-4.9788 -0.20114,-19.70747 6.21432,-25.632825 9.69252,-6.38341 15.11549,2.398082 23.78568,4.632823 9.76132,1.262055 3.47895,16.192062 -1.5,19.000002 -7.96349,4.42323 -19.83175,6.0553 -28.5,2 z m 25,-4 c 5.99373,-0.20756 9.91208,-15.319318 2.3919,-14.000002 -6.54031,0.767607 -12.68349,-7.901696 -18.84232,-2.29375 -15.52774,4.082948 -9.82565,24.271082 5.73806,18.259052 3.43377,-0.41481 8.1143,0.96914 10.71236,-1.9653 z m -5,-7 c 4.27866,-5.856446 5.21651,5.40743 0,0 z m -128.999998,8.46667 c 1.00343,-6.73085 19.109868,-9.75622 7.214282,-3.63152 -1.507326,1.17234 -5.374997,5.96632 -7.214282,3.63152 z m 34.999998,-6.46667 c 4.99746,-4.21973 4.99746,4.21973 0,0 z m 111,-3.57143 c 1.68427,-7.869811 13.89702,0.55284 6.58333,-0.67857 -0.83025,-1.595492 -4.49752,3.47717 -6.58333,0.67857 z m -45,-7.345242 c 6.97157,-6.814063 -9.71622,-0.09807 -0.5875,-4.37708 5.45228,-0.986849 7.97889,-4.193054 11.43783,-7.544502 0.45745,3.224759 -8.73065,16.707598 -10.85033,11.921582 z m 45,0 c -7.07156,-7.600777 10.68301,1.268849 7.67812,1.62292 -2.16378,-0.0099 -7.33191,1.622559 -7.67812,-1.62292 z m -11,-5.08333 c 5.56058,-4.06222 6.93103,3.898097 0,0 z m 2,-4 c -5.33125,-1.011678 -18.74081,-2.227143 -5.10699,-3 4.21938,-2.94752 12.67152,6.079035 5.10699,3 z m -19.0721,-3.879838 c 3.48993,-8.037753 4.82174,6.747746 0,0 z"
         id="path3006"
         inkscape:connector-curvature="0"
         inkscape:export-xdpi="600"
         inkscape:export-ydpi="600"
         sodipodi:nodetypes="cccccccccccccccccccccccccccccccccccccccccccccccccccccccccccccccccccccccccccccccccccccccccccccccccccccccccccccccccccccccccccccccccccccccccccccccccccccccccccccccccccccccccccccccccccccccccccccccccccccccccccccccccccccc" />
    </g>
  </g>
</svg>
