<?xml version="1.0" encoding="utf-8"?>
<!-- Generator: Adobe Illustrator 15.0.2, SVG Export Plug-In . SVG Version: 6.00 Build 0)  -->
<!DOCTYPE svg PUBLIC "-//W3C//DTD SVG 1.1//EN" "http://www.w3.org/Graphics/SVG/1.1/DTD/svg11.dtd">
<svg version="1.1" id="Layer_1" xmlns="http://www.w3.org/2000/svg" xmlns:xlink="http://www.w3.org/1999/xlink" x="0px" y="0px"
	 width="116px" height="96px" viewBox="0 0 116 96" enable-background="new 0 0 116 96" xml:space="preserve">
<path fill="#FFFFFF" d="M0,0h27.22c-1.79,1.35-3.8,2.36-5.8,3.35c-0.99,0.42-1.97,0.84-2.96,1.24c-1.57,1.07-2.95,2.4-4.11,3.9
	c6.26-3.2,12.35-8.69,19.94-7.47c1.58,0.54,3.2,0.93,4.81,1.31l-0.15-0.87c-1.12-0.38-2.18-0.87-3.2-1.46H103v0.7
	c-2.13,0.89-4.23,1.86-6.4,2.63c-1.479,1.81-2.979,4-5.57,4.11L90.92,8.1c1.62-0.14,3.25-0.3,4.88-0.44
	c-1.75,1.87-3.56,3.72-5.819,4.97c0,2.95-0.061,5.9,0.369,8.82c1.25,1.52,2.59,2.96,3.961,4.36c1.039,0.23,2.09,0.48,3.129,0.74
	c0.521,0.36,1.561,1.07,2.08,1.43c4.03,0.02,8.07,0.2,12.08-0.32c1.75-1.58,3.07-3.53,4.4-5.46V96h-3.4
	c0.7-0.859,1.381-1.72,2.051-2.6c0.399-2.221,0.5-4.51-0.131-6.7c-1.039-1.79-1.99-3.63-2.859-5.5c-1.11-0.45-2.21-0.91-3.32-1.351
	c-2.77-1.229-4.16-3.959-5.66-6.41c-1.39-2.069-2.83-4.119-4.539-5.949c-0.121-0.46-0.381-1.391-0.5-1.85
	c-0.75-2.32-0.65-4.771-0.701-7.181c1.48-1.399,2.94-2.83,4.381-4.271c1.33-0.209,2.66-0.43,3.979-0.729
	c1.24-0.649,2.479-1.29,3.74-1.89c-0.04-1.631-0.09-3.26-0.17-4.89c-0.55-1.4-1.011-2.84-1.49-4.27c-1.39-1.93-3.06-3.63-4.71-5.33
	c-0.5-0.1-1.5-0.3-2-0.4C97.23,35.55,93.55,36.09,90,36c0,0.5,0,1.5,0,1.99c3.221,0.07,6.57-0.38,9.68,0.71
	c0.51,0.09,1.53,0.27,2.041,0.36c1.27,1.41,2.529,2.82,3.629,4.36c0.551,1.53,1.08,3.08,1.771,4.56c-0.04,2.379-1.99,3.12-4.05,3.39
	c-0.03-1.3-0.061-2.61-0.08-3.92c-1.141-1.13-2.28-2.26-3.4-3.4c-1.609-0.06-3.22-0.12-4.82-0.23c-1.49-0.69-3.129-0.86-4.75-0.84
	C77.01,43.01,64,43.02,51,42.97c-1.87,0-3.74,0.12-5.56,0.57c-0.47,0.23-1.41,0.69-1.88,0.93c-3.06,0.74-6.32,0.18-9.31,1.311
	c-2.61,0.21-5.26,0.16-7.82,0.78c-1.25,0.36-2.5,0.7-3.74,1.1c-1.69,0.76-3.44,1.41-5.18,2.07c-1.38,0.279-2.76,0.569-4.11,0.949
	c-0.46,0.12-1.37,0.36-1.83,0.48c-1,0.72-2.01,1.43-3.06,2.08c-1.18,0.619-2.4,1.199-3.42,2.08c-0.16,6.76-0.2,13.56,0.02,20.32
	c4.62,2.81,8.38,6.84,13.29,9.17c3.96,1.619,7.92,3.25,12.19,3.869c0.93,0.221,1.86,0.44,2.79,0.67c1.67,0.431,3.38,0.65,5.09,0.881
	c1.39,0.56,2.79,1.069,4.16,1.649c2.2,0.09,4.41,0.15,6.61,0.3c1.79,0.851,3.78,0.851,5.72,0.851C66.311,92.97,77.65,93,89,93.02
	c1.62,0.021,3.27-0.149,4.76-0.84c2.82-0.18,5.65-0.17,8.471-0.359c1.709-0.721,3.58-0.811,5.399-0.971
	c0.79-0.76,1.58-1.52,2.37-2.27c0-1.54,0-3.07,0-4.6l0.641,0.02c0.289,0.63,0.85,1.891,1.139,2.52
	c0.15,0.471,0.461,1.42,0.611,1.891c0.409,1.689,0.609,3.42,0.819,5.15c-0.96,0.819-1.94,1.64-2.92,2.439H0V81.83
	c0.77,1.18,1.81,1.99,3.12,2.42c0.01-1.84-1.88-2.811-3.12-3.83V69.09C1.48,71.48,0.9,74.35,1.05,77c0.49,0,1.48,0,1.98,0
	c-0.11-2.92,0.41-6.02-0.86-8.77c-0.16-4.57-0.6-9.24,0.37-13.75c0.35-0.98,0.71-1.961,1.07-2.94c1.39-2.12,2.77-4.25,4.48-6.13
	c1.54-0.61,2.67-1.77,3.54-3.15c-0.8-0.08-2.41-0.25-3.21-0.34c-3.21,1.99-5.17,5.32-7.2,8.4c-0.31,1.619-0.67,3.24-1.22,4.8V0
	 M28.49,3.64c-1,0.33-1.99,0.68-2.97,1.06c-0.98,0.28-1.96,0.57-2.93,0.87c-1.41,0.91-2.75,1.93-4.16,2.83
	c-0.57,0.2-1.69,0.62-2.26,0.82c-1.39,2.811-1.76,6.271-0.54,9.2c0.95,1.73,1.85,3.49,2.66,5.3c1.1,0.51,2.18,1.061,3.27,1.62
	c2.3,1.15,4.97,0.52,7.44,0.68c2.59-0.14,5.73,0.76,7.42-1.81c1.65-0.36,3.4-1.34,4.89-0.02l-0.45-1.72
	c2.12-0.61,3.63-2.31,5.05-3.9c0.19-1.66,0.07-3.34,0.04-5.01c-0.57-0.97-1.11-1.95-1.64-2.94c-1.61-2.71-3.24-5.51-5.73-7.53
	C35.24,3.07,31.68,2.44,28.49,3.64 M66.54,13.88c1.14,2.15,2.58,4.15,3.069,6.58c0.621,1.3,1.621,2.31,2.92,2.93
	c0.521,0.21,1.57,0.62,2.091,0.83c0.79,1.88,3.79,3.99,1.739,5.99c-1.42,2.42-4.529,2.18-6.779,1.18c-0.51-0.26-1.52-0.77-2.02-1.03
	c-1.051-0.64-2.021-1.37-2.98-2.13c-1.41-0.58-2.91-2.09-4.189-0.29c-0.711,0-2.121,0-2.831,0c0.91-1.72,2.081-3.29,2.9-5.06
	c-1.61,0.1-3.47-0.14-4.41,1.49c-0.01,1.91-0.78,4.43,1.33,5.51c2,0.27,4.14-0.15,6.03,0.73c1.05,0.57,2.109,1.13,3.189,1.66
	c1,0.82,1.891,2.04,3.36,1.74c2.569-0.24,5.681,0.84,7.79-1.09c0.29-0.63,0.891-1.89,1.18-2.52c0.68-3.1-0.369-5.8-2.31-8.17
	c-0.511-0.22-1.53-0.65-2.04-0.87c-0.801-0.47-1.58-0.96-2.359-1.47c-0.23-0.59-0.681-1.77-0.91-2.36
	C71.34,14.84,69.09,13.35,66.54,13.88 M19.41,28c6.03-0.26,12.16,0.57,18.13-0.47c1.11-0.86,2.16-1.79,3.15-2.8
	c-0.56,0-1.68-0.01-2.23-0.02l0.69,1.02c-2.67,0.68-5.33,1.54-8.13,1.29c-4.27-0.32-8.86,0.88-12.81-1.22
	c-0.46-0.56-1.38-1.67-1.84-2.23C15.44,25.47,18.65,26.5,19.41,28 M91.87,25.13c-0.511,1.88,1.53,2.44,2.69,3.22
	c1.279,0.9,2.6,1.76,3.91,2.62c4.709-0.02,9.43,0.18,14.129-0.06c1.07-0.98,2.021-2.08,2.93-3.2c-1.889-0.05-2.969,1.59-4.539,2.23
	c-3.811,0.17-7.631,0.05-11.44,0c-0.54-0.3-1.61-0.92-2.149-1.23C95.529,27.63,93.92,25.5,91.87,25.13 M15.95,27.95
	c0.02,0.51,0.05,1.54,0.07,2.05c6.66,0,13.32,0,19.98,0v-1c-5.99-0.06-11.99,0.12-17.98-0.06C17.5,28.69,16.47,28.19,15.95,27.95
	 M92.689,29.61c-0.289,2.72,2.44,3.13,4.351,3.66c3.84,1.34,7.979,0.53,11.96,0.72V33c-3.65,0-7.29,0-10.939,0l-0.08-0.75
	C95.77,32.43,94.26,30.86,92.689,29.61 M3.09,80.25c-0.5,1.73,1.93,4.16,3.66,3.66C6.56,82.42,4.57,80.439,3.09,80.25 M3.08,85.05
	c-0.16,1.37,0.45,1.99,1.82,1.86C5.05,85.54,4.44,84.92,3.08,85.05z"/>
<path d="M27.22,0h8.53c1.02,0.59,2.08,1.08,3.2,1.46l0.15,0.87c-1.61-0.38-3.23-0.77-4.81-1.31C26.7-0.2,20.61,5.29,14.35,8.49
	c1.16-1.5,2.54-2.83,4.11-3.9c0.99-0.4,1.97-0.82,2.96-1.24C23.42,2.36,25.43,1.35,27.22,0z"/>
<path d="M103,0h6.05c-1.8,0.63-3.64,1.1-5.46,1.65c-0.5,0.25-1.51,0.76-2.01,1.01c-2.08,0.76-4.62,1.13-5.78,3.3l1.06,0.05
	C97.5,5.91,98.77,5.7,99.4,5.6c0.52-0.4,1.56-1.19,2.08-1.59C104.17,4,106.859,4,109.55,4c1.45,1.49,2.921,2.96,4.4,4.42
	c0.05,0.49,0.17,1.47,0.229,1.96c0.631,1.82,1.1,3.69,1.82,5.47v6.35c-1.33,1.93-2.65,3.88-4.4,5.46
	c-4.01,0.52-8.05,0.34-12.08,0.32c-0.52-0.36-1.56-1.07-2.08-1.43c-1.039-0.26-2.09-0.51-3.129-0.74
	c-1.371-1.4-2.711-2.84-3.961-4.36c-0.43-2.92-0.369-5.87-0.369-8.82c2.26-1.25,4.069-3.1,5.819-4.97c-1.63,0.14-3.26,0.3-4.88,0.44
	l0.109-0.66c2.591-0.11,4.091-2.3,5.57-4.11c2.17-0.77,4.271-1.74,6.4-2.63V0 M95.471,6.24C95.76,6.58,95.76,6.58,95.471,6.24
	 M102.59,7.59c-0.51,0.26-1.52,0.78-2.029,1.04c-2.92,1.73-5.11,4.43-7.471,6.83c-0.97,2.55,1.27,4.32,2.311,6.37
	c2.31,0.8,4.59,1.65,6.57,3.12c2.189,0.12,4.399,0.18,6.579-0.06c2.36-2.15,6.31-4.91,3.71-8.45c-0.21-1.77-0.71-3.47-1.42-5.1
	c-0.88-2.01-2.49-3.38-4.369-4.41C105.16,7.02,103.82,7.05,102.59,7.59z"/>
<path fill="#FFFFFF" d="M109.05,0H116v15.85c-0.721-1.78-1.189-3.65-1.82-5.47c-0.06-0.49-0.18-1.47-0.229-1.96
	c-1.479-1.46-2.95-2.93-4.4-4.42c-2.69,0-5.38,0-8.069,0.01C100.96,4.41,99.92,5.2,99.4,5.6c-0.631,0.1-1.9,0.31-2.541,0.41
	L95.8,5.96c1.16-2.17,3.7-2.54,5.78-3.3c0.5-0.25,1.51-0.76,2.01-1.01C105.41,1.1,107.25,0.63,109.05,0z"/>
<path d="M28.49,3.64c3.19-1.2,6.75-0.57,10.09-0.55c2.49,2.02,4.12,4.82,5.73,7.53c0.53,0.99,1.07,1.97,1.64,2.94
	c0.03,1.67,0.15,3.35-0.04,5.01c-1.42,1.59-2.93,3.29-5.05,3.9l0.45,1.72c-1.49-1.32-3.24-0.34-4.89,0.02
	c-1.69,2.57-4.83,1.67-7.42,1.81c-2.47-0.16-5.14,0.47-7.44-0.68c-1.09-0.56-2.17-1.11-3.27-1.62c-0.81-1.81-1.71-3.57-2.66-5.3
	c-1.22-2.93-0.85-6.39,0.54-9.2c0.57-0.2,1.69-0.62,2.26-0.82c1.41-0.9,2.75-1.92,4.16-2.83c0.97-0.3,1.95-0.59,2.93-0.87
	C26.5,4.32,27.49,3.97,28.49,3.64 M30.42,6.79c-0.46,0.11-1.38,0.33-1.84,0.44c-1.05,0.42-2.12,0.75-3.22,1.02
	c-2.6,2.03-7.51,3.14-7.39,7.07c0.92,1.41,1.67,2.93,2.3,4.49c1.04,0.96,2.11,1.88,3.25,2.72c2.23,0.68,4.59,0.49,6.89,0.38
	c1.35-0.64,2.75-1.14,4.11-1.75c0.52-0.06,1.54-0.2,2.05-0.27c2.17-1.38,4.37-2.71,6.42-4.27l-0.68-1.1
	c-0.32-1.97-1.66-3.46-2.61-5.14c-0.64-2.11-2.34-3.4-4.19-4.4C33.78,6.05,31.91,5.69,30.42,6.79z"/>
<path fill="#FFFFFF" d="M30.42,6.79c1.49-1.1,3.36-0.74,5.09-0.81c1.85,1,3.55,2.29,4.19,4.4c0.95,1.68,2.29,3.17,2.61,5.14
	l0.68,1.1c-2.05,1.56-4.25,2.89-6.42,4.27c-0.51,0.07-1.53,0.21-2.05,0.27c-1.36,0.61-2.76,1.11-4.11,1.75
	c-2.3,0.11-4.66,0.3-6.89-0.38c-1.14-0.84-2.21-1.76-3.25-2.72c-0.63-1.56-1.38-3.08-2.3-4.49c-0.12-3.93,4.79-5.04,7.39-7.07
	c1.1-0.27,2.17-0.6,3.22-1.02C29.04,7.12,29.96,6.9,30.42,6.79 M31,14c0,0.75,0,2.25,0,3c0.75,0,2.25,0,3,0c0-0.75,0-2.25,0-3
	C33.25,14,31.75,14,31,14z"/>
<path fill="#FFFFFF" d="M95.471,6.24C95.76,6.58,95.76,6.58,95.471,6.24z"/>
<path fill="#FFFFFF" d="M102.59,7.59c1.23-0.54,2.57-0.57,3.881-0.66c1.879,1.03,3.489,2.4,4.369,4.41c0.71,1.63,1.21,3.33,1.42,5.1
	c2.6,3.54-1.35,6.3-3.71,8.45c-2.18,0.24-4.39,0.18-6.579,0.06c-1.98-1.47-4.261-2.32-6.57-3.12c-1.041-2.05-3.28-3.82-2.311-6.37
	c2.36-2.4,4.551-5.1,7.471-6.83C101.07,8.37,102.08,7.85,102.59,7.59 M108,15c0,0.75,0,2.25,0,3c0.75,0,2.25,0,3,0
	c0-0.75,0-2.25,0-3C110.25,15,108.75,15,108,15z"/>
<path d="M31,14c0.75,0,2.25,0,3,0c0,0.75,0,2.25,0,3c-0.75,0-2.25,0-3,0C31,16.25,31,14.75,31,14z"/>
<path d="M66.54,13.88c2.55-0.53,4.8,0.96,4.771,3.65c0.229,0.59,0.68,1.77,0.91,2.36c0.779,0.51,1.559,1,2.359,1.47
	c0.51,0.22,1.529,0.65,2.04,0.87c1.94,2.37,2.989,5.07,2.31,8.17c-0.289,0.63-0.89,1.89-1.18,2.52c-2.109,1.93-5.221,0.85-7.79,1.09
	c-1.47,0.3-2.36-0.92-3.36-1.74c-1.08-0.53-2.14-1.09-3.189-1.66c-1.891-0.88-4.03-0.46-6.03-0.73c-2.11-1.08-1.34-3.6-1.33-5.51
	c0.94-1.63,2.8-1.39,4.41-1.49c-0.819,1.77-1.99,3.34-2.9,5.06c0.71,0,2.12,0,2.831,0c1.279-1.8,2.779-0.29,4.189,0.29
	c0.96,0.76,1.93,1.49,2.98,2.13c0.5,0.26,1.51,0.77,2.02,1.03c2.25,1,5.359,1.24,6.779-1.18c2.051-2-0.949-4.11-1.739-5.99
	c-0.521-0.21-1.57-0.62-2.091-0.83c-1.299-0.62-2.299-1.63-2.92-2.93C69.12,18.03,67.68,16.03,66.54,13.88z"/>
<path d="M108,15c0.75,0,2.25,0,3,0c0,0.75,0,2.25,0,3c-0.75,0-2.25,0-3,0C108,17.25,108,15.75,108,15z"/>
<path d="M19.41,28c-0.76-1.5-3.97-2.53-3.04-4.43c0.46,0.56,1.38,1.67,1.84,2.23c3.95,2.1,8.54,0.9,12.81,1.22
	c2.8,0.25,5.46-0.61,8.13-1.29l-0.69-1.02c0.55,0.01,1.67,0.02,2.23,0.02c-0.99,1.01-2.04,1.94-3.15,2.8
	C31.57,28.57,25.44,27.74,19.41,28z"/>
<path d="M91.87,25.13c2.05,0.37,3.659,2.5,5.53,3.58c0.539,0.31,1.609,0.93,2.149,1.23c3.81,0.05,7.63,0.17,11.44,0
	c1.57-0.64,2.65-2.28,4.539-2.23c-0.909,1.12-1.859,2.22-2.93,3.2c-4.699,0.24-9.42,0.04-14.129,0.06
	c-1.311-0.86-2.631-1.72-3.91-2.62C93.4,27.57,91.359,27.01,91.87,25.13z"/>
<path d="M15.95,27.95c0.52,0.24,1.55,0.74,2.07,0.99c5.99,0.18,11.99,0,17.98,0.06v1c-6.66,0-13.32,0-19.98,0
	C16,29.49,15.97,28.46,15.95,27.95z"/>
<path d="M92.689,29.61c1.57,1.25,3.08,2.82,5.291,2.64l0.08,0.75c3.649,0,7.289,0,10.939,0v0.99c-3.98-0.19-8.12,0.62-11.96-0.72
	C95.13,32.74,92.4,32.33,92.689,29.61z"/>
<path d="M90,36c3.55,0.09,7.23-0.45,10.67,0.68c0.5,0.1,1.5,0.3,2,0.4c1.65,1.7,3.32,3.4,4.71,5.33c0.479,1.43,0.94,2.87,1.49,4.27
	c0.08,1.63,0.13,3.259,0.17,4.89c-1.261,0.6-2.5,1.24-3.74,1.89c-1.319,0.3-2.649,0.521-3.979,0.729
	c-1.44,1.44-2.9,2.871-4.381,4.271c0.051,2.41-0.049,4.86,0.701,7.181c0.119,0.459,0.379,1.39,0.5,1.85
	c1.709,1.83,3.149,3.88,4.539,5.949c1.5,2.451,2.891,5.181,5.66,6.41c1.11,0.44,2.21,0.9,3.32,1.351c0.869,1.87,1.82,3.71,2.859,5.5
	c0.631,2.19,0.53,4.479,0.131,6.7c-0.67,0.88-1.351,1.74-2.051,2.6h-2.31c0.979-0.8,1.96-1.62,2.92-2.439
	c-0.21-1.73-0.41-3.461-0.819-5.15c-0.15-0.471-0.461-1.42-0.611-1.891c-0.289-0.629-0.85-1.89-1.139-2.52L110,83.98
	c0,1.529,0,3.06,0,4.6c-0.79,0.75-1.58,1.51-2.37,2.27c-1.819,0.16-3.69,0.25-5.399,0.971C99.41,92.01,96.58,92,93.76,92.18
	c-1.49,0.69-3.14,0.86-4.76,0.84C77.65,93,66.311,92.97,54.96,93.03c-1.94,0-3.93,0-5.72-0.851c-2.2-0.149-4.41-0.21-6.61-0.3
	c-1.37-0.58-2.77-1.09-4.16-1.649c-1.71-0.23-3.42-0.45-5.09-0.881c-0.93-0.229-1.86-0.449-2.79-0.67
	c-4.27-0.619-8.23-2.25-12.19-3.869c-4.91-2.33-8.67-6.36-13.29-9.17C4.89,68.88,4.93,62.08,5.09,55.32
	c1.02-0.881,2.24-1.461,3.42-2.08c1.05-0.65,2.06-1.36,3.06-2.08c0.46-0.12,1.37-0.36,1.83-0.48c1.35-0.38,2.73-0.67,4.11-0.949
	c1.74-0.66,3.49-1.311,5.18-2.07c1.24-0.4,2.49-0.74,3.74-1.1c2.56-0.62,5.21-0.57,7.82-0.78c2.99-1.13,6.25-0.57,9.31-1.311
	c0.47-0.24,1.41-0.7,1.88-0.93c1.82-0.45,3.69-0.57,5.56-0.57c13,0.05,26.01,0.04,39.02,0.01c1.621-0.02,3.26,0.15,4.75,0.84
	c1.601,0.11,3.211,0.17,4.82,0.23c1.12,1.14,2.26,2.27,3.4,3.4c0.02,1.31,0.05,2.62,0.08,3.92c2.06-0.271,4.01-1.011,4.05-3.39
	c-0.69-1.48-1.22-3.03-1.771-4.56c-1.1-1.54-2.359-2.95-3.629-4.36c-0.511-0.09-1.531-0.27-2.041-0.36
	c-3.109-1.09-6.459-0.64-9.68-0.71C90,37.5,90,36.5,90,36z"/>
<path d="M8.42,41.92c0.8,0.09,2.41,0.26,3.21,0.34c-0.87,1.38-2,2.54-3.54,3.15C6.38,47.29,5,49.42,3.61,51.54
	c-0.36,0.979-0.72,1.96-1.07,2.94c-0.97,4.51-0.53,9.18-0.37,13.75c1.27,2.75,0.75,5.85,0.86,8.77c-0.5,0-1.49,0-1.98,0
	C0.9,74.35,1.48,71.48,0,69.09V55.12c0.55-1.56,0.91-3.181,1.22-4.8C3.25,47.24,5.21,43.91,8.42,41.92z"/>
<path d="M3.09,80.25c1.48,0.189,3.47,2.17,3.66,3.66C5.02,84.41,2.59,81.98,3.09,80.25z"/>
<path d="M0,80.42c1.24,1.02,3.13,1.99,3.12,3.83C1.81,83.82,0.77,83.01,0,81.83V80.42z"/>
<path d="M3.08,85.05c1.36-0.13,1.97,0.49,1.82,1.86C3.53,87.04,2.92,86.42,3.08,85.05z"/>
</svg>
