<?xml version="1.0" encoding="utf-8"?>
<!-- Generator: Adobe Illustrator 15.0.2, SVG Export Plug-In . SVG Version: 6.00 Build 0)  -->
<!DOCTYPE svg PUBLIC "-//W3C//DTD SVG 1.1//EN" "http://www.w3.org/Graphics/SVG/1.1/DTD/svg11.dtd">
<svg version="1.1" id="Layer_1" xmlns="http://www.w3.org/2000/svg" xmlns:xlink="http://www.w3.org/1999/xlink" x="0px" y="0px"
	 width="71px" height="81px" viewBox="0 0 71 81" enable-background="new 0 0 71 81" xml:space="preserve">
<path fill="#FFFFFF" d="M0,0h8.08C6.8,1.01,5.49,1.97,4.23,3C2.82,3,1.41,3,0,3V0z"/>
<path d="M8.08,0h13.15c1.43,1.76,2.66,3.67,3.7,5.69c0.15,1.47,0.49,2.89,1.03,4.26c-0.03,1.75-0.13,3.51-0.36,5.25
	c-1.03,0.45-2.05,0.92-3.06,1.42c-1.35,0.81-2.68,1.66-4.03,2.48c-3.6-0.18-7.21,0.02-10.82-0.14c-2.41-0.71-4.44-2.27-6.5-3.66
	C0.89,14.47,0.3,12.81,0,11.98V3c1.41,0,2.82,0,4.23,0C5.49,1.97,6.8,1.01,8.08,0 M4.52,3.74c-1.21,0.34-2.9,0.33-3.45,1.74
	c-0.19,2.36-0.29,4.81,0.48,7.09c0.34,2.93,3.63,3.7,5.73,5.14c2.85,0.73,5.88,0.12,8.8,0.33c2.6,0.57,4.15-1.93,6.33-2.75
	c2.65-0.63,3.07-3.29,2.51-5.62c-0.98-2.03-1.24-4.31-2.06-6.41C22.09,2.52,21.3,1.8,20.5,1.1C15.07,1.1,8.97-0.24,4.52,3.74z"/>
<path fill="#FFFFFF" d="M21.23,0H71v14.21c-0.939-1.22-1.67-2.59-2.359-3.96c-0.701-0.8-1.41-1.58-2.121-2.36
	c-1.93,0.07-3.859,0.09-5.789,0.09c-0.75,0.48-1.5,0.95-2.26,1.42c-0.971,1.47-2.091,2.84-3.131,4.27
	c-0.561,4.57-0.939,9.46,1.33,13.66c3.18,1.47,6.62,2.17,10.01,2.99c0.211-0.78,0.631-2.34,0.85-3.12
	c0.761-1.52,2.011-2.69,3.471-3.55V81H39.971c-2.73-1.859-5.951-2.21-9.171-2.23c-2.41-0.77-4.97-0.779-7.41-1.359
	c-2.52-0.43-4.91-1.41-6.89-3.04c-1.01-0.67-1.99-1.38-2.97-2.09c-1.42-0.271-2.83-0.58-4.14-1.22c-0.67-2.19-2.4-3.701-4.39-4.69
	c0-0.521,0-1.55-0.01-2.06c-0.45-0.36-1.36-1.08-1.81-1.44C3.6,61.59,3.97,60.3,4.32,59c0.42,0,1.26-0.01,1.68-0.01V58
	c-0.73,0-2.19,0-2.91,0c-0.06,0.58-0.17,1.74-0.23,2.32c-0.36,0.89-0.72,1.789-1.05,2.699c0.91,1.2,1.8,2.431,2.59,3.721
	c1.95,2.14,4,4.18,6.01,6.26c0.51,0,1.54,0,2.05,0c2.31,1.47,4.41,3.28,6.94,4.359c1.03,0.36,2.05,0.721,3.08,1.07
	c1.9,0.43,3.84,0.62,5.77,0.881c2.94,0.799,6.09,0.539,8.96,1.689H0V11.98c0.3,0.83,0.89,2.49,1.19,3.32
	c2.06,1.39,4.09,2.95,6.5,3.66c3.61,0.16,7.22-0.04,10.82,0.14c1.35-0.82,2.68-1.67,4.03-2.48c1.01-0.5,2.03-0.97,3.06-1.42
	c0.23-1.74,0.33-3.5,0.36-5.25c-0.54-1.37-0.88-2.79-1.03-4.26C23.89,3.67,22.66,1.76,21.23,0 M23.8,22.49
	c-0.56,3.01,2.85,3.64,4.77,4.94c3.13,1.31,6.73-0.22,9.821,1.2c1.58,1,3.289,1.82,5.219,1.36c1.851-1.07,1.32-3.22,1.5-4.99
	C43.41,25,41.71,25,40,25l-0.01,1c1.34,0,2.68,0,4.02,0c-0.01,0.8-0.029,2.4-0.05,3.2c-1.12-0.24-2.229-0.51-3.33-0.81
	c-3.19-2.66-7.52-0.45-11.07-1.99c-0.5-0.26-1.48-0.79-1.98-1.05c-1.09-0.66-2.15-1.37-3.19-2.13c4-1.55,7.08-5.46,11.6-5.39
	c0.02-0.46,0.07-1.38,0.09-1.84C31.55,17.25,27.72,20.05,23.8,22.49 M4.95,34.24c0.03,2.09-0.02,4.21,0.5,6.26
	c1.12,2.88,4.96,2.13,6.07,4.99c0.5,1.279,0.56,2.689-0.05,3.949c-1.45,2.211-3.2,4.261-4.44,6.591c-0.07,2.189-0.47,4.6,0.75,6.579
	C7.89,63.07,8.09,63.99,8.2,64.45c0.59,4.819,5.61,6.21,9.42,7.89c1.68,0.44,3.36,0.92,5.02,1.44c1.68,0.17,3.4,0.22,4.97,0.92
	C29,75,30.47,75.1,31.69,75.91c5.541,0.15,11.089,0.14,16.63,0.01c1.449-1.13,3.32-0.89,5.029-1.12c1.94-0.95,4.16-0.79,6.2-1.37
	c1.78-0.279,3.12-1.399,3.99-2.92c0.819-3.55,0.42-7.22,0.37-10.82c-1.42-1.819-0.689-4.18-0.99-6.279
	c-7.1-5.46-13.949-11.49-22.38-14.85c-2.09-0.77-4.34-0.54-6.52-0.58c-7.85,0.12-15.7-0.12-23.54,0.1
	c-1.77,0.71-1.34,2.91-1.75,4.37c-0.79-0.97-1.53-1.97-2.24-3c-0.3-1.37-0.5-2.77-0.67-4.16c3.46-1.85,7.42-1.22,11.18-1.28l0.01-1
	C12.97,33.17,8.69,32.28,4.95,34.24 M59.65,40.61c1.08,1.55,2.17,3.09,3.129,4.72c0.41,1.439,0.971,2.83,1.451,4.25
	c2.06,2.72,2.729,5.95,3.77,9.1c0,2.44,0,4.881,0,7.32h1c0-2.76,0-5.52,0-8.27c-0.98-1.101-1.21-2.59-1.05-4.021
	c-1.021-1.63-1.79-3.399-2.64-5.12c-0.66-1.37-1.4-2.699-2.08-4.06C63.27,42.35,61.83,40.79,59.65,40.61z"/>
<path fill="#FFFFFF" d="M4.52,3.74C8.97-0.24,15.07,1.1,20.5,1.1c0.8,0.7,1.59,1.42,2.36,2.16c0.82,2.1,1.08,4.38,2.06,6.41
	c0.56,2.33,0.14,4.99-2.51,5.62c-2.18,0.82-3.73,3.32-6.33,2.75c-2.92-0.21-5.95,0.4-8.8-0.33c-2.1-1.44-5.39-2.21-5.73-5.14
	c-0.77-2.28-0.67-4.73-0.48-7.09C1.62,4.07,3.31,4.08,4.52,3.74 M4.45,6.02c-1.79,0.92-1.61,2.82-1.43,4.53
	c0.93,1.78,2.82,1.61,4.53,1.43c1.79-0.93,1.61-2.82,1.43-4.53C8.05,5.67,6.16,5.84,4.45,6.02z"/>
<path d="M4.45,6.02c1.71-0.18,3.6-0.35,4.53,1.43c0.18,1.71,0.36,3.6-1.43,4.53c-1.71,0.18-3.6,0.35-4.53-1.43
	C2.84,8.84,2.66,6.94,4.45,6.02z"/>
<path d="M58.471,9.4c0.76-0.47,1.51-0.94,2.26-1.42c1.93,0,3.859-0.02,5.789-0.09c0.711,0.78,1.42,1.56,2.121,2.36
	c0.689,1.37,1.42,2.74,2.359,3.96v9.44c-1.46,0.86-2.71,2.03-3.471,3.55c-0.219,0.78-0.639,2.34-0.85,3.12
	c-3.39-0.82-6.83-1.52-10.01-2.99c-2.27-4.2-1.891-9.09-1.33-13.66C56.38,12.24,57.5,10.87,58.471,9.4 M61.37,9.15
	c-2.511,0.9-3.649,3.48-5.37,5.32c0.33,3.74-1,7.92,1.29,11.24c1.45,1.72,3.851,2.58,6.09,2.3c0.67,0.48,1.351,0.96,2.05,1.42
	c0.291-0.72,0.86-2.17,1.15-2.9c0.699-1.79,2.641-2.7,3.391-4.41c0.229-3.28,0.27-6.7-1.141-9.75c-1.04-1.17-2.03-2.37-3.02-3.58
	C64.32,8.87,62.84,8.99,61.37,9.15z"/>
<path fill="#FFFFFF" d="M61.37,9.15c1.47-0.16,2.95-0.28,4.44-0.36C66.8,10,67.79,11.2,68.83,12.37c1.41,3.05,1.37,6.47,1.141,9.75
	c-0.75,1.71-2.691,2.62-3.391,4.41c-0.29,0.729-0.859,2.18-1.15,2.9c-0.699-0.46-1.38-0.94-2.05-1.42
	c-2.239,0.28-4.64-0.58-6.09-2.3C55,22.39,56.33,18.21,56,14.47C57.721,12.63,58.859,10.05,61.37,9.15 M64.45,17.02
	c-1.78,0.93-1.61,2.81-1.44,4.52c0.93,1.79,2.83,1.62,4.54,1.44c1.78-0.93,1.61-2.82,1.44-4.53C68.05,16.66,66.16,16.84,64.45,17.02
	z"/>
<path d="M23.8,22.49c3.92-2.44,7.75-5.24,12.28-6.5c-0.02,0.46-0.07,1.38-0.09,1.84c-4.52-0.07-7.6,3.84-11.6,5.39
	c1.04,0.76,2.1,1.47,3.19,2.13c0.5,0.26,1.48,0.79,1.98,1.05c3.55,1.54,7.879-0.67,11.07,1.99c1.101,0.3,2.21,0.57,3.33,0.81
	c0.021-0.8,0.04-2.4,0.05-3.2c-1.34,0-2.68,0-4.02,0L40,25c1.71,0,3.41,0,5.109,0c-0.18,1.77,0.351,3.92-1.5,4.99
	c-1.93,0.46-3.639-0.36-5.219-1.36c-3.091-1.42-6.69,0.11-9.821-1.2C26.65,26.13,23.24,25.5,23.8,22.49z"/>
<path d="M64.45,17.02c1.71-0.18,3.6-0.36,4.54,1.43c0.17,1.71,0.34,3.6-1.44,4.53c-1.71,0.18-3.61,0.35-4.54-1.44
	C62.84,19.83,62.67,17.95,64.45,17.02z"/>
<path d="M4.95,34.24c3.74-1.96,8.02-1.07,12.06-1.23l-0.01,1c-3.76,0.06-7.72-0.57-11.18,1.28c0.17,1.39,0.37,2.79,0.67,4.16
	c0.71,1.03,1.45,2.03,2.24,3c0.41-1.46-0.02-3.66,1.75-4.37c7.84-0.22,15.69,0.02,23.54-0.1c2.18,0.04,4.43-0.19,6.52,0.58
	c8.431,3.36,15.28,9.39,22.38,14.85c0.301,2.1-0.43,4.46,0.99,6.279c0.05,3.601,0.449,7.271-0.37,10.82
	c-0.87,1.521-2.21,2.641-3.99,2.92c-2.04,0.58-4.26,0.42-6.2,1.37c-1.709,0.23-3.58-0.01-5.029,1.12
	c-5.541,0.13-11.09,0.141-16.63-0.01C30.47,75.1,29,75,27.61,74.7c-1.57-0.7-3.29-0.75-4.97-0.92c-1.66-0.521-3.34-1-5.02-1.44
	c-3.81-1.68-8.83-3.07-9.42-7.89c-0.11-0.46-0.31-1.38-0.42-1.841c-1.22-1.979-0.82-4.39-0.75-6.579c1.24-2.33,2.99-4.38,4.44-6.591
	c0.61-1.26,0.55-2.67,0.05-3.949c-1.11-2.86-4.95-2.11-6.07-4.99C4.93,38.45,4.98,36.33,4.95,34.24z"/>
<path d="M59.65,40.61c2.18,0.18,3.619,1.74,3.58,3.92c0.68,1.36,1.42,2.689,2.08,4.06c0.85,1.721,1.619,3.49,2.64,5.12
	c-0.16,1.431,0.069,2.92,1.05,4.021c0,2.75,0,5.51,0,8.27h-1c0-2.439,0-4.88,0-7.32c-1.04-3.149-1.71-6.38-3.77-9.1
	c-0.48-1.42-1.041-2.811-1.451-4.25C61.82,43.7,60.73,42.16,59.65,40.61z"/>
<path d="M3.09,58c0.72,0,2.18,0,2.91,0v0.99C5.58,58.99,4.74,59,4.32,59c-0.35,1.3-0.72,2.59-1.14,3.87
	c0.45,0.36,1.36,1.08,1.81,1.44C5,64.82,5,65.85,5,66.37c1.99,0.989,3.72,2.5,4.39,4.69c1.31,0.64,2.72,0.949,4.14,1.22
	c0.98,0.71,1.96,1.42,2.97,2.09c1.98,1.63,4.37,2.61,6.89,3.04c2.44,0.58,5,0.59,7.41,1.359c3.22,0.021,6.44,0.371,9.171,2.23H37.21
	c-2.87-1.15-6.02-0.891-8.96-1.689c-1.93-0.261-3.87-0.451-5.77-0.881c-1.03-0.35-2.05-0.71-3.08-1.07
	c-2.53-1.079-4.63-2.89-6.94-4.359c-0.51,0-1.54,0-2.05,0c-2.01-2.08-4.06-4.12-6.01-6.26c-0.79-1.29-1.68-2.521-2.59-3.721
	c0.33-0.91,0.69-1.81,1.05-2.699C2.92,59.74,3.03,58.58,3.09,58z"/>
</svg>
