<?xml version="1.0" encoding="utf-8"?>
<!-- Generator: Adobe Illustrator 15.0.2, SVG Export Plug-In . SVG Version: 6.00 Build 0)  -->
<!DOCTYPE svg PUBLIC "-//W3C//DTD SVG 1.1//EN" "http://www.w3.org/Graphics/SVG/1.1/DTD/svg11.dtd">
<svg version="1.1" id="Layer_1" xmlns="http://www.w3.org/2000/svg" xmlns:xlink="http://www.w3.org/1999/xlink" x="0px" y="0px"
	 width="128px" height="106px" viewBox="0 0 128 106" enable-background="new 0 0 128 106" xml:space="preserve">
<path fill="#FFFFFF" d="M0,0h32.85l-1.43,0.69l-1.01,1.05c2.72-0.82,5.57-0.81,8.37-0.59c3.11,1.68,5.96,3.79,9.02,5.56
	c-1.16-1.63-2.53-3.12-4.22-4.22C42.09,1.62,40.59,0.77,39.04,0H128v41.38c-1.43-1.89-4.26-1.97-6.2-0.89
	c2.021,0.61,4.091,1.19,6.2,1.38V106H88.95c0.5-1.939,0.239-4.439-1.95-5.17c0.1,1.811,0.82,3.52,1.529,5.17H60.19
	c-1.24-0.439-2.48-0.87-3.72-1.28c-2.31-1.14-4.59-2.399-7.09-3.1c-0.47-0.351-1.42-1.05-1.89-1.4c-0.53-0.29-1.58-0.87-2.11-1.159
	c-1.13-0.03-2.26-0.07-3.4-0.101l0.04,1.04c1.12,0,2.24-0.01,3.36-0.01c1.37,0.85,2.73,1.729,4.07,2.63
	c2.25,1.01,4.35,2.3,6.57,3.38H0V18.02l0.66,0.04l0.02-0.57L0,17.4V0 M23.23,4.9c-0.89,0.04-1.78,0.08-2.66,0.12
	c-1.96,1.96-4.85,2.89-6.01,5.58c-1.61,0.8-3.01,2.05-2.91,4.04c3.25-2.92,6.15-6.25,9.87-8.62c0.9-0.04,1.81-0.08,2.71-0.12
	c5.06-2.02,10.89-0.36,16.25-0.91c1.71,1.63,3.3,3.74,5.78,4.14c-1.25-1.98-3.1-3.46-4.71-5.13c-5.49,0.07-11-0.14-16.49,0.08
	C24.6,4.28,23.69,4.69,23.23,4.9 M23.6,8.12c-1.56,1.28-3.17,2.49-4.72,3.79c-2.4,3.39-6.32,5.23-8.81,8.58
	c-0.43,3.13-0.11,6.29,1.52,9.03c0.77,1.19,1.76,2.2,2.87,3.07c5.97,0.55,12.21,0.93,18.1-0.19c1.36-0.48,2.67-1.05,3.99-1.63
	c0.99-0.5,1.98-0.98,2.99-1.45c2.9-1.77,5-4.51,7.48-6.78c-0.12-2.38,0.36-4.9-0.7-7.12c-0.29-0.99-0.58-1.98-0.9-2.96
	c-1.08-1.63-2.41-3.09-3.86-4.4C35.58,7.98,29.57,7.87,23.6,8.12 M94.43,10.29c-1.459,0.73-2.93,1.45-4.43,2.11l0.01,0.91
	c1.58-0.34,3.09-0.88,4.59-1.46c2.131-1.27,4.32-2.46,6.2-4.1C98.4,7.78,96.55,9.42,94.43,10.29 M0.72,16.16
	c1.82-0.17,4.08-2.5,4.37-4.24C3.36,12.2,1.03,14.46,0.72,16.16 M97.29,13.84c-1.261,0.09-2.521,0.1-3.771,0.29
	c-3.92,3.18-7.67,6.83-9.949,11.41c-0.211,0.8-0.65,2.4-0.86,3.2c0.99-0.99,1.95-2.03,2.61-3.28c2.06-4.2,5.49-7.55,9.229-10.27
	c2.41-0.06,4.95,0.01,6.11-2.61C99.811,12.89,98.13,13.52,97.29,13.84 M5.23,17.75c0.89,0.54,3.53,0.95,3.54-0.51
	C7.89,16.68,5.25,16.3,5.23,17.75 M94.439,18.43c-2.399,1.68-3.279,4.93-6.17,6c-0.26,0.49-0.779,1.46-1.039,1.95
	c-1.851,3.38-1.66,7.69-0.53,11.27c0.96,5.88,5.159,10.48,9.84,13.91c3.09,0.68,6.3,0.5,9.44,0.38c3.18-1.17,5.119-4.83,8.649-5.19
	c1.36-1.22,2.66-2.55,4.37-3.28c-0.279-4.939,0.62-10.02-0.529-14.87c-1.5-3.24-3.851-6.06-6.891-7.97
	c-1.4-0.48-2.84-0.88-4.221-1.41c-0.42-0.11-1.27-0.33-1.689-0.45C102.17,17.31,98.109,17.97,94.439,18.43 M3.23,19.23
	c-0.12,1.42,3.6,1.43,3.56,0.05C5.61,18.63,4.42,18.61,3.23,19.23 M59,28c-0.28,4.17,0.69,8.55-0.65,12.58
	c-0.32,0.99-0.66,1.99-1.02,2.97c-0.32,2.45-2.47,3.9-3.65,5.92c-0.27,0.53-0.83,1.59-1.11,2.12c-0.62,2.37-1.64,5.84,0.92,7.37
	c3.9,0.149,7.8-0.04,11.71,0.08c2.28,2.021,5.819,1.12,6.149-2.09c1.061,0.85,2.121,1.7,3.23,2.489
	c4.311,5.73,8.68,11.541,11.79,18.03c0.34,0.97,0.659,1.96,0.97,2.95c1.28,3.35,0.439,7.05,0.65,10.561L89,91.02
	c-0.26-3.85,0.66-7.899-0.66-11.6c-0.3-0.98-0.63-1.939-0.97-2.9C83.779,70.28,80.02,64.1,75.58,58.41
	c-1.27-0.75-2.52-1.6-3.37-2.82c-0.37-1.57,0.069-3.69-1.7-4.54c-1.83-0.13-3.67-0.06-5.51-0.07c0,0.48,0,1.44,0,1.92
	c1.85-0.12,5.35-0.07,5,2.6c-1.02,0.79-1.76,2.77-3.35,2.061c-1.721-1.23-3.3-2.82-5.561-2.841c-0.03,0.58-0.09,1.72-0.13,2.3
	c-2.36-0.31-5.46,0.99-6.98-1.5c-0.46-2.39,2.02-3.89,2.76-5.979c0.8-1.4,1.76-2.69,2.61-4.06c0.35-0.96,0.69-1.92,1-2.9
	c1.4-4.69,0.32-9.74,0.65-14.58C60.5,28,59.5,28,59,28 M9.26,31.71c1.47,1.66,3.4,2.72,5.32,3.76c3.4,1.021,7.01,0.35,10.5,0.55
	c2.19-0.14,4.61,0.43,6.59-0.81c0.41-0.11,1.24-0.31,1.65-0.42c2-1.23,4.42-0.67,6.63-0.83c0.03-0.5,0.1-1.51,0.14-2.02
	c-1.78,1.34-4.01,1.05-6.09,1.14V34c-0.76,0-2.28,0-3.03,0l0.07,1c-5.12-0.26-10.36,0.59-15.39-0.51c-1.08-0.64-2.16-1.29-3.25-1.92
	C11.61,32.35,10.04,31.93,9.26,31.71 M1.99,35.78L2,36.57c1.25,0.58,2.46,1.23,3.68,1.87c2.03,0.57,4.24,0.44,6.13,1.48
	c3.61-0.19,7.6,0.99,10.88-0.95C24.13,38.99,25.56,39,27,39.01V38c-1.75,0-3.5,0-5.25,0c-2.52,2.03-6.01,0.66-8.96,0.93
	c-1.81-1.36-4.13-0.84-6.22-0.98C5.36,36.6,3.86,35.67,1.99,35.78 M31.51,40.6c-1.81,1.06-3.29,2.57-4.8,4
	c-1.26,0.58-2.32,1.48-3.51,2.19c-1.68,0.32-3.51,0.15-5.02,1.13C15.12,48.03,12.06,48,9,48v1c3.4,0,6.79,0.05,10.19-0.09
	c2.08-1,4.59-0.8,6.37-2.42c3.3-2.74,7.08-4.87,10.19-7.83C34.07,38.65,32.83,39.77,31.51,40.6 M82.91,40.6
	c0.71,2.71,2.24,5.12,2.82,7.89c0.91,2.27,1.14,5.01,3.069,6.72c2.81,2.59,6.31,4.271,9.601,6.14c1,0.351,2.02,0.681,3.039,0.99
	c2.061,0.95,4.371,0.59,6.561,0.71l0.01-0.97c-1.949-0.17-4.1,0.279-5.789-0.99c-1.061-0.05-2.121-0.1-3.171-0.14l-0.06-0.46
	c-3.23-2.08-6.62-3.84-9.811-5.96c-1.1-2.4-1.67-5.021-3.14-7.25c0-0.64,0-1.9,0-2.54C85.16,43.25,84.46,41.56,82.91,40.6
	 M122.13,43.52c1,0.72,2.399,1.85,3.69,1.34C126.189,43.23,122.66,41.95,122.13,43.52 M89.48,49.59
	c0.299,2.23,2.049,3.35,3.939,4.16c4.141,3.52,9.63,1.939,14.58,2.25v-1.01c-3.359-0.08-6.75,0.21-10.09-0.061
	c-1.53-0.76-2.79-1.979-4.37-2.66C92.141,51.45,90.85,50.47,89.48,49.59 M114.23,52.92c-1.41,0.05-2.82,0.08-4.23,0.12l-0.02,0.97
	c2.859-0.029,6.289,0.86,7.689-2.46C116.811,51.89,115.09,52.58,114.23,52.92 M39.6,63.62c-0.73,0.94-1.46,1.88-2.09,2.89
	c-0.28,1.15-0.52,2.32-0.72,3.49L36,70.02c0,0.371,0,1.101,0,1.471c-1.75,0.41-3.09,1.77-3.51,3.51L32,75.01c0,1.33,0,2.66,0,3.99
	h0.89c-0.94-3.83,2.44-5.811,4.46-8.391c0.43-1.039,0.86-2.09,1.29-3.129c1.39-3.32,3.72-6.131,5.67-9.131
	c2.14-2.279,5.17-3.47,7.47-5.59C45.97,53.59,41.94,58.54,39.6,63.62 M63.29,61.061c-0.56,2.14-0.59,4.76,0.01,6.899
	C64.561,66.83,64.58,62.13,63.29,61.061 M57.27,63.141c-0.59,1.439-0.62,3.319,0.03,4.75C58.6,67.46,58.61,63.48,57.27,63.141
	 M46,73v1c5.4,0.02,10.81-0.05,16.21,0.05c2.81,1.99,6.67-0.05,9.45,2.24c2.16,0.62,4.061,1.78,5.859,3.12
	c-0.299-3.33-3.729-3.551-6.129-4.75c-2.611-1.26-5.621-0.46-8.4-0.66l0.03-1C57.35,73,51.68,73,46,73 M35.76,73.91
	c2.1,1.38,0.85,3.109-0.11,4.72c-0.93,1.2-2.39,2.28-1.83,4.11c1.93-2.6,4.34-5.16,4.45-8.6C37.64,74.09,36.39,73.97,35.76,73.91
	 M28.05,75.99c-0.19,1.72,0.56,3.81-0.78,5.21c-0.93,0.979-1.49,2.159-1.66,3.53c3.07-1.881,3.85-5.371,3.44-8.721L28.05,75.99
	 M42.46,78.061c-1.01,1.17-2.95,2.039-2.52,3.879c-0.7,2.931,2.3,4.4,3.49,6.641c1.99,1.39,3.79,3.05,5.94,4.21
	c1.07,0.47,2.12,0.979,3.19,1.46c1.43,0.641,2.74,1.84,4.4,1.74C62.9,96.05,68.84,95.97,74.77,96c1.32-2.609,1.53-5.55,1.141-8.41
	c-1.09-1.35-2.311-2.59-3.29-4.02c-0.229-0.641-0.67-1.93-0.899-2.57C71.29,81,70.43,81,70,81.01c0-0.479,0-1.449,0-1.93
	c-1.96-0.16-4.13,0.29-5.81-1.02C56.95,77.99,49.69,77.92,42.46,78.061 M84,87c0,3,0,6,0,9h1c0-2.67,0-5.33,0-8c0.5,0,1.5,0,2,0v-1
	C86.25,87,84.75,87,84,87 M36.53,87.58c2.27,2.63,3.81,6,6.85,7.87c2.34,1.399,4.64,2.909,7.14,4c1.26,0.35,2.54,0.569,3.82,0.819
	c2.5,1.25,5.37,0.34,7.98,1.051c3.77,1.24,7.8,0.5,11.69,0.67L74,101c-3.67,0-7.33,0-11,0v-0.97c-2.06-0.021-4.13-0.04-6.19-0.12
	c-1.69-0.83-3.57-1-5.35-1.52c-1.52-0.23-2.78-1.051-3.84-2.131c-4.11-0.729-6.55-4.859-8.86-8C38.2,88.09,37.09,87.75,36.53,87.58
	 M88.939,93c0.041,2.18,0.031,4.38,0.48,6.52c1.03,1.391,2.189,2.801,4.061,2.94c-0.99-1.36-2.051-2.68-3.021-4.06
	c-0.44-1.771-0.47-3.59-0.569-5.4H88.939z"/>
<path d="M32.85,0h6.19c1.55,0.77,3.05,1.62,4.54,2.49c1.69,1.1,3.06,2.59,4.22,4.22c-3.06-1.77-5.91-3.88-9.02-5.56
	c-2.8-0.22-5.65-0.23-8.37,0.59l1.01-1.05L32.85,0z"/>
<path d="M23.23,4.9c0.46-0.21,1.37-0.62,1.83-0.82c5.49-0.22,11-0.01,16.49-0.08c1.61,1.67,3.46,3.15,4.71,5.13
	c-2.48-0.4-4.07-2.51-5.78-4.14C35.12,5.54,29.29,3.88,24.23,5.9c-0.9,0.04-1.81,0.08-2.71,0.12c-3.72,2.37-6.62,5.7-9.87,8.62
	c-0.1-1.99,1.3-3.24,2.91-4.04c1.16-2.69,4.05-3.62,6.01-5.58C21.45,4.98,22.34,4.94,23.23,4.9z"/>
<path d="M23.6,8.12c5.97-0.25,11.98-0.14,17.96-0.06c1.45,1.31,2.78,2.77,3.86,4.4c0.32,0.98,0.61,1.97,0.9,2.96
	c1.06,2.22,0.58,4.74,0.7,7.12c-2.48,2.27-4.58,5.01-7.48,6.78c-1.01,0.47-2,0.95-2.99,1.45c-1.32,0.58-2.63,1.15-3.99,1.63
	c-5.89,1.12-12.13,0.74-18.1,0.19c-1.11-0.87-2.1-1.88-2.87-3.07c-1.63-2.74-1.95-5.9-1.52-9.03c2.49-3.35,6.41-5.19,8.81-8.58
	C20.43,10.61,22.04,9.4,23.6,8.12 M25.57,10.99c-1.3,1.25-2.62,2.49-4.15,3.45c-1.84,3.49-6.14,4.58-8.02,8.11
	c-0.66,1.49,0.29,2.78,0.87,4.09c0.26,0.55,0.78,1.67,1.04,2.22c3.68,1.92,7.93,0.97,11.89,1.04c1.69-0.79,3.56-0.99,5.32-1.55
	c1.4-0.45,2.75-0.99,4.12-1.5c2.9-1.2,3.9-4.49,6.73-5.79c1.61-0.6,0.12-2.62-0.07-3.65c-0.27-0.99-0.57-1.97-0.87-2.94
	c-0.82-1.24-1.77-2.4-2.85-3.42C34.91,10.88,30.24,11.07,25.57,10.99z"/>
<path d="M94.43,10.29c2.12-0.87,3.971-2.51,6.37-2.54c-1.88,1.64-4.069,2.83-6.2,4.1c-1.5,0.58-3.01,1.12-4.59,1.46L90,12.4
	C91.5,11.74,92.971,11.02,94.43,10.29z"/>
<path fill="#FFFFFF" d="M25.57,10.99c4.67,0.08,9.34-0.11,14.01,0.06c1.08,1.02,2.03,2.18,2.85,3.42c0.3,0.97,0.6,1.95,0.87,2.94
	c0.19,1.03,1.68,3.05,0.07,3.65c-2.83,1.3-3.83,4.59-6.73,5.79c-1.37,0.51-2.72,1.05-4.12,1.5c-1.76,0.56-3.63,0.76-5.32,1.55
	c-3.96-0.07-8.21,0.88-11.89-1.04c-0.26-0.55-0.78-1.67-1.04-2.22c-0.58-1.31-1.53-2.6-0.87-4.09c1.88-3.53,6.18-4.62,8.02-8.11
	C22.95,13.48,24.27,12.24,25.57,10.99 M21,20c0,0.75,0,2.25,0,3c0.75,0,2.25,0,3,0c0-0.75,0-2.25,0-3C23.25,20,21.75,20,21,20z"/>
<path d="M0.72,16.16c0.31-1.7,2.64-3.96,4.37-4.24C4.8,13.66,2.54,15.99,0.72,16.16z"/>
<path fill="#080808" d="M97.29,13.84c0.84-0.32,2.521-0.95,3.37-1.26c-1.16,2.62-3.7,2.55-6.11,2.61
	c-3.739,2.72-7.17,6.07-9.229,10.27c-0.66,1.25-1.62,2.29-2.61,3.28c0.21-0.8,0.649-2.4,0.86-3.2c2.279-4.58,6.029-8.23,9.949-11.41
	C94.77,13.94,96.029,13.93,97.29,13.84z"/>
<path d="M0,17.4l0.68,0.09l-0.02,0.57L0,18.02V17.4z"/>
<path d="M5.23,17.75c0.02-1.45,2.66-1.07,3.54-0.51C8.76,18.7,6.12,18.29,5.23,17.75z"/>
<path d="M94.439,18.43c3.67-0.46,7.73-1.12,11.23,0.34c0.42,0.12,1.27,0.34,1.689,0.45c1.381,0.53,2.82,0.93,4.221,1.41
	c3.04,1.91,5.391,4.73,6.891,7.97c1.149,4.85,0.25,9.93,0.529,14.87c-1.71,0.73-3.01,2.061-4.37,3.28
	c-3.53,0.36-5.47,4.02-8.649,5.19c-3.141,0.12-6.351,0.3-9.44-0.38c-4.681-3.43-8.88-8.03-9.84-13.91
	c-1.13-3.58-1.32-7.89,0.53-11.27c0.26-0.49,0.779-1.46,1.039-1.95C91.16,23.36,92.04,20.11,94.439,18.43 M95.48,22.12
	c-1.41,2.91-4.211,4.78-6.051,7.39c-0.34,1.51-0.4,3.07-0.43,4.62c1.55,3.5,1.99,8.23,5.561,10.27c0.939,1.71,2.35,3.08,3.959,4.16
	c1.4,0.36,2.881,0.71,4.131-0.32c1.27-0.23,2.539-0.43,3.789-0.75c1.721-1.2,3.23-2.67,5.021-3.771c1.75-0.65,3.29-1.72,4.5-3.15
	c0-3.3,0.47-6.74-0.51-9.95c-0.271-0.52-0.82-1.57-1.101-2.09c-1.57-2.97-4.709-4.83-7.8-5.87c-0.979-0.36-1.97-0.69-2.97-1
	C100.99,20.52,97.93,20.74,95.48,22.12z"/>
<path d="M3.23,19.23c1.19-0.62,2.38-0.6,3.56,0.05C6.83,20.66,3.11,20.65,3.23,19.23z"/>
<path d="M21,20c0.75,0,2.25,0,3,0c0,0.75,0,2.25,0,3c-0.75,0-2.25,0-3,0C21,22.25,21,20.75,21,20z"/>
<path fill="#FFFFFF" d="M95.48,22.12c2.449-1.38,5.51-1.6,8.1-0.46c1,0.31,1.99,0.64,2.97,1c3.091,1.04,6.229,2.9,7.8,5.87
	c0.28,0.52,0.83,1.57,1.101,2.09c0.979,3.21,0.51,6.65,0.51,9.95c-1.21,1.43-2.75,2.5-4.5,3.15c-1.79,1.1-3.3,2.57-5.021,3.771
	c-1.25,0.32-2.52,0.52-3.789,0.75c-1.25,1.03-2.73,0.68-4.131,0.32c-1.609-1.08-3.02-2.45-3.959-4.16
	C90.99,42.36,90.55,37.63,89,34.13c0.029-1.55,0.09-3.11,0.43-4.62C91.27,26.9,94.07,25.03,95.48,22.12 M101,38c0,0.75,0,2.25,0,3
	c0.75,0,2.25,0,3,0c0-0.75,0-2.25,0-3C103.25,38,101.75,38,101,38z"/>
<path d="M59,28c0.5,0,1.5,0,2,0c-0.33,4.84,0.75,9.89-0.65,14.58c-0.31,0.98-0.65,1.94-1,2.9c-0.85,1.37-1.81,2.66-2.61,4.06
	c-0.74,2.09-3.22,3.59-2.76,5.979c1.52,2.49,4.62,1.19,6.98,1.5c0.04-0.58,0.1-1.72,0.13-2.3c2.26,0.021,3.84,1.61,5.561,2.841
	C68.24,58.27,68.98,56.29,70,55.5c0.35-2.67-3.15-2.72-5-2.6c0-0.48,0-1.44,0-1.92c1.84,0.01,3.68-0.06,5.51,0.07
	c1.77,0.85,1.33,2.97,1.7,4.54c0.851,1.221,2.101,2.07,3.37,2.82C80.02,64.1,83.779,70.28,87.37,76.52
	c0.34,0.961,0.67,1.92,0.97,2.9c1.32,3.7,0.4,7.75,0.66,11.6l-1.01-0.039c-0.211-3.511,0.63-7.211-0.65-10.561
	c-0.311-0.99-0.63-1.98-0.97-2.95c-3.11-6.489-7.479-12.3-11.79-18.03c-1.109-0.789-2.17-1.64-3.23-2.489
	c-0.33,3.21-3.869,4.11-6.149,2.09c-3.91-0.12-7.81,0.069-11.71-0.08c-2.56-1.53-1.54-5-0.92-7.37c0.28-0.53,0.84-1.59,1.11-2.12
	c1.18-2.02,3.33-3.47,3.65-5.92c0.36-0.98,0.7-1.98,1.02-2.97C59.69,36.55,58.72,32.17,59,28z"/>
<path d="M9.26,31.71c0.78,0.22,2.35,0.64,3.14,0.86c1.09,0.63,2.17,1.28,3.25,1.92c5.03,1.1,10.27,0.25,15.39,0.51l-0.07-1
	c0.75,0,2.27,0,3.03,0v-0.92c2.08-0.09,4.31,0.2,6.09-1.14c-0.04,0.51-0.11,1.52-0.14,2.02c-2.21,0.16-4.63-0.4-6.63,0.83
	c-0.41,0.11-1.24,0.31-1.65,0.42c-1.98,1.24-4.4,0.67-6.59,0.81c-3.49-0.2-7.1,0.47-10.5-0.55C12.66,34.43,10.73,33.37,9.26,31.71z"
	/>
<path d="M1.99,35.78c1.87-0.11,3.37,0.82,4.58,2.17c2.09,0.14,4.41-0.38,6.22,0.98c2.95-0.27,6.44,1.1,8.96-0.93
	c1.75,0,3.5,0,5.25,0v1.01c-1.44-0.01-2.87-0.02-4.31-0.04c-3.28,1.94-7.27,0.76-10.88,0.95c-1.89-1.04-4.1-0.91-6.13-1.48
	C4.46,37.8,3.25,37.15,2,36.57L1.99,35.78z"/>
<path d="M101,38c0.75,0,2.25,0,3,0c0,0.75,0,2.25,0,3c-0.75,0-2.25,0-3,0C101,40.25,101,38.75,101,38z"/>
<path d="M31.51,40.6c1.32-0.83,2.56-1.95,4.24-1.94c-3.11,2.96-6.89,5.09-10.19,7.83c-1.78,1.62-4.29,1.42-6.37,2.42
	C15.79,49.05,12.4,49,9,49v-1c3.06,0,6.12,0.03,9.18-0.08c1.51-0.98,3.34-0.81,5.02-1.13c1.19-0.71,2.25-1.61,3.51-2.19
	C28.22,43.17,29.7,41.66,31.51,40.6z"/>
<path d="M121.8,40.49c1.94-1.08,4.771-1,6.2,0.89v0.49C125.891,41.68,123.82,41.1,121.8,40.49z"/>
<path d="M82.91,40.6c1.55,0.96,2.25,2.65,3.13,4.14c0,0.64,0,1.9,0,2.54c1.47,2.229,2.04,4.85,3.14,7.25
	c3.19,2.12,6.58,3.88,9.811,5.96l0.06,0.46c1.05,0.04,2.11,0.09,3.171,0.14c1.689,1.27,3.84,0.82,5.789,0.99L108,63.05
	c-2.189-0.12-4.5,0.24-6.561-0.71c-1.02-0.31-2.039-0.64-3.039-0.99c-3.291-1.869-6.791-3.55-9.601-6.14
	c-1.93-1.71-2.159-4.45-3.069-6.72C85.15,45.72,83.62,43.31,82.91,40.6z"/>
<path d="M122.13,43.52c0.53-1.57,4.06-0.29,3.69,1.34C124.529,45.37,123.13,44.24,122.13,43.52z"/>
<path d="M89.48,49.59c1.369,0.88,2.66,1.86,4.06,2.68c1.58,0.68,2.84,1.9,4.37,2.66c3.34,0.271,6.73-0.02,10.09,0.061V56
	c-4.95-0.311-10.439,1.27-14.58-2.25C91.529,52.94,89.779,51.82,89.48,49.59z"/>
<path d="M114.23,52.92c0.859-0.34,2.58-1.03,3.439-1.37c-1.4,3.32-4.83,2.431-7.689,2.46l0.02-0.97
	C111.41,53,112.82,52.97,114.23,52.92z"/>
<path d="M39.6,63.62c2.34-5.08,6.37-10.03,12.18-10.86c-2.3,2.12-5.33,3.311-7.47,5.59c-1.95,3-4.28,5.811-5.67,9.131
	c-0.43,1.039-0.86,2.09-1.29,3.129c-2.02,2.58-5.4,4.561-4.46,8.391H32c0-1.33,0-2.66,0-3.99L32.49,75c0.42-1.74,1.76-3.1,3.51-3.51
	c0-0.37,0-1.1,0-1.471L36.79,70c0.2-1.17,0.44-2.34,0.72-3.49C38.14,65.5,38.87,64.561,39.6,63.62z"/>
<path d="M63.29,61.061c1.29,1.069,1.271,5.77,0.01,6.899C62.7,65.82,62.73,63.2,63.29,61.061z"/>
<path d="M57.27,63.141c1.34,0.34,1.33,4.319,0.03,4.75C56.65,66.46,56.68,64.58,57.27,63.141z"/>
<path fill="#070707" d="M46,73c5.68,0,11.35,0,17.02,0l-0.03,1c2.779,0.2,5.789-0.6,8.4,0.66c2.399,1.199,5.83,1.42,6.129,4.75
	c-1.799-1.34-3.699-2.5-5.859-3.12c-2.78-2.29-6.641-0.25-9.45-2.24C56.81,73.95,51.4,74.02,46,74V73z"/>
<path d="M35.76,73.91c0.63,0.06,1.88,0.18,2.51,0.23c-0.11,3.439-2.52,6-4.45,8.6c-0.56-1.83,0.9-2.91,1.83-4.11
	C36.61,77.02,37.86,75.29,35.76,73.91z"/>
<path d="M28.05,75.99l1,0.02c0.41,3.35-0.37,6.84-3.44,8.721c0.17-1.371,0.73-2.551,1.66-3.53C28.61,79.8,27.86,77.71,28.05,75.99z"
	/>
<path d="M42.46,78.061c7.23-0.141,14.49-0.07,21.73,0c1.68,1.31,3.85,0.859,5.81,1.02c0,0.48,0,1.45,0,1.93
	C70.43,81,71.29,81,71.721,81c0.229,0.641,0.67,1.93,0.899,2.57c0.979,1.43,2.2,2.67,3.29,4.02c0.39,2.86,0.18,5.801-1.141,8.41
	c-5.93-0.03-11.87,0.05-17.81-0.01c-1.66,0.1-2.97-1.1-4.4-1.74c-1.07-0.48-2.12-0.99-3.19-1.46c-2.15-1.16-3.95-2.82-5.94-4.21
	c-1.19-2.24-4.19-3.71-3.49-6.641C39.51,80.1,41.45,79.23,42.46,78.061z"/>
<path d="M84,87c0.75,0,2.25,0,3,0v1c-0.5,0-1.5,0-2,0c0,2.67,0,5.33,0,8h-1C84,93,84,90,84,87z"/>
<path d="M36.53,87.58c0.56,0.17,1.67,0.51,2.23,0.68c2.31,3.141,4.75,7.271,8.86,8c1.06,1.08,2.32,1.9,3.84,2.131
	c1.78,0.52,3.66,0.689,5.35,1.52c2.06,0.08,4.13,0.1,6.19,0.12V101c3.67,0,7.33,0,11,0l0.01,0.99c-3.89-0.17-7.92,0.57-11.69-0.67
	c-2.61-0.711-5.48,0.199-7.98-1.051c-1.28-0.25-2.56-0.47-3.82-0.819c-2.5-1.091-4.8-2.601-7.14-4
	C40.34,93.58,38.8,90.21,36.53,87.58z"/>
<path d="M88.939,93h0.951c0.1,1.811,0.129,3.63,0.569,5.4c0.97,1.38,2.03,2.699,3.021,4.06c-1.871-0.14-3.03-1.55-4.061-2.94
	C88.971,97.38,88.98,95.18,88.939,93z"/>
<path d="M41.98,98.96c1.14,0.03,2.27,0.07,3.4,0.101c0.53,0.289,1.58,0.869,2.11,1.159c0.47,0.351,1.42,1.05,1.89,1.4
	c2.5,0.7,4.78,1.96,7.09,3.1c1.24,0.41,2.48,0.841,3.72,1.28h-4.17c-2.22-1.08-4.32-2.37-6.57-3.38c-1.34-0.9-2.7-1.78-4.07-2.63
	c-1.12,0-2.24,0.01-3.36,0.01L41.98,98.96z"/>
<path d="M87,100.83c2.189,0.73,2.45,3.23,1.95,5.17h-0.421C87.82,104.35,87.1,102.641,87,100.83z"/>
</svg>
