<?xml version="1.0" encoding="utf-8"?>
<!-- Generator: Adobe Illustrator 15.0.2, SVG Export Plug-In . SVG Version: 6.00 Build 0)  -->
<!DOCTYPE svg PUBLIC "-//W3C//DTD SVG 1.1//EN" "http://www.w3.org/Graphics/SVG/1.1/DTD/svg11.dtd">
<svg version="1.1" id="Layer_1" xmlns="http://www.w3.org/2000/svg" xmlns:xlink="http://www.w3.org/1999/xlink" x="0px" y="0px"
	 width="232px" height="286px" viewBox="0 0 232 286" enable-background="new 0 0 232 286" xml:space="preserve">
<path fill="#FFFFFF" d="M0,0h232v286H0V0 M54.62,9.3c-2.03,1.84-1.66,4.67-1.29,7.09c2.02,0,3.46-1.09,4.65-2.59
	c2.1-1.19,4.55-1.75,6.97-1.64c12.71,0.09,25.42-0.1,38.12,0.09c4.68,0.85,9.35,1.85,13.97,3c4.489,1.29,9.44-0.05,13.66,2.27
	c0.239,0.38,0.739,1.14,0.989,1.51c1.84,0.89,3.67,1.8,5.5,2.729c0.84,0.53,1.74,0.89,2.701,1.09c5.1,0.51,8.969,4.24,13.639,5.98
	c2.361,1.19,4.851,2.1,7.24,3.22c3.73,2.43,6.78,5.97,11.131,7.39c1.66,0.35,2.039,2.13,2.75,3.41c2.35,1.15,4.33,2.91,6.75,3.95
	c0.52,2.55,0.689,5.27,2.32,7.41c3.149,1.21,4.559,4.38,5.909,7.21c1.06,0.92,2.181,1.75,3.32,2.58c0.56,1.75,1.2,3.49,1.829,5.22
	c1.541,1.061,3.261,1.94,4.551,3.33c0.939,2.23,2.17,4.34,4.13,5.83c0.54,1.7,1.181,3.41,2.58,4.6c1.86,1.48,2.14,3.92,3.21,5.91
	c2.29,5.45,1.96,11.57,3.74,17.17c1.3,2.5,1.14,5.34,1.56,8.06c1.63,5.21,1.511,10.75,2.21,16.13c1.36,3.11,3.03,6.27,2.91,9.78
	c-0.16,10.03,0.28,20.09-0.24,30.11c-2.5,5.299-3.72,11.1-3.8,16.939c0,4.2-2.79,7.59-5.17,10.779l-0.069,0.211
	c-1.83,1.71-2.431,4.109-2.541,6.539c-3.01,2.791-6.479,4.961-9.64,7.551c-1.66,0.35-3.29,0.8-4.89,1.33
	c-0.19,0.4-0.58,1.199-0.771,1.59c-0.739,0.79-1.46,1.59-2.17,2.4c-2.96,0.27-5.45,1.75-7.819,3.41
	c-0.261,0.459-0.781,1.359-1.041,1.81c-0.81,0.67-1.619,1.35-2.42,2.03c-24.93,0.619-49.899,0.14-74.85,0.25l1.45-1.23
	c-1.11,0.22-2.2,0.49-3.3,0.74c-0.66-1.32-1.38-2.74-2.86-3.29c-5.08-2.67-9.95-5.74-14.52-9.22c-1.83-0.84-3.68-1.641-5.57-2.34
	c-0.63-1.311-1.02-2.9-2.47-3.541c-1.96-1.479-4.94-0.59-6.53-2.689c-1.89-0.63-3.77-1.32-5.63-2.03c-1.57-2.61-2.28-5.95-4.75-7.87
	c-0.09-1.15-0.17-2.29-0.26-3.43c-1.94-1.84-3-4.51-5.41-5.84c-1.49-5.25-5.4-9.311-8.98-13.25c-1.11-2.301-2.89-4.18-4.14-6.391
	c-0.37-2.229-0.48-4.51-1.22-6.66c-4.46-3.609-1.52-10.039-5.48-13.92c-0.52-14.31-0.17-28.669-0.19-43
	c2.68-5.98,0.49-12.66,1.82-18.91c2.02-9.23-0.61-18.93,1.82-28.09c0.07-3,1.18-5.75,2.52-8.39c0.69-2.72,1.25-5.7,3.89-7.26
	c1.6-3.35,4.71-5.43,7.08-8.17l-0.01-0.44c2.67-2.03,4.16-5.39,7.3-6.82c2.58-1.3,5.53-4.03,3.25-7.03
	c-2.81-0.23-4.26,2.67-6.05,4.34c-1.18,0.71-2.3,1.53-3.35,2.44c-1.35,0.55-2.66,1.2-3.92,1.94c-2.08,2.34-3.36,5.29-5.64,7.44
	c-1.35,2.24-2.82,4.43-4.74,6.23c-2.29,1.74-0.74,4.98-1.99,7.23c-0.55,1.11-1.33,2.12-1.59,3.35c-0.54,4.57-1.95,8.98-2.62,13.53
	c-1.5,5.11,0,10.51-1.05,15.66c-2.51,7.05-0.49,14.62-2.04,21.84c-0.25,14.39-0.05,28.78-0.09,43.17c-0.17,2.9,1.74,5.27,3.38,7.45
	c0.56,3.36,1.93,6.51,4.14,9.12c0.47,3.619,0.27,7.43,2.46,10.58c0.33,0.239,1,0.709,1.33,0.949c0.79,2.211,2.6,3.68,4.14,5.34
	c1.18,2.83,2.51,5.621,4.44,8.03c1.24,0.5,2.63,0.79,3.67,1.69c0.5,2.369,0.57,4.88,1.8,7.029c1.95,1.2,3.01,3.301,4.62,4.871
	c0.95,2.329,1.07,5.079,3.26,6.68c1.65,0.199,3.29,0.47,4.93,0.82c0.22,0.64,0.66,1.92,0.88,2.56c3.95,2.2,10.1,1.78,11.53,7.069
	c3.13,2.36,6.66,4.351,10.56,5.041c1.43,3.5,5.26,4.529,8.64,5.09c2.16,2.279,5.3,3.039,8.17,4.01
	c11.24,0.189,22.49,0.06,33.74,0.04c0.03,0.97,0.061,1.95,0.1,2.93c2.33,1.34,0.291,4.521,2.16,6.21
	c0.141,4.471,0.051,8.96,0.041,13.44c0.1,1.54-0.33,3.35,0.959,4.56c0.141,4.16,0.051,8.32,0.041,12.48
	c0.09,1.529-0.33,3.32,0.959,4.52c0.16,3.311-0.09,6.631,0.16,9.93c0.75,2.42,4.84,2,4.87-0.569c-0.26-3.13,0.979-6.79-0.89-9.54
	c-0.141-4.45-0.051-8.9-0.051-13.36c-0.1-1.569,0.36-3.399-0.949-4.64c-0.141-4.141-0.051-8.29-0.041-12.43
	c-0.1-1.551,0.33-3.36-0.959-4.57c-0.11-2.971-0.07-5.94-0.061-8.91c8.68-0.01,17.36-0.01,26.04,0c3.03,0.04,5.87-1.27,8.75-2.04
	c1.591-1.26,3.22-2.479,5.19-3.101c1.029-0.799,2.06-1.6,3.18-2.25c1.689-1.09,3.08-2.6,4.811-3.629
	c2.479-0.601,5.26-0.371,7.369-2.07c0.68-1.27,1.43-2.51,2.19-3.74c3.61-2.23,7.989-4.72,8.21-9.48
	c0.93-0.879,1.91-1.709,2.73-2.699c0.75-2.46,0.5-5.42,2.699-7.23c-0.33-0.88-0.64-1.779-0.699-2.72l1.51,2.71
	c0.21-2.51,0.43-4.99,0.6-7.49c3.57-5.89,4.93-12.88,4.9-19.71c-0.02-8.68,0-17.36-0.03-26.03c0-3.67-0.399-7.35-1.69-10.8
	c-0.39-2.06-0.1-4.45-1.76-6.01c-0.84-2.34-1.49-4.73-1.97-7.16c-0.79-2.38-0.69-4.9-0.99-7.36c-0.63-2.56-1.96-4.98-1.97-7.67
	c-0.03-5.25-0.6-10.58-2.641-15.47c-2.219-2.54-5.699-4.76-5.439-8.57c0.08-1.68-0.55-3.16-1.7-4.35c-1.89-1.41-3.87-2.7-5.76-4.1
	c-0.8-1.33-1.24-2.84-1.851-4.26c-1.51-1.58-3.199-2.97-4.569-4.68c-0.19-0.01-0.56-0.04-0.75-0.05c-0.28-1.24-0.57-2.47-0.86-3.7
	c-2.15-3-6.289-4.96-6.439-9.04c-2-2.06-4.08-4.06-5.07-6.83c-2.02-0.96-4.2-1.51-6.25-2.4c-0.75-1.64-2-2.91-3.42-3.97
	c-0.52-0.66-1.02-1.32-1.51-1.99c-3.07-1.28-6.471-2.23-8.891-4.61c-2.47-0.98-4.63-2.54-6.979-3.74
	c-4.979-0.66-9.521-2.9-13.97-5.1c-2.461-1.92-5.201-3.43-8.01-4.76c-2.671-2.41-6.611-1.25-9.841-2.1
	c-6.98-1.55-13.94-3.52-21.14-3.54c-11.31,0.01-22.63,0.03-33.94,0C62.86,7.66,58.64,8.13,54.62,9.3 M127.971,64.1
	c-0.99,2.32-2.061,4.6-3.381,6.75c0.061,2.2,0.471,4.35,1.17,6.42c4.08,0.67,8.24,0.58,12.35,0.4c2.281,0.02,3.361-2.25,4.261-3.97
	c-0.04-2.67-0.149-5.35-1.11-7.87C137.109,63.94,132.471,63.17,127.971,64.1 M70.21,75.22c-2.84,3.34-1.74,7.99-1.54,11.98
	c3.9,2.81,9.08,1.26,13.53,1.18c0.64-1.47,1.29-2.94,2.06-4.35c0.11-3.05,0.62-6.84-2.34-8.8c-1.29-0.74-2.17-1.93-2.91-3.18
	C75.91,72.02,72.01,72.27,70.21,75.22 M103.95,157.13c-1.6,0.12-3.2,0.21-4.81,0.28c-1.69,1.83-1.34,4.13-0.52,6.279
	c2.8-1.859,6.52-0.869,9.19-3.039c18.39-0.07,36.79,0.029,55.18-0.041c1.8,0.211,3.35-0.75,4.88-1.52
	c-0.53-1.82-1.61-3.34-3.71-3.04c-16.71-0.08-33.43,0.03-50.15-0.05C110.64,156.01,107.08,155.55,103.95,157.13 M46.03,249.05
	c0,0.72,0,2.17,0.01,2.9c2.05,0.03,4.1,0.05,6.16,0.069c0,6.36,0,12.721,0,19.08c1.43-0.149,2.96,0.051,4.33-0.479
	c0.28-6.181,0.02-12.38,0.1-18.57c2.06-0.05,4.12-0.1,6.18-0.18c-0.01-0.69-0.04-2.08-0.05-2.771
	C57.19,248.92,51.61,248.98,46.03,249.05 M65.12,255.12c-1.14,3.69-1.21,7.93,0.47,11.479c1.12,2.36,3.68,3.28,5.84,4.4
	c3.08,0.01,6.37,0.38,9.12-1.33c5.01-2.811,5.55-9.59,4.28-14.609C82.11,246.641,67.93,246.859,65.12,255.12 M89.23,249.12
	c-0.05,7.26-0.07,14.51,0.02,21.76c1.46,0.06,2.92,0.12,4.38,0.17c0.01-3.75,0-7.5,0-11.239c2.48,3.699,4.81,7.5,7.25,11.229
	c1.59-0.04,3.18-0.08,4.78-0.12c-2.05-4.21-4.93-7.93-7.47-11.84c2.49-3.26,5.22-6.35,7.3-9.9c-1.56-0.1-3.12-0.18-4.68-0.25
	c-2.48,3.37-4.8,6.851-7.16,10.311c-0.02-3.42-0.02-6.84,0-10.271C92.18,249.01,90.7,249.061,89.23,249.12 M108.4,249.12
	c-0.04,7.239,0,14.489-0.03,21.729c4.27,0.23,8.55,0.15,12.819,0.15c0-0.75,0.011-2.25,0.011-3.01c-2.79,0.01-5.59,0.01-8.38,0.01
	c0-2.33,0-4.66,0-6.98c2.43-0.02,4.86-0.039,7.28-0.08c0.01-0.72,0.01-2.159,0.01-2.869c-2.43-0.061-4.859-0.08-7.29-0.09
	c0-1.99,0-3.99,0-5.98c2.8,0,5.59,0,8.39,0.01c-0.01-0.76-0.021-2.26-0.03-3.02C116.92,249,112.66,248.93,108.4,249.12
	 M125.391,249.141c-0.021,7.279,0.01,14.56-0.021,21.84c1.479,0.01,2.97,0.01,4.46,0.02c-0.01-2.99-0.01-5.98-0.01-8.97
	c0.779-0.021,2.32-0.07,3.1-0.091c2.051,2.711,3.311,5.881,4.46,9.051c1.58-0.021,3.17-0.04,4.75-0.061
	c-1.229-3.619-2.75-7.18-5.19-10.16c4.11-1.449,5.25-7.59,1.75-10.239C134.811,247.84,129.79,249.3,125.391,249.141 M153.4,249.12
	c-0.041,7.3,0,14.59-0.03,21.89c1.46-0.029,2.92-0.06,4.38-0.09c0.07-2.98,0.08-5.95,0.08-8.92c2.449,0,4.9,0,7.35,0.01
	c0.01-0.75,0.021-2.26,0.021-3.02c-2.46,0.01-4.921,0.01-7.38,0.01c0-2.33,0-4.67,0-7c2.609,0,5.209,0,7.82-0.01
	c0.01-0.74,0.01-2.23,0.01-2.971C161.57,248.98,157.48,248.939,153.4,249.12 M168.04,269.43c-1.63,0.221-1.75,0.75-0.36,1.59
	c0.83-0.039,2.471-0.1,3.291-0.14c1.309-1.19,1.34-3.29,2.039-4.88c2.87-0.01,5.74,0,8.62,0.05c0.49,1.63,0.99,3.261,1.479,4.89
	c1.4,0.021,2.791,0.03,4.19,0.03c1.421-0.78,1.31-1.3-0.329-1.569c-1.391-7-4.621-13.601-6.811-20.42
	c-1.811,0.01-3.631,0.01-5.439,0.02C172.7,255.87,169.279,262.391,168.04,269.43 M194.35,250.22c-5.47,3.15-6.129,10.89-3.72,16.19
	c2.57,5.02,9.511,5.91,14.07,3.21c1.28-0.851,0.819-2.61,1.149-3.86c-2.209,1.021-4.35,2.78-6.949,2.24
	c-3.2-0.48-4.82-4.01-4.75-6.95c-0.131-3.26,0.539-7.56,3.979-8.89c2.761-1.04,5.03,1.21,7.601,1.63
	c-0.141-1.181-0.381-2.351-0.621-3.51C201.71,248.96,197.62,248.07,194.35,250.22 M209.37,249.15c0.03,7.24-0.011,14.49,0.03,21.74
	c4.26,0.17,8.529,0.109,12.8,0.109c-0.011-0.75-0.011-2.26-0.011-3.01c-2.789,0.01-5.58,0.01-8.369,0.01c0-2.33,0-4.66,0-6.98
	c2.43-0.02,4.859-0.039,7.289-0.09c0-0.71,0-2.149-0.01-2.869c-2.43-0.051-4.85-0.07-7.279-0.08c0-1.99,0-3.99,0-5.98
	c2.789,0,5.59,0,8.38,0.01c0-0.76-0.011-2.26-0.011-3.01C217.91,249,213.641,248.92,209.37,249.15z"/>
<path fill="#010101" d="M54.62,9.3c4.02-1.17,8.24-1.64,12.43-1.54c11.31,0.03,22.63,0.01,33.94,0c7.2,0.021,14.16,1.99,21.14,3.54
	c3.229,0.85,7.17-0.31,9.841,2.1c2.809,1.33,5.549,2.84,8.01,4.76c4.449,2.2,8.99,4.44,13.97,5.1c2.35,1.2,4.51,2.76,6.979,3.74
	c2.42,2.38,5.82,3.33,8.891,4.61c0.49,0.67,0.99,1.33,1.51,1.99c1.42,1.06,2.67,2.33,3.42,3.97c2.05,0.89,4.23,1.44,6.25,2.4
	c0.99,2.771,3.07,4.771,5.07,6.83c0.15,4.08,4.289,6.04,6.439,9.04c0.29,1.23,0.58,2.46,0.86,3.7c0.19,0.01,0.56,0.04,0.75,0.05
	c1.37,1.71,3.06,3.1,4.569,4.68c0.61,1.42,1.051,2.93,1.851,4.26c1.89,1.4,3.87,2.689,5.76,4.1c1.15,1.19,1.78,2.67,1.7,4.35
	c-0.26,3.81,3.221,6.03,5.439,8.57c2.041,4.89,2.61,10.22,2.641,15.47c0.01,2.69,1.34,5.11,1.97,7.67c0.3,2.46,0.2,4.98,0.99,7.36
	c0.479,2.43,1.13,4.82,1.97,7.16c1.66,1.56,1.37,3.95,1.76,6.01c1.291,3.45,1.69,7.13,1.69,10.8c0.03,8.669,0.011,17.35,0.03,26.03
	c0.029,6.83-1.33,13.82-4.9,19.71c-0.17,2.5-0.39,4.98-0.6,7.49l-1.51-2.71c0.06,0.94,0.369,1.84,0.699,2.72
	c-2.199,1.811-1.949,4.771-2.699,7.23c-0.82,0.99-1.801,1.82-2.73,2.699c-0.221,4.761-4.6,7.25-8.21,9.48
	c-0.761,1.23-1.511,2.471-2.19,3.74c-2.109,1.699-4.89,1.47-7.369,2.07c-1.73,1.029-3.121,2.539-4.811,3.629
	c-1.12,0.65-2.15,1.451-3.18,2.25c-1.971,0.621-3.6,1.841-5.19,3.101c-2.88,0.771-5.72,2.08-8.75,2.04
	c-8.68-0.01-17.36-0.01-26.04,0c-0.01,2.97-0.05,5.939,0.061,8.91c1.289,1.21,0.859,3.02,0.959,4.57
	c-0.01,4.14-0.1,8.289,0.041,12.43c1.31,1.24,0.85,3.07,0.949,4.64c0,4.46-0.09,8.91,0.051,13.36c1.869,2.75,0.63,6.41,0.89,9.54
	c-0.03,2.569-4.12,2.989-4.87,0.569c-0.25-3.299,0-6.619-0.16-9.93c-1.289-1.199-0.869-2.99-0.959-4.52
	c0.01-4.16,0.1-8.32-0.041-12.48c-1.289-1.21-0.859-3.02-0.959-4.56c0.01-4.48,0.1-8.97-0.041-13.44
	c-1.869-1.689,0.17-4.87-2.16-6.21c-0.039-0.979-0.069-1.96-0.1-2.93c-11.25,0.02-22.5,0.149-33.74-0.04
	c-2.87-0.971-6.01-1.73-8.17-4.01c-3.38-0.561-7.21-1.59-8.64-5.09c-3.9-0.69-7.43-2.681-10.56-5.041
	c-1.43-5.289-7.58-4.869-11.53-7.069c-0.22-0.64-0.66-1.92-0.88-2.56c-1.64-0.351-3.28-0.621-4.93-0.82
	c-2.19-1.601-2.31-4.351-3.26-6.68c-1.61-1.57-2.67-3.671-4.62-4.871c-1.23-2.149-1.3-4.66-1.8-7.029c-1.04-0.9-2.43-1.19-3.67-1.69
	c-1.93-2.409-3.26-5.2-4.44-8.03c-1.54-1.66-3.35-3.129-4.14-5.34c-0.33-0.24-1-0.71-1.33-0.949c-2.19-3.15-1.99-6.961-2.46-10.58
	c-2.21-2.61-3.58-5.76-4.14-9.12c-1.64-2.181-3.55-4.55-3.38-7.45c0.04-14.39-0.16-28.78,0.09-43.17
	c1.55-7.22-0.47-14.79,2.04-21.84c1.05-5.15-0.45-10.55,1.05-15.66c0.67-4.55,2.08-8.96,2.62-13.53c0.26-1.23,1.04-2.24,1.59-3.35
	c1.25-2.25-0.3-5.49,1.99-7.23c1.92-1.8,3.39-3.99,4.74-6.23c2.28-2.15,3.56-5.1,5.64-7.44c1.26-0.74,2.57-1.39,3.92-1.94
	c1.05-0.91,2.17-1.73,3.35-2.44c1.79-1.67,3.24-4.57,6.05-4.34c2.28,3-0.67,5.73-3.25,7.03c-3.14,1.43-4.63,4.79-7.3,6.82l0.01,0.44
	c-2.37,2.74-5.48,4.82-7.08,8.17c-2.64,1.56-3.2,4.54-3.89,7.26c-1.34,2.64-2.45,5.39-2.52,8.39c-2.43,9.16,0.2,18.86-1.82,28.09
	c-1.33,6.25,0.86,12.93-1.82,18.91c0.02,14.33-0.33,28.69,0.19,43c3.96,3.881,1.02,10.311,5.48,13.92
	c0.74,2.15,0.85,4.431,1.22,6.66c1.25,2.211,3.03,4.09,4.14,6.391c3.58,3.939,7.49,8,8.98,13.25c2.41,1.33,3.47,4,5.41,5.84
	c0.09,1.14,0.17,2.279,0.26,3.43c2.47,1.92,3.18,5.26,4.75,7.87c1.86,0.71,3.74,1.4,5.63,2.03c1.59,2.1,4.57,1.21,6.53,2.689
	c1.45,0.641,1.84,2.23,2.47,3.541c1.89,0.699,3.74,1.5,5.57,2.34c4.57,3.479,9.44,6.55,14.52,9.22c1.48,0.55,2.2,1.97,2.86,3.29
	c1.1-0.25,2.19-0.521,3.3-0.74l-1.45,1.23c24.95-0.11,49.92,0.369,74.85-0.25c0.801-0.681,1.61-1.36,2.42-2.03
	c0.26-0.45,0.78-1.351,1.041-1.81c2.369-1.66,4.859-3.141,7.819-3.41c0.71-0.811,1.431-1.61,2.17-2.4
	c0.19-0.391,0.58-1.189,0.771-1.59c1.6-0.53,3.229-0.98,4.89-1.33c3.16-2.59,6.63-4.76,9.64-7.551
	c0.11-2.43,0.711-4.829,2.541-6.539l0.069-0.211c2.38-3.189,5.17-6.579,5.17-10.779c0.08-5.84,1.3-11.641,3.8-16.939
	c0.521-10.021,0.08-20.08,0.24-30.11c0.12-3.51-1.55-6.67-2.91-9.78c-0.699-5.38-0.58-10.92-2.21-16.13
	c-0.42-2.72-0.26-5.56-1.56-8.06c-1.78-5.6-1.45-11.72-3.74-17.17c-1.07-1.99-1.35-4.43-3.21-5.91c-1.399-1.19-2.04-2.9-2.58-4.6
	c-1.96-1.49-3.19-3.6-4.13-5.83c-1.29-1.39-3.01-2.27-4.551-3.33c-0.629-1.729-1.27-3.47-1.829-5.22
	c-1.14-0.83-2.261-1.66-3.32-2.58c-1.351-2.83-2.76-6-5.909-7.21c-1.631-2.14-1.801-4.86-2.32-7.41c-2.42-1.04-4.4-2.8-6.75-3.95
	c-0.711-1.28-1.09-3.06-2.75-3.41c-4.351-1.42-7.4-4.96-11.131-7.39c-2.39-1.12-4.879-2.03-7.24-3.22
	c-4.67-1.74-8.539-5.47-13.639-5.98c-0.961-0.2-1.861-0.56-2.701-1.09c-1.83-0.93-3.66-1.84-5.5-2.729
	c-0.25-0.37-0.75-1.13-0.989-1.51c-4.22-2.32-9.171-0.98-13.66-2.27c-4.62-1.15-9.29-2.15-13.97-3c-12.7-0.19-25.41,0-38.12-0.09
	c-2.42-0.11-4.87,0.45-6.97,1.64c-1.19,1.5-2.63,2.59-4.65,2.59C52.96,13.97,52.59,11.14,54.62,9.3z"/>
<path fill="#020202" d="M127.971,64.1c4.5-0.93,9.139-0.16,13.289,1.73c0.961,2.52,1.07,5.2,1.11,7.87
	c-0.899,1.72-1.979,3.99-4.261,3.97c-4.109,0.18-8.27,0.27-12.35-0.4c-0.699-2.07-1.109-4.22-1.17-6.42
	C125.91,68.7,126.98,66.42,127.971,64.1 M131.02,68.43c-1.279,2-1.069,4.15,0.881,5.59c1.439,0.01,2.89,0.04,4.33,0.09
	c1.449-1.27,1.97-3.01,1.93-4.9c-1.5-0.23-3-0.47-4.48-0.77C133.01,68.44,131.689,68.43,131.02,68.43z"/>
<path fill="#FFAEC9" d="M131.02,68.43c0.67,0,1.99,0.01,2.66,0.01c1.48,0.3,2.98,0.54,4.48,0.77c0.04,1.89-0.48,3.63-1.93,4.9
	c-1.44-0.05-2.891-0.08-4.33-0.09C129.95,72.58,129.74,70.43,131.02,68.43z"/>
<path fill="#020202" d="M70.21,75.22c1.8-2.95,5.7-3.2,8.8-3.17c0.74,1.25,1.62,2.44,2.91,3.18c2.96,1.96,2.45,5.75,2.34,8.8
	c-0.77,1.41-1.42,2.88-2.06,4.35c-4.45,0.08-9.63,1.63-13.53-1.18C68.47,83.21,67.37,78.56,70.21,75.22 M73.14,78.24
	c0.18,2.229-1.11,5.14,0.84,6.81c2.12-0.21,4.14-0.98,6.2-1.47c-0.32-2-0.89-3.94-1.5-5.87C76.83,77.82,74.98,78,73.14,78.24z"/>
<path fill="#FFAEC9" d="M73.14,78.24c1.84-0.24,3.69-0.42,5.54-0.53c0.61,1.93,1.18,3.87,1.5,5.87c-2.06,0.49-4.08,1.26-6.2,1.47
	C72.03,83.38,73.32,80.47,73.14,78.24z"/>
<path fill="#010101" d="M103.95,157.13c3.13-1.58,6.69-1.12,10.06-1.13c16.721,0.08,33.44-0.03,50.15,0.05
	c2.1-0.3,3.18,1.22,3.71,3.04c-1.53,0.77-3.08,1.73-4.88,1.52c-18.391,0.07-36.79-0.029-55.18,0.041
	c-2.67,2.17-6.39,1.18-9.19,3.039c-0.82-2.149-1.17-4.449,0.52-6.279C100.75,157.34,102.35,157.25,103.95,157.13z"/>
<path fill="#ED1C24" d="M46.03,249.05c5.58-0.069,11.16-0.13,16.73,0.05c0.01,0.69,0.04,2.08,0.05,2.771
	c-2.06,0.08-4.12,0.13-6.18,0.18c-0.08,6.19,0.18,12.39-0.1,18.57c-1.37,0.53-2.9,0.33-4.33,0.479c0-6.359,0-12.72,0-19.08
	c-2.06-0.02-4.11-0.039-6.16-0.069C46.03,251.22,46.03,249.77,46.03,249.05z"/>
<path fill="#ED1C24" d="M65.12,255.12c2.81-8.261,16.99-8.479,19.71-0.06c1.27,5.02,0.73,11.799-4.28,14.609
	c-2.75,1.71-6.04,1.34-9.12,1.33c-2.16-1.12-4.72-2.04-5.84-4.4C63.91,263.05,63.98,258.811,65.12,255.12 M69.89,254.91
	c-1.25,3.21-1.13,7.02-0.11,10.279c1.14,2.871,4.38,3,7.01,2.951c4.45-2.681,4.65-8.591,3.18-13.041
	C78.42,250.891,71.63,250.8,69.89,254.91z"/>
<path fill="#ED1C24" d="M89.23,249.12c1.47-0.06,2.95-0.11,4.42-0.15c-0.02,3.431-0.02,6.851,0,10.271
	c2.36-3.46,4.68-6.94,7.16-10.311c1.56,0.07,3.12,0.15,4.68,0.25c-2.08,3.551-4.81,6.641-7.3,9.9c2.54,3.91,5.42,7.63,7.47,11.84
	c-1.6,0.04-3.19,0.08-4.78,0.12c-2.44-3.729-4.77-7.53-7.25-11.229c0,3.739,0.01,7.489,0,11.239c-1.46-0.05-2.92-0.11-4.38-0.17
	C89.16,263.63,89.18,256.38,89.23,249.12z"/>
<path fill="#ED1C24" d="M108.4,249.12c4.26-0.19,8.52-0.12,12.78-0.13c0.01,0.76,0.021,2.26,0.03,3.02
	c-2.8-0.01-5.59-0.01-8.39-0.01c0,1.99,0,3.99,0,5.98c2.43,0.01,4.86,0.029,7.29,0.09c0,0.71,0,2.149-0.01,2.869
	c-2.42,0.041-4.85,0.061-7.28,0.08c0,2.32,0,4.65,0,6.98c2.79,0,5.59,0,8.38-0.01c0,0.76-0.011,2.26-0.011,3.01
	c-4.27,0-8.549,0.08-12.819-0.15C108.4,263.609,108.36,256.359,108.4,249.12z"/>
<path fill="#ED1C24" d="M125.391,249.141c4.399,0.159,9.42-1.301,13.299,1.39c3.5,2.649,2.36,8.79-1.75,10.239
	c2.44,2.98,3.961,6.541,5.19,10.16c-1.58,0.021-3.17,0.04-4.75,0.061c-1.149-3.17-2.409-6.34-4.46-9.051
	c-0.779,0.021-2.32,0.07-3.1,0.091c0,2.989,0,5.979,0.01,8.97c-1.49-0.01-2.98-0.01-4.46-0.02
	C125.4,263.7,125.37,256.42,125.391,249.141 M129.82,252.05c0,2.3,0,4.61,0,6.92c1.459,0.03,2.92,0.061,4.38,0.11
	c2.319-1.93,2.55-5.26,0.1-7.2C132.811,251.939,131.311,252,129.82,252.05z"/>
<path fill="#ED1C24" d="M153.4,249.12c4.08-0.181,8.17-0.14,12.25-0.101c0,0.74,0,2.23-0.01,2.971c-2.611,0.01-5.211,0.01-7.82,0.01
	c0,2.33,0,4.67,0,7c2.459,0,4.92,0,7.38-0.01c0,0.76-0.011,2.27-0.021,3.02c-2.449-0.01-4.9-0.01-7.35-0.01
	c0,2.97-0.01,5.939-0.08,8.92c-1.46,0.03-2.92,0.061-4.38,0.09C153.4,263.71,153.359,256.42,153.4,249.12z"/>
<path fill="#ED1C24" d="M168.04,269.43c1.239-7.039,4.66-13.56,6.681-20.43c1.809-0.01,3.629-0.01,5.439-0.02
	c2.189,6.819,5.42,13.42,6.811,20.42c0.09,0.39,0.25,1.18,0.329,1.569c-1.399,0-2.79-0.01-4.19-0.03
	c-0.489-1.629-0.989-3.26-1.479-4.89c-2.88-0.05-5.75-0.06-8.62-0.05c-0.699,1.59-0.73,3.689-2.039,4.88
	c-0.82,0.04-2.461,0.101-3.291,0.14C167.77,270.62,167.95,269.82,168.04,269.43 M175.15,260.48c-1.5,0.029-1.881,0.8-1.141,2.319
	l0.65,0.11c1.99,0.07,3.99,0.08,5.99,0.08c-0.25-0.7-0.74-2.11-0.99-2.811l0.57-0.75l-0.36-1.029l-0.899-0.221
	c-0.371-1.859-1.111-3.619-1.73-5.39C176.4,255.3,175.2,257.78,175.15,260.48z"/>
<path fill="#ED1C24" d="M194.35,250.22c3.271-2.149,7.36-1.26,10.76,0.061c0.24,1.159,0.48,2.329,0.621,3.51
	c-2.57-0.42-4.84-2.67-7.601-1.63c-3.44,1.33-4.11,5.63-3.979,8.89c-0.07,2.94,1.55,6.47,4.75,6.95c2.6,0.54,4.74-1.22,6.949-2.24
	c-0.33,1.25,0.131,3.01-1.149,3.86c-4.56,2.7-11.5,1.81-14.07-3.21C188.221,261.109,188.88,253.37,194.35,250.22z"/>
<path fill="#ED1C24" d="M209.37,249.15c4.271-0.23,8.54-0.15,12.819-0.15c0,0.75,0.011,2.25,0.011,3.01
	c-2.79-0.01-5.591-0.01-8.38-0.01c0,1.99,0,3.99,0,5.98c2.43,0.01,4.85,0.029,7.279,0.08c0.01,0.72,0.01,2.159,0.01,2.869
	c-2.43,0.051-4.859,0.07-7.289,0.09c0,2.32,0,4.65,0,6.98c2.789,0,5.58,0,8.369-0.01c0,0.75,0,2.26,0.011,3.01
	c-4.271,0-8.54,0.061-12.8-0.109C209.359,263.641,209.4,256.391,209.37,249.15z"/>
<path fill="#FFFFFF" d="M69.89,254.91c1.74-4.11,8.53-4.02,10.08,0.189c1.47,4.45,1.27,10.36-3.18,13.041
	c-2.63,0.049-5.87-0.08-7.01-2.951C68.76,261.93,68.64,258.12,69.89,254.91z"/>
<path fill="#FFFFFF" d="M129.82,252.05c1.49-0.05,2.99-0.11,4.479-0.17c2.45,1.94,2.22,5.271-0.1,7.2
	c-1.46-0.05-2.921-0.08-4.38-0.11C129.82,256.66,129.82,254.35,129.82,252.05z"/>
<path fill="#FFFFFF" d="M175.15,260.48c0.05-2.7,1.25-5.181,2.09-7.69c0.619,1.771,1.359,3.53,1.73,5.39c0.18,0.5,0.52,1.5,0.689,2
	c0.25,0.7,0.74,2.11,0.99,2.811c-2,0-4-0.01-5.99-0.08C174.779,262.3,175.029,261.09,175.15,260.48z"/>
<path fill="#FC964D" d="M178.971,258.18l0.899,0.221l0.36,1.029l-0.57,0.75C179.49,259.68,179.15,258.68,178.971,258.18z"/>
<path fill="#F08AD2" d="M174.01,262.8c-0.74-1.52-0.359-2.29,1.141-2.319c-0.121,0.609-0.371,1.819-0.49,2.43L174.01,262.8z"/>
<path fill="#FEA963" d="M167.68,271.02c-1.39-0.84-1.27-1.369,0.36-1.59C167.95,269.82,167.77,270.62,167.68,271.02z"/>
<path fill="#ED5EAB" d="M186.971,269.4c1.639,0.27,1.75,0.789,0.329,1.569C187.221,270.58,187.061,269.79,186.971,269.4z"/>
</svg>
