<?xml version="1.0" encoding="utf-8"?>
<!-- Generator: Adobe Illustrator 15.0.2, SVG Export Plug-In . SVG Version: 6.00 Build 0)  -->
<!DOCTYPE svg PUBLIC "-//W3C//DTD SVG 1.1//EN" "http://www.w3.org/Graphics/SVG/1.1/DTD/svg11.dtd">
<svg version="1.1" id="Layer_1" xmlns="http://www.w3.org/2000/svg" xmlns:xlink="http://www.w3.org/1999/xlink" x="0px" y="0px"
	 width="112px" height="104px" viewBox="0 0 112 104" enable-background="new 0 0 112 104" xml:space="preserve">
<path fill="#FFFFFF" d="M0,0h88.75c-1.4,1.02-2.811,2.01-4.24,2.99c-0.52,0-1.57,0.01-2.1,0.02c-0.42,0.41-1.28,1.24-1.7,1.65
	c-1.69,0.46-3.181,1.39-4.44,2.6c3.34-0.59,6.15-2.62,9.19-3.979c0.46-0.26,1.39-0.8,1.851-1.07c1.879-0.96,3.92-1.38,6.02-1.23
	c0.65,0.36,1.949,1.09,2.6,1.45l0.09-1.03C95.32,1.05,93.93,0.35,93.23,0H112v33.34c-5.74,1.64-11.891-0.14-17.67,0.97
	c0.16,1.36,2.79,0.35,3.609,0.74c4.69-0.09,9.391,0.16,14.061-0.4V104H40.74c2.9-1.46,6.35-1.47,9.16-3.2
	c3.3-2.01,6.92-3.43,10.64-4.47c2.64-0.48,4.979-1.8,7.46-2.75l-0.01-0.95c-2.62,0.53-4.92,1.91-7.4,2.84
	c-1.26,0.25-2.52,0.47-3.79,0.66c-1.72,0.88-3.49,1.64-5.33,2.22c-3.39,3.03-8.03,3.391-12.21,4.5c-2.41,0.16-4.82,0.16-7.23,0.15
	l0.13,1H0V57.9c1.02,0.699,2.14,1.17,3.38,0.729c0.89-0.66,1.78-1.319,2.67-1.979c-0.05,2.68-0.3,5.43,0.57,8.02
	c0.42,2.45,1.48,4.721,2.64,6.9c2.29,6.18,7.05,10.869,12.17,14.81c0.5,0.22,1.52,0.65,2.03,0.87c1.97,0.99,4.01,1.811,6.11,2.48
	c1.03,0.319,2.05,0.67,3.07,1.039c0.42,0.141,1.26,0.42,1.68,0.561c2.55,0.87,5.27,0.65,7.91,0.84c2.19,1.16,4.69,0.84,7.05,0.721
	c1.73-0.66,3.53-1.061,5.3-1.601c0.95-0.29,1.91-0.59,2.859-0.899c1.42-0.91,2.801-1.881,4.25-2.75
	c0.881-0.761,1.75-1.511,2.631-2.261c1.84-1.18,3.52-2.59,5.369-3.76c0.871-0.761,1.74-1.53,2.61-2.29
	c1.49-0.86,2.931-1.811,4.421-2.66c0.869-0.8,1.729-1.6,2.59-2.4c1.81-0.489,3.569-1.17,5.31-1.869c1.88-1.33,3.521-2.961,5.04-4.67
	c0.64-1.121,1.359-2.19,2.09-3.25c0.279-1.391,0.561-2.78,0.93-4.141c0.15-0.42,0.45-1.26,0.6-1.689
	c0.4-1.33,0.771-2.681,1.111-4.03c0.569,0.37,1.709,1.11,2.279,1.489c1.68-0.129,4.04,0.021,4.471-2.129
	c-0.4-1.63-2.19-1.831-3.49-2.38c-1.75-0.43-3.53-0.77-5.271-1.24c-1.01-0.39-2.021-0.79-3.021-1.21
	c-0.489-0.05-1.469-0.15-1.969-0.2c-0.41-0.4-1.23-1.2-1.641-1.61c-1.46-0.67-2.641-2.17-4.279-2.31
	c-1.08,0.6-2.311,2.15-0.861,3.09c1.58,1.95,3.82,3.16,5.861,4.54c-2.011,0.689-4.021,1.359-6.051,1.98
	c-1.68,0.56-3.3,1.31-4.87,2.129c-1.329,0.551-2.659,1.09-4.01,1.561c-0.979,0.37-1.96,0.73-2.95,1.08
	c-2.439,0.57-5.01,0.5-7.35,1.439c-6.63-0.08-13.47,0.95-19.96-0.56c-0.86-0.2-1.71-0.39-2.56-0.58c-2.74-0.97-5.75-0.44-8.48-1.44
	c-1.98-0.229-3.99-0.359-5.91-0.92c-0.42-0.16-1.26-0.479-1.68-0.64c-1.32-0.399-2.67-0.72-4.01-1.04
	c-1.32-0.38-2.66-0.68-3.99-0.99c-1.32-0.369-2.64-0.71-3.98-1.029c0.27-0.48,0.81-1.44,1.08-1.92c1.58-2.18,1.25-4.56,0.02-6.82
	c1.31,0.06,2.61,0.11,3.91,0.17c0.93-1.18,1.87-2.36,2.77-3.56c0.27-0.98,0.54-1.96,0.79-2.95c0.29-0.72,0.88-2.15,1.18-2.87
	c1.41,0.45,2.8,0.95,4.2,1.45c1.86,1.17,3.69,2.41,5.66,3.4c0.05-2.13-0.74-4.06-2.72-5.02c-1-0.3-1.99-0.6-2.98-0.9
	c-2.57-1.08-5.88-1.21-7.08,1.81c-0.25,0.99-0.49,1.99-0.72,2.99c-0.26,0.62-0.76,1.86-1.01,2.48C14,42.52,12.18,43,10.32,43.19
	c-0.41,0.38-1.21,1.15-1.61,1.53c-2.2,0.13-3.76,1.38-4.27,3.55c1.74-0.49,3.45-1.06,5.19-1.53c-0.7,1.49-1.7,2.8-2.86,3.979
	C4.35,52.04,2.21,53.811,0,55.46V38.91c1.6-0.63,1.6-1.2,0-1.74V0 M81.529,6.58c-1.739,0.98-3.51,1.95-5.039,3.26L78,10.06V9.29
	c1.57-0.36,3.07-0.99,4.54-1.62C86.9,6.37,91.439,5.68,96,6.01V5c-2.76,0-5.52,0-8.279,0C86.02,6.62,83.51,5.64,81.529,6.58
	 M13.78,15.16c3.66-1.12,5.22-5.65,9.19-6.35c4.31,0.5,6.17,5.88,10.46,6.47c-0.82-1.08-1.74-2.08-2.71-3.03
	c-2.23-0.79-3.72-2.73-5.13-4.52c3.03-0.27,3.8,4.2,6.94,3.34c-2.36-1.74-4.54-3.85-7.3-4.95c-0.17,0.45-0.51,1.37-0.68,1.82
	c-0.24-0.52-0.73-1.57-0.98-2.09C20.56,9.22,16.13,11.12,13.78,15.16 M85.45,8.85c-0.479,0.07-1.431,0.23-1.91,0.3
	c-1.12,0.96-2.649,0.8-4,1.07c-2.13,0.78-4.83,1.1-4.83,3.95c2.149,0.07,4.06-0.88,5.79-2.05c1.641-0.17,3.42,0.12,4.891-0.79
	c2.039-1.49,4.68-1.72,7.069-1.15c1.41,1.73,3.44,2.05,5.55,1.92c0-0.43-0.01-1.28-0.01-1.71c-1.83-0.46-2.96-2.56-4.96-2.4
	C90.529,8.18,87.65,7.29,85.45,8.85 M17,15.39c0,0.43-0.01,1.28-0.01,1.7c2.19,0.17,4.31-0.14,5.59-2.12
	c1.81,1.11,3.51,2.4,4.93,3.98c-1.08-0.21-2.14-0.53-3.16-0.94c-2.3-0.01-4.6-0.14-6.89,0.1c-1.23,1-2.35,2.13-3.36,3.35
	c-0.2,1.87-0.1,3.76-0.12,5.64c2.36,0.21,4.51-0.55,6.42-1.86c3.22-2.11,7.19-0.98,10.78-1.24c-0.09-0.63-0.28-1.88-0.38-2.5
	c-0.31-0.97-3.2-2.34-0.86-2.85L30.05,20c0.49,0,1.46,0,1.95,0c0-0.7,0-2.1,0-2.8c-4.05,0.34-5.99-4.89-10.02-4.25
	C19.99,12.81,18.85,14.93,17,15.39 M82.46,13.84c-0.479,0.09-1.431,0.25-1.91,0.33c-2.68,0.78-5.21,1.62-7.55,3.23
	c0,1.53,0,3.07,0,4.6c0.75,0,2.24,0,2.99,0c0.01-0.5,0.01-1.5,0.02-1.99c3.141,0.32,6.67-0.86,9.53,0.78
	c1.37,0.28,2.96,0.04,4.03,1.14c3.26,0.11,6.529,0.1,9.789,0.02c-0.549-2.05-2.029-3.57-4.01-4.27c-0.92-1.56-2-3.02-2.74-4.68
	C89.27,13.39,85.471,12.06,82.46,13.84 M102,16.45c-0.37,2.47,5.221,2.19,5.859,0.83C105.98,16.86,103.83,16.76,102,16.45
	 M49.11,20.07c-0.34,2.8-3.41,3.99-4.5,6.45c-0.46,2.66-1.9,5.43-4.63,6.32c-2.25,0.38-3.5,2.51-5.49,3.42
	c-2.39,0.88-1.19,3.84-1.54,5.72c1.84,0.02,3.69,0.03,5.54,0.07c0.51,0.31,1.54,0.94,2.06,1.25c0.5,0.26,1.5,0.79,1.99,1.06
	c4.1,1.29,8.67,0.55,12.91,0.47c1.93-2.8,5.37-1.21,8.021-2.35c0.959-2.01,0.379-4.34,0.549-6.48c-2.01,0-4.01,0-6.02,0
	c0,0.5,0,1.49,0,1.99c1.43,0.01,2.859,0.02,4.29,0.04c-0.14,2.97-2.931,3.21-5.319,3.01C54.89,40.56,54.1,43.44,52.03,43
	c-2.5-0.22-5.45,0.79-7.59-0.9c-0.67-0.04-2.01-0.12-2.69-0.16c0.48-1.32,1.03-2.61,1.51-3.93C41.51,38,39.76,38,38.01,38
	C38,38.5,38,39.5,37.99,40c-0.84,0-2.51,0-3.35,0c2.31-2.24,4.23-5.9,8-5.08c0.5-2.01,2.55-3.08,3.21-4.98
	c0.52-2.44,2.78-3.89,3.91-6.02c1.01-1.24,1.37-3.03,2.78-3.91c1.22,0.18,2.29,0.86,3.45,1.23c0.01-0.81,0.01-2.45,0.02-3.26
	C53.73,18.39,49.57,16.74,49.11,20.07 M101.09,20.7c1.78,0.61,4.04,0.61,5.83,0C106.15,19.41,101.85,19.41,101.09,20.7 M30.08,24.68
	l-0.12,0.95c-3.35,0.63-4.41,5.44-8.25,4.46c-1.62,1.36-3.8,0.84-5.74,0.95l0.04,1.04c3.08,0.14,6.02-0.75,9.01-1.33
	c1.92-1.93,4.33-3.39,6.18-5.44L30.08,24.68 M75.439,24.87c2.66,2.58,6.271,3.89,9.86,4.55c3.69,0.68,7.33,1.79,11.12,1.69
	c1.801,1.6,4.41,0.64,6.58,0.91V31c-2.01,0-4.01,0-6.02,0l0.049-0.99c-2.239-0.2-4.859,0.67-6.729-0.96
	c-1.71-0.03-3.579,0.22-5-0.94C81.561,28.58,79.04,24.88,75.439,24.87 M11.11,33.29c0.88,1.5,4.2,0.81,5.81,0.42
	C16.03,32.21,12.72,32.9,11.11,33.29 M73.561,35.21c-1.221,0.97-2.48,1.88-4.061,2.11c-2.17,0.58-4.76,1.08-4.8,3.85
	c1.29-0.02,2.521-0.31,3.68-0.86c1.44-0.79,2.979-1.34,4.64-1.47c1.351-0.03,2.041-2.52,3.471-1.3c3.09,1.8,4.869,5.16,8.039,6.8
	c0.98,0.44,1.961,0.88,2.931,1.32c3.58,3.79,8.95,1.94,13.54,2.33c0-0.5,0-1.49,0-1.99c-3.54-0.24-7.45,0.84-10.609-1.25
	c-2.201-1.11-4.551-2.09-6.181-4.03c-1.42-1.68-4.149-2.03-4.489-4.52C77.83,35.29,75.62,34.39,73.561,35.21 M98.98,44l0.029,1
	c3.391,0.14,6.811,0.13,9.971-1.25c0.029-0.49,0.08-1.46,0.109-1.95C106.21,44.27,102.55,44.24,98.98,44 M1.12,43.71
	c1.93,0.36,5.52,1.09,6.78-0.39C6,42.91,2.31,42.19,1.12,43.71 M44.24,45.99c-1.12,2.19-1.42,4.58-1.3,7.01c0.51,0,1.52,0,2.03,0
	c0.03-1.15,0.06-2.29,0.11-3.44c0.74-1.05,1.1-2.23,1.1-3.54C45.7,46.01,44.72,46,44.24,45.99 M51,46.98c0,2.01,0,4.01,0,6.02
	c0.49,0,1.47,0,1.96,0c0.04-1.15,0.08-2.3,0.13-3.44c0.32-0.63,0.95-1.88,1.27-2.5C53.52,47.04,51.84,47,51,46.98 M14.69,89.73
	c0.23,0.609,0.68,1.84,0.9,2.459c3.33,1.871,6.22,4.541,9.94,5.641c0.48,0.08,1.44,0.25,1.92,0.33c0.39,0.199,1.16,0.6,1.55,0.8
	c4.97,0.11,9.96,0.04,14.94,0.03c2.11,0.05,3.79-1.521,5.63-2.34c0.96-0.34,1.93-0.66,2.91-0.961c1.23-0.659,2.63-0.709,3.97-0.909
	c1.579-0.931,3.56-0.61,5.11-1.61c0.469-0.08,1.42-0.25,1.89-0.33c1.28-1.12,3.01-0.79,4.55-0.93c0-0.49,0-1.46,0-1.95
	c-1.859,0.17-3.98-0.45-5.55,0.88c-0.479,0.08-1.431,0.25-1.9,0.33c-1.54,1.02-3.521,0.67-5.1,1.61c-1.35,0.28-2.89,0.09-4,1.079
	c-0.49,0.061-1.48,0.181-1.97,0.24c-0.96,0.57-1.9,1.141-2.85,1.711c-3.21,1.959-7.05,0.97-10.6,1.199
	c-2.5-0.189-5.23,0.551-7.55-0.689c-0.97-0.311-1.93-0.641-2.88-0.99c-1.08-0.52-2.14-1.07-3.23-1.57c-1.72-0.92-3.3-2.06-4.91-3.15
	C16.77,90.391,15.39,89.95,14.69,89.73z"/>
<path d="M88.75,0h4.48c0.699,0.35,2.09,1.05,2.789,1.4l-0.09,1.03c-0.65-0.36-1.949-1.09-2.6-1.45c-2.1-0.15-4.141,0.27-6.02,1.23
	C86.85,2.48,85.92,3.02,85.46,3.28c-3.04,1.36-5.851,3.39-9.19,3.979c1.26-1.21,2.75-2.14,4.44-2.6c0.42-0.41,1.28-1.24,1.7-1.65
	c0.529-0.01,1.58-0.02,2.1-0.02C85.939,2.01,87.35,1.02,88.75,0z"/>
<path d="M81.529,6.58c1.98-0.94,4.49,0.04,6.191-1.58C90.48,5,93.24,5,96,5v1.01c-4.561-0.33-9.1,0.36-13.46,1.66
	C81.07,8.3,79.57,8.93,78,9.29v0.77l-1.51-0.22C78.02,8.53,79.79,7.56,81.529,6.58z"/>
<path d="M13.78,15.16c2.35-4.04,6.78-5.94,9.79-9.31c0.25,0.52,0.74,1.57,0.98,2.09c0.17-0.45,0.51-1.37,0.68-1.82
	c2.76,1.1,4.94,3.21,7.3,4.95c-3.14,0.86-3.91-3.61-6.94-3.34c1.41,1.79,2.9,3.73,5.13,4.52c0.97,0.95,1.89,1.95,2.71,3.03
	c-4.29-0.59-6.15-5.97-10.46-6.47C19,9.51,17.44,14.04,13.78,15.16z"/>
<path d="M85.45,8.85c2.2-1.56,5.079-0.67,7.59-0.86c2-0.16,3.13,1.94,4.96,2.4c0,0.43,0.01,1.28,0.01,1.71
	c-2.109,0.13-4.14-0.19-5.55-1.92c-2.39-0.57-5.03-0.34-7.069,1.15c-1.471,0.91-3.25,0.62-4.891,0.79
	c-1.73,1.17-3.641,2.12-5.79,2.05c0-2.85,2.7-3.17,4.83-3.95c1.351-0.27,2.88-0.11,4-1.07C84.02,9.08,84.971,8.92,85.45,8.85z"/>
<path d="M17,15.39c1.85-0.46,2.99-2.58,4.98-2.44c4.03-0.64,5.97,4.59,10.02,4.25c0,0.7,0,2.1,0,2.8c-0.49,0-1.46,0-1.95,0
	l-0.11-1.35c-2.34,0.51,0.55,1.88,0.86,2.85c0.1,0.62,0.29,1.87,0.38,2.5c-3.59,0.26-7.56-0.87-10.78,1.24
	c-1.91,1.31-4.06,2.07-6.42,1.86c0.02-1.88-0.08-3.77,0.12-5.64c1.01-1.22,2.13-2.35,3.36-3.35c2.29-0.24,4.59-0.11,6.89-0.1
	c1.02,0.41,2.08,0.73,3.16,0.94c-1.42-1.58-3.12-2.87-4.93-3.98c-1.28,1.98-3.4,2.29-5.59,2.12C16.99,16.67,17,15.82,17,15.39
	 M23.08,20.32c-1.03,2.02,3.37,2.6,3.82,1.08C25.88,20.69,24.33,19.52,23.08,20.32 M16.08,24.69c1.29,0.72,2.62-1.63,1.65-2.59
	C16.22,21.12,15.2,23.65,16.08,24.69z"/>
<path d="M82.46,13.84c3.011-1.78,6.81-0.45,10.149-0.84c0.74,1.66,1.82,3.12,2.74,4.68c1.98,0.7,3.461,2.22,4.01,4.27
	c-3.26,0.08-6.529,0.09-9.789-0.02c-1.07-1.1-2.66-0.86-4.03-1.14c-2.86-1.64-6.39-0.46-9.53-0.78C76,20.5,76,21.5,75.99,22
	c-0.75,0-2.24,0-2.99,0c0-1.53,0-3.07,0-4.6c2.34-1.61,4.87-2.45,7.55-3.23C81.029,14.09,81.98,13.93,82.46,13.84 M88.189,15
	c-0.09,1.46-0.469,2.86-1.319,4.08c0.64-0.01,1.92-0.01,2.56-0.02c1.291,1.42,3.301,0.78,4.961,1c-1.42-1.55-3.15-2.97-3.771-5.06
	C90.01,15,88.8,15,88.189,15 M78.26,17.18c0.311,1.22,1.131,1.43,2.48,0.64C80.439,16.6,79.609,16.39,78.26,17.18z"/>
<path fill="#FFFFFF" d="M88.189,15c0.61,0,1.82,0,2.431,0c0.62,2.09,2.351,3.51,3.771,5.06c-1.66-0.22-3.67,0.42-4.961-1
	c-0.64,0.01-1.92,0.01-2.56,0.02C87.721,17.86,88.1,16.46,88.189,15z"/>
<path d="M102,16.45c1.83,0.31,3.98,0.41,5.859,0.83C107.221,18.64,101.63,18.92,102,16.45z"/>
<path fill="#FFFFFF" d="M78.26,17.18c1.35-0.79,2.18-0.58,2.48,0.64C79.391,18.61,78.57,18.4,78.26,17.18z"/>
<path d="M49.11,20.07c0.46-3.33,4.62-1.68,6.9-2.09C56,18.79,56,20.43,55.99,21.24c-1.16-0.37-2.23-1.05-3.45-1.23
	c-1.41,0.88-1.77,2.67-2.78,3.91c-1.13,2.13-3.39,3.58-3.91,6.02c-0.66,1.9-2.71,2.97-3.21,4.98c-3.77-0.82-5.69,2.84-8,5.08
	c0.84,0,2.51,0,3.35,0c0.01-0.5,0.01-1.5,0.02-2c1.75,0,3.5,0,5.25,0.01c-0.48,1.32-1.03,2.61-1.51,3.93
	c0.68,0.04,2.02,0.12,2.69,0.16c2.14,1.69,5.09,0.68,7.59,0.9c2.07,0.44,2.86-2.44,4.941-1.96c2.389,0.2,5.18-0.04,5.319-3.01
	C60.859,38.01,59.43,38,58,37.99c0-0.5,0-1.49,0-1.99c2.01,0,4.01,0,6.02,0c-0.17,2.14,0.41,4.47-0.549,6.48
	c-2.65,1.14-6.091-0.45-8.021,2.35c-4.24,0.08-8.81,0.82-12.91-0.47c-0.49-0.27-1.49-0.8-1.99-1.06c-0.52-0.31-1.55-0.94-2.06-1.25
	c-1.85-0.04-3.7-0.05-5.54-0.07c0.35-1.88-0.85-4.84,1.54-5.72c1.99-0.91,3.24-3.04,5.49-3.42c2.73-0.89,4.17-3.66,4.63-6.32
	C45.7,24.06,48.77,22.87,49.11,20.07z"/>
<path fill="#FFFFFF" d="M23.08,20.32c1.25-0.8,2.8,0.37,3.82,1.08C26.45,22.92,22.05,22.34,23.08,20.32z"/>
<path d="M101.09,20.7c0.76-1.29,5.061-1.29,5.83,0C105.13,21.31,102.87,21.31,101.09,20.7z"/>
<path fill="#FFFFFF" d="M16.08,24.69c-0.88-1.04,0.14-3.57,1.65-2.59C18.7,23.06,17.37,25.41,16.08,24.69z"/>
<path d="M30.08,24.68l1.12,0.63c-1.85,2.05-4.26,3.51-6.18,5.44c-2.99,0.58-5.93,1.47-9.01,1.33l-0.04-1.04
	c1.94-0.11,4.12,0.41,5.74-0.95c3.84,0.98,4.9-3.83,8.25-4.46L30.08,24.68z"/>
<path d="M75.439,24.87c3.601,0.01,6.121,3.71,9.86,3.24c1.421,1.16,3.29,0.91,5,0.94c1.87,1.63,4.49,0.76,6.729,0.96L96.98,31
	c2.01,0,4.01,0,6.02,0v1.02c-2.17-0.27-4.779,0.69-6.58-0.91c-3.79,0.1-7.43-1.01-11.12-1.69C81.71,28.76,78.1,27.45,75.439,24.87z"
	/>
<path d="M11.11,33.29c1.61-0.39,4.92-1.08,5.81,0.42C15.31,34.1,11.99,34.79,11.11,33.29z"/>
<path d="M94.33,34.31c5.779-1.11,11.93,0.67,17.67-0.97v1.31c-4.67,0.56-9.37,0.31-14.061,0.4C97.12,34.66,94.49,35.67,94.33,34.31z
	"/>
<path d="M17.5,36.44c1.2-3.02,4.51-2.89,7.08-1.81c0.99,0.3,1.98,0.6,2.98,0.9c1.98,0.96,2.77,2.89,2.72,5.02
	c-1.97-0.99-3.8-2.23-5.66-3.4c-1.4-0.5-2.79-1-4.2-1.45c-0.3,0.72-0.89,2.15-1.18,2.87c-0.25,0.99-0.52,1.97-0.79,2.95
	c-0.9,1.2-1.84,2.38-2.77,3.56c-1.3-0.06-2.6-0.11-3.91-0.17c1.23,2.26,1.56,4.64-0.02,6.82c-0.27,0.48-0.81,1.44-1.08,1.92
	c1.34,0.319,2.66,0.66,3.98,1.029c1.33,0.311,2.67,0.61,3.99,0.99c1.34,0.32,2.69,0.641,4.01,1.04c0.42,0.16,1.26,0.479,1.68,0.64
	c1.92,0.561,3.93,0.69,5.91,0.92c2.73,1,5.74,0.471,8.48,1.44c0.85,0.19,1.7,0.38,2.56,0.58c6.49,1.51,13.33,0.479,19.96,0.56
	c2.34-0.939,4.91-0.869,7.35-1.439c0.99-0.35,1.971-0.71,2.95-1.08c1.351-0.471,2.681-1.01,4.01-1.561
	c1.57-0.819,3.19-1.569,4.87-2.129c2.03-0.621,4.04-1.291,6.051-1.98c-2.041-1.38-4.281-2.59-5.861-4.54
	c-1.449-0.94-0.219-2.49,0.861-3.09c1.639,0.14,2.819,1.64,4.279,2.31c0.41,0.41,1.23,1.21,1.641,1.61
	c0.5,0.05,1.479,0.15,1.969,0.2c1,0.42,2.011,0.82,3.021,1.21c1.74,0.47,3.521,0.81,5.271,1.24c1.3,0.55,3.09,0.75,3.49,2.38
	c-0.431,2.149-2.791,2-4.471,2.129c-0.57-0.379-1.71-1.119-2.279-1.489c-0.341,1.35-0.711,2.7-1.111,4.03
	c-0.149,0.43-0.449,1.27-0.6,1.689c-0.369,1.36-0.65,2.75-0.93,4.141c-0.73,1.06-1.45,2.129-2.09,3.25
	c-1.52,1.709-3.16,3.34-5.04,4.67c-1.74,0.699-3.5,1.38-5.31,1.869c-0.86,0.801-1.721,1.601-2.59,2.4
	c-1.49,0.85-2.931,1.8-4.421,2.66c-0.87,0.76-1.739,1.529-2.61,2.29c-1.85,1.17-3.529,2.58-5.369,3.76
	c-0.881,0.75-1.75,1.5-2.631,2.261c-1.449,0.869-2.83,1.84-4.25,2.75C56.49,90.7,55.53,91,54.58,91.29
	c-1.77,0.54-3.57,0.94-5.3,1.601c-2.36,0.119-4.86,0.439-7.05-0.721c-2.64-0.189-5.36,0.03-7.91-0.84
	c-0.42-0.141-1.26-0.42-1.68-0.561c-1.02-0.369-2.04-0.72-3.07-1.039c-2.1-0.67-4.14-1.49-6.11-2.48c-0.51-0.22-1.53-0.65-2.03-0.87
	c-5.12-3.94-9.88-8.63-12.17-14.81c-1.16-2.18-2.22-4.45-2.64-6.9C5.75,62.08,6,59.33,6.05,56.65c-0.89,0.66-1.78,1.319-2.67,1.979
	C2.14,59.07,1.02,58.6,0,57.9v-2.44c2.21-1.649,4.35-3.42,6.77-4.74c1.16-1.18,2.16-2.49,2.86-3.979c-1.74,0.47-3.45,1.04-5.19,1.53
	c0.51-2.17,2.07-3.42,4.27-3.55c0.4-0.38,1.2-1.15,1.61-1.53c1.86-0.19,3.68-0.67,5.45-1.28c0.25-0.62,0.75-1.86,1.01-2.48
	C17.01,38.43,17.25,37.43,17.5,36.44 M14.65,58.72c0.36,2.54,2.61,4.021,4.34,5.63c0.02-1.38,0.02-2.75,0.01-4.119
	C17.55,59.73,16.12,59.17,14.65,58.72 M78.51,59.609c-0.88,0.391-1.65,0.921-2.3,1.591c0.28,0.95,0.569,1.899,0.87,2.85
	c1.38-0.78,2.939-1.13,4.41-1.7c0.41-1.14,0.64-2.319,0.689-3.55C80.92,58.92,79.7,59.189,78.51,59.609 M20.82,60.82
	c0.07,1.25,0.3,2.47,0.71,3.649c1.18,0.41,2.4,0.64,3.65,0.71c-0.07-1.25-0.3-2.47-0.71-3.649C23.29,61.12,22.07,60.88,20.82,60.82
	 M27.02,64c0.18,2.76,3.61,1.76,5.44,2.141c0.63,0.299,1.87,0.899,2.5,1.209c0.02-1.449,0.04-2.89,0.05-4.33
	c-1.48-0.02-2.97-0.039-4.46-0.08C29.6,61.25,26.85,62.1,27.02,64 M71.54,62.77c-1.55,0.381-3.06,0.9-4.59,1.32
	c0.54,1.03,1.04,2.09,1.489,3.17c0.48-0.25,1.44-0.75,1.92-1c1.48-0.77,3.021-1.449,4.75-1.279c-0.58-1.051-1.1-2.131-1.549-3.23
	C73.05,62,72.04,62.51,71.54,62.77 M36.81,67.95c1.92,0.22,4.19-0.53,5.76,0.97c1.14,0.04,2.28,0.08,3.43,0.11
	c0-1.33,0-2.671,0-4.011c-1.48-0.02-2.96-0.039-4.44-0.09C39.24,62.38,36.28,65.12,36.81,67.95 M62.45,64.92
	C60.96,64.97,59.48,65,58,65.03c0,1.319,0,2.649,0,3.97c2.779,0,5.57,0.02,8.35-0.04c-0.31-0.63-0.93-1.88-1.229-2.51
	c-0.06-0.7-0.181-2.101-0.229-2.8C64.279,63.97,63.061,64.6,62.45,64.92 M48,65c0,1.33,0,2.67,0,4c2.67,0,5.33,0,8,0
	c0-1.33,0-2.67,0-4C53.33,65,50.67,65,48,65 M27.64,73.96c1.26,0.04,2.52,0.08,3.78,0.13c0.75,0.301,2.23,0.9,2.97,1.2
	c-0.97-1.2-1.78-2.931-3.39-3.32C29.41,71.52,28.52,72.939,27.64,73.96 M21.63,75.79c-1.3,0.521-2.59,1.09-3.89,1.59
	c0.3,1.03,0.82,1.91,1.57,2.63c2.56-3.39,7.09-1.6,10.69-2c0-0.5,0-1.51,0-2.01c-1.67,0-3.35,0-5.02,0c0.02-0.55,0.07-1.65,0.09-2.2
	C23.93,74.47,22.78,75.13,21.63,75.79 M36,74.01c0,0.68,0,2.051,0,2.74c-1.34,0.47-2.66,1.02-4,1.51c0,0.43,0,1.29,0,1.721
	c2.12,0.16,4.47-0.48,6.39,0.689c2.49,1.93,5.69,1.23,8.61,1.35c2.9-0.1,6.05,0.521,8.59-1.27c1.42-0.79,2.881-1.49,4.4-2.061
	c0.01-0.409,0.02-1.229,0.02-1.64c0.61-0.04,1.83-0.12,2.44-0.159c0.63-0.311,1.899-0.931,2.53-1.25L65.02,75
	c-3.89,0.27-8.109-0.87-11.669,1.18c-2.78,1.12-4.31,4.58-7.7,3.971c0.25-1.471,1.3-2.49,2.21-3.57c-0.08-1.71-2.22-1.36-3.35-1.86
	C41.91,73.32,38.82,74.23,36,74.01 M66.27,77.45c-0.279,0.25-0.83,0.76-1.109,1.01c0.561,1.54,4.04-0.22,3.98-1.7
	C68.609,75,66.689,76.4,66.27,77.45 M22.53,80.54c-1.48,1.88,1.91,2.43,2.91,3.43c1.51-1.5,3.57-2.319,4.98-3.95
	C27.81,80.17,25,79.48,22.53,80.54 M61.23,80.32c-0.51,0.26-1.541,0.77-2.061,1.02c0.33,1.32,2.57,0.86,3.52,0.44
	C62.9,80.77,62.41,80.28,61.23,80.32 M32.5,82.74c-1.12,0.449-2.97,0.16-3.4,1.6c0.1,1.76,2.22,1.46,3.41,1.91
	c0.25,0.15,0.74,0.46,0.99,0.609c1.59-1.219,3.26-2.329,4.85-3.569C36.46,82.811,34.29,81.07,32.5,82.74 M36.58,87.98
	c2.07,0.05,4.15,0.029,6.23,0.02c0.07-1.53,0.56-2.96,1.35-4.27C41.1,83.83,38.74,86.061,36.58,87.98 M46.22,83.99
	c-0.61,1.67-1.26,3.33-1.44,5.119c2.25,0.101,4.38-0.52,6.43-1.39c-0.48-1.239-1.02-2.47-1.48-3.72
	C48.56,84,47.39,83.99,46.22,83.99 M51.85,83.91c0.58,1.06,1.09,2.15,1.55,3.279c2.22,0,3.64-1.83,5.581-2.58L59.02,84
	C56.63,84.02,54.24,84,51.85,83.91z"/>
<path d="M73.561,35.21c2.06-0.82,4.27,0.08,6.16,0.99c0.34,2.49,3.069,2.84,4.489,4.52c1.63,1.94,3.979,2.92,6.181,4.03
	C93.55,46.84,97.46,45.76,101,46c0,0.5,0,1.49,0,1.99c-4.59-0.39-9.96,1.46-13.54-2.33c-0.97-0.44-1.95-0.88-2.931-1.32
	c-3.17-1.64-4.949-5-8.039-6.8c-1.43-1.22-2.12,1.27-3.471,1.3c-1.66,0.13-3.199,0.68-4.64,1.47c-1.159,0.55-2.39,0.84-3.68,0.86
	c0.04-2.77,2.63-3.27,4.8-3.85C71.08,37.09,72.34,36.18,73.561,35.21z"/>
<path d="M0,37.17c1.6,0.54,1.6,1.11,0,1.74V37.17z"/>
<path d="M98.98,44c3.569,0.24,7.229,0.27,10.109-2.2c-0.029,0.49-0.08,1.46-0.109,1.95c-3.16,1.38-6.58,1.39-9.971,1.25L98.98,44z"
	/>
<path d="M1.12,43.71c1.19-1.52,4.88-0.8,6.78-0.39C6.64,44.8,3.05,44.07,1.12,43.71z"/>
<path d="M44.24,45.99c0.48,0.01,1.46,0.02,1.94,0.03c0,1.31-0.36,2.49-1.1,3.54C45.03,50.71,45,51.85,44.97,53
	c-0.51,0-1.52,0-2.03,0C42.82,50.57,43.12,48.18,44.24,45.99z"/>
<path d="M51,46.98c0.84,0.02,2.52,0.06,3.36,0.08c-0.32,0.62-0.95,1.87-1.27,2.5C53.04,50.7,53,51.85,52.96,53
	c-0.49,0-1.47,0-1.96,0C51,50.99,51,48.99,51,46.98z"/>
<path fill="#FFFFFF" d="M14.65,58.72c1.47,0.45,2.9,1.011,4.35,1.511c0.01,1.369,0.01,2.739-0.01,4.119
	C17.26,62.74,15.01,61.26,14.65,58.72z"/>
<path fill="#FFFFFF" d="M78.51,59.609c1.19-0.42,2.41-0.689,3.67-0.81c-0.05,1.23-0.279,2.41-0.689,3.55
	c-1.471,0.57-3.03,0.92-4.41,1.7c-0.301-0.95-0.59-1.899-0.87-2.85C76.859,60.53,77.63,60,78.51,59.609z"/>
<path fill="#FFFFFF" d="M20.82,60.82c1.25,0.06,2.47,0.3,3.65,0.71c0.41,1.18,0.64,2.399,0.71,3.649c-1.25-0.07-2.47-0.3-3.65-0.71
	C21.12,63.29,20.89,62.07,20.82,60.82z"/>
<path fill="#FFFFFF" d="M27.02,64c-0.17-1.9,2.58-2.75,3.53-1.061c1.49,0.041,2.98,0.061,4.46,0.08c-0.01,1.44-0.03,2.881-0.05,4.33
	c-0.63-0.31-1.87-0.91-2.5-1.209C30.63,65.76,27.2,66.76,27.02,64z"/>
<path fill="#FFFFFF" d="M71.54,62.77c0.5-0.26,1.51-0.77,2.021-1.02c0.449,1.1,0.969,2.18,1.549,3.23
	c-1.729-0.17-3.27,0.51-4.75,1.279c-0.479,0.25-1.439,0.75-1.92,1c-0.449-1.08-0.949-2.14-1.489-3.17
	C68.48,63.67,69.99,63.15,71.54,62.77z"/>
<path fill="#FFFFFF" d="M36.81,67.95c-0.53-2.83,2.43-5.57,4.75-3.021C43.04,64.98,44.52,65,46,65.02c0,1.34,0,2.681,0,4.011
	c-1.15-0.03-2.29-0.07-3.43-0.11C41,67.42,38.73,68.17,36.81,67.95z"/>
<path fill="#FFFFFF" d="M62.45,64.92c0.61-0.32,1.829-0.95,2.44-1.27c0.049,0.699,0.17,2.1,0.229,2.8c0.3,0.63,0.92,1.88,1.229,2.51
	C63.57,69.02,60.779,69,58,69c0-1.32,0-2.65,0-3.97C59.48,65,60.96,64.97,62.45,64.92z"/>
<path fill="#FFFFFF" d="M48,65c2.67,0,5.33,0,8,0c0,1.33,0,2.67,0,4c-2.67,0-5.33,0-8,0C48,67.67,48,66.33,48,65z"/>
<path fill="#FFFFFF" d="M27.64,73.96c0.88-1.021,1.77-2.44,3.36-1.99c1.61,0.39,2.42,2.12,3.39,3.32c-0.74-0.3-2.22-0.899-2.97-1.2
	C30.16,74.04,28.9,74,27.64,73.96z"/>
<path fill="#FFFFFF" d="M21.63,75.79c1.15-0.66,2.3-1.32,3.44-1.99c-0.02,0.55-0.07,1.65-0.09,2.2c1.67,0,3.35,0,5.02,0
	c0,0.5,0,1.51,0,2.01c-3.6,0.4-8.13-1.39-10.69,2c-0.75-0.72-1.27-1.6-1.57-2.63C19.04,76.88,20.33,76.311,21.63,75.79z"/>
<path fill="#FFFFFF" d="M36,74.01c2.82,0.221,5.91-0.689,8.51,0.71c1.13,0.5,3.27,0.15,3.35,1.86c-0.91,1.08-1.96,2.1-2.21,3.57
	c3.39,0.609,4.92-2.851,7.7-3.971c3.56-2.05,7.78-0.91,11.669-1.18l-0.039,0.641c-0.631,0.319-1.9,0.939-2.53,1.25
	c-0.61,0.039-1.83,0.119-2.44,0.159c0,0.41-0.01,1.23-0.02,1.64c-1.52,0.57-2.98,1.271-4.4,2.061c-2.54,1.79-5.69,1.17-8.59,1.27
	c-2.92-0.119-6.12,0.58-8.61-1.35c-1.92-1.17-4.27-0.529-6.39-0.689c0-0.431,0-1.291,0-1.721c1.34-0.49,2.66-1.04,4-1.51
	C36,76.061,36,74.689,36,74.01z"/>
<path fill="#FFFFFF" d="M66.27,77.45c0.42-1.05,2.34-2.45,2.871-0.69c0.06,1.48-3.42,3.24-3.98,1.7
	C65.439,78.21,65.99,77.7,66.27,77.45z"/>
<path fill="#FFFFFF" d="M22.53,80.54c2.47-1.06,5.28-0.37,7.89-0.521c-1.41,1.631-3.47,2.45-4.98,3.95
	C24.44,82.97,21.05,82.42,22.53,80.54z"/>
<path fill="#FFFFFF" d="M61.23,80.32c1.18-0.04,1.67,0.449,1.459,1.46c-0.949,0.42-3.189,0.88-3.52-0.44
	C59.689,81.09,60.721,80.58,61.23,80.32z"/>
<path fill="#FFFFFF" d="M32.5,82.74c1.79-1.67,3.96,0.07,5.85,0.55c-1.59,1.24-3.26,2.351-4.85,3.569
	c-0.25-0.149-0.74-0.459-0.99-0.609c-1.19-0.45-3.31-0.15-3.41-1.91C29.53,82.9,31.38,83.189,32.5,82.74z"/>
<path fill="#FFFFFF" d="M36.58,87.98c2.16-1.92,4.52-4.15,7.58-4.25c-0.79,1.31-1.28,2.739-1.35,4.27
	C40.73,88.01,38.65,88.03,36.58,87.98z"/>
<path fill="#FFFFFF" d="M46.22,83.99c1.17,0,2.34,0.01,3.51,0.01c0.46,1.25,1,2.48,1.48,3.72c-2.05,0.87-4.18,1.49-6.43,1.39
	C44.96,87.32,45.61,85.66,46.22,83.99z"/>
<path fill="#FFFFFF" d="M51.85,83.91C54.24,84,56.63,84.02,59.02,84l-0.039,0.609c-1.94,0.75-3.36,2.58-5.581,2.58
	C52.94,86.061,52.43,84.97,51.85,83.91z"/>
<path d="M14.69,89.73c0.7,0.22,2.08,0.66,2.77,0.879c1.61,1.091,3.19,2.23,4.91,3.15c1.09,0.5,2.15,1.051,3.23,1.57
	c0.95,0.35,1.91,0.68,2.88,0.99c2.32,1.24,5.05,0.5,7.55,0.689c3.55-0.229,7.39,0.76,10.6-1.199c0.95-0.57,1.89-1.141,2.85-1.711
	c0.49-0.06,1.48-0.18,1.97-0.24c1.11-0.989,2.65-0.799,4-1.079c1.579-0.94,3.56-0.591,5.1-1.61c0.47-0.08,1.421-0.25,1.9-0.33
	c1.569-1.33,3.69-0.71,5.55-0.88c0,0.49,0,1.46,0,1.95c-1.54,0.14-3.27-0.19-4.55,0.93c-0.47,0.08-1.421,0.25-1.89,0.33
	c-1.551,1-3.531,0.68-5.11,1.61c-1.34,0.2-2.74,0.25-3.97,0.909c-0.98,0.301-1.95,0.621-2.91,0.961c-1.84,0.819-3.52,2.39-5.63,2.34
	C38.96,99,33.97,99.07,29,98.96c-0.39-0.2-1.16-0.601-1.55-0.8c-0.48-0.08-1.44-0.25-1.92-0.33c-3.72-1.1-6.61-3.77-9.94-5.641
	C15.37,91.57,14.92,90.34,14.69,89.73z"/>
<path d="M60.59,95.47c2.48-0.93,4.78-2.31,7.4-2.84L68,93.58c-2.48,0.95-4.82,2.27-7.46,2.75c-3.72,1.04-7.34,2.46-10.64,4.47
	c-2.81,1.73-6.26,1.74-9.16,3.2h-8.58l-0.13-1c2.41,0.01,4.82,0.01,7.23-0.15c4.18-1.109,8.82-1.47,12.21-4.5
	c1.84-0.58,3.61-1.34,5.33-2.22C58.07,95.939,59.33,95.72,60.59,95.47z"/>
</svg>
