<?xml version="1.0" encoding="utf-8"?>
<!-- Generator: Adobe Illustrator 15.0.2, SVG Export Plug-In . SVG Version: 6.00 Build 0)  -->
<!DOCTYPE svg PUBLIC "-//W3C//DTD SVG 1.1//EN" "http://www.w3.org/Graphics/SVG/1.1/DTD/svg11.dtd">
<svg version="1.1" id="Layer_1" xmlns="http://www.w3.org/2000/svg" xmlns:xlink="http://www.w3.org/1999/xlink" x="0px" y="0px"
	 width="134px" height="240px" viewBox="0 0 134 240" enable-background="new 0 0 134 240" xml:space="preserve">
<path fill="#FFFFFF" d="M0,0h134v240H99.971c2.219-4.391-0.82-9-1.311-13.46c-0.73-6.47-4.4-12.33-3.721-18.97
	c3.641-2.18,6.541-5.33,9.92-7.851c2.75-2.239,5.761-4.3,7.9-7.159c-0.1-0.9-0.25-1.801-0.439-2.681c-0.7,0.04-2.11,0.13-2.82,0.181
	c-5.21,4.229-10.67,8.239-15.43,12.989c-1.49-4.81-1.301-9.95-2.84-14.72c-0.631-5.48-0.69-11.3-3.03-16.38
	c3.43-0.63,6.8-1.56,10.229-2.19c6.971-2.33,13.58-6.51,17.43-12.92c2.311-5.71,4.66-11.42,6.541-17.29
	c5.529-12.18,8.959-25.23,10.68-38.46c0.15-9.97,1.99-20.23-0.84-29.98c-1.48-10.12-5.01-20.02-10.58-28.61
	c-3.301-4.02-6.2-8.38-9.09-12.71c-3.83-3.62-7.41-7.54-11.65-10.69c-5.67-4-11.93-7.02-18.07-10.2c-4.51-1.92-9.42-2.65-14.27-3.07
	c-5.46-2.02-10.96-4.01-16.6-5.48c-2.68-0.52-4.62,3.26-1.58,4.22c5.62,2.17,11.46,3.73,17.161,5.71
	c4.689,0.55,9.33,1.479,13.84,2.91c3.66,2.15,7.459,4.04,11.02,6.35c7.65,3.53,13.48,9.96,18.63,16.46
	c6.229,8.18,12.2,16.92,14.65,27.05c1.26,4.93,2.14,9.94,3.35,14.87c0.181,10.55,0.08,21.22-2.17,31.56
	c-1.75,10.66-5.68,20.81-9.81,30.74c-1.48,4.89-3.461,9.62-5.49,14.3c-3.83,7.051-11.75,10.221-19.21,11.75
	c-5.591,1.761-11.55,1.92-17.32,1.121c-5.68-1.11-11.51-1.891-16.81-4.36c-3.23-1.61-6.86-2.07-10.15-3.54
	c2.71-5.58,6.25-10.69,9.63-15.87c1.22-2.16,2.46-4.32,3.57-6.55c2.8-0.01,5.86-0.04,8.16-1.891c2.489-1.57,3.64-4.39,5.13-6.789
	c-0.09-1.15-0.18-2.291-0.27-3.431c-0.511,0.31-1.531,0.931-2.041,1.24c-0.64,3.95-3.52,6.89-6.85,8.84
	c-1.58-0.16-3.27-0.21-4.31-1.601c-1.17,0.271-2.34,0.53-3.5,0.791c0.92-1.11,1.86-2.221,2.78-3.33c-0.74,0.02-2.23,0.06-2.97,0.069
	c-0.95,0.88-1.89,1.771-2.84,2.66c-2.15-0.62-4.34-1.26-6.18-2.6c-1.86-0.04-4.49-0.95-4.95,1.64c1.9,0.35,3.79,0.73,5.68,1.17
	c-2.12,1.95-4.27,3.9-6.65,5.54c-3.39,2.479-6.8,4.95-10,7.681c-3.74-4.791-9.1-8.03-12.58-13.041
	c-2.81-3.539-4.54-7.75-6.64-11.709c-0.3-1.761-0.7-3.511-1.45-5.13c-2.33-5.52-3.02-11.53-4.69-17.25
	c-0.94-3.58-2.51-7.09-2.25-10.88c0.25-10.76-0.96-21.83,2.54-32.22c0.71-10.38,5.7-19.62,9.17-29.23
	c2.73-5.37,7.6-9.13,12.21-12.81c2.44-1.91,5.26-3.4,8.29-4.07c6.67-0.55,13.3,1.17,19.98,0.35c0.12-1.27,0.24-2.55,0.34-3.82
	c-7.36-0.94-14.82-1.51-22.25-1.07c-4.1,0.96-7.56,3.53-10.82,6.09c-4.67,3.77-9.21,7.95-12.12,13.29c-0.98,2.68-1.7,5.46-2.84,8.09
	c-3.36,6.94-6.03,14.34-6.46,22.1C-0.71,66.12,0.58,77.24,0.3,88.01c-0.4,6.24,2.29,12.04,3.56,18.03
	c2.85,12.82,6.89,26.12,16.47,35.601c2.83,2.52,5.53,5.189,8.19,7.89c-1.01,0.59-2.03,1.18-3.06,1.75
	c-1.62,1.069-3.25,2.14-4.97,3.04c-1.78,1.57-3.8,2.89-5.46,4.58c-1.82,2.729-3.66,5.449-6,7.77c0.02,1.561,0.05,3.13,0.11,4.689
	c0.48,1.08,0.92,2.171,1.31,3.281c1.4,2.319,3.51,4.1,6.06,5.06c3.65-0.101,7.3-0.07,10.95-0.011c0.6-0.909,1.2-1.819,1.8-2.709
	c0.54-0.03,1.62-0.09,2.16-0.121c2.69-1.699,5.44-3.469,7.38-6.049c2.1-2.4,3.46-5.42,5.84-7.561c3.18,1.22,6.33,2.609,9.74,3.07
	c9.55,4.39,20.24,6.59,30.761,6c-0.201,3.039,0.069,6.07,0.409,9.08c1.421,3.949,0.841,8.279,2.22,12.199
	c0.42,2.551,0.271,5.25,1.41,7.641c-2.189-1.631-5.01-1.1-7.539-1.5c-4.69-1.23-9.641-1.79-14.5-1.62
	c-0.06,1.08-0.12,2.16-0.17,3.239c0.65,0.32,1.959,0.961,2.62,1.281c2.4,0.079,4.881,0.1,7.1,1.14c2.221,0.21,4.461,0.329,6.69,0.53
	c1.99,0.59,4.05,0.869,6.091,1.209c0.34,2.061,0.609,4.141,1.219,6.141c0.211,2.22,0.33,4.449,0.44,6.68
	c0.58,1.02,1.16,2.051,1.74,3.09c1.399,6.19,2.54,12.45,4.22,18.57H0V0 M83.51,48.42c-1.01,2.36-3.869,3.92-3.6,6.72
	c0.29,1.86,2.27,2.43,3.869,1.92c1.271-2.5,2.771-4.9,4.621-7.01c1.539-1.05,3.52-0.72,5.279-0.85c1.291,0.84,2.69,1.97,4.131,0.67
	c2.049-2.15-0.771-5.08-3.121-5.21C90.76,44.28,85.5,44.29,83.51,48.42 M30.94,66.4c-0.03,1.52-0.02,3.04,0.01,4.56
	c1.54,0.66,4.11,1.37,4.3-1.18c1.26-3.55,4.02-6.57,7.07-8.69c4.19-1.12,8.74,0.51,12.88-1.04c-0.14-1.46,0.17-3.34-1.68-3.79
	c-4.17-0.26-8.38-0.21-12.56-0.04C36.34,58.09,34.09,62.87,30.94,66.4z"/>
<path fill="#010101" d="M50.4,4.57c-3.04-0.96-1.1-4.74,1.58-4.22c5.64,1.47,11.14,3.46,16.6,5.48c4.85,0.42,9.76,1.15,14.27,3.07
	c6.141,3.18,12.4,6.2,18.07,10.2c4.24,3.15,7.82,7.07,11.65,10.69c2.89,4.33,5.789,8.69,9.09,12.71c5.57,8.59,9.1,18.49,10.58,28.61
	c2.83,9.75,0.99,20.01,0.84,29.98c-1.721,13.23-5.15,26.28-10.68,38.46c-1.881,5.87-4.23,11.58-6.541,17.29
	c-3.85,6.41-10.459,10.59-17.43,12.92c-3.43,0.631-6.8,1.561-10.229,2.19c2.34,5.08,2.399,10.899,3.03,16.38
	c1.539,4.77,1.35,9.91,2.84,14.72c4.76-4.75,10.22-8.76,15.43-12.989c0.71-0.051,2.12-0.141,2.82-0.181
	c0.189,0.88,0.34,1.78,0.439,2.681c-2.14,2.859-5.15,4.92-7.9,7.159c-3.379,2.521-6.279,5.671-9.92,7.851
	c-0.68,6.64,2.99,12.5,3.721,18.97c0.49,4.46,3.529,9.069,1.311,13.46H97.09c-1.68-6.12-2.82-12.38-4.22-18.57
	c-0.58-1.039-1.16-2.07-1.74-3.09c-0.11-2.23-0.229-4.46-0.44-6.68c-0.609-2-0.879-4.08-1.219-6.141
	c-2.041-0.34-4.101-0.619-6.091-1.209c-2.229-0.201-4.47-0.32-6.69-0.53c-2.219-1.04-4.699-1.061-7.1-1.14
	c-0.66-0.32-1.97-0.961-2.62-1.281c0.05-1.079,0.11-2.159,0.17-3.239c4.86-0.17,9.81,0.39,14.5,1.62c2.529,0.4,5.35-0.131,7.539,1.5
	c-1.14-2.391-0.99-5.09-1.41-7.641c-1.379-3.92-0.799-8.25-2.22-12.199c-0.34-3.01-0.61-6.041-0.409-9.08
	c-10.521,0.59-21.21-1.61-30.761-6c-3.41-0.461-6.56-1.851-9.74-3.07c-2.38,2.141-3.74,5.16-5.84,7.561
	c-1.94,2.58-4.69,4.35-7.38,6.049c-0.54,0.031-1.62,0.091-2.16,0.121c-0.6,0.89-1.2,1.8-1.8,2.709c-3.65-0.06-7.3-0.09-10.95,0.011
	c-2.55-0.96-4.66-2.74-6.06-5.06c-0.39-1.11-0.83-2.201-1.31-3.281c-0.06-1.56-0.09-3.129-0.11-4.689c2.34-2.32,4.18-5.04,6-7.77
	c1.66-1.69,3.68-3.01,5.46-4.58c1.72-0.9,3.35-1.971,4.97-3.04c1.03-0.57,2.05-1.16,3.06-1.75c-2.66-2.7-5.36-5.37-8.19-7.89
	c-9.58-9.48-13.62-22.781-16.47-35.601C2.59,100.05-0.1,94.25,0.3,88.01c0.28-10.77-1.01-21.89,2.61-32.26
	c0.43-7.76,3.1-15.16,6.46-22.1c1.14-2.63,1.86-5.41,2.84-8.09c2.91-5.34,7.45-9.52,12.12-13.29c3.26-2.56,6.72-5.13,10.82-6.09
	c7.43-0.44,14.89,0.13,22.25,1.07c-0.1,1.27-0.22,2.55-0.34,3.82c-6.68,0.82-13.31-0.9-19.98-0.35c-3.03,0.67-5.85,2.16-8.29,4.07
	c-4.61,3.68-9.48,7.44-12.21,12.81c-3.47,9.61-8.46,18.85-9.17,29.23c-3.5,10.39-2.29,21.46-2.54,32.22
	c-0.26,3.79,1.31,7.3,2.25,10.88c1.67,5.72,2.36,11.73,4.69,17.25c0.75,1.62,1.15,3.37,1.45,5.13c2.1,3.959,3.83,8.17,6.64,11.709
	c3.48,5.011,8.84,8.25,12.58,13.041c3.2-2.73,6.61-5.201,10-7.681c2.38-1.64,4.53-3.59,6.65-5.54c-1.89-0.439-3.78-0.82-5.68-1.17
	c0.46-2.59,3.09-1.68,4.95-1.64c1.84,1.34,4.03,1.979,6.18,2.6c0.95-0.89,1.89-1.78,2.84-2.66c0.74-0.01,2.23-0.05,2.97-0.069
	c-0.92,1.109-1.86,2.22-2.78,3.33c1.16-0.261,2.33-0.521,3.5-0.791c1.04,1.391,2.73,1.44,4.31,1.601c3.33-1.95,6.21-4.89,6.85-8.84
	c0.51-0.31,1.53-0.931,2.041-1.24c0.09,1.14,0.18,2.28,0.27,3.431c-1.49,2.399-2.641,5.219-5.13,6.789
	c-2.3,1.851-5.36,1.881-8.16,1.891c-1.11,2.229-2.35,4.39-3.57,6.55c-3.38,5.18-6.92,10.29-9.63,15.87
	c3.29,1.47,6.92,1.93,10.15,3.54c5.3,2.47,11.13,3.25,16.81,4.36c5.771,0.799,11.729,0.64,17.32-1.121
	c7.46-1.529,15.38-4.699,19.21-11.75c2.029-4.68,4.01-9.41,5.49-14.3c4.13-9.93,8.06-20.08,9.81-30.74
	c2.25-10.34,2.351-21.01,2.17-31.56c-1.21-4.93-2.09-9.94-3.35-14.87c-2.45-10.13-8.421-18.87-14.65-27.05
	c-5.149-6.5-10.979-12.93-18.63-16.46c-3.561-2.31-7.359-4.2-11.02-6.35c-4.51-1.43-9.15-2.36-13.84-2.91
	C61.86,8.3,56.02,6.74,50.4,4.57 M51.73,135.25c-6.81,4.2-12.47,10.15-19.45,14.15c-2.53,1.819-5.36,3.209-7.67,5.33
	c-2.01,1.25-4.54,2.069-5.79,4.189c0.7,0.11,2.11,0.311,2.82,0.42c3.02,1.84,4.53,5.09,6.09,8.11c0.18,1.08,0.58,2.09,1.19,3
	c0.08,1.67,0.09,3.33,0.1,5c1.21-0.58,2.41-1.17,3.64-1.681c2.18-1.189,3.79-3.1,5.08-5.18c1.58-2.6,4.14-4.449,5.61-7.13
	c1.07-1.3,2.08-2.66,2.95-4.11c1.65-2.09,3.19-4.3,3.94-6.89c1.18-1.229,2.2-2.601,3.05-4.069c1.49-2.261,2.85-4.591,4.47-6.761
	c0.46-1.1,0.93-2.21,1.38-3.31c-2.54-0.061-5.09-0.381-7.62,0.08C51.58,136.12,51.68,135.54,51.73,135.25 M15.76,160.96l0.37,1.57
	l-1.05-0.921c-0.89,1.69-1.86,3.341-2.99,4.891l0.03,0.02c-2.41,2.681-0.46,5.78,1.12,8.23c3.72,3.55,8.96,3.51,13.76,3.25
	c0.05-3.27,0.28-6.641-1.2-9.66c-0.28-0.49-0.82-1.47-1.1-1.97c-0.22-0.5-0.67-1.5-0.9-2c-0.95-1.19-2-2.3-3.1-3.351
	C19.06,160.859,17.4,160.74,15.76,160.96z"/>
<path d="M83.51,48.42c1.99-4.13,7.25-4.14,11.18-3.76c2.351,0.13,5.17,3.06,3.121,5.21c-1.44,1.3-2.84,0.17-4.131-0.67
	c-1.76,0.13-3.74-0.2-5.279,0.85c-1.851,2.11-3.351,4.51-4.621,7.01c-1.6,0.51-3.579-0.06-3.869-1.92
	C79.641,52.34,82.5,50.78,83.51,48.42z"/>
<path fill="#010101" d="M30.94,66.4c3.15-3.53,5.4-8.31,10.02-10.18c4.18-0.17,8.39-0.22,12.56,0.04c1.85,0.45,1.54,2.33,1.68,3.79
	c-4.14,1.55-8.69-0.08-12.88,1.04c-3.05,2.12-5.81,5.14-7.07,8.69c-0.19,2.55-2.76,1.84-4.3,1.18
	C30.92,69.44,30.91,67.92,30.94,66.4z"/>
<path fill="#FFFFFF" d="M51.73,135.25c-0.05,0.29-0.15,0.87-0.21,1.15c2.53-0.461,5.08-0.141,7.62-0.08
	c-0.45,1.1-0.92,2.21-1.38,3.31c-1.62,2.17-2.98,4.5-4.47,6.761c-0.85,1.469-1.87,2.84-3.05,4.069c-0.75,2.59-2.29,4.8-3.94,6.89
	c-0.87,1.45-1.88,2.811-2.95,4.11c-1.47,2.681-4.03,4.53-5.61,7.13c-1.29,2.08-2.9,3.99-5.08,5.18
	c-1.23,0.511-2.43,1.101-3.64,1.681c-0.01-1.67-0.02-3.33-0.1-5c-0.61-0.91-1.01-1.92-1.19-3c-1.56-3.021-3.07-6.271-6.09-8.11
	c-0.71-0.109-2.12-0.31-2.82-0.42c1.25-2.12,3.78-2.939,5.79-4.189c2.31-2.121,5.14-3.511,7.67-5.33
	C39.26,145.4,44.92,139.45,51.73,135.25z"/>
<path fill="#FEFEF9" d="M15.76,160.96c1.64-0.22,3.3-0.101,4.94,0.06c1.1,1.051,2.15,2.16,3.1,3.351c0.23,0.5,0.68,1.5,0.9,2
	c0.28,0.5,0.82,1.479,1.1,1.97c1.48,3.02,1.25,6.391,1.2,9.66c-4.8,0.26-10.04,0.3-13.76-3.25c-1.58-2.45-3.53-5.55-1.12-8.23
	c1.02,0.891,2.04,1.78,3.07,2.681c-1.09,0.739-2.19,1.45-3.31,2.13c1.16,1.24,2.33,2.5,3.48,3.76c0.34-0.18,1.02-0.54,1.35-0.72
	c0.91,0.239,2.73,0.71,3.64,0.95c-0.49-0.73-1.49-2.18-1.98-2.91c1.22,1,2.46,1.96,3.73,2.9c0.24,0.109,0.71,0.35,0.95,0.459
	c1.25-0.18,2.5-0.379,3.75-0.6c0.08-3.93-2.42-6.97-4.97-9.65c-0.49-2.22-2.03-4.52-4.7-4c0.36,0.791,1.08,2.371,1.45,3.15
	c-0.82-0.71-1.64-1.42-2.45-2.14L15.76,160.96z"/>
<path fill="#BF4A4D" d="M12.09,166.5c1.13-1.55,2.1-3.2,2.99-4.891l1.05,0.921c0.81,0.72,1.63,1.43,2.45,2.14
	c0.16,0.16,0.5,0.46,0.66,0.62c-0.69,0.68-2.06,2.05-2.75,2.74c-0.17,0.159-0.52,0.489-0.69,0.649l-0.61,0.521
	c-1.03-0.9-2.05-1.79-3.07-2.681L12.09,166.5 M15.14,164.04c-2.03,0.899,0.45,3.16,1.83,2.351
	C17.64,165.35,16.26,163.85,15.14,164.04z"/>
<path fill="#1ECB08" d="M17.13,161.52c2.67-0.52,4.21,1.78,4.7,4c2.55,2.681,5.05,5.721,4.97,9.65c-1.25,0.221-2.5,0.42-3.75,0.6
	c-0.24-0.109-0.71-0.35-0.95-0.459c0.57-1.431,1.75-2.75,1.57-4.371c-0.78-2.34-2.67-4.029-4.43-5.649
	c-0.16-0.16-0.5-0.46-0.66-0.62C18.21,163.891,17.49,162.311,17.13,161.52z"/>
<path fill="#FBD1D0" d="M15.14,164.04c1.12-0.19,2.5,1.31,1.83,2.351C15.59,167.2,13.11,164.939,15.14,164.04z"/>
<path fill="#F21B23" d="M19.24,165.29c1.76,1.62,3.65,3.31,4.43,5.649c0.18,1.621-1,2.94-1.57,4.371c-1.27-0.94-2.51-1.9-3.73-2.9
	c0.49,0.73,1.49,2.18,1.98,2.91c-0.91-0.24-2.73-0.711-3.64-0.95c-0.33,0.18-1.01,0.54-1.35,0.72c-1.15-1.26-2.32-2.52-3.48-3.76
	c1.12-0.68,2.22-1.391,3.31-2.13l0.61-0.521c0.97,1.15,2.29,2.92,4,2.461c-0.05-1.671-2.05-2.4-3.31-3.11
	C17.18,167.34,18.55,165.97,19.24,165.29z"/>
<path fill="#EF6762" d="M15.8,168.68c0.17-0.16,0.52-0.49,0.69-0.649c1.26,0.71,3.26,1.439,3.31,3.11
	C18.09,171.6,16.77,169.83,15.8,168.68z"/>
</svg>
