<?xml version="1.0" encoding="utf-8"?>
<!-- Generator: Adobe Illustrator 15.0.2, SVG Export Plug-In . SVG Version: 6.00 Build 0)  -->
<!DOCTYPE svg PUBLIC "-//W3C//DTD SVG 1.1//EN" "http://www.w3.org/Graphics/SVG/1.1/DTD/svg11.dtd">
<svg version="1.1" id="Layer_1" xmlns="http://www.w3.org/2000/svg" xmlns:xlink="http://www.w3.org/1999/xlink" x="0px" y="0px"
	 width="139px" height="87px" viewBox="0 0 139 87" enable-background="new 0 0 139 87" xml:space="preserve">
<path fill="#FFFFFF" d="M0,0h25.43c-0.52,0.61-1.58,1.84-2.11,2.45c0.87-0.33,2.61-1,3.48-1.33C29.67,1,32.63,1.19,35.33,0H43
	l-0.02,1C42.49,1,41.49,1,41,1l-0.01,0.79c1.8,0.47,4.8-0.56,4.65,2.65c-0.82-0.48-1.63-0.97-2.45-1.46
	c-1.44-0.02-2.88-0.06-4.31-0.12c-2.66-1.29-5.75-1.06-8.51-0.25c-0.44,0.14-1.31,0.44-1.75,0.59C27.28,4.34,25.73,5.16,24,5.51
	l-0.03,0.86c2.91-0.19,5.33-1.82,7.68-3.38c1.54,0.04,3.07,0.1,4.61,0.2c3.08,0.91,6.32,1.03,9.42,1.88
	c2.08,2.12,3.81,4.53,5.8,6.73c-0.47-2.23-2.15-4.17-1.99-6.52c-1.11-0.69-2.2-1.4-3.29-2.12c1.6-0.08,3.2-0.14,4.8-0.18l0.04-0.83
	c-1.74-0.14-3.49-0.27-5.21-0.58C45.14,1.18,43.76,0.39,43.07,0H139v72.63c-0.5-0.56-1.5-1.66-2-2.21c0-1.82,0-3.63,0-5.439
	L135.96,65c0.03,2.21-0.08,4.43,0.181,6.62c0.92,0.8,1.869,1.56,2.859,2.271V87h-37.91c-1.22-2.09-4.811-1.48-6.359,0H0V57.59
	c0.97-1.07,1.99-2.1,3-3.13c0-1.81,0-3.63,0-5.45l-1-0.04c0,1.48,0,2.95,0,4.431c-0.5,0.58-1.5,1.75-2,2.33V0 M31.35,5.78
	c-0.43,0.11-1.29,0.34-1.73,0.46c-1.75,0.66-3.64,0.86-5.35,1.63c-1.1,0.07-2.2,0.14-3.29,0.19c0.03,2.48-0.16,4.99,0.47,7.41
	c1.05,1.57,2.31,3.04,4.05,3.85c1.4,0.65,2.77,1.35,4.12,2.09c3.98,1.23,8.27,0.33,12.37,0.61c2.86,0.45,4.88-2.02,6.98-3.5
	c0.11-2.01,0.14-4.03-0.06-6.03c-2.37-2.55-4.84-5.03-7.4-7.4C38.16,5.12,34.5,4.31,31.35,5.78 M14,8.15v0.9
	c1.51-0.03,3.04,0.02,4.55-0.12c1.14-0.99,2.11-2.18,3.03-3.38C18.9,6.25,17.03,8.74,14,8.15 M50.63,6.13l0.01,0.74
	c0.43,0,1.31,0,1.75,0l-0.01-0.74C51.94,6.13,51.07,6.13,50.63,6.13 M13.99,12.49c1.62-0.47,3.22,0.4,4.81,0.38
	C19.2,10.53,13.47,9.86,13.99,12.49 M100.359,11.74c-2.34-0.09-4.08,1.33-5.869,2.61c-0.631,0.24-1.881,0.72-2.5,0.96l0.029,0.96
	c3.49-0.21,5.681-3.81,9.351-3.53c2.05-1.14,4.46-0.64,6.7-0.771c2.199,0.13,4.6-0.41,6.58,0.82c0.43,0.1,1.3,0.29,1.729,0.39
	c1.341,0.58,2.74,1,4.101,1.55c1.26,0.46,2.479,1.03,3.789,1.35c-1.199-1.9-2.959-3.33-4.77-4.61c-3.76-0.9-7.67-0.32-11.49-0.479
	C105.46,11.14,102.721,10.5,100.359,11.74 M14.94,13.71c0.02,0.45,0.05,1.34,0.06,1.78c2.07,0.96,3.64,2.65,5.48,3.95
	c0.79,0.21,2.38,0.62,3.17,0.82C21.01,17.76,18.01,15.65,14.94,13.71 M100.359,14.74c-2.399-0.12-4.149,1.38-5.949,2.72
	c-1.131,0.3-2.27,0.55-3.41,0.76c-0.01,0.54-0.02,1.62-0.02,2.16c0.33-0.28,1.01-0.84,1.35-1.12c1.3-0.2,2.55-0.64,3.75-1.19
	c-0.16,0.5-0.48,1.51-0.641,2.01c-1.379-0.27-3.43,0.21-3.439,1.95c-1.01,6.189,5.24,12.35,11.311,12.15
	c4.439,1.74,9.51,0.5,14.209,0.76c4.08-2.4,2.78-8.02,0.84-11.47c-1.449-2.439-3.6-4.36-5.869-6.02
	c-4.301-0.48-9.18-1.31-13.221,0.47c-0.709,0.02-2.14,0.06-2.85,0.08c1.49-2.22,4.2-1.84,6.33-2.9c2.93-0.04,5.99-0.51,8.83,0.48
	c3.49,1.54,6.98,3.63,9.48,6.55l0.739-0.33c0.56,1.06,1.101,2.12,1.61,3.21l0.59,0.01c0-0.63,0-1.89,0-2.52
	c-0.42-0.22-1.25-0.67-1.67-0.89c-2.57-3.09-6.01-5.52-9.74-7.04C108.65,13.74,104.2,13.42,100.359,14.74 M16.21,19.74
	c2.54,2.5,6.26,2.95,9.29,4.67c4.69,1.28,9.68,0.29,14.49,0.59l0.02-1c-4.5-0.25-9.14,0.6-13.55-0.55
	C23.04,22.23,19.85,20.31,16.21,19.74 M64.05,21c-0.1,2.19,0.21,4.48-0.66,6.56c-0.48,1.39-1.07,2.74-1.67,4.08
	c-0.27,0.59-0.81,1.77-1.09,2.36c-0.52,0-1.58,0-2.11,0c-1.05,2.2-2.99,3.8-4.05,6c-0.61,0-1.85,0-2.47,0c0-1.33,0-2.67,0-4
	c0.5,0,1.5,0,2,0c0-0.48,0-1.45,0-1.93c-0.57-0.05-1.72-0.15-2.3-0.2c-2.04-1.47-4.64-0.71-6.96-0.82
	c-5.36,2.7-12.13-0.8-17.49,1.89c-2.54,0.14-5.11-0.16-7.62,0.23c-1.32,0.9-2.63,1.82-3.99,2.67c-3.88,0.77-7.03,3.23-9.03,6.62
	c-0.23,0.64-0.67,1.91-0.89,2.55C5.29,47.01,4.43,47,4,46.99c0,1.34,0,2.68,0,4.02c0.37,0,1.11-0.01,1.48-0.01
	c2.93-4.35,5.82-9.46,11.09-11.27c0.95-0.5,1.9-1,2.84-1.52c2.96-1.9,6.54-1.03,9.84-1.27c4.6-2.1,10.06-0.36,15.01-0.99
	c1.19-1.11,2.77-1.09,4.26-0.94c2.52,1.48,1.16,4.64,1.5,6.99c1.25,0,2.51,0,3.76,0c-0.16,2.109,1.05,3.73,2.67,4.939
	c4.03-0.17,8.39,0.851,12.2-0.72c0.43-0.11,1.27-0.319,1.7-0.42c1.61-1.09,3.91-1.26,5.4,0.17c2.01-0.27,5.12,1.05,6.07-1.5
	c0.119-0.689,0.369-2.06,0.49-2.75c1.09,0.28,2.18,0.6,3.25,0.95c1,0.32,2,0.66,2.989,1.03c1.011,0.3,2.011,0.64,3,1
	c0.94,0.28,1.88,0.58,2.81,0.909C95.45,46.2,96.54,46.79,97.63,47.38c0.931,0.34,1.86,0.66,2.8,0.96
	c3.771,1.35,7.9,0.34,11.82,0.721c3.71,2.33,8.51-0.311,12.38,1.659c2.62-0.05,4.431,1.931,6.79,2.7c1.33,0.35,2.68,0.63,4.051,0.82
	c-0.281-0.631-0.841-1.891-1.121-2.521c-2.949-0.989-5.359-3.31-8.67-2.899c-3.359-1.67-7.31-0.45-10.93-0.881
	c-4.04-2.299-9.061,0.19-13.32-1.539c-2.1-0.711-4.08-1.7-6.05-2.7c-1.739-0.63-3.47-1.26-5.11-2.1c-1.189-0.4-2.42-0.63-3.64-0.89
	c-2.149-1.08-4.62-0.61-6.93-0.79c-0.771-0.35-2.32-1.03-3.101-1.37c0.17,2.02,1.51,3.39,3.41,3.89c-0.01,0.44-0.02,1.34-0.02,1.78
	c-2.391,0.21-4.051-1.27-4.57-3.53c-1.939,0.3-3.37,1.68-4.96,2.69c-0.96,0.34-1.92,0.66-2.89,0.96c-3.19,1.221-6.73,0.57-10.06,0.6
	c-2.04-0.819-1.58-2.87-1.02-4.5c0.84-1.34,2-2.39,3.51-2.92c0-0.26,0-0.79,0-1.05c1.54-0.51,2.74-1.52,3.37-3.02
	c0.24-0.51,0.73-1.54,0.97-2.05c0.36-0.93,0.7-1.88,1.01-2.83c1.06-2.38,0.55-5.05,0.67-7.57C65.52,21,64.54,21,64.05,21 M12,24v1
	c3.33,0,6.67,0,10,0v-1C18.67,24,15.33,24,12,24 M17.29,27.85c-2.39-0.12-4.8,0.04-5.88,2.57c0.82-0.31,2.45-0.93,3.27-1.24
	c1.71-0.21,3.56,0.01,5.05-1.05c1.14-0.04,2.27-0.09,3.41-0.15C30.6,26.19,38.38,27.31,46,27v-1c-6.75,0-13.51,0-20.27,0
	C23.37,28.18,19.79,25.92,17.29,27.85 M120.63,25.4c0.49,3.32,3.58,5.61,6.37,7.1l0.029,0.5c-1.68,0-3.35,0-5.029,0v0.98
	c1.67,0,3.35-0.05,5.02,0.06c1.48,0.81,2.76,1.99,4.41,2.5C129.05,31.71,124.24,29.17,120.63,25.4 M90.62,28.4
	c0.45,3.75,4.25,5.56,6.95,7.6c-0.65,0-1.95,0-2.6,0L95,36.51c1.58,0.82,3.01,1.88,4.52,2.81c3.561,3.06,8.48,0.41,12.211,2.62
	c3.149,0.14,6.42,0.39,9.299-1.18l-0.079-1.05c-1.3,0.23-2.54,0.64-3.72,1.22c-1.49,0.04-2.98,0.05-4.48,0.03
	c-3.73-2.21-8.63,0.35-12.26-2.58c-1.19-0.69-2.221-1.62-3.051-2.72c2.48,0.52,4.57,2.05,6.99,2.76c4.041,1.18,8.35,0.34,12.5,0.58
	c0.051-0.52,0.131-1.56,0.18-2.09c-3.069,2.03-6.939,0.82-10.379,0.99c-2.07-0.8-4.211-1.39-6.301-2.14
	C96.38,34.42,93.74,31.1,90.62,28.4 M129.2,31.74c1.19,0.64,2.38,0.65,3.579,0.02C132.88,30.36,129.17,30.35,129.2,31.74
	 M121.3,35.87c-0.579,0.05-1.729,0.15-2.3,0.21v1.07c1.609-0.18,3.35-0.04,4.75-1.05c1.08-0.05,2.16-0.11,3.25-0.15v-1.01
	C125.08,35.09,122.971,34.64,121.3,35.87 M13.53,45.46c-2.72,1.79-6.52,4.851-3.61,8.271C9.96,54.82,10,55.91,10.04,57
	c0.5,0,1.5,0,2,0c-0.04-1.42-0.07-2.84-0.13-4.27c-0.34-0.811-1.02-2.45-1.36-3.271c1.92,1.5,3.61,3.37,5.94,4.26
	c1.79,1.03,3.24,2.54,5.03,3.57c3.64,1.62,6.46,4.51,9.84,6.55c2.11,0.79,4.25,1.5,6.29,2.471c0.93,0.369,1.86,0.72,2.8,1.039
	c1.71,0.53,3.48,0.791,5.17,1.351c1.36,0.29,2.73,0.52,4.03,1.05c0.42,0.12,1.28,0.38,1.7,0.51c2.03,0.99,4.47,0.4,6.4,1.66
	c14.439,0.2,28.87,0,43.3,0.1c1.88-0.05,3.86,0.2,5.591-0.729c1.34-0.28,2.699-0.53,4-0.99c1.35-0.29,2.719-0.53,4-1.05
	c0.439-0.12,1.299-0.38,1.739-0.51c3.45-0.46,6.19-2.46,9.181-4.061c0.5-0.229,1.479-0.71,1.969-0.949
	c1.451-0.73,2.921-1.45,4.41-2.101c0.031,1.46,0.061,2.91,0.08,4.37c0.49,0,1.48,0,1.98,0c-0.029-2.85,0.12-5.7-0.061-8.54
	c-0.979-1.17-2.209-2.101-3.469-2.97c-1.281-0.311-2.58-0.5-3.871-0.71c-0.76-0.29-2.27-0.88-3.02-1.171
	c0.12,2.801,2.609,3.561,4.939,4.011c1.051,0.67,2.041,1.44,3.021,2.22c-2.75-0.34-5,0.77-7.04,2.46c-0.99,0.47-1.99,0.931-2.98,1.4
	c-2.08,1.729-4.539,2.489-7.14,3c-1.36,0.29-2.739,0.52-4.03,1.05c-0.42,0.12-1.279,0.38-1.699,0.5c-1.291,0.53-2.66,0.75-4.01,1.04
	c-1.74,0.95-3.761,0.67-5.66,0.729c-13.07-0.1-26.15,0.101-39.221-0.1c-1.93-1.26-4.37-0.67-6.4-1.66c-0.43-0.13-1.3-0.39-1.73-0.51
	c-1.71-0.63-3.53-0.87-5.24-1.47c-1.33-0.271-2.66-0.5-3.95-0.91c-0.94-0.33-1.86-0.681-2.77-1.06c-1.65-0.78-3.38-1.391-5.1-1.971
	c-4.07-1.74-6.97-5.3-11.04-7.05c-2.8-2.19-6.42-3.74-8.04-7.08c0.63-0.069,1.89-0.2,2.52-0.271c-0.01-0.529-0.02-1.58-0.03-2.1
	C16.49,45,14.99,45.13,13.53,45.46 M57.3,55.939c1.5-1.26,0.76-4.93,0.4-6.89C56.2,50.32,56.94,53.98,57.3,55.939 M64,50.01
	c0,2.66,0,5.33,0,7.99h1c0-2.67,0-5.34,0-8.01L64,50.01 M8,55c0.29,2.95-1.19,6.83,2.08,8.55c-1.44-2.64-1.06-5.67-1.1-8.55H8
	 M3.29,58.07c-0.37,1.63-1.08,4.99,0.42,5.859C4.08,62.3,4.79,58.939,3.29,58.07 M131.029,68c-0.029,1.76-0.049,3.52-0.109,5.28
	c-0.34,0.829-1.029,2.47-1.37,3.29c3.729-1.461,2.181-5.521,2.45-8.57H131.029 M30.05,69.24c-0.42,1.75,1.96,4.13,3.72,3.699
	C33.58,71.45,31.55,69.42,30.05,69.24 M37.09,70.6c-0.03,0.84-0.09,2.53-0.13,3.381c2.48,0.069,5.03-0.25,7.43,0.52
	c1.85,1.46,3.84,2.68,6.16,3.22c1.04,0.311,2.06,0.66,3.07,1.061c0.43,0.12,1.3,0.35,1.73,0.46c1.29,0.529,2.66,0.77,4.01,1.07
	c2.06,0.859,4.46,0.39,6.39,1.609c6.43,0.18,12.859,0.02,19.29,0.1c1.59-0.039,3.319,0.19,4.66-0.899
	c0.579-0.04,1.729-0.14,2.31-0.19c-0.01-0.52-0.02-1.56-0.029-2.07c-1.61,0.171-3.36-0.01-4.73,1.07
	c-5.74,0.15-11.48,0.03-17.21,0.09c-1.61-0.029-3.33,0.15-4.73-0.83c-1.67-0.189-3.4-0.17-4.95-0.899
	c-1.32-0.28-2.64-0.521-3.92-0.931c-1.01-0.34-2-0.699-2.99-1.079c-1.01-0.29-2.02-0.601-3.01-0.94c-1.99-0.35-3.45-1.76-5.06-2.85
	c-1.86-0.57-3.82-0.49-5.74-0.58C39.01,71.58,37.73,70.93,37.09,70.6 M27.4,72.6c1.16,1.53,2.54,2.87,4.12,3.961
	c4.1,0.859,8.33,0.289,12.48,0.43v-1c-3.79-0.16-7.68,0.49-11.39-0.48C30.94,74.4,29.49,72.84,27.4,72.6 M134.279,74.109
	c-0.449,1.281-1.029,4.25,0.441,4.781C135.17,77.6,135.75,74.641,134.279,74.109 M95.48,81c-1.74,2.58-4.42,3.72-7.5,3.04
	l0.029,0.99c1.43,0.02,2.86,0.01,4.29-0.03c2.22-0.59,3.63-2.62,5.69-3.53L98.029,81C97.4,81,96.12,81,95.48,81z"/>
<path d="M25.43,0h9.9c-2.7,1.19-5.66,1-8.53,1.12c-0.87,0.33-2.61,1-3.48,1.33C23.85,1.84,24.91,0.61,25.43,0z"/>
<path d="M43,0h0.07c0.69,0.39,2.07,1.18,2.76,1.57c1.72,0.31,3.47,0.44,5.21,0.58L51,2.98c-1.6,0.04-3.2,0.1-4.8,0.18
	c1.09,0.72,2.18,1.43,3.29,2.12c-0.16,2.35,1.52,4.29,1.99,6.52c-1.99-2.2-3.72-4.61-5.8-6.73c-3.1-0.85-6.34-0.97-9.42-1.88
	c-1.54-0.1-3.07-0.16-4.61-0.2c-2.35,1.56-4.77,3.19-7.68,3.38L24,5.51c1.73-0.35,3.28-1.17,4.62-2.31
	c0.44-0.15,1.31-0.45,1.75-0.59c2.76-0.81,5.85-1.04,8.51,0.25c1.43,0.06,2.87,0.1,4.31,0.12c0.82,0.49,1.63,0.98,2.45,1.46
	c0.15-3.21-2.85-2.18-4.65-2.65L41,1c0.49,0,1.49,0,1.98,0L43,0z"/>
<path d="M31.35,5.78c3.15-1.47,6.81-0.66,10.16-0.69c2.56,2.37,5.03,4.85,7.4,7.4c0.2,2,0.17,4.02,0.06,6.03
	c-2.1,1.48-4.12,3.95-6.98,3.5c-4.1-0.28-8.39,0.62-12.37-0.61c-1.35-0.74-2.72-1.44-4.12-2.09c-1.74-0.81-3-2.28-4.05-3.85
	c-0.63-2.42-0.44-4.93-0.47-7.41c1.09-0.05,2.19-0.12,3.29-0.19c1.71-0.77,3.6-0.97,5.35-1.63C30.06,6.12,30.92,5.89,31.35,5.78
	 M32.36,7.78c-0.43,0.12-1.3,0.34-1.73,0.46c-1.74,0.65-3.61,0.87-5.33,1.59c-0.61,0.07-1.85,0.22-2.47,0.29
	c0.17,1.49,0.31,2.98,0.65,4.43c0.91,1.5,2.34,2.51,3.92,3.21c1.11,0.521,2.18,1.09,3.26,1.67c3.83,0.96,8.09,0.93,11.92-0.03
	c2.75-0.47,5.65-2.96,3.94-5.9c-1.64-2.34-3.7-4.39-6.03-6.04C37.85,6.92,34.83,6.41,32.36,7.78z"/>
<path d="M14,8.15c3.03,0.59,4.9-1.9,7.58-2.6c-0.92,1.2-1.89,2.39-3.03,3.38C17.04,9.07,15.51,9.02,14,9.05V8.15z"/>
<path d="M50.63,6.13c0.44,0,1.31,0,1.75,0l0.01,0.74c-0.44,0-1.32,0-1.75,0L50.63,6.13z"/>
<path fill="#FFFFFF" d="M32.36,7.78c2.47-1.37,5.49-0.86,8.13-0.32c2.33,1.65,4.39,3.7,6.03,6.04c1.71,2.94-1.19,5.43-3.94,5.9
	c-3.83,0.96-8.09,0.99-11.92,0.03c-1.08-0.58-2.15-1.15-3.26-1.67c-1.58-0.7-3.01-1.71-3.92-3.21c-0.34-1.45-0.48-2.94-0.65-4.43
	c0.62-0.07,1.86-0.22,2.47-0.29c1.72-0.72,3.59-0.94,5.33-1.59C31.06,8.12,31.93,7.9,32.36,7.78 M30.17,13.16
	c-0.53,1.62,0.02,2.19,1.66,1.68C32.36,13.22,31.81,12.65,30.17,13.16z"/>
<path d="M13.99,12.49c-0.52-2.63,5.21-1.96,4.81,0.38C17.21,12.89,15.61,12.02,13.99,12.49z"/>
<path d="M100.359,11.74c2.361-1.24,5.101-0.6,7.65-0.75c3.82,0.16,7.73-0.42,11.49,0.479c1.811,1.28,3.57,2.71,4.77,4.61
	c-1.31-0.32-2.529-0.89-3.789-1.35c-1.36-0.55-2.76-0.97-4.101-1.55c-0.43-0.1-1.3-0.29-1.729-0.39c-1.98-1.23-4.381-0.69-6.58-0.82
	c-2.24,0.13-4.65-0.37-6.7,0.771c-3.67-0.28-5.86,3.32-9.351,3.53l-0.029-0.96c0.619-0.24,1.869-0.72,2.5-0.96
	C96.279,13.07,98.02,11.65,100.359,11.74z"/>
<path d="M30.17,13.16c1.64-0.51,2.19,0.06,1.66,1.68C30.19,15.35,29.64,14.78,30.17,13.16z"/>
<path d="M14.94,13.71c3.07,1.94,6.07,4.05,8.71,6.55c-0.79-0.2-2.38-0.61-3.17-0.82c-1.84-1.3-3.41-2.99-5.48-3.95
	C14.99,15.05,14.96,14.16,14.94,13.71z"/>
<path fill="#020202" d="M100.359,14.74c3.841-1.32,8.291-1,12.23-0.17c3.73,1.52,7.17,3.95,9.74,7.04c0.42,0.22,1.25,0.67,1.67,0.89
	c0,0.63,0,1.89,0,2.52l-0.59-0.01c-0.51-1.09-1.051-2.15-1.61-3.21l-0.739,0.33c-2.5-2.92-5.99-5.01-9.48-6.55
	c-2.84-0.99-5.9-0.52-8.83-0.48c-2.13,1.06-4.84,0.68-6.33,2.9c0.71-0.02,2.141-0.06,2.85-0.08c4.041-1.78,8.92-0.95,13.221-0.47
	c2.27,1.66,4.42,3.58,5.869,6.02c1.94,3.45,3.24,9.07-0.84,11.47c-4.699-0.26-9.77,0.98-14.209-0.76
	C97.24,34.38,90.99,28.22,92,22.03c0.01-1.74,2.061-2.22,3.439-1.95c0.16-0.5,0.48-1.51,0.641-2.01c-1.2,0.55-2.45,0.99-3.75,1.19
	c-0.34,0.28-1.02,0.84-1.35,1.12c0-0.54,0.01-1.62,0.02-2.16c1.141-0.21,2.279-0.46,3.41-0.76
	C96.21,16.12,97.96,14.62,100.359,14.74 M101.67,19.05c-2.699,0.89-4.91,2.94-7.8,3.27c-0.61,4.34,3.8,6.67,6.61,9.13
	c1.76,0.48,3.649,0.56,5.279,1.46c3.59,0.15,7.19,0.07,10.79,0.09c0.38-0.7,1.13-2.09,1.511-2.79c-0.121-1.23-0.261-2.47-0.531-3.69
	c-2.02-2.75-4.52-5.12-7.02-7.43C107.57,18.86,104.62,19.03,101.67,19.05z"/>
<path fill="#FFFFFF" d="M101.67,19.05c2.95-0.02,5.9-0.19,8.84,0.04c2.5,2.31,5,4.68,7.02,7.43c0.271,1.22,0.41,2.46,0.531,3.69
	c-0.381,0.7-1.131,2.09-1.511,2.79c-3.6-0.02-7.2,0.06-10.79-0.09c-1.63-0.9-3.52-0.98-5.279-1.46c-2.811-2.46-7.221-4.79-6.61-9.13
	C96.76,21.99,98.971,19.94,101.67,19.05 M110.17,25.16c-0.529,1.62,0.02,2.19,1.66,1.68C112.359,25.22,111.811,24.65,110.17,25.16z"
	/>
<path d="M16.21,19.74c3.64,0.57,6.83,2.49,10.25,3.71c4.41,1.15,9.05,0.3,13.55,0.55l-0.02,1c-4.81-0.3-9.8,0.69-14.49-0.59
	C22.47,22.69,18.75,22.24,16.21,19.74z"/>
<path d="M64.05,21c0.49,0,1.47,0,1.97,0c-0.12,2.52,0.39,5.19-0.67,7.57c-0.31,0.95-0.65,1.9-1.01,2.83
	c-0.24,0.51-0.73,1.54-0.97,2.05c-0.63,1.5-1.83,2.51-3.37,3.02c0,0.26,0,0.79,0,1.05c-1.51,0.53-2.67,1.58-3.51,2.92
	c-0.56,1.63-1.02,3.68,1.02,4.5c3.33-0.029,6.87,0.621,10.06-0.6c0.97-0.3,1.93-0.62,2.89-0.96c1.59-1.01,3.021-2.39,4.96-2.69
	c0.52,2.26,2.18,3.74,4.57,3.53c0-0.439,0.01-1.34,0.02-1.78c-1.9-0.5-3.24-1.87-3.41-3.89c0.78,0.34,2.33,1.02,3.101,1.37
	c2.31,0.18,4.78-0.29,6.93,0.79c1.22,0.26,2.45,0.49,3.64,0.89c1.641,0.84,3.371,1.47,5.11,2.1c1.97,1,3.95,1.989,6.05,2.7
	c4.26,1.729,9.28-0.76,13.32,1.539c3.62,0.431,7.57-0.789,10.93,0.881c3.311-0.41,5.721,1.91,8.67,2.899
	c0.28,0.63,0.84,1.89,1.121,2.521c-1.371-0.19-2.721-0.471-4.051-0.82c-2.359-0.77-4.17-2.75-6.79-2.7
	c-3.87-1.97-8.67,0.671-12.38-1.659c-3.92-0.381-8.05,0.629-11.82-0.721c-0.939-0.3-1.869-0.62-2.8-0.96
	c-1.09-0.59-2.18-1.18-3.271-1.771c-0.93-0.329-1.869-0.629-2.81-0.909c-0.989-0.36-1.989-0.7-3-1
	c-0.989-0.37-1.989-0.71-2.989-1.03c-1.07-0.35-2.16-0.67-3.25-0.95c-0.121,0.69-0.371,2.061-0.49,2.75
	c-0.95,2.55-4.061,1.23-6.07,1.5c-1.49-1.43-3.79-1.26-5.4-0.17c-0.43,0.101-1.27,0.31-1.7,0.42c-3.81,1.57-8.17,0.55-12.2,0.72
	c-1.62-1.209-2.83-2.83-2.67-4.939c-1.25,0-2.51,0-3.76,0c-0.34-2.35,1.02-5.51-1.5-6.99c-1.49-0.15-3.07-0.17-4.26,0.94
	c-4.95,0.63-10.41-1.11-15.01,0.99c-3.3,0.24-6.88-0.63-9.84,1.27c-0.94,0.52-1.89,1.02-2.84,1.52C11.3,41.54,8.41,46.65,5.48,51
	C5.11,51,4.37,51.01,4,51.01c0-1.34,0-2.68,0-4.02c0.43,0.01,1.29,0.02,1.72,0.02c0.22-0.64,0.66-1.91,0.89-2.55
	c2-3.39,5.15-5.85,9.03-6.62c1.36-0.85,2.67-1.77,3.99-2.67c2.51-0.39,5.08-0.09,7.62-0.23c5.36-2.69,12.13,0.81,17.49-1.89
	c2.32,0.11,4.92-0.65,6.96,0.82c0.58,0.05,1.73,0.15,2.3,0.2c0,0.48,0,1.45,0,1.93c-0.5,0-1.5,0-2,0c0,1.33,0,2.67,0,4
	c0.62,0,1.86,0,2.47,0c1.06-2.2,3-3.8,4.05-6c0.53,0,1.59,0,2.11,0c0.28-0.59,0.82-1.77,1.09-2.36c0.6-1.34,1.19-2.69,1.67-4.08
	C64.26,25.48,63.95,23.19,64.05,21z"/>
<path d="M12,24c3.33,0,6.67,0,10,0v1c-3.33,0-6.67,0-10,0V24z"/>
<path d="M110.17,25.16c1.641-0.51,2.189,0.06,1.66,1.68C110.189,27.35,109.641,26.78,110.17,25.16z"/>
<path fill="#070707" d="M17.29,27.85c2.5-1.93,6.08,0.33,8.44-1.85c6.76,0,13.52,0,20.27,0v1c-7.62,0.31-15.4-0.81-22.86,0.98
	c-1.14,0.06-2.27,0.11-3.41,0.15c-1.49,1.06-3.34,0.84-5.05,1.05c-0.82,0.31-2.45,0.93-3.27,1.24
	C12.49,27.89,14.9,27.73,17.29,27.85z"/>
<path d="M120.63,25.4c3.61,3.77,8.42,6.31,10.8,11.14c-1.65-0.51-2.93-1.69-4.41-2.5c-1.67-0.11-3.35-0.06-5.02-0.06V33
	c1.68,0,3.35,0,5.029,0L127,32.5C124.21,31.01,121.12,28.72,120.63,25.4z"/>
<path d="M90.62,28.4c3.12,2.7,5.76,6.02,9.81,7.36c2.09,0.75,4.23,1.34,6.301,2.14c3.439-0.17,7.31,1.04,10.379-0.99
	c-0.049,0.53-0.129,1.57-0.18,2.09c-4.15-0.24-8.459,0.6-12.5-0.58c-2.42-0.71-4.51-2.24-6.99-2.76c0.83,1.1,1.86,2.03,3.051,2.72
	c3.63,2.93,8.529,0.37,12.26,2.58c1.5,0.02,2.99,0.01,4.48-0.03c1.18-0.58,2.42-0.99,3.72-1.22l0.079,1.05
	c-2.879,1.57-6.149,1.32-9.299,1.18c-3.73-2.21-8.65,0.44-12.211-2.62c-1.51-0.93-2.939-1.99-4.52-2.81L94.971,36
	c0.649,0,1.949,0,2.6,0C94.87,33.96,91.07,32.15,90.62,28.4z"/>
<path d="M129.2,31.74c-0.03-1.39,3.68-1.38,3.579,0.02C131.58,32.39,130.391,32.38,129.2,31.74z"/>
<path d="M121.3,35.87c1.671-1.23,3.78-0.78,5.7-0.93v1.01c-1.09,0.04-2.17,0.1-3.25,0.15c-1.4,1.01-3.141,0.87-4.75,1.05v-1.07
	C119.57,36.02,120.721,35.92,121.3,35.87z"/>
<path d="M13.53,45.46c1.46-0.33,2.96-0.46,4.45-0.62c0.01,0.52,0.02,1.57,0.03,2.1c-0.63,0.07-1.89,0.201-2.52,0.271
	c1.62,3.34,5.24,4.89,8.04,7.08c4.07,1.75,6.97,5.31,11.04,7.05c1.72,0.58,3.45,1.19,5.1,1.971c0.91,0.379,1.83,0.729,2.77,1.06
	c1.29,0.41,2.62,0.64,3.95,0.91c1.71,0.6,3.53,0.84,5.24,1.47c0.43,0.12,1.3,0.38,1.73,0.51c2.03,0.99,4.47,0.4,6.4,1.66
	c13.07,0.2,26.15,0,39.221,0.1c1.899-0.06,3.92,0.221,5.66-0.729c1.35-0.29,2.719-0.51,4.01-1.04c0.42-0.12,1.279-0.38,1.699-0.5
	c1.291-0.53,2.67-0.76,4.03-1.05c2.601-0.511,5.06-1.271,7.14-3c0.99-0.47,1.99-0.931,2.98-1.4c2.04-1.69,4.29-2.8,7.04-2.46
	c-0.979-0.779-1.97-1.55-3.021-2.22c-2.33-0.45-4.819-1.21-4.939-4.011c0.75,0.291,2.26,0.881,3.02,1.171
	c1.291,0.21,2.59,0.399,3.871,0.71c1.26,0.869,2.489,1.8,3.469,2.97c0.181,2.84,0.031,5.69,0.061,8.54c-0.5,0-1.49,0-1.98,0
	c-0.02-1.46-0.049-2.91-0.08-4.37c-1.489,0.65-2.959,1.37-4.41,2.101c-0.489,0.239-1.469,0.72-1.969,0.949
	c-2.99,1.601-5.73,3.601-9.181,4.061c-0.44,0.13-1.3,0.39-1.739,0.51c-1.281,0.52-2.65,0.76-4,1.05c-1.301,0.46-2.66,0.71-4,0.99
	c-1.73,0.93-3.711,0.68-5.591,0.729c-14.43-0.1-28.86,0.101-43.3-0.1c-1.93-1.26-4.37-0.67-6.4-1.66c-0.42-0.13-1.28-0.39-1.7-0.51
	c-1.3-0.53-2.67-0.76-4.03-1.05c-1.69-0.56-3.46-0.82-5.17-1.351c-0.94-0.319-1.87-0.67-2.8-1.039
	c-2.04-0.971-4.18-1.681-6.29-2.471c-3.38-2.04-6.2-4.93-9.84-6.55c-1.79-1.03-3.24-2.54-5.03-3.57c-2.33-0.89-4.02-2.76-5.94-4.26
	c0.34,0.82,1.02,2.46,1.36,3.271c0.06,1.43,0.09,2.85,0.13,4.27c-0.5,0-1.5,0-2,0c-0.04-1.09-0.08-2.18-0.12-3.27
	C7.01,50.311,10.81,47.25,13.53,45.46z"/>
<path d="M2,48.97l1,0.04c0,1.82,0,3.641,0,5.45c-1.01,1.03-2.03,2.06-3,3.13V55.73c0.5-0.58,1.5-1.75,2-2.33
	C2,51.92,2,50.45,2,48.97z"/>
<path d="M57.3,55.939c-0.36-1.959-1.1-5.619,0.4-6.89C58.06,51.01,58.8,54.68,57.3,55.939z"/>
<path d="M64,50.01l1-0.02c0,2.67,0,5.34,0,8.01h-1C64,55.34,64,52.67,64,50.01z"/>
<path d="M8,55h0.98c0.04,2.88-0.34,5.91,1.1,8.55C6.81,61.83,8.29,57.95,8,55z"/>
<path d="M3.29,58.07c1.5,0.869,0.79,4.229,0.42,5.859C2.21,63.061,2.92,59.7,3.29,58.07z"/>
<path d="M135.96,65l1.04-0.02c0,1.81,0,3.619,0,5.439c0.5,0.55,1.5,1.65,2,2.21v1.261c-0.99-0.711-1.939-1.471-2.859-2.271
	C135.88,69.43,135.99,67.21,135.96,65z"/>
<path d="M131.029,68H132c-0.27,3.05,1.279,7.109-2.45,8.57c0.341-0.82,1.03-2.461,1.37-3.29C130.98,71.52,131,69.76,131.029,68z"/>
<path d="M30.05,69.24c1.5,0.18,3.53,2.21,3.72,3.699C32.01,73.37,29.63,70.99,30.05,69.24z"/>
<path d="M37.09,70.6c0.64,0.33,1.92,0.98,2.55,1.311c1.92,0.09,3.88,0.01,5.74,0.58c1.61,1.09,3.07,2.5,5.06,2.85
	c0.99,0.34,2,0.65,3.01,0.94c0.99,0.38,1.98,0.739,2.99,1.079c1.28,0.41,2.6,0.65,3.92,0.931c1.55,0.729,3.28,0.71,4.95,0.899
	c1.4,0.98,3.12,0.801,4.73,0.83c5.729-0.06,11.47,0.061,17.21-0.09c1.37-1.08,3.12-0.899,4.73-1.07
	c0.01,0.511,0.02,1.551,0.029,2.07c-0.58,0.051-1.73,0.15-2.31,0.19c-1.341,1.09-3.07,0.86-4.66,0.899
	c-6.431-0.08-12.86,0.08-19.29-0.1c-1.93-1.22-4.33-0.75-6.39-1.609c-1.35-0.301-2.72-0.541-4.01-1.07
	c-0.43-0.11-1.3-0.34-1.73-0.46c-1.01-0.4-2.03-0.75-3.07-1.061c-2.32-0.54-4.31-1.76-6.16-3.22c-2.4-0.77-4.95-0.45-7.43-0.52
	C37,73.13,37.06,71.439,37.09,70.6z"/>
<path d="M27.4,72.6c2.09,0.24,3.54,1.801,5.21,2.91c3.71,0.971,7.6,0.32,11.39,0.48v1c-4.15-0.141-8.38,0.43-12.48-0.43
	C29.94,75.47,28.56,74.13,27.4,72.6z"/>
<path d="M134.279,74.109c1.471,0.531,0.891,3.49,0.441,4.781C133.25,78.359,133.83,75.391,134.279,74.109z"/>
<path d="M95.48,81c0.64,0,1.92,0,2.549,0l-0.039,0.47C95.93,82.38,94.52,84.41,92.3,85c-1.43,0.04-2.86,0.05-4.29,0.03l-0.029-0.99
	C91.061,84.72,93.74,83.58,95.48,81z"/>
<path d="M94.73,87c1.549-1.48,5.14-2.09,6.359,0H94.73z"/>
</svg>
