<?xml version="1.0" encoding="utf-8"?>
<!-- Generator: Adobe Illustrator 15.0.2, SVG Export Plug-In . SVG Version: 6.00 Build 0)  -->
<!DOCTYPE svg PUBLIC "-//W3C//DTD SVG 1.1//EN" "http://www.w3.org/Graphics/SVG/1.1/DTD/svg11.dtd">
<svg version="1.1" id="Layer_1" xmlns="http://www.w3.org/2000/svg" xmlns:xlink="http://www.w3.org/1999/xlink" x="0px" y="0px"
	 width="169px" height="133px" viewBox="0 0 169 133" enable-background="new 0 0 169 133" xml:space="preserve">
<path fill="#FFFFFF" d="M0,0h100.73l-1.24,0.9c-1.79,0.15-3.59,0.16-5.381,0.24c-3.18,1.29-6.969,0.28-9.689,2.81
	c-2.02,0.1-4.12-0.06-6.04,0.71c-3.39,1.28-7.16,2.88-8.87,6.3c-0.5,0.04-1.49,0.1-1.99,0.14c-4.37,2.82-7.75,6.78-11.5,10.3
	c-0.02,0.51-0.04,1.52-0.05,2.02c-1.02,1.3-1.98,2.65-2.93,4c-0.01,0.55-0.03,1.65-0.05,2.2c-0.91,0.88-1.82,1.77-2.73,2.65
	c-0.3,1.12-0.62,2.22-0.97,3.32c-0.22,1.64-0.43,3.28-0.8,4.89c-0.36,0.49-1.08,1.47-1.44,1.97c0.01,2.3-0.01,4.61-0.15,6.92
	c-0.2,0.43-0.58,1.31-0.77,1.74c-0.27,6.46-0.14,12.94,0.01,19.4c-4.18,1.62-8.09,4.4-12.81,3.631
	C29.24,78.76,22.97,80.96,19.65,86.3c-1.94-0.12-3.87,0.101-5.73,0.65c1.13,1.729,2.34,3.399,3.59,5.04c0-0.5,0.02-1.5,0.02-2.01
	c0.81,0.02,2.44,0.039,3.25,0.05c3.21-1.87,4.61-5.75,8.06-7.24c2.27-1.07,4.13-2.771,5.8-4.61c2.89-0.09,5.95-0.05,8.37-1.88
	c1.12,0.14,2.24,0.28,3.35,0.48l1.86,0.39c-0.44,0.77-0.88,1.54-1.34,2.3c0.06,1.601,0.1,3.19,0.14,4.78
	c1.05-0.82,2.09-1.65,3.14-2.48c-0.06-2.369-0.07-4.81-0.99-7.039l1.66,1c-0.27-0.48-0.81-1.431-1.08-1.91
	c1.26-0.391,2.52-0.82,3.78-1.25c-0.45-0.34-1.33-1.021-1.78-1.36c2.82,1.37,5.67,0.16,8.24-1.14c-1.01,3.41,3.19,1.899,0.65-0.28
	c0.5-0.2,1.51-0.601,2.01-0.8c0.44,0.54,1.3,1.619,1.74,2.16c0.74-0.07,2.24-0.19,2.98-0.25C60.93,74.859,56.8,81.23,51.25,86.18
	c0.6-0.93,0.84-1.949,0.73-3.05c-2.15-1.28-3.59,1.07-5.17,2.15c1.02,1.1,2.01,2.26,2.58,3.67c-1,0.01-3,0.04-4,0.06l-0.03,0.98
	c0.75,0.029,2.26,0.1,3.01,0.14c-2.4,3.79-5.86,6.7-8.72,10.12c-0.38,0-1.14,0-1.52,0c-2.34,2.189-4.55,4.6-5.65,7.68
	c0.63,0.271,1.91,0.811,2.54,1.07c2.65-1.65,4.66-4.1,6.88-6.26c3.27-3.44,7.36-6.061,10.1-10c0.85,1.619,1.07,3.43,1.15,5.229
	c0.45,0.011,1.35,0.05,1.79,0.061c0.05,0.6,0.15,1.8,0.2,2.399c1.65,2.01,3.08,4.211,4.27,6.53c0.4,0.021,1.18,0.06,1.58,0.08
	c0.01,0.61,0.03,1.819,0.04,2.42c2,0.78,3.53,2.24,4.34,4.229c3.73,0.61,6.1,4.121,8.09,7.041c0.98,0.3,1.95,0.609,2.92,0.949
	c1.85,1.23,4.05,1.42,6.22,1.41c1.13,0.67,2.35,1.24,3.32,2.15c0.26,2.58,0.1,5.17,0.1,7.76H0V90.37c1.87,3.3,2.2,7.069,2.11,10.79
	c1.27,0.08,2.54,0.17,3.81,0.24c-1.75,0.05-2.37,0.779-1.86,2.18c2.83,1.09,5.79,1.779,8.67,2.73c1.33,2.59,3.22,4.81,5.42,6.699
	c0.01,1.23,0.01,2.46,0.02,3.69c3.15,3.84,7.43,7.27,12.75,6.37c1.91-1.62,4.02-2.98,6.23-4.141c-0.17-2.189,0.4-6.31-2.97-5.979
	c-0.66,1.18-1.14,2.45-1.63,3.71c-1.72,0.96-3.38,2.34-5.44,2.35c-2-0.71-3.37-2.449-4.86-3.869c-0.26-1.98-0.63-3.94-1.17-5.851
	c-1.19-0.47-2.78-0.36-3.57-1.53c0.26-2.04,1.04-3.96,1.67-5.9c-0.43,0.141-1.27,0.431-1.69,0.57c-2.18-0.71-4.33-0.119-6.12,1.221
	c0.21-0.87,0.42-1.74,0.63-2.601c-1.6-0.05-3.19-0.1-4.79-0.149c-0.63-1.61-1.26-3.211-1.89-4.811c0.86,0.27,1.72,0.551,2.57,0.82
	c0.44-0.87,0.87-1.74,1.31-2.61c-1.66-1.27-3.33-2.5-5.03-3.7c-0.09-2.17-0.15-4.34-0.21-6.5c1.64-0.1,3.27-0.189,4.9-0.289
	c0.2-0.451,0.59-1.33,0.79-1.78c0.08,0.6,0.24,1.8,0.33,2.399c0.88-0.63,1.77-1.25,2.65-1.869c0.83,0.229,1.65,0.459,2.47,0.689
	c0.89-0.891,2.05-1.689,2-3.1c-3.29-2.48-7.46-0.301-11.12-0.141c-2.46-0.02-4.36,1.6-5.98,3.26V0 M54.21,73.48
	c2.62,3.239-1.85,5.709-3.2,8.379c2.11-3.029,5.97-3.869,8.16-6.739c-1.01,1.13-2.23,1.61-3.69,1.08c0.56-0.71,1.7-2.12,2.26-2.83
	h0.04C56.59,73.5,55.4,73.57,54.21,73.48 M52.23,74.311C52.74,74.85,52.74,74.85,52.23,74.311 M41.3,82.21
	c-1.36,2.03-2.96,3.88-4.56,5.71L35.89,88l0.29,1.26c3.33-1.949,4.29-6.4,8.15-7.56l-0.23-0.89C43.16,81.28,42.23,81.74,41.3,82.21
	 M42.63,90.13c1.63,1.87,3.04-2.51,2.94-3.819C43.89,86.24,43.11,88.79,42.63,90.13 M32.42,90.92c0.99,0.79,3.03-0.4,2.51-1.67
	C33.96,88.57,31.96,89.7,32.42,90.92 M29.47,92.061c-1.11,0.209-3.19,1.18-2.46,2.6C28.26,95.41,32.39,91.939,29.47,92.061
	 M38.62,94.17c0.54,1.6,3.14-0.24,3.6-1.3C41.53,91.34,39.32,93.38,38.62,94.17 M35.2,96.32c-0.02,0.59-0.04,1.77-0.05,2.359
	c1.41-0.06,1.81-2.149,2.76-3.039C37.62,94.46,35.6,95.65,35.2,96.32 M20.01,104.16c1.58,1.34,3.26,2.56,4.98,3.689
	C23.59,106.3,21.91,105.04,20.01,104.16 M24.08,109.15C22.65,112.23,27.37,109.22,24.08,109.15z"/>
<path fill="#030303" d="M100.73,0h12.439c1.75,0.75,3.6,1.23,5.41,1.81c0.46,0.11,1.391,0.33,1.85,0.43
	c1.711,0.57,3.48,0.95,5.17,1.58c0.93,0.1,1.86,0.2,2.791,0.29c1.27,1.02,2.649,1.9,4.049,2.75c0.521,0.27,1.58,0.82,2.101,1.1
	c0.59,0.01,1.76,0.02,2.34,0.03c0.47,0.9,0.931,1.81,1.39,2.72c2.76,0.96,4.9,2.96,7.26,4.61c2.271,0.78,4.211,2.34,4.91,4.72
	c0.311-0.01,0.91-0.03,1.211-0.04c0.779,2.01,1.649,4.01,3.199,5.55c0.061,1.02,0.11,2.03,0.17,3.05c0.931,0.9,1.86,1.8,2.78,2.71
	c0.171,1.45,0.29,2.94,0.95,4.28c0.1,0.49,0.29,1.46,0.38,1.95c0.53,0.97,1.07,1.94,1.601,2.91c0.33,1.06,0.689,2.1,1.08,3.14
	c0.109,1.56,0.209,3.11,0.34,4.66c1.84,3.59-0.221,7.89,1.709,11.4c-0.08,6.59,0.82,13.35-0.469,19.84
	c-1.311,3.25-2.58,6.59-2.49,10.15c-0.93,0.899-1.851,1.799-2.771,2.709c-0.14,1.62-0.239,3.291-1.14,4.711
	c-1.59-0.521-2.91-1.591-4.131-2.711c0.531-0.39,1.58-1.189,2.101-1.59c0.021-1.109,0.05-2.22,0.08-3.32
	c1.01-1.119,2.34-2.049,2.989-3.449c0.131-1.69,0.031-3.391-0.02-5.08c0.65-1.28,1.301-2.561,1.95-3.84
	c-0.25-6,0.681-12.12-0.7-18.021c-0.43-2.45-0.25-4.94-0.39-7.41c-1.761-3.2-0.13-7.29-2.71-10.24c-0.1-0.45-0.311-1.36-0.41-1.82
	c-1.01-1.54-0.8-3.41-0.891-5.15c-1.239-1.93-2.539-3.83-3.549-5.89c-0.721-1.1-1.5-2.15-2.291-3.18c0-0.49-0.02-1.48-0.02-1.97
	c-1.12-1.04-2.23-2.08-3.38-3.08c-0.3,0-0.91,0.01-1.22,0.01c-2.84-3.19-6.98-4.8-9.771-8.06c-3.01-0.61-5.28-2.89-8.069-4.07
	c-1.381-0.22-2.75-0.46-4.11-0.79c-1.011-0.38-2.021-0.77-3.021-1.16c-1.14-0.33-2.27-0.67-3.4-1.01
	c-4.319-0.29-8.59-2.04-12.939-0.93c-2.71,0.68-5.52,0.75-8.29,0.66c-0.39,0.25-1.17,0.73-1.55,0.98c-1.6,0.08-3.27,0-4.73,0.77
	C85.2,8.11,81.53,7.92,78.1,8.87c0.41,1.34,0.05,2.66-0.44,3.92c-0.24-1.13-0.51-2.25-0.8-3.37c-1.01,1.23-1.92,2.55-2.44,4.07
	c-0.37-0.56-0.73-1.12-1.1-1.67c-1,1.45-2.24,2.73-3.84,3.49c-3.97,1.88-7.04,5.34-9.32,9.03c-0.46,1.22-0.95,2.44-1.41,3.66
	c-0.35,0-1.06,0-1.41,0.01c-1.12,2.92-2.82,5.58-4.03,8.46c-0.48,2.13-0.25,4.35-0.3,6.51c-0.46,0.02-1.37,0.04-1.83,0.05
	c-2.06,8.49-0.75,17.26-1.24,25.89c-1.25,0.58-2.52,1.1-3.8,1.59c-0.15-6.46-0.28-12.94-0.01-19.4c0.19-0.43,0.57-1.31,0.77-1.74
	c0.14-2.31,0.16-4.62,0.15-6.92c0.36-0.5,1.08-1.48,1.44-1.97c0.37-1.61,0.58-3.25,0.8-4.89c0.35-1.1,0.67-2.2,0.97-3.32
	c0.91-0.88,1.82-1.77,2.73-2.65c0.02-0.55,0.04-1.65,0.05-2.2c0.95-1.35,1.91-2.7,2.93-4c0.01-0.5,0.03-1.51,0.05-2.02
	c3.75-3.52,7.13-7.48,11.5-10.3c0.5-0.04,1.49-0.1,1.99-0.14c1.71-3.42,5.48-5.02,8.87-6.3c1.92-0.77,4.02-0.61,6.04-0.71
	c2.721-2.53,6.51-1.52,9.689-2.81C95.9,1.06,97.7,1.05,99.49,0.9L100.73,0z"/>
<path fill="#FFFFFF" d="M113.17,0H169v106.45c-2.55,3.149-3.54,7.01-3.08,11.03c-1.25-0.17-2.5-0.34-3.75-0.5
	c-0.52,2.27-0.99,4.56-1.42,6.85c-2.2,0.311-4.4,0.65-6.6,1.02c0.709-0.479,1.42-0.959,2.129-1.439
	c-4.129-0.08-6.859-3.23-7.739-7.02c-0.67,0.06-1.34,0.1-2.011,0.129c1.841-1.319,3.531-2.869,4.681-4.859
	c-0.84,0.72-1.649,1.46-2.46,2.21c-1.58,0.069-3.16,0.13-4.74,0.19l-0.15,0.97c0.471-0.021,1.4-0.061,1.871-0.08
	c-0.351,2.04-0.65,4.09-0.931,6.149c-3.569,0.11-7.319-0.039-10.43-2.02c1.03-0.87,2.09-1.721,3.17-2.55
	c0.84-1.45,1.979-2.761,3.78-2.87c-0.08-0.51-0.25-1.51-0.33-2.02c0.51,0.56,1.51,1.68,2.02,2.239c-0.01-0.62-0.039-1.84-0.05-2.45
	c2.819-0.82,3.79-3.91,5.62-5.91c1.189-2.22,4.141-2.92,4.8-5.479c1.761,0.7,3.42,1.61,4.88,2.83c0.62-0.04,1.85-0.11,2.471-0.14
	c0.439-0.82,0.879-1.631,1.33-2.44c-1.08-0.95-2.15-1.899-3.301-2.75c-0.439-0.12-1.33-0.36-1.77-0.479c0.9-1.42,1-3.091,1.14-4.711
	c0.92-0.91,1.841-1.81,2.771-2.709c-0.09-3.561,1.18-6.9,2.49-10.15c1.289-6.49,0.389-13.25,0.469-19.84
	c-1.93-3.51,0.131-7.81-1.709-11.4c-0.131-1.55-0.23-3.1-0.34-4.66c-0.391-1.04-0.75-2.08-1.08-3.14
	c-0.53-0.97-1.07-1.94-1.601-2.91c-0.09-0.49-0.28-1.46-0.38-1.95c-0.66-1.34-0.779-2.83-0.95-4.28c-0.92-0.91-1.85-1.81-2.78-2.71
	c-0.06-1.02-0.109-2.03-0.17-3.05c-1.55-1.54-2.42-3.54-3.199-5.55c-0.301,0.01-0.9,0.03-1.211,0.04
	c-0.699-2.38-2.64-3.94-4.91-4.72c-2.359-1.65-4.5-3.65-7.26-4.61c-0.459-0.91-0.92-1.82-1.39-2.72c-0.58-0.01-1.75-0.021-2.34-0.03
	c-0.521-0.28-1.58-0.83-2.101-1.1c-1.399-0.85-2.779-1.73-4.049-2.75c-0.931-0.09-1.861-0.19-2.791-0.29
	c-1.689-0.63-3.459-1.01-5.17-1.58c-0.459-0.1-1.39-0.32-1.85-0.43C116.77,1.23,114.92,0.75,113.17,0 M162.189,103.34
	c-0.859,1.311-0.67,2.11,0.58,2.391C163.609,104.42,163.42,103.63,162.189,103.34 M160.061,106.35
	C158.561,109.41,163.33,106.48,160.061,106.35 M157.26,108.061C157.27,111.33,160.37,106.68,157.26,108.061 M155.29,109.23
	C155.8,109.76,155.8,109.76,155.29,109.23 M151.23,110.23C151.8,110.75,151.8,110.75,151.23,110.23z"/>
<path fill="#FFFFFF" d="M94.8,4.96c2.771,0.09,5.58,0.02,8.29-0.66c4.35-1.11,8.62,0.64,12.939,0.93c1.131,0.34,2.261,0.68,3.4,1.01
	c1,0.39,2.01,0.78,3.021,1.16c1.36,0.33,2.729,0.57,4.11,0.79c2.789,1.18,5.06,3.46,8.069,4.07c2.79,3.26,6.931,4.87,9.771,8.06
	c0.31,0,0.92-0.01,1.22-0.01c1.149,1,2.26,2.04,3.38,3.08c0,0.49,0.02,1.48,0.02,1.97c0.791,1.03,1.57,2.08,2.291,3.18
	c1.01,2.06,2.31,3.96,3.549,5.89c0.091,1.74-0.119,3.61,0.891,5.15c0.1,0.46,0.311,1.37,0.41,1.82c2.58,2.95,0.949,7.04,2.71,10.24
	c0.14,2.47-0.04,4.96,0.39,7.41c1.381,5.9,0.45,12.021,0.7,18.021c-0.649,1.279-1.3,2.56-1.95,3.84c0.051,1.689,0.15,3.39,0.02,5.08
	c-0.649,1.4-1.979,2.33-2.989,3.449c-0.03,1.101-0.06,2.211-0.08,3.32c-0.521,0.4-1.569,1.2-2.101,1.59
	c-2.029-2.529-5.199-3.189-8.09-4.24c-3.35-1.699-6.27-4.129-9.439-6.119l-0.609-0.57c1.299-0.359,2.59-0.75,3.879-1.15
	c2.11-0.16,4.28-0.359,5.92-1.859c0.99-0.7,1.971-1.41,2.94-2.13c1.521-0.44,3.021-0.96,4.53-1.44c0,0.801-0.01,2.42-0.01,3.221
	l1.06,0.02c0.06-3.03,0.239-6.17-1.19-8.95c-2.05-0.08-4.16-0.12-5.99-1.16c0.041,0.511,0.131,1.54,0.17,2.05
	c0.65,0,1.941,0,2.591,0c0.36,0.381,1.101,1.15,1.46,1.541c-2.051,1.01-3.79,2.51-5.63,3.84c-2,0.84-4.05,1.569-6.04,2.439
	c-0.48,0.051-1.43,0.17-1.91,0.23c-1.01,0.619-2.02,1.25-3.02,1.88c-0.641,0-1.9-0.011-2.541-0.021l-0.129,1.18l-0.09,0.701
	c-0.91-1.681-1.871-3.341-2.861-4.98c-0.34,0.2-1.029,0.59-1.369,0.779c-1.87-3.539-5.34-5.56-8.76-7.35
	c-3.791-1.869-5.78-5.78-9.021-8.29c1.75,0.061,3.5,0.05,5.261,0.061c0.02-0.85,0.079-2.54,0.109-3.39
	c1.891,0.4,3.68,1.15,5.38,2.06c3.49-0.06,5.94,2.61,8.979,3.84c5.961,1.351,12.311-0.7,18.141,1.14c1.29,0.221,2.42,0.7,2.8,2.07
	c1.24,0.25,2.39,0.72,3.45,1.4c3.4-1.351-0.76-3.03-2.221-4.061c-1.889-0.09-3.84-0.13-5.549-1.04c-2.141-0.1-4.291-0.12-6.431-0.22
	c-2.79-1.49-6.09-0.64-9.11-0.86c-0.99-0.63-1.99-1.25-2.99-1.87c-0.51-0.05-1.529-0.17-2.039-0.22c-2.18-1.33-4.5-2.43-6.9-3.3
	c-2.54-0.82-5.25-0.57-7.88-0.65c1.08,1.34,2.16,2.72,2.7,4.38c-2.24,0-3.37-1.81-4-3.68c-1.41,0.98-2.7,2.12-3.891,3.35
	c-3.51,0.11-7.029,0.03-10.539-0.02c0.02-0.61,0.049-1.84,0.06-2.45c1.351-1.32,2.61-2.74,3.42-4.46
	c0.31-0.02,0.931-0.07,1.229-0.09c0.271-0.57,0.811-1.72,1.07-2.3c0.58-1.24,0.961-2.53,1.15-3.87c0.82,0.3,1.64,0.6,2.48,0.88
	c0.069-1.2-0.92-1.96-1.57-2.82c0.05-1.75,0.85-4.18-1.74-4.16c-0.07,1.43-0.15,2.85-0.23,4.28c-0.5,1.49-0.82,3.021-1.09,4.57
	c-0.26,0.51-0.77,1.52-1.029,2.03c-2.34,1.39-4.201,3.44-6.44,4.98c-0.12-0.8-0.36-2.4-0.479-3.2c0.67-0.22,2.02-0.67,2.689-0.89
	c-2.9-0.81-5.971-2.11-8.94-0.87c-5.61,0.93-11.35,0.1-17,0.46c-1.57,1.31-3.24,2.48-4.92,3.64c-4.07,0.39-5.32,5.19-7.04,8.26
	c-1.91,0.59-3.82,1.18-5.66,1.97c0.49-8.63-0.82-17.4,1.24-25.89c0.46-0.01,1.37-0.03,1.83-0.05c0.05-2.16-0.18-4.38,0.3-6.51
	c1.21-2.88,2.91-5.54,4.03-8.46C57.69,28,58.4,28,58.75,28c0.46-1.22,0.95-2.44,1.41-3.66c2.28-3.69,5.35-7.15,9.32-9.03
	c1.6-0.76,2.84-2.04,3.84-3.49c0.37,0.55,0.73,1.11,1.1,1.67c0.52-1.521,1.43-2.84,2.44-4.07c0.29,1.12,0.56,2.24,0.8,3.37
	c0.49-1.26,0.85-2.58,0.44-3.92c3.43-0.95,7.1-0.76,10.419-2.16c1.461-0.77,3.131-0.69,4.73-0.77C93.63,5.69,94.41,5.21,94.8,4.96
	 M134.27,14.28C134.8,14.79,134.8,14.79,134.27,14.28 M135.27,17.22C135.79,17.75,135.79,17.75,135.27,17.22 M64.54,28.72
	c0.61,1.13,2.82,1.69,3.25,0.1C68.22,26.66,64.67,27.13,64.54,28.72 M80.22,27.11C80.5,30.28,83.4,25.6,80.22,27.11 M71.32,27.93
	c-0.44,0.57-1.31,1.7-1.74,2.27c0.73-0.28,2.2-0.83,2.94-1.11c1.82-0.05,3.64-0.06,5.47-0.09l0.08-1.04
	C75.82,27.99,73.57,27.99,71.32,27.93 M84.76,27.53c0.77,3,2.78,6.06,5.471,7.72l-0.65-2.12c0.65-0.06,1.96-0.17,2.609-0.23
	c-1.439-1.22-3.219-1.92-4.979-2.55C86.689,29.16,85.87,28.22,84.76,27.53 M76.01,29.98c-0.02,0.43-0.07,1.3-0.1,1.73
	c-0.59,0.27-1.78,0.81-2.37,1.08c-1.2-0.05-2.19,0.33-2.95,1.14c-0.65,0.02-1.96,0.06-2.62,0.08c-0.32,2.65-0.03,5.42,1.94,7.42
	c-0.03,0.38-0.08,1.16-0.11,1.54c2.36-0.43,4.06,1.34,6.14,1.96c2.71,0.22,5.43,0.16,8.15,0.11c2.051,0.31,2.881-2.25,4.91-2.17
	c-0.01-1.81,0.141-3.63-0.109-5.43c-1.891-2-3.871-3.95-5.061-6.47c-0.59-0.02-1.78-0.07-2.38-0.09
	C80.19,29.21,77.78,30.27,76.01,29.98 M70.15,31.85c0.65-0.01,1.96-0.02,2.61-0.03l0.07-0.59C71.51,30.46,70.62,30.67,70.15,31.85
	 M66.86,32.46c-0.58,1.8-3.39,0.83-3.75,2.27c1.22,0.64,2.44,0.65,3.67,0.04C67.59,34.31,68.66,30.99,66.86,32.46 M63.1,36.39
	c-0.97,2.13,2.1,0.61,3,1.67C68.37,37.12,64.15,34.64,63.1,36.39 M129.061,35.96l-0.08,0.96c-1.801-0.39-3.19,0.44-4.381,1.68
	c1.16,1.21,2.78,1.68,4.43,1.55l-0.209-1.29l-2.19,0.33c0.021-0.32,0.07-0.96,0.091-1.28c1.819,0.02,3.389-1.17,5.239-0.87
	c2.13-0.3,4.86,0.91,6.54-0.89C135.35,35.94,132.21,35.96,129.061,35.96 M63.62,38.8c0.64,0.54,1.91,1.62,2.55,2.16
	c-0.23,0.96-0.5,1.92-0.85,2.85c1.14,0.42,2.22,0.97,3.32,1.47c1.13,1.35,3.53,2.97,4.73,0.8c-0.72-0.04-2.16-0.12-2.87-0.16
	c-0.82-0.52-2.46-1.57-3.28-2.09c0.56-0.43,1.13-0.86,1.69-1.3C66.49,41.94,66.52,38.26,63.62,38.8 M122.25,39.1
	C122.439,42.28,125.45,37.61,122.25,39.1 M135.04,39.29c0.86,0.32,1.72,0.63,2.59,0.93c1.399,1.29,2.64,3.04,4.74,3.1
	c-1.091-1.62-2.49-2.99-3.771-4.44C137.41,38.97,136.221,39.11,135.04,39.29 M121.01,42.1L121,43.01c0.52-0.02,1.58-0.06,2.109-0.08
	c-1.539,1.55-1.189,3.72-1.1,5.69c1.36,2.41,3.35,4.35,5.301,6.28l-1.57,0.17l0.85,1.4c0.7-0.479,1.381-0.979,2.061-1.5
	c4.31,0.08,8.649,0.34,12.939-0.05c2.28-0.89,1.26-3.41,1.41-5.25c0.62,0.5,1.87,1.51,2.49,2.02c0.51-3.57-4.11-3.29-4.78-6.29
	c-0.229-0.53-0.71-1.59-0.94-2.12c-1.24-0.51-2.299-1.32-3.27-2.22c-3.35-0.02-6.971-0.74-10,1.08c-0.46-0.58-0.9-1.17-1.32-1.78
	C123.9,41.21,122.5,41.79,121.01,42.1 M142.971,44.13c-0.061,1.29,1.799,2.92,3.109,2.5C146.75,45.04,144.189,44.05,142.971,44.13
	 M66.43,49.07c-1,1.01-2.29,1.27-3.86,0.78c-0.51,0.52-1.02,1.05-1.53,1.57c1.8-0.55,3.69-0.42,5.54-0.44
	c0.86-1.61,2.89-0.76,4.31-1.04l-0.06-0.84c5.51-0.15,11.03,0.03,16.54-0.14l-0.681-0.88c-3.569-0.26-7.16,0.11-10.739-0.16
	C72.67,47.53,69.7,49.28,66.43,49.07 M121.32,51.03c0.039,1.22,2.32,5.58,3.6,3.45C123.7,53.48,123.27,50.4,121.32,51.03
	 M145.59,52.43c0.721,0.31,2.15,0.94,2.87,1.25c-1.41,0.58-2.94,0.28-4.399,0.26c-0.051,0.55-0.141,1.66-0.181,2.21
	c-0.479-0.06-1.43-0.18-1.909-0.23l-0.011,1.29c1.29,0.06,2.44-0.27,3.45-0.96c3.46,0.76,3.199-4.49,6.64-3.32l0.021-0.94
	c-1.69,0-3.381-0.01-5.07-0.021l0.13-1.65C146.55,50.98,146.04,51.68,145.59,52.43 M150,55.34
	C150.359,55.72,150.359,55.72,150,55.34 M124.71,56.27C125.02,56.77,125.02,56.77,124.71,56.27 M125.27,58.05
	c0.82,0.29,2.471,0.88,3.291,1.17c2.39,1.82,6.029-0.28,8.459,1.83c2.391,0.02,5.25,0.59,6.351-2.15c-2.2,0.2-4.101,1.61-6.41,1.21
	l0.11-1.02c1.43,0.28,2.539-0.09,3.33-1.09c-3.98,0.14-7.851-0.09-11.65-1.08c1.23,0.74,2.529,1.34,3.779,2.05
	C129.71,60.67,127.57,55.62,125.27,58.05 M151.07,82.01c-0.041,1.19-0.08,2.37-0.141,3.561c-0.27,0.729-0.81,2.199-1.08,2.93
	c2.69-1.12,2.2-4.17,2.24-6.52L151.07,82.01 M155.02,84.29c-0.289,1.44,0.28,1.99,1.711,1.66C156.92,84.6,156.35,84.05,155.02,84.29
	 M153.279,86.109c-0.529,0.961-0.979,3.58,0.451,3.75C154.25,88.9,154.71,86.29,153.279,86.109z"/>
<path fill="#C3C3C3" d="M134.27,14.28C134.8,14.79,134.8,14.79,134.27,14.28z"/>
<path fill="#C3C3C3" d="M135.27,17.22C135.79,17.75,135.79,17.75,135.27,17.22z"/>
<path fill="#E4E4E4" d="M64.54,28.72c0.13-1.59,3.68-2.06,3.25,0.1C67.36,30.41,65.15,29.85,64.54,28.72z"/>
<path fill="#000A04" d="M80.22,27.11C83.4,25.6,80.5,30.28,80.22,27.11z"/>
<path fill="#070807" d="M71.32,27.93c2.25,0.06,4.5,0.06,6.75,0.03L77.99,29c-1.83,0.03-3.65,0.04-5.47,0.09
	c-0.74,0.28-2.21,0.83-2.94,1.11C70.01,29.63,70.88,28.5,71.32,27.93z"/>
<path fill="#030303" d="M84.76,27.53c1.11,0.689,1.93,1.63,2.45,2.82c1.761,0.63,3.54,1.33,4.979,2.55
	c-0.649,0.06-1.959,0.17-2.609,0.23l0.65,2.12C87.54,33.59,85.529,30.53,84.76,27.53z"/>
<path fill="#2A0D0F" d="M76.01,29.98c1.77,0.29,4.18-0.77,5.44,0.9c0.6,0.02,1.79,0.07,2.38,0.09c1.189,2.521,3.17,4.47,5.061,6.47
	c0.25,1.8,0.1,3.62,0.109,5.43c-2.029-0.08-2.859,2.48-4.91,2.17c-2.72,0.05-5.44,0.11-8.15-0.11c-2.08-0.62-3.78-2.39-6.14-1.96
	c0.03-0.38,0.08-1.16,0.11-1.54c-1.97-2-2.26-4.77-1.94-7.42c0.66-0.02,1.97-0.06,2.62-0.08c0.76-0.81,1.75-1.19,2.95-1.14
	c0.59-0.27,1.78-0.81,2.37-1.08C75.94,31.28,75.99,30.41,76.01,29.98 M77.37,33.06c-0.6,0.33-1.79,1.01-2.39,1.35l-0.05,0.75
	c-0.4-0.01-1.2-0.04-1.61-0.05c-0.82-0.03-2.46-0.09-3.29-0.13c-0.04,1.65-0.07,3.31-0.1,4.96c1.06,0.43,2.12,0.86,3.18,1.28
	l-0.03,0.89l0.55-0.04l0.79,0.7c3.81,0.53,7.72,0.05,11.57,0.22c1.14-1.68,1.039-3.68,0.98-5.62c-1.621-1.61-3.371-3.1-5.301-4.34
	C80.23,33.03,78.8,33.02,77.37,33.06z"/>
<path fill="#0C0C0C" d="M70.15,31.85c0.47-1.18,1.36-1.39,2.68-0.62l-0.07,0.59C72.11,31.83,70.8,31.84,70.15,31.85z"/>
<path fill="#030303" d="M66.86,32.46c1.8-1.47,0.73,1.85-0.08,2.31c-1.23,0.61-2.45,0.6-3.67-0.04
	C63.47,33.29,66.28,34.26,66.86,32.46z"/>
<path fill="#D38B86" d="M77.37,33.06c1.43-0.04,2.86-0.03,4.3-0.03c1.93,1.24,3.68,2.729,5.301,4.34
	c0.059,1.94,0.159,3.94-0.98,5.62c-3.85-0.17-7.76,0.31-11.57-0.22l-0.79-0.7c3.55-0.54,7.21,0.04,10.72-0.71
	c0.97-1.86,0.42-4.19-0.95-5.69c-2.73-0.77-5.66-0.3-8.47-0.51l0.05-0.75C75.58,34.07,76.77,33.39,77.37,33.06z"/>
<path fill="#DA8580" d="M70.03,34.98c0.83,0.04,2.47,0.1,3.29,0.13c-0.06,2.04-0.13,4.07-0.21,6.11c-1.06-0.42-2.12-0.85-3.18-1.28
	C69.96,38.29,69.99,36.63,70.03,34.98z"/>
<path fill="#FD7563" d="M73.32,35.11c0.41,0.01,1.21,0.04,1.61,0.05c2.81,0.21,5.74-0.26,8.47,0.51c1.37,1.5,1.92,3.83,0.95,5.69
	c-3.51,0.75-7.17,0.17-10.72,0.71l-0.55,0.04l0.03-0.89C73.19,39.18,73.26,37.15,73.32,35.11 M75.21,37.19
	c-1.64,0.36-1.4,3.32,0.48,2.68C77.54,39.62,77.11,36.52,75.21,37.19z"/>
<path fill="#150D15" d="M63.1,36.39c1.05-1.75,5.27,0.73,3,1.67C65.2,37,62.13,38.52,63.1,36.39z"/>
<path fill="#030303" d="M129.061,35.96c3.149,0,6.289-0.02,9.439,0.19c-1.68,1.8-4.41,0.59-6.54,0.89
	c-1.851-0.3-3.42,0.89-5.239,0.87c-0.021,0.32-0.07,0.96-0.091,1.28l2.19-0.33l0.209,1.29c-1.649,0.13-3.27-0.34-4.43-1.55
	c1.19-1.24,2.58-2.07,4.381-1.68L129.061,35.96z"/>
<path fill="#DE604B" d="M75.21,37.19c1.9-0.67,2.33,2.43,0.48,2.68C73.81,40.51,73.57,37.55,75.21,37.19z"/>
<path fill="#050505" d="M63.62,38.8c2.9-0.54,2.87,3.14,5.29,3.73c-0.56,0.439-1.13,0.87-1.69,1.3c0.82,0.52,2.46,1.57,3.28,2.09
	c0.71,0.04,2.15,0.12,2.87,0.16c-1.2,2.17-3.6,0.55-4.73-0.8c-1.1-0.5-2.18-1.05-3.32-1.47c0.35-0.93,0.62-1.89,0.85-2.85
	C65.53,40.42,64.26,39.34,63.62,38.8z"/>
<path fill="#00050F" d="M122.25,39.1C125.45,37.61,122.439,42.28,122.25,39.1z"/>
<path fill="#030303" d="M135.04,39.29c1.181-0.18,2.37-0.32,3.56-0.41c1.28,1.45,2.68,2.82,3.771,4.44
	c-2.101-0.06-3.341-1.81-4.74-3.1C136.76,39.92,135.9,39.61,135.04,39.29z"/>
<path fill="#260807" d="M121.01,42.1c1.49-0.31,2.891-0.89,4.17-1.74c0.42,0.61,0.86,1.2,1.32,1.78c3.029-1.82,6.65-1.1,10-1.08
	c0.971,0.9,2.029,1.71,3.27,2.22c0.23,0.53,0.711,1.59,0.94,2.12c0.67,3,5.29,2.72,4.78,6.29c-0.62-0.51-1.87-1.52-2.49-2.02
	c-0.15,1.84,0.87,4.36-1.41,5.25c-4.29,0.39-8.63,0.13-12.939,0.05c-0.68,0.521-1.36,1.021-2.061,1.5l-0.85-1.4l1.57-0.17
	c-1.951-1.93-3.94-3.87-5.301-6.28c-0.09-1.97-0.439-4.14,1.1-5.69c-0.529,0.02-1.59,0.06-2.109,0.08L121.01,42.1 M124.2,42.2
	C124.87,42.88,124.87,42.88,124.2,42.2 M126.15,43.01c0.42,2.44-1.811,2.13-3.5,2.22c0.359,3.7,3.729,5.92,6.729,7.5
	c2.56,0.77,5.181,1.93,7.899,1.18c0.431,0.03,1.301,0.11,1.73,0.15c0.65-0.81,1.301-1.61,1.95-2.41c0-0.57,0-1.72,0.011-2.3
	c-1.551-2.01-2.73-4.29-4.311-6.27C133.16,42.83,129.65,43.07,126.15,43.01z"/>
<path fill="#FFF9FB" d="M124.2,42.2C124.87,42.88,124.87,42.88,124.2,42.2z"/>
<path fill="#E78071" d="M126.15,43.01c3.5,0.06,7.01-0.18,10.51,0.07c1.58,1.98,2.76,4.26,4.311,6.27
	c-0.011,0.58-0.011,1.73-0.011,2.3c-0.649,0.8-1.3,1.6-1.95,2.41c-0.359-1.45-0.93-1.5-1.73-0.15c-2.719,0.75-5.34-0.41-7.899-1.18
	c-3-1.58-6.37-3.8-6.729-7.5C124.34,45.14,126.57,45.45,126.15,43.01 M128.04,45.78c0.75,1.479-0.03,2.77-0.69,4.07
	c0.86,1.14,2.41,0.76,3.641,1.01c0.32-1.21,0.93-2.39,0.91-3.67C131.17,45.67,129.46,45.8,128.04,45.78 M135.221,47.12
	c-0.541,1.65,0,2.2,1.619,1.67C137.38,47.16,136.84,46.6,135.221,47.12z"/>
<path fill="#030303" d="M100.08,43.69c2.59-0.02,1.79,2.41,1.74,4.16c0.65,0.86,1.64,1.62,1.57,2.82
	c-0.841-0.28-1.66-0.58-2.48-0.88c-0.189,1.34-0.57,2.63-1.15,3.87c-0.26,0.58-0.8,1.73-1.07,2.3c-0.299,0.02-0.92,0.07-1.229,0.09
	c-0.81,1.72-2.069,3.14-3.42,4.46c-0.011,0.61-0.04,1.84-0.06,2.45c3.51,0.05,7.029,0.13,10.539,0.02
	c1.19-1.23,2.48-2.37,3.891-3.35c0.63,1.87,1.76,3.68,4,3.68c-0.54-1.66-1.62-3.04-2.7-4.38c2.63,0.08,5.34-0.17,7.88,0.65
	c2.4,0.87,4.721,1.97,6.9,3.3c0.51,0.05,1.529,0.17,2.039,0.22c1,0.62,2,1.24,2.99,1.87c3.021,0.22,6.32-0.63,9.11,0.86
	c2.14,0.1,4.29,0.12,6.431,0.22c1.709,0.91,3.66,0.95,5.549,1.04c1.461,1.03,5.621,2.71,2.221,4.061
	c-1.061-0.681-2.21-1.15-3.45-1.4c-0.38-1.37-1.51-1.85-2.8-2.07c-5.83-1.84-12.18,0.211-18.141-1.14
	c-3.039-1.23-5.489-3.9-8.979-3.84c-1.7-0.91-3.489-1.66-5.38-2.06c-0.03,0.85-0.09,2.54-0.109,3.39
	c-1.761-0.01-3.511,0-5.261-0.061L108,63.4l-0.32-0.45c-0.52,0.05-1.55,0.14-2.06,0.19c-3.63,2.41-8.92,2.88-12.72,0.74
	c0.029-0.69,0.09-2.06,0.129-2.75c-0.76-0.06-2.279-0.2-3.039-0.27c-0.26-1.67,0.65-3.84-0.7-5.13c-0.87-1.63-2.81-0.25-3.95,0.17
	c-5.71-0.44-11.24,1.04-16.91,1.17c-0.44,0.42-1.31,1.27-1.75,1.7c-2.46,0.48-5.09,1.27-6.13,3.8c-1.13,0.68-1.7,1.7-1.71,3.07
	c-0.79,0.36-1.59,0.7-2.39,1.02l-0.85,0.29c1.72-3.07,2.97-7.87,7.04-8.26c1.68-1.16,3.35-2.33,4.92-3.64
	c5.65-0.36,11.39,0.47,17-0.46c2.969-1.24,6.04,0.06,8.94,0.87c-0.67,0.22-2.02,0.67-2.689,0.89c0.119,0.8,0.359,2.4,0.479,3.2
	c2.239-1.54,4.101-3.59,6.44-4.98c0.26-0.51,0.77-1.52,1.029-2.03c0.27-1.55,0.59-3.08,1.09-4.57
	C99.93,46.54,100.01,45.12,100.08,43.69z"/>
<path fill="#050505" d="M142.971,44.13c1.219-0.08,3.779,0.91,3.109,2.5C144.77,47.05,142.91,45.42,142.971,44.13z"/>
<path fill="#F27353" d="M128.04,45.78c1.42,0.02,3.13-0.11,3.86,1.41c0.02,1.28-0.59,2.46-0.91,3.67
	c-1.23-0.25-2.78,0.13-3.641-1.01C128.01,48.55,128.79,47.26,128.04,45.78z"/>
<path fill="#5D0000" d="M135.221,47.12c1.619-0.52,2.159,0.04,1.619,1.67C135.221,49.32,134.68,48.77,135.221,47.12z"/>
<path fill="#030303" d="M66.43,49.07c3.27,0.21,6.24-1.54,9.52-1.15c3.58,0.27,7.17-0.1,10.739,0.16l0.681,0.88
	c-5.51,0.17-11.03-0.01-16.54,0.14l0.06,0.84c-1.42,0.28-3.45-0.57-4.31,1.04c-1.85,0.02-3.74-0.11-5.54,0.44
	c0.51-0.52,1.02-1.05,1.53-1.57C64.14,50.34,65.43,50.08,66.43,49.07z"/>
<path fill="#030303" d="M121.32,51.03c1.949-0.63,2.38,2.45,3.6,3.45C123.641,56.61,121.359,52.25,121.32,51.03z"/>
<path fill="#0B0F0E" d="M145.59,52.43c0.45-0.75,0.96-1.45,1.54-2.11L147,51.97c1.689,0.01,3.38,0.021,5.07,0.021l-0.021,0.94
	c-3.44-1.17-3.18,4.08-6.64,3.32c-1.01,0.69-2.16,1.02-3.45,0.96l0.011-1.29c0.479,0.05,1.43,0.17,1.909,0.23
	c0.04-0.55,0.13-1.66,0.181-2.21c1.459,0.02,2.989,0.32,4.399-0.26C147.74,53.37,146.311,52.74,145.59,52.43z"/>
<path fill="#E6A9AD" d="M137.279,53.91c0.801-1.35,1.371-1.3,1.73,0.15C138.58,54.02,137.71,53.94,137.279,53.91z"/>
<path fill="#FCFCFC" d="M85.34,55.9c1.141-0.42,3.08-1.8,3.95-0.17c1.351,1.29,0.44,3.46,0.7,5.13c0.76,0.07,2.279,0.21,3.039,0.27
	c-0.039,0.69-0.1,2.06-0.129,2.75c3.8,2.14,9.09,1.67,12.72-0.74c0.51-0.05,1.54-0.14,2.06-0.19L108,63.4
	c-0.48,1.89-1.79,4.03-0.23,5.78c2.58,3.32,5.931,6.211,9.82,7.87c2.24,1.101,3.87,3.06,5.74,4.64
	c-0.939,0.32-2.83,0.971-3.77,1.291c-0.681-1-1.34-2-1.971-3.021c-0.09,0.56-0.27,1.7-0.359,2.271
	c-3.221-0.711-4.931-3.851-7.42-5.74c0.449-3.36-2.641-5.58-4.351-8.061c-0.88,0.851-1.95,1.561-2.55,2.67
	c0.88,2.73,3.199,4.84,3.561,7.78c1,1.05,2.029,2.07,3.029,3.12c-5.65-0.34-11.45,0.71-16.99-0.62c-0.99-0.36-1.98-0.729-2.97-1.09
	c-0.97-0.31-1.931-0.64-2.88-0.99c-2.34-1.09-4.87-1.6-7.3-2.43c-2.43-1.57-4.85-3.17-7.09-5.011c0.73-0.25,1.47-0.489,2.21-0.729
	c3.47-2,7.21-3.47,10.67-5.47c-0.34-1.38-1.541-2.19-2.48-3.14c-0.17-1.25-0.33-2.52-0.49-3.77c-5.76,0.13-10.44,3.91-15.96,5.04
	c-1.52-1.78-3.73-0.47-5.09,0.77l-0.27,0.18c-0.5,0.229-1.52,0.67-2.02,0.9c0.01-1.37,0.58-2.39,1.71-3.07
	c1.04-2.53,3.67-3.32,6.13-3.8c0.44-0.43,1.31-1.28,1.75-1.7C74.1,56.94,79.63,55.46,85.34,55.9 M95.33,71.939
	c1.34-0.659,0.82-3.539,0.38-4.859C94.189,67.65,94.83,70.63,95.33,71.939 M100.32,73.92c1.41-1.32,0.779-4.85,0.39-6.8
	C99.109,68.25,99.98,72,100.32,73.92 M92.3,76.35C92.859,76.811,92.859,76.811,92.3,76.35z"/>
<path fill="#000005" d="M150,55.34C150.359,55.72,150.359,55.72,150,55.34z"/>
<path fill="#001008" d="M124.71,56.27C125.02,56.77,125.02,56.77,124.71,56.27z"/>
<path fill="#030303" d="M125.27,58.05c2.301-2.43,4.44,2.62,7.26,0.92c-1.25-0.71-2.549-1.31-3.779-2.05
	c3.8,0.99,7.67,1.22,11.65,1.08c-0.791,1-1.9,1.37-3.33,1.09l-0.11,1.02c2.31,0.4,4.21-1.01,6.41-1.21
	c-1.101,2.74-3.96,2.17-6.351,2.15c-2.43-2.11-6.069-0.01-8.459-1.83C127.74,58.93,126.09,58.34,125.27,58.05z"/>
<path fill="#B4B4B4" d="M66.22,63.79c5.52-1.13,10.2-4.91,15.96-5.04c0.16,1.25,0.32,2.52,0.49,3.77c0.94,0.95,2.14,1.76,2.48,3.14
	c-3.46,2-7.2,3.47-10.67,5.47c-0.74,0.24-1.48,0.479-2.21,0.729c-0.25,0.091-0.76,0.281-1.02,0.381c-0.15,0.41-0.45,1.25-0.6,1.66
	c-1.69,2.22-4.35,3.25-7.03,3.66H63.6c0.05,0.02,0.16,0.06,0.21,0.08l1.45,0.629c-2.6,2.74-5.17,5.641-8.62,7.32
	c0.09,0.25,0.28,0.74,0.37,0.99C56,87.79,55,89,54.01,90.23c-0.69,0.819-1.35,1.67-2.01,2.51c-2.74,3.939-6.83,6.56-10.1,10
	c-2.22,2.16-4.23,4.609-6.88,6.26c-0.63-0.26-1.91-0.8-2.54-1.07c1.1-3.08,3.31-5.49,5.65-7.68c0.38,0,1.14,0,1.52,0
	c2.86-3.42,6.32-6.33,8.72-10.12c-0.75-0.04-2.26-0.11-3.01-0.14l0.03-0.98c1-0.02,3-0.05,4-0.06h0.21
	c0.53-0.94,1.08-1.86,1.65-2.771c5.55-4.949,9.68-11.32,16.12-15.279c0.25-0.17,0.73-0.53,0.97-0.7c1.19-0.681,2.09-1.75,2.53-3.05
	c-1.33,0.14-3.23,0.229-3.67,1.779c-1.52-0.039-3.03-0.02-4.55,0.061c-0.5,0.199-1.51,0.6-2.01,0.8l-0.65,0.28
	c-2.57,1.3-5.42,2.51-8.24,1.14c0.45,0.34,1.33,1.021,1.78,1.36c-1.26,0.43-2.52,0.859-3.78,1.25c-0.38,0.119-1.12,0.359-1.49,0.49
	c-0.66,0.799-1.29,1.629-1.9,2.47c-1.11-0.2-2.23-0.341-3.35-0.48c-2.42,1.83-5.48,1.79-8.37,1.88c-1.67,1.84-3.53,3.54-5.8,4.61
	c-3.45,1.49-4.85,5.37-8.06,7.24c-0.81-0.011-2.44-0.03-3.25-0.05c0,0.51-0.02,1.51-0.02,2.01c-1.25-1.641-2.46-3.311-3.59-5.04
	c1.86-0.55,3.79-0.771,5.73-0.65c3.32-5.34,9.59-7.54,13.68-12.159c4.72,0.77,8.63-2.011,12.81-3.631c1.28-0.49,2.55-1.01,3.8-1.59
	c1.84-0.79,3.75-1.38,5.66-1.97l0.85-0.29c0.8-0.32,1.6-0.66,2.39-1.02c0.5-0.23,1.52-0.67,2.02-0.9
	C62.71,65.47,64.74,65.1,66.22,63.79 M71.36,63.2C71.89,63.72,71.89,63.72,71.36,63.2 M77.25,64.28
	C77.77,64.82,77.77,64.82,77.25,64.28 M75.22,65.26C75.76,65.78,75.76,65.78,75.22,65.26 M72.28,66.31
	C72.83,66.82,72.83,66.82,72.28,66.31z"/>
<path fill="#0C0C0C" d="M61.13,64.56c1.36-1.24,3.57-2.55,5.09-0.77c-1.48,1.31-3.51,1.68-5.36,0.95L61.13,64.56z"/>
<path fill="#6E6E6E" d="M71.36,63.2C71.89,63.72,71.89,63.72,71.36,63.2z"/>
<path fill="#FFFFFF" d="M77.25,64.28C77.77,64.82,77.77,64.82,77.25,64.28z"/>
<path fill="#B3B3B3" d="M108,63.4l0.71,0.57c3.24,2.51,5.229,6.421,9.021,8.29c3.42,1.79,6.89,3.811,8.76,7.35
	c0.34-0.189,1.029-0.579,1.369-0.779c0.99,1.64,1.951,3.3,2.861,4.98l0.09-0.701c0.67,0,1.989,0.011,2.649,0.011
	c0.47,0.22,1.399,0.649,1.87,0.87c3.17,1.99,6.09,4.42,9.439,6.119c2.891,1.051,6.061,1.711,8.09,4.24
	c1.221,1.12,2.541,2.19,4.131,2.711c0.439,0.119,1.33,0.359,1.77,0.479c1.15,0.851,2.221,1.8,3.301,2.75
	c-0.451,0.81-0.891,1.62-1.33,2.44c-0.621,0.029-1.851,0.1-2.471,0.14c-1.46-1.22-3.119-2.13-4.88-2.83
	c-1.239-0.58-2.26-1.5-3.3-2.37l-0.35-0.32c0.59-0.35,1.76-1.039,2.35-1.39c-0.26-0.17-0.78-0.53-1.04-0.7
	c-0.36-0.15-1.08-0.439-1.44-0.58c-1.56,2.28-4.16,0.33-6.22,0.03c-0.771-0.67-1.55-1.33-2.319-1.979
	c0.529,1.289,1.069,2.59,1.6,3.89c-2.24-2.57-4.689-5.05-7.971-6.21c0.41-0.36,1.23-1.08,1.641-1.45
	c-0.96,0.37-1.93,0.729-2.891,1.101c-2.84-1.721-5.76-3.33-8.89-4.471c3.03,3.62,7.65,5.7,9.87,10.051
	c-4.029-3.451-8.16-6.811-11.97-10.5c-0.45-0.61-1.36-1.811-1.81-2.41c1.609,0.22,2.879,1.189,4.049,2.26
	c0.871-0.1,1.74-0.2,2.61-0.311c-1.329-0.99-2.7-1.92-3.97-2.99c-1.87-1.58-3.5-3.539-5.74-4.64c-3.89-1.659-7.24-4.55-9.82-7.87
	C106.21,67.43,107.52,65.29,108,63.4 M156.221,98.2C156.74,98.72,156.74,98.72,156.221,98.2z"/>
<path fill="#FFFFFF" d="M75.22,65.26C75.76,65.78,75.76,65.78,75.22,65.26z"/>
<path fill="#FDFDFD" d="M72.28,66.31C72.83,66.82,72.83,66.82,72.28,66.31z"/>
<path fill="#EFEFEF" d="M67.2,68.93c0.44-1.55,2.34-1.64,3.67-1.779c-0.44,1.3-1.34,2.369-2.53,3.05
	C68.06,69.88,67.48,69.25,67.2,68.93z"/>
<path fill="#151515" d="M95.33,71.939c-0.5-1.31-1.141-4.289,0.38-4.859C96.15,68.4,96.67,71.28,95.33,71.939z"/>
<path fill="#0E0E0E" d="M100.32,73.92c-0.34-1.92-1.211-5.67,0.39-6.8C101.1,69.07,101.73,72.6,100.32,73.92z"/>
<path fill="#0B0B0B" d="M62.65,68.99c1.52-0.08,3.03-0.1,4.55-0.061c0.28,0.32,0.86,0.95,1.14,1.271c-0.24,0.17-0.72,0.53-0.97,0.7
	c-0.74,0.06-2.24,0.18-2.98,0.25C63.95,70.609,63.09,69.53,62.65,68.99z"/>
<path fill="#B3B3B3" d="M102.91,71.1c0.6-1.109,1.67-1.819,2.55-2.67c1.71,2.48,4.8,4.7,4.351,8.061
	c2.489,1.89,4.199,5.029,7.42,5.74l-0.07,0.43c1.18,0.64,2.3,1.4,3.39,2.199c1.351,2.671,2.671,5.4,4.58,7.721l0.54,0.359
	c2.311,1.42,4.33,3.28,5.78,5.591c1.67,2.61,4.069,4.71,5.55,7.45c0.7,1.51-1.311,2.43-1.87,3.629
	c-3.94-2.609-6.38-6.81-7.81-11.199c-1.811,0.23-3.41-0.75-4.961-1.53c-0.319-0.479-0.969-1.44-1.299-1.91
	c-0.201-0.34-0.601-1.03-0.811-1.37l-0.391-0.5c-0.43-0.72-0.85-1.449-1.26-2.189c-0.619-1.16-1.229-2.33-1.84-3.49
	c-1.52-0.72-3.039-1.439-4.529-2.2c-0.92-1.069-1.791-2.17-2.73-3.22c-1-1.05-2.029-2.07-3.029-3.12
	C106.109,75.939,103.79,73.83,102.91,71.1z"/>
<path fill="#030303" d="M59.99,70.07l0.65-0.28C63.18,71.97,58.98,73.48,59.99,70.07z"/>
<path fill="#0A0A0A" d="M145.859,69.97c1.83,1.04,3.94,1.08,5.99,1.16c1.43,2.78,1.25,5.92,1.19,8.95l-1.06-0.02
	c0-0.801,0.01-2.42,0.01-3.221c-1.51,0.48-3.01,1-4.53,1.44c-0.97,0.72-1.95,1.43-2.94,2.13c-1.64,1.5-3.81,1.699-5.92,1.859
	c-1.289,0.4-2.58,0.791-3.879,1.15l0.609,0.57c-0.471-0.221-1.4-0.65-1.87-0.87c-0.66,0-1.979-0.011-2.649-0.011l0.129-1.18
	c0.641,0.01,1.9,0.021,2.541,0.021c1-0.63,2.01-1.261,3.02-1.88c0.48-0.061,1.43-0.18,1.91-0.23c1.99-0.87,4.04-1.6,6.04-2.439
	c1.84-1.33,3.579-2.83,5.63-3.84c-0.359-0.391-1.1-1.16-1.46-1.541c-0.649,0-1.94,0-2.591,0C145.99,71.51,145.9,70.48,145.859,69.97
	z"/>
<path fill="#070707" d="M71.25,72.24c0.26-0.1,0.77-0.29,1.02-0.381c2.24,1.841,4.66,3.44,7.09,5.011c2.43,0.83,4.96,1.34,7.3,2.43
	c0.949,0.351,1.91,0.681,2.88,0.99c0.989,0.36,1.979,0.729,2.97,1.09c5.54,1.33,11.34,0.28,16.99,0.62
	c0.939,1.05,1.811,2.15,2.73,3.22c-7.201-0.829-14.721,0.98-21.61-1.89c-2.13-1.43-4.7-1.221-7.11-1.6
	c-2.14-0.811-4.07-2.051-6.11-3.051c-1.96-0.539-4.16-1.039-4.82-3.26c-0.48-0.38-1.45-1.14-1.93-1.52
	C70.8,73.49,71.1,72.65,71.25,72.24z"/>
<path fill="#030303" d="M54.21,73.48c1.19,0.09,2.38,0.02,3.57-0.11h-0.04c-0.56,0.71-1.7,2.12-2.26,2.83
	c1.46,0.53,2.68,0.05,3.69-1.08c-2.19,2.87-6.05,3.71-8.16,6.739C52.36,79.189,56.83,76.72,54.21,73.48z"/>
<path fill="#030303" d="M48.26,74.311c0.37-0.131,1.11-0.371,1.49-0.49c0.27,0.479,0.81,1.43,1.08,1.91l-1.66-1
	c0.92,2.229,0.93,4.67,0.99,7.039c-1.05,0.83-2.09,1.66-3.14,2.48c-0.04-1.59-0.08-3.18-0.14-4.78c0.46-0.76,0.9-1.53,1.34-2.3
	l-1.86-0.39C46.97,75.939,47.6,75.109,48.26,74.311z"/>
<path fill="#B8B8B8" d="M52.23,74.311C52.74,74.85,52.74,74.85,52.23,74.311z"/>
<path fill="#FFFFFF" d="M63.62,77.561c2.68-0.41,5.34-1.44,7.03-3.66c0.48,0.38,1.45,1.14,1.93,1.52
	c0.66,2.221,2.86,2.721,4.82,3.26c2.04,1,3.97,2.24,6.11,3.051c2.41,0.379,4.98,0.17,7.11,1.6c6.89,2.87,14.409,1.061,21.61,1.89
	c1.49,0.761,3.01,1.48,4.529,2.2c0.61,1.16,1.221,2.33,1.84,3.49c-4.879-0.02-9.77,0.27-14.64-0.02
	c-2.8-0.621-5.63-1.131-8.521-1.041C94.46,89.23,93.48,88.6,92.5,87.98c-0.5-0.021-1.51-0.061-2.01-0.09
	c-1.65-0.921-3.301-1.83-4.971-2.711c-1.879-0.24-3.7-0.75-5.49-1.32c-0.04,0.511-0.11,1.521-0.15,2.021
	c2.73,0.04,6.49-0.16,7.591,3.021c0.489,0.1,1.469,0.3,1.959,0.399c1.291,0.42,2.631,0.69,3.971,0.95
	c1.01,0.37,2.029,0.72,3.05,1.07c7.5,2.93,15.61,1.109,23.409,1.779l0.391,0.5c-0.25,0.311-0.77,0.92-1.029,1.23
	c0.459,0.029,1.379,0.1,1.84,0.14c0.33,0.47,0.979,1.431,1.299,1.91c1.551,0.78,3.15,1.761,4.961,1.53
	c1.43,4.39,3.869,8.59,7.81,11.199c0.56-1.199,2.57-2.119,1.87-3.629c-1.48-2.74-3.88-4.84-5.55-7.45
	c-1.45-2.311-3.47-4.171-5.78-5.591l0.12-0.619l-0.511-0.25l-0.149,0.51c-1.909-2.32-3.229-5.05-4.58-7.721l1.9,0.281
	c3.81,3.689,7.94,7.049,11.97,10.5c-2.22-4.351-6.84-6.431-9.87-10.051c3.13,1.141,6.05,2.75,8.89,4.471
	c0.961-0.371,1.931-0.73,2.891-1.101c-0.41,0.37-1.23,1.09-1.641,1.45c3.281,1.16,5.73,3.64,7.971,6.21
	c-0.53-1.3-1.07-2.601-1.6-3.89c0.77,0.649,1.549,1.31,2.319,1.979c2.06,0.3,4.66,2.25,6.22-0.03c0.36,0.141,1.08,0.43,1.44,0.58
	c-1.2-0.26-2.89,1.221-1.31,2.09l0.35,0.32c-0.391,0.471-1.17,1.41-1.561,1.88c-1.979,1.07-3.51,2.75-4.209,4.91
	c-1.131,2.09-2.891,3.729-4.701,5.22c-1.899,0.75-3.229,2.26-4,4.11c-1.26,0.53-2.5,1.06-3.76,1.56l0.25,1.07l-0.529-0.84
	c-0.58-1.561-1.061-3.141-1.561-4.73c-0.68,0.141-2.039,0.42-2.72,0.561c-0.12,2.1-0.74,4.35,0.36,6.31
	c-1.121,0.33-2.221,0.7-3.311,1.11c-0.4,0.07-1.199,0.21-1.6,0.279c-4.62,2.011-9.93,0.221-14.811,1.091
	c-6.22,1.409-12.66,0.64-18.979,0.77c-1.511,0.22-2.431-1.12-3.511-1.89c-1.81-0.04-3.64,0-5.439-0.221
	c-2.38-1.09-4.39-2.84-6.36-4.539c-4.15-0.84-5.64-5.74-9.21-7.78c-1.76-2.351-3.52-4.7-5.32-7.021c-0.08-0.51-0.23-1.539-0.3-2.05
	c-1.03-1.37-1.97-2.81-2.92-4.229c0.04-0.86,0.11-2.58,0.15-3.43c-0.51,0.1-1.52,0.319-2.03,0.42c0.99-1.23,1.99-2.44,3-3.65
	c-0.09-0.25-0.28-0.74-0.37-0.99c3.45-1.68,6.02-4.58,8.62-7.32l-1.45-0.629L63.62,77.561 M76.38,85.93
	c3.09,0.84-0.12-2.83-0.78-3.84C73.97,82.6,75.69,85.08,76.38,85.93 M73.61,86.08c2.36,4.26,7.4,2.73,11.39,2.91l0.109-1.03
	c-3.06-0.24-6.6,0.97-9.219-1.101l0.49-0.93C75.68,85.96,74.3,86.04,73.61,86.08 M115.279,95.28
	C115.83,95.77,115.83,95.77,115.279,95.28 M135.23,96.189C135.76,96.72,135.76,96.72,135.23,96.189 M137.189,98.15
	c-0.42,1.279,1.261,3.26,2.59,2.699C140.21,99.53,138.51,97.75,137.189,98.15 M140.24,102.42
	C140.79,102.91,140.79,102.91,140.24,102.42 M86.16,116.2C86.689,116.7,86.689,116.7,86.16,116.2z"/>
<path fill="#C9C9C9" d="M92.3,76.35C92.859,76.811,92.859,76.811,92.3,76.35z"/>
<path fill="#757575" d="M63.6,77.561h0.02l0.19,0.08C63.76,77.62,63.65,77.58,63.6,77.561z"/>
<path fill="#B7B7B7" d="M5.98,80.01c3.66-0.16,7.83-2.34,11.12,0.141c0.05,1.41-1.11,2.209-2,3.1c-0.82-0.23-1.64-0.46-2.47-0.689
	c-0.88,0.619-1.77,1.239-2.65,1.869c-0.09-0.6-0.25-1.8-0.33-2.399c-0.2,0.45-0.59,1.329-0.79,1.78C7.23,83.91,5.6,84,3.96,84.1
	c0.06,2.16,0.12,4.33,0.21,6.5c1.7,1.2,3.37,2.431,5.03,3.7c-0.44,0.87-0.87,1.74-1.31,2.61c-0.85-0.27-1.71-0.551-2.57-0.82
	c0.63,1.6,1.26,3.2,1.89,4.811c1.6,0.05,3.19,0.1,4.79,0.149c-0.21,0.86-0.42,1.73-0.63,2.601c1.79-1.34,3.94-1.931,6.12-1.221
	c0.42-0.14,1.26-0.43,1.69-0.57c-0.63,1.94-1.41,3.86-1.67,5.9c0.79,1.17,2.38,1.061,3.57,1.53c0.54,1.91,0.91,3.87,1.17,5.851
	c1.49,1.42,2.86,3.159,4.86,3.869c2.06-0.01,3.72-1.39,5.44-2.35c0.49-1.26,0.97-2.53,1.63-3.71c3.37-0.33,2.8,3.79,2.97,5.979
	c-2.21,1.16-4.32,2.521-6.23,4.141c-5.32,0.899-9.6-2.53-12.75-6.37c-0.01-1.23-0.01-2.46-0.02-3.69
	c-2.2-1.89-4.09-4.109-5.42-6.699c-2.88-0.951-5.84-1.641-8.67-2.73c-0.51-1.4,0.11-2.13,1.86-2.18c-1.27-0.07-2.54-0.16-3.81-0.24
	C2.2,97.439,1.87,93.67,0,90.37V83.27C1.62,81.609,3.52,79.99,5.98,80.01z"/>
<path fill="#030303" d="M117.59,79.96c0.631,1.021,1.29,2.021,1.971,3.021c0.939-0.32,2.83-0.971,3.77-1.291
	c1.27,1.07,2.641,2,3.97,2.99c-0.87,0.11-1.739,0.211-2.61,0.311c-1.17-1.07-2.439-2.04-4.049-2.26c0.449,0.6,1.359,1.8,1.81,2.41
	l-1.9-0.281c-1.09-0.799-2.21-1.56-3.39-2.199l0.07-0.43C117.32,81.66,117.5,80.52,117.59,79.96z"/>
<path fill="#B2B2B2" d="M41.3,82.21c0.93-0.47,1.86-0.93,2.8-1.399l0.23,0.89c-3.86,1.159-4.82,5.61-8.15,7.56L35.89,88l0.85-0.08
	C38.34,86.09,39.94,84.24,41.3,82.21z"/>
<path fill="#030303" d="M76.38,85.93c-0.69-0.85-2.41-3.33-0.78-3.84C76.26,83.1,79.47,86.77,76.38,85.93z"/>
<path fill="#030303" d="M151.07,82.01l1.02-0.029c-0.04,2.35,0.45,5.399-2.24,6.52c0.271-0.73,0.811-2.2,1.08-2.93
	C150.99,84.38,151.029,83.2,151.07,82.01z"/>
<path fill="#080808" d="M46.81,85.28c1.58-1.08,3.02-3.431,5.17-2.15c0.11,1.101-0.13,2.12-0.73,3.05
	c-0.57,0.91-1.12,1.83-1.65,2.771h-0.21C48.82,87.54,47.83,86.38,46.81,85.28z"/>
<path fill="#030303" d="M80.03,83.859c1.79,0.57,3.61,1.08,5.49,1.32c1.67,0.881,3.32,1.79,4.971,2.711
	c0.5,0.029,1.51,0.069,2.01,0.09c0.98,0.619,1.96,1.25,2.939,1.869c2.891-0.09,5.721,0.42,8.521,1.041
	c4.87,0.289,9.761,0,14.64,0.02c0.41,0.74,0.83,1.47,1.26,2.189c-7.799-0.67-15.909,1.15-23.409-1.779
	c-1.021-0.351-2.04-0.7-3.05-1.07c-1.34-0.26-2.68-0.53-3.971-0.95c-0.49-0.1-1.47-0.3-1.959-0.399
	c-1.101-3.181-4.861-2.98-7.591-3.021C79.92,85.38,79.99,84.37,80.03,83.859z"/>
<path fill="#040404" d="M155.02,84.29c1.33-0.24,1.9,0.31,1.711,1.66C155.3,86.28,154.73,85.73,155.02,84.29z"/>
<path fill="#0A0A0A" d="M42.63,90.13c0.48-1.34,1.26-3.89,2.94-3.819C45.67,87.62,44.26,92,42.63,90.13z"/>
<path fill="#030303" d="M73.61,86.08c0.69-0.04,2.07-0.12,2.77-0.15l-0.49,0.93c2.62,2.07,6.16,0.86,9.219,1.101L85,88.99
	C81.01,88.811,75.97,90.34,73.61,86.08z"/>
<path fill="#050505" d="M153.279,86.109c1.431,0.181,0.971,2.791,0.451,3.75C152.3,89.689,152.75,87.07,153.279,86.109z"/>
<path fill="#CCCCCC" d="M32.42,90.92c-0.46-1.22,1.54-2.35,2.51-1.67C35.45,90.52,33.41,91.71,32.42,90.92z"/>
<path fill="#030303" d="M54.01,90.23c0.51-0.101,1.52-0.32,2.03-0.42c-0.04,0.85-0.11,2.569-0.15,3.43
	c0.95,1.42,1.89,2.859,2.92,4.229c0.07,0.511,0.22,1.54,0.3,2.05c1.8,2.32,3.56,4.67,5.32,7.021c3.57,2.04,5.06,6.94,9.21,7.78
	c1.97,1.699,3.98,3.449,6.36,4.539c1.8,0.221,3.63,0.181,5.439,0.221c1.08,0.77,2,2.109,3.511,1.89
	c6.319-0.13,12.76,0.64,18.979-0.77c4.881-0.87,10.19,0.92,14.811-1.091c0.4-0.069,1.199-0.209,1.6-0.279
	c1.09-0.41,2.189-0.78,3.311-1.11c0.52,1.03,1.05,2.061,1.59,3.091l-0.35,0.899c-1.16,0.3-2.32,0.601-3.48,0.91
	c-1.03,0.41-2.061,0.85-3.08,1.3c-4.57,0.2-9.141-0.05-13.7,0.18c-1.11,0.62-2.3,0.92-3.569,0.91c-5.07,0.04-10.15-0.02-15.23-0.1
	c0.17,2.689,0.18,5.39,0.08,8.09H86.02c0-2.59,0.16-5.18-0.1-7.76c-0.97-0.91-2.19-1.48-3.32-2.15c-2.17,0.01-4.37-0.18-6.22-1.41
	c-0.97-0.34-1.94-0.649-2.92-0.949c-1.99-2.92-4.36-6.431-8.09-7.041c-0.81-1.989-2.34-3.449-4.34-4.229
	c-0.01-0.601-0.03-1.81-0.04-2.42c-0.4-0.021-1.18-0.06-1.58-0.08c-1.19-2.319-2.62-4.521-4.27-6.53c-0.05-0.6-0.15-1.8-0.2-2.399
	c-0.44-0.011-1.34-0.05-1.79-0.061c-0.08-1.8-0.3-3.61-1.15-5.229C52.66,91.9,53.32,91.05,54.01,90.23z"/>
<path fill="#CBCBCB" d="M29.47,92.061c2.92-0.121-1.21,3.35-2.46,2.6C26.28,93.24,28.36,92.27,29.47,92.061z"/>
<path fill="#0A0A0A" d="M38.62,94.17c0.7-0.79,2.91-2.83,3.6-1.3C41.76,93.93,39.16,95.77,38.62,94.17z"/>
<path d="M125.279,92.07l0.511,0.25l-0.12,0.619l-0.54-0.359L125.279,92.07z"/>
<path fill="#0D0D0D" d="M119.221,94.83c0.26-0.311,0.779-0.92,1.029-1.23c0.21,0.34,0.609,1.03,0.811,1.37
	C120.6,94.93,119.68,94.859,119.221,94.83z"/>
<path fill="#BDBDBD" d="M35.2,96.32c0.4-0.67,2.42-1.86,2.71-0.68c-0.95,0.89-1.35,2.979-2.76,3.039
	C35.16,98.09,35.18,96.91,35.2,96.32z"/>
<path fill="#C6C6C6" d="M115.279,95.28C115.83,95.77,115.83,95.77,115.279,95.28z"/>
<path fill="#969696" d="M151.04,95.26c0.26,0.17,0.78,0.53,1.04,0.7c-0.59,0.351-1.76,1.04-2.35,1.39
	C148.15,96.48,149.84,95,151.04,95.26z"/>
<path fill="#B9B9B9" d="M135.23,96.189C135.76,96.72,135.76,96.72,135.23,96.189z"/>
<path fill="#CACACA" d="M137.189,98.15c1.32-0.4,3.021,1.38,2.59,2.699C138.45,101.41,136.77,99.43,137.189,98.15z"/>
<path fill="#050505" d="M148.52,99.55c0.391-0.47,1.17-1.409,1.561-1.88c1.04,0.87,2.061,1.79,3.3,2.37
	c-0.659,2.56-3.61,3.26-4.8,5.479c-1.83,2-2.801,5.09-5.62,5.91c0.011,0.61,0.04,1.83,0.05,2.45c-0.51-0.56-1.51-1.68-2.02-2.239
	c0.08,0.51,0.25,1.51,0.33,2.02c-1.801,0.109-2.94,1.42-3.78,2.87c-1.08,0.829-2.14,1.68-3.17,2.55c-0.82-0.84-1.63-1.68-2.271-2.66
	l-0.25-1.07c1.26-0.5,2.5-1.029,3.76-1.56c0.771-1.851,2.101-3.36,4-4.11c1.811-1.49,3.57-3.13,4.701-5.22
	C145.01,102.3,146.54,100.62,148.52,99.55z"/>
<path fill="#EEEEEE" d="M156.221,98.2C156.74,98.72,156.74,98.72,156.221,98.2z"/>
<path fill="#C3C3C3" d="M140.24,102.42C140.79,102.91,140.79,102.91,140.24,102.42z"/>
<path fill="#A5A5A5" d="M162.189,103.34c1.23,0.29,1.42,1.08,0.58,2.391C161.52,105.45,161.33,104.65,162.189,103.34z"/>
<path fill="#0A0A0A" d="M20.01,104.16c1.9,0.88,3.58,2.14,4.98,3.689C23.27,106.72,21.59,105.5,20.01,104.16z"/>
<path fill="#ABABAB" d="M160.061,106.35C163.33,106.48,158.561,109.41,160.061,106.35z"/>
<path fill="#B2B2B2" d="M165.92,117.48c-0.46-4.021,0.53-7.881,3.08-11.03v15.13c-1.391,0.2-2.77,0.39-4.16,0.561
	c0.08,1.649,0.15,3.31,0.23,4.969c-3.24,0.971-6.641,1-9.98,0.86c-2.3-1.54-4.76-2.81-7.21-4.069c-3.399,0.789-7.03,1.8-10.47,0.649
	c-2.85-0.95-5.61-2.18-8.17-3.739c-0.54-1.03-1.07-2.061-1.59-3.091c-1.101-1.96-0.48-4.21-0.36-6.31
	c0.681-0.141,2.04-0.42,2.72-0.561c0.5,1.59,0.98,3.17,1.561,4.73l0.529,0.84c0.641,0.98,1.45,1.82,2.271,2.66
	c3.11,1.98,6.86,2.13,10.43,2.02c0.28-2.06,0.58-4.109,0.931-6.149c-0.471,0.02-1.4,0.06-1.871,0.08l0.15-0.97
	c1.58-0.061,3.16-0.121,4.74-0.19c0.811-0.75,1.62-1.49,2.46-2.21c-1.149,1.99-2.84,3.54-4.681,4.859
	c0.671-0.029,1.341-0.069,2.011-0.129c0.88,3.789,3.61,6.939,7.739,7.02c-0.709,0.48-1.42,0.96-2.129,1.439
	c2.199-0.369,4.399-0.709,6.6-1.02c0.43-2.29,0.9-4.58,1.42-6.85C163.42,117.141,164.67,117.311,165.92,117.48z"/>
<path fill="#B5B5B5" d="M157.26,108.061C160.37,106.68,157.27,111.33,157.26,108.061z"/>
<path fill="#BCBCBC" d="M24.08,109.15C27.37,109.22,22.65,112.23,24.08,109.15z"/>
<path fill="#BABABA" d="M155.29,109.23C155.8,109.76,155.8,109.76,155.29,109.23z"/>
<path fill="#9B9B9B" d="M151.23,110.23C151.8,110.75,151.8,110.75,151.23,110.23z"/>
<path fill="#C5C5C5" d="M86.16,116.2C86.689,116.7,86.689,116.7,86.16,116.2z"/>
<path fill="#FFFFFF" d="M129.24,120.811c2.56,1.56,5.32,2.789,8.17,3.739c3.439,1.15,7.07,0.14,10.47-0.649
	c2.45,1.26,4.91,2.529,7.21,4.069c3.34,0.14,6.74,0.11,9.98-0.86c-0.08-1.659-0.15-3.319-0.23-4.969
	c1.391-0.171,2.77-0.36,4.16-0.561V133H89.91c0.1-2.7,0.09-5.4-0.08-8.09c5.08,0.08,10.16,0.14,15.23,0.1
	c1.27,0.01,2.459-0.29,3.569-0.91c4.56-0.229,9.13,0.021,13.7-0.18c1.02-0.45,2.05-0.89,3.08-1.3c1.16-0.31,2.32-0.61,3.48-0.91
	L129.24,120.811z"/>
</svg>
