<?xml version="1.0" encoding="UTF-8" ?>
<!DOCTYPE svg PUBLIC "-//W3C//DTD SVG 1.1//EN" "http://www.w3.org/Graphics/SVG/1.1/DTD/svg11.dtd">
<svg width="894pt" height="894pt" viewBox="0 0 894 894" version="1.1" xmlns="http://www.w3.org/2000/svg">
<path fill="#262626" opacity="1.00" d=" M 283.94 98.24 C 294.76 95.96 306.02 94.22 317.01 96.34 C 324.43 97.73 331.01 101.68 337.25 105.75 C 345.93 111.57 353.92 119.27 357.65 129.25 C 361.74 140.29 362.55 152.16 365.25 163.56 C 363.45 164.25 361.60 164.79 359.72 165.21 C 358.80 154.34 358.26 142.89 352.69 133.20 C 346.40 122.29 337.35 112.96 326.60 106.40 C 318.92 101.76 309.95 99.51 301.02 99.30 C 294.66 99.17 288.18 99.19 282.01 100.98 C 271.85 103.61 262.87 109.26 253.17 113.05 C 262.35 106.24 272.65 100.54 283.94 98.24 Z" />
<path fill="#020202" opacity="1.00" d=" M 389.49 129.51 C 394.13 124.15 401.31 122.07 408.09 121.07 C 401.63 126.27 394.37 130.59 388.91 136.94 C 382.87 143.98 378.01 151.94 373.01 159.72 C 372.39 160.83 371.78 161.95 371.19 163.07 C 393.17 162.81 415.09 161.02 437.06 160.23 C 452.68 159.25 468.35 159.91 483.96 160.73 C 499.84 161.67 515.55 164.35 531.05 167.89 C 574.70 179.95 618.37 193.08 659.16 213.06 C 669.59 218.03 679.08 224.71 689.48 229.74 C 693.21 231.55 697.05 233.20 700.46 235.61 C 707.68 240.58 713.22 247.52 718.27 254.60 C 723.21 261.53 726.65 269.40 729.39 277.43 C 734.24 292.18 736.13 307.66 738.90 322.88 C 739.57 331.08 739.67 339.33 740.66 347.51 C 754.83 349.44 769.03 351.44 782.86 355.15 C 795.16 359.11 807.54 364.02 817.41 372.59 C 828.14 382.32 837.28 393.69 845.21 405.79 C 851.03 414.52 854.04 424.79 856.07 434.99 C 859.33 454.79 862.57 475.21 858.19 495.11 C 855.15 504.87 852.17 514.68 848.13 524.08 C 843.55 534.19 836.29 542.73 829.02 550.99 C 823.36 557.33 818.04 564.01 811.72 569.73 C 803.69 577.21 794.73 583.73 785.08 588.97 C 771.98 594.78 757.52 596.10 744.05 600.74 C 738.38 605.52 733.96 611.58 728.80 616.88 C 720.09 625.84 710.22 633.58 701.42 642.45 C 692.33 651.39 682.33 659.33 673.02 668.03 C 662.29 678.45 649.53 686.44 638.27 696.24 C 620.54 711.80 600.75 724.84 580.18 736.31 C 576.22 738.51 572.52 741.15 568.58 743.38 C 556.99 750.01 544.48 754.77 532.50 760.62 C 510.42 771.11 486.95 778.27 463.43 784.76 C 450.95 788.27 438.18 790.81 425.92 795.09 C 409.80 800.68 393.15 804.54 376.71 809.09 C 363.48 812.78 349.71 814.17 336.00 814.23 C 326.33 814.14 316.66 814.31 306.99 813.87 C 291.21 813.75 275.42 813.32 259.70 811.91 C 244.57 810.52 229.41 808.81 214.66 805.09 C 201.30 801.86 187.77 799.25 174.66 795.07 C 167.60 792.89 160.81 789.98 153.99 787.17 C 144.64 783.26 135.32 778.97 127.26 772.75 C 118.17 765.67 111.43 755.95 106.77 745.50 C 104.64 740.72 103.13 735.71 101.34 730.81 C 98.64 723.24 95.60 715.73 94.07 707.81 C 92.81 699.23 91.66 690.64 90.54 682.05 C 87.58 659.18 91.25 636.05 96.87 613.87 C 100.03 601.77 102.41 589.20 101.10 576.65 C 100.93 573.09 99.13 569.84 96.57 567.42 C 87.51 558.47 76.16 552.44 65.83 545.15 C 51.17 534.71 40.27 519.71 32.78 503.49 C 28.77 494.63 25.27 485.42 23.74 475.78 C 23.13 470.54 22.88 465.27 22.84 460.00 C 23.18 449.18 23.69 438.31 25.79 427.66 C 29.01 412.11 36.39 397.60 46.25 385.21 C 52.32 377.68 58.81 370.46 66.01 363.98 C 74.03 356.93 83.79 351.79 94.24 349.51 C 99.87 348.26 105.64 347.82 111.38 347.32 C 112.25 336.81 111.24 325.70 115.90 315.91 C 121.86 303.73 128.70 291.87 137.39 281.40 C 144.86 272.29 151.90 262.57 161.45 255.46 C 170.42 248.81 178.83 241.44 187.84 234.85 C 192.07 231.74 196.50 228.93 200.78 225.90 C 210.83 218.84 220.70 211.37 231.82 206.03 C 244.78 199.83 257.39 192.68 271.18 188.41 C 284.12 184.34 296.90 179.81 309.82 175.71 C 316.42 173.57 323.01 171.32 329.83 169.98 C 339.72 167.99 349.77 166.89 359.72 165.21 C 361.60 164.79 363.45 164.25 365.25 163.56 C 366.28 162.82 366.92 161.69 367.62 160.66 C 374.21 149.82 380.96 138.96 389.49 129.51 M 382.99 181.38 C 368.43 182.17 354.03 184.57 339.71 187.26 C 319.13 191.17 298.76 196.20 278.79 202.54 C 264.88 206.91 250.79 211.05 237.78 217.76 C 214.90 228.73 194.39 243.89 174.37 259.32 C 169.33 263.27 164.06 266.97 159.50 271.48 C 146.11 284.30 136.45 300.33 127.17 316.23 C 123.77 322.24 120.39 328.39 118.57 335.10 C 116.70 341.94 118.62 349.19 116.96 356.03 C 115.05 358.22 112.29 359.44 109.59 360.35 C 100.88 362.94 91.65 363.30 83.07 366.38 C 78.76 367.87 74.66 370.16 71.45 373.44 C 62.84 382.04 56.15 392.42 51.03 403.42 C 47.10 411.71 46.09 420.98 45.65 430.04 C 45.36 438.69 45.14 447.35 45.24 456.01 C 45.31 462.59 46.20 469.23 48.54 475.41 C 53.77 489.36 61.17 502.63 71.19 513.72 C 80.91 524.32 94.15 530.69 104.54 540.50 C 111.03 547.28 110.76 557.26 113.19 565.76 C 113.91 579.55 113.23 593.38 112.21 607.13 L 112.01 607.95 C 107.98 615.32 106.93 623.87 106.40 632.13 C 106.25 636.24 105.35 640.44 106.59 644.49 C 106.25 650.09 106.33 655.73 106.51 661.34 C 105.07 663.94 106.13 666.85 106.61 669.56 C 107.85 674.73 108.50 680.05 110.14 685.13 C 113.97 704.68 120.60 724.18 132.84 740.14 C 138.80 747.82 145.98 754.71 154.55 759.41 C 171.99 769.10 190.93 776.11 210.49 780.11 C 222.63 782.62 234.63 786.05 247.00 787.32 C 255.92 788.18 264.83 789.20 273.77 789.76 C 278.69 790.87 283.77 790.68 288.76 791.14 C 292.28 791.43 295.81 791.54 299.34 791.37 C 312.55 792.02 325.78 791.84 339.00 791.81 C 352.85 791.88 366.90 792.07 380.46 788.77 C 402.20 783.29 423.87 777.46 445.11 770.26 C 465.35 764.34 485.62 758.46 505.68 751.93 C 520.06 747.08 533.78 740.57 547.81 734.84 C 556.54 731.28 565.15 727.30 573.03 722.09 C 586.79 713.03 601.59 705.63 614.97 695.98 C 625.88 688.40 635.34 678.99 645.99 671.06 C 653.20 665.65 660.50 660.28 667.03 654.03 C 674.62 646.57 683.05 640.05 690.92 632.91 C 694.23 629.88 697.27 626.58 700.58 623.56 C 706.18 618.50 712.03 613.72 717.39 608.41 C 721.94 603.94 725.50 598.63 729.64 593.81 C 735.52 586.91 742.31 580.68 750.12 576.02 C 751.62 575.10 753.24 574.39 754.97 573.98 C 763.12 571.93 771.74 572.20 779.74 569.46 C 785.28 567.61 789.78 563.76 794.44 560.39 C 807.48 550.56 819.56 538.45 825.80 523.08 C 828.26 519.93 830.00 516.31 831.52 512.63 C 834.75 504.83 837.22 496.55 837.48 488.06 C 837.72 476.95 838.63 465.51 834.84 454.83 C 833.83 446.83 832.39 438.81 829.60 431.23 C 827.15 424.48 822.97 418.58 819.31 412.47 C 811.94 400.69 803.35 388.95 790.95 382.09 C 777.43 374.91 763.23 369.07 748.77 364.08 C 745.29 362.86 741.71 361.58 737.97 361.69 C 732.85 361.76 727.91 363.27 722.86 363.81 C 721.23 351.08 720.52 338.12 716.90 325.75 C 713.06 312.74 709.86 299.49 704.82 286.88 C 700.24 276.25 693.87 266.42 686.26 257.72 C 679.18 250.91 669.02 249.19 660.87 244.06 C 644.38 233.61 626.66 225.27 608.83 217.39 C 595.18 211.15 580.51 207.76 566.35 202.95 C 554.07 198.85 541.29 196.49 529.04 192.30 C 514.09 187.17 498.69 183.07 482.94 181.46 C 467.68 179.77 452.31 180.40 437.00 180.31 C 418.99 180.40 400.96 180.07 382.99 181.38 Z" />
<path fill="#767676" opacity="1.00" d=" M 399.98 159.87 C 420.30 159.02 440.65 159.53 460.99 159.39 C 473.33 159.46 485.71 158.81 498.01 160.06 C 509.30 161.13 520.62 163.32 531.05 167.89 C 515.55 164.35 499.84 161.67 483.96 160.73 C 468.35 159.91 452.68 159.25 437.06 160.23 C 415.09 161.02 393.17 162.81 371.19 163.07 C 371.78 161.95 372.39 160.83 373.01 159.72 C 381.96 160.78 391.00 160.54 399.98 159.87 Z" />
<path fill="#ffffff" opacity="1.00" d=" M 382.99 181.38 C 400.96 180.07 418.99 180.40 437.00 180.31 C 452.31 180.40 467.68 179.77 482.94 181.46 C 498.69 183.07 514.09 187.17 529.04 192.30 C 541.29 196.49 554.07 198.85 566.35 202.95 C 580.51 207.76 595.18 211.15 608.83 217.39 C 626.66 225.27 644.38 233.61 660.87 244.06 C 669.02 249.19 679.18 250.91 686.26 257.72 C 693.87 266.42 700.24 276.25 704.82 286.88 C 709.86 299.49 713.06 312.74 716.90 325.75 C 720.52 338.12 721.23 351.08 722.86 363.81 C 727.91 363.27 732.85 361.76 737.97 361.69 C 741.71 361.58 745.29 362.86 748.77 364.08 C 763.23 369.07 777.43 374.91 790.95 382.09 C 803.35 388.95 811.94 400.69 819.31 412.47 C 822.97 418.58 827.15 424.48 829.60 431.23 C 832.39 438.81 833.83 446.83 834.84 454.83 C 836.10 469.02 837.79 483.60 834.11 497.59 C 831.72 506.21 828.53 514.58 825.80 523.08 C 819.56 538.45 807.48 550.56 794.44 560.39 C 789.78 563.76 785.28 567.61 779.74 569.46 C 771.74 572.20 763.12 571.93 754.97 573.98 C 753.24 574.39 751.62 575.10 750.12 576.02 C 742.31 580.68 735.52 586.91 729.64 593.81 C 725.50 598.63 721.94 603.94 717.39 608.41 C 712.03 613.72 706.18 618.50 700.58 623.56 C 697.27 626.58 694.23 629.88 690.92 632.91 C 683.05 640.05 674.62 646.57 667.03 654.03 C 660.50 660.28 653.20 665.65 645.99 671.06 C 635.34 678.99 625.88 688.40 614.97 695.98 C 601.59 705.63 586.79 713.03 573.03 722.09 C 565.15 727.30 556.54 731.28 547.81 734.84 C 533.78 740.57 520.06 747.08 505.68 751.93 C 485.62 758.46 465.35 764.34 445.11 770.26 C 423.87 777.46 402.20 783.29 380.46 788.77 C 366.90 792.07 352.85 791.88 339.00 791.81 C 325.78 791.84 312.55 792.02 299.34 791.37 C 290.83 790.64 282.30 790.12 273.77 789.76 C 264.83 789.20 255.92 788.18 247.00 787.32 C 234.63 786.05 222.63 782.62 210.49 780.11 C 190.93 776.11 171.99 769.10 154.55 759.41 C 145.98 754.71 138.80 747.82 132.84 740.14 C 120.60 724.18 113.97 704.68 110.14 685.13 C 108.84 677.21 107.44 669.31 106.51 661.34 C 106.33 655.73 106.25 650.09 106.59 644.49 C 108.50 632.33 109.29 619.99 112.01 607.95 L 112.21 607.13 C 116.10 593.75 117.13 579.27 113.19 565.76 C 110.76 557.26 111.03 547.28 104.54 540.50 C 94.15 530.69 80.91 524.32 71.19 513.72 C 61.17 502.63 53.77 489.36 48.54 475.41 C 46.20 469.23 45.31 462.59 45.24 456.01 C 45.14 447.35 45.36 438.69 45.65 430.04 C 46.09 420.98 47.10 411.71 51.03 403.42 C 56.15 392.42 62.84 382.04 71.45 373.44 C 74.66 370.16 78.76 367.87 83.07 366.38 C 91.65 363.30 100.88 362.94 109.59 360.35 C 112.29 359.44 115.05 358.22 116.96 356.03 C 118.62 349.19 116.70 341.94 118.57 335.10 C 120.39 328.39 123.77 322.24 127.17 316.23 C 136.45 300.33 146.11 284.30 159.50 271.48 C 164.06 266.97 169.33 263.27 174.37 259.32 C 194.39 243.89 214.90 228.73 237.78 217.76 C 250.79 211.05 264.88 206.91 278.79 202.54 C 298.76 196.20 319.13 191.17 339.71 187.26 C 354.03 184.57 368.43 182.17 382.99 181.38 M 513.35 318.82 C 512.27 318.70 511.21 318.57 510.15 318.42 L 510.36 318.54 C 499.26 319.20 488.45 322.52 477.77 325.53 C 470.41 327.47 463.29 330.57 457.15 335.11 C 443.87 341.36 431.98 350.32 421.65 360.70 C 418.85 363.58 416.01 366.49 413.98 369.99 C 411.78 373.77 410.39 377.96 409.36 382.20 C 417.44 379.84 422.08 372.33 427.42 366.44 C 431.50 361.68 436.95 358.46 442.07 354.97 C 450.85 349.09 460.16 344.01 469.87 339.84 C 476.30 337.87 483.03 337.41 489.71 337.22 C 489.84 346.33 488.76 355.60 490.86 364.57 C 492.84 372.56 498.00 379.14 502.04 386.16 C 498.44 388.20 494.59 389.80 491.14 392.11 C 469.74 399.16 449.20 410.12 433.41 426.42 C 429.55 430.21 426.90 435.03 424.88 440.00 C 438.08 435.30 447.75 424.64 459.54 417.54 C 473.00 409.36 488.26 405.03 502.69 398.95 C 517.91 397.83 532.56 391.34 548.01 392.85 C 554.57 393.11 561.05 394.90 567.64 394.37 C 575.45 396.39 582.69 400.14 590.57 401.90 C 589.47 399.63 588.44 397.22 586.48 395.56 C 582.68 392.23 577.78 390.68 573.29 388.54 C 582.20 379.97 585.39 366.71 596.08 359.81 C 592.22 343.05 578.68 329.68 563.15 323.14 C 557.49 319.49 550.60 318.52 544.01 318.15 C 537.04 317.68 530.05 318.62 523.08 317.96 C 519.81 317.67 516.44 317.50 513.35 318.82 M 623.73 359.00 C 622.48 359.20 621.83 360.37 621.18 361.30 C 618.59 365.33 616.89 369.83 615.14 374.26 C 620.27 376.42 625.37 378.68 630.42 381.03 C 631.83 378.34 633.02 375.56 634.01 372.70 C 630.98 371.73 627.95 370.77 624.93 369.78 C 627.92 365.85 630.93 361.93 633.51 357.71 C 630.25 358.17 626.94 358.27 623.73 359.00 M 220.95 362.20 C 213.63 362.98 206.25 363.20 198.97 364.36 C 189.54 365.75 180.25 367.96 171.04 370.36 C 168.03 371.17 164.89 371.78 162.22 373.46 C 159.79 374.96 157.86 377.11 155.99 379.24 C 164.83 378.32 173.45 375.94 181.79 372.93 C 193.81 371.44 205.88 370.15 218.00 369.79 C 222.57 369.80 227.18 369.90 231.70 370.61 C 232.69 371.76 232.38 373.49 232.75 374.90 C 230.63 378.21 228.77 381.85 228.27 385.81 C 226.08 392.20 226.09 399.08 226.69 405.73 C 227.42 412.92 229.71 419.80 231.41 426.79 C 225.61 426.44 219.83 425.53 214.01 425.92 C 204.65 426.37 195.12 428.26 186.86 432.83 C 183.27 434.26 180.32 436.91 177.62 439.61 C 176.99 439.81 176.37 440.04 175.76 440.31 C 182.56 442.29 189.64 440.74 196.32 439.06 C 198.81 438.37 201.54 437.97 203.56 436.21 C 207.36 435.62 211.13 434.70 215.00 434.70 C 222.99 434.57 231.09 434.31 238.94 436.06 C 248.64 438.77 255.65 446.62 264.80 450.48 C 275.13 454.90 285.76 458.61 296.53 461.81 C 294.86 456.64 291.49 452.25 287.45 448.70 C 291.94 443.22 296.16 437.55 300.35 431.86 C 302.51 445.08 304.39 458.58 302.81 471.97 C 302.57 475.53 300.58 478.60 298.28 481.20 C 291.88 488.52 284.17 494.70 278.68 502.80 C 275.75 506.93 273.77 511.75 273.03 516.77 C 272.34 519.68 271.82 522.63 271.35 525.59 C 267.15 523.70 262.26 522.62 258.98 519.22 C 257.89 515.25 257.95 511.08 257.48 507.02 C 254.37 508.85 250.54 510.57 249.43 514.33 C 247.67 519.87 249.64 527.21 255.36 529.57 C 260.92 531.65 266.99 531.57 272.69 533.08 C 279.04 534.60 284.53 538.41 290.83 540.04 C 294.85 541.08 299.13 540.97 303.15 539.96 C 306.57 539.10 310.12 538.26 312.98 536.10 C 321.34 530.52 329.59 523.52 332.94 513.71 C 330.14 513.76 327.05 513.10 324.56 514.73 C 318.01 518.59 312.83 524.68 305.53 527.27 C 302.90 528.26 300.01 527.63 297.47 526.69 C 292.91 524.91 288.82 522.17 284.50 519.91 C 284.72 514.06 284.74 507.45 288.89 502.83 C 297.56 492.21 310.20 483.97 314.15 470.17 C 315.84 465.29 317.03 460.17 316.70 454.97 C 316.08 443.70 313.80 432.59 311.14 421.65 C 309.59 415.42 307.18 408.96 302.11 404.74 C 300.38 401.65 297.88 399.10 295.57 396.45 C 285.04 384.51 272.65 373.91 258.18 367.06 C 252.47 364.35 246.45 362.00 240.10 361.52 C 233.72 361.03 227.30 361.46 220.95 362.20 M 131.76 387.95 C 130.43 389.90 130.70 392.53 130.23 394.78 C 135.46 394.69 140.70 394.44 145.93 394.40 C 146.35 391.97 146.70 389.53 146.96 387.08 C 141.89 387.31 136.80 387.34 131.76 387.95 M 140.96 404.10 C 138.64 406.08 137.50 409.05 136.04 411.65 C 141.00 410.76 145.90 409.56 150.81 408.43 C 150.82 406.42 150.82 404.42 150.81 402.43 C 147.52 402.95 144.15 403.14 140.96 404.10 M 540.57 433.54 C 529.45 435.95 519.61 442.67 512.14 451.11 C 508.39 455.40 505.77 461.22 506.96 466.99 C 507.72 470.72 511.09 473.30 514.57 474.37 C 523.41 477.18 532.83 477.28 542.01 476.99 C 562.35 476.01 583.12 468.34 596.87 452.87 C 600.99 448.26 601.25 441.73 601.55 435.88 C 593.73 432.93 585.31 431.88 577.00 431.87 C 564.85 431.91 552.60 431.46 540.57 433.54 M 170.47 486.63 C 162.63 487.45 154.73 489.01 147.61 492.54 C 138.12 497.11 129.45 504.16 124.60 513.65 C 121.20 521.69 123.45 532.09 130.43 537.53 C 132.84 539.48 135.99 540.09 139.01 540.25 C 150.59 540.81 162.32 540.43 173.63 537.68 C 179.78 536.08 186.02 534.07 191.14 530.17 C 197.63 525.22 202.65 518.56 206.45 511.38 C 208.77 506.95 210.42 502.00 210.10 496.94 C 209.97 494.34 209.31 491.50 207.19 489.79 C 204.60 487.72 201.20 487.16 198.00 486.82 C 188.85 486.01 179.63 485.85 170.47 486.63 M 557.92 490.97 C 555.62 491.85 553.47 493.07 551.36 494.31 C 550.91 494.21 550.01 494.00 549.56 493.90 C 550.24 495.75 550.67 498.57 553.11 498.80 C 557.54 499.73 562.15 499.84 566.45 501.39 C 571.06 502.89 575.75 505.76 577.54 510.51 C 579.46 515.79 579.24 521.51 579.98 527.02 C 581.90 526.41 583.83 525.79 585.76 525.18 L 585.49 524.69 C 587.73 520.14 590.37 515.23 589.42 509.98 C 588.82 505.86 585.97 502.62 583.05 499.88 C 578.50 495.61 573.30 491.71 567.19 490.09 C 564.08 489.19 560.82 489.64 557.92 490.97 M 354.82 504.92 C 354.77 511.20 354.64 517.48 354.49 523.77 C 357.57 521.81 360.87 520.06 363.40 517.37 C 365.91 514.76 366.44 510.72 365.47 507.34 C 363.89 504.10 360.78 502.03 358.08 499.80 C 356.85 501.38 354.69 502.66 354.82 504.92 M 413.07 505.39 C 420.23 515.18 432.39 519.72 443.92 521.83 C 457.42 523.61 471.27 522.18 484.29 518.25 C 487.21 517.87 486.14 514.42 486.49 512.42 C 473.83 514.75 461.00 518.31 448.04 516.32 C 435.94 514.13 425.31 507.01 413.07 505.39 M 531.18 533.82 C 522.70 538.44 514.71 544.00 505.82 547.85 C 491.47 554.05 477.84 562.05 462.78 566.51 C 441.52 572.83 420.15 579.41 398.01 581.79 C 385.10 583.20 372.41 586.08 359.51 587.50 C 355.84 586.03 351.86 586.49 348.02 586.57 C 341.90 586.74 335.81 587.39 329.75 588.19 C 313.44 590.06 297.20 586.84 280.96 585.73 C 271.76 584.99 262.30 584.87 253.56 581.57 C 248.18 579.70 243.26 576.72 237.79 575.08 C 236.02 573.95 234.07 572.93 231.94 572.77 C 229.00 572.77 226.22 574.13 224.01 575.99 C 217.66 581.26 212.27 588.02 209.86 596.00 C 205.35 604.89 204.10 615.13 204.91 624.99 C 205.68 635.89 208.52 646.49 211.12 657.06 C 213.07 665.06 215.87 672.90 219.99 680.06 C 221.08 682.02 222.53 683.76 224.27 685.19 L 223.89 683.99 C 226.17 689.06 230.22 693.27 235.12 695.87 C 238.96 697.90 242.76 700.21 247.07 701.10 C 246.47 701.06 245.28 700.99 244.68 700.95 C 253.21 706.74 263.92 708.01 274.00 707.72 C 293.58 707.48 313.40 709.15 332.76 705.36 C 344.54 703.25 356.36 701.33 368.05 698.80 C 376.87 697.03 385.80 695.39 394.17 692.00 C 397.69 690.55 401.33 689.41 404.82 687.89 C 419.73 683.99 434.02 677.93 447.58 670.65 C 463.92 662.04 482.05 656.34 496.44 644.40 C 514.03 628.45 528.24 608.81 538.05 587.21 C 541.60 581.63 544.42 575.53 545.81 569.06 C 547.66 560.11 547.43 550.85 545.97 541.86 C 545.14 537.65 543.61 533.14 539.97 530.54 C 536.76 530.63 533.96 532.41 531.18 533.82 M 212.35 555.35 C 207.28 559.36 205.71 566.05 204.01 571.97 C 208.13 568.10 211.27 563.31 215.45 559.51 C 219.27 558.28 223.35 558.20 227.26 557.34 C 227.25 555.68 227.26 554.03 227.27 552.39 C 222.25 552.72 216.72 552.49 212.35 555.35 M 560.38 604.11 C 572.63 597.06 580.73 583.35 580.63 569.17 C 572.93 580.25 567.32 592.57 560.38 604.11 M 184.42 613.84 C 183.74 622.86 183.95 632.41 188.31 640.57 C 190.68 645.30 195.55 647.93 200.15 650.06 C 197.75 644.15 194.22 638.75 192.19 632.67 C 190.01 626.25 188.48 619.43 184.42 613.84 M 271.03 725.41 C 266.98 726.19 263.93 729.14 261.07 731.90 C 271.77 731.31 282.12 727.58 292.90 727.89 C 305.04 728.71 316.87 732.07 329.03 732.74 C 326.44 729.22 323.31 725.62 318.91 724.49 C 314.66 723.50 310.26 723.53 305.94 723.20 C 294.29 722.22 282.44 722.77 271.03 725.41 Z" />
<path fill="#868686" opacity="1.00" d=" M 513.35 318.82 C 516.44 317.50 519.81 317.67 523.08 317.96 C 530.05 318.62 537.04 317.68 544.01 318.15 C 550.60 318.52 557.49 319.49 563.15 323.14 C 552.33 320.31 541.18 318.80 530.00 318.63 C 524.45 318.56 518.86 320.02 513.35 318.82 Z" />
<path fill="#030303" opacity="1.00" d=" M 510.15 318.42 C 511.21 318.57 512.27 318.70 513.35 318.82 C 518.86 320.02 524.45 318.56 530.00 318.63 C 541.18 318.80 552.33 320.31 563.15 323.14 C 578.68 329.68 592.22 343.05 596.08 359.81 C 585.39 366.71 582.20 379.97 573.29 388.54 C 577.78 390.68 582.68 392.23 586.48 395.56 C 588.44 397.22 589.47 399.63 590.57 401.90 C 582.69 400.14 575.45 396.39 567.64 394.37 C 562.96 392.67 558.06 391.57 553.07 391.50 C 536.05 391.01 518.56 392.34 502.69 398.95 C 488.26 405.03 473.00 409.36 459.54 417.54 C 447.75 424.64 438.08 435.30 424.88 440.00 C 426.90 435.03 429.55 430.21 433.41 426.42 C 449.20 410.12 469.74 399.16 491.14 392.11 C 496.34 390.72 501.57 389.40 506.57 387.39 C 500.97 379.17 494.61 370.96 492.61 360.97 C 490.48 351.81 492.42 342.45 492.71 333.21 C 485.00 335.04 477.19 336.74 469.87 339.84 C 460.16 344.01 450.85 349.09 442.07 354.97 C 436.95 358.46 431.50 361.68 427.42 366.44 C 422.08 372.33 417.44 379.84 409.36 382.20 C 410.39 377.96 411.78 373.77 413.98 369.99 C 416.01 366.49 418.85 363.58 421.65 360.70 C 431.98 350.32 443.87 341.36 457.15 335.11 C 474.98 328.16 493.43 322.61 512.40 319.84 C 511.89 319.52 510.87 318.87 510.36 318.54 L 510.15 318.42 M 510.23 330.36 C 506.20 331.28 502.00 330.92 498.00 331.97 L 497.47 332.00 C 497.49 337.85 496.83 343.74 497.63 349.55 C 499.28 352.17 502.25 353.70 505.21 354.34 C 510.39 355.31 515.88 354.22 520.45 351.63 C 522.05 352.63 523.32 354.06 524.32 355.66 C 521.15 357.32 518.03 359.07 514.73 360.45 C 509.41 359.59 504.02 360.00 498.66 360.21 C 498.84 364.86 500.35 369.29 501.51 373.77 C 505.30 376.88 508.91 380.25 513.08 382.87 C 518.78 386.62 526.78 387.18 532.61 383.42 C 534.28 383.48 535.95 383.52 537.62 383.58 C 539.43 378.37 541.35 373.13 544.49 368.54 C 546.94 364.72 550.38 361.70 553.61 358.55 C 557.30 361.29 561.43 363.79 563.83 367.85 L 563.15 367.43 C 559.84 367.72 556.43 368.12 553.39 369.53 C 549.00 372.15 547.25 377.35 546.46 382.13 C 548.86 384.57 552.18 386.29 555.68 385.31 C 558.76 385.76 561.90 386.14 565.01 385.77 C 567.29 385.70 568.58 383.55 569.90 381.99 C 575.96 373.72 579.72 363.83 581.26 353.73 C 579.80 353.82 578.34 353.87 576.89 353.85 C 576.01 352.22 574.59 350.99 573.29 349.72 C 566.77 343.58 559.42 338.07 551.02 334.80 C 548.63 333.16 546.24 330.48 543.03 331.19 C 537.87 332.06 534.18 336.14 530.03 338.97 C 530.41 335.66 530.75 332.34 531.04 329.03 C 524.09 328.73 517.05 328.79 510.23 330.36 Z" />
<path fill="#858585" opacity="1.00" d=" M 477.77 325.53 C 488.45 322.52 499.26 319.20 510.36 318.54 C 510.87 318.87 511.89 319.52 512.40 319.84 C 493.43 322.61 474.98 328.16 457.15 335.11 C 463.29 330.57 470.41 327.47 477.77 325.53 Z" />
<path fill="#787878" opacity="1.00" d=" M 738.90 322.88 C 741.22 330.57 741.51 338.63 742.28 346.57 C 756.05 347.37 770.66 348.00 782.86 355.15 C 769.03 351.44 754.83 349.44 740.66 347.51 C 739.67 339.33 739.57 331.08 738.90 322.88 Z" />
<path fill="#414141" opacity="1.00" d=" M 510.23 330.36 C 517.05 328.79 524.09 328.73 531.04 329.03 C 530.75 332.34 530.41 335.66 530.03 338.97 C 534.18 336.14 537.87 332.06 543.03 331.19 C 546.24 330.48 548.63 333.16 551.02 334.80 C 546.61 334.56 542.23 335.25 537.97 336.29 C 546.22 340.42 554.53 344.53 562.02 349.98 C 567.22 353.51 571.74 357.91 576.48 362.02 C 576.66 359.30 576.88 356.58 576.89 353.85 C 578.34 353.87 579.80 353.82 581.26 353.73 C 579.72 363.83 575.96 373.72 569.90 381.99 C 568.58 383.55 567.29 385.70 565.01 385.77 C 561.90 386.14 558.76 385.76 555.68 385.31 C 560.29 384.41 564.87 383.33 569.44 382.24 C 567.74 377.38 566.29 372.39 563.83 367.85 C 561.43 363.79 557.30 361.29 553.61 358.55 C 549.14 355.36 544.41 351.88 538.77 351.36 C 533.61 351.09 528.84 353.51 524.32 355.66 C 523.32 354.06 522.05 352.63 520.45 351.63 C 521.97 350.31 523.18 348.66 524.05 346.84 C 526.27 342.28 527.94 337.47 529.63 332.68 C 519.13 331.41 508.54 330.97 498.00 331.97 C 502.00 330.92 506.20 331.28 510.23 330.36 Z" />
<path fill="#fcfcfc" opacity="1.00" d=" M 497.47 332.00 L 498.00 331.97 C 508.54 330.97 519.13 331.41 529.63 332.68 C 527.94 337.47 526.27 342.28 524.05 346.84 C 523.18 348.66 521.97 350.31 520.45 351.63 C 515.88 354.22 510.39 355.31 505.21 354.34 C 502.25 353.70 499.28 352.17 497.63 349.55 C 496.83 343.74 497.49 337.85 497.47 332.00 Z" />
<path fill="#797979" opacity="1.00" d=" M 469.87 339.84 C 477.19 336.74 485.00 335.04 492.71 333.21 C 492.42 342.45 490.48 351.81 492.61 360.97 C 494.61 370.96 500.97 379.17 506.57 387.39 C 501.57 389.40 496.34 390.72 491.14 392.11 C 494.59 389.80 498.44 388.20 502.04 386.16 C 498.00 379.14 492.84 372.56 490.86 364.57 C 488.76 355.60 489.84 346.33 489.71 337.22 C 483.03 337.41 476.30 337.87 469.87 339.84 Z" />
<path fill="#868686" opacity="1.00" d=" M 537.97 336.29 C 542.23 335.25 546.61 334.56 551.02 334.80 C 559.42 338.07 566.77 343.58 573.29 349.72 C 574.59 350.99 576.01 352.22 576.89 353.85 C 576.88 356.58 576.66 359.30 576.48 362.02 C 571.74 357.91 567.22 353.51 562.02 349.98 C 554.53 344.53 546.22 340.42 537.97 336.29 Z" />
<path fill="#707070" opacity="1.00" d=" M 524.32 355.66 C 528.84 353.51 533.61 351.09 538.77 351.36 C 544.41 351.88 549.14 355.36 553.61 358.55 C 550.38 361.70 546.94 364.72 544.49 368.54 C 541.35 373.13 539.43 378.37 537.62 383.58 C 535.95 383.52 534.28 383.48 532.61 383.42 L 531.66 383.39 C 533.61 383.24 535.55 383.02 537.50 382.82 C 536.79 378.49 535.72 374.23 534.20 370.11 C 532.95 367.22 532.21 363.27 528.82 362.15 C 524.53 360.73 519.94 360.85 515.48 360.51 L 514.73 360.45 C 518.03 359.07 521.15 357.32 524.32 355.66 Z" />
<path fill="#050505" opacity="1.00" d=" M 623.73 359.00 C 626.94 358.27 630.25 358.17 633.51 357.71 C 630.93 361.93 627.92 365.85 624.93 369.78 C 627.95 370.77 630.98 371.73 634.01 372.70 C 633.02 375.56 631.83 378.34 630.42 381.03 C 625.37 378.68 620.27 376.42 615.14 374.26 C 616.89 369.83 618.59 365.33 621.18 361.30 C 621.83 360.37 622.48 359.20 623.73 359.00 Z" />
<path fill="#3f3f3f" opacity="1.00" d=" M 498.66 360.21 C 504.02 360.00 509.41 359.59 514.73 360.45 L 515.48 360.51 C 513.14 361.49 510.86 362.60 508.53 363.61 L 507.87 363.89 C 506.39 364.67 504.51 365.20 503.75 366.84 C 502.68 369.03 502.16 371.43 501.51 373.77 C 500.35 369.29 498.84 364.86 498.66 360.21 Z" />
<path fill="#030303" opacity="1.00" d=" M 220.95 362.20 C 227.30 361.46 233.72 361.03 240.10 361.52 C 246.45 362.00 252.47 364.35 258.18 367.06 C 272.65 373.91 285.04 384.51 295.57 396.45 C 297.88 399.10 300.38 401.65 302.11 404.74 C 307.23 416.28 311.07 428.43 312.75 440.98 C 313.99 450.64 314.68 460.42 314.15 470.17 C 310.20 483.97 297.56 492.21 288.89 502.83 C 284.74 507.45 284.72 514.06 284.50 519.91 C 288.82 522.17 292.91 524.91 297.47 526.69 C 300.01 527.63 302.90 528.26 305.53 527.27 C 312.83 524.68 318.01 518.59 324.56 514.73 C 327.05 513.10 330.14 513.76 332.94 513.71 C 329.59 523.52 321.34 530.52 312.98 536.10 C 308.92 537.90 304.46 538.89 300.01 538.57 C 290.25 538.02 281.30 533.74 271.93 531.39 C 267.14 530.12 262.18 529.44 257.52 527.70 C 255.53 526.92 253.22 525.82 252.75 523.50 C 251.77 519.49 252.32 515.32 252.64 511.26 C 254.85 515.06 256.35 519.37 259.31 522.69 C 262.74 525.81 267.47 526.77 271.78 528.07 C 272.30 524.31 272.57 520.53 273.03 516.77 C 273.77 511.75 275.75 506.93 278.68 502.80 C 284.17 494.70 291.88 488.52 298.28 481.20 C 300.58 478.60 302.57 475.53 302.81 471.97 C 304.39 458.58 302.51 445.08 300.35 431.86 C 296.16 437.55 291.94 443.22 287.45 448.70 C 291.49 452.25 294.86 456.64 296.53 461.81 C 285.76 458.61 275.13 454.90 264.80 450.48 C 255.65 446.62 248.64 438.77 238.94 436.06 C 231.09 434.31 222.99 434.57 215.00 434.70 C 211.13 434.70 207.36 435.62 203.56 436.21 C 194.78 436.03 186.26 438.39 177.62 439.61 C 180.32 436.91 183.27 434.26 186.86 432.83 C 196.02 430.26 205.47 428.55 215.01 428.53 C 221.91 428.38 228.76 429.42 235.58 430.32 C 233.99 425.36 232.19 420.45 231.05 415.35 C 228.85 405.68 228.10 395.71 228.27 385.81 C 228.77 381.85 230.63 378.21 232.75 374.90 C 234.79 385.77 235.00 396.87 235.48 407.89 C 240.65 406.98 245.77 405.82 250.90 404.74 C 252.74 404.37 254.57 403.80 256.11 402.68 C 259.46 397.44 262.74 392.13 265.46 386.52 C 263.01 385.05 260.57 383.57 258.11 382.11 C 251.92 377.37 245.41 372.90 238.08 370.13 C 230.09 367.15 221.41 367.03 212.99 367.13 C 202.36 367.27 191.83 369.50 181.79 372.93 C 173.45 375.94 164.83 378.32 155.99 379.24 C 157.86 377.11 159.79 374.96 162.22 373.46 C 164.89 371.78 168.03 371.17 171.04 370.36 C 180.25 367.96 189.54 365.75 198.97 364.36 C 206.25 363.20 213.63 362.98 220.95 362.20 M 270.28 392.11 C 265.40 396.99 262.52 403.80 256.66 407.71 C 252.31 409.73 247.25 409.11 242.81 410.85 C 239.90 413.17 238.88 417.06 238.09 420.56 C 241.87 425.99 244.56 432.35 249.93 436.50 C 257.37 436.63 264.38 439.24 271.58 440.74 C 272.27 444.25 274.82 446.94 276.93 449.70 C 279.68 447.50 282.92 445.46 284.12 441.95 C 283.99 442.44 283.74 443.42 283.62 443.91 C 285.68 442.66 287.93 441.50 289.44 439.56 C 290.46 437.47 289.99 435.05 290.07 432.83 C 289.60 432.87 288.66 432.95 288.20 432.98 C 286.96 432.53 285.77 431.61 284.42 431.72 C 280.00 429.61 274.94 430.96 270.41 429.31 C 272.40 427.42 274.26 425.36 275.79 423.08 C 282.99 422.94 290.19 422.30 297.39 423.06 C 296.99 416.69 293.23 411.00 287.89 407.65 C 284.44 403.27 280.81 399.04 277.60 394.48 C 275.25 393.51 272.93 391.82 270.28 392.11 Z" />
<path fill="#969696" opacity="1.00" d=" M 508.53 363.61 C 510.86 362.60 513.14 361.49 515.48 360.51 C 519.94 360.85 524.53 360.73 528.82 362.15 C 532.21 363.27 532.95 367.22 534.20 370.11 C 525.32 369.52 516.78 366.76 508.53 363.61 Z" />
<path fill="#969696" opacity="1.00" d=" M 503.75 366.84 C 504.51 365.20 506.39 364.67 507.87 363.89 C 508.02 367.72 507.74 371.63 508.67 375.39 C 509.61 378.88 513.07 380.85 516.35 381.73 C 521.33 383.05 526.54 383.14 531.66 383.39 L 532.61 383.42 C 526.78 387.18 518.78 386.62 513.08 382.87 C 508.91 380.25 505.30 376.88 501.51 373.77 C 502.16 371.43 502.68 369.03 503.75 366.84 Z" />
<path fill="#c3c3c3" opacity="1.00" d=" M 507.87 363.89 L 508.53 363.61 C 516.78 366.76 525.32 369.52 534.20 370.11 C 535.72 374.23 536.79 378.49 537.50 382.82 C 535.55 383.02 533.61 383.24 531.66 383.39 C 526.54 383.14 521.33 383.05 516.35 381.73 C 513.07 380.85 509.61 378.88 508.67 375.39 C 507.74 371.63 508.02 367.72 507.87 363.89 Z" />
<path fill="#808080" opacity="1.00" d=" M 181.79 372.93 C 191.83 369.50 202.36 367.27 212.99 367.13 C 221.41 367.03 230.09 367.15 238.08 370.13 C 245.41 372.90 251.92 377.37 258.11 382.11 C 250.84 379.07 243.74 375.63 236.55 372.39 C 235.94 381.51 235.17 390.74 237.18 399.75 C 243.03 402.50 249.67 403.99 256.11 402.68 C 254.57 403.80 252.74 404.37 250.90 404.74 C 245.77 405.82 240.65 406.98 235.48 407.89 C 235.00 396.87 234.79 385.77 232.75 374.90 C 232.38 373.49 232.69 371.76 231.70 370.61 C 227.18 369.90 222.57 369.80 218.00 369.79 C 205.88 370.15 193.81 371.44 181.79 372.93 Z" />
<path fill="#fcfcfc" opacity="1.00" d=" M 553.39 369.53 C 556.43 368.12 559.84 367.72 563.15 367.43 L 563.83 367.85 C 566.29 372.39 567.74 377.38 569.44 382.24 C 564.87 383.33 560.29 384.41 555.68 385.31 C 552.18 386.29 548.86 384.57 546.46 382.13 C 547.25 377.35 549.00 372.15 553.39 369.53 Z" />
<path fill="#fdfdfd" opacity="1.00" d=" M 236.55 372.39 C 243.74 375.63 250.84 379.07 258.11 382.11 C 260.57 383.57 263.01 385.05 265.46 386.52 C 262.74 392.13 259.46 397.44 256.11 402.68 C 249.67 403.99 243.03 402.50 237.18 399.75 C 235.17 390.74 235.94 381.51 236.55 372.39 Z" />
<path fill="#8f8f8f" opacity="1.00" d=" M 226.69 405.73 C 226.09 399.08 226.08 392.20 228.27 385.81 C 228.10 395.71 228.85 405.68 231.05 415.35 C 232.19 420.45 233.99 425.36 235.58 430.32 C 228.76 429.42 221.91 428.38 215.01 428.53 C 205.47 428.55 196.02 430.26 186.86 432.83 C 195.12 428.26 204.65 426.37 214.01 425.92 C 219.83 425.53 225.61 426.44 231.41 426.79 C 229.71 419.80 227.42 412.92 226.69 405.73 Z" />
<path fill="#030303" opacity="1.00" d=" M 131.76 387.95 C 136.80 387.34 141.89 387.31 146.96 387.08 C 146.70 389.53 146.35 391.97 145.93 394.40 C 140.70 394.44 135.46 394.69 130.23 394.78 C 130.70 392.53 130.43 389.90 131.76 387.95 Z" />
<path fill="#7f7f7f" opacity="1.00" d=" M 502.69 398.95 C 518.56 392.34 536.05 391.01 553.07 391.50 C 558.06 391.57 562.96 392.67 567.64 394.37 C 561.05 394.90 554.57 393.11 548.01 392.85 C 532.56 391.34 517.91 397.83 502.69 398.95 Z" />
<path fill="#3f3f3f" opacity="1.00" d=" M 270.28 392.11 C 272.93 391.82 275.25 393.51 277.60 394.48 C 274.88 395.24 272.28 396.33 269.84 397.76 C 272.49 400.90 275.14 404.08 278.26 406.78 C 279.61 407.91 281.14 409.10 283.00 409.12 C 284.71 408.98 286.29 408.23 287.89 407.65 C 293.23 411.00 296.99 416.69 297.39 423.06 C 290.19 422.30 282.99 422.94 275.79 423.08 C 276.99 418.53 278.44 412.93 275.10 408.93 C 273.48 406.74 270.54 406.35 268.02 406.58 C 262.83 407.01 258.02 409.22 253.38 411.44 C 248.10 414.14 242.51 416.47 238.09 420.56 C 238.88 417.06 239.90 413.17 242.81 410.85 C 247.25 409.11 252.31 409.73 256.66 407.71 C 262.52 403.80 265.40 396.99 270.28 392.11 Z" />
<path fill="#636363" opacity="1.00" d=" M 269.84 397.76 C 272.28 396.33 274.88 395.24 277.60 394.48 C 280.81 399.04 284.44 403.27 287.89 407.65 C 286.29 408.23 284.71 408.98 283.00 409.12 C 281.14 409.10 279.61 407.91 278.26 406.78 C 275.14 404.08 272.49 400.90 269.84 397.76 Z" />
<path fill="#040404" opacity="1.00" d=" M 140.96 404.10 C 144.15 403.14 147.52 402.95 150.81 402.43 C 150.82 404.42 150.82 406.42 150.81 408.43 C 145.90 409.56 141.00 410.76 136.04 411.65 C 137.50 409.05 138.64 406.08 140.96 404.10 Z" />
<path fill="#868686" opacity="1.00" d=" M 302.11 404.74 C 307.18 408.96 309.59 415.42 311.14 421.65 C 313.80 432.59 316.08 443.70 316.70 454.97 C 317.03 460.17 315.84 465.29 314.15 470.17 C 314.68 460.42 313.99 450.64 312.75 440.98 C 311.07 428.43 307.23 416.28 302.11 404.74 Z" />
<path fill="#707070" opacity="1.00" d=" M 253.38 411.44 C 258.02 409.22 262.83 407.01 268.02 406.58 C 270.54 406.35 273.48 406.74 275.10 408.93 C 278.44 412.93 276.99 418.53 275.79 423.08 C 274.26 425.36 272.40 427.42 270.41 429.31 C 268.85 430.61 267.18 431.77 265.45 432.82 C 264.15 428.63 263.00 424.23 260.30 420.68 C 258.85 418.73 256.52 417.31 254.03 417.52 C 249.53 417.72 245.48 419.89 241.55 421.85 C 244.25 425.60 246.86 429.59 250.65 432.35 C 253.55 434.03 257.09 433.74 260.32 434.08 C 256.87 434.93 253.42 435.82 249.93 436.50 C 244.56 432.35 241.87 425.99 238.09 420.56 C 242.51 416.47 248.10 414.14 253.38 411.44 Z" />
<path fill="#c3c3c3" opacity="1.00" d=" M 241.55 421.85 C 245.48 419.89 249.53 417.72 254.03 417.52 C 256.52 417.31 258.85 418.73 260.30 420.68 C 263.00 424.23 264.15 428.63 265.45 432.82 C 263.75 433.30 262.03 433.70 260.32 434.08 C 257.09 433.74 253.55 434.03 250.65 432.35 C 246.86 429.59 244.25 425.60 241.55 421.85 Z" />
<path fill="#3f3f3f" opacity="1.00" d=" M 265.45 432.82 C 267.18 431.77 268.85 430.61 270.41 429.31 C 274.94 430.96 280.00 429.61 284.42 431.72 C 282.47 432.17 280.55 432.73 278.60 433.17 C 275.86 433.29 273.12 433.40 270.38 433.51 C 270.76 435.92 271.09 438.34 271.58 440.74 C 264.38 439.24 257.37 436.63 249.93 436.50 C 253.42 435.82 256.87 434.93 260.32 434.08 C 262.03 433.70 263.75 433.30 265.45 432.82 Z" />
<path fill="#8b8b8b" opacity="1.00" d=" M 284.42 431.72 C 285.77 431.61 286.96 432.53 288.20 432.98 C 287.37 434.29 286.62 435.64 285.93 437.03 C 286.15 436.13 286.60 434.33 286.82 433.44 C 284.08 433.32 281.34 433.16 278.60 433.17 C 280.55 432.73 282.47 432.17 284.42 431.72 Z" />
<path fill="#c2c2c2" opacity="1.00" d=" M 540.57 433.54 C 552.60 431.46 564.85 431.91 577.00 431.87 C 585.31 431.88 593.73 432.93 601.55 435.88 C 601.25 441.73 600.99 448.26 596.87 452.87 C 583.12 468.34 562.35 476.01 542.01 476.99 C 532.83 477.28 523.41 477.18 514.57 474.37 C 511.09 473.30 507.72 470.72 506.96 466.99 C 505.77 461.22 508.39 455.40 512.14 451.11 C 519.61 442.67 529.45 435.95 540.57 433.54 Z" />
<path fill="#fdfdfd" opacity="1.00" d=" M 270.38 433.51 C 273.12 433.40 275.86 433.29 278.60 433.17 C 281.34 433.16 284.08 433.32 286.82 433.44 C 286.60 434.33 286.15 436.13 285.93 437.03 C 285.32 438.66 284.70 440.30 284.12 441.95 C 282.92 445.46 279.68 447.50 276.93 449.70 C 274.82 446.94 272.27 444.25 271.58 440.74 C 271.09 438.34 270.76 435.92 270.38 433.51 Z" />
<path fill="#3e3e3e" opacity="1.00" d=" M 288.20 432.98 C 288.66 432.95 289.60 432.87 290.07 432.83 C 289.99 435.05 290.46 437.47 289.44 439.56 C 287.93 441.50 285.68 442.66 283.62 443.91 C 283.74 443.42 283.99 442.44 284.12 441.95 C 284.70 440.30 285.32 438.66 285.93 437.03 C 286.62 435.64 287.37 434.29 288.20 432.98 Z" />
<path fill="#7b7b7b" opacity="1.00" d=" M 856.07 434.99 C 860.13 445.50 861.49 456.79 861.85 467.98 C 862.50 477.09 863.10 486.97 858.19 495.11 C 862.57 475.21 859.33 454.79 856.07 434.99 Z" />
<path fill="#7e7e7e" opacity="1.00" d=" M 177.62 439.61 C 186.26 438.39 194.78 436.03 203.56 436.21 C 201.54 437.97 198.81 438.37 196.32 439.06 C 189.64 440.74 182.56 442.29 175.76 440.31 C 176.37 440.04 176.99 439.81 177.62 439.61 Z" />
<path fill="#767676" opacity="1.00" d=" M 834.84 454.83 C 838.63 465.51 837.72 476.95 837.48 488.06 C 837.22 496.55 834.75 504.83 831.52 512.63 C 830.00 516.31 828.26 519.93 825.80 523.08 C 828.53 514.58 831.72 506.21 834.11 497.59 C 837.79 483.60 836.10 469.02 834.84 454.83 Z" />
<path fill="#c2c2c2" opacity="1.00" d=" M 170.47 486.63 C 179.63 485.85 188.85 486.01 198.00 486.82 C 201.20 487.16 204.60 487.72 207.19 489.79 C 209.31 491.50 209.97 494.34 210.10 496.94 C 210.42 502.00 208.77 506.95 206.45 511.38 C 202.65 518.56 197.63 525.22 191.14 530.17 C 186.02 534.07 179.78 536.08 173.63 537.68 C 162.32 540.43 150.59 540.81 139.01 540.25 C 135.99 540.09 132.84 539.48 130.43 537.53 C 123.45 532.09 121.20 521.69 124.60 513.65 C 129.45 504.16 138.12 497.11 147.61 492.54 C 154.73 489.01 162.63 487.45 170.47 486.63 Z" />
<path fill="#848484" opacity="1.00" d=" M 557.92 490.97 C 560.82 489.64 564.08 489.19 567.19 490.09 C 564.08 490.15 560.98 490.43 557.92 490.97 Z" />
<path fill="#040404" opacity="1.00" d=" M 551.36 494.31 C 553.47 493.07 555.62 491.85 557.92 490.97 C 560.98 490.43 564.08 490.15 567.19 490.09 C 573.30 491.71 578.50 495.61 583.05 499.88 C 585.97 502.62 588.82 505.86 589.42 509.98 C 590.37 515.23 587.73 520.14 585.49 524.69 C 581.69 518.18 580.10 510.54 575.50 504.47 C 572.84 500.87 568.57 499.03 564.43 497.71 C 560.12 496.41 555.72 495.42 551.36 494.31 Z" />
<path fill="#909090" opacity="1.00" d=" M 549.56 493.90 C 550.01 494.00 550.91 494.21 551.36 494.31 C 555.72 495.42 560.12 496.41 564.43 497.71 C 568.57 499.03 572.84 500.87 575.50 504.47 C 580.10 510.54 581.69 518.18 585.49 524.69 L 585.76 525.18 C 583.83 525.79 581.90 526.41 579.98 527.02 C 579.24 521.51 579.46 515.79 577.54 510.51 C 575.75 505.76 571.06 502.89 566.45 501.39 C 562.15 499.84 557.54 499.73 553.11 498.80 C 550.67 498.57 550.24 495.75 549.56 493.90 Z" />
<path fill="#060606" opacity="1.00" d=" M 354.82 504.92 C 354.69 502.66 356.85 501.38 358.08 499.80 C 360.78 502.03 363.89 504.10 365.47 507.34 C 366.44 510.72 365.91 514.76 363.40 517.37 C 360.87 520.06 357.57 521.81 354.49 523.77 C 354.64 517.48 354.77 511.20 354.82 504.92 Z" />
<path fill="#242424" opacity="1.00" d=" M 413.07 505.39 C 425.31 507.01 435.94 514.13 448.04 516.32 C 461.00 518.31 473.83 514.75 486.49 512.42 C 486.14 514.42 487.21 517.87 484.29 518.25 C 471.27 522.18 457.42 523.61 443.92 521.83 C 432.39 519.72 420.23 515.18 413.07 505.39 Z" />
<path fill="#8e8e8e" opacity="1.00" d=" M 249.43 514.33 C 250.54 510.57 254.37 508.85 257.48 507.02 C 257.95 511.08 257.89 515.25 258.98 519.22 C 262.26 522.62 267.15 523.70 271.35 525.59 C 271.82 522.63 272.34 519.68 273.03 516.77 C 272.57 520.53 272.30 524.31 271.78 528.07 C 267.47 526.77 262.74 525.81 259.31 522.69 C 256.35 519.37 254.85 515.06 252.64 511.26 C 252.32 515.32 251.77 519.49 252.75 523.50 C 253.22 525.82 255.53 526.92 257.52 527.70 C 262.18 529.44 267.14 530.12 271.93 531.39 C 281.30 533.74 290.25 538.02 300.01 538.57 C 304.46 538.89 308.92 537.90 312.98 536.10 C 310.12 538.26 306.57 539.10 303.15 539.96 C 299.13 540.97 294.85 541.08 290.83 540.04 C 284.53 538.41 279.04 534.60 272.69 533.08 C 266.99 531.57 260.92 531.65 255.36 529.57 C 249.64 527.21 247.67 519.87 249.43 514.33 Z" />
<path fill="#848484" opacity="1.00" d=" M 531.18 533.82 C 533.96 532.41 536.76 530.63 539.97 530.54 C 543.61 533.14 545.14 537.65 545.97 541.86 C 547.43 550.85 547.66 560.11 545.81 569.06 C 544.42 575.53 541.60 581.63 538.05 587.21 C 544.73 570.30 546.24 551.14 541.05 533.62 C 537.76 533.50 534.45 533.39 531.18 533.82 Z" />
<path fill="#030303" opacity="1.00" d=" M 531.18 533.82 C 534.45 533.39 537.76 533.50 541.05 533.62 C 546.24 551.14 544.73 570.30 538.05 587.21 C 528.24 608.81 514.03 628.45 496.44 644.40 C 482.05 656.34 463.92 662.04 447.58 670.65 C 434.02 677.93 419.73 683.99 404.82 687.89 C 399.00 689.12 393.31 690.85 387.51 692.16 C 360.66 698.40 333.62 704.66 306.01 706.07 C 291.99 706.58 277.90 706.47 263.97 704.65 C 258.24 703.93 252.71 702.24 247.07 701.10 C 242.76 700.21 238.96 697.90 235.12 695.87 C 230.22 693.27 226.17 689.06 223.89 683.99 C 222.20 679.18 219.74 674.69 217.95 669.93 C 213.39 658.08 210.24 645.71 207.96 633.24 C 206.30 620.85 207.02 608.16 209.86 596.00 C 212.27 588.02 217.66 581.26 224.01 575.99 C 226.22 574.13 229.00 572.77 231.94 572.77 C 234.07 572.93 236.02 573.95 237.79 575.08 C 243.63 579.11 249.61 583.24 256.53 585.14 C 264.20 587.22 272.18 587.62 280.06 588.34 C 294.02 589.45 307.96 591.42 321.99 591.17 C 334.53 590.47 347.15 589.93 359.51 587.50 C 372.41 586.08 385.10 583.20 398.01 581.79 C 420.15 579.41 441.52 572.83 462.78 566.51 C 477.84 562.05 491.47 554.05 505.82 547.85 C 514.71 544.00 522.70 538.44 531.18 533.82 M 506.66 559.67 C 496.48 565.02 485.17 567.55 474.41 571.43 C 452.55 580.09 430.01 587.74 406.53 590.36 C 402.48 590.89 398.30 591.03 394.43 592.48 C 392.46 593.13 391.69 595.23 390.85 596.93 C 387.14 605.41 384.91 614.71 379.23 622.20 C 377.31 624.87 374.77 626.99 372.17 628.98 C 372.35 626.18 372.52 623.38 372.65 620.59 C 375.28 617.30 378.37 613.71 378.40 609.27 C 380.23 604.71 381.03 599.84 381.52 594.98 C 359.68 597.70 337.80 600.47 315.77 600.92 C 309.35 601.80 302.76 599.39 296.50 601.34 C 292.44 600.21 288.20 600.63 284.07 600.09 C 280.25 599.61 276.42 599.24 272.57 599.10 C 272.29 604.25 270.54 609.88 273.18 614.72 C 276.23 619.81 280.96 623.60 285.65 627.10 C 280.23 628.84 274.60 627.26 269.10 626.99 C 266.51 624.27 264.71 620.76 264.28 617.01 C 263.50 610.99 264.69 604.97 265.37 599.00 C 256.62 594.22 247.33 588.99 237.02 589.48 C 231.72 589.47 225.81 591.04 222.76 595.74 C 218.91 601.72 217.53 608.96 217.13 615.96 C 216.54 631.58 217.81 647.44 222.64 662.38 C 225.60 671.08 230.91 679.17 238.44 684.57 C 244.08 688.64 251.16 689.87 257.94 690.58 C 267.28 691.15 276.64 691.39 286.00 691.38 C 302.35 691.41 318.75 691.80 335.02 689.99 C 344.74 688.87 354.27 686.68 363.89 684.94 C 368.79 683.93 374.05 682.32 377.16 678.11 C 382.61 671.04 386.31 662.82 389.61 654.58 C 391.52 649.96 393.22 645.18 396.05 641.02 C 398.46 637.42 402.11 634.93 405.79 632.79 C 413.24 628.47 421.39 625.60 429.28 622.23 C 436.65 619.18 443.81 615.49 451.58 613.48 C 457.25 611.97 463.17 611.76 469.01 611.62 C 479.79 611.45 490.69 612.01 501.20 614.59 C 503.97 615.28 506.79 615.70 509.64 615.92 C 516.29 604.63 521.56 592.59 528.22 581.31 C 533.88 571.65 536.84 560.15 534.74 549.01 C 524.65 550.10 515.40 554.79 506.66 559.67 M 458.79 621.04 C 451.48 621.94 444.31 623.79 437.27 625.93 C 422.69 630.86 411.46 642.12 401.83 653.69 C 397.89 658.78 393.27 663.51 390.69 669.50 C 388.63 674.09 387.53 679.04 386.58 683.96 C 387.34 683.81 388.86 683.52 389.62 683.37 C 391.83 684.54 394.36 685.64 396.91 684.92 C 400.37 683.82 403.11 681.29 405.82 678.98 C 424.57 672.61 442.21 663.50 460.31 655.57 C 476.33 649.89 492.38 641.83 503.04 628.15 C 499.21 625.10 495.16 621.90 490.23 620.95 C 479.89 619.07 469.11 619.00 458.79 621.04 Z" />
<path fill="#404040" opacity="1.00" d=" M 506.66 559.67 C 515.40 554.79 524.65 550.10 534.74 549.01 C 536.84 560.15 533.88 571.65 528.22 581.31 C 521.56 592.59 516.29 604.63 509.64 615.92 C 506.79 615.70 503.97 615.28 501.20 614.59 C 490.69 612.01 479.79 611.45 469.01 611.62 C 463.17 611.76 457.25 611.97 451.58 613.48 C 443.81 615.49 436.65 619.18 429.28 622.23 C 421.39 625.60 413.24 628.47 405.79 632.79 C 402.11 634.93 398.46 637.42 396.05 641.02 C 393.22 645.18 391.52 649.96 389.61 654.58 C 386.31 662.82 382.61 671.04 377.16 678.11 C 374.05 682.32 368.79 683.93 363.89 684.94 C 354.27 686.68 344.74 688.87 335.02 689.99 C 318.75 691.80 302.35 691.41 286.00 691.38 C 276.64 691.39 267.28 691.15 257.94 690.58 C 251.16 689.87 244.08 688.64 238.44 684.57 C 230.91 679.17 225.60 671.08 222.64 662.38 C 217.81 647.44 216.54 631.58 217.13 615.96 C 217.53 608.96 218.91 601.72 222.76 595.74 C 225.81 591.04 231.72 589.47 237.02 589.48 C 247.33 588.99 256.62 594.22 265.37 599.00 C 264.69 604.97 263.50 610.99 264.28 617.01 C 264.71 620.76 266.51 624.27 269.10 626.99 C 272.12 630.18 275.72 632.80 279.63 634.78 C 290.78 640.66 303.51 642.90 316.01 643.07 C 328.05 643.25 340.09 642.40 352.05 641.10 C 360.42 640.21 368.13 635.99 374.10 630.16 C 366.79 630.68 359.57 631.99 352.37 633.28 C 349.42 633.84 346.41 633.73 343.44 633.52 C 350.15 632.33 357.10 631.40 363.20 628.17 C 366.83 626.32 369.96 623.62 372.65 620.59 C 372.52 623.38 372.35 626.18 372.17 628.98 C 374.77 626.99 377.31 624.87 379.23 622.20 C 384.91 614.71 387.14 605.41 390.85 596.93 C 391.69 595.23 392.46 593.13 394.43 592.48 C 398.30 591.03 402.48 590.89 406.53 590.36 C 430.01 587.74 452.55 580.09 474.41 571.43 C 485.17 567.55 496.48 565.02 506.66 559.67 Z" />
<path fill="#606060" opacity="1.00" d=" M 212.35 555.35 C 216.72 552.49 222.25 552.72 227.27 552.39 C 227.26 554.03 227.25 555.68 227.26 557.34 C 223.35 558.20 219.27 558.28 215.45 559.51 C 211.27 563.31 208.13 568.10 204.01 571.97 C 205.71 566.05 207.28 559.36 212.35 555.35 Z" />
<path fill="#929292" opacity="1.00" d=" M 113.19 565.76 C 117.13 579.27 116.10 593.75 112.21 607.13 C 113.23 593.38 113.91 579.55 113.19 565.76 Z" />
<path fill="#3f3f3f" opacity="1.00" d=" M 560.38 604.11 C 567.32 592.57 572.93 580.25 580.63 569.17 C 580.73 583.35 572.63 597.06 560.38 604.11 Z" />
<path fill="#868686" opacity="1.00" d=" M 237.79 575.08 C 243.26 576.72 248.18 579.70 253.56 581.57 C 262.30 584.87 271.76 584.99 280.96 585.73 C 297.20 586.84 313.44 590.06 329.75 588.19 C 335.81 587.39 341.90 586.74 348.02 586.57 C 351.86 586.49 355.84 586.03 359.51 587.50 C 347.15 589.93 334.53 590.47 321.99 591.17 C 307.96 591.42 294.02 589.45 280.06 588.34 C 272.18 587.62 264.20 587.22 256.53 585.14 C 249.61 583.24 243.63 579.11 237.79 575.08 Z" />
<path fill="#858585" opacity="0.95" d=" M 95.12 613.23 C 98.60 601.30 98.52 588.74 101.10 576.65 C 102.41 589.20 100.03 601.77 96.87 613.87 C 91.25 636.05 87.58 659.18 90.54 682.05 C 91.66 690.64 92.81 699.23 94.07 707.81 C 86.49 684.35 86.39 659.07 90.34 634.91 C 91.55 627.61 92.95 620.31 95.12 613.23 Z" />
<path fill="#7e7e7e" opacity="1.00" d=" M 744.05 600.74 C 757.52 596.10 771.98 594.78 785.08 588.97 C 781.86 591.98 777.79 593.83 773.72 595.40 C 764.22 598.91 754.03 599.62 744.05 600.74 Z" />
<path fill="#757575" opacity="1.00" d=" M 315.77 600.92 C 337.80 600.47 359.68 597.70 381.52 594.98 C 381.03 599.84 380.23 604.71 378.40 609.27 C 378.36 605.67 378.22 602.08 378.16 598.49 C 365.16 599.48 352.12 599.66 339.14 600.88 C 336.94 601.17 334.62 601.36 332.65 602.46 C 330.38 603.95 328.81 606.22 327.10 608.28 C 326.68 606.09 326.05 603.96 325.48 601.83 C 318.48 612.10 318.36 625.06 318.57 637.02 C 316.32 636.71 314.07 636.41 311.84 636.03 C 313.39 636.16 314.94 636.28 316.50 636.39 C 317.85 625.46 318.42 614.46 319.48 603.50 C 311.83 602.75 304.01 603.18 296.50 601.34 C 302.76 599.39 309.35 601.80 315.77 600.92 Z" />
<path fill="#878787" opacity="1.00" d=" M 204.91 624.99 C 204.10 615.13 205.35 604.89 209.86 596.00 C 207.02 608.16 206.30 620.85 207.96 633.24 C 210.24 645.71 213.39 658.08 217.95 669.93 C 219.74 674.69 222.20 679.18 223.89 683.99 L 224.27 685.19 C 222.53 683.76 221.08 682.02 219.99 680.06 C 215.87 672.90 213.07 665.06 211.12 657.06 C 208.52 646.49 205.68 635.89 204.91 624.99 Z" />
<path fill="#fefefe" opacity="1.00" d=" M 272.57 599.10 C 276.42 599.24 280.25 599.61 284.07 600.09 C 288.20 600.63 292.44 600.21 296.50 601.34 C 304.01 603.18 311.83 602.75 319.48 603.50 C 318.42 614.46 317.85 625.46 316.50 636.39 C 314.94 636.28 313.39 636.16 311.84 636.03 C 307.00 635.23 302.18 634.41 297.36 633.53 C 293.34 631.62 289.34 629.60 285.65 627.10 C 280.96 623.60 276.23 619.81 273.18 614.72 C 270.54 609.88 272.29 604.25 272.57 599.10 Z" />
<path fill="#fdfdfd" opacity="1.00" d=" M 339.14 600.88 C 352.12 599.66 365.16 599.48 378.16 598.49 C 378.22 602.08 378.36 605.67 378.40 609.27 C 378.37 613.71 375.28 617.30 372.65 620.59 C 369.96 623.62 366.83 626.32 363.20 628.17 C 357.10 631.40 350.15 632.33 343.44 633.52 C 338.25 633.30 333.04 633.28 327.86 633.56 C 327.54 625.14 327.75 616.69 327.10 608.28 C 328.81 606.22 330.38 603.95 332.65 602.46 C 334.62 601.36 336.94 601.17 339.14 600.88 Z" />
<path fill="#030303" opacity="1.00" d=" M 318.57 637.02 C 318.36 625.06 318.48 612.10 325.48 601.83 C 326.05 603.96 326.68 606.09 327.10 608.28 C 327.75 616.69 327.54 625.14 327.86 633.56 C 333.04 633.28 338.25 633.30 343.44 633.52 C 346.41 633.73 349.42 633.84 352.37 633.28 C 359.57 631.99 366.79 630.68 374.10 630.16 C 368.13 635.99 360.42 640.21 352.05 641.10 C 340.09 642.40 328.05 643.25 316.01 643.07 C 303.51 642.90 290.78 640.66 279.63 634.78 C 285.52 634.09 291.44 633.71 297.36 633.53 C 302.18 634.41 307.00 635.23 311.84 636.03 C 314.07 636.41 316.32 636.71 318.57 637.02 M 327.64 633.83 C 327.78 634.36 328.05 635.42 328.19 635.95 C 333.26 636.15 338.63 636.16 343.36 634.10 C 338.13 633.73 332.88 634.03 327.64 633.83 Z" />
<path fill="#838383" opacity="1.00" d=" M 106.40 632.13 C 106.93 623.87 107.98 615.32 112.01 607.95 C 109.29 619.99 108.50 632.33 106.59 644.49 C 105.35 640.44 106.25 636.24 106.40 632.13 Z" />
<path fill="#5e5e5e" opacity="1.00" d=" M 184.42 613.84 C 188.48 619.43 190.01 626.25 192.19 632.67 C 194.22 638.75 197.75 644.15 200.15 650.06 C 195.55 647.93 190.68 645.30 188.31 640.57 C 183.95 632.41 183.74 622.86 184.42 613.84 Z" />
<path fill="#636363" opacity="1.00" d=" M 458.79 621.04 C 469.11 619.00 479.89 619.07 490.23 620.95 C 484.81 620.92 478.92 618.94 473.82 621.47 L 473.79 621.48 C 473.35 621.21 472.47 620.67 472.02 620.40 C 467.61 620.04 463.19 620.70 458.79 621.04 Z" />
<path fill="#fdfdfd" opacity="1.00" d=" M 437.27 625.93 C 444.31 623.79 451.48 621.94 458.79 621.04 C 463.19 620.70 467.61 620.04 472.02 620.40 C 472.47 620.67 473.35 621.21 473.79 621.48 C 470.44 622.91 466.91 623.98 463.78 625.89 C 458.06 629.33 453.28 634.72 451.44 641.22 C 450.52 644.24 450.65 647.43 450.74 650.55 C 457.41 644.96 462.32 637.65 468.74 631.81 C 472.53 628.40 476.46 625.14 479.97 621.42 C 477.91 621.44 475.86 621.46 473.82 621.47 C 478.92 618.94 484.81 620.92 490.23 620.95 C 495.16 621.90 499.21 625.10 503.04 628.15 C 492.38 641.83 476.33 649.89 460.31 655.57 C 442.21 663.50 424.57 672.61 405.82 678.98 C 400.43 680.46 395.02 681.93 389.62 683.37 C 388.86 683.52 387.34 683.81 386.58 683.96 C 387.53 679.04 388.63 674.09 390.69 669.50 C 393.27 663.51 397.89 658.78 401.83 653.69 C 411.46 642.12 422.69 630.86 437.27 625.93 Z" />
<path fill="#030303" opacity="1.00" d=" M 463.78 625.89 C 466.91 623.98 470.44 622.91 473.79 621.48 L 473.82 621.47 C 475.86 621.46 477.91 621.44 479.97 621.42 C 476.46 625.14 472.53 628.40 468.74 631.81 C 462.32 637.65 457.41 644.96 450.74 650.55 C 450.65 647.43 450.52 644.24 451.44 641.22 C 453.28 634.72 458.06 629.33 463.78 625.89 Z" />
<path fill="#202020" opacity="1.00" d=" M 269.10 626.99 C 274.60 627.26 280.23 628.84 285.65 627.10 C 289.34 629.60 293.34 631.62 297.36 633.53 C 291.44 633.71 285.52 634.09 279.63 634.78 C 275.72 632.80 272.12 630.18 269.10 626.99 Z" />
<path fill="#353535" opacity="1.00" d=" M 327.64 633.83 C 332.88 634.03 338.13 633.73 343.36 634.10 C 338.63 636.16 333.26 636.15 328.19 635.95 C 328.05 635.42 327.78 634.36 327.64 633.83 Z" />
<path fill="#707070" opacity="1.00" d=" M 106.61 669.56 C 106.13 666.85 105.07 663.94 106.51 661.34 C 107.44 669.31 108.84 677.21 110.14 685.13 C 108.50 680.05 107.85 674.73 106.61 669.56 Z" />
<path fill="#545454" opacity="1.00" d=" M 389.62 683.37 C 395.02 681.93 400.43 680.46 405.82 678.98 C 403.11 681.29 400.37 683.82 396.91 684.92 C 394.36 685.64 391.83 684.54 389.62 683.37 Z" />
<path fill="#8a8a8a" opacity="1.00" d=" M 387.51 692.16 C 393.31 690.85 399.00 689.12 404.82 687.89 C 401.33 689.41 397.69 690.55 394.17 692.00 C 385.80 695.39 376.87 697.03 368.05 698.80 C 356.36 701.33 344.54 703.25 332.76 705.36 C 313.40 709.15 293.58 707.48 274.00 707.72 C 263.92 708.01 253.21 706.74 244.68 700.95 C 245.28 700.99 246.47 701.06 247.07 701.10 C 252.71 702.24 258.24 703.93 263.97 704.65 C 277.90 706.47 291.99 706.58 306.01 706.07 C 333.62 704.66 360.66 698.40 387.51 692.16 Z" />
<path fill="#2b2b2b" opacity="1.00" d=" M 271.03 725.41 C 282.44 722.77 294.29 722.22 305.94 723.20 C 310.26 723.53 314.66 723.50 318.91 724.49 C 323.31 725.62 326.44 729.22 329.03 732.74 C 316.87 732.07 305.04 728.71 292.90 727.89 C 282.12 727.58 271.77 731.31 261.07 731.90 C 263.93 729.14 266.98 726.19 271.03 725.41 Z" />
<path fill="#787878" opacity="1.00" d=" M 273.77 789.76 C 282.30 790.12 290.83 790.64 299.34 791.37 C 295.81 791.54 292.28 791.43 288.76 791.14 C 283.77 790.68 278.69 790.87 273.77 789.76 Z" />
</svg>
