<?xml version="1.0" encoding="utf-8"?>
<!-- Generator: Adobe Illustrator 15.0.2, SVG Export Plug-In . SVG Version: 6.00 Build 0)  -->
<!DOCTYPE svg PUBLIC "-//W3C//DTD SVG 1.1//EN" "http://www.w3.org/Graphics/SVG/1.1/DTD/svg11.dtd">
<svg version="1.1" id="Layer_1" xmlns="http://www.w3.org/2000/svg" xmlns:xlink="http://www.w3.org/1999/xlink" x="0px" y="0px"
	 width="103px" height="81px" viewBox="0 0 103 81" enable-background="new 0 0 103 81" xml:space="preserve">
<path fill="#FFFFFF" d="M0,0h103v30.31c-0.91-4.53-4.3-7.94-7.939-10.51c-5-3.13-4.729-10.07-9.051-13.84
	c-2.56-2.2-5.33-5.06-8.98-4.84C68.04,1.5,59.05-0.09,50.07,0.9C44.38,1.47,38.65,1,32.96,1.38c-4.98,0.75-9.82,2.24-14.78,3.1
	c-2.93,1.53-5.78,3.31-8.32,5.43c-2.53,1.91-1.42,5.49-2.79,8.03C4.96,19.95,2.59,21.71,0.75,24c0.54,3.36-0.17,6.7-0.3,10.06
	c-0.12,4.01,5.42,5.68,4.66,9.87C4.75,51.311,6.58,58.95,4.03,66.1c-1.49,4.791,2.67,9.062,6.49,11.291
	c7.89,4.379,17.16,2.18,25.64,1.409c1.7-0.47,2.6,1.49,3.86,2.2H0V0z"/>
<path fill="#000200" d="M18.18,4.48c4.96-0.86,9.8-2.35,14.78-3.1C38.65,1,44.38,1.47,50.07,0.9c8.98-0.99,17.97,0.6,26.959,0.22
	c3.65-0.22,6.421,2.64,8.979,4.84c4.32,3.77,4.052,10.71,9.052,13.84c3.64,2.57,7.028,5.98,7.938,10.51v1.42
	c-0.46,6.34-4.761,11.42-9.972,14.65c-0.1,0.55-0.289,1.66-0.389,2.21c-1.881,5.301-6.689,8.65-10.58,12.41
	c-4.311,1.84-7.971,5-12.479,6.391c-6.07,1.859-11.771,4.739-17.29,7.819c-3.27,1.181-6.9,0.8-10.24,1.79
	c-1.11,0.99-1.12,2.72-1.8,4h-0.23c-1.26-0.71-2.16-2.67-3.86-2.2c-8.48,0.771-17.75,2.97-25.64-1.409
	c-3.82-2.229-7.98-6.5-6.49-11.291c2.55-7.148,0.72-14.789,1.08-22.17c0.76-4.188-4.78-5.86-4.66-9.87c0.13-3.36,0.84-6.7,0.3-10.06
	c1.84-2.29,4.21-4.05,6.32-6.06c1.37-2.54,0.26-6.12,2.79-8.03C12.4,7.79,15.25,6.01,18.18,4.48 M37.58,3.31
	c-3.54,0.57-7.17,0.05-10.62,1.16c-5.5-0.229-10.04,3.312-14.37,6.19c-2.68,1.77-3.39,5.09-3.2,8.1c-2.35,3.19-7.23,4.74-6.96,9.45
	c0.7-0.48,2.1-1.45,2.8-1.93c-1.57,1.88-3.31,3.76-3.06,6.41c0.5-0.03,1.49-0.08,1.99-0.1c0.65,1.51,1.62,2.82,2.73,4.02
	C6.4,36.65,5.4,36.72,4.9,36.76c5.05,10.1,1.75,21.49,1.37,32.16c0.85,3.62,4.19,6.49,7.77,7.35c2.67,0.771,5.19,2.25,8.05,2.121
	c9.56,0.209,18.48-3.761,27.83-5.061c5.051-1.66,9.63-4.5,14.46-6.689c9.39-2.08,17.82-7.591,24.11-14.771
	c1.109-2.979,2.26-6.07,4.83-8.13c0.08-0.45,0.24-1.36,0.33-1.811c5.289-2.111,8.25-7.861,7-13.421
	c-1.57-1.229-2.82-2.78-3.721-4.55c-0.609,0.33-1.82,0.99-2.421,1.32c0.49-0.561,1.472-1.68,1.962-2.24
	c-1.031-0.25-2.5-1.88-2.962,0.3c-1.688-2.55-4.68-1.79-7.26-1.77c0.028-0.25,0.09-0.76,0.12-1.01c2.119,0.07,4.229,0.13,6.352,0.14
	c-5.57-3.79-5.191-11.88-10.83-15.69C78.189,2,73.311,3.16,68.96,2.68C58.52,1.82,47.96,1.74,37.58,3.31z"/>
<path fill="#FEFFFC" d="M37.58,3.31C47.96,1.74,58.52,1.82,68.96,2.68C73.311,3.16,78.189,2,81.891,5.01
	c5.639,3.81,5.26,11.9,10.83,15.69c-2.121-0.01-4.229-0.07-6.351-0.14c-0.03,0.25-0.091,0.76-0.12,1.01
	c2.58-0.02,5.57-0.78,7.26,1.77c0.461-2.18,1.93-0.55,2.961-0.3C95.98,23.6,95,24.72,94.51,25.28c0.6-0.33,1.811-0.99,2.42-1.32
	c0.9,1.77,2.15,3.32,3.721,4.55c1.25,5.56-1.711,11.31-7,13.42c-0.09,0.45-0.25,1.36-0.33,1.812c-2.569,2.06-3.721,5.149-4.829,8.13
	c-6.29,7.18-14.722,12.689-24.11,14.771c-4.83,2.188-9.408,5.028-14.46,6.688c-9.35,1.3-18.27,5.271-27.83,5.062
	c-2.86,0.129-5.38-1.352-8.05-2.121c-3.58-0.859-6.92-3.729-7.77-7.351C6.65,58.25,9.95,46.859,4.9,36.76
	c0.5-0.04,1.5-0.11,1.99-0.15c-1.11-1.2-2.08-2.51-2.73-4.02c-0.5,0.02-1.49,0.07-1.99,0.1c-0.25-2.65,1.49-4.53,3.06-6.41
	c-0.7,0.479-2.1,1.45-2.8,1.93c-0.27-4.71,4.61-6.26,6.96-9.45c-0.19-3.01,0.52-6.33,3.2-8.1c4.33-2.88,8.87-6.42,14.37-6.19
	C30.41,3.36,34.04,3.88,37.58,3.31 M51.92,4.13C52.811,4.89,53.7,5.85,55,5.67c3.609,0.26,7.23,0.32,10.85,0.18l-0.01-0.67
	C61.17,5.36,56.48,5.23,51.92,4.13 M26.67,8.83c3.17-0.84,6.23-2.06,9.43-2.78C32.93,4.82,28.92,6.47,26.67,8.83 M47.2,5.46
	c2.11,3.35,6.819,1.83,10.12,2.15C57.029,7.41,56.45,7,56.16,6.8C53.1,6.89,50.07,6.62,47.2,5.46 M32.69,9.36
	c-0.33-0.05-0.99-0.16-1.33-0.21c-2.56,1.19-5.36,1.64-8.13,2.01c-2.35,1.33-4.69,2.85-5.18,5.73c1.43-0.31,3.33-0.15,4.21-1.57
	c0.91-0.94,1.36-2.57,2.75-2.92c4.18-0.66,8.52-0.6,12.63,0.45c-0.07-1.19-0.13-2.37-0.19-3.56c2.04-0.2,4.16-1.01,4.7-3.19
	C38.97,7.13,35.84,8.28,32.69,9.36 M49.97,11.18c-0.54,1.47-1.58,3.98,0.3,4.88c0.17-1.57-0.04-3.52,1.78-4.21
	c3.91-2.1,8.74-1.84,12.94-0.86c3.1,0.46,4.09,4.35,7.39,4.39c-2.989,3.19,1.841,1.58,2.841,0.88c-1.08-1.79-2.931-2.63-4.921-3.03
	c-1.84-2.7-5.1-3.81-8.239-3.95C57.99,9.12,53.62,9.09,49.97,11.18 M33.03,13.15c1.12,1.96,1.65,4.37,3.37,5.92
	c-0.17-1.68-0.42-3.34-0.71-4.99C34.8,13.76,33.92,13.45,33.03,13.15 M50.75,18.82c-1.28,0.99-3.97,2.15-2.87,4.16
	c0.92,1.54,2.63,2.28,4.05,3.26c2.55-1.38,5.28-2.34,7.99-3.34c2.76-0.14,5.51-0.15,8.27-0.11l1.932,1.22
	c0.479-0.71,0.949-1.43,1.43-2.14c-1.43-0.11-2.609-0.72-3.55-1.83c1.42,0.16,2.8,0.54,4.17,0.94c-0.26,0.76-0.771,2.29-1.021,3.05
	l3.301,0.2c-0.08-1.58-0.24-3.68-1.79-4.58c-2.82-1.54-5.382-3.95-8.771-3.98C59.27,14.97,54.51,16.03,50.75,18.82 M19.74,22.11
	c4.83,2.06,10.31,0.82,15.15,2.93c-0.32,1.72,0.66,4.4-1.38,5.28c-3.47,1.72-6.28,4.46-9.68,6.31c-0.38-0.34-1.14-1.02-1.52-1.36
	c-3.6,3.02-7.39,5.95-9.94,9.98c0.4-0.01,1.2-0.04,1.6-0.05c2.24-3.72,5.6-7.56,10.17-8.1c-1.8,2.22-4.24,3.919-5.53,6.541
	c-1.88,3.539-7.1,5.439-6.29,10.119c6.89-5.189,10.08-14.52,18.55-17.68c1.75,1.82,3.04,5.12,6.1,4.7
	c1.33,0.21,3.99-0.51,3.28-2.312c-0.91-0.77-2.26,0.47-3.31,0.5c-1.41-1.16-3.4-2.12-3.81-4.06c-0.53-2.63,2.75-3.25,4.37-4.48
	c0.04-1.74,0.09-3.48,0.12-5.22c1.84-0.29,3.37-1.08,3.59-3.1c-1.59-0.09-3.44,0.85-4.76-0.44c-3.78-2.89-8.86-3.7-13.44-2.72
	C21.35,19.28,20.02,20.38,19.74,22.11 M76.189,20.57c0.09,0.57,0.281,1.7,0.381,2.27c1.13-0.33,2.26-0.69,3.38-1.08
	C78.7,21.35,77.439,20.96,76.189,20.57 M5.83,24.33c0.39,0.72,0.79,1.44,1.19,2.16c-0.6,2.15-0.66,4.39-0.83,6.61
	c1.25,0.67,2.48,1.39,3.76,2C9,34,8.03,32.92,7.04,31.86c0.4-2.04,0.87-4.06,1.43-6.06c-0.51-1.46,0.31-2.76,0.86-4.07
	C8.16,22.58,7,23.46,5.83,24.33 M16.07,26.04c0.94,1.09,1.9,2.18,2.82,3.31c2.67,0.84,5.26,2.07,8.1,2.24
	c-1.77-1.8-4.41-2.2-6.81-2.38C19,27.93,18.05,26.03,16.07,26.04 M55.07,28.47c4,3.46,10.3,2.86,14.959,1.11
	C65.01,29.95,59.9,30.11,55.07,28.47 M48.56,32.93c1.71,0.36,3.42,0.68,5.12,1.06c-0.09,1.2-0.18,2.39-0.27,3.59
	c-0.5,0.1-1.5,0.3-2,0.4c-0.06-0.81-0.17-2.43-0.22-3.24c-2.57,0.16-7.05-0.94-8.15,2.11c1.7,0.92,3.51-0.3,5.22-0.53
	c0.82,1.36,1.66,2.7,2.52,4.03c0.96-0.25,2.9-0.75,3.871-1c0.729,6.39-2.051,12.339-2.601,18.6c-0.28,2.64-1.95,4.79-3.12,7.08
	c0.19,0.729,0.58,2.2,0.77,2.93c3.78-4.41,4.19-10.489,5.43-15.92c1.46-6.49,2.899-13.77-0.08-20.02
	C53.18,30.81,49.4,30.27,48.56,32.93 M94.74,39.34c1.789,0.64,4.06-3.01,2.39-4.05C95.92,36.16,94.63,37.8,94.74,39.34 M8.22,36.36
	c-0.87,1.34,1.44,2.94,2.4,1.66C11.41,36.66,9.21,35.34,8.22,36.36 M60.859,35.92c-0.271,6.7,1.32,13.38,0.701,20.08
	c-0.211,2.58-2.642,4.43-2.352,7.1c2.102-2.619,2.49-6.02,3-9.22C62.83,47.88,62.311,41.77,60.859,35.92 M90.58,39.65
	c-1.35,2.02,2.609,2.331,2.68,0.35C92.62,38.9,91.73,38.78,90.58,39.65 M67.75,39.83c-0.359,5.12-1.67,10.189-1.25,15.34
	C67.84,50.24,68.8,44.891,67.75,39.83 M12.32,56.65c-1.26,1.699-2.38,3.51-3.13,5.5c2.61-0.721,2.65-4.142,4.9-5.28
	c0.72-0.09,2.17-0.28,2.89-0.37c-0.66-0.311-1.32-0.63-1.98-0.95C14.11,55.92,13.21,56.29,12.32,56.65 M13.46,59.13
	c-0.16,2.22,0.07,4.851,2.16,6.15c3.54,2.27,7.88,2.909,11.34,5.37c3.43-0.19,6.79-0.86,10.12-1.631
	c-0.78-0.521-1.56-1.029-2.34-1.529c-2.57,0.619-5.19,1-7.83,0.84c-2.82-2.43-6.61-2.95-10-4.189
	C16.03,62.29,15.33,60.21,13.46,59.13 M38.02,61.37c0.9,0,2.71-0.011,3.62-0.021l0.2,1.851c-2.24,0.85-3.53,3.1-5.8,3.92
	c0.74,0.5,1.49,1,2.23,1.5c1.8-1.3,3.67-2.81,3.7-5.271c0.66,0.061,1.99,0.181,2.66,0.239c0.67,1.7-0.95,2.91-1.5,4.351
	c2.61-0.539,2.72-2.899,2.36-5.129c-1.58-0.222-3.42-0.262-3.25-2.381C40.81,60.6,39.19,60.34,38.02,61.37 M25.89,73.52
	c-0.37-0.89-0.75-1.869-1.92-1.68c-2.98,0.2-5.04-2.05-7.38-3.49C15.63,73.23,22.27,74.75,25.89,73.52z"/>
<path fill="#1C1D1B" d="M51.92,4.13c4.561,1.1,9.25,1.23,13.92,1.05l0.01,0.67C62.23,5.99,58.609,5.93,55,5.67
	C53.7,5.85,52.811,4.89,51.92,4.13z"/>
<path fill="#1C1D1B" d="M26.67,8.83c2.25-2.36,6.26-4.01,9.43-2.78C32.9,6.77,29.84,7.99,26.67,8.83z"/>
<path fill="#1C1D1B" d="M47.2,5.46c2.87,1.16,5.899,1.43,8.96,1.34c0.29,0.2,0.869,0.61,1.16,0.81C54.02,7.29,49.31,8.81,47.2,5.46z
	"/>
<path fill="#8E908D" d="M32.69,9.36c3.15-1.08,6.28-2.23,9.46-3.26c-0.54,2.18-2.66,2.99-4.7,3.19c0.06,1.19,0.12,2.37,0.19,3.56
	c-4.11-1.05-8.45-1.11-12.63-0.45c-1.39,0.35-1.84,1.98-2.75,2.92c-0.88,1.42-2.78,1.26-4.21,1.57c0.49-2.88,2.83-4.4,5.18-5.73
	c2.77-0.37,5.57-0.82,8.13-2.01C31.7,9.2,32.36,9.31,32.69,9.36z"/>
<path fill="#1C1D1B" d="M49.97,11.18c3.65-2.09,8.02-2.06,12.09-1.9c3.14,0.14,6.398,1.25,8.238,3.95
	c1.99,0.4,3.842,1.24,4.922,3.03c-1,0.7-5.83,2.31-2.842-0.88c-3.3-0.04-4.29-3.93-7.391-4.39c-4.199-0.98-9.029-1.24-12.939,0.86
	c-1.82,0.69-1.61,2.64-1.78,4.21C48.39,15.16,49.43,12.65,49.97,11.18z"/>
<path fill="#1C1D1B" d="M33.03,13.15c0.89,0.3,1.77,0.61,2.66,0.93c0.29,1.65,0.54,3.31,0.71,4.99
	C34.68,17.52,34.15,15.11,33.03,13.15z"/>
<path fill="#040702" d="M50.75,18.82c3.76-2.79,8.52-3.85,13.141-3.15c3.389,0.03,5.949,2.44,8.771,3.98c1.55,0.9,1.71,3,1.79,4.58
	l-3.301-0.2c0.25-0.76,0.761-2.29,1.021-3.05c-1.37-0.4-2.75-0.78-4.17-0.94c0.938,1.11,2.12,1.72,3.55,1.83
	c-0.479,0.71-0.949,1.43-1.43,2.14l-1.932-1.22c-1.08-0.81-2.1-1.69-3.18-2.5c-1.75,0.77-3.35,1.82-5.09,2.61
	c-2.71,1-5.439,1.96-7.99,3.34c-1.42-0.98-3.13-1.72-4.05-3.26C46.78,20.97,49.47,19.81,50.75,18.82 M51.28,21.28
	c0.02,0.59,0.06,1.78,0.07,2.37c2.69-1.02,5.419-1.93,8.121-2.92c-0.021-0.62-0.041-1.87-0.061-2.5
	C56.59,18.92,53.87,19.97,51.28,21.28z"/>
<path fill="#FEFFFC" d="M51.28,21.28c2.59-1.312,5.31-2.36,8.13-3.05c0.02,0.63,0.04,1.88,0.061,2.5
	c-2.701,0.99-5.431,1.9-8.121,2.92C51.34,23.06,51.3,21.87,51.28,21.28z"/>
<path fill="#040702" d="M19.74,22.11c0.28-1.73,1.61-2.83,3.27-3.16c4.58-0.98,9.66-0.17,13.44,2.72c1.32,1.29,3.17,0.35,4.76,0.44
	c-0.22,2.02-1.75,2.81-3.59,3.1c-0.03,1.74-0.08,3.48-0.12,5.22c-1.62,1.23-4.9,1.85-4.37,4.48c0.41,1.94,2.4,2.9,3.81,4.06
	c1.05-0.03,2.4-1.27,3.31-0.5c0.71,1.8-1.95,2.521-3.28,2.312c-3.06,0.42-4.35-2.88-6.1-4.7c-8.47,3.16-11.66,12.489-18.55,17.68
	c-0.81-4.68,4.41-6.579,6.29-10.118c1.29-2.621,3.73-4.322,5.53-6.542c-4.57,0.54-7.93,4.379-10.17,8.1c-0.4,0.01-1.2,0.04-1.6,0.05
	c2.55-4.03,6.34-6.96,9.94-9.98c0.38,0.34,1.14,1.02,1.52,1.36c3.4-1.85,6.21-4.59,9.68-6.31c2.04-0.88,1.06-3.56,1.38-5.28
	C30.05,22.93,24.57,24.17,19.74,22.11 M23.81,20.1c-0.03,0.5-0.08,1.52-0.11,2.03c1.68-0.38,4.75,0.79,4.65-1.87
	C26.84,20.21,25.32,20.15,23.81,20.1z"/>
<path fill="#6E706D" d="M23.81,20.1c1.51,0.05,3.03,0.11,4.54,0.16c0.1,2.66-2.97,1.49-4.65,1.87C23.73,21.62,23.78,20.6,23.81,20.1
	z"/>
<path fill="#50524F" d="M59.92,22.9c1.74-0.79,3.34-1.84,5.09-2.61c1.08,0.81,2.1,1.69,3.18,2.5C65.43,22.75,62.68,22.76,59.92,22.9
	z"/>
<path fill="#040702" d="M76.189,20.57c1.25,0.39,2.511,0.78,3.761,1.19c-1.12,0.39-2.25,0.75-3.38,1.08
	C76.471,22.27,76.279,21.14,76.189,20.57z"/>
<path fill="#1C1D1B" d="M5.83,24.33c1.17-0.87,2.33-1.75,3.5-2.6c-0.55,1.31-1.37,2.61-0.86,4.07c-0.56,2-1.03,4.02-1.43,6.06
	C8.03,32.92,9,34,9.95,35.1c-1.28-0.61-2.51-1.33-3.76-2c0.17-2.22,0.23-4.46,0.83-6.61C6.62,25.77,6.22,25.05,5.83,24.33z"/>
<path fill="#1C1D1B" d="M16.07,26.04c1.98-0.01,2.93,1.89,4.11,3.17c2.4,0.18,5.04,0.58,6.81,2.38c-2.84-0.17-5.43-1.4-8.1-2.24
	C17.97,28.22,17.01,27.13,16.07,26.04z"/>
<path fill="#1C1D1B" d="M55.07,28.47c4.83,1.64,9.938,1.48,14.959,1.11C65.37,31.33,59.07,31.93,55.07,28.47z"/>
<path fill="#040702" d="M48.56,32.93c0.84-2.66,4.62-2.12,6.49-0.91c2.979,6.25,1.54,13.53,0.08,20.02
	c-1.239,5.43-1.649,11.51-5.43,15.92c-0.19-0.729-0.58-2.2-0.77-2.93c1.17-2.29,2.84-4.44,3.12-7.08
	c0.55-6.261,3.33-12.21,2.601-18.6c-0.971,0.25-2.909,0.75-3.871,1c-0.86-1.33-1.7-2.67-2.52-4.03c-1.71,0.23-3.52,1.45-5.22,0.53
	c1.1-3.05,5.58-1.95,8.15-2.11c0.05,0.81,0.16,2.43,0.22,3.24c0.5-0.1,1.5-0.3,2-0.4c0.09-1.2,0.18-2.39,0.27-3.59
	C51.98,33.61,50.27,33.29,48.56,32.93z"/>
<path fill="#FFFFFF" d="M93.029,46.38c5.211-3.229,9.511-8.31,9.971-14.65V81H40.25c0.68-1.28,0.69-3.01,1.8-4
	c3.34-0.99,6.97-0.609,10.24-1.79c5.521-3.08,11.22-5.96,17.29-7.819C74.09,66,77.75,62.84,82.061,61
	c3.891-3.76,8.699-7.109,10.58-12.41C92.74,48.04,92.93,46.93,93.029,46.38z"/>
<path fill="#1C1D1B" d="M94.74,39.34c-0.11-1.54,1.18-3.18,2.39-4.05C98.8,36.33,96.529,39.98,94.74,39.34z"/>
<path fill="#1C1D1B" d="M8.22,36.36c0.99-1.02,3.19,0.3,2.4,1.66C9.66,39.3,7.35,37.7,8.22,36.36z"/>
<path fill="#1C1D1B" d="M60.859,35.92c1.451,5.85,1.971,11.96,1.351,17.96c-0.51,3.2-0.899,6.601-3,9.22
	c-0.29-2.67,2.14-4.52,2.351-7.1C62.18,49.3,60.59,42.62,60.859,35.92z"/>
<path fill="#1C1D1B" d="M90.58,39.65c1.15-0.87,2.04-0.75,2.68,0.35C93.189,41.98,89.23,41.67,90.58,39.65z"/>
<path fill="#1C1D1B" d="M67.75,39.83c1.05,5.061,0.09,10.41-1.25,15.34C66.08,50.02,67.391,44.95,67.75,39.83z"/>
<path fill="#1C1D1B" d="M12.32,56.65c0.89-0.36,1.79-0.73,2.68-1.102c0.66,0.32,1.32,0.641,1.98,0.95
	c-0.72,0.09-2.17,0.28-2.89,0.37c-2.25,1.14-2.29,4.561-4.9,5.279C9.94,60.16,11.06,58.35,12.32,56.65z"/>
<path fill="#000200" d="M13.46,59.13c1.87,1.08,2.57,3.16,3.45,5.011c3.39,1.239,7.18,1.76,10,4.189c2.64,0.16,5.26-0.221,7.83-0.84
	c0.78,0.5,1.56,1.01,2.34,1.529c-3.33,0.771-6.69,1.439-10.12,1.631c-3.46-2.461-7.8-3.102-11.34-5.37
	C13.53,63.98,13.3,61.35,13.46,59.13z"/>
<path fill="#040702" d="M38.02,61.37c1.17-1.03,2.79-0.771,4.22-0.94c-0.17,2.12,1.67,2.16,3.25,2.381
	c0.36,2.229,0.25,4.59-2.36,5.129c0.55-1.438,2.17-2.648,1.5-4.35c-0.67-0.06-2-0.18-2.66-0.24c-0.03,2.461-1.9,3.971-3.7,5.271
	c-0.74-0.5-1.49-1-2.23-1.5c2.27-0.82,3.56-3.07,5.8-3.92l-0.2-1.852C40.73,61.359,38.92,61.37,38.02,61.37z"/>
<path fill="#1C1D1B" d="M25.89,73.52c-3.62,1.23-10.26-0.289-9.3-5.17c2.34,1.44,4.4,3.69,7.38,3.49
	C25.14,71.65,25.52,72.63,25.89,73.52z"/>
</svg>
