<?xml version="1.0" encoding="UTF-8" ?>
<!DOCTYPE svg PUBLIC "-//W3C//DTD SVG 1.1//EN" "http://www.w3.org/Graphics/SVG/1.1/DTD/svg11.dtd">
<svg width="1000pt" height="584pt" viewBox="0 0 1000 584" version="1.1" xmlns="http://www.w3.org/2000/svg">
<g id="#ffffffff">
<path fill="#ffffff" opacity="1.00" d=" M 209.45 89.71 C 239.02 90.52 268.52 92.74 298.00 95.02 C 307.77 95.61 317.87 94.58 327.30 97.80 C 330.13 98.68 332.53 100.44 335.11 101.83 C 338.07 102.08 341.04 101.66 344.00 101.72 C 361.44 101.69 378.51 107.58 393.15 116.87 C 402.20 122.55 410.40 129.51 417.83 137.17 C 418.93 138.36 420.54 139.69 419.76 141.50 C 418.04 148.49 417.87 156.20 421.26 162.74 C 425.60 171.40 434.05 176.70 441.26 182.75 C 446.20 186.89 451.03 191.72 453.05 198.01 C 456.20 208.00 456.73 218.94 453.78 229.05 C 450.72 239.85 444.46 249.31 438.88 258.92 C 436.42 257.16 434.20 254.30 433.18 251.41 C 437.63 249.28 442.62 247.71 446.11 244.06 C 450.42 235.06 451.73 224.67 450.17 214.84 C 447.54 199.89 436.76 187.25 423.41 180.51 C 422.03 179.92 420.48 180.37 419.04 180.37 C 412.99 180.92 406.90 180.71 400.87 180.15 C 394.87 179.45 388.75 178.91 382.75 179.88 C 383.69 181.52 385.74 181.86 387.37 182.49 C 396.41 185.23 405.79 182.30 415.00 182.50 C 418.18 182.18 420.97 183.92 423.68 185.31 C 433.73 190.75 442.42 199.34 446.56 210.14 C 449.44 217.55 449.57 226.05 446.61 233.46 C 444.90 237.73 442.68 242.13 438.75 244.77 C 436.06 246.55 433.03 247.77 429.95 248.67 C 428.32 247.47 427.19 245.65 425.39 244.64 C 422.11 242.74 418.46 241.59 414.89 240.38 C 407.56 237.70 399.63 238.40 391.99 238.22 C 388.37 237.91 385.20 239.90 381.90 241.01 C 377.33 242.70 374.00 246.39 370.15 249.19 C 368.03 250.72 366.69 253.07 364.55 254.57 C 362.04 256.34 360.08 258.80 357.38 260.29 C 350.03 264.45 341.78 266.61 333.61 268.51 C 324.42 269.19 315.19 268.74 305.98 268.67 C 315.46 264.20 324.01 256.85 327.90 246.90 C 330.72 248.52 333.71 251.56 337.25 250.32 C 339.51 249.16 339.24 246.30 339.68 244.18 C 348.07 246.96 355.76 251.62 364.26 254.04 C 361.39 251.69 358.03 250.06 355.03 247.91 C 339.55 237.36 325.18 225.18 308.96 215.74 C 308.55 210.20 308.69 204.59 308.87 199.04 C 312.38 194.62 317.95 192.55 323.25 191.18 C 338.47 187.55 354.43 189.30 369.61 185.44 C 372.33 184.65 375.17 183.92 377.48 182.20 C 376.12 176.26 371.73 171.33 366.30 168.74 C 359.69 165.57 352.20 164.73 344.94 164.87 C 333.98 165.41 322.94 167.90 313.26 173.20 C 308.30 175.80 304.04 179.72 301.51 184.77 C 296.87 185.27 292.61 182.54 288.01 182.49 C 285.98 182.46 284.12 183.53 282.76 184.97 C 282.82 188.41 285.18 191.44 288.23 192.85 C 291.70 194.76 295.83 194.98 299.28 196.87 C 299.63 204.76 298.95 212.71 299.57 220.56 C 305.63 227.23 315.35 229.44 320.67 236.91 C 318.51 246.88 310.31 253.68 302.79 259.81 C 301.28 261.29 298.97 261.01 297.08 260.68 C 294.33 259.83 292.51 257.33 289.88 256.24 C 288.06 255.79 286.34 256.98 285.24 258.32 C 285.85 261.88 287.73 265.24 290.43 267.65 C 292.17 269.17 293.75 271.13 296.10 271.70 C 303.85 273.95 312.01 273.75 320.00 273.83 C 332.03 274.45 343.69 270.88 355.41 268.70 C 351.59 275.79 346.58 282.29 343.73 289.88 C 342.33 294.46 342.52 299.35 343.10 304.05 C 343.77 310.05 346.29 315.62 347.26 321.56 C 348.29 325.95 348.42 330.48 348.90 334.96 C 349.87 344.25 348.84 353.57 348.17 362.84 C 345.83 378.16 337.48 392.20 337.35 407.93 C 336.54 415.24 336.08 422.59 336.05 429.95 C 332.77 425.58 328.34 422.32 324.31 418.69 C 317.04 413.06 309.46 407.65 300.90 404.14 C 293.56 400.88 285.00 398.53 277.17 401.53 C 277.13 403.28 279.38 403.09 280.56 403.64 C 291.83 406.09 303.02 409.82 312.67 416.29 C 317.10 419.82 321.69 423.19 325.71 427.21 C 329.88 431.58 334.35 435.93 336.84 441.55 C 320.59 439.17 304.74 434.79 289.04 430.07 C 276.41 426.67 263.94 422.40 250.93 420.64 C 245.41 419.89 239.74 422.62 234.40 420.38 C 225.53 417.15 217.33 412.40 209.05 407.92 C 177.97 390.26 143.26 379.59 113.40 359.67 C 101.88 352.12 91.45 342.87 82.87 332.09 C 70.51 316.70 61.87 298.78 50.09 282.99 C 48.60 280.97 46.95 279.05 45.76 276.83 C 48.93 276.19 50.97 279.18 53.77 279.91 C 54.86 279.52 55.73 276.89 53.93 276.90 C 44.98 273.85 36.49 268.97 30.24 261.77 C 23.69 254.40 19.84 244.81 19.03 235.01 C 17.08 212.73 29.88 189.89 50.08 180.17 C 53.80 178.13 57.98 177.31 61.92 175.89 C 59.66 175.07 56.88 175.07 55.23 173.08 C 68.54 160.19 74.71 142.32 83.37 126.37 C 89.17 115.76 96.33 105.17 107.02 99.00 C 117.74 93.25 130.11 91.99 142.04 91.01 C 164.47 89.43 186.97 89.23 209.45 89.71 M 199.59 94.92 C 176.34 98.35 155.01 109.18 135.06 121.13 C 125.11 127.43 114.95 134.24 108.10 144.01 C 122.21 134.46 135.71 123.93 150.61 115.57 C 168.74 105.11 189.05 98.03 210.02 96.65 C 245.26 95.13 279.76 107.47 315.03 103.78 C 319.37 103.29 323.83 103.53 328.05 102.27 C 293.75 104.95 260.11 95.62 226.00 94.07 C 217.20 93.38 208.35 93.94 199.59 94.92 M 208.59 108.91 C 175.11 112.50 142.19 126.99 119.10 151.85 C 121.63 151.93 124.33 151.91 126.57 150.54 C 131.13 147.95 134.06 143.40 138.04 140.09 C 160.43 122.44 188.58 112.65 216.96 111.28 C 236.92 109.82 256.73 113.45 276.47 115.83 C 302.17 119.05 328.58 121.39 354.11 115.65 C 357.34 115.14 360.63 113.13 363.92 114.40 C 367.62 115.51 369.86 118.93 372.96 121.00 C 372.61 116.68 369.62 112.69 365.25 111.86 C 356.18 110.22 347.08 112.69 338.16 114.12 C 319.95 117.67 301.22 116.70 282.93 114.40 C 265.30 112.22 247.83 108.21 230.00 108.16 C 222.86 108.11 215.69 108.11 208.59 108.91 M 196.54 123.84 C 181.92 125.41 167.20 128.91 154.43 136.44 C 145.93 141.53 138.29 148.62 134.12 157.73 C 142.76 145.96 155.83 138.29 169.41 133.51 C 189.74 126.41 211.57 124.65 232.98 125.50 C 236.79 125.48 239.86 128.41 243.68 128.55 C 243.35 127.41 243.06 125.73 241.61 125.59 C 226.77 122.92 211.55 122.66 196.54 123.84 M 233.39 128.41 C 231.79 128.57 231.67 130.45 232.61 131.44 C 235.50 135.34 240.26 137.63 242.51 142.02 C 243.27 145.97 241.90 149.95 242.32 153.92 C 242.36 155.06 243.40 156.55 244.70 156.12 C 244.74 150.76 244.86 145.39 244.63 140.04 C 242.39 136.81 239.43 134.12 237.24 130.84 C 236.22 129.66 235.33 127.29 233.39 128.41 M 321.54 128.83 C 313.91 129.97 305.78 131.61 299.85 136.91 C 303.28 136.40 306.54 135.12 309.92 134.39 C 323.01 131.34 336.67 129.83 350.03 131.89 C 358.64 133.36 367.59 136.82 372.81 144.19 C 375.90 148.33 377.01 153.47 377.72 158.48 C 379.38 158.30 379.96 156.38 380.34 155.03 C 379.87 151.55 377.60 148.57 377.34 145.05 C 377.10 143.64 377.55 141.83 375.99 141.07 C 366.47 133.68 354.65 129.54 342.71 128.40 C 335.66 127.99 328.56 128.01 321.54 128.83 M 310.24 142.20 C 307.78 144.36 306.19 147.37 304.26 150.00 C 304.14 156.74 304.08 163.51 304.29 170.26 C 308.49 163.43 305.07 154.70 308.66 147.65 C 309.47 146.01 311.34 145.43 312.73 144.42 C 313.44 143.01 311.55 141.63 310.24 142.20 M 182.13 154.11 C 170.72 155.10 159.16 158.07 149.66 164.68 C 142.90 169.46 137.26 176.59 136.02 184.94 C 138.70 188.04 142.94 189.59 147.00 189.31 C 153.16 188.96 158.89 186.38 164.92 185.32 C 169.22 184.50 173.62 184.57 177.98 184.64 C 196.48 185.12 214.66 190.42 230.97 199.05 C 232.33 199.76 233.68 200.51 235.11 201.12 C 237.84 199.17 240.39 196.95 243.33 195.29 C 247.20 193.00 251.10 189.71 251.80 185.01 C 249.31 174.97 240.75 167.75 231.94 163.09 C 216.68 155.33 199.09 152.71 182.13 154.11 M 124.40 175.57 C 119.66 177.11 114.89 179.16 109.77 178.25 C 109.74 181.09 111.84 183.54 114.57 184.15 C 118.40 184.95 122.35 184.85 126.24 184.72 C 124.48 181.31 119.88 183.15 116.84 182.57 C 120.13 178.26 126.12 178.32 130.98 177.50 C 129.37 175.59 126.82 174.71 124.40 175.57 M 55.48 180.77 C 50.72 181.84 46.38 184.53 43.16 188.18 C 39.19 192.66 36.28 197.92 32.63 202.65 C 31.51 203.80 31.61 205.45 31.56 206.94 C 31.62 217.27 30.94 227.66 32.26 237.94 C 32.38 243.90 33.47 249.81 35.30 255.47 C 35.79 256.91 36.34 258.49 37.77 259.26 C 45.06 264.36 53.27 268.44 62.10 269.95 C 59.28 264.13 52.26 263.72 46.80 262.14 C 39.76 260.16 36.22 252.97 34.29 246.49 C 31.71 236.72 31.97 226.39 33.73 216.51 C 35.52 207.41 38.44 198.41 43.34 190.49 C 44.40 188.97 45.35 186.92 47.44 186.72 C 51.24 186.05 55.10 185.20 58.07 182.54 C 69.67 182.15 81.31 182.50 92.93 182.40 C 90.46 180.29 87.11 179.95 84.00 179.80 C 79.31 179.60 74.66 180.40 69.98 180.45 C 65.15 180.71 60.26 179.71 55.48 180.77 M 124.41 187.57 C 122.71 188.06 122.24 189.65 122.94 191.21 C 125.66 190.92 128.77 190.35 131.10 188.94 C 129.60 186.84 126.62 187.13 124.41 187.57 M 75.50 188.79 C 69.33 189.82 63.55 192.76 58.99 197.03 C 49.06 206.27 43.77 220.44 45.65 233.92 C 47.00 243.40 52.26 252.37 59.99 258.03 C 61.66 254.16 61.90 249.64 60.21 245.73 C 58.23 240.96 55.18 236.39 55.17 231.04 C 54.95 221.20 58.33 210.55 66.53 204.53 C 74.68 198.65 85.34 197.86 95.03 198.96 C 103.67 199.85 111.32 204.26 118.94 208.10 C 127.40 212.48 136.40 216.26 146.00 217.06 C 156.59 217.90 167.91 216.14 176.63 209.70 C 183.12 205.20 188.34 197.92 187.96 189.72 C 184.11 189.32 180.58 191.44 177.61 193.65 C 172.20 197.89 167.33 203.25 160.60 205.40 C 153.32 207.57 145.51 206.70 138.27 204.81 C 123.63 200.91 110.30 193.22 95.53 189.72 C 89.00 188.13 82.15 187.75 75.50 188.79 M 417.30 192.20 C 416.31 193.51 415.98 195.44 417.83 196.17 C 421.86 198.80 426.99 199.19 430.86 202.13 C 432.43 203.23 432.10 205.38 432.36 207.04 C 432.70 213.35 433.82 219.64 433.22 225.97 C 432.84 229.58 431.57 233.33 428.70 235.73 C 426.47 237.74 423.46 238.39 420.82 239.65 C 424.23 240.57 428.35 240.71 431.04 238.02 C 434.36 234.62 435.37 229.64 435.74 225.05 C 436.07 217.26 435.89 209.37 434.24 201.73 C 432.68 199.24 429.58 198.21 427.06 196.91 C 423.69 195.57 420.60 193.66 417.30 192.20 M 393.57 201.84 C 383.90 203.89 373.94 207.76 367.62 215.72 C 363.02 215.03 359.70 211.40 355.55 209.65 C 353.40 208.75 350.70 209.18 349.15 210.98 C 349.01 213.96 349.58 217.15 351.57 219.50 C 354.10 222.56 358.11 223.83 361.91 224.41 C 368.54 225.26 375.25 225.31 381.93 225.05 C 382.77 221.99 383.02 218.63 385.10 216.08 C 388.06 212.18 393.35 211.23 397.97 211.42 C 407.12 211.50 415.71 215.47 424.83 215.72 C 424.20 210.35 420.64 205.46 415.68 203.29 C 408.77 200.15 400.87 200.42 393.57 201.84 M 210.36 225.56 C 210.60 227.24 211.75 228.82 211.51 230.54 C 210.14 233.25 207.00 234.50 204.11 234.69 C 196.36 235.32 188.62 233.59 180.87 234.37 C 178.01 234.58 175.07 236.06 173.88 238.79 C 182.27 235.69 191.27 236.86 200.00 236.86 C 204.60 236.82 209.45 236.87 213.65 234.74 C 214.01 231.55 213.91 228.32 213.72 225.12 C 212.59 225.19 211.47 225.34 210.36 225.56 M 231.19 225.22 C 225.86 226.21 219.98 227.90 216.52 232.36 C 214.79 240.21 215.28 249.26 220.04 256.02 C 222.82 260.22 229.18 261.15 233.03 257.96 C 233.65 255.49 233.41 252.41 231.13 250.84 C 228.92 248.84 225.26 247.52 225.18 244.06 C 225.11 241.07 225.56 237.05 228.78 235.81 C 233.42 234.16 238.47 235.30 243.19 234.14 C 245.54 233.62 247.51 231.46 247.26 228.97 C 247.61 227.37 245.81 226.79 244.71 226.30 C 240.42 224.67 235.69 224.42 231.19 225.22 M 241.56 242.88 C 240.29 243.20 239.04 243.57 237.83 244.07 C 236.98 247.98 237.71 252.22 239.86 255.61 C 242.11 254.25 244.25 252.51 246.94 252.16 C 255.61 250.53 265.12 255.59 273.30 251.00 C 272.82 246.74 269.10 243.90 265.23 242.78 C 257.54 240.52 249.29 241.15 241.56 242.88 M 333.23 278.33 C 327.48 279.27 321.64 279.36 315.92 280.43 C 310.02 281.55 303.99 281.30 298.03 281.79 C 291.48 282.35 284.98 281.04 278.44 281.23 C 277.92 284.41 277.27 287.70 277.78 290.92 C 278.41 293.76 281.73 294.08 283.98 295.02 C 292.77 297.59 301.69 300.12 310.89 300.59 C 316.78 301.08 323.04 302.14 328.67 299.77 C 332.68 297.69 336.01 294.50 339.02 291.17 C 327.52 293.70 315.65 294.59 303.93 293.52 C 299.95 292.69 295.68 292.56 292.07 290.57 C 297.40 290.38 302.66 289.43 308.00 289.25 C 313.55 289.06 318.97 287.70 324.37 286.48 C 329.86 284.88 335.47 282.46 339.33 278.10 C 337.29 278.01 335.25 278.08 333.23 278.33 M 276.17 306.24 C 278.96 309.26 281.65 313.20 286.02 313.84 C 294.62 315.15 303.34 314.68 312.00 314.77 C 320.88 314.71 329.76 314.88 338.63 314.60 C 338.84 313.05 338.88 311.48 338.84 309.93 C 327.09 309.52 315.27 310.03 303.56 308.59 C 294.39 308.37 285.30 307.08 276.17 306.24 M 131.11 343.36 C 135.35 345.80 139.94 347.53 144.28 349.78 C 161.73 358.65 178.64 368.60 196.60 376.44 C 214.84 384.51 234.14 390.69 254.07 392.60 C 258.35 392.98 262.60 393.67 266.91 393.73 C 266.98 393.27 267.13 392.33 267.21 391.87 C 267.16 390.25 265.10 390.86 264.10 390.55 C 251.57 389.73 239.13 387.49 227.12 383.78 C 207.62 377.90 189.24 368.96 171.02 359.98 C 158.08 353.63 145.06 347.18 131.11 343.36 M 108.02 344.04 C 110.31 346.10 112.90 347.80 115.45 349.53 C 134.03 362.06 154.48 371.54 175.37 379.52 C 177.84 380.48 180.38 381.24 182.93 381.98 C 208.35 390.97 234.58 397.60 261.12 402.30 C 264.85 402.95 268.58 403.68 272.37 404.02 C 272.29 403.52 272.14 402.51 272.07 402.00 C 250.01 398.30 228.21 393.11 206.88 386.37 C 200.45 384.41 194.17 382.00 187.66 380.31 C 163.30 371.29 139.37 361.00 116.54 348.57 C 113.73 347.01 110.99 345.30 108.02 344.04 M 271.26 356.35 C 269.14 356.60 267.02 356.89 264.92 357.32 C 266.67 359.07 268.99 360.04 271.38 360.59 C 276.43 361.78 281.59 362.43 286.70 363.38 C 288.62 363.78 290.69 364.11 292.18 365.52 C 286.28 366.41 279.49 366.48 274.86 370.78 C 281.58 371.77 288.49 371.42 295.08 373.25 C 298.69 374.15 301.79 376.30 304.95 378.18 C 313.31 383.29 321.71 388.54 331.03 391.72 C 327.34 384.55 321.79 378.55 316.05 372.97 C 304.13 361.87 287.86 354.05 271.26 356.35 M 285.43 380.55 C 284.20 380.69 282.99 380.90 281.79 381.18 C 283.20 382.69 285.26 383.21 287.12 383.94 C 291.71 385.56 296.22 387.40 300.66 389.37 C 306.62 391.97 311.36 396.55 316.19 400.78 C 321.67 405.90 327.43 411.53 335.07 413.05 C 335.04 411.56 335.55 409.77 334.38 408.59 C 325.19 398.63 314.66 389.87 303.01 382.93 C 297.73 379.80 291.32 380.10 285.43 380.55 Z" />
<path fill="#ffffff" opacity="1.00" d=" M 203.41 164.43 C 204.21 162.81 206.01 164.24 207.17 164.53 C 215.62 168.05 224.72 170.37 232.29 175.70 C 235.64 178.04 238.56 181.79 237.93 186.12 C 238.28 187.79 236.06 187.74 235.06 188.12 C 231.58 188.74 228.12 187.42 225.07 185.87 C 219.53 182.96 214.28 179.17 208.03 177.95 C 205.44 177.34 202.77 177.63 200.14 177.61 C 201.22 173.24 200.89 168.29 203.41 164.43 Z" />
<path fill="#ffffff" opacity="1.00" d=" M 388.37 244.52 C 392.41 243.13 396.76 243.54 400.95 243.62 C 414.58 245.44 427.46 253.72 433.81 266.07 C 438.67 274.86 438.40 285.27 438.06 295.01 C 436.43 308.98 430.68 322.05 428.27 335.87 C 426.94 341.17 427.32 346.69 427.48 352.10 C 428.25 357.33 430.21 362.29 431.35 367.45 C 434.32 383.46 434.23 399.86 432.92 416.04 C 432.24 426.89 428.60 437.49 422.64 446.57 C 418.44 452.69 412.85 457.96 406.13 461.21 C 391.92 467.41 374.72 467.63 361.00 460.01 C 356.82 457.30 352.58 454.24 350.23 449.72 C 342.53 437.26 343.46 421.98 344.13 407.94 C 345.79 393.09 352.52 379.46 355.76 364.98 C 356.85 357.05 357.43 349.00 356.86 341.00 C 356.51 334.24 357.11 327.33 355.22 320.76 C 353.90 315.56 352.18 310.39 351.89 305.00 C 352.00 300.50 353.75 296.28 354.89 291.98 C 359.51 276.20 366.94 260.51 379.82 249.81 C 382.50 247.81 385.14 245.57 388.37 244.52 M 393.49 257.66 C 389.20 258.07 385.64 260.75 382.50 263.50 C 374.67 270.55 370.05 280.52 367.42 290.57 C 363.86 307.51 366.20 324.88 365.64 342.02 C 365.33 346.99 365.88 352.07 364.57 356.94 C 360.67 378.67 355.26 400.84 358.78 423.00 C 359.75 431.51 364.79 439.42 371.97 444.03 C 376.42 446.93 381.71 448.12 386.93 448.65 C 395.43 449.00 404.71 445.95 409.60 438.59 C 415.84 428.69 420.16 417.54 422.10 405.98 C 423.04 397.29 423.08 388.26 420.13 379.92 C 418.44 375.43 417.19 370.75 416.71 365.97 C 416.68 357.99 416.12 349.88 418.20 342.08 C 421.72 329.96 428.47 318.71 429.50 305.94 C 430.10 299.42 427.80 293.18 426.47 286.91 C 424.63 278.88 422.45 270.44 416.79 264.17 C 410.23 259.22 401.72 256.41 393.49 257.66 Z" />
<path fill="#ffffff" opacity="1.00" d=" M 392.30 265.41 C 396.08 264.04 400.20 264.59 403.96 265.75 C 409.13 267.12 413.96 270.83 415.58 276.08 C 415.88 277.80 415.89 279.55 415.94 281.30 C 405.98 278.38 395.67 276.19 385.25 276.60 L 384.99 276.04 C 386.09 273.54 387.47 271.17 388.84 268.82 C 389.69 267.44 390.67 265.93 392.30 265.41 Z" />
<path fill="#ffffff" opacity="1.00" d=" M 395.23 279.50 L 395.65 279.01 C 397.17 284.60 398.57 290.32 398.76 296.14 C 394.54 296.02 390.45 294.73 386.25 294.32 C 388.87 289.18 391.87 284.19 395.23 279.50 Z" />
<path fill="#ffffff" opacity="1.00" d=" M 382.50 281.47 C 382.77 281.36 383.30 281.14 383.57 281.03 C 383.68 286.07 383.84 291.13 383.66 296.18 C 380.51 296.27 377.36 296.27 374.22 296.18 C 374.23 290.24 377.94 284.98 382.50 281.47 Z" />
<path fill="#ffffff" opacity="1.00" d=" M 405.58 280.94 C 407.12 285.86 408.55 290.90 408.99 296.06 C 406.48 296.23 403.96 296.20 401.46 296.09 C 402.47 290.95 403.96 285.91 405.58 280.94 Z" />
<path fill="#ffffff" opacity="1.00" d=" M 416.86 285.41 C 417.00 285.35 417.29 285.22 417.44 285.16 C 418.93 288.62 421.19 291.92 421.93 295.62 C 419.30 296.18 416.60 296.33 413.92 296.18 C 414.68 292.53 415.90 289.00 416.86 285.41 Z" />
<path fill="#ffffff" opacity="1.00" d=" M 376.38 300.49 C 391.64 300.34 406.93 300.13 422.17 300.94 C 422.27 320.05 408.67 336.04 408.46 355.07 C 406.89 371.77 417.29 387.06 415.29 403.76 C 413.01 401.99 411.70 399.28 409.97 397.01 C 404.78 389.42 398.56 381.72 389.62 378.50 C 382.95 376.31 375.89 375.50 368.91 375.22 C 371.82 361.35 373.68 347.19 373.36 333.00 C 373.38 322.68 373.33 312.37 373.37 302.06 C 372.97 300.12 375.24 300.63 376.38 300.49 Z" />
<path fill="#ffffff" opacity="1.00" d=" M 367.90 380.56 L 368.02 380.16 C 372.30 380.18 376.58 380.37 380.85 380.61 C 389.57 382.04 397.52 387.27 402.51 394.54 C 404.58 397.64 407.16 400.52 408.45 404.06 C 393.97 404.73 379.47 405.07 364.97 404.73 C 364.96 396.67 366.12 388.47 367.90 380.56 Z" />
<path fill="#ffffff" opacity="1.00" d=" M 402.28 409.45 C 406.09 409.20 409.92 409.13 413.74 409.24 C 412.23 414.87 410.25 420.41 407.77 425.68 L 407.19 425.79 C 403.78 421.06 402.96 415.09 402.28 409.45 Z" />
<path fill="#ffffff" opacity="1.00" d=" M 364.40 410.59 C 368.07 410.16 371.78 410.21 375.47 410.12 C 375.22 415.34 374.03 420.47 372.99 425.58 C 368.68 421.54 365.65 416.21 363.54 410.74 L 364.40 410.59 Z" />
<path fill="#ffffff" opacity="1.00" d=" M 379.75 410.38 C 382.34 409.88 385.01 410.06 387.63 410.30 C 387.90 413.95 387.85 417.62 387.78 421.28 C 385.59 421.67 383.31 421.54 381.16 420.97 C 380.24 417.52 379.79 413.94 379.75 410.38 Z" />
<path fill="#ffffff" opacity="1.00" d=" M 392.36 410.13 C 394.40 410.10 396.47 410.25 398.46 410.76 C 398.55 417.19 398.79 423.68 397.75 430.06 C 392.53 424.85 392.09 417.06 392.36 410.13 Z" />
<path fill="#ffffff" opacity="1.00" d=" M 375.41 427.41 C 379.11 425.83 383.40 426.06 386.88 428.12 C 392.84 431.17 399.55 431.78 406.10 432.43 C 405.63 433.69 404.58 434.58 403.57 435.42 C 396.31 441.14 385.83 442.22 377.46 438.39 C 373.86 436.45 370.88 433.44 368.79 429.94 C 370.95 428.99 373.19 428.22 375.41 427.41 Z" />
</g>
<g id="#090b0aff">
<path fill="#090b0a" opacity="1.00" d=" M 127.60 81.88 C 134.66 80.64 141.84 80.28 148.99 80.55 C 186.66 80.57 224.33 80.55 261.99 80.56 C 266.00 80.67 269.95 81.39 273.95 81.72 C 302.57 84.96 331.41 87.29 359.54 93.79 C 375.77 97.61 391.88 102.94 406.02 111.95 C 415.28 117.93 423.73 125.56 429.54 135.00 C 429.20 140.70 428.56 146.53 429.94 152.15 C 431.30 158.19 434.71 163.60 439.03 167.96 C 445.12 174.25 452.81 178.88 458.14 185.91 C 460.88 189.36 462.57 193.46 464.73 197.27 C 467.64 202.64 468.83 208.87 468.30 214.94 C 467.84 219.41 468.84 224.05 467.39 228.39 C 466.39 231.59 465.80 234.97 464.00 237.85 C 461.63 241.91 459.68 246.20 457.20 250.19 C 453.18 256.86 448.59 263.22 445.32 270.32 C 443.78 273.39 445.22 276.83 445.30 280.05 C 445.54 287.39 445.69 294.78 444.55 302.06 C 442.23 315.54 436.50 328.28 435.32 341.98 C 435.24 346.57 434.99 351.24 436.12 355.74 C 437.68 364.44 440.84 373.00 440.27 381.95 C 439.06 394.88 441.56 407.90 439.79 420.81 C 439.32 427.59 437.39 434.24 434.31 440.29 C 429.90 449.53 424.05 458.64 415.25 464.24 C 410.36 467.44 404.73 469.20 399.52 471.79 C 398.44 472.33 397.28 472.78 396.05 472.70 C 389.70 472.73 383.34 472.67 376.99 472.72 C 374.24 472.85 371.64 471.89 369.03 471.20 C 363.53 469.48 357.90 467.40 353.73 463.26 C 351.30 460.69 348.50 458.49 346.24 455.77 C 344.38 453.64 342.73 451.25 340.37 449.64 C 338.99 449.08 337.44 449.38 336.00 449.29 C 329.67 449.34 323.33 449.32 317.00 449.34 C 313.08 449.43 309.70 447.13 306.03 446.11 C 282.18 438.27 256.66 437.39 232.86 429.35 C 214.75 422.76 199.41 410.35 181.23 403.89 C 168.26 398.83 154.86 394.83 142.39 388.55 C 125.92 380.31 110.22 370.54 95.48 359.50 C 86.64 352.79 78.04 345.67 70.50 337.50 C 62.28 328.14 58.63 315.99 52.86 305.17 C 44.13 288.58 28.12 277.57 18.09 261.90 C 12.20 253.20 9.20 242.50 10.10 232.01 C 10.44 224.19 8.91 215.86 12.47 208.56 C 14.28 204.41 14.97 199.59 18.24 196.24 C 22.81 191.15 27.72 186.36 32.51 181.47 C 40.11 174.08 49.94 168.94 55.98 159.99 C 62.58 150.13 63.74 137.83 69.61 127.60 C 75.05 118.08 81.49 109.03 89.47 101.46 C 99.88 91.36 113.32 84.43 127.60 81.88 M 209.45 89.71 C 186.97 89.23 164.47 89.43 142.04 91.01 C 130.11 91.99 117.74 93.25 107.02 99.00 C 96.33 105.17 89.17 115.76 83.37 126.37 C 74.71 142.32 68.54 160.19 55.23 173.08 C 56.88 175.07 59.66 175.07 61.92 175.89 C 57.98 177.31 53.80 178.13 50.08 180.17 C 29.88 189.89 17.08 212.73 19.03 235.01 C 19.84 244.81 23.69 254.40 30.24 261.77 C 36.49 268.97 44.98 273.85 53.93 276.90 C 55.73 276.89 54.86 279.52 53.77 279.91 C 50.97 279.18 48.93 276.19 45.76 276.83 C 46.95 279.05 48.60 280.97 50.09 282.99 C 61.87 298.78 70.51 316.70 82.87 332.09 C 91.45 342.87 101.88 352.12 113.40 359.67 C 143.26 379.59 177.97 390.26 209.05 407.92 C 217.33 412.40 225.53 417.15 234.40 420.38 C 239.74 422.62 245.41 419.89 250.93 420.64 C 263.94 422.40 276.41 426.67 289.04 430.07 C 304.74 434.79 320.59 439.17 336.84 441.55 C 334.35 435.93 329.88 431.58 325.71 427.21 C 321.69 423.19 317.10 419.82 312.67 416.29 C 303.02 409.82 291.83 406.09 280.56 403.64 C 279.38 403.09 277.13 403.28 277.17 401.53 C 285.00 398.53 293.56 400.88 300.90 404.14 C 309.46 407.65 317.04 413.06 324.31 418.69 C 328.34 422.32 332.77 425.58 336.05 429.95 C 336.08 422.59 336.54 415.24 337.35 407.93 C 337.48 392.20 345.83 378.16 348.17 362.84 C 348.84 353.57 349.87 344.25 348.90 334.96 C 348.42 330.48 348.29 325.95 347.26 321.56 C 346.29 315.62 343.77 310.05 343.10 304.05 C 342.52 299.35 342.33 294.46 343.73 289.88 C 346.58 282.29 351.59 275.79 355.41 268.70 C 343.69 270.88 332.03 274.45 320.00 273.83 C 312.01 273.75 303.85 273.95 296.10 271.70 C 293.75 271.13 292.17 269.17 290.43 267.65 C 287.73 265.24 285.85 261.88 285.24 258.32 C 286.34 256.98 288.06 255.79 289.88 256.24 C 292.51 257.33 294.33 259.83 297.08 260.68 C 298.97 261.01 301.28 261.29 302.79 259.81 C 310.31 253.68 318.51 246.88 320.67 236.91 C 315.35 229.44 305.63 227.23 299.57 220.56 C 298.95 212.71 299.63 204.76 299.28 196.87 C 295.83 194.98 291.70 194.76 288.23 192.85 C 285.18 191.44 282.82 188.41 282.76 184.97 C 284.12 183.53 285.98 182.46 288.01 182.49 C 292.61 182.54 296.87 185.27 301.51 184.77 C 304.04 179.72 308.30 175.80 313.26 173.20 C 322.94 167.90 333.98 165.41 344.94 164.87 C 352.20 164.73 359.69 165.57 366.30 168.74 C 371.73 171.33 376.12 176.26 377.48 182.20 C 375.17 183.92 372.33 184.65 369.61 185.44 C 354.43 189.30 338.47 187.55 323.25 191.18 C 317.95 192.55 312.38 194.62 308.87 199.04 C 308.69 204.59 308.55 210.20 308.96 215.74 C 325.18 225.18 339.55 237.36 355.03 247.91 C 358.03 250.06 361.39 251.69 364.26 254.04 C 355.76 251.62 348.07 246.96 339.68 244.18 C 339.24 246.30 339.51 249.16 337.25 250.32 C 333.71 251.56 330.72 248.52 327.90 246.90 C 324.01 256.85 315.46 264.20 305.98 268.67 C 315.19 268.74 324.42 269.19 333.61 268.51 C 341.78 266.61 350.03 264.45 357.38 260.29 C 360.08 258.80 362.04 256.34 364.55 254.57 C 366.69 253.07 368.03 250.72 370.15 249.19 C 374.00 246.39 377.33 242.70 381.90 241.01 C 385.20 239.90 388.37 237.91 391.99 238.22 C 399.63 238.40 407.56 237.70 414.89 240.38 C 418.46 241.59 422.11 242.74 425.39 244.64 C 427.19 245.65 428.32 247.47 429.95 248.67 C 433.03 247.77 436.06 246.55 438.75 244.77 C 442.68 242.13 444.90 237.73 446.61 233.46 C 449.57 226.05 449.44 217.55 446.56 210.14 C 442.42 199.34 433.73 190.75 423.68 185.31 C 420.97 183.92 418.18 182.18 415.00 182.50 C 405.79 182.30 396.41 185.23 387.37 182.49 C 385.74 181.86 383.69 181.52 382.75 179.88 C 388.75 178.91 394.87 179.45 400.87 180.15 C 406.90 180.71 412.99 180.92 419.04 180.37 C 420.48 180.37 422.03 179.92 423.41 180.51 C 436.76 187.25 447.54 199.89 450.17 214.84 C 451.73 224.67 450.42 235.06 446.11 244.06 C 442.62 247.71 437.63 249.28 433.18 251.41 C 434.20 254.30 436.42 257.16 438.88 258.92 C 444.46 249.31 450.72 239.85 453.78 229.05 C 456.73 218.94 456.20 208.00 453.05 198.01 C 451.03 191.72 446.20 186.89 441.26 182.75 C 434.05 176.70 425.60 171.40 421.26 162.74 C 417.87 156.20 418.04 148.49 419.76 141.50 C 420.54 139.69 418.93 138.36 417.83 137.17 C 410.40 129.51 402.20 122.55 393.15 116.87 C 378.51 107.58 361.44 101.69 344.00 101.72 C 341.04 101.66 338.07 102.08 335.11 101.83 C 332.53 100.44 330.13 98.68 327.30 97.80 C 317.87 94.58 307.77 95.61 298.00 95.02 C 268.52 92.74 239.02 90.52 209.45 89.71 M 339.16 175.48 C 341.84 178.63 346.27 178.41 350.01 178.00 C 353.67 177.51 357.36 177.54 361.05 177.56 C 359.21 175.05 355.85 174.81 353.01 174.96 C 348.40 175.37 343.79 175.83 339.16 175.48 M 388.37 244.52 C 385.14 245.57 382.50 247.81 379.82 249.81 C 366.94 260.51 359.51 276.20 354.89 291.98 C 353.75 296.28 352.00 300.50 351.89 305.00 C 352.18 310.39 353.90 315.56 355.22 320.76 C 357.11 327.33 356.51 334.24 356.86 341.00 C 357.43 349.00 356.85 357.05 355.76 364.98 C 352.52 379.46 345.79 393.09 344.13 407.94 C 343.46 421.98 342.53 437.26 350.23 449.72 C 352.58 454.24 356.82 457.30 361.00 460.01 C 374.72 467.63 391.92 467.41 406.13 461.21 C 412.85 457.96 418.44 452.69 422.64 446.57 C 428.60 437.49 432.24 426.89 432.92 416.04 C 434.23 399.86 434.32 383.46 431.35 367.45 C 430.21 362.29 428.25 357.33 427.48 352.10 C 427.32 346.69 426.94 341.17 428.27 335.87 C 430.68 322.05 436.43 308.98 438.06 295.01 C 438.40 285.27 438.67 274.86 433.81 266.07 C 427.46 253.72 414.58 245.44 400.95 243.62 C 396.76 243.54 392.41 243.13 388.37 244.52 Z" />
<path fill="#090b0a" opacity="1.00" d=" M 182.13 154.11 C 199.09 152.71 216.68 155.33 231.94 163.09 C 240.75 167.75 249.31 174.97 251.80 185.01 C 251.10 189.71 247.20 193.00 243.33 195.29 C 240.39 196.95 237.84 199.17 235.11 201.12 C 233.68 200.51 232.33 199.76 230.97 199.05 C 214.66 190.42 196.48 185.12 177.98 184.64 C 173.62 184.57 169.22 184.50 164.92 185.32 C 158.89 186.38 153.16 188.96 147.00 189.31 C 142.94 189.59 138.70 188.04 136.02 184.94 C 137.26 176.59 142.90 169.46 149.66 164.68 C 159.16 158.07 170.72 155.10 182.13 154.11 M 203.41 164.43 C 200.89 168.29 201.22 173.24 200.14 177.61 C 202.77 177.63 205.44 177.34 208.03 177.95 C 214.28 179.17 219.53 182.96 225.07 185.87 C 228.12 187.42 231.58 188.74 235.06 188.12 C 236.06 187.74 238.28 187.79 237.93 186.12 C 238.56 181.79 235.64 178.04 232.29 175.70 C 224.72 170.37 215.62 168.05 207.17 164.53 C 206.01 164.24 204.21 162.81 203.41 164.43 M 154.31 173.36 C 151.80 174.53 149.54 176.16 147.46 177.97 L 148.05 178.84 C 152.82 179.68 157.48 177.04 161.87 175.42 C 160.95 172.20 156.84 171.78 154.31 173.36 Z" />
<path fill="#090b0a" opacity="1.00" d=" M 75.50 188.79 C 82.15 187.75 89.00 188.13 95.53 189.72 C 110.30 193.22 123.63 200.91 138.27 204.81 C 145.51 206.70 153.32 207.57 160.60 205.40 C 167.33 203.25 172.20 197.89 177.61 193.65 C 180.58 191.44 184.11 189.32 187.96 189.72 C 188.34 197.92 183.12 205.20 176.63 209.70 C 167.91 216.14 156.59 217.90 146.00 217.06 C 136.40 216.26 127.40 212.48 118.94 208.10 C 111.32 204.26 103.67 199.85 95.03 198.96 C 85.34 197.86 74.68 198.65 66.53 204.53 C 58.33 210.55 54.95 221.20 55.17 231.04 C 55.18 236.39 58.23 240.96 60.21 245.73 C 61.90 249.64 61.66 254.16 59.99 258.03 C 52.26 252.37 47.00 243.40 45.65 233.92 C 43.77 220.44 49.06 206.27 58.99 197.03 C 63.55 192.76 69.33 189.82 75.50 188.79 Z" />
<path fill="#090b0a" opacity="1.00" d=" M 393.57 201.84 C 400.87 200.42 408.77 200.15 415.68 203.29 C 420.64 205.46 424.20 210.35 424.83 215.72 C 415.71 215.47 407.12 211.50 397.97 211.42 C 393.35 211.23 388.06 212.18 385.10 216.08 C 383.02 218.63 382.77 221.99 381.93 225.05 C 375.25 225.31 368.54 225.26 361.91 224.41 C 358.11 223.83 354.10 222.56 351.57 219.50 C 349.58 217.15 349.01 213.96 349.15 210.98 C 350.70 209.18 353.40 208.75 355.55 209.65 C 359.70 211.40 363.02 215.03 367.62 215.72 C 373.94 207.76 383.90 203.89 393.57 201.84 Z" />
<path fill="#090b0a" opacity="1.00" d=" M 231.19 225.22 C 235.69 224.42 240.42 224.67 244.71 226.30 C 245.81 226.79 247.61 227.37 247.26 228.97 C 247.51 231.46 245.54 233.62 243.19 234.14 C 238.47 235.30 233.42 234.16 228.78 235.81 C 225.56 237.05 225.11 241.07 225.18 244.06 C 225.26 247.52 228.92 248.84 231.13 250.84 C 233.41 252.41 233.65 255.49 233.03 257.96 C 229.18 261.15 222.82 260.22 220.04 256.02 C 215.28 249.26 214.79 240.21 216.52 232.36 C 219.98 227.90 225.86 226.21 231.19 225.22 Z" />
<path fill="#090b0a" opacity="1.00" d=" M 241.56 242.88 C 249.29 241.15 257.54 240.52 265.23 242.78 C 269.10 243.90 272.82 246.74 273.30 251.00 C 265.12 255.59 255.61 250.53 246.94 252.16 C 244.25 252.51 242.11 254.25 239.86 255.61 C 237.71 252.22 236.98 247.98 237.83 244.07 C 239.04 243.57 240.29 243.20 241.56 242.88 Z" />
</g>
<g id="#020303ff">
<path fill="#020303" opacity="1.00" d=" M 199.59 94.92 C 208.35 93.94 217.20 93.38 226.00 94.07 C 260.11 95.62 293.75 104.95 328.05 102.27 C 323.83 103.53 319.37 103.29 315.03 103.78 C 279.76 107.47 245.26 95.13 210.02 96.65 C 189.05 98.03 168.74 105.11 150.61 115.57 C 135.71 123.93 122.21 134.46 108.10 144.01 C 114.95 134.24 125.11 127.43 135.06 121.13 C 155.01 109.18 176.34 98.35 199.59 94.92 Z" />
</g>
<g id="#030403ff">
<path fill="#030403" opacity="1.00" d=" M 208.59 108.91 C 215.69 108.11 222.86 108.11 230.00 108.16 C 247.83 108.21 265.30 112.22 282.93 114.40 C 301.22 116.70 319.95 117.67 338.16 114.12 C 347.08 112.69 356.18 110.22 365.25 111.86 C 369.62 112.69 372.61 116.68 372.96 121.00 C 369.86 118.93 367.62 115.51 363.92 114.40 C 360.63 113.13 357.34 115.14 354.11 115.65 C 328.58 121.39 302.17 119.05 276.47 115.83 C 256.73 113.45 236.92 109.82 216.96 111.28 C 188.58 112.65 160.43 122.44 138.04 140.09 C 134.06 143.40 131.13 147.95 126.57 150.54 C 124.33 151.91 121.63 151.93 119.10 151.85 C 142.19 126.99 175.11 112.50 208.59 108.91 Z" />
<path fill="#030403" opacity="1.00" d=" M 196.54 123.84 C 211.55 122.66 226.77 122.92 241.61 125.59 C 243.06 125.73 243.35 127.41 243.68 128.55 C 239.86 128.41 236.79 125.48 232.98 125.50 C 211.57 124.65 189.74 126.41 169.41 133.51 C 155.83 138.29 142.76 145.96 134.12 157.73 C 138.29 148.62 145.93 141.53 154.43 136.44 C 167.20 128.91 181.92 125.41 196.54 123.84 Z" />
</g>
<g id="#010101ff">
<path fill="#010101" opacity="1.00" d=" M 233.39 128.41 C 235.33 127.29 236.22 129.66 237.24 130.84 C 239.43 134.12 242.39 136.81 244.63 140.04 C 244.86 145.39 244.74 150.76 244.70 156.12 C 243.40 156.55 242.36 155.06 242.32 153.92 C 241.90 149.95 243.27 145.97 242.51 142.02 C 240.26 137.63 235.50 135.34 232.61 131.44 C 231.67 130.45 231.79 128.57 233.39 128.41 Z" />
<path fill="#010101" opacity="1.00" d=" M 124.41 187.57 C 126.62 187.13 129.60 186.84 131.10 188.94 C 128.77 190.35 125.66 190.92 122.94 191.21 C 122.24 189.65 122.71 188.06 124.41 187.57 Z" />
<path fill="#010101" opacity="1.00" d=" M 417.30 192.20 C 420.60 193.66 423.69 195.57 427.06 196.91 C 429.58 198.21 432.68 199.24 434.24 201.73 C 435.89 209.37 436.07 217.26 435.74 225.05 C 435.37 229.64 434.36 234.62 431.04 238.02 C 428.35 240.71 424.23 240.57 420.82 239.65 C 423.46 238.39 426.47 237.74 428.70 235.73 C 431.57 233.33 432.84 229.58 433.22 225.97 C 433.82 219.64 432.70 213.35 432.36 207.04 C 432.10 205.38 432.43 203.23 430.86 202.13 C 426.99 199.19 421.86 198.80 417.83 196.17 C 415.98 195.44 416.31 193.51 417.30 192.20 Z" />
</g>
<g id="#020302ff">
<path fill="#020302" opacity="1.00" d=" M 321.54 128.83 C 328.56 128.01 335.66 127.99 342.71 128.40 C 354.65 129.54 366.47 133.68 375.99 141.07 C 377.55 141.83 377.10 143.64 377.34 145.05 C 377.60 148.57 379.87 151.55 380.34 155.03 C 379.96 156.38 379.38 158.30 377.72 158.48 C 377.01 153.47 375.90 148.33 372.81 144.19 C 367.59 136.82 358.64 133.36 350.03 131.89 C 336.67 129.83 323.01 131.34 309.92 134.39 C 306.54 135.12 303.28 136.40 299.85 136.91 C 305.78 131.61 313.91 129.97 321.54 128.83 Z" />
</g>
<g id="#000000ff">
<path fill="#000000" opacity="1.00" d=" M 310.24 142.20 C 311.55 141.63 313.44 143.01 312.73 144.42 C 311.34 145.43 309.47 146.01 308.66 147.65 C 305.07 154.70 308.49 163.43 304.29 170.26 C 304.08 163.51 304.14 156.74 304.26 150.00 C 306.19 147.37 307.78 144.36 310.24 142.20 Z" />
</g>
<g id="#fefefeff">
<path fill="#fefefe" opacity="1.00" d=" M 154.31 173.36 C 156.84 171.78 160.95 172.20 161.87 175.42 C 157.48 177.04 152.82 179.68 148.05 178.84 L 147.46 177.97 C 149.54 176.16 151.80 174.53 154.31 173.36 Z" />
<path fill="#fefefe" opacity="1.00" d=" M 339.16 175.48 C 343.79 175.83 348.40 175.37 353.01 174.96 C 355.85 174.81 359.21 175.05 361.05 177.56 C 357.36 177.54 353.67 177.51 350.01 178.00 C 346.27 178.41 341.84 178.63 339.16 175.48 Z" />
</g>
<g id="#050706ff">
<path fill="#050706" opacity="1.00" d=" M 124.40 175.57 C 126.82 174.71 129.37 175.59 130.98 177.50 C 126.12 178.32 120.13 178.26 116.84 182.57 C 119.88 183.15 124.48 181.31 126.24 184.72 C 122.35 184.85 118.40 184.95 114.57 184.15 C 111.84 183.54 109.74 181.09 109.77 178.25 C 114.89 179.16 119.66 177.11 124.40 175.57 Z" />
</g>
<g id="#020202ff">
<path fill="#020202" opacity="1.00" d=" M 55.48 180.77 C 60.26 179.71 65.15 180.71 69.98 180.45 C 74.66 180.40 79.31 179.60 84.00 179.80 C 87.11 179.95 90.46 180.29 92.93 182.40 C 81.31 182.50 69.67 182.15 58.07 182.54 C 55.10 185.20 51.24 186.05 47.44 186.72 C 45.35 186.92 44.40 188.97 43.34 190.49 C 38.44 198.41 35.52 207.41 33.73 216.51 C 31.97 226.39 31.71 236.72 34.29 246.49 C 36.22 252.97 39.76 260.16 46.80 262.14 C 52.26 263.72 59.28 264.13 62.10 269.95 C 53.27 268.44 45.06 264.36 37.77 259.26 C 36.34 258.49 35.79 256.91 35.30 255.47 C 33.47 249.81 32.38 243.90 32.26 237.94 C 30.94 227.66 31.62 217.27 31.56 206.94 C 31.61 205.45 31.51 203.80 32.63 202.65 C 36.28 197.92 39.19 192.66 43.16 188.18 C 46.38 184.53 50.72 181.84 55.48 180.77 Z" />
</g>
<g id="#030303ff">
<path fill="#030303" opacity="1.00" d=" M 210.36 225.56 C 211.47 225.34 212.59 225.19 213.72 225.12 C 213.91 228.32 214.01 231.55 213.65 234.74 C 209.45 236.87 204.60 236.82 200.00 236.86 C 191.27 236.86 182.27 235.69 173.88 238.79 C 175.07 236.06 178.01 234.58 180.87 234.37 C 188.62 233.59 196.36 235.32 204.11 234.69 C 207.00 234.50 210.14 233.25 211.51 230.54 C 211.75 228.82 210.60 227.24 210.36 225.56 Z" />
</g>
<g id="#070a08ff">
<path fill="#070a08" opacity="1.00" d=" M 393.49 257.66 C 401.72 256.41 410.23 259.22 416.79 264.17 C 422.45 270.44 424.63 278.88 426.47 286.91 C 427.80 293.18 430.10 299.42 429.50 305.94 C 428.47 318.71 421.72 329.96 418.20 342.08 C 416.12 349.88 416.68 357.99 416.71 365.97 C 417.19 370.75 418.44 375.43 420.13 379.92 C 423.08 388.26 423.04 397.29 422.10 405.98 C 420.16 417.54 415.84 428.69 409.60 438.59 C 404.71 445.95 395.43 449.00 386.93 448.65 C 381.71 448.12 376.42 446.93 371.97 444.03 C 364.79 439.42 359.75 431.51 358.78 423.00 C 355.26 400.84 360.67 378.67 364.57 356.94 C 365.88 352.07 365.33 346.99 365.64 342.02 C 366.20 324.88 363.86 307.51 367.42 290.57 C 370.05 280.52 374.67 270.55 382.50 263.50 C 385.64 260.75 389.20 258.07 393.49 257.66 M 392.30 265.41 C 390.67 265.93 389.69 267.44 388.84 268.82 C 387.47 271.17 386.09 273.54 384.99 276.04 L 385.25 276.60 C 395.67 276.19 405.98 278.38 415.94 281.30 C 415.89 279.55 415.88 277.80 415.58 276.08 C 413.96 270.83 409.13 267.12 403.96 265.75 C 400.20 264.59 396.08 264.04 392.30 265.41 M 395.23 279.50 C 391.87 284.19 388.87 289.18 386.25 294.32 C 390.45 294.73 394.54 296.02 398.76 296.14 C 398.57 290.32 397.17 284.60 395.65 279.01 L 395.23 279.50 M 382.50 281.47 C 377.94 284.98 374.23 290.24 374.22 296.18 C 377.36 296.27 380.51 296.27 383.66 296.18 C 383.84 291.13 383.68 286.07 383.57 281.03 C 383.30 281.14 382.77 281.36 382.50 281.47 M 405.58 280.94 C 403.96 285.91 402.47 290.95 401.46 296.09 C 403.96 296.20 406.48 296.23 408.99 296.06 C 408.55 290.90 407.12 285.86 405.58 280.94 M 416.86 285.41 C 415.90 289.00 414.68 292.53 413.92 296.18 C 416.60 296.33 419.30 296.18 421.93 295.62 C 421.19 291.92 418.93 288.62 417.44 285.16 C 417.29 285.22 417.00 285.35 416.86 285.41 M 376.38 300.49 C 375.24 300.63 372.97 300.12 373.37 302.06 C 373.33 312.37 373.38 322.68 373.36 333.00 C 373.68 347.19 371.82 361.35 368.91 375.22 C 375.89 375.50 382.95 376.31 389.62 378.50 C 398.56 381.72 404.78 389.42 409.97 397.01 C 411.70 399.28 413.01 401.99 415.29 403.76 C 417.29 387.06 406.89 371.77 408.46 355.07 C 408.67 336.04 422.27 320.05 422.17 300.94 C 406.93 300.13 391.64 300.34 376.38 300.49 M 367.90 380.56 C 366.12 388.47 364.96 396.67 364.97 404.73 C 379.47 405.07 393.97 404.73 408.45 404.06 C 407.16 400.52 404.58 397.64 402.51 394.54 C 397.52 387.27 389.57 382.04 380.85 380.61 C 376.58 380.37 372.30 380.18 368.02 380.16 L 367.90 380.56 M 402.28 409.45 C 402.96 415.09 403.78 421.06 407.19 425.79 L 407.77 425.68 C 410.25 420.41 412.23 414.87 413.74 409.24 C 409.92 409.13 406.09 409.20 402.28 409.45 M 364.40 410.59 L 363.54 410.74 C 365.65 416.21 368.68 421.54 372.99 425.58 C 374.03 420.47 375.22 415.34 375.47 410.12 C 371.78 410.21 368.07 410.16 364.40 410.59 M 379.75 410.38 C 379.79 413.94 380.24 417.52 381.16 420.97 C 383.31 421.54 385.59 421.67 387.78 421.28 C 387.85 417.62 387.90 413.95 387.63 410.30 C 385.01 410.06 382.34 409.88 379.75 410.38 M 392.36 410.13 C 392.09 417.06 392.53 424.85 397.75 430.06 C 398.79 423.68 398.55 417.19 398.46 410.76 C 396.47 410.25 394.40 410.10 392.36 410.13 M 375.41 427.41 C 373.19 428.22 370.95 428.99 368.79 429.94 C 370.88 433.44 373.86 436.45 377.46 438.39 C 385.83 442.22 396.31 441.14 403.57 435.42 C 404.58 434.58 405.63 433.69 406.10 432.43 C 399.55 431.78 392.84 431.17 386.88 428.12 C 383.40 426.06 379.11 425.83 375.41 427.41 Z" />
</g>
<g id="#9c9894ff">
<path fill="#9c9894" opacity="1.00" d=" M 333.23 278.33 C 335.25 278.08 337.29 278.01 339.33 278.10 C 335.47 282.46 329.86 284.88 324.37 286.48 C 318.97 287.70 313.55 289.06 308.00 289.25 C 302.66 289.43 297.40 290.38 292.07 290.57 C 295.68 292.56 299.95 292.69 303.93 293.52 C 315.65 294.59 327.52 293.70 339.02 291.17 C 336.01 294.50 332.68 297.69 328.67 299.77 C 323.04 302.14 316.78 301.08 310.89 300.59 C 301.69 300.12 292.77 297.59 283.98 295.02 C 281.73 294.08 278.41 293.76 277.78 290.92 C 277.27 287.70 277.92 284.41 278.44 281.23 C 284.98 281.04 291.48 282.35 298.03 281.79 C 303.99 281.30 310.02 281.55 315.92 280.43 C 321.64 279.36 327.48 279.27 333.23 278.33 Z" />
</g>
<g id="#c02026ff">
<path fill="#c02026" opacity="1.00" d=" M 571.09 299.33 C 576.39 299.21 581.70 299.11 587.01 299.19 C 595.77 299.96 604.79 302.55 611.40 308.61 C 616.95 313.89 621.43 320.54 623.30 328.03 C 624.20 332.17 622.40 336.15 620.98 339.94 C 617.51 348.62 610.52 355.77 601.86 359.34 C 603.04 363.81 605.01 368.02 606.58 372.36 C 609.40 379.82 614.34 386.17 618.10 393.13 C 613.18 393.89 608.16 393.89 603.21 393.73 C 598.53 388.24 594.61 382.08 591.46 375.60 C 589.66 371.98 588.48 368.05 586.21 364.69 C 585.72 374.63 585.91 384.59 585.40 394.53 C 580.48 394.33 575.56 393.94 570.69 393.29 C 569.13 366.25 569.07 339.09 570.30 312.02 C 570.51 307.79 570.40 303.52 571.09 299.33 M 585.72 316.87 C 585.13 320.21 585.70 323.62 585.66 326.99 C 585.90 332.59 585.49 338.22 586.13 343.79 C 591.91 343.50 598.43 341.84 601.75 336.66 C 603.94 333.88 603.34 330.03 602.47 326.87 C 601.63 323.36 598.47 321.17 595.63 319.32 C 592.63 317.71 589.23 315.55 585.72 316.87 Z" />
<path fill="#c02026" opacity="1.00" d=" M 670.51 300.75 C 682.10 299.46 694.65 299.82 704.80 306.24 C 712.96 311.64 718.87 320.28 721.35 329.72 C 723.74 338.60 723.72 347.94 722.91 357.05 C 722.22 367.62 718.30 378.19 711.07 386.05 C 706.38 391.21 699.90 394.80 692.92 395.51 C 681.77 396.85 669.80 397.56 659.39 392.58 C 649.20 387.70 642.34 377.77 638.83 367.28 C 637.17 362.03 635.59 356.55 636.06 350.98 C 636.78 338.16 639.82 325.02 647.31 314.37 C 652.62 306.76 661.19 301.46 670.51 300.75 M 673.36 317.45 C 664.29 319.56 658.49 328.22 656.81 336.93 C 655.22 345.71 655.16 354.94 657.60 363.57 C 659.33 368.78 662.41 374.33 667.87 376.26 C 675.72 379.34 684.81 379.86 692.72 376.74 C 697.39 374.98 700.27 370.44 701.99 365.98 C 704.61 358.62 704.19 350.63 703.74 342.96 C 703.42 338.13 703.95 332.97 701.48 328.59 C 696.26 318.90 683.73 314.47 673.36 317.45 Z" />
<path fill="#c02026" opacity="1.00" d=" M 840.46 300.67 C 851.66 299.04 863.66 298.88 874.08 303.90 C 880.89 306.99 886.07 312.76 889.90 319.05 C 895.28 328.37 896.46 339.43 896.06 350.00 C 895.69 355.35 895.61 360.80 894.15 366.01 C 892.13 373.70 888.42 381.09 882.69 386.69 C 878.46 390.90 872.99 393.96 867.07 394.87 C 860.76 395.88 854.36 396.01 847.99 395.85 C 839.35 395.62 830.64 392.66 824.19 386.80 C 815.87 379.35 811.26 368.61 809.19 357.81 C 808.10 352.62 808.95 347.30 809.59 342.11 C 811.16 331.73 814.37 321.29 820.82 312.86 C 825.56 306.56 832.63 301.94 840.46 300.67 M 848.36 316.44 C 843.71 317.30 839.19 319.42 836.03 323.01 C 830.90 328.72 828.93 336.53 828.59 344.03 C 828.24 351.79 828.48 359.92 831.91 367.06 C 833.72 370.68 836.35 374.26 840.31 375.69 C 848.88 379.12 859.04 379.57 867.41 375.33 C 873.08 371.54 875.68 364.61 876.42 358.07 C 877.14 350.78 876.46 343.46 876.23 336.16 C 876.12 331.37 874.09 326.68 870.65 323.35 C 864.96 317.51 856.33 315.10 848.36 316.44 Z" />
</g>
<g id="#c12026ff">
<path fill="#c12026" opacity="1.00" d=" M 468.93 300.17 C 500.34 300.05 531.76 300.10 563.17 300.15 C 563.43 305.78 563.40 311.44 563.21 317.07 C 562.02 317.91 560.39 317.45 559.03 317.66 C 547.40 317.90 535.77 318.29 524.13 318.30 C 524.40 343.96 525.21 369.66 523.90 395.31 C 519.05 395.43 514.23 394.70 509.40 394.40 C 508.61 390.64 508.85 386.78 508.64 382.97 C 507.81 361.18 508.13 339.36 508.43 317.56 C 495.25 317.46 482.08 318.63 468.91 318.10 C 468.71 312.13 468.68 306.14 468.93 300.17 Z" />
<path fill="#c12026" opacity="1.00" d=" M 912.67 300.64 C 917.68 300.59 922.68 301.09 927.67 301.47 C 928.43 303.22 928.31 305.21 928.58 307.08 C 930.89 330.53 929.21 354.11 929.31 377.62 C 943.68 377.76 958.07 377.71 972.42 378.61 C 972.84 384.29 972.63 390.02 972.60 395.71 C 952.19 395.70 931.75 395.81 911.34 395.65 C 910.61 391.48 910.76 387.23 910.52 383.02 C 909.29 355.57 909.01 327.92 912.67 300.64 Z" />
</g>
<g id="#c02025ff">
<path fill="#c02025" opacity="1.00" d=" M 746.48 300.68 C 748.48 300.53 750.48 300.32 752.51 300.36 C 753.74 325.97 753.16 351.63 752.60 377.25 C 754.01 377.70 755.51 377.58 756.99 377.62 C 771.43 377.49 785.88 378.00 800.29 378.73 L 800.69 379.17 C 800.94 384.65 800.88 390.17 800.71 395.66 C 779.90 395.76 759.08 395.80 738.28 395.58 C 737.31 390.46 737.63 385.20 737.30 380.02 C 736.15 353.93 736.44 327.77 737.73 301.69 C 740.57 300.93 743.56 300.99 746.48 300.68 Z" />
</g>
<g id="#9a9693ff">
<path fill="#9a9693" opacity="1.00" d=" M 276.17 306.24 C 285.30 307.08 294.39 308.37 303.56 308.59 C 315.27 310.03 327.09 309.52 338.84 309.93 C 338.88 311.48 338.84 313.05 338.63 314.60 C 329.76 314.88 320.88 314.71 312.00 314.77 C 303.34 314.68 294.62 315.15 286.02 313.84 C 281.65 313.20 278.96 309.26 276.17 306.24 Z" />
</g>
<g id="#040605ff">
<path fill="#040605" opacity="1.00" d=" M 131.11 343.36 C 145.06 347.18 158.08 353.63 171.02 359.98 C 189.24 368.96 207.62 377.90 227.12 383.78 C 239.13 387.49 251.57 389.73 264.10 390.55 C 265.10 390.86 267.16 390.25 267.21 391.87 C 267.13 392.33 266.98 393.27 266.91 393.73 C 262.60 393.67 258.35 392.98 254.07 392.60 C 234.14 390.69 214.84 384.51 196.60 376.44 C 178.64 368.60 161.73 358.65 144.28 349.78 C 139.94 347.53 135.35 345.80 131.11 343.36 Z" />
</g>
<g id="#040505ff">
<path fill="#040505" opacity="1.00" d=" M 108.02 344.04 C 110.99 345.30 113.73 347.01 116.54 348.57 C 139.37 361.00 163.30 371.29 187.66 380.31 C 194.17 382.00 200.45 384.41 206.88 386.37 C 228.21 393.11 250.01 398.30 272.07 402.00 C 272.14 402.51 272.29 403.52 272.37 404.02 C 268.58 403.68 264.85 402.95 261.12 402.30 C 234.58 397.60 208.35 390.97 182.93 381.98 C 180.38 381.24 177.84 380.48 175.37 379.52 C 154.48 371.54 134.03 362.06 115.45 349.53 C 112.90 347.80 110.31 346.10 108.02 344.04 Z" />
</g>
<g id="#9d9995ff">
<path fill="#9d9995" opacity="1.00" d=" M 271.26 356.35 C 287.86 354.05 304.13 361.87 316.05 372.97 C 321.79 378.55 327.34 384.55 331.03 391.72 C 321.71 388.54 313.31 383.29 304.95 378.18 C 301.79 376.30 298.69 374.15 295.08 373.25 C 288.49 371.42 281.58 371.77 274.86 370.78 C 279.49 366.48 286.28 366.41 292.18 365.52 C 290.69 364.11 288.62 363.78 286.70 363.38 C 281.59 362.43 276.43 361.78 271.38 360.59 C 268.99 360.04 266.67 359.07 264.92 357.32 C 267.02 356.89 269.14 356.60 271.26 356.35 Z" />
</g>
<g id="#9b9794ff">
<path fill="#9b9794" opacity="1.00" d=" M 285.43 380.55 C 291.32 380.10 297.73 379.80 303.01 382.93 C 314.66 389.87 325.19 398.63 334.38 408.59 C 335.55 409.77 335.04 411.56 335.07 413.05 C 327.43 411.53 321.67 405.90 316.19 400.78 C 311.36 396.55 306.62 391.97 300.66 389.37 C 296.22 387.40 291.71 385.56 287.12 383.94 C 285.26 383.21 283.20 382.69 281.79 381.18 C 282.99 380.90 284.20 380.69 285.43 380.55 Z" />
</g>
</svg>
