<?xml version="1.0" encoding="UTF-8" ?>
<!DOCTYPE svg PUBLIC "-//W3C//DTD SVG 1.1//EN" "http://www.w3.org/Graphics/SVG/1.1/DTD/svg11.dtd">
<svg width="300pt" height="300pt" viewBox="0 0 300 300" version="1.1" xmlns="http://www.w3.org/2000/svg">
<g id="#000000ff">
<path fill="#000000" opacity="1.00" d=" M 0.00 0.00 L 0.01 0.00 C 0.01 0.01 0.00 0.04 0.00 0.05 L 0.00 0.00 Z" />
<path fill="#000000" opacity="1.00" d=" M 228.39 25.45 C 231.08 19.94 236.22 15.50 242.30 14.23 C 246.06 13.26 249.75 15.12 252.70 17.30 C 258.44 21.26 263.59 27.37 263.40 34.73 C 265.54 36.55 267.71 38.51 268.78 41.19 C 271.30 46.76 268.78 53.52 264.35 57.34 C 261.06 59.93 256.65 59.41 253.06 57.80 C 248.49 63.88 244.05 70.07 239.37 76.06 C 242.00 78.93 243.71 82.43 244.93 86.09 C 246.80 91.73 252.34 94.68 256.03 98.96 C 260.00 103.28 260.32 110.31 257.23 115.20 C 254.72 118.97 250.79 121.52 248.33 125.32 C 246.35 128.23 245.87 131.92 243.63 134.67 C 238.74 140.79 231.73 144.69 224.78 148.02 C 230.97 152.10 236.80 156.72 242.21 161.80 C 245.34 164.77 249.25 166.71 252.58 169.44 C 257.25 173.08 261.72 177.33 264.24 182.80 C 266.36 187.67 265.84 193.30 264.25 198.26 C 262.13 204.53 258.55 210.25 254.24 215.25 C 254.84 218.32 257.30 221.30 256.50 224.46 C 254.14 226.43 251.15 227.38 248.43 228.72 C 248.35 233.81 248.34 238.91 248.10 244.00 C 248.15 245.62 246.86 246.74 245.79 247.77 C 243.40 249.92 241.03 252.09 238.71 254.33 C 239.82 255.83 239.69 257.67 239.54 259.44 C 245.25 257.94 251.55 256.64 257.26 258.76 C 262.55 260.99 264.44 267.21 264.52 272.50 C 265.74 273.46 267.81 274.10 267.69 276.00 C 267.68 278.52 265.50 280.29 263.61 281.61 C 256.64 286.12 248.33 289.04 239.94 288.34 C 230.30 287.60 220.88 283.76 213.52 277.48 C 212.04 276.37 211.20 274.71 210.58 273.02 C 212.39 269.70 212.76 265.67 215.59 262.93 C 214.94 260.98 214.17 259.05 213.82 257.03 C 213.46 255.15 214.68 252.89 216.70 252.64 C 219.94 252.14 223.23 252.06 226.49 251.66 C 230.14 248.01 233.67 244.22 237.39 240.64 C 236.98 237.32 236.64 234.00 236.14 230.70 C 233.47 229.99 230.51 230.40 228.02 229.04 C 226.33 226.72 225.14 224.10 223.73 221.62 C 222.14 221.70 220.55 221.77 218.96 221.82 C 216.94 223.69 215.99 227.40 213.04 227.82 C 208.12 226.83 203.36 225.15 198.66 223.42 C 194.33 226.65 189.85 229.66 185.49 232.85 C 185.65 236.69 185.76 240.53 185.77 244.37 C 189.12 244.74 193.01 245.04 195.31 247.85 C 196.44 249.70 195.54 251.82 194.71 253.58 C 196.17 255.84 197.72 258.25 197.74 261.04 C 197.95 263.39 196.75 265.50 195.72 267.51 C 196.19 268.93 196.83 270.34 196.88 271.86 C 195.45 274.08 192.43 274.41 190.01 274.47 C 186.30 274.64 182.77 272.98 179.06 273.25 C 167.91 274.00 156.49 274.32 145.61 271.39 C 142.58 270.37 138.79 269.40 137.54 266.08 C 137.16 264.20 138.56 262.92 139.65 261.65 C 139.62 258.32 139.27 254.83 140.68 251.71 C 141.79 248.65 144.70 246.10 148.06 246.14 C 155.18 245.92 161.17 251.24 168.35 250.72 C 168.61 247.39 170.99 244.67 174.37 244.33 C 174.49 239.42 173.64 234.36 174.50 229.53 C 179.16 225.47 184.31 221.98 189.09 218.06 C 189.26 214.98 191.68 212.79 193.01 210.17 C 190.96 207.15 189.24 203.73 189.17 200.00 C 188.70 193.64 191.00 187.56 193.21 181.72 C 191.58 177.05 189.05 172.69 185.90 168.88 C 184.38 168.71 182.92 169.19 181.47 169.51 C 164.07 172.84 146.45 174.91 128.80 176.30 C 128.95 189.42 128.32 202.56 126.22 215.53 C 129.65 218.52 132.79 221.90 135.24 225.76 C 136.91 228.36 137.73 231.67 136.63 234.66 C 135.83 237.70 133.36 240.90 129.96 240.89 C 126.34 241.04 123.42 238.53 120.62 236.60 C 117.99 243.12 114.86 249.73 109.57 254.55 C 106.44 257.50 102.31 259.70 97.92 259.64 C 91.40 259.07 84.96 260.59 78.46 260.76 C 77.44 265.84 76.98 271.01 76.16 276.12 C 75.83 278.63 73.85 280.56 71.74 281.75 C 65.98 285.01 57.26 279.80 58.19 273.02 C 58.74 265.97 59.82 258.97 60.53 251.94 C 60.31 250.10 58.79 248.71 57.92 247.13 C 48.76 232.33 43.71 215.40 40.45 198.41 C 36.67 200.35 32.80 202.13 28.98 204.01 C 27.86 204.48 26.62 205.20 25.38 204.67 C 18.24 202.16 15.52 191.38 21.12 186.09 C 26.27 182.47 32.28 180.20 37.51 176.70 C 35.99 156.29 35.62 135.56 39.41 115.35 C 39.51 114.23 40.10 112.83 39.24 111.86 C 34.18 105.22 29.07 98.61 23.97 91.99 C 23.28 91.00 22.41 90.00 22.45 88.72 C 22.02 82.22 28.54 76.63 34.83 77.15 C 36.16 77.18 36.83 78.50 37.60 79.38 C 40.47 83.24 43.46 87.00 46.25 90.92 C 49.10 84.55 52.23 78.15 56.96 72.94 C 58.60 70.95 61.43 71.18 63.72 70.68 C 71.76 69.63 79.80 67.05 87.97 68.44 C 89.28 63.61 91.05 58.87 93.59 54.54 C 94.93 52.38 97.05 50.08 99.85 50.37 C 103.72 50.77 108.39 52.77 108.78 57.19 C 109.41 65.46 106.92 73.67 103.63 81.16 C 112.86 94.43 118.43 109.94 122.06 125.59 C 126.53 123.09 131.75 120.37 137.01 121.92 C 142.40 123.86 145.66 129.01 148.47 133.70 C 148.80 130.01 148.90 126.28 148.41 122.60 C 147.59 116.28 142.53 111.35 142.14 104.92 C 142.06 102.66 141.94 100.18 143.21 98.19 C 145.43 94.80 149.19 92.61 150.86 88.83 C 151.84 86.94 151.75 84.77 151.80 82.71 C 160.51 74.04 173.30 71.98 184.98 70.48 C 182.74 68.24 180.18 65.87 179.50 62.64 C 179.00 58.12 183.41 53.71 187.94 54.09 C 189.88 54.03 191.79 54.60 193.47 55.56 C 198.11 58.12 202.02 61.75 205.94 65.27 C 214.40 55.48 222.87 45.70 231.32 35.91 C 228.90 33.12 226.54 29.17 228.39 25.45 M 229.53 42.49 C 231.79 43.62 234.16 44.57 236.33 45.87 C 237.35 47.11 236.41 48.62 235.75 49.76 C 233.51 53.41 230.45 56.73 226.54 58.58 C 222.64 60.09 218.38 60.58 214.21 60.30 C 212.20 62.66 210.16 65.00 208.08 67.29 C 209.26 68.35 210.16 70.19 211.99 70.07 C 217.97 70.13 223.95 70.74 229.92 70.31 C 232.85 70.15 235.13 72.24 237.25 73.96 C 244.43 64.36 251.64 54.78 258.71 45.11 C 256.70 39.88 252.07 36.33 247.37 33.63 C 244.83 32.20 241.97 31.58 239.07 31.65 C 235.78 35.17 232.84 38.99 229.53 42.49 M 227.32 45.35 C 223.56 49.19 220.26 53.45 216.68 57.46 C 219.70 57.11 222.83 56.98 225.64 55.68 C 229.03 53.97 231.39 50.86 233.57 47.85 C 231.53 47.10 229.49 45.13 227.32 45.35 M 99.30 53.39 C 98.03 53.44 97.24 54.65 96.53 55.54 C 93.71 59.74 92.41 64.70 90.57 69.36 C 92.24 70.36 93.85 71.43 95.42 72.56 C 97.78 74.21 99.35 76.77 101.88 78.20 C 103.90 71.92 105.97 65.53 106.14 58.87 C 106.11 55.27 102.46 53.46 99.30 53.39 M 182.54 62.53 C 183.90 65.74 186.78 67.92 189.23 70.27 C 194.87 69.78 200.52 69.82 206.18 69.74 C 200.70 64.68 195.35 58.80 187.97 56.64 C 185.28 57.25 181.97 59.38 182.54 62.53 M 73.38 75.35 C 68.68 79.72 65.79 85.60 63.43 91.47 C 58.74 103.78 56.76 116.91 55.68 129.98 C 54.07 157.38 56.66 185.14 64.49 211.50 C 68.06 223.04 72.55 234.49 79.61 244.38 C 83.43 249.56 88.21 254.71 94.66 256.37 C 99.77 257.63 105.04 255.23 108.48 251.49 C 114.33 245.23 117.51 237.05 119.96 228.98 C 124.84 211.98 126.09 194.16 125.67 176.55 C 123.92 176.64 122.16 176.71 120.40 176.76 C 119.40 179.73 120.03 182.91 119.84 185.99 C 119.43 197.85 117.94 209.81 114.11 221.09 C 112.07 226.80 109.36 232.65 104.48 236.49 C 101.16 239.20 96.24 239.55 92.48 237.55 C 88.43 235.46 85.46 231.81 82.95 228.08 C 78.24 220.78 75.23 212.54 72.77 204.26 C 67.01 184.06 65.02 162.92 65.68 141.98 C 66.47 129.31 67.87 116.45 72.62 104.58 C 74.41 100.37 76.59 96.15 80.03 93.04 C 82.88 90.51 87.01 88.91 90.77 90.19 C 95.27 91.44 98.56 95.07 101.33 98.64 C 106.60 106.12 109.92 114.76 112.56 123.46 C 116.66 137.50 118.91 152.06 119.68 166.67 C 121.55 166.56 123.43 166.44 125.30 166.33 C 123.81 146.06 120.33 125.81 113.31 106.69 C 110.17 98.34 106.39 90.13 101.10 82.91 C 97.86 78.50 93.92 74.35 88.84 72.11 C 83.64 69.57 77.31 71.34 73.38 75.35 M 187.13 73.37 C 183.55 73.87 179.83 73.64 176.37 74.83 C 173.92 75.71 171.26 75.26 168.76 75.86 C 162.96 77.22 157.76 80.56 153.79 84.94 C 153.69 86.94 153.86 89.05 152.97 90.91 C 151.44 94.22 148.14 96.18 146.27 99.24 C 144.26 102.78 144.60 107.07 145.51 110.88 C 145.79 107.81 145.21 104.49 146.74 101.65 C 148.28 98.20 151.81 94.72 155.89 95.54 C 158.43 95.78 161.05 94.04 163.44 95.58 C 159.04 95.42 154.54 95.96 150.62 98.07 C 150.47 98.60 150.19 99.66 150.04 100.18 C 149.85 99.88 149.46 99.27 149.26 98.96 C 146.67 101.88 146.17 105.64 146.59 109.38 C 146.90 109.89 147.50 110.92 147.81 111.44 C 149.98 112.69 153.05 112.86 154.29 115.33 C 151.79 114.33 149.38 113.12 146.90 112.07 C 148.48 114.33 150.04 116.71 150.50 119.49 C 152.98 130.78 148.58 142.11 149.58 153.44 C 151.56 159.03 158.06 161.97 163.68 161.61 C 177.16 159.46 190.55 156.76 203.90 153.89 C 209.03 153.02 213.55 150.33 218.26 148.29 C 226.51 144.32 235.29 140.45 241.38 133.36 C 244.74 129.84 244.42 124.16 248.33 121.06 C 249.18 118.78 251.73 117.99 253.13 116.14 C 256.74 112.43 257.82 106.36 255.14 101.82 C 253.24 98.60 250.10 95.70 246.25 95.27 C 246.60 93.18 244.87 91.75 243.97 90.08 C 240.98 84.86 239.21 78.56 234.23 74.78 C 230.73 72.08 226.13 72.53 221.99 72.41 C 210.37 72.04 198.70 72.04 187.13 73.37 M 59.51 74.49 C 54.62 79.98 51.49 86.67 48.42 93.27 C 49.69 96.02 52.81 97.94 52.67 101.22 C 52.80 104.68 52.64 108.55 50.30 111.32 C 48.34 113.52 45.32 114.07 42.58 114.61 C 38.79 134.59 38.78 155.09 40.46 175.29 C 42.39 174.33 44.38 172.55 46.70 173.28 C 51.00 174.38 53.25 178.60 54.73 182.42 C 54.60 178.96 53.98 175.55 53.61 172.11 C 51.21 147.70 51.34 122.63 57.82 98.82 C 60.67 89.15 64.51 79.19 72.21 72.31 C 67.98 73.04 63.73 73.67 59.51 74.49 M 25.43 88.62 C 30.94 96.45 37.05 103.90 42.81 111.58 C 45.11 111.00 47.99 110.38 48.92 107.86 C 49.81 105.34 50.00 102.42 49.30 99.85 C 44.29 93.10 39.16 86.43 34.01 79.78 C 29.78 80.59 25.15 83.87 25.43 88.62 M 82.13 94.97 C 83.17 95.94 84.21 96.92 85.24 97.91 C 88.34 95.90 92.11 95.96 95.65 96.28 C 93.26 94.88 90.95 92.72 88.00 92.77 C 85.80 92.62 84.00 94.08 82.13 94.97 M 70.48 124.26 C 70.16 125.43 71.26 126.28 71.80 127.19 C 75.45 132.04 79.04 136.94 82.57 141.89 C 83.64 128.59 84.30 115.27 85.29 101.98 C 83.53 100.41 81.83 98.79 80.08 97.20 C 74.44 105.13 72.15 114.83 70.48 124.26 M 88.42 99.61 C 87.48 114.27 86.48 128.93 85.53 143.60 C 88.52 143.84 91.51 144.05 94.49 144.43 C 95.32 137.01 95.61 129.55 96.38 122.13 C 96.60 115.19 97.83 108.30 97.70 101.35 C 95.38 98.72 91.55 98.56 88.42 99.61 M 100.82 103.23 C 100.39 109.82 99.68 116.40 99.30 123.00 C 99.19 124.59 100.00 126.03 100.46 127.51 C 102.24 133.09 103.14 138.95 102.95 144.82 C 106.24 144.43 109.56 143.02 112.88 143.83 C 113.31 144.42 114.18 145.60 114.61 146.19 C 111.97 131.37 108.50 116.34 100.82 103.23 M 69.74 129.37 C 69.37 133.95 68.73 138.52 68.70 143.13 C 71.16 145.79 73.30 148.73 75.76 151.39 C 77.90 151.97 80.26 151.48 82.39 152.33 C 83.20 150.57 83.81 148.30 82.36 146.68 C 78.18 140.89 73.96 135.13 69.74 129.37 M 98.61 133.08 C 98.13 136.90 97.82 140.74 97.57 144.58 C 98.49 144.57 99.40 144.64 100.31 144.79 C 99.88 140.88 100.14 136.76 98.61 133.08 M 138.74 151.74 C 134.91 152.73 130.89 152.41 127.03 151.83 C 127.49 156.54 127.74 161.28 128.38 165.98 C 137.59 165.49 146.70 163.93 155.88 163.09 C 152.01 161.09 148.46 158.03 146.95 153.84 C 146.54 151.12 146.91 148.37 147.24 145.66 C 144.90 148.27 142.21 150.80 138.74 151.74 M 86.19 146.71 C 86.33 148.97 86.12 151.22 85.36 153.37 C 86.68 154.17 88.03 154.93 89.38 155.69 C 90.17 152.66 91.43 149.79 92.81 146.99 C 90.60 146.90 88.39 146.80 86.19 146.71 M 103.25 147.99 C 104.94 151.33 106.04 154.94 106.59 158.64 C 108.46 157.47 110.48 156.48 112.20 155.08 C 113.15 152.25 112.47 149.09 111.29 146.41 C 108.60 146.89 105.90 147.32 103.25 147.99 M 92.23 157.47 C 96.49 160.26 100.29 163.67 104.19 166.94 C 103.61 160.19 103.93 151.96 98.14 147.26 C 94.00 148.79 92.96 153.61 92.23 157.47 M 68.56 147.44 C 68.54 150.28 68.59 153.12 68.60 155.97 C 69.98 154.84 71.43 153.81 72.93 152.86 C 71.46 151.06 70.06 149.21 68.56 147.44 M 106.78 160.72 C 106.83 162.93 106.86 165.14 106.86 167.36 C 110.14 167.27 113.42 167.25 116.69 166.92 C 116.49 163.23 116.23 159.55 116.00 155.86 C 113.22 157.93 110.52 160.83 106.78 160.72 M 196.32 183.43 C 195.34 184.19 195.02 185.47 194.59 186.57 C 192.97 191.39 191.41 196.52 192.38 201.64 C 192.89 204.80 194.84 207.42 196.62 209.98 C 195.26 212.29 193.95 214.63 192.45 216.85 C 198.57 221.04 205.91 222.74 212.94 224.78 C 214.36 222.92 215.56 220.82 217.40 219.32 C 219.82 218.29 222.59 218.81 225.15 218.55 C 226.93 221.07 228.43 223.77 229.82 226.53 C 237.87 228.97 246.47 227.02 253.65 223.01 C 253.04 220.11 251.04 217.33 251.31 214.35 C 254.82 209.71 258.47 205.05 260.56 199.54 C 262.77 194.17 263.84 187.59 260.64 182.38 C 256.49 175.53 249.72 170.85 243.14 166.56 C 226.65 168.85 209.60 172.79 196.32 183.43 M 44.56 176.49 C 38.24 179.80 32.05 183.37 25.73 186.68 C 24.03 187.57 22.31 188.74 21.60 190.62 C 20.14 194.76 22.11 199.87 26.12 201.78 C 31.88 199.56 37.31 196.53 42.94 193.97 C 45.87 192.37 49.63 191.55 51.38 188.42 C 53.28 185.43 51.55 181.81 49.82 179.19 C 48.66 177.63 46.68 175.54 44.56 176.49 M 104.87 177.87 C 107.79 183.66 110.82 189.40 113.69 195.22 C 114.28 196.35 114.76 197.66 116.03 198.22 C 116.64 191.26 117.02 184.27 117.18 177.28 C 113.07 177.35 108.98 177.68 104.87 177.87 M 97.21 182.27 C 98.43 182.69 100.32 181.60 100.38 180.29 C 99.17 180.00 97.15 180.88 97.21 182.27 M 103.35 181.59 C 101.96 183.26 100.44 185.50 97.99 185.44 C 95.47 185.90 93.87 182.43 91.32 183.90 C 96.06 191.81 100.93 199.67 105.90 207.44 C 107.84 208.48 110.80 207.80 111.55 205.53 C 112.34 203.47 113.45 200.96 112.24 198.85 C 109.28 193.09 106.32 187.34 103.35 181.59 M 71.83 187.32 C 73.84 197.31 76.30 207.26 80.32 216.66 C 80.96 217.87 81.17 219.77 82.80 220.05 C 84.21 213.63 85.19 207.12 85.50 200.55 C 85.79 195.76 85.59 190.94 86.17 186.17 C 81.46 187.20 76.65 187.64 71.83 187.32 M 51.13 193.17 C 48.70 194.79 45.95 195.82 43.34 197.10 C 46.43 214.48 51.76 231.72 61.18 246.77 C 66.14 241.43 76.30 243.36 78.86 250.19 C 80.00 252.56 79.15 255.19 78.63 257.59 C 81.91 257.59 85.16 257.21 88.43 257.14 C 85.57 255.21 82.83 253.04 80.59 250.40 C 72.91 241.60 68.03 230.80 64.08 219.92 C 60.15 209.04 57.69 197.73 55.47 186.41 C 54.53 188.93 53.46 191.61 51.13 193.17 M 88.84 185.84 C 88.80 198.93 88.54 212.30 84.34 224.83 C 86.03 227.36 87.80 229.84 89.91 232.03 C 93.31 229.44 96.70 226.53 98.43 222.51 C 100.75 216.89 101.01 210.62 100.42 204.64 C 96.75 198.27 92.70 192.11 88.84 185.84 M 103.67 210.16 C 103.59 216.06 102.70 222.27 99.21 227.19 C 97.35 229.95 94.74 232.06 92.17 234.11 C 94.83 235.58 98.16 236.52 101.04 235.06 C 105.02 233.07 107.34 229.01 109.22 225.16 C 112.04 218.96 113.88 212.30 114.74 205.55 C 113.77 210.80 107.89 211.81 103.67 210.16 M 125.25 219.88 C 124.35 224.44 123.32 229.00 121.58 233.33 C 123.76 235.30 126.20 237.23 129.14 237.88 C 132.33 238.31 133.87 234.69 134.14 232.09 C 134.17 228.65 131.78 225.83 129.71 223.31 C 128.42 221.95 127.34 219.99 125.25 219.88 M 65.42 247.38 C 64.39 247.88 63.85 248.70 63.78 249.85 C 63.02 256.66 62.25 263.46 61.42 270.25 C 61.37 272.44 60.58 274.98 62.09 276.87 C 63.64 278.80 66.21 279.97 68.69 279.66 C 70.86 279.20 72.99 277.56 73.24 275.23 C 74.27 267.82 75.39 260.41 76.38 253.00 C 76.18 247.99 69.59 245.32 65.42 247.38 M 185.92 247.35 C 185.88 248.76 185.75 250.19 185.23 251.52 C 181.75 251.26 178.29 250.88 174.87 250.17 C 174.70 249.41 174.37 247.90 174.21 247.14 C 171.77 248.19 171.17 250.75 171.30 253.16 C 165.00 255.02 158.89 251.91 153.05 249.93 C 150.41 249.12 146.79 248.26 144.78 250.76 C 142.27 253.61 142.39 257.71 142.79 261.24 C 146.18 264.80 151.31 266.26 156.06 267.02 C 164.41 268.07 172.85 267.18 181.17 266.27 C 184.24 265.78 187.06 267.79 190.13 267.36 C 193.07 266.57 195.20 263.37 194.63 260.34 C 194.39 257.80 192.35 256.02 191.23 253.86 C 191.22 252.29 192.41 251.10 193.19 249.87 C 191.23 247.98 188.48 247.71 185.92 247.35 M 217.33 255.57 C 215.56 258.25 219.44 260.97 218.70 263.69 C 217.01 265.95 215.13 268.18 214.88 271.13 C 221.15 275.63 228.06 279.40 235.54 281.43 C 242.13 283.27 249.34 282.41 255.51 279.52 C 258.85 277.95 262.19 274.58 261.41 270.58 C 261.02 266.64 259.10 261.97 254.78 261.11 C 249.12 260.04 243.32 261.38 237.87 262.92 C 236.53 263.37 234.47 263.90 234.08 262.01 C 234.92 260.09 236.91 258.65 236.70 256.36 C 235.15 257.68 233.72 259.15 232.07 260.35 C 228.47 260.09 224.62 259.82 221.40 258.05 C 221.96 257.00 222.49 255.93 222.98 254.85 C 221.10 255.14 219.21 255.33 217.33 255.57 M 140.77 264.15 L 140.73 265.81 C 143.45 268.18 147.22 268.79 150.71 269.00 C 147.22 267.76 143.92 266.09 140.77 264.15 M 177.90 270.18 C 183.13 269.61 188.24 272.71 193.39 270.99 L 193.50 269.39 C 191.14 270.27 188.53 270.83 186.07 270.03 C 183.48 269.30 180.28 268.56 177.90 270.18 M 261.71 278.86 C 263.09 278.79 264.71 277.29 264.41 275.84 C 263.04 276.00 261.82 277.53 261.71 278.86 M 222.26 279.23 L 222.28 279.69 L 222.74 279.67 L 222.72 279.20 L 222.26 279.23 Z" />
<path fill="#000000" opacity="1.00" d=" M 184.02 75.46 C 191.60 75.08 199.09 73.10 206.72 73.45 C 214.93 73.34 222.47 77.31 228.90 82.08 L 228.44 82.20 C 228.22 82.26 227.78 82.37 227.56 82.42 C 222.73 78.75 217.22 75.77 211.24 74.55 C 202.10 73.05 193.07 76.05 183.96 76.19 C 180.97 75.51 177.94 75.20 174.90 75.68 C 177.83 74.20 180.95 75.20 184.02 75.46 Z" />
<path fill="#000000" opacity="1.00" d=" M 173.98 78.21 C 183.66 80.17 193.36 77.51 203.00 76.79 C 209.69 77.02 216.56 78.16 222.39 81.64 C 224.86 83.17 227.55 84.76 228.98 87.40 C 227.08 86.03 225.28 84.51 223.27 83.30 C 216.91 79.42 209.42 77.45 201.99 77.57 C 197.53 77.61 193.35 79.42 188.93 79.71 C 181.98 79.85 175.05 79.40 168.18 78.46 C 167.11 79.17 166.03 79.88 164.92 80.53 C 166.65 77.21 170.87 77.44 173.98 78.21 Z" />
<path fill="#000000" opacity="1.00" d=" M 202.64 80.69 C 209.44 80.52 216.71 81.03 222.56 84.88 L 223.27 83.30 C 222.25 85.42 224.93 86.61 225.71 88.26 C 219.60 82.17 210.55 81.25 202.36 81.27 C 200.34 83.51 198.74 86.11 198.90 89.24 C 198.72 87.95 198.49 86.67 198.23 85.39 C 199.57 83.71 200.99 82.08 202.64 80.69 Z" />
<path fill="#000000" opacity="1.00" d=" M 165.66 84.68 C 168.06 82.91 171.09 82.35 174.02 82.39 C 177.40 82.40 180.98 81.94 184.14 83.40 L 184.36 84.47 C 179.88 82.95 174.99 82.43 170.34 83.43 C 167.41 83.98 165.47 86.40 163.67 88.54 C 164.32 87.26 164.76 85.83 165.66 84.68 Z" />
<path fill="#000000" opacity="1.00" d=" M 228.44 82.20 C 229.94 81.56 232.93 84.46 231.11 85.25 C 230.16 84.33 228.63 83.65 228.44 82.20 Z" />
<path fill="#000000" opacity="1.00" d=" M 182.72 88.39 C 182.19 87.33 181.18 86.44 181.32 85.15 C 182.67 86.47 183.81 88.22 183.50 90.21 C 185.97 90.16 183.14 91.64 182.59 92.12 C 182.68 90.88 182.72 89.63 182.72 88.39 Z" />
<path fill="#000000" opacity="1.00" d=" M 228.98 87.40 C 230.59 85.71 231.59 89.73 229.29 88.72 L 228.79 88.16 L 228.98 87.40 Z" />
<path fill="#000000" opacity="1.00" d=" M 225.71 88.26 C 225.70 88.43 225.69 88.77 225.69 88.94 L 225.37 88.62 L 225.71 88.26 Z" />
<path fill="#000000" opacity="1.00" d=" M 206.37 89.38 C 211.54 88.19 217.33 88.27 222.04 90.96 C 224.19 92.11 225.35 94.33 226.57 96.34 C 224.17 98.75 220.88 97.04 218.08 96.65 C 212.11 95.88 206.20 97.92 201.00 100.70 C 199.37 99.38 196.61 98.41 196.61 95.95 C 198.47 92.22 202.50 90.31 206.37 89.38 M 200.04 96.10 C 200.18 96.47 200.45 97.22 200.59 97.59 C 203.97 97.30 206.56 94.49 210.05 94.51 C 209.78 93.36 209.46 92.23 209.10 91.11 C 205.90 92.31 201.91 92.88 200.04 96.10 M 219.68 93.58 C 219.58 94.86 221.80 95.47 222.83 94.99 C 222.97 93.65 220.70 92.86 219.68 93.58 Z" />
<path fill="#000000" opacity="1.00" d=" M 164.40 96.04 C 165.39 93.75 167.37 91.93 169.93 91.66 C 175.19 91.03 180.95 92.57 184.67 96.48 C 186.21 96.07 187.77 96.16 189.28 96.66 C 188.08 98.25 186.30 99.09 184.51 99.82 C 184.49 101.77 184.54 103.73 184.60 105.68 C 182.58 107.03 180.54 108.38 178.76 110.05 C 180.25 112.57 182.00 115.26 184.98 116.15 C 185.57 115.73 186.74 114.90 187.33 114.49 C 188.76 116.15 186.62 118.36 184.97 118.84 C 181.45 118.05 179.77 114.32 177.01 112.31 C 176.49 112.66 175.47 113.37 174.96 113.72 C 174.70 113.20 174.18 112.15 173.92 111.62 C 171.81 112.71 169.66 113.71 167.46 114.56 C 169.40 112.66 172.03 111.77 174.16 110.14 C 176.90 108.12 179.47 105.90 182.17 103.84 C 182.18 102.41 182.19 100.98 182.20 99.54 C 176.66 96.71 170.16 98.15 164.40 96.04 M 170.14 94.81 C 171.19 95.57 173.17 95.15 173.81 94.08 C 172.81 93.22 170.53 93.48 170.14 94.81 Z" />
<path fill="#000000" opacity="1.00" d=" M 227.57 94.17 C 229.39 94.35 231.19 94.67 232.99 94.97 C 231.86 96.98 229.16 97.24 227.20 98.07 C 228.50 97.24 229.84 96.49 231.22 95.80 C 229.89 95.49 228.68 94.95 227.57 94.17 Z" />
<path fill="#000000" opacity="1.00" d=" M 237.81 95.31 C 239.98 94.69 242.23 94.37 244.49 94.55 C 245.88 96.41 248.54 96.27 250.04 97.98 C 252.32 99.97 253.31 103.04 253.07 106.01 C 252.73 103.68 252.71 101.01 250.71 99.39 C 249.15 97.31 246.54 96.77 244.43 95.48 C 242.22 95.42 240.01 95.39 237.81 95.31 Z" />
<path fill="#000000" opacity="1.00" d=" M 218.29 103.67 C 215.57 103.07 212.41 100.66 213.40 97.54 C 216.47 99.30 219.18 102.39 223.01 102.22 C 226.84 102.23 229.95 99.72 233.36 98.35 C 239.26 96.09 246.87 98.97 249.01 105.11 C 250.35 108.88 248.45 112.81 245.71 115.40 C 244.82 113.42 246.14 111.52 246.61 109.63 C 247.55 106.62 246.16 103.16 243.53 101.47 C 241.38 99.99 238.68 100.13 236.20 100.11 C 231.23 103.99 224.36 105.13 218.29 103.67 Z" />
<path fill="#000000" opacity="1.00" d=" M 150.04 100.18 C 151.77 99.63 153.49 99.08 155.21 98.50 C 153.68 99.57 152.01 100.46 150.61 101.71 C 150.18 103.79 150.27 105.92 150.22 108.03 C 151.33 109.14 152.39 110.30 153.40 111.50 C 152.06 110.75 150.24 110.17 149.84 108.48 C 149.27 105.73 149.96 102.94 150.04 100.18 Z" />
<path fill="#000000" opacity="1.00" d=" M 152.27 104.56 C 152.99 102.87 154.10 101.19 156.05 100.85 C 160.27 100.06 164.41 102.08 167.79 104.43 C 168.93 103.79 170.06 103.11 171.16 102.39 C 172.50 103.91 171.23 106.09 169.47 106.46 C 167.56 106.86 165.61 106.79 163.67 106.81 C 163.09 105.61 162.76 104.07 161.35 103.55 C 158.30 102.90 155.26 104.11 152.27 104.56 Z" />
<path fill="#000000" opacity="1.00" d=" M 235.74 105.10 C 235.75 103.67 236.24 102.44 237.21 101.40 C 237.69 102.96 238.10 104.59 239.02 105.96 C 240.85 107.98 244.02 108.52 245.22 111.13 C 243.45 111.12 241.64 111.22 239.95 110.58 C 238.90 112.04 238.38 113.69 238.76 115.47 C 234.03 120.29 231.35 126.76 226.29 131.29 C 221.52 135.49 215.93 138.72 210.02 141.02 C 203.65 143.47 196.74 143.71 190.01 144.15 C 182.72 144.41 175.38 144.13 168.19 142.85 C 164.57 142.07 160.22 141.26 158.36 137.63 C 154.95 131.47 154.88 124.12 155.36 117.27 C 155.50 114.32 156.97 111.73 158.19 109.13 C 158.90 107.77 158.38 105.65 160.22 105.07 C 161.07 107.49 161.10 110.06 161.43 112.57 C 167.12 118.63 176.03 120.12 183.99 120.15 C 202.16 119.35 219.40 112.61 235.74 105.10 M 225.68 113.06 C 225.66 114.64 225.69 116.23 225.72 117.82 C 230.93 116.99 237.23 114.09 237.30 107.96 C 232.94 108.39 229.57 111.40 225.68 113.06 M 208.19 118.46 C 208.58 120.19 208.91 121.93 209.23 123.68 C 212.92 122.13 217.15 121.84 220.52 119.55 C 222.39 118.38 223.07 116.19 223.43 114.14 C 218.27 115.29 213.27 117.01 208.19 118.46 M 161.28 124.70 C 162.10 122.24 163.35 119.08 161.85 116.70 C 160.70 119.19 158.47 122.41 161.28 124.70 M 164.91 119.05 C 164.60 121.03 164.43 123.08 164.98 125.04 C 166.03 125.56 167.14 125.96 168.30 126.23 C 168.32 124.42 168.79 122.65 169.58 121.02 C 168.05 120.28 166.41 119.83 164.91 119.05 M 226.01 122.03 C 224.70 123.31 225.29 125.25 225.29 126.86 C 229.16 125.82 230.36 121.42 232.79 118.68 C 230.40 119.45 227.71 120.01 226.01 122.03 M 193.59 122.01 C 193.62 123.64 193.62 125.26 193.61 126.89 C 198.12 127.22 202.43 125.79 206.82 125.02 C 206.48 123.20 206.12 121.38 205.75 119.57 C 201.66 120.23 197.63 121.13 193.59 122.01 M 171.95 121.55 C 171.68 123.06 171.40 124.56 171.10 126.06 C 174.12 126.65 177.20 126.86 180.27 126.85 C 180.33 125.49 180.36 124.12 180.35 122.76 C 177.52 122.56 174.69 122.29 171.95 121.55 M 183.63 122.79 C 183.17 124.00 182.71 125.21 182.24 126.43 C 185.19 127.13 188.25 126.71 191.25 126.79 C 191.24 125.19 191.24 123.59 191.24 121.99 C 188.72 122.39 186.17 122.53 183.63 122.79 M 210.29 128.30 C 210.36 131.31 212.37 133.68 213.13 136.50 C 217.07 134.47 220.53 131.69 224.25 129.30 C 222.93 127.54 222.38 125.44 222.39 123.27 C 218.61 125.51 214.48 127.04 210.29 128.30 M 195.81 132.50 C 196.04 135.20 196.23 137.90 196.51 140.60 C 201.48 140.68 206.21 139.03 210.83 137.40 C 209.46 134.74 207.77 132.03 208.02 128.90 C 204.00 130.25 200.00 131.73 195.81 132.50 M 158.89 132.10 C 158.72 133.54 159.81 135.58 161.26 135.95 C 161.83 134.46 160.32 132.45 158.89 132.10 M 164.43 136.26 C 164.32 136.89 164.10 138.13 163.99 138.75 C 164.93 138.94 166.79 139.32 167.72 139.50 C 166.75 137.01 165.56 134.59 163.80 132.56 C 163.11 133.85 163.99 135.08 164.43 136.26 M 183.91 134.31 C 184.28 136.66 184.83 138.98 185.24 141.34 C 188.08 141.44 190.93 141.36 193.77 141.15 C 193.59 138.44 193.51 135.73 193.65 133.03 C 190.46 133.85 187.20 134.40 183.91 134.31 M 168.06 133.88 C 169.09 135.86 170.44 137.77 170.52 140.08 C 171.77 140.31 173.03 140.55 174.27 140.84 C 173.62 138.87 172.88 136.94 172.15 135.00 C 170.80 134.57 169.43 134.19 168.06 133.88 M 174.75 134.70 C 175.66 136.67 176.40 138.72 177.47 140.62 C 179.00 141.72 181.06 141.20 182.83 141.42 C 182.33 139.14 182.21 136.25 179.92 134.96 C 178.36 133.93 176.45 134.54 174.75 134.70 Z" />
<path fill="#000000" opacity="1.00" d=" M 252.85 104.67 L 253.07 106.01 C 253.17 109.22 252.27 112.37 251.64 115.49 C 249.68 116.76 247.58 117.86 245.20 118.02 C 246.91 117.19 248.99 116.79 250.20 115.19 C 252.56 112.22 252.46 108.24 252.85 104.67 Z" />
<path fill="#000000" opacity="1.00" d=" M 197.53 108.26 C 199.53 105.74 203.43 106.62 205.50 108.54 C 206.64 111.45 205.38 116.70 201.33 115.64 C 201.42 113.34 204.26 112.11 203.53 109.64 C 201.47 109.52 199.32 109.42 197.53 108.26 Z" />
<path fill="#000000" opacity="1.00" d=" M 206.47 108.74 C 208.12 108.36 209.48 108.78 210.56 110.00 C 208.98 110.14 207.62 109.72 206.47 108.74 Z" />
<path fill="#000000" opacity="1.00" d=" M 214.35 109.21 L 215.05 108.83 L 215.75 109.28 L 215.75 110.10 L 215.05 110.49 L 214.35 110.04 L 214.35 109.21 Z" />
<path fill="#000000" opacity="1.00" d=" M 191.10 113.83 C 192.16 109.94 197.39 111.01 200.34 111.77 C 200.28 112.44 200.16 113.78 200.10 114.45 C 197.23 113.25 194.10 113.89 191.10 113.83 Z" />
<path fill="#000000" opacity="1.00" d=" M 221.36 139.33 C 223.00 138.58 224.78 138.30 226.56 138.15 C 219.13 141.02 212.34 145.36 204.73 147.80 C 199.03 149.87 192.88 150.25 186.88 150.08 C 183.92 150.00 181.01 150.89 178.05 150.60 C 173.30 150.05 168.08 150.85 163.81 148.21 C 162.24 147.35 161.53 145.66 160.77 144.14 C 163.98 147.57 168.51 149.38 173.15 149.67 C 177.40 150.54 181.72 150.29 186.00 149.86 C 191.03 150.01 196.04 149.24 200.93 148.12 C 208.12 146.14 214.59 142.33 221.36 139.33 Z" />
<path fill="#000000" opacity="1.00" d=" M 220.31 143.30 C 224.69 141.41 228.69 138.56 233.41 137.55 C 231.30 139.59 228.57 140.68 226.02 142.02 C 210.85 149.69 193.91 153.37 177.02 154.27 C 171.18 154.29 165.01 154.91 159.54 152.42 C 157.52 151.55 156.09 149.86 154.68 148.26 C 154.76 146.94 154.82 145.61 154.98 144.30 C 155.46 145.69 155.49 147.17 155.40 148.63 C 159.25 151.92 164.37 153.22 169.32 153.55 C 174.78 153.80 180.29 153.91 185.70 152.95 C 197.72 151.97 209.35 148.21 220.31 143.30 Z" />
<path fill="#000000" opacity="1.00" d=" M 175.41 146.49 C 181.48 146.54 187.54 146.51 193.60 146.22 C 187.64 147.23 181.39 147.54 175.41 146.49 Z" />
<path fill="#000000" opacity="1.00" d=" M 223.22 177.21 C 226.85 175.44 231.48 177.10 233.62 180.41 C 235.08 182.46 235.05 185.16 234.60 187.53 C 233.48 191.13 229.74 193.80 225.95 193.45 C 223.03 193.35 220.45 191.39 218.98 188.96 C 216.83 184.75 218.66 178.93 223.22 177.21 M 223.51 180.48 C 220.58 182.24 220.26 186.95 222.94 189.07 C 224.79 191.00 228.17 190.94 230.05 189.08 C 232.53 187.14 232.51 182.88 230.06 180.91 C 228.40 179.18 225.39 179.08 223.51 180.48 Z" />
<path fill="#000000" opacity="1.00" d=" M 200.47 189.41 C 205.07 186.54 211.77 190.65 211.44 196.00 C 211.62 199.93 207.93 203.65 203.99 203.44 C 200.07 203.62 196.34 199.93 196.55 195.99 C 196.39 193.25 198.18 190.75 200.47 189.41 M 201.44 192.37 C 199.76 193.55 198.87 195.99 199.95 197.85 C 200.90 199.98 203.73 201.26 205.85 200.05 C 207.96 199.07 209.24 196.31 208.07 194.17 C 207.00 191.71 203.59 190.62 201.44 192.37 Z" />
</g>
<g id="#ffffffff">
<path fill="#ffffff" opacity="1.00" d=" M 0.01 0.00 L 300.00 0.00 L 300.00 300.00 L 0.00 300.00 L 0.00 0.05 C 0.00 0.04 0.01 0.01 0.01 0.00 M 228.39 25.45 C 226.54 29.17 228.90 33.12 231.32 35.91 C 222.87 45.70 214.40 55.48 205.94 65.27 C 202.02 61.75 198.11 58.12 193.47 55.56 C 191.79 54.60 189.88 54.03 187.94 54.09 C 183.41 53.71 179.00 58.12 179.50 62.64 C 180.18 65.87 182.74 68.24 184.98 70.48 C 173.30 71.98 160.51 74.04 151.80 82.71 C 151.75 84.77 151.84 86.94 150.86 88.83 C 149.19 92.61 145.43 94.80 143.21 98.19 C 141.94 100.18 142.06 102.66 142.14 104.92 C 142.53 111.35 147.59 116.28 148.41 122.60 C 148.90 126.28 148.80 130.01 148.47 133.70 C 145.66 129.01 142.40 123.86 137.01 121.92 C 131.75 120.37 126.53 123.09 122.06 125.59 C 118.43 109.94 112.86 94.43 103.63 81.16 C 106.92 73.67 109.41 65.46 108.78 57.19 C 108.39 52.77 103.72 50.77 99.85 50.37 C 97.05 50.08 94.93 52.38 93.59 54.54 C 91.05 58.87 89.28 63.61 87.97 68.44 C 79.80 67.05 71.76 69.63 63.72 70.68 C 61.43 71.18 58.60 70.95 56.96 72.94 C 52.23 78.15 49.10 84.55 46.25 90.92 C 43.46 87.00 40.47 83.24 37.60 79.38 C 36.83 78.50 36.16 77.18 34.83 77.15 C 28.54 76.63 22.02 82.22 22.45 88.72 C 22.41 90.00 23.28 91.00 23.97 91.99 C 29.07 98.61 34.18 105.22 39.24 111.86 C 40.10 112.83 39.51 114.23 39.41 115.35 C 35.62 135.56 35.99 156.29 37.51 176.70 C 32.28 180.20 26.27 182.47 21.12 186.09 C 15.52 191.38 18.24 202.16 25.38 204.67 C 26.62 205.20 27.86 204.48 28.98 204.01 C 32.80 202.13 36.67 200.35 40.45 198.41 C 43.71 215.40 48.76 232.33 57.92 247.13 C 58.79 248.71 60.31 250.10 60.53 251.94 C 59.82 258.97 58.74 265.97 58.19 273.02 C 57.26 279.80 65.98 285.01 71.74 281.75 C 73.85 280.56 75.83 278.63 76.16 276.12 C 76.98 271.01 77.44 265.84 78.46 260.76 C 84.96 260.59 91.40 259.07 97.92 259.64 C 102.31 259.70 106.44 257.50 109.57 254.55 C 114.86 249.73 117.99 243.12 120.62 236.60 C 123.42 238.53 126.34 241.04 129.96 240.89 C 133.36 240.90 135.83 237.70 136.63 234.66 C 137.73 231.67 136.91 228.36 135.24 225.76 C 132.79 221.90 129.65 218.52 126.22 215.53 C 128.32 202.56 128.95 189.42 128.80 176.30 C 146.45 174.91 164.07 172.84 181.47 169.51 C 182.92 169.19 184.38 168.71 185.90 168.88 C 189.05 172.69 191.58 177.05 193.21 181.72 C 191.00 187.56 188.70 193.64 189.17 200.00 C 189.24 203.73 190.96 207.15 193.01 210.17 C 191.68 212.79 189.26 214.98 189.09 218.06 C 184.31 221.98 179.16 225.47 174.50 229.53 C 173.64 234.36 174.49 239.42 174.37 244.33 C 170.99 244.67 168.61 247.39 168.35 250.72 C 161.17 251.24 155.18 245.92 148.06 246.14 C 144.70 246.10 141.79 248.65 140.68 251.71 C 139.27 254.83 139.62 258.32 139.65 261.65 C 138.56 262.92 137.16 264.20 137.54 266.08 C 138.79 269.40 142.58 270.37 145.61 271.39 C 156.49 274.32 167.91 274.00 179.06 273.25 C 182.77 272.98 186.30 274.64 190.01 274.47 C 192.43 274.41 195.45 274.08 196.88 271.86 C 196.83 270.34 196.19 268.93 195.72 267.51 C 196.75 265.50 197.95 263.39 197.74 261.04 C 197.72 258.25 196.17 255.84 194.71 253.58 C 195.54 251.82 196.44 249.70 195.31 247.85 C 193.01 245.04 189.12 244.74 185.77 244.37 C 185.76 240.53 185.65 236.69 185.49 232.85 C 189.85 229.66 194.33 226.65 198.66 223.42 C 203.36 225.15 208.12 226.83 213.04 227.82 C 215.99 227.40 216.94 223.69 218.96 221.82 C 220.55 221.77 222.14 221.70 223.73 221.62 C 225.14 224.10 226.33 226.72 228.02 229.04 C 230.51 230.40 233.47 229.99 236.14 230.70 C 236.64 234.00 236.98 237.32 237.39 240.64 C 233.67 244.22 230.14 248.01 226.49 251.66 C 223.23 252.06 219.94 252.14 216.70 252.64 C 214.68 252.89 213.46 255.15 213.82 257.03 C 214.17 259.05 214.94 260.98 215.59 262.93 C 212.76 265.67 212.39 269.70 210.58 273.02 C 211.20 274.71 212.04 276.37 213.52 277.48 C 220.88 283.76 230.30 287.60 239.94 288.34 C 248.33 289.04 256.64 286.12 263.61 281.61 C 265.50 280.29 267.68 278.52 267.69 276.00 C 267.81 274.10 265.74 273.46 264.52 272.50 C 264.44 267.21 262.55 260.99 257.26 258.76 C 251.55 256.64 245.25 257.94 239.54 259.44 C 239.69 257.67 239.82 255.83 238.71 254.33 C 241.03 252.09 243.40 249.92 245.79 247.77 C 246.86 246.74 248.15 245.62 248.10 244.00 C 248.34 238.91 248.35 233.81 248.43 228.72 C 251.15 227.38 254.14 226.43 256.50 224.46 C 257.30 221.30 254.84 218.32 254.24 215.25 C 258.55 210.25 262.13 204.53 264.25 198.26 C 265.84 193.30 266.36 187.67 264.24 182.80 C 261.72 177.33 257.25 173.08 252.58 169.44 C 249.25 166.71 245.34 164.77 242.21 161.80 C 236.80 156.72 230.97 152.10 224.78 148.02 C 231.73 144.69 238.74 140.79 243.63 134.67 C 245.87 131.92 246.35 128.23 248.33 125.32 C 250.79 121.52 254.72 118.97 257.23 115.20 C 260.32 110.31 260.00 103.28 256.03 98.96 C 252.34 94.68 246.80 91.73 244.93 86.09 C 243.71 82.43 242.00 78.93 239.37 76.06 C 244.05 70.07 248.49 63.88 253.06 57.80 C 256.65 59.41 261.06 59.93 264.35 57.34 C 268.78 53.52 271.30 46.76 268.78 41.19 C 267.71 38.51 265.54 36.55 263.40 34.73 C 263.59 27.37 258.44 21.26 252.70 17.30 C 249.75 15.12 246.06 13.26 242.30 14.23 C 236.22 15.50 231.08 19.94 228.39 25.45 Z" />
<path fill="#ffffff" opacity="1.00" d=" M 229.53 42.49 C 232.84 38.99 235.78 35.17 239.07 31.65 C 241.97 31.58 244.83 32.20 247.37 33.63 C 252.07 36.33 256.70 39.88 258.71 45.11 C 251.64 54.78 244.43 64.36 237.25 73.96 C 235.13 72.24 232.85 70.15 229.92 70.31 C 223.95 70.74 217.97 70.13 211.99 70.07 C 210.16 70.19 209.26 68.35 208.08 67.29 C 210.16 65.00 212.20 62.66 214.21 60.30 C 218.38 60.58 222.64 60.09 226.54 58.58 C 230.45 56.73 233.51 53.41 235.75 49.76 C 236.41 48.62 237.35 47.11 236.33 45.87 C 234.16 44.57 231.79 43.62 229.53 42.49 Z" />
<path fill="#ffffff" opacity="1.00" d=" M 227.32 45.35 C 229.49 45.13 231.53 47.10 233.57 47.85 C 231.39 50.86 229.03 53.97 225.64 55.68 C 222.83 56.98 219.70 57.11 216.68 57.46 C 220.26 53.45 223.56 49.19 227.32 45.35 Z" />
<path fill="#ffffff" opacity="1.00" d=" M 99.30 53.39 C 102.46 53.46 106.11 55.27 106.14 58.87 C 105.97 65.53 103.90 71.92 101.88 78.20 C 99.35 76.77 97.78 74.21 95.42 72.56 C 93.85 71.43 92.24 70.36 90.57 69.36 C 92.41 64.70 93.71 59.74 96.53 55.54 C 97.24 54.65 98.03 53.44 99.30 53.39 Z" />
<path fill="#ffffff" opacity="1.00" d=" M 182.54 62.53 C 181.97 59.38 185.28 57.25 187.97 56.64 C 195.35 58.80 200.70 64.68 206.18 69.74 C 200.52 69.82 194.87 69.78 189.23 70.27 C 186.78 67.92 183.90 65.74 182.54 62.53 Z" />
<path fill="#ffffff" opacity="1.00" d=" M 73.38 75.35 C 77.31 71.34 83.64 69.57 88.84 72.11 C 93.92 74.35 97.86 78.50 101.10 82.91 C 106.39 90.13 110.17 98.34 113.31 106.69 C 120.33 125.81 123.81 146.06 125.30 166.33 C 123.43 166.44 121.55 166.56 119.68 166.67 C 118.91 152.06 116.66 137.50 112.56 123.46 C 109.92 114.76 106.60 106.12 101.33 98.64 C 98.56 95.07 95.27 91.44 90.77 90.19 C 87.01 88.91 82.88 90.51 80.03 93.04 C 76.59 96.15 74.41 100.37 72.62 104.58 C 67.87 116.45 66.47 129.31 65.68 141.98 C 65.02 162.92 67.01 184.06 72.77 204.26 C 75.23 212.54 78.24 220.78 82.95 228.08 C 85.46 231.81 88.43 235.46 92.48 237.55 C 96.24 239.55 101.16 239.20 104.48 236.49 C 109.36 232.65 112.07 226.80 114.11 221.09 C 117.94 209.81 119.43 197.85 119.84 185.99 C 120.03 182.91 119.40 179.73 120.40 176.76 C 122.16 176.71 123.92 176.64 125.67 176.55 C 126.09 194.16 124.84 211.98 119.96 228.98 C 117.51 237.05 114.33 245.23 108.48 251.49 C 105.04 255.23 99.77 257.63 94.66 256.37 C 88.21 254.71 83.43 249.56 79.61 244.38 C 72.55 234.49 68.06 223.04 64.49 211.50 C 56.66 185.14 54.07 157.38 55.68 129.98 C 56.76 116.91 58.74 103.78 63.43 91.47 C 65.79 85.60 68.68 79.72 73.38 75.35 Z" />
<path fill="#ffffff" opacity="1.00" d=" M 187.13 73.37 C 198.70 72.04 210.37 72.04 221.99 72.41 C 226.13 72.53 230.73 72.08 234.23 74.78 C 239.21 78.56 240.98 84.86 243.97 90.08 C 244.87 91.75 246.60 93.18 246.25 95.27 C 250.10 95.70 253.24 98.60 255.14 101.82 C 257.82 106.36 256.74 112.43 253.13 116.14 C 251.73 117.99 249.18 118.78 248.33 121.06 C 244.42 124.16 244.74 129.84 241.38 133.36 C 235.29 140.45 226.51 144.32 218.26 148.29 C 213.55 150.33 209.03 153.02 203.90 153.89 C 190.55 156.76 177.16 159.46 163.68 161.61 C 158.06 161.97 151.56 159.03 149.58 153.44 C 148.58 142.11 152.98 130.78 150.50 119.49 C 150.04 116.71 148.48 114.33 146.90 112.07 C 149.38 113.12 151.79 114.33 154.29 115.33 C 153.05 112.86 149.98 112.69 147.81 111.44 C 147.50 110.92 146.90 109.89 146.59 109.38 C 146.17 105.64 146.67 101.88 149.26 98.96 C 149.46 99.27 149.85 99.88 150.04 100.18 C 149.96 102.94 149.27 105.73 149.84 108.48 C 150.24 110.17 152.06 110.75 153.40 111.50 C 152.39 110.30 151.33 109.14 150.22 108.03 C 150.27 105.92 150.18 103.79 150.61 101.71 C 152.01 100.46 153.68 99.57 155.21 98.50 C 153.49 99.08 151.77 99.63 150.04 100.18 C 150.19 99.66 150.47 98.60 150.62 98.07 C 154.54 95.96 159.04 95.42 163.44 95.58 C 161.05 94.04 158.43 95.78 155.89 95.54 C 151.81 94.72 148.28 98.20 146.74 101.65 C 145.21 104.49 145.79 107.81 145.51 110.88 C 144.60 107.07 144.26 102.78 146.27 99.24 C 148.14 96.18 151.44 94.22 152.97 90.91 C 153.86 89.05 153.69 86.94 153.79 84.94 C 157.76 80.56 162.96 77.22 168.76 75.86 C 171.26 75.26 173.92 75.71 176.37 74.83 C 179.83 73.64 183.55 73.87 187.13 73.37 M 184.02 75.46 C 180.95 75.20 177.83 74.20 174.90 75.68 C 177.94 75.20 180.97 75.51 183.96 76.19 C 193.07 76.05 202.10 73.05 211.24 74.55 C 217.22 75.77 222.73 78.75 227.56 82.42 C 227.78 82.37 228.22 82.26 228.44 82.20 L 228.90 82.08 C 222.47 77.31 214.93 73.34 206.72 73.45 C 199.09 73.10 191.60 75.08 184.02 75.46 M 173.98 78.21 C 170.87 77.44 166.65 77.21 164.92 80.53 C 166.03 79.88 167.11 79.17 168.18 78.46 C 175.05 79.40 181.98 79.85 188.93 79.71 C 193.35 79.42 197.53 77.61 201.99 77.57 C 209.42 77.45 216.91 79.42 223.27 83.30 C 225.28 84.51 227.08 86.03 228.98 87.40 C 227.55 84.76 224.86 83.17 222.39 81.64 C 216.56 78.16 209.69 77.02 203.00 76.79 C 193.36 77.51 183.66 80.17 173.98 78.21 M 202.64 80.69 C 200.99 82.08 199.57 83.71 198.23 85.39 C 198.49 86.67 198.72 87.95 198.90 89.24 C 198.74 86.11 200.34 83.51 202.36 81.27 C 210.55 81.25 219.60 82.17 225.71 88.26 C 224.93 86.61 222.25 85.42 223.27 83.30 L 222.56 84.88 C 216.71 81.03 209.44 80.52 202.64 80.69 M 165.66 84.68 C 164.76 85.83 164.32 87.26 163.67 88.54 C 165.47 86.40 167.41 83.98 170.34 83.43 C 174.99 82.43 179.88 82.95 184.36 84.47 L 184.14 83.40 C 180.98 81.94 177.40 82.40 174.02 82.39 C 171.09 82.35 168.06 82.91 165.66 84.68 M 228.44 82.20 C 228.63 83.65 230.16 84.33 231.11 85.25 C 232.93 84.46 229.94 81.56 228.44 82.20 M 182.72 88.39 C 182.72 89.63 182.68 90.88 182.59 92.12 C 183.14 91.64 185.97 90.16 183.50 90.21 C 183.81 88.22 182.67 86.47 181.32 85.15 C 181.18 86.44 182.19 87.33 182.72 88.39 M 228.98 87.40 L 228.79 88.16 L 229.29 88.72 C 231.59 89.73 230.59 85.71 228.98 87.40 M 225.71 88.26 L 225.37 88.62 L 225.69 88.94 C 225.69 88.77 225.70 88.43 225.71 88.26 M 206.37 89.38 C 202.50 90.31 198.47 92.22 196.61 95.95 C 196.61 98.41 199.37 99.38 201.00 100.70 C 206.20 97.92 212.11 95.88 218.08 96.65 C 220.88 97.04 224.17 98.75 226.57 96.34 C 225.35 94.33 224.19 92.11 222.04 90.96 C 217.33 88.27 211.54 88.19 206.37 89.38 M 164.40 96.04 C 170.16 98.15 176.66 96.71 182.20 99.54 C 182.19 100.98 182.18 102.41 182.17 103.84 C 179.47 105.90 176.90 108.12 174.16 110.14 C 172.03 111.77 169.40 112.66 167.46 114.56 C 169.66 113.71 171.81 112.71 173.92 111.62 C 174.18 112.15 174.70 113.20 174.96 113.72 C 175.47 113.37 176.49 112.66 177.01 112.31 C 179.77 114.32 181.45 118.05 184.97 118.84 C 186.62 118.36 188.76 116.15 187.33 114.49 C 186.74 114.90 185.57 115.73 184.98 116.15 C 182.00 115.26 180.25 112.57 178.76 110.05 C 180.54 108.38 182.58 107.03 184.60 105.68 C 184.54 103.73 184.49 101.77 184.51 99.82 C 186.30 99.09 188.08 98.25 189.28 96.66 C 187.77 96.16 186.21 96.07 184.67 96.48 C 180.95 92.57 175.19 91.03 169.93 91.66 C 167.37 91.93 165.39 93.75 164.40 96.04 M 227.57 94.17 C 228.68 94.95 229.89 95.49 231.22 95.80 C 229.84 96.49 228.50 97.24 227.20 98.07 C 229.16 97.24 231.86 96.98 232.99 94.97 C 231.19 94.67 229.39 94.35 227.57 94.17 M 237.81 95.31 C 240.01 95.39 242.22 95.42 244.43 95.48 C 246.54 96.77 249.15 97.31 250.71 99.39 C 252.71 101.01 252.73 103.68 253.07 106.01 C 253.31 103.04 252.32 99.97 250.04 97.98 C 248.54 96.27 245.88 96.41 244.49 94.55 C 242.23 94.37 239.98 94.69 237.81 95.31 M 218.29 103.67 C 224.36 105.13 231.23 103.99 236.20 100.11 C 238.68 100.13 241.38 99.99 243.53 101.47 C 246.16 103.16 247.55 106.62 246.61 109.63 C 246.14 111.52 244.82 113.42 245.71 115.40 C 248.45 112.81 250.35 108.88 249.01 105.11 C 246.87 98.97 239.26 96.09 233.36 98.35 C 229.95 99.72 226.84 102.23 223.01 102.22 C 219.18 102.39 216.47 99.30 213.40 97.54 C 212.41 100.66 215.57 103.07 218.29 103.67 M 152.27 104.56 C 155.26 104.11 158.30 102.90 161.35 103.55 C 162.76 104.07 163.09 105.61 163.67 106.81 C 165.61 106.79 167.56 106.86 169.47 106.46 C 171.23 106.09 172.50 103.91 171.16 102.39 C 170.06 103.11 168.93 103.79 167.79 104.43 C 164.41 102.08 160.27 100.06 156.05 100.85 C 154.10 101.19 152.99 102.87 152.27 104.56 M 235.74 105.10 C 219.40 112.61 202.16 119.35 183.99 120.15 C 176.03 120.12 167.12 118.63 161.43 112.57 C 161.10 110.06 161.07 107.49 160.22 105.07 C 158.38 105.65 158.90 107.77 158.19 109.13 C 156.97 111.73 155.50 114.32 155.36 117.27 C 154.88 124.12 154.95 131.47 158.36 137.63 C 160.22 141.26 164.57 142.07 168.19 142.85 C 175.38 144.13 182.72 144.41 190.01 144.15 C 196.74 143.71 203.65 143.47 210.02 141.02 C 215.93 138.72 221.52 135.49 226.29 131.29 C 231.35 126.76 234.03 120.29 238.76 115.47 C 238.38 113.69 238.90 112.04 239.95 110.58 C 241.64 111.22 243.45 111.12 245.22 111.13 C 244.02 108.52 240.85 107.98 239.02 105.96 C 238.10 104.59 237.69 102.96 237.21 101.40 C 236.24 102.44 235.75 103.67 235.74 105.10 M 252.85 104.67 C 252.46 108.24 252.56 112.22 250.20 115.19 C 248.99 116.79 246.91 117.19 245.20 118.02 C 247.58 117.86 249.68 116.76 251.64 115.49 C 252.27 112.37 253.17 109.22 253.07 106.01 L 252.85 104.67 M 197.53 108.26 C 199.32 109.42 201.47 109.52 203.53 109.64 C 204.26 112.11 201.42 113.34 201.33 115.64 C 205.38 116.70 206.64 111.45 205.50 108.54 C 203.43 106.62 199.53 105.74 197.53 108.26 M 206.47 108.74 C 207.62 109.72 208.98 110.14 210.56 110.00 C 209.48 108.78 208.12 108.36 206.47 108.74 M 214.35 109.21 L 214.35 110.04 L 215.05 110.49 L 215.75 110.10 L 215.75 109.28 L 215.05 108.83 L 214.35 109.21 M 191.10 113.83 C 194.10 113.89 197.23 113.25 200.10 114.45 C 200.16 113.78 200.28 112.44 200.34 111.77 C 197.39 111.01 192.16 109.94 191.10 113.83 M 221.36 139.33 C 214.59 142.33 208.12 146.14 200.93 148.12 C 196.04 149.24 191.03 150.01 186.00 149.86 C 181.72 150.29 177.40 150.54 173.15 149.67 C 168.51 149.38 163.98 147.57 160.77 144.14 C 161.53 145.66 162.24 147.35 163.81 148.21 C 168.08 150.85 173.30 150.05 178.05 150.60 C 181.01 150.89 183.92 150.00 186.88 150.08 C 192.88 150.25 199.03 149.87 204.73 147.80 C 212.34 145.36 219.13 141.02 226.56 138.15 C 224.78 138.30 223.00 138.58 221.36 139.33 M 220.31 143.30 C 209.35 148.21 197.72 151.97 185.70 152.95 C 180.29 153.91 174.78 153.80 169.32 153.55 C 164.37 153.22 159.25 151.92 155.40 148.63 C 155.49 147.17 155.46 145.69 154.98 144.30 C 154.82 145.61 154.76 146.94 154.68 148.26 C 156.09 149.86 157.52 151.55 159.54 152.42 C 165.01 154.91 171.18 154.29 177.02 154.27 C 193.91 153.37 210.85 149.69 226.02 142.02 C 228.57 140.68 231.30 139.59 233.41 137.55 C 228.69 138.56 224.69 141.41 220.31 143.30 M 175.41 146.49 C 181.39 147.54 187.64 147.23 193.60 146.22 C 187.54 146.51 181.48 146.54 175.41 146.49 Z" />
<path fill="#ffffff" opacity="1.00" d=" M 59.51 74.49 C 63.73 73.67 67.98 73.04 72.21 72.31 C 64.51 79.19 60.67 89.15 57.82 98.82 C 51.34 122.63 51.21 147.70 53.61 172.11 C 53.98 175.55 54.60 178.96 54.73 182.42 C 53.25 178.60 51.00 174.38 46.70 173.28 C 44.38 172.55 42.39 174.33 40.46 175.29 C 38.78 155.09 38.79 134.59 42.58 114.61 C 45.32 114.07 48.34 113.52 50.30 111.32 C 52.64 108.55 52.80 104.68 52.67 101.22 C 52.81 97.94 49.69 96.02 48.42 93.27 C 51.49 86.67 54.62 79.98 59.51 74.49 Z" />
<path fill="#ffffff" opacity="1.00" d=" M 25.43 88.62 C 25.15 83.87 29.78 80.59 34.01 79.78 C 39.16 86.43 44.29 93.10 49.30 99.85 C 50.00 102.42 49.81 105.34 48.92 107.86 C 47.99 110.38 45.11 111.00 42.81 111.58 C 37.05 103.90 30.94 96.45 25.43 88.62 Z" />
<path fill="#ffffff" opacity="1.00" d=" M 200.04 96.10 C 201.91 92.88 205.90 92.31 209.10 91.11 C 209.46 92.23 209.78 93.36 210.05 94.51 C 206.56 94.49 203.97 97.30 200.59 97.59 C 200.45 97.22 200.18 96.47 200.04 96.10 Z" />
<path fill="#ffffff" opacity="1.00" d=" M 82.13 94.97 C 84.00 94.08 85.80 92.62 88.00 92.77 C 90.95 92.72 93.26 94.88 95.65 96.28 C 92.11 95.96 88.34 95.90 85.24 97.91 C 84.21 96.92 83.17 95.94 82.13 94.97 Z" />
<path fill="#ffffff" opacity="1.00" d=" M 219.68 93.58 C 220.70 92.86 222.97 93.65 222.83 94.99 C 221.80 95.47 219.58 94.86 219.68 93.58 Z" />
<path fill="#ffffff" opacity="1.00" d=" M 170.14 94.81 C 170.53 93.48 172.81 93.22 173.81 94.08 C 173.17 95.15 171.19 95.57 170.14 94.81 Z" />
<path fill="#ffffff" opacity="1.00" d=" M 70.48 124.26 C 72.15 114.83 74.44 105.13 80.08 97.20 C 81.83 98.79 83.53 100.41 85.29 101.98 C 84.30 115.27 83.64 128.59 82.57 141.89 C 79.04 136.94 75.45 132.04 71.80 127.19 C 71.26 126.28 70.16 125.43 70.48 124.26 Z" />
<path fill="#ffffff" opacity="1.00" d=" M 88.42 99.61 C 91.55 98.56 95.38 98.72 97.70 101.35 C 97.83 108.30 96.60 115.19 96.38 122.13 C 95.61 129.55 95.32 137.01 94.49 144.43 C 91.51 144.05 88.52 143.84 85.53 143.60 C 86.48 128.93 87.48 114.27 88.42 99.61 Z" />
<path fill="#ffffff" opacity="1.00" d=" M 100.82 103.23 C 108.50 116.34 111.97 131.37 114.61 146.19 C 114.18 145.60 113.31 144.42 112.88 143.83 C 109.56 143.02 106.24 144.43 102.95 144.82 C 103.14 138.95 102.24 133.09 100.46 127.51 C 100.00 126.03 99.19 124.59 99.30 123.00 C 99.68 116.40 100.39 109.82 100.82 103.23 Z" />
<path fill="#ffffff" opacity="1.00" d=" M 225.68 113.06 C 229.57 111.40 232.94 108.39 237.30 107.96 C 237.23 114.09 230.93 116.99 225.72 117.82 C 225.69 116.23 225.66 114.64 225.68 113.06 Z" />
<path fill="#ffffff" opacity="1.00" d=" M 208.19 118.46 C 213.27 117.01 218.27 115.29 223.43 114.14 C 223.07 116.19 222.39 118.38 220.52 119.55 C 217.15 121.84 212.92 122.13 209.23 123.68 C 208.91 121.93 208.58 120.19 208.19 118.46 Z" />
<path fill="#ffffff" opacity="1.00" d=" M 161.28 124.70 C 158.47 122.41 160.70 119.19 161.85 116.70 C 163.35 119.08 162.10 122.24 161.28 124.70 Z" />
<path fill="#ffffff" opacity="1.00" d=" M 164.91 119.05 C 166.41 119.83 168.05 120.28 169.58 121.02 C 168.79 122.65 168.32 124.42 168.30 126.23 C 167.14 125.96 166.03 125.56 164.98 125.04 C 164.43 123.08 164.60 121.03 164.91 119.05 Z" />
<path fill="#ffffff" opacity="1.00" d=" M 226.01 122.03 C 227.71 120.01 230.40 119.45 232.79 118.68 C 230.36 121.42 229.16 125.82 225.29 126.86 C 225.29 125.25 224.70 123.31 226.01 122.03 Z" />
<path fill="#ffffff" opacity="1.00" d=" M 193.59 122.01 C 197.63 121.13 201.66 120.23 205.75 119.57 C 206.12 121.38 206.48 123.20 206.82 125.02 C 202.43 125.79 198.12 127.22 193.61 126.89 C 193.62 125.26 193.62 123.64 193.59 122.01 Z" />
<path fill="#ffffff" opacity="1.00" d=" M 171.95 121.55 C 174.69 122.29 177.52 122.56 180.35 122.76 C 180.36 124.12 180.33 125.49 180.27 126.85 C 177.20 126.86 174.12 126.65 171.10 126.06 C 171.40 124.56 171.68 123.06 171.95 121.55 Z" />
<path fill="#ffffff" opacity="1.00" d=" M 183.63 122.79 C 186.17 122.53 188.72 122.39 191.24 121.99 C 191.24 123.59 191.24 125.19 191.25 126.79 C 188.25 126.71 185.19 127.13 182.24 126.43 C 182.71 125.21 183.17 124.00 183.63 122.79 Z" />
<path fill="#ffffff" opacity="1.00" d=" M 210.29 128.30 C 214.48 127.04 218.61 125.51 222.39 123.27 C 222.38 125.44 222.93 127.54 224.25 129.30 C 220.53 131.69 217.07 134.47 213.13 136.50 C 212.37 133.68 210.36 131.31 210.29 128.30 Z" />
<path fill="#ffffff" opacity="1.00" d=" M 195.81 132.50 C 200.00 131.73 204.00 130.25 208.02 128.90 C 207.77 132.03 209.46 134.74 210.83 137.40 C 206.21 139.03 201.48 140.68 196.51 140.60 C 196.23 137.90 196.04 135.20 195.81 132.50 Z" />
<path fill="#ffffff" opacity="1.00" d=" M 69.74 129.37 C 73.96 135.13 78.18 140.89 82.36 146.68 C 83.81 148.30 83.20 150.57 82.39 152.33 C 80.26 151.48 77.90 151.97 75.76 151.39 C 73.30 148.73 71.16 145.79 68.70 143.13 C 68.73 138.52 69.37 133.95 69.74 129.37 Z" />
<path fill="#ffffff" opacity="1.00" d=" M 158.89 132.10 C 160.32 132.45 161.83 134.46 161.26 135.95 C 159.81 135.58 158.72 133.54 158.89 132.10 Z" />
<path fill="#ffffff" opacity="1.00" d=" M 164.43 136.26 C 163.99 135.08 163.11 133.85 163.80 132.56 C 165.56 134.59 166.75 137.01 167.72 139.50 C 166.79 139.32 164.93 138.94 163.99 138.75 C 164.10 138.13 164.32 136.89 164.43 136.26 Z" />
<path fill="#ffffff" opacity="1.00" d=" M 183.91 134.31 C 187.20 134.40 190.46 133.85 193.65 133.03 C 193.51 135.73 193.59 138.44 193.77 141.15 C 190.93 141.36 188.08 141.44 185.24 141.34 C 184.83 138.98 184.28 136.66 183.91 134.31 Z" />
<path fill="#ffffff" opacity="1.00" d=" M 98.61 133.08 C 100.14 136.76 99.88 140.88 100.31 144.79 C 99.40 144.64 98.49 144.57 97.57 144.58 C 97.82 140.74 98.13 136.90 98.61 133.08 Z" />
<path fill="#ffffff" opacity="1.00" d=" M 168.06 133.88 C 169.43 134.19 170.80 134.57 172.15 135.00 C 172.88 136.94 173.62 138.87 174.27 140.84 C 173.03 140.55 171.77 140.31 170.52 140.08 C 170.44 137.77 169.09 135.86 168.06 133.88 Z" />
<path fill="#ffffff" opacity="1.00" d=" M 174.75 134.70 C 176.45 134.54 178.36 133.93 179.92 134.96 C 182.21 136.25 182.33 139.14 182.83 141.42 C 181.06 141.20 179.00 141.72 177.47 140.62 C 176.40 138.72 175.66 136.67 174.75 134.70 Z" />
<path fill="#ffffff" opacity="1.00" d=" M 138.74 151.74 C 142.21 150.80 144.90 148.27 147.24 145.66 C 146.91 148.37 146.54 151.12 146.95 153.84 C 148.46 158.03 152.01 161.09 155.88 163.09 C 146.70 163.93 137.59 165.49 128.38 165.98 C 127.74 161.28 127.49 156.54 127.03 151.83 C 130.89 152.41 134.91 152.73 138.74 151.74 Z" />
<path fill="#ffffff" opacity="1.00" d=" M 86.19 146.71 C 88.39 146.80 90.60 146.90 92.81 146.99 C 91.43 149.79 90.17 152.66 89.38 155.69 C 88.03 154.93 86.68 154.17 85.36 153.37 C 86.12 151.22 86.33 148.97 86.19 146.71 Z" />
<path fill="#ffffff" opacity="1.00" d=" M 103.25 147.99 C 105.90 147.32 108.60 146.89 111.29 146.41 C 112.47 149.09 113.15 152.25 112.20 155.08 C 110.48 156.48 108.46 157.47 106.59 158.64 C 106.04 154.94 104.94 151.33 103.25 147.99 Z" />
<path fill="#ffffff" opacity="1.00" d=" M 92.23 157.47 C 92.96 153.61 94.00 148.79 98.14 147.26 C 103.93 151.96 103.61 160.19 104.19 166.94 C 100.29 163.67 96.49 160.26 92.23 157.47 Z" />
<path fill="#ffffff" opacity="1.00" d=" M 68.56 147.44 C 70.06 149.21 71.46 151.06 72.93 152.86 C 71.43 153.81 69.98 154.84 68.60 155.97 C 68.59 153.12 68.54 150.28 68.56 147.44 Z" />
<path fill="#ffffff" opacity="1.00" d=" M 106.78 160.72 C 110.52 160.83 113.22 157.93 116.00 155.86 C 116.23 159.55 116.49 163.23 116.69 166.92 C 113.42 167.25 110.14 167.27 106.86 167.36 C 106.86 165.14 106.83 162.93 106.78 160.72 Z" />
<path fill="#ffffff" opacity="1.00" d=" M 196.32 183.43 C 209.60 172.79 226.65 168.85 243.14 166.56 C 249.72 170.85 256.49 175.53 260.64 182.38 C 263.84 187.59 262.77 194.17 260.56 199.54 C 258.47 205.05 254.82 209.71 251.31 214.35 C 251.04 217.33 253.04 220.11 253.65 223.01 C 246.47 227.02 237.87 228.97 229.82 226.53 C 228.43 223.77 226.93 221.07 225.15 218.55 C 222.59 218.81 219.82 218.29 217.40 219.32 C 215.56 220.82 214.36 222.92 212.94 224.78 C 205.91 222.74 198.57 221.04 192.45 216.85 C 193.95 214.63 195.26 212.29 196.62 209.98 C 194.84 207.42 192.89 204.80 192.38 201.64 C 191.41 196.52 192.97 191.39 194.59 186.57 C 195.02 185.47 195.34 184.19 196.32 183.43 M 223.22 177.21 C 218.66 178.93 216.83 184.75 218.98 188.96 C 220.45 191.39 223.03 193.35 225.95 193.45 C 229.74 193.80 233.48 191.13 234.60 187.53 C 235.05 185.16 235.08 182.46 233.62 180.41 C 231.48 177.10 226.85 175.44 223.22 177.21 M 200.47 189.41 C 198.18 190.75 196.39 193.25 196.55 195.99 C 196.34 199.93 200.07 203.62 203.99 203.44 C 207.93 203.65 211.62 199.93 211.44 196.00 C 211.77 190.65 205.07 186.54 200.47 189.41 Z" />
<path fill="#ffffff" opacity="1.00" d=" M 44.56 176.49 C 46.68 175.54 48.66 177.63 49.82 179.19 C 51.55 181.81 53.28 185.43 51.38 188.42 C 49.63 191.55 45.87 192.37 42.94 193.97 C 37.31 196.53 31.88 199.56 26.12 201.78 C 22.11 199.87 20.14 194.76 21.60 190.62 C 22.31 188.74 24.03 187.57 25.73 186.68 C 32.05 183.37 38.24 179.80 44.56 176.49 Z" />
<path fill="#ffffff" opacity="1.00" d=" M 104.87 177.87 C 108.98 177.68 113.07 177.35 117.18 177.28 C 117.02 184.27 116.64 191.26 116.03 198.22 C 114.76 197.66 114.28 196.35 113.69 195.22 C 110.82 189.40 107.79 183.66 104.87 177.87 Z" />
<path fill="#ffffff" opacity="1.00" d=" M 97.21 182.27 C 97.15 180.88 99.17 180.00 100.38 180.29 C 100.32 181.60 98.43 182.69 97.21 182.27 Z" />
<path fill="#ffffff" opacity="1.00" d=" M 223.51 180.48 C 225.39 179.08 228.40 179.18 230.06 180.91 C 232.51 182.88 232.53 187.14 230.05 189.08 C 228.17 190.94 224.79 191.00 222.94 189.07 C 220.26 186.95 220.58 182.24 223.51 180.48 Z" />
<path fill="#ffffff" opacity="1.00" d=" M 103.35 181.59 C 106.32 187.34 109.28 193.09 112.24 198.85 C 113.45 200.96 112.34 203.47 111.55 205.53 C 110.80 207.80 107.84 208.48 105.90 207.44 C 100.93 199.67 96.06 191.81 91.32 183.90 C 93.87 182.43 95.47 185.90 97.99 185.44 C 100.44 185.50 101.96 183.26 103.35 181.59 Z" />
<path fill="#ffffff" opacity="1.00" d=" M 71.83 187.32 C 76.65 187.64 81.46 187.20 86.17 186.17 C 85.59 190.94 85.79 195.76 85.50 200.55 C 85.19 207.12 84.21 213.63 82.80 220.05 C 81.17 219.77 80.96 217.87 80.32 216.66 C 76.30 207.26 73.84 197.31 71.83 187.32 Z" />
<path fill="#ffffff" opacity="1.00" d=" M 51.13 193.17 C 53.46 191.61 54.53 188.93 55.47 186.41 C 57.69 197.73 60.15 209.04 64.08 219.92 C 68.03 230.80 72.91 241.60 80.59 250.40 C 82.83 253.04 85.57 255.21 88.43 257.14 C 85.16 257.21 81.91 257.59 78.63 257.59 C 79.15 255.19 80.00 252.56 78.86 250.19 C 76.30 243.36 66.14 241.43 61.18 246.77 C 51.76 231.72 46.43 214.48 43.34 197.10 C 45.95 195.82 48.70 194.79 51.13 193.17 Z" />
<path fill="#ffffff" opacity="1.00" d=" M 88.84 185.84 C 92.70 192.11 96.75 198.27 100.42 204.64 C 101.01 210.62 100.75 216.89 98.43 222.51 C 96.70 226.53 93.31 229.44 89.91 232.03 C 87.80 229.84 86.03 227.36 84.34 224.83 C 88.54 212.30 88.80 198.93 88.84 185.84 Z" />
<path fill="#ffffff" opacity="1.00" d=" M 201.44 192.37 C 203.59 190.62 207.00 191.71 208.07 194.17 C 209.24 196.31 207.96 199.07 205.85 200.05 C 203.73 201.26 200.90 199.98 199.95 197.85 C 198.87 195.99 199.76 193.55 201.44 192.37 Z" />
<path fill="#ffffff" opacity="1.00" d=" M 103.67 210.16 C 107.89 211.81 113.77 210.80 114.74 205.55 C 113.88 212.30 112.04 218.96 109.22 225.16 C 107.34 229.01 105.02 233.07 101.04 235.06 C 98.16 236.52 94.83 235.58 92.17 234.11 C 94.74 232.06 97.35 229.95 99.21 227.19 C 102.70 222.27 103.59 216.06 103.67 210.16 Z" />
<path fill="#ffffff" opacity="1.00" d=" M 125.25 219.88 C 127.34 219.99 128.42 221.95 129.71 223.31 C 131.78 225.83 134.17 228.65 134.14 232.09 C 133.87 234.69 132.33 238.31 129.14 237.88 C 126.20 237.23 123.76 235.30 121.58 233.33 C 123.32 229.00 124.35 224.44 125.25 219.88 Z" />
<path fill="#ffffff" opacity="1.00" d=" M 65.42 247.38 C 69.59 245.32 76.18 247.99 76.38 253.00 C 75.39 260.41 74.27 267.82 73.24 275.23 C 72.99 277.56 70.86 279.20 68.69 279.66 C 66.21 279.97 63.64 278.80 62.09 276.87 C 60.58 274.98 61.37 272.44 61.42 270.25 C 62.25 263.46 63.02 256.66 63.78 249.85 C 63.85 248.70 64.39 247.88 65.42 247.38 Z" />
<path fill="#ffffff" opacity="1.00" d=" M 185.92 247.35 C 188.48 247.71 191.23 247.98 193.19 249.87 C 192.41 251.10 191.22 252.29 191.23 253.86 C 192.35 256.02 194.39 257.80 194.63 260.34 C 195.20 263.37 193.07 266.57 190.13 267.36 C 187.06 267.79 184.24 265.78 181.17 266.27 C 172.85 267.18 164.41 268.07 156.06 267.02 C 151.31 266.26 146.18 264.80 142.79 261.24 C 142.39 257.71 142.27 253.61 144.78 250.76 C 146.79 248.26 150.41 249.12 153.05 249.93 C 158.89 251.91 165.00 255.02 171.30 253.16 C 171.17 250.75 171.77 248.19 174.21 247.14 C 174.37 247.90 174.70 249.41 174.87 250.17 C 178.29 250.88 181.75 251.26 185.23 251.52 C 185.75 250.19 185.88 248.76 185.92 247.35 Z" />
<path fill="#ffffff" opacity="1.00" d=" M 217.33 255.57 C 219.21 255.33 221.10 255.14 222.98 254.85 C 222.49 255.93 221.96 257.00 221.40 258.05 C 224.62 259.82 228.47 260.09 232.07 260.35 C 233.72 259.15 235.15 257.68 236.70 256.36 C 236.91 258.65 234.92 260.09 234.08 262.01 C 234.47 263.90 236.53 263.37 237.87 262.92 C 243.32 261.38 249.12 260.04 254.78 261.11 C 259.10 261.97 261.02 266.64 261.41 270.58 C 262.19 274.58 258.85 277.95 255.51 279.52 C 249.34 282.41 242.13 283.27 235.54 281.43 C 228.06 279.40 221.15 275.63 214.88 271.13 C 215.13 268.18 217.01 265.95 218.70 263.69 C 219.44 260.97 215.56 258.25 217.33 255.57 Z" />
<path fill="#ffffff" opacity="1.00" d=" M 140.77 264.15 C 143.92 266.09 147.22 267.76 150.71 269.00 C 147.22 268.79 143.45 268.18 140.73 265.81 L 140.77 264.15 Z" />
<path fill="#ffffff" opacity="1.00" d=" M 177.90 270.18 C 180.28 268.56 183.48 269.30 186.07 270.03 C 188.53 270.83 191.14 270.27 193.50 269.39 L 193.39 270.99 C 188.24 272.71 183.13 269.61 177.90 270.18 Z" />
<path fill="#ffffff" opacity="1.00" d=" M 261.71 278.86 C 261.82 277.53 263.04 276.00 264.41 275.84 C 264.71 277.29 263.09 278.79 261.71 278.86 Z" />
<path fill="#ffffff" opacity="1.00" d=" M 222.26 279.23 L 222.72 279.20 L 222.74 279.67 L 222.28 279.69 L 222.26 279.23 Z" />
</g>
</svg>
