<?xml version="1.0" encoding="utf-8"?>
<!-- Generator: Adobe Illustrator 15.0.2, SVG Export Plug-In . SVG Version: 6.00 Build 0)  -->
<!DOCTYPE svg PUBLIC "-//W3C//DTD SVG 1.1//EN" "http://www.w3.org/Graphics/SVG/1.1/DTD/svg11.dtd">
<svg version="1.1" id="Layer_1" xmlns="http://www.w3.org/2000/svg" xmlns:xlink="http://www.w3.org/1999/xlink" x="0px" y="0px"
	 width="202px" height="220px" viewBox="0 0 202 220" enable-background="new 0 0 202 220" xml:space="preserve">
<path fill="#FFFFFF" d="M0,0h202v220H0V0 M76.4,3.08c0.55,4.46,3.2,8.35,3.37,12.87C80.89,11.49,78.52,6.9,76.4,3.08 M59.24,11.08
	c-0.76,1.35-1.53,2.69-2.31,4.03c-2.06,0.31-4.71-0.23-6.13,1.69c-1.86,1.9-2.44,5.71,0.03,7.35c3.03,2.3,7.15,0.73,10.55,2.14
	c0.46,1.12,0.96,2.21,1.51,3.29c3.07,0.01,1.97-3.79,2.7-5.81c3.07-2.7,3.45-6.77,3.23-10.6C66.42,10.31,62.55,10.96,59.24,11.08
	 M108.09,21.29c0.43-0.06,1.27-0.17,1.7-0.23c0.62-3.6,1.44-7.15,2.351-10.68C110.029,13.67,110.07,17.87,108.09,21.29
	 M164.92,20.89c-1.98,1.34-3.67,2.97-3.199,5.61c2.489-2.44,4.18-5.61,6.949-7.78c1.43-1.17,2.641-2.56,3.68-4.07
	C168.529,14.67,167.68,19.07,164.92,20.89 M20.06,23.11c1.3,4.82,5.64,7.61,8.62,11.29c0.9,1.05,1.95,1.95,3.11,2.7
	c-0.42-1.38-0.61-2.97-1.83-3.92C26.43,30.05,23.66,26.16,20.06,23.11 M181.12,35.9c-2.88,0.83-6.24,1.48-7.88,4.3
	c5.18-0.85,9.55-4.01,14.57-5.43c0.09-0.56,0.27-1.67,0.358-2.23C185.82,33.66,183.66,35.23,181.12,35.9 M75.49,35.23
	c-2.75,1.12-5.77,0.39-8.63,0.69c-3.6,1.01-6.12,3.93-8.68,6.46c-0.91,1.4-1.95,2.71-2.88,4.1c-2.18,3.03-2.46,7.1-5.04,9.87
	c-4.29,3.68-9.01,7.4-11.13,12.82c-0.74,3.1,0.4,6.21,0.23,9.33c0.68,1.01,1.38,2,2.13,2.95c2.3,5.18,8.86,7.41,9.85,13.35
	c0.64,1.25,1.27,2.51,1.88,3.78c1.74,1.72,3.36,3.57,5.36,5.01c-0.27,0.85-0.54,1.71-0.8,2.57c-1.26-1.15-2.39-2.43-3.2-3.93
	c-2.6-1.82-5.8-1.35-8.79-1.34c-0.64,0.16-1.91,0.48-2.55,0.64c-0.34,0.32-1,0.96-1.33,1.28c0.05,1.7,0.01,3.42,0.21,5.11
	c0.64,2.16,3.21,3.53,2.92,5.99c0.4,3.14-1.58,5.81-3.04,8.41c-2.61,4.57-7.51,7.01-10.72,11.05c-2.3-2.65,0.6-6.08,1.14-8.931
	c0.55-1.379,1.11-2.75,1.88-4.029c1.75-2.801,0.88-6.301,0.88-9.41c-0.51-2.47-0.63-6.5-3.86-6.73c-1.91-3.63-7.07-1.8-10.43-2.3
	c-3.36,1.62-3.68,5.32-4.32,8.57c-0.98,2.43-2.57,4.64-4.5,6.41c-0.98,1-3.22,1.649-2.4,3.5c4.93,0.52,5.8-5.94,9.46-7.851
	c-0.26,1.881-0.82,3.721-0.9,5.619c-1.21,2.471-2.03,5.98-5.09,6.69c-0.02,0.528-0.05,1.58-0.06,2.108c1.21,0,2.43-0.01,3.65-0.02
	c1.69-2.82,3.46-5.68,4.07-8.971c0.15,0.031,0.46,0.091,0.62,0.121c-0.2,2.229,0.2,4.58-0.53,6.74
	c-1.23,1.979-3.57,3.618-2.91,6.278c3.28,1.062,3.65-3.96,5.84-5.521c-0.1-2.779-0.13-5.561,0.07-8.34
	c-0.76-1.841-1.9-3.461-3.25-4.92c2.16,0.649,4.43,0.829,6.67,0.609c1.51-2.84-3.35-1.87-4.96-2.29c-0.71-1.51-2.47-2.72-2.27-4.51
	c0.89-0.85,1.89-1.58,2.85-2.36c1.97,0.15,3.93,0.42,5.84,0.93c4.71,4.26,5.19,11.52,1.71,16.69c-0.52,1.64-1.14,3.239-1.85,4.81
	c-0.31,2.78-1.27,5.74,0.06,8.4c-1.73,1.689-3.52,3.38-4.82,5.43c-0.28,2.23-0.14,4.48-0.24,6.721c1.93,3.859,6.55,3.101,9.95,1.961
	c0.96-1.131,2-2.182,3.06-3.211c-0.03-1.17-0.07-2.34-0.11-3.5c1.53,0.119,3.06,0.17,4.59,0.149c2.09-0.85,3.42-2.79,4.68-4.56
	c-0.18-2.07-0.15-4.141-0.12-6.211c-0.68-0.689-1.36-1.369-2.04-2.06c-1.49-0.19-2.97-0.391-4.46-0.569
	c3.56-2.82,6.11-6.722,7.71-10.931c0.25-2.329,0.09-4.681,0.11-7.011c-0.93-1.12-1.84-2.24-2.76-3.36
	c-0.49-2.93,1.84-5.22,4.78-4.58c3.52-0.19,4.98,3.48,6.62,5.9c-0.36,0.35-1.08,1.04-1.44,1.38c-0.55,3.311-2.42,6.141-3.65,9.2
	c-1.74,4.58-1.2,9.479-1.3,14.271c0.56,1.221,1.14,2.45,1.3,3.801c0.48,2.58,1.78,4.869,2.71,7.3c1.61,1.58,3.34,3.021,5.05,4.489
	c2.46,1.211,5.47,1.261,7.63,3.041c0.92,2.619,0.41,5.6-0.39,8.22c-0.9,4.101-3.28,7.43-5.91,10.601
	c-3.55,0.409-7.51-0.031-9.86-3.011c-2.44-3.59-2.04-8.21-2.9-12.3c-4.87-0.381-7.21,4.27-11.05,6.21
	c-3.03,0.92-6.09,0.01-8.37-2.11c-0.63,2.19-0.8,4.461-0.77,6.73c2.14,2.438,5.48,1.789,8.34,1.52c4.19-1.92,6.88-5.92,10.24-8.93
	c0.53,3.41,0.38,7.141,2.46,10.09c0.91,1.99,3.19,2.58,4.83,3.801c2.83,0.061,5.67,0.18,8.51,0.049c3.15-2.35,5.31-5.898,6.52-9.608
	c1.74-3.95,1.21-8.29,1.08-12.472c5.19,4.08,12.42,5.211,16.55,10.682c2.4,4.279,4.07,8.91,5.25,13.66
	c0.56,1.859,0.82,3.789,0.88,5.729c1.24,5.86-2.12,11.801-5.55,16.4c0.1,1.23-0.55,2.949,0.9,3.66
	c5.69,4.119,6.36,11.789,7.13,18.209c1.68-0.289,3.51-0.5,4.71-1.869c0.19-4.37,0.26-8.82-0.99-13.061
	c-0.22-1.08-0.46-2.16-0.73-3.229c-1.16-0.78-2.27-1.64-3.31-2.57c-1.87,0.03-3.73,0.15-5.59,0.29c4.07-5.43,6.79-12.17,5.88-19.05
	c0.28-3.7-1.36-7.08-1.97-10.66c-2.11-4.7-3.79-9.83-8.07-13.05c-4.49-2.311-9.25-4.21-13.37-7.16c0.42-1.199,0.9-2.37,1.43-3.52
	c0.98-4.961,0.9-10.181-0.16-15.131c-1.44-4.569-1.22-9.479-2.76-14.039c1.79,0.629,3.43,1.58,5.06,2.539
	c1.93,3.221-1.59,7.351,1.85,10.159c3.53,1.82,4.52,5.921,7.12,8.671c-4.78,0.779-8.13,5.229-6.95,10.09
	c0.67,0.78,1.35,1.569,2.01,2.371c3.19,0.358,6.09-0.9,8.08-3.382c-0.17-1.63-0.33-3.27-0.36-4.909
	c1.82,1.409,1.51,4.439,3.85,5.359c0.92,0.689,1.95,0.92,3.09,0.682c2.33-1.382,1.05-4.36,1.3-6.552
	c-1.86-2.33-3.52-4.899-3.32-8.021c2.03-1.819,4.04-4.279,7-4.35c2.4,0.449,4.2,2.189,5.63,4.061c-2,2.521-5.02,4.369-8.34,4.039
	c-0.01,0.541-0.03,1.621-0.04,2.16c2.19-0.061,4.4-0.189,6.41-1.141c-0.47,0.98-0.97,1.95-1.5,2.91c0,1.551,0,3.1,0.01,4.65
	c1.41,2.649,2.229,5.92,5.601,6.688c0.25-4.021-4.141-6.75-3.311-10.858c1.471,2.34,2.311,5.039,4.2,7.119
	c2.12,0.62,4.47,1.779,6.239-0.221c-1.239-0.898-2.67-1.409-4.109-1.88c-2.49-1.24-2.561-4.399-4.07-6.46
	c0.17,0.102,0.521,0.3,0.7,0.4c0.921,1.328,2.171,2.369,3.33,3.479c2.12,0,4.25,0.01,6.37,0.051c0.66-1.07,1.29-2.15,1.891-3.25
	c-1.931,0.34-3.791,1.01-5.729,1.319c-1.382-0.7-3.632-1.149-3.392-3.181c2.062,0.86,4.26,1.141,6.472,1.069
	c-0.03-0.771-0.091-2.31-0.12-3.08c-0.54,0.25-1.63,0.761-2.17,1.021c-1.631-0.671-3.342-1.149-5.08-1.38
	c-0.479-0.5-1.42-1.5-1.891-2c0.029-1.131,0.029-2.25,0-3.381c-0.76-2.279-3.299-2.939-5.089-4.189
	c-3.63-0.721-6.86,0.891-9.51,3.221c-1.31,1.68-1.57,3.699-1.34,5.771c-0.48,3.5,3.41,5.641,3.27,9.061
	c-3.5,1.05-3.07-4.229-4.87-6.061c-3.02-2.021-4.3-5.54-6.29-8.421c0.9,0.091,2.7,0.25,3.59,0.341c0.57-0.29,1.72-0.87,2.29-1.16
	c0.55-1.24,1.17-2.46,1.59-3.76c0.57-2.38-1.92-3.5-3.22-5.021c-1.25-0.011-2.5-0.011-3.74-0.011c-0.72,0.8-1.45,1.591-2.2,2.37
	c-0.53,1.6-1.06,3.199-1.64,4.79c-0.31-0.79-0.91-2.37-1.22-3.17c0.52-2.681,1.3-6.2-1.1-8.22c-1.78-1.881-5.9-1.42-5.48-4.94
	c7.27,4.25,15.39,6.75,22.69,10.979c4.96,3.17,11,3.11,16.46,4.891c4.101,1.369,8.521,1.54,12.552,3.05
	c5-0.101,9.988-0.079,14.988-0.03c3.602-1.229,7.41-2.22,10.38-4.72c2.33-2.399,5.052-5.34,4.7-8.938
	c-0.05-2.48,0.13-4.971-0.182-7.431c-1.969-7.17-0.778-14.68-1.039-22.01c1.119-4.31,3.551-8.07,5.49-12.03
	c-0.631-4.58,1.33-9.82-1.641-13.82c-1.561-3.11-5.99-3.55-6.67-7.3c-0.27-1.8-0.279-3.62-0.25-5.43
	c-4.7-5.71-11.46-9.49-18.74-10.65c-4.46-0.93-8.96-1.87-13.539-1.9c-5.351-0.04-10.611-1.42-15.971-1.23
	C91.16,35.28,83.32,35.26,75.49,35.23 M11.85,56.07c-0.94,3.15,0.07,7.19-3.34,9.01c0.06,1.72,0.13,3.43,0.21,5.15
	c4.83,0.37,9.7-0.07,14.48,0.88c0.66-2.11-2.02-3.62-2.95-5.37c0.41-2.69,0.67-5.67-1.09-7.98C17.61,55.28,14.26,56.38,11.85,56.07
	 M185.32,62.3c-1.641,3.7-3.541,7.54-3.24,11.71c5.97-1.03,11.82-3.13,17.07-6.18c0.148-3.36-2.76-4.87-5.7-5
	c-0.101-0.77-0.29-2.31-0.39-3.07C190.189,59.04,187.34,60.29,185.32,62.3 M2.88,87.21c1.62,3.17,6.22,1.55,9.08,2.22
	C8.99,88.5,6,87.5,2.88,87.21 M190.73,96.78c-2.07,0.92-4.722,0.91-6.121,2.95c3.49-1.47,7.021-2.89,10.75-3.63
	C193.75,95.11,192.24,96.27,190.73,96.78 M182.15,99.24c-0.562,1.63-0.01,2.12,1.66,1.479C184.37,99.09,183.811,98.6,182.15,99.24
	 M187.221,110.72c-6.08,2.69-10.101,9.511-17.229,9.87c-2.729,3.37-4.011,8.54-1.212,12.24c2.08-0.26,4.092-0.87,6.102-1.42
	c2.262,0.06,4.891,1.16,6.801-0.58c3.141-1.88-0.801-5.9,0.641-8.26c4.369-1.711,8.539-4.062,11.72-7.59
	c-0.229-1.432-0.44-2.852-0.66-4.28C191.33,110.68,189.26,110.43,187.221,110.72 M161.26,147.34c3.02,1.49,6.07,2.99,9.41,3.57
	c2.04,0.31,3.62,2.35,5.83,1.609c0.221,0.739,0.45,1.479,0.68,2.229c0.03-0.521,0.1-1.562,0.141-2.09
	c-1.25-0.79-2.5-1.58-3.76-2.351C169.26,150.891,165.57,147.51,161.26,147.34 M158.49,164.88c1.539,2.09,3.31,4.09,5.67,5.28
	C162.471,168.2,160.6,166.391,158.49,164.88z"/>
<path fill="#EA6DDE" d="M76.4,3.08c2.12,3.82,4.49,8.41,3.37,12.87C79.6,11.43,76.95,7.54,76.4,3.08z"/>
<path fill="#E768E6" d="M59.24,11.08c3.31-0.12,7.18-0.77,9.58,2.09c0.22,3.83-0.16,7.9-3.23,10.6c-0.73,2.02,0.37,5.82-2.7,5.81
	c-0.55-1.08-1.05-2.17-1.51-3.29c-3.4-1.41-7.52,0.16-10.55-2.14c-2.47-1.64-1.89-5.45-0.03-7.35c1.42-1.92,4.07-1.38,6.13-1.69
	C57.71,13.77,58.48,12.43,59.24,11.08 M60.55,13.6c-1.99,1.45-0.41,3.83-0.18,5.72c-0.87,0.09-1.75,0.18-2.62,0.27
	c-1.3-1.16-2.45-3.67-4.5-2.36c-0.9,1.12-1.64,2.44-1.8,3.89c2.27,3.86,7.7,2.59,11.44,3.01c1.7-3.1,4.18-6.46,3.34-10.18
	C64.67,12.82,61.98,11.69,60.55,13.6z"/>
<path fill="#EA6DDE" d="M108.09,21.29c1.98-3.42,1.939-7.62,4.051-10.91c-0.91,3.53-1.729,7.08-2.351,10.68
	C109.359,21.12,108.52,21.23,108.09,21.29z"/>
<path fill="#F9FDFA" d="M60.55,13.6c1.43-1.91,4.12-0.78,5.68,0.35c0.84,3.72-1.64,7.08-3.34,10.18c-3.74-0.42-9.17,0.85-11.44-3.01
	c0.16-1.45,0.9-2.77,1.8-3.89c2.05-1.31,3.2,1.2,4.5,2.36c0.87-0.09,1.75-0.18,2.62-0.27C60.14,17.43,58.56,15.05,60.55,13.6z"/>
<path fill="#DFA2D9" d="M164.92,20.89c2.76-1.82,3.609-6.22,7.43-6.24c-1.039,1.51-2.25,2.9-3.68,4.07
	c-2.77,2.17-4.46,5.34-6.949,7.78C161.25,23.86,162.939,22.23,164.92,20.89z"/>
<path fill="#DC9FD8" d="M20.06,23.11c3.6,3.05,6.37,6.94,9.9,10.07c1.22,0.95,1.41,2.54,1.83,3.92c-1.16-0.75-2.21-1.65-3.11-2.7
	C25.7,30.72,21.36,27.93,20.06,23.11z"/>
<path fill="#E4ACE2" d="M181.12,35.9c2.54-0.67,4.7-2.24,7.05-3.36c-0.09,0.56-0.27,1.67-0.359,2.23
	c-5.021,1.42-9.391,4.58-14.569,5.43C174.88,37.38,178.24,36.73,181.12,35.9z"/>
<path fill="#050305" d="M75.49,35.23c7.83,0.03,15.67,0.05,23.51,0c5.359-0.19,10.62,1.19,15.971,1.23
	c4.579,0.03,9.079,0.97,13.539,1.9c7.28,1.16,14.04,4.94,18.74,10.65c-0.029,1.81-0.02,3.63,0.25,5.43
	c0.68,3.75,5.109,4.19,6.67,7.3c2.971,4,1.01,9.24,1.641,13.82c-1.939,3.96-4.371,7.72-5.49,12.03
	c0.261,7.33-0.93,14.84,1.039,22.01c0.312,2.46,0.132,4.95,0.182,7.43c0.352,3.6-2.37,6.54-4.7,8.938
	c-2.97,2.5-6.778,3.49-10.38,4.721c-5-0.049-9.988-0.069-14.988,0.029c-4.031-1.51-8.451-1.68-12.552-3.05
	c-5.46-1.778-11.5-1.72-16.46-4.89c-7.3-4.23-15.42-6.73-22.69-10.98c-0.42,3.521,3.7,3.061,5.48,4.94c2.4,2.02,1.62,5.54,1.1,8.22
	c0.31,0.8,0.91,2.38,1.22,3.17c0.58-1.59,1.11-3.189,1.64-4.79c0.75-0.778,1.48-1.569,2.2-2.37c1.24,0,2.49,0,3.74,0.012
	c1.3,1.52,3.79,2.64,3.22,5.02c-0.42,1.3-1.04,2.52-1.59,3.76c-0.57,0.29-1.72,0.87-2.29,1.16c-0.89-0.09-2.69-0.25-3.59-0.34
	c1.99,2.88,3.27,6.4,6.29,8.42c1.8,1.83,1.37,7.109,4.87,6.061c0.14-3.42-3.75-5.561-3.27-9.061c-0.23-2.07,0.03-4.09,1.34-5.77
	c2.65-2.33,5.88-3.94,9.51-3.222c1.79,1.25,4.332,1.91,5.089,4.19c0.029,1.13,0.029,2.25,0,3.38c0.471,0.5,1.41,1.5,1.891,2
	c1.738,0.229,3.449,0.71,5.08,1.38c0.54-0.26,1.63-0.771,2.17-1.021c0.029,0.771,0.09,2.312,0.12,3.08
	c-2.212,0.07-4.41-0.209-6.472-1.068c-0.24,2.029,2.01,2.479,3.392,3.18c1.938-0.311,3.8-0.979,5.729-1.318
	c-0.601,1.1-1.229,2.18-1.891,3.25c-2.12-0.041-4.25-0.052-6.37-0.052c-1.159-1.108-2.409-2.149-3.33-3.479
	c-0.18-0.101-0.53-0.3-0.7-0.4c1.51,2.06,1.58,5.22,4.07,6.46c1.439,0.471,2.87,0.98,4.109,1.881c-1.771,2-4.119,0.84-6.239,0.219
	c-1.89-2.08-2.729-4.778-4.2-7.118c-0.83,4.108,3.561,6.84,3.311,10.858c-3.371-0.77-4.189-4.039-5.601-6.688
	c-0.01-1.552-0.01-3.101-0.01-4.65c0.53-0.96,1.03-1.93,1.5-2.909c-2.01,0.949-4.22,1.079-6.41,1.141c0.01-0.54,0.03-1.62,0.04-2.16
	c3.32,0.33,6.34-1.52,8.34-4.04c-1.43-1.87-3.23-3.61-5.63-4.06c-2.96,0.068-4.97,2.528-7,4.35c-0.2,3.12,1.46,5.689,3.32,8.02
	c-0.25,2.19,1.03,5.17-1.3,6.551c-1.14,0.24-2.17,0.011-3.09-0.681c-2.34-0.92-2.03-3.95-3.85-5.36c0.03,1.642,0.19,3.281,0.36,4.91
	c-1.99,2.48-4.89,3.74-8.08,3.381c-0.66-0.801-1.34-1.59-2.01-2.37c-1.18-4.859,2.17-9.311,6.95-10.091
	c-2.6-2.75-3.59-6.85-7.12-8.67c-3.44-2.81,0.08-6.938-1.85-10.16c-1.63-0.959-3.27-1.908-5.06-2.539
	c1.54,4.561,1.32,9.471,2.76,14.039c1.06,4.951,1.14,10.171,0.16,15.132c-0.53,1.149-1.01,2.319-1.43,3.52
	c4.12,2.95,8.88,4.851,13.37,7.16c4.28,3.22,5.96,8.351,8.07,13.05c0.61,3.58,2.25,6.961,1.97,10.66
	c0.91,6.88-1.81,13.62-5.88,19.051c1.86-0.141,3.72-0.261,5.59-0.291c1.04,0.932,2.15,1.791,3.31,2.57
	c0.27,1.069,0.51,2.148,0.73,3.229c1.25,4.24,1.18,8.69,0.99,13.062c-1.2,1.37-3.03,1.58-4.71,1.87
	c-0.77-6.42-1.44-14.091-7.13-18.21c-1.45-0.71-0.8-2.431-0.9-3.66c3.43-4.601,6.79-10.54,5.55-16.399
	c-0.06-1.939-0.32-3.869-0.88-5.729c-1.18-4.75-2.85-9.38-5.25-13.66c-4.13-5.47-11.36-6.601-16.55-10.681
	c0.13,4.181,0.66,8.521-1.08,12.471c-1.21,3.71-3.37,7.26-6.52,9.609c-2.84,0.131-5.68,0.011-8.51-0.049
	c-1.64-1.222-3.92-1.812-4.83-3.801c-2.08-2.949-1.93-6.681-2.46-10.091c-3.36,3.011-6.05,7.011-10.24,8.931
	c-2.86,0.271-6.2,0.92-8.34-1.521c-0.03-2.271,0.14-4.54,0.77-6.729c2.28,2.119,5.34,3.029,8.37,2.109
	c3.84-1.939,6.18-6.59,11.05-6.21c0.86,4.09,0.46,8.71,2.9,12.3c2.35,2.979,6.31,3.42,9.86,3.012c2.63-3.172,5.01-6.5,5.91-10.602
	c0.8-2.62,1.31-5.602,0.39-8.22c-2.16-1.78-5.17-1.83-7.63-3.04c-1.71-1.471-3.44-2.91-5.05-4.49c-0.93-2.431-2.23-4.72-2.71-7.3
	c-0.16-1.351-0.74-2.58-1.3-3.802c0.1-4.788-0.44-9.688,1.3-14.27c1.23-3.061,3.1-5.89,3.65-9.2c0.36-0.34,1.08-1.03,1.44-1.38
	c-1.64-2.42-3.1-6.09-6.62-5.9c-2.94-0.64-5.27,1.65-4.78,4.58c0.92,1.12,1.83,2.24,2.76,3.36c-0.02,2.33,0.14,4.681-0.11,7.011
	c-1.6,4.209-4.15,8.109-7.71,10.931c1.49,0.18,2.97,0.38,4.46,0.569c0.68,0.689,1.36,1.369,2.04,2.061
	c-0.03,2.068-0.06,4.141,0.12,6.21c-1.26,1.771-2.59,3.71-4.68,4.56c-1.53,0.021-3.06-0.029-4.59-0.148
	c0.04,1.16,0.08,2.33,0.11,3.5c-1.06,1.029-2.1,2.08-3.06,3.21c-3.4,1.14-8.02,1.899-9.95-1.96c0.1-2.24-0.04-4.49,0.24-6.721
	c1.3-2.051,3.09-3.74,4.82-5.431c-1.33-2.659-0.37-5.62-0.06-8.399c0.71-1.569,1.33-3.17,1.85-4.811c3.48-5.17,3-12.43-1.71-16.69
	c-1.91-0.51-3.87-0.78-5.84-0.93c-0.96,0.78-1.96,1.51-2.85,2.36c-0.2,1.79,1.56,3,2.27,4.51c1.61,0.42,6.47-0.55,4.96,2.29
	c-2.24,0.22-4.51,0.04-6.67-0.608c1.35,1.459,2.49,3.078,3.25,4.92c-0.2,2.779-0.17,5.56-0.07,8.34c-2.19,1.56-2.56,6.58-5.84,5.52
	c-0.66-2.66,1.68-4.3,2.91-6.279c0.73-2.159,0.33-4.51,0.53-6.739c-0.16-0.03-0.47-0.091-0.62-0.12c-0.61,3.29-2.38,6.148-4.07,8.97
	c-1.22,0.011-2.44,0.021-3.65,0.021c0.01-0.529,0.04-1.58,0.06-2.109c3.06-0.71,3.88-4.221,5.09-6.689
	c0.08-1.899,0.64-3.739,0.9-5.621c-3.66,1.91-4.53,8.371-9.46,7.852c-0.82-1.852,1.42-2.5,2.4-3.5c1.93-1.771,3.52-3.98,4.5-6.41
	c0.64-3.25,0.96-6.95,4.32-8.57c3.36,0.5,8.52-1.33,10.43,2.3c3.23,0.229,3.35,4.26,3.86,6.729c0,3.109,0.87,6.609-0.88,9.41
	c-0.77,1.279-1.33,2.65-1.88,4.029c-0.54,2.851-3.44,6.28-1.14,8.931c3.21-4.04,8.11-6.479,10.72-11.05
	c1.46-2.601,3.44-5.271,3.04-8.41c0.29-2.46-2.28-3.83-2.92-5.99c-0.2-1.69-0.16-3.41-0.21-5.11c0.33-0.32,0.99-0.96,1.33-1.28
	c0.64-0.16,1.91-0.48,2.55-0.64c2.99-0.01,6.19-0.48,8.79,1.34c0.81,1.5,1.94,2.78,3.2,3.93c0.26-0.86,0.53-1.72,0.8-2.57
	c-2-1.44-3.62-3.29-5.36-5.01c-0.61-1.27-1.24-2.53-1.88-3.78c-0.99-5.94-7.55-8.17-9.85-13.35c-0.75-0.95-1.45-1.94-2.13-2.95
	c0.17-3.12-0.97-6.229-0.23-9.33c2.12-5.42,6.84-9.14,11.13-12.82c2.58-2.77,2.86-6.84,5.04-9.87c0.93-1.39,1.97-2.7,2.88-4.1
	c2.56-2.53,5.08-5.45,8.68-6.46C69.72,35.62,72.74,36.35,75.49,35.23 M58.85,45.87c-3.14,3.86-3.53,9.24-7.14,12.82l-0.81-0.06
	c0.3,1.11,0.41,2.4,1.41,3.15c-0.64-0.1-1.94-0.29-2.59-0.38c-0.98,1.99-2.47,3.67-3.53,5.62c-0.44,3.62-0.31,7.29,0.1,10.91
	l-1.21-0.36c0.5-5.15-1.29-10.96,2.76-15.2c-5.69,3.06-7.67,9.8-5.85,15.69c1.5,1.32,2.63,2.96,3.19,4.88
	c1.81,1.36,3.92,2.22,6.14,2.61c-0.61,0.18-1.83,0.54-2.44,0.73c2.28,1.89,4.09,4.27,4.89,7.16c1.31,4.58,5.42,7.27,8.51,10.58
	l0.34-0.18c7.28,6.75,17.04,9.471,25.74,13.801l-0.04,0.17c3.44,1.51,6.83,3.17,10.09,5.049c1.2-0.028,2.4-0.039,3.6-0.06
	c3.971,1.78,8.32,2.33,12.461,3.53c8.699,2.27,18.279,3.27,26.85,0.029c2.131-1.479,4.75-2.521,6.061-4.909
	c3.521-4.83,1.16-11.06,0.479-16.41c-0.118-5.69-0.129-11.4-0.01-17.09c0.121-4.06,2.48-7.4,4.301-10.85
	c-2.771,1.29-5.479,2.73-8.319,3.85c1.448-2.8,5.17-2.91,7.67-4.39c-0.41-2.29,0.521-4.42,0.892-6.62
	c-0.75-4.08-4.381-6.18-7.57-8.23c-3.271-0.08-6.541,0.12-9.791-0.29c0.221-0.36,0.671-1.08,0.891-1.45
	c3.21,1.12,6.609,1.51,9.99,1.17c3.32,1.94,5.66,4.76,7.58,8.02c-0.051-1.8-0.11-3.68-1.12-5.25c-1.511-2.97-5.521-3.71-6.681-6.93
	c-1.021-2.3-0.569-4.94-1.351-7.28c-2.409-3.38-6.528-4.75-9.771-7.13l-0.34,0.89l0.181-0.92c-3.33-0.98-6.812-2.33-10.33-1.64
	c-4.319,0.75-8.71,0.16-13.052,0.65c3.521-2.06,8.212-0.28,12.191-0.97c-0.261-0.22-0.801-0.64-1.061-0.86
	c-6.66-0.99-13.439-1.01-20.11-1.938c-7.02-0.24-14.04,0.07-21.06-0.13c-4.34-0.13-8.6,0.84-12.94,0.73
	C64.09,39.4,61.17,42.66,58.85,45.87 M152.34,75.5c1.17-0.47,1.37-1.39,0.6-2.73C151.77,73.23,151.58,74.14,152.34,75.5
	 M56.76,111.53c-0.95,3.85-3.41,7.12-4.26,11.01c-0.14,0.649-0.41,1.93-0.54,2.58l1.92-0.89c-0.41,0.568-1.24,1.709-1.65,2.278
	l-0.4,0.011c0.02,0.83,0.05,2.5,0.07,3.34c0.34-0.17,1.02-0.521,1.36-0.689c0.45,0.01,1.34,0.04,1.78,0.051
	c-1.18,1.189-2.3,2.439-3.54,3.569c0.2,0.49,0.61,1.46,0.81,1.94l0.05-0.051l1.02-0.221c0.02,1.57,0.05,3.148,0.08,4.729
	c0.25,0.371,0.74,1.121,0.99,1.5c0.65,3.211,3.5,5,5.88,6.881c2.38,1.119,4.99,1.49,7.57,1.891c2.21-6.09,2.94-12.811,0.97-19.08
	c-0.24-0.87-0.46-1.75-0.67-2.63c-0.02-0.681-0.06-2.05-0.08-2.729c-0.13-0.489-0.38-1.471-0.51-1.959
	c0.01-0.44,0.03-1.33,0.04-1.78c-0.21-0.57-0.65-1.7-0.86-2.261c0.05-2.819,0.44-5.609,0.92-8.379
	c-2.63-1.492-5.18-3.102-7.65-4.822C58.91,107.69,57.84,109.61,56.76,111.53 M79.39,128.99c1.39-0.061,2.78-0.12,4.17-0.18
	c0.88-0.791,1.76-1.57,2.65-2.33c-0.29-1.86-1.79-2.95-3.13-4.08C81.55,124.42,80.22,126.59,79.39,128.99 M36.29,133.7
	c0.81,2.19,0.92,4.5,0.78,6.81c4.74,0.37,8.2-5.67,4.79-9.229C39.34,129.68,37.34,131.35,36.29,133.7 M31.88,135.561
	c1.1,1.159,2.15,2.379,3.23,3.561c-0.43-1.91-1.08-3.762-1.3-5.71C33.17,134.13,32.53,134.84,31.88,135.561 M29.38,136.62
	c-0.74,1.16-1.54,2.271-2.39,3.35c-1.97,2.22-2.12,6.511,1.01,7.761c2.65,0.021,5.53-1.279,6.72-3.779
	c0.79-2.08-1.23-3.391-2.9-3.932c-0.16-0.438-0.47-1.34-0.63-1.778C30.74,137.83,29.83,137.03,29.38,136.62 M78.47,147.88
	c2.05-0.021,3.93-0.78,5.5-2.08c0-2.06,0.01-4.12,0-6.18C80.4,140.53,76.74,143.9,78.47,147.88 M28.79,164.01
	c0.02,3.771,4.7,2.59,6.97,1.641c0.25-0.391,0.77-1.181,1.03-1.58C34.12,164,31.46,163.98,28.79,164.01 M89.96,199.88
	c0.65,2.771,3,4.729,3.57,7.55c0.83,3.17,1.74,6.32,2.12,9.59c1.25-4.18,0.22-8.608-0.85-12.709
	C94.43,201.88,91.94,200.8,89.96,199.88z"/>
<path fill="#EA6DE9" d="M58.85,45.87c2.32-3.21,5.24-6.47,9.2-7.49c4.34,0.11,8.6-0.86,12.94-0.73c0.3,0.72,0.89,2.17,1.19,2.89
	c-6.13,1.96-11.41,5.71-16.69,9.27c-0.7,0.55-0.97,1.45-1.41,2.19C72.07,45.68,81.59,40.11,92,39.61c-0.23,0.73-0.69,2.19-0.91,2.92
	c-9.07,0.83-18.43,4.35-24.02,11.87c3.47-1.45,5.43-4.98,8.79-6.62c6.72-3.57,14.51-4.94,22.07-4.48
	c10.509,2.26,21.39,1.72,32.02,0.72c1.11,0.54,2.21,1.1,3.34,1.6c0.12-0.24,0.37-0.72,0.489-0.96l0.451-1.2l0.34-0.89
	c3.24,2.38,7.359,3.75,9.77,7.13c0.78,2.34,0.33,4.98,1.35,7.28c1.16,3.22,5.17,3.96,6.682,6.93c1.01,1.57,1.068,3.45,1.12,5.25
	c-1.921-3.26-4.261-6.08-7.58-8.02c-3.382,0.34-6.78-0.05-9.99-1.17c-0.22,0.37-0.67,1.09-0.892,1.45
	c3.25,0.41,6.521,0.21,9.791,0.29c3.189,2.05,6.82,4.15,7.57,8.23c-0.371,2.2-1.301,4.33-0.891,6.62c-2.5,1.48-6.221,1.59-7.67,4.39
	c2.84-1.12,5.55-2.56,8.32-3.85c-1.82,3.45-4.18,6.79-4.301,10.85c-0.119,5.69-0.109,11.4,0.01,17.09
	c0.681,5.35,3.041,11.58-0.479,16.41c-1.31,2.39-3.93,3.43-6.06,4.909c-8.57,3.24-18.15,2.24-26.85-0.029
	c-4.142-1.2-8.49-1.75-12.462-3.53c-1.2,0.021-2.4,0.03-3.6,0.06c-3.26-1.879-6.65-3.539-10.09-5.049l0.04-0.17
	c0.16-0.75,0.5-2.25,0.66-3c8.96,1.699,17.799,4.5,26.98,4.659c6.472,0.841,13.09,1.19,19.562,0.17
	c2.948-1.149,5.479-3.13,8.18-4.77c0-1.65,0-3.3-0.03-4.95c-0.431,1.54-0.819,3.1-1.21,4.66c-2.82,1.58-5.45,3.65-8.58,4.57
	c-5.63,0.479-11.33,0.39-16.93-0.4c-4.92-0.471-10.45,0.4-14.62-2.88c8.55-0.05,17.12,0.42,25.67,0.01
	c4.271-0.17,8.819-2.41,10.33-6.64c-2.64,2.23-5.16,4.92-8.71,5.581c-6.15,1.16-12.45,0.271-18.66,0.619
	c-4.02,0.291-7.95-1-11.94-0.818c1.72,0.398,3.18,1.21,4.39,2.43c-13.65-1.85-26.57-7.19-38.24-14.39c-0.3,0.16-0.91,0.49-1.22,0.66
	l-1.37,0.69l-0.34,0.18c-3.09-3.31-7.2-6-8.51-10.58c-0.8-2.89-2.61-5.27-4.89-7.16c0.61-0.19,1.83-0.55,2.44-0.73
	c-2.22-0.39-4.33-1.25-6.14-2.61c-0.56-1.92-1.69-3.56-3.19-4.88c-1.82-5.89,0.16-12.63,5.85-15.69c-4.05,4.24-2.26,10.05-2.76,15.2
	l1.21,0.36c-0.41-3.62-0.54-7.29-0.1-10.91c1.06-1.95,2.55-3.63,3.53-5.62c0.65,0.09,1.95,0.28,2.59,0.38
	c3.09,0.39,6.22,0.189,9.32,0c-2.48-2.92-6.42-2.87-9.92-3.09C55.32,55.11,55.71,49.73,58.85,45.87 M80.56,47.66
	c-3.84,1.65-8.02,3.9-9.7,7.97c3.6-3.21,7.27-6.79,12.16-7.82c4.24-0.67,8.59-1.27,12.87-0.69c2.52,1.95,3.23,5.13,3.77,8.09
	c0.33-2.43,0.33-5.04-1.49-6.93c0.24-0.67,0.48-1.35,0.72-2.021C92.78,46.24,86.46,45.67,80.56,47.66 M121.59,47.66
	c-2.8,0.85-6.15,0.02-8.609,1.79c4.069-0.05,8.049-0.89,12.029-1.6c2.12,0.24,3.961,1.48,5.86,2.36c2.13,0.86,2.45,3.44,4.021,4.91
	c-0.591-1.86-0.74-4.33-2.721-5.29C129.029,47.84,125.311,46.44,121.59,47.66 M115.189,58.48c0.711-1.96,0.871-4.05,1.17-6.09
	c0.371-0.35,1.121-1.05,1.49-1.41C113.971,51.01,115.391,55.99,115.189,58.48 M71.19,61.23c1.31,1.1,3.02,2.62,4.88,1.76
	c3.5-1.15,7.24-1.38,10.89-0.95c3.57,0.51,6.48,2.91,9.92,3.84c2.29-0.46,4.21-2.14,5.021-4.32c-0.319-0.51-0.959-1.55-1.279-2.07
	c-2.91-2.04-5.75-4.53-9.44-4.94C84.13,53.49,74.99,54.17,71.19,61.23 M114.1,62.22c-1.25-0.38-2.5-0.75-3.75-1.09
	c-0.34,0.45-1.02,1.35-1.358,1.81c1.618,0.83,3.26,1.6,4.938,2.3c-0.449,2.93-0.58,6.02,2.09,7.94c1.73,0.15,2.86,1.3,3.682,2.75
	c-1.99,2.16-5.41,8.23-8.342,3.97c-2.77,1.25-0.778,4.2,1.611,3.97c4.039,0.56,6.289-3.42,8.309-6.19
	c0.441,0.41,1.32,1.21,1.762,1.61c0.38-0.5,1.141-1.5,1.521-2c2.35,1.17,4.709,2.38,7.25,3.09c-2.201-2.89-6.531-2.56-8.472-5.76
	c-2.43-1.55-4.64-3.42-7.229-4.71c0.011-1.6,0-3.19,0-4.79c4.551-2.36,9.761-2.47,14.761-2.61c1.45-0.07,3.33-0.7,3.2-2.47
	c-1.41-1.33-2.961-3.03-5.08-2.9C123.68,56.85,117.24,57.21,114.1,62.22 M64.56,60.39c0.96,1.64,2.66,1.53,4.32,1.34
	c0.22,0.61,0.66,1.85,0.88,2.46c-0.3-1.65-0.49-3.32-0.28-4.99C67.86,59.66,66.2,60.02,64.56,60.39 M48.64,70.97
	c0.03,2.562-0.17,5.24,1.03,7.6c0.62,1.16,1.43,3.15,3.02,2.05c0.69-2.36-1.74-4.29-1.75-6.65c0.1-5.07,4.79-9.7,10.06-8.42
	c4.84,1.72,9.58,4.71,14.93,4.36c4.2,0.22,7.57-2.74,10.39-5.47c-0.56-0.3-1.67-0.88-2.23-1.18c-3.24,2.86-7.6,5.55-12.04,3.85
	c-2.87-1.27-6.07-1.87-8.63-3.75c-2.78-0.08-5.62-0.41-8.36,0.22C51.82,64.84,50.12,68.05,48.64,70.97 M142.87,64.14
	c2.37,1.23,5.819,2.34,5.53,5.67c0.74,3.17-1.812,5.21-3.631,7.36c1.819-0.67,3.689-1.96,4.359-3.83c0-3.41,0-7.62-3.658-9.19
	C144.82,64.15,143.52,64.14,142.87,64.14 M131.5,69.95c-1.5-0.6-2.92-1.38-4.43-1.94c-0.65,0.68-0.83,1.48-0.541,2.39
	c2.381,2.1,5.761,2.01,8.74,1.94c0.09-0.69,0.25-2.07,0.34-2.76c2-0.84,4.16-1.08,6.32-1c1.021,0.92,4.029,3.54,4.131,0.55
	c-1.052-3.14-5.312-3.08-8.121-2.82C135.21,66.15,133.65,68.75,131.5,69.95 M59.93,67.91c-0.45,1.6-0.74,3.23-1.07,4.86
	c-1.9,0.81-3.9,1.4-5.94,1.71c-0.09,3.1,3.4,1.89,5.23,1.56c1.4,1.26,1.42,3.1,1.15,4.82c2.32,1.36,3.19,4.07,4.72,6.14
	c6.54,10.27,17.28,17.7,29.08,20.57c8.98,1.71,18.16,2.29,27.291,1.65c5.5-0.81,11.311-0.76,16.42-3.24
	c3.891-1.84,5-6.42,5.83-10.25c0.569-6.58,0.5-13.26-1-19.72c-0.41-0.19-1.221-0.56-1.631-0.75c-0.06-1.78,0.43-4.28-2.01-4.6
	c-0.359,2.65-0.52,5.34-1.17,7.95c-4.35,4.38-10.33,6.38-16.34,7.05c-12.311,0.73-24.44-2.25-36.04-6.11
	c-7.86-1.65-14.87-5.65-22.12-8.91C62.12,69.4,61.88,66.34,59.93,67.91 M90.5,72.09c0.17,0.48,0.52,1.45,0.69,1.93
	c-3.33,1.69-7.3-0.34-10.53,1.37c3.47-0.13,7.17,0.62,10.44-0.8c1.66,1.29,1.14,3.5,1.85,5.22c0.89,0.7,2.84,2.46,3.63,0.83
	c1.27-1.08-1.09-1.86-1.62-2.65c-0.05-0.72-0.17-2.17-0.22-2.9c2.02-0.53,4.85,0.35,6.12-1.76c-1.71-1.97-4.6-0.73-6.81-0.47
	c-0.76,0.71-1.61,1.3-2.54,1.78l0.33-2.49C91.5,72.13,90.84,72.1,90.5,72.09 M97.79,76.86c0.18,1.31,0.51,2.59,0.97,3.83
	c2.07-3.34,5.91-0.28,8.881-1.54C105.99,75.39,101.02,76.76,97.79,76.86 M45.1,77.85c0.77,3.97,4.79,5.38,8.24,6.13
	C50.57,81.91,46.99,81.05,45.1,77.85 M145.29,99.29C145.8,99.79,145.8,99.79,145.29,99.29 M70.82,102.25
	c0.21,0.26,0.63,0.78,0.83,1.04c7.9,4.57,16.56,8.54,25.3,10.58l-0.01-0.37c-4.51-2.061-9.39-3.25-13.88-5.4
	C78.91,106.3,75.13,103.7,70.82,102.25 M103.82,111.689l0.14,1.279c6.87-0.01,13.74,0.15,20.61-0.1l-0.85-0.971
	C117.12,111.359,110.45,111.83,103.82,111.689z"/>
<path fill="#F48FEC" d="M80.99,37.65c7.02,0.2,14.04-0.11,21.06,0.13c6.671,0.93,13.45,0.95,20.11,1.938
	c0.26,0.22,0.8,0.64,1.061,0.86c-3.979,0.69-8.671-1.09-12.191,0.97l-0.288,0.02c-0.142-0.03-0.421-0.09-0.562-0.12
	c0.15-0.2,0.45-0.59,0.61-0.79c-1.431-1.47-3.95-0.73-5.71-0.24c-0.221-0.1-0.66-0.29-0.88-0.39l-0.91-0.43
	c-6.96-0.8-14.34-1.27-21.11,0.94C81.88,39.82,81.29,38.37,80.99,37.65z"/>
<path fill="#000005" d="M82.18,40.54c6.77-2.21,14.15-1.74,21.11-0.94l0.91,0.43c-4.06-0.18-8.13-0.38-12.2-0.42
	C81.59,40.11,72.07,45.68,64.08,52c0.44-0.74,0.71-1.64,1.41-2.19C70.77,46.25,76.05,42.5,82.18,40.54z"/>
<path fill="#EA79EC" d="M92,39.61c4.07,0.04,8.14,0.24,12.2,0.42c0.22,0.1,0.659,0.29,0.88,0.39c1.57,0.8,3.37,0.85,5.1,1.03
	c0.141,0.03,0.42,0.09,0.562,0.12l0.288-0.02c4.342-0.49,8.73,0.1,13.052-0.65c3.521-0.69,7,0.66,10.33,1.64l-0.181,0.92l-0.451,1.2
	c-3.698-2.39-8.129-0.67-12.198-0.81c-6.63,0.01-13.392,0.68-19.92-0.85c-3.47-0.73-7.05-0.66-10.57-0.47
	C91.31,41.8,91.77,40.34,92,39.61z"/>
<path fill="#4E144B" d="M105.08,40.42c1.76-0.49,4.279-1.23,5.71,0.24c-0.16,0.2-0.46,0.59-0.61,0.79
	C108.45,41.27,106.65,41.22,105.08,40.42z"/>
<path fill="#050305" d="M67.07,54.4c5.59-7.52,14.95-11.04,24.02-11.87c3.52-0.19,7.1-0.26,10.57,0.47
	c6.529,1.53,13.29,0.86,19.92,0.85c4.07,0.14,8.5-1.58,12.199,0.81c-0.119,0.24-0.369,0.72-0.489,0.96
	c-1.13-0.5-2.229-1.06-3.34-1.6c-10.63,1-21.511,1.54-32.02-0.72c-7.56-0.46-15.35,0.91-22.07,4.48
	C72.5,49.42,70.54,52.95,67.07,54.4z"/>
<path fill="#000005" d="M80.56,47.66c5.9-1.99,12.22-1.42,18.33-1.4c-0.24,0.67-0.48,1.35-0.72,2.021c1.82,1.89,1.82,4.5,1.49,6.93
	c-0.54-2.96-1.25-6.14-3.77-8.09c-4.28-0.58-8.63,0.02-12.87,0.69c-4.89,1.03-8.56,4.61-12.16,7.82
	C72.54,51.56,76.72,49.31,80.56,47.66z"/>
<path fill="#000005" d="M121.59,47.66c3.721-1.22,7.439,0.18,10.58,2.17c1.98,0.96,2.13,3.43,2.721,5.29
	c-1.57-1.47-1.891-4.05-4.021-4.91c-1.899-0.88-3.74-2.12-5.86-2.36c-3.98,0.71-7.96,1.55-12.029,1.6
	C115.439,47.68,118.79,48.51,121.59,47.66z"/>
<path fill="#000005" d="M115.189,58.48c0.201-2.49-1.219-7.47,2.66-7.5c-0.369,0.36-1.119,1.06-1.49,1.41
	C116.061,54.43,115.9,56.52,115.189,58.48z"/>
<path fill="#080809" d="M71.19,61.23c3.8-7.06,12.94-7.74,19.99-6.68c3.69,0.41,6.53,2.9,9.44,4.94c0.32,0.52,0.96,1.56,1.28,2.07
	c-0.812,2.18-2.73,3.86-5.021,4.32c-3.44-0.93-6.35-3.33-9.92-3.84c-3.65-0.43-7.39-0.2-10.89,0.95
	C74.21,63.85,72.5,62.33,71.19,61.23 M89.02,56.67c-0.32,1.14-0.67,2.27-1.06,3.39c3.61-0.25,6.34,2.45,9.68,3.29
	c0.25-0.54,0.74-1.6,0.98-2.14c-2.12-1.66-4.43-3.08-6.94-4.08C91.01,57.02,89.68,56.79,89.02,56.67 M74.71,60.14
	c0.68,1.33,3.48,0.77,4.09-0.48C78.5,57.61,75.15,58.59,74.71,60.14z"/>
<path fill="#F26BEA" d="M11.85,56.07c2.41,0.31,5.76-0.79,7.31,1.69c1.76,2.31,1.5,5.29,1.09,7.98c0.93,1.75,3.61,3.26,2.95,5.37
	c-4.78-0.95-9.65-0.51-14.48-0.88c-0.08-1.72-0.15-3.43-0.21-5.15C11.92,63.26,10.91,59.22,11.85,56.07 M14.08,57.48
	c-0.26,1.07-0.51,2.14-0.76,3.21c0.99,0.79,1.98,1.57,2.95,2.39c-0.52,0.35-1.55,1.04-2.07,1.39l-1.14-0.76
	c-1.96,1.04-2.28,3.11-2.18,5.15c2.89-0.04,5.78-0.14,8.66-0.32C17.65,64.78,19.39,58.66,14.08,57.48z"/>
<path fill="#FDFBFE" d="M89.02,56.67c0.66,0.12,1.99,0.35,2.66,0.46c2.51,1,4.82,2.42,6.94,4.08c-0.24,0.54-0.73,1.6-0.98,2.14
	c-3.34-0.84-6.07-3.54-9.68-3.29C88.35,58.94,88.7,57.81,89.02,56.67z"/>
<path fill="#FFFBFF" d="M14.08,57.48c5.31,1.18,3.57,7.3,5.46,11.06c-2.88,0.18-5.77,0.28-8.66,0.32c-0.1-2.04,0.22-4.11,2.18-5.15
	l1.14,0.76c1.05,1.57,4.17-0.1,2.07-1.39c-0.97-0.82-1.96-1.6-2.95-2.39C13.57,59.62,13.82,58.55,14.08,57.48z"/>
<path fill="#905089" d="M50.9,58.63l0.81,0.06c3.5,0.22,7.44,0.17,9.92,3.09c-3.1,0.188-6.23,0.39-9.32,0
	C51.31,61.03,51.2,59.74,50.9,58.63z"/>
<path fill="#070B0A" d="M114.1,62.22c3.142-5.01,9.58-5.37,14.892-5.08c2.118-0.13,3.67,1.57,5.079,2.9
	c0.131,1.77-1.75,2.4-3.199,2.47c-5,0.14-10.21,0.25-14.762,2.61c0,1.6,0.012,3.19,0,4.79c2.592,1.29,4.802,3.16,7.23,4.71
	c1.939,3.2,6.27,2.87,8.471,5.76c-2.541-0.71-4.899-1.92-7.25-3.09c-0.381,0.5-1.141,1.5-1.521,2c-0.44-0.4-1.319-1.2-1.761-1.61
	c-2.021,2.77-4.271,6.75-8.309,6.19c-2.392,0.23-4.382-2.72-1.611-3.97c2.931,4.26,6.351-1.81,8.341-3.97
	c-0.82-1.45-1.95-2.6-3.681-2.75c-2.67-1.92-2.539-5.01-2.09-7.94c-1.681-0.7-3.32-1.47-4.939-2.3c0.34-0.46,1.02-1.36,1.359-1.81
	C111.6,61.47,112.85,61.84,114.1,62.22 M123.641,59.49c1.92,1.24,4.449,0.89,6.521,0.18C128,59.37,125.811,59.32,123.641,59.49z"/>
<path fill="#050305" d="M64.56,60.39c1.64-0.37,3.3-0.73,4.92-1.19c-0.21,1.67-0.02,3.34,0.28,4.99c-0.22-0.61-0.66-1.85-0.88-2.46
	C67.22,61.92,65.52,62.03,64.56,60.39z"/>
<path fill="#FEFEFE" d="M74.71,60.14c0.44-1.55,3.79-2.53,4.09-0.48C78.19,60.91,75.39,61.47,74.71,60.14z"/>
<path fill="#F7FFF8" d="M123.641,59.49c2.17-0.17,4.359-0.12,6.521,0.18C128.09,60.38,125.561,60.73,123.641,59.49z"/>
<path fill="#EA6DDE" d="M185.32,62.3c2.02-2.01,4.869-3.26,7.74-2.54c0.1,0.76,0.289,2.3,0.39,3.07c2.94,0.13,5.85,1.64,5.7,5
	c-5.25,3.05-11.102,5.15-17.07,6.18C181.779,69.84,183.68,66,185.32,62.3 M184.18,71.32c4.59-0.91,8.93-2.71,13.19-4.59
	c-1.81-2.56-4.86-1.05-7.37-0.86c-1.29-1.34,1.23-2.17,1.779-3.21c-0.26-0.42-0.779-1.26-1.039-1.68
	C186.23,62.49,185.26,67.28,184.18,71.32z"/>
<path fill="#FAFFFB" d="M184.18,71.32c1.08-4.04,2.051-8.83,6.562-10.34c0.26,0.42,0.778,1.26,1.038,1.68
	c-0.549,1.04-3.068,1.87-1.778,3.21c2.51-0.19,5.562-1.7,7.37,0.86C193.109,68.61,188.77,70.41,184.18,71.32z"/>
<path fill="#B87BBC" d="M16.27,63.08c2.1,1.29-1.02,2.96-2.07,1.39C14.72,64.12,15.75,63.43,16.27,63.08z"/>
<path d="M48.64,70.97c1.48-2.92,3.18-6.13,6.42-7.39c2.74-0.63,5.58-0.3,8.36-0.22c2.56,1.88,5.76,2.48,8.63,3.75
	c4.44,1.7,8.8-0.99,12.04-3.85c0.56,0.3,1.67,0.88,2.23,1.18c-2.82,2.73-6.19,5.69-10.39,5.47c-5.35,0.35-10.09-2.64-14.93-4.36
	c-5.27-1.28-9.96,3.35-10.06,8.42c0.01,2.36,2.44,4.29,1.75,6.65c-1.59,1.1-2.4-0.89-3.02-2.05C48.47,76.21,48.67,73.53,48.64,70.97
	z"/>
<path fill="#000005" d="M142.87,64.14c0.649,0,1.95,0.01,2.601,0.01c3.659,1.57,3.659,5.78,3.659,9.19
	c-0.67,1.87-2.54,3.16-4.36,3.83c1.82-2.15,4.371-4.19,3.631-7.36C148.689,66.48,145.24,65.37,142.87,64.14z"/>
<path d="M131.5,69.95c2.15-1.2,3.71-3.8,6.439-3.64c2.811-0.26,7.069-0.32,8.121,2.82c-0.102,2.99-3.11,0.37-4.131-0.55
	c-2.16-0.08-4.32,0.16-6.32,1c-0.09,0.69-0.25,2.07-0.34,2.76c-2.979,0.07-6.359,0.16-8.74-1.94c-0.289-0.91-0.109-1.71,0.541-2.39
	C128.58,68.57,130,69.35,131.5,69.95z"/>
<path fill="#030203" d="M59.93,67.91c1.95-1.57,2.19,1.49,2.4,2.73c7.25,3.26,14.26,7.26,22.12,8.91
	c11.6,3.86,23.729,6.84,36.04,6.11c6.01-0.67,11.99-2.67,16.34-7.05c0.65-2.61,0.811-5.3,1.17-7.95c2.439,0.32,1.95,2.82,2.01,4.6
	c0.41,0.19,1.221,0.56,1.631,0.75c1.5,6.46,1.569,13.14,1,19.72c-0.83,3.83-1.939,8.41-5.83,10.25
	c-5.109,2.48-10.92,2.43-16.42,3.24c-9.131,0.64-18.311,0.062-27.291-1.65C81.3,104.7,70.56,97.27,64.02,87
	c-1.53-2.07-2.4-4.78-4.72-6.14c0.27-1.72,0.25-3.56-1.15-4.82c-1.83,0.33-5.32,1.54-5.23-1.56c2.04-0.31,4.04-0.9,5.94-1.71
	C59.19,71.14,59.48,69.51,59.93,67.91 M60.81,72.65c-0.39,2.48,0.9,4.66,1.84,6.84c3.54,1.45,6.81,3.49,10.38,4.87
	c-0.52-2.03-0.63-4.11-0.64-6.19C68.41,76.57,64.73,74.36,60.81,72.65 M138.46,79.34c-0.87,0.96,0.181,3.42,1.58,2.69
	C141.04,81.04,139.859,78.63,138.46,79.34 M74.6,79.21c-0.27,2.98,1.89,5.03,3.78,6.96c3.77,0.17,6.95,2.44,10.49,3.46
	c0.5-1.87,0.68-3.8,1.25-5.64C85.05,82.08,79.71,81,74.6,79.21 M135.92,81.44c-0.42,2.94,0.23,5.88,0.18,8.83
	c0.84-0.82,2.9-0.87,2.791-2.38C138.17,85.64,137.71,83.14,135.92,81.44 M140.21,83.25C140.76,83.79,140.76,83.79,140.21,83.25
	 M64.68,83.62c2.22,3.24,4.5,6.46,7.19,9.33c1.94-1.4,0.87-3.78,0.77-5.69C70.06,85.89,67.46,84.54,64.68,83.62 M92.36,85.24
	c-0.51,1.75-0.78,3.57-1.31,5.32c4.64,0.83,9.11,2.48,13.91,1.85c-0.16-1.65,0.03-3.37-0.41-4.98c-2.409-0.91-5.1-0.85-7.57-1.59
	C95.46,85.56,93.91,84.64,92.36,85.24 M128.79,86.3c0.47,1.8,1.5,3.6,0.81,5.5c0.17,0.01,0.53,0.04,0.7,0.06
	c0.74-0.22,2.2-0.65,2.931-0.86c0.799-2.14,1-4.43,0.17-6.6C131.859,85.03,130.33,85.68,128.79,86.3 M107.109,87.13
	c-0.069,1.79-0.109,3.58-0.149,5.38c2.69-0.14,5.38-0.06,8.08-0.09c0.239-0.43,0.72-1.29,0.96-1.72c-0.33-0.66-0.99-1.98-1.32-2.64
	C112.109,88.25,109.609,87.64,107.109,87.13 M117.471,88.01c0.34,1.49,0.521,3.01,0.659,4.53c2.24-0.12,4.53,0.02,6.71-0.58
	c0.74,0.03,2.221,0.09,2.95,0.11c-0.55-1.66-0.92-3.38-1.19-5.12C123.609,87.63,120.55,88.12,117.471,88.01 M75.02,88.55
	c0.14,0.96,0.42,2.88,0.55,3.84c-0.73,0.77-1.47,1.53-2.2,2.3c3.87,2.49,7.58,5.23,11.5,7.65c0.87-1.99,1.6-4.08,3-5.78
	c-0.26-1.04,0.43-2.81-0.9-3.25C82.73,92.44,78.98,90.19,75.02,88.55 M89.98,94c0.01,1.31,0.01,2.62,0.01,3.93
	c-1.17,1.6-2.06,3.37-2.83,5.18c4.83,1.81,9.84,2.88,14.949,3.5c0.061-2.87,0.141-5.74,0.149-8.6c-1.55-0.58-3.19-0.87-4.77-1.35
	C94.89,96.07,92.46,94.93,89.98,94 M134.13,103.23c-0.34-1.53,2.5-6.08-0.899-4.27c-0.84,2.2-1.891,4.31-2.801,6.48
	c2.59-0.78,5.471-1.16,7.6-2.97c0.512-2.229,1.531-4.33,1.762-6.63C138.04,98.42,137.2,101.82,134.13,103.23 M104.62,98.32
	c0,2.85,0.069,5.7-0.33,8.54c2.92,0.14,5.851,0.1,8.771,0.15c0.181-0.61,0.549-1.84,0.729-2.46c0.03-1.7,0.479-3.34,0.84-4.99
	C111.221,99.94,107.859,99.37,104.62,98.32 M126.05,100.06c-0.14,0.61-0.42,1.83-0.56,2.44c-0.49,1.17-1.03,2.33-1.561,3.5
	c1.159,1.13,3.131-0.23,4.6-0.1c-1.639-2.17,1.371-4.36,1.99-6.42C129.029,99.68,127.54,99.88,126.05,100.06 M117.35,100.3
	c-0.43,0.98-0.83,1.97-1.188,2.98c-0.149,1.25-0.33,2.49-0.53,3.74c1.521-0.01,3.051-0.01,4.58-0.01c1.551-2.14,2.7-4.52,3.512-7.03
	C121.6,100.11,119.46,100.07,117.35,100.3z"/>
<path fill="#000005" d="M90.5,72.09c0.34,0.01,1,0.04,1.34,0.06l-0.33,2.49c0.93-0.48,1.78-1.07,2.54-1.78
	c2.21-0.26,5.1-1.5,6.81,0.47c-1.27,2.11-4.1,1.23-6.12,1.76c0.05,0.73,0.17,2.18,0.22,2.9c0.53,0.79,2.89,1.57,1.62,2.65
	c-0.79,1.63-2.74-0.13-3.63-0.83c-0.71-1.72-0.19-3.93-1.85-5.22c-3.27,1.42-6.97,0.67-10.44,0.8c3.23-1.71,7.2,0.32,10.53-1.37
	C91.02,73.54,90.67,72.57,90.5,72.09z"/>
<path fill="#FDFAFC" d="M60.81,72.65c3.92,1.71,7.6,3.92,11.58,5.52c0.01,2.08,0.12,4.16,0.64,6.19c-3.57-1.38-6.84-3.42-10.38-4.87
	C61.71,77.31,60.42,75.13,60.81,72.65z"/>
<path fill="#CF89CA" d="M152.34,75.5c-0.76-1.36-0.57-2.27,0.6-2.73C153.71,74.11,153.51,75.03,152.34,75.5z"/>
<path fill="#000005" d="M97.79,76.86c3.23-0.1,8.2-1.47,9.851,2.29c-2.971,1.26-6.811-1.8-8.881,1.54
	C98.3,79.45,97.97,78.17,97.79,76.86z"/>
<path fill="#000005" d="M45.1,77.85c1.89,3.2,5.47,4.06,8.24,6.13C49.89,83.23,45.87,81.82,45.1,77.85z"/>
<path fill="#F7FFF8" d="M138.46,79.34c1.399-0.71,2.58,1.7,1.58,2.69C138.641,82.76,137.59,80.3,138.46,79.34z"/>
<path fill="#FCFBFB" d="M74.6,79.21c5.11,1.79,10.45,2.87,15.52,4.78c-0.57,1.84-0.75,3.77-1.25,5.64
	c-3.54-1.02-6.72-3.29-10.49-3.46C76.49,84.24,74.33,82.19,74.6,79.21z"/>
<path fill="#FEFEFE" d="M135.92,81.44c1.79,1.7,2.25,4.2,2.971,6.45c0.109,1.51-1.951,1.56-2.791,2.38
	C136.15,87.32,135.5,84.38,135.92,81.44z"/>
<path fill="#777777" d="M140.21,83.25C140.76,83.79,140.76,83.79,140.21,83.25z"/>
<path fill="#FFFDFF" d="M64.68,83.62c2.78,0.92,5.38,2.27,7.96,3.64c0.1,1.91,1.17,4.29-0.77,5.69
	C69.18,90.08,66.9,86.86,64.68,83.62z"/>
<path fill="#FDFEFE" d="M92.36,85.24c1.55-0.6,3.1,0.32,4.62,0.6c2.47,0.74,5.161,0.68,7.57,1.59c0.44,1.61,0.25,3.33,0.41,4.98
	c-4.8,0.63-9.27-1.02-13.91-1.85C91.58,88.81,91.85,86.99,92.36,85.24z"/>
<path fill="#FFFFFF" d="M128.79,86.3c1.54-0.62,3.069-1.27,4.61-1.9c0.83,2.17,0.629,4.46-0.17,6.6c-0.73,0.21-2.19,0.64-2.932,0.86
	c-0.17-0.02-0.529-0.05-0.699-0.06C130.29,89.9,129.26,88.1,128.79,86.3z"/>
<path fill="#EA6DDE" d="M2.88,87.21C6,87.5,8.99,88.5,11.96,89.43C9.1,88.76,4.5,90.38,2.88,87.21z"/>
<path fill="#FFFFFF" d="M107.109,87.13c2.5,0.51,5,1.12,7.57,0.93c0.329,0.66,0.989,1.98,1.319,2.64
	c-0.24,0.43-0.722,1.29-0.96,1.72c-2.7,0.03-5.391-0.05-8.08,0.09C107,90.71,107.04,88.92,107.109,87.13z"/>
<path fill="#FFFFFF" d="M117.471,88.01c3.079,0.11,6.139-0.38,9.129-1.06c0.271,1.74,0.642,3.46,1.19,5.12
	c-0.729-0.02-2.21-0.08-2.95-0.11c-2.18,0.6-4.47,0.46-6.71,0.58C117.99,91.02,117.811,89.5,117.471,88.01z"/>
<path fill="#FDFDFD" d="M75.02,88.55c3.96,1.64,7.71,3.89,11.95,4.76c1.33,0.44,0.64,2.21,0.9,3.25c-1.4,1.7-2.13,3.79-3,5.78
	c-3.92-2.42-7.63-5.16-11.5-7.65c0.73-0.77,1.47-1.53,2.2-2.3C75.44,91.43,75.16,89.51,75.02,88.55z"/>
<path fill="#FDFDFD" d="M89.98,94c2.48,0.93,4.91,2.07,7.51,2.66c1.58,0.48,3.22,0.77,4.77,1.35c-0.01,2.86-0.09,5.73-0.15,8.6
	c-5.108-0.62-10.118-1.69-14.948-3.5c0.77-1.81,1.66-3.58,2.83-5.18C89.99,96.62,89.99,95.31,89.98,94z"/>
<path fill="#905089" d="M190.73,96.78c1.51-0.51,3.02-1.67,4.629-0.68c-3.729,0.74-7.26,2.16-10.75,3.63
	C186.01,97.69,188.66,97.7,190.73,96.78z"/>
<path fill="#FFFFFF" d="M134.13,103.23c3.07-1.41,3.91-4.81,5.66-7.39c-0.229,2.3-1.25,4.4-1.761,6.63
	c-2.129,1.812-5.01,2.19-7.6,2.97c0.909-2.17,1.961-4.28,2.801-6.48C136.63,97.15,133.79,101.7,134.13,103.23z"/>
<path fill="#FEFEFE" d="M104.62,98.32c3.239,1.05,6.601,1.62,10.01,1.24c-0.36,1.65-0.81,3.29-0.84,4.99
	c-0.181,0.62-0.55,1.85-0.729,2.46c-2.92-0.05-5.851-0.01-8.771-0.15C104.689,104.02,104.62,101.17,104.62,98.32z"/>
<path fill="#FFFFFF" d="M126.05,100.06c1.49-0.18,2.979-0.38,4.47-0.58c-0.619,2.06-3.629,4.25-1.99,6.42
	c-1.469-0.13-3.438,1.23-4.6,0.1c0.53-1.17,1.07-2.33,1.562-3.5C125.63,101.89,125.91,100.67,126.05,100.06z"/>
<path fill="#9D3D9F" d="M145.29,99.29C145.8,99.79,145.8,99.79,145.29,99.29z"/>
<path fill="#DBAADB" d="M182.15,99.24c1.66-0.64,2.22-0.15,1.66,1.479C182.141,101.36,181.59,100.87,182.15,99.24z"/>
<path fill="#FCFCFC" d="M117.35,100.3c2.11-0.23,4.25-0.19,6.371-0.32c-0.811,2.51-1.961,4.89-3.511,7.03c-1.53,0-3.06,0-4.58,0.01
	c0.2-1.25,0.38-2.49,0.53-3.74C116.52,102.27,116.92,101.28,117.35,100.3z"/>
<path fill="#000005" d="M63.99,103.15c0.31-0.17,0.92-0.5,1.22-0.66c11.67,7.2,24.59,12.54,38.24,14.39
	c-1.21-1.22-2.67-2.03-4.39-2.43c3.99-0.181,7.92,1.11,11.94,0.819c6.21-0.351,12.51,0.541,18.66-0.619
	c3.55-0.66,6.07-3.352,8.71-5.582c-1.511,4.23-6.06,6.47-10.33,6.64c-8.55,0.41-17.12-0.061-25.67-0.01
	c4.17,3.279,9.7,2.408,14.62,2.88c5.6,0.79,11.3,0.88,16.93,0.399c3.13-0.92,5.76-2.989,8.58-4.569
	c0.391-1.562,0.779-3.12,1.21-4.66c0.03,1.649,0.03,3.3,0.03,4.95c-2.7,1.64-5.23,3.619-8.18,4.77
	c-6.472,1.021-13.09,0.672-19.562-0.17c-9.181-0.158-18.02-2.96-26.98-4.658C80.19,112,72.09,107.47,63.99,103.15z"/>
<path fill="#000005" d="M70.82,102.25c4.31,1.45,8.09,4.05,12.24,5.85c4.49,2.15,9.37,3.339,13.88,5.4l0.01,0.37
	c-8.74-2.04-17.4-6.01-25.3-10.58C71.45,103.03,71.03,102.51,70.82,102.25z"/>
<path fill="#F48FEC" d="M62.62,103.84l1.37-0.69c8.1,4.32,16.2,8.85,25.03,11.491c-0.16,0.75-0.5,2.25-0.66,3
	C79.66,113.311,69.9,110.59,62.62,103.84z"/>
<path fill="#EB6DE9" d="M56.76,111.53c1.08-1.92,2.15-3.84,3.3-5.71c2.47,1.72,5.02,3.33,7.65,4.821
	c-0.48,2.771-0.87,5.561-0.92,8.379c-4.98-1.27-10.08,1-14.29,3.521C53.35,118.65,55.81,115.38,56.76,111.53z"/>
<path fill="#EB6DEA" d="M187.221,110.72c2.039-0.29,4.109-0.04,6.159-0.02c0.22,1.43,0.431,2.85,0.66,4.28
	c-3.181,3.528-7.351,5.879-11.72,7.59c-1.44,2.359,2.5,6.38-0.641,8.26c-1.91,1.74-4.539,0.64-6.801,0.58
	c-2.01,0.55-4.021,1.16-6.102,1.42c-2.799-3.7-1.52-8.87,1.211-12.24C177.12,120.23,181.141,113.41,187.221,110.72 M187.04,113.2
	c-4.79,3.819-9.45,8.78-16,9.03c-0.75,2.92-1.96,5.988-0.66,8.959c1.63-1.029,2.75-2.601,3.71-4.239c0.7,0.02,2.11,0.04,2.82,0.06
	c0.38,1.141,0.77,2.29,1.17,3.43c2.22-0.908,2.26-3.09,1.59-5.068c-0.641-0.84-2.84-1.28-1.99-2.602
	c4.391-3.438,10.66-4.188,13.73-9.31C189.95,113.37,188.5,113.28,187.04,113.2z"/>
<path fill="#703A6B" d="M103.82,111.689c6.63,0.141,13.3-0.33,19.9,0.211l0.85,0.97c-6.87,0.25-13.74,0.09-20.61,0.1L103.82,111.689
	z"/>
<path fill="#F7FFF8" d="M187.04,113.2c1.46,0.08,2.91,0.17,4.37,0.26c-3.07,5.12-9.34,5.87-13.73,9.31
	c-0.85,1.32,1.35,1.762,1.99,2.602c0.67,1.979,0.63,4.16-1.59,5.068c-0.4-1.14-0.79-2.289-1.17-3.43c-0.71-0.02-2.12-0.04-2.82-0.06
	c-0.96,1.64-2.08,3.21-3.71,4.239c-1.3-2.971-0.09-6.039,0.66-8.959C177.59,121.98,182.25,117.02,187.04,113.2z"/>
<path fill="#FB0200" d="M52.5,122.54c4.21-2.521,9.31-4.79,14.29-3.521c0.21,0.561,0.65,1.689,0.86,2.261
	c-4.73,0.04-9.56,0.64-13.77,2.95l-1.92,0.89C52.09,124.47,52.36,123.189,52.5,122.54z"/>
<path fill="#FFFE0C" d="M53.88,124.23c4.21-2.312,9.04-2.91,13.77-2.95c-0.01,0.45-0.03,1.34-0.04,1.78
	c-4.33,0.83-9.81,1.549-12.08,5.879l-0.49,0.279c-0.44-0.01-1.33-0.039-1.78-0.05c-0.25-0.67-0.77-2-1.03-2.66
	C52.64,125.939,53.47,124.8,53.88,124.23z"/>
<path fill="#3CE823" d="M55.53,128.939c2.27-4.33,7.75-5.049,12.08-5.879c0.13,0.488,0.38,1.47,0.51,1.959
	c-4.22,0.949-8.39,2.109-12.37,3.83L55.53,128.939z"/>
<path fill="#FFFFFF" d="M79.39,128.99c0.83-2.4,2.16-4.57,3.69-6.59c1.34,1.13,2.84,2.22,3.13,4.08c-0.89,0.76-1.77,1.539-2.65,2.33
	C82.17,128.87,80.78,128.93,79.39,128.99z"/>
<path fill="#16F6FF" d="M55.75,128.85c3.98-1.72,8.15-2.879,12.37-3.83c0.02,0.682,0.06,2.051,0.08,2.73
	c-5.57,0.54-10.81,2.78-14.82,6.71l-1.02,0.22c1.33-1.81,2.78-3.52,4.16-5.289L55.75,128.85z"/>
<path fill="#FAFF4B" d="M51.83,126.52l0.4-0.01c0.26,0.66,0.78,1.99,1.03,2.66c-0.34,0.17-1.02,0.52-1.36,0.689
	C51.88,129.02,51.85,127.35,51.83,126.52z"/>
<path fill="#0901FD" d="M53.38,134.46c4.01-3.93,9.25-6.17,14.82-6.71c0.21,0.88,0.43,1.76,0.67,2.63
	c-5.58,1.83-12.51,4.08-14.42,10.31c-0.25-0.379-0.74-1.129-0.99-1.5C53.43,137.609,53.4,136.03,53.38,134.46z"/>
<path fill="#13E46E" d="M55.04,129.22l0.49-0.28l0.22-0.09l0.77,0.541c-1.38,1.771-2.83,3.479-4.16,5.289l-0.05,0.051
	c-0.2-0.479-0.61-1.449-0.81-1.939C52.74,131.66,53.86,130.41,55.04,129.22z"/>
<path fill="#FFFFFF" d="M36.29,133.7c1.05-2.351,3.05-4.021,5.57-2.42c3.41,3.56-0.05,9.6-4.79,9.229
	C37.21,138.2,37.1,135.891,36.29,133.7z"/>
<path fill="#EA6DE8" d="M54.45,140.689c1.91-6.229,8.84-8.479,14.42-10.311c1.97,6.271,1.24,12.99-0.97,19.08
	c-2.58-0.398-5.19-0.771-7.57-1.891C57.95,145.689,55.1,143.9,54.45,140.689z"/>
<path fill="#FEFEFE" d="M31.88,135.561c0.65-0.721,1.29-1.431,1.93-2.149c0.22,1.948,0.87,3.8,1.3,5.71
	C34.03,137.939,32.98,136.72,31.88,135.561z"/>
<path fill="#FFFFFF" d="M29.38,136.62c0.45,0.41,1.36,1.21,1.81,1.62c0.16,0.438,0.47,1.34,0.63,1.779
	c1.67,0.541,3.69,1.851,2.9,3.931c-1.19,2.5-4.07,3.8-6.72,3.78c-3.13-1.25-2.98-5.541-1.01-7.762
	C27.84,138.891,28.64,137.78,29.38,136.62z"/>
<path fill="#FFFFFF" d="M78.47,147.88c-1.73-3.979,1.93-7.35,5.5-8.26c0.01,2.06,0,4.12,0,6.18
	C82.4,147.1,80.52,147.859,78.47,147.88z"/>
<path fill="#905089" d="M161.26,147.34c4.311,0.17,8,3.551,12.301,2.971c1.26,0.771,2.51,1.561,3.76,2.351
	c-0.041,0.528-0.109,1.569-0.141,2.09c-0.229-0.75-0.459-1.49-0.68-2.229c-2.21,0.739-3.79-1.301-5.83-1.609
	C167.33,150.33,164.279,148.83,161.26,147.34z"/>
<path fill="#FEFEFE" d="M28.79,164.01c2.67-0.029,5.33-0.01,8,0.061c-0.26,0.399-0.78,1.189-1.03,1.58
	C33.49,166.6,28.81,167.78,28.79,164.01z"/>
<path fill="#EA6DDE" d="M158.49,164.88c2.109,1.511,3.98,3.32,5.67,5.28C161.8,168.97,160.029,166.97,158.49,164.88z"/>
<path fill="#FEFEFE" d="M89.96,199.88c1.98,0.92,4.47,2,4.84,4.431c1.07,4.101,2.1,8.529,0.85,12.709
	c-0.38-3.27-1.29-6.42-2.12-9.59C92.96,204.609,90.61,202.65,89.96,199.88z"/>
</svg>
