<?xml version="1.0" encoding="utf-8"?>
<!-- Generator: Adobe Illustrator 15.0.2, SVG Export Plug-In . SVG Version: 6.00 Build 0)  -->
<!DOCTYPE svg PUBLIC "-//W3C//DTD SVG 1.1//EN" "http://www.w3.org/Graphics/SVG/1.1/DTD/svg11.dtd">
<svg version="1.1" id="Layer_1" xmlns="http://www.w3.org/2000/svg" xmlns:xlink="http://www.w3.org/1999/xlink" x="0px" y="0px"
	 width="120px" height="98px" viewBox="0 0 120 98" enable-background="new 0 0 120 98" xml:space="preserve">
<path fill="#FFFFFF" d="M0,0h120v98H84.1c-0.24-11.95,0.58-23.95-0.56-35.87c2.37,0.9,4.72,1.95,6.56,3.729
	c2.24,2.451,6.551,2.82,7.23,6.57c1.13,5.869,5.59,10.189,7.9,15.579c0.75,0,2.24,0,2.99,0c-3.23-3.13-4.632-7.5-7.32-11.02
	c-2.16-2.78-1.41-7.24-4.57-9.271c-4.58-1.899-7.95-5.76-12.641-7.479c-0.58-3.681-1.5-7.28-3.891-10.271
	c2.551-2.25,5.24-4.6,6.4-7.91c1.779-5.59,8.81-8.56,8.148-15.1c0.7-5.61-4.74-8.7-7.75-12.51c-2.18-5.22-4.789-11.271-10.49-13.39
	C62.4,0.8,48.41-0.14,34.96,3.21c-3.33,0.77-6.32,2.65-8.77,5c-2.15,1.83-1.66,4.99-2.41,7.46c-2.85,1.78-5.49,4.62-4.9,8.27
	c-0.86,4.65,2.45,8.28,3.49,12.53c1.16,6.48-0.16,13-0.63,19.47c-0.62,4.392,2.68,8.182,6.55,9.711
	c6.28,2.649,13.34,1.199,19.63-0.689c3.81-1.2,8-1.311,11.48-3.43c6.2-3.721,13.321-5.74,19.1-10.2c0.88,1.278,1.67,2.63,2.391,4.01
	c-3.511,2.142-6.791,5.101-11.25,4.44l-0.531,1.64c0.771,0.021,2.302,0.05,3.062,0.07c-1.899,1.85-3.93,3.59-6.188,5.01
	c-0.66-2.858,2.26-4.601,3.43-6.84c-3.381,0.04-4.37,3.56-5.939,5.87c-2.171,2.14-5.091,3.438-6.901,5.96
	c-2.31,3.319-6.31,5.569-7.04,9.84c0.46-0.188,1.37-0.562,1.83-0.75c3.92-4.479,7.28-9.688,12.49-12.82
	c1.34-1.05,3.131-0.5,4.66-0.979c2.41-1.69,4.62-3.66,6.85-5.591c2.041,0.051,4.08,0.189,6.102,0.5
	c-0.602,2.17-2.061,4.211-1.811,6.551c0.811-0.19,2.431-0.57,3.25-0.76C82.939,77.65,83,87.83,82.859,98H0V0 M13.12,15.95
	c-0.26,0.95-0.52,1.91-0.78,2.86c1.16,0.03,2.31,0.02,3.46-0.02C17.04,16.87,14.29,16.57,13.12,15.95z"/>
<path fill="#050505" d="M34.96,3.21C48.41-0.14,62.4,0.8,76.109,1.06c5.701,2.12,8.311,8.17,10.49,13.39
	c3.01,3.81,8.449,6.9,7.75,12.51c0.659,6.54-6.369,9.51-8.149,15.1c-1.16,3.31-3.851,5.66-6.4,7.91
	c2.39,2.99,3.31,6.591,3.89,10.271c4.69,1.72,8.062,5.579,12.642,7.479c3.16,2.03,2.41,6.49,4.569,9.271
	c2.689,3.52,4.091,7.89,7.32,11.02c-0.75,0-2.24,0-2.99,0c-2.311-5.39-6.771-9.71-7.899-15.579c-0.681-3.75-4.99-4.119-7.229-6.57
	c-1.84-1.779-4.189-2.829-6.561-3.729C84.68,74.05,83.859,86.05,84.1,98h-1.24C83,87.83,82.939,77.65,82.9,67.48
	c-0.82,0.188-2.44,0.568-3.25,0.76c-0.25-2.34,1.209-4.381,1.81-6.551c-2.021-0.311-4.06-0.449-6.101-0.5
	c-2.229,1.931-4.439,3.899-6.851,5.591c-1.528,0.479-3.319-0.07-4.659,0.979c-5.209,3.132-8.571,8.341-12.491,12.82
	c-0.46,0.188-1.37,0.562-1.83,0.75c0.73-4.271,4.73-6.521,7.04-9.84c1.81-2.521,4.73-3.82,6.902-5.96
	c1.568-2.312,2.559-5.83,5.938-5.87c-1.171,2.239-4.091,3.979-3.431,6.84c2.26-1.42,4.289-3.16,6.189-5.01
	c-0.76-0.021-2.29-0.052-3.061-0.07l0.531-1.64c4.459,0.658,7.738-2.301,11.25-4.44c-0.722-1.38-1.512-2.729-2.392-4.01
	c-5.779,4.46-12.899,6.479-19.1,10.2c-3.48,2.119-7.67,2.229-11.48,3.43c-6.29,1.891-13.35,3.34-19.63,0.689
	c-3.87-1.529-7.17-5.319-6.55-9.711c0.47-6.47,1.79-12.988,0.63-19.47c-1.04-4.25-4.35-7.88-3.49-12.53
	c-0.59-3.65,2.05-6.49,4.9-8.27c0.75-2.47,0.26-5.63,2.41-7.46C28.64,5.86,31.63,3.98,34.96,3.21 M53.03,2.16l-0.02,1.02
	c3.62,0.3,7.29-0.13,10.891,0.34c5.271,1.38,10.551,4.1,14.119,8.25c-5.39-4.34-11.799-8.46-19-8.17c-2.98-0.03-6.17,0.82-8.9-0.77
	c-3.2,0.17-6.4,0.42-9.6,0.59l0.01,1.2c-4.17-0.99-8.28,1-11.55,3.43c-1.25,1.03-2.99,1.98-3,3.84c-0.35,1.82,0.08,4.12-1.67,5.35
	c-1.97,1.76-4.25,3.78-4.08,6.7c-0.58,5.16,4.13,8.99,3.84,14.07c0.03,3.31-0.01,6.63,0.01,9.94c0.16,3.569-1.88,7.1-0.57,10.63
	c1.38,4.42,6.26,6.59,10.59,6.63c7.41,0.7,14.27-2.62,21.42-3.88c3.98-1.3,7.35-3.96,11.19-5.6c5.64-2.23,10.95-5.5,15.149-9.9
	c2.91-2.78,3.66-6.91,5.611-10.31c1.118-0.65,2.198-1.38,3.078-2.36l0.37-0.01c0.188-0.35,0.58-1.05,0.78-1.4
	c1.43-2.93,2.029-6.83-0.391-9.45l0.719-0.02c-0.479-0.44-1.459-1.32-1.938-1.76c-0.188,0.47-0.55,1.41-0.739,1.88
	c-0.42-1.67-1.74-2.74-3.119-3.59c-2.102,0.46-4.24,0.43-6.352,0.11c1.479-2.03,4.189-1.67,6.391-1.66
	C83.38,12.22,81.95,5.35,76.02,2.95C68.41,1.78,60.7,2.22,53.03,2.16 M78.27,59.71c1.07,0.69,3.881,0.09,2.82-1.61
	C80.141,57.189,77.83,58.51,78.27,59.71z"/>
<path fill="#FEFEFE" d="M53.03,2.16c7.67,0.06,15.38-0.38,22.99,0.79c5.932,2.4,7.36,9.27,10.25,14.31
	c-2.199-0.01-4.91-0.37-6.39,1.66c2.11,0.32,4.25,0.35,6.351-0.11c1.379,0.85,2.699,1.92,3.119,3.59
	c0.852,3.68,0.43,7.49-1.33,10.85c-2.84-1.78-1.49,2.91,0,0c0.631-0.02,1.892-0.07,2.53-0.09c-0.88,0.98-1.96,1.71-3.079,2.36
	c-1.951,3.4-2.701,7.53-5.611,10.31c-4.198,4.4-9.51,7.67-15.148,9.9c-3.84,1.64-7.21,4.3-11.19,5.6
	c-7.15,1.26-14.01,4.58-21.42,3.88c-4.33-0.04-9.21-2.21-10.59-6.63c-1.31-3.53,0.73-7.061,0.57-10.63
	c-0.02-3.31,0.02-6.63-0.01-9.94c0.29-5.08-4.42-8.91-3.84-14.07c-0.17-2.92,2.11-4.94,4.08-6.7c1.75-1.23,1.32-3.53,1.67-5.35
	c0.01-1.86,1.75-2.81,3-3.84c3.27-2.43,7.38-4.42,11.55-3.43l-0.01-1.2c3.2-0.17,6.4-0.42,9.6-0.59c2.73,1.59,5.92,0.74,8.9,0.77
	c7.202-0.29,13.61,3.83,19,8.17C74.45,7.62,69.17,4.9,63.9,3.52C60.3,3.05,56.63,3.48,53.01,3.18L53.03,2.16 M53.97,5.89
	c-5.83,1.66-11.93,0.63-17.86,0.27c-1.4-0.35-2.35,0.49-3.08,1.56c4.49-2.43,9.35,0.3,14.08-0.28c3.73,0.14,7.21-1.47,10.88-1.8
	c2.6,0.48,5.3,0.67,7.8,1.56c-0.12,0.36-0.36,1.08-0.479,1.44c-3.101-0.78-6.301-0.32-9.439-0.55c-0.21,1.68-0.41,3.37-0.6,5.05
	c0.59-1.34,1.08-2.74,1.88-3.97c3.75-1.23,7.75,0.12,11.531,0.62c0.609,1.49,2.471,2.86,4.149,2.46l-0.399,1.31l1.26-0.25
	l0.431,2.58c-0.12-0.82-0.37-2.45-0.49-3.27c0.47,0.38,1.431,1.13,1.91,1.51c-0.819-1.06-0.88-2.37-1.03-3.64
	c-0.99,0.13-2.99,0.39-3.99,0.53l1.41-2.89c-0.539,0.72-1.619,2.16-2.16,2.87c-0.648-1.16-0.35-2.47-0.18-3.7
	c-1.689,0.27-3.27,0.06-4.64-0.99C61.37,5.56,57.57,4.9,53.97,5.89 M33.29,11.32c-0.33,0.9-0.67,1.8-1.01,2.69
	c1.28-1.76,2.71-3.479,4.79-4.33c2.19-1.45,4.76,0.98,7.08-0.28c0.07,1.9,0.08,3.82,0.67,5.65c-0.59,0.52-1.17,1.05-1.76,1.58
	c-2.88-1.33-10.17-2.27-10.05,2.45c3.4,0.47,6.87,0.65,10.19,1.59c1.93,0.36,1.07,2.74,1.16,4.07c-3.68,2-6.24,5.5-10.27,6.96
	c2.37-0.57,4.6-1.83,7.12-1.14c1.18,1.32,2.34,2.67,3.75,3.76c1.74,0.2,4.22,0.02,3.43-2.44c-2.75,2.07-4.52-1.04-6.03-2.9
	c0.63-1.49,2.17-2.17,3.29-3.21c0.32-1.48,0.43-2.99,0.63-4.48c1.02-0.55,2.01-1.16,2.86-1.96c-1.62-0.25-3.21-0.63-4.76-1.13
	c0.45-0.58,0.9-1.15,1.34-1.73c-0.08-1.53-0.45-2.979-1.12-4.35c0.48-0.55,0.97-1.1,1.48-1.62l-1.59,0.35l-0.02-1.47
	C40.78,8.28,36.3,8.45,33.29,11.32 M54.11,17.95c-0.57,2.09,1.39,3.24,2.86,4.19c3.6-2.46,8-3.9,12.34-2.6
	c1.629,0.74,3.539,0.4,4.229-1.41C69.221,11.73,58.75,12.11,54.11,17.95 M74.37,17.22c0.13,0.89,0.069,1.74-0.021,2.63
	c1.121,0.24,3.09-0.48,3.351-1.72C76.91,17.32,75.45,16.96,74.37,17.22 M25.44,18.3c-0.9,0.84-1.8,1.67-2.73,2.48l1.5,0.729
	l0.81,2.28c-0.68-0.27-2.04-0.83-2.72-1.11l1.59,1.02c-2.2,1.86-0.14,3.86,0.75,5.54c0.23,1.06-0.68,3.21,1.28,2.92
	c-0.05-1.25-0.22-2.48-0.49-3.69c-0.93-0.87-2.87-2.45-1.55-3.81c0.61-0.96,1.64,0.17,2.38,0.35c1.49-1.53,4.8-2.16,5.9,0.33
	c-0.71,0.02-2.15,0.06-2.87,0.07c-2.44,6.73-3.3,14.39-0.84,21.23c1.79,4.5,7.32,4.718,11.42,5.089
	c6.35,1.17,12.78,0.221,19.08-0.699c7.89-1.97,14.979-7.1,19.159-14.09c1.561-2.63,3.75-5.04,3.801-8.27
	c1.96,0.32,3.449,1.68,4.08,3.53c4.98-2.94,1.89-12.42-3.87-12.26c-4.45-0.7-7.87,3.7-12.33,2.82c-2.33-0.09-3.351-3.26-5.86-2.52
	c1.631,3.9,6.49,5.51,10.301,4.01c2.959-0.68,5.58-3.64,8.789-2.35c2.812,0.82,3.86,4.12,3.771,6.76
	c-1.682-0.8-3.521-1.32-5.08-2.36c-0.3-1.25-0.561-2.51-0.779-3.77c-2.83,4.28-8.039,5.68-12.449,7.74
	c-5.932,1.53-11.61,4.15-17.75,4.74c-1.4,0.91-0.34,3.74,0.95,4.37l0.24-2.51c2.61-0.66,5.25-1.2,7.89-1.72
	c0.18,0.87,0.56,2.62,0.75,3.49c-2.86,1.33-6.852,2.55-9.531,0.39c-1.77,1.78-4.34,0.979-6.56,1.07c0.36-0.74,1.09-2.22,1.45-2.96
	c1.02,1.09,2.89,0.35,2.91-0.99c-3.11-1.3-6.59-0.23-9.8-1.07c-3.93-1.01-8.55-3.31-8.74-7.97c0.56-0.52,1.12-1.04,1.69-1.55
	c1.89,1.61,6.37,0.87,5.7-2.29c-0.99,0.44-1.99,0.88-2.98,1.32c-2.55-2.92-6.54-2.74-10.03-2.03c0.52-0.59,1.56-1.75,2.08-2.33
	l-2.68,0.74c1.17-3.36,5.22-1.88,7.86-2.12L32,18.12C29.81,18.15,27.63,18.2,25.44,18.3 M54.98,27.93c1.23,0.24,2.46,0.47,3.69,0.72
	c-0.46,1.41-2.16,2.88-1.07,4.36c2.12-0.78,2.7-2.72,2.3-4.79c2.36,0.14,4.709,0.51,7.081,0.46c-1.689-0.43-3.439-0.42-5.16-0.47
	c-0.391-0.59-0.791-1.19-1.17-1.78C58.89,27.88,54.89,24.16,54.98,27.93 M49.9,30.82c1.29,0.83,2.74,0.55,4.12,0.19
	c0.51,0.23,1.55,0.69,2.06,0.91C57.5,28.08,51.45,28.74,49.9,30.82 M64.45,51.55c-2.341,1.181-5.05,1.65-7.19,3.19
	c2.92,1.9,6.25,1.25,9.28,0.04l-0.479-0.71c-0.891,0.02-2.66,0.07-3.551,0.09c3.69-2.6,8.9-3.38,11.631-7.2
	C70.6,47.75,67.779,50.22,64.45,51.55 M73.92,50.05c1.051,0.44,3.061-0.53,2.92-1.77C75.73,47.63,73.779,48.71,73.92,50.05
	 M72.391,50l-0.121,0.78l0.66,0.43c0.25-0.29,0.74-0.87,0.99-1.16C73.54,50.03,72.77,50.01,72.391,50 M66.18,53.32l-0.119,0.75
	c2.239-0.711,4.449-1.7,6.209-3.29C70.13,51.37,68.41,52.96,66.18,53.32 M46.22,56.22c-3.39-0.188-6.82,0.312-10.17-0.3
	c-2.36-0.46-4.04-2.311-5.92-3.64C33.23,57.641,41.09,57.54,46.22,56.22 M27.24,52.97c0.08,1.16,0.17,2.32,0.27,3.48
	c2.01,1.21,3.92,3.14,6.46,2.78c8.73,0.318,17.38-0.74,25.87-2.682c-6.62-2.42-13.94-2.199-20.89-2.08
	c4.06,0.03,8.05,0.801,12.1,0.82c1.64,0.189,4.06-0.42,4.96,1.43c-6.53,1.801-13.34,1.922-20.07,2.16
	C32.16,59.18,27.44,57.28,27.24,52.97z"/>
<path fill="#050505" d="M53.97,5.89c3.6-0.99,7.4-0.33,10.98,0.42c1.37,1.05,2.95,1.26,4.64,0.99c-0.17,1.23-0.47,2.54,0.18,3.7
	c0.541-0.71,1.621-2.15,2.16-2.87l-1.41,2.89c1-0.14,3-0.4,3.99-0.53c0.15,1.27,0.211,2.58,1.03,3.64
	c-0.479-0.38-1.44-1.13-1.91-1.51l-0.21-0.44L73,11.93c-0.52-0.45-0.52-0.45,0,0c0.16,0.17,0.471,0.52,0.63,0.69
	c0.12,0.82,0.37,2.45,0.49,3.27l-0.431-2.58l-1.26,0.25l0.399-1.31c-1.681,0.4-3.54-0.97-4.149-2.46C64.9,9.29,60.9,7.94,57.15,9.17
	c-0.8,1.23-1.29,2.63-1.88,3.97c0.19-1.68,0.39-3.37,0.6-5.05c3.14,0.23,6.34-0.23,9.44,0.55C65.43,8.28,65.67,7.56,65.79,7.2
	c-2.5-0.89-5.2-1.08-7.8-1.56c-3.67,0.33-7.15,1.94-10.88,1.8c-4.73,0.58-9.59-2.15-14.08,0.28c0.73-1.07,1.68-1.91,3.08-1.56
	C42.04,6.52,48.14,7.55,53.97,5.89 M67.37,8.37C67.66,8.66,67.66,8.66,67.37,8.37z"/>
<path fill="#040404" d="M33.29,11.32c3.01-2.87,7.49-3.04,11.18-1.94l0.02,1.47l1.59-0.35c-0.51,0.52-1,1.07-1.48,1.62
	c0.67,1.37,1.04,2.82,1.12,4.35c-0.44,0.58-0.89,1.15-1.34,1.73c1.55,0.5,3.14,0.88,4.76,1.13c-0.85,0.8-1.84,1.41-2.86,1.96
	c-0.2,1.49-0.31,3-0.63,4.48c-1.12,1.04-2.66,1.72-3.29,3.21c1.51,1.86,3.28,4.97,6.03,2.9c0.79,2.46-1.69,2.64-3.43,2.44
	c-1.41-1.09-2.57-2.44-3.75-3.76c-2.52-0.69-4.75,0.57-7.12,1.14c4.03-1.46,6.59-4.96,10.27-6.96c-0.09-1.33,0.77-3.71-1.16-4.07
	c-3.32-0.94-6.79-1.12-10.19-1.59c-0.12-4.72,7.17-3.78,10.05-2.45c0.59-0.53,1.17-1.06,1.76-1.58c-0.59-1.83-0.6-3.75-0.67-5.65
	c-2.32,1.26-4.89-1.17-7.08,0.28c-2.08,0.85-3.51,2.57-4.79,4.33C32.62,13.12,32.96,12.22,33.29,11.32 M36.18,17.31
	c-0.23,1.33,3.18,1.28,2.88-0.05C38.34,17.27,36.9,17.29,36.18,17.31z"/>
<path fill="#EEEEEE" d="M67.37,8.37C67.66,8.66,67.66,8.66,67.37,8.37z"/>
<path fill="#F3F3F3" d="M73,11.93C72.48,11.48,72.48,11.48,73,11.93z"/>
<path fill="#F8F8F8" d="M73,11.93l0.42,0.25l0.21,0.44C73.471,12.45,73.16,12.1,73,11.93z"/>
<path fill="#020202" d="M54.11,17.95c4.64-5.84,15.111-6.22,19.43,0.18c-0.69,1.81-2.601,2.15-4.229,1.41
	c-4.34-1.3-8.74,0.14-12.339,2.6C55.5,21.19,53.54,20.04,54.11,17.95 M56.23,19.78c2.24-0.54,4.32-1.54,6.491-2.29
	c-0.101-0.53-0.301-1.57-0.391-2.1C59.95,15.89,56.15,16.8,56.23,19.78 M69.221,16.57c-0.24,1.4,0.34,1.91,1.75,1.53
	C71.17,16.74,70.58,16.23,69.221,16.57z"/>
<path fill="#F8F8F8" d="M56.23,19.78c-0.08-2.98,3.72-3.89,6.1-4.39c0.09,0.53,0.29,1.57,0.391,2.1
	C60.55,18.24,58.47,19.24,56.23,19.78z"/>
<path fill="#E1E1E1" d="M13.12,15.95c1.17,0.62,3.92,0.92,2.68,2.84c-1.15,0.04-2.3,0.05-3.46,0.02
	C12.6,17.86,12.86,16.9,13.12,15.95z"/>
<path fill="#F8F8F8" d="M69.221,16.57c1.359-0.34,1.949,0.17,1.75,1.53C69.561,18.48,68.98,17.97,69.221,16.57z"/>
<path fill="#BDBDBD" d="M36.18,17.31c0.72-0.02,2.16-0.04,2.88-0.05C39.36,18.59,35.95,18.64,36.18,17.31z"/>
<path fill="#050505" d="M74.37,17.22c1.08-0.26,2.54,0.1,3.33,0.91c-0.261,1.24-2.229,1.96-3.351,1.72
	C74.439,18.96,74.5,18.11,74.37,17.22z"/>
<path fill="#020202" d="M25.44,18.3c2.19-0.1,4.37-0.15,6.56-0.18l-0.07,0.73c-2.64,0.24-6.69-1.24-7.86,2.12l2.68-0.74
	c-0.52,0.58-1.56,1.74-2.08,2.33c3.49-0.71,7.48-0.89,10.03,2.03c0.99-0.44,1.99-0.88,2.98-1.32c0.67,3.16-3.81,3.9-5.7,2.29
	c-0.57,0.51-1.13,1.03-1.69,1.55c0.19,4.66,4.81,6.96,8.74,7.97c3.21,0.84,6.69-0.23,9.8,1.07c-0.02,1.34-1.89,2.08-2.91,0.99
	c-0.36,0.74-1.09,2.22-1.45,2.96c2.22-0.09,4.79,0.71,6.56-1.07c2.68,2.16,6.67,0.938,9.531-0.39c-0.189-0.87-0.569-2.62-0.75-3.49
	c-2.64,0.52-5.28,1.06-7.89,1.72l-0.24,2.51c-1.29-0.63-2.35-3.46-0.95-4.37c6.14-0.59,11.82-3.21,17.75-4.74
	c4.41-2.06,9.619-3.46,12.449-7.74c0.221,1.26,0.48,2.52,0.78,3.77c1.56,1.04,3.399,1.56,5.08,2.36c0.09-2.64-0.96-5.94-3.771-6.76
	c-3.209-1.29-5.83,1.67-8.789,2.35c-3.812,1.5-8.67-0.11-10.301-4.01c2.51-0.74,3.529,2.43,5.859,2.52
	c4.46,0.88,7.88-3.52,12.33-2.82c5.76-0.16,8.852,9.32,3.869,12.26c-0.631-1.85-2.119-3.21-4.079-3.53
	c-0.052,3.23-2.24,5.64-3.802,8.27c-4.18,6.99-11.27,12.12-19.158,14.09c-6.3,0.92-12.73,1.87-19.08,0.7
	c-4.1-0.371-9.63-0.59-11.42-5.09c-2.46-6.84-1.6-14.5,0.84-21.23c0.72-0.01,2.16-0.05,2.87-0.07c-1.1-2.49-4.41-1.86-5.9-0.33
	c-0.74-0.18-1.77-1.31-2.38-0.35c-1.32,1.36,0.62,2.94,1.55,3.81c0.27,1.21,0.44,2.44,0.49,3.69c-1.96,0.29-1.05-1.86-1.28-2.92
	c-0.89-1.68-2.95-3.68-0.75-5.54l-1.59-1.02c0.68,0.28,2.04,0.84,2.72,1.11l-0.81-2.28l-1.5-0.729
	C23.64,19.97,24.54,19.14,25.44,18.3 M72.85,34.49c3.15-1.69,8.102-2.97,7.371-7.6C76.93,28.4,71.38,29.66,72.85,34.49 M61.57,34.16
	c0.14,1.31,0.33,2.6,0.59,3.89c3.63-1.34,8.92-1.81,9.49-6.61C68.18,31.95,64.95,33.32,61.57,34.16 M30.08,38.45
	c2.54-0.49,1.17-3.68,1.56-5.45C30.13,34.41,29.96,36.51,30.08,38.45 M72.68,36.79c-0.01,0.92-0.029,2.76-0.029,3.67
	c2.521-1.28,3.629-4.04,5.101-6.28C76.04,35.01,74.35,35.89,72.68,36.79 M33.03,34.91c0.03,1.53,0.1,3.07,0.23,4.6
	c0.55,0.021,1.66,0.06,2.21,0.08c0.2-1.23,0.4-2.45,0.59-3.68C35.05,35.56,34.04,35.23,33.03,34.91 M37.59,36.48
	c-0.04,0.85-0.13,2.55-0.17,3.4c1.96,0.13,3.93,0.25,5.89,0.32c-0.02-0.67-0.06-1.99-0.09-2.66C41.37,37.1,39.47,36.82,37.59,36.48
	 M63.05,41.01c-0.079,2.1,0.78,4.021,1.55,5.92c2.711-1.07,4.812-3.15,7.131-4.83c-0.33-1.44-0.649-2.88-0.951-4.32
	C68.35,39.18,65.82,40.44,63.05,41.01 M60.57,41.76c-1.92,1.33-4.41,1.26-6.36,2.41c-1.1,1.68-0.22,3.97-0.42,5.891
	c3.12-0.49,6.22-1.129,9.22-2.121C62.25,45.88,62.09,43.42,60.57,41.76 M29.41,43.43c-0.46,1.13-0.2,3.88,1.56,3.36
	C31.67,45.81,30.6,43.27,29.41,43.43 M32.44,48.53c0.73,0.17,2.19,0.53,2.93,0.71c-0.79-1.79-1.74-3.51-2.86-5.11
	C32.65,45.59,32.73,47.07,32.44,48.53 M45.59,45.64c0.32,1.58,0.66,3.15,1.02,4.73c1.78-0.011,3.55-0.05,5.32-0.14
	c-0.05-1.9-0.08-3.812-0.11-5.71C49.78,45.09,47.7,45.45,45.59,45.64 M35.34,45.33c0.82,1.92,1.52,4.2,3.7,4.97
	C39.09,47.77,38.44,44.92,35.34,45.33 M39.67,45.85c0.59,1.51,1.3,2.97,2.12,4.37c0.94,0.101,1.87,0.2,2.81,0.3
	c-0.2-1.52-0.07-3.14-0.73-4.56C42.56,45.37,41.05,45.79,39.67,45.85z"/>
<path fill="#898989" d="M90.09,20.52c0.48,0.44,1.46,1.32,1.939,1.76l-0.719,0.02c-0.281,3.13-0.852,6.46,0.39,9.45
	c-0.2,0.35-0.591,1.05-0.78,1.4l-0.37,0.01c-0.64,0.02-1.899,0.07-2.53,0.09c1.76-3.36,2.182-7.17,1.33-10.85
	C89.54,21.93,89.9,20.99,90.09,20.52z"/>
<path fill="#F9F9F9" d="M91.7,31.75c-1.24-2.99-0.671-6.32-0.39-9.45C93.73,24.92,93.13,28.82,91.7,31.75z"/>
<path fill="#050505" d="M54.98,27.93c-0.09-3.77,3.91-0.05,5.67-1.5c0.379,0.59,0.779,1.19,1.17,1.78c1.72,0.05,3.47,0.04,5.16,0.47
	c-2.371,0.05-4.722-0.32-7.082-0.46c0.4,2.07-0.18,4.01-2.3,4.79c-1.09-1.479,0.61-2.95,1.07-4.36
	C57.44,28.4,56.21,28.17,54.98,27.93z"/>
<path fill="#F8F8F8" d="M72.85,34.49c-1.47-4.83,4.08-6.09,7.371-7.6C80.95,31.52,76,32.8,72.85,34.49z"/>
<path fill="#050505" d="M49.9,30.82c1.55-2.08,7.6-2.74,6.18,1.1c-0.51-0.22-1.55-0.68-2.06-0.91
	C52.64,31.37,51.19,31.65,49.9,30.82z"/>
<path fill="#FEFEFE" d="M61.57,34.16c3.38-0.84,6.609-2.21,10.08-2.72c-0.57,4.8-5.86,5.27-9.49,6.61
	C61.9,36.76,61.71,35.47,61.57,34.16z"/>
<path fill="#F8F8F8" d="M30.08,38.45c-0.12-1.94,0.05-4.04,1.56-5.45C31.25,34.77,32.62,37.96,30.08,38.45z"/>
<path fill="#737373" d="M88.02,33.25C85.18,31.47,86.529,36.16,88.02,33.25z"/>
<path fill="#F9F9F9" d="M72.68,36.79c1.67-0.9,3.36-1.78,5.07-2.61c-1.471,2.24-2.58,5-5.1,6.28
	C72.65,39.55,72.67,37.71,72.68,36.79z"/>
<path fill="#F8F8F8" d="M33.03,34.91c1.01,0.32,2.02,0.65,3.03,1c-0.19,1.23-0.39,2.45-0.59,3.68c-0.55-0.02-1.66-0.06-2.21-0.08
	C33.13,37.98,33.06,36.44,33.03,34.91z"/>
<path fill="#F6F6F6" d="M37.59,36.48c1.88,0.34,3.78,0.62,5.63,1.06c0.03,0.67,0.07,1.99,0.09,2.66c-1.96-0.07-3.93-0.19-5.89-0.32
	C37.46,39.03,37.55,37.33,37.59,36.48z"/>
<path fill="#FDFDFD" d="M63.05,41.01c2.771-0.57,5.3-1.83,7.729-3.229c0.301,1.438,0.621,2.88,0.951,4.32
	c-2.32,1.68-4.42,3.76-7.131,4.83C63.83,45.03,62.971,43.11,63.05,41.01z"/>
<path fill="#FFFFFF" d="M60.57,41.76c1.52,1.66,1.68,4.12,2.438,6.18c-3,0.99-6.1,1.63-9.22,2.121c0.2-1.919-0.68-4.209,0.42-5.891
	C56.16,43.02,58.65,43.09,60.57,41.76z"/>
<path fill="#F8F8F8" d="M29.41,43.43c1.19-0.16,2.26,2.38,1.56,3.36C29.21,47.31,28.95,44.56,29.41,43.43z"/>
<path fill="#F8F8F8" d="M32.44,48.53c0.29-1.46,0.21-2.94,0.07-4.4c1.12,1.6,2.07,3.32,2.86,5.11
	C34.63,49.06,33.17,48.7,32.44,48.53z"/>
<path fill="#FDFDFD" d="M45.59,45.64c2.11-0.19,4.19-0.55,6.23-1.12c0.03,1.9,0.06,3.81,0.11,5.71c-1.77,0.09-3.54,0.129-5.32,0.14
	C46.25,48.79,45.91,47.22,45.59,45.64z"/>
<path fill="#F8F8F8" d="M35.34,45.33c3.1-0.41,3.75,2.44,3.7,4.97C36.86,49.53,36.16,47.25,35.34,45.33z"/>
<path fill="#F9F9F9" d="M39.67,45.85c1.38-0.06,2.89-0.48,4.2,0.11c0.66,1.42,0.53,3.04,0.73,4.56c-0.94-0.1-1.87-0.199-2.81-0.3
	C40.97,48.82,40.26,47.36,39.67,45.85z"/>
<path fill="#A3A3A3" d="M64.45,51.55c3.329-1.33,6.149-3.8,9.69-4.59c-2.73,3.82-7.94,4.601-11.632,7.2
	c0.892-0.02,2.66-0.07,3.552-0.09l0.479,0.71c-3.03,1.21-6.36,1.86-9.28-0.04C59.4,53.2,62.109,52.73,64.45,51.55z"/>
<path fill="#050505" d="M73.92,50.05c-0.141-1.34,1.811-2.42,2.92-1.77C76.98,49.52,74.971,50.49,73.92,50.05z"/>
<path fill="#818181" d="M72.391,50c0.379,0.01,1.149,0.03,1.529,0.05c-0.25,0.29-0.74,0.87-0.99,1.16l-0.66-0.43L72.391,50z"/>
<path fill="#050505" d="M66.18,53.32c2.23-0.36,3.95-1.95,6.09-2.54c-1.76,1.59-3.97,2.579-6.209,3.29L66.18,53.32z"/>
<path fill="#050505" d="M46.22,56.22c-5.13,1.32-12.99,1.421-16.09-3.938c1.88,1.328,3.56,3.18,5.92,3.64
	C39.4,56.53,42.83,56.03,46.22,56.22z"/>
<path fill="#050505" d="M27.24,52.97c0.2,4.312,4.92,6.21,8.7,5.91c6.73-0.239,13.54-0.36,20.07-2.16
	c-0.9-1.85-3.32-1.239-4.96-1.43c-4.05-0.021-8.04-0.79-12.1-0.82c6.95-0.12,14.27-0.34,20.89,2.08c-8.49,1.94-17.14,3-25.87,2.681
	c-2.54,0.359-4.45-1.569-6.46-2.779C27.41,55.29,27.32,54.13,27.24,52.97z"/>
<path fill="#F8F8F8" d="M78.27,59.71c-0.438-1.2,1.871-2.521,2.82-1.61C82.15,59.8,79.34,60.4,78.27,59.71z"/>
</svg>
