<?xml version="1.0" encoding="UTF-8" ?>
<!DOCTYPE svg PUBLIC "-//W3C//DTD SVG 1.1//EN" "http://www.w3.org/Graphics/SVG/1.1/DTD/svg11.dtd">
<svg width="251pt" height="204pt" viewBox="0 0 251 204" version="1.1" xmlns="http://www.w3.org/2000/svg">
<g id="#ffffffff">
<path fill="#ffffff" opacity="1.00" d=" M 0.00 0.00 L 251.00 0.00 L 251.00 204.00 L 0.00 204.00 L 0.00 0.00 M 64.52 12.74 C 61.56 13.04 58.27 12.62 55.72 14.46 C 44.35 21.16 36.98 32.73 31.64 44.47 C 29.21 52.62 21.27 56.91 15.88 62.93 C 5.61 71.82 2.11 88.56 10.17 99.96 C 15.62 108.92 26.00 114.44 28.95 124.88 C 33.62 135.58 43.20 142.76 51.01 151.04 C 58.65 155.10 66.52 158.94 73.46 164.18 C 89.53 167.77 102.70 178.36 118.05 183.73 C 136.33 185.99 153.36 194.85 172.00 194.88 C 186.58 195.70 202.82 193.55 213.74 182.92 C 216.82 179.24 220.79 175.25 220.23 170.03 C 219.88 151.33 216.71 132.74 217.70 114.00 C 217.72 103.49 227.91 96.48 228.52 86.06 C 228.53 79.82 228.34 73.57 228.07 67.34 C 225.53 59.62 216.16 57.15 213.08 49.74 C 211.15 44.76 213.71 37.88 208.91 34.19 C 202.03 28.62 194.53 23.65 186.53 19.87 C 146.53 11.18 105.25 11.00 64.52 12.74 Z" />
<path fill="#ffffff" opacity="1.00" d=" M 77.96 17.37 C 97.92 16.09 118.06 15.49 137.98 17.71 C 147.18 18.33 157.19 15.30 165.60 20.44 C 169.21 23.25 173.94 22.13 178.10 23.23 C 189.65 25.39 199.51 32.48 207.44 40.87 C 206.66 48.50 208.28 58.22 215.75 62.02 C 215.61 61.30 215.31 59.87 215.17 59.15 C 217.05 64.01 223.82 66.12 223.72 71.91 C 223.53 78.29 224.77 85.09 221.81 91.04 C 221.12 91.19 219.72 91.49 219.02 91.64 C 219.17 87.12 219.33 82.60 219.19 78.08 C 217.41 82.78 217.26 87.81 217.51 92.78 C 218.76 92.34 220.02 91.90 221.28 91.46 C 215.41 101.32 211.47 112.32 212.50 123.98 C 211.78 113.94 212.14 103.87 213.31 93.88 C 208.53 108.11 209.38 123.70 213.21 138.04 C 214.15 149.00 215.88 159.99 215.48 171.00 C 212.33 175.01 211.00 180.73 206.05 183.03 C 193.27 190.72 177.67 191.48 163.25 189.27 C 148.21 187.04 134.25 179.75 118.90 179.22 C 113.69 177.36 109.20 173.89 104.17 171.56 C 94.74 167.04 89.22 157.76 82.32 150.37 C 83.79 156.69 89.86 160.58 93.23 165.89 C 82.07 161.43 69.86 158.16 61.93 148.43 C 61.35 149.12 60.62 149.65 60.04 150.35 C 48.56 142.54 36.67 132.88 32.66 118.98 C 31.62 114.83 27.04 113.07 25.48 109.15 C 27.80 109.24 30.25 109.30 32.10 110.90 C 27.69 98.53 27.54 84.82 32.95 72.75 C 25.95 83.85 27.06 97.92 30.76 109.98 C 27.37 107.04 22.94 106.13 19.07 104.11 C 15.40 98.55 11.53 92.70 10.57 85.97 C 9.57 77.48 14.95 69.62 21.67 64.96 C 18.04 74.57 14.63 85.42 18.67 95.48 C 19.28 95.69 20.51 96.13 21.13 96.34 C 17.02 84.26 21.44 71.13 27.63 60.61 C 33.60 56.15 33.69 46.59 41.36 44.02 C 44.12 41.69 50.80 42.10 50.32 37.70 C 46.06 37.32 42.39 40.20 38.57 41.70 C 44.10 32.44 49.93 22.04 60.49 17.85 C 64.84 17.50 69.21 17.66 73.57 17.33 C 69.72 20.41 63.77 21.26 61.23 25.66 C 66.96 23.22 72.13 19.51 77.96 17.37 M 94.06 19.24 C 106.22 20.58 118.54 19.55 130.71 19.00 C 127.58 16.79 123.60 17.76 120.03 17.66 C 111.38 18.47 102.65 17.85 94.06 19.24 M 98.21 26.13 C 108.67 23.79 119.59 25.52 129.98 22.91 C 119.36 21.19 108.22 22.08 98.21 26.13 M 137.24 24.46 C 144.21 25.29 150.89 27.76 157.91 28.34 C 163.32 28.79 169.04 30.12 173.07 34.00 C 174.91 35.54 176.56 37.64 179.14 37.90 C 174.41 33.11 168.38 29.76 163.21 25.45 C 154.49 25.95 145.97 23.58 137.24 24.46 M 64.01 33.61 C 67.31 30.72 70.97 28.29 74.81 26.18 C 70.90 28.09 66.13 29.43 64.01 33.61 M 65.45 41.19 C 67.83 38.29 70.40 35.55 73.43 33.33 C 73.36 34.23 73.23 36.02 73.16 36.92 C 75.25 33.56 79.20 32.33 82.77 31.25 C 80.18 35.11 76.65 38.39 74.59 42.73 C 70.43 42.45 66.08 42.63 62.38 44.74 C 66.44 43.30 70.76 43.16 75.02 43.29 C 77.62 37.56 82.35 33.72 88.08 31.57 C 86.18 33.04 80.42 32.29 84.75 29.54 C 84.12 29.55 82.86 29.55 82.22 29.56 C 82.58 29.08 83.29 28.12 83.65 27.64 C 75.85 29.18 69.09 34.09 65.45 41.19 M 174.67 28.54 C 179.36 30.95 183.70 33.94 187.97 37.00 C 188.18 36.04 188.41 35.09 188.67 34.14 C 194.09 38.70 199.26 43.92 201.79 50.68 C 202.78 54.19 206.18 55.58 209.01 57.33 C 208.95 56.38 208.89 55.42 208.83 54.46 C 207.06 53.97 205.28 53.54 203.48 53.16 C 202.83 43.02 193.84 35.84 186.38 30.04 C 186.62 31.61 187.18 33.27 186.29 34.75 C 182.53 32.48 178.72 30.27 174.67 28.54 M 104.20 30.38 C 107.59 35.67 113.87 38.26 116.89 43.92 C 115.41 37.60 109.86 32.99 104.20 30.38 M 85.09 35.12 C 78.72 40.81 75.86 49.11 72.94 56.86 C 67.85 54.53 62.64 51.62 56.82 52.51 C 56.37 52.95 55.47 53.84 55.03 54.28 C 57.98 54.99 61.06 54.77 64.04 55.41 C 63.04 56.65 62.11 57.95 61.47 59.41 C 63.06 59.06 64.56 58.41 65.98 57.62 C 66.99 58.14 67.98 58.71 68.90 59.38 C 67.37 60.59 65.56 61.73 65.04 63.77 C 68.65 63.94 70.21 59.02 74.07 59.73 C 78.08 60.33 81.35 63.36 85.26 64.52 C 86.69 69.44 92.78 69.49 96.98 69.36 C 104.62 69.20 111.01 64.35 115.95 58.94 C 115.59 48.82 110.48 38.24 101.88 32.65 C 96.35 31.44 89.95 32.05 85.09 35.12 M 140.27 32.25 C 141.84 33.34 143.40 34.44 144.97 35.53 C 145.16 34.97 145.35 34.41 145.55 33.84 C 143.79 33.31 142.03 32.77 140.27 32.25 M 155.95 39.15 C 153.64 43.38 151.21 47.62 149.39 52.08 C 153.78 59.02 161.69 64.64 170.11 60.62 C 177.52 61.58 184.86 60.58 191.97 58.03 C 186.56 55.65 180.76 61.59 174.93 59.63 C 178.95 55.85 184.28 54.01 189.41 52.28 C 184.81 46.59 178.12 43.14 172.99 37.99 C 168.48 32.93 160.45 35.33 155.95 39.15 M 141.13 39.67 C 143.24 40.84 145.49 42.24 147.97 41.25 C 145.98 39.75 143.58 39.09 141.13 39.67 M 128.18 40.63 C 129.92 42.24 131.73 43.79 133.72 45.11 C 133.31 45.59 132.50 46.56 132.09 47.05 C 134.34 50.66 138.28 52.63 141.39 55.41 C 142.00 59.90 142.69 64.38 143.39 68.86 C 143.75 73.10 148.56 74.53 151.57 76.61 C 151.47 78.45 151.34 80.29 151.21 82.13 C 143.94 83.04 136.58 82.74 129.44 84.79 C 129.49 86.03 129.53 87.27 129.58 88.51 C 126.62 88.51 123.65 88.52 120.69 88.45 C 121.23 87.87 122.31 86.73 122.86 86.16 C 119.91 86.92 116.87 86.65 113.90 86.19 C 115.15 86.86 116.39 87.54 117.63 88.23 C 109.35 89.28 101.40 87.19 93.72 84.38 C 95.90 84.34 98.08 84.31 100.26 84.13 C 95.88 81.94 90.58 82.52 86.32 79.89 C 80.95 77.72 77.50 72.81 72.49 70.09 L 72.16 70.62 C 77.27 75.06 82.26 79.66 88.32 82.83 C 84.61 82.03 80.93 81.13 77.23 80.35 C 70.94 78.39 66.78 72.96 62.85 68.03 C 57.66 63.35 50.14 63.21 44.11 60.02 C 34.24 66.93 31.58 79.67 31.78 91.02 C 32.53 97.57 35.67 105.02 42.00 107.86 C 40.01 104.10 36.53 101.24 35.33 97.06 C 32.24 87.75 35.70 78.07 37.83 68.96 C 38.14 67.24 39.93 66.70 41.18 65.81 C 43.07 67.21 44.98 68.71 45.93 70.94 C 52.25 84.84 62.96 95.99 71.03 108.84 C 76.27 118.01 84.69 124.68 92.84 131.13 C 105.32 144.22 117.59 158.93 135.27 164.99 C 152.50 169.04 171.49 171.29 188.01 163.36 C 193.16 161.53 198.25 158.94 201.07 154.02 C 200.88 157.02 199.53 159.69 197.58 161.93 C 198.30 162.54 199.00 163.17 199.73 163.79 C 205.82 152.65 206.56 139.24 204.30 126.97 C 203.82 122.04 204.81 117.11 204.56 112.17 C 204.56 122.09 202.10 131.82 202.50 141.75 C 201.18 126.53 200.61 111.19 202.51 95.99 C 201.86 85.33 204.17 74.95 205.55 64.45 C 204.48 63.52 203.41 62.58 202.36 61.63 C 201.95 61.62 201.14 61.61 200.73 61.61 C 199.13 63.99 197.10 66.09 194.54 67.43 C 183.37 73.75 172.10 80.78 159.31 83.11 C 159.39 83.53 159.54 84.37 159.62 84.79 C 159.50 84.43 159.27 83.70 159.16 83.33 C 157.31 83.86 155.46 84.36 153.63 84.91 C 155.37 82.28 155.17 78.94 155.29 75.92 C 154.29 71.83 148.26 72.28 147.04 68.30 C 153.33 70.38 159.66 72.44 163.91 77.78 C 163.49 78.20 162.65 79.03 162.22 79.45 C 173.80 76.37 185.06 71.19 193.08 62.03 C 186.52 65.16 181.54 71.33 174.55 73.92 C 171.19 75.10 167.84 76.27 164.61 77.74 C 165.80 71.55 159.03 68.49 154.06 67.46 C 162.13 66.63 170.37 66.00 178.35 67.95 C 184.11 65.24 190.75 62.72 194.59 57.46 C 189.10 60.98 183.59 64.44 177.99 67.78 C 169.23 60.62 156.86 67.20 146.65 65.28 C 146.23 63.33 145.86 61.38 145.45 59.44 C 146.42 59.46 148.36 59.51 149.33 59.53 C 148.29 58.48 146.96 57.81 145.59 57.28 C 145.18 55.33 143.14 52.48 145.82 51.36 C 146.60 52.51 147.40 53.65 148.21 54.78 C 148.31 53.22 148.20 51.68 147.90 50.16 C 145.70 49.76 143.85 50.84 142.09 51.99 C 141.03 50.02 142.53 48.33 143.86 47.01 C 145.55 47.62 147.30 48.06 149.08 48.36 C 147.88 47.03 146.41 45.99 144.85 45.13 C 143.93 45.39 143.00 45.65 142.07 45.90 C 141.75 47.17 141.44 48.45 141.14 49.73 C 138.61 49.49 136.72 47.67 134.90 46.08 C 135.46 44.52 136.01 42.96 136.61 41.41 C 134.26 44.22 130.75 41.76 128.18 40.63 M 121.07 42.29 C 121.71 43.10 122.36 43.91 123.02 44.71 C 121.22 48.76 121.22 53.29 118.94 57.19 C 120.93 55.12 122.42 52.66 123.87 50.19 C 125.37 52.89 127.14 55.45 128.43 58.26 C 127.39 57.34 126.39 56.38 125.41 55.41 C 124.16 55.70 122.94 56.09 121.75 56.56 C 121.58 58.34 121.36 60.12 121.09 61.89 C 121.86 60.05 122.69 58.22 123.96 56.67 C 125.47 58.42 126.87 60.28 128.28 62.11 C 128.91 60.49 129.56 58.87 130.24 57.26 C 128.16 53.93 126.94 49.64 123.24 47.71 C 123.99 45.45 122.85 43.61 121.07 42.29 M 132.42 57.66 C 131.13 53.01 130.29 48.12 127.78 43.91 C 127.55 48.37 128.64 55.98 132.42 57.66 M 39.87 52.88 C 42.09 51.84 44.22 50.62 46.30 49.34 C 46.58 49.60 47.13 50.12 47.40 50.39 C 47.34 50.01 47.23 49.25 47.17 48.87 C 49.76 48.37 52.71 49.02 55.05 47.61 C 49.39 46.50 44.04 49.30 39.87 52.88 M 195.57 53.94 C 195.65 54.46 195.80 55.51 195.88 56.04 C 194.94 56.97 195.38 58.05 196.27 58.75 C 195.14 59.59 194.01 60.43 192.90 61.29 C 195.91 63.94 198.78 59.87 201.61 58.92 C 199.95 58.03 198.24 57.24 196.45 56.65 C 196.16 55.74 195.86 54.84 195.57 53.94 M 23.92 81.34 C 26.18 79.83 26.72 77.01 27.95 74.77 C 31.12 67.80 36.79 61.81 44.14 59.33 C 49.01 57.87 54.08 59.08 59.03 59.25 C 59.01 58.71 58.96 57.64 58.93 57.10 C 43.00 50.44 23.46 64.59 23.92 81.34 M 75.05 64.11 C 81.69 64.93 83.57 72.55 89.68 74.38 C 85.24 70.61 81.90 62.41 75.05 64.11 M 97.19 79.76 C 103.49 79.68 105.06 71.61 111.29 71.37 C 110.76 75.62 110.61 79.91 110.68 84.20 C 111.63 84.30 112.59 84.39 113.55 84.49 C 113.83 79.89 114.09 75.28 114.40 70.68 C 117.64 69.59 120.96 68.81 124.31 68.15 C 124.30 67.35 124.28 66.55 124.27 65.76 C 113.96 66.12 101.47 69.74 97.19 79.76 M 209.73 69.01 C 212.69 77.07 202.83 81.05 203.70 88.47 C 207.40 86.72 209.12 82.46 211.46 79.27 C 213.27 76.19 215.03 69.31 209.73 69.01 M 119.89 77.92 C 119.16 79.96 118.85 82.21 120.70 83.75 C 124.90 80.57 130.53 80.03 135.64 80.23 C 135.73 78.62 135.68 77.02 135.48 75.42 C 130.10 74.33 124.94 76.41 119.89 77.92 M 207.72 90.34 C 206.31 96.48 204.97 102.63 204.34 108.90 C 204.62 107.29 205.03 105.69 205.74 104.21 L 205.00 104.65 C 206.02 99.87 206.82 94.93 209.53 90.74 C 208.92 90.60 208.32 90.47 207.72 90.34 M 41.11 92.18 C 41.96 97.26 45.57 101.08 49.20 104.45 C 46.96 100.04 42.97 96.79 41.11 92.18 M 89.70 148.56 C 82.60 138.33 73.24 129.73 67.52 118.51 C 63.55 112.65 62.73 105.06 57.78 99.86 C 62.99 119.00 75.10 135.38 89.70 148.56 M 43.54 114.70 C 41.39 118.71 43.35 123.25 45.16 126.97 C 49.28 134.48 54.19 141.52 59.05 148.56 C 59.59 148.05 60.13 147.53 60.67 147.02 C 55.55 140.64 51.15 133.69 47.00 126.64 C 45.06 122.98 42.53 118.25 45.32 114.35 C 44.88 114.44 43.98 114.61 43.54 114.70 M 71.14 116.36 C 72.83 119.66 75.87 121.95 78.20 124.77 C 88.88 135.67 98.23 147.92 109.99 157.71 C 115.06 159.99 119.80 163.38 125.31 164.42 C 117.88 158.44 107.61 155.42 102.31 146.68 C 92.28 136.28 83.13 124.57 71.14 116.36 M 69.21 145.18 C 70.15 151.34 76.14 154.58 80.12 158.72 C 76.43 154.25 72.95 149.61 69.21 145.18 M 202.74 171.48 C 210.68 167.67 212.96 156.45 211.33 148.23 C 209.84 156.37 207.10 164.37 202.74 171.48 M 95.19 157.48 C 100.74 160.51 106.31 163.40 112.49 164.97 C 112.67 166.07 112.84 167.18 112.98 168.29 C 120.39 173.47 129.84 179.78 138.79 173.81 C 135.00 173.29 131.16 173.61 127.36 173.19 C 121.16 171.35 116.07 167.14 110.64 163.88 C 105.02 162.86 100.52 159.15 95.19 157.48 M 169.00 169.54 C 170.43 172.72 175.09 171.63 178.01 172.21 C 184.85 171.41 193.60 170.30 196.91 163.25 C 189.03 169.31 178.71 171.36 169.00 169.54 M 152.87 173.32 C 158.39 175.16 164.30 176.55 170.11 175.22 C 164.34 174.74 158.60 174.15 152.87 173.32 M 184.00 181.32 C 188.90 180.91 194.34 180.51 197.22 175.87 C 197.23 175.68 197.25 175.31 197.26 175.12 C 193.08 177.62 188.63 179.81 184.00 181.32 M 202.23 174.23 C 202.82 174.82 202.82 174.82 202.23 174.23 M 178.03 185.78 C 172.28 186.44 166.56 185.29 160.83 185.36 C 173.38 190.61 187.60 187.64 199.81 182.84 C 202.81 181.44 206.82 180.71 208.04 177.17 C 198.20 180.50 188.62 185.40 178.03 185.78 Z" />
<path fill="#ffffff" opacity="1.00" d=" M 73.76 33.04 C 73.78 33.18 73.82 33.48 73.84 33.62 L 73.43 33.33 L 73.76 33.04 Z" />
<path fill="#ffffff" opacity="1.00" d=" M 162.93 50.86 C 165.09 50.67 167.26 50.43 169.35 49.80 C 169.28 50.61 169.21 51.43 169.14 52.25 C 166.97 52.42 164.78 52.40 162.60 52.24 C 162.68 51.89 162.85 51.21 162.93 50.86 Z" />
<path fill="#ffffff" opacity="1.00" d=" M 92.22 52.72 C 93.93 52.30 95.70 52.34 97.44 52.51 C 97.49 53.09 97.60 54.25 97.65 54.83 C 95.66 54.64 93.78 54.01 92.22 52.72 Z" />
<path fill="#ffffff" opacity="1.00" d=" M 133.14 87.59 C 137.62 86.54 142.23 86.51 146.81 86.37 C 142.28 87.00 137.73 87.59 133.14 87.59 Z" />
<path fill="#ffffff" opacity="1.00" d=" M 163.50 87.72 C 165.14 87.45 168.61 86.22 167.79 89.47 C 159.53 87.95 155.71 97.08 152.43 102.93 C 150.72 97.66 145.47 93.44 139.91 93.64 C 134.62 95.69 131.21 100.84 128.67 105.68 C 128.26 99.60 123.63 94.07 117.15 94.75 C 113.09 96.71 111.39 101.67 110.44 105.81 C 110.24 99.06 104.51 91.82 97.15 93.66 C 97.25 93.11 97.47 92.03 97.57 91.48 C 119.50 95.02 141.83 91.61 163.50 87.72 Z" />
<path fill="#ffffff" opacity="1.00" d=" M 157.08 101.80 C 159.52 98.56 161.43 92.72 166.32 93.34 C 169.16 100.89 169.07 109.13 170.21 117.03 C 165.31 116.58 161.50 120.08 156.81 120.57 C 156.14 114.31 153.11 107.60 157.08 101.80 Z" />
<path fill="#ffffff" opacity="1.00" d=" M 93.54 104.03 C 94.79 100.50 97.27 95.68 101.86 97.29 C 107.53 100.29 107.21 107.49 108.38 112.94 C 106.10 116.97 100.98 117.05 96.97 116.18 C 96.18 112.00 92.69 108.49 93.54 104.03 Z" />
<path fill="#ffffff" opacity="1.00" d=" M 117.46 98.49 C 121.05 97.63 124.13 100.67 124.64 104.04 C 125.61 109.18 127.36 114.68 125.59 119.83 C 121.61 119.40 117.61 119.33 113.61 119.37 C 111.09 112.30 113.53 104.56 117.46 98.49 Z" />
<path fill="#ffffff" opacity="1.00" d=" M 139.94 97.22 C 145.05 97.14 149.29 101.97 149.22 106.97 C 149.35 111.78 149.96 116.55 150.49 121.33 C 144.76 122.96 137.79 122.74 132.25 120.74 C 127.55 112.68 133.11 102.37 139.94 97.22 Z" />
<path fill="#ffffff" opacity="1.00" d=" M 163.72 139.39 C 164.55 139.49 165.40 139.60 166.24 139.71 C 168.68 144.04 170.82 148.54 172.48 153.23 C 170.92 156.74 167.39 156.69 164.62 154.53 C 164.51 149.40 160.94 144.34 163.72 139.39 Z" />
<path fill="#ffffff" opacity="1.00" d=" M 153.76 140.73 C 154.23 140.70 155.17 140.65 155.64 140.63 C 160.56 143.79 161.03 149.97 161.63 155.25 C 160.47 156.88 159.31 158.66 157.20 159.10 C 155.35 157.76 153.47 156.47 151.62 155.14 C 150.43 150.10 150.18 144.91 153.76 140.73 Z" />
<path fill="#ffffff" opacity="1.00" d=" M 140.67 142.72 C 142.21 142.69 143.76 142.67 145.30 142.65 C 147.84 147.43 149.96 153.74 147.11 158.79 C 145.75 158.22 144.31 158.00 142.94 158.65 C 143.36 159.22 144.20 160.37 144.62 160.94 C 143.03 160.52 141.45 160.10 139.87 159.71 C 141.42 158.71 142.63 157.30 143.71 155.82 C 142.27 151.64 140.17 147.20 140.67 142.72 Z" />
<path fill="#ffffff" opacity="1.00" d=" M 132.24 145.25 C 134.32 145.30 136.28 146.02 138.16 146.85 C 138.88 149.63 139.64 152.41 140.50 155.16 C 139.30 158.20 135.65 157.93 133.27 156.49 C 133.41 155.18 133.54 153.87 133.66 152.57 C 134.18 152.27 135.24 151.69 135.77 151.40 C 135.23 151.54 134.16 151.84 133.63 151.99 C 132.81 149.82 132.33 147.56 132.24 145.25 Z" />
<path fill="#ffffff" opacity="1.00" d=" M 170.95 159.29 C 172.27 157.88 173.65 156.53 175.05 155.20 C 175.87 157.60 177.06 159.86 178.70 161.81 C 180.73 161.27 182.75 160.71 184.78 160.15 C 172.92 164.84 159.63 163.48 147.36 161.24 C 148.59 160.13 149.79 158.99 150.99 157.84 C 154.37 162.35 160.82 163.11 163.56 157.51 C 165.92 158.47 168.38 159.21 170.95 159.29 Z" />
</g>
<g id="#000000ff">
<path fill="#000000" opacity="1.00" d=" M 64.52 12.74 C 105.25 11.00 146.53 11.18 186.53 19.87 C 194.53 23.65 202.03 28.62 208.91 34.19 C 213.71 37.88 211.15 44.76 213.08 49.74 C 216.16 57.15 225.53 59.62 228.07 67.34 C 228.34 73.57 228.53 79.82 228.52 86.06 C 227.91 96.48 217.72 103.49 217.70 114.00 C 216.71 132.74 219.88 151.33 220.23 170.03 C 220.79 175.25 216.82 179.24 213.74 182.92 C 202.82 193.55 186.58 195.70 172.00 194.88 C 153.36 194.85 136.33 185.99 118.05 183.73 C 102.70 178.36 89.53 167.77 73.46 164.18 C 66.52 158.94 58.65 155.10 51.01 151.04 C 43.20 142.76 33.62 135.58 28.95 124.88 C 26.00 114.44 15.62 108.92 10.17 99.96 C 2.11 88.56 5.61 71.82 15.88 62.93 C 21.27 56.91 29.21 52.62 31.64 44.47 C 36.98 32.73 44.35 21.16 55.72 14.46 C 58.27 12.62 61.56 13.04 64.52 12.74 M 77.96 17.37 C 72.13 19.51 66.96 23.22 61.23 25.66 C 63.77 21.26 69.72 20.41 73.57 17.33 C 69.21 17.66 64.84 17.50 60.49 17.85 C 49.93 22.04 44.10 32.44 38.57 41.70 C 42.39 40.20 46.06 37.32 50.32 37.70 C 50.80 42.10 44.12 41.69 41.36 44.02 C 33.69 46.59 33.60 56.15 27.63 60.61 C 21.44 71.13 17.02 84.26 21.13 96.34 C 20.51 96.13 19.28 95.69 18.67 95.48 C 14.63 85.42 18.04 74.57 21.67 64.96 C 14.95 69.62 9.57 77.48 10.57 85.97 C 11.53 92.70 15.40 98.55 19.07 104.11 C 22.94 106.13 27.37 107.04 30.76 109.98 C 27.06 97.92 25.95 83.85 32.95 72.75 C 27.54 84.82 27.69 98.53 32.10 110.90 C 30.25 109.30 27.80 109.24 25.48 109.15 C 27.04 113.07 31.62 114.83 32.66 118.98 C 36.67 132.88 48.56 142.54 60.04 150.35 C 60.62 149.65 61.35 149.12 61.93 148.43 C 69.86 158.16 82.07 161.43 93.23 165.89 C 89.86 160.58 83.79 156.69 82.32 150.37 C 89.22 157.76 94.74 167.04 104.17 171.56 C 109.20 173.89 113.69 177.36 118.90 179.22 C 134.25 179.75 148.21 187.04 163.25 189.27 C 177.67 191.48 193.27 190.72 206.05 183.03 C 211.00 180.73 212.33 175.01 215.48 171.00 C 215.88 159.99 214.15 149.00 213.21 138.04 C 209.38 123.70 208.53 108.11 213.31 93.88 C 212.14 103.87 211.78 113.94 212.50 123.98 C 211.47 112.32 215.41 101.32 221.28 91.46 C 220.02 91.90 218.76 92.34 217.51 92.78 C 217.26 87.81 217.41 82.78 219.19 78.08 C 219.33 82.60 219.17 87.12 219.02 91.64 C 219.72 91.49 221.12 91.19 221.81 91.04 C 224.77 85.09 223.53 78.29 223.72 71.91 C 223.82 66.12 217.05 64.01 215.17 59.15 C 215.31 59.87 215.61 61.30 215.75 62.02 C 208.28 58.22 206.66 48.50 207.44 40.87 C 199.51 32.48 189.65 25.39 178.10 23.23 C 173.94 22.13 169.21 23.25 165.60 20.44 C 157.19 15.30 147.18 18.33 137.98 17.71 C 118.06 15.49 97.92 16.09 77.96 17.37 Z" />
<path fill="#000000" opacity="1.00" d=" M 94.06 19.24 C 102.65 17.85 111.38 18.47 120.03 17.66 C 123.60 17.76 127.58 16.79 130.71 19.00 C 118.54 19.55 106.22 20.58 94.06 19.24 Z" />
<path fill="#000000" opacity="1.00" d=" M 98.21 26.13 C 108.22 22.08 119.36 21.19 129.98 22.91 C 119.59 25.52 108.67 23.79 98.21 26.13 Z" />
<path fill="#000000" opacity="1.00" d=" M 137.24 24.46 C 145.97 23.58 154.49 25.95 163.21 25.45 C 168.38 29.76 174.41 33.11 179.14 37.90 C 176.56 37.64 174.91 35.54 173.07 34.00 C 169.04 30.12 163.32 28.79 157.91 28.34 C 150.89 27.76 144.21 25.29 137.24 24.46 Z" />
<path fill="#000000" opacity="1.00" d=" M 64.01 33.61 C 66.13 29.43 70.90 28.09 74.81 26.18 C 70.97 28.29 67.31 30.72 64.01 33.61 Z" />
<path fill="#000000" opacity="1.00" d=" M 65.45 41.19 C 69.09 34.09 75.85 29.18 83.65 27.64 C 83.29 28.12 82.58 29.08 82.22 29.56 C 82.86 29.55 84.12 29.55 84.75 29.54 C 80.42 32.29 86.18 33.04 88.08 31.57 C 82.35 33.72 77.62 37.56 75.02 43.29 C 70.76 43.16 66.44 43.30 62.38 44.74 C 66.08 42.63 70.43 42.45 74.59 42.73 C 76.65 38.39 80.18 35.11 82.77 31.25 C 79.20 32.33 75.25 33.56 73.16 36.92 C 73.23 36.02 73.36 34.23 73.43 33.33 L 73.84 33.62 C 73.82 33.48 73.78 33.18 73.76 33.04 L 73.43 33.33 C 70.40 35.55 67.83 38.29 65.45 41.19 Z" />
<path fill="#000000" opacity="1.00" d=" M 174.67 28.54 C 178.72 30.27 182.53 32.48 186.29 34.75 C 187.18 33.27 186.62 31.61 186.38 30.04 C 193.84 35.84 202.83 43.02 203.48 53.16 C 205.28 53.54 207.06 53.97 208.83 54.46 C 208.89 55.42 208.95 56.38 209.01 57.33 C 206.18 55.58 202.78 54.19 201.79 50.68 C 199.26 43.92 194.09 38.70 188.67 34.14 C 188.41 35.09 188.18 36.04 187.97 37.00 C 183.70 33.94 179.36 30.95 174.67 28.54 Z" />
<path fill="#000000" opacity="1.00" d=" M 104.20 30.38 C 109.86 32.99 115.41 37.60 116.89 43.92 C 113.87 38.26 107.59 35.67 104.20 30.38 Z" />
<path fill="#000000" opacity="1.00" d=" M 85.09 35.12 C 89.95 32.05 96.35 31.44 101.88 32.65 C 110.48 38.24 115.59 48.82 115.95 58.94 C 111.01 64.35 104.62 69.20 96.98 69.36 C 92.78 69.49 86.69 69.44 85.26 64.52 C 81.35 63.36 78.08 60.33 74.07 59.73 C 70.21 59.02 68.65 63.94 65.04 63.77 C 65.56 61.73 67.37 60.59 68.90 59.38 C 67.98 58.71 66.99 58.14 65.98 57.62 C 64.56 58.41 63.06 59.06 61.47 59.41 C 62.11 57.95 63.04 56.65 64.04 55.41 C 61.06 54.77 57.98 54.99 55.03 54.28 C 55.47 53.84 56.37 52.95 56.82 52.51 C 62.64 51.62 67.85 54.53 72.94 56.86 C 75.86 49.11 78.72 40.81 85.09 35.12 M 92.22 52.72 C 93.78 54.01 95.66 54.64 97.65 54.83 C 97.60 54.25 97.49 53.09 97.44 52.51 C 95.70 52.34 93.93 52.30 92.22 52.72 Z" />
<path fill="#000000" opacity="1.00" d=" M 140.27 32.25 C 142.03 32.77 143.79 33.31 145.55 33.84 C 145.35 34.41 145.16 34.97 144.97 35.53 C 143.40 34.44 141.84 33.34 140.27 32.25 Z" />
<path fill="#000000" opacity="1.00" d=" M 155.95 39.15 C 160.45 35.33 168.48 32.93 172.99 37.99 C 178.12 43.14 184.81 46.59 189.41 52.28 C 184.28 54.01 178.95 55.85 174.93 59.63 C 180.76 61.59 186.56 55.65 191.97 58.03 C 184.86 60.58 177.52 61.58 170.11 60.62 C 161.69 64.64 153.78 59.02 149.39 52.08 C 151.21 47.62 153.64 43.38 155.95 39.15 M 162.93 50.86 C 162.85 51.21 162.68 51.89 162.60 52.24 C 164.78 52.40 166.97 52.42 169.14 52.25 C 169.21 51.43 169.28 50.61 169.35 49.80 C 167.26 50.43 165.09 50.67 162.93 50.86 Z" />
<path fill="#000000" opacity="1.00" d=" M 141.13 39.67 C 143.58 39.09 145.98 39.75 147.97 41.25 C 145.49 42.24 143.24 40.84 141.13 39.67 Z" />
<path fill="#000000" opacity="1.00" d=" M 128.18 40.63 C 130.75 41.76 134.26 44.22 136.61 41.41 C 136.01 42.96 135.46 44.52 134.90 46.08 C 136.72 47.67 138.61 49.49 141.14 49.73 C 141.44 48.45 141.75 47.17 142.07 45.90 C 143.00 45.65 143.93 45.39 144.85 45.13 C 146.41 45.99 147.88 47.03 149.08 48.36 C 147.30 48.06 145.55 47.62 143.86 47.01 C 142.53 48.33 141.03 50.02 142.09 51.99 C 143.85 50.84 145.70 49.76 147.90 50.16 C 148.20 51.68 148.31 53.22 148.21 54.78 C 147.40 53.65 146.60 52.51 145.82 51.36 C 143.14 52.48 145.18 55.33 145.59 57.28 C 146.96 57.81 148.29 58.48 149.33 59.53 C 148.36 59.51 146.42 59.46 145.45 59.44 C 145.86 61.38 146.23 63.33 146.65 65.28 C 156.86 67.20 169.23 60.62 177.99 67.78 C 183.59 64.44 189.10 60.98 194.59 57.46 C 190.75 62.72 184.11 65.24 178.35 67.95 C 170.37 66.00 162.13 66.63 154.06 67.46 C 159.03 68.49 165.80 71.55 164.61 77.74 C 167.84 76.27 171.19 75.10 174.55 73.92 C 181.54 71.33 186.52 65.16 193.08 62.03 C 185.06 71.19 173.80 76.37 162.22 79.45 C 162.65 79.03 163.49 78.20 163.91 77.78 C 159.66 72.44 153.33 70.38 147.04 68.30 C 148.26 72.28 154.29 71.83 155.29 75.92 C 155.17 78.94 155.37 82.28 153.63 84.91 C 155.46 84.36 157.31 83.86 159.16 83.33 C 159.27 83.70 159.50 84.43 159.62 84.79 C 159.54 84.37 159.39 83.53 159.31 83.11 C 172.10 80.78 183.37 73.75 194.54 67.43 C 197.10 66.09 199.13 63.99 200.73 61.61 C 201.14 61.61 201.95 61.62 202.36 61.63 C 203.41 62.58 204.48 63.52 205.55 64.45 C 204.17 74.95 201.86 85.33 202.51 95.99 C 200.61 111.19 201.18 126.53 202.50 141.75 C 202.10 131.82 204.56 122.09 204.56 112.17 C 204.81 117.11 203.82 122.04 204.30 126.97 C 206.56 139.24 205.82 152.65 199.73 163.79 C 199.00 163.17 198.30 162.54 197.58 161.93 C 199.53 159.69 200.88 157.02 201.07 154.02 C 198.25 158.94 193.16 161.53 188.01 163.36 C 171.49 171.29 152.50 169.04 135.27 164.99 C 117.59 158.93 105.32 144.22 92.84 131.13 C 84.69 124.68 76.27 118.01 71.03 108.84 C 62.96 95.99 52.25 84.84 45.93 70.94 C 44.98 68.71 43.07 67.21 41.18 65.81 C 39.93 66.70 38.14 67.24 37.83 68.96 C 35.70 78.07 32.24 87.75 35.33 97.06 C 36.53 101.24 40.01 104.10 42.00 107.86 C 35.67 105.02 32.53 97.57 31.78 91.02 C 31.58 79.67 34.24 66.93 44.11 60.02 C 50.14 63.21 57.66 63.35 62.85 68.03 C 66.78 72.96 70.94 78.39 77.23 80.35 C 80.93 81.13 84.61 82.03 88.32 82.83 C 82.26 79.66 77.27 75.06 72.16 70.62 L 72.49 70.09 C 77.50 72.81 80.95 77.72 86.32 79.89 C 90.58 82.52 95.88 81.94 100.26 84.13 C 98.08 84.31 95.90 84.34 93.72 84.38 C 101.40 87.19 109.35 89.28 117.63 88.23 C 116.39 87.54 115.15 86.86 113.90 86.19 C 116.87 86.65 119.91 86.92 122.86 86.16 C 122.31 86.73 121.23 87.87 120.69 88.45 C 123.65 88.52 126.62 88.51 129.58 88.51 C 129.53 87.27 129.49 86.03 129.44 84.79 C 136.58 82.74 143.94 83.04 151.21 82.13 C 151.34 80.29 151.47 78.45 151.57 76.61 C 148.56 74.53 143.75 73.10 143.39 68.86 C 142.69 64.38 142.00 59.90 141.39 55.41 C 138.28 52.63 134.34 50.66 132.09 47.05 C 132.50 46.56 133.31 45.59 133.72 45.11 C 131.73 43.79 129.92 42.24 128.18 40.63 M 133.14 87.59 C 137.73 87.59 142.28 87.00 146.81 86.37 C 142.23 86.51 137.62 86.54 133.14 87.59 M 163.50 87.72 C 141.83 91.61 119.50 95.02 97.57 91.48 C 97.47 92.03 97.25 93.11 97.15 93.66 C 104.51 91.82 110.24 99.06 110.44 105.81 C 111.39 101.67 113.09 96.71 117.15 94.75 C 123.63 94.07 128.26 99.60 128.67 105.68 C 131.21 100.84 134.62 95.69 139.91 93.64 C 145.47 93.44 150.72 97.66 152.43 102.93 C 155.71 97.08 159.53 87.95 167.79 89.47 C 168.61 86.22 165.14 87.45 163.50 87.72 M 157.08 101.80 C 153.11 107.60 156.14 114.31 156.81 120.57 C 161.50 120.08 165.31 116.58 170.21 117.03 C 169.07 109.13 169.16 100.89 166.32 93.34 C 161.43 92.72 159.52 98.56 157.08 101.80 M 93.54 104.03 C 92.69 108.49 96.18 112.00 96.97 116.18 C 100.98 117.05 106.10 116.97 108.38 112.94 C 107.21 107.49 107.53 100.29 101.86 97.29 C 97.27 95.68 94.79 100.50 93.54 104.03 M 117.46 98.49 C 113.53 104.56 111.09 112.30 113.61 119.37 C 117.61 119.33 121.61 119.40 125.59 119.83 C 127.36 114.68 125.61 109.18 124.64 104.04 C 124.13 100.67 121.05 97.63 117.46 98.49 M 139.94 97.22 C 133.11 102.37 127.55 112.68 132.25 120.74 C 137.79 122.74 144.76 122.96 150.49 121.33 C 149.96 116.55 149.35 111.78 149.22 106.97 C 149.29 101.97 145.05 97.14 139.94 97.22 M 163.72 139.39 C 160.94 144.34 164.51 149.40 164.62 154.53 C 167.39 156.69 170.92 156.74 172.48 153.23 C 170.82 148.54 168.68 144.04 166.24 139.71 C 165.40 139.60 164.55 139.49 163.72 139.39 M 153.76 140.73 C 150.18 144.91 150.43 150.10 151.62 155.14 C 153.47 156.47 155.35 157.76 157.20 159.10 C 159.31 158.66 160.47 156.88 161.63 155.25 C 161.03 149.97 160.56 143.79 155.64 140.63 C 155.17 140.65 154.23 140.70 153.76 140.73 M 140.67 142.72 C 140.17 147.20 142.27 151.64 143.71 155.82 C 142.63 157.30 141.42 158.71 139.87 159.71 C 141.45 160.10 143.03 160.52 144.62 160.94 C 144.20 160.37 143.36 159.22 142.94 158.65 C 144.31 158.00 145.75 158.22 147.11 158.79 C 149.96 153.74 147.84 147.43 145.30 142.65 C 143.76 142.67 142.21 142.69 140.67 142.72 M 132.24 145.25 C 132.33 147.56 132.81 149.82 133.63 151.99 C 134.16 151.84 135.23 151.54 135.77 151.40 C 135.24 151.69 134.18 152.27 133.66 152.57 C 133.54 153.87 133.41 155.18 133.27 156.49 C 135.65 157.93 139.30 158.20 140.50 155.16 C 139.64 152.41 138.88 149.63 138.16 146.85 C 136.28 146.02 134.32 145.30 132.24 145.25 M 170.95 159.29 C 168.38 159.21 165.92 158.47 163.56 157.51 C 160.82 163.11 154.37 162.35 150.99 157.84 C 149.79 158.99 148.59 160.13 147.36 161.24 C 159.63 163.48 172.92 164.84 184.78 160.15 C 182.75 160.71 180.73 161.27 178.70 161.81 C 177.06 159.86 175.87 157.60 175.05 155.20 C 173.65 156.53 172.27 157.88 170.95 159.29 Z" />
<path fill="#000000" opacity="1.00" d=" M 121.07 42.29 C 122.85 43.61 123.99 45.45 123.24 47.71 C 126.94 49.64 128.16 53.93 130.24 57.26 C 129.56 58.87 128.91 60.49 128.28 62.11 C 126.87 60.28 125.47 58.42 123.96 56.67 C 122.69 58.22 121.86 60.05 121.09 61.89 C 121.36 60.12 121.58 58.34 121.75 56.56 C 122.94 56.09 124.16 55.70 125.41 55.41 C 126.39 56.38 127.39 57.34 128.43 58.26 C 127.14 55.45 125.37 52.89 123.87 50.19 C 122.42 52.66 120.93 55.12 118.94 57.19 C 121.22 53.29 121.22 48.76 123.02 44.71 C 122.36 43.91 121.71 43.10 121.07 42.29 Z" />
<path fill="#000000" opacity="1.00" d=" M 132.42 57.66 C 128.64 55.98 127.55 48.37 127.78 43.91 C 130.29 48.12 131.13 53.01 132.42 57.66 Z" />
<path fill="#000000" opacity="1.00" d=" M 39.87 52.88 C 44.04 49.30 49.39 46.50 55.05 47.61 C 52.71 49.02 49.76 48.37 47.17 48.87 C 47.23 49.25 47.34 50.01 47.40 50.39 C 47.13 50.12 46.58 49.60 46.30 49.34 C 44.22 50.62 42.09 51.84 39.87 52.88 Z" />
<path fill="#000000" opacity="1.00" d=" M 195.57 53.94 C 195.86 54.84 196.16 55.74 196.45 56.65 C 198.24 57.24 199.95 58.03 201.61 58.92 C 198.78 59.87 195.91 63.94 192.90 61.29 C 194.01 60.43 195.14 59.59 196.27 58.75 C 195.38 58.05 194.94 56.97 195.88 56.04 C 195.80 55.51 195.65 54.46 195.57 53.94 Z" />
<path fill="#000000" opacity="1.00" d=" M 23.92 81.34 C 23.46 64.59 43.00 50.44 58.93 57.10 C 58.96 57.64 59.01 58.71 59.03 59.25 C 54.08 59.08 49.01 57.87 44.14 59.33 C 36.79 61.81 31.12 67.80 27.95 74.77 C 26.72 77.01 26.18 79.83 23.92 81.34 Z" />
<path fill="#000000" opacity="1.00" d=" M 75.05 64.11 C 81.90 62.41 85.24 70.61 89.68 74.38 C 83.57 72.55 81.69 64.93 75.05 64.11 Z" />
<path fill="#000000" opacity="1.00" d=" M 97.19 79.76 C 101.47 69.74 113.96 66.12 124.27 65.76 C 124.28 66.55 124.30 67.35 124.31 68.15 C 120.96 68.81 117.64 69.59 114.40 70.68 C 114.09 75.28 113.83 79.89 113.55 84.49 C 112.59 84.39 111.63 84.30 110.68 84.20 C 110.61 79.91 110.76 75.62 111.29 71.37 C 105.06 71.61 103.49 79.68 97.19 79.76 Z" />
<path fill="#000000" opacity="1.00" d=" M 209.73 69.01 C 215.03 69.31 213.27 76.19 211.46 79.27 C 209.12 82.46 207.40 86.72 203.70 88.47 C 202.83 81.05 212.69 77.07 209.73 69.01 Z" />
<path fill="#000000" opacity="1.00" d=" M 119.89 77.92 C 124.94 76.41 130.10 74.33 135.48 75.42 C 135.68 77.02 135.73 78.62 135.64 80.23 C 130.53 80.03 124.90 80.57 120.70 83.75 C 118.85 82.21 119.16 79.96 119.89 77.92 Z" />
<path fill="#000000" opacity="1.00" d=" M 207.72 90.34 C 208.32 90.47 208.92 90.60 209.53 90.74 C 206.82 94.93 206.02 99.87 205.00 104.65 L 205.74 104.21 C 205.03 105.69 204.62 107.29 204.34 108.90 C 204.97 102.63 206.31 96.48 207.72 90.34 Z" />
<path fill="#000000" opacity="1.00" d=" M 41.11 92.18 C 42.97 96.79 46.96 100.04 49.20 104.45 C 45.57 101.08 41.96 97.26 41.11 92.18 Z" />
<path fill="#000000" opacity="1.00" d=" M 89.70 148.56 C 75.10 135.38 62.99 119.00 57.78 99.86 C 62.73 105.06 63.55 112.65 67.52 118.51 C 73.24 129.73 82.60 138.33 89.70 148.56 Z" />
<path fill="#000000" opacity="1.00" d=" M 43.54 114.70 C 43.98 114.61 44.88 114.44 45.32 114.35 C 42.53 118.25 45.06 122.98 47.00 126.64 C 51.15 133.69 55.55 140.64 60.67 147.02 C 60.13 147.53 59.59 148.05 59.05 148.56 C 54.19 141.52 49.28 134.48 45.16 126.97 C 43.35 123.25 41.39 118.71 43.54 114.70 Z" />
<path fill="#000000" opacity="1.00" d=" M 71.14 116.36 C 83.13 124.57 92.28 136.28 102.31 146.68 C 107.61 155.42 117.88 158.44 125.31 164.42 C 119.80 163.38 115.06 159.99 109.99 157.71 C 98.23 147.92 88.88 135.67 78.20 124.77 C 75.87 121.95 72.83 119.66 71.14 116.36 Z" />
<path fill="#000000" opacity="1.00" d=" M 69.21 145.18 C 72.95 149.61 76.43 154.25 80.12 158.72 C 76.14 154.58 70.15 151.34 69.21 145.18 Z" />
<path fill="#000000" opacity="1.00" d=" M 202.74 171.48 C 207.10 164.37 209.84 156.37 211.33 148.23 C 212.96 156.45 210.68 167.67 202.74 171.48 Z" />
<path fill="#000000" opacity="1.00" d=" M 95.19 157.48 C 100.52 159.15 105.02 162.86 110.64 163.88 C 116.07 167.14 121.16 171.35 127.36 173.19 C 131.16 173.61 135.00 173.29 138.79 173.81 C 129.84 179.78 120.39 173.47 112.98 168.29 C 112.84 167.18 112.67 166.07 112.49 164.97 C 106.31 163.40 100.74 160.51 95.19 157.48 Z" />
<path fill="#000000" opacity="1.00" d=" M 169.00 169.54 C 178.71 171.36 189.03 169.31 196.91 163.25 C 193.60 170.30 184.85 171.41 178.01 172.21 C 175.09 171.63 170.43 172.72 169.00 169.54 Z" />
<path fill="#000000" opacity="1.00" d=" M 152.87 173.32 C 158.60 174.15 164.34 174.74 170.11 175.22 C 164.30 176.55 158.39 175.16 152.87 173.32 Z" />
<path fill="#000000" opacity="1.00" d=" M 184.00 181.32 C 188.63 179.81 193.08 177.62 197.26 175.12 C 197.25 175.31 197.23 175.68 197.22 175.87 C 194.34 180.51 188.90 180.91 184.00 181.32 Z" />
<path fill="#000000" opacity="1.00" d=" M 202.23 174.23 C 202.82 174.82 202.82 174.82 202.23 174.23 Z" />
<path fill="#000000" opacity="1.00" d=" M 178.03 185.78 C 188.62 185.40 198.20 180.50 208.04 177.17 C 206.82 180.71 202.81 181.44 199.81 182.84 C 187.60 187.64 173.38 190.61 160.83 185.36 C 166.56 185.29 172.28 186.44 178.03 185.78 Z" />
</g>
</svg>
