<?xml version="1.0" encoding="UTF-8" ?>
<!DOCTYPE svg PUBLIC "-//W3C//DTD SVG 1.1//EN" "http://www.w3.org/Graphics/SVG/1.1/DTD/svg11.dtd">
<svg width="320pt" height="380pt" viewBox="0 0 320 380" version="1.1" xmlns="http://www.w3.org/2000/svg">
<g id="#ffffffff">
<path fill="#ffffff" opacity="1.00" d=" M 137.35 14.77 C 141.10 13.48 145.12 14.10 149.01 14.00 C 160.45 14.16 171.92 13.68 183.35 14.24 C 187.00 15.57 191.01 14.43 194.65 15.77 C 198.97 16.30 203.44 15.39 207.64 16.75 C 209.98 16.96 212.33 17.02 214.68 17.06 C 215.11 17.55 215.96 18.52 216.39 19.00 C 209.18 18.65 201.80 19.84 194.72 18.20 C 188.72 18.19 182.85 17.01 176.96 16.13 C 170.49 16.03 163.94 15.55 157.51 16.50 C 152.71 18.04 147.76 19.12 143.11 21.09 C 139.31 22.33 136.36 25.27 132.59 26.59 C 129.35 29.10 125.99 31.42 122.41 33.40 C 120.78 34.15 120.11 35.83 119.54 37.41 C 124.66 33.07 130.16 29.03 136.34 26.37 C 143.15 21.27 151.65 19.73 159.57 17.16 C 164.71 16.96 169.87 16.88 175.01 17.04 C 180.94 17.99 186.93 18.67 192.92 19.18 C 198.84 20.59 204.98 19.79 211.01 20.04 C 214.99 20.37 218.71 18.50 222.72 19.15 C 226.99 19.99 231.34 20.83 235.39 22.53 C 241.07 26.15 247.67 28.84 251.66 34.54 C 251.97 38.28 252.03 42.08 253.11 45.70 C 255.69 50.80 261.58 52.75 264.50 57.57 C 266.76 61.62 265.88 66.57 266.04 71.04 C 266.37 74.91 263.61 77.99 262.64 81.57 C 259.85 85.31 258.02 89.72 257.11 94.26 C 256.90 104.84 256.98 115.44 257.06 126.03 C 256.91 129.79 259.08 133.20 258.95 136.96 C 259.05 140.90 259.47 145.01 257.89 148.74 C 256.06 151.25 254.72 154.28 252.04 156.03 C 249.65 157.73 247.15 159.29 244.47 160.50 C 241.77 161.20 239.08 161.97 236.43 162.84 C 229.49 163.09 222.54 163.14 215.60 162.81 C 210.89 161.57 206.13 160.55 201.36 159.57 C 195.49 157.53 189.00 157.30 183.40 154.38 C 179.86 154.09 176.14 154.78 173.00 152.66 C 172.83 149.26 173.61 145.64 171.58 142.65 C 175.35 144.25 179.43 144.77 183.45 145.35 C 187.64 146.32 191.89 147.03 196.13 147.73 C 199.85 148.22 203.62 147.87 207.35 148.23 C 210.45 149.34 213.77 149.00 217.00 149.02 C 222.68 148.91 228.36 149.12 234.04 148.99 C 235.67 148.98 237.20 148.38 238.72 147.87 C 242.36 145.33 246.27 143.21 250.00 140.80 C 250.00 138.53 250.00 136.26 250.01 133.99 L 249.01 134.00 C 249.00 135.93 249.00 137.86 249.00 139.79 C 245.49 142.06 241.83 144.10 238.37 146.45 C 236.66 147.17 234.94 148.08 233.03 148.00 C 228.02 148.10 223.01 147.92 218.00 148.02 C 214.78 148.00 211.45 148.34 208.35 147.23 C 203.55 146.70 198.64 147.54 193.92 146.30 C 189.05 145.80 184.43 144.05 179.54 143.68 C 176.84 142.94 174.08 142.43 171.43 141.55 C 170.22 140.43 168.09 139.71 167.84 137.96 C 171.68 139.49 175.54 141.02 179.72 141.28 C 187.12 143.14 194.92 140.80 202.28 142.81 C 208.18 143.19 214.11 142.94 220.02 143.02 C 224.81 143.12 229.35 141.44 233.79 139.84 C 236.87 137.68 240.31 135.33 241.43 131.52 C 238.47 133.86 235.99 136.78 232.81 138.86 C 229.72 139.99 226.56 140.87 223.42 141.83 C 218.95 142.10 214.48 141.97 210.01 142.03 C 207.11 142.03 204.14 142.22 201.36 141.24 C 195.91 140.69 190.44 141.21 184.99 140.96 C 178.77 140.14 172.46 139.07 166.84 136.16 C 162.79 132.44 158.91 128.07 153.44 126.46 C 148.65 125.72 143.70 126.37 139.03 124.84 C 139.01 123.26 139.00 121.69 139.00 120.12 C 137.03 119.04 135.04 118.01 133.06 116.96 C 128.56 117.05 124.02 116.72 119.56 117.44 C 117.47 118.27 115.44 119.25 113.43 120.25 C 111.22 117.15 108.90 114.12 106.05 111.59 C 105.95 105.12 106.02 98.66 106.00 92.20 C 104.10 91.76 102.24 91.15 100.29 90.97 C 99.37 92.05 98.87 93.33 98.80 94.79 C 98.39 93.26 98.03 91.71 97.69 90.17 C 99.93 90.02 102.16 89.89 104.39 89.62 C 106.69 88.23 108.88 86.66 110.91 84.90 C 111.86 85.36 112.81 85.82 113.77 86.27 C 113.97 86.80 114.38 87.85 114.59 88.38 C 119.02 94.87 122.98 101.81 128.72 107.28 C 134.99 113.91 142.85 118.76 150.61 123.44 C 156.41 125.80 162.34 127.90 168.34 129.61 C 173.70 130.02 178.96 131.16 184.35 131.27 C 187.79 132.40 191.45 131.97 195.00 132.01 C 200.79 131.89 206.58 132.25 212.36 131.76 C 215.58 130.69 219.02 131.05 222.35 130.76 C 225.02 130.04 227.79 129.89 230.51 129.46 C 232.66 128.38 235.07 128.05 237.38 127.46 C 239.67 125.79 242.55 124.60 243.98 122.01 C 247.32 116.29 249.33 109.66 249.04 103.00 C 248.92 97.54 249.19 92.07 248.78 86.62 C 247.94 83.56 247.55 80.40 246.64 77.35 C 245.87 76.61 245.04 75.96 244.14 75.39 C 244.05 72.83 244.22 70.01 242.00 68.24 C 239.00 70.85 240.27 75.08 239.67 78.56 C 238.07 82.13 235.04 84.77 231.78 86.81 C 229.64 87.60 227.55 88.52 225.70 89.87 C 221.16 91.38 216.39 91.89 211.72 92.81 C 206.62 92.94 201.34 93.65 196.35 92.26 C 193.66 92.02 190.96 92.00 188.28 91.79 C 180.37 90.39 172.35 89.12 164.80 86.26 C 154.12 83.06 143.23 80.53 132.99 76.03 C 127.47 73.13 121.75 70.62 116.22 67.75 C 116.00 65.92 116.03 62.48 113.31 63.01 C 112.44 63.88 112.16 65.42 111.13 66.03 C 110.96 63.78 110.23 61.74 108.81 59.98 C 111.15 59.98 113.50 59.85 115.83 60.12 C 117.47 60.73 118.83 61.89 120.31 62.81 C 123.75 64.01 127.34 64.82 130.56 66.58 C 134.34 67.11 138.18 67.22 141.98 66.92 C 147.59 66.01 151.98 61.95 155.59 57.82 C 154.49 57.10 153.54 55.89 152.12 55.87 C 148.46 58.79 144.80 62.20 139.98 62.98 C 137.50 63.21 135.00 62.96 132.54 62.60 C 129.49 61.16 126.52 59.53 123.19 58.80 C 121.12 58.52 119.74 56.76 117.82 56.12 C 114.00 55.78 110.16 56.06 106.34 55.99 C 105.43 54.99 104.53 54.00 103.63 53.00 C 107.09 53.00 110.55 53.00 114.00 53.00 L 114.00 52.00 C 109.66 52.00 105.33 52.00 101.00 52.00 L 101.00 51.00 C 104.00 51.00 107.00 51.00 110.00 51.00 L 110.00 50.00 C 105.89 50.00 101.78 50.00 97.67 50.01 C 99.74 47.60 102.37 45.46 103.34 42.33 C 104.24 40.00 106.08 38.04 106.20 35.45 C 108.26 31.02 111.30 27.14 114.28 23.30 C 116.70 20.24 120.08 18.25 123.26 16.11 C 127.74 14.23 132.66 15.35 137.35 14.77 M 141.65 27.67 C 138.82 29.58 135.68 30.96 132.84 32.84 C 129.79 35.41 127.02 38.32 124.54 41.44 C 129.01 40.01 131.16 35.37 135.00 32.96 C 143.10 27.54 152.72 24.43 162.39 23.69 C 167.06 22.44 171.96 23.03 176.73 23.17 C 183.40 24.54 190.13 26.30 197.01 26.03 C 202.46 25.91 207.92 26.23 213.36 25.76 C 217.37 24.14 221.95 26.01 225.84 23.99 C 228.63 23.93 230.76 25.82 233.01 27.19 C 233.79 24.80 230.94 24.47 229.49 23.41 C 227.36 22.63 224.87 23.08 222.75 23.74 C 219.31 24.36 215.70 23.50 212.36 24.76 C 206.92 25.23 201.46 24.90 196.01 25.04 C 189.50 25.35 183.30 23.02 176.93 22.13 C 164.95 21.30 152.72 22.96 141.65 27.67 M 156.62 28.23 C 152.05 29.41 147.10 29.45 142.96 31.94 C 138.09 34.72 132.69 38.02 130.57 43.48 C 134.13 40.75 136.87 37.04 140.80 34.77 C 143.99 32.47 147.78 31.31 151.51 30.22 C 155.71 30.01 159.76 28.63 164.00 28.95 C 168.64 29.23 173.55 28.23 177.87 30.37 L 178.06 29.06 C 176.09 28.52 174.10 27.95 172.04 27.98 C 166.90 27.99 161.75 27.85 156.62 28.23 M 171.58 29.55 C 173.17 31.65 174.97 33.57 176.66 35.58 C 176.89 37.71 177.01 39.86 177.12 42.00 L 178.09 42.01 C 178.01 39.51 177.93 37.02 177.69 34.54 C 176.02 32.48 174.28 30.25 171.58 29.55 M 211.92 30.83 C 208.25 30.91 204.65 31.59 201.03 32.15 C 201.01 32.59 200.96 33.49 200.94 33.94 C 203.60 33.23 206.16 31.88 208.97 32.10 C 213.32 32.28 217.48 30.30 221.85 31.14 C 224.93 32.20 227.79 33.80 230.63 35.38 C 233.26 36.94 233.75 40.26 234.21 43.01 L 235.18 42.99 C 234.91 40.26 234.69 37.38 232.77 35.22 C 231.09 33.76 228.92 33.09 227.04 31.93 C 222.54 29.06 216.87 29.79 211.92 30.83 M 203.26 38.42 C 202.99 41.61 202.97 44.81 202.97 48.00 L 203.94 48.00 C 203.97 45.23 204.00 42.45 204.36 39.70 C 205.38 38.31 206.38 36.92 207.32 35.47 C 205.74 36.12 204.43 37.21 203.26 38.42 M 142.85 42.82 C 138.10 44.83 132.10 47.84 131.90 53.68 C 133.89 55.79 136.59 56.02 139.34 55.95 C 144.97 53.24 151.38 53.96 157.42 54.18 C 159.48 54.96 161.77 55.15 163.67 56.32 C 166.72 58.07 170.14 59.03 173.07 61.02 C 175.95 59.74 178.50 57.73 180.76 55.54 C 180.78 54.18 180.78 52.83 180.75 51.48 C 177.65 48.41 174.00 45.98 170.39 43.55 C 168.11 42.82 165.80 42.16 163.49 41.51 C 156.62 40.24 149.53 41.18 142.85 42.82 M 214.56 46.16 C 212.45 46.87 210.31 47.47 208.19 48.12 C 205.54 49.84 203.51 52.30 200.95 54.12 C 199.37 53.55 197.89 52.69 196.15 53.12 C 194.70 52.94 194.37 54.80 193.51 55.60 C 195.95 56.92 198.34 58.42 201.00 59.30 C 201.00 62.43 201.00 65.57 201.01 68.71 C 202.61 70.20 204.17 71.81 206.14 72.81 C 207.86 73.77 209.92 74.94 210.10 77.12 C 207.43 80.74 204.76 85.34 200.00 86.23 C 198.90 85.32 197.80 84.40 196.69 83.49 C 196.09 84.59 194.81 85.51 194.91 86.87 C 195.55 88.03 196.41 89.04 197.19 90.10 C 199.61 90.01 202.03 89.92 204.45 89.68 C 207.85 86.88 211.12 83.81 213.32 79.94 C 214.28 80.80 215.25 81.65 216.23 82.51 C 216.95 81.43 217.67 80.35 218.36 79.25 C 221.48 80.60 224.89 81.34 227.65 83.43 C 228.40 83.60 229.90 83.95 230.65 84.13 C 228.09 81.67 225.03 79.69 221.40 79.50 C 218.68 77.23 216.80 74.00 213.49 72.48 C 210.81 70.36 207.91 68.61 204.97 66.90 C 204.99 64.37 205.00 61.85 205.00 59.33 C 207.20 58.38 209.37 57.38 211.58 56.43 C 214.16 56.08 216.77 55.96 219.37 55.69 C 223.26 54.57 227.35 55.21 231.32 54.67 C 232.21 54.02 233.10 53.37 234.00 52.71 C 234.00 52.09 234.02 50.85 234.02 50.23 C 232.03 48.79 230.17 47.00 227.84 46.13 C 223.43 45.76 218.98 46.00 214.56 46.16 M 121.01 51.10 C 120.99 51.56 120.97 52.48 120.96 52.94 C 123.25 53.59 125.59 54.01 127.95 54.23 L 128.01 53.00 C 126.66 53.00 125.31 53.00 123.97 53.00 L 124.01 52.32 C 125.97 51.74 127.90 51.04 129.96 50.90 L 129.93 49.69 C 126.99 50.40 124.05 51.07 121.01 51.10 M 235.36 52.89 C 237.87 52.99 240.45 52.66 242.81 53.75 C 245.99 52.85 249.32 52.93 252.60 53.02 C 254.44 54.97 256.23 57.09 258.70 58.28 C 259.91 59.00 261.42 59.65 261.89 61.11 C 263.19 63.96 264.65 67.21 263.57 70.36 C 262.66 73.15 262.92 76.49 260.71 78.71 C 258.14 81.45 254.04 81.34 251.00 83.37 C 251.00 83.81 250.99 84.67 250.99 85.11 C 253.74 83.67 256.36 81.85 259.53 81.56 C 261.82 80.00 263.70 77.63 263.85 74.78 C 264.16 71.57 265.58 68.41 264.88 65.16 C 264.07 62.73 262.78 60.51 261.69 58.21 C 258.30 57.40 256.00 54.39 253.60 52.05 C 250.32 51.99 247.05 52.00 243.77 51.94 L 243.20 52.84 C 240.77 51.39 237.42 50.07 235.36 52.89 M 127.29 55.21 C 125.96 56.59 128.52 57.28 129.28 56.21 C 130.67 54.95 127.99 54.17 127.29 55.21 M 249.95 57.06 C 249.97 57.49 249.99 58.35 250.01 58.79 C 252.80 58.84 254.94 60.39 256.92 62.21 C 256.63 65.77 257.77 69.15 258.06 72.65 C 256.17 74.43 254.25 76.19 252.09 77.64 L 252.12 78.47 C 255.05 77.88 257.00 75.56 259.09 73.64 C 259.05 69.44 257.66 65.42 257.93 61.18 C 255.68 59.04 252.91 57.87 249.95 57.06 M 237.68 61.36 C 235.09 63.21 232.49 65.04 230.09 67.13 C 227.77 66.25 225.61 65.02 223.54 63.66 C 222.63 64.92 220.94 66.88 222.63 68.24 C 226.08 71.86 231.35 70.83 235.84 71.04 C 236.72 68.93 237.63 66.79 239.40 65.26 C 241.87 65.06 244.35 64.81 246.83 65.07 C 249.02 65.67 250.29 68.43 252.82 67.77 C 253.76 66.87 253.95 65.55 254.35 64.38 C 252.51 63.29 250.81 61.96 248.84 61.13 C 245.13 60.73 241.38 60.94 237.68 61.36 M 162.90 70.99 C 163.40 71.91 163.90 72.83 164.39 73.75 C 159.18 75.84 153.49 74.76 148.04 75.00 C 148.00 75.45 147.93 76.33 147.89 76.77 C 153.47 75.01 159.51 77.09 165.02 74.94 C 165.01 73.63 165.00 72.32 165.00 71.01 C 164.47 71.00 163.42 71.00 162.90 70.99 M 169.60 71.34 C 168.39 72.31 167.20 73.29 166.00 74.27 C 166.00 77.09 166.00 79.90 166.01 82.72 C 167.86 83.94 169.27 86.51 171.81 85.74 C 172.83 84.86 172.96 83.46 173.38 82.28 C 172.26 81.71 171.13 81.14 170.00 80.59 C 169.99 79.07 169.99 77.55 169.98 76.03 C 173.23 74.92 177.17 75.64 179.78 73.03 C 177.25 69.91 173.04 71.06 169.60 71.34 M 176.30 78.17 C 173.85 79.56 175.02 82.78 176.59 84.39 C 178.38 83.13 180.32 81.10 182.72 82.18 C 185.13 83.02 189.00 84.03 190.25 80.99 C 189.62 79.50 187.78 79.15 186.53 78.34 C 183.14 78.00 179.69 77.69 176.30 78.17 M 185.00 136.00 L 185.00 137.00 C 196.00 137.00 207.00 137.00 218.00 137.00 L 218.00 136.00 C 207.00 136.00 196.00 136.00 185.00 136.00 Z" />
<path fill="#ffffff" opacity="1.00" d=" M 160.00 45.13 C 162.79 45.96 165.62 46.66 168.39 47.55 C 171.16 49.29 173.83 51.22 176.16 53.54 C 175.31 54.31 174.48 55.09 173.64 55.87 C 171.87 55.15 170.08 54.47 168.31 53.76 C 165.52 51.65 162.03 50.85 158.60 50.72 C 160.01 49.13 160.09 47.16 160.00 45.13 Z" />
<path fill="#ffffff" opacity="1.00" d=" M 139.32 48.95 C 140.77 49.02 142.22 49.11 143.67 49.22 C 141.61 50.79 139.05 51.30 136.61 52.01 C 137.51 50.98 138.42 49.97 139.32 48.95 Z" />
<path fill="#ffffff" opacity="1.00" d=" M 218.00 50.00 C 221.00 50.00 224.00 50.00 227.00 50.00 L 227.00 51.00 C 224.00 51.00 221.00 51.00 218.00 51.00 L 218.00 50.00 Z" />
<path fill="#ffffff" opacity="1.00" d=" M 88.96 50.91 C 91.94 50.90 94.96 51.00 97.80 52.04 C 101.53 54.97 105.58 58.01 107.54 62.47 C 108.64 64.72 109.87 66.90 110.82 69.21 C 111.29 73.34 110.92 77.52 110.96 81.67 C 109.64 82.90 108.32 84.14 107.00 85.38 C 106.60 79.43 108.16 73.11 105.55 67.51 C 104.31 65.05 102.43 62.92 101.70 60.22 C 100.00 56.96 96.57 55.28 93.75 53.14 C 92.18 52.62 90.60 52.13 89.02 51.66 L 88.96 50.91 Z" />
<path fill="#ffffff" opacity="1.00" d=" M 74.97 57.04 C 77.51 55.10 79.85 52.77 83.04 51.89 C 86.19 53.62 89.91 54.20 93.17 55.82 C 96.01 56.73 97.83 59.24 99.40 61.62 C 101.13 64.93 103.40 67.97 104.54 71.56 C 105.33 76.26 104.95 81.03 104.98 85.77 C 103.13 87.53 100.74 87.99 98.27 88.18 C 98.25 84.30 95.07 81.93 93.33 78.78 C 92.91 77.00 91.99 75.43 90.90 73.99 C 90.18 73.98 88.72 73.96 88.00 73.96 C 87.50 75.60 89.20 75.99 90.18 76.85 C 90.83 77.98 91.05 79.29 91.56 80.48 C 92.77 82.85 94.96 84.66 95.89 87.16 C 96.14 91.91 95.65 96.72 96.93 101.38 C 95.45 105.30 93.51 109.12 93.74 113.44 C 92.19 118.11 91.79 123.21 89.28 127.51 C 86.80 125.40 84.45 123.12 82.48 120.52 C 81.57 114.40 78.96 108.64 75.45 103.57 C 72.34 99.09 71.24 93.69 69.35 88.67 C 67.50 86.25 66.82 83.32 66.18 80.41 C 65.84 74.40 66.02 68.38 66.03 62.37 C 68.12 60.38 70.16 58.33 72.21 56.31 C 72.90 56.49 74.28 56.86 74.97 57.04 Z" />
<path fill="#ffffff" opacity="1.00" d=" M 117.34 82.74 C 115.78 79.36 112.59 75.63 114.97 71.88 C 120.86 75.16 127.11 77.78 132.96 81.15 C 132.91 84.24 132.96 87.37 133.76 90.38 C 127.96 88.59 122.90 85.11 117.34 82.74 Z" />
<path fill="#ffffff" opacity="1.00" d=" M 136.85 82.75 C 141.23 83.56 145.27 85.55 149.64 86.44 C 153.83 87.92 158.35 88.45 162.32 90.53 C 160.54 93.11 160.98 96.46 159.82 99.32 C 154.32 97.43 149.18 94.16 143.26 93.77 C 141.20 91.77 139.19 89.71 137.38 87.48 C 137.18 85.90 137.01 84.33 136.85 82.75 Z" />
<path fill="#ffffff" opacity="1.00" d=" M 242.13 83.27 C 243.56 83.16 244.47 85.62 243.87 86.79 C 242.44 86.87 241.54 84.43 242.13 83.27 Z" />
<path fill="#ffffff" opacity="1.00" d=" M 237.02 89.10 C 237.45 88.20 237.92 87.32 238.43 86.46 C 239.94 90.12 241.30 93.85 242.22 97.72 C 240.81 98.54 239.40 99.35 238.00 100.17 C 237.91 96.46 238.36 92.63 237.02 89.10 Z" />
<path fill="#ffffff" opacity="1.00" d=" M 244.24 89.24 L 244.76 89.24 L 244.76 89.75 L 244.24 89.75 L 244.24 89.24 Z" />
<path fill="#ffffff" opacity="1.00" d=" M 120.69 89.59 C 124.72 91.57 128.81 93.43 132.88 95.34 C 133.67 98.45 135.21 102.26 132.11 104.65 C 127.56 100.24 124.23 94.80 120.69 89.59 Z" />
<path fill="#ffffff" opacity="1.00" d=" M 225.73 94.54 C 228.17 93.41 230.59 92.22 232.97 90.96 C 234.51 94.53 233.95 98.34 232.85 101.94 C 230.79 101.88 228.80 102.07 227.19 103.48 C 227.49 102.36 227.72 101.24 227.90 100.10 C 227.18 98.24 226.30 96.45 225.73 94.54 Z" />
<path fill="#ffffff" opacity="1.00" d=" M 101.44 91.87 C 102.63 92.34 103.81 92.81 105.00 93.27 C 105.01 100.18 104.97 107.09 105.04 114.00 C 105.04 117.16 105.03 120.44 103.82 123.41 C 99.11 127.01 93.75 131.35 92.85 137.56 C 91.37 140.20 89.64 142.73 88.69 145.63 C 90.83 143.60 92.10 140.91 93.75 138.52 C 94.69 132.89 99.38 129.05 103.10 125.12 C 104.58 124.96 106.07 124.80 107.55 124.61 C 109.27 123.65 110.86 122.50 112.55 121.50 C 115.14 120.25 117.97 119.65 120.59 118.45 C 124.05 117.89 127.57 117.86 131.06 117.98 C 133.83 117.81 135.84 120.01 138.09 121.25 C 137.70 124.81 134.41 127.04 131.68 128.92 C 129.84 129.17 128.05 129.68 126.24 130.09 C 126.54 130.77 126.84 131.45 127.15 132.13 C 123.62 129.93 119.32 131.18 115.41 131.32 C 110.23 132.89 106.62 137.25 102.24 140.22 C 101.44 144.87 99.24 149.03 96.07 152.48 C 96.03 153.98 96.00 155.48 95.97 156.99 C 98.26 157.87 98.25 154.83 99.30 153.58 C 98.62 153.63 97.28 153.74 96.61 153.79 C 97.64 152.51 98.70 151.21 100.17 150.39 C 99.78 151.12 99.00 152.58 98.61 153.31 C 101.30 153.66 101.87 150.85 103.22 149.17 C 104.59 147.28 104.33 143.76 107.12 143.23 C 111.40 142.05 115.41 140.09 119.62 138.68 C 122.16 136.88 124.63 134.97 127.23 133.23 C 132.69 131.68 138.37 130.62 144.08 130.99 C 144.11 133.95 144.04 136.96 142.93 139.75 C 140.98 140.40 139.16 141.43 137.16 141.86 C 133.71 142.41 130.30 143.50 127.36 145.41 C 124.32 146.70 121.24 147.91 118.19 149.19 C 115.05 151.32 112.33 154.01 109.39 156.39 C 107.44 160.52 104.43 163.98 101.57 167.51 C 101.06 169.10 100.55 170.69 100.01 172.28 C 100.65 172.08 101.93 171.67 102.57 171.47 C 105.82 168.34 109.04 164.94 113.38 163.37 C 116.64 162.22 119.40 160.09 122.44 158.50 C 124.10 158.01 125.86 158.00 127.55 157.59 C 128.99 156.68 130.25 155.52 131.59 154.47 C 134.38 153.56 137.46 151.95 140.34 153.37 C 139.61 156.08 138.13 158.48 136.64 160.83 C 130.67 161.26 126.93 166.61 121.61 168.64 C 119.77 169.27 118.09 170.26 116.45 171.29 C 114.60 174.05 112.37 176.54 109.99 178.86 C 109.95 182.53 110.21 186.21 109.88 189.87 C 108.94 192.14 107.03 193.88 106.12 196.16 C 105.77 200.10 106.06 204.06 106.00 208.00 C 105.53 208.00 104.59 208.00 104.12 208.00 C 104.01 210.16 103.88 212.33 103.60 214.49 C 101.48 218.22 99.67 222.14 97.11 225.59 C 96.41 231.89 97.65 238.08 98.14 244.32 C 92.08 242.55 85.73 242.01 79.44 241.68 C 75.57 240.02 73.46 235.98 69.58 234.36 C 66.95 232.57 65.35 229.73 63.34 227.34 C 63.06 223.23 62.33 218.84 63.99 214.94 C 64.57 212.79 66.35 211.28 67.23 209.28 C 68.04 207.35 68.54 205.32 69.33 203.38 C 69.92 200.64 70.05 197.76 71.44 195.26 C 72.52 190.24 71.84 185.08 71.99 180.00 C 72.17 176.00 71.35 171.79 72.88 167.97 C 74.73 163.38 73.59 158.31 74.37 153.52 C 75.34 151.67 76.40 149.86 77.42 148.03 C 77.68 148.01 78.21 147.97 78.48 147.95 C 80.22 144.65 82.69 141.88 85.15 139.12 C 87.16 135.38 88.39 131.22 90.61 127.58 C 92.66 124.40 92.89 120.52 94.05 117.00 C 95.14 113.79 94.52 110.18 96.12 107.11 C 97.76 103.26 99.31 98.46 96.80 94.68 C 97.28 95.04 98.24 95.74 98.73 96.09 C 98.74 95.77 98.78 95.11 98.80 94.79 C 99.68 93.82 100.57 92.85 101.44 91.87 Z" />
<path fill="#ffffff" opacity="1.00" d=" M 166.14 91.72 C 170.89 92.58 175.53 93.96 180.28 94.78 C 182.15 95.15 184.58 94.48 185.85 96.29 C 186.15 98.84 186.01 101.42 186.02 103.99 C 181.53 103.84 176.67 104.73 172.53 102.62 C 169.58 102.01 166.64 101.37 163.70 100.76 C 165.29 97.99 165.08 94.68 166.14 91.72 Z" />
<path fill="#ffffff" opacity="1.00" d=" M 207.25 96.99 C 212.22 97.36 217.09 96.16 221.95 95.27 C 222.05 97.99 222.71 100.58 224.02 102.97 C 222.22 103.03 220.43 103.10 218.65 103.25 C 215.26 104.40 211.65 103.98 208.14 104.00 C 208.05 101.64 207.88 99.28 207.25 96.99 Z" />
<path fill="#ffffff" opacity="1.00" d=" M 190.01 95.88 C 194.33 96.08 198.50 97.47 202.87 97.05 C 203.29 99.36 203.86 101.65 204.26 103.97 C 199.51 104.02 194.75 104.00 190.00 104.00 C 190.00 101.29 190.00 98.59 190.01 95.88 Z" />
<path fill="#ffffff" opacity="1.00" d=" M 138.00 97.86 C 141.02 99.74 144.28 101.21 147.64 102.37 C 150.34 104.14 153.52 104.79 156.64 105.41 C 158.40 105.80 158.04 107.65 158.08 109.02 C 158.36 111.25 156.64 112.90 155.60 114.67 C 154.99 116.47 154.40 118.26 153.81 120.06 C 147.10 116.54 141.09 111.90 134.87 107.63 C 135.90 106.62 136.93 105.62 137.97 104.62 C 137.98 102.36 137.99 100.11 138.00 97.86 Z" />
<path fill="#ffffff" opacity="1.00" d=" M 162.00 107.03 C 168.51 109.51 175.09 112.01 182.00 113.12 C 182.00 116.60 181.99 120.08 181.98 123.56 C 181.68 123.91 181.08 124.60 180.78 124.95 C 181.13 125.48 181.83 126.56 182.17 127.09 C 177.89 126.95 173.73 125.89 169.48 125.45 C 165.68 123.74 161.35 123.55 157.70 121.48 C 158.69 120.04 159.10 118.35 159.57 116.68 C 160.36 115.41 161.37 114.25 161.89 112.83 C 162.11 110.90 162.00 108.96 162.00 107.03 Z" />
<path fill="#ffffff" opacity="1.00" d=" M 57.39 114.44 C 63.80 112.87 69.41 108.96 75.93 107.76 C 76.90 110.52 77.63 113.38 78.95 116.01 C 80.29 118.61 80.11 121.73 81.79 124.18 C 83.93 126.10 86.39 127.67 88.24 129.92 C 86.85 132.67 85.41 135.41 84.55 138.38 C 81.85 140.92 79.55 143.87 77.43 146.91 C 77.17 146.94 76.67 147.01 76.42 147.04 C 75.40 148.86 74.34 150.67 73.37 152.52 C 72.86 156.47 73.03 160.45 72.86 164.42 C 72.22 166.29 71.67 168.20 71.02 170.08 C 70.65 178.13 71.70 186.27 70.45 194.25 C 68.59 197.47 69.03 201.33 67.79 204.76 C 65.61 206.06 63.60 207.66 62.36 209.92 C 62.11 209.95 61.62 210.01 61.37 210.04 C 60.59 215.71 56.08 220.12 55.85 225.91 C 55.26 231.67 52.67 237.13 52.96 242.99 C 52.80 250.14 53.51 257.34 52.54 264.44 C 51.90 266.17 51.21 267.88 50.16 269.42 C 50.06 272.14 47.94 274.27 48.13 277.06 C 47.65 286.81 48.41 296.60 47.76 306.36 C 46.58 309.92 47.10 313.71 46.83 317.40 C 45.85 320.87 44.85 324.35 44.92 328.00 C 45.66 328.00 47.15 327.99 47.90 327.99 C 48.06 324.86 49.64 322.02 49.90 318.92 C 50.07 316.59 50.97 314.39 50.92 312.04 C 51.15 302.02 50.89 291.99 51.01 281.97 C 50.90 275.83 54.99 270.68 55.88 264.75 C 56.38 256.28 55.45 247.77 56.36 239.34 C 57.92 234.75 59.20 229.92 59.03 224.99 L 59.81 225.00 C 59.31 229.29 62.36 232.42 64.42 235.80 C 69.12 237.13 71.54 242.25 75.90 244.17 C 79.28 245.31 82.88 244.95 86.38 245.22 C 88.77 245.83 91.22 246.17 93.62 246.77 C 96.71 247.06 99.98 246.59 102.86 248.01 C 104.51 247.78 106.13 247.39 107.73 246.93 C 110.18 244.88 113.00 243.40 115.67 241.70 C 115.96 239.24 117.50 237.32 118.90 235.37 C 119.10 239.82 118.84 244.28 119.19 248.72 C 121.01 256.11 119.34 263.84 120.24 271.36 C 122.08 277.15 120.00 283.42 121.73 289.23 C 122.35 293.12 121.89 297.08 122.00 301.00 C 121.86 308.18 122.34 315.39 121.68 322.56 C 120.45 325.30 118.25 327.38 116.10 329.40 C 114.28 326.67 110.60 328.31 108.02 328.87 C 107.36 328.58 106.69 328.28 106.03 327.99 C 97.02 328.00 88.01 328.02 79.00 327.98 C 75.78 328.00 72.46 327.67 69.35 328.76 C 61.24 329.29 53.10 328.87 44.97 329.00 C 43.95 328.67 43.16 329.42 42.27 329.73 C 41.34 326.10 38.42 323.52 36.52 320.41 C 35.44 314.14 32.62 308.39 30.54 302.42 C 29.58 299.48 27.61 296.90 27.21 293.80 C 26.12 287.01 23.92 280.47 22.13 273.86 C 19.84 268.91 18.81 263.49 16.24 258.66 C 14.50 253.80 13.91 248.62 12.45 243.68 C 9.77 240.15 10.58 235.31 8.50 231.52 C 7.96 227.69 7.83 223.81 7.03 220.02 C 7.06 206.22 6.78 192.40 7.20 178.61 C 8.42 174.62 8.67 170.31 10.51 166.53 C 10.98 163.79 10.86 160.98 11.30 158.24 C 13.01 152.21 10.58 145.46 13.83 139.83 C 16.32 136.83 19.54 134.47 21.63 131.12 C 22.80 130.93 23.08 129.55 23.90 128.86 C 26.42 126.25 30.22 125.85 33.37 124.35 C 35.95 123.12 38.65 122.18 41.40 121.43 C 42.82 120.47 44.23 119.48 45.64 118.52 C 47.42 118.12 49.18 117.69 50.66 116.57 C 52.91 115.89 55.13 115.09 57.39 114.44 Z" />
<path fill="#ffffff" opacity="1.00" d=" M 238.57 120.84 C 239.90 117.15 241.24 113.38 243.87 110.39 C 243.39 114.29 240.98 117.41 239.68 121.03 L 238.57 120.84 Z" />
<path fill="#ffffff" opacity="1.00" d=" M 186.02 113.64 C 191.02 116.18 196.82 116.13 202.30 116.04 C 200.92 119.90 200.93 124.04 199.85 127.98 C 194.98 127.92 190.00 128.54 185.27 127.09 C 186.47 122.70 185.91 118.12 186.02 113.64 Z" />
<path fill="#ffffff" opacity="1.00" d=" M 233.23 115.26 C 234.28 114.79 235.34 114.32 236.39 113.85 C 235.16 116.04 234.95 118.58 233.76 120.79 C 234.69 121.27 235.62 121.75 236.56 122.22 L 238.10 120.37 C 237.77 121.76 236.70 122.69 235.67 123.58 C 233.25 123.92 230.85 124.28 228.62 125.31 C 229.77 121.78 231.90 118.71 233.23 115.26 Z" />
<path fill="#ffffff" opacity="1.00" d=" M 106.00 114.91 C 107.97 116.68 109.52 119.23 110.46 121.78 C 108.51 122.60 106.53 123.34 104.55 124.09 C 106.65 121.44 105.82 118.03 106.00 114.91 Z" />
<path fill="#ffffff" opacity="1.00" d=" M 221.25 117.05 C 223.64 117.05 225.91 116.38 228.18 115.68 C 226.75 118.47 225.39 121.30 223.88 124.05 C 224.19 124.52 224.80 125.47 225.10 125.94 C 222.53 125.95 220.07 126.60 217.62 127.30 C 219.01 123.95 220.62 120.66 221.25 117.05 Z" />
<path fill="#ffffff" opacity="1.00" d=" M 260.99 115.97 C 262.70 115.75 261.81 118.50 262.45 119.53 C 263.95 121.36 265.62 123.05 267.23 124.79 C 270.05 127.80 271.62 131.68 274.03 134.98 C 277.14 139.15 280.08 143.65 281.17 148.81 C 281.57 151.13 283.04 153.04 283.81 155.24 C 284.18 158.26 283.96 161.33 284.21 164.37 C 285.39 169.12 286.25 173.95 287.84 178.59 C 288.24 182.94 287.40 187.43 288.75 191.66 C 289.15 195.90 288.60 200.42 290.61 204.33 C 292.09 206.97 291.93 210.07 292.03 212.99 C 291.97 226.99 292.01 241.00 292.00 255.00 C 291.98 259.18 292.27 263.39 291.52 267.53 C 289.93 269.86 290.18 272.79 289.68 275.46 C 287.08 273.75 284.20 272.24 282.43 269.58 C 281.03 267.46 279.28 265.60 277.03 264.38 C 276.97 256.59 277.01 248.79 277.00 241.00 C 272.36 241.00 267.73 241.00 263.09 240.99 C 262.41 243.50 261.89 246.06 261.24 248.58 C 261.08 251.68 260.98 254.82 259.99 257.80 C 258.09 257.98 256.20 258.22 254.36 258.76 C 248.26 259.25 242.12 258.90 236.01 259.00 C 236.14 253.82 235.52 248.57 236.54 243.45 C 238.38 239.01 237.54 233.97 239.57 229.60 C 241.41 226.71 243.46 223.97 245.66 221.34 C 246.25 216.45 245.93 211.51 246.02 206.60 C 252.02 203.28 255.01 195.81 261.79 193.80 C 264.47 193.37 264.04 188.60 266.96 188.94 L 267.01 188.00 C 266.28 188.00 264.81 188.00 264.08 188.00 C 264.04 188.72 263.96 190.16 263.92 190.88 C 262.23 192.01 260.42 192.89 258.49 193.51 C 254.66 197.10 251.15 200.98 247.72 204.94 C 246.14 204.98 244.56 205.01 242.99 205.04 C 242.80 209.93 243.79 215.06 241.89 219.73 C 239.93 222.56 238.07 225.45 236.10 228.27 C 234.64 231.72 235.23 235.56 234.09 239.08 C 232.28 244.75 233.25 250.77 232.97 256.62 C 232.17 257.42 231.39 258.23 230.61 259.05 C 227.56 258.92 224.27 259.20 221.53 257.62 C 219.00 257.09 216.48 256.60 213.99 255.92 C 214.01 250.61 214.00 245.31 214.00 240.00 C 210.45 239.99 206.91 239.99 203.37 240.03 C 202.59 240.81 201.80 241.59 201.02 242.37 C 200.88 246.46 201.55 250.69 200.23 254.65 C 199.88 258.71 200.41 262.90 198.98 266.80 C 195.41 267.16 191.93 268.09 188.32 268.12 C 185.03 271.31 181.88 274.67 179.33 278.50 C 178.53 282.03 179.39 285.77 178.32 289.26 C 177.14 294.22 176.89 299.28 176.77 304.35 C 175.77 307.09 175.97 310.02 175.96 312.89 C 171.42 313.32 167.01 314.53 162.57 315.56 C 158.03 319.72 151.89 321.07 145.96 321.74 C 145.98 319.85 145.99 317.96 146.00 316.08 C 147.90 316.03 149.82 316.09 151.70 315.81 C 152.99 315.18 153.43 313.69 152.82 312.43 C 151.73 311.08 150.44 309.92 149.20 308.73 C 148.29 309.25 147.38 309.77 146.47 310.29 C 145.71 311.38 144.94 312.45 144.16 313.52 C 142.77 312.24 141.40 310.94 140.02 309.66 C 140.01 307.96 140.02 306.26 140.03 304.57 C 142.12 306.22 145.96 306.98 147.81 304.69 C 148.03 303.20 148.04 301.69 148.11 300.19 C 145.17 299.40 142.14 298.95 139.10 298.87 C 138.21 297.89 138.19 295.52 136.44 295.99 C 135.75 294.17 133.27 292.51 134.34 290.42 C 136.02 286.72 137.71 283.01 140.26 279.80 C 141.63 281.15 142.99 282.50 144.34 283.88 C 145.01 283.94 146.35 284.06 147.02 284.13 C 147.01 281.84 147.13 279.55 146.86 277.28 C 145.80 275.73 143.79 276.09 142.18 275.79 C 141.72 274.57 141.26 273.35 140.81 272.14 C 142.98 269.15 144.39 265.54 147.47 263.30 C 149.62 263.11 151.79 263.00 153.95 262.90 C 153.89 266.30 153.90 269.76 155.06 273.01 C 156.68 273.01 158.31 273.01 159.94 273.01 C 160.90 270.20 161.11 267.24 161.09 264.29 C 159.65 263.75 158.23 263.19 156.81 262.65 C 157.25 259.63 159.91 257.77 162.19 256.07 C 164.94 255.26 167.74 254.59 170.49 253.77 C 171.73 256.53 173.19 259.20 174.35 262.00 C 174.68 262.00 175.35 262.00 175.69 262.00 C 176.11 259.00 178.53 256.44 177.95 253.32 C 176.53 251.34 173.84 252.20 171.79 251.84 C 172.08 249.26 172.49 246.69 173.12 244.17 C 176.14 244.03 179.13 243.60 182.06 242.83 C 182.02 240.98 182.08 239.13 181.83 237.30 C 181.12 235.86 179.55 235.78 178.16 235.98 C 175.46 237.31 173.21 239.37 170.90 241.27 C 168.94 236.94 170.70 232.47 172.12 228.31 C 175.27 227.72 178.41 226.82 181.21 225.22 C 182.66 224.44 182.87 222.63 183.49 221.26 C 181.22 220.50 178.87 219.98 176.47 219.88 C 174.98 221.48 173.45 223.04 171.88 224.56 C 170.30 222.56 168.07 220.54 168.12 217.80 C 167.12 212.34 171.36 208.12 174.19 204.00 C 175.76 204.00 177.34 204.00 178.91 204.01 C 179.28 202.74 179.70 201.49 179.96 200.21 C 178.77 198.73 176.30 198.36 174.93 199.78 C 173.66 200.48 172.69 202.14 171.12 202.06 C 168.43 200.64 166.15 198.59 163.83 196.66 C 163.93 193.46 164.85 190.35 166.59 187.65 C 167.05 187.97 167.96 188.61 168.42 188.93 C 169.95 188.97 171.47 189.00 173.00 189.04 C 173.00 188.53 172.99 187.52 172.98 187.02 C 173.55 187.00 174.67 186.96 175.24 186.95 C 174.91 185.28 175.28 183.22 173.71 182.10 C 170.82 181.42 167.91 182.12 165.78 184.22 C 163.41 181.95 161.09 179.63 158.82 177.25 C 159.92 175.62 160.86 173.88 161.47 172.00 C 162.63 171.99 163.79 171.98 164.95 171.97 C 164.98 171.64 165.05 170.96 165.08 170.63 C 168.15 168.81 169.90 165.59 172.98 163.77 C 173.00 161.73 173.02 159.70 173.07 157.67 C 176.69 159.33 180.70 158.75 184.53 159.51 C 189.22 161.73 194.57 161.74 199.36 163.57 C 204.13 164.55 208.89 165.57 213.60 166.81 C 221.88 167.17 230.18 167.04 238.46 166.87 C 245.36 164.57 252.77 162.40 257.74 156.72 C 260.32 153.27 263.31 149.62 263.03 145.03 C 262.87 139.72 263.60 134.23 261.90 129.10 C 260.50 124.87 261.15 120.34 260.99 115.97 Z" />
<path fill="#ffffff" opacity="1.00" d=" M 207.07 116.98 C 210.39 117.00 213.71 117.00 217.03 117.00 C 215.72 120.38 214.18 123.68 212.69 126.99 C 209.97 127.96 207.08 128.09 204.22 128.13 C 205.15 124.38 204.99 120.37 207.07 116.98 Z" />
<path fill="#ffffff" opacity="1.00" d=" M 134.08 128.26 C 136.08 127.16 138.11 126.08 140.37 125.67 C 139.53 126.77 138.66 127.86 137.80 128.94 C 136.92 128.98 135.16 129.04 134.28 129.07 L 134.08 128.26 Z" />
<path fill="#ffffff" opacity="1.00" d=" M 142.33 128.01 C 146.15 128.00 150.12 127.55 153.73 129.11 C 156.42 130.99 159.15 132.82 161.98 134.50 C 161.99 134.87 162.02 135.60 162.04 135.97 C 162.47 135.98 163.32 136.00 163.75 136.00 C 164.50 139.79 167.96 142.08 169.96 145.21 C 171.82 150.49 170.77 156.18 170.96 161.65 C 169.30 163.21 167.67 164.80 166.03 166.39 C 166.03 163.50 166.13 160.58 165.45 157.75 C 164.23 155.56 163.89 153.07 163.48 150.65 C 161.11 147.15 158.69 143.68 156.49 140.07 C 156.27 140.03 155.83 139.94 155.61 139.89 C 152.98 136.30 149.86 131.91 145.00 131.80 C 145.00 131.36 145.01 130.46 145.01 130.01 C 143.54 130.00 142.08 130.00 140.62 130.00 C 141.05 129.50 141.90 128.51 142.33 128.01 Z" />
<path fill="#ffffff" opacity="1.00" d=" M 133.44 129.38 C 135.67 130.64 130.57 132.36 130.35 130.42 C 131.21 129.64 132.24 129.30 133.44 129.38 Z" />
<path fill="#ffffff" opacity="1.00" d=" M 115.44 132.40 C 117.26 132.16 119.09 131.99 120.93 131.83 C 121.39 132.98 121.84 134.13 122.27 135.29 C 117.49 139.21 111.13 139.95 105.76 142.78 C 104.08 143.97 103.55 146.13 102.64 147.88 C 102.14 148.24 101.14 148.94 100.64 149.30 C 101.37 146.52 102.51 143.88 103.27 141.11 C 107.02 137.82 110.96 134.65 115.44 132.40 Z" />
<path fill="#ffffff" opacity="1.00" d=" M 145.38 133.86 C 147.09 135.04 148.81 136.23 150.54 137.40 C 154.61 142.15 157.98 147.41 161.43 152.62 C 162.01 154.65 162.34 156.78 163.29 158.69 C 164.76 161.88 164.01 165.56 162.97 168.77 C 161.69 169.25 160.42 169.76 159.14 170.26 C 159.10 169.46 159.01 167.87 158.96 167.08 C 156.63 165.51 154.28 163.61 151.28 164.10 C 149.48 165.38 150.15 167.79 149.85 169.68 C 152.05 170.44 154.23 171.27 156.39 172.18 C 155.97 173.44 155.85 174.93 154.75 175.85 C 147.96 176.21 141.06 176.37 134.43 174.70 C 131.57 172.04 128.17 170.10 124.57 168.66 C 128.67 166.01 132.55 162.45 137.57 161.82 C 139.18 159.30 141.07 156.93 141.32 153.84 C 140.63 153.15 139.94 152.47 139.26 151.79 C 136.52 151.91 133.79 152.20 131.16 152.99 C 129.72 154.13 128.38 155.41 127.32 156.93 C 125.50 156.97 123.69 157.00 121.88 157.04 C 120.09 159.53 116.97 160.07 114.49 161.59 C 112.10 162.73 110.24 160.56 108.47 159.28 C 113.03 154.79 117.79 150.08 124.02 148.04 C 127.18 147.09 130.00 145.32 133.06 144.12 C 137.10 144.36 140.73 146.30 144.58 147.35 C 143.54 143.94 140.08 142.99 137.16 141.86 C 138.64 141.95 140.12 142.01 141.61 142.04 C 142.70 140.90 143.81 139.77 144.94 138.67 C 145.10 137.06 145.26 135.46 145.38 133.86 Z" />
<path fill="#ffffff" opacity="1.00" d=" M 102.53 169.41 C 103.71 166.50 105.60 163.96 107.66 161.63 C 108.33 162.07 109.67 162.96 110.34 163.41 C 107.77 165.44 105.16 167.44 102.53 169.41 Z" />
<path fill="#ffffff" opacity="1.00" d=" M 152.32 167.20 C 153.76 166.45 155.73 167.33 156.73 168.46 C 156.01 170.02 151.95 169.07 152.32 167.20 Z" />
<path fill="#ffffff" opacity="1.00" d=" M 102.04 169.42 L 102.53 169.41 L 102.56 169.90 L 102.06 169.92 L 102.04 169.42 Z" />
<path fill="#ffffff" opacity="1.00" d=" M 111.02 179.37 C 114.70 176.42 117.03 172.15 121.13 169.71 C 123.01 170.53 124.87 171.38 126.73 172.25 C 130.33 174.55 133.89 177.37 138.25 177.91 C 144.42 178.09 150.59 177.97 156.76 178.00 C 159.30 180.99 161.35 184.56 165.03 186.31 C 164.12 187.41 163.22 188.53 162.33 189.65 C 161.98 192.55 161.96 195.48 162.00 198.39 C 164.80 200.31 167.32 202.61 170.18 204.44 C 169.14 207.19 167.45 209.59 166.10 212.18 C 165.74 215.26 166.00 218.38 166.33 221.46 C 167.77 223.16 169.29 224.79 170.85 226.39 C 169.99 228.09 169.19 229.81 168.40 231.54 C 167.89 234.87 167.95 238.24 168.02 241.60 C 169.14 242.69 170.25 243.80 171.35 244.91 C 169.06 246.55 170.34 249.53 169.98 251.90 C 166.95 252.16 164.12 253.33 161.20 254.11 C 158.42 255.75 156.26 258.17 154.70 260.97 C 151.89 261.00 149.09 261.01 146.29 261.02 C 143.67 263.64 141.48 266.63 139.35 269.66 C 138.93 271.99 138.92 274.39 139.58 276.69 C 136.51 279.92 134.90 284.12 132.42 287.75 C 132.14 289.42 131.85 291.13 132.01 292.84 C 133.42 295.75 135.66 298.14 137.66 300.65 C 138.06 303.98 138.04 307.35 138.02 310.71 C 139.88 312.49 141.78 314.24 143.97 315.61 C 143.99 317.63 144.00 319.64 144.00 321.66 C 137.51 324.58 130.79 327.26 123.70 328.22 C 124.06 325.81 124.99 323.50 124.92 321.03 C 125.13 312.02 124.91 303.01 125.02 294.00 C 125.00 290.78 125.33 287.45 124.24 284.36 C 123.78 279.67 124.20 274.96 123.81 270.28 C 121.72 262.33 124.28 253.87 122.11 245.92 C 121.41 239.29 123.09 232.42 120.93 225.97 C 120.46 225.98 119.50 226.00 119.02 226.01 C 118.74 223.12 119.88 219.64 117.79 217.24 C 114.96 213.35 111.86 209.24 107.01 207.87 C 107.04 204.31 106.78 200.73 107.12 197.18 C 108.34 194.47 110.67 192.18 110.93 189.06 C 111.15 185.83 110.98 182.60 111.02 179.37 Z" />
<path fill="#ffffff" opacity="1.00" d=" M 167.62 185.33 C 169.27 184.79 170.91 184.24 172.57 183.75 C 171.83 185.02 171.06 186.28 170.26 187.53 C 169.38 186.79 168.50 186.06 167.62 185.33 Z" />
<path fill="#ffffff" opacity="1.00" d=" M 105.47 211.50 C 108.26 212.56 110.34 214.76 112.71 216.50 C 113.61 218.48 115.03 220.17 115.87 222.18 C 116.24 225.92 115.99 229.70 115.89 233.46 C 114.29 235.12 113.22 237.16 112.06 239.12 C 108.52 242.40 103.98 244.52 99.06 244.14 C 99.00 242.47 98.95 240.81 98.86 239.14 C 97.45 235.06 98.06 230.67 98.08 226.44 C 100.68 221.53 104.23 216.98 105.47 211.50 Z" />
<path fill="#ffffff" opacity="1.00" d=" M 177.26 222.01 C 178.07 222.01 179.69 222.02 180.50 222.02 C 178.81 223.64 177.00 225.08 174.57 225.22 C 175.46 224.14 176.36 223.08 177.26 222.01 Z" />
<path fill="#ffffff" opacity="1.00" d=" M 175.09 242.31 C 174.16 239.74 177.50 239.39 178.90 237.98 C 179.40 238.87 179.89 239.76 180.38 240.66 C 178.62 241.23 176.87 241.80 175.09 242.31 Z" />
<path fill="#ffffff" opacity="1.00" d=" M 206.36 243.05 C 207.90 243.02 209.45 242.99 211.00 242.96 C 211.00 248.29 211.01 253.62 210.99 258.96 C 213.79 259.72 216.67 260.09 219.53 260.57 C 222.67 262.42 226.50 261.91 230.00 262.03 C 239.12 261.82 248.25 262.32 257.36 261.76 C 259.19 261.22 261.09 260.98 262.99 260.80 C 264.41 255.75 264.15 250.43 265.33 245.32 C 265.57 245.03 266.04 244.44 266.27 244.14 C 268.84 243.85 271.42 243.99 274.00 243.98 C 274.02 251.53 273.96 259.08 274.04 266.63 C 277.90 270.19 281.30 274.24 285.45 277.47 C 290.44 278.66 295.59 280.08 299.85 283.05 C 301.05 289.73 300.74 296.85 303.97 303.02 C 305.76 308.56 307.10 314.25 309.56 319.57 C 310.20 323.46 309.90 327.43 310.23 331.35 C 310.84 333.16 311.08 335.06 311.04 336.98 C 310.95 349.93 311.03 362.89 310.99 375.84 C 306.33 377.21 301.43 377.30 296.63 376.74 C 293.13 375.80 289.43 376.10 285.97 374.96 C 285.98 374.22 286.00 372.74 286.01 372.00 C 256.08 372.00 226.15 372.00 196.23 372.00 C 195.89 373.65 196.34 375.76 194.72 376.85 C 191.60 377.26 188.36 377.26 185.36 376.24 C 182.63 375.99 179.89 375.98 177.15 375.96 C 175.21 368.90 176.07 361.49 176.19 354.28 C 178.09 347.59 176.02 340.49 177.67 333.76 C 177.99 331.93 178.00 330.06 178.33 328.24 C 180.06 320.85 177.84 313.07 179.80 305.72 C 180.03 302.68 180.00 299.64 180.19 296.60 C 181.57 292.44 181.81 288.05 183.01 283.87 C 182.77 283.38 182.28 282.42 182.04 281.94 C 183.95 278.21 187.37 275.59 189.55 272.05 C 193.17 270.90 196.91 270.20 200.68 269.79 C 201.45 269.08 202.21 268.37 202.99 267.66 C 203.06 263.89 202.53 260.00 203.76 256.35 C 204.09 252.70 204.01 249.02 204.03 245.36 C 204.81 244.59 205.58 243.82 206.36 243.05 M 216.34 277.38 C 213.13 279.82 209.79 282.11 206.75 284.77 C 204.68 286.52 204.30 289.45 202.31 291.26 C 200.85 294.53 200.52 298.21 201.37 301.69 C 202.73 304.75 204.39 307.83 206.81 310.19 C 211.27 312.83 215.82 315.36 220.39 317.82 C 224.44 318.96 228.67 319.23 232.75 320.28 C 235.12 320.96 237.39 322.19 239.94 322.02 C 246.58 321.89 253.23 322.25 259.86 321.85 C 263.28 320.29 266.85 319.15 270.56 318.48 C 273.72 315.55 276.16 311.99 278.63 308.50 C 279.22 306.74 278.96 304.82 279.11 303.00 C 279.83 303.00 281.27 303.00 282.00 303.00 C 282.00 302.25 282.00 300.75 282.00 300.00 C 281.50 300.00 280.49 300.00 279.98 300.00 C 280.00 297.98 280.02 295.96 280.06 293.94 C 278.81 291.49 277.73 288.78 275.20 287.37 C 275.11 286.86 274.94 285.83 274.85 285.32 C 270.79 281.27 266.76 277.19 262.49 273.36 C 258.51 271.17 253.95 272.37 249.64 271.76 C 247.83 271.15 245.93 270.92 244.02 270.96 C 237.65 270.98 231.27 271.08 224.89 270.92 C 221.57 272.41 218.90 274.85 216.34 277.38 Z" />
<path fill="#ffffff" opacity="1.00" d=" M 173.62 254.11 C 174.06 254.11 174.94 254.11 175.39 254.11 C 176.01 254.93 175.43 256.83 174.23 256.60 C 173.36 255.91 173.15 255.08 173.62 254.11 Z" />
<path fill="#ffffff" opacity="1.00" d=" M 155.89 264.57 C 157.02 265.10 158.15 265.65 159.28 266.21 C 159.10 268.20 158.67 270.16 157.15 271.58 C 156.08 269.39 155.92 266.96 155.89 264.57 Z" />
<path fill="#ffffff" opacity="1.00" d=" M 217.85 278.05 C 219.30 275.02 222.82 273.71 225.45 271.80 C 232.96 272.21 240.49 271.91 248.00 272.00 L 248.00 273.00 C 247.25 273.00 245.75 273.00 245.00 273.00 C 245.00 274.33 245.00 275.66 245.00 277.00 C 247.33 277.00 249.67 277.00 252.00 277.00 C 252.00 276.25 252.00 274.75 252.00 274.00 C 251.50 274.00 250.50 274.00 250.00 274.00 L 250.00 273.00 C 253.90 273.02 257.97 272.53 261.67 274.08 C 268.30 280.14 274.61 286.70 279.22 294.47 C 279.08 296.34 279.00 298.21 278.91 300.08 C 275.78 300.04 272.38 300.18 269.65 298.41 C 267.94 297.21 266.10 296.21 264.13 295.54 C 264.07 296.88 264.01 298.23 263.98 299.59 C 265.83 300.59 267.66 301.65 269.53 302.63 C 272.35 303.00 275.20 303.03 278.04 303.06 C 278.00 304.52 277.96 305.98 277.91 307.45 C 275.21 310.88 273.29 315.06 269.52 317.52 C 266.40 318.34 263.20 319.02 260.28 320.44 C 253.93 321.63 247.42 320.72 241.00 321.04 C 238.18 321.31 235.51 320.44 233.03 319.18 C 229.03 318.42 224.95 318.03 221.01 316.94 L 220.95 316.43 C 216.66 315.33 213.09 312.66 209.26 310.60 C 206.46 309.13 204.58 306.28 203.62 303.33 C 203.23 302.92 202.44 302.09 202.04 301.67 C 202.00 299.51 201.86 297.34 202.10 295.19 C 202.52 293.46 203.65 292.02 204.51 290.49 C 206.77 285.00 211.90 281.21 217.07 278.66 C 217.07 280.11 217.03 281.56 216.95 283.02 C 218.58 283.00 220.22 283.00 221.86 283.00 C 222.36 281.32 222.85 279.64 223.32 277.95 C 221.49 278.02 219.67 278.10 217.85 278.05 M 227.63 272.90 C 228.05 274.28 228.49 275.67 228.97 277.04 C 231.65 277.01 234.33 277.00 237.02 276.99 C 237.01 276.28 236.99 274.86 236.98 274.16 C 233.93 273.32 230.79 272.89 227.63 272.90 M 256.80 277.75 C 257.15 279.46 256.52 281.75 258.31 282.82 C 259.85 283.05 261.41 283.07 262.97 283.17 C 263.44 281.87 263.89 280.58 264.33 279.27 C 261.84 278.67 259.33 278.14 256.80 277.75 M 208.00 288.14 C 208.00 288.85 208.00 290.29 208.00 291.00 C 210.80 291.01 213.61 291.00 216.42 290.93 C 215.99 289.55 215.66 288.11 214.75 286.95 C 212.49 287.29 210.30 287.99 208.00 288.14 M 209.29 296.16 C 207.29 297.46 208.23 300.14 207.86 302.12 C 211.37 302.01 214.97 301.92 218.00 299.91 C 218.01 298.61 218.02 297.31 218.03 296.01 C 215.12 296.01 212.19 295.81 209.29 296.16 M 214.81 304.03 C 214.99 306.63 215.45 309.14 217.28 311.12 C 219.90 311.08 222.52 310.75 225.02 309.94 C 225.01 308.63 225.00 307.32 224.99 306.01 C 223.66 306.00 222.33 306.00 221.00 306.00 C 221.00 305.50 221.00 304.49 221.00 303.99 C 218.94 304.00 216.87 304.00 214.81 304.03 M 260.04 303.74 C 260.01 305.80 259.99 307.86 259.97 309.92 C 262.46 310.70 265.08 311.41 267.72 310.92 C 269.20 309.79 268.93 307.83 269.26 306.21 C 266.21 305.29 263.13 304.50 260.04 303.74 M 228.98 310.19 C 229.00 311.37 229.01 312.56 229.03 313.76 C 231.03 315.90 233.84 315.96 236.58 316.09 C 237.36 315.26 238.15 314.44 238.94 313.62 C 238.98 312.05 239.01 310.48 239.04 308.91 C 235.64 308.87 232.25 309.22 228.98 310.19 M 247.32 309.08 C 244.64 310.92 246.51 314.47 247.04 316.97 C 249.51 317.68 252.10 318.44 254.69 317.88 C 256.75 316.80 255.72 314.37 255.74 312.55 C 254.68 311.43 253.60 310.34 252.49 309.29 C 250.77 309.12 249.04 308.90 247.32 309.08 Z" />
<path fill="#ffffff" opacity="1.00" d=" M 143.15 278.38 C 144.32 277.72 145.70 279.64 144.85 280.62 C 143.67 281.27 142.30 279.35 143.15 278.38 Z" />
<path fill="#ffffff" opacity="1.00" d=" M 141.10 300.69 C 142.88 301.19 144.64 301.75 146.40 302.31 C 145.65 302.91 144.89 303.52 144.14 304.13 C 142.59 303.29 140.07 303.06 141.10 300.69 Z" />
<path fill="#ffffff" opacity="1.00" d=" M 148.07 312.41 C 149.45 312.04 149.96 312.54 149.58 313.93 C 148.18 314.32 147.67 313.81 148.07 312.41 Z" />
<path fill="#ffffff" opacity="1.00" d=" M 251.24 314.24 L 251.76 314.24 L 251.76 314.76 L 251.24 314.76 L 251.24 314.24 Z" />
<path fill="#ffffff" opacity="1.00" d=" M 165.54 318.50 C 168.81 316.74 172.80 317.64 175.96 315.63 C 176.00 318.97 176.38 322.42 175.24 325.64 C 175.07 327.68 175.00 329.73 174.95 331.77 C 172.48 331.97 170.49 333.23 168.52 334.62 C 164.42 336.02 160.08 334.39 156.44 332.43 C 154.36 332.13 152.27 331.99 150.18 331.89 C 148.22 330.00 146.84 327.67 145.96 325.11 C 148.88 324.42 151.87 324.15 154.83 323.71 C 158.82 322.95 162.06 320.41 165.54 318.50 Z" />
<path fill="#ffffff" opacity="1.00" d=" M 118.12 332.00 C 127.10 332.85 135.25 328.54 143.66 326.19 C 144.91 328.91 146.54 331.42 148.17 333.92 C 151.33 334.18 154.80 333.62 157.59 335.43 C 161.54 337.84 166.45 336.81 170.87 336.98 C 171.77 338.23 171.90 340.71 174.00 340.01 C 174.02 343.46 174.08 346.92 173.76 350.36 C 172.43 354.41 173.12 358.72 173.02 362.90 C 169.96 362.88 166.99 363.44 164.01 363.97 C 152.01 364.06 140.00 363.96 128.00 364.00 C 127.95 359.34 128.61 354.19 125.97 350.07 C 123.35 346.05 122.39 341.23 119.62 337.30 C 119.12 335.53 118.66 333.75 118.12 332.00 Z" />
<path fill="#ffffff" opacity="1.00" d=" M 96.85 367.78 C 100.82 365.80 104.98 364.23 109.44 363.90 C 106.73 366.73 103.94 369.48 101.50 372.56 C 99.56 374.90 96.62 375.86 93.84 376.82 C 90.58 377.24 87.28 376.95 84.00 377.00 C 77.20 376.91 70.39 377.21 63.59 376.81 C 61.90 376.28 60.18 375.87 58.46 375.45 C 57.08 374.36 55.76 373.21 54.46 372.04 C 59.14 371.90 63.87 372.35 68.50 371.52 C 70.54 370.92 72.52 370.12 74.65 369.91 C 75.45 369.07 76.25 368.25 77.05 367.43 C 83.59 368.39 90.29 368.14 96.85 367.78 Z" />
<path fill="#ffffff" opacity="1.00" d=" M 113.80 364.09 C 115.78 364.03 117.76 363.99 119.74 363.95 C 120.34 364.96 120.93 365.97 121.52 367.00 C 135.01 367.01 148.51 366.97 162.01 367.03 C 165.70 367.12 169.33 366.50 172.94 365.85 C 172.93 370.26 172.48 374.95 174.88 378.90 C 178.02 378.91 181.16 379.16 184.20 380.00 L 97.47 380.00 C 100.18 378.28 103.03 376.62 104.99 374.02 C 107.74 370.54 111.24 367.72 113.80 364.09 Z" />
<path fill="#ffffff" opacity="1.00" d=" M 199.32 375.00 C 225.57 374.98 251.82 375.04 278.07 374.96 C 279.75 374.93 281.47 375.18 282.93 376.09 C 286.37 378.05 290.25 378.96 294.04 380.00 L 198.23 380.00 C 198.62 378.34 198.97 376.67 199.32 375.00 Z" />
</g>
<g id="#000000ff">
<path fill="#000000" opacity="1.00" d=" M 131.03 10.96 C 135.38 10.99 139.64 9.88 143.99 9.97 C 154.66 9.99 165.33 10.04 176.00 9.97 C 185.41 9.75 194.66 11.92 204.04 12.05 C 213.34 12.41 222.35 14.79 231.42 16.59 C 236.89 17.68 241.50 20.98 246.20 23.79 C 249.73 26.14 253.34 28.87 255.34 32.70 C 256.52 36.94 255.66 41.82 258.34 45.62 C 260.61 48.40 264.39 49.52 266.44 52.53 C 268.43 55.27 270.18 58.45 270.02 61.95 C 270.01 66.55 270.31 71.19 269.75 75.76 C 268.18 81.36 264.55 86.07 262.43 91.44 C 260.67 96.60 260.45 102.28 261.39 107.61 C 263.36 111.84 264.96 116.39 268.20 119.85 C 272.15 124.67 275.28 130.09 278.81 135.21 C 282.44 140.43 284.07 146.63 286.54 152.41 C 287.20 154.87 286.92 157.46 287.14 159.98 C 287.53 167.47 291.17 174.42 291.01 181.97 C 291.00 186.34 291.78 190.66 292.01 195.01 C 292.12 200.18 295.28 204.75 295.03 209.96 C 294.97 227.99 295.00 246.02 295.02 264.05 C 295.06 268.01 293.60 271.73 292.73 275.54 C 296.26 276.78 299.66 278.33 302.84 280.31 C 303.97 286.73 303.76 293.49 306.44 299.55 C 308.17 303.96 309.15 308.62 311.03 312.98 C 312.26 315.82 313.13 318.84 313.00 321.96 C 312.84 327.34 314.17 332.61 314.03 337.99 C 313.99 349.00 313.96 360.01 314.05 371.02 C 314.02 372.88 314.10 374.78 313.72 376.62 C 313.02 377.90 311.95 378.93 310.97 380.00 L 294.04 380.00 C 290.25 378.96 286.37 378.05 282.93 376.09 C 281.47 375.18 279.75 374.93 278.07 374.96 C 251.82 375.04 225.57 374.98 199.32 375.00 C 198.97 376.67 198.62 378.34 198.23 380.00 L 184.20 380.00 C 181.16 379.16 178.02 378.91 174.88 378.90 C 172.48 374.95 172.93 370.26 172.94 365.85 C 169.33 366.50 165.70 367.12 162.01 367.03 C 148.51 366.97 135.01 367.01 121.52 367.00 C 120.93 365.97 120.34 364.96 119.74 363.95 C 117.76 363.99 115.78 364.03 113.80 364.09 C 111.24 367.72 107.74 370.54 104.99 374.02 C 103.03 376.62 100.18 378.28 97.47 380.00 L 61.92 380.00 C 58.04 378.85 53.24 377.73 51.48 373.61 C 50.26 370.93 48.40 368.66 46.40 366.54 C 44.52 364.70 44.26 361.95 43.72 359.52 C 44.99 361.51 45.60 364.03 47.41 365.62 C 52.68 367.29 58.26 366.75 63.68 367.39 C 60.16 368.24 56.52 368.05 52.93 368.00 C 53.42 368.99 53.90 369.99 54.38 371.00 C 61.87 370.98 70.64 372.14 76.50 366.36 C 81.97 367.23 87.53 367.11 93.05 367.01 C 95.28 367.06 97.37 366.25 99.37 365.37 C 103.32 363.60 107.68 362.97 111.98 362.98 C 116.38 363.04 120.77 362.22 125.17 362.72 C 125.05 359.57 125.00 356.32 123.58 353.44 C 120.66 347.56 117.88 341.61 115.37 335.55 C 112.58 330.61 106.43 328.69 101.05 328.95 C 91.74 329.19 82.42 328.65 73.13 329.23 C 62.76 331.04 52.18 329.01 41.81 330.64 C 40.09 330.85 38.37 330.97 36.64 331.09 C 37.14 330.76 38.13 330.08 38.63 329.75 C 35.89 326.41 33.52 322.68 32.51 318.43 C 29.93 311.11 26.76 304.00 24.49 296.57 C 23.28 291.48 22.23 286.35 20.70 281.34 C 17.95 270.82 12.46 261.18 10.49 250.44 C 8.21 242.81 5.64 235.21 4.62 227.29 C 3.79 222.57 3.98 217.77 3.99 213.00 C 4.02 202.66 3.99 192.31 3.97 181.96 C 3.81 173.75 7.60 166.14 8.10 158.01 C 8.36 155.02 8.88 152.05 8.93 149.05 C 9.04 145.17 8.91 141.16 10.40 137.50 C 12.30 134.74 15.03 132.71 17.21 130.19 C 19.52 127.51 21.94 124.59 25.45 123.49 C 31.75 121.44 37.79 118.70 43.67 115.66 C 49.73 112.57 56.62 111.72 62.70 108.70 C 65.83 107.21 69.11 106.09 72.34 104.85 C 70.48 98.86 68.45 92.92 65.75 87.25 C 63.33 81.81 64.08 75.77 63.96 70.00 C 64.01 67.13 63.75 64.21 64.31 61.38 C 67.80 55.25 74.65 52.43 80.85 49.81 C 84.85 48.00 89.81 50.28 93.46 47.50 C 99.85 43.56 100.78 35.42 104.40 29.43 C 108.74 22.64 114.00 16.00 121.32 12.27 C 124.27 10.55 127.78 11.11 131.03 10.96 M 137.35 14.77 C 132.66 15.35 127.74 14.23 123.26 16.11 C 120.08 18.25 116.70 20.24 114.28 23.30 C 111.30 27.14 108.26 31.02 106.20 35.45 C 106.08 38.04 104.24 40.00 103.34 42.33 C 102.37 45.46 99.74 47.60 97.67 50.01 C 101.78 50.00 105.89 50.00 110.00 50.00 L 110.00 51.00 C 107.00 51.00 104.00 51.00 101.00 51.00 L 101.00 52.00 C 105.33 52.00 109.66 52.00 114.00 52.00 L 114.00 53.00 C 110.55 53.00 107.09 53.00 103.63 53.00 C 104.53 54.00 105.43 54.99 106.34 55.99 C 110.16 56.06 114.00 55.78 117.82 56.12 C 119.74 56.76 121.12 58.52 123.19 58.80 C 126.52 59.53 129.49 61.16 132.54 62.60 C 135.00 62.96 137.50 63.21 139.98 62.98 C 144.80 62.20 148.46 58.79 152.12 55.87 C 153.54 55.89 154.49 57.10 155.59 57.82 C 151.98 61.95 147.59 66.01 141.98 66.92 C 138.18 67.22 134.34 67.11 130.56 66.58 C 127.34 64.82 123.75 64.01 120.31 62.81 C 118.83 61.89 117.47 60.73 115.83 60.12 C 113.50 59.85 111.15 59.98 108.81 59.98 C 110.23 61.74 110.96 63.78 111.13 66.03 C 112.16 65.42 112.44 63.88 113.31 63.01 C 116.03 62.48 116.00 65.92 116.22 67.75 C 121.75 70.62 127.47 73.13 132.99 76.03 C 143.23 80.53 154.12 83.06 164.80 86.26 C 172.35 89.12 180.37 90.39 188.28 91.79 C 190.96 92.00 193.66 92.02 196.35 92.26 C 201.34 93.65 206.62 92.94 211.72 92.81 C 216.39 91.89 221.16 91.38 225.70 89.87 C 227.55 88.52 229.64 87.60 231.78 86.81 C 235.04 84.77 238.07 82.13 239.67 78.56 C 240.27 75.08 239.00 70.85 242.00 68.24 C 244.22 70.01 244.05 72.83 244.14 75.39 C 245.04 75.96 245.87 76.61 246.64 77.35 C 247.55 80.40 247.94 83.56 248.78 86.62 C 249.19 92.07 248.92 97.54 249.04 103.00 C 249.33 109.66 247.32 116.29 243.98 122.01 C 242.55 124.60 239.67 125.79 237.38 127.46 C 235.07 128.05 232.66 128.38 230.51 129.46 C 227.79 129.89 225.02 130.04 222.35 130.76 C 219.02 131.05 215.58 130.69 212.36 131.76 C 206.58 132.25 200.79 131.89 195.00 132.01 C 191.45 131.97 187.79 132.40 184.35 131.27 C 178.96 131.16 173.70 130.02 168.34 129.61 C 162.34 127.90 156.41 125.80 150.61 123.44 C 142.85 118.76 134.99 113.91 128.72 107.28 C 122.98 101.81 119.02 94.87 114.59 88.38 C 114.38 87.85 113.97 86.80 113.77 86.27 C 112.81 85.82 111.86 85.36 110.91 84.90 C 108.88 86.66 106.69 88.23 104.39 89.62 C 102.16 89.89 99.93 90.02 97.69 90.17 C 98.03 91.71 98.39 93.26 98.80 94.79 C 98.87 93.33 99.37 92.05 100.29 90.97 C 102.24 91.15 104.10 91.76 106.00 92.20 C 106.02 98.66 105.95 105.12 106.05 111.59 C 108.90 114.12 111.22 117.15 113.43 120.25 C 115.44 119.25 117.47 118.27 119.56 117.44 C 124.02 116.72 128.56 117.05 133.06 116.96 C 135.04 118.01 137.03 119.04 139.00 120.12 C 139.00 121.69 139.01 123.26 139.03 124.84 C 143.70 126.37 148.65 125.72 153.44 126.46 C 158.91 128.07 162.79 132.44 166.84 136.16 C 172.46 139.07 178.77 140.14 184.99 140.96 C 190.44 141.21 195.91 140.69 201.36 141.24 C 204.14 142.22 207.11 142.03 210.01 142.03 C 214.48 141.97 218.95 142.10 223.42 141.83 C 226.56 140.87 229.72 139.99 232.81 138.86 C 235.99 136.78 238.47 133.86 241.43 131.52 C 240.31 135.33 236.87 137.68 233.79 139.84 C 229.35 141.44 224.81 143.12 220.02 143.02 C 214.11 142.94 208.18 143.19 202.28 142.81 C 194.92 140.80 187.12 143.14 179.72 141.28 C 175.54 141.02 171.68 139.49 167.84 137.96 C 168.09 139.71 170.22 140.43 171.43 141.55 C 174.08 142.43 176.84 142.94 179.54 143.68 C 184.43 144.05 189.05 145.80 193.92 146.30 C 198.64 147.54 203.55 146.70 208.35 147.23 C 211.45 148.34 214.78 148.00 218.00 148.02 C 223.01 147.92 228.02 148.10 233.03 148.00 C 234.94 148.08 236.66 147.17 238.37 146.45 C 241.83 144.10 245.49 142.06 249.00 139.79 C 249.00 137.86 249.00 135.93 249.01 134.00 L 250.01 133.99 C 250.00 136.26 250.00 138.53 250.00 140.80 C 246.27 143.21 242.36 145.33 238.72 147.87 C 237.20 148.38 235.67 148.98 234.04 148.99 C 228.36 149.12 222.68 148.91 217.00 149.02 C 213.77 149.00 210.45 149.34 207.35 148.23 C 203.62 147.87 199.85 148.22 196.13 147.73 C 191.89 147.03 187.64 146.32 183.45 145.35 C 179.43 144.77 175.35 144.25 171.58 142.65 C 173.61 145.64 172.83 149.26 173.00 152.66 C 176.14 154.78 179.86 154.09 183.40 154.38 C 189.00 157.30 195.49 157.53 201.36 159.57 C 206.13 160.55 210.89 161.57 215.60 162.81 C 222.54 163.14 229.49 163.09 236.43 162.84 C 239.08 161.97 241.77 161.20 244.47 160.50 C 247.15 159.29 249.65 157.73 252.04 156.03 C 254.72 154.28 256.06 151.25 257.89 148.74 C 259.47 145.01 259.05 140.90 258.95 136.96 C 259.08 133.20 256.91 129.79 257.06 126.03 C 256.98 115.44 256.90 104.84 257.11 94.26 C 258.02 89.72 259.85 85.31 262.64 81.57 C 263.61 77.99 266.37 74.91 266.04 71.04 C 265.88 66.57 266.76 61.62 264.50 57.57 C 261.58 52.75 255.69 50.80 253.11 45.70 C 252.03 42.08 251.97 38.28 251.66 34.54 C 247.67 28.84 241.07 26.15 235.39 22.53 C 231.34 20.83 226.99 19.99 222.72 19.15 C 218.71 18.50 214.99 20.37 211.01 20.04 C 204.98 19.79 198.84 20.59 192.92 19.18 C 186.93 18.67 180.94 17.99 175.01 17.04 C 169.87 16.88 164.71 16.96 159.57 17.16 C 151.65 19.73 143.15 21.27 136.34 26.37 C 130.16 29.03 124.66 33.07 119.54 37.41 C 120.11 35.83 120.78 34.15 122.41 33.40 C 125.99 31.42 129.35 29.10 132.59 26.59 C 136.36 25.27 139.31 22.33 143.11 21.09 C 147.76 19.12 152.71 18.04 157.51 16.50 C 163.94 15.55 170.49 16.03 176.96 16.13 C 182.85 17.01 188.72 18.19 194.72 18.20 C 201.80 19.84 209.18 18.65 216.39 19.00 C 215.96 18.52 215.11 17.55 214.68 17.06 C 212.33 17.02 209.98 16.96 207.64 16.75 C 203.44 15.39 198.97 16.30 194.65 15.77 C 191.01 14.43 187.00 15.57 183.35 14.24 C 171.92 13.68 160.45 14.16 149.01 14.00 C 145.12 14.10 141.10 13.48 137.35 14.77 M 88.96 50.91 L 89.02 51.66 C 90.60 52.13 92.18 52.62 93.75 53.14 C 96.57 55.28 100.00 56.96 101.70 60.22 C 102.43 62.92 104.31 65.05 105.55 67.51 C 108.16 73.11 106.60 79.43 107.00 85.38 C 108.32 84.14 109.64 82.90 110.96 81.67 C 110.92 77.52 111.29 73.34 110.82 69.21 C 109.87 66.90 108.64 64.72 107.54 62.47 C 105.58 58.01 101.53 54.97 97.80 52.04 C 94.96 51.00 91.94 50.90 88.96 50.91 M 74.97 57.04 C 74.28 56.86 72.90 56.49 72.21 56.31 C 70.16 58.33 68.12 60.38 66.03 62.37 C 66.02 68.38 65.84 74.40 66.18 80.41 C 66.82 83.32 67.50 86.25 69.35 88.67 C 71.24 93.69 72.34 99.09 75.45 103.57 C 78.96 108.64 81.57 114.40 82.48 120.52 C 84.45 123.12 86.80 125.40 89.28 127.51 C 91.79 123.21 92.19 118.11 93.74 113.44 C 93.51 109.12 95.45 105.30 96.93 101.38 C 95.65 96.72 96.14 91.91 95.89 87.16 C 94.96 84.66 92.77 82.85 91.56 80.48 C 91.05 79.29 90.83 77.98 90.18 76.85 C 89.20 75.99 87.50 75.60 88.00 73.96 C 88.72 73.96 90.18 73.98 90.90 73.99 C 91.99 75.43 92.91 77.00 93.33 78.78 C 95.07 81.93 98.25 84.30 98.27 88.18 C 100.74 87.99 103.13 87.53 104.98 85.77 C 104.95 81.03 105.33 76.26 104.54 71.56 C 103.40 67.97 101.13 64.93 99.40 61.62 C 97.83 59.24 96.01 56.73 93.17 55.82 C 89.91 54.20 86.19 53.62 83.04 51.89 C 79.85 52.77 77.51 55.10 74.97 57.04 M 117.34 82.74 C 122.90 85.11 127.96 88.59 133.76 90.38 C 132.96 87.37 132.91 84.24 132.96 81.15 C 127.11 77.78 120.86 75.16 114.97 71.88 C 112.59 75.63 115.78 79.36 117.34 82.74 M 136.85 82.75 C 137.01 84.33 137.18 85.90 137.38 87.48 C 139.19 89.71 141.20 91.77 143.26 93.77 C 149.18 94.16 154.32 97.43 159.82 99.32 C 160.98 96.46 160.54 93.11 162.32 90.53 C 158.35 88.45 153.83 87.92 149.64 86.44 C 145.27 85.55 141.23 83.56 136.85 82.75 M 242.13 83.27 C 241.54 84.43 242.44 86.87 243.87 86.79 C 244.47 85.62 243.56 83.16 242.13 83.27 M 237.02 89.10 C 238.36 92.63 237.91 96.46 238.00 100.17 C 239.40 99.35 240.81 98.54 242.22 97.72 C 241.30 93.85 239.94 90.12 238.43 86.46 C 237.92 87.32 237.45 88.20 237.02 89.10 M 244.24 89.24 L 244.24 89.75 L 244.76 89.75 L 244.76 89.24 L 244.24 89.24 M 120.69 89.59 C 124.23 94.80 127.56 100.24 132.11 104.65 C 135.21 102.26 133.67 98.45 132.88 95.34 C 128.81 93.43 124.72 91.57 120.69 89.59 M 225.73 94.54 C 226.30 96.45 227.18 98.24 227.90 100.10 C 227.72 101.24 227.49 102.36 227.19 103.48 C 228.80 102.07 230.79 101.88 232.85 101.94 C 233.95 98.34 234.51 94.53 232.97 90.96 C 230.59 92.22 228.17 93.41 225.73 94.54 M 101.44 91.87 C 100.57 92.85 99.68 93.82 98.80 94.79 C 98.78 95.11 98.74 95.77 98.73 96.09 C 98.24 95.74 97.28 95.04 96.80 94.68 C 99.31 98.46 97.76 103.26 96.12 107.11 C 94.52 110.18 95.14 113.79 94.05 117.00 C 92.89 120.52 92.66 124.40 90.61 127.58 C 88.39 131.22 87.16 135.38 85.15 139.12 C 82.69 141.88 80.22 144.65 78.48 147.95 C 78.21 147.97 77.68 148.01 77.42 148.03 C 76.40 149.86 75.34 151.67 74.37 153.52 C 73.59 158.31 74.73 163.38 72.88 167.97 C 71.35 171.79 72.17 176.00 71.99 180.00 C 71.84 185.08 72.52 190.24 71.44 195.26 C 70.05 197.76 69.92 200.64 69.33 203.38 C 68.54 205.32 68.04 207.35 67.23 209.28 C 66.35 211.28 64.57 212.79 63.99 214.94 C 62.33 218.84 63.06 223.23 63.34 227.34 C 65.35 229.73 66.95 232.57 69.58 234.36 C 73.46 235.98 75.57 240.02 79.44 241.68 C 85.73 242.01 92.08 242.55 98.14 244.32 C 97.65 238.08 96.41 231.89 97.11 225.59 C 99.67 222.14 101.48 218.22 103.60 214.49 C 103.88 212.33 104.01 210.16 104.12 208.00 C 104.59 208.00 105.53 208.00 106.00 208.00 C 106.06 204.06 105.77 200.10 106.12 196.16 C 107.03 193.88 108.94 192.14 109.88 189.87 C 110.21 186.21 109.95 182.53 109.99 178.86 C 112.37 176.54 114.60 174.05 116.45 171.29 C 118.09 170.26 119.77 169.27 121.61 168.64 C 126.93 166.61 130.67 161.26 136.64 160.83 C 138.13 158.48 139.61 156.08 140.34 153.37 C 137.46 151.95 134.38 153.56 131.59 154.47 C 130.25 155.52 128.99 156.68 127.55 157.59 C 125.86 158.00 124.10 158.01 122.44 158.50 C 119.40 160.09 116.64 162.22 113.38 163.37 C 109.04 164.94 105.82 168.34 102.57 171.47 C 101.93 171.67 100.65 172.08 100.01 172.28 C 100.55 170.69 101.06 169.10 101.57 167.51 C 104.43 163.98 107.44 160.52 109.39 156.39 C 112.33 154.01 115.05 151.32 118.19 149.19 C 121.24 147.91 124.32 146.70 127.36 145.41 C 130.30 143.50 133.71 142.41 137.16 141.86 C 139.16 141.43 140.98 140.40 142.93 139.75 C 144.04 136.96 144.11 133.95 144.08 130.99 C 138.37 130.62 132.69 131.68 127.23 133.23 C 124.63 134.97 122.16 136.88 119.62 138.68 C 115.41 140.09 111.40 142.05 107.12 143.23 C 104.33 143.76 104.59 147.28 103.22 149.17 C 101.87 150.85 101.30 153.66 98.61 153.31 C 99.00 152.58 99.78 151.12 100.17 150.39 C 98.70 151.21 97.64 152.51 96.61 153.79 C 97.28 153.74 98.62 153.63 99.30 153.58 C 98.25 154.83 98.26 157.87 95.97 156.99 C 96.00 155.48 96.03 153.98 96.07 152.48 C 99.24 149.03 101.44 144.87 102.24 140.22 C 106.62 137.25 110.23 132.89 115.41 131.32 C 119.32 131.18 123.62 129.93 127.15 132.13 C 126.84 131.45 126.54 130.77 126.24 130.09 C 128.05 129.68 129.84 129.17 131.68 128.92 C 134.41 127.04 137.70 124.81 138.09 121.25 C 135.84 120.01 133.83 117.81 131.06 117.98 C 127.57 117.86 124.05 117.89 120.59 118.45 C 117.97 119.65 115.14 120.25 112.55 121.50 C 110.86 122.50 109.27 123.65 107.55 124.61 C 106.07 124.80 104.58 124.96 103.10 125.12 C 99.38 129.05 94.69 132.89 93.75 138.52 C 92.10 140.91 90.83 143.60 88.69 145.63 C 89.64 142.73 91.37 140.20 92.85 137.56 C 93.75 131.35 99.11 127.01 103.82 123.41 C 105.03 120.44 105.04 117.16 105.04 114.00 C 104.97 107.09 105.01 100.18 105.00 93.27 C 103.81 92.81 102.63 92.34 101.44 91.87 M 166.14 91.72 C 165.08 94.68 165.29 97.99 163.70 100.76 C 166.64 101.37 169.58 102.01 172.53 102.62 C 176.67 104.73 181.53 103.84 186.02 103.99 C 186.01 101.42 186.15 98.84 185.85 96.29 C 184.58 94.48 182.15 95.15 180.28 94.78 C 175.53 93.96 170.89 92.58 166.14 91.72 M 207.25 96.99 C 207.88 99.28 208.05 101.64 208.14 104.00 C 211.65 103.98 215.26 104.40 218.65 103.25 C 220.43 103.10 222.22 103.03 224.02 102.97 C 222.71 100.58 222.05 97.99 221.95 95.27 C 217.09 96.16 212.22 97.36 207.25 96.99 M 190.01 95.88 C 190.00 98.59 190.00 101.29 190.00 104.00 C 194.75 104.00 199.51 104.02 204.26 103.97 C 203.86 101.65 203.29 99.36 202.87 97.05 C 198.50 97.47 194.33 96.08 190.01 95.88 M 138.00 97.86 C 137.99 100.11 137.98 102.36 137.97 104.62 C 136.93 105.62 135.90 106.62 134.87 107.63 C 141.09 111.90 147.10 116.54 153.81 120.06 C 154.40 118.26 154.99 116.47 155.60 114.67 C 156.64 112.90 158.36 111.25 158.08 109.02 C 158.04 107.65 158.40 105.80 156.64 105.41 C 153.52 104.79 150.34 104.14 147.64 102.37 C 144.28 101.21 141.02 99.74 138.00 97.86 M 162.00 107.03 C 162.00 108.96 162.11 110.90 161.89 112.83 C 161.37 114.25 160.36 115.41 159.57 116.68 C 159.10 118.35 158.69 120.04 157.70 121.48 C 161.35 123.55 165.68 123.74 169.48 125.45 C 173.73 125.89 177.89 126.95 182.17 127.09 C 181.83 126.56 181.13 125.48 180.78 124.95 C 181.08 124.60 181.68 123.91 181.98 123.56 C 181.99 120.08 182.00 116.60 182.00 113.12 C 175.09 112.01 168.51 109.51 162.00 107.03 M 57.39 114.44 C 55.13 115.09 52.91 115.89 50.66 116.57 C 49.18 117.69 47.42 118.12 45.64 118.52 C 44.23 119.48 42.82 120.47 41.40 121.43 C 38.65 122.18 35.95 123.12 33.37 124.35 C 30.22 125.85 26.42 126.25 23.90 128.86 C 23.08 129.55 22.80 130.93 21.63 131.12 C 19.54 134.47 16.32 136.83 13.83 139.83 C 10.58 145.46 13.01 152.21 11.30 158.24 C 10.86 160.98 10.98 163.79 10.51 166.53 C 8.67 170.31 8.42 174.62 7.20 178.61 C 6.78 192.40 7.06 206.22 7.03 220.02 C 7.83 223.81 7.96 227.69 8.50 231.52 C 10.58 235.31 9.77 240.15 12.45 243.68 C 13.91 248.62 14.50 253.80 16.24 258.66 C 18.81 263.49 19.84 268.91 22.13 273.86 C 23.92 280.47 26.12 287.01 27.21 293.80 C 27.61 296.90 29.58 299.48 30.54 302.42 C 32.62 308.39 35.44 314.14 36.52 320.41 C 38.42 323.52 41.34 326.10 42.27 329.73 C 43.16 329.42 43.95 328.67 44.97 329.00 C 53.10 328.87 61.24 329.29 69.35 328.76 C 72.46 327.67 75.78 328.00 79.00 327.98 C 88.01 328.02 97.02 328.00 106.03 327.99 C 106.69 328.28 107.36 328.58 108.02 328.87 C 110.60 328.31 114.28 326.67 116.10 329.40 C 118.25 327.38 120.45 325.30 121.68 322.56 C 122.34 315.39 121.86 308.18 122.00 301.00 C 121.89 297.08 122.35 293.12 121.73 289.23 C 120.00 283.42 122.08 277.15 120.24 271.36 C 119.34 263.84 121.01 256.11 119.19 248.72 C 118.84 244.28 119.10 239.82 118.90 235.37 C 117.50 237.32 115.96 239.24 115.67 241.70 C 113.00 243.40 110.18 244.88 107.73 246.93 C 106.13 247.39 104.51 247.78 102.86 248.01 C 99.98 246.59 96.71 247.06 93.62 246.77 C 91.22 246.17 88.77 245.83 86.38 245.22 C 82.88 244.95 79.28 245.31 75.90 244.17 C 71.54 242.25 69.12 237.13 64.42 235.80 C 62.36 232.42 59.31 229.29 59.81 225.00 L 59.03 224.99 C 59.20 229.92 57.92 234.75 56.36 239.34 C 55.45 247.77 56.38 256.28 55.88 264.75 C 54.99 270.68 50.90 275.83 51.01 281.97 C 50.89 291.99 51.15 302.02 50.92 312.04 C 50.97 314.39 50.07 316.59 49.90 318.92 C 49.64 322.02 48.06 324.86 47.90 327.99 C 47.15 327.99 45.66 328.00 44.92 328.00 C 44.85 324.35 45.85 320.87 46.83 317.40 C 47.10 313.71 46.58 309.92 47.76 306.36 C 48.41 296.60 47.65 286.81 48.13 277.06 C 47.94 274.27 50.06 272.14 50.16 269.42 C 51.21 267.88 51.90 266.17 52.54 264.44 C 53.51 257.34 52.80 250.14 52.96 242.99 C 52.67 237.13 55.26 231.67 55.85 225.91 C 56.08 220.12 60.59 215.71 61.37 210.04 C 61.62 210.01 62.11 209.95 62.36 209.92 C 63.60 207.66 65.61 206.06 67.79 204.76 C 69.03 201.33 68.59 197.47 70.45 194.25 C 71.70 186.27 70.65 178.13 71.02 170.08 C 71.67 168.20 72.22 166.29 72.86 164.42 C 73.03 160.45 72.86 156.47 73.37 152.52 C 74.34 150.67 75.40 148.86 76.42 147.04 C 76.67 147.01 77.17 146.94 77.43 146.91 C 79.55 143.87 81.85 140.92 84.55 138.38 C 85.41 135.41 86.85 132.67 88.24 129.92 C 86.39 127.67 83.93 126.10 81.79 124.18 C 80.11 121.73 80.29 118.61 78.95 116.01 C 77.63 113.38 76.90 110.52 75.93 107.76 C 69.41 108.96 63.80 112.87 57.39 114.44 M 238.57 120.84 L 239.68 121.03 C 240.98 117.41 243.39 114.29 243.87 110.39 C 241.24 113.38 239.90 117.15 238.57 120.84 M 186.02 113.64 C 185.91 118.12 186.47 122.70 185.27 127.09 C 190.00 128.54 194.98 127.92 199.85 127.98 C 200.93 124.04 200.92 119.90 202.30 116.04 C 196.82 116.13 191.02 116.18 186.02 113.64 M 233.23 115.26 C 231.90 118.71 229.77 121.78 228.62 125.31 C 230.85 124.28 233.25 123.92 235.67 123.58 C 236.70 122.69 237.77 121.76 238.10 120.37 L 236.56 122.22 C 235.62 121.75 234.69 121.27 233.76 120.79 C 234.95 118.58 235.16 116.04 236.39 113.85 C 235.34 114.32 234.28 114.79 233.23 115.26 M 106.00 114.91 C 105.82 118.03 106.65 121.44 104.55 124.09 C 106.53 123.34 108.51 122.60 110.46 121.78 C 109.52 119.23 107.97 116.68 106.00 114.91 M 221.25 117.05 C 220.62 120.66 219.01 123.95 217.62 127.30 C 220.07 126.60 222.53 125.95 225.10 125.94 C 224.80 125.47 224.19 124.52 223.88 124.05 C 225.39 121.30 226.75 118.47 228.18 115.68 C 225.91 116.38 223.64 117.05 221.25 117.05 M 260.99 115.97 C 261.15 120.34 260.50 124.87 261.90 129.10 C 263.60 134.23 262.87 139.72 263.03 145.03 C 263.31 149.62 260.32 153.27 257.74 156.72 C 252.77 162.40 245.36 164.57 238.46 166.87 C 230.18 167.04 221.88 167.17 213.60 166.81 C 208.89 165.57 204.13 164.55 199.36 163.57 C 194.57 161.74 189.22 161.73 184.53 159.51 C 180.70 158.75 176.69 159.33 173.07 157.67 C 173.02 159.70 173.00 161.73 172.98 163.77 C 169.90 165.59 168.15 168.81 165.08 170.63 C 165.05 170.96 164.98 171.64 164.95 171.97 C 163.79 171.98 162.63 171.99 161.47 172.00 C 160.86 173.88 159.92 175.62 158.82 177.25 C 161.09 179.63 163.41 181.95 165.78 184.22 C 167.91 182.12 170.82 181.42 173.71 182.10 C 175.28 183.22 174.91 185.28 175.24 186.95 C 174.67 186.96 173.55 187.00 172.98 187.02 C 172.99 187.52 173.00 188.53 173.00 189.04 C 171.47 189.00 169.95 188.97 168.42 188.93 C 167.96 188.61 167.05 187.97 166.59 187.65 C 164.85 190.35 163.93 193.46 163.83 196.66 C 166.15 198.59 168.43 200.64 171.12 202.06 C 172.69 202.14 173.66 200.48 174.93 199.78 C 176.30 198.36 178.77 198.73 179.96 200.21 C 179.70 201.49 179.28 202.74 178.91 204.01 C 177.34 204.00 175.76 204.00 174.19 204.00 C 171.36 208.12 167.12 212.34 168.12 217.80 C 168.07 220.54 170.30 222.56 171.88 224.56 C 173.45 223.04 174.98 221.48 176.47 219.88 C 178.87 219.98 181.22 220.50 183.49 221.26 C 182.87 222.63 182.66 224.44 181.21 225.22 C 178.41 226.82 175.27 227.72 172.12 228.31 C 170.70 232.47 168.94 236.94 170.90 241.27 C 173.21 239.37 175.46 237.31 178.16 235.98 C 179.55 235.78 181.12 235.86 181.83 237.30 C 182.08 239.13 182.02 240.98 182.06 242.83 C 179.13 243.60 176.14 244.03 173.12 244.17 C 172.49 246.69 172.08 249.26 171.79 251.84 C 173.84 252.20 176.53 251.34 177.95 253.32 C 178.53 256.44 176.11 259.00 175.69 262.00 C 175.35 262.00 174.68 262.00 174.35 262.00 C 173.19 259.20 171.73 256.53 170.49 253.77 C 167.74 254.59 164.94 255.26 162.19 256.07 C 159.91 257.77 157.25 259.63 156.81 262.65 C 158.23 263.19 159.65 263.75 161.09 264.29 C 161.11 267.24 160.90 270.20 159.94 273.01 C 158.31 273.01 156.68 273.01 155.06 273.01 C 153.90 269.76 153.89 266.30 153.95 262.90 C 151.79 263.00 149.62 263.11 147.47 263.30 C 144.39 265.54 142.98 269.15 140.81 272.14 C 141.26 273.35 141.72 274.57 142.18 275.79 C 143.79 276.09 145.80 275.73 146.86 277.28 C 147.13 279.55 147.01 281.84 147.02 284.13 C 146.35 284.06 145.01 283.94 144.34 283.88 C 142.99 282.50 141.63 281.15 140.26 279.80 C 137.71 283.01 136.02 286.72 134.34 290.42 C 133.27 292.51 135.75 294.17 136.44 295.99 C 138.19 295.52 138.21 297.89 139.10 298.87 C 142.14 298.95 145.17 299.40 148.11 300.19 C 148.04 301.69 148.03 303.20 147.81 304.69 C 145.96 306.98 142.12 306.22 140.03 304.57 C 140.02 306.26 140.01 307.96 140.02 309.66 C 141.40 310.94 142.77 312.24 144.16 313.52 C 144.94 312.45 145.71 311.38 146.47 310.29 C 147.38 309.77 148.29 309.25 149.20 308.73 C 150.44 309.92 151.73 311.08 152.82 312.43 C 153.43 313.69 152.99 315.18 151.70 315.81 C 149.82 316.09 147.90 316.03 146.00 316.08 C 145.99 317.96 145.98 319.85 145.96 321.74 C 151.89 321.07 158.03 319.72 162.57 315.56 C 167.01 314.53 171.42 313.32 175.96 312.89 C 175.97 310.02 175.77 307.09 176.77 304.35 C 176.89 299.28 177.14 294.22 178.32 289.26 C 179.39 285.77 178.53 282.03 179.33 278.50 C 181.88 274.67 185.03 271.31 188.32 268.12 C 191.93 268.09 195.41 267.16 198.98 266.80 C 200.41 262.90 199.88 258.71 200.23 254.65 C 201.55 250.69 200.88 246.46 201.02 242.37 C 201.80 241.59 202.59 240.81 203.37 240.03 C 206.91 239.99 210.45 239.99 214.00 240.00 C 214.00 245.31 214.01 250.61 213.99 255.92 C 216.48 256.60 219.00 257.09 221.53 257.62 C 224.27 259.20 227.56 258.92 230.61 259.05 C 231.39 258.23 232.17 257.42 232.97 256.62 C 233.25 250.77 232.28 244.75 234.09 239.08 C 235.23 235.56 234.64 231.72 236.10 228.27 C 238.07 225.45 239.93 222.56 241.89 219.73 C 243.79 215.06 242.80 209.93 242.99 205.04 C 244.56 205.01 246.14 204.98 247.72 204.94 C 251.15 200.98 254.66 197.10 258.49 193.51 C 260.42 192.89 262.23 192.01 263.92 190.88 C 263.96 190.16 264.04 188.72 264.08 188.00 C 264.81 188.00 266.28 188.00 267.01 188.00 L 266.96 188.94 C 264.04 188.60 264.47 193.37 261.79 193.80 C 255.01 195.81 252.02 203.28 246.02 206.60 C 245.93 211.51 246.25 216.45 245.66 221.34 C 243.46 223.97 241.41 226.71 239.57 229.60 C 237.54 233.97 238.38 239.01 236.54 243.45 C 235.52 248.57 236.14 253.82 236.01 259.00 C 242.12 258.90 248.26 259.25 254.36 258.76 C 256.20 258.22 258.09 257.98 259.99 257.80 C 260.98 254.82 261.08 251.68 261.24 248.58 C 261.89 246.06 262.41 243.50 263.09 240.99 C 267.73 241.00 272.36 241.00 277.00 241.00 C 277.01 248.79 276.97 256.59 277.03 264.38 C 279.28 265.60 281.03 267.46 282.43 269.58 C 284.20 272.24 287.08 273.75 289.68 275.46 C 290.18 272.79 289.93 269.86 291.52 267.53 C 292.27 263.39 291.98 259.18 292.00 255.00 C 292.01 241.00 291.97 226.99 292.03 212.99 C 291.93 210.07 292.09 206.97 290.61 204.33 C 288.60 200.42 289.15 195.90 288.75 191.66 C 287.40 187.43 288.24 182.94 287.84 178.59 C 286.25 173.95 285.39 169.12 284.21 164.37 C 283.96 161.33 284.18 158.26 283.81 155.24 C 283.04 153.04 281.57 151.13 281.17 148.81 C 280.08 143.65 277.14 139.15 274.03 134.98 C 271.62 131.68 270.05 127.80 267.23 124.79 C 265.62 123.05 263.95 121.36 262.45 119.53 C 261.81 118.50 262.70 115.75 260.99 115.97 M 207.07 116.98 C 204.99 120.37 205.15 124.38 204.22 128.13 C 207.08 128.09 209.97 127.96 212.69 126.99 C 214.18 123.68 215.72 120.38 217.03 117.00 C 213.71 117.00 210.39 117.00 207.07 116.98 M 134.08 128.26 L 134.28 129.07 C 135.16 129.04 136.92 128.98 137.80 128.94 C 138.66 127.86 139.53 126.77 140.37 125.67 C 138.11 126.08 136.08 127.16 134.08 128.26 M 142.33 128.01 C 141.90 128.51 141.05 129.50 140.62 130.00 C 142.08 130.00 143.54 130.00 145.01 130.01 C 145.01 130.46 145.00 131.36 145.00 131.80 C 149.86 131.91 152.98 136.30 155.61 139.89 C 155.83 139.94 156.27 140.03 156.49 140.07 C 158.69 143.68 161.11 147.15 163.48 150.65 C 163.89 153.07 164.23 155.56 165.45 157.75 C 166.13 160.58 166.03 163.50 166.03 166.39 C 167.67 164.80 169.30 163.21 170.96 161.65 C 170.77 156.18 171.82 150.49 169.96 145.21 C 167.96 142.08 164.50 139.79 163.75 136.00 C 163.32 136.00 162.47 135.98 162.04 135.97 C 162.02 135.60 161.99 134.87 161.98 134.50 C 159.15 132.82 156.42 130.99 153.73 129.11 C 150.12 127.55 146.15 128.00 142.33 128.01 M 133.44 129.38 C 132.24 129.30 131.21 129.64 130.35 130.42 C 130.57 132.36 135.67 130.64 133.44 129.38 M 115.44 132.40 C 110.96 134.65 107.02 137.82 103.27 141.11 C 102.51 143.88 101.37 146.52 100.64 149.30 C 101.14 148.94 102.14 148.24 102.64 147.88 C 103.55 146.13 104.08 143.97 105.76 142.78 C 111.13 139.95 117.49 139.21 122.27 135.29 C 121.84 134.13 121.39 132.98 120.93 131.83 C 119.09 131.99 117.26 132.16 115.44 132.40 M 145.38 133.86 C 145.26 135.46 145.10 137.06 144.94 138.67 C 143.81 139.77 142.70 140.90 141.61 142.04 C 140.12 142.01 138.64 141.95 137.16 141.86 C 140.08 142.99 143.54 143.94 144.58 147.35 C 140.73 146.30 137.10 144.36 133.06 144.12 C 130.00 145.32 127.18 147.09 124.02 148.04 C 117.79 150.08 113.03 154.79 108.47 159.28 C 110.24 160.56 112.10 162.73 114.49 161.59 C 116.97 160.07 120.09 159.53 121.88 157.04 C 123.69 157.00 125.50 156.97 127.32 156.93 C 128.38 155.41 129.72 154.13 131.16 152.99 C 133.79 152.20 136.52 151.91 139.26 151.79 C 139.94 152.47 140.63 153.15 141.32 153.84 C 141.07 156.93 139.18 159.30 137.57 161.82 C 132.55 162.45 128.67 166.01 124.57 168.66 C 128.17 170.10 131.57 172.04 134.43 174.70 C 141.06 176.37 147.96 176.21 154.75 175.85 C 155.85 174.93 155.97 173.44 156.39 172.18 C 154.23 171.27 152.05 170.44 149.85 169.68 C 150.15 167.79 149.48 165.38 151.28 164.10 C 154.28 163.61 156.63 165.51 158.96 167.08 C 159.01 167.87 159.10 169.46 159.14 170.26 C 160.42 169.76 161.69 169.25 162.97 168.77 C 164.01 165.56 164.76 161.88 163.29 158.69 C 162.34 156.78 162.01 154.65 161.43 152.62 C 157.98 147.41 154.61 142.15 150.54 137.40 C 148.81 136.23 147.09 135.04 145.38 133.86 M 102.53 169.41 C 105.16 167.44 107.77 165.44 110.34 163.41 C 109.67 162.96 108.33 162.07 107.66 161.63 C 105.60 163.96 103.71 166.50 102.53 169.41 M 152.32 167.20 C 151.95 169.07 156.01 170.02 156.73 168.46 C 155.73 167.33 153.76 166.45 152.32 167.20 M 102.04 169.42 L 102.06 169.92 L 102.56 169.90 L 102.53 169.41 L 102.04 169.42 M 111.02 179.37 C 110.98 182.60 111.15 185.83 110.93 189.06 C 110.67 192.18 108.34 194.47 107.12 197.18 C 106.78 200.73 107.04 204.31 107.01 207.87 C 111.86 209.24 114.96 213.35 117.79 217.24 C 119.88 219.64 118.74 223.12 119.02 226.01 C 119.50 226.00 120.46 225.98 120.93 225.97 C 123.09 232.42 121.41 239.29 122.11 245.92 C 124.28 253.87 121.72 262.33 123.81 270.28 C 124.20 274.96 123.78 279.67 124.24 284.36 C 125.33 287.45 125.00 290.78 125.02 294.00 C 124.91 303.01 125.13 312.02 124.92 321.03 C 124.99 323.50 124.06 325.81 123.70 328.22 C 130.79 327.26 137.51 324.58 144.00 321.66 C 144.00 319.64 143.99 317.63 143.97 315.61 C 141.78 314.24 139.88 312.49 138.02 310.71 C 138.04 307.35 138.06 303.98 137.66 300.65 C 135.66 298.14 133.42 295.75 132.01 292.84 C 131.85 291.13 132.14 289.42 132.42 287.75 C 134.90 284.12 136.51 279.92 139.58 276.69 C 138.92 274.39 138.93 271.99 139.35 269.66 C 141.48 266.63 143.67 263.64 146.29 261.02 C 149.09 261.01 151.89 261.00 154.70 260.97 C 156.26 258.17 158.42 255.75 161.20 254.11 C 164.12 253.33 166.95 252.16 169.98 251.90 C 170.34 249.53 169.06 246.55 171.35 244.91 C 170.25 243.80 169.14 242.69 168.02 241.60 C 167.95 238.24 167.89 234.87 168.40 231.54 C 169.19 229.81 169.99 228.09 170.85 226.39 C 169.29 224.79 167.77 223.16 166.33 221.46 C 166.00 218.38 165.74 215.26 166.10 212.18 C 167.45 209.59 169.14 207.19 170.18 204.44 C 167.32 202.61 164.80 200.31 162.00 198.39 C 161.96 195.48 161.98 192.55 162.33 189.65 C 163.22 188.53 164.12 187.41 165.03 186.31 C 161.35 184.56 159.30 180.99 156.76 178.00 C 150.59 177.97 144.42 178.09 138.25 177.91 C 133.89 177.37 130.33 174.55 126.73 172.25 C 124.87 171.38 123.01 170.53 121.13 169.71 C 117.03 172.15 114.70 176.42 111.02 179.37 M 167.62 185.33 C 168.50 186.06 169.38 186.79 170.26 187.53 C 171.06 186.28 171.83 185.02 172.57 183.75 C 170.91 184.24 169.27 184.79 167.62 185.33 M 105.47 211.50 C 104.23 216.98 100.68 221.53 98.08 226.44 C 98.06 230.67 97.45 235.06 98.86 239.14 C 98.95 240.81 99.00 242.47 99.06 244.14 C 103.98 244.52 108.52 242.40 112.06 239.12 C 113.22 237.16 114.29 235.12 115.89 233.46 C 115.99 229.70 116.24 225.92 115.87 222.18 C 115.03 220.17 113.61 218.48 112.71 216.50 C 110.34 214.76 108.26 212.56 105.47 211.50 M 177.26 222.01 C 176.36 223.08 175.46 224.14 174.57 225.22 C 177.00 225.08 178.81 223.64 180.50 222.02 C 179.69 222.02 178.07 222.01 177.26 222.01 M 175.09 242.31 C 176.87 241.80 178.62 241.23 180.38 240.66 C 179.89 239.76 179.40 238.87 178.90 237.98 C 177.50 239.39 174.16 239.74 175.09 242.31 M 206.36 243.05 C 205.58 243.82 204.81 244.59 204.03 245.36 C 204.01 249.02 204.09 252.70 203.76 256.35 C 202.53 260.00 203.06 263.89 202.99 267.66 C 202.21 268.37 201.45 269.08 200.68 269.79 C 196.91 270.20 193.17 270.90 189.55 272.05 C 187.37 275.59 183.95 278.21 182.04 281.94 C 182.28 282.42 182.77 283.38 183.01 283.87 C 181.81 288.05 181.57 292.44 180.19 296.60 C 180.00 299.64 180.03 302.68 179.80 305.72 C 177.84 313.07 180.06 320.85 178.33 328.24 C 178.00 330.06 177.99 331.93 177.67 333.76 C 176.02 340.49 178.09 347.59 176.19 354.28 C 176.07 361.49 175.21 368.90 177.15 375.96 C 179.89 375.98 182.63 375.99 185.36 376.24 C 188.36 377.26 191.60 377.26 194.72 376.85 C 196.34 375.76 195.89 373.65 196.23 372.00 C 226.15 372.00 256.08 372.00 286.01 372.00 C 286.00 372.74 285.98 374.22 285.97 374.96 C 289.43 376.10 293.13 375.80 296.63 376.74 C 301.43 377.30 306.33 377.21 310.99 375.84 C 311.03 362.89 310.95 349.93 311.04 336.98 C 311.08 335.06 310.84 333.16 310.23 331.35 C 309.90 327.43 310.20 323.46 309.56 319.57 C 307.10 314.25 305.76 308.56 303.97 303.02 C 300.74 296.85 301.05 289.73 299.85 283.05 C 295.59 280.08 290.44 278.66 285.45 277.47 C 281.30 274.24 277.90 270.19 274.04 266.63 C 273.96 259.08 274.02 251.53 274.00 243.98 C 271.42 243.99 268.84 243.85 266.27 244.14 C 266.04 244.44 265.57 245.03 265.33 245.32 C 264.15 250.43 264.41 255.75 262.99 260.80 C 261.09 260.98 259.19 261.22 257.36 261.76 C 248.25 262.32 239.12 261.82 230.00 262.03 C 226.50 261.91 222.67 262.42 219.53 260.57 C 216.67 260.09 213.79 259.72 210.99 258.96 C 211.01 253.62 211.00 248.29 211.00 242.96 C 209.45 242.99 207.90 243.02 206.36 243.05 M 173.62 254.11 C 173.15 255.08 173.36 255.91 174.23 256.60 C 175.43 256.83 176.01 254.93 175.39 254.11 C 174.94 254.11 174.06 254.11 173.62 254.11 M 155.89 264.57 C 155.92 266.96 156.08 269.39 157.15 271.58 C 158.67 270.16 159.10 268.20 159.28 266.21 C 158.15 265.65 157.02 265.10 155.89 264.57 M 143.15 278.38 C 142.30 279.35 143.67 281.27 144.85 280.62 C 145.70 279.64 144.32 277.72 143.15 278.38 M 141.10 300.69 C 140.07 303.06 142.59 303.29 144.14 304.13 C 144.89 303.52 145.65 302.91 146.40 302.31 C 144.64 301.75 142.88 301.19 141.10 300.69 M 148.07 312.41 C 147.67 313.81 148.18 314.32 149.58 313.93 C 149.96 312.54 149.45 312.04 148.07 312.41 M 165.54 318.50 C 162.06 320.41 158.82 322.95 154.83 323.71 C 151.87 324.15 148.88 324.42 145.96 325.11 C 146.84 327.67 148.22 330.00 150.18 331.89 C 152.27 331.99 154.36 332.13 156.44 332.43 C 160.08 334.39 164.42 336.02 168.52 334.62 C 170.49 333.23 172.48 331.97 174.95 331.77 C 175.00 329.73 175.07 327.68 175.24 325.64 C 176.38 322.42 176.00 318.97 175.96 315.63 C 172.80 317.64 168.81 316.74 165.54 318.50 M 118.12 332.00 C 118.66 333.75 119.12 335.53 119.62 337.30 C 122.39 341.23 123.35 346.05 125.97 350.07 C 128.61 354.19 127.95 359.34 128.00 364.00 C 140.00 363.96 152.01 364.06 164.01 363.97 C 166.99 363.44 169.96 362.88 173.02 362.90 C 173.12 358.72 172.43 354.41 173.76 350.36 C 174.08 346.92 174.02 343.46 174.00 340.01 C 171.90 340.71 171.77 338.23 170.87 336.98 C 166.45 336.81 161.54 337.84 157.59 335.43 C 154.80 333.62 151.33 334.18 148.17 333.92 C 146.54 331.42 144.91 328.91 143.66 326.19 C 135.25 328.54 127.10 332.85 118.12 332.00 M 96.85 367.78 C 90.29 368.14 83.59 368.39 77.05 367.43 C 76.25 368.25 75.45 369.07 74.65 369.91 C 72.52 370.12 70.54 370.92 68.50 371.52 C 63.87 372.35 59.14 371.90 54.46 372.04 C 55.76 373.21 57.08 374.36 58.46 375.45 C 60.18 375.87 61.90 376.28 63.59 376.81 C 70.39 377.21 77.20 376.91 84.00 377.00 C 87.28 376.95 90.58 377.24 93.84 376.82 C 96.62 375.86 99.56 374.90 101.50 372.56 C 103.94 369.48 106.73 366.73 109.44 363.90 C 104.98 364.23 100.82 365.80 96.85 367.78 Z" />
<path fill="#000000" opacity="1.00" d=" M 141.65 27.67 C 152.72 22.96 164.95 21.30 176.93 22.13 C 183.30 23.02 189.50 25.35 196.01 25.04 C 201.46 24.90 206.92 25.23 212.36 24.76 C 215.70 23.50 219.31 24.36 222.75 23.74 C 224.87 23.08 227.36 22.63 229.49 23.41 C 230.94 24.47 233.79 24.80 233.01 27.19 C 230.76 25.82 228.63 23.93 225.84 23.99 C 221.95 26.01 217.37 24.14 213.36 25.76 C 207.92 26.23 202.46 25.91 197.01 26.03 C 190.13 26.30 183.40 24.54 176.73 23.17 C 171.96 23.03 167.06 22.44 162.39 23.69 C 152.72 24.43 143.10 27.54 135.00 32.96 C 131.16 35.37 129.01 40.01 124.54 41.44 C 127.02 38.32 129.79 35.41 132.84 32.84 C 135.68 30.96 138.82 29.58 141.65 27.67 Z" />
<path fill="#000000" opacity="1.00" d=" M 156.62 28.23 C 161.75 27.85 166.90 27.99 172.04 27.98 C 174.10 27.95 176.09 28.52 178.06 29.06 L 177.87 30.37 C 173.55 28.23 168.64 29.23 164.00 28.95 C 159.76 28.63 155.71 30.01 151.51 30.22 C 147.78 31.31 143.99 32.47 140.80 34.77 C 136.87 37.04 134.13 40.75 130.57 43.48 C 132.69 38.02 138.09 34.72 142.96 31.94 C 147.10 29.45 152.05 29.41 156.62 28.23 Z" />
<path fill="#000000" opacity="1.00" d=" M 171.58 29.55 C 174.28 30.25 176.02 32.48 177.69 34.54 C 177.93 37.02 178.01 39.51 178.09 42.01 L 177.12 42.00 C 177.01 39.86 176.89 37.71 176.66 35.58 C 174.97 33.57 173.17 31.65 171.58 29.55 Z" />
<path fill="#000000" opacity="1.00" d=" M 211.92 30.83 C 216.87 29.79 222.54 29.06 227.04 31.93 C 228.92 33.09 231.09 33.76 232.77 35.22 C 234.69 37.38 234.91 40.26 235.18 42.99 L 234.21 43.01 C 233.75 40.26 233.26 36.94 230.63 35.38 C 227.79 33.80 224.93 32.20 221.85 31.14 C 217.48 30.30 213.32 32.28 208.97 32.10 C 206.16 31.88 203.60 33.23 200.94 33.94 C 200.96 33.49 201.01 32.59 201.03 32.15 C 204.65 31.59 208.25 30.91 211.92 30.83 Z" />
<path fill="#000000" opacity="1.00" d=" M 203.26 38.42 C 204.43 37.21 205.74 36.12 207.32 35.47 C 206.38 36.92 205.38 38.31 204.36 39.70 C 204.00 42.45 203.97 45.23 203.94 48.00 L 202.97 48.00 C 202.97 44.81 202.99 41.61 203.26 38.42 Z" />
<path fill="#000000" opacity="1.00" d=" M 142.85 42.82 C 149.53 41.18 156.62 40.24 163.49 41.51 C 165.80 42.16 168.11 42.82 170.39 43.55 C 174.00 45.98 177.65 48.41 180.75 51.48 C 180.78 52.83 180.78 54.18 180.76 55.54 C 178.50 57.73 175.95 59.74 173.07 61.02 C 170.14 59.03 166.72 58.07 163.67 56.32 C 161.77 55.15 159.48 54.96 157.42 54.18 C 151.38 53.96 144.97 53.24 139.34 55.95 C 136.59 56.02 133.89 55.79 131.90 53.68 C 132.10 47.84 138.10 44.83 142.85 42.82 M 160.00 45.13 C 160.09 47.16 160.01 49.13 158.60 50.72 C 162.03 50.85 165.52 51.65 168.31 53.76 C 170.08 54.47 171.87 55.15 173.64 55.87 C 174.48 55.09 175.31 54.31 176.16 53.54 C 173.83 51.22 171.16 49.29 168.39 47.55 C 165.62 46.66 162.79 45.96 160.00 45.13 M 139.32 48.95 C 138.42 49.97 137.51 50.98 136.61 52.01 C 139.05 51.30 141.61 50.79 143.67 49.22 C 142.22 49.11 140.77 49.02 139.32 48.95 Z" />
<path fill="#000000" opacity="1.00" d=" M 214.56 46.16 C 218.98 46.00 223.43 45.76 227.84 46.13 C 230.17 47.00 232.03 48.79 234.02 50.23 C 234.02 50.85 234.00 52.09 234.00 52.71 C 233.10 53.37 232.21 54.02 231.32 54.67 C 227.35 55.21 223.26 54.57 219.37 55.69 C 216.77 55.96 214.16 56.08 211.58 56.43 C 209.37 57.38 207.20 58.38 205.00 59.33 C 205.00 61.85 204.99 64.37 204.97 66.90 C 207.91 68.61 210.81 70.36 213.49 72.48 C 216.80 74.00 218.68 77.23 221.40 79.50 C 225.03 79.69 228.09 81.67 230.65 84.13 C 229.90 83.95 228.40 83.60 227.65 83.43 C 224.89 81.34 221.48 80.60 218.36 79.25 C 217.67 80.35 216.95 81.43 216.23 82.51 C 215.25 81.65 214.28 80.80 213.32 79.94 C 211.12 83.81 207.85 86.88 204.45 89.68 C 202.03 89.92 199.61 90.01 197.19 90.10 C 196.41 89.04 195.55 88.03 194.91 86.87 C 194.81 85.51 196.09 84.59 196.69 83.49 C 197.80 84.40 198.90 85.32 200.00 86.23 C 204.76 85.34 207.43 80.74 210.10 77.12 C 209.92 74.94 207.86 73.77 206.14 72.81 C 204.17 71.81 202.61 70.20 201.01 68.71 C 201.00 65.57 201.00 62.43 201.00 59.30 C 198.34 58.42 195.95 56.92 193.51 55.60 C 194.37 54.80 194.70 52.94 196.15 53.12 C 197.89 52.69 199.37 53.55 200.95 54.12 C 203.51 52.30 205.54 49.84 208.19 48.12 C 210.31 47.47 212.45 46.87 214.56 46.16 M 218.00 50.00 L 218.00 51.00 C 221.00 51.00 224.00 51.00 227.00 51.00 L 227.00 50.00 C 224.00 50.00 221.00 50.00 218.00 50.00 Z" />
<path fill="#000000" opacity="1.00" d=" M 121.01 51.10 C 124.05 51.07 126.99 50.40 129.93 49.69 L 129.96 50.90 C 127.90 51.04 125.97 51.74 124.01 52.32 L 123.97 53.00 C 125.31 53.00 126.66 53.00 128.01 53.00 L 127.95 54.23 C 125.59 54.01 123.25 53.59 120.96 52.94 C 120.97 52.48 120.99 51.56 121.01 51.10 Z" />
<path fill="#000000" opacity="1.00" d=" M 235.36 52.89 C 237.42 50.07 240.77 51.39 243.20 52.84 L 243.77 51.94 C 247.05 52.00 250.32 51.99 253.60 52.05 C 256.00 54.39 258.30 57.40 261.69 58.21 C 262.78 60.51 264.07 62.73 264.88 65.16 C 265.58 68.41 264.16 71.57 263.85 74.78 C 263.70 77.63 261.82 80.00 259.53 81.56 C 256.36 81.85 253.74 83.67 250.99 85.11 C 250.99 84.67 251.00 83.81 251.00 83.37 C 254.04 81.34 258.14 81.45 260.71 78.71 C 262.92 76.49 262.66 73.15 263.57 70.36 C 264.65 67.21 263.19 63.96 261.89 61.11 C 261.42 59.65 259.91 59.00 258.70 58.28 C 256.23 57.09 254.44 54.97 252.60 53.02 C 249.32 52.93 245.99 52.85 242.81 53.75 C 240.45 52.66 237.87 52.99 235.36 52.89 Z" />
<path fill="#000000" opacity="1.00" d=" M 127.29 55.21 C 127.99 54.17 130.67 54.95 129.28 56.21 C 128.52 57.28 125.96 56.59 127.29 55.21 Z" />
<path fill="#000000" opacity="1.00" d=" M 249.95 57.06 C 252.91 57.87 255.68 59.04 257.93 61.18 C 257.66 65.42 259.05 69.44 259.09 73.64 C 257.00 75.56 255.05 77.88 252.12 78.47 L 252.09 77.64 C 254.25 76.19 256.17 74.43 258.06 72.65 C 257.77 69.15 256.63 65.77 256.92 62.21 C 254.94 60.39 252.80 58.84 250.01 58.79 C 249.99 58.35 249.97 57.49 249.95 57.06 Z" />
<path fill="#000000" opacity="1.00" d=" M 237.68 61.36 C 241.38 60.94 245.13 60.73 248.84 61.13 C 250.81 61.96 252.51 63.29 254.35 64.38 C 253.95 65.55 253.76 66.87 252.82 67.77 C 250.29 68.43 249.02 65.67 246.83 65.07 C 244.35 64.81 241.87 65.06 239.40 65.26 C 237.63 66.79 236.72 68.93 235.84 71.04 C 231.35 70.83 226.08 71.86 222.63 68.24 C 220.94 66.88 222.63 64.92 223.54 63.66 C 225.61 65.02 227.77 66.25 230.09 67.13 C 232.49 65.04 235.09 63.21 237.68 61.36 Z" />
<path fill="#000000" opacity="1.00" d=" M 162.90 70.99 C 163.42 71.00 164.47 71.00 165.00 71.01 C 165.00 72.32 165.01 73.63 165.02 74.94 C 159.51 77.09 153.47 75.01 147.89 76.77 C 147.93 76.33 148.00 75.45 148.04 75.00 C 153.49 74.76 159.18 75.84 164.39 73.75 C 163.90 72.83 163.40 71.91 162.90 70.99 Z" />
<path fill="#000000" opacity="1.00" d=" M 169.60 71.34 C 173.04 71.06 177.25 69.91 179.78 73.03 C 177.17 75.64 173.23 74.92 169.98 76.03 C 169.99 77.55 169.99 79.07 170.00 80.59 C 171.13 81.14 172.26 81.71 173.38 82.28 C 172.96 83.46 172.83 84.86 171.81 85.74 C 169.27 86.51 167.86 83.94 166.01 82.72 C 166.00 79.90 166.00 77.09 166.00 74.27 C 167.20 73.29 168.39 72.31 169.60 71.34 Z" />
<path fill="#000000" opacity="1.00" d=" M 176.30 78.17 C 179.69 77.69 183.14 78.00 186.53 78.34 C 187.78 79.15 189.62 79.50 190.25 80.99 C 189.00 84.03 185.13 83.02 182.72 82.18 C 180.32 81.10 178.38 83.13 176.59 84.39 C 175.02 82.78 173.85 79.56 176.30 78.17 Z" />
<path fill="#000000" opacity="1.00" d=" M 185.00 136.00 C 196.00 136.00 207.00 136.00 218.00 136.00 L 218.00 137.00 C 207.00 137.00 196.00 137.00 185.00 137.00 L 185.00 136.00 Z" />
<path fill="#000000" opacity="1.00" d=" M 216.34 277.38 C 218.90 274.85 221.57 272.41 224.89 270.92 C 231.27 271.08 237.65 270.98 244.02 270.96 C 245.93 270.92 247.83 271.15 249.64 271.76 C 253.95 272.37 258.51 271.17 262.49 273.36 C 266.76 277.19 270.79 281.27 274.85 285.32 C 274.94 285.83 275.11 286.86 275.20 287.37 C 277.73 288.78 278.81 291.49 280.06 293.94 C 280.02 295.96 280.00 297.98 279.98 300.00 C 280.49 300.00 281.50 300.00 282.00 300.00 C 282.00 300.75 282.00 302.25 282.00 303.00 C 281.27 303.00 279.83 303.00 279.11 303.00 C 278.96 304.82 279.22 306.74 278.63 308.50 C 276.16 311.99 273.72 315.55 270.56 318.48 C 266.85 319.15 263.28 320.29 259.86 321.85 C 253.23 322.25 246.58 321.89 239.94 322.02 C 237.39 322.19 235.12 320.96 232.75 320.28 C 228.67 319.23 224.44 318.96 220.39 317.82 C 215.82 315.36 211.27 312.83 206.81 310.19 C 204.39 307.83 202.73 304.75 201.37 301.69 C 200.52 298.21 200.85 294.53 202.31 291.26 C 204.30 289.45 204.68 286.52 206.75 284.77 C 209.79 282.11 213.13 279.82 216.34 277.38 M 217.85 278.05 C 219.67 278.10 221.49 278.02 223.32 277.95 C 222.85 279.64 222.36 281.32 221.86 283.00 C 220.22 283.00 218.58 283.00 216.95 283.02 C 217.03 281.56 217.07 280.11 217.07 278.66 C 211.90 281.21 206.77 285.00 204.51 290.49 C 203.65 292.02 202.52 293.46 202.10 295.19 C 201.86 297.34 202.00 299.51 202.04 301.67 C 202.44 302.09 203.23 302.92 203.62 303.33 C 204.58 306.28 206.46 309.13 209.26 310.60 C 213.09 312.66 216.66 315.33 220.95 316.43 L 221.01 316.94 C 224.95 318.03 229.03 318.42 233.03 319.18 C 235.51 320.44 238.18 321.31 241.00 321.04 C 247.42 320.72 253.93 321.63 260.28 320.44 C 263.20 319.02 266.40 318.34 269.52 317.52 C 273.29 315.06 275.21 310.88 277.91 307.45 C 277.96 305.98 278.00 304.52 278.04 303.06 C 275.20 303.03 272.35 303.00 269.53 302.63 C 267.66 301.65 265.83 300.59 263.98 299.59 C 264.01 298.23 264.07 296.88 264.13 295.54 C 266.10 296.21 267.94 297.21 269.65 298.41 C 272.38 300.18 275.78 300.04 278.91 300.08 C 279.00 298.21 279.08 296.34 279.22 294.47 C 274.61 286.70 268.30 280.14 261.67 274.08 C 257.97 272.53 253.90 273.02 250.00 273.00 L 250.00 274.00 C 250.50 274.00 251.50 274.00 252.00 274.00 C 252.00 274.75 252.00 276.25 252.00 277.00 C 249.67 277.00 247.33 277.00 245.00 277.00 C 245.00 275.66 245.00 274.33 245.00 273.00 C 245.75 273.00 247.25 273.00 248.00 273.00 L 248.00 272.00 C 240.49 271.91 232.96 272.21 225.45 271.80 C 222.82 273.71 219.30 275.02 217.85 278.05 Z" />
<path fill="#000000" opacity="1.00" d=" M 227.63 272.90 C 230.79 272.89 233.93 273.32 236.98 274.16 C 236.99 274.86 237.01 276.28 237.02 276.99 C 234.33 277.00 231.65 277.01 228.97 277.04 C 228.49 275.67 228.05 274.28 227.63 272.90 Z" />
<path fill="#000000" opacity="1.00" d=" M 295.24 274.24 L 295.76 274.24 L 295.76 274.76 L 295.24 274.76 L 295.24 274.24 Z" />
<path fill="#000000" opacity="1.00" d=" M 256.80 277.75 C 259.33 278.14 261.84 278.67 264.33 279.27 C 263.89 280.58 263.44 281.87 262.97 283.17 C 261.41 283.07 259.85 283.05 258.31 282.82 C 256.52 281.75 257.15 279.46 256.80 277.75 Z" />
<path fill="#000000" opacity="1.00" d=" M 208.00 288.14 C 210.30 287.99 212.49 287.29 214.75 286.95 C 215.66 288.11 215.99 289.55 216.42 290.93 C 213.61 291.00 210.80 291.01 208.00 291.00 C 208.00 290.29 208.00 288.85 208.00 288.14 Z" />
<path fill="#000000" opacity="1.00" d=" M 209.29 296.16 C 212.19 295.81 215.12 296.01 218.03 296.01 C 218.02 297.31 218.01 298.61 218.00 299.91 C 214.97 301.92 211.37 302.01 207.86 302.12 C 208.23 300.14 207.29 297.46 209.29 296.16 Z" />
<path fill="#000000" opacity="1.00" d=" M 214.81 304.03 C 216.87 304.00 218.94 304.00 221.00 303.99 C 221.00 304.49 221.00 305.50 221.00 306.00 C 222.33 306.00 223.66 306.00 224.99 306.01 C 225.00 307.32 225.01 308.63 225.02 309.94 C 222.52 310.75 219.90 311.08 217.28 311.12 C 215.45 309.14 214.99 306.63 214.81 304.03 Z" />
<path fill="#000000" opacity="1.00" d=" M 260.04 303.74 C 263.13 304.50 266.21 305.29 269.26 306.21 C 268.93 307.83 269.20 309.79 267.72 310.92 C 265.08 311.41 262.46 310.70 259.97 309.92 C 259.99 307.86 260.01 305.80 260.04 303.74 Z" />
<path fill="#000000" opacity="1.00" d=" M 228.98 310.19 C 232.25 309.22 235.64 308.87 239.04 308.91 C 239.01 310.48 238.98 312.05 238.94 313.62 C 238.15 314.44 237.36 315.26 236.58 316.09 C 233.84 315.96 231.03 315.90 229.03 313.76 C 229.01 312.56 229.00 311.37 228.98 310.19 Z" />
<path fill="#000000" opacity="1.00" d=" M 247.32 309.08 C 249.04 308.90 250.77 309.12 252.49 309.29 C 253.60 310.34 254.68 311.43 255.74 312.55 C 255.72 314.37 256.75 316.80 254.69 317.88 C 252.10 318.44 249.51 317.68 247.04 316.97 C 246.51 314.47 244.64 310.92 247.32 309.08 M 251.24 314.24 L 251.24 314.76 L 251.76 314.76 L 251.76 314.24 L 251.24 314.24 Z" />
<path fill="#000000" opacity="1.00" d=" M 33.88 332.36 C 34.45 331.91 35.58 331.01 36.14 330.57 C 35.82 332.11 35.48 333.65 35.21 335.22 C 36.49 337.07 37.53 339.67 40.15 339.80 C 42.17 339.84 43.80 341.02 45.53 341.91 C 52.69 342.10 59.84 341.96 67.00 342.00 L 67.00 343.00 C 59.58 343.04 52.17 342.90 44.75 343.10 C 44.22 342.58 43.15 341.53 42.62 341.01 C 41.43 342.11 40.24 343.22 39.03 344.32 C 39.01 345.77 39.00 347.23 38.98 348.69 C 43.80 350.25 48.86 349.94 53.86 350.13 C 56.01 350.77 58.24 351.05 60.47 351.29 C 64.47 352.81 68.76 353.18 73.00 353.06 L 73.01 354.06 C 66.69 354.47 60.65 352.46 54.52 351.37 C 50.03 350.50 45.36 351.65 40.95 350.24 C 40.98 352.12 40.99 354.00 40.99 355.89 C 43.24 357.73 46.01 359.02 48.96 358.99 C 53.97 359.09 58.99 358.95 64.00 359.00 L 64.00 360.00 C 58.36 360.00 52.72 360.00 47.08 360.00 C 44.58 359.27 41.99 358.63 39.96 356.89 C 39.99 354.59 40.00 352.29 40.00 350.00 C 39.50 350.00 38.51 350.00 38.01 350.00 C 37.93 347.24 37.67 344.45 39.33 342.08 C 39.86 342.03 40.90 341.95 41.43 341.90 C 38.49 340.96 36.08 339.05 34.38 336.49 C 34.20 335.11 34.04 333.73 33.88 332.36 Z" />
</g>
</svg>
