<?xml version="1.0" encoding="utf-8"?>
<!-- Generator: Adobe Illustrator 15.0.2, SVG Export Plug-In . SVG Version: 6.00 Build 0)  -->
<!DOCTYPE svg PUBLIC "-//W3C//DTD SVG 1.1//EN" "http://www.w3.org/Graphics/SVG/1.1/DTD/svg11.dtd">
<svg version="1.1" id="Layer_1" xmlns="http://www.w3.org/2000/svg" xmlns:xlink="http://www.w3.org/1999/xlink" x="0px" y="0px"
	 width="288px" height="220px" viewBox="0 0 288 220" enable-background="new 0 0 288 220" xml:space="preserve">
<path fill="#FFFFFF" d="M0,0h216.811c-1.08,0.46-2.181,0.88-3.281,1.27c-1.028,0.5-2.038,1-3.059,1.52
	c-0.961,0.24-1.921,0.5-2.881,0.78c-0.52,0.33-1.58,0.99-2.109,1.32c-0.471,0.09-1.399,0.27-1.871,0.36
	c-1.06,0.34-2.129,0.65-3.198,0.93c-1.37,0.83-2.71,1.72-4,2.67c-0.438,0.12-1.32,0.35-1.761,0.47c-1.399,0.38-2.83,0.63-4.25,0.85
	c-1.34,0.83-2.659,1.69-3.93,2.62c-1.271,0.21-2.531,0.43-3.771,0.72c-1.39,0.78-2.79,1.55-4.181,2.33
	c-0.471,0.12-1.399,0.37-1.869,0.5c-2.301,1.32-4.312-0.91-6.32-1.75c-1.23-0.35-2.49-0.64-3.73-0.93
	c-2.039-0.53-4.14-0.79-6.17-1.33c-0.47-0.14-1.41-0.4-1.869-0.54c-1.011-0.43-2.011-0.86-3.021-1.27
	c-2.69-0.53-5.47-0.49-8.149-1.09c-1.361-0.39-2.721-0.76-4.051-1.23c-1.55-0.15-3.1-0.27-4.64-0.43c-2.21-0.9-4.62-0.77-6.94-0.99
	c-2.45-1.07-5.17-0.76-7.77-0.812c-7.74,0.15-15.49-0.17-23.23,0.19c-1.64,0.63-3.38,0.87-5.09,1.19c-1.66,0.43-3.35,0.67-5.04,0.95
	c-1.33,0.41-2.69,0.72-4.04,1.05c-2.03,0.53-4.13,0.78-6.16,1.32c-0.46,0.14-1.38,0.42-1.85,0.56c-1,0.39-2,0.77-3.01,1.13
	c-1.03,0.29-2.07,0.56-3.11,0.81c-3.17,2.07-6.46,3.94-9.88,5.57c-1.72,0.82-3.42,1.68-5.15,2.479c-1.71,0.96-3.32,2.08-5.02,3.04
	c-1.75,0.95-3.38,2.09-5.08,3.11c-1.46,1.34-3.04,2.55-4.85,3.38c-1.36,0.85-2.63,1.85-3.91,2.82c-1.98,1.3-3.68,2.96-5.33,4.65
	c-6.59,6.72-13.35,13.28-19.92,20.03c-1.24,2.09-2.57,4.14-3.56,6.36c-0.81,1.39-1.68,2.72-2.64,4c-0.07,0.45-0.23,1.35-0.3,1.79
	c-0.42,1-0.82,2.01-1.19,3.03c-0.38,1.32-0.68,2.67-1,4.021c-0.41,1.6-0.67,3.24-0.97,4.87c-1.41,6.54-0.4,13.36-0.56,20
	c0.4,0.96,0.78,1.93,1.15,2.91c-1.69,1.6-3.25,3.36-4.25,5.48V0z"/>
<path d="M216.811,0h4.34c1.091,0.57,2.181,1.15,3.261,1.76c1.09,0.48,2.18,0.97,3.278,1.44c1.881,1.03,3.521,2.42,4.98,3.98
	c0.98,1.82,2.13,3.54,3.21,5.3c0.101,0.48,0.3,1.44,0.399,1.92c0.591,2.1,0.861,4.27,1.561,6.33c0.471,12.17-0.16,24.35,0.33,36.52
	c0.87,2.38,0.85,4.97,1.52,7.41c0.102,0.49,0.312,1.48,0.41,1.97c12.42,12.33,24.74,24.77,37.17,37.1c1.17,1.18,2.23,2.46,3.16,3.84
	c1.211,1.53,2.381,3.09,3.32,4.81c0.811,1.8,1.77,3.53,2.91,5.14c0.42,1.102,0.859,2.2,1.34,3.28v13.11
	c-0.91,2.8-1.15,5.81-2.6,8.43c0.52,1.71,0.82,3.51,0.57,5.301c-0.861,1.141-2.352,1.279-3.602,1.67
	c-1.03,1.709-2.17,3.359-3.17,5.09c-0.221,0.529-0.66,1.601-0.87,2.131c-1.392,2.859-2.54,5.8-3.5,8.828
	c2.01,0.852,3.97,2.172,3.22,4.672c0.381,3.908-4.449,2.89-6.93,3.029c-0.092-0.591-0.262-1.779-0.352-2.371
	c-2.1-2.5,1.201-4.02,3-5.17c0.461-1.67,1.041-3.31,1.461-5c0.699-1.41,1.42-2.8,2.119-4.209c-1.76,0.84-3.26,2.08-4.729,3.351
	c-1.479,0.87-2.891,1.85-4.398,2.649c-1.432,1.489-3.462,2.819-3.422,5.159c-0.359-0.51-0.699-1.01-1.05-1.51
	c-1.7,1.04-3.521,1.94-5.49,2.33c-0.409,0.41-1.22,1.229-1.63,1.64c-0.5,0.07-1.51,0.2-2.01,0.26
	c-1.021,0.381-2.051,0.74-3.08,1.062c-0.53,0.271-1.59,0.8-2.12,1.062c-0.55,0.238-1.649,0.709-2.21,0.938
	c-0.229,1.46-0.47,2.931-0.852,4.358c-0.299,1.281-0.58,2.562-0.93,3.83c-0.39,0.61-1.16,1.842-1.55,2.451
	c0.78,0.369,2.341,1.119,3.12,1.5c0,1.379,0,2.771,0,4.159c-1.18,1.16-2.35,2.341-3.51,3.54c-1.93-0.18-4.26,0.37-5.561-1.47
	c0.26-0.89,0.59-1.75,1-2.591c-0.32-0.079-0.939-0.26-1.25-0.34c2.659-2.471,5.439-4.92,7.26-8.109
	c0.069-0.971,0.16-1.939,0.25-2.91c0.439-1.32,0.83-2.67,1.16-4.02c-1.351,0.318-2.699,0.699-4.021,1.119
	c-1.21,0.159-2.41,0.311-3.608,0.479c-3.99,1.41-8.32,0.54-12.451,0.74c-0.449,2.188-1.061,4.34-1.59,6.51
	c-0.359,1.13-0.681,2.271-0.971,3.42c0.59,0.03,1.762,0.09,2.352,0.12c-0.352,2.3,0.869,5.37-1.44,6.898
	c-1.399,0.17-2.82,0.182-4.21-0.028c-1.65-0.802-1.301-2.82-1.59-4.302c1.979-1.77,3.8-3.738,5.149-6.049
	c0.039-0.681,0.101-2.041,0.13-2.721c0.601-1.311,0.979-2.699,1.311-4.09c-1.75,0.24-3.54,0.38-5.17,1.09
	c-2.48,0.16-4.961,0.17-7.43,0.2l0.52,1.97c-2.95-1.9-4.62,2.23-6.609,3.71c-1.521,0.82-2.99,1.73-4.521,2.53
	c0.45,1.38,0.829,2.779,1.21,4.18c0.54,2.42,0.57,4.94,1.38,7.301c0.149,1.84,0.25,3.681,0.41,5.521
	c1.479,3.729,0.59,7.851,0.79,11.75c-1.221,0-2.43,0-3.641,0c-0.271-0.59-0.801-1.76-1.07-2.351c-0.76-1.631-1.319-3.351-2-5.01
	c-0.949-2.061-1.619-4.229-2.529-6.301c-1.5-2.9-3.09-5.779-5.15-8.32c-1.97-0.02-3.529,1.771-5.14,2.74
	c-1,0.271-2,0.551-2.989,0.86c-1.701,0.61-3.371,1.31-5.021,2.04c-2.08,0.68-4.07,1.64-6.05,2.59c-1.312,0.7-2.642,1.37-3.971,2.04
	c-1.351,0.68-2.699,1.351-4.051,2c-2.238,1.16-4.521,2.26-6.75,3.43c-1.08,0.49-2.148,1.021-3.229,1.53
	c-0.94,0.51-1.871,1.02-2.801,1.529c-1.369,0.58-2.74,1.16-4.119,1.721c-3,0.62-6.122,0.32-9.09,1.1
	c-0.45,0.182-1.35,0.541-1.8,0.721c-1.32,0.391-2.66,0.699-3.99,1.029c-2.05,0.53-4.15,0.771-6.19,1.301
	c-0.46,0.181-1.38,0.529-1.83,0.709c-2.04,0.521-4.13,0.762-6.18,1.24c-1.44,0.41-2.89,0.812-4.27,1.4H80.89
	c-1.15-0.561-2.28-1.141-3.39-1.75c-1.39-0.41-2.75-0.9-4.11-1.4c-1.73-1.06-3.4-2.209-5.16-3.199c-1.33-1.279-2.63-2.569-3.9-3.891
	c-1.25-2.18-2.62-4.29-3.91-6.439c-0.81-5.471-0.4-11.051-0.26-16.561c0.62-1.64,0.87-3.369,1.21-5.08
	c1.32-5.449,0.35-11.14,0.63-16.689c-0.67,0.011-2.01,0.021-2.67,0.029c-0.49-0.608-1.47-1.818-1.95-2.43
	c-2.5,0.37-3.94,2.25-3.53,4.79c-0.59,1.649-1.15,3.399-0.8,5.181c1.21,1.029,2.63,1.799,3.83,2.851
	c0.19,1.698,0.14,3.409,0.17,5.108c-1.18,1.15-2.35,2.312-3.5,3.48c-1.36,0-2.72,0-4.08,0c-0.9-0.88-1.8-1.75-2.71-2.609
	c0.43-1.371,0.9-2.729,1.35-4.091c1.11-1.739,2.4-3.351,3.83-4.84c0.05-1.21,0.11-2.41,0.16-3.62c0.83-1.48,0.97-3.18,1.14-4.83
	c-1.47-0.01-2.95-0.02-4.42-0.02c0.29-1.312,0.61-2.62,0.8-3.95c-0.68-0.5-1.41-0.94-2.17-1.32c-5.79-2.688-8.66-9.11-14.18-12.149
	c-6.55-6.09-12.67-12.619-19.06-18.869c-1.36-1.301-2.61-2.711-3.63-4.29c-1-1.28-2.02-2.54-2.97-3.851
	c-0.22-0.649-0.67-1.951-0.89-2.591L6,117c0,2.53-0.13,5.07,0.11,7.59c1.24,1,2.6,1.86,3.85,2.85c0.17,1.711-0.08,3.432-0.32,5.131
	c-1.41,2.891-4.51,2.761-7.28,2.359c-1.59-1.46-1.42-3.92-2.36-5.76v-0.75c1.52-1.42,3.29-2.52,4.88-3.85
	c0.48-3.54-0.61-7.36,1.07-10.68c-1.19,0.06-2.39,0.108-3.59,0.158c-0.79-0.869-1.58-1.75-2.36-2.64v-0.7
	c1-2.12,2.56-3.88,4.25-5.48c-0.37-0.98-0.75-1.95-1.15-2.91c0.16-6.64-0.85-13.46,0.56-20c0.3-1.63,0.56-3.27,0.97-4.87
	c0.32-1.35,0.62-2.7,1-4.02C6,72.41,6.4,71.4,6.82,70.4c0.07-0.44,0.23-1.34,0.3-1.79c0.96-1.28,1.83-2.61,2.64-4
	c0.99-2.22,2.32-4.27,3.56-6.36c6.57-6.75,13.33-13.31,19.92-20.03c1.65-1.688,3.35-3.35,5.33-4.65c1.28-0.97,2.55-1.97,3.91-2.82
	c1.81-0.83,3.39-2.04,4.85-3.38c1.7-1.02,3.33-2.16,5.08-3.11c1.7-0.96,3.31-2.08,5.02-3.04c1.73-0.8,3.43-1.66,5.15-2.479
	c3.42-1.63,6.71-3.5,9.88-5.57c1.04-0.25,2.08-0.52,3.11-0.81c1.01-0.36,2.01-0.74,3.01-1.13c0.47-0.14,1.39-0.42,1.85-0.56
	c2.03-0.54,4.13-0.79,6.16-1.32c1.35-0.33,2.71-0.64,4.04-1.05c1.69-0.28,3.38-0.52,5.04-0.95c1.71-0.32,3.45-0.56,5.09-1.19
	c7.74-0.36,15.49-0.04,23.23-0.19c2.6,0.05,5.32-0.26,7.77,0.811c2.32,0.22,4.73,0.09,6.94,0.99c1.54,0.16,3.09,0.28,4.64,0.43
	c1.33,0.47,2.689,0.84,4.051,1.23c2.68,0.6,5.459,0.56,8.149,1.09c1.01,0.41,2.01,0.84,3.021,1.27c0.459,0.14,1.399,0.4,1.869,0.54
	c2.03,0.54,4.131,0.8,6.17,1.33c1.24,0.29,2.5,0.58,3.73,0.93c2.01,0.84,4.02,3.07,6.32,1.75c0.47-0.13,1.398-0.38,1.869-0.5
	c1.391-0.78,2.791-1.55,4.181-2.33c1.239-0.29,2.5-0.51,3.771-0.72c1.271-0.93,2.59-1.79,3.93-2.62c1.42-0.22,2.851-0.47,4.25-0.85
	c0.439-0.12,1.32-0.35,1.761-0.47c1.29-0.95,2.63-1.84,4-2.67c1.069-0.28,2.14-0.59,3.198-0.93c0.472-0.09,1.4-0.27,1.871-0.36
	c0.529-0.33,1.59-0.99,2.109-1.32c0.96-0.28,1.92-0.54,2.881-0.78c1.021-0.52,2.029-1.02,3.059-1.52
	C214.63,0.88,215.73,0.46,216.811,0 M216.49,4.66c-0.98,0.31-1.94,0.66-2.881,1.05c-2.049,0.94-4.189,1.64-6.239,2.58
	c-1.261,0.52-2.58,0.91-3.841,1.43c-1,0.271-1.989,0.562-2.969,0.88c-1.84,1.37-3.781,2.54-6.021,3.12
	c-1.54,0.42-3.03,0.97-4.54,1.47v0.7c2.34-0.49,3.819,1.38,5.58,2.51c1.75,0.46,3.528,0.9,4.778,2.31
	c1.342,0.67,2.701,1.36,4.222,1.56c4.46,1.98,8.26,5.13,12.37,7.7c2.068,0.84,3.84,2.18,5.38,3.78c1.278,1.42,3.448,1.86,4.278,3.7
	c1.682,3.3,5.541,4.98,6.791,8.53l0.601,0.05c0.01-7.021-0.021-14.04,0.028-21.05c-0.02-1.55,0.142-3.19-0.778-4.54
	c-0.25-1.33-0.38-2.69-0.899-3.95c-0.32-0.98-0.66-1.95-1.011-2.92c-0.25-0.5-0.729-1.51-0.979-2.02
	c-1.369-2.48-3.521-4.45-5.869-5.99c-1-0.29-1.99-0.58-2.98-0.86C220,3.68,218.029,3.75,216.49,4.66 M102.6,10.08
	c-1.74,1.59-4.4,0.28-6.19,1.79c-0.51,0.04-1.55,0.12-2.07,0.16c-0.29,0.62-0.86,1.86-1.15,2.479c-0.27,3.49-1.24,6.87-2.42,10.15
	c1.46,0.52,2.9,1.12,4.36,1.64c0.01,2-0.6,3.88-1.35,5.7c-1.47,0-2.93,0-4.39,0c-1.15-1.36-2.7-2.43-3.53-4.03
	c0.98-1.67,2.61-2.86,3.92-4.27c0.72-1.58,1.5-3.18,1.35-4.99c1.1-1.57,0.73-3.62,1.69-5.24c0.09-0.4,0.27-1.2,0.36-1.6
	c-2.32,1.72-5.5,0.58-7.77,2.47c-1.88,1.01-4.26,0.21-6.01,1.54c-0.51,0.03-1.55,0.11-2.07,0.14c-2.1,5.07-4.03,10.35-3.34,15.97
	C74.49,32,75.5,32,76,32.01c0,1.91,0,3.83,0,5.74c-2.55,1.42-6.33,2.32-7.45-1.25c-1.68-2.79,2.34-4.92,4.45-5.9
	c0-1.96,0-3.93,0-5.89c0.98-1.08,1.23-2.56,1.02-3.98c0.83-1.4,1.58-2.84,2.36-4.27c-3.3,1.03-5.81,3.51-8.96,4.84
	c-2.01,0.99-4.01,2.01-6.02,3.01c-0.55,0.24-1.65,0.71-2.2,0.94c-0.25,1.81-0.8,3.56-1.45,5.27c-1.12,2.43-1.88,5-2.76,7.52
	c0.51-0.02,1.54-0.05,2.06-0.06c-0.28,1.96,0.71,4.5-1.25,5.81c-1.07,1.69-3.13,1.11-4.8,1.3c0-1.89,0-3.78,0-5.67
	c4.54-2.93,4.91-8.52,7.29-12.93c-2.84,0.93-5.11,2.87-7.72,4.24c-2.81,1.82-5.84,3.47-8.37,5.66c-0.16,3.52-1.63,6.75-2.52,10.11
	c-0.36,1.04-0.66,2.09-0.91,3.16c1.43,0.51,2.84,1.1,4.28,1.61c-0.29,1.59,0.54,3.64-0.67,4.91c-1.77,2.86-6.76,2.72-7.84-0.68
	c-1.75-2.65,2.11-4.1,3.42-5.88c0.05-1.02,0.11-2.03,0.17-3.04c1.13-2.9,2.36-5.8,3.01-8.85c-1.78,0.96-3.54,2.01-4.92,3.52
	c-6.25,6.39-12.71,12.56-18.91,18.99c-1.98,2.65-4.28,5.14-5.27,8.38c-0.01,1.59,0.03,3.18,0.13,4.76
	c-0.72-0.54-1.46-1.06-2.21-1.56c0.82,2.13,1.27,4.32,1.21,6.62c-0.32-0.06-0.98-0.17-1.31-0.22c0.05-0.81,0.15-2.41,0.19-3.22H9
	c0,0.82,0,2.48,0,3.3c2.24,3.24,0.45,7.61,1,11.3c1.57,0.52,2.96,1.49,3.94,2.84c0.52,1.97-0.51,3.78-1.19,5.56
	c-1.99,0-3.98-0.01-5.97,0.02c0.09,1.29,0.46,2.48,1.1,3.58c0.25,2-0.35,4.24,0.96,5.98c0.18,1.66,0.04,3.41,0.83,4.93
	c0.29,1.01,0.63,2,1,2.98c1.09,4.01,4.41,6.89,6.65,10.29c5.84,5.829,11.56,11.8,17.57,17.45c5.56,3.318,8.78,9.479,14.48,12.58
	c1.07,0.398,2.06,1.148,3.24,1.22c1.58-2.82,4.14-4.91,5.77-7.69c0.94-0.65,2.77-0.98,2.65-2.42c0.11-1.311-0.82-2.37-1.26-3.529
	c-2.32-3.871-4.18-7.921-6.12-11.979c-1.3-2.95-0.41-6.312-0.65-9.431c0.26-3.461-0.66-7.131,0.62-10.431
	c0.27-0.5,0.8-1.49,1.06-1.98c0.98-1.63,1.99-3.24,3.12-4.76c2.58-2.06,6.1-3.17,7.63-6.32c0.29-1,0.59-1.99,0.88-2.98
	c1.44-2.8,0.08-6.1,1.18-9.01c3.14-4.26,7.17-7.88,11.94-10.22c1.42-0.8,2.72-1.771,4.14-2.58c1.35-0.68,2.69-1.37,4.03-2.08
	c1.65-0.54,3.45-0.62,5-1.48c1.26-0.1,2.53-0.17,3.8-0.26c1.79-1.42,4.29-0.41,6.16-1.64c1.37-0.29,2.92-0.16,4.05-1.16
	c2.26-0.09,4.52-0.08,6.78-0.16c4.24-2.6,9.99,0.77,14.22-1.85c3.28-0.53,7.08,0.95,9.99-1c11.8-0.18,23.61,0.01,35.419-0.09
	c1.551,0.03,3.229-0.21,4.551,0.82c0.459,0.11,1.4,0.32,1.859,0.42c1.59,0.71,3.329,0.89,4.979,1.39
	c1.062,0.58,2.118,1.17,3.188,1.75c1.271,0.45,2.57,0.82,3.852,1.26c3.539,2.41,7.148,4.72,10.68,7.15
	c3.13,3.26,7.092,5.51,10.102,8.92c5.528,3.71,9.67,9.05,14.52,13.56c6.82,5.1,13.07,11.311,17.189,18.8
	c-0.129,6.13,0.631,12.39-0.439,18.44c-1.25,1.71-2.811,3.199-3.811,5.08c-3.101,6.31-10.181,9.59-13.521,15.789
	c-0.979,2.811-2.08,5.58-3.392,8.271c-1.039,3.06-4.658,4.46-5.108,7.74c0.729-0.32,2.2-0.96,2.938-1.28
	c4.92-0.23,9.861,0.04,14.791-0.17c1.74-1.43,4.181-0.57,6.119-1.57c1-0.318,1.99-0.66,2.98-1.05c1.01-0.28,2.01-0.61,2.99-0.979
	c1.01-0.301,2.01-0.631,3-1.01c0.979-0.291,1.949-0.609,2.92-0.951c1.061-0.578,2.119-1.158,3.199-1.719
	c1.281-0.461,2.591-0.82,3.891-1.229c6.08-5.16,13.42-9.08,17.87-15.95c0.229-0.51,0.71-1.529,0.95-2.04
	c0.479-1.26,0.858-2.562,1.33-3.819c0.569-1.069,1.148-2.131,1.75-3.181c0.89-1.92,0.14-4.3,1.52-6.021
	c-0.221-3.291,0.96-6.989-0.76-9.979c0.3-2.72-0.79-4.979-2.551-6.96c-0.239-0.689-0.719-2.061-0.959-2.75
	c-1.681-0.09-2.681,1.34-3.102,2.75c-0.979,2.852-1.521,7.49,2.53,7.932c0.67,3.06-1.841,6.438-5.13,5.648
	c-2.74,0.521-3.291-2.57-3.03-4.602c1.37-1.26,2.71-2.56,4.08-3.83c0-1.52,0-3.039,0-4.56l0.76-0.069
	c-0.119-2.271,2.431-4.381,0.57-6.479c-2.74-4.18-6.88-7.29-10.33-10.89c-0.011,3.67,0,7.34,0,11.02c1.54,0.48,3.569,1.36,3.05,3.37
	c0.32,4.12-6.34,5.91-7.51,1.49c-1.75-2.66,2.14-4.11,3.46-5.9c0-3.72,0-7.45,0-11.18c-11.091-10.84-21.87-21.99-33-32.8
	c-0.011,3.28,0.04,6.55-0.07,9.82c-1.55,1.46-0.729,3.71-0.979,5.56c0.521,0.01,1.57,0.01,2.101,0.02
	c-0.04,1.521,0.011,3.04-0.14,4.56c-0.92,1.2-2.18,2.07-3.42,2.9c-2.99,2.04-7.01-1.97-4.961-4.96c1.181-1.99,2.811-4.04,5.41-3.67
	c0.159-1.49-0.279-3.25,0.989-4.41c0.12-3.67,0.062-7.35,0.07-11.03c-2.188-1.92-4.261-4.01-5.779-6.52
	C222,53.29,218.46,49.98,215,46.62c-0.01,5.67,0,11.34,0,17.01c4.58,0.48,3.88,7.48-0.01,8.38c-3.25,0.85-5.711-2.58-5.07-5.57
	c1.37-1.26,2.71-2.56,4.08-3.83c0-6.06,0-12.13,0-18.19c-5.439-5.78-12-10.34-18.561-14.77c-0.5-0.23-1.521-0.68-2.029-0.91
	c-0.5-0.271-1.49-0.81-1.98-1.08c-1.27-0.47-2.56-0.85-3.82-1.32c-1.08-0.55-2.139-1.12-3.209-1.67
	c-1.26-0.48-2.541-0.87-3.771-1.38c-1.351-0.63-2.72-1.23-4.159-1.61c-2.471-0.73-4.83-1.77-7.08-3.01
	c-0.951-0.37-1.91-0.71-2.871-1.02c-1.93-0.94-4.26-0.26-6.09-1.46c-0.459-0.09-1.39-0.28-1.859-0.38
	c-1.271-0.96-2.869-0.78-4.35-0.93c-0.08,1.29-0.41,2.5-0.961,3.64c-0.41,2.67-1.26,5.25-1.449,7.95
	c-2.149,1.69,0.739,2.95,1.189,4.59c0.029,1.72,0.52,3.95-1.42,4.86c-2.051,0.18-4.12,0.18-6.16,0c-1.4-0.7-1.91-2.24-0.74-3.43
	c0.131-0.96,0.45-1.83,0.95-2.63c0.88-0.61,2.431-3.66,2.83-0.57c0.681-0.93,1.36-1.87,2.021-2.83c0.33-1.23,0.539-2.49,0.649-3.76
	c1.21-1.58,0.521-3.83,1.87-5.32c0.66-2.82-2.18-3.75-4.439-3.6c-1.859-1.25-4.331-0.28-6.141-1.62c-1.69-0.26-3.66,0.2-5.03-1.09
	c-2.64-0.39-5.72,0.76-7.99-1c-5.72-0.13-11.45-0.09-17.17-0.02c-2.41,4.13-3.56,8.91-3.25,13.68c1.35,0.49,2.68,1.05,4.04,1.54
	c-0.33,2.23,0.96,5.29-1.44,6.67c-1.38,0.15-2.78,0.16-4.16-0.01c-1.5-0.99-1.44-3.09-2.32-4.53c0.94-0.94,1.93-1.84,2.8-2.85
	c0.22-2.27,0.07-4.56,0.1-6.84c0.98-1.08,1.24-2.56,1.01-3.99c0.77-1.29,1.47-2.64,2.3-3.9C108.41,10.06,105.51,9.98,102.6,10.08
	 M181.99,18.19c0.01,0.4,0.01,1.2,0.01,1.6c2.2,0.06,4.09,1.18,5.9,2.31c0.039-2.17,1.14-4.09,1.41-6.23
	C187,17.04,184.38,17.24,181.99,18.19 M190.37,16.72c-0.29,1.97-1.87,3.79-1.05,5.86c1.188-0.69,2.18-1.63,3.17-2.58
	c0.64,0,1.91,0,2.539,0l-0.079-0.54C193.33,18.67,192.25,16.94,190.37,16.72 M196.029,19.71C196,21.84,196,23.98,196,26.11
	c2.62,0.38,4.87-0.9,6.98-2.25c0.028,1.18,0.068,2.36,0.129,3.54c0.979,1.68,0.881,4.68,3.431,4.83c2.21-0.78,3.319-3.33,5.79-3.69
	c-1.95-1.3-3.891-2.63-5.88-3.87c-0.96-0.45-1.91-0.9-2.86-1.35c-1.91-0.51-3.52-1.65-5.16-2.67
	C197.83,20.41,196.63,19.94,196.029,19.71 M191,22.28c0,0.37,0,1.13,0,1.5c1.45,0.15,2.85,0.5,4.07,1.33
	c-0.041-1.46-0.08-2.91-0.12-4.37C193.63,21.23,192.32,21.79,191,22.28 M199.99,27.45c0.71,0.91,1.58,2.46,2.82,2.49
	c-0.271-1.31-0.541-2.85-1.352-3.95C200.63,26.13,200.141,26.61,199.99,27.45 M207.68,32.58c1.01,2.3,3.23,3.49,5.33,4.62
	c-0.01-2.55,0-5.09-0.09-7.63C211.141,30.53,209.51,31.73,207.68,32.58 M214.08,29.57c0.41,3.46-1.42,7.84,1.311,10.58
	c2.199-1.45,2.629-4.75,5.311-5.43c1.46,4.35,1.92,8.94,3.55,13.28l0.608,0.02c0.781-2.18,1.031-4.51,1.99-6.62
	c0.041-0.49,0.142-1.48,0.19-1.97C223.189,35.59,218.8,32.26,214.08,29.57 M216.9,41.01c1.76,2.69,3.59,5.36,6.08,7.43
	c0.278-1.15-0.26-2.21-0.871-3.13c-0.68-2.93-0.84-6.07-2.369-8.72C218.811,38.07,217.77,39.49,216.9,41.01 M227.01,43
	c-0.02,1.14-0.06,2.29-0.1,3.43c-0.73,1.34-1.1,2.84-1.86,4.17c2.56,2.49,5.32,4.87,7.05,8.05l-0.709,0.67
	c0.68,0.19,2.029,0.57,2.699,0.77c-1.1-2.27-2.07-4.59-3.46-6.7c-0.34-0.96-0.659-1.93-0.96-2.9c-0.72-2.48-1.66-4.92-1.859-7.51
	L227.01,43 M228.859,42.56c-0.129,2.13,0.899,4,1.461,5.99c0.479,1.27,0.859,2.58,1.33,3.86c0.75,1.46,1.43,2.96,2.379,4.3
	c-0.289-2.35,0.57-4.99-0.739-7.13C232.21,46.97,231.51,44.07,228.859,42.56 M139.6,68.07c-3.25,2.45-7.95-0.6-11.2,1.86
	c-3.93,0.15-7.87-0.01-11.8,0.14c-2.94,2.48-7.92-1.03-10.05,2.91c6.48,0,12.96,0.1,19.43-0.03c0.41-0.22,1.21-0.66,1.62-0.88
	c2.58-0.1,5.17-0.08,7.76-0.05c2.74-2.15,6.56,0.16,9.24-1.94c5.102-0.17,10.211-0.03,15.32-0.1c1.891,0.08,3.96-0.35,5.641,0.78
	c1.359,0.24,2.811,0.26,4.01,1.04c0.471,0.1,1.4,0.31,1.859,0.42c1.6,0.69,3.34,0.89,4.98,1.46c1.6,0.83,3.311,1.4,5.01,2.01
	c0.5,0.24,1.52,0.73,2.03,0.98c1.39,0.84,2.7,1.81,4.1,2.66c0.96,0.44,1.921,0.89,2.89,1.33c2.972,1.6,5.531,3.84,8.461,5.51
	c1.99,1.17,4.42,2.65,4.351,5.29c-4.12-3.89-8.76-7.25-13.84-9.76c-0.96-0.47-1.91-0.93-2.87-1.38c-2-1.3-3.971-2.66-6.13-3.66
	c-1.7-0.59-3.41-1.15-5-1.98c-1.642-0.57-3.382-0.78-4.979-1.45c-0.459-0.12-1.4-0.34-1.859-0.45c-1.65-0.84-3.62-0.66-5.18-1.69
	c-5.92-0.16-11.861-0.13-17.791-0.01c-2.649,2.3-6.721-0.53-9.311,1.92c-2.56,0-5.13-0.03-7.69,0.07c-0.4,0.22-1.2,0.66-1.6,0.88
	c-6.8,0.1-13.6,0.09-20.39-0.02c-1.97-1.68-4.68-0.72-7.01-0.86c-1.37,1.28-3.33,0.83-5.01,1.11c-2.31,0.94-4.87,1.1-7.02,2.49
	c-2.45,1.14-4.61,2.78-6.99,4.06c-3.53,1.92-6.89,4.34-9.08,7.78c-1.12,2.9,0.26,6.21-1.19,9c-0.29,0.99-0.58,1.98-0.87,2.97
	c-3.01,5.27-9.9,6.98-11.83,13.081c-1.06,2.33-0.48,4.959-0.62,7.439c0.19,2.8-0.52,5.78,0.63,8.43c0.72,1.32,1.43,2.65,2.12,3.99
	c0.4,2.74,2.61,4.65,3.61,7.16c0.28,0.71,0.85,2.12,1.13,2.83c2.29-1.66,4.46-3.48,6.85-4.99c-2.58-1.07-5.1-2.3-7.81-3.029
	c-1.22-0.791-2.36-1.689-3.47-2.609c-0.05-0.551-0.13-1.641-0.17-2.19c-1.52-1.778-0.22-4.46-1.81-6.188
	c-0.01-2.291-0.47-4.711,0.54-6.852c0.27-0.488,0.81-1.46,1.09-1.939c0.41-1.619,1.12-3.409,2.89-3.92
	c2.88-1.039,4.75-3.569,6.81-5.689c3.55-0.02,7.1-0.05,10.64,0.18c1.4,0.19,2.62-0.22,3.65-1.23c1.66-0.23,2.77,0.86,3.77,2.02
	c-2.44,0.13-5.05-0.439-7.27,0.85c-3.13-1.24-6.52-0.76-9.79-0.82c-2.05,2.12-3.93,4.63-6.8,5.68c-1.72,0.59-2.97,2.01-2.86,3.9
	c-0.28,0.5-0.85,1.48-1.14,1.97c-0.78,1.5-0.58,3.2-0.58,4.83c1.53,1.7,0.63,4.2,1.61,6.14c0.24,2.291,1.93,3.91,3.91,4.871
	c1.72,0.521,3.43,1.08,5.04,1.899c1.56,1.021,3.47,0.64,5.22,0.771c1.38-2.59,0.38-6.979,4.2-7.42c0.25-2.301-1.05-5.871,1.96-6.75
	c4.53,1.51-0.19,7.819,3.46,10.069c1.16,0.25,2.21-0.01,3.15-0.79c0.46-0.09,1.39-0.27,1.86-0.359c1.19-0.801,2.65-0.801,4.01-1.051
	c2.46-1.63,5.65,0.101,8.12-1.51c1.33-0.25,2.71-0.359,3.95-0.93c1-0.29,1.99-0.58,2.98-0.891c1.84-1.141,3.35-2.711,4.84-4.261
	c1.97,0.11,3.49-1.069,4.59-2.608c0.19-2.4,0.07-4.812,0.08-7.222c-1.22-0.52-2.41-1.079-3.6-1.649
	c-0.95-0.379-1.91-0.729-2.89-1.029c-2.46-1.17-5.28-0.49-7.9-0.73c-3.59-2.24-8.22,0.09-12.11-1.44c-0.87-0.57-1.7-1.2-2.49-1.89
	c-0.74-3.56,3.73-4.87,6-6.55c4.8,0.28,9.97-0.93,14.55,0.7c1.3,0.25,2.63,0.4,3.89,0.86c0.5,0.26,1.5,0.78,2,1.04
	c2.46,1.3,4.22,3.52,6.06,5.54c1.15-0.12,2.19-0.51,3.12-1.18c1.58-0.01,3.49-0.35,4.31,1.42c0.69,1.6-1.48,2.24-2.49,2.94
	c-1.49,0.64-2.94,1.36-4.45,1.96c0,3.08,0,6.17,0,9.26c-1.47,1.381-2.91,2.801-4.32,4.25c-1.94-0.18-3.38,0.95-4.12,2.67
	c-0.14,0.391-0.43,1.17-0.58,1.562c1.98,3.22,4.27,6.358,7.52,8.409c0.41,0.119,1.23,0.359,1.65,0.471
	c2.04,0.83,3.35-3.682,5.15-1.262c2.02,1.75-0.13,4.121-1.74,5.222c-7.85,0.229-15.71,0.021-23.57,0.09l0.01,0.771
	c2.31,1.181,4.86,1.359,7.41,1.351c0.39,0.21,1.18,0.62,1.57,0.83c4.8,0.12,9.61,0.101,14.41-0.04c1.56-1.1,3.65-0.721,5.22-1.82
	c1.42-0.06,2.84-0.08,4.27-0.1c0.12-1.49,0.14-3.01,0.65-4.439c0.53-0.791,1.08-1.57,1.65-2.341c1.83-0.89,3.76-1.46,5.82-1.33
	l0.03-0.95c-1.99-0.039-4.05-0.08-5.71,1.181c-1.68-0.011-3.98,0-4.43-2.069c0.22-1.779,2.23-1.97,3.59-2.39
	c2.96-1.25,6.3-0.521,9.43-0.62c1.64-0.15,1.909,1.87,2.46,2.97c1.54,0,3.08,0,4.63,0c0-1.6,0-3.188,0-4.78
	c-2.37-1.229-4.989-1.26-7.58-1.34c-1.92-0.738-1.85-3.029,0-3.8c2.681-0.149,5.472-0.38,8.07,0.431
	c1.239,0.85,2.489,1.729,3.43,2.93c0.181,2.091,0.07,4.189,0.08,6.291c0.608,0.22,1.851,0.66,2.46,0.879
	c2.37,2.351,6.109,3.5,9.102,1.58c0.469-0.1,1.398-0.311,1.869-0.409c1.619-0.72,3.399-0.89,5.08-1.431
	c1.01-0.301,2-0.649,2.979-1.051c1.01-0.279,2.01-0.6,3-0.959c1.42-0.421,2.789-1.011,4.14-1.609c2.391-0.852,4.71-1.852,6.979-2.98
	c1.58-0.869,3.222-1.65,4.802-2.529c2.54-0.891,5.01-1.92,7.149-3.59c0.601-0.221,1.779-0.66,2.369-0.881
	c0.021-1.8-0.26-4.42,2.09-4.859c2.5,0.649,1.771,3.761,2.61,5.629c0.05,2.871,2.82,3.762,4.95,4.892
	c1.859,0.76,4.91,0.101,5.529,2.59c-0.789,3.011-4.311,1.79-6.561,1.97c-0.521-0.328-1.54-0.979-2.06-1.3
	c-0.552,1.32-1.171,2.601-1.78,3.9c-1.029,1.188-0.859,2.271,0.512,3.22c-0.552,1.311-1.672,2.102-2.99,2.551
	c-0.222,0.52-0.65,1.579-0.871,2.109c-4.719,6.92-8.93,14.391-15.319,19.96c1.71,2.608,2.26,5.779,4.36,8.16
	c0.32,0.97,0.608,1.96,0.879,2.948c0.271,0.66,0.82,1.98,1.091,2.642c1.351-0.521,2.69-1.101,4.11-1.44
	c-0.82,1.371-2.09,2.32-3.631,2.711c0.479,1.25,0.989,2.49,1.42,3.771c1.17-1.14,2.301-2.351,3.721-3.19
	c3.279-1.979,5.199-5.608,8.619-7.399c1.371-2.59,4.041-4.229,5.16-6.989c0.479-1.101,1.021-2.17,1.541-3.24
	c0.698-1.988,1.438-3.949,2.299-5.859c1.781-3.01,4.761-5,6.861-7.76c-1.682,0.41-3.281,1.069-4.962,1.471
	c1.222-2.32,3.98-2.45,6.12-3.4c1.932-1.01,3.91-2.23,4.66-4.41c0.932-2.289,2.771-3.979,4.229-5.93c0.621-2,0.07-4.35,1.41-6.1
	c0.01-2.301,0.471-4.75-0.56-6.91c-1.89-4.94-5.479-9.061-9.03-12.92c-1.27-1.93-3.699-2.5-5.83-2.86
	c-3.92-1.55-8.39-0.32-12.52-0.7l0.02-1c4.12,0,8.25,0,12.37,0c-3.69-3.8-7.34-7.67-11.26-11.22c-5.07-3.08-8.17-8.45-13.2-11.58
	c-4.59-3.19-8.97-7.04-14.311-8.88c-2.229-1.17-4.459-2.5-7.061-2.57c-1.229-0.68-2.64-0.76-3.988-0.99
	c-1.36-0.97-3.031-0.75-4.59-0.79C160.52,68.08,150.061,67.89,139.6,68.07 M8.05,80c-0.19,1.88,0.47,4.06-0.98,5.6
	c-0.08,1.95-0.09,3.9-0.06,5.85C10.74,88.9,8.35,83.78,9,80H8.05 M95.99,104l0.02,1c3,0,6,0,9,0l-0.01-1
	C101.99,104,98.99,104,95.99,104 M207.7,125.96c-2.66,1.63-5.49,2.96-8.29,4.31c-1.34,0.69-2.67,1.381-4.01,2.041
	c-0.5,0.229-1.5,0.689-2,0.92c-1.142,0.66-2.461,1.129-3.34,2.149c-0.392,2.96,0.76,6.31-1.23,8.88c2.029-0.14,3.85-1,5.609-1.96
	c0.49-0.25,1.461-0.76,1.951-1.01c1.35-0.66,2.698-1.32,4.039-2c0.489-0.26,1.461-0.771,1.949-1.03c1.11-0.5,2.21-1.029,3.33-1.51
	c0.63-1.41,1.311-2.8,2.03-4.16C209.05,130.6,209.88,127.71,207.7,125.96 M182.471,137.62c-1.021,0.36-2.031,0.75-3.021,1.17
	c-0.47,0.11-1.41,0.319-1.88,0.43c-1.641,0.79-3.551,0.73-5.16,1.61c-0.721,0.08-2.17,0.23-2.891,0.311
	c3.149,2.351,6.25,4.799,9.521,7.01c2.51-1.811,4.61-4.189,6.47-6.649c0.45-1.54,0.5-3.149,0.61-4.729
	C184.88,136.96,183.66,137.25,182.471,137.62 M195.609,146.68c-1.08,0.54-2.139,1.102-3.209,1.641
	c-0.59,0.25-1.78,0.729-2.371,0.979c-0.039,0.53-0.109,1.591-0.149,2.12c-1.649,1.811-1.521,7,1.66,6.48
	c4.39-4.08,7.28-9.471,10.8-14.271C199.939,144.33,198.1,146.18,195.609,146.68 M90.42,147.05c-2.19,1.33-1.87,4.7-0.54,6.54
	c0.04,0.59,0.13,1.78,0.17,2.37c1.12,0.04,2.24,0.09,3.36,0.14c0.69,0.33,2.07,1.01,2.76,1.34c-0.85-1.488-1.87-3.33-0.46-4.858
	c0.69-1.351,1.3-2.75,1.53-4.261C95.08,147.38,92.8,146.561,90.42,147.05 M80.6,150.33c0.65,2.07,2.68,2.87,4.4,3.859
	c0.02-1.771,0-3.529,0.05-5.299C83.72,149.8,82.17,150.1,80.6,150.33 M101.01,148.88c-0.05,1.56,0.13,3.21-0.64,4.64
	c-0.41,1.211-0.86,2.4-1.46,3.521c1.83-0.04,3.66-0.03,5.49,0.021c3.08,1.988,7.1,0.5,10.58,0.938c0.16-2.38-0.59-5.09,1.16-7.05
	c-2.51,0.06-5.03,0.08-7.54-0.021C106.45,149.01,103.11,151,101.01,148.88 M137.08,150.41c-0.2,2.52-0.06,5.06-0.08,7.59
	c3.81-0.311,7.87,0.74,11.51-0.67c1.641-0.52,3.25-1.13,4.881-1.68c-1.939-1.392-3.899-2.74-5.939-3.961
	c-1.36-0.659-2.7-1.34-4.02-2.049C141.48,148.75,138.34,148.189,137.08,150.41 M127.4,150.93c-2.45,0.09-4.9,0.08-7.34,0.07
	c-0.05,0.6-0.13,1.811-0.18,2.41c-1.15,1.27-0.81,3.029-0.99,4.59c4.7,0,9.41,0,14.11,0c0-2.68,0-5.37,0-8.05
	C131.12,150.141,128.93,149.48,127.4,150.93 M184.18,152.189C184.891,152.87,184.891,152.87,184.18,152.189 M66.08,157.439
	c-0.26,8.181,0.08,16.381-0.13,24.569c-0.2,0.392-0.6,1.181-0.79,1.57c-0.25,1.688,0.2,3.64-1.08,5.028
	c0.28,4.94-1.33,10.432,1.59,14.83c2.65,5.69,8.22,9.131,13.85,11.371c0.48,0.101,1.43,0.289,1.91,0.391
	c1.2,0.77,2.65,0.79,4.01,1.04c1.65,1.118,3.69,0.688,5.55,0.778c5.47-0.08,10.94,0.08,16.4-0.1c1.75-1.57,4.39-0.311,6.2-1.77
	c0.94-0.102,1.88-0.2,2.82-0.301c1.8-1.391,4.32-0.341,6.16-1.649c0.47-0.101,1.39-0.3,1.86-0.39c1.84-1.262,4.25-0.4,6.13-1.562
	c1.36-0.261,2.81-0.271,4.01-1.05c0.47-0.102,1.4-0.311,1.87-0.41c1-0.41,2.01-0.801,3.04-1.148c1.57-0.871,3.76-1.052,5.15,0.219
	c1.58-0.84,3.31-1.369,4.95-2.09c2.25-1.209,4.55-2.33,6.83-3.5c1.061-0.511,2.119-1.039,3.18-1.539c1.99-1.041,3.99-2.052,6.02-3
	c0.932-0.49,1.852-0.98,2.781-1.461c1.771-0.811,3.469-1.74,5.219-2.591c1.24-0.489,2.521-0.89,3.762-1.399
	c1.352-0.629,2.72-1.209,4.17-1.59c2.84-0.699,5.2-2.42,7.58-4.039c-1.229-1.211-2.67-3.791-4.58-2.01
	c-0.49,0.278-1.49,0.818-1.979,1.1c-1.5,0.188-2.84,0.859-4.16,1.539c-0.5,0.25-1.49,0.75-1.98,1c-0.5,0.261-1.5,0.791-2,1.051
	c-1.26,0.48-2.55,0.87-3.79,1.38c-1.351,0.63-2.71,1.21-4.14,1.62c-0.98,0.37-1.971,0.71-2.98,1.01
	c-1.529,0.77-3.27,0.641-4.92,0.85c-1.67,0.932-3.8,0.512-5.3,1.78c-1.229,0.03-2.46,0.07-3.69,0.12
	c-1.129,0.98-2.66,0.86-4.029,1.15c-1.799,1.13-3.969,0.67-5.969,0.869c-1.82,1.561-4.59,0.121-6.31,1.881
	c-2.02,0.09-4.39-0.59-6,1.01c-3.89,0.02-7.79-0.07-11.68,0.07c-0.41,0.22-1.24,0.66-1.65,0.88c-7.65,0.159-15.31-0.03-22.96,0.069
	c-1.83-0.039-3.74,0.189-5.45-0.609c-2.39-1.26-4.59-2.85-6.97-4.141c-1.91-1.109-3.83-2.24-5.53-3.649
	C72.91,192.41,73,190.2,73,188h0.98c0.02,1.87-0.06,3.75,0.08,5.62c1.95,1.6,4.14,2.899,6.36,4.1c1.43,0.78,2.73,1.78,4.14,2.61
	c1.44,0.6,2.78,1.73,4.42,1.66c8.14-0.01,16.28,0.09,24.41-0.061c3.89-2.061,8.72-0.431,12.98-0.91c1.78-1.239,3.93-1.101,6-1.029
	c1.54-0.92,3.31-1.08,5.06-1.19c2.13-1.59,5.08,0.021,7.16-1.659c0.939-0.101,1.881-0.189,2.82-0.281
	c1.39-1.229,3.279-0.77,4.96-0.898c1.3-0.62,2.7-0.99,4.11-1.311c1.93-0.931,4.25-0.291,6.09-1.449c0.479-0.102,1.43-0.301,1.9-0.4
	c1.278-0.56,2.618-0.988,3.908-1.529c1.62-0.771,3.33-1.33,5.012-1.939c1.358-0.689,2.719-1.37,4.06-2.09
	c1.39-0.49,2.75-1.051,4.18-1.46c1.261-0.72,2.511-1.48,3.72-2.29c-1.52-0.4-2.75-1.33-3.85-2.391c-1.33,0.791-2.7,1.51-4.061,2.229
	c-2.271,1.14-4.689,1.899-7.021,2.91c-1.562,0.858-3.181,1.67-4.92,2.1c-1,0.36-2.011,0.67-3.029,0.94
	c-1.711,0.64-3.431,1.21-5.069,2.02c-0.961,0.37-1.94,0.7-2.931,1c-1.329,0.521-2.69,0.94-4.011,1.49
	c-0.471,0.102-1.42,0.3-1.891,0.398c-2.109,1.65-5.159-0.1-7.169,1.74c-6.27,0.2-12.53-0.06-18.8,0.142
	c-0.41,0.22-1.24,0.659-1.66,0.88c-5.96,0.17-11.93-0.03-17.9,0.068c-1.87-0.1-3.93,0.36-5.6-0.77c-1.32-0.26-2.68-0.391-3.95-0.88
	c-1.39-0.479-2.76-1.011-4.13-1.54c-3.08-2.01-6.94-4.45-7.61-8.29c3.32,2.58,5.71,6.37,9.83,7.819c0.96,0.341,1.93,0.671,2.9,0.99
	c1.26,0.521,2.63,0.641,3.96,0.899c0.4,0.17,1.18,0.51,1.57,0.681c6.79,0.149,13.59,0.09,20.39,0c0.4-0.221,1.21-0.66,1.61-0.881
	c6.13-0.189,12.26,0.092,18.39-0.119c2.01-1.841,5.06-0.101,7.169-1.74c0.471-0.101,1.4-0.299,1.869-0.399
	c1-0.42,2.031-0.79,3.08-1.101c1.271-0.5,2.59-0.879,3.86-1.399c1.33-0.64,2.7-1.2,4.12-1.64c1-0.352,2-0.67,3.02-0.95
	c1.28-0.5,2.59-0.89,3.881-1.36c1.07-0.56,2.129-1.13,3.209-1.68c1.25-0.48,2.531-0.85,3.791-1.32
	c1.061-0.56,2.119-1.119,3.199-1.67c0.602-0.24,1.801-0.73,2.4-0.98c0-0.318,0-0.959,0-1.289c-2.051-0.51-3.17-2.489-4.93-3.439
	c-0.9,0.41-1.78,0.852-2.65,1.32c-1.58,0.828-3.189,1.64-4.949,2.029c-1.271,0.489-2.591,0.869-3.841,1.41
	c-1.92,1.129-4.181,1.219-6.2,2.061c-0.459,0.1-1.4,0.31-1.859,0.42c-2.729,1.979-6.551-0.46-9.17,1.729
	c-2.601,0.09-5.199,0.051-7.799,0.15c-0.4,0.21-1.22,0.65-1.63,0.87c-8.78,0.09-17.58,0.1-26.37-0.021
	c-3.25-2.449-7.94,0.579-11.2-1.841c-2.32-0.271-4.9,0.479-6.97-0.89c-0.47-0.102-1.4-0.311-1.86-0.42
	c-1.58-0.74-3.34-0.881-5-1.352c-3.68-2.06-7-4.67-8.35-8.83c-0.57-1.358-1.13-2.709-1.59-4.1c-0.57-1.689-0.57-3.561-1.54-5.109
	c-0.17-3.541-0.06-7.07-0.11-10.609C70.81,152.99,68.25,155.32,66.08,157.439 M61.18,160.189l0.01,0.641l0.63-0.02l-0.01-0.631
	L61.18,160.189 M156.529,162.71c-0.989,0.28-1.959,0.601-2.92,0.97c-1.539,0.94-3.26,1.42-5.049,1.59
	c-1.67,0.69-3.562,0.7-5.15,1.59c-0.6,0.052-1.81,0.15-2.41,0.211c0.01,3.439-0.04,6.891,0.06,10.341
	c1.71,1.18,0.58,2.46-0.22,3.688c1.92-0.25,4.17,0.41,5.77-1.02c2.312-0.26,4.892,0.48,6.972-0.88c0.46-0.11,1.38-0.32,1.851-0.421
	c1.641-0.76,3.5-0.799,5.141-1.569c0.47-0.09,1.42-0.29,1.9-0.38c0.698-0.32,2.1-0.96,2.799-1.28c-0.26-0.5-0.771-1.5-1.029-2
	c-0.24-1.01-0.51-2.01-0.811-3c-2.859-2.51-2.66-6.149-2.381-9.63C159.6,161.65,158.05,162.141,156.529,162.71 M79.42,164.82
	l-0.81,1.07l1.16,0.148c0.22,1.141,0.49,2.271,0.83,3.38c0.59,1.05,1.17,2.101,1.74,3.17c0.24,0.601,0.72,1.812,0.96,2.41h0.91
	c-0.1-1.979-0.99-3.729-1.92-5.431C81.49,167.9,80.8,166.12,79.42,164.82 M86.59,167.8c0.31,0.69,0.93,2.06,1.24,2.75
	c0.08,0.47,0.25,1.42,0.33,1.89c1.4,1.142,0.6,2.36-0.16,3.521c-1.1-0.41-2.22-0.74-3.35-0.99c0.75,1.021,1.67,1.922,2.79,2.53
	c1.33,0.33,2.68,0.5,4.03,0.729c0.71,0.271,2.13,0.819,2.84,1.101c-0.24-0.681-0.72-2.05-0.96-2.729
	c-0.89-1.74-1.81-3.449-2.66-5.199c-0.24-0.53-0.71-1.602-0.94-2.131C88.69,168.78,87.64,168.29,86.59,167.8 M134.49,168.79
	c-1.4,0.25-2.96,0.101-4.09,1.13c-3.21,0.13-6.41,0.061-9.62,0.1c0.09,1.291,0.45,2.48,1.1,3.58c0.27,2-0.39,4.291,1,5.99
	c0.05,0.6,0.13,1.811,0.18,2.41c5.01-0.29,10.26,0.859,15.04-1.109c-2.4-3.871-0.48-8.91-1.14-13.24
	C136.34,167.939,135.1,168.51,134.49,168.79 M166.939,167.93c0.641,1.12,1.109,2.33,1.451,3.59c0.18,0.621,0.549,1.871,0.729,2.49
	c1.021-0.5,2.061-0.96,3.119-1.38c-1.159-1.06-2.301-2.14-3.449-3.21l0.811-0.75C168.939,168.48,167.6,168.109,166.939,167.93
	 M94.78,169.76c1.02,1.87,1.98,3.76,2.98,5.641c0.98,1.551,1.81,3.189,0.09,4.631c1.18,0,2.36,0.01,3.54,0.039
	c1.19,0.789,2.51,1.149,3.98,1.101c-0.51-1.278-1.08-2.528-1.66-3.771c-0.4-0.949-0.75-1.92-1.06-2.891
	c-0.39-1.14-0.68-2.31-0.88-3.5c-1.06-0.029-2.11-0.06-3.17-0.1C97.44,170.189,96.17,169.811,94.78,169.76 M105.91,170.95
	c1.14,2.55,2.03,5.21,3.39,7.659c0.24,0.561,0.72,1.66,0.96,2.221c2.72,1.57,5.87,1.15,8.87,1.23c-1.92-2.142-0.51-5.19-1.78-7.58
	c-0.45-1.17-0.43-2.82-1.77-3.392C112.36,170.859,109.13,171.061,105.91,170.95z"/>
<path fill="#FFFFFF" d="M221.15,0H288v120.8c-0.48-1.08-0.92-2.18-1.34-3.28c-1.141-1.608-2.1-3.34-2.91-5.14
	c-0.939-1.72-2.109-3.28-3.32-4.81c-0.93-1.38-1.99-2.66-3.16-3.84c-12.43-12.33-24.75-24.77-37.17-37.1
	c-0.1-0.49-0.31-1.48-0.41-1.97c-0.67-2.44-0.648-5.03-1.52-7.41c-0.49-12.17,0.141-24.35-0.33-36.52
	c-0.699-2.06-0.97-4.23-1.561-6.33c-0.1-0.48-0.299-1.44-0.399-1.92c-1.08-1.76-2.229-3.48-3.21-5.3c-1.46-1.56-3.1-2.95-4.98-3.98
	c-1.1-0.47-2.188-0.96-3.278-1.44C223.33,1.15,222.24,0.57,221.15,0z"/>
<path fill="#FFFFFF" d="M216.49,4.66c1.539-0.91,3.51-0.98,5.02,0.04c0.99,0.28,1.98,0.57,2.98,0.86c2.35,1.54,4.5,3.51,5.869,5.99
	c0.25,0.51,0.729,1.52,0.979,2.02c0.351,0.97,0.688,1.94,1.011,2.92c0.521,1.26,0.649,2.62,0.899,3.95
	c0.92,1.35,0.76,2.99,0.778,4.54c-0.049,7.01-0.02,14.03-0.028,21.05l-0.601-0.05c-1.25-3.55-5.109-5.23-6.791-8.53
	c-0.83-1.84-3-2.28-4.278-3.7c-1.54-1.6-3.312-2.94-5.38-3.78c-4.11-2.57-7.91-5.72-12.37-7.7c-1.521-0.2-2.88-0.89-4.222-1.56
	c-1.25-1.41-3.028-1.85-4.778-2.31c-1.761-1.13-3.24-3-5.58-2.51v-0.7c1.51-0.5,3-1.05,4.54-1.47c2.238-0.58,4.181-1.75,6.021-3.12
	c0.979-0.32,1.969-0.61,2.969-0.88c1.261-0.52,2.58-0.91,3.841-1.43c2.05-0.94,4.19-1.64,6.239-2.58
	C214.55,5.32,215.51,4.97,216.49,4.66z"/>
<path fill="#FFFFFF" d="M102.6,10.08c2.91-0.1,5.81-0.02,8.71-0.26c-0.83,1.26-1.53,2.61-2.3,3.9c0.23,1.43-0.03,2.91-1.01,3.99
	c-0.03,2.28,0.12,4.57-0.1,6.84c-0.87,1.01-1.86,1.91-2.8,2.85c0.88,1.44,0.82,3.54,2.32,4.53c1.38,0.17,2.78,0.16,4.16,0.01
	c2.4-1.38,1.11-4.44,1.44-6.67c-1.36-0.49-2.69-1.05-4.04-1.54c-0.31-4.77,0.84-9.55,3.25-13.68c5.72-0.07,11.45-0.11,17.17,0.02
	c2.27,1.76,5.35,0.61,7.99,1c1.37,1.29,3.34,0.83,5.03,1.09c1.81,1.34,4.28,0.37,6.141,1.62c2.26-0.15,5.101,0.78,4.439,3.6
	c-1.35,1.49-0.66,3.74-1.87,5.32c-0.11,1.27-0.319,2.53-0.649,3.76c-0.66,0.96-1.34,1.9-2.021,2.83c-0.399-3.09-1.95-0.04-2.83,0.57
	c-0.5,0.8-0.819,1.67-0.95,2.63c-1.17,1.19-0.66,2.729,0.74,3.43c2.04,0.18,4.109,0.18,6.16,0c1.939-0.91,1.449-3.14,1.42-4.86
	c-0.45-1.64-3.34-2.9-1.189-4.59c0.189-2.7,1.039-5.28,1.449-7.95c0.551-1.14,0.881-2.35,0.961-3.64
	c1.479,0.15,3.079-0.03,4.35,0.93c0.471,0.1,1.4,0.29,1.859,0.38c1.83,1.2,4.16,0.52,6.09,1.46c0.961,0.31,1.92,0.65,2.871,1.02
	c2.25,1.24,4.609,2.28,7.08,3.01c1.439,0.38,2.81,0.98,4.159,1.61c1.229,0.51,2.511,0.9,3.771,1.38c1.07,0.55,2.129,1.12,3.209,1.67
	c1.262,0.47,2.552,0.85,3.82,1.32c0.49,0.27,1.48,0.81,1.98,1.08c0.51,0.229,1.529,0.68,2.029,0.91
	C202,34.08,208.561,38.64,214,44.42c0,6.06,0,12.13,0,18.19c-1.37,1.27-2.71,2.57-4.08,3.83c-0.641,2.99,1.82,6.42,5.07,5.57
	c3.89-0.9,4.59-7.9,0.01-8.38c0-5.67-0.01-11.34,0-17.01c3.46,3.36,7,6.67,10.221,10.26c1.521,2.51,3.59,4.6,5.779,6.52
	c-0.01,3.68,0.05,7.36-0.07,11.03c-1.27,1.16-0.83,2.92-0.99,4.41c-2.6-0.37-4.229,1.68-5.41,3.67c-2.049,2.99,1.972,7,4.962,4.96
	c1.239-0.83,2.5-1.7,3.42-2.9c0.149-1.52,0.1-3.04,0.14-4.56c-0.529-0.01-1.578-0.01-2.1-0.02c0.25-1.85-0.57-4.1,0.979-5.56
	c0.11-3.27,0.062-6.54,0.07-9.82c11.13,10.81,21.91,21.96,33,32.8c0,3.73,0,7.46,0,11.18c-1.32,1.79-5.21,3.24-3.46,5.9
	c1.17,4.42,7.83,2.63,7.51-1.49c0.521-2.01-1.51-2.89-3.05-3.37c0-3.68-0.01-7.35,0-11.02c3.45,3.6,7.59,6.71,10.33,10.89
	c1.859,2.1-0.689,4.21-0.57,6.48L275,116.05c0,1.521,0,3.04,0,4.56c-1.37,1.271-2.71,2.57-4.08,3.83
	c-0.26,2.03,0.29,5.121,3.03,4.602c3.29,0.79,5.8-2.59,5.13-5.648c-4.051-0.44-3.51-5.08-2.53-7.932
	c0.421-1.41,1.421-2.84,3.101-2.75c0.24,0.689,0.721,2.061,0.959,2.75c1.762,1.979,2.852,4.24,2.552,6.96
	c1.72,2.99,0.54,6.688,0.76,9.979c-1.38,1.721-0.63,4.101-1.521,6.021c-0.601,1.05-1.18,2.11-1.75,3.181
	c-0.471,1.26-0.851,2.561-1.329,3.819c-0.24,0.511-0.722,1.53-0.95,2.04c-4.45,6.87-11.79,10.79-17.87,15.95
	c-1.3,0.409-2.608,0.771-3.892,1.229c-1.079,0.561-2.139,1.141-3.198,1.719c-0.972,0.342-1.938,0.66-2.92,0.951
	c-0.99,0.379-1.99,0.709-3,1.01c-0.979,0.369-1.979,0.699-2.99,0.979c-0.989,0.39-1.979,0.729-2.979,1.05
	c-1.939,1-4.379,0.142-6.119,1.57c-4.93,0.21-9.871-0.061-14.791,0.17c-0.739,0.32-2.209,0.96-2.939,1.28
	c0.45-3.28,4.07-4.681,5.109-7.74c1.311-2.69,2.41-5.46,3.391-8.271c3.34-6.199,10.42-9.479,13.52-15.789
	c1-1.881,2.562-3.37,3.812-5.08c1.07-6.051,0.312-12.311,0.438-18.44c-4.118-7.489-10.368-13.7-17.188-18.8
	c-4.85-4.51-8.989-9.85-14.521-13.56c-3.01-3.41-6.971-5.66-10.101-8.92c-3.53-2.43-7.14-4.74-10.68-7.15
	c-1.28-0.44-2.58-0.81-3.851-1.26c-1.07-0.58-2.129-1.17-3.189-1.75c-1.65-0.5-3.391-0.68-4.98-1.39
	c-0.459-0.1-1.399-0.31-1.858-0.42c-1.32-1.03-3-0.79-4.552-0.82c-11.81,0.1-23.618-0.09-35.418,0.09c-2.91,1.95-6.71,0.47-9.99,1
	c-4.23,2.62-9.98-0.75-14.22,1.85c-2.26,0.08-4.52,0.07-6.78,0.16c-1.13,1-2.68,0.87-4.05,1.16c-1.87,1.229-4.37,0.22-6.16,1.64
	c-1.27,0.09-2.54,0.16-3.8,0.26c-1.55,0.86-3.35,0.94-5,1.48c-1.34,0.71-2.68,1.4-4.03,2.08c-1.42,0.81-2.72,1.78-4.14,2.58
	c-4.77,2.34-8.8,5.96-11.94,10.22c-1.1,2.91,0.26,6.21-1.18,9.01c-0.29,0.99-0.59,1.98-0.88,2.98c-1.53,3.15-5.05,4.26-7.63,6.32
	c-1.13,1.52-2.14,3.13-3.12,4.76c-0.26,0.49-0.79,1.48-1.06,1.98c-1.28,3.3-0.36,6.97-0.62,10.431c0.24,3.119-0.65,6.479,0.65,9.431
	c1.94,4.06,3.8,8.108,6.12,11.979c0.44,1.159,1.37,2.219,1.26,3.529c0.12,1.439-1.71,1.77-2.65,2.42c-1.63,2.78-4.19,4.87-5.77,7.69
	c-1.18-0.07-2.17-0.82-3.24-1.22c-5.7-3.102-8.92-9.262-14.48-12.58c-6.01-5.65-11.73-11.621-17.57-17.45
	c-2.24-3.4-5.56-6.28-6.65-10.29c-0.37-0.98-0.71-1.971-1-2.98c-0.79-1.52-0.65-3.27-0.83-4.93c-1.31-1.74-0.71-3.98-0.96-5.98
	c-0.64-1.1-1.01-2.29-1.1-3.58C8.77,97.99,10.76,98,12.75,98c0.68-1.78,1.71-3.59,1.19-5.56c-0.98-1.35-2.37-2.32-3.94-2.84
	c-0.55-3.69,1.24-8.06-1-11.3c0-0.82,0-2.48,0-3.3h1.05c-0.04,0.81-0.14,2.41-0.19,3.22c0.33,0.05,0.99,0.16,1.31,0.22
	c0.06-2.3-0.39-4.49-1.21-6.62c0.75,0.5,1.49,1.02,2.21,1.56c-0.1-1.58-0.14-3.17-0.13-4.76c0.99-3.24,3.29-5.73,5.27-8.38
	c6.2-6.43,12.66-12.6,18.91-18.99c1.38-1.51,3.14-2.56,4.92-3.52c-0.65,3.05-1.88,5.95-3.01,8.85c-0.06,1.01-0.12,2.02-0.17,3.04
	c-1.31,1.78-5.17,3.23-3.42,5.88c1.08,3.4,6.07,3.54,7.84,0.68c1.21-1.27,0.38-3.32,0.67-4.91c-1.44-0.51-2.85-1.1-4.28-1.61
	c0.25-1.07,0.55-2.12,0.91-3.16c0.89-3.36,2.36-6.59,2.52-10.11c2.53-2.19,5.56-3.84,8.37-5.66c2.61-1.37,4.88-3.31,7.72-4.24
	c-2.38,4.41-2.75,10-7.29,12.93c0,1.89,0,3.78,0,5.67c1.67-0.19,3.73,0.39,4.8-1.3c1.96-1.31,0.97-3.85,1.25-5.81
	c-0.52,0.01-1.55,0.04-2.06,0.06c0.88-2.52,1.64-5.09,2.76-7.52c0.65-1.71,1.2-3.46,1.45-5.27c0.55-0.23,1.65-0.7,2.2-0.94
	c2.01-1,4.01-2.02,6.02-3.01c3.15-1.33,5.66-3.81,8.96-4.84c-0.78,1.43-1.53,2.87-2.36,4.27c0.21,1.42-0.04,2.9-1.02,3.98
	c0,1.96,0,3.93,0,5.89c-2.11,0.98-6.13,3.11-4.45,5.9c1.12,3.57,4.9,2.67,7.45,1.25c0-1.91,0-3.83,0-5.74
	C75.5,32,74.49,32,73.99,31.99c-0.69-5.62,1.24-10.9,3.34-15.97c0.52-0.03,1.56-0.11,2.07-0.14c1.75-1.33,4.13-0.53,6.01-1.54
	c2.27-1.89,5.45-0.75,7.77-2.47c-0.09,0.4-0.27,1.2-0.36,1.6c-0.96,1.62-0.59,3.67-1.69,5.24c0.15,1.81-0.63,3.41-1.35,4.99
	c-1.31,1.41-2.94,2.6-3.92,4.27c0.83,1.6,2.38,2.67,3.53,4.03c1.46,0,2.92,0,4.39,0c0.75-1.82,1.36-3.7,1.35-5.7
	c-1.46-0.52-2.9-1.12-4.36-1.64c1.18-3.28,2.15-6.66,2.42-10.15c0.29-0.62,0.86-1.86,1.15-2.479c0.52-0.04,1.56-0.12,2.07-0.16
	C98.2,10.36,100.86,11.67,102.6,10.08 M130.4,12.03c-0.31,0.58-0.93,1.75-1.23,2.33c1.72,3.07,0.47,6.83,0.81,10.19
	c-1.28,1.2-2.49,2.49-3.47,3.95c-2.71,4.17,4.05,6.34,6.28,3.29c1.88-1.2,1.03-3.56,1.24-5.41c-1.07-0.55-3.09-0.78-3-2.39
	c-0.1-4,0.01-8.01-0.03-12.01L130.4,12.03 M171.83,23c0.029,1.63,0.34,3.24,1.21,4.64c-0.13,2.03,0.45,4.34-0.931,6.06
	c0.181,1.81-0.609,3.39-1.299,4.98c-0.91,0.9-1.82,1.8-2.722,2.71c0.688,2.48,1.892,4.64,4.41,5.63c1.16-1.15,2.3-2.32,3.5-3.43
	c0-1.42,0-2.85,0-4.27c-1.21-0.48-3.181-0.54-2.99-2.36c0.011-3.44,1.601-6.71,1-10.24c-0.92-1.02-1.149-2.39-1.239-3.72H171.83
	 M191,30c-0.05,5.21,0.1,10.42-0.061,15.63c-2.061,1.76-5.91,2.87-4.979,6.34c-0.64,3.41,4.271,3.93,6.229,2.41
	c2.819-1.75,2.391-5.98,0-7.93C191.73,41.01,192.141,35.48,192,30H191 M24.1,54.03c0.07,1.61,0.07,3.43-1.1,4.688
	c0,2.97,0,5.95,0,8.93c-1.07,0.95-2.13,1.91-3.21,2.84c0.17,1.1,0.53,2.14,1.08,3.1c0.05,0.61,0.14,1.82,0.19,2.43
	c2.23-0.34,5.17,0.92,6.73-1.22c2.1-1.47,0.92-4.29,1.22-6.44c-0.64-0.31-1.92-0.94-2.56-1.25c-0.61-0.04-1.84-0.12-2.45-0.16
	c-0.42-4.41,0.51-8.66,1.16-12.97L24.1,54.03 M249,83.01c-0.01,1.98,0,3.97,0,5.95l-0.95,0.06c-0.1,1.84,0.21,3.81-0.71,5.5
	c-0.16,2.16-1.92,3.46-3.22,4.97c-0.29,1.34-0.19,2.74-0.06,4.1c1.1,2.03,4.469,2.07,5.738,0.2c2.092-1.46,0.91-4.25,1.2-6.38
	c-1.08-0.5-2.108-1.08-3.12-1.7c1.88-1.5,0.852-4.1,1.21-6.13c1.67-1.78,0.601-4.42,0.91-6.58L249,83.01z"/>
<path d="M130.4,12.03l0.6-0.05c0.04,4-0.07,8.01,0.03,12.01c-0.09,1.61,1.93,1.84,3,2.39c-0.21,1.85,0.64,4.21-1.24,5.41
	c-2.23,3.05-8.99,0.88-6.28-3.29c0.98-1.46,2.19-2.75,3.47-3.95c-0.34-3.36,0.91-7.12-0.81-10.19
	C129.47,13.78,130.09,12.61,130.4,12.03z"/>
<path fill="#FFFFFF" d="M181.99,18.19c2.39-0.95,5.01-1.15,7.32-2.32c-0.271,2.14-1.371,4.06-1.41,6.23
	c-1.812-1.13-3.7-2.25-5.9-2.31C182,19.39,182,18.59,181.99,18.19z"/>
<path fill="#FFFFFF" d="M190.37,16.72c1.88,0.22,2.96,1.95,4.58,2.74l0.079,0.54c-0.629,0-1.899,0-2.539,0
	c-0.99,0.95-1.98,1.89-3.17,2.58C188.5,20.51,190.08,18.69,190.37,16.72z"/>
<path fill="#FFFFFF" d="M196.029,19.71c0.601,0.23,1.801,0.7,2.4,0.94c1.641,1.02,3.25,2.16,5.159,2.67
	c0.95,0.45,1.899,0.9,2.86,1.35c1.988,1.24,3.93,2.57,5.88,3.87c-2.472,0.36-3.58,2.91-5.79,3.69c-2.55-0.15-2.45-3.15-3.432-4.83
	c-0.06-1.18-0.1-2.36-0.129-3.54c-2.109,1.35-4.359,2.63-6.979,2.25C196,23.98,196,21.84,196.029,19.71z"/>
<path fill="#FFFFFF" d="M191,22.28c1.32-0.49,2.63-1.05,3.95-1.54c0.04,1.46,0.079,2.91,0.12,4.37c-1.221-0.83-2.62-1.18-4.07-1.33
	C191,23.41,191,22.65,191,22.28z"/>
<path d="M171.83,23h0.939c0.09,1.33,0.319,2.7,1.239,3.72c0.601,3.53-0.989,6.8-1,10.24c-0.188,1.82,1.78,1.88,2.99,2.36
	c0,1.42,0,2.85,0,4.27c-1.2,1.11-2.34,2.28-3.5,3.43c-2.521-0.99-3.722-3.15-4.41-5.63c0.899-0.91,1.812-1.81,2.722-2.71
	c0.688-1.59,1.479-3.17,1.299-4.98c1.381-1.72,0.801-4.03,0.931-6.06C172.17,26.24,171.859,24.63,171.83,23z"/>
<path fill="#FFFFFF" d="M199.99,27.45c0.15-0.84,0.64-1.32,1.47-1.46c0.81,1.1,1.08,2.64,1.351,3.95
	C201.57,29.91,200.7,28.36,199.99,27.45z"/>
<path d="M191,30h1c0.141,5.48-0.27,11.01,0.189,16.45c2.391,1.95,2.819,6.18,0,7.93c-1.959,1.52-6.869,1-6.229-2.41
	c-0.931-3.47,2.92-4.58,4.979-6.34C191.1,40.42,190.95,35.21,191,30z"/>
<path fill="#FFFFFF" d="M207.68,32.58c1.83-0.85,3.461-2.05,5.24-3.01c0.09,2.54,0.08,5.08,0.09,7.63
	C210.91,36.07,208.689,34.88,207.68,32.58z"/>
<path fill="#FFFFFF" d="M214.08,29.57c4.72,2.69,9.109,6.02,12.96,9.86c-0.05,0.49-0.149,1.48-0.19,1.97
	c-0.959,2.11-1.209,4.44-1.99,6.62L224.25,48c-1.63-4.34-2.09-8.93-3.55-13.28c-2.681,0.68-3.11,3.98-5.31,5.43
	C212.66,37.41,214.49,33.03,214.08,29.57z"/>
<path fill="#FFFFFF" d="M216.9,41.01c0.869-1.52,1.91-2.94,2.84-4.42c1.529,2.65,1.689,5.79,2.369,8.72
	c0.611,0.92,1.149,1.98,0.871,3.13C220.49,46.37,218.66,43.7,216.9,41.01z"/>
<path fill="#FFFFFF" d="M227.01,43l0.801-0.02c0.199,2.59,1.141,5.03,1.859,7.51c0.301,0.97,0.62,1.94,0.96,2.9
	c1.39,2.11,2.36,4.43,3.46,6.7c-0.67-0.2-2.02-0.58-2.699-0.77l0.709-0.67c-1.729-3.18-4.49-5.56-7.05-8.05
	c0.761-1.33,1.13-2.83,1.86-4.17C226.95,45.29,226.99,44.14,227.01,43z"/>
<path fill="#FFFFFF" d="M228.859,42.56c2.649,1.51,3.351,4.41,4.431,7.02c1.31,2.14,0.45,4.78,0.739,7.13
	c-0.949-1.34-1.629-2.84-2.379-4.3c-0.471-1.28-0.852-2.59-1.33-3.86C229.76,46.56,228.73,44.69,228.859,42.56z"/>
<path d="M24.1,54.03l1.06-0.05c-0.65,4.31-1.58,8.56-1.16,12.97c0.61,0.04,1.84,0.12,2.45,0.16c0.64,0.31,1.92,0.94,2.56,1.25
	c-0.3,2.15,0.88,4.97-1.22,6.44c-1.56,2.14-4.5,0.88-6.73,1.22c-0.05-0.61-0.14-1.82-0.19-2.43c-0.55-0.96-0.91-2-1.08-3.1
	c1.08-0.93,2.14-1.89,3.21-2.84c0-2.98,0-5.96,0-8.93C24.17,57.46,24.17,55.64,24.1,54.03z"/>
<path fill="#FEFFFE" d="M139.6,68.07c10.46-0.18,20.919,0.01,31.371-0.1c1.559,0.04,3.229-0.18,4.59,0.79
	c1.351,0.23,2.76,0.31,3.989,0.99c2.601,0.07,4.83,1.4,7.06,2.57c5.342,1.84,9.722,5.69,14.312,8.88c5.03,3.13,8.13,8.5,13.2,11.58
	c3.92,3.55,7.568,7.42,11.26,11.22c-4.119,0-8.25,0-12.369,0l-0.021,1c4.13,0.38,8.6-0.85,12.521,0.7
	c2.131,0.36,4.561,0.93,5.829,2.86c3.552,3.86,7.142,7.98,9.03,12.92c1.029,2.16,0.568,4.608,0.561,6.91
	c-1.341,1.75-0.789,4.1-1.41,6.1c-1.459,1.949-3.299,3.64-4.229,5.93c-0.75,2.18-2.729,3.4-4.66,4.41
	c-2.14,0.95-4.899,1.08-6.12,3.4c1.68-0.4,3.28-1.062,4.961-1.472c-2.101,2.761-5.08,4.75-6.861,7.761
	c-0.858,1.91-1.6,3.871-2.299,5.859c-0.521,1.07-1.061,2.141-1.541,3.24c-1.119,2.76-3.789,4.398-5.16,6.988
	c-3.42,1.791-5.34,5.422-8.618,7.4c-1.42,0.84-2.552,2.051-3.722,3.19c-0.43-1.28-0.938-2.521-1.42-3.771
	c1.541-0.39,2.812-1.34,3.631-2.71c-1.42,0.342-2.76,0.922-4.109,1.44c-0.271-0.66-0.82-1.98-1.091-2.642
	c-0.271-0.988-0.56-1.979-0.88-2.949c-2.101-2.381-2.649-5.551-4.359-8.159c6.391-5.57,10.602-13.04,15.318-19.96
	c0.222-0.53,0.65-1.592,0.871-2.11c1.319-0.448,2.439-1.239,2.99-2.55c-1.371-0.95-1.541-2.03-0.511-3.221
	c0.61-1.301,1.229-2.58,1.78-3.899c0.52,0.319,1.539,0.972,2.06,1.3c2.25-0.18,5.771,1.04,6.56-1.97
	c-0.618-2.49-3.67-1.83-5.528-2.59c-2.13-1.13-4.899-2.021-4.95-4.892c-0.84-1.869-0.109-4.979-2.609-5.629
	c-2.351,0.439-2.069,3.061-2.09,4.859c-0.591,0.22-1.771,0.66-2.369,0.88c-2.142,1.67-4.61,2.7-7.15,3.59
	c-1.58,0.88-3.221,1.66-4.801,2.53c-2.271,1.13-4.59,2.13-6.979,2.98c-1.351,0.6-2.72,1.188-4.14,1.608
	c-0.99,0.36-1.99,0.681-3,0.96c-0.98,0.4-1.971,0.75-2.98,1.05c-1.68,0.541-3.459,0.712-5.08,1.431
	c-0.47,0.101-1.399,0.311-1.869,0.41c-2.989,1.92-6.729,0.771-9.101-1.58c-0.61-0.22-1.851-0.66-2.46-0.879
	c-0.01-2.102,0.1-4.201-0.08-6.291c-0.939-1.199-2.189-2.08-3.43-2.931c-2.6-0.81-5.391-0.58-8.07-0.43c-1.85,0.77-1.92,3.061,0,3.8
	c2.59,0.08,5.21,0.109,7.58,1.34c0,1.592,0,3.182,0,4.78c-1.55,0-3.09,0-4.63,0c-0.55-1.101-0.819-3.12-2.46-2.97
	c-3.13,0.1-6.47-0.631-9.43,0.619c-1.36,0.42-3.37,0.609-3.59,2.391c0.45,2.068,2.75,2.06,4.43,2.068
	c1.66-1.26,3.72-1.219,5.71-1.18l-0.03,0.95c-2.06-0.13-3.99,0.44-5.82,1.33c-0.57,0.771-1.12,1.55-1.65,2.34
	c-0.51,1.431-0.53,2.95-0.65,4.44c-1.43,0.02-2.85,0.039-4.27,0.1c-1.57,1.1-3.66,0.721-5.22,1.82c-4.8,0.14-9.61,0.16-14.41,0.039
	c-0.39-0.209-1.18-0.619-1.57-0.829c-2.55,0.01-5.1-0.171-7.41-1.351l-0.01-0.771c7.86-0.07,15.72,0.141,23.57-0.091
	c1.61-1.1,3.76-3.471,1.74-5.221c-1.8-2.42-3.11,2.092-5.15,1.262c-0.42-0.11-1.24-0.352-1.65-0.471
	c-3.25-2.051-5.54-5.189-7.52-8.41c0.15-0.391,0.44-1.17,0.58-1.561c0.74-1.72,2.18-2.85,4.12-2.67c1.41-1.449,2.85-2.87,4.32-4.25
	c0-3.09,0-6.18,0-9.26c1.51-0.6,2.96-1.32,4.45-1.961c1.01-0.699,3.18-1.339,2.49-2.939c-0.82-1.77-2.73-1.43-4.31-1.42
	c-0.93,0.67-1.97,1.06-3.12,1.18c-1.84-2.02-3.6-4.24-6.06-5.54c-0.5-0.26-1.5-0.78-2-1.04c-1.26-0.46-2.59-0.61-3.89-0.86
	c-4.58-1.63-9.75-0.42-14.55-0.7c-2.27,1.68-6.74,2.99-6,6.55c0.79,0.69,1.62,1.32,2.49,1.89c3.89,1.53,8.52-0.8,12.11,1.44
	c2.62,0.24,5.44-0.44,7.9,0.73c0.98,0.3,1.94,0.649,2.89,1.029c1.19,0.569,2.38,1.131,3.6,1.649c-0.01,2.41,0.11,4.819-0.08,7.221
	c-1.1,1.539-2.62,2.72-4.59,2.609c-1.49,1.55-3,3.12-4.84,4.26c-0.99,0.312-1.98,0.601-2.98,0.892c-1.24,0.569-2.62,0.68-3.95,0.93
	c-2.47,1.609-5.66-0.12-8.12,1.51c-1.36,0.25-2.82,0.25-4.01,1.051c-0.47,0.09-1.4,0.271-1.86,0.359
	c-0.94,0.779-1.99,1.04-3.15,0.79c-3.65-2.25,1.07-8.56-3.46-10.069c-3.01,0.879-1.71,4.449-1.96,6.75
	c-3.82,0.439-2.82,4.829-4.2,7.42c-1.75-0.131-3.66,0.25-5.22-0.771c-1.61-0.82-3.32-1.38-5.04-1.899
	c-1.98-0.961-3.67-2.58-3.91-4.871c-0.98-1.938-0.08-4.438-1.61-6.14c0-1.63-0.2-3.33,0.58-4.83c0.29-0.489,0.86-1.47,1.14-1.97
	c-0.11-1.891,1.14-3.312,2.86-3.9c2.87-1.05,4.75-3.56,6.8-5.68c3.27,0.06,6.66-0.42,9.79,0.82c2.22-1.29,4.83-0.72,7.27-0.85
	c-1-1.16-2.11-2.25-3.77-2.02c-1.03,1.01-2.25,1.42-3.65,1.23c-3.54-0.23-7.09-0.2-10.64-0.18c-2.06,2.12-3.93,4.65-6.81,5.689
	c-1.77,0.51-2.48,2.301-2.89,3.92c-0.28,0.479-0.82,1.45-1.09,1.939c-1.01,2.141-0.55,4.561-0.54,6.852
	c1.59,1.729,0.29,4.409,1.81,6.188c0.04,0.551,0.12,1.642,0.17,2.19c1.11,0.92,2.25,1.818,3.47,2.609
	c2.71,0.729,5.23,1.959,7.81,3.029c-2.39,1.51-4.56,3.33-6.85,4.99c-0.28-0.711-0.85-2.12-1.13-2.83c-1-2.51-3.21-4.42-3.61-7.16
	c-0.69-1.34-1.4-2.67-2.12-3.99c-1.15-2.648-0.44-5.63-0.63-8.43c0.14-2.48-0.44-5.109,0.62-7.439
	c1.93-6.101,8.82-7.811,11.83-13.081c0.29-0.99,0.58-1.979,0.87-2.97c1.45-2.79,0.07-6.1,1.19-9c2.19-3.44,5.55-5.86,9.08-7.78
	c2.38-1.28,4.54-2.92,6.99-4.06c2.15-1.39,4.71-1.55,7.02-2.49c1.68-0.28,3.64,0.17,5.01-1.11c2.33,0.14,5.04-0.82,7.01,0.86
	c6.79,0.11,13.59,0.12,20.39,0.02c0.4-0.22,1.2-0.66,1.6-0.88c2.56-0.1,5.13-0.07,7.69-0.07c2.59-2.45,6.66,0.38,9.31-1.92
	c5.931-0.12,11.871-0.15,17.791,0.01c1.561,1.03,3.529,0.85,5.181,1.69c0.459,0.11,1.399,0.33,1.858,0.45
	c1.601,0.67,3.34,0.88,4.98,1.45c1.59,0.83,3.3,1.39,5,1.98c2.16,1,4.13,2.36,6.13,3.66c0.96,0.45,1.91,0.91,2.87,1.38
	c5.08,2.51,9.72,5.87,13.84,9.76c0.07-2.64-2.359-4.12-4.35-5.29c-2.93-1.67-5.49-3.91-8.461-5.51c-0.969-0.44-1.93-0.89-2.891-1.33
	c-1.398-0.85-2.71-1.82-4.1-2.66c-0.512-0.25-1.53-0.74-2.03-0.98c-1.698-0.61-3.409-1.18-5.01-2.01
	c-1.642-0.57-3.381-0.77-4.979-1.46c-0.459-0.11-1.391-0.32-1.859-0.42c-1.2-0.78-2.65-0.8-4.01-1.04
	c-1.682-1.13-3.75-0.7-5.642-0.78c-5.108,0.07-10.22-0.07-15.319,0.1c-2.681,2.1-6.5-0.21-9.241,1.94
	c-2.59-0.03-5.18-0.05-7.76,0.05c-0.41,0.22-1.21,0.66-1.62,0.88c-6.47,0.13-12.95,0.03-19.43,0.03c2.13-3.94,7.11-0.43,10.05-2.91
	c3.93-0.15,7.87,0.01,11.8-0.14C131.65,67.47,136.35,70.52,139.6,68.07 M144.609,76.08c-1.75,1.57-4.409,0.31-6.199,1.78
	c-2.07,0.1-4.24-0.05-6.04,1.15c-7.13-0.08-14.25,0.09-21.37-0.06c-0.4-0.22-1.2-0.66-1.61-0.88c-3.61-0.61-7.78,1.03-11-1.02
	c-3.21-0.75-5.85,0.58-8.37,2.37c-0.02,0.46-0.05,1.38-0.07,1.84c2.66-1.37,5.61-5.16,8.65-2.33c3.62,0.59,7.76-0.99,11,1
	c7.9,0.17,15.79,0.02,23.69,0.07c1.65-1.59,4.06-0.89,6.11-1.1c1.4-1.24,3.33-0.81,5.02-1.06c0.4-0.2,1.189-0.59,1.59-0.79
	c4.311-0.11,8.631-0.11,12.94,0c0.409,0.22,1.239,0.65,1.649,0.87c2.319,0.29,4.949-0.55,6.979,0.93c0.948,0.1,1.892,0.21,2.83,0.32
	c1.579,0.78,3.358,0.92,5,1.51c1.59,0.82,3.278,1.4,4.97,1.99c4.609,2.09,9.051,4.73,12.391,8.6c1.729,1.53,3.069,4.02,5.689,3.98
	c-2.58-3.01-5.398-5.83-8.33-8.5c-2.771-1.92-5.811-3.43-8.729-5.09c-1.25-0.48-2.53-0.86-3.771-1.36
	c-1.561-0.91-3.279-1.4-5.068-1.55c-1.24-0.68-2.65-0.77-4-0.99c-2.461-1.74-5.852,0.32-8.16-1.69
	C155.13,75.95,149.87,75.95,144.609,76.08 M145,83.23l0.01,0.98c1.311-0.05,2.51-0.43,3.6-1.14c5.592-0.13,11.19-0.11,16.791,0
	c1.66,1.48,4,0.76,6,1.06c3.061,1.04,6.229,1.81,9.039,3.55c4.701,2.3,7.9,6.48,11.812,9.79c-0.108-0.51-0.33-1.53-0.438-2.04
	c-3.57-4.36-8.102-7.82-13.201-10.22c-1.58-0.81-3.279-1.29-5.049-1.47c-2.17-1.49-5.15,0.12-7.16-1.67
	c-5.461-0.14-10.93-0.05-16.391-0.08C148.221,81.79,146.62,82.65,145,83.23 M98.55,84.6c-0.48,0.28-1.44,0.85-1.92,1.13
	c-1.36,0.64-2.72,1.29-4.08,1.93c-2.01,0.88-3.68,2.54-3.91,4.82c-0.7,1.41-0.63,3-0.76,4.52h0.89c0.21-1.19,0.5-2.37,0.86-3.52
	c0.25-2.28,1.9-3.95,3.93-4.82c2.04-0.94,4.05-1.95,6.02-3.03c2.43-1.16,5.22-0.51,7.82-0.55c2.59,1.84,6.03,0.52,8.99,1.01
	c1.74,1.13,3.99,0.8,5.72,2.01c-0.04-0.52-0.11-1.55-0.14-2.06c-1.13-0.04-2.25-0.08-3.37-0.13c-2.96-2.31-7.25,0.5-10.2-1.83
	C105.13,84.15,101.68,83.42,98.55,84.6 M145.5,88.51c-0.79,2.42-0.46,4.99-0.51,7.49h0.98c0.038-2.17-0.16-4.4,0.52-6.5
	c1.48-2.06,3.34-3.81,4.98-5.75C148.59,83.76,147.061,86.52,145.5,88.51 M115.65,89.69c0.92,1.29,1.91,2.54,2.82,3.85
	c0.92,2.72,0.43,5.64,0.53,8.46h0.99c-0.12-3.15,0.46-6.42-0.51-9.49C118.68,91.02,117.49,89.69,115.65,89.69 M159.439,95.75
	c-1.33,0.24-2.699,0.38-3.959,0.92c-0.98,0.3-1.951,0.61-2.92,0.93c-3.44,2.48-7.381,4.56-10.062,7.88c-0.59,1.3-0.6,2.74,0.01,4.04
	c1.36,2.31,3.95,3.35,6.04,4.89c0.37,0.15,1.12,0.449,1.5,0.6c1.932-1.57,4.25-2.359,6.551-3.22c1.319-0.74,2.659-1.45,3.971-2.2
	c1.25-0.43,2.57-0.62,3.869-0.84c2.301-1.36,5.08-0.55,7.601-0.77c2.489,0.21,5.25-0.59,7.521,0.78c1.379,0.3,2.969,0.11,4.061,1.22
	c1.63,0.02,3.311,0.1,4.88-0.49c2.108-0.92,3.3-2.81,1.99-4.99c-1.36-1.98-3.08-3.66-4.79-5.31c-2.422,0.01-3.891-2.16-6.182-2.57
	c-2.229-1.21-5.108,0.17-7.119-1.55C168.109,95.33,163.49,94.13,159.439,95.75 M192.98,103.89l0.02,0.89
	c1.29,0.08,2.49,0.45,3.59,1.09c0.6,0.05,1.811,0.14,2.41,0.19l0.01,0.94c-1.35,0-2.689,0-4.029,0l0.039,1.07
	c2.42,0.11,4.791-0.21,6.98-1.3c0-0.44,0-1.3,0-1.74c-1.471-0.03-2.93-0.05-4.4-0.11C196.35,103.69,194.54,104.08,192.98,103.89
	 M209.01,106l-0.02,1c5.14,0.39,10.55-0.83,15.51,0.65c1.4,0.46,2.76,0.99,4.13,1.51c1.431,2.67,3.04,5.3,5.36,7.29
	c-0.44,5.33,0.97,11.02-0.74,16.1c-0.24,1.31-0.439,2.64-0.76,3.931c-1.26,2.449-3.65,3.83-6.1,4.859
	c-1.861,0.57-3.94,0.971-4.871,2.92c0.739-0.229,2.239-0.699,2.979-0.93c0.979-0.3,1.95-0.63,2.92-0.971
	c2.42-1.061,4.812-2.43,6.069-4.869c0.32-1.301,0.511-2.62,0.761-3.93c0.17-0.4,0.51-1.19,0.681-1.592
	c0.09-5.479,0.221-10.988-0.07-16.46c-3.409-2.909-4.39-9.02-9.851-8.75l-0.05-0.76C219.641,106,214.32,106,209.01,106
	 M193.279,109.08c-0.43,1.18,1.841,1.9,2.711,1.49C196.71,109.08,194.26,108.35,193.279,109.08 M167.88,112.01
	c1.74,2.48,4.04,4.73,6.66,6.33c1.36,0.63,2.71,1.311,4.04,2.02c1.96,1.041,4.25,0.541,6.38,0.672c2.511-0.16,5.19,0.43,7.56-0.66
	c1.4-0.45,2.75-1.051,4.08-1.689c1.57-0.591,3.24-0.789,4.83-1.311c0.51-0.262,1.521-0.78,2.021-1.04
	c1.529-0.75,2.68-2.511,4.55-2.33c2.8,0.09,5.79-0.5,8.45,0.62c0.5,0.26,1.488,0.779,1.979,1.04c2.11,0.84,3.43,2.698,4.33,4.72
	c1.721,3.051,3.35,6.689,1.61,10.13c-0.45,1.4-1.04,2.74-1.64,4.07c-0.73,1.04-1.36,2.858-0.03,3.729
	c1.93,2.209,3.71-1.431,4.729-2.841c0.291-0.979,0.59-1.97,0.891-2.96c1.16-4.119,1.459-9.199-1.051-12.93
	c-0.229-0.51-0.67-1.53-0.891-2.04c-1.568-2.72-3.96-4.92-6.729-6.36c-3.9-2.13-8.471-0.86-12.69-1.2
	c-2.31-0.52-3.8,1.32-5.51,2.459c-1.61,0.439-3.271,0.66-4.851,1.16c-1.07,0.58-2.129,1.181-3.181,1.771
	c-0.97,0.33-1.93,0.66-2.899,0.97c-3.109,1.08-6.83,1.07-9.939,0.02c-1.33-0.709-2.67-1.39-4.03-2.02
	c-2.069-1.02-3.56-2.82-5.069-4.5C170.04,109.94,168.18,110.29,167.88,112.01 M68.53,112.62c-1.3,0.729-2.55,1.6-3.44,2.819
	c-0.17,1.979-0.09,3.971-0.18,5.961c-1.52,1.72-0.74,4.108-0.91,6.18c1.52,1.42,2.99,2.9,4.42,4.42c0.65,0,1.95,0.01,2.61,0.01
	l-0.05-0.609c-2.55-0.84-4.1-3.189-6.07-4.859c0.16-1.41-0.12-3.03,1-4.148c0.09-1.98,0.01-3.98,0.18-5.961
	c0.93-1.189,2.17-2.091,3.43-2.899c1.14-0.29,2.3-0.54,3.46-0.74c0.03-0.47,0.1-1.41,0.13-1.89
	C71.66,111.68,70.08,112.12,68.53,112.62 M69.01,118.4c-0.77,2.08,1.42,4.72,3.46,3.039c2.81-3.149,7.26-2.931,11.02-1.92
	c2.72,0.721,2.05,4.021,3.93,5.391c3.02,0.04,6.24,0.63,9.1-0.561c2.55-0.17,6.18-3.209,3.79-5.66c-1.92-2.159-3.52,1.931-5.8,1.631
	c-0.4,0.188-1.19,0.56-1.58,0.75c-2.42-1.94-4.86-3.86-7.49-5.521c-3.67-1.08-7.62-0.439-11.4-0.488
	C72.23,115.891,70.62,117.21,69.01,118.4 M158,125.03c0,1.239,0,2.489,0,3.739c5.29,3.029,11.93-0.609,17.09,2.371
	c-0.029-0.531-0.09-1.602-0.119-2.142c-5.421-0.431-11.221,1.142-16.291-1.351c0.461-0.931,0.961-1.84,1.5-2.721
	C159.641,124.95,158.55,125,158,125.03z"/>
<path d="M144.609,76.08c5.261-0.13,10.521-0.13,15.791-0.01c2.31,2.01,5.699-0.05,8.16,1.69c1.35,0.22,2.76,0.31,4,0.99
	c1.789,0.15,3.51,0.64,5.068,1.55c1.24,0.5,2.521,0.88,3.771,1.36c2.92,1.66,5.959,3.17,8.729,5.09c2.932,2.67,5.75,5.49,8.33,8.5
	c-2.62,0.04-3.96-2.45-5.689-3.98c-3.34-3.87-7.779-6.51-12.391-8.6c-1.689-0.59-3.38-1.17-4.97-1.99c-1.642-0.59-3.421-0.73-5-1.51
	c-0.938-0.11-1.882-0.22-2.83-0.32c-2.03-1.48-4.66-0.64-6.979-0.93c-0.41-0.22-1.24-0.65-1.649-0.87c-4.31-0.11-8.63-0.11-12.94,0
	c-0.4,0.2-1.189,0.59-1.59,0.79c-1.69,0.25-3.62-0.18-5.02,1.06c-2.05,0.21-4.46-0.49-6.11,1.1c-7.9-0.05-15.79,0.1-23.69-0.07
	c-3.24-1.99-7.38-0.41-11-1c-3.04-2.83-5.99,0.96-8.65,2.33c0.02-0.46,0.05-1.38,0.07-1.84c2.52-1.79,5.16-3.12,8.37-2.37
	c3.22,2.05,7.39,0.41,11,1.02c0.41,0.22,1.21,0.66,1.61,0.88c7.12,0.15,14.24-0.02,21.37,0.06c1.8-1.2,3.97-1.05,6.04-1.15
	C140.2,76.39,142.86,77.65,144.609,76.08z"/>
<path fill="#FFFFFF" d="M8.05,80H9c-0.65,3.78,1.74,8.9-1.99,11.45c-0.03-1.95-0.02-3.9,0.06-5.85C8.52,84.06,7.86,81.88,8.05,80z"
	/>
<path d="M145,83.23c1.62-0.58,3.221-1.44,5.01-1.24c5.461,0.03,10.93-0.06,16.391,0.08c2.011,1.79,4.99,0.18,7.16,1.67
	c1.771,0.18,3.469,0.66,5.049,1.47c5.102,2.4,9.632,5.86,13.201,10.22c0.109,0.51,0.33,1.53,0.439,2.04
	c-3.91-3.31-7.109-7.49-11.811-9.79c-2.811-1.74-5.979-2.51-9.039-3.55c-2-0.3-4.34,0.42-6-1.06c-5.602-0.11-11.2-0.13-16.791,0
	c-1.09,0.71-2.289,1.09-3.601,1.14L145,83.23z"/>
<path d="M98.55,84.6c3.13-1.18,6.58-0.45,9.85-0.52c2.95,2.33,7.24-0.48,10.2,1.83c1.12,0.05,2.24,0.09,3.37,0.13
	c0.03,0.51,0.1,1.54,0.14,2.06c-1.73-1.21-3.98-0.88-5.72-2.01c-2.96-0.49-6.4,0.83-8.99-1.01c-2.6,0.04-5.39-0.61-7.82,0.55
	c-1.97,1.08-3.98,2.09-6.02,3.03c-2.03,0.87-3.68,2.54-3.93,4.82c-0.36,1.15-0.65,2.33-0.86,3.52h-0.89
	c0.13-1.52,0.06-3.11,0.76-4.52c0.23-2.28,1.9-3.94,3.91-4.82c1.36-0.64,2.72-1.29,4.08-1.93C97.11,85.45,98.07,84.88,98.55,84.6z"
	/>
<path d="M145.5,88.51c1.561-1.99,3.09-4.75,5.971-4.76c-1.641,1.94-3.5,3.69-4.979,5.75c-0.681,2.1-0.479,4.33-0.521,6.5h-0.979
	C145.04,93.5,144.71,90.93,145.5,88.51z"/>
<path d="M249,83.01l1-0.01c-0.311,2.16,0.76,4.8-0.91,6.58c-0.359,2.03,0.67,4.63-1.21,6.13c1.011,0.62,2.04,1.2,3.12,1.7
	c-0.29,2.13,0.891,4.92-1.2,6.38c-1.271,1.87-4.64,1.83-5.739-0.2c-0.131-1.36-0.229-2.76,0.061-4.1c1.3-1.51,3.061-2.81,3.22-4.97
	c0.92-1.69,0.61-3.66,0.71-5.5l0.95-0.06C249,86.98,248.99,84.99,249,83.01z"/>
<path d="M115.65,89.69c1.84,0,3.03,1.33,3.83,2.82c0.97,3.07,0.39,6.34,0.51,9.49H119c-0.1-2.82,0.39-5.74-0.53-8.46
	C117.56,92.23,116.57,90.98,115.65,89.69z"/>
<path d="M159.439,95.75c4.051-1.62,8.67-0.42,12.961-0.68c2.01,1.72,4.89,0.34,7.119,1.55c2.291,0.41,3.76,2.58,6.181,2.57
	c1.71,1.65,3.43,3.33,4.79,5.31c1.31,2.18,0.119,4.07-1.99,4.99c-1.57,0.59-3.25,0.51-4.88,0.49c-1.091-1.11-2.681-0.92-4.06-1.22
	c-2.271-1.37-5.031-0.57-7.521-0.78c-2.521,0.22-5.301-0.59-7.602,0.77c-1.299,0.22-2.619,0.41-3.869,0.84
	c-1.311,0.75-2.649,1.46-3.971,2.2c-2.3,0.86-4.619,1.649-6.55,3.22c-0.38-0.15-1.13-0.449-1.5-0.6c-2.09-1.54-4.68-2.58-6.04-4.89
	c-0.61-1.3-0.6-2.74-0.01-4.04c2.68-3.32,6.62-5.4,10.061-7.88c0.969-0.32,1.939-0.63,2.92-0.93
	C156.74,96.13,158.109,95.99,159.439,95.75 M157.5,100.66c-0.99,0.3-1.971,0.61-2.939,0.95c-2.681,1.74-5.461,3.42-7.609,5.84
	c1.068,0.68,2.09,3.5,3.561,1.87c1.721-0.45,3.34-1.2,4.92-2.01c1.061-0.54,2.1-1.11,3.141-1.69c1.81-0.87,3.859-0.58,5.8-0.74
	c-0.33-0.61-0.99-1.84-1.32-2.45c-0.01-1.17-0.021-2.34-0.01-3.51C161.359,99.97,159.34,100.05,157.5,100.66 M179.529,103.04
	c1.521,2.41,4.49,1.79,6.801,2.8c-0.57-1.25-1.689-2.02-2.7-2.87C182.26,102.98,180.891,103,179.529,103.04z"/>
<path fill="#FEFFFE" d="M157.5,100.66c1.84-0.61,3.859-0.69,5.54-1.74c-0.011,1.17,0,2.34,0.01,3.51c0.33,0.61,0.99,1.84,1.32,2.45
	c-1.94,0.16-3.99-0.13-5.8,0.74c-1.041,0.58-2.08,1.15-3.141,1.69c-1.58,0.81-3.199,1.56-4.921,2.01
	c-1.47,1.63-2.489-1.19-3.56-1.87c2.148-2.42,4.93-4.1,7.609-5.84C155.529,101.27,156.51,100.96,157.5,100.66z"/>
<path fill="#FEFFFE" d="M179.529,103.04c1.361-0.04,2.729-0.06,4.101-0.07c1.011,0.85,2.13,1.62,2.7,2.87
	C184.02,104.83,181.05,105.45,179.529,103.04z"/>
<path fill="#FEFFFE" d="M95.99,104c3,0,6,0,9.01,0l0.01,1c-3,0-6,0-9,0L95.99,104z"/>
<path d="M192.98,103.89c1.56,0.19,3.369-0.2,4.619,1.03c1.471,0.06,2.93,0.08,4.399,0.11c0,0.438,0,1.3,0,1.74
	c-2.188,1.09-4.562,1.41-6.979,1.3L194.98,107c1.34,0,2.68,0,4.028,0l-0.01-0.94c-0.601-0.05-1.812-0.14-2.41-0.19
	c-1.101-0.64-2.3-1.01-3.59-1.09L192.98,103.89z"/>
<path d="M209.01,106c5.311,0,10.631,0,15.95,0l0.05,0.76c5.461-0.27,6.44,5.84,9.85,8.75c0.291,5.471,0.16,10.98,0.07,16.46
	c-0.17,0.4-0.51,1.19-0.68,1.591c-0.25,1.311-0.439,2.629-0.76,3.931c-1.26,2.438-3.65,3.81-6.07,4.868
	c-0.97,0.342-1.939,0.672-2.92,0.972c-0.74,0.229-2.24,0.7-2.98,0.93c0.932-1.948,3.01-2.35,4.871-2.92
	c2.449-1.028,4.84-2.409,6.101-4.858c0.319-1.291,0.521-2.621,0.76-3.932c1.71-5.08,0.3-10.77,0.74-16.1
	c-2.32-1.99-3.931-4.62-5.36-7.29c-1.369-0.52-2.729-1.05-4.13-1.51c-4.96-1.48-10.37-0.26-15.51-0.65L209.01,106z"/>
<path d="M193.279,109.08c0.979-0.73,3.431,0,2.711,1.49C195.12,110.98,192.85,110.26,193.279,109.08z"/>
<path d="M167.88,112.01c0.3-1.72,2.16-2.07,3.601-2.17c1.511,1.68,3,3.48,5.069,4.5c1.36,0.63,2.7,1.311,4.03,2.02
	c3.109,1.052,6.83,1.062,9.939-0.02c0.971-0.31,1.931-0.64,2.899-0.97c1.052-0.59,2.108-1.19,3.181-1.771
	c1.58-0.5,3.239-0.721,4.851-1.16c1.71-1.141,3.2-2.979,5.51-2.459c4.22,0.34,8.79-0.93,12.69,1.2c2.77,1.44,5.16,3.641,6.729,6.36
	c0.221,0.51,0.66,1.53,0.891,2.04c2.51,3.73,2.211,8.811,1.051,12.93c-0.301,0.99-0.601,1.98-0.891,2.96
	c-1.021,1.41-2.801,5.05-4.729,2.841c-1.33-0.871-0.7-2.689,0.03-3.729c0.6-1.33,1.188-2.67,1.64-4.07
	c1.739-3.438,0.11-7.079-1.61-10.13c-0.9-2.021-2.22-3.88-4.33-4.72c-0.49-0.261-1.479-0.78-1.979-1.04
	c-2.66-1.12-5.65-0.53-8.45-0.62c-1.87-0.181-3.021,1.58-4.55,2.33c-0.5,0.26-1.512,0.778-2.021,1.04
	c-1.59,0.521-3.26,0.72-4.83,1.311c-1.33,0.641-2.68,1.239-4.08,1.689c-2.369,1.09-5.049,0.5-7.56,0.66
	c-2.13-0.131-4.42,0.369-6.38-0.672c-1.33-0.709-2.68-1.389-4.04-2.02C171.92,116.74,169.62,114.49,167.88,112.01z"/>
<path d="M68.53,112.62c1.55-0.5,3.13-0.94,4.58-1.72c-0.03,0.479-0.1,1.42-0.13,1.89c-1.16,0.2-2.32,0.45-3.46,0.74
	c-1.26,0.81-2.5,1.71-3.43,2.899c-0.17,1.979-0.09,3.979-0.18,5.961c-1.12,1.118-0.84,2.738-1,4.148
	c1.97,1.67,3.52,4.021,6.07,4.859l0.05,0.609c-0.66,0-1.96-0.01-2.61-0.01c-1.43-1.52-2.9-3-4.42-4.42
	c0.17-2.07-0.61-4.46,0.91-6.18c0.09-1.99,0.01-3.98,0.18-5.961C65.98,114.22,67.23,113.35,68.53,112.62z"/>
<path fill="#FFFFFF" d="M0,111.41c0.78,0.89,1.57,1.77,2.36,2.64c1.2-0.05,2.4-0.1,3.59-0.159c-1.68,3.319-0.59,7.141-1.07,10.68
	C3.29,125.9,1.52,127,0,128.42V111.41z"/>
<path d="M69.01,118.4c1.61-1.19,3.22-2.51,5.03-3.34c3.78,0.049,7.73-0.592,11.4,0.488c2.63,1.66,5.07,3.58,7.49,5.521
	c0.39-0.19,1.18-0.562,1.58-0.75c2.28,0.3,3.88-3.79,5.8-1.631c2.39,2.451-1.24,5.49-3.79,5.66c-2.86,1.189-6.08,0.601-9.1,0.561
	c-1.88-1.37-1.21-4.67-3.93-5.391c-3.76-1.011-8.21-1.229-11.02,1.92C70.43,123.12,68.24,120.48,69.01,118.4z"/>
<path fill="#FFFFFF" d="M6,117l0.72-0.03c0.22,0.64,0.67,1.94,0.89,2.591c0.95,1.311,1.97,2.569,2.97,3.851
	c1.02,1.58,2.27,2.989,3.63,4.29c6.39,6.25,12.51,12.779,19.06,18.869c5.52,3.039,8.39,9.461,14.18,12.149
	c0.76,0.38,1.49,0.82,2.17,1.32c-0.19,1.33-0.51,2.64-0.8,3.95c1.47,0,2.95,0.01,4.42,0.02c-0.17,1.65-0.31,3.35-1.14,4.83
	c-0.05,1.21-0.11,2.41-0.16,3.62c-1.43,1.49-2.72,3.101-3.83,4.84c-0.45,1.36-0.92,2.72-1.35,4.091
	c0.91,0.859,1.81,1.729,2.71,2.609c1.36,0,2.72,0,4.08,0c1.15-1.17,2.32-2.33,3.5-3.48c-0.03-1.699,0.02-3.41-0.17-5.108
	c-1.2-1.052-2.62-1.82-3.83-2.851c-0.35-1.779,0.21-3.529,0.8-5.181c-0.41-2.54,1.03-4.42,3.53-4.79c0.48,0.61,1.46,1.82,1.95,2.43
	c0.66-0.01,2-0.02,2.67-0.028c-0.28,5.55,0.69,11.239-0.63,16.688c-0.34,1.711-0.59,3.44-1.21,5.08
	c-0.14,5.51-0.55,11.09,0.26,16.561c1.29,2.149,2.66,4.261,3.91,6.439c1.27,1.32,2.57,2.61,3.9,3.891
	c1.76,0.99,3.43,2.141,5.16,3.199c1.36,0.5,2.72,0.99,4.11,1.4c1.11,0.609,2.24,1.189,3.39,1.75H0v-90.83
	c0.94,1.84,0.77,4.3,2.36,5.76c2.77,0.4,5.87,0.53,7.28-2.359c0.24-1.699,0.49-3.42,0.32-5.131c-1.25-0.988-2.61-1.85-3.85-2.85
	C5.87,122.07,6,119.53,6,117 M13,133.84c0,2.59,0,5.17,0,7.76c-2.06,0.541-3.44,2.16-4.47,3.92c-1.2,2.36-0.66,5.012,1.97,5.961
	c1.92,0.729,4.08,0.771,5.98-0.011c1.64-0.75,2.71-2.13,2.85-3.95c1.48-2.27,0.78-5.068-1.84-5.988c-1.16-0.301-2.33-0.54-3.51-0.74
	c-0.64-4.16,1.29-8,1.02-12.09C14,130.29,14.07,132.29,13,133.84 M33.91,148.68c0.15,4.04,0.07,8.09,0.09,12.141
	c-2.4-0.391-6.69,2.41-4.1,4.82c-1.57,1.299-1.36,4.34,0.51,5.289c2.61,0.41,5.23,0.021,7.59-1.17c0-2.13,0-4.26,0-6.39
	c-1.06-0.55-3.04-0.78-2.97-2.36c-0.11-4.119-0.05-8.24,0.06-12.35C34.8,148.67,34.21,148.67,33.91,148.68z"/>
<path d="M158,125.03c0.55-0.03,1.641-0.08,2.18-0.101c-0.539,0.881-1.039,1.789-1.5,2.721c5.07,2.49,10.87,0.92,16.291,1.35
	c0.029,0.54,0.09,1.609,0.119,2.141c-5.16-2.979-11.8,0.659-17.09-2.371C158,127.52,158,126.27,158,125.03z"/>
<path fill="#FEFFFE" d="M207.7,125.96c2.18,1.75,1.35,4.64,0.04,6.63c-0.721,1.36-1.4,2.75-2.03,4.16
	c-1.12,0.48-2.22,1.01-3.33,1.51c-0.489,0.26-1.46,0.771-1.95,1.03c-1.34,0.68-2.688,1.34-4.039,2c-0.49,0.25-1.461,0.76-1.951,1.01
	c-1.76,0.96-3.58,1.82-5.608,1.96c1.989-2.57,0.84-5.92,1.229-8.88c0.879-1.021,2.199-1.489,3.34-2.149c0.5-0.229,1.5-0.689,2-0.92
	c1.341-0.66,2.67-1.351,4.011-2.041C202.21,128.92,205.04,127.59,207.7,125.96z"/>
<path d="M13,133.84c1.07-1.55,1-3.55,2-5.14c0.27,4.09-1.66,7.93-1.02,12.09c1.18,0.2,2.35,0.44,3.51,0.74
	c2.62,0.92,3.32,3.72,1.84,5.989c-0.14,1.819-1.21,3.199-2.85,3.949c-1.9,0.78-4.06,0.74-5.98,0.012
	c-2.63-0.95-3.17-3.602-1.97-5.961c1.03-1.761,2.41-3.379,4.47-3.92C13,139.01,13,136.43,13,133.84z"/>
<path fill="#FFFFFF" d="M285.4,142.34c1.449-2.62,1.688-5.63,2.6-8.43V220H114.13c1.38-0.59,2.83-0.99,4.27-1.4
	c2.05-0.479,4.14-0.72,6.18-1.24c0.45-0.18,1.37-0.528,1.83-0.709c2.04-0.529,4.14-0.771,6.19-1.301c1.33-0.33,2.67-0.64,3.99-1.029
	c0.45-0.18,1.35-0.539,1.8-0.721c2.97-0.779,6.09-0.479,9.09-1.1c1.379-0.561,2.75-1.141,4.119-1.72
	c0.93-0.511,1.859-1.021,2.801-1.53c1.08-0.51,2.148-1.04,3.229-1.53c2.229-1.17,4.512-2.27,6.75-3.43c1.352-0.649,2.7-1.32,4.051-2
	c1.329-0.67,2.659-1.34,3.971-2.04c1.979-0.95,3.97-1.91,6.05-2.59c1.649-0.73,3.319-1.43,5.021-2.04
	c0.989-0.31,1.989-0.59,2.989-0.86c1.61-0.97,3.17-2.76,5.14-2.74c2.062,2.541,3.65,5.42,5.15,8.32c0.91,2.07,1.58,4.24,2.529,6.301
	c0.681,1.659,1.24,3.379,2,5.01c0.271,0.591,0.801,1.761,1.07,2.351c1.211,0,2.42,0,3.641,0c-0.2-3.899,0.689-8.021-0.79-11.75
	c-0.16-1.84-0.261-3.68-0.41-5.521c-0.81-2.359-0.84-4.881-1.38-7.301c-0.381-1.398-0.76-2.8-1.21-4.18c1.53-0.8,3-1.71,4.521-2.529
	c1.989-1.479,3.659-5.611,6.609-3.711l-0.52-1.97c2.469-0.03,4.948-0.04,7.43-0.2c1.63-0.71,3.42-0.85,5.17-1.09
	c-0.33,1.391-0.71,2.78-1.311,4.09c-0.029,0.68-0.091,2.04-0.13,2.721c-1.351,2.311-3.171,4.279-5.149,6.049
	c0.289,1.48-0.062,3.5,1.59,4.302c1.39,0.21,2.811,0.198,4.21,0.028c2.31-1.528,1.09-4.6,1.44-6.898
	c-0.59-0.03-1.762-0.09-2.352-0.12c0.29-1.149,0.609-2.29,0.971-3.42c0.529-2.17,1.141-4.319,1.59-6.51
	c4.131-0.2,8.461,0.67,12.451-0.74c1.198-0.17,2.398-0.319,3.608-0.479c1.319-0.42,2.67-0.801,4.021-1.119
	c-0.33,1.35-0.721,2.699-1.16,4.02c-0.09,0.971-0.181,1.939-0.25,2.91c-1.819,3.189-4.601,5.641-7.26,8.109
	c0.311,0.08,0.93,0.261,1.25,0.341c-0.41,0.84-0.74,1.7-1,2.59c1.301,1.84,3.631,1.29,5.561,1.47c1.16-1.199,2.33-2.38,3.51-3.54
	c0-1.39,0-2.78,0-4.159c-0.779-0.381-2.34-1.131-3.12-1.5c0.39-0.609,1.16-1.841,1.55-2.451c0.35-1.27,0.631-2.549,0.93-3.829
	c0.382-1.431,0.621-2.899,0.852-4.359c0.561-0.229,1.66-0.7,2.21-0.938c0.53-0.262,1.59-0.791,2.12-1.062
	c1.029-0.319,2.061-0.68,3.08-1.062c0.5-0.06,1.51-0.188,2.01-0.26c0.41-0.41,1.221-1.229,1.63-1.64c1.972-0.39,3.79-1.29,5.49-2.33
	c0.351,0.5,0.688,1,1.05,1.511c-0.04-2.341,1.99-3.671,3.422-5.16c1.51-0.801,2.92-1.779,4.398-2.649
	c1.47-1.271,2.97-2.51,4.729-3.351c-0.699,1.41-1.42,2.8-2.119,4.209c-0.42,1.69-1,3.33-1.461,5c-1.799,1.15-5.1,2.67-3,5.17
	c0.09,0.592,0.26,1.781,0.352,2.371c2.479-0.141,7.311,0.879,6.93-3.029c0.75-2.5-1.21-3.82-3.22-4.671
	c0.96-3.029,2.108-5.97,3.5-8.829c0.21-0.53,0.649-1.602,0.87-2.131c1-1.729,2.14-3.381,3.17-5.09
	c1.25-0.391,2.738-0.529,3.602-1.67C286.221,145.85,285.92,144.05,285.4,142.34 M259.42,176.37c-1.79,0.899-2.98,2.56-2.46,4.63
	c-0.7,3.359,4.649,4.27,5.97,1.58c0.08-2.07,0.58-4.391-0.77-6.18c0.689-3.25,2.46-6.301,1.85-9.721
	C261.76,169.67,263.49,174.859,259.42,176.37 M209.67,183.641c-1.891,0.909-3.32,2.459-4.85,3.851
	c-0.381,4.02,3.949,3.899,6.77,3.438c2.439-1.43,1.08-4.58,1.43-6.858c-0.56-0.04-1.67-0.101-2.229-0.132
	c0.488-1.148,1.609-2.368,1.05-3.688C210.55,180.53,210.42,182.63,209.67,183.641z"/>
<path fill="#FEFFFE" d="M182.471,137.62c1.189-0.37,2.409-0.66,3.649-0.851c-0.11,1.58-0.16,3.189-0.61,4.729
	c-1.859,2.46-3.96,4.84-6.47,6.649c-3.271-2.211-6.37-4.659-9.521-7.01c0.721-0.08,2.17-0.229,2.891-0.311
	c1.609-0.88,3.52-0.82,5.16-1.61c0.47-0.11,1.41-0.319,1.88-0.43C180.439,138.37,181.45,137.98,182.471,137.62z"/>
<path fill="#FEFFFE" d="M195.609,146.68c2.49-0.5,4.33-2.35,6.729-3.05c-3.521,4.8-6.409,10.19-10.8,14.271
	c-3.182,0.521-3.311-4.67-1.66-6.479c0.04-0.528,0.109-1.59,0.148-2.12c0.592-0.25,1.781-0.729,2.371-0.979
	C193.471,147.78,194.529,147.22,195.609,146.68z"/>
<path fill="#FEFFFE" d="M90.42,147.05c2.38-0.489,4.66,0.33,6.82,1.271c-0.23,1.511-0.84,2.91-1.53,4.261
	c-1.41,1.528-0.39,3.37,0.46,4.858c-0.69-0.33-2.07-1.01-2.76-1.34c-1.12-0.05-2.24-0.1-3.36-0.14c-0.04-0.59-0.13-1.78-0.17-2.37
	C88.55,151.75,88.23,148.38,90.42,147.05z"/>
<path d="M33.91,148.68c0.3-0.01,0.89-0.01,1.18-0.02c-0.11,4.109-0.17,8.23-0.06,12.35c-0.07,1.58,1.91,1.811,2.97,2.36
	c0,2.13,0,4.26,0,6.39c-2.36,1.19-4.98,1.58-7.59,1.17c-1.87-0.949-2.08-3.99-0.51-5.289c-2.59-2.41,1.7-5.211,4.1-4.82
	C33.98,156.77,34.06,152.72,33.91,148.68z"/>
<path fill="#FEFFFE" d="M80.6,150.33c1.57-0.23,3.12-0.53,4.45-1.439c-0.05,1.771-0.03,3.529-0.05,5.299
	C83.28,153.2,81.25,152.4,80.6,150.33z"/>
<path fill="#FEFFFE" d="M101.01,148.88c2.1,2.12,5.44,0.13,7.59,2.05c2.51,0.102,5.03,0.08,7.54,0.021c-1.75,1.96-1,4.67-1.16,7.05
	c-3.48-0.438-7.5,1.05-10.58-0.938c-1.83-0.052-3.66-0.062-5.49-0.021c0.6-1.12,1.05-2.311,1.46-3.521
	C101.14,152.09,100.96,150.439,101.01,148.88z"/>
<path fill="#FEFFFE" d="M137.08,150.41c1.26-2.221,4.4-1.66,6.35-0.77c1.32,0.709,2.66,1.39,4.02,2.049
	c2.04,1.221,4,2.569,5.94,3.961c-1.632,0.55-3.24,1.16-4.882,1.68c-3.64,1.41-7.7,0.359-11.51,0.67
	C137.02,155.47,136.88,152.93,137.08,150.41z"/>
<path fill="#FEFFFE" d="M127.4,150.93c1.53-1.449,3.72-0.789,5.6-0.979c0,2.68,0,5.369,0,8.05c-4.7,0-9.41,0-14.11,0
	c0.18-1.562-0.16-3.319,0.99-4.59c0.05-0.601,0.13-1.812,0.18-2.41C122.5,151.01,124.95,151.02,127.4,150.93z"/>
<path fill="#FEFFFE" d="M184.18,152.189C184.891,152.87,184.891,152.87,184.18,152.189z"/>
<path fill="#FEFFFE" d="M66.08,157.439c2.17-2.119,4.73-4.449,7.9-4.659c0.05,3.54-0.06,7.069,0.11,10.61
	c0.97,1.549,0.97,3.42,1.54,5.108c0.46,1.392,1.02,2.74,1.59,4.101c1.35,4.159,4.67,6.771,8.35,8.83c1.66,0.471,3.42,0.609,5,1.351
	c0.46,0.11,1.39,0.319,1.86,0.42c2.07,1.37,4.65,0.62,6.97,0.89c3.26,2.42,7.95-0.609,11.2,1.84c8.79,0.12,17.59,0.11,26.37,0.021
	c0.41-0.221,1.23-0.66,1.63-0.87c2.6-0.101,5.2-0.062,7.8-0.149c2.619-2.189,6.438,0.25,9.17-1.729c0.459-0.11,1.4-0.32,1.859-0.42
	c2.021-0.841,4.279-0.931,6.199-2.062c1.25-0.539,2.57-0.92,3.842-1.408c1.76-0.392,3.368-1.201,4.948-2.03
	c0.87-0.47,1.75-0.91,2.649-1.32c1.761,0.95,2.881,2.931,4.931,3.44c0,0.33,0,0.97,0,1.289c-0.601,0.25-1.8,0.74-2.399,0.979
	c-1.08,0.55-2.141,1.11-3.199,1.67c-1.26,0.472-2.541,0.841-3.791,1.32c-1.08,0.55-2.139,1.12-3.209,1.68
	c-1.291,0.472-2.602,0.86-3.881,1.36c-1.021,0.279-2.021,0.6-3.021,0.949c-1.42,0.439-2.79,1-4.12,1.641
	c-1.271,0.521-2.59,0.898-3.859,1.398c-1.049,0.312-2.08,0.682-3.08,1.102c-0.469,0.102-1.399,0.3-1.869,0.398
	c-2.11,1.642-5.16-0.1-7.17,1.74c-6.13,0.211-12.26-0.07-18.39,0.12c-0.4,0.22-1.21,0.66-1.61,0.88c-6.8,0.09-13.6,0.15-20.39,0
	c-0.39-0.17-1.17-0.51-1.57-0.68c-1.33-0.26-2.7-0.38-3.96-0.9c-0.97-0.318-1.94-0.648-2.9-0.99c-4.12-1.448-6.51-5.238-9.83-7.818
	c0.67,3.84,4.53,6.279,7.61,8.29c1.37,0.528,2.74,1.062,4.13,1.54c1.27,0.488,2.63,0.62,3.95,0.88c1.67,1.13,3.73,0.67,5.6,0.771
	c5.97-0.101,11.94,0.101,17.9-0.069c0.42-0.22,1.25-0.66,1.66-0.88c6.27-0.2,12.53,0.06,18.8-0.141c2.01-1.841,5.06-0.091,7.17-1.74
	c0.47-0.101,1.42-0.299,1.89-0.399c1.319-0.55,2.681-0.97,4.011-1.49c0.989-0.3,1.969-0.63,2.93-1c1.641-0.81,3.359-1.38,5.07-2.02
	c1.021-0.271,2.029-0.58,3.029-0.94c1.74-0.43,3.359-1.24,4.92-2.1c2.33-1.01,4.75-1.771,7.02-2.91
	c1.36-0.721,2.73-1.439,4.062-2.23c1.101,1.062,2.33,1.99,3.851,2.392c-1.209,0.81-2.459,1.569-3.721,2.29
	c-1.43,0.408-2.79,0.97-4.18,1.46c-1.342,0.72-2.7,1.399-4.061,2.09c-1.681,0.608-3.391,1.17-5.011,1.938
	c-1.29,0.541-2.63,0.972-3.909,1.53c-0.471,0.101-1.421,0.3-1.9,0.4c-1.84,1.159-4.159,0.52-6.09,1.45
	c-1.41,0.318-2.811,0.688-4.109,1.31c-1.682,0.13-3.57-0.33-4.96,0.899c-0.938,0.091-1.881,0.181-2.82,0.281
	c-2.08,1.68-5.03,0.068-7.16,1.658c-1.75,0.11-3.52,0.271-5.06,1.19c-2.07-0.07-4.22-0.21-6,1.028c-4.26,0.48-9.09-1.148-12.98,0.91
	c-8.13,0.15-16.27,0.051-24.41,0.062c-1.64,0.069-2.98-1.062-4.42-1.66c-1.41-0.83-2.71-1.83-4.14-2.61
	c-2.22-1.199-4.41-2.5-6.36-4.1c-0.14-1.87-0.06-3.75-0.08-5.62H73c0,2.2-0.09,4.41,0.05,6.62c1.7,1.41,3.62,2.54,5.53,3.648
	c2.38,1.291,4.58,2.881,6.97,4.142c1.71,0.8,3.62,0.569,5.45,0.608c7.65-0.1,15.31,0.09,22.96-0.068
	c0.41-0.221,1.24-0.66,1.65-0.881c3.89-0.141,7.79-0.051,11.68-0.069c1.61-1.601,3.98-0.92,6-1.01c1.72-1.761,4.49-0.32,6.31-1.882
	c2-0.198,4.17,0.262,5.97-0.868c1.369-0.29,2.9-0.171,4.029-1.15c1.229-0.05,2.461-0.09,3.689-0.12c1.5-1.27,3.63-0.85,5.3-1.779
	c1.65-0.209,3.392-0.08,4.92-0.851c1.011-0.3,2-0.64,2.98-1.01c1.43-0.41,2.788-0.99,4.14-1.62c1.24-0.51,2.53-0.898,3.79-1.38
	c0.5-0.261,1.5-0.79,2-1.05c0.49-0.25,1.479-0.75,1.979-1c1.32-0.682,2.66-1.352,4.16-1.54c0.489-0.28,1.489-0.82,1.979-1.101
	c1.91-1.781,3.351,0.799,4.58,2.01c-2.38,1.619-4.74,3.341-7.58,4.039c-1.45,0.381-2.819,0.961-4.17,1.592
	c-1.24,0.51-2.521,0.908-3.761,1.398c-1.75,0.852-3.449,1.78-5.219,2.59c-0.932,0.48-1.852,0.972-2.781,1.461
	c-2.029,0.949-4.029,1.959-6.021,3c-1.062,0.5-2.119,1.029-3.18,1.539c-2.28,1.17-4.58,2.291-6.83,3.5
	c-1.642,0.722-3.37,1.25-4.95,2.09c-1.39-1.27-3.58-1.09-5.15-0.219c-1.03,0.351-2.04,0.739-3.04,1.149
	c-0.47,0.101-1.4,0.31-1.87,0.41c-1.2,0.78-2.65,0.79-4.01,1.05c-1.88,1.16-4.29,0.3-6.13,1.561c-0.47,0.09-1.39,0.289-1.86,0.391
	c-1.84,1.31-4.36,0.26-6.16,1.648c-0.94,0.102-1.88,0.2-2.82,0.301c-1.81,1.459-4.45,0.199-6.2,1.771
	c-5.46,0.181-10.93,0.021-16.4,0.101c-1.86-0.09-3.9,0.34-5.55-0.779c-1.36-0.25-2.81-0.271-4.01-1.04
	c-0.48-0.101-1.43-0.29-1.91-0.39c-5.63-2.24-11.2-5.682-13.85-11.371c-2.92-4.399-1.31-9.891-1.59-14.83
	c1.28-1.391,0.83-3.34,1.08-5.029c0.19-0.391,0.59-1.18,0.79-1.57C66.16,173.82,65.82,165.62,66.08,157.439 M104.98,190l0.03,1
	c11,0,21.99,0,32.99,0v-1C127,190,115.99,190,104.98,190z"/>
<path fill="#FFFFFF" d="M61.18,160.189l0.63-0.01l0.01,0.631l-0.63,0.02L61.18,160.189z"/>
<path fill="#FEFFFE" d="M156.529,162.71c1.521-0.569,3.07-1.06,4.521-1.79c-0.28,3.48-0.479,7.12,2.38,9.63
	c0.301,0.99,0.57,1.99,0.812,3c0.26,0.5,0.771,1.5,1.028,2c-0.699,0.32-2.1,0.96-2.799,1.28c-0.479,0.09-1.431,0.29-1.9,0.38
	c-1.641,0.771-3.5,0.81-5.141,1.57c-0.47,0.1-1.39,0.31-1.85,0.42c-2.08,1.36-4.66,0.62-6.971,0.88
	c-1.601,1.43-3.851,0.77-5.771,1.02c0.8-1.229,1.93-2.51,0.22-3.688c-0.1-3.45-0.05-6.899-0.06-10.34
	c0.6-0.062,1.81-0.16,2.41-0.212c1.59-0.889,3.479-0.898,5.149-1.59c1.789-0.17,3.51-0.648,5.049-1.59
	C154.57,163.311,155.54,162.99,156.529,162.71z"/>
<path fill="#FEFFFE" d="M79.42,164.82c1.38,1.3,2.07,3.08,2.87,4.75c0.93,1.699,1.82,3.449,1.92,5.43H83.3
	c-0.24-0.6-0.72-1.811-0.96-2.41c-0.57-1.07-1.15-2.12-1.74-3.17c-0.34-1.109-0.61-2.24-0.83-3.38l-1.16-0.149L79.42,164.82z"/>
<path fill="#FEFFFE" d="M86.59,167.8c1.05,0.49,2.1,0.98,3.16,1.47c0.23,0.53,0.7,1.602,0.94,2.131c0.85,1.75,1.77,3.459,2.66,5.199
	c0.24,0.682,0.72,2.051,0.96,2.73c-0.71-0.28-2.13-0.83-2.84-1.1c-1.35-0.23-2.7-0.4-4.03-0.73c-1.12-0.609-2.04-1.51-2.79-2.53
	c1.13,0.25,2.25,0.58,3.35,0.99c0.76-1.16,1.56-2.38,0.16-3.521c-0.08-0.471-0.25-1.42-0.33-1.891
	C87.52,169.859,86.9,168.49,86.59,167.8z"/>
<path fill="#FEFFFE" d="M134.49,168.79c0.61-0.28,1.85-0.851,2.47-1.14c0.66,4.33-1.26,9.369,1.14,13.24
	c-4.78,1.969-10.03,0.818-15.04,1.108c-0.05-0.601-0.13-1.812-0.18-2.41c-1.39-1.698-0.73-3.989-1-5.989
	c-0.65-1.101-1.01-2.289-1.1-3.58c3.21-0.039,6.41,0.029,9.62-0.101C131.53,168.891,133.09,169.04,134.49,168.79z"/>
<path fill="#FEFFFE" d="M166.939,167.93c0.66,0.18,2,0.551,2.66,0.74l-0.811,0.75c1.148,1.07,2.29,2.15,3.449,3.21
	c-1.061,0.42-2.1,0.88-3.119,1.38c-0.182-0.619-0.551-1.869-0.729-2.49C168.05,170.26,167.58,169.05,166.939,167.93z"/>
<path d="M259.42,176.37c4.07-1.511,2.34-6.7,4.59-9.69c0.61,3.42-1.16,6.471-1.85,9.721c1.35,1.789,0.85,4.109,0.77,6.181
	c-1.32,2.688-6.67,1.778-5.97-1.58C256.439,178.93,257.63,177.27,259.42,176.37z"/>
<path fill="#FEFFFE" d="M94.78,169.76c1.39,0.051,2.66,0.43,3.82,1.15c1.06,0.04,2.11,0.07,3.17,0.1c0.2,1.19,0.49,2.36,0.88,3.5
	c0.31,0.971,0.66,1.94,1.06,2.891c0.58,1.24,1.15,2.49,1.66,3.771c-1.47,0.05-2.79-0.312-3.98-1.101
	c-1.18-0.029-2.36-0.039-3.54-0.039c1.72-1.44,0.89-3.08-0.09-4.631C96.76,173.52,95.8,171.63,94.78,169.76z"/>
<path fill="#FEFFFE" d="M105.91,170.95c3.22,0.11,6.45-0.091,9.67,0.14c1.34,0.57,1.32,2.221,1.77,3.391
	c1.27,2.391-0.14,5.439,1.78,7.58c-3-0.08-6.15,0.34-8.87-1.229c-0.24-0.562-0.72-1.66-0.96-2.222
	C107.94,176.16,107.05,173.5,105.91,170.95z"/>
<path d="M209.67,183.641c0.75-1.011,0.88-3.109,2.17-3.391c0.561,1.32-0.561,2.54-1.05,3.689c0.56,0.029,1.67,0.091,2.229,0.131
	c-0.351,2.279,1.01,5.43-1.431,6.858c-2.819,0.462-7.149,0.58-6.771-3.438C206.35,186.1,207.779,184.55,209.67,183.641z"/>
<path d="M104.98,190c11.01,0,22.02,0,33.02,0v1c-11,0-21.99,0-32.99,0L104.98,190z"/>
</svg>
