<?xml version="1.0" encoding="utf-8"?>
<!-- Generator: Adobe Illustrator 15.0.2, SVG Export Plug-In . SVG Version: 6.00 Build 0)  -->
<!DOCTYPE svg PUBLIC "-//W3C//DTD SVG 1.1//EN" "http://www.w3.org/Graphics/SVG/1.1/DTD/svg11.dtd">
<svg version="1.1" id="Layer_1" xmlns="http://www.w3.org/2000/svg" xmlns:xlink="http://www.w3.org/1999/xlink" x="0px" y="0px"
	 width="139px" height="130px" viewBox="0 0 139 130" enable-background="new 0 0 139 130" xml:space="preserve">
<path fill="#FFFFFF" d="M0,0h139v130H0V0 M57.08,3.02c0.73,0.56,1.45,1.12,2.17,1.68c9.66-1.74,19.59-1.3,29.23,0.34
	c-3.82,1.38-7.852,2.14-11.92,2.06c0.028,2.03,1.479,1.91,3.02,1.53c5.359,0.61,10.74,1.68,15.57,4.17
	c0.92,1.72,2.42,3.13,4.51,3.02l0.17-0.03c0.25,0.57,0.74,1.71,0.99,2.28c-4.24-2.53-9.09-3.67-13.62-5.56
	c-0.61,0.48-1.22,0.96-1.83,1.44c4.38,0.54,8.33,2.61,12.29,4.4c3.41,1.52,6.061,4.33,9.529,5.7c-0.08,0.54-0.16,1.09-0.239,1.63
	c-0.011-0.33-0.03-1.01-0.04-1.35c-5.04-2.42-9.84-5.37-15.17-7.16l0.029-0.25c-5.379-1.76-10.979-3.04-16.641-3.44
	c5.471,2.1,11.07,4.04,16.021,7.26c-3.51-0.24-6.69-1.85-10.121-2.45c-2.51,0.21-5.039,0.38-7.539-0.08c2.42,1.81,5,3.45,7.81,4.6
	c3.16,1.8,6.341,3.57,9.71,4.97c-3.59-0.57-6.57-2.82-10.01-3.86c-4.57-1.52-9.189-3.01-13.45-5.3c0,0.11-0.01,0.33-0.01,0.44
	c6.19,4.21,12.79,7.83,19.45,11.24c2.57,0.02,4.779,1.3,6.949,2.53c-1.859-0.33-4.101,0.27-5.561-1.22
	c-5.42-1.41-10.71-3.27-15.87-5.42c-3.76-1.77-7.6-3.34-11.38-5.05c2.99,3.16,6.16,6.21,9.842,8.57
	c-0.592-0.12-1.771-0.37-2.362-0.49c-0.29,0.4-0.85,1.19-1.14,1.58l-0.22-0.64l-0.05-0.89c-0.66-2.57-3.46-3.61-5.81-4.07
	c-0.4,1.03-0.78,2.07-1.15,3.11c-3.38-2.83-7.54-5.16-9.67-9.15l-0.98,1.2c-0.54-0.04-1.61-0.11-2.15-0.15
	c-0.94,1.88-2.1,3.64-3.26,5.39c-0.78-0.17-1.56-0.34-2.34-0.51c-0.39,1.11-0.74,2.24-1.28,3.29l0.07-2.62
	c-2.56,0.73-4.18,2.99-6.01,4.75c0.03-0.37,0.1-1.11,0.13-1.479c3.03-2.97,7.12-4.812,9.34-8.59c-6.39,1.31-11.12,6.52-15.51,11.02
	c-0.54-3.09-2.94,0.52-4.39,0.93c2.82-4.82,6.81-8.84,11.13-12.31l0.5-1.1c0.14,0.27,0.43,0.83,0.57,1.11
	c0.61-1.2,1.19-2.41,1.75-3.63c0.62-0.15,1.85-0.45,2.46-0.6l-2.09,1.39c1.89,1.81,3.71-0.89,5.44-1.61
	c-0.78,0.01-2.35,0.03-3.14,0.04c0.48-0.45,1.42-1.34,1.9-1.79c-1.64-0.44-3.28-0.86-4.91-1.3c0.56-0.05,1.69-0.15,2.25-0.2
	c5.31-3.78,11.39-6.56,17.91-7.36c-0.74-0.6-1.48-1.21-2.21-1.812c-5.76,0.96-10.8,4.03-15.61,7.18c-3.37-0.09-7.03-1.1-10.09,0.85
	c-5.09,2.91-10.24,6.09-13.83,10.83c-2.66,3.48-5.44,6.9-7.81,10.57c-1.46,1.27-2.3,3.03-3.25,4.68c-0.65,2.8-3.41,6.19-0.82,8.71
	l-0.6-0.28c-1.11,5.96-3.79,12.43-1.07,18.35c0.61-4.36,0.9-8.77,1.85-13.08c0.07,0.86,0.22,2.59,0.3,3.45
	C3.19,63.85,2.51,73.62,4.37,83c-0.46,2.38,1,4.84,2.64,6.5c0.15-3.109-0.84-6.1-1.05-9.17c1.42,1.32,2.28,3.061,3.13,4.77
	c1.78,4.95,2.57,10.182,4.35,15.131c0.32,0.84,0.99,1.319,2.02,1.431c1.06,6.06,2.09,12.108,3.09,18.18
	c0.27-0.028,0.81-0.08,1.07-0.1c-0.21-4.25-0.66-8.48-0.87-12.73c-0.19-3.489-1.43-6.909-0.97-10.43c0.82,1.729,1.6,3.489,2.52,5.17
	c0,2.569,0.1,5.142,0.44,7.688c0.79,5.521,0.08,11.121,0.65,16.66c1.98-6.58,1.38-13.47,1.32-20.229
	c2.04,2.738,2.68,6.229,2.28,9.58c0.04,2.369,0.91,4.64,1.58,6.898c0.99-3.17-0.45-6.77,1.55-9.64c0.47,0.32,1.43,0.96,1.91,1.271
	c-0.48-1.461-0.98-2.92-1.48-4.371l-0.47,0.58c-0.27-1.448-0.54-2.908-0.82-4.358l-0.4,0.239c0.8-1.609-3.12-5.021-0.09-4.92
	c0.1-3.199-1.34-6.101-2.4-9.029c1.66,3.311,3.59,6.8,2.98,10.66l1.47-0.07l-0.73,0.42c2.92,7.262,4.22,15.12,7.8,22.11
	c-0.24-5.5-1.74-10.841-2.43-16.28c3.06,5.03,2.89,11.37,5.9,16.311c-0.78-8.449-3.3-16.689-6.75-24.42
	c-1.45-5.41-3.64-10.609-4.67-16.141c4.03,4.682,7.59,9.95,12.79,13.46c5.64,3.84,11.58,7.261,17.79,10.12
	c7.59,3.141,15.669,4.79,23.53,7.09c8.11,1.99,16.8,3.61,24.979,1.04c5.229-2.05,8.871-6.989,10.451-12.25
	c0.35-0.21,1.06-0.63,1.41-0.84c0.01,4.729,0.969,9.399,2.648,13.819c-0.03-2.189-0.141-4.381-0.17-6.569
	c0.59,0.569,1.779,1.71,2.37,2.278c-0.15-1.479-0.29-2.959-0.421-4.438l1.479,0.222c-0.11-2.632-0.271-5.271-0.38-7.9
	c3.52,3.949,3.189,10.07,6.26,14.449c-0.209-4.181-1.27-8.239-1.82-12.379c0.461-0.842,0.972-1.642,1.541-2.41
	c-0.01-8.78-2.221-17.82,0.779-26.36c0.33-1.59,0.551-3.2,0.69-4.81c0.489-0.94,0.979-1.881,1.47-2.812
	c1.96-5.17,3.99-10.67,2.6-16.25c-1.549-7.38-4.039-14.63-7.89-21.13c-3.67-4.32-5.86-9.95-10.67-13.23
	c-3.92-3.01-7.88-6.41-12.8-7.6l-0.09-0.53c-8.35-2.29-16.631-5.57-25.43-5.48C71.74,1.18,64.38,2.21,57.08,3.02 M71.92,11
	c4.57,0.72,9.15,1.41,13.59,2.78c-0.119-0.55-0.35-1.64-0.46-2.18C80.68,11.27,76.29,10.05,71.92,11 M56.41,23.25
	c0.11,1.23,1.42,2.13,2.31,2.88c0.97,0.08,1.41-0.34,1.31-1.26C59.03,24.08,57.77,22.98,56.41,23.25 M28.27,115.28
	C28.82,115.77,28.82,115.77,28.27,115.28z"/>
<path fill="#070707" d="M57.08,3.02c7.3-0.81,14.66-1.84,21.98-0.82c8.799-0.09,17.08,3.19,25.43,5.48l0.09,0.53
	c4.92,1.19,8.88,4.59,12.8,7.6c4.81,3.28,7,8.91,10.67,13.23c3.851,6.5,6.341,13.75,7.89,21.13c-1.25-0.73-2.51-1.46-3.76-2.19
	c-0.938-7.36-3.09-14.69-6.938-21.08c-1.66-2.94-3.479-5.88-6.222-7.94C109.93,12.33,99.68,6.92,88.48,5.04
	C78.84,3.4,68.91,2.96,59.25,4.7C58.53,4.14,57.81,3.58,57.08,3.02z"/>
<path fill="#070707" d="M40.14,10.4c4.81-3.15,9.85-6.22,15.61-7.18c0.73,0.6,1.47,1.21,2.21,1.812c-6.52,0.8-12.6,3.58-17.91,7.36
	c-0.56,0.05-1.69,0.15-2.25,0.2c1.63,0.44,3.27,0.86,4.91,1.3c-0.48,0.45-1.42,1.34-1.9,1.79c0.79-0.01,2.36-0.03,3.14-0.04
	c-1.73,0.72-3.55,3.42-5.44,1.61l2.09-1.39c-0.61,0.15-1.84,0.45-2.46,0.6c-1.26,0.31-2.51,0.65-3.76,1.01
	c0.09-0.62,0.27-1.86,0.36-2.479c-2.56,1.13-5.23,1.99-7.82,3.06c-6.4,3.34-9.42,10.23-12.42,16.38c0.93-0.79,2.81-2.36,3.75-3.14
	c-2.43,5.69-5.69,11.13-6.86,17.28c-4.53,8.21-0.47,17.66-1.29,26.4c-0.61,5.709,1.08,11.271,1.71,16.899l2.12-0.37l0.28-0.05
	c0.22,1.319,0.41,2.64,0.7,3.94l-1.95-0.65c0.13,1.83,0.25,3.67,0.48,5.49C11.66,95.28,10.87,90.05,9.09,85.1
	C7.79,79.359,8.68,73.4,7.51,67.65c-0.12,2.14-0.16,4.289-0.24,6.438C5.87,76.91,5.25,80,4.37,83c-1.86-9.38-1.18-19.15,0.45-28.52
	c1.04-2.56,1.22-5.32,0.46-7.98C6,41.78,9.23,37.63,8.41,32.65c2.37-3.67,5.15-7.09,7.81-10.57c3.59-4.74,8.74-7.92,13.83-10.83
	C33.11,9.3,36.77,10.31,40.14,10.4z"/>
<path fill="#DEDEDE" d="M88.48,5.04c11.199,1.88,21.449,7.29,30.539,13.92c2.739,2.06,4.561,5,6.221,7.94
	c3.85,6.39,6,13.72,6.939,21.08c0.021,0.51,0.061,1.53,0.079,2.04c-0.46-5.65-3.069-10.76-5.198-15.92
	c-5.44-11.76-15.99-21.13-28.512-24.66c-0.561-0.03-1.67-0.09-2.22-0.12c4.68,2.36,9.229,4.95,13.729,7.65
	c-2.201-0.85-4.431-1.65-6.689-2.31c2.279,2.75,5.3,4.73,7.859,7.19c-2.819-1.57-5.479-3.42-8.08-5.34
	c-0.58,0.47-1.16,0.94-1.729,1.42l1.53,1.46c-0.53-0.33-1.592-0.99-2.131-1.32c-0.25-0.57-0.739-1.71-0.989-2.28
	c-0.03-0.08-0.091-0.24-0.12-0.31l-0.05,0.34c-2.091,0.11-3.591-1.3-4.511-3.02c3.141,1.2,6.33,2.28,9.511,3.35
	c-2.4-2.93-6.16-3.89-9.562-5.12c-4.979-1.64-10.22-3.32-15.52-2.4c-1.54,0.38-2.99,0.5-3.02-1.53C80.63,7.18,84.66,6.42,88.48,5.04
	 M86.811,7.24c2.689,0.6,5.771,1.979,8.271,1.56C92.98,6.88,89.529,7.23,86.811,7.24z"/>
<path fill="#373737" d="M86.811,7.24c2.719-0.01,6.17-0.36,8.271,1.56C92.58,9.22,89.5,7.84,86.811,7.24z"/>
<path fill="#151515" d="M79.58,8.63c5.3-0.92,10.54,0.76,15.52,2.4c3.4,1.229,7.16,2.188,9.562,5.12
	c-3.181-1.07-6.37-2.15-9.511-3.35C90.32,10.31,84.939,9.24,79.58,8.63z"/>
<path fill="#030303" d="M96.33,9.32c0.55,0.03,1.66,0.09,2.22,0.12c12.521,3.53,23.07,12.9,28.511,24.66
	c2.129,5.16,4.739,10.27,5.199,15.92c0.6,6.41,0.35,12.83-0.39,19.21c-0.14,1.608-0.36,3.22-0.69,4.81
	c-0.479-1.78-1.07-3.53-1.67-5.271c-1.66,6.311-0.939,12.851-1.029,19.279c0.109,1.631-0.41,3.19-1.311,4.551
	c-0.68-3.841-0.939-7.74-1.66-11.58c-0.17,3.811,0.1,7.711-1.109,11.381c-1.051,3.09-1.461,6.33-1.601,9.568
	c-0.579-0.648-1.17-1.3-1.75-1.949c-0.21,0.979-0.42,1.971-0.62,2.949c-0.109-0.77-0.33-2.318-0.438-3.09
	c-0.761,0.891-1.511,1.78-2.261,2.67c-0.061,0.41-0.189,1.221-0.25,1.62c-1.58,5.261-5.221,10.2-10.451,12.25
	c-8.18,2.57-16.868,0.95-24.979-1.04c-7.859-2.3-15.94-3.949-23.53-7.09c-6.21-2.859-12.15-6.28-17.79-10.12
	c-5.2-3.51-8.76-8.778-12.79-13.46c1.03,5.53,3.22,10.729,4.67,16.141c-0.25,1.34-0.52,2.67-0.8,4.01
	c-0.61-0.739-1.22-1.469-1.85-2.199c-0.28,0.01-0.85,0.04-1.14,0.05l-1.47,0.07c0.61-3.86-1.32-7.351-2.98-10.66
	c1.06,2.93,2.5,5.83,2.4,9.03c-3.03-0.102,0.89,3.31,0.09,4.92c-0.41,0.24-1.22,0.729-1.63,0.97c-0.94-3.479-1.59-7.28-4.29-9.91
	c0.15,2.32,0.41,4.63,0.7,6.931c-0.45-0.761-0.9-1.529-1.34-2.311c-0.92-1.68-1.7-3.439-2.52-5.17c-0.45-0.96-0.88-1.93-1.31-2.9
	c-0.13,0.9-0.39,2.69-0.52,3.58c-0.26-0.47-0.78-1.4-1.04-1.869c-0.29-1.301-0.48-2.621-0.7-3.939l-0.28,0.05
	c-2.25-10.03-2.91-20.33-2.75-30.59c0.41-4.17,1.38-8.31,1.06-12.54c1.96-6.03,5.83-11.24,9.82-16.08c0.25,0.29,0.75,0.87,1,1.16
	c-3.28,4.28-6.41,8.98-6.92,14.5c0.66-1.51,1.3-3.04,1.98-4.55c0.76,1.62,1.46,3.27,2.14,4.93c0.52-0.39,1.55-1.17,2.07-1.56
	c-0.02,0.35-0.04,1.07-0.05,1.43c-3.9,1.99-5.08,7.12-4.03,11.06c0.7-1.62,1.39-3.24,2.08-4.87c0.15,0.49,0.45,1.46,0.6,1.94
	c-0.5,4.13-1.44,8.24-1.19,12.42c2.67-4.77,2.24-10.53,4.4-15.52c0.77-2.22,2.32-4.77,0.31-6.82c1.73-3.14,3.87-6.05,6.71-8.28
	c2.46-1.74,2.84-4.9,3.46-7.62c1.83-1.76,3.45-4.02,6.01-4.75l-0.07,2.62c0.54-1.05,0.89-2.18,1.28-3.29
	c0.78,0.17,1.56,0.34,2.34,0.51c1.16-1.75,2.32-3.51,3.26-5.39c0.54,0.04,1.61,0.11,2.15,0.15c-0.52,0.61-1.03,1.23-1.55,1.83
	c0.22,0.28,0.66,0.84,0.88,1.12c-2.3,5.78-5.7,11.15-9.87,15.76c-2.19,2.58-6.24,2.94-7.76,6.16c-4.04,6.82-4.33,15.04-4.66,22.75
	c0.62,5.449-0.44,11.551,2.89,16.301c4.2,7.26,10.33,13.56,17.98,17.158c9.09,4.32,18.12,9.11,28.021,11.352
	c10.229,2.58,21.17,6.24,31.609,2.641c3.512-1.021,5.32-4.381,6.979-7.341c1.531-2.938,3.17-5.92,3.802-9.21
	c1.729-10.1,0.76-20.58,3.868-30.449c1.041-2.83,2.861-5.371,3.41-8.391c-0.17-5.52-4.068-9.74-6.64-14.31
	c1.229,3.32,2.021,6.77,3.03,10.16c-4.359-5.78-9-11.74-15.7-14.91c-1.771-1.18-3.42-2.59-5.409-3.37
	c-9.351-2.94-19-5.21-27.801-9.67c-0.04-0.43-0.12-1.31-0.16-1.75c5.16,2.15,10.45,4.01,15.87,5.42c1.46,1.49,3.7,0.89,5.56,1.22
	c-2.17-1.23-4.379-2.51-6.948-2.53c-6.66-3.41-13.261-7.03-19.45-11.24c0-0.11,0.01-0.33,0.01-0.44c4.262,2.29,8.881,3.78,13.45,5.3
	c3.438,1.04,6.42,3.29,10.011,3.86c-3.369-1.4-6.551-3.17-9.711-4.97c2.79-0.63,5.641-0.26,8.4,0.36c0,0.35-0.012,1.03-0.012,1.37
	c4.381,0.93,8.781,1.89,13,3.45c-1.379-1.32-2.66-2.74-3.719-4.33c-2.641-1.32-5.291-2.71-7.471-4.74
	c0.061-0.44,0.18-1.32,0.24-1.75c5.33,1.79,10.13,4.74,15.17,7.16c0.01,0.34,0.029,1.02,0.04,1.35c0.079-0.54,0.159-1.09,0.239-1.63
	c-3.469-1.37-6.119-4.18-9.529-5.7c-3.96-1.79-7.91-3.86-12.29-4.4c0.61-0.48,1.22-0.96,1.83-1.44c4.53,1.89,9.38,3.03,13.62,5.56
	c0.539,0.33,1.6,0.99,2.13,1.32l-1.53-1.46c0.57-0.48,1.15-0.95,1.73-1.42c2.6,1.92,5.26,3.771,8.08,5.34
	c-2.562-2.46-5.58-4.44-7.86-7.19c2.26,0.66,4.489,1.46,6.69,2.31C105.561,14.27,101.01,11.68,96.33,9.32 M13.98,61.42l-0.6,0.27
	c-0.25,2.78-0.23,5.57-0.01,8.36c0.32-1.43,0.65-2.85,0.99-4.28c0.52,1.7,0.92,3.432,1.25,5.17c1.75-3.959,1.54-8.22-0.26-12.12
	c0.47-1.57,0.86-3.17,1.18-4.79C14.2,55.67,14.7,58.99,13.98,61.42 M125.27,67.311c-0.959,1.129-1.35,3.049-0.64,4.391
	C126.641,72.32,127.04,67.59,125.27,67.311 M19.25,69.76c-0.72,8.44,0.31,16.95,2.4,25.141c-0.05-6.01-1.7-11.891-1.54-17.92
	C19.99,74.58,20.82,71.859,19.25,69.76z"/>
<path fill="#373737" d="M71.92,11c4.37-0.95,8.76,0.27,13.13,0.6c0.11,0.54,0.341,1.63,0.46,2.18C81.07,12.41,76.49,11.72,71.92,11z
	"/>
<path fill="#323232" d="M75.13,13.48c5.66,0.4,11.261,1.68,16.64,3.44l-0.028,0.25c-0.062,0.43-0.181,1.31-0.24,1.75
	c2.181,2.03,4.83,3.42,7.472,4.74c1.059,1.59,2.34,3.01,3.719,4.33c-4.219-1.56-8.619-2.521-13-3.45c0-0.34,0.011-1.02,0.011-1.37
	c-2.761-0.62-5.61-0.99-8.4-0.36c-2.81-1.15-5.39-2.79-7.81-4.6c2.5,0.46,5.029,0.29,7.539,0.08c3.431,0.6,6.611,2.21,10.121,2.45
	C86.2,17.52,80.6,15.58,75.13,13.48z"/>
<path fill="#454545" d="M26.92,18.05c2.59-1.07,5.26-1.93,7.82-3.06c-0.09,0.62-0.27,1.86-0.36,2.479
	c-3.18,1.45-6.29,3.03-9.49,4.43C25.54,20.6,26.22,19.32,26.92,18.05z"/>
<path fill="#202020" d="M99.71,15.48c0.03,0.07,0.09,0.23,0.12,0.31l-0.17,0.03L99.71,15.48z"/>
<path fill="#DEDEDE" d="M34.38,17.47c1.25-0.36,2.5-0.7,3.76-1.01c-0.56,1.22-1.14,2.43-1.75,3.63c-0.14-0.28-0.43-0.84-0.57-1.11
	c-5.58,3.31-9.73,8.34-13.76,13.31c-3.99,4.84-7.86,10.05-9.82,16.08c-0.3,0.9-0.61,1.79-0.92,2.68c0.02-0.62,0.06-1.86,0.07-2.48
	c1.17-6.15,4.43-11.59,6.86-17.28c-0.94,0.78-2.82,2.35-3.75,3.14c3-6.15,6.02-13.04,12.42-16.38c-0.7,1.27-1.38,2.55-2.03,3.85
	C28.09,20.5,31.2,18.92,34.38,17.47z"/>
<path fill="#262626" d="M22.06,32.29c4.03-4.97,8.18-10,13.76-13.31l-0.5,1.1c-4.32,3.47-8.31,7.49-11.13,12.31
	c1.45-0.41,3.85-4.02,4.39-0.93c-0.59,1.28-1.16,2.57-1.69,3.89c0.27,0.47,0.81,1.43,1.08,1.91c-1.72,3.26-3.3,6.63-5.64,9.51
	c-0.52,0.39-1.55,1.17-2.07,1.56c-0.68-1.66-1.38-3.31-2.14-4.93c1.44-3.27,3.73-6.05,5.74-8.97c-0.2-0.25-0.6-0.74-0.8-0.98
	C22.81,33.16,22.31,32.58,22.06,32.29z"/>
<path fill="#0A0A0A" d="M49.59,20.36l0.98-1.2c2.13,3.99,6.29,6.32,9.67,9.15c3.42,2.5,7.14,4.89,11.49,5.22
	c-0.461,0.11-1.371,0.32-1.832,0.43c0.701,0.82,1.419,1.64,2.1,2.49c0.108,0.21,0.351,0.65,0.46,0.86
	c0.311,0.72,0.92,2.16,1.229,2.88C73.2,40,72.23,39.62,71.74,39.42c-3.44-1.31-6.42-3.55-9.83-4.92
	c-5.73,0.64-10.98,3.52-16.03,6.19c-0.29,1.04-0.54,2.1-0.72,3.17c5.71-1,11.55-0.92,17.27-0.06c4.48,0.76,7.81,4.16,10.4,7.66
	c-1.551,0.43-3.11,0.86-4.7,1.13c0.08,0.31,0.23,0.91,0.31,1.21c-0.63-1.06-1.52-1.79-2.65-2.21c-4.66-1.92-9.75-2.78-14.77-2.17
	c-5.94,0.71-11.93,0.07-17.75-1.19c0.04-0.18,0.12-0.55,0.16-0.74c4.21,2.56,8.25-1.07,11.46-3.54c-0.63-0.5-1.24-1.01-1.86-1.52
	c5.42-4.11,11.73-6.68,18.24-8.51c-4.5-3.04-9.14-6.13-12.35-10.61c-0.22-0.28-0.66-0.84-0.88-1.12
	C48.56,21.59,49.07,20.97,49.59,20.36 M61.19,44.31c-0.31,1.58-0.59,3.16-0.86,4.74c3.74,0.69,7.26,2.88,11.141,2.41
	C69.43,47.6,65.41,45.12,61.19,44.31 M43.76,48.98c2.69,0,5.36-0.27,8.02-0.58c-0.14-0.75-0.41-2.25-0.55-3
	C48.64,46.34,45.89,47.13,43.76,48.98z"/>
<path fill="#191919" d="M28.58,31.46c4.39-4.5,9.12-9.71,15.51-11.02c-2.22,3.78-6.31,5.62-9.34,8.59
	c-0.03,0.37-0.1,1.11-0.13,1.479c-0.62,2.72-1,5.88-3.46,7.62c-2.84,2.23-4.98,5.14-6.71,8.28c2.01,2.05,0.46,4.6-0.31,6.82
	l-0.04-1.75c-1.12,1.57-2.2,3.18-3.17,4.85c-0.15-0.48-0.45-1.45-0.6-1.94c0.74-2.03,2.17-3.92,1.95-6.19
	c0.01-0.36,0.03-1.08,0.05-1.43c2.34-2.88,3.92-6.25,5.64-9.51c0.92-1.21,1.75-2.52,2.05-4.03c-1.17,0.47-2.37,1.05-3.13,2.12
	C27.42,34.03,27.99,32.74,28.58,31.46z"/>
<path fill="#2B2B2B" d="M61.13,21.14c3.78,1.71,7.62,3.28,11.38,5.05c0.04,0.44,0.12,1.32,0.16,1.75l0.04,0.32
	c0.03,0.22,0.09,0.66,0.12,0.88c2.57,4.03,8.26,6.36,12.93,5.19c4.94,0.93,9.65,3,14.711,3.28c1.989,0.78,3.639,2.19,5.409,3.37
	c-3.601-0.5-7.101-1.52-10.69-2.1c-6.91-0.05-13.52-2.06-20.33-2.87c1.771,0.82,3.611,1.53,5.25,2.59l1.07,1.36
	c-1.77-0.39-3.529-0.82-5.279-1.29c-1.141-0.46-2.291-0.91-3.439-1.36c-0.109-0.21-0.352-0.65-0.46-0.86
	c-0.681-0.85-1.399-1.67-2.1-2.49c0.458-0.11,1.371-0.32,1.832-0.43c-4.352-0.33-8.07-2.72-11.49-5.22
	c0.37-1.04,0.75-2.08,1.15-3.11c2.35,0.46,5.15,1.5,5.81,4.07l0.05,0.89l0.22,0.64c0.29-0.39,0.85-1.18,1.14-1.58
	c0.59,0.12,1.77,0.37,2.361,0.49C67.29,27.35,64.12,24.3,61.13,21.14 M63.35,27.21C63.9,27.79,63.9,27.79,63.35,27.21z"/>
<path fill="#1A1A1A" d="M56.41,23.25c1.36-0.27,2.62,0.83,3.62,1.62c0.1,0.92-0.34,1.34-1.31,1.26
	C57.83,25.38,56.52,24.48,56.41,23.25z"/>
<path fill="#FEFEFE" d="M39.05,39.07c4.17-4.61,7.57-9.98,9.87-15.76c3.21,4.48,7.85,7.57,12.35,10.61
	c-6.51,1.83-12.82,4.4-18.24,8.51c0.62,0.51,1.23,1.02,1.86,1.52c-3.21,2.47-7.25,6.1-11.46,3.54c-0.04,0.19-0.12,0.56-0.16,0.74
	c5.82,1.26,11.81,1.9,17.75,1.19c5.02-0.61,10.11,0.25,14.77,2.17c1.13,0.42,2.02,1.15,2.65,2.21c-0.08-0.3-0.23-0.9-0.31-1.21
	c1.59-0.27,3.149-0.7,4.7-1.13c-2.59-3.5-5.92-6.9-10.4-7.66c-5.72-0.86-11.56-0.94-17.27,0.06c0.18-1.07,0.43-2.13,0.72-3.17
	c5.05-2.67,10.3-5.55,16.03-6.19c3.41,1.37,6.39,3.61,9.83,4.92c-0.16,0.92-0.48,2.77-0.641,3.69c0.471-0.95,0.939-1.89,1.409-2.84
	c0.841,0.24,2.521,0.74,3.36,0.98c1.87,0.5,3.79,0.81,5.699,1.12c-0.619-0.55-1.85-1.66-2.471-2.22c0.93,0.05,1.86,0.1,2.801,0.15
	c1.301,0.1,2.601,0.24,3.91,0.38c-0.631-0.53-1.891-1.58-2.521-2.11c3.96,0.33,7.931,0.32,11.899,0.31
	c3.59,0.58,7.09,1.6,10.689,2.1c6.7,3.17,11.341,9.13,15.7,14.91c-1.011-3.39-1.802-6.84-3.03-10.16
	c2.57,4.57,6.471,8.79,6.641,14.31c-0.549,3.02-2.369,5.56-3.41,8.39c-3.109,9.87-2.139,20.352-3.869,30.45
	c-0.631,3.29-2.27,6.271-3.801,9.21c-1.659,2.96-3.469,6.32-6.979,7.34c-10.44,3.602-21.38-0.06-31.61-2.64
	c-9.898-2.24-18.93-7.03-28.02-11.351c-7.65-3.601-13.78-9.899-17.98-17.159c-3.33-4.75-2.27-10.851-2.89-16.3
	c0.33-7.71,0.62-15.932,4.66-22.75C32.81,42.01,36.86,41.65,39.05,39.07 M87.34,42.06c-0.439,1.87-0.63,3.78-0.779,5.69
	c0.199-0.06,0.601-0.19,0.799-0.26C87.38,45.68,87.391,43.87,87.34,42.06 M93.74,46.86c-2.86,1.19-4.99,3.49-7.07,5.69
	c-1,4.57,2.359,8.24,5.59,10.91c-1.59,2.22-3.5,4.24-4.699,6.72c1.42,1.631,1.91-1,2.699-1.82c0.93-1.84,4.131-4.479,1.7-6.35
	c-2.37-2.37-5.84-5.36-4.17-9.09c0.5,0.23,1.479,0.7,1.97,0.93c-0.119-0.48-0.359-1.44-0.48-1.92c4.58-0.51,9.302-0.62,13.592-2.5
	c1.908-0.62,4.699-2.49,5.729,0.25c0.01-1.1,0.021-2.19,0.03-3.29l-0.29-0.01c-0.98,2.91-3.52-0.49-5.311-0.95
	C99.939,46,96.6,45.3,93.74,46.86 M32.17,57.15c-0.49,1.79-1.73,4.44,0.4,5.63c1.77,6.909,5.83,12.979,10.35,18.39
	c8.97,8.91,21.6,13.21,33.99,14.29c6.949,1.03,14.061,1.55,21.02,0.351c3.91-0.601,8.16-0.939,11.381-3.49
	c2.449-3.551,2.029-8.141,1.989-12.25c-0.271-4.789,0.47-9.561,1.44-14.239c0.06-1.79,1.74-2.26,3.189-2.53
	c-0.381-4.09-3.921-0.3-5.359,0.87c0.18,0.44,0.539,1.31,0.709,1.74c-2.889,2.62-5.68,5.569-9.379,7.01
	c-3.99,1.82-8.49,1.3-12.621,2.58c-3.149,0.92-6.149-0.96-9.26-1.22c-4.609-1.051-9.41-0.19-13.979-1.41
	c-7.59-1.852-15.53-3.352-22.12-7.82c-2.79-1.91-5.86-3.53-8.13-6.1C34.92,57.81,33.42,57.64,32.17,57.15 M65.98,67.76
	c0.87,0.381,1.74,0.73,2.62,1.061c-1.34-1.801-1.78-3.829-0.96-5.969C66.55,64.26,65.28,65.859,65.98,67.76 M72,67.51
	c2.2,1.15,4.09-0.83,6.17-1.33C75.971,65.12,73.859,66.359,72,67.51 M56.18,94.67c7.64,3.95,15.66,7.58,24.28,8.641
	c8.3,0.721,17.101,2.67,25.021-1.021c3.91-1.29,6.619-4.64,8.261-8.28c-2.642,3-5.091,6.57-9.181,7.67
	c-9.711,2.57-19.891,1.03-29.59-0.8C68.46,99.641,62.57,96.24,56.18,94.67z"/>
<path fill="#ACACAC" d="M63.35,27.21C63.9,27.79,63.9,27.79,63.35,27.21z"/>
<path fill="#DEDEDE" d="M72.71,28.26l-0.04-0.32c8.801,4.46,18.45,6.73,27.801,9.67c-5.061-0.28-9.771-2.35-14.711-3.28
	c-4.42-1.44-8.67-3.34-12.93-5.19C72.8,28.92,72.74,28.48,72.71,28.26z"/>
<path fill="#010101" d="M72.83,29.14c4.26,1.85,8.51,3.75,12.93,5.19C81.09,35.5,75.4,33.17,72.83,29.14z"/>
<path fill="#727272" d="M5.16,37.33c0.95-1.65,1.79-3.41,3.25-4.68C9.23,37.63,6,41.78,5.28,46.5l-0.94-0.46
	C1.75,43.52,4.51,40.13,5.16,37.33z"/>
<path fill="#484848" d="M26.89,35.35c0.76-1.07,1.96-1.65,3.13-2.12c-0.3,1.51-1.13,2.82-2.05,4.03
	C27.7,36.78,27.16,35.82,26.89,35.35z"/>
<path fill="#727272" d="M16.14,47.95c0.51-5.52,3.64-10.22,6.92-14.5c0.2,0.24,0.6,0.73,0.8,0.98c-2.01,2.92-4.3,5.7-5.74,8.97
	C17.44,44.91,16.8,46.44,16.14,47.95z"/>
<path fill="#949494" d="M74.859,36.01c6.811,0.81,13.42,2.82,20.33,2.87c-3.969,0.01-7.939,0.02-11.899-0.31
	c0.63,0.53,1.89,1.58,2.521,2.11C84.5,40.54,83.2,40.4,81.9,40.3c-0.58-0.58-1.18-1.15-1.791-1.7
	C78.471,37.54,76.63,36.83,74.859,36.01z"/>
<path fill="#8C8C8C" d="M72.46,37.31c1.149,0.45,2.3,0.9,3.44,1.36c0.77,0.82,1.51,1.65,2.25,2.49c-0.57,0.03-1.711,0.07-2.28,0.09
	c-0.841-0.24-2.521-0.74-3.36-0.98c-0.47,0.95-0.939,1.89-1.41,2.84c0.16-0.92,0.48-2.77,0.642-3.69c0.489,0.2,1.46,0.58,1.948,0.77
	C73.38,39.47,72.77,38.03,72.46,37.31z"/>
<path fill="#DEDEDE" d="M80.109,38.6c0.611,0.55,1.211,1.12,1.791,1.7c-0.94-0.05-1.871-0.1-2.801-0.15
	c0.621,0.56,1.851,1.67,2.471,2.22c-1.91-0.31-3.83-0.62-5.7-1.12c0.569-0.02,1.71-0.06,2.28-0.09c-0.74-0.84-1.48-1.67-2.25-2.49
	c1.75,0.47,3.51,0.9,5.279,1.29L80.109,38.6z"/>
<path fill="#727272" d="M87.34,42.06c0.051,1.81,0.04,3.62,0.02,5.43c-0.198,0.07-0.6,0.2-0.799,0.26
	C86.71,45.84,86.9,43.93,87.34,42.06z"/>
<path fill="#F6F6F6" d="M61.19,44.31c4.22,0.81,8.24,3.29,10.281,7.15c-3.881,0.47-7.401-1.72-11.141-2.41
	C60.6,47.47,60.88,45.89,61.19,44.31z"/>
<path fill="#010101" d="M93.74,46.86c2.859-1.56,6.199-0.86,9.289-1.43c1.791,0.46,4.33,3.86,5.311,0.95l0.29,0.01
	c-0.01,1.1-0.021,2.19-0.03,3.29c-1.029-2.74-3.82-0.87-5.729-0.25c-4.29,1.88-9.012,1.99-13.592,2.5
	c0.121,0.48,0.361,1.44,0.48,1.92c-0.49-0.23-1.47-0.7-1.97-0.93c-1.67,3.73,1.8,6.72,4.17,9.09c2.431,1.87-0.771,4.51-1.7,6.35
	c-0.789,0.82-1.279,3.451-2.699,1.82c1.199-2.479,3.109-4.5,4.699-6.72c-3.23-2.67-6.59-6.34-5.59-10.91
	C88.75,50.35,90.88,48.05,93.74,46.86 M95.18,46.8c-0.688,1.32-1.39,2.62-2.1,3.92c2.96-0.24,5.93-0.82,8.35-2.68
	C99.55,46.81,97.34,46.77,95.18,46.8z"/>
<path fill="#2B2B2B" d="M3.74,45.76l0.6,0.28l0.94,0.46c0.76,2.66,0.58,5.42-0.46,7.98c-0.08-0.86-0.23-2.59-0.3-3.45
	c-0.95,4.31-1.24,8.72-1.85,13.08C-0.05,58.19,2.63,51.72,3.74,45.76z"/>
<path fill="#FEFEFE" d="M43.76,48.98c2.13-1.85,4.88-2.64,7.47-3.58c0.14,0.75,0.41,2.25,0.55,3
	C49.12,48.71,46.45,48.98,43.76,48.98z"/>
<path fill="#EEEEEE" d="M95.18,46.8c2.16-0.03,4.37,0.01,6.25,1.24c-2.42,1.86-5.39,2.44-8.35,2.68
	C93.79,49.42,94.49,48.12,95.18,46.8z"/>
<path fill="#373737" d="M132.18,47.98c1.25,0.73,2.51,1.46,3.76,2.19c1.392,5.58-0.64,11.08-2.6,16.25
	c-0.49,0.93-0.98,1.87-1.47,2.811c0.739-6.379,0.989-12.799,0.39-19.209C132.24,49.51,132.2,48.49,132.18,47.98z"/>
<path fill="#2E2E2E" d="M10.1,74.97c0.82-8.739-3.24-18.188,1.29-26.4c-0.01,0.62-0.05,1.86-0.07,2.48
	c0.31-0.89,0.62-1.78,0.92-2.68c0.32,4.23-0.65,8.37-1.06,12.54c-0.16,10.26,0.5,20.56,2.75,30.59l-2.12,0.37
	C11.18,86.24,9.49,80.68,10.1,74.97z"/>
<path fill="#373737" d="M18.25,59.26c-1.05-3.94,0.13-9.07,4.03-11.06c0.22,2.27-1.21,4.16-1.95,6.19
	C19.64,56.02,18.95,57.64,18.25,59.26z"/>
<path fill="#3C3C3C" d="M20.93,56.33c0.97-1.67,2.05-3.28,3.17-4.85l0.04,1.75c-2.16,4.99-1.73,10.75-4.4,15.52
	C19.49,64.57,20.43,60.46,20.93,56.33z"/>
<path fill="#8C8C8C" d="M13.98,61.42c0.72-2.43,0.22-5.75,2.55-7.39c-0.32,1.62-0.71,3.22-1.18,4.79c-0.25,0.78-0.51,1.55-0.79,2.32
	C14.41,61.21,14.12,61.35,13.98,61.42z"/>
<path fill="#030303" d="M32.17,57.15c1.25,0.49,2.75,0.66,3.62,1.8c2.27,2.57,5.34,4.19,8.13,6.1c6.59,4.47,14.53,5.97,22.12,7.82
	c4.569,1.22,9.37,0.36,13.979,1.41c3.109,0.26,6.109,2.14,9.26,1.22c4.131-1.279,8.631-0.76,12.621-2.58
	c3.699-1.439,6.49-4.39,9.379-7.01c-0.17-0.43-0.529-1.3-0.709-1.74c1.438-1.17,4.979-4.96,5.359-0.87
	c-1.449,0.27-3.131,0.74-3.189,2.53c-0.971,4.68-1.711,9.45-1.44,14.24c0.04,4.109,0.46,8.699-1.989,12.25
	c-3.221,2.55-7.471,2.89-11.381,3.49c-6.959,1.198-14.07,0.68-21.02-0.352c-12.39-1.08-25.02-5.38-33.99-14.29
	c-4.52-5.41-8.58-11.479-10.35-18.39C30.44,61.59,31.68,58.94,32.17,57.15 M33.45,59.73c0.49,2.07,0.77,4.23,1.68,6.161
	c2.53,3.219,6.54,5.021,10.62,4.959c0.64,0.83,1.3,1.66,1.95,2.49c4.33,2.311,8.92,4.84,14.01,4.49c0.04-0.67,0.13-1.99,0.17-2.66
	c0.33,1.34,0.44,2.76,1.23,3.93c3.4,1.521,7.15,2.352,10.871,2.32c1.66-0.08,3.99,0.189,3.819-2.15c0.101-0.01,0.31-0.039,0.41-0.05
	c0.12,0.48,0.36,1.45,0.479,1.94c5.359,1.27,10.851-0.24,16.271,0.18c4.899-1.07,10.021-1.16,14.7-3.14
	c0.16-2.98-0.11-5.95-0.381-8.91c-2.619,2.44-5.6,4.79-9.309,5.14c-4.08,0.32-8.021,1.41-11.99,2.25
	c-5.961-0.99-11.86-2.8-17.972-2.229c-9.05-0.771-18.5-2.24-26.27-7.28C40.07,65.01,37.28,61.65,33.45,59.73 M42.01,77.99
	c1.05,1.56,2.28,2.97,3.54,4.34c11.73,9.2,26.921,12.02,41.421,13.13c7.409-0.101,15.549,0.37,21.879-4.21
	c-0.52-0.62-1.039-1.24-1.539-1.859c0.34,0.061,1.01,0.189,1.351,0.25l0.63-3.351c-2.021-0.2-3.729,0.38-4.67,2.17
	c-2.551-0.649-5.189-0.17-7.479,1.07c-2.631-1.812-5.812-2.091-8.781-0.96c0.07,0.619,0.221,1.85,0.301,2.47
	c-0.311-0.88-0.62-1.771-0.93-2.649C84.1,87.45,80.42,86.63,76.66,86.51c-0.381,0.771-0.76,1.54-1.131,2.311
	c0.021-0.471,0.061-1.409,0.07-1.869c-4.479-1.5-9.161-2.73-13.931-2.42c-0.43,1.148-0.86,2.31-1.3,3.46
	c0.13-1.052,0.26-2.101,0.4-3.15c-4.16-1.93-8.57-4.34-13.33-3.43C46.02,79.72,44.06,78.71,42.01,77.99z"/>
<path fill="#1A1A1A" d="M14.56,61.14c0.28-0.77,0.54-1.54,0.79-2.32c1.8,3.9,2.01,8.161,0.26,12.12c-0.33-1.738-0.73-3.47-1.25-5.17
	c-0.34,1.432-0.67,2.852-0.99,4.28c-0.22-2.79-0.24-5.58,0.01-8.36l0.6-0.27C14.12,61.35,14.41,61.21,14.56,61.14z"/>
<path fill="#FDFDFD" d="M33.45,59.73c3.83,1.92,6.62,5.28,10.29,7.44c7.77,5.04,17.22,6.51,26.27,7.28
	c6.11-0.57,12.01,1.239,17.971,2.229c3.971-0.841,7.91-1.931,11.99-2.25c3.709-0.351,6.689-2.699,9.309-5.141
	c0.271,2.96,0.541,5.93,0.382,8.91c-4.681,1.979-9.802,2.068-14.7,3.14c-5.42-0.42-10.91,1.091-16.271-0.18
	c-0.119-0.49-0.358-1.46-0.479-1.94c-0.102,0.012-0.311,0.04-0.41,0.051c0.172,2.34-2.158,2.069-3.818,2.149
	c-3.721,0.03-7.471-0.8-10.872-2.319c-0.79-1.17-0.9-2.591-1.23-3.931c-0.04,0.67-0.13,1.99-0.17,2.66
	c-5.09,0.351-9.68-2.181-14.01-4.49c-0.65-0.83-1.31-1.659-1.95-2.489c-4.08,0.061-8.09-1.74-10.62-4.959
	C34.22,63.96,33.94,61.8,33.45,59.73z"/>
<path fill="#373737" d="M65.98,67.76c-0.7-1.9,0.57-3.5,1.66-4.91c-0.82,2.14-0.38,4.169,0.96,5.97
	C67.72,68.49,66.85,68.141,65.98,67.76z"/>
<path fill="#0A0A0A" d="M72,67.51c1.859-1.15,3.971-2.39,6.17-1.33C76.09,66.68,74.2,68.66,72,67.51z"/>
<path fill="#1A1A1A" d="M125.27,67.311c1.771,0.279,1.371,5.01-0.64,4.391C123.92,70.359,124.311,68.439,125.27,67.311z"/>
<path fill="#8C8C8C" d="M7.51,67.65C8.68,73.4,7.79,79.359,9.09,85.1c-0.85-1.709-1.71-3.449-3.13-4.77
	c0.21,3.07,1.2,6.061,1.05,9.17c-1.64-1.66-3.1-4.12-2.64-6.5c0.88-3,1.5-6.09,2.9-8.91C7.35,71.939,7.39,69.79,7.51,67.65z"/>
<path fill="#2D2D2D" d="M129.51,68.77c0.6,1.74,1.19,3.49,1.67,5.271c-3,8.54-0.789,17.58-0.779,26.359
	c-0.569,0.771-1.08,1.569-1.541,2.41c0.552,4.141,1.611,8.199,1.82,12.379c-3.07-4.379-2.74-10.5-6.26-14.448
	c0.109,2.63,0.27,5.27,0.38,7.899l-1.479-0.221c0.131,1.48,0.271,2.96,0.421,4.439c-0.591-0.569-1.78-1.709-2.37-2.279
	c0.029,2.189,0.14,4.38,0.17,6.57c-1.682-4.42-2.641-9.09-2.648-13.82c-0.352,0.21-1.062,0.63-1.41,0.84
	c0.06-0.4,0.188-1.21,0.25-1.62c0.75-0.89,1.5-1.78,2.26-2.67c0.109,0.771,0.33,2.32,0.439,3.09c0.199-0.979,0.409-1.97,0.619-2.95
	c0.58,0.65,1.172,1.301,1.75,1.95c0.141-3.239,0.551-6.479,1.602-9.569c1.209-3.67,0.938-7.569,1.108-11.381
	c0.722,3.84,0.98,7.74,1.66,11.58c0.899-1.358,1.42-2.92,1.312-4.55C128.57,81.62,127.85,75.08,129.51,68.77z"/>
<path fill="#373737" d="M19.25,69.76c1.57,2.1,0.74,4.82,0.86,7.221c-0.16,6.029,1.49,11.91,1.54,17.92
	C19.56,86.71,18.53,78.2,19.25,69.76z"/>
<path fill="#FDFDFD" d="M42.01,77.99c2.05,0.72,4.01,1.729,5.43,3.42c4.76-0.91,9.17,1.5,13.33,3.43c-0.14,1.051-0.27,2.1-0.4,3.15
	c0.44-1.15,0.87-2.311,1.3-3.46c4.77-0.312,9.45,0.92,13.93,2.42c-0.01,0.46-0.05,1.399-0.07,1.87
	c0.371-0.771,0.75-1.54,1.132-2.312c3.76,0.12,7.438,0.94,11.069,1.882c0.311,0.879,0.619,1.77,0.931,2.648
	c-0.08-0.62-0.229-1.852-0.302-2.471c2.972-1.131,6.15-0.851,8.781,0.961c2.289-1.24,4.93-1.721,7.479-1.07
	c0.94-1.79,2.649-2.37,4.67-2.17l-0.63,3.352c-0.34-0.062-1.01-0.19-1.35-0.25c0.5,0.618,1.02,1.238,1.539,1.858
	c-6.33,4.58-14.471,4.108-21.879,4.21c-14.5-1.109-29.692-3.93-41.422-13.13C44.29,80.96,43.06,79.55,42.01,77.99z"/>
<path fill="#2D2D2D" d="M16.47,93.68c0.43,0.971,0.86,1.94,1.31,2.9c-0.46,3.52,0.78,6.939,0.97,10.43
	c0.21,4.25,0.66,8.48,0.87,12.73c-0.26,0.02-0.8,0.07-1.07,0.1c-1-6.07-2.03-12.12-3.09-18.18c-1.03-0.11-1.7-0.59-2.02-1.43
	c-0.23-1.82-0.35-3.66-0.48-5.49l1.95,0.65c0.26,0.469,0.78,1.398,1.04,1.868C16.08,96.37,16.34,94.58,16.47,93.68z"/>
<path fill="#1A1A1A" d="M56.18,94.67c6.39,1.57,12.28,4.971,18.791,6.21c9.699,1.83,19.879,3.37,29.59,0.8
	c4.09-1.1,6.539-4.67,9.181-7.67c-1.642,3.641-4.351,6.99-8.261,8.28c-7.92,3.69-16.721,1.74-25.021,1.021
	C71.84,102.25,63.82,98.62,56.18,94.67z"/>
<path fill="#151515" d="M20.94,97.13c2.7,2.63,3.35,6.431,4.29,9.91c0.41-0.24,1.22-0.729,1.63-0.97l0.4-0.24
	c0.28,1.449,0.55,2.91,0.82,4.359c-1.33,1.551-2.42,3.319-3.09,5.261c0.4-3.351-0.24-6.841-2.28-9.58
	c0.06,6.76,0.66,13.649-1.32,20.229c-0.57-5.539,0.14-11.141-0.65-16.66c-0.34-2.549-0.44-5.119-0.44-7.689
	c0.44,0.779,0.89,1.55,1.34,2.311C21.35,101.76,21.09,99.45,20.94,97.13z"/>
<path fill="#2B2B2B" d="M32.61,100.85c3.45,7.73,5.97,15.971,6.75,24.42c-3.01-4.938-2.84-11.278-5.9-16.31
	c0.69,5.44,2.19,10.78,2.43,16.28c-3.58-6.99-4.88-14.85-7.8-22.11l0.73-0.42c0.29-0.01,0.86-0.04,1.14-0.05
	c0.63,0.73,1.24,1.46,1.85,2.199C32.09,103.52,32.36,102.189,32.61,100.85z"/>
<path fill="#7E7E7E" d="M28.08,110.189l0.47-0.58c0.5,1.451,1,2.91,1.48,4.371c-0.48-0.312-1.44-0.95-1.91-1.271
	c-2,2.87-0.56,6.471-1.55,9.641c-0.67-2.261-1.54-4.529-1.58-6.899C25.66,113.51,26.75,111.74,28.08,110.189z"/>
<path fill="#B2B2B2" d="M28.27,115.28C28.82,115.77,28.82,115.77,28.27,115.28z"/>
</svg>
