<?xml version="1.0" encoding="utf-8"?>
<!-- Generator: Adobe Illustrator 15.0.2, SVG Export Plug-In . SVG Version: 6.00 Build 0)  -->
<!DOCTYPE svg PUBLIC "-//W3C//DTD SVG 1.1//EN" "http://www.w3.org/Graphics/SVG/1.1/DTD/svg11.dtd">
<svg version="1.1" id="Layer_1" xmlns="http://www.w3.org/2000/svg" xmlns:xlink="http://www.w3.org/1999/xlink" x="0px" y="0px"
	 width="140px" height="132px" viewBox="0 0 140 132" enable-background="new 0 0 140 132" xml:space="preserve">
<path fill="#FFFFFF" d="M0,0h140v132H51.3c-6.75-4.91-15.22-6.67-23.27-8.18c-1.97-4.45-0.49-9.17-0.27-13.78
	c-0.07-0.55-0.23-1.63-0.31-2.17c1.67-2.87,3.43-5.71,4.67-8.8c3.96,3.859,6.59,8.77,9.55,13.38c2.49,2.72,4.79,5.71,7.77,7.89
	c5.95,3.29,12.24,5.99,18.67,8.19c12.1,2.51,24.58,1.739,36.88,1.979c8.029,0.261,16.859-1,23.08-6.5
	c1.699-3.319,3.06-6.858,4.51-10.3c0.561-5.91,0.029-11.83-1.13-17.62c-0.57-8.229-0.851-16.569-0.011-24.771
	c0.859-2.789,2.021-5.509,3.781-7.869c0.658-2.24,1.67-4.35,2.299-6.59c0.271-3.64,0.121-7.29,0.121-10.93
	c0.18-3.18-1.861-5.82-3.08-8.58c-1.92-1.28-4.031-2.5-5.32-4.46c-1.2-2.77-1.29-5.82-1.301-8.78c-2.129-4.25-5.449-7.87-9.76-9.94
	c-1.779-1.44-3.82-2.5-5.801-3.62c-2.021-0.31-4.04-0.64-6.021-1.15C98.52,6.45,90.1,6.94,81.91,5.9C73.02,4.6,64,5.51,55.05,5.23
	C48.68,4.84,42.43,6.2,36.08,6.15c-5.34,1.9-8.57,6.71-11.81,11.04c-3.16,4.85-4.11,10.84-7.48,15.58
	C12,37.34,7.09,42.18,4.58,48.44C3.25,54.71,4.2,61.71,8.17,66.88c2.53,5.011,8.03,7.99,9.62,13.54c1.17,4.28,3.7,7.971,6.31,11.48
	c1.98,1.699,3.96,3.41,5.73,5.33c-1.28,2.479-2.54,4.959-3.82,7.449c-0.44,0.301-1.31,0.899-1.74,1.199
	c0.09,2.74-0.06,5.479-0.51,8.182c0.78,2.608,1.3,5.299,1.5,8.02c-3.65,2.23-5.52,6.25-7.39,9.92H0V0 M56.23,130.23
	C56.79,130.74,56.79,130.74,56.23,130.23z"/>
<path fill="#020202" d="M36.08,6.15c6.35,0.05,12.6-1.31,18.97-0.92C64,5.51,73.02,4.6,81.91,5.9C90.1,6.94,98.52,6.45,106.359,9.4
	c1.979,0.51,4,0.84,6.021,1.15c1.979,1.12,4.021,2.18,5.8,3.62c4.312,2.07,7.631,5.69,9.76,9.94c0.012,2.96,0.102,6.01,1.302,8.78
	c1.288,1.96,3.399,3.18,5.319,4.46c1.219,2.76,3.26,5.4,3.08,8.58c0,3.64,0.149,7.29-0.121,10.93c-0.629,2.24-1.64,4.35-2.299,6.59
	c-1.761,2.36-2.921,5.08-3.781,7.87c-0.84,8.199-0.56,16.539,0.012,24.77c1.158,5.79,1.689,11.71,1.13,17.62
	c-1.45,3.44-2.812,6.979-4.511,10.3c-6.221,5.5-15.051,6.76-23.079,6.5c-12.302-0.24-24.78,0.53-36.88-1.979
	c-6.43-2.2-12.72-4.9-18.67-8.19c-2.98-2.18-5.28-5.17-7.77-7.89c-2.96-4.61-5.59-9.521-9.55-13.381c-1.24,3.091-3,5.931-4.67,8.801
	c0.08,0.54,0.24,1.62,0.31,2.17c-0.22,4.609-1.7,9.33,0.27,13.779c8.05,1.511,16.52,3.271,23.27,8.181h-4.13
	c-5.42-3.229-11.71-4.41-17.74-5.99c1.26,1.921,2.58,3.812,3.82,5.75c-4.67,0.722-5.22-5.118-8.04-7.618
	c-2.05,2.59-3.47,5.709-6.04,7.858h-1.3c1.87-3.67,3.74-7.688,7.39-9.92c-0.2-2.722-0.72-5.41-1.5-8.021
	c0.45-2.701,0.6-5.439,0.51-8.181c0.43-0.3,1.3-0.899,1.74-1.2c1.28-2.49,2.54-4.97,3.82-7.449c-1.77-1.92-3.75-3.631-5.73-5.33
	c-2.61-3.51-5.14-7.199-6.31-11.479c-1.59-5.55-7.09-8.528-9.62-13.54C4.2,61.71,3.25,54.71,4.58,48.44
	c2.51-6.26,7.42-11.1,12.21-15.67c3.37-4.74,4.32-10.73,7.48-15.58C27.51,12.86,30.74,8.05,36.08,6.15 M34.53,10.53
	c-2.09,1.66-4.1,3.41-5.77,5.51c-0.14,0.42-0.42,1.26-0.56,1.68c-5.56,5.13-4.63,14.14-10.7,18.86c2.99,0.07,5.98,0.12,8.97,0.02
	c-0.1,0.34-0.29,1.04-0.38,1.39c0.78,0.04,2.35,0.11,3.14,0.14l-0.14,0.79c-3.11-0.22-6.23-0.29-9.35-0.16
	c-1.55,0.81-3.18,1.49-4.8,2.16c0.85-1.42,2.12-2.4,3.83-2.94c-6.82,0.37-8.87,8.27-12.15,12.96c-0.05,1.43-0.08,2.87-0.1,4.31
	c1.31,1.3,1.25,3.07,1.17,4.78c1.56,2.28,2.72,4.79,4.08,7.18c1.83,1.09,4.38,1.61,3.81,4.31C21.45,75.9,20.91,84.12,26,89.05
	c1.51,1.2,2.71,2.72,3.96,4.181c9.48,7.189,12.32,20.67,23.11,26.529c6.46,2.84,12.84,6.35,19.93,7.28
	c6.85,1.89,14.08,1.17,21.13,1.41c0.271-0.19,0.81-0.56,1.08-0.74c9.271-0.25,18.91,0.32,27.79-2.74
	c3.48-3.52,4.52-8.64,7.221-12.72c-0.07-2.85-0.051-5.7-0.091-8.54c-1.14-2.76-1.36-5.81-1.47-8.76c0.02-7.32-0.02-14.64,0.04-21.96
	c0.03-4.69,2.14-9.03,4.579-12.92c-0.6,0.13-1.789,0.38-2.389,0.51c-1.07,1.19-2.632,1.68-4,2.41c-1.012,0.32-2.031,0.63-3.062,0.92
	c1.87-2.69,5.67-2.75,8.04-4.9c-0.512-0.52-1.021-1.04-1.53-1.56c1.41-0.02,2.142-0.71,2.188-2.07c0.541-3.13,1.451-6.43-0.59-9.24
	c-0.119-0.5-0.35-1.49-0.469-1.99c-1.691-1-3.281-2.14-4.951-3.17c-0.209,2.01-1.279,3.7-2.42,5.29c1.83,0.64,2.871,2.04,2.2,3.99
	c-2.68,1.12-4.31-3.54-7.021-0.68c-0.139-0.43-0.42-1.29-0.56-1.72c2.029-1.07,4.779-1.67,5.421-4.26
	c-1.642-0.24-3.302-0.39-4.9-0.85c1.65-1.5,3.85-1.71,5.91-0.99c-0.45-2.31-0.142-5.1-2.01-6.87c-2.441-2.78-5.842-4.35-9.32-5.4
	c-0.45,0.79-0.892,1.59-1.33,2.39c-0.062-0.74-0.18-2.21-0.24-2.95c-0.73-0.02-2.17-0.06-2.9-0.08c0.301,1.5,0.69,2.98,1.15,4.44
	c-1.23-1.15-0.96-2.94-1.24-4.45c-2.27-0.03-4.57,0-6.779,0.62c0.649,1.17,1.24,2.37,0.819,3.78c0.81,0.7,1.71,1.29,2.681,1.76
	c-2.92-0.42-3.871-2.97-3.881-5.6c-4.31,1.39-9.02,3.52-10.898,7.95c-1.471,2.69,1.63,4.89,1.25,7.62
	c0.93,0.83,1.869,1.66,2.818,2.48c1.16-0.86,2.44-1.55,3.69-2.28c0.91,0.45,1.81,0.91,2.729,1.32c-1.959-0.1-3.41,1.12-4.67,2.45
	c2.689,0.68,5.381,1.4,8.021,2.27c1.91-0.86-1.06-2.49-0.83-3.87c2.16,0.32,2.89,2.08,2.649,4.07c2.25-0.54,5.261,0.23,6.961-1.69
	c0.209-1.79-2.23-1.93-3.48-2.21c1.381-0.17,2.721-0.72,3.311-2.07c0.119,1.52,0.521,4.21,2.41,4.29c0.369,0.33,1.109,1,1.479,1.34
	c-8.511,2.41-18.41,1.87-25.351-4.13c0.021,0.66,0.051,1.96,0.069,2.62c1.142,1.33,2.67,2.16,4.19,2.98
	c1.31,1.33,2.6,2.68,4.271,3.57c0.959,2.44,3.369,3.93,5.851,4.48c1.33,0.95,3.56,1.42,3.24,3.53c-2.521-2.01-5.722-2.81-8.17-4.92
	c-0.361,0.78-1.102,2.35-1.472,3.13c-0.521-0.53-1.55-1.59-2.062-2.11c-1.028,3.55-4.26,5.78-6.959,8.05
	c-0.899,0-2.689-0.01-3.59-0.02c-1.761-0.91-2.899-2.64-1.83-4.59c1.729-0.24,3.17,1.97,4.869,0.94c2.621-1.59,3.602-4.66,5.66-6.78
	c-0.52-0.81-1.029-1.62-1.539-2.42c-0.57-0.22-1.691-0.64-2.25-0.85c-0.91-1.2-1.851-2.37-2.811-3.53c0.039-2.43,0.061-4.86,0-7.29
	c-1.881-0.54-3.721-1.34-5.061-2.8c0.279-2.37,3.131-2.45,4.579-1.03c0.142-2.13,1.091-4.05,2.11-5.87
	c0.34-2.812-1.16-8.21,2.71-8.84c-1.729,2.43-2.58,5.25-2.2,8.25c3.04-2.4,6.432-4.57,10.29-5.31c3.34-0.79,6.802-0.31,10.188-0.5
	c-1.278-3.36-5.318-3.33-7.309-5.93c-2.221-0.12-4.441,0.02-6.621,0.46c-1.959,0.41-4.199-0.23-5.879,1.12
	c-1.041,0.17-2.091,0.33-3.141,0.47c0.141-0.39,0.41-1.18,0.55-1.58c5.11-0.28,10.11-1.6,15.229-1.42
	c2.451,2.43,7.819,2.93,7.58,7.17c4.301,0.74,8.479,2.75,11.431,6.01c1.97,2.1,2.01,5.44,4.61,7.04c2.898,1.73,4.278,4.71,5.59,7.67
	c0.81,2.92-2.75,6.33,0.8,8.07c-0.05-3.6,0.25-7.22-0.12-10.82c-1.01-3.69-3.51-6.77-6.48-9.11c-2.31-1.5-2.688-4.3-3.609-6.67
	c-0.109-2.37,0.33-4.97-1.029-7.07c-1.88-3.16-5.648-4.3-8.061-6.97c-1.66-0.49-3.301-1.12-4.489-2.44
	c-1.091-0.17-2.181-0.33-3.271-0.48c-1.701-0.36-3.359-0.94-5.101-1.01c-13.61,3.32-27.38-2.44-41.11-1.32
	c-3.74,1.06-7.75,1.64-11.1,3.71C44.1,17.38,38.1,21.8,32.89,26.84c0.61-1.44,0.95-3.24,2.68-3.7c4.56-3.22,8.63-7.18,13.86-9.35
	l-1.7-1.35c0.71,0.03,1.27,0.41,1.72,0.95c1.82-0.51,3.64-1.03,5.43-1.64c5.21-2.76,11.36-1.09,17.021-1.42
	c2.601,0.36,6.011-1.07,7.979,1.19c6.67,0.1,13.28,1.16,19.979,0.74l-0.739-1.71c-8.47-0.37-16.79-1.65-25.24-2.19
	c-8.97-0.01-17.94-0.1-26.9,0.17C42.84,9.39,38.19,7.9,34.53,10.53 M133.09,56.94l-0.561,0.53l0.381,0.82h0.93l0.46-0.82
	C133.99,57.34,133.391,57.08,133.09,56.94z"/>
<path fill="#FAFAFA" d="M34.53,10.53c3.66-2.63,8.31-1.14,12.45-2c8.96-0.271,17.93-0.18,26.9-0.17
	c8.45,0.54,16.771,1.82,25.24,2.19l0.739,1.71c-6.699,0.42-13.311-0.64-19.979-0.74c-1.97-2.26-5.38-0.83-7.979-1.19
	c-5.659,0.33-11.811-1.34-17.021,1.42c-1.79,0.61-3.61,1.13-5.43,1.64c-0.45-0.54-1.01-0.92-1.72-0.95l1.7,1.35
	c-5.23,2.17-9.3,6.13-13.86,9.35c-1.73,0.46-2.07,2.26-2.68,3.7c5.21-5.04,11.21-9.46,17.86-12.31c3.35-2.07,7.36-2.65,11.1-3.71
	c13.73-1.12,27.5,4.64,41.11,1.32c1.74,0.07,3.399,0.65,5.101,1.01c1.09,0.15,2.181,0.31,3.271,0.48
	c1.188,1.32,2.83,1.95,4.489,2.44c2.41,2.67,6.181,3.81,8.061,6.97c1.36,2.1,0.92,4.7,1.03,7.07c0.92,2.37,1.3,5.17,3.608,6.67
	c2.972,2.34,5.472,5.42,6.48,9.11c0.37,3.6,0.07,7.22,0.12,10.82c-3.55-1.74,0.01-5.15-0.8-8.07c-1.312-2.96-2.69-5.94-5.59-7.67
	c-2.602-1.6-2.642-4.938-4.61-7.04c-2.95-3.26-7.13-5.27-11.431-6.01c0.24-4.24-5.129-4.74-7.58-7.17
	c-5.119-0.18-10.119,1.14-15.229,1.42c-0.14,0.4-0.409,1.19-0.55,1.58c1.05-0.14,2.1-0.3,3.141-0.47c1.68-1.35,3.92-0.71,5.879-1.12
	c2.18-0.44,4.4-0.58,6.621-0.46c1.989,2.6,6.029,2.57,7.309,5.93c-3.389,0.19-6.85-0.29-10.188,0.5
	c-3.858,0.74-7.25,2.91-10.29,5.31c-0.38-3,0.471-5.82,2.2-8.25c-3.87,0.63-2.37,6.03-2.71,8.84c-1.021,1.82-1.971,3.74-2.109,5.87
	c-1.449-1.42-4.301-1.34-4.58,1.03c1.34,1.46,3.18,2.26,5.061,2.8c0.061,2.43,0.04,4.86,0,7.29c0.96,1.16,1.9,2.33,2.811,3.53
	c0.559,0.21,1.68,0.63,2.25,0.85c0.51,0.8,1.021,1.61,1.539,2.42c-2.06,2.12-3.039,5.19-5.66,6.78c-1.699,1.03-3.14-1.18-4.869-0.94
	c-1.069,1.95,0.069,3.68,1.83,4.59c0.899,0.01,2.689,0.02,3.59,0.02c2.699-2.27,5.931-4.5,6.959-8.05
	c0.512,0.521,1.541,1.58,2.062,2.11c0.37-0.78,1.108-2.35,1.472-3.13c2.448,2.11,5.648,2.91,8.17,4.92
	c0.318-2.11-1.91-2.58-3.24-3.53c-2.48-0.55-4.891-2.04-5.85-4.48c-1.672-0.89-2.962-2.24-4.271-3.57
	c-1.521-0.82-3.051-1.65-4.19-2.98c-0.02-0.66-0.05-1.96-0.069-2.62c6.939,6,16.84,6.54,25.351,4.13
	c-0.37-0.34-1.11-1.01-1.479-1.34c0.779-0.72,1.549-1.44,2.319-2.17l0.341,0.3c0.139,0.43,0.42,1.29,0.56,1.72
	c2.711-2.86,4.341,1.8,7.021,0.68c0.672-1.95-0.369-3.35-2.199-3.99c1.141-1.59,2.211-3.28,2.42-5.29
	c1.67,1.03,3.26,2.17,4.951,3.17c0.118,0.5,0.35,1.49,0.469,1.99c2.041,2.81,1.131,6.11,0.59,9.24
	c-0.049,1.36-0.779,2.05-2.189,2.07c0.51,0.52,1.02,1.04,1.53,1.56c-2.37,2.15-6.17,2.21-8.04,4.9c1.029-0.29,2.05-0.6,3.061-0.92
	c1.369-0.73,2.931-1.22,4-2.41c0.601-0.13,1.789-0.38,2.39-0.51c-2.438,3.89-4.55,8.23-4.579,12.92
	c-0.061,7.32-0.021,14.64-0.04,21.96c0.108,2.95,0.33,6,1.47,8.76c0.04,2.84,0.021,5.69,0.092,8.54
	c-2.701,4.08-3.74,9.2-7.222,12.721c-8.88,3.061-18.521,2.489-27.79,2.739c-0.271,0.181-0.811,0.55-1.08,0.74
	c-7.05-0.24-14.279,0.479-21.13-1.41c-7.09-0.931-13.47-4.44-19.93-7.28C42.28,113.9,39.44,100.42,29.96,93.23
	c-1.25-1.461-2.45-2.98-3.96-4.182c-5.09-4.93-4.55-13.148-10.42-17.529c0.57-2.699-1.98-3.221-3.81-4.311
	c-1.36-2.39-2.52-4.9-4.08-7.18c0.08-1.71,0.14-3.48-1.17-4.78c0.02-1.44,0.05-2.88,0.1-4.31c3.28-4.69,5.33-12.59,12.15-12.96
	c-1.71,0.54-2.98,1.52-3.83,2.94c1.62-0.67,3.25-1.35,4.8-2.16c3.12-0.13,6.24-0.06,9.35,0.16l0.14-0.79
	c-0.79-0.03-2.36-0.1-3.14-0.14c0.09-0.35,0.28-1.05,0.38-1.39c-2.99,0.1-5.98,0.05-8.97-0.02c6.07-4.72,5.14-13.73,10.7-18.86
	c0.14-0.42,0.42-1.26,0.56-1.68C30.43,13.94,32.44,12.19,34.53,10.53 M44.55,21.45c-3.6,1.78-5.47,5.61-8.49,8.14
	c0.39,0,1.16-0.01,1.55-0.01c2.85-2.58,4.89-6.04,8.34-7.95c10.13-6.65,23.21-7.87,34.72-4.52c9.07,1.48,18.26,0.15,27.28-1.01
	c1.69,0.13,2.71,1.94,4.1,2.8c0.101-2.02-1.979-3.87-3.989-3.5c-2.701,0.2-5.391,0.38-8.09,0.49c-5.541,1.4-11.33,0.67-16.99,0.74
	C70.3,13.46,55.45,13.23,44.55,21.45 M64.8,19.27c-3.32-0.16-6.61,0.21-9.87,0.72c-3.1,1.17-7.11,1.78-8.45,5.3
	c2.77-1.89,5.72-3.48,8.97-4.34c4.33-0.86,8.74-1.09,13.14-0.75c1.1,2.28,3.4,3.64,4.59,5.89c-8.91-3.01-19.76-4.27-28.02,1.11
	c0.52-0.84,1.58-2.54,2.1-3.38c-4.37,2.85-8.25,7.52-9.05,12.78c-1.46,0.38-2.94,0.67-4.43,0.9c-0.17,3.34,5.4,0.72,4.56,4.04
	c1.02,0.75,2.04,1.5,3.07,2.25c-0.43,0.7-0.86,1.41-1.29,2.11c-0.78-0.54-2.34-1.61-3.12-2.15c-1.85-0.11-3.61-0.72-4.59-2.41
	c-2.76-0.05-5.53-0.13-8.3,0c-4.66,1.04-7.28,5.56-8.78,9.76c-0.21,4.42-0.7,9.72,2.87,13.05c0.5-0.28,1.49-0.85,1.99-1.13
	c-0.59-2.38-1.39-4.72-2.43-6.95c-0.08-4.79,2.62-9.46,6.92-11.63c2.03,0.04,4.06,0.06,6.09,0.16c1.55,1.87,3.92,2.77,6.22,3.32
	c1.05,0.51,2.11,1.02,3.16,1.54c0.06-0.58,0.17-1.74,0.22-2.33c2.55-2.2,5.31,0.68,7.77,1.59c5.93,2.43,12.65,2.35,18.87,1.26
	c5.66-1.51,12.19-4.78,13.45-11.07c1.149-5.17-2.62-9.75-6.851-12.17c-0.229-1.41-0.609-2.8-0.811-4.21
	c-0.359-0.19-1.078-0.58-1.449-0.771c0.041-0.34,0.101-1.04,0.141-1.39l2.52,0.59C71.891,17.71,67.92,19.43,64.8,19.27 M11.21,46.03
	c-0.49,5.479-0.17,11.01,0.5,16.47c1.57,3.3,5.17,4.53,8.19,6.12c-0.04-0.351-0.11-1.06-0.14-1.41c-2.54-0.98-4.97-2.37-6.85-4.37
	c-1.28-5.14-1.45-10.51-1.02-15.78c0.96-2.24,2.91-3.93,3.58-6.35C13.38,41.79,12.1,43.93,11.21,46.03 M126.221,44.87
	c3.17-0.09,2.1,3.16,2.489,5.02c-0.021,1.58,0.92,3.22,0.36,4.74c-1.37,1.5-2.9,2.86-4.23,4.4c0.96-0.32,1.92-0.64,2.87-0.99
	c0.771-1.07,1.59-2.1,2.431-3.12c-0.031-3.83-0.561-7.79-1.91-11.38C127.561,43.98,126.891,44.42,126.221,44.87 M27.05,53.05
	c-2.2,2.09-6.28,1.61-7.28,4.83c1.99,1.08,4.19,0.57,6.3,0.29c0.69,1.14,1.21,2.36,1.83,3.54c-0.31,0.67-0.63,1.34-0.94,2.01
	c0.41,0.38,1.24,1.14,1.65,1.521c0.92,3.899,0.47,7.979,1.69,11.829c0.74,5.511,0.66,11.711,4.84,15.971
	c1.47,2.479,2.79,5.05,4.41,7.439c2.03,2.301,4.37,4.319,6.18,6.819c1.92,1.5,3.84,2.99,5.78,4.46c2.42,2.141,5.24,3.73,7.98,5.42
	c1.94,0.33,3.95,0.65,5.31,2.24c5.25,1.23,10.601,2.24,16.05,2.21c0.32,0.24,0.961,0.72,1.291,0.96
	c4.939,0.26,9.899-0.04,14.851,0.13c1.409-0.159,3.27,0.431,4.18-1.069c4.7-0.149,9.5-0.381,13.99-1.931
	c3.409-1.2,7.118-3.06,7.67-7.05c0.46-0.71,0.93-1.42,1.392-2.13c0.198-2.59,1.34-5.021,1.479-7.59
	c-1.881-8.21-0.061-16.72-1.141-25.021c-1.141-6.271-1.551-12.631-2.881-18.871c0.01-1.35-1.39-1.88-2.229-2.65
	c-0.021-1.54-0.04-3.09-0.061-4.63l-1.601,0.03c-2,2.4-0.399,6.22-1.64,9.12c-7.36,8.549-19.44,10.78-30.15,9.19
	c-2.17-0.66-5.05,0.54-6.65-1.41c-3.92,0.271-7.619-1.3-11.398-2.061c-4.18-2.271-8.99-2.729-13.35-4.541
	c-8.59-2.6-16.43-7.14-24.04-11.78c0.82-2.67-1.47-3.18-3.1-4.42C28.23,48.27,27.48,50.7,27.05,53.05 M63.47,52.59
	c0.04,0.6,0.11,1.81,0.15,2.42c-3.33,2.29-7.67,0.74-11.43,1.54c0.24,1.2,1.06,1.27,2.09,0.74c3.01-0.97,6.25-0.06,9.28-0.8
	C65.35,55.97,65.06,53.19,63.47,52.59 M66.78,53.77c-0.46,0.85-0.93,1.71-1.39,2.56c0.09,2.09,0.01,4.18,0.26,6.26
	c0.72,1.21,2.15,1.76,3.2,2.64c2.169-1.39,1.3-5-1.48-3.69c1.11-1.34,0.64-3.17,0.82-4.76c2.2-0.68,6.5,0.47,6.3-3
	C72.061,52.64,69.27,53.08,66.78,53.77 M72.42,58.53c-1.359,1.688-1.23,3.95,0.43,5.36c1.84-3.39,5.44-1.43,8.34-0.95
	c0.32-0.92,0.521-1.86,0.59-2.82C78.99,58.28,75.59,58.62,72.42,58.53z"/>
<path fill="#070707" d="M44.55,21.45c10.9-8.22,25.75-7.99,38.431-4.82c5.66-0.07,11.449,0.66,16.99-0.74
	c2.699-0.11,5.389-0.29,8.09-0.49c2.01-0.37,4.09,1.48,3.989,3.5c-1.39-0.86-2.409-2.67-4.1-2.8c-9.021,1.16-18.21,2.49-27.28,1.01
	c-11.51-3.35-24.59-2.13-34.72,4.52c-3.45,1.91-5.49,5.37-8.34,7.95c-0.39,0-1.16,0.01-1.55,0.01
	C39.08,27.06,40.95,23.23,44.55,21.45z"/>
<path fill="#070707" d="M64.8,19.27c3.12,0.16,7.091-1.56,9.21,1.69l-2.52-0.59c-0.04,0.35-0.1,1.05-0.141,1.39
	c0.371,0.19,1.09,0.58,1.449,0.771c0.2,1.41,0.58,2.8,0.811,4.21c4.229,2.42,8,7,6.851,12.17c-1.26,6.29-7.79,9.56-13.45,11.07
	c-6.22,1.09-12.94,1.17-18.87-1.26c-2.46-0.91-5.22-3.79-7.77-1.59c-0.05,0.59-0.16,1.75-0.22,2.33c-1.05-0.52-2.11-1.03-3.16-1.54
	c-2.3-0.55-4.67-1.45-6.22-3.32c-2.03-0.1-4.06-0.12-6.09-0.16c-4.3,2.17-7,6.84-6.92,11.63c1.04,2.23,1.84,4.57,2.43,6.95
	c-0.5,0.28-1.49,0.85-1.99,1.13c-3.57-3.33-3.08-8.63-2.87-13.05c1.5-4.2,4.12-8.72,8.78-9.76c2.77-0.13,5.54-0.05,8.3,0
	c0.98,1.69,2.74,2.3,4.59,2.41c0.78,0.54,2.34,1.61,3.12,2.15c0.43-0.7,0.86-1.41,1.29-2.11c-1.03-0.75-2.05-1.5-3.07-2.25
	c0.84-3.32-4.73-0.7-4.56-4.04c1.49-0.23,2.97-0.52,4.43-0.9c0.8-5.26,4.68-9.93,9.05-12.78c-0.52,0.84-1.58,2.54-2.1,3.38
	c8.26-5.38,19.11-4.12,28.02-1.11c-1.188-2.25-3.49-3.61-4.59-5.89c-4.4-0.34-8.81-0.11-13.14,0.75c-3.25,0.86-6.2,2.45-8.97,4.34
	c1.34-3.52,5.35-4.13,8.45-5.3C58.19,19.48,61.48,19.11,64.8,19.27 M42.08,30.94c0.22,0.88,0.65,2.64,0.87,3.52
	c1.41,0,2.82-0.01,4.23,0.03c-1.02,0.06-3.05,0.17-4.07,0.229c0.58,1.03,1.13,2.07,1.67,3.12c-1.63-1.87-2.29-4.31-3.04-6.62
	c-3.47,4.42-2.25,11.4,2.88,13.97c1.13-1.2,2.51-2.08,3.97-2.82c0.69,0.38,1.4,0.75,2.09,1.14c-2.01,0.22-3.92,0.97-5.75,1.82
	c2.96,1.84,7.36,4.99,10.27,1.35c1.61,0.19,3.21,0.41,4.81,0.68c-1.17-0.09-3.52-0.27-4.69-0.37c-0.01,0.84-0.37,1.99,0.68,2.36
	c4.75,0.19,9.52-0.14,14.09-1.51c-2.77-1.24-5.9-1.12-8.86-1.58c0.07-0.15,0.2-0.45,0.26-0.6c2.22,0.64,4.48,1.04,6.75,1.46
	l-2.2-2.74c1.02,1.08,2.09,2.1,3.21,3.07l0.69-2.83c0.25,0.85,0.52,1.69,0.81,2.53c3.029-1.02,5.4-3.19,7.51-5.51
	c-2.199-0.44-6.55-1.8-6.9,1.47c-0.568-0.68-1.229-1.26-1.898-1.84c3.13-1.21,6.479-0.78,9.762-0.8
	c-0.062-2.49,0.459-5.18-0.961-7.42c-1.601,2.51-6.33,2.35-6.131,5.69c-0.102-0.03-0.318-0.08-0.43-0.11
	c0.029-0.53,0.078-1.6,0.109-2.13c0.879-0.28,1.771-0.57,2.66-0.85c1.021-1.28,2.159-2.46,3.319-3.61c-1.06-1-2.12-2-3.17-3
	c-1.3-0.68-2.591-1.37-3.87-2.07c0.21,2.07-0.43,4.23-2.51,5.05c0.66-0.76,1.34-1.49,2.03-2.22c-0.05-1.11-0.1-2.23-0.14-3.35
	c-3.89-1.09-7.9-1.86-11.96-1.57c0.42,1.68,1.52,3,2.58,4.31c-1.62-0.95-2.3-2.66-2.74-4.4C52.22,25.03,46.42,27.04,42.08,30.94
	 M36.35,38.06C36.79,41.3,39.32,36.27,36.35,38.06z"/>
<path fill="#FDFAFA" d="M42.08,30.94c4.34-3.9,10.14-5.91,15.93-6.15c0.44,1.74,1.12,3.45,2.74,4.4c-1.06-1.31-2.16-2.63-2.58-4.31
	c4.06-0.29,8.07,0.48,11.96,1.57c0.04,1.12,0.09,2.24,0.14,3.35c-0.69,0.73-1.37,1.46-2.03,2.22c2.08-0.82,2.72-2.98,2.51-5.05
	c1.279,0.7,2.57,1.39,3.87,2.07c1.05,1,2.11,2,3.17,3c-1.16,1.15-2.3,2.33-3.319,3.61c-0.891,0.28-1.781,0.57-2.66,0.85
	c-0.031,0.53-0.08,1.6-0.109,2.13c0.109,0.03,0.328,0.08,0.43,0.11c-0.199-3.34,4.53-3.18,6.131-5.69
	c1.42,2.24,0.899,4.93,0.961,7.42c-3.281,0.021-6.632-0.41-9.762,0.8c0.67,0.58,1.33,1.16,1.898,1.84
	c0.352-3.27,4.701-1.91,6.9-1.47c-2.109,2.32-4.48,4.49-7.51,5.51c-0.29-0.84-0.56-1.68-0.81-2.53l-0.69,2.83
	c-1.12-0.97-2.19-1.99-3.21-3.07l2.2,2.74c-2.27-0.42-4.53-0.82-6.75-1.46c-0.06,0.15-0.19,0.45-0.26,0.6
	c2.96,0.46,6.09,0.34,8.86,1.58c-4.57,1.37-9.34,1.7-14.09,1.51c-1.05-0.37-0.69-1.52-0.68-2.36c1.17,0.1,3.52,0.28,4.69,0.37
	c-1.6-0.27-3.2-0.49-4.81-0.68c-2.91,3.64-7.31,0.49-10.27-1.35c1.83-0.85,3.74-1.6,5.75-1.82c-0.69-0.39-1.4-0.76-2.09-1.14
	c-1.46,0.74-2.84,1.62-3.97,2.82c-5.13-2.57-6.35-9.55-2.88-13.97c0.75,2.311,1.41,4.75,3.04,6.62c-0.54-1.05-1.09-2.09-1.67-3.12
	c1.02-0.06,3.05-0.17,4.07-0.229c-1.41-0.04-2.82-0.03-4.23-0.03C42.73,33.58,42.3,31.82,42.08,30.94 M47.71,28.65
	c0.95,1.84,2.49,3.22,4.05,4.52c0.37-1.27,0.73-2.54,1.09-3.81C51.14,29.1,49.43,28.86,47.71,28.65 M52.8,34.95
	c-1.91,3.98,2.39,7.85,6.23,7.57c2.68,0.53,4.6-1.69,6.54-3.12c0.02-1.58,0.02-3.15-0.01-4.71c-2.01-1.3-3.97-3.24-6.56-2.99
	C56.55,31.62,54.35,33.19,52.8,34.95z"/>
<path fill="#D3CFD1" d="M47.71,28.65c1.72,0.21,3.43,0.45,5.14,0.71c-0.36,1.27-0.72,2.54-1.09,3.81
	C50.2,31.87,48.66,30.49,47.71,28.65z"/>
<path fill="#FEFAFB" d="M102.48,29.46c2.209-0.62,4.51-0.65,6.778-0.62c0.28,1.51,0.011,3.3,1.24,4.45
	c-0.46-1.46-0.851-2.94-1.149-4.44c0.729,0.02,2.17,0.06,2.899,0.08c0.062,0.74,0.181,2.21,0.239,2.95
	c0.439-0.8,0.881-1.6,1.33-2.39c3.479,1.05,6.881,2.62,9.32,5.4c1.869,1.77,1.561,4.56,2.01,6.87c-2.061-0.72-4.26-0.51-5.91,0.99
	c1.601,0.46,3.261,0.61,4.9,0.85c-0.641,2.59-3.391,3.19-5.42,4.26l-0.341-0.3c-0.771,0.73-1.54,1.45-2.319,2.17
	c-1.891-0.08-2.291-2.77-2.41-4.29c-0.59,1.35-1.93,1.9-3.311,2.07c1.25,0.28,3.689,0.42,3.48,2.21c-1.7,1.92-4.711,1.15-6.961,1.69
	c0.24-1.99-0.489-3.75-2.649-4.07c-0.229,1.38,2.74,3.01,0.83,3.87c-2.64-0.87-5.33-1.59-8.021-2.27c1.26-1.33,2.711-2.55,4.67-2.45
	c-0.92-0.41-1.819-0.87-2.729-1.32c-1.25,0.73-2.53,1.42-3.69,2.28c-0.949-0.82-1.89-1.65-2.818-2.48
	c0.38-2.729-2.721-4.93-1.25-7.62c1.88-4.43,6.59-6.56,10.898-7.95c0.01,2.63,0.961,5.18,3.881,5.6
	c-0.971-0.47-1.871-1.06-2.681-1.76C103.721,31.83,103.13,30.63,102.48,29.46 M116.66,35.37c1.119,1.31,2.96-0.83,2.17-2
	C117.721,32.64,115.63,34.13,116.66,35.37 M93.33,36.41c1.189,1.89,2.47,3.8,4.46,4.93c0.399-1.1,0.79-2.2,1.181-3.3
	C97.1,37.47,95.221,36.91,93.33,36.41 M103.38,40.97c0.38,0.6,1.149,1.79,1.53,2.39c2.99,1.57,6.46,1.41,9.5,0.06
	c1.34-2.23,1.67-6.15-1.42-6.99C109.359,34.53,103.13,36.07,103.38,40.97z"/>
<path fill="#000201" d="M52.8,34.95c1.55-1.76,3.75-3.33,6.2-3.25c2.59-0.25,4.55,1.69,6.56,2.99c0.03,1.56,0.03,3.13,0.01,4.71
	c-1.94,1.43-3.86,3.65-6.54,3.12C55.19,42.8,50.89,38.93,52.8,34.95z"/>
<path fill="#D0C2C7" d="M116.66,35.37c-1.03-1.24,1.061-2.73,2.17-2C119.62,34.54,117.779,36.68,116.66,35.37z"/>
<path fill="#DCD0D4" d="M93.33,36.41c1.891,0.5,3.77,1.06,5.641,1.63c-0.391,1.1-0.781,2.2-1.181,3.3
	C95.8,40.21,94.52,38.3,93.33,36.41z"/>
<path fill="#020202" d="M103.38,40.97c-0.25-4.9,5.979-6.438,9.61-4.54c3.09,0.84,2.76,4.76,1.42,6.99
	c-3.04,1.35-6.51,1.51-9.5-0.06C104.529,42.76,103.76,41.57,103.38,40.97z"/>
<path fill="#ABADAD" d="M36.35,38.06C39.32,36.27,36.79,41.3,36.35,38.06z"/>
<path fill="#070707" d="M11.21,46.03c0.89-2.1,2.17-4.24,4.26-5.32c-0.67,2.42-2.62,4.11-3.58,6.35
	c-0.43,5.27-0.26,10.64,1.02,15.78c1.88,2,4.31,3.39,6.85,4.37c0.03,0.351,0.1,1.06,0.14,1.41c-3.02-1.59-6.62-2.82-8.19-6.12
	C11.04,57.04,10.72,51.51,11.21,46.03z"/>
<path fill="#070707" d="M126.221,44.87c0.67-0.45,1.34-0.89,2.01-1.33c1.351,3.59,1.879,7.55,1.91,11.38
	c-0.841,1.02-1.66,2.05-2.431,3.12c-0.95,0.35-1.91,0.67-2.87,0.99c1.33-1.54,2.86-2.9,4.23-4.4c0.56-1.52-0.381-3.16-0.36-4.74
	C128.32,48.03,129.391,44.78,126.221,44.87z"/>
<path fill="#010101" d="M27.05,53.05c0.43-2.35,1.18-4.78,0.41-7.14c1.63,1.24,3.92,1.75,3.1,4.42c7.61,4.64,15.45,9.18,24.04,11.78
	c4.36,1.81,9.17,2.27,13.35,4.541c3.78,0.761,7.479,2.33,11.399,2.061c1.601,1.95,4.479,0.75,6.649,1.41
	c10.71,1.59,22.79-0.641,30.149-9.19c1.24-2.9-0.359-6.72,1.641-9.12l1.602-0.03c0.02,1.54,0.039,3.09,0.06,4.63
	c0.84,0.77,2.239,1.3,2.229,2.65c1.329,6.24,1.739,12.6,2.881,18.871c1.08,8.301-0.74,16.811,1.14,25.021
	c-0.14,2.569-1.28,5-1.479,7.59c-0.461,0.71-0.931,1.42-1.391,2.13c-0.551,3.99-4.26,5.85-7.67,7.051
	c-4.49,1.549-9.29,1.779-13.99,1.93c-0.91,1.5-2.77,0.91-4.18,1.07c-4.95-0.171-9.91,0.129-14.85-0.131
	c-0.33-0.24-0.972-0.72-1.291-0.96c-5.449,0.03-10.801-0.979-16.051-2.21c-1.36-1.59-3.37-1.91-5.31-2.24
	c-2.74-1.688-5.56-3.279-7.98-5.42c-1.94-1.47-3.86-2.96-5.78-4.46c-1.81-2.5-4.15-4.52-6.18-6.819
	c-1.62-2.391-2.94-4.961-4.41-7.439c-4.18-4.26-4.1-10.46-4.84-15.97c-1.22-3.851-0.77-7.931-1.69-11.83
	c-0.41-0.38-1.24-1.14-1.65-1.521c0.31-0.67,0.63-1.34,0.94-2.01c-0.62-1.18-1.14-2.4-1.83-3.54c-2.11,0.28-4.31,0.79-6.3-0.29
	C20.77,54.66,24.85,55.14,27.05,53.05 M29.62,53.18c-1.21,3.16,0.2,6.15,1.5,9c3.86,2.09,7.62,4.36,11.43,6.54
	c-0.21-2.56,0.11-5.21-0.52-7.7c-0.98-0.7-2.05-1.27-3.09-1.86C35.97,56.93,32.11,55.96,29.62,53.18 M45.56,62.44
	c-0.23,0.36-0.7,1.07-0.93,1.42c1.04,2.871,2.97,5.281,4.98,7.52c4.26-0.42,7.35,3.31,11.47,3.9c0.44-2.25,0.68-4.562,1.48-6.73
	C57.15,65.93,51.16,64.66,45.56,62.44 M117.82,62.44c-0.82,1.07,0.35,3.47,1.688,3.3C120.1,64.6,119.32,62.26,117.82,62.44
	 M114.24,67.811c2.109,2.379,0.83,5.779,1.189,8.649c1.1-0.93,2.149-1.93,2.84-3.21c-1.029-2.641-1.561-5.42-2.199-8.16
	C115.45,66,114.84,66.9,114.24,67.811 M119.1,67.16c-0.47,1.42,0,1.88,1.41,1.38C120.971,67.13,120.5,66.67,119.1,67.16
	 M106.63,71.891c0.55,1.391,1.12,2.779,1.729,4.149c-0.159,0.61-0.479,1.819-0.639,2.43c1.328-0.35,2.67-0.68,4.02-0.95
	c0.97-2.938,0.9-6.02,0.35-9.028C110.42,69.85,108.51,70.859,106.63,71.891 M64.56,71.78c0.2,1.61-0.26,3.11-1,4.51
	c0.97,0.49,1.98,0.899,3.02,1.24c1.67,0.2,3.31,0.54,4.97,0.85l-0.01,1.09c2.61-0.06,5.21-0.03,7.819-0.02
	c-0.01-1.94,0-3.87,0.031-5.8c-0.342-0.45-1.012-1.34-1.352-1.78c-4.141,0.21-7.97-1.57-12.02-1.97
	C65.65,70.37,64.93,71.311,64.56,71.78 M102.32,73.08c-2.73,0.279-5.461,0.7-8.211,0.43c0.131,1.971,0.201,3.94,0.229,5.92
	c2.222-0.188,4.66,0.53,6.722-0.52c1.34-0.84,2.959-0.54,4.448-0.59c-0.56-2.08-1.1-4.18-1.108-6.34
	C103.71,72.35,103.01,72.72,102.32,73.08 M81.83,73.02c0.01,2.11-0.01,4.222-0.061,6.33c3.351,0.142,6.701,0.11,10.041,0.062
	c-0.16-1.91-0.33-3.83-0.762-5.7C87.971,73.609,84.891,73.42,81.83,73.02 M37.02,88.98c0.58,3.34,2.75,6.05,4.56,8.818
	c0.94,1.08,1.8,2.221,2.64,3.381c2.2-2.149,1.19-5.189,0.54-7.761c-1.86-0.91-3.73-1.8-5.68-2.521
	C38.4,90.25,37.71,89.609,37.02,88.98 M48.45,95.73c-0.02,1.699-0.04,3.398-0.06,5.108c-0.43,0.92-2.54,1.54-1.95,2.722
	c4.29,3.1,8.08,6.898,12.8,9.369c0.8-3.939,4.16-6.971,3.09-11.271c-2.17-0.21-4.53-0.229-6.11-1.96
	C53.38,98.891,50.86,97.38,48.45,95.73 M65.17,103.17c-0.01,1.391-0.01,2.79-0.02,4.18c-1.27,2.221-2.08,4.65-3.1,6.98
	c2.88,1.21,5.79,2.45,8.83,3.23c2.58,0.278,5.181,0.479,7.71,1.108c0.061-3.608,0.9-7.17,0.53-10.812
	C74.359,106.609,69.83,104.7,65.17,103.17 M118.689,112.66c-0.66,1.33-2.271,2.57-3.811,1.58c0.17-0.641,0.521-1.9,0.689-2.54
	c0.439-1.25,0.891-2.49,1.289-3.75c-3.59,1.7-3.778,6.38-5.299,9.61c2.399-1.03,4.91-1.812,7.17-3.15
	c1.619-2.57,2.869-5.53,3.01-8.61C120.391,107.93,119.641,110.34,118.689,112.66 M81.76,108.12c0.12,3.51,0.25,7.04-0.189,10.54
	c2.891,1.64,6.4,0.609,9.57,0.859c0.299-1.069,0.68-2.109,1.139-3.109c0.041-1.16,0.062-2.32,0.08-3.471
	c0.021-0.799,1.951-2.229,0.602-2.649C89.15,109.99,85.29,109.75,81.76,108.12 M96.609,110.87c-1.609,1.71-1.159,4.46-1.42,6.66
	c-0.41,0.659-0.819,1.329-1.229,2c1.54,0,3.08,0,4.62,0.01c0.449-0.34,1.359-1.021,1.82-1.36c0.729-1.52,1.47-3.039,2.26-4.52
	c0.029-1,0.07-1.99,0.109-2.971C100.721,110.8,98.66,110.73,96.609,110.87 M106.43,111.01c-0.709,2.57-1.38,5.15-2.41,7.62
	c1.451-0.31,2.9-0.63,4.371-0.899c-0.229-2.819,1.699-5.189,2.5-7.801C109.4,110.26,107.9,110.58,106.43,111.01z"/>
<path fill="#F8F8F8" d="M29.62,53.18c2.49,2.78,6.35,3.75,9.32,5.98c1.04,0.59,2.11,1.16,3.09,1.86c0.63,2.49,0.31,5.14,0.52,7.7
	c-3.81-2.18-7.57-4.45-11.43-6.54C29.82,59.33,28.41,56.34,29.62,53.18z"/>
<path fill="#070707" d="M63.47,52.59c1.59,0.6,1.88,3.38,0.09,3.9c-3.03,0.74-6.27-0.17-9.28,0.8c-1.03,0.53-1.85,0.46-2.09-0.74
	c3.76-0.8,8.1,0.75,11.43-1.54C63.58,54.4,63.51,53.19,63.47,52.59z"/>
<path fill="#050706" d="M66.78,53.77c2.49-0.69,5.281-1.13,7.71,0.01c0.199,3.47-4.1,2.32-6.3,3c-0.18,1.59,0.29,3.42-0.82,4.76
	c2.78-1.31,3.649,2.3,1.48,3.69c-1.05-0.88-2.48-1.43-3.2-2.64c-0.25-2.08-0.17-4.17-0.26-6.26C65.85,55.48,66.32,54.62,66.78,53.77
	z"/>
<path fill="#FFFFFF" d="M133.09,56.94c0.301,0.14,0.9,0.4,1.21,0.53l-0.46,0.82h-0.93l-0.381-0.82L133.09,56.94z"/>
<path fill="#050505" d="M72.42,58.53c3.17,0.09,6.57-0.25,9.359,1.59c-0.069,0.96-0.271,1.9-0.59,2.82
	c-2.899-0.48-6.5-2.44-8.34,0.95C71.189,62.48,71.061,60.22,72.42,58.53z"/>
<path fill="#F7F7F7" d="M45.56,62.44c5.6,2.22,11.59,3.49,17,6.11c-0.8,2.17-1.04,4.48-1.48,6.73c-4.12-0.591-7.21-4.32-11.47-3.9
	c-2.01-2.239-3.94-4.649-4.98-7.52C44.86,63.51,45.33,62.8,45.56,62.44z"/>
<path fill="#F6F6F6" d="M117.82,62.44c1.5-0.18,2.279,2.16,1.688,3.3C118.17,65.91,117,63.51,117.82,62.44z"/>
<path fill="#F9F9F9" d="M114.24,67.811c0.6-0.91,1.21-1.811,1.83-2.721c0.64,2.74,1.17,5.52,2.199,8.16
	c-0.689,1.28-1.74,2.28-2.84,3.21C115.07,73.59,116.35,70.189,114.24,67.811z"/>
<path fill="#363636" d="M119.1,67.16c1.4-0.49,1.871-0.03,1.41,1.38C119.1,69.04,118.63,68.58,119.1,67.16z"/>
<path fill="#FAFAFA" d="M106.63,71.891c1.88-1.031,3.79-2.041,5.46-3.399c0.551,3.01,0.62,6.09-0.35,9.028
	c-1.35,0.271-2.69,0.602-4.02,0.95c0.158-0.61,0.479-1.819,0.639-2.43C107.75,74.67,107.18,73.28,106.63,71.891z"/>
<path fill="#F9F9F9" d="M64.56,71.78c0.37-0.47,1.09-1.41,1.46-1.88c4.05,0.398,7.88,2.18,12.02,1.97
	c0.34,0.44,1.01,1.33,1.351,1.78c-0.031,1.93-0.041,3.858-0.031,5.8c-2.608-0.011-5.209-0.04-7.818,0.02l0.01-1.09
	c-1.66-0.31-3.3-0.649-4.97-0.85c-1.04-0.341-2.05-0.75-3.02-1.24C64.3,74.891,64.76,73.391,64.56,71.78z"/>
<path fill="#F7F7F7" d="M102.32,73.08c0.688-0.36,1.39-0.73,2.08-1.1c0.01,2.16,0.55,4.26,1.108,6.34
	c-1.489,0.05-3.108-0.25-4.448,0.59c-2.062,1.05-4.5,0.33-6.722,0.52c-0.028-1.979-0.101-3.949-0.229-5.92
	C96.859,73.78,99.59,73.359,102.32,73.08z"/>
<path fill="#F7F7F7" d="M81.83,73.02c3.061,0.4,6.141,0.59,9.22,0.69c0.431,1.87,0.601,3.79,0.761,5.7
	c-3.34,0.05-6.689,0.08-10.041-0.061C81.82,77.24,81.84,75.13,81.83,73.02z"/>
<path fill="#F8F8F8" d="M37.02,88.98c0.69,0.629,1.38,1.27,2.06,1.92c1.95,0.72,3.82,1.608,5.68,2.52c0.65,2.57,1.66,5.61-0.54,7.76
	c-0.84-1.16-1.7-2.3-2.64-3.38C39.77,95.03,37.6,92.32,37.02,88.98z"/>
<path fill="#F9F9F9" d="M48.45,95.73c2.41,1.648,4.93,3.16,7.77,3.97c1.58,1.729,3.94,1.75,6.11,1.96c1.07,4.3-2.29,7.33-3.09,11.27
	c-4.72-2.47-8.51-6.27-12.8-9.369c-0.59-1.181,1.52-1.801,1.95-2.721C48.41,99.13,48.43,97.43,48.45,95.73z"/>
<path fill="#F8F8F8" d="M65.17,103.17c4.66,1.53,9.189,3.439,13.95,4.689c0.37,3.641-0.47,7.201-0.53,10.811
	c-2.529-0.63-5.13-0.83-7.71-1.109c-3.04-0.779-5.95-2.021-8.83-3.229c1.02-2.33,1.83-4.761,3.1-6.979
	C65.16,105.96,65.16,104.561,65.17,103.17z"/>
<path fill="#FAFAFA" d="M118.689,112.66c0.951-2.32,1.701-4.73,3.051-6.86c-0.141,3.08-1.391,6.04-3.01,8.61
	c-2.26,1.34-4.771,2.12-7.17,3.15c1.52-3.23,1.709-7.91,5.299-9.61c-0.399,1.26-0.851,2.5-1.289,3.75
	c-0.17,0.64-0.521,1.899-0.69,2.54C116.42,115.23,118.029,113.99,118.689,112.66z"/>
<path fill="#FDFDFD" d="M81.76,108.12c3.53,1.63,7.391,1.87,11.2,2.17c1.351,0.42-0.58,1.851-0.601,2.649
	c-0.021,1.149-0.039,2.311-0.08,3.471c-0.459,1-0.84,2.04-1.139,3.109c-3.17-0.25-6.682,0.779-9.57-0.859
	C82.01,115.16,81.88,111.63,81.76,108.12z"/>
<path fill="#F7F7F7" d="M96.609,110.87c2.051-0.14,4.111-0.07,6.16-0.181c-0.039,0.979-0.08,1.971-0.109,2.971
	c-0.79,1.48-1.53,3-2.26,4.52c-0.461,0.34-1.371,1.021-1.82,1.36c-1.54-0.01-3.08-0.01-4.62-0.01c0.41-0.671,0.819-1.341,1.229-2
	C95.45,115.33,95,112.58,96.609,110.87z"/>
<path fill="#F6F6F6" d="M106.43,111.01c1.471-0.43,2.971-0.75,4.461-1.08c-0.801,2.61-2.729,4.98-2.5,7.801
	c-1.471,0.271-2.92,0.59-4.371,0.899C105.05,116.16,105.721,113.58,106.43,111.01z"/>
<path fill="#FFFFFF" d="M19.17,132c2.57-2.15,3.99-5.27,6.04-7.859c2.82,2.5,3.37,8.34,8.04,7.619c-1.24-1.939-2.56-3.83-3.82-5.75
	c6.03,1.58,12.32,2.76,17.74,5.99H19.17z"/>
<path fill="#A8A8A8" d="M56.23,130.23C56.79,130.74,56.79,130.74,56.23,130.23z"/>
</svg>
