<?xml version="1.0" encoding="utf-8"?>
<!-- Generator: Adobe Illustrator 15.0.2, SVG Export Plug-In . SVG Version: 6.00 Build 0)  -->
<!DOCTYPE svg PUBLIC "-//W3C//DTD SVG 1.1//EN" "http://www.w3.org/Graphics/SVG/1.1/DTD/svg11.dtd">
<svg version="1.1" id="Layer_1" xmlns="http://www.w3.org/2000/svg" xmlns:xlink="http://www.w3.org/1999/xlink" x="0px" y="0px"
	 width="144px" height="163px" viewBox="0 0 144 163" enable-background="new 0 0 144 163" xml:space="preserve">
<path fill="#FFFFFF" d="M0,0h69.45C68.96,0.93,68.48,1.86,68,2.79c-1.98-1.3-4.25-1.87-6.59-2.05c-0.42,0.56-1.25,1.68-1.67,2.229
	c-3.68-0.04-7.38-0.03-11.01,0.64C45.02,4.39,41.32,3.3,37.65,2.9c-1.01,1.32-1.98,2.68-3.13,3.89c-2.21,0.23-4.37-0.61-6.58-0.68
	c-2.74,1.33-4.6,3.89-7.02,5.67c-2.46,1.2-5.29,1.17-7.95,1.53c-2.03,2.86-3.02,6.22-3.26,9.69c0.77,0,2.3-0.01,3.07-0.02
	c0.49-1.37,0.98-2.75,1.47-4.13c0.51,0.67,1.52,2.02,2.03,2.7c-2.62,1.93-4.59,4.6-5.6,7.7c-1.45,1.19-2.54,2.7-3.37,4.38
	c0.96,0.18,2.87,0.54,3.83,0.72c-3.5,3.79-8.86,6.27-10.15,11.7c-0.35,3.96-0.31,7.97,0.07,11.93c1.05,5.19,4.93,9.29,6.19,14.42
	c0.71,5.17,0.28,10.42,0.41,15.63c0.64,8.35-3.2,16.54-1.09,24.86c2.89,7.299,10.58,12.278,18.41,12.118
	c10.2-0.29,20.59,0.96,30.56-1.76c0.88,6.55,0.32,13.188,0.43,19.78c-0.49,0.31-1.47,0.938-1.96,1.25
	c-6.33-4.36-12.62-8.762-18.54-13.66c-1.98-2-4.91-1.561-7.46-1.79c-0.02,9.43-0.01,18.851-0.01,28.278
	c8.1-0.148,16.06-1.77,24-3.238c1.3,1.061,2.59,2.14,3.97,3.1c0.02,2.012,0.03,4.021,0.04,6.03H0V0z"/>
<path fill="#E92B18" d="M69.45,0h3.35c2.97,0.31,5.181,2.42,7.44,4.15c0.99-1.4,1.98-2.8,3.05-4.15h5.66
	c1.13,1.02,2.399,1.87,3.771,2.55C93.1,2.83,93.859,3.4,94.25,3.68c2.189-0.85,4.43-1.83,6.84-1.75c0.811,0.89,1.5,1.89,2.2,2.87
	c1.601-2.8,4.83-2.81,7.66-3.02c0.021,0.66,0.06,1.99,0.079,2.65c0.861,0.65,1.721,1.31,2.58,1.98c2.021,0.66,3.891,1.7,5.291,3.35
	c0.52,0.09,1.56,0.271,2.08,0.36c0.01,0.47,0.028,1.4,0.039,1.86c0.489,0.01,1.451,0.03,1.939,0.04c0.029,0.63,0.102,1.88,0.13,2.51
	c2.431,1.479,4.688,3.2,6.91,4.979c0,0.61,0,1.84,0,2.45c0.5,0.02,1.49,0.05,1.979,0.07c0.021,0.49,0.039,1.479,0.049,1.97
	c1.32,0,2.65,0,3.972,0c0,2.99,0,5.97,0,8.95c-0.5,0.03-1.511,0.07-2.011,0.1c0.011,1.66,0.021,3.32,0.029,4.98
	c-0.68-0.021-2.029-0.05-2.699-0.07c-0.109-0.34-0.33-1.02-0.439-1.36c-0.811-3.48-1.641-6.96-2.141-10.49
	c-0.989-0.48-1.989-0.94-2.989-1.41c-0.29-0.78-0.59-1.55-0.88-2.33c-2.66-2.19-4.842-4.92-7.67-6.9c-0.44-0.3-1.32-0.91-1.762-1.21
	c-0.06-0.22-0.18-0.66-0.238-0.88c-0.141-0.54-0.4-1.61-0.54-2.14c-2.57-0.7-6.25,0.01-7.302-3.15c-3.42-0.06-6.83-0.28-10.188-0.85
	c-0.812,0.93-1.601,1.86-2.42,2.77c-1.812,0.59-3.7,0.93-5.601,1.06c-0.311-0.27-0.939-0.82-1.25-1.1c-1-1.34-1.961-2.72-2.93-4.09
	c-2.281,2.3-5.451,2.27-8.461,2.19c-0.67-0.79-1.35-1.59-2.02-2.38c-0.85,1.3-1.69,2.61-2.53,3.91c-1.28-0.02-2.55-0.04-3.83-0.06
	c-1.07-1.17-2.14-2.33-3.22-3.49c-1.99,1.12-3.79,2.52-5.32,4.21c-0.45,0.12-1.36,0.37-1.81,0.49c-0.32,0.04-0.95,0.12-1.27,0.16
	c-0.88-0.97-1.77-1.93-2.65-2.9c-1.15,0-2.3,0-3.45,0.01c-0.55,0.93-1.13,1.84-1.72,2.74c-1.87,1.16-3.61-0.9-5.28-1.56
	c-0.55-0.08-1.65-0.24-2.2-0.31c-0.39,0.5-1.19,1.5-1.58,2c-0.61,0.06-1.83,0.18-2.43,0.24c-0.16,0.4-0.46,1.2-0.61,1.6
	c-2.61,1.08-5.49-0.15-7.53-1.85c-1.18,1.67-2.35,3.35-3.6,4.96c-0.5,0.35-0.99,0.68-1.49,1.02c-2.71,0.09-5.51,0.59-6.19,3.65
	c-0.38,0.26-1.12,0.78-1.5,1.04c-0.51-0.68-1.52-2.03-2.03-2.7c-0.49,1.38-0.98,2.76-1.47,4.13C12.01,22.99,10.48,23,9.71,23
	c0.24-3.47,1.23-6.83,3.26-9.69c2.66-0.36,5.49-0.33,7.95-1.53c2.42-1.78,4.28-4.34,7.02-5.67c2.21,0.07,4.37,0.91,6.58,0.68
	c1.15-1.21,2.12-2.57,3.13-3.89c3.67,0.4,7.37,1.49,11.08,0.71c3.63-0.67,7.33-0.68,11.01-0.64c0.42-0.55,1.25-1.67,1.67-2.229
	c2.34,0.18,4.61,0.75,6.59,2.05C68.48,1.86,68.96,0.93,69.45,0 M132.08,27.19C130.561,30.2,135.41,27.31,132.08,27.19z"/>
<path fill="#FFFFFF" d="M72.8,0h10.49c-1.069,1.35-2.06,2.75-3.05,4.15C77.98,2.42,75.77,0.31,72.8,0z"/>
<path fill="#FFFFFF" d="M88.95,0H144v163H64.99c0.01-2.02,0.02-4.03,0.03-6.04c1.41-0.96,2.74-2.03,4.08-3.069
	c7.259,2.869,14,7.42,21.871,8.459c0.039-9.279,0.069-18.56-0.021-27.84c-8.22,2.211-15.479,6.9-22.96,10.812
	c-0.95-0.83-1.93-1.61-2.95-2.32c-0.04-7.41-0.12-14.819,0.05-22.229c10.221-0.729,18.52-7.369,27.74-11.119
	c8.29-3.09,16.23-7.182,23.38-12.4c4.28-3.68,8.95-7.24,11.62-12.33c1.891-3.17,2.779-6.99,5.57-9.57
	c3.82-4.06,8.369-7.9,10.32-13.27c0.25-4.28,0.43-8.63-0.102-12.89c-2.479-4.28-6.051-7.77-9.602-11.16
	c-0.01-1.66-0.02-3.32-0.029-4.98c0.5-0.03,1.511-0.07,2.011-0.1c0-2.98,0-5.96,0-8.95c-1.319,0-2.649,0-3.972,0
	c-0.01-0.49-0.028-1.48-0.049-1.97c-0.49-0.021-1.479-0.05-1.979-0.07c0-0.61,0-1.84,0-2.45c-2.222-1.78-4.479-3.5-6.91-4.979
	c-0.028-0.63-0.101-1.88-0.13-2.51c-0.488-0.01-1.45-0.03-1.939-0.04c-0.011-0.46-0.029-1.39-0.039-1.86
	c-0.521-0.09-1.562-0.27-2.08-0.36c-1.4-1.65-3.271-2.69-5.291-3.35c-0.859-0.67-1.719-1.33-2.58-1.98
	c-0.021-0.66-0.059-1.99-0.079-2.65c-2.83,0.21-6.06,0.22-7.66,3.02c-0.7-0.979-1.39-1.979-2.2-2.87c-2.41-0.08-4.65,0.9-6.84,1.75
	c-0.391-0.28-1.15-0.85-1.529-1.13C91.35,1.87,90.08,1.02,88.95,0z"/>
<path fill="#FFFFFF" d="M59.59,10.26c1.53-1.69,3.33-3.09,5.32-4.21c1.08,1.16,2.15,2.32,3.22,3.49c1.28,0.02,2.55,0.04,3.83,0.06
	c0.84-1.3,1.681-2.61,2.53-3.91c0.67,0.79,1.35,1.59,2.02,2.38c3.01,0.08,6.18,0.11,8.461-2.19c0.969,1.37,1.93,2.75,2.93,4.09
	c-10.01-0.6-20.169-0.62-30.121,0.78C58.23,10.63,59.14,10.38,59.59,10.26z"/>
<path fill="#FFFFFF" d="M97.17,7.24c3.359,0.57,6.77,0.79,10.189,0.85c1.051,3.16,4.729,2.45,7.301,3.15
	c0.14,0.53,0.4,1.6,0.54,2.14c-1.979-1.16-3.86-2.82-6.28-2.81c-4.72-0.23-9.449-1.19-14.17-0.56C95.57,9.1,96.359,8.17,97.17,7.24z
	"/>
<path fill="#FCFCFC" d="M50.41,8.02c1.15-0.01,2.3-0.01,3.45-0.01c0.88,0.97,1.77,1.93,2.65,2.9c-5.92,0.45-11.94,0.43-17.74,1.85
	c-4.4,1.18-9.04,1.38-13.31,3.08c1.25-1.61,2.42-3.29,3.6-4.96c2.04,1.7,4.92,2.93,7.53,1.85c0.15-0.4,0.45-1.2,0.61-1.6
	c0.6-0.06,1.82-0.18,2.43-0.24c0.39-0.5,1.19-1.5,1.58-2c0.55,0.07,1.65,0.23,2.2,0.31c1.67,0.66,3.41,2.72,5.28,1.56
	C49.28,9.86,49.86,8.95,50.41,8.02z"/>
<path d="M57.78,10.75c9.95-1.4,20.111-1.38,30.121-0.78c0.311,0.28,0.939,0.83,1.25,1.1c1.899-0.13,3.789-0.47,5.601-1.06
	c4.722-0.63,9.45,0.33,14.17,0.56c2.42-0.01,4.302,1.65,6.28,2.81c0.061,0.22,0.18,0.66,0.238,0.88c0.44,0.3,1.32,0.91,1.762,1.21
	c7.109,5.15,9.71,13.74,13.68,21.13c0.11,0.34,0.33,1.02,0.439,1.36c0.671,0.02,2.021,0.05,2.699,0.07
	c3.551,3.39,7.121,6.88,9.602,11.16c0.529,4.26,0.352,8.61,0.102,12.89c-1.951,5.37-6.5,9.21-10.32,13.27
	c-2.791,2.58-3.68,6.4-5.57,9.57c-2.67,5.09-7.34,8.65-11.62,12.33c-7.149,5.22-15.09,9.311-23.38,12.4
	c-9.221,3.75-17.52,10.39-27.74,11.119c-0.17,7.41-0.09,14.819-0.05,22.229c-3.02-0.08-6.05-0.08-9.07,0.03
	c-0.11-6.592,0.45-13.23-0.43-19.78c-9.97,2.72-20.36,1.47-30.56,1.76c-7.83,0.16-15.52-4.819-18.41-12.118
	C4.46,104.57,8.3,96.38,7.66,88.03c-0.13-5.21,0.3-10.46-0.41-15.63c-1.26-5.13-5.14-9.23-6.19-14.42
	c-0.38-3.96-0.42-7.97-0.07-11.93c1.29-5.43,6.65-7.91,10.15-11.7c-0.96-0.18-2.87-0.54-3.83-0.72c0.83-1.68,1.92-3.19,3.37-4.38
	c1.01-3.1,2.98-5.77,5.6-7.7c0.38-0.26,1.12-0.78,1.5-1.04c2.18-1,4.29-2.16,6.19-3.65c0.5-0.34,0.99-0.67,1.49-1.02
	c4.27-1.7,8.91-1.9,13.31-3.08c5.8-1.42,11.82-1.4,17.74-1.85C56.83,10.87,57.46,10.79,57.78,10.75 M63.77,13.5
	c0.76,0.27,2.27,0.8,3.02,1.07c6.021-0.3,12.101-0.98,18.11-0.08c7.229,1.32,14.119,4.28,20.199,8.4
	c-0.551-0.04-1.649-0.13-2.199-0.17c-6.041-3.79-12.801-6.53-19.86-7.64c-10.75-1.09-21.4,1.53-32.12,1.87
	c-7.04,0.32-14.32-1.83-21.12,0.9c-6.18,2.5-13.05,5.59-16.11,11.93c3.25,0.18,6.51,0.36,9.75,0.03c2.45-0.19,2.75,1.58,2.57,3.58
	c-0.84,4.99,1.71,9.43,3.8,13.73c5.57,3.46,12.58,2.99,18.94,2.84c0.29-0.85,0.87-2.56,1.16-3.41c-5.85-3.68-13.08-3.26-19.72-3.65
	c-0.98-0.95-1.97-1.9-2.96-2.85c1.61-1.22,3.12-2.6,4.87-3.62c3.59-0.34,7.25-0.31,10.83,0.2c3.94,0.62,7.06,3.3,9.9,5.91
	c1-0.59,1.99-1.17,2.99-1.75c0.97-3.17,1.4-6.46,1.21-9.78c0-0.75,0-2.26,0-3.01c0.71,0,2.13,0,2.85,0c0.02,0.5,0.08,1.5,0.11,1.99
	c-0.14,4.31,0.71,8.9-1.15,12.96c-1.37,2.55-3.21,4.85-4.3,7.56c-2.63,3.31-6.08,5.71-9.09,8.61c1.91,2.87,4.28,5.43,7.22,7.26
	c1.32-0.78,2.64-1.55,3.99-2.27c0.18,1.7,0.53,4.11-1.57,4.77c-5.4,1.45-9.17-3.45-11.88-7.3c-0.54,0.45-1.63,1.34-2.18,1.79
	c-0.37-0.57-1.11-1.71-1.47-2.27c-3.27,1-6.29,2.62-9.48,3.81c2.61-3.02,7.03-3.2,9.67-6.15c2.33-2.13,4.85-4.06,7.58-5.64
	c-4.13,0.13-8.43-0.8-12.42,0.65c-2.65,1-5.49,1.27-8.31,1.1c-0.96-2.39-2.52-4.93-5.52-4.53c-3.05-0.86-5.03,1.91-7.7,2.5
	c-0.76-1.29-0.56-2.82,0.65-3.75c3.12-3.2,8.13-1.44,12-1.08c-1.25-1.93-2.27-3.99-3.17-6.11c-2.87-0.13-5.73-0.45-8.6-0.48
	c-2.05,1.93-4.37,3.52-6.54,5.3c-3.11,3.25-2.59,8.29-0.91,12.11c1.44,3.83,6.38,3.31,8.77,6.22c-3.11-0.87-6.23-1.99-8.87-3.9
	c-1.5-2.34-1.09-5.5-2.93-7.66c-0.26,5.38,3.23,9.72,5.42,14.32c2.03,4.11,1.35,8.8,1.45,13.22c-0.09,5.31,0.23,10.649-0.28,15.95
	c-0.76,4.34-1.69,8.729-1.29,13.17c1.3,3.539,3.37,7.08,6.76,8.99c7.1,4.729,16.04,4.25,24.18,3.908
	c8.26-1.449,16.52-3.148,24.53-5.68c2.88-0.979,6.15-0.271,8.841-1.88c8.539-4.312,17.039-8.74,26.01-12.091
	c11.091-5.779,23.471-12.689,27.899-25.159c1.2-2.95,3.69-5.07,5.86-7.28l-4.061,0.91c2.041-1.37,4.391-2.13,6.51-3.35
	c4.021-4.34,7.371-10.43,5.551-16.49c-2.141-4.86-5.92-8.89-10.18-11.99c1.898,2.76,4.119,5.3,6.188,7.94
	c-0.108,5.56,0.79,11.47-1.562,16.71c-1.858,2.99-5.639,3.66-8.83,4.26c2.49-1.56,5.48-2.37,7.691-4.35
	c2.6-4.78,1.869-10.46,1.729-15.68c-1.389-2.72-3.629-4.92-5.469-7.34c-0.61,0.11-1.82,0.34-2.42,0.45l0.789-1.74
	c-3.109,0.09-6.229,0.15-9.33-0.22c3.211-1.07,6.631-0.81,9.961-0.68c-2.15-2.62-3.91-5.51-5.852-8.27
	c-5.04-0.16-10.08-0.15-15.109-0.06c0,0.5,0.01,1.49,0.021,1.99c-0.66-0.65-1.31-1.3-1.96-1.95c-0.66-0.04-1.971-0.12-2.631-0.16
	c0.611,3-0.789,6.08,0.301,9.01c2.77-1.07,5.59,0.06,8.37,0.32c-0.81,0.68-1.62,1.37-2.421,2.06c-0.67-0.02-2-0.06-2.67-0.08
	c0.031,0.55,0.091,1.66,0.121,2.21c-0.91-0.31-1.82-0.61-2.722-0.91c0.53-0.14,1.601-0.43,2.142-0.57c0.34-1.04,0.68-2.07,1.02-3.11
	c-1.43,0.09-2.84,0.29-4.24,0.61c-0.869,2.87-1.629,5.77-2.41,8.66c4.472-1.57,8.892-3.28,13.201-5.24
	c3.319-0.28,6.779-0.54,10.021,0.4c4.948,2,7.89,7.45,7.948,12.65c0.222,3.49-2.06,6.41-3.92,9.13c-2.979-2.37-0.02-5.4,0.521-8.17
	c1.318-3.43-1.45-6.48-3.41-8.98c-2.46-2.93-6.609-2.4-9.988-1.97c-4.371,2.46-9.102,4.18-14.052,5.01
	c-3.438,0.19-5.278,3.6-8.46,4.45c-4.061,1.55-8.488,0.14-12.609,1.31c3.92,0.73,7.931,0.08,11.84,0.83
	c-4.67,0.17-9.899,1.2-14.079-1.45c0.05,2.25,0.05,4.5-0.011,6.75c-1.141,0.71-2.239,1.52-3.521,1.99
	c-1.37,0.32-1.489-1.4-2.16-2.13c0.91-0.66,1.82-1.32,2.74-1.97c0.021-1.01,0.04-2.03,0.062-3.04C73.1,58.22,70.3,57.77,68,56.14
	c1.69-0.63,3.43-1.11,5.18-1.53c-3.229-1.36-3.958-5.36-6.91-7.11c-1.34-5.87-4.44-11.34-4.45-17.51c0.07-0.74,0.21-2.24,0.29-2.98
	c0.71-0.01,2.13-0.01,2.84-0.02c-0.01,0.8-0.03,2.4-0.04,3.2c1.05,3.22,1.63,6.6,3.02,9.72c3.64-2.79,7.31-5.96,11.97-6.79
	c7.14-1.27,14.67-0.43,21.07,3.08c0-2.14-0.041-4.29-0.111-6.43c0.08-0.77,0.24-2.3,0.311-3.07c1.25,0.44,2.5,0.88,3.75,1.33
	c2.1-0.021,4.2-0.1,6.301-0.23c-1.979-1.45-4.021-2.8-6.061-4.15l0.05-0.69c2.64,1.55,5.021,3.56,7.79,4.92
	c3.41,0.29,6.85,0.07,10.279,0.11c-2.629-4.57-5.529-9.21-9.969-12.23c-4.972-3.81-11.57-2.22-17.34-3.12
	C85.25,12.96,74.37,11.63,63.77,13.5 M40.79,15.78c8.04,1.06,16.12-0.21,24.15-0.67c-0.52-0.47-1.55-1.41-2.07-1.87
	C55.52,13.96,47.91,13.79,40.79,15.78 M14.52,33.16c-1.11,2.76-2.37,5.68-5.02,7.3c-3.68,2.3-6.37,6.41-5.71,10.91
	c2.09-4.54,5.58-8.32,10.1-10.49c2.93-0.56,5.95-0.05,8.85,0.46c0.15-2.78,0.27-5.56,0.3-8.35C20.2,32.94,17.35,32.96,14.52,33.16
	 M70.74,42.06c0.61,0.3,1.83,0.89,2.449,1.18c3.711-0.73,6.871-3.3,10.75-3.55c-0.33-1.37-0.649-2.75-0.969-4.12
	C78.4,36.63,74.15,38.83,70.74,42.06 M95.66,38.11c0.77,2.02,2.84,2.08,4.689,2.16C99.07,39.03,97.359,38.49,95.66,38.11
	 M33.34,39.85c1.71,0.65,5.17,1.13,6.26-0.35C37.79,38.98,34.59,38.39,33.34,39.85 M72.08,47.4c0.84,1.18,1.641,2.37,2.41,3.59
	c1.8,0.57,3.65,0.97,5.51,1.31c0,0.42,0.01,1.27,0.01,1.69c4.94,0.1,10.34,0.57,14.54-2.57c-2.43-1.51-5.069-2.85-6.88-5.13
	c-1.449-1.01,0.43-2.21,0.95-3.07c2.42,2.05,5,3.9,7.8,5.41c1.109-1.51,2.17-3.04,3.1-4.67c-4.27-1.93-9.06-2.05-13.64-1.59
	C80.91,42.95,76.9,46.32,72.08,47.4z"/>
<path fill="#FDFDFD" d="M63.77,13.5c10.6-1.87,21.48-0.54,32.201-0.86c5.771,0.9,12.369-0.69,17.34,3.12
	c4.439,3.021,7.34,7.66,9.969,12.23c-3.43-0.04-6.868,0.18-10.278-0.11c-2.771-1.36-5.149-3.37-7.79-4.92l-0.109-0.07
	c-6.08-4.12-12.971-7.08-20.199-8.4c-6.01-0.9-12.09-0.22-18.11,0.08C66.04,14.3,64.53,13.77,63.77,13.5z"/>
<path fill="#F7F7F7" d="M40.79,15.78c7.12-1.99,14.73-1.82,22.08-2.54c0.52,0.46,1.55,1.4,2.07,1.87
	C56.91,15.57,48.83,16.84,40.79,15.78z"/>
<path fill="#FDFDFD" d="M50.92,16.95c10.72-0.34,21.37-2.96,32.12-1.87c7.06,1.11,13.819,3.85,19.86,7.64
	c-1.78-0.05-3.551-0.08-5.32-0.15c-7.859-2.87-16.15-4.76-24.561-4.47c-3.771-0.06-7.279,1.47-10.979,1.91
	c-9.7,1.36-19.49,0.08-29.17-0.87c-2.35-0.35-3.83,1.93-5.46,3.19c1.87-0.65,3.71-1.39,5.53-2.15c9.32,1.11,18.78,2.32,28.15,1.05
	c3.99-0.47,7.9-1.54,11.93-1.74c7.142-0.37,14.26,0.96,21.051,3.11c-6.971,1.21-14-0.47-21.01,0.13
	c-7.629,0.66-15.351-0.36-22.931,0.93c-5.12,0.82-10.41-0.33-15.45,1.09c-3.2,0.88-6.51,1.27-9.82,1.39
	c-0.48,1.22-0.96,2.44-1.42,3.67c-3.24,0.33-6.5,0.15-9.75-0.03c3.06-6.34,9.93-9.43,16.11-11.93
	C36.6,15.12,43.88,17.27,50.92,16.95z"/>
<path fill="#FCFCFC" d="M117.2,15.47c2.829,1.98,5.01,4.71,7.67,6.9c0.29,0.78,0.59,1.55,0.88,2.33c1,0.47,2,0.93,2.99,1.41
	c0.5,3.53,1.33,7.01,2.14,10.49C126.91,29.21,124.311,20.62,117.2,15.47z"/>
<path fill="#FDFDFD" d="M17.78,20.51c0.68-3.06,3.48-3.56,6.19-3.65C22.07,18.35,19.96,19.51,17.78,20.51z"/>
<path d="M62.04,20.01c3.7-0.44,7.21-1.97,10.979-1.91c8.41-0.29,16.701,1.6,24.561,4.47c-1.17,0-2.34,0.01-3.51,0.03
	c-6.791-2.15-13.91-3.48-21.051-3.11c-4.029,0.2-7.939,1.27-11.931,1.74c-9.37,1.27-18.83,0.06-28.15-1.05
	c-1.82,0.76-3.66,1.5-5.53,2.15c1.63-1.26,3.11-3.54,5.46-3.19C42.55,20.09,52.34,21.37,62.04,20.01z"/>
<path fill="#834011" d="M50.13,23.66c7.58-1.29,15.3-0.27,22.931-0.93c7.01-0.6,14.039,1.08,21.01-0.13
	c1.171-0.02,2.341-0.03,3.511-0.03c1.771,0.07,3.54,0.1,5.319,0.15c0.551,0.04,1.649,0.13,2.199,0.17l0.11,0.07l-0.05,0.69
	c-0.1,1.46-0.17,2.92-0.24,4.38c-1.25-0.45-2.5-0.89-3.75-1.33c-0.07,0.77-0.23,2.3-0.311,3.07c-9.689,1.46-19.719,2.11-29.359,0.04
	c-0.97-0.11-1.95-0.11-2.92-0.08c-1.23,0.13-2.45,0.29-3.67,0.46c0.01-0.8,0.03-2.4,0.04-3.2C64.24,27,62.82,27,62.11,27.01
	c-0.08,0.74-0.22,2.24-0.29,2.98c-0.46,0-1.37,0-1.83,0C59.96,29.5,59.9,28.5,59.88,28c-0.72,0-2.14,0-2.85,0c0,0.75,0,2.26,0,3.01
	c-1.9-0.02-3.8-0.06-5.7-0.06c-0.45,0.02-1.35,0.04-1.79,0.06c-4.24,0.34-8.3,1.89-12.57,1.94c-3.66,0.11-7.31,0.31-10.96,0.44
	c0.18-2-0.12-3.77-2.57-3.58c0.46-1.23,0.94-2.45,1.42-3.67c3.31-0.12,6.62-0.51,9.82-1.39C39.72,23.33,45.01,24.48,50.13,23.66z"/>
<path fill="#F3F3F3" d="M104.92,28.03c0.07-1.46,0.141-2.92,0.24-4.38c2.04,1.35,4.08,2.7,6.061,4.15
	C109.12,27.93,107.02,28.01,104.92,28.03z"/>
<path fill="#F6A8A0" d="M132.08,27.19C135.41,27.31,130.561,30.2,132.08,27.19z"/>
<path d="M68.58,29.73c0.97-0.03,1.95-0.03,2.92,0.08c-0.35,1.48-0.72,2.95-1.12,4.41C69.72,32.75,69.14,31.24,68.58,29.73z"/>
<path fill="#FDFDFD" d="M59.99,29.99c0.46,0,1.37,0,1.83,0c0.01,6.17,3.11,11.64,4.45,17.51c2.95,1.75,3.68,5.75,6.91,7.11
	c-1.75,0.42-3.49,0.9-5.18,1.53c2.3,1.63,5.1,2.08,7.811,2.57c-0.021,1.01-0.041,2.03-0.061,3.04c-0.92,0.65-1.83,1.31-2.74,1.97
	c0.67,0.73,0.79,2.45,2.16,2.13c1.28-0.47,2.38-1.28,3.52-1.99c0.062-2.25,0.062-4.5,0.012-6.75c4.18,2.65,9.408,1.62,14.078,1.45
	c-3.908-0.75-7.92-0.1-11.84-0.83c4.121-1.17,8.552,0.24,12.61-1.31c3.181-0.85,5.021-4.26,8.46-4.45
	c4.95-0.83,9.68-2.55,14.051-5.01c3.379-0.43,7.529-0.96,9.989,1.97c1.96,2.5,4.729,5.55,3.41,8.98c-0.54,2.77-3.5,5.8-0.521,8.17
	c1.859-2.72,4.141-5.64,3.92-9.13c-0.061-5.2-3-10.65-7.949-12.65c-3.24-0.94-6.7-0.68-10.02-0.4c-4.312,1.96-8.73,3.67-13.201,5.24
	c0.781-2.89,1.541-5.79,2.41-8.66c1.399-0.32,2.811-0.52,4.239-0.61c-0.34,1.04-0.68,2.07-1.021,3.11
	c-0.541,0.14-1.609,0.43-2.141,0.57c0.9,0.3,1.812,0.6,2.721,0.91c-0.029-0.55-0.09-1.66-0.121-2.21c0.672,0.02,2,0.06,2.672,0.08
	c0.8-0.69,1.609-1.38,2.42-2.06c-2.78-0.26-5.602-1.39-8.37-0.32c-1.09-2.93,0.312-6.01-0.3-9.01c0.658,0.04,1.97,0.12,2.63,0.16
	c0.649,0.65,1.3,1.3,1.96,1.95c-0.012-0.5-0.021-1.49-0.021-1.99c5.03-0.09,10.07-0.1,15.11,0.06c1.94,2.76,3.7,5.65,5.851,8.27
	c-3.33-0.13-6.75-0.39-9.961,0.68c3.102,0.37,6.222,0.31,9.33,0.22l-0.789,1.74c0.601-0.11,1.811-0.34,2.42-0.45
	c1.84,2.42,4.08,4.62,5.471,7.34c0.14,5.22,0.869,10.9-1.729,15.68c-2.212,1.98-5.201,2.79-7.691,4.35
	c3.191-0.6,6.971-1.27,8.83-4.26c2.351-5.24,1.451-11.15,1.561-16.71c-2.07-2.64-4.29-5.18-6.189-7.94
	c4.261,3.1,8.039,7.13,10.181,11.99c1.819,6.06-1.53,12.15-5.552,16.49c-2.118,1.22-4.469,1.98-6.51,3.35l4.062-0.91
	c-2.17,2.21-4.66,4.33-5.86,7.28c-4.43,12.47-16.81,19.38-27.898,25.16c-8.971,3.35-17.471,7.778-26.01,12.09
	c-2.69,1.609-5.96,0.9-8.842,1.88c-8.01,2.53-16.27,4.229-24.53,5.68c-8.14,0.341-17.08,0.82-24.18-3.909
	c-3.39-1.91-5.46-5.451-6.76-8.99c-0.4-4.439,0.53-8.83,1.29-13.17c0.51-5.301,0.19-10.641,0.28-15.949
	c-0.1-4.42,0.58-9.11-1.45-13.22c-2.19-4.6-5.68-8.94-5.42-14.32c1.84,2.16,1.43,5.32,2.93,7.66c2.64,1.91,5.76,3.03,8.87,3.9
	c-2.39-2.91-7.33-2.39-8.77-6.22c-1.68-3.82-2.2-8.86,0.91-12.11c2.17-1.78,4.49-3.37,6.54-5.3c2.87,0.03,5.73,0.35,8.6,0.48
	c0.9,2.12,1.92,4.18,3.17,6.11c-3.87-0.36-8.88-2.12-12,1.08c-1.21,0.93-1.41,2.46-0.65,3.75c2.67-0.59,4.65-3.36,7.7-2.5
	c3-0.4,4.56,2.14,5.52,4.53c2.82,0.17,5.66-0.1,8.31-1.1c3.99-1.45,8.29-0.52,12.42-0.65c-2.73,1.58-5.25,3.51-7.58,5.64
	c-2.64,2.95-7.06,3.13-9.67,6.15c3.19-1.19,6.21-2.81,9.48-3.81c0.36,0.56,1.1,1.7,1.47,2.27c0.55-0.45,1.64-1.34,2.18-1.79
	c2.71,3.85,6.48,8.75,11.88,7.3c2.1-0.66,1.75-3.07,1.57-4.77c-1.35,0.72-2.67,1.49-3.99,2.27c-2.94-1.83-5.31-4.39-7.22-7.26
	c3.01-2.9,6.46-5.3,9.09-8.61c1.09-2.71,2.93-5.01,4.3-7.56C60.7,38.89,59.85,34.3,59.99,29.99 M10.17,47.33
	c-0.74,3.09-0.73,6.3-1.06,9.45c1.57,1.6,3.09,3.55,5.57,3.53c-1.63-1.44-3.27-2.85-4.86-4.33c0.47-2.66,0.85-5.33,1.12-8.02
	c1.9-1.1,3.86-2.13,5.51-3.59C14.22,45.01,11.94,45.76,10.17,47.33 M117.79,48.12c-0.819,1.46-1.59,2.94-2.33,4.44
	c-14.91,8.55-31.71,12.85-48.26,16.93c-8.95,1.06-18.15,2.75-27.1,0.79c-5.57-0.73-11.18-3.18-15-7.38
	c-2.53-2.64-1.73-6.49-1.95-9.79c-2.62,0.13-3.1,2.59-3.24,4.77C15.78,62.89,16.9,69.96,16.58,76c-0.48,6.29,0.98,12.67,4.44,17.96
	c5.97,4.58,13.79,5.19,21.04,5.601c11.32,1.521,22.76,0.221,34.049-0.971c6.961-2.029,14.181-4.01,20.07-8.439
	c6.43-4.09,12.189-9.271,16.449-15.629c2.512-3.27,4.182-7.21,7.45-9.85c-0.25-0.39-0.75-1.16-1-1.55
	c0.649-1.27,1.3-2.55,1.938-3.83c2.301,1.28,4.812,0.76,7.11-0.24c-2.06-2.11-5.01-2.59-7.59-3.76
	C119.54,52.93,118.87,50.45,117.79,48.12 M59.87,62.24c2.47,2.27,5.72,1.13,8.61,0.74c1.07,0.92,2.26,2.64,3.46,0.77
	c-0.07-1.17,0.35-2.78-0.88-3.48C67.19,59.59,63.2,60.05,59.87,62.24 M95.859,96.02c-7.34,3.771-15.149,6.49-22.939,9.16
	c-5.1,1.76-10.55,1.59-15.87,1.7c-7.94,0.46-16.09,1.649-23.93-0.101c-4.5-0.909-7.67-4.26-11.17-6.899
	c1.51,2.78,3.9,5.021,6.79,6.33c6.33,3.12,13.58,2.09,20.37,2.09c5.8-0.58,11.62-0.69,17.44-0.8c0.88,0.41,1.73,0.88,2.56,1.391
	c-12.88,2.5-26.03,3.459-39.15,3.239c-5.16,0.06-9-3.84-13.32-6.06c0.02-1.59,0.04-3.18,0.06-4.78c-0.26,0.29-0.8,0.86-1.07,1.149
	c0.09,1.399,0.19,2.819,0.31,4.229c3.32,2.101,6.51,4.53,10.25,5.86c16.06,1.119,32.28-0.4,47.951-4.04
	c6.139-1.312,12.34-2.632,18.029-5.37c7.189-3.352,14.83-6.141,21.08-11.16c-5.07,1.75-9.471,4.91-14.359,7.061
	c-8.971,4.601-18.631,7.67-28.541,9.439c-0.81-0.45-1.62-0.91-2.42-1.37c5.291-0.319,10.03-2.858,15.009-4.42
	c8.261-2.59,15.66-7.16,23.49-10.74C102.52,92.109,99.26,94.37,95.859,96.02 M39.03,103.641c8.75,0.579,17.64,0.779,26.36-0.109
	c-4.75-0.932-9.61-0.422-14.41-0.53C47,103.08,42.93,102.561,39.03,103.641z"/>
<path fill="#FDFDFD" d="M64.91,30.19c1.22-0.17,2.44-0.33,3.67-0.46c0.56,1.51,1.14,3.02,1.8,4.49c0.4-1.46,0.77-2.93,1.12-4.41
	c9.641,2.07,19.67,1.42,29.359-0.04c0.07,2.14,0.111,4.29,0.111,6.43c-6.4-3.51-13.932-4.35-21.07-3.08
	c-4.66,0.83-8.332,4-11.97,6.79C66.54,36.79,65.96,33.41,64.91,30.19z"/>
<path fill="#FDFDFD" d="M36.97,32.95c4.27-0.05,8.33-1.6,12.57-1.94c0.43,2.6,0.67,5.24,1.14,7.85c0.34-2.63,0.52-5.27,0.65-7.91
	c1.9,0,3.8,0.04,5.7,0.06c0.19,3.32-0.24,6.61-1.21,9.78c-1,0.58-1.99,1.16-2.99,1.75c-2.84-2.61-5.96-5.29-9.9-5.91
	c-3.58-0.51-7.24-0.54-10.83-0.2c-1.75,1.02-3.26,2.4-4.87,3.62c0.99,0.95,1.98,1.9,2.96,2.85c6.64,0.39,13.87-0.03,19.72,3.65
	c-0.29,0.85-0.87,2.56-1.16,3.41c-6.36,0.15-13.37,0.62-18.94-2.84c-2.09-4.3-4.64-8.74-3.8-13.73
	C29.66,33.26,33.31,33.06,36.97,32.95z"/>
<path d="M49.54,31.01c0.44-0.02,1.34-0.04,1.79-0.06c-0.13,2.64-0.31,5.28-0.65,7.91C50.21,36.25,49.97,33.61,49.54,31.01z"/>
<path fill="#FDFDFD" d="M14.52,33.16c2.83-0.2,5.68-0.22,8.52-0.17c-0.03,2.79-0.15,5.57-0.3,8.35c-2.9-0.51-5.92-1.02-8.85-0.46
	c-4.52,2.17-8.01,5.95-10.1,10.49c-0.66-4.5,2.03-8.61,5.71-10.91C12.15,38.84,13.41,35.92,14.52,33.16z"/>
<path fill="#FEFEFE" d="M70.74,42.06c3.41-3.23,7.66-5.43,12.23-6.49c0.318,1.37,0.639,2.75,0.969,4.12
	c-3.879,0.25-7.039,2.82-10.75,3.55C72.57,42.95,71.35,42.36,70.74,42.06z"/>
<path fill="#FDFDFD" d="M95.66,38.11c1.699,0.38,3.41,0.92,4.689,2.16C98.5,40.19,96.43,40.13,95.66,38.11z"/>
<path fill="#FCFCFC" d="M33.34,39.85c1.25-1.46,4.45-0.87,6.26-0.35C38.51,40.98,35.05,40.5,33.34,39.85z"/>
<path fill="#FDFDFD" d="M72.08,47.4c4.82-1.08,8.83-4.45,13.8-5.03c4.58-0.46,9.37-0.34,13.64,1.59c-0.93,1.63-1.99,3.16-3.1,4.67
	c-2.8-1.51-5.38-3.36-7.8-5.41c-0.521,0.86-2.399,2.061-0.95,3.07c1.811,2.28,4.45,3.62,6.88,5.13c-4.2,3.14-9.6,2.67-14.54,2.57
	c0-0.42-0.01-1.271-0.01-1.69c-1.859-0.34-3.71-0.74-5.51-1.31C73.721,49.77,72.92,48.58,72.08,47.4z"/>
<path d="M10.17,47.33c1.77-1.57,4.05-2.32,6.28-2.96c-1.65,1.46-3.61,2.49-5.51,3.59c-0.27,2.69-0.65,5.36-1.12,8.02
	c1.59,1.48,3.23,2.89,4.86,4.33c-2.48,0.02-4-1.93-5.57-3.53C9.44,53.63,9.43,50.42,10.17,47.33z"/>
<path d="M117.79,48.12c1.08,2.33,1.75,4.81,2.75,7.17c2.58,1.17,5.53,1.65,7.59,3.76c-2.3,1-4.81,1.52-7.11,0.24
	c-0.64,1.28-1.289,2.56-1.938,3.83c0.25,0.39,0.75,1.16,1,1.55c-3.271,2.64-4.938,6.58-7.45,9.85
	c-4.26,6.36-10.021,11.541-16.449,15.63c-5.891,4.43-13.109,6.41-20.07,8.438c-11.291,1.19-22.729,2.49-34.049,0.972
	c-7.25-0.41-15.07-1.021-21.04-5.602C17.56,88.67,16.1,82.29,16.58,76c0.32-6.04-0.8-13.11,3.33-18.12
	c0.14-2.18,0.62-4.64,3.24-4.77c0.22,3.3-0.58,7.15,1.95,9.79c3.82,4.2,9.43,6.65,15,7.38c8.95,1.96,18.15,0.27,27.1-0.79
	c16.55-4.08,33.35-8.38,48.26-16.93C116.2,51.06,116.971,49.58,117.79,48.12 M116.93,55.49c-2.779,1.49-5.56,2.97-8.438,4.26
	l-0.12,0.41c-2,0.42-3.99,1.2-5.182,2.98c1.701-0.05,3.42-0.43,4.762-1.52l-0.4,1.51c-3.658-0.34-4.51,3.38-4.609,6.23
	c4.131-1.9,8.431-3.59,12.261-6.07C116.57,60.96,118.77,58.13,116.93,55.49 M20.51,64.26c-0.19,0.41-0.57,1.25-0.76,1.67
	C21.08,69.14,23.81,62.34,20.51,64.26 M81.05,69.67c2.25,2.44,6.47,0.81,7.8-1.84c-0.07,0.64-0.199,1.94-0.27,2.59
	c-2.16,0.7-4.29,1.48-6.45,2.16c0.351,0.84,1.05,2.54,1.399,3.38c3.971-1.77,7.971-3.63,12.301-4.31c1.68-1.68,3.35-3.37,5.061-5.02
	c-1.75,0.19-3.5,0.33-5.25,0.41c1.84-1.01,3.75-1.9,5.58-2.92C94.3,64.83,87.42,66.78,81.05,69.67 M24.2,66.48
	c-0.92,2.62-1.77,5.26-2.6,7.91c1.07,0.75,2.14,1.5,3.21,2.26c-0.1-2.9-0.1-5.85,0.86-8.63C25.3,67.64,24.56,66.87,24.2,66.48
	 M19.18,68.13C19.32,71.47,22.16,66.59,19.18,68.13 M103.311,73.16c0.719,0.55,1.449,1.1,2.17,1.66c-1.451,0.45-2.42,1.7-3.021,3.02
	c0.521,0.72,1.06,1.41,1.63,2.09c1.381-1.52,2.77-3.05,3.82-4.82c1.3-0.73,1.811-2.3,2.72-3.39l0.13-0.01
	c0.561-0.93,1.131-1.86,1.7-2.78C109.68,70.94,106.09,71.13,103.311,73.16 M28.08,69.83c-0.21,1.16-0.41,2.33-0.62,3.49l0.23-0.02
	c0.35,1.42,0.7,2.84,1.06,4.26c1.29,0.45,2.58,0.9,3.87,1.36c0.25-2.2-0.73-5,1.24-6.64c-0.93-0.48-1.85-0.96-2.77-1.45L30.82,70
	C30.14,69.95,28.77,69.87,28.08,69.83 M73.971,70.78c-1.121,1.17-0.801,3.65,1.539,2.31c2.061,0.46,2.971-1.16,3.881-2.59
	C77.58,70.57,75.779,70.7,73.971,70.78 M36.7,72.86c-0.31,1.96-0.72,3.89-1.25,5.8c3.95,0.3,7.88,0.75,11.84,0.77
	c-0.01-0.6-0.02-1.79-0.02-2.39c-1.36-0.01-4.07-0.04-5.43-0.05c1.5-1.13,3.39-1.07,5.17-1.12c0.3-0.42,0.9-1.26,1.2-1.68
	c-1.78,0.01-3.57,0.02-5.35,0.04l0.64-1.3c-0.99,0.09-2.98,0.29-3.97,0.38C39.08,72.14,37.61,73,36.7,72.86 M63.41,73.45
	c0.13,0.35,0.38,1.04,0.5,1.39c1.84,0.05,3.67,0.18,5.5,0.38c-1.82,0.71-3.76,0.812-5.67,0.99c0.01,0.81,0.03,2.44,0.04,3.25
	c5.59,0.25,11.06-1.1,16.43-2.46c-0.319-1.27-0.64-2.55-0.96-3.82c-2.279,0.56-4.609,0.9-6.86,1.59c0.11-1.96-1.62-4.76-3.88-2.29
	C66.8,72.78,65.11,73.1,63.41,73.45 M56.68,74.22c-0.97-0.03-2.93-0.1-3.9-0.13c-2.5-1.72-2.23,3.68,0.11,1.78l-0.11,1.15
	c-0.68,0.01-2.04,0.05-2.72,0.07c0.07,0.56,0.21,1.69,0.29,2.25c3.45-0.01,6.9-0.01,10.36,0.01c0.06-0.56,0.19-1.68,0.25-2.23
	c-1.82-0.07-3.64-0.13-5.46-0.13l0.4-0.97c1.66-0.02,3.32-0.05,4.97-0.09c-0.05-0.71-0.15-2.13-0.19-2.84
	C59.43,73.54,57.45,73.04,56.68,74.22 M84.7,80.77c0.06,1.72,0.13,3.44,0.19,5.16c1.938-0.93,3.879-1.88,5.868-2.72
	c0.57-0.069,1.722-0.22,2.29-0.3c-2.311,1.33-4.738,2.43-7.14,3.58c0.812,1.6,1.63,3.21,2.47,4.8c4.62-2.96,9.16-6.05,13.641-9.22
	c-1-1.05-1.99-2.102-2.99-3.15c-1.649,1.12-3.279,2.28-4.959,3.37c0-0.43,0-1.3,0-1.74l0.709,0.25c1.641-1.07,3.271-2.14,4.9-3.21
	c0.051-0.67,0.149-2.01,0.199-2.68C94.95,77.19,90.061,79.68,84.7,80.77 M66.77,86.26c0,1.69,0,3.381,0,5.08
	c1.97-0.66,5.46-0.16,6.24-2.46c-0.1,0.61-0.31,1.83-0.42,2.44c-1.93,0.38-3.88,0.59-5.83,0.859c0.24,1.479,0.49,2.961,0.73,4.449
	c6.07-0.59,11.96-2.199,17.71-4.16c-0.841-1.63-1.71-3.238-2.79-4.729c-2.061,0.88-4.131,1.729-6.21,2.55l-0.12-1.09
	c1.82-0.62,3.62-1.25,5.43-1.88c0.19-1.93,0.32-3.86,0.43-5.79C77.029,83.54,71.95,85.08,66.77,86.26 M20.67,85.37
	c0.79,2.36,1.71,4.76,3.31,6.7c2.27,1.85,5.28,2.279,8.01,3.07c-1.11-2.521-2.28-5.121-4.57-6.812c0.54-0.37,1.63-1.12,2.18-1.5
	c-0.78,0.2-2.35,0.601-3.13,0.8c0.45,1.65,0.97,3.271,1.46,4.9c-0.8-0.07-2.42-0.2-3.22-0.271C23.48,89.9,22.8,87.16,20.67,85.37
	 M51.59,88.391c0.43,1.549,0.84,3.09,1.26,4.649c1.38-0.25,3.26,0.5,4.34-0.64c0.95,0.438,2.01,0.33,2.8-0.381
	c1.25,0,2.5-0.011,3.76-0.021c0.03-1.71,0.06-3.42,0.1-5.13C59.87,88.03,55.73,88.4,51.59,88.391 M32.2,87.811
	c0.25,0.549,0.73,1.649,0.97,2.199c0.57,0.03,1.7,0.1,2.26,0.131L34.98,90.8l-1.35,0.38c0.62,0.94,1.25,1.881,1.88,2.83
	c-0.28,0.41-0.83,1.221-1.11,1.631c1.84,0.279,3.69,0.569,5.53,0.819c-0.57-1.43-1.17-2.851-1.79-4.25l-0.36,0.19
	c0.02-0.432,0.07-1.28,0.1-1.7C36.67,88.74,34.15,88.59,32.2,87.811 M39.98,89.35c1.27,1.15,2.56,2.26,3.93,3.291l-0.02,0.399
	c-0.5,0.06-1.49,0.16-1.99,0.21c1.12,1.34,2.24,2.68,3.35,4.03c1.69-0.021,3.37-0.062,5.06-0.101c-0.36-1.761-0.92-3.439-2.03-4.869
	c0.35-1.062,0.19-2.182,0.2-3.28C45.64,89.03,42.81,89.109,39.98,89.35 M52.49,94.13c0.34,1.03,0.69,2.06,1.04,3.09
	c3.67,0.062,7.35-0.02,10.98-0.67c-0.24-0.92-0.72-2.77-0.96-3.69C59.87,93.359,56.21,93.96,52.49,94.13z"/>
<path fill="#FDFDFD" d="M116.93,55.49c1.84,2.64-0.359,5.47-1.729,7.8c-3.83,2.48-8.131,4.17-12.262,6.07
	c0.102-2.85,0.951-6.57,4.61-6.23c1.03-0.1,3.101-0.29,4.14-0.38c-0.198-0.4-0.6-1.2-0.799-1.6c2.561,0.19,4.521-1.35,5.851-3.39
	c-2.261,0.7-4.431,1.6-6.642,2.42c-0.398-0.1-1.209-0.32-1.608-0.43C111.37,58.46,114.15,56.98,116.93,55.49z"/>
<path d="M110.1,60.18c2.211-0.82,4.381-1.72,6.642-2.42c-1.33,2.04-3.29,3.58-5.851,3.39L110.1,60.18z"/>
<path d="M59.87,62.24c3.33-2.19,7.32-2.65,11.19-1.97c1.23,0.7,0.81,2.31,0.88,3.48c-1.2,1.87-2.39,0.15-3.46-0.77
	C65.59,63.37,62.34,64.51,59.87,62.24z"/>
<path fill="#FDFDFD" d="M103.189,63.14c1.189-1.78,3.181-2.56,5.181-2.98c-0.101,0.36-0.31,1.09-0.42,1.46
	C106.609,62.71,104.891,63.09,103.189,63.14z"/>
<path fill="#121FE3" d="M108.37,60.16l0.12-0.41c0.4,0.11,1.21,0.33,1.609,0.43l0.791,0.97c0.198,0.4,0.6,1.2,0.799,1.6
	c-1.039,0.09-3.109,0.28-4.141,0.38l0.4-1.51C108.061,61.25,108.27,60.52,108.37,60.16z"/>
<path fill="#FCFCFC" d="M20.51,64.26c3.3-1.92,0.57,4.88-0.76,1.67C19.94,65.51,20.32,64.67,20.51,64.26z"/>
<path fill="#FEFEFE" d="M81.05,69.67c6.37-2.89,13.25-4.84,20.171-5.55c-1.83,1.02-3.74,1.91-5.58,2.92
	c1.75-0.08,3.5-0.22,5.25-0.41c-1.711,1.65-3.381,3.34-5.061,5.02c-4.33,0.68-8.33,2.54-12.301,4.31
	c-0.35-0.84-1.049-2.54-1.399-3.38c2.16-0.68,4.29-1.46,6.45-2.16c1.26-0.36,2.529-0.73,3.82-1.01c0.369-0.03,1.1-0.08,1.47-0.11
	c0.01-0.51,0.03-1.53,0.05-2.04c-0.38-0.04-1.12-0.1-1.49-0.13c-0.859-0.04-2.58-0.11-3.43-0.14l-0.15,0.84
	C87.52,70.48,83.3,72.11,81.05,69.67z"/>
<path fill="#FEFEFE" d="M24.2,66.48c0.36,0.39,1.1,1.16,1.47,1.54c-0.96,2.78-0.96,5.73-0.86,8.63c-1.07-0.76-2.14-1.51-3.21-2.26
	C22.43,71.74,23.28,69.1,24.2,66.48z"/>
<path fill="#202BD3" d="M89,66.99c0.85,0.03,2.57,0.1,3.43,0.14c-0.01,0.57-0.02,1.71-0.029,2.28c-1.291,0.28-2.561,0.65-3.819,1.01
	c0.069-0.65,0.198-1.95,0.271-2.59L89,66.99z"/>
<path d="M92.43,67.13c0.37,0.03,1.11,0.09,1.49,0.13c-0.02,0.51-0.04,1.53-0.05,2.04c-0.37,0.03-1.101,0.08-1.47,0.11
	C92.41,68.84,92.42,67.7,92.43,67.13z"/>
<path fill="#292929" d="M19.18,68.13C22.16,66.59,19.32,71.47,19.18,68.13z"/>
<path fill="#FCFCFC" d="M103.311,73.16c2.779-2.03,6.369-2.22,9.149-4.23c-0.569,0.92-1.14,1.85-1.7,2.78l-0.13,0.01
	c-1.71,0.07-3.409,0.16-5.101,0.28c0.261,1.32,0.541,2.63,0.841,3.94l1.54-0.83c-1.051,1.77-2.439,3.3-3.82,4.82
	c-0.57-0.68-1.109-1.37-1.63-2.09c0.601-1.32,1.569-2.57,3.021-3.02C104.76,74.26,104.029,73.71,103.311,73.16z"/>
<path fill="#141EBC" d="M28.08,69.83c0.69,0.04,2.06,0.12,2.74,0.17l0.27,0.83c0.17,0.51,0.5,1.54,0.66,2.05
	c-1.36,0.13-2.71,0.27-4.06,0.42l-0.23,0.02C27.67,72.16,27.87,70.99,28.08,69.83z"/>
<path fill="#FFFFFF" d="M73.971,70.78c1.809-0.08,3.609-0.21,5.42-0.28c-0.91,1.43-1.82,3.05-3.881,2.59
	C73.17,74.43,72.85,71.95,73.971,70.78z"/>
<path fill="#FDFDFD" d="M31.09,70.83c0.92,0.49,1.84,0.97,2.77,1.45c-1.97,1.64-0.99,4.438-1.24,6.64
	c-1.29-0.46-2.58-0.91-3.87-1.36c-0.36-1.42-0.71-2.84-1.06-4.26c1.35-0.15,2.7-0.29,4.06-0.42C31.59,72.37,31.26,71.34,31.09,70.83
	z"/>
<path fill="#FFFFFF" d="M36.7,72.86c0.91,0.14,2.38-0.72,2.83,0.45c-0.07,0.46-0.22,1.39-0.29,1.85l-0.78-0.61
	c-0.1,0.45-0.31,1.34-0.42,1.79l1.02-0.17l2.71,0.09c0.38-0.67,0.74-1.35,1.09-2.03c1.78-0.02,3.57-0.03,5.35-0.04
	c-0.3,0.42-0.9,1.26-1.2,1.68c-1.78,0.05-3.67-0.01-5.17,1.12c1.36,0.01,4.07,0.04,5.43,0.05c0,0.6,0.01,1.79,0.02,2.39
	c-3.96-0.02-7.89-0.47-11.84-0.77C35.98,76.75,36.39,74.82,36.7,72.86z"/>
<path fill="#FDFDFD" d="M63.41,73.45c1.7-0.35,3.39-0.67,5.1-0.97c0.21,0.61,0.63,1.82,0.85,2.43c0.5,0.04,1.51,0.11,2.02,0.14
	c0.25-0.07,0.76-0.21,1.01-0.28c2.25-0.69,4.581-1.03,6.86-1.59c0.32,1.27,0.641,2.55,0.96,3.82c-5.37,1.36-10.84,2.71-16.43,2.46
	c-0.01-0.81-0.03-2.44-0.04-3.25c1.91-0.18,3.85-0.28,5.67-0.99c-1.83-0.2-3.66-0.33-5.5-0.38C63.79,74.49,63.54,73.8,63.41,73.45z"
	/>
<path fill="#222DD4" d="M68.51,72.48c2.26-2.47,3.99,0.33,3.88,2.29c-0.25,0.07-0.76,0.21-1.01,0.28c-0.51-0.03-1.52-0.1-2.02-0.14
	C69.14,74.3,68.72,73.09,68.51,72.48z"/>
<path fill="#2D37CD" d="M105.529,72c1.691-0.12,3.391-0.21,5.101-0.28c-0.909,1.09-1.42,2.66-2.72,3.39l-1.54,0.83
	C106.07,74.63,105.79,73.32,105.529,72z"/>
<path fill="#0F1DE8" d="M39.53,73.31c0.99-0.09,2.98-0.29,3.97-0.38l-0.64,1.3c-0.35,0.68-0.71,1.36-1.09,2.03l-2.71-0.09l0.18-1.01
	C39.31,74.7,39.46,73.77,39.53,73.31z"/>
<path fill="#FDFDFD" d="M56.68,74.22c0.77-1.18,2.75-0.68,4-1.13c0.04,0.71,0.14,2.13,0.19,2.84c-1.65,0.04-3.31,0.07-4.97,0.09
	C56.1,75.57,56.49,74.67,56.68,74.22z"/>
<path fill="#BABAC5" d="M52.89,75.87c-2.34,1.9-2.61-3.5-0.11-1.78C52.8,74.54,52.86,75.43,52.89,75.87z"/>
<path fill="#0F1CE4" d="M52.78,74.09c0.97,0.03,2.93,0.1,3.9,0.13c-0.19,0.45-0.58,1.35-0.78,1.8l-0.4,0.97
	c-0.68,0-2.04,0.02-2.72,0.03l0.11-1.15C52.86,75.43,52.8,74.54,52.78,74.09z"/>
<path fill="#0A0A0C" d="M38.04,76.34c0.11-0.45,0.32-1.34,0.42-1.79l0.78,0.61l-0.18,1.01L38.04,76.34z"/>
<path fill="#FEFEFE" d="M84.7,80.77c5.36-1.09,10.25-3.58,15.18-5.86c-0.05,0.67-0.149,2.01-0.2,2.68c-1.63,1.07-3.26,2.14-4.9,3.21
	l-0.709-0.25c-0.729-0.23-2.189-0.7-2.909-0.94c-0.101,0.9-0.302,2.701-0.399,3.6c-1.99,0.84-3.931,1.79-5.869,2.72
	C84.83,84.21,84.76,82.49,84.7,80.77z"/>
<path fill="#FFFFFF" d="M50.06,77.09c0.68-0.02,2.04-0.06,2.72-0.07c0.68-0.01,2.04-0.03,2.72-0.03c1.82,0,3.64,0.06,5.46,0.13
	c-0.06,0.55-0.19,1.67-0.25,2.23c-3.46-0.02-6.91-0.02-10.36-0.01C50.27,78.78,50.13,77.65,50.06,77.09z"/>
<path fill="#1321EB" d="M91.16,79.61c0.72,0.24,2.18,0.71,2.91,0.94c0,0.44,0,1.31,0,1.74c-0.26,0.16-0.771,0.47-1.021,0.62
	c-0.568,0.08-1.72,0.23-2.29,0.3C90.859,82.311,91.061,80.51,91.16,79.61z"/>
<path fill="#FDFDFD" d="M94.07,82.29c1.68-1.09,3.31-2.25,4.959-3.37c1,1.05,1.99,2.1,2.99,3.15c-4.479,3.17-9.021,6.26-13.641,9.22
	c-0.84-1.59-1.658-3.2-2.47-4.8c2.399-1.15,4.829-2.25,7.14-3.58C93.3,82.76,93.811,82.45,94.07,82.29z"/>
<path fill="#FDFDFD" d="M66.77,86.26c5.18-1.18,10.259-2.72,15.169-4.729c-0.109,1.93-0.239,3.859-0.431,5.789
	c-1.81,0.631-3.608,1.261-5.43,1.881l-0.142-0.95c-0.66-0.17-2-0.5-2.66-0.66l-0.27,1.29c-0.78,2.301-4.27,1.801-6.24,2.46
	C66.77,89.641,66.77,87.95,66.77,86.26z"/>
<path fill="#FEFEFE" d="M20.67,85.37c2.13,1.79,2.81,4.53,4.04,6.89c0.8,0.07,2.42,0.2,3.22,0.271c-0.49-1.631-1.01-3.25-1.46-4.9
	c0.78-0.199,2.35-0.6,3.13-0.8c-0.55,0.38-1.64,1.13-2.18,1.5c2.29,1.688,3.46,4.29,4.57,6.812c-2.73-0.791-5.74-1.222-8.01-3.07
	C22.38,90.13,21.46,87.73,20.67,85.37z"/>
<path fill="#FDFDFD" d="M51.59,88.391c4.14,0.01,8.28-0.359,12.26-1.521c-0.04,1.71-0.07,3.42-0.1,5.13
	c-1.26,0.01-2.51,0.02-3.76,0.02c0.06-0.488,0.2-1.479,0.26-1.979c-1.27-0.03-2.55-0.07-3.82-0.102
	c0.19,0.621,0.57,1.852,0.76,2.461c-1.08,1.141-2.96,0.391-4.34,0.641C52.43,91.48,52.02,89.939,51.59,88.391z"/>
<path fill="#FCFCFC" d="M32.2,87.811c1.95,0.779,4.47,0.931,5.68,2.891c-0.61-0.141-1.84-0.42-2.45-0.561
	c-0.56-0.031-1.69-0.101-2.26-0.131C32.93,89.46,32.45,88.359,32.2,87.811z"/>
<path fill="#1623EB" d="M73.279,87.59c0.66,0.16,2,0.49,2.66,0.66l0.141,0.95l0.12,1.09c-1.181,0.44-2.38,0.78-3.61,1.03
	c0.11-0.61,0.32-1.83,0.42-2.44L73.279,87.59z"/>
<path fill="#FDFDFD" d="M76.2,90.29c2.079-0.82,4.149-1.67,6.21-2.55c1.08,1.49,1.949,3.1,2.79,4.729
	c-5.75,1.961-11.64,3.57-17.71,4.16c-0.24-1.488-0.49-2.97-0.73-4.449c1.95-0.271,3.9-0.479,5.83-0.859
	C73.82,91.07,75.02,90.73,76.2,90.29z"/>
<path fill="#FDFDFD" d="M39.98,89.35c2.83-0.24,5.66-0.318,8.5-0.318c-0.01,1.1,0.15,2.22-0.2,3.279
	c1.11,1.431,1.67,3.109,2.03,4.869c-1.69,0.04-3.37,0.08-5.06,0.102c-1.11-1.352-2.23-2.69-3.35-4.03c0.5-0.05,1.49-0.149,1.99-0.21
	c0.76-0.09,2.29-0.271,3.05-0.37c0.07-0.67,0.2-2.01,0.27-2.68c-0.79,0-2.39,0.01-3.18,0.01c-0.03,0.66-0.09,1.979-0.12,2.642
	C42.54,91.609,41.25,90.5,39.98,89.35z"/>
<path fill="#111FF2" d="M35.43,90.141c0.61,0.141,1.84,0.42,2.45,0.561c-0.03,0.42-0.08,1.27-0.1,1.699
	c-0.94,0.779-1.79,0.811-2.54,0.08c-0.07-0.42-0.2-1.261-0.26-1.681L35.43,90.141z"/>
<path fill="#101EF4" d="M44.03,90c0.79,0,2.39-0.01,3.18-0.01c-0.07,0.67-0.2,2.01-0.27,2.68c-0.76,0.1-2.29,0.28-3.05,0.37
	l0.02-0.399C43.94,91.98,44,90.66,44.03,90z"/>
<path fill="#1F2BE5" d="M56.43,89.939c1.27,0.029,2.55,0.069,3.82,0.101c-0.06,0.5-0.2,1.49-0.26,1.979
	c-0.79,0.711-1.85,0.819-2.8,0.381C57,91.79,56.62,90.561,56.43,89.939z"/>
<path fill="#FDFDFD" d="M33.63,91.18l1.35-0.38c0.06,0.42,0.19,1.261,0.26,1.681c0.75,0.729,1.6,0.699,2.54-0.08l0.36-0.189
	c0.62,1.398,1.22,2.82,1.79,4.25c-1.84-0.25-3.69-0.54-5.53-0.818c0.28-0.41,0.83-1.222,1.11-1.632
	C34.88,93.061,34.25,92.12,33.63,91.18z"/>
<path d="M95.859,96.02c3.399-1.648,6.66-3.91,10.57-4.09c-7.83,3.58-15.229,8.15-23.49,10.74c-4.979,1.561-9.719,4.1-15.009,4.42
	c0.8,0.46,1.61,0.92,2.42,1.37c9.91-1.771,19.57-4.84,28.541-9.44c4.889-2.148,9.289-5.31,14.359-7.06
	c-6.25,5.021-13.891,7.81-21.08,11.16c-5.689,2.739-11.891,4.06-18.029,5.37c-15.669,3.64-31.891,5.16-47.951,4.04
	c-3.74-1.33-6.93-3.761-10.25-5.86c-0.12-1.41-0.22-2.83-0.31-4.23c0.27-0.289,0.81-0.858,1.07-1.148
	c-0.02,1.602-0.04,3.189-0.06,4.779c4.32,2.221,8.16,6.119,13.32,6.061c13.12,0.221,26.27-0.738,39.15-3.238
	c-0.83-0.512-1.68-0.98-2.56-1.392c-5.82,0.108-11.64,0.22-17.44,0.8c-6.79,0-14.04,1.03-20.37-2.09
	c-2.89-1.311-5.28-3.55-6.79-6.33c3.5,2.641,6.67,5.99,11.17,6.9c7.84,1.75,15.99,0.56,23.93,0.1
	c5.32-0.109,10.77,0.061,15.87-1.699C80.71,102.51,88.52,99.79,95.859,96.02z"/>
<path fill="#FDFDFD" d="M52.49,94.13c3.72-0.17,7.38-0.771,11.06-1.271c0.24,0.92,0.72,2.771,0.96,3.689
	c-3.63,0.65-7.31,0.73-10.98,0.67C53.18,96.189,52.83,95.16,52.49,94.13z"/>
<path fill="#535353" d="M39.03,103.641c3.9-1.08,7.97-0.561,11.95-0.641c4.8,0.109,9.66-0.4,14.41,0.53
	C56.67,104.42,47.78,104.22,39.03,103.641z"/>
<path fill="#22E057" d="M28.01,128.83c2.55,0.23,5.48-0.21,7.46,1.79c5.92,4.899,12.21,9.3,18.54,13.66
	c-0.66,0.649-1.28,1.319-1.89,2.02c-0.04,0.5-0.13,1.5-0.18,2c-6.81-5.21-13.87-10.11-20.9-15.02
	c-0.07,6.688-0.03,13.38-0.04,20.079c6.96-1.34,14-2.141,20.96-3.439c0.02,1.32,0.03,2.63,0.04,3.95c-7.94,1.47-15.9,3.09-24,3.239
	C28,147.68,27.99,138.26,28.01,128.83z"/>
<path fill="#FFFFFF" d="M31.04,133.28c7.03,4.909,14.09,9.81,20.9,15.02c0.01,0.4,0.02,1.22,0.02,1.62c-6.96,1.3-14,2.1-20.96,3.439
	C31.01,146.66,30.97,139.97,31.04,133.28 M32,137c0,0.75,0,2.25,0,2.99c0.75,0.01,2.25,0.01,3,0.01c0-0.75,0-2.25,0-3
	C34.25,137,32.75,137,32,137 M32,141.01c0,0.74,0,2.24,0,2.99c0.75,0,2.25,0,3,0c0-0.75,0-2.25,0-3C34.25,141,32.75,141,32,141.01
	 M37,141c0,0.75,0,2.25,0,3c0.75,0,2.25,0,3,0c0-0.75,0-2.25,0-3C39.25,141,37.75,141,37,141 M36,145.01V146c-0.75,0-2.25,0-3,0
	c0,0.75,0,2.25,0,3c0.75,0,2.25,0,3,0v-1c0.75,0,2.25,0,3,0c0-0.75,0-2.25,0-3C38.25,145,36.75,145,36,145.01 M41,145
	c0,0.75,0,2.25,0,3c0.75,0,2.25,0,3,0v1c0.75,0,2.25,0,3,0c0-0.75,0-2.25,0-3c-0.75,0-2.25,0-3,0v-1C43.25,145,41.75,145,41,145z"/>
<path fill="#22E057" d="M67.99,145.32c7.48-3.91,14.74-8.602,22.96-10.812c0.09,9.28,0.06,18.562,0.021,27.841
	c-7.871-1.039-14.611-5.591-21.871-8.459c-0.06-2.512-0.07-5.021-0.25-7.521C68.63,146.109,68.2,145.58,67.99,145.32 M84.939,141.23
	l0.479,1.05c-0.601-0.181-1.8-0.54-2.392-0.72l-0.02,1.42c-0.58,0.028-1.73,0.08-2.3,0.108l0.649,1.222
	c-0.59-0.19-1.76-0.58-2.351-0.771L79,144.63c-1.529,0.69-3.04,1.4-4.529,2.181l-0.49-0.051c-1.431,0.95-2.851,1.9-4.279,2.86
	c2.93,1.22,5.85,2.46,8.8,3.64l-0.13-0.49l0.46,0.07c-0.09,0.27-0.271,0.83-0.351,1.1c3.261,0.83,6.369,2.15,9.511,3.33
	c0.021-5.76-0.021-11.528,0.069-17.289C87.02,140.4,85.98,140.811,84.939,141.23z"/>
<path fill="#EB22BC" d="M32,137c0.75,0,2.25,0,3,0c0,0.75,0,2.25,0,3c-0.75,0-2.25,0-3-0.01C32,139.25,32,137.75,32,137z"/>
<path fill="#FFFFFF" d="M84.939,141.23c1.041-0.42,2.08-0.83,3.121-1.25c-0.09,5.76-0.052,11.528-0.07,17.289
	c-3.141-1.181-6.25-2.5-9.51-3.33c0.08-0.271,0.26-0.83,0.35-1.101c0.18-0.21,0.54-0.64,0.72-0.858c1.12-0.621,2.261-1.2,3.45-1.682
	c0,0.67,0,2.021,0.01,2.7c0.75,0,2.25,0,3,0c-0.01-0.851-0.029-2.55-0.039-3.399c-0.49,0.109-1.471,0.33-1.961,0.439
	c0-0.76-0.01-2.271-0.01-3.03c-0.3-0.01-0.9-0.04-1.2-0.05c-0.489-0.88-0.97-1.771-1.44-2.648l-0.648-1.222
	c0.568-0.028,1.721-0.08,2.301-0.108c-0.011,0.51-0.021,1.539-0.021,2.06c0.899-0.03,2.72-0.09,3.618-0.12
	c-0.379-0.89-0.778-1.77-1.188-2.64L84.939,141.23z"/>
<path fill="#D7E047" d="M32,141.01c0.75-0.01,2.25-0.01,3-0.01c0,0.75,0,2.25,0,3c-0.75,0-2.25,0-3,0C32,143.25,32,141.75,32,141.01
	z"/>
<path fill="#EB22BC" d="M37,141c0.75,0,2.25,0,3,0c0,0.75,0,2.25,0,3c-0.75,0-2.25,0-3,0C37,143.25,37,141.75,37,141z"/>
<path fill="#E52BBA" d="M83.029,141.561c0.591,0.181,1.791,0.539,2.391,0.721c0.41,0.869,0.811,1.75,1.189,2.64
	c-0.899,0.03-2.719,0.09-3.619,0.12c0-0.521,0.01-1.55,0.02-2.061L83.029,141.561z"/>
<path fill="#EB22BC" d="M54.01,144.28c0.49-0.312,1.47-0.94,1.96-1.25c3.02-0.11,6.05-0.11,9.07-0.03c1.02,0.71,2,1.49,2.95,2.32
	c0.21,0.26,0.64,0.789,0.86,1.05c0.18,2.5,0.19,5.01,0.25,7.521c-1.34,1.039-2.67,2.109-4.08,3.069c-3.01,0.13-6.03,0.13-9.05,0.01
	c-1.38-0.96-2.67-2.04-3.97-3.1c-0.01-1.32-0.02-2.63-0.04-3.95c0-0.4-0.01-1.22-0.02-1.62c0.05-0.5,0.14-1.5,0.18-2
	C52.73,145.6,53.35,144.93,54.01,144.28z"/>
<path fill="#E52BBA" d="M79.01,143.54c0.59,0.19,1.76,0.58,2.35,0.771c0.472,0.879,0.951,1.771,1.44,2.649L81.87,147
	c-0.72,0.01-2.16,0.05-2.88,0.07c0-0.61,0.01-1.83,0.01-2.44L79.01,143.54z"/>
<path fill="#D7E047" d="M36,145.01c0.75-0.01,2.25-0.01,3-0.01c0,0.75,0,2.25,0,3c-0.75,0-2.25,0-3,0c0-0.5,0-1.5,0-2V145.01z"/>
<path fill="#EB22BC" d="M41,145c0.75,0,2.25,0,3,0v1c0,0.5,0,1.5,0,2c-0.75,0-2.25,0-3,0C41,147.25,41,145.75,41,145z"/>
<path fill="#FDFDFD" d="M74.471,146.811c1.489-0.779,3-1.49,4.529-2.181c0,0.61-0.01,1.83-0.01,2.44
	c0.72-0.021,2.16-0.062,2.88-0.07c-0.41,0.391-1.24,1.18-1.649,1.58c-0.641,0.21-1.931,0.64-2.57,0.85
	c0.199,1.12,0.439,2.23,0.721,3.34l0.13,0.49c-2.95-1.18-5.87-2.42-8.8-3.64c1.43-0.96,2.85-1.91,4.279-2.86
	c0.011,0.812,0.029,2.43,0.029,3.24c0.75,0,2.24,0,2.99,0c0-0.73,0-2.18,0-2.91C76.37,147.02,75.1,146.88,74.471,146.811z"/>
<path fill="#EB22BC" d="M33,146c0.75,0,2.25,0,3,0c0,0.5,0,1.5,0,2v1c-0.75,0-2.25,0-3,0C33,148.25,33,146.75,33,146z"/>
<path fill="#D7E047" d="M44,146c0.75,0,2.25,0,3,0c0,0.75,0,2.25,0,3c-0.75,0-2.25,0-3,0v-1C44,147.5,44,146.5,44,146z"/>
<path fill="#EA23BC" d="M73.98,146.76l0.49,0.051C75.1,146.88,76.37,147.02,77,147.09c0,0.73,0,2.18,0,2.91c-0.75,0-2.24,0-2.99,0
	C74.01,149.189,73.99,147.57,73.98,146.76z"/>
<path fill="#D1E14F" d="M81.87,147l0.93-0.04c0.3,0.01,0.9,0.04,1.2,0.05c0,0.76,0.01,2.271,0.01,3.03L83,150.3
	c-1.189,0.48-2.33,1.06-3.45,1.681c-0.18,0.221-0.54,0.649-0.72,0.859l-0.46-0.07c-0.28-1.108-0.521-2.22-0.72-3.34
	c0.64-0.21,1.93-0.64,2.57-0.85C80.63,148.18,81.46,147.391,81.87,147z"/>
<path fill="#EA23BB" d="M83,150.3l1.01-0.26c0.49-0.11,1.471-0.33,1.961-0.44c0.01,0.852,0.029,2.551,0.039,3.4c-0.75,0-2.25,0-3,0
	C83,152.32,83,150.97,83,150.3z"/>
<path d="M55.97,156.97c3.02,0.12,6.04,0.12,9.05-0.01c-0.01,2.01-0.02,4.021-0.03,6.04h-8.98C56,160.99,55.99,158.98,55.97,156.97z"
	/>
</svg>
