<?xml version="1.0" encoding="utf-8"?>
<!-- Generator: Adobe Illustrator 15.0.2, SVG Export Plug-In . SVG Version: 6.00 Build 0)  -->
<!DOCTYPE svg PUBLIC "-//W3C//DTD SVG 1.1//EN" "http://www.w3.org/Graphics/SVG/1.1/DTD/svg11.dtd">
<svg version="1.1" id="Layer_1" xmlns="http://www.w3.org/2000/svg" xmlns:xlink="http://www.w3.org/1999/xlink" x="0px" y="0px"
	 width="140px" height="131px" viewBox="0 0 140 131" enable-background="new 0 0 140 131" xml:space="preserve">
<path fill="#FFFFFF" d="M0,0h140v131H0V0 M41.82,2.93c-5.79,1.36-10.71,4.84-16.25,6.86c-3.77,1.54-6.88,4.18-9.58,7.16
	c-4.1,3.04-7.82,6.97-9.67,11.8c-0.07,4.87-0.66,9.91,0.97,14.6c0.53,3.31,0.15,6.75,1.22,9.97c1.25,1.85,2.45,3.73,3.75,5.54
	c0.71,1.31,1.4,2.63,2.1,3.94c-5.14,1.81-5.74,7.67-6.72,12.24c0.04,3.76,2.29,7.22,1.74,11.04c-0.57,3.439-3.01,6.35-3.06,9.9
	c0.44,6.358-5.45,11.738-3.58,18.16c2.83,3.26,4.55,8.14,9.11,9.35c5.03,1.199,10.02,2.67,15.12,3.59c5.98,0.4,12-0.051,17.97,0.63
	c8.5,2.13,17.36,0.61,26.02,1.07c3.8,0.6,6.62-2.33,9.649-4.08c3.851-2.341,6.761-5.87,9.041-9.72c0.279-0.211,0.83-0.65,1.108-0.86
	c-0.05-0.88-0.14-2.65-0.188-3.53c2.039-1.88,4.47-3.22,6.77-4.72c2.43-1.56,4.28-4.56,7.59-3.771
	c7.771,0.801,15.551-0.801,23.32,0.101c1.561-0.681,3.109-1.39,4.67-2.07c0.48-1.01,0.971-2.03,1.46-3.04
	c-4.601-3.949-9.01-8.13-13.8-11.85c2.67-1.44,4.891-3.521,7.08-5.6c2.88-2.99,5.52-6.33,6.59-10.432
	c-0.76,0.061-2.279,0.189-3.04,0.26c0.06-0.609,0.181-1.84,0.24-2.449c-4.11-2.761-8.66-6.791-13.96-5.239
	c0.07-4.26,0.26-8.54-0.061-12.79c-0.591-2.07-1.471-4.04-1.939-6.15c-0.4-4.95-3.2-9.26-5.86-13.3
	c-3.649-3.77-6.351-8.52-10.96-11.27c-0.22-0.34-0.67-1.01-0.891-1.35c-3.18-1.04-5.659-3.35-7.869-5.77
	c-4.21-4.5-10.189-6.55-15.77-8.79C64.43,1.17,54.55,2.12,44.77,1.79C43.79,2.19,42.81,2.57,41.82,2.93z"/>
<path fill="#020202" d="M41.82,2.93c0.99-0.36,1.97-0.74,2.95-1.14c9.78,0.33,19.66-0.62,29.371,0.57
	c5.58,2.24,11.561,4.29,15.771,8.79c2.21,2.42,4.688,4.73,7.868,5.77c0.222,0.34,0.672,1.01,0.892,1.35
	c4.608,2.75,7.312,7.5,10.96,11.27c2.66,4.04,5.46,8.35,5.86,13.3c0.47,2.11,1.35,4.08,1.938,6.15c0.32,4.25,0.131,8.53,0.062,12.79
	c5.3-1.55,9.85,2.479,13.96,5.239c-0.061,0.609-0.182,1.84-0.24,2.449c0.762-0.068,2.28-0.199,3.04-0.26
	c-1.069,4.102-3.71,7.439-6.59,10.432c-2.188,2.078-4.41,4.158-7.08,5.6c4.79,3.72,9.198,7.9,13.8,11.85
	c-0.488,1.01-0.979,2.03-1.46,3.04c-1.562,0.681-3.108,1.39-4.67,2.07c-7.771-0.9-15.55,0.7-23.319-0.101
	c-3.311-0.789-5.16,2.211-7.591,3.771c-2.3,1.5-4.729,2.84-6.771,4.72c0.051,0.88,0.141,2.65,0.189,3.53
	c-0.279,0.21-0.83,0.649-1.109,0.86c-2.279,3.85-5.189,7.379-9.041,9.72c-3.028,1.75-5.85,4.68-9.648,4.08
	c-8.66-0.46-17.52,1.06-26.02-1.07c-5.97-0.68-11.99-0.229-17.97-0.63c-5.1-0.92-10.09-2.391-15.12-3.59
	c-4.56-1.21-6.28-6.09-9.11-9.35c-1.87-6.422,4.02-11.802,3.58-18.16c0.05-3.551,2.49-6.461,3.06-9.9c0.55-3.82-1.7-7.28-1.74-11.04
	c0.98-4.569,1.58-10.43,6.72-12.24c-0.7-1.31-1.39-2.63-2.1-3.94c-1.3-1.81-2.5-3.69-3.75-5.54c-1.07-3.22-0.69-6.66-1.22-9.97
	c-1.63-4.69-1.04-9.73-0.97-14.6c1.85-4.83,5.57-8.76,9.67-11.8c2.7-2.98,5.81-5.62,9.58-7.16C31.11,7.77,36.03,4.29,41.82,2.93
	 M20.65,14.55c-0.93,1.64-2.09,3.17-3.68,4.21c-3.49,2.46-6.57,5.57-8.34,9.51c-0.58,3.38-1.1,6.78-0.81,10.23
	c1.95-2.31,2.79-5.88,5.94-6.91c-0.56,0.86-1.12,1.73-1.68,2.58c-0.3,2.21-1.36,4.16-2.69,5.91c0.02,3.26-0.17,6.54,0.15,9.79
	c0.73,2.28,1.96,4.35,2.9,6.54c0.89-0.68,1.78-1.36,2.66-2.04c0.03,1.93,0.03,3.86,0.01,5.79c0.55,0.47,1.65,1.42,2.2,1.89
	c1.35-2.62,2.08-5.64,4.25-7.77c0.03-0.771,0.08-2.312,0.11-3.08c0.67,0.41,2.02,1.21,2.69,1.62c1.57-0.38,3.13-0.85,4.75-0.96
	c0.87,0.68,0.93,1.52,0.18,2.5c-2.63-0.27-5.41,0.88-7.32,2.68c-1.21,2.51-1.7,5.98-4.69,7.04c-3.12,1.13-5.73,3.22-7.08,6.311
	c0.9-0.32,2.69-0.951,3.59-1.271c-0.6,0.43-1.79,1.29-2.38,1.72c0.14,2.25-0.34,4.641,0.32,6.82c1.53,1.47,3.1,2.9,4.61,4.39
	c-2.73-1.239-4.99-3.34-6.43-5.989c0.76,3.601,2.43,7.271,1.55,11.029c-0.9,4.03-2.1,7.99-2.99,12.03
	c-0.84,4.44-4.17,8.239-3.93,12.899c1.03,6.319,7.31,10.141,13.14,11.351c8.46,2.729,17.45,0.649,26.1,1.85
	c2.1,0.78,5.87-2.489,6,1.3c8.28-0.129,16.56,0.142,24.82-0.14c3.521-2.58,7.41-4.78,10.291-8.12c0.789-0.34,1.58-0.68,2.379-1.02
	c0.271-1.891,0.711-3.82,0.16-5.711c0.45-2.829,3.521-4.149,5.59-5.649c-0.84-1.12-1.72-2.21-2.789-3.11
	c1.629-0.229,3.271-0.438,4.83-1l-0.711,1.041l-1.42,0.149c0.08,0.24,0.23,0.729,0.312,0.97c0.278,0.19,0.84,0.58,1.118,0.78
	c4.771-1.56,8.312-6.5,8.031-11.601c-0.931-5.369-6.131-8.469-7.07-13.811l-0.381,0.07c-0.879-5.79-2.459-12.13-7.398-15.84
	c-5.34-1.9-10.771-3.61-16.29-4.96l-0.149-0.43c-1.561-0.35-3.101-0.78-4.681-1.01c-2.6-0.26-5.15,0.39-7.72,0.7
	c1.06-0.5,2.05-1.11,3.01-1.77c-0.32-0.72-0.96-2.17-1.28-2.89c-1.77-1.72-3.71-3.23-5.73-4.63c-1.58-0.99-3.13-2.04-4.79-2.92
	c-2.22-0.13-4.44,0.16-6.66,0.17c-0.41,0.41-1.23,1.24-1.64,1.66c-0.75,0-2.25,0.01-3,0.01c-0.52,0.74-1.04,1.48-1.55,2.23
	c-0.67,0.06-2.01,0.18-2.68,0.24c-2.9-0.05-6.51,2.03-8.56-0.97c0.09-2.72,2.26-0.53,3.55-0.03c0.6,0.09,1.81,0.28,2.42,0.37
	c2.03-1.34,5.06-1.58,6.4-3.73c-2.18-1.7-6.28-2.02-6.78-5.21c2.49,0.09,4.18,2.24,6.47,2.93c3.04,0.25,6.08,0.09,9.12,0.18
	c-2.46-2.689-2.3-6.62-2-10.01c2.95,1.76,1.4,5.75,2.89,8.42c2.64,1.69,5.2,3.5,7.93,5.05c-0.03-3.47-0.06-6.93,0.02-10.39
	c4.41,1.42,1.43,6.92,2.57,10.26c1.42,3.34,3.15,7.16,6.82,8.48c0.76-2.28,0.52-5.25,2.68-6.79c0.22,2.31,0.04,4.64-0.82,6.82
	c1.14,0.4,2.29,0.79,3.431,1.19c0.181-3.48-0.229-6.95-1.541-10.2c-2.11-10.67-0.27-21.64-1.09-32.43c0.73-0.97,1.42-2.02,2.47-2.66
	c0,0.7-0.06,1.4-0.19,2.09c-0.96,3.86-0.42,7.86-0.52,11.78c0.13,5.54-0.34,11.11,0.3,16.64c1.568,4.89,2.46,9.97,2.25,15.12
	c4.68,0.93,9.189,2.42,13.729,3.87c4.85,1,7.541,5.852,9.32,10.05c1.811,3.92,0.93,8.802,3.85,12.222
	c3.03,4.14,6.67,9.14,4.42,14.479c-0.35,0.95-0.688,1.91-1.028,2.87c7.84-0.03,15.698,0.229,23.528-0.181
	c1.5,0.42,2.972-0.369,4.432-0.601c0.521-0.53,1.561-1.59,2.068-2.12c-5.99-4.229-11.778-8.92-16.18-14.85
	c-2.04-2.67-2.449-6.25-1.24-9.36c0.121-2.188,0.18-4.37,0.25-6.56c-0.52-0.33-1.56-0.98-2.08-1.3c0.432-0.46,1.291-1.39,1.722-1.85
	c0.521-5.17,0.34-10.49,0.1-15.69c-1.5-4.67-2.079-9.83-5.25-13.77c-2.479-3.78-5.778-6.94-8.13-10.81
	c-2.699-2.98-6.779-4.28-9.47-7.32c-5.229-5.6-11.86-10.29-19.591-11.48c-1.961-1.35-4.419-0.82-6.641-0.93
	c-6.65,0.16-13.33-0.25-19.97,0.26C36.93,5.59,28.89,10.5,20.65,14.55 M117.82,64.86c-0.291,4.81-1.23,9.56-1.15,14.4
	c1.12,1.49,2.18,3.021,3.25,4.561c4.29-2.739,7.82-6.5,10.721-10.659c-1.83-1.58-1.561-3.931-1.5-6.11
	C125.811,65.54,121.05,61.6,117.82,64.86z"/>
<path fill="#C0C0C0" d="M20.65,14.55c8.24-4.05,16.28-8.96,25.39-10.78c2.58,0.81,5.25,1.3,7.96,1.2
	c6.22-0.13,12.46,0.23,18.65-0.53c7.729,1.19,14.358,5.88,19.59,11.48c2.689,3.04,6.77,4.34,9.47,7.32
	c2.351,3.87,5.649,7.03,8.13,10.81c3.17,3.94,3.75,9.1,5.25,13.77c0.24,5.2,0.42,10.52-0.1,15.69c-0.43,0.46-1.29,1.39-1.721,1.85
	c0.521,0.32,1.561,0.97,2.08,1.3c-0.07,2.189-0.129,4.37-0.25,6.56c-1.209,3.11-0.801,6.69,1.239,9.36
	c4.399,5.93,10.188,10.62,16.181,14.85c-0.511,0.53-1.549,1.59-2.069,2.12c-1.46,0.23-2.931,1.021-4.431,0.601
	c-7.261-2.92-15.529,1.101-22.5-2.689c2.25-5.34-1.391-10.34-4.42-14.479c-2.92-3.42-2.039-8.301-3.851-12.222
	c-1.778-4.198-4.472-9.05-9.319-10.05c-4.539-1.45-9.051-2.94-13.729-3.87c0.21-5.15-0.681-10.23-2.25-15.12
	c0.819-3.18,1.14-6.46,1.03-9.729c-0.24-6.23,0.6-12.55-0.812-18.69c0.13-0.69,0.19-1.39,0.19-2.09c-1.05,0.64-1.74,1.69-2.47,2.66
	c0.82,10.79-1.02,21.76,1.09,32.43c1.31,3.25,1.72,6.72,1.541,10.2c-1.141-0.4-2.291-0.79-3.431-1.19c0.86-2.18,1.04-4.51,0.82-6.82
	c-2.16,1.54-1.92,4.51-2.68,6.79c-3.67-1.32-5.4-5.14-6.82-8.48c-1.14-3.34,1.84-8.84-2.57-10.26c-0.08,3.46-0.05,6.92-0.02,10.39
	c-2.73-1.55-5.29-3.36-7.93-5.05c-1.49-2.67,0.06-6.66-2.89-8.42c-0.3,3.39-0.46,7.32,2,10.01c-3.04-0.09-6.08,0.07-9.12-0.18
	c-2.29-0.69-3.98-2.84-6.47-2.93c0.5,3.19,4.6,3.51,6.78,5.21c-1.34,2.15-4.37,2.39-6.4,3.729c-0.61-0.09-1.82-0.28-2.42-0.37
	c-1.29-0.5-3.46-2.69-3.55,0.03c2.05,3,5.66,0.92,8.56,0.97c-0.75,0.27-2.27,0.81-3.03,1.09c0.64,1.56,2.52,1.01,3.86,1.35
	c0.02,0.55,0.07,1.64,0.1,2.19c-1.05,0.08-2.1,0.2-3.14,0.34c-0.96-0.19-1.91-0.37-2.88-0.54c0.75-0.98,0.69-1.82-0.18-2.5
	c-1.62,0.11-3.18,0.58-4.75,0.96c-0.67-0.41-2.02-1.21-2.69-1.62c-0.03,0.77-0.08,2.31-0.11,3.08c-2.17,2.13-2.9,5.15-4.25,7.77
	c-0.55-0.47-1.65-1.42-2.2-1.89c0.02-1.93,0.02-3.86-0.01-5.79c-0.88,0.68-1.77,1.36-2.66,2.04c-0.94-2.19-2.17-4.26-2.9-6.54
	c-0.32-3.25-0.13-6.53-0.15-9.79c1.33-1.75,2.39-3.7,2.69-5.91c0.56-0.85,1.12-1.72,1.68-2.58c-3.15,1.03-3.99,4.6-5.94,6.91
	c-0.29-3.45,0.23-6.85,0.81-10.23c1.77-3.94,4.85-7.05,8.34-9.51C18.56,17.72,19.72,16.19,20.65,14.55 M37.62,30.25
	c0.81,0.78,1.64,1.54,2.46,2.31c-0.05-3.91,0.69-8.77,4.82-10.42c-0.08-0.55-0.23-1.66-0.31-2.21
	C40.53,21.93,39.12,26.33,37.62,30.25 M24.31,26.34c-1.38,1.59-2.84,3.16-3.9,5c-1.06,3.25-0.64,6.96,1.52,9.69
	c2.43-1.87-0.93-3.88-0.38-6.07c0.05-3.66,3.49-5.81,5.58-8.4C26.43,26.51,25.02,26.39,24.31,26.34 M92.26,45.21
	c0.07,4.7,1.78,9.27,4.221,13.23c0.529,0.07,1.58,0.2,2.109,0.26c-1.949-4.34-4.67-8.6-3.779-13.6
	C94.17,45.13,92.9,45.19,92.26,45.21 M103.95,79.48c-0.671,3.84,0.319,7.56,1.75,11.1c2.51,2.66,5.71,4.46,9.09,5.79
	c1.39-0.32,2.79-0.64,4.181-0.97c-0.031-0.16-0.091-0.48-0.121-0.642c-5.06-0.18-10.47-2.54-12.188-7.659
	C105.12,84.74,106.23,81.35,103.95,79.48z"/>
<path fill="#D6D6D6" d="M46.04,3.77c6.64-0.51,13.32-0.1,19.97-0.26c2.22,0.11,4.68-0.42,6.641,0.93C66.46,5.2,60.22,4.84,54,4.97
	C51.29,5.07,48.62,4.58,46.04,3.77z"/>
<path fill="#D3D3D3" d="M70.17,13.3c1.41,6.14,0.57,12.46,0.811,18.69c0.109,3.27-0.211,6.55-1.029,9.729
	c-0.64-5.53-0.17-11.1-0.3-16.64C69.75,21.16,69.21,17.16,70.17,13.3z"/>
<path fill="#020202" d="M37.62,30.25c1.5-3.92,2.91-8.32,6.97-10.32c0.08,0.55,0.23,1.66,0.31,2.21c-4.13,1.65-4.87,6.51-4.82,10.42
	C39.26,31.79,38.43,31.03,37.62,30.25z"/>
<path fill="#020202" d="M24.31,26.34c0.71,0.05,2.12,0.17,2.82,0.22c-2.09,2.59-5.53,4.74-5.58,8.4c-0.55,2.19,2.81,4.2,0.38,6.07
	c-2.16-2.73-2.58-6.44-1.52-9.69C21.47,29.5,22.93,27.93,24.31,26.34z"/>
<path d="M92.26,45.21c0.641-0.02,1.91-0.08,2.551-0.11c-0.891,5,1.83,9.26,3.779,13.6c-0.529-0.06-1.58-0.19-2.109-0.26
	C94.04,54.48,92.33,49.91,92.26,45.21z"/>
<path fill="#FDFDFD" d="M43.25,45.79c2.22-0.01,4.44-0.3,6.66-0.17c1.66,0.88,3.21,1.93,4.79,2.92c2.02,1.4,3.96,2.91,5.73,4.63
	c-0.29,1.17-0.58,2.35-0.86,3.53c-1.78-0.25-3.56-0.47-5.35-0.7c0.09-0.42,0.25-1.26,0.33-1.67c-4.53,2.03-9.33-0.47-14.04-0.11
	c5.74,2.33,11.98,3.85,18.19,3.61c2.57-0.31,5.12-0.96,7.72-0.7c-1.04,0.17-3.12,0.52-4.16,0.69c4.45,1.74,9.11,3.15,13.07,5.91
	c4.91,3.24,8.55,7.959,13.029,11.72c-3.549-7.03-10.119-11.87-16.719-15.82c-0.102-0.26-0.291-0.79-0.392-1.06
	c5.521,1.35,10.95,3.06,16.29,4.96c4.939,3.71,6.521,10.05,7.398,15.84c0.24,1.25,0.49,2.5,0.771,3.75
	c-2.682-0.38-5.38-0.511-8.09-0.49c2.76,1.7,6.05,2.271,8.92,3.771c1.41,1.341,1.79,3.351,2.771,4.99
	c-1.062,3.59-1.91,7.359-4.25,10.379c-1.562,0.562-3.201,0.771-4.83,1c1.068,0.9,1.949,1.99,2.789,3.11
	c-2.069,1.5-5.141,2.82-5.59,5.65c0.551,1.89,0.109,3.819-0.16,5.71c-0.799,0.34-1.59,0.68-2.379,1.02
	c-2.882,3.34-6.771,5.54-10.291,8.12c-8.261,0.28-16.541,0.011-24.821,0.14c-0.13-3.789-3.9-0.52-6-1.3
	c-8.65-1.2-17.64,0.88-26.1-1.85c-5.83-1.21-12.11-5.03-13.14-11.351c-0.24-4.66,3.09-8.459,3.93-12.899
	c0.89-4.04,2.09-8,2.99-12.03c0.88-3.76-0.79-7.43-1.55-11.029c1.44,2.649,3.7,4.75,6.43,5.989c-1.51-1.489-3.08-2.92-4.61-4.39
	c-0.66-2.18-0.18-4.57-0.32-6.82c0.59-0.43,1.78-1.29,2.38-1.72c-0.9,0.319-2.69,0.95-3.59,1.271c1.35-3.091,3.96-5.181,7.08-6.311
	c2.99-1.06,3.48-4.53,4.69-7.04c1.91-1.8,4.69-2.95,7.32-2.68c0.97,0.17,1.92,0.35,2.88,0.54l0.77,0.14
	c7.52,0.94,14.32,5.21,22.02,5.39c7.91-0.04,15.58,2.76,22.04,7.24l-1.49,0.12c-5-2.42-10.33-4.07-15.81-4.98
	c-0.96,2.55-1.8,5.14-2.52,7.77c0.76-1.21,1.65-2.33,2.53-3.439c1.61-0.83,3.1-2.641,5.08-1.831c3.41,0.81,6.779,2.07,9.699,4.03
	c2.711,2.23,4.711,5.17,7.24,7.58c-0.92-3.71-3.371-6.7-6.221-9.13c0.76,0,2.27-0.01,3.03-0.01c-6.46-4.4-13.92-7.521-21.79-7.88
	c-4.67-0.04-9.2-1.24-13.63-2.62c-2.58-0.97-5.15-1.99-7.81-2.72c-0.03-0.55-0.08-1.64-0.1-2.19c-1.34-0.34-3.22,0.21-3.86-1.35
	c0.76-0.28,2.28-0.82,3.03-1.09c0.67-0.06,2.01-0.18,2.68-0.24c0.51-0.75,1.03-1.49,1.55-2.23c0.75,0,2.25-0.01,3-0.01
	C42.02,47.03,42.84,46.2,43.25,45.79 M28.81,62.5c0.27,0.03,0.81,0.08,1.08,0.11c0.65-1.38,1.84-2.29,3.07-3.13
	c4.19-0.7,8.19,0.48,11.9,2.36c1.11,0.38,2.24,0.71,3.38,0.98c-2.85-1.84-6.21-2.63-9.23-4.13C35.21,58.21,30.72,58.68,28.81,62.5
	 M44.28,62.62c0.11,1.63,0.27,3.26,0.47,4.89c-0.91,0.68-1.81,1.37-2.69,2.07c-2.8-2.48-6.52-3.09-10.02-3.9
	c-1.87,0.83-3.83,1.41-5.84,1.75c-2.56-0.64-5.05-1.66-7.7-1.93c-1.53,0.55-2.62,2.18-4.47,2c0.38,0.96,0.77,1.91,1.1,2.88
	c-0.58,1.54-1.41,3.021-1.7,4.65c0.01,1.739,1.61,2.86,2.55,4.149c-0.57-1.431-1.26-2.801-1.78-4.25c0.48-1.83,1.22-3.591,1.37-5.5
	c1.65,0.039,3.28-0.181,4.81-0.83c-1.09,0.041-3.26,0.109-4.34,0.149c0.41-0.642,1.22-1.91,1.62-2.54c2.97,0.09,5.79,1.03,8.6,1.898
	c0.58-0.18,1.75-0.549,2.34-0.729L28.78,69c4.21,2.24,9.55,2.46,13.03,6.02c-0.26,1.45,0.31,3.75-1.68,4.062
	c-3.93,1.05-7.31,3.96-11.49,3.771c-0.92,0.5-1.83,1.029-2.73,1.569c1.05-0.25,2.08-0.569,3.09-0.938c2.2-0.08,4.3,0.539,6.35,1.238
	c1.01,1.99,2.15,3.9,3.37,5.771c1.91,0.26,5.25,1.24,5.41-1.84c-3.97,1.39-6.21-2.41-6.79-5.73c0.57-1.54,2.47-1.15,3.72-1.65
	c0.5-0.299,1.48-0.89,1.97-1.188c0.3-1.472,0.6-2.938,0.89-4.41c1.4-0.239,2.8-0.47,4.21-0.7c-0.36-0.908-0.73-1.828-1.1-2.738
	c-0.27,0.369-0.83,1.1-1.11,1.47c-0.69-0.63-2.06-1.89-2.75-2.511c0.65-0.779,1.32-1.549,1.76-2.471
	C45.56,66.65,45.51,64.47,44.28,62.62 M80.87,70.939l-0.261,0.529c0.801,2.08,1.99,4.24,4.211,5.062
	C83.57,74.8,83.42,70.811,80.87,70.939C80.49,70.51,80.49,70.51,80.87,70.939 M16.42,73.71c0.97-0.28,2.92-0.851,3.89-1.13
	c2.76,0.3,4.88,1.71,5.18,4.64c2.33,0.54,4.72,0.65,7.09,0.33c0.03-0.6,0.09-1.79,0.12-2.38c-1.35,0.21-2.69,0.42-4.03,0.63
	c-1.15-1.34-2.33-2.659-3.5-3.989C22.25,70.9,16.97,68.98,16.42,73.71 M55.79,73.73c-0.35,0.56-1.05,1.68-1.4,2.238
	c0.88,1.23,1.77,2.45,2.63,3.69c3.62-0.21,7.13-1.312,10.77-1.181c-0.04,0.289-0.12,0.879-0.16,1.17
	c-0.96,1.601,0.62,3.091,1.43,4.359c3.911,4.67,10.7,4.15,16.07,2.98c3.04-1.09,6.011,0.84,8.11,2.89
	c0.24,1.931,0.93,3.92,0.439,5.87c-0.921,1.77-2.061,3.41-2.949,5.189c6.528-0.709,7.08-10.521,2.459-14.109
	c-3.119-2.12-7.209-2.76-10.879-1.88c-0.012-0.44-0.031-1.33-0.031-1.771c0.99-0.409,1.99-0.8,2.971-1.22
	c-1.141-0.568-2.279-1.148-3.41-1.729c-0.63,0.988-1.29,1.948-1.96,2.898c0.7,0.67,1.41,1.33,2.13,1.979
	c-4.5,1.521-11.46,0.121-12.38-5.14l0.32-0.79c3.229,0.9,6.159,3.551,9.71,2.381c-0.23-4.771-4.67-7.211-8.58-8.771
	C66.04,70.88,60.53,71.13,55.79,73.73 M21.76,75.22c-1.7,2.98-4.21,5.511-5.29,8.83c-1.71,5.71-3.49,11.94-1.44,17.78
	c3.39,4.98,9.77,6.07,15,8.18c10.68,3.18,22.08,5.74,33.16,3.11c4.04-1.56,8.22-2.9,11.86-5.32c3.91-2.29,6.79-5.92,10.511-8.47
	c0.601-1.439,1.219-2.86,1.859-4.29l0.09,1.351c1.49,0.039,2.92,0.59,4.42,0.539c-0.119-2.289-2.93-2.83-4.279-4.31
	c0.011-1.601-0.029-3.2-0.121-4.8c-1,0.63-1.77,1.51-2.398,2.5c-9.408,2.74-19.23,2.84-28.92,3.38c0.25-0.601,0.76-1.79,1.02-2.39
	l0.91,1.398l0.46-1.66c0.35-0.609,1.06-1.84,1.42-2.449c2.91,1.021,5.85,2.08,8.95,2.351c-0.26-2.87-4.49-2.011-6.49-3.12
	c-0.38-2.08-1.52-2.07-3.26-1.46c-1.69-1.79-4.15-2.03-6.47-1.84c0.97,1.78,3.02,2.29,4.69,3.159c-0.02,0.431-0.05,1.311-0.06,1.74
	c-0.46,0.18-1.37,0.539-1.82,0.711c-0.37,1.229-0.77,2.438-1.21,3.639c-10.33-0.829-22.29-1.25-29.87-9.35
	c-2.53-2.301-2.2-5.779-1.25-8.74C22.86,75.57,22.13,75.33,21.76,75.22 M47.26,86.68c0,0.562,0,1.67,0,2.23
	c2.37,0.16,4.69,0.67,6.7,2c0.17-0.54,0.5-1.62,0.67-2.17C53.06,86.75,49.63,87.27,47.26,86.68 M9.62,110.359
	c1.89,2.149,3.83,4.521,6.55,5.641c13.5,4.4,27.78,5.26,41.88,5.439c0.03-0.521,0.09-1.549,0.12-2.061
	c-3.15,0.29-6.31,0.391-9.46,0.28c7.87-1.222,15.79-2.16,23.53-4.142c-0.25-0.34-0.74-1-0.98-1.33c-2.85,0.07-5.58,0.99-8.35,1.562
	c-4.66,1.108-9.46,1.29-14.19,1.858c-5.04,0.61-9.91-1.219-14.82-2.039c-4.37-0.891-8.97-1.42-12.92-3.659
	c-2.6-1.46-4.24-4.04-6.27-6.142c-0.01,4.121,3.65,6.91,7.08,8.44c6.13,2.17,12.63,2.92,18.99,4.149l0.01,0.66
	c-7.4-0.221-14.68-1.91-21.84-3.721c-3.31-0.63-5.46-3.398-7.78-5.59c-0.13-1.37-0.28-2.729-0.44-4.102
	C9.87,106.97,8.28,108.77,9.62,110.359 M25.68,111.41c5.65,2.01,11.61,3.43,17.56,4.18C37.46,113.95,31.59,112.48,25.68,111.41
	 M72.85,116.68c-4.76,1.211-9.66,3.28-14.62,2.36c0.71,0.44,1.43,0.87,2.15,1.29c5.66-1.311,11.431-2.25,17-3.95
	C75.859,116.4,74.35,116.52,72.85,116.68 M51.52,123.22c0.16,1.41,0.82,1.65,1.99,0.73C53.36,122.55,52.69,122.3,51.52,123.22z"/>
<path fill="#9B9B9B" d="M60.43,53.17c0.32,0.72,0.96,2.17,1.28,2.89c-0.96,0.66-1.95,1.27-3.01,1.77
	c-6.21,0.24-12.45-1.28-18.19-3.61c4.71-0.36,9.51,2.14,14.04,0.11c-0.08,0.41-0.24,1.25-0.33,1.67c1.79,0.23,3.57,0.45,5.35,0.7
	C59.85,55.52,60.14,54.34,60.43,53.17z"/>
<path fill="#040404" d="M32.17,54.9c1.04-0.14,2.09-0.26,3.14-0.34c2.66,0.73,5.23,1.75,7.81,2.72c4.43,1.38,8.96,2.58,13.63,2.62
	c7.87,0.36,15.33,3.48,21.79,7.88c-0.761,0-2.271,0.01-3.03,0.01L77,67.67c-6.46-4.48-14.13-7.28-22.04-7.24
	c-7.7-0.18-14.5-4.45-22.02-5.39L32.17,54.9z"/>
<path fill="#8C8C8C" d="M66.42,57.13c1.58,0.23,3.12,0.66,4.68,1.01l0.15,0.43c0.1,0.27,0.29,0.8,0.391,1.06
	c6.601,3.95,13.17,8.79,16.719,15.82c-4.479-3.761-8.118-8.48-13.028-11.72c-3.96-2.76-8.62-4.17-13.07-5.91
	C63.3,57.65,65.38,57.3,66.42,57.13z"/>
<path fill="#040404" d="M28.81,62.5c1.91-3.82,6.4-4.29,10.2-3.81c3.02,1.5,6.38,2.29,9.23,4.13c-1.14-0.27-2.27-0.6-3.38-0.98
	c-3.71-1.88-7.71-3.06-11.9-2.36c-1.23,0.84-2.42,1.75-3.07,3.13C29.62,62.58,29.08,62.53,28.81,62.5z"/>
<path d="M44.28,62.62c1.23,1.85,1.28,4.03,0.65,6.1c-0.44,0.921-1.11,1.69-1.76,2.47c0.69,0.621,2.06,1.881,2.75,2.512
	c0.28-0.37,0.84-1.102,1.11-1.471c0.37,0.91,0.74,1.83,1.1,2.739c-1.41,0.23-2.81,0.46-4.21,0.7c-0.29,1.471-0.59,2.939-0.89,4.41
	c-0.49,0.3-1.47,0.89-1.97,1.189c-1.25,0.5-3.15,0.109-3.72,1.649c0.58,3.32,2.82,7.12,6.79,5.729c-0.16,3.08-3.5,2.101-5.41,1.841
	c-1.22-1.87-2.36-3.78-3.37-5.771C33.3,84.02,31.2,83.4,29,83.48c-1.01,0.369-2.04,0.688-3.09,0.938c0.9-0.54,1.81-1.069,2.73-1.569
	c4.18,0.189,7.56-2.721,11.49-3.771c1.99-0.312,1.42-2.61,1.68-4.062c-3.48-3.56-8.82-3.778-13.03-6.02l-0.18-1.62
	c-0.59,0.181-1.76,0.55-2.34,0.729c-2.81-0.869-5.63-1.811-8.6-1.899c-0.4,0.63-1.21,1.899-1.62,2.54
	c1.08-0.04,3.25-0.109,4.34-0.15c-1.53,0.65-3.16,0.87-4.81,0.83c-0.15,1.91-0.89,3.67-1.37,5.5c0.52,1.45,1.21,2.82,1.78,4.25
	c-0.94-1.289-2.54-2.41-2.55-4.148c0.29-1.631,1.12-3.11,1.7-4.65c-0.33-0.97-0.72-1.92-1.1-2.88c1.85,0.181,2.94-1.45,4.47-2
	c2.65,0.27,5.14,1.29,7.7,1.931c2.01-0.341,3.97-0.921,5.84-1.75c3.5,0.81,7.22,1.418,10.02,3.9c0.88-0.7,1.78-1.392,2.69-2.07
	C44.55,65.88,44.39,64.25,44.28,62.62 M32.29,67.96c0.06,1.67,3.82,2.56,4.56,1.021C35.98,67.609,33.67,67.18,32.29,67.96z"/>
<path fill="#919191" d="M59.7,62.81c5.48,0.91,10.81,2.56,15.81,4.98c2.85,2.43,5.301,5.42,6.221,9.13
	c-2.529-2.41-4.529-5.35-7.239-7.58c-2.921-1.96-6.29-3.22-9.7-4.03c-1.98-0.81-3.47,1-5.08,1.831
	c-0.88,1.109-1.77,2.229-2.53,3.439C57.9,67.95,58.74,65.36,59.7,62.81z"/>
<path fill="#BDBDBD" d="M117.82,64.86c3.229-3.26,7.99,0.68,11.32,2.19c-0.062,2.181-0.33,4.53,1.5,6.11
	c-2.9,4.16-6.432,7.92-10.722,10.66c-1.069-1.54-2.13-3.07-3.25-4.562C116.59,74.42,117.529,69.67,117.82,64.86 M122.5,68.08
	c0.04,1.34,0.09,2.68,0.141,4.02c-0.341,0.521-1.021,1.562-1.371,2.08c0.932,0.08,1.852,0.16,2.78,0.24
	c0.03-2.25,0.31-4.48,0.94-6.64C124.37,67.85,123.12,68,122.5,68.08z"/>
<path fill="#9B9B9B" d="M32.29,67.96c1.38-0.78,3.69-0.351,4.56,1.021C36.11,70.52,32.35,69.63,32.29,67.96z"/>
<path fill="#040404" d="M122.5,68.08c0.62-0.08,1.87-0.23,2.49-0.3c-0.631,2.159-0.91,4.39-0.94,6.64
	c-0.93-0.08-1.85-0.16-2.78-0.24c0.352-0.52,1.03-1.56,1.371-2.08C122.59,70.76,122.54,69.42,122.5,68.08z"/>
<path fill="#4F4F4F" d="M80.87,70.939C80.49,70.51,80.49,70.51,80.87,70.939z"/>
<path fill="#040404" d="M16.42,73.71c0.55-4.729,5.83-2.81,8.75-1.899c1.17,1.33,2.35,2.649,3.5,3.989
	c1.34-0.21,2.68-0.42,4.03-0.63c-0.03,0.59-0.09,1.78-0.12,2.38c-2.37,0.32-4.76,0.21-7.09-0.33c-0.3-2.93-2.42-4.34-5.18-4.64
	C19.34,72.859,17.39,73.43,16.42,73.71z"/>
<path fill="#7F7F7F" d="M80.87,70.939c2.55-0.129,2.7,3.859,3.95,5.591c-2.221-0.82-3.41-2.98-4.211-5.062L80.87,70.939z"/>
<path fill="#030303" d="M55.79,73.73c4.74-2.602,10.25-2.852,15.29-0.94c3.91,1.56,8.35,4,8.58,8.771
	c-3.551,1.17-6.48-1.479-9.71-2.381l-0.32,0.791c0.92,5.26,7.88,6.659,12.38,5.139c-0.72-0.648-1.43-1.31-2.13-1.979
	c0.67-0.949,1.33-1.91,1.96-2.898c1.131,0.58,2.27,1.16,3.41,1.729c-0.98,0.42-1.98,0.811-2.971,1.221
	c0,0.439,0.021,1.329,0.031,1.771c3.67-0.88,7.76-0.24,10.879,1.88c4.621,3.59,4.069,13.4-2.459,14.109
	c0.89-1.779,2.028-3.42,2.949-5.189c0.489-1.95-0.199-3.939-0.439-5.87c-2.1-2.05-5.07-3.979-8.11-2.89
	c-5.37,1.17-12.159,1.689-16.07-2.98c-0.81-1.27-2.39-2.76-1.43-4.359c0.04-0.291,0.12-0.881,0.16-1.17
	c-3.64-0.131-7.15,0.971-10.77,1.181c-0.86-1.24-1.75-2.46-2.63-3.69C54.74,75.41,55.44,74.29,55.79,73.73 M57.53,75.67
	c-0.72,1.09,0.73,1.86,1.66,1.561c2.31-0.391,4.63-1,6.99-0.631c0.01-1.01,0.02-2.02,0.04-3.02
	C63.24,73.689,60.04,73.87,57.53,75.67 M74.37,77.811c-0.8,1.311,1.351,2.799,2.38,1.76C77.54,78.26,75.4,76.67,74.37,77.811z"/>
<path fill="#F4F4F4" d="M57.53,75.67c2.51-1.8,5.71-1.98,8.69-2.09c-0.02,1-0.03,2.01-0.04,3.02c-2.36-0.369-4.68,0.24-6.99,0.631
	C58.26,77.53,56.81,76.76,57.53,75.67z"/>
<path fill="#020202" d="M21.76,75.22c0.37,0.11,1.1,0.351,1.47,0.47c-0.95,2.961-1.28,6.44,1.25,8.74
	c7.58,8.102,19.54,8.521,29.87,9.352c0.44-1.2,0.84-2.41,1.21-3.641c0.45-0.171,1.36-0.531,1.82-0.711
	c0.01-0.43,0.04-1.31,0.06-1.74c-1.67-0.869-3.72-1.379-4.69-3.158c2.32-0.19,4.78,0.05,6.47,1.84c-0.1,1.568-0.31,3.13-0.62,4.68
	l-0.46,1.66l-0.91-1.398c-0.26,0.6-0.77,1.789-1.02,2.39c9.69-0.54,19.511-0.64,28.92-3.38c0.63-0.99,1.399-1.87,2.399-2.5
	c0.091,1.6,0.131,3.199,0.121,4.8c1.35,1.479,4.16,2.021,4.279,4.31c-1.5,0.051-2.931-0.5-4.421-0.539l-0.09-1.351
	c-0.642,1.431-1.26,2.851-1.858,4.29c-3.722,2.55-6.602,6.18-10.512,8.47c-3.64,2.421-7.82,3.761-11.86,5.32
	c-11.08,2.63-22.48,0.069-33.16-3.11c-5.23-2.109-11.61-3.199-15-8.18c-2.05-5.84-0.27-12.07,1.44-17.78
	C17.55,80.73,20.06,78.2,21.76,75.22 M18.38,85.59c1.65,0.27,3.46-3.07,1.63-3.93C18.43,81.99,17.88,84.26,18.38,85.59 M21.51,84.8
	c-0.93,1.48-1.88,2.95-2.84,4.42c0.55,0.66,1.1,1.32,1.65,1.97c0.67-1.988,1.39-3.97,2.2-5.908C22.27,85.16,21.76,84.92,21.51,84.8
	 M24.05,87.46c-0.34,0.601-1.02,1.79-1.36,2.39c0.08,0.812,0.14,1.62,0.21,2.432c0.78,0.52,1.56,1.039,2.34,1.568
	c0.54-1.27,1.19-2.49,1.68-3.77C26.43,88.84,25.31,87.84,24.05,87.46 M27.29,94.22c2.47,0.95,4.96,1.88,7.52,2.591
	c0.42-1.121,0.85-2.24,1.27-3.351c-2.2-0.729-4.37-1.56-6.55-2.33l-0.08-0.75C28.75,91.67,28.03,92.95,27.29,94.22 M75.439,94.76
	c-0.459,1.59-0.92,3.18-1.369,4.771c3.07-0.771,6.16-1.422,9.25-2.102c1.09-1.51,2.279-3,2.63-4.89
	C82.42,93.16,78.95,94.061,75.439,94.76 M38.06,94.3c-0.33,0.98-0.65,1.97-0.97,2.96c2.37,0.59,4.73,1.21,7.12,1.7
	c0.19-1.399,0.38-2.8,0.54-4.21C42.52,94.609,40.29,94.43,38.06,94.3 M59.64,95.62c0,1.62-0.02,3.239-0.02,4.86
	c2.79-0.371,5.57-0.801,8.38-0.9c2.529-0.04,4.57-2.09,5.32-4.391C68.76,95.35,64.2,95.48,59.64,95.62 M17.86,102.18
	c-0.01-2.35-0.38-4.68-1.15-6.898C15.84,97.66,16.29,100.21,17.86,102.18 M46.17,99.58c3.69,1.24,7.59,0.98,11.43,1.08
	c-0.09-1.63-0.15-3.25-0.24-4.87c-3.49-0.021-6.98-0.11-10.46-0.34C46.66,96.83,46.41,98.2,46.17,99.58 M19.75,98.16
	c0.05,1.77,0.44,3.939-1.66,4.73c1.37,0.56,2.71,1.17,4.05,1.789c-0.31-1.899-0.64-3.779-0.96-5.671
	C20.82,98.79,20.1,98.37,19.75,98.16 M23.46,100.15c0.48,1.91,0.93,3.83,1.23,5.77c0.91,0.34,1.82,0.67,2.74,1
	c-0.3-1.79-0.61-3.57-0.9-5.359C25.51,101.07,24.48,100.63,23.46,100.15 M74.34,101.7c-0.619,0.59-1.23,1.18-1.85,1.78
	c0,1.08,0.02,2.17,0.039,3.25c3-1.78,5.681-4.012,8.271-6.33C78.66,100.91,76.51,101.35,74.34,101.7 M29.17,102.061
	c0.13,1.84,0.33,3.681,0.52,5.529c1.45,0.57,2.92,1.07,4.42,1.51c0.1-1.81,0.17-3.63,0.22-5.438
	C32.62,103.08,30.9,102.54,29.17,102.061 M59.59,103.85c-0.43,2.61,0.25,5.17,0.84,7.69c3.42-1.17,6.82-2.44,10.259-3.57
	c-0.399-1.81-0.469-3.659-0.119-5.5C67.01,103.54,63.3,103.96,59.59,103.85 M36.39,103.48c-0.01,2.16-0.03,4.31,0.06,6.47
	c2.27,0.38,4.55,0.78,6.83,1.159c0.42-2.219,0.99-4.391,1.54-6.569C41.97,104.53,39.14,104.21,36.39,103.48 M46.91,104.74
	c-0.64,2.229-1.04,4.52-1.43,6.8c4.12,0.39,8.26,1.021,12.37,0.19c-0.29-2.521-0.74-5.041-0.47-7.58
	C53.9,104.51,50.39,104.45,46.91,104.74z"/>
<path fill="#DDDDDD" d="M74.37,77.811c1.03-1.141,3.17,0.449,2.38,1.76C75.721,80.609,73.57,79.12,74.37,77.811z"/>
<path fill="#888888" d="M94.939,79.37l0.381-0.07c0.938,5.341,6.14,8.44,7.07,13.81c-0.49-0.39-1.472-1.17-1.961-1.56
	c-0.75,3.91-1.341,8.21-4.431,11.08l-1.649,0.181l0.711-1.041c2.34-3.02,3.188-6.789,4.25-10.379c-0.98-1.641-1.36-3.649-2.771-4.99
	c-2.87-1.5-6.16-2.069-8.92-3.771c2.71-0.021,5.408,0.11,8.09,0.49C95.43,81.87,95.18,80.62,94.939,79.37z"/>
<path fill="#020202" d="M103.95,79.48c2.28,1.869,1.17,5.26,2.71,7.619c1.72,5.119,7.13,7.479,12.189,7.659
	c0.029,0.16,0.09,0.48,0.121,0.642c-1.392,0.33-2.791,0.648-4.182,0.97c-3.38-1.33-6.58-3.13-9.09-5.79
	C104.27,87.04,103.279,83.32,103.95,79.48z"/>
<path fill="#9B9B9B" d="M18.38,85.59c-0.5-1.33,0.05-3.6,1.63-3.93C21.84,82.52,20.03,85.859,18.38,85.59z"/>
<path fill="#F4F4F4" d="M21.51,84.8c0.25,0.12,0.76,0.36,1.01,0.48c-0.81,1.938-1.53,3.92-2.2,5.909
	c-0.55-0.649-1.1-1.311-1.65-1.971C19.63,87.75,20.58,86.28,21.51,84.8z"/>
<path fill="#040404" d="M47.26,86.68c2.37,0.59,5.8,0.07,7.37,2.062c-0.17,0.55-0.5,1.63-0.67,2.17c-2.01-1.33-4.33-1.841-6.7-2
	C47.26,88.35,47.26,87.24,47.26,86.68z"/>
<path fill="#9B9B9B" d="M59.22,86.37c1.74-0.61,2.88-0.62,3.26,1.46c2,1.109,6.23,0.25,6.49,3.12c-3.1-0.271-6.04-1.33-8.95-2.351
	c-0.36,0.609-1.07,1.84-1.42,2.449C58.91,89.5,59.12,87.939,59.22,86.37z"/>
<path fill="#FBFBFB" d="M24.05,87.46c1.26,0.38,2.38,1.38,2.87,2.62c-0.49,1.279-1.14,2.5-1.68,3.77
	c-0.78-0.529-1.56-1.05-2.34-1.568c-0.07-0.812-0.13-1.62-0.21-2.432C23.03,89.25,23.71,88.061,24.05,87.46z"/>
<path fill="#F8F8F8" d="M27.29,94.22c0.74-1.27,1.46-2.55,2.16-3.84l0.08,0.75c2.18,0.771,4.35,1.601,6.55,2.33
	c-0.42,1.11-0.85,2.229-1.27,3.351C32.25,96.1,29.76,95.17,27.29,94.22z"/>
<path fill="#FDFDFD" d="M100.43,91.55c0.49,0.39,1.471,1.17,1.961,1.56c0.279,5.102-3.261,10.041-8.031,11.602
	c-0.278-0.2-0.84-0.59-1.118-0.779c-0.08-0.24-0.229-0.729-0.312-0.971l1.42-0.148L96,102.63C99.09,99.76,99.68,95.46,100.43,91.55z
	"/>
<path fill="#FFFFFF" d="M75.439,94.76c3.511-0.699,6.979-1.6,10.511-2.22c-0.351,1.89-1.54,3.38-2.63,4.89
	c-3.09,0.68-6.18,1.33-9.25,2.102C74.52,97.939,74.98,96.35,75.439,94.76z"/>
<path fill="#FFFFFF" d="M38.06,94.3c2.23,0.13,4.46,0.31,6.69,0.45c-0.16,1.41-0.35,2.811-0.54,4.21c-2.39-0.49-4.75-1.11-7.12-1.7
	C37.41,96.27,37.73,95.28,38.06,94.3z"/>
<path fill="#FBFBFB" d="M59.64,95.62c4.56-0.14,9.12-0.271,13.68-0.431C72.57,97.49,70.529,99.54,68,99.58
	c-2.81,0.1-5.59,0.529-8.38,0.9C59.62,98.859,59.64,97.24,59.64,95.62z"/>
<path fill="#9B9B9B" d="M17.86,102.18c-1.57-1.97-2.02-4.52-1.15-6.898C17.48,97.5,17.85,99.83,17.86,102.18z"/>
<path fill="#FCFCFC" d="M46.17,99.58c0.24-1.38,0.49-2.75,0.73-4.13c3.48,0.229,6.97,0.319,10.46,0.34
	c0.09,1.62,0.15,3.24,0.24,4.87C53.76,100.561,49.86,100.82,46.17,99.58z"/>
<path fill="#D4D4D4" d="M103.52,97.46c6.972,3.79,15.24-0.229,22.5,2.69c-7.83,0.41-15.688,0.148-23.528,0.18
	C102.83,99.37,103.17,98.41,103.52,97.46z"/>
<path fill="#DDDDDD" d="M19.75,98.16c0.35,0.21,1.07,0.63,1.43,0.85c0.32,1.891,0.65,3.771,0.96,5.67
	c-1.34-0.619-2.68-1.229-4.05-1.789C20.19,102.1,19.8,99.93,19.75,98.16z"/>
<path fill="#FFFFFF" d="M23.46,100.15c1.02,0.479,2.05,0.92,3.07,1.41c0.29,1.789,0.6,3.568,0.9,5.358c-0.92-0.33-1.83-0.66-2.74-1
	C24.39,103.98,23.94,102.061,23.46,100.15z"/>
<path fill="#FFFFFF" d="M74.34,101.7c2.17-0.351,4.32-0.79,6.46-1.3c-2.59,2.318-5.271,4.55-8.271,6.33
	c-0.021-1.08-0.039-2.17-0.039-3.25C73.109,102.88,73.721,102.29,74.34,101.7z"/>
<path fill="#FBFBFB" d="M29.17,102.061c1.73,0.479,3.45,1.021,5.16,1.601c-0.05,1.81-0.12,3.63-0.22,5.438
	c-1.5-0.438-2.97-0.938-4.42-1.51C29.5,105.74,29.3,103.9,29.17,102.061z"/>
<path fill="#FDFDFD" d="M59.59,103.85c3.71,0.11,7.42-0.31,10.98-1.38c-0.35,1.841-0.28,3.69,0.119,5.5
	c-3.439,1.13-6.839,2.4-10.259,3.57C59.84,109.02,59.16,106.46,59.59,103.85z"/>
<path fill="#FBFBFB" d="M36.39,103.48c2.75,0.729,5.58,1.05,8.43,1.06c-0.55,2.18-1.12,4.351-1.54,6.569
	c-2.28-0.379-4.56-0.779-6.83-1.159C36.36,107.79,36.38,105.641,36.39,103.48z"/>
<path fill="#FCFCFC" d="M46.91,104.74c3.48-0.29,6.99-0.23,10.47-0.59c-0.27,2.539,0.18,5.06,0.47,7.58
	c-4.11,0.83-8.25,0.199-12.37-0.19C45.87,109.26,46.27,106.97,46.91,104.74z"/>
<path fill="#9B9B9B" d="M9.62,110.359c-1.34-1.59,0.25-3.391,1.11-4.75c0.16,1.371,0.31,2.729,0.44,4.101
	c2.32,2.19,4.47,4.96,7.78,5.59c7.16,1.81,14.44,3.5,21.84,3.72l-0.01-0.66c-6.36-1.229-12.86-1.979-18.99-4.148
	c-3.43-1.529-7.09-4.318-7.08-8.439c2.03,2.101,3.67,4.681,6.27,6.141c3.95,2.24,8.55,2.77,12.92,3.66
	c4.91,0.82,9.78,2.648,14.82,2.039c4.73-0.569,9.53-0.75,14.19-1.859c2.77-0.57,5.5-1.49,8.35-1.561c0.24,0.33,0.73,0.99,0.98,1.33
	c-7.74,1.979-15.66,2.92-23.53,4.141c3.15,0.109,6.31,0.01,9.46-0.28c-0.03,0.511-0.09,1.54-0.12,2.06
	c-14.1-0.18-28.38-1.039-41.88-5.438C13.45,114.88,11.51,112.51,9.62,110.359z"/>
<path fill="#040404" d="M25.68,111.41c5.91,1.07,11.78,2.54,17.56,4.18C37.29,114.84,31.33,113.42,25.68,111.41z"/>
<path fill="#040404" d="M72.85,116.68c1.5-0.16,3.01-0.279,4.53-0.3c-5.569,1.7-11.34,2.64-17,3.95c-0.72-0.42-1.44-0.85-2.15-1.29
	C63.19,119.96,68.09,117.891,72.85,116.68z"/>
<path fill="#D2D2D2" d="M51.52,123.22c1.17-0.92,1.84-0.67,1.99,0.73C52.34,124.87,51.68,124.63,51.52,123.22z"/>
</svg>
