<?xml version="1.0" encoding="utf-8"?>
<!-- Generator: Adobe Illustrator 15.0.2, SVG Export Plug-In . SVG Version: 6.00 Build 0)  -->
<!DOCTYPE svg PUBLIC "-//W3C//DTD SVG 1.1//EN" "http://www.w3.org/Graphics/SVG/1.1/DTD/svg11.dtd">
<svg version="1.1" id="Layer_1" xmlns="http://www.w3.org/2000/svg" xmlns:xlink="http://www.w3.org/1999/xlink" x="0px" y="0px"
	 width="240px" height="191px" viewBox="0 0 240 191" enable-background="new 0 0 240 191" xml:space="preserve">
<path fill="#FFFFFF" d="M0,0h240v191H0V0 M106.09,2.5c-1.21,1.3-2.53,2.51-3.68,3.87c-0.35,2.11-0.12,4.27-0.14,6.41
	c-2.55-0.01-5.28,0.57-7.55-0.93c-1.17-0.95-2.47,0.13-3.61,0.51c0.07-1.31,0.14-2.63,0.21-3.94c-2.12-1.34-4.27-2.62-6.36-4
	c-0.89,0.82-1.78,1.64-2.67,2.46c-0.04,0.68-0.1,2.03-0.14,2.71c-1.18-0.32-2.36-0.67-3.53-1.03c-0.89,1.14-1.76,2.31-2.61,3.48
	c-1.81,0.94-3.35,2.32-3.4,4.52c-0.69,0.21-2.08,0.62-2.78,0.83c-0.55-0.33-1.64-1-2.19-1.33c-1.05-2.83-3.78-4.31-6.25-5.72
	c-0.86-1.14-1.96-2.05-3.29-2.59c-0.37,0.42-1.13,1.26-1.5,1.68c-2.26-0.21-4.45,0.36-4.62,2.98c-1.13,0.65-2.26,1.31-3.37,2
	c0.08,0.68,0.23,2.05,0.31,2.74c-3.11,0.25-3.93,2.98-3.43,5.66c0.59,0.93,1.16,1.85,1.73,2.79c-1.42,0.66-2.79,1.43-4.22,2.04
	c-2.34-1.4-7.03-1.26-5.8-5.26c-2-2.69-5.41-1.67-7.19,0.69c-1.2,0.72-2.5,1.31-3.55,2.25c-0.76,1.66-0.01,3.33,1.16,4.55
	c-2.22,0.62-2.88,2.92-4.1,4.59c-1.21,1.3-1.42,2.99-0.7,4.6c-0.39,0.44-1.16,1.31-1.54,1.75c2.34,2.19,0,5.57,1.63,8.1
	c0.68,2.07,2.79,3.04,4.49,4.14c-2.45,2.45-4.96,4.85-7.44,7.28c-2.37,2.73-4.1,5.86-4.74,9.45c-1.39,2.438-1.29,5.81,0.08,8.24
	c1.24,6,3.74,11.64,6.62,17.02c2.94,5.51,5.22,11.59,4.9,17.93c-0.3,2.931,0.84,6.33-1.18,8.82c-1.12,8.271-0.78,16.59-0.9,24.91
	c0.04,3.92-2.26,7.55-1.41,11.47c0.4,3.36-0.3,7.02,1.69,10.01c2.04,4.51,5.69,7.95,9.43,11.07c0.94,0.51,1.87,1.05,2.79,1.62
	c3.4,1.88,7.09,3.08,10.8,4.17c7.91,1.21,16.2,2.96,24.04,0.21c0.75,1.95,2.97,1.189,4.51,1.561l-0.2-1.201
	c3.57-0.188,7.08-1.01,10.66-0.868c2.11,0.159,4-0.87,5.69-2c0.82,0.04,2.46,0.1,3.28,0.13c2.65,2.1,5.51-1.271,6.92-3.37
	c2.04-0.04,4.09,0,6.14-0.062c4.59-1.84,9.46-2.75,14.199-4.148c0.891-0.5,1.791-0.99,2.691-1.471
	c8.568-3.471,16.368-8.569,24.868-12.221c11.74-5.05,23.222-10.789,33.979-17.709c5.58-3.99,10.761-8.631,14.99-14.051
	c3.351-4.24,3.989-9.8,6.729-14.369c1.149-2.171,2.681-4.101,4.12-6.07c5.21-5.471,11.369-10.369,14.8-17.239
	c3.72-9.58,2.39-21.82-5.79-28.75c-5-5.54-11.62-9.52-15.66-15.94c-0.96-2.15-2.02-4.25-2.92-6.42c0.811-3.13,3.77-5.02,6.65-6.1
	c0.01-1.35,0.029-2.71,0.05-4.06c-0.79-0.66-1.569-1.32-2.36-1.97c-2.14-0.17-4.07-1.09-6.039-1.82c0.68-1.43,1.399-2.85,2.119-4.27
	c-0.68-0.66-1.369-1.33-2.06-1.99c-3.44-0.39-6.99-1.2-10.101,0.9c-0.959-1.04-1.949-2.05-2.931-3.06
	c-0.97-0.74-1.92-1.51-2.851-2.29c0.521-1.33,0.881-2.7,1.091-4.11c-1.689-1.32-3.351-2.68-5.142-3.86
	c-3.47-0.34-7.029-0.37-10.49,0.02c-3.648,2.19-7.389,4.38-11.639,5.14c1.069-1.69,1.129-3.63,0.939-5.56
	c-0.65-1.11-1.32-2.22-2.02-3.3c-2.132,0.061-4.262,0.08-6.392,0.07c-0.608,0.61-1.22,1.22-1.83,1.83
	c-2.38,1.03-5.271,1.37-6.88,3.63c-0.79,0.78-1.58,1.57-2.37,2.36c-0.54,0.08-1.619,0.23-2.16,0.3c0.08-3.13,2.142-6.77-0.13-9.5
	c-2.62,0.23-5.6-0.4-7.859,1.31c-1.779,1.49-3.5,3.07-5.351,4.48c-1.67,0.8-3.2,1.85-4.46,3.21c-1.46,0.17-2.93,0.29-4.4,0.41
	c-0.02-2.28-0.02-4.561-0.2-6.83c-1.26-1.67-2.61-3.28-4.16-4.7C108.76,1.64,107.43,2.09,106.09,2.5z"/>
<path d="M106.09,2.5c1.34-0.41,2.67-0.86,4.03-1.21c1.55,1.42,2.9,3.03,4.16,4.7c0.18,2.27,0.18,4.55,0.2,6.83
	c1.47-0.12,2.94-0.24,4.4-0.41c1.26-1.36,2.79-2.41,4.46-3.21c1.85-1.41,3.57-2.99,5.35-4.48c2.262-1.71,5.24-1.08,7.86-1.31
	c2.271,2.73,0.21,6.37,0.13,9.5c0.541-0.07,1.62-0.22,2.16-0.3c0.79-0.79,1.58-1.58,2.37-2.36c1.61-2.26,4.5-2.6,6.88-3.63
	c0.61-0.61,1.221-1.22,1.83-1.83c2.13,0.01,4.26-0.01,6.391-0.07c0.699,1.08,1.369,2.19,2.021,3.3c0.188,1.93,0.13,3.87-0.938,5.56
	c4.25-0.76,7.988-2.95,11.639-5.14c3.461-0.39,7.021-0.36,10.49-0.02c1.791,1.18,3.451,2.54,5.141,3.86
	c-0.21,1.41-0.57,2.78-1.09,4.11c0.93,0.78,1.88,1.55,2.85,2.29c0.98,1.01,1.971,2.02,2.93,3.06c3.11-2.1,6.66-1.29,10.102-0.9
	c0.689,0.66,1.38,1.33,2.061,1.99c-0.721,1.42-1.439,2.84-2.119,4.27c1.969,0.73,3.898,1.65,6.039,1.82
	c0.791,0.65,1.569,1.31,2.359,1.97c-0.021,1.35-0.04,2.71-0.05,4.06c-2.882,1.08-5.841,2.97-6.649,6.1
	c0.899,2.17,1.959,4.27,2.92,6.42c4.039,6.42,10.659,10.4,15.659,15.94c8.181,6.93,9.511,19.17,5.79,28.75
	c-3.431,6.87-9.59,11.77-14.8,17.24c-1.438,1.97-2.972,3.898-4.12,6.068c-2.74,4.57-3.38,10.131-6.729,14.37
	c-4.23,5.42-9.41,10.062-14.99,14.052c-10.76,6.92-22.24,12.658-33.98,17.709c-8.5,3.649-16.3,8.75-24.869,12.221
	c-0.899,0.479-1.801,0.97-2.69,1.47c-4.739,1.399-9.609,2.31-14.199,4.149c-2.05,0.061-4.1,0.021-6.14,0.061
	c-1.41,2.1-4.27,5.47-6.92,3.37c-0.82-0.03-2.46-0.09-3.28-0.13c-1.69,1.13-3.58,2.16-5.69,2c-3.58-0.141-7.09,0.68-10.66,0.869
	l0.2,1.201c-1.54-0.371-3.76,0.39-4.51-1.562c-7.84,2.75-16.13,1-24.04-0.21c-3.71-1.09-7.4-2.29-10.8-4.17
	c-0.92-0.57-1.85-1.11-2.79-1.62c-3.74-3.12-7.39-6.562-9.43-11.07c-1.99-2.989-1.29-6.649-1.69-10.01
	c-0.85-3.92,1.45-7.55,1.41-11.47c0.12-8.32-0.22-16.641,0.9-24.91c2.02-2.49,0.88-5.891,1.18-8.82c0.32-6.34-1.96-12.42-4.9-17.93
	c-2.88-5.38-5.38-11.02-6.62-17.02c-1.37-2.43-1.47-5.8-0.08-8.24c0.64-3.59,2.37-6.72,4.74-9.45c2.48-2.43,4.99-4.83,7.44-7.28
	c-1.7-1.1-3.81-2.07-4.49-4.14c-1.63-2.53,0.71-5.91-1.63-8.1c0.38-0.44,1.15-1.31,1.54-1.75c-0.72-1.61-0.51-3.3,0.7-4.6
	c1.22-1.67,1.88-3.97,4.1-4.59c-1.17-1.22-1.92-2.89-1.16-4.55c1.05-0.94,2.35-1.53,3.55-2.25c1.78-2.36,5.19-3.38,7.19-0.69
	c-1.23,4,3.46,3.86,5.8,5.26c1.43-0.61,2.8-1.38,4.22-2.04c-0.57-0.94-1.14-1.86-1.73-2.79c-0.5-2.68,0.32-5.41,3.43-5.66
	c-0.08-0.69-0.23-2.06-0.31-2.74c1.11-0.69,2.24-1.35,3.37-2c0.17-2.62,2.36-3.19,4.62-2.98c0.37-0.42,1.13-1.26,1.5-1.68
	c1.33,0.54,2.43,1.45,3.29,2.59c2.47,1.41,5.2,2.89,6.25,5.72c0.55,0.33,1.64,1,2.19,1.33c0.7-0.21,2.09-0.62,2.78-0.83
	c0.05-2.2,1.59-3.58,3.4-4.52c0.85-1.17,1.72-2.34,2.61-3.48c1.17,0.36,2.35,0.71,3.53,1.03c0.04-0.68,0.1-2.03,0.14-2.71
	c0.89-0.82,1.78-1.64,2.67-2.46c2.09,1.38,4.24,2.66,6.36,4c-0.07,1.31-0.14,2.63-0.21,3.94c1.14-0.38,2.44-1.46,3.61-0.51
	c2.27,1.5,5,0.92,7.55,0.93c0.02-2.14-0.21-4.3,0.14-6.41C103.56,5.01,104.88,3.8,106.09,2.5 M128.9,18.15
	c0.648,0.62,1.31,1.23,1.97,1.84c-1.94-0.14-3.83,0.18-5.601,0.93c-2.069,0.3-4.911,2.65-2.049,4.27
	c3.85,0.13,7.709-0.02,11.559,0.39c-0.029-1.97-0.079-3.92-0.189-5.88l-2.619,0.7c-0.191-0.53-0.57-1.58-0.761-2.11
	c2.101,0.02,4.979,0.85,5.22-2.13C133.779,16.24,130.5,15.38,128.9,18.15 M150.5,16.48c-1.51,1.16-2.49,2.81-3.43,4.43
	c2.619,0.77,5.289,1.48,7.619,2.97c-0.021-2.56-0.021-5.12,0.031-7.68C153.311,16.29,151.891,16.22,150.5,16.48 M107.04,17.73
	c0.29,0.74,0.58,1.47,0.88,2.21c2.04,0,4.08-0.02,6.13-0.04c-0.01-0.68-0.01-2.05-0.01-2.73C111.71,17.31,109.37,17.5,107.04,17.73
	 M171.79,17.11c-0.69,4.81-6.83,7.04-6.46,11.93c3.46,3.16,7.77,5.28,11.04,8.68c2.021-3.02,3.729-6.41,7.22-8
	c0.58-1.88,1.93-3.3,3.98-3.42C183.79,21.28,178.12,17.66,171.79,17.11 M93.91,18.62c0.75,1.13,1.5,2.26,2.24,3.4
	c2.3-0.17,4.57-0.49,6.84-0.86c-0.31-0.8-0.94-2.39-1.26-3.18C99.11,17.91,96.51,18.38,93.91,18.62 M60.2,19.27
	C60.72,19.78,60.72,19.78,60.2,19.27 M52.02,22.36c0.84,0.42,2.86,0.2,2.66-1.09C53.94,19.67,50.51,20.66,52.02,22.36 M77.84,21.12
	c0.75,1.33,2.97,0.92,4.23,0.57C83.06,19.71,78.68,19.95,77.84,21.12 M71.41,21.99c1.54,1.19,3.58,1.16,5.21,2.14
	c0.63,1.54,1.1,3.15,1.57,4.75c-5.09,1.5-10.93,1.45-15.71-0.95c-2.08,1.19-4.07,2.53-6.19,3.66c1.34-2.42,3.68-3.85,6.31-4.53
	c0.03-0.9,0.1-2.7,0.14-3.59c-5.31,0.72-9.83,3.76-14.66,5.83c2.11,2.53,2.88,5.78,4,8.8c-0.84,0.97-1.89,1.73-2.9,2.52
	c-0.65,1.24-1.35,2.45-2.09,3.64c-1.82-0.22-3.49-0.91-5.02-1.91c-0.28-1.69-0.61-3.37-0.89-5.07c-0.88-0.021-1.77-0.03-2.65-0.05
	c-0.83,0.91-1.69,1.79-2.56,2.67c0.01,3.33,0.57,6.91-1.05,9.98c-2.22,5.92-7.69,9.55-11.4,14.43c-4.36,6.61-4.76,15.45-1.33,22.53
	c4.06,6.32,8.6,12.86,8.72,20.69c0.78-1.062,1.99-2.021,1.72-3.5c0.03-3.5,0.79-6.94,0.82-10.44c-2.76-1.07-5.51-2.13-8.23-3.28
	c-0.5-0.97-1.41-1.91-1.12-3.1c3.02,2.13,6.38,3.78,10.06,4.7c-0.06-2.45,0.33-5.55-2.95-5.62c-1.13-1.59-2.8-3.13-2.57-5.26
	c0.08-3.99-0.33-8.08,0.69-11.98c2.47-2.39,5.92-3.41,9.09-4.55c-2.05,2.39-5,3.58-7.68,5.08c-1.03,3.86-0.35,7.92-1.39,11.78
	c1.51,1.87,3.23,3.55,4.93,5.24c1.16-2.62,2.88-7.22,6.54-4.75c2.12-1.13,4.01-2.68,5.22-4.77c2.07-0.27,2.62,1.6,3.06,3.19
	c3.04,1.32,6.57,0.37,9.5,1.99c3.08,1.48,4.74,5.04,8.24,5.771c3.05,0.61,5.22,2.87,7.45,4.85c-0.45-1.49-0.97-2.95-1.48-4.42
	l-0.9,0.41c-0.41-0.61-0.83-1.22-1.25-1.82c6.27-3.12,11.12-8.4,16.71-12.53c-0.06-2.76-0.05-5.51-0.02-8.27
	c-5.6-3-12.09-2.8-18.21-3.75c-4.5-0.77-9.97,0.12-13.45-3.42c1.21-3.13,4.11-4.94,6.93-6.46c10.22-1.67,22.42-0.03,29.42,8.31
	c1.98-0.46,3.98-1.31,6.05-1.01c1.65,0.49,2.03,1.5,1.16,3.02c-1.59,1.97-4.17,2.62-6.49,3.27c-1.51,3.76-0.3,7.87-1.07,11.74
	c-3.02,3.18-8.14,4.02-9.96,8.45c1.48,1.83,2.73,3.83,3.97,5.83c2.04,1.58,3.82,3.69,6.46,4.27c2.33-0.46,4.25-2.93,6.8-1.7
	c-1.52,2.801-3.11,7.592-7.08,7.03c-4.77-1.722-7.54-6.29-10.89-9.81c0.38,0.55,1.12,1.66,1.5,2.21
	c-2.02,1.871-4.19,3.582-6.34,5.291c-2.74-1-5.13-3.109-8.18-3.051c-4.46-0.34-8.41-2.74-11.46-5.9c-1.86-2.05-4.74-2.25-7.24-2.88
	c0.6,1.37,0.79,3.01,1.84,4.14c6.37,5.17,13.88,9.108,22,10.569c8.74,2.561,17.96,1.051,26.92,1.369
	c6.97-1.129,14.07-1.729,20.85-3.81c-5.53-0.319-11.03,1.17-16.58,0.41c-1.28-0.55-2.36-1.37-3.24-2.44c0.46-1,1.02-1.93,1.69-2.8
	c5.14-0.59,11.59,1.9,15.58-2.45c-4.93-0.51-9.88,0.3-14.8-0.29c0.86-1.34,1.83-2.58,2.81-3.82c4.76-1.55,9.69-1.03,14.46,0.15
	c-0.1,1.25-0.2,2.49-0.3,3.74c1.62-0.87,3.38-1.38,5.08-2.06c1.46-1.72,0.779-3.89,0.189-5.8c-3.08-0.03-6.201,0.04-9.149-0.96
	c-0.02-0.55-0.07-1.64-0.09-2.19c3.7-3.31,8.61-1.43,12.47,0.49c2.529,1.15,1.54,4.36,1.779,6.57c0.271-0.13,0.811-0.38,1.08-0.51
	c1.771-0.11,3.511-0.45,5.121-1.21c0.22,0.11,0.64,0.33,0.85,0.44c0.24-0.59,0.71-1.78,0.939-2.37c2.791-0.09,5.58-0.22,8.371-0.4
	c0.43-0.43,1.289-1.28,1.719-1.71c2.291-0.34,4.551-1.05,6.221-2.73c3.609-0.46,6.97-1.76,10.35-3.01
	c0.93-0.58,1.851-1.16,2.771-1.76c2.26-0.01,4.529-0.04,6.8-0.07c1.181-0.97,2-2.95,3.84-2.59c2.86,0.18,5.632-0.4,8.351-1.24
	c3.91,0.68,7.91,0.72,11.811-0.04c1.76,2.03,3.33,4.32,5.87,5.46c-1.5-2.87-3.569-5.37-6.11-7.37
	c-5.199-1.89-11.88-3.19-16.529,0.59c-4.279,2.77-9.33,3.82-14.239,4.84c-7.08,1.1-14.87,0.41-20.851-3.86
	c-2.42-1.78-2.811-4.95-3.461-7.65c6.36,1.26,10.351,8.35,17.28,7.93c9.63,0.94,16.53-8.08,25.99-8.08
	c9.601-0.96,20.239,4.89,22.489,14.66c1.711,4.99-0.489,10.22-3.109,14.46c-1.16,0.84-2.32,1.67-3.49,2.48
	c-0.189,2.24-1.07,4.31-1.68,6.45c-1,3.46-1.76,7.14-3.971,10.07c0.729,3.21-1.399,5.87-2.26,8.8c-1.17,4.15-4.709,6.891-7.4,10.051
	c-1.319,0.299-2.5,0.93-3.399,1.949c-1.97,1.38-3.851,2.891-5.739,4.391c0.789,0,2.359,0,3.149,0
	c-6.94,3.811-13.29,8.641-19.09,14.011c-1.36,1.149-3.011,1.868-4.46,2.89c3.39-1.199,6.49-3.068,9.68-4.71
	c11.12-5.778,22.45-12.601,29.65-23.149c4.67-6.359,4.09-16.771,12.33-20.141c-0.211-0.648-0.42-1.3-0.621-1.949
	c7.381-4.811,13.361-12.399,14.221-21.391c0.32-3.51-1.221-6.76-2.18-10.04c-2.791-5.29-7.07-9.89-12.61-12.32
	c-5.21-2.59-11.25-2.38-16.899-1.98c3.959-2.91,9.021-0.93,13.5-1.15c-1.109-1.5-2.229-2.98-3.399-4.43
	c-3.069-4.96-5.25-10.38-7.979-15.52c-0.521-0.01-1.551-0.02-2.07-0.03c-0.76-0.77-1.529-1.53-2.299-2.28
	c-0.021,0.61-0.062,1.85-0.08,2.46c-1.61,1.99-2.562,4.39-3.92,6.53c-2.102-0.021-4.19-0.03-6.281-0.04
	c-0.42-0.38-1.26-1.16-1.67-1.55c-0.02-0.59-0.061-1.77-0.08-2.37c-4.27-2.87-8.569-5.71-12.889-8.51
	c-1.352,1.26-2.972,2.09-4.881,2.1c6.029,3.47,11.569,7.86,16.1,13.15c-0.129,0.04-0.409,0.13-0.549,0.17
	c-1.49-1.36-3.031-2.67-4.621-3.91c-4.549-3.37-9.18-6.67-14.311-9.12c-10.279-5.18-21.96-6.96-33.369-6.86
	c-0.439,0.38-1.311,1.15-1.75,1.53c-3.341-0.03-6.73-0.52-10.031,0.25c-7.39,1.8-15.03,2.32-22.61,2.26
	c-0.28-0.59-0.84-1.77-1.12-2.35c-0.32,0.28-0.95,0.86-1.26,1.15c-2.26,0.61-4.6,0.31-6.8-0.37c2.01-0.11,4.03-0.07,6.04,0.12
	c1.07-1.45,2.67-4.28,0.57-5.45C81.1,22.37,76.22,22.17,71.41,21.99 M109.29,22.21c-0.44,0.52-1.3,1.55-1.74,2.06
	c-1.26-0.44-2.48-0.98-3.64-1.63c-2.27,0.27-4.54,0.6-6.8,0.9c0.42,0.88,0.84,1.76,1.26,2.65c-1.72,1.85-4.32,1.66-6.55,2.39
	c7.53-0.12,14.98-1.21,22.32-2.83c-0.37-1.43-0.74-2.85-1.07-4.29C111.81,21.71,110.55,21.96,109.29,22.21 M144.41,27.37
	c4.18,0.77,8.22,2.14,12.029,4.01c-0.811-0.71-1.641-1.42-2.479-2.11c-0.01-1.42-0.03-2.85-0.06-4.27c-2.15-0.85-4.32-1.66-6.43-2.6
	C146.4,24.03,145.4,25.7,144.41,27.37 M139.29,25.19C139.55,28.51,142.25,23.58,139.29,25.19 M157.33,31.32
	C157.87,31.85,157.87,31.85,157.33,31.32 M62.61,56.78c3.3,2.2,7.52,0.88,11.2,0.7C70.55,55.02,66.31,56.63,62.61,56.78
	 M189.609,76.52c2.391,3.24,5.92,5.26,9.431,7.06c-0.87-1.64-1.92-3.22-3.61-4.13c-0.1-0.92-0.188-1.84-0.279-2.76
	C193.311,76.58,191.46,76.53,189.609,76.52 M168.38,80.56c-2.47,3.11-6.34,4.25-9.64,6.18c-4.51,2.71-10.04,2.83-14.551,5.53
	c-2.689,1.71-5.989,0.61-8.969,0.94c-4.08,3.22-9.802,3.38-13.691,6.88c19.891-5.08,39.229-12.15,57.841-20.78
	C175.721,79.92,171.98,79.65,168.38,80.56 M204.29,80.11C204.43,83.45,207.279,78.57,204.29,80.11 M169.05,90.39
	c-0.6,0.09-1.8,0.27-2.399,0.37c0.08,3.1,0.209,6.2,0.091,9.301c6.34-1.561,13.159-3.42,17.63-8.511c2.37-2.55,2.898-6.05,3.5-9.33
	C180.65,81.95,175.16,87.37,169.05,90.39 M190.84,95.32c-9.14,9.571-14.359,22.3-24.609,30.9
	c-14.801,11.89-32.939,20.71-52.229,20.97c-12.27,1.211-24.66,1.67-36.94,0.291c-9.63-0.689-19.79-1.311-28.34-6.229
	c-7.4-6.13-8.57-16.188-9.91-25.069c-0.35,0.271-1.06,0.811-1.42,1.079c-0.01,3.91-0.99,7.75-0.72,11.681
	c-0.94,0.681-1.88,1.351-2.83,2.011c1.03,3.14,0.07,6.84,2.24,9.54c0.02,1.88-0.5,3.66-1.41,5.3c-0.01,2.39-0.12,4.819,0.4,7.181
	c0.44,5.17,3.32,10.189,1.63,15.379c2.4-2.459,2.62-6.08,4.6-8.8c-1.09-1.21-2.12-2.46-3.24-3.63c-0.07-2.05-0.11-4.09-0.14-6.13
	c0.36-0.12,1.07-0.36,1.43-0.479c-0.01,2.279-0.01,4.561-0.03,6.84c0.53,0.619,1.6,1.859,2.13,2.479c0.81-0.84,1.65-1.64,2.52-2.42
	c1.19,0.521,2.26,1.229,3.22,2.13c1.47-1.58,2.92-3.17,4.26-4.859c-1.03-2.09-2.13-4.149-3.03-6.311c1.11,1.16,2.13,2.38,3.11,3.65
	c0.42-0.49,1.26-1.461,1.67-1.95c1.19-1.58,2.68,0.72,3.83,1.22c1.33,0.42,2.83,0.68,3.68,1.93c-0.03,1.381-0.18,2.762-0.44,4.121
	c7.16,1.771,14.42,3.311,21.83,3.439c-5.73,0.05-11.45-0.27-17.17-0.53c-2.25,0-4.36-0.8-6.43-1.56c2,1.99,1.7,4.77,0.93,7.25
	c8.42,1.25,17.01,1.34,25.48,0.449c1.06,0.109,2.13,0.229,3.19,0.359l1.69,0.53c-10.55,0.47-21.12,0.569-31.67,0.229
	c-1.88,2.471-3.12,5.439-5.92,7.08c3.71,1.811,8.2,1.141,11.99-0.16c8.61-0.961,17.61,1.319,25.92-1.66
	c1.54,0.75,2.75,1.99,4.16,2.931c-0.61-1.22-1.24-2.431-1.89-3.608c2.18-2.32,4.74-4.32,7.89-5.07c3.17,0.289,6.36-0.19,9.13-1.801
	c1.97-0.17,4.01-0.209,5.72-1.34c1.93-1.119,3.82,0.711,5.699,1.051c2.891-0.771,5.631-1.972,8.479-2.871
	c1.171-0.119,1.5-1.359,1.421-2.34c-4.471,1.029-8.921,2.199-13.479,2.771c2.91-2.399,6.948-2.101,10.319-3.51
	c11.289-3.21,22.101-7.851,32.84-12.53c0.129-0.59,0.391-1.77,0.521-2.37c1.021-0.51,2.052-1.01,3.091-1.479
	c0.02-0.619,0.039-1.84,0.061-2.461C148.62,145.65,134,155,117.18,157.98c-8.49,2.34-17.26,0.27-25.89,0.528
	c5.49-0.6,11.07,0.511,16.52-0.63c4.23-0.818,8.63-0.62,12.74-2.04c15.979-4.021,29.78-13.688,45.25-18.93
	c1.05-1.33,1.681-2.972,2.89-4.16c1.451-0.71,3.07-0.892,4.58-1.42c1.381-3.181,4.201-5.21,6.711-7.42
	c1.319-1.79,3.09-3.07,5.101-3.99c0.42-3.812,2.83-7.069,2.97-10.938c0.08-3.07,3.11-4.972,3.729-7.892
	c0.281-1.75,0.49-3.51,0.972-5.22c-0.062-2.3-0.08-4.6-0.062-6.9c0.711-0.89,1.42-1.77,2.11-2.67
	C191.08,87.15,189.17,91.99,190.84,95.32 M203.141,86.08c-0.471,1.46-0.021,1.91,1.359,1.35C205,86,204.55,85.55,203.141,86.08
	 M196.279,87.27c0.531,1.37,1,2.75,1.421,4.16c0.37-1.13,0.75-2.26,1.159-3.37C198,87.8,197.141,87.54,196.279,87.27 M38.73,89.14
	c0.1,3.64-0.69,7.209-0.75,10.85c-0.99,2.35-0.67,4.92-0.62,7.4c-0.66,0.68-1.32,1.358-1.99,2.039
	c-0.05,0.479-0.17,1.461-0.22,1.949c1.17,0.49,2.33,1.012,3.49,1.54c-0.58-7.92-0.07-16.2,2.93-23.63
	C40.62,89.24,39.67,89.19,38.73,89.14 M76.25,91.15c0.36,1.66,3.58,1.7,3.97,0.06C79.65,89.76,76.73,89.51,76.25,91.15 M45.7,93.81
	c-0.85,0.53-1.87,2.93-0.18,2.94c1.18-0.54,1.77-1.45,1.79-2.74C46.91,93.96,46.1,93.86,45.7,93.81 M135.24,100.811
	c0.1,3.399,1.27,6.609,2.199,9.83c6.319-3.229,13.871-3.291,19.811-7.311c3.391-2.2,4.6-6.3,5.609-9.97
	C153.38,94.71,144.6,98.891,135.24,100.811 M47.28,108.07c-0.17,1.96,1.74,2.96,3.02,4.039c0.76-4.819,2.5-9.75,1.04-14.619
	C49.48,100.75,47.27,104.18,47.28,108.07 M57.15,102.37c-2.23,3.2-1.15,7.521-0.58,11.1c1.96,0.66,3.98,1.15,5.92,1.87
	c-0.91-3.359,1.22-6.25,2.28-9.27C62.16,104.97,59.68,103.609,57.15,102.37 M167.96,106.92c-2.601,2.66-2.34,6.55-1.101,9.79
	c6.471-2.99,8.24-10.351,13.061-15.04C175.62,102.49,171.33,104.07,167.96,106.92 M108.5,107.42c0.02,3.07,0.01,6.15,0.01,9.23
	c8.27,0.959,16.08-2.33,24.07-3.75c-1.08-3.021-1.301-6.221-1.87-9.352C123.16,103.82,115.99,106.55,108.5,107.42 M69.61,106.67
	c-0.65,2.7-1.44,5.37-2.33,8c5.53,1.55,11.26,2.15,16.99,1.93c-0.15-2.5-0.46-5.06,0.43-7.459
	C79.64,108.49,74.48,108.33,69.61,106.67 M89.93,109.2c-0.51,2.44-1.1,4.87-1.41,7.34c5.15,0.11,10.3,0.04,15.45,0.06
	c0.11-3.16,0.09-6.318-0.09-9.479C99.21,107.73,94.7,109.45,89.93,109.2 M139.1,119.16c-0.358,3.67,1.271,7.05,3.33,9.97
	c0.551,1.62,1.09,3.24,1.61,4.87c7.319-3.32,13.29-8.82,20.04-13.061c-2.08-3.221-3.96-6.729-3.33-10.721
	C153.79,113.83,146.58,116.84,139.1,119.16 M112.92,126.92c0.02,4.74,0.67,9.471,0.4,14.23c8.81,1.81,17.25-2.67,25.6-4.86
	c-0.08-0.82-0.24-2.47-0.32-3.29c-2.56-3.88-4.289-8.26-3.93-12.99C127.55,122.689,120.36,125.2,112.92,126.92 M45.09,123.98
	c0.16,4.1,3.26,7.199,4.09,11.129C50.93,131.03,46.95,127.359,45.09,123.98 M53.69,128.22c0.71,2.41,1.55,4.78,2.27,7.19
	c-1.33,0.46-2.66,0.9-4,1.33c0.28,0.22,0.84,0.65,1.12,0.869c2.73,0.641,5.41,1.471,8.1,2.271c-1.25-4.11-2.93-8.18-5.85-11.41
	C54.92,128.41,54.1,128.28,53.69,128.22 M91.13,130.3c0.23,4.31,1.88,8.41,1.69,12.761c5.51,0.141,11.12,0.699,16.47-0.961
	c-1.56-4.6-0.75-9.49-0.69-14.229C102.8,128.9,97.09,130.8,91.13,130.3 M62.2,129.66c1.43,3.52,4.64,6.48,4.07,10.57
	c2.08,1.129,4.38,1.66,6.74,1.619c-0.58-3.681-2.8-6.83-3.24-10.561C67.24,130.811,64.72,130.22,62.2,129.66 M74.29,130.62
	c1.44,3.649,3.51,7.08,4.29,10.97c3.24,1.43,6.78,1.91,10.31,1.69c-0.57-2.78-1.34-5.521-1.79-8.33c-1.44-1.5-2.69-3.33-4.59-4.261
	C79.82,130.12,77.02,130.48,74.29,130.62 M29.74,139.63c-0.51,3.57-0.54,7.21-0.13,10.79C30.46,146.9,30.24,143.189,29.74,139.63
	 M131.08,158.04c0.72,0.601,1.439,1.2,2.16,1.81c3.869,0.45,6.869-2.35,10.5-3.08c2.779-2.67,6.32-4.438,10.07-5.289
	c0.778-0.739,1.568-1.471,2.358-2.211C148.07,152.84,139.75,156.141,131.08,158.04 M50.63,165c-1.03,1.23,1.09,2.35,1.89,1.23
	C53.58,164.99,51.42,163.8,50.63,165 M30.15,169.561c1.21,1.109,2.39,2.239,3.66,3.279c-0.77-1.26-1.61-2.46-2.41-3.689
	C31.09,169.25,30.46,169.46,30.15,169.561 M102.55,170.35c0.29,0.291,0.88,0.87,1.17,1.16c1.62,0.01,2.21-0.68,1.78-2.07
	C104.15,168.75,103.16,169.05,102.55,170.35 M40.29,173.01C40.31,176.35,43.33,171.58,40.29,173.01 M61.92,180.57
	c3.07,0.81,6.36,0.81,9.45,0.07C68.24,180.24,65.06,180.27,61.92,180.57z"/>
<path fill="#FFFFFF" d="M128.9,18.15c1.6-2.77,4.879-1.91,7.529-1.99c-0.24,2.98-3.119,2.15-5.221,2.13
	c0.189,0.53,0.568,1.58,0.762,2.11l2.618-0.7c0.11,1.96,0.16,3.91,0.188,5.88c-3.85-0.41-7.709-0.26-11.559-0.39
	c-2.861-1.62-0.021-3.97,2.049-4.27c1.771-0.75,3.66-1.07,5.602-0.93C130.21,19.38,129.55,18.77,128.9,18.15z"/>
<path fill="#FFFFFF" d="M150.5,16.48c1.391-0.26,2.811-0.19,4.221-0.28c-0.051,2.56-0.051,5.12-0.031,7.68
	c-2.33-1.49-5-2.2-7.619-2.97C148.01,19.29,148.99,17.64,150.5,16.48z"/>
<path fill="#FFFFFF" d="M107.04,17.73c2.33-0.23,4.67-0.42,7-0.56c0,0.68,0,2.05,0.01,2.73c-2.05,0.02-4.09,0.04-6.13,0.04
	C107.62,19.2,107.33,18.47,107.04,17.73z"/>
<path fill="#FFFFFF" d="M171.79,17.11c6.33,0.55,12,4.17,15.78,9.19c-2.051,0.12-3.4,1.54-3.98,3.42c-3.49,1.59-5.199,4.98-7.22,8
	c-3.271-3.4-7.58-5.52-11.04-8.68C164.96,24.15,171.1,21.92,171.79,17.11z"/>
<path fill="#FFFFFF" d="M93.91,18.62c2.6-0.24,5.2-0.71,7.82-0.64c0.32,0.79,0.95,2.38,1.26,3.18c-2.27,0.37-4.54,0.69-6.84,0.86
	C95.41,20.88,94.66,19.75,93.91,18.62z"/>
<path fill="#474747" d="M60.2,19.27C60.72,19.78,60.72,19.78,60.2,19.27z"/>
<path fill="#FFFFFF" d="M52.02,22.36c-1.51-1.7,1.92-2.69,2.66-1.09C54.88,22.56,52.86,22.78,52.02,22.36z"/>
<path fill="#D9D9D9" d="M77.84,21.12c0.84-1.17,5.22-1.41,4.23,0.57C80.81,22.04,78.59,22.45,77.84,21.12z"/>
<path fill="#FFFFFF" d="M71.41,21.99c4.81,0.18,9.69,0.38,14.39,1.49c2.1,1.17,0.5,4-0.57,5.45c-2.01-0.19-4.03-0.23-6.04-0.12
	c2.2,0.68,4.54,0.98,6.8,0.37c0.31-0.29,0.94-0.87,1.26-1.15c0.28,0.58,0.84,1.76,1.12,2.35c7.58,0.06,15.22-0.46,22.61-2.26
	c3.3-0.77,6.69-0.28,10.03-0.25c0.44-0.38,1.311-1.15,1.75-1.53c11.41-0.1,23.09,1.68,33.37,6.86c5.13,2.45,9.761,5.75,14.31,9.12
	c1.59,1.24,3.131,2.55,4.621,3.91c0.141-0.04,0.42-0.13,0.549-0.17c-4.528-5.29-10.068-9.68-16.1-13.15
	c1.91-0.01,3.53-0.84,4.881-2.1c4.319,2.8,8.619,5.64,12.889,8.51c0.021,0.6,0.062,1.78,0.08,2.37c0.41,0.39,1.25,1.17,1.67,1.55
	c2.092,0.01,4.182,0.02,6.281,0.04c1.359-2.14,2.311-4.54,3.92-6.53c0.021-0.61,0.061-1.85,0.08-2.46
	c0.771,0.75,1.539,1.51,2.299,2.28c0.521,0.01,1.552,0.02,2.07,0.03c2.73,5.14,4.91,10.56,7.98,15.52c1.17,1.45,2.29,2.93,3.4,4.43
	c-4.48,0.22-9.541-1.76-13.5,1.15c5.648-0.4,11.688-0.61,16.898,1.98c5.54,2.43,9.818,7.03,12.609,12.32
	c0.959,3.28,2.5,6.53,2.181,10.04c-0.858,8.99-6.84,16.58-14.222,21.39c0.201,0.65,0.41,1.301,0.621,1.95
	c-8.239,3.37-7.66,13.78-12.33,20.14c-7.199,10.551-18.529,17.371-29.649,23.15c-3.188,1.641-6.29,3.51-9.68,4.71
	c1.448-1.021,3.1-1.739,4.46-2.89c5.8-5.37,12.148-10.2,19.09-14.01c-0.79,0-2.359,0-3.148,0c1.889-1.5,3.77-3.012,5.738-4.392
	c0.898-1.021,2.08-1.649,3.398-1.948c2.691-3.16,6.23-5.9,7.4-10.052c0.86-2.93,2.99-5.59,2.26-8.8
	c2.211-2.932,2.972-6.609,3.972-10.07c0.608-2.14,1.489-4.21,1.68-6.45c1.17-0.81,2.33-1.64,3.49-2.48
	c2.62-4.24,4.819-9.47,3.108-14.46c-2.25-9.77-12.89-15.62-22.488-14.66c-9.461,0-16.36,9.02-25.99,8.08
	c-6.932,0.42-10.92-6.67-17.279-7.93c0.649,2.7,1.041,5.87,3.461,7.65c5.979,4.271,13.77,4.96,20.85,3.86
	c4.91-1.02,9.96-2.07,14.24-4.84c4.648-3.78,11.33-2.48,16.528-0.59c2.54,2,4.61,4.5,6.11,7.37c-2.54-1.14-4.11-3.43-5.87-5.46
	c-3.899,0.76-7.899,0.72-11.812,0.04c-2.719,0.84-5.488,1.42-8.35,1.24c-1.84-0.36-2.66,1.62-3.84,2.59
	c-2.27,0.03-4.54,0.06-6.8,0.07c-0.921,0.6-1.841,1.18-2.771,1.76c-3.38,1.25-6.739,2.55-10.35,3.01
	c-1.67,1.68-3.931,2.39-6.222,2.73c-0.43,0.43-1.289,1.28-1.719,1.71c-4.25-0.17-8.58,0.12-12.761-0.79c-1.479-0.93-1-2.86-1.34-4.3
	c-0.79,0.98-2.71,1.7-1.86,3.23c1.1,2.3,3.811,2.92,5.801,4.19c-1.609,0.76-3.351,1.1-5.121,1.21c-0.27,0.13-0.81,0.38-1.08,0.51
	c-0.238-2.21,0.75-5.42-1.778-6.57c-3.858-1.92-8.77-3.8-12.47-0.49c0.02,0.55,0.07,1.64,0.09,2.19c2.95,1,6.068,0.93,9.148,0.96
	c0.59,1.91,1.271,4.08-0.188,5.8c-1.7,0.68-3.46,1.19-5.08,2.06c0.101-1.25,0.2-2.49,0.3-3.74c-4.77-1.18-9.7-1.7-14.46-0.15
	c-0.98,1.24-1.95,2.48-2.81,3.82c4.92,0.59,9.87-0.22,14.8,0.29c-3.99,4.35-10.44,1.86-15.58,2.45c-0.67,0.87-1.23,1.801-1.69,2.801
	c0.88,1.069,1.96,1.891,3.24,2.439c5.55,0.76,11.05-0.729,16.58-0.41c-6.78,2.08-13.88,2.682-20.85,3.811
	c-8.96-0.319-18.18,1.189-26.92-1.369c-8.12-1.461-15.63-5.4-22-10.57c-1.05-1.13-1.24-2.77-1.84-4.14c2.5,0.63,5.38,0.83,7.24,2.88
	c3.05,3.16,7,5.56,11.46,5.901c3.05-0.061,5.44,2.049,8.18,3.049c2.15-1.709,4.32-3.42,6.34-5.29c-0.38-0.55-1.12-1.66-1.5-2.21
	c3.35,3.52,6.12,8.089,10.89,9.81c3.97,0.561,5.56-4.23,7.08-7.03c-2.55-1.23-4.47,1.24-6.8,1.7c-2.64-0.58-4.42-2.69-6.46-4.27
	c-1.24-2-2.49-4-3.97-5.83c1.82-4.43,6.94-5.27,9.96-8.45c0.77-3.87-0.44-7.98,1.07-11.74c2.32-0.65,4.9-1.3,6.49-3.27
	c0.87-1.52,0.49-2.53-1.16-3.02c-2.07-0.3-4.07,0.55-6.05,1.01c-7-8.34-19.2-9.98-29.42-8.31c-2.82,1.52-5.72,3.33-6.93,6.46
	c3.48,3.54,8.95,2.65,13.45,3.42c6.12,0.95,12.61,0.75,18.21,3.75c-0.03,2.76-0.04,5.51,0.02,8.27
	c-5.59,4.13-10.44,9.41-16.71,12.53c0.42,0.6,0.84,1.21,1.25,1.82l0.9-0.41c0.51,1.47,1.03,2.93,1.48,4.42
	c-2.23-1.98-4.4-4.24-7.45-4.85c-3.5-0.73-5.16-4.29-8.24-5.771c-2.93-1.62-6.46-0.67-9.5-1.99c-0.44-1.59-0.99-3.46-3.06-3.19
	c-1.21,2.09-3.1,3.64-5.22,4.77c-3.66-2.47-5.38,2.13-6.54,4.75c-1.7-1.69-3.42-3.37-4.93-5.24c1.04-3.86,0.36-7.92,1.39-11.78
	c2.68-1.5,5.63-2.69,7.68-5.08c-3.17,1.14-6.62,2.16-9.09,4.55c-1.02,3.9-0.61,7.99-0.69,11.98c-0.23,2.13,1.44,3.67,2.57,5.26
	c3.28,0.07,2.89,3.17,2.95,5.62c-3.68-0.92-7.04-2.57-10.06-4.7c-0.29,1.19,0.62,2.13,1.12,3.1c2.72,1.15,5.47,2.21,8.23,3.28
	c-0.03,3.5-0.79,6.94-0.82,10.44c0.27,1.479-0.94,2.438-1.72,3.5c-0.12-7.83-4.66-14.37-8.72-20.69
	c-3.43-7.08-3.03-15.92,1.33-22.53c3.71-4.88,9.18-8.51,11.4-14.43c1.62-3.07,1.06-6.65,1.05-9.98c0.87-0.88,1.73-1.76,2.56-2.67
	c0.88,0.02,1.77,0.03,2.65,0.05c0.28,1.7,0.61,3.38,0.89,5.07c1.53,1,3.2,1.69,5.02,1.91c0.74-1.19,1.44-2.4,2.09-3.64
	c1.01-0.79,2.06-1.55,2.9-2.52c-1.12-3.02-1.89-6.27-4-8.8c4.83-2.07,9.35-5.11,14.66-5.83c-0.04,0.89-0.11,2.69-0.14,3.59
	c-2.63,0.68-4.97,2.11-6.31,4.53c2.12-1.13,4.11-2.47,6.19-3.66c4.78,2.4,10.62,2.45,15.71,0.95c-0.47-1.6-0.94-3.21-1.57-4.75
	C74.99,23.15,72.95,23.18,71.41,21.99 M119.84,33.01c5.68,0.68,11.42-0.02,17.11,0.36c7.55,1.1,15.17,2.56,21.979,6.17
	c3.471,2.22,6.619,4.92,8.971,8.34c-2.33-6.55-8.84-10.26-15.041-12.47C142.311,31.92,130.79,30.93,119.84,33.01 M60.37,37.51
	c-3.7,1.55-4.96,5.3-6.05,8.84c0.2,0.03,0.59,0.09,0.79,0.12c0.67-2.99,3.01-4.938,5.16-6.9c1.28-0.65,2.51-1.36,3.74-2.09
	c3.33-0.54,6.49-2.07,9.92-1.89c5.97-0.03,11.92,1.27,17.51,3.3c-0.02-0.54-0.07-1.63-0.09-2.18
	C81.35,33.76,70.14,33.59,60.37,37.51 M117,40.94c-0.53,2.18,0.15,4.45,1.34,6.29c0.65-2.71-0.39-5.98,1.7-8.19
	c1.12-1.42,2.46-2.63,3.729-3.89c-0.649,0.02-1.949,0.07-2.601,0.09C119.81,37.16,118.17,38.89,117,40.94 M84.98,41.41
	c1.27,1.28,2.54,2.55,3.85,3.79c0.21,3.07-0.8,6.35,0.65,9.24c0.31-3.1,0.07-6.2,0-9.3C89.44,42.92,87.34,40.58,84.98,41.41
	 M124.58,50.34c-4.38,2.25-9.4,5.1-10.53,10.33c0.21,0.73,0.62,2.17,0.83,2.9c2.25,1.83,4.71,3.38,7.07,5.07
	c6.86-3.68,14.21-6.76,22.04-7.36c6.48-1.5,12.83,0.96,19.18,1.9c1.76-0.42,3.4-1.22,5.04-1.97
	c-2.71-10.35-14.521-14.82-24.26-14.65C137.29,46.08,130.67,47.72,124.58,50.34 M169.8,56.32c2.04,1.97,5.03,1.94,7.591,2.73
	c-1.57,0.59-3.149,1.14-4.74,1.66c2.801,1.11,6.279,0.23,7.619-2.63C176.641,58.23,173.391,56.34,169.8,56.32 M33.69,59.67
	c-9.93,4.5-14.94,16.96-10.78,27.08c0.78-0.55,1.57-1.07,2.35-1.62l-1.52-0.72c-0.59-4.94-1.35-10.52,1.62-14.88
	c2.8-5.2,8.53-7.84,13.98-9.36c4.68-1.04,9.5-0.23,14.24-0.48c-3.58-3.3-8.36-0.73-12.54-0.45C38.58,59.62,35.91,57.93,33.69,59.67
	 M188.811,59.59c5.311,0.63,10.879-0.62,15.979,1.44c6.08,1.75,10.89,7.64,10.95,14.04c0.34,6.22-0.29,12.77-3.221,18.34
	c-1.83,3.9-6.129,5.23-9.569,7.26c4.04-0.64,7.59-2.72,10.75-5.22c2.8-7.09,3.06-14.94,2.19-22.42
	c-0.57-6.32-5.472-12.09-11.762-13.25C199.1,58.87,193.79,58.06,188.811,59.59 M170.21,61.95c-0.53,1.54,2.14,2.77,3.29,1.94
	C173.891,62.39,171.37,61.08,170.21,61.95 M33.51,75.25c5.04,0.51,9.58-2.71,14.62-2c1.62,0.38,2.96,1.43,4.39,2.22
	c0.35,1.41,0.71,2.82,1.06,4.24c3.9-0.03,7.85,0.18,11.67-0.72c2.41-0.7,3.26-3.33,4.37-5.3c-2.93-2.53-5.95,0.17-8.47,1.81
	c-5.61-5.1-13.65-7.86-21.17-6.53C36.68,69.33,34.54,72.35,33.51,75.25 M205.529,105.8c1.101,0.431,3.25-0.59,2.861-1.94
	C207.29,103.49,205.33,104.57,205.529,105.8z"/>
<path fill="#FFFFFF" d="M109.29,22.21c1.26-0.25,2.52-0.5,3.78-0.75c0.33,1.44,0.7,2.86,1.07,4.29c-7.34,1.62-14.79,2.71-22.32,2.83
	c2.23-0.73,4.83-0.54,6.55-2.39c-0.42-0.89-0.84-1.77-1.26-2.65c2.26-0.3,4.53-0.63,6.8-0.9c1.16,0.65,2.38,1.19,3.64,1.63
	C107.99,23.76,108.85,22.73,109.29,22.21z"/>
<path fill="#FFFFFF" d="M144.41,27.37c0.99-1.67,1.99-3.34,3.061-4.97c2.109,0.94,4.279,1.75,6.43,2.6
	c0.029,1.42,0.051,2.85,0.061,4.27c0.84,0.69,1.67,1.4,2.479,2.11C152.63,29.51,148.59,28.14,144.41,27.37z"/>
<path fill="#7D7D7D" d="M139.29,25.19C142.25,23.58,139.55,28.51,139.29,25.19z"/>
<path fill="#686868" d="M157.33,31.32C157.87,31.85,157.87,31.85,157.33,31.32z"/>
<path d="M119.84,33.01c10.95-2.08,22.471-1.09,33.02,2.4c6.201,2.21,12.711,5.92,15.041,12.47c-2.351-3.42-5.5-6.12-8.971-8.34
	c-6.81-3.61-14.43-5.07-21.979-6.17C131.26,32.99,125.52,33.69,119.84,33.01z"/>
<path d="M60.37,37.51c9.77-3.92,20.98-3.75,30.98-0.8c0.02,0.55,0.07,1.64,0.09,2.18c-5.59-2.03-11.54-3.33-17.51-3.3
	c-3.43-0.18-6.59,1.35-9.92,1.89c-1.23,0.73-2.46,1.44-3.74,2.09c-2.15,1.96-4.49,3.91-5.16,6.9c-0.2-0.03-0.59-0.09-0.79-0.12
	C55.41,42.81,56.67,39.06,60.37,37.51z"/>
<path d="M117,40.94c1.17-2.05,2.81-3.78,4.17-5.7c0.65-0.021,1.95-0.07,2.6-0.09c-1.27,1.26-2.608,2.47-3.729,3.89
	c-2.09,2.21-1.05,5.48-1.7,8.19C117.15,45.39,116.47,43.12,117,40.94z"/>
<path d="M84.98,41.41c2.36-0.83,4.46,1.51,4.5,3.73c0.07,3.1,0.31,6.2,0,9.3c-1.45-2.89-0.44-6.17-0.65-9.24
	C87.52,43.96,86.25,42.69,84.98,41.41z"/>
<path d="M124.58,50.34c6.09-2.62,12.71-4.26,19.37-3.78c9.739-0.17,21.55,4.3,24.26,14.65c-1.64,0.75-3.28,1.55-5.04,1.97
	c-6.35-0.94-12.699-3.4-19.18-1.9c-7.83,0.6-15.18,3.68-22.04,7.36c-2.36-1.69-4.82-3.24-7.07-5.07c-0.21-0.73-0.62-2.17-0.83-2.9
	C115.18,55.44,120.2,52.59,124.58,50.34 M120.689,58.95c0,0.9,0.011,2.7,0.011,3.6c3.88,0.45,7.19-1.69,10.37-3.57
	c2.25-1.45,5.029-1.09,7.58-1.31c-1.01-2.12-1.48-4.41-1.461-6.77C131.49,53.1,124.939,54.16,120.689,58.95 M154.9,55.5
	c1.608,2.67,4.99,2.41,7.648,3.11C161.4,55.5,157.83,54.76,154.9,55.5z"/>
<path fill="#FFFFFF" d="M120.689,58.95c4.25-4.79,10.801-5.85,16.5-8.05c-0.021,2.36,0.451,4.65,1.461,6.77
	c-2.551,0.22-5.33-0.14-7.58,1.31c-3.18,1.88-6.49,4.02-10.37,3.57C120.7,61.65,120.689,59.85,120.689,58.95z"/>
<path fill="#FFFFFF" d="M154.9,55.5c2.93-0.74,6.5,0,7.648,3.11C159.891,57.91,156.51,58.17,154.9,55.5z"/>
<path fill="#FFFFFF" d="M62.61,56.78c3.7-0.15,7.94-1.76,11.2,0.7C70.13,57.66,65.91,58.98,62.61,56.78z"/>
<path d="M169.8,56.32c3.591,0.02,6.841,1.91,10.47,1.76c-1.34,2.86-4.818,3.74-7.619,2.63c1.591-0.52,3.17-1.07,4.74-1.66
	C174.83,58.26,171.84,58.29,169.8,56.32z"/>
<path d="M33.69,59.67c2.22-1.74,4.89-0.05,7.35-0.43c4.18-0.28,8.96-2.85,12.54,0.45c-4.74,0.25-9.56-0.56-14.24,0.48
	c-5.45,1.52-11.18,4.16-13.98,9.36c-2.97,4.36-2.21,9.938-1.62,14.88l1.52,0.72c-0.78,0.55-1.57,1.07-2.35,1.62
	C18.75,76.63,23.76,64.17,33.69,59.67z"/>
<path d="M188.811,59.59c4.979-1.53,10.289-0.72,15.319,0.19c6.29,1.16,11.19,6.93,11.761,13.25c0.869,7.479,0.609,15.33-2.189,22.42
	c-3.16,2.5-6.71,4.58-10.75,5.22c3.439-2.029,7.738-3.359,9.568-7.26c2.932-5.57,3.562-12.12,3.222-18.34
	c-0.062-6.4-4.87-12.29-10.95-14.04C199.689,58.97,194.12,60.22,188.811,59.59z"/>
<path d="M170.21,61.95c1.16-0.87,3.681,0.44,3.29,1.94C172.35,64.72,169.68,63.49,170.21,61.95z"/>
<path d="M33.51,75.25c1.03-2.9,3.17-5.92,6.47-6.28c7.52-1.33,15.56,1.43,21.17,6.53c2.52-1.64,5.54-4.34,8.47-1.81
	c-1.11,1.97-1.96,4.6-4.37,5.3c-3.82,0.9-7.77,0.69-11.67,0.72c-0.35-1.42-0.71-2.83-1.06-4.24c-1.43-0.79-2.77-1.84-4.39-2.22
	C43.09,72.54,38.55,75.76,33.51,75.25z"/>
<path fill="#FFFFFF" d="M189.609,76.52c1.851,0.01,3.701,0.06,5.541,0.17c0.09,0.92,0.18,1.84,0.279,2.76
	c1.689,0.91,2.739,2.49,3.609,4.13C195.529,81.78,192,79.76,189.609,76.52z"/>
<path fill="#FFFFFF" d="M168.38,80.56c3.601-0.91,7.341-0.64,10.99-1.25c-18.61,8.63-37.95,15.7-57.841,20.78
	c3.891-3.5,9.611-3.66,13.691-6.88c2.979-0.33,6.278,0.77,8.969-0.94c4.511-2.7,10.041-2.82,14.551-5.53
	C162.04,84.81,165.91,83.67,168.38,80.56z"/>
<path fill="#6E6E6E" d="M131.18,82.6c-0.85-1.53,1.07-2.25,1.86-3.23c0.34,1.44-0.14,3.37,1.34,4.3
	c4.181,0.91,8.511,0.62,12.761,0.79c-2.791,0.18-5.58,0.31-8.371,0.4c-0.229,0.59-0.699,1.78-0.938,2.37
	c-0.21-0.11-0.63-0.33-0.851-0.44C134.99,85.52,132.279,84.9,131.18,82.6z"/>
<path fill="#525252" d="M204.29,80.11C207.279,78.57,204.43,83.45,204.29,80.11z"/>
<path fill="#FFFFFF" d="M169.05,90.39c6.11-3.02,11.601-8.44,18.82-8.17c-0.601,3.28-1.13,6.78-3.5,9.33
	c-4.47,5.091-11.29,6.95-17.63,8.511c0.119-3.101-0.01-6.201-0.09-9.301C167.25,90.66,168.45,90.48,169.05,90.39z"/>
<path fill="#FFFFFF" d="M190.84,95.32c-1.67-3.33,0.24-8.17,3.96-9.02c-0.69,0.9-1.399,1.78-2.11,2.67c-0.02,2.3,0,4.6,0.062,6.9
	c-0.479,1.71-0.688,3.47-0.972,5.22c-0.618,2.92-3.648,4.82-3.729,7.891c-0.14,3.869-2.55,7.129-2.97,10.939
	c-2.011,0.92-3.78,2.2-5.101,3.99c-2.51,2.21-5.33,4.24-6.711,7.42c-1.51,0.529-3.129,0.71-4.58,1.42
	c-1.209,1.189-1.84,2.83-2.89,4.16c-15.47,5.24-29.271,14.91-45.25,18.93c-4.11,1.42-8.51,1.221-12.74,2.04
	c-5.45,1.14-11.03,0.03-16.52,0.63c8.63-0.26,17.4,1.811,25.89-0.529c16.82-2.979,31.44-12.33,46.89-19.041
	c-0.021,0.621-0.041,1.842-0.062,2.461c-1.038,0.471-2.069,0.971-3.09,1.479c-0.13,0.601-0.392,1.78-0.521,2.37
	c-10.739,4.68-21.551,9.32-32.84,12.529c-3.371,1.41-7.411,1.111-10.32,3.511c4.56-0.57,9.01-1.74,13.48-2.771
	c0.079,0.979-0.25,2.221-1.421,2.34c-2.85,0.899-5.59,2.101-8.479,2.871c-1.879-0.34-3.771-2.17-5.699-1.052
	c-1.71,1.132-3.75,1.171-5.72,1.341l1.04-0.58c0.33-0.479,0.98-1.431,1.3-1.91c-5.62,0.5-11.06,2.25-16.71,2.451
	c-3.4,0.14-6.76,0.729-10.12,1.209c-8.47,0.891-17.06,0.801-25.48-0.449c0.77-2.48,1.07-5.26-0.93-7.25
	c2.07,0.76,4.18,1.56,6.43,1.56c5.72,0.261,11.44,0.58,17.17,0.53c-7.41-0.13-14.67-1.67-21.83-3.439
	c0.26-1.359,0.41-2.74,0.44-4.121c-0.85-1.25-2.35-1.51-3.68-1.93c-1.15-0.5-2.64-2.8-3.83-1.22c-0.41,0.489-1.25,1.46-1.67,1.95
	c-0.98-1.271-2-2.49-3.11-3.65c0.9,2.16,2,4.221,3.03,6.311c-1.34,1.689-2.79,3.279-4.26,4.859c-0.96-0.9-2.03-1.609-3.22-2.13
	c-0.87,0.78-1.71,1.58-2.52,2.42c-0.53-0.62-1.6-1.86-2.13-2.479c0.02-2.279,0.02-4.561,0.03-6.84
	c-0.36,0.119-1.07,0.359-1.43,0.479c0.03,2.04,0.07,4.08,0.14,6.13c1.12,1.17,2.15,2.42,3.24,3.63c-1.98,2.72-2.2,6.341-4.6,8.8
	c1.69-5.188-1.19-10.209-1.63-15.38c-0.52-2.36-0.41-4.79-0.4-7.18c0.91-1.64,1.43-3.42,1.41-5.3c-2.17-2.7-1.21-6.4-2.24-9.54
	c0.95-0.66,1.89-1.33,2.83-2.011c-0.27-3.931,0.71-7.771,0.72-11.681c0.36-0.27,1.07-0.81,1.42-1.079
	c1.34,8.881,2.51,18.939,9.91,25.069c8.55,4.92,18.71,5.54,28.34,6.229c12.28,1.379,24.67,0.92,36.94-0.291
	c19.29-0.26,37.431-9.08,52.229-20.97C176.48,117.62,181.7,104.891,190.84,95.32 M74.72,151.98c4.62,1.449,9.51,0.64,14.27,0.85
	c6.55,0.359,13.12,0.43,19.68,0.109c-4.61-2.5-9.86-0.399-14.76-0.709C87.52,151.73,81.11,151.85,74.72,151.98 M84.33,159.02
	C84.33,162.359,87.36,157.59,84.33,159.02 M113.51,162.1c1.59,0.271,2.77-0.148,3.53-1.25
	C116.15,160.24,112.57,160.689,113.51,162.1z"/>
<path fill="#A1A1A1" d="M203.141,86.08C204.55,85.55,205,86,204.5,87.43C203.12,87.99,202.67,87.54,203.141,86.08z"/>
<path fill="#FFFFFF" d="M196.279,87.27c0.861,0.27,1.721,0.53,2.58,0.79c-0.409,1.11-0.789,2.24-1.159,3.37
	C197.279,90.02,196.811,88.64,196.279,87.27z"/>
<path fill="#FFFFFF" d="M38.73,89.14c0.94,0.05,1.89,0.1,2.84,0.15c-3,7.43-3.51,15.71-2.93,23.63c-1.16-0.529-2.32-1.05-3.49-1.54
	c0.05-0.489,0.17-1.47,0.22-1.95c0.67-0.68,1.33-1.359,1.99-2.039c-0.05-2.479-0.37-5.051,0.62-7.399
	C38.04,96.35,38.83,92.78,38.73,89.14z"/>
<path fill="#FFFFFF" d="M76.25,91.15c0.48-1.64,3.4-1.39,3.97,0.06C79.83,92.85,76.61,92.81,76.25,91.15z"/>
<path fill="#FFFFFF" d="M45.7,93.81c0.4,0.05,1.21,0.15,1.61,0.2c-0.02,1.29-0.61,2.2-1.79,2.74C43.83,96.74,44.85,94.34,45.7,93.81
	z"/>
<path fill="#FFFFFF" d="M135.24,100.811c9.359-1.92,18.14-6.101,27.619-7.451c-1.01,3.67-2.219,7.77-5.609,9.97
	c-5.939,4.02-13.49,4.08-19.811,7.311C136.51,107.42,135.34,104.21,135.24,100.811z"/>
<path fill="#FFFFFF" d="M47.28,108.07c-0.01-3.891,2.2-7.32,4.06-10.58c1.46,4.869-0.28,9.8-1.04,14.619
	C49.02,111.03,47.11,110.03,47.28,108.07z"/>
<path fill="#FFFFFF" d="M57.15,102.37c2.53,1.239,5.01,2.6,7.62,3.7c-1.06,3.02-3.19,5.91-2.28,9.27c-1.94-0.72-3.96-1.21-5.92-1.87
	C56,109.891,54.92,105.57,57.15,102.37z"/>
<path fill="#FFFFFF" d="M167.96,106.92c3.37-2.85,7.66-4.43,11.96-5.25c-4.82,4.689-6.59,12.05-13.061,15.04
	C165.62,113.47,165.359,109.58,167.96,106.92z"/>
<path fill="#FFFFFF" d="M108.5,107.42c7.49-0.87,14.66-3.6,22.21-3.87c0.569,3.13,0.79,6.33,1.87,9.351
	c-7.99,1.42-15.8,4.709-24.07,3.75C108.51,113.57,108.52,110.49,108.5,107.42z"/>
<path d="M205.529,105.8c-0.199-1.229,1.761-2.31,2.861-1.94C208.779,105.21,206.63,106.23,205.529,105.8z"/>
<path fill="#FFFFFF" d="M69.61,106.67c4.87,1.66,10.03,1.82,15.09,2.471c-0.89,2.399-0.58,4.959-0.43,7.459
	c-5.73,0.221-11.46-0.38-16.99-1.93C68.17,112.04,68.96,109.37,69.61,106.67z"/>
<path fill="#FFFFFF" d="M89.93,109.2c4.77,0.25,9.28-1.47,13.95-2.08c0.18,3.16,0.2,6.319,0.09,9.479
	c-5.15-0.021-10.3,0.051-15.45-0.061C88.83,114.07,89.42,111.641,89.93,109.2z"/>
<path fill="#FFFFFF" d="M139.1,119.16c7.48-2.32,14.69-5.33,21.65-8.94c-0.63,3.99,1.25,7.5,3.33,10.72
	c-6.75,4.24-12.721,9.74-20.04,13.062c-0.521-1.63-1.06-3.25-1.61-4.87C140.37,126.21,138.74,122.83,139.1,119.16z"/>
<path fill="#FFFFFF" d="M112.92,126.92c7.44-1.72,14.63-4.23,21.75-6.91c-0.359,4.73,1.37,9.11,3.93,12.99
	c0.08,0.82,0.24,2.47,0.32,3.29c-8.35,2.19-16.79,6.67-25.6,4.86C113.59,136.391,112.94,131.66,112.92,126.92z"/>
<path fill="#FFFFFF" d="M45.09,123.98c1.86,3.379,5.84,7.05,4.09,11.129C48.35,131.18,45.25,128.08,45.09,123.98z"/>
<path fill="#FFFFFF" d="M53.69,128.22c0.41,0.062,1.23,0.19,1.64,0.25c2.92,3.23,4.6,7.3,5.85,11.41c-2.69-0.8-5.37-1.63-8.1-2.271
	c-0.28-0.219-0.84-0.649-1.12-0.869c1.34-0.43,2.67-0.87,4-1.33C55.24,133,54.4,130.63,53.69,128.22z"/>
<path fill="#FFFFFF" d="M91.13,130.3c5.96,0.5,11.67-1.399,17.47-2.43c-0.06,4.739-0.87,9.63,0.69,14.229
	c-5.35,1.659-10.96,1.101-16.47,0.961C93.01,138.71,91.36,134.609,91.13,130.3z"/>
<path fill="#FFFFFF" d="M62.2,129.66c2.52,0.56,5.04,1.15,7.57,1.63c0.44,3.729,2.66,6.88,3.24,10.56
	c-2.36,0.041-4.66-0.49-6.74-1.619C66.84,136.141,63.63,133.18,62.2,129.66z"/>
<path fill="#FFFFFF" d="M74.29,130.62c2.73-0.14,5.53-0.5,8.22,0.069c1.9,0.931,3.15,2.761,4.59,4.261
	c0.45,2.81,1.22,5.55,1.79,8.33c-3.53,0.22-7.07-0.261-10.31-1.69C77.8,137.7,75.73,134.27,74.29,130.62z"/>
<path fill="#FFFFFF" d="M29.74,139.63c0.5,3.56,0.72,7.271-0.13,10.79C29.2,146.84,29.23,143.2,29.74,139.63z"/>
<path fill="#FFFFFF" d="M131.08,158.04c8.67-1.899,16.99-5.2,25.09-8.771c-0.79,0.739-1.58,1.471-2.359,2.211
	c-3.75,0.85-7.291,2.619-10.069,5.289c-3.632,0.729-6.632,3.529-10.5,3.08C132.52,159.24,131.8,158.641,131.08,158.04z"/>
<path d="M74.72,151.98c6.39-0.131,12.8-0.25,19.19,0.25c4.9,0.31,10.15-1.791,14.76,0.709c-6.56,0.319-13.13,0.25-19.68-0.109
	C84.23,152.62,79.34,153.43,74.72,151.98z"/>
<path fill="#D7D7D7" d="M84.33,159.02C87.36,157.59,84.33,162.359,84.33,159.02z"/>
<path fill="#212121" d="M113.51,162.1c-0.94-1.41,2.64-1.858,3.53-1.25C116.28,161.95,115.1,162.37,113.51,162.1z"/>
<path fill="#696969" d="M95.03,163.98c5.65-0.2,11.09-1.95,16.71-2.45c-0.32,0.479-0.97,1.43-1.3,1.909l-1.04,0.58
	c-2.77,1.609-5.96,2.09-9.13,1.801l0.92-1.392c-3.8,0.562-7.55,1.54-11.4,1.65l-1.69-0.53c-1.06-0.13-2.13-0.25-3.19-0.359
	C88.27,164.71,91.63,164.12,95.03,163.98 M104.13,164.26c-0.16,2.12,3.47-0.05,0.91-0.46L104.13,164.26z"/>
<path fill="#C8C8C8" d="M104.13,164.26l0.91-0.46C107.6,164.21,103.97,166.38,104.13,164.26z"/>
<path fill="#FFFFFF" d="M50.63,165c0.79-1.2,2.95-0.01,1.89,1.23C51.72,167.35,49.6,166.23,50.63,165z"/>
<path fill="#FFFFFF" d="M89.79,166.08c3.85-0.11,7.6-1.09,11.4-1.65l-0.92,1.392c-3.15,0.75-5.71,2.75-7.89,5.069
	c0.65,1.181,1.28,2.391,1.89,3.609c-1.41-0.939-2.62-2.18-4.16-2.93c-8.31,2.979-17.31,0.699-25.92,1.66
	c-3.79,1.3-8.28,1.97-11.99,0.16c2.8-1.642,4.04-4.61,5.92-7.08C68.67,166.65,79.24,166.55,89.79,166.08z"/>
<path fill="#FFFFFF" d="M30.15,169.561c0.31-0.101,0.94-0.311,1.25-0.41c0.8,1.229,1.64,2.431,2.41,3.689
	C32.54,171.8,31.36,170.67,30.15,169.561z"/>
<path fill="#FFFFFF" d="M102.55,170.35c0.61-1.3,1.6-1.6,2.95-0.91c0.43,1.392-0.16,2.08-1.78,2.07
	C103.43,171.22,102.84,170.641,102.55,170.35z"/>
<path fill="#414141" d="M40.29,173.01C43.33,171.58,40.31,176.35,40.29,173.01z"/>
<path fill="#FFFFFF" d="M61.92,180.57c3.14-0.301,6.32-0.33,9.45,0.07C68.28,181.38,64.99,181.38,61.92,180.57z"/>
</svg>
