<?xml version="1.0" encoding="UTF-8" ?>
<!DOCTYPE svg PUBLIC "-//W3C//DTD SVG 1.1//EN" "http://www.w3.org/Graphics/SVG/1.1/DTD/svg11.dtd">
<svg width="341pt" height="221pt" viewBox="0 0 341 221" version="1.1" xmlns="http://www.w3.org/2000/svg">
<g id="#ffffffff">
<path fill="#ffffff" opacity="1.00" d=" M 329.14 0.00 L 341.00 0.00 L 341.00 150.03 C 339.59 150.01 338.18 150.00 336.77 149.99 C 337.99 148.10 339.24 146.23 340.49 144.37 C 339.62 143.89 338.73 143.43 337.84 143.01 C 335.17 144.50 333.81 147.37 332.46 149.96 C 325.70 150.00 318.93 149.98 312.17 150.15 C 307.24 149.98 302.22 150.44 297.39 149.21 C 294.99 148.14 292.54 147.20 290.00 146.57 C 289.96 139.67 290.36 132.73 289.26 125.88 C 289.03 119.23 288.13 112.64 287.86 106.00 C 287.34 100.98 285.77 96.08 285.96 90.97 C 285.10 78.67 283.65 66.41 282.75 54.11 C 282.13 47.41 280.81 40.75 280.97 34.00 C 281.02 26.39 280.99 18.79 281.00 11.18 C 289.97 10.44 298.92 9.40 307.77 7.73 C 311.59 7.05 314.84 4.80 318.44 3.49 C 321.05 2.83 323.80 3.18 326.42 2.60 C 327.36 1.76 328.26 0.90 329.14 0.00 M 287.27 14.97 C 286.87 15.49 286.06 16.55 285.66 17.07 C 286.06 17.52 286.88 18.43 287.29 18.88 C 291.50 19.00 294.46 22.91 298.62 23.19 C 304.08 26.30 309.92 28.70 315.38 31.82 C 315.96 31.90 317.11 32.07 317.68 32.15 C 320.83 34.21 323.94 36.32 327.12 38.33 C 327.90 37.55 328.68 36.76 329.46 35.98 C 326.46 32.61 322.27 30.78 318.68 28.14 C 318.10 28.07 316.94 27.91 316.36 27.83 C 310.93 24.68 305.08 22.30 299.62 19.20 C 295.10 18.87 291.95 14.30 287.27 14.97 Z" />
<path fill="#ffffff" opacity="1.00" d=" M 62.43 6.74 C 64.23 6.15 66.11 5.92 67.99 5.96 C 78.32 6.02 88.66 6.01 99.00 5.99 C 102.53 6.04 106.17 5.59 109.58 6.73 C 112.91 7.06 116.34 6.70 119.57 7.74 C 123.51 8.13 127.48 7.88 131.43 8.26 C 134.12 9.20 137.00 9.04 139.81 9.05 C 140.16 9.54 140.86 10.51 141.21 11.00 C 134.66 10.88 128.10 11.29 121.56 10.73 C 118.27 9.58 114.72 10.35 111.37 9.57 C 109.15 8.94 106.82 9.03 104.56 8.68 C 101.46 7.73 98.19 7.99 95.00 7.98 C 90.85 8.04 86.66 7.71 82.55 8.48 C 81.21 8.88 79.86 9.27 78.53 9.68 C 76.54 10.49 74.42 10.85 72.33 11.26 C 70.79 12.21 69.27 13.18 67.40 13.19 C 64.73 14.50 62.29 16.20 59.68 17.64 C 55.52 19.66 52.18 22.98 48.03 25.03 C 46.20 25.81 45.14 27.49 44.56 29.32 C 49.01 25.76 53.53 22.21 58.66 19.68 C 62.03 18.10 65.08 15.91 68.36 14.16 C 70.26 14.21 71.79 13.22 73.33 12.25 C 74.71 11.99 76.10 11.71 77.47 11.40 C 77.99 11.22 79.02 10.85 79.53 10.67 C 80.87 10.26 82.21 9.88 83.55 9.49 C 86.99 8.83 90.51 8.98 94.00 8.96 C 97.18 8.98 100.42 8.78 103.53 9.64 C 108.84 10.15 114.10 11.05 119.43 11.31 C 123.51 12.51 127.81 11.87 131.99 12.01 C 135.53 11.93 139.19 12.47 142.59 11.22 C 144.54 11.08 146.51 11.07 148.47 11.16 C 150.44 11.77 152.47 12.19 154.47 12.72 C 155.52 12.88 156.58 13.05 157.64 13.21 C 162.51 15.63 167.06 18.62 171.79 21.30 C 173.69 23.11 175.44 25.06 176.93 27.22 C 176.87 30.77 177.10 34.35 178.13 37.77 C 179.87 40.33 181.89 42.84 184.59 44.45 C 187.53 46.30 189.41 49.36 190.89 52.42 C 191.06 57.15 191.04 61.89 190.92 66.63 C 189.34 68.67 188.46 71.08 187.66 73.52 C 185.57 76.96 183.10 80.40 182.58 84.49 C 181.62 88.59 182.05 92.83 182.00 97.00 C 182.10 104.83 181.77 112.67 182.19 120.49 C 182.78 122.48 183.22 124.52 183.81 126.51 C 184.09 130.53 184.05 134.57 183.91 138.59 C 182.53 140.99 181.09 143.35 179.69 145.74 C 177.40 148.29 174.16 149.61 171.55 151.78 C 168.44 152.42 165.57 153.86 162.45 154.50 C 155.20 155.49 147.81 154.98 140.52 154.79 C 138.54 154.22 136.53 153.82 134.54 153.32 C 133.52 153.10 132.49 152.88 131.47 152.66 C 129.50 152.17 127.49 151.84 125.52 151.37 C 125.01 151.18 124.00 150.81 123.49 150.63 C 121.52 150.17 119.52 149.84 117.55 149.39 C 114.43 148.76 111.43 147.74 108.51 146.49 C 106.85 146.08 105.15 146.08 103.50 146.49 C 101.97 146.08 100.32 145.96 99.00 145.01 C 91.23 141.11 83.45 137.21 75.67 133.35 C 74.55 132.70 73.49 131.89 72.13 131.97 C 70.49 131.92 69.51 130.11 67.88 130.01 C 66.31 129.85 64.89 129.12 63.40 128.64 C 56.76 124.19 49.10 121.26 43.02 115.99 C 39.92 113.79 37.53 110.76 34.48 108.49 C 31.38 105.07 28.55 101.26 27.06 96.87 C 26.21 91.77 21.75 88.54 18.59 84.83 C 20.15 85.26 21.69 85.74 23.23 86.19 C 22.88 85.65 22.17 84.58 21.82 84.05 C 21.22 83.99 20.02 83.88 19.42 83.82 C 16.98 82.73 14.38 81.42 13.04 78.98 C 11.59 76.44 9.85 74.09 8.13 71.73 C 8.03 69.24 8.16 66.67 7.11 64.34 C 7.13 62.72 7.26 61.10 7.49 59.50 C 7.69 58.99 8.08 57.96 8.27 57.44 C 11.34 52.93 14.26 48.11 18.89 45.01 C 23.79 42.15 29.61 43.11 35.01 43.01 L 35.00 42.00 C 30.90 42.00 26.81 42.00 22.71 42.00 C 26.57 38.69 28.47 33.98 30.81 29.62 C 30.91 29.06 31.10 27.96 31.20 27.40 C 34.26 21.41 38.31 15.89 43.25 11.31 C 45.65 9.92 48.01 8.47 50.41 7.08 C 54.42 6.97 58.44 7.13 62.43 6.74 M 87.55 14.27 C 84.93 14.96 82.22 15.10 79.56 15.51 C 78.21 15.92 76.86 16.31 75.52 16.74 C 72.37 16.33 70.41 19.25 67.37 19.15 C 65.09 20.68 62.78 22.19 60.24 23.29 C 56.01 25.83 52.68 29.59 49.63 33.41 C 54.29 31.84 56.50 26.86 60.63 24.51 C 63.10 22.88 65.82 21.67 68.39 20.20 C 70.26 20.18 71.78 19.22 73.32 18.26 C 74.71 17.99 76.10 17.71 77.48 17.38 C 78.49 17.11 79.51 16.85 80.52 16.58 C 83.19 16.11 85.91 15.94 88.55 15.27 C 93.17 14.83 97.83 14.88 102.46 15.23 C 104.13 15.70 105.83 16.06 107.53 16.43 C 112.63 17.41 117.78 18.34 123.00 18.02 C 128.51 17.68 134.18 18.77 139.57 17.27 C 142.86 16.97 146.17 17.02 149.47 16.76 C 150.74 16.43 152.04 16.15 153.33 15.90 C 154.83 17.11 156.40 18.21 157.99 19.29 C 158.67 16.86 155.74 16.43 154.45 15.03 C 152.83 15.06 151.21 15.13 149.59 15.25 C 145.66 16.68 141.36 15.32 137.43 16.73 C 133.30 17.16 129.14 16.97 125.00 17.01 C 120.95 16.99 116.82 17.32 112.85 16.31 C 111.40 16.01 109.96 15.71 108.53 15.36 C 107.18 15.10 105.84 14.86 104.50 14.59 C 98.93 13.49 93.18 13.97 87.55 14.27 M 81.53 20.24 C 79.22 20.84 76.85 21.15 74.52 21.66 C 69.91 22.09 66.23 25.20 62.26 27.31 C 59.83 29.79 56.69 31.91 55.59 35.38 C 58.40 33.31 60.77 30.74 63.25 28.31 C 67.22 26.21 70.91 23.09 75.52 22.66 C 77.85 22.15 80.22 21.84 82.53 21.24 C 88.17 20.83 93.85 20.92 99.50 21.15 C 100.62 21.57 101.76 21.97 102.90 22.36 L 102.98 21.38 C 102.37 21.06 101.15 20.41 100.54 20.09 C 94.21 20.01 87.86 19.78 81.53 20.24 M 96.68 21.58 C 98.38 23.86 100.29 25.97 101.97 28.26 C 101.99 30.17 102.00 32.09 102.01 34.00 L 103.01 34.00 C 103.00 31.75 102.99 29.50 102.97 27.25 C 101.35 24.91 99.62 22.34 96.68 21.58 M 138.43 22.71 C 135.43 22.97 132.40 22.91 129.46 23.63 C 128.32 23.82 127.18 23.99 126.04 24.15 C 126.01 24.59 125.94 25.49 125.91 25.93 C 127.45 25.42 129.01 24.95 130.56 24.46 C 133.88 23.91 137.33 24.26 140.57 23.25 C 142.89 23.03 145.22 23.01 147.54 23.08 C 151.00 25.10 154.75 26.63 157.96 29.08 C 158.03 29.69 158.18 30.91 158.25 31.52 C 158.63 32.67 158.98 33.83 159.32 35.00 L 160.28 35.00 C 159.99 33.50 159.70 31.99 159.34 30.50 C 159.24 29.90 159.03 28.68 158.93 28.07 C 155.75 25.63 152.03 24.09 148.56 22.12 C 145.18 21.98 141.70 21.62 138.43 22.71 M 127.99 31.21 C 128.01 34.14 128.00 37.07 127.99 40.01 L 128.98 40.00 C 128.99 37.45 129.01 34.91 129.08 32.36 C 130.16 30.75 131.23 29.14 132.22 27.48 C 130.36 28.15 129.10 29.65 127.99 31.21 M 75.53 33.25 C 73.21 33.85 70.84 34.15 68.50 34.66 C 67.93 34.77 66.80 35.00 66.23 35.12 C 65.86 35.58 65.12 36.50 64.75 36.96 C 64.13 36.98 62.88 37.02 62.25 37.04 C 60.25 39.75 56.41 41.99 57.00 45.76 C 58.15 46.52 59.31 47.28 60.46 48.07 C 62.14 47.93 63.82 47.75 65.49 47.48 C 66.50 47.16 67.51 46.84 68.51 46.52 C 73.45 45.71 78.58 45.61 83.50 46.58 C 87.98 46.86 91.21 50.68 95.57 51.17 C 96.46 51.87 97.36 52.56 98.28 53.23 C 101.06 51.34 104.11 49.65 106.02 46.78 C 106.02 46.14 106.02 44.86 106.02 44.22 C 103.05 40.31 98.73 37.79 94.67 35.17 C 92.53 34.84 90.51 34.08 88.44 33.48 C 84.18 32.71 79.82 32.88 75.53 33.25 M 138.50 38.57 C 137.47 38.81 136.43 39.05 135.40 39.27 C 131.74 40.50 128.98 43.37 126.46 46.17 C 125.48 45.88 124.50 45.57 123.54 45.24 C 122.29 45.10 121.05 44.96 119.81 44.84 C 119.53 45.79 119.29 46.75 119.10 47.71 C 121.11 49.41 123.52 50.42 125.99 51.24 C 125.99 54.38 126.00 57.51 126.05 60.65 C 127.50 62.05 128.94 63.47 130.35 64.92 C 130.97 64.95 132.23 65.00 132.85 65.03 C 133.62 66.34 134.37 67.65 135.13 68.97 C 133.08 72.63 130.17 75.67 126.70 78.03 C 126.17 77.98 125.09 77.88 124.56 77.82 C 123.20 76.50 121.63 75.63 119.88 76.86 C 119.93 77.56 120.04 78.97 120.09 79.68 C 120.84 80.44 121.59 81.20 122.33 81.97 C 124.47 81.99 126.60 81.99 128.74 81.98 C 132.58 79.31 136.02 75.99 138.34 71.89 C 139.30 72.79 140.26 73.68 141.24 74.57 C 141.99 73.40 142.73 72.22 143.44 71.03 C 145.22 72.40 147.19 73.26 149.48 73.21 C 151.25 74.65 153.26 75.75 155.49 76.29 C 153.98 74.75 152.27 73.45 150.63 72.08 C 149.48 72.04 148.34 72.01 147.20 71.98 C 144.08 70.07 142.43 66.42 139.05 64.90 C 137.31 63.98 136.00 62.48 134.61 61.14 C 134.04 61.08 132.91 60.96 132.34 60.90 C 131.57 60.15 130.80 59.41 130.03 58.67 C 130.01 56.20 130.00 53.72 130.00 51.25 C 132.33 50.69 134.17 49.05 136.51 48.53 C 139.13 48.07 141.80 47.95 144.44 47.66 C 148.08 46.64 151.89 47.03 155.61 46.93 C 156.74 46.21 157.87 45.50 159.00 44.79 C 159.00 44.16 158.99 42.89 158.99 42.25 C 157.21 40.81 155.33 39.50 153.53 38.09 C 148.52 38.08 143.44 37.51 138.50 38.57 M 50.48 42.73 C 48.98 42.88 47.48 43.00 45.98 43.13 C 45.37 44.95 47.28 45.18 48.45 45.88 C 49.97 45.95 51.48 45.99 52.99 46.04 L 53.01 45.00 C 51.66 45.00 50.31 45.00 48.96 45.00 L 49.03 44.31 C 50.18 43.98 51.33 43.63 52.47 43.26 C 53.09 43.17 54.34 42.99 54.96 42.90 L 54.93 41.69 C 53.44 42.01 51.95 42.33 50.48 42.73 M 162.33 42.84 C 161.94 43.35 161.18 44.38 160.80 44.89 C 163.18 44.99 165.56 45.15 167.90 45.64 C 171.09 44.90 174.38 44.91 177.63 45.03 C 180.22 48.02 183.26 50.63 186.96 52.11 C 186.60 54.22 187.75 55.82 189.00 57.39 C 188.94 58.75 188.87 60.11 188.78 61.47 C 188.22 63.46 187.81 65.48 187.28 67.48 C 187.19 68.07 187.01 69.26 186.92 69.85 C 185.54 70.89 184.14 71.90 182.72 72.88 C 180.24 72.91 178.24 74.45 176.03 75.37 C 176.01 75.80 175.97 76.67 175.95 77.10 C 177.77 76.14 179.61 75.22 181.39 74.17 C 184.06 74.39 185.85 72.22 187.91 70.87 C 188.01 70.28 188.20 69.10 188.30 68.51 C 188.74 66.84 189.09 65.16 189.49 63.49 C 189.97 61.15 190.03 58.76 190.00 56.39 C 188.48 54.50 187.56 52.30 186.73 50.05 C 183.28 49.74 181.06 46.25 178.63 44.05 C 175.17 44.05 171.68 43.85 168.23 44.09 C 168.03 44.34 167.65 44.83 167.45 45.08 C 166.08 43.60 164.27 43.06 162.33 42.84 M 18.30 46.17 C 16.89 48.81 15.51 51.50 13.04 53.31 C 13.24 59.37 12.33 65.55 13.63 71.53 C 13.51 76.07 17.45 79.37 21.43 80.76 C 23.10 81.05 24.66 81.68 26.23 82.31 C 25.88 81.74 25.19 80.60 24.84 80.04 C 24.24 79.98 23.03 79.88 22.42 79.82 C 18.49 78.30 14.50 75.11 14.63 70.53 C 13.39 65.21 14.18 59.71 14.04 54.31 C 16.45 52.49 17.85 49.88 19.31 47.31 C 19.84 47.04 20.89 46.52 21.42 46.25 C 21.94 46.07 22.98 45.70 23.50 45.52 C 28.61 44.55 33.84 45.12 39.00 45.01 L 39.00 44.00 C 32.07 44.29 24.72 42.80 18.30 46.17 M 52.29 47.22 C 50.98 48.58 53.49 49.32 54.26 48.24 C 55.64 46.99 53.00 46.15 52.29 47.22 M 30.43 48.11 C 27.37 49.60 24.31 51.48 22.40 54.38 C 21.24 56.35 20.30 58.45 19.10 60.40 C 18.81 64.54 18.87 68.76 20.13 72.75 C 21.26 74.38 22.48 75.94 23.75 77.46 C 24.32 77.02 25.47 76.15 26.04 75.71 C 26.49 72.92 23.88 71.16 23.53 68.52 C 23.14 66.51 23.01 64.47 22.99 62.43 C 24.49 60.35 25.35 57.90 26.78 55.78 C 28.34 54.13 30.44 53.13 32.42 52.09 C 35.45 51.98 38.48 51.98 41.51 52.09 C 43.36 53.50 45.22 54.94 47.40 55.82 C 48.48 55.93 49.55 56.03 50.62 56.14 C 55.77 60.01 62.58 58.95 68.60 58.89 C 71.12 57.29 74.06 56.34 76.25 54.26 C 77.68 52.94 79.01 51.51 80.36 50.11 C 79.95 49.57 79.13 48.50 78.72 47.97 C 78.14 48.00 76.98 48.07 76.40 48.10 C 73.86 51.34 70.07 52.93 66.60 54.92 C 61.00 55.55 55.23 54.52 50.63 51.13 C 47.73 51.57 45.59 49.90 43.55 48.08 C 39.17 47.96 34.80 47.94 30.43 48.11 M 174.91 49.07 C 174.95 49.54 175.01 50.48 175.05 50.95 C 177.89 50.42 179.78 52.68 181.93 54.13 C 181.99 56.25 182.07 58.37 182.24 60.48 C 182.61 61.84 182.92 63.22 183.22 64.60 C 181.28 66.57 178.79 68.08 176.95 70.05 C 177.63 70.01 178.99 69.94 179.67 69.91 C 181.09 68.44 182.54 67.01 184.04 65.61 C 183.98 63.93 183.89 62.26 183.74 60.59 C 182.91 58.17 182.95 55.60 182.92 53.08 C 180.54 51.18 177.92 49.70 174.91 49.07 M 163.35 53.07 C 160.91 54.74 158.38 56.28 156.15 58.23 C 154.76 59.42 152.89 58.29 151.51 57.65 C 150.14 56.45 148.57 55.74 146.89 56.84 C 146.94 57.56 147.03 58.99 147.07 59.71 C 147.83 60.41 148.58 61.12 149.34 61.83 C 149.87 61.98 150.95 62.29 151.49 62.45 C 154.52 63.11 157.68 63.28 160.76 62.86 C 161.81 61.89 161.94 60.40 162.36 59.12 C 163.35 58.42 164.35 57.73 165.35 57.04 C 167.74 57.01 170.12 57.02 172.51 57.08 C 173.95 58.22 175.45 59.27 176.96 60.32 C 177.47 59.93 178.49 59.14 179.00 58.75 C 178.99 58.13 178.98 56.90 178.97 56.28 C 177.46 55.26 175.95 54.22 174.51 53.10 C 170.79 52.96 167.07 52.97 163.35 53.07 M 37.25 56.20 C 36.97 57.63 36.68 59.07 36.34 60.49 C 36.23 61.09 36.01 62.29 35.91 62.89 C 34.14 63.89 32.35 64.84 30.60 65.87 C 29.48 65.93 28.35 66.00 27.23 66.06 C 26.85 66.54 26.09 67.50 25.71 67.98 C 26.09 68.49 26.85 69.51 27.24 70.02 C 29.02 69.99 30.80 69.96 32.59 69.91 C 33.09 69.60 34.11 68.99 34.61 68.69 C 35.17 70.63 36.10 72.40 37.24 74.06 C 36.81 74.60 35.95 75.69 35.52 76.24 C 36.55 76.98 37.58 77.70 38.63 78.42 C 41.19 83.05 44.20 87.43 47.25 91.74 C 55.18 102.69 66.52 110.60 78.38 116.77 C 82.68 117.38 86.15 120.19 90.48 120.58 C 90.99 120.82 92.01 121.28 92.52 121.51 C 95.53 121.95 98.61 121.95 101.57 122.70 C 104.57 122.99 107.65 122.83 110.56 123.73 C 119.50 124.18 128.50 124.18 137.44 123.73 C 140.67 122.71 144.11 123.05 147.44 122.74 C 150.07 122.04 152.80 121.89 155.48 121.47 C 155.99 121.25 157.01 120.81 157.52 120.59 C 161.07 120.35 163.93 118.42 166.92 116.71 C 170.40 112.62 172.24 107.57 173.52 102.44 C 174.47 94.52 173.97 86.48 173.80 78.51 C 173.22 76.52 172.79 74.49 172.24 72.50 C 172.13 71.34 172.03 70.18 171.93 69.03 C 170.96 68.57 169.99 68.12 169.01 67.68 C 169.00 65.86 168.99 64.04 168.98 62.23 C 168.49 61.85 167.49 61.09 166.99 60.71 C 166.51 61.08 165.55 61.84 165.07 62.22 C 165.05 64.99 165.05 67.79 164.45 70.51 C 164.29 71.06 163.98 72.17 163.83 72.72 C 162.14 74.39 160.56 76.20 158.60 77.57 C 155.44 79.58 151.90 80.88 148.65 82.72 C 146.93 82.98 145.21 83.24 143.51 83.59 C 141.48 83.92 139.44 84.21 137.45 84.74 C 132.13 84.96 126.64 85.66 121.43 84.28 C 118.47 84.00 115.49 83.99 112.53 83.74 C 110.23 83.15 107.87 82.86 105.55 82.40 C 103.87 82.07 102.19 81.76 100.52 81.38 C 99.50 81.13 98.49 80.88 97.47 80.63 C 93.56 80.24 90.45 77.75 86.53 77.39 C 86.01 77.21 84.98 76.86 84.47 76.68 C 82.82 76.21 81.17 75.79 79.53 75.31 C 79.02 75.15 77.99 74.84 77.47 74.68 C 73.51 73.77 69.69 72.37 65.85 71.12 C 63.64 71.16 62.35 68.79 60.13 68.93 C 55.49 67.26 51.35 63.95 46.51 62.73 C 44.78 61.52 42.94 60.48 41.04 59.54 C 41.02 58.44 40.99 57.33 40.97 56.23 C 40.47 55.84 39.46 55.07 38.96 54.68 C 38.53 55.06 37.67 55.82 37.25 56.20 M 87.91 62.98 C 88.35 63.82 88.80 64.66 89.24 65.51 C 88.56 65.86 87.19 66.56 86.51 66.91 C 82.02 67.04 77.53 66.98 73.04 67.01 C 73.00 67.45 72.91 68.33 72.87 68.77 C 77.65 67.42 82.65 68.20 87.54 67.91 C 88.15 67.60 89.38 66.96 90.00 66.64 C 90.00 65.43 90.01 64.22 90.01 63.02 C 89.49 63.01 88.44 62.99 87.91 62.98 M 95.30 63.05 C 93.86 64.08 92.42 65.11 91.01 66.17 C 91.00 69.07 91.00 71.97 91.00 74.87 C 92.64 76.05 94.31 77.18 96.00 78.29 C 96.49 77.91 97.48 77.15 97.97 76.77 C 97.99 76.09 98.03 74.74 98.05 74.06 C 97.03 73.59 96.02 73.13 95.00 72.68 C 95.00 71.24 95.00 69.79 95.00 68.35 C 95.61 68.04 96.85 67.42 97.46 67.11 C 99.23 67.04 101.01 67.00 102.78 66.95 C 103.16 66.47 103.91 65.50 104.29 65.01 C 103.91 64.51 103.15 63.50 102.77 63.00 C 100.28 63.00 97.79 63.01 95.30 63.05 M 101.26 70.16 C 99.67 71.31 100.09 73.44 99.70 75.12 C 101.56 76.36 103.23 75.57 104.59 74.04 C 105.87 74.10 107.15 74.17 108.43 74.28 C 110.16 74.72 111.93 74.99 113.70 75.22 C 114.10 74.65 114.89 73.51 115.29 72.94 C 114.90 72.49 114.13 71.59 113.74 71.14 C 113.18 71.00 112.07 70.71 111.52 70.57 C 108.16 69.83 104.66 69.72 101.26 70.16 M 44.45 112.79 C 46.34 115.01 49.16 115.94 51.55 117.45 C 55.98 120.21 60.75 122.34 65.40 124.69 C 68.58 125.64 71.55 127.11 74.38 128.83 C 76.31 128.75 77.83 129.82 79.37 130.85 C 81.21 131.00 82.88 131.75 84.57 132.44 C 89.57 133.35 94.49 134.65 99.48 135.64 C 100.49 135.89 101.50 136.15 102.51 136.42 C 104.50 136.81 106.51 137.06 108.52 137.36 C 112.67 138.35 116.88 139.06 121.10 139.73 C 124.85 140.22 128.66 139.86 132.43 140.25 C 135.18 141.22 138.13 141.04 141.00 141.03 C 147.86 140.93 154.73 141.11 161.59 140.91 C 166.10 138.29 170.56 135.58 174.99 132.82 C 175.00 130.55 175.00 128.27 175.00 126.00 L 174.00 125.99 C 174.00 127.93 173.99 129.88 173.99 131.83 C 169.56 134.58 165.10 137.29 160.59 139.91 C 151.92 139.95 143.22 140.27 134.57 139.74 C 129.77 138.31 124.70 139.22 119.79 139.00 L 120.08 137.99 C 117.99 137.99 115.90 137.99 113.81 138.00 L 114.05 137.11 C 112.87 136.97 111.69 136.83 110.51 136.69 C 108.20 136.15 105.85 135.85 103.53 135.40 C 102.51 135.11 101.50 134.82 100.49 134.53 C 98.28 134.10 96.03 133.97 93.78 133.85 L 94.02 133.11 C 93.38 133.00 92.11 132.78 91.47 132.67 C 89.51 132.19 87.53 131.85 85.57 131.43 C 82.95 130.11 79.92 130.14 77.64 128.15 C 74.97 128.11 72.86 126.35 70.62 125.10 C 69.93 125.07 68.54 125.01 67.84 124.97 L 68.01 124.31 C 64.44 122.90 61.11 120.99 57.65 119.36 C 53.26 117.13 49.36 113.87 44.45 112.79 M 55.07 112.68 L 55.01 113.65 C 55.62 113.94 56.83 114.52 57.44 114.81 C 59.86 114.67 61.51 116.46 63.34 117.75 C 63.89 117.88 64.97 118.14 65.51 118.27 C 67.99 120.02 70.69 121.42 73.39 122.79 C 76.80 122.90 79.15 126.03 82.55 126.26 C 85.44 127.62 88.76 127.85 91.36 129.81 C 94.22 130.27 96.86 131.52 99.57 132.48 C 101.54 132.83 103.53 133.08 105.50 133.41 C 112.06 134.79 118.81 133.42 125.44 134.27 C 128.84 135.41 132.47 134.96 136.00 135.01 C 140.81 134.89 145.67 135.38 150.45 134.52 C 153.22 133.56 156.15 133.09 158.80 131.79 C 161.89 129.71 165.24 127.35 166.40 123.61 C 162.78 126.30 159.99 130.27 155.58 131.75 C 153.51 132.25 151.49 132.92 149.45 133.52 C 142.21 134.43 134.84 134.05 127.57 133.74 C 121.04 132.03 114.18 133.64 107.54 132.76 C 105.23 132.15 102.86 131.85 100.52 131.39 C 100.01 131.23 98.97 130.91 98.45 130.75 C 97.15 130.23 95.84 129.74 94.55 129.21 C 91.83 129.33 90.16 126.66 87.45 126.79 C 86.15 126.26 84.85 125.75 83.56 125.22 C 80.15 125.07 77.82 121.89 74.39 121.79 C 71.68 120.42 68.98 119.01 66.49 117.25 C 65.98 117.13 64.96 116.89 64.45 116.77 C 62.95 116.24 61.60 115.53 60.77 114.12 C 60.20 114.02 59.06 113.83 58.49 113.74 C 57.36 113.36 56.22 113.01 55.07 112.68 M 109.99 128.00 L 110.00 129.00 C 121.00 129.00 132.00 129.00 143.00 129.00 L 143.00 128.00 C 132.00 128.00 121.00 128.00 109.99 128.00 Z" />
<path fill="#ffffff" opacity="1.00" d=" M 85.00 37.09 C 87.54 37.84 90.05 38.72 92.65 39.18 C 95.73 41.01 98.75 42.90 101.14 45.60 C 100.28 46.34 99.42 47.09 98.55 47.84 C 95.10 46.61 91.74 45.10 88.64 43.12 C 86.97 43.04 85.31 42.97 83.64 42.89 C 83.95 42.31 84.57 41.15 84.88 40.57 C 84.93 39.41 84.97 38.25 85.00 37.09 Z" />
<path fill="#ffffff" opacity="1.00" d=" M 64.28 41.01 C 65.60 41.00 66.92 41.00 68.23 41.00 C 67.88 41.44 67.17 42.33 66.81 42.77 C 65.10 43.09 63.41 43.46 61.72 43.87 C 62.57 42.92 63.43 41.97 64.28 41.01 Z" />
<path fill="#ffffff" opacity="1.00" d=" M 143.00 42.00 C 146.00 42.00 148.99 42.00 151.99 42.00 L 152.01 43.00 C 149.00 43.00 146.00 43.00 143.00 43.00 L 143.00 42.00 Z" />
<path fill="#ffffff" opacity="1.00" d=" M 38.99 65.20 C 39.38 64.93 40.14 64.40 40.52 64.13 C 46.23 67.30 52.21 69.95 57.95 73.06 C 57.92 76.11 57.92 79.19 58.74 82.15 C 58.14 82.07 56.95 81.91 56.35 81.82 C 51.76 79.24 47.01 76.95 42.24 74.74 C 41.38 72.60 40.43 70.51 39.10 68.63 C 39.06 67.48 39.03 66.34 38.99 65.20 Z" />
<path fill="#ffffff" opacity="1.00" d=" M 62.03 74.77 C 69.53 76.83 76.94 79.32 84.51 81.22 C 85.20 81.52 86.59 82.13 87.28 82.44 C 87.00 82.93 86.43 83.90 86.15 84.39 C 86.05 85.77 85.95 87.15 85.85 88.52 C 85.52 89.21 84.87 90.58 84.54 91.26 C 84.06 90.99 83.08 90.45 82.60 90.18 C 80.04 90.52 78.57 87.85 76.12 87.97 C 74.74 87.96 73.82 86.64 72.64 86.09 C 71.18 86.03 69.73 85.98 68.28 85.93 C 66.07 83.65 63.87 81.35 62.02 78.76 C 62.02 77.43 62.02 76.10 62.03 74.77 Z" />
<path fill="#ffffff" opacity="1.00" d=" M 167.15 75.36 C 168.57 75.15 169.53 77.62 168.82 78.72 C 167.40 78.90 166.49 76.46 167.15 75.36 Z" />
<path fill="#ffffff" opacity="1.00" d=" M 161.76 80.41 C 162.26 80.02 163.25 79.23 163.75 78.84 C 165.00 82.44 166.28 86.04 167.25 89.73 C 165.83 90.53 164.41 91.33 163.00 92.13 C 163.01 89.24 163.00 86.36 162.83 83.48 C 162.46 82.46 162.10 81.44 161.76 80.41 Z" />
<path fill="#ffffff" opacity="1.00" d=" M 169.24 81.24 L 169.76 81.24 L 169.76 81.76 L 169.24 81.76 L 169.24 81.24 Z" />
<path fill="#ffffff" opacity="1.00" d=" M 45.80 81.52 C 47.07 82.21 48.31 82.96 49.52 83.75 C 52.58 84.12 54.91 86.43 57.85 87.27 C 57.99 87.83 58.28 88.94 58.42 89.49 C 58.75 91.22 58.98 92.96 59.20 94.70 C 58.59 95.13 57.38 95.98 56.77 96.41 C 52.54 91.89 48.98 86.82 45.80 81.52 Z" />
<path fill="#ffffff" opacity="1.00" d=" M 150.99 86.31 C 153.41 85.38 155.74 84.26 157.95 82.89 C 158.88 85.68 159.46 88.67 158.41 91.52 C 158.27 92.12 157.99 93.33 157.85 93.93 C 156.71 93.99 155.58 94.06 154.44 94.13 C 153.86 94.45 152.68 95.09 152.09 95.41 C 152.44 94.12 152.80 92.84 153.14 91.55 C 151.93 89.97 150.54 88.44 150.99 86.31 Z" />
<path fill="#ffffff" opacity="1.00" d=" M 91.41 83.79 C 92.77 84.04 94.12 84.31 95.47 84.62 C 96.49 84.87 97.51 85.12 98.53 85.37 C 100.19 85.77 101.86 86.09 103.54 86.44 C 105.93 87.14 108.97 86.35 110.85 88.25 C 111.15 90.82 111.01 93.41 111.02 95.99 C 107.18 96.03 103.31 96.22 99.51 95.51 C 99.01 95.29 97.99 94.84 97.49 94.62 C 95.52 94.16 93.52 93.82 91.56 93.34 C 90.85 93.20 89.42 92.92 88.71 92.79 C 88.99 92.23 89.55 91.13 89.84 90.58 C 89.95 89.20 90.05 87.83 90.17 86.46 C 90.48 85.79 91.10 84.45 91.41 83.79 Z" />
<path fill="#ffffff" opacity="1.00" d=" M 139.46 88.77 C 141.97 88.12 144.54 87.78 147.07 87.20 C 147.03 88.45 147.00 89.71 146.97 90.96 C 148.56 91.14 148.10 93.79 148.91 94.96 C 146.73 94.98 144.52 95.02 142.43 95.73 C 139.35 96.05 136.25 96.03 133.15 96.02 C 133.05 93.66 132.87 91.29 132.26 89.00 C 134.66 89.00 137.07 88.96 139.46 88.77 Z" />
<path fill="#ffffff" opacity="1.00" d=" M 115.02 87.76 C 116.88 87.99 118.74 88.24 120.56 88.73 C 122.99 88.97 125.44 89.02 127.89 89.07 C 128.00 89.68 128.24 90.90 128.35 91.52 C 128.70 92.99 128.98 94.48 129.26 95.97 C 124.51 96.02 119.75 96.00 115.00 96.00 C 115.00 93.25 115.00 90.51 115.02 87.76 Z" />
<path fill="#ffffff" opacity="1.00" d=" M 63.00 89.92 C 65.45 91.24 67.97 92.41 70.38 93.81 C 73.01 93.91 75.06 95.67 77.34 96.76 C 79.20 97.13 81.57 96.53 82.87 98.26 C 83.06 100.00 82.99 101.75 82.97 103.49 C 80.61 105.86 79.54 108.88 78.89 112.09 C 72.13 108.56 66.07 103.91 59.82 99.59 C 60.87 98.63 61.91 97.66 62.97 96.70 C 62.99 94.44 63.00 92.18 63.00 89.92 Z" />
<path fill="#ffffff" opacity="1.00" d=" M 87.00 98.98 C 89.17 99.81 91.25 100.98 93.61 101.16 C 95.59 102.75 98.02 103.14 100.45 103.56 C 101.79 103.93 103.13 104.31 104.46 104.72 C 105.10 104.82 106.36 105.01 106.99 105.10 C 107.42 109.81 106.37 114.51 106.69 119.18 C 105.29 119.01 103.90 118.85 102.52 118.67 C 99.88 118.08 97.18 117.89 94.51 117.45 C 90.69 115.81 86.43 115.48 82.72 113.57 C 83.00 113.07 83.56 112.09 83.84 111.60 C 83.56 109.06 85.57 107.40 86.92 105.53 C 86.97 103.35 86.99 101.16 87.00 98.98 Z" />
<path fill="#ffffff" opacity="1.00" d=" M 166.52 105.57 C 167.29 104.54 168.07 103.53 168.89 102.54 C 168.28 106.32 166.07 109.45 164.66 112.95 L 163.93 113.02 C 163.46 110.11 165.96 108.24 166.52 105.57 Z" />
<path fill="#ffffff" opacity="1.00" d=" M 111.02 105.68 C 111.62 105.95 112.84 106.48 113.44 106.75 C 114.46 106.96 115.48 107.19 116.49 107.42 C 120.03 108.26 123.68 108.01 127.28 108.04 C 126.97 109.19 126.65 110.33 126.32 111.47 C 126.05 113.48 125.81 115.50 125.40 117.49 C 125.26 118.11 125.00 119.35 124.86 119.97 C 120.00 119.94 115.02 120.51 110.28 119.11 C 111.44 114.73 110.93 110.16 111.02 105.68 Z" />
<path fill="#ffffff" opacity="1.00" d=" M 158.25 107.25 C 159.27 106.80 160.30 106.35 161.32 105.90 C 160.47 108.20 159.27 110.42 159.07 112.90 C 159.89 113.34 160.75 113.69 161.65 113.96 L 162.39 113.59 L 163.47 113.47 C 161.48 115.18 159.19 116.40 156.50 116.19 C 155.79 116.46 154.36 117.00 153.65 117.27 C 154.84 113.76 156.87 110.67 158.25 107.25 Z" />
<path fill="#ffffff" opacity="1.00" d=" M 149.49 108.76 C 150.69 108.38 151.90 108.03 153.11 107.70 C 151.80 110.39 150.65 113.16 148.92 115.62 C 149.28 116.39 149.65 117.17 150.03 117.94 C 148.85 118.04 147.68 118.15 146.51 118.26 C 145.22 118.62 143.93 118.96 142.63 119.26 C 144.14 115.98 145.50 112.63 146.26 109.07 C 147.33 108.97 148.41 108.87 149.49 108.76 Z" />
<path fill="#ffffff" opacity="1.00" d=" M 132.23 109.14 C 135.45 108.82 138.70 109.01 141.94 108.98 C 141.03 112.53 138.94 115.55 137.74 118.99 C 135.00 119.93 132.10 120.09 129.23 120.15 C 130.28 116.47 129.65 112.26 132.23 109.14 Z" />
<path fill="#ffffff" opacity="1.00" d=" M 284.27 146.10 L 285.00 145.69 L 285.73 146.10 L 285.73 146.91 L 285.00 147.31 L 284.27 146.91 L 284.27 146.10 Z" />
<path fill="#ffffff" opacity="1.00" d=" M 288.27 153.09 L 289.00 152.69 L 289.73 153.10 L 289.73 153.91 L 289.00 154.31 L 288.27 153.90 L 288.27 153.09 Z" />
<path fill="#ffffff" opacity="1.00" d=" M 277.17 153.80 C 281.39 154.21 285.30 155.93 289.21 157.42 C 287.93 158.20 286.67 159.02 285.44 159.89 C 282.63 159.99 279.81 160.01 277.00 160.02 L 277.00 161.00 C 278.75 161.00 280.50 161.00 282.25 161.00 C 281.44 161.98 280.62 162.97 279.82 163.96 C 279.09 163.97 277.64 163.99 276.91 164.01 L 277.44 165.25 C 276.75 165.13 275.36 164.89 274.67 164.77 C 274.93 164.23 275.44 163.16 275.70 162.62 C 275.98 160.90 276.27 159.19 276.67 157.49 C 276.84 156.26 277.01 155.03 277.17 153.80 Z" />
<path fill="#ffffff" opacity="1.00" d=" M 295.95 154.00 C 300.30 154.00 304.65 154.00 309.01 154.00 L 308.99 154.90 C 307.81 155.00 306.64 155.11 305.47 155.22 C 303.84 155.75 302.19 156.22 300.56 156.74 C 299.14 155.72 296.56 155.63 295.95 154.00 Z" />
<path fill="#ffffff" opacity="1.00" d=" M 289.95 158.20 C 291.02 158.22 291.89 158.61 292.57 159.39 C 292.06 160.59 290.16 160.05 289.14 159.96 C 287.56 159.66 288.91 157.93 289.95 158.20 Z" />
<path fill="#ffffff" opacity="1.00" d=" M 248.38 172.18 C 255.73 168.19 262.80 163.68 270.24 159.90 C 269.98 161.09 269.70 162.28 269.40 163.46 C 269.04 164.80 268.69 166.15 268.31 167.49 C 268.20 167.99 267.99 169.00 267.89 169.51 C 265.39 170.83 263.44 172.89 261.65 175.03 C 260.10 175.01 258.55 174.99 257.00 174.98 L 256.97 175.98 C 258.42 175.99 259.87 176.00 261.32 176.01 C 260.44 176.96 259.56 177.91 258.68 178.86 C 257.50 178.44 256.32 178.04 255.13 177.66 L 254.93 178.93 C 255.57 179.00 256.85 179.15 257.49 179.22 C 256.64 180.50 255.77 181.75 254.89 183.00 C 252.67 183.00 250.45 182.99 248.24 183.00 C 249.37 179.49 249.25 175.73 248.38 172.18 Z" />
<path fill="#ffffff" opacity="1.00" d=" M 285.39 161.08 C 287.65 161.02 289.91 161.00 292.18 161.00 C 290.60 163.07 289.62 165.34 289.95 168.00 C 284.42 167.94 278.89 168.17 273.38 167.81 C 277.13 165.12 281.83 164.13 285.39 161.08 Z" />
<path fill="#ffffff" opacity="1.00" d=" M 302.84 163.16 C 304.99 164.73 305.27 167.52 303.49 169.52 C 303.21 171.26 302.99 173.02 302.80 174.77 C 301.60 175.92 300.40 177.08 299.21 178.23 C 298.21 176.35 297.26 174.44 296.15 172.63 C 296.10 171.98 295.99 170.68 295.93 170.03 C 296.70 170.02 298.24 170.00 299.01 169.99 L 299.02 169.01 C 298.20 169.00 296.58 168.97 295.77 168.96 C 296.20 167.46 295.45 165.06 297.34 164.41 C 299.15 163.91 301.02 163.63 302.84 163.16 Z" />
<path fill="#ffffff" opacity="1.00" d=" M 249.25 166.23 L 249.76 166.23 L 249.76 166.75 L 249.24 166.75 L 249.25 166.23 Z" />
<path fill="#ffffff" opacity="1.00" d=" M 274.28 169.00 C 279.72 169.04 285.16 168.86 290.59 169.17 C 288.89 171.70 286.73 173.85 284.66 176.06 C 283.29 175.95 281.93 175.84 280.57 175.69 C 278.94 175.26 277.26 175.07 275.59 174.99 C 274.45 175.49 273.30 175.96 272.15 176.41 C 272.56 174.76 272.95 173.10 273.31 171.43 C 273.55 170.82 274.04 169.61 274.28 169.00 Z" />
<path fill="#ffffff" opacity="1.00" d=" M 240.97 170.86 L 242.36 171.29 C 239.44 174.23 235.69 176.08 232.27 178.35 C 229.50 181.13 226.35 183.61 224.07 186.82 C 224.23 187.29 224.54 188.23 224.69 188.70 C 224.02 189.45 223.35 190.19 222.68 190.95 C 223.07 191.46 223.85 192.48 224.23 193.00 C 229.42 193.01 234.61 192.98 239.81 193.03 C 240.10 193.42 240.69 194.21 240.98 194.60 C 239.83 196.14 238.64 197.66 238.91 199.70 C 236.30 203.80 233.20 207.66 228.72 209.81 C 227.64 210.00 226.57 210.19 225.51 210.40 C 221.41 211.41 217.17 210.92 213.00 211.01 C 209.14 210.92 205.18 211.46 201.44 210.30 C 198.81 210.03 196.18 209.96 193.56 209.71 C 191.25 209.10 188.88 208.91 186.53 208.64 C 184.53 208.21 182.50 207.93 180.48 207.63 C 178.16 207.15 175.80 206.85 173.49 206.31 C 172.32 206.16 171.14 206.03 169.97 205.92 L 170.05 205.31 C 174.62 203.63 178.63 200.54 183.32 199.41 C 187.66 196.91 192.47 195.27 196.51 192.23 C 199.27 192.33 200.93 189.39 203.77 189.96 C 204.13 189.47 204.86 188.51 205.22 188.03 C 206.38 188.00 207.55 187.98 208.71 187.95 C 209.53 187.05 210.36 186.15 211.19 185.25 C 213.00 184.76 214.78 184.19 216.61 183.78 C 224.68 179.63 232.77 175.49 241.00 171.65 L 240.97 170.86 Z" />
<path fill="#ffffff" opacity="1.00" d=" M 266.12 172.16 C 267.92 172.63 266.68 175.47 265.07 174.99 C 263.18 174.55 264.65 171.90 266.12 172.16 Z" />
<path fill="#ffffff" opacity="1.00" d=" M 285.93 175.26 C 287.46 174.38 289.00 173.52 290.56 172.68 C 290.99 174.14 291.44 175.60 291.92 177.05 C 289.86 176.57 286.71 178.17 285.93 175.26 Z" />
<path fill="#ffffff" opacity="1.00" d=" M 261.93 175.98 C 263.40 176.00 264.87 176.03 266.34 176.06 C 266.04 176.65 265.44 177.84 265.14 178.44 C 265.07 179.69 265.01 180.95 264.96 182.20 C 264.53 181.87 263.67 181.21 263.24 180.88 C 262.88 181.41 262.17 182.47 261.81 183.00 C 259.92 183.00 258.03 182.99 256.15 183.00 C 256.94 182.03 257.72 181.05 258.49 180.05 C 259.53 180.04 260.57 180.02 261.62 180.01 C 261.70 178.67 261.81 177.32 261.93 175.98 Z" />
<path fill="#ffffff" opacity="1.00" d=" M 234.26 182.35 C 237.23 180.57 240.06 178.60 243.00 176.78 C 243.00 179.17 243.00 181.56 243.01 183.95 C 242.12 184.73 240.02 184.59 239.95 186.00 C 240.47 186.00 241.49 186.00 242.00 186.00 C 242.00 186.75 242.00 188.25 242.00 189.00 C 237.21 189.00 232.42 189.02 227.63 188.99 C 229.76 186.70 231.97 184.48 234.26 182.35 Z" />
<path fill="#ffffff" opacity="1.00" d=" M 282.05 176.58 C 282.41 177.00 283.12 177.84 283.47 178.26 C 283.81 178.00 284.49 177.48 284.82 177.22 C 287.39 177.95 290.06 178.07 292.71 178.11 C 293.15 179.07 293.59 180.04 294.04 181.00 C 290.44 180.99 286.84 180.99 283.24 181.00 C 282.86 179.52 282.45 178.05 282.05 176.58 Z" />
<path fill="#ffffff" opacity="1.00" d=" M 276.32 181.25 C 278.06 181.67 276.30 183.78 275.12 183.23 C 273.31 182.78 275.19 180.87 276.32 181.25 Z" />
<path fill="#ffffff" opacity="1.00" d=" M 283.00 182.02 C 286.47 182.01 289.94 182.01 293.41 181.86 C 294.11 182.82 294.81 183.80 295.49 184.78 C 294.87 184.86 293.64 185.00 293.02 185.08 L 293.53 183.04 C 293.04 183.55 292.05 184.56 291.55 185.07 L 291.45 184.34 C 288.64 184.02 285.82 183.96 283.00 183.94 C 283.00 183.46 283.00 182.50 283.00 182.02 Z" />
<path fill="#ffffff" opacity="1.00" d=" M 248.47 184.22 C 249.17 183.38 251.68 183.32 251.54 184.77 C 250.83 185.59 248.33 185.65 248.47 184.22 Z" />
<path fill="#ffffff" opacity="1.00" d=" M 254.35 184.31 C 255.77 183.70 258.86 183.20 259.65 184.69 C 258.22 185.30 255.13 185.79 254.35 184.31 Z" />
<path fill="#ffffff" opacity="1.00" d=" M 267.07 185.55 C 267.88 184.72 270.14 185.66 269.51 186.90 C 268.63 187.78 266.38 186.88 267.07 185.55 Z" />
<path fill="#ffffff" opacity="1.00" d=" M 281.96 184.97 C 284.27 184.97 286.58 184.89 288.89 185.07 C 289.97 184.90 291.62 186.53 290.67 187.55 C 290.01 188.68 289.29 189.77 288.62 190.89 C 289.15 190.92 290.23 190.97 290.77 190.99 C 291.68 189.23 290.98 185.55 293.76 185.84 C 293.15 188.18 292.95 190.59 292.85 193.00 C 289.61 193.00 286.37 193.00 283.14 193.00 C 282.37 191.66 281.62 190.31 280.87 188.97 L 282.08 189.06 C 282.04 187.69 282.00 186.33 281.96 184.97 M 283.34 189.15 L 283.33 189.84 L 283.96 190.32 C 284.33 190.20 285.09 189.97 285.47 189.85 L 285.47 189.15 C 285.09 189.03 284.34 188.80 283.96 188.68 L 283.34 189.15 Z" />
<path fill="#ffffff" opacity="1.00" d=" M 248.27 186.10 L 249.01 185.72 L 249.75 186.13 L 249.73 186.93 L 248.99 187.32 L 248.26 186.91 L 248.27 186.10 Z" />
<path fill="#ffffff" opacity="1.00" d=" M 251.28 186.06 C 253.59 186.02 255.91 186.00 258.23 186.00 C 257.75 187.33 257.25 188.66 256.78 190.00 C 253.75 190.00 250.72 190.00 247.70 190.00 C 248.89 188.68 250.09 187.38 251.28 186.06 Z" />
<path fill="#ffffff" opacity="1.00" d=" M 262.59 190.30 C 263.58 189.11 264.59 187.95 265.61 186.79 C 266.78 187.34 267.96 187.88 269.15 188.41 C 268.14 189.74 267.11 191.06 266.03 192.33 C 265.17 191.82 263.45 190.80 262.59 190.30 Z" />
<path fill="#ffffff" opacity="1.00" d=" M 85.24 188.25 L 85.75 188.24 L 85.76 188.76 L 85.24 188.76 L 85.24 188.25 Z" />
<path fill="#ffffff" opacity="1.00" d=" M 268.44 191.79 C 269.51 190.29 270.66 188.86 271.84 187.45 C 272.68 188.25 273.52 189.07 274.37 189.88 C 273.96 190.42 273.16 191.51 272.76 192.05 C 271.31 191.97 269.87 191.89 268.44 191.79 Z" />
<path fill="#ffffff" opacity="1.00" d=" M 87.24 189.24 L 87.76 189.24 L 87.76 189.76 L 87.24 189.75 L 87.24 189.24 Z" />
</g>
<g id="#000000ff">
<path fill="#000000" opacity="1.00" d=" M 315.87 0.00 L 329.14 0.00 C 328.26 0.90 327.36 1.76 326.42 2.60 C 323.80 3.18 321.05 2.83 318.44 3.49 C 314.84 4.80 311.59 7.05 307.77 7.73 C 298.92 9.40 289.97 10.44 281.00 11.18 C 280.99 18.79 281.02 26.39 280.97 34.00 C 280.81 40.75 282.13 47.41 282.75 54.11 C 283.65 66.41 285.10 78.67 285.96 90.97 C 285.77 96.08 287.34 100.98 287.86 106.00 C 288.13 112.64 289.03 119.23 289.26 125.88 C 290.36 132.73 289.96 139.67 290.00 146.57 C 292.54 147.20 294.99 148.14 297.39 149.21 C 302.22 150.44 307.24 149.98 312.17 150.15 C 318.93 149.98 325.70 150.00 332.46 149.96 C 333.81 147.37 335.17 144.50 337.84 143.01 C 338.73 143.43 339.62 143.89 340.49 144.37 C 339.24 146.23 337.99 148.10 336.77 149.99 C 338.18 150.00 339.59 150.01 341.00 150.03 L 341.00 153.94 C 339.43 153.97 337.87 154.01 336.31 154.04 C 335.25 156.41 333.92 158.68 333.26 161.20 C 332.72 164.78 332.93 168.42 332.96 172.03 C 332.96 177.01 334.75 181.73 336.28 186.40 C 332.40 187.61 328.88 185.12 325.06 185.01 C 321.37 184.85 317.67 184.83 313.99 185.09 C 310.68 185.28 307.63 187.08 304.29 186.92 C 303.40 186.24 302.92 185.34 302.85 184.22 C 311.10 179.28 320.96 181.43 330.04 181.00 C 328.63 174.76 328.86 168.31 329.03 161.96 C 329.09 159.04 330.74 156.54 331.97 154.00 C 326.77 154.23 321.21 153.00 316.36 155.44 C 315.14 155.58 313.92 155.73 312.71 155.89 C 316.18 159.07 318.45 163.22 319.36 167.84 C 317.42 168.33 315.48 168.81 313.53 169.25 C 312.70 166.47 311.81 163.65 310.05 161.31 C 311.40 167.08 314.27 173.02 312.07 178.98 C 310.51 179.00 308.95 179.03 307.40 179.06 C 306.87 180.08 306.34 181.10 305.81 182.12 C 304.61 181.71 303.41 181.29 302.22 180.87 C 299.27 184.04 296.94 187.87 296.72 192.29 C 298.17 192.91 299.67 193.47 301.05 194.26 C 301.38 195.66 300.23 196.82 298.87 196.86 C 293.99 197.28 289.09 196.92 284.21 196.99 C 284.00 199.27 283.77 201.54 283.46 203.81 C 281.65 203.43 279.84 203.08 278.02 202.76 C 278.01 200.71 278.01 198.67 277.99 196.63 C 277.20 197.80 276.43 198.98 275.65 200.16 C 273.90 198.89 272.18 197.58 270.50 196.22 C 267.32 196.04 264.14 195.75 261.01 195.14 C 260.99 195.78 260.95 197.07 260.93 197.72 C 258.94 198.11 256.97 198.55 255.00 199.01 C 254.99 197.32 254.98 195.63 254.98 193.94 C 252.39 193.96 249.80 193.85 247.23 194.17 C 245.07 197.88 244.41 202.32 241.87 205.85 C 237.56 213.00 229.16 216.64 221.05 216.99 C 216.36 217.09 211.66 217.10 206.98 216.93 C 193.82 215.65 180.69 213.98 167.75 211.26 C 165.30 210.93 162.82 210.07 160.34 210.38 C 155.69 212.00 152.19 215.77 147.77 217.82 C 145.34 218.20 142.87 217.99 140.43 217.94 C 145.09 214.77 149.72 211.57 154.36 208.38 C 151.34 207.93 148.35 207.38 145.40 206.63 C 135.88 204.17 126.28 202.02 116.90 199.06 C 111.11 197.14 104.96 198.40 99.00 197.90 C 93.30 197.38 87.69 196.12 82.26 194.30 C 80.23 196.28 78.29 198.46 75.70 199.72 C 72.51 201.32 68.90 201.75 65.39 202.12 C 66.42 205.35 66.27 208.95 68.05 211.93 C 69.58 214.60 71.16 217.24 72.46 220.04 C 69.35 219.98 66.03 220.38 63.18 218.84 C 60.09 217.34 56.47 216.56 54.20 213.78 C 50.59 210.15 48.83 204.74 44.12 202.27 C 44.12 205.38 43.36 208.92 45.30 211.65 C 46.65 213.28 48.53 214.34 50.22 215.57 C 49.78 216.89 49.32 218.21 48.86 219.53 C 45.41 217.75 41.66 215.50 40.35 211.62 C 39.75 208.79 40.00 205.87 39.94 203.00 C 36.00 203.01 32.04 203.15 28.11 202.79 C 21.80 201.97 15.05 202.06 9.44 198.61 C 5.25 195.62 1.46 191.32 1.11 185.94 C 0.74 178.76 0.70 171.45 2.45 164.42 C 4.13 158.71 9.40 155.30 13.77 151.74 C 18.71 147.71 24.63 145.18 30.80 143.71 C 31.47 139.30 32.26 134.89 32.39 130.42 C 35.26 126.94 37.50 123.01 39.91 119.20 C 35.51 114.86 30.28 111.33 26.83 106.10 C 23.83 102.11 23.04 96.97 20.20 92.90 C 16.62 88.47 11.75 85.18 8.64 80.35 C 6.78 77.43 4.31 74.68 3.81 71.12 C 2.87 66.23 2.14 60.88 4.13 56.15 C 7.93 48.36 14.64 42.59 21.20 37.17 C 25.50 32.58 26.44 25.99 29.79 20.80 C 34.08 14.27 39.20 7.87 46.30 4.28 C 49.26 2.56 52.78 3.11 56.03 2.96 C 60.38 2.98 64.64 1.88 68.99 1.97 C 81.00 2.03 93.02 1.98 105.03 1.99 C 113.06 2.37 121.00 3.91 129.05 4.05 C 138.34 4.41 147.35 6.79 156.43 8.59 C 161.90 9.68 166.51 12.98 171.21 15.80 C 174.73 18.14 178.34 20.86 180.33 24.69 C 181.52 28.93 180.67 33.80 183.33 37.61 C 185.61 40.40 189.38 41.52 191.44 44.54 C 193.44 47.27 195.17 50.45 195.02 53.94 C 195.02 58.56 195.32 63.22 194.74 67.81 C 193.23 73.13 189.89 77.67 187.72 82.71 C 185.14 88.81 186.16 95.56 186.00 101.99 C 186.14 108.36 185.40 114.83 186.92 121.08 C 188.34 127.20 188.33 133.58 187.79 139.81 C 186.62 144.20 183.45 147.67 180.78 151.22 C 192.13 149.18 203.48 146.87 215.01 146.03 C 217.41 145.81 220.05 145.68 222.08 144.21 C 233.79 133.83 245.15 122.85 258.41 114.40 C 262.45 111.74 267.57 109.65 272.34 111.60 C 277.39 113.99 279.21 119.95 279.87 125.08 C 280.27 131.51 280.27 138.02 278.95 144.36 C 281.29 143.07 283.62 141.76 286.01 140.56 C 286.05 136.90 286.03 133.21 285.46 129.58 C 284.89 125.55 285.09 121.46 284.55 117.43 C 283.86 112.61 284.23 107.68 283.08 102.92 C 282.03 98.69 282.01 94.33 281.82 90.01 C 280.82 80.36 280.09 70.68 279.11 61.03 C 278.75 52.32 276.69 43.74 276.97 35.00 C 277.01 25.90 277.03 16.80 276.95 7.71 C 287.65 5.90 298.63 5.90 309.16 3.10 C 311.52 2.35 313.66 1.08 315.87 0.00 M 62.43 6.74 C 58.44 7.13 54.42 6.97 50.41 7.08 C 48.01 8.47 45.65 9.92 43.25 11.31 C 38.31 15.89 34.26 21.41 31.20 27.40 C 31.10 27.96 30.91 29.06 30.81 29.62 C 28.47 33.98 26.57 38.69 22.71 42.00 C 26.81 42.00 30.90 42.00 35.00 42.00 L 35.01 43.01 C 29.61 43.11 23.79 42.15 18.89 45.01 C 14.26 48.11 11.34 52.93 8.27 57.44 C 8.08 57.96 7.69 58.99 7.49 59.50 C 7.26 61.10 7.13 62.72 7.11 64.34 C 8.16 66.67 8.03 69.24 8.13 71.73 C 9.85 74.09 11.59 76.44 13.04 78.98 C 14.38 81.42 16.98 82.73 19.42 83.82 C 20.02 83.88 21.22 83.99 21.82 84.05 C 22.17 84.58 22.88 85.65 23.23 86.19 C 21.69 85.74 20.15 85.26 18.59 84.83 C 21.75 88.54 26.21 91.77 27.06 96.87 C 28.55 101.26 31.38 105.07 34.48 108.49 C 37.53 110.76 39.92 113.79 43.02 115.99 C 49.10 121.26 56.76 124.19 63.40 128.64 C 64.89 129.12 66.31 129.85 67.88 130.01 C 69.51 130.11 70.49 131.92 72.13 131.97 C 73.49 131.89 74.55 132.70 75.67 133.35 C 83.45 137.21 91.23 141.11 99.00 145.01 C 100.32 145.96 101.97 146.08 103.50 146.49 C 105.15 146.08 106.85 146.08 108.51 146.49 C 111.43 147.74 114.43 148.76 117.55 149.39 C 119.52 149.84 121.52 150.17 123.49 150.63 C 124.00 150.81 125.01 151.18 125.52 151.37 C 127.49 151.84 129.50 152.17 131.47 152.66 C 132.49 152.88 133.52 153.10 134.54 153.32 C 136.53 153.82 138.54 154.22 140.52 154.79 C 147.81 154.98 155.20 155.49 162.45 154.50 C 165.57 153.86 168.44 152.42 171.55 151.78 C 174.16 149.61 177.40 148.29 179.69 145.74 C 181.09 143.35 182.53 140.99 183.91 138.59 C 184.05 134.57 184.09 130.53 183.81 126.51 C 183.22 124.52 182.78 122.48 182.19 120.49 C 181.77 112.67 182.10 104.83 182.00 97.00 C 182.05 92.83 181.62 88.59 182.58 84.49 C 183.10 80.40 185.57 76.96 187.66 73.52 C 188.46 71.08 189.34 68.67 190.92 66.63 C 191.04 61.89 191.06 57.15 190.89 52.42 C 189.41 49.36 187.53 46.30 184.59 44.45 C 181.89 42.84 179.87 40.33 178.13 37.77 C 177.10 34.35 176.87 30.77 176.93 27.22 C 175.44 25.06 173.69 23.11 171.79 21.30 C 167.06 18.62 162.51 15.63 157.64 13.21 C 156.58 13.05 155.52 12.88 154.47 12.72 C 152.47 12.19 150.44 11.77 148.47 11.16 C 146.51 11.07 144.54 11.08 142.59 11.22 C 139.19 12.47 135.53 11.93 131.99 12.01 C 127.81 11.87 123.51 12.51 119.43 11.31 C 114.10 11.05 108.84 10.15 103.53 9.64 C 100.42 8.78 97.18 8.98 94.00 8.96 C 90.51 8.98 86.99 8.83 83.55 9.49 C 82.21 9.88 80.87 10.26 79.53 10.67 C 79.02 10.85 77.99 11.22 77.47 11.40 C 76.10 11.71 74.71 11.99 73.33 12.25 C 71.79 13.22 70.26 14.21 68.36 14.16 C 65.08 15.91 62.03 18.10 58.66 19.68 C 53.53 22.21 49.01 25.76 44.56 29.32 C 45.14 27.49 46.20 25.81 48.03 25.03 C 52.18 22.98 55.52 19.66 59.68 17.64 C 62.29 16.20 64.73 14.50 67.40 13.19 C 69.27 13.18 70.79 12.21 72.33 11.26 C 74.42 10.85 76.54 10.49 78.53 9.68 C 79.86 9.27 81.21 8.88 82.55 8.48 C 86.66 7.71 90.85 8.04 95.00 7.98 C 98.19 7.99 101.46 7.73 104.56 8.68 C 106.82 9.03 109.15 8.94 111.37 9.57 C 114.72 10.35 118.27 9.58 121.56 10.73 C 128.10 11.29 134.66 10.88 141.21 11.00 C 140.86 10.51 140.16 9.54 139.81 9.05 C 137.00 9.04 134.12 9.20 131.43 8.26 C 127.48 7.88 123.51 8.13 119.57 7.74 C 116.34 6.70 112.91 7.06 109.58 6.73 C 106.17 5.59 102.53 6.04 99.00 5.99 C 88.66 6.01 78.32 6.02 67.99 5.96 C 66.11 5.92 64.23 6.15 62.43 6.74 M 265.41 117.10 C 257.93 121.10 251.53 126.70 244.87 131.89 C 240.11 136.25 234.83 140.01 230.66 144.99 C 231.71 144.64 232.77 144.29 233.83 143.93 C 240.22 144.07 246.62 143.98 253.02 143.96 C 254.89 143.93 256.77 144.16 258.57 144.72 C 261.52 144.99 264.49 145.00 267.44 145.28 C 269.20 145.74 271.02 146.00 272.83 146.23 C 272.99 145.00 273.16 143.76 273.35 142.54 C 274.54 137.78 273.87 132.83 274.02 127.98 C 274.15 124.05 273.10 120.19 270.85 116.96 C 269.04 117.00 267.22 117.04 265.41 117.10 M 38.94 128.68 C 39.16 129.61 39.39 130.53 39.63 131.45 C 41.12 134.83 40.90 138.84 43.23 141.86 C 50.96 142.41 58.75 141.49 66.47 142.32 C 67.48 142.44 68.50 142.50 69.52 142.50 C 70.01 142.37 70.98 142.11 71.47 141.98 C 73.10 143.53 74.98 144.81 76.55 146.44 C 78.23 148.59 79.64 150.94 80.79 153.42 C 80.89 153.95 81.09 155.03 81.19 155.57 C 82.12 156.79 83.02 158.04 83.92 159.30 C 83.80 160.97 84.37 162.40 85.44 163.67 C 86.66 164.94 85.32 167.07 86.56 168.33 C 89.03 170.76 87.96 174.56 87.28 177.57 C 87.12 179.25 87.02 180.94 86.94 182.62 C 90.04 184.26 93.32 185.36 96.69 186.29 C 98.21 187.21 99.72 188.14 101.55 188.22 C 102.85 188.74 104.15 189.24 105.45 189.76 C 105.97 189.90 107.01 190.18 107.53 190.32 C 108.86 190.71 110.21 191.08 111.56 191.45 C 112.91 191.72 114.27 191.95 115.63 192.17 C 119.19 186.68 123.17 181.24 128.67 177.54 C 136.52 170.37 145.57 164.64 154.89 159.57 L 155.06 159.00 C 149.54 158.95 144.02 159.18 138.51 158.79 C 136.54 158.22 134.52 157.82 132.53 157.32 C 131.51 157.10 130.50 156.88 129.48 156.66 C 127.50 156.17 125.49 155.84 123.51 155.37 C 123.01 155.18 121.99 154.81 121.48 154.62 C 119.52 154.15 117.52 153.87 115.56 153.39 C 114.21 153.06 112.86 152.74 111.52 152.37 C 111.01 152.15 109.99 151.72 109.48 151.51 C 106.51 151.04 103.49 150.96 100.52 150.47 C 99.99 150.29 98.93 149.93 98.40 149.75 C 89.53 145.10 80.42 140.93 71.62 136.17 C 69.68 136.24 68.16 135.17 66.62 134.15 C 64.79 133.98 63.12 133.26 61.43 132.61 C 55.47 128.89 49.10 125.84 43.29 121.89 C 42.07 124.30 40.62 126.57 38.94 128.68 M 44.60 146.08 C 46.27 151.06 48.42 156.04 52.12 159.87 C 60.62 168.81 71.09 175.99 82.63 180.36 C 82.99 178.21 83.35 176.06 83.73 173.92 C 82.77 171.08 82.08 168.16 81.68 165.19 C 81.37 164.83 80.76 164.11 80.46 163.74 C 79.20 160.38 77.34 157.30 75.99 153.98 C 74.47 150.41 71.42 147.89 68.77 145.18 C 60.81 146.84 52.64 145.59 44.60 146.08 M 284.27 146.10 L 284.27 146.91 L 285.00 147.31 L 285.73 146.91 L 285.73 146.10 L 285.00 145.69 L 284.27 146.10 M 35.08 148.24 C 35.06 152.54 34.40 157.02 35.82 161.17 C 37.39 165.27 39.92 168.94 42.64 172.36 C 46.53 176.84 50.10 181.57 53.82 186.18 C 57.42 189.77 60.40 193.95 62.22 198.72 C 67.93 197.59 74.14 196.74 78.40 192.35 C 65.42 186.28 54.49 176.17 47.00 164.00 C 43.19 158.52 39.16 153.13 36.59 146.92 C 36.21 147.25 35.45 147.91 35.08 148.24 M 11.22 159.22 C 8.86 161.33 6.91 164.03 6.26 167.18 C 5.08 172.67 4.59 178.35 5.10 183.96 C 5.51 188.19 7.72 192.33 11.38 194.60 C 15.21 196.82 19.62 197.83 24.01 198.11 C 35.08 199.66 46.28 198.86 57.41 198.90 C 55.93 195.78 54.17 192.76 51.73 190.27 C 48.06 186.55 45.30 182.06 41.82 178.18 C 37.75 173.41 33.62 168.42 31.57 162.41 C 30.42 157.71 31.14 152.81 31.05 148.02 C 23.66 150.14 16.96 154.17 11.22 159.22 M 230.55 150.32 C 228.19 151.00 225.72 151.06 223.29 151.14 C 219.17 155.55 214.58 159.53 210.69 164.15 C 215.87 161.23 220.63 157.61 225.95 154.93 C 228.14 153.83 229.94 151.80 232.54 151.81 C 233.15 151.52 234.37 150.94 234.97 150.65 L 235.03 149.87 C 233.53 150.00 232.04 150.14 230.55 150.32 M 241.87 149.99 C 243.30 152.05 244.84 154.06 245.76 156.41 C 246.24 158.36 246.85 160.27 247.35 162.22 C 250.84 161.00 253.70 158.59 257.04 157.06 C 259.50 155.91 261.53 154.05 263.40 152.10 C 264.59 152.05 265.79 152.01 267.00 151.97 L 267.01 151.08 C 264.47 151.04 261.87 151.10 259.43 150.26 C 253.59 149.74 247.72 150.10 241.87 149.99 M 209.55 152.28 C 206.89 152.91 204.15 153.10 201.48 153.68 C 199.49 153.91 197.50 154.07 195.51 154.29 C 193.84 154.73 192.15 155.06 190.46 155.42 C 188.80 155.78 187.13 156.06 185.46 156.37 C 183.50 156.84 181.51 157.15 179.55 157.61 C 178.22 157.93 176.89 158.26 175.57 158.63 C 171.36 159.30 167.55 161.35 163.40 162.21 C 161.09 163.24 159.09 165.06 156.47 165.22 C 149.82 169.56 142.53 173.08 136.67 178.55 C 133.59 180.55 131.36 183.62 128.13 185.42 C 126.37 187.57 124.73 189.82 122.74 191.78 C 125.92 190.98 129.20 190.98 132.44 190.69 C 135.06 189.99 137.77 189.93 140.44 189.67 C 142.75 189.12 145.12 188.92 147.47 188.62 C 149.78 188.12 152.14 187.92 154.49 187.66 C 156.80 187.15 159.16 186.86 161.48 186.37 C 163.48 186.07 165.50 185.80 167.49 185.38 C 168.83 185.12 170.18 184.89 171.53 184.63 C 173.83 184.14 176.17 183.85 178.49 183.39 C 180.51 183.07 182.54 182.79 184.54 182.30 C 186.02 182.13 187.51 182.00 189.00 181.88 C 189.00 180.66 189.01 179.45 189.03 178.24 C 193.88 171.42 201.05 166.66 205.89 159.84 C 208.73 157.23 212.01 155.07 214.39 151.94 C 212.77 152.02 211.16 152.12 209.55 152.28 M 288.27 153.09 L 288.27 153.90 L 289.00 154.31 L 289.73 153.91 L 289.73 153.10 L 289.00 152.69 L 288.27 153.09 M 277.17 153.80 C 277.01 155.03 276.84 156.26 276.67 157.49 C 276.27 159.19 275.98 160.90 275.70 162.62 C 275.44 163.16 274.93 164.23 274.67 164.77 C 275.36 164.89 276.75 165.13 277.44 165.25 L 276.91 164.01 C 277.64 163.99 279.09 163.97 279.82 163.96 C 280.62 162.97 281.44 161.98 282.25 161.00 C 280.50 161.00 278.75 161.00 277.00 161.00 L 277.00 160.02 C 279.81 160.01 282.63 159.99 285.44 159.89 C 286.67 159.02 287.93 158.20 289.21 157.42 C 285.30 155.93 281.39 154.21 277.17 153.80 M 295.95 154.00 C 296.56 155.63 299.14 155.72 300.56 156.74 C 302.19 156.22 303.84 155.75 305.47 155.22 C 306.64 155.11 307.81 155.00 308.99 154.90 L 309.01 154.00 C 304.65 154.00 300.30 154.00 295.95 154.00 M 236.64 155.76 C 232.75 158.78 227.86 160.04 223.80 162.81 C 213.76 169.46 203.75 176.17 193.73 182.86 C 192.96 182.92 191.41 183.06 190.64 183.13 C 190.99 183.78 191.69 185.06 192.04 185.70 C 190.63 186.79 189.20 187.85 187.74 188.87 C 184.99 189.41 182.26 190.05 179.53 190.66 C 178.51 190.89 177.49 191.13 176.48 191.37 C 174.81 191.75 173.14 192.07 171.46 192.40 C 169.80 192.77 168.13 193.07 166.46 193.39 C 164.80 193.77 163.13 194.08 161.46 194.41 C 159.16 194.85 156.84 195.14 154.54 195.58 C 152.85 195.93 151.16 196.26 149.49 196.68 C 147.12 196.92 144.74 197.08 142.44 197.72 C 140.62 197.89 138.80 197.97 136.97 198.04 L 137.01 198.74 C 138.50 199.01 139.99 199.28 141.47 199.62 C 142.49 199.86 143.51 200.10 144.53 200.35 C 146.50 200.83 148.50 201.17 150.47 201.66 C 151.49 201.88 152.51 202.10 153.54 202.32 C 155.54 202.82 157.56 203.23 159.55 203.79 C 160.87 203.86 162.20 203.90 163.53 203.93 C 166.53 202.50 169.23 200.12 172.62 199.82 C 175.42 198.05 178.58 196.97 181.37 195.18 C 181.93 195.09 183.06 194.91 183.62 194.81 C 187.56 192.63 191.71 190.82 195.36 188.14 C 195.96 188.09 197.16 187.99 197.77 187.94 C 198.13 187.47 198.87 186.52 199.24 186.05 C 202.09 186.62 203.73 183.60 206.53 183.82 C 208.60 182.16 210.80 180.74 213.45 180.31 C 217.36 180.11 219.62 175.80 223.56 175.83 C 225.41 174.55 227.05 172.67 229.49 172.77 C 233.47 169.93 238.06 168.11 242.19 165.49 C 241.96 165.02 241.49 164.09 241.26 163.63 C 240.75 160.59 240.56 156.09 236.64 155.76 M 289.95 158.20 C 288.91 157.93 287.56 159.66 289.14 159.96 C 290.16 160.05 292.06 160.59 292.57 159.39 C 291.89 158.61 291.02 158.22 289.95 158.20 M 248.38 172.18 C 249.25 175.73 249.37 179.49 248.24 183.00 C 250.45 182.99 252.67 183.00 254.89 183.00 C 255.77 181.75 256.64 180.50 257.49 179.22 C 256.85 179.15 255.57 179.00 254.93 178.93 L 255.13 177.66 C 256.32 178.04 257.50 178.44 258.68 178.86 C 259.56 177.91 260.44 176.96 261.32 176.01 C 259.87 176.00 258.42 175.99 256.97 175.98 L 257.00 174.98 C 258.55 174.99 260.10 175.01 261.65 175.03 C 263.44 172.89 265.39 170.83 267.89 169.51 C 267.99 169.00 268.20 167.99 268.31 167.49 C 268.69 166.15 269.04 164.80 269.40 163.46 C 269.70 162.28 269.98 161.09 270.24 159.90 C 262.80 163.68 255.73 168.19 248.38 172.18 M 285.39 161.08 C 281.83 164.13 277.13 165.12 273.38 167.81 C 278.89 168.17 284.42 167.94 289.95 168.00 C 289.62 165.34 290.60 163.07 292.18 161.00 C 289.91 161.00 287.65 161.02 285.39 161.08 M 302.84 163.16 C 301.02 163.63 299.15 163.91 297.34 164.41 C 295.45 165.06 296.20 167.46 295.77 168.96 C 296.58 168.97 298.20 169.00 299.02 169.01 L 299.01 169.99 C 298.24 170.00 296.70 170.02 295.93 170.03 C 295.99 170.68 296.10 171.98 296.15 172.63 C 297.26 174.44 298.21 176.35 299.21 178.23 C 300.40 177.08 301.60 175.92 302.80 174.77 C 302.99 173.02 303.21 171.26 303.49 169.52 C 305.27 167.52 304.99 164.73 302.84 163.16 M 249.25 166.23 L 249.24 166.75 L 249.76 166.75 L 249.76 166.23 L 249.25 166.23 M 274.28 169.00 C 274.04 169.61 273.55 170.82 273.31 171.43 C 272.95 173.10 272.56 174.76 272.15 176.41 C 273.30 175.96 274.45 175.49 275.59 174.99 C 277.26 175.07 278.94 175.26 280.57 175.69 C 281.93 175.84 283.29 175.95 284.66 176.06 C 286.73 173.85 288.89 171.70 290.59 169.17 C 285.16 168.86 279.72 169.04 274.28 169.00 M 240.97 170.86 L 241.00 171.65 C 232.77 175.49 224.68 179.63 216.61 183.78 C 214.78 184.19 213.00 184.76 211.19 185.25 C 210.36 186.15 209.53 187.05 208.71 187.95 C 207.55 187.98 206.38 188.00 205.22 188.03 C 204.86 188.51 204.13 189.47 203.77 189.96 C 200.93 189.39 199.27 192.33 196.51 192.23 C 192.47 195.27 187.66 196.91 183.32 199.41 C 178.63 200.54 174.62 203.63 170.05 205.31 L 169.97 205.92 C 171.14 206.03 172.32 206.16 173.49 206.31 C 175.80 206.85 178.16 207.15 180.48 207.63 C 182.50 207.93 184.53 208.21 186.53 208.64 C 188.88 208.91 191.25 209.10 193.56 209.71 C 196.18 209.96 198.81 210.03 201.44 210.30 C 205.18 211.46 209.14 210.92 213.00 211.01 C 217.17 210.92 221.41 211.41 225.51 210.40 C 226.57 210.19 227.64 210.00 228.72 209.81 C 233.20 207.66 236.30 203.80 238.91 199.70 C 238.64 197.66 239.83 196.14 240.98 194.60 C 240.69 194.21 240.10 193.42 239.81 193.03 C 234.61 192.98 229.42 193.01 224.23 193.00 C 223.85 192.48 223.07 191.46 222.68 190.95 C 223.35 190.19 224.02 189.45 224.69 188.70 C 224.54 188.23 224.23 187.29 224.07 186.82 C 226.35 183.61 229.50 181.13 232.27 178.35 C 235.69 176.08 239.44 174.23 242.36 171.29 L 240.97 170.86 M 266.12 172.16 C 264.65 171.90 263.18 174.55 265.07 174.99 C 266.68 175.47 267.92 172.63 266.12 172.16 M 285.93 175.26 C 286.71 178.17 289.86 176.57 291.92 177.05 C 291.44 175.60 290.99 174.14 290.56 172.68 C 289.00 173.52 287.46 174.38 285.93 175.26 M 261.93 175.98 C 261.81 177.32 261.70 178.67 261.62 180.01 C 260.57 180.02 259.53 180.04 258.49 180.05 C 257.72 181.05 256.94 182.03 256.15 183.00 C 258.03 182.99 259.92 183.00 261.81 183.00 C 262.17 182.47 262.88 181.41 263.24 180.88 C 263.67 181.21 264.53 181.87 264.96 182.20 C 265.01 180.95 265.07 179.69 265.14 178.44 C 265.44 177.84 266.04 176.65 266.34 176.06 C 264.87 176.03 263.40 176.00 261.93 175.98 M 234.26 182.35 C 231.97 184.48 229.76 186.70 227.63 188.99 C 232.42 189.02 237.21 189.00 242.00 189.00 C 242.00 188.25 242.00 186.75 242.00 186.00 C 241.49 186.00 240.47 186.00 239.95 186.00 C 240.02 184.59 242.12 184.73 243.01 183.95 C 243.00 181.56 243.00 179.17 243.00 176.78 C 240.06 178.60 237.23 180.57 234.26 182.35 M 282.05 176.58 C 282.45 178.05 282.86 179.52 283.24 181.00 C 286.84 180.99 290.44 180.99 294.04 181.00 C 293.59 180.04 293.15 179.07 292.71 178.11 C 290.06 178.07 287.39 177.95 284.82 177.22 C 284.49 177.48 283.81 178.00 283.47 178.26 C 283.12 177.84 282.41 177.00 282.05 176.58 M 276.32 181.25 C 275.19 180.87 273.31 182.78 275.12 183.23 C 276.30 183.78 278.06 181.67 276.32 181.25 M 283.00 182.02 C 283.00 182.50 283.00 183.46 283.00 183.94 C 285.82 183.96 288.64 184.02 291.45 184.34 L 291.55 185.07 C 292.05 184.56 293.04 183.55 293.53 183.04 L 293.02 185.08 C 293.64 185.00 294.87 184.86 295.49 184.78 C 294.81 183.80 294.11 182.82 293.41 181.86 C 289.94 182.01 286.47 182.01 283.00 182.02 M 74.27 183.27 L 74.26 183.73 L 74.73 183.73 L 74.73 183.27 L 74.27 183.27 M 76.26 184.26 L 76.26 184.73 L 76.73 184.73 L 76.73 184.26 L 76.26 184.26 M 248.47 184.22 C 248.33 185.65 250.83 185.59 251.54 184.77 C 251.68 183.32 249.17 183.38 248.47 184.22 M 254.35 184.31 C 255.13 185.79 258.22 185.30 259.65 184.69 C 258.86 183.20 255.77 183.70 254.35 184.31 M 78.27 185.26 L 78.26 185.73 L 78.73 185.73 L 78.73 185.26 L 78.27 185.26 M 267.07 185.55 C 266.38 186.88 268.63 187.78 269.51 186.90 C 270.14 185.66 267.88 184.72 267.07 185.55 M 281.96 184.97 C 282.00 186.33 282.04 187.69 282.08 189.06 L 280.87 188.97 C 281.62 190.31 282.37 191.66 283.14 193.00 C 286.37 193.00 289.61 193.00 292.85 193.00 C 292.95 190.59 293.15 188.18 293.76 185.84 C 290.98 185.55 291.68 189.23 290.77 190.99 C 290.23 190.97 289.15 190.92 288.62 190.89 C 289.29 189.77 290.01 188.68 290.67 187.55 C 291.62 186.53 289.97 184.90 288.89 185.07 C 286.58 184.89 284.27 184.97 281.96 184.97 M 80.26 186.27 L 80.26 186.73 L 80.73 186.73 L 80.73 186.26 L 80.26 186.27 M 248.27 186.10 L 248.26 186.91 L 248.99 187.32 L 249.73 186.93 L 249.75 186.13 L 249.01 185.72 L 248.27 186.10 M 251.28 186.06 C 250.09 187.38 248.89 188.68 247.70 190.00 C 250.72 190.00 253.75 190.00 256.78 190.00 C 257.25 188.66 257.75 187.33 258.23 186.00 C 255.91 186.00 253.59 186.02 251.28 186.06 M 262.59 190.30 C 263.45 190.80 265.17 191.82 266.03 192.33 C 267.11 191.06 268.14 189.74 269.15 188.41 C 267.96 187.88 266.78 187.34 265.61 186.79 C 264.59 187.95 263.58 189.11 262.59 190.30 M 85.24 188.25 L 85.24 188.76 L 85.76 188.76 L 85.75 188.24 L 85.24 188.25 M 268.44 191.79 C 269.87 191.89 271.31 191.97 272.76 192.05 C 273.16 191.51 273.96 190.42 274.37 189.88 C 273.52 189.07 272.68 188.25 271.84 187.45 C 270.66 188.86 269.51 190.29 268.44 191.79 M 87.24 189.24 L 87.24 189.75 L 87.76 189.76 L 87.76 189.24 L 87.24 189.24 M 51.73 203.00 C 53.96 206.43 56.37 209.74 59.13 212.76 C 60.83 213.08 62.53 213.47 64.20 213.92 C 63.53 212.83 62.86 211.74 62.19 210.66 C 61.93 207.99 61.50 205.29 59.77 203.13 C 57.10 202.85 54.41 202.99 51.73 203.00 Z" />
<path fill="#000000" opacity="1.00" d=" M 87.55 14.27 C 93.18 13.97 98.93 13.49 104.50 14.59 C 105.84 14.86 107.18 15.10 108.53 15.36 C 109.96 15.71 111.40 16.01 112.85 16.31 C 116.82 17.32 120.95 16.99 125.00 17.01 C 129.14 16.97 133.30 17.16 137.43 16.73 C 141.36 15.32 145.66 16.68 149.59 15.25 C 151.21 15.13 152.83 15.06 154.45 15.03 C 155.74 16.43 158.67 16.86 157.99 19.29 C 156.40 18.21 154.83 17.11 153.33 15.90 C 152.04 16.15 150.74 16.43 149.47 16.76 C 146.17 17.02 142.86 16.97 139.57 17.27 C 134.18 18.77 128.51 17.68 123.00 18.02 C 117.78 18.34 112.63 17.41 107.53 16.43 C 105.83 16.06 104.13 15.70 102.46 15.23 C 97.83 14.88 93.17 14.83 88.55 15.27 C 85.91 15.94 83.19 16.11 80.52 16.58 C 79.51 16.85 78.49 17.11 77.48 17.38 C 76.10 17.71 74.71 17.99 73.32 18.26 C 71.78 19.22 70.26 20.18 68.39 20.20 C 65.82 21.67 63.10 22.88 60.63 24.51 C 56.50 26.86 54.29 31.84 49.63 33.41 C 52.68 29.59 56.01 25.83 60.24 23.29 C 62.78 22.19 65.09 20.68 67.37 19.15 C 70.41 19.25 72.37 16.33 75.52 16.74 C 76.86 16.31 78.21 15.92 79.56 15.51 C 82.22 15.10 84.93 14.96 87.55 14.27 Z" />
<path fill="#000000" opacity="1.00" d=" M 287.27 14.97 C 291.95 14.30 295.10 18.87 299.62 19.20 C 305.08 22.30 310.93 24.68 316.36 27.83 C 316.94 27.91 318.10 28.07 318.68 28.14 C 322.27 30.78 326.46 32.61 329.46 35.98 C 328.68 36.76 327.90 37.55 327.12 38.33 C 323.94 36.32 320.83 34.21 317.68 32.15 C 317.11 32.07 315.96 31.90 315.38 31.82 C 309.92 28.70 304.08 26.30 298.62 23.19 C 294.46 22.91 291.50 19.00 287.29 18.88 C 286.88 18.43 286.06 17.52 285.66 17.07 C 286.06 16.55 286.87 15.49 287.27 14.97 Z" />
<path fill="#000000" opacity="1.00" d=" M 81.53 20.24 C 87.86 19.78 94.21 20.01 100.54 20.09 C 101.15 20.41 102.37 21.06 102.98 21.38 L 102.90 22.36 C 101.76 21.97 100.62 21.57 99.50 21.15 C 93.85 20.92 88.17 20.83 82.53 21.24 C 80.22 21.84 77.85 22.15 75.52 22.66 C 70.91 23.09 67.22 26.21 63.25 28.31 C 60.77 30.74 58.40 33.31 55.59 35.38 C 56.69 31.91 59.83 29.79 62.26 27.31 C 66.23 25.20 69.91 22.09 74.52 21.66 C 76.85 21.15 79.22 20.84 81.53 20.24 Z" />
<path fill="#000000" opacity="1.00" d=" M 96.68 21.58 C 99.62 22.34 101.35 24.91 102.97 27.25 C 102.99 29.50 103.00 31.75 103.01 34.00 L 102.01 34.00 C 102.00 32.09 101.99 30.17 101.97 28.26 C 100.29 25.97 98.38 23.86 96.68 21.58 Z" />
<path fill="#000000" opacity="1.00" d=" M 138.43 22.71 C 141.70 21.62 145.18 21.98 148.56 22.12 C 152.03 24.09 155.75 25.63 158.93 28.07 C 159.03 28.68 159.24 29.90 159.34 30.50 C 159.70 31.99 159.99 33.50 160.28 35.00 L 159.32 35.00 C 158.98 33.83 158.63 32.67 158.25 31.52 C 158.18 30.91 158.03 29.69 157.96 29.08 C 154.75 26.63 151.00 25.10 147.54 23.08 C 145.22 23.01 142.89 23.03 140.57 23.25 C 137.33 24.26 133.88 23.91 130.56 24.46 C 129.01 24.95 127.45 25.42 125.91 25.93 C 125.94 25.49 126.01 24.59 126.04 24.15 C 127.18 23.99 128.32 23.82 129.46 23.63 C 132.40 22.91 135.43 22.97 138.43 22.71 Z" />
<path fill="#000000" opacity="1.00" d=" M 127.99 31.21 C 129.10 29.65 130.36 28.15 132.22 27.48 C 131.23 29.14 130.16 30.75 129.08 32.36 C 129.01 34.91 128.99 37.45 128.98 40.00 L 127.99 40.01 C 128.00 37.07 128.01 34.14 127.99 31.21 Z" />
<path fill="#000000" opacity="1.00" d=" M 75.53 33.25 C 79.82 32.88 84.18 32.71 88.44 33.48 C 90.51 34.08 92.53 34.84 94.67 35.17 C 98.73 37.79 103.05 40.31 106.02 44.22 C 106.02 44.86 106.02 46.14 106.02 46.78 C 104.11 49.65 101.06 51.34 98.28 53.23 C 97.36 52.56 96.46 51.87 95.57 51.17 C 91.21 50.68 87.98 46.86 83.50 46.58 C 78.58 45.61 73.45 45.71 68.51 46.52 C 67.51 46.84 66.50 47.16 65.49 47.48 C 63.82 47.75 62.14 47.93 60.46 48.07 C 59.31 47.28 58.15 46.52 57.00 45.76 C 56.41 41.99 60.25 39.75 62.25 37.04 C 62.88 37.02 64.13 36.98 64.75 36.96 C 65.12 36.50 65.86 35.58 66.23 35.12 C 66.80 35.00 67.93 34.77 68.50 34.66 C 70.84 34.15 73.21 33.85 75.53 33.25 M 85.00 37.09 C 84.97 38.25 84.93 39.41 84.88 40.57 C 84.57 41.15 83.95 42.31 83.64 42.89 C 85.31 42.97 86.97 43.04 88.64 43.12 C 91.74 45.10 95.10 46.61 98.55 47.84 C 99.42 47.09 100.28 46.34 101.14 45.60 C 98.75 42.90 95.73 41.01 92.65 39.18 C 90.05 38.72 87.54 37.84 85.00 37.09 M 64.28 41.01 C 63.43 41.97 62.57 42.92 61.72 43.87 C 63.41 43.46 65.10 43.09 66.81 42.77 C 67.17 42.33 67.88 41.44 68.23 41.00 C 66.92 41.00 65.60 41.00 64.28 41.01 Z" />
<path fill="#000000" opacity="1.00" d=" M 138.50 38.57 C 143.44 37.51 148.52 38.08 153.53 38.09 C 155.33 39.50 157.21 40.81 158.99 42.25 C 158.99 42.89 159.00 44.16 159.00 44.79 C 157.87 45.50 156.74 46.21 155.61 46.93 C 151.89 47.03 148.08 46.64 144.44 47.66 C 141.80 47.95 139.13 48.07 136.51 48.53 C 134.17 49.05 132.33 50.69 130.00 51.25 C 130.00 53.72 130.01 56.20 130.03 58.67 C 130.80 59.41 131.57 60.15 132.34 60.90 C 132.91 60.96 134.04 61.08 134.61 61.14 C 136.00 62.48 137.31 63.98 139.05 64.90 C 142.43 66.42 144.08 70.07 147.20 71.98 C 148.34 72.01 149.48 72.04 150.63 72.08 C 152.27 73.45 153.98 74.75 155.49 76.29 C 153.26 75.75 151.25 74.65 149.48 73.21 C 147.19 73.26 145.22 72.40 143.44 71.03 C 142.73 72.22 141.99 73.40 141.24 74.57 C 140.26 73.68 139.30 72.79 138.34 71.89 C 136.02 75.99 132.58 79.31 128.74 81.98 C 126.60 81.99 124.47 81.99 122.33 81.97 C 121.59 81.20 120.84 80.44 120.09 79.68 C 120.04 78.97 119.93 77.56 119.88 76.86 C 121.63 75.63 123.20 76.50 124.56 77.82 C 125.09 77.88 126.17 77.98 126.70 78.03 C 130.17 75.67 133.08 72.63 135.13 68.97 C 134.37 67.65 133.62 66.34 132.85 65.03 C 132.23 65.00 130.97 64.95 130.35 64.92 C 128.94 63.47 127.50 62.05 126.05 60.65 C 126.00 57.51 125.99 54.38 125.99 51.24 C 123.52 50.42 121.11 49.41 119.10 47.71 C 119.29 46.75 119.53 45.79 119.81 44.84 C 121.05 44.96 122.29 45.10 123.54 45.24 C 124.50 45.57 125.48 45.88 126.46 46.17 C 128.98 43.37 131.74 40.50 135.40 39.27 C 136.43 39.05 137.47 38.81 138.50 38.57 M 143.00 42.00 L 143.00 43.00 C 146.00 43.00 149.00 43.00 152.01 43.00 L 151.99 42.00 C 148.99 42.00 146.00 42.00 143.00 42.00 Z" />
<path fill="#000000" opacity="1.00" d=" M 50.48 42.73 C 51.95 42.33 53.44 42.01 54.93 41.69 L 54.96 42.90 C 54.34 42.99 53.09 43.17 52.47 43.26 C 51.33 43.63 50.18 43.98 49.03 44.31 L 48.96 45.00 C 50.31 45.00 51.66 45.00 53.01 45.00 L 52.99 46.04 C 51.48 45.99 49.97 45.95 48.45 45.88 C 47.28 45.18 45.37 44.95 45.98 43.13 C 47.48 43.00 48.98 42.88 50.48 42.73 Z" />
<path fill="#000000" opacity="1.00" d=" M 162.33 42.84 C 164.27 43.06 166.08 43.60 167.45 45.08 C 167.65 44.83 168.03 44.34 168.23 44.09 C 171.68 43.85 175.17 44.05 178.63 44.05 C 181.06 46.25 183.28 49.74 186.73 50.05 C 187.56 52.30 188.48 54.50 190.00 56.39 C 190.03 58.76 189.97 61.15 189.49 63.49 C 189.09 65.16 188.74 66.84 188.30 68.51 C 188.20 69.10 188.01 70.28 187.91 70.87 C 185.85 72.22 184.06 74.39 181.39 74.17 C 179.61 75.22 177.77 76.14 175.95 77.10 C 175.97 76.67 176.01 75.80 176.03 75.37 C 178.24 74.45 180.24 72.91 182.72 72.88 C 184.14 71.90 185.54 70.89 186.92 69.85 C 187.01 69.26 187.19 68.07 187.28 67.48 C 187.81 65.48 188.22 63.46 188.78 61.47 C 188.87 60.11 188.94 58.75 189.00 57.39 C 187.75 55.82 186.60 54.22 186.96 52.11 C 183.26 50.63 180.22 48.02 177.63 45.03 C 174.38 44.91 171.09 44.90 167.90 45.64 C 165.56 45.15 163.18 44.99 160.80 44.89 C 161.18 44.38 161.94 43.35 162.33 42.84 Z" />
<path fill="#000000" opacity="1.00" d=" M 18.30 46.17 C 24.72 42.80 32.07 44.29 39.00 44.00 L 39.00 45.01 C 33.84 45.12 28.61 44.55 23.50 45.52 C 22.98 45.70 21.94 46.07 21.42 46.25 C 20.89 46.52 19.84 47.04 19.31 47.31 C 17.85 49.88 16.45 52.49 14.04 54.31 C 14.18 59.71 13.39 65.21 14.63 70.53 C 14.50 75.11 18.49 78.30 22.42 79.82 C 23.03 79.88 24.24 79.98 24.84 80.04 C 25.19 80.60 25.88 81.74 26.23 82.31 C 24.66 81.68 23.10 81.05 21.43 80.76 C 17.45 79.37 13.51 76.07 13.63 71.53 C 12.33 65.55 13.24 59.37 13.04 53.31 C 15.51 51.50 16.89 48.81 18.30 46.17 Z" />
<path fill="#000000" opacity="1.00" d=" M 52.29 47.22 C 53.00 46.15 55.64 46.99 54.26 48.24 C 53.49 49.32 50.98 48.58 52.29 47.22 Z" />
<path fill="#000000" opacity="1.00" d=" M 30.43 48.11 C 34.80 47.94 39.17 47.96 43.55 48.08 C 45.59 49.90 47.73 51.57 50.63 51.13 C 55.23 54.52 61.00 55.55 66.60 54.92 C 70.07 52.93 73.86 51.34 76.40 48.10 C 76.98 48.07 78.14 48.00 78.72 47.97 C 79.13 48.50 79.95 49.57 80.36 50.11 C 79.01 51.51 77.68 52.94 76.25 54.26 C 74.06 56.34 71.12 57.29 68.60 58.89 C 62.58 58.95 55.77 60.01 50.62 56.14 C 49.55 56.03 48.48 55.93 47.40 55.82 C 45.22 54.94 43.36 53.50 41.51 52.09 C 38.48 51.98 35.45 51.98 32.42 52.09 C 30.44 53.13 28.34 54.13 26.78 55.78 C 25.35 57.90 24.49 60.35 22.99 62.43 C 23.01 64.47 23.14 66.51 23.53 68.52 C 23.88 71.16 26.49 72.92 26.04 75.71 C 25.47 76.15 24.32 77.02 23.75 77.46 C 22.48 75.94 21.26 74.38 20.13 72.75 C 18.87 68.76 18.81 64.54 19.10 60.40 C 20.30 58.45 21.24 56.35 22.40 54.38 C 24.31 51.48 27.37 49.60 30.43 48.11 Z" />
<path fill="#000000" opacity="1.00" d=" M 174.91 49.07 C 177.92 49.70 180.54 51.18 182.92 53.08 C 182.95 55.60 182.91 58.17 183.74 60.59 C 183.89 62.26 183.98 63.93 184.04 65.61 C 182.54 67.01 181.09 68.44 179.67 69.91 C 178.99 69.94 177.63 70.01 176.95 70.05 C 178.79 68.08 181.28 66.57 183.22 64.60 C 182.92 63.22 182.61 61.84 182.24 60.48 C 182.07 58.37 181.99 56.25 181.93 54.13 C 179.78 52.68 177.89 50.42 175.05 50.95 C 175.01 50.48 174.95 49.54 174.91 49.07 Z" />
<path fill="#000000" opacity="1.00" d=" M 163.35 53.07 C 167.07 52.97 170.79 52.96 174.51 53.10 C 175.95 54.22 177.46 55.26 178.97 56.28 C 178.98 56.90 178.99 58.13 179.00 58.75 C 178.49 59.14 177.47 59.93 176.96 60.32 C 175.45 59.27 173.95 58.22 172.51 57.08 C 170.12 57.02 167.74 57.01 165.35 57.04 C 164.35 57.73 163.35 58.42 162.36 59.12 C 161.94 60.40 161.81 61.89 160.76 62.86 C 157.68 63.28 154.52 63.11 151.49 62.45 C 150.95 62.29 149.87 61.98 149.34 61.83 C 148.58 61.12 147.83 60.41 147.07 59.71 C 147.03 58.99 146.94 57.56 146.89 56.84 C 148.57 55.74 150.14 56.45 151.51 57.65 C 152.89 58.29 154.76 59.42 156.15 58.23 C 158.38 56.28 160.91 54.74 163.35 53.07 Z" />
<path fill="#000000" opacity="1.00" d=" M 37.25 56.20 C 37.67 55.82 38.53 55.06 38.96 54.68 C 39.46 55.07 40.47 55.84 40.97 56.23 C 40.99 57.33 41.02 58.44 41.04 59.54 C 42.94 60.48 44.78 61.52 46.51 62.73 C 51.35 63.95 55.49 67.26 60.13 68.93 C 62.35 68.79 63.64 71.16 65.85 71.12 C 69.69 72.37 73.51 73.77 77.47 74.68 C 77.99 74.84 79.02 75.15 79.53 75.31 C 81.17 75.79 82.82 76.21 84.47 76.68 C 84.98 76.86 86.01 77.21 86.53 77.39 C 90.45 77.75 93.56 80.24 97.47 80.63 C 98.49 80.88 99.50 81.13 100.52 81.38 C 102.19 81.76 103.87 82.07 105.55 82.40 C 107.87 82.86 110.23 83.15 112.53 83.74 C 115.49 83.99 118.47 84.00 121.43 84.28 C 126.64 85.66 132.13 84.96 137.45 84.74 C 139.44 84.21 141.48 83.92 143.51 83.59 C 145.21 83.24 146.93 82.98 148.65 82.72 C 151.90 80.88 155.44 79.58 158.60 77.57 C 160.56 76.20 162.14 74.39 163.83 72.72 C 163.98 72.17 164.29 71.06 164.45 70.51 C 165.05 67.79 165.05 64.99 165.07 62.22 C 165.55 61.84 166.51 61.08 166.99 60.71 C 167.49 61.09 168.49 61.85 168.98 62.23 C 168.99 64.04 169.00 65.86 169.01 67.68 C 169.99 68.12 170.96 68.57 171.93 69.03 C 172.03 70.18 172.13 71.34 172.24 72.50 C 172.79 74.49 173.22 76.52 173.80 78.51 C 173.97 86.48 174.47 94.52 173.52 102.44 C 172.24 107.57 170.40 112.62 166.92 116.71 C 163.93 118.42 161.07 120.35 157.52 120.59 C 157.01 120.81 155.99 121.25 155.48 121.47 C 152.80 121.89 150.07 122.04 147.44 122.74 C 144.11 123.05 140.67 122.71 137.44 123.73 C 128.50 124.18 119.50 124.18 110.56 123.73 C 107.65 122.83 104.57 122.99 101.57 122.70 C 98.61 121.95 95.53 121.95 92.52 121.51 C 92.01 121.28 90.99 120.82 90.48 120.58 C 86.15 120.19 82.68 117.38 78.38 116.77 C 66.52 110.60 55.18 102.69 47.25 91.74 C 44.20 87.43 41.19 83.05 38.63 78.42 C 37.58 77.70 36.55 76.98 35.52 76.24 C 35.95 75.69 36.81 74.60 37.24 74.06 C 36.10 72.40 35.17 70.63 34.61 68.69 C 34.11 68.99 33.09 69.60 32.59 69.91 C 30.80 69.96 29.02 69.99 27.24 70.02 C 26.85 69.51 26.09 68.49 25.71 67.98 C 26.09 67.50 26.85 66.54 27.23 66.06 C 28.35 66.00 29.48 65.93 30.60 65.87 C 32.35 64.84 34.14 63.89 35.91 62.89 C 36.01 62.29 36.23 61.09 36.34 60.49 C 36.68 59.07 36.97 57.63 37.25 56.20 M 38.99 65.20 C 39.03 66.34 39.06 67.48 39.10 68.63 C 40.43 70.51 41.38 72.60 42.24 74.74 C 47.01 76.95 51.76 79.24 56.35 81.82 C 56.95 81.91 58.14 82.07 58.74 82.15 C 57.92 79.19 57.92 76.11 57.95 73.06 C 52.21 69.95 46.23 67.30 40.52 64.13 C 40.14 64.40 39.38 64.93 38.99 65.20 M 62.03 74.77 C 62.02 76.10 62.02 77.43 62.02 78.76 C 63.87 81.35 66.07 83.65 68.28 85.93 C 69.73 85.98 71.18 86.03 72.64 86.09 C 73.82 86.64 74.74 87.96 76.12 87.97 C 78.57 87.85 80.04 90.52 82.60 90.18 C 83.08 90.45 84.06 90.99 84.54 91.26 C 84.87 90.58 85.52 89.21 85.85 88.52 C 85.95 87.15 86.05 85.77 86.15 84.39 C 86.43 83.90 87.00 82.93 87.28 82.44 C 86.59 82.13 85.20 81.52 84.51 81.22 C 76.94 79.32 69.53 76.83 62.03 74.77 M 167.15 75.36 C 166.49 76.46 167.40 78.90 168.82 78.72 C 169.53 77.62 168.57 75.15 167.15 75.36 M 161.76 80.41 C 162.10 81.44 162.46 82.46 162.83 83.48 C 163.00 86.36 163.01 89.24 163.00 92.13 C 164.41 91.33 165.83 90.53 167.25 89.73 C 166.28 86.04 165.00 82.44 163.75 78.84 C 163.25 79.23 162.26 80.02 161.76 80.41 M 169.24 81.24 L 169.24 81.76 L 169.76 81.76 L 169.76 81.24 L 169.24 81.24 M 45.80 81.52 C 48.98 86.82 52.54 91.89 56.77 96.41 C 57.38 95.98 58.59 95.13 59.20 94.70 C 58.98 92.96 58.75 91.22 58.42 89.49 C 58.28 88.94 57.99 87.83 57.85 87.27 C 54.91 86.43 52.58 84.12 49.52 83.75 C 48.31 82.96 47.07 82.21 45.80 81.52 M 150.99 86.31 C 150.54 88.44 151.93 89.97 153.14 91.55 C 152.80 92.84 152.44 94.12 152.09 95.41 C 152.68 95.09 153.86 94.45 154.44 94.13 C 155.58 94.06 156.71 93.99 157.85 93.93 C 157.99 93.33 158.27 92.12 158.41 91.52 C 159.46 88.67 158.88 85.68 157.95 82.89 C 155.74 84.26 153.41 85.38 150.99 86.31 M 91.41 83.79 C 91.10 84.45 90.48 85.79 90.17 86.46 C 90.05 87.83 89.95 89.20 89.84 90.58 C 89.55 91.13 88.99 92.23 88.71 92.79 C 89.42 92.92 90.85 93.20 91.56 93.34 C 93.52 93.82 95.52 94.16 97.49 94.62 C 97.99 94.84 99.01 95.29 99.51 95.51 C 103.31 96.22 107.18 96.03 111.02 95.99 C 111.01 93.41 111.15 90.82 110.85 88.25 C 108.97 86.35 105.93 87.14 103.54 86.44 C 101.86 86.09 100.19 85.77 98.53 85.37 C 97.51 85.12 96.49 84.87 95.47 84.62 C 94.12 84.31 92.77 84.04 91.41 83.79 M 139.46 88.77 C 137.07 88.96 134.66 89.00 132.26 89.00 C 132.87 91.29 133.05 93.66 133.15 96.02 C 136.25 96.03 139.35 96.05 142.43 95.73 C 144.52 95.02 146.73 94.98 148.91 94.96 C 148.10 93.79 148.56 91.14 146.97 90.96 C 147.00 89.71 147.03 88.45 147.07 87.20 C 144.54 87.78 141.97 88.12 139.46 88.77 M 115.02 87.76 C 115.00 90.51 115.00 93.25 115.00 96.00 C 119.75 96.00 124.51 96.02 129.26 95.97 C 128.98 94.48 128.70 92.99 128.35 91.52 C 128.24 90.90 128.00 89.68 127.89 89.07 C 125.44 89.02 122.99 88.97 120.56 88.73 C 118.74 88.24 116.88 87.99 115.02 87.76 M 63.00 89.92 C 63.00 92.18 62.99 94.44 62.97 96.70 C 61.91 97.66 60.87 98.63 59.82 99.59 C 66.07 103.91 72.13 108.56 78.89 112.09 C 79.54 108.88 80.61 105.86 82.97 103.49 C 82.99 101.75 83.06 100.00 82.87 98.26 C 81.57 96.53 79.20 97.13 77.34 96.76 C 75.06 95.67 73.01 93.91 70.38 93.81 C 67.97 92.41 65.45 91.24 63.00 89.92 M 87.00 98.98 C 86.99 101.16 86.97 103.35 86.92 105.53 C 85.57 107.40 83.56 109.06 83.84 111.60 C 83.56 112.09 83.00 113.07 82.72 113.57 C 86.43 115.48 90.69 115.81 94.51 117.45 C 97.18 117.89 99.88 118.08 102.52 118.67 C 103.90 118.85 105.29 119.01 106.69 119.18 C 106.37 114.51 107.42 109.81 106.99 105.10 C 106.36 105.01 105.10 104.82 104.46 104.72 C 103.13 104.31 101.79 103.93 100.45 103.56 C 98.02 103.14 95.59 102.75 93.61 101.16 C 91.25 100.98 89.17 99.81 87.00 98.98 M 166.52 105.57 C 165.96 108.24 163.46 110.11 163.93 113.02 L 164.66 112.95 C 166.07 109.45 168.28 106.32 168.89 102.54 C 168.07 103.53 167.29 104.54 166.52 105.57 M 111.02 105.68 C 110.93 110.16 111.44 114.73 110.28 119.11 C 115.02 120.51 120.00 119.94 124.86 119.97 C 125.00 119.35 125.26 118.11 125.40 117.49 C 125.81 115.50 126.05 113.48 126.32 111.47 C 126.65 110.33 126.97 109.19 127.28 108.04 C 123.68 108.01 120.03 108.26 116.49 107.42 C 115.48 107.19 114.46 106.96 113.44 106.75 C 112.84 106.48 111.62 105.95 111.02 105.68 M 158.25 107.25 C 156.87 110.67 154.84 113.76 153.65 117.27 C 154.36 117.00 155.79 116.46 156.50 116.19 C 159.19 116.40 161.48 115.18 163.47 113.47 L 162.39 113.59 L 161.65 113.96 C 160.75 113.69 159.89 113.34 159.07 112.90 C 159.27 110.42 160.47 108.20 161.32 105.90 C 160.30 106.35 159.27 106.80 158.25 107.25 M 149.49 108.76 C 148.41 108.87 147.33 108.97 146.26 109.07 C 145.50 112.63 144.14 115.98 142.63 119.26 C 143.93 118.96 145.22 118.62 146.51 118.26 C 147.68 118.15 148.85 118.04 150.03 117.94 C 149.65 117.17 149.28 116.39 148.92 115.62 C 150.65 113.16 151.80 110.39 153.11 107.70 C 151.90 108.03 150.69 108.38 149.49 108.76 M 132.23 109.14 C 129.65 112.26 130.28 116.47 129.23 120.15 C 132.10 120.09 135.00 119.93 137.74 118.99 C 138.94 115.55 141.03 112.53 141.94 108.98 C 138.70 109.01 135.45 108.82 132.23 109.14 Z" />
<path fill="#000000" opacity="1.00" d=" M 87.91 62.98 C 88.44 62.99 89.49 63.01 90.01 63.02 C 90.01 64.22 90.00 65.43 90.00 66.64 C 89.38 66.96 88.15 67.60 87.54 67.91 C 82.65 68.20 77.65 67.42 72.87 68.77 C 72.91 68.33 73.00 67.45 73.04 67.01 C 77.53 66.98 82.02 67.04 86.51 66.91 C 87.19 66.56 88.56 65.86 89.24 65.51 C 88.80 64.66 88.35 63.82 87.91 62.98 Z" />
<path fill="#000000" opacity="1.00" d=" M 95.30 63.05 C 97.79 63.01 100.28 63.00 102.77 63.00 C 103.15 63.50 103.91 64.51 104.29 65.01 C 103.91 65.50 103.16 66.47 102.78 66.95 C 101.01 67.00 99.23 67.04 97.46 67.11 C 96.85 67.42 95.61 68.04 95.00 68.35 C 95.00 69.79 95.00 71.24 95.00 72.68 C 96.02 73.13 97.03 73.59 98.05 74.06 C 98.03 74.74 97.99 76.09 97.97 76.77 C 97.48 77.15 96.49 77.91 96.00 78.29 C 94.31 77.18 92.64 76.05 91.00 74.87 C 91.00 71.97 91.00 69.07 91.01 66.17 C 92.42 65.11 93.86 64.08 95.30 63.05 Z" />
<path fill="#000000" opacity="1.00" d=" M 101.26 70.16 C 104.66 69.72 108.16 69.83 111.52 70.57 C 112.07 70.71 113.18 71.00 113.74 71.14 C 114.13 71.59 114.90 72.49 115.29 72.94 C 114.89 73.51 114.10 74.65 113.70 75.22 C 111.93 74.99 110.16 74.72 108.43 74.28 C 107.15 74.17 105.87 74.10 104.59 74.04 C 103.23 75.57 101.56 76.36 99.70 75.12 C 100.09 73.44 99.67 71.31 101.26 70.16 Z" />
<path fill="#000000" opacity="1.00" d=" M 44.45 112.79 C 49.36 113.87 53.26 117.13 57.65 119.36 C 61.11 120.99 64.44 122.90 68.01 124.31 L 67.84 124.97 C 68.54 125.01 69.93 125.07 70.62 125.10 C 72.86 126.35 74.97 128.11 77.64 128.15 C 79.92 130.14 82.95 130.11 85.57 131.43 C 87.53 131.85 89.51 132.19 91.47 132.67 C 92.11 132.78 93.38 133.00 94.02 133.11 L 93.78 133.85 C 96.03 133.97 98.28 134.10 100.49 134.53 C 101.50 134.82 102.51 135.11 103.53 135.40 C 105.85 135.85 108.20 136.15 110.51 136.69 C 111.69 136.83 112.87 136.97 114.05 137.11 L 113.81 138.00 C 115.90 137.99 117.99 137.99 120.08 137.99 L 119.79 139.00 C 124.70 139.22 129.77 138.31 134.57 139.74 C 143.22 140.27 151.92 139.95 160.59 139.91 C 165.10 137.29 169.56 134.58 173.99 131.83 C 173.99 129.88 174.00 127.93 174.00 125.99 L 175.00 126.00 C 175.00 128.27 175.00 130.55 174.99 132.82 C 170.56 135.58 166.10 138.29 161.59 140.91 C 154.73 141.11 147.86 140.93 141.00 141.03 C 138.13 141.04 135.18 141.22 132.43 140.25 C 128.66 139.86 124.85 140.22 121.10 139.73 C 116.88 139.06 112.67 138.35 108.52 137.36 C 106.51 137.06 104.50 136.81 102.51 136.42 C 101.50 136.15 100.49 135.89 99.48 135.64 C 94.49 134.65 89.57 133.35 84.57 132.44 C 82.88 131.75 81.21 131.00 79.37 130.85 C 77.83 129.82 76.31 128.75 74.38 128.83 C 71.55 127.11 68.58 125.64 65.40 124.69 C 60.75 122.34 55.98 120.21 51.55 117.45 C 49.16 115.94 46.34 115.01 44.45 112.79 Z" />
<path fill="#000000" opacity="1.00" d=" M 55.07 112.68 C 56.22 113.01 57.36 113.36 58.49 113.74 C 59.06 113.83 60.20 114.02 60.77 114.12 C 61.60 115.53 62.95 116.24 64.45 116.77 C 64.96 116.89 65.98 117.13 66.49 117.25 C 68.98 119.01 71.68 120.42 74.39 121.79 C 77.82 121.89 80.15 125.07 83.56 125.22 C 84.85 125.75 86.15 126.26 87.45 126.79 C 90.16 126.66 91.83 129.33 94.55 129.21 C 95.84 129.74 97.15 130.23 98.45 130.75 C 98.97 130.91 100.01 131.23 100.52 131.39 C 102.86 131.85 105.23 132.15 107.54 132.76 C 114.18 133.64 121.04 132.03 127.57 133.74 C 134.84 134.05 142.21 134.43 149.45 133.52 C 151.49 132.92 153.51 132.25 155.58 131.75 C 159.99 130.27 162.78 126.30 166.40 123.61 C 165.24 127.35 161.89 129.71 158.80 131.79 C 156.15 133.09 153.22 133.56 150.45 134.52 C 145.67 135.38 140.81 134.89 136.00 135.01 C 132.47 134.96 128.84 135.41 125.44 134.27 C 118.81 133.42 112.06 134.79 105.50 133.41 C 103.53 133.08 101.54 132.83 99.57 132.48 C 96.86 131.52 94.22 130.27 91.36 129.81 C 88.76 127.85 85.44 127.62 82.55 126.26 C 79.15 126.03 76.80 122.90 73.39 122.79 C 70.69 121.42 67.99 120.02 65.51 118.27 C 64.97 118.14 63.89 117.88 63.34 117.75 C 61.51 116.46 59.86 114.67 57.44 114.81 C 56.83 114.52 55.62 113.94 55.01 113.65 L 55.07 112.68 Z" />
<path fill="#000000" opacity="1.00" d=" M 109.99 128.00 C 121.00 128.00 132.00 128.00 143.00 128.00 L 143.00 129.00 C 132.00 129.00 121.00 129.00 110.00 129.00 L 109.99 128.00 Z" />
<path fill="#000000" opacity="1.00" d=" M 283.34 189.15 L 283.96 188.68 C 284.34 188.80 285.09 189.03 285.47 189.15 L 285.47 189.85 C 285.09 189.97 284.33 190.20 283.96 190.32 L 283.33 189.84 L 283.34 189.15 Z" />
</g>
<g id="#5154beff">
<path fill="#5154be" opacity="1.00" d=" M 44.60 146.08 C 52.64 145.59 60.81 146.84 68.77 145.18 C 71.42 147.89 74.47 150.41 75.99 153.98 C 77.34 157.30 79.20 160.38 80.46 163.74 C 80.76 164.11 81.37 164.83 81.68 165.19 C 82.08 168.16 82.77 171.08 83.73 173.92 C 83.35 176.06 82.99 178.21 82.63 180.36 C 71.09 175.99 60.62 168.81 52.12 159.87 C 48.42 156.04 46.27 151.06 44.60 146.08 Z" />
<path fill="#5154be" opacity="1.00" d=" M 35.08 148.24 C 35.45 147.91 36.21 147.25 36.59 146.92 C 39.16 153.13 43.19 158.52 47.00 164.00 C 54.49 176.17 65.42 186.28 78.40 192.35 C 74.14 196.74 67.93 197.59 62.22 198.72 C 60.40 193.95 57.42 189.77 53.82 186.18 C 50.10 181.57 46.53 176.84 42.64 172.36 C 39.92 168.94 37.39 165.27 35.82 161.17 C 34.40 157.02 35.06 152.54 35.08 148.24 Z" />
<path fill="#5154be" opacity="1.00" d=" M 11.22 159.22 C 16.96 154.17 23.66 150.14 31.05 148.02 C 31.14 152.81 30.42 157.71 31.57 162.41 C 33.62 168.42 37.75 173.41 41.82 178.18 C 45.30 182.06 48.06 186.55 51.73 190.27 C 54.17 192.76 55.93 195.78 57.41 198.90 C 46.28 198.86 35.08 199.66 24.01 198.11 C 19.62 197.83 15.21 196.82 11.38 194.60 C 7.72 192.33 5.51 188.19 5.10 183.96 C 4.59 178.35 5.08 172.67 6.26 167.18 C 6.91 164.03 8.86 161.33 11.22 159.22 Z" />
<path fill="#5154be" opacity="1.00" d=" M 74.27 183.27 L 74.73 183.27 L 74.73 183.73 L 74.26 183.73 L 74.27 183.27 Z" />
<path fill="#5154be" opacity="1.00" d=" M 76.26 184.26 L 76.73 184.26 L 76.73 184.73 L 76.26 184.73 L 76.26 184.26 Z" />
<path fill="#5154be" opacity="1.00" d=" M 78.27 185.26 L 78.73 185.26 L 78.73 185.73 L 78.26 185.73 L 78.27 185.26 Z" />
<path fill="#5154be" opacity="1.00" d=" M 80.26 186.27 L 80.73 186.26 L 80.73 186.73 L 80.26 186.73 L 80.26 186.27 Z" />
</g>
</svg>
