<?xml version="1.0" encoding="UTF-8" ?>
<!DOCTYPE svg PUBLIC "-//W3C//DTD SVG 1.1//EN" "http://www.w3.org/Graphics/SVG/1.1/DTD/svg11.dtd">
<svg width="469pt" height="428pt" viewBox="0 0 469 428" version="1.1" xmlns="http://www.w3.org/2000/svg">
<path fill="#ffffff" opacity="1.00" d=" M 0.00 0.00 L 469.00 0.00 L 469.00 428.00 L 0.00 428.00 L 0.00 0.00 M 173.06 48.10 C 163.47 49.97 153.57 48.01 143.97 49.89 C 138.95 50.04 133.81 50.41 128.91 49.08 C 122.11 48.95 114.83 48.19 108.64 51.63 C 100.64 55.90 93.47 61.68 87.24 68.25 C 81.50 75.25 75.28 82.07 71.31 90.32 C 65.97 102.36 62.86 115.84 53.87 125.88 C 51.13 129.73 47.76 133.17 43.85 135.83 C 40.75 138.40 38.28 141.67 34.85 143.86 C 24.93 152.98 14.42 163.26 12.17 177.20 C 12.19 182.97 9.80 188.68 11.55 194.43 C 12.19 203.79 15.74 213.00 21.75 220.23 C 28.64 229.25 37.58 236.43 45.16 244.84 C 45.91 245.79 46.53 246.85 47.21 247.86 C 48.53 248.08 50.08 247.80 51.18 248.74 C 54.89 251.49 59.28 253.11 62.68 256.31 C 65.51 259.24 69.98 259.37 72.84 262.21 C 74.58 263.67 76.98 263.86 78.80 265.18 C 83.42 268.26 87.98 271.44 92.80 274.19 C 98.08 278.26 104.58 280.20 110.04 283.97 C 114.68 286.43 119.35 288.91 124.31 290.69 C 129.97 293.30 135.37 296.47 141.13 298.88 C 160.15 307.02 178.41 316.88 197.00 325.99 C 206.59 331.17 217.05 334.81 227.89 336.14 C 240.98 338.46 254.15 340.48 266.99 344.01 C 280.43 346.94 293.95 349.62 307.58 351.43 C 311.68 352.47 316.01 351.56 320.07 352.93 C 329.05 353.10 338.03 352.98 347.01 352.99 C 358.35 351.32 370.08 349.85 380.34 344.35 C 389.25 340.28 397.69 334.47 403.28 326.29 C 406.63 321.79 409.94 317.14 411.94 311.85 C 412.09 303.90 411.99 295.94 411.99 287.99 C 410.75 281.41 410.38 274.49 411.90 267.92 C 412.32 264.94 411.32 261.68 412.99 258.98 C 416.42 251.12 420.26 243.45 423.43 235.47 C 426.58 232.09 427.65 227.54 429.39 223.39 C 432.98 215.41 437.55 207.88 440.73 199.72 C 447.10 186.39 449.35 170.55 444.67 156.35 C 439.80 145.53 429.01 139.23 422.13 129.90 C 416.89 124.19 413.56 116.98 411.38 109.61 C 410.35 105.26 411.61 100.68 410.73 96.33 C 408.37 91.23 403.13 88.49 399.15 84.82 C 388.07 76.89 375.78 70.87 363.14 65.88 C 340.02 57.72 315.75 52.95 291.41 50.58 C 287.57 49.35 283.43 50.67 279.60 49.39 C 275.06 48.35 270.26 49.77 265.78 48.21 C 255.23 47.28 244.44 49.14 234.01 47.00 C 223.36 47.04 212.69 46.86 202.04 47.09 C 192.45 48.43 182.72 47.80 173.06 48.10 Z" />
<path fill="#030303" opacity="1.00" d=" M 173.06 48.10 C 182.72 47.80 192.45 48.43 202.04 47.09 C 212.69 46.86 223.36 47.04 234.01 47.00 C 244.44 49.14 255.23 47.28 265.78 48.21 C 270.26 49.77 275.06 48.35 279.60 49.39 C 283.43 50.67 287.57 49.35 291.41 50.58 C 315.75 52.95 340.02 57.72 363.14 65.88 C 375.78 70.87 388.07 76.89 399.15 84.82 C 403.13 88.49 408.37 91.23 410.73 96.33 C 411.61 100.68 410.35 105.26 411.38 109.61 C 413.56 116.98 416.89 124.19 422.13 129.90 C 429.01 139.23 439.80 145.53 444.67 156.35 C 449.35 170.55 447.10 186.39 440.73 199.72 C 437.55 207.88 432.98 215.41 429.39 223.39 C 427.65 227.54 426.58 232.09 423.43 235.47 C 420.26 243.45 416.42 251.12 412.99 258.98 C 411.32 261.68 412.32 264.94 411.90 267.92 C 410.38 274.49 410.75 281.41 411.99 287.99 C 411.99 295.94 412.09 303.90 411.94 311.85 C 409.94 317.14 406.63 321.79 403.28 326.29 C 397.69 334.47 389.25 340.28 380.34 344.35 C 370.08 349.85 358.35 351.32 347.01 352.99 C 338.03 352.98 329.05 353.10 320.07 352.93 C 316.01 351.56 311.68 352.47 307.58 351.43 C 293.95 349.62 280.43 346.94 266.99 344.01 C 254.15 340.48 240.98 338.46 227.89 336.14 C 217.05 334.81 206.59 331.17 197.00 325.99 C 178.41 316.88 160.15 307.02 141.13 298.88 C 135.37 296.47 129.97 293.30 124.31 290.69 C 119.35 288.91 114.68 286.43 110.04 283.97 C 104.58 280.20 98.08 278.26 92.80 274.19 C 87.98 271.44 83.42 268.26 78.80 265.18 C 76.98 263.86 74.58 263.67 72.84 262.21 C 69.98 259.37 65.51 259.24 62.68 256.31 C 59.28 253.11 54.89 251.49 51.18 248.74 C 50.08 247.80 48.53 248.08 47.21 247.86 C 46.53 246.85 45.91 245.79 45.16 244.84 C 37.58 236.43 28.64 229.25 21.75 220.23 C 15.74 213.00 12.19 203.79 11.55 194.43 C 9.80 188.68 12.19 182.97 12.17 177.20 C 14.42 163.26 24.93 152.98 34.85 143.86 C 38.28 141.67 40.75 138.40 43.85 135.83 C 47.76 133.17 51.13 129.73 53.87 125.88 C 62.86 115.84 65.97 102.36 71.31 90.32 C 75.28 82.07 81.50 75.25 87.24 68.25 C 93.47 61.68 100.64 55.90 108.64 51.63 C 114.83 48.19 122.11 48.95 128.91 49.08 C 133.81 50.41 138.95 50.04 143.97 49.89 C 153.57 48.01 163.47 49.97 173.06 48.10 M 126.97 57.96 C 118.19 57.87 109.87 61.80 102.85 66.80 C 98.61 70.92 93.96 74.80 91.01 80.00 C 82.35 92.34 76.62 106.36 69.69 119.67 C 66.71 126.38 62.12 132.14 57.80 138.02 C 61.46 137.95 65.14 138.26 68.78 137.78 C 73.97 136.25 80.02 136.62 84.42 140.03 C 80.89 140.12 77.56 138.54 73.99 138.95 C 62.26 139.47 50.39 142.78 40.83 149.80 C 37.68 152.66 34.78 155.78 31.74 158.75 C 24.77 167.20 20.67 178.03 20.97 189.03 C 21.76 198.69 25.07 208.24 31.15 215.87 C 35.27 222.02 41.69 226.04 46.23 231.81 C 49.34 236.09 54.39 238.21 58.20 241.76 C 60.61 244.14 63.30 246.40 66.60 247.42 C 71.87 249.45 76.64 252.51 81.03 256.00 C 88.10 258.25 93.47 263.63 99.96 267.03 C 112.14 274.59 125.24 280.49 138.00 286.98 C 143.69 289.01 148.91 292.05 154.33 294.67 C 164.09 298.54 173.20 303.83 182.68 308.31 C 192.64 313.92 202.79 319.32 213.40 323.63 C 217.56 324.75 221.90 323.66 226.04 322.98 C 233.84 323.02 241.06 326.36 248.39 328.61 C 265.46 335.60 283.81 338.67 302.00 341.00 C 306.30 341.53 310.55 342.34 314.93 342.10 C 322.48 343.83 330.32 342.64 338.01 343.01 C 342.72 343.45 347.20 341.69 351.90 341.87 C 363.08 339.88 374.68 337.71 384.32 331.33 C 389.23 328.80 393.04 324.71 396.64 320.61 C 399.11 315.06 403.93 309.36 402.07 302.96 C 401.53 294.30 402.94 285.46 400.98 276.96 C 401.72 268.34 404.14 259.97 406.82 251.79 C 406.61 247.36 409.32 243.73 410.70 239.70 C 412.46 235.60 417.70 232.08 415.38 227.14 C 418.04 223.59 418.84 219.09 421.56 215.56 C 426.71 206.17 434.36 197.65 435.63 186.61 C 436.56 177.13 436.52 166.86 431.68 158.33 C 427.91 149.94 420.34 144.34 414.29 137.70 C 410.06 132.28 405.54 126.58 404.39 119.60 C 403.71 114.51 401.89 109.21 403.74 104.15 C 399.08 99.84 394.85 95.09 390.17 90.82 C 385.55 87.79 381.34 84.15 376.42 81.58 C 359.75 71.26 339.75 66.44 320.23 68.23 C 316.40 69.60 312.28 68.52 308.38 69.38 C 304.25 70.64 299.86 69.49 295.68 70.44 C 290.08 70.04 284.31 71.98 278.79 70.20 C 260.57 69.11 242.63 65.21 224.45 63.71 C 218.04 62.45 211.48 63.20 204.99 62.96 C 199.86 62.65 194.91 64.17 189.87 64.88 C 183.62 65.51 177.79 68.00 171.86 69.87 C 151.72 77.22 134.42 90.16 116.34 101.31 C 112.89 102.62 110.25 105.71 106.50 106.17 C 117.21 98.68 127.16 90.14 138.31 83.30 C 148.55 76.69 159.41 71.07 170.86 66.87 C 179.03 64.00 187.59 62.51 196.10 61.11 C 203.64 60.73 211.20 59.31 218.77 60.20 C 222.86 61.64 227.27 60.42 231.40 61.59 C 234.08 62.32 236.92 61.66 239.60 62.39 C 242.74 63.33 246.11 62.70 249.23 63.78 C 260.18 64.51 270.93 67.17 281.94 67.07 C 285.88 68.12 289.95 68.13 294.00 68.00 C 299.71 67.79 305.52 68.62 311.11 67.13 C 314.36 67.11 317.63 66.76 320.52 65.15 C 307.04 64.22 293.73 61.36 280.21 60.77 C 276.11 59.42 271.72 60.59 267.60 59.42 C 264.19 58.58 260.65 59.34 257.21 58.81 C 250.94 56.86 244.18 59.17 237.92 57.07 C 229.58 57.10 221.25 57.02 212.95 56.10 C 196.30 55.95 179.64 56.05 162.99 56.00 C 151.18 58.55 138.82 55.49 126.97 57.96 Z" />
<path fill="#ffffff" opacity="1.00" d=" M 126.97 57.96 C 138.82 55.49 151.18 58.55 162.99 56.00 C 179.64 56.05 196.30 55.95 212.95 56.10 C 221.25 57.02 229.58 57.10 237.92 57.07 C 244.18 59.17 250.94 56.86 257.21 58.81 C 260.65 59.34 264.19 58.58 267.60 59.42 C 271.72 60.59 276.11 59.42 280.21 60.77 C 293.73 61.36 307.04 64.22 320.52 65.15 C 317.63 66.76 314.36 67.11 311.11 67.13 C 305.52 68.62 299.71 67.79 294.00 68.00 C 289.95 68.13 285.88 68.12 281.94 67.07 C 270.93 67.17 260.18 64.51 249.23 63.78 C 246.11 62.70 242.74 63.33 239.60 62.39 C 236.92 61.66 234.08 62.32 231.40 61.59 C 227.27 60.42 222.86 61.64 218.77 60.20 C 211.20 59.31 203.64 60.73 196.10 61.11 C 187.59 62.51 179.03 64.00 170.86 66.87 C 159.41 71.07 148.55 76.69 138.31 83.30 C 127.16 90.14 117.21 98.68 106.50 106.17 C 110.25 105.71 112.89 102.62 116.34 101.31 C 134.42 90.16 151.72 77.22 171.86 69.87 C 177.79 68.00 183.62 65.51 189.87 64.88 C 194.91 64.17 199.86 62.65 204.99 62.96 C 211.48 63.20 218.04 62.45 224.45 63.71 C 242.63 65.21 260.57 69.11 278.79 70.20 C 284.31 71.98 290.08 70.04 295.68 70.44 C 299.86 69.49 304.25 70.64 308.38 69.38 C 312.28 68.52 316.40 69.60 320.23 68.23 C 339.75 66.44 359.75 71.26 376.42 81.58 C 381.34 84.15 385.55 87.79 390.17 90.82 C 394.85 95.09 399.08 99.84 403.74 104.15 C 401.89 109.21 403.71 114.51 404.39 119.60 C 405.54 126.58 410.06 132.28 414.29 137.70 C 420.34 144.34 427.91 149.94 431.68 158.33 C 436.52 166.86 436.56 177.13 435.63 186.61 C 434.36 197.65 426.71 206.17 421.56 215.56 C 418.84 219.09 418.04 223.59 415.38 227.14 C 417.70 232.08 412.46 235.60 410.70 239.70 C 409.32 243.73 406.61 247.36 406.82 251.79 C 404.14 259.97 401.72 268.34 400.98 276.96 C 402.94 285.46 401.53 294.30 402.07 302.96 C 403.93 309.36 399.11 315.06 396.64 320.61 C 393.04 324.71 389.23 328.80 384.32 331.33 C 374.68 337.71 363.08 339.88 351.90 341.87 C 347.20 341.69 342.72 343.45 338.01 343.01 C 330.32 342.64 322.48 343.83 314.93 342.10 C 310.55 342.34 306.30 341.53 302.00 341.00 C 283.81 338.67 265.46 335.60 248.39 328.61 C 241.06 326.36 233.84 323.02 226.04 322.98 C 221.90 323.66 217.56 324.75 213.40 323.63 C 202.79 319.32 192.64 313.92 182.68 308.31 C 173.20 303.83 164.09 298.54 154.33 294.67 C 148.91 292.05 143.69 289.01 138.00 286.98 C 125.24 280.49 112.14 274.59 99.96 267.03 C 93.47 263.63 88.10 258.25 81.03 256.00 C 76.64 252.51 71.87 249.45 66.60 247.42 C 63.30 246.40 60.61 244.14 58.20 241.76 C 54.39 238.21 49.34 236.09 46.23 231.81 C 41.69 226.04 35.27 222.02 31.15 215.87 C 25.07 208.24 21.76 198.69 20.97 189.03 C 20.67 178.03 24.77 167.20 31.74 158.75 C 34.78 155.78 37.68 152.66 40.83 149.80 C 50.39 142.78 62.26 139.47 73.99 138.95 C 77.56 138.54 80.89 140.12 84.42 140.03 C 80.02 136.62 73.97 136.25 68.78 137.78 C 65.14 138.26 61.46 137.95 57.80 138.02 C 62.12 132.14 66.71 126.38 69.69 119.67 C 76.62 106.36 82.35 92.34 91.01 80.00 C 93.96 74.80 98.61 70.92 102.85 66.80 C 109.87 61.80 118.19 57.87 126.97 57.96 M 194.57 75.56 C 180.05 77.67 165.89 82.24 152.79 88.79 C 139.85 95.74 128.16 104.99 118.65 116.21 C 119.13 116.10 120.10 115.89 120.58 115.78 C 134.60 102.56 151.58 92.60 169.42 85.42 C 180.89 81.25 192.89 78.49 204.99 77.06 C 208.58 77.21 212.18 76.76 215.71 76.52 C 218.97 77.95 222.16 75.22 225.36 76.58 C 229.38 77.57 233.58 76.43 237.61 77.37 C 251.43 79.50 264.85 85.06 279.04 83.99 C 282.67 84.66 286.28 84.13 289.85 84.73 C 296.62 82.93 303.76 84.92 310.59 83.59 C 314.49 82.38 318.66 83.61 322.60 82.62 C 326.08 81.70 329.77 82.36 333.23 81.23 C 339.33 81.24 345.53 78.59 351.55 80.26 C 354.51 82.69 357.52 85.32 361.30 86.34 C 358.41 81.82 353.84 78.60 348.63 77.35 C 338.10 75.61 327.75 78.88 317.42 80.42 C 313.39 81.42 309.16 80.62 305.16 81.80 C 301.88 80.61 298.34 80.83 294.99 81.59 C 289.03 80.23 282.82 81.86 276.92 80.11 C 270.54 80.29 264.45 77.93 258.10 77.88 C 250.51 76.58 242.92 75.15 235.23 74.78 C 230.27 73.34 225.07 74.18 219.99 74.01 C 215.08 74.23 210.12 73.61 205.24 74.23 C 201.78 75.39 198.06 74.60 194.57 75.56 M 191.01 89.00 C 175.90 90.56 160.90 94.94 147.83 102.79 C 145.35 105.35 141.86 106.85 139.95 109.97 C 137.80 112.84 135.43 115.77 134.77 119.40 C 138.04 115.79 140.23 111.12 144.56 108.57 C 157.71 98.20 174.45 94.01 190.74 91.74 C 195.14 90.36 199.84 91.68 204.24 90.25 C 213.11 89.70 222.04 90.18 230.93 90.02 L 230.92 89.02 C 226.89 89.04 222.82 89.24 218.91 88.08 C 212.93 87.85 206.94 88.09 200.96 87.98 C 197.57 87.71 194.39 89.25 191.01 89.00 M 289.94 98.08 C 289.96 98.85 290.00 100.40 290.02 101.17 C 295.03 100.85 299.49 98.20 304.41 97.40 C 310.77 95.56 317.44 96.24 323.90 95.02 C 327.47 96.20 331.22 95.97 334.94 96.05 C 342.70 97.60 350.50 100.23 356.74 105.27 C 360.61 108.47 362.35 113.36 365.00 117.48 C 365.42 112.94 362.95 108.90 361.03 104.98 C 359.43 101.83 356.04 100.40 353.02 98.97 C 339.82 93.59 325.37 92.07 311.24 93.21 C 304.21 95.12 296.39 94.46 289.94 98.08 M 223.57 94.03 C 227.53 96.86 231.20 100.17 233.35 104.64 C 235.92 108.27 234.77 112.82 235.01 116.95 C 235.51 116.95 236.49 116.96 236.98 116.96 C 236.96 113.92 236.82 110.83 237.77 107.90 C 236.20 102.60 232.68 97.87 228.61 94.18 C 226.95 93.87 225.24 94.00 223.57 94.03 M 298.50 105.74 C 297.68 107.73 296.79 109.75 295.21 111.28 C 293.05 113.09 293.74 116.07 293.34 118.54 C 292.46 123.20 294.64 127.76 293.31 132.42 C 294.21 131.91 295.11 131.40 296.02 130.87 C 296.06 126.85 296.23 122.78 295.01 118.89 C 294.54 113.68 300.53 111.47 302.17 107.02 C 300.96 106.54 299.74 106.11 298.50 105.74 M 166.58 108.58 C 158.16 110.31 150.36 114.28 143.75 119.71 C 139.47 123.90 136.53 129.16 134.89 134.90 C 136.57 138.65 141.34 139.28 144.92 140.21 C 144.95 140.84 145.03 142.10 145.06 142.73 C 148.31 144.05 151.51 145.57 154.40 147.59 C 157.67 149.73 161.51 150.65 165.17 151.86 C 168.96 151.96 172.74 152.07 176.37 153.31 C 170.83 157.11 165.79 161.70 159.86 164.88 C 153.63 167.92 146.66 166.87 139.99 166.98 C 124.73 165.21 113.35 152.49 98.02 151.00 C 91.74 151.27 85.26 150.11 79.19 152.18 C 65.81 155.34 53.75 165.22 49.42 178.44 C 46.21 188.23 47.95 199.57 54.19 207.82 C 56.14 211.10 59.08 213.57 61.75 216.24 C 63.90 211.98 63.15 207.08 61.02 202.99 C 59.27 197.80 56.43 192.66 56.99 187.02 C 57.62 181.31 59.55 175.71 63.19 171.19 C 65.08 167.40 69.18 165.79 72.39 163.37 C 79.85 159.23 88.59 159.93 96.81 160.07 C 100.59 161.77 103.32 165.29 107.31 166.70 C 115.81 171.61 125.61 173.04 135.08 174.92 C 141.07 175.12 147.06 174.95 153.05 175.00 C 160.34 174.52 167.41 172.31 173.80 168.81 C 179.36 165.66 182.76 159.29 183.19 153.00 C 191.77 152.95 200.35 153.12 208.93 152.93 C 212.85 151.77 216.92 152.00 220.95 151.95 C 223.79 151.98 226.53 148.97 229.17 151.10 C 232.88 147.33 238.00 145.40 241.79 141.77 C 243.24 139.49 245.33 137.00 245.03 134.16 C 240.91 123.02 230.06 116.58 219.59 112.39 C 210.76 109.16 201.48 106.54 192.00 106.99 C 183.50 107.21 174.85 106.14 166.58 108.58 M 317.74 129.74 C 313.49 130.80 308.94 130.94 304.99 132.96 C 302.92 133.89 301.87 136.81 299.35 136.60 C 297.53 139.35 294.16 140.51 292.08 143.03 C 291.04 144.35 289.98 145.66 288.70 146.76 C 286.38 146.94 284.30 145.08 281.94 145.04 C 279.65 144.92 277.36 145.00 275.07 144.99 C 274.16 146.75 272.42 148.84 274.29 150.62 C 277.37 156.19 285.19 154.54 288.82 159.32 C 289.29 166.45 288.79 173.63 289.05 180.78 C 294.24 186.33 302.42 187.81 307.25 193.77 C 308.57 195.54 310.05 198.23 308.24 200.19 C 303.71 208.31 297.38 216.62 287.98 219.09 C 284.66 218.86 282.68 215.56 279.77 214.28 C 278.35 214.69 277.08 215.48 275.78 216.14 C 276.61 218.31 277.18 220.60 278.30 222.65 C 280.16 224.85 282.22 226.89 284.39 228.78 C 287.16 230.05 290.37 229.30 292.99 228.00 C 298.34 224.48 302.92 219.93 307.16 215.14 C 309.82 211.22 313.42 207.56 317.88 205.86 C 320.16 207.11 321.96 210.10 324.76 209.92 C 326.50 207.86 326.97 205.10 328.15 202.73 C 333.20 203.64 337.14 207.18 341.65 209.35 C 345.01 211.11 348.71 212.07 352.31 213.22 C 352.17 212.77 351.91 211.87 351.78 211.42 C 343.61 207.45 335.57 203.17 328.27 197.74 C 318.00 189.98 308.03 181.82 298.02 173.74 C 298.11 168.26 297.76 162.76 298.18 157.29 C 298.45 156.99 298.99 156.38 299.26 156.07 C 302.15 156.39 304.56 158.75 307.39 159.62 C 321.19 164.73 337.01 167.70 351.13 162.14 C 357.09 159.89 361.47 154.51 363.14 148.43 C 358.54 147.24 356.89 142.29 353.16 139.80 C 348.65 136.93 343.88 134.49 339.55 131.34 C 332.47 129.56 324.98 127.81 317.74 129.74 M 108.79 139.83 C 109.12 147.12 118.78 148.40 124.16 145.88 C 123.81 145.39 123.09 144.42 122.74 143.94 C 120.49 145.12 116.39 145.02 115.66 142.20 C 120.04 141.71 125.27 141.62 128.40 138.05 C 121.68 136.92 115.48 142.45 108.79 139.83 M 368.56 143.88 C 372.37 144.07 376.24 144.24 379.99 143.40 C 384.68 144.63 389.62 143.26 394.27 144.74 C 400.51 145.68 406.42 148.07 411.97 151.02 C 416.83 153.64 420.42 157.92 424.21 161.82 C 429.18 169.33 431.13 178.72 429.62 187.60 C 428.59 192.09 428.05 196.79 426.03 200.97 C 420.32 207.08 410.81 206.52 404.34 211.40 C 403.18 212.81 402.94 214.61 402.85 216.38 C 407.81 213.72 412.65 210.64 418.15 209.14 C 422.53 207.37 427.90 205.60 429.64 200.69 C 432.36 192.10 434.42 182.82 432.12 173.89 C 431.53 168.95 428.78 164.71 426.68 160.31 C 425.01 156.56 421.41 154.24 418.77 151.24 C 414.80 146.76 409.04 144.72 403.95 141.86 C 400.50 143.51 396.64 142.93 392.96 143.01 C 386.55 143.30 380.45 140.40 374.03 140.96 C 371.85 140.97 370.04 142.44 368.56 143.88 M 65.09 143.10 C 57.16 144.53 48.87 147.16 43.38 153.38 C 40.74 157.16 37.07 161.18 37.13 165.98 C 38.97 164.15 39.50 161.22 41.18 159.18 C 44.73 153.28 50.88 149.63 57.09 147.09 C 63.82 144.68 71.03 145.17 77.98 144.03 C 82.09 143.41 86.76 145.16 90.49 143.08 C 85.65 143.49 80.89 141.51 76.15 142.75 C 72.51 141.17 68.86 143.45 65.09 143.10 M 125.24 148.92 C 124.25 150.20 123.27 151.48 122.53 152.92 C 125.22 152.43 127.72 151.42 129.30 149.07 C 127.95 149.01 126.59 148.96 125.24 148.92 M 399.74 153.89 C 401.90 160.41 410.82 159.42 414.02 164.97 C 418.13 171.07 414.54 178.78 416.62 185.45 C 417.94 188.47 415.38 191.36 413.18 193.16 C 410.07 195.09 407.77 198.02 404.70 200.00 C 408.39 200.56 411.96 199.07 414.80 196.79 C 418.12 193.26 417.96 188.31 418.95 183.88 C 419.62 180.18 417.66 176.71 418.01 173.02 C 418.30 169.33 416.59 165.88 416.90 162.18 C 411.78 158.27 405.66 156.24 399.74 153.89 M 383.37 162.35 C 372.13 164.33 360.20 167.74 352.10 176.29 C 348.87 174.39 345.93 172.02 342.63 170.23 C 340.39 169.28 338.05 170.48 335.94 171.20 C 336.39 173.34 336.64 175.51 337.24 177.62 C 338.78 179.48 340.51 181.19 342.37 182.72 C 350.61 185.48 359.35 185.05 367.92 185.01 C 367.63 180.40 369.71 175.08 374.28 173.28 C 376.86 171.46 380.08 172.06 383.04 171.99 C 391.62 171.83 399.64 175.89 408.19 176.08 C 407.10 173.23 406.71 169.83 404.28 167.72 C 398.73 162.62 390.67 160.96 383.37 162.35 M 34.05 182.05 C 35.28 187.35 34.58 192.84 35.84 198.13 C 36.12 202.76 37.47 207.23 38.20 211.80 C 38.73 213.49 38.68 215.60 40.23 216.76 C 44.53 219.94 49.10 222.78 53.97 225.02 C 56.55 226.61 59.70 226.03 62.56 225.88 C 55.36 224.01 47.73 221.01 43.56 214.44 C 37.79 206.47 37.40 196.34 36.03 187.01 C 35.96 183.00 35.94 178.99 36.03 174.99 C 36.07 172.31 37.59 169.72 36.83 167.03 C 34.07 171.38 35.74 177.21 34.05 182.05 M 91.16 166.96 C 91.52 172.94 88.77 178.58 85.16 183.17 C 78.45 188.76 69.79 191.61 63.97 198.31 C 64.72 199.19 65.48 200.07 66.23 200.96 C 71.19 201.21 76.40 200.90 81.00 198.99 C 85.81 195.44 91.45 193.08 95.83 188.95 C 101.45 190.92 107.57 191.89 112.43 195.58 C 119.67 199.34 126.55 203.78 134.12 206.90 C 139.45 209.41 144.68 212.61 150.60 213.41 C 157.52 215.70 164.78 216.83 171.63 219.35 C 181.09 221.71 190.16 225.64 199.81 227.15 C 200.34 227.99 200.90 228.82 201.46 229.65 C 206.32 231.54 211.41 232.80 216.59 233.42 C 224.02 234.45 231.27 236.58 238.75 237.24 C 246.16 238.72 253.68 239.41 261.09 240.90 C 267.13 240.85 273.04 242.19 278.99 242.99 C 287.63 242.97 296.28 243.11 304.92 242.92 C 320.12 240.33 335.43 238.48 350.58 235.61 C 356.67 233.19 361.40 228.46 366.56 224.58 C 372.12 220.03 377.76 215.57 383.42 211.14 C 387.95 213.50 392.15 216.44 396.89 218.40 C 395.49 212.16 393.31 206.14 390.69 200.32 C 388.76 196.88 386.28 193.66 385.15 189.83 C 385.09 186.47 384.78 183.13 383.78 179.91 C 381.94 180.25 379.24 179.16 378.30 181.33 C 376.73 185.10 376.96 189.24 376.15 193.18 C 375.84 197.87 376.42 202.89 374.23 207.19 C 370.67 211.40 365.88 214.30 361.41 217.41 C 346.09 227.00 328.17 232.03 310.24 233.24 C 305.60 234.53 300.74 233.82 296.00 233.99 C 290.08 233.83 284.12 234.31 278.23 233.78 C 274.45 232.51 270.40 233.51 266.60 232.41 C 252.68 230.79 238.83 228.16 225.20 224.80 C 187.80 215.62 151.54 202.20 116.40 186.59 C 110.35 183.54 103.87 181.38 98.04 177.88 C 98.08 174.12 98.44 170.08 95.89 166.97 C 94.31 166.97 92.74 166.97 91.16 166.96 M 210.00 192.29 C 210.09 196.79 209.74 201.31 210.15 205.81 C 211.39 210.48 213.42 215.95 218.40 217.70 C 220.97 218.75 223.58 217.16 226.10 216.72 C 225.97 214.77 226.26 212.63 225.02 210.96 C 222.94 207.72 219.12 205.73 217.96 201.86 C 217.97 199.89 218.82 198.05 219.20 196.14 C 223.01 194.85 226.95 193.73 231.01 194.01 C 233.94 194.24 236.68 193.06 239.29 191.88 C 239.05 188.69 236.84 185.91 233.78 185.11 C 225.32 183.77 215.96 185.81 210.00 192.29 M 203.80 185.98 C 204.58 187.01 205.48 187.98 206.12 189.12 C 206.09 192.29 202.37 193.29 199.84 193.88 C 191.92 194.23 183.97 193.83 176.05 194.03 C 174.62 194.06 173.34 194.78 171.99 195.18 C 171.97 195.88 171.92 197.27 171.89 197.97 C 174.19 197.13 176.47 195.91 178.98 196.00 C 186.61 195.93 194.25 196.13 201.88 195.95 C 206.37 195.04 208.67 190.30 208.11 186.03 C 206.67 186.01 205.23 185.99 203.80 185.98 M 232.29 202.21 C 229.12 205.33 231.20 210.44 232.17 214.17 C 235.71 211.42 240.21 209.55 244.75 210.17 C 249.05 211.57 253.61 210.84 258.05 211.05 C 260.20 211.23 262.24 210.51 264.22 209.77 C 263.74 205.14 258.85 202.52 254.88 201.08 C 251.88 201.06 248.89 200.93 246.01 200.04 C 241.49 201.06 236.86 201.43 232.29 202.21 M 90.55 251.97 C 94.06 255.62 99.00 257.18 103.20 259.81 C 153.88 288.16 210.91 304.24 268.41 310.61 C 271.80 311.46 275.34 310.63 278.77 311.20 C 284.07 312.91 289.77 311.13 295.07 312.93 C 309.05 313.09 323.04 312.98 337.02 312.98 C 346.27 311.65 355.82 310.52 364.36 306.37 C 371.53 303.03 378.22 297.88 381.76 290.63 C 382.02 287.71 382.16 284.78 382.98 281.95 C 383.73 279.92 381.51 279.24 380.11 278.56 C 379.88 282.92 380.00 287.28 379.98 291.65 C 373.39 298.95 364.07 302.95 354.88 305.89 C 345.20 308.95 335.04 309.80 325.06 311.00 C 313.40 310.94 301.73 311.09 290.07 310.93 C 285.91 309.53 281.51 310.27 277.23 309.78 C 273.46 308.43 269.39 309.51 265.58 308.42 C 219.91 303.41 175.42 289.50 133.84 270.14 C 129.63 268.60 126.02 265.82 121.88 264.12 C 111.93 259.11 101.94 252.75 90.55 251.97 M 113.48 252.02 C 117.00 253.83 120.80 255.01 124.42 256.60 C 140.44 263.05 155.46 271.67 171.13 278.88 C 188.35 286.55 206.19 293.48 224.97 296.05 C 234.51 297.98 244.31 296.52 253.97 297.09 L 253.93 296.04 C 249.88 295.90 245.72 296.42 241.78 295.21 C 226.31 294.41 210.82 291.39 196.38 285.63 C 179.54 279.57 163.65 271.32 147.67 263.32 C 136.57 258.82 125.63 252.77 113.48 252.02 M 351.02 284.03 C 340.29 291.64 327.09 294.48 314.27 296.26 C 310.43 297.44 306.39 296.79 302.45 297.11 C 303.92 297.88 305.50 298.49 307.13 298.85 C 312.72 298.20 318.36 297.96 324.01 297.98 C 330.64 297.05 337.27 295.77 343.65 293.67 C 348.26 291.63 352.59 288.67 355.66 284.63 C 357.47 281.42 359.07 278.06 359.92 274.46 C 357.31 277.95 354.68 281.54 351.02 284.03 M 238.43 284.88 C 246.29 285.27 254.17 284.86 262.03 284.98 C 271.55 286.12 281.25 286.15 290.92 285.93 C 294.87 284.80 298.97 284.86 303.04 284.98 C 303.03 284.45 303.01 283.38 302.99 282.85 C 301.47 283.25 299.96 284.29 298.37 283.58 C 295.71 282.37 293.05 284.87 290.39 283.61 C 287.96 282.58 285.50 284.25 283.01 284.04 C 280.34 284.36 277.85 282.58 275.20 283.17 C 272.19 283.91 269.08 283.76 266.02 284.03 C 262.62 284.35 259.45 282.69 256.05 283.00 C 250.17 283.32 243.82 281.81 238.43 284.88 M 304.19 283.10 C 304.40 286.34 307.27 281.57 304.19 283.10 M 260.52 296.51 C 268.75 299.09 277.44 297.65 285.92 298.02 L 285.93 297.03 C 279.95 296.90 273.97 297.11 267.99 297.00 C 265.47 297.08 262.94 295.10 260.52 296.51 M 300.17 297.17 C 299.64 298.79 300.20 299.35 301.83 298.84 C 302.34 297.20 301.79 296.65 300.17 297.17 Z" />
<path fill="#030303" opacity="1.00" d=" M 194.57 75.56 C 198.06 74.60 201.78 75.39 205.24 74.23 C 210.12 73.61 215.08 74.23 219.99 74.01 C 225.07 74.18 230.27 73.34 235.23 74.78 C 242.92 75.15 250.51 76.58 258.10 77.88 C 264.45 77.93 270.54 80.29 276.92 80.11 C 282.82 81.86 289.03 80.23 294.99 81.59 C 298.34 80.83 301.88 80.61 305.16 81.80 C 309.16 80.62 313.39 81.42 317.42 80.42 C 327.75 78.88 338.10 75.61 348.63 77.35 C 353.84 78.60 358.41 81.82 361.30 86.34 C 357.52 85.32 354.51 82.69 351.55 80.26 C 345.53 78.59 339.33 81.24 333.23 81.23 C 329.77 82.36 326.08 81.70 322.60 82.62 C 318.66 83.61 314.49 82.38 310.59 83.59 C 303.76 84.92 296.62 82.93 289.85 84.73 C 286.28 84.13 282.67 84.66 279.04 83.99 C 264.85 85.06 251.43 79.50 237.61 77.37 C 233.58 76.43 229.38 77.57 225.36 76.58 C 222.16 75.22 218.97 77.95 215.71 76.52 C 212.18 76.76 208.58 77.21 204.99 77.06 C 192.89 78.49 180.89 81.25 169.42 85.42 C 151.58 92.60 134.60 102.56 120.58 115.78 C 120.10 115.89 119.13 116.10 118.65 116.21 C 128.16 104.99 139.85 95.74 152.79 88.79 C 165.89 82.24 180.05 77.67 194.57 75.56 Z" />
<path fill="#030303" opacity="1.00" d=" M 191.01 89.00 C 194.39 89.25 197.57 87.71 200.96 87.98 C 206.94 88.09 212.93 87.85 218.91 88.08 C 222.82 89.24 226.89 89.04 230.92 89.02 L 230.93 90.02 C 222.04 90.18 213.11 89.70 204.24 90.25 C 199.84 91.68 195.14 90.36 190.74 91.74 C 174.45 94.01 157.71 98.20 144.56 108.57 C 140.23 111.12 138.04 115.79 134.77 119.40 C 135.43 115.77 137.80 112.84 139.95 109.97 C 141.86 106.85 145.35 105.35 147.83 102.79 C 160.90 94.94 175.90 90.56 191.01 89.00 Z" />
<path fill="#030303" opacity="1.00" d=" M 289.94 98.08 C 296.39 94.46 304.21 95.12 311.24 93.21 C 325.37 92.07 339.82 93.59 353.02 98.97 C 356.04 100.40 359.43 101.83 361.03 104.98 C 362.95 108.90 365.42 112.94 365.00 117.48 C 362.35 113.36 360.61 108.47 356.74 105.27 C 350.50 100.23 342.70 97.60 334.94 96.05 C 331.22 95.97 327.47 96.20 323.90 95.02 C 317.44 96.24 310.77 95.56 304.41 97.40 C 299.49 98.20 295.03 100.85 290.02 101.17 C 290.00 100.40 289.96 98.85 289.94 98.08 Z" />
<path fill="#030303" opacity="1.00" d=" M 223.57 94.03 C 225.24 94.00 226.95 93.87 228.61 94.18 C 232.68 97.87 236.20 102.60 237.77 107.90 C 236.82 110.83 236.96 113.92 236.98 116.96 C 236.49 116.96 235.51 116.95 235.01 116.95 C 234.77 112.82 235.92 108.27 233.35 104.64 C 231.20 100.17 227.53 96.86 223.57 94.03 Z" />
<path fill="#030303" opacity="1.00" d=" M 298.50 105.74 C 299.74 106.11 300.96 106.54 302.17 107.02 C 300.53 111.47 294.54 113.68 295.01 118.89 C 296.23 122.78 296.06 126.85 296.02 130.87 C 295.11 131.40 294.21 131.91 293.31 132.42 C 294.64 127.76 292.46 123.20 293.34 118.54 C 293.74 116.07 293.05 113.09 295.21 111.28 C 296.79 109.75 297.68 107.73 298.50 105.74 Z" />
<path fill="#030303" opacity="1.00" d=" M 166.58 108.58 C 174.85 106.14 183.50 107.21 192.00 106.99 C 201.48 106.54 210.76 109.16 219.59 112.39 C 230.06 116.58 240.91 123.02 245.03 134.16 C 245.33 137.00 243.24 139.49 241.79 141.77 C 238.00 145.40 232.88 147.33 229.17 151.10 C 226.53 148.97 223.79 151.98 220.95 151.95 C 216.92 152.00 212.85 151.77 208.93 152.93 C 200.35 153.12 191.77 152.95 183.19 153.00 C 182.76 159.29 179.36 165.66 173.80 168.81 C 167.41 172.31 160.34 174.52 153.05 175.00 C 147.06 174.95 141.07 175.12 135.08 174.92 C 125.61 173.04 115.81 171.61 107.31 166.70 C 103.32 165.29 100.59 161.77 96.81 160.07 C 88.59 159.93 79.85 159.23 72.39 163.37 C 69.18 165.79 65.08 167.40 63.19 171.19 C 59.55 175.71 57.62 181.31 56.99 187.02 C 56.43 192.66 59.27 197.80 61.02 202.99 C 63.15 207.08 63.90 211.98 61.75 216.24 C 59.08 213.57 56.14 211.10 54.19 207.82 C 47.95 199.57 46.21 188.23 49.42 178.44 C 53.75 165.22 65.81 155.34 79.19 152.18 C 85.26 150.11 91.74 151.27 98.02 151.00 C 113.35 152.49 124.73 165.21 139.99 166.98 C 146.66 166.87 153.63 167.92 159.86 164.88 C 165.79 161.70 170.83 157.11 176.37 153.31 C 172.74 152.07 168.96 151.96 165.17 151.86 C 161.51 150.65 157.67 149.73 154.40 147.59 C 151.51 145.57 148.31 144.05 145.06 142.73 C 145.03 142.10 144.95 140.84 144.92 140.21 C 141.34 139.28 136.57 138.65 134.89 134.90 C 136.53 129.16 139.47 123.90 143.75 119.71 C 150.36 114.28 158.16 110.31 166.58 108.58 M 198.22 115.74 C 198.25 118.74 197.46 121.61 196.39 124.38 C 195.05 131.17 197.19 138.38 195.23 145.06 C 200.28 145.24 205.27 144.95 210.17 143.64 C 215.61 144.37 221.14 143.09 226.24 141.24 C 228.75 140.99 231.21 139.15 232.03 136.83 C 232.03 130.48 226.27 126.52 221.35 123.64 C 213.95 120.21 206.13 117.70 198.22 115.74 M 147.25 128.39 C 146.96 130.23 146.85 132.11 146.30 133.90 C 151.03 135.21 155.23 137.89 159.96 139.21 C 160.37 134.13 159.35 129.04 160.03 124.00 C 155.45 123.69 149.90 124.04 147.25 128.39 Z" />
<path fill="#ffffff" opacity="1.00" d=" M 198.22 115.74 C 206.13 117.70 213.95 120.21 221.35 123.64 C 226.27 126.52 232.03 130.48 232.03 136.83 C 231.21 139.15 228.75 140.99 226.24 141.24 C 221.14 143.09 215.61 144.37 210.17 143.64 C 205.27 144.95 200.28 145.24 195.23 145.06 C 197.19 138.38 195.05 131.17 196.39 124.38 C 197.46 121.61 198.25 118.74 198.22 115.74 Z" />
<path fill="#ffffff" opacity="1.00" d=" M 147.25 128.39 C 149.90 124.04 155.45 123.69 160.03 124.00 C 159.35 129.04 160.37 134.13 159.96 139.21 C 155.23 137.89 151.03 135.21 146.30 133.90 C 146.85 132.11 146.96 130.23 147.25 128.39 Z" />
<path fill="#030303" opacity="1.00" d=" M 317.74 129.74 C 324.98 127.81 332.47 129.56 339.55 131.34 C 343.88 134.49 348.65 136.93 353.16 139.80 C 356.89 142.29 358.54 147.24 363.14 148.43 C 361.47 154.51 357.09 159.89 351.13 162.14 C 337.01 167.70 321.19 164.73 307.39 159.62 C 304.56 158.75 302.15 156.39 299.26 156.07 C 298.99 156.38 298.45 156.99 298.18 157.29 C 297.76 162.76 298.11 168.26 298.02 173.74 C 308.03 181.82 318.00 189.98 328.27 197.74 C 335.57 203.17 343.61 207.45 351.78 211.42 C 351.91 211.87 352.17 212.77 352.31 213.22 C 348.71 212.07 345.01 211.11 341.65 209.35 C 337.14 207.18 333.20 203.64 328.15 202.73 C 326.97 205.10 326.50 207.86 324.76 209.92 C 321.96 210.10 320.16 207.11 317.88 205.86 C 313.42 207.56 309.82 211.22 307.16 215.14 C 302.92 219.93 298.34 224.48 292.99 228.00 C 290.37 229.30 287.16 230.05 284.39 228.78 C 282.22 226.89 280.16 224.85 278.30 222.65 C 277.18 220.60 276.61 218.31 275.78 216.14 C 277.08 215.48 278.35 214.69 279.77 214.28 C 282.68 215.56 284.66 218.86 287.98 219.09 C 297.38 216.62 303.71 208.31 308.24 200.19 C 310.05 198.23 308.57 195.54 307.25 193.77 C 302.42 187.81 294.24 186.33 289.05 180.78 C 288.79 173.63 289.29 166.45 288.82 159.32 C 285.19 154.54 277.37 156.19 274.29 150.62 C 272.42 148.84 274.16 146.75 275.07 144.99 C 277.36 145.00 279.65 144.92 281.94 145.04 C 284.30 145.08 286.38 146.94 288.70 146.76 C 289.98 145.66 291.04 144.35 292.08 143.03 C 294.16 140.51 297.53 139.35 299.35 136.60 C 301.87 136.81 302.92 133.89 304.99 132.96 C 308.94 130.94 313.49 130.80 317.74 129.74 M 331.19 138.97 C 327.98 143.27 325.63 149.11 327.59 154.41 C 333.64 157.45 340.29 155.21 346.60 154.91 C 347.99 152.64 350.01 150.20 348.73 147.39 C 347.60 143.18 342.95 142.36 339.81 140.19 C 337.39 138.14 334.06 139.25 331.19 138.97 Z" />
<path fill="#030303" opacity="1.00" d=" M 108.79 139.83 C 115.48 142.45 121.68 136.92 128.40 138.05 C 125.27 141.62 120.04 141.71 115.66 142.20 C 116.39 145.02 120.49 145.12 122.74 143.94 C 123.09 144.42 123.81 145.39 124.16 145.88 C 118.78 148.40 109.12 147.12 108.79 139.83 Z" />
<path fill="#ffffff" opacity="1.00" d=" M 331.19 138.97 C 334.06 139.25 337.39 138.14 339.81 140.19 C 342.95 142.36 347.60 143.18 348.73 147.39 C 350.01 150.20 347.99 152.64 346.60 154.91 C 340.29 155.21 333.64 157.45 327.59 154.41 C 325.63 149.11 327.98 143.27 331.19 138.97 Z" />
<path fill="#030303" opacity="1.00" d=" M 368.56 143.88 C 370.04 142.44 371.85 140.97 374.03 140.96 C 380.45 140.40 386.55 143.30 392.96 143.01 C 396.64 142.93 400.50 143.51 403.95 141.86 C 409.04 144.72 414.80 146.76 418.77 151.24 C 421.41 154.24 425.01 156.56 426.68 160.31 C 428.78 164.71 431.53 168.95 432.12 173.89 C 434.42 182.82 432.36 192.10 429.64 200.69 C 427.90 205.60 422.53 207.37 418.15 209.14 C 412.65 210.64 407.81 213.72 402.85 216.38 C 402.94 214.61 403.18 212.81 404.34 211.40 C 410.81 206.52 420.32 207.08 426.03 200.97 C 428.05 196.79 428.59 192.09 429.62 187.60 C 431.13 178.72 429.18 169.33 424.21 161.82 C 420.42 157.92 416.83 153.64 411.97 151.02 C 406.42 148.07 400.51 145.68 394.27 144.74 C 389.62 143.26 384.68 144.63 379.99 143.40 C 376.24 144.24 372.37 144.07 368.56 143.88 Z" />
<path fill="#030303" opacity="1.00" d=" M 65.09 143.10 C 68.86 143.45 72.51 141.17 76.15 142.75 C 80.89 141.51 85.65 143.49 90.49 143.08 C 86.76 145.16 82.09 143.41 77.98 144.03 C 71.03 145.17 63.82 144.68 57.09 147.09 C 50.88 149.63 44.73 153.28 41.18 159.18 C 39.50 161.22 38.97 164.15 37.13 165.98 C 37.07 161.18 40.74 157.16 43.38 153.38 C 48.87 147.16 57.16 144.53 65.09 143.10 Z" />
<path fill="#030303" opacity="1.00" d=" M 125.24 148.92 C 126.59 148.96 127.95 149.01 129.30 149.07 C 127.72 151.42 125.22 152.43 122.53 152.92 C 123.27 151.48 124.25 150.20 125.24 148.92 Z" />
<path fill="#030303" opacity="1.00" d=" M 399.74 153.89 C 405.66 156.24 411.78 158.27 416.90 162.18 C 416.59 165.88 418.30 169.33 418.01 173.02 C 417.66 176.71 419.62 180.18 418.95 183.88 C 417.96 188.31 418.12 193.26 414.80 196.79 C 411.96 199.07 408.39 200.56 404.70 200.00 C 407.77 198.02 410.07 195.09 413.18 193.16 C 415.38 191.36 417.94 188.47 416.62 185.45 C 414.54 178.78 418.13 171.07 414.02 164.97 C 410.82 159.42 401.90 160.41 399.74 153.89 Z" />
<path fill="#030303" opacity="1.00" d=" M 383.37 162.35 C 390.67 160.96 398.73 162.62 404.28 167.72 C 406.71 169.83 407.10 173.23 408.19 176.08 C 399.64 175.89 391.62 171.83 383.04 171.99 C 380.08 172.06 376.86 171.46 374.28 173.28 C 369.71 175.08 367.63 180.40 367.92 185.01 C 359.35 185.05 350.61 185.48 342.37 182.72 C 340.51 181.19 338.78 179.48 337.24 177.62 C 336.64 175.51 336.39 173.34 335.94 171.20 C 338.05 170.48 340.39 169.28 342.63 170.23 C 345.93 172.02 348.87 174.39 352.10 176.29 C 360.20 167.74 372.13 164.33 383.37 162.35 Z" />
<path fill="#030303" opacity="1.00" d=" M 34.05 182.05 C 35.74 177.21 34.07 171.38 36.83 167.03 C 37.59 169.72 36.07 172.31 36.03 174.99 C 35.94 178.99 35.96 183.00 36.03 187.01 C 37.40 196.34 37.79 206.47 43.56 214.44 C 47.73 221.01 55.36 224.01 62.56 225.88 C 59.70 226.03 56.55 226.61 53.97 225.02 C 49.10 222.78 44.53 219.94 40.23 216.76 C 38.68 215.60 38.73 213.49 38.20 211.80 C 37.47 207.23 36.12 202.76 35.84 198.13 C 34.58 192.84 35.28 187.35 34.05 182.05 Z" />
<path fill="#030303" opacity="1.00" d=" M 91.16 166.96 C 92.74 166.97 94.31 166.97 95.89 166.97 C 98.44 170.08 98.08 174.12 98.04 177.88 C 103.87 181.38 110.35 183.54 116.40 186.59 C 151.54 202.20 187.80 215.62 225.20 224.80 C 238.83 228.16 252.68 230.79 266.60 232.41 C 270.40 233.51 274.45 232.51 278.23 233.78 C 284.12 234.31 290.08 233.83 296.00 233.99 C 300.74 233.82 305.60 234.53 310.24 233.24 C 328.17 232.03 346.09 227.00 361.41 217.41 C 365.88 214.30 370.67 211.40 374.23 207.19 C 376.42 202.89 375.84 197.87 376.15 193.18 C 376.96 189.24 376.73 185.10 378.30 181.33 C 379.24 179.16 381.94 180.25 383.78 179.91 C 384.78 183.13 385.09 186.47 385.15 189.83 C 386.28 193.66 388.76 196.88 390.69 200.32 C 393.31 206.14 395.49 212.16 396.89 218.40 C 392.15 216.44 387.95 213.50 383.42 211.14 C 377.76 215.57 372.12 220.03 366.56 224.58 C 361.40 228.46 356.67 233.19 350.58 235.61 C 335.43 238.48 320.12 240.33 304.92 242.92 C 296.28 243.11 287.63 242.97 278.99 242.99 C 273.04 242.19 267.13 240.85 261.09 240.90 C 253.68 239.41 246.16 238.72 238.75 237.24 C 231.27 236.58 224.02 234.45 216.59 233.42 C 211.41 232.80 206.32 231.54 201.46 229.65 C 200.90 228.82 200.34 227.99 199.81 227.15 C 190.16 225.64 181.09 221.71 171.63 219.35 C 164.78 216.83 157.52 215.70 150.60 213.41 C 144.68 212.61 139.45 209.41 134.12 206.90 C 126.55 203.78 119.67 199.34 112.43 195.58 C 107.57 191.89 101.45 190.92 95.83 188.95 C 91.45 193.08 85.81 195.44 81.00 198.99 C 76.40 200.90 71.19 201.21 66.23 200.96 C 65.48 200.07 64.72 199.19 63.97 198.31 C 69.79 191.61 78.45 188.76 85.16 183.17 C 88.77 178.58 91.52 172.94 91.16 166.96 Z" />
<path fill="#030303" opacity="1.00" d=" M 210.00 192.29 C 215.96 185.81 225.32 183.77 233.78 185.11 C 236.84 185.91 239.05 188.69 239.29 191.88 C 236.68 193.06 233.94 194.24 231.01 194.01 C 226.95 193.73 223.01 194.85 219.20 196.14 C 218.82 198.05 217.97 199.89 217.96 201.86 C 219.12 205.73 222.94 207.72 225.02 210.96 C 226.26 212.63 225.97 214.77 226.10 216.72 C 223.58 217.16 220.97 218.75 218.40 217.70 C 213.42 215.95 211.39 210.48 210.15 205.81 C 209.74 201.31 210.09 196.79 210.00 192.29 Z" />
<path fill="#030303" opacity="1.00" d=" M 203.80 185.98 C 205.23 185.99 206.67 186.01 208.11 186.03 C 208.67 190.30 206.37 195.04 201.88 195.95 C 194.25 196.13 186.61 195.93 178.98 196.00 C 176.47 195.91 174.19 197.13 171.89 197.97 C 171.92 197.27 171.97 195.88 171.99 195.18 C 173.34 194.78 174.62 194.06 176.05 194.03 C 183.97 193.83 191.92 194.23 199.84 193.88 C 202.37 193.29 206.09 192.29 206.12 189.12 C 205.48 187.98 204.58 187.01 203.80 185.98 Z" />
<path fill="#030303" opacity="1.00" d=" M 232.29 202.21 C 236.86 201.43 241.49 201.06 246.01 200.04 C 248.89 200.93 251.88 201.06 254.88 201.08 C 258.85 202.52 263.74 205.14 264.22 209.77 C 262.24 210.51 260.20 211.23 258.05 211.05 C 253.61 210.84 249.05 211.57 244.75 210.17 C 240.21 209.55 235.71 211.42 232.17 214.17 C 231.20 210.44 229.12 205.33 232.29 202.21 Z" />
<path fill="#030303" opacity="1.00" d=" M 90.55 251.97 C 101.94 252.75 111.93 259.11 121.88 264.12 C 126.02 265.82 129.63 268.60 133.84 270.14 C 175.42 289.50 219.91 303.41 265.58 308.42 C 269.39 309.51 273.46 308.43 277.23 309.78 C 281.51 310.27 285.91 309.53 290.07 310.93 C 301.73 311.09 313.40 310.94 325.06 311.00 C 335.04 309.80 345.20 308.95 354.88 305.89 C 364.07 302.95 373.39 298.95 379.98 291.65 C 380.00 287.28 379.88 282.92 380.11 278.56 C 381.51 279.24 383.73 279.92 382.98 281.95 C 382.16 284.78 382.02 287.71 381.76 290.63 C 378.22 297.88 371.53 303.03 364.36 306.37 C 355.82 310.52 346.27 311.65 337.02 312.98 C 323.04 312.98 309.05 313.09 295.07 312.93 C 289.77 311.13 284.07 312.91 278.77 311.20 C 275.34 310.63 271.80 311.46 268.41 310.61 C 210.91 304.24 153.88 288.16 103.20 259.81 C 99.00 257.18 94.06 255.62 90.55 251.97 Z" />
<path fill="#030303" opacity="1.00" d=" M 113.48 252.02 C 125.63 252.77 136.57 258.82 147.67 263.32 C 163.65 271.32 179.54 279.57 196.38 285.63 C 210.82 291.39 226.31 294.41 241.78 295.21 C 245.72 296.42 249.88 295.90 253.93 296.04 L 253.97 297.09 C 244.31 296.52 234.51 297.98 224.97 296.05 C 206.19 293.48 188.35 286.55 171.13 278.88 C 155.46 271.67 140.44 263.05 124.42 256.60 C 120.80 255.01 117.00 253.83 113.48 252.02 Z" />
<path fill="#030303" opacity="1.00" d=" M 351.02 284.03 C 354.68 281.54 357.31 277.95 359.92 274.46 C 359.07 278.06 357.47 281.42 355.66 284.63 C 352.59 288.67 348.26 291.63 343.65 293.67 C 337.27 295.77 330.64 297.05 324.01 297.98 C 318.36 297.96 312.72 298.20 307.13 298.85 C 305.50 298.49 303.92 297.88 302.45 297.11 C 306.39 296.79 310.43 297.44 314.27 296.26 C 327.09 294.48 340.29 291.64 351.02 284.03 Z" />
<path fill="#030303" opacity="1.00" d=" M 238.43 284.88 C 243.82 281.81 250.17 283.32 256.05 283.00 C 259.45 282.69 262.62 284.35 266.02 284.03 C 269.08 283.76 272.19 283.91 275.20 283.17 C 277.85 282.58 280.34 284.36 283.01 284.04 C 285.50 284.25 287.96 282.58 290.39 283.61 C 293.05 284.87 295.71 282.37 298.37 283.58 C 299.96 284.29 301.47 283.25 302.99 282.85 C 303.01 283.38 303.03 284.45 303.04 284.98 C 298.97 284.86 294.87 284.80 290.92 285.93 C 281.25 286.15 271.55 286.12 262.03 284.98 C 254.17 284.86 246.29 285.27 238.43 284.88 Z" />
<path fill="#030303" opacity="1.00" d=" M 304.19 283.10 C 307.27 281.57 304.40 286.34 304.19 283.10 Z" />
<path fill="#030303" opacity="1.00" d=" M 260.52 296.51 C 262.94 295.10 265.47 297.08 267.99 297.00 C 273.97 297.11 279.95 296.90 285.93 297.03 L 285.92 298.02 C 277.44 297.65 268.75 299.09 260.52 296.51 Z" />
<path fill="#030303" opacity="1.00" d=" M 300.17 297.17 C 301.79 296.65 302.34 297.20 301.83 298.84 C 300.20 299.35 299.64 298.79 300.17 297.17 Z" />
</svg>
