<?xml version="1.0" encoding="UTF-8" ?>
<!DOCTYPE svg PUBLIC "-//W3C//DTD SVG 1.1//EN" "http://www.w3.org/Graphics/SVG/1.1/DTD/svg11.dtd">
<svg width="406pt" height="451pt" viewBox="0 0 406 451" version="1.1" xmlns="http://www.w3.org/2000/svg">
<path fill="#ffffff" opacity="1.00" d=" M 0.00 0.00 L 406.00 0.00 L 406.00 451.00 L 0.00 451.00 L 0.00 0.00 M 180.84 28.77 C 174.28 30.90 170.67 37.55 164.67 40.62 C 157.28 41.75 150.26 38.91 143.32 36.86 C 140.87 35.96 138.36 37.08 135.92 37.36 C 118.24 38.38 102.25 47.78 89.17 59.18 C 83.43 64.80 77.94 70.81 73.76 77.72 C 67.52 87.56 60.82 97.20 55.87 107.78 C 51.66 114.75 50.02 122.83 47.89 130.59 C 46.99 136.68 46.59 142.84 45.80 148.95 C 45.62 160.93 45.83 172.92 45.71 184.91 C 45.31 189.96 43.51 194.86 43.71 199.98 C 44.33 216.54 41.38 233.38 34.58 248.52 C 31.61 254.11 27.34 258.98 24.96 264.90 C 21.47 274.11 18.89 283.72 18.36 293.59 C 21.84 295.75 21.47 300.24 23.41 303.45 C 24.97 306.42 27.09 310.02 30.93 309.87 C 28.67 306.82 25.62 304.25 24.41 300.54 C 23.38 297.38 22.52 294.17 21.51 291.00 C 20.54 283.83 23.44 276.96 25.31 270.17 C 27.25 263.26 31.58 257.44 35.39 251.48 C 42.46 238.47 44.50 223.54 46.19 209.04 C 46.40 204.69 46.13 200.34 46.28 195.99 C 46.39 190.92 48.49 186.09 48.28 181.00 C 48.50 164.34 47.30 147.56 49.91 131.03 C 51.99 123.69 53.63 116.08 57.41 109.37 C 62.88 97.68 70.40 87.13 77.25 76.23 C 86.66 62.34 100.19 51.49 115.39 44.49 C 123.83 40.99 132.97 39.32 142.00 38.68 C 149.47 40.80 157.00 44.12 164.93 43.15 C 169.84 40.60 173.37 36.07 177.73 32.74 C 180.52 30.74 183.95 30.03 187.17 29.05 C 193.40 27.63 199.62 26.04 205.98 25.40 C 220.69 25.05 235.99 24.34 249.87 30.13 C 258.42 32.77 266.49 36.63 274.63 40.28 C 282.15 44.19 288.64 49.69 295.80 54.17 C 299.35 56.53 302.38 59.57 305.49 62.47 C 313.77 69.89 322.49 77.16 328.21 86.86 C 334.58 95.15 338.92 104.75 342.33 114.57 C 343.77 120.70 344.75 126.93 345.80 133.14 C 347.59 143.70 347.79 154.44 349.41 165.03 C 349.72 174.68 349.23 184.36 349.72 194.01 C 349.63 199.39 350.30 204.90 348.72 210.13 C 348.32 205.75 348.59 201.30 347.64 196.98 C 343.75 198.82 342.69 203.61 339.71 206.50 C 336.74 193.53 332.70 180.64 332.34 167.22 C 332.39 165.59 330.92 164.63 330.01 163.50 C 329.00 166.17 328.62 169.00 328.28 171.82 C 327.08 177.52 325.58 183.18 324.84 188.96 C 324.44 194.18 325.13 199.44 324.53 204.64 C 322.64 210.21 321.06 215.96 318.25 221.15 C 315.73 225.38 313.94 229.98 311.80 234.40 C 311.37 229.93 310.46 225.52 310.14 221.05 C 306.98 203.50 306.46 185.61 303.55 168.04 C 303.55 160.41 303.05 152.72 304.14 145.15 C 303.39 143.43 302.46 141.80 301.57 140.17 C 299.47 142.90 301.68 146.51 300.48 149.58 C 297.30 159.23 291.68 167.81 286.67 176.58 C 281.21 186.28 273.68 194.55 266.40 202.88 C 266.52 198.24 266.53 193.60 266.50 188.96 C 266.55 185.06 264.62 181.51 263.01 178.07 C 258.48 182.45 255.83 188.38 251.21 192.69 C 250.90 187.43 252.47 182.21 251.87 177.01 C 250.86 177.57 249.78 178.08 249.04 179.00 C 244.52 184.08 240.22 189.54 234.48 193.31 C 234.44 190.52 234.48 187.70 235.12 184.97 C 235.67 181.51 237.73 178.46 237.84 174.91 C 234.86 176.03 232.75 178.60 229.86 179.89 C 226.50 181.46 223.26 183.26 219.93 184.89 C 212.93 188.18 205.09 188.56 197.72 190.60 C 195.47 191.22 193.16 191.56 190.85 191.78 C 195.08 186.91 201.55 184.71 205.38 179.43 C 207.83 176.01 211.58 173.24 212.47 168.93 C 206.50 171.45 200.34 173.66 194.71 176.89 C 189.97 180.34 185.62 184.35 181.69 188.68 C 171.74 201.56 163.45 215.82 158.06 231.21 C 154.74 242.06 152.16 253.13 148.87 263.99 C 147.72 269.39 145.85 274.66 143.19 279.51 C 143.19 276.44 143.77 273.42 144.51 270.46 C 144.80 268.42 146.05 265.97 144.05 264.39 C 141.96 264.92 141.94 267.57 141.04 269.17 C 137.71 276.63 134.32 284.09 131.68 291.84 C 130.77 294.68 128.72 296.92 126.86 299.18 C 126.40 297.82 125.84 296.50 125.56 295.10 C 125.19 286.29 128.42 277.95 129.89 269.38 C 128.54 269.68 127.16 270.21 126.56 271.56 C 124.21 275.24 122.11 279.15 118.93 282.22 C 117.69 273.70 119.39 264.98 118.04 256.52 C 114.20 261.40 113.01 268.00 108.53 272.51 C 108.25 266.10 107.75 259.70 107.10 253.32 C 105.04 245.23 107.37 236.95 109.55 229.16 L 108.93 228.56 C 103.28 229.37 99.60 234.16 96.50 238.52 C 89.47 247.23 84.60 257.84 83.48 269.03 C 83.48 276.04 83.48 283.05 83.49 290.06 C 83.54 298.05 86.85 305.50 87.97 313.32 C 82.86 305.72 79.58 297.07 74.40 289.52 C 72.98 287.63 71.27 285.53 68.66 285.57 C 75.31 293.38 79.33 302.85 84.39 311.66 C 85.91 314.50 88.68 316.34 90.62 318.87 C 90.74 315.82 90.65 312.71 89.68 309.80 C 87.79 303.67 86.20 297.41 85.57 291.02 C 85.55 279.72 84.64 268.15 88.25 257.25 C 91.14 248.91 96.44 241.73 101.97 234.97 C 103.15 233.44 104.89 232.56 106.58 231.71 C 103.70 239.09 103.60 247.34 105.23 255.02 C 106.34 262.16 104.42 269.86 108.08 276.46 C 112.30 273.50 113.58 268.02 116.46 263.91 C 116.94 271.40 115.36 279.22 118.10 286.41 C 120.78 284.65 122.24 281.73 124.38 279.44 C 122.28 288.16 122.26 297.12 122.57 306.03 C 124.20 317.53 130.42 327.55 134.83 338.09 C 137.51 344.64 142.15 350.05 146.42 355.58 C 154.54 364.13 162.85 372.51 170.63 381.37 C 175.31 386.01 180.01 390.64 185.03 394.93 C 190.06 399.60 195.20 404.36 201.51 407.24 C 212.34 413.04 225.02 413.60 237.04 413.16 C 243.88 412.34 251.05 412.35 257.38 409.27 C 263.42 406.36 269.89 403.50 274.29 398.26 C 279.76 390.45 283.31 381.53 286.64 372.66 C 290.91 360.97 294.86 349.13 299.86 337.73 C 306.81 325.93 322.04 322.77 329.40 311.33 C 337.11 299.80 337.16 285.14 335.42 271.88 C 334.63 264.72 335.85 257.55 337.82 250.68 C 340.91 242.04 343.24 233.13 346.54 224.56 C 346.80 229.61 346.95 234.69 346.56 239.74 C 345.86 242.60 345.05 245.53 345.92 248.48 C 350.70 240.51 348.72 230.63 349.43 221.74 C 349.94 221.41 350.95 220.75 351.46 220.42 C 351.93 210.49 353.09 200.46 351.67 190.54 C 350.90 179.72 352.47 168.76 350.55 158.02 C 349.79 144.10 347.66 130.28 344.99 116.61 C 344.24 112.62 342.45 108.95 340.93 105.22 C 337.21 95.05 330.56 86.38 324.33 77.66 C 316.98 69.35 308.35 62.29 300.20 54.80 C 292.75 49.56 285.34 44.23 277.57 39.45 C 266.58 33.92 255.12 29.35 243.36 25.71 C 222.79 20.47 200.92 22.25 180.84 28.77 M 54.30 281.78 C 53.87 286.23 55.94 290.28 56.97 294.49 C 58.09 298.35 58.87 302.29 60.06 306.12 C 61.64 311.33 65.22 315.55 67.69 320.32 C 69.15 323.00 70.77 326.09 73.99 326.90 C 70.65 320.15 65.89 314.15 62.72 307.31 C 60.51 301.15 59.49 294.64 57.41 288.44 C 56.50 286.18 56.67 283.12 54.30 281.78 M 36.69 282.13 C 36.10 287.62 39.13 292.54 40.31 297.76 C 41.87 304.45 45.33 310.41 48.43 316.46 C 51.19 322.60 52.01 330.95 58.97 333.99 C 58.62 332.77 58.31 331.50 57.39 330.58 C 52.50 325.28 52.11 317.62 48.35 311.66 C 43.89 304.25 41.94 295.79 39.40 287.62 C 38.77 285.65 38.79 283.19 36.69 282.13 M 65.34 291.39 C 68.25 298.69 74.52 303.86 78.87 310.23 C 80.62 312.65 81.85 316.02 85.22 316.47 C 82.12 310.32 77.69 304.98 73.16 299.84 C 70.62 296.99 69.30 292.61 65.34 291.39 M 27.41 295.33 C 29.78 301.99 34.42 307.56 36.76 314.24 C 37.86 318.08 41.14 320.54 43.18 323.82 C 43.87 325.27 45.45 325.61 46.86 325.95 C 45.36 323.12 43.47 320.51 42.17 317.58 C 39.72 312.55 38.48 306.69 34.22 302.77 C 31.55 300.60 30.98 296.35 27.41 295.33 M 50.72 298.15 C 48.83 309.18 55.18 318.93 59.94 328.30 C 61.44 330.65 62.40 333.98 65.53 334.57 C 61.35 324.71 54.10 315.92 52.65 305.03 C 52.13 302.70 53.54 299.28 50.72 298.15 Z" />
<path fill="#191314" opacity="1.00" d=" M 180.84 28.77 C 200.92 22.25 222.79 20.47 243.36 25.71 C 255.12 29.35 266.58 33.92 277.57 39.45 C 285.34 44.23 292.75 49.56 300.20 54.80 C 308.35 62.29 316.98 69.35 324.33 77.66 C 330.56 86.38 337.21 95.05 340.93 105.22 C 342.45 108.95 344.24 112.62 344.99 116.61 C 347.66 130.28 349.79 144.10 350.55 158.02 C 352.47 168.76 350.90 179.72 351.67 190.54 C 353.09 200.46 351.93 210.49 351.46 220.42 C 350.95 220.75 349.94 221.41 349.43 221.74 C 348.72 230.63 350.70 240.51 345.92 248.48 C 345.05 245.53 345.86 242.60 346.56 239.74 C 346.95 234.69 346.80 229.61 346.54 224.56 C 343.24 233.13 340.91 242.04 337.82 250.68 C 335.85 257.55 334.63 264.72 335.42 271.88 C 337.16 285.14 337.11 299.80 329.40 311.33 C 322.04 322.77 306.81 325.93 299.86 337.73 C 294.86 349.13 290.91 360.97 286.64 372.66 C 283.31 381.53 279.76 390.45 274.29 398.26 C 269.89 403.50 263.42 406.36 257.38 409.27 C 251.05 412.35 243.88 412.34 237.04 413.16 C 225.02 413.60 212.34 413.04 201.51 407.24 C 195.20 404.36 190.06 399.60 185.03 394.93 C 180.01 390.64 175.31 386.01 170.63 381.37 C 162.85 372.51 154.54 364.13 146.42 355.58 C 142.15 350.05 137.51 344.64 134.83 338.09 C 130.42 327.55 124.20 317.53 122.57 306.03 C 122.26 297.12 122.28 288.16 124.38 279.44 C 122.24 281.73 120.78 284.65 118.10 286.41 C 115.36 279.22 116.94 271.40 116.46 263.91 C 113.58 268.02 112.30 273.50 108.08 276.46 C 104.42 269.86 106.34 262.16 105.23 255.02 C 103.60 247.34 103.70 239.09 106.58 231.71 C 104.89 232.56 103.15 233.44 101.97 234.97 C 96.44 241.73 91.14 248.91 88.25 257.25 C 84.64 268.15 85.55 279.72 85.57 291.02 C 86.20 297.41 87.79 303.67 89.68 309.80 C 90.65 312.71 90.74 315.82 90.62 318.87 C 88.68 316.34 85.91 314.50 84.39 311.66 C 79.33 302.85 75.31 293.38 68.66 285.57 C 71.27 285.53 72.98 287.63 74.40 289.52 C 79.58 297.07 82.86 305.72 87.97 313.32 C 86.85 305.50 83.54 298.05 83.49 290.06 C 83.48 283.05 83.48 276.04 83.48 269.03 C 84.60 257.84 89.47 247.23 96.50 238.52 C 99.60 234.16 103.28 229.37 108.93 228.56 L 109.55 229.16 C 107.37 236.95 105.04 245.23 107.10 253.32 C 107.75 259.70 108.25 266.10 108.53 272.51 C 113.01 268.00 114.20 261.40 118.04 256.52 C 119.39 264.98 117.69 273.70 118.93 282.22 C 122.11 279.15 124.21 275.24 126.56 271.56 C 127.16 270.21 128.54 269.68 129.89 269.38 C 128.42 277.95 125.19 286.29 125.56 295.10 C 125.84 296.50 126.40 297.82 126.86 299.18 C 128.72 296.92 130.77 294.68 131.68 291.84 C 134.32 284.09 137.71 276.63 141.04 269.17 C 141.94 267.57 141.96 264.92 144.05 264.39 C 146.05 265.97 144.80 268.42 144.51 270.46 C 143.77 273.42 143.19 276.44 143.19 279.51 C 145.85 274.66 147.72 269.39 148.87 263.99 C 152.16 253.13 154.74 242.06 158.06 231.21 C 163.45 215.82 171.74 201.56 181.69 188.68 C 185.62 184.35 189.97 180.34 194.71 176.89 C 200.34 173.66 206.50 171.45 212.47 168.93 C 211.58 173.24 207.83 176.01 205.38 179.43 C 201.55 184.71 195.08 186.91 190.85 191.78 C 193.16 191.56 195.47 191.22 197.72 190.60 C 205.09 188.56 212.93 188.18 219.93 184.89 C 223.26 183.26 226.50 181.46 229.86 179.89 C 232.75 178.60 234.86 176.03 237.84 174.91 C 237.73 178.46 235.67 181.51 235.12 184.97 C 234.48 187.70 234.44 190.52 234.48 193.31 C 240.22 189.54 244.52 184.08 249.04 179.00 C 249.78 178.08 250.86 177.57 251.87 177.01 C 252.47 182.21 250.90 187.43 251.21 192.69 C 255.83 188.38 258.48 182.45 263.01 178.07 C 264.62 181.51 266.55 185.06 266.50 188.96 C 266.53 193.60 266.52 198.24 266.40 202.88 C 273.68 194.55 281.21 186.28 286.67 176.58 C 291.68 167.81 297.30 159.23 300.48 149.58 C 301.68 146.51 299.47 142.90 301.57 140.17 C 302.46 141.80 303.39 143.43 304.14 145.15 C 303.05 152.72 303.55 160.41 303.55 168.04 C 306.46 185.61 306.98 203.50 310.14 221.05 C 310.46 225.52 311.37 229.93 311.80 234.40 C 313.94 229.98 315.73 225.38 318.25 221.15 C 321.06 215.96 322.64 210.21 324.53 204.64 C 325.13 199.44 324.44 194.18 324.84 188.96 C 325.58 183.18 327.08 177.52 328.28 171.82 C 328.62 169.00 329.00 166.17 330.01 163.50 C 330.92 164.63 332.39 165.59 332.34 167.22 C 332.70 180.64 336.74 193.53 339.71 206.50 C 342.69 203.61 343.75 198.82 347.64 196.98 C 348.59 201.30 348.32 205.75 348.72 210.13 C 350.30 204.90 349.63 199.39 349.72 194.01 C 349.23 184.36 349.72 174.68 349.41 165.03 C 347.79 154.44 347.59 143.70 345.80 133.14 C 344.75 126.93 343.77 120.70 342.33 114.57 C 338.92 104.75 334.58 95.15 328.21 86.86 C 322.49 77.16 313.77 69.89 305.49 62.47 C 302.38 59.57 299.35 56.53 295.80 54.17 C 288.64 49.69 282.15 44.19 274.63 40.28 C 266.49 36.63 258.42 32.77 249.87 30.13 C 235.99 24.34 220.69 25.05 205.98 25.40 C 199.62 26.04 193.40 27.63 187.17 29.05 C 183.95 30.03 180.52 30.74 177.73 32.74 C 173.37 36.07 169.84 40.60 164.93 43.15 C 157.00 44.12 149.47 40.80 142.00 38.68 C 132.97 39.32 123.83 40.99 115.39 44.49 C 100.19 51.49 86.66 62.34 77.25 76.23 C 70.40 87.13 62.88 97.68 57.41 109.37 C 53.63 116.08 51.99 123.69 49.91 131.03 C 47.30 147.56 48.50 164.34 48.28 181.00 C 48.49 186.09 46.39 190.92 46.28 195.99 C 46.13 200.34 46.40 204.69 46.19 209.04 C 44.50 223.54 42.46 238.47 35.39 251.48 C 31.58 257.44 27.25 263.26 25.31 270.17 C 23.44 276.96 20.54 283.83 21.51 291.00 C 22.52 294.17 23.38 297.38 24.41 300.54 C 25.62 304.25 28.67 306.82 30.93 309.87 C 27.09 310.02 24.97 306.42 23.41 303.45 C 21.47 300.24 21.84 295.75 18.36 293.59 C 18.89 283.72 21.47 274.11 24.96 264.90 C 27.34 258.98 31.61 254.11 34.58 248.52 C 41.38 233.38 44.33 216.54 43.71 199.98 C 43.51 194.86 45.31 189.96 45.71 184.91 C 45.83 172.92 45.62 160.93 45.80 148.95 C 46.59 142.84 46.99 136.68 47.89 130.59 C 50.02 122.83 51.66 114.75 55.87 107.78 C 60.82 97.20 67.52 87.56 73.76 77.72 C 77.94 70.81 83.43 64.80 89.17 59.18 C 102.25 47.78 118.24 38.38 135.92 37.36 C 138.36 37.08 140.87 35.96 143.32 36.86 C 150.26 38.91 157.28 41.75 164.67 40.62 C 170.67 37.55 174.28 30.90 180.84 28.77 M 275.60 195.59 C 272.11 199.34 269.19 203.74 264.77 206.49 C 263.21 198.46 266.42 189.75 262.63 182.07 C 258.29 186.35 255.85 192.33 250.75 195.85 C 249.44 196.86 248.44 196.60 247.72 195.09 C 248.59 190.73 249.88 186.39 249.57 181.88 C 244.18 187.01 239.77 193.86 232.69 196.72 C 232.13 191.17 232.61 185.58 233.90 180.16 C 230.00 182.17 226.02 184.04 222.16 186.13 C 216.24 189.33 209.50 190.22 202.99 191.54 C 196.67 192.93 190.32 194.60 183.82 194.79 C 184.40 193.76 184.91 192.61 186.03 192.06 C 190.13 189.57 193.56 186.15 197.63 183.63 C 201.55 181.20 204.45 177.49 206.98 173.72 C 197.15 176.42 189.33 183.24 182.74 190.73 C 173.02 203.74 164.66 217.94 159.56 233.42 C 156.62 243.55 154.09 253.80 151.08 263.91 C 148.75 274.51 143.50 284.13 139.10 293.97 C 138.54 294.24 137.43 294.77 136.88 295.04 C 136.75 293.43 136.97 291.82 137.60 290.33 C 139.58 285.66 140.33 280.56 140.81 275.54 C 135.79 283.51 135.09 293.72 128.46 300.72 C 127.10 300.69 125.73 300.63 124.37 300.56 C 124.14 312.83 130.79 323.65 135.61 334.51 C 139.89 345.84 148.40 354.77 156.72 363.29 C 165.54 372.16 173.43 381.94 182.85 390.21 C 189.03 395.42 194.55 401.66 202.00 405.12 C 209.04 408.87 216.99 410.92 224.98 410.75 C 235.97 410.57 247.67 411.86 257.83 406.74 C 263.97 403.69 270.78 400.58 274.34 394.39 C 281.90 381.92 285.95 367.78 291.31 354.32 C 287.48 356.59 283.73 359.78 279.02 359.67 C 272.68 359.59 266.11 360.39 260.03 358.16 C 253.50 355.72 248.42 350.71 242.27 347.57 C 238.46 345.49 233.99 346.45 229.86 346.22 C 230.06 345.83 230.47 345.05 230.67 344.67 C 241.54 341.84 252.75 340.10 264.00 340.12 C 268.39 339.03 272.75 340.28 276.44 342.72 C 279.82 345.36 283.04 340.70 286.69 341.53 C 289.88 342.21 292.25 344.78 294.66 346.81 C 296.12 342.40 296.74 337.52 299.86 333.86 C 305.64 326.05 315.12 322.63 322.10 316.18 C 327.02 312.47 330.01 306.84 332.00 301.13 C 334.66 294.04 333.46 286.35 333.74 278.96 C 334.07 273.34 331.87 267.78 333.13 262.20 C 334.08 257.61 334.93 253.00 336.00 248.43 C 331.39 251.03 326.03 250.51 320.96 250.51 C 317.63 250.58 314.56 249.14 311.46 248.18 C 310.64 243.85 314.24 240.72 316.26 237.32 C 319.59 232.76 325.93 233.41 330.90 233.58 C 333.61 234.19 337.05 234.53 338.36 237.40 C 335.50 237.05 332.76 236.14 329.96 235.57 C 327.04 235.30 324.12 235.69 321.22 235.89 C 324.38 239.30 324.03 244.53 322.48 248.62 C 327.18 248.51 332.67 248.96 336.15 245.13 C 340.12 237.57 342.68 229.39 345.19 221.25 C 347.03 214.96 346.70 208.33 346.10 201.89 C 343.24 204.97 341.27 208.83 337.94 211.48 C 337.06 205.40 336.15 199.31 334.37 193.43 C 332.36 186.69 331.91 179.64 330.17 172.84 C 329.21 177.01 328.31 181.19 327.52 185.40 C 326.88 190.94 327.52 196.53 327.18 202.08 C 326.61 206.38 324.74 210.36 323.48 214.48 C 321.66 220.31 318.02 225.30 315.71 230.92 C 314.03 234.77 312.97 238.86 311.17 242.66 C 310.25 242.50 308.42 242.19 307.50 242.03 C 307.55 247.68 307.52 253.34 307.50 259.00 C 307.96 271.96 310.43 284.75 313.44 297.34 C 315.09 302.14 316.46 307.06 317.18 312.10 C 316.57 315.25 315.09 318.50 312.27 320.26 C 304.18 325.10 294.79 327.91 285.34 327.76 C 285.46 327.28 285.71 326.32 285.84 325.84 C 291.80 325.63 297.77 324.42 303.35 322.31 C 307.62 320.28 313.15 318.66 314.61 313.56 C 315.24 307.36 312.25 301.60 310.83 295.71 C 309.31 288.21 307.33 280.79 306.60 273.16 C 304.66 260.88 305.79 248.42 305.48 236.05 C 305.96 236.01 306.90 235.91 307.37 235.86 C 307.47 237.66 307.65 239.44 307.91 241.22 C 310.09 238.63 309.53 235.10 309.42 231.99 C 307.48 218.17 305.17 204.37 304.38 190.42 C 303.15 183.99 303.09 177.40 301.80 170.98 C 301.14 165.27 301.73 159.50 301.42 153.76 C 294.26 168.51 286.32 183.09 275.60 195.59 M 241.75 344.45 C 247.39 348.06 252.76 352.14 258.68 355.29 C 264.64 358.42 271.54 357.57 278.02 357.65 C 282.67 357.89 286.58 355.01 290.05 352.29 C 282.45 352.50 274.69 354.97 267.17 352.67 C 262.18 351.43 257.88 348.23 252.76 347.42 C 250.74 346.85 247.89 347.24 247.32 344.65 C 257.24 343.97 265.10 352.21 274.99 351.58 C 281.36 351.36 287.74 350.42 293.89 348.72 C 291.46 346.61 288.84 344.73 286.02 343.21 C 283.41 344.08 280.97 345.91 278.12 345.75 C 275.46 345.14 273.42 343.00 270.77 342.39 C 261.05 342.05 251.25 342.20 241.75 344.45 Z" />
<path fill="#ffffff" opacity="1.00" d=" M 275.60 195.59 C 286.32 183.09 294.26 168.51 301.42 153.76 C 301.73 159.50 301.14 165.27 301.80 170.98 C 303.09 177.40 303.15 183.99 304.38 190.42 C 305.17 204.37 307.48 218.17 309.42 231.99 C 309.53 235.10 310.09 238.63 307.91 241.22 C 307.65 239.44 307.47 237.66 307.37 235.86 C 306.90 235.91 305.96 236.01 305.48 236.05 C 305.79 248.42 304.66 260.88 306.60 273.16 C 307.33 280.79 309.31 288.21 310.83 295.71 C 312.25 301.60 315.24 307.36 314.61 313.56 C 313.15 318.66 307.62 320.28 303.35 322.31 C 297.77 324.42 291.80 325.63 285.84 325.84 C 285.71 326.32 285.46 327.28 285.34 327.76 C 294.79 327.91 304.18 325.10 312.27 320.26 C 315.09 318.50 316.57 315.25 317.18 312.10 C 316.46 307.06 315.09 302.14 313.44 297.34 C 310.43 284.75 307.96 271.96 307.50 259.00 C 307.52 253.34 307.55 247.68 307.50 242.03 C 308.42 242.19 310.25 242.50 311.17 242.66 C 312.97 238.86 314.03 234.77 315.71 230.92 C 318.02 225.30 321.66 220.31 323.48 214.48 C 324.74 210.36 326.61 206.38 327.18 202.08 C 327.52 196.53 326.88 190.94 327.52 185.40 C 328.31 181.19 329.21 177.01 330.17 172.84 C 331.91 179.64 332.36 186.69 334.37 193.43 C 336.15 199.31 337.06 205.40 337.94 211.48 C 341.27 208.83 343.24 204.97 346.10 201.89 C 346.70 208.33 347.03 214.96 345.19 221.25 C 342.68 229.39 340.12 237.57 336.15 245.13 C 332.67 248.96 327.18 248.51 322.48 248.62 C 324.03 244.53 324.38 239.30 321.22 235.89 C 324.12 235.69 327.04 235.30 329.96 235.57 C 332.76 236.14 335.50 237.05 338.36 237.40 C 337.05 234.53 333.61 234.19 330.90 233.58 C 325.93 233.41 319.59 232.76 316.26 237.32 C 314.24 240.72 310.64 243.85 311.46 248.18 C 314.56 249.14 317.63 250.58 320.96 250.51 C 326.03 250.51 331.39 251.03 336.00 248.43 C 334.93 253.00 334.08 257.61 333.13 262.20 C 331.87 267.78 334.07 273.34 333.74 278.96 C 333.46 286.35 334.66 294.04 332.00 301.13 C 330.01 306.84 327.02 312.47 322.10 316.18 C 315.12 322.63 305.64 326.05 299.86 333.86 C 296.74 337.52 296.12 342.40 294.66 346.81 C 292.25 344.78 289.88 342.21 286.69 341.53 C 283.04 340.70 279.82 345.36 276.44 342.72 C 272.75 340.28 268.39 339.03 264.00 340.12 C 252.75 340.10 241.54 341.84 230.67 344.67 C 230.47 345.05 230.06 345.83 229.86 346.22 C 233.99 346.45 238.46 345.49 242.27 347.57 C 248.42 350.71 253.50 355.72 260.03 358.16 C 266.11 360.39 272.68 359.59 279.02 359.67 C 283.73 359.78 287.48 356.59 291.31 354.32 C 285.95 367.78 281.90 381.92 274.34 394.39 C 270.78 400.58 263.97 403.69 257.83 406.74 C 247.67 411.86 235.97 410.57 224.98 410.75 C 216.99 410.92 209.04 408.87 202.00 405.12 C 194.55 401.66 189.03 395.42 182.85 390.21 C 173.43 381.94 165.54 372.16 156.72 363.29 C 148.40 354.77 139.89 345.84 135.61 334.51 C 130.79 323.65 124.14 312.83 124.37 300.56 C 125.73 300.63 127.10 300.69 128.46 300.72 C 135.09 293.72 135.79 283.51 140.81 275.54 C 140.33 280.56 139.58 285.66 137.60 290.33 C 136.97 291.82 136.75 293.43 136.88 295.04 C 137.43 294.77 138.54 294.24 139.10 293.97 C 143.50 284.13 148.75 274.51 151.08 263.91 C 154.09 253.80 156.62 243.55 159.56 233.42 C 164.66 217.94 173.02 203.74 182.74 190.73 C 189.33 183.24 197.15 176.42 206.98 173.72 C 204.45 177.49 201.55 181.20 197.63 183.63 C 193.56 186.15 190.13 189.57 186.03 192.06 C 184.91 192.61 184.40 193.76 183.82 194.79 C 190.32 194.60 196.67 192.93 202.99 191.54 C 209.50 190.22 216.24 189.33 222.16 186.13 C 226.02 184.04 230.00 182.17 233.90 180.16 C 232.61 185.58 232.13 191.17 232.69 196.72 C 239.77 193.86 244.18 187.01 249.57 181.88 C 249.88 186.39 248.59 190.73 247.72 195.09 C 248.44 196.60 249.44 196.86 250.75 195.85 C 255.85 192.33 258.29 186.35 262.63 182.07 C 266.42 189.75 263.21 198.46 264.77 206.49 C 269.19 203.74 272.11 199.34 275.60 195.59 M 233.66 223.65 C 231.72 225.76 229.00 227.95 229.56 231.17 C 242.00 230.40 253.53 235.72 265.46 238.27 C 269.50 238.98 273.40 240.30 277.34 241.40 C 277.27 235.57 275.42 229.68 272.14 224.86 C 268.21 220.27 262.25 216.82 256.04 217.48 C 248.23 217.04 239.63 218.10 233.66 223.65 M 227.91 232.51 C 228.47 237.58 233.90 239.73 237.68 242.19 C 235.83 244.12 233.62 245.86 232.68 248.45 C 235.73 247.94 237.63 245.46 239.40 243.16 C 250.03 249.05 262.46 250.48 274.43 250.33 C 272.13 252.94 267.27 254.07 267.10 257.93 C 271.20 256.33 274.08 252.76 278.08 250.98 C 279.80 250.23 281.42 249.27 282.71 247.88 C 272.97 246.93 262.86 249.06 253.28 246.22 C 246.88 244.96 241.20 241.65 235.62 238.44 C 232.79 236.79 230.78 234.09 227.91 232.51 M 310.52 251.82 C 311.89 257.36 318.16 258.77 323.12 258.49 C 326.39 258.07 330.68 259.81 333.06 256.88 C 327.58 255.98 321.86 257.19 316.51 255.38 C 314.55 254.12 312.78 252.52 310.52 251.82 M 311.68 256.70 C 311.71 257.51 311.77 259.11 311.80 259.91 C 316.23 264.32 323.12 263.05 328.79 263.26 C 328.80 262.63 328.81 261.37 328.82 260.75 C 324.99 260.69 321.16 260.93 317.35 260.55 C 314.91 260.36 313.48 258.05 311.68 256.70 M 259.77 298.56 C 259.31 301.79 259.28 305.15 259.74 308.39 C 261.83 311.51 264.53 314.58 268.01 316.14 C 273.10 316.57 278.27 315.83 283.33 316.73 C 285.03 317.79 286.30 319.40 288.02 320.45 C 287.89 319.17 287.63 317.91 287.24 316.70 C 285.06 313.93 281.11 314.56 278.03 313.86 C 273.37 313.16 267.43 315.44 264.32 310.72 C 260.79 308.25 261.28 303.79 261.58 300.02 C 262.57 297.16 264.89 295.05 267.09 293.09 C 269.26 291.03 272.54 289.79 273.15 286.53 C 267.59 288.91 262.80 293.35 259.77 298.56 M 243.42 305.49 C 232.01 312.96 217.98 312.86 204.91 313.88 C 205.30 314.23 206.07 314.94 206.45 315.30 C 211.31 316.03 216.20 315.14 221.03 314.59 C 233.84 314.13 245.96 308.09 254.95 299.09 C 255.27 298.44 255.89 297.14 256.21 296.49 C 251.17 298.24 248.16 303.15 243.42 305.49 M 181.37 348.34 C 182.58 352.73 187.06 355.03 190.46 357.61 C 197.34 361.80 205.22 358.27 211.96 355.72 C 214.12 354.73 216.32 353.39 217.12 351.01 C 210.89 353.50 204.77 356.99 198.00 357.56 C 190.92 357.89 187.17 350.95 181.37 348.34 M 266.52 372.44 C 258.89 374.57 251.13 376.22 243.48 378.22 C 243.27 378.65 242.85 379.51 242.64 379.95 C 249.45 379.57 255.86 377.00 262.48 375.60 C 267.69 374.61 272.50 372.34 277.41 370.42 C 278.43 370.04 278.97 369.27 279.02 368.11 C 274.57 368.65 270.74 371.14 266.52 372.44 Z" />
<path fill="#191314" opacity="1.00" d=" M 233.66 223.65 C 239.63 218.10 248.23 217.04 256.04 217.48 C 262.25 216.82 268.21 220.27 272.14 224.86 C 275.42 229.68 277.27 235.57 277.34 241.40 C 273.40 240.30 269.50 238.98 265.46 238.27 C 253.53 235.72 242.00 230.40 229.56 231.17 C 229.00 227.95 231.72 225.76 233.66 223.65 M 251.33 219.52 C 254.77 223.41 257.58 228.19 256.54 233.60 C 262.55 235.50 268.70 236.99 274.93 237.94 C 273.90 231.61 271.24 224.80 265.16 221.77 C 261.09 218.91 256.02 219.41 251.33 219.52 Z" />
<path fill="#ffffff" opacity="1.00" d=" M 251.33 219.52 C 256.02 219.41 261.09 218.91 265.16 221.77 C 271.24 224.80 273.90 231.61 274.93 237.94 C 268.70 236.99 262.55 235.50 256.54 233.60 C 257.58 228.19 254.77 223.41 251.33 219.52 Z" />
<path fill="#191314" opacity="1.00" d=" M 227.91 232.51 C 230.78 234.09 232.79 236.79 235.62 238.44 C 241.20 241.65 246.88 244.96 253.28 246.22 C 262.86 249.06 272.97 246.93 282.71 247.88 C 281.42 249.27 279.80 250.23 278.08 250.98 C 274.08 252.76 271.20 256.33 267.10 257.93 C 267.27 254.07 272.13 252.94 274.43 250.33 C 262.46 250.48 250.03 249.05 239.40 243.16 C 237.63 245.46 235.73 247.94 232.68 248.45 C 233.62 245.86 235.83 244.12 237.68 242.19 C 233.90 239.73 228.47 237.58 227.91 232.51 Z" />
<path fill="#191314" opacity="1.00" d=" M 310.52 251.82 C 312.78 252.52 314.55 254.12 316.51 255.38 C 321.86 257.19 327.58 255.98 333.06 256.88 C 330.68 259.81 326.39 258.07 323.12 258.49 C 318.16 258.77 311.89 257.36 310.52 251.82 Z" />
<path fill="#191314" opacity="1.00" d=" M 311.68 256.70 C 313.48 258.05 314.91 260.36 317.35 260.55 C 321.16 260.93 324.99 260.69 328.82 260.75 C 328.81 261.37 328.80 262.63 328.79 263.26 C 323.12 263.05 316.23 264.32 311.80 259.91 C 311.77 259.11 311.71 257.51 311.68 256.70 Z" />
<path fill="#191314" opacity="1.00" d=" M 54.30 281.78 C 56.67 283.12 56.50 286.18 57.41 288.44 C 59.49 294.64 60.51 301.15 62.72 307.31 C 65.89 314.15 70.65 320.15 73.99 326.90 C 70.77 326.09 69.15 323.00 67.69 320.32 C 65.22 315.55 61.64 311.33 60.06 306.12 C 58.87 302.29 58.09 298.35 56.97 294.49 C 55.94 290.28 53.87 286.23 54.30 281.78 Z" />
<path fill="#191314" opacity="1.00" d=" M 36.69 282.13 C 38.79 283.19 38.77 285.65 39.40 287.62 C 41.94 295.79 43.89 304.25 48.35 311.66 C 52.11 317.62 52.50 325.28 57.39 330.58 C 58.31 331.50 58.62 332.77 58.97 333.99 C 52.01 330.95 51.19 322.60 48.43 316.46 C 45.33 310.41 41.87 304.45 40.31 297.76 C 39.13 292.54 36.10 287.62 36.69 282.13 Z" />
<path fill="#191314" opacity="1.00" d=" M 259.77 298.56 C 262.80 293.35 267.59 288.91 273.15 286.53 C 272.54 289.79 269.26 291.03 267.09 293.09 C 264.89 295.05 262.57 297.16 261.58 300.02 C 261.28 303.79 260.79 308.25 264.32 310.72 C 267.43 315.44 273.37 313.16 278.03 313.86 C 281.11 314.56 285.06 313.93 287.24 316.70 C 287.63 317.91 287.89 319.17 288.02 320.45 C 286.30 319.40 285.03 317.79 283.33 316.73 C 278.27 315.83 273.10 316.57 268.01 316.14 C 264.53 314.58 261.83 311.51 259.74 308.39 C 259.28 305.15 259.31 301.79 259.77 298.56 Z" />
<path fill="#191314" opacity="1.00" d=" M 65.34 291.39 C 69.30 292.61 70.62 296.99 73.16 299.84 C 77.69 304.98 82.12 310.32 85.22 316.47 C 81.85 316.02 80.62 312.65 78.87 310.23 C 74.52 303.86 68.25 298.69 65.34 291.39 Z" />
<path fill="#191314" opacity="1.00" d=" M 27.41 295.33 C 30.98 296.35 31.55 300.60 34.22 302.77 C 38.48 306.69 39.72 312.55 42.17 317.58 C 43.47 320.51 45.36 323.12 46.86 325.95 C 45.45 325.61 43.87 325.27 43.18 323.82 C 41.14 320.54 37.86 318.08 36.76 314.24 C 34.42 307.56 29.78 301.99 27.41 295.33 Z" />
<path fill="#191314" opacity="1.00" d=" M 243.42 305.49 C 248.16 303.15 251.17 298.24 256.21 296.49 C 255.89 297.14 255.27 298.44 254.95 299.09 C 245.96 308.09 233.84 314.13 221.03 314.59 C 216.20 315.14 211.31 316.03 206.45 315.30 C 206.07 314.94 205.30 314.23 204.91 313.88 C 217.98 312.86 232.01 312.96 243.42 305.49 Z" />
<path fill="#191314" opacity="1.00" d=" M 50.72 298.15 C 53.54 299.28 52.13 302.70 52.65 305.03 C 54.10 315.92 61.35 324.71 65.53 334.57 C 62.40 333.98 61.44 330.65 59.94 328.30 C 55.18 318.93 48.83 309.18 50.72 298.15 Z" />
<path fill="#ffffff" opacity="1.00" d=" M 241.75 344.45 C 251.25 342.20 261.05 342.05 270.77 342.39 C 273.42 343.00 275.46 345.14 278.12 345.75 C 280.97 345.91 283.41 344.08 286.02 343.21 C 288.84 344.73 291.46 346.61 293.89 348.72 C 287.74 350.42 281.36 351.36 274.99 351.58 C 265.10 352.21 257.24 343.97 247.32 344.65 C 247.89 347.24 250.74 346.85 252.76 347.42 C 257.88 348.23 262.18 351.43 267.17 352.67 C 274.69 354.97 282.45 352.50 290.05 352.29 C 286.58 355.01 282.67 357.89 278.02 357.65 C 271.54 357.57 264.64 358.42 258.68 355.29 C 252.76 352.14 247.39 348.06 241.75 344.45 Z" />
<path fill="#191314" opacity="1.00" d=" M 181.37 348.34 C 187.17 350.95 190.92 357.89 198.00 357.56 C 204.77 356.99 210.89 353.50 217.12 351.01 C 216.32 353.39 214.12 354.73 211.96 355.72 C 205.22 358.27 197.34 361.80 190.46 357.61 C 187.06 355.03 182.58 352.73 181.37 348.34 Z" />
<path fill="#191314" opacity="1.00" d=" M 266.52 372.44 C 270.74 371.14 274.57 368.65 279.02 368.11 C 278.97 369.27 278.43 370.04 277.41 370.42 C 272.50 372.34 267.69 374.61 262.48 375.60 C 255.86 377.00 249.45 379.57 242.64 379.95 C 242.85 379.51 243.27 378.65 243.48 378.22 C 251.13 376.22 258.89 374.57 266.52 372.44 Z" />
</svg>
