<?xml version="1.0" encoding="utf-8"?>
<!-- Generator: Adobe Illustrator 15.0.2, SVG Export Plug-In . SVG Version: 6.00 Build 0)  -->
<!DOCTYPE svg PUBLIC "-//W3C//DTD SVG 1.1//EN" "http://www.w3.org/Graphics/SVG/1.1/DTD/svg11.dtd">
<svg version="1.1" id="Layer_1" xmlns="http://www.w3.org/2000/svg" xmlns:xlink="http://www.w3.org/1999/xlink" x="0px" y="0px"
	 width="111px" height="147px" viewBox="0 0 111 147" enable-background="new 0 0 111 147" xml:space="preserve">
<path fill="#FFFFFF" d="M0,0h111v106.07c-4.17-5-9.779-8.44-14.859-12.42C93.2,91.55,90.42,89.1,87,87.78
	c-5.471-1.97-9.641-6.21-14.09-9.771c2.51-2.13,5.13-4.37,6.25-7.57c1.23-3.62,5.09-5.58,6.09-9.29c0.18-2.55-0.311-5.08-0.41-7.62
	c2.01-0.58,4.09-0.92,6.15-1.34c2.81-4.43,2.26-10.21-0.711-14.42c4.011-5.26,8.5-10.27,13.871-14.17
	c-1.83-5.02-5.812-8.69-9.25-12.61C88.42,4.5,79.63-0.77,70.109,0.32C67.38,0.96,66.98,3.99,66.15,6.21
	c-1.062,4.35-3,8.4-5.221,12.27c-1.971-1.83-4.08-3.83-6.851-4.29c-2.93-0.4-5.77,0.7-8.57,1.38c-0.78,2.2-2.04,4.59-0.93,6.91
	c0.6,2.24,2.65,4.22,1.77,6.69c4.89,2.5,7.96,7.12,12.07,10.52c2.29-0.22,4.302-1.45,6.431-2.21c3.449,2.27,6.83,4.77,9.34,8.09
	c0.439,2.64,0.801,5.45,0.431,8.1c-1.47,1.03-3.28,1.47-4.87,2.31c1.37-2.45,0.641-5.01-0.62-7.32c0.11-0.45,0.32-1.35,0.431-1.8
	c-1.121-0.12-2.229-0.22-3.351-0.31l0.021-2.25c0.75,0.06,2.261,0.18,3.021,0.24c-1.41-0.53-2.83-1.04-4.222-1.61
	c-2.788-1.23-5.77-2.08-8.85-1.72c2.062,0.4,4.16,0.54,6.23,0.88c0.14,0.8,0.43,2.39,0.58,3.19c-2.051,0.09-4.09,0.21-6.131,0.41
	c-2.089,2.13-4.219,4.37-4.819,7.41c0.8,1.62,1.59,3.23,2.44,4.81c0.1-1.56-0.12-3.12-0.11-4.68c1.02,4.2,4.19,1.22,6.62,0.71
	c2.85-1.04,5.85,0.1,8.71,0.45c-0.74,0.74-1.49,1.47-2.261,2.17c-1.869-0.65-3.619-1.61-5.459-2.33c1.068,1.76,2.56,3.06,4.47,3.89
	c-3.64,1.4-8,2.01-11.01-1.14c0.08,0.78,0.23,2.35,0.31,3.13c0.609,0.16,1.84,0.5,2.45,0.66c-0.49,0.62-1.45,1.85-1.931,2.46
	c1.859,0.4,2.83-0.48,2.92-2.64c3.819,0.93,6.819-2.39,10.561-1.78c-0.15-0.31-0.46-0.91-0.609-1.21
	c1.729-0.59,3.399-1.32,4.989-2.23c1.14,0.1,2.28,0.17,3.431,0.22c1.969,2.3,1.729,5.12,1.021,7.89c2.108-2.15,2.46-4.93,1.521-7.83
	c0.989,2.06,2.279,3.96,3.439,5.93c-0.471,1.14-1.17,2.17-1.79,3.23c-0.96-0.14-1.92-0.28-2.88-0.4c0.479,0.48,0.949,0.98,1.43,1.48
	c-2.369,3.15-3.22,7.37-6.658,9.69c0.379-3.23,0.608-6.5,0.198-9.75c0.33-0.85,0.681-1.7,1.04-2.54c0.391-1.71,1.648-2.41,3.37-2.42
	c-1.34-1.19-2.642-2.43-3.858-3.73c-1.592,1.17-3.352,2.07-5.201,2.77c-8.09,4.18-17.239,6.47-26.391,5.73
	c0.89,1.53,2.85,1.66,4.27,2.44c-1.39,1.04-2.97,1.65-4.73,1.82c-0.1-1.92-0.07-3.84-0.12-5.76l-0.77,0.97
	c-3.23-1.27-4.92-3.97-5.39-7.32c-1.01,2.99-2.23,6-2.25,9.21c0.28,3.15,1.65,6.16,3.78,8.49c-0.33-1.66-0.69-3.32-1.08-4.97
	c0.54,1.2,1.08,2.41,1.61,3.621c0.21-0.561,0.63-1.681,0.84-2.229c1.09,0.96,2.36,1.5,3.81,1.64c-2.63,0.9-4.91,3.682-7.91,2.67
	c-0.38,1.051-0.76,2.11-1.15,3.16c0-0.68-0.02-2.06-0.02-2.75c-1.97,1.09-3.93,2.182-5.93,3.21c-0.42-1.13-0.84-2.26-1.26-3.39
	c-0.95-0.63-1.9-1.262-2.85-1.88c-2.23,0.63-4.33,1.649-6.16,3.09c0.54,2.91,0.15,7.18,3.76,8.18c3.25,0.41,6.01-1.858,8.73-3.278
	c1.63,2.5,3.89,4.459,6.16,6.35c-2.35,3.14-6.15,4.65-9.33,6.79c-3.34,2.26-7.12,3.68-10.7,5.47c-2.94,2.311-5.7,4.91-8.09,7.79
	c-3.38,5.41-3.76,11.979-4.54,18.14c-0.46,6.24-2.64,12.16-3.48,18.34L0,0 M32.17,39.1c-1.35,2.9,0.68,5.94,0.03,8.92
	c-0.46,3.23-3.97,4.89-4.73,7.99c-0.5,2.72,0.95,5.16,1.97,7.56c1.39,3.03,1.37,6.43,1.52,9.69c-0.13,1.561-0.32,3.11-0.43,4.68
	c2.72-1.738,1.51-5.18,1.62-7.818c-0.44-2.05,0.25-4.67-1.51-6.19c0.82-0.76,1.68-1.46,2.51-2.19c-0.73,0.22-2.18,0.68-2.9,0.91
	c-0.64-2.66-0.91-5.4-0.94-8.13l0.96,0.09c0.91-2.27,3.17-3.89,3.33-6.46c0.43-3.34,0.91-6.8,3.29-9.38
	c1.07,0.16,3.22,0.47,4.29,0.63c-1.16-1.9-2.92-3.15-5.01-3.81c0.75-0.3,1.41-1.43,2.3-0.99c2.79,1.22,6.79,2.31,9-0.47
	c0.33-2.08-0.41-3.88-2.28-4.95c-0.83,0.95-2.33,2.37-1.88-0.02C37.76,29.44,34.12,34.42,32.17,39.1 M48.98,32.81
	c2.74,1.75,2.7,6.99,6.63,6.44C53.98,36.6,51.76,34.27,48.98,32.81 M45.03,39.3c-0.85,0.01-2.55,0.03-3.4,0.04
	c0.8,0.93,1.65,1.81,2.55,2.64c-0.29,0.59-0.59,1.17-0.88,1.75c-1.63-0.33-3.14,0.08-4.63,0.65c2.07,0.23,4.59-0.74,6.26,0.94
	c-0.07-0.52-0.22-1.56-0.3-2.08c5.29,3.45,10.99-0.271,16.63,0.36c-1.99-0.25-4.05-0.16-6-0.71c0.16-0.44,0.46-1.31,0.61-1.74
	c-1.76,0.22-3.52,0.49-5.27,0.78c0.3,0.33,0.89,0.99,1.19,1.32c-0.34,2.22-3.44,0.53-4.82,0.74c0.82-0.46,2.46-1.38,3.28-1.84
	c-1.12-1.22-2.2-2.47-3.27-3.73C46.33,38.72,45.68,39.01,45.03,39.3 M40.43,45.83c-0.88,0.6-2.6,1.56-2.09,2.85
	C39.87,49.38,43.45,45.51,40.43,45.83 M45.54,46.11c0.29,1.32,1.03,1.57,2.25,0.73C47.5,45.51,46.75,45.26,45.54,46.11 M48.06,47.88
	c-0.65,1.28-1.07,2.67-1.74,3.94c-2.63-0.95-6.55-1.54-8.17,1.42c2.99,0.66,6.02,1.11,9.06,1.42c0.65,3.54-3.1,4.91-5.2,6.87
	c2.79,0.31,4.57,2.6,7.01,3.59c0.41-0.49,1.23-1.48,1.65-1.97c-2.47,1.36-4.02-0.82-4.98-2.75c2.06-0.94,3.14-2.72,2.9-5
	c0.8-0.55,1.56-1.16,2.34-1.73c-0.84-0.16-2.52-0.48-3.36-0.64c0.05-0.75,0.14-2.24,0.18-2.99C47.8,49.31,47.93,48.59,48.06,47.88
	 M32.45,53.45C33.05,54.05,33.05,54.05,32.45,53.45 M32.29,57.71c1.63-0.22,3.25-0.46,4.88-0.73c0.24,0.49,0.72,1.48,0.96,1.97
	c1.8-0.15,3.91,0.02,4.58-2.11C39.21,58.52,34.76,53.03,32.29,57.71 M32.07,60.22C32.59,60.78,32.59,60.78,32.07,60.22 M51.7,62.53
	c1.41,0.06,2.81,0.12,4.22,0.18c-0.01-0.42-0.02-1.24-0.02-1.65C54.4,61.28,52.26,60.62,51.7,62.53 M40.33,62.01
	C40.51,65.34,43.32,60.44,40.33,62.01z"/>
<path fill="#010101" d="M66.15,6.21c0.83-2.22,1.229-5.25,3.959-5.89C79.63-0.77,88.42,4.5,94.9,10.99
	c3.438,3.92,7.42,7.59,9.25,12.61c-5.371,3.9-9.86,8.91-13.871,14.17c2.971,4.21,3.521,9.99,0.711,14.42
	c-2.061,0.42-4.141,0.76-6.15,1.34c0.1,2.54,0.59,5.07,0.41,7.62c-1,3.71-4.859,5.67-6.09,9.29c-1.12,3.2-3.74,5.44-6.25,7.57
	c4.449,3.561,8.619,7.801,14.09,9.771c3.42,1.318,6.2,3.77,9.141,5.869c5.08,3.979,10.689,7.42,14.859,12.42V147H38.92
	c1.76-10.29,7.23-19.62,8.28-30.08c0.74-4.08-0.16-8.16-0.96-12.15c-0.83,1.16-1.64,2.33-2.46,3.5c-0.13-1.398-0.4-2.76-0.83-4.09
	c-0.24-0.02-0.72-0.05-0.96-0.07c-2.94,3.302-4.07,7.65-6.13,11.461c-4.84,9.841-8.03,20.479-8.99,31.431H0v-1.562
	c0.84-6.18,3.02-12.1,3.48-18.34c0.78-6.16,1.16-12.729,4.54-18.14c2.39-2.88,5.15-5.479,8.09-7.79c3.58-1.79,7.36-3.21,10.7-5.47
	c3.18-2.14,6.98-3.65,9.33-6.79c-2.27-1.891-4.53-3.85-6.16-6.35c-2.72,1.42-5.48,3.688-8.73,3.278c-3.61-1-3.22-5.271-3.76-8.18
	c1.83-1.44,3.93-2.46,6.16-3.091c0.95,0.619,1.9,1.25,2.85,1.881c0.42,1.13,0.84,2.26,1.26,3.39c2-1.028,3.96-2.12,5.93-3.21
	c0,0.689,0.02,2.07,0.02,2.75c0.39-1.05,0.77-2.109,1.15-3.16c3,1.012,5.28-1.77,7.91-2.67c-1.45-0.14-2.72-0.68-3.81-1.64
	c-0.21,0.55-0.63,1.67-0.84,2.229c-0.53-1.209-1.07-2.421-1.61-3.621c0.39,1.65,0.75,3.31,1.08,4.97c-2.13-2.33-3.5-5.34-3.78-8.49
	c0.02-3.21,1.24-6.22,2.25-9.21c0.47,3.35,2.16,6.05,5.39,7.32l0.77-0.97c0.05,1.92,0.02,3.84,0.12,5.76
	c1.76-0.17,3.34-0.78,4.73-1.82c-1.42-0.78-3.38-0.91-4.27-2.44c9.15,0.74,18.3-1.55,26.39-5.73c1.852-0.7,3.61-1.6,5.201-2.77
	c1.219,1.3,2.521,2.54,3.859,3.73c-1.721,0.01-2.98,0.71-3.37,2.42c-0.36,0.84-0.71,1.69-1.04,2.54l-0.83,2.02
	c-0.67-0.95-1.33-1.91-1.98-2.87c-1.038,1.06-2.078,2.12-3.1,3.21l2.15,1.12l-0.27-1.88c0.629,0.51,1.26,1.021,1.89,1.53
	c-4.36,4.84-10.28,9.229-17.16,8.521c-3.93-0.199-7.87-0.25-11.79-0.649c-1.87-0.46-3.81-0.438-5.15,1.2
	c1.76,1.359,3.84,2.359,6.11,2.398c-0.2,0.16-0.61,0.461-0.81,0.61c-2.99-0.59-5.81-4.261-8.56-1.149
	c2.54,1.699,5.45,2.709,8.53,2.529c2.79,0.04,5.57,0.03,8.35-0.189c3.26-0.58-0.44-1.83-1.78-1.871c2.14-0.448,4.29-0.479,6.44-0.25
	c2.62,0.642,5.011-0.469,6.601-2.528c1.181-0.59,2.34-1.21,3.479-1.851c-0.181,0.511-0.56,1.529-0.739,2.039
	c1.75-0.22,3.369-0.979,5.029-1.539c0.37-0.59,1.109-1.779,1.48-2.371c-0.09,0.9-0.26,2.71-0.352,3.61
	c0.57-0.47,1.7-1.409,2.262-1.89c3.438-2.32,4.289-6.54,6.658-9.69c-0.479-0.5-0.949-1-1.43-1.48c0.96,0.12,1.92,0.26,2.88,0.4
	c0.62-1.06,1.319-2.09,1.79-3.23c-1.16-1.97-2.45-3.87-3.439-5.93c0.939,2.9,0.59,5.68-1.521,7.83c0.71-2.77,0.948-5.59-1.021-7.89
	c-1.149-0.05-2.291-0.12-3.431-0.22c-1.59,0.91-3.26,1.64-4.989,2.23c0.149,0.3,0.459,0.9,0.609,1.21
	c-3.74-0.61-6.74,2.71-10.561,1.78c-0.09,2.16-1.061,3.04-2.92,2.64c0.479-0.61,1.439-1.84,1.931-2.46
	c-0.61-0.16-1.841-0.5-2.45-0.66c-0.08-0.78-0.23-2.35-0.31-3.13c3.01,3.15,7.371,2.54,11.01,1.14c-1.91-0.83-3.4-2.13-4.47-3.89
	c1.84,0.72,3.59,1.68,5.459,2.33c0.771-0.7,1.521-1.43,2.261-2.17c-2.86-0.35-5.86-1.49-8.71-0.45c-2.43,0.51-5.6,3.49-6.62-0.71
	c-0.01,1.56,0.21,3.12,0.11,4.68c-0.85-1.58-1.64-3.19-2.44-4.81c0.6-3.04,2.73-5.28,4.819-7.41c2.041-0.2,4.08-0.32,6.131-0.41
	c-0.15-0.8-0.44-2.39-0.58-3.19c-2.07-0.34-4.17-0.48-6.23-0.88c3.08-0.36,6.062,0.49,8.85,1.72c1.392,0.57,2.812,1.08,4.222,1.61
	c-0.76-0.06-2.271-0.18-3.021-0.24l-0.021,2.25c1.12,0.09,2.229,0.19,3.351,0.31c-0.109,0.45-0.319,1.35-0.431,1.8
	c1.261,2.31,1.99,4.87,0.62,7.32c1.59-0.84,3.4-1.28,4.87-2.31c0.37-2.65,0.01-5.46-0.431-8.1c-2.51-3.32-5.891-5.82-9.34-8.09
	c-2.13,0.76-4.141,1.99-6.431,2.21c-4.11-3.4-7.18-8.02-12.07-10.52c0.88-2.47-1.17-4.45-1.77-6.69c-1.11-2.32,0.15-4.71,0.93-6.91
	c2.8-0.68,5.64-1.78,8.57-1.38c2.771,0.46,4.88,2.46,6.851,4.29C63.15,14.61,65.09,10.56,66.15,6.21 M63.359,43.33
	c-0.699,1.14,1.149,2.64,2.17,1.84C66.29,43.99,64.391,42.58,63.359,43.33 M53.34,53.91c0.84-0.7,1.65-1.43,2.42-2.21
	c1.45-1.12,2.891-2.26,4.16-3.59l-0.779,1.62c4.029-1.19,7.989,0.22,10.739,3.28c-0.78-2.63-2.72-4.56-4.67-6.36
	c-2.46-0.19-4.94-0.24-7.39,0.07C55.75,48.67,52.73,50.48,53.34,53.91 M56.23,52.76c0.02,0.3,0.049,0.91,0.068,1.21
	c1.602-0.5,3.182-1.05,4.78-1.56c-0.21-0.48-0.608-1.42-0.82-1.89C58.93,51.28,57.59,52.04,56.23,52.76 M66.311,52.29
	C66.85,52.84,66.85,52.84,66.311,52.29 M76.01,54.12c0.141,0.31,0.4,0.93,0.54,1.25l0.78-0.45l-0.04-0.95l-0.81-0.41L76.01,54.12
	 M68.87,61.97l0.68,1.2c-3.05-0.39-5.96,0.58-8.79,1.58c-0.56,1.06-1.13,2.12-1.75,3.14l-0.02-2.33c-2.141,1.05-7.41-0.09-6.15,3.77
	c2.24,0.18,4.57-0.16,6.49-1.36c2.85-0.5,5.529-1.62,8.02-3.05l-1.01-1.05c1.12-0.03,2.24-0.03,3.36-0.02l-0.49,1.12
	c2.29-1.2,4.74-2.47,5.67-5.06C72.62,59.84,70.939,61.38,68.87,61.97 M36.98,64.03c-0.39,1.28-0.78,2.56-1.16,3.84
	c0.91-0.53,1.83-1.06,2.74-1.59c-0.13,1.53,0.58,2.47,2.12,2.8c0.06-1.5,0.01-3.03-1.15-4.15l-0.41,1.71
	C38.38,65.79,37.68,64.91,36.98,64.03 M46.96,67.73c1.02,1.52,2.58,2.11,4.7,1.77c-0.01-0.97-0.02-1.94-0.04-2.91
	C50.07,66.97,48.52,67.35,46.96,67.73 M56.029,71.43c0.07,1.5,0.15,2.99,0.24,4.49c1.801,0.03,3.551-0.34,5.211-1.029l-1.15-1.951
	c0.561-0.5,1.109-1.01,1.65-1.53c-0.36,5.17,4.14,0.52,5.89-0.71c-0.29-1.02-0.58-2.04-0.87-3.06
	C63.48,69.32,60.061,71.37,56.029,71.43 M41.33,72.81l3.14-0.11c0.98,1.68,2.17,3.25,3.93,4.19c0.25-1.541,0.3-3.172-0.51-4.562
	c-0.72,0.19-2.16,0.58-2.88,0.78l1.31-2.97L41.33,72.81 M49.65,72.58c0.29,1.24,0.56,2.48,0.83,3.72c1.42-0.069,2.85-0.13,4.28-0.2
	c-0.05-1.42-0.09-2.84-0.12-4.26C52.98,72.14,51.32,72.39,49.65,72.58 M43.1,74.28C41.58,77.3,46.49,74.47,43.1,74.28 M22.27,76.98
	c-1.53,0.289-1.15,2.81,0.47,1.938C24.29,78.63,23.9,76.08,22.27,76.98 M68.37,78.37C68.65,78.65,68.65,78.65,68.37,78.37
	 M61.15,79.23l0.529,1.22c-0.619,0.149-1.869,0.44-2.49,0.58l-0.549,0.35c-1.812,0-3.612,0.21-5.4,0.49
	c-0.31,0.19-0.95,0.569-1.27,0.76c-5.94-0.45-12.62,1.4-17.81-2.37c-0.76,0.35-2.3,1.061-3.06,1.41c1.4,2.01,2.86,4.32,5.4,4.96
	c6.31,2.181,12.84-0.5,19.03-1.86c4.42-0.64,7.68-4.229,12.1-4.869c-0.62-0.479-1.229-0.961-1.851-1.439
	C64.439,79.54,62.9,79.79,61.15,79.23 M70.12,79.08c-0.74,2.58,0.06,6.84-3.37,7.62c-0.029,1.899-0.54,3.67-1.891,5.05
	c-1.959-2.13-2.289,2.75-3.811,2.05c-0.09-0.31-0.279-0.909-0.369-1.22c-1.699,1.21-3.359,2.49-4.881,3.93l0.07,0.54
	c0.619-0.18,1.859-0.53,2.488-0.71c-0.698,1.6-2.08,2.471-3.698,2.9c-2.48,4.01,0.51,8.21,2.778,11.5
	c1.11-1.85,3.312-3.51,3.48-5.68c-0.63-0.9-1.23-1.802-1.85-2.701l-0.851,2.109c0.199-0.949,0.591-2.869,0.789-3.828
	c-1.33,0.658-2.659,1.299-4.01,1.93c3.92-3.98,8.01-7.891,12.37-11.37c-2.092,3.1-4.86,5.729-7.87,7.92
	c0.46,0.46,0.931,0.92,1.399,1.38c1.021-1.25,2.271-2.16,3.729-2.73c-0.899,1.4-2.19,2.472-3.399,3.58
	c0.229,0.61,0.681,1.84,0.91,2.45C67,97.3,69.68,89.189,72.37,81.51C73.391,79.859,71.7,78.67,70.12,79.08 M55.02,86.43
	c-5.76,1.301-11.44,3.391-17.44,2.891c-0.48-0.26-1.45-0.801-1.93-1.069c0.47,0.479,1.39,1.431,1.86,1.91
	c-0.01,5.989-1.28,11.93-0.7,17.93c1.16-1.09,2.09-2.409,1.9-4.09c1.22-1.899,2.36-3.858,3.52-5.8c-0.26-2.03,0.39-3.98,2.54-4.551
	c-1.55,2.381-2.22,6.039-0.83,8.42c0.5,0.229,1.49,0.689,1.99,0.921c1.16-2.302,2.49-4.511,3.63-6.83
	c-0.78-0.87-1.55-1.729-2.28-2.62c2.67,1.04,5.11,3.148,5.63,6.109c1.15-0.489,2.26-1.061,3.1-2l-0.14-0.601
	c-0.35-0.12-1.05-0.34-1.41-0.45l-0.27-0.43c0.65-0.33,1.97-0.99,2.621-1.33c-0.911-0.529-1.819-1.05-2.75-1.56
	c5.1-1.921,8.64-6.45,13.03-9.521l1.45,0.261c-0.148-1.471,0.5-2.771,1.029-4.08C64.529,81.7,60.32,85.4,55.02,86.43 M57.189,92.79
	c1.041-0.3,3.131-0.88,4.181-1.17L60.6,91.26c2.771-1.79,5.51-3.77,7.11-6.77C64.1,87.13,60.721,90.061,57.189,92.79 M50.61,97.79
	c-1.14,2.06-2.29,4.12-3.33,6.229c0.72,2.979,1.62,5.939,1.99,9c0.38,2.811-0.84,5.529-0.71,8.351c2.88-3.45,5.91-6.771,8.629-10.34
	c-2.439-2.11-5.029-4.69-5.291-8.101C51.55,101.22,52.22,99,50.61,97.79 M59.01,100.641l0.58,0.311l0.25-0.57
	C59.641,100.45,59.221,100.58,59.01,100.641z"/>
<path fill="#010101" d="M32.17,39.1c1.95-4.68,5.59-9.66,11.14-9.94c-0.45,2.39,1.05,0.97,1.88,0.02c1.87,1.07,2.61,2.87,2.28,4.95
	c-2.21,2.78-6.21,1.69-9,0.47c-0.89-0.44-1.55,0.69-2.3,0.99c2.09,0.66,3.85,1.91,5.01,3.81c-1.07-0.16-3.22-0.47-4.29-0.63
	c-2.38,2.58-2.86,6.04-3.29,9.38c-0.16,2.57-2.42,4.19-3.33,6.46l-0.96-0.09c0.03,2.73,0.3,5.47,0.94,8.13
	c0.72-0.23,2.17-0.69,2.9-0.91c-0.83,0.729-1.69,1.43-2.51,2.19c1.76,1.52,1.07,4.14,1.51,6.19c-0.11,2.64,1.1,6.08-1.62,7.819
	c0.11-1.569,0.3-3.119,0.43-4.681c-0.15-3.26-0.13-6.66-1.52-9.69c-1.02-2.4-2.47-4.84-1.97-7.56c0.76-3.1,4.27-4.76,4.73-7.99
	C32.85,45.04,30.82,42,32.17,39.1z"/>
<path fill="#020202" d="M48.98,32.81c2.78,1.46,5,3.79,6.63,6.44C51.68,39.8,51.72,34.56,48.98,32.81z"/>
<path fill="#020202" d="M45.03,39.3c0.65-0.29,1.3-0.58,1.95-0.88c1.07,1.26,2.15,2.51,3.27,3.73c-0.82,0.46-2.46,1.38-3.28,1.84
	c1.38-0.21,4.48,1.479,4.82-0.74c-0.3-0.33-0.89-0.99-1.19-1.32c1.75-0.29,3.51-0.56,5.27-0.78c-0.15,0.43-0.45,1.3-0.61,1.74
	c1.95,0.55,4.01,0.46,6,0.71c-5.64-0.63-11.34,3.09-16.63-0.36c0.08,0.52,0.23,1.56,0.3,2.08c-1.67-1.68-4.19-0.71-6.26-0.94
	c1.49-0.57,3-0.98,4.63-0.65c0.29-0.58,0.59-1.16,0.88-1.75c-0.9-0.83-1.75-1.71-2.55-2.64C42.48,39.33,44.18,39.31,45.03,39.3z"/>
<path fill="#C3C3C3" d="M63.359,43.33c1.031-0.75,2.931,0.66,2.17,1.84C64.51,45.97,62.66,44.47,63.359,43.33z"/>
<path fill="#0A0A0A" d="M40.43,45.83c3.02-0.32-0.56,3.55-2.09,2.85C37.83,47.39,39.55,46.43,40.43,45.83z"/>
<path fill="#9B9B9B" d="M45.54,46.11c1.21-0.85,1.96-0.6,2.25,0.73C46.57,47.68,45.83,47.43,45.54,46.11z"/>
<path fill="#FFFFFF" d="M53.34,53.91c-0.61-3.43,2.41-5.24,4.48-7.19c2.449-0.31,4.93-0.26,7.39-0.07c1.95,1.8,3.89,3.73,4.67,6.36
	c-2.75-3.06-6.71-4.47-10.739-3.28l0.779-1.62c-1.27,1.33-2.71,2.47-4.16,3.59C54.99,52.48,54.18,53.21,53.34,53.91z"/>
<path fill="#0A0A0A" d="M48.06,47.88c-0.13,0.71-0.26,1.43-0.31,2.16c-0.04,0.75-0.13,2.24-0.18,2.99
	c0.84,0.16,2.52,0.479,3.36,0.64c-0.78,0.57-1.54,1.18-2.34,1.73c0.24,2.28-0.84,4.06-2.9,5c0.96,1.93,2.51,4.11,4.98,2.75
	c-0.42,0.49-1.24,1.48-1.65,1.97c-2.44-0.99-4.22-3.28-7.01-3.59c2.1-1.96,5.85-3.33,5.2-6.87c-3.04-0.31-6.07-0.76-9.06-1.42
	c1.62-2.96,5.54-2.37,8.17-1.42C46.99,50.55,47.41,49.16,48.06,47.88z"/>
<path fill="#FDFDFD" d="M56.23,52.76c1.358-0.72,2.699-1.479,4.028-2.24c0.212,0.47,0.61,1.41,0.82,1.89
	c-1.601,0.51-3.181,1.06-4.78,1.56C56.279,53.67,56.25,53.06,56.23,52.76z"/>
<path fill="#6C6C6C" d="M66.311,52.29C66.85,52.84,66.85,52.84,66.311,52.29z"/>
<path fill="#595959" d="M32.45,53.45C33.05,54.05,33.05,54.05,32.45,53.45z"/>
<path fill="#939393" d="M76.01,54.12l0.471-0.56l0.811,0.41l0.04,0.95l-0.78,0.45C76.41,55.05,76.15,54.43,76.01,54.12z"/>
<path fill="#020202" d="M32.29,57.71c2.47-4.68,6.92,0.81,10.42-0.87c-0.67,2.13-2.78,1.96-4.58,2.11
	c-0.24-0.49-0.72-1.48-0.96-1.97C35.54,57.25,33.92,57.49,32.29,57.71z"/>
<path fill="#9B9B9B" d="M32.07,60.22C32.59,60.78,32.59,60.78,32.07,60.22z"/>
<path fill="#FDFDFD" d="M68.87,61.97c2.069-0.59,3.75-2.13,6.01-2.06c-0.93,2.59-3.38,3.86-5.67,5.06l0.49-1.12
	c-1.12-0.01-2.24-0.01-3.36,0.02l1.01,1.05c-2.49,1.43-5.17,2.55-8.02,3.05c-1.92,1.2-4.25,1.54-6.49,1.36
	c-1.26-3.86,4.01-2.72,6.15-3.77l0.02,2.33c0.62-1.02,1.19-2.08,1.75-3.14c2.83-1,5.74-1.97,8.79-1.58L68.87,61.97z"/>
<path fill="#0A0A0A" d="M51.7,62.53c0.56-1.91,2.7-1.25,4.2-1.47c0,0.41,0.01,1.23,0.02,1.65C54.51,62.65,53.11,62.59,51.7,62.53z"
	/>
<path fill="#9D9D9D" d="M40.33,62.01C43.32,60.44,40.51,65.34,40.33,62.01z"/>
<path fill="#FCFCFC" d="M36.98,64.03c0.7,0.88,1.4,1.76,2.14,2.61l0.41-1.71c1.16,1.12,1.21,2.65,1.15,4.15
	c-1.54-0.33-2.25-1.27-2.12-2.8c-0.91,0.53-1.83,1.06-2.74,1.59C36.2,66.59,36.59,65.31,36.98,64.03z"/>
<path fill="#F8F8F8" d="M71.029,64.98c0.65,0.96,1.311,1.92,1.979,2.87l0.83-2.02c0.41,3.25,0.181,6.52-0.198,9.75
	c-0.562,0.48-1.69,1.42-2.262,1.891c0.092-0.9,0.262-2.711,0.352-3.611c-0.371,0.59-1.11,1.781-1.48,2.371
	c-1.66,0.561-3.279,1.319-5.029,1.539c0.18-0.51,0.559-1.528,0.739-2.039c-1.14,0.641-2.3,1.261-3.479,1.851
	c-1.59,2.062-3.979,3.17-6.601,2.528l-0.25-0.658c-0.27-0.49-0.82-1.48-1.09-1.971c6.88,0.709,12.8-3.681,17.16-8.521
	c-0.63-0.51-1.261-1.02-1.89-1.53l0.27,1.88l-2.15-1.12C68.95,67.1,69.99,66.04,71.029,64.98z"/>
<path fill="#FDFDFD" d="M46.96,67.73c1.56-0.38,3.11-0.76,4.66-1.14c0.02,0.97,0.03,1.94,0.04,2.91
	C49.54,69.84,47.98,69.25,46.96,67.73z"/>
<path fill="#FAFAFA" d="M56.029,71.43c4.031-0.06,7.451-2.11,10.971-3.79c0.29,1.02,0.58,2.04,0.87,3.06
	c-1.75,1.23-6.25,5.88-5.89,0.71c-0.541,0.52-1.09,1.03-1.65,1.53l1.15,1.951c-1.66,0.689-3.41,1.061-5.211,1.029
	C56.18,74.42,56.1,72.93,56.029,71.43z"/>
<path fill="#FFFFFF" d="M41.33,72.81l4.99-2.67l-1.31,2.97c0.72-0.2,2.16-0.59,2.88-0.78c0.81,1.39,0.76,3.02,0.51,4.561
	c-1.76-0.939-2.95-2.511-3.93-4.189L41.33,72.81z"/>
<path fill="#FFFFFF" d="M49.65,72.58c1.67-0.19,3.33-0.44,4.99-0.74c0.03,1.42,0.07,2.84,0.12,4.26c-1.43,0.07-2.86,0.131-4.28,0.2
	C50.21,75.061,49.94,73.82,49.65,72.58z"/>
<path fill="#CECECE" d="M43.1,74.28C46.49,74.47,41.58,77.3,43.1,74.28z"/>
<path fill="#232323" d="M22.27,76.98c1.63-0.9,2.02,1.648,0.47,1.938C21.12,79.79,20.74,77.27,22.27,76.98z"/>
<path fill="#F6F6F6" d="M37.6,78.03c1.34-1.64,3.28-1.66,5.15-1.2c0.96,0.71,1.9,1.45,2.83,2.2c-0.47,0.35-1.4,1.05-1.87,1.399
	C41.44,80.391,39.36,79.391,37.6,78.03z"/>
<path fill="#C6C6C6" d="M42.75,76.83c3.92,0.4,7.86,0.45,11.79,0.65c0.27,0.488,0.82,1.479,1.09,1.97l0.25,0.659
	c-2.15-0.229-4.3-0.199-6.44,0.25c1.34,0.041,5.04,1.291,1.78,1.871c-2.78,0.22-5.56,0.229-8.35,0.188l0.03-1.38
	c0.2-0.148,0.61-0.45,0.81-0.609c0.47-0.351,1.4-1.051,1.87-1.399C44.65,78.28,43.71,77.54,42.75,76.83z"/>
<path fill="#FFFFFF" d="M68.37,78.37C68.65,78.65,68.65,78.65,68.37,78.37z"/>
<path fill="#F6F6F6" d="M34.34,79.891c2.75-3.109,5.57,0.561,8.56,1.149l-0.03,1.38C39.79,82.6,36.88,81.59,34.34,79.891z"/>
<path fill="#FBFBFB" d="M61.15,79.23c1.75,0.56,3.289,0.31,4.629-0.771c0.621,0.479,1.229,0.96,1.851,1.439
	c-4.42,0.641-7.68,4.229-12.1,4.869c-6.19,1.36-12.72,4.041-19.03,1.86c-2.54-0.64-4-2.95-5.4-4.96c0.76-0.35,2.3-1.061,3.06-1.41
	c5.19,3.771,11.87,1.92,17.81,2.37c0.32-0.19,0.96-0.569,1.27-0.76c1.79-0.28,3.59-0.49,5.4-0.49l0.549-0.351
	c0.621-0.139,1.871-0.43,2.49-0.579L61.15,79.23z"/>
<path fill="#FFFFFF" d="M70.12,79.08c1.58-0.41,3.271,0.779,2.25,2.43C69.68,89.189,67,97.3,62.141,103.8
	c-0.229-0.61-0.681-1.84-0.91-2.45c1.209-1.108,2.5-2.18,3.399-3.58c0.07-0.148,0.21-0.43,0.28-0.568l-0.45,0.18l0.17,0.391
	c-1.46,0.569-2.71,1.479-3.729,2.729c-0.471-0.46-0.939-0.92-1.399-1.38c3.011-2.189,5.778-4.82,7.87-7.92
	c-4.359,3.479-8.45,7.39-12.37,11.37c1.351-0.632,2.681-1.271,4.011-1.931c-0.199,0.959-0.591,2.879-0.789,3.83l0.85-2.111
	c0.619,0.9,1.22,1.802,1.85,2.701c-0.17,2.17-2.37,3.83-3.48,5.681c-2.27-3.29-5.258-7.49-2.778-11.5c1.619-0.431,3-1.302,3.698-2.9
	l0.461,0.2l0.431-0.41c0.49-1.068,0.49-1.068,0,0c-0.221,0.051-0.67,0.16-0.892,0.21c-0.629,0.181-1.868,0.53-2.488,0.71l-0.07-0.54
	c1.521-1.438,3.181-2.72,4.88-3.93c0.09,0.312,0.279,0.91,0.369,1.22c1.521,0.7,1.852-4.18,3.811-2.05
	c1.351-1.38,1.861-3.149,1.891-5.05C70.18,85.92,69.38,81.66,70.12,79.08 M55.98,106.1c-0.18,1.37,0.411,1.852,1.78,1.432
	C57.939,106.12,57.34,105.65,55.98,106.1z"/>
<path fill="#FCFCFC" d="M55.02,86.43c5.3-1.029,9.509-4.729,14.55-6.49c-0.53,1.312-1.18,2.61-1.03,4.08l-1.45-0.26
	c-4.39,3.07-7.93,7.6-13.03,9.521c0.93,0.51,1.84,1.029,2.75,1.56c-0.65,0.341-1.972,1-2.622,1.33l0.27,0.431
	c0.36,0.109,1.06,0.33,1.41,0.449l0.14,0.602c-0.84,0.938-1.95,1.51-3.1,2c-0.52-2.961-2.96-5.07-5.63-6.11
	c0.73,0.89,1.5,1.75,2.28,2.62c-1.14,2.32-2.47,4.529-3.63,6.83c-0.5-0.23-1.49-0.69-1.99-0.92c-1.39-2.381-0.72-6.04,0.83-8.42
	c-2.15,0.568-2.8,2.52-2.54,4.55c-1.16,1.94-2.3,3.899-3.52,5.8c0.19,1.68-0.74,3-1.9,4.09c-0.58-6,0.69-11.939,0.7-17.93
	c-0.47-0.48-1.39-1.43-1.86-1.91c0.48,0.27,1.45,0.811,1.93,1.07C43.58,89.82,49.26,87.73,55.02,86.43 M40.04,92.02
	c-0.32,2.48-0.54,4.98-1.01,7.44c0.46-0.92,0.91-1.851,1.36-2.78C40.3,95.12,40.46,93.54,40.04,92.02z"/>
<path fill="#FFFFFF" d="M57.189,92.79c3.531-2.729,6.91-5.66,10.521-8.3c-1.601,3-4.34,4.979-7.11,6.77l0.771,0.36
	C60.32,91.91,58.23,92.49,57.189,92.79z"/>
<path fill="#0A0A0A" d="M40.04,92.02c0.42,1.521,0.26,3.102,0.35,4.66c-0.45,0.93-0.9,1.86-1.36,2.78
	C39.5,97,39.72,94.5,40.04,92.02z"/>
<path fill="#525252" d="M59.25,96.13C59.74,95.061,59.74,95.061,59.25,96.13z"/>
<path fill="#6D6D6D" d="M58.359,96.34c0.221-0.05,0.67-0.16,0.891-0.21l-0.43,0.41L58.359,96.34z"/>
<path fill="#494949" d="M64.46,97.38l0.45-0.18c-0.07,0.14-0.21,0.42-0.28,0.569L64.46,97.38z"/>
<path fill="#FDFDFD" d="M50.61,97.79c1.61,1.21,0.94,3.43,1.29,5.14c0.26,3.41,2.85,5.99,5.29,8.102
	c-2.718,3.568-5.75,6.89-8.628,10.34c-0.13-2.82,1.09-5.54,0.71-8.352c-0.37-3.06-1.27-6.02-1.99-9
	C48.32,101.91,49.47,99.85,50.61,97.79z"/>
<path fill="#FCFCFC" d="M59.01,100.641c0.211-0.061,0.631-0.189,0.83-0.261l-0.25,0.57L59.01,100.641z"/>
<path fill="#FFFFFF" d="M41.99,104.109c0.24,0.021,0.72,0.051,0.96,0.07c0.43,1.329,0.7,2.689,0.83,4.09
	c0.82-1.17,1.63-2.34,2.46-3.5c0.8,3.989,1.7,8.069,0.96,12.149c-1.05,10.46-6.52,19.79-8.28,30.08H26.87
	c0.96-10.95,4.15-21.59,8.99-31.431C37.92,111.76,39.05,107.41,41.99,104.109z"/>
<path fill="#0A0A0A" d="M55.98,106.1c1.36-0.449,1.959,0.021,1.78,1.432C56.391,107.95,55.8,107.47,55.98,106.1z"/>
</svg>
