<?xml version="1.0" encoding="utf-8"?>
<!-- Generator: Adobe Illustrator 15.0.2, SVG Export Plug-In . SVG Version: 6.00 Build 0)  -->
<!DOCTYPE svg PUBLIC "-//W3C//DTD SVG 1.1//EN" "http://www.w3.org/Graphics/SVG/1.1/DTD/svg11.dtd">
<svg version="1.1" id="Layer_1" xmlns="http://www.w3.org/2000/svg" xmlns:xlink="http://www.w3.org/1999/xlink" x="0px" y="0px"
	 width="205px" height="221px" viewBox="0 0 205 221" enable-background="new 0 0 205 221" xml:space="preserve">
<path fill="#FFFFFF" d="M0,0h205v221H65.23c0-3.73,0-7.46,0.02-11.2c-0.52-0.78-1.04-1.569-1.54-2.36
	c2.07-1.43,3.89-3.188,5.9-4.709c5.93,1.141,11.19,4.149,16.48,6.869c4.93,1.23,9.12,4.352,14.1,5.461l0.09-0.279
	c1.3-2.74,0.99-5.83,1-8.771c-0.08-9.699-0.02-19.4-0.03-29.1l-1.37,0.06c-0.65,0.021-1.95,0.08-2.6,0.11
	c-8.8,5.279-18.69,8.6-27.11,14.52l-0.5,0.92c-1.34-1.05-2.65-2.14-4.03-3.14l-1-0.08c0.54-0.569,1.6-1.7,2.14-2.27
	c-0.13-3.681-0.12-7.36-0.03-11.03c-0.38-0.391-1.14-1.18-1.52-1.57c2.56-0.42,5.11-0.869,7.64-1.42c1.77-0.43,3.57-0.689,5.37-0.92
	c4.92-2.449,10.56-2.33,15.67-4.18c3.8-1.41,8.07-0.38,11.779-2.16c10.67-4.79,20.771-10.85,31.67-15.13
	c6.091-1.62,11.42-5.04,16.811-8.19c6.25-3.229,12.27-7.039,17.07-12.24c5.01-3.59,9.039-8.479,11.75-14.02
	c1.38-2.75,2.01-5.87,3.75-8.45c4.18-5.22,10.189-8.88,13.43-14.85c1.26-2.07,2.939-3.87,3.95-6.09
	c0.39-5.85,0.021-11.73,0.149-17.6c-1.709-2.17-3.181-4.5-4.789-6.74c-2.75-3.43-6.352-6.06-9.09-9.49
	c-0.052-2.26-0.012-4.52,0-6.78c0.698-0.1,2.108-0.31,2.818-0.41c0-4-0.01-7.99,0.021-11.99c-1.82-0.02-3.631-0.04-5.44-0.06
	c-0.03-0.58-0.069-1.72-0.101-2.29c-2.789-0.09-2.859-2.4-2.91-4.56c-0.639-0.05-1.899-0.15-2.539-0.2
	c-0.07-0.53-0.2-1.58-0.271-2.11c-1.671-0.88-3.211-1.97-4.601-3.23c-0.57-0.15-1.7-0.44-2.262-0.59c0-1.09,0-2.18,0-3.27
	c-1.77-0.36-2.84-1.49-3.219-3.22c-1.031-0.05-2.061-0.1-3.091-0.16c-0.64-1.27-1.21-2.6-2.069-3.74
	c-2.291-0.65-5.84,0.43-6.061-2.99c-0.75-0.13-1.49-0.27-2.24-0.4c0-1.37-0.01-2.75-0.01-4.12c-3.189-0.03-6.35,0.4-9.199,1.9
	c-0.171,0.76-0.521,2.29-0.701,3.06c-1.35-1.38-2.398-3-3.119-4.79c-1.721,0.02-3.439,0.03-5.16,0.05
	c-1.561,1-3.131,1.97-4.689,2.96c-0.85-0.94-1.689-1.88-2.55-2.81c-2.05-0.09-4.21-0.26-4.32-2.88c-2.688-0.02-5.368-0.03-8.06-0.08
	c-1.102,1.07-2.221,2.14-3.352,3.19c-0.188,0.77-0.58,2.32-0.77,3.09c-3.061-1.79-5.471-4.54-8.75-5.98
	c-2.17-0.4-4.41-0.22-6.61-0.27c-0.95,1.62-1.93,3.22-2.9,4.83C97.4,4,96.55,2.9,95.71,1.8c-1.96-0.04-3.93-0.08-5.89-0.13
	c-0.86,0.95-1.72,1.89-2.58,2.85c-4.57,0.01-9.14,0.04-13.71-0.07c-0.41,0.36-1.23,1.09-1.64,1.45c-3.45-0.08-7.16,0.57-10.33-1.16
	c-1.61-0.15-3.23-0.26-4.84-0.38c-0.51,0.47-1.54,1.42-2.05,1.89c-0.01,0.56-0.03,1.69-0.04,2.25c-1.99,1.26-4.29,1.58-6.59,1.71
	c-0.42-0.4-1.25-1.2-1.67-1.6c-0.91,0.02-2.72,0.07-3.62,0.1c-2.44,3.06-6.88,4.12-8.33,7.94c-3.71,1.26-7.54,2.17-11.48,1.7
	c-2.86,3.93-5.22,8.47-4.65,13.5c1.13,0.06,2.26,0.13,3.4,0.19c0.74-2.13,1.55-4.23,2.32-6.34c0.68,1.03,1.36,2.06,2.05,3.09
	l0.9,1.26c-3.28,3.25-7.36,6.57-6.93,11.74c-0.67,0.06-2,0.18-2.66,0.24c-0.44,0.52-1.31,1.57-1.75,2.1
	c0.01,0.71,0.01,2.14,0.01,2.85c1.4,0.18,2.79,0.38,4.19,0.58c-2.15,3.86-5.82,6.34-9.53,8.53c-1.93,3.4-4.56,6.79-4.44,10.9
	c-0.16,4.97-0.32,9.95-0.16,14.92c1.45,2.21,2.7,4.55,3.5,7.08c1.86,2.84,3.63,5.81,4.67,9.06c1.07,11.28-0.98,22.79,1.31,33.96
	c-2.19,7.771-2.94,15.87-2.02,23.891c2.58,5.92,6.34,11.91,12.54,14.521c3.97,1.601,7.93,3.92,12.34,3.78
	c5.79-0.04,11.59,0.08,17.37-0.15c-1.36,4.432-0.68,9.102-0.8,13.66c-0.57,0.102-1.7,0.311-2.27,0.41
	c-0.69,0.64-1.38,1.271-2.07,1.898c-2.77-1.608-5.47-3.379-7.71-5.709c-0.53-0.189-1.59-0.561-2.12-0.739
	c-0.61-0.591-1.22-1.181-1.82-1.761c-3.49-2.16-6.58-4.899-10.11-7c-1.79-1.029-3.27-2.471-4.55-4.08
	c-1.78-1.09-3.56-2.181-5.33-3.301c-1.42-0.02-2.83-0.05-4.25-0.07c0.11,13.222,0.13,26.44,0,39.66c3.25,0.041,6.51,0.07,9.77,0.131
	c0.38-0.409,1.12-1.211,1.49-1.609c5.5,0.602,10.75-1.391,16.2-1.62c1.87-0.479,3.74-0.91,5.64-1.25c1.69,1.32,3.22,2.84,4.88,4.21
	c0.53,0.09,1.58,0.28,2.11,0.37c-2.53,4.13-0.96,9.188-1.35,13.75H0V0z"/>
<path fill="#E14509" d="M101.14,0.27c2.2,0.05,4.44-0.13,6.61,0.27c3.279,1.44,5.689,4.19,8.75,5.98c0.189-0.77,0.58-2.32,0.77-3.09
	c1.131-1.05,2.25-2.12,3.352-3.19c2.689,0.05,5.37,0.06,8.061,0.08c0.109,2.62,2.271,2.79,4.319,2.88c0.858,0.93,1.7,1.87,2.55,2.81
	c1.561-0.99,3.131-1.96,4.69-2.96c1.72-0.02,3.438-0.03,5.159-0.05c0.721,1.79,1.771,3.41,3.119,4.79
	c0.182-0.77,0.53-2.3,0.701-3.06c2.85-1.5,6.01-1.93,9.199-1.9c0,1.37,0.01,2.75,0.01,4.12c0.75,0.13,1.49,0.27,2.24,0.4
	c0.221,3.42,3.77,2.34,6.061,2.99c0.859,1.14,1.431,2.47,2.069,3.74c1.03,0.06,2.06,0.11,3.091,0.16
	c0.379,1.729,1.449,2.86,3.219,3.22c0,1.09,0,2.18,0,3.27c0.562,0.15,1.69,0.44,2.262,0.59c1.391,1.26,2.93,2.35,4.602,3.23
	c0.068,0.53,0.198,1.58,0.27,2.11c0.64,0.05,1.9,0.15,2.539,0.2c0.051,2.16,0.121,4.47,2.91,4.56c0.031,0.57,0.07,1.71,0.101,2.29
	c1.81,0.02,3.62,0.04,5.44,0.06c-0.03,4-0.021,7.99-0.021,11.99c-0.71,0.1-2.12,0.31-2.818,0.41c-0.012,2.26-0.052,4.52,0,6.78
	c-0.972-0.01-2.92-0.04-3.892-0.05c-0.028-0.65-0.08-1.93-0.101-2.58c-0.021-0.54-0.069-1.64-0.09-2.18
	c-2.66-3.34-2.601-7.58-2.351-11.62c-1.69-0.56-3.36-1.14-5.01-1.81l-0.47-0.42l-0.312-0.44c-0.021-0.98,0-1.96,0.021-2.93
	c-0.529-0.11-1.569-0.32-2.101-0.42l-0.698-0.26c-1.812-1.92-3.521-3.95-4.99-6.15c-0.49-0.15-1.461-0.47-1.94-0.63
	c-0.04-0.57-0.11-1.7-0.149-2.27c-1.381-0.13-2.771-0.27-4.149-0.4c0.062-0.64,0.188-1.93,0.25-2.58c0.13-1.28,0.26-2.55,0.38-3.83
	c-1.898,0.36-3.79,0.75-5.682,1.12c-1.67-0.22-3.34-0.48-5-0.72c0.4-1.19,0.781-2.39,1.132-3.59c-5.211-0.57-10.79,0.93-15.711-1.34
	c-1.181,1.25-2.351,2.52-3.521,3.8c-0.42,0.45-1.27,1.36-1.699,1.82c-2.431-0.07-4.859-0.11-7.291-0.17
	c-0.108-0.39-0.33-1.19-0.438-1.58c-1.351-2.11-3.04-3.96-4.66-5.85c-0.96,1.07-1.93,2.14-2.892,3.2
	c-2.85-0.03-5.688-0.04-8.528-0.09c-1-1.13-2-2.27-3.021-3.38c-0.149,0.74-0.45,2.22-0.601,2.96c-0.93,1.1-1.851,2.21-2.76,3.32
	c-1.5,0.11-3,0.24-4.49,0.4c-0.22-0.3-0.65-0.91-0.87-1.21c-0.9-1.27-1.82-2.53-2.74-3.78c-1.79,0.01-3.58,0.02-5.38,0.03
	c-0.62,0.77-1.25,1.53-1.88,2.3c-0.1,1.1-0.2,2.2-0.31,3.29c-1.72,0.28-3.45,0.48-5.19,0.62c-1.4-1.51-2.82-3.01-4.23-4.51
	c-1.79,0.01-3.57,0.03-5.35,0.05c-0.06,0.55-0.17,1.67-0.22,2.23c-0.49,0.57-1.48,1.71-1.98,2.28c-0.94,0.03-1.88,0.09-2.82,0.17
	c-1.88-1.67-3.81-3.66-6.55-3.46c-1.69,2.2-4.35,2.53-6.95,2.47c0.15,1.23,0.31,2.45,0.47,3.68c-1.06,0.12-2.13,0.2-3.2,0.25
	c-1.06-0.18-3.18-0.55-4.24-0.73c-1.02-1.06-2.03-2.11-3.04-3.17c-1.07,1.28-2.13,2.56-3.18,3.84c-0.81,4-5.1,4.96-8.1,6.85
	c-1.17-0.1-2.34-0.2-3.51-0.3c0.19,0.52,0.58,1.56,0.77,2.08c-1.37,0.96-2.75,1.91-4.17,2.79l-0.9-1.26
	c-0.69-1.03-1.37-2.06-2.05-3.09c-0.77,2.11-1.58,4.21-2.32,6.34c-1.14-0.06-2.27-0.13-3.4-0.19c-0.57-5.03,1.79-9.57,4.65-13.5
	c3.94,0.47,7.77-0.44,11.48-1.7c1.45-3.82,5.89-4.88,8.33-7.94c0.9-0.03,2.71-0.08,3.62-0.1c0.42,0.4,1.25,1.2,1.67,1.6
	c2.3-0.13,4.6-0.45,6.59-1.71c0.01-0.56,0.03-1.69,0.04-2.25c0.51-0.47,1.54-1.42,2.05-1.89c1.61,0.12,3.23,0.23,4.84,0.38
	c3.17,1.729,6.88,1.08,10.33,1.16c0.41-0.36,1.23-1.09,1.64-1.45c4.57,0.11,9.14,0.08,13.71,0.07c0.86-0.96,1.72-1.9,2.58-2.85
	c1.96,0.05,3.93,0.09,5.89,0.13c0.84,1.1,1.69,2.2,2.53,3.3C99.21,3.49,100.19,1.89,101.14,0.27 M187.91,38.06
	c-0.641,1.45,0.18,2.54,1.689,2.75C189.18,39.75,189.689,35.77,187.91,38.06z"/>
<path fill="#FFFFFF" d="M107.48,7.6c1.02,1.11,2.02,2.25,3.02,3.38c2.84,0.05,5.68,0.06,8.529,0.09c0.961-1.06,1.931-2.13,2.891-3.2
	c1.62,1.89,3.311,3.74,4.66,5.85c-7.49,0.312-14.98,0-22.46,0.16c0.909-1.11,1.83-2.22,2.76-3.32
	C107.029,9.82,107.33,8.34,107.48,7.6z"/>
<path fill="#FFFFFF" d="M90.64,9.32c1.8-0.01,3.59-0.02,5.38-0.03c0.92,1.25,1.84,2.51,2.74,3.78l-0.41,0.71
	c-3.29,0.49-6.57,1.12-9.9,1.13c0.11-1.09,0.21-2.19,0.31-3.29C89.39,10.85,90.02,10.09,90.64,9.32z"/>
<path fill="#FFFFFF" d="M136.01,13.65c1.17-1.28,2.34-2.55,3.52-3.8c4.922,2.27,10.5,0.77,15.712,1.34
	c-0.351,1.2-0.729,2.4-1.132,3.59C148.061,14.63,142.04,14.1,136.01,13.65z"/>
<path fill="#FFFFFF" d="M73.68,11.07c1.78-0.02,3.56-0.04,5.35-0.05c1.41,1.5,2.83,3,4.23,4.51c-3.92,0.34-7.85,0.17-11.78,0.05
	c0.5-0.57,1.49-1.71,1.98-2.28C73.51,12.74,73.62,11.62,73.68,11.07z"/>
<path fill="#FFFFFF" d="M62.11,12.29c2.74-0.2,4.67,1.79,6.55,3.46c-0.03,0.48-0.08,1.44-0.11,1.92c-1.89-0.26-3.77-0.53-5.65-0.84
	c-2.42,0.55-4.84,1.11-7.27,1.61c-0.16-1.23-0.32-2.45-0.47-3.68C57.76,14.82,60.42,14.49,62.11,12.29z"/>
<path d="M98.76,13.07c0.22,0.3,0.65,0.91,0.87,1.21c1.49-0.16,2.99-0.29,4.49-0.4c7.479-0.16,14.97,0.15,22.46-0.16
	c0.109,0.39,0.33,1.19,0.439,1.58c2.431,0.06,4.859,0.1,7.291,0.17c0.43-0.46,1.278-1.37,1.698-1.82
	c6.03,0.45,12.052,0.98,18.101,1.13c1.66,0.24,3.33,0.5,5,0.72c1.761,0.91,3.531,1.81,5.301,2.71c-0.061,0.65-0.189,1.94-0.25,2.58
	c1.38,0.13,2.77,0.27,4.15,0.4c0.039,0.57,0.108,1.7,0.148,2.27c0.479,0.16,1.45,0.48,1.939,0.63c1.471,2.2,3.181,4.23,4.99,6.15
	c0.989,1.15,1.889,2.38,2.779,3.61l0.311,0.44l0.471,0.42c1.68,5.56,4.26,10.77,7.449,15.61c0.021,0.65,0.07,1.93,0.101,2.58
	c0.972,0.01,2.92,0.04,3.892,0.05c2.738,3.43,6.34,6.06,9.09,9.49c1.608,2.24,3.08,4.57,4.789,6.74
	c-0.129,5.87,0.239,11.75-0.149,17.6c-1.011,2.22-2.69,4.02-3.95,6.09c-3.24,5.97-9.25,9.63-13.43,14.85
	c-1.74,2.58-2.37,5.7-3.75,8.45c-2.711,5.54-6.74,10.43-11.75,14.02c-4.801,5.201-10.82,9.012-17.07,12.24
	c-5.391,3.15-10.72,6.57-16.811,8.19c-10.899,4.28-21,10.34-31.67,15.13c-3.709,1.78-7.979,0.75-11.779,2.16
	c-5.11,1.85-10.75,1.73-15.67,4.18c-1.8,0.23-3.6,0.49-5.37,0.92c-2.53,0.551-5.08,1-7.64,1.42c0.38,0.391,1.14,1.18,1.52,1.57
	c-0.09,3.67-0.1,7.35,0.03,11.03c-0.54,0.569-1.6,1.7-2.14,2.27c-2.62-0.04-5.24,0.03-7.87,0.101c-0.54-0.42-1.63-1.271-2.17-1.689
	c0.12-4.561-0.56-9.229,0.8-13.66c-5.78,0.23-11.58,0.11-17.37,0.15c-4.41,0.14-8.37-2.182-12.34-3.78
	c-6.2-2.608-9.96-8.601-12.54-14.521c-0.92-8.021-0.17-16.119,2.02-23.891c-2.29-11.17-0.24-22.68-1.31-33.96
	c-1.04-3.25-2.81-6.22-4.67-9.06c-0.8-2.53-2.05-4.87-3.5-7.08c-0.16-4.97,0-9.95,0.16-14.92c-0.12-4.11,2.51-7.5,4.44-10.9
	c3.71-2.19,7.38-4.67,9.53-8.53c-1.4-0.2-2.79-0.4-4.19-0.58c0-0.71,0-2.14-0.01-2.85c0.44-0.53,1.31-1.58,1.75-2.1
	c0.66-0.061,1.99-0.18,2.66-0.24c-0.43-5.17,3.65-8.49,6.93-11.74c1.42-0.88,2.8-1.83,4.17-2.79c2.21-1.17,4.35-2.45,6.53-3.65
	c2.58-1.36,5.59-0.93,8.39-1.22c1.8-0.15,3.58-0.51,5.37-0.82c-1.57-0.43-3.14-0.85-4.71-1.27c1.92-0.47,3.86-0.93,5.72-1.61
	c1.07-0.05,2.14-0.13,3.2-0.25c2.43-0.5,4.85-1.06,7.27-1.61c1.88,0.31,3.76,0.58,5.65,0.84c0.03-0.48,0.08-1.44,0.11-1.92
	c0.94-0.08,1.88-0.14,2.82-0.17c3.93,0.12,7.86,0.29,11.78-0.05c1.74-0.14,3.47-0.34,5.19-0.62c3.33-0.01,6.61-0.64,9.9-1.13
	L98.76,13.07 M83.92,18.75c-3.73,1.11-7.65,0.66-11.47,0.8c0.11,0.44,0.33,1.33,0.45,1.77c-3.29,0.15-6.58,0.92-9.86,0.26
	c-3.31-0.68-5.89,3.62-9.14,1.06c-2.43,0.6-4.69,1.68-6.93,2.76c-2.29,0.38-4.84,0.11-6.75,1.71c-2.86,2.25-5.79,4.39-9.18,5.78
	c-0.76,1.06-1.89,1.66-3.11,2.05c-1.08,1.01-2.14,2.05-3.21,3.08c-0.25,1.22-0.5,2.44-0.73,3.66c4.64,0.11,9.28,0.14,13.92-0.03
	c0.62,0.14,1.84,0.42,2.45,0.56c0.09,0.98,0.21,1.96,0.38,2.93c-0.47,3.57-0.25,7.18-0.27,10.77c0.55-0.08,1.65-0.23,2.2-0.31
	c1.75-2.49,4.63-3.6,7.2-5.02c4.38-0.06,8.76-0.15,13.14,0.04c1.21,0.94,2.76,0.94,4.22,1.1c4.13,1.75,7.32,4.82,10.63,7.74
	c1.38-0.94,2.78-1.87,4.21-2.73c0.09-0.68,0.26-2.04,0.35-2.72c2.07-3.2,0.85-7.18,1.13-10.75c0.03-1.39,0.06-2.79,0.09-4.19
	c1.37,0.05,2.74,0.1,4.12,0.16c-0.02,0.63-0.04,1.91-0.06,2.55c-0.12,4.99,0.25,10-0.17,14.97c-0.32,0.27-0.94,0.81-1.25,1.08
	c0.06,0.66,0.2,1.98,0.27,2.64c-0.97,0.91-1.94,1.83-2.93,2.72c-0.01,0.46-0.04,1.4-0.05,1.87c-0.97,0.79-1.93,1.6-2.89,2.41
	c0.02,1.12,0.02,2.24,0.02,3.37c-0.58,0.15-1.75,0.45-2.33,0.61c-1.56,2.99-3.79,5.54-6.24,7.84c-1.27,0.4-2.59,0.99-3.15,2.3
	c-0.7-1.66-2.1-2.83-3.29-4.11l0.34-0.33c0.88-2.05,3.19-1.99,5.05-2.36c-6.18-1.63-12.73-1.31-19-0.35
	c-4.31-0.09-7.06-4.6-11.55-3.9c-0.04-1.55-0.09-3.11-0.09-4.66c-1.94-1.27-3.42-2.89-2.84-5.37c-0.37-0.39-1.12-1.15-1.5-1.54
	c0.06-0.59,0.17-1.79,0.23-2.39c-0.02-3.45-0.02-6.91,0.05-10.37c-4.09-0.3-8.23-0.26-12.31,0.17c-0.71,1.87-1.26,3.79-1.89,5.69
	c-2.02,2.06-4.1,4.09-6.59,5.6c-2.93,1.94-4.57,5.09-5.95,8.21c-0.04,2.41,0.2,4.91-0.77,7.2c0.31,2.82-1.51,8.06,2.43,8.82
	c0.02,0.68,0.06,2.03,0.07,2.71l1.29-0.19c-0.02,0.68-0.04,2.03-0.05,2.71c1.38,1.47,2.7,3.05,3.3,5.01
	c0.77,1.55,1.95,3.01,1.84,4.84c1.53,7.91,0.59,16.02,0.83,24.03c-0.2,6.35,0.58,12.75-0.54,19.04c-2.26,4.29-1.03,9.31-1.26,13.94
	c1.7,2.82,3.33,5.68,5.03,8.5c3.39,2.71,7.05,5.21,11.12,6.81c3.02,0.63,5.96,1.55,8.99,2.13c5,0.16,10-0.029,15.01,0.07
	c6.87,0.26,13.33-2.75,20.1-3.26c1-0.471,1.99-0.94,2.99-1.41c1.68-0.189,3.36-0.311,5.03-0.471c1.24-0.771,2.68-0.93,4.09-1.109
	c1.96-0.84,3.99-1.529,5.97-2.35c2.69-0.75,5.5-0.041,8.23-0.5c2.24-1.11,4.41-2.34,6.52-3.69c0.552-0.09,1.642-0.28,2.19-0.37
	c0.511-0.32,1.53-0.949,2.04-1.27c5.11-2.062,9.891-4.84,15.09-6.67c0.5-0.291,1.48-0.881,1.971-1.17c1.279-0.49,2.58-0.94,3.83-1.5
	c0.459-0.271,1.391-0.801,1.851-1.062c2.17-0.79,4.33-1.62,6.55-2.29l0.11-0.68c3.22-1.5,6.528-2.91,9.31-5.16l0.83,0.102
	l-0.22-1.291l1.46,0.409l-0.38-1.43c0.38,0.05,1.13,0.17,1.51,0.229c0.642-0.33,1.91-1,2.55-1.33l0.092-0.75
	c0.35-0.029,1.039-0.08,1.379-0.109c0.59-0.36,1.771-1.08,2.359-1.439c0.021-0.41,0.061-1.221,0.08-1.631
	c0.49,0.061,1.46,0.19,1.939,0.25l0.199-0.71c2.48-1.56,4.33-3.88,6.271-6.04c0.72-0.55,1.439-1.1,2.158-1.658
	c3.16-3.211,5.25-7.15,7.49-11c0-0.602,0-1.802-0.01-2.4c0.86-1.78,1.99-3.4,3.19-4.96c1.899-1.771,3.75-3.61,5.5-5.53
	c-1.72,0.18-3.431,0.4-5.15,0.5c0.83-0.53,1.671-1.03,2.53-1.51l-0.01-0.48c1.5-0.17,3.06-0.22,4.41-0.97
	c1.108-0.73,2.229-1.45,3.318-2.19c1.45-3.46,3.881-6.34,6.07-9.34c0.22-1.76-0.602-4.05,1.09-5.29c0.262-3.76,0.13-8.08-2.63-10.96
	c-1.729-2.84-3.54-5.65-5.88-8.02c-0.82-0.6-1.62-1.2-2.422-1.82l0.121-0.54c-0.989-0.54-2.01-1.02-3.061-1.44l0.061-0.33
	c-1.42-0.44-2.699-1.24-3.221-2.71c-1.17-2.2-2.99-3.94-4.68-5.73c-0.13-0.51-0.391-1.52-0.52-2.03c-1.32-1.09-2.19-3.29-4.17-3.1
	c-8.812-0.16-17.632,0.21-26.44-0.14c-0.271,4.92,0.36,9.83,0.659,14.74c-1.84,1.26-1.851,3.37-1.799,5.37
	c-1.802,1.44-1.222,3.72-1.17,5.72c-1.94,3.94-6.222,5.4-8.802,8.73c-1.18,0.17-2.35,0.35-3.528,0.52
	c-0.201,0.27-0.602,0.8-0.802,1.07c-4.739,0.07-9.479-0.04-14.209,0.14c-4.271,0.74-6.94-3.34-10.579-4.72
	c-4.222-0.3-6.151-4.2-9.292-6.34c-0.18-0.39-0.54-1.17-0.72-1.55c-0.56-0.03-1.68-0.08-2.24-0.1c0.01-1.53,0.02-3.06-0.01-4.59
	c-0.83-0.88-1.43-1.92-1.82-3.07c-2.33-3.24-1.29-8-3.76-11.01c-0.04-2.12-0.03-4.25-0.05-6.37c0.03-1.35,0.08-2.7,0.13-4.05
	c0.96-0.03,2.87-0.1,3.83-0.14c0.1,1.41,0.19,2.81,0.28,4.22c-0.03,0.562-0.08,1.68-0.11,2.24c3.02,1.29,0.17,5.42,2.89,6.96
	c-0.02,1.15-0.04,2.31-0.06,3.46c0.5,0.03,1.52,0.08,2.02,0.1l0.1,1.56c0.41-0.76,0.82-1.51,1.22-2.27c0.52-0.1,1.56-0.32,2.08-0.43
	c1.74-1.25,3.512-2.46,5.102-3.9c0.278-0.02,0.84-0.06,1.119-0.08c0.529-1.31,1.659-2.03,3.029-2.26
	c5.75-2.01,11.898-1.63,17.891-1.4c1.871,0.97,4,0.74,6.041,0.81c3.278,0.63,5.229,3.79,8.56,4.14c0.149-2.98,0.13-5.97,0-8.96
	c0.05-1.33,0.11-2.67,0.17-4c0.81-0.03,2.431-0.1,3.239-0.14c0.521,0.4,1.551,1.19,2.07,1.58c8.541,0.77,17.079-0.2,25.641,0.1
	c-0.221-0.91-0.51-1.8-1.19-2.48c-0.489-0.96-1-1.9-1.521-2.83c-1-1.35-2.069-2.64-3.239-3.83c-0.271-0.49-0.81-1.46-1.08-1.95
	c-2.37-2.94-5.09-5.75-8.72-7.06c-1.021-0.69-2.021-1.4-2.971-2.18c-3.971-0.98-8.09-0.16-12.119-0.53
	c-5.41-1.54-11.09-0.54-16.631-0.9l0.59,1.26c-1.199,0.01-3.59,0.03-4.789,0.04l0.438-1.19c-9.47,0.04-18.97-0.31-28.42,0.13
	C92.12,18.96,87.9,17.65,83.92,18.75 M109.92,53.69c-1.17,0.91-2.59,1.38-3.93,1.96c-0.94,0.81-1.881,1.61-2.811,2.41
	c1.51,3.58,5.09,2.17,7.699,0.8c0.479-0.26,1.45-0.78,1.932-1.05c1.39-0.64,2.738-1.35,4.06-2.13c1.3,0.02,2.61,0.06,3.909,0.11
	c-0.01-1.79,0.021-3.58,0.131-5.37C117.55,52.6,113.01,50.62,109.92,53.69 M138.32,53.5c-0.03,0.51-0.1,1.52-0.131,2.03
	c1.721,0.32,3.439,0.65,5.149,1c0-0.54,0-1.61,0-2.15C141.68,54.03,140,53.76,138.32,53.5 M50.73,54.45c-0.23,0.3-0.7,0.9-0.93,1.2
	c3.3,0.22,6.6,0.15,9.9,0.11c0.01-0.35,0.02-1.06,0.03-1.41C56.73,54.36,53.71,54.1,50.73,54.45 M41.53,58.51
	c0.43-0.03,1.28-0.09,1.7-0.12c-0.32,1.58,0.15,2.76,1.41,3.53c-0.02,1.03-0.04,2.06-0.07,3.08c0.47,0.39,1.4,1.16,1.86,1.55
	c3.32,0.45,6.25,2.18,9.48,3c5.44,0.2,10.9,0.02,16.35,0.05c0.02-1.31,0.41-2.49,1.16-3.53c0.05-0.33,0.15-0.99,0.19-1.32
	c-1.87-0.92-3.68-1.95-5.42-3.08c-2.76-0.35-5.53-0.5-8.31-0.51c-4.67-2.41-10.02-0.48-14.87-2.01c-0.81-1.03-1.69-2.04-2.16-3.3
	C41.73,56.3,41.77,57.51,41.53,58.51 M123.141,58.74c-1.979,1-4.181,1.44-6.271,2.17c-0.47,0.22-1.42,0.64-1.89,0.85
	c-1.91,1.11-3.91,2.08-6.07,2.61c-0.439,0.34-1.32,1.03-1.76,1.37c-0.82-0.12-2.45-0.35-3.271-0.46c0.971,1.34,2.12,2.52,3.311,3.66
	c0.061,0.46,0.17,1.38,0.221,1.84c2.55,1.34,5.311,1.938,8.189,1.74c-0.011,0.68-0.039,2.06-0.051,2.75
	c5.131-0.27,10.46,0.82,15.381-1.07c6.34-0.2,7.579-7.43,11.301-11.22c-0.201-0.62-0.61-1.86-0.812-2.48
	c-1.892-0.5-3.931-0.66-5.59-1.77C131.6,58.57,127.359,58.46,123.141,58.74z"/>
<path fill="#FFFFFF" d="M159.109,15.5c1.891-0.37,3.781-0.76,5.681-1.12c-0.12,1.28-0.25,2.55-0.38,3.83
	C162.641,17.31,160.87,16.41,159.109,15.5z"/>
<path fill="#FFFFFF" d="M41.97,18.63c1.05-1.28,2.11-2.56,3.18-3.84c1.01,1.06,2.02,2.11,3.04,3.17c1.06,0.18,3.18,0.55,4.24,0.73
	c-1.86,0.68-3.8,1.14-5.72,1.61c-1.61,0.32-3.23,0.61-4.85,0.88c1.22,0.85,2.73,1.09,4.19,1.21c-2.8,0.29-5.81-0.14-8.39,1.22
	c-2.18,1.2-4.32,2.48-6.53,3.65c-0.19-0.52-0.58-1.56-0.77-2.08c1.17,0.1,2.34,0.2,3.51,0.3C36.87,23.59,41.16,22.63,41.97,18.63z"
	/>
<path fill="#FFFFFF" d="M83.92,18.75c3.98-1.1,8.2,0.21,12.17-1.04c9.45-0.44,18.95-0.09,28.42-0.13l-0.439,1.19
	c1.199-0.01,3.591-0.03,4.789-0.04l-0.59-1.26c5.541,0.36,11.222-0.64,16.631,0.9c4.029,0.37,8.149-0.45,12.119,0.53
	c0.951,0.78,1.951,1.49,2.972,2.18c3.63,1.31,6.35,4.12,8.72,7.06c0.271,0.49,0.811,1.46,1.08,1.95c1.17,1.19,2.238,2.48,3.238,3.83
	c0.521,0.93,1.031,1.87,1.521,2.83l0.58,2c-8.12-0.08-16.238-0.01-24.359,0.07c-0.101-2.08-0.189-4.16-0.279-6.24
	c-8.381,0.01-16.76,0.34-25.131-0.1c-0.93-0.05-2.799-0.15-3.739-0.2c-13.17-0.3-26.36-0.32-39.53,0.188
	c-9.05,1.58-18.26,0.95-27.39,1.09c-0.46,0.25-1.37,0.76-1.82,1.01l-0.81,0.47c-0.5,0.3-1.49,0.92-1.99,1.22
	c-3.55,0.08-7.1,0.07-10.65,0.07c-0.66,0.81-1.32,1.63-1.98,2.44c0.12,0.72,0.35,2.16,0.46,2.88c-4.64,0.17-9.28,0.14-13.92,0.03
	c0.23-1.22,0.48-2.44,0.73-3.66c1.07-1.03,2.13-2.07,3.21-3.08c1.22-0.39,2.35-0.99,3.11-2.05c3.39-1.39,6.32-3.53,9.18-5.78
	c1.91-1.6,4.46-1.33,6.75-1.71c2.24-1.08,4.5-2.16,6.93-2.76c3.25,2.56,5.83-1.74,9.14-1.06c3.28,0.66,6.57-0.11,9.86-0.26
	c-0.12-0.44-0.34-1.33-0.45-1.77C76.27,19.41,80.19,19.86,83.92,18.75 M104.9,19.42c0.699,0.1,2.108,0.29,2.81,0.38
	c-1.46,2.46,0.45,5.67,3.16,5.95c3.38,0.26,6.771,0.06,10.149,0.08c5.359-0.24,10.66,1.48,16.01,0.38
	c-1.789-1.94-4.539-1.23-6.869-1.59c-6.02-0.94-12.131-0.08-18.18-0.54c-2.222-0.34-3.201-2.46-4.121-4.22
	c2.08-0.12,4.17-0.2,6.24-0.41C111.029,19.38,107.971,19.47,104.9,19.42 M66.99,26.07c-3.65,1.89-7.91,2.08-11.54,3.97
	c-0.1,0.43-0.31,1.28-0.41,1.71c3.33-0.79,6.61-1.78,9.92-2.65c3.45-1.99,7.36-2.71,11.29-2.91C73.36,24.45,69.96,24.59,66.99,26.07
	 M80.96,29.72c-0.52,0.08-1.57,0.24-2.09,0.32c-2.38,0.61-5.04,0.15-7.21,1.51c3.45,0.52,6.94,0.22,10.37-0.29
	c1.14-1.13,2.29-2.25,3.49-3.33c-0.04-0.42-0.13-1.28-0.17-1.7C83.81,27.29,82.34,28.45,80.96,29.72 M96.91,26.41
	c5.83,4.22,13.449,2.65,20.17,3.12c-1.939-2.58-5.301-1.66-8.109-1.79C104.87,28.04,101.02,26.08,96.91,26.41z"/>
<path fill="#252525" d="M104.9,19.42c3.07,0.05,6.129-0.04,9.199,0.03c-2.07,0.21-4.16,0.29-6.24,0.41
	c0.92,1.76,1.899,3.88,4.121,4.22c6.049,0.46,12.16-0.4,18.18,0.54c2.33,0.36,5.08-0.35,6.869,1.59
	c-5.35,1.1-10.649-0.62-16.01-0.38c-3.379-0.02-6.771,0.18-10.149-0.08c-2.71-0.28-4.62-3.49-3.16-5.95
	C107.01,19.71,105.6,19.52,104.9,19.42z"/>
<path fill="#2B2B2B" d="M41.86,21.18c1.62-0.27,3.24-0.56,4.85-0.88c1.57,0.42,3.14,0.84,4.71,1.27c-1.79,0.31-3.57,0.67-5.37,0.82
	C44.59,22.27,43.08,22.03,41.86,21.18z"/>
<path fill="#1D1D1D" d="M66.99,26.07c2.97-1.48,6.37-1.62,9.26,0.12c-3.93,0.2-7.84,0.92-11.29,2.91c-3.31,0.87-6.59,1.86-9.92,2.65
	c0.1-0.43,0.31-1.28,0.41-1.71C59.08,28.15,63.34,27.96,66.99,26.07z"/>
<path fill="#040404" d="M80.96,29.72c1.38-1.27,2.85-2.43,4.39-3.49c0.04,0.42,0.13,1.28,0.17,1.7c-1.2,1.08-2.35,2.2-3.49,3.33
	c-3.43,0.51-6.92,0.81-10.37,0.29c2.17-1.36,4.83-0.9,7.21-1.51C79.39,29.96,80.44,29.8,80.96,29.72z"/>
<path fill="#060606" d="M96.91,26.41c4.11-0.33,7.96,1.63,12.061,1.33c2.809,0.13,6.17-0.79,8.109,1.79
	C110.359,29.06,102.74,30.63,96.91,26.41z"/>
<path fill="#FEFFFF" d="M175.391,30.24l0.699,0.26c0.53,0.1,1.57,0.31,2.1,0.42c-0.02,0.97-0.039,1.95-0.02,2.93
	C177.279,32.62,176.38,31.39,175.391,30.24z"/>
<path fill="#8C5100" d="M82.09,32.47c13.17-0.51,26.36-0.49,39.53-0.188c-0.07,0.18-0.229,0.54-0.31,0.72
	c-1.91-0.2-3.83-0.17-5.73,0.13c2.67,0.31,5.37,0.35,8.05,0.2c8.83,0.72,17.681,0.21,26.521,0.3c-0.021,1.83-0.041,3.67-0.051,5.5
	c-0.52-0.39-1.55-1.18-2.07-1.58c-0.809,0.04-2.43,0.11-3.238,0.14c-0.061,1.33-0.12,2.67-0.17,4c-3.229,0.03-6.66-0.3-9.521,1.49
	c-8.39,0.07-16.779,0.14-25.17,0c-2.199-1.3-4.75-1.5-7.25-1.59c0.02,1.45,0.04,2.9,0.06,4.36c-0.34-0.03-1.02-0.08-1.36-0.1
	c0.03-1.36,0.06-2.71,0.09-4.06c-2.25-0.02-4.49-0.04-6.73-0.07c-0.09-1.41-0.18-2.81-0.28-4.22c-0.96,0.04-2.87,0.11-3.83,0.14
	c-0.05,1.35-0.1,2.7-0.13,4.05c-0.7,0.02-2.1,0.07-2.8,0.09c0.02-0.64,0.04-1.92,0.06-2.55c-1.38-0.06-2.75-0.11-4.12-0.16
	c-0.03,1.4-0.06,2.8-0.09,4.19c-2.73,0.021-5.46,0.01-8.19-0.02c-0.48,0-1.43-0.01-1.9-0.01c-2.15-0.05-4.32,0.12-6.25,1.15
	c-1.63,0.16-3.26,0.3-4.88,0.47c-6.29,2.97-14.07-1.24-20.01,2.61c-0.53-0.77-1.06-1.55-1.58-2.32c-0.17-0.97-0.29-1.95-0.38-2.93
	c-0.61-0.14-1.83-0.42-2.45-0.56c-0.11-0.72-0.34-2.16-0.46-2.88c0.66-0.81,1.32-1.63,1.98-2.44c3.55,0,7.1,0.01,10.65-0.07
	c0.5-0.3,1.49-0.92,1.99-1.22c-1.18,1.71,2.09,2.98,2.05,0.77c-0.31-0.31-0.93-0.93-1.24-1.24c0.45-0.25,1.36-0.76,1.82-1.01
	C63.83,33.42,73.04,34.05,82.09,32.47z"/>
<path fill="#252525" d="M121.62,32.28c0.94,0.05,2.81,0.15,3.739,0.2l-1.729,0.85c-2.68,0.15-5.38,0.11-8.05-0.2
	c1.9-0.3,3.82-0.33,5.73-0.13C121.391,32.82,121.55,32.46,121.62,32.28z"/>
<path fill="#BAAB9A" d="M125.359,32.48c8.371,0.44,16.75,0.11,25.131,0.1c0.09,2.08,0.18,4.16,0.279,6.24
	c8.121-0.08,16.239-0.15,24.359-0.07l-0.58-2c0.682,0.68,0.971,1.57,1.19,2.48c-8.562-0.3-17.101,0.67-25.642-0.1
	c0.01-1.83,0.03-3.67,0.051-5.5c-8.84-0.09-17.689,0.42-26.521-0.3L125.359,32.48z"/>
<path fill="#402D12" d="M52.07,35.04l0.81-0.47c0.31,0.31,0.93,0.93,1.24,1.24C54.16,38.02,50.89,36.75,52.07,35.04z"/>
<path fill="#FFFFFF" d="M178.95,34.71c1.649,0.67,3.319,1.25,5.01,1.81c-0.25,4.04-0.31,8.28,2.351,11.62
	c0.021,0.54,0.069,1.64,0.09,2.18C183.21,45.48,180.63,40.27,178.95,34.71z"/>
<path fill="#FEFEFE" d="M187.91,38.06c1.779-2.29,1.27,1.69,1.689,2.75C188.09,40.6,187.27,39.51,187.91,38.06z"/>
<path fill="#FEFFFF" d="M94.74,41.72c2.24,0.03,4.48,0.05,6.73,0.07c-0.03,1.35-0.06,2.7-0.09,4.06c0.34,0.02,1.02,0.07,1.36,0.1
	c-0.02-1.46-0.04-2.91-0.06-4.36c2.5,0.09,5.05,0.29,7.25,1.59c8.391,0.14,16.78,0.07,25.17,0c2.86-1.79,6.291-1.46,9.521-1.49
	c0.13,2.99,0.148,5.98,0,8.96c-3.33-0.35-5.28-3.51-8.561-4.14c-2.041-0.07-4.17,0.16-6.041-0.81c-5.99-0.23-12.14-0.61-17.89,1.4
	c-1.37,0.23-2.5,0.95-3.03,2.26c-0.279,0.02-0.84,0.06-1.119,0.08c-1.59,1.44-3.359,2.65-5.101,3.9c-0.52,0.11-1.56,0.33-2.08,0.43
	c-0.4,0.76-0.81,1.51-1.22,2.27l-0.1-1.56c-0.5-0.02-1.52-0.07-2.02-0.1c0.02-1.15,0.04-2.31,0.06-3.46
	c-2.72-1.54,0.13-5.67-2.89-6.96C94.66,43.4,94.71,42.28,94.74,41.72z"/>
<path fill="#FFFFFF" d="M87.7,41.78c0.7-0.021,2.1-0.07,2.8-0.09c0.02,2.12,0.01,4.25,0.05,6.37c2.47,3.01,1.43,7.77,3.76,11.01
	c0.39,1.15,0.99,2.19,1.82,3.07c0.03,1.53,0.02,3.06,0.01,4.59c0.56,0.02,1.68,0.07,2.24,0.1c0.18,0.38,0.54,1.16,0.72,1.55
	c3.14,2.14,5.07,6.04,9.291,6.34c-0.041,0.521-0.141,1.562-0.189,2.07c-3.021,0.48-8.77-1.18-9.3,3.14
	c0.93,3.76,5.89,3.02,8.89,3.15c0.229,0.09,0.7,0.27,0.932,0.35c-0.021,2.24-0.102,4.48-0.191,6.71
	c-1.359,0.22-2.719,0.44-4.09,0.64c0.061-1.65,0.141-3.29,0.229-4.94c-4.47-2.69-10.22-1.27-14.94,0.09
	c-0.77,0.53-1.53,1.07-2.3,1.61c0.77,0.66,1.54,1.32,2.31,1.98c1.39-0.06,2.79-0.14,4.18-0.22c1.62-0.73,3.37-1.06,5.12-1.3
	c0.74,2.31,1.8,4.51,2.87,6.69c2.96,0.32,5.909-0.1,8.812-0.62c0.568,8.38-0.74,16.67-2.852,24.77
	c-1.689,5.46-1.38,11.45-4.051,16.641c-1.699,4.479-5.271,9.149-3.579,14.129c0.98-0.108,1.96-0.229,2.938-0.35
	c1.521-7.38,6.17-13.689,7.19-21.21c1.021-7.78,3.8-15.239,4.5-23.05c-0.229-6.24,0.659-12.6-0.729-18.73
	c-0.461-2.34-0.82-4.69-1.201-7.03c4.602,1.59,9.381,2.66,14.262,2.72c1.408-0.09,6.148,1.27,5.01-1.39
	c0.24-0.32,0.729-0.95,0.971-1.27c0.199-0.27,0.6-0.8,0.801-1.07c1.18-0.17,2.35-0.35,3.529-0.52c2.579-3.33,6.859-4.79,8.801-8.73
	c-0.051-2-0.631-4.28,1.17-5.72c-0.051-2-0.041-4.11,1.799-5.37c-0.299-4.91-0.93-9.82-0.659-14.74c8.81,0.35,17.63-0.02,26.44,0.14
	c1.979-0.19,2.85,2.01,4.17,3.1c0.129,0.51,0.39,1.52,0.52,2.03c0.76,2.22,2.35,3.96,3.93,5.64c-3.6-0.08-7.199-0.07-10.789-0.07
	c-0.61,0.76-1.221,1.51-1.82,2.27c-0.899,0.13-2.68,0.37-3.569,0.5c1.95,2.08,4.92,1.6,7.49,1.68c3.5-0.04,7.01,0.15,10.47,0.78
	c0.29-0.85,0.59-1.71,0.88-2.56l1.25,0.53c1.052,0.42,2.07,0.9,3.062,1.44l-0.121,0.54c0.801,0.62,1.601,1.22,2.421,1.82
	c2.34,2.37,4.149,5.18,5.88,8.02c2.76,2.88,2.891,7.2,2.63,10.96c-1.69,1.24-0.87,3.53-1.09,5.29c-2.19,3-4.62,5.88-6.069,9.34
	c-1.091,0.74-2.211,1.46-3.32,2.19c-1.351,0.75-2.909,0.8-4.409,0.97l0.01,0.48c-0.858,0.479-1.7,0.979-2.53,1.51
	c1.721-0.1,3.432-0.32,5.15-0.5c-1.75,1.92-3.602,3.76-5.5,5.53c-1.2,1.56-2.33,3.18-3.189,4.96c0.01,0.6,0.01,1.8,0.01,2.4
	c-2.24,3.85-4.33,7.789-7.49,11c-0.719,0.56-1.439,1.108-2.159,1.658c-1.94,2.16-3.79,4.48-6.271,6.04l-0.199,0.71
	c-0.48-0.06-1.45-0.189-1.94-0.25c-0.021,0.41-0.06,1.221-0.08,1.631c-0.59,0.359-1.771,1.079-2.36,1.439
	c-0.34,0.029-1.028,0.08-1.379,0.109l-0.09,0.75c-0.641,0.33-1.91,1-2.551,1.33c-0.38-0.061-1.13-0.181-1.51-0.229l0.38,1.43
	l-1.46-0.409l0.22,1.291l-0.829-0.102c-2.781,2.25-6.091,3.66-9.311,5.16l-0.11,0.68c-2.22,0.67-4.38,1.5-6.55,2.29
	c-0.46,0.26-1.391,0.79-1.85,1.062c-1.25,0.56-2.551,1.01-3.83,1.5c-0.49,0.289-1.471,0.879-1.971,1.17
	c-5.199,1.83-9.979,4.608-15.091,6.67c-0.51,0.32-1.528,0.949-2.04,1.27c-0.55,0.09-1.64,0.28-2.189,0.37
	c-2.109,1.351-4.279,2.58-6.521,3.69c-2.73,0.459-5.54-0.25-8.23,0.5c-1.98,0.818-4.01,1.51-5.97,2.35
	c-1.41,0.18-2.85,0.34-4.09,1.109c-1.67,0.16-3.35,0.281-5.03,0.471c-1,0.47-1.99,0.939-2.99,1.41c-6.77,0.51-13.23,3.52-20.1,3.26
	c-5.01-0.1-10.01,0.09-15.01-0.07c-3.03-0.58-5.97-1.5-8.99-2.13c-4.07-1.6-7.73-4.1-11.12-6.81c-1.7-2.82-3.33-5.68-5.03-8.5
	c0.23-4.631-1-9.65,1.26-13.94c1.12-6.29,0.34-12.69,0.54-19.04c-0.24-8.01,0.7-16.12-0.83-24.03c0.11-1.83-1.07-3.29-1.84-4.84
	c-0.6-1.96-1.92-3.54-3.3-5.01c0.01-0.68,0.03-2.03,0.05-2.71l-1.29,0.19c-0.01-0.68-0.05-2.03-0.07-2.71
	c-3.94-0.76-2.12-6-2.43-8.82c0.97-2.29,0.73-4.79,0.77-7.2c1.38-3.12,3.02-6.27,5.95-8.21c2.49-1.51,4.57-3.54,6.59-5.6
	c0.63-1.9,1.18-3.82,1.89-5.69c4.08-0.43,8.22-0.47,12.31-0.17c-0.07,3.46-0.07,6.92-0.05,10.37c-4.59,0.09-9.27-0.72-13.8,0.15
	c-2.36,1.59-4.42,3.6-6.82,5.15c-3.16,1.95-4.48,5.69-5.55,9.04l0.84,0.2c2.89,0.29,2.58-3.68,3.69-5.55
	c3.38-1.94,6.26-4.59,9.48-6.77c3.94-0.72,7.96,0.15,11.93,0.17c0.38,0.39,1.13,1.15,1.5,1.54c-0.58,2.48,0.9,4.1,2.84,5.37
	c0,1.55,0.05,3.11,0.09,4.66c4.49-0.7,7.24,3.81,11.55,3.9c6.27-0.96,12.82-1.28,19,0.35c-1.86,0.37-4.17,0.31-5.05,2.36l-0.34,0.33
	c-2.56,2.55-5.71,4.39-8.23,6.98c-1.58,1.69-3.89,2.21-6.09,2.44c0.85,3.14-2.24,5.03-3.76,7.31c-5.32,2.03-5.73,8.35-9.95,11.53
	c-3.92,4.06-7.69,8.35-10.51,13.279c0.19,0.67,0.56,2.021,0.75,2.689c1.42-0.21,2.9-0.561,3.61-1.97c3.39-5.19,8-9.39,12.09-13.99
	c1.2-1.31,1.64-3.06,2.18-4.69c2.21-1.87,4.76-3.4,6.36-5.89c2.81-4.04,7.69-5.61,11.75-8.04c2.72,2.99,5.12,6.61,8.89,8.37
	c2.89,1.47,6.14,0.39,9.1-0.21c0.57-0.77,1.15-1.54,1.72-2.3c-0.68-0.83-1.37-1.65-2.05-2.48c-0.48-0.03-1.45-0.1-1.93-0.13
	c-0.1,1.05-0.2,2.1-0.3,3.15c-1.94-0.61-3.94-1.17-5.66-2.29C71.2,89.22,69.61,86.4,67.58,84c0.17-0.27,0.49-0.82,0.65-1.09
	c0.19-0.33,0.56-0.99,0.75-1.32c0.56-1.31,1.88-1.9,3.15-2.3c2.45-2.3,4.68-4.85,6.24-7.84c0.58-0.16,1.75-0.46,2.33-0.61
	c0-1.13,0-2.25-0.02-3.37c0.96-0.81,1.92-1.62,2.89-2.41c0.01-0.47,0.04-1.41,0.05-1.87c0.99-0.89,1.96-1.81,2.93-2.72
	c-0.07-0.66-0.21-1.979-0.27-2.64c0.31-0.27,0.93-0.81,1.25-1.08C87.95,51.78,87.58,46.77,87.7,41.78 M150.85,54.45
	c0.74,1.39,2.352,1.31,3.68,1.61c-0.318,1.09-0.698,2.15-1.139,3.2c-0.951,0.47-1.729,1.17-2.371,2.01
	c1.94,0.31,4.682,1.25,3.451-1.95c2.6,0.09,5.789-0.81,6.559-3.64C157.59,55.7,154.23,54.99,150.85,54.45 M186.82,59.59
	c0.4,0.05,1.188,0.15,1.58,0.2c0.029-0.39,0.09-1.19,0.119-1.58C187.33,57.86,186.76,58.33,186.82,59.59 M25.19,62.41
	c-1.23,0.29-2.44,0.6-3.65,0.94c-1.2,0.18-2.36,0.52-3.54,0.8c0.04,0.82,0.1,2.47,0.13,3.29l-0.49,0.42
	c-0.17,2.04-0.27,4.08-0.38,6.13c-3.69,4.85,1.43,11.22,6.87,10.64c-0.9-0.64-1.89-1.11-2.89-1.56c-1.37-1.28-2.67-2.64-3.96-4
	c0.87-3.03,1.62-6.12,1.4-9.31c1.06-1.2,2.16-2.36,3.16-3.61l0.2,0.95c0.31-0.46,0.94-1.39,1.25-1.85c0.84,0.25,2.53,0.75,3.38,1.01
	c-0.12-0.45-0.37-1.33-0.5-1.77c0.1-1.12,0.18-2.24,0.24-3.35C26.1,61.45,25.49,62.09,25.19,62.41 M189.9,63.4
	c1.129,1.29,2.3,2.56,3.55,3.75c0.01,7.53,1.079,15.35-1.771,22.53c-2.101,1.75-4.5,3.08-7.08,3.98l0.199,0.64
	c-1.369,0.34-2.6,1.02-3.779,1.76c0.5,0.03,1.51,0.09,2.01,0.12c3.07-1.35,6.301-2.35,9.051-4.32c1.32-1.82,2.01-3.85,1.32-6.09
	c0.97-0.55,1.629-1.38,1.979-2.48c-1.109-5.04-1.141-10.58,0.021-15.61c-1.801-2.88-3.881-5.56-5.971-8.23
	C189.27,60.81,189.42,62.13,189.9,63.4 M10.27,72.33c-0.32,1.91-0.05,3.92,0.8,5.67c0.38,1.38-0.02,3.14,1.38,4.07
	c0.03,0.55,0.1,1.64,0.14,2.18c1.14,1.02,2.28,2.13,3.82,2.52c0.07,0.21,0.2,0.64,0.27,0.86c3.22,0.04,5.34,2.75,7.8,4.44
	c0.09-0.58,0.25-1.73,0.34-2.3c-3.09-1.33-6-3.02-8.95-4.6c-2.69-2.34-2.95-5.92-4.23-9.01c-0.04-1.53-0.1-3.07-0.16-4.61
	C11.17,71.75,10.57,72.13,10.27,72.33 M40.26,70.57c0,1.85,0.38,3.64,1.94,4.73c3.95-0.4,7.43,1.74,11.23,2.3
	c0.44,0.38,1.31,1.15,1.75,1.53c0.91-0.38,1.82-0.76,2.72-1.15c-4.54-1.75-9.08-3.91-14.02-4.18
	C42.01,73.87,41.51,71.52,40.26,70.57 M44.77,88.99c-2.77,0.69-4.99,2.29-6.01,5.02c-4.2,3.271-8.01,7.15-10.47,11.93
	c2.54,0.16,3.04-2.79,4.53-4.24c2.75-3.82,7.54-5.8,9.46-10.25c0.63,0.02,1.89,0.07,2.51,0.09c0.25-0.36,0.73-1.07,0.97-1.43
	c1.92,0.39,3.68-0.54,5.44-1.15c-1.69-0.83-2.66-2.24-2.9-4.22C47.39,86.38,46.56,88.16,44.77,88.99 M123.51,85.82
	c-1.01,4.08,0.58,8.1,0.41,12.19c-0.029,9.67-0.04,19.34-0.01,29.01c0.369,3.82-2.561,6.66-4.23,9.791
	c0.08,1.029,0.16,2.069,0.25,3.101c1.01-2.03,1.812-4.24,3.44-5.892c0.63-1.358,1.25-2.72,1.909-4.068
	c-0.26-14.03,0.791-28.14-0.75-42.11C124.439,87.06,124.1,86.39,123.51,85.82 M135.939,91.15c-0.319,4.96-0.061,9.94-0.931,14.86
	c0.302,5.131-0.5,10.131-1.75,15.08c-0.868,1.221-1.85,2.33-2.819,3.46c1.371,0.78,2.25,2.22,3.851,2.62
	c-0.54-5.89,2.61-11.32,2.17-17.17c-0.239-6.09,1.37-12.1,0.58-18.19C136.76,91.65,136.21,91.31,135.939,91.15 M39.98,129.52
	c-3.67,0.762-6.51,3.4-9.55,5.42c-0.25,1.381-0.64,2.75-1.23,4.03l-0.49-1.399c-0.96-0.079-2.9-0.229-3.87-0.311
	c-1.22-3.55,2.97-5.67,5.28-7.51c-4.74-1.83-8.43,4.46-6.94,8.59c0.59,0.18,1.78,0.551,2.37,0.73c3.38-0.65,2.78,2.85,3.4,5.08
	c2.52,1.209,5.5,0.42,8.18,0.31c-1.6-2.19-4.67-1-6.93-1.36c-0.01-0.8-0.04-2.39-0.05-3.188c3.29-2.271,6.83-4.302,10.3-6.25
	c6.18-0.03,12.39-1.892,18.49-0.142c2.04,0.07,3.02,2.041,3.91,3.57c2.67,2.02,5.84,2.94,8.93,4.051c2.51,1.891,4.64,4.26,7.41,5.84
	c0.52,2.879,1.39,5.689,2.3,8.471c1-0.03,2-0.07,3.01-0.102c0.63-3.26-0.27-6.56-1.2-9.67c-1.5-2.789-4.71-4-6.84-6.229
	c-2.1-2.311-5.14-3.131-7.97-4.131c-2.39-1.779-4.28-4.211-6.92-5.659C54.5,127.58,47.16,129.02,39.98,129.52 M48.3,141.51
	c2.57,0.301,5.15,0.36,7.74,0.35c3.28,2.4,4.78,7.512,9.26,7.842c0.28-0.67,0.82-2.012,1.09-2.682
	c-2.82-3.278-5.52-6.709-8.94-9.398c-2.95,0.029-5.9,0.029-8.85,0.05C48.48,138.95,48.38,140.23,48.3,141.51 M86,158.15
	c-2.63,3.85-7.68,2.91-10.65,0.039c0.09,1.181-0.35,2.83,1.18,3.279c3.5,1.812,7.97,0.91,10.83-1.729
	c0.6-3.41,5.01-5.881,3.99-9.381C88.64,152.07,87.37,155.38,86,158.15z"/>
<path fill="#FEFEFE" d="M67.21,44.38c1.93-1.03,4.1-1.2,6.25-1.15c0.64,3.4,0.83,6.86,1.27,10.29c0.85-3.36,0.62-6.85,0.63-10.28
	c2.73,0.03,5.46,0.04,8.19,0.02c-0.28,3.57,0.94,7.55-1.13,10.75c-0.09,0.68-0.26,2.04-0.35,2.72c-1.43,0.86-2.83,1.79-4.21,2.73
	c-3.31-2.92-6.5-5.99-10.63-7.74c-1.46-0.16-3.01-0.16-4.22-1.1c-4.38-0.19-8.76-0.1-13.14-0.04c-2.57,1.42-5.45,2.53-7.2,5.02
	c-0.55,0.08-1.65,0.23-2.2,0.31c0.02-3.59-0.2-7.2,0.27-10.77c0.52,0.77,1.05,1.55,1.58,2.32c5.94-3.85,13.72,0.36,20.01-2.61
	C63.95,44.68,65.58,44.54,67.21,44.38z"/>
<path fill="#1D1D1D" d="M73.46,43.23c0.47,0,1.42,0.01,1.9,0.01c-0.01,3.43,0.22,6.92-0.63,10.28
	C74.29,50.09,74.1,46.63,73.46,43.23z"/>
<path fill="#959595" d="M179.75,48.42c1.689,1.79,3.51,3.53,4.68,5.73c0.521,1.47,1.801,2.27,3.221,2.71l-0.061,0.33l-1.25-0.53
	c-0.29,0.85-0.59,1.71-0.88,2.56c-3.46-0.63-6.97-0.82-10.47-0.78c-2.57-0.08-5.54,0.4-7.49-1.68c0.891-0.13,2.67-0.37,3.57-0.5
	c0.6-0.76,1.209-1.51,1.82-2.27c3.59,0,7.188-0.01,10.789,0.07C182.1,52.38,180.51,50.64,179.75,48.42z"/>
<path fill="#FFFFFF" d="M109.92,53.69c3.09-3.07,7.63-1.09,10.99-3.27c-0.11,1.79-0.141,3.58-0.131,5.37
	c-1.299-0.05-2.609-0.09-3.909-0.11c-1.32,0.78-2.67,1.49-4.06,2.13c-0.48,0.27-1.451,0.79-1.932,1.05
	c-2.609,1.37-6.189,2.78-7.699-0.8c0.93-0.8,1.869-1.6,2.811-2.41C107.33,55.07,108.75,54.6,109.92,53.69z"/>
<path fill="#CACACA" d="M138.32,53.5c1.68,0.26,3.359,0.53,5.02,0.88c0,0.54,0,1.61,0,2.15c-1.71-0.35-3.43-0.68-5.15-1
	C138.221,55.02,138.29,54.01,138.32,53.5z"/>
<path fill="#CACACA" d="M50.73,54.45c2.98-0.35,6-0.09,9-0.1c-0.01,0.35-0.02,1.06-0.03,1.41c-3.3,0.04-6.6,0.11-9.9-0.11
	C50.03,55.35,50.5,54.75,50.73,54.45z"/>
<path fill="#4A4A4A" d="M150.85,54.45c3.381,0.54,6.74,1.25,10.18,1.23c-0.77,2.83-3.959,3.73-6.559,3.64
	c1.229,3.2-1.511,2.26-3.451,1.95c0.642-0.84,1.42-1.54,2.371-2.01c0.439-1.05,0.819-2.11,1.139-3.2
	C153.2,55.76,151.59,55.84,150.85,54.45z"/>
<path fill="#929292" d="M22.53,56.73c4.53-0.87,9.21-0.06,13.8-0.15c-0.06,0.6-0.17,1.8-0.23,2.39c-3.97-0.02-7.99-0.89-11.93-0.17
	c-3.22,2.18-6.1,4.83-9.48,6.77c-1.11,1.87-0.8,5.84-3.69,5.55l-0.84-0.2c1.07-3.35,2.39-7.09,5.55-9.04
	C18.11,60.33,20.17,58.32,22.53,56.73z"/>
<path fill="#FEFEFE" d="M41.53,58.51c0.24-1,0.2-2.21,1.32-2.66c0.47,1.26,1.35,2.27,2.16,3.3c4.85,1.53,10.2-0.4,14.87,2.01
	c2.78,0.01,5.55,0.16,8.31,0.51c1.74,1.13,3.55,2.16,5.42,3.08c-0.04,0.33-0.14,0.99-0.19,1.32c-0.75,1.04-1.14,2.22-1.16,3.53
	c-5.45-0.03-10.91,0.15-16.35-0.05c-3.23-0.82-6.16-2.55-9.48-3c-0.46-0.39-1.39-1.16-1.86-1.55c0.03-1.02,0.05-2.05,0.07-3.08
	c-1.26-0.77-1.73-1.95-1.41-3.53C42.81,58.42,41.96,58.48,41.53,58.51z"/>
<path fill="#4C4C4C" d="M186.82,59.59c-0.062-1.26,0.51-1.73,1.699-1.38c-0.029,0.39-0.09,1.19-0.119,1.58
	C188.01,59.74,187.221,59.64,186.82,59.59z"/>
<path fill="#FFFFFF" d="M123.141,58.74c4.219-0.28,8.459-0.17,12.689-0.01c1.66,1.11,3.699,1.27,5.59,1.77
	c0.2,0.62,0.609,1.86,0.811,2.48C138.51,66.77,137.27,74,130.93,74.2c-4.92,1.89-10.25,0.8-15.38,1.07
	c0.011-0.69,0.04-2.07,0.05-2.75c-2.879,0.2-5.64-0.4-8.188-1.74c-0.052-0.46-0.16-1.38-0.222-1.84c-1.188-1.14-2.34-2.32-3.31-3.66
	c0.82,0.11,2.45,0.34,3.271,0.46c0.439-0.34,1.32-1.03,1.761-1.37c2.159-0.53,4.159-1.5,6.069-2.61c0.471-0.21,1.42-0.63,1.891-0.85
	C118.96,60.18,121.16,59.74,123.141,58.74z"/>
<path fill="#252525" d="M25.19,62.41c0.3-0.32,0.91-0.96,1.22-1.27c-0.06,1.11-0.14,2.23-0.24,3.35c-1.52-0.45-3.07-0.83-4.63-1.14
	C22.75,63.01,23.96,62.7,25.19,62.41z"/>
<path fill="#252525" d="M189.9,63.4c-0.48-1.27-0.631-2.59-0.471-3.95c2.09,2.67,4.17,5.35,5.971,8.23
	c-1.16,5.03-1.131,10.57-0.021,15.61c-0.352,1.1-1.01,1.93-1.979,2.48c0.688,2.24,0,4.27-1.32,6.09c-2.75,1.97-5.98,2.97-9.051,4.32
	c-0.5-0.03-1.51-0.09-2.01-0.12c1.181-0.74,2.41-1.42,3.779-1.76l-0.199-0.64c2.58-0.9,4.979-2.23,7.08-3.98
	c2.85-7.18,1.779-15,1.771-22.53C192.2,65.96,191.029,64.69,189.9,63.4z"/>
<path fill="#CACACA" d="M18,64.15c1.18-0.28,2.34-0.62,3.54-0.8c1.56,0.31,3.11,0.69,4.63,1.14c0.13,0.44,0.38,1.32,0.5,1.77
	c-0.85-0.26-2.54-0.76-3.38-1.01c-0.31,0.46-0.94,1.39-1.25,1.85l-0.2-0.95c-0.08-0.39-0.24-1.17-0.32-1.56
	c-1.13,0.95-2.25,1.9-3.39,2.85C18.1,66.62,18.04,64.97,18,64.15z"/>
<path fill="#060606" d="M18.13,67.44c1.14-0.95,2.26-1.9,3.39-2.85c0.08,0.39,0.24,1.17,0.32,1.56c-1,1.25-2.1,2.41-3.16,3.61
	c0.22,3.19-0.53,6.28-1.4,9.31c1.29,1.36,2.59,2.72,3.96,4c1,0.45,1.99,0.92,2.89,1.56c-5.44,0.58-10.56-5.79-6.87-10.64
	c0.11-2.05,0.21-4.09,0.38-6.13L18.13,67.44z"/>
<path fill="#1D1D1D" d="M10.27,72.33c0.3-0.2,0.9-0.58,1.21-0.78c0.06,1.54,0.12,3.08,0.16,4.61c1.28,3.09,1.54,6.67,4.23,9.01
	c2.95,1.58,5.86,3.27,8.95,4.6c-0.09,0.57-0.25,1.72-0.34,2.3c-2.46-1.69-4.58-4.4-7.8-4.44c-0.07-0.22-0.2-0.65-0.27-0.86
	c-1.54-0.39-2.68-1.5-3.82-2.52c-0.04-0.54-0.11-1.63-0.14-2.18c-1.4-0.93-1-2.69-1.38-4.07C10.22,76.25,9.95,74.24,10.27,72.33z"/>
<path fill="#040404" d="M40.26,70.57c1.25,0.95,1.75,3.3,3.62,3.23c4.94,0.27,9.48,2.43,14.02,4.18c-0.9,0.39-1.81,0.77-2.72,1.15
	c-0.44-0.38-1.31-1.15-1.75-1.53c-3.8-0.56-7.28-2.7-11.23-2.3C40.64,74.21,40.26,72.42,40.26,70.57z"/>
<path fill="#CACACA" d="M108.391,74.72c3.639,1.38,6.311,5.46,10.58,4.72c4.729-0.18,9.469-0.07,14.209-0.14
	c-0.24,0.32-0.729,0.95-0.97,1.27c-1.79-0.23-3.55,0.4-5.01,1.39c-4.88-0.06-9.66-1.13-14.261-2.72c0.381,2.34,0.74,4.69,1.201,7.03
	c-0.932-2.41-1.871-4.82-2.852-7.21c-1.061-0.55-2.12-1.12-3.16-1.69c-2.779,0.57-7.74-1.38-8.1,2.71c1.43,2.7,5.411,1.3,7.76,3
	c-3-0.13-7.96,0.61-8.89-3.15c0.53-4.32,6.281-2.66,9.3-3.14C108.25,76.28,108.35,75.24,108.391,74.72z"/>
<path fill="#050505" d="M57.46,84.46c2.52-2.59,5.67-4.43,8.23-6.98c1.19,1.28,2.59,2.45,3.29,4.11c-0.19,0.33-0.56,0.99-0.75,1.32
	c-0.16,0.27-0.48,0.82-0.65,1.09c2.03,2.4,3.62,5.22,6.08,7.24c1.72,1.12,3.72,1.68,5.66,2.29c0.1-1.05,0.2-2.1,0.3-3.15
	c0.48,0.03,1.45,0.1,1.93,0.13c0.68,0.83,1.37,1.65,2.05,2.48c-0.57,0.76-1.15,1.53-1.72,2.3c-2.96,0.6-6.21,1.68-9.1,0.21
	c-3.77-1.76-6.17-5.38-8.89-8.37c-4.06,2.43-8.94,4-11.75,8.04c-1.6,2.49-4.15,4.02-6.36,5.89c-0.54,1.63-0.98,3.38-2.18,4.69
	c-4.09,4.6-8.7,8.8-12.09,13.99c-0.71,1.41-2.19,1.76-3.61,1.97c-0.19-0.67-0.56-2.021-0.75-2.69c2.82-4.93,6.59-9.22,10.51-13.278
	c4.22-3.18,4.63-9.5,9.95-11.53c1.52-2.28,4.61-4.17,3.76-7.31C53.57,86.67,55.88,86.15,57.46,84.46z"/>
<path fill="#040404" d="M100.03,80.08c0.36-4.09,5.32-2.14,8.1-2.71c1.04,0.57,2.101,1.14,3.16,1.69c0.979,2.39,1.92,4.8,2.851,7.21
	c1.389,6.13,0.5,12.49,0.729,18.73c-0.7,7.811-3.479,15.27-4.5,23.05c-1.021,7.521-5.67,13.83-7.19,21.21
	c-0.979,0.12-1.958,0.24-2.938,0.35c-1.69-4.979,1.88-9.648,3.579-14.129c2.671-5.189,2.359-11.181,4.051-16.641
	c2.109-8.1,3.42-16.39,2.852-24.77c-2.9,0.52-5.852,0.94-8.812,0.62c-1.07-2.18-2.13-4.38-2.87-6.69c-1.75,0.24-3.5,0.57-5.12,1.3
	c-1.39,0.08-2.79,0.16-4.18,0.22c-0.77-0.66-1.54-1.32-2.31-1.98c0.77-0.54,1.53-1.08,2.3-1.61c4.72-1.36,10.47-2.78,14.94-0.09
	c-0.09,1.65-0.17,3.29-0.229,4.94c1.371-0.2,2.729-0.42,4.09-0.64c0.091-2.23,0.171-4.47,0.191-6.71
	c-0.23-0.08-0.701-0.26-0.932-0.35C105.439,81.38,101.46,82.78,100.03,80.08z"/>
<path fill="#4A4A4A" d="M127.2,81.96c1.46-0.99,3.22-1.62,5.01-1.39C133.35,83.23,128.609,81.87,127.2,81.96z"/>
<path d="M44.77,88.99c1.79-0.83,2.62-2.61,3.53-4.25c0.24,1.979,1.21,3.39,2.9,4.22c-1.76,0.61-3.52,1.54-5.44,1.15
	c-0.24,0.36-0.72,1.07-0.97,1.43c-0.62-0.02-1.88-0.07-2.51-0.09c-1.92,4.45-6.71,6.43-9.46,10.25c-1.49,1.45-1.99,4.4-4.53,4.24
	c2.46-4.78,6.27-8.66,10.47-11.93C39.78,91.28,42,89.68,44.77,88.99z"/>
<path d="M123.51,85.82c0.59,0.57,0.93,1.24,1.02,2.02c1.541,13.97,0.49,28.08,0.75,42.11c-0.658,1.35-1.278,2.71-1.908,4.069
	c-1.63,1.649-2.432,3.859-3.439,5.891c-0.091-1.03-0.17-2.07-0.25-3.1c1.67-3.131,4.6-5.972,4.229-9.791
	c-0.03-9.67-0.021-19.339,0.01-29.011C124.09,93.92,122.5,89.9,123.51,85.82z"/>
<path d="M135.939,91.15c0.271,0.16,0.819,0.5,1.101,0.66c0.79,6.09-0.819,12.1-0.58,18.19c0.44,5.85-2.71,11.28-2.17,17.17
	c-1.601-0.4-2.479-1.84-3.851-2.62c0.971-1.13,1.951-2.239,2.819-3.46c1.25-4.949,2.052-9.949,1.75-15.08
	C135.88,101.09,135.62,96.11,135.939,91.15z"/>
<path fill="#040404" d="M39.98,129.52c7.18-0.5,14.52-1.938,21.59,0.142c2.64,1.448,4.53,3.88,6.92,5.66
	c2.83,1,5.87,1.819,7.97,4.13c2.13,2.229,5.34,3.439,6.84,6.229c0.93,3.11,1.83,6.41,1.2,9.67c-1.01,0.03-2.01,0.07-3.01,0.102
	c-0.91-2.78-1.78-5.592-2.3-8.471c-2.77-1.58-4.9-3.949-7.41-5.84c-3.09-1.109-6.26-2.031-8.93-4.051
	c-0.89-1.529-1.87-3.5-3.91-3.57c-6.1-1.75-12.31,0.11-18.49,0.142c-3.47,1.948-7.01,3.979-10.3,6.25c0.01,0.8,0.04,2.39,0.05,3.188
	c2.26,0.36,5.33-0.83,6.93,1.36c-2.68,0.11-5.66,0.899-8.18-0.31c-0.62-2.23-0.02-5.73-3.4-5.08c-0.59-0.18-1.78-0.551-2.37-0.73
	c-1.49-4.13,2.2-10.42,6.94-8.59c-2.31,1.84-6.5,3.96-5.28,7.51c0.97,0.08,2.91,0.23,3.87,0.312l0.49,1.399
	c0.59-1.281,0.98-2.649,1.23-4.031C33.47,132.92,36.31,130.28,39.98,129.52z"/>
<path fill="#060606" d="M48.3,141.51c0.08-1.279,0.18-2.56,0.3-3.84c2.95-0.02,5.9-0.02,8.85-0.05c3.42,2.69,6.12,6.12,8.94,9.399
	c-0.27,0.67-0.81,2.011-1.09,2.681c-4.48-0.33-5.98-5.44-9.26-7.841C53.45,141.87,50.87,141.811,48.3,141.51z"/>
<path d="M86,158.15c1.37-2.771,2.64-6.08,5.35-7.791c1.02,3.5-3.39,5.971-3.99,9.381c-2.86,2.64-7.33,3.539-10.83,1.729
	c-1.53-0.449-1.09-2.1-1.18-3.279C78.32,161.061,83.37,162,86,158.15z"/>
<path fill="#46E54E" d="M14.37,167.359c1.42,0.021,2.83,0.051,4.25,0.07c1.77,1.119,3.55,2.211,5.33,3.301
	c1.28,1.608,2.76,3.05,4.55,4.08c3.53,2.1,6.62,4.84,10.11,7c0.6,0.58,1.21,1.17,1.82,1.76c0.53,0.18,1.59,0.55,2.12,0.74
	c2.24,2.33,4.94,4.1,7.71,5.709c-0.94,0.851-1.89,1.689-2.83,2.521c0,0.69-0.01,2.06-0.01,2.74c-5.66-4.24-11.95-7.72-17.07-12.63
	c-0.53-0.12-1.58-0.37-2.11-0.49c-0.44-0.551-1.34-1.631-1.78-2.17c-0.6-0.062-1.79-0.16-2.39-0.221l-0.19-0.539
	c-0.08-0.222-0.24-0.66-0.32-0.881c-1.04-0.979-2.09-1.92-3.13-2.881c-0.54-0.039-1.62-0.119-2.16-0.158
	c-0.11,8.869,0.02,17.738-0.03,26.6c2.25-0.141,4.56-0.27,6.6-1.34c2.15-0.11,4.29-0.141,6.43-0.15c0.42-0.33,1.27-1,1.69-1.34
	c3.41,0.13,7.01,0.38,10.12-1.33c1.45-0.08,2.9-0.15,4.35-0.21c0.01,1.71,0.02,3.42,0.04,5.13c-1.9,0.34-3.77,0.77-5.64,1.25
	c-5.45,0.23-10.7,2.221-16.2,1.62c-0.37,0.399-1.11,1.2-1.49,1.61c-3.26-0.062-6.52-0.09-9.77-0.131
	C14.5,193.8,14.48,180.58,14.37,167.359z"/>
<path fill="#FFFFFF" d="M18.27,175.311c0.54,0.039,1.62,0.119,2.16,0.159c1.04,0.96,2.09,1.9,3.13,2.88
	c0.08,0.221,0.24,0.66,0.32,0.881c-1.42,0.141-2.84,0.301-4.27,0.439c-0.01,1.311-0.02,2.61-0.03,3.92
	c1.33,0.03,2.66,0.07,3.99,0.11c0.17-1.31,0.34-2.62,0.5-3.931c0.6,0.061,1.79,0.16,2.39,0.221c0.44,0.539,1.34,1.619,1.78,2.17
	c0.53,0.119,1.58,0.369,2.11,0.49c5.12,4.91,11.41,8.39,17.07,12.63c0,0.569,0.01,1.7,0.01,2.26c-1.45,0.06-2.9,0.13-4.35,0.21
	c-3.11,1.71-6.71,1.46-10.12,1.33c-0.42,0.34-1.27,1.01-1.69,1.34c-2.14,0.01-4.28,0.04-6.43,0.15c-2.04,1.07-4.35,1.199-6.6,1.34
	C18.29,193.05,18.16,184.18,18.27,175.311 M19.57,185.359c0.06,1.301,0.13,2.609,0.19,3.921c1.28,0.03,2.56,0.05,3.85,0.09
	c0.03-1.39,0.07-2.78,0.1-4.17C22.33,185.25,20.95,185.3,19.57,185.359 M26.33,185.26c0.11,1.87,0.5,3.7,1.7,5.21
	c-1.86-0.329-2.76,0.261-2.7,1.761c-1.43-0.021-2.87-0.041-4.3-0.051c0.07,1.43,0.13,2.87,0.2,4.301
	c1.28-0.521,4.37,0.609,3.91-1.681c1.5-0.06,2.99-0.12,4.49-0.18c-0.23-1.89-0.8-3.71-1.71-5.39c0.67,0.02,2.03,0.06,2.71,0.08
	c0.02-1.36,0.04-2.722,0.05-4.08C29.23,185.24,27.78,185.24,26.33,185.26 M32.3,190.57c-0.04,1.35-0.09,2.688-0.13,4.039
	c1.45,0.291,3.33-0.25,4.35,1.121l0.04,0.59c1.25-0.021,2.51-0.03,3.77-0.03c0.07-1.351,0.14-2.69,0.21-4.03
	c-1.41-0.029-2.82-0.05-4.23-0.08c-0.02-0.358-0.05-1.1-0.07-1.47C34.93,190.66,33.61,190.62,32.3,190.57z"/>
<path fill="#47E54F" d="M70.17,191.6c8.42-5.92,18.31-9.24,27.11-14.52c0.65-0.03,1.95-0.09,2.6-0.11
	c0.69,12.591,0.04,25.21,0.4,37.812l-0.09,0.279c-4.98-1.109-9.17-4.229-14.1-5.461c-5.29-2.72-10.55-5.729-16.48-6.869
	c0.02-3.399-0.06-6.811,0.06-10.211L70.17,191.6 M92.74,186.48c-0.56-0.012-1.68-0.03-2.24-0.051c0.01,0.351,0.02,1.051,0.03,1.391
	c-0.79,0.029-2.38,0.08-3.17,0.1l0.96,1.301c-0.9,0.039-2.7,0.129-3.6,0.17l0.17,1.189c-0.5,0.05-1.48,0.16-1.97,0.21
	c-1.41,0.771-2.82,1.54-4.18,2.41l1.06,0.17c-0.42-0.03-1.27-0.09-1.7-0.12c-2.14,1.141-4.24,2.37-6.17,3.84
	c2.47,0.721,4.82,1.82,6.97,3.23c0.61,0.039,1.82,0.13,2.42,0.18c4.03,2.15,8,4.6,12.46,5.76c1.31,0.521,2.61,1.03,3.92,1.551
	c2.4-4.5,0.65-9.961,1.19-14.859c-0.46-2.99,1.15-7-1.38-9.23l-0.01-0.52C95.91,184.29,94.31,185.359,92.74,186.48z"/>
<path fill="#32E23A" d="M99.88,176.97l1.37-0.06c0.01,9.699-0.05,19.4,0.03,29.1c-0.01,2.94,0.3,6.03-1,8.771
	C99.92,202.18,100.57,189.561,99.88,176.97z"/>
<path fill="#E200C6" d="M19.61,179.67c1.43-0.14,2.85-0.3,4.27-0.439l0.19,0.539c-0.16,1.312-0.33,2.621-0.5,3.932
	c-1.33-0.04-2.66-0.08-3.99-0.11C19.59,182.28,19.6,180.98,19.61,179.67z"/>
<path fill="#FFFFFF" d="M92.74,186.48c1.57-1.121,3.17-2.19,4.76-3.28l0.01,0.52c0.15,8.03-0.17,16.062,0.19,24.091
	c-1.31-0.521-2.61-1.029-3.92-1.551c-4.46-1.16-8.43-3.609-12.46-5.76c-0.6-0.05-1.81-0.141-2.42-0.18
	c-2.15-1.41-4.5-2.51-6.97-3.23c1.93-1.47,4.03-2.699,6.17-3.84c0.04,1.46,0.08,2.92,0.11,4.391c1.34-0.041,2.69-0.091,4.03-0.121
	c0.01-1.299,0.01-2.58,0.02-3.869c-0.82-0.101-1.64-0.189-2.46-0.279l-1.06-0.17c1.36-0.87,2.77-1.641,4.18-2.41
	c0.49-0.05,1.47-0.16,1.97-0.21c0.11,0.7,0.32,2.09,0.43,2.79c0.97,0.521,1.97,1,2.99,1.439c-1.08,1.511-2.94,1.549-4.61,1.799
	c-0.05,1.201-0.1,2.41-0.15,3.621c0.98,0.069,2.92,0.221,3.89,0.301c0.09-0.75,0.26-2.262,0.34-3.012
	c0.69,0.012,2.06,0.03,2.75,0.041c0,1.369-0.01,2.739-0.01,4.119c1.38,0.01,2.76,0.021,4.15,0.041c-0.02-1.371-0.03-2.74-0.05-4.111
	c-0.69-0.01-2.07-0.02-2.76-0.028c-0.05-1.36-0.1-2.722-0.15-4.08c-0.57-0.01-1.71-0.021-2.29-0.03c-0.12-0.85-0.37-2.568-0.49-3.43
	c-0.15-0.2-0.45-0.609-0.61-0.82l-0.96-1.3c0.79-0.021,2.38-0.069,3.17-0.101c0.02,0.689,0.05,2.051,0.07,2.74
	c1.38,0.021,2.77,0.049,4.15,0.08c-0.06-1.359-0.12-2.711-0.23-4.061C94.08,186.561,93.19,186.51,92.74,186.48z"/>
<path fill="#34E23D" d="M97.51,183.72c2.53,2.23,0.92,6.24,1.38,9.23c-0.54,4.899,1.21,10.36-1.19,14.86
	C97.34,199.78,97.66,191.75,97.51,183.72z"/>
<path fill="#D4E61A" d="M19.57,185.359c1.38-0.061,2.76-0.109,4.14-0.159c-0.03,1.39-0.07,2.78-0.1,4.17
	c-1.29-0.04-2.57-0.06-3.85-0.09C19.7,187.97,19.63,186.66,19.57,185.359z"/>
<path fill="#E200C5" d="M26.33,185.26c1.45-0.02,2.9-0.02,4.35-0.029c-0.01,1.359-0.03,2.721-0.05,4.08
	c-0.68-0.021-2.04-0.061-2.71-0.08c0.02,0.311,0.08,0.931,0.11,1.239C26.83,188.96,26.44,187.13,26.33,185.26z"/>
<path fill="#E400C8" d="M90.5,186.43c0.56,0.021,1.68,0.04,2.24,0.051c0.45,0.029,1.34,0.08,1.78,0.101
	c0.11,1.351,0.17,2.7,0.23,4.062c-1.38-0.031-2.77-0.062-4.15-0.08c-0.02-0.69-0.05-2.052-0.07-2.74
	C90.52,187.48,90.51,186.78,90.5,186.43z"/>
<path fill="#E513CC" d="M52.33,188.12c0.57-0.101,1.7-0.31,2.27-0.41c0.54,0.42,1.63,1.271,2.17,1.69
	c2.63-0.07,5.25-0.142,7.87-0.102l1,0.08c1.38,1,2.69,2.09,4.03,3.141c-0.12,3.399-0.04,6.811-0.06,10.211
	c-2.01,1.52-3.83,3.278-5.9,4.709c-3.09,0.029-6.17,0.029-9.25-0.189c-0.53-0.09-1.58-0.28-2.11-0.37
	c-1.66-1.37-3.19-2.89-4.88-4.21c-0.02-1.71-0.03-3.42-0.04-5.13c0-0.56-0.01-1.69-0.01-2.26c0-0.681,0.01-2.05,0.01-2.74
	c0.94-0.83,1.89-1.67,2.83-2.521C50.95,189.391,51.64,188.76,52.33,188.12z"/>
<path fill="#EF00D1" d="M84.72,189.391c0.9-0.041,2.7-0.131,3.6-0.171c0.16,0.21,0.46,0.62,0.61,0.82c0.12,0.86,0.37,2.58,0.49,3.43
	c-1.36-0.02-2.73-0.06-4.1-0.1c-0.11-0.7-0.32-2.09-0.43-2.79L84.72,189.391z"/>
<path fill="#D5E81C" d="M25.33,192.23c-0.06-1.5,0.84-2.09,2.7-1.762c-0.03-0.31-0.09-0.93-0.11-1.238c0.91,1.68,1.48,3.5,1.71,5.39
	c-1.5,0.06-2.99,0.12-4.49,0.18C25.19,194.16,25.28,192.87,25.33,192.23z"/>
<path fill="#E300CC" d="M32.3,190.57c1.31,0.05,2.63,0.09,3.94,0.14c0.02,0.37,0.05,1.11,0.07,1.47c0.05,1.18,0.12,2.36,0.21,3.551
	c-1.02-1.371-2.9-0.83-4.35-1.121C32.21,193.26,32.26,191.92,32.3,190.57z"/>
<path fill="#E300C8" d="M21.03,192.18c1.43,0.01,2.87,0.03,4.3,0.051c-0.05,0.641-0.14,1.931-0.19,2.569
	c0.46,2.29-2.63,1.16-3.91,1.681C21.16,195.05,21.1,193.609,21.03,192.18z"/>
<path fill="#D5E71E" d="M36.31,192.18c1.41,0.03,2.82,0.051,4.23,0.08c-0.07,1.34-0.14,2.68-0.21,4.03c-1.26,0-2.52,0.01-3.77,0.03
	l-0.04-0.59C36.43,194.54,36.36,193.359,36.31,192.18z"/>
<path fill="#E200C7" d="M79.8,193.37c0.82,0.09,1.64,0.18,2.46,0.28c-0.01,1.289-0.01,2.568-0.02,3.869
	c-1.34,0.029-2.69,0.08-4.03,0.121c-0.03-1.472-0.07-2.932-0.11-4.392C78.53,193.28,79.38,193.34,79.8,193.37z"/>
<path fill="#D3E718" d="M85.32,193.37c1.37,0.04,2.74,0.08,4.1,0.1c0.58,0.011,1.72,0.021,2.29,0.03c0.05,1.359,0.1,2.72,0.15,4.08
	c-0.33,0-1-0.01-1.33-0.02c-0.69-0.012-2.06-0.03-2.75-0.041c-0.08,0.75-0.25,2.261-0.34,3.011c-0.97-0.08-2.91-0.23-3.89-0.3
	c0.05-1.211,0.1-2.42,0.15-3.621c1.67-0.25,3.53-0.289,4.61-1.799C87.29,194.37,86.29,193.891,85.32,193.37z"/>
<path fill="#E200C5" d="M91.86,197.58c0.69,0.01,2.07,0.02,2.76,0.029c0.02,1.371,0.03,2.74,0.05,4.109
	c-1.39-0.02-2.77-0.029-4.15-0.039c0-1.381,0.01-2.75,0.01-4.119C90.86,197.57,91.53,197.58,91.86,197.58z"/>
<path d="M54.46,207.25c3.08,0.22,6.16,0.22,9.25,0.189c0.5,0.791,1.02,1.58,1.54,2.359c-0.02,3.74-0.02,7.471-0.02,11.2H53.11
	C53.5,216.439,51.93,211.38,54.46,207.25z"/>
</svg>
