<?xml version="1.0" encoding="utf-8"?>
<!-- Generator: Adobe Illustrator 15.0.2, SVG Export Plug-In . SVG Version: 6.00 Build 0)  -->
<!DOCTYPE svg PUBLIC "-//W3C//DTD SVG 1.1//EN" "http://www.w3.org/Graphics/SVG/1.1/DTD/svg11.dtd">
<svg version="1.1" id="Layer_1" xmlns="http://www.w3.org/2000/svg" xmlns:xlink="http://www.w3.org/1999/xlink" x="0px" y="0px"
	 width="106px" height="150px" viewBox="0 0 106 150" enable-background="new 0 0 106 150" xml:space="preserve">
<path fill="#FFFFFF" d="M0,0h106v134.01c-1.58,0.42-1.58,1.021,0,1.801V150H0v-27.4c0.7,0.03,2.1,0.09,2.79,0.12
	c3.03-1.03,6.09-1.938,9.11-2.96c-1.14,5.17-0.28,10.92,3.64,14.71c1.23,0.45,2.54,0.66,3.82,0.95c0.97,1.88,2.18,3.63,3.61,5.2
	c0.88-0.479,1.77-0.96,2.66-1.431c0.67,1.371,1.34,2.75,2.01,4.131c1.1-7.301,5.03-13.69,9.38-19.48c-0.09-0.68-0.38-1.25-0.87-1.71
	c-1.11,1.05-2.19,2.16-3.27,3.25c1.07-1.72,2.17-3.42,3.31-5.1l0.41,0.1c0.37,0.271,1.11,0.81,1.48,1.08
	c-0.9-4.13-0.29-8.17,2.02-11.69c-4.15,1.371-3.56,5.94-5.02,9.271c-1.22-1.391-2.42-2.79-3.53-4.26c0.67-0.07,2.01-0.211,2.69-0.28
	c-1.16-1.858-2.27-3.75-3.34-5.66c0.68,1.86,1.37,3.71,2.05,5.58l-1.54-0.021c0.14,1.301,0.28,2.601,0.41,3.899
	c0.98,0.49,1.97,0.98,2.94,1.49c-1.54,2.33-3.14,4.62-5.01,6.69l2.6-0.45c-1.28,1.739-2.52,3.51-3.8,5.26
	c-1.1-9.25,1.15-18.46,0.73-27.681c-3.36,0.5-5.59,3.471-8.48,5.031c-6.76,4.01-13.21,8.85-20.8,11.188V0 M38.79,8.73
	c3.36,2.04,7.1,3.65,9.69,6.73c3.27,3.04,5.73,7.04,9.661,9.32c5.209-1.96,10.489-3.94,15.67-6.05c0.311,0.09,0.92,0.28,1.229,0.38
	c-2.181,1.5-4.53,2.71-6.89,3.89c5.699,1.45,10.01,5.89,12.97,10.75c-0.351,1.19-1.36,2.45-0.351,3.61
	c2.041,2.92-0.069,6.14-1.471,8.8c0.83,0.73,1.66,1.47,2.58,2.1c4.141-0.57,8.311-1.66,12.49-0.68c0.09,0.54,0.26,1.61,0.34,2.14
	c-3.988-0.77-8.061-0.37-12.029,0.29c-0.011,0.53-0.029,1.58-0.039,2.11c-2.82,0.86-5.32,2.48-8.121,3.38
	c-3.271,0.89-5.761-1.85-8.25-3.43c-0.229,1.8,0.521,3.39,2.181,4.18c4.44,1.83,9.78,1.02,13.72-1.64c2.67-1.1,6.43-0.26,7.7,2.58
	c1.51,2.66-0.229,5.6-0.64,8.33c3.108-1.67,4.18-6.13,2.199-9.03c-1.091-2.34-3.561-3.35-5.66-4.54c1.791-0.19,3.58-0.39,5.359-0.61
	c0.63,1.18,1.852,1,2.939,0.94c2.181,2.34,4.011,5.37,3.351,8.7c-0.271,4.69-5.04,6.74-7.108,10.46c-1.74,2.94-2.25,6.6-4.75,9.09
	c-6.99,7.43-17.211,10.14-25.61,15.53c-2.591,2.08-6.07,0.938-8.96,2.119c-5.41,2.211-11.25,3.101-17.04,3.471
	c-5.29-0.2-11.9-1.41-13.93-7.08c1.4-0.79,2.8-1.59,4.23-2.312c3.23,1.65,6.47,3.71,10.31,3.101c0.01-0.159,0.03-0.489,0.04-0.649
	c-3.43,0.09-6.57-1.34-9.55-2.86c1.3-0.869,2.6-1.729,3.89-2.6c2.9,3.55,7.83,3.4,11.97,2.98c-2.38-0.472-4.8-0.682-7.22-0.86
	c-1.46-0.84-2.93-1.66-4.4-2.47c1.46-0.75,2.91-1.49,4.33-2.291c8.98,1.601,18.35,1.531,27.271-0.399
	c4.889-1.31,9.319-3.99,13.26-7.101c4.591-3.561,6.689-9.179,10.521-13.399c0.011-0.84,0.03-2.52,0.04-3.36
	c1.53,0.05,3.068,0.09,4.602,0.12c-2.25-2.41-5.17-4.17-6.36-7.42c-0.181,0.73-0.55,2.2-0.74,2.94
	c-6.88,3.47-14.101,6.17-21.351,8.75c-0.379-0.55-0.76-1.1-1.139-1.64c0.988-1.47,1.27-3.16,0.84-5.05
	c2.06,2.07,5.108,1.86,7.778,1.55c-2.34-0.48-5.14,0.15-6.93-1.79c-2.2-0.13-4.382-0.69-6.601-0.43c0.569,2.09,2.91,1.79,4.561,2.21
	c-0.58,1.29-1.182,2.58-1.801,3.86c0.82,0.49,1.631,0.99,2.439,1.48c-4.859,0.72-10.03,3.11-14.88,1.42
	c1.61-0.58,2.68-1.7,3.22-3.37c-1.09,0.44-2.17,0.9-3.24,1.38c-1.37-1.44-2.7-2.93-3.96-4.47c1.33-1.29,2.78-2.47,4.07-3.81
	c0.19-1.4,0.11-2.82,0.15-4.22c1.27-0.67,2.52-1.36,3.77-2.06c-2.54-0.54-4.86-1.65-7.03-3.04c-2.59-1.61-5.72-1.01-8.6-1.15
	l-0.42,0.48c-1.15,0.77-1.89,1.94-2.66,3.06c4.22,1.19,8.6,1.44,12.95,1.76c0.05,1.4,0.11,2.79,0.16,4.19
	c-3.39,2.89-6.91,5.61-10.74,7.89c2.46-0.96,5.04-2.33,7.68-1.04c1.42,1.25,2.72,2.63,4.17,3.86c0.21,0.39,0.62,1.17,0.82,1.56
	c-6.08-0.22-12.73-1.15-16.98-6.01c-0.03-1.99-0.15-3.98-0.47-5.94c-1.48,2.27-2.08,4.97-3.26,7.39c-2.14,0.17-3.87-1.75-6.09-1.5
	c-0.06-0.58-0.16-1.75-0.22-2.34c-0.31-0.71-0.92-2.14-1.23-2.86c0.7-1.18,1.39-2.37,2.08-3.56c-0.66,0.37-1.97,1.1-2.62,1.46
	c0.89-3.44,3.75-5.65,5.75-8.4c1.66-3.78,1.36-8.24-0.59-11.85c0.09-4.46,1.12-9,4.22-12.38c2.09,0.23,4.17,0.61,6.28,0.32
	c-1.74-2.45-4.05-4.43-7.1-4.92c0.89-0.73,1.78-1.46,2.68-2.18c3.57,2.2,8.02,3.68,11.96,1.39c2.43-0.91,1.56-3.68,1.84-5.67
	c-0.88-0.98-1.76-1.96-2.64-2.94c-3.1-0.24-6.39-0.33-9.18,1.28c-4.76,2.7-8.1,7.41-10.35,12.29c-1.86,3.8-0.37,8.05,0.16,11.98
	c0.3,2.54,3.16,4.43,2.12,7.16c0.25,6.2-7.84,8.59-7.17,14.84c0.17,5.12,3.93,9.11,4.64,14.1c1.01,6.33-0.42,12.74-1.18,19.01
	c-0.51,0.29-1.52,0.87-2.02,1.149c-0.69-3.08-2.04-5.84-5.07-7.181C7.89,83.7,5.06,84.98,2.47,86.6C0.77,89.76,1.92,93.37,2.29,96.7
	c1.48,1.29,2.9,2.68,4.62,3.63c4.24-0.141,7.89-2.73,11.6-4.54c1.83,3.239,4.66,6.149,8.43,6.92c9.49,2.66,18.86-1.479,28.18-2.851
	c3.659-0.83,6.81-2.969,10.12-4.619c4.96-2.471,9.85-5.07,14.83-7.5c0.24,1.109,0.43,2.229,0.58,3.359
	c-1.871,7.971-5.852,15.17-8.61,22.819c-1.74,4.07-4.931,7.399-6.22,11.688c-0.551-0.84-1.1-1.68-1.62-2.539
	c-1.03,1.289-2.06,2.57-2.97,3.939c0.479-0.41,1.459-1.229,1.949-1.63c0.42,0.56,0.829,1.12,1.239,1.69
	c-1.97,2.479-3.8,5.08-5.5,7.75c-1.101-1.521-2.26-3.021-3.438-4.471c1.02,0.079,3.06,0.229,4.08,0.301
	c-0.4-1.57-1.86-2.36-3.052-3.28c-0.46,0.909-0.92,1.81-1.39,2.71c-1.76-2.95-1.68-6.26-1.9-9.53c-1.65-4.39-4.39-9.159-9.28-10.39
	c0.87,1.17,1.93,2.16,2.96,3.189c-0.55,4.391-5.26,7.041-4.82,11.631c-0.99-0.871-1.98-1.73-2.98-2.59
	c-0.49,3.139-0.92,6.31-0.7,9.488c1.37-1.92,2.47-4.021,3.68-6.05c0.62,3.75,1.68,7.42,2.15,11.2c0.16,3.818-0.8,7.56-1.17,11.34
	c0.6,0.05,1.79,0.14,2.39,0.18c2.47-7.568,0.59-15.398-1.68-22.738c0.93-3.541,3.07-6.531,4.83-9.67
	c2.13,0.818,1.74,3.979,1.84,5.879c-0.34,5.771,4.202,10.041,7.911,13.811c-2.141,1.439-3.351,3.811-5.021,5.71
	c-1.99,2.239-4.21,4.31-5.77,6.91c4.16,0.52,8.589,0.39,12.44-1.421c5.96-2.489,10.351-7.311,14.771-11.829
	c1.951,1.12,4.051,1.93,6.211,2.54c7.93-7.11,13.59-16.221,20.33-24.37c2.698-2.99,2.959-7.32,2.299-11.101
	c-1.719-1.41-4.229-1.289-6.069-2.551c-5.75-3.898-11.31-8.109-16.38-12.88c3.779-2.771,7.72-5.989,9.04-10.71
	c1.54-5.96,9.04-8.58,9.12-15.12c0.6-3.7-1.2-7.16-3.85-9.63C97.8,44.2,95.88,36.42,95.26,29.07c-1.47-4.22-2.68-9.04-6.279-11.98
	c-4.431-2.47-7.189-7.05-11.859-9.19c-5.801-3.76-13.13-2.81-19.07-6.15C51.17,1.62,43.87,3.91,38.79,8.73 M43.84,14.78
	c1.45,1.99,3.48,3.49,4.83,5.56c0.63,1.03,0.53,2.61,1.61,3.3c1.07-0.1,2.13-0.23,3.2-0.41C50.85,19.87,47.87,16.47,43.84,14.78
	 M37.58,23.93c-1.57-0.11-3.13-0.25-4.69-0.41c2,2.44,3.75,5.1,6.03,7.3c2.09-0.7,4.94-0.81,6.01-3.08
	c-0.74-2.1-2.84-3.36-4.18-5.07C39.69,23.09,38.63,23.51,37.58,23.93 M51.91,34.39c-3.39,0.63-6.88,0.23-10.24,0.98
	c7.48,1.06,14.801-1.74,22.27-0.95c3.42,0.47,6.432,2.27,9.562,3.59c-0.46,0.521-0.91,1.04-1.358,1.56
	c-7.682-4.74-17.012-2.97-25.42-1.85c-4.26,0.75-8.42-0.64-12.63-0.96c-1.44-0.24-1.85,1.4-2.5,2.3c0.53-0.43,1.58-1.29,2.11-1.72
	c5.31,1.22,10.82,1.56,16.23,1.1c3.88-1.34,7.99-1.53,12.05-1.28c4.08-0.03,7.568,2.34,11.318,3.59c1.172,1.53,2.811,2.55,4.61,3.18
	c-0.938-0.8-1.899-1.57-2.882-2.32c-0.198-0.62-0.6-1.85-0.799-2.47c0.359-0.09,1.08-0.27,1.439-0.36
	c-3.4-2.33-7.15-4.15-11.18-5.05C60.3,33.03,56.04,33.64,51.91,34.39 M57.3,39.51c-0.89,1.65-1.71,3.33-2.229,5.14
	c0.229-0.02,0.709-0.04,0.949-0.05c0.381-1.49,0.812-2.96,1.26-4.43c4.041-0.67,8.041,0.47,12.08,0.34
	C65.51,38.95,61.33,39.45,57.3,39.51 M32.05,42.04c-1.41,0.85-1.35,2.64-1.69,4.04c0.56-1.03,1.07-2.09,1.56-3.16
	c4.17-2.57,9.28-1.97,13.84-0.99c-0.29-0.32-0.87-0.94-1.16-1.25C40.43,40.91,35.67,39.24,32.05,42.04 M69.939,41.09
	C70.529,41.69,70.529,41.69,69.939,41.09 M72.27,42.13c-0.22,1.37,0.36,1.89,1.73,1.57C74.21,42.34,73.63,41.82,72.27,42.13
	 M43.27,42.66c0.35,2.05,0.48,4.16,1.25,6.11C44.5,46.67,45.06,44.23,43.27,42.66 M53.92,50.3c0.35,1.94,1.78,3.21,3.221,4.4
	c3.209-2.05,6.92-3.28,10.719-3.51c2.75-0.01,5.73,2.17,8.16,0.02c-1.299-2.06-2.789-4.21-5.18-5.09
	C64.99,44.3,58.05,45.55,53.92,50.3 M77.45,49.17c0.26,1.33,0.19,2.65-0.24,3.95c0.78-1.38,1.99-2.31,3.479-2.83
	C79.6,49.93,78.52,49.56,77.45,49.17 M20.44,51c0.5,0.42,0.99,0.84,1.5,1.26c2.31-2.16,5.52-1.44,8.36-1.67
	C27.14,49.46,23.67,50.66,20.44,51 M19.7,53.31C19.98,53.74,19.98,53.74,19.7,53.31 M22.57,53.67
	C23.04,53.06,23.04,53.06,22.57,53.67 M20.43,61.48c0.63,0.09,1.89,0.27,2.52,0.37c-0.72-0.57-1.43-1.13-2.15-1.69
	c0-1.36-0.01-2.73-0.01-4.09c0.44-0.6,1.33-1.8,1.78-2.4C18.95,54.51,20.69,58.82,20.43,61.48 M21.7,57.58
	c2.42-0.64,4.89-1.13,7.41-1.06c0.5,1.01,1.01,2.01,1.52,3.02c2.5-0.13,5.18-0.71,6.29-3.22c-1.29,0.07-2.55,0.36-3.77,0.79
	c-2.68-2-5.87-2.87-9.2-2.5C23.39,55.35,22.26,56.84,21.7,57.58 M94.221,57.31c-1.41,0.97,0.059,3.67,1.559,2.42
	C97.17,58.75,95.71,56.06,94.221,57.31 M49.94,64.45c2.37,0.07,4.75,0.07,7.13,0.11C56.45,61.33,51.14,61.79,49.94,64.45
	 M88.92,68.11c3.23-0.6,6.051-2.86,6.04-6.36C93.5,64.39,91.859,66.95,88.92,68.11 M64.92,87.689l-0.63-1.26l-0.81,1.779l-0.181-0.1
	c-4.021,1.031-7.86,2.75-12.05,3.061c-1.45,4.08-6.74,2.21-9.98,3.189c0.42,0.391,1.27,1.149,1.7,1.541
	c7.07-0.432,14.01-2.142,20.79-4.142l-0.23-0.52C67,89.93,70.45,88.58,73.76,86.91c2.631-1.311,5.35-2.61,7.41-4.78
	C75.811,84.15,71.04,87.4,65.73,89.54l-0.5-1.149c3.64-2.031,7.528-3.66,10.898-6.149C72.279,83.811,68.43,85.45,64.92,87.689
	 M39.39,89.311c1.08,1.26,5.12,1.271,6.18-0.08C43.7,88.4,41.25,88.5,39.39,89.311 M48.5,89.109c0.24,1.311,0.97,1.531,2.21,0.649
	C50.47,88.439,49.73,88.22,48.5,89.109 M42.15,92.9c1.87,0.068,3.73,0.06,5.6-0.021C46.54,90.49,43.4,90.609,42.15,92.9
	 M62.63,103.82c-3.229,2.979-7.37,4.779-10.44,7.93c2.39-1.02,4.52-2.53,6.8-3.76c3.27-1.96,5.76-5.1,9.35-6.5l0.471,0.979
	c-3.601,2.432-6.871,5.301-10.351,7.881c-1.69,1.33-3.95,2.25-4.649,4.461c4.609-2.48,8.311-6.271,12.629-9.182
	c3.762-3.21,8.121-6.16,10.34-10.72c-2.379,1.659-4.34,3.819-6.389,5.85l-0.82-0.54c1.529-1.828,3.421-3.408,4.521-5.568
	C69.96,97.29,66.65,101.02,62.63,103.82 M54.1,118.1c3.051-0.27,5.11-2.83,7.392-4.59c4.021-3.67,8.81-6.689,11.81-11.33
	C66.76,107.32,60.87,113.25,54.1,118.1 M66.79,111.88c-3.899,3.761-8.14,7.17-11.83,11.15c3.84-1.11,6.21-4.49,9.14-6.95
	c3.371-3.35,7.102-6.439,9.84-10.37C71.17,107.28,69.08,109.72,66.79,111.88 M66.391,117.439c-2.791,2.75-6.261,4.819-8.451,8.141
	c4.701-2.86,9.41-6.28,12.33-11.03C68.73,115.16,67.55,116.311,66.391,117.439 M30.54,120.32c-0.31,1.359,0.22,1.82,1.6,1.369
	C32.48,120.33,31.95,119.87,30.54,120.32z"/>
<path fill="#010101" d="M38.79,8.73c5.08-4.82,12.38-7.11,19.26-6.98C63.99,5.09,71.32,4.14,77.12,7.9
	c4.67,2.14,7.43,6.72,11.86,9.19c3.6,2.94,4.81,7.76,6.278,11.98c0.62,7.35,2.54,15.13,0.212,22.31c2.648,2.47,4.448,5.93,3.85,9.63
	c-0.08,6.54-7.58,9.16-9.12,15.12c-1.32,4.72-5.261,7.94-9.04,10.71c5.07,4.77,10.63,8.98,16.38,12.88
	c1.84,1.261,4.351,1.14,6.069,2.55c0.66,3.78,0.399,8.11-2.299,11.102c-6.74,8.148-12.4,17.26-20.33,24.37
	c-2.16-0.61-4.26-1.421-6.211-2.54c-4.42,4.52-8.811,9.34-14.771,11.83c-3.851,1.81-8.28,1.938-12.44,1.42
	c1.56-2.602,3.78-4.67,5.77-6.91c1.67-1.898,2.88-4.271,5.021-5.71c-3.709-3.771-8.25-8.04-7.911-13.812
	c-0.1-1.898,0.29-5.06-1.84-5.879c-1.76,3.141-3.9,6.129-4.83,9.67c2.27,7.34,4.15,15.17,1.68,22.739c-0.6-0.04-1.79-0.13-2.39-0.18
	c0.37-3.78,1.33-7.521,1.17-11.34c-0.47-3.78-1.53-7.45-2.15-11.2c-1.21,2.029-2.31,4.13-3.68,6.05c-0.22-3.18,0.21-6.35,0.7-9.489
	c1,0.859,1.99,1.719,2.98,2.59c-0.44-4.59,4.27-7.239,4.82-11.631c-1.03-1.028-2.09-2.02-2.96-3.188c4.89,1.229,7.63,6,9.28,10.39
	c0.22,3.271,0.14,6.58,1.9,9.53c0.47-0.899,0.93-1.8,1.39-2.71c1.19,0.92,2.65,1.71,3.052,3.279
	c-1.021-0.069-3.062-0.221-4.08-0.301c1.18,1.45,2.34,2.95,3.438,4.472c1.7-2.671,3.53-5.271,5.5-7.75
	c-0.41-0.57-0.819-1.132-1.239-1.69c-0.49,0.4-1.471,1.221-1.949,1.631c0.91-1.369,1.938-2.65,2.97-3.939
	c0.521,0.859,1.069,1.699,1.62,2.539c1.289-4.289,4.479-7.619,6.22-11.689c2.76-7.65,6.739-14.85,8.61-22.82
	c-0.15-1.129-0.34-2.25-0.58-3.358c-4.98,2.43-9.87,5.028-14.83,7.5c-3.311,1.649-6.461,3.79-10.12,4.618
	c-9.32,1.371-18.69,5.512-28.18,2.852c-3.77-0.771-6.6-3.68-8.43-6.92c-3.71,1.811-7.36,4.398-11.6,4.54
	c-1.72-0.95-3.14-2.34-4.62-3.63C1.92,93.37,0.77,89.76,2.47,86.6c2.59-1.619,5.42-2.898,8.56-2.59c3.03,1.34,4.38,4.1,5.07,7.18
	c0.5-0.278,1.51-0.858,2.02-1.148c0.76-6.271,2.19-12.682,1.18-19.01c-0.71-4.99-4.47-8.98-4.64-14.1
	c-0.67-6.25,7.42-8.64,7.17-14.84c1.04-2.73-1.82-4.62-2.12-7.16c-0.53-3.93-2.02-8.18-0.16-11.98c2.25-4.88,5.59-9.59,10.35-12.29
	c2.79-1.61,6.08-1.52,9.18-1.28c0.88,0.98,1.76,1.96,2.64,2.94c-0.28,1.99,0.59,4.76-1.84,5.67c-3.94,2.29-8.39,0.81-11.96-1.39
	c-0.9,0.72-1.79,1.45-2.68,2.18c3.05,0.49,5.36,2.47,7.1,4.92c-2.11,0.29-4.19-0.09-6.28-0.32c-3.1,3.38-4.13,7.92-4.22,12.38
	c1.95,3.61,2.25,8.07,0.59,11.85c-2,2.75-4.86,4.96-5.75,8.4c0.65-0.36,1.96-1.09,2.62-1.46c-0.69,1.19-1.38,2.38-2.08,3.56
	c0.31,0.72,0.92,2.15,1.23,2.86c0.06,0.59,0.16,1.76,0.22,2.34c2.22-0.25,3.95,1.67,6.09,1.5c1.18-2.42,1.78-5.12,3.26-7.39
	c0.32,1.96,0.44,3.95,0.47,5.94c4.25,4.86,10.9,5.79,16.98,6.01c-0.2-0.39-0.61-1.17-0.82-1.56c-1.45-1.23-2.75-2.61-4.17-3.86
	c-2.64-1.29-5.22,0.08-7.68,1.04c3.83-2.28,7.35-5,10.74-7.89c-0.05-1.4-0.11-2.79-0.16-4.19c-2.07-0.35-4.14-0.68-6.21-1
	c0.16-0.75,0.48-2.25,0.63-2.99c-0.85,0.01-2.56,0.04-3.42,0.05c0.08,0.73,0.24,2.2,0.32,2.93c-0.87-0.4-2.62-1.22-3.5-1.63
	c0.48-0.55,1.42-1.64,1.89-2.18l0.42-0.48c2.88,0.14,6.01-0.46,8.6,1.15c2.17,1.39,4.49,2.5,7.03,3.04c-1.25,0.7-2.5,1.39-3.77,2.06
	c-0.04,1.4,0.04,2.82-0.15,4.22c-1.29,1.34-2.74,2.52-4.07,3.81c1.26,1.54,2.59,3.03,3.96,4.47c1.07-0.48,2.15-0.94,3.24-1.38
	c-0.54,1.67-1.61,2.79-3.22,3.37c4.85,1.69,10.021-0.7,14.88-1.42c-0.81-0.49-1.619-0.99-2.439-1.48
	c0.619-1.28,1.221-2.57,1.801-3.86c-1.648-0.42-3.99-0.12-4.561-2.21c2.219-0.26,4.399,0.3,6.601,0.43
	c1.79,1.94,4.59,1.31,6.93,1.79c-2.67,0.31-5.72,0.52-7.778-1.55c0.43,1.89,0.148,3.58-0.84,5.05c0.379,0.54,0.76,1.09,1.139,1.64
	c7.25-2.58,14.471-5.28,21.351-8.75c0.19-0.74,0.56-2.21,0.74-2.94c1.19,3.25,4.11,5.01,6.36,7.42c-1.531-0.03-3.07-0.07-4.602-0.12
	c-0.01,0.84-0.029,2.52-0.04,3.36c-3.83,4.22-5.93,9.84-10.521,13.398c-3.939,3.111-8.371,5.791-13.26,7.102
	c-8.919,1.932-18.291,2-27.271,0.398c-1.42,0.802-2.87,1.541-4.33,2.291c1.47,0.811,2.94,1.631,4.4,2.471
	c2.42,0.18,4.84,0.39,7.22,0.859c-4.14,0.42-9.07,0.569-11.97-2.979c-1.29,0.87-2.59,1.729-3.89,2.601
	c2.98,1.521,6.12,2.949,9.55,2.859c-0.01,0.16-0.03,0.49-0.04,0.648c-3.84,0.611-7.08-1.448-10.31-3.1
	c-1.43,0.721-2.83,1.521-4.23,2.312c2.03,5.67,8.64,6.88,13.93,7.079c5.79-0.369,11.63-1.26,17.04-3.471
	c2.89-1.18,6.37-0.039,8.96-2.119c8.399-5.391,18.62-8.101,25.61-15.529c2.5-2.49,3.01-6.15,4.75-9.09
	c2.068-3.72,6.84-5.77,7.108-10.46c0.66-3.33-1.17-6.36-3.351-8.7c-1.09,0.06-2.311,0.24-2.939-0.94
	c-1.779,0.22-3.568,0.42-5.359,0.61c2.101,1.19,4.569,2.2,5.66,4.54c1.979,2.9,0.909,7.36-2.199,9.03
	c0.41-2.73,2.148-5.67,0.64-8.33c-1.271-2.84-5.03-3.68-7.7-2.58c-3.939,2.66-9.279,3.47-13.72,1.64
	c-1.66-0.79-2.41-2.38-2.181-4.18c2.489,1.58,4.979,4.32,8.25,3.43c2.801-0.9,5.301-2.52,8.121-3.38
	c0.01-0.53,0.028-1.58,0.039-2.11c3.971-0.66,8.041-1.06,12.029-0.29c-0.08-0.53-0.25-1.6-0.34-2.14
	c-4.182-0.98-8.352,0.11-12.49,0.68c-0.92-0.63-1.75-1.37-2.58-2.1c1.4-2.66,3.512-5.88,1.471-8.8c-1.011-1.16,0-2.42,0.351-3.61
	c-2.96-4.86-7.271-9.3-12.97-10.75c2.358-1.18,4.709-2.39,6.89-3.89c-0.31-0.1-0.92-0.29-1.229-0.38
	c-5.181,2.11-10.461,4.09-15.67,6.05c-3.931-2.28-6.391-6.28-9.661-9.32C45.89,12.38,42.15,10.77,38.79,8.73 M75.02,63.93
	c0.15,1.23,0.291,2.47,0.44,3.7c3.95-0.8,7.41-3.32,8.511-7.35C80.57,60.08,77.96,62.64,75.02,63.93 M18.92,63.66
	c4.13,7.88,1.96,17.08,1.18,25.5c1.5-0.78,3-1.57,4.49-2.35c-0.15,0.76-0.44,2.299-0.59,3.06c1.74-0.761,3.22-1.729,2.37-3.79
	c0.95,0.05,1.85,0.34,2.68,0.85c2.63-2.13,6.62-2.91,8.26-6.02c-1.88,0.56-3.61,1.47-5.26,2.5c0.93-1.9-0.46-3.16-1.64-4.41
	c0.15,1.84,0.15,3.67,0.1,5.51c-0.87,0.37-1.76,0.65-2.67,0.84c-2.03-3.83-3.63-7.959-3.53-12.38c-0.42-2.31,0.7-4.979-0.32-7.07
	C22.33,65.09,20.63,64.35,18.92,63.66 M27.19,65.14c-1.28-0.02-1.93,2.37-0.42,2.52C28.05,67.68,28.71,65.29,27.19,65.14
	 M62.471,67.98c0.319,1.33,0.629,2.66,0.949,3.98c1.88-0.67,3.77-1.3,5.721-1.74c2.209-1.13,4.09-2.85,4.529-5.42
	C69.85,65.54,66.21,66.93,62.471,67.98 M28.02,73.07c1.47-1.85,1.7-4.17,1.6-6.46C27.62,68.18,27.45,70.78,28.02,73.07 M31.34,68.15
	c-0.19,1.72-0.14,3.46-0.01,5.18c0.56,0.12,1.68,0.35,2.24,0.47c0.31-1.19,0.63-2.38,0.96-3.56C33.47,69.53,32.41,68.83,31.34,68.15
	 M75.7,74.71c1.68-2.01,3.229-4.17,4.22-6.61C77.38,68.83,72.439,71.91,75.7,74.71 M51.82,70.79c0.01,0.94,0.05,2.82,0.07,3.76
	c3.219-0.17,6.389-0.84,9.56-1.41c-0.22-1.4-0.44-2.8-0.681-4.2C57.76,69.41,54.82,70.26,51.82,70.79 M36.61,70.4
	c-0.37,1.09-0.74,2.19-1.12,3.28c2.29,0.52,4.62,0.67,6.96,0.75c0.04-1.01,0.08-2.01,0.13-3.01C40.58,71.09,38.59,70.76,36.61,70.4
	 M44.69,71.68c-0.19,0.66-0.57,1.99-0.76,2.65c2.15,0,4.29,0.01,6.45,0.02c-0.01-0.98-0.03-2.93-0.03-3.91
	C48.46,70.86,46.58,71.29,44.69,71.68 M64.029,76.08c0.381,2.08,1.511,3.91,2.541,5.73c2.4-1.771,4.779-3.58,7.24-5.271
	c-0.42-1.55-0.86-3.09-1.271-4.64C69.82,73.53,66.63,74.32,64.029,76.08 M53.55,78.79c0.181,2.05,0.47,4.101,0.851,6.13
	c3.301-0.18,6.521-0.91,9.601-2.1c-0.59-2.32-1.351-4.602-1.688-6.99C59.49,77.1,56.561,78.109,53.55,78.79 M37.18,81.87
	c2.1-0.83,4.08-1.94,6.1-2.94c-0.21-0.438-0.64-1.31-0.86-1.75C40.61,78.66,37.51,79.189,37.18,81.87 M27.21,79.09
	c-0.64,0.95,0.35,3.11,1.61,2.561C29.54,80.68,28.48,78.53,27.21,79.09 M45.11,80.311c0.6,1.069,0.55,4.729-1.17,2.869
	c-0.39-1.188-1.25-2.05-2.27-2.729c-0.61,0.59-1.85,1.77-2.46,2.369c0.41,0.689,1.23,2.08,1.64,2.779
	c2.1-0.52,4.34-1.398,6.42-0.279c1.67,0.091,3.34,0.109,5.01,0.15c-0.31-2.07-0.46-4.141-0.54-6.221
	C49.53,79.6,47.32,79.96,45.11,80.311 M36.51,84.05C36.54,87.439,39.44,82.47,36.51,84.05 M9,87.26C7.33,90.17,12.33,87.55,9,87.26
	 M7.04,88.15C5.47,91.109,10.38,88.311,7.04,88.15z"/>
<path fill="#020202" d="M43.84,14.78c4.03,1.688,7.01,5.09,9.64,8.45c-1.07,0.18-2.13,0.31-3.2,0.41c-1.08-0.69-0.98-2.27-1.61-3.3
	C47.32,18.27,45.29,16.77,43.84,14.78z"/>
<path fill="#060606" d="M37.58,23.93c1.05-0.42,2.11-0.84,3.17-1.26c1.34,1.71,3.44,2.97,4.18,5.07c-1.07,2.27-3.92,2.38-6.01,3.08
	c-2.28-2.2-4.03-4.86-6.03-7.3C34.45,23.68,36.01,23.82,37.58,23.93z"/>
<path fill="#060606" d="M51.91,34.39c4.13-0.75,8.39-1.36,12.58-0.66c4.029,0.9,7.779,2.72,11.18,5.05
	c-0.359,0.09-1.08,0.27-1.439,0.36c0.199,0.62,0.601,1.85,0.799,2.47c0.98,0.75,1.941,1.52,2.882,2.32
	c-1.802-0.63-3.438-1.65-4.61-3.18c-3.75-1.25-7.238-3.62-11.318-3.59c-4.062-0.25-8.17-0.06-12.05,1.28
	c-5.41,0.46-10.92,0.12-16.23-1.1c-0.53,0.43-1.58,1.29-2.11,1.72c0.65-0.9,1.06-2.54,2.5-2.3c4.21,0.32,8.37,1.71,12.63,0.96
	c8.41-1.12,17.74-2.89,25.42,1.85c0.448-0.52,0.898-1.04,1.358-1.56c-3.13-1.32-6.142-3.12-9.562-3.59
	c-7.469-0.79-14.79,2.01-22.27,0.95C45.03,34.62,48.52,35.02,51.91,34.39z"/>
<path fill="#060606" d="M57.3,39.51c4.03-0.06,8.21-0.56,12.06,1c-4.039,0.13-8.039-1.01-12.08-0.34
	c-0.448,1.47-0.879,2.94-1.26,4.43c-0.24,0.01-0.72,0.03-0.949,0.05C55.59,42.84,56.41,41.16,57.3,39.51z"/>
<path fill="#060606" d="M32.05,42.04c3.62-2.8,8.38-1.13,12.55-1.36c0.29,0.31,0.87,0.93,1.16,1.25c-4.56-0.98-9.67-1.58-13.84,0.99
	c-0.49,1.07-1,2.13-1.56,3.16C30.7,44.68,30.64,42.89,32.05,42.04z"/>
<path fill="#606060" d="M69.939,41.09C70.529,41.69,70.529,41.69,69.939,41.09z"/>
<path fill="#060606" d="M72.27,42.13c1.36-0.31,1.94,0.21,1.73,1.57C72.63,44.02,72.05,43.5,72.27,42.13z"/>
<path fill="#060606" d="M43.27,42.66c1.79,1.57,1.23,4.01,1.25,6.11C43.75,46.82,43.62,44.71,43.27,42.66z"/>
<path fill="#020202" d="M53.92,50.3c4.13-4.75,11.07-6,16.92-4.18c2.391,0.88,3.881,3.03,5.18,5.09c-2.43,2.15-5.41-0.03-8.16-0.02
	c-3.799,0.23-7.51,1.46-10.719,3.51C55.7,53.51,54.27,52.24,53.92,50.3 M56.02,51.86c2.771,0.05,5.17-1.45,7.78-2.15
	c-0.12-0.66-0.34-1.97-0.45-2.63C60.561,48.06,57.391,48.96,56.02,51.86 M71.4,49.15C71.55,52.48,74.471,47.71,71.4,49.15z"/>
<path fill="#FCFCFC" d="M56.02,51.86c1.371-2.9,4.541-3.8,7.33-4.78c0.11,0.66,0.33,1.97,0.45,2.63
	C61.189,50.41,58.79,51.91,56.02,51.86z"/>
<path fill="#767676" d="M30.43,51.15c0.77-1.12,1.51-2.29,2.66-3.06c-0.47,0.54-1.41,1.63-1.89,2.18c0.88,0.41,2.63,1.23,3.5,1.63
	c-0.08-0.73-0.24-2.2-0.32-2.93c0.86-0.01,2.57-0.04,3.42-0.05c-0.15,0.74-0.47,2.24-0.63,2.99c2.07,0.32,4.14,0.65,6.21,1
	C39.03,52.59,34.65,52.34,30.43,51.15z"/>
<path fill="#B9B9B9" d="M71.4,49.15C74.471,47.71,71.55,52.48,71.4,49.15z"/>
<path fill="#060606" d="M77.45,49.17c1.069,0.39,2.149,0.76,3.239,1.12c-1.489,0.52-2.699,1.45-3.479,2.83
	C77.641,51.82,77.71,50.5,77.45,49.17z"/>
<path fill="#060606" d="M20.44,51c3.23-0.34,6.7-1.54,9.86-0.41c-2.84,0.23-6.05-0.49-8.36,1.67C21.43,51.84,20.94,51.42,20.44,51z"
	/>
<path d="M19.7,53.31C19.98,53.74,19.98,53.74,19.7,53.31z"/>
<path fill="#4E4E4E" d="M22.57,53.67C23.04,53.06,23.04,53.06,22.57,53.67z"/>
<path fill="#060606" d="M20.43,61.48c0.26-2.66-1.48-6.97,2.14-7.81c-0.45,0.6-1.34,1.8-1.78,2.4c0,1.36,0.01,2.73,0.01,4.09
	c0.72,0.56,1.43,1.12,2.15,1.69C22.32,61.75,21.06,61.57,20.43,61.48z"/>
<path fill="#010101" d="M21.7,57.58c0.56-0.74,1.69-2.23,2.25-2.97c3.33-0.37,6.52,0.5,9.2,2.5c1.22-0.43,2.48-0.72,3.77-0.79
	c-1.11,2.51-3.79,3.09-6.29,3.22c-0.51-1.01-1.02-2.01-1.52-3.02C26.59,56.45,24.12,56.94,21.7,57.58z"/>
<path fill="#D9D9D9" d="M94.221,57.31c1.489-1.25,2.949,1.44,1.559,2.42C94.279,60.98,92.811,58.28,94.221,57.31z"/>
<path fill="#FFFFFF" d="M75.02,63.93c2.94-1.29,5.551-3.85,8.951-3.65c-1.101,4.03-4.561,6.55-8.511,7.35
	C75.311,66.4,75.17,65.16,75.02,63.93z"/>
<path d="M49.94,64.45c1.2-2.66,6.51-3.12,7.13,0.11C54.689,64.52,52.31,64.52,49.94,64.45z"/>
<path fill="#060606" d="M88.92,68.11c2.939-1.16,4.58-3.72,6.04-6.36C94.971,65.25,92.15,67.51,88.92,68.11z"/>
<path fill="#FCFCFC" d="M18.92,63.66c1.71,0.69,3.41,1.43,5.07,2.24c1.02,2.09-0.1,4.76,0.32,7.07c-0.1,4.421,1.5,8.55,3.53,12.38
	c0.91-0.188,1.8-0.47,2.67-0.84c0.05-1.84,0.05-3.67-0.1-5.51c1.18,1.25,2.57,2.51,1.64,4.41l-0.47-0.18l-0.2,0.47
	c0.17-0.07,0.5-0.22,0.67-0.29c1.65-1.03,3.38-1.94,5.26-2.5c-1.64,3.109-5.63,3.89-8.26,6.02c-0.83-0.51-1.73-0.8-2.68-0.85
	c0.85,2.061-0.63,3.029-2.37,3.79c0.15-0.761,0.44-2.3,0.59-3.06c-1.49,0.778-2.99,1.568-4.49,2.35
	C20.88,80.74,23.05,71.54,18.92,63.66z"/>
<path fill="#272727" d="M27.19,65.14c1.52,0.15,0.86,2.54-0.42,2.52C25.26,67.51,25.91,65.12,27.19,65.14z"/>
<path fill="#FEFEFE" d="M62.471,67.98c3.739-1.05,7.379-2.44,11.199-3.18c-0.439,2.57-2.32,4.29-4.529,5.42
	c-1.951,0.44-3.841,1.07-5.721,1.74C63.1,70.64,62.79,69.31,62.471,67.98z"/>
<path fill="#FDFDFD" d="M28.02,73.07c-0.57-2.29-0.4-4.89,1.6-6.46C29.72,68.9,29.49,71.22,28.02,73.07z"/>
<path fill="#F5F5F5" d="M31.34,68.15c1.07,0.68,2.13,1.38,3.19,2.09c-0.33,1.18-0.65,2.37-0.96,3.56c-0.56-0.12-1.68-0.35-2.24-0.47
	C31.2,71.61,31.15,69.87,31.34,68.15z"/>
<path fill="#FEFEFE" d="M75.7,74.71c-3.261-2.8,1.68-5.88,4.22-6.61C78.93,70.54,77.38,72.7,75.7,74.71z"/>
<path fill="#FCFCFC" d="M51.82,70.79c3-0.53,5.94-1.38,8.95-1.85c0.24,1.4,0.461,2.8,0.682,4.2c-3.172,0.57-6.342,1.24-9.56,1.41
	C51.87,73.61,51.83,71.73,51.82,70.79z"/>
<path fill="#F9F9F9" d="M36.61,70.4c1.98,0.36,3.97,0.69,5.97,1.02c-0.05,1-0.09,2-0.13,3.01c-2.34-0.08-4.67-0.23-6.96-0.75
	C35.87,72.59,36.24,71.49,36.61,70.4z"/>
<path fill="#FEFEFE" d="M44.69,71.68c1.89-0.39,3.77-0.82,5.66-1.24c0,0.98,0.02,2.93,0.03,3.91c-2.16-0.01-4.3-0.02-6.45-0.02
	C44.12,73.67,44.5,72.34,44.69,71.68z"/>
<path fill="#FEFEFE" d="M64.029,76.08c2.601-1.76,5.791-2.55,8.511-4.18c0.41,1.55,0.851,3.09,1.271,4.64
	c-2.461,1.69-4.84,3.5-7.24,5.271C65.54,79.99,64.41,78.16,64.029,76.08z"/>
<path fill="#FDFDFD" d="M53.55,78.79c3.011-0.681,5.94-1.69,8.761-2.96c0.34,2.39,1.101,4.67,1.689,6.99
	c-3.08,1.188-6.3,1.92-9.6,2.1C54.02,82.891,53.73,80.84,53.55,78.79z"/>
<path fill="#FCFCFC" d="M37.18,81.87c0.33-2.681,3.43-3.21,5.24-4.69c0.22,0.44,0.65,1.312,0.86,1.75
	C41.26,79.93,39.28,81.04,37.18,81.87z"/>
<path fill="#7B7B7B" d="M27.21,79.09c1.27-0.56,2.33,1.59,1.61,2.561C27.56,82.2,26.57,80.04,27.21,79.09z"/>
<path fill="#FDFDFD" d="M45.11,80.311c2.21-0.351,4.42-0.711,6.63-1.061c0.08,2.08,0.23,4.15,0.54,6.22
	c-1.67-0.04-3.34-0.06-5.01-0.149c-2.08-1.119-4.32-0.239-6.42,0.279c-0.41-0.699-1.23-2.09-1.64-2.779
	c0.61-0.601,1.85-1.779,2.46-2.369c1.02,0.68,1.88,1.54,2.27,2.729C45.66,85.04,45.71,81.38,45.11,80.311z"/>
<path fill="#060606" d="M64.92,87.689c3.51-2.239,7.359-3.879,11.21-5.449c-3.37,2.49-7.26,4.119-10.899,6.15L64.92,87.689z"/>
<path fill="#060606" d="M65.73,89.54c5.31-2.14,10.08-5.39,15.438-7.41c-2.062,2.17-4.778,3.47-7.41,4.78
	c-3.31,1.67-6.76,3.02-10.229,4.33c-0.069-0.16-0.219-0.5-0.289-0.67C63.859,90.311,65.109,89.79,65.73,89.54z"/>
<path fill="#323232" d="M31.58,83.23l0.47,0.18c-0.17,0.07-0.5,0.22-0.67,0.29L31.58,83.23z"/>
<path fill="#F5F5F5" d="M36.51,84.05C39.44,82.47,36.54,87.439,36.51,84.05z"/>
<path fill="#3D3D3D" d="M9,87.26C12.33,87.55,7.33,90.17,9,87.26z"/>
<path fill="#BABABA" d="M64.29,86.43l0.63,1.26l0.311,0.701l0.5,1.149c-0.621,0.25-1.871,0.771-2.489,1.03
	c0.069,0.17,0.22,0.51,0.288,0.67l0.23,0.52c-6.779,2-13.72,3.71-20.79,4.141c-0.43-0.391-1.28-1.149-1.7-1.541
	c3.24-0.979,8.53,0.892,9.98-3.188c4.189-0.312,8.029-2.028,12.05-3.062c0.021,0.07,0.07,0.222,0.091,0.302l0.09-0.2L64.29,86.43z"
	/>
<path fill="#343434" d="M7.04,88.15C10.38,88.311,5.47,91.109,7.04,88.15z"/>
<path fill="#464646" d="M63.3,88.109l0.181,0.101l-0.09,0.2C63.37,88.33,63.32,88.18,63.3,88.109z"/>
<path fill="#B9B9B9" d="M39.39,89.311c1.86-0.811,4.31-0.91,6.18-0.08C44.51,90.58,40.47,90.57,39.39,89.311z"/>
<path fill="#8F8F8F" d="M48.5,89.109c1.23-0.891,1.97-0.67,2.21,0.649C49.47,90.641,48.74,90.42,48.5,89.109z"/>
<path fill="#C0C0C0" d="M42.15,92.9c1.25-2.291,4.39-2.41,5.6-0.021C45.88,92.96,44.02,92.97,42.15,92.9z"/>
<path fill="#060606" d="M62.63,103.82c4.021-2.801,7.33-6.53,11.46-9.17c-1.1,2.16-2.99,3.74-4.52,5.568l-0.551-0.09l-0.221,0.62
	l-0.578,0.24l0.118,0.5c-3.59,1.399-6.08,4.54-9.351,6.5c-2.279,1.229-4.409,2.739-6.799,3.76C55.26,108.6,59.4,106.8,62.63,103.82z
	"/>
<path fill="#020202" d="M70.391,100.76c2.049-2.029,4.01-4.189,6.389-5.85c-2.219,4.56-6.578,7.51-10.34,10.72
	c-4.318,2.91-8.02,6.7-12.629,9.181c0.699-2.211,2.959-3.131,4.649-4.461c3.479-2.58,6.75-5.449,10.351-7.879l-0.471-0.979
	l0.62-0.101l-0.16-0.641l0.671,0.141l0.1-0.67L70.391,100.76z"/>
<path fill="#FFFFFF" d="M69.02,100.13l0.551,0.09l-0.1,0.671L68.8,100.75L69.02,100.13z"/>
<path fill="#FFFFFF" d="M68.221,100.99l0.579-0.24l0.16,0.641l-0.62,0.101L68.221,100.99z"/>
<path fill="#060606" d="M54.1,118.1c6.771-4.85,12.66-10.779,19.2-15.92c-3,4.641-7.79,7.66-11.81,11.33
	C59.21,115.27,57.15,117.83,54.1,118.1z"/>
<path fill="#010101" d="M20.8,108.641c2.89-1.561,5.12-4.531,8.48-5.031c0.42,9.222-1.83,18.432-0.73,27.682
	c1.28-1.75,2.52-3.521,3.8-5.26l-2.6,0.449c1.87-2.069,3.47-4.359,5.01-6.689c-0.97-0.51-1.96-1-2.94-1.49
	c-0.13-1.3-0.27-2.6-0.41-3.898l1.54,0.02c-0.68-1.87-1.37-3.72-2.05-5.58c1.07,1.91,2.18,3.801,3.34,5.66
	c-0.68,0.07-2.02,0.21-2.69,0.28c1.11,1.47,2.31,2.87,3.53,4.26c1.46-3.33,0.87-7.899,5.02-9.271
	c-2.31,3.521-2.92,7.561-2.02,11.689c-0.37-0.271-1.11-0.811-1.48-1.08l-0.41-0.1c-1.14,1.68-2.24,3.38-3.31,5.1
	c1.08-1.09,2.16-2.199,3.27-3.25c0.49,0.46,0.78,1.03,0.87,1.71c-4.35,5.79-8.28,12.181-9.38,19.479
	c-0.67-1.381-1.34-2.76-2.01-4.131c-0.89,0.472-1.78,0.951-2.66,1.432c-1.43-1.57-2.64-3.32-3.61-5.2c-1.28-0.29-2.59-0.5-3.82-0.95
	c-3.92-3.789-4.78-9.539-3.64-14.71c-3.02,1.021-6.08,1.931-9.11,2.96c-0.69-0.029-2.09-0.09-2.79-0.119v-2.771
	C7.59,117.49,14.04,112.65,20.8,108.641z"/>
<path fill="#060606" d="M66.79,111.88c2.29-2.16,4.38-4.6,7.149-6.17c-2.739,3.931-6.469,7.021-9.84,10.37
	c-2.931,2.46-5.301,5.84-9.141,6.95C58.65,119.05,62.891,115.641,66.79,111.88z"/>
<path fill="#060606" d="M66.391,117.439c1.159-1.129,2.34-2.279,3.879-2.891c-2.92,4.75-7.629,8.17-12.33,11.03
	C60.13,122.26,63.6,120.189,66.391,117.439z"/>
<path fill="#060606" d="M30.54,120.32c1.41-0.45,1.94,0.01,1.6,1.369C30.76,122.141,30.23,121.68,30.54,120.32z"/>
<path fill="#9D9D9D" d="M106,135.811c-1.58-0.779-1.58-1.381,0-1.801V135.811z"/>
</svg>
