<?xml version="1.0" encoding="utf-8"?>
<!-- Generator: Adobe Illustrator 15.0.2, SVG Export Plug-In . SVG Version: 6.00 Build 0)  -->
<!DOCTYPE svg PUBLIC "-//W3C//DTD SVG 1.1//EN" "http://www.w3.org/Graphics/SVG/1.1/DTD/svg11.dtd">
<svg version="1.1" id="Layer_1" xmlns="http://www.w3.org/2000/svg" xmlns:xlink="http://www.w3.org/1999/xlink" x="0px" y="0px"
	 width="230px" height="304px" viewBox="0 0 230 304" enable-background="new 0 0 230 304" xml:space="preserve">
<path fill="#FFFFFF" d="M0,0h230v304H0V0 M124.54,1.37c-0.31,0.32-0.92,0.95-1.22,1.27c-7.75,1.01-15.33,3.36-21.93,7.62
	c-0.98,0.7-1.97,1.37-2.97,2.04c-1.15,0.76-2.34,1.46-3.54,2.11c-0.02,0.56-0.05,1.67-0.06,2.23c6.41,4.43,14.31,6.94,19.28,13.26
	c7.75,6.89,12.94,17.04,22.89,21.19c3.439-3.15,8.26-3.49,12.09-5.93c2.85-1.66,6.37-1.32,9.27-2.88
	c4.062-2.24,8.562-3.5,13.051-4.53c-2.76,4.25-7.979,5.59-12.301,7.68c-0.14,0.32-0.43,0.97-0.58,1.29
	c1.65,2.67,5.461,2.88,8.301,3.43c2.729,1.94,5.949,3.94,6.601,7.5c2.87,2.1,7.28,2.49,8.95,5.88c0.22,0.51,0.67,1.53,0.898,2.03
	c2.83,3.73,1.36,8.52,1.812,12.82c1.489,2.25,0.88,5.08,0.778,7.61c-0.1,2.41-1.898,5.2-0.229,7.38c1.53,0.73,3.28,0.72,4.881,1.27
	c0.979,0.31,1.961,0.65,2.93,1c0.49,0.28,1.479,0.83,1.971,1.1c0.5,0.229,1.51,0.69,2.02,0.92c2.521,1.68,5.57,2.99,6.971,5.87
	c0.511,1.74,1.101,3.47,1.88,5.12c0.591,1.91,1.28,3.85,2.921,5.14c1.568,2.02,5.25,2.49,4.949,5.63
	c-3.529,6.14-8.521,11.26-14.779,14.64c1.311-0.37,3.939-1.1,5.25-1.46c-2.07,1.9-4.74,3.28-6,5.93c-1.03,2.68-2.479,5.26-2.79,8.15
	c-2.358,5.36-5.92,10.02-10.26,13.919c-3.58,2.92-7.33,5.579-11.11,8.239c-0.3-0.229-0.898-0.698-1.199-0.93
	c-2.08,4.38-7.921,5.028-11.619,7.819c-2.781,1.119-5.381,2.629-8.031,4c-2.1,0.801-4.08,1.869-6.01,3.011
	c-0.5,0.25-1.511,0.729-2.011,0.97c-4.811,2.439-9.59,5.05-14.04,8.109c-2.148,0.58-4.3,1.369-6.56,1.181
	c-6.5-0.57-12.5,2.53-18.41,4.79c-9.06,2.14-18.3,3.47-27.59,4.22c-6.35-0.188-12.58-1.51-18.68-3.18
	c-3.54-1.681-6.93-3.86-9.15-7.17c-0.81-1.65-1.63-3.312-2.41-4.979c6.38-3.609,13.02-6.961,18.84-11.461
	c1.69,1.602,3.34,3.271,5.24,4.641c1.24,0.181,2.47,0.461,3.67,0.851c7.59,2.649,15.54,0.229,23.3,1.17
	c3.12,0.28,6.24-0.101,9.33-0.46c-3.4-0.311-6.82-0.57-10.23-0.22c-6.88,0.63-13.74-0.421-20.53-1.33c-3.4-1.49-6.76-3.12-9.77-5.32
	c2.7-2.1,6.48-2.21,8.62-5.12c13.02,3.28,26.51,2.65,39.82,2.461c8.148-1.25,16.54-1.761,24.352-4.58
	c2.028-0.961,4.028-2.069,6.26-2.521c1.979-1.07,3.91-2.22,5.779-3.479c5.541-2.801,10.58-6.551,14.961-10.951
	c5.18-4.5,8.209-10.93,12.398-16.3c0.33,1.86-0.21,4.03,1.16,5.6c0,1.95,0.359,4.04-0.58,5.85c-0.359,1.04-0.75,2.06-1.17,3.07
	c-0.102,0.46-0.311,1.38-0.41,1.84c-0.42,1.01-0.779,2.05-1.102,3.1c-0.488,1.262-0.879,2.562-1.389,3.82
	c-0.691,1.41-1.311,2.86-1.521,4.44c-2.459,1.149-4.699,2.77-7.34,3.5c-1.859,1.28-3.789,2.438-5.789,3.479
	c-2.641,0.66-4.791,2.421-7.211,3.591c-2,0.689-4,1.369-5.851,2.399c-1.358,0.62-2.75,1.188-4.21,1.49
	c-2.63,1.069-5.25,2.17-7.92,3.14c-5.26,1.061-10.279,3.021-15.42,4.53c5.91,0.59,11.3-2.61,16.939-3.82
	c4.25-0.649,7.971-2.979,12.069-4.13c2.229-0.602,4.28-1.68,6.341-2.689c3.01-0.721,5.601-2.49,8.129-4.17
	c0.49-0.051,1.451-0.141,1.932-0.181c2.05-1.601,4.318-2.858,6.561-4.149c0,0.811-0.011,2.42-0.011,3.229h1
	c0-0.649,0-1.96-0.01-2.608c1.229-1.771,2.948-3.07,4.528-4.49c-0.648,0.068-1.97,0.22-2.619,0.289
	c0.67-1.489,1.199-3.039,1.83-4.549c0.601-1.352,1.181-2.711,1.601-4.132c0.37-0.99,0.71-1.979,1.021-2.99
	c0.471-1.28,0.66-2.63,0.899-3.96c1.17-2.46,1.34-5.86-0.18-8.21c-0.07-1.95-0.08-3.9-0.07-5.85c1.75-2.6,3.79-4.99,6.142-7.06
	c-0.381-0.83-0.762-1.65-1.142-2.47c0.972-1.79,1.12-5.77,3.99-4.91c2.149,0.63,4.64,1.74,6.319-0.46
	c-2.34-2.39-5.121-4.21-8.021-5.83c-1.72-1.9-3.2-4.18-3.569-6.77c-0.681,0-2.041,0-2.721,0c0,1.2,0,2.4,0,3.61
	c-3.9,1.66-7.34,4.35-11.54,5.31c-1.409-0.53-1.2-2.35-1.79-3.48c-0.83-1.25-1.97-2.23-2.97-3.32c5.579-0.75,13.12-1.31,15.72-7.13
	c1.311,0.02,2.62,0.04,3.93,0.09c2.621,2.26,7.03-0.77,8.92,2.71c4.062,3.61,6.131,9.49,4.021,14.7
	c-0.811,2.6-1.54,5.229-1.34,7.979c2.17-1.74,3.729-4.06,5.029-6.49c1.66-2.89,0.869-6.32,0.99-9.48
	c-2.061-3.83-4.08-8.41-8.511-9.91c-1.681-0.48-3.44-0.68-5.05-1.35c-0.45-0.12-1.359-0.34-1.811-0.46
	c-3.521-1.79-7.619-0.49-11.229,0.37c-2.79,1.7-5.36,3.81-8.41,5.02c0.64-1.27,1.29-2.53,1.979-3.77
	c0.021-0.66,0.051-1.97,0.07-2.63c0.489,0.38,1.479,1.12,1.971,1.5c-0.75-1.91-1.34-3.98-0.871-6.03
	c1.931,0.38,3.701,1.35,5.58,1.91c0.141-0.47,0.431-1.4,0.57-1.87c-2.119-0.3-4.171-0.88-6.221-1.46c-0.05-0.56-0.13-1.67-0.17-2.23
	c-0.87-2.01-1.58-4.09-2.479-6.08c-2.432-3.43-5.48-6.479-8.91-8.91c-0.521-0.2-1.562-0.62-2.08-0.82
	c-0.93-0.53-1.86-1.05-2.78-1.58c-1.601-0.76-3.28-1.26-5.04-1.48c-0.41-0.16-1.24-0.479-1.65-0.64
	c-7.379-0.08-14.779-0.31-22.149,0.16c2.601,1.15,5.471,0.69,8.221,0.75v0.77c-2.26,0.21-4.26,1.32-6.278,2.26L129.88,70h-0.93
	l0.079,1c-0.399,0-1.189,0-1.59,0c-1.83,4.33-6.601,6.43-8.799,10.54c-0.262,0.51-0.781,1.51-1.031,2.02
	c-0.409,1.26-0.629,2.56-0.879,3.86c-1.16,2.5-1.142,5.65-0.01,8.16c0.229,1.76,0.738,3.45,1.43,5.08
	c2.52,4.11,6.148,7.53,10.08,10.28c-1.03,0.03-2.062,0.05-3.09,0.08c-0.49,0.91-0.98,1.82-1.451,2.73
	c2.569,0.98,5.281,1.41,8.031,1.39c0.459,0.96,0.92,1.93,1.389,2.89c-0.989,1.21-2.01,2.39-3.101,3.51
	c-0.01,1.19-0.02,2.39-0.02,3.59c1.64-0.27,3.788,0.29,4.77-1.46c1.79-3.03,1.48-6.64,1.29-10c1.922,0.93,3.62,2.7,5.94,2.34
	c3.608-0.36,7.438,0.521,10.88-0.74c-0.721-0.1-2.16-0.3-2.87-0.4v-0.76c1.49-0.13,3.062-0.04,4.42-0.79c2.5-1.03,5.011-2,7.13-3.73
	c2.422-1.76,3.9,2.01,5.96,2.83c0.74,0.24,2.212,0.73,2.95,0.98c-4.432,2.53-9.398,3.88-13.859,6.37
	c-8.091,2.29-15.789,6.08-24.101,7.67c-5.45,1.37-10.84,3.51-16.521,3.59c-10.641,1.59-21.669,1.63-32.181-0.8
	c-6.16-2.36-12.55-5.24-16.75-10.55c-0.02-2.4-0.26-4.79-0.63-7.16c-0.32-1.62-0.52-3.27-0.78-4.9c-2.81,0.61-2.48,3.77-2.75,5.97
	c-0.54,0.93-1.08,1.87-1.61,2.82c-0.53,1.61-1.28,3.13-2.08,4.62c-1.43,7.229-2.29,14.68-1.22,22.02
	c0.85,7.95,1.68,17.341,8.61,22.5c-5.92,3.12-11.67,6.57-17.67,9.54c0.18-5.74,1.26-11.41,2.07-17.08c-0.09-7.01,0.41-14,0.04-21
	c0.45-7.59-3.73-14.36-7.83-20.38c-0.32-1.21-0.66-2.42-1.11-3.59c-0.07-4.31-0.7-8.82,0.88-12.96c2.07-5.87,7.81-9.2,10.83-14.44
	c0.48-1.4,1.01-2.79,1.55-4.18c0.75-2.95,1.14-5.99,2.18-8.87c1.38-3.76-0.47-7.98,1.45-11.59c2.39-4.99,4.3-10.59,8.9-14.04
	c3.03,1.64,6.35,2.43,9.79,2.08c0.46-0.48,1.38-1.43,1.84-1.91c-2.42-1.47-3.99-3.81-5.79-5.92c-2.62-1.95-6.11-2.01-8.99-3.49
	c1.95-1.79,3.91-3.63,6.47-4.51c2.88,1.69,5.81,3.31,8.91,4.58c6.91,1.26,15.39,0.8,20.09-5.18c-0.47-2.85-0.4-5.66-0.06-8.49
	c-2.1-4.1-6.53-6.79-11.14-7.02c-7.73-0.4-15.28,2.86-21.02,7.93c-4.7,2.93-6.17,8.88-10.91,11.79c-0.03,0.54-0.07,1.62-0.09,2.16
	c-1.23,1.79-2.43,3.6-3.61,5.43c-0.5,2.24-1.58,4.29-2.23,6.49c-1.14,6.08-0.38,12.39,1.53,18.25c-0.19,4.21-0.56,8.43-1.83,12.47
	c-1.53,2.47-3.35,4.73-5.11,7.04c-3.05,2.43-5.16,5.76-7.57,8.79c-0.21,3.22-1.68,6.33-1.06,9.6c0.51,2.16,0.96,4.34,1.04,6.57
	c1.18,2.27,2.24,4.6,3.09,7.01c0.49,0.93,0.98,1.86,1.48,2.79c0.75,2.45,2.09,4.66,3.11,7c1.1,6.51,3,13.08,1.89,19.73
	c-1.31,8.92-1.82,17.86-2.82,26.82c-1.24,0.63-2.44,1.312-3.6,2.062c-0.65-0.44-1.3-0.891-1.95-1.33
	c-1.04-2.96-1.55-6.17-3.18-8.881c-2.25-1.561-4.92-2.59-6.68-4.801c-6.67-0.93-13.43,1.472-18.34,5.98
	c-3.94,4.35-1.62,10.57-1.47,15.75c0.25,1.65,0.5,3.32,0.58,5c2.83,3.311,5.96,6.38,9.9,8.32c5.49,0.22,10.46-2.32,15.38-4.352
	c3.65-2.67,8.44-3.479,11.5-6.988l-0.16,0.709c-0.92,0.971-1.4,2.631-0.27,3.641c3.37,5.01,8.02,9.52,13.94,11.25
	c1.29,0.5,2.6,0.93,3.89,1.439c6.35,1.851,13.01,1.381,19.53,1.239c6.62-0.229,12.9-2.79,19.49-3.198
	c6.03-1.882,12.19-3.61,18.51-4.041c8.5-1.689,15.97-6.279,23.39-10.529c2.92-0.79,5.312-2.75,8.041-3.971
	c2.76-1.141,5.379-2.58,7.989-4c3.149-1.25,6.021-3.08,9.021-4.609c-1.721,5.09-4.899,9.8-5.561,15.18
	c1.59-2.25,2.52-4.83,3.439-7.39c0.841-1.63,1.479-3.36,1.971-5.13c1.25-3.01,3.85-5.11,6.82-6.28c0.82,2.601,2.279,5.17,1.93,8
	c-0.87,3.71-3.051,7.069-3.17,10.95c-1.45,1.89-2.15,4.109-2.18,6.49c-2.642,4.129-3.94,8.879-5.852,13.35
	c-0.85,2.061-2.479,3.74-3.09,5.91c-1.28,4.729-3.53,9.119-4.95,13.8c-5.368,8.17-9.858,16.89-15.539,24.86
	c-1.819,4.18-5.311,7.279-7.471,11.26c-2.351,4.23-6.33,7.24-8.87,11.35c-0.939,1.641-2.3,2.971-3.568,4.35
	c-4.562,7.201-11.372,12.58-16.472,19.392c0.39,0.29,1.15,0.858,1.53,1.149c6.689,1.359,13.42-0.239,20.029-1.069
	c5.261-2.04,10.16-4.812,15.051-7.608c4.779-4.212,11.14-6.871,13.97-12.932c3.319-1.682,5.26-4.88,8.01-7.229
	c3.851,2.818,8.41,4.488,13.132,5.108c2.56-1.93,5.289-3.819,6.729-6.79c4.439-2.42,7.479-6.771,10.181-10.93
	c5.421-5.99,9.869-12.811,15.239-18.82c1.3-3.689,4.59-6.05,6.87-9.08c3.3-4.369,6.85-8.59,9.26-13.54
	c0.17-1.188,0.392-2.358,0.67-3.51c0.722-3.688,1.021-7.51,0.5-11.25c-0.649-2.16-2.521-4.319-4.96-4.181
	c-4.5-0.069-8.25-2.989-11.988-5.159c-4.15-3.92-9.762-5.99-13.23-10.66c-3.2-0.28-4.641-3.399-7.2-4.819
	c-4.649-2.841-7.11-8.841-12.909-9.779c7.1-3.771,12.989-9.682,17.639-16.182c0.972-1.578,1.73-3.28,2.552-4.938
	c0.04-0.521,0.14-1.55,0.18-2.07c3.21-8.52,10.17-14.68,16.052-21.34c1.688-3.57,4.6-6.91,3.879-11.14
	c-0.439-3.75,1.17-8.16-1.49-11.31c1.91-9.61-0.771-19.44,0.201-29.09c-0.5-0.92-0.99-1.85-1.472-2.78
	c1.091-3.5-0.739-7.02-0.538-10.58c-1.302-5.4-3.951-10.36-5.25-15.78c-2.142-2.61-3.48-5.74-5.521-8.41
	c-3.24-5.021-9.9-6-13.631-10.49c-1.529-2.91-4.08-5.11-6.819-6.85c-4.46-3.01-8.779-6.62-14.021-8.12
	c-3.84-2.41-8.551-3.01-12.939-3.83c-5.801-2.47-13.67-0.14-17.95-5.58C134.65,0.96,129.561,0.65,124.54,1.37 M105.42,29.01
	c0.06,1.61,0.72,2.85,1.98,3.72c3.91,2.72,6.7,6.67,9.39,10.53c-1.58,1.98,0.01,3.6,1.431,4.99c2.01-0.07,4.01-0.18,6.021-0.31
	c-0.08-1.2-0.271-2.37-0.591-3.51C117.96,38.89,112.48,32.91,105.42,29.01 M96.62,45.94c-0.64,3.12-2.98,1.66-4.83,0.72
	c0.5,1.22,0.99,2.46,1.47,3.7c-1.91-0.64-3.75-1.47-5.44-2.56c-0.16,0.6-0.48,1.82-0.64,2.42c-1.97-0.979-3.76-2.27-5.58-3.5
	c0.77,1.68,1.68,3.29,2.59,4.9c3.3,3.42,4.85,8.57,9.44,10.65c2.25,1.6,5.05,0.08,7.43-0.4c2.54-0.59,3.79-3.13,6.05-4.19
	c-0.07-0.55-0.21-1.66-0.27-2.22C103.44,52.27,100.98,47.97,96.62,45.94 M109.5,58.58c-1.5,0.28-3.12,0.39-4.31,1.47
	c3.69,0.34,7.16-1.27,10.83-1.05c2.371,0.14,4.65-0.46,6.951-0.89c8.369-1.46,17.359-2.26,25.51,0.61
	c3.681,0.311,6.629,2.69,9.959,4.04c3.57,1.54,6.291,4.58,10.062,5.75c-3.319-4.68-9.04-6.63-13.892-9.3
	c-6-2-12.09-3.76-18.469-3.92C127.189,55.67,118.359,57.34,109.5,58.58 M123.939,62.19c-2.641,0.63-5.33,0.83-8.021,0.97
	c-9.83,1.85-20.25,3.26-29.93-0.06c-4.37-0.02-11.17-1.59-12.53,4.19c1.6-1,2.91-2.42,4.56-3.34c6.66,0.89,13.31,2.21,20.08,2.15
	c8.41,0.96,17.01,0.07,24.918-3.03c5.381-0.14,10.76-0.05,16.142-0.04c1.34,0.21,2.63-0.28,3.72-1.021
	C136.57,62.07,130.23,61.68,123.939,62.19 M142.93,63.99c4.16-0.15,7.75,2.32,11.7,3.229c5.44,2.62,10.47,5.86,15.33,9.43
	l-0.739,0.65c0.789,0.18,2.35,0.53,3.129,0.71c-3.539-4.78-9.039-7.39-13.779-10.75c-1.75-0.46-3.381-1.2-4.979-2.03
	c-3.47-1.4-7.05-2.64-10.858-2.39C142.779,63.13,142.88,63.71,142.93,63.99 M84.58,70.55c3.76,0.75,7.69-0.04,11.37,1.2
	c2.31,0.53,4.48,1.55,6.81,2.03c0.97-1.24-0.99-1.89-1.52-2.78C95.65,71.36,90.13,68.86,84.58,70.55 M70.93,81.78
	c1.94-4.32,5.01-8.13,9.69-9.55c1.3-0.19,2.61-0.41,3.91-0.65C78.16,69.31,71.01,75.23,70.93,81.78 M97.61,75.49
	c0.65,2.04,2.05,3.65,3.24,5.37c-0.38,1.67-0.66,3.35-0.92,5.04c0.51,0.72,1.02,1.44,1.53,2.16c0.08-2.84,0.23-5.69,0.12-8.53
	C100.72,77.82,99.3,76.39,97.61,75.49 M78.43,86.11c-3.04,1.13-5.06,3.83-6.54,6.59c3.62,1.14,7.29,2.47,11.15,2.34
	c4.68,0.45,9.3,1.38,13.95,2.12c0.5,0.26,1.51,0.8,2.02,1.07c0,2.75,0,5.51-0.06,8.26c-7.59,5.58-14.24,12.63-23.04,16.44
	c1.2,0.04,2.42,0.01,3.53-0.53c2.31-1.25,4.55-3.01,7.18-3.44c0.73,0.94,1.33,1.97,1.79,3.08c0.9-0.83,1.82-1.65,2.74-2.46
	c3.66,2.77,6.16,6.74,9.7,9.63c1.35,1.16,3.17,1.23,4.81,0.72c1.55-1.79,2.46-4.02,3.62-6.07c-2.3-0.7-4.03,1.21-5.9,2.19
	c-3.62-2.46-7.42-5.62-8.59-9.98c1.65-3.54,5.88-4.47,8.23-7.41c0.04-3.1-0.25-6.23,0.18-9.31c1.29-1.77,3.64-2.01,5.59-2.57
	c0.28-0.83,0.82-2.47,1.09-3.29c-2.16-0.53-4.62-1.03-6.62,0.28c-3.04-4.41-8.18-6.39-13.13-7.72
	C86.23,85.96,82.32,85.87,78.43,86.11 M51.45,93.23c-4.22,3.03-6.46,7.62-8.39,12.29c-0.09,4.65-0.77,9.97,2.62,13.72
	c2.34,1.83,5.27,2.71,7.88,4.08c0.74,0.29,2.21,0.87,2.94,1.16c-1.64-2.93-5.07-4.32-8.27-4.63c-0.79-0.89-1.94-1.55-2.26-2.76
	c-1.38-3.86-2.86-8.12-1.13-12.13c1.45-5.97,6.62-9.91,12.2-11.8c4.53-0.47,9.07-0.66,13.6-0.11c-1.34-0.89-2.87-2.46-4.63-1.86
	C61.28,92.88,56.03,90.93,51.45,93.23 M49.34,103.06c-0.44,4.2-0.97,8.74,0.96,12.65c1.58,0.79,3.19,1.52,4.86,2.11
	c-1.74-1.72-3.65-3.26-5.16-5.19c0.09-3.81-0.59-7.82,1.16-11.36c2.09-1.25,4.66-2.09,5.77-4.44
	C53.93,98.09,49.61,99.17,49.34,103.06 M57.27,101c-1.8,1.88-3.54,3.84-4.66,6.23c4.91-1.16,9.85-3.16,14.97-2.01
	c2.14,1.11,1.88,4,3.43,5.521c2.99,0.37,6.02,0.02,8.91-0.83c2.56-0.7,5.08-4.42,1.98-6.18c-0.63,0.38-1.89,1.15-2.52,1.53
	c-0.76,0.57-1.51,1.14-2.27,1.71c-1.06-1.04-2.21-1.979-3.44-2.79c-2.22-1.04-4.35-2.32-6.7-3.06
	C63.75,100.84,60.5,101.05,57.27,101 M206.87,121.7c-1.44,2.63-3.5,5.04-6.351,6.18c-0.811,0.1-2.42,0.3-3.221,0.4
	c3.91,1.92,7.682-1.89,10.512-4.25c0.568-2.84,1.608-5.67,1.1-8.62C208.1,117.46,207.561,119.61,206.87,121.7 M113.55,122.03
	c3.63,0.36,7.261-0.12,10.9-0.01c0.63,0.33,1.899,1.01,2.53,1.35c0.22-1.71,0.358-3.43,0.24-5.14
	C122.59,117.79,115.24,116.01,113.55,122.03 M159.41,164.66c-2.881,0.9-5.54,2.37-7.971,4.13c-0.469,0.11-1.391,0.319-1.859,0.42
	c-3.98,2.83-8.66,4.351-12.98,6.54c-4.51,1.311-8.779,3.42-13.438,4.18c-3.472,0.062-7.011-0.07-10.27,1.312
	c5.61,0.278,11.089-0.78,16.61-1.4c1.279-0.56,2.601-1.05,3.892-1.58c1.67-0.659,3.33-1.34,4.988-2.028
	c1.432-0.392,2.82-0.91,4.21-1.432c0.91-0.54,1.841-1.06,2.771-1.56c5.211-2.2,10.211-5.04,15.061-7.99
	c3.131-0.63,5.74-2.608,8.76-3.569l0.021-0.851C165.891,162,162.561,163.1,159.41,164.66 M88.51,175.37
	c4.81,0.87,9.78,0.22,14.65,0.37c4.58-0.62,9.34,1.279,13.77-0.5c-3.65-0.59-7.32,0.01-10.979,0.15
	C100.15,175.12,94.31,175.05,88.51,175.37 M59.04,181.83c4.3,3.24,9.35,6.34,14.93,6.17c4.43-0.2,8.77,0.92,13.21,0.77
	c-3.14-0.05-5.95-1.648-9.08-1.68c-4.74-0.01-9.25-1.68-13.61-3.369c-1.3-0.75-3.26-1.189-3.55-2.931
	C60.31,181.141,59.68,181.48,59.04,181.83 M94.17,187.51c7.37,1.4,14.66-0.82,21.93-1.75c2.07-0.71,4.28-0.779,6.42-1.17
	c-1.42-0.529-2.97-0.89-4.459-0.38C110.22,186.15,102.2,187,94.17,187.51 M160.57,189.52c-5.4,4.99-10.65,10.15-16.75,14.291
	c-4.32,3.851-9.2,7.039-13.32,11.119c-0.46,0.051-1.391,0.16-1.859,0.221c-2.83,3.261-7.58,4.149-10.149,7.771
	c5.659-1.399,9.81-5.91,15.118-8.2c1.432-1.408,3.052-2.619,4.842-3.539c3.93-1.74,5.699-6.439,9.949-7.601
	c4.649-6.021,13.039-8.51,15.899-15.938C162.9,187.92,161.54,188.43,160.57,189.52 M165.189,192.311
	c-0.08-0.371-0.26-1.101-0.351-1.471l-0.3-1.26c-1.262,2.57-2.04,5.71-4.53,7.41c-3.89,2.869-6.358,7.229-10.5,9.82
	c-6.899,4.549-12.8,10.438-19.649,15.068c-3.109,2.66-7.569,4.012-9.189,8.102c4.57-0.99,7.71-4.59,11.71-6.69
	c1.591-0.86,2.97-2.09,4.729-2.59c0.08-0.69,0.221-2.06,0.301-2.74c0.55,0.45,1.109,0.899,1.68,1.34c2.73-1.87,5.49-3.7,8.26-5.51
	c-0.59-0.46-1.18-0.92-1.779-1.36c2.57-1.76,4.91-4.26,8.131-4.688c-1.342,1.069-4.04,3.198-5.391,4.271
	c5.859-1.131,9.489-6.119,12.649-10.689l-1.11-0.82c4.211-3.23,7.61-7.279,10.4-11.779C167.77,188.5,166.54,190.7,165.189,192.311
	 M155.561,209.52c-3.811,3.871-8.461,6.78-12.211,10.73c-5.82,5-11.52,10.17-18.17,14.09c-1.65,0.62-2.01,2.35-2.24,3.91
	c1.562-0.811,3-1.83,4.4-2.891c4.83-2.609,8.4-6.939,12.79-10.17c8-6.899,16.53-13.33,23.28-21.529
	C160.08,204.52,158.17,207.561,155.561,209.52 M63.48,207.13c-8.3,7.78-18.57,12.97-28.06,19.11c-3.13,2.09-6.75,3.33-9.81,5.52
	c-2.39,1.721-5.06,2.94-7.72,4.17c-5.22,4.01-12.46,3.92-17.73,7.771c2.41,3.729,6.83,3.52,10.71,4.119
	c1.75-0.439,3.21-1.569,4.69-2.551c5.35,0.371,9.71-3.05,14.71-4.27c0.31,0.42,0.93,1.26,1.24,1.68
	c-0.81,4.28-2.15,8.562-1.26,12.95c-0.44,3.46,2.57,5.91,3.02,9.19c1.26,1.49,2.35,3.119,3.08,4.938c0.84,2.181,3.23,3.011,5,4.271
	c2.22-0.029,4.44-0.149,6.65-0.271c0,0.79,0,2.382,0,3.17c1.7,3.091,3.78,5.94,6.51,8.2c2.79,0.41,4.59-1.729,6.48-3.352
	c0.16,1.211,0.31,2.432,0.44,3.66c0.7,1.801,0.92,5.11,3.65,4.61c2.78-1.909,1.38-5.489,1.49-8.26c1.16-1.41,2.09-2.99,2.61-4.75
	c1.21-3.57,3.29-6.761,4.75-10.22c1.54-5.75,6.7-9.392,9.51-14.44c3.99-6.26,4.3-14.12,2.82-21.21c0.31-1.32,0.6-2.65,0.88-3.97
	c0.42-0.39,1.25-1.16,1.67-1.55c0.05-0.69,0.15-2.08,0.2-2.771c0.48,0.271,1.43,0.8,1.9,1.07c0.7-1.092,1.95-2.432,0.03-2.971
	c-2.52,0.109-5.21,1.51-6.08,4.01c-1.91,3.609-0.56,7.74-0.92,11.601c-0.36,0.24-1.08,0.722-1.44,0.95
	c-0.29-0.561-0.86-1.682-1.14-2.24c-1.52,4.62-3.23,9.23-5.85,13.352c-1.73,2.8-4.8,4.539-6.19,7.59c1.82-1.03,3.57-2.29,5.72-2.53
	c-2.23,4.17-5.13,7.95-7.93,11.74c-0.56-5.97-1.72-12.061-0.5-18.021c0.39-1.489-0.14-2.979-0.37-4.438
	c0.64-2.34,0.84-4.76,0.81-7.17c0.25-0.44,0.74-1.32,0.98-1.76c-0.31-1.371-1.2-2.73-0.72-4.16c1.13-4.301,0.56-8.801,1.45-13.131
	c0.55-3.289,0.14-6.629-0.18-9.92C66.89,206.93,65.1,206.53,63.48,207.13 M151.23,222.24c-5.66,5.79-12.211,10.59-17.722,16.54
	c-1.659,0.87-2.989,2.18-4.021,3.75c-2.109,1.569-4.859,2.89-4.949,5.92c0.979-0.79,1.932-1.601,2.87-2.431
	c0.55-0.061,1.649-0.181,2.198-0.229c4.222-4.16,8.48-8.29,13.021-12.11c5.04-4.64,9.729-9.64,14.62-14.43
	c2.431-2.52,5.222-4.77,7.04-7.8C158.91,213.609,155.359,218.41,151.23,222.24 M76.26,216.21c0.4,1.14,0.71,2.3,0.91,3.49
	c0.93,1.37,1.85,2.771,3.06,3.92c-0.73-2.899-2.23-5.58-2.5-8.601C77.24,215.42,76.75,215.811,76.26,216.21 M72.01,217.35
	c2.68,4.521,2.48,10.381,6.02,14.521c0.57-3.2-1.24-5.932-3.02-8.38c-0.65-1.91-1.21-3.87-1.83-5.79c0.34-0.11,1.02-0.33,1.36-0.45
	L72.01,217.35 M99.94,220.92c1.66,2.37,4.53,3.54,6.1,5.971c0.15,2-0.98,3.771-1.49,5.641c-1.28,4.85-5.78,7.89-7.58,12.5
	c-1.48,2.578-0.83,5.64-0.97,8.46c-0.94-1.882-1.96-3.722-3.29-5.36c-1.25-0.17-2.49-0.35-3.73-0.521c0.17,5.48-1.2,10.86-1.4,16.33
	c0.22,0.49,0.65,1.48,0.86,1.972c2.58-2.17,3.94-5.28,5.31-8.261c0.67-1.329,1.37-2.649,2.07-3.971c1.37,3.271,1.05,6.881,2.1,10.23
	c1.51,5.31,2.06,10.83,2.78,16.29c-1.22,4.14-0.21,8.521-1.31,12.69c-0.36,2.868-1.45,5.709-1.32,8.608
	c1.44,1.101,3.2,1.58,4.96,1.87c0.88-4.479,1.6-8.99,2.8-13.41c0.67-8.76-0.94-17.62-3.64-25.92c-0.12-3.811-2.04-7.29-2.22-11.061
	c1.29-7.681,7.76-12.989,9.82-20.391c7.3,5.2,2.2,15,5.35,22.01c2.469,6.74,7.32,12.062,12.09,17.271c0.67,0.8,1.52,1.13,2.56,1
	c0.61-3.63-3.261-5.92-4.59-8.971c-2.091-4.551-6.021-8.931-4.86-14.291c1.27-8.959-5.03-16.328-9.67-23.278
	C107.12,224.45,104.41,220.27,99.94,220.92 M72.19,227.34C72.87,228.03,72.87,228.03,72.19,227.34 M72.92,228.67
	c0.6,3.1,0.64,6.5,2.39,9.24c0.5,0.77,1.11,0.82,1.82,0.15C76.01,234.84,74.98,231.45,72.92,228.67 M153.26,231.03
	c-6.65,8.31-16.68,13.21-22.56,22.188c6.26-4.05,12.729-8.18,17.649-13.8c1.771-1.72,3.33-3.72,5.601-4.819
	c0.78-1.261,1.569-2.521,2.36-3.771C155.55,230.88,154.02,230.98,153.26,231.03 M72.12,241.21c-0.68,1.37-0.21,4.89,1.74,4.56
	C74.39,244.38,73.54,241.47,72.12,241.21 M137.971,256.41c3.029-2.74,6.199-5.44,8.539-8.811
	C142.95,249.67,138.9,252.04,137.971,256.41 M133.221,261.88c-1.851-1.53-3.941-2.7-5.931-4.03
	C123.359,261.1,131.4,267.34,133.221,261.88z"/>
<path d="M124.54,1.37c5.021-0.72,10.11-0.41,15.05,0.79c4.28,5.44,12.15,3.11,17.95,5.58c4.39,0.82,9.101,1.42,12.94,3.83
	c5.24,1.5,9.56,5.11,14.02,8.12c2.74,1.74,5.29,3.94,6.82,6.85c3.729,4.49,10.39,5.47,13.63,10.49c2.04,2.67,3.38,5.8,5.521,8.41
	c1.299,5.42,3.949,10.38,5.25,15.78c-0.201,3.562,1.629,7.08,0.539,10.58c0.48,0.93,0.971,1.86,1.471,2.78
	c-0.971,9.65,1.709,19.48-0.201,29.09c2.66,3.15,1.052,7.56,1.49,11.31c0.722,4.23-2.188,7.57-3.879,11.14
	c-5.881,6.66-12.841,12.82-16.051,21.34c-0.04,0.52-0.14,1.55-0.18,2.07c-0.82,1.66-1.58,3.36-2.551,4.938
	c-4.649,6.5-10.539,12.41-17.639,16.182c5.799,0.938,8.26,6.938,12.908,9.779c2.561,1.42,4,4.539,7.2,4.819
	c3.47,4.67,9.08,6.74,13.229,10.66c3.739,2.17,7.489,5.09,11.989,5.159c2.44-0.141,4.31,2.021,4.96,4.181
	c0.52,3.74,0.221,7.562-0.5,11.25c-0.279,1.149-0.5,2.319-0.67,3.51c-2.41,4.95-5.96,9.171-9.26,13.54
	c-2.28,3.03-5.57,5.391-6.87,9.08c-5.37,6.012-9.819,12.83-15.239,18.82c-2.701,4.158-5.74,8.51-10.181,10.93
	c-1.44,2.971-4.17,4.86-6.729,6.79c-4.721-0.62-9.281-2.29-13.131-5.108c-2.75,2.35-4.688,5.549-8.01,7.229
	c-2.83,6.061-9.189,8.72-13.97,12.932c-4.89,2.799-9.79,5.568-15.05,7.608c-6.61,0.83-13.34,2.43-20.03,1.069
	c-0.38-0.291-1.14-0.859-1.53-1.149c5.1-6.812,11.91-12.188,16.471-19.392c1.271-1.379,2.629-2.709,3.569-4.35
	c2.54-4.109,6.521-7.119,8.87-11.35c2.16-3.98,5.65-7.08,7.471-11.26c5.68-7.972,10.17-16.69,15.539-24.86
	c1.42-4.681,3.67-9.07,4.95-13.8c0.61-2.17,2.24-3.85,3.09-5.91c1.91-4.471,3.21-9.221,5.851-13.35
	c0.029-2.381,0.729-4.602,2.181-6.49c0.12-3.881,2.3-7.24,3.17-10.95c0.351-2.83-1.108-5.399-1.931-8
	c-2.971,1.17-5.569,3.271-6.819,6.28c-0.49,1.77-1.13,3.5-1.972,5.13c-0.92,2.56-1.85,5.14-3.438,7.39
	c0.66-5.38,3.841-10.09,5.562-15.18c-3,1.529-5.871,3.359-9.021,4.609c-2.609,1.42-5.229,2.859-7.988,4
	c-2.73,1.221-5.121,3.181-8.041,3.971c-7.42,4.25-14.891,8.84-23.391,10.529c-6.318,0.431-12.48,2.159-18.51,4.041
	c-6.59,0.408-12.87,2.969-19.49,3.198c-6.52,0.142-13.18,0.61-19.53-1.239c-1.29-0.511-2.6-0.939-3.89-1.439
	c-5.92-1.73-10.57-6.24-13.94-11.25c-1.13-1.01-0.65-2.67,0.27-3.641l0.16-0.709c-3.06,3.51-7.85,4.318-11.5,6.988
	c-4.92,2.03-9.89,4.57-15.38,4.352c-3.94-1.94-7.07-5.01-9.9-8.32c-0.08-1.68-0.33-3.35-0.58-5c-0.15-5.18-2.47-11.4,1.47-15.75
	c4.91-4.51,11.67-6.91,18.34-5.98c1.76,2.211,4.43,3.24,6.68,4.801c1.63,2.711,2.14,5.921,3.18,8.881c0.65,0.439,1.3,0.89,1.95,1.33
	c1.16-0.75,2.36-1.432,3.6-2.062c1-8.96,1.51-17.899,2.82-26.82c1.11-6.65-0.79-13.22-1.89-19.73c-1.02-2.34-2.36-4.55-3.11-7
	c-0.5-0.93-0.99-1.86-1.48-2.79c-0.85-2.41-1.91-4.74-3.09-7.01c-0.08-2.23-0.53-4.41-1.04-6.57c-0.62-3.27,0.85-6.38,1.06-9.6
	c2.41-3.03,4.52-6.36,7.57-8.79c1.76-2.31,3.58-4.57,5.11-7.04c1.27-4.04,1.64-8.26,1.83-12.47C50.76,63.29,50,56.98,51.14,50.9
	c0.65-2.2,1.73-4.25,2.23-6.49c1.18-1.83,2.38-3.64,3.61-5.43c0.02-0.54,0.06-1.62,0.09-2.16c4.74-2.91,6.21-8.86,10.91-11.79
	C73.72,19.96,81.27,16.7,89,17.1c4.61,0.23,9.04,2.92,11.14,7.02c-0.34,2.83-0.41,5.64,0.06,8.49c-4.7,5.98-13.18,6.44-20.09,5.18
	c-3.1-1.27-6.03-2.89-8.91-4.58c-2.56,0.88-4.52,2.72-6.47,4.51c2.88,1.48,6.37,1.54,8.99,3.49c1.8,2.11,3.37,4.45,5.79,5.92
	c-0.46,0.48-1.38,1.43-1.84,1.91c-3.44,0.35-6.76-0.44-9.79-2.08c-4.6,3.45-6.51,9.05-8.9,14.04c-1.92,3.61-0.07,7.83-1.45,11.59
	c-1.04,2.88-1.43,5.92-2.18,8.87c-0.54,1.39-1.07,2.78-1.55,4.18c-3.02,5.24-8.76,8.57-10.83,14.44c-1.58,4.14-0.95,8.65-0.88,12.96
	c0.45,1.17,0.79,2.38,1.11,3.59c4.1,6.02,8.28,12.79,7.83,20.38c0.37,7-0.13,13.99-0.04,21c-0.81,5.67-1.89,11.34-2.07,17.08
	c6-2.97,11.75-6.42,17.67-9.54c-6.93-5.159-7.76-14.55-8.61-22.5c-1.07-7.34-0.21-14.79,1.22-22.02c0.8-1.49,1.55-3.01,2.08-4.62
	c0.53-0.95,1.07-1.89,1.61-2.82c0.27-2.2-0.06-5.36,2.75-5.97c0.26,1.63,0.46,3.28,0.78,4.9c0.37,2.37,0.61,4.76,0.63,7.16
	c4.2,5.31,10.59,8.19,16.75,10.55c10.51,2.43,21.54,2.39,32.181,0.8c5.681-0.08,11.069-2.22,16.521-3.59
	c8.312-1.59,16.01-5.38,24.101-7.67c4.461-2.49,9.43-3.84,13.859-6.37c-0.738-0.25-2.21-0.74-2.949-0.98
	c-2.061-0.82-3.539-4.59-5.961-2.83c-2.119,1.73-4.63,2.7-7.13,3.73c-1.358,0.75-2.93,0.66-4.42,0.79v0.76
	c0.71,0.1,2.149,0.3,2.87,0.4c-3.439,1.26-7.271,0.38-10.88,0.74c-2.32,0.36-4.021-1.41-5.94-2.34c0.19,3.36,0.5,6.97-1.29,10
	c-0.979,1.75-3.13,1.19-4.77,1.46c0-1.2,0.01-2.4,0.02-3.59c1.091-1.12,2.11-2.3,3.101-3.51c-0.469-0.96-0.93-1.93-1.389-2.89
	c-2.75,0.02-5.462-0.41-8.031-1.39c0.471-0.91,0.961-1.82,1.451-2.73c1.028-0.03,2.06-0.05,3.09-0.08
	c-3.932-2.75-7.562-6.17-10.08-10.28c-0.69-1.63-1.2-3.32-1.43-5.08c-1.132-2.51-1.15-5.66,0.01-8.16c0.25-1.3,0.47-2.6,0.879-3.86
	c0.25-0.51,0.771-1.51,1.031-2.02c2.198-4.11,6.969-6.21,8.799-10.54c0.399,0,1.189,0,1.59,0l-0.079-1h0.93l-1.159,2.02
	c2.021-0.94,4.021-2.05,6.279-2.26v-0.77c-2.75-0.06-5.62,0.4-8.221-0.75c7.371-0.47,14.771-0.24,22.15-0.16
	c0.409,0.16,1.239,0.48,1.649,0.64c1.76,0.22,3.438,0.72,5.04,1.48c0.92,0.53,1.852,1.05,2.779,1.58c0.521,0.2,1.561,0.62,2.08,0.82
	c3.431,2.43,6.479,5.48,8.91,8.91c0.899,1.99,1.609,4.07,2.479,6.08c0.04,0.56,0.12,1.67,0.17,2.23c2.05,0.58,4.101,1.16,6.22,1.46
	c-0.14,0.47-0.43,1.4-0.57,1.87c-1.879-0.56-3.648-1.53-5.58-1.91c-0.469,2.05,0.121,4.12,0.871,6.03
	c-0.489-0.38-1.479-1.12-1.971-1.5c-0.02,0.66-0.05,1.97-0.07,2.63c-0.688,1.24-1.34,2.5-1.979,3.77c3.05-1.21,5.62-3.32,8.41-5.02
	c3.609-0.86,7.71-2.16,11.229-0.37c0.45,0.12,1.36,0.34,1.812,0.46c1.608,0.67,3.368,0.87,5.05,1.35c4.432,1.5,6.45,6.08,8.512,9.91
	c-0.121,3.16,0.67,6.59-0.99,9.48c-1.301,2.43-2.86,4.75-5.03,6.49c-0.2-2.75,0.53-5.38,1.34-7.979c2.11-5.21,0.04-11.09-4.021-14.7
	c-1.891-3.48-6.299-0.45-8.92-2.71c-1.311-0.05-2.619-0.07-3.931-0.09c-2.601,5.82-10.142,6.38-15.72,7.13
	c1,1.09,2.14,2.07,2.97,3.32c0.59,1.13,0.38,2.95,1.79,3.48c4.2-0.96,7.641-3.65,11.54-5.31c0-1.21,0-2.41,0-3.61
	c0.681,0,2.04,0,2.722,0c0.368,2.59,1.85,4.87,3.568,6.77c2.898,1.62,5.682,3.44,8.021,5.83c-1.682,2.2-4.17,1.09-6.32,0.46
	c-2.87-0.86-3.02,3.12-3.99,4.91c0.38,0.82,0.76,1.64,1.141,2.47c-2.351,2.07-4.391,4.46-6.141,7.06c-0.01,1.95,0,3.9,0.07,5.85
	c1.52,2.35,1.35,5.75,0.18,8.21c-0.24,1.33-0.43,2.68-0.9,3.96c-0.31,1.01-0.648,2-1.02,2.991c-0.42,1.42-1,2.779-1.6,4.131
	c-0.631,1.51-1.16,3.06-1.83,4.549c0.648-0.069,1.97-0.221,2.619-0.289c-1.58,1.42-3.299,2.72-4.529,4.49
	C175,166.04,175,167.35,175,168h-1c0-0.811,0.01-2.42,0.01-3.23c-2.24,1.291-4.51,2.551-6.56,4.15c-0.479,0.04-1.44,0.13-1.931,0.18
	c-2.529,1.682-5.119,3.45-8.129,4.17c-2.062,1.012-4.111,2.09-6.342,2.69c-4.1,1.149-7.818,3.479-12.068,4.13
	c-5.642,1.21-11.03,4.41-16.94,3.82c5.14-1.51,10.16-3.471,15.42-4.53c2.67-0.97,5.29-2.069,7.92-3.14
	c1.46-0.301,2.851-0.87,4.21-1.49c1.85-1.03,3.85-1.71,5.85-2.4c2.42-1.17,4.57-2.93,7.211-3.59c2-1.039,3.931-2.199,5.789-3.479
	c2.642-0.73,4.881-2.352,7.34-3.5c0.212-1.58,0.83-3.03,1.521-4.44c0.512-1.26,0.9-2.56,1.391-3.819
	c0.32-1.05,0.681-2.089,1.101-3.101c0.101-0.46,0.31-1.38,0.41-1.84c0.42-1.01,0.81-2.03,1.17-3.07c0.94-1.81,0.58-3.9,0.58-5.85
	c-1.37-1.57-0.83-3.74-1.16-5.6c-4.19,5.37-7.22,11.8-12.399,16.3c-4.381,4.4-9.42,8.15-14.961,10.952
	c-1.869,1.26-3.8,2.408-5.779,3.479c-2.229,0.45-4.229,1.561-6.26,2.521c-7.811,2.818-16.201,3.33-24.351,4.58
	c-13.31,0.188-26.8,0.818-39.82-2.461c-2.14,2.909-5.92,3.021-8.62,5.119c3.01,2.2,6.37,3.83,9.77,5.32
	c6.79,0.91,13.65,1.96,20.53,1.33c3.41-0.352,6.83-0.092,10.23,0.22c-3.09,0.36-6.21,0.74-9.33,0.46
	c-7.76-0.939-15.71,1.479-23.3-1.17c-1.2-0.391-2.43-0.67-3.67-0.852c-1.9-1.368-3.55-3.039-5.24-4.64
	c-5.82,4.5-12.46,7.851-18.84,11.46c0.78,1.67,1.6,3.33,2.41,4.98c2.22,3.31,5.61,5.49,9.15,7.17c6.1,1.67,12.33,2.99,18.68,3.18
	c9.29-0.75,18.53-2.08,27.59-4.22c5.91-2.26,11.91-5.36,18.41-4.79c2.26,0.189,4.41-0.6,6.56-1.18c4.45-3.062,9.229-5.67,14.04-8.11
	c0.5-0.24,1.51-0.72,2.01-0.97c1.93-1.141,3.91-2.21,6.01-3.01c2.65-1.371,5.25-2.881,8.031-4c3.699-2.791,9.539-3.44,11.619-7.82
	c0.301,0.23,0.9,0.699,1.2,0.93c3.78-2.66,7.53-5.32,11.11-8.24c4.34-3.898,7.9-8.56,10.26-13.918c0.311-2.89,1.76-5.47,2.79-8.15
	c1.26-2.65,3.93-4.03,6-5.93c-1.31,0.36-3.94,1.09-5.25,1.46c6.26-3.38,11.25-8.5,14.78-14.64c0.3-3.14-3.381-3.61-4.95-5.63
	c-1.64-1.29-2.33-3.23-2.921-5.14c-0.779-1.65-1.369-3.38-1.879-5.12c-1.4-2.88-4.45-4.19-6.971-5.87
	c-0.511-0.23-1.521-0.69-2.021-0.92c-0.49-0.271-1.479-0.82-1.972-1.1c-0.969-0.35-1.948-0.69-2.93-1c-1.6-0.55-3.35-0.54-4.88-1.27
	c-1.67-2.18,0.13-4.97,0.229-7.38c0.101-2.53,0.711-5.36-0.779-7.61c-0.45-4.3,1.02-9.09-1.811-12.82
	c-0.229-0.5-0.681-1.52-0.899-2.03c-1.67-3.39-6.08-3.78-8.95-5.88c-0.65-3.56-3.87-5.56-6.6-7.5c-2.84-0.55-6.65-0.76-8.301-3.43
	c0.149-0.32,0.439-0.97,0.58-1.29c4.319-2.09,9.541-3.43,12.301-7.68c-4.49,1.03-8.99,2.29-13.051,4.53
	c-2.899,1.56-6.42,1.22-9.271,2.88c-3.83,2.44-8.649,2.78-12.091,5.93c-9.949-4.15-15.141-14.3-22.889-21.19
	c-4.97-6.32-12.87-8.83-19.28-13.26c0.01-0.56,0.04-1.67,0.06-2.23c1.2-0.65,2.39-1.35,3.54-2.11c1-0.67,1.99-1.34,2.97-2.04
	c6.6-4.26,14.179-6.61,21.929-7.62C123.62,2.32,124.23,1.69,124.54,1.37 M138.41,71.73c-1.33,0.25-2.67,0.46-3.939,0.93
	c-0.979,0.3-1.941,0.62-2.91,0.96c-1.819,1.25-3.851,2.26-5.42,3.82c-0.131,1.37-0.229,2.74-0.311,4.12
	c-0.311-0.71-0.93-2.13-1.24-2.84c-1.689,1.69-2.96,3.69-3.949,5.85c-0.351,0.96-0.681,1.93-0.979,2.91
	c-1.052,2.51-0.979,5.51-0.04,8.05c0.568,1.688,1.279,3.32,1.988,4.96c2.371,3.88,6.15,6.55,9.94,8.9c0.97,0.33,1.95,0.65,2.94,0.94
	c1.699,0.58,3.55,0.7,5.16,1.56c3.289-0.08,6.85,0.81,9.938-0.62c1.32-0.25,2.649-0.48,3.931-0.9c1.391-0.47,2.76-1.01,4.141-1.54
	c1.29-0.81,2.57-1.64,3.79-2.57c-2.091-0.2-4.21-0.35-6.21-1.06c-0.15,0.23-0.45,0.7-0.6,0.93c-2.15-1.91-4.562-3.5-6.552-5.58
	c-0.08-1.6-0.159-3.2-0.26-4.79c1.858,0.92,3.979,1.5,5.42,3.09c1.13,0.86,2.34,3.24,3.479,0.99c0.649-1.86,1.641-3.56,2.601-5.26
	c-4.32-0.97-8.75-1.5-13.12-0.5c-0.63,1.77-1.229,3.55-1.84,5.33c-1.229,2.88-2.33,5.96-4.551,8.25
	c0.311-3.37,2.699-6.07,3.949-9.14c0.381-1.53,0.94-2.99,1.451-4.48c-5.711,1.79-11.791,3.16-16.58,6.95
	c-1.75-1.57-3.25-3.6-5.57-4.35c-0.699-1.57-1.801-3.48-0.561-5.09c2.811-4.98,8.34-7.17,13.221-9.58
	c0.521-1.56,1.299-3,1.971-4.479c0.72-1.43,1.521-2.81,2.369-4.17c0.351,1.95-0.659,3.67-1.791,5.14
	c-0.43,1.27-0.889,2.52-1.379,3.77c4.779-1.37,9.74-1.37,14.67-1.23c0.65-1.65,1.561-3.19,2.49-4.69
	c0.311,2.01-0.761,3.76-1.561,5.49c4.3-0.79,7.37,2.34,11.16,3.5c1.23,2.7,3.439,4.86,4.41,7.67c-1.101,3.08-5.131,3.23-7.76,2.021
	c-1.07,2.32-2.432,4.479-3.701,6.69c2.541,0.95,5.201,1.69,7.939,1.3c1.08-0.86,1.521-2.22,2.21-3.36
	c2.479-3.84,3.062-8.71,1.61-13.03c-0.561-1.07-1.11-2.13-1.62-3.22c-2.101-4.41-6.3-7.24-10.312-9.76
	c-0.969-0.34-1.938-0.65-2.92-0.94c-1.709-0.58-3.56-0.7-5.17-1.56C145.061,71.18,141.5,70.3,138.41,71.73 M132.25,90.37
	c-0.76,1.67-1.62,3.29-2.391,4.96c1.591-0.47,3.031-1.32,4.511-2.06c1.36-0.72,2.71-1.48,4.06-2.25c1.59-0.04,3.18-0.08,4.771-0.1
	c-0.74-1.94-1.29-3.94-1.352-6.03C138.43,86.29,133.471,86.08,132.25,90.37 M128.68,90.87c-0.859,1.46-2.938,4.02-0.039,4.53
	c1.33-2.21,2.449-4.53,3.609-6.83C130.859,88.94,129.45,89.59,128.68,90.87 M158.2,89.06c-0.97,1.44,1.7,2.88,2.7,1.7
	C162.029,89.12,159.29,88,158.2,89.06 M162.189,89.62c-0.879,1.25-0.649,1.97,0.67,2.18C163.71,90.57,163.49,89.84,162.189,89.62
	 M181.359,113.08c-2.25,1.08-4.389,2.35-6.619,3.47c0.25,0.46,0.74,1.39,0.99,1.86c0.229,0.51,0.688,1.54,0.92,2.05
	c0.398,0.61,1.209,1.83,1.608,2.44c-0.358,0.52-0.729,1.04-1.1,1.56c-0.32-2.85-2.921-4.73-3.46-7.57c-1.82,1.86-4.07,3.26-6.7,3.59
	c0.08,2.57,0.521,5.16,0.16,7.73c4.42-0.64,9.079-1.52,12.479-4.65c2.819-1.88,4.039-5.08,5.271-8.08
	c0.04-0.74,0.108-2.21,0.149-2.94C183.82,112.71,182.59,112.89,181.359,113.08 M139.9,129.5c0.75,2.93,0.729,6.15,2.3,8.8
	c3.54-1.25,6.899-3.28,10.739-3.47c4.17-1.58,7.961-4.18,10.061-8.22c0-1.27-0.01-2.55-0.01-3.82
	C155.12,124.3,147.73,127.71,139.9,129.5 M63.11,124.65C61.56,127.67,66.34,124.89,63.11,124.65 M66.14,130.37
	c-0.55,2.22-1.13,4.44-1.39,6.73c0.91,0.84,1.84,1.66,2.84,2.4c1.44-4.21,1.66-8.65,1.37-13.06
	C67.94,127.69,67.03,129.02,66.14,130.37 M73.32,130.54c-2.09,3.35-0.79,7.03-0.12,10.57c1.54,0.25,3.05,0.63,4.57,1.01
	c0.43-2.82,1.26-5.55,2.13-8.25c-1.12-0.43-2.25-0.82-3.39-1.2C75.48,131.91,74.42,131.19,73.32,130.54 M166.859,137.08
	c-1.33,1.9-0.959,4.27,0.261,6.11c1.159-0.5,2.31-1.01,3.47-1.5c2.27-3.59,4.62-7.13,6.7-10.83
	C172.9,130.48,169.13,133.65,166.859,137.08 M117.029,135.18c-0.029,2.68-0.029,5.37-0.039,8.06c5.1,0.59,10.1-0.63,15.09-1.46
	c1.84-0.58,3.74-0.93,5.63-1.34c-0.851-2.9-0.59-5.99-1.66-8.84C129.57,132.1,123.561,135.18,117.029,135.18 M84.14,134.79
	c-0.77,2.35-1.17,4.8-2.1,7.1c4.89,1.23,9.93,1.3,14.95,1.31c-0.02-2-0.04-4.01,0.01-6.01C92.83,135.63,88.27,136.47,84.14,134.79
	 M102,137.16c-0.74,1.99-1.52,3.97-2.16,6c4.66,0.04,9.33-0.01,14,0.03c-0.01-2.73-0.05-5.47-0.11-8.2
	C109.82,135.73,105.98,136.84,102,137.16 M154.57,141.73c-1.42,0.42-2.801,0.96-4.17,1.51c-2.32,1.43-5.43,1.39-7.25,3.57
	c0.629,2.25,1.3,4.5,2.07,6.709c1.26,1.631,1.969,3.569,2.77,5.449c0.869-0.42,1.76-0.818,2.65-1.199
	c3.368-2.289,6.818-4.539,9.719-7.439c1.771-0.83,3.381-1.95,5.051-2.97c-0.721-0.63-1.46-1.25-2.2-1.85
	c-0.45-2.52-1.16-5.02-0.989-7.61C159.641,139.11,157.029,140.29,154.57,141.73 M134.57,148.76c-3.141,1.14-6.36,2.06-9.57,2.95
	c-1.279,0.48-3.15,0.07-3.93,1.431c-0.461,4.01,0.41,7.979,1.08,11.899c0.229,0.17,0.67,0.51,0.89,0.68
	c7.021,0.39,13.8-2.17,20.29-4.659c-0.1-2.979-1.45-5.649-3.311-7.91c-0.021-2.25-0.021-4.509-0.049-6.759
	C138.13,147.09,136.3,147.83,134.57,148.76 M92.41,152.29c-1.76,0.851-3.31,2.03-4.96,3.06c-0.61,0.271-1.84,0.812-2.45,1.08
	c0.98,0.9,1.74,2.141,2.98,2.69c1.22-0.78,2.35-1.71,3.58-2.479c0.97-0.431,1.94-0.859,2.91-1.281c1.47-0.92,2.82-2.028,4.22-3.06
	c-0.51-0.65-1.52-1.96-2.03-2.61C95.11,150.31,93.87,151.5,92.41,152.29 M63.75,152.23c0.3,1.85,1.18,3.51,1.95,5.19
	c0.37,1.1,0.79,2.17,1.28,3.23C67.4,157.51,66.27,154.2,63.75,152.23 M70.98,153.52c0.01,1.28,0.05,2.551,0.11,3.83
	c0.63,1.12,1.02,2.32,1.16,3.62c-0.82,0.011-2.46,0.021-3.28,0.03l0.04,0.6c1.14,0.49,2.23,1.09,3.33,1.69l-0.39-1.08
	c2.66-0.63,5.01-2.12,6.57-4.39c-1.17,0.57-2.31,1.18-3.45,1.789C74.34,157.2,72.93,155.109,70.98,153.52 M101.89,155.4
	c1,3.8,2.18,7.619,2.22,11.59c4.63-0.26,9.82,1.24,14.05-1.051c-2.43-3.449-0.61-8.149-1.17-12.129
	C111.98,154.45,106.96,156.34,101.89,155.4 M77.72,155.88c-0.27,1.92,3.7,2.38,3.25,0.31C80.29,155.35,78.21,154.38,77.72,155.88
	 M65.16,168.96c3.06,2.78,5.97-0.479,8.42-2.271c2.28-1.5,4.8-2.629,6.95-4.33c1.98-0.469,3.62-1.659,5.2-2.891
	c-0.46-0.51-1.37-1.529-1.83-2.039C77.71,161.38,70.73,164.05,65.16,168.96 M94.5,157.07c-1.75,1.58-3.27,3.47-5.44,4.52
	l-0.09,0.471c0.44-0.051,1.31-0.149,1.74-0.201c0.58,1.562,1.04,3.182,1.89,4.621c2.39,0.92,5.06,0.58,7.58,0.75
	c-0.18-2.631-0.76-5.199-1.49-7.721C97.84,158,96.45,156.3,94.5,157.07 M83.86,165.93c0.72,0.021,2.16,0.07,2.88,0.09
	c0.3-1.55,0.74-3.06,1.28-4.539C86.64,162.97,85.23,164.43,83.86,165.93 M68.21,164.22C68.81,164.82,68.81,164.82,68.21,164.22
	 M80.2,167.21C80.85,167.859,80.85,167.859,80.2,167.21 M83.21,167.2C83.86,167.859,83.86,167.859,83.21,167.2 M61.44,170.391
	c-1.86,1.021-3.74,2.149-4.29,4.351c3.04,1.438,5.46-1.591,7.24-3.642C63.4,170.859,62.42,170.62,61.44,170.391 M24.4,173.68
	c2.07,2.641,3.63-2.92,0.56-2.21C24.82,172.02,24.54,173.12,24.4,173.68 M20.44,173.55c-0.42,1.591,0.18,2.13,1.8,1.61
	C22.67,173.59,22.07,173.05,20.44,173.55 M47.3,175.21C47.95,175.85,47.95,175.85,47.3,175.21z"/>
<path d="M105.42,29.01c7.06,3.9,12.54,9.88,18.23,15.42c0.32,1.14,0.51,2.31,0.59,3.51c-2.01,0.13-4.01,0.24-6.02,0.31
	c-1.422-1.39-3.012-3.01-1.432-4.99c-2.69-3.86-5.48-7.81-9.39-10.53C106.14,31.86,105.48,30.62,105.42,29.01z"/>
<path d="M96.62,45.94c4.36,2.03,6.82,6.33,10.22,9.52c0.06,0.56,0.2,1.67,0.27,2.22c-2.26,1.06-3.51,3.6-6.05,4.19
	c-2.38,0.48-5.18,2-7.43,0.4c-4.59-2.08-6.14-7.23-9.44-10.65c-0.91-1.61-1.82-3.22-2.59-4.9c1.82,1.23,3.61,2.521,5.58,3.5
	c0.16-0.6,0.48-1.82,0.64-2.42c1.69,1.09,3.53,1.92,5.44,2.56c-0.48-1.24-0.97-2.48-1.47-3.7C93.64,47.6,95.98,49.06,96.62,45.94z"
	/>
<path d="M109.5,58.58c8.859-1.24,17.689-2.91,26.641-3.29c6.379,0.16,12.469,1.92,18.469,3.92c4.852,2.67,10.57,4.62,13.892,9.3
	c-3.771-1.17-6.489-4.21-10.062-5.75c-3.33-1.35-6.278-3.729-9.959-4.04c-8.149-2.87-17.141-2.07-25.51-0.61
	c-2.301,0.43-4.58,1.03-6.951,0.89c-3.668-0.22-7.14,1.39-10.83,1.05C106.38,58.97,108,58.86,109.5,58.58z"/>
<path d="M123.939,62.19c6.291-0.51,12.631-0.12,18.939-0.18c-1.09,0.74-2.38,1.23-3.72,1.021c-5.382-0.01-10.761-0.1-16.142,0.04
	c-7.91,3.1-16.51,3.99-24.918,3.03c-6.77,0.06-13.42-1.26-20.08-2.15c-1.65,0.92-2.96,2.34-4.56,3.34
	c1.36-5.78,8.16-4.21,12.53-4.19c9.68,3.32,20.1,1.91,29.93,0.06C118.609,63.02,121.3,62.82,123.939,62.19z"/>
<path d="M142.93,63.99c-0.05-0.28-0.15-0.86-0.199-1.15c3.811-0.25,7.391,0.99,10.859,2.39c1.6,0.83,3.23,1.57,4.98,2.03
	c4.74,3.36,10.24,5.97,13.779,10.75c-0.779-0.18-2.341-0.53-3.129-0.71l0.738-0.65c-4.859-3.57-9.891-6.81-15.33-9.43
	C150.68,66.31,147.09,63.84,142.93,63.99z"/>
<path d="M84.58,70.55c5.55-1.69,11.07,0.81,16.66,0.45c0.53,0.89,2.49,1.54,1.52,2.78c-2.33-0.48-4.5-1.5-6.81-2.03
	C92.27,70.51,88.34,71.3,84.58,70.55z"/>
<path d="M70.93,81.78c0.08-6.55,7.23-12.47,13.6-10.2c-1.3,0.24-2.61,0.46-3.91,0.65C75.94,73.65,72.87,77.46,70.93,81.78z"/>
<path fill="#FFFFFF" d="M138.41,71.73c3.09-1.43,6.65-0.55,9.939-0.62c1.609,0.86,3.461,0.98,5.17,1.56
	c0.979,0.29,1.951,0.6,2.92,0.94c4.011,2.52,8.211,5.35,10.311,9.76c0.51,1.09,1.061,2.15,1.62,3.22c1.45,4.32,0.87,9.19-1.61,13.03
	c-0.689,1.14-1.13,2.5-2.21,3.36c-2.739,0.39-5.399-0.35-7.94-1.3c1.271-2.21,2.632-4.37,3.701-6.69
	c2.629,1.21,6.66,1.06,7.76-2.021c-0.971-2.81-3.18-4.97-4.409-7.67c-3.79-1.16-6.86-4.29-11.16-3.5c0.8-1.73,1.87-3.48,1.562-5.49
	c-0.932,1.5-1.84,3.04-2.49,4.69c-4.93-0.14-9.891-0.14-14.67,1.23c0.49-1.25,0.949-2.5,1.379-3.77
	c1.131-1.47,2.141-3.19,1.791-5.14c-0.85,1.36-1.65,2.74-2.37,4.17c-0.671,1.479-1.45,2.92-1.97,4.479
	c-4.881,2.41-10.41,4.6-13.222,9.58c-1.239,1.61-0.14,3.52,0.562,5.09c2.32,0.75,3.82,2.78,5.57,4.35
	c4.789-3.79,10.868-5.16,16.58-6.95c-0.512,1.49-1.07,2.95-1.451,4.48c-1.25,3.07-3.641,5.77-3.949,9.14
	c2.22-2.29,3.32-5.37,4.55-8.25c0.61-1.78,1.21-3.56,1.84-5.33c4.37-1,8.8-0.47,13.12,0.5c-0.96,1.7-1.95,3.4-2.6,5.26
	c-1.142,2.25-2.352-0.13-3.48-0.99c-1.439-1.59-3.561-2.17-5.42-3.09c0.1,1.59,0.18,3.19,0.26,4.79c1.99,2.08,4.4,3.67,6.551,5.58
	c0.149-0.23,0.449-0.7,0.601-0.93c2,0.71,4.118,0.86,6.21,1.06c-1.221,0.93-2.5,1.76-3.79,2.57c-1.381,0.53-2.75,1.07-4.142,1.54
	c-1.278,0.42-2.608,0.65-3.93,0.9c-3.09,1.43-6.65,0.54-9.939,0.62c-1.609-0.86-3.461-0.98-5.159-1.56
	c-0.99-0.29-1.972-0.61-2.94-0.94c-3.789-2.35-7.568-5.02-9.939-8.9c-0.709-1.64-1.42-3.271-1.989-4.96
	c-0.94-2.54-1.011-5.54,0.04-8.05c0.3-0.98,0.63-1.95,0.98-2.91c0.988-2.16,2.26-4.16,3.948-5.85c0.312,0.71,0.931,2.13,1.24,2.84
	c0.08-1.38,0.181-2.75,0.312-4.12c1.568-1.56,3.6-2.57,5.42-3.82c0.969-0.34,1.93-0.66,2.91-0.96
	C135.74,72.19,137.08,71.98,138.41,71.73 M126.359,101.36C126.66,101.66,126.66,101.66,126.359,101.36z"/>
<path d="M97.61,75.49c1.69,0.9,3.11,2.33,3.97,4.04c0.11,2.84-0.04,5.688-0.12,8.53c-0.51-0.72-1.02-1.44-1.53-2.16
	c0.26-1.69,0.54-3.37,0.92-5.04C99.66,79.14,98.26,77.53,97.61,75.49z"/>
<path fill="#FFFFFF" d="M132.25,90.37c1.221-4.29,6.18-4.08,9.6-5.48c0.062,2.09,0.61,4.09,1.352,6.03
	c-1.592,0.02-3.182,0.06-4.771,0.1c-1.35,0.77-2.699,1.53-4.06,2.25c-1.479,0.74-2.92,1.59-4.511,2.06
	C130.63,93.66,131.49,92.04,132.25,90.37z"/>
<path d="M78.43,86.11c3.89-0.24,7.8-0.15,11.7-0.06c4.95,1.33,10.09,3.31,13.13,7.72c2-1.31,4.46-0.81,6.62-0.28
	c-0.27,0.82-0.81,2.46-1.09,3.29c-1.95,0.56-4.3,0.8-5.59,2.57c-0.43,3.08-0.14,6.21-0.18,9.31c-2.35,2.94-6.58,3.87-8.23,7.41
	c1.17,4.36,4.97,7.52,8.59,9.98c1.87-0.98,3.6-2.89,5.9-2.19c-1.16,2.05-2.07,4.28-3.62,6.07c-1.64,0.51-3.46,0.44-4.81-0.72
	c-3.54-2.89-6.04-6.86-9.7-9.63c-0.92,0.81-1.84,1.63-2.74,2.46c-0.46-1.11-1.06-2.14-1.79-3.08c-2.63,0.43-4.87,2.19-7.18,3.44
	c-1.11,0.54-2.33,0.57-3.53,0.53c8.8-3.81,15.45-10.86,23.04-16.44c0.06-2.75,0.06-5.51,0.06-8.26c-0.51-0.27-1.52-0.81-2.02-1.07
	c-4.65-0.74-9.27-1.67-13.95-2.12c-3.86,0.13-7.53-1.2-11.15-2.34C73.37,89.94,75.39,87.24,78.43,86.11 M78.33,90.89
	c3.09,0.29,6.2,0.1,9.27-0.29C84.92,88.14,81.24,89.74,78.33,90.89z"/>
<path fill="#FFFFFF" d="M78.33,90.89c2.91-1.15,6.59-2.75,9.27-0.29C84.53,90.99,81.42,91.18,78.33,90.89z"/>
<path fill="#F5F5F5" d="M128.68,90.87c0.771-1.28,2.18-1.93,3.57-2.3c-1.16,2.3-2.279,4.62-3.609,6.83
	C125.74,94.89,127.82,92.33,128.68,90.87z"/>
<path fill="#FFFFFF" d="M158.2,89.06c1.09-1.06,3.829,0.06,2.7,1.7C159.9,91.94,157.23,90.5,158.2,89.06z"/>
<path fill="#FFFFFF" d="M162.189,89.62c1.301,0.22,1.521,0.95,0.67,2.18C161.54,91.59,161.311,90.87,162.189,89.62z"/>
<path d="M51.45,93.23c4.58-2.3,9.83-0.35,14.56-2.04c1.76-0.6,3.29,0.97,4.63,1.86c-4.53-0.55-9.07-0.36-13.6,0.11
	c-5.58,1.89-10.75,5.83-12.2,11.8c-1.73,4.01-0.25,8.27,1.13,12.13c0.32,1.21,1.47,1.87,2.26,2.76c3.2,0.31,6.63,1.7,8.27,4.63
	c-0.73-0.29-2.2-0.87-2.94-1.16c-2.61-1.37-5.54-2.25-7.88-4.08c-3.39-3.75-2.71-9.07-2.62-13.72
	C44.99,100.85,47.23,96.26,51.45,93.23z"/>
<path d="M49.34,103.06c0.27-3.89,4.59-4.97,7.59-6.23c-1.11,2.35-3.68,3.19-5.77,4.44c-1.75,3.54-1.07,7.55-1.16,11.36
	c1.51,1.93,3.42,3.47,5.16,5.19c-1.67-0.59-3.28-1.32-4.86-2.11C48.37,111.8,48.9,107.26,49.34,103.06z"/>
<path d="M57.27,101c3.23,0.05,6.48-0.16,9.7,0.12c2.35,0.74,4.48,2.02,6.7,3.06c1.23,0.81,2.38,1.75,3.44,2.79
	c0.76-0.57,1.51-1.14,2.27-1.71c0.63-0.38,1.89-1.15,2.52-1.53c3.1,1.76,0.58,5.48-1.98,6.18c-2.89,0.85-5.92,1.2-8.91,0.83
	c-1.55-1.521-1.29-4.41-3.43-5.521c-5.12-1.15-10.06,0.85-14.97,2.01C53.73,104.84,55.47,102.88,57.27,101z"/>
<path d="M126.359,101.36C126.66,101.66,126.66,101.66,126.359,101.36z"/>
<path fill="#FFFFFF" d="M181.359,113.08c1.229-0.19,2.461-0.37,3.701-0.54c-0.041,0.73-0.11,2.2-0.15,2.94
	c-1.23,3-2.45,6.2-5.27,8.08c-3.4,3.13-8.062,4.01-12.48,4.65c0.359-2.57-0.08-5.16-0.16-7.73c2.63-0.33,4.88-1.73,6.7-3.59
	c0.54,2.84,3.14,4.72,3.46,7.57c0.369-0.52,0.74-1.04,1.1-1.56c-0.4-0.61-1.21-1.83-1.609-2.44c-0.229-0.51-0.689-1.54-0.92-2.05
	c-0.25-0.47-0.739-1.4-0.989-1.86C176.971,115.43,179.109,114.16,181.359,113.08z"/>
<path d="M206.87,121.7c0.69-2.09,1.229-4.24,2.04-6.29c0.51,2.95-0.53,5.78-1.1,8.62c-2.83,2.36-6.602,6.17-10.512,4.25
	c0.801-0.1,2.41-0.3,3.221-0.4C203.37,126.74,205.43,124.33,206.87,121.7z"/>
<path d="M113.55,122.03c1.69-6.021,9.04-4.24,13.671-3.8c0.119,1.71-0.021,3.43-0.24,5.14c-0.631-0.34-1.899-1.02-2.529-1.35
	C120.811,121.91,117.18,122.39,113.55,122.03z"/>
<path fill="#FFFFFF" d="M139.9,129.5c7.83-1.79,15.22-5.2,23.09-6.71c0,1.27,0.01,2.55,0.01,3.82c-2.1,4.04-5.891,6.64-10.061,8.22
	c-3.84,0.19-7.199,2.22-10.739,3.47C140.63,135.65,140.65,132.43,139.9,129.5z"/>
<path fill="#FFFFFF" d="M63.11,124.65C66.34,124.89,61.56,127.67,63.11,124.65z"/>
<path fill="#FFFFFF" d="M66.14,130.37c0.89-1.35,1.8-2.68,2.82-3.93c0.29,4.41,0.07,8.85-1.37,13.06c-1-0.74-1.93-1.56-2.84-2.4
	C65.01,134.81,65.59,132.59,66.14,130.37z"/>
<path fill="#FFFFFF" d="M73.32,130.54c1.1,0.65,2.16,1.37,3.19,2.13c1.14,0.38,2.27,0.77,3.39,1.2c-0.87,2.7-1.7,5.43-2.13,8.25
	c-1.52-0.38-3.03-0.76-4.57-1.01C72.53,137.57,71.23,133.89,73.32,130.54z"/>
<path fill="#FFFFFF" d="M166.859,137.08c2.271-3.43,6.041-6.6,10.431-6.22c-2.08,3.7-4.431,7.24-6.7,10.83
	c-1.16,0.49-2.311,1-3.47,1.5C165.9,141.35,165.529,138.98,166.859,137.08z"/>
<path fill="#FFFFFF" d="M117.029,135.18c6.531,0,12.541-3.08,19.021-3.58c1.07,2.85,0.81,5.94,1.66,8.84
	c-1.89,0.41-3.79,0.76-5.63,1.34c-4.99,0.83-9.99,2.05-15.09,1.46C117,140.55,117,137.86,117.029,135.18z"/>
<path fill="#FFFFFF" d="M84.14,134.79c4.13,1.68,8.69,0.84,12.86,2.4c-0.05,2-0.03,4.01-0.01,6.01c-5.02-0.01-10.06-0.08-14.95-1.31
	C82.97,139.59,83.37,137.14,84.14,134.79z"/>
<path fill="#FFFFFF" d="M102,137.16c3.98-0.32,7.82-1.43,11.73-2.17c0.06,2.729,0.1,5.47,0.11,8.2c-4.67-0.04-9.34,0.01-14-0.03
	C100.48,141.13,101.26,139.15,102,137.16z"/>
<path fill="#FFFFFF" d="M154.57,141.73c2.459-1.44,5.07-2.62,7.65-3.83c-0.172,2.59,0.538,5.09,0.988,7.61
	c0.74,0.6,1.479,1.22,2.2,1.85c-1.671,1.02-3.28,2.14-5.052,2.97c-2.898,2.9-6.35,5.15-9.719,7.439
	c-0.891,0.381-1.781,0.779-2.649,1.199c-0.802-1.88-1.511-3.818-2.771-5.449c-0.771-2.209-1.441-4.459-2.07-6.709
	c1.82-2.18,4.931-2.14,7.25-3.57C151.77,142.69,153.15,142.15,154.57,141.73z"/>
<path fill="#FFFFFF" d="M134.57,148.76c1.729-0.93,3.56-1.67,5.4-2.37c0.028,2.25,0.028,4.51,0.049,6.76
	c1.859,2.26,3.211,4.93,3.311,7.91c-6.49,2.488-13.27,5.049-20.29,4.658c-0.22-0.17-0.66-0.51-0.89-0.68
	c-0.67-3.92-1.541-7.891-1.08-11.898c0.779-1.36,2.65-0.952,3.93-1.432C128.21,150.82,131.43,149.9,134.57,148.76z"/>
<path fill="#FFFFFF" d="M92.41,152.29c1.46-0.79,2.7-1.98,4.25-2.6c0.51,0.65,1.52,1.96,2.03,2.61c-1.4,1.03-2.75,2.14-4.22,3.06
	c-0.97,0.422-1.94,0.852-2.91,1.281c-1.23,0.771-2.36,1.699-3.58,2.479c-1.24-0.55-2-1.79-2.98-2.69c0.61-0.27,1.84-0.81,2.45-1.08
	C89.1,154.32,90.65,153.141,92.41,152.29z"/>
<path fill="#FFFFFF" d="M63.75,152.23c2.52,1.97,3.65,5.28,3.23,8.42c-0.49-1.062-0.91-2.131-1.28-3.23
	C64.93,155.74,64.05,154.08,63.75,152.23z"/>
<path fill="#FFFFFF" d="M70.98,153.52c1.95,1.59,3.36,3.682,4.09,6.09c1.14-0.608,2.28-1.219,3.45-1.789
	c-1.56,2.271-3.91,3.761-6.57,4.391l0.39,1.08c-1.1-0.602-2.19-1.2-3.33-1.689l-0.04-0.601c0.82-0.01,2.46-0.021,3.28-0.03
	c-0.14-1.3-0.53-2.5-1.16-3.619C71.03,156.07,70.99,154.8,70.98,153.52z"/>
<path fill="#FFFFFF" d="M101.89,155.4c5.07,0.938,10.09-0.95,15.1-1.59c0.56,3.979-1.26,8.68,1.17,12.129
	c-4.23,2.291-9.42,0.791-14.05,1.051C104.07,163.02,102.89,159.2,101.89,155.4z"/>
<path fill="#FFFFFF" d="M77.72,155.88c0.49-1.5,2.57-0.53,3.25,0.31C81.42,158.26,77.45,157.8,77.72,155.88z"/>
<path fill="#FFFFFF" d="M65.16,168.96c5.57-4.91,12.55-7.58,18.74-11.53c0.46,0.51,1.37,1.53,1.83,2.04
	c-1.58,1.23-3.22,2.421-5.2,2.89c-2.15,1.701-4.67,2.83-6.95,4.33C71.13,168.48,68.22,171.74,65.16,168.96z"/>
<path fill="#FFFFFF" d="M94.5,157.07c1.95-0.771,3.34,0.93,4.19,2.438c0.73,2.521,1.31,5.091,1.49,7.722
	c-2.52-0.17-5.19,0.17-7.58-0.75c-0.85-1.44-1.31-3.062-1.89-4.621c-0.43,0.051-1.3,0.149-1.74,0.201l0.09-0.472
	C91.23,160.54,92.75,158.65,94.5,157.07z"/>
<path d="M159.41,164.66c3.15-1.561,6.48-2.66,9.79-3.83l-0.021,0.85c-3.021,0.961-5.631,2.94-8.761,3.57
	c-4.851,2.95-9.851,5.79-15.062,7.99c-0.93,0.5-1.858,1.02-2.77,1.56c-1.39,0.521-2.779,1.04-4.21,1.431
	c-1.659,0.689-3.319,1.369-4.989,2.029c-1.291,0.53-2.611,1.021-3.891,1.58c-5.52,0.62-11,1.68-16.61,1.4
	c3.26-1.381,6.799-1.25,10.27-1.311c4.66-0.761,8.93-2.869,13.439-4.181c4.319-2.188,9-3.71,12.979-6.54
	c0.47-0.102,1.391-0.311,1.858-0.42C153.87,167.03,156.529,165.561,159.41,164.66z"/>
<path fill="#FFFFFF" d="M83.86,165.93c1.37-1.5,2.78-2.96,4.16-4.449c-0.54,1.479-0.98,2.989-1.28,4.539
	C86.02,166,84.58,165.95,83.86,165.93z"/>
<path fill="#A4A4A4" d="M68.21,164.22C68.81,164.82,68.81,164.82,68.21,164.22z"/>
<path fill="#D2D2D2" d="M80.2,167.21C80.85,167.859,80.85,167.859,80.2,167.21z"/>
<path fill="#D2D2D2" d="M83.21,167.2C83.86,167.859,83.86,167.859,83.21,167.2z"/>
<path fill="#FFFFFF" d="M61.44,170.391c0.98,0.229,1.96,0.469,2.95,0.709c-1.78,2.051-4.2,5.08-7.24,3.642
	C57.7,172.54,59.58,171.41,61.44,170.391z"/>
<path fill="#FFFFFF" d="M24.4,173.68c0.14-0.56,0.42-1.66,0.56-2.21C28.03,170.76,26.47,176.32,24.4,173.68z"/>
<path fill="#FFFFFF" d="M20.44,173.55c1.63-0.5,2.23,0.04,1.8,1.61C20.62,175.68,20.02,175.141,20.44,173.55z"/>
<path fill="#D2D2D2" d="M47.3,175.21C47.95,175.85,47.95,175.85,47.3,175.21z"/>
<path d="M88.51,175.37c5.8-0.32,11.64-0.25,17.44,0.021c3.66-0.141,7.33-0.74,10.979-0.149c-4.431,1.778-9.189-0.12-13.771,0.5
	C98.29,175.59,93.32,176.24,88.51,175.37z"/>
<path d="M59.04,181.83c0.64-0.35,1.27-0.689,1.9-1.04c0.29,1.74,2.25,2.18,3.55,2.93c4.36,1.69,8.87,3.36,13.61,3.37
	c3.13,0.03,5.94,1.63,9.08,1.68c-4.44,0.15-8.78-0.97-13.21-0.77C68.39,188.17,63.34,185.07,59.04,181.83z"/>
<path d="M94.17,187.51c8.03-0.51,16.05-1.359,23.891-3.3c1.489-0.51,3.039-0.149,4.459,0.38c-2.14,0.391-4.35,0.46-6.42,1.17
	C108.83,186.689,101.54,188.91,94.17,187.51z"/>
<path d="M160.57,189.52c0.97-1.09,2.33-1.6,3.729-1.879c-2.859,7.43-11.25,9.92-15.898,15.939c-4.25,1.16-6.021,5.859-9.95,7.6
	c-1.79,0.92-3.41,2.131-4.841,3.54c-5.311,2.29-9.459,6.8-15.119,8.2c2.57-3.62,7.32-4.51,10.15-7.77
	c0.469-0.062,1.398-0.17,1.858-0.221c4.12-4.08,9-7.271,13.319-11.119C149.92,199.67,155.17,194.51,160.57,189.52z"/>
<path d="M165.189,192.311c1.351-1.609,2.58-3.811,5.061-3.591c-2.79,4.5-6.189,8.55-10.4,11.78l1.11,0.82
	c-3.16,4.57-6.79,9.56-12.649,10.688c1.351-1.069,4.049-3.198,5.391-4.27c-3.221,0.43-5.561,2.93-8.131,4.688
	c0.601,0.44,1.189,0.9,1.779,1.36c-2.77,1.81-5.529,3.64-8.26,5.51c-0.57-0.44-1.13-0.89-1.68-1.34
	c-0.08,0.681-0.221,2.05-0.301,2.74c-1.76,0.5-3.139,1.729-4.729,2.59c-4,2.101-7.14,5.7-11.71,6.69
	c1.62-4.09,6.08-5.44,9.189-8.102c6.851-4.63,12.75-10.521,19.649-15.068c4.142-2.592,6.61-6.951,10.5-9.82
	c2.49-1.7,3.271-4.84,4.53-7.41l0.3,1.26C164.93,191.21,165.109,191.939,165.189,192.311 M154.189,205.87
	c1.34,0.21,1.91-0.36,1.681-1.69C154.5,203.95,153.939,204.51,154.189,205.87 M141.13,216.061
	C140.359,216.58,140.359,216.58,141.13,216.061c1.11,0.479,3.05-0.689,2.69-1.971C142.66,213.46,141,214.84,141.13,216.061z"/>
<path fill="#FFFFFF" d="M154.189,205.87c-0.25-1.36,0.311-1.92,1.681-1.69C156.1,205.51,155.529,206.08,154.189,205.87z"/>
<path d="M155.561,209.52c2.609-1.959,4.521-5,7.851-5.858c-6.75,8.198-15.28,14.63-23.28,21.528c-4.39,3.23-7.96,7.562-12.79,10.17
	c-1.399,1.062-2.84,2.08-4.399,2.892c0.229-1.562,0.59-3.29,2.24-3.91c6.649-3.92,12.35-9.09,18.17-14.09
	C147.1,216.3,151.75,213.391,155.561,209.52z"/>
<path d="M63.48,207.13c1.62-0.6,3.41-0.2,5.1-0.28c0.32,3.291,0.73,6.631,0.18,9.92c-0.89,4.33-0.32,8.83-1.45,13.131
	c-0.48,1.431,0.41,2.789,0.72,4.16c-0.24,0.439-0.73,1.319-0.98,1.76c0.03,2.41-0.17,4.83-0.81,7.171
	c0.23,1.46,0.76,2.948,0.37,4.438c-1.22,5.961-0.06,12.051,0.5,18.021c2.8-3.79,5.7-7.57,7.93-11.74c-2.15,0.24-3.9,1.5-5.72,2.53
	c1.39-3.052,4.46-4.79,6.19-7.591c2.62-4.119,4.33-8.729,5.85-13.351c0.28,0.56,0.85,1.681,1.14,2.24
	c0.36-0.229,1.08-0.71,1.44-0.95c0.36-3.859-0.99-7.99,0.92-11.6c0.87-2.5,3.56-3.9,6.08-4.01c1.92,0.539,0.67,1.879-0.03,2.97
	c-0.47-0.271-1.42-0.8-1.9-1.07c-0.05,0.69-0.15,2.08-0.2,2.771c-0.42,0.391-1.25,1.16-1.67,1.551c-0.28,1.318-0.57,2.648-0.88,3.97
	c1.48,7.09,1.17,14.95-2.82,21.21c-2.81,5.051-7.97,8.69-9.51,14.44c-1.46,3.46-3.54,6.648-4.75,10.22
	c-0.52,1.76-1.45,3.34-2.61,4.75c-0.11,2.771,1.29,6.352-1.49,8.26c-2.73,0.5-2.95-2.81-3.65-4.609
	c-0.13-1.229-0.28-2.449-0.44-3.66c-1.89,1.621-3.69,3.761-6.48,3.351c-2.73-2.26-4.81-5.11-6.51-8.2c0-0.789,0-2.38,0-3.17
	c-2.21,0.12-4.43,0.24-6.65,0.271c-1.77-1.262-4.16-2.092-5-4.271c-0.73-1.82-1.82-3.449-3.08-4.938c-0.45-3.28-3.46-5.73-3.02-9.19
	c-0.89-4.39,0.45-8.67,1.26-12.949c-0.31-0.42-0.93-1.261-1.24-1.681c-5,1.22-9.36,4.642-14.71,4.271
	c-1.48,0.979-2.94,2.109-4.69,2.551c-3.88-0.602-8.3-0.391-10.71-4.12c5.27-3.851,12.51-3.761,17.73-7.771
	c2.66-1.229,5.33-2.449,7.72-4.17c3.06-2.189,6.68-3.431,9.81-5.521C44.91,220.1,55.18,214.91,63.48,207.13 M79.98,248.01
	c-1.64,1.801-3.52,3.42-4.6,5.67c3.71-3.68,9.23-7.289,8.02-13.34C81.97,242.76,81.39,245.58,79.98,248.01z"/>
<path d="M151.23,222.24c4.129-3.83,7.68-8.631,13.06-10.79c-1.819,3.03-4.61,5.28-7.04,7.8c-4.891,4.79-9.58,9.79-14.62,14.43
	c-4.54,3.82-8.8,7.95-13.021,12.11c-0.549,0.05-1.649,0.17-2.199,0.229c-0.939,0.83-1.891,1.641-2.87,2.431
	c0.09-3.03,2.84-4.351,4.95-5.92c1.029-1.57,2.359-2.88,4.02-3.75C139.02,232.83,145.57,228.03,151.23,222.24z"/>
<path fill="#FFFFFF" d="M141.13,216.061c-0.13-1.221,1.53-2.601,2.69-1.971C144.18,215.37,142.24,216.54,141.13,216.061z"/>
<path d="M76.26,216.21c0.49-0.399,0.98-0.79,1.47-1.19c0.27,3.021,1.77,5.7,2.5,8.602c-1.21-1.15-2.13-2.551-3.06-3.92
	C76.97,218.51,76.66,217.35,76.26,216.21z"/>
<path fill="#A4A4A4" d="M141.13,216.061C140.359,216.58,140.359,216.58,141.13,216.061z"/>
<path d="M72.01,217.35l2.53-0.1c-0.34,0.12-1.02,0.34-1.36,0.45c0.62,1.92,1.18,3.88,1.83,5.79c1.78,2.449,3.59,5.18,3.02,8.38
	C74.49,227.73,74.69,221.87,72.01,217.35z"/>
<path d="M99.94,220.92c4.47-0.65,7.18,3.53,10.73,5.41c4.64,6.95,10.939,14.32,9.67,23.279c-1.16,5.359,2.77,9.74,4.86,14.291
	c1.329,3.05,5.2,5.34,4.59,8.97c-1.04,0.13-1.89-0.2-2.56-1c-4.771-5.21-9.621-10.53-12.09-17.271
	c-3.15-7.011,1.95-16.811-5.35-22.011c-2.06,7.4-8.53,12.71-9.82,20.392c0.18,3.77,2.1,7.25,2.22,11.06
	c2.7,8.3,4.31,17.16,3.64,25.92c-1.2,4.42-1.92,8.931-2.8,13.41c-1.76-0.29-3.52-0.771-4.96-1.87c-0.13-2.9,0.96-5.74,1.32-8.609
	c1.1-4.17,0.09-8.551,1.31-12.689c-0.72-5.46-1.27-10.98-2.78-16.29c-1.05-3.351-0.73-6.96-2.1-10.229
	c-0.7,1.319-1.4,2.641-2.07,3.971c-1.37,2.979-2.73,6.09-5.31,8.26c-0.21-0.49-0.64-1.48-0.86-1.971
	c0.2-5.471,1.57-10.851,1.4-16.33c1.24,0.171,2.48,0.351,3.73,0.521c1.33,1.64,2.35,3.479,3.29,5.36c0.14-2.82-0.51-5.881,0.97-8.46
	c1.8-4.61,6.3-7.65,7.58-12.5c0.51-1.87,1.64-3.64,1.49-5.64C104.47,224.46,101.6,223.29,99.94,220.92z"/>
<path d="M72.19,227.34C72.87,228.03,72.87,228.03,72.19,227.34z"/>
<path d="M72.92,228.67c2.06,2.78,3.09,6.17,4.21,9.391c-0.71,0.67-1.32,0.619-1.82-0.149C73.56,235.17,73.52,231.77,72.92,228.67z"
	/>
<path d="M153.26,231.03c0.76-0.05,2.29-0.15,3.051-0.2c-0.791,1.25-1.58,2.51-2.359,3.77c-2.271,1.102-3.83,3.102-5.602,4.82
	c-4.92,5.62-11.39,9.75-17.648,13.801C136.58,244.24,146.609,239.34,153.26,231.03z"/>
<path d="M72.12,241.21c1.42,0.26,2.27,3.17,1.74,4.56C71.91,246.1,71.44,242.58,72.12,241.21z"/>
<path fill="#FFFFFF" d="M79.98,248.01c1.41-2.43,1.99-5.25,3.42-7.67c1.21,6.051-4.31,9.66-8.02,13.34
	C76.46,251.43,78.34,249.811,79.98,248.01z"/>
<path d="M137.971,256.41c0.93-4.37,4.979-6.74,8.539-8.811C144.17,250.97,141,253.67,137.971,256.41z"/>
<path d="M133.221,261.88c-1.82,5.46-9.861-0.78-5.931-4.03C129.279,259.18,131.37,260.35,133.221,261.88z"/>
</svg>
