<?xml version="1.0" encoding="UTF-8" ?>
<!DOCTYPE svg PUBLIC "-//W3C//DTD SVG 1.1//EN" "http://www.w3.org/Graphics/SVG/1.1/DTD/svg11.dtd">
<svg width="1000pt" height="863pt" viewBox="0 0 1000 863" version="1.1" xmlns="http://www.w3.org/2000/svg">
<g id="#eeeeeeee">
<path fill="#eeeeee" opacity="0.93" d=" M 0.00 0.00 L 1000.00 0.00 L 1000.00 1.57 C 998.00 1.24 995.98 1.05 993.97 0.98 C 667.33 1.02 340.69 0.98 14.05 1.01 C 9.36 0.97 4.59 0.60 0.00 1.81 L 0.00 0.00 Z" />
<path fill="#eeeeee" opacity="0.93" d=" M 0.00 850.34 C 1.20 854.45 1.19 858.75 1.00 863.00 L 0.00 863.00 L 0.00 850.34 Z" />
</g>
<g id="#ffffffff">
<path fill="#ffffff" opacity="1.00" d=" M 120.98 163.67 C 133.59 162.16 146.30 161.69 158.99 161.33 C 209.35 159.59 259.70 162.87 309.93 166.20 C 323.44 166.73 338.24 165.09 350.20 172.73 C 358.10 172.45 366.06 172.24 373.91 173.40 C 400.57 176.90 425.29 190.28 444.71 208.59 C 442.48 215.61 441.87 223.68 445.83 230.22 C 454.01 243.81 471.72 247.59 479.95 261.12 C 484.92 271.39 485.60 283.75 481.60 294.47 C 477.06 307.58 466.52 317.40 461.28 330.14 C 455.32 347.00 454.95 365.27 456.47 382.91 C 458.53 407.96 463.48 432.80 463.23 458.02 C 463.40 460.19 462.16 462.07 461.00 463.80 C 454.51 473.37 445.33 480.95 435.05 486.15 C 418.47 494.78 399.49 497.09 381.03 497.24 C 357.66 497.33 334.52 493.14 311.90 487.55 C 294.67 483.39 277.61 478.31 260.02 475.90 C 253.38 474.73 246.57 477.90 240.09 475.41 C 222.84 469.76 207.09 460.51 190.22 453.92 C 160.84 441.78 130.19 432.23 102.54 416.25 C 89.15 408.60 76.81 398.96 66.74 387.23 C 55.29 374.18 46.33 359.20 35.07 345.99 C 32.90 343.46 30.63 341.01 28.64 338.33 C 32.11 338.23 35.04 340.19 38.00 341.71 C 38.37 341.04 39.12 339.71 39.49 339.04 C 32.04 337.04 24.78 334.12 18.39 329.76 C 9.34 323.70 2.19 314.37 0.00 303.57 L 0.00 285.60 C 4.58 263.21 25.07 246.54 47.12 242.96 C 44.36 242.43 41.64 241.68 39.14 240.38 C 54.40 228.10 61.68 209.39 72.23 193.46 C 78.01 184.72 85.12 176.55 94.30 171.28 C 102.46 166.70 111.81 164.95 120.98 163.67 M 188.88 167.88 C 166.85 172.49 146.06 181.61 126.20 191.99 C 115.99 197.60 105.68 203.73 98.02 212.67 C 116.38 201.93 134.22 190.10 153.84 181.71 C 175.87 172.17 199.90 166.73 223.97 167.61 C 245.81 168.31 267.40 172.00 289.14 173.88 C 305.80 175.65 322.68 175.61 339.28 173.37 C 312.08 174.55 285.03 170.52 258.05 167.59 C 235.11 165.25 211.68 163.35 188.88 167.88 M 192.10 181.81 C 162.18 187.27 132.82 199.53 110.21 220.24 C 113.57 220.21 117.06 219.83 120.01 218.07 C 124.94 215.09 128.56 210.40 133.51 207.46 C 160.59 190.06 192.89 181.83 224.90 181.34 C 250.38 180.67 275.54 185.43 300.86 187.44 C 326.49 189.45 352.69 190.30 377.89 184.30 C 383.62 183.14 387.91 187.77 392.10 190.85 C 391.80 188.07 390.48 185.39 388.04 183.91 C 383.84 181.39 378.71 181.56 373.99 181.71 C 359.59 182.73 345.46 186.47 330.97 186.45 C 301.41 187.60 272.35 181.12 243.01 178.91 C 226.00 177.94 208.88 178.77 192.10 181.81 M 164.95 199.38 C 150.15 204.02 134.93 211.74 126.98 225.71 C 133.06 218.63 140.84 213.22 149.21 209.19 C 170.59 199.03 194.52 195.79 217.96 194.97 C 224.30 194.66 230.66 194.68 236.99 195.06 C 241.16 195.06 244.67 198.02 248.89 197.77 C 248.25 196.99 248.05 195.66 246.96 195.37 C 243.66 194.50 240.23 194.46 236.85 194.12 C 212.88 191.50 188.19 192.56 164.95 199.38 M 235.13 198.88 C 238.15 203.65 243.82 205.70 247.14 210.17 C 248.62 213.94 246.67 218.01 247.22 221.92 C 247.17 223.44 248.76 223.87 249.77 224.60 C 249.79 219.38 249.92 214.15 249.76 208.94 C 246.37 204.95 242.22 201.62 239.14 197.34 C 237.80 197.84 236.46 198.35 235.13 198.88 M 310.77 206.34 C 327.68 201.42 345.50 199.31 363.07 200.65 C 373.14 201.75 383.99 204.20 391.23 211.82 C 395.18 215.79 396.85 221.33 397.64 226.74 C 398.88 225.48 401.07 224.03 400.16 221.97 C 398.94 218.27 396.34 214.86 396.86 210.75 C 378.15 197.71 354.07 195.77 332.04 198.68 C 324.63 199.89 316.66 201.31 310.77 206.34 M 315.80 218.17 C 315.76 224.52 315.74 230.88 315.81 237.24 C 319.28 233.88 318.22 228.42 318.81 224.06 C 318.82 219.40 320.59 213.62 326.01 212.96 C 325.20 211.89 324.17 211.04 323.07 210.32 C 320.34 212.64 318.44 215.75 315.80 218.17 M 146.24 231.16 C 138.28 235.46 130.86 242.43 129.09 251.65 C 132.05 253.60 135.31 255.40 138.96 255.46 C 148.88 255.88 158.10 250.91 168.03 251.19 C 192.70 250.21 217.23 256.30 239.43 266.86 C 245.32 261.34 255.41 259.97 257.91 251.29 C 254.46 242.35 246.60 236.06 238.19 231.99 C 222.36 224.32 204.50 221.69 187.03 222.09 C 173.03 222.18 158.73 224.61 146.24 231.16 M 354.36 232.93 C 343.74 234.09 333.10 236.53 323.60 241.55 C 319.25 243.88 315.15 247.04 312.95 251.59 C 306.03 251.69 298.44 246.57 292.06 251.26 C 292.37 253.92 293.73 256.45 296.10 257.82 C 300.50 260.41 305.71 260.91 310.51 262.43 C 310.49 269.98 310.47 277.54 310.52 285.09 C 317.79 291.43 328.00 293.46 334.46 300.83 C 330.92 311.11 321.64 317.54 312.99 323.28 C 308.70 324.60 304.82 321.99 301.45 319.70 C 299.17 318.15 296.58 319.59 294.62 320.91 C 296.20 325.48 299.14 330.06 304.03 331.51 C 312.28 333.93 320.76 330.04 327.68 325.75 C 333.66 321.73 339.64 316.73 342.05 309.70 C 344.93 311.77 348.28 314.09 352.02 313.51 C 354.81 312.87 355.00 309.70 355.26 307.40 C 365.26 310.63 374.87 314.99 384.99 317.83 C 362.63 307.08 343.06 291.43 320.82 280.45 C 320.88 275.23 320.88 270.02 320.82 264.81 C 326.97 258.92 335.75 257.29 343.87 256.15 C 361.65 253.64 380.34 255.76 397.35 249.06 C 395.68 243.54 391.46 239.12 386.25 236.77 C 376.33 232.20 365.04 232.04 354.36 232.93 M 99.87 244.87 C 100.27 247.15 101.49 249.44 103.87 250.13 C 108.63 251.64 113.72 251.31 118.63 251.20 C 115.76 248.14 111.25 249.77 107.60 249.21 C 111.78 245.10 117.94 244.96 123.40 244.39 C 121.54 242.38 118.70 241.85 116.12 242.63 C 110.83 244.02 105.42 246.34 99.87 244.87 M 402.64 246.77 C 413.51 252.84 426.23 248.86 437.95 249.14 C 442.73 248.57 447.04 250.95 451.17 253.00 C 459.60 257.31 467.26 263.57 472.18 271.74 C 479.52 282.88 477.09 299.24 466.49 307.42 C 460.79 311.51 453.26 311.45 447.49 315.37 C 445.23 316.80 443.38 318.77 441.90 320.98 C 451.47 315.98 462.46 314.33 471.78 308.78 C 474.04 307.72 474.67 305.14 475.59 303.04 C 479.43 293.39 479.91 282.16 475.62 272.58 C 470.98 262.07 461.89 254.16 451.84 248.96 C 449.72 247.95 447.55 246.37 445.07 247.01 C 430.92 248.98 416.76 244.86 402.64 246.77 M 27.40 253.35 C 21.96 258.00 18.25 264.24 13.32 269.38 C 13.12 280.90 12.89 292.44 13.92 303.92 C 14.77 309.63 15.82 315.47 18.49 320.65 C 27.01 326.45 36.93 330.45 47.16 331.94 C 41.34 323.66 29.19 327.51 22.49 320.50 C 16.82 314.52 14.24 306.06 14.17 297.94 C 13.65 282.08 18.45 265.57 28.93 253.46 C 33.74 252.55 38.81 252.08 42.82 248.98 C 55.58 248.58 68.41 249.32 81.15 248.54 C 72.85 245.08 63.68 247.11 54.99 247.25 C 50.66 247.53 46.33 246.42 42.01 247.20 C 36.69 247.80 31.48 249.82 27.40 253.35 M 114.72 254.78 C 113.85 255.60 114.94 256.74 115.01 257.68 C 117.99 256.78 121.03 256.12 124.05 255.42 C 121.56 253.19 117.49 252.93 114.72 254.78 M 28.49 294.92 C 29.13 305.67 36.05 315.08 44.83 320.87 C 45.56 318.29 46.61 315.66 46.15 312.93 C 45.54 309.08 43.12 305.94 41.42 302.55 C 37.58 295.46 39.43 286.75 42.80 279.85 C 47.14 271.08 56.69 266.28 66.04 264.99 C 76.66 263.60 87.81 264.05 97.83 268.14 C 110.67 273.17 123.11 279.97 137.03 281.48 C 149.17 282.58 162.14 281.88 172.91 275.61 C 180.18 271.60 187.29 264.65 186.79 255.69 C 177.30 256.08 170.95 263.82 163.15 268.08 C 154.91 272.86 144.91 272.62 135.81 271.15 C 117.31 267.85 100.40 258.77 81.87 255.60 C 74.62 254.31 67.12 254.08 59.87 255.52 C 41.82 258.79 27.32 276.46 28.49 294.92 M 440.56 260.06 L 440.72 260.96 C 445.46 265.05 452.76 264.26 457.43 268.48 C 458.59 271.49 458.26 274.84 458.74 278.00 C 459.35 284.43 460.58 291.87 456.43 297.43 C 453.90 301.01 449.40 301.66 445.67 303.31 C 450.46 304.45 456.47 303.78 459.06 299.02 C 463.77 290.51 462.30 280.29 461.07 271.07 C 460.57 269.39 460.94 267.04 459.10 266.12 C 453.73 262.58 447.18 261.52 441.72 258.15 C 441.43 258.62 440.85 259.58 440.56 260.06 M 413.83 267.74 C 403.80 269.75 393.43 273.13 386.20 280.72 C 380.96 279.97 377.00 276.05 372.01 274.64 C 369.76 273.93 367.63 275.11 365.62 275.94 C 365.60 280.36 367.78 284.92 372.06 286.62 C 381.61 290.61 392.25 289.10 402.33 289.47 C 402.67 283.81 406.38 278.36 412.16 277.20 C 424.86 274.41 437.28 280.16 449.91 280.62 C 448.94 275.92 445.85 271.75 441.48 269.70 C 432.91 265.55 422.96 266.08 413.83 267.74 M 77.29 274.37 C 74.28 278.91 75.58 284.83 73.46 289.68 C 66.93 295.29 57.11 293.18 50.16 298.03 C 48.42 299.21 47.87 301.31 47.10 303.15 C 54.48 307.34 63.21 304.89 70.93 303.11 C 71.82 307.01 74.23 310.29 75.47 314.05 C 76.17 316.53 74.67 318.84 73.72 321.03 C 80.98 326.07 86.75 332.86 92.28 339.67 C 100.99 350.56 109.24 361.91 119.37 371.57 C 131.09 383.09 145.32 391.68 159.85 399.18 C 187.89 413.30 218.80 420.85 249.85 424.47 C 276.45 427.44 303.28 427.96 330.01 427.23 C 351.47 426.34 373.04 424.90 394.02 420.05 C 402.52 417.92 411.15 415.41 418.51 410.49 C 423.19 407.41 426.31 402.53 428.61 397.53 C 432.67 388.47 434.77 378.67 436.15 368.88 C 438.54 349.28 438.47 328.90 432.45 309.93 C 431.09 304.54 426.51 301.04 423.76 296.45 C 421.64 292.90 423.87 288.05 420.92 284.89 C 418.85 283.92 415.64 284.17 414.60 286.50 C 411.03 293.71 414.79 302.60 410.46 309.53 C 403.26 317.61 393.97 323.66 384.11 328.02 C 361.51 337.85 336.34 339.25 312.01 338.38 C 276.34 336.66 241.22 329.41 206.54 321.25 C 186.25 316.35 165.98 311.38 145.92 305.60 C 131.53 301.31 117.10 296.84 103.51 290.37 C 97.97 287.59 92.31 284.60 88.11 279.93 C 85.80 277.58 85.84 274.06 84.35 271.27 C 81.80 271.65 78.78 271.94 77.29 274.37 M 211.53 289.97 C 212.16 291.37 212.81 292.77 213.48 294.16 C 211.81 296.75 208.95 298.23 205.91 298.49 C 196.58 299.49 187.20 297.31 177.88 298.45 C 175.09 298.77 172.60 300.32 170.91 302.54 C 185.41 297.59 201.19 303.60 215.62 298.54 C 215.59 295.52 215.60 292.50 215.58 289.48 C 214.23 289.63 212.88 289.79 211.53 289.97 M 218.47 296.19 C 216.84 303.68 217.17 312.45 222.32 318.56 C 225.43 322.48 231.13 323.47 235.58 321.38 C 237.44 320.79 237.49 318.38 236.94 316.84 C 235.78 312.44 229.30 312.61 228.25 308.17 C 227.83 305.14 228.48 301.00 231.74 299.76 C 237.67 297.53 244.36 299.80 250.20 297.24 C 252.45 296.35 252.71 293.83 252.66 291.75 C 241.63 287.36 227.90 288.82 218.47 296.19 M 242.21 307.46 C 241.31 311.28 242.21 315.32 244.50 318.50 C 255.50 310.07 269.75 319.42 281.68 314.17 C 280.74 309.95 276.91 307.35 272.93 306.42 C 262.85 303.85 252.17 304.85 242.21 307.46 M 124.55 401.67 C 124.53 401.76 124.50 401.94 124.48 402.03 C 139.98 407.97 154.94 415.15 170.06 421.95 C 194.11 432.77 218.97 442.42 245.07 446.91 C 255.31 448.77 265.71 449.36 276.05 450.31 C 292.69 451.48 309.34 452.51 326.02 452.68 C 345.45 452.73 365.18 452.99 384.20 448.43 C 396.84 445.38 409.55 438.63 415.75 426.68 C 410.78 431.92 405.00 436.40 398.32 439.25 C 382.84 446.12 365.76 448.13 349.01 449.28 C 326.96 450.44 304.85 449.55 282.84 447.99 C 271.82 447.13 260.76 446.57 249.86 444.61 C 227.12 440.72 205.30 432.84 184.04 424.08 C 164.43 416.04 145.12 407.04 124.55 401.67 M 97.87 402.06 C 101.39 404.69 105.26 406.79 109.07 408.98 C 129.04 420.07 150.39 428.46 172.06 435.58 C 217.74 450.26 265.17 459.29 312.96 463.28 C 338.27 464.93 363.73 466.44 389.07 464.48 C 404.28 463.08 420.08 459.93 432.59 450.65 C 435.01 448.70 437.66 446.83 439.41 444.23 C 439.53 439.63 439.48 435.03 439.35 430.44 C 432.89 432.15 439.63 439.96 435.61 443.45 C 425.09 454.53 409.54 458.47 394.98 460.95 C 368.51 464.91 341.61 463.53 315.03 461.51 C 290.21 459.58 265.51 456.06 241.16 450.83 C 191.75 440.13 143.47 423.94 97.87 402.06 M 269.53 435.62 C 275.61 437.01 281.87 437.38 288.09 437.69 C 310.30 438.40 332.50 436.92 354.71 437.41 C 344.63 433.52 333.55 435.86 323.05 435.80 C 305.22 435.44 287.37 435.35 269.53 435.62 Z" />
<path fill="#ffffff" opacity="1.00" d=" M 200.04 244.63 C 201.90 240.14 201.00 234.45 204.86 230.93 C 214.90 234.60 225.55 236.80 234.99 241.97 C 239.24 244.24 243.29 248.26 242.52 253.52 C 237.23 255.80 231.40 254.12 226.50 251.67 C 218.34 247.48 209.51 243.24 200.04 244.63 Z" />
<path fill="#ffffff" opacity="1.00" d=" M 142.23 244.43 C 145.76 242.12 149.60 239.42 154.01 239.56 C 155.86 239.52 157.01 241.18 158.24 242.30 C 153.08 244.03 147.78 246.45 142.21 245.69 C 142.21 245.38 142.22 244.75 142.23 244.43 Z" />
<path fill="#ffffff" opacity="1.00" d=" M 354.60 242.55 C 359.37 242.62 364.15 242.47 368.91 241.97 C 372.52 241.56 376.55 241.86 379.39 244.42 C 374.62 244.45 369.84 244.50 365.10 245.01 C 361.47 245.32 357.44 245.14 354.60 242.55 Z" />
<path fill="#ffffff" opacity="1.00" d=" M 84.03 305.07 C 82.58 300.46 84.30 295.64 86.86 291.78 C 100.81 300.51 116.86 304.89 131.59 312.03 C 132.10 318.71 129.80 326.15 133.69 332.15 C 120.75 328.54 107.51 325.05 95.92 318.02 C 90.89 314.94 85.92 310.87 84.03 305.07 Z" />
<path fill="#ffffff" opacity="1.00" d=" M 142.08 316.46 C 164.22 320.64 185.77 327.39 207.77 332.20 C 205.56 338.80 204.92 345.84 202.42 352.36 C 188.39 346.30 172.71 345.46 158.74 339.24 C 153.30 336.80 148.05 333.22 145.12 327.88 C 143.04 324.44 142.36 320.41 142.08 316.46 Z" />
<path fill="#ffffff" opacity="1.00" d=" M 419.01 318.10 C 422.73 317.52 424.26 324.77 420.54 324.76 C 419.66 322.71 417.95 320.39 419.01 318.10 Z" />
<path fill="#ffffff" opacity="1.00" d=" M 405.78 333.12 C 404.94 329.69 407.35 326.78 410.18 325.27 C 411.95 332.73 416.98 339.21 417.44 346.98 C 417.35 351.92 412.18 353.83 408.14 354.71 C 409.99 347.38 407.03 340.24 405.78 333.12 Z" />
<path fill="#ffffff" opacity="1.00" d=" M 102.35 335.92 C 100.91 333.68 104.24 331.20 106.08 332.81 C 114.51 338.22 125.30 340.10 132.07 347.90 C 136.20 352.49 134.49 359.30 131.30 363.90 C 123.71 363.09 119.46 356.14 115.32 350.58 C 111.61 345.15 105.59 341.69 102.35 335.92 Z" />
<path fill="#ffffff" opacity="1.00" d=" M 375.97 341.43 C 382.70 340.68 388.39 336.87 394.48 334.29 C 399.24 341.79 396.51 350.84 394.67 358.81 C 390.21 357.51 386.10 359.76 382.02 361.21 C 380.48 361.99 379.86 360.07 378.88 359.37 C 380.38 357.98 382.54 356.25 381.36 353.94 C 379.33 349.89 374.81 346.48 375.97 341.43 Z" />
<path fill="#ffffff" opacity="1.00" d=" M 216.61 341.48 C 217.58 338.00 221.66 335.73 225.09 337.08 C 240.13 340.99 255.75 341.91 270.84 345.57 C 271.45 351.51 270.96 357.49 271.18 363.46 C 263.44 364.55 255.60 364.11 247.88 363.12 C 236.32 361.55 225.13 357.79 213.45 357.01 C 215.74 352.11 215.02 346.55 216.61 341.48 Z" />
<path fill="#ffffff" opacity="1.00" d=" M 326.69 348.06 C 339.76 348.12 352.95 347.10 365.56 343.44 C 364.82 349.96 368.06 355.77 370.94 361.33 C 356.84 361.05 342.94 365.32 328.80 363.53 C 328.73 358.37 330.05 352.50 326.69 348.06 Z" />
<path fill="#ffffff" opacity="1.00" d=" M 281.56 345.56 C 292.95 345.30 304.06 349.60 315.49 348.04 C 314.76 353.61 320.13 357.85 318.62 363.52 C 306.27 363.70 293.90 363.52 281.54 363.61 C 281.55 357.59 281.53 351.57 281.56 345.56 Z" />
<path fill="#ffffff" opacity="1.00" d=" M 142.70 367.56 C 145.52 362.10 143.21 355.24 146.99 350.09 C 162.39 359.35 179.95 364.03 197.30 368.06 C 197.68 372.60 197.20 377.26 195.42 381.48 C 192.71 388.12 187.68 393.37 184.08 399.49 C 168.63 389.49 151.09 382.75 137.04 370.61 C 139.08 369.99 141.66 369.74 142.70 367.56 Z" />
<path fill="#ffffff" opacity="1.00" d=" M 210.60 370.36 C 226.28 377.68 243.38 381.45 260.44 383.82 C 261.76 390.76 260.38 397.77 259.50 404.67 C 259.14 408.22 258.79 411.99 260.38 415.31 C 238.90 414.77 218.08 409.16 197.35 404.06 C 200.87 392.46 208.47 382.43 210.60 370.36 Z" />
<path fill="#ffffff" opacity="1.00" d=" M 415.94 386.85 C 417.66 384.10 419.97 381.00 423.60 381.10 C 418.28 387.47 417.14 396.55 410.49 401.91 C 411.13 396.56 413.19 391.45 415.94 386.85 Z" />
<path fill="#ffffff" opacity="1.00" d=" M 270.78 389.85 C 271.36 387.48 273.63 386.31 275.86 385.93 C 287.09 392.51 300.71 390.08 313.12 390.56 C 311.54 399.57 309.35 408.45 307.69 417.44 C 298.16 416.79 288.62 418.16 279.09 417.48 C 275.23 417.23 271.34 416.09 268.47 413.39 C 270.46 411.87 271.76 409.58 271.57 407.03 C 271.82 401.28 269.56 395.57 270.78 389.85 Z" />
<path fill="#ffffff" opacity="1.00" d=" M 394.43 391.33 C 396.63 388.84 399.58 387.17 402.66 386.01 C 401.96 391.55 398.09 395.93 397.04 401.37 C 399.94 402.34 403.30 405.82 406.15 402.95 C 406.93 402.02 407.44 403.67 408.10 403.93 C 400.70 407.88 392.29 409.03 384.19 410.72 C 387.30 404.12 389.36 396.78 394.43 391.33 Z" />
<path fill="#ffffff" opacity="1.00" d=" M 363.28 393.13 C 368.13 394.37 372.53 391.70 377.04 390.46 C 378.87 389.97 380.22 391.41 381.60 392.33 C 378.31 397.13 373.36 401.07 371.96 406.97 C 371.18 409.03 372.38 410.99 373.28 412.78 C 366.92 411.21 361.47 416.26 355.14 415.38 C 356.67 407.49 363.53 401.52 363.28 393.13 Z" />
<path fill="#ffffff" opacity="1.00" d=" M 325.92 393.01 C 332.95 393.74 339.96 391.98 346.99 392.61 C 349.09 392.66 350.92 393.76 352.67 394.81 C 348.40 401.18 344.26 407.78 342.01 415.17 C 334.40 416.65 325.81 420.02 318.48 415.91 C 323.11 408.97 320.64 399.58 325.92 393.01 Z" />
<path fill="#ffffff" opacity="1.00" d=" M 882.24 419.21 C 895.04 414.55 908.70 413.25 922.09 411.31 C 934.79 419.80 951.26 416.60 964.57 423.51 C 967.48 425.07 970.30 427.03 972.08 429.89 C 977.55 437.90 984.43 444.81 991.59 451.31 C 993.18 465.64 986.99 479.17 980.54 491.54 C 979.29 493.55 978.70 496.37 976.26 497.28 C 960.26 504.97 942.59 508.63 924.97 509.92 C 921.92 510.24 918.80 510.09 915.84 510.93 C 899.85 515.29 883.61 518.95 867.10 520.56 C 854.41 522.06 841.65 520.95 828.92 521.22 C 815.58 521.46 801.97 521.72 789.01 518.07 C 786.58 517.52 784.85 515.60 783.12 513.97 C 775.79 506.65 771.58 496.83 769.30 486.87 C 773.30 479.93 775.05 471.94 778.81 464.93 C 788.40 456.40 800.53 451.63 811.78 445.75 C 831.04 435.42 852.01 428.69 873.20 423.60 C 865.39 438.24 855.81 451.88 845.41 464.79 C 846.15 468.49 848.72 471.33 851.11 474.10 C 864.42 466.74 869.51 451.55 878.17 439.98 C 881.41 440.20 884.65 440.46 887.91 440.31 C 894.13 445.39 900.01 451.13 903.95 458.21 C 905.13 460.22 906.12 462.52 908.17 463.84 C 911.32 465.98 915.10 466.82 918.70 467.93 C 920.46 465.63 922.24 463.35 924.01 461.05 C 910.04 447.18 899.74 429.22 882.24 419.21 Z" />
<path fill="#ffffff" opacity="1.00" d=" M 220.46 476.30 C 233.60 483.40 248.38 486.60 262.98 489.15 C 278.84 491.82 294.79 494.00 310.56 497.20 C 310.47 504.82 310.72 512.45 310.43 520.07 C 310.40 526.83 306.37 532.64 305.10 539.14 C 304.01 543.71 305.17 548.37 305.66 552.94 C 308.41 573.16 312.50 593.22 313.74 613.62 C 315.49 615.72 317.82 617.35 319.17 619.80 C 322.65 625.75 323.08 632.85 325.78 639.13 C 327.11 642.45 330.06 645.12 330.04 648.92 C 330.71 656.65 331.88 664.32 332.89 672.00 C 333.71 686.28 340.07 699.39 342.53 713.35 C 324.81 698.71 311.19 680.02 296.55 662.49 C 286.32 650.44 277.38 637.30 269.84 623.40 C 267.68 623.72 265.15 623.84 263.75 625.79 C 260.29 630.28 261.60 636.85 264.95 641.04 C 282.25 666.59 302.49 689.96 323.09 712.88 C 329.73 719.19 337.97 724.42 341.94 733.00 C 344.17 738.21 347.50 742.86 349.58 748.14 C 351.96 753.64 353.26 759.54 353.79 765.50 C 357.33 767.37 360.58 769.93 362.56 773.49 C 366.56 779.57 367.79 787.63 373.91 792.16 C 379.12 796.39 382.12 802.53 385.62 808.11 C 396.81 809.73 404.25 818.85 412.81 825.24 C 417.21 828.81 422.96 830.09 427.36 833.65 C 433.51 838.49 438.04 845.27 444.96 849.15 C 447.79 850.80 451.17 851.21 453.95 852.95 C 457.41 855.66 459.29 859.79 462.22 863.00 L 209.78 863.00 C 212.32 862.92 214.85 862.81 217.39 862.75 C 215.03 847.60 209.48 833.14 207.57 817.91 C 207.05 813.96 205.89 810.12 205.62 806.14 C 205.06 798.27 205.60 790.26 203.63 782.55 C 200.96 772.45 203.92 761.62 200.22 751.71 C 196.34 741.58 196.40 730.57 196.61 719.89 C 196.70 715.28 191.63 712.64 191.35 708.12 C 190.32 693.07 186.15 678.17 187.66 662.99 C 188.88 645.06 185.61 626.84 189.62 609.12 C 191.25 601.56 191.52 593.76 190.88 586.07 C 190.56 579.53 189.42 572.92 190.76 566.42 C 192.39 557.42 194.67 548.42 194.14 539.20 C 198.26 535.21 202.43 531.28 206.22 526.97 C 202.88 526.85 199.54 526.73 196.21 526.57 C 195.91 521.05 196.03 515.38 198.09 510.18 C 202.90 497.31 212.99 487.57 220.46 476.30 Z" />
<path fill="#ffffff" opacity="1.00" d=" M 640.28 549.01 C 641.81 547.39 643.09 545.44 644.95 544.18 C 647.39 543.99 649.84 544.08 652.29 544.05 C 652.44 546.76 652.61 549.47 652.76 552.20 C 648.65 550.95 644.49 549.84 640.28 549.01 Z" />
<path fill="#ffffff" opacity="1.00" d=" M 552.99 596.02 C 558.45 591.08 563.49 585.71 568.63 580.44 C 573.25 584.62 576.88 590.72 575.75 597.17 C 575.12 600.33 572.72 604.00 569.07 603.68 C 564.89 603.93 560.70 603.87 556.52 603.82 C 555.40 601.19 554.21 598.60 552.99 596.02 Z" />
<path fill="#ffffff" opacity="1.00" d=" M 689.98 714.62 C 702.99 711.14 715.86 706.94 729.12 704.48 C 746.68 708.41 764.72 704.90 782.44 706.88 C 806.06 711.68 830.06 714.12 853.91 717.43 C 863.61 717.55 872.75 721.05 881.78 724.22 C 886.22 726.23 888.12 731.36 888.42 735.95 C 889.00 742.82 887.89 751.16 893.80 756.13 C 895.94 754.41 898.12 752.72 900.30 751.03 C 900.30 745.33 900.31 739.63 900.48 733.93 C 914.02 736.98 927.74 742.27 937.40 752.63 C 932.49 757.60 929.84 764.16 927.48 770.61 C 923.94 778.10 915.71 781.23 908.77 784.72 C 904.33 786.66 900.98 790.25 896.99 792.89 C 889.83 797.76 881.75 801.53 873.12 802.75 C 868.08 803.60 862.94 802.79 857.89 803.59 C 848.32 804.85 838.47 808.18 828.89 805.17 C 821.13 802.57 812.84 803.73 804.86 802.61 C 800.96 802.14 797.22 800.74 793.30 800.48 C 786.20 799.94 779.09 800.73 771.99 800.29 C 765.15 800.28 760.02 795.12 755.00 791.16 C 752.13 794.85 747.86 797.73 743.02 797.49 C 734.85 797.17 727.53 793.00 720.23 789.75 C 717.00 787.20 718.38 782.36 717.11 778.87 C 714.92 775.53 711.83 772.91 709.10 770.05 C 707.08 771.96 704.86 774.02 704.31 776.88 C 703.47 780.45 704.62 784.02 705.99 787.30 C 700.84 784.87 695.72 782.22 691.49 778.35 C 684.82 772.24 675.05 770.85 668.84 764.11 C 663.49 758.51 657.42 753.58 652.74 747.36 C 650.62 745.13 652.54 742.02 654.10 740.08 C 657.20 736.75 661.60 735.00 664.59 731.56 C 669.83 725.66 676.44 721.21 683.13 717.11 C 685.19 715.77 687.63 715.26 689.98 714.62 Z" />
<path fill="#ffffff" opacity="1.00" d=" M 540.75 723.83 C 548.94 719.07 558.27 722.71 566.86 724.02 C 566.89 732.36 566.97 740.71 566.87 749.05 C 566.99 756.11 561.45 761.28 557.55 766.55 C 548.93 768.24 540.92 763.23 535.65 756.80 C 541.75 751.58 540.95 742.66 545.67 736.60 C 546.61 735.24 547.81 733.75 547.20 731.98 C 545.82 728.74 542.91 726.52 540.75 723.83 Z" />
<path fill="#ffffff" opacity="1.00" d=" M 531.27 727.47 C 532.49 726.46 534.11 726.56 535.58 726.51 C 535.32 727.87 535.06 729.25 534.46 730.53 C 533.26 731.61 531.56 731.56 530.08 731.84 C 530.30 730.35 530.16 728.64 531.27 727.47 Z" />
<path fill="#ffffff" opacity="1.00" d=" M 649.42 762.28 C 655.42 767.71 661.12 773.50 667.60 778.39 C 671.42 781.32 675.81 783.38 679.82 786.03 C 688.65 791.73 697.16 798.13 707.02 802.02 C 704.87 814.30 703.02 826.71 703.36 839.22 C 705.98 841.06 708.61 842.90 711.22 844.77 C 717.08 831.47 716.69 816.69 718.54 802.55 C 728.58 808.66 740.65 809.82 752.16 809.25 C 751.14 827.14 754.43 845.48 749.31 863.00 L 647.91 863.00 C 649.37 861.88 650.85 860.78 652.34 859.69 C 647.45 841.49 650.05 822.53 649.86 803.96 C 651.99 790.23 654.60 775.69 649.42 762.28 Z" />
<path fill="#ffffff" opacity="1.00" d=" M 931.63 782.94 C 931.12 798.90 932.59 814.94 930.69 830.84 C 928.56 841.45 928.71 852.33 927.02 863.00 L 905.82 863.00 C 905.65 855.31 905.97 847.55 908.05 840.11 C 908.93 833.77 909.97 827.20 908.60 820.86 C 907.94 817.49 905.66 814.82 903.26 812.52 C 901.24 815.17 897.70 817.29 897.76 820.99 C 896.80 835.01 893.30 848.87 894.37 863.00 L 763.57 863.00 C 763.68 845.89 763.48 828.78 763.57 811.67 C 774.44 811.11 785.31 811.91 796.10 813.21 C 805.72 814.46 815.41 815.24 824.97 816.93 C 839.98 819.08 855.03 816.25 869.96 814.76 C 874.49 814.28 879.13 814.37 883.57 813.19 C 891.70 810.98 899.36 807.10 905.98 801.88 C 914.16 795.05 925.97 792.69 931.63 782.94 Z" />
</g>
<g id="#040405ff">
<path fill="#040405" opacity="1.00" d=" M 228.10 34.10 C 231.33 33.71 234.56 33.38 237.80 33.04 C 237.84 36.28 237.87 39.52 237.88 42.76 C 241.13 41.70 244.37 40.61 247.59 39.48 C 248.29 42.62 248.91 45.77 249.49 48.93 C 246.05 49.21 242.60 49.45 239.16 49.74 C 241.88 52.45 244.58 55.19 247.21 57.99 C 244.60 59.80 241.95 61.56 239.19 63.13 C 237.35 60.90 235.53 58.67 233.71 56.43 C 232.13 58.94 230.55 61.44 228.98 63.96 C 226.26 62.34 223.54 60.72 220.83 59.08 C 223.07 56.17 225.33 53.29 227.63 50.43 C 223.82 49.05 219.93 47.87 216.16 46.37 C 217.15 44.55 217.87 42.18 220.00 41.37 C 223.46 39.84 227.22 41.51 230.66 42.21 C 229.82 39.50 228.92 36.82 228.10 34.10 Z" />
<path fill="#040405" opacity="1.00" d=" M 344.79 38.94 C 345.92 36.30 348.34 34.62 350.53 32.91 C 357.66 49.94 364.70 67.00 372.16 83.88 C 374.23 88.95 379.43 91.40 383.16 95.03 C 373.71 95.56 364.25 95.55 354.80 95.06 C 357.27 92.72 360.02 90.69 362.65 88.52 C 360.58 84.22 358.76 79.80 356.75 75.48 C 349.70 75.49 342.65 75.42 335.60 75.39 C 333.70 79.77 331.74 84.13 329.96 88.57 C 332.70 90.66 335.43 92.79 338.01 95.10 C 330.29 95.39 322.57 95.46 314.86 95.13 C 318.26 91.72 322.61 89.00 324.69 84.48 C 332.02 69.58 337.76 53.97 344.79 38.94 M 337.94 70.51 C 343.64 70.58 349.33 70.59 355.03 70.54 C 352.25 63.95 349.45 57.36 346.35 50.91 C 343.25 57.31 340.58 63.91 337.94 70.51 Z" />
<path fill="#040405" opacity="1.00" d=" M 517.33 34.77 C 532.24 35.07 547.15 34.54 562.06 35.21 L 562.34 35.41 C 568.73 49.85 575.32 64.20 582.23 78.40 C 589.59 64.33 595.82 49.68 602.29 35.18 C 608.88 34.76 615.49 34.85 622.10 34.82 C 619.15 37.80 614.02 39.46 613.31 44.04 C 613.11 58.66 613.34 73.28 613.27 87.89 C 615.89 90.69 619.63 92.37 622.43 95.08 C 612.29 95.48 602.06 95.93 591.98 94.55 C 595.46 92.77 598.98 91.05 602.47 89.25 C 602.58 76.48 602.80 63.70 602.44 50.93 C 594.72 66.18 588.33 82.06 580.72 97.36 C 574.31 88.42 570.54 77.97 566.00 68.03 C 563.74 62.66 560.86 57.59 558.51 52.27 C 557.85 53.04 557.86 54.07 557.84 55.03 C 557.46 66.73 557.25 78.46 558.15 90.14 C 561.66 91.51 565.15 92.93 568.65 94.36 C 560.05 95.63 551.32 95.61 542.66 95.26 C 545.64 92.07 551.12 90.04 551.27 85.03 C 551.37 71.37 551.64 57.69 551.06 44.04 C 549.34 40.29 545.81 37.82 543.01 34.92 C 539.66 37.50 536.13 39.81 532.60 42.12 C 532.41 54.41 533.18 66.72 532.25 78.98 C 531.94 84.14 529.27 89.05 525.13 92.13 C 518.34 97.20 509.20 98.36 501.08 96.48 C 495.20 95.10 489.46 91.64 486.67 86.12 C 484.75 82.52 484.69 78.34 484.52 74.37 C 484.16 63.22 484.77 52.05 484.08 40.91 C 480.74 39.09 477.38 37.30 474.10 35.37 C 484.19 34.75 494.31 34.78 504.41 34.90 C 501.55 37.76 497.25 39.43 495.25 42.97 C 494.78 55.45 494.02 68.05 495.83 80.47 C 496.44 85.77 500.95 90.05 506.17 90.76 C 514.14 92.36 524.32 87.83 525.62 79.14 C 526.86 66.54 526.97 53.79 525.69 41.18 C 522.92 39.01 520.07 36.96 517.33 34.77 Z" />
<path fill="#040405" opacity="1.00" d=" M 717.15 38.17 C 720.37 35.33 724.50 33.15 728.92 33.48 C 736.00 33.87 743.09 37.06 750.17 34.77 C 750.17 42.35 749.87 49.93 749.42 57.49 C 744.44 51.63 742.55 42.41 734.47 39.71 C 728.56 37.12 720.28 42.36 721.63 49.05 C 725.25 54.97 732.09 57.76 737.89 61.09 C 743.37 64.20 749.57 67.42 752.37 73.40 C 755.88 81.32 752.11 91.77 743.90 94.98 C 733.96 100.07 722.78 92.01 712.70 96.56 C 713.02 88.58 712.53 80.42 714.31 72.59 C 718.65 78.80 719.94 88.20 727.87 91.09 C 732.80 93.43 739.03 91.30 741.78 86.67 C 743.41 84.20 743.21 80.72 741.22 78.51 C 734.31 70.06 722.75 67.57 715.49 59.54 C 710.37 53.44 711.41 43.51 717.15 38.17 Z" />
<path fill="#040405" opacity="1.00" d=" M 773.67 34.70 C 782.72 30.79 792.16 37.89 801.36 34.79 C 801.24 42.49 801.50 50.22 800.69 57.90 C 796.03 51.60 793.89 42.19 785.48 39.73 C 779.43 36.94 770.70 43.36 773.31 49.97 C 779.26 57.44 788.99 60.05 796.50 65.55 C 799.70 67.97 803.09 70.79 804.20 74.82 C 805.88 80.93 804.50 88.20 799.54 92.44 C 795.48 95.66 790.18 97.29 785.01 96.66 C 778.07 95.99 770.83 93.71 764.04 96.46 C 764.31 88.40 763.99 80.26 765.48 72.29 C 769.69 78.46 770.92 87.45 778.48 90.68 C 784.45 94.48 793.46 90.01 794.21 83.03 C 794.42 79.40 791.38 76.93 788.90 74.81 C 781.56 68.86 771.71 66.08 765.93 58.25 C 760.30 50.27 764.71 38.06 773.67 34.70 Z" />
<path fill="#040405" opacity="1.00" d=" M 826.57 33.47 C 830.05 33.59 833.53 33.72 837.02 33.82 C 836.50 36.78 835.90 39.72 835.34 42.67 C 838.87 41.67 842.41 40.67 845.99 39.83 C 846.57 42.90 847.24 45.95 847.78 49.03 C 844.62 49.28 841.46 49.41 838.32 49.84 C 838.25 49.98 838.09 50.25 838.02 50.39 C 840.29 52.80 842.81 54.97 845.09 57.39 C 842.55 59.55 840.06 61.76 837.56 63.96 C 835.76 61.34 834.07 58.65 832.32 56.02 C 830.57 58.71 828.80 61.39 827.05 64.07 C 824.42 62.41 821.80 60.74 819.18 59.09 C 821.55 55.92 823.96 52.78 826.30 49.57 C 822.87 49.31 819.44 49.19 816.03 48.92 C 816.49 45.80 817.14 42.72 817.78 39.63 C 821.40 40.67 825.02 41.68 828.65 42.73 C 827.94 39.65 827.26 36.56 826.57 33.47 Z" />
<path fill="#040405" opacity="1.00" d=" M 255.32 34.83 C 269.21 36.17 283.56 32.46 297.08 37.07 C 301.30 38.28 305.18 41.20 306.63 45.46 C 309.06 52.15 306.42 59.50 302.14 64.81 C 305.98 68.08 311.26 71.32 311.32 76.98 C 312.50 85.49 305.43 93.56 297.13 94.54 C 283.09 96.19 268.94 95.35 254.86 94.99 C 257.78 91.87 263.62 90.96 264.17 86.07 C 264.34 72.03 264.34 57.98 264.20 43.94 C 263.38 39.37 258.37 37.70 255.32 34.83 M 274.99 39.31 C 274.76 47.02 274.65 54.75 275.21 62.44 C 282.06 61.61 291.11 63.11 295.54 56.49 C 299.19 51.50 296.20 44.29 290.89 41.93 C 285.92 39.67 280.31 39.77 274.99 39.31 M 275.15 66.28 C 274.58 74.23 274.80 82.21 274.80 90.18 C 281.77 90.83 289.70 91.14 295.57 86.68 C 300.65 82.85 300.11 74.49 295.10 70.84 C 289.40 66.62 281.90 66.84 275.15 66.28 Z" />
<path fill="#040405" opacity="1.00" d=" M 408.83 35.38 C 420.58 35.27 432.36 33.93 444.08 35.28 C 450.53 35.97 457.46 36.98 462.45 41.54 C 474.29 52.03 475.57 71.76 466.33 84.32 C 462.72 89.26 457.12 92.45 451.17 93.65 C 437.09 96.93 422.52 95.41 408.25 94.47 C 411.67 92.76 415.13 91.14 418.59 89.52 C 419.03 73.28 419.06 57.02 418.45 40.78 C 415.21 39.03 411.91 37.40 408.83 35.38 M 429.55 40.30 C 429.25 56.95 429.18 73.62 429.56 90.27 C 436.42 90.31 443.95 91.07 449.96 87.07 C 463.82 77.81 464.87 54.70 451.54 44.51 C 445.53 39.14 436.97 40.19 429.55 40.30 Z" />
<path fill="#040405" opacity="1.00" d=" M 653.17 51.91 C 653.17 46.23 653.65 40.57 653.82 34.90 C 670.63 34.79 687.45 35.01 704.26 34.80 C 704.58 40.78 704.94 46.78 704.53 52.76 C 701.50 49.09 698.86 45.11 696.08 41.25 C 692.24 40.82 688.39 40.56 684.54 40.21 C 684.52 55.97 684.28 71.72 684.52 87.47 C 687.20 90.50 690.71 92.57 693.84 95.10 C 684.15 95.50 674.44 95.64 664.75 95.00 C 667.60 92.47 670.92 90.59 673.98 88.35 C 673.58 72.13 674.06 55.91 673.59 39.70 C 664.80 38.56 657.12 44.53 653.17 51.91 Z" />
<path fill="#040405" opacity="1.00" d=" M 865.70 323.19 C 868.65 320.41 871.61 317.63 874.69 315.00 C 876.62 316.68 878.57 318.33 880.55 319.96 C 879.85 323.32 878.92 326.65 878.59 330.07 C 878.59 333.37 879.37 336.61 879.58 339.90 C 881.50 361.57 878.72 383.67 883.96 405.00 C 905.70 401.40 927.84 395.91 949.94 399.51 C 954.89 402.63 958.51 407.77 964.16 409.87 C 968.11 411.32 972.10 412.90 975.35 415.67 C 984.95 423.48 990.38 435.16 1000.00 442.97 L 1000.00 478.57 C 996.26 488.45 993.23 499.73 984.24 506.25 C 969.29 516.64 950.73 519.31 933.04 521.10 C 919.11 521.96 905.73 526.27 892.36 529.99 C 885.65 561.96 888.95 594.88 892.96 626.98 C 894.42 639.31 896.29 651.62 897.30 664.00 C 896.57 682.32 903.62 700.68 898.68 718.83 C 909.13 723.48 920.51 725.85 930.59 731.37 C 936.96 734.74 941.84 740.19 946.66 745.42 C 948.89 747.69 949.11 750.98 948.95 753.99 C 949.00 762.81 943.61 770.49 943.18 779.24 C 942.11 798.07 944.46 817.00 942.28 835.80 C 940.64 844.77 939.90 853.88 939.74 863.00 L 927.02 863.00 C 928.71 852.33 928.56 841.45 930.69 830.84 C 932.59 814.94 931.12 798.90 931.63 782.94 C 925.97 792.69 914.16 795.05 905.98 801.88 C 899.36 807.10 891.70 810.98 883.57 813.19 C 879.13 814.37 874.49 814.28 869.96 814.76 C 855.03 816.25 839.98 819.08 824.97 816.93 C 815.41 815.24 805.72 814.46 796.10 813.21 C 785.31 811.91 774.44 811.11 763.57 811.67 C 763.48 828.78 763.68 845.89 763.57 863.00 L 749.31 863.00 C 754.43 845.48 751.14 827.14 752.16 809.25 C 740.65 809.82 728.58 808.66 718.54 802.55 C 716.69 816.69 717.08 831.47 711.22 844.77 C 708.61 842.90 705.98 841.06 703.36 839.22 C 703.02 826.71 704.87 814.30 707.02 802.02 C 697.16 798.13 688.65 791.73 679.82 786.03 C 675.81 783.38 671.42 781.32 667.60 778.39 C 661.12 773.50 655.42 767.71 649.42 762.28 C 654.60 775.69 651.99 790.23 649.86 803.96 C 650.05 822.53 647.45 841.49 652.34 859.69 C 650.85 860.78 649.37 861.88 647.91 863.00 L 646.44 863.00 C 643.63 861.78 640.92 860.39 638.17 859.08 C 638.87 835.70 636.40 812.21 639.48 788.92 C 639.79 785.31 641.17 781.69 640.23 778.08 C 637.79 766.79 636.23 754.71 628.97 745.29 C 633.36 741.93 637.88 738.64 641.43 734.35 C 647.12 727.54 655.58 724.06 661.89 717.95 C 667.26 712.80 672.97 707.79 679.80 704.66 C 684.56 702.42 689.86 701.94 694.85 700.41 C 706.71 697.07 718.48 692.21 731.01 692.50 C 736.09 692.42 740.90 694.36 745.95 694.62 C 762.36 695.89 779.03 693.08 795.25 696.84 C 818.96 701.12 842.94 703.64 866.82 706.77 C 873.63 707.87 880.07 710.48 886.56 712.75 C 888.18 707.28 889.59 701.45 888.16 695.79 C 884.87 683.43 886.85 670.47 884.77 657.95 C 883.52 651.43 883.08 644.79 882.19 638.22 C 879.56 617.21 876.55 596.10 877.45 574.87 C 878.05 560.15 875.61 545.14 879.42 530.68 C 869.14 533.12 858.50 533.01 848.00 532.74 C 834.34 532.25 820.67 532.68 807.01 532.74 C 797.01 532.74 786.44 531.75 777.83 526.19 C 772.63 523.06 769.58 517.61 766.13 512.82 C 761.40 506.10 758.93 498.07 757.75 490.01 C 757.11 479.98 762.24 470.96 766.14 462.09 C 767.77 458.06 771.09 455.10 774.33 452.35 C 782.60 445.43 792.57 441.09 802.17 436.36 C 807.38 433.84 812.37 430.86 817.67 428.51 C 835.33 420.48 854.36 416.21 872.39 409.15 C 866.17 385.47 871.34 360.66 866.79 336.76 C 866.08 332.27 865.86 327.72 865.70 323.19 M 882.24 419.21 C 899.74 429.22 910.04 447.18 924.01 461.05 C 922.24 463.35 920.46 465.63 918.70 467.93 C 915.10 466.82 911.32 465.98 908.17 463.84 C 906.12 462.52 905.13 460.22 903.95 458.21 C 900.01 451.13 894.13 445.39 887.91 440.31 C 884.65 440.46 881.41 440.20 878.17 439.98 C 869.51 451.55 864.42 466.74 851.11 474.10 C 848.72 471.33 846.15 468.49 845.41 464.79 C 855.81 451.88 865.39 438.24 873.20 423.60 C 852.01 428.69 831.04 435.42 811.78 445.75 C 800.53 451.63 788.40 456.40 778.81 464.93 C 775.05 471.94 773.30 479.93 769.30 486.87 C 771.58 496.83 775.79 506.65 783.12 513.97 C 784.85 515.60 786.58 517.52 789.01 518.07 C 801.97 521.72 815.58 521.46 828.92 521.22 C 841.65 520.95 854.41 522.06 867.10 520.56 C 883.61 518.95 899.85 515.29 915.84 510.93 C 918.80 510.09 921.92 510.24 924.97 509.92 C 942.59 508.63 960.26 504.97 976.26 497.28 C 978.70 496.37 979.29 493.55 980.54 491.54 C 986.99 479.17 993.18 465.64 991.59 451.31 C 984.43 444.81 977.55 437.90 972.08 429.89 C 970.30 427.03 967.48 425.07 964.57 423.51 C 951.26 416.60 934.79 419.80 922.09 411.31 C 908.70 413.25 895.04 414.55 882.24 419.21 M 689.98 714.62 C 687.63 715.26 685.19 715.77 683.13 717.11 C 676.44 721.21 669.83 725.66 664.59 731.56 C 661.60 735.00 657.20 736.75 654.10 740.08 C 652.54 742.02 650.62 745.13 652.74 747.36 C 657.42 753.58 663.49 758.51 668.84 764.11 C 675.05 770.85 684.82 772.24 691.49 778.35 C 695.72 782.22 700.84 784.87 705.99 787.30 C 704.62 784.02 703.47 780.45 704.31 776.88 C 704.86 774.02 707.08 771.96 709.10 770.05 C 711.83 772.91 714.92 775.53 717.11 778.87 C 718.38 782.36 717.00 787.20 720.23 789.75 C 727.53 793.00 734.85 797.17 743.02 797.49 C 747.86 797.73 752.13 794.85 755.00 791.16 C 760.02 795.12 765.15 800.28 771.99 800.29 C 779.09 800.73 786.20 799.94 793.30 800.48 C 797.22 800.74 800.96 802.14 804.86 802.61 C 812.84 803.73 821.13 802.57 828.89 805.17 C 838.47 808.18 848.32 804.85 857.89 803.59 C 862.94 802.79 868.08 803.60 873.12 802.75 C 881.75 801.53 889.83 797.76 896.99 792.89 C 900.98 790.25 904.33 786.66 908.77 784.72 C 915.71 781.23 923.94 778.10 927.48 770.61 C 929.84 764.16 932.49 757.60 937.40 752.63 C 927.74 742.27 914.02 736.98 900.48 733.93 C 900.31 739.63 900.30 745.33 900.30 751.03 C 898.12 752.72 895.94 754.41 893.80 756.13 C 887.89 751.16 889.00 742.82 888.42 735.95 C 888.12 731.36 886.22 726.23 881.78 724.22 C 872.75 721.05 863.61 717.55 853.91 717.43 C 830.06 714.12 806.06 711.68 782.44 706.88 C 764.72 704.90 746.68 708.41 729.12 704.48 C 715.86 706.94 702.99 711.14 689.98 714.62 Z" />
<path fill="#040405" opacity="1.00" d=" M 620.40 368.52 C 624.50 372.29 628.51 376.15 632.62 379.91 C 632.38 384.79 633.26 389.95 631.63 394.63 C 627.89 399.60 622.67 403.98 621.66 410.48 C 619.46 424.25 612.55 436.56 605.55 448.40 C 600.47 459.78 594.81 471.02 591.56 483.11 C 589.69 489.60 589.79 496.45 588.02 502.96 C 586.13 511.48 582.71 519.60 581.17 528.21 C 578.89 539.92 577.05 551.76 573.32 563.13 C 572.82 564.88 572.06 567.03 573.40 568.62 C 577.34 573.58 582.28 577.64 586.84 582.01 C 586.86 588.69 587.55 595.40 586.88 602.08 C 586.82 603.84 585.50 605.15 584.51 606.49 C 582.08 609.39 579.56 612.22 577.17 615.17 C 571.18 615.44 564.93 614.50 559.13 616.15 C 546.86 624.95 535.18 635.15 520.88 640.57 C 513.07 642.81 505.81 646.61 497.96 648.70 C 493.40 650.00 488.57 649.50 483.97 650.58 C 467.50 653.93 450.64 651.55 433.99 652.39 C 415.07 652.75 397.74 644.15 379.96 638.93 C 357.70 631.39 345.33 608.81 323.99 599.65 C 323.55 606.48 328.36 611.57 332.26 616.52 C 334.13 622.11 334.75 628.14 337.41 633.48 C 338.56 636.19 340.74 638.48 341.22 641.46 C 342.91 653.30 344.22 665.20 346.00 677.03 C 349.79 691.71 355.62 706.49 353.38 721.94 C 364.34 729.68 375.77 736.74 387.16 743.83 C 403.96 751.91 421.25 758.97 438.10 766.98 C 439.94 767.82 441.82 768.80 443.92 768.75 C 454.59 769.09 465.28 769.36 475.96 768.87 C 479.47 768.69 483.12 769.00 486.46 767.65 C 497.89 763.55 510.38 761.58 520.46 754.38 C 521.87 753.23 523.64 752.26 524.50 750.61 C 525.23 744.27 522.99 737.93 519.36 732.80 C 516.99 729.72 518.51 725.36 520.51 722.49 C 525.15 716.07 533.16 713.98 540.07 710.97 C 547.61 707.87 556.16 708.43 563.72 711.18 C 568.64 705.83 574.93 701.15 577.14 693.92 C 581.70 678.89 591.22 666.16 598.49 652.41 C 601.26 647.56 604.46 642.95 606.95 637.93 C 614.62 623.43 619.42 607.64 626.55 592.90 C 631.05 582.32 632.21 570.75 635.83 559.89 C 632.36 558.10 628.91 556.27 625.53 554.34 C 628.00 545.04 633.77 537.12 639.28 529.42 C 647.53 528.43 655.81 531.75 662.01 537.10 C 662.80 537.86 663.99 538.64 663.81 539.94 C 663.95 548.73 663.79 557.52 663.77 566.31 C 658.78 568.27 653.39 568.83 648.34 570.60 C 647.36 571.05 646.05 571.33 645.59 572.44 C 641.99 579.94 642.72 588.75 638.97 596.21 C 630.91 613.04 625.55 631.09 616.43 647.42 C 614.19 651.52 611.42 655.30 609.26 659.44 C 603.10 670.93 595.45 681.67 590.64 693.85 C 589.02 697.77 588.24 702.11 585.73 705.62 C 583.12 709.28 579.69 712.23 576.44 715.29 C 580.12 727.92 577.91 741.11 578.34 754.02 C 578.61 757.60 577.47 761.19 575.21 763.98 C 571.36 768.76 566.19 772.37 562.90 777.63 C 554.36 777.08 545.32 779.37 537.21 775.79 C 532.77 774.15 531.51 769.13 528.77 765.74 C 524.86 766.83 521.31 768.89 517.55 770.38 C 503.81 776.27 489.20 781.70 473.99 780.61 C 461.33 779.76 448.53 781.55 435.93 779.97 C 412.05 768.56 386.63 759.91 364.59 744.95 C 364.76 750.00 363.73 756.23 368.26 759.80 C 375.12 766.20 376.64 776.17 382.99 782.95 C 386.65 786.68 389.47 791.13 392.99 794.98 C 396.42 798.81 401.51 800.40 405.40 803.66 C 411.71 808.66 417.38 814.82 425.13 817.65 C 436.11 822.01 442.86 832.18 451.23 839.89 C 455.54 840.54 459.95 840.10 464.30 840.25 C 466.64 849.38 472.99 856.67 479.68 863.00 L 462.22 863.00 C 459.29 859.79 457.41 855.66 453.95 852.95 C 451.17 851.21 447.79 850.80 444.96 849.15 C 438.04 845.27 433.51 838.49 427.36 833.65 C 422.96 830.09 417.21 828.81 412.81 825.24 C 404.25 818.85 396.81 809.73 385.62 808.11 C 382.12 802.53 379.12 796.39 373.91 792.16 C 367.79 787.63 366.56 779.57 362.56 773.49 C 360.58 769.93 357.33 767.37 353.79 765.50 C 353.26 759.54 351.96 753.64 349.58 748.14 C 347.50 742.86 344.17 738.21 341.94 733.00 C 337.97 724.42 329.73 719.19 323.09 712.88 C 302.49 689.96 282.25 666.59 264.95 641.04 C 261.60 636.85 260.29 630.28 263.75 625.79 C 265.15 623.84 267.68 623.72 269.84 623.40 C 277.38 637.30 286.32 650.44 296.55 662.49 C 311.19 680.02 324.81 698.71 342.53 713.35 C 340.07 699.39 333.71 686.28 332.89 672.00 C 331.88 664.32 330.71 656.65 330.04 648.92 C 330.06 645.12 327.11 642.45 325.78 639.13 C 323.08 632.85 322.65 625.75 319.17 619.80 C 317.82 617.35 315.49 615.72 313.74 613.62 C 312.50 593.22 308.41 573.16 305.66 552.94 C 305.17 548.37 304.01 543.71 305.10 539.14 C 306.37 532.64 310.40 526.83 310.43 520.07 C 310.72 512.45 310.47 504.82 310.56 497.20 C 314.92 497.51 319.26 498.35 323.07 500.60 L 321.75 500.09 C 322.09 513.06 322.36 526.04 322.10 539.01 C 322.05 542.50 319.46 545.11 317.53 547.75 C 319.16 556.14 319.37 564.75 321.26 573.11 C 322.08 575.76 320.23 578.19 319.86 580.77 C 337.96 590.39 352.07 605.56 368.36 617.71 C 373.15 621.08 377.87 624.84 383.54 626.62 C 397.26 631.26 410.91 636.19 424.99 639.66 C 428.89 640.71 432.96 640.56 436.97 640.76 C 446.66 640.95 456.36 640.88 466.05 640.66 C 471.78 640.66 477.26 638.74 482.94 638.27 C 486.89 637.61 491.03 638.03 494.84 636.64 C 513.02 630.23 531.12 622.74 546.65 611.12 C 543.80 606.14 540.06 600.96 540.89 594.88 C 541.36 587.73 548.58 584.29 553.08 579.74 C 551.74 576.41 550.33 573.12 548.92 569.83 C 552.75 568.30 556.64 566.94 560.60 565.75 C 565.68 542.98 569.76 519.96 576.28 497.53 C 577.82 491.76 577.74 485.68 579.38 479.92 C 585.55 454.59 601.43 433.22 610.10 408.84 C 606.99 407.27 603.90 405.67 600.82 404.06 C 600.90 400.65 601.10 397.24 601.15 393.83 C 605.36 389.83 609.76 385.96 614.82 383.05 C 614.86 377.69 616.43 372.31 620.40 368.52 M 640.28 549.01 C 644.49 549.84 648.65 550.95 652.76 552.20 C 652.61 549.47 652.44 546.76 652.29 544.05 C 649.84 544.08 647.39 543.99 644.95 544.18 C 643.09 545.44 641.81 547.39 640.28 549.01 M 552.99 596.02 C 554.21 598.60 555.40 601.19 556.52 603.82 C 560.70 603.87 564.89 603.93 569.07 603.68 C 572.72 604.00 575.12 600.33 575.75 597.17 C 576.88 590.72 573.25 584.62 568.63 580.44 C 563.49 585.71 558.45 591.08 552.99 596.02 M 540.75 723.83 C 542.91 726.52 545.82 728.74 547.20 731.98 C 547.81 733.75 546.61 735.24 545.67 736.60 C 540.95 742.66 541.75 751.58 535.65 756.80 C 540.92 763.23 548.93 768.24 557.55 766.55 C 561.45 761.28 566.99 756.11 566.87 749.05 C 566.97 740.71 566.89 732.36 566.86 724.02 C 558.27 722.71 548.94 719.07 540.75 723.83 M 531.27 727.47 C 530.16 728.64 530.30 730.35 530.08 731.84 C 531.56 731.56 533.26 731.61 534.46 730.53 C 535.06 729.25 535.32 727.87 535.58 726.51 C 534.11 726.56 532.49 726.46 531.27 727.47 Z" />
<path fill="#040405" opacity="1.00" d=" M 209.25 471.00 C 213.22 472.22 217.09 473.83 220.46 476.30 C 212.99 487.57 202.90 497.31 198.09 510.18 C 196.03 515.38 195.91 521.05 196.21 526.57 C 199.54 526.73 202.88 526.85 206.22 526.97 C 202.43 531.28 198.26 535.21 194.14 539.20 C 194.67 548.42 192.39 557.42 190.76 566.42 C 189.42 572.92 190.56 579.53 190.88 586.07 C 191.52 593.76 191.25 601.56 189.62 609.12 C 185.61 626.84 188.88 645.06 187.66 662.99 C 186.15 678.17 190.32 693.07 191.35 708.12 C 191.63 712.64 196.70 715.28 196.61 719.89 C 196.40 730.57 196.34 741.58 200.22 751.71 C 203.92 761.62 200.96 772.45 203.63 782.55 C 205.60 790.26 205.06 798.27 205.62 806.14 C 205.89 810.12 207.05 813.96 207.57 817.91 C 209.48 833.14 215.03 847.60 217.39 862.75 C 214.85 862.81 212.32 862.92 209.78 863.00 L 205.52 863.00 C 198.91 841.26 193.63 818.85 193.34 796.03 C 192.70 788.67 189.87 781.52 190.78 774.04 C 191.79 763.37 186.78 753.52 185.30 743.17 C 183.96 736.39 186.63 729.35 184.19 722.71 C 183.27 719.36 180.13 717.02 179.87 713.45 C 177.98 699.67 177.20 685.72 174.39 672.06 C 172.66 665.60 176.26 659.39 176.46 652.96 C 176.93 647.80 174.56 643.04 173.81 638.05 C 173.36 635.28 174.42 632.63 175.03 629.99 C 177.28 621.65 175.58 612.83 177.81 604.49 C 179.97 596.52 180.09 588.10 178.85 579.97 C 178.25 575.69 176.70 571.39 177.75 567.05 C 179.45 557.53 184.14 547.66 180.26 538.03 C 184.04 528.21 185.77 517.72 185.57 507.22 C 189.72 493.09 200.62 482.50 209.25 471.00 Z" />
<path fill="#040405" opacity="1.00" d=" M 897.76 820.99 C 897.70 817.29 901.24 815.17 903.26 812.52 C 905.66 814.82 907.94 817.49 908.60 820.86 C 909.97 827.20 908.93 833.77 908.05 840.11 C 905.97 847.55 905.65 855.31 905.82 863.00 L 894.37 863.00 C 893.30 848.87 896.80 835.01 897.76 820.99 Z" />
</g>
<g id="#000000ff">
<path fill="#000000" opacity="1.00" d=" M 130.83 152.62 C 134.17 151.96 137.59 152.21 140.97 152.18 C 178.65 152.20 216.33 152.18 254.01 152.19 C 256.34 152.19 258.67 152.36 260.97 152.70 C 269.58 154.17 278.35 153.15 287.00 154.12 C 318.30 157.04 349.76 159.36 380.59 165.75 C 398.22 169.50 415.81 174.66 431.50 183.74 C 440.56 189.07 448.96 195.79 455.25 204.27 C 453.52 212.49 454.34 221.65 459.38 228.60 C 466.73 239.07 479.51 243.68 487.65 253.37 C 489.58 255.65 490.96 258.32 492.63 260.79 C 492.81 273.19 492.62 285.60 492.73 298.01 C 492.66 299.41 492.83 300.88 492.38 302.24 C 486.31 315.24 474.74 324.93 469.78 338.53 C 466.43 348.31 466.45 358.80 466.65 369.01 C 467.74 393.87 474.06 418.15 475.31 442.99 C 475.75 454.13 474.64 466.37 467.01 475.17 C 456.10 488.01 440.02 494.57 424.89 501.03 C 423.01 501.83 421.18 503.02 419.05 502.88 C 389.69 502.87 360.32 502.88 330.96 502.87 C 328.15 502.92 325.64 501.51 323.07 500.60 C 319.26 498.35 314.92 497.51 310.56 497.20 C 294.79 494.00 278.84 491.82 262.98 489.15 C 248.38 486.60 233.60 483.40 220.46 476.30 C 217.09 473.83 213.22 472.22 209.25 471.00 C 204.90 469.28 200.77 467.07 196.46 465.26 C 182.62 459.12 167.95 455.27 153.58 450.62 C 137.85 445.55 122.87 438.44 108.27 430.75 C 94.81 423.49 81.68 415.55 69.40 406.42 C 63.82 402.13 58.08 397.93 53.51 392.53 C 44.92 382.48 41.05 369.40 32.73 359.16 C 22.97 347.06 9.75 338.31 0.00 326.20 L 0.00 303.57 C 2.19 314.37 9.34 323.70 18.39 329.76 C 24.78 334.12 32.04 337.04 39.49 339.04 C 39.12 339.71 38.37 341.04 38.00 341.71 C 35.04 340.19 32.11 338.23 28.64 338.33 C 30.63 341.01 32.90 343.46 35.07 345.99 C 46.33 359.20 55.29 374.18 66.74 387.23 C 76.81 398.96 89.15 408.60 102.54 416.25 C 130.19 432.23 160.84 441.78 190.22 453.92 C 207.09 460.51 222.84 469.76 240.09 475.41 C 246.57 477.90 253.38 474.73 260.02 475.90 C 277.61 478.31 294.67 483.39 311.90 487.55 C 334.52 493.14 357.66 497.33 381.03 497.24 C 399.49 497.09 418.47 494.78 435.05 486.15 C 445.33 480.95 454.51 473.37 461.00 463.80 C 462.16 462.07 463.40 460.19 463.23 458.02 C 463.48 432.80 458.53 407.96 456.47 382.91 C 454.95 365.27 455.32 347.00 461.28 330.14 C 466.52 317.40 477.06 307.58 481.60 294.47 C 485.60 283.75 484.92 271.39 479.95 261.12 C 471.72 247.59 454.01 243.81 445.83 230.22 C 441.87 223.68 442.48 215.61 444.71 208.59 C 425.29 190.28 400.57 176.90 373.91 173.40 C 366.06 172.24 358.10 172.45 350.20 172.73 C 338.24 165.09 323.44 166.73 309.93 166.20 C 259.70 162.87 209.35 159.59 158.99 161.33 C 146.30 161.69 133.59 162.16 120.98 163.67 C 111.81 164.95 102.46 166.70 94.30 171.28 C 85.12 176.55 78.01 184.72 72.23 193.46 C 61.68 209.39 54.40 228.10 39.14 240.38 C 41.64 241.68 44.36 242.43 47.12 242.96 C 25.07 246.54 4.58 263.21 0.00 285.60 L 0.00 260.80 C 3.97 256.87 8.35 253.39 12.49 249.65 C 21.39 241.72 32.98 237.02 40.51 227.54 C 48.03 217.74 49.42 204.72 56.93 194.90 C 69.67 176.04 88.66 160.84 111.08 155.58 C 117.52 153.64 124.33 154.14 130.83 152.62 Z" />
<path fill="#000000" opacity="1.00" d=" M 188.88 167.88 C 211.68 163.35 235.11 165.25 258.05 167.59 C 285.03 170.52 312.08 174.55 339.28 173.37 C 322.68 175.61 305.80 175.65 289.14 173.88 C 267.40 172.00 245.81 168.31 223.97 167.61 C 199.90 166.73 175.87 172.17 153.84 181.71 C 134.22 190.10 116.38 201.93 98.02 212.67 C 105.68 203.73 115.99 197.60 126.20 191.99 C 146.06 181.61 166.85 172.49 188.88 167.88 Z" />
<path fill="#000000" opacity="1.00" d=" M 192.10 181.81 C 208.88 178.77 226.00 177.94 243.01 178.91 C 272.35 181.12 301.41 187.60 330.97 186.45 C 345.46 186.47 359.59 182.73 373.99 181.71 C 378.71 181.56 383.84 181.39 388.04 183.91 C 390.48 185.39 391.80 188.07 392.10 190.85 C 387.91 187.77 383.62 183.14 377.89 184.30 C 352.69 190.30 326.49 189.45 300.86 187.44 C 275.54 185.43 250.38 180.67 224.90 181.34 C 192.89 181.83 160.59 190.06 133.51 207.46 C 128.56 210.40 124.94 215.09 120.01 218.07 C 117.06 219.83 113.57 220.21 110.21 220.24 C 132.82 199.53 162.18 187.27 192.10 181.81 Z" />
<path fill="#000000" opacity="1.00" d=" M 164.95 199.38 C 188.19 192.56 212.88 191.50 236.85 194.12 C 240.23 194.46 243.66 194.50 246.96 195.37 C 248.05 195.66 248.25 196.99 248.89 197.77 C 244.67 198.02 241.16 195.06 236.99 195.06 C 230.66 194.68 224.30 194.66 217.96 194.97 C 194.52 195.79 170.59 199.03 149.21 209.19 C 140.84 213.22 133.06 218.63 126.98 225.71 C 134.93 211.74 150.15 204.02 164.95 199.38 Z" />
<path fill="#000000" opacity="1.00" d=" M 235.13 198.88 C 236.46 198.35 237.80 197.84 239.14 197.34 C 242.22 201.62 246.37 204.95 249.76 208.94 C 249.92 214.15 249.79 219.38 249.77 224.60 C 248.76 223.87 247.17 223.44 247.22 221.92 C 246.67 218.01 248.62 213.94 247.14 210.17 C 243.82 205.70 238.15 203.65 235.13 198.88 Z" />
<path fill="#000000" opacity="1.00" d=" M 310.77 206.34 C 316.66 201.31 324.63 199.89 332.04 198.68 C 354.07 195.77 378.15 197.71 396.86 210.75 C 396.34 214.86 398.94 218.27 400.16 221.97 C 401.07 224.03 398.88 225.48 397.64 226.74 C 396.85 221.33 395.18 215.79 391.23 211.82 C 383.99 204.20 373.14 201.75 363.07 200.65 C 345.50 199.31 327.68 201.42 310.77 206.34 Z" />
<path fill="#000000" opacity="1.00" d=" M 315.80 218.17 C 318.44 215.75 320.34 212.64 323.07 210.32 C 324.17 211.04 325.20 211.89 326.01 212.96 C 320.59 213.62 318.82 219.40 318.81 224.06 C 318.22 228.42 319.28 233.88 315.81 237.24 C 315.74 230.88 315.76 224.52 315.80 218.17 Z" />
<path fill="#000000" opacity="1.00" d=" M 146.24 231.16 C 158.73 224.61 173.03 222.18 187.03 222.09 C 204.50 221.69 222.36 224.32 238.19 231.99 C 246.60 236.06 254.46 242.35 257.91 251.29 C 255.41 259.97 245.32 261.34 239.43 266.86 C 217.23 256.30 192.70 250.21 168.03 251.19 C 158.10 250.91 148.88 255.88 138.96 255.46 C 135.31 255.40 132.05 253.60 129.09 251.65 C 130.86 242.43 138.28 235.46 146.24 231.16 M 200.04 244.63 C 209.51 243.24 218.34 247.48 226.50 251.67 C 231.40 254.12 237.23 255.80 242.52 253.52 C 243.29 248.26 239.24 244.24 234.99 241.97 C 225.55 236.80 214.90 234.60 204.86 230.93 C 201.00 234.45 201.90 240.14 200.04 244.63 M 142.23 244.43 C 142.22 244.75 142.21 245.38 142.21 245.69 C 147.78 246.45 153.08 244.03 158.24 242.30 C 157.01 241.18 155.86 239.52 154.01 239.56 C 149.60 239.42 145.76 242.12 142.23 244.43 Z" />
<path fill="#000000" opacity="1.00" d=" M 354.36 232.93 C 365.04 232.04 376.33 232.20 386.25 236.77 C 391.46 239.12 395.68 243.54 397.35 249.06 C 380.34 255.76 361.65 253.64 343.87 256.15 C 335.75 257.29 326.97 258.92 320.82 264.81 C 320.88 270.02 320.88 275.23 320.82 280.45 C 343.06 291.43 362.63 307.08 384.99 317.83 C 374.87 314.99 365.26 310.63 355.26 307.40 C 355.00 309.70 354.81 312.87 352.02 313.51 C 348.28 314.09 344.93 311.77 342.05 309.70 C 339.64 316.73 333.66 321.73 327.68 325.75 C 320.76 330.04 312.28 333.93 304.03 331.51 C 299.14 330.06 296.20 325.48 294.62 320.91 C 296.58 319.59 299.17 318.15 301.45 319.70 C 304.82 321.99 308.70 324.60 312.99 323.28 C 321.64 317.54 330.92 311.11 334.46 300.83 C 328.00 293.46 317.79 291.43 310.52 285.09 C 310.47 277.54 310.49 269.98 310.51 262.43 C 305.71 260.91 300.50 260.41 296.10 257.82 C 293.73 256.45 292.37 253.92 292.06 251.26 C 298.44 246.57 306.03 251.69 312.95 251.59 C 315.15 247.04 319.25 243.88 323.60 241.55 C 333.10 236.53 343.74 234.09 354.36 232.93 M 354.60 242.55 C 357.44 245.14 361.47 245.32 365.10 245.01 C 369.84 244.50 374.62 244.45 379.39 244.42 C 376.55 241.86 372.52 241.56 368.91 241.97 C 364.15 242.47 359.37 242.62 354.60 242.55 Z" />
<path fill="#000000" opacity="1.00" d=" M 99.87 244.87 C 105.42 246.34 110.83 244.02 116.12 242.63 C 118.70 241.85 121.54 242.38 123.40 244.39 C 117.94 244.96 111.78 245.10 107.60 249.21 C 111.25 249.77 115.76 248.14 118.63 251.20 C 113.72 251.31 108.63 251.64 103.87 250.13 C 101.49 249.44 100.27 247.15 99.87 244.87 Z" />
<path fill="#000000" opacity="1.00" d=" M 402.64 246.77 C 416.76 244.86 430.92 248.98 445.07 247.01 C 447.55 246.37 449.72 247.95 451.84 248.96 C 461.89 254.16 470.98 262.07 475.62 272.58 C 479.91 282.16 479.43 293.39 475.59 303.04 C 474.67 305.14 474.04 307.72 471.78 308.78 C 462.46 314.33 451.47 315.98 441.90 320.98 C 443.38 318.77 445.23 316.80 447.49 315.37 C 453.26 311.45 460.79 311.51 466.49 307.42 C 477.09 299.24 479.52 282.88 472.18 271.74 C 467.26 263.57 459.60 257.31 451.17 253.00 C 447.04 250.95 442.73 248.57 437.95 249.14 C 426.23 248.86 413.51 252.84 402.64 246.77 Z" />
<path fill="#000000" opacity="1.00" d=" M 27.40 253.35 C 31.48 249.82 36.69 247.80 42.01 247.20 C 46.33 246.42 50.66 247.53 54.99 247.25 C 63.68 247.11 72.85 245.08 81.15 248.54 C 68.41 249.32 55.58 248.58 42.82 248.98 C 38.81 252.08 33.74 252.55 28.93 253.46 C 18.45 265.57 13.65 282.08 14.17 297.94 C 14.24 306.06 16.82 314.52 22.49 320.50 C 29.19 327.51 41.34 323.66 47.16 331.94 C 36.93 330.45 27.01 326.45 18.49 320.65 C 15.82 315.47 14.77 309.63 13.92 303.92 C 12.89 292.44 13.12 280.90 13.32 269.38 C 18.25 264.24 21.96 258.00 27.40 253.35 Z" />
<path fill="#000000" opacity="1.00" d=" M 114.72 254.78 C 117.49 252.93 121.56 253.19 124.05 255.42 C 121.03 256.12 117.99 256.78 115.01 257.68 C 114.94 256.74 113.85 255.60 114.72 254.78 Z" />
<path fill="#000000" opacity="1.00" d=" M 28.49 294.92 C 27.32 276.46 41.82 258.79 59.87 255.52 C 67.12 254.08 74.62 254.31 81.87 255.60 C 100.40 258.77 117.31 267.85 135.81 271.15 C 144.91 272.62 154.91 272.86 163.15 268.08 C 170.95 263.82 177.30 256.08 186.79 255.69 C 187.29 264.65 180.18 271.60 172.91 275.61 C 162.14 281.88 149.17 282.58 137.03 281.48 C 123.11 279.97 110.67 273.17 97.83 268.14 C 87.81 264.05 76.66 263.60 66.04 264.99 C 56.69 266.28 47.14 271.08 42.80 279.85 C 39.43 286.75 37.58 295.46 41.42 302.55 C 43.12 305.94 45.54 309.08 46.15 312.93 C 46.61 315.66 45.56 318.29 44.83 320.87 C 36.05 315.08 29.13 305.67 28.49 294.92 Z" />
<path fill="#000000" opacity="1.00" d=" M 440.56 260.06 C 440.85 259.58 441.43 258.62 441.72 258.15 C 447.18 261.52 453.73 262.58 459.10 266.12 C 460.94 267.04 460.57 269.39 461.07 271.07 C 462.30 280.29 463.77 290.51 459.06 299.02 C 456.47 303.78 450.46 304.45 445.67 303.31 C 449.40 301.66 453.90 301.01 456.43 297.43 C 460.58 291.87 459.35 284.43 458.74 278.00 C 458.26 274.84 458.59 271.49 457.43 268.48 C 452.76 264.26 445.46 265.05 440.72 260.96 L 440.56 260.06 Z" />
<path fill="#000000" opacity="1.00" d=" M 413.83 267.74 C 422.96 266.08 432.91 265.55 441.48 269.70 C 445.85 271.75 448.94 275.92 449.91 280.62 C 437.28 280.16 424.86 274.41 412.16 277.20 C 406.38 278.36 402.67 283.81 402.33 289.47 C 392.25 289.10 381.61 290.61 372.06 286.62 C 367.78 284.92 365.60 280.36 365.62 275.94 C 367.63 275.11 369.76 273.93 372.01 274.64 C 377.00 276.05 380.96 279.97 386.20 280.72 C 393.43 273.13 403.80 269.75 413.83 267.74 Z" />
<path fill="#000000" opacity="1.00" d=" M 77.29 274.37 C 78.78 271.94 81.80 271.65 84.35 271.27 C 85.84 274.06 85.80 277.58 88.11 279.93 C 92.31 284.60 97.97 287.59 103.51 290.37 C 117.10 296.84 131.53 301.31 145.92 305.60 C 165.98 311.38 186.25 316.35 206.54 321.25 C 241.22 329.41 276.34 336.66 312.01 338.38 C 336.34 339.25 361.51 337.85 384.11 328.02 C 393.97 323.66 403.26 317.61 410.46 309.53 C 414.79 302.60 411.03 293.71 414.60 286.50 C 415.64 284.17 418.85 283.92 420.92 284.89 C 423.87 288.05 421.64 292.90 423.76 296.45 C 426.51 301.04 431.09 304.54 432.45 309.93 C 438.47 328.90 438.54 349.28 436.15 368.88 C 434.77 378.67 432.67 388.47 428.61 397.53 C 426.31 402.53 423.19 407.41 418.51 410.49 C 411.15 415.41 402.52 417.92 394.02 420.05 C 373.04 424.90 351.47 426.34 330.01 427.23 C 303.28 427.96 276.45 427.44 249.85 424.47 C 218.80 420.85 187.89 413.30 159.85 399.18 C 145.32 391.68 131.09 383.09 119.37 371.57 C 109.24 361.91 100.99 350.56 92.28 339.67 C 86.75 332.86 80.98 326.07 73.72 321.03 C 74.67 318.84 76.17 316.53 75.47 314.05 C 74.23 310.29 71.82 307.01 70.93 303.11 C 63.21 304.89 54.48 307.34 47.10 303.15 C 47.87 301.31 48.42 299.21 50.16 298.03 C 57.11 293.18 66.93 295.29 73.46 289.68 C 75.58 284.83 74.28 278.91 77.29 274.37 M 84.03 305.07 C 85.92 310.87 90.89 314.94 95.92 318.02 C 107.51 325.05 120.75 328.54 133.69 332.15 C 129.80 326.15 132.10 318.71 131.59 312.03 C 116.86 304.89 100.81 300.51 86.86 291.78 C 84.30 295.64 82.58 300.46 84.03 305.07 M 142.08 316.46 C 142.36 320.41 143.04 324.44 145.12 327.88 C 148.05 333.22 153.30 336.80 158.74 339.24 C 172.71 345.46 188.39 346.30 202.42 352.36 C 204.92 345.84 205.56 338.80 207.77 332.20 C 185.77 327.39 164.22 320.64 142.08 316.46 M 419.01 318.10 C 417.95 320.39 419.66 322.71 420.54 324.76 C 424.26 324.77 422.73 317.52 419.01 318.10 M 405.78 333.12 C 407.03 340.24 409.99 347.38 408.14 354.71 C 412.18 353.83 417.35 351.92 417.44 346.98 C 416.98 339.21 411.95 332.73 410.18 325.27 C 407.35 326.78 404.94 329.69 405.78 333.12 M 102.35 335.92 C 105.59 341.69 111.61 345.15 115.32 350.58 C 119.46 356.14 123.71 363.09 131.30 363.90 C 134.49 359.30 136.20 352.49 132.07 347.90 C 125.30 340.10 114.51 338.22 106.08 332.81 C 104.24 331.20 100.91 333.68 102.35 335.92 M 375.97 341.43 C 374.81 346.48 379.33 349.89 381.36 353.94 C 382.54 356.25 380.38 357.98 378.88 359.37 C 379.86 360.07 380.48 361.99 382.02 361.21 C 386.10 359.76 390.21 357.51 394.67 358.81 C 396.51 350.84 399.24 341.79 394.48 334.29 C 388.39 336.87 382.70 340.68 375.97 341.43 M 216.61 341.48 C 215.02 346.55 215.74 352.11 213.45 357.01 C 225.13 357.79 236.32 361.55 247.88 363.12 C 255.60 364.11 263.44 364.55 271.18 363.46 C 270.96 357.49 271.45 351.51 270.84 345.57 C 255.75 341.91 240.13 340.99 225.09 337.08 C 221.66 335.73 217.58 338.00 216.61 341.48 M 326.69 348.06 C 330.05 352.50 328.73 358.37 328.80 363.53 C 342.94 365.32 356.84 361.05 370.94 361.33 C 368.06 355.77 364.82 349.96 365.56 343.44 C 352.95 347.10 339.76 348.12 326.69 348.06 M 281.56 345.56 C 281.53 351.57 281.55 357.59 281.54 363.61 C 293.90 363.52 306.27 363.70 318.62 363.52 C 320.13 357.85 314.76 353.61 315.49 348.04 C 304.06 349.60 292.95 345.30 281.56 345.56 M 142.70 367.56 C 141.66 369.74 139.08 369.99 137.04 370.61 C 151.09 382.75 168.63 389.49 184.08 399.49 C 187.68 393.37 192.71 388.12 195.42 381.48 C 197.20 377.26 197.68 372.60 197.30 368.06 C 179.95 364.03 162.39 359.35 146.99 350.09 C 143.21 355.24 145.52 362.10 142.70 367.56 M 210.60 370.36 C 208.47 382.43 200.87 392.46 197.35 404.06 C 218.08 409.16 238.90 414.77 260.38 415.31 C 258.79 411.99 259.14 408.22 259.50 404.67 C 260.38 397.77 261.76 390.76 260.44 383.82 C 243.38 381.45 226.28 377.68 210.60 370.36 M 415.94 386.85 C 413.19 391.45 411.13 396.56 410.49 401.91 C 417.14 396.55 418.28 387.47 423.60 381.10 C 419.97 381.00 417.66 384.10 415.94 386.85 M 270.78 389.85 C 269.56 395.57 271.82 401.28 271.57 407.03 C 271.76 409.58 270.46 411.87 268.47 413.39 C 271.34 416.09 275.23 417.23 279.09 417.48 C 288.62 418.16 298.16 416.79 307.69 417.44 C 309.35 408.45 311.54 399.57 313.12 390.56 C 300.71 390.08 287.09 392.51 275.86 385.93 C 273.63 386.31 271.36 387.48 270.78 389.85 M 394.43 391.33 C 389.36 396.78 387.30 404.12 384.19 410.72 C 392.29 409.03 400.70 407.88 408.10 403.93 C 407.44 403.67 406.93 402.02 406.15 402.95 C 403.30 405.82 399.94 402.34 397.04 401.37 C 398.09 395.93 401.96 391.55 402.66 386.01 C 399.58 387.17 396.63 388.84 394.43 391.33 M 363.28 393.13 C 363.53 401.52 356.67 407.49 355.14 415.38 C 361.47 416.26 366.92 411.21 373.28 412.78 C 372.38 410.99 371.18 409.03 371.96 406.97 C 373.36 401.07 378.31 397.13 381.60 392.33 C 380.22 391.41 378.87 389.97 377.04 390.46 C 372.53 391.70 368.13 394.37 363.28 393.13 M 325.92 393.01 C 320.64 399.58 323.11 408.97 318.48 415.91 C 325.81 420.02 334.40 416.65 342.01 415.17 C 344.26 407.78 348.40 401.18 352.67 394.81 C 350.92 393.76 349.09 392.66 346.99 392.61 C 339.96 391.98 332.95 393.74 325.92 393.01 Z" />
<path fill="#000000" opacity="1.00" d=" M 211.53 289.97 C 212.88 289.79 214.23 289.63 215.58 289.48 C 215.60 292.50 215.59 295.52 215.62 298.54 C 201.19 303.60 185.41 297.59 170.91 302.54 C 172.60 300.32 175.09 298.77 177.88 298.45 C 187.20 297.31 196.58 299.49 205.91 298.49 C 208.95 298.23 211.81 296.75 213.48 294.16 C 212.81 292.77 212.16 291.37 211.53 289.97 Z" />
<path fill="#000000" opacity="1.00" d=" M 218.47 296.19 C 227.90 288.82 241.63 287.36 252.66 291.75 C 252.71 293.83 252.45 296.35 250.20 297.24 C 244.36 299.80 237.67 297.53 231.74 299.76 C 228.48 301.00 227.83 305.14 228.25 308.17 C 229.30 312.61 235.78 312.44 236.94 316.84 C 237.49 318.38 237.44 320.79 235.58 321.38 C 231.13 323.47 225.43 322.48 222.32 318.56 C 217.17 312.45 216.84 303.68 218.47 296.19 Z" />
<path fill="#000000" opacity="1.00" d=" M 242.21 307.46 C 252.17 304.85 262.85 303.85 272.93 306.42 C 276.91 307.35 280.74 309.95 281.68 314.17 C 269.75 319.42 255.50 310.07 244.50 318.50 C 242.21 315.32 241.31 311.28 242.21 307.46 Z" />
<path fill="#000000" opacity="1.00" d=" M 124.55 401.67 C 145.12 407.04 164.43 416.04 184.04 424.08 C 205.30 432.84 227.12 440.72 249.86 444.61 C 260.76 446.57 271.82 447.13 282.84 447.99 C 304.85 449.55 326.96 450.44 349.01 449.28 C 365.76 448.13 382.84 446.12 398.32 439.25 C 405.00 436.40 410.78 431.92 415.75 426.68 C 409.55 438.63 396.84 445.38 384.20 448.43 C 365.18 452.99 345.45 452.73 326.02 452.68 C 309.34 452.51 292.69 451.48 276.05 450.31 C 265.71 449.36 255.31 448.77 245.07 446.91 C 218.97 442.42 194.11 432.77 170.06 421.95 C 154.94 415.15 139.98 407.97 124.48 402.03 C 124.50 401.94 124.53 401.76 124.55 401.67 Z" />
<path fill="#000000" opacity="1.00" d=" M 97.87 402.06 C 143.47 423.94 191.75 440.13 241.16 450.83 C 265.51 456.06 290.21 459.58 315.03 461.51 C 341.61 463.53 368.51 464.91 394.98 460.95 C 409.54 458.47 425.09 454.53 435.61 443.45 C 439.63 439.96 432.89 432.15 439.35 430.44 C 439.48 435.03 439.53 439.63 439.41 444.23 C 437.66 446.83 435.01 448.70 432.59 450.65 C 420.08 459.93 404.28 463.08 389.07 464.48 C 363.73 466.44 338.27 464.93 312.96 463.28 C 265.17 459.29 217.74 450.26 172.06 435.58 C 150.39 428.46 129.04 420.07 109.07 408.98 C 105.26 406.79 101.39 404.69 97.87 402.06 Z" />
<path fill="#000000" opacity="1.00" d=" M 269.53 435.62 C 287.37 435.35 305.22 435.44 323.05 435.80 C 333.55 435.86 344.63 433.52 354.71 437.41 C 332.50 436.92 310.30 438.40 288.09 437.69 C 281.87 437.38 275.61 437.01 269.53 435.62 Z" />
</g>
</svg>
