<?xml version="1.0" encoding="utf-8"?>
<!-- Generator: Adobe Illustrator 15.0.2, SVG Export Plug-In . SVG Version: 6.00 Build 0)  -->
<!DOCTYPE svg PUBLIC "-//W3C//DTD SVG 1.1//EN" "http://www.w3.org/Graphics/SVG/1.1/DTD/svg11.dtd">
<svg version="1.1" id="Layer_1" xmlns="http://www.w3.org/2000/svg" xmlns:xlink="http://www.w3.org/1999/xlink" x="0px" y="0px"
	 width="377px" height="296px" viewBox="0 0 377 296" enable-background="new 0 0 377 296" xml:space="preserve">
<path fill="#FFFFFF" d="M0,0h124.43c-2.84,3.32-5.87,6.97-10.28,8.13c-3.25,0.91-6.22,2.49-9.3,3.83c-1.67-0.02-3.07-1.15-4.57-1.75
	c-5.33,3.43-11,6.31-16.2,9.97c-1.19-0.68-2.38-1.34-3.57-2.01c-5.02,4.23-11.6,5.73-17.07,9.25c-2.96,2.11-6.72,3.07-9.11,5.92
	c-2.44,2.57-5.05,4.98-7.51,7.53c-1.09,1.73-1.02,3.98-2.1,5.75c-3.61,2.86-6.99,6-10.75,8.66c0.18,1.77,1.03,3.76-0.32,5.3
	c-2.57,2.82-4.81,5.93-6.42,9.4c0.2,0.88,0.43,1.77,0.69,2.64c-3.52,3.03-6.17,6.88-8.51,10.85c-2.91,5.812-0.87,12.37-0.28,18.44
	c0.95,0.52,1.9,1.03,2.86,1.53c0.01,1.79,0.01,3.58,0.01,5.37c2.57,0.01,5.16,0.34,7.03,2.27c-3.45,3.98-4.09,9.37-5.76,14.18
	c-1.48,3.83-2.64,7.79-4.6,11.41c-1.68,3.14-2.31,6.74-4.25,9.76c-3.17,5.19-5.02,11.02-7.73,16.45c-2.56-0.12-5.11,0.22-6.69,2.47
	V0z"/>
<path d="M124.43,0h2.58c5.94,4.11,10.77,9.51,16.48,13.91c1.59-0.36,3.33-1.45,4.86-0.33c2.43,0.65,2.53,3.54,3.91,5.24
	c2.03,0.93,4.33,0.68,6.41,1.41c1.5,1.23,2.61,2.83,3.82,4.33c4.31,4.44,9.98,7.23,14.39,11.57c4.81,3.47,9.28,7.35,13.87,11.1
	c3.689,3.13,5.65,7.95,10.029,10.32c-0.1,5.08,4.25,8.58,5.41,13.33c0.701,3.59,4,6.3,3.819,10.1c-0.05,4.94,0.181,9.88-0.13,14.81
	c-2.47,7.24-7.58,13.35-8.988,20.99c3.969,1.99,7.459,4.74,11.238,7.05c6.512,6.21,13.36,12.14,20.682,17.38
	c4.648,2.37,8.629,5.71,12.698,8.931c-0.938,1.789-1.85,3.709-3.77,4.609c-4.98,2.98-7.882,8.09-11.86,12.13
	c-3.102,3.86-6.352,7.59-9.38,11.5c5.45,3.32,11.12,6.25,16.562,9.59c4.39,2.54,9.608,3.23,13.869,6.07
	c4.76,3.21,10.881,4.91,13.84,10.229c4.229,6.891,8.279,14.189,9.711,22.239c2.91,6.86,4.479,14.19,5.438,21.552
	c-0.05,4.148,1.062,8.148,1.858,12.18c0.892,8.6-0.788,17.38,1.08,25.9c0.302,3.27,0.111,6.568,0.142,9.858h-3.938
	c0.108-4.71-0.271-9.399-0.92-14.062c-0.531-9.119,0.68-18.369-1.5-27.358c-5.432,2.778-9.57,7.67-15.44,9.649
	c-3.89,1.689-8.15,1.899-12.25,2.761c2.7,7.399,2.079,15.329,2.079,23.06c-0.029,2.012-0.289,4.012-0.799,5.95h-4.201
	c0.841-2.91,1.061-5.95,1.021-8.972c-0.09-5.538,0.56-11.288-1.56-16.568c-2.061-4.7-2.15-9.97-4.32-14.641
	c-2.21-6.039-5.68-11.551-7.609-17.68c0.819-0.041,2.459-0.131,3.279-0.171c5.051,7.65,8.28,16.33,11.12,24.99
	c3.34-0.74,6.819-0.83,10.069-1.94c7.011-2.209,13.061-6.89,17.74-12.459c-0.58-7.521-2.971-14.761-5.399-21.851
	c-1.431-6.8-4.67-13.01-8.03-19.03c-1.279-2.3-3.08-4.3-5.199-5.85c-9.051-5.82-19.479-8.93-28.881-14.1
	c-3.08-1.99-6.02-4.201-9.24-5.972c-2.66,3.431-5.92,6.431-7.959,10.302c-1.721,2.879-2.641,6.5-5.721,8.289
	c-5.55,3.739-7.54,10.84-7.54,17.221c-0.989,0.57-1.97,1.148-2.95,1.74c0.86,3.898,1.41,7.959,3.291,11.549
	c1.93,3.881,3.549,7.939,4.139,12.261c0.852-1.78,1.762-3.521,2.762-5.22c2.029,1.1,4.068,2.188,6.102,3.289
	c-0.15,1.881-0.312,3.75-0.512,5.621c-3.021,0.379-6.148,0.27-8.658-1.65c1.049,7.43-2.91,15.1,0.629,22.17
	c-0.039,6.21-1.279,13.49-6.66,17.46c-1.779-0.47-3.569-0.88-5.359-1.29c-1.95-6.9-4.37-13.67-6.12-20.62
	c0.03-6.03,2.53-13.239-2.12-18.2c-4.14-4.6-7.41-9.85-9.68-15.619c-4.87,0.109-9.75-0.17-14.51-1.211
	c-9.05-1.97-18.38,0.15-27.47-1.479c-13.23-1.66-25.28-7.65-37.54-12.521c-6.3-2.699-12.44-5.818-18.91-8.108
	c-3.27-1.12-5.81-3.591-8.89-5.07c-8.54-4.271-17.15-8.521-24.96-14.028c-5.99-3.121-11.69-6.812-16.77-11.281
	c-5.25-3.649-10.38-7.549-16.02-10.619c-2.13,3.279-4.88,6.07-7.59,8.869v-8.26c1.58-2.25,4.13-2.591,6.69-2.471
	c2.71-5.43,4.56-11.26,7.73-16.45c1.94-3.02,2.57-6.62,4.25-9.76c1.96-3.62,3.12-7.58,4.6-11.41c1.67-4.81,2.31-10.2,5.76-14.18
	c-1.87-1.93-4.46-2.26-7.03-2.27c0-1.79,0-3.58-0.01-5.37c-0.96-0.5-1.91-1.01-2.86-1.53c-0.59-6.07-2.63-12.63,0.28-18.44
	c2.34-3.97,4.99-7.82,8.51-10.85c-0.26-0.87-0.49-1.76-0.69-2.64c1.61-3.47,3.85-6.58,6.42-9.4c1.35-1.54,0.5-3.53,0.32-5.3
	c3.76-2.66,7.14-5.8,10.75-8.66c1.08-1.77,1.01-4.02,2.1-5.75c2.46-2.55,5.07-4.96,7.51-7.53c2.39-2.85,6.15-3.81,9.11-5.92
	c5.47-3.52,12.05-5.02,17.07-9.25c1.19,0.67,2.38,1.33,3.57,2.01c5.2-3.66,10.87-6.54,16.2-9.97c1.5,0.6,2.9,1.73,4.57,1.75
	c3.08-1.34,6.05-2.92,9.3-3.83C118.56,6.97,121.59,3.32,124.43,0 M79.36,34.09c-4.89,5.74-12.28,8.4-17.6,13.67
	c-2.82,2.86-5.82,5.54-9.07,7.91c-1.61,1.24-3.83,1.34-5.36,2.66c-3.48,3.63-6.1,7.96-9.5,11.67c4.06,0,8.11,0,12.17,0l-0.02,1.01
	c-3.91,0.07-7.87-0.36-11.74,0.34c-6.93,1.38-10.88,7.98-14.43,13.46c-2.96,4.47-1.67,9.99-0.38,14.79
	c1.18,2.66,3.16,4.87,4.61,7.38c2.06,4.08,7.27,4.1,10.43,6.91c-1.59-0.25-3.17-0.58-4.75-0.89c4.55,4.25,7.67,9.87,12.83,13.47
	c7.69,7.062,16.86,12.3,24.31,19.67c7.68,4.78,16.24,7.94,24.55,11.459c11.82,4.17,24.36,5.659,36.54,8.449
	c6,1.54,12.26,0.381,18.3,1.641c5.22,0.681,10.5,0.16,15.75,0.319c3.2-0.09,6.48,0.37,9.62-0.38c4.72-2.09,8.91-5.18,13.34-7.811
	c0.02-1.939,0.05-3.881,0.069-5.811l1-0.01c-0.021,2.27-0.029,4.54-0.049,6.811c-3.75,2.319-7.44,4.721-11.28,6.869
	c-3.22,2.01-7.13,1.2-10.71,1.34c-7.07-0.26-14.23,0.602-21.23-0.709c-3.8-0.561-7.67-0.051-11.45-0.689
	c-11.71-1.971-23.34-4.391-34.9-7.07c-3.87-0.949-7.43-2.84-11.33-3.64c3.28,3.72,8.83,4.21,12.58,7.42
	c3.69,3.34,8.66,4.562,12.76,7.26c2.44,1.65,5.31,2.33,8.16,2.931c10.78,3.279,21.8,5.721,32.81,8.09
	c6.16,0.791,12.41,0.33,18.6,0.351c9.82-1.11,20.64-5.72,24.35-15.61c2.721-8.77-1.939-17.51-1.38-26.35
	c0.14-8.33-0.08-16.67,0.069-25c0.261-8.29,6.58-14.49,8.771-22.19c0.431-4.19,0.39-8.45,0.03-12.64
	c-0.98-4.69-4.801-7.86-8.53-10.48c-2.521-1.68-3.6-4.54-4.88-7.14c-3.45-4.25-8.17-7.19-12.5-10.46
	c-3.27-3.89-7.82-6.36-12.06-9.02c-10.24,1.3-20.52,2.31-30.85,1.96c-9.52,0.61-18.52-3.79-28.04-3.09
	c-12.08,0.65-24.53,3.34-34.55,10.46c-3.44,2.38-5.55,6.49-9.63,7.93c3.24-4.26,6.99-8.4,11.89-10.74
	c10.74-6.84,23.84-8.76,36.34-8.64c7.48-0.18,14.49,3.3,21.97,3.09c5.3-0.14,10.61,0.23,15.9-0.24c5.82-1.07,11.82-0.51,17.56-2.17
	c-1.59-3.42-5.98-3.9-9.31-3.49c-6.31,1.34-12.78,0.82-19.17,0.86c-12.98-0.88-25.82-4.05-38.89-2.88
	C85.67,39.7,71.86,47.74,59.62,57.14c0.93-3.79,5.09-4.64,7.82-6.75c7.64-5.66,16.13-10.3,25.43-12.54
	c5.8-2.23,12.04-1.95,18.13-1.89c7.42-0.29,14.59,2.09,21.99,2.19c7.76,1.27,15.65,0.93,23.47,0.68c-0.48-0.37-1.44-1.11-1.92-1.47
	c-5.5-0.68-11.02-1.45-16.57-1.43c-6.32-0.61-12.62-1.38-18.93-1.93C105.81,34.04,92.58,33.89,79.36,34.09 M30.53,116.58
	c-4.03,13.79-10.1,26.79-16.21,39.74c-0.83,2.06-2.63,4-2.25,6.35c3.21,2.99,7.18,5,10.74,7.52c5.33,3.23,9.71,7.791,15.23,10.73
	c4.6,2.311,8.53,5.721,13.26,7.811c6.98,4.561,15.13,7.069,21.75,12.199c7.31,2.86,14.64,5.771,21.66,9.34
	c9.42,3.4,18.19,8.621,28.12,10.48c3.61-5.91,4.19-13.1,7.98-18.92c1.93-4.54,4.81-8.62,6.46-13.26c-3.44-1.59-6.47-4.04-10.2-4.98
	c-0.05-1.46-0.09-2.92-0.14-4.369c-4.71-2.141-9.94-3.021-14.36-5.791c-5.04-3.108-10.82-4.84-15.64-8.3
	c-4.1-1.69-8-3.81-11.49-6.58c-4.13-3.5-9.38-5.159-13.89-8.079c-6.36-2.951-10.73-8.671-16.62-12.361
	c-7.41-4.03-11.44-12.23-18.9-16.18C33.74,120.66,32.27,118.44,30.53,116.58 M201,120.85c0,7.06,0,14.12-0.029,21.18
	c-0.101,5.42,2.42,10.51,2.069,15.95c-0.31,4.229,0.91,8.869-1.33,12.729c-2.09,4.07-4.979,7.78-8.91,10.2
	c1.95,0.8,3.931,1.55,5.89,2.319c1.41,3.811,3.722,7.16,6.791,9.819c3.069-5.89,8.279-10.26,11.601-15.979
	c4.739-7.439,11.608-13.229,16.34-20.67c1.62-2.239,4.479-3.221,5.979-5.569c0.141-0.149,0.431-0.472,0.57-0.63h-0.591
	c-0.83-1.771-3.03-2.11-4.53-3.12C222.25,140.09,213,128.69,201,120.85 M86.19,155.189C86.87,155.87,86.87,155.87,86.19,155.189
	 M88.19,156.2C88.87,156.87,88.87,156.87,88.19,156.2 M133.54,181.97c2.35,2.351,5.72,3.05,8.67,4.37
	c-0.19,2.37-0.94,4.641-2.26,6.62c-2.99,4.61-4.84,9.81-7.29,14.7c-2.27,4.619-2.83,9.939-5.59,14.33
	c4.35-0.271,8.56,1.13,12.91,1.039c6.36,0.051,12.78-0.459,19.06,0.899c4.37,0.37,9.32,2.552,13.29-0.25
	c-2.67-0.899-5.1-2.3-7.6-3.569c-3.07-0.729-5.64,2.021-8.71,1.871c-4.81-0.121-9.85,0.76-14.46-0.99c0.91-0.95,1.8-1.93,2.81-2.771
	c4.11-0.648,8.31,0.21,12.42-0.439c2.82-0.879,5.78-2.719,8.8-1.43c3.27,1.5,7.8,2.67,7.86,7.041c3.08,2.31,3.56,6.43,5.63,9.488
	c2.22,5.17,6.38,9.04,9.57,13.57c1.29,6.72-0.94,13.859,1.42,20.449c1.34,4.021,1.959,8.369,4.1,12.091
	c0.38-0.021,1.15-0.04,1.54-0.052c1.64-3.299,2.28-6.938,2.819-10.549c-0.809-1.33-1.719-2.711-1.569-4.351
	c-0.33-8.181,2.41-16.42,0.56-24.54c-3.289-6.471-5.949-13.301-7.6-20.34c0.82-1.83,2.54-3.04,3.87-4.48
	c0.01-7.289,4.351-13.85,9.56-18.648c-3.56-2.291-6.869-5.342-7.76-9.672c-2.54-0.799-4.949-1.959-7.48-2.799
	c-5.22,1.779-10.44,4.029-16.11,3.539c0.08,3.53-0.34,7.12,0.24,10.62c0.85,2.011,1.76,4.011,2.03,6.21
	c-0.79,0.021-2.38,0.07-3.17,0.102c-4.48-4.541-3.4-11.391-2.4-17.092c-4.82-0.02-9.67,0.36-14.47-0.18
	C147.28,185.439,140.39,183.76,133.54,181.97z"/>
<path fill="#FFFFFF" d="M127.01,0H377v296h-94c-0.029-3.29,0.16-6.59-0.141-9.859c-1.869-8.521-0.189-17.301-1.08-25.899
	c-0.799-4.03-1.909-8.03-1.859-12.181c-0.96-7.359-2.529-14.689-5.439-21.551c-1.431-8.05-5.479-15.35-9.711-22.24
	c-2.959-5.318-9.08-7.02-13.84-10.229c-4.26-2.84-9.479-3.53-13.869-6.07c-5.439-3.34-11.109-6.27-16.561-9.59
	c3.029-3.91,6.279-7.64,9.38-11.5c3.979-4.04,6.88-9.148,11.86-12.13c1.92-0.899,2.83-2.819,3.77-4.608
	c-4.07-3.222-8.05-6.562-12.699-8.932c-7.319-5.24-14.17-11.17-20.681-17.38c-3.78-2.31-7.271-5.06-11.239-7.05
	c1.409-7.64,6.521-13.75,8.989-20.99c0.31-4.93,0.08-9.87,0.13-14.81c0.18-3.8-3.119-6.51-3.82-10.1
	c-1.16-4.75-5.51-8.25-5.41-13.33c-4.379-2.37-6.34-7.19-10.028-10.32c-4.59-3.75-9.06-7.63-13.87-11.1
	c-4.41-4.34-10.08-7.13-14.39-11.57c-1.21-1.5-2.32-3.1-3.82-4.33c-2.08-0.73-4.38-0.48-6.41-1.41c-1.38-1.7-1.48-4.59-3.91-5.24
	c-1.53-1.12-3.27-0.03-4.86,0.33C137.78,9.51,132.95,4.11,127.01,0 M224.01,95c-0.02,4.67-0.02,9.33-0.01,14h1c0.75,0,2.25,0,3,0h1
	c0-4.67,0-9.33,0-14h-1c-0.75,0-2.25,0-3,0H224.01 M237.16,97.91c-2.051,0.46-0.9,1.98-0.28,3.2c0.13,2.63,0.13,5.25,0.13,7.88
	l1.15,0.02c0.689,0,2.07-0.01,2.75-0.01c0.01-2.54,0.01-5.07,0.05-7.6c2.8-0.01,2.7-4.09-0.22-3.71c0.5-0.29,1.51-0.88,2.02-1.18
	l0.76,0.3l0.69-0.62c-0.21-0.3-0.64-0.88-0.851-1.18c-1.439,0-2.879,0.03-4.319,0.08C237.66,94.53,236.109,96.84,237.16,97.91
	 M270,95.01c0,4.66,0,9.32,0,13.99h1c0.5,0,1.5,0,2,0h1c0-4.66,0-9.33,0-13.99L273,95c-0.5,0-1.5,0-2,0L270,95.01 M331.64,109.27
	c0.66-0.1,1.99-0.28,2.65-0.38c0.3-0.26,0.91-0.78,1.22-1.04l0.7,0.47c0.11,0.07,0.34,0.2,0.45,0.27c1.91,1.31,4.07-0.14,4.85-2.03
	c0.05-0.12,0.15-0.37,0.2-0.49c0.11-0.52,0.34-1.55,0.45-2.07c0-0.17,0-0.5,0-0.67c0.29-2.92-2.43-6.76-5.602-4.88
	c-0.14,0.05-0.43,0.15-0.568,0.2l-0.87,0.32c0.25-1.07,0.55-3.75-0.99-3.72c-0.609-0.15-1.85-0.43-2.47-0.58
	C330.55,99.39,330.59,104.54,331.64,109.27 M365.64,109.31c0.63-0.13,1.88-0.38,2.512-0.5c1.97-0.83,0.658-4.93,0.84-6.93
	c0.229-0.13,0.67-0.39,0.89-0.53l1.25-0.01c0.22,0.12,0.67,0.38,0.9,0.51c0.13,2.01-1.142,6.07,0.79,6.95
	c0.63,0.13,1.89,0.38,2.52,0.51c1.32-3.15,1.25-6.9-0.27-9.97l-0.521-0.68c-0.1-0.1-0.29-0.29-0.39-0.38
	c-0.88,0.03-2.642,0.11-3.521,0.14c-0.158,0.06-0.479,0.16-0.64,0.22l-0.88,0.3c0.25-1.06,0.54-3.76-1.021-3.7
	c-0.619-0.14-1.85-0.43-2.47-0.57C364.59,99.4,364.57,104.58,365.64,109.31 M244,101.9c0.061,0.78,0.18,2.34,0.23,3.12
	c-0.021,0.45-0.07,1.34-0.09,1.79l0.868,0.24c0.312,0.32,0.94,0.97,1.25,1.3c0.11,0.06,0.32,0.18,0.431,0.25
	c1.471,0.46,3.711,1.01,4.979-0.04c1.511,0.95,4-1.69,2.892-3.13l0.648-0.46c-2.26-0.15-4.398,0.561-6.521,1.25
	c-0.278-0.38-0.85-1.14-1.129-1.52l0.069-0.41c2.55-0.32,5.12-0.3,7.69-0.39c1.35-0.91,1.209-1.44-0.4-1.59
	c0.311-1.73-0.84-2.96-2.23-3.76c-0.09-0.05-0.289-0.15-0.379-0.21c-1.569-0.47-3.561-0.75-5.051,0
	C245.59,97.34,242.891,100.28,244,101.9 M257.01,101.9c0.051,0.78,0.17,2.34,0.221,3.12c-0.021,0.45-0.069,1.34-0.09,1.79
	l0.869,0.24c0.311,0.32,0.93,0.97,1.25,1.29c0.11,0.07,0.32,0.19,0.43,0.26c1.472,0.45,3.722,1.02,4.98-0.05
	c1.51,0.96,4-1.68,2.891-3.12l0.66-0.46c-2.271-0.15-4.41,0.562-6.531,1.25c-0.278-0.38-0.85-1.14-1.129-1.53l0.069-0.4
	c2.54-0.32,5.12-0.3,7.681-0.39c1.351-0.9,1.219-1.44-0.391-1.59c0.311-1.73-0.85-2.97-2.23-3.76c-0.1-0.05-0.289-0.16-0.39-0.21
	c-1.56-0.47-3.54-0.74-5.04-0.01C258.59,97.34,255.891,100.29,257.01,101.9 M277.141,99.43c-1.83-0.65-2.031,3.65-0.211,3.34
	l-0.13,0.85c1.78,0.62,3.58,1.2,5.41,1.71c-0.08,0.39-0.229,1.16-0.31,1.55c-0.5-0.08-1.51-0.24-2.01-0.33
	c-0.132-0.02-0.41-0.08-0.541-0.11c-0.959-0.08-2.891-0.25-3.851-0.33c0.09,0.13,0.271,0.41,0.358,0.55c0.33,0.42,1,1.26,1.342,1.68
	c0.119,0.08,0.35,0.22,0.46,0.29c2.579,0.73,5.819,0.89,7.84-1.21c0.08-0.14,0.222-0.4,0.3-0.53l0.33-0.87
	c0.012-0.17,0.012-0.5,0.021-0.67l-0.381-0.84c0.45-1.57-0.129-2.33-1.75-2.31c-1.42-0.12-2.819-0.28-4.221-0.5
	c0.021-0.39,0.061-1.18,0.08-1.57c2.141,0.13,4.189,0.9,6.359,1.01c-0.85-1.02-1.67-2.07-2.631-2.97
	C281.471,98.06,278.41,97.14,277.141,99.43 M294.13,99.95l0.24,1.16c0.069,0.18,0.22,0.54,0.3,0.72l0.5,0.95
	c-0.01,0.47-0.04,1.42-0.061,1.89l0.851,0.27l0.319,0.98c-0.021,0.45-0.039,1.35-0.049,1.81l0.879,0.2
	c-0.049,0.49-0.14,1.47-0.189,1.97c-0.8,0.07-2.4,0.22-3.21,0.29c0.03,0.15,0.069,0.45,0.09,0.6c0.08,0.53,0.229,1.61,0.31,2.15
	c1.57,0.03,3.15,0.03,4.73,0.02c0.41-0.63,1.21-1.88,1.62-2.5c0.06-0.12,0.181-0.37,0.24-0.49l0.271-0.81l0.869-0.3
	c-0.04-0.46-0.109-1.38-0.14-1.83l0.29-0.97l0.859-0.26c-0.029-0.46-0.08-1.37-0.109-1.83l0.24-0.938l0.858-0.25
	c-0.01-0.46-0.04-1.38-0.062-1.84l0.132-1.14c1.59-0.23,1.729-0.8,0.43-1.71c-0.858,0.03-2.59,0.08-3.448,0.1
	c0.049,0.48,0.148,1.42,0.209,1.89l-0.88,0.17c0.011,0.45,0.021,1.34,0.029,1.78l-0.108,0.97l-0.83-0.15
	c-0.36-0.2-1.08-0.59-1.44-0.79l-0.181-0.99c0.051-0.44,0.131-1.32,0.181-1.77l-0.841-0.28l0.25-0.93
	c-0.899,0.02-2.709,0.07-3.619,0.09C292.37,99.07,292.529,99.66,294.13,99.95 M308.22,98.58c-0.27,0.43-0.818,1.3-1.09,1.73
	c-1.601,0.16-1.75,0.73-0.45,1.7c2.2-0.16,4.32-0.87,6.512-1.18c-0.302,0.41-0.9,1.21-1.19,1.62c-0.21,0.1-0.61,0.32-0.81,0.42
	c-0.86,0.07-2.58,0.19-3.44,0.26c-2.05-0.31-3.028,4.27-0.99,4.65l-0.2,0.82c1.672,0.52,3.271,0.51,4.802-0.01
	c0.108-0.07,0.34-0.2,0.448-0.26l0.69-0.45c0.31,0.26,0.94,0.78,1.25,1.04c0.79,0.05,2.36,0.13,3.15,0.18l-0.132-0.75
	c0.172-2.74,0.23-5.49,0.262-8.24l-1.12-0.06l-0.04-1.08c-2.19-1.11-4.852-1.41-7.18-0.63C308.57,98.4,308.34,98.52,308.22,98.58
	 M344.63,109.33c0.62-0.14,1.86-0.41,2.48-0.55c1.87-0.521,1.14-4.33,0.608-5.9l0.271-0.79c0.16-0.17,0.49-0.49,0.648-0.65
	c1.75-0.16,2.682-1.07,2.78-2.76c0.021-0.14,0.062-0.44,0.08-0.59c-0.81,0.05-2.44,0.16-3.26,0.21l-0.23-0.1l-0.22,0.08
	c-0.74-0.13-2.21-0.39-2.94-0.521C343.26,101.24,343.75,105.66,344.63,109.33 M354.22,98.58c-0.27,0.43-0.81,1.3-1.09,1.73
	c-1.6,0.16-1.75,0.73-0.45,1.7c2.21-0.17,4.32-0.87,6.512-1.18c-0.302,0.41-0.9,1.22-1.2,1.62c-0.2,0.11-0.602,0.32-0.812,0.42
	c-0.85,0.07-2.568,0.2-3.43,0.26c-2.06-0.3-3.02,4.27-0.98,4.66l-0.198,0.81c1.659,0.52,3.26,0.51,4.8-0.01
	c0.109-0.07,0.33-0.19,0.438-0.26l0.69-0.45c0.31,0.26,0.939,0.78,1.25,1.05c0.79,0.04,2.36,0.12,3.15,0.17l-0.132-0.75
	c0.171-2.75,0.23-5.5,0.262-8.25l-1.12-0.05l-0.04-1.08c-2.19-1.11-4.852-1.41-7.17-0.63C354.58,98.4,354.34,98.52,354.22,98.58
	 M318.95,104.95c0.26,1.63-0.65,4.22,1.81,4.28c-0.13,0.54-0.398,1.63-0.528,2.17l-0.771-0.26l-0.64,0.66
	c0.229,0.29,0.688,0.89,0.92,1.18c1.318-0.42,2.068-1.17,2.26-2.25c1.77-0.28,1.75-5.12,0.21-5.65
	C321.4,105.05,319.77,104.98,318.95,104.95z"/>
<path fill="#B66E00" d="M79.36,34.09c13.22-0.2,26.45-0.05,39.68-0.09c6.31,0.55,12.61,1.32,18.93,1.93
	c5.55-0.02,11.07,0.75,16.57,1.43c0.48,0.36,1.44,1.1,1.92,1.47c-7.82,0.25-15.71,0.59-23.47-0.68c-7.4-0.1-14.57-2.48-21.99-2.19
	c-6.09-0.06-12.33-0.34-18.13,1.89c-9.3,2.24-17.79,6.88-25.43,12.54c-2.73,2.11-6.89,2.96-7.82,6.75
	c12.24-9.4,26.05-17.44,41.46-20.02c13.07-1.17,25.91,2,38.89,2.88c6.39-0.04,12.86,0.48,19.17-0.86c3.33-0.41,7.72,0.07,9.31,3.49
	c-5.74,1.66-11.74,1.1-17.56,2.17c-5.29,0.47-10.6,0.1-15.9,0.24c-7.48,0.21-14.49-3.27-21.97-3.09c-12.5-0.12-25.6,1.8-36.34,8.64
	c-4.9,2.34-8.65,6.48-11.89,10.74c4.08-1.44,6.19-5.55,9.63-7.93c10.02-7.12,22.47-9.81,34.55-10.46c9.52-0.7,18.52,3.7,28.04,3.09
	c10.33,0.35,20.61-0.66,30.85-1.96c4.24,2.66,8.79,5.13,12.06,9.02c4.33,3.27,9.05,6.21,12.5,10.46c1.28,2.6,2.359,5.46,4.88,7.14
	c3.729,2.62,7.55,5.79,8.53,10.48c0.359,4.19,0.4,8.45-0.03,12.64c-2.19,7.7-8.51,13.9-8.771,22.19c-0.149,8.33,0.07,16.67-0.069,25
	c-0.56,8.84,4.101,17.58,1.38,26.35c-3.71,9.892-14.53,14.5-24.35,15.61c-6.19-0.021-12.44,0.44-18.6-0.351
	c-11.01-2.369-22.03-4.811-32.81-8.09c-2.85-0.601-5.72-1.279-8.16-2.931c-4.1-2.698-9.07-3.92-12.76-7.26
	c-3.75-3.21-9.3-3.7-12.58-7.42c3.9,0.8,7.46,2.688,11.33,3.64c11.56,2.682,23.19,5.102,34.9,7.07c3.78,0.64,7.65,0.13,11.45,0.689
	c7,1.311,14.16,0.449,21.23,0.709c3.58-0.14,7.49,0.67,10.71-1.34c3.84-2.148,7.53-4.55,11.28-6.869
	c0.02-2.271,0.028-4.541,0.049-6.811l-1,0.01c-0.021,1.93-0.049,3.87-0.069,5.811c-4.43,2.631-8.62,5.721-13.34,7.811
	c-3.14,0.75-6.42,0.29-9.62,0.38c-5.25-0.159-10.53,0.36-15.75-0.319c-6.04-1.26-12.3-0.101-18.3-1.641
	c-12.18-2.79-24.72-4.279-36.54-8.449c-8.31-3.521-16.87-6.681-24.55-11.459c-7.45-7.37-16.62-12.61-24.31-19.67
	c-5.16-3.6-8.28-9.22-12.83-13.47c1.58,0.31,3.16,0.64,4.75,0.89c-3.16-2.81-8.37-2.83-10.43-6.91c-1.45-2.51-3.43-4.72-4.61-7.38
	c-1.29-4.8-2.58-10.32,0.38-14.79c3.55-5.48,7.5-12.08,14.43-13.46c3.87-0.7,7.83-0.27,11.74-0.34L50,70c-4.06,0-8.11,0-12.17,0
	c3.4-3.71,6.02-8.04,9.5-11.67c1.53-1.32,3.75-1.42,5.36-2.66c3.25-2.37,6.25-5.05,9.07-7.91C67.08,42.49,74.47,39.83,79.36,34.09
	 M84.98,50.99c-5.64,2.71-11.68,6.29-14.3,12.24c3.95-2.87,6.92-6.96,11.33-9.22c5.11-3.27,11.22-4.04,17.09-4.85
	c6.44-0.45,12.94-0.36,19.31,0.79c-1.39-0.84-2.74-1.98-4.45-1.91C104.25,47.81,94.22,47.54,84.98,50.99 M111.82,49.67
	c1.58,2.25,3.71,4.14,4.87,6.67c0.39,1.86,0.34,3.77,0.45,5.65l0.95,0.03C118.72,57.1,117.25,51.11,111.82,49.67 M148.03,51.08
	c-2.65,0.37-5.91,0.24-7.68,2.62c3.54-0.67,7.03-1.65,10.65-1.77c4.31-0.14,8.93-2.16,13.03,0.05c2.64,1.3,5.42,2.43,7.74,4.26
	c1.54,2.13,1.99,4.86,3.24,7.16c0.05-2.41-0.32-4.84-1.33-7.04c-1.19-1.91-3.43-2.71-5.3-3.76c-2.36-1.09-4.68-2.62-7.36-2.66
	C156.64,49.71,152.38,50.97,148.03,51.08 M142.98,67.99l0.97,0.03c-0.44-4.46,0.3-8.84,3-12.5
	C141.73,57.37,143.11,63.7,142.98,67.99 M75.72,66.72c-1.93,1.79-4.09,4.17-3.69,7c2.01,1.87,4.87,2.93,7.55,1.9
	c5.81-1.86,12.03-2.16,18.05-1.26c5.55,1.2,10.55,4.08,15.53,6.71c2.95-1.93,6.98-3.34,7.85-7.18c0.02-3.45-3.46-5.21-5.83-7.09
	c-5.89-4.77-13.78-6.33-21.21-5.8C87.58,61.51,80.85,62.58,75.72,66.72 M148.28,68.29c-2.66,1.22-4.43,3.63-6.68,5.39
	c-2.11,0.29-4.17-0.79-6.3-0.61c-0.59,0.87-1.18,1.74-1.76,2.62c2.42,1.3,4.88,2.54,7.4,3.65c0.07,3.09-0.17,6.22,0.32,9.29
	c2.15,3.77,7.3,4.17,9.03,8.28c-2.47,3.27-4.66,7.21-8.64,8.83c-1.99,1.03-3.48-1.33-5.08-2.1c-0.71,1.24-2.22,2.41-1.44,3.99
	c0.98,1.25,2.17,2.65,3.94,2.42c6.6,1.04,10.89-5.18,14.14-9.92c1.16,0.74,2.32,1.47,3.52,2.16c0.51-1.02,1.02-2.05,1.52-3.07
	c4.11,1.46,8.04,3.36,12.08,4.99c-2.38-3.75-7.15-3.81-10.48-6.03c-3.77-5.13-9.85-7.62-14.7-11.47c-0.31-2.48-0.16-4.97-0.13-7.45
	c7.6-4.08,16.44-3.9,24.82-4.42c2.15-0.39,5.18-1.81,4.03-4.49c-2.13-2.08-4.68-4.43-7.84-4.36
	C160.06,65.85,153.77,65.54,148.28,68.29 M60.47,71.44c1.59,2.61,4.76,2.58,7.46,2.77l0.12-1.07c-1.48-0.09-2.95-0.2-4.43-0.33
	c2.26-0.93,4.59-1.69,6.76-2.82C67.04,70.15,63.76,70.85,60.47,71.44 M175.55,72.68c5.65,1.35,11.37,0.21,17.08,0.37
	c1.79,2.01,3.72,3.94,6.07,5.28c3.409,1.47,4.47,5.42,5.26,8.71c-0.34,3.59-1.09,7.18-2.319,10.58
	c-2.49,4.09-8.811,3.03-11.201,7.28c3.82-1.6,7.94-2.73,11.36-5.09c2.21-2.8,2.19-6.69,3.021-10.05c0.99-4.05-0.891-8.07-3.35-11.18
	c-2.82-1.9-5.621-3.88-7.82-6.51c-3.819-0.18-7.669-0.18-11.459,0.37C179.9,71.25,177.41,70.23,175.55,72.68 M35.99,73.02
	c-2.51,0.6-3.67,3.05-5.1,4.93c-1.19,1.87-3.16,3.57-2.9,6.01c0.14,6.92-0.98,14.34,2.33,20.73c2.65,3.34,7.15,4.4,11.11,5.38
	c-2.8-3.02-7.73-2.9-10.12-6.39c-3.01-5.74-2.33-12.45-2.32-18.71c-0.25-2.45,1.7-4.17,2.91-6.04c1.32-1.66,2.32-3.82,4.44-4.61
	c5.59-2.34,11.79-1,17.66-1.31L53.98,72C48,72.33,41.78,71.07,35.99,73.02 M67.31,75.21c-1.28,1.31,1.16,2.18,1.93,1.07
	C70.58,75.04,68.04,74.11,67.31,75.21 M37.73,104.34c1.23,1.87,4.08-0.44,3.11-2.15c-0.88-2.79-2.43-5.37-2.86-8.29
	c-0.38-3.51,1.78-6.6,3.4-9.53c3.23-4.43,9.38-5.06,14.41-4.19c7.44,3.92,15.62,7.69,24.26,6.88c6.38-0.1,11.59-4.61,15.51-9.24
	c-1.08-0.72-2.03-1.92-3.43-1.93c-3.9,3.07-7.91,6.81-13.12,7.17c-6.23,0.71-11.53-3.18-17.23-4.92c-4.62-3.1-10.36-2.26-15.61-1.97
	C34.57,79.12,29.85,95.49,37.73,104.34 M189.391,77.16c2.109,2.17,5.149,3.01,7.51,4.87c-0.221,3.57,1.091,7.07,0.879,10.59
	c-1.709,2.13-3.92,3.78-5.948,5.59c3.198-0.1,5.96-2.6,7.16-5.41c0.038-3.94-1.24-7.78-1.101-11.74
	C195.46,78.99,192.52,77.68,189.391,77.16 M170,86.94c-2.35-0.62-4.44-1.91-6.44-3.26c-0.73,1.24-2.2,2.38-1.44,3.98
	c3.22,3.97,9.02,3.58,13.61,3.22c1.07-1.25,1.4-2.9,1.97-4.39c2.79-1.42,5.98-2.03,9.07-1.34c1.82,0.8,3.43,2.03,5.259,2.82
	c2.291-0.04,2.841-3.84,0.671-4.62c-3.16-3.07-7.72-2.47-11.73-2.38C176.49,80.92,173.57,84.85,170,86.94 M52.71,83.64
	c-1.03,2.46-1.11,5.28-2.45,7.61c-2.63,2.22-6.38,2.19-9.18,4c-0.2,4.51,6.04,2.43,8.76,1.86c1.09,2.37,2.19,4.86,1.48,7.52
	c4.21,3.67,6.32,9.01,9.69,13.36c7.05,10.61,17.46,18.33,28.31,24.69c4.09,2.18,8.56,3.49,12.89,5.08
	c8.27,3.021,17.21,2.76,25.81,4.141c9.66,0.091,19.39,0.631,28.97-0.83c8.81-0.859,18.73-1.271,25.73-7.351
	c4.54-6.17,6.7-14.09,6.309-21.72c-0.189-6.03,0.541-12.16-0.879-18.1c-0.77-3.06-0.64-6.87-3.87-8.5
	c-0.44-2.12,0.41-6.99-3.03-6.31c-2.49,2.92-0.38,7.47-2.31,10.83c-2.99,5.52-9.25,7.84-14.64,10.35
	c-9.24,2.51-19.03,3.71-28.54,2.07c-10.52-0.68-21.02-2.57-30.99-6.07c-11.34-3.5-23.08-5.96-33.78-11.27
	c-4.85-2.5-9.91-4.56-14.62-7.32C56.16,85.82,55.26,81.22,52.71,83.64 M103.29,90.43c0.24,1.19,0.48,2.38,0.74,3.56
	c-4.54,1.55-9.34,0.83-14.01,1.05c-1.15,0-2.04,0.49-2.69,1.47c5.93-1.04,12.12,0.37,17.9-1.61
	C104.93,93.26,105.2,91.14,103.29,90.43 M105.99,94.1c0.01,2.93,0.01,5.86-0.01,8.79c1.61,1.16,3.19,2.39,5.04,3.15
	c1.78-0.1,1.78-2.47,2.34-3.73c-1.1-0.58-2.21-1.14-3.32-1.71c-0.02-1.52-0.05-3.04-0.08-4.56c2.78-0.76,5.7-0.87,8.45-1.7
	c1.85-1.58-0.64-3.82-2.45-3.38C112.26,90.34,108.71,91.59,105.99,94.1 M115.06,99.32c-0.57,1.9,0.31,3.62,1.51,5.02
	c1.2-0.8,2.35-1.69,3.65-2.33c2.86-0.02,5.61,1.28,8.49,0.9c1.01-0.59,2.17-2.47,0.6-3.16c-2.75-1.72-6.16-1.86-9.32-1.84
	C118.27,98.04,116.12,97.59,115.06,99.32 M69.61,140.93c9.68,4.94,19.14,10.49,29.51,13.96c6.84,2.219,13.39,5.568,20.61,6.469
	c7.43,1.531,15.09-0.26,22.51,1.341c6.56,0.64,13.18,0.25,19.76,0.26c7.44-0.87,16.3-3.569,19.32-11.2
	c-3.25,2.24-5.57,5.721-9.29,7.271c-4.41,1.88-9.18,3.158-14.01,3c-5.47-0.15-11.01,0.398-16.43-0.602
	c-4.83-0.84-9.75-0.279-14.62-0.42c-7.78-0.189-15.26-2.63-22.39-5.56c-7.93-2.7-15.78-5.761-23.1-9.87
	C77.63,143.81,74.03,141.02,69.61,140.93 M125,156l0.01,1c11,0,21.99,0,32.99,0l-0.02-1C146.99,156,136,156,125,156z"/>
<path d="M84.98,50.99c9.24-3.45,19.27-3.18,28.98-2.95c1.71-0.07,3.06,1.07,4.45,1.91c-6.37-1.15-12.87-1.24-19.31-0.79
	c-5.87,0.81-11.98,1.58-17.09,4.85c-4.41,2.26-7.38,6.35-11.33,9.22C73.3,57.28,79.34,53.7,84.98,50.99z"/>
<path d="M111.82,49.67c5.43,1.44,6.9,7.43,6.27,12.35l-0.95-0.03c-0.11-1.88-0.06-3.79-0.45-5.65
	C115.53,53.81,113.4,51.92,111.82,49.67z"/>
<path d="M148.03,51.08c4.35-0.11,8.61-1.37,12.99-1.14c2.68,0.04,5,1.57,7.36,2.66c1.87,1.05,4.11,1.85,5.3,3.76
	c1.01,2.2,1.38,4.63,1.33,7.04c-1.25-2.3-1.7-5.03-3.24-7.16c-2.32-1.83-5.1-2.96-7.74-4.26c-4.1-2.21-8.72-0.19-13.03-0.05
	c-3.62,0.12-7.11,1.1-10.65,1.77C142.12,51.32,145.38,51.45,148.03,51.08z"/>
<path d="M142.98,67.99c0.13-4.29-1.25-10.62,3.97-12.47c-2.7,3.66-3.44,8.04-3,12.5L142.98,67.99z"/>
<path d="M75.72,66.72c5.13-4.14,11.86-5.21,18.25-5.72c7.43-0.53,15.32,1.03,21.21,5.8c2.37,1.88,5.85,3.64,5.83,7.09
	c-0.87,3.84-4.9,5.25-7.85,7.18c-4.98-2.63-9.98-5.51-15.53-6.71c-6.02-0.9-12.24-0.6-18.05,1.26c-2.68,1.03-5.54-0.03-7.55-1.9
	C71.63,70.89,73.79,68.51,75.72,66.72 M100.03,65.13c0.09,2.02-0.47,3.95-1.19,5.81c5.58-0.76,9.78,3.68,14.94,4.94
	c0.76-0.85,1.54-1.69,2.32-2.53c-2.18-2.02-4.53-3.86-7.11-5.35C106.21,66.47,102.98,66.18,100.03,65.13 M79.33,69
	c-0.9,0.98-1.84,1.94-2.74,2.92c2.37-0.82,5.25-0.62,6.89-2.84C82.1,69.02,80.72,69,79.33,69z"/>
<path fill="#FFFFFF" d="M100.03,65.13c2.95,1.05,6.18,1.34,8.96,2.87c2.58,1.49,4.93,3.33,7.11,5.35c-0.78,0.84-1.56,1.68-2.32,2.53
	c-5.16-1.26-9.36-5.7-14.94-4.94C99.56,69.08,100.12,67.15,100.03,65.13z"/>
<path d="M148.28,68.29c5.49-2.75,11.78-2.44,17.75-2.3c3.16-0.07,5.71,2.28,7.84,4.36c1.15,2.68-1.88,4.1-4.03,4.49
	c-8.38,0.52-17.22,0.34-24.82,4.42c-0.03,2.48-0.18,4.97,0.13,7.45c4.85,3.85,10.93,6.34,14.7,11.47c3.33,2.22,8.1,2.28,10.48,6.03
	c-4.04-1.63-7.97-3.53-12.08-4.99c-0.5,1.021-1.01,2.05-1.52,3.07c-1.2-0.69-2.36-1.42-3.52-2.16c-3.25,4.74-7.54,10.96-14.14,9.92
	c-1.77,0.23-2.96-1.17-3.94-2.42c-0.78-1.58,0.73-2.75,1.44-3.99c1.6,0.77,3.09,3.13,5.08,2.1c3.98-1.62,6.17-5.56,8.64-8.83
	c-1.73-4.11-6.88-4.51-9.03-8.28c-0.49-3.07-0.25-6.2-0.32-9.29c-2.52-1.11-4.98-2.35-7.4-3.65c0.58-0.88,1.17-1.75,1.76-2.62
	c2.13-0.18,4.19,0.9,6.3,0.61C143.85,71.92,145.62,69.51,148.28,68.29 M157.99,70l0.01,1c3,0,6,0,9,0l0.01-1
	C164,70,160.99,70,157.99,70z"/>
<path fill="#FFFFFF" d="M79.33,69c1.39,0,2.77,0.02,4.15,0.08c-1.64,2.22-4.52,2.02-6.89,2.84C77.49,70.94,78.43,69.98,79.33,69z"/>
<path d="M60.47,71.44c3.29-0.59,6.57-1.29,9.91-1.45c-2.17,1.13-4.5,1.89-6.76,2.82c1.48,0.13,2.95,0.24,4.43,0.33l-0.12,1.07
	C65.23,74.02,62.06,74.05,60.47,71.44z"/>
<path fill="#FFFFFF" d="M157.99,70c3,0,6.01,0,9.02,0L167,71c-3,0-6,0-9,0L157.99,70z"/>
<path fill="#050300" d="M175.55,72.68c1.86-2.45,4.35-1.43,6.64-0.24c3.79-0.55,7.64-0.55,11.46-0.37c2.199,2.63,5,4.61,7.82,6.51
	c2.459,3.11,4.34,7.13,3.35,11.18c-0.83,3.36-0.812,7.25-3.021,10.05c-3.42,2.36-7.54,3.49-11.359,5.09
	c2.391-4.25,8.711-3.19,11.201-7.28c1.229-3.4,1.979-6.99,2.318-10.58c-0.79-3.29-1.852-7.24-5.26-8.71
	c-2.352-1.34-4.28-3.27-6.07-5.28C186.92,72.89,181.2,74.03,175.55,72.68z"/>
<path d="M35.99,73.02C41.78,71.07,48,72.33,53.98,72L54,73.01c-5.87,0.31-12.07-1.03-17.66,1.31c-2.12,0.79-3.12,2.95-4.44,4.61
	c-1.21,1.87-3.16,3.59-2.91,6.04c-0.01,6.26-0.69,12.97,2.32,18.71c2.39,3.49,7.32,3.37,10.12,6.39c-3.96-0.98-8.46-2.04-11.11-5.38
	c-3.31-6.39-2.19-13.81-2.33-20.73c-0.26-2.44,1.71-4.14,2.9-6.01C32.32,76.07,33.48,73.62,35.99,73.02z"/>
<path d="M67.31,75.21c0.73-1.1,3.27-0.17,1.93,1.07C68.47,77.39,66.03,76.52,67.31,75.21z"/>
<path d="M37.73,104.34c-7.88-8.85-3.16-25.22,8.44-28.17c5.25-0.29,10.99-1.13,15.61,1.97c5.7,1.74,11,5.63,17.23,4.92
	c5.21-0.36,9.22-4.1,13.12-7.17c1.4,0.01,2.35,1.21,3.43,1.93c-3.92,4.63-9.13,9.14-15.51,9.24c-8.64,0.81-16.82-2.96-24.26-6.88
	c-5.03-0.87-11.18-0.24-14.41,4.19c-1.62,2.93-3.78,6.02-3.4,9.53c0.43,2.92,1.98,5.5,2.86,8.29
	C41.81,103.9,38.96,106.21,37.73,104.34z"/>
<path d="M189.391,77.16c3.129,0.52,6.069,1.83,8.5,3.9c-0.141,3.96,1.139,7.8,1.101,11.74c-1.2,2.81-3.962,5.31-7.16,5.41
	c2.028-1.81,4.239-3.46,5.948-5.59c0.212-3.52-1.1-7.02-0.879-10.59C194.54,80.17,191.5,79.33,189.391,77.16z"/>
<path d="M170,86.94c3.57-2.09,6.49-6.02,10.97-5.97c4.01-0.09,8.57-0.688,11.73,2.38c2.17,0.78,1.62,4.58-0.671,4.62
	c-1.829-0.79-3.439-2.02-5.259-2.82c-3.09-0.69-6.28-0.08-9.07,1.34c-0.57,1.49-0.9,3.14-1.97,4.39
	c-4.59,0.36-10.39,0.75-13.61-3.22c-0.76-1.6,0.71-2.74,1.44-3.98C165.56,85.03,167.65,86.32,170,86.94z"/>
<path d="M52.71,83.64c2.55-2.42,3.45,2.18,3.66,4.04c4.71,2.76,9.77,4.82,14.62,7.32c10.7,5.31,22.44,7.77,33.78,11.27
	c9.97,3.5,20.47,5.39,30.99,6.07c9.51,1.64,19.3,0.44,28.54-2.07c5.39-2.51,11.65-4.83,14.64-10.35c1.93-3.36-0.18-7.91,2.31-10.83
	c3.44-0.68,2.59,4.19,3.03,6.31c3.23,1.63,3.1,5.44,3.87,8.5c1.42,5.94,0.69,12.07,0.879,18.1c0.391,7.63-1.771,15.55-6.31,21.72
	c-7,6.08-16.92,6.49-25.73,7.351c-9.58,1.461-19.31,0.921-28.97,0.83c-8.6-1.381-17.54-1.119-25.81-4.141
	c-4.33-1.59-8.8-2.9-12.89-5.08c-10.85-6.36-21.26-14.08-28.31-24.69c-3.37-4.35-5.48-9.69-9.69-13.36
	c0.71-2.66-0.39-5.15-1.48-7.52c-2.72,0.57-8.96,2.65-8.76-1.86c2.8-1.81,6.55-1.78,9.18-4C51.6,88.92,51.68,86.1,52.71,83.64
	 M55.03,91.92c-2.84,3.68,1.04,7.33,2.25,10.81c5.62,2.32,10.7,5.97,16.58,7.6c-1.23-2.93-0.83-6.14-0.86-9.23
	C67.1,97.87,60.93,95.14,55.03,91.92 M76.9,102.74c-0.79,4.93,3.4,8.05,6.42,11.16c5.9-0.04,10.89,3.78,16.45,5.32
	c1.15-2.9,1.23-6.06,2.32-8.979C93.78,107.47,85.29,105.25,76.9,102.74 M182.07,103.12c-0.46,1.23,0.46,3.74,1.85,3.8
	C184.41,105.69,183.47,103.15,182.07,103.12 M177.12,109.79c1.35,3.29,0.79,6.9,0.87,10.36c1.42-0.83,2.85-1.62,4.26-2.45
	c-0.99-3.78-2.28-7.47-3.7-11.1C178.09,107.63,176.5,108.53,177.12,109.79 M184.19,109.19
	C184.87,109.87,184.87,109.87,184.19,109.19 M60.7,109.59c3.57,5.03,6.57,10.65,11.28,14.73c3.73-1.72,1.47-6.1,0.83-9.04
	C68.77,113.39,64.68,111.6,60.7,109.59 M165.69,114.53c0.65,2.95,3.61,5.729,1.33,8.7c1.86-0.73,3.77-1.32,5.79-1.38
	c1.18-3.55,1.85-7.4,0.06-10.89C170.55,112.29,168.14,113.46,165.69,114.53 M106.24,111.78c-1.18,2.9-1.23,6.08-2.35,9
	c4.12,0.96,8.32,1.57,12.29,3.1c3.26,0.3,6.54,0.07,9.82,0.11c-0.52-2.85,1.3-6.83-1.32-8.82
	C118.38,115,112.41,112.77,106.24,111.78 M147.07,116.99c1.24,2.14,0.92,4.64,0.97,7.01c3.45-0.13,7.02,0.46,10.37-0.61
	c1.8-0.55,3.7-0.34,5.56-0.39c-1.04-2.5-2.17-5.07-1.99-7.83C157.12,116.34,152.11,117.31,147.07,116.99 M130.02,115.88
	c-0.03,2.7-0.02,5.41-0.02,8.12c4.73-0.01,9.46,0.03,14.19-0.03c-0.18-2.38-0.89-4.66-1.42-6.97
	C138.43,117.56,134.31,116.06,130.02,115.88 M78,117.9c0,2.25,0,4.49-0.01,6.74c-1.08,0.99-2.14,1.99-3.2,3
	c6.32,4.15,12.25,8.96,19.02,12.4c0.87-2.73,1.6-5.58,3.42-7.86c1.38-1.64,0.71-3.93,0.7-5.87c-1.25-1.87-3.66-1.02-5.51-1.64
	C87.68,122.26,82.56,120.69,78,117.9 M101.99,127.02c-0.21,2.61,0.83,5.67-1.19,7.79c-1.51,2.04-2.08,4.56-2.99,6.89
	c4.35,1.72,8.94,2.69,13.39,4.14c3.72-0.06,7.25,1.34,10.97,1.23c-0.31-0.49-0.93-1.45-1.24-1.93c2.05-3.61,0.71-7.95,1.07-11.9
	C115.12,131.85,108.5,129.61,101.99,127.02 M179,141.53c2.18-3.43,3.99-7.14,4.97-11.1C181.46,133.54,178.94,137.42,179,141.53
	 M126,133.83c-0.35,4.35,0.86,8.97-0.85,13.1c4.64,1.91,9.76,0.78,14.63,1.07c1.16-3.93,1.28-8.05,2.43-11.98
	C136.69,136.33,131.18,135.88,126,133.83 M173.27,135.28c-1.46,3.34-3.33,6.479-4.66,9.88c3.39-1.15,7.64-1.04,9.93-4.22
	c-0.69,0.29-2.06,0.88-2.75,1.17c-0.48-0.36-1.45-1.09-1.94-1.46c0.85-2.26,1.65-4.53,2.45-6.81
	C175.29,134.33,174.28,134.81,173.27,135.28 M161.23,137.15c-0.65,3.53-2.22,6.77-3.57,10.06c2.5-0.46,4.94-1.21,7.49-1.34
	c-0.33-0.45-0.99-1.36-1.32-1.81c1.57-2.7,2.87-5.54,4.34-8.29C165.85,136.24,163.59,136.96,161.23,137.15 M147,136.99
	c-2.06,3.4-1.62,7.43-2.89,11.04c2.92,0,5.95,0.27,8.6-1.18c1.5-3.26,3.08-6.47,4.3-9.85C153.67,137,150.33,137,147,136.99z"/>
<path d="M103.29,90.43c1.91,0.71,1.64,2.83,1.94,4.47c-5.78,1.98-11.97,0.57-17.9,1.61c0.65-0.979,1.54-1.47,2.69-1.47
	c4.67-0.22,9.47,0.5,14.01-1.05C103.77,92.81,103.53,91.62,103.29,90.43z"/>
<path d="M105.99,94.1c2.72-2.51,6.27-3.76,9.97-3.14c1.81-0.44,4.3,1.8,2.45,3.38c-2.75,0.83-5.67,0.94-8.45,1.7
	c0.03,1.52,0.06,3.04,0.08,4.56c1.11,0.57,2.22,1.13,3.32,1.71c-0.56,1.26-0.56,3.63-2.34,3.73c-1.85-0.76-3.43-1.99-5.04-3.15
	C106,99.96,106,97.03,105.99,94.1z"/>
<path fill="#FFFFFF" d="M55.03,91.92c5.9,3.22,12.07,5.95,17.97,9.18c0.03,3.09-0.37,6.3,0.86,9.23c-5.88-1.63-10.96-5.28-16.58-7.6
	C56.07,99.25,52.19,95.6,55.03,91.92z"/>
<path fill="#B66600" d="M224.01,95H225c-0.01,4.67-0.01,9.33,0,14h-1C223.99,104.33,223.99,99.67,224.01,95z"/>
<path d="M225,95c0.75,0,2.25,0,3,0c0,4.67,0,9.33,0,14c-0.75,0-2.25,0-3,0C224.99,104.33,224.99,99.67,225,95z"/>
<path fill="#0066B6" d="M228,95h1c0,4.67,0,9.33,0,14h-1C228,104.33,228,99.67,228,95z"/>
<path fill="#904F00" d="M237.16,97.91c-1.051-1.07,0.5-3.38,1.88-2.82C239.2,96.37,238.27,97.44,237.16,97.91z"/>
<path d="M239.04,95.09c1.44-0.05,2.88-0.08,4.319-0.08c-0.149,0.38-0.449,1.13-0.601,1.5c-0.51,0.3-1.521,0.89-2.021,1.18
	c2.921-0.38,3.021,3.7,0.221,3.71c-0.04,2.53-0.04,5.06-0.05,7.6c-0.681,0-2.062,0.01-2.75,0.01c-0.132-2.66,0.14-5.51-1.28-7.9
	c-0.62-1.22-1.771-2.74,0.28-3.2C238.27,97.44,239.2,96.37,239.04,95.09z"/>
<path fill="#006BC3" d="M243.359,95.01c0.211,0.3,0.641,0.88,0.851,1.18l-0.69,0.62l-0.76-0.3
	C242.91,96.14,243.21,95.39,243.359,95.01z"/>
<path fill="#903A00" d="M270,95.01l1-0.01c-0.01,4.66-0.01,9.33,0,14h-1C270,104.33,270,99.67,270,95.01z"/>
<path d="M271,95c0.5,0,1.5,0,2,0c0.01,4.66,0.01,9.33,0,14c-0.5,0-1.5,0-2,0C270.99,104.33,270.99,99.66,271,95z"/>
<path fill="#003A90" d="M273,95l1,0.01c0,4.66,0,9.33,0,13.99h-1C273.01,104.33,273.01,99.66,273,95z"/>
<path fill="#B66600" d="M331.64,109.27c-1.05-4.73-1.09-9.88,0.021-14.6C332.18,99.52,332.19,104.42,331.64,109.27z"/>
<path d="M331.66,94.67c0.62,0.15,1.858,0.43,2.47,0.58c-0.42,1.33-0.43,2.76-0.08,4.12c0.271-0.1,0.8-0.3,1.07-0.4l0.87-0.32
	c0.14-0.05,0.43-0.15,0.568-0.2c3.172-1.88,5.892,1.96,5.602,4.88V104c-0.11,0.52-0.34,1.55-0.45,2.07
	c-0.05,0.12-0.15,0.37-0.2,0.49c-0.778,1.89-2.938,3.34-4.85,2.03c-0.11-0.07-0.34-0.2-0.45-0.27l-0.7-0.47
	c-1.46-0.74-1.87-0.39-1.22,1.04c-0.66,0.1-1.99,0.28-2.65,0.38C332.19,104.42,332.18,99.52,331.66,94.67 M335.34,101.9
	c0,0.8,0,2.4,0,3.21c0.102,0.1,0.29,0.32,0.38,0.42c0.58,0.15,1.74,0.46,2.32,0.61l-0.09-1.32c1.7,0.49,1.729-3.12,0.02-2.65
	l0.12-1.31c-0.59,0.15-1.78,0.45-2.37,0.6C335.62,101.57,335.43,101.79,335.34,101.9z"/>
<path fill="#000066" d="M334.13,95.25c1.54-0.03,1.24,2.65,0.99,3.72c-0.271,0.1-0.8,0.3-1.07,0.4
	C333.7,98.01,333.71,96.58,334.13,95.25z"/>
<path fill="#903A00" d="M365.64,109.31c-1.068-4.73-1.05-9.91-0.01-14.64C366.17,99.53,366.18,104.45,365.64,109.31z"/>
<path fill="#010101" d="M365.63,94.67c0.62,0.14,1.852,0.43,2.47,0.57c-0.42,1.32-0.408,2.74-0.05,4.07
	c0.271-0.09,0.8-0.28,1.07-0.37l0.88-0.3c0.16-0.06,0.48-0.16,0.64-0.22c0.881-0.03,2.642-0.11,3.521-0.14
	c0.1,0.09,0.29,0.28,0.39,0.38l0.521,0.68c0.028,3.32-0.051,6.65,0.27,9.97c-0.63-0.13-1.89-0.38-2.52-0.51
	c0.81-2.32,0.38-4.83-0.79-6.95l-0.23-0.53l-0.67,0.02l-1.25,0.01h-0.66l-0.229,0.53c-1.16,2.11-1.67,4.6-0.84,6.93
	c-0.631,0.12-1.881,0.37-2.512,0.5C366.18,104.45,366.17,99.53,365.63,94.67z"/>
<path fill="#00005D" d="M368.1,95.24c1.562-0.06,1.271,2.64,1.021,3.7c-0.271,0.09-0.8,0.28-1.07,0.37
	C367.69,97.98,367.68,96.56,368.1,95.24z"/>
<path d="M115.06,99.32c1.06-1.73,3.21-1.28,4.93-1.41c3.16-0.02,6.57,0.12,9.32,1.84c1.57,0.69,0.41,2.57-0.6,3.16
	c-2.88,0.38-5.63-0.92-8.49-0.9c-1.3,0.64-2.45,1.53-3.65,2.33C115.37,102.94,114.49,101.22,115.06,99.32z"/>
<path fill="#D58100" d="M244,101.9c-1.109-1.62,1.59-4.56,3.26-3.56C246.33,99.65,245.42,101.06,244,101.9z"/>
<path d="M247.26,98.34c1.49-0.75,3.48-0.47,5.051,0c0.09,0.06,0.289,0.16,0.379,0.21c1.392,0.8,2.541,2.03,2.23,3.76
	c0.1,0.4,0.301,1.19,0.4,1.59c-2.57,0.09-5.141,0.07-7.69,0.39l-0.351,0.03c0.07,0.09,0.211,0.28,0.281,0.38
	c0.278,0.38,0.85,1.14,1.129,1.52c2.121-0.688,4.261-1.4,6.521-1.25l-0.649,0.46c-1.281,0.71-2.131,1.91-2.891,3.13
	c-1.27,1.05-3.51,0.5-4.98,0.04c-0.108-0.07-0.318-0.19-0.43-0.25c-0.31-0.33-0.939-0.98-1.25-1.3c-0.199-0.51-0.58-1.52-0.779-2.03
	c-0.051-0.78-0.17-2.34-0.229-3.12C245.42,101.06,246.33,99.65,247.26,98.34 M249.061,102.22c0.439-0.11,1.299-0.33,1.739-0.438
	c0-0.14,0-0.42,0-0.562C250.01,99.84,246.811,101.48,249.061,102.22z"/>
<path fill="#006FD0" d="M252.311,98.34c0.09,0.06,0.289,0.16,0.379,0.21C252.6,98.5,252.4,98.4,252.311,98.34z"/>
<path fill="#D58100" d="M257.01,101.9c-1.119-1.61,1.58-4.56,3.25-3.57C259.34,99.65,258.42,101.05,257.01,101.9z"/>
<path d="M260.26,98.33c1.5-0.73,3.48-0.46,5.04,0.01c0.101,0.05,0.29,0.16,0.39,0.21c1.382,0.79,2.541,2.03,2.23,3.76
	c0.1,0.39,0.301,1.19,0.391,1.59c-2.561,0.09-5.141,0.07-7.681,0.39l-0.351,0.03c0.07,0.09,0.211,0.28,0.281,0.37
	c0.278,0.39,0.85,1.15,1.129,1.53c2.121-0.688,4.261-1.4,6.531-1.25l-0.66,0.46c-1.281,0.71-2.131,1.91-2.892,3.12
	c-1.26,1.07-3.51,0.5-4.979,0.05c-0.109-0.07-0.319-0.19-0.431-0.26c-0.319-0.32-0.938-0.97-1.25-1.29
	c-0.188-0.51-0.579-1.52-0.778-2.03c-0.051-0.78-0.17-2.34-0.222-3.12C258.42,101.05,259.34,99.65,260.26,98.33 M262.061,102.22
	c0.431-0.11,1.299-0.33,1.739-0.438c0-0.14,0-0.42,0-0.562C263.02,99.84,259.811,101.48,262.061,102.22z"/>
<path fill="#006FD0" d="M265.3,98.34c0.101,0.05,0.29,0.16,0.39,0.21C265.59,98.5,265.4,98.39,265.3,98.34z"/>
<path d="M277.141,99.43c1.271-2.29,4.33-1.37,6.469-1.26c0.961,0.9,1.781,1.95,2.632,2.97c-2.171-0.11-4.222-0.88-6.36-1.01
	c-1.521,0.39-1.55,0.91-0.08,1.57c1.4,0.22,2.801,0.38,4.221,0.5c0.021,1.12,0.601,1.89,1.75,2.31l0.381,0.84l-0.021,0.67
	l-0.33,0.87c-0.078,0.13-0.22,0.39-0.3,0.53c-2.021,2.1-5.26,1.94-7.84,1.21c-0.11-0.07-0.34-0.21-0.46-0.29
	c-0.342-0.42-1.012-1.26-1.342-1.68l-0.358-0.55c0.96,0.08,2.892,0.25,3.851,0.33c0.131,0.03,0.41,0.09,0.541,0.11
	c0.5,0.09,1.51,0.25,2.01,0.33c1.58-0.21,1.688-0.73,0.31-1.55c-1.83-0.51-3.63-1.09-5.409-1.71l0.129-0.85
	C277.12,101.67,277.189,100.55,277.141,99.43z"/>
<path fill="#DB7600" d="M294.13,99.95c-1.601-0.29-1.76-0.88-0.47-1.77C293.779,98.62,294.01,99.51,294.13,99.95z"/>
<path d="M293.66,98.18c0.91-0.02,2.72-0.07,3.619-0.09l-0.25,0.93c0.16,0.51,0.5,1.54,0.66,2.05l0.181,0.99
	c-0.479,1.29-0.13,2.12,1.05,2.49l0.721,0.19c0.129-0.44,0.379-1.31,0.5-1.74l0.109-0.97c0.21-0.49,0.641-1.46,0.85-1.95
	c-0.06-0.47-0.16-1.41-0.209-1.89c0.859-0.02,2.59-0.07,3.449-0.1c-0.109,0.43-0.32,1.28-0.43,1.71l-0.131,1.14
	c-0.199,0.52-0.6,1.56-0.799,2.09l-0.24,0.938c-0.19,0.521-0.561,1.562-0.75,2.09l-0.29,0.97c-0.181,0.53-0.55,1.59-0.729,2.13
	l-0.271,0.81c-0.06,0.12-0.181,0.37-0.24,0.49c-0.41,0.62-1.21,1.87-1.62,2.5c-1.58,0.01-3.16,0.01-4.73-0.02
	c-0.08-0.54-0.229-1.62-0.31-2.15l-0.09-0.6c0.81-0.07,2.41-0.22,3.21-0.29c0.051-0.5,0.141-1.48,0.189-1.97
	c-0.209-0.5-0.629-1.51-0.83-2.01l-0.319-0.98c-0.2-0.54-0.59-1.62-0.79-2.16l-0.5-0.95c-0.08-0.18-0.23-0.54-0.3-0.72l-0.24-1.16
	C294.01,99.51,293.779,98.62,293.66,98.18z"/>
<path fill="#0055B0" d="M304.34,98.09c1.301,0.91,1.16,1.48-0.43,1.71C304.02,99.37,304.23,98.52,304.34,98.09z"/>
<path fill="#B86700" d="M308.22,98.58c0.12-0.06,0.352-0.18,0.472-0.24C308.57,98.4,308.34,98.52,308.22,98.58z"/>
<path d="M308.69,98.34c2.328-0.78,4.988-0.48,7.18,0.63l0.04,1.08c0.108,2.78,0.358,5.56,0.858,8.3l0.132,0.75
	c-0.79-0.05-2.36-0.13-3.15-0.18c0.61-1.43,0.19-1.78-1.25-1.04l-0.69,0.45c-0.108,0.06-0.34,0.19-0.448,0.26
	c-1.53,0.52-3.13,0.53-4.802,0.01l0.2-0.82c0.41-1.53,0.75-3.08,0.99-4.65c0.86-0.07,2.58-0.19,3.44-0.26l0.52-0.01l0.29-0.41
	c0.29-0.41,0.89-1.21,1.19-1.62c-2.19,0.31-4.312,1.02-6.512,1.18c0.11-0.42,0.341-1.27,0.45-1.7c0.271-0.43,0.82-1.3,1.09-1.73
	C308.34,98.52,308.57,98.4,308.69,98.34 M310.51,105.99c0.44-0.06,1.312-0.19,1.75-0.25c0.102-0.12,0.32-0.37,0.432-0.5l0.04-0.68
	c-0.44-0.18-1.32-0.54-1.762-0.72C309.17,102.6,308.32,106.55,310.51,105.99z"/>
<path fill="#B66600" d="M335.99,98.65c0.14-0.05,0.43-0.15,0.568-0.2C336.42,98.5,336.13,98.6,335.99,98.65z"/>
<path fill="#660000" d="M344.63,109.33c-0.88-3.67-1.37-8.09,0.22-11.57C345.13,101.61,345.11,105.49,344.63,109.33z"/>
<path fill="#000005" d="M344.85,97.76c0.73,0.13,2.2,0.39,2.94,0.521c0.05,0.01,0.16,0.02,0.21,0.02c0.06,0,0.18,0,0.24,0
	c0.818-0.05,2.45-0.16,3.26-0.21l-0.08,0.59c-0.1,1.69-1.03,2.6-2.78,2.76l-0.5,0.15l-0.148,0.5l-0.271,0.79
	c-0.8,1.85-1.21,3.92-0.608,5.9c-0.62,0.14-1.86,0.41-2.48,0.55C345.11,105.49,345.13,101.61,344.85,97.76z"/>
<path fill="#006FD0" d="M347.79,98.28l0.22-0.08L348,98.3C347.95,98.3,347.84,98.29,347.79,98.28z"/>
<path fill="#D06F00" d="M348.01,98.2l0.23,0.1c-0.062,0-0.182,0-0.24,0L348.01,98.2z"/>
<path fill="#003A90" d="M351.5,98.09c-0.02,0.15-0.06,0.45-0.08,0.59L351.5,98.09z"/>
<path fill="#B86700" d="M354.22,98.58c0.12-0.06,0.36-0.18,0.48-0.24C354.58,98.4,354.34,98.52,354.22,98.58z"/>
<path d="M354.7,98.34c2.318-0.78,4.979-0.48,7.17,0.63l0.04,1.08c0.109,2.78,0.35,5.56,0.859,8.3l0.131,0.75
	c-0.79-0.05-2.36-0.13-3.15-0.17c0.61-1.44,0.19-1.79-1.25-1.05l-0.689,0.45c-0.109,0.07-0.329,0.19-0.439,0.26
	c-1.54,0.52-3.14,0.53-4.8,0.01l0.199-0.81c0.399-1.54,0.739-3.09,0.979-4.66c0.86-0.06,2.58-0.19,3.43-0.26l0.521-0.01l0.29-0.41
	c0.3-0.4,0.898-1.21,1.2-1.62c-2.19,0.31-4.302,1.01-6.512,1.18c0.11-0.42,0.341-1.27,0.45-1.7c0.28-0.43,0.82-1.3,1.09-1.73
	C354.34,98.52,354.58,98.4,354.7,98.34 M356.51,105.99c0.44-0.07,1.312-0.19,1.75-0.25c0.102-0.12,0.32-0.37,0.432-0.49l0.04-0.69
	c-0.44-0.18-1.32-0.54-1.762-0.72C355.18,102.6,354.32,106.55,356.51,105.99z"/>
<path fill="#B66600" d="M370,98.64c0.16-0.06,0.48-0.16,0.64-0.22C370.48,98.48,370.16,98.58,370,98.64z"/>
<path fill="#0085FF" d="M374.16,98.28c0.1,0.09,0.29,0.28,0.39,0.38C374.45,98.56,374.26,98.37,374.16,98.28z"/>
<path fill="#8B2A00" d="M276.93,102.77c-1.82,0.31-1.619-3.99,0.211-3.34C277.189,100.55,277.12,101.67,276.93,102.77z"/>
<path fill="#006BC3" d="M297.029,99.02l0.841,0.28c-0.05,0.45-0.13,1.33-0.181,1.77C297.529,100.56,297.189,99.53,297.029,99.02z"/>
<path fill="#0055B0" d="M279.8,101.7c-1.47-0.66-1.44-1.18,0.08-1.57C279.859,100.52,279.82,101.31,279.8,101.7z"/>
<path fill="#C36B00" d="M300.221,100.25l0.879-0.17c-0.209,0.49-0.64,1.46-0.85,1.95C300.24,101.59,300.23,100.7,300.221,100.25z"/>
<path fill="#AF5400" d="M306.68,102.01c-1.3-0.97-1.15-1.54,0.45-1.7C307.02,100.74,306.79,101.59,306.68,102.01z"/>
<path fill="#004198" d="M315.91,100.05l1.12,0.06c-0.03,2.75-0.09,5.5-0.262,8.24C316.27,105.61,316.02,102.83,315.91,100.05z"/>
<path fill="#AF5400" d="M352.68,102.01c-1.3-0.97-1.148-1.54,0.45-1.7C353.02,100.74,352.79,101.59,352.68,102.01z"/>
<path fill="#004198" d="M361.91,100.05l1.12,0.05c-0.03,2.75-0.09,5.5-0.262,8.25C362.26,105.61,362.02,102.83,361.91,100.05z"/>
<path fill="#003F94" d="M375.07,99.34c1.52,3.07,1.59,6.82,0.27,9.97C375.02,105.99,375.1,102.66,375.07,99.34z"/>
<path fill="#B66600" d="M236.88,101.11c1.42,2.39,1.149,5.24,1.28,7.9l-1.15-0.02C237.01,106.36,237.01,103.74,236.88,101.11z"/>
<path fill="#FFFFFF" d="M249.061,102.22c-2.25-0.74,0.949-2.38,1.739-1v0.562C250.359,101.89,249.5,102.11,249.061,102.22z"/>
<path fill="#B66600" d="M250.8,101.22c0,0.14,0,0.42,0,0.562V101.22z"/>
<path fill="#FFFFFF" d="M262.061,102.22c-2.25-0.74,0.959-2.38,1.739-1v0.562C263.359,101.89,262.49,102.11,262.061,102.22z"/>
<path fill="#B66600" d="M263.8,101.22c0,0.14,0,0.42,0,0.562V101.22z"/>
<path fill="#D06F00" d="M294.37,101.11c0.069,0.18,0.22,0.54,0.3,0.72C294.59,101.65,294.439,101.29,294.37,101.11z"/>
<path fill="#0054AF" d="M302.98,103.03c0.199-0.53,0.6-1.57,0.799-2.09c0.021,0.46,0.051,1.38,0.061,1.84L302.98,103.03z"/>
<path fill="#0066B6" d="M335.34,101.9c0.09-0.11,0.28-0.33,0.38-0.44C335.62,101.57,335.43,101.79,335.34,101.9z"/>
<path fill="#FFFFFF" d="M335.72,101.46c0.59-0.15,1.78-0.45,2.37-0.6l-0.12,1.31c0,0.66-0.01,1.99-0.02,2.65l0.09,1.32
	c-0.58-0.15-1.74-0.46-2.32-0.61c-0.09-0.1-0.278-0.32-0.38-0.42c0-0.81,0-2.41,0-3.21C335.43,101.79,335.62,101.57,335.72,101.46z"
	/>
<path fill="#006FD0" d="M348.14,101.59l0.5-0.15c-0.158,0.16-0.488,0.48-0.648,0.65L348.14,101.59z"/>
<path fill="#006FD0" d="M369.22,101.35h0.66c-0.22,0.14-0.66,0.4-0.89,0.53L369.22,101.35z"/>
<path fill="#FF8500" d="M371.13,101.34l0.67-0.02l0.23,0.53C371.8,101.72,371.35,101.46,371.13,101.34z"/>
<path fill="#0085FF" d="M254.92,102.31c1.609,0.15,1.75,0.68,0.4,1.59C255.221,103.5,255.02,102.71,254.92,102.31z"/>
<path fill="#0085FF" d="M267.92,102.31c1.609,0.15,1.74,0.69,0.391,1.59C268.221,103.5,268.02,102.7,267.92,102.31z"/>
<path fill="#004E92" d="M284.02,102.2c1.621-0.02,2.201,0.74,1.75,2.31C284.62,104.09,284.04,103.32,284.02,102.2z"/>
<path fill="#0065CA" d="M297.87,102.06c0.36,0.2,1.08,0.59,1.44,0.79c-0.102,0.43-0.302,1.27-0.392,1.7
	C297.74,104.18,297.391,103.35,297.87,102.06z"/>
<path fill="#D06F00" d="M311.19,102.87c0.198-0.1,0.6-0.32,0.81-0.42l-0.29,0.41L311.19,102.87z"/>
<path fill="#C06900" d="M337.97,102.17c1.71-0.47,1.682,3.14-0.02,2.65C337.96,104.16,337.97,102.83,337.97,102.17z"/>
<path fill="#D06F00" d="M357.18,102.87c0.21-0.1,0.61-0.31,0.812-0.42l-0.29,0.41L357.18,102.87z"/>
<path fill="#000060" d="M368.15,108.81c-0.83-2.33-0.32-4.82,0.84-6.93C368.81,103.88,370.12,107.98,368.15,108.81z"/>
<path fill="#660000" d="M372.03,101.85c1.17,2.12,1.6,4.63,0.79,6.95C370.89,107.92,372.16,103.86,372.03,101.85z"/>
<path fill="#FFFFFF" d="M76.9,102.74c8.39,2.51,16.88,4.729,25.19,7.5c-1.09,2.92-1.17,6.08-2.32,8.979
	c-5.56-1.54-10.55-5.36-16.45-5.32C80.3,110.79,76.11,107.67,76.9,102.74z"/>
<path fill="#FFFFFF" d="M182.07,103.12c1.4,0.03,2.34,2.57,1.85,3.8C182.53,106.86,181.61,104.35,182.07,103.12z"/>
<path fill="#AF5400" d="M295.17,102.78c0.2,0.54,0.59,1.62,0.79,2.16l-0.851-0.27C295.13,104.2,295.16,103.25,295.17,102.78z"/>
<path fill="#C77600" d="M299.311,102.85l0.83,0.15c-0.121,0.43-0.371,1.3-0.5,1.74l-0.721-0.19
	C299.01,104.12,299.21,103.28,299.311,102.85z"/>
<path fill="#D58100" d="M306.76,107.78c-2.039-0.38-1.06-4.96,0.99-4.65C307.51,104.7,307.17,106.25,306.76,107.78z"/>
<path fill="#0085FF" d="M342.16,103.33c0,0.17,0,0.5,0,0.67V103.33z"/>
<path fill="#003089" d="M347.11,108.78c-0.602-1.98-0.19-4.05,0.608-5.9C348.25,104.45,348.98,108.26,347.11,108.78z"/>
<path fill="#D58100" d="M352.77,107.79c-2.038-0.39-1.078-4.96,0.98-4.66C353.51,104.7,353.17,106.25,352.77,107.79z"/>
<path fill="#0066B6" d="M247.279,104.32l0.351-0.03l-0.069,0.41C247.49,104.6,247.35,104.41,247.279,104.32z"/>
<path fill="#0066B6" d="M260.279,104.32l0.351-0.03l-0.069,0.4C260.49,104.6,260.35,104.41,260.279,104.32z"/>
<path fill="#0076DB" d="M301.99,106.06c0.189-0.53,0.56-1.57,0.75-2.09c0.029,0.46,0.08,1.37,0.109,1.83L301.99,106.06z"/>
<path fill="#004479" d="M310.51,105.99c-2.188,0.56-1.34-3.39,0.46-2.15C310.85,104.37,310.63,105.45,310.51,105.99z"/>
<path fill="#FFFFFF" d="M310.97,103.84c0.44,0.18,1.32,0.54,1.762,0.72l-0.04,0.68c-0.11,0.13-0.33,0.38-0.432,0.5
	c-0.438,0.06-1.31,0.19-1.75,0.25C310.63,105.45,310.85,104.37,310.97,103.84z"/>
<path fill="#004479" d="M356.51,105.99c-2.188,0.56-1.33-3.39,0.46-2.15C356.85,104.37,356.62,105.45,356.51,105.99z"/>
<path fill="#FFFFFF" d="M356.97,103.84c0.44,0.18,1.32,0.54,1.762,0.72l-0.04,0.69c-0.11,0.12-0.33,0.37-0.432,0.49
	c-0.438,0.06-1.31,0.18-1.75,0.25C356.62,105.45,356.85,104.37,356.97,103.84z"/>
<path fill="#9B3800" d="M244.23,105.02c0.199,0.51,0.58,1.52,0.778,2.03l-0.868-0.24C244.16,106.36,244.21,105.47,244.23,105.02z"/>
<path fill="#9B3800" d="M257.23,105.02c0.199,0.51,0.59,1.52,0.778,2.03l-0.868-0.24C257.16,106.36,257.21,105.47,257.23,105.02z"/>
<path fill="#FF8500" d="M282.21,105.33c1.38,0.82,1.271,1.34-0.31,1.55C281.98,106.49,282.13,105.72,282.21,105.33z"/>
<path fill="#0085FF" d="M286.15,105.35c-0.01,0.17-0.01,0.5-0.021,0.67L286.15,105.35z"/>
<path fill="#D06F00" d="M312.26,105.74c0.102-0.12,0.32-0.37,0.432-0.5C312.58,105.37,312.36,105.62,312.26,105.74z"/>
<path fill="#22060E" d="M318.95,104.95c0.818,0.03,2.45,0.1,3.26,0.13c-0.37,1.86-0.32,3.77-0.21,5.65
	c-0.19,1.08-0.94,1.83-2.26,2.25c0.12-0.39,0.358-1.18,0.49-1.58c0.13-0.54,0.398-1.63,0.528-2.17
	C318.3,109.17,319.21,106.58,318.95,104.95z"/>
<path fill="#001173" d="M322.21,105.08c1.54,0.53,1.56,5.37-0.21,5.65C321.89,108.85,321.84,106.94,322.21,105.08z"/>
<path fill="#0066B6" d="M335.34,105.11c0.102,0.1,0.29,0.32,0.38,0.42C335.63,105.43,335.44,105.21,335.34,105.11z"/>
<path fill="#D06F00" d="M358.26,105.74c0.102-0.12,0.32-0.37,0.432-0.49C358.58,105.37,358.36,105.62,358.26,105.74z"/>
<path fill="#004581" d="M251.67,108.56c0.76-1.22,1.609-2.42,2.891-3.13C255.67,106.87,253.18,109.51,251.67,108.56z"/>
<path fill="#004581" d="M264.67,108.55c0.76-1.21,1.609-2.41,2.891-3.12C268.67,106.87,266.18,109.51,264.67,108.55z"/>
<path fill="#FF8500" d="M275.859,106.66c-0.09-0.14-0.271-0.42-0.359-0.55L275.859,106.66z"/>
<path fill="#0066B6" d="M279.35,106.44c0.131,0.03,0.41,0.09,0.541,0.11C279.76,106.53,279.48,106.47,279.35,106.44z"/>
<path fill="#DB7600" d="M296.279,105.92c0.201,0.5,0.621,1.51,0.83,2.01l-0.879-0.2C296.24,107.27,296.26,106.37,296.279,105.92z"/>
<path fill="#0066B6" d="M341.51,106.56c0.05-0.12,0.15-0.37,0.2-0.49C341.66,106.19,341.56,106.44,341.51,106.56z"/>
<path fill="#FFFFFF" d="M177.12,109.79c-0.62-1.26,0.97-2.16,1.43-3.19c1.42,3.63,2.71,7.32,3.7,11.1
	c-1.41,0.83-2.84,1.62-4.26,2.45C177.91,116.69,178.47,113.08,177.12,109.79z"/>
<path fill="#006FD0" d="M285.5,107.42c0.08-0.14,0.221-0.4,0.3-0.53C285.721,107.02,285.58,107.28,285.5,107.42z"/>
<path fill="#0076DB" d="M300.971,109.16c0.18-0.54,0.549-1.6,0.729-2.13c0.03,0.45,0.1,1.37,0.14,1.83L300.971,109.16z"/>
<path fill="#B06B00" d="M312.5,107.88c1.44-0.74,1.86-0.39,1.25,1.04C313.44,108.66,312.81,108.14,312.5,107.88z"/>
<path fill="#003A90" d="M334.29,108.89c-0.65-1.43-0.24-1.78,1.22-1.04C335.2,108.11,334.59,108.63,334.29,108.89z"/>
<path fill="#B06B00" d="M358.5,107.88c1.44-0.74,1.86-0.39,1.25,1.05C359.44,108.66,358.81,108.14,358.5,107.88z"/>
<path fill="#FF8500" d="M246.26,108.35c0.11,0.06,0.32,0.18,0.43,0.25C246.58,108.53,246.37,108.41,246.26,108.35z"/>
<path fill="#FF8500" d="M259.26,108.34c0.11,0.07,0.32,0.19,0.43,0.26C259.58,108.53,259.37,108.41,259.26,108.34z"/>
<path fill="#D06F00" d="M277.2,108.34c0.12,0.08,0.35,0.22,0.46,0.29C277.55,108.56,277.32,108.42,277.2,108.34z"/>
<path fill="#0066B6" d="M311.36,108.59c0.108-0.07,0.34-0.2,0.448-0.26C311.7,108.39,311.47,108.52,311.36,108.59z"/>
<path fill="#B66600" d="M336.21,108.32c0.11,0.07,0.34,0.2,0.45,0.27C336.55,108.52,336.32,108.39,336.21,108.32z"/>
<path fill="#0066B6" d="M357.37,108.59c0.11-0.07,0.33-0.19,0.438-0.26C357.7,108.4,357.48,108.52,357.37,108.59z"/>
<path fill="#FFFFFF" d="M184.19,109.19C184.87,109.87,184.87,109.87,184.19,109.19z"/>
<path fill="#FFFFFF" d="M60.7,109.59c3.98,2.01,8.07,3.8,12.11,5.69c0.64,2.938,2.9,7.32-0.83,9.04
	C67.27,120.24,64.27,114.62,60.7,109.59z"/>
<path fill="#FF8500" d="M293.8,110.79c-0.021-0.15-0.06-0.45-0.09-0.6L293.8,110.79z"/>
<path fill="#006FD0" d="M300.46,110.46c0.06-0.12,0.181-0.37,0.24-0.49C300.641,110.09,300.52,110.34,300.46,110.46z"/>
<path fill="#FFFFFF" d="M165.69,114.53c2.45-1.07,4.86-2.24,7.18-3.57c1.79,3.49,1.12,7.34-0.06,10.89
	c-2.02,0.06-3.93,0.65-5.79,1.38C169.3,120.26,166.34,117.48,165.69,114.53z"/>
<path fill="#C76000" d="M319.46,111.14l0.771,0.26c-0.132,0.4-0.37,1.19-0.49,1.58c-0.23-0.29-0.69-0.89-0.92-1.18L319.46,111.14z"
	/>
<path fill="#FFFFFF" d="M106.24,111.78c6.17,0.99,12.14,3.22,18.44,3.39c2.62,1.99,0.8,5.97,1.32,8.82
	c-3.28-0.04-6.56,0.19-9.82-0.11c-3.97-1.53-8.17-2.14-12.29-3.1C105.01,117.86,105.06,114.68,106.24,111.78z"/>
<path fill="#FFFFFF" d="M147.07,116.99c5.04,0.32,10.05-0.65,14.91-1.82c-0.18,2.76,0.95,5.33,1.99,7.83
	c-1.86,0.05-3.76-0.16-5.56,0.39c-3.35,1.07-6.92,0.48-10.37,0.61C147.99,121.63,148.31,119.13,147.07,116.99z"/>
<path fill="#FFFFFF" d="M130.02,115.88c4.29,0.18,8.41,1.68,12.75,1.12c0.53,2.31,1.24,4.59,1.42,6.97
	c-4.73,0.062-9.46,0.021-14.19,0.03C130,121.29,129.99,118.58,130.02,115.88z"/>
<path fill="#FF0055" d="M30.53,116.58c1.74,1.86,3.21,4.08,5.5,5.35c7.46,3.95,11.49,12.15,18.9,16.18
	c5.89,3.69,10.26,9.41,16.62,12.36c4.51,2.921,9.76,4.58,13.89,8.08c3.49,2.771,7.39,4.89,11.49,6.58c4.82,3.46,10.6,5.19,15.64,8.3
	c4.42,2.771,9.65,3.65,14.36,5.79c0.05,1.45,0.09,2.91,0.14,4.37c3.73,0.94,6.76,3.391,10.2,4.98c-1.65,4.64-4.53,8.72-6.46,13.26
	c-3.79,5.82-4.37,13.01-7.98,18.92c-9.93-1.859-18.7-7.08-28.12-10.48c-7.02-3.568-14.35-6.479-21.66-9.34
	c-6.62-5.13-14.77-7.64-21.75-12.199c-4.73-2.09-8.66-5.5-13.26-7.811c-5.52-2.939-9.9-7.5-15.23-10.73
	c-3.56-2.52-7.53-4.528-10.74-7.52c-0.38-2.35,1.42-4.29,2.25-6.35C20.43,143.37,26.5,130.37,30.53,116.58z"/>
<path fill="#FFFFFF" d="M78,117.9c4.56,2.79,9.68,4.36,14.42,6.77c1.85,0.62,4.26-0.23,5.51,1.64c0.01,1.94,0.68,4.23-0.7,5.87
	c-1.82,2.28-2.55,5.13-3.42,7.86c-6.77-3.44-12.7-8.25-19.02-12.4c1.06-1.01,2.12-2.01,3.2-3C78,122.39,78,120.15,78,117.9z"/>
<path fill="#FF0055" d="M201,120.85c12,7.84,21.25,19.24,33.85,26.23c1.5,1.01,3.7,1.35,4.53,3.12l0.021,0.63
	c-1.5,2.35-4.359,3.33-5.979,5.57c-4.729,7.438-11.601,13.229-16.34,20.67c-3.319,5.72-8.53,10.09-11.601,15.979
	c-3.069-2.658-5.381-6.01-6.791-9.818c-1.959-0.771-3.938-1.521-5.89-2.32c3.931-2.42,6.82-6.13,8.91-10.2
	c2.24-3.86,1.021-8.5,1.33-12.729c0.351-5.439-2.17-10.529-2.069-15.949C201,134.97,201,127.91,201,120.85z"/>
<path fill="#FFFFFF" d="M101.99,127.02c6.51,2.59,13.13,4.83,20.01,6.22c-0.36,3.95,0.98,8.29-1.07,11.9
	c0.31,0.48,0.93,1.44,1.24,1.93c-3.72,0.11-7.25-1.29-10.97-1.23c-4.45-1.45-9.04-2.42-13.39-4.14c0.91-2.33,1.48-4.85,2.99-6.89
	C102.82,132.69,101.78,129.63,101.99,127.02z"/>
<path fill="#FFFFFF" d="M179,141.53c-0.06-4.11,2.46-7.99,4.97-11.1C182.99,134.39,181.18,138.1,179,141.53z"/>
<path fill="#FFFFFF" d="M126,133.83c5.18,2.05,10.69,2.5,16.21,2.19c-1.15,3.93-1.27,8.05-2.43,11.98
	c-4.87-0.29-9.99,0.84-14.63-1.07C126.86,142.8,125.65,138.18,126,133.83z"/>
<path fill="#FFFFFF" d="M173.27,135.28c1.01-0.47,2.02-0.95,3.03-1.44c-0.8,2.28-1.6,4.55-2.45,6.81c0.49,0.37,1.46,1.1,1.94,1.46
	c0.69-0.29,2.06-0.88,2.75-1.17c-2.29,3.18-6.54,3.07-9.93,4.22C169.94,141.76,171.81,138.62,173.27,135.28z"/>
<path fill="#FFFFFF" d="M161.23,137.15c2.36-0.19,4.62-0.91,6.94-1.38c-1.47,2.75-2.77,5.59-4.34,8.29
	c0.33,0.45,0.99,1.36,1.32,1.81c-2.55,0.13-4.99,0.88-7.49,1.34C159.01,143.92,160.58,140.68,161.23,137.15z"/>
<path fill="#FFFFFF" d="M147,136.99c3.33,0.01,6.67,0.01,10.01,0.01c-1.22,3.38-2.8,6.59-4.3,9.85c-2.65,1.45-5.68,1.18-8.6,1.18
	C145.38,144.42,144.94,140.39,147,136.99z"/>
<path fill="#010100" d="M69.61,140.93c4.42,0.09,8.02,2.88,11.87,4.65c7.32,4.109,15.17,7.17,23.1,9.87
	c7.13,2.93,14.61,5.37,22.39,5.56c4.87,0.141,9.79-0.42,14.62,0.42c5.42,1,10.96,0.45,16.43,0.602c4.83,0.158,9.6-1.12,14.01-3
	c3.72-1.551,6.04-5.03,9.29-7.271c-3.02,7.631-11.88,10.33-19.32,11.2c-6.58-0.01-13.2,0.38-19.76-0.26
	c-7.42-1.601-15.08,0.19-22.51-1.341c-7.22-0.899-13.77-4.25-20.61-6.469C88.75,151.42,79.29,145.87,69.61,140.93z"/>
<path fill="#FFFFFF" d="M239.38,150.2h0.591c-0.141,0.159-0.431,0.479-0.57,0.63L239.38,150.2z"/>
<path fill="#FFFFFF" d="M86.19,155.189C86.87,155.87,86.87,155.87,86.19,155.189z"/>
<path fill="#FFFFFF" d="M88.19,156.2C88.87,156.87,88.87,156.87,88.19,156.2z"/>
<path d="M125,156c11,0,21.99,0,32.98,0l0.02,1c-11,0-21.99,0-32.99,0L125,156z"/>
<path fill="#FF0055" d="M7.59,164.74c5.64,3.07,10.77,6.97,16.02,10.619c5.08,4.471,10.78,8.16,16.77,11.281
	c7.81,5.51,16.42,9.76,24.96,14.028c3.08,1.479,5.62,3.95,8.89,5.07c6.47,2.29,12.61,5.409,18.91,8.108
	c12.26,4.87,24.31,10.86,37.54,12.521c9.09,1.63,18.42-0.49,27.47,1.479c4.76,1.041,9.64,1.32,14.51,1.211
	c2.27,5.771,5.54,11.021,9.68,15.619c4.65,4.961,2.15,12.17,2.12,18.2c1.75,6.95,4.17,13.72,6.12,20.62
	c1.79,0.41,3.58,0.82,5.359,1.29c5.381-3.97,6.621-11.25,6.66-17.46c-3.539-7.07,0.42-14.74-0.629-22.17
	c2.51,1.92,5.639,2.029,8.658,1.65c0.2-1.871,0.359-3.74,0.512-5.621c-2.031-1.101-4.07-2.189-6.102-3.289
	c-1,1.699-1.91,3.438-2.762,5.22c-0.59-4.32-2.209-8.38-4.139-12.261c-1.881-3.59-2.431-7.649-3.291-11.549
	c0.98-0.592,1.961-1.17,2.95-1.74c0-6.381,1.99-13.48,7.54-17.221c3.08-1.789,4-5.41,5.721-8.289
	c2.039-3.871,5.299-6.871,7.959-10.302c3.221,1.771,6.16,3.979,9.24,5.972c9.4,5.17,19.83,8.278,28.881,14.1
	c2.119,1.55,3.92,3.55,5.199,5.85c3.359,6.021,6.6,12.23,8.03,19.03c2.43,7.09,4.819,14.33,5.399,21.851
	c-4.681,5.569-10.729,10.25-17.74,12.459c-3.25,1.11-6.729,1.2-10.069,1.94c-2.84-8.66-6.069-17.34-11.12-24.99
	c-0.82,0.04-2.46,0.13-3.279,0.171c1.93,6.129,5.399,11.641,7.609,17.68c2.17,4.671,2.26,9.939,4.32,14.641
	c2.119,5.28,1.47,11.03,1.56,16.568c0.04,3.021-0.18,6.062-1.021,8.972H49.04c-0.02-1.351-0.05-2.7-0.11-4.05
	c-0.57-3.061,1.83-5.41,3.04-7.979c2.37-4.66,4.37-9.502,6.89-14.08c3.67-9.342,9.36-17.722,15.48-25.602
	c0.74-1,1.42-2.05,1.92-3.182c-0.95-0.828-1.94-1.6-2.91-2.39c-5.58,8.021-11.66,15.78-16.04,24.562
	c-1.9,4.93-4.85,9.359-6.76,14.279c-1.76,4.41-4.16,8.51-6.75,12.469c-7.32,0.092-14.66-0.629-21.83-2.02
	c-7.27-2.32-14.67-4.16-21.97-6.35V173.609C2.71,170.811,5.46,168.02,7.59,164.74 M199.16,225.41c-0.96,2.199,0.67,4.05,2,5.609
	c2.29-0.021,4.57-0.021,6.869-0.021c-0.01-2.25,0.091-4.5-0.149-6.729c-1.33-1.209-3-2.149-4.79-2.399
	C201.471,222.62,200.27,224.05,199.16,225.41 M204.061,253.3c-0.08,1.86-0.66,4.261,1.129,5.521c1.541,1.778,5.281,1.92,6.66-0.12
	c0.271-2.19,0.16-4.4,0.18-6.602C209.279,250.62,206.21,250.939,204.061,253.3 M208.34,265.96c-1.42,1.75-3.529,3.09-4.35,5.229
	c-0.99,4.41,4.869,5,7.99,4.961c0.01-2.631,0.188-5.26-0.121-7.87C210.76,267.391,209.529,266.7,208.34,265.96z"/>
<path fill="#D58100" d="M133.54,181.97c6.85,1.79,13.74,3.47,20.69,4.79c4.8,0.54,9.65,0.16,14.47,0.18
	c-1,5.701-2.08,12.552,2.4,17.092c0.79-0.03,2.38-0.08,3.17-0.102c-0.27-2.199-1.18-4.199-2.03-6.21c-0.58-3.5-0.16-7.09-0.24-10.62
	c5.67,0.49,10.89-1.76,16.11-3.539c2.531,0.84,4.94,2,7.48,2.799c0.891,4.33,4.2,7.382,7.76,9.672
	c-5.209,4.8-9.55,11.359-9.56,18.648c-1.33,1.44-3.05,2.65-3.87,4.48c1.65,7.04,4.311,13.869,7.6,20.34
	c1.852,8.12-0.89,16.359-0.56,24.54c-0.149,1.64,0.761,3.021,1.569,4.351c-0.539,3.609-1.18,7.25-2.819,10.549
	c-0.39,0.012-1.16,0.03-1.54,0.052c-2.141-3.722-2.76-8.07-4.1-12.091c-2.36-6.59-0.131-13.729-1.42-20.449
	c-3.19-4.53-7.35-8.4-9.57-13.57c-2.07-3.06-2.55-7.18-5.63-9.488c-0.06-4.371-4.59-5.541-7.86-7.041
	c-3.02-1.289-5.98,0.551-8.8,1.431c-4.11,0.649-8.31-0.21-12.42,0.438c-1.01,0.842-1.9,1.82-2.81,2.771
	c4.61,1.75,9.65,0.869,14.46,0.99c3.07,0.148,5.64-2.602,8.71-1.871c2.5,1.271,4.93,2.671,7.6,3.57
	c-3.97,2.801-8.92,0.619-13.29,0.25c-6.28-1.359-12.7-0.851-19.06-0.899c-4.35,0.09-8.56-1.312-12.91-1.04
	c2.76-4.391,3.32-9.71,5.59-14.33c2.45-4.891,4.3-10.09,7.29-14.7c1.32-1.979,2.07-4.25,2.26-6.62
	C139.26,185.02,135.89,184.32,133.54,181.97 M177.39,208.391c-1.3,1.049-2.88,2.039-3.49,3.67c1.55,4.239,3.84,8.149,6.26,11.939
	c0.77-0.02,2.32-0.04,3.09-0.061c-0.22-4.069-3.33-7.09-4.24-10.959c4.85-5.15,12.29-6.932,16.33-13
	c-1.05-0.41-2.119-0.73-3.21-0.961C187.05,201.859,182.22,205.141,177.39,208.391z"/>
<path d="M177.39,208.391c4.83-3.25,9.66-6.531,14.74-9.371c1.091,0.23,2.16,0.551,3.21,0.961c-4.04,6.069-11.48,7.851-16.33,13
	c0.91,3.869,4.02,6.891,4.24,10.959c-0.77,0.021-2.32,0.041-3.09,0.062c-2.42-3.79-4.71-7.7-6.26-11.938
	C174.51,210.43,176.09,209.439,177.39,208.391z"/>
<path d="M199.16,225.41c1.109-1.36,2.311-2.79,3.93-3.54c1.79,0.25,3.46,1.19,4.79,2.399c0.24,2.229,0.14,4.479,0.149,6.729
	c-2.299,0-4.579,0-6.869,0.021C199.83,229.46,198.2,227.609,199.16,225.41z"/>
<path d="M73.35,238.72c0.97,0.79,1.96,1.562,2.91,2.39c-0.5,1.132-1.18,2.182-1.92,3.182c-6.12,7.88-11.81,16.26-15.48,25.602
	c-2.52,4.578-4.52,9.42-6.89,14.08c-1.21,2.568-3.61,4.92-3.04,7.979c0.06,1.35,0.09,2.699,0.11,4.05h-3.9
	c-1.33-0.812-2.57-1.979-4.23-1.91c-7.9-0.608-16-0.72-23.53-3.448C11.66,288.7,5.69,287.62,0,285.6v-3.938
	c7.3,2.188,14.7,4.028,21.97,6.351c7.17,1.391,14.51,2.109,21.83,2.02c2.59-3.959,4.99-8.059,6.75-12.469
	c1.91-4.92,4.86-9.352,6.76-14.28C61.69,254.5,67.77,246.74,73.35,238.72z"/>
<path d="M204.061,253.3c2.149-2.36,5.219-2.68,7.969-1.2c-0.02,2.2,0.092,4.41-0.18,6.602c-1.379,2.04-5.119,1.898-6.66,0.12
	C203.4,257.561,203.98,255.16,204.061,253.3z"/>
<path fill="#D58100" d="M261.2,264.23c5.87-1.98,10.01-6.871,15.44-9.65c2.18,8.99,0.969,18.24,1.5,27.359
	c0.648,4.66,1.028,9.351,0.92,14.061h-28.83c0.51-1.939,0.77-3.939,0.799-5.95c0-7.729,0.621-15.659-2.079-23.06
	C253.05,266.13,257.311,265.92,261.2,264.23z"/>
<path d="M208.34,265.96c1.189,0.74,2.42,1.431,3.52,2.32c0.312,2.61,0.132,5.239,0.121,7.87c-3.121,0.039-8.979-0.551-7.989-4.961
	C204.811,269.05,206.92,267.71,208.34,265.96z"/>
<path fill="#D58100" d="M0,285.6c5.69,2.021,11.66,3.102,17.38,5.041c7.53,2.729,15.63,2.84,23.53,3.449
	c1.66-0.07,2.9,1.1,4.23,1.91H0V285.6z"/>
</svg>
