<?xml version="1.0" encoding="UTF-8" ?>
<!DOCTYPE svg PUBLIC "-//W3C//DTD SVG 1.1//EN" "http://www.w3.org/Graphics/SVG/1.1/DTD/svg11.dtd">
<svg width="750pt" height="553pt" viewBox="0 0 750 553" version="1.1" xmlns="http://www.w3.org/2000/svg">
<g id="#ffffffff">
<path fill="#ffffff" opacity="1.00" d=" M 0.00 0.00 L 750.00 0.00 L 750.00 553.00 L 0.00 553.00 L 0.00 0.00 M 284.83 117.02 C 284.82 122.91 290.52 126.41 292.48 131.58 C 283.53 130.92 275.05 127.27 266.03 127.15 C 260.92 126.93 255.15 127.47 251.37 131.32 C 242.14 140.54 235.34 152.31 232.45 165.06 C 230.53 173.25 230.81 181.81 232.19 190.06 C 232.61 193.02 233.31 196.00 232.96 199.01 C 232.75 200.98 231.25 202.43 229.81 203.62 C 203.87 224.01 178.11 244.63 153.07 266.12 C 149.65 269.06 145.56 271.15 142.38 274.37 C 137.29 279.41 133.49 285.53 129.29 291.29 C 122.68 300.68 116.09 310.40 112.74 321.51 C 110.72 327.89 110.66 334.76 111.90 341.31 C 112.13 343.03 112.59 344.92 111.72 346.56 C 109.97 350.35 106.11 352.38 102.99 354.87 C 96.41 359.96 90.02 365.95 86.83 373.80 C 83.03 379.35 82.51 386.44 83.48 392.92 C 84.17 396.50 85.06 400.05 85.57 403.66 C 83.30 405.34 80.73 406.71 78.88 408.90 C 74.18 414.33 72.38 421.50 68.47 427.42 C 66.47 430.44 64.25 433.29 62.34 436.36 C 54.05 449.50 48.48 464.06 42.06 478.14 C 39.95 482.86 37.27 487.32 35.43 492.17 C 31.71 501.88 28.14 511.65 24.60 521.42 C 22.77 526.83 20.92 532.25 19.86 537.87 C 18.14 542.21 17.25 546.80 16.83 551.44 C 23.38 551.99 29.96 551.47 36.43 550.35 C 37.64 546.92 38.48 543.37 38.99 539.78 C 49.54 504.31 66.23 471.15 81.40 437.53 C 83.59 432.35 87.92 428.50 90.33 423.44 C 93.30 417.79 94.87 411.20 99.44 406.54 C 105.73 401.19 113.93 398.68 121.96 397.42 C 130.89 395.99 139.95 395.41 148.99 395.54 C 162.65 395.79 176.31 395.19 189.96 395.73 C 192.73 395.83 195.48 396.29 198.17 396.93 C 210.48 399.93 222.69 403.82 233.80 410.02 C 233.06 416.15 228.54 420.62 225.86 425.89 C 222.73 431.15 224.39 437.56 225.95 443.06 C 226.97 449.95 231.45 456.44 238.15 458.84 C 242.48 460.90 247.06 462.80 251.94 462.86 C 256.31 462.92 260.68 462.92 265.06 462.88 C 267.18 462.98 269.13 462.10 270.97 461.15 C 275.04 457.92 277.94 453.21 278.85 448.08 C 280.48 440.01 278.20 431.38 273.13 424.95 C 268.88 418.98 261.97 415.74 257.51 409.96 C 269.73 403.80 283.49 401.83 296.96 400.66 C 302.21 400.55 307.46 399.72 312.70 400.22 C 328.74 402.90 345.30 401.47 361.11 405.66 C 365.69 406.76 369.95 408.82 374.25 410.69 C 402.67 422.67 436.89 422.56 463.92 406.95 C 472.39 401.68 481.43 397.36 489.66 391.70 C 493.19 389.29 496.64 386.76 500.16 384.33 C 510.54 377.14 519.15 367.81 529.03 360.01 C 533.92 356.11 538.98 352.08 545.07 350.26 C 551.31 348.41 557.52 346.36 563.94 345.18 C 570.56 343.95 577.31 344.61 583.99 344.57 C 600.04 344.69 616.63 345.81 631.46 352.51 C 635.04 354.01 638.18 356.54 641.98 357.50 C 645.59 357.05 649.74 355.04 650.45 351.10 C 648.56 347.81 644.99 346.08 641.92 344.09 C 625.69 334.49 606.50 332.25 588.02 331.05 C 582.65 330.48 577.35 331.76 572.02 332.12 C 567.97 332.42 563.95 332.87 559.91 333.26 C 549.68 334.23 539.77 337.76 530.98 343.04 C 514.90 352.94 502.83 368.03 486.78 377.98 C 474.61 385.73 462.10 392.95 449.17 399.36 C 444.54 401.62 439.94 404.28 434.75 404.94 C 429.20 405.63 423.59 405.25 418.02 405.26 C 411.18 405.06 404.29 405.78 397.50 404.75 C 384.72 402.42 373.20 396.02 360.77 392.51 C 354.68 390.68 348.25 391.62 342.00 391.18 C 330.39 390.41 318.82 389.19 307.26 387.88 C 303.27 387.27 299.14 386.94 295.22 388.08 C 285.54 390.65 275.51 391.28 265.65 392.82 C 258.76 393.91 252.93 398.37 246.00 399.25 C 241.10 399.93 236.68 397.28 232.22 395.74 C 213.65 388.78 193.99 383.42 173.99 384.20 C 159.67 384.52 145.35 384.04 131.03 384.40 C 125.76 384.67 120.54 385.48 115.26 385.57 C 118.97 377.91 125.63 372.41 131.77 366.78 C 133.06 365.70 134.28 364.42 135.89 363.84 C 145.26 364.50 154.59 365.99 164.01 365.69 C 171.91 365.68 179.79 364.14 187.19 361.39 C 196.31 358.09 205.47 354.70 213.91 349.86 C 216.88 348.18 219.98 346.73 223.09 345.33 C 226.49 346.53 230.01 347.36 233.47 348.36 C 237.54 349.49 241.09 352.11 243.75 355.34 C 244.94 357.31 245.42 359.59 246.26 361.72 C 248.34 367.65 252.54 372.81 257.89 376.10 C 262.28 378.65 268.12 379.30 272.67 376.78 C 276.37 374.88 280.32 373.27 283.42 370.40 C 286.58 367.53 289.44 364.27 291.67 360.61 C 294.34 356.24 294.84 350.94 297.56 346.60 C 300.01 342.56 301.79 338.08 305.00 334.56 C 305.54 344.97 304.55 355.97 309.47 365.58 C 312.06 369.84 317.14 371.93 321.98 372.12 C 328.34 372.43 335.43 371.79 340.45 367.45 C 344.20 363.96 347.14 359.42 348.15 354.35 C 349.11 349.66 351.46 345.43 353.19 341.00 C 355.79 342.54 358.20 344.47 361.05 345.55 C 365.24 346.45 369.82 345.68 373.45 343.37 C 376.68 340.99 378.18 336.87 381.62 334.69 C 385.06 332.57 388.89 331.23 392.66 329.83 C 395.50 328.77 398.19 327.24 401.21 326.71 C 407.10 325.60 413.12 324.49 419.12 325.33 C 426.30 326.00 433.16 328.42 439.73 331.28 C 439.10 338.86 435.42 346.74 438.63 354.19 C 439.68 357.08 441.72 360.11 444.96 360.71 C 453.92 362.12 463.22 358.89 470.07 353.10 C 472.72 349.78 471.59 344.85 469.32 341.61 C 466.04 336.75 460.88 333.33 458.25 328.02 C 458.44 325.75 459.58 323.71 461.04 322.01 C 465.29 316.87 471.42 313.83 476.07 309.12 C 481.51 303.65 488.16 299.57 495.10 296.29 C 504.69 291.96 513.96 286.81 524.05 283.67 C 531.17 281.48 539.28 280.67 546.22 283.89 C 552.02 287.19 551.76 295.18 556.61 299.33 C 560.20 300.81 564.20 300.47 568.00 300.76 C 570.71 293.40 572.64 285.63 576.89 278.94 C 578.77 275.89 581.31 273.34 583.88 270.88 C 587.48 267.46 590.63 263.57 594.48 260.41 C 607.06 249.75 622.87 243.53 638.95 240.52 C 653.76 237.60 668.94 237.69 683.97 237.83 C 698.01 238.61 711.17 244.32 723.52 250.66 C 729.01 253.32 734.26 257.54 740.75 256.85 C 740.68 255.12 740.62 253.41 740.51 251.69 C 741.17 252.04 742.50 252.74 743.16 253.09 C 741.73 247.09 737.39 241.64 731.37 239.77 C 719.17 235.58 708.04 228.42 695.29 225.85 C 679.30 222.98 662.92 224.32 646.91 226.34 C 639.59 227.43 632.14 228.05 625.06 230.35 C 611.06 234.63 598.34 242.20 586.38 250.50 C 581.79 253.76 576.84 256.78 573.42 261.37 C 569.03 267.19 566.17 273.98 561.95 279.93 C 556.94 279.08 553.73 274.93 549.49 272.62 C 539.71 268.20 528.33 268.18 518.18 271.33 C 509.23 274.02 500.94 278.40 492.61 282.54 C 487.57 285.10 482.37 287.42 477.74 290.70 C 465.47 299.06 455.68 310.40 443.98 319.46 C 436.93 316.93 430.40 312.90 422.97 311.46 C 417.19 310.50 411.32 311.64 405.69 312.97 C 402.07 313.81 398.71 315.59 395.03 316.13 C 391.16 316.10 387.18 315.43 383.42 316.67 C 375.76 319.16 369.90 325.09 365.13 331.35 C 361.82 328.69 358.23 326.38 354.49 324.38 C 350.44 323.06 345.98 325.26 343.41 328.42 C 340.47 332.32 339.52 337.24 337.41 341.58 C 336.25 343.92 335.25 346.34 334.69 348.91 C 333.95 351.71 333.43 355.01 330.80 356.73 C 328.24 358.26 325.05 358.35 322.20 357.77 C 320.08 354.99 319.92 351.30 319.72 347.95 C 319.46 340.42 320.20 332.34 316.46 325.49 C 315.25 322.95 312.51 321.76 309.95 321.07 C 304.45 319.44 298.13 321.01 294.11 325.11 C 290.47 328.79 288.62 333.73 285.97 338.09 C 284.66 340.33 282.95 342.39 282.22 344.93 C 281.14 348.41 280.49 352.18 278.19 355.13 C 275.06 359.46 270.32 362.97 264.97 363.72 C 258.33 359.73 259.49 350.72 254.41 345.53 C 250.66 341.65 246.17 338.59 241.66 335.68 C 257.31 327.59 272.34 318.19 286.03 307.07 C 287.28 306.09 288.52 305.08 289.97 304.41 C 299.58 307.75 307.76 314.74 318.00 316.46 C 329.48 317.96 341.83 317.02 351.96 310.93 C 358.44 307.26 362.77 301.04 367.68 295.64 C 372.04 290.43 377.10 285.29 378.76 278.48 C 381.31 268.52 379.04 258.03 375.12 248.75 C 372.87 243.09 369.41 238.04 366.68 232.62 C 377.82 237.24 388.04 245.46 400.67 245.18 C 399.98 242.21 399.31 239.03 397.14 236.74 C 392.61 231.71 385.86 229.82 379.94 226.99 C 382.63 222.45 383.04 217.14 382.68 211.98 C 382.16 205.15 385.03 198.31 383.15 191.55 C 381.97 187.46 381.14 183.28 380.61 179.06 C 379.70 172.49 376.90 165.66 371.19 161.87 C 363.32 156.36 353.41 155.44 344.89 151.30 C 338.44 148.00 331.08 147.13 323.93 147.08 C 320.95 146.99 318.17 148.17 315.48 149.30 C 312.94 144.42 311.36 139.13 309.03 134.16 C 306.59 128.84 301.74 125.25 298.55 120.44 C 296.49 117.80 295.15 114.57 292.59 112.35 C 289.27 110.24 284.73 113.23 284.83 117.02 Z" />
<path fill="#ffffff" opacity="1.00" d=" M 344.16 174.15 C 343.60 170.04 345.27 166.19 347.76 163.02 C 352.14 164.18 356.42 165.75 360.58 167.55 C 363.75 169.00 367.12 170.86 368.61 174.20 C 371.19 179.99 371.09 186.50 372.76 192.56 C 374.40 197.96 372.61 203.50 372.78 208.98 C 372.72 210.82 372.92 212.72 372.42 214.52 C 370.68 217.85 367.82 220.40 365.09 222.91 C 359.10 220.36 353.05 216.34 350.71 209.97 C 350.19 204.22 354.03 199.45 356.37 194.53 C 357.34 192.78 357.12 190.71 356.36 188.94 C 355.13 185.83 353.90 182.68 352.00 179.90 C 350.58 177.89 348.32 176.76 346.28 175.50 C 345.75 175.17 344.69 174.49 344.16 174.15 Z" />
<path fill="#ffffff" opacity="1.00" d=" M 117.30 355.06 C 120.55 353.42 125.65 355.98 124.88 359.96 C 124.15 362.29 121.79 363.56 120.07 365.12 C 111.66 371.51 105.05 379.86 97.15 386.81 C 96.71 382.55 96.24 378.26 96.72 373.98 C 100.52 365.16 108.39 358.40 117.30 355.06 Z" />
<path fill="#ffffff" opacity="1.00" d=" M 235.51 436.00 C 236.20 429.62 239.68 423.63 244.27 419.27 C 248.70 419.01 252.80 421.23 256.34 423.67 C 263.18 428.49 268.48 436.35 268.11 444.99 C 266.97 447.36 266.13 450.93 262.92 451.02 C 257.58 451.79 252.15 451.03 246.91 449.97 C 241.21 447.75 234.83 442.81 235.51 436.00 Z" />
</g>
<g id="#090604ff">
<path fill="#090604" opacity="1.00" d=" M 284.83 117.02 C 284.73 113.23 289.27 110.24 292.59 112.35 C 295.15 114.57 296.49 117.80 298.55 120.44 C 301.74 125.25 306.59 128.84 309.03 134.16 C 311.36 139.13 312.94 144.42 315.48 149.30 C 318.17 148.17 320.95 146.99 323.93 147.08 C 331.08 147.13 338.44 148.00 344.89 151.30 C 353.41 155.44 363.32 156.36 371.19 161.87 C 376.90 165.66 379.70 172.49 380.61 179.06 C 381.14 183.28 381.97 187.46 383.15 191.55 C 385.03 198.31 382.16 205.15 382.68 211.98 C 383.04 217.14 382.63 222.45 379.94 226.99 C 385.86 229.82 392.61 231.71 397.14 236.74 C 399.31 239.03 399.98 242.21 400.67 245.18 C 388.04 245.46 377.82 237.24 366.68 232.62 C 369.41 238.04 372.87 243.09 375.12 248.75 C 379.04 258.03 381.31 268.52 378.76 278.48 C 377.10 285.29 372.04 290.43 367.68 295.64 C 362.77 301.04 358.44 307.26 351.96 310.93 C 341.83 317.02 329.48 317.96 318.00 316.46 C 307.76 314.74 299.58 307.75 289.97 304.41 C 288.52 305.08 287.28 306.09 286.03 307.07 C 272.34 318.19 257.31 327.59 241.66 335.68 C 246.17 338.59 250.66 341.65 254.41 345.53 C 259.49 350.72 258.33 359.73 264.97 363.72 C 270.32 362.97 275.06 359.46 278.19 355.13 C 280.49 352.18 281.14 348.41 282.22 344.93 C 282.95 342.39 284.66 340.33 285.97 338.09 C 288.62 333.73 290.47 328.79 294.11 325.11 C 298.13 321.01 304.45 319.44 309.95 321.07 C 312.51 321.76 315.25 322.95 316.46 325.49 C 320.20 332.34 319.46 340.42 319.72 347.95 C 319.92 351.30 320.08 354.99 322.20 357.77 C 325.05 358.35 328.24 358.26 330.80 356.73 C 333.43 355.01 333.95 351.71 334.69 348.91 C 335.25 346.34 336.25 343.92 337.41 341.58 C 339.52 337.24 340.47 332.32 343.41 328.42 C 345.98 325.26 350.44 323.06 354.49 324.38 C 358.23 326.38 361.82 328.69 365.13 331.35 C 369.90 325.09 375.76 319.16 383.42 316.67 C 387.18 315.43 391.16 316.10 395.03 316.13 C 398.71 315.59 402.07 313.81 405.69 312.97 C 411.32 311.64 417.19 310.50 422.97 311.46 C 430.40 312.90 436.93 316.93 443.98 319.46 C 455.68 310.40 465.47 299.06 477.74 290.70 C 482.37 287.42 487.57 285.10 492.61 282.54 C 500.94 278.40 509.23 274.02 518.18 271.33 C 528.33 268.18 539.71 268.20 549.49 272.62 C 553.73 274.93 556.94 279.08 561.95 279.93 C 566.17 273.98 569.03 267.19 573.42 261.37 C 576.84 256.78 581.79 253.76 586.38 250.50 C 598.34 242.20 611.06 234.63 625.06 230.35 C 632.14 228.05 639.59 227.43 646.91 226.34 C 662.92 224.32 679.30 222.98 695.29 225.85 C 708.04 228.42 719.17 235.58 731.37 239.77 C 737.39 241.64 741.73 247.09 743.16 253.09 C 742.50 252.74 741.17 252.04 740.51 251.69 C 740.62 253.41 740.68 255.12 740.75 256.85 C 734.26 257.54 729.01 253.32 723.52 250.66 C 711.17 244.32 698.01 238.61 683.97 237.83 C 668.94 237.69 653.76 237.60 638.95 240.52 C 622.87 243.53 607.06 249.75 594.48 260.41 C 590.63 263.57 587.48 267.46 583.88 270.88 C 581.31 273.34 578.77 275.89 576.89 278.94 C 572.64 285.63 570.71 293.40 568.00 300.76 C 564.20 300.47 560.20 300.81 556.61 299.33 C 551.76 295.18 552.02 287.19 546.22 283.89 C 539.28 280.67 531.17 281.48 524.05 283.67 C 513.96 286.81 504.69 291.96 495.10 296.29 C 488.16 299.57 481.51 303.65 476.07 309.12 C 471.42 313.83 465.29 316.87 461.04 322.01 C 459.58 323.71 458.44 325.75 458.25 328.02 C 460.88 333.33 466.04 336.75 469.32 341.61 C 471.59 344.85 472.72 349.78 470.07 353.10 C 463.22 358.89 453.92 362.12 444.96 360.71 C 441.72 360.11 439.68 357.08 438.63 354.19 C 438.25 346.53 439.75 338.94 439.73 331.28 C 433.16 328.42 426.30 326.00 419.12 325.33 C 413.12 324.49 407.10 325.60 401.21 326.71 C 398.19 327.24 395.50 328.77 392.66 329.83 C 388.89 331.23 385.06 332.57 381.62 334.69 C 378.18 336.87 376.68 340.99 373.45 343.37 C 369.82 345.68 365.24 346.45 361.05 345.55 C 358.20 344.47 355.79 342.54 353.19 341.00 C 351.46 345.43 349.11 349.66 348.15 354.35 C 347.14 359.42 344.20 363.96 340.45 367.45 C 335.43 371.79 328.34 372.43 321.98 372.12 C 317.14 371.93 312.06 369.84 309.47 365.58 C 304.55 355.97 305.54 344.97 305.00 334.56 C 301.79 338.08 300.01 342.56 297.56 346.60 C 294.84 350.94 294.34 356.24 291.67 360.61 C 289.44 364.27 286.58 367.53 283.42 370.40 C 280.32 373.27 276.37 374.88 272.67 376.78 C 268.12 379.30 262.28 378.65 257.89 376.10 C 252.54 372.81 248.34 367.65 246.26 361.72 C 245.42 359.59 244.94 357.31 243.75 355.34 C 241.09 352.11 237.54 349.49 233.47 348.36 C 230.01 347.36 226.49 346.53 223.09 345.33 C 219.98 346.73 216.88 348.18 213.91 349.86 C 205.47 354.70 196.31 358.09 187.19 361.39 C 179.79 364.14 171.91 365.68 164.01 365.69 C 154.59 365.99 145.26 364.50 135.89 363.84 C 134.28 364.42 133.06 365.70 131.77 366.78 C 125.63 372.41 118.97 377.91 115.26 385.57 C 120.54 385.48 125.76 384.67 131.03 384.40 C 145.35 384.04 159.67 384.52 173.99 384.20 C 193.99 383.42 213.65 388.78 232.22 395.74 C 236.68 397.28 241.10 399.93 246.00 399.25 C 252.93 398.37 258.76 393.91 265.65 392.82 C 275.51 391.28 285.54 390.65 295.22 388.08 C 299.14 386.94 303.27 387.27 307.26 387.88 C 318.82 389.19 330.39 390.41 342.00 391.18 C 348.25 391.62 354.68 390.68 360.77 392.51 C 373.20 396.02 384.72 402.42 397.50 404.75 C 404.29 405.78 411.18 405.06 418.02 405.26 C 423.59 405.25 429.20 405.63 434.75 404.94 C 439.94 404.28 444.54 401.62 449.17 399.36 C 462.10 392.95 474.61 385.73 486.78 377.98 C 502.83 368.03 514.90 352.94 530.98 343.04 C 539.77 337.76 549.68 334.23 559.91 333.26 C 563.95 332.87 567.97 332.42 572.02 332.12 C 577.35 331.76 582.65 330.48 588.02 331.05 C 606.50 332.25 625.69 334.49 641.92 344.09 C 644.99 346.08 648.56 347.81 650.45 351.10 C 649.74 355.04 645.59 357.05 641.98 357.50 C 638.18 356.54 635.04 354.01 631.46 352.51 C 616.63 345.81 600.04 344.69 583.99 344.57 C 577.31 344.61 570.56 343.95 563.94 345.18 C 557.52 346.36 551.31 348.41 545.07 350.26 C 538.98 352.08 533.92 356.11 529.03 360.01 C 519.15 367.81 510.54 377.14 500.16 384.33 C 496.64 386.76 493.19 389.29 489.66 391.70 C 481.43 397.36 472.39 401.68 463.92 406.95 C 436.89 422.56 402.67 422.67 374.25 410.69 C 369.95 408.82 365.69 406.76 361.11 405.66 C 345.30 401.47 328.74 402.90 312.70 400.22 C 307.46 399.72 302.21 400.55 296.96 400.66 C 283.49 401.83 269.73 403.80 257.51 409.96 C 261.97 415.74 268.88 418.98 273.13 424.95 C 278.20 431.38 280.48 440.01 278.85 448.08 C 277.94 453.21 275.04 457.92 270.97 461.15 C 260.06 463.43 248.68 462.37 238.15 458.84 C 231.45 456.44 226.97 449.95 225.95 443.06 C 225.44 437.35 225.10 431.59 225.86 425.89 C 228.54 420.62 233.06 416.15 233.80 410.02 C 222.69 403.82 210.48 399.93 198.17 396.93 C 195.48 396.29 192.73 395.83 189.96 395.73 C 176.31 395.19 162.65 395.79 148.99 395.54 C 139.95 395.41 130.89 395.99 121.96 397.42 C 113.93 398.68 105.73 401.19 99.44 406.54 C 94.87 411.20 93.30 417.79 90.33 423.44 C 87.92 428.50 83.59 432.35 81.40 437.53 C 66.23 471.15 49.54 504.31 38.99 539.78 C 37.86 542.95 36.99 546.31 35.08 549.14 C 29.70 551.23 23.73 550.22 18.10 550.19 C 18.71 546.09 19.22 541.97 19.86 537.87 C 20.92 532.25 22.77 526.83 24.60 521.42 C 28.14 511.65 31.71 501.88 35.43 492.17 C 37.27 487.32 39.95 482.86 42.06 478.14 C 48.48 464.06 54.05 449.50 62.34 436.36 C 64.25 433.29 66.47 430.44 68.47 427.42 C 72.38 421.50 74.18 414.33 78.88 408.90 C 80.73 406.71 83.30 405.34 85.57 403.66 C 86.04 402.35 86.56 400.96 86.21 399.55 C 85.42 395.40 83.57 391.37 83.92 387.06 C 84.27 382.53 85.55 378.13 86.83 373.80 C 90.02 365.95 96.41 359.96 102.99 354.87 C 106.11 352.38 109.97 350.35 111.72 346.56 C 112.59 344.92 112.13 343.03 111.90 341.31 C 110.66 334.76 110.72 327.89 112.74 321.51 C 116.09 310.40 122.68 300.68 129.29 291.29 C 133.49 285.53 137.29 279.41 142.38 274.37 C 145.56 271.15 149.65 269.06 153.07 266.12 C 178.11 244.63 203.87 224.01 229.81 203.62 C 231.25 202.43 232.75 200.98 232.96 199.01 C 233.31 196.00 232.61 193.02 232.19 190.06 C 230.81 181.81 230.53 173.25 232.45 165.06 C 235.34 152.31 242.14 140.54 251.37 131.32 C 255.15 127.47 260.92 126.93 266.03 127.15 C 275.05 127.27 283.53 130.92 292.48 131.58 C 290.52 126.41 284.82 122.91 284.83 117.02 M 262.45 132.64 C 256.63 134.50 251.79 138.71 247.77 143.20 C 254.13 142.18 260.83 140.95 267.12 143.02 C 271.42 144.61 275.16 147.43 278.50 150.52 C 289.26 160.41 293.99 175.64 293.10 189.98 C 292.37 202.71 286.53 215.49 276.18 223.20 C 272.89 225.83 268.42 225.47 264.62 226.88 C 264.96 228.79 264.93 231.05 266.69 232.31 C 271.74 236.87 278.75 241.17 285.77 239.19 C 292.96 233.28 298.64 225.54 306.75 220.72 C 309.85 218.68 313.57 217.83 316.65 215.78 C 319.57 211.82 320.70 206.83 321.59 202.07 C 323.07 190.43 319.31 178.87 314.27 168.52 C 312.07 164.29 310.08 159.77 306.57 156.43 C 303.87 153.78 301.01 151.17 299.16 147.82 C 297.89 145.62 297.21 143.14 295.96 140.94 C 293.53 138.90 290.40 137.93 287.52 136.70 C 279.57 133.75 270.96 131.74 262.45 132.64 M 248.42 153.68 C 244.80 155.39 241.82 158.35 239.81 161.80 C 235.31 169.56 239.71 180.94 248.39 183.45 C 253.99 184.98 260.86 184.55 265.05 180.07 C 267.55 177.32 269.92 173.95 269.85 170.07 C 270.73 159.48 258.62 149.04 248.42 153.68 M 318.60 159.70 C 322.40 167.93 323.85 177.66 330.91 183.99 C 335.34 180.74 339.70 177.37 344.16 174.15 C 344.69 174.49 345.75 175.17 346.28 175.50 C 345.97 177.95 346.19 180.63 344.79 182.79 C 342.75 186.07 339.31 188.20 335.79 189.62 C 332.15 191.13 328.13 190.74 324.29 190.69 C 324.00 199.81 321.94 208.73 318.71 217.22 C 321.48 217.49 324.24 217.84 327.00 218.22 C 330.38 218.70 333.91 218.44 337.16 219.65 C 345.34 222.46 351.40 229.15 359.30 232.51 C 360.69 233.33 362.08 232.46 362.62 231.09 C 360.96 228.71 358.38 227.31 355.87 226.01 C 352.28 224.19 349.16 221.52 346.65 218.39 C 342.93 213.59 342.94 206.96 344.23 201.29 C 345.78 195.35 350.67 190.91 356.36 188.94 C 357.12 190.71 357.34 192.78 356.37 194.53 C 354.03 199.45 350.19 204.22 350.71 209.97 C 353.05 216.34 359.10 220.36 365.09 222.91 C 367.82 220.40 370.68 217.85 372.42 214.52 C 372.92 212.72 372.72 210.82 372.78 208.98 C 372.61 203.50 374.40 197.96 372.76 192.56 C 371.09 186.50 371.19 179.99 368.61 174.20 C 367.12 170.86 363.75 169.00 360.58 167.55 C 356.42 165.75 352.14 164.18 347.76 163.02 L 347.97 162.70 C 343.93 161.28 339.94 159.69 335.79 158.61 C 330.08 157.17 324.23 158.58 318.60 159.70 M 247.47 189.43 C 245.37 191.38 243.22 194.90 245.34 197.57 C 247.18 200.23 250.89 200.98 253.82 199.89 C 255.75 199.14 255.60 196.72 255.76 195.03 C 255.78 192.70 255.32 189.76 253.05 188.58 C 251.20 188.32 248.95 188.02 247.47 189.43 M 231.14 207.17 C 205.88 227.53 179.96 247.10 155.81 268.79 C 151.94 272.23 147.91 275.54 144.59 279.54 C 133.46 292.95 122.91 307.32 117.07 323.91 C 115.66 328.16 113.98 332.49 114.19 337.05 C 114.20 342.17 117.10 346.83 120.62 350.34 C 126.99 356.28 135.54 359.23 143.97 360.75 C 159.19 363.56 174.85 360.49 189.15 355.10 C 197.18 352.39 204.56 348.13 212.55 345.33 C 217.22 343.62 221.52 341.12 225.95 338.89 C 233.65 334.89 241.86 331.86 249.16 327.09 C 261.38 320.07 273.30 312.30 283.60 302.62 C 284.29 301.64 286.26 300.59 285.22 299.20 C 278.94 285.99 275.62 270.65 279.40 256.22 C 280.55 251.33 283.00 246.91 285.19 242.43 C 281.10 241.43 276.90 240.63 273.14 238.63 C 261.11 232.70 252.01 222.41 244.13 211.81 C 242.00 209.12 239.95 206.21 236.99 204.37 C 234.71 203.83 232.90 206.04 231.14 207.17 M 308.81 221.67 C 295.26 229.84 284.95 243.36 280.91 258.69 C 277.99 270.60 279.17 284.26 286.88 294.20 C 295.04 305.29 308.14 311.95 321.62 313.83 C 319.97 311.37 318.17 309.00 316.69 306.42 C 313.85 301.49 311.90 296.08 308.63 291.40 C 307.19 289.21 305.30 287.17 304.79 284.53 C 300.60 264.10 309.79 241.73 327.00 230.01 C 330.32 227.75 334.20 226.04 336.72 222.80 C 336.74 222.52 336.77 221.94 336.78 221.65 C 327.96 218.10 317.42 216.92 308.81 221.67 M 349.41 237.63 C 345.78 238.88 342.54 241.45 340.83 244.92 C 337.68 251.11 338.61 259.43 343.69 264.33 C 348.38 268.47 355.57 270.00 361.31 267.20 C 366.23 265.08 369.64 260.18 370.57 255.00 C 371.50 244.25 360.04 233.90 349.41 237.63 M 349.22 272.42 C 348.64 275.89 347.72 279.60 348.97 283.02 C 351.94 284.63 355.59 282.95 357.63 280.60 C 359.47 278.63 359.66 275.83 359.96 273.30 C 356.47 272.23 352.82 272.20 349.22 272.42 M 450.28 343.05 C 450.34 345.36 452.54 346.54 454.04 347.95 C 454.87 346.96 455.63 345.93 456.34 344.85 C 456.96 342.42 454.40 341.10 452.96 339.71 C 452.00 340.77 451.11 341.89 450.28 343.05 M 117.30 355.06 C 108.39 358.40 100.52 365.16 96.72 373.98 C 95.27 378.49 94.57 383.58 97.24 387.81 L 97.15 386.81 C 105.05 379.86 111.66 371.51 120.07 365.12 C 121.79 363.56 124.15 362.29 124.88 359.96 C 125.65 355.98 120.55 353.42 117.30 355.06 M 235.51 436.00 C 234.83 442.81 241.21 447.75 246.91 449.97 C 251.88 452.75 257.82 453.34 263.34 452.14 C 264.51 451.83 265.74 451.45 266.64 450.60 C 267.47 448.83 267.69 446.87 268.11 444.99 C 268.48 436.35 263.18 428.49 256.34 423.67 C 252.80 421.23 248.70 419.01 244.27 419.27 C 239.68 423.63 236.20 429.62 235.51 436.00 Z" />
<path fill="#090604" opacity="1.00" d=" M 234.24 230.06 C 237.70 228.89 241.69 229.25 244.78 231.26 C 249.00 233.99 250.94 240.02 248.57 244.56 C 246.26 248.98 241.08 252.15 236.04 251.12 C 231.97 249.84 228.38 246.37 227.78 242.02 C 226.89 237.23 229.28 231.48 234.24 230.06 Z" />
<path fill="#090604" opacity="1.00" d=" M 208.92 257.87 C 211.57 254.68 216.16 254.12 220.04 253.68 C 231.30 254.50 240.16 266.96 236.78 277.83 C 236.11 280.40 234.37 282.47 232.68 284.44 C 232.79 281.47 233.54 278.42 232.69 275.49 C 230.88 268.58 225.36 263.00 218.81 260.38 C 215.63 259.09 212.14 258.99 208.92 257.87 Z" />
<path fill="#090604" opacity="1.00" d=" M 256.26 258.02 C 260.99 256.39 266.89 258.06 269.65 262.35 C 271.11 264.64 270.97 267.49 270.86 270.10 C 270.66 274.76 266.50 278.51 262.03 279.15 C 257.56 279.94 252.54 277.62 250.77 273.33 C 248.33 267.91 250.26 260.10 256.26 258.02 Z" />
<path fill="#090604" opacity="1.00" d=" M 203.87 260.92 C 204.79 260.11 205.71 259.22 206.96 258.99 C 207.70 261.18 207.72 263.79 209.51 265.48 C 212.71 268.89 217.62 269.94 220.87 273.28 C 222.19 275.12 222.61 277.40 223.45 279.47 C 224.50 282.57 226.40 285.26 228.17 287.98 C 223.44 294.60 216.14 298.86 211.72 305.74 C 207.07 312.67 204.36 321.17 197.52 326.42 C 190.15 332.21 182.92 338.99 173.59 341.32 C 167.06 342.16 159.81 342.61 154.01 338.92 C 146.57 334.39 141.01 325.93 141.70 317.00 C 142.12 311.03 146.24 306.30 150.37 302.36 C 155.50 297.25 161.84 293.65 167.99 289.96 C 175.81 285.30 183.75 280.65 190.43 274.39 C 195.11 270.10 199.17 265.19 203.87 260.92 M 189.21 292.21 C 186.07 295.12 182.29 297.44 179.79 300.97 C 182.32 306.02 187.19 309.29 192.06 311.85 C 194.34 310.25 196.72 308.68 198.52 306.51 C 201.09 303.42 202.57 299.63 204.20 296.00 C 202.17 293.07 200.37 289.42 196.80 288.13 C 193.76 288.00 191.47 290.52 189.21 292.21 M 161.76 298.57 C 157.23 300.38 152.43 302.40 149.35 306.36 C 146.88 309.96 146.71 314.66 147.54 318.81 C 149.10 325.45 153.39 331.15 158.44 335.58 C 160.19 337.23 162.77 336.93 164.98 337.05 C 169.62 336.99 174.59 337.08 178.73 334.63 C 182.01 332.99 184.18 329.91 185.99 326.83 C 184.17 324.58 181.80 322.91 179.20 321.69 C 175.62 323.20 172.04 325.17 168.05 325.18 C 163.82 325.31 158.97 324.15 156.44 320.48 C 154.94 318.05 154.28 313.85 157.27 312.27 C 163.27 309.06 170.43 309.17 176.51 306.09 C 174.80 302.84 172.87 299.45 169.73 297.40 C 167.05 296.54 164.27 297.66 161.76 298.57 Z" />
</g>
<g id="#fcfdf8ff">
<path fill="#fcfdf8" opacity="1.00" d=" M 262.45 132.64 C 270.96 131.74 279.57 133.75 287.52 136.70 C 290.40 137.93 293.53 138.90 295.96 140.94 C 297.21 143.14 297.89 145.62 299.16 147.82 C 301.01 151.17 303.87 153.78 306.57 156.43 C 310.08 159.77 312.07 164.29 314.27 168.52 C 319.31 178.87 323.07 190.43 321.59 202.07 C 320.70 206.83 319.57 211.82 316.65 215.78 C 313.57 217.83 309.85 218.68 306.75 220.72 C 298.64 225.54 292.96 233.28 285.77 239.19 C 278.75 241.17 271.74 236.87 266.69 232.31 C 264.93 231.05 264.96 228.79 264.62 226.88 C 268.42 225.47 272.89 225.83 276.18 223.20 C 286.53 215.49 292.37 202.71 293.10 189.98 C 293.99 175.64 289.26 160.41 278.50 150.52 C 275.16 147.43 271.42 144.61 267.12 143.02 C 260.83 140.95 254.13 142.18 247.77 143.20 C 251.79 138.71 256.63 134.50 262.45 132.64 Z" />
<path fill="#fcfdf8" opacity="1.00" d=" M 248.42 153.68 C 258.62 149.04 270.73 159.48 269.85 170.07 C 269.92 173.95 267.55 177.32 265.05 180.07 C 260.86 184.55 253.99 184.98 248.39 183.45 C 239.71 180.94 235.31 169.56 239.81 161.80 C 241.82 158.35 244.80 155.39 248.42 153.68 Z" />
<path fill="#fcfdf8" opacity="1.00" d=" M 318.60 159.70 C 324.23 158.58 330.08 157.17 335.79 158.61 C 339.94 159.69 343.93 161.28 347.97 162.70 L 347.76 163.02 C 345.27 166.19 343.60 170.04 344.16 174.15 C 339.70 177.37 335.34 180.74 330.91 183.99 C 323.85 177.66 322.40 167.93 318.60 159.70 Z" />
<path fill="#fcfdf8" opacity="1.00" d=" M 346.28 175.50 C 348.32 176.76 350.58 177.89 352.00 179.90 C 353.90 182.68 355.13 185.83 356.36 188.94 C 350.67 190.91 345.78 195.35 344.23 201.29 C 342.94 206.96 342.93 213.59 346.65 218.39 C 349.16 221.52 352.28 224.19 355.87 226.01 C 358.38 227.31 360.96 228.71 362.62 231.09 C 362.08 232.46 360.69 233.33 359.30 232.51 C 351.40 229.15 345.34 222.46 337.16 219.65 C 333.91 218.44 330.38 218.70 327.00 218.22 C 324.24 217.84 321.48 217.49 318.71 217.22 C 321.94 208.73 324.00 199.81 324.29 190.69 C 328.13 190.74 332.15 191.13 335.79 189.62 C 339.31 188.20 342.75 186.07 344.79 182.79 C 346.19 180.63 345.97 177.95 346.28 175.50 Z" />
<path fill="#fcfdf8" opacity="1.00" d=" M 231.14 207.17 C 232.90 206.04 234.71 203.83 236.99 204.37 C 239.95 206.21 242.00 209.12 244.13 211.81 C 252.01 222.41 261.11 232.70 273.14 238.63 C 276.90 240.63 281.10 241.43 285.19 242.43 C 283.00 246.91 280.55 251.33 279.40 256.22 C 275.62 270.65 278.94 285.99 285.22 299.20 C 286.26 300.59 284.29 301.64 283.60 302.62 C 273.30 312.30 261.38 320.07 249.16 327.09 C 241.86 331.86 233.65 334.89 225.95 338.89 C 221.52 341.12 217.22 343.62 212.55 345.33 C 204.56 348.13 197.18 352.39 189.15 355.10 C 174.85 360.49 159.19 363.56 143.97 360.75 C 135.54 359.23 126.99 356.28 120.62 350.34 C 117.10 346.83 114.20 342.17 114.19 337.05 C 113.98 332.49 115.66 328.16 117.07 323.91 C 122.91 307.32 133.46 292.95 144.59 279.54 C 147.91 275.54 151.94 272.23 155.81 268.79 C 179.96 247.10 205.88 227.53 231.14 207.17 M 234.24 230.06 C 229.28 231.48 226.89 237.23 227.78 242.02 C 228.38 246.37 231.97 249.84 236.04 251.12 C 241.08 252.15 246.26 248.98 248.57 244.56 C 250.94 240.02 249.00 233.99 244.78 231.26 C 241.69 229.25 237.70 228.89 234.24 230.06 M 208.92 257.87 C 212.14 258.99 215.63 259.09 218.81 260.38 C 225.36 263.00 230.88 268.58 232.69 275.49 C 233.54 278.42 232.79 281.47 232.68 284.44 C 234.37 282.47 236.11 280.40 236.78 277.83 C 240.16 266.96 231.30 254.50 220.04 253.68 C 216.16 254.12 211.57 254.68 208.92 257.87 M 256.26 258.02 C 250.26 260.10 248.33 267.91 250.77 273.33 C 252.54 277.62 257.56 279.94 262.03 279.15 C 266.50 278.51 270.66 274.76 270.86 270.10 C 270.97 267.49 271.11 264.64 269.65 262.35 C 266.89 258.06 260.99 256.39 256.26 258.02 M 203.87 260.92 C 199.17 265.19 195.11 270.10 190.43 274.39 C 183.75 280.65 175.81 285.30 167.99 289.96 C 161.84 293.65 155.50 297.25 150.37 302.36 C 146.24 306.30 142.12 311.03 141.70 317.00 C 141.01 325.93 146.57 334.39 154.01 338.92 C 159.81 342.61 167.06 342.16 173.59 341.32 C 182.92 338.99 190.15 332.21 197.52 326.42 C 204.36 321.17 207.07 312.67 211.72 305.74 C 216.14 298.86 223.44 294.60 228.17 287.98 C 226.40 285.26 224.50 282.57 223.45 279.47 C 222.61 277.40 222.19 275.12 220.87 273.28 C 217.62 269.94 212.71 268.89 209.51 265.48 C 207.72 263.79 207.70 261.18 206.96 258.99 C 205.71 259.22 204.79 260.11 203.87 260.92 Z" />
<path fill="#fcfdf8" opacity="1.00" d=" M 308.81 221.67 C 317.42 216.92 327.96 218.10 336.78 221.65 C 336.77 221.94 336.74 222.52 336.72 222.80 C 334.20 226.04 330.32 227.75 327.00 230.01 C 309.79 241.73 300.60 264.10 304.79 284.53 C 305.30 287.17 307.19 289.21 308.63 291.40 C 311.90 296.08 313.85 301.49 316.69 306.42 C 318.17 309.00 319.97 311.37 321.62 313.83 C 308.14 311.95 295.04 305.29 286.88 294.20 C 279.17 284.26 277.99 270.60 280.91 258.69 C 284.95 243.36 295.26 229.84 308.81 221.67 Z" />
<path fill="#fcfdf8" opacity="1.00" d=" M 349.41 237.63 C 360.04 233.90 371.50 244.25 370.57 255.00 C 369.64 260.18 366.23 265.08 361.31 267.20 C 355.57 270.00 348.38 268.47 343.69 264.33 C 338.61 259.43 337.68 251.11 340.83 244.92 C 342.54 241.45 345.78 238.88 349.41 237.63 Z" />
<path fill="#fcfdf8" opacity="1.00" d=" M 161.76 298.57 C 164.27 297.66 167.05 296.54 169.73 297.40 C 172.87 299.45 174.80 302.84 176.51 306.09 C 170.43 309.17 163.27 309.06 157.27 312.27 C 154.28 313.85 154.94 318.05 156.44 320.48 C 158.97 324.15 163.82 325.31 168.05 325.18 C 172.04 325.17 175.62 323.20 179.20 321.69 C 181.80 322.91 184.17 324.58 185.99 326.83 C 184.18 329.91 182.01 332.99 178.73 334.63 C 174.59 337.08 169.62 336.99 164.98 337.05 C 162.77 336.93 160.19 337.23 158.44 335.58 C 153.39 331.15 149.10 325.45 147.54 318.81 C 146.71 314.66 146.88 309.96 149.35 306.36 C 152.43 302.40 157.23 300.38 161.76 298.57 Z" />
</g>
<g id="#fbfcf8ff">
<path fill="#fbfcf8" opacity="1.00" d=" M 247.47 189.43 C 248.95 188.02 251.20 188.32 253.05 188.58 C 255.32 189.76 255.78 192.70 255.76 195.03 C 255.60 196.72 255.75 199.14 253.82 199.89 C 250.89 200.98 247.18 200.23 245.34 197.57 C 243.22 194.90 245.37 191.38 247.47 189.43 Z" />
<path fill="#fbfcf8" opacity="1.00" d=" M 349.22 272.42 C 352.82 272.20 356.47 272.23 359.96 273.30 C 359.66 275.83 359.47 278.63 357.63 280.60 C 355.59 282.95 351.94 284.63 348.97 283.02 C 347.72 279.60 348.64 275.89 349.22 272.42 Z" />
</g>
<g id="#ff0000ff">
<path fill="#ff0000" opacity="1.00" d=" M 189.21 292.21 C 191.47 290.52 193.76 288.00 196.80 288.13 C 200.37 289.42 202.17 293.07 204.20 296.00 C 202.57 299.63 201.09 303.42 198.52 306.51 C 196.72 308.68 194.34 310.25 192.06 311.85 C 187.19 309.29 182.32 306.02 179.79 300.97 C 182.29 297.44 186.07 295.12 189.21 292.21 Z" />
</g>
<g id="#878685ff">
<path fill="#878685" opacity="1.00" d=" M 439.73 331.28 C 439.75 338.94 438.25 346.53 438.63 354.19 C 435.42 346.74 439.10 338.86 439.73 331.28 Z" />
</g>
<g id="#fbfbfbff">
<path fill="#fbfbfb" opacity="1.00" d=" M 450.28 343.05 C 451.11 341.89 452.00 340.77 452.96 339.71 C 454.40 341.10 456.96 342.42 456.34 344.85 C 455.63 345.93 454.87 346.96 454.04 347.95 C 452.54 346.54 450.34 345.36 450.28 343.05 Z" />
</g>
<g id="#848282ff">
<path fill="#848282" opacity="1.00" d=" M 83.48 392.92 C 82.51 386.44 83.03 379.35 86.83 373.80 C 85.55 378.13 84.27 382.53 83.92 387.06 C 83.57 391.37 85.42 395.40 86.21 399.55 C 86.56 400.96 86.04 402.35 85.57 403.66 C 85.06 400.05 84.17 396.50 83.48 392.92 Z" />
</g>
<g id="#8c8b8aff">
<path fill="#8c8b8a" opacity="1.00" d=" M 97.24 387.81 C 94.57 383.58 95.27 378.49 96.72 373.98 C 96.24 378.26 96.71 382.55 97.15 386.81 L 97.24 387.81 Z" />
</g>
<g id="#807f7dff">
<path fill="#807f7d" opacity="1.00" d=" M 225.95 443.06 C 224.39 437.56 222.73 431.15 225.86 425.89 C 225.10 431.59 225.44 437.35 225.95 443.06 Z" />
</g>
<g id="#747271ff">
<path fill="#747271" opacity="1.00" d=" M 262.92 451.02 C 266.13 450.93 266.97 447.36 268.11 444.99 C 267.69 446.87 267.47 448.83 266.64 450.60 C 265.74 451.45 264.51 451.83 263.34 452.14 C 257.82 453.34 251.88 452.75 246.91 449.97 C 252.15 451.03 257.58 451.79 262.92 451.02 Z" />
</g>
<g id="#7d7b7aff">
<path fill="#7d7b7a" opacity="1.00" d=" M 238.15 458.84 C 248.68 462.37 260.06 463.43 270.97 461.15 C 269.13 462.10 267.18 462.98 265.06 462.88 C 260.68 462.92 256.31 462.92 251.94 462.86 C 247.06 462.80 242.48 460.90 238.15 458.84 Z" />
</g>
<g id="#777574ff">
<path fill="#777574" opacity="1.00" d=" M 16.83 551.44 C 17.25 546.80 18.14 542.21 19.86 537.87 C 19.22 541.97 18.71 546.09 18.10 550.19 C 23.73 550.22 29.70 551.23 35.08 549.14 C 36.99 546.31 37.86 542.95 38.99 539.78 C 38.48 543.37 37.64 546.92 36.43 550.35 C 29.96 551.47 23.38 551.99 16.83 551.44 Z" />
</g>
</svg>
