<?xml version="1.0" encoding="utf-8"?>
<!-- Generator: Adobe Illustrator 15.1.0, SVG Export Plug-In . SVG Version: 6.00 Build 0)  -->
<!DOCTYPE svg PUBLIC "-//W3C//DTD SVG 1.1//EN" "http://www.w3.org/Graphics/SVG/1.1/DTD/svg11.dtd">
<svg version="1.1" id="Layer_1" xmlns="http://www.w3.org/2000/svg" xmlns:xlink="http://www.w3.org/1999/xlink" x="0px" y="0px"
	 width="324px" height="239px" viewBox="0 0 324 239" enable-background="new 0 0 324 239" xml:space="preserve">
<g id="_x23_090604ff">
	<path fill="#090604" d="M145.01,0h2.36c4.81,3.29,8.25,8.28,13.5,10.96c1.34,1.13,3.13,0.31,4.19-0.78
		c5.049-2.17,10.119-4.31,14.75-7.32c1.229-1.23,2.699-0.1,3.92,0.51c1.379,8.42-4.26,15.56-8.301,22.35
		c-6.75,1.54-8.9-7.77-14.52-9.38c-5.16,0.38-10.21,2.16-14.57,4.95c-2.19,1.38-4.52,2.81-7.21,2.71
		C138.98,15.67,141.1,7.34,145.01,0z"/>
	<path fill="#090604" d="M125.91,56.89c1.2-1.46-0.14-5.87,2.69-3.62c5.42,1.6,5.69,7.85,8.17,11.99c5.41,1.6,11.24,1.32,16.54-0.59
		c0.09,1.94-0.33,3.87-0.18,5.8c1.11,2,3.91,3.3,3.28,5.94c-0.8,4.69,0.99,9.51,4.6,12.59c2.86,1.33,6.09,1.41,9.11,2.19
		c-1.74,4-7.601,0.9-8.88,5.28c4.06,2.88,11.67,3.37,11.88,9.561c-5.521,0.2-10.03-3.32-14.79-5.55c4.16,6.24,7.62,14.11,4.88,21.62
		c-1.84,3.36-4.65,6.061-7.11,8.961c-4.23,5.229-11.58,6.729-17.98,5.909c-4.79-0.479-8.56-3.739-12.93-5.39
		c-10.05,8.5-21.82,14.46-33.61,20.12c-3.83,1.989-7.9,3.489-11.98,4.899c-6.83,2.42-14.2,1.16-21.21,0.59
		c-3.08,2.98-7.01,5.61-8.68,9.67c8.37-1.319,16.85-0.399,25.28-0.77c9.69-0.42,19.12,2.48,28.03,6
		c4.09,2.02,7.78-1.779,11.78-2.279c4.84-0.711,9.72-1.07,14.43-2.48c8.23,0.71,16.42,2.061,24.71,1.9
		c7.49,1.449,14.18,6.449,22.07,5.959c4.52-0.229,9.18,0.541,13.62-0.489c7.45-3.271,14.53-7.351,21.38-11.74
		c7.82-5.03,13.561-13.06,22.301-16.67c5.84-2.78,12.479-2.22,18.719-3.31c9.551,0.58,19.761,1.42,27.681,7.379
		c3.351,1.98-1.61,5.181-3.75,3.621c-8.03-4.961-17.83-5.101-26.97-5.2c-5.24-0.37-10.17,1.649-15.1,3.09
		c-7.341,4.06-12.471,11.01-19.561,15.399c-3.66,2.84-7.73,5.061-11.78,7.271c-12.35,8.34-29.159,8.47-42.44,2.24
		c-8.16-3.851-17.42-2.33-26.07-3.98c-7.6,0.38-15.95,0.87-22.73,4.3c1.06,2.24,4.75,3.771,6.36,6.25
		c4.05,4.49,4.27,12.74-1.11,16.26c-5.04,0.761-10.61,0.66-15.09-2.069c-3.62-2.101-4.19-6.74-4.41-10.521
		c-0.38-3.8,3.82-6.27,3.94-9.81c-5.01-2.92-10.72-4.569-16.32-5.95c-7.19-0.92-14.46-0.07-21.68-0.449
		c-6.91,0.449-14.6,0.409-20.28,4.959c-2.55,3.09-3.05,7.49-5.81,10.381c-0.3,0.439-0.9,1.31-1.2,1.74
		c-7.3,16.289-15.75,32.379-20.03,49.799c-2.71,0.5-5.49,0.67-8.24,0.44c1.25-9.19,5.16-17.76,8.27-26.42
		c4.7-8.74,7.43-18.54,13.58-26.44c2.27-3.22,2.99-7.569,6.34-9.959c1.25-0.58,2.07-1.971,1.18-3.23c-2.4-6.57,1.22-13.75,6.56-17.7
		c1.72-1.899,5.14-2.91,5.2-5.81c0-0.061,0.01-0.17,0.01-0.23c-2.4-8.63,3.01-16.39,7.75-23.06c2.33-3.16,4.39-6.74,7.87-8.771
		c11.38-9.84,23.12-19.22,34.93-28.53c2.61-1.51,0.96-4.71,0.94-7.06c-1.72-9.34,2.66-19.07,9.55-25.27
		C114.96,53.65,120.6,55.88,125.91,56.89 M113.41,57.37c-2.37,0.92-4.38,2.53-6.13,4.33c3.35-0.56,7.05-1.13,10.05,0.92
		c11.99,7.07,12.9,26.91,1.15,34.59c-1.48,0.69-4.99-0.03-3.73,2.58c2.31,2.2,5.76,4.69,9.04,3.35c3.83-3.83,7.4-8.3,12.9-9.72
		c4.8-8.01,1.06-17.49-3.34-24.74c-2.29-2.21-4.85-4.38-5.39-7.71C123.62,58.54,118.36,57.11,113.41,57.37 M107.45,66.48
		c-3.02,1.42-5.5,4.99-4.16,8.37c1.13,5.46,9.56,6.41,12.16,1.56C119.07,71.51,112.75,64.15,107.45,66.48 M143.24,68.2
		c-1.84,0.21-3.65,0.56-5.44,0.94c1.66,3.35,2.24,7.86,5.22,10.2c1.99-1.39,3.75-3.1,5.9-4.25c3.1,4.55-4.75,8.7-8.76,7.34
		c-0.07,3.94-0.83,7.82-2.46,11.42c3.25,0.46,6.8,0.01,9.77,1.68c2.84,1.68,5.4,3.86,8.46,5.189c1.51-2.31-3.3-2.64-4.29-4.35
		c-5.61-3.59-4.14-12.98,2.21-14.73C155.85,75.33,150.41,66.5,143.24,68.2 M107.12,81.85c-2.88,2.7-0.62,5.53,2.93,4.22
		C110.54,83.47,110.56,80.63,107.12,81.85 M154.39,83.67c-1.21,2.28-3.09,4.57-2.71,7.31c1.16,2.53,3.59,4.26,6.13,5.23
		c1.25-1.28,2.5-2.59,3.44-4.12C158.68,89.53,156.64,86.5,154.39,83.67 M101.42,88.5c-12.74,10.19-25.8,20.04-37.77,31.15
		c-5.88,6.85-11.59,14.48-13.88,23.36c-1.98,6.061,4.12,10.771,9.36,12.03c9.63,2.99,19.85-0.03,28.63-4.24
		c12.55-5.53,25.63-11.36,35.57-20.93c-3.82-7.64-5.18-17.43-0.2-24.99c-7.98-1.26-13.68-7.65-18.21-13.85
		C103.93,90.22,102.73,87.72,101.42,88.5 M134.36,95.39c-9.64,5.33-16.41,17.46-12.29,28.34c3.01,6.66,9.64,10.709,16.7,11.779
		c-3.04-3.35-3.81-8.02-6.93-11.31c-2.62-9.65,1.95-20.66,10.59-25.69c1.06-0.79,2.53-1.24,3.08-2.55
		C142.07,94.48,137.89,94.14,134.36,95.39 M150.28,103.15c-4.99,2.04-4.87,10.41,0.28,12.23c3.17,1.59,7.15,0.03,8.68-3.08
		C162.3,107.2,155.45,100.22,150.28,103.15 M150.92,117.88c-0.16,1.44-0.2,2.9-0.14,4.351c2.83,0.789,4.96-1.461,4.33-4.261
		C153.72,117.83,152.32,117.8,150.92,117.88 M51.13,153.34c-5.65,1.96-11.49,7.57-9.22,14.07c3.55-3.63,6.88-7.44,10.99-10.49
		C55.18,155.311,53.5,152.99,51.13,153.34 M105.44,181.141c-2.09,2.629-4.52,5.979-3.35,9.52c2.68,4.33,8.07,5.29,12.74,4.279
		C118.44,189.15,111.11,181.29,105.44,181.141z"/>
	<path fill="#090604" d="M273.62,98.67c8.601-1.35,17.37-2.36,26.06-1.2c5.631,0.97,10.5,4.22,15.88,6.01
		c1.69,0.75,4.271,1.7,4.261,3.88c0.02,0.59,0.06,1.75,0.09,2.34c0.85,2.07-2.42,1.13-3.33,0.74c-7.561-4.09-15.67-8.45-24.57-7.57
		c-14.13-0.63-29.939,2.35-39.35,13.83c-4.29,3.21-5.68,8.42-7.24,13.25l-0.84-0.03c-1.07-0.09-2.141-0.14-3.21-0.15
		c-3.101-0.85-2.511-6.319-5.92-7.31c-4.66-1.76-9.601,0.101-13.921,1.95c-5.439,2.81-11.549,4.67-15.899,9.189
		c-2.56,2.711-7.13,4.34-7.76,8.33c1.979,3.4,7.521,6.04,5.33,10.641c-3.3,2.539-7.71,4.33-11.88,3.07
		c-3.791-3.23-1.43-8.291-1.271-12.4c-4.93-2.301-10.5-3.74-15.88-2.131c-5.689,0.281-10.38,6.11-16.24,3.871
		c6.73-5.69,14.679-10.681,23.81-10.61c3.65,0.46,6.699,2.649,10.13,3.729c6.36-4.979,11.58-11.68,19.149-15.05
		c7.601-3.72,16.051-8.98,24.78-5.77c2.729,0.34,4.431,3.63,6.94,3.7c2.39-3.101,3.67-6.99,6.529-9.74
		C256.62,105.78,264.48,100.5,273.62,98.67 M195.109,147.45c-1.18,0.95,0.23,3.3,1.58,2.29
		C197.88,148.8,196.439,146.47,195.109,147.45z"/>
	<path fill="#090604" d="M101.41,99.35c2.47-0.82,5.55,0.42,6.22,3.07c1.57,3.92-4.03,8.21-7.29,5.29
		C97.24,105.83,97.67,100.18,101.41,99.35z"/>
	<path fill="#090604" d="M95.25,109.59c6.35,0.63,10.23,9.26,4.96,13.71c2.25-6.38-4.4-12.1-10.46-11.39
		c-0.46,4.13,3.98,4.03,6.02,6.37c0.68,2.13,1.16,4.319,2.87,5.93c-1.03,2.22-3.39,3.601-5,5.42c-3.69,3.24-4.38,8.69-8.43,11.62
		c-3.85,3.03-7.92,6.92-13.2,6.62c-6.76,0.649-13.34-7.511-9.96-13.81c4.41-6.891,12.8-9.101,18.73-14.271
		C85.54,116.32,88.63,109.65,95.25,109.59 M84.49,124.62c-2.62,1.33-4.43,3.729-6.84,5.34c1.37,1.94,3.09,3.7,5.37,4.54
		c2.56-1.24,3.95-4.02,5-6.54C87.16,126.72,86.09,124.641,84.49,124.62 M72.28,128.42c-2.8,0.83-5.83,1.811-7.77,4.13
		c-2.36,4.87,0.86,9.91,4.64,12.91c4.1,0.44,9.35,0.19,10.97-4.38c-1.08-1.15-2.67-2.49-4.22-1.23c-3.45,1.84-10.21,0.67-8.72-4.51
		c2.59-2.05,6.26-1.529,9.04-3.27C75.05,130.88,74.1,128.34,72.28,128.42z"/>
	<path fill="#090604" d="M110.52,111.52c2.97-1.27,7.12,0.98,6.47,4.49c0.54,3.37-3.4,5.74-6.3,4.391
		C106.94,119.11,106.94,113.04,110.52,111.52z"/>
</g>
<g id="_x23_73726dfa">
	<path opacity="0.98" fill="#73726D" enable-background="new    " d="M160.87,10.96c1.12-1.1,2.75-1.22,4.19-0.78
		C164,11.27,162.21,12.09,160.87,10.96z"/>
	<path opacity="0.98" fill="#73726D" enable-background="new    " d="M319.82,107.36c1.83-0.81,1.96,3.04,0.09,2.34
		C319.88,109.11,319.84,107.95,319.82,107.36z"/>
</g>
<g id="_x23_e63100ff">
	<path fill="#D19812" d="M115.25,36.24c2.17-2.021,3.95-4.88,7.06-5.5c-2.2,2.67-4.83,5.07-6.33,8.25
		c-2.54,5.52-8.68,9.45-8.11,16.17c3.62-2.56,7.16-5.29,11.28-7.01c5.72-2.4,10.72-6.78,17.12-7.29c-1.01,2.07-2.04,4.13-3.29,6.06
		c2.58,2.33,5.64-0.81,8.16-1.8c6.15-1.9,11.11-7.3,17.86-7.21c8.45,0.69,16.971,6.14,25.41,2.62c6.85-0.71,13.359-4.19,20.32-3.41
		c0.72,1.38,1.369,2.87,1.299,4.47c-5.139,1.39-10,3.54-14.85,5.67c-4.13,1.55-8.5,4.03-10.3,8.271
		c12.649,6.58,25.06-3.14,36.979-6.69c7.061-1.55,13.92-4.18,21.201-4.57c6.229-1.47,13.51-2.18,18.879,1.99
		c1.701,5.69-5.5,5.59-9.149,6.55c-12.021,4.24-23.47,11.69-30.2,22.79c-2.89,5.14-9.54,4.04-14.42,5.53
		c-1.96,0.79-6.17,0.18-5.13,3.37c7.351,2.53,15.181,5.22,23.03,3.48c0.789,4.34-4.82,4.9-7.551,6.88
		c4.181,0.22,8.371,0.3,12.551,0.07c4.24-0.24,7.88-2.95,12.119-3.23c-0.77,3.56-3.049,6.52-5.029,9.49
		c-3.12,3.53-8.131,4.18-12.46,5.27c2.159,1.93,8.39,3.09,5.64,6.76c-9.27,4.7-20.3,2.12-29.88,5.84
		c-6.149,0.2-11.54,3.82-17.72,4.1c2.289,3.75,7.39,3.02,10.189,6.18c0.961,4.48-5.3,4.11-8.189,5.03
		c-9.131-0.07-17.08,4.92-23.81,10.61c-4.66,3.629-11.05,3.489-15.98,6.64c1.27,2.39,4.72,3.12,5.2,6.021
		c-3.95,0.989-8.01,1.459-11.95,2.479c0.95,1.68,3.12,4.149,0.64,5.62c-7.44-1.66-15.4,0.04-22.57-2.971
		c-3.48-2.1-5.85-5.629-9.44-7.609c-3.62-2.51-8.29-1.82-12.25-3.46c11.79-5.66,23.56-11.62,33.61-20.12
		c4.37,1.65,8.14,4.91,12.93,5.39c6.4,0.82,13.75-0.68,17.98-5.909c2.46-2.9,5.27-5.601,7.11-8.961c2.74-7.51-0.72-15.38-4.88-21.62
		c4.76,2.23,9.27,5.75,14.79,5.55c-0.21-6.19-7.82-6.68-11.88-9.561c1.279-4.38,7.14-1.28,8.88-5.28
		c-3.021-0.78-6.25-0.86-9.11-2.19c-3.61-3.08-5.4-7.9-4.6-12.59c0.63-2.64-2.17-3.94-3.28-5.94c-0.15-1.93,0.27-3.86,0.18-5.8
		c-5.3,1.91-11.13,2.19-16.54,0.59c-2.48-4.14-2.75-10.39-8.17-11.99c-2.83-2.25-1.49,2.16-2.69,3.62
		c-5.31-1.01-10.95-3.24-16.29-1.24c-6.89,6.2-11.27,15.93-9.55,25.27c0.02,2.35,1.67,5.55-0.94,7.06
		c-11.81,9.31-23.55,18.69-34.93,28.53c-2.39-6.85,5.73-9.89,6.4-15.979c1.1-3.75,3.64-6.87,6.56-9.37
		c3.8-2.91,3.25-8.35,6.01-11.98c2.61-3.7,3.6-8.21,6-12C96.98,56.16,105.54,45.65,115.25,36.24z"/>
	<path fill="#D19812" d="M84.49,124.62c1.6,0.021,2.67,2.1,3.53,3.34c-1.05,2.521-2.44,5.3-5,6.54c-2.28-0.84-4-2.6-5.37-4.54
		C80.06,128.35,81.87,125.95,84.49,124.62z"/>
</g>
<g id="_x23_fbfcf7ff">
	<path fill="#FBFCF7" d="M113.41,57.37c4.95-0.26,10.21,1.17,14.55,3.6c0.54,3.33,3.1,5.5,5.39,7.71c4.4,7.25,8.14,16.73,3.34,24.74
		c-5.5,1.42-9.07,5.89-12.9,9.72c-3.28,1.34-6.73-1.15-9.04-3.35c-1.26-2.61,2.25-1.89,3.73-2.58c11.75-7.68,10.84-27.52-1.15-34.59
		c-3-2.05-6.7-1.48-10.05-0.92C109.03,59.9,111.04,58.29,113.41,57.37z"/>
	<path fill="#FBFCF7" d="M107.45,66.48c5.3-2.33,11.62,5.03,8,9.93c-2.6,4.85-11.03,3.9-12.16-1.56
		C101.95,71.47,104.43,67.9,107.45,66.48z"/>
	<path fill="#FBFCF7" d="M143.24,68.2c7.17-1.7,12.61,7.13,10.61,13.44c-6.35,1.75-7.82,11.14-2.21,14.73
		c0.99,1.71,5.8,2.04,4.29,4.35c-3.06-1.33-5.62-3.51-8.46-5.189c-2.97-1.67-6.52-1.22-9.77-1.68c1.63-3.6,2.39-7.48,2.46-11.42
		c4.01,1.36,11.86-2.79,8.76-7.34c-2.15,1.15-3.91,2.86-5.9,4.25c-2.98-2.34-3.56-6.85-5.22-10.2
		C139.59,68.76,141.4,68.41,143.24,68.2z"/>
	<path fill="#FBFCF7" d="M107.12,81.85c3.44-1.22,3.42,1.62,2.93,4.22C106.5,87.38,104.24,84.55,107.12,81.85z"/>
	<path fill="#FBFCF7" d="M154.39,83.67c2.25,2.83,4.29,5.86,6.86,8.42c-0.94,1.53-2.19,2.84-3.44,4.12
		c-2.54-0.97-4.97-2.7-6.13-5.23C151.3,88.24,153.18,85.95,154.39,83.67z"/>
	<path fill="#FBFCF7" d="M101.42,88.5c1.31-0.78,2.51,1.72,3.5,2.53c4.53,6.2,10.23,12.59,18.21,13.85
		c-4.98,7.56-3.62,17.351,0.2,24.99c-9.94,9.569-23.02,15.399-35.57,20.93c-8.78,4.21-19,7.23-28.63,4.24
		c-5.24-1.26-11.34-5.97-9.36-12.03c2.29-8.88,8-16.51,13.88-23.36C75.62,108.54,88.68,98.69,101.42,88.5 M101.41,99.35
		c-3.74,0.83-4.17,6.48-1.07,8.36c3.26,2.92,8.86-1.37,7.29-5.29C106.96,99.77,103.88,98.53,101.41,99.35 M95.25,109.59
		c-6.62,0.06-9.71,6.73-14.47,10.2c-5.93,5.17-14.32,7.38-18.73,14.271c-3.38,6.299,3.2,14.459,9.96,13.81
		c5.28,0.3,9.35-3.59,13.2-6.62c4.05-2.93,4.74-8.38,8.43-11.62c1.61-1.819,3.97-3.2,5-5.42c-1.71-1.61-2.19-3.8-2.87-5.93
		c-2.04-2.34-6.48-2.24-6.02-6.37c6.06-0.71,12.71,5.01,10.46,11.39C105.48,118.85,101.6,110.22,95.25,109.59 M110.52,111.52
		c-3.58,1.52-3.58,7.59,0.17,8.88c2.9,1.35,6.84-1.021,6.3-4.391C117.64,112.5,113.49,110.25,110.52,111.52z"/>
	<path fill="#FBFCF7" d="M134.36,95.39c3.53-1.25,7.71-0.91,11.15,0.57c-0.55,1.31-2.02,1.76-3.08,2.55
		c-8.64,5.03-13.21,16.04-10.59,25.69c3.12,3.29,3.89,7.96,6.93,11.31c-7.06-1.07-13.69-5.119-16.7-11.779
		C117.95,112.85,124.72,100.72,134.36,95.39z"/>
	<path fill="#FBFCF7" d="M150.28,103.15c5.17-2.93,12.02,4.05,8.96,9.15c-1.53,3.11-5.51,4.67-8.68,3.08
		C145.41,113.56,145.29,105.19,150.28,103.15z"/>
	<path fill="#FBFCF7" d="M150.92,117.88c1.4-0.08,2.8-0.05,4.19,0.09c0.63,2.8-1.5,5.05-4.33,4.261
		C150.72,120.78,150.76,119.32,150.92,117.88z"/>
	<path fill="#FBFCF7" d="M72.28,128.42c1.82-0.08,2.77,2.46,3.94,3.65c-2.78,1.74-6.45,1.22-9.04,3.27
		c-1.49,5.18,5.27,6.35,8.72,4.51c1.55-1.26,3.14,0.08,4.22,1.23c-1.62,4.57-6.87,4.82-10.97,4.38c-3.78-3-7-8.04-4.64-12.91
		C66.45,130.23,69.48,129.25,72.28,128.42z"/>
	<path fill="#FBFCF7" d="M241.37,129.77c1.069,0.011,2.14,0.061,3.21,0.15C245.1,131.88,240.779,131.689,241.37,129.77z"/>
	<path fill="#FBFCF7" d="M48.58,148.34c0,0.061-0.01,0.17-0.01,0.23C48.57,148.51,48.58,148.4,48.58,148.34z"/>
	<path fill="#FBFCF7" d="M36.81,172.08c0.89,1.26,0.07,2.65-1.18,3.23C34.92,173.87,35.32,172.79,36.81,172.08z"/>
	<path fill="#FBFCF7" d="M35.71,187.891c0.3-0.431,0.9-1.301,1.2-1.74C36.61,186.59,36.01,187.46,35.71,187.891z"/>
</g>
</svg>
