<?xml version="1.0" encoding="UTF-8" ?>
<!DOCTYPE svg PUBLIC "-//W3C//DTD SVG 1.1//EN" "http://www.w3.org/Graphics/SVG/1.1/DTD/svg11.dtd">
<svg width="362pt" height="363pt" viewBox="0 0 362 363" version="1.1" xmlns="http://www.w3.org/2000/svg">
<g id="#fdfdfdff">
<path fill="#fdfdfd" opacity="1.00" d=" M 0.00 0.00 L 0.28 0.00 C 0.21 0.07 0.07 0.21 0.00 0.28 L 0.00 0.00 Z" />
<path fill="#fdfdfd" opacity="1.00" d=" M 131.03 41.29 C 138.00 38.77 145.51 37.33 152.93 38.20 C 159.77 39.65 165.13 44.62 169.19 50.06 C 172.58 54.35 171.65 60.63 169.22 65.14 C 167.46 66.55 165.84 69.16 163.34 68.88 C 159.24 68.37 155.10 68.82 151.00 68.49 C 154.02 69.55 157.06 70.55 160.12 71.52 C 155.42 73.89 150.32 75.25 145.56 77.46 L 145.49 77.49 C 140.56 79.51 135.20 79.93 129.93 79.93 C 126.60 79.06 123.23 77.73 120.66 75.39 C 116.91 71.22 115.08 65.61 114.69 60.09 C 115.54 55.28 118.19 50.94 121.37 47.32 C 123.87 44.33 127.56 42.82 131.03 41.29 M 122.11 55.96 C 119.05 57.35 119.43 61.30 119.33 64.09 C 122.40 66.54 125.65 70.34 130.07 68.89 C 131.92 67.46 133.02 65.23 133.85 63.09 C 133.87 61.05 133.09 59.08 132.56 57.13 C 129.46 55.27 125.54 54.65 122.11 55.96 M 145.31 67.20 L 145.31 67.83 L 146.00 68.27 C 146.41 68.16 147.23 67.94 147.65 67.83 L 147.64 67.21 C 147.23 67.10 146.40 66.88 145.99 66.77 L 145.31 67.20 Z" />
<path fill="#fdfdfd" opacity="1.00" d=" M 176.02 89.36 C 182.90 89.89 189.55 86.75 196.44 88.12 L 196.68 88.14 C 197.77 93.58 200.63 98.54 204.30 102.66 C 206.24 106.03 206.10 110.15 206.70 113.90 C 206.88 118.37 208.83 122.55 208.99 127.01 C 208.51 129.30 208.23 131.63 208.37 133.98 C 207.66 133.45 206.95 132.92 206.24 132.39 C 206.00 133.89 205.57 135.33 204.93 136.71 C 205.75 138.06 205.66 139.54 203.65 139.33 C 203.35 138.87 202.75 137.94 202.45 137.48 C 201.46 139.67 200.46 142.05 198.49 143.56 C 196.09 145.08 194.56 147.89 194.55 150.73 C 194.26 150.37 193.69 149.67 193.41 149.31 C 192.93 150.77 192.01 151.97 190.96 153.04 C 189.98 154.05 189.28 155.28 188.66 156.53 C 188.28 156.59 187.52 156.70 187.14 156.75 C 187.04 157.55 186.86 159.15 186.77 159.95 C 186.63 160.66 186.36 162.08 186.22 162.79 C 183.11 159.75 182.07 155.45 180.35 151.61 C 179.66 150.37 179.79 148.92 179.71 147.56 C 178.74 147.97 177.75 148.37 176.76 148.75 C 176.37 148.35 175.58 147.56 175.19 147.16 C 173.78 146.44 173.12 144.90 172.03 143.83 C 169.82 142.14 167.09 141.45 164.75 139.99 C 164.37 140.05 163.59 140.18 163.21 140.24 L 162.76 139.01 C 160.65 139.47 159.13 140.96 158.05 142.75 C 157.01 141.83 156.03 140.85 154.93 140.02 C 153.69 139.88 152.62 140.82 151.43 141.02 C 148.91 143.46 146.03 145.76 144.37 148.91 C 143.36 153.38 143.18 158.03 141.81 162.45 C 140.34 162.60 138.88 162.76 137.42 162.92 C 137.36 158.25 134.35 154.58 132.01 150.81 C 130.37 145.85 127.70 141.29 125.64 136.49 C 124.11 133.83 125.36 130.44 123.40 127.96 C 123.49 125.27 124.23 122.61 123.86 119.92 C 122.84 111.33 121.70 102.63 122.98 94.00 C 131.33 88.89 141.49 88.75 150.98 88.39 C 159.35 87.97 167.67 89.13 176.02 89.36 M 166.52 94.07 C 166.41 96.58 166.47 99.15 167.63 101.45 C 170.09 101.88 172.59 101.96 175.08 101.68 C 177.80 101.51 180.26 99.90 183.02 100.04 C 187.31 99.90 191.18 102.00 195.01 103.62 C 193.57 100.45 191.29 97.52 188.06 96.05 C 183.90 94.15 179.29 95.58 174.93 94.88 C 172.15 94.43 169.36 93.83 166.52 94.07 M 134.92 98.50 C 132.89 98.68 130.48 98.27 128.93 99.93 C 126.32 102.59 125.93 106.52 125.32 110.01 C 127.47 107.34 128.80 103.70 131.98 102.08 C 137.23 103.46 142.69 103.41 148.08 103.21 C 148.14 100.96 148.53 98.74 148.89 96.53 C 144.16 96.64 139.64 98.25 134.92 98.50 M 169.49 110.90 C 169.72 113.17 172.10 114.14 172.95 116.09 C 174.14 118.65 176.17 120.66 177.95 122.81 C 176.63 120.51 175.28 118.22 173.91 115.95 C 173.65 114.30 172.83 112.70 173.06 111.01 C 173.69 109.39 175.13 107.80 177.02 107.88 C 180.93 107.55 185.20 108.80 187.63 112.05 C 188.64 111.31 190.76 110.61 189.68 108.97 C 187.33 105.63 182.66 105.85 179.01 105.88 C 175.39 105.93 170.74 106.98 169.49 110.90 M 131.15 111.02 C 132.47 113.10 134.35 114.72 135.81 116.67 C 137.31 115.34 135.46 113.88 134.66 112.83 C 134.72 110.05 137.66 109.25 139.87 108.77 C 141.35 109.75 142.88 109.85 144.48 109.09 L 145.11 108.87 C 147.08 110.64 148.67 113.23 148.11 115.97 C 146.62 118.60 143.61 120.64 144.29 124.07 C 146.24 119.82 148.73 115.85 151.45 112.06 C 150.21 109.58 147.45 108.52 144.84 108.31 L 144.34 108.52 L 144.46 107.98 C 142.74 107.17 140.03 106.86 138.46 108.04 C 135.77 107.32 132.15 108.07 131.15 111.02 M 176.29 110.23 C 175.25 111.50 175.15 113.95 176.93 114.61 C 178.33 115.69 179.97 114.86 181.45 114.49 C 181.82 113.12 182.78 111.51 181.71 110.20 C 180.38 108.68 177.40 108.27 176.29 110.23 M 140.18 110.33 C 138.48 111.23 138.68 113.54 138.74 115.18 C 140.16 115.47 141.56 116.57 143.05 115.94 C 145.31 115.53 145.41 112.70 144.95 110.92 C 143.43 110.49 141.73 109.38 140.18 110.33 M 166.03 117.96 C 167.13 122.23 170.62 125.48 171.29 129.91 C 171.86 132.44 172.81 135.57 170.54 137.58 C 170.46 138.36 170.39 139.14 170.31 139.92 C 170.23 137.89 172.26 137.28 173.46 136.07 C 174.78 133.74 174.34 130.81 173.56 128.39 C 171.12 124.87 168.14 121.73 166.03 117.96 M 146.10 133.02 C 145.91 134.61 147.93 135.24 148.88 136.17 C 148.18 135.05 147.42 133.97 146.75 132.83 C 147.69 128.83 148.98 124.92 149.87 120.92 C 147.76 124.65 147.11 128.92 146.10 133.02 M 160.92 132.42 C 162.86 133.83 164.43 136.17 167.06 136.20 C 167.94 134.12 168.51 131.69 166.78 129.85 C 164.29 128.92 162.36 130.56 160.92 132.42 M 148.89 131.08 C 149.75 131.87 150.62 132.66 151.54 133.39 C 152.12 134.86 152.88 136.40 154.76 135.88 C 154.50 134.46 154.87 132.64 153.50 131.70 C 152.27 130.37 150.43 130.41 148.89 131.08 Z" />
</g>
<g id="#ffffffff">
<path fill="#ffffff" opacity="1.00" d=" M 0.28 0.00 L 362.00 0.00 L 362.00 327.06 C 356.34 326.83 350.66 327.18 345.01 326.70 C 341.00 326.31 337.00 326.96 333.00 326.97 C 323.00 326.95 313.00 326.95 303.00 326.96 C 299.10 326.94 295.12 327.23 291.31 326.22 C 286.84 320.37 281.80 314.81 278.97 307.91 C 277.55 304.37 277.01 300.58 276.48 296.83 L 276.40 295.92 C 282.94 294.98 289.42 297.01 295.95 296.34 C 308.45 295.32 320.29 290.77 331.83 286.16 C 332.43 291.76 333.55 297.29 333.94 302.92 C 334.29 309.95 335.87 316.94 338.28 323.53 C 338.74 323.69 339.67 324.00 340.14 324.15 C 341.66 322.26 339.84 319.90 339.61 317.86 C 336.77 309.45 337.14 300.49 335.61 291.84 C 335.22 289.25 334.66 286.63 335.03 284.00 C 335.56 279.65 335.34 275.25 334.91 270.91 C 334.87 269.62 334.28 268.47 333.64 267.39 C 331.37 263.55 329.88 259.32 328.57 255.08 C 325.62 243.39 322.68 231.68 318.80 220.26 C 311.82 202.90 300.79 187.66 290.54 172.15 C 287.54 168.19 283.30 165.42 279.18 162.76 C 275.82 160.68 272.37 158.72 268.58 157.55 C 261.53 155.41 254.49 152.79 247.06 152.33 C 236.62 151.79 227.01 147.27 217.32 143.78 C 217.22 141.86 217.13 139.94 217.05 138.03 C 218.66 136.91 220.74 136.03 221.37 133.99 C 222.54 131.43 221.51 128.67 221.11 126.07 C 220.48 122.63 222.10 119.36 222.31 115.97 C 222.64 110.95 221.17 106.06 220.80 101.08 C 220.00 97.81 219.23 94.52 218.75 91.18 C 218.20 87.61 215.48 85.01 214.17 81.77 C 213.90 78.80 214.85 75.49 213.20 72.80 C 210.22 68.15 210.34 62.31 207.81 57.47 C 206.48 55.73 204.75 54.37 203.34 52.71 C 201.87 51.17 202.76 48.80 202.48 46.94 C 204.12 47.61 205.54 47.91 204.85 45.17 C 202.98 43.75 201.18 42.23 199.60 40.51 C 201.45 36.55 202.83 32.37 203.73 28.10 C 204.61 22.08 202.34 16.09 198.96 11.20 C 197.10 8.08 193.67 5.89 190.00 5.87 C 184.76 5.72 179.01 6.25 174.89 9.85 C 171.00 13.31 169.90 18.65 168.12 23.32 C 166.05 21.78 163.52 22.19 161.12 22.34 C 158.29 21.85 155.57 20.88 152.77 20.25 C 152.22 21.65 151.66 23.05 151.13 24.46 C 146.30 25.38 142.21 28.17 137.75 30.05 C 134.26 27.48 129.19 27.04 125.46 29.33 C 121.45 31.90 118.01 35.24 114.72 38.65 C 111.38 42.03 109.61 46.54 106.78 50.30 C 107.25 50.56 108.20 51.08 108.68 51.34 C 108.47 54.61 108.44 57.93 109.44 61.09 C 110.96 65.43 107.61 69.57 108.50 73.95 C 108.83 75.65 110.55 76.38 111.83 77.28 C 112.44 79.46 112.93 81.68 113.36 83.91 C 110.62 85.34 107.82 86.65 105.12 88.15 C 103.62 88.99 101.95 90.16 101.83 92.07 C 101.97 93.71 103.23 95.33 104.99 95.32 C 110.00 95.38 114.98 94.57 119.94 93.99 C 118.70 102.64 119.84 111.33 120.82 119.94 C 121.41 123.33 119.60 126.75 120.83 130.06 C 122.18 135.27 121.38 140.68 121.60 145.98 C 121.73 151.43 122.61 156.81 123.56 162.17 C 112.04 163.71 102.39 170.56 92.10 175.35 C 88.45 177.06 85.63 180.02 82.72 182.72 C 77.67 187.67 72.44 192.64 68.85 198.80 C 68.14 199.01 67.42 199.22 66.71 199.44 C 66.62 202.34 64.25 204.37 62.76 206.63 C 58.43 212.75 54.11 218.89 49.82 225.04 C 47.17 229.17 44.31 233.25 42.63 237.90 C 39.02 251.31 33.06 263.94 28.19 276.91 C 23.33 290.20 18.73 303.57 14.04 316.91 C 13.29 319.37 11.57 322.04 12.95 324.61 C 9.27 327.27 4.34 327.01 0.00 327.02 L 0.00 0.28 C 0.07 0.21 0.21 0.07 0.28 0.00 Z" />
<path fill="#ffffff" opacity="1.00" d=" M 217.81 147.11 C 226.97 150.58 236.16 154.63 246.07 155.26 C 253.68 155.62 260.87 158.36 268.09 160.54 C 272.96 161.92 277.05 165.00 281.23 167.75 C 284.36 169.82 287.29 172.32 289.27 175.55 C 295.28 185.03 301.97 194.07 307.38 203.92 C 311.12 210.73 315.07 217.54 317.23 225.06 C 320.04 234.02 322.47 243.09 324.76 252.20 C 325.85 257.33 327.69 262.28 330.02 266.98 C 333.14 271.99 332.29 278.19 332.13 283.81 C 322.13 288.01 311.88 291.86 301.15 293.69 C 296.49 294.51 291.72 294.71 287.03 294.08 C 282.85 293.53 278.58 293.43 274.47 294.54 C 274.09 297.13 273.81 299.73 273.47 302.33 C 271.19 297.50 273.62 292.17 272.51 287.13 C 270.22 276.23 268.66 265.15 268.06 254.04 C 267.76 249.93 265.71 246.15 265.85 242.00 C 265.91 235.17 264.91 228.40 263.89 221.67 C 263.49 218.39 262.80 215.15 262.55 211.85 C 259.41 221.63 260.82 231.94 260.46 242.01 C 260.17 248.10 262.38 253.92 262.52 259.97 C 262.75 266.61 263.11 273.25 263.61 279.87 C 263.97 284.15 266.30 287.89 267.18 292.04 C 268.01 295.64 268.15 299.38 267.97 303.07 C 267.90 305.63 266.83 308.19 264.94 309.95 C 263.09 311.41 260.88 312.32 258.73 313.22 C 255.27 314.60 251.50 314.79 247.85 314.13 C 243.36 313.68 238.89 313.03 234.55 311.75 C 229.87 311.03 226.23 307.78 222.67 304.93 C 224.92 309.14 229.09 311.82 233.31 313.79 C 229.53 313.88 225.78 313.43 222.02 313.25 C 217.42 313.05 213.42 315.78 208.92 316.21 C 206.28 316.54 203.69 317.33 201.01 317.26 C 192.58 316.57 184.48 313.60 176.01 313.27 C 167.11 313.80 158.83 309.67 150.03 309.22 C 156.30 310.86 162.63 312.27 168.86 314.06 C 172.45 315.07 176.29 313.90 179.86 315.06 C 182.58 315.84 185.46 315.78 188.17 316.64 C 191.70 317.80 195.61 317.20 198.99 318.91 C 204.09 321.04 209.69 319.01 214.91 318.41 C 221.07 316.21 227.58 315.33 234.11 315.84 C 238.05 316.63 241.90 318.20 245.99 318.02 C 252.40 317.78 258.86 318.85 265.21 317.54 C 268.27 320.60 272.40 321.96 276.09 324.04 L 276.99 324.86 C 273.49 327.38 269.06 326.93 265.00 326.94 C 205.66 326.96 146.33 326.95 86.99 326.97 C 82.73 326.93 78.49 326.39 74.23 326.47 C 73.08 326.66 72.14 326.06 71.37 325.27 C 73.35 324.23 75.44 323.43 77.38 322.32 C 78.78 321.19 78.96 319.28 79.57 317.71 L 79.69 317.35 C 81.48 316.81 83.26 316.28 85.06 315.81 C 85.37 316.37 85.97 317.49 86.27 318.05 C 86.12 316.29 85.83 314.54 85.47 312.81 C 87.13 311.58 88.75 309.96 90.96 309.93 C 94.00 309.56 97.00 308.58 100.09 308.78 C 105.22 310.45 110.89 310.13 115.78 307.85 C 120.92 305.32 126.65 304.44 131.98 302.40 C 134.88 301.33 137.85 300.17 141.00 300.35 C 146.53 300.17 151.47 303.36 156.95 303.60 C 163.26 304.00 169.60 303.90 175.88 304.66 C 180.77 305.60 185.56 306.98 190.40 308.17 C 187.21 305.40 183.38 303.22 179.14 302.68 C 169.35 300.49 159.18 300.70 149.44 298.26 C 144.83 296.49 138.99 295.53 134.85 298.86 C 133.43 299.99 131.60 300.16 129.88 300.42 C 123.35 301.23 117.36 304.15 111.16 306.19 C 108.08 307.20 104.68 307.71 101.54 306.64 C 98.32 305.41 94.35 306.79 91.61 304.30 C 89.23 301.87 87.84 298.43 87.99 295.02 C 87.39 285.64 90.15 276.55 91.70 267.40 C 91.22 267.52 90.28 267.77 89.81 267.89 C 89.11 270.94 88.13 273.91 87.39 276.95 C 87.82 273.07 87.97 269.17 88.49 265.30 C 88.02 264.55 87.56 263.81 87.09 263.08 C 86.80 265.37 86.35 267.66 85.90 269.93 C 84.74 274.56 83.09 279.15 83.20 284.00 C 82.88 290.75 84.73 297.46 83.73 304.20 C 82.66 307.73 77.48 309.07 77.90 313.27 C 77.84 315.52 77.13 317.66 76.31 319.74 C 74.28 321.09 72.51 322.80 71.09 324.77 C 69.98 325.24 68.88 325.70 67.77 326.15 C 60.85 324.27 55.33 319.45 49.47 315.57 C 40.97 309.16 32.54 302.61 24.58 295.54 C 26.12 291.91 27.31 288.16 28.64 284.45 C 33.41 270.64 39.69 257.40 44.21 243.50 C 46.32 233.30 53.59 225.41 59.18 216.96 C 67.25 205.60 74.91 193.67 85.45 184.38 C 86.10 184.45 87.39 184.60 88.03 184.67 C 91.97 185.25 96.22 185.09 99.74 187.24 C 102.79 189.14 105.42 191.65 108.54 193.46 C 113.18 196.13 116.90 200.22 121.95 202.20 C 126.19 203.92 129.54 207.38 134.06 208.49 C 140.64 210.07 146.31 214.40 153.18 214.98 C 155.05 215.66 156.92 216.50 158.96 216.42 C 165.68 216.47 172.55 217.98 179.16 216.13 C 183.24 215.05 186.80 212.66 189.96 209.93 C 192.22 207.89 195.23 206.66 196.97 204.07 C 199.06 200.88 202.27 198.51 203.83 194.96 C 205.45 192.06 205.55 188.68 206.36 185.54 C 209.21 180.50 212.99 175.78 214.11 169.97 C 215.48 162.37 217.22 154.82 217.81 147.11 M 89.41 218.02 C 89.90 223.00 89.53 228.00 89.50 232.99 C 89.34 238.01 89.76 243.09 88.82 248.06 C 87.76 252.98 87.54 258.02 87.37 263.04 C 87.82 263.13 88.74 263.32 89.20 263.41 C 88.78 257.27 90.23 251.19 90.26 245.05 C 91.02 237.40 90.10 229.74 90.18 222.09 C 90.13 220.70 89.72 219.36 89.41 218.02 M 91.98 248.01 C 91.81 253.94 90.90 259.81 90.57 265.73 C 90.85 265.48 91.42 264.97 91.71 264.72 C 93.51 260.40 93.14 255.62 93.87 251.08 C 95.22 240.74 94.61 230.28 95.66 219.91 C 91.73 228.73 93.98 238.76 91.98 248.01 Z" />
<path fill="#ffffff" opacity="1.00" d=" M 0.00 331.91 C 4.00 332.03 8.00 332.07 11.99 332.05 C 128.66 332.00 245.33 332.09 362.00 332.00 L 362.00 363.00 L 0.00 363.00 L 0.00 331.91 Z" />
</g>
<g id="#020202ff">
<path fill="#020202" opacity="1.00" d=" M 174.89 9.85 C 179.01 6.25 184.76 5.72 190.00 5.87 C 193.67 5.89 197.10 8.08 198.96 11.20 C 202.34 16.09 204.61 22.08 203.73 28.10 C 202.83 32.37 201.45 36.55 199.60 40.51 C 201.18 42.23 202.98 43.75 204.85 45.17 C 205.54 47.91 204.12 47.61 202.48 46.94 C 202.76 48.80 201.87 51.17 203.34 52.71 C 204.75 54.37 206.48 55.73 207.81 57.47 C 210.34 62.31 210.22 68.15 213.20 72.80 C 214.85 75.49 213.90 78.80 214.17 81.77 C 215.48 85.01 218.20 87.61 218.75 91.18 C 219.23 94.52 220.00 97.81 220.80 101.08 C 221.17 106.06 222.64 110.95 222.31 115.97 C 222.10 119.36 220.48 122.63 221.11 126.07 C 221.51 128.67 222.54 131.43 221.37 133.99 C 220.74 136.03 218.66 136.91 217.05 138.03 C 217.13 139.94 217.22 141.86 217.32 143.78 C 227.01 147.27 236.62 151.79 247.06 152.33 C 254.49 152.79 261.53 155.41 268.58 157.55 C 272.37 158.72 275.82 160.68 279.18 162.76 C 283.30 165.42 287.54 168.19 290.54 172.15 C 300.79 187.66 311.82 202.90 318.80 220.26 C 322.68 231.68 325.62 243.39 328.57 255.08 C 329.88 259.32 331.37 263.55 333.64 267.39 C 334.28 268.47 334.87 269.62 334.91 270.91 C 335.34 275.25 335.56 279.65 335.03 284.00 C 334.66 286.63 335.22 289.25 335.61 291.84 C 337.14 300.49 336.77 309.45 339.61 317.86 C 339.84 319.90 341.66 322.26 340.14 324.15 C 339.67 324.00 338.74 323.69 338.28 323.53 C 335.87 316.94 334.29 309.95 333.94 302.92 C 333.55 297.29 332.43 291.76 331.83 286.16 C 320.29 290.77 308.45 295.32 295.95 296.34 C 289.42 297.01 282.94 294.98 276.40 295.92 L 276.48 296.83 C 274.83 305.24 273.97 314.32 277.36 322.43 L 277.95 324.08 C 277.71 324.27 277.23 324.67 276.99 324.86 L 276.09 324.04 C 273.41 318.45 273.14 312.08 273.10 306.00 C 273.23 302.61 270.86 299.82 270.52 296.53 C 270.51 293.03 271.63 289.59 271.26 286.08 C 270.74 282.19 268.64 278.69 268.39 274.75 C 268.15 271.43 267.72 268.13 266.90 264.90 C 265.63 259.66 265.67 254.23 264.83 248.92 C 263.05 239.94 263.85 230.75 263.89 221.67 C 264.91 228.40 265.91 235.17 265.85 242.00 C 265.71 246.15 267.76 249.93 268.06 254.04 C 268.66 265.15 270.22 276.23 272.51 287.13 C 273.62 292.17 271.19 297.50 273.47 302.33 C 273.81 299.73 274.09 297.13 274.47 294.54 C 278.58 293.43 282.85 293.53 287.03 294.08 C 291.72 294.71 296.49 294.51 301.15 293.69 C 311.88 291.86 322.13 288.01 332.13 283.81 C 332.29 278.19 333.14 271.99 330.02 266.98 C 327.69 262.28 325.85 257.33 324.76 252.20 C 322.47 243.09 320.04 234.02 317.23 225.06 C 315.07 217.54 311.12 210.73 307.38 203.92 C 301.97 194.07 295.28 185.03 289.27 175.55 C 287.29 172.32 284.36 169.82 281.23 167.75 C 277.05 165.00 272.96 161.92 268.09 160.54 C 260.87 158.36 253.68 155.62 246.07 155.26 C 236.16 154.63 226.97 150.58 217.81 147.11 C 217.22 154.82 215.48 162.37 214.11 169.97 C 212.99 175.78 209.21 180.50 206.36 185.54 C 205.55 188.68 205.45 192.06 203.83 194.96 C 202.27 198.51 199.06 200.88 196.97 204.07 C 195.23 206.66 192.22 207.89 189.96 209.93 C 186.80 212.66 183.24 215.05 179.16 216.13 C 172.55 217.98 165.68 216.47 158.96 216.42 C 156.92 216.50 155.05 215.66 153.18 214.98 C 151.40 213.28 149.90 211.32 148.34 209.43 C 146.53 207.09 143.29 206.76 141.11 204.92 C 139.91 203.48 139.34 201.65 138.56 199.99 C 137.20 196.48 134.31 193.92 132.54 190.65 C 130.67 186.87 130.96 182.50 129.58 178.57 C 127.93 174.06 126.63 169.43 124.69 165.03 C 113.93 166.36 104.83 172.65 95.23 177.16 C 91.64 178.68 88.59 181.13 85.90 183.92 C 86.43 184.11 87.50 184.48 88.03 184.67 C 87.39 184.60 86.10 184.45 85.45 184.38 C 74.91 193.67 67.25 205.60 59.18 216.96 C 53.59 225.41 46.32 233.30 44.21 243.50 C 39.69 257.40 33.41 270.64 28.64 284.45 C 27.31 288.16 26.12 291.91 24.58 295.54 C 32.54 302.61 40.97 309.16 49.47 315.57 C 55.33 319.45 60.85 324.27 67.77 326.15 C 68.11 326.27 68.80 326.51 69.14 326.63 C 67.40 326.84 65.64 327.10 63.89 326.93 C 61.99 326.28 60.33 325.12 58.61 324.13 C 46.29 316.41 35.06 307.12 23.93 297.82 C 20.64 306.50 18.16 315.51 14.49 324.04 C 14.10 324.18 13.33 324.47 12.95 324.61 C 11.57 322.04 13.29 319.37 14.04 316.91 C 18.73 303.57 23.33 290.20 28.19 276.91 C 33.06 263.94 39.02 251.31 42.63 237.90 C 44.31 233.25 47.17 229.17 49.82 225.04 C 54.11 218.89 58.43 212.75 62.76 206.63 C 64.25 204.37 66.62 202.34 66.71 199.44 C 67.42 199.22 68.14 199.01 68.85 198.80 C 72.44 192.64 77.67 187.67 82.72 182.72 C 85.63 180.02 88.45 177.06 92.10 175.35 C 102.39 170.56 112.04 163.71 123.56 162.17 C 122.61 156.81 121.73 151.43 121.60 145.98 C 121.38 140.68 122.18 135.27 120.83 130.06 C 119.60 126.75 121.41 123.33 120.82 119.94 C 119.84 111.33 118.70 102.64 119.94 93.99 C 114.98 94.57 110.00 95.38 104.99 95.32 C 103.23 95.33 101.97 93.71 101.83 92.07 C 101.95 90.16 103.62 88.99 105.12 88.15 C 107.82 86.65 110.62 85.34 113.36 83.91 C 112.93 81.68 112.44 79.46 111.83 77.28 C 110.55 76.38 108.83 75.65 108.50 73.95 C 107.61 69.57 110.96 65.43 109.44 61.09 C 108.44 57.93 108.47 54.61 108.68 51.34 C 108.20 51.08 107.25 50.56 106.78 50.30 C 109.61 46.54 111.38 42.03 114.72 38.65 C 118.01 35.24 121.45 31.90 125.46 29.33 C 129.19 27.04 134.26 27.48 137.75 30.05 C 142.21 28.17 146.30 25.38 151.13 24.46 C 151.66 23.05 152.22 21.65 152.77 20.25 C 155.57 20.88 158.29 21.85 161.12 22.34 C 163.52 22.19 166.05 21.78 168.12 23.32 C 169.90 18.65 171.00 13.31 174.89 9.85 M 174.73 14.76 C 173.02 17.97 171.99 21.47 170.77 24.89 C 170.14 26.27 169.87 27.79 170.74 29.16 C 173.92 29.13 177.11 29.46 180.19 30.27 C 181.81 30.57 183.40 30.99 184.93 31.62 L 184.98 31.56 C 187.88 32.83 190.77 34.31 192.72 36.90 C 195.46 32.79 197.39 28.05 197.53 23.06 C 197.69 19.03 198.49 14.08 195.07 11.09 C 192.42 8.37 188.36 8.71 184.92 9.08 C 180.94 9.33 176.70 11.10 174.73 14.76 M 126.41 32.31 C 120.19 36.68 114.73 42.26 111.26 49.08 C 111.78 51.72 111.68 54.43 111.31 57.08 C 115.33 46.03 124.87 38.21 134.63 32.28 C 134.64 32.07 134.68 31.67 134.70 31.46 C 131.97 30.72 128.78 30.50 126.41 32.31 M 131.03 41.29 C 127.56 42.82 123.87 44.33 121.37 47.32 C 118.19 50.94 115.54 55.28 114.69 60.09 C 115.08 65.61 116.91 71.22 120.66 75.39 C 123.23 77.73 126.60 79.06 129.93 79.93 C 135.20 79.93 140.56 79.51 145.49 77.49 C 141.03 81.47 134.47 80.86 128.91 81.29 C 124.62 82.11 120.14 82.91 116.44 85.36 C 113.93 86.91 111.43 88.51 108.70 89.66 C 107.35 90.41 105.25 90.71 105.04 92.58 C 109.32 92.14 113.63 91.96 117.87 91.20 C 121.94 90.58 125.04 87.55 128.86 86.26 C 131.53 85.28 134.38 84.95 137.05 83.99 C 139.00 83.40 140.89 82.44 142.97 82.39 C 148.32 82.24 153.67 81.89 159.02 82.05 C 166.37 82.49 173.76 81.88 181.09 82.77 C 186.87 83.53 192.87 83.35 198.46 81.57 C 202.52 80.29 206.82 80.89 210.96 81.30 C 211.10 79.83 211.48 78.43 212.23 77.16 L 212.50 76.65 C 212.08 76.20 211.65 75.76 211.23 75.32 L 210.38 75.05 L 209.42 75.50 L 209.13 76.35 C 207.14 75.68 205.05 76.71 203.02 76.69 C 200.26 77.07 197.75 75.64 195.06 75.40 C 186.03 74.52 177.07 73.12 168.06 72.10 C 164.71 71.57 161.41 72.58 158.24 73.56 C 159.87 71.91 161.99 70.81 163.34 68.88 C 165.84 69.16 167.46 66.55 169.22 65.14 C 171.65 60.63 172.58 54.35 169.19 50.06 C 165.13 44.62 159.77 39.65 152.93 38.20 C 145.51 37.33 138.00 38.77 131.03 41.29 M 135.51 85.46 C 130.76 86.96 124.41 88.50 122.98 94.00 C 121.70 102.63 122.84 111.33 123.86 119.92 C 124.23 122.61 123.49 125.27 123.40 127.96 C 125.36 130.44 124.11 133.83 125.64 136.49 C 127.70 141.29 130.37 145.85 132.01 150.81 C 132.40 152.91 133.65 154.66 134.54 156.56 C 136.57 160.59 137.03 165.25 139.48 169.11 C 139.76 166.72 140.46 164.44 141.81 162.45 C 143.18 158.03 143.36 153.38 144.37 148.91 C 146.03 145.76 148.91 143.46 151.43 141.02 C 152.62 140.82 153.69 139.88 154.93 140.02 C 156.03 140.85 157.01 141.83 158.05 142.75 C 159.13 140.96 160.65 139.47 162.76 139.01 L 163.21 140.24 C 163.59 140.18 164.37 140.05 164.75 139.99 C 167.09 141.45 169.82 142.14 172.03 143.83 C 173.12 144.90 173.78 146.44 175.19 147.16 C 175.58 147.56 176.37 148.35 176.76 148.75 C 177.75 148.37 178.74 147.97 179.71 147.56 C 179.79 148.92 179.66 150.37 180.35 151.61 C 182.07 155.45 183.11 159.75 186.22 162.79 C 186.36 162.08 186.63 160.66 186.77 159.95 C 186.86 160.52 187.03 161.64 187.12 162.20 C 188.47 159.18 190.02 156.23 190.96 153.04 C 192.01 151.97 192.93 150.77 193.41 149.31 C 193.69 149.67 194.26 150.37 194.55 150.73 C 194.56 147.89 196.09 145.08 198.49 143.56 C 200.46 142.05 201.46 139.67 202.45 137.48 C 202.75 137.94 203.35 138.87 203.65 139.33 C 205.66 139.54 205.75 138.06 204.93 136.71 C 205.57 135.33 206.00 133.89 206.24 132.39 C 206.95 132.92 207.66 133.45 208.37 133.98 C 208.23 131.63 208.51 129.30 208.99 127.01 C 208.83 122.55 206.88 118.37 206.70 113.90 C 206.10 110.15 206.24 106.03 204.30 102.66 C 200.63 98.54 197.77 93.58 196.68 88.14 L 196.44 88.12 C 196.44 86.58 196.44 85.04 196.44 83.50 C 192.28 83.67 188.12 84.23 183.96 83.74 C 178.33 83.21 172.68 83.64 167.03 83.67 C 156.52 83.79 145.86 83.23 135.51 85.46 M 214.56 107.19 C 213.85 108.02 213.15 108.85 212.45 109.69 C 213.18 112.53 213.80 115.43 215.07 118.09 C 212.80 122.07 214.71 126.67 214.72 130.94 C 214.67 132.61 216.07 133.77 216.90 135.08 C 217.82 133.92 218.83 132.69 218.97 131.14 C 218.77 129.07 217.96 127.10 217.95 125.01 C 217.71 121.18 219.54 117.62 219.43 113.79 L 218.89 113.12 C 219.65 108.71 217.54 104.54 217.52 100.16 C 217.64 102.90 216.47 105.28 214.56 107.19 M 155.88 144.35 C 155.08 145.86 153.94 147.04 152.26 147.52 C 151.55 149.02 150.93 150.59 149.96 151.96 C 148.54 153.68 148.69 156.03 148.12 158.08 C 147.10 161.89 147.25 165.88 147.19 169.80 C 145.17 171.79 146.49 174.72 147.45 176.90 C 148.52 178.05 148.83 179.60 149.30 181.05 C 151.09 182.45 153.34 183.52 153.82 186.01 C 154.30 184.60 154.47 182.81 155.86 181.97 C 155.88 182.81 155.92 184.51 155.94 185.36 C 157.82 183.92 160.09 184.63 161.71 186.05 C 161.85 185.56 162.13 184.58 162.27 184.09 C 163.48 184.90 164.70 185.71 165.91 186.53 C 165.96 185.44 166.06 183.28 166.11 182.20 C 166.91 183.39 167.70 184.60 168.45 185.83 C 168.49 185.08 168.59 183.59 168.64 182.85 L 169.82 182.32 C 170.03 183.24 170.43 185.08 170.63 185.99 C 172.35 184.84 172.66 182.70 172.98 180.82 C 174.32 181.62 175.65 182.46 177.10 183.09 C 178.94 183.03 178.55 180.88 179.10 179.71 C 179.70 179.64 180.91 179.50 181.51 179.44 C 182.30 176.97 183.08 174.45 182.91 171.82 C 183.69 169.89 183.32 167.94 182.30 166.19 C 179.96 161.92 177.92 157.40 174.90 153.55 C 174.43 152.55 174.02 151.50 173.40 150.58 C 170.13 148.45 166.85 146.31 163.62 144.13 C 160.96 143.97 158.17 146.94 155.88 144.35 M 214.50 144.87 C 214.32 149.71 213.11 154.43 211.49 158.98 C 210.53 161.67 208.90 164.10 208.31 166.93 C 209.25 165.02 210.05 163.01 211.46 161.39 C 213.37 159.37 213.27 156.43 213.65 153.86 C 213.82 150.84 215.39 147.90 214.50 144.87 M 198.96 193.67 L 198.96 193.68 C 194.85 195.66 191.83 199.36 187.97 201.77 C 186.07 202.41 184.05 202.45 182.11 202.88 C 180.18 203.62 178.66 205.12 176.95 206.24 C 175.93 205.80 174.92 205.34 173.91 204.89 C 170.85 205.95 168.47 208.20 165.63 209.64 C 160.62 208.41 155.45 208.38 150.32 208.65 C 152.12 210.91 154.01 213.72 157.09 214.20 C 159.79 214.51 162.51 214.69 165.23 214.88 C 169.48 215.04 173.82 215.34 178.00 214.39 C 184.79 212.67 189.74 207.41 195.18 203.34 C 195.65 201.06 197.85 199.91 199.24 198.23 C 201.67 195.69 202.80 192.29 203.87 189.02 C 202.16 190.48 201.17 192.94 198.96 193.67 Z" />
<path fill="#020202" opacity="1.00" d=" M 122.11 55.96 C 125.54 54.65 129.46 55.27 132.56 57.13 C 133.09 59.08 133.87 61.05 133.85 63.09 C 133.02 65.23 131.92 67.46 130.07 68.89 C 125.65 70.34 122.40 66.54 119.33 64.09 C 119.43 61.30 119.05 57.35 122.11 55.96 Z" />
</g>
<g id="#fbfbfbff">
<path fill="#fbfbfb" opacity="1.00" d=" M 174.73 14.76 C 176.70 11.10 180.94 9.33 184.92 9.08 C 188.36 8.71 192.42 8.37 195.07 11.09 C 198.49 14.08 197.69 19.03 197.53 23.06 C 197.39 28.05 195.46 32.79 192.72 36.90 C 190.77 34.31 187.88 32.83 184.98 31.56 C 186.57 29.34 188.74 27.66 190.51 25.62 C 191.00 21.72 189.25 17.25 185.52 15.57 C 183.04 14.25 180.20 15.11 177.78 16.11 C 179.72 17.06 182.10 17.69 183.11 19.81 C 185.53 23.21 184.21 28.79 180.19 30.27 C 177.11 29.46 173.92 29.13 170.74 29.16 C 169.87 27.79 170.14 26.27 170.77 24.89 C 171.99 21.47 173.02 17.97 174.73 14.76 Z" />
<path fill="#fbfbfb" opacity="1.00" d=" M 126.41 32.31 C 128.78 30.50 131.97 30.72 134.70 31.46 C 134.68 31.67 134.64 32.07 134.63 32.28 C 124.87 38.21 115.33 46.03 111.31 57.08 C 111.68 54.43 111.78 51.72 111.26 49.08 C 114.73 42.26 120.19 36.68 126.41 32.31 Z" />
<path fill="#fbfbfb" opacity="1.00" d=" M 214.50 144.87 C 215.39 147.90 213.82 150.84 213.65 153.86 C 213.27 156.43 213.37 159.37 211.46 161.39 C 210.05 163.01 209.25 165.02 208.31 166.93 C 208.90 164.10 210.53 161.67 211.49 158.98 C 213.11 154.43 214.32 149.71 214.50 144.87 Z" />
<path fill="#fbfbfb" opacity="1.00" d=" M 198.96 193.67 C 201.17 192.94 202.16 190.48 203.87 189.02 C 202.80 192.29 201.67 195.69 199.24 198.23 C 197.85 199.91 195.65 201.06 195.18 203.34 C 189.74 207.41 184.79 212.67 178.00 214.39 C 173.82 215.34 169.48 215.04 165.23 214.88 C 170.65 213.17 176.80 212.99 181.41 209.35 C 185.24 206.47 189.62 204.31 192.96 200.81 C 194.87 198.85 196.88 196.98 198.73 194.96 C 198.79 194.64 198.90 194.00 198.96 193.68 L 198.96 193.67 Z" />
</g>
<g id="#6b6b6bff">
<path fill="#6b6b6b" opacity="1.00" d=" M 177.78 16.11 C 180.20 15.11 183.04 14.25 185.52 15.57 C 189.25 17.25 191.00 21.72 190.51 25.62 C 188.74 27.66 186.57 29.34 184.98 31.56 L 184.93 31.62 C 183.40 30.99 181.81 30.57 180.19 30.27 C 184.21 28.79 185.53 23.21 183.11 19.81 C 182.10 17.69 179.72 17.06 177.78 16.11 Z" />
<path fill="#6b6b6b" opacity="1.00" d=" M 83.20 284.00 C 83.09 279.15 84.74 274.56 85.90 269.93 C 85.50 278.56 85.69 287.20 85.23 295.83 C 84.87 299.05 87.13 301.79 87.27 304.90 C 84.60 308.14 80.97 310.43 77.90 313.27 C 77.48 309.07 82.66 307.73 83.73 304.20 C 84.73 297.46 82.88 290.75 83.20 284.00 Z" />
<path fill="#6b6b6b" opacity="1.00" d=" M 88.40 308.33 C 92.33 309.08 96.33 306.94 100.09 308.78 C 97.00 308.58 94.00 309.56 90.96 309.93 C 88.75 309.96 87.13 311.58 85.47 312.81 C 85.83 314.54 86.12 316.29 86.27 318.05 C 85.97 317.49 85.37 316.37 85.06 315.81 C 83.26 316.28 81.48 316.81 79.69 317.35 C 80.35 315.86 80.35 313.85 81.90 312.93 C 84.11 311.45 86.40 310.08 88.40 308.33 Z" />
</g>
<g id="#d4d4d4ff">
<path fill="#d4d4d4" opacity="1.00" d=" M 145.31 67.20 L 145.99 66.77 C 146.40 66.88 147.23 67.10 147.64 67.21 L 147.65 67.83 C 147.23 67.94 146.41 68.16 146.00 68.27 L 145.31 67.83 L 145.31 67.20 Z" />
</g>
<g id="#6f6f6fff">
<path fill="#6f6f6f" opacity="1.00" d=" M 151.00 68.49 C 155.10 68.82 159.24 68.37 163.34 68.88 C 161.99 70.81 159.87 71.91 158.24 73.56 L 158.07 73.71 C 154.24 75.86 150.02 77.57 145.56 77.46 C 150.32 75.25 155.42 73.89 160.12 71.52 C 157.06 70.55 154.02 69.55 151.00 68.49 Z" />
<path fill="#6f6f6f" opacity="1.00" d=" M 204.05 319.41 C 213.62 316.09 223.99 314.47 234.11 315.84 C 227.58 315.33 221.07 316.21 214.91 318.41 C 209.69 319.01 204.09 321.04 198.99 318.91 C 200.65 319.23 202.35 319.48 204.05 319.41 Z" />
</g>
<g id="#6a6a6aff">
<path fill="#6a6a6a" opacity="1.00" d=" M 158.24 73.56 C 161.41 72.58 164.71 71.57 168.06 72.10 C 177.07 73.12 186.03 74.52 195.06 75.40 C 197.75 75.64 200.26 77.07 203.02 76.69 C 205.05 76.71 207.14 75.68 209.13 76.35 C 210.16 77.72 211.29 76.72 211.23 75.32 C 211.65 75.76 212.08 76.20 212.50 76.65 L 212.23 77.16 C 211.48 78.43 211.10 79.83 210.96 81.30 C 206.82 80.89 202.52 80.29 198.46 81.57 C 192.87 83.35 186.87 83.53 181.09 82.77 C 173.76 81.88 166.37 82.49 159.02 82.05 C 153.67 81.89 148.32 82.24 142.97 82.39 C 140.89 82.44 139.00 83.40 137.05 83.99 C 134.38 84.95 131.53 85.28 128.86 86.26 C 125.04 87.55 121.94 90.58 117.87 91.20 C 113.63 91.96 109.32 92.14 105.04 92.58 C 105.25 90.71 107.35 90.41 108.70 89.66 C 111.43 88.51 113.93 86.91 116.44 85.36 C 120.14 82.91 124.62 82.11 128.91 81.29 C 134.47 80.86 141.03 81.47 145.49 77.49 L 145.56 77.46 C 150.02 77.57 154.24 75.86 158.07 73.71 L 158.24 73.56 Z" />
<path fill="#6a6a6a" opacity="1.00" d=" M 135.51 85.46 C 145.86 83.23 156.52 83.79 167.03 83.67 C 172.68 83.64 178.33 83.21 183.96 83.74 C 188.12 84.23 192.28 83.67 196.44 83.50 C 196.44 85.04 196.44 86.58 196.44 88.12 C 189.55 86.75 182.90 89.89 176.02 89.36 C 167.67 89.13 159.35 87.97 150.98 88.39 C 141.49 88.75 131.33 88.89 122.98 94.00 C 124.41 88.50 130.76 86.96 135.51 85.46 Z" />
<path fill="#6a6a6a" opacity="1.00" d=" M 95.23 177.16 C 104.83 172.65 113.93 166.36 124.69 165.03 C 126.63 169.43 127.93 174.06 129.58 178.57 C 130.96 182.50 130.67 186.87 132.54 190.65 C 134.31 193.92 137.20 196.48 138.56 199.99 C 139.34 201.65 139.91 203.48 141.11 204.92 C 143.29 206.76 146.53 207.09 148.34 209.43 C 149.90 211.32 151.40 213.28 153.18 214.98 C 146.31 214.40 140.64 210.07 134.06 208.49 C 129.54 207.38 126.19 203.92 121.95 202.20 C 116.90 200.22 113.18 196.13 108.54 193.46 C 105.42 191.65 102.79 189.14 99.74 187.24 C 96.22 185.09 91.97 185.25 88.03 184.67 C 87.50 184.48 86.43 184.11 85.90 183.92 C 88.59 181.13 91.64 178.68 95.23 177.16 Z" />
<path fill="#6a6a6a" opacity="1.00" d=" M 187.97 201.77 C 191.83 199.36 194.85 195.66 198.96 193.68 C 198.90 194.00 198.79 194.64 198.73 194.96 C 196.88 196.98 194.87 198.85 192.96 200.81 C 189.62 204.31 185.24 206.47 181.41 209.35 C 176.80 212.99 170.65 213.17 165.23 214.88 C 162.51 214.69 159.79 214.51 157.09 214.20 C 154.01 213.72 152.12 210.91 150.32 208.65 C 155.45 208.38 160.62 208.41 165.63 209.64 C 168.47 208.20 170.85 205.95 173.91 204.89 C 174.92 205.34 175.93 205.80 176.95 206.24 C 178.66 205.12 180.18 203.62 182.11 202.88 C 184.05 202.45 186.07 202.41 187.97 201.77 Z" />
<path fill="#6a6a6a" opacity="1.00" d=" M 260.46 242.01 C 260.82 231.94 259.41 221.63 262.55 211.85 C 262.80 215.15 263.49 218.39 263.89 221.67 C 263.85 230.75 263.05 239.94 264.83 248.92 C 265.67 254.23 265.63 259.66 266.90 264.90 C 267.72 268.13 268.15 271.43 268.39 274.75 C 268.64 278.69 270.74 282.19 271.26 286.08 C 271.63 289.59 270.51 293.03 270.52 296.53 C 270.86 299.82 273.23 302.61 273.10 306.00 C 273.14 312.08 273.41 318.45 276.09 324.04 C 272.40 321.96 268.27 320.60 265.21 317.54 C 267.64 315.83 270.62 315.65 273.50 315.71 C 273.39 314.89 273.18 313.26 273.08 312.45 C 269.77 313.96 266.11 314.02 262.59 314.64 C 261.30 314.15 260.02 313.68 258.73 313.22 C 260.88 312.32 263.09 311.41 264.94 309.95 C 266.83 308.19 267.90 305.63 267.97 303.07 C 268.15 299.38 268.01 295.64 267.18 292.04 C 266.30 287.89 263.97 284.15 263.61 279.87 C 263.11 273.25 262.75 266.61 262.52 259.97 C 262.38 253.92 260.17 248.10 260.46 242.01 Z" />
</g>
<g id="#f5f5f5ff">
<path fill="#f5f5f5" opacity="1.00" d=" M 209.42 75.50 L 210.38 75.05 L 211.23 75.32 C 211.29 76.72 210.16 77.72 209.13 76.35 L 209.42 75.50 Z" />
<path fill="#f5f5f5" opacity="1.00" d=" M 277.36 322.43 C 282.33 322.06 286.90 324.25 291.31 326.22 C 295.12 327.23 299.10 326.94 303.00 326.96 C 313.00 326.95 323.00 326.95 333.00 326.97 C 337.00 326.96 341.00 326.31 345.01 326.70 C 350.66 327.18 356.34 326.83 362.00 327.06 L 362.00 332.00 C 245.33 332.09 128.66 332.00 11.99 332.05 C 8.00 332.07 4.00 332.03 0.00 331.91 L 0.00 327.02 C 4.34 327.01 9.27 327.27 12.95 324.61 C 13.33 324.47 14.10 324.18 14.49 324.04 C 15.17 324.85 15.87 325.65 16.61 326.43 C 19.65 327.32 22.88 326.95 26.00 327.02 C 34.30 326.82 42.63 327.42 50.90 326.44 C 53.54 326.04 56.68 326.34 58.61 324.13 C 60.33 325.12 61.99 326.28 63.89 326.93 C 65.64 327.10 67.40 326.84 69.14 326.63 C 68.80 326.51 68.11 326.27 67.77 326.15 C 68.88 325.70 69.98 325.24 71.09 324.77 L 71.37 325.27 C 72.14 326.06 73.08 326.66 74.23 326.47 C 78.49 326.39 82.73 326.93 86.99 326.97 C 146.33 326.95 205.66 326.96 265.00 326.94 C 269.06 326.93 273.49 327.38 276.99 324.86 C 277.23 324.67 277.71 324.27 277.95 324.08 L 277.36 322.43 Z" />
</g>
<g id="#030303ff">
<path fill="#030303" opacity="1.00" d=" M 166.52 94.07 C 169.36 93.83 172.15 94.43 174.93 94.88 C 179.29 95.58 183.90 94.15 188.06 96.05 C 191.29 97.52 193.57 100.45 195.01 103.62 C 191.18 102.00 187.31 99.90 183.02 100.04 C 180.26 99.90 177.80 101.51 175.08 101.68 C 172.59 101.96 170.09 101.88 167.63 101.45 C 166.47 99.15 166.41 96.58 166.52 94.07 Z" />
<path fill="#030303" opacity="1.00" d=" M 138.46 108.04 C 140.03 106.86 142.74 107.17 144.46 107.98 L 144.34 108.52 C 142.81 108.51 141.28 108.51 139.76 108.54 C 139.43 108.41 138.79 108.17 138.46 108.04 Z" />
<path fill="#030303" opacity="1.00" d=" M 148.89 131.08 C 150.43 130.41 152.27 130.37 153.50 131.70 C 154.87 132.64 154.50 134.46 154.76 135.88 C 152.88 136.40 152.12 134.86 151.54 133.39 C 150.62 132.66 149.75 131.87 148.89 131.08 Z" />
<path fill="#030303" opacity="1.00" d=" M 157.68 150.43 C 160.12 151.20 162.63 151.04 165.03 150.24 C 166.96 150.61 168.40 152.05 169.96 153.13 C 171.65 154.40 174.10 154.64 175.16 156.67 C 171.50 157.83 167.72 156.77 163.99 156.84 C 159.68 156.70 155.44 157.57 151.16 157.95 C 153.36 155.47 155.63 153.05 157.68 150.43 Z" />
<path fill="#030303" opacity="1.00" d=" M 89.41 218.02 C 89.72 219.36 90.13 220.70 90.18 222.09 C 90.10 229.74 91.02 237.40 90.26 245.05 C 90.23 251.19 88.78 257.27 89.20 263.41 C 88.74 263.32 87.82 263.13 87.37 263.04 C 87.54 258.02 87.76 252.98 88.82 248.06 C 89.76 243.09 89.34 238.01 89.50 232.99 C 89.53 228.00 89.90 223.00 89.41 218.02 Z" />
</g>
<g id="#040404ff">
<path fill="#040404" opacity="1.00" d=" M 134.92 98.50 C 139.64 98.25 144.16 96.64 148.89 96.53 C 148.53 98.74 148.14 100.96 148.08 103.21 C 142.69 103.41 137.23 103.46 131.98 102.08 C 128.80 103.70 127.47 107.34 125.32 110.01 C 125.93 106.52 126.32 102.59 128.93 99.93 C 130.48 98.27 132.89 98.68 134.92 98.50 Z" />
<path fill="#040404" opacity="1.00" d=" M 169.49 110.90 C 170.74 106.98 175.39 105.93 179.01 105.88 C 182.66 105.85 187.33 105.63 189.68 108.97 C 190.76 110.61 188.64 111.31 187.63 112.05 C 185.20 108.80 180.93 107.55 177.02 107.88 C 175.13 107.80 173.69 109.39 173.06 111.01 C 172.83 112.70 173.65 114.30 173.91 115.95 C 175.28 118.22 176.63 120.51 177.95 122.81 C 176.17 120.66 174.14 118.65 172.95 116.09 C 172.10 114.14 169.72 113.17 169.49 110.90 Z" />
<path fill="#040404" opacity="1.00" d=" M 176.29 110.23 C 177.40 108.27 180.38 108.68 181.71 110.20 C 182.78 111.51 181.82 113.12 181.45 114.49 C 179.97 114.86 178.33 115.69 176.93 114.61 C 175.15 113.95 175.25 111.50 176.29 110.23 Z" />
<path fill="#040404" opacity="1.00" d=" M 91.98 248.01 C 93.98 238.76 91.73 228.73 95.66 219.91 C 94.61 230.28 95.22 240.74 93.87 251.08 C 93.14 255.62 93.51 260.40 91.71 264.72 C 91.42 264.97 90.85 265.48 90.57 265.73 C 90.90 259.81 91.81 253.94 91.98 248.01 Z" />
<path fill="#040404" opacity="1.00" d=" M 87.09 263.08 C 87.56 263.81 88.02 264.55 88.49 265.30 C 87.97 269.17 87.82 273.07 87.39 276.95 C 88.13 273.91 89.11 270.94 89.81 267.89 C 90.28 267.77 91.22 267.52 91.70 267.40 C 90.15 276.55 87.39 285.64 87.99 295.02 C 87.84 298.43 89.23 301.87 91.61 304.30 C 94.35 306.79 98.32 305.41 101.54 306.64 C 104.68 307.71 108.08 307.20 111.16 306.19 C 117.36 304.15 123.35 301.23 129.88 300.42 C 131.60 300.16 133.43 299.99 134.85 298.86 C 138.99 295.53 144.83 296.49 149.44 298.26 C 159.18 300.70 169.35 300.49 179.14 302.68 C 183.38 303.22 187.21 305.40 190.40 308.17 C 185.56 306.98 180.77 305.60 175.88 304.66 C 169.60 303.90 163.26 304.00 156.95 303.60 C 151.47 303.36 146.53 300.17 141.00 300.35 C 137.85 300.17 134.88 301.33 131.98 302.40 C 126.65 304.44 120.92 305.32 115.78 307.85 C 110.89 310.13 105.22 310.45 100.09 308.78 C 96.33 306.94 92.33 309.08 88.40 308.33 C 86.40 310.08 84.11 311.45 81.90 312.93 C 80.35 313.85 80.35 315.86 79.69 317.35 L 79.57 317.71 C 78.96 319.28 78.78 321.19 77.38 322.32 C 75.44 323.43 73.35 324.23 71.37 325.27 L 71.09 324.77 C 72.51 322.80 74.28 321.09 76.31 319.74 C 77.13 317.66 77.84 315.52 77.90 313.27 C 80.97 310.43 84.60 308.14 87.27 304.90 C 87.13 301.79 84.87 299.05 85.23 295.83 C 85.69 287.20 85.50 278.56 85.90 269.93 C 86.35 267.66 86.80 265.37 87.09 263.08 Z" />
<path fill="#040404" opacity="1.00" d=" M 222.67 304.93 C 226.23 307.78 229.87 311.03 234.55 311.75 C 238.89 313.03 243.36 313.68 247.85 314.13 C 252.69 315.27 257.68 315.74 262.59 314.64 C 266.11 314.02 269.77 313.96 273.08 312.45 C 273.18 313.26 273.39 314.89 273.50 315.71 C 270.62 315.65 267.64 315.83 265.21 317.54 C 258.86 318.85 252.40 317.78 245.99 318.02 C 241.90 318.20 238.05 316.63 234.11 315.84 C 223.99 314.47 213.62 316.09 204.05 319.41 C 202.35 319.48 200.65 319.23 198.99 318.91 C 195.61 317.20 191.70 317.80 188.17 316.64 C 185.46 315.78 182.58 315.84 179.86 315.06 C 176.29 313.90 172.45 315.07 168.86 314.06 C 162.63 312.27 156.30 310.86 150.03 309.22 C 158.83 309.67 167.11 313.80 176.01 313.27 C 184.48 313.60 192.58 316.57 201.01 317.26 C 203.69 317.33 206.28 316.54 208.92 316.21 C 213.42 315.78 217.42 313.05 222.02 313.25 C 225.78 313.43 229.53 313.88 233.31 313.79 C 229.09 311.82 224.92 309.14 222.67 304.93 Z" />
</g>
<g id="#5f5f5fff">
<path fill="#5f5f5f" opacity="1.00" d=" M 214.56 107.19 C 216.47 105.28 217.64 102.90 217.52 100.16 C 217.54 104.54 219.65 108.71 218.89 113.12 C 217.37 111.20 215.97 109.19 214.56 107.19 Z" />
</g>
<g id="#0a0a0aff">
<path fill="#0a0a0a" opacity="1.00" d=" M 131.15 111.02 C 132.15 108.07 135.77 107.32 138.46 108.04 C 138.79 108.17 139.43 108.41 139.76 108.54 L 139.87 108.77 C 137.66 109.25 134.72 110.05 134.66 112.83 C 135.46 113.88 137.31 115.34 135.81 116.67 C 134.35 114.72 132.47 113.10 131.15 111.02 Z" />
<path fill="#0a0a0a" opacity="1.00" d=" M 144.34 108.52 L 144.84 108.31 L 145.11 108.87 L 144.48 109.09 L 144.34 108.52 Z" />
<path fill="#0a0a0a" opacity="1.00" d=" M 146.10 133.02 C 147.11 128.92 147.76 124.65 149.87 120.92 C 148.98 124.92 147.69 128.83 146.75 132.83 C 147.42 133.97 148.18 135.05 148.88 136.17 C 147.93 135.24 145.91 134.61 146.10 133.02 Z" />
</g>
<g id="#050505ff">
<path fill="#050505" opacity="1.00" d=" M 139.76 108.54 C 141.28 108.51 142.81 108.51 144.34 108.52 L 144.48 109.09 C 142.88 109.85 141.35 109.75 139.87 108.77 L 139.76 108.54 Z" />
<path fill="#050505" opacity="1.00" d=" M 144.84 108.31 C 147.45 108.52 150.21 109.58 151.45 112.06 C 148.73 115.85 146.24 119.82 144.29 124.07 C 143.61 120.64 146.62 118.60 148.11 115.97 C 148.67 113.23 147.08 110.64 145.11 108.87 L 144.84 108.31 Z" />
<path fill="#050505" opacity="1.00" d=" M 140.18 110.33 C 141.73 109.38 143.43 110.49 144.95 110.92 C 145.41 112.70 145.31 115.53 143.05 115.94 C 141.56 116.57 140.16 115.47 138.74 115.18 C 138.68 113.54 138.48 111.23 140.18 110.33 Z" />
<path fill="#050505" opacity="1.00" d=" M 166.03 117.96 C 168.14 121.73 171.12 124.87 173.56 128.39 C 174.34 130.81 174.78 133.74 173.46 136.07 C 172.26 137.28 170.23 137.89 170.31 139.92 C 170.39 139.14 170.46 138.36 170.54 137.58 C 172.81 135.57 171.86 132.44 171.29 129.91 C 170.62 125.48 167.13 122.23 166.03 117.96 Z" />
</g>
<g id="#fcfcfcff">
<path fill="#fcfcfc" opacity="1.00" d=" M 212.45 109.69 C 213.15 108.85 213.85 108.02 214.56 107.19 C 215.97 109.19 217.37 111.20 218.89 113.12 L 219.43 113.79 C 219.54 117.62 217.71 121.18 217.95 125.01 C 217.96 127.10 218.77 129.07 218.97 131.14 C 218.83 132.69 217.82 133.92 216.90 135.08 C 216.07 133.77 214.67 132.61 214.72 130.94 C 214.71 126.67 212.80 122.07 215.07 118.09 C 213.80 115.43 213.18 112.53 212.45 109.69 Z" />
<path fill="#fcfcfc" opacity="1.00" d=" M 155.88 144.35 C 158.17 146.94 160.96 143.97 163.62 144.13 C 166.85 146.31 170.13 148.45 173.40 150.58 C 174.02 151.50 174.43 152.55 174.90 153.55 C 177.92 157.40 179.96 161.92 182.30 166.19 C 182.26 170.26 178.65 172.85 177.41 176.49 C 177.10 176.37 176.46 176.12 176.15 175.99 C 175.06 177.05 173.99 178.13 172.89 179.19 C 172.58 178.60 171.96 177.42 171.65 176.83 C 170.78 178.00 169.89 179.16 169.08 180.37 C 168.80 181.00 168.23 182.25 167.94 182.87 C 167.12 181.76 166.33 180.63 165.54 179.50 C 165.34 180.41 164.95 182.23 164.75 183.14 C 164.62 182.76 164.35 181.99 164.21 181.61 C 164.09 181.22 163.86 180.44 163.74 180.06 C 161.25 180.47 158.76 180.91 156.27 181.33 C 156.05 180.97 155.62 180.25 155.41 179.89 C 154.70 179.33 153.99 178.76 153.28 178.21 C 153.05 178.74 152.59 179.79 152.37 180.31 C 151.11 178.00 150.15 175.55 149.48 173.01 C 149.31 173.30 148.97 173.90 148.79 174.19 L 147.67 174.72 C 147.50 173.08 147.30 171.44 147.19 169.80 C 147.25 165.88 147.10 161.89 148.12 158.08 C 148.69 156.03 148.54 153.68 149.96 151.96 C 150.93 150.59 151.55 149.02 152.26 147.52 C 153.94 147.04 155.08 145.86 155.88 144.35 M 157.68 150.43 C 155.63 153.05 153.36 155.47 151.16 157.95 C 155.44 157.57 159.68 156.70 163.99 156.84 C 167.72 156.77 171.50 157.83 175.16 156.67 C 174.10 154.64 171.65 154.40 169.96 153.13 C 168.40 152.05 166.96 150.61 165.03 150.24 C 162.63 151.04 160.12 151.20 157.68 150.43 M 156.83 164.62 C 161.63 165.03 166.50 166.19 171.22 164.60 C 170.28 164.03 169.37 163.39 168.32 163.02 C 164.44 162.85 160.36 162.76 156.83 164.62 Z" />
</g>
<g id="#070707ff">
<path fill="#070707" opacity="1.00" d=" M 160.92 132.42 C 162.36 130.56 164.29 128.92 166.78 129.85 C 168.51 131.69 167.94 134.12 167.06 136.20 C 164.43 136.17 162.86 133.83 160.92 132.42 Z" />
</g>
<g id="#777777ff">
<path fill="#777777" opacity="1.00" d=" M 132.01 150.81 C 134.35 154.58 137.36 158.25 137.42 162.92 C 138.88 162.76 140.34 162.60 141.81 162.45 C 140.46 164.44 139.76 166.72 139.48 169.11 C 137.03 165.25 136.57 160.59 134.54 156.56 C 133.65 154.66 132.40 152.91 132.01 150.81 Z" />
</g>
<g id="#747474ff">
<path fill="#747474" opacity="1.00" d=" M 188.66 156.53 C 189.28 155.28 189.98 154.05 190.96 153.04 C 190.02 156.23 188.47 159.18 187.12 162.20 C 187.03 161.64 186.86 160.52 186.77 159.95 C 186.86 159.15 187.04 157.55 187.14 156.75 C 187.52 156.70 188.28 156.59 188.66 156.53 Z" />
<path fill="#747474" opacity="1.00" d=" M 182.30 166.19 C 183.32 167.94 183.69 169.89 182.91 171.82 C 182.08 174.13 180.27 175.80 178.79 177.66 C 178.11 179.09 177.74 180.64 177.25 182.14 C 176.77 180.83 176.19 179.53 175.61 178.26 C 174.73 179.11 173.85 179.96 172.98 180.82 C 172.37 181.41 171.77 182.00 171.17 182.60 C 170.47 181.86 169.77 181.12 169.08 180.37 C 169.89 179.16 170.78 178.00 171.65 176.83 C 171.96 177.42 172.58 178.60 172.89 179.19 C 173.99 178.13 175.06 177.05 176.15 175.99 C 176.46 176.12 177.10 176.37 177.41 176.49 C 178.65 172.85 182.26 170.26 182.30 166.19 Z" />
</g>
<g id="#555555ff">
<path fill="#555555" opacity="1.00" d=" M 156.83 164.62 C 160.36 162.76 164.44 162.85 168.32 163.02 C 169.37 163.39 170.28 164.03 171.22 164.60 C 166.50 166.19 161.63 165.03 156.83 164.62 Z" />
<path fill="#555555" opacity="1.00" d=" M 148.79 174.19 C 148.97 173.90 149.31 173.30 149.48 173.01 C 150.15 175.55 151.11 178.00 152.37 180.31 C 152.59 179.79 153.05 178.74 153.28 178.21 C 153.99 178.76 154.70 179.33 155.41 179.89 C 155.62 180.25 156.05 180.97 156.27 181.33 C 157.27 181.81 158.31 182.23 159.34 182.68 C 160.92 182.12 162.55 181.77 164.21 181.61 C 164.35 181.99 164.62 182.76 164.75 183.14 C 164.95 182.23 165.34 180.41 165.54 179.50 C 166.33 180.63 167.12 181.76 167.94 182.87 C 168.23 182.25 168.80 181.00 169.08 180.37 C 169.77 181.12 170.47 181.86 171.17 182.60 C 171.77 182.00 172.37 181.41 172.98 180.82 C 172.66 182.70 172.35 184.84 170.63 185.99 C 170.43 185.08 170.03 183.24 169.82 182.32 L 168.64 182.85 C 168.59 183.59 168.49 185.08 168.45 185.83 C 167.70 184.60 166.91 183.39 166.11 182.20 C 166.06 183.28 165.96 185.44 165.91 186.53 C 164.70 185.71 163.48 184.90 162.27 184.09 C 162.13 184.58 161.85 185.56 161.71 186.05 C 160.09 184.63 157.82 183.92 155.94 185.36 C 155.92 184.51 155.88 182.81 155.86 181.97 C 154.47 182.81 154.30 184.60 153.82 186.01 C 153.34 183.52 151.09 182.45 149.30 181.05 C 148.83 179.60 148.52 178.05 147.45 176.90 C 147.89 175.99 148.33 175.09 148.79 174.19 Z" />
</g>
<g id="#838383ff">
<path fill="#838383" opacity="1.00" d=" M 147.45 176.90 C 146.49 174.72 145.17 171.79 147.19 169.80 C 147.30 171.44 147.50 173.08 147.67 174.72 L 148.79 174.19 C 148.33 175.09 147.89 175.99 147.45 176.90 Z" />
</g>
<g id="#353535ff">
<path fill="#353535" opacity="1.00" d=" M 178.79 177.66 C 180.27 175.80 182.08 174.13 182.91 171.82 C 183.08 174.45 182.30 176.97 181.51 179.44 C 180.91 179.50 179.70 179.64 179.10 179.71 C 178.55 180.88 178.94 183.03 177.10 183.09 C 175.65 182.46 174.32 181.62 172.98 180.82 C 173.85 179.96 174.73 179.11 175.61 178.26 C 176.19 179.53 176.77 180.83 177.25 182.14 C 177.74 180.64 178.11 179.09 178.79 177.66 Z" />
</g>
<g id="#a2a2a2ff">
<path fill="#a2a2a2" opacity="1.00" d=" M 156.27 181.33 C 158.76 180.91 161.25 180.47 163.74 180.06 C 163.86 180.44 164.09 181.22 164.21 181.61 C 162.55 181.77 160.92 182.12 159.34 182.68 C 158.31 182.23 157.27 181.81 156.27 181.33 Z" />
</g>
<g id="#696969ff">
<path fill="#696969" opacity="1.00" d=" M 276.48 296.83 C 277.01 300.58 277.55 304.37 278.97 307.91 C 281.80 314.81 286.84 320.37 291.31 326.22 C 286.90 324.25 282.33 322.06 277.36 322.43 C 273.97 314.32 274.83 305.24 276.48 296.83 Z" />
</g>
<g id="#fefefeff">
<path fill="#fefefe" opacity="1.00" d=" M 14.49 324.04 C 18.16 315.51 20.64 306.50 23.93 297.82 C 35.06 307.12 46.29 316.41 58.61 324.13 C 56.68 326.34 53.54 326.04 50.90 326.44 C 42.63 327.42 34.30 326.82 26.00 327.02 C 22.88 326.95 19.65 327.32 16.61 326.43 C 15.87 325.65 15.17 324.85 14.49 324.04 Z" />
</g>
<g id="#8b8b8bff">
<path fill="#8b8b8b" opacity="1.00" d=" M 247.85 314.13 C 251.50 314.79 255.27 314.60 258.73 313.22 C 260.02 313.68 261.30 314.15 262.59 314.64 C 257.68 315.74 252.69 315.27 247.85 314.13 Z" />
</g>
</svg>
