<?xml version="1.0" encoding="UTF-8" ?>
<!DOCTYPE svg PUBLIC "-//W3C//DTD SVG 1.1//EN" "http://www.w3.org/Graphics/SVG/1.1/DTD/svg11.dtd">
<svg width="324pt" height="239pt" viewBox="0 0 324 239" version="1.1" xmlns="http://www.w3.org/2000/svg">
<g id="#090604ff">
<path fill="#090604" opacity="1.00" d=" M 145.01 0.00 L 147.37 0.00 C 152.18 3.29 155.62 8.28 160.87 10.96 C 162.21 12.09 164.00 11.27 165.06 10.18 C 170.11 8.01 175.18 5.87 179.81 2.86 C 181.04 1.63 182.51 2.76 183.73 3.37 C 185.11 11.79 179.47 18.93 175.43 25.72 C 168.68 27.26 166.53 17.95 160.91 16.34 C 155.75 16.72 150.70 18.50 146.34 21.29 C 144.15 22.67 141.82 24.10 139.13 24.00 C 138.98 15.67 141.10 7.34 145.01 0.00 Z" />
<path fill="#090604" opacity="1.00" d=" M 125.91 56.89 C 127.11 55.43 125.77 51.02 128.60 53.27 C 134.02 54.87 134.29 61.12 136.77 65.26 C 142.18 66.86 148.01 66.58 153.31 64.67 C 153.40 66.61 152.98 68.54 153.13 70.47 C 154.24 72.47 157.04 73.77 156.41 76.41 C 155.61 81.10 157.40 85.92 161.01 89.00 C 163.87 90.33 167.10 90.41 170.12 91.19 C 168.38 95.19 162.52 92.09 161.24 96.47 C 165.30 99.35 172.91 99.84 173.12 106.03 C 167.60 106.23 163.09 102.71 158.33 100.48 C 162.49 106.72 165.95 114.59 163.21 122.10 C 161.37 125.46 158.56 128.16 156.10 131.06 C 151.87 136.29 144.52 137.79 138.12 136.97 C 133.33 136.49 129.56 133.23 125.19 131.58 C 115.14 140.08 103.37 146.04 91.58 151.70 C 87.75 153.69 83.68 155.19 79.60 156.60 C 72.77 159.02 65.40 157.76 58.39 157.19 C 55.31 160.17 51.38 162.80 49.71 166.86 C 58.08 165.54 66.56 166.46 74.99 166.09 C 84.68 165.67 94.11 168.57 103.02 172.09 C 107.11 174.11 110.80 170.31 114.80 169.81 C 119.64 169.10 124.52 168.74 129.23 167.33 C 137.46 168.04 145.65 169.39 153.94 169.23 C 161.43 170.68 168.12 175.68 176.01 175.19 C 180.53 174.96 185.19 175.73 189.63 174.70 C 197.08 171.43 204.16 167.35 211.01 162.96 C 218.83 157.93 224.57 149.90 233.31 146.29 C 239.15 143.51 245.79 144.07 252.03 142.98 C 261.58 143.56 271.79 144.40 279.71 150.36 C 283.06 152.34 278.10 155.54 275.96 153.98 C 267.93 149.02 258.13 148.88 248.99 148.78 C 243.75 148.41 238.82 150.43 233.89 151.87 C 226.55 155.93 221.42 162.88 214.33 167.27 C 210.67 170.11 206.60 172.33 202.55 174.54 C 190.20 182.88 173.39 183.01 160.11 176.78 C 151.95 172.93 142.69 174.45 134.04 172.80 C 126.44 173.18 118.09 173.67 111.31 177.10 C 112.37 179.34 116.06 180.87 117.67 183.35 C 121.72 187.84 121.94 196.09 116.56 199.61 C 111.52 200.37 105.95 200.27 101.47 197.54 C 97.85 195.44 97.28 190.80 97.06 187.02 C 96.68 183.22 100.88 180.75 101.00 177.21 C 95.99 174.29 90.28 172.64 84.68 171.26 C 77.49 170.34 70.22 171.19 63.00 170.81 C 56.09 171.26 48.40 171.22 42.72 175.77 C 40.17 178.86 39.67 183.26 36.91 186.15 C 36.61 186.59 36.01 187.46 35.71 187.89 C 28.41 204.18 19.96 220.27 15.68 237.69 C 12.97 238.19 10.19 238.36 7.44 238.13 C 8.69 228.94 12.60 220.37 15.71 211.71 C 20.41 202.97 23.14 193.17 29.29 185.27 C 31.56 182.05 32.28 177.70 35.63 175.31 C 36.88 174.73 37.70 173.34 36.81 172.08 C 34.41 165.51 38.03 158.33 43.37 154.38 C 45.09 152.48 48.51 151.47 48.57 148.57 C 48.57 148.51 48.58 148.40 48.58 148.34 C 46.18 139.71 51.59 131.95 56.33 125.28 C 58.66 122.12 60.72 118.54 64.20 116.51 C 75.58 106.67 87.32 97.29 99.13 87.98 C 101.74 86.47 100.09 83.27 100.07 80.92 C 98.35 71.58 102.73 61.85 109.62 55.65 C 114.96 53.65 120.60 55.88 125.91 56.89 M 113.41 57.37 C 111.04 58.29 109.03 59.90 107.28 61.70 C 110.63 61.14 114.33 60.57 117.33 62.62 C 129.32 69.69 130.23 89.53 118.48 97.21 C 117.00 97.90 113.49 97.18 114.75 99.79 C 117.06 101.99 120.51 104.48 123.79 103.14 C 127.62 99.31 131.19 94.84 136.69 93.42 C 141.49 85.41 137.75 75.93 133.35 68.68 C 131.06 66.47 128.50 64.30 127.96 60.97 C 123.62 58.54 118.36 57.11 113.41 57.37 M 107.45 66.48 C 104.43 67.90 101.95 71.47 103.29 74.85 C 104.42 80.31 112.85 81.26 115.45 76.41 C 119.07 71.51 112.75 64.15 107.45 66.48 M 143.24 68.20 C 141.40 68.41 139.59 68.76 137.80 69.14 C 139.46 72.49 140.04 77.00 143.02 79.34 C 145.01 77.95 146.77 76.24 148.92 75.09 C 152.02 79.64 144.17 83.79 140.16 82.43 C 140.09 86.37 139.33 90.25 137.70 93.85 C 140.95 94.31 144.50 93.86 147.47 95.53 C 150.31 97.21 152.87 99.39 155.93 100.72 C 157.44 98.41 152.63 98.08 151.64 96.37 C 146.03 92.78 147.50 83.39 153.85 81.64 C 155.85 75.33 150.41 66.50 143.24 68.20 M 107.12 81.85 C 104.24 84.55 106.50 87.38 110.05 86.07 C 110.54 83.47 110.56 80.63 107.12 81.85 M 154.39 83.67 C 153.18 85.95 151.30 88.24 151.68 90.98 C 152.84 93.51 155.27 95.24 157.81 96.21 C 159.06 94.93 160.31 93.62 161.25 92.09 C 158.68 89.53 156.64 86.50 154.39 83.67 M 101.42 88.50 C 88.68 98.69 75.62 108.54 63.65 119.65 C 57.77 126.50 52.06 134.13 49.77 143.01 C 47.79 149.07 53.89 153.78 59.13 155.04 C 68.76 158.03 78.98 155.01 87.76 150.80 C 100.31 145.27 113.39 139.44 123.33 129.87 C 119.51 122.23 118.15 112.44 123.13 104.88 C 115.15 103.62 109.45 97.23 104.92 91.03 C 103.93 90.22 102.73 87.72 101.42 88.50 M 134.36 95.39 C 124.72 100.72 117.95 112.85 122.07 123.73 C 125.08 130.39 131.71 134.44 138.77 135.51 C 135.73 132.16 134.96 127.49 131.84 124.20 C 129.22 114.55 133.79 103.54 142.43 98.51 C 143.49 97.72 144.96 97.27 145.51 95.96 C 142.07 94.48 137.89 94.14 134.36 95.39 M 150.28 103.15 C 145.29 105.19 145.41 113.56 150.56 115.38 C 153.73 116.97 157.71 115.41 159.24 112.30 C 162.30 107.20 155.45 100.22 150.28 103.15 M 150.92 117.88 C 150.76 119.32 150.72 120.78 150.78 122.23 C 153.61 123.02 155.74 120.77 155.11 117.97 C 153.72 117.83 152.32 117.80 150.92 117.88 M 51.13 153.34 C 45.48 155.30 39.64 160.91 41.91 167.41 C 45.46 163.78 48.79 159.97 52.90 156.92 C 55.18 155.31 53.50 152.99 51.13 153.34 M 105.44 181.14 C 103.35 183.77 100.92 187.12 102.09 190.66 C 104.77 194.99 110.16 195.95 114.83 194.94 C 118.44 189.15 111.11 181.29 105.44 181.14 Z" />
<path fill="#090604" opacity="1.00" d=" M 273.62 98.67 C 282.22 97.32 290.99 96.31 299.68 97.47 C 305.31 98.44 310.18 101.69 315.56 103.48 C 317.25 104.23 319.83 105.18 319.82 107.36 C 319.84 107.95 319.88 109.11 319.91 109.70 C 320.76 111.77 317.49 110.83 316.58 110.44 C 309.02 106.35 300.91 101.99 292.01 102.87 C 277.88 102.24 262.07 105.22 252.66 116.70 C 248.37 119.91 246.98 125.12 245.42 129.95 L 244.58 129.92 C 243.51 129.83 242.44 129.78 241.37 129.77 C 238.27 128.92 238.86 123.45 235.45 122.46 C 230.79 120.70 225.85 122.56 221.53 124.41 C 216.09 127.22 209.98 129.08 205.63 133.60 C 203.07 136.31 198.50 137.94 197.87 141.93 C 199.85 145.33 205.39 147.97 203.20 152.57 C 199.90 155.11 195.49 156.90 191.32 155.64 C 187.53 152.41 189.89 147.35 190.05 143.24 C 185.12 140.94 179.55 139.50 174.17 141.11 C 168.48 141.39 163.79 147.22 157.93 144.98 C 164.66 139.29 172.61 134.30 181.74 134.37 C 185.39 134.83 188.44 137.02 191.87 138.10 C 198.23 133.12 203.45 126.42 211.02 123.05 C 218.62 119.33 227.07 114.07 235.80 117.28 C 238.53 117.62 240.23 120.91 242.74 120.98 C 245.13 117.88 246.41 113.99 249.27 111.24 C 256.62 105.78 264.48 100.50 273.62 98.67 M 195.11 147.45 C 193.93 148.40 195.34 150.75 196.69 149.74 C 197.88 148.80 196.44 146.47 195.11 147.45 Z" />
<path fill="#090604" opacity="1.00" d=" M 101.41 99.35 C 103.88 98.53 106.96 99.77 107.63 102.42 C 109.20 106.34 103.60 110.63 100.34 107.71 C 97.24 105.83 97.67 100.18 101.41 99.35 Z" />
<path fill="#090604" opacity="1.00" d=" M 95.25 109.59 C 101.60 110.22 105.48 118.85 100.21 123.30 C 102.46 116.92 95.81 111.20 89.75 111.91 C 89.29 116.04 93.73 115.94 95.77 118.28 C 96.45 120.41 96.93 122.60 98.64 124.21 C 97.61 126.43 95.25 127.81 93.64 129.63 C 89.95 132.87 89.26 138.32 85.21 141.25 C 81.36 144.28 77.29 148.17 72.01 147.87 C 65.25 148.52 58.67 140.36 62.05 134.06 C 66.46 127.17 74.85 124.96 80.78 119.79 C 85.54 116.32 88.63 109.65 95.25 109.59 M 84.49 124.62 C 81.87 125.95 80.06 128.35 77.65 129.96 C 79.02 131.90 80.74 133.66 83.02 134.50 C 85.58 133.26 86.97 130.48 88.02 127.96 C 87.16 126.72 86.09 124.64 84.49 124.62 M 72.28 128.42 C 69.48 129.25 66.45 130.23 64.51 132.55 C 62.15 137.42 65.37 142.46 69.15 145.46 C 73.25 145.90 78.50 145.65 80.12 141.08 C 79.04 139.93 77.45 138.59 75.90 139.85 C 72.45 141.69 65.69 140.52 67.18 135.34 C 69.77 133.29 73.44 133.81 76.22 132.07 C 75.05 130.88 74.10 128.34 72.28 128.42 Z" />
<path fill="#090604" opacity="1.00" d=" M 110.52 111.52 C 113.49 110.25 117.64 112.50 116.99 116.01 C 117.53 119.38 113.59 121.75 110.69 120.40 C 106.94 119.11 106.94 113.04 110.52 111.52 Z" />
</g>
<g id="#73726dfa">
<path fill="#73726d" opacity="0.98" d=" M 160.87 10.96 C 161.99 9.86 163.62 9.74 165.06 10.18 C 164.00 11.27 162.21 12.09 160.87 10.96 Z" />
<path fill="#73726d" opacity="0.98" d=" M 319.82 107.36 C 321.65 106.55 321.78 110.40 319.91 109.70 C 319.88 109.11 319.84 107.95 319.82 107.36 Z" />
</g>
<g id="#e63100ff">
<path fill="#e63100" opacity="1.00" d=" M 115.25 36.24 C 117.42 34.22 119.20 31.36 122.31 30.74 C 120.11 33.41 117.48 35.81 115.98 38.99 C 113.44 44.51 107.30 48.44 107.87 55.16 C 111.49 52.60 115.03 49.87 119.15 48.15 C 124.87 45.75 129.87 41.37 136.27 40.86 C 135.26 42.93 134.23 44.99 132.98 46.92 C 135.56 49.25 138.62 46.11 141.14 45.12 C 147.29 43.22 152.25 37.82 159.00 37.91 C 167.45 38.60 175.97 44.05 184.41 40.53 C 191.26 39.82 197.77 36.34 204.73 37.12 C 205.45 38.50 206.10 39.99 206.03 41.59 C 200.89 42.98 196.03 45.13 191.18 47.26 C 187.05 48.81 182.68 51.29 180.88 55.53 C 193.53 62.11 205.94 52.39 217.86 48.84 C 224.92 47.29 231.78 44.66 239.06 44.27 C 245.29 42.80 252.57 42.09 257.94 46.26 C 259.64 51.95 252.44 51.85 248.79 52.81 C 236.77 57.05 225.32 64.50 218.59 75.60 C 215.70 80.74 209.05 79.64 204.17 81.13 C 202.21 81.92 198.00 81.31 199.04 84.50 C 206.39 87.03 214.22 89.72 222.07 87.98 C 222.86 92.32 217.25 92.88 214.52 94.86 C 218.70 95.08 222.89 95.16 227.07 94.93 C 231.31 94.69 234.95 91.98 239.19 91.70 C 238.42 95.26 236.14 98.22 234.16 101.19 C 231.04 104.72 226.03 105.37 221.70 106.46 C 223.86 108.39 230.09 109.55 227.34 113.22 C 218.07 117.92 207.04 115.34 197.46 119.06 C 191.31 119.26 185.92 122.88 179.74 123.16 C 182.03 126.91 187.13 126.18 189.93 129.34 C 190.89 133.82 184.63 133.45 181.74 134.37 C 172.61 134.30 164.66 139.29 157.93 144.98 C 153.27 148.61 146.88 148.47 141.95 151.62 C 143.22 154.01 146.67 154.74 147.15 157.64 C 143.20 158.63 139.14 159.10 135.20 160.12 C 136.15 161.80 138.32 164.27 135.84 165.74 C 128.40 164.08 120.44 165.78 113.27 162.77 C 109.79 160.67 107.42 157.14 103.83 155.16 C 100.21 152.65 95.54 153.34 91.58 151.70 C 103.37 146.04 115.14 140.08 125.19 131.58 C 129.56 133.23 133.33 136.49 138.12 136.97 C 144.52 137.79 151.87 136.29 156.10 131.06 C 158.56 128.16 161.37 125.46 163.21 122.10 C 165.95 114.59 162.49 106.72 158.33 100.48 C 163.09 102.71 167.60 106.23 173.12 106.03 C 172.91 99.84 165.30 99.35 161.24 96.47 C 162.52 92.09 168.38 95.19 170.12 91.19 C 167.10 90.41 163.87 90.33 161.01 89.00 C 157.40 85.92 155.61 81.10 156.41 76.41 C 157.04 73.77 154.24 72.47 153.13 70.47 C 152.98 68.54 153.40 66.61 153.31 64.67 C 148.01 66.58 142.18 66.86 136.77 65.26 C 134.29 61.12 134.02 54.87 128.60 53.27 C 125.77 51.02 127.11 55.43 125.91 56.89 C 120.60 55.88 114.96 53.65 109.62 55.65 C 102.73 61.85 98.35 71.58 100.07 80.92 C 100.09 83.27 101.74 86.47 99.13 87.98 C 87.32 97.29 75.58 106.67 64.20 116.51 C 61.81 109.66 69.93 106.62 70.60 100.53 C 71.70 96.78 74.24 93.66 77.16 91.16 C 80.96 88.25 80.41 82.81 83.17 79.18 C 85.78 75.48 86.77 70.97 89.17 67.18 C 96.98 56.16 105.54 45.65 115.25 36.24 Z" />
<path fill="#e63100" opacity="1.00" d=" M 84.49 124.62 C 86.09 124.64 87.16 126.72 88.02 127.96 C 86.97 130.48 85.58 133.26 83.02 134.50 C 80.74 133.66 79.02 131.90 77.65 129.96 C 80.06 128.35 81.87 125.95 84.49 124.62 Z" />
</g>
<g id="#fbfcf7ff">
<path fill="#fbfcf7" opacity="1.00" d=" M 113.41 57.37 C 118.36 57.11 123.62 58.54 127.96 60.97 C 128.50 64.30 131.06 66.47 133.35 68.68 C 137.75 75.93 141.49 85.41 136.69 93.42 C 131.19 94.84 127.62 99.31 123.79 103.14 C 120.51 104.48 117.06 101.99 114.75 99.79 C 113.49 97.18 117.00 97.90 118.48 97.21 C 130.23 89.53 129.32 69.69 117.33 62.62 C 114.33 60.57 110.63 61.14 107.28 61.70 C 109.03 59.90 111.04 58.29 113.41 57.37 Z" />
<path fill="#fbfcf7" opacity="1.00" d=" M 107.45 66.48 C 112.75 64.15 119.07 71.51 115.45 76.41 C 112.85 81.26 104.42 80.31 103.29 74.85 C 101.95 71.47 104.43 67.90 107.45 66.48 Z" />
<path fill="#fbfcf7" opacity="1.00" d=" M 143.24 68.20 C 150.41 66.50 155.85 75.33 153.85 81.64 C 147.50 83.39 146.03 92.78 151.64 96.37 C 152.63 98.08 157.44 98.41 155.93 100.72 C 152.87 99.39 150.31 97.21 147.47 95.53 C 144.50 93.86 140.95 94.31 137.70 93.85 C 139.33 90.25 140.09 86.37 140.16 82.43 C 144.17 83.79 152.02 79.64 148.92 75.09 C 146.77 76.24 145.01 77.95 143.02 79.34 C 140.04 77.00 139.46 72.49 137.80 69.14 C 139.59 68.76 141.40 68.41 143.24 68.20 Z" />
<path fill="#fbfcf7" opacity="1.00" d=" M 107.12 81.85 C 110.56 80.63 110.54 83.47 110.05 86.07 C 106.50 87.38 104.24 84.55 107.12 81.85 Z" />
<path fill="#fbfcf7" opacity="1.00" d=" M 154.39 83.67 C 156.64 86.50 158.68 89.53 161.25 92.09 C 160.31 93.62 159.06 94.93 157.81 96.21 C 155.27 95.24 152.84 93.51 151.68 90.98 C 151.30 88.24 153.18 85.95 154.39 83.67 Z" />
<path fill="#fbfcf7" opacity="1.00" d=" M 101.42 88.50 C 102.73 87.72 103.93 90.22 104.92 91.03 C 109.45 97.23 115.15 103.62 123.13 104.88 C 118.15 112.44 119.51 122.23 123.33 129.87 C 113.39 139.44 100.31 145.27 87.76 150.80 C 78.98 155.01 68.76 158.03 59.13 155.04 C 53.89 153.78 47.79 149.07 49.77 143.01 C 52.06 134.13 57.77 126.50 63.65 119.65 C 75.62 108.54 88.68 98.69 101.42 88.50 M 101.41 99.35 C 97.67 100.18 97.24 105.83 100.34 107.71 C 103.60 110.63 109.20 106.34 107.63 102.42 C 106.96 99.77 103.88 98.53 101.41 99.35 M 95.25 109.59 C 88.63 109.65 85.54 116.32 80.78 119.79 C 74.85 124.96 66.46 127.17 62.05 134.06 C 58.67 140.36 65.25 148.52 72.01 147.87 C 77.29 148.17 81.36 144.28 85.21 141.25 C 89.26 138.32 89.95 132.87 93.64 129.63 C 95.25 127.81 97.61 126.43 98.64 124.21 C 96.93 122.60 96.45 120.41 95.77 118.28 C 93.73 115.94 89.29 116.04 89.75 111.91 C 95.81 111.20 102.46 116.92 100.21 123.30 C 105.48 118.85 101.60 110.22 95.25 109.59 M 110.52 111.52 C 106.94 113.04 106.94 119.11 110.69 120.40 C 113.59 121.75 117.53 119.38 116.99 116.01 C 117.64 112.50 113.49 110.25 110.52 111.52 Z" />
<path fill="#fbfcf7" opacity="1.00" d=" M 134.36 95.39 C 137.89 94.14 142.07 94.48 145.51 95.96 C 144.96 97.27 143.49 97.72 142.43 98.51 C 133.79 103.54 129.22 114.55 131.84 124.20 C 134.96 127.49 135.73 132.16 138.77 135.51 C 131.71 134.44 125.08 130.39 122.07 123.73 C 117.95 112.85 124.72 100.72 134.36 95.39 Z" />
<path fill="#fbfcf7" opacity="1.00" d=" M 150.28 103.15 C 155.45 100.22 162.30 107.20 159.24 112.30 C 157.71 115.41 153.73 116.97 150.56 115.38 C 145.41 113.56 145.29 105.19 150.28 103.15 Z" />
<path fill="#fbfcf7" opacity="1.00" d=" M 150.92 117.88 C 152.32 117.80 153.72 117.83 155.11 117.97 C 155.74 120.77 153.61 123.02 150.78 122.23 C 150.72 120.78 150.76 119.32 150.92 117.88 Z" />
<path fill="#fbfcf7" opacity="1.00" d=" M 72.28 128.42 C 74.10 128.34 75.05 130.88 76.22 132.07 C 73.44 133.81 69.77 133.29 67.18 135.34 C 65.69 140.52 72.45 141.69 75.90 139.85 C 77.45 138.59 79.04 139.93 80.12 141.08 C 78.50 145.65 73.25 145.90 69.15 145.46 C 65.37 142.46 62.15 137.42 64.51 132.55 C 66.45 130.23 69.48 129.25 72.28 128.42 Z" />
<path fill="#fbfcf7" opacity="1.00" d=" M 241.37 129.77 C 242.44 129.78 243.51 129.83 244.58 129.92 C 245.10 131.88 240.78 131.69 241.37 129.77 Z" />
<path fill="#fbfcf7" opacity="1.00" d=" M 48.58 148.34 C 48.58 148.40 48.57 148.51 48.57 148.57 C 48.57 148.51 48.58 148.40 48.58 148.34 Z" />
<path fill="#fbfcf7" opacity="1.00" d=" M 36.81 172.08 C 37.70 173.34 36.88 174.73 35.63 175.31 C 34.92 173.87 35.32 172.79 36.81 172.08 Z" />
<path fill="#fbfcf7" opacity="1.00" d=" M 35.71 187.89 C 36.01 187.46 36.61 186.59 36.91 186.15 C 36.61 186.59 36.01 187.46 35.71 187.89 Z" />
</g>
</svg>
