<?xml version="1.0" encoding="UTF-8" ?>
<!DOCTYPE svg PUBLIC "-//W3C//DTD SVG 1.1//EN" "http://www.w3.org/Graphics/SVG/1.1/DTD/svg11.dtd">
<svg width="500pt" height="375pt" viewBox="0 0 500 375" version="1.1" xmlns="http://www.w3.org/2000/svg">
<path fill="#ffffff" opacity="1.00" d=" M 0.00 0.00 L 500.00 0.00 L 500.00 375.00 L 0.00 375.00 L 0.00 0.00 M 181.30 32.32 C 152.14 46.94 129.97 74.99 123.32 107.02 C 122.65 110.73 120.78 114.15 120.69 117.97 C 120.19 125.98 120.18 134.03 120.70 142.04 C 120.82 145.50 122.42 148.64 123.12 151.98 C 125.46 163.40 129.58 174.49 135.49 184.55 C 151.57 212.40 180.44 232.61 212.20 237.81 C 210.78 239.51 209.31 241.19 207.56 242.56 C 197.70 250.64 188.99 259.97 179.93 268.91 C 177.89 271.04 176.25 273.58 175.19 276.33 C 174.24 279.09 177.19 282.13 180.00 281.17 C 187.36 279.68 193.78 275.60 200.47 272.39 C 209.25 267.20 218.64 262.97 226.76 256.74 C 232.88 252.43 239.07 248.24 245.10 243.80 C 247.09 249.43 249.04 255.07 251.10 260.68 C 254.79 272.97 261.03 284.92 260.75 298.02 C 262.13 304.95 260.90 312.10 262.53 318.99 C 263.23 321.08 259.27 320.97 259.74 323.07 C 259.76 335.65 259.75 348.24 259.76 360.83 C 265.73 360.92 271.69 360.89 277.66 360.86 C 277.62 358.15 277.62 355.45 277.68 352.74 C 275.23 352.68 272.79 352.64 270.36 352.64 C 270.36 349.86 270.36 347.08 270.33 344.30 C 272.42 344.32 274.51 344.30 276.61 344.33 C 276.67 341.72 276.69 339.12 276.66 336.51 C 274.56 336.54 272.47 336.52 270.37 336.55 C 270.36 334.12 270.35 331.70 270.34 329.28 C 272.65 329.26 274.96 329.25 277.27 329.23 C 277.27 326.54 277.28 323.86 277.26 321.17 C 273.92 321.12 270.57 321.16 267.23 320.98 C 267.12 311.67 267.36 302.34 267.11 293.03 C 263.88 279.98 257.20 267.88 255.42 254.44 C 253.80 250.01 251.83 245.69 250.24 241.24 C 259.35 243.18 267.95 246.84 276.94 249.22 C 291.45 253.65 305.55 260.27 320.92 261.06 C 327.48 262.37 334.44 261.65 340.50 258.75 C 340.92 257.52 341.25 256.26 341.48 254.98 C 338.83 247.22 330.67 243.87 324.35 239.66 C 313.20 233.79 301.90 228.21 290.37 223.13 C 312.70 209.38 329.99 187.58 337.60 162.44 C 337.99 160.61 339.29 159.28 340.67 158.11 C 339.70 152.32 341.51 146.65 342.12 140.94 C 343.62 123.75 341.58 106.13 334.98 90.10 C 332.45 84.37 330.83 78.15 326.90 73.14 C 310.68 47.16 283.51 28.05 253.29 22.52 C 229.11 17.56 203.34 21.27 181.30 32.32 M 73.57 320.68 C 69.28 321.64 65.92 325.48 65.80 329.93 C 65.52 336.29 65.59 342.66 65.69 349.02 C 65.94 352.94 66.30 357.79 70.21 359.88 C 75.72 362.83 83.40 362.52 87.93 357.91 C 90.79 354.18 90.23 349.12 90.32 344.70 C 86.77 344.70 83.23 344.71 79.68 344.69 C 79.66 347.39 79.82 350.11 79.57 352.82 C 79.70 354.32 78.05 354.54 77.07 355.13 C 75.44 347.87 76.65 340.32 76.26 332.95 C 76.31 330.88 75.84 325.86 79.32 327.63 C 80.02 331.21 79.49 334.91 79.83 338.53 C 83.33 338.45 86.84 338.45 90.35 338.47 C 90.12 333.82 90.96 328.70 88.43 324.54 C 85.03 320.06 78.67 319.63 73.57 320.68 M 240.37 320.49 C 236.39 321.45 232.41 324.61 232.46 329.04 C 232.02 337.22 231.96 345.45 232.49 353.63 C 233.24 360.93 243.34 364.44 248.47 359.18 C 250.17 361.95 253.65 360.57 256.30 360.90 C 256.25 353.73 256.46 346.56 256.18 339.40 C 252.19 339.48 248.20 339.47 244.22 339.41 C 244.19 341.14 244.18 342.87 244.15 344.61 C 245.16 345.53 246.57 346.37 246.24 347.99 C 246.13 350.49 246.68 354.47 243.35 354.98 C 242.02 350.44 242.67 345.67 242.53 341.02 C 242.66 336.35 242.10 331.60 243.19 327.01 C 247.31 327.66 245.21 332.94 245.74 335.86 C 249.27 335.88 252.80 335.87 256.32 335.89 C 256.29 331.89 256.48 327.41 254.00 324.03 C 250.56 320.34 245.11 319.69 240.37 320.49 M 93.43 321.14 C 93.54 334.38 93.49 347.61 93.45 360.84 C 96.93 360.90 100.40 360.87 103.87 360.87 C 103.88 355.33 103.61 349.78 104.09 344.26 C 104.74 344.27 106.03 344.31 106.68 344.33 C 106.71 349.85 106.66 355.37 106.70 360.89 C 110.22 360.87 113.75 360.86 117.27 360.88 C 117.23 347.63 117.27 334.39 117.25 321.14 C 113.71 321.13 110.17 321.11 106.63 321.21 C 106.67 325.82 106.91 330.45 106.53 335.06 C 105.87 335.12 104.55 335.25 103.89 335.32 C 103.81 330.59 103.81 325.86 103.87 321.14 C 100.39 321.14 96.91 321.13 93.43 321.14 M 123.48 321.18 C 122.06 334.46 119.81 347.63 118.47 360.91 C 122.08 360.87 125.69 360.88 129.30 360.86 C 129.49 358.54 129.65 356.23 129.73 353.91 C 130.97 353.85 132.21 353.81 133.45 353.81 C 133.50 356.15 133.59 358.50 133.72 360.84 C 137.34 360.89 140.96 360.87 144.58 360.92 C 142.79 347.66 140.59 334.45 138.77 321.19 C 133.67 321.08 128.57 321.10 123.48 321.18 M 146.59 321.09 C 146.57 334.36 146.53 347.63 146.61 360.90 C 152.20 360.84 157.79 360.95 163.38 360.82 C 163.29 358.17 163.29 355.52 163.38 352.87 C 161.31 352.70 159.23 352.64 157.16 352.61 C 157.10 342.13 157.22 331.66 157.09 321.18 C 153.59 321.12 150.09 321.14 146.59 321.09 M 165.35 321.15 C 165.42 334.38 165.41 347.61 165.37 360.85 C 170.95 360.90 176.54 360.92 182.13 360.83 C 182.16 358.12 182.16 355.40 182.10 352.69 C 180.02 352.66 177.93 352.66 175.85 352.67 C 175.62 342.16 175.79 331.64 175.77 321.13 C 172.30 321.13 168.82 321.13 165.35 321.15 M 184.77 321.16 C 184.75 334.38 184.73 347.60 184.78 360.83 C 190.71 360.96 196.65 360.80 202.59 360.94 C 202.64 358.17 202.64 355.40 202.61 352.63 C 200.19 352.65 197.77 352.66 195.35 352.66 C 195.36 349.88 195.37 347.11 195.34 344.35 C 197.46 344.31 199.57 344.29 201.69 344.20 C 201.67 341.86 201.76 339.51 201.63 337.17 C 200.05 335.72 197.39 336.86 195.38 336.54 C 195.37 334.12 195.36 331.70 195.34 329.28 C 197.65 329.26 199.96 329.25 202.27 329.24 C 202.27 326.55 202.28 323.86 202.27 321.17 C 196.44 321.10 190.60 321.12 184.77 321.16 M 205.27 321.12 C 205.33 334.37 205.30 347.62 205.28 360.87 C 208.13 360.88 210.97 360.88 213.82 360.85 C 213.85 355.74 213.56 350.61 214.00 345.51 C 216.40 350.35 217.31 355.75 219.02 360.85 C 222.12 360.89 225.22 360.88 228.32 360.90 C 228.36 347.64 228.34 334.38 228.33 321.12 C 225.38 321.15 222.44 321.15 219.50 321.08 C 219.34 326.41 219.52 331.75 219.39 337.09 C 217.15 331.93 215.82 326.45 214.00 321.14 C 211.09 321.12 208.18 321.13 205.27 321.12 M 289.58 321.09 C 289.54 334.37 289.53 347.64 289.58 360.92 C 295.92 360.65 302.33 361.39 308.61 360.32 C 311.96 359.76 313.65 356.17 313.43 353.04 C 313.44 345.01 313.56 336.97 313.37 328.94 C 313.42 325.57 310.92 322.38 307.58 321.78 C 301.65 320.64 295.58 321.33 289.58 321.09 M 316.78 321.17 C 316.76 334.38 316.73 347.60 316.79 360.82 C 322.75 360.94 328.72 360.88 334.68 360.85 C 334.65 358.15 334.66 355.44 334.71 352.74 C 332.26 352.67 329.81 352.63 327.37 352.64 C 327.39 349.86 327.39 347.07 327.37 344.29 C 329.45 344.31 331.54 344.30 333.63 344.33 C 333.69 341.72 333.71 339.12 333.67 336.51 C 331.57 336.53 329.48 336.52 327.39 336.54 C 327.39 334.12 327.38 331.70 327.37 329.28 C 329.67 329.26 331.97 329.25 334.28 329.25 C 334.31 326.55 334.28 323.85 334.29 321.16 C 328.45 321.11 322.61 321.11 316.78 321.17 M 337.97 321.19 C 337.72 328.46 337.61 335.75 338.17 343.00 C 338.40 348.94 337.26 354.88 338.07 360.82 C 340.91 360.87 343.76 360.88 346.61 360.96 C 346.79 355.59 346.58 350.21 346.72 344.84 C 348.94 349.95 350.14 355.45 351.72 360.78 C 354.88 360.91 358.04 360.90 361.20 360.84 C 361.22 347.62 361.23 334.40 361.20 321.17 C 358.25 321.15 355.30 321.14 352.36 321.02 C 352.18 326.35 352.35 331.69 352.24 337.02 C 349.96 331.92 348.61 326.47 346.85 321.18 C 343.89 321.12 340.93 321.11 337.97 321.19 M 365.35 321.14 C 365.42 334.37 365.41 347.61 365.36 360.85 C 368.83 360.89 372.30 360.88 375.78 360.88 C 375.72 347.63 375.74 334.38 375.77 321.14 C 372.30 321.13 368.82 321.13 365.35 321.14 M 379.40 321.16 C 379.47 334.39 379.46 347.63 379.40 360.86 C 385.38 360.91 391.36 360.86 397.34 360.88 C 397.37 358.12 397.37 355.35 397.12 352.60 C 394.67 352.67 392.23 352.67 389.79 352.62 C 389.78 349.84 389.80 347.06 389.88 344.29 C 392.01 344.32 394.14 344.29 396.28 344.31 C 396.29 341.71 396.31 339.13 396.32 336.54 C 394.20 336.55 392.09 336.52 389.98 336.55 C 389.81 334.14 389.78 331.73 389.75 329.32 C 392.04 329.24 394.34 329.23 396.63 329.29 C 396.67 326.58 396.68 323.86 396.71 321.15 C 390.94 321.11 385.17 321.11 379.40 321.16 M 400.46 321.16 C 400.58 334.38 400.54 347.61 400.47 360.84 C 406.88 360.73 413.36 361.38 419.70 360.29 C 422.98 359.67 424.56 356.11 424.38 353.05 C 424.38 345.01 424.50 336.97 424.32 328.94 C 424.33 325.57 421.86 322.43 418.53 321.79 C 412.57 320.68 406.48 321.24 400.46 321.16 M 426.57 352.49 C 426.56 355.30 426.60 358.11 426.60 360.92 C 429.16 360.88 431.73 360.86 434.29 360.84 C 434.27 358.06 434.30 355.29 434.32 352.53 C 431.73 352.52 429.15 352.49 426.57 352.49 Z" />
<path fill="#010102" opacity="1.00" d=" M 181.30 32.32 C 203.34 21.27 229.11 17.56 253.29 22.52 C 283.51 28.05 310.68 47.16 326.90 73.14 C 330.83 78.15 332.45 84.37 334.98 90.10 C 341.58 106.13 343.62 123.75 342.12 140.94 C 341.51 146.65 339.70 152.32 340.67 158.11 C 339.29 159.28 337.99 160.61 337.60 162.44 C 329.99 187.58 312.70 209.38 290.37 223.13 C 301.90 228.21 313.20 233.79 324.35 239.66 C 330.67 243.87 338.83 247.22 341.48 254.98 C 341.25 256.26 340.92 257.52 340.50 258.75 C 334.44 261.65 327.48 262.37 320.92 261.06 C 305.55 260.27 291.45 253.65 276.94 249.22 C 267.95 246.84 259.35 243.18 250.24 241.24 C 251.83 245.69 253.80 250.01 255.42 254.44 C 257.20 267.88 263.88 279.98 267.11 293.03 C 267.36 302.34 267.12 311.67 267.23 320.98 C 270.57 321.16 273.92 321.12 277.26 321.17 C 277.28 323.86 277.27 326.54 277.27 329.23 C 274.96 329.25 272.65 329.26 270.34 329.28 C 270.35 331.70 270.36 334.12 270.37 336.55 C 272.47 336.52 274.56 336.54 276.66 336.51 C 276.69 339.12 276.67 341.72 276.61 344.33 C 274.51 344.30 272.42 344.32 270.33 344.30 C 270.36 347.08 270.36 349.86 270.36 352.64 C 272.79 352.64 275.23 352.68 277.68 352.74 C 277.62 355.45 277.62 358.15 277.66 360.86 C 271.69 360.89 265.73 360.92 259.76 360.83 C 259.75 348.24 259.76 335.65 259.74 323.07 C 259.27 320.97 263.23 321.08 262.53 318.99 C 260.90 312.10 262.13 304.95 260.75 298.02 C 261.03 284.92 254.79 272.97 251.10 260.68 C 249.04 255.07 247.09 249.43 245.10 243.80 C 239.07 248.24 232.88 252.43 226.76 256.74 C 218.64 262.97 209.25 267.20 200.47 272.39 C 193.78 275.60 187.36 279.68 180.00 281.17 C 177.19 282.13 174.24 279.09 175.19 276.33 C 176.25 273.58 177.89 271.04 179.93 268.91 C 188.99 259.97 197.70 250.64 207.56 242.56 C 209.31 241.19 210.78 239.51 212.20 237.81 C 180.44 232.61 151.57 212.40 135.49 184.55 C 129.58 174.49 125.46 163.40 123.12 151.98 C 122.42 148.64 120.82 145.50 120.70 142.04 C 120.18 134.03 120.19 125.98 120.69 117.97 C 120.78 114.15 122.65 110.73 123.32 107.02 C 129.97 74.99 152.14 46.94 181.30 32.32 M 146.74 63.77 C 134.63 78.82 126.80 97.33 124.41 116.48 C 121.88 125.26 121.85 134.79 124.43 143.57 C 127.85 172.71 144.52 199.67 168.30 216.69 C 181.63 226.11 197.04 232.57 213.12 235.41 C 214.35 235.63 215.35 235.24 216.12 234.22 C 221.20 228.92 227.08 224.49 232.09 219.11 C 236.52 217.33 240.00 213.91 243.95 211.25 C 225.06 203.77 206.08 196.52 187.07 189.35 C 182.17 192.42 176.97 194.97 172.02 197.97 C 170.47 198.78 168.71 199.85 166.94 198.99 C 166.19 197.77 165.77 195.41 167.49 194.78 C 171.16 192.58 175.06 190.73 178.53 188.22 C 170.49 183.46 161.88 179.73 153.95 174.78 C 153.12 172.75 154.54 170.36 156.87 171.20 C 164.26 174.12 170.74 178.94 178.12 181.94 C 173.11 177.48 167.34 173.98 162.05 169.87 C 160.92 168.84 158.87 168.03 159.35 166.17 C 158.96 163.61 162.66 163.54 163.95 165.00 C 171.61 170.70 179.37 176.28 186.99 182.04 C 189.17 183.81 191.99 184.37 194.51 185.47 C 213.13 192.11 231.52 199.33 249.98 206.41 C 265.42 194.68 280.62 182.57 296.67 171.67 C 298.18 170.62 297.46 168.51 297.78 166.97 C 301.03 166.11 304.30 165.04 306.83 162.73 C 313.25 157.19 319.63 151.57 326.18 146.17 C 327.18 145.12 328.72 145.43 330.02 145.21 C 330.12 146.58 331.18 148.48 329.78 149.52 C 325.63 153.54 320.72 156.74 316.86 161.05 C 323.54 158.63 330.77 157.51 337.08 154.21 C 339.13 146.31 339.96 138.15 339.70 130.00 C 340.23 115.72 336.84 101.54 331.56 88.35 C 329.76 87.98 329.24 90.18 328.18 91.18 C 324.97 95.89 319.17 97.38 314.08 99.13 C 310.03 100.63 305.51 100.78 301.37 99.57 C 295.64 97.84 289.59 96.87 284.39 93.74 C 277.85 90.23 271.73 85.12 268.96 78.04 C 268.00 75.29 265.75 72.55 266.75 69.51 C 268.23 65.76 270.27 62.06 273.50 59.54 C 277.39 56.36 282.40 55.17 287.12 53.75 C 295.42 51.99 303.31 55.80 311.19 57.81 C 308.04 53.34 303.63 49.99 299.50 46.49 C 286.08 36.16 270.44 28.51 253.75 25.35 C 243.73 22.84 233.33 23.24 223.10 23.45 C 193.50 25.49 165.17 40.55 146.74 63.77 M 283.60 57.55 C 280.12 58.54 275.82 58.26 273.31 61.28 C 268.46 65.49 270.47 72.64 271.82 78.01 C 274.95 84.60 281.03 89.36 287.55 92.36 C 295.97 96.57 305.79 97.67 315.01 96.04 C 320.17 95.05 324.41 91.71 327.57 87.64 C 327.54 85.23 327.57 82.81 327.40 80.41 C 326.47 76.29 322.14 74.17 320.73 70.31 C 319.14 66.23 315.79 62.95 311.78 61.25 C 303.10 57.19 293.04 55.18 283.60 57.55 M 306.61 169.18 C 309.32 174.06 313.46 177.97 316.54 182.60 C 317.68 183.80 316.93 185.35 316.71 186.73 C 315.62 186.72 314.54 186.64 313.47 186.51 C 309.73 182.26 306.55 177.53 302.88 173.20 C 299.05 176.29 295.15 179.33 290.91 181.86 C 278.74 190.07 267.71 199.83 255.79 208.37 C 263.79 212.66 272.58 215.18 280.77 219.07 C 283.53 219.95 286.63 222.66 289.43 220.52 C 299.65 214.06 309.00 206.04 316.52 196.55 C 324.72 185.94 331.86 174.07 335.05 160.94 C 325.38 162.96 316.18 166.75 306.61 169.18 M 234.84 225.84 C 230.66 229.40 225.86 232.34 222.52 236.79 C 229.17 236.80 235.80 236.74 242.45 236.52 C 243.10 235.43 243.75 234.34 244.43 233.26 C 246.41 234.19 248.45 235.46 250.73 235.13 C 260.60 233.76 269.94 230.14 279.12 226.41 C 274.76 223.59 269.71 222.09 265.03 219.90 C 259.70 218.17 254.81 214.76 249.20 214.11 C 244.06 217.59 240.05 222.47 234.84 225.84 M 255.91 236.77 C 257.95 237.62 259.96 238.57 262.11 239.12 C 273.16 241.62 284.21 244.34 294.78 248.48 C 300.82 250.79 306.36 254.64 312.93 255.33 C 320.18 256.10 327.53 257.93 334.74 255.94 C 331.94 252.12 327.51 250.01 323.61 247.51 C 310.67 239.65 296.61 233.93 282.98 227.42 C 274.25 231.23 265.47 235.56 255.91 236.77 M 219.22 239.21 C 210.55 246.17 202.93 254.28 194.45 261.45 C 190.35 265.79 185.34 269.50 182.75 275.05 C 188.22 273.54 193.09 270.55 198.13 268.06 C 208.34 262.08 219.12 256.88 228.21 249.20 C 232.40 245.73 237.12 242.99 241.29 239.50 C 233.93 239.26 226.57 239.62 219.22 239.21 Z" />
<path fill="#ffffff" opacity="1.00" d=" M 146.74 63.77 C 165.17 40.55 193.50 25.49 223.10 23.45 C 233.33 23.24 243.73 22.84 253.75 25.35 C 270.44 28.51 286.08 36.16 299.50 46.49 C 303.63 49.99 308.04 53.34 311.19 57.81 C 303.31 55.80 295.42 51.99 287.12 53.75 C 282.40 55.17 277.39 56.36 273.50 59.54 C 270.27 62.06 268.23 65.76 266.75 69.51 C 265.75 72.55 268.00 75.29 268.96 78.04 C 271.73 85.12 277.85 90.23 284.39 93.74 C 289.59 96.87 295.64 97.84 301.37 99.57 C 305.51 100.78 310.03 100.63 314.08 99.13 C 319.17 97.38 324.97 95.89 328.18 91.18 C 329.24 90.18 329.76 87.98 331.56 88.35 C 336.84 101.54 340.23 115.72 339.70 130.00 C 339.96 138.15 339.13 146.31 337.08 154.21 C 330.77 157.51 323.54 158.63 316.86 161.05 C 320.72 156.74 325.63 153.54 329.78 149.52 C 331.18 148.48 330.12 146.58 330.02 145.21 C 328.72 145.43 327.18 145.12 326.18 146.17 C 319.63 151.57 313.25 157.19 306.83 162.73 C 304.30 165.04 301.03 166.11 297.78 166.97 C 297.46 168.51 298.18 170.62 296.67 171.67 C 280.62 182.57 265.42 194.68 249.98 206.41 C 231.52 199.33 213.13 192.11 194.51 185.47 C 191.99 184.37 189.17 183.81 186.99 182.04 C 179.37 176.28 171.61 170.70 163.95 165.00 C 162.66 163.54 158.96 163.61 159.35 166.17 C 158.87 168.03 160.92 168.84 162.05 169.87 C 167.34 173.98 173.11 177.48 178.12 181.94 C 170.74 178.94 164.26 174.12 156.87 171.20 C 154.54 170.36 153.12 172.75 153.95 174.78 C 161.88 179.73 170.49 183.46 178.53 188.22 C 175.06 190.73 171.16 192.58 167.49 194.78 C 165.77 195.41 166.19 197.77 166.94 198.99 C 168.71 199.85 170.47 198.78 172.02 197.97 C 176.97 194.97 182.17 192.42 187.07 189.35 C 206.08 196.52 225.06 203.77 243.95 211.25 C 240.00 213.91 236.52 217.33 232.09 219.11 C 227.08 224.49 221.20 228.92 216.12 234.22 C 215.35 235.24 214.35 235.63 213.12 235.41 C 197.04 232.57 181.63 226.11 168.30 216.69 C 144.52 199.67 127.85 172.71 124.43 143.57 C 121.85 134.79 121.88 125.26 124.41 116.48 C 126.80 97.33 134.63 78.82 146.74 63.77 M 204.45 45.54 C 196.30 46.63 188.02 48.58 181.12 53.25 C 175.26 56.80 170.45 62.97 170.29 70.04 C 169.88 76.25 173.37 82.08 178.00 85.95 C 187.27 93.35 199.38 95.95 211.00 96.18 C 223.28 95.97 236.16 92.93 245.53 84.53 C 248.90 80.81 251.78 76.16 251.61 70.95 C 251.88 63.81 247.16 57.40 241.38 53.66 C 230.65 46.46 217.11 44.48 204.45 45.54 M 310.00 114.62 C 311.58 117.89 314.14 120.60 315.46 124.01 C 314.96 126.76 312.99 130.14 316.04 132.17 C 318.51 128.60 319.58 123.74 317.40 119.77 C 315.98 116.95 313.79 112.99 310.00 114.62 M 245.43 116.57 C 237.43 117.67 229.25 119.14 222.18 123.27 C 214.77 126.89 207.99 133.48 207.08 142.04 C 206.35 148.46 209.71 154.55 214.16 158.91 C 222.04 165.36 231.86 169.27 241.97 170.34 C 252.64 172.19 263.68 170.90 274.02 167.94 C 281.71 165.14 289.68 161.27 294.33 154.24 C 297.92 149.23 298.88 142.34 296.24 136.70 C 292.77 128.37 284.46 123.78 276.56 120.42 C 266.60 116.93 255.93 115.73 245.43 116.57 M 187.45 129.37 C 185.51 131.12 186.34 134.52 186.79 136.84 C 190.64 136.26 190.15 130.98 189.16 128.27 C 188.73 128.55 187.88 129.10 187.45 129.37 Z" />
<path fill="#010102" opacity="1.00" d=" M 204.45 45.54 C 217.11 44.48 230.65 46.46 241.38 53.66 C 247.16 57.40 251.88 63.81 251.61 70.95 C 251.78 76.16 248.90 80.81 245.53 84.53 C 236.16 92.93 223.28 95.97 211.00 96.18 C 199.38 95.95 187.27 93.35 178.00 85.95 C 173.37 82.08 169.88 76.25 170.29 70.04 C 170.45 62.97 175.26 56.80 181.12 53.25 C 188.02 48.58 196.30 46.63 204.45 45.54 M 205.46 48.62 C 195.64 49.88 185.14 52.65 178.32 60.33 C 174.33 64.08 171.85 70.33 174.49 75.54 C 177.86 82.94 185.33 87.50 192.76 90.08 C 207.08 94.61 223.41 93.93 236.73 86.68 C 242.08 83.34 247.30 78.55 248.45 72.05 C 249.13 65.24 243.85 59.98 238.94 56.12 C 229.14 49.75 216.97 47.69 205.46 48.62 Z" />
<path fill="#ffffff" opacity="1.00" d=" M 205.46 48.62 C 216.97 47.69 229.14 49.75 238.94 56.12 C 243.85 59.98 249.13 65.24 248.45 72.05 C 247.30 78.55 242.08 83.34 236.73 86.68 C 223.41 93.93 207.08 94.61 192.76 90.08 C 185.33 87.50 177.86 82.94 174.49 75.54 C 171.85 70.33 174.33 64.08 178.32 60.33 C 185.14 52.65 195.64 49.88 205.46 48.62 M 211.42 65.50 C 209.55 66.52 207.60 67.92 207.21 70.16 C 206.83 73.51 206.56 77.95 210.08 79.77 C 214.77 82.68 222.91 82.17 225.45 76.59 C 226.01 73.49 226.49 69.43 223.77 67.15 C 220.54 64.04 215.36 64.22 211.42 65.50 Z" />
<path fill="#ffffff" opacity="1.00" d=" M 283.60 57.55 C 293.04 55.18 303.10 57.19 311.78 61.25 C 315.79 62.95 319.14 66.23 320.73 70.31 C 322.14 74.17 326.47 76.29 327.40 80.41 C 327.57 82.81 327.54 85.23 327.57 87.64 C 324.41 91.71 320.17 95.05 315.01 96.04 C 305.79 97.67 295.97 96.57 287.55 92.36 C 281.03 89.36 274.95 84.60 271.82 78.01 C 270.47 72.64 268.46 65.49 273.31 61.28 C 275.82 58.26 280.12 58.54 283.60 57.55 M 302.53 73.65 C 298.78 74.84 298.82 79.42 299.44 82.59 C 301.19 86.96 306.77 87.10 310.77 86.64 C 313.12 85.95 315.91 84.69 316.37 81.99 C 316.48 79.57 316.89 76.82 315.14 74.85 C 311.63 72.11 306.49 71.80 302.53 73.65 Z" />
<path fill="#010102" opacity="1.00" d=" M 211.42 65.50 C 215.36 64.22 220.54 64.04 223.77 67.15 C 226.49 69.43 226.01 73.49 225.45 76.59 C 222.91 82.17 214.77 82.68 210.08 79.77 C 206.56 77.95 206.83 73.51 207.21 70.16 C 207.60 67.92 209.55 66.52 211.42 65.50 Z" />
<path fill="#010102" opacity="1.00" d=" M 302.53 73.65 C 306.49 71.80 311.63 72.11 315.14 74.85 C 316.89 76.82 316.48 79.57 316.37 81.99 C 315.91 84.69 313.12 85.95 310.77 86.64 C 306.77 87.10 301.19 86.96 299.44 82.59 C 298.82 79.42 298.78 74.84 302.53 73.65 Z" />
<path fill="#010102" opacity="1.00" d=" M 310.00 114.62 C 313.79 112.99 315.98 116.95 317.40 119.77 C 319.58 123.74 318.51 128.60 316.04 132.17 C 312.99 130.14 314.96 126.76 315.46 124.01 C 314.14 120.60 311.58 117.89 310.00 114.62 Z" />
<path fill="#010102" opacity="1.00" d=" M 245.43 116.57 C 255.93 115.73 266.60 116.93 276.56 120.42 C 284.46 123.78 292.77 128.37 296.24 136.70 C 298.88 142.34 297.92 149.23 294.33 154.24 C 289.68 161.27 281.71 165.14 274.02 167.94 C 263.68 170.90 252.64 172.19 241.97 170.34 C 231.86 169.27 222.04 165.36 214.16 158.91 C 209.71 154.55 206.35 148.46 207.08 142.04 C 207.99 133.48 214.77 126.89 222.18 123.27 C 229.25 119.14 237.43 117.67 245.43 116.57 M 240.41 120.56 C 234.71 121.56 229.20 123.55 223.98 126.00 C 218.07 129.53 211.88 134.26 210.32 141.35 C 209.41 146.30 211.62 151.40 215.24 154.76 C 223.62 163.68 236.22 166.76 247.99 167.87 C 260.74 168.40 274.23 166.18 284.90 158.80 C 290.07 154.89 295.42 149.31 294.54 142.26 C 293.44 134.83 286.98 129.82 280.96 126.15 C 268.52 119.97 254.06 117.96 240.41 120.56 Z" />
<path fill="#ffffff" opacity="1.00" d=" M 240.41 120.56 C 254.06 117.96 268.52 119.97 280.96 126.15 C 286.98 129.82 293.44 134.83 294.54 142.26 C 295.42 149.31 290.07 154.89 284.90 158.80 C 274.23 166.18 260.74 168.40 247.99 167.87 C 236.22 166.76 223.62 163.68 215.24 154.76 C 211.62 151.40 209.41 146.30 210.32 141.35 C 211.88 134.26 218.07 129.53 223.98 126.00 C 229.20 123.55 234.71 121.56 240.41 120.56 Z" />
<path fill="#010102" opacity="1.00" d=" M 187.45 129.37 C 187.88 129.10 188.73 128.55 189.16 128.27 C 190.15 130.98 190.64 136.26 186.79 136.84 C 186.34 134.52 185.51 131.12 187.45 129.37 Z" />
<path fill="#ffffff" opacity="1.00" d=" M 306.61 169.18 C 316.18 166.75 325.38 162.96 335.05 160.94 C 331.86 174.07 324.72 185.94 316.52 196.55 C 309.00 206.04 299.65 214.06 289.43 220.52 C 286.63 222.66 283.53 219.95 280.77 219.07 C 272.58 215.18 263.79 212.66 255.79 208.37 C 267.71 199.83 278.74 190.07 290.91 181.86 C 295.15 179.33 299.05 176.29 302.88 173.20 C 306.55 177.53 309.73 182.26 313.47 186.51 C 314.54 186.64 315.62 186.72 316.71 186.73 C 316.93 185.35 317.68 183.80 316.54 182.60 C 313.46 177.97 309.32 174.06 306.61 169.18 Z" />
<path fill="#ffffff" opacity="1.00" d=" M 234.84 225.84 C 240.05 222.47 244.06 217.59 249.20 214.11 C 254.81 214.76 259.70 218.17 265.03 219.90 C 269.71 222.09 274.76 223.59 279.12 226.41 C 269.94 230.14 260.60 233.76 250.73 235.13 C 248.45 235.46 246.41 234.19 244.43 233.26 C 243.75 234.34 243.10 235.43 242.45 236.52 C 235.80 236.74 229.17 236.80 222.52 236.79 C 225.86 232.34 230.66 229.40 234.84 225.84 Z" />
<path fill="#ffffff" opacity="1.00" d=" M 255.91 236.77 C 265.47 235.56 274.25 231.23 282.98 227.42 C 296.61 233.93 310.67 239.65 323.61 247.51 C 327.51 250.01 331.94 252.12 334.74 255.94 C 327.53 257.93 320.18 256.10 312.93 255.33 C 306.36 254.64 300.82 250.79 294.78 248.48 C 284.21 244.34 273.16 241.62 262.11 239.12 C 259.96 238.57 257.95 237.62 255.91 236.77 Z" />
<path fill="#ffffff" opacity="1.00" d=" M 219.22 239.21 C 226.57 239.62 233.93 239.26 241.29 239.50 C 237.12 242.99 232.40 245.73 228.21 249.20 C 219.12 256.88 208.34 262.08 198.13 268.06 C 193.09 270.55 188.22 273.54 182.75 275.05 C 185.34 269.50 190.35 265.79 194.45 261.45 C 202.93 254.28 210.55 246.17 219.22 239.21 Z" />
<path fill="#010102" opacity="1.00" d=" M 73.57 320.68 C 78.67 319.63 85.03 320.06 88.43 324.54 C 90.96 328.70 90.12 333.82 90.35 338.47 C 86.84 338.45 83.33 338.45 79.83 338.53 C 79.49 334.91 80.02 331.21 79.32 327.63 C 75.84 325.86 76.31 330.88 76.26 332.95 C 76.65 340.32 75.44 347.87 77.07 355.13 C 78.05 354.54 79.70 354.32 79.57 352.82 C 79.82 350.11 79.66 347.39 79.68 344.69 C 83.23 344.71 86.77 344.70 90.32 344.70 C 90.23 349.12 90.79 354.18 87.93 357.91 C 83.40 362.52 75.72 362.83 70.21 359.88 C 66.30 357.79 65.94 352.94 65.69 349.02 C 65.59 342.66 65.52 336.29 65.80 329.93 C 65.92 325.48 69.28 321.64 73.57 320.68 Z" />
<path fill="#010102" opacity="1.00" d=" M 240.37 320.49 C 245.11 319.69 250.56 320.34 254.00 324.03 C 256.48 327.41 256.29 331.89 256.32 335.89 C 252.80 335.87 249.27 335.88 245.74 335.86 C 245.21 332.94 247.31 327.66 243.19 327.01 C 242.10 331.60 242.66 336.35 242.53 341.02 C 242.67 345.67 242.02 350.44 243.35 354.98 C 246.68 354.47 246.13 350.49 246.24 347.99 C 246.57 346.37 245.16 345.53 244.15 344.61 C 244.18 342.87 244.19 341.14 244.22 339.41 C 248.20 339.47 252.19 339.48 256.18 339.40 C 256.46 346.56 256.25 353.73 256.30 360.90 C 253.65 360.57 250.17 361.95 248.47 359.18 C 243.34 364.44 233.24 360.93 232.49 353.63 C 231.96 345.45 232.02 337.22 232.46 329.04 C 232.41 324.61 236.39 321.45 240.37 320.49 Z" />
<path fill="#010102" opacity="1.00" d=" M 93.43 321.14 C 96.91 321.13 100.39 321.14 103.87 321.14 C 103.81 325.86 103.81 330.59 103.89 335.32 C 104.55 335.25 105.87 335.12 106.53 335.06 C 106.91 330.45 106.67 325.82 106.63 321.21 C 110.17 321.11 113.71 321.13 117.25 321.14 C 117.27 334.39 117.23 347.63 117.27 360.88 C 113.75 360.86 110.22 360.87 106.70 360.89 C 106.66 355.37 106.71 349.85 106.68 344.33 C 106.03 344.31 104.74 344.27 104.09 344.26 C 103.61 349.78 103.88 355.33 103.87 360.87 C 100.40 360.87 96.93 360.90 93.45 360.84 C 93.49 347.61 93.54 334.38 93.43 321.14 Z" />
<path fill="#010102" opacity="1.00" d=" M 123.48 321.18 C 128.57 321.10 133.67 321.08 138.77 321.19 C 140.59 334.45 142.79 347.66 144.58 360.92 C 140.96 360.87 137.34 360.89 133.72 360.84 C 133.59 358.50 133.50 356.15 133.45 353.81 C 132.21 353.81 130.97 353.85 129.73 353.91 C 129.65 356.23 129.49 358.54 129.30 360.86 C 125.69 360.88 122.08 360.87 118.47 360.91 C 119.81 347.63 122.06 334.46 123.48 321.18 M 130.12 346.60 C 130.79 346.59 132.13 346.57 132.80 346.56 C 132.67 341.95 132.14 337.36 131.35 332.82 C 130.29 337.33 130.39 342.00 130.12 346.60 Z" />
<path fill="#010102" opacity="1.00" d=" M 146.59 321.09 C 150.09 321.14 153.59 321.12 157.09 321.18 C 157.22 331.66 157.10 342.13 157.16 352.61 C 159.23 352.64 161.31 352.70 163.38 352.87 C 163.29 355.52 163.29 358.17 163.38 360.82 C 157.79 360.95 152.20 360.84 146.61 360.90 C 146.53 347.63 146.57 334.36 146.59 321.09 Z" />
<path fill="#010102" opacity="1.00" d=" M 165.35 321.15 C 168.82 321.13 172.30 321.13 175.77 321.13 C 175.79 331.64 175.62 342.16 175.85 352.67 C 177.93 352.66 180.02 352.66 182.10 352.69 C 182.16 355.40 182.16 358.12 182.13 360.83 C 176.54 360.92 170.95 360.90 165.37 360.85 C 165.41 347.61 165.42 334.38 165.35 321.15 Z" />
<path fill="#010102" opacity="1.00" d=" M 184.77 321.16 C 190.60 321.12 196.44 321.10 202.27 321.17 C 202.28 323.86 202.27 326.55 202.27 329.24 C 199.96 329.25 197.65 329.26 195.34 329.28 C 195.36 331.70 195.37 334.12 195.38 336.54 C 197.39 336.86 200.05 335.72 201.63 337.17 C 201.76 339.51 201.67 341.86 201.69 344.20 C 199.57 344.29 197.46 344.31 195.34 344.35 C 195.37 347.11 195.36 349.88 195.35 352.66 C 197.77 352.66 200.19 352.65 202.61 352.63 C 202.64 355.40 202.64 358.17 202.59 360.94 C 196.65 360.80 190.71 360.96 184.78 360.83 C 184.73 347.60 184.75 334.38 184.77 321.16 Z" />
<path fill="#010102" opacity="1.00" d=" M 205.27 321.12 C 208.18 321.13 211.09 321.12 214.00 321.14 C 215.82 326.45 217.15 331.93 219.39 337.09 C 219.52 331.75 219.34 326.41 219.50 321.08 C 222.44 321.15 225.38 321.15 228.33 321.12 C 228.34 334.38 228.36 347.64 228.32 360.90 C 225.22 360.88 222.12 360.89 219.02 360.85 C 217.31 355.75 216.40 350.35 214.00 345.51 C 213.56 350.61 213.85 355.74 213.82 360.85 C 210.97 360.88 208.13 360.88 205.28 360.87 C 205.30 347.62 205.33 334.37 205.27 321.12 Z" />
<path fill="#010102" opacity="1.00" d=" M 289.58 321.09 C 295.58 321.33 301.65 320.64 307.58 321.78 C 310.92 322.38 313.42 325.57 313.37 328.94 C 313.56 336.97 313.44 345.01 313.43 353.04 C 313.65 356.17 311.96 359.76 308.61 360.32 C 302.33 361.39 295.92 360.65 289.58 360.92 C 289.53 347.64 289.54 334.37 289.58 321.09 M 300.23 327.77 C 300.10 336.59 300.03 345.42 300.29 354.24 C 301.51 353.50 303.13 352.73 302.79 351.00 C 302.89 344.05 302.92 337.09 302.78 330.15 C 302.98 328.56 301.28 328.31 300.23 327.77 Z" />
<path fill="#010102" opacity="1.00" d=" M 316.78 321.17 C 322.61 321.11 328.45 321.11 334.29 321.16 C 334.28 323.85 334.31 326.55 334.28 329.25 C 331.97 329.25 329.67 329.26 327.37 329.28 C 327.38 331.70 327.39 334.12 327.39 336.54 C 329.48 336.52 331.57 336.53 333.67 336.51 C 333.71 339.12 333.69 341.72 333.63 344.33 C 331.54 344.30 329.45 344.31 327.37 344.29 C 327.39 347.07 327.39 349.86 327.37 352.64 C 329.81 352.63 332.26 352.67 334.71 352.74 C 334.66 355.44 334.65 358.15 334.68 360.85 C 328.72 360.88 322.75 360.94 316.79 360.82 C 316.73 347.60 316.76 334.38 316.78 321.17 Z" />
<path fill="#010102" opacity="1.00" d=" M 337.97 321.19 C 340.93 321.11 343.89 321.12 346.85 321.18 C 348.61 326.47 349.96 331.92 352.24 337.02 C 352.35 331.69 352.18 326.35 352.36 321.02 C 355.30 321.14 358.25 321.15 361.20 321.17 C 361.23 334.40 361.22 347.62 361.20 360.84 C 358.04 360.90 354.88 360.91 351.72 360.78 C 350.14 355.45 348.94 349.95 346.72 344.84 C 346.58 350.21 346.79 355.59 346.61 360.96 C 343.76 360.88 340.91 360.87 338.07 360.82 C 337.26 354.88 338.40 348.94 338.17 343.00 C 337.61 335.75 337.72 328.46 337.97 321.19 Z" />
<path fill="#010102" opacity="1.00" d=" M 365.35 321.14 C 368.82 321.13 372.30 321.13 375.77 321.14 C 375.74 334.38 375.72 347.63 375.78 360.88 C 372.30 360.88 368.83 360.89 365.36 360.85 C 365.41 347.61 365.42 334.37 365.35 321.14 Z" />
<path fill="#010102" opacity="1.00" d=" M 379.40 321.16 C 385.17 321.11 390.94 321.11 396.71 321.15 C 396.68 323.86 396.67 326.58 396.63 329.29 C 394.34 329.23 392.04 329.24 389.75 329.32 C 389.78 331.73 389.81 334.14 389.98 336.55 C 392.09 336.52 394.20 336.55 396.32 336.54 C 396.31 339.13 396.29 341.71 396.28 344.31 C 394.14 344.29 392.01 344.32 389.88 344.29 C 389.80 347.06 389.78 349.84 389.79 352.62 C 392.23 352.67 394.67 352.67 397.12 352.60 C 397.37 355.35 397.37 358.12 397.34 360.88 C 391.36 360.86 385.38 360.91 379.40 360.86 C 379.46 347.63 379.47 334.39 379.40 321.16 Z" />
<path fill="#010102" opacity="1.00" d=" M 400.46 321.16 C 406.48 321.24 412.57 320.68 418.53 321.79 C 421.86 322.43 424.33 325.57 424.32 328.94 C 424.50 336.97 424.38 345.01 424.38 353.05 C 424.56 356.11 422.98 359.67 419.70 360.29 C 413.36 361.38 406.88 360.73 400.47 360.84 C 400.54 347.61 400.58 334.38 400.46 321.16 M 411.25 327.77 C 410.54 336.43 410.77 345.17 411.11 353.85 C 411.71 353.72 412.92 353.46 413.52 353.33 C 414.11 345.62 413.78 337.86 413.76 330.14 C 413.97 328.63 412.19 328.37 411.25 327.77 Z" />
<path fill="#ffffff" opacity="1.00" d=" M 300.23 327.77 C 301.28 328.31 302.98 328.56 302.78 330.15 C 302.92 337.09 302.89 344.05 302.79 351.00 C 303.13 352.73 301.51 353.50 300.29 354.24 C 300.03 345.42 300.10 336.59 300.23 327.77 Z" />
<path fill="#ffffff" opacity="1.00" d=" M 411.25 327.77 C 412.19 328.37 413.97 328.63 413.76 330.14 C 413.78 337.86 414.11 345.62 413.52 353.33 C 412.92 353.46 411.71 353.72 411.11 353.85 C 410.77 345.17 410.54 336.43 411.25 327.77 Z" />
<path fill="#ffffff" opacity="1.00" d=" M 130.12 346.60 C 130.39 342.00 130.29 337.33 131.35 332.82 C 132.14 337.36 132.67 341.95 132.80 346.56 C 132.13 346.57 130.79 346.59 130.12 346.60 Z" />
<path fill="#010102" opacity="1.00" d=" M 426.57 352.49 C 429.15 352.49 431.73 352.52 434.32 352.53 C 434.30 355.29 434.27 358.06 434.29 360.84 C 431.73 360.86 429.16 360.88 426.60 360.92 C 426.60 358.11 426.56 355.30 426.57 352.49 Z" />
</svg>
